0, 0, Header, 1, 6, 240
1, 0, Start_track
1, 0, Time_signature, 12, 3, 24, 8
1, 0, Tempo, 705882
1, 0, SMPTE_offset, 64, 0, 0, 0, 93
1, 0, End_track
2, 0, Start_track
2, 0, Title_t, "(C) & (P) 1993"
2, 127, End_track
3, 0, Start_track
3, 0, Title_t, "CCARH,Stanford"
3, 0, End_track
4, 0, Start_track
4, 0, Title_t, "Track 1"
4, 0, Program_c, 0, 6
4, 0, Note_on_c, 0, 77, 88
4, 58, Note_off_c, 0, 77, 0
4, 60, Note_on_c, 0, 72, 88
4, 118, Note_off_c, 0, 72, 0
4, 120, Note_on_c, 0, 69, 88
4, 178, Note_off_c, 0, 69, 0
4, 180, Note_on_c, 0, 67, 88
4, 238, Note_off_c, 0, 67, 0
4, 240, Note_on_c, 0, 69, 88
4, 298, Note_off_c, 0, 69, 0
4, 300, Note_on_c, 0, 72, 88
4, 358, Note_off_c, 0, 72, 0
4, 360, Note_on_c, 0, 65, 88
4, 418, Note_off_c, 0, 65, 0
4, 420, Note_on_c, 0, 69, 88
4, 478, Note_off_c, 0, 69, 0
4, 480, Note_on_c, 0, 72, 88
4, 538, Note_off_c, 0, 72, 0
4, 540, Note_on_c, 0, 75, 88
4, 598, Note_off_c, 0, 75, 0
4, 600, Note_on_c, 0, 74, 88
4, 658, Note_off_c, 0, 74, 0
4, 660, Note_on_c, 0, 72, 88
4, 718, Note_off_c, 0, 72, 0
4, 720, Note_on_c, 0, 74, 88
4, 778, Note_off_c, 0, 74, 0
4, 780, Note_on_c, 0, 70, 88
4, 838, Note_off_c, 0, 70, 0
4, 840, Note_on_c, 0, 65, 88
4, 898, Note_off_c, 0, 65, 0
4, 900, Note_on_c, 0, 64, 88
4, 958, Note_off_c, 0, 64, 0
4, 960, Note_on_c, 0, 65, 88
4, 1018, Note_off_c, 0, 65, 0
4, 1020, Note_on_c, 0, 70, 88
4, 1078, Note_off_c, 0, 70, 0
4, 1080, Note_on_c, 0, 62, 88
4, 1138, Note_off_c, 0, 62, 0
4, 1140, Note_on_c, 0, 65, 88
4, 1198, Note_off_c, 0, 65, 0
4, 1200, Note_on_c, 0, 69, 88
4, 1258, Note_off_c, 0, 69, 0
4, 1260, Note_on_c, 0, 72, 88
4, 1318, Note_off_c, 0, 72, 0
4, 1320, Note_on_c, 0, 70, 88
4, 1378, Note_off_c, 0, 70, 0
4, 1380, Note_on_c, 0, 69, 88
4, 1438, Note_off_c, 0, 69, 0
4, 1440, Note_on_c, 0, 70, 88
4, 1498, Note_off_c, 0, 70, 0
4, 1500, Note_on_c, 0, 67, 88
4, 1558, Note_off_c, 0, 67, 0
4, 1560, Note_on_c, 0, 64, 88
4, 1618, Note_off_c, 0, 64, 0
4, 1620, Note_on_c, 0, 62, 88
4, 1678, Note_off_c, 0, 62, 0
4, 1680, Note_on_c, 0, 64, 88
4, 1738, Note_off_c, 0, 64, 0
4, 1740, Note_on_c, 0, 67, 88
4, 1798, Note_off_c, 0, 67, 0
4, 1800, Note_on_c, 0, 60, 88
4, 1858, Note_off_c, 0, 60, 0
4, 1860, Note_on_c, 0, 64, 88
4, 1918, Note_off_c, 0, 64, 0
4, 1920, Note_on_c, 0, 67, 88
4, 1978, Note_off_c, 0, 67, 0
4, 1980, Note_on_c, 0, 70, 88
4, 2038, Note_off_c, 0, 70, 0
4, 2040, Note_on_c, 0, 69, 88
4, 2098, Note_off_c, 0, 69, 0
4, 2100, Note_on_c, 0, 67, 88
4, 2158, Note_off_c, 0, 67, 0
4, 2160, Note_on_c, 0, 69, 88
4, 2218, Note_off_c, 0, 69, 0
4, 2220, Note_on_c, 0, 67, 88
4, 2278, Note_off_c, 0, 67, 0
4, 2280, Note_on_c, 0, 65, 88
4, 2338, Note_off_c, 0, 65, 0
4, 2340, Note_on_c, 0, 64, 88
4, 2398, Note_off_c, 0, 64, 0
4, 2400, Note_on_c, 0, 65, 88
4, 2458, Note_off_c, 0, 65, 0
4, 2460, Note_on_c, 0, 69, 88
4, 2518, Note_off_c, 0, 69, 0
4, 2520, Note_on_c, 0, 60, 88
4, 2578, Note_off_c, 0, 60, 0
4, 2580, Note_on_c, 0, 64, 88
4, 2638, Note_off_c, 0, 64, 0
4, 2640, Note_on_c, 0, 65, 88
4, 2698, Note_off_c, 0, 65, 0
4, 2700, Note_on_c, 0, 69, 88
4, 2758, Note_off_c, 0, 69, 0
4, 2760, Note_on_c, 0, 67, 88
4, 2818, Note_off_c, 0, 67, 0
4, 2820, Note_on_c, 0, 65, 88
4, 2878, Note_off_c, 0, 65, 0
4, 2880, Note_on_c, 0, 71, 88
4, 2945, Note_off_c, 0, 71, 0
4, 2948, Note_on_c, 0, 72, 88
4, 2977, Note_off_c, 0, 72, 0
4, 2978, Note_on_c, 0, 71, 88
4, 3007, Note_off_c, 0, 71, 0
4, 3008, Note_on_c, 0, 72, 88
4, 3037, Note_off_c, 0, 72, 0
4, 3038, Note_on_c, 0, 71, 88
4, 3067, Note_off_c, 0, 71, 0
4, 3068, Note_on_c, 0, 72, 88
4, 3097, Note_off_c, 0, 72, 0
4, 3098, Note_on_c, 0, 71, 88
4, 3127, Note_off_c, 0, 71, 0
4, 3128, Note_on_c, 0, 72, 88
4, 3157, Note_off_c, 0, 72, 0
4, 3158, Note_on_c, 0, 71, 88
4, 3187, Note_off_c, 0, 71, 0
4, 3188, Note_on_c, 0, 72, 88
4, 3217, Note_off_c, 0, 72, 0
4, 3218, Note_on_c, 0, 71, 88
4, 3239, Note_off_c, 0, 71, 0
4, 3240, Note_on_c, 0, 72, 88
4, 3262, Note_off_c, 0, 72, 0
4, 3263, Note_on_c, 0, 71, 88
4, 3284, Note_off_c, 0, 71, 0
4, 3285, Note_on_c, 0, 72, 88
4, 3307, Note_off_c, 0, 72, 0
4, 3308, Note_on_c, 0, 71, 88
4, 3329, Note_off_c, 0, 71, 0
4, 3330, Note_on_c, 0, 72, 88
4, 3352, Note_off_c, 0, 72, 0
4, 3353, Note_on_c, 0, 71, 88
4, 3374, Note_off_c, 0, 71, 0
4, 3375, Note_on_c, 0, 72, 88
4, 3397, Note_off_c, 0, 72, 0
4, 3398, Note_on_c, 0, 71, 88
4, 3419, Note_off_c, 0, 71, 0
4, 3420, Note_on_c, 0, 72, 88
4, 3442, Note_off_c, 0, 72, 0
4, 3443, Note_on_c, 0, 71, 88
4, 3464, Note_off_c, 0, 71, 0
4, 3465, Note_on_c, 0, 72, 88
4, 3487, Note_off_c, 0, 72, 0
4, 3488, Note_on_c, 0, 71, 88
4, 3509, Note_off_c, 0, 71, 0
4, 3510, Note_on_c, 0, 72, 88
4, 3532, Note_off_c, 0, 72, 0
4, 3533, Note_on_c, 0, 71, 88
4, 3598, Note_off_c, 0, 71, 0
4, 3600, Note_on_c, 0, 72, 88
4, 3658, Note_off_c, 0, 72, 0
4, 3660, Note_on_c, 0, 67, 88
4, 3718, Note_off_c, 0, 67, 0
4, 3720, Note_on_c, 0, 64, 88
4, 3778, Note_off_c, 0, 64, 0
4, 3780, Note_on_c, 0, 62, 88
4, 3838, Note_off_c, 0, 62, 0
4, 3840, Note_on_c, 0, 64, 88
4, 3898, Note_off_c, 0, 64, 0
4, 3900, Note_on_c, 0, 67, 88
4, 3958, Note_off_c, 0, 67, 0
4, 3960, Note_on_c, 0, 60, 88
4, 4018, Note_off_c, 0, 60, 0
4, 4020, Note_on_c, 0, 64, 88
4, 4078, Note_off_c, 0, 64, 0
4, 4080, Note_on_c, 0, 67, 88
4, 4138, Note_off_c, 0, 67, 0
4, 4140, Note_on_c, 0, 70, 88
4, 4198, Note_off_c, 0, 70, 0
4, 4200, Note_on_c, 0, 69, 88
4, 4258, Note_off_c, 0, 69, 0
4, 4260, Note_on_c, 0, 67, 88
4, 4318, Note_off_c, 0, 67, 0
4, 4320, Note_on_c, 0, 74, 88
4, 4385, Note_off_c, 0, 74, 0
4, 4388, Note_on_c, 0, 73, 88
4, 4417, Note_off_c, 0, 73, 0
4, 4418, Note_on_c, 0, 74, 88
4, 4447, Note_off_c, 0, 74, 0
4, 4448, Note_on_c, 0, 73, 88
4, 4477, Note_off_c, 0, 73, 0
4, 4478, Note_on_c, 0, 74, 88
4, 4507, Note_off_c, 0, 74, 0
4, 4508, Note_on_c, 0, 73, 88
4, 4537, Note_off_c, 0, 73, 0
4, 4538, Note_on_c, 0, 74, 88
4, 4567, Note_off_c, 0, 74, 0
4, 4568, Note_on_c, 0, 73, 88
4, 4589, Note_off_c, 0, 73, 0
4, 4590, Note_on_c, 0, 74, 88
4, 4612, Note_off_c, 0, 74, 0
4, 4613, Note_on_c, 0, 73, 88
4, 4634, Note_off_c, 0, 73, 0
4, 4635, Note_on_c, 0, 74, 88
4, 4657, Note_off_c, 0, 74, 0
4, 4658, Note_on_c, 0, 73, 88
4, 4679, Note_off_c, 0, 73, 0
4, 4680, Note_on_c, 0, 74, 88
4, 4702, Note_off_c, 0, 74, 0
4, 4703, Note_on_c, 0, 73, 88
4, 4724, Note_off_c, 0, 73, 0
4, 4725, Note_on_c, 0, 74, 88
4, 4747, Note_off_c, 0, 74, 0
4, 4748, Note_on_c, 0, 73, 88
4, 4769, Note_off_c, 0, 73, 0
4, 4770, Note_on_c, 0, 74, 88
4, 4792, Note_off_c, 0, 74, 0
4, 4793, Note_on_c, 0, 73, 88
4, 4814, Note_off_c, 0, 73, 0
4, 4815, Note_on_c, 0, 74, 88
4, 4837, Note_off_c, 0, 74, 0
4, 4838, Note_on_c, 0, 73, 88
4, 4859, Note_off_c, 0, 73, 0
4, 4860, Note_on_c, 0, 74, 88
4, 4882, Note_off_c, 0, 74, 0
4, 4883, Note_on_c, 0, 73, 88
4, 4904, Note_off_c, 0, 73, 0
4, 4905, Note_on_c, 0, 74, 88
4, 4927, Note_off_c, 0, 74, 0
4, 4928, Note_on_c, 0, 73, 88
4, 4949, Note_off_c, 0, 73, 0
4, 4950, Note_on_c, 0, 74, 88
4, 4972, Note_off_c, 0, 74, 0
4, 4973, Note_on_c, 0, 73, 88
4, 5038, Note_off_c, 0, 73, 0
4, 5040, Note_on_c, 0, 74, 88
4, 5098, Note_off_c, 0, 74, 0
4, 5100, Note_on_c, 0, 69, 88
4, 5158, Note_off_c, 0, 69, 0
4, 5160, Note_on_c, 0, 65, 88
4, 5218, Note_off_c, 0, 65, 0
4, 5220, Note_on_c, 0, 64, 88
4, 5278, Note_off_c, 0, 64, 0
4, 5280, Note_on_c, 0, 65, 88
4, 5338, Note_off_c, 0, 65, 0
4, 5340, Note_on_c, 0, 69, 88
4, 5398, Note_off_c, 0, 69, 0
4, 5400, Note_on_c, 0, 62, 88
4, 5458, Note_off_c, 0, 62, 0
4, 5460, Note_on_c, 0, 65, 88
4, 5518, Note_off_c, 0, 65, 0
4, 5520, Note_on_c, 0, 69, 88
4, 5578, Note_off_c, 0, 69, 0
4, 5580, Note_on_c, 0, 72, 88
4, 5638, Note_off_c, 0, 72, 0
4, 5640, Note_on_c, 0, 70, 88
4, 5698, Note_off_c, 0, 70, 0
4, 5700, Note_on_c, 0, 69, 88
4, 5758, Note_off_c, 0, 69, 0
4, 5760, Note_on_c, 0, 70, 88
4, 5818, Note_off_c, 0, 70, 0
4, 5820, Note_on_c, 0, 67, 88
4, 5878, Note_off_c, 0, 67, 0
4, 5880, Note_on_c, 0, 64, 88
4, 5938, Note_off_c, 0, 64, 0
4, 5940, Note_on_c, 0, 62, 88
4, 5998, Note_off_c, 0, 62, 0
4, 6000, Note_on_c, 0, 64, 88
4, 6058, Note_off_c, 0, 64, 0
4, 6060, Note_on_c, 0, 67, 88
4, 6118, Note_off_c, 0, 67, 0
4, 6120, Note_on_c, 0, 60, 88
4, 6178, Note_off_c, 0, 60, 0
4, 6180, Note_on_c, 0, 64, 88
4, 6238, Note_off_c, 0, 64, 0
4, 6240, Note_on_c, 0, 67, 88
4, 6298, Note_off_c, 0, 67, 0
4, 6300, Note_on_c, 0, 70, 88
4, 6358, Note_off_c, 0, 70, 0
4, 6360, Note_on_c, 0, 69, 88
4, 6418, Note_off_c, 0, 69, 0
4, 6420, Note_on_c, 0, 67, 88
4, 6478, Note_off_c, 0, 67, 0
4, 6480, Note_on_c, 0, 69, 88
4, 6538, Note_off_c, 0, 69, 0
4, 6540, Note_on_c, 0, 65, 88
4, 6598, Note_off_c, 0, 65, 0
4, 6600, Note_on_c, 0, 62, 88
4, 6658, Note_off_c, 0, 62, 0
4, 6660, Note_on_c, 0, 61, 88
4, 6718, Note_off_c, 0, 61, 0
4, 6720, Note_on_c, 0, 62, 88
4, 6778, Note_off_c, 0, 62, 0
4, 6780, Note_on_c, 0, 65, 88
4, 6838, Note_off_c, 0, 65, 0
4, 6840, Note_on_c, 0, 58, 88
4, 6898, Note_off_c, 0, 58, 0
4, 6900, Note_on_c, 0, 62, 88
4, 6958, Note_off_c, 0, 62, 0
4, 6960, Note_on_c, 0, 65, 88
4, 7018, Note_off_c, 0, 65, 0
4, 7020, Note_on_c, 0, 69, 88
4, 7078, Note_off_c, 0, 69, 0
4, 7080, Note_on_c, 0, 67, 88
4, 7138, Note_off_c, 0, 67, 0
4, 7140, Note_on_c, 0, 65, 88
4, 7198, Note_off_c, 0, 65, 0
4, 7200, Note_on_c, 0, 67, 88
4, 7258, Note_off_c, 0, 67, 0
4, 7260, Note_on_c, 0, 64, 88
4, 7318, Note_off_c, 0, 64, 0
4, 7320, Note_on_c, 0, 61, 88
4, 7378, Note_off_c, 0, 61, 0
4, 7380, Note_on_c, 0, 59, 88
4, 7438, Note_off_c, 0, 59, 0
4, 7440, Note_on_c, 0, 61, 88
4, 7498, Note_off_c, 0, 61, 0
4, 7500, Note_on_c, 0, 64, 88
4, 7558, Note_off_c, 0, 64, 0
4, 7560, Note_on_c, 0, 57, 88
4, 7618, Note_off_c, 0, 57, 0
4, 7620, Note_on_c, 0, 61, 88
4, 7678, Note_off_c, 0, 61, 0
4, 7680, Note_on_c, 0, 64, 88
4, 7738, Note_off_c, 0, 64, 0
4, 7740, Note_on_c, 0, 67, 88
4, 7798, Note_off_c, 0, 67, 0
4, 7800, Note_on_c, 0, 65, 88
4, 7858, Note_off_c, 0, 65, 0
4, 7860, Note_on_c, 0, 64, 88
4, 7918, Note_off_c, 0, 64, 0
4, 7920, Note_on_c, 0, 65, 88
4, 8036, Note_off_c, 0, 65, 0
4, 8040, Note_on_c, 0, 69, 88
4, 8156, Note_off_c, 0, 69, 0
4, 8160, Note_on_c, 0, 74, 88
4, 8276, Note_off_c, 0, 74, 0
4, 8280, Note_on_c, 0, 69, 88
4, 8396, Note_off_c, 0, 69, 0
4, 8400, Note_on_c, 0, 65, 88
4, 8516, Note_off_c, 0, 65, 0
4, 8520, Note_on_c, 0, 62, 88
4, 8636, Note_off_c, 0, 62, 0
4, 8640, Note_on_c, 0, 67, 88
4, 8756, Note_off_c, 0, 67, 0
4, 8760, Note_on_c, 0, 70, 88
4, 8876, Note_off_c, 0, 70, 0
4, 8880, Note_on_c, 0, 74, 88
4, 8996, Note_off_c, 0, 74, 0
4, 9000, Note_on_c, 0, 70, 88
4, 9116, Note_off_c, 0, 70, 0
4, 9120, Note_on_c, 0, 67, 88
4, 9236, Note_off_c, 0, 67, 0
4, 9240, Note_on_c, 0, 62, 88
4, 9356, Note_off_c, 0, 62, 0
4, 9360, Note_on_c, 0, 67, 88
4, 9476, Note_off_c, 0, 67, 0
4, 9480, Note_on_c, 0, 73, 88
4, 9596, Note_off_c, 0, 73, 0
4, 9600, Note_on_c, 0, 76, 88
4, 9716, Note_off_c, 0, 76, 0
4, 9720, Note_on_c, 0, 73, 88
4, 9836, Note_off_c, 0, 73, 0
4, 9840, Note_on_c, 0, 67, 88
4, 9956, Note_off_c, 0, 67, 0
4, 9960, Note_on_c, 0, 64, 88
4, 10076, Note_off_c, 0, 64, 0
4, 10080, Note_on_c, 0, 74, 88
4, 10138, Note_off_c, 0, 74, 0
4, 10140, Note_on_c, 0, 69, 88
4, 10198, Note_off_c, 0, 69, 0
4, 10200, Note_on_c, 0, 65, 88
4, 10258, Note_off_c, 0, 65, 0
4, 10260, Note_on_c, 0, 64, 88
4, 10318, Note_off_c, 0, 64, 0
4, 10320, Note_on_c, 0, 65, 88
4, 10378, Note_off_c, 0, 65, 0
4, 10380, Note_on_c, 0, 69, 88
4, 10438, Note_off_c, 0, 69, 0
4, 10440, Note_on_c, 0, 62, 88
4, 10498, Note_off_c, 0, 62, 0
4, 10500, Note_on_c, 0, 65, 88
4, 10558, Note_off_c, 0, 65, 0
4, 10560, Note_on_c, 0, 69, 88
4, 10618, Note_off_c, 0, 69, 0
4, 10620, Note_on_c, 0, 72, 88
4, 10678, Note_off_c, 0, 72, 0
4, 10680, Note_on_c, 0, 70, 88
4, 10738, Note_off_c, 0, 70, 0
4, 10740, Note_on_c, 0, 69, 88
4, 10798, Note_off_c, 0, 69, 0
4, 10800, Note_on_c, 0, 77, 88
4, 10858, Note_off_c, 0, 77, 0
4, 10860, Note_on_c, 0, 74, 88
4, 10918, Note_off_c, 0, 74, 0
4, 10920, Note_on_c, 0, 70, 88
4, 10978, Note_off_c, 0, 70, 0
4, 10980, Note_on_c, 0, 69, 88
4, 11038, Note_off_c, 0, 69, 0
4, 11040, Note_on_c, 0, 70, 88
4, 11098, Note_off_c, 0, 70, 0
4, 11100, Note_on_c, 0, 74, 88
4, 11158, Note_off_c, 0, 74, 0
4, 11160, Note_on_c, 0, 65, 88
4, 11218, Note_off_c, 0, 65, 0
4, 11220, Note_on_c, 0, 70, 88
4, 11278, Note_off_c, 0, 70, 0
4, 11280, Note_on_c, 0, 74, 88
4, 11338, Note_off_c, 0, 74, 0
4, 11340, Note_on_c, 0, 77, 88
4, 11398, Note_off_c, 0, 77, 0
4, 11400, Note_on_c, 0, 76, 88
4, 11458, Note_off_c, 0, 76, 0
4, 11460, Note_on_c, 0, 74, 88
4, 11518, Note_off_c, 0, 74, 0
4, 11520, Note_on_c, 0, 81, 88
4, 11585, Note_off_c, 0, 81, 0
4, 11588, Note_on_c, 0, 80, 88
4, 11617, Note_off_c, 0, 80, 0
4, 11618, Note_on_c, 0, 81, 88
4, 11647, Note_off_c, 0, 81, 0
4, 11648, Note_on_c, 0, 80, 88
4, 11677, Note_off_c, 0, 80, 0
4, 11678, Note_on_c, 0, 81, 88
4, 11707, Note_off_c, 0, 81, 0
4, 11708, Note_on_c, 0, 80, 88
4, 11737, Note_off_c, 0, 80, 0
4, 11738, Note_on_c, 0, 81, 88
4, 11767, Note_off_c, 0, 81, 0
4, 11768, Note_on_c, 0, 80, 88
4, 11789, Note_off_c, 0, 80, 0
4, 11790, Note_on_c, 0, 81, 88
4, 11812, Note_off_c, 0, 81, 0
4, 11813, Note_on_c, 0, 80, 88
4, 11834, Note_off_c, 0, 80, 0
4, 11835, Note_on_c, 0, 81, 88
4, 11857, Note_off_c, 0, 81, 0
4, 11858, Note_on_c, 0, 80, 88
4, 11879, Note_off_c, 0, 80, 0
4, 11880, Note_on_c, 0, 81, 88
4, 11902, Note_off_c, 0, 81, 0
4, 11903, Note_on_c, 0, 80, 88
4, 11924, Note_off_c, 0, 80, 0
4, 11925, Note_on_c, 0, 81, 88
4, 11947, Note_off_c, 0, 81, 0
4, 11948, Note_on_c, 0, 80, 88
4, 11969, Note_off_c, 0, 80, 0
4, 11970, Note_on_c, 0, 81, 88
4, 11992, Note_off_c, 0, 81, 0
4, 11993, Note_on_c, 0, 80, 88
4, 12014, Note_off_c, 0, 80, 0
4, 12015, Note_on_c, 0, 81, 88
4, 12037, Note_off_c, 0, 81, 0
4, 12038, Note_on_c, 0, 80, 88
4, 12059, Note_off_c, 0, 80, 0
4, 12060, Note_on_c, 0, 81, 88
4, 12082, Note_off_c, 0, 81, 0
4, 12083, Note_on_c, 0, 80, 88
4, 12104, Note_off_c, 0, 80, 0
4, 12105, Note_on_c, 0, 81, 88
4, 12127, Note_off_c, 0, 81, 0
4, 12128, Note_on_c, 0, 80, 88
4, 12149, Note_off_c, 0, 80, 0
4, 12150, Note_on_c, 0, 81, 88
4, 12172, Note_off_c, 0, 81, 0
4, 12173, Note_on_c, 0, 80, 88
4, 12238, Note_off_c, 0, 80, 0
4, 12240, Note_on_c, 0, 81, 88
4, 12298, Note_off_c, 0, 81, 0
4, 12300, Note_on_c, 0, 76, 88
4, 12358, Note_off_c, 0, 76, 0
4, 12360, Note_on_c, 0, 73, 88
4, 12418, Note_off_c, 0, 73, 0
4, 12420, Note_on_c, 0, 71, 88
4, 12478, Note_off_c, 0, 71, 0
4, 12480, Note_on_c, 0, 73, 88
4, 12538, Note_off_c, 0, 73, 0
4, 12540, Note_on_c, 0, 76, 88
4, 12598, Note_off_c, 0, 76, 0
4, 12600, Note_on_c, 0, 69, 88
4, 12658, Note_off_c, 0, 69, 0
4, 12660, Note_on_c, 0, 73, 88
4, 12718, Note_off_c, 0, 73, 0
4, 12720, Note_on_c, 0, 76, 88
4, 12778, Note_off_c, 0, 76, 0
4, 12780, Note_on_c, 0, 79, 88
4, 12838, Note_off_c, 0, 79, 0
4, 12840, Note_on_c, 0, 78, 88
4, 12898, Note_off_c, 0, 78, 0
4, 12900, Note_on_c, 0, 76, 88
4, 12958, Note_off_c, 0, 76, 0
4, 12960, Note_on_c, 0, 78, 88
4, 13025, Note_off_c, 0, 78, 0
4, 13028, Note_on_c, 0, 79, 88
4, 13057, Note_off_c, 0, 79, 0
4, 13058, Note_on_c, 0, 78, 88
4, 13087, Note_off_c, 0, 78, 0
4, 13088, Note_on_c, 0, 79, 88
4, 13117, Note_off_c, 0, 79, 0
4, 13118, Note_on_c, 0, 78, 88
4, 13147, Note_off_c, 0, 78, 0
4, 13148, Note_on_c, 0, 79, 88
4, 13177, Note_off_c, 0, 79, 0
4, 13178, Note_on_c, 0, 78, 88
4, 13207, Note_off_c, 0, 78, 0
4, 13208, Note_on_c, 0, 79, 88
4, 13237, Note_off_c, 0, 79, 0
4, 13238, Note_on_c, 0, 78, 88
4, 13267, Note_off_c, 0, 78, 0
4, 13268, Note_on_c, 0, 79, 88
4, 13297, Note_off_c, 0, 79, 0
4, 13298, Note_on_c, 0, 78, 88
4, 13319, Note_off_c, 0, 78, 0
4, 13320, Note_on_c, 0, 79, 88
4, 13342, Note_off_c, 0, 79, 0
4, 13343, Note_on_c, 0, 78, 88
4, 13364, Note_off_c, 0, 78, 0
4, 13365, Note_on_c, 0, 79, 88
4, 13387, Note_off_c, 0, 79, 0
4, 13388, Note_on_c, 0, 78, 88
4, 13409, Note_off_c, 0, 78, 0
4, 13410, Note_on_c, 0, 79, 88
4, 13432, Note_off_c, 0, 79, 0
4, 13433, Note_on_c, 0, 78, 88
4, 13454, Note_off_c, 0, 78, 0
4, 13455, Note_on_c, 0, 79, 88
4, 13477, Note_off_c, 0, 79, 0
4, 13478, Note_on_c, 0, 78, 88
4, 13499, Note_off_c, 0, 78, 0
4, 13500, Note_on_c, 0, 79, 88
4, 13522, Note_off_c, 0, 79, 0
4, 13523, Note_on_c, 0, 78, 88
4, 13544, Note_off_c, 0, 78, 0
4, 13545, Note_on_c, 0, 79, 88
4, 13567, Note_off_c, 0, 79, 0
4, 13568, Note_on_c, 0, 78, 88
4, 13589, Note_off_c, 0, 78, 0
4, 13590, Note_on_c, 0, 79, 88
4, 13612, Note_off_c, 0, 79, 0
4, 13613, Note_on_c, 0, 78, 88
4, 13678, Note_off_c, 0, 78, 0
4, 13680, Note_on_c, 0, 79, 88
4, 13738, Note_off_c, 0, 79, 0
4, 13740, Note_on_c, 0, 74, 88
4, 13798, Note_off_c, 0, 74, 0
4, 13800, Note_on_c, 0, 71, 88
4, 13858, Note_off_c, 0, 71, 0
4, 13860, Note_on_c, 0, 69, 88
4, 13918, Note_off_c, 0, 69, 0
4, 13920, Note_on_c, 0, 71, 88
4, 13978, Note_off_c, 0, 71, 0
4, 13980, Note_on_c, 0, 74, 88
4, 14038, Note_off_c, 0, 74, 0
4, 14040, Note_on_c, 0, 67, 88
4, 14098, Note_off_c, 0, 67, 0
4, 14100, Note_on_c, 0, 71, 88
4, 14158, Note_off_c, 0, 71, 0
4, 14160, Note_on_c, 0, 74, 88
4, 14218, Note_off_c, 0, 74, 0
4, 14220, Note_on_c, 0, 77, 88
4, 14278, Note_off_c, 0, 77, 0
4, 14280, Note_on_c, 0, 75, 88
4, 14338, Note_off_c, 0, 75, 0
4, 14340, Note_on_c, 0, 74, 88
4, 14398, Note_off_c, 0, 74, 0
4, 14400, Note_on_c, 0, 75, 88
4, 14458, Note_off_c, 0, 75, 0
4, 14460, Note_on_c, 0, 72, 88
4, 14518, Note_off_c, 0, 72, 0
4, 14520, Note_on_c, 0, 69, 88
4, 14578, Note_off_c, 0, 69, 0
4, 14580, Note_on_c, 0, 67, 88
4, 14638, Note_off_c, 0, 67, 0
4, 14640, Note_on_c, 0, 69, 88
4, 14698, Note_off_c, 0, 69, 0
4, 14700, Note_on_c, 0, 72, 88
4, 14758, Note_off_c, 0, 72, 0
4, 14760, Note_on_c, 0, 65, 88
4, 14818, Note_off_c, 0, 65, 0
4, 14820, Note_on_c, 0, 69, 88
4, 14878, Note_off_c, 0, 69, 0
4, 14880, Note_on_c, 0, 72, 88
4, 14938, Note_off_c, 0, 72, 0
4, 14940, Note_on_c, 0, 75, 88
4, 14998, Note_off_c, 0, 75, 0
4, 15000, Note_on_c, 0, 74, 88
4, 15058, Note_off_c, 0, 74, 0
4, 15060, Note_on_c, 0, 72, 88
4, 15118, Note_off_c, 0, 72, 0
4, 15120, Note_on_c, 0, 74, 88
4, 15178, Note_off_c, 0, 74, 0
4, 15180, Note_on_c, 0, 70, 88
4, 15238, Note_off_c, 0, 70, 0
4, 15240, Note_on_c, 0, 67, 88
4, 15298, Note_off_c, 0, 67, 0
4, 15300, Note_on_c, 0, 66, 88
4, 15358, Note_off_c, 0, 66, 0
4, 15360, Note_on_c, 0, 67, 88
4, 15418, Note_off_c, 0, 67, 0
4, 15420, Note_on_c, 0, 70, 88
4, 15478, Note_off_c, 0, 70, 0
4, 15480, Note_on_c, 0, 63, 88
4, 15538, Note_off_c, 0, 63, 0
4, 15540, Note_on_c, 0, 67, 88
4, 15598, Note_off_c, 0, 67, 0
4, 15600, Note_on_c, 0, 70, 88
4, 15658, Note_off_c, 0, 70, 0
4, 15660, Note_on_c, 0, 74, 88
4, 15718, Note_off_c, 0, 74, 0
4, 15720, Note_on_c, 0, 72, 88
4, 15778, Note_off_c, 0, 72, 0
4, 15780, Note_on_c, 0, 70, 88
4, 15838, Note_off_c, 0, 70, 0
4, 15840, Note_on_c, 0, 72, 88
4, 15898, Note_off_c, 0, 72, 0
4, 15900, Note_on_c, 0, 69, 88
4, 15958, Note_off_c, 0, 69, 0
4, 15960, Note_on_c, 0, 66, 88
4, 16018, Note_off_c, 0, 66, 0
4, 16020, Note_on_c, 0, 64, 88
4, 16078, Note_off_c, 0, 64, 0
4, 16080, Note_on_c, 0, 66, 88
4, 16138, Note_off_c, 0, 66, 0
4, 16140, Note_on_c, 0, 69, 88
4, 16198, Note_off_c, 0, 69, 0
4, 16200, Note_on_c, 0, 62, 88
4, 16258, Note_off_c, 0, 62, 0
4, 16260, Note_on_c, 0, 66, 88
4, 16318, Note_off_c, 0, 66, 0
4, 16320, Note_on_c, 0, 69, 88
4, 16378, Note_off_c, 0, 69, 0
4, 16380, Note_on_c, 0, 72, 88
4, 16438, Note_off_c, 0, 72, 0
4, 16440, Note_on_c, 0, 70, 88
4, 16498, Note_off_c, 0, 70, 0
4, 16500, Note_on_c, 0, 69, 88
4, 16558, Note_off_c, 0, 69, 0
4, 16560, Note_on_c, 0, 70, 88
4, 16625, Note_off_c, 0, 70, 0
4, 16628, Note_on_c, 0, 72, 88
4, 16657, Note_off_c, 0, 72, 0
4, 16658, Note_on_c, 0, 70, 88
4, 16687, Note_off_c, 0, 70, 0
4, 16688, Note_on_c, 0, 72, 88
4, 16717, Note_off_c, 0, 72, 0
4, 16718, Note_on_c, 0, 70, 88
4, 16747, Note_off_c, 0, 70, 0
4, 16748, Note_on_c, 0, 72, 88
4, 16777, Note_off_c, 0, 72, 0
4, 16778, Note_on_c, 0, 70, 88
4, 16807, Note_off_c, 0, 70, 0
4, 16808, Note_on_c, 0, 72, 88
4, 16837, Note_off_c, 0, 72, 0
4, 16838, Note_on_c, 0, 70, 88
4, 16867, Note_off_c, 0, 70, 0
4, 16868, Note_on_c, 0, 72, 88
4, 16897, Note_off_c, 0, 72, 0
4, 16898, Note_on_c, 0, 70, 88
4, 16919, Note_off_c, 0, 70, 0
4, 16920, Note_on_c, 0, 72, 88
4, 16942, Note_off_c, 0, 72, 0
4, 16943, Note_on_c, 0, 70, 88
4, 16964, Note_off_c, 0, 70, 0
4, 16965, Note_on_c, 0, 72, 88
4, 16987, Note_off_c, 0, 72, 0
4, 16988, Note_on_c, 0, 70, 88
4, 17009, Note_off_c, 0, 70, 0
4, 17010, Note_on_c, 0, 72, 88
4, 17032, Note_off_c, 0, 72, 0
4, 17033, Note_on_c, 0, 70, 88
4, 17054, Note_off_c, 0, 70, 0
4, 17055, Note_on_c, 0, 72, 88
4, 17077, Note_off_c, 0, 72, 0
4, 17078, Note_on_c, 0, 70, 88
4, 17099, Note_off_c, 0, 70, 0
4, 17100, Note_on_c, 0, 72, 88
4, 17122, Note_off_c, 0, 72, 0
4, 17123, Note_on_c, 0, 70, 88
4, 17144, Note_off_c, 0, 70, 0
4, 17145, Note_on_c, 0, 72, 88
4, 17167, Note_off_c, 0, 72, 0
4, 17168, Note_on_c, 0, 70, 88
4, 17189, Note_off_c, 0, 70, 0
4, 17190, Note_on_c, 0, 72, 88
4, 17212, Note_off_c, 0, 72, 0
4, 17213, Note_on_c, 0, 70, 88
4, 17278, Note_off_c, 0, 70, 0
4, 17280, Note_on_c, 0, 70, 88
4, 17988, Note_off_c, 0, 70, 0
4, 18000, Note_on_c, 0, 69, 88
4, 18759, Note_off_c, 0, 69, 0
4, 18780, Note_on_c, 0, 69, 88
4, 18838, Note_off_c, 0, 69, 0
4, 18840, Note_on_c, 0, 65, 88
4, 18898, Note_off_c, 0, 65, 0
4, 18900, Note_on_c, 0, 64, 88
4, 18958, Note_off_c, 0, 64, 0
4, 18960, Note_on_c, 0, 65, 88
4, 19018, Note_off_c, 0, 65, 0
4, 19020, Note_on_c, 0, 69, 88
4, 19078, Note_off_c, 0, 69, 0
4, 19080, Note_on_c, 0, 62, 88
4, 19138, Note_off_c, 0, 62, 0
4, 19140, Note_on_c, 0, 65, 88
4, 19198, Note_off_c, 0, 65, 0
4, 19200, Note_on_c, 0, 69, 88
4, 19258, Note_off_c, 0, 69, 0
4, 19260, Note_on_c, 0, 72, 88
4, 19318, Note_off_c, 0, 72, 0
4, 19320, Note_on_c, 0, 70, 88
4, 19378, Note_off_c, 0, 70, 0
4, 19380, Note_on_c, 0, 69, 88
4, 19438, Note_off_c, 0, 69, 0
4, 19440, Note_on_c, 0, 67, 88
4, 19498, Note_off_c, 0, 67, 0
4, 19500, Note_on_c, 0, 74, 88
4, 19558, Note_off_c, 0, 74, 0
4, 19560, Note_on_c, 0, 70, 88
4, 19618, Note_off_c, 0, 70, 0
4, 19620, Note_on_c, 0, 69, 88
4, 19678, Note_off_c, 0, 69, 0
4, 19680, Note_on_c, 0, 70, 88
4, 19738, Note_off_c, 0, 70, 0
4, 19740, Note_on_c, 0, 74, 88
4, 19798, Note_off_c, 0, 74, 0
4, 19800, Note_on_c, 0, 67, 88
4, 19858, Note_off_c, 0, 67, 0
4, 19860, Note_on_c, 0, 70, 88
4, 19918, Note_off_c, 0, 70, 0
4, 19920, Note_on_c, 0, 74, 88
4, 19978, Note_off_c, 0, 74, 0
4, 19980, Note_on_c, 0, 77, 88
4, 20038, Note_off_c, 0, 77, 0
4, 20040, Note_on_c, 0, 76, 88
4, 20098, Note_off_c, 0, 76, 0
4, 20100, Note_on_c, 0, 74, 88
4, 20158, Note_off_c, 0, 74, 0
4, 20160, Note_on_c, 0, 76, 88
4, 20218, Note_off_c, 0, 76, 0
4, 20220, Note_on_c, 0, 79, 88
4, 20278, Note_off_c, 0, 79, 0
4, 20280, Note_on_c, 0, 76, 88
4, 20338, Note_off_c, 0, 76, 0
4, 20340, Note_on_c, 0, 74, 88
4, 20398, Note_off_c, 0, 74, 0
4, 20400, Note_on_c, 0, 76, 88
4, 20458, Note_off_c, 0, 76, 0
4, 20460, Note_on_c, 0, 79, 88
4, 20518, Note_off_c, 0, 79, 0
4, 20520, Note_on_c, 0, 72, 88
4, 20578, Note_off_c, 0, 72, 0
4, 20580, Note_on_c, 0, 76, 88
4, 20638, Note_off_c, 0, 76, 0
4, 20640, Note_on_c, 0, 79, 88
4, 20698, Note_off_c, 0, 79, 0
4, 20700, Note_on_c, 0, 82, 88
4, 20758, Note_off_c, 0, 82, 0
4, 20760, Note_on_c, 0, 81, 88
4, 20818, Note_off_c, 0, 81, 0
4, 20820, Note_on_c, 0, 79, 88
4, 20878, Note_off_c, 0, 79, 0
4, 20880, Note_on_c, 0, 84, 88
4, 20938, Note_off_c, 0, 84, 0
4, 20940, Note_on_c, 0, 81, 88
4, 20998, Note_off_c, 0, 81, 0
4, 21000, Note_on_c, 0, 77, 88
4, 21058, Note_off_c, 0, 77, 0
4, 21060, Note_on_c, 0, 76, 88
4, 21118, Note_off_c, 0, 76, 0
4, 21120, Note_on_c, 0, 77, 88
4, 21178, Note_off_c, 0, 77, 0
4, 21180, Note_on_c, 0, 81, 88
4, 21238, Note_off_c, 0, 81, 0
4, 21240, Note_on_c, 0, 74, 88
4, 21298, Note_off_c, 0, 74, 0
4, 21300, Note_on_c, 0, 77, 88
4, 21358, Note_off_c, 0, 77, 0
4, 21360, Note_on_c, 0, 81, 88
4, 21418, Note_off_c, 0, 81, 0
4, 21420, Note_on_c, 0, 84, 88
4, 21478, Note_off_c, 0, 84, 0
4, 21480, Note_on_c, 0, 82, 88
4, 21538, Note_off_c, 0, 82, 0
4, 21540, Note_on_c, 0, 81, 88
4, 21598, Note_off_c, 0, 81, 0
4, 21600, Note_on_c, 0, 82, 88
4, 21658, Note_off_c, 0, 82, 0
4, 21660, Note_on_c, 0, 79, 88
4, 21718, Note_off_c, 0, 79, 0
4, 21720, Note_on_c, 0, 76, 88
4, 21778, Note_off_c, 0, 76, 0
4, 21780, Note_on_c, 0, 74, 88
4, 21838, Note_off_c, 0, 74, 0
4, 21840, Note_on_c, 0, 76, 88
4, 21898, Note_off_c, 0, 76, 0
4, 21900, Note_on_c, 0, 79, 88
4, 21958, Note_off_c, 0, 79, 0
4, 21960, Note_on_c, 0, 72, 88
4, 22018, Note_off_c, 0, 72, 0
4, 22020, Note_on_c, 0, 76, 88
4, 22078, Note_off_c, 0, 76, 0
4, 22080, Note_on_c, 0, 79, 88
4, 22138, Note_off_c, 0, 79, 0
4, 22140, Note_on_c, 0, 82, 88
4, 22198, Note_off_c, 0, 82, 0
4, 22200, Note_on_c, 0, 81, 88
4, 22258, Note_off_c, 0, 81, 0
4, 22260, Note_on_c, 0, 79, 88
4, 22318, Note_off_c, 0, 79, 0
4, 22320, Note_on_c, 0, 81, 88
4, 22378, Note_off_c, 0, 81, 0
4, 22380, Note_on_c, 0, 77, 88
4, 22438, Note_off_c, 0, 77, 0
4, 22440, Note_on_c, 0, 72, 88
4, 22498, Note_off_c, 0, 72, 0
4, 22500, Note_on_c, 0, 70, 88
4, 22558, Note_off_c, 0, 70, 0
4, 22560, Note_on_c, 0, 72, 88
4, 22618, Note_off_c, 0, 72, 0
4, 22620, Note_on_c, 0, 77, 88
4, 22678, Note_off_c, 0, 77, 0
4, 22680, Note_on_c, 0, 69, 88
4, 22738, Note_off_c, 0, 69, 0
4, 22740, Note_on_c, 0, 72, 88
4, 22798, Note_off_c, 0, 72, 0
4, 22800, Note_on_c, 0, 75, 88
4, 22858, Note_off_c, 0, 75, 0
4, 22860, Note_on_c, 0, 79, 88
4, 22918, Note_off_c, 0, 79, 0
4, 22920, Note_on_c, 0, 77, 88
4, 22978, Note_off_c, 0, 77, 0
4, 22980, Note_on_c, 0, 75, 88
4, 23038, Note_off_c, 0, 75, 0
4, 23040, Note_on_c, 0, 75, 88
4, 23069, Note_off_c, 0, 75, 0
4, 23070, Note_on_c, 0, 74, 88
4, 23099, Note_off_c, 0, 74, 0
4, 23100, Note_on_c, 0, 75, 88
4, 23129, Note_off_c, 0, 75, 0
4, 23130, Note_on_c, 0, 74, 88
4, 23159, Note_off_c, 0, 74, 0
4, 23160, Note_on_c, 0, 75, 88
4, 23189, Note_off_c, 0, 75, 0
4, 23190, Note_on_c, 0, 74, 88
4, 23219, Note_off_c, 0, 74, 0
4, 23220, Note_on_c, 0, 75, 88
4, 23249, Note_off_c, 0, 75, 0
4, 23250, Note_on_c, 0, 74, 88
4, 23279, Note_off_c, 0, 74, 0
4, 23280, Note_on_c, 0, 75, 88
4, 23309, Note_off_c, 0, 75, 0
4, 23310, Note_on_c, 0, 74, 88
4, 23332, Note_off_c, 0, 74, 0
4, 23333, Note_on_c, 0, 75, 88
4, 23354, Note_off_c, 0, 75, 0
4, 23355, Note_on_c, 0, 74, 88
4, 23377, Note_off_c, 0, 74, 0
4, 23378, Note_on_c, 0, 75, 88
4, 23399, Note_off_c, 0, 75, 0
4, 23400, Note_on_c, 0, 74, 88
4, 23458, Note_off_c, 0, 74, 0
4, 23460, Note_on_c, 0, 72, 88
4, 23518, Note_off_c, 0, 72, 0
4, 23520, Note_on_c, 0, 70, 88
4, 23578, Note_off_c, 0, 70, 0
4, 23580, Note_on_c, 0, 69, 88
4, 23638, Note_off_c, 0, 69, 0
4, 23640, Note_on_c, 0, 67, 88
4, 23698, Note_off_c, 0, 67, 0
4, 23700, Note_on_c, 0, 65, 88
4, 23758, Note_off_c, 0, 65, 0
4, 23760, Note_on_c, 0, 70, 88
4, 23876, Note_off_c, 0, 70, 0
4, 23880, Note_on_c, 0, 79, 88
4, 23996, Note_off_c, 0, 79, 0
4, 24000, Note_on_c, 0, 76, 88
4, 24116, Note_off_c, 0, 76, 0
4, 24120, Note_on_c, 0, 72, 88
4, 24236, Note_off_c, 0, 72, 0
4, 24240, Note_on_c, 0, 70, 88
4, 24356, Note_off_c, 0, 70, 0
4, 24360, Note_on_c, 0, 79, 88
4, 24476, Note_off_c, 0, 79, 0
4, 24480, Note_on_c, 0, 69, 88
4, 24538, Note_off_c, 0, 69, 0
4, 24540, Note_on_c, 0, 67, 88
4, 24598, Note_off_c, 0, 67, 0
4, 24600, Note_on_c, 0, 65, 88
4, 24658, Note_off_c, 0, 65, 0
4, 24660, Note_on_c, 0, 64, 88
4, 24718, Note_off_c, 0, 64, 0
4, 24720, Note_on_c, 0, 65, 88
4, 24778, Note_off_c, 0, 65, 0
4, 24780, Note_on_c, 0, 69, 88
4, 24838, Note_off_c, 0, 69, 0
4, 24840, Note_on_c, 0, 62, 88
4, 24898, Note_off_c, 0, 62, 0
4, 24900, Note_on_c, 0, 65, 88
4, 24958, Note_off_c, 0, 65, 0
4, 24960, Note_on_c, 0, 62, 88
4, 25018, Note_off_c, 0, 62, 0
4, 25020, Note_on_c, 0, 58, 88
4, 25078, Note_off_c, 0, 58, 0
4, 25080, Note_on_c, 0, 55, 88
4, 25138, Note_off_c, 0, 55, 0
4, 25140, Note_on_c, 0, 64, 88
4, 25198, Note_off_c, 0, 64, 0
4, 25200, Note_on_c, 0, 65, 88
4, 25258, Note_off_c, 0, 65, 0
4, 25260, Note_on_c, 0, 58, 88
4, 25318, Note_off_c, 0, 58, 0
4, 25320, Note_on_c, 0, 57, 88
4, 25378, Note_off_c, 0, 57, 0
4, 25380, Note_on_c, 0, 55, 88
4, 25438, Note_off_c, 0, 55, 0
4, 25440, Note_on_c, 0, 57, 88
4, 25498, Note_off_c, 0, 57, 0
4, 25500, Note_on_c, 0, 60, 88
4, 25558, Note_off_c, 0, 60, 0
4, 25560, Note_on_c, 0, 53, 88
4, 25794, Note_off_c, 0, 53, 0
4, 25794, End_track
5, 0, Start_track
5, 0, Title_t, "Track 2"
5, 0, Program_c, 1, 6
5, 17280, Note_on_c, 1, 64, 88
5, 17988, Note_off_c, 1, 64, 0
5, 18000, Note_on_c, 1, 65, 88
5, 18044, Note_off_c, 1, 65, 0
5, 18045, Note_on_c, 1, 63, 88
5, 18074, Note_off_c, 1, 63, 0
5, 18075, Note_on_c, 1, 65, 88
5, 18104, Note_off_c, 1, 65, 0
5, 18105, Note_on_c, 1, 63, 88
5, 18134, Note_off_c, 1, 63, 0
5, 18135, Note_on_c, 1, 65, 88
5, 18164, Note_off_c, 1, 65, 0
5, 18165, Note_on_c, 1, 63, 88
5, 18194, Note_off_c, 1, 63, 0
5, 18195, Note_on_c, 1, 65, 88
5, 18224, Note_off_c, 1, 65, 0
5, 18225, Note_on_c, 1, 63, 88
5, 18247, Note_off_c, 1, 63, 0
5, 18248, Note_on_c, 1, 65, 88
5, 18269, Note_off_c, 1, 65, 0
5, 18270, Note_on_c, 1, 63, 88
5, 18292, Note_off_c, 1, 63, 0
5, 18293, Note_on_c, 1, 65, 88
5, 18314, Note_off_c, 1, 65, 0
5, 18315, Note_on_c, 1, 63, 88
5, 18337, Note_off_c, 1, 63, 0
5, 18338, Note_on_c, 1, 65, 88
5, 18359, Note_off_c, 1, 65, 0
5, 18360, Note_on_c, 1, 63, 88
5, 18382, Note_off_c, 1, 63, 0
5, 18383, Note_on_c, 1, 65, 88
5, 18404, Note_off_c, 1, 65, 0
5, 18405, Note_on_c, 1, 63, 88
5, 18427, Note_off_c, 1, 63, 0
5, 18428, Note_on_c, 1, 65, 88
5, 18449, Note_off_c, 1, 65, 0
5, 18450, Note_on_c, 1, 63, 88
5, 18472, Note_off_c, 1, 63, 0
5, 18473, Note_on_c, 1, 65, 88
5, 18494, Note_off_c, 1, 65, 0
5, 18495, Note_on_c, 1, 63, 88
5, 18517, Note_off_c, 1, 63, 0
5, 18518, Note_on_c, 1, 65, 88
5, 18539, Note_off_c, 1, 65, 0
5, 18540, Note_on_c, 1, 63, 88
5, 18562, Note_off_c, 1, 63, 0
5, 18563, Note_on_c, 1, 65, 88
5, 18584, Note_off_c, 1, 65, 0
5, 18585, Note_on_c, 1, 63, 88
5, 18607, Note_off_c, 1, 63, 0
5, 18608, Note_on_c, 1, 65, 88
5, 18629, Note_off_c, 1, 65, 0
5, 18630, Note_on_c, 1, 63, 88
5, 18652, Note_off_c, 1, 63, 0
5, 18653, Note_on_c, 1, 65, 88
5, 18674, Note_off_c, 1, 65, 0
5, 18675, Note_on_c, 1, 63, 88
5, 18719, Note_off_c, 1, 63, 0
5, 18720, Note_on_c, 1, 62, 88
5, 18836, Note_off_c, 1, 62, 0
5, 18836, End_track
6, 0, Start_track
6, 0, Title_t, "Track 3"
6, 0, Program_c, 2, 6
6, 0, Note_on_c, 2, 53, 88
6, 116, Note_off_c, 2, 53, 0
6, 120, Note_on_c, 2, 57, 88
6, 236, Note_off_c, 2, 57, 0
6, 240, Note_on_c, 2, 60, 88
6, 356, Note_off_c, 2, 60, 0
6, 360, Note_on_c, 2, 57, 88
6, 476, Note_off_c, 2, 57, 0
6, 480, Note_on_c, 2, 53, 88
6, 596, Note_off_c, 2, 53, 0
6, 600, Note_on_c, 2, 57, 88
6, 716, Note_off_c, 2, 57, 0
6, 720, Note_on_c, 2, 58, 88
6, 836, Note_off_c, 2, 58, 0
6, 840, Note_on_c, 2, 62, 88
6, 956, Note_off_c, 2, 62, 0
6, 960, Note_on_c, 2, 58, 88
6, 1076, Note_off_c, 2, 58, 0
6, 1080, Note_on_c, 2, 41, 88
6, 1314, Note_off_c, 2, 41, 0
6, 1440, Note_on_c, 2, 53, 88
6, 1556, Note_off_c, 2, 53, 0
6, 1560, Note_on_c, 2, 55, 88
6, 1676, Note_off_c, 2, 55, 0
6, 1680, Note_on_c, 2, 58, 88
6, 1796, Note_off_c, 2, 58, 0
6, 1800, Note_on_c, 2, 55, 88
6, 1916, Note_off_c, 2, 55, 0
6, 1920, Note_on_c, 2, 52, 88
6, 2036, Note_off_c, 2, 52, 0
6, 2040, Note_on_c, 2, 48, 88
6, 2156, Note_off_c, 2, 48, 0
6, 2160, Note_on_c, 2, 53, 88
6, 2276, Note_off_c, 2, 53, 0
6, 2280, Note_on_c, 2, 57, 88
6, 2396, Note_off_c, 2, 57, 0
6, 2400, Note_on_c, 2, 53, 88
6, 2516, Note_off_c, 2, 53, 0
6, 2520, Note_on_c, 2, 41, 88
6, 2754, Note_off_c, 2, 41, 0
6, 2880, Note_on_c, 2, 53, 88
6, 2938, Note_off_c, 2, 53, 0
6, 2940, Note_on_c, 2, 50, 88
6, 2998, Note_off_c, 2, 50, 0
6, 3000, Note_on_c, 2, 47, 88
6, 3058, Note_off_c, 2, 47, 0
6, 3060, Note_on_c, 2, 45, 88
6, 3118, Note_off_c, 2, 45, 0
6, 3120, Note_on_c, 2, 47, 88
6, 3178, Note_off_c, 2, 47, 0
6, 3180, Note_on_c, 2, 50, 88
6, 3238, Note_off_c, 2, 50, 0
6, 3240, Note_on_c, 2, 43, 88
6, 3298, Note_off_c, 2, 43, 0
6, 3300, Note_on_c, 2, 47, 88
6, 3358, Note_off_c, 2, 47, 0
6, 3360, Note_on_c, 2, 50, 88
6, 3418, Note_off_c, 2, 50, 0
6, 3420, Note_on_c, 2, 53, 88
6, 3478, Note_off_c, 2, 53, 0
6, 3480, Note_on_c, 2, 52, 88
6, 3538, Note_off_c, 2, 52, 0
6, 3540, Note_on_c, 2, 50, 88
6, 3598, Note_off_c, 2, 50, 0
6, 3600, Note_on_c, 2, 52, 88
6, 3669, Note_off_c, 2, 52, 0
6, 3671, Note_on_c, 2, 53, 88
6, 3697, Note_off_c, 2, 53, 0
6, 3698, Note_on_c, 2, 52, 88
6, 3723, Note_off_c, 2, 52, 0
6, 3724, Note_on_c, 2, 53, 88
6, 3749, Note_off_c, 2, 53, 0
6, 3750, Note_on_c, 2, 52, 88
6, 3775, Note_off_c, 2, 52, 0
6, 3776, Note_on_c, 2, 53, 88
6, 3802, Note_off_c, 2, 53, 0
6, 3803, Note_on_c, 2, 52, 88
6, 3828, Note_off_c, 2, 52, 0
6, 3829, Note_on_c, 2, 53, 88
6, 3854, Note_off_c, 2, 53, 0
6, 3855, Note_on_c, 2, 52, 88
6, 3880, Note_off_c, 2, 52, 0
6, 3881, Note_on_c, 2, 53, 88
6, 3907, Note_off_c, 2, 53, 0
6, 3908, Note_on_c, 2, 52, 88
6, 3933, Note_off_c, 2, 52, 0
6, 3934, Note_on_c, 2, 53, 88
6, 3959, Note_off_c, 2, 53, 0
6, 3960, Note_on_c, 2, 52, 88
6, 3985, Note_off_c, 2, 52, 0
6, 3986, Note_on_c, 2, 53, 88
6, 4012, Note_off_c, 2, 53, 0
6, 4013, Note_on_c, 2, 52, 88
6, 4038, Note_off_c, 2, 52, 0
6, 4039, Note_on_c, 2, 53, 88
6, 4064, Note_off_c, 2, 53, 0
6, 4065, Note_on_c, 2, 52, 88
6, 4090, Note_off_c, 2, 52, 0
6, 4091, Note_on_c, 2, 53, 88
6, 4113, Note_off_c, 2, 53, 0
6, 4114, Note_on_c, 2, 52, 88
6, 4136, Note_off_c, 2, 52, 0
6, 4136, Note_on_c, 2, 53, 88
6, 4158, Note_off_c, 2, 53, 0
6, 4159, Note_on_c, 2, 52, 88
6, 4181, Note_off_c, 2, 52, 0
6, 4181, Note_on_c, 2, 53, 88
6, 4203, Note_off_c, 2, 53, 0
6, 4204, Note_on_c, 2, 52, 88
6, 4226, Note_off_c, 2, 52, 0
6, 4226, Note_on_c, 2, 53, 88
6, 4248, Note_off_c, 2, 53, 0
6, 4249, Note_on_c, 2, 52, 88
6, 4318, Note_off_c, 2, 52, 0
6, 4320, Note_on_c, 2, 55, 88
6, 4378, Note_off_c, 2, 55, 0
6, 4380, Note_on_c, 2, 52, 88
6, 4438, Note_off_c, 2, 52, 0
6, 4440, Note_on_c, 2, 49, 88
6, 4498, Note_off_c, 2, 49, 0
6, 4500, Note_on_c, 2, 47, 88
6, 4558, Note_off_c, 2, 47, 0
6, 4560, Note_on_c, 2, 49, 88
6, 4618, Note_off_c, 2, 49, 0
6, 4620, Note_on_c, 2, 52, 88
6, 4678, Note_off_c, 2, 52, 0
6, 4680, Note_on_c, 2, 45, 88
6, 4738, Note_off_c, 2, 45, 0
6, 4740, Note_on_c, 2, 49, 88
6, 4798, Note_off_c, 2, 49, 0
6, 4800, Note_on_c, 2, 52, 88
6, 4858, Note_off_c, 2, 52, 0
6, 4860, Note_on_c, 2, 55, 88
6, 4918, Note_off_c, 2, 55, 0
6, 4920, Note_on_c, 2, 53, 88
6, 4978, Note_off_c, 2, 53, 0
6, 4980, Note_on_c, 2, 52, 88
6, 5038, Note_off_c, 2, 52, 0
6, 5040, Note_on_c, 2, 55, 88
6, 5109, Note_off_c, 2, 55, 0
6, 5111, Note_on_c, 2, 53, 88
6, 5137, Note_off_c, 2, 53, 0
6, 5138, Note_on_c, 2, 55, 88
6, 5163, Note_off_c, 2, 55, 0
6, 5164, Note_on_c, 2, 53, 88
6, 5189, Note_off_c, 2, 53, 0
6, 5190, Note_on_c, 2, 55, 88
6, 5215, Note_off_c, 2, 55, 0
6, 5216, Note_on_c, 2, 53, 88
6, 5242, Note_off_c, 2, 53, 0
6, 5243, Note_on_c, 2, 55, 88
6, 5268, Note_off_c, 2, 55, 0
6, 5269, Note_on_c, 2, 53, 88
6, 5294, Note_off_c, 2, 53, 0
6, 5295, Note_on_c, 2, 55, 88
6, 5320, Note_off_c, 2, 55, 0
6, 5321, Note_on_c, 2, 53, 88
6, 5347, Note_off_c, 2, 53, 0
6, 5348, Note_on_c, 2, 55, 88
6, 5373, Note_off_c, 2, 55, 0
6, 5374, Note_on_c, 2, 53, 88
6, 5396, Note_off_c, 2, 53, 0
6, 5396, Note_on_c, 2, 55, 88
6, 5418, Note_off_c, 2, 55, 0
6, 5419, Note_on_c, 2, 53, 88
6, 5441, Note_off_c, 2, 53, 0
6, 5441, Note_on_c, 2, 55, 88
6, 5463, Note_off_c, 2, 55, 0
6, 5464, Note_on_c, 2, 53, 88
6, 5486, Note_off_c, 2, 53, 0
6, 5486, Note_on_c, 2, 55, 88
6, 5508, Note_off_c, 2, 55, 0
6, 5509, Note_on_c, 2, 53, 88
6, 5531, Note_off_c, 2, 53, 0
6, 5531, Note_on_c, 2, 55, 88
6, 5553, Note_off_c, 2, 55, 0
6, 5554, Note_on_c, 2, 53, 88
6, 5576, Note_off_c, 2, 53, 0
6, 5576, Note_on_c, 2, 55, 88
6, 5598, Note_off_c, 2, 55, 0
6, 5599, Note_on_c, 2, 53, 88
6, 5621, Note_off_c, 2, 53, 0
6, 5621, Note_on_c, 2, 55, 88
6, 5643, Note_off_c, 2, 55, 0
6, 5644, Note_on_c, 2, 53, 88
6, 5666, Note_off_c, 2, 53, 0
6, 5666, Note_on_c, 2, 55, 88
6, 5688, Note_off_c, 2, 55, 0
6, 5689, Note_on_c, 2, 53, 88
6, 5758, Note_off_c, 2, 53, 0
6, 5760, Note_on_c, 2, 55, 88
6, 5876, Note_off_c, 2, 55, 0
6, 5880, Note_on_c, 2, 58, 88
6, 5996, Note_off_c, 2, 58, 0
6, 6000, Note_on_c, 2, 55, 88
6, 6116, Note_off_c, 2, 55, 0
6, 6120, Note_on_c, 2, 52, 88
6, 6236, Note_off_c, 2, 52, 0
6, 6240, Note_on_c, 2, 48, 88
6, 6356, Note_off_c, 2, 48, 0
6, 6360, Note_on_c, 2, 52, 88
6, 6476, Note_off_c, 2, 52, 0
6, 6480, Note_on_c, 2, 53, 88
6, 6596, Note_off_c, 2, 53, 0
6, 6600, Note_on_c, 2, 57, 88
6, 6716, Note_off_c, 2, 57, 0
6, 6720, Note_on_c, 2, 53, 88
6, 6836, Note_off_c, 2, 53, 0
6, 6840, Note_on_c, 2, 50, 88
6, 6956, Note_off_c, 2, 50, 0
6, 6960, Note_on_c, 2, 46, 88
6, 7076, Note_off_c, 2, 46, 0
6, 7080, Note_on_c, 2, 50, 88
6, 7196, Note_off_c, 2, 50, 0
6, 7200, Note_on_c, 2, 52, 88
6, 7316, Note_off_c, 2, 52, 0
6, 7320, Note_on_c, 2, 55, 88
6, 7436, Note_off_c, 2, 55, 0
6, 7440, Note_on_c, 2, 52, 88
6, 7556, Note_off_c, 2, 52, 0
6, 7560, Note_on_c, 2, 49, 88
6, 7676, Note_off_c, 2, 49, 0
6, 7680, Note_on_c, 2, 45, 88
6, 7796, Note_off_c, 2, 45, 0
6, 7800, Note_on_c, 2, 49, 88
6, 7916, Note_off_c, 2, 49, 0
6, 7920, Note_on_c, 2, 50, 88
6, 7978, Note_off_c, 2, 50, 0
6, 7980, Note_on_c, 2, 45, 88
6, 8038, Note_off_c, 2, 45, 0
6, 8040, Note_on_c, 2, 41, 88
6, 8098, Note_off_c, 2, 41, 0
6, 8100, Note_on_c, 2, 40, 88
6, 8158, Note_off_c, 2, 40, 0
6, 8160, Note_on_c, 2, 41, 88
6, 8218, Note_off_c, 2, 41, 0
6, 8220, Note_on_c, 2, 45, 88
6, 8278, Note_off_c, 2, 45, 0
6, 8280, Note_on_c, 2, 38, 88
6, 8338, Note_off_c, 2, 38, 0
6, 8340, Note_on_c, 2, 41, 88
6, 8398, Note_off_c, 2, 41, 0
6, 8400, Note_on_c, 2, 45, 88
6, 8458, Note_off_c, 2, 45, 0
6, 8460, Note_on_c, 2, 48, 88
6, 8518, Note_off_c, 2, 48, 0
6, 8520, Note_on_c, 2, 46, 88
6, 8578, Note_off_c, 2, 46, 0
6, 8580, Note_on_c, 2, 45, 88
6, 8638, Note_off_c, 2, 45, 0
6, 8640, Note_on_c, 2, 50, 88
6, 8698, Note_off_c, 2, 50, 0
6, 8700, Note_on_c, 2, 46, 88
6, 8758, Note_off_c, 2, 46, 0
6, 8760, Note_on_c, 2, 43, 88
6, 8818, Note_off_c, 2, 43, 0
6, 8820, Note_on_c, 2, 42, 88
6, 8878, Note_off_c, 2, 42, 0
6, 8880, Note_on_c, 2, 43, 88
6, 8938, Note_off_c, 2, 43, 0
6, 8940, Note_on_c, 2, 46, 88
6, 8998, Note_off_c, 2, 46, 0
6, 9000, Note_on_c, 2, 38, 88
6, 9058, Note_off_c, 2, 38, 0
6, 9060, Note_on_c, 2, 43, 88
6, 9118, Note_off_c, 2, 43, 0
6, 9120, Note_on_c, 2, 46, 88
6, 9178, Note_off_c, 2, 46, 0
6, 9180, Note_on_c, 2, 50, 88
6, 9238, Note_off_c, 2, 50, 0
6, 9240, Note_on_c, 2, 49, 88
6, 9298, Note_off_c, 2, 49, 0
6, 9300, Note_on_c, 2, 47, 88
6, 9358, Note_off_c, 2, 47, 0
6, 9360, Note_on_c, 2, 49, 88
6, 9418, Note_off_c, 2, 49, 0
6, 9420, Note_on_c, 2, 46, 88
6, 9478, Note_off_c, 2, 46, 0
6, 9480, Note_on_c, 2, 43, 88
6, 9538, Note_off_c, 2, 43, 0
6, 9540, Note_on_c, 2, 42, 88
6, 9598, Note_off_c, 2, 42, 0
6, 9600, Note_on_c, 2, 43, 88
6, 9658, Note_off_c, 2, 43, 0
6, 9660, Note_on_c, 2, 46, 88
6, 9718, Note_off_c, 2, 46, 0
6, 9720, Note_on_c, 2, 38, 88
6, 9778, Note_off_c, 2, 38, 0
6, 9780, Note_on_c, 2, 43, 88
6, 9838, Note_off_c, 2, 43, 0
6, 9840, Note_on_c, 2, 49, 88
6, 9898, Note_off_c, 2, 49, 0
6, 9900, Note_on_c, 2, 52, 88
6, 9958, Note_off_c, 2, 52, 0
6, 9960, Note_on_c, 2, 50, 88
6, 10018, Note_off_c, 2, 50, 0
6, 10020, Note_on_c, 2, 49, 88
6, 10078, Note_off_c, 2, 49, 0
6, 10080, Note_on_c, 2, 50, 88
6, 10196, Note_off_c, 2, 50, 0
6, 10200, Note_on_c, 2, 53, 88
6, 10316, Note_off_c, 2, 53, 0
6, 10320, Note_on_c, 2, 57, 88
6, 10436, Note_off_c, 2, 57, 0
6, 10440, Note_on_c, 2, 53, 88
6, 10556, Note_off_c, 2, 53, 0
6, 10560, Note_on_c, 2, 50, 88
6, 10676, Note_off_c, 2, 50, 0
6, 10680, Note_on_c, 2, 53, 88
6, 10796, Note_off_c, 2, 53, 0
6, 10800, Note_on_c, 2, 38, 88
6, 10916, Note_off_c, 2, 38, 0
6, 10920, Note_on_c, 2, 41, 88
6, 11036, Note_off_c, 2, 41, 0
6, 11040, Note_on_c, 2, 46, 88
6, 11156, Note_off_c, 2, 46, 0
6, 11160, Note_on_c, 2, 50, 88
6, 11394, Note_off_c, 2, 50, 0
6, 11520, Note_on_c, 2, 62, 88
6, 11578, Note_off_c, 2, 62, 0
6, 11580, Note_on_c, 2, 59, 88
6, 11638, Note_off_c, 2, 59, 0
6, 11640, Note_on_c, 2, 56, 88
6, 11698, Note_off_c, 2, 56, 0
6, 11700, Note_on_c, 2, 54, 88
6, 11758, Note_off_c, 2, 54, 0
6, 11760, Note_on_c, 2, 56, 88
6, 11818, Note_off_c, 2, 56, 0
6, 11820, Note_on_c, 2, 59, 88
6, 11878, Note_off_c, 2, 59, 0
6, 11880, Note_on_c, 2, 52, 88
6, 11938, Note_off_c, 2, 52, 0
6, 11940, Note_on_c, 2, 56, 88
6, 11998, Note_off_c, 2, 56, 0
6, 12000, Note_on_c, 2, 59, 88
6, 12058, Note_off_c, 2, 59, 0
6, 12060, Note_on_c, 2, 62, 88
6, 12118, Note_off_c, 2, 62, 0
6, 12120, Note_on_c, 2, 61, 88
6, 12178, Note_off_c, 2, 61, 0
6, 12180, Note_on_c, 2, 59, 88
6, 12238, Note_off_c, 2, 59, 0
6, 12240, Note_on_c, 2, 61, 88
6, 12309, Note_off_c, 2, 61, 0
6, 12311, Note_on_c, 2, 62, 88
6, 12337, Note_off_c, 2, 62, 0
6, 12338, Note_on_c, 2, 61, 88
6, 12363, Note_off_c, 2, 61, 0
6, 12364, Note_on_c, 2, 62, 88
6, 12389, Note_off_c, 2, 62, 0
6, 12390, Note_on_c, 2, 61, 88
6, 12415, Note_off_c, 2, 61, 0
6, 12416, Note_on_c, 2, 62, 88
6, 12442, Note_off_c, 2, 62, 0
6, 12443, Note_on_c, 2, 61, 88
6, 12468, Note_off_c, 2, 61, 0
6, 12469, Note_on_c, 2, 62, 88
6, 12494, Note_off_c, 2, 62, 0
6, 12495, Note_on_c, 2, 61, 88
6, 12520, Note_off_c, 2, 61, 0
6, 12521, Note_on_c, 2, 62, 88
6, 12547, Note_off_c, 2, 62, 0
6, 12548, Note_on_c, 2, 61, 88
6, 12573, Note_off_c, 2, 61, 0
6, 12574, Note_on_c, 2, 62, 88
6, 12599, Note_off_c, 2, 62, 0
6, 12600, Note_on_c, 2, 61, 88
6, 12625, Note_off_c, 2, 61, 0
6, 12626, Note_on_c, 2, 62, 88
6, 12652, Note_off_c, 2, 62, 0
6, 12653, Note_on_c, 2, 61, 88
6, 12678, Note_off_c, 2, 61, 0
6, 12679, Note_on_c, 2, 62, 88
6, 12704, Note_off_c, 2, 62, 0
6, 12705, Note_on_c, 2, 61, 88
6, 12730, Note_off_c, 2, 61, 0
6, 12731, Note_on_c, 2, 62, 88
6, 12753, Note_off_c, 2, 62, 0
6, 12754, Note_on_c, 2, 61, 88
6, 12776, Note_off_c, 2, 61, 0
6, 12776, Note_on_c, 2, 62, 88
6, 12798, Note_off_c, 2, 62, 0
6, 12799, Note_on_c, 2, 61, 88
6, 12821, Note_off_c, 2, 61, 0
6, 12821, Note_on_c, 2, 62, 88
6, 12843, Note_off_c, 2, 62, 0
6, 12844, Note_on_c, 2, 61, 88
6, 12866, Note_off_c, 2, 61, 0
6, 12866, Note_on_c, 2, 62, 88
6, 12888, Note_off_c, 2, 62, 0
6, 12889, Note_on_c, 2, 61, 88
6, 12958, Note_off_c, 2, 61, 0
6, 12960, Note_on_c, 2, 60, 88
6, 13018, Note_off_c, 2, 60, 0
6, 13020, Note_on_c, 2, 57, 88
6, 13078, Note_off_c, 2, 57, 0
6, 13080, Note_on_c, 2, 54, 88
6, 13138, Note_off_c, 2, 54, 0
6, 13140, Note_on_c, 2, 52, 88
6, 13198, Note_off_c, 2, 52, 0
6, 13200, Note_on_c, 2, 54, 88
6, 13258, Note_off_c, 2, 54, 0
6, 13260, Note_on_c, 2, 57, 88
6, 13318, Note_off_c, 2, 57, 0
6, 13320, Note_on_c, 2, 50, 88
6, 13378, Note_off_c, 2, 50, 0
6, 13380, Note_on_c, 2, 54, 88
6, 13438, Note_off_c, 2, 54, 0
6, 13440, Note_on_c, 2, 57, 88
6, 13498, Note_off_c, 2, 57, 0
6, 13500, Note_on_c, 2, 60, 88
6, 13558, Note_off_c, 2, 60, 0
6, 13560, Note_on_c, 2, 59, 88
6, 13618, Note_off_c, 2, 59, 0
6, 13620, Note_on_c, 2, 57, 88
6, 13678, Note_off_c, 2, 57, 0
6, 13680, Note_on_c, 2, 59, 88
6, 13749, Note_off_c, 2, 59, 0
6, 13751, Note_on_c, 2, 60, 88
6, 13777, Note_off_c, 2, 60, 0
6, 13778, Note_on_c, 2, 59, 88
6, 13803, Note_off_c, 2, 59, 0
6, 13804, Note_on_c, 2, 60, 88
6, 13829, Note_off_c, 2, 60, 0
6, 13830, Note_on_c, 2, 59, 88
6, 13855, Note_off_c, 2, 59, 0
6, 13856, Note_on_c, 2, 60, 88
6, 13882, Note_off_c, 2, 60, 0
6, 13883, Note_on_c, 2, 59, 88
6, 13908, Note_off_c, 2, 59, 0
6, 13909, Note_on_c, 2, 60, 88
6, 13934, Note_off_c, 2, 60, 0
6, 13935, Note_on_c, 2, 59, 88
6, 13960, Note_off_c, 2, 59, 0
6, 13961, Note_on_c, 2, 60, 88
6, 13987, Note_off_c, 2, 60, 0
6, 13988, Note_on_c, 2, 59, 88
6, 14013, Note_off_c, 2, 59, 0
6, 14014, Note_on_c, 2, 60, 88
6, 14039, Note_off_c, 2, 60, 0
6, 14040, Note_on_c, 2, 59, 88
6, 14065, Note_off_c, 2, 59, 0
6, 14066, Note_on_c, 2, 60, 88
6, 14092, Note_off_c, 2, 60, 0
6, 14093, Note_on_c, 2, 59, 88
6, 14118, Note_off_c, 2, 59, 0
6, 14119, Note_on_c, 2, 60, 88
6, 14144, Note_off_c, 2, 60, 0
6, 14145, Note_on_c, 2, 59, 88
6, 14170, Note_off_c, 2, 59, 0
6, 14171, Note_on_c, 2, 60, 88
6, 14193, Note_off_c, 2, 60, 0
6, 14194, Note_on_c, 2, 59, 88
6, 14216, Note_off_c, 2, 59, 0
6, 14216, Note_on_c, 2, 60, 88
6, 14238, Note_off_c, 2, 60, 0
6, 14239, Note_on_c, 2, 59, 88
6, 14261, Note_off_c, 2, 59, 0
6, 14261, Note_on_c, 2, 60, 88
6, 14283, Note_off_c, 2, 60, 0
6, 14284, Note_on_c, 2, 59, 88
6, 14306, Note_off_c, 2, 59, 0
6, 14306, Note_on_c, 2, 60, 88
6, 14328, Note_off_c, 2, 60, 0
6, 14329, Note_on_c, 2, 59, 88
6, 14398, Note_off_c, 2, 59, 0
6, 14400, Note_on_c, 2, 60, 88
6, 14516, Note_off_c, 2, 60, 0
6, 14520, Note_on_c, 2, 63, 88
6, 14636, Note_off_c, 2, 63, 0
6, 14640, Note_on_c, 2, 60, 88
6, 14756, Note_off_c, 2, 60, 0
6, 14760, Note_on_c, 2, 57, 88
6, 14876, Note_off_c, 2, 57, 0
6, 14880, Note_on_c, 2, 53, 88
6, 14996, Note_off_c, 2, 53, 0
6, 15000, Note_on_c, 2, 57, 88
6, 15116, Note_off_c, 2, 57, 0
6, 15120, Note_on_c, 2, 58, 88
6, 15236, Note_off_c, 2, 58, 0
6, 15240, Note_on_c, 2, 62, 88
6, 15356, Note_off_c, 2, 62, 0
6, 15360, Note_on_c, 2, 58, 88
6, 15476, Note_off_c, 2, 58, 0
6, 15480, Note_on_c, 2, 55, 88
6, 15596, Note_off_c, 2, 55, 0
6, 15600, Note_on_c, 2, 51, 88
6, 15716, Note_off_c, 2, 51, 0
6, 15720, Note_on_c, 2, 55, 88
6, 15836, Note_off_c, 2, 55, 0
6, 15840, Note_on_c, 2, 57, 88
6, 15956, Note_off_c, 2, 57, 0
6, 15960, Note_on_c, 2, 60, 88
6, 16076, Note_off_c, 2, 60, 0
6, 16080, Note_on_c, 2, 57, 88
6, 16196, Note_off_c, 2, 57, 0
6, 16200, Note_on_c, 2, 54, 88
6, 16316, Note_off_c, 2, 54, 0
6, 16320, Note_on_c, 2, 50, 88
6, 16436, Note_off_c, 2, 50, 0
6, 16440, Note_on_c, 2, 54, 88
6, 16556, Note_off_c, 2, 54, 0
6, 16560, Note_on_c, 2, 55, 88
6, 16618, Note_off_c, 2, 55, 0
6, 16620, Note_on_c, 2, 50, 88
6, 16678, Note_off_c, 2, 50, 0
6, 16680, Note_on_c, 2, 46, 88
6, 16738, Note_off_c, 2, 46, 0
6, 16740, Note_on_c, 2, 45, 88
6, 16798, Note_off_c, 2, 45, 0
6, 16800, Note_on_c, 2, 46, 88
6, 16858, Note_off_c, 2, 46, 0
6, 16860, Note_on_c, 2, 50, 88
6, 16918, Note_off_c, 2, 50, 0
6, 16920, Note_on_c, 2, 43, 88
6, 16978, Note_off_c, 2, 43, 0
6, 16980, Note_on_c, 2, 46, 88
6, 17038, Note_off_c, 2, 46, 0
6, 17040, Note_on_c, 2, 50, 88
6, 17098, Note_off_c, 2, 50, 0
6, 17100, Note_on_c, 2, 53, 88
6, 17158, Note_off_c, 2, 53, 0
6, 17160, Note_on_c, 2, 52, 88
6, 17218, Note_off_c, 2, 52, 0
6, 17220, Note_on_c, 2, 50, 88
6, 17278, Note_off_c, 2, 50, 0
6, 17280, Note_on_c, 2, 48, 88
6, 17338, Note_off_c, 2, 48, 0
6, 17340, Note_on_c, 2, 43, 88
6, 17398, Note_off_c, 2, 43, 0
6, 17400, Note_on_c, 2, 40, 88
6, 17458, Note_off_c, 2, 40, 0
6, 17460, Note_on_c, 2, 38, 88
6, 17518, Note_off_c, 2, 38, 0
6, 17520, Note_on_c, 2, 40, 88
6, 17578, Note_off_c, 2, 40, 0
6, 17580, Note_on_c, 2, 43, 88
6, 17638, Note_off_c, 2, 43, 0
6, 17640, Note_on_c, 2, 36, 88
6, 17698, Note_off_c, 2, 36, 0
6, 17700, Note_on_c, 2, 43, 88
6, 17758, Note_off_c, 2, 43, 0
6, 17760, Note_on_c, 2, 48, 88
6, 17818, Note_off_c, 2, 48, 0
6, 17820, Note_on_c, 2, 52, 88
6, 17878, Note_off_c, 2, 52, 0
6, 17880, Note_on_c, 2, 50, 88
6, 17938, Note_off_c, 2, 50, 0
6, 17940, Note_on_c, 2, 48, 88
6, 17998, Note_off_c, 2, 48, 0
6, 18000, Note_on_c, 2, 53, 88
6, 18058, Note_off_c, 2, 53, 0
6, 18060, Note_on_c, 2, 48, 88
6, 18118, Note_off_c, 2, 48, 0
6, 18120, Note_on_c, 2, 45, 88
6, 18178, Note_off_c, 2, 45, 0
6, 18180, Note_on_c, 2, 43, 88
6, 18238, Note_off_c, 2, 43, 0
6, 18240, Note_on_c, 2, 45, 88
6, 18298, Note_off_c, 2, 45, 0
6, 18300, Note_on_c, 2, 48, 88
6, 18358, Note_off_c, 2, 48, 0
6, 18360, Note_on_c, 2, 41, 88
6, 18418, Note_off_c, 2, 41, 0
6, 18420, Note_on_c, 2, 48, 88
6, 18478, Note_off_c, 2, 48, 0
6, 18480, Note_on_c, 2, 53, 88
6, 18538, Note_off_c, 2, 53, 0
6, 18540, Note_on_c, 2, 57, 88
6, 18598, Note_off_c, 2, 57, 0
6, 18600, Note_on_c, 2, 55, 88
6, 18658, Note_off_c, 2, 55, 0
6, 18660, Note_on_c, 2, 53, 88
6, 18718, Note_off_c, 2, 53, 0
6, 18720, Note_on_c, 2, 60, 88
6, 18803, Note_off_c, 2, 60, 0
6, 18806, Note_on_c, 2, 58, 88
6, 18839, Note_off_c, 2, 58, 0
6, 18840, Note_on_c, 2, 60, 88
6, 18873, Note_off_c, 2, 60, 0
6, 18874, Note_on_c, 2, 58, 88
6, 18903, Note_off_c, 2, 58, 0
6, 18904, Note_on_c, 2, 60, 88
6, 18933, Note_off_c, 2, 60, 0
6, 18934, Note_on_c, 2, 58, 88
6, 18963, Note_off_c, 2, 58, 0
6, 18964, Note_on_c, 2, 60, 88
6, 18993, Note_off_c, 2, 60, 0
6, 18994, Note_on_c, 2, 58, 88
6, 19023, Note_off_c, 2, 58, 0
6, 19024, Note_on_c, 2, 60, 88
6, 19053, Note_off_c, 2, 60, 0
6, 19054, Note_on_c, 2, 58, 88
6, 19083, Note_off_c, 2, 58, 0
6, 19084, Note_on_c, 2, 60, 88
6, 19113, Note_off_c, 2, 60, 0
6, 19114, Note_on_c, 2, 58, 88
6, 19143, Note_off_c, 2, 58, 0
6, 19144, Note_on_c, 2, 60, 88
6, 19173, Note_off_c, 2, 60, 0
6, 19174, Note_on_c, 2, 58, 88
6, 19203, Note_off_c, 2, 58, 0
6, 19204, Note_on_c, 2, 60, 88
6, 19233, Note_off_c, 2, 60, 0
6, 19234, Note_on_c, 2, 58, 88
6, 19263, Note_off_c, 2, 58, 0
6, 19264, Note_on_c, 2, 60, 88
6, 19293, Note_off_c, 2, 60, 0
6, 19294, Note_on_c, 2, 58, 88
6, 19323, Note_off_c, 2, 58, 0
6, 19324, Note_on_c, 2, 60, 88
6, 19353, Note_off_c, 2, 60, 0
6, 19354, Note_on_c, 2, 58, 88
6, 19383, Note_off_c, 2, 58, 0
6, 19384, Note_on_c, 2, 60, 88
6, 19413, Note_off_c, 2, 60, 0
6, 19414, Note_on_c, 2, 58, 88
6, 19443, Note_off_c, 2, 58, 0
6, 19444, Note_on_c, 2, 60, 88
6, 19473, Note_off_c, 2, 60, 0
6, 19474, Note_on_c, 2, 58, 88
6, 19503, Note_off_c, 2, 58, 0
6, 19504, Note_on_c, 2, 60, 88
6, 19533, Note_off_c, 2, 60, 0
6, 19534, Note_on_c, 2, 58, 88
6, 19563, Note_off_c, 2, 58, 0
6, 19564, Note_on_c, 2, 60, 88
6, 19593, Note_off_c, 2, 60, 0
6, 19594, Note_on_c, 2, 58, 88
6, 19623, Note_off_c, 2, 58, 0
6, 19624, Note_on_c, 2, 60, 88
6, 19653, Note_off_c, 2, 60, 0
6, 19654, Note_on_c, 2, 58, 88
6, 19683, Note_off_c, 2, 58, 0
6, 19684, Note_on_c, 2, 60, 88
6, 19713, Note_off_c, 2, 60, 0
6, 19714, Note_on_c, 2, 58, 88
6, 19743, Note_off_c, 2, 58, 0
6, 19744, Note_on_c, 2, 60, 88
6, 19773, Note_off_c, 2, 60, 0
6, 19774, Note_on_c, 2, 58, 88
6, 19803, Note_off_c, 2, 58, 0
6, 19804, Note_on_c, 2, 60, 88
6, 19833, Note_off_c, 2, 60, 0
6, 19834, Note_on_c, 2, 58, 88
6, 19863, Note_off_c, 2, 58, 0
6, 19864, Note_on_c, 2, 60, 88
6, 19893, Note_off_c, 2, 60, 0
6, 19894, Note_on_c, 2, 58, 88
6, 19923, Note_off_c, 2, 58, 0
6, 19924, Note_on_c, 2, 60, 88
6, 19953, Note_off_c, 2, 60, 0
6, 19954, Note_on_c, 2, 58, 88
6, 19983, Note_off_c, 2, 58, 0
6, 19984, Note_on_c, 2, 60, 88
6, 20013, Note_off_c, 2, 60, 0
6, 20014, Note_on_c, 2, 58, 88
6, 20043, Note_off_c, 2, 58, 0
6, 20044, Note_on_c, 2, 60, 88
6, 20073, Note_off_c, 2, 60, 0
6, 20074, Note_on_c, 2, 58, 88
6, 20103, Note_off_c, 2, 58, 0
6, 20104, Note_on_c, 2, 60, 88
6, 20133, Note_off_c, 2, 60, 0
6, 20134, Note_on_c, 2, 58, 88
6, 20159, Note_off_c, 2, 58, 0
6, 20160, Note_on_c, 2, 58, 88
6, 20868, Note_off_c, 2, 58, 0
6, 20880, Note_on_c, 2, 57, 88
6, 20996, Note_off_c, 2, 57, 0
6, 21000, Note_on_c, 2, 60, 88
6, 21116, Note_off_c, 2, 60, 0
6, 21120, Note_on_c, 2, 57, 88
6, 21236, Note_off_c, 2, 57, 0
6, 21240, Note_on_c, 2, 53, 88
6, 21356, Note_off_c, 2, 53, 0
6, 21360, Note_on_c, 2, 50, 88
6, 21476, Note_off_c, 2, 50, 0
6, 21480, Note_on_c, 2, 53, 88
6, 21596, Note_off_c, 2, 53, 0
6, 21600, Note_on_c, 2, 55, 88
6, 21716, Note_off_c, 2, 55, 0
6, 21720, Note_on_c, 2, 58, 88
6, 21836, Note_off_c, 2, 58, 0
6, 21840, Note_on_c, 2, 55, 88
6, 21956, Note_off_c, 2, 55, 0
6, 21960, Note_on_c, 2, 52, 88
6, 22076, Note_off_c, 2, 52, 0
6, 22080, Note_on_c, 2, 48, 88
6, 22196, Note_off_c, 2, 48, 0
6, 22200, Note_on_c, 2, 52, 88
6, 22316, Note_off_c, 2, 52, 0
6, 22320, Note_on_c, 2, 53, 88
6, 22378, Note_off_c, 2, 53, 0
6, 22380, Note_on_c, 2, 48, 88
6, 22438, Note_off_c, 2, 48, 0
6, 22440, Note_on_c, 2, 45, 88
6, 22498, Note_off_c, 2, 45, 0
6, 22500, Note_on_c, 2, 43, 88
6, 22558, Note_off_c, 2, 43, 0
6, 22560, Note_on_c, 2, 45, 88
6, 22618, Note_off_c, 2, 45, 0
6, 22620, Note_on_c, 2, 48, 88
6, 22678, Note_off_c, 2, 48, 0
6, 22680, Note_on_c, 2, 41, 88
6, 22738, Note_off_c, 2, 41, 0
6, 22740, Note_on_c, 2, 45, 88
6, 22798, Note_off_c, 2, 45, 0
6, 22800, Note_on_c, 2, 48, 88
6, 22858, Note_off_c, 2, 48, 0
6, 22860, Note_on_c, 2, 51, 88
6, 22918, Note_off_c, 2, 51, 0
6, 22920, Note_on_c, 2, 50, 88
6, 22978, Note_off_c, 2, 50, 0
6, 22980, Note_on_c, 2, 48, 88
6, 23038, Note_off_c, 2, 48, 0
6, 23040, Note_on_c, 2, 53, 88
6, 23098, Note_off_c, 2, 53, 0
6, 23100, Note_on_c, 2, 50, 88
6, 23158, Note_off_c, 2, 50, 0
6, 23160, Note_on_c, 2, 46, 88
6, 23218, Note_off_c, 2, 46, 0
6, 23220, Note_on_c, 2, 45, 88
6, 23278, Note_off_c, 2, 45, 0
6, 23280, Note_on_c, 2, 46, 88
6, 23338, Note_off_c, 2, 46, 0
6, 23340, Note_on_c, 2, 50, 88
6, 23398, Note_off_c, 2, 50, 0
6, 23400, Note_on_c, 2, 41, 88
6, 23458, Note_off_c, 2, 41, 0
6, 23460, Note_on_c, 2, 46, 88
6, 23518, Note_off_c, 2, 46, 0
6, 23520, Note_on_c, 2, 50, 88
6, 23578, Note_off_c, 2, 50, 0
6, 23580, Note_on_c, 2, 53, 88
6, 23638, Note_off_c, 2, 53, 0
6, 23640, Note_on_c, 2, 52, 88
6, 23698, Note_off_c, 2, 52, 0
6, 23700, Note_on_c, 2, 50, 88
6, 23758, Note_off_c, 2, 50, 0
6, 23760, Note_on_c, 2, 52, 88
6, 23818, Note_off_c, 2, 52, 0
6, 23820, Note_on_c, 2, 48, 88
6, 23878, Note_off_c, 2, 48, 0
6, 23880, Note_on_c, 2, 46, 88
6, 23938, Note_off_c, 2, 46, 0
6, 23940, Note_on_c, 2, 45, 88
6, 23998, Note_off_c, 2, 45, 0
6, 24000, Note_on_c, 2, 46, 88
6, 24058, Note_off_c, 2, 46, 0
6, 24060, Note_on_c, 2, 52, 88
6, 24118, Note_off_c, 2, 52, 0
6, 24120, Note_on_c, 2, 43, 88
6, 24178, Note_off_c, 2, 43, 0
6, 24180, Note_on_c, 2, 46, 88
6, 24238, Note_off_c, 2, 46, 0
6, 24240, Note_on_c, 2, 52, 88
6, 24298, Note_off_c, 2, 52, 0
6, 24300, Note_on_c, 2, 55, 88
6, 24358, Note_off_c, 2, 55, 0
6, 24360, Note_on_c, 2, 53, 88
6, 24418, Note_off_c, 2, 53, 0
6, 24420, Note_on_c, 2, 52, 88
6, 24478, Note_off_c, 2, 52, 0
6, 24480, Note_on_c, 2, 53, 88
6, 24596, Note_off_c, 2, 53, 0
6, 24600, Note_on_c, 2, 45, 88
6, 24716, Note_off_c, 2, 45, 0
6, 24720, Note_on_c, 2, 50, 88
6, 24836, Note_off_c, 2, 50, 0
6, 24840, Note_on_c, 2, 48, 88
6, 24869, Note_off_c, 2, 48, 0
6, 24870, Note_on_c, 2, 46, 88
6, 24892, Note_off_c, 2, 46, 0
6, 24893, Note_on_c, 2, 48, 88
6, 24914, Note_off_c, 2, 48, 0
6, 24915, Note_on_c, 2, 46, 88
6, 24935, Note_off_c, 2, 46, 0
6, 24938, Note_on_c, 2, 48, 88
6, 24956, Note_on_c, 2, 46, 88
6, 24956, Note_off_c, 2, 48, 0
6, 24974, Note_off_c, 2, 46, 0
6, 24975, Note_on_c, 2, 48, 88
6, 24993, Note_off_c, 2, 48, 0
6, 24994, Note_on_c, 2, 46, 88
6, 25019, Note_off_c, 2, 46, 0
6, 25020, Note_on_c, 2, 45, 88
6, 25049, Note_off_c, 2, 45, 0
6, 25050, Note_on_c, 2, 46, 88
6, 25079, Note_off_c, 2, 46, 0
6, 25080, Note_on_c, 2, 48, 88
6, 25196, Note_off_c, 2, 48, 0
6, 25200, Note_on_c, 2, 41, 88
6, 25434, Note_off_c, 2, 41, 0
6, 25620, Note_on_c, 2, 48, 88
6, 25678, Note_off_c, 2, 48, 0
6, 25680, Note_on_c, 2, 45, 88
6, 25738, Note_off_c, 2, 45, 0
6, 25740, Note_on_c, 2, 48, 88
6, 25798, Note_off_c, 2, 48, 0
6, 25800, Note_on_c, 2, 41, 88
6, 25916, Note_off_c, 2, 41, 0
6, 25916, End_track
0, 0, End_of_file
