0, 0, Header, 1, 7, 240
1, 0, Start_track
1, 0, Time_signature, 4, 2, 24, 8
1, 0, Tempo, 882352
1, 0, SMPTE_offset, 64, 0, 0, 0, 93
1, 0, End_track
2, 0, Start_track
2, 0, Title_t, "(C) & (P) 1993"
2, 127, End_track
3, 0, Start_track
3, 0, Title_t, "CCARH,Stanford"
3, 0, End_track
4, 0, Start_track
4, 0, Title_t, "Track 1"
4, 0, Program_c, 0, 6
4, 0, Note_on_c, 0, 58, 88
4, 29, Note_off_c, 0, 58, 0
4, 30, Note_on_c, 0, 65, 88
4, 59, Note_off_c, 0, 65, 0
4, 60, Note_on_c, 0, 74, 88
4, 89, Note_off_c, 0, 74, 0
4, 90, Note_on_c, 0, 65, 88
4, 119, Note_off_c, 0, 65, 0
4, 120, Note_on_c, 0, 57, 88
4, 149, Note_off_c, 0, 57, 0
4, 150, Note_on_c, 0, 65, 88
4, 179, Note_off_c, 0, 65, 0
4, 180, Note_on_c, 0, 72, 88
4, 209, Note_off_c, 0, 72, 0
4, 210, Note_on_c, 0, 65, 88
4, 239, Note_off_c, 0, 65, 0
4, 240, Note_on_c, 0, 58, 88
4, 269, Note_off_c, 0, 58, 0
4, 270, Note_on_c, 0, 65, 88
4, 299, Note_off_c, 0, 65, 0
4, 300, Note_on_c, 0, 74, 88
4, 329, Note_off_c, 0, 74, 0
4, 330, Note_on_c, 0, 65, 88
4, 359, Note_off_c, 0, 65, 0
4, 360, Note_on_c, 0, 53, 88
4, 389, Note_off_c, 0, 53, 0
4, 390, Note_on_c, 0, 69, 88
4, 419, Note_off_c, 0, 69, 0
4, 420, Note_on_c, 0, 77, 88
4, 449, Note_off_c, 0, 77, 0
4, 450, Note_on_c, 0, 69, 88
4, 479, Note_off_c, 0, 69, 0
4, 480, Note_on_c, 0, 55, 88
4, 509, Note_off_c, 0, 55, 0
4, 510, Note_on_c, 0, 62, 88
4, 539, Note_off_c, 0, 62, 0
4, 540, Note_on_c, 0, 70, 88
4, 569, Note_off_c, 0, 70, 0
4, 570, Note_on_c, 0, 62, 88
4, 599, Note_off_c, 0, 62, 0
4, 600, Note_on_c, 0, 53, 88
4, 629, Note_off_c, 0, 53, 0
4, 630, Note_on_c, 0, 62, 88
4, 659, Note_off_c, 0, 62, 0
4, 660, Note_on_c, 0, 69, 88
4, 689, Note_off_c, 0, 69, 0
4, 690, Note_on_c, 0, 62, 88
4, 719, Note_off_c, 0, 62, 0
4, 720, Note_on_c, 0, 55, 88
4, 749, Note_off_c, 0, 55, 0
4, 750, Note_on_c, 0, 62, 88
4, 779, Note_off_c, 0, 62, 0
4, 780, Note_on_c, 0, 70, 88
4, 809, Note_off_c, 0, 70, 0
4, 810, Note_on_c, 0, 62, 88
4, 839, Note_off_c, 0, 62, 0
4, 840, Note_on_c, 0, 50, 88
4, 869, Note_off_c, 0, 50, 0
4, 870, Note_on_c, 0, 65, 88
4, 899, Note_off_c, 0, 65, 0
4, 900, Note_on_c, 0, 74, 88
4, 929, Note_off_c, 0, 74, 0
4, 930, Note_on_c, 0, 65, 88
4, 959, Note_off_c, 0, 65, 0
4, 960, Note_on_c, 0, 51, 88
4, 989, Note_off_c, 0, 51, 0
4, 990, Note_on_c, 0, 58, 88
4, 1019, Note_off_c, 0, 58, 0
4, 1020, Note_on_c, 0, 67, 88
4, 1049, Note_off_c, 0, 67, 0
4, 1050, Note_on_c, 0, 58, 88
4, 1079, Note_off_c, 0, 58, 0
4, 1080, Note_on_c, 0, 50, 88
4, 1109, Note_off_c, 0, 50, 0
4, 1110, Note_on_c, 0, 58, 88
4, 1139, Note_off_c, 0, 58, 0
4, 1140, Note_on_c, 0, 65, 88
4, 1169, Note_off_c, 0, 65, 0
4, 1170, Note_on_c, 0, 58, 88
4, 1199, Note_off_c, 0, 58, 0
4, 1200, Note_on_c, 0, 51, 88
4, 1229, Note_off_c, 0, 51, 0
4, 1230, Note_on_c, 0, 58, 88
4, 1259, Note_off_c, 0, 58, 0
4, 1260, Note_on_c, 0, 67, 88
4, 1289, Note_off_c, 0, 67, 0
4, 1290, Note_on_c, 0, 58, 88
4, 1319, Note_off_c, 0, 58, 0
4, 1320, Note_on_c, 0, 46, 88
4, 1349, Note_off_c, 0, 46, 0
4, 1350, Note_on_c, 0, 62, 88
4, 1379, Note_off_c, 0, 62, 0
4, 1380, Note_on_c, 0, 70, 88
4, 1409, Note_off_c, 0, 70, 0
4, 1410, Note_on_c, 0, 62, 88
4, 1439, Note_off_c, 0, 62, 0
4, 1440, Note_on_c, 0, 48, 88
4, 1469, Note_off_c, 0, 48, 0
4, 1470, Note_on_c, 0, 62, 88
4, 1499, Note_off_c, 0, 62, 0
4, 1500, Note_on_c, 0, 63, 88
4, 1529, Note_off_c, 0, 63, 0
4, 1530, Note_on_c, 0, 62, 88
4, 1559, Note_off_c, 0, 62, 0
4, 1560, Note_on_c, 0, 46, 88
4, 1589, Note_off_c, 0, 46, 0
4, 1590, Note_on_c, 0, 62, 88
4, 1619, Note_off_c, 0, 62, 0
4, 1620, Note_on_c, 0, 67, 88
4, 1649, Note_off_c, 0, 67, 0
4, 1650, Note_on_c, 0, 62, 88
4, 1679, Note_off_c, 0, 62, 0
4, 1680, Note_on_c, 0, 45, 88
4, 1709, Note_off_c, 0, 45, 0
4, 1710, Note_on_c, 0, 60, 88
4, 1739, Note_off_c, 0, 60, 0
4, 1740, Note_on_c, 0, 65, 88
4, 1769, Note_off_c, 0, 65, 0
4, 1770, Note_on_c, 0, 60, 88
4, 1799, Note_off_c, 0, 60, 0
4, 1800, Note_on_c, 0, 41, 88
4, 1829, Note_off_c, 0, 41, 0
4, 1830, Note_on_c, 0, 57, 88
4, 1859, Note_off_c, 0, 57, 0
4, 1860, Note_on_c, 0, 63, 88
4, 1889, Note_off_c, 0, 63, 0
4, 1890, Note_on_c, 0, 57, 88
4, 1919, Note_off_c, 0, 57, 0
4, 1920, Note_on_c, 0, 58, 88
4, 1949, Note_off_c, 0, 58, 0
4, 1950, Note_on_c, 0, 62, 88
4, 1979, Note_off_c, 0, 62, 0
4, 1980, Note_on_c, 0, 65, 88
4, 2009, Note_off_c, 0, 65, 0
4, 2010, Note_on_c, 0, 62, 88
4, 2039, Note_off_c, 0, 62, 0
4, 2040, Note_on_c, 0, 53, 88
4, 2069, Note_off_c, 0, 53, 0
4, 2070, Note_on_c, 0, 58, 88
4, 2099, Note_off_c, 0, 58, 0
4, 2100, Note_on_c, 0, 62, 88
4, 2129, Note_off_c, 0, 62, 0
4, 2130, Note_on_c, 0, 58, 88
4, 2159, Note_off_c, 0, 58, 0
4, 2160, Note_on_c, 0, 50, 88
4, 2189, Note_off_c, 0, 50, 0
4, 2190, Note_on_c, 0, 53, 88
4, 2219, Note_off_c, 0, 53, 0
4, 2220, Note_on_c, 0, 58, 88
4, 2249, Note_off_c, 0, 58, 0
4, 2250, Note_on_c, 0, 53, 88
4, 2279, Note_off_c, 0, 53, 0
4, 2280, Note_on_c, 0, 46, 88
4, 2309, Note_off_c, 0, 46, 0
4, 2310, Note_on_c, 0, 50, 88
4, 2339, Note_off_c, 0, 50, 0
4, 2340, Note_on_c, 0, 53, 88
4, 2369, Note_off_c, 0, 53, 0
4, 2370, Note_on_c, 0, 50, 88
4, 2399, Note_off_c, 0, 50, 0
4, 2400, Note_on_c, 0, 43, 88
4, 2429, Note_off_c, 0, 43, 0
4, 2430, Note_on_c, 0, 50, 88
4, 2459, Note_off_c, 0, 50, 0
4, 2460, Note_on_c, 0, 52, 88
4, 2489, Note_off_c, 0, 52, 0
4, 2490, Note_on_c, 0, 54, 88
4, 2519, Note_off_c, 0, 54, 0
4, 2520, Note_on_c, 0, 55, 88
4, 2549, Note_off_c, 0, 55, 0
4, 2550, Note_on_c, 0, 57, 88
4, 2579, Note_off_c, 0, 57, 0
4, 2580, Note_on_c, 0, 58, 88
4, 2609, Note_off_c, 0, 58, 0
4, 2610, Note_on_c, 0, 60, 88
4, 2639, Note_off_c, 0, 60, 0
4, 2640, Note_on_c, 0, 58, 88
4, 2669, Note_off_c, 0, 58, 0
4, 2670, Note_on_c, 0, 55, 88
4, 2699, Note_off_c, 0, 55, 0
4, 2700, Note_on_c, 0, 57, 88
4, 2729, Note_off_c, 0, 57, 0
4, 2730, Note_on_c, 0, 58, 88
4, 2759, Note_off_c, 0, 58, 0
4, 2760, Note_on_c, 0, 60, 88
4, 2789, Note_off_c, 0, 60, 0
4, 2790, Note_on_c, 0, 62, 88
4, 2819, Note_off_c, 0, 62, 0
4, 2820, Note_on_c, 0, 64, 88
4, 2849, Note_off_c, 0, 64, 0
4, 2850, Note_on_c, 0, 65, 88
4, 2879, Note_off_c, 0, 65, 0
4, 2880, Note_on_c, 0, 60, 88
4, 2909, Note_off_c, 0, 60, 0
4, 2910, Note_on_c, 0, 64, 88
4, 2939, Note_off_c, 0, 64, 0
4, 2940, Note_on_c, 0, 67, 88
4, 2969, Note_off_c, 0, 67, 0
4, 2970, Note_on_c, 0, 64, 88
4, 2999, Note_off_c, 0, 64, 0
4, 3000, Note_on_c, 0, 55, 88
4, 3029, Note_off_c, 0, 55, 0
4, 3030, Note_on_c, 0, 60, 88
4, 3059, Note_off_c, 0, 60, 0
4, 3060, Note_on_c, 0, 64, 88
4, 3089, Note_off_c, 0, 64, 0
4, 3090, Note_on_c, 0, 60, 88
4, 3119, Note_off_c, 0, 60, 0
4, 3120, Note_on_c, 0, 52, 88
4, 3149, Note_off_c, 0, 52, 0
4, 3150, Note_on_c, 0, 55, 88
4, 3179, Note_off_c, 0, 55, 0
4, 3180, Note_on_c, 0, 60, 88
4, 3209, Note_off_c, 0, 60, 0
4, 3210, Note_on_c, 0, 55, 88
4, 3239, Note_off_c, 0, 55, 0
4, 3240, Note_on_c, 0, 48, 88
4, 3269, Note_off_c, 0, 48, 0
4, 3270, Note_on_c, 0, 52, 88
4, 3299, Note_off_c, 0, 52, 0
4, 3300, Note_on_c, 0, 55, 88
4, 3329, Note_off_c, 0, 55, 0
4, 3330, Note_on_c, 0, 52, 88
4, 3359, Note_off_c, 0, 52, 0
4, 3360, Note_on_c, 0, 45, 88
4, 3389, Note_off_c, 0, 45, 0
4, 3390, Note_on_c, 0, 52, 88
4, 3419, Note_off_c, 0, 52, 0
4, 3420, Note_on_c, 0, 53, 88
4, 3449, Note_off_c, 0, 53, 0
4, 3450, Note_on_c, 0, 55, 88
4, 3479, Note_off_c, 0, 55, 0
4, 3480, Note_on_c, 0, 57, 88
4, 3509, Note_off_c, 0, 57, 0
4, 3510, Note_on_c, 0, 59, 88
4, 3539, Note_off_c, 0, 59, 0
4, 3540, Note_on_c, 0, 60, 88
4, 3569, Note_off_c, 0, 60, 0
4, 3570, Note_on_c, 0, 62, 88
4, 3599, Note_off_c, 0, 62, 0
4, 3600, Note_on_c, 0, 60, 88
4, 3629, Note_off_c, 0, 60, 0
4, 3630, Note_on_c, 0, 57, 88
4, 3659, Note_off_c, 0, 57, 0
4, 3660, Note_on_c, 0, 59, 88
4, 3689, Note_off_c, 0, 59, 0
4, 3690, Note_on_c, 0, 60, 88
4, 3719, Note_off_c, 0, 60, 0
4, 3720, Note_on_c, 0, 62, 88
4, 3749, Note_off_c, 0, 62, 0
4, 3750, Note_on_c, 0, 64, 88
4, 3779, Note_off_c, 0, 64, 0
4, 3780, Note_on_c, 0, 65, 88
4, 3809, Note_off_c, 0, 65, 0
4, 3810, Note_on_c, 0, 67, 88
4, 3839, Note_off_c, 0, 67, 0
4, 3840, Note_on_c, 0, 62, 88
4, 3869, Note_off_c, 0, 62, 0
4, 3870, Note_on_c, 0, 65, 88
4, 3899, Note_off_c, 0, 65, 0
4, 3900, Note_on_c, 0, 69, 88
4, 3929, Note_off_c, 0, 69, 0
4, 3930, Note_on_c, 0, 65, 88
4, 3959, Note_off_c, 0, 65, 0
4, 3960, Note_on_c, 0, 57, 88
4, 3989, Note_off_c, 0, 57, 0
4, 3990, Note_on_c, 0, 62, 88
4, 4019, Note_off_c, 0, 62, 0
4, 4020, Note_on_c, 0, 65, 88
4, 4049, Note_off_c, 0, 65, 0
4, 4050, Note_on_c, 0, 62, 88
4, 4079, Note_off_c, 0, 62, 0
4, 4080, Note_on_c, 0, 53, 88
4, 4109, Note_off_c, 0, 53, 0
4, 4110, Note_on_c, 0, 57, 88
4, 4139, Note_off_c, 0, 57, 0
4, 4140, Note_on_c, 0, 62, 88
4, 4169, Note_off_c, 0, 62, 0
4, 4170, Note_on_c, 0, 57, 88
4, 4199, Note_off_c, 0, 57, 0
4, 4200, Note_on_c, 0, 50, 88
4, 4229, Note_off_c, 0, 50, 0
4, 4230, Note_on_c, 0, 53, 88
4, 4259, Note_off_c, 0, 53, 0
4, 4260, Note_on_c, 0, 57, 88
4, 4289, Note_off_c, 0, 57, 0
4, 4290, Note_on_c, 0, 53, 88
4, 4319, Note_off_c, 0, 53, 0
4, 4320, Note_on_c, 0, 46, 88
4, 4349, Note_off_c, 0, 46, 0
4, 4350, Note_on_c, 0, 53, 88
4, 4379, Note_off_c, 0, 53, 0
4, 4380, Note_on_c, 0, 62, 88
4, 4409, Note_off_c, 0, 62, 0
4, 4410, Note_on_c, 0, 53, 88
4, 4439, Note_off_c, 0, 53, 0
4, 4440, Note_on_c, 0, 43, 88
4, 4469, Note_off_c, 0, 43, 0
4, 4470, Note_on_c, 0, 53, 88
4, 4499, Note_off_c, 0, 53, 0
4, 4500, Note_on_c, 0, 58, 88
4, 4529, Note_off_c, 0, 58, 0
4, 4530, Note_on_c, 0, 53, 88
4, 4559, Note_off_c, 0, 53, 0
4, 4560, Note_on_c, 0, 45, 88
4, 4589, Note_off_c, 0, 45, 0
4, 4590, Note_on_c, 0, 53, 88
4, 4619, Note_off_c, 0, 53, 0
4, 4620, Note_on_c, 0, 60, 88
4, 4649, Note_off_c, 0, 60, 0
4, 4650, Note_on_c, 0, 53, 88
4, 4679, Note_off_c, 0, 53, 0
4, 4680, Note_on_c, 0, 41, 88
4, 4709, Note_off_c, 0, 41, 0
4, 4710, Note_on_c, 0, 53, 88
4, 4739, Note_off_c, 0, 53, 0
4, 4740, Note_on_c, 0, 63, 88
4, 4769, Note_off_c, 0, 63, 0
4, 4770, Note_on_c, 0, 53, 88
4, 4799, Note_off_c, 0, 53, 0
4, 4800, Note_on_c, 0, 46, 88
4, 4829, Note_off_c, 0, 46, 0
4, 4830, Note_on_c, 0, 53, 88
4, 4859, Note_off_c, 0, 53, 0
4, 4860, Note_on_c, 0, 62, 88
4, 4889, Note_off_c, 0, 62, 0
4, 4890, Note_on_c, 0, 53, 88
4, 4919, Note_off_c, 0, 53, 0
4, 4920, Note_on_c, 0, 43, 88
4, 4949, Note_off_c, 0, 43, 0
4, 4950, Note_on_c, 0, 53, 88
4, 4979, Note_off_c, 0, 53, 0
4, 4980, Note_on_c, 0, 58, 88
4, 5009, Note_off_c, 0, 58, 0
4, 5010, Note_on_c, 0, 53, 88
4, 5039, Note_off_c, 0, 53, 0
4, 5040, Note_on_c, 0, 45, 88
4, 5069, Note_off_c, 0, 45, 0
4, 5070, Note_on_c, 0, 53, 88
4, 5099, Note_off_c, 0, 53, 0
4, 5100, Note_on_c, 0, 60, 88
4, 5129, Note_off_c, 0, 60, 0
4, 5130, Note_on_c, 0, 53, 88
4, 5159, Note_off_c, 0, 53, 0
4, 5160, Note_on_c, 0, 41, 88
4, 5189, Note_off_c, 0, 41, 0
4, 5190, Note_on_c, 0, 53, 88
4, 5219, Note_off_c, 0, 53, 0
4, 5220, Note_on_c, 0, 63, 88
4, 5249, Note_off_c, 0, 63, 0
4, 5250, Note_on_c, 0, 53, 88
4, 5279, Note_off_c, 0, 53, 0
4, 5280, Note_on_c, 0, 46, 88
4, 5309, Note_off_c, 0, 46, 0
4, 5310, Note_on_c, 0, 53, 88
4, 5339, Note_off_c, 0, 53, 0
4, 5340, Note_on_c, 0, 62, 88
4, 5369, Note_off_c, 0, 62, 0
4, 5370, Note_on_c, 0, 53, 88
4, 5399, Note_off_c, 0, 53, 0
4, 5400, Note_on_c, 0, 47, 88
4, 5429, Note_off_c, 0, 47, 0
4, 5430, Note_on_c, 0, 55, 88
4, 5459, Note_off_c, 0, 55, 0
4, 5460, Note_on_c, 0, 65, 88
4, 5489, Note_off_c, 0, 65, 0
4, 5490, Note_on_c, 0, 55, 88
4, 5519, Note_off_c, 0, 55, 0
4, 5520, Note_on_c, 0, 48, 88
4, 5549, Note_off_c, 0, 48, 0
4, 5550, Note_on_c, 0, 55, 88
4, 5579, Note_off_c, 0, 55, 0
4, 5580, Note_on_c, 0, 64, 88
4, 5609, Note_off_c, 0, 64, 0
4, 5610, Note_on_c, 0, 55, 88
4, 5639, Note_off_c, 0, 55, 0
4, 5640, Note_on_c, 0, 49, 88
4, 5669, Note_off_c, 0, 49, 0
4, 5670, Note_on_c, 0, 57, 88
4, 5699, Note_off_c, 0, 57, 0
4, 5700, Note_on_c, 0, 67, 88
4, 5729, Note_off_c, 0, 67, 0
4, 5730, Note_on_c, 0, 57, 88
4, 5759, Note_off_c, 0, 57, 0
4, 5760, Note_on_c, 0, 50, 88
4, 5789, Note_off_c, 0, 50, 0
4, 5790, Note_on_c, 0, 57, 88
4, 5819, Note_off_c, 0, 57, 0
4, 5820, Note_on_c, 0, 65, 88
4, 5849, Note_off_c, 0, 65, 0
4, 5850, Note_on_c, 0, 57, 88
4, 5879, Note_off_c, 0, 57, 0
4, 5880, Note_on_c, 0, 38, 88
4, 5909, Note_off_c, 0, 38, 0
4, 5910, Note_on_c, 0, 58, 88
4, 5939, Note_off_c, 0, 58, 0
4, 5940, Note_on_c, 0, 69, 88
4, 5969, Note_off_c, 0, 69, 0
4, 5970, Note_on_c, 0, 58, 88
4, 5999, Note_off_c, 0, 58, 0
4, 6000, Note_on_c, 0, 40, 88
4, 6029, Note_off_c, 0, 40, 0
4, 6030, Note_on_c, 0, 58, 88
4, 6059, Note_off_c, 0, 58, 0
4, 6060, Note_on_c, 0, 67, 88
4, 6089, Note_off_c, 0, 67, 0
4, 6090, Note_on_c, 0, 58, 88
4, 6119, Note_off_c, 0, 58, 0
4, 6120, Note_on_c, 0, 52, 88
4, 6149, Note_off_c, 0, 52, 0
4, 6150, Note_on_c, 0, 60, 88
4, 6179, Note_off_c, 0, 60, 0
4, 6180, Note_on_c, 0, 70, 88
4, 6209, Note_off_c, 0, 70, 0
4, 6210, Note_on_c, 0, 60, 88
4, 6239, Note_off_c, 0, 60, 0
4, 6240, Note_on_c, 0, 53, 88
4, 6269, Note_off_c, 0, 53, 0
4, 6270, Note_on_c, 0, 60, 88
4, 6299, Note_off_c, 0, 60, 0
4, 6300, Note_on_c, 0, 69, 88
4, 6329, Note_off_c, 0, 69, 0
4, 6330, Note_on_c, 0, 60, 88
4, 6359, Note_off_c, 0, 60, 0
4, 6360, Note_on_c, 0, 41, 88
4, 6389, Note_off_c, 0, 41, 0
4, 6390, Note_on_c, 0, 62, 88
4, 6419, Note_off_c, 0, 62, 0
4, 6420, Note_on_c, 0, 72, 88
4, 6449, Note_off_c, 0, 72, 0
4, 6450, Note_on_c, 0, 62, 88
4, 6479, Note_off_c, 0, 62, 0
4, 6480, Note_on_c, 0, 43, 88
4, 6509, Note_off_c, 0, 43, 0
4, 6510, Note_on_c, 0, 62, 88
4, 6539, Note_off_c, 0, 62, 0
4, 6540, Note_on_c, 0, 70, 88
4, 6569, Note_off_c, 0, 70, 0
4, 6570, Note_on_c, 0, 62, 88
4, 6599, Note_off_c, 0, 62, 0
4, 6600, Note_on_c, 0, 55, 88
4, 6629, Note_off_c, 0, 55, 0
4, 6630, Note_on_c, 0, 64, 88
4, 6659, Note_off_c, 0, 64, 0
4, 6660, Note_on_c, 0, 74, 88
4, 6689, Note_off_c, 0, 74, 0
4, 6690, Note_on_c, 0, 64, 88
4, 6719, Note_off_c, 0, 64, 0
4, 6720, Note_on_c, 0, 57, 88
4, 6749, Note_off_c, 0, 57, 0
4, 6750, Note_on_c, 0, 60, 88
4, 6779, Note_off_c, 0, 60, 0
4, 6780, Note_on_c, 0, 62, 88
4, 6809, Note_off_c, 0, 62, 0
4, 6810, Note_on_c, 0, 64, 88
4, 6839, Note_off_c, 0, 64, 0
4, 6840, Note_on_c, 0, 65, 88
4, 6869, Note_off_c, 0, 65, 0
4, 6870, Note_on_c, 0, 67, 88
4, 6899, Note_off_c, 0, 67, 0
4, 6900, Note_on_c, 0, 69, 88
4, 6929, Note_off_c, 0, 69, 0
4, 6930, Note_on_c, 0, 70, 88
4, 6959, Note_off_c, 0, 70, 0
4, 6960, Note_on_c, 0, 72, 88
4, 6989, Note_off_c, 0, 72, 0
4, 6990, Note_on_c, 0, 70, 88
4, 7019, Note_off_c, 0, 70, 0
4, 7020, Note_on_c, 0, 69, 88
4, 7049, Note_off_c, 0, 69, 0
4, 7050, Note_on_c, 0, 67, 88
4, 7079, Note_off_c, 0, 67, 0
4, 7080, Note_on_c, 0, 65, 88
4, 7109, Note_off_c, 0, 65, 0
4, 7110, Note_on_c, 0, 63, 88
4, 7139, Note_off_c, 0, 63, 0
4, 7140, Note_on_c, 0, 62, 88
4, 7169, Note_off_c, 0, 62, 0
4, 7170, Note_on_c, 0, 60, 88
4, 7199, Note_off_c, 0, 60, 0
4, 7200, Note_on_c, 0, 62, 88
4, 7229, Note_off_c, 0, 62, 0
4, 7230, Note_on_c, 0, 58, 88
4, 7259, Note_off_c, 0, 58, 0
4, 7260, Note_on_c, 0, 57, 88
4, 7289, Note_off_c, 0, 57, 0
4, 7290, Note_on_c, 0, 55, 88
4, 7319, Note_off_c, 0, 55, 0
4, 7320, Note_on_c, 0, 53, 88
4, 7349, Note_off_c, 0, 53, 0
4, 7350, Note_on_c, 0, 51, 88
4, 7379, Note_off_c, 0, 51, 0
4, 7380, Note_on_c, 0, 50, 88
4, 7409, Note_off_c, 0, 50, 0
4, 7410, Note_on_c, 0, 48, 88
4, 7439, Note_off_c, 0, 48, 0
4, 7440, Note_on_c, 0, 46, 88
4, 7469, Note_off_c, 0, 46, 0
4, 7470, Note_on_c, 0, 48, 88
4, 7499, Note_off_c, 0, 48, 0
4, 7500, Note_on_c, 0, 50, 88
4, 7529, Note_off_c, 0, 50, 0
4, 7530, Note_on_c, 0, 48, 88
4, 7559, Note_off_c, 0, 48, 0
4, 7560, Note_on_c, 0, 46, 88
4, 7589, Note_off_c, 0, 46, 0
4, 7590, Note_on_c, 0, 45, 88
4, 7619, Note_off_c, 0, 45, 0
4, 7620, Note_on_c, 0, 43, 88
4, 7649, Note_off_c, 0, 43, 0
4, 7650, Note_on_c, 0, 41, 88
4, 7679, Note_off_c, 0, 41, 0
4, 7680, Note_on_c, 0, 40, 88
4, 7709, Note_off_c, 0, 40, 0
4, 7710, Note_on_c, 0, 60, 88
4, 7739, Note_off_c, 0, 60, 0
4, 7740, Note_on_c, 0, 70, 88
4, 7769, Note_off_c, 0, 70, 0
4, 7770, Note_on_c, 0, 60, 88
4, 7799, Note_off_c, 0, 60, 0
4, 7800, Note_on_c, 0, 41, 88
4, 7829, Note_off_c, 0, 41, 0
4, 7830, Note_on_c, 0, 60, 88
4, 7859, Note_off_c, 0, 60, 0
4, 7860, Note_on_c, 0, 69, 88
4, 7889, Note_off_c, 0, 69, 0
4, 7890, Note_on_c, 0, 60, 88
4, 7919, Note_off_c, 0, 60, 0
4, 7920, Note_on_c, 0, 38, 88
4, 7949, Note_off_c, 0, 38, 0
4, 7950, Note_on_c, 0, 58, 88
4, 7979, Note_off_c, 0, 58, 0
4, 7980, Note_on_c, 0, 69, 88
4, 8009, Note_off_c, 0, 69, 0
4, 8010, Note_on_c, 0, 58, 88
4, 8039, Note_off_c, 0, 58, 0
4, 8040, Note_on_c, 0, 40, 88
4, 8069, Note_off_c, 0, 40, 0
4, 8070, Note_on_c, 0, 58, 88
4, 8099, Note_off_c, 0, 58, 0
4, 8100, Note_on_c, 0, 67, 88
4, 8129, Note_off_c, 0, 67, 0
4, 8130, Note_on_c, 0, 58, 88
4, 8159, Note_off_c, 0, 58, 0
4, 8160, Note_on_c, 0, 41, 88
4, 8189, Note_off_c, 0, 41, 0
4, 8190, Note_on_c, 0, 57, 88
4, 8219, Note_off_c, 0, 57, 0
4, 8220, Note_on_c, 0, 67, 88
4, 8249, Note_off_c, 0, 67, 0
4, 8250, Note_on_c, 0, 57, 88
4, 8279, Note_off_c, 0, 57, 0
4, 8280, Note_on_c, 0, 45, 88
4, 8309, Note_off_c, 0, 45, 0
4, 8310, Note_on_c, 0, 57, 88
4, 8339, Note_off_c, 0, 57, 0
4, 8340, Note_on_c, 0, 65, 88
4, 8369, Note_off_c, 0, 65, 0
4, 8370, Note_on_c, 0, 57, 88
4, 8399, Note_off_c, 0, 57, 0
4, 8400, Note_on_c, 0, 46, 88
4, 8429, Note_off_c, 0, 46, 0
4, 8430, Note_on_c, 0, 55, 88
4, 8459, Note_off_c, 0, 55, 0
4, 8460, Note_on_c, 0, 65, 88
4, 8489, Note_off_c, 0, 65, 0
4, 8490, Note_on_c, 0, 55, 88
4, 8519, Note_off_c, 0, 55, 0
4, 8520, Note_on_c, 0, 48, 88
4, 8549, Note_off_c, 0, 48, 0
4, 8550, Note_on_c, 0, 55, 88
4, 8579, Note_off_c, 0, 55, 0
4, 8580, Note_on_c, 0, 64, 88
4, 8609, Note_off_c, 0, 64, 0
4, 8610, Note_on_c, 0, 55, 88
4, 8639, Note_off_c, 0, 55, 0
4, 8640, Note_on_c, 0, 57, 88
4, 8669, Note_off_c, 0, 57, 0
4, 8670, Note_on_c, 0, 60, 88
4, 8699, Note_off_c, 0, 60, 0
4, 8700, Note_on_c, 0, 65, 88
4, 8729, Note_off_c, 0, 65, 0
4, 8730, Note_on_c, 0, 60, 88
4, 8759, Note_off_c, 0, 60, 0
4, 8760, Note_on_c, 0, 57, 88
4, 8789, Note_off_c, 0, 57, 0
4, 8790, Note_on_c, 0, 65, 88
4, 8819, Note_off_c, 0, 65, 0
4, 8820, Note_on_c, 0, 60, 88
4, 8849, Note_off_c, 0, 60, 0
4, 8850, Note_on_c, 0, 57, 88
4, 8879, Note_off_c, 0, 57, 0
4, 8880, Note_on_c, 0, 53, 88
4, 8909, Note_off_c, 0, 53, 0
4, 8910, Note_on_c, 0, 57, 88
4, 8939, Note_off_c, 0, 57, 0
4, 8940, Note_on_c, 0, 60, 88
4, 8969, Note_off_c, 0, 60, 0
4, 8970, Note_on_c, 0, 57, 88
4, 8999, Note_off_c, 0, 57, 0
4, 9000, Note_on_c, 0, 53, 88
4, 9029, Note_off_c, 0, 53, 0
4, 9030, Note_on_c, 0, 60, 88
4, 9059, Note_off_c, 0, 60, 0
4, 9060, Note_on_c, 0, 57, 88
4, 9089, Note_off_c, 0, 57, 0
4, 9090, Note_on_c, 0, 53, 88
4, 9119, Note_off_c, 0, 53, 0
4, 9120, Note_on_c, 0, 48, 88
4, 9149, Note_off_c, 0, 48, 0
4, 9150, Note_on_c, 0, 53, 88
4, 9179, Note_off_c, 0, 53, 0
4, 9180, Note_on_c, 0, 52, 88
4, 9209, Note_off_c, 0, 52, 0
4, 9210, Note_on_c, 0, 50, 88
4, 9239, Note_off_c, 0, 50, 0
4, 9240, Note_on_c, 0, 48, 88
4, 9269, Note_off_c, 0, 48, 0
4, 9270, Note_on_c, 0, 46, 88
4, 9299, Note_off_c, 0, 46, 0
4, 9300, Note_on_c, 0, 45, 88
4, 9329, Note_off_c, 0, 45, 0
4, 9330, Note_on_c, 0, 43, 88
4, 9359, Note_off_c, 0, 43, 0
4, 9360, Note_on_c, 0, 41, 88
4, 9389, Note_off_c, 0, 41, 0
4, 9390, Note_on_c, 0, 45, 88
4, 9419, Note_off_c, 0, 45, 0
4, 9420, Note_on_c, 0, 48, 88
4, 9449, Note_off_c, 0, 48, 0
4, 9450, Note_on_c, 0, 53, 88
4, 9479, Note_off_c, 0, 53, 0
4, 9480, Note_on_c, 0, 57, 88
4, 9509, Note_off_c, 0, 57, 0
4, 9510, Note_on_c, 0, 60, 88
4, 9539, Note_off_c, 0, 60, 0
4, 9540, Note_on_c, 0, 63, 88
4, 9569, Note_off_c, 0, 63, 0
4, 9570, Note_on_c, 0, 66, 88
4, 9599, Note_off_c, 0, 66, 0
4, 9600, Note_on_c, 0, 38, 88
4, 9716, Note_off_c, 0, 38, 0
4, 9840, Note_on_c, 0, 77, 88
4, 10003, Note_off_c, 0, 77, 0
4, 10020, Note_on_c, 0, 77, 88
4, 10063, Note_off_c, 0, 77, 0
4, 10080, Note_on_c, 0, 77, 88
4, 10345, Note_off_c, 0, 77, 0
4, 10350, Note_on_c, 0, 79, 88
4, 10379, Note_off_c, 0, 79, 0
4, 10380, Note_on_c, 0, 80, 88
4, 10409, Note_off_c, 0, 80, 0
4, 10410, Note_on_c, 0, 79, 88
4, 10439, Note_off_c, 0, 79, 0
4, 10440, Note_on_c, 0, 77, 88
4, 10469, Note_off_c, 0, 77, 0
4, 10470, Note_on_c, 0, 75, 88
4, 10499, Note_off_c, 0, 75, 0
4, 10500, Note_on_c, 0, 74, 88
4, 10529, Note_off_c, 0, 74, 0
4, 10530, Note_on_c, 0, 75, 88
4, 10559, Note_off_c, 0, 75, 0
4, 10560, Note_on_c, 0, 77, 88
4, 10589, Note_off_c, 0, 77, 0
4, 10590, Note_on_c, 0, 75, 88
4, 10619, Note_off_c, 0, 75, 0
4, 10620, Note_on_c, 0, 74, 88
4, 10649, Note_off_c, 0, 74, 0
4, 10650, Note_on_c, 0, 72, 88
4, 10679, Note_off_c, 0, 72, 0
4, 10680, Note_on_c, 0, 71, 88
4, 10709, Note_off_c, 0, 71, 0
4, 10710, Note_on_c, 0, 72, 88
4, 10739, Note_off_c, 0, 72, 0
4, 10740, Note_on_c, 0, 74, 88
4, 10769, Note_off_c, 0, 74, 0
4, 10770, Note_on_c, 0, 72, 88
4, 10799, Note_off_c, 0, 72, 0
4, 10800, Note_on_c, 0, 71, 88
4, 10829, Note_off_c, 0, 71, 0
4, 10830, Note_on_c, 0, 69, 88
4, 10859, Note_off_c, 0, 69, 0
4, 10860, Note_on_c, 0, 67, 88
4, 10889, Note_off_c, 0, 67, 0
4, 10890, Note_on_c, 0, 69, 88
4, 10919, Note_off_c, 0, 69, 0
4, 10920, Note_on_c, 0, 71, 88
4, 10949, Note_off_c, 0, 71, 0
4, 10950, Note_on_c, 0, 69, 88
4, 10979, Note_off_c, 0, 69, 0
4, 10980, Note_on_c, 0, 67, 88
4, 11009, Note_off_c, 0, 67, 0
4, 11010, Note_on_c, 0, 65, 88
4, 11039, Note_off_c, 0, 65, 0
4, 11040, Note_on_c, 0, 63, 88
4, 11069, Note_off_c, 0, 63, 0
4, 11070, Note_on_c, 0, 62, 88
4, 11099, Note_off_c, 0, 62, 0
4, 11100, Note_on_c, 0, 60, 88
4, 11129, Note_off_c, 0, 60, 0
4, 11130, Note_on_c, 0, 58, 88
4, 11159, Note_off_c, 0, 58, 0
4, 11160, Note_on_c, 0, 56, 88
4, 11189, Note_off_c, 0, 56, 0
4, 11190, Note_on_c, 0, 55, 88
4, 11219, Note_off_c, 0, 55, 0
4, 11220, Note_on_c, 0, 53, 88
4, 11249, Note_off_c, 0, 53, 0
4, 11250, Note_on_c, 0, 51, 88
4, 11279, Note_off_c, 0, 51, 0
4, 11280, Note_on_c, 0, 50, 88
4, 11309, Note_off_c, 0, 50, 0
4, 11310, Note_on_c, 0, 48, 88
4, 11339, Note_off_c, 0, 48, 0
4, 11340, Note_on_c, 0, 47, 88
4, 11369, Note_off_c, 0, 47, 0
4, 11370, Note_on_c, 0, 45, 88
4, 11399, Note_off_c, 0, 45, 0
4, 11400, Note_on_c, 0, 43, 88
4, 11429, Note_off_c, 0, 43, 0
4, 11430, Note_on_c, 0, 41, 88
4, 11459, Note_off_c, 0, 41, 0
4, 11460, Note_on_c, 0, 39, 88
4, 11489, Note_off_c, 0, 39, 0
4, 11490, Note_on_c, 0, 38, 88
4, 11519, Note_off_c, 0, 38, 0
4, 11520, Note_on_c, 0, 36, 88
4, 11636, Note_off_c, 0, 36, 0
4, 11760, Note_on_c, 0, 48, 88
4, 11923, Note_off_c, 0, 48, 0
4, 11940, Note_on_c, 0, 48, 88
4, 11998, Note_off_c, 0, 48, 0
4, 12000, Note_on_c, 0, 53, 88
4, 12265, Note_off_c, 0, 53, 0
4, 12270, Note_on_c, 0, 48, 88
4, 12299, Note_off_c, 0, 48, 0
4, 12300, Note_on_c, 0, 50, 88
4, 12329, Note_off_c, 0, 50, 0
4, 12330, Note_on_c, 0, 51, 88
4, 12359, Note_off_c, 0, 51, 0
4, 12360, Note_on_c, 0, 53, 88
4, 12389, Note_off_c, 0, 53, 0
4, 12390, Note_on_c, 0, 55, 88
4, 12419, Note_off_c, 0, 55, 0
4, 12420, Note_on_c, 0, 57, 88
4, 12449, Note_off_c, 0, 57, 0
4, 12450, Note_on_c, 0, 58, 88
4, 12479, Note_off_c, 0, 58, 0
4, 12480, Note_on_c, 0, 57, 88
4, 12509, Note_off_c, 0, 57, 0
4, 12510, Note_on_c, 0, 55, 88
4, 12539, Note_off_c, 0, 55, 0
4, 12540, Note_on_c, 0, 53, 88
4, 12569, Note_off_c, 0, 53, 0
4, 12570, Note_on_c, 0, 55, 88
4, 12599, Note_off_c, 0, 55, 0
4, 12600, Note_on_c, 0, 57, 88
4, 12629, Note_off_c, 0, 57, 0
4, 12630, Note_on_c, 0, 58, 88
4, 12659, Note_off_c, 0, 58, 0
4, 12660, Note_on_c, 0, 60, 88
4, 12689, Note_off_c, 0, 60, 0
4, 12690, Note_on_c, 0, 62, 88
4, 12719, Note_off_c, 0, 62, 0
4, 12720, Note_on_c, 0, 60, 88
4, 12749, Note_off_c, 0, 60, 0
4, 12750, Note_on_c, 0, 58, 88
4, 12779, Note_off_c, 0, 58, 0
4, 12780, Note_on_c, 0, 57, 88
4, 12809, Note_off_c, 0, 57, 0
4, 12810, Note_on_c, 0, 58, 88
4, 12839, Note_off_c, 0, 58, 0
4, 12840, Note_on_c, 0, 60, 88
4, 12869, Note_off_c, 0, 60, 0
4, 12870, Note_on_c, 0, 62, 88
4, 12899, Note_off_c, 0, 62, 0
4, 12900, Note_on_c, 0, 63, 88
4, 12929, Note_off_c, 0, 63, 0
4, 12930, Note_on_c, 0, 65, 88
4, 12959, Note_off_c, 0, 65, 0
4, 12960, Note_on_c, 0, 63, 88
4, 12989, Note_off_c, 0, 63, 0
4, 12990, Note_on_c, 0, 62, 88
4, 13019, Note_off_c, 0, 62, 0
4, 13020, Note_on_c, 0, 60, 88
4, 13049, Note_off_c, 0, 60, 0
4, 13050, Note_on_c, 0, 62, 88
4, 13079, Note_off_c, 0, 62, 0
4, 13080, Note_on_c, 0, 63, 88
4, 13109, Note_off_c, 0, 63, 0
4, 13110, Note_on_c, 0, 65, 88
4, 13139, Note_off_c, 0, 65, 0
4, 13140, Note_on_c, 0, 67, 88
4, 13169, Note_off_c, 0, 67, 0
4, 13170, Note_on_c, 0, 69, 88
4, 13199, Note_off_c, 0, 69, 0
4, 13200, Note_on_c, 0, 70, 88
4, 13229, Note_off_c, 0, 70, 0
4, 13230, Note_on_c, 0, 72, 88
4, 13259, Note_off_c, 0, 72, 0
4, 13260, Note_on_c, 0, 74, 88
4, 13289, Note_off_c, 0, 74, 0
4, 13290, Note_on_c, 0, 75, 88
4, 13319, Note_off_c, 0, 75, 0
4, 13320, Note_on_c, 0, 77, 88
4, 13349, Note_off_c, 0, 77, 0
4, 13350, Note_on_c, 0, 79, 88
4, 13379, Note_off_c, 0, 79, 0
4, 13380, Note_on_c, 0, 81, 88
4, 13409, Note_off_c, 0, 81, 0
4, 13410, Note_on_c, 0, 77, 88
4, 13439, Note_off_c, 0, 77, 0
4, 13440, Note_on_c, 0, 82, 88
4, 13556, Note_off_c, 0, 82, 0
4, 13680, Note_on_c, 0, 74, 88
4, 13843, Note_off_c, 0, 74, 0
4, 13860, Note_on_c, 0, 74, 88
4, 13903, Note_off_c, 0, 74, 0
4, 13920, Note_on_c, 0, 74, 88
4, 14154, Note_off_c, 0, 74, 0
4, 14160, Note_on_c, 0, 73, 88
4, 14335, Note_off_c, 0, 73, 0
4, 14340, Note_on_c, 0, 72, 88
4, 14398, Note_off_c, 0, 72, 0
4, 14400, Note_on_c, 0, 69, 88
4, 14665, Note_off_c, 0, 69, 0
4, 14670, Note_on_c, 0, 72, 88
4, 14699, Note_off_c, 0, 72, 0
4, 14700, Note_on_c, 0, 69, 88
4, 14729, Note_off_c, 0, 69, 0
4, 14730, Note_on_c, 0, 65, 88
4, 14759, Note_off_c, 0, 65, 0
4, 14760, Note_on_c, 0, 63, 88
4, 14789, Note_off_c, 0, 63, 0
4, 14790, Note_on_c, 0, 65, 88
4, 14819, Note_off_c, 0, 65, 0
4, 14820, Note_on_c, 0, 69, 88
4, 14849, Note_off_c, 0, 69, 0
4, 14850, Note_on_c, 0, 72, 88
4, 14879, Note_off_c, 0, 72, 0
4, 14880, Note_on_c, 0, 69, 88
4, 14909, Note_off_c, 0, 69, 0
4, 14910, Note_on_c, 0, 72, 88
4, 14939, Note_off_c, 0, 72, 0
4, 14940, Note_on_c, 0, 69, 88
4, 14969, Note_off_c, 0, 69, 0
4, 14970, Note_on_c, 0, 65, 88
4, 14999, Note_off_c, 0, 65, 0
4, 15000, Note_on_c, 0, 63, 88
4, 15029, Note_off_c, 0, 63, 0
4, 15030, Note_on_c, 0, 65, 88
4, 15059, Note_off_c, 0, 65, 0
4, 15060, Note_on_c, 0, 69, 88
4, 15089, Note_off_c, 0, 69, 0
4, 15090, Note_on_c, 0, 72, 88
4, 15119, Note_off_c, 0, 72, 0
4, 15120, Note_on_c, 0, 78, 88
4, 15149, Note_off_c, 0, 78, 0
4, 15150, Note_on_c, 0, 77, 88
4, 15179, Note_off_c, 0, 77, 0
4, 15180, Note_on_c, 0, 75, 88
4, 15209, Note_off_c, 0, 75, 0
4, 15210, Note_on_c, 0, 73, 88
4, 15239, Note_off_c, 0, 73, 0
4, 15240, Note_on_c, 0, 72, 88
4, 15269, Note_off_c, 0, 72, 0
4, 15270, Note_on_c, 0, 70, 88
4, 15299, Note_off_c, 0, 70, 0
4, 15300, Note_on_c, 0, 69, 88
4, 15329, Note_off_c, 0, 69, 0
4, 15330, Note_on_c, 0, 67, 88
4, 15359, Note_off_c, 0, 67, 0
4, 15360, Note_on_c, 0, 69, 88
4, 15389, Note_off_c, 0, 69, 0
4, 15390, Note_on_c, 0, 65, 88
4, 15419, Note_off_c, 0, 65, 0
4, 15420, Note_on_c, 0, 69, 88
4, 15449, Note_off_c, 0, 69, 0
4, 15450, Note_on_c, 0, 72, 88
4, 15479, Note_off_c, 0, 72, 0
4, 15480, Note_on_c, 0, 75, 88
4, 15509, Note_off_c, 0, 75, 0
4, 15510, Note_on_c, 0, 78, 88
4, 15539, Note_off_c, 0, 78, 0
4, 15540, Note_on_c, 0, 81, 88
4, 15569, Note_off_c, 0, 81, 0
4, 15570, Note_on_c, 0, 84, 88
4, 15599, Note_off_c, 0, 84, 0
4, 15600, Note_on_c, 0, 82, 88
4, 15687, Note_off_c, 0, 82, 0
4, 15690, Note_on_c, 0, 72, 88
4, 15719, Note_off_c, 0, 72, 0
4, 15720, Note_on_c, 0, 73, 88
4, 15749, Note_off_c, 0, 73, 0
4, 15750, Note_on_c, 0, 69, 88
4, 15779, Note_off_c, 0, 69, 0
4, 15780, Note_on_c, 0, 70, 88
4, 15809, Note_off_c, 0, 70, 0
4, 15810, Note_on_c, 0, 64, 88
4, 15839, Note_off_c, 0, 64, 0
4, 15840, Note_on_c, 0, 60, 88
4, 15956, Note_off_c, 0, 60, 0
4, 15960, Note_on_c, 0, 62, 88
4, 16076, Note_off_c, 0, 62, 0
4, 16080, Note_on_c, 0, 63, 88
4, 16314, Note_off_c, 0, 63, 0
4, 16320, Note_on_c, 0, 62, 88
4, 16585, Note_off_c, 0, 62, 0
4, 16590, Note_on_c, 0, 65, 88
4, 16619, Note_off_c, 0, 65, 0
4, 16620, Note_on_c, 0, 62, 88
4, 16649, Note_off_c, 0, 62, 0
4, 16650, Note_on_c, 0, 58, 88
4, 16679, Note_off_c, 0, 58, 0
4, 16680, Note_on_c, 0, 56, 88
4, 16709, Note_off_c, 0, 56, 0
4, 16710, Note_on_c, 0, 58, 88
4, 16739, Note_off_c, 0, 58, 0
4, 16740, Note_on_c, 0, 62, 88
4, 16769, Note_off_c, 0, 62, 0
4, 16770, Note_on_c, 0, 65, 88
4, 16799, Note_off_c, 0, 65, 0
4, 16800, Note_on_c, 0, 62, 88
4, 16829, Note_off_c, 0, 62, 0
4, 16830, Note_on_c, 0, 65, 88
4, 16859, Note_off_c, 0, 65, 0
4, 16860, Note_on_c, 0, 62, 88
4, 16889, Note_off_c, 0, 62, 0
4, 16890, Note_on_c, 0, 58, 88
4, 16919, Note_off_c, 0, 58, 0
4, 16920, Note_on_c, 0, 56, 88
4, 16949, Note_off_c, 0, 56, 0
4, 16950, Note_on_c, 0, 58, 88
4, 16979, Note_off_c, 0, 58, 0
4, 16980, Note_on_c, 0, 62, 88
4, 17009, Note_off_c, 0, 62, 0
4, 17010, Note_on_c, 0, 65, 88
4, 17039, Note_off_c, 0, 65, 0
4, 17040, Note_on_c, 0, 71, 88
4, 17069, Note_off_c, 0, 71, 0
4, 17070, Note_on_c, 0, 68, 88
4, 17099, Note_off_c, 0, 68, 0
4, 17100, Note_on_c, 0, 65, 88
4, 17129, Note_off_c, 0, 65, 0
4, 17130, Note_on_c, 0, 62, 88
4, 17159, Note_off_c, 0, 62, 0
4, 17160, Note_on_c, 0, 59, 88
4, 17189, Note_off_c, 0, 59, 0
4, 17190, Note_on_c, 0, 56, 88
4, 17219, Note_off_c, 0, 56, 0
4, 17220, Note_on_c, 0, 53, 88
4, 17249, Note_off_c, 0, 53, 0
4, 17250, Note_on_c, 0, 62, 88
4, 17279, Note_off_c, 0, 62, 0
4, 17280, Note_on_c, 0, 65, 88
4, 17295, Note_on_c, 0, 63, 88
4, 17295, Note_off_c, 0, 65, 0
4, 17317, Note_off_c, 0, 63, 0
4, 17318, Note_on_c, 0, 65, 88
4, 17339, Note_off_c, 0, 65, 0
4, 17340, Note_on_c, 0, 63, 88
4, 17427, Note_off_c, 0, 63, 0
4, 17430, Note_on_c, 0, 62, 88
4, 17459, Note_off_c, 0, 62, 0
4, 17460, Note_on_c, 0, 60, 88
4, 17489, Note_off_c, 0, 60, 0
4, 17490, Note_on_c, 0, 62, 88
4, 17519, Note_off_c, 0, 62, 0
4, 17520, Note_on_c, 0, 63, 88
4, 17549, Note_off_c, 0, 63, 0
4, 17550, Note_on_c, 0, 62, 88
4, 17579, Note_off_c, 0, 62, 0
4, 17580, Note_on_c, 0, 60, 88
4, 17609, Note_off_c, 0, 60, 0
4, 17610, Note_on_c, 0, 58, 88
4, 17639, Note_off_c, 0, 58, 0
4, 17640, Note_on_c, 0, 57, 88
4, 17669, Note_off_c, 0, 57, 0
4, 17670, Note_on_c, 0, 58, 88
4, 17699, Note_off_c, 0, 58, 0
4, 17700, Note_on_c, 0, 60, 88
4, 17729, Note_off_c, 0, 60, 0
4, 17730, Note_on_c, 0, 58, 88
4, 17759, Note_off_c, 0, 58, 0
4, 17760, Note_on_c, 0, 57, 88
4, 17789, Note_off_c, 0, 57, 0
4, 17790, Note_on_c, 0, 55, 88
4, 17819, Note_off_c, 0, 55, 0
4, 17820, Note_on_c, 0, 53, 88
4, 17849, Note_off_c, 0, 53, 0
4, 17850, Note_on_c, 0, 55, 88
4, 17879, Note_off_c, 0, 55, 0
4, 17880, Note_on_c, 0, 57, 88
4, 17909, Note_off_c, 0, 57, 0
4, 17910, Note_on_c, 0, 55, 88
4, 17939, Note_off_c, 0, 55, 0
4, 17940, Note_on_c, 0, 53, 88
4, 17969, Note_off_c, 0, 53, 0
4, 17970, Note_on_c, 0, 51, 88
4, 17999, Note_off_c, 0, 51, 0
4, 18000, Note_on_c, 0, 50, 88
4, 18029, Note_off_c, 0, 50, 0
4, 18030, Note_on_c, 0, 51, 88
4, 18059, Note_off_c, 0, 51, 0
4, 18060, Note_on_c, 0, 53, 88
4, 18089, Note_off_c, 0, 53, 0
4, 18090, Note_on_c, 0, 51, 88
4, 18119, Note_off_c, 0, 51, 0
4, 18120, Note_on_c, 0, 50, 88
4, 18149, Note_off_c, 0, 50, 0
4, 18150, Note_on_c, 0, 48, 88
4, 18179, Note_off_c, 0, 48, 0
4, 18180, Note_on_c, 0, 46, 88
4, 18209, Note_off_c, 0, 46, 0
4, 18210, Note_on_c, 0, 45, 88
4, 18239, Note_off_c, 0, 45, 0
4, 18240, Note_on_c, 0, 46, 88
4, 18269, Note_off_c, 0, 46, 0
4, 18270, Note_on_c, 0, 50, 88
4, 18299, Note_off_c, 0, 50, 0
4, 18300, Note_on_c, 0, 53, 88
4, 18329, Note_off_c, 0, 53, 0
4, 18330, Note_on_c, 0, 50, 88
4, 18345, Note_off_c, 0, 50, 0
4, 18360, Note_on_c, 0, 50, 88
4, 18389, Note_off_c, 0, 50, 0
4, 18390, Note_on_c, 0, 53, 88
4, 18419, Note_off_c, 0, 53, 0
4, 18420, Note_on_c, 0, 58, 88
4, 18449, Note_off_c, 0, 58, 0
4, 18450, Note_on_c, 0, 53, 88
4, 18465, Note_off_c, 0, 53, 0
4, 18480, Note_on_c, 0, 53, 88
4, 18509, Note_off_c, 0, 53, 0
4, 18510, Note_on_c, 0, 58, 88
4, 18539, Note_off_c, 0, 58, 0
4, 18540, Note_on_c, 0, 62, 88
4, 18569, Note_off_c, 0, 62, 0
4, 18570, Note_on_c, 0, 58, 88
4, 18585, Note_off_c, 0, 58, 0
4, 18600, Note_on_c, 0, 58, 88
4, 18629, Note_off_c, 0, 58, 0
4, 18630, Note_on_c, 0, 62, 88
4, 18659, Note_off_c, 0, 62, 0
4, 18660, Note_on_c, 0, 65, 88
4, 18689, Note_off_c, 0, 65, 0
4, 18690, Note_on_c, 0, 62, 88
4, 18705, Note_off_c, 0, 62, 0
4, 18720, Note_on_c, 0, 62, 88
4, 18749, Note_off_c, 0, 62, 0
4, 18750, Note_on_c, 0, 65, 88
4, 18779, Note_off_c, 0, 65, 0
4, 18780, Note_on_c, 0, 70, 88
4, 18809, Note_off_c, 0, 70, 0
4, 18810, Note_on_c, 0, 65, 88
4, 18825, Note_off_c, 0, 65, 0
4, 18840, Note_on_c, 0, 65, 88
4, 18869, Note_off_c, 0, 65, 0
4, 18870, Note_on_c, 0, 70, 88
4, 18899, Note_off_c, 0, 70, 0
4, 18900, Note_on_c, 0, 74, 88
4, 18929, Note_off_c, 0, 74, 0
4, 18930, Note_on_c, 0, 70, 88
4, 18945, Note_off_c, 0, 70, 0
4, 18960, Note_on_c, 0, 70, 88
4, 18989, Note_off_c, 0, 70, 0
4, 18990, Note_on_c, 0, 74, 88
4, 19019, Note_off_c, 0, 74, 0
4, 19020, Note_on_c, 0, 77, 88
4, 19049, Note_off_c, 0, 77, 0
4, 19050, Note_on_c, 0, 74, 88
4, 19079, Note_off_c, 0, 74, 0
4, 19080, Note_on_c, 0, 82, 88
4, 19196, Note_off_c, 0, 82, 0
4, 19196, End_track
5, 0, Start_track
5, 0, Title_t, "Track 2"
5, 0, Program_c, 1, 6
5, 9840, Note_on_c, 1, 68, 88
5, 9840, Note_on_c, 1, 70, 88
5, 9840, Note_on_c, 1, 74, 88
5, 10003, Note_off_c, 1, 68, 0
5, 10003, Note_off_c, 1, 70, 0
5, 10003, Note_off_c, 1, 74, 0
5, 10020, Note_on_c, 1, 68, 88
5, 10020, Note_on_c, 1, 70, 88
5, 10020, Note_on_c, 1, 74, 88
5, 10063, Note_off_c, 1, 74, 0
5, 10078, Note_off_c, 1, 68, 0
5, 10078, Note_off_c, 1, 70, 0
5, 10080, Note_on_c, 1, 67, 88
5, 10080, Note_on_c, 1, 71, 88
5, 10080, Note_on_c, 1, 74, 88
5, 10314, Note_off_c, 1, 67, 0
5, 10314, Note_off_c, 1, 71, 0
5, 10314, Note_off_c, 1, 74, 0
5, 11760, Note_on_c, 1, 67, 88
5, 11760, Note_on_c, 1, 72, 88
5, 11760, Note_on_c, 1, 75, 88
5, 11923, Note_off_c, 1, 67, 0
5, 11923, Note_off_c, 1, 72, 0
5, 11923, Note_off_c, 1, 75, 0
5, 11940, Note_on_c, 1, 67, 88
5, 11940, Note_on_c, 1, 70, 88
5, 11940, Note_on_c, 1, 72, 88
5, 11940, Note_on_c, 1, 75, 88
5, 11983, Note_off_c, 1, 72, 0
5, 11983, Note_off_c, 1, 75, 0
5, 11998, Note_off_c, 1, 67, 0
5, 11998, Note_off_c, 1, 70, 0
5, 12000, Note_on_c, 1, 65, 88
5, 12000, Note_on_c, 1, 69, 88
5, 12000, Note_on_c, 1, 72, 88
5, 12000, Note_on_c, 1, 75, 88
5, 12234, Note_off_c, 1, 65, 0
5, 12234, Note_off_c, 1, 69, 0
5, 12234, Note_off_c, 1, 72, 0
5, 12234, Note_off_c, 1, 75, 0
5, 13680, Note_on_c, 1, 65, 88
5, 13680, Note_on_c, 1, 68, 88
5, 13680, Note_on_c, 1, 70, 88
5, 13843, Note_off_c, 1, 65, 0
5, 13843, Note_off_c, 1, 68, 0
5, 13843, Note_off_c, 1, 70, 0
5, 13860, Note_on_c, 1, 65, 88
5, 13860, Note_on_c, 1, 68, 88
5, 13860, Note_on_c, 1, 70, 88
5, 13903, Note_off_c, 1, 70, 0
5, 13918, Note_off_c, 1, 65, 0
5, 13918, Note_off_c, 1, 68, 0
5, 13920, Note_on_c, 1, 63, 88
5, 13920, Note_on_c, 1, 67, 88
5, 13920, Note_on_c, 1, 70, 88
5, 14143, Note_off_c, 1, 67, 0
5, 14143, Note_off_c, 1, 70, 0
5, 14154, Note_off_c, 1, 63, 0
5, 14160, Note_on_c, 1, 67, 88
5, 14160, Note_on_c, 1, 70, 88
5, 14323, Note_off_c, 1, 67, 0
5, 14323, Note_off_c, 1, 70, 0
5, 14340, Note_on_c, 1, 67, 88
5, 14340, Note_on_c, 1, 70, 88
5, 14398, Note_off_c, 1, 67, 0
5, 14398, Note_off_c, 1, 70, 0
5, 14400, Note_on_c, 1, 65, 88
5, 14400, Note_on_c, 1, 69, 88
5, 14400, Note_on_c, 1, 72, 88
5, 14634, Note_off_c, 1, 65, 0
5, 14634, Note_off_c, 1, 69, 0
5, 14634, Note_off_c, 1, 72, 0
5, 15840, Note_on_c, 1, 65, 88
5, 15840, Note_on_c, 1, 70, 88
5, 15840, Note_on_c, 1, 72, 88
5, 16063, Note_off_c, 1, 65, 0
5, 16063, Note_off_c, 1, 72, 0
5, 16074, Note_off_c, 1, 70, 0
5, 16080, Note_on_c, 1, 65, 88
5, 16080, Note_on_c, 1, 69, 88
5, 16080, Note_on_c, 1, 72, 88
5, 16314, Note_off_c, 1, 65, 0
5, 16314, Note_off_c, 1, 69, 0
5, 16314, Note_off_c, 1, 72, 0
5, 16320, Note_on_c, 1, 65, 88
5, 16320, Note_on_c, 1, 70, 88
5, 16554, Note_off_c, 1, 65, 0
5, 16554, Note_off_c, 1, 70, 0
5, 16554, End_track
6, 0, Start_track
6, 0, Title_t, "Track 3"
6, 0, Program_c, 2, 6
6, 15840, Note_on_c, 2, 53, 88
6, 16063, Note_off_c, 2, 53, 0
6, 16080, Note_on_c, 2, 53, 88
6, 16196, Note_off_c, 2, 53, 0
6, 16200, Note_on_c, 2, 55, 88
6, 16316, Note_off_c, 2, 55, 0
6, 16320, Note_on_c, 2, 56, 88
6, 16554, Note_off_c, 2, 56, 0
6, 16554, End_track
7, 0, Start_track
7, 0, Title_t, "Track 4"
7, 0, Program_c, 3, 6
7, 0, Note_on_c, 3, 58, 88
7, 116, Note_off_c, 3, 58, 0
7, 120, Note_on_c, 3, 57, 88
7, 236, Note_off_c, 3, 57, 0
7, 240, Note_on_c, 3, 58, 88
7, 356, Note_off_c, 3, 58, 0
7, 360, Note_on_c, 3, 53, 88
7, 476, Note_off_c, 3, 53, 0
7, 480, Note_on_c, 3, 55, 88
7, 596, Note_off_c, 3, 55, 0
7, 600, Note_on_c, 3, 53, 88
7, 716, Note_off_c, 3, 53, 0
7, 720, Note_on_c, 3, 55, 88
7, 836, Note_off_c, 3, 55, 0
7, 840, Note_on_c, 3, 50, 88
7, 956, Note_off_c, 3, 50, 0
7, 960, Note_on_c, 3, 51, 88
7, 1076, Note_off_c, 3, 51, 0
7, 1080, Note_on_c, 3, 50, 88
7, 1196, Note_off_c, 3, 50, 0
7, 1200, Note_on_c, 3, 51, 88
7, 1316, Note_off_c, 3, 51, 0
7, 1320, Note_on_c, 3, 46, 88
7, 1436, Note_off_c, 3, 46, 0
7, 1440, Note_on_c, 3, 48, 88
7, 1556, Note_off_c, 3, 48, 0
7, 1560, Note_on_c, 3, 46, 88
7, 1676, Note_off_c, 3, 46, 0
7, 1680, Note_on_c, 3, 45, 88
7, 1796, Note_off_c, 3, 45, 0
7, 1800, Note_on_c, 3, 41, 88
7, 1916, Note_off_c, 3, 41, 0
7, 1920, Note_on_c, 3, 58, 88
7, 2036, Note_off_c, 3, 58, 0
7, 2040, Note_on_c, 3, 53, 88
7, 2156, Note_off_c, 3, 53, 0
7, 2160, Note_on_c, 3, 50, 88
7, 2276, Note_off_c, 3, 50, 0
7, 2280, Note_on_c, 3, 46, 88
7, 2396, Note_off_c, 3, 46, 0
7, 2400, Note_on_c, 3, 43, 88
7, 2429, Note_off_c, 3, 43, 0
7, 2880, Note_on_c, 3, 60, 88
7, 2996, Note_off_c, 3, 60, 0
7, 3000, Note_on_c, 3, 55, 88
7, 3116, Note_off_c, 3, 55, 0
7, 3120, Note_on_c, 3, 52, 88
7, 3236, Note_off_c, 3, 52, 0
7, 3240, Note_on_c, 3, 48, 88
7, 3356, Note_off_c, 3, 48, 0
7, 3360, Note_on_c, 3, 45, 88
7, 3389, Note_off_c, 3, 45, 0
7, 3840, Note_on_c, 3, 62, 88
7, 3956, Note_off_c, 3, 62, 0
7, 3960, Note_on_c, 3, 57, 88
7, 4076, Note_off_c, 3, 57, 0
7, 4080, Note_on_c, 3, 53, 88
7, 4196, Note_off_c, 3, 53, 0
7, 4200, Note_on_c, 3, 50, 88
7, 4316, Note_off_c, 3, 50, 0
7, 4320, Note_on_c, 3, 46, 88
7, 4436, Note_off_c, 3, 46, 0
7, 4440, Note_on_c, 3, 43, 88
7, 4556, Note_off_c, 3, 43, 0
7, 4560, Note_on_c, 3, 45, 88
7, 4676, Note_off_c, 3, 45, 0
7, 4680, Note_on_c, 3, 41, 88
7, 4796, Note_off_c, 3, 41, 0
7, 4800, Note_on_c, 3, 46, 88
7, 4916, Note_off_c, 3, 46, 0
7, 4920, Note_on_c, 3, 43, 88
7, 5036, Note_off_c, 3, 43, 0
7, 5040, Note_on_c, 3, 45, 88
7, 5156, Note_off_c, 3, 45, 0
7, 5160, Note_on_c, 3, 41, 88
7, 5276, Note_off_c, 3, 41, 0
7, 5280, Note_on_c, 3, 46, 88
7, 5396, Note_off_c, 3, 46, 0
7, 5400, Note_on_c, 3, 47, 88
7, 5516, Note_off_c, 3, 47, 0
7, 5520, Note_on_c, 3, 48, 88
7, 5636, Note_off_c, 3, 48, 0
7, 5640, Note_on_c, 3, 49, 88
7, 5756, Note_off_c, 3, 49, 0
7, 5760, Note_on_c, 3, 50, 88
7, 5876, Note_off_c, 3, 50, 0
7, 5880, Note_on_c, 3, 38, 88
7, 5996, Note_off_c, 3, 38, 0
7, 6000, Note_on_c, 3, 40, 88
7, 6116, Note_off_c, 3, 40, 0
7, 6120, Note_on_c, 3, 52, 88
7, 6236, Note_off_c, 3, 52, 0
7, 6240, Note_on_c, 3, 53, 88
7, 6356, Note_off_c, 3, 53, 0
7, 6360, Note_on_c, 3, 41, 88
7, 6476, Note_off_c, 3, 41, 0
7, 6480, Note_on_c, 3, 43, 88
7, 6596, Note_off_c, 3, 43, 0
7, 6600, Note_on_c, 3, 55, 88
7, 6716, Note_off_c, 3, 55, 0
7, 6720, Note_on_c, 3, 57, 88
7, 6749, Note_off_c, 3, 57, 0
7, 7680, Note_on_c, 3, 40, 88
7, 7796, Note_off_c, 3, 40, 0
7, 7800, Note_on_c, 3, 41, 88
7, 7916, Note_off_c, 3, 41, 0
7, 7920, Note_on_c, 3, 38, 88
7, 8036, Note_off_c, 3, 38, 0
7, 8040, Note_on_c, 3, 40, 88
7, 8156, Note_off_c, 3, 40, 0
7, 8160, Note_on_c, 3, 41, 88
7, 8276, Note_off_c, 3, 41, 0
7, 8280, Note_on_c, 3, 45, 88
7, 8396, Note_off_c, 3, 45, 0
7, 8400, Note_on_c, 3, 46, 88
7, 8516, Note_off_c, 3, 46, 0
7, 8520, Note_on_c, 3, 48, 88
7, 8636, Note_off_c, 3, 48, 0
7, 8640, Note_on_c, 3, 41, 88
7, 8756, Note_off_c, 3, 41, 0
7, 9600, Note_on_c, 3, 38, 88
7, 9716, Note_off_c, 3, 38, 0
7, 9840, Note_on_c, 3, 50, 88
7, 9840, Note_on_c, 3, 53, 88
7, 9840, Note_on_c, 3, 58, 88
7, 9840, Note_on_c, 3, 62, 88
7, 10003, Note_off_c, 3, 50, 0
7, 10003, Note_off_c, 3, 53, 0
7, 10003, Note_off_c, 3, 58, 0
7, 10003, Note_off_c, 3, 62, 0
7, 10020, Note_on_c, 3, 50, 88
7, 10020, Note_on_c, 3, 53, 88
7, 10020, Note_on_c, 3, 58, 88
7, 10020, Note_on_c, 3, 62, 88
7, 10063, Note_off_c, 3, 50, 0
7, 10078, Note_off_c, 3, 53, 0
7, 10078, Note_off_c, 3, 58, 0
7, 10078, Note_off_c, 3, 62, 0
7, 10080, Note_on_c, 3, 47, 88
7, 10080, Note_on_c, 3, 50, 88
7, 10080, Note_on_c, 3, 55, 88
7, 10314, Note_off_c, 3, 47, 0
7, 10314, Note_off_c, 3, 50, 0
7, 10314, Note_off_c, 3, 55, 0
7, 11520, Note_on_c, 3, 36, 88
7, 11636, Note_off_c, 3, 36, 0
7, 11760, Note_on_c, 3, 36, 88
7, 11760, Note_on_c, 3, 51, 88
7, 11760, Note_on_c, 3, 55, 88
7, 11760, Note_on_c, 3, 60, 88
7, 11923, Note_off_c, 3, 36, 0
7, 11923, Note_off_c, 3, 51, 0
7, 11923, Note_off_c, 3, 55, 0
7, 11923, Note_off_c, 3, 60, 0
7, 11940, Note_on_c, 3, 36, 88
7, 11940, Note_on_c, 3, 51, 88
7, 11940, Note_on_c, 3, 55, 88
7, 11940, Note_on_c, 3, 60, 88
7, 11983, Note_off_c, 3, 60, 0
7, 11998, Note_off_c, 3, 36, 0
7, 11998, Note_off_c, 3, 51, 0
7, 11998, Note_off_c, 3, 55, 0
7, 12000, Note_on_c, 3, 53, 88
7, 12000, Note_on_c, 3, 57, 88
7, 12000, Note_on_c, 3, 60, 88
7, 12234, Note_off_c, 3, 53, 0
7, 12234, Note_off_c, 3, 57, 0
7, 12234, Note_off_c, 3, 60, 0
7, 13680, Note_on_c, 3, 46, 88
7, 13680, Note_on_c, 3, 50, 88
7, 13680, Note_on_c, 3, 53, 88
7, 13680, Note_on_c, 3, 58, 88
7, 13843, Note_off_c, 3, 46, 0
7, 13843, Note_off_c, 3, 50, 0
7, 13843, Note_off_c, 3, 53, 0
7, 13843, Note_off_c, 3, 58, 0
7, 13860, Note_on_c, 3, 46, 88
7, 13860, Note_on_c, 3, 50, 88
7, 13860, Note_on_c, 3, 53, 88
7, 13860, Note_on_c, 3, 58, 88
7, 13903, Note_off_c, 3, 58, 0
7, 13918, Note_off_c, 3, 46, 0
7, 13918, Note_off_c, 3, 50, 0
7, 13918, Note_off_c, 3, 53, 0
7, 13920, Note_on_c, 3, 51, 88
7, 13920, Note_on_c, 3, 55, 88
7, 13920, Note_on_c, 3, 58, 88
7, 14143, Note_off_c, 3, 55, 0
7, 14143, Note_off_c, 3, 58, 0
7, 14154, Note_off_c, 3, 51, 0
7, 14160, Note_on_c, 3, 52, 88
7, 14160, Note_on_c, 3, 55, 88
7, 14160, Note_on_c, 3, 58, 88
7, 14323, Note_off_c, 3, 52, 0
7, 14323, Note_off_c, 3, 55, 0
7, 14335, Note_off_c, 3, 58, 0
7, 14340, Note_on_c, 3, 52, 88
7, 14340, Note_on_c, 3, 55, 88
7, 14340, Note_on_c, 3, 60, 88
7, 14398, Note_off_c, 3, 52, 0
7, 14398, Note_off_c, 3, 55, 0
7, 14398, Note_off_c, 3, 60, 0
7, 14400, Note_on_c, 3, 53, 88
7, 14400, Note_on_c, 3, 57, 88
7, 14400, Note_on_c, 3, 60, 88
7, 14400, Note_on_c, 3, 63, 88
7, 14634, Note_off_c, 3, 53, 0
7, 14634, Note_off_c, 3, 57, 0
7, 14634, Note_off_c, 3, 60, 0
7, 14634, Note_off_c, 3, 63, 0
7, 15840, Note_on_c, 3, 41, 88
7, 15840, Note_on_c, 3, 48, 88
7, 15840, Note_on_c, 3, 51, 88
7, 16063, Note_off_c, 3, 41, 0
7, 16063, Note_off_c, 3, 48, 0
7, 16063, Note_off_c, 3, 51, 0
7, 16080, Note_on_c, 3, 41, 88
7, 16080, Note_on_c, 3, 48, 88
7, 16080, Note_on_c, 3, 51, 88
7, 16314, Note_off_c, 3, 41, 0
7, 16314, Note_off_c, 3, 48, 0
7, 16314, Note_off_c, 3, 51, 0
7, 16320, Note_on_c, 3, 46, 88
7, 16320, Note_on_c, 3, 50, 88
7, 16320, Note_on_c, 3, 53, 88
7, 16554, Note_off_c, 3, 46, 0
7, 16554, Note_off_c, 3, 50, 0
7, 16554, Note_off_c, 3, 53, 0
7, 17280, Note_on_c, 3, 55, 88
7, 17396, Note_off_c, 3, 55, 0
7, 18240, Note_on_c, 3, 46, 88
7, 18356, Note_off_c, 3, 46, 0
7, 18360, Note_on_c, 3, 50, 88
7, 18476, Note_off_c, 3, 50, 0
7, 18480, Note_on_c, 3, 53, 88
7, 18596, Note_off_c, 3, 53, 0
7, 18600, Note_on_c, 3, 58, 88
7, 18716, Note_off_c, 3, 58, 0
7, 18720, Note_on_c, 3, 62, 88
7, 18836, Note_off_c, 3, 62, 0
7, 18840, Note_on_c, 3, 65, 88
7, 18956, Note_off_c, 3, 65, 0
7, 18960, Note_on_c, 3, 70, 88
7, 19076, Note_off_c, 3, 70, 0
7, 19076, End_track
0, 0, End_of_file
