0, 0, Header, 1, 8, 240
1, 0, Start_track
1, 0, Time_signature, 4, 2, 24, 8
1, 0, Tempo, 1304347
1, 0, SMPTE_offset, 64, 0, 0, 0, 93
1, 0, End_track
2, 0, Start_track
2, 0, Title_t, "(C) & (P) 1993"
2, 127, End_track
3, 0, Start_track
3, 0, Title_t, "CCARH,Stanford"
3, 0, End_track
4, 0, Start_track
4, 0, Title_t, "Track 1"
4, 0, Program_c, 0, 6
4, 120, Note_on_c, 0, 70, 88
4, 178, Note_off_c, 0, 70, 0
4, 180, Note_on_c, 0, 72, 88
4, 238, Note_off_c, 0, 72, 0
4, 240, Note_on_c, 0, 73, 88
4, 353, Note_off_c, 0, 73, 0
4, 360, Note_on_c, 0, 73, 88
4, 473, Note_off_c, 0, 73, 0
4, 480, Note_on_c, 0, 73, 88
4, 596, Note_off_c, 0, 73, 0
4, 600, Note_on_c, 0, 72, 88
4, 658, Note_off_c, 0, 72, 0
4, 660, Note_on_c, 0, 73, 88
4, 718, Note_off_c, 0, 73, 0
4, 720, Note_on_c, 0, 75, 88
4, 833, Note_off_c, 0, 75, 0
4, 840, Note_on_c, 0, 75, 88
4, 956, Note_off_c, 0, 75, 0
4, 960, Note_on_c, 0, 75, 88
4, 1076, Note_off_c, 0, 75, 0
4, 1080, Note_on_c, 0, 73, 88
4, 1138, Note_off_c, 0, 73, 0
4, 1140, Note_on_c, 0, 75, 88
4, 1198, Note_off_c, 0, 75, 0
4, 1200, Note_on_c, 0, 77, 88
4, 1313, Note_off_c, 0, 77, 0
4, 1320, Note_on_c, 0, 77, 88
4, 1433, Note_off_c, 0, 77, 0
4, 1440, Note_on_c, 0, 77, 88
4, 1556, Note_off_c, 0, 77, 0
4, 1560, Note_on_c, 0, 75, 88
4, 1618, Note_off_c, 0, 75, 0
4, 1620, Note_on_c, 0, 77, 88
4, 1678, Note_off_c, 0, 77, 0
4, 1680, Note_on_c, 0, 78, 88
4, 1793, Note_off_c, 0, 78, 0
4, 1800, Note_on_c, 0, 78, 88
4, 1916, Note_off_c, 0, 78, 0
4, 1920, Note_on_c, 0, 78, 88
4, 2036, Note_off_c, 0, 78, 0
4, 2040, Note_on_c, 0, 77, 88
4, 2098, Note_off_c, 0, 77, 0
4, 2100, Note_on_c, 0, 75, 88
4, 2158, Note_off_c, 0, 75, 0
4, 2160, Note_on_c, 0, 77, 88
4, 2273, Note_off_c, 0, 77, 0
4, 2280, Note_on_c, 0, 77, 88
4, 2514, Note_off_c, 0, 77, 0
4, 2520, Note_on_c, 0, 75, 88
4, 2578, Note_off_c, 0, 75, 0
4, 2580, Note_on_c, 0, 73, 88
4, 2638, Note_off_c, 0, 73, 0
4, 2640, Note_on_c, 0, 72, 88
4, 2756, Note_off_c, 0, 72, 0
4, 2760, Note_on_c, 0, 73, 88
4, 2818, Note_off_c, 0, 73, 0
4, 2820, Note_on_c, 0, 75, 88
4, 2878, Note_off_c, 0, 75, 0
4, 2880, Note_on_c, 0, 69, 88
4, 2996, Note_off_c, 0, 69, 0
4, 3000, Note_on_c, 0, 77, 88
4, 3234, Note_off_c, 0, 77, 0
4, 3240, Note_on_c, 0, 79, 88
4, 3298, Note_off_c, 0, 79, 0
4, 3300, Note_on_c, 0, 81, 88
4, 3358, Note_off_c, 0, 81, 0
4, 3360, Note_on_c, 0, 82, 88
4, 3713, Note_off_c, 0, 82, 0
4, 3720, Note_on_c, 0, 81, 88
4, 3778, Note_off_c, 0, 81, 0
4, 3780, Note_on_c, 0, 82, 88
4, 3838, Note_off_c, 0, 82, 0
4, 3840, Note_on_c, 0, 84, 88
4, 4193, Note_off_c, 0, 84, 0
4, 4200, Note_on_c, 0, 84, 88
4, 4258, Note_off_c, 0, 84, 0
4, 4260, Note_on_c, 0, 82, 88
4, 4318, Note_off_c, 0, 82, 0
4, 4320, Note_on_c, 0, 81, 88
4, 4673, Note_off_c, 0, 81, 0
4, 4680, Note_on_c, 0, 81, 88
4, 4738, Note_off_c, 0, 81, 0
4, 4740, Note_on_c, 0, 84, 88
4, 4798, Note_off_c, 0, 84, 0
4, 4800, Note_on_c, 0, 77, 88
4, 5873, Note_off_c, 0, 77, 0
4, 5880, Note_on_c, 0, 77, 88
4, 5938, Note_off_c, 0, 77, 0
4, 5940, Note_on_c, 0, 75, 88
4, 5998, Note_off_c, 0, 75, 0
4, 6000, Note_on_c, 0, 73, 88
4, 6116, Note_off_c, 0, 73, 0
4, 6120, Note_on_c, 0, 75, 88
4, 6178, Note_off_c, 0, 75, 0
4, 6180, Note_on_c, 0, 72, 88
4, 6238, Note_off_c, 0, 72, 0
4, 6240, Note_on_c, 0, 73, 88
4, 6356, Note_off_c, 0, 73, 0
4, 6360, Note_on_c, 0, 70, 88
4, 6418, Note_off_c, 0, 70, 0
4, 6420, Note_on_c, 0, 72, 88
4, 6478, Note_off_c, 0, 72, 0
4, 6480, Note_on_c, 0, 73, 88
4, 6593, Note_off_c, 0, 73, 0
4, 6600, Note_on_c, 0, 73, 88
4, 6716, Note_off_c, 0, 73, 0
4, 6720, Note_on_c, 0, 73, 88
4, 6836, Note_off_c, 0, 73, 0
4, 6840, Note_on_c, 0, 72, 88
4, 6898, Note_off_c, 0, 72, 0
4, 6900, Note_on_c, 0, 70, 88
4, 6958, Note_off_c, 0, 70, 0
4, 6960, Note_on_c, 0, 72, 88
4, 7073, Note_off_c, 0, 72, 0
4, 7080, Note_on_c, 0, 72, 88
4, 7193, Note_off_c, 0, 72, 0
4, 7200, Note_on_c, 0, 72, 88
4, 7316, Note_off_c, 0, 72, 0
4, 7320, Note_on_c, 0, 70, 88
4, 7378, Note_off_c, 0, 70, 0
4, 7380, Note_on_c, 0, 68, 88
4, 7438, Note_off_c, 0, 68, 0
4, 7440, Note_on_c, 0, 70, 88
4, 7553, Note_off_c, 0, 70, 0
4, 7560, Note_on_c, 0, 70, 88
4, 7676, Note_off_c, 0, 70, 0
4, 7680, Note_on_c, 0, 70, 88
4, 7796, Note_off_c, 0, 70, 0
4, 7800, Note_on_c, 0, 68, 88
4, 7858, Note_off_c, 0, 68, 0
4, 7860, Note_on_c, 0, 67, 88
4, 7918, Note_off_c, 0, 67, 0
4, 7920, Note_on_c, 0, 68, 88
4, 8033, Note_off_c, 0, 68, 0
4, 8040, Note_on_c, 0, 68, 88
4, 8153, Note_off_c, 0, 68, 0
4, 8160, Note_on_c, 0, 68, 88
4, 8276, Note_off_c, 0, 68, 0
4, 8280, Note_on_c, 0, 67, 88
4, 8338, Note_off_c, 0, 67, 0
4, 8340, Note_on_c, 0, 68, 88
4, 8398, Note_off_c, 0, 68, 0
4, 8400, Note_on_c, 0, 70, 88
4, 8516, Note_off_c, 0, 70, 0
4, 8520, Note_on_c, 0, 67, 88
4, 8636, Note_off_c, 0, 67, 0
4, 8640, Note_on_c, 0, 64, 88
4, 8756, Note_off_c, 0, 64, 0
4, 8760, Note_on_c, 0, 72, 88
4, 8994, Note_off_c, 0, 72, 0
4, 9000, Note_on_c, 0, 70, 88
4, 9058, Note_off_c, 0, 70, 0
4, 9060, Note_on_c, 0, 68, 88
4, 9118, Note_off_c, 0, 68, 0
4, 9120, Note_on_c, 0, 70, 88
4, 9233, Note_off_c, 0, 70, 0
4, 9240, Note_on_c, 0, 70, 88
4, 9474, Note_off_c, 0, 70, 0
4, 9480, Note_on_c, 0, 68, 88
4, 9538, Note_off_c, 0, 68, 0
4, 9540, Note_on_c, 0, 67, 88
4, 9598, Note_off_c, 0, 67, 0
4, 9600, Note_on_c, 0, 68, 88
4, 9713, Note_off_c, 0, 68, 0
4, 9720, Note_on_c, 0, 68, 88
4, 9954, Note_off_c, 0, 68, 0
4, 9960, Note_on_c, 0, 66, 88
4, 10018, Note_off_c, 0, 66, 0
4, 10020, Note_on_c, 0, 65, 88
4, 10078, Note_off_c, 0, 65, 0
4, 10080, Note_on_c, 0, 66, 88
4, 10196, Note_off_c, 0, 66, 0
4, 10200, Note_on_c, 0, 73, 88
4, 10434, Note_off_c, 0, 73, 0
4, 10440, Note_on_c, 0, 72, 88
4, 10498, Note_off_c, 0, 72, 0
4, 10500, Note_on_c, 0, 70, 88
4, 10558, Note_off_c, 0, 70, 0
4, 10560, Note_on_c, 0, 76, 88
4, 10676, Note_off_c, 0, 76, 0
4, 10680, Note_on_c, 0, 72, 88
4, 10796, Note_off_c, 0, 72, 0
4, 10800, Note_on_c, 0, 77, 88
4, 11270, Note_off_c, 0, 77, 0
4, 11280, Note_on_c, 0, 76, 88
4, 11514, Note_off_c, 0, 76, 0
4, 11520, Note_on_c, 0, 77, 88
4, 11754, Note_off_c, 0, 77, 0
4, 11880, Note_on_c, 0, 77, 88
4, 11938, Note_off_c, 0, 77, 0
4, 11940, Note_on_c, 0, 75, 88
4, 11998, Note_off_c, 0, 75, 0
4, 12000, Note_on_c, 0, 74, 88
4, 12234, Note_off_c, 0, 74, 0
4, 12360, Note_on_c, 0, 75, 88
4, 12418, Note_off_c, 0, 75, 0
4, 12420, Note_on_c, 0, 77, 88
4, 12478, Note_off_c, 0, 77, 0
4, 12480, Note_on_c, 0, 78, 88
4, 12714, Note_off_c, 0, 78, 0
4, 12840, Note_on_c, 0, 75, 88
4, 12898, Note_off_c, 0, 75, 0
4, 12900, Note_on_c, 0, 73, 88
4, 12958, Note_off_c, 0, 73, 0
4, 12960, Note_on_c, 0, 72, 88
4, 13194, Note_off_c, 0, 72, 0
4, 13320, Note_on_c, 0, 73, 88
4, 13378, Note_off_c, 0, 73, 0
4, 13380, Note_on_c, 0, 75, 88
4, 13438, Note_off_c, 0, 75, 0
4, 13440, Note_on_c, 0, 77, 88
4, 13674, Note_off_c, 0, 77, 0
4, 13800, Note_on_c, 0, 73, 88
4, 13858, Note_off_c, 0, 73, 0
4, 13860, Note_on_c, 0, 72, 88
4, 13918, Note_off_c, 0, 72, 0
4, 13920, Note_on_c, 0, 70, 88
4, 14033, Note_off_c, 0, 70, 0
4, 14040, Note_on_c, 0, 70, 88
4, 14156, Note_off_c, 0, 70, 0
4, 14160, Note_on_c, 0, 78, 88
4, 14273, Note_off_c, 0, 78, 0
4, 14280, Note_on_c, 0, 78, 88
4, 14338, Note_off_c, 0, 78, 0
4, 14340, Note_on_c, 0, 77, 88
4, 14398, Note_off_c, 0, 77, 0
4, 14400, Note_on_c, 0, 75, 88
4, 14513, Note_off_c, 0, 75, 0
4, 14520, Note_on_c, 0, 75, 88
4, 14636, Note_off_c, 0, 75, 0
4, 14640, Note_on_c, 0, 84, 88
4, 14753, Note_off_c, 0, 84, 0
4, 14760, Note_on_c, 0, 84, 88
4, 14818, Note_off_c, 0, 84, 0
4, 14820, Note_on_c, 0, 82, 88
4, 14878, Note_off_c, 0, 82, 0
4, 14880, Note_on_c, 0, 81, 88
4, 14993, Note_off_c, 0, 81, 0
4, 15000, Note_on_c, 0, 81, 88
4, 15116, Note_off_c, 0, 81, 0
4, 15120, Note_on_c, 0, 82, 88
4, 15233, Note_off_c, 0, 82, 0
4, 15240, Note_on_c, 0, 82, 88
4, 15298, Note_off_c, 0, 82, 0
4, 15300, Note_on_c, 0, 80, 88
4, 15358, Note_off_c, 0, 80, 0
4, 15360, Note_on_c, 0, 78, 88
4, 15473, Note_off_c, 0, 78, 0
4, 15480, Note_on_c, 0, 78, 88
4, 15593, Note_off_c, 0, 78, 0
4, 15600, Note_on_c, 0, 78, 88
4, 15713, Note_off_c, 0, 78, 0
4, 15720, Note_on_c, 0, 78, 88
4, 15833, Note_off_c, 0, 78, 0
4, 15840, Note_on_c, 0, 78, 88
4, 15956, Note_off_c, 0, 78, 0
4, 15960, Note_on_c, 0, 77, 88
4, 16073, Note_off_c, 0, 77, 0
4, 16080, Note_on_c, 0, 77, 88
4, 16196, Note_off_c, 0, 77, 0
4, 16200, Note_on_c, 0, 78, 88
4, 16258, Note_off_c, 0, 78, 0
4, 16260, Note_on_c, 0, 77, 88
4, 16318, Note_off_c, 0, 77, 0
4, 16320, Note_on_c, 0, 75, 88
4, 16433, Note_off_c, 0, 75, 0
4, 16440, Note_on_c, 0, 75, 88
4, 16498, Note_off_c, 0, 75, 0
4, 16500, Note_on_c, 0, 73, 88
4, 16558, Note_off_c, 0, 73, 0
4, 16560, Note_on_c, 0, 72, 88
4, 16673, Note_off_c, 0, 72, 0
4, 16680, Note_on_c, 0, 72, 88
4, 16738, Note_off_c, 0, 72, 0
4, 16740, Note_on_c, 0, 73, 88
4, 16798, Note_off_c, 0, 73, 0
4, 16800, Note_on_c, 0, 75, 88
4, 16916, Note_off_c, 0, 75, 0
4, 16920, Note_on_c, 0, 72, 88
4, 16978, Note_off_c, 0, 72, 0
4, 16980, Note_on_c, 0, 73, 88
4, 17038, Note_off_c, 0, 73, 0
4, 17040, Note_on_c, 0, 75, 88
4, 17156, Note_off_c, 0, 75, 0
4, 17160, Note_on_c, 0, 73, 88
4, 17218, Note_off_c, 0, 73, 0
4, 17220, Note_on_c, 0, 72, 88
4, 17278, Note_off_c, 0, 72, 0
4, 17280, Note_on_c, 0, 73, 88
4, 17870, Note_off_c, 0, 73, 0
4, 17880, Note_on_c, 0, 78, 88
4, 17938, Note_off_c, 0, 78, 0
4, 17940, Note_on_c, 0, 77, 88
4, 17998, Note_off_c, 0, 77, 0
4, 18000, Note_on_c, 0, 75, 88
4, 18058, Note_off_c, 0, 75, 0
4, 18060, Note_on_c, 0, 73, 88
4, 18118, Note_off_c, 0, 73, 0
4, 18120, Note_on_c, 0, 72, 88
4, 18178, Note_off_c, 0, 72, 0
4, 18180, Note_on_c, 0, 70, 88
4, 18238, Note_off_c, 0, 70, 0
4, 18240, Note_on_c, 0, 69, 88
4, 18356, Note_off_c, 0, 69, 0
4, 18360, Note_on_c, 0, 65, 88
4, 18418, Note_off_c, 0, 65, 0
4, 18420, Note_on_c, 0, 67, 88
4, 18478, Note_off_c, 0, 67, 0
4, 18480, Note_on_c, 0, 69, 88
4, 18593, Note_off_c, 0, 69, 0
4, 18600, Note_on_c, 0, 69, 88
4, 18713, Note_off_c, 0, 69, 0
4, 18720, Note_on_c, 0, 69, 88
4, 18836, Note_off_c, 0, 69, 0
4, 18840, Note_on_c, 0, 67, 88
4, 18898, Note_off_c, 0, 67, 0
4, 18900, Note_on_c, 0, 69, 88
4, 18958, Note_off_c, 0, 69, 0
4, 18960, Note_on_c, 0, 70, 88
4, 19073, Note_off_c, 0, 70, 0
4, 19080, Note_on_c, 0, 70, 88
4, 19196, Note_off_c, 0, 70, 0
4, 19200, Note_on_c, 0, 70, 88
4, 19316, Note_off_c, 0, 70, 0
4, 19320, Note_on_c, 0, 69, 88
4, 19378, Note_off_c, 0, 69, 0
4, 19380, Note_on_c, 0, 70, 88
4, 19438, Note_off_c, 0, 70, 0
4, 19440, Note_on_c, 0, 72, 88
4, 19553, Note_off_c, 0, 72, 0
4, 19560, Note_on_c, 0, 72, 88
4, 19673, Note_off_c, 0, 72, 0
4, 19680, Note_on_c, 0, 72, 88
4, 19796, Note_off_c, 0, 72, 0
4, 19800, Note_on_c, 0, 70, 88
4, 19858, Note_off_c, 0, 70, 0
4, 19860, Note_on_c, 0, 72, 88
4, 19918, Note_off_c, 0, 72, 0
4, 19920, Note_on_c, 0, 73, 88
4, 20033, Note_off_c, 0, 73, 0
4, 20040, Note_on_c, 0, 73, 88
4, 20156, Note_off_c, 0, 73, 0
4, 20160, Note_on_c, 0, 73, 88
4, 20276, Note_off_c, 0, 73, 0
4, 20280, Note_on_c, 0, 72, 88
4, 20338, Note_off_c, 0, 72, 0
4, 20340, Note_on_c, 0, 73, 88
4, 20398, Note_off_c, 0, 73, 0
4, 20400, Note_on_c, 0, 75, 88
4, 20513, Note_off_c, 0, 75, 0
4, 20520, Note_on_c, 0, 75, 88
4, 20578, Note_off_c, 0, 75, 0
4, 20580, Note_on_c, 0, 77, 88
4, 20638, Note_off_c, 0, 77, 0
4, 20640, Note_on_c, 0, 78, 88
4, 20874, Note_off_c, 0, 78, 0
4, 21000, Note_on_c, 0, 77, 88
4, 21116, Note_off_c, 0, 77, 0
4, 21120, Note_on_c, 0, 73, 88
4, 21236, Note_off_c, 0, 73, 0
4, 21240, Note_on_c, 0, 75, 88
4, 21298, Note_off_c, 0, 75, 0
4, 21300, Note_on_c, 0, 72, 88
4, 21358, Note_off_c, 0, 72, 0
4, 21360, Note_on_c, 0, 73, 88
4, 21476, Note_off_c, 0, 73, 0
4, 21480, Note_on_c, 0, 72, 88
4, 21538, Note_off_c, 0, 72, 0
4, 21540, Note_on_c, 0, 70, 88
4, 21593, Note_off_c, 0, 70, 0
4, 21600, Note_on_c, 0, 70, 88
4, 23025, Note_off_c, 0, 70, 0
4, 23025, End_track
5, 0, Start_track
5, 0, Title_t, "Track 2"
5, 0, Program_c, 1, 6
5, 240, Note_on_c, 1, 70, 88
5, 353, Note_off_c, 1, 70, 0
5, 360, Note_on_c, 1, 70, 88
5, 473, Note_off_c, 1, 70, 0
5, 480, Note_on_c, 1, 70, 88
5, 596, Note_off_c, 1, 70, 0
5, 600, Note_on_c, 1, 69, 88
5, 658, Note_off_c, 1, 69, 0
5, 660, Note_on_c, 1, 70, 88
5, 718, Note_off_c, 1, 70, 0
5, 720, Note_on_c, 1, 72, 88
5, 833, Note_off_c, 1, 72, 0
5, 840, Note_on_c, 1, 69, 88
5, 840, Note_on_c, 1, 72, 88
5, 956, Note_off_c, 1, 69, 0
5, 956, Note_off_c, 1, 72, 0
5, 960, Note_on_c, 1, 72, 88
5, 1076, Note_off_c, 1, 72, 0
5, 1080, Note_on_c, 1, 70, 88
5, 1138, Note_off_c, 1, 70, 0
5, 1140, Note_on_c, 1, 72, 88
5, 1198, Note_off_c, 1, 72, 0
5, 1200, Note_on_c, 1, 73, 88
5, 1313, Note_off_c, 1, 73, 0
5, 1320, Note_on_c, 1, 70, 88
5, 1320, Note_on_c, 1, 73, 88
5, 1433, Note_off_c, 1, 73, 0
5, 1436, Note_off_c, 1, 70, 0
5, 1440, Note_on_c, 1, 73, 88
5, 1556, Note_off_c, 1, 73, 0
5, 1560, Note_on_c, 1, 72, 88
5, 1618, Note_off_c, 1, 72, 0
5, 1620, Note_on_c, 1, 73, 88
5, 1678, Note_off_c, 1, 73, 0
5, 1680, Note_on_c, 1, 75, 88
5, 1793, Note_off_c, 1, 75, 0
5, 1800, Note_on_c, 1, 75, 88
5, 1916, Note_off_c, 1, 75, 0
5, 1920, Note_on_c, 1, 75, 88
5, 2036, Note_off_c, 1, 75, 0
5, 2040, Note_on_c, 1, 73, 88
5, 2156, Note_off_c, 1, 73, 0
5, 10920, Note_on_c, 1, 72, 88
5, 11036, Note_off_c, 1, 72, 0
5, 11040, Note_on_c, 1, 73, 88
5, 11156, Note_off_c, 1, 73, 0
5, 11160, Note_on_c, 1, 70, 88
5, 11276, Note_off_c, 1, 70, 0
5, 11400, Note_on_c, 1, 72, 88
5, 11516, Note_off_c, 1, 72, 0
5, 11520, Note_on_c, 1, 72, 88
5, 11633, Note_off_c, 1, 72, 0
5, 11640, Note_on_c, 1, 72, 88
5, 11698, Note_off_c, 1, 72, 0
5, 11700, Note_on_c, 1, 70, 88
5, 11758, Note_off_c, 1, 70, 0
5, 11760, Note_on_c, 1, 72, 88
5, 11994, Note_off_c, 1, 72, 0
5, 18600, Note_on_c, 1, 65, 88
5, 18713, Note_off_c, 1, 65, 0
5, 18720, Note_on_c, 1, 65, 88
5, 18836, Note_off_c, 1, 65, 0
5, 18840, Note_on_c, 1, 64, 88
5, 18898, Note_off_c, 1, 64, 0
5, 18900, Note_on_c, 1, 65, 88
5, 18958, Note_off_c, 1, 65, 0
5, 18960, Note_on_c, 1, 67, 88
5, 19073, Note_off_c, 1, 67, 0
5, 19080, Note_on_c, 1, 67, 88
5, 19196, Note_off_c, 1, 67, 0
5, 19200, Note_on_c, 1, 67, 88
5, 19316, Note_off_c, 1, 67, 0
5, 19320, Note_on_c, 1, 65, 88
5, 19378, Note_off_c, 1, 65, 0
5, 19380, Note_on_c, 1, 67, 88
5, 19438, Note_off_c, 1, 67, 0
5, 19440, Note_on_c, 1, 69, 88
5, 19553, Note_off_c, 1, 69, 0
5, 19560, Note_on_c, 1, 69, 88
5, 19673, Note_off_c, 1, 69, 0
5, 19680, Note_on_c, 1, 69, 88
5, 19796, Note_off_c, 1, 69, 0
5, 19800, Note_on_c, 1, 67, 88
5, 19858, Note_off_c, 1, 67, 0
5, 19860, Note_on_c, 1, 69, 88
5, 19918, Note_off_c, 1, 69, 0
5, 19920, Note_on_c, 1, 70, 88
5, 20033, Note_off_c, 1, 70, 0
5, 20040, Note_on_c, 1, 70, 88
5, 20156, Note_off_c, 1, 70, 0
5, 20160, Note_on_c, 1, 70, 88
5, 20276, Note_off_c, 1, 70, 0
5, 20280, Note_on_c, 1, 69, 88
5, 20338, Note_off_c, 1, 69, 0
5, 20340, Note_on_c, 1, 70, 88
5, 20398, Note_off_c, 1, 70, 0
5, 20400, Note_on_c, 1, 72, 88
5, 20513, Note_off_c, 1, 72, 0
5, 20520, Note_on_c, 1, 72, 88
5, 20578, Note_off_c, 1, 72, 0
5, 20580, Note_on_c, 1, 73, 88
5, 20638, Note_off_c, 1, 73, 0
5, 20640, Note_on_c, 1, 75, 88
5, 20874, Note_off_c, 1, 75, 0
5, 21000, Note_on_c, 1, 72, 88
5, 21116, Note_off_c, 1, 72, 0
5, 21120, Note_on_c, 1, 70, 88
5, 21233, Note_off_c, 1, 70, 0
5, 21240, Note_on_c, 1, 70, 88
5, 21353, Note_off_c, 1, 70, 0
5, 21360, Note_on_c, 1, 70, 88
5, 21476, Note_off_c, 1, 70, 0
5, 21480, Note_on_c, 1, 69, 88
5, 21596, Note_off_c, 1, 69, 0
5, 21600, Note_on_c, 1, 70, 88
5, 21716, Note_off_c, 1, 70, 0
5, 21720, Note_on_c, 1, 65, 88
5, 21778, Note_off_c, 1, 65, 0
5, 21780, Note_on_c, 1, 66, 88
5, 21838, Note_off_c, 1, 66, 0
5, 21840, Note_on_c, 1, 68, 88
5, 21953, Note_off_c, 1, 68, 0
5, 21960, Note_on_c, 1, 68, 88
5, 22076, Note_off_c, 1, 68, 0
5, 22080, Note_on_c, 1, 68, 88
5, 22196, Note_off_c, 1, 68, 0
5, 22200, Note_on_c, 1, 66, 88
5, 22434, Note_off_c, 1, 66, 0
5, 22440, Note_on_c, 1, 65, 88
5, 22498, Note_off_c, 1, 65, 0
5, 22500, Note_on_c, 1, 63, 88
5, 22558, Note_off_c, 1, 63, 0
5, 22560, Note_on_c, 1, 65, 88
5, 23030, Note_off_c, 1, 65, 0
5, 23030, End_track
6, 0, Start_track
6, 0, Title_t, "Track 3"
6, 0, Program_c, 2, 6
6, 120, Note_on_c, 2, 65, 88
6, 236, Note_off_c, 2, 65, 0
6, 360, Note_on_c, 2, 65, 88
6, 476, Note_off_c, 2, 65, 0
6, 480, Note_on_c, 2, 66, 88
6, 714, Note_off_c, 2, 66, 0
6, 840, Note_on_c, 2, 63, 88
6, 840, Note_on_c, 2, 66, 88
6, 956, Note_off_c, 2, 63, 0
6, 956, Note_off_c, 2, 66, 0
6, 960, Note_on_c, 2, 65, 88
6, 1194, Note_off_c, 2, 65, 0
6, 1320, Note_on_c, 2, 65, 88
6, 1436, Note_off_c, 2, 65, 0
6, 1440, Note_on_c, 2, 69, 88
6, 1674, Note_off_c, 2, 69, 0
6, 1800, Note_on_c, 2, 69, 88
6, 1916, Note_off_c, 2, 69, 0
6, 1920, Note_on_c, 2, 70, 88
6, 2154, Note_off_c, 2, 70, 0
6, 2280, Note_on_c, 2, 73, 88
6, 2396, Note_off_c, 2, 73, 0
6, 2400, Note_on_c, 2, 70, 88
6, 2634, Note_off_c, 2, 70, 0
6, 2760, Note_on_c, 2, 70, 88
6, 2876, Note_off_c, 2, 70, 0
6, 2880, Note_on_c, 2, 65, 88
6, 2996, Note_off_c, 2, 65, 0
6, 3000, Note_on_c, 2, 70, 88
6, 3058, Note_off_c, 2, 70, 0
6, 3060, Note_on_c, 2, 72, 88
6, 3118, Note_off_c, 2, 72, 0
6, 3120, Note_on_c, 2, 73, 88
6, 3473, Note_off_c, 2, 73, 0
6, 3480, Note_on_c, 2, 72, 88
6, 3538, Note_off_c, 2, 72, 0
6, 3540, Note_on_c, 2, 73, 88
6, 3598, Note_off_c, 2, 73, 0
6, 3600, Note_on_c, 2, 75, 88
6, 3956, Note_off_c, 2, 75, 0
6, 3960, Note_on_c, 2, 78, 88
6, 4018, Note_off_c, 2, 78, 0
6, 4020, Note_on_c, 2, 77, 88
6, 4078, Note_off_c, 2, 77, 0
6, 4080, Note_on_c, 2, 75, 88
6, 4433, Note_off_c, 2, 75, 0
6, 4440, Note_on_c, 2, 75, 88
6, 4498, Note_off_c, 2, 75, 0
6, 4500, Note_on_c, 2, 73, 88
6, 4558, Note_off_c, 2, 73, 0
6, 4560, Note_on_c, 2, 72, 88
6, 4916, Note_off_c, 2, 72, 0
6, 4920, Note_on_c, 2, 69, 88
6, 4978, Note_off_c, 2, 69, 0
6, 4980, Note_on_c, 2, 70, 88
6, 5038, Note_off_c, 2, 70, 0
6, 5040, Note_on_c, 2, 72, 88
6, 5153, Note_off_c, 2, 72, 0
6, 5160, Note_on_c, 2, 72, 88
6, 5218, Note_off_c, 2, 72, 0
6, 5220, Note_on_c, 2, 73, 88
6, 5278, Note_off_c, 2, 73, 0
6, 5280, Note_on_c, 2, 75, 88
6, 5396, Note_off_c, 2, 75, 0
6, 5400, Note_on_c, 2, 72, 88
6, 5458, Note_off_c, 2, 72, 0
6, 5460, Note_on_c, 2, 73, 88
6, 5518, Note_off_c, 2, 73, 0
6, 5520, Note_on_c, 2, 75, 88
6, 5876, Note_off_c, 2, 75, 0
6, 5880, Note_on_c, 2, 73, 88
6, 5938, Note_off_c, 2, 73, 0
6, 5940, Note_on_c, 2, 72, 88
6, 5998, Note_off_c, 2, 72, 0
6, 6000, Note_on_c, 2, 70, 88
6, 6116, Note_off_c, 2, 70, 0
6, 6120, Note_on_c, 2, 69, 88
6, 6236, Note_off_c, 2, 69, 0
6, 6240, Note_on_c, 2, 70, 88
6, 6474, Note_off_c, 2, 70, 0
6, 6600, Note_on_c, 2, 70, 88
6, 6716, Note_off_c, 2, 70, 0
6, 6720, Note_on_c, 2, 70, 88
6, 6836, Note_off_c, 2, 70, 0
6, 6840, Note_on_c, 2, 68, 88
6, 6956, Note_off_c, 2, 68, 0
6, 7080, Note_on_c, 2, 68, 88
6, 7193, Note_off_c, 2, 68, 0
6, 7200, Note_on_c, 2, 68, 88
6, 7316, Note_off_c, 2, 68, 0
6, 7320, Note_on_c, 2, 67, 88
6, 7436, Note_off_c, 2, 67, 0
6, 7560, Note_on_c, 2, 67, 88
6, 7676, Note_off_c, 2, 67, 0
6, 7680, Note_on_c, 2, 67, 88
6, 7796, Note_off_c, 2, 67, 0
6, 7800, Note_on_c, 2, 65, 88
6, 7916, Note_off_c, 2, 65, 0
6, 8040, Note_on_c, 2, 65, 88
6, 8153, Note_off_c, 2, 65, 0
6, 8160, Note_on_c, 2, 65, 88
6, 8276, Note_off_c, 2, 65, 0
6, 8280, Note_on_c, 2, 61, 88
6, 8396, Note_off_c, 2, 61, 0
6, 8520, Note_on_c, 2, 61, 88
6, 8636, Note_off_c, 2, 61, 0
6, 8640, Note_on_c, 2, 60, 88
6, 8756, Note_off_c, 2, 60, 0
6, 8760, Note_on_c, 2, 65, 88
6, 8818, Note_off_c, 2, 65, 0
6, 8820, Note_on_c, 2, 64, 88
6, 8878, Note_off_c, 2, 64, 0
6, 8880, Note_on_c, 2, 65, 88
6, 8993, Note_off_c, 2, 65, 0
6, 9000, Note_on_c, 2, 65, 88
6, 9113, Note_off_c, 2, 65, 0
6, 9120, Note_on_c, 2, 65, 88
6, 9236, Note_off_c, 2, 65, 0
6, 9240, Note_on_c, 2, 64, 88
6, 9298, Note_off_c, 2, 64, 0
6, 9300, Note_on_c, 2, 62, 88
6, 9358, Note_off_c, 2, 62, 0
6, 9360, Note_on_c, 2, 64, 88
6, 9473, Note_off_c, 2, 64, 0
6, 9480, Note_on_c, 2, 64, 88
6, 9596, Note_off_c, 2, 64, 0
6, 9600, Note_on_c, 2, 64, 88
6, 9716, Note_off_c, 2, 64, 0
6, 9720, Note_on_c, 2, 65, 88
6, 9778, Note_off_c, 2, 65, 0
6, 9780, Note_on_c, 2, 63, 88
6, 9838, Note_off_c, 2, 63, 0
6, 9840, Note_on_c, 2, 61, 88
6, 9953, Note_off_c, 2, 61, 0
6, 9960, Note_on_c, 2, 61, 88
6, 10073, Note_off_c, 2, 61, 0
6, 10080, Note_on_c, 2, 61, 88
6, 10196, Note_off_c, 2, 61, 0
6, 10200, Note_on_c, 2, 70, 88
6, 10258, Note_off_c, 2, 70, 0
6, 10260, Note_on_c, 2, 69, 88
6, 10318, Note_off_c, 2, 69, 0
6, 10320, Note_on_c, 2, 70, 88
6, 10554, Note_off_c, 2, 70, 0
6, 10560, Note_on_c, 2, 72, 88
6, 10676, Note_off_c, 2, 72, 0
6, 10680, Note_on_c, 2, 65, 88
6, 10738, Note_off_c, 2, 65, 0
6, 10740, Note_on_c, 2, 67, 88
6, 10798, Note_off_c, 2, 67, 0
6, 10800, Note_on_c, 2, 68, 88
6, 10913, Note_off_c, 2, 68, 0
6, 10920, Note_on_c, 2, 68, 88
6, 11033, Note_off_c, 2, 68, 0
6, 11040, Note_on_c, 2, 68, 88
6, 11156, Note_off_c, 2, 68, 0
6, 11160, Note_on_c, 2, 67, 88
6, 11218, Note_off_c, 2, 67, 0
6, 11220, Note_on_c, 2, 68, 88
6, 11278, Note_off_c, 2, 68, 0
6, 11280, Note_on_c, 2, 70, 88
6, 11393, Note_off_c, 2, 70, 0
6, 11400, Note_on_c, 2, 70, 88
6, 11516, Note_off_c, 2, 70, 0
6, 11520, Note_on_c, 2, 70, 88
6, 11636, Note_off_c, 2, 70, 0
6, 11640, Note_on_c, 2, 68, 88
6, 11698, Note_off_c, 2, 68, 0
6, 11700, Note_on_c, 2, 67, 88
6, 11758, Note_off_c, 2, 67, 0
6, 11760, Note_on_c, 2, 68, 88
6, 11994, Note_off_c, 2, 68, 0
6, 12120, Note_on_c, 2, 71, 88
6, 12178, Note_off_c, 2, 71, 0
6, 12180, Note_on_c, 2, 70, 88
6, 12238, Note_off_c, 2, 70, 0
6, 12240, Note_on_c, 2, 68, 88
6, 12474, Note_off_c, 2, 68, 0
6, 12600, Note_on_c, 2, 66, 88
6, 12658, Note_off_c, 2, 66, 0
6, 12660, Note_on_c, 2, 68, 88
6, 12718, Note_off_c, 2, 68, 0
6, 12720, Note_on_c, 2, 70, 88
6, 12954, Note_off_c, 2, 70, 0
6, 13080, Note_on_c, 2, 63, 88
6, 13138, Note_off_c, 2, 63, 0
6, 13140, Note_on_c, 2, 65, 88
6, 13198, Note_off_c, 2, 65, 0
6, 13200, Note_on_c, 2, 66, 88
6, 13434, Note_off_c, 2, 66, 0
6, 13560, Note_on_c, 2, 68, 88
6, 13618, Note_off_c, 2, 68, 0
6, 13620, Note_on_c, 2, 66, 88
6, 13678, Note_off_c, 2, 66, 0
6, 13680, Note_on_c, 2, 65, 88
6, 13793, Note_off_c, 2, 65, 0
6, 13800, Note_on_c, 2, 65, 88
6, 13916, Note_off_c, 2, 65, 0
6, 13920, Note_on_c, 2, 66, 88
6, 14033, Note_off_c, 2, 66, 0
6, 14040, Note_on_c, 2, 66, 88
6, 14156, Note_off_c, 2, 66, 0
6, 14160, Note_on_c, 2, 70, 88
6, 14273, Note_off_c, 2, 70, 0
6, 14280, Note_on_c, 2, 70, 88
6, 14396, Note_off_c, 2, 70, 0
6, 14400, Note_on_c, 2, 70, 88
6, 14516, Note_off_c, 2, 70, 0
6, 14520, Note_on_c, 2, 69, 88
6, 14578, Note_off_c, 2, 69, 0
6, 14580, Note_on_c, 2, 70, 88
6, 14638, Note_off_c, 2, 70, 0
6, 14640, Note_on_c, 2, 72, 88
6, 14753, Note_off_c, 2, 72, 0
6, 14760, Note_on_c, 2, 72, 88
6, 14876, Note_off_c, 2, 72, 0
6, 14880, Note_on_c, 2, 77, 88
6, 14993, Note_off_c, 2, 77, 0
6, 15000, Note_on_c, 2, 77, 88
6, 15113, Note_off_c, 2, 77, 0
6, 15120, Note_on_c, 2, 77, 88
6, 15233, Note_off_c, 2, 77, 0
6, 15240, Note_on_c, 2, 77, 88
6, 15356, Note_off_c, 2, 77, 0
6, 15360, Note_on_c, 2, 77, 88
6, 15476, Note_off_c, 2, 77, 0
6, 15480, Note_on_c, 2, 75, 88
6, 15593, Note_off_c, 2, 75, 0
6, 15600, Note_on_c, 2, 75, 88
6, 15713, Note_off_c, 2, 75, 0
6, 15720, Note_on_c, 2, 75, 88
6, 15833, Note_off_c, 2, 75, 0
6, 15840, Note_on_c, 2, 75, 88
6, 15956, Note_off_c, 2, 75, 0
6, 15960, Note_on_c, 2, 73, 88
6, 16018, Note_off_c, 2, 73, 0
6, 16020, Note_on_c, 2, 72, 88
6, 16078, Note_off_c, 2, 72, 0
6, 16080, Note_on_c, 2, 70, 88
6, 16193, Note_off_c, 2, 70, 0
6, 16200, Note_on_c, 2, 70, 88
6, 16316, Note_off_c, 2, 70, 0
6, 16320, Note_on_c, 2, 70, 88
6, 16436, Note_off_c, 2, 70, 0
6, 16440, Note_on_c, 2, 69, 88
6, 16498, Note_off_c, 2, 69, 0
6, 16500, Note_on_c, 2, 70, 88
6, 16553, Note_off_c, 2, 70, 0
6, 16560, Note_on_c, 2, 70, 88
6, 16676, Note_off_c, 2, 70, 0
6, 16680, Note_on_c, 2, 69, 88
6, 16738, Note_off_c, 2, 69, 0
6, 16740, Note_on_c, 2, 70, 88
6, 16798, Note_off_c, 2, 70, 0
6, 16800, Note_on_c, 2, 69, 88
6, 16913, Note_off_c, 2, 69, 0
6, 16920, Note_on_c, 2, 69, 88
6, 16978, Note_off_c, 2, 69, 0
6, 16980, Note_on_c, 2, 70, 88
6, 17038, Note_off_c, 2, 70, 0
6, 17040, Note_on_c, 2, 72, 88
6, 17156, Note_off_c, 2, 72, 0
6, 17160, Note_on_c, 2, 70, 88
6, 17218, Note_off_c, 2, 70, 0
6, 17220, Note_on_c, 2, 69, 88
6, 17278, Note_off_c, 2, 69, 0
6, 17280, Note_on_c, 2, 70, 88
6, 17514, Note_off_c, 2, 70, 0
6, 17640, Note_on_c, 2, 70, 88
6, 17753, Note_off_c, 2, 70, 0
6, 17760, Note_on_c, 2, 70, 88
6, 17994, Note_off_c, 2, 70, 0
6, 18120, Note_on_c, 2, 66, 88
6, 18236, Note_off_c, 2, 66, 0
6, 18240, Note_on_c, 2, 65, 88
6, 18474, Note_off_c, 2, 65, 0
6, 18600, Note_on_c, 2, 63, 88
6, 18716, Note_off_c, 2, 63, 0
6, 18720, Note_on_c, 2, 61, 88
6, 18954, Note_off_c, 2, 61, 0
6, 19080, Note_on_c, 2, 64, 88
6, 19196, Note_off_c, 2, 64, 0
6, 19200, Note_on_c, 2, 64, 88
6, 19316, Note_off_c, 2, 64, 0
6, 19320, Note_on_c, 2, 65, 88
6, 19436, Note_off_c, 2, 65, 0
6, 19560, Note_on_c, 2, 65, 88
6, 19673, Note_off_c, 2, 65, 0
6, 19680, Note_on_c, 2, 65, 88
6, 19914, Note_off_c, 2, 65, 0
6, 20040, Note_on_c, 2, 65, 88
6, 20156, Note_off_c, 2, 65, 0
6, 20160, Note_on_c, 2, 66, 88
6, 20273, Note_off_c, 2, 66, 0
6, 20280, Note_on_c, 2, 66, 88
6, 20393, Note_off_c, 2, 66, 0
6, 20400, Note_on_c, 2, 66, 88
6, 20400, Note_on_c, 2, 69, 88
6, 20513, Note_off_c, 2, 66, 0
6, 20513, Note_off_c, 2, 69, 0
6, 20520, Note_on_c, 2, 66, 88
6, 20520, Note_on_c, 2, 69, 88
6, 20633, Note_off_c, 2, 66, 0
6, 20633, Note_off_c, 2, 69, 0
6, 20640, Note_on_c, 2, 66, 88
6, 20640, Note_on_c, 2, 69, 88
6, 20640, Note_on_c, 2, 72, 88
6, 20874, Note_off_c, 2, 66, 0
6, 20874, Note_off_c, 2, 69, 0
6, 20874, Note_off_c, 2, 72, 0
6, 21000, Note_on_c, 2, 65, 88
6, 21116, Note_off_c, 2, 65, 0
6, 21120, Note_on_c, 2, 65, 88
6, 21236, Note_off_c, 2, 65, 0
6, 21240, Note_on_c, 2, 58, 88
6, 21298, Note_off_c, 2, 58, 0
6, 21300, Note_on_c, 2, 66, 88
6, 21358, Note_off_c, 2, 66, 0
6, 21360, Note_on_c, 2, 65, 88
6, 21476, Note_off_c, 2, 65, 0
6, 21480, Note_on_c, 2, 63, 88
6, 21596, Note_off_c, 2, 63, 0
6, 21600, Note_on_c, 2, 62, 88
6, 21713, Note_off_c, 2, 62, 0
6, 21720, Note_on_c, 2, 62, 88
6, 21778, Note_off_c, 2, 62, 0
6, 21780, Note_on_c, 2, 63, 88
6, 21838, Note_off_c, 2, 63, 0
6, 21840, Note_on_c, 2, 65, 88
6, 21953, Note_off_c, 2, 65, 0
6, 21960, Note_on_c, 2, 65, 88
6, 22076, Note_off_c, 2, 65, 0
6, 22080, Note_on_c, 2, 65, 88
6, 22196, Note_off_c, 2, 65, 0
6, 22200, Note_on_c, 2, 63, 88
6, 22434, Note_off_c, 2, 63, 0
6, 22440, Note_on_c, 2, 62, 88
6, 22498, Note_off_c, 2, 62, 0
6, 22500, Note_on_c, 2, 60, 88
6, 22558, Note_off_c, 2, 60, 0
6, 22560, Note_on_c, 2, 62, 88
6, 23030, Note_off_c, 2, 62, 0
6, 23030, End_track
7, 0, Start_track
7, 0, Title_t, "Track 4"
7, 0, Program_c, 3, 6
7, 0, Note_on_c, 3, 61, 88
7, 234, Note_off_c, 3, 61, 0
7, 360, Note_on_c, 3, 61, 88
7, 476, Note_off_c, 3, 61, 0
7, 480, Note_on_c, 3, 63, 88
7, 714, Note_off_c, 3, 63, 0
7, 840, Note_on_c, 3, 60, 88
7, 956, Note_off_c, 3, 60, 0
7, 960, Note_on_c, 3, 61, 88
7, 1194, Note_off_c, 3, 61, 0
7, 1320, Note_on_c, 3, 61, 88
7, 1436, Note_off_c, 3, 61, 0
7, 1440, Note_on_c, 3, 60, 88
7, 1674, Note_off_c, 3, 60, 0
7, 1800, Note_on_c, 3, 60, 88
7, 1916, Note_off_c, 3, 60, 0
7, 1920, Note_on_c, 3, 58, 88
7, 2036, Note_off_c, 3, 58, 0
7, 2280, Note_on_c, 3, 70, 88
7, 2396, Note_off_c, 3, 70, 0
7, 2400, Note_on_c, 3, 67, 88
7, 2516, Note_off_c, 3, 67, 0
7, 2520, Note_on_c, 3, 66, 88
7, 2636, Note_off_c, 3, 66, 0
7, 2760, Note_on_c, 3, 66, 88
7, 2876, Note_off_c, 3, 66, 0
7, 2880, Note_on_c, 3, 65, 88
7, 3114, Note_off_c, 3, 65, 0
7, 3240, Note_on_c, 3, 65, 88
7, 3356, Note_off_c, 3, 65, 0
7, 3360, Note_on_c, 3, 66, 88
7, 3956, Note_off_c, 3, 66, 0
7, 3960, Note_on_c, 3, 75, 88
7, 4018, Note_off_c, 3, 75, 0
7, 4020, Note_on_c, 3, 73, 88
7, 4078, Note_off_c, 3, 73, 0
7, 4080, Note_on_c, 3, 72, 88
7, 4433, Note_off_c, 3, 72, 0
7, 4440, Note_on_c, 3, 72, 88
7, 4498, Note_off_c, 3, 72, 0
7, 4500, Note_on_c, 3, 70, 88
7, 4558, Note_off_c, 3, 70, 0
7, 4560, Note_on_c, 3, 69, 88
7, 4916, Note_off_c, 3, 69, 0
7, 4920, Note_on_c, 3, 65, 88
7, 4978, Note_off_c, 3, 65, 0
7, 4980, Note_on_c, 3, 67, 88
7, 5038, Note_off_c, 3, 67, 0
7, 5040, Note_on_c, 3, 69, 88
7, 5393, Note_off_c, 3, 69, 0
7, 5400, Note_on_c, 3, 69, 88
7, 5458, Note_off_c, 3, 69, 0
7, 5460, Note_on_c, 3, 70, 88
7, 5518, Note_off_c, 3, 70, 0
7, 5520, Note_on_c, 3, 72, 88
7, 5636, Note_off_c, 3, 72, 0
7, 5640, Note_on_c, 3, 69, 88
7, 5756, Note_off_c, 3, 69, 0
7, 5760, Note_on_c, 3, 65, 88
7, 6113, Note_off_c, 3, 65, 0
7, 6120, Note_on_c, 3, 66, 88
7, 6178, Note_off_c, 3, 66, 0
7, 6180, Note_on_c, 3, 63, 88
7, 6238, Note_off_c, 3, 63, 0
7, 6240, Note_on_c, 3, 65, 88
7, 6474, Note_off_c, 3, 65, 0
7, 6600, Note_on_c, 3, 65, 88
7, 6716, Note_off_c, 3, 65, 0
7, 6720, Note_on_c, 3, 63, 88
7, 6833, Note_off_c, 3, 63, 0
7, 6840, Note_on_c, 3, 63, 88
7, 6956, Note_off_c, 3, 63, 0
7, 7080, Note_on_c, 3, 65, 88
7, 7193, Note_off_c, 3, 65, 0
7, 7200, Note_on_c, 3, 65, 88
7, 7313, Note_off_c, 3, 65, 0
7, 7320, Note_on_c, 3, 65, 88
7, 7436, Note_off_c, 3, 65, 0
7, 7560, Note_on_c, 3, 65, 88
7, 7676, Note_off_c, 3, 65, 0
7, 7680, Note_on_c, 3, 64, 88
7, 7796, Note_off_c, 3, 64, 0
7, 7800, Note_on_c, 3, 60, 88
7, 7916, Note_off_c, 3, 60, 0
7, 8040, Note_on_c, 3, 60, 88
7, 8156, Note_off_c, 3, 60, 0
7, 8160, Note_on_c, 3, 61, 88
7, 8276, Note_off_c, 3, 61, 0
7, 8280, Note_on_c, 3, 58, 88
7, 8396, Note_off_c, 3, 58, 0
7, 8520, Note_on_c, 3, 58, 88
7, 8636, Note_off_c, 3, 58, 0
7, 8640, Note_on_c, 3, 55, 88
7, 8756, Note_off_c, 3, 55, 0
7, 8760, Note_on_c, 3, 56, 88
7, 8994, Note_off_c, 3, 56, 0
7, 9000, Note_on_c, 3, 55, 88
7, 9058, Note_off_c, 3, 55, 0
7, 9060, Note_on_c, 3, 53, 88
7, 9118, Note_off_c, 3, 53, 0
7, 9120, Note_on_c, 3, 55, 88
7, 9233, Note_off_c, 3, 55, 0
7, 9240, Note_on_c, 3, 55, 88
7, 9353, Note_off_c, 3, 55, 0
7, 9360, Note_on_c, 3, 55, 88
7, 9476, Note_off_c, 3, 55, 0
7, 9480, Note_on_c, 3, 60, 88
7, 9596, Note_off_c, 3, 60, 0
7, 9600, Note_on_c, 3, 60, 88
7, 9713, Note_off_c, 3, 60, 0
7, 9720, Note_on_c, 3, 60, 88
7, 9954, Note_off_c, 3, 60, 0
7, 9960, Note_on_c, 3, 58, 88
7, 10018, Note_off_c, 3, 58, 0
7, 10020, Note_on_c, 3, 57, 88
7, 10078, Note_off_c, 3, 57, 0
7, 10080, Note_on_c, 3, 58, 88
7, 10196, Note_off_c, 3, 58, 0
7, 10200, Note_on_c, 3, 54, 88
7, 10258, Note_off_c, 3, 54, 0
7, 10260, Note_on_c, 3, 53, 88
7, 10318, Note_off_c, 3, 53, 0
7, 10320, Note_on_c, 3, 54, 88
7, 10554, Note_off_c, 3, 54, 0
7, 10560, Note_on_c, 3, 55, 88
7, 10676, Note_off_c, 3, 55, 0
7, 10680, Note_on_c, 3, 56, 88
7, 10738, Note_off_c, 3, 56, 0
7, 10740, Note_on_c, 3, 55, 88
7, 10798, Note_off_c, 3, 55, 0
7, 10800, Note_on_c, 3, 53, 88
7, 11153, Note_off_c, 3, 53, 0
7, 11160, Note_on_c, 3, 52, 88
7, 11218, Note_off_c, 3, 52, 0
7, 11220, Note_on_c, 3, 53, 88
7, 11278, Note_off_c, 3, 53, 0
7, 11280, Note_on_c, 3, 55, 88
7, 11393, Note_off_c, 3, 55, 0
7, 11400, Note_on_c, 3, 55, 88
7, 11516, Note_off_c, 3, 55, 0
7, 11520, Note_on_c, 3, 53, 88
7, 11754, Note_off_c, 3, 53, 0
7, 12120, Note_on_c, 3, 68, 88
7, 12178, Note_off_c, 3, 68, 0
7, 12180, Note_on_c, 3, 66, 88
7, 12238, Note_off_c, 3, 66, 0
7, 12240, Note_on_c, 3, 65, 88
7, 12474, Note_off_c, 3, 65, 0
7, 12600, Note_on_c, 3, 63, 88
7, 12658, Note_off_c, 3, 63, 0
7, 12660, Note_on_c, 3, 65, 88
7, 12718, Note_off_c, 3, 65, 0
7, 12720, Note_on_c, 3, 66, 88
7, 12954, Note_off_c, 3, 66, 0
7, 13080, Note_on_c, 3, 60, 88
7, 13138, Note_off_c, 3, 60, 0
7, 13140, Note_on_c, 3, 61, 88
7, 13198, Note_off_c, 3, 61, 0
7, 13200, Note_on_c, 3, 63, 88
7, 13434, Note_off_c, 3, 63, 0
7, 13560, Note_on_c, 3, 65, 88
7, 13618, Note_off_c, 3, 65, 0
7, 13620, Note_on_c, 3, 63, 88
7, 13678, Note_off_c, 3, 63, 0
7, 13680, Note_on_c, 3, 61, 88
7, 13793, Note_off_c, 3, 61, 0
7, 13800, Note_on_c, 3, 61, 88
7, 13913, Note_off_c, 3, 61, 0
7, 13920, Note_on_c, 3, 61, 88
7, 14033, Note_off_c, 3, 61, 0
7, 14040, Note_on_c, 3, 61, 88
7, 14156, Note_off_c, 3, 61, 0
7, 14160, Note_on_c, 3, 63, 88
7, 14273, Note_off_c, 3, 63, 0
7, 14280, Note_on_c, 3, 63, 88
7, 14338, Note_off_c, 3, 63, 0
7, 14340, Note_on_c, 3, 65, 88
7, 14398, Note_off_c, 3, 65, 0
7, 14400, Note_on_c, 3, 66, 88
7, 14513, Note_off_c, 3, 66, 0
7, 14520, Note_on_c, 3, 66, 88
7, 14633, Note_off_c, 3, 66, 0
7, 14640, Note_on_c, 3, 66, 88
7, 14756, Note_off_c, 3, 66, 0
7, 14760, Note_on_c, 3, 65, 88
7, 14876, Note_off_c, 3, 65, 0
7, 14880, Note_on_c, 3, 72, 88
7, 14993, Note_off_c, 3, 72, 0
7, 15000, Note_on_c, 3, 72, 88
7, 15116, Note_off_c, 3, 72, 0
7, 15120, Note_on_c, 3, 70, 88
7, 15233, Note_off_c, 3, 70, 0
7, 15240, Note_on_c, 3, 70, 88
7, 15356, Note_off_c, 3, 70, 0
7, 15360, Note_on_c, 3, 70, 88
7, 15473, Note_off_c, 3, 70, 0
7, 15480, Note_on_c, 3, 70, 88
7, 15593, Note_off_c, 3, 70, 0
7, 15600, Note_on_c, 3, 70, 88
7, 15716, Note_off_c, 3, 70, 0
7, 15720, Note_on_c, 3, 69, 88
7, 15778, Note_off_c, 3, 69, 0
7, 15780, Note_on_c, 3, 70, 88
7, 15838, Note_off_c, 3, 70, 0
7, 15840, Note_on_c, 3, 72, 88
7, 15956, Note_off_c, 3, 72, 0
7, 15960, Note_on_c, 3, 65, 88
7, 16018, Note_off_c, 3, 65, 0
7, 16020, Note_on_c, 3, 63, 88
7, 16078, Note_off_c, 3, 63, 0
7, 16080, Note_on_c, 3, 61, 88
7, 16193, Note_off_c, 3, 61, 0
7, 16200, Note_on_c, 3, 61, 88
7, 16316, Note_off_c, 3, 61, 0
7, 16320, Note_on_c, 3, 61, 88
7, 16436, Note_off_c, 3, 61, 0
7, 16440, Note_on_c, 3, 60, 88
7, 16498, Note_off_c, 3, 60, 0
7, 16500, Note_on_c, 3, 61, 88
7, 16558, Note_off_c, 3, 61, 0
7, 16560, Note_on_c, 3, 63, 88
7, 16676, Note_off_c, 3, 63, 0
7, 16680, Note_on_c, 3, 65, 88
7, 16796, Note_off_c, 3, 65, 0
7, 16800, Note_on_c, 3, 66, 88
7, 16913, Note_off_c, 3, 66, 0
7, 16920, Note_on_c, 3, 66, 88
7, 17036, Note_off_c, 3, 66, 0
7, 17040, Note_on_c, 3, 65, 88
7, 17153, Note_off_c, 3, 65, 0
7, 17160, Note_on_c, 3, 65, 88
7, 17276, Note_off_c, 3, 65, 0
7, 17280, Note_on_c, 3, 65, 88
7, 17514, Note_off_c, 3, 65, 0
7, 17640, Note_on_c, 3, 65, 88
7, 17756, Note_off_c, 3, 65, 0
7, 17760, Note_on_c, 3, 66, 88
7, 17994, Note_off_c, 3, 66, 0
7, 18120, Note_on_c, 3, 63, 88
7, 18178, Note_off_c, 3, 63, 0
7, 18180, Note_on_c, 3, 61, 88
7, 18238, Note_off_c, 3, 61, 0
7, 18240, Note_on_c, 3, 60, 88
7, 18356, Note_off_c, 3, 60, 0
7, 18360, Note_on_c, 3, 57, 88
7, 18418, Note_off_c, 3, 57, 0
7, 18420, Note_on_c, 3, 58, 88
7, 18478, Note_off_c, 3, 58, 0
7, 18480, Note_on_c, 3, 60, 88
7, 18593, Note_off_c, 3, 60, 0
7, 18600, Note_on_c, 3, 60, 88
7, 18716, Note_off_c, 3, 60, 0
7, 18720, Note_on_c, 3, 58, 88
7, 18954, Note_off_c, 3, 58, 0
7, 19080, Note_on_c, 3, 61, 88
7, 19196, Note_off_c, 3, 61, 0
7, 19200, Note_on_c, 3, 60, 88
7, 19313, Note_off_c, 3, 60, 0
7, 19320, Note_on_c, 3, 60, 88
7, 19378, Note_off_c, 3, 60, 0
7, 19380, Note_on_c, 3, 61, 88
7, 19438, Note_off_c, 3, 61, 0
7, 19440, Note_on_c, 3, 63, 88
7, 19553, Note_off_c, 3, 63, 0
7, 19560, Note_on_c, 3, 63, 88
7, 19676, Note_off_c, 3, 63, 0
7, 19680, Note_on_c, 3, 61, 88
7, 19793, Note_off_c, 3, 61, 0
7, 19800, Note_on_c, 3, 61, 88
7, 19858, Note_off_c, 3, 61, 0
7, 19860, Note_on_c, 3, 60, 88
7, 19918, Note_off_c, 3, 60, 0
7, 19920, Note_on_c, 3, 58, 88
7, 20033, Note_off_c, 3, 58, 0
7, 20040, Note_on_c, 3, 58, 88
7, 20098, Note_off_c, 3, 58, 0
7, 20100, Note_on_c, 3, 56, 88
7, 20158, Note_off_c, 3, 56, 0
7, 20160, Note_on_c, 3, 54, 88
7, 20273, Note_off_c, 3, 54, 0
7, 20280, Note_on_c, 3, 54, 88
7, 20338, Note_off_c, 3, 54, 0
7, 20340, Note_on_c, 3, 53, 88
7, 20398, Note_off_c, 3, 53, 0
7, 20400, Note_on_c, 3, 54, 88
7, 20513, Note_off_c, 3, 54, 0
7, 20520, Note_on_c, 3, 54, 88
7, 20633, Note_off_c, 3, 54, 0
7, 20640, Note_on_c, 3, 51, 88
7, 20640, Note_on_c, 3, 54, 88
7, 20874, Note_off_c, 3, 51, 0
7, 20874, Note_off_c, 3, 54, 0
7, 21360, Note_on_c, 3, 53, 88
7, 21713, Note_off_c, 3, 53, 0
7, 21720, Note_on_c, 3, 53, 88
7, 21778, Note_off_c, 3, 53, 0
7, 21780, Note_on_c, 3, 51, 88
7, 21838, Note_off_c, 3, 51, 0
7, 21840, Note_on_c, 3, 50, 88
7, 21898, Note_off_c, 3, 50, 0
7, 21900, Note_on_c, 3, 48, 88
7, 21958, Note_off_c, 3, 48, 0
7, 21960, Note_on_c, 3, 51, 88
7, 22018, Note_off_c, 3, 51, 0
7, 22020, Note_on_c, 3, 50, 88
7, 22078, Note_off_c, 3, 50, 0
7, 22080, Note_on_c, 3, 50, 88
7, 22196, Note_off_c, 3, 50, 0
7, 22200, Note_on_c, 3, 51, 88
7, 22258, Note_off_c, 3, 51, 0
7, 22260, Note_on_c, 3, 53, 88
7, 22318, Note_off_c, 3, 53, 0
7, 22320, Note_on_c, 3, 54, 88
7, 22433, Note_off_c, 3, 54, 0
7, 22440, Note_on_c, 3, 54, 88
7, 22556, Note_off_c, 3, 54, 0
7, 22560, Note_on_c, 3, 53, 88
7, 23030, Note_off_c, 3, 53, 0
7, 23030, End_track
8, 0, Start_track
8, 0, Title_t, "Track 5"
8, 0, Program_c, 4, 6
8, 0, Note_on_c, 4, 58, 88
8, 113, Note_off_c, 4, 58, 0
8, 120, Note_on_c, 4, 58, 88
8, 233, Note_off_c, 4, 58, 0
8, 240, Note_on_c, 4, 58, 88
8, 353, Note_off_c, 4, 58, 0
8, 360, Note_on_c, 4, 58, 88
8, 473, Note_off_c, 4, 58, 0
8, 480, Note_on_c, 4, 58, 88
8, 593, Note_off_c, 4, 58, 0
8, 600, Note_on_c, 4, 58, 88
8, 713, Note_off_c, 4, 58, 0
8, 720, Note_on_c, 4, 58, 88
8, 833, Note_off_c, 4, 58, 0
8, 840, Note_on_c, 4, 58, 88
8, 956, Note_off_c, 4, 58, 0
8, 960, Note_on_c, 4, 58, 88
8, 1073, Note_off_c, 4, 58, 0
8, 1080, Note_on_c, 4, 58, 88
8, 1193, Note_off_c, 4, 58, 0
8, 1200, Note_on_c, 4, 58, 88
8, 1313, Note_off_c, 4, 58, 0
8, 1320, Note_on_c, 4, 58, 88
8, 1433, Note_off_c, 4, 58, 0
8, 1440, Note_on_c, 4, 58, 88
8, 1553, Note_off_c, 4, 58, 0
8, 1560, Note_on_c, 4, 58, 88
8, 1673, Note_off_c, 4, 58, 0
8, 1680, Note_on_c, 4, 58, 88
8, 1793, Note_off_c, 4, 58, 0
8, 1800, Note_on_c, 4, 58, 88
8, 1916, Note_off_c, 4, 58, 0
8, 1920, Note_on_c, 4, 58, 88
8, 2033, Note_off_c, 4, 58, 0
8, 2040, Note_on_c, 4, 58, 88
8, 2098, Note_off_c, 4, 58, 0
8, 2100, Note_on_c, 4, 60, 88
8, 2158, Note_off_c, 4, 60, 0
8, 2160, Note_on_c, 4, 61, 88
8, 2273, Note_off_c, 4, 61, 0
8, 2280, Note_on_c, 4, 61, 88
8, 2393, Note_off_c, 4, 61, 0
8, 2400, Note_on_c, 4, 61, 88
8, 2516, Note_off_c, 4, 61, 0
8, 2520, Note_on_c, 4, 60, 88
8, 2578, Note_off_c, 4, 60, 0
8, 2580, Note_on_c, 4, 61, 88
8, 2638, Note_off_c, 4, 61, 0
8, 2640, Note_on_c, 4, 63, 88
8, 2753, Note_off_c, 4, 63, 0
8, 2760, Note_on_c, 4, 63, 88
8, 2876, Note_off_c, 4, 63, 0
8, 2880, Note_on_c, 4, 63, 88
8, 2996, Note_off_c, 4, 63, 0
8, 3000, Note_on_c, 4, 61, 88
8, 3058, Note_off_c, 4, 61, 0
8, 3060, Note_on_c, 4, 63, 88
8, 3118, Note_off_c, 4, 63, 0
8, 3120, Note_on_c, 4, 65, 88
8, 3233, Note_off_c, 4, 65, 0
8, 3240, Note_on_c, 4, 65, 88
8, 3353, Note_off_c, 4, 65, 0
8, 3360, Note_on_c, 4, 65, 88
8, 3476, Note_off_c, 4, 65, 0
8, 3480, Note_on_c, 4, 63, 88
8, 3538, Note_off_c, 4, 63, 0
8, 3540, Note_on_c, 4, 61, 88
8, 3598, Note_off_c, 4, 61, 0
8, 3600, Note_on_c, 4, 60, 88
8, 3716, Note_off_c, 4, 60, 0
8, 3720, Note_on_c, 4, 58, 88
8, 3836, Note_off_c, 4, 58, 0
8, 3840, Note_on_c, 4, 57, 88
8, 4193, Note_off_c, 4, 57, 0
8, 4200, Note_on_c, 4, 57, 88
8, 4258, Note_off_c, 4, 57, 0
8, 4260, Note_on_c, 4, 58, 88
8, 4318, Note_off_c, 4, 58, 0
8, 4320, Note_on_c, 4, 60, 88
8, 4673, Note_off_c, 4, 60, 0
8, 4680, Note_on_c, 4, 60, 88
8, 4738, Note_off_c, 4, 60, 0
8, 4740, Note_on_c, 4, 61, 88
8, 4798, Note_off_c, 4, 61, 0
8, 4800, Note_on_c, 4, 63, 88
8, 5153, Note_off_c, 4, 63, 0
8, 5160, Note_on_c, 4, 63, 88
8, 5218, Note_off_c, 4, 63, 0
8, 5220, Note_on_c, 4, 61, 88
8, 5278, Note_off_c, 4, 61, 0
8, 5280, Note_on_c, 4, 60, 88
8, 5393, Note_off_c, 4, 60, 0
8, 5400, Note_on_c, 4, 60, 88
8, 5458, Note_off_c, 4, 60, 0
8, 5460, Note_on_c, 4, 58, 88
8, 5518, Note_off_c, 4, 58, 0
8, 5520, Note_on_c, 4, 57, 88
8, 5636, Note_off_c, 4, 57, 0
8, 5640, Note_on_c, 4, 55, 88
8, 5698, Note_off_c, 4, 55, 0
8, 5700, Note_on_c, 4, 53, 88
8, 5758, Note_off_c, 4, 53, 0
8, 5760, Note_on_c, 4, 58, 88
8, 6350, Note_off_c, 4, 58, 0
8, 6360, Note_on_c, 4, 61, 88
8, 6418, Note_off_c, 4, 61, 0
8, 6420, Note_on_c, 4, 60, 88
8, 6478, Note_off_c, 4, 60, 0
8, 6480, Note_on_c, 4, 58, 88
8, 6596, Note_off_c, 4, 58, 0
8, 6600, Note_on_c, 4, 56, 88
8, 6716, Note_off_c, 4, 56, 0
8, 6720, Note_on_c, 4, 55, 88
8, 6836, Note_off_c, 4, 55, 0
8, 6840, Note_on_c, 4, 56, 88
8, 6898, Note_off_c, 4, 56, 0
8, 6900, Note_on_c, 4, 55, 88
8, 6958, Note_off_c, 4, 55, 0
8, 6960, Note_on_c, 4, 53, 88
8, 7076, Note_off_c, 4, 53, 0
8, 7080, Note_on_c, 4, 51, 88
8, 7196, Note_off_c, 4, 51, 0
8, 7200, Note_on_c, 4, 50, 88
8, 7316, Note_off_c, 4, 50, 0
8, 7320, Note_on_c, 4, 55, 88
8, 7378, Note_off_c, 4, 55, 0
8, 7380, Note_on_c, 4, 53, 88
8, 7438, Note_off_c, 4, 53, 0
8, 7440, Note_on_c, 4, 52, 88
8, 7556, Note_off_c, 4, 52, 0
8, 7560, Note_on_c, 4, 55, 88
8, 7676, Note_off_c, 4, 55, 0
8, 7680, Note_on_c, 4, 48, 88
8, 7796, Note_off_c, 4, 48, 0
8, 7800, Note_on_c, 4, 53, 88
8, 7858, Note_off_c, 4, 53, 0
8, 7860, Note_on_c, 4, 51, 88
8, 7918, Note_off_c, 4, 51, 0
8, 7920, Note_on_c, 4, 49, 88
8, 8036, Note_off_c, 4, 49, 0
8, 8040, Note_on_c, 4, 48, 88
8, 8156, Note_off_c, 4, 48, 0
8, 8160, Note_on_c, 4, 46, 88
8, 8273, Note_off_c, 4, 46, 0
8, 8280, Note_on_c, 4, 46, 88
8, 8393, Note_off_c, 4, 46, 0
8, 8400, Note_on_c, 4, 46, 88
8, 8513, Note_off_c, 4, 46, 0
8, 8520, Note_on_c, 4, 46, 88
8, 8636, Note_off_c, 4, 46, 0
8, 8640, Note_on_c, 4, 46, 88
8, 8756, Note_off_c, 4, 46, 0
8, 8760, Note_on_c, 4, 44, 88
8, 8876, Note_off_c, 4, 44, 0
8, 8880, Note_on_c, 4, 49, 88
8, 8993, Note_off_c, 4, 49, 0
8, 9000, Note_on_c, 4, 49, 88
8, 9113, Note_off_c, 4, 49, 0
8, 9120, Note_on_c, 4, 49, 88
8, 9236, Note_off_c, 4, 49, 0
8, 9240, Note_on_c, 4, 48, 88
8, 9298, Note_off_c, 4, 48, 0
8, 9300, Note_on_c, 4, 46, 88
8, 9358, Note_off_c, 4, 46, 0
8, 9360, Note_on_c, 4, 48, 88
8, 9473, Note_off_c, 4, 48, 0
8, 9480, Note_on_c, 4, 48, 88
8, 9596, Note_off_c, 4, 48, 0
8, 9600, Note_on_c, 4, 48, 88
8, 9716, Note_off_c, 4, 48, 0
8, 9720, Note_on_c, 4, 41, 88
8, 9836, Note_off_c, 4, 41, 0
8, 9840, Note_on_c, 4, 46, 88
8, 9953, Note_off_c, 4, 46, 0
8, 9960, Note_on_c, 4, 46, 88
8, 10073, Note_off_c, 4, 46, 0
8, 10080, Note_on_c, 4, 46, 88
8, 10193, Note_off_c, 4, 46, 0
8, 10200, Note_on_c, 4, 46, 88
8, 10313, Note_off_c, 4, 46, 0
8, 10320, Note_on_c, 4, 46, 88
8, 10433, Note_off_c, 4, 46, 0
8, 10440, Note_on_c, 4, 46, 88
8, 10556, Note_off_c, 4, 46, 0
8, 10560, Note_on_c, 4, 46, 88
8, 10676, Note_off_c, 4, 46, 0
8, 10680, Note_on_c, 4, 44, 88
8, 10796, Note_off_c, 4, 44, 0
8, 10800, Note_on_c, 4, 49, 88
8, 10916, Note_off_c, 4, 49, 0
8, 10920, Note_on_c, 4, 48, 88
8, 11036, Note_off_c, 4, 48, 0
8, 11040, Note_on_c, 4, 46, 88
8, 11156, Note_off_c, 4, 46, 0
8, 11160, Note_on_c, 4, 49, 88
8, 11276, Note_off_c, 4, 49, 0
8, 11280, Note_on_c, 4, 48, 88
8, 11393, Note_off_c, 4, 48, 0
8, 11400, Note_on_c, 4, 48, 88
8, 11516, Note_off_c, 4, 48, 0
8, 11520, Note_on_c, 4, 41, 88
8, 11754, Note_off_c, 4, 41, 0
8, 11880, Note_on_c, 4, 53, 88
8, 11996, Note_off_c, 4, 53, 0
8, 12000, Note_on_c, 4, 58, 88
8, 12234, Note_off_c, 4, 58, 0
8, 12360, Note_on_c, 4, 58, 88
8, 12476, Note_off_c, 4, 58, 0
8, 12480, Note_on_c, 4, 51, 88
8, 12714, Note_off_c, 4, 51, 0
8, 12840, Note_on_c, 4, 51, 88
8, 12956, Note_off_c, 4, 51, 0
8, 12960, Note_on_c, 4, 56, 88
8, 13194, Note_off_c, 4, 56, 0
8, 13320, Note_on_c, 4, 56, 88
8, 13436, Note_off_c, 4, 56, 0
8, 13440, Note_on_c, 4, 49, 88
8, 13674, Note_off_c, 4, 49, 0
8, 13800, Note_on_c, 4, 49, 88
8, 13916, Note_off_c, 4, 49, 0
8, 13920, Note_on_c, 4, 54, 88
8, 14033, Note_off_c, 4, 54, 0
8, 14040, Note_on_c, 4, 54, 88
8, 14098, Note_off_c, 4, 54, 0
8, 14100, Note_on_c, 4, 53, 88
8, 14158, Note_off_c, 4, 53, 0
8, 14160, Note_on_c, 4, 51, 88
8, 14273, Note_off_c, 4, 51, 0
8, 14280, Note_on_c, 4, 51, 88
8, 14396, Note_off_c, 4, 51, 0
8, 14400, Note_on_c, 4, 60, 88
8, 14513, Note_off_c, 4, 60, 0
8, 14520, Note_on_c, 4, 60, 88
8, 14578, Note_off_c, 4, 60, 0
8, 14580, Note_on_c, 4, 58, 88
8, 14638, Note_off_c, 4, 58, 0
8, 14640, Note_on_c, 4, 57, 88
8, 14753, Note_off_c, 4, 57, 0
8, 14760, Note_on_c, 4, 57, 88
8, 14876, Note_off_c, 4, 57, 0
8, 14880, Note_on_c, 4, 63, 88
8, 14996, Note_off_c, 4, 63, 0
8, 15000, Note_on_c, 4, 65, 88
8, 15058, Note_off_c, 4, 65, 0
8, 15060, Note_on_c, 4, 63, 88
8, 15118, Note_off_c, 4, 63, 0
8, 15120, Note_on_c, 4, 62, 88
8, 15233, Note_off_c, 4, 62, 0
8, 15240, Note_on_c, 4, 62, 88
8, 15356, Note_off_c, 4, 62, 0
8, 15360, Note_on_c, 4, 63, 88
8, 15473, Note_off_c, 4, 63, 0
8, 15480, Note_on_c, 4, 63, 88
8, 15538, Note_off_c, 4, 63, 0
8, 15540, Note_on_c, 4, 61, 88
8, 15598, Note_off_c, 4, 61, 0
8, 15600, Note_on_c, 4, 60, 88
8, 15713, Note_off_c, 4, 60, 0
8, 15720, Note_on_c, 4, 60, 88
8, 15778, Note_off_c, 4, 60, 0
8, 15780, Note_on_c, 4, 58, 88
8, 15838, Note_off_c, 4, 58, 0
8, 15840, Note_on_c, 4, 57, 88
8, 15953, Note_off_c, 4, 57, 0
8, 15960, Note_on_c, 4, 57, 88
8, 16076, Note_off_c, 4, 57, 0
8, 16080, Note_on_c, 4, 58, 88
8, 16193, Note_off_c, 4, 58, 0
8, 16200, Note_on_c, 4, 58, 88
8, 16258, Note_off_c, 4, 58, 0
8, 16260, Note_on_c, 4, 56, 88
8, 16318, Note_off_c, 4, 56, 0
8, 16320, Note_on_c, 4, 54, 88
8, 16433, Note_off_c, 4, 54, 0
8, 16440, Note_on_c, 4, 54, 88
8, 16498, Note_off_c, 4, 54, 0
8, 16500, Note_on_c, 4, 53, 88
8, 16558, Note_off_c, 4, 53, 0
8, 16560, Note_on_c, 4, 51, 88
8, 16673, Note_off_c, 4, 51, 0
8, 16680, Note_on_c, 4, 51, 88
8, 16738, Note_off_c, 4, 51, 0
8, 16740, Note_on_c, 4, 49, 88
8, 16798, Note_off_c, 4, 49, 0
8, 16800, Note_on_c, 4, 48, 88
8, 16913, Note_off_c, 4, 48, 0
8, 16920, Note_on_c, 4, 48, 88
8, 16978, Note_off_c, 4, 48, 0
8, 16980, Note_on_c, 4, 46, 88
8, 17038, Note_off_c, 4, 46, 0
8, 17040, Note_on_c, 4, 45, 88
8, 17156, Note_off_c, 4, 45, 0
8, 17160, Note_on_c, 4, 41, 88
8, 17276, Note_off_c, 4, 41, 0
8, 17280, Note_on_c, 4, 46, 88
8, 17393, Note_off_c, 4, 46, 0
8, 17400, Note_on_c, 4, 46, 88
8, 17458, Note_off_c, 4, 46, 0
8, 17460, Note_on_c, 4, 44, 88
8, 17518, Note_off_c, 4, 44, 0
8, 17520, Note_on_c, 4, 42, 88
8, 17633, Note_off_c, 4, 42, 0
8, 17640, Note_on_c, 4, 42, 88
8, 17698, Note_off_c, 4, 42, 0
8, 17700, Note_on_c, 4, 41, 88
8, 17758, Note_off_c, 4, 41, 0
8, 17760, Note_on_c, 4, 39, 88
8, 17873, Note_off_c, 4, 39, 0
8, 17880, Note_on_c, 4, 39, 88
8, 17993, Note_off_c, 4, 39, 0
8, 18000, Note_on_c, 4, 39, 88
8, 18113, Note_off_c, 4, 39, 0
8, 18120, Note_on_c, 4, 39, 88
8, 18236, Note_off_c, 4, 39, 0
8, 18240, Note_on_c, 4, 41, 88
8, 18356, Note_off_c, 4, 41, 0
8, 18360, Note_on_c, 4, 53, 88
8, 18473, Note_off_c, 4, 53, 0
8, 18480, Note_on_c, 4, 53, 88
8, 18593, Note_off_c, 4, 53, 0
8, 18600, Note_on_c, 4, 53, 88
8, 18713, Note_off_c, 4, 53, 0
8, 18720, Note_on_c, 4, 53, 88
8, 18833, Note_off_c, 4, 53, 0
8, 18840, Note_on_c, 4, 53, 88
8, 18953, Note_off_c, 4, 53, 0
8, 18960, Note_on_c, 4, 53, 88
8, 19073, Note_off_c, 4, 53, 0
8, 19080, Note_on_c, 4, 53, 88
8, 19196, Note_off_c, 4, 53, 0
8, 19200, Note_on_c, 4, 53, 88
8, 19313, Note_off_c, 4, 53, 0
8, 19320, Note_on_c, 4, 53, 88
8, 19433, Note_off_c, 4, 53, 0
8, 19440, Note_on_c, 4, 53, 88
8, 19553, Note_off_c, 4, 53, 0
8, 19560, Note_on_c, 4, 53, 88
8, 19673, Note_off_c, 4, 53, 0
8, 19680, Note_on_c, 4, 53, 88
8, 19793, Note_off_c, 4, 53, 0
8, 19800, Note_on_c, 4, 53, 88
8, 19913, Note_off_c, 4, 53, 0
8, 19920, Note_on_c, 4, 53, 88
8, 20033, Note_off_c, 4, 53, 0
8, 20040, Note_on_c, 4, 53, 88
8, 20156, Note_off_c, 4, 53, 0
8, 20160, Note_on_c, 4, 53, 88
8, 20276, Note_off_c, 4, 53, 0
8, 20280, Note_on_c, 4, 51, 88
8, 20338, Note_off_c, 4, 51, 0
8, 20340, Note_on_c, 4, 49, 88
8, 20398, Note_off_c, 4, 49, 0
8, 20400, Note_on_c, 4, 48, 88
8, 20400, Note_on_c, 4, 51, 88
8, 20513, Note_off_c, 4, 48, 0
8, 20513, Note_off_c, 4, 51, 0
8, 20520, Note_on_c, 4, 48, 88
8, 20520, Note_on_c, 4, 51, 88
8, 20578, Note_off_c, 4, 48, 0
8, 20578, Note_off_c, 4, 51, 0
8, 20580, Note_on_c, 4, 46, 88
8, 20580, Note_on_c, 4, 49, 88
8, 20638, Note_off_c, 4, 46, 0
8, 20638, Note_off_c, 4, 49, 0
8, 20640, Note_on_c, 4, 45, 88
8, 20640, Note_on_c, 4, 48, 88
8, 20874, Note_off_c, 4, 45, 0
8, 20874, Note_off_c, 4, 48, 0
8, 21000, Note_on_c, 4, 57, 88
8, 21116, Note_off_c, 4, 57, 0
8, 21120, Note_on_c, 4, 58, 88
8, 21236, Note_off_c, 4, 58, 0
8, 21240, Note_on_c, 4, 54, 88
8, 21298, Note_off_c, 4, 54, 0
8, 21300, Note_on_c, 4, 51, 88
8, 21358, Note_off_c, 4, 51, 0
8, 21360, Note_on_c, 4, 53, 88
8, 21476, Note_off_c, 4, 53, 0
8, 21480, Note_on_c, 4, 41, 88
8, 21596, Note_off_c, 4, 41, 0
8, 21600, Note_on_c, 4, 46, 88
8, 21713, Note_off_c, 4, 46, 0
8, 21720, Note_on_c, 4, 46, 88
8, 21833, Note_off_c, 4, 46, 0
8, 21840, Note_on_c, 4, 46, 88
8, 21953, Note_off_c, 4, 46, 0
8, 21960, Note_on_c, 4, 46, 88
8, 22076, Note_off_c, 4, 46, 0
8, 22080, Note_on_c, 4, 46, 88
8, 22193, Note_off_c, 4, 46, 0
8, 22200, Note_on_c, 4, 46, 88
8, 22313, Note_off_c, 4, 46, 0
8, 22320, Note_on_c, 4, 46, 88
8, 22433, Note_off_c, 4, 46, 0
8, 22440, Note_on_c, 4, 46, 88
8, 22553, Note_off_c, 4, 46, 0
8, 22560, Note_on_c, 4, 46, 88
8, 23030, Note_off_c, 4, 46, 0
8, 23030, End_track
0, 0, End_of_file
