0, 0, Header, 1, 8, 240
1, 0, Start_track
1, 0, Time_signature, 4, 2, 24, 8
1, 0, Tempo, 909090
1, 0, SMPTE_offset, 64, 0, 0, 0, 93
1, 0, End_track
2, 0, Start_track
2, 0, Title_t, "(C) & (P) 1993"
2, 127, End_track
3, 0, Start_track
3, 0, Title_t, "CCARH,Stanford"
3, 0, End_track
4, 0, Start_track
4, 0, Title_t, "Track 1"
4, 0, Program_c, 0, 6
4, 60, Note_on_c, 0, 71, 88
4, 118, Note_off_c, 0, 71, 0
4, 120, Note_on_c, 0, 70, 88
4, 178, Note_off_c, 0, 70, 0
4, 180, Note_on_c, 0, 71, 88
4, 238, Note_off_c, 0, 71, 0
4, 240, Note_on_c, 0, 73, 88
4, 298, Note_off_c, 0, 73, 0
4, 300, Note_on_c, 0, 70, 88
4, 358, Note_off_c, 0, 70, 0
4, 360, Note_on_c, 0, 71, 88
4, 418, Note_off_c, 0, 71, 0
4, 420, Note_on_c, 0, 73, 88
4, 478, Note_off_c, 0, 73, 0
4, 540, Note_on_c, 0, 75, 88
4, 598, Note_off_c, 0, 75, 0
4, 600, Note_on_c, 0, 73, 88
4, 658, Note_off_c, 0, 73, 0
4, 660, Note_on_c, 0, 75, 88
4, 718, Note_off_c, 0, 75, 0
4, 720, Note_on_c, 0, 76, 88
4, 778, Note_off_c, 0, 76, 0
4, 780, Note_on_c, 0, 73, 88
4, 838, Note_off_c, 0, 73, 0
4, 840, Note_on_c, 0, 75, 88
4, 898, Note_off_c, 0, 75, 0
4, 900, Note_on_c, 0, 76, 88
4, 958, Note_off_c, 0, 76, 0
4, 1020, Note_on_c, 0, 76, 88
4, 1078, Note_off_c, 0, 76, 0
4, 1080, Note_on_c, 0, 75, 88
4, 1138, Note_off_c, 0, 75, 0
4, 1140, Note_on_c, 0, 76, 88
4, 1198, Note_off_c, 0, 76, 0
4, 1200, Note_on_c, 0, 78, 88
4, 1258, Note_off_c, 0, 78, 0
4, 1260, Note_on_c, 0, 73, 88
4, 1318, Note_off_c, 0, 73, 0
4, 1320, Note_on_c, 0, 75, 88
4, 1378, Note_off_c, 0, 75, 0
4, 1380, Note_on_c, 0, 76, 88
4, 1438, Note_off_c, 0, 76, 0
4, 1440, Note_on_c, 0, 75, 88
4, 1910, Note_off_c, 0, 75, 0
4, 1920, Note_on_c, 0, 73, 88
4, 2451, Note_off_c, 0, 73, 0
4, 2460, Note_on_c, 0, 70, 88
4, 2518, Note_off_c, 0, 70, 0
4, 2520, Note_on_c, 0, 68, 88
4, 2578, Note_off_c, 0, 68, 0
4, 2580, Note_on_c, 0, 70, 88
4, 2638, Note_off_c, 0, 70, 0
4, 2640, Note_on_c, 0, 71, 88
4, 2698, Note_off_c, 0, 71, 0
4, 2700, Note_on_c, 0, 68, 88
4, 2758, Note_off_c, 0, 68, 0
4, 2760, Note_on_c, 0, 70, 88
4, 2818, Note_off_c, 0, 70, 0
4, 2820, Note_on_c, 0, 71, 88
4, 2938, Note_off_c, 0, 71, 0
4, 2940, Note_on_c, 0, 68, 88
4, 2998, Note_off_c, 0, 68, 0
4, 3000, Note_on_c, 0, 66, 88
4, 3058, Note_off_c, 0, 66, 0
4, 3060, Note_on_c, 0, 68, 88
4, 3118, Note_off_c, 0, 68, 0
4, 3120, Note_on_c, 0, 70, 88
4, 3178, Note_off_c, 0, 70, 0
4, 3180, Note_on_c, 0, 66, 88
4, 3238, Note_off_c, 0, 66, 0
4, 3240, Note_on_c, 0, 68, 88
4, 3298, Note_off_c, 0, 68, 0
4, 3300, Note_on_c, 0, 70, 88
4, 3594, Note_off_c, 0, 70, 0
4, 3600, Note_on_c, 0, 68, 88
4, 3716, Note_off_c, 0, 68, 0
4, 3720, Note_on_c, 0, 66, 88
4, 3836, Note_off_c, 0, 66, 0
4, 3840, Note_on_c, 0, 65, 88
4, 4074, Note_off_c, 0, 65, 0
4, 4080, Note_on_c, 0, 66, 88
4, 4549, Note_off_c, 0, 66, 0
4, 4560, Note_on_c, 0, 66, 88
4, 4589, Note_off_c, 0, 66, 0
4, 4590, Note_on_c, 0, 65, 88
4, 4619, Note_off_c, 0, 65, 0
4, 4620, Note_on_c, 0, 66, 88
4, 4649, Note_off_c, 0, 66, 0
4, 4650, Note_on_c, 0, 65, 88
4, 4679, Note_off_c, 0, 65, 0
4, 4680, Note_on_c, 0, 66, 88
4, 4709, Note_off_c, 0, 66, 0
4, 4710, Note_on_c, 0, 65, 88
4, 4739, Note_off_c, 0, 65, 0
4, 4740, Note_on_c, 0, 63, 88
4, 4769, Note_off_c, 0, 63, 0
4, 4770, Note_on_c, 0, 65, 88
4, 4799, Note_off_c, 0, 65, 0
4, 4800, Note_on_c, 0, 66, 88
4, 5745, Note_off_c, 0, 66, 0
4, 5820, Note_on_c, 0, 68, 88
4, 5878, Note_off_c, 0, 68, 0
4, 5880, Note_on_c, 0, 67, 88
4, 5938, Note_off_c, 0, 67, 0
4, 5940, Note_on_c, 0, 68, 88
4, 5998, Note_off_c, 0, 68, 0
4, 6000, Note_on_c, 0, 70, 88
4, 6058, Note_off_c, 0, 70, 0
4, 6060, Note_on_c, 0, 67, 88
4, 6118, Note_off_c, 0, 67, 0
4, 6120, Note_on_c, 0, 68, 88
4, 6178, Note_off_c, 0, 68, 0
4, 6180, Note_on_c, 0, 70, 88
4, 6238, Note_off_c, 0, 70, 0
4, 6240, Note_on_c, 0, 67, 88
4, 6298, Note_off_c, 0, 67, 0
4, 6300, Note_on_c, 0, 70, 88
4, 6358, Note_off_c, 0, 70, 0
4, 6360, Note_on_c, 0, 68, 88
4, 6418, Note_off_c, 0, 68, 0
4, 6420, Note_on_c, 0, 70, 88
4, 6478, Note_off_c, 0, 70, 0
4, 6480, Note_on_c, 0, 71, 88
4, 6538, Note_off_c, 0, 71, 0
4, 6540, Note_on_c, 0, 68, 88
4, 6598, Note_off_c, 0, 68, 0
4, 6600, Note_on_c, 0, 70, 88
4, 6658, Note_off_c, 0, 70, 0
4, 6660, Note_on_c, 0, 71, 88
4, 6718, Note_off_c, 0, 71, 0
4, 6720, Note_on_c, 0, 73, 88
4, 6778, Note_off_c, 0, 73, 0
4, 6780, Note_on_c, 0, 80, 88
4, 6838, Note_off_c, 0, 80, 0
4, 6840, Note_on_c, 0, 79, 88
4, 6898, Note_off_c, 0, 79, 0
4, 6900, Note_on_c, 0, 80, 88
4, 6958, Note_off_c, 0, 80, 0
4, 6960, Note_on_c, 0, 82, 88
4, 7018, Note_off_c, 0, 82, 0
4, 7020, Note_on_c, 0, 79, 88
4, 7078, Note_off_c, 0, 79, 0
4, 7080, Note_on_c, 0, 80, 88
4, 7138, Note_off_c, 0, 80, 0
4, 7140, Note_on_c, 0, 82, 88
4, 7198, Note_off_c, 0, 82, 0
4, 7200, Note_on_c, 0, 75, 88
4, 7670, Note_off_c, 0, 75, 0
4, 7680, Note_on_c, 0, 73, 88
4, 8211, Note_off_c, 0, 73, 0
4, 8220, Note_on_c, 0, 75, 88
4, 8278, Note_off_c, 0, 75, 0
4, 8280, Note_on_c, 0, 73, 88
4, 8338, Note_off_c, 0, 73, 0
4, 8340, Note_on_c, 0, 75, 88
4, 8398, Note_off_c, 0, 75, 0
4, 8400, Note_on_c, 0, 76, 88
4, 8458, Note_off_c, 0, 76, 0
4, 8460, Note_on_c, 0, 73, 88
4, 8518, Note_off_c, 0, 73, 0
4, 8520, Note_on_c, 0, 75, 88
4, 8578, Note_off_c, 0, 75, 0
4, 8580, Note_on_c, 0, 76, 88
4, 8638, Note_off_c, 0, 76, 0
4, 8640, Note_on_c, 0, 70, 88
4, 8698, Note_off_c, 0, 70, 0
4, 8700, Note_on_c, 0, 71, 88
4, 8758, Note_off_c, 0, 71, 0
4, 8760, Note_on_c, 0, 70, 88
4, 8818, Note_off_c, 0, 70, 0
4, 8820, Note_on_c, 0, 71, 88
4, 8878, Note_off_c, 0, 71, 0
4, 8880, Note_on_c, 0, 73, 88
4, 8938, Note_off_c, 0, 73, 0
4, 8940, Note_on_c, 0, 70, 88
4, 8998, Note_off_c, 0, 70, 0
4, 9000, Note_on_c, 0, 71, 88
4, 9058, Note_off_c, 0, 71, 0
4, 9060, Note_on_c, 0, 73, 88
4, 9118, Note_off_c, 0, 73, 0
4, 9120, Note_on_c, 0, 71, 88
4, 9236, Note_off_c, 0, 71, 0
4, 9240, Note_on_c, 0, 75, 88
4, 9356, Note_off_c, 0, 75, 0
4, 9360, Note_on_c, 0, 80, 88
4, 9476, Note_off_c, 0, 80, 0
4, 9480, Note_on_c, 0, 78, 88
4, 9596, Note_off_c, 0, 78, 0
4, 9600, Note_on_c, 0, 77, 88
4, 10070, Note_off_c, 0, 77, 0
4, 10200, Note_on_c, 0, 73, 88
4, 10316, Note_off_c, 0, 73, 0
4, 10320, Note_on_c, 0, 78, 88
4, 10436, Note_off_c, 0, 78, 0
4, 10440, Note_on_c, 0, 76, 88
4, 10556, Note_off_c, 0, 76, 0
4, 10560, Note_on_c, 0, 75, 88
4, 11030, Note_off_c, 0, 75, 0
4, 11040, Note_on_c, 0, 76, 88
4, 11578, Note_off_c, 0, 76, 0
4, 11580, Note_on_c, 0, 73, 88
4, 11638, Note_off_c, 0, 73, 0
4, 11640, Note_on_c, 0, 71, 88
4, 11698, Note_off_c, 0, 71, 0
4, 11700, Note_on_c, 0, 73, 88
4, 11758, Note_off_c, 0, 73, 0
4, 11760, Note_on_c, 0, 75, 88
4, 11818, Note_off_c, 0, 75, 0
4, 11820, Note_on_c, 0, 71, 88
4, 11878, Note_off_c, 0, 71, 0
4, 11880, Note_on_c, 0, 73, 88
4, 11938, Note_off_c, 0, 73, 0
4, 11940, Note_on_c, 0, 75, 88
4, 12234, Note_off_c, 0, 75, 0
4, 12240, Note_on_c, 0, 73, 88
4, 12356, Note_off_c, 0, 73, 0
4, 12360, Note_on_c, 0, 71, 88
4, 12476, Note_off_c, 0, 71, 0
4, 12480, Note_on_c, 0, 70, 88
4, 12714, Note_off_c, 0, 70, 0
4, 12720, Note_on_c, 0, 71, 88
4, 13190, Note_off_c, 0, 71, 0
4, 13200, Note_on_c, 0, 70, 88
4, 13434, Note_off_c, 0, 70, 0
4, 13500, Note_on_c, 0, 69, 88
4, 13558, Note_off_c, 0, 69, 0
4, 13560, Note_on_c, 0, 71, 88
4, 13618, Note_off_c, 0, 71, 0
4, 13620, Note_on_c, 0, 69, 88
4, 13678, Note_off_c, 0, 69, 0
4, 13680, Note_on_c, 0, 68, 88
4, 13738, Note_off_c, 0, 68, 0
4, 13740, Note_on_c, 0, 71, 88
4, 13798, Note_off_c, 0, 71, 0
4, 13800, Note_on_c, 0, 69, 88
4, 13858, Note_off_c, 0, 69, 0
4, 13860, Note_on_c, 0, 68, 88
4, 13918, Note_off_c, 0, 68, 0
4, 13920, Note_on_c, 0, 66, 88
4, 14449, Note_off_c, 0, 66, 0
4, 14460, Note_on_c, 0, 66, 88
4, 14518, Note_off_c, 0, 66, 0
4, 14520, Note_on_c, 0, 68, 88
4, 14578, Note_off_c, 0, 68, 0
4, 14580, Note_on_c, 0, 66, 88
4, 14638, Note_off_c, 0, 66, 0
4, 14640, Note_on_c, 0, 65, 88
4, 14698, Note_off_c, 0, 65, 0
4, 14700, Note_on_c, 0, 68, 88
4, 14758, Note_off_c, 0, 68, 0
4, 14760, Note_on_c, 0, 66, 88
4, 14818, Note_off_c, 0, 66, 0
4, 14820, Note_on_c, 0, 65, 88
4, 14878, Note_off_c, 0, 65, 0
4, 14880, Note_on_c, 0, 71, 88
4, 14938, Note_off_c, 0, 71, 0
4, 14940, Note_on_c, 0, 73, 88
4, 14998, Note_off_c, 0, 73, 0
4, 15000, Note_on_c, 0, 71, 88
4, 15058, Note_off_c, 0, 71, 0
4, 15060, Note_on_c, 0, 73, 88
4, 15118, Note_off_c, 0, 73, 0
4, 15120, Note_on_c, 0, 74, 88
4, 15178, Note_off_c, 0, 74, 0
4, 15180, Note_on_c, 0, 71, 88
4, 15238, Note_off_c, 0, 71, 0
4, 15240, Note_on_c, 0, 73, 88
4, 15298, Note_off_c, 0, 73, 0
4, 15300, Note_on_c, 0, 74, 88
4, 15358, Note_off_c, 0, 74, 0
4, 15360, Note_on_c, 0, 70, 88
4, 15594, Note_off_c, 0, 70, 0
4, 15600, Note_on_c, 0, 71, 88
4, 15834, Note_off_c, 0, 71, 0
4, 15840, Note_on_c, 0, 73, 88
4, 16074, Note_off_c, 0, 73, 0
4, 16080, Note_on_c, 0, 75, 88
4, 16314, Note_off_c, 0, 75, 0
4, 16380, Note_on_c, 0, 76, 88
4, 16438, Note_off_c, 0, 76, 0
4, 16440, Note_on_c, 0, 78, 88
4, 16498, Note_off_c, 0, 78, 0
4, 16500, Note_on_c, 0, 76, 88
4, 16558, Note_off_c, 0, 76, 0
4, 16560, Note_on_c, 0, 75, 88
4, 16618, Note_off_c, 0, 75, 0
4, 16620, Note_on_c, 0, 78, 88
4, 16678, Note_off_c, 0, 78, 0
4, 16680, Note_on_c, 0, 76, 88
4, 16738, Note_off_c, 0, 76, 0
4, 16740, Note_on_c, 0, 75, 88
4, 16798, Note_off_c, 0, 75, 0
4, 16800, Note_on_c, 0, 73, 88
4, 17034, Note_off_c, 0, 73, 0
4, 17040, Note_on_c, 0, 71, 88
4, 17509, Note_off_c, 0, 71, 0
4, 17520, Note_on_c, 0, 71, 88
4, 17549, Note_off_c, 0, 71, 0
4, 17550, Note_on_c, 0, 70, 88
4, 17579, Note_off_c, 0, 70, 0
4, 17580, Note_on_c, 0, 71, 88
4, 17609, Note_off_c, 0, 71, 0
4, 17610, Note_on_c, 0, 70, 88
4, 17639, Note_off_c, 0, 70, 0
4, 17640, Note_on_c, 0, 71, 88
4, 17669, Note_off_c, 0, 71, 0
4, 17670, Note_on_c, 0, 70, 88
4, 17699, Note_off_c, 0, 70, 0
4, 17700, Note_on_c, 0, 68, 88
4, 17729, Note_off_c, 0, 68, 0
4, 17730, Note_on_c, 0, 70, 88
4, 17759, Note_off_c, 0, 70, 0
4, 17760, Note_on_c, 0, 71, 88
4, 18230, Note_off_c, 0, 71, 0
4, 18230, End_track
5, 0, Start_track
5, 0, Title_t, "Track 2"
5, 0, Program_c, 1, 6
5, 17520, Note_on_c, 1, 66, 88
5, 17749, Note_off_c, 1, 66, 0
5, 17760, Note_on_c, 1, 66, 88
5, 18230, Note_off_c, 1, 66, 0
5, 18230, End_track
6, 0, Start_track
6, 0, Title_t, "Track 3"
6, 0, Program_c, 2, 6
6, 14820, Note_on_c, 2, 65, 88
6, 15351, Note_off_c, 2, 65, 0
6, 15360, Note_on_c, 2, 66, 88
6, 15594, Note_off_c, 2, 66, 0
6, 15600, Note_on_c, 2, 68, 88
6, 15834, Note_off_c, 2, 68, 0
6, 15840, Note_on_c, 2, 70, 88
6, 16074, Note_off_c, 2, 70, 0
6, 16080, Note_on_c, 2, 71, 88
6, 16314, Note_off_c, 2, 71, 0
6, 16320, Note_on_c, 2, 73, 88
6, 16554, Note_off_c, 2, 73, 0
6, 16560, Note_on_c, 2, 71, 88
6, 16794, Note_off_c, 2, 71, 0
6, 16860, Note_on_c, 2, 64, 88
6, 16918, Note_off_c, 2, 64, 0
6, 16920, Note_on_c, 2, 66, 88
6, 16978, Note_off_c, 2, 66, 0
6, 16980, Note_on_c, 2, 64, 88
6, 17038, Note_off_c, 2, 64, 0
6, 17040, Note_on_c, 2, 63, 88
6, 17098, Note_off_c, 2, 63, 0
6, 17100, Note_on_c, 2, 66, 88
6, 17158, Note_off_c, 2, 66, 0
6, 17160, Note_on_c, 2, 64, 88
6, 17218, Note_off_c, 2, 64, 0
6, 17220, Note_on_c, 2, 63, 88
6, 17278, Note_off_c, 2, 63, 0
6, 17280, Note_on_c, 2, 61, 88
6, 17750, Note_off_c, 2, 61, 0
6, 17760, Note_on_c, 2, 59, 88
6, 18230, Note_off_c, 2, 59, 0
6, 18230, End_track
7, 0, Start_track
7, 0, Title_t, "Track 4"
7, 0, Program_c, 3, 6
7, 0, Note_on_c, 3, 63, 88
7, 234, Note_off_c, 3, 63, 0
7, 240, Note_on_c, 3, 64, 88
7, 474, Note_off_c, 3, 64, 0
7, 480, Note_on_c, 3, 66, 88
7, 714, Note_off_c, 3, 66, 0
7, 720, Note_on_c, 3, 68, 88
7, 954, Note_off_c, 3, 68, 0
7, 960, Note_on_c, 3, 70, 88
7, 1430, Note_off_c, 3, 70, 0
7, 1500, Note_on_c, 3, 70, 88
7, 1558, Note_off_c, 3, 70, 0
7, 1560, Note_on_c, 3, 68, 88
7, 1618, Note_off_c, 3, 68, 0
7, 1620, Note_on_c, 3, 70, 88
7, 1678, Note_off_c, 3, 70, 0
7, 1680, Note_on_c, 3, 71, 88
7, 1738, Note_off_c, 3, 71, 0
7, 1740, Note_on_c, 3, 68, 88
7, 1798, Note_off_c, 3, 68, 0
7, 1800, Note_on_c, 3, 70, 88
7, 1858, Note_off_c, 3, 70, 0
7, 1860, Note_on_c, 3, 71, 88
7, 1918, Note_off_c, 3, 71, 0
7, 1920, Note_on_c, 3, 65, 88
7, 2154, Note_off_c, 3, 65, 0
7, 2160, Note_on_c, 3, 66, 88
7, 2868, Note_off_c, 3, 66, 0
7, 2880, Note_on_c, 3, 65, 88
7, 3114, Note_off_c, 3, 65, 0
7, 3120, Note_on_c, 3, 64, 88
7, 3354, Note_off_c, 3, 64, 0
7, 3360, Note_on_c, 3, 63, 88
7, 3956, Note_off_c, 3, 63, 0
7, 3960, Note_on_c, 3, 61, 88
7, 4076, Note_off_c, 3, 61, 0
7, 4080, Note_on_c, 3, 59, 88
7, 4196, Note_off_c, 3, 59, 0
7, 4200, Note_on_c, 3, 58, 88
7, 4316, Note_off_c, 3, 58, 0
7, 4320, Note_on_c, 3, 59, 88
7, 4378, Note_off_c, 3, 59, 0
7, 4380, Note_on_c, 3, 58, 88
7, 4438, Note_off_c, 3, 58, 0
7, 4440, Note_on_c, 3, 56, 88
7, 4498, Note_off_c, 3, 56, 0
7, 4500, Note_on_c, 3, 58, 88
7, 4558, Note_off_c, 3, 58, 0
7, 4560, Note_on_c, 3, 59, 88
7, 4618, Note_off_c, 3, 59, 0
7, 4620, Note_on_c, 3, 56, 88
7, 4678, Note_off_c, 3, 56, 0
7, 4680, Note_on_c, 3, 58, 88
7, 4738, Note_off_c, 3, 58, 0
7, 4740, Note_on_c, 3, 59, 88
7, 4798, Note_off_c, 3, 59, 0
7, 4800, Note_on_c, 3, 58, 88
7, 5034, Note_off_c, 3, 58, 0
7, 5040, Note_on_c, 3, 59, 88
7, 5274, Note_off_c, 3, 59, 0
7, 5280, Note_on_c, 3, 61, 88
7, 5514, Note_off_c, 3, 61, 0
7, 5520, Note_on_c, 3, 63, 88
7, 5994, Note_off_c, 3, 63, 0
7, 6000, Note_on_c, 3, 61, 88
7, 6470, Note_off_c, 3, 61, 0
7, 6480, Note_on_c, 3, 59, 88
7, 6714, Note_off_c, 3, 59, 0
7, 6720, Note_on_c, 3, 58, 88
7, 6836, Note_off_c, 3, 58, 0
7, 6840, Note_on_c, 3, 56, 88
7, 7074, Note_off_c, 3, 56, 0
7, 7080, Note_on_c, 3, 55, 88
7, 7255, Note_off_c, 3, 55, 0
7, 7260, Note_on_c, 3, 70, 88
7, 7318, Note_off_c, 3, 70, 0
7, 7320, Note_on_c, 3, 68, 88
7, 7378, Note_off_c, 3, 68, 0
7, 7380, Note_on_c, 3, 70, 88
7, 7438, Note_off_c, 3, 70, 0
7, 7440, Note_on_c, 3, 71, 88
7, 7498, Note_off_c, 3, 71, 0
7, 7500, Note_on_c, 3, 68, 88
7, 7558, Note_off_c, 3, 68, 0
7, 7560, Note_on_c, 3, 70, 88
7, 7618, Note_off_c, 3, 70, 0
7, 7620, Note_on_c, 3, 71, 88
7, 7678, Note_off_c, 3, 71, 0
7, 7680, Note_on_c, 3, 64, 88
7, 7738, Note_off_c, 3, 64, 0
7, 7740, Note_on_c, 3, 71, 88
7, 7798, Note_off_c, 3, 71, 0
7, 7800, Note_on_c, 3, 70, 88
7, 7858, Note_off_c, 3, 70, 0
7, 7860, Note_on_c, 3, 68, 88
7, 7918, Note_off_c, 3, 68, 0
7, 7920, Note_on_c, 3, 67, 88
7, 8390, Note_off_c, 3, 67, 0
7, 8400, Note_on_c, 3, 68, 88
7, 8869, Note_off_c, 3, 68, 0
7, 8880, Note_on_c, 3, 68, 88
7, 8909, Note_off_c, 3, 68, 0
7, 8910, Note_on_c, 3, 67, 88
7, 8939, Note_off_c, 3, 67, 0
7, 8940, Note_on_c, 3, 68, 88
7, 8969, Note_off_c, 3, 68, 0
7, 8970, Note_on_c, 3, 67, 88
7, 8999, Note_off_c, 3, 67, 0
7, 9000, Note_on_c, 3, 68, 88
7, 9029, Note_off_c, 3, 68, 0
7, 9030, Note_on_c, 3, 67, 88
7, 9059, Note_off_c, 3, 67, 0
7, 9060, Note_on_c, 3, 65, 88
7, 9089, Note_off_c, 3, 65, 0
7, 9090, Note_on_c, 3, 67, 88
7, 9119, Note_off_c, 3, 67, 0
7, 9120, Note_on_c, 3, 68, 88
7, 9354, Note_off_c, 3, 68, 0
7, 9660, Note_on_c, 3, 73, 88
7, 9718, Note_off_c, 3, 73, 0
7, 9720, Note_on_c, 3, 71, 88
7, 9778, Note_off_c, 3, 71, 0
7, 9780, Note_on_c, 3, 73, 88
7, 9838, Note_off_c, 3, 73, 0
7, 9840, Note_on_c, 3, 74, 88
7, 9898, Note_off_c, 3, 74, 0
7, 9900, Note_on_c, 3, 71, 88
7, 9958, Note_off_c, 3, 71, 0
7, 9960, Note_on_c, 3, 73, 88
7, 10018, Note_off_c, 3, 73, 0
7, 10020, Note_on_c, 3, 74, 88
7, 10078, Note_off_c, 3, 74, 0
7, 10080, Note_on_c, 3, 69, 88
7, 10550, Note_off_c, 3, 69, 0
7, 10620, Note_on_c, 3, 69, 88
7, 10678, Note_off_c, 3, 69, 0
7, 10680, Note_on_c, 3, 68, 88
7, 10738, Note_off_c, 3, 68, 0
7, 10740, Note_on_c, 3, 69, 88
7, 10798, Note_off_c, 3, 69, 0
7, 10800, Note_on_c, 3, 71, 88
7, 10858, Note_off_c, 3, 71, 0
7, 10860, Note_on_c, 3, 66, 88
7, 10918, Note_off_c, 3, 66, 0
7, 10920, Note_on_c, 3, 68, 88
7, 10978, Note_off_c, 3, 68, 0
7, 10980, Note_on_c, 3, 69, 88
7, 11038, Note_off_c, 3, 69, 0
7, 11040, Note_on_c, 3, 68, 88
7, 11274, Note_off_c, 3, 68, 0
7, 11280, Note_on_c, 3, 70, 88
7, 11396, Note_off_c, 3, 70, 0
7, 11400, Note_on_c, 3, 71, 88
7, 11516, Note_off_c, 3, 71, 0
7, 11520, Note_on_c, 3, 70, 88
7, 11754, Note_off_c, 3, 70, 0
7, 11760, Note_on_c, 3, 69, 88
7, 11994, Note_off_c, 3, 69, 0
7, 12000, Note_on_c, 3, 68, 88
7, 12596, Note_off_c, 3, 68, 0
7, 12600, Note_on_c, 3, 66, 88
7, 12716, Note_off_c, 3, 66, 0
7, 12720, Note_on_c, 3, 64, 88
7, 12836, Note_off_c, 3, 64, 0
7, 12840, Note_on_c, 3, 63, 88
7, 12956, Note_off_c, 3, 63, 0
7, 12960, Note_on_c, 3, 64, 88
7, 13018, Note_off_c, 3, 64, 0
7, 13020, Note_on_c, 3, 63, 88
7, 13078, Note_off_c, 3, 63, 0
7, 13080, Note_on_c, 3, 61, 88
7, 13138, Note_off_c, 3, 61, 0
7, 13140, Note_on_c, 3, 63, 88
7, 13198, Note_off_c, 3, 63, 0
7, 13200, Note_on_c, 3, 64, 88
7, 13258, Note_off_c, 3, 64, 0
7, 13260, Note_on_c, 3, 61, 88
7, 13318, Note_off_c, 3, 61, 0
7, 13320, Note_on_c, 3, 63, 88
7, 13378, Note_off_c, 3, 63, 0
7, 13380, Note_on_c, 3, 64, 88
7, 13438, Note_off_c, 3, 64, 0
7, 13440, Note_on_c, 3, 63, 88
7, 13674, Note_off_c, 3, 63, 0
7, 13680, Note_on_c, 3, 64, 88
7, 14150, Note_off_c, 3, 64, 0
7, 14160, Note_on_c, 3, 63, 88
7, 14276, Note_off_c, 3, 63, 0
7, 14280, Note_on_c, 3, 61, 88
7, 14396, Note_off_c, 3, 61, 0
7, 14400, Note_on_c, 3, 59, 88
7, 15345, Note_off_c, 3, 59, 0
7, 15420, Note_on_c, 3, 64, 88
7, 15478, Note_off_c, 3, 64, 0
7, 15480, Note_on_c, 3, 66, 88
7, 15538, Note_off_c, 3, 66, 0
7, 15540, Note_on_c, 3, 64, 88
7, 15598, Note_off_c, 3, 64, 0
7, 15600, Note_on_c, 3, 63, 88
7, 15658, Note_off_c, 3, 63, 0
7, 15660, Note_on_c, 3, 66, 88
7, 15718, Note_off_c, 3, 66, 0
7, 15720, Note_on_c, 3, 64, 88
7, 15778, Note_off_c, 3, 64, 0
7, 15780, Note_on_c, 3, 63, 88
7, 15838, Note_off_c, 3, 63, 0
7, 15900, Note_on_c, 3, 61, 88
7, 15958, Note_off_c, 3, 61, 0
7, 15960, Note_on_c, 3, 63, 88
7, 16018, Note_off_c, 3, 63, 0
7, 16020, Note_on_c, 3, 61, 88
7, 16078, Note_off_c, 3, 61, 0
7, 16080, Note_on_c, 3, 59, 88
7, 16138, Note_off_c, 3, 59, 0
7, 16140, Note_on_c, 3, 63, 88
7, 16198, Note_off_c, 3, 63, 0
7, 16200, Note_on_c, 3, 61, 88
7, 16258, Note_off_c, 3, 61, 0
7, 16260, Note_on_c, 3, 59, 88
7, 16318, Note_off_c, 3, 59, 0
7, 16320, Note_on_c, 3, 58, 88
7, 16554, Note_off_c, 3, 58, 0
7, 16560, Note_on_c, 3, 59, 88
7, 16794, Note_off_c, 3, 59, 0
7, 16800, Note_on_c, 3, 54, 88
7, 17338, Note_off_c, 3, 54, 0
7, 17340, Note_on_c, 3, 51, 88
7, 17398, Note_off_c, 3, 51, 0
7, 17400, Note_on_c, 3, 49, 88
7, 17458, Note_off_c, 3, 49, 0
7, 17460, Note_on_c, 3, 51, 88
7, 17518, Note_off_c, 3, 51, 0
7, 17520, Note_on_c, 3, 52, 88
7, 17578, Note_off_c, 3, 52, 0
7, 17580, Note_on_c, 3, 49, 88
7, 17638, Note_off_c, 3, 49, 0
7, 17640, Note_on_c, 3, 51, 88
7, 17698, Note_off_c, 3, 51, 0
7, 17700, Note_on_c, 3, 52, 88
7, 17758, Note_off_c, 3, 52, 0
7, 17760, Note_on_c, 3, 51, 88
7, 18230, Note_off_c, 3, 51, 0
7, 18230, End_track
8, 0, Start_track
8, 0, Title_t, "Track 5"
8, 0, Program_c, 4, 6
8, 0, Note_on_c, 4, 59, 88
8, 1978, Note_off_c, 4, 59, 0
8, 1980, Note_on_c, 4, 56, 88
8, 2038, Note_off_c, 4, 56, 0
8, 2040, Note_on_c, 4, 54, 88
8, 2098, Note_off_c, 4, 54, 0
8, 2100, Note_on_c, 4, 56, 88
8, 2158, Note_off_c, 4, 56, 0
8, 2160, Note_on_c, 4, 58, 88
8, 2218, Note_off_c, 4, 58, 0
8, 2220, Note_on_c, 4, 54, 88
8, 2278, Note_off_c, 4, 54, 0
8, 2280, Note_on_c, 4, 56, 88
8, 2338, Note_off_c, 4, 56, 0
8, 2340, Note_on_c, 4, 58, 88
8, 2398, Note_off_c, 4, 58, 0
8, 2400, Note_on_c, 4, 51, 88
8, 2634, Note_off_c, 4, 51, 0
8, 2640, Note_on_c, 4, 56, 88
8, 2874, Note_off_c, 4, 56, 0
8, 2880, Note_on_c, 4, 49, 88
8, 3114, Note_off_c, 4, 49, 0
8, 3120, Note_on_c, 4, 54, 88
8, 3354, Note_off_c, 4, 54, 0
8, 3360, Note_on_c, 4, 47, 88
8, 3418, Note_off_c, 4, 47, 0
8, 3420, Note_on_c, 4, 58, 88
8, 3478, Note_off_c, 4, 58, 0
8, 3480, Note_on_c, 4, 56, 88
8, 3538, Note_off_c, 4, 56, 0
8, 3540, Note_on_c, 4, 58, 88
8, 3598, Note_off_c, 4, 58, 0
8, 3600, Note_on_c, 4, 59, 88
8, 3658, Note_off_c, 4, 59, 0
8, 3660, Note_on_c, 4, 56, 88
8, 3718, Note_off_c, 4, 56, 0
8, 3720, Note_on_c, 4, 58, 88
8, 3778, Note_off_c, 4, 58, 0
8, 3780, Note_on_c, 4, 59, 88
8, 3838, Note_off_c, 4, 59, 0
8, 3840, Note_on_c, 4, 49, 88
8, 3898, Note_off_c, 4, 49, 0
8, 3900, Note_on_c, 4, 51, 88
8, 3958, Note_off_c, 4, 51, 0
8, 3960, Note_on_c, 4, 47, 88
8, 4018, Note_off_c, 4, 47, 0
8, 4020, Note_on_c, 4, 49, 88
8, 4078, Note_off_c, 4, 49, 0
8, 4080, Note_on_c, 4, 51, 88
8, 4138, Note_off_c, 4, 51, 0
8, 4140, Note_on_c, 4, 47, 88
8, 4198, Note_off_c, 4, 47, 0
8, 4200, Note_on_c, 4, 49, 88
8, 4258, Note_off_c, 4, 49, 0
8, 4260, Note_on_c, 4, 51, 88
8, 4318, Note_off_c, 4, 51, 0
8, 4320, Note_on_c, 4, 44, 88
8, 4554, Note_off_c, 4, 44, 0
8, 4560, Note_on_c, 4, 49, 88
8, 4794, Note_off_c, 4, 49, 0
8, 4800, Note_on_c, 4, 42, 88
8, 4858, Note_off_c, 4, 42, 0
8, 4860, Note_on_c, 4, 49, 88
8, 4918, Note_off_c, 4, 49, 0
8, 4920, Note_on_c, 4, 47, 88
8, 4978, Note_off_c, 4, 47, 0
8, 4980, Note_on_c, 4, 49, 88
8, 5038, Note_off_c, 4, 49, 0
8, 5040, Note_on_c, 4, 51, 88
8, 5098, Note_off_c, 4, 51, 0
8, 5100, Note_on_c, 4, 47, 88
8, 5158, Note_off_c, 4, 47, 0
8, 5160, Note_on_c, 4, 49, 88
8, 5218, Note_off_c, 4, 49, 0
8, 5220, Note_on_c, 4, 51, 88
8, 5278, Note_off_c, 4, 51, 0
8, 5280, Note_on_c, 4, 42, 88
8, 5338, Note_off_c, 4, 42, 0
8, 5340, Note_on_c, 4, 46, 88
8, 5398, Note_off_c, 4, 46, 0
8, 5400, Note_on_c, 4, 44, 88
8, 5458, Note_off_c, 4, 44, 0
8, 5460, Note_on_c, 4, 46, 88
8, 5518, Note_off_c, 4, 46, 0
8, 5520, Note_on_c, 4, 47, 88
8, 5578, Note_off_c, 4, 47, 0
8, 5580, Note_on_c, 4, 44, 88
8, 5638, Note_off_c, 4, 44, 0
8, 5640, Note_on_c, 4, 46, 88
8, 5698, Note_off_c, 4, 46, 0
8, 5700, Note_on_c, 4, 47, 88
8, 5758, Note_off_c, 4, 47, 0
8, 5760, Note_on_c, 4, 40, 88
8, 5994, Note_off_c, 4, 40, 0
8, 6000, Note_on_c, 4, 52, 88
8, 6234, Note_off_c, 4, 52, 0
8, 6240, Note_on_c, 4, 51, 88
8, 6954, Note_off_c, 4, 51, 0
8, 6960, Note_on_c, 4, 49, 88
8, 7194, Note_off_c, 4, 49, 0
8, 7200, Note_on_c, 4, 47, 88
8, 7316, Note_off_c, 4, 47, 0
8, 7320, Note_on_c, 4, 46, 88
8, 7436, Note_off_c, 4, 46, 0
8, 7440, Note_on_c, 4, 44, 88
8, 7738, Note_off_c, 4, 44, 0
8, 7740, Note_on_c, 4, 56, 88
8, 7798, Note_off_c, 4, 56, 0
8, 7800, Note_on_c, 4, 55, 88
8, 7858, Note_off_c, 4, 55, 0
8, 7860, Note_on_c, 4, 56, 88
8, 7918, Note_off_c, 4, 56, 0
8, 7920, Note_on_c, 4, 58, 88
8, 7978, Note_off_c, 4, 58, 0
8, 7980, Note_on_c, 4, 55, 88
8, 8038, Note_off_c, 4, 55, 0
8, 8040, Note_on_c, 4, 56, 88
8, 8098, Note_off_c, 4, 56, 0
8, 8100, Note_on_c, 4, 58, 88
8, 8158, Note_off_c, 4, 58, 0
8, 8160, Note_on_c, 4, 52, 88
8, 8276, Note_off_c, 4, 52, 0
8, 8280, Note_on_c, 4, 64, 88
8, 8396, Note_off_c, 4, 64, 0
8, 8400, Note_on_c, 4, 63, 88
8, 8516, Note_off_c, 4, 63, 0
8, 8520, Note_on_c, 4, 61, 88
8, 8636, Note_off_c, 4, 61, 0
8, 8640, Note_on_c, 4, 63, 88
8, 8756, Note_off_c, 4, 63, 0
8, 8760, Note_on_c, 4, 61, 88
8, 8876, Note_off_c, 4, 61, 0
8, 8880, Note_on_c, 4, 63, 88
8, 8996, Note_off_c, 4, 63, 0
8, 9000, Note_on_c, 4, 51, 88
8, 9116, Note_off_c, 4, 51, 0
8, 9120, Note_on_c, 4, 56, 88
8, 9178, Note_off_c, 4, 56, 0
8, 9180, Note_on_c, 4, 58, 88
8, 9238, Note_off_c, 4, 58, 0
8, 9240, Note_on_c, 4, 56, 88
8, 9298, Note_off_c, 4, 56, 0
8, 9300, Note_on_c, 4, 58, 88
8, 9358, Note_off_c, 4, 58, 0
8, 9360, Note_on_c, 4, 59, 88
8, 9418, Note_off_c, 4, 59, 0
8, 9420, Note_on_c, 4, 56, 88
8, 9478, Note_off_c, 4, 56, 0
8, 9480, Note_on_c, 4, 58, 88
8, 9538, Note_off_c, 4, 58, 0
8, 9540, Note_on_c, 4, 59, 88
8, 9598, Note_off_c, 4, 59, 0
8, 9600, Note_on_c, 4, 49, 88
8, 9716, Note_off_c, 4, 49, 0
8, 9720, Note_on_c, 4, 61, 88
8, 9778, Note_off_c, 4, 61, 0
8, 9780, Note_on_c, 4, 59, 88
8, 9838, Note_off_c, 4, 59, 0
8, 9840, Note_on_c, 4, 57, 88
8, 9956, Note_off_c, 4, 57, 0
8, 9960, Note_on_c, 4, 56, 88
8, 10076, Note_off_c, 4, 56, 0
8, 10080, Note_on_c, 4, 54, 88
8, 10138, Note_off_c, 4, 54, 0
8, 10140, Note_on_c, 4, 56, 88
8, 10198, Note_off_c, 4, 56, 0
8, 10200, Note_on_c, 4, 54, 88
8, 10258, Note_off_c, 4, 54, 0
8, 10260, Note_on_c, 4, 56, 88
8, 10318, Note_off_c, 4, 56, 0
8, 10320, Note_on_c, 4, 57, 88
8, 10378, Note_off_c, 4, 57, 0
8, 10380, Note_on_c, 4, 54, 88
8, 10438, Note_off_c, 4, 54, 0
8, 10440, Note_on_c, 4, 56, 88
8, 10498, Note_off_c, 4, 56, 0
8, 10500, Note_on_c, 4, 57, 88
8, 10558, Note_off_c, 4, 57, 0
8, 10560, Note_on_c, 4, 47, 88
8, 10676, Note_off_c, 4, 47, 0
8, 10680, Note_on_c, 4, 59, 88
8, 10738, Note_off_c, 4, 59, 0
8, 10740, Note_on_c, 4, 57, 88
8, 10798, Note_off_c, 4, 57, 0
8, 10800, Note_on_c, 4, 56, 88
8, 10916, Note_off_c, 4, 56, 0
8, 10920, Note_on_c, 4, 54, 88
8, 11036, Note_off_c, 4, 54, 0
8, 11040, Note_on_c, 4, 52, 88
8, 11098, Note_off_c, 4, 52, 0
8, 11100, Note_on_c, 4, 51, 88
8, 11158, Note_off_c, 4, 51, 0
8, 11160, Note_on_c, 4, 52, 88
8, 11218, Note_off_c, 4, 52, 0
8, 11220, Note_on_c, 4, 51, 88
8, 11278, Note_off_c, 4, 51, 0
8, 11280, Note_on_c, 4, 49, 88
8, 11338, Note_off_c, 4, 49, 0
8, 11340, Note_on_c, 4, 52, 88
8, 11398, Note_off_c, 4, 52, 0
8, 11400, Note_on_c, 4, 51, 88
8, 11458, Note_off_c, 4, 51, 0
8, 11460, Note_on_c, 4, 49, 88
8, 11518, Note_off_c, 4, 49, 0
8, 11520, Note_on_c, 4, 54, 88
8, 11754, Note_off_c, 4, 54, 0
8, 11760, Note_on_c, 4, 47, 88
8, 11994, Note_off_c, 4, 47, 0
8, 12000, Note_on_c, 4, 52, 88
8, 12058, Note_off_c, 4, 52, 0
8, 12060, Note_on_c, 4, 63, 88
8, 12118, Note_off_c, 4, 63, 0
8, 12120, Note_on_c, 4, 61, 88
8, 12178, Note_off_c, 4, 61, 0
8, 12180, Note_on_c, 4, 63, 88
8, 12238, Note_off_c, 4, 63, 0
8, 12240, Note_on_c, 4, 64, 88
8, 12298, Note_off_c, 4, 64, 0
8, 12300, Note_on_c, 4, 61, 88
8, 12358, Note_off_c, 4, 61, 0
8, 12360, Note_on_c, 4, 63, 88
8, 12418, Note_off_c, 4, 63, 0
8, 12420, Note_on_c, 4, 64, 88
8, 12478, Note_off_c, 4, 64, 0
8, 12480, Note_on_c, 4, 54, 88
8, 12538, Note_off_c, 4, 54, 0
8, 12540, Note_on_c, 4, 56, 88
8, 12598, Note_off_c, 4, 56, 0
8, 12600, Note_on_c, 4, 52, 88
8, 12658, Note_off_c, 4, 52, 0
8, 12660, Note_on_c, 4, 54, 88
8, 12718, Note_off_c, 4, 54, 0
8, 12720, Note_on_c, 4, 56, 88
8, 12778, Note_off_c, 4, 56, 0
8, 12780, Note_on_c, 4, 52, 88
8, 12838, Note_off_c, 4, 52, 0
8, 12840, Note_on_c, 4, 54, 88
8, 12898, Note_off_c, 4, 54, 0
8, 12900, Note_on_c, 4, 56, 88
8, 12958, Note_off_c, 4, 56, 0
8, 12960, Note_on_c, 4, 49, 88
8, 13194, Note_off_c, 4, 49, 0
8, 13200, Note_on_c, 4, 54, 88
8, 13434, Note_off_c, 4, 54, 0
8, 13440, Note_on_c, 4, 47, 88
8, 13971, Note_off_c, 4, 47, 0
8, 13980, Note_on_c, 4, 49, 88
8, 14038, Note_off_c, 4, 49, 0
8, 14040, Note_on_c, 4, 51, 88
8, 14098, Note_off_c, 4, 51, 0
8, 14100, Note_on_c, 4, 52, 88
8, 14158, Note_off_c, 4, 52, 0
8, 14160, Note_on_c, 4, 54, 88
8, 14218, Note_off_c, 4, 54, 0
8, 14220, Note_on_c, 4, 57, 88
8, 14278, Note_off_c, 4, 57, 0
8, 14280, Note_on_c, 4, 56, 88
8, 14338, Note_off_c, 4, 56, 0
8, 14340, Note_on_c, 4, 54, 88
8, 14398, Note_off_c, 4, 54, 0
8, 14400, Note_on_c, 4, 56, 88
8, 15345, Note_off_c, 4, 56, 0
8, 15360, Note_on_c, 4, 54, 88
8, 16369, Note_off_c, 4, 54, 0
8, 16380, Note_on_c, 4, 54, 88
8, 16438, Note_off_c, 4, 54, 0
8, 16440, Note_on_c, 4, 52, 88
8, 16498, Note_off_c, 4, 52, 0
8, 16500, Note_on_c, 4, 54, 88
8, 16558, Note_off_c, 4, 54, 0
8, 16560, Note_on_c, 4, 56, 88
8, 16618, Note_off_c, 4, 56, 0
8, 16620, Note_on_c, 4, 52, 88
8, 16678, Note_off_c, 4, 52, 0
8, 16680, Note_on_c, 4, 54, 88
8, 16738, Note_off_c, 4, 54, 0
8, 16740, Note_on_c, 4, 56, 88
8, 16798, Note_off_c, 4, 56, 0
8, 16800, Note_on_c, 4, 46, 88
8, 17034, Note_off_c, 4, 46, 0
8, 17040, Note_on_c, 4, 47, 88
8, 17274, Note_off_c, 4, 47, 0
8, 17280, Note_on_c, 4, 42, 88
8, 17750, Note_off_c, 4, 42, 0
8, 17760, Note_on_c, 4, 47, 88
8, 18230, Note_off_c, 4, 47, 0
8, 18230, End_track
0, 0, End_of_file
