0, 0, Header, 1, 7, 240
1, 0, Start_track
1, 0, Time_signature, 4, 2, 24, 8
1, 0, Tempo, 937500
1, 0, SMPTE_offset, 64, 0, 0, 0, 102
1, 16320, Time_signature, 4, 2, 24, 8
1, 16320, End_track
2, 0, Start_track
2, 0, Title_t, "(C) & (P) 1993"
2, 127, End_track
3, 0, Start_track
3, 0, Title_t, "CCARH,Stanford"
3, 0, End_track
4, 0, Start_track
4, 0, Title_t, "Track 1"
4, 0, Program_c, 0, 6
4, 480, Note_on_c, 0, 73, 88
4, 714, Note_off_c, 0, 73, 0
4, 720, Note_on_c, 0, 78, 88
4, 1194, Note_off_c, 0, 78, 0
4, 1200, Note_on_c, 0, 76, 88
4, 1434, Note_off_c, 0, 76, 0
4, 1440, Note_on_c, 0, 74, 88
4, 2154, Note_off_c, 0, 74, 0
4, 2160, Note_on_c, 0, 73, 88
4, 2276, Note_off_c, 0, 73, 0
4, 2280, Note_on_c, 0, 71, 88
4, 2396, Note_off_c, 0, 71, 0
4, 2400, Note_on_c, 0, 70, 88
4, 2634, Note_off_c, 0, 70, 0
4, 2640, Note_on_c, 0, 71, 88
4, 2756, Note_off_c, 0, 71, 0
4, 2760, Note_on_c, 0, 73, 88
4, 2876, Note_off_c, 0, 73, 0
4, 2880, Note_on_c, 0, 66, 88
4, 3114, Note_off_c, 0, 66, 0
4, 3120, Note_on_c, 0, 71, 88
4, 3590, Note_off_c, 0, 71, 0
4, 3600, Note_on_c, 0, 69, 88
4, 3834, Note_off_c, 0, 69, 0
4, 3840, Note_on_c, 0, 67, 88
4, 4310, Note_off_c, 0, 67, 0
4, 4320, Note_on_c, 0, 66, 88
4, 4790, Note_off_c, 0, 66, 0
4, 4800, Note_on_c, 0, 71, 88
4, 5034, Note_off_c, 0, 71, 0
4, 5040, Note_on_c, 0, 76, 88
4, 5274, Note_off_c, 0, 76, 0
4, 5280, Note_on_c, 0, 69, 88
4, 5514, Note_off_c, 0, 69, 0
4, 5520, Note_on_c, 0, 74, 88
4, 5989, Note_off_c, 0, 74, 0
4, 6000, Note_on_c, 0, 74, 88
4, 6029, Note_off_c, 0, 74, 0
4, 6030, Note_on_c, 0, 73, 88
4, 6059, Note_off_c, 0, 73, 0
4, 6060, Note_on_c, 0, 74, 88
4, 6089, Note_off_c, 0, 74, 0
4, 6090, Note_on_c, 0, 73, 88
4, 6119, Note_off_c, 0, 73, 0
4, 6120, Note_on_c, 0, 74, 88
4, 6149, Note_off_c, 0, 74, 0
4, 6150, Note_on_c, 0, 73, 88
4, 6179, Note_off_c, 0, 73, 0
4, 6180, Note_on_c, 0, 71, 88
4, 6209, Note_off_c, 0, 71, 0
4, 6210, Note_on_c, 0, 73, 88
4, 6239, Note_off_c, 0, 73, 0
4, 6240, Note_on_c, 0, 74, 88
4, 6298, Note_off_c, 0, 74, 0
4, 6300, Note_on_c, 0, 73, 88
4, 6358, Note_off_c, 0, 73, 0
4, 6360, Note_on_c, 0, 71, 88
4, 6418, Note_off_c, 0, 71, 0
4, 6420, Note_on_c, 0, 69, 88
4, 6478, Note_off_c, 0, 69, 0
4, 6480, Note_on_c, 0, 74, 88
4, 6954, Note_off_c, 0, 74, 0
4, 6960, Note_on_c, 0, 73, 88
4, 7194, Note_off_c, 0, 73, 0
4, 7200, Note_on_c, 0, 71, 88
4, 7434, Note_off_c, 0, 71, 0
4, 7440, Note_on_c, 0, 76, 88
4, 7914, Note_off_c, 0, 76, 0
4, 7920, Note_on_c, 0, 74, 88
4, 8154, Note_off_c, 0, 74, 0
4, 8160, Note_on_c, 0, 73, 88
4, 8394, Note_off_c, 0, 73, 0
4, 8400, Note_on_c, 0, 78, 88
4, 8874, Note_off_c, 0, 78, 0
4, 8880, Note_on_c, 0, 77, 88
4, 9114, Note_off_c, 0, 77, 0
4, 9120, Note_on_c, 0, 78, 88
4, 9354, Note_off_c, 0, 78, 0
4, 9360, Note_on_c, 0, 80, 88
4, 9594, Note_off_c, 0, 80, 0
4, 9600, Note_on_c, 0, 73, 88
4, 9834, Note_off_c, 0, 73, 0
4, 9840, Note_on_c, 0, 78, 88
4, 10309, Note_off_c, 0, 78, 0
4, 10320, Note_on_c, 0, 78, 88
4, 10349, Note_off_c, 0, 78, 0
4, 10350, Note_on_c, 0, 77, 88
4, 10379, Note_off_c, 0, 77, 0
4, 10380, Note_on_c, 0, 78, 88
4, 10409, Note_off_c, 0, 78, 0
4, 10410, Note_on_c, 0, 77, 88
4, 10439, Note_off_c, 0, 77, 0
4, 10440, Note_on_c, 0, 78, 88
4, 10469, Note_off_c, 0, 78, 0
4, 10470, Note_on_c, 0, 77, 88
4, 10499, Note_off_c, 0, 77, 0
4, 10500, Note_on_c, 0, 75, 88
4, 10529, Note_off_c, 0, 75, 0
4, 10530, Note_on_c, 0, 77, 88
4, 10559, Note_off_c, 0, 77, 0
4, 10560, Note_on_c, 0, 78, 88
4, 10794, Note_off_c, 0, 78, 0
4, 11040, Note_on_c, 0, 76, 88
4, 11274, Note_off_c, 0, 76, 0
4, 11280, Note_on_c, 0, 81, 88
4, 11754, Note_off_c, 0, 81, 0
4, 11760, Note_on_c, 0, 79, 88
4, 11994, Note_off_c, 0, 79, 0
4, 12000, Note_on_c, 0, 78, 88
4, 12234, Note_off_c, 0, 78, 0
4, 12240, Note_on_c, 0, 83, 88
4, 12714, Note_off_c, 0, 83, 0
4, 12720, Note_on_c, 0, 82, 88
4, 12954, Note_off_c, 0, 82, 0
4, 12960, Note_on_c, 0, 83, 88
4, 13313, Note_off_c, 0, 83, 0
4, 13320, Note_on_c, 0, 81, 88
4, 13378, Note_off_c, 0, 81, 0
4, 13380, Note_on_c, 0, 79, 88
4, 13438, Note_off_c, 0, 79, 0
4, 13440, Note_on_c, 0, 78, 88
4, 13793, Note_off_c, 0, 78, 0
4, 13800, Note_on_c, 0, 79, 88
4, 13916, Note_off_c, 0, 79, 0
4, 13920, Note_on_c, 0, 74, 88
4, 14149, Note_off_c, 0, 74, 0
4, 14160, Note_on_c, 0, 74, 88
4, 14189, Note_off_c, 0, 74, 0
4, 14190, Note_on_c, 0, 73, 88
4, 14212, Note_off_c, 0, 73, 0
4, 14213, Note_on_c, 0, 74, 88
4, 14234, Note_off_c, 0, 74, 0
4, 14235, Note_on_c, 0, 73, 88
4, 14257, Note_off_c, 0, 73, 0
4, 14258, Note_on_c, 0, 74, 88
4, 14279, Note_off_c, 0, 74, 0
4, 14280, Note_on_c, 0, 73, 88
4, 14396, Note_off_c, 0, 73, 0
4, 14400, Note_on_c, 0, 71, 88
4, 14516, Note_off_c, 0, 71, 0
4, 14520, Note_on_c, 0, 79, 88
4, 14754, Note_off_c, 0, 79, 0
4, 14760, Note_on_c, 0, 78, 88
4, 14994, Note_off_c, 0, 78, 0
4, 15000, Note_on_c, 0, 83, 88
4, 15058, Note_off_c, 0, 83, 0
4, 15060, Note_on_c, 0, 82, 88
4, 15118, Note_off_c, 0, 82, 0
4, 15120, Note_on_c, 0, 83, 88
4, 15354, Note_off_c, 0, 83, 0
4, 15360, Note_on_c, 0, 82, 88
4, 15476, Note_off_c, 0, 82, 0
4, 15480, Note_on_c, 0, 83, 88
4, 15596, Note_off_c, 0, 83, 0
4, 15600, Note_on_c, 0, 76, 88
4, 15716, Note_off_c, 0, 76, 0
4, 15720, Note_on_c, 0, 74, 88
4, 15829, Note_off_c, 0, 74, 0
4, 15840, Note_on_c, 0, 74, 88
4, 15913, Note_off_c, 0, 74, 0
4, 15915, Note_on_c, 0, 73, 88
4, 15937, Note_off_c, 0, 73, 0
4, 15938, Note_on_c, 0, 74, 88
4, 15959, Note_off_c, 0, 74, 0
4, 15960, Note_on_c, 0, 73, 88
4, 16313, Note_off_c, 0, 73, 0
4, 16800, Note_on_c, 0, 73, 88
4, 17034, Note_off_c, 0, 73, 0
4, 17040, Note_on_c, 0, 78, 88
4, 17514, Note_off_c, 0, 78, 0
4, 17520, Note_on_c, 0, 76, 88
4, 17754, Note_off_c, 0, 76, 0
4, 17760, Note_on_c, 0, 74, 88
4, 18474, Note_off_c, 0, 74, 0
4, 18480, Note_on_c, 0, 73, 88
4, 18596, Note_off_c, 0, 73, 0
4, 18600, Note_on_c, 0, 71, 88
4, 18716, Note_off_c, 0, 71, 0
4, 18720, Note_on_c, 0, 70, 88
4, 18954, Note_off_c, 0, 70, 0
4, 18960, Note_on_c, 0, 71, 88
4, 19076, Note_off_c, 0, 71, 0
4, 19080, Note_on_c, 0, 73, 88
4, 19196, Note_off_c, 0, 73, 0
4, 19200, Note_on_c, 0, 66, 88
4, 19434, Note_off_c, 0, 66, 0
4, 19440, Note_on_c, 0, 71, 88
4, 19910, Note_off_c, 0, 71, 0
4, 19920, Note_on_c, 0, 69, 88
4, 20154, Note_off_c, 0, 69, 0
4, 20160, Note_on_c, 0, 67, 88
4, 20630, Note_off_c, 0, 67, 0
4, 20640, Note_on_c, 0, 66, 88
4, 21110, Note_off_c, 0, 66, 0
4, 21120, Note_on_c, 0, 71, 88
4, 21354, Note_off_c, 0, 71, 0
4, 21360, Note_on_c, 0, 76, 88
4, 21594, Note_off_c, 0, 76, 0
4, 21600, Note_on_c, 0, 69, 88
4, 21834, Note_off_c, 0, 69, 0
4, 21840, Note_on_c, 0, 74, 88
4, 22309, Note_off_c, 0, 74, 0
4, 22320, Note_on_c, 0, 74, 88
4, 22349, Note_off_c, 0, 74, 0
4, 22350, Note_on_c, 0, 73, 88
4, 22379, Note_off_c, 0, 73, 0
4, 22380, Note_on_c, 0, 74, 88
4, 22409, Note_off_c, 0, 74, 0
4, 22410, Note_on_c, 0, 73, 88
4, 22439, Note_off_c, 0, 73, 0
4, 22440, Note_on_c, 0, 74, 88
4, 22469, Note_off_c, 0, 74, 0
4, 22470, Note_on_c, 0, 73, 88
4, 22499, Note_off_c, 0, 73, 0
4, 22500, Note_on_c, 0, 71, 88
4, 22529, Note_off_c, 0, 71, 0
4, 22530, Note_on_c, 0, 73, 88
4, 22559, Note_off_c, 0, 73, 0
4, 22560, Note_on_c, 0, 74, 88
4, 22618, Note_off_c, 0, 74, 0
4, 22620, Note_on_c, 0, 73, 88
4, 22678, Note_off_c, 0, 73, 0
4, 22680, Note_on_c, 0, 71, 88
4, 22738, Note_off_c, 0, 71, 0
4, 22740, Note_on_c, 0, 69, 88
4, 22798, Note_off_c, 0, 69, 0
4, 22800, Note_on_c, 0, 74, 88
4, 23274, Note_off_c, 0, 74, 0
4, 23280, Note_on_c, 0, 73, 88
4, 23514, Note_off_c, 0, 73, 0
4, 23520, Note_on_c, 0, 71, 88
4, 23754, Note_off_c, 0, 71, 0
4, 23760, Note_on_c, 0, 76, 88
4, 24234, Note_off_c, 0, 76, 0
4, 24240, Note_on_c, 0, 74, 88
4, 24474, Note_off_c, 0, 74, 0
4, 24480, Note_on_c, 0, 73, 88
4, 24714, Note_off_c, 0, 73, 0
4, 24720, Note_on_c, 0, 78, 88
4, 25194, Note_off_c, 0, 78, 0
4, 25200, Note_on_c, 0, 77, 88
4, 25434, Note_off_c, 0, 77, 0
4, 25440, Note_on_c, 0, 78, 88
4, 25674, Note_off_c, 0, 78, 0
4, 25680, Note_on_c, 0, 80, 88
4, 25914, Note_off_c, 0, 80, 0
4, 25920, Note_on_c, 0, 73, 88
4, 26154, Note_off_c, 0, 73, 0
4, 26160, Note_on_c, 0, 78, 88
4, 26629, Note_off_c, 0, 78, 0
4, 26640, Note_on_c, 0, 78, 88
4, 26669, Note_off_c, 0, 78, 0
4, 26670, Note_on_c, 0, 77, 88
4, 26699, Note_off_c, 0, 77, 0
4, 26700, Note_on_c, 0, 78, 88
4, 26729, Note_off_c, 0, 78, 0
4, 26730, Note_on_c, 0, 77, 88
4, 26759, Note_off_c, 0, 77, 0
4, 26760, Note_on_c, 0, 78, 88
4, 26789, Note_off_c, 0, 78, 0
4, 26790, Note_on_c, 0, 77, 88
4, 26819, Note_off_c, 0, 77, 0
4, 26820, Note_on_c, 0, 75, 88
4, 26849, Note_off_c, 0, 75, 0
4, 26850, Note_on_c, 0, 77, 88
4, 26879, Note_off_c, 0, 77, 0
4, 26880, Note_on_c, 0, 78, 88
4, 27114, Note_off_c, 0, 78, 0
4, 27360, Note_on_c, 0, 76, 88
4, 27594, Note_off_c, 0, 76, 0
4, 27600, Note_on_c, 0, 81, 88
4, 28074, Note_off_c, 0, 81, 0
4, 28080, Note_on_c, 0, 79, 88
4, 28314, Note_off_c, 0, 79, 0
4, 28320, Note_on_c, 0, 78, 88
4, 28554, Note_off_c, 0, 78, 0
4, 28560, Note_on_c, 0, 83, 88
4, 29034, Note_off_c, 0, 83, 0
4, 29040, Note_on_c, 0, 82, 88
4, 29274, Note_off_c, 0, 82, 0
4, 29280, Note_on_c, 0, 83, 88
4, 29633, Note_off_c, 0, 83, 0
4, 29640, Note_on_c, 0, 81, 88
4, 29698, Note_off_c, 0, 81, 0
4, 29700, Note_on_c, 0, 79, 88
4, 29758, Note_off_c, 0, 79, 0
4, 29760, Note_on_c, 0, 78, 88
4, 30113, Note_off_c, 0, 78, 0
4, 30120, Note_on_c, 0, 79, 88
4, 30236, Note_off_c, 0, 79, 0
4, 30240, Note_on_c, 0, 74, 88
4, 30469, Note_off_c, 0, 74, 0
4, 30480, Note_on_c, 0, 74, 88
4, 30509, Note_off_c, 0, 74, 0
4, 30510, Note_on_c, 0, 73, 88
4, 30532, Note_off_c, 0, 73, 0
4, 30533, Note_on_c, 0, 74, 88
4, 30554, Note_off_c, 0, 74, 0
4, 30555, Note_on_c, 0, 73, 88
4, 30577, Note_off_c, 0, 73, 0
4, 30578, Note_on_c, 0, 74, 88
4, 30599, Note_off_c, 0, 74, 0
4, 30600, Note_on_c, 0, 73, 88
4, 30716, Note_off_c, 0, 73, 0
4, 30720, Note_on_c, 0, 71, 88
4, 30836, Note_off_c, 0, 71, 0
4, 30840, Note_on_c, 0, 79, 88
4, 31074, Note_off_c, 0, 79, 0
4, 31080, Note_on_c, 0, 78, 88
4, 31314, Note_off_c, 0, 78, 0
4, 31320, Note_on_c, 0, 83, 88
4, 31378, Note_off_c, 0, 83, 0
4, 31380, Note_on_c, 0, 82, 88
4, 31438, Note_off_c, 0, 82, 0
4, 31440, Note_on_c, 0, 83, 88
4, 31674, Note_off_c, 0, 83, 0
4, 31680, Note_on_c, 0, 82, 88
4, 31796, Note_off_c, 0, 82, 0
4, 31800, Note_on_c, 0, 83, 88
4, 31916, Note_off_c, 0, 83, 0
4, 31920, Note_on_c, 0, 76, 88
4, 32036, Note_off_c, 0, 76, 0
4, 32040, Note_on_c, 0, 74, 88
4, 32149, Note_off_c, 0, 74, 0
4, 32160, Note_on_c, 0, 74, 88
4, 32233, Note_off_c, 0, 74, 0
4, 32235, Note_on_c, 0, 73, 88
4, 32257, Note_off_c, 0, 73, 0
4, 32258, Note_on_c, 0, 74, 88
4, 32279, Note_off_c, 0, 74, 0
4, 32280, Note_on_c, 0, 73, 88
4, 32633, Note_off_c, 0, 73, 0
4, 32640, Note_on_c, 0, 81, 88
4, 33230, Note_off_c, 0, 81, 0
4, 33240, Note_on_c, 0, 78, 88
4, 33356, Note_off_c, 0, 78, 0
4, 33360, Note_on_c, 0, 83, 88
4, 33476, Note_off_c, 0, 83, 0
4, 33480, Note_on_c, 0, 81, 88
4, 33596, Note_off_c, 0, 81, 0
4, 33600, Note_on_c, 0, 79, 88
4, 33829, Note_off_c, 0, 79, 0
4, 33840, Note_on_c, 0, 79, 88
4, 33862, Note_off_c, 0, 79, 0
4, 33863, Note_on_c, 0, 78, 88
4, 33892, Note_off_c, 0, 78, 0
4, 33893, Note_on_c, 0, 79, 88
4, 33922, Note_off_c, 0, 79, 0
4, 33923, Note_on_c, 0, 78, 88
4, 33944, Note_off_c, 0, 78, 0
4, 33945, Note_on_c, 0, 79, 88
4, 33967, Note_off_c, 0, 79, 0
4, 33968, Note_on_c, 0, 78, 88
4, 33989, Note_off_c, 0, 78, 0
4, 33990, Note_on_c, 0, 79, 88
4, 34012, Note_off_c, 0, 79, 0
4, 34013, Note_on_c, 0, 78, 88
4, 34034, Note_off_c, 0, 78, 0
4, 34035, Note_on_c, 0, 76, 88
4, 34057, Note_off_c, 0, 76, 0
4, 34058, Note_on_c, 0, 78, 88
4, 34079, Note_off_c, 0, 78, 0
4, 34080, Note_on_c, 0, 79, 88
4, 34676, Note_off_c, 0, 79, 0
4, 34680, Note_on_c, 0, 76, 88
4, 34796, Note_off_c, 0, 76, 0
4, 34800, Note_on_c, 0, 81, 88
4, 34916, Note_off_c, 0, 81, 0
4, 34920, Note_on_c, 0, 79, 88
4, 35036, Note_off_c, 0, 79, 0
4, 35040, Note_on_c, 0, 78, 88
4, 35269, Note_off_c, 0, 78, 0
4, 35280, Note_on_c, 0, 78, 88
4, 35302, Note_off_c, 0, 78, 0
4, 35303, Note_on_c, 0, 76, 88
4, 35332, Note_off_c, 0, 76, 0
4, 35333, Note_on_c, 0, 78, 88
4, 35362, Note_off_c, 0, 78, 0
4, 35363, Note_on_c, 0, 76, 88
4, 35384, Note_off_c, 0, 76, 0
4, 35385, Note_on_c, 0, 78, 88
4, 35407, Note_off_c, 0, 78, 0
4, 35408, Note_on_c, 0, 76, 88
4, 35429, Note_off_c, 0, 76, 0
4, 35430, Note_on_c, 0, 78, 88
4, 35452, Note_off_c, 0, 78, 0
4, 35453, Note_on_c, 0, 76, 88
4, 35474, Note_off_c, 0, 76, 0
4, 35475, Note_on_c, 0, 74, 88
4, 35497, Note_off_c, 0, 74, 0
4, 35498, Note_on_c, 0, 76, 88
4, 35519, Note_off_c, 0, 76, 0
4, 35520, Note_on_c, 0, 78, 88
4, 36109, Note_off_c, 0, 78, 0
4, 36120, Note_on_c, 0, 78, 88
4, 36236, Note_off_c, 0, 78, 0
4, 36240, Note_on_c, 0, 80, 88
4, 36356, Note_off_c, 0, 80, 0
4, 36360, Note_on_c, 0, 81, 88
4, 36476, Note_off_c, 0, 81, 0
4, 36480, Note_on_c, 0, 83, 88
4, 36714, Note_off_c, 0, 83, 0
4, 36720, Note_on_c, 0, 81, 88
4, 37190, Note_off_c, 0, 81, 0
4, 37200, Note_on_c, 0, 79, 88
4, 37316, Note_off_c, 0, 79, 0
4, 37320, Note_on_c, 0, 78, 88
4, 37436, Note_off_c, 0, 78, 0
4, 37440, Note_on_c, 0, 77, 88
4, 37556, Note_off_c, 0, 77, 0
4, 37560, Note_on_c, 0, 73, 88
4, 37676, Note_off_c, 0, 73, 0
4, 37680, Note_on_c, 0, 78, 88
4, 37796, Note_off_c, 0, 78, 0
4, 37800, Note_on_c, 0, 76, 88
4, 37916, Note_off_c, 0, 76, 0
4, 37920, Note_on_c, 0, 74, 88
4, 38634, Note_off_c, 0, 74, 0
4, 38640, Note_on_c, 0, 73, 88
4, 38756, Note_off_c, 0, 73, 0
4, 38760, Note_on_c, 0, 71, 88
4, 38876, Note_off_c, 0, 71, 0
4, 38880, Note_on_c, 0, 69, 88
4, 38996, Note_off_c, 0, 69, 0
4, 39000, Note_on_c, 0, 71, 88
4, 39116, Note_off_c, 0, 71, 0
4, 39120, Note_on_c, 0, 73, 88
4, 39594, Note_off_c, 0, 73, 0
4, 39600, Note_on_c, 0, 71, 88
4, 40070, Note_off_c, 0, 71, 0
4, 40080, Note_on_c, 0, 69, 88
4, 40554, Note_off_c, 0, 69, 0
4, 40560, Note_on_c, 0, 68, 88
4, 40676, Note_off_c, 0, 68, 0
4, 40680, Note_on_c, 0, 66, 88
4, 40796, Note_off_c, 0, 66, 0
4, 40800, Note_on_c, 0, 65, 88
4, 40916, Note_off_c, 0, 65, 0
4, 40920, Note_on_c, 0, 74, 88
4, 41036, Note_off_c, 0, 74, 0
4, 41040, Note_on_c, 0, 73, 88
4, 41156, Note_off_c, 0, 73, 0
4, 41160, Note_on_c, 0, 71, 88
4, 41276, Note_off_c, 0, 71, 0
4, 41280, Note_on_c, 0, 69, 88
4, 41509, Note_off_c, 0, 69, 0
4, 41520, Note_on_c, 0, 69, 88
4, 41549, Note_off_c, 0, 69, 0
4, 41550, Note_on_c, 0, 68, 88
4, 41572, Note_off_c, 0, 68, 0
4, 41573, Note_on_c, 0, 69, 88
4, 41594, Note_off_c, 0, 69, 0
4, 41595, Note_on_c, 0, 68, 88
4, 41617, Note_off_c, 0, 68, 0
4, 41618, Note_on_c, 0, 69, 88
4, 41639, Note_off_c, 0, 69, 0
4, 41640, Note_on_c, 0, 68, 88
4, 41756, Note_off_c, 0, 68, 0
4, 41760, Note_on_c, 0, 66, 88
4, 41994, Note_off_c, 0, 66, 0
4, 42240, Note_on_c, 0, 75, 88
4, 42474, Note_off_c, 0, 75, 0
4, 42480, Note_on_c, 0, 76, 88
4, 42596, Note_off_c, 0, 76, 0
4, 42600, Note_on_c, 0, 78, 88
4, 42716, Note_off_c, 0, 78, 0
4, 42720, Note_on_c, 0, 71, 88
4, 42836, Note_off_c, 0, 71, 0
4, 42840, Note_on_c, 0, 84, 88
4, 42956, Note_off_c, 0, 84, 0
4, 42960, Note_on_c, 0, 83, 88
4, 43076, Note_off_c, 0, 83, 0
4, 43080, Note_on_c, 0, 81, 88
4, 43196, Note_off_c, 0, 81, 0
4, 43200, Note_on_c, 0, 79, 88
4, 43429, Note_off_c, 0, 79, 0
4, 43440, Note_on_c, 0, 79, 88
4, 43469, Note_off_c, 0, 79, 0
4, 43470, Note_on_c, 0, 78, 88
4, 43492, Note_off_c, 0, 78, 0
4, 43493, Note_on_c, 0, 79, 88
4, 43514, Note_off_c, 0, 79, 0
4, 43515, Note_on_c, 0, 78, 88
4, 43537, Note_off_c, 0, 78, 0
4, 43538, Note_on_c, 0, 79, 88
4, 43559, Note_off_c, 0, 79, 0
4, 43560, Note_on_c, 0, 78, 88
4, 43676, Note_off_c, 0, 78, 0
4, 43680, Note_on_c, 0, 76, 88
4, 43914, Note_off_c, 0, 76, 0
4, 43920, Note_on_c, 0, 82, 88
4, 44394, Note_off_c, 0, 82, 0
4, 44400, Note_on_c, 0, 81, 88
4, 44516, Note_off_c, 0, 81, 0
4, 44520, Note_on_c, 0, 79, 88
4, 44636, Note_off_c, 0, 79, 0
4, 44640, Note_on_c, 0, 78, 88
4, 44756, Note_off_c, 0, 78, 0
4, 44760, Note_on_c, 0, 73, 88
4, 44876, Note_off_c, 0, 73, 0
4, 44880, Note_on_c, 0, 74, 88
4, 44996, Note_off_c, 0, 74, 0
4, 45000, Note_on_c, 0, 76, 88
4, 45116, Note_off_c, 0, 76, 0
4, 45120, Note_on_c, 0, 69, 88
4, 45236, Note_off_c, 0, 69, 0
4, 45240, Note_on_c, 0, 74, 88
4, 45474, Note_off_c, 0, 74, 0
4, 45480, Note_on_c, 0, 73, 88
4, 45596, Note_off_c, 0, 73, 0
4, 45600, Note_on_c, 0, 66, 88
4, 45716, Note_off_c, 0, 66, 0
4, 45720, Note_on_c, 0, 71, 88
4, 45954, Note_off_c, 0, 71, 0
4, 45960, Note_on_c, 0, 69, 88
4, 46076, Note_off_c, 0, 69, 0
4, 46080, Note_on_c, 0, 62, 88
4, 46196, Note_off_c, 0, 62, 0
4, 46200, Note_on_c, 0, 67, 88
4, 46434, Note_off_c, 0, 67, 0
4, 46440, Note_on_c, 0, 66, 88
4, 46556, Note_off_c, 0, 66, 0
4, 46560, Note_on_c, 0, 68, 88
4, 46794, Note_off_c, 0, 68, 0
4, 46800, Note_on_c, 0, 71, 88
4, 46822, Note_off_c, 0, 71, 0
4, 46823, Note_on_c, 0, 70, 88
4, 46852, Note_off_c, 0, 70, 0
4, 46853, Note_on_c, 0, 71, 88
4, 46874, Note_off_c, 0, 71, 0
4, 46875, Note_on_c, 0, 70, 88
4, 46919, Note_off_c, 0, 70, 0
4, 46920, Note_on_c, 0, 71, 88
4, 47036, Note_off_c, 0, 71, 0
4, 47040, Note_on_c, 0, 73, 88
4, 47630, Note_off_c, 0, 73, 0
4, 47640, Note_on_c, 0, 71, 88
4, 47756, Note_off_c, 0, 71, 0
4, 47760, Note_on_c, 0, 74, 88
4, 47782, Note_off_c, 0, 74, 0
4, 47783, Note_on_c, 0, 73, 88
4, 47812, Note_off_c, 0, 73, 0
4, 47813, Note_on_c, 0, 74, 88
4, 47834, Note_off_c, 0, 74, 0
4, 47835, Note_on_c, 0, 73, 88
4, 47879, Note_off_c, 0, 73, 0
4, 47880, Note_on_c, 0, 74, 88
4, 47996, Note_off_c, 0, 74, 0
4, 48000, Note_on_c, 0, 76, 88
4, 48590, Note_off_c, 0, 76, 0
4, 48600, Note_on_c, 0, 74, 88
4, 48716, Note_off_c, 0, 74, 0
4, 48720, Note_on_c, 0, 78, 88
4, 48742, Note_off_c, 0, 78, 0
4, 48743, Note_on_c, 0, 76, 88
4, 48772, Note_off_c, 0, 76, 0
4, 48773, Note_on_c, 0, 78, 88
4, 48794, Note_off_c, 0, 78, 0
4, 48795, Note_on_c, 0, 76, 88
4, 48839, Note_off_c, 0, 76, 0
4, 48840, Note_on_c, 0, 78, 88
4, 48956, Note_off_c, 0, 78, 0
4, 48960, Note_on_c, 0, 79, 88
4, 49668, Note_off_c, 0, 79, 0
4, 49680, Note_on_c, 0, 78, 88
4, 50036, Note_off_c, 0, 78, 0
4, 50040, Note_on_c, 0, 81, 88
4, 50156, Note_off_c, 0, 81, 0
4, 50160, Note_on_c, 0, 79, 88
4, 50276, Note_off_c, 0, 79, 0
4, 50280, Note_on_c, 0, 78, 88
4, 50396, Note_off_c, 0, 78, 0
4, 50400, Note_on_c, 0, 79, 88
4, 50634, Note_off_c, 0, 79, 0
4, 50640, Note_on_c, 0, 80, 88
4, 50996, Note_off_c, 0, 80, 0
4, 51000, Note_on_c, 0, 83, 88
4, 51116, Note_off_c, 0, 83, 0
4, 51120, Note_on_c, 0, 81, 88
4, 51236, Note_off_c, 0, 81, 0
4, 51240, Note_on_c, 0, 80, 88
4, 51356, Note_off_c, 0, 80, 0
4, 51360, Note_on_c, 0, 81, 88
4, 51594, Note_off_c, 0, 81, 0
4, 51600, Note_on_c, 0, 82, 88
4, 51956, Note_off_c, 0, 82, 0
4, 51960, Note_on_c, 0, 84, 88
4, 52076, Note_off_c, 0, 84, 0
4, 52080, Note_on_c, 0, 83, 88
4, 52196, Note_off_c, 0, 83, 0
4, 52200, Note_on_c, 0, 82, 88
4, 52316, Note_off_c, 0, 82, 0
4, 52320, Note_on_c, 0, 83, 88
4, 52673, Note_off_c, 0, 83, 0
4, 52680, Note_on_c, 0, 81, 88
4, 52796, Note_off_c, 0, 81, 0
4, 52800, Note_on_c, 0, 79, 88
4, 53270, Note_off_c, 0, 79, 0
4, 53280, Note_on_c, 0, 78, 88
4, 53750, Note_off_c, 0, 78, 0
4, 53760, Note_on_c, 0, 76, 88
4, 54230, Note_off_c, 0, 76, 0
4, 54240, Note_on_c, 0, 74, 88
4, 54954, Note_off_c, 0, 74, 0
4, 54960, Note_on_c, 0, 73, 88
4, 55076, Note_off_c, 0, 73, 0
4, 55080, Note_on_c, 0, 71, 88
4, 55196, Note_off_c, 0, 71, 0
4, 55200, Note_on_c, 0, 70, 88
4, 55316, Note_off_c, 0, 70, 0
4, 55320, Note_on_c, 0, 79, 88
4, 55436, Note_off_c, 0, 79, 0
4, 55440, Note_on_c, 0, 78, 88
4, 55556, Note_off_c, 0, 78, 0
4, 55560, Note_on_c, 0, 76, 88
4, 55676, Note_off_c, 0, 76, 0
4, 55680, Note_on_c, 0, 74, 88
4, 55909, Note_off_c, 0, 74, 0
4, 55920, Note_on_c, 0, 74, 88
4, 55949, Note_off_c, 0, 74, 0
4, 55950, Note_on_c, 0, 73, 88
4, 55972, Note_off_c, 0, 73, 0
4, 55973, Note_on_c, 0, 74, 88
4, 55994, Note_off_c, 0, 74, 0
4, 55995, Note_on_c, 0, 73, 88
4, 56017, Note_off_c, 0, 73, 0
4, 56018, Note_on_c, 0, 74, 88
4, 56039, Note_off_c, 0, 74, 0
4, 56040, Note_on_c, 0, 73, 88
4, 56156, Note_off_c, 0, 73, 0
4, 56160, Note_on_c, 0, 71, 88
4, 56749, Note_off_c, 0, 71, 0
4, 56760, Note_on_c, 0, 71, 88
4, 56994, Note_off_c, 0, 71, 0
4, 57000, Note_on_c, 0, 70, 88
4, 57116, Note_off_c, 0, 70, 0
4, 57120, Note_on_c, 0, 76, 88
4, 57709, Note_off_c, 0, 76, 0
4, 57720, Note_on_c, 0, 76, 88
4, 57954, Note_off_c, 0, 76, 0
4, 57960, Note_on_c, 0, 75, 88
4, 58076, Note_off_c, 0, 75, 0
4, 58080, Note_on_c, 0, 79, 88
4, 58676, Note_off_c, 0, 79, 0
4, 58680, Note_on_c, 0, 78, 88
4, 58914, Note_off_c, 0, 78, 0
4, 58920, Note_on_c, 0, 77, 88
4, 59036, Note_off_c, 0, 77, 0
4, 59040, Note_on_c, 0, 83, 88
4, 59156, Note_off_c, 0, 83, 0
4, 59160, Note_on_c, 0, 76, 88
4, 59218, Note_off_c, 0, 76, 0
4, 59220, Note_on_c, 0, 75, 88
4, 59278, Note_off_c, 0, 75, 0
4, 59280, Note_on_c, 0, 76, 88
4, 59396, Note_off_c, 0, 76, 0
4, 59400, Note_on_c, 0, 79, 88
4, 59516, Note_off_c, 0, 79, 0
4, 59520, Note_on_c, 0, 74, 88
4, 59749, Note_off_c, 0, 74, 0
4, 59760, Note_on_c, 0, 74, 88
4, 59789, Note_off_c, 0, 74, 0
4, 59790, Note_on_c, 0, 73, 88
4, 59812, Note_off_c, 0, 73, 0
4, 59813, Note_on_c, 0, 74, 88
4, 59834, Note_off_c, 0, 74, 0
4, 59835, Note_on_c, 0, 73, 88
4, 59857, Note_off_c, 0, 73, 0
4, 59858, Note_on_c, 0, 74, 88
4, 59879, Note_off_c, 0, 74, 0
4, 59880, Note_on_c, 0, 73, 88
4, 59996, Note_off_c, 0, 73, 0
4, 60000, Note_on_c, 0, 75, 88
4, 60116, Note_off_c, 0, 75, 0
4, 60120, Note_on_c, 0, 76, 88
4, 60236, Note_off_c, 0, 76, 0
4, 60240, Note_on_c, 0, 70, 88
4, 60356, Note_off_c, 0, 70, 0
4, 60360, Note_on_c, 0, 71, 88
4, 60476, Note_off_c, 0, 71, 0
4, 60840, Note_on_c, 0, 70, 88
4, 60956, Note_off_c, 0, 70, 0
4, 60960, Note_on_c, 0, 71, 88
4, 61430, Note_off_c, 0, 71, 0
4, 61440, Note_on_c, 0, 81, 88
4, 62030, Note_off_c, 0, 81, 0
4, 62040, Note_on_c, 0, 78, 88
4, 62156, Note_off_c, 0, 78, 0
4, 62160, Note_on_c, 0, 83, 88
4, 62276, Note_off_c, 0, 83, 0
4, 62280, Note_on_c, 0, 81, 88
4, 62396, Note_off_c, 0, 81, 0
4, 62400, Note_on_c, 0, 79, 88
4, 62629, Note_off_c, 0, 79, 0
4, 62640, Note_on_c, 0, 79, 88
4, 62662, Note_off_c, 0, 79, 0
4, 62663, Note_on_c, 0, 78, 88
4, 62692, Note_off_c, 0, 78, 0
4, 62693, Note_on_c, 0, 79, 88
4, 62722, Note_off_c, 0, 79, 0
4, 62723, Note_on_c, 0, 78, 88
4, 62744, Note_off_c, 0, 78, 0
4, 62745, Note_on_c, 0, 79, 88
4, 62767, Note_off_c, 0, 79, 0
4, 62768, Note_on_c, 0, 78, 88
4, 62789, Note_off_c, 0, 78, 0
4, 62790, Note_on_c, 0, 79, 88
4, 62812, Note_off_c, 0, 79, 0
4, 62813, Note_on_c, 0, 78, 88
4, 62834, Note_off_c, 0, 78, 0
4, 62835, Note_on_c, 0, 76, 88
4, 62857, Note_off_c, 0, 76, 0
4, 62858, Note_on_c, 0, 78, 88
4, 62879, Note_off_c, 0, 78, 0
4, 62880, Note_on_c, 0, 79, 88
4, 63476, Note_off_c, 0, 79, 0
4, 63480, Note_on_c, 0, 76, 88
4, 63596, Note_off_c, 0, 76, 0
4, 63600, Note_on_c, 0, 81, 88
4, 63716, Note_off_c, 0, 81, 0
4, 63720, Note_on_c, 0, 79, 88
4, 63836, Note_off_c, 0, 79, 0
4, 63840, Note_on_c, 0, 78, 88
4, 64069, Note_off_c, 0, 78, 0
4, 64080, Note_on_c, 0, 78, 88
4, 64102, Note_off_c, 0, 78, 0
4, 64103, Note_on_c, 0, 76, 88
4, 64132, Note_off_c, 0, 76, 0
4, 64133, Note_on_c, 0, 78, 88
4, 64162, Note_off_c, 0, 78, 0
4, 64163, Note_on_c, 0, 76, 88
4, 64184, Note_off_c, 0, 76, 0
4, 64185, Note_on_c, 0, 78, 88
4, 64207, Note_off_c, 0, 78, 0
4, 64208, Note_on_c, 0, 76, 88
4, 64229, Note_off_c, 0, 76, 0
4, 64230, Note_on_c, 0, 78, 88
4, 64252, Note_off_c, 0, 78, 0
4, 64253, Note_on_c, 0, 76, 88
4, 64274, Note_off_c, 0, 76, 0
4, 64275, Note_on_c, 0, 74, 88
4, 64297, Note_off_c, 0, 74, 0
4, 64298, Note_on_c, 0, 76, 88
4, 64319, Note_off_c, 0, 76, 0
4, 64320, Note_on_c, 0, 78, 88
4, 64909, Note_off_c, 0, 78, 0
4, 64920, Note_on_c, 0, 78, 88
4, 65036, Note_off_c, 0, 78, 0
4, 65040, Note_on_c, 0, 80, 88
4, 65156, Note_off_c, 0, 80, 0
4, 65160, Note_on_c, 0, 81, 88
4, 65276, Note_off_c, 0, 81, 0
4, 65280, Note_on_c, 0, 83, 88
4, 65514, Note_off_c, 0, 83, 0
4, 65520, Note_on_c, 0, 81, 88
4, 65990, Note_off_c, 0, 81, 0
4, 66000, Note_on_c, 0, 79, 88
4, 66116, Note_off_c, 0, 79, 0
4, 66120, Note_on_c, 0, 78, 88
4, 66236, Note_off_c, 0, 78, 0
4, 66240, Note_on_c, 0, 77, 88
4, 66356, Note_off_c, 0, 77, 0
4, 66360, Note_on_c, 0, 73, 88
4, 66476, Note_off_c, 0, 73, 0
4, 66480, Note_on_c, 0, 78, 88
4, 66596, Note_off_c, 0, 78, 0
4, 66600, Note_on_c, 0, 76, 88
4, 66716, Note_off_c, 0, 76, 0
4, 66720, Note_on_c, 0, 74, 88
4, 67434, Note_off_c, 0, 74, 0
4, 67440, Note_on_c, 0, 73, 88
4, 67556, Note_off_c, 0, 73, 0
4, 67560, Note_on_c, 0, 71, 88
4, 67676, Note_off_c, 0, 71, 0
4, 67680, Note_on_c, 0, 69, 88
4, 67796, Note_off_c, 0, 69, 0
4, 67800, Note_on_c, 0, 71, 88
4, 67916, Note_off_c, 0, 71, 0
4, 67920, Note_on_c, 0, 73, 88
4, 68394, Note_off_c, 0, 73, 0
4, 68400, Note_on_c, 0, 71, 88
4, 68870, Note_off_c, 0, 71, 0
4, 68880, Note_on_c, 0, 69, 88
4, 69354, Note_off_c, 0, 69, 0
4, 69360, Note_on_c, 0, 68, 88
4, 69476, Note_off_c, 0, 68, 0
4, 69480, Note_on_c, 0, 66, 88
4, 69596, Note_off_c, 0, 66, 0
4, 69600, Note_on_c, 0, 65, 88
4, 69716, Note_off_c, 0, 65, 0
4, 69720, Note_on_c, 0, 74, 88
4, 69836, Note_off_c, 0, 74, 0
4, 69840, Note_on_c, 0, 73, 88
4, 69956, Note_off_c, 0, 73, 0
4, 69960, Note_on_c, 0, 71, 88
4, 70076, Note_off_c, 0, 71, 0
4, 70080, Note_on_c, 0, 69, 88
4, 70309, Note_off_c, 0, 69, 0
4, 70320, Note_on_c, 0, 69, 88
4, 70349, Note_off_c, 0, 69, 0
4, 70350, Note_on_c, 0, 68, 88
4, 70372, Note_off_c, 0, 68, 0
4, 70373, Note_on_c, 0, 69, 88
4, 70394, Note_off_c, 0, 69, 0
4, 70395, Note_on_c, 0, 68, 88
4, 70417, Note_off_c, 0, 68, 0
4, 70418, Note_on_c, 0, 69, 88
4, 70439, Note_off_c, 0, 69, 0
4, 70440, Note_on_c, 0, 68, 88
4, 70556, Note_off_c, 0, 68, 0
4, 70560, Note_on_c, 0, 66, 88
4, 70794, Note_off_c, 0, 66, 0
4, 71040, Note_on_c, 0, 75, 88
4, 71274, Note_off_c, 0, 75, 0
4, 71280, Note_on_c, 0, 76, 88
4, 71396, Note_off_c, 0, 76, 0
4, 71400, Note_on_c, 0, 78, 88
4, 71516, Note_off_c, 0, 78, 0
4, 71520, Note_on_c, 0, 71, 88
4, 71636, Note_off_c, 0, 71, 0
4, 71640, Note_on_c, 0, 84, 88
4, 71756, Note_off_c, 0, 84, 0
4, 71760, Note_on_c, 0, 83, 88
4, 71876, Note_off_c, 0, 83, 0
4, 71880, Note_on_c, 0, 81, 88
4, 71996, Note_off_c, 0, 81, 0
4, 72000, Note_on_c, 0, 79, 88
4, 72229, Note_off_c, 0, 79, 0
4, 72240, Note_on_c, 0, 79, 88
4, 72269, Note_off_c, 0, 79, 0
4, 72270, Note_on_c, 0, 78, 88
4, 72292, Note_off_c, 0, 78, 0
4, 72293, Note_on_c, 0, 79, 88
4, 72314, Note_off_c, 0, 79, 0
4, 72315, Note_on_c, 0, 78, 88
4, 72337, Note_off_c, 0, 78, 0
4, 72338, Note_on_c, 0, 79, 88
4, 72359, Note_off_c, 0, 79, 0
4, 72360, Note_on_c, 0, 78, 88
4, 72476, Note_off_c, 0, 78, 0
4, 72480, Note_on_c, 0, 76, 88
4, 72714, Note_off_c, 0, 76, 0
4, 72720, Note_on_c, 0, 82, 88
4, 73194, Note_off_c, 0, 82, 0
4, 73200, Note_on_c, 0, 81, 88
4, 73316, Note_off_c, 0, 81, 0
4, 73320, Note_on_c, 0, 79, 88
4, 73436, Note_off_c, 0, 79, 0
4, 73440, Note_on_c, 0, 78, 88
4, 73556, Note_off_c, 0, 78, 0
4, 73560, Note_on_c, 0, 73, 88
4, 73676, Note_off_c, 0, 73, 0
4, 73680, Note_on_c, 0, 74, 88
4, 73796, Note_off_c, 0, 74, 0
4, 73800, Note_on_c, 0, 76, 88
4, 73916, Note_off_c, 0, 76, 0
4, 73920, Note_on_c, 0, 69, 88
4, 74036, Note_off_c, 0, 69, 0
4, 74040, Note_on_c, 0, 74, 88
4, 74274, Note_off_c, 0, 74, 0
4, 74280, Note_on_c, 0, 73, 88
4, 74396, Note_off_c, 0, 73, 0
4, 74400, Note_on_c, 0, 66, 88
4, 74516, Note_off_c, 0, 66, 0
4, 74520, Note_on_c, 0, 71, 88
4, 74754, Note_off_c, 0, 71, 0
4, 74760, Note_on_c, 0, 69, 88
4, 74876, Note_off_c, 0, 69, 0
4, 74880, Note_on_c, 0, 62, 88
4, 74996, Note_off_c, 0, 62, 0
4, 75000, Note_on_c, 0, 67, 88
4, 75234, Note_off_c, 0, 67, 0
4, 75240, Note_on_c, 0, 66, 88
4, 75356, Note_off_c, 0, 66, 0
4, 75360, Note_on_c, 0, 68, 88
4, 75594, Note_off_c, 0, 68, 0
4, 75600, Note_on_c, 0, 71, 88
4, 75622, Note_off_c, 0, 71, 0
4, 75623, Note_on_c, 0, 70, 88
4, 75652, Note_off_c, 0, 70, 0
4, 75653, Note_on_c, 0, 71, 88
4, 75674, Note_off_c, 0, 71, 0
4, 75675, Note_on_c, 0, 70, 88
4, 75719, Note_off_c, 0, 70, 0
4, 75720, Note_on_c, 0, 71, 88
4, 75836, Note_off_c, 0, 71, 0
4, 75840, Note_on_c, 0, 73, 88
4, 76430, Note_off_c, 0, 73, 0
4, 76440, Note_on_c, 0, 71, 88
4, 76556, Note_off_c, 0, 71, 0
4, 76560, Note_on_c, 0, 74, 88
4, 76582, Note_off_c, 0, 74, 0
4, 76583, Note_on_c, 0, 73, 88
4, 76612, Note_off_c, 0, 73, 0
4, 76613, Note_on_c, 0, 74, 88
4, 76634, Note_off_c, 0, 74, 0
4, 76635, Note_on_c, 0, 73, 88
4, 76679, Note_off_c, 0, 73, 0
4, 76680, Note_on_c, 0, 74, 88
4, 76796, Note_off_c, 0, 74, 0
4, 76800, Note_on_c, 0, 76, 88
4, 77390, Note_off_c, 0, 76, 0
4, 77400, Note_on_c, 0, 74, 88
4, 77516, Note_off_c, 0, 74, 0
4, 77520, Note_on_c, 0, 78, 88
4, 77542, Note_off_c, 0, 78, 0
4, 77543, Note_on_c, 0, 76, 88
4, 77572, Note_off_c, 0, 76, 0
4, 77573, Note_on_c, 0, 78, 88
4, 77594, Note_off_c, 0, 78, 0
4, 77595, Note_on_c, 0, 76, 88
4, 77639, Note_off_c, 0, 76, 0
4, 77640, Note_on_c, 0, 78, 88
4, 77756, Note_off_c, 0, 78, 0
4, 77760, Note_on_c, 0, 79, 88
4, 78468, Note_off_c, 0, 79, 0
4, 78480, Note_on_c, 0, 78, 88
4, 78836, Note_off_c, 0, 78, 0
4, 78840, Note_on_c, 0, 81, 88
4, 78956, Note_off_c, 0, 81, 0
4, 78960, Note_on_c, 0, 79, 88
4, 79076, Note_off_c, 0, 79, 0
4, 79080, Note_on_c, 0, 78, 88
4, 79196, Note_off_c, 0, 78, 0
4, 79200, Note_on_c, 0, 79, 88
4, 79434, Note_off_c, 0, 79, 0
4, 79440, Note_on_c, 0, 80, 88
4, 79796, Note_off_c, 0, 80, 0
4, 79800, Note_on_c, 0, 83, 88
4, 79916, Note_off_c, 0, 83, 0
4, 79920, Note_on_c, 0, 81, 88
4, 80036, Note_off_c, 0, 81, 0
4, 80040, Note_on_c, 0, 80, 88
4, 80156, Note_off_c, 0, 80, 0
4, 80160, Note_on_c, 0, 81, 88
4, 80394, Note_off_c, 0, 81, 0
4, 80400, Note_on_c, 0, 82, 88
4, 80756, Note_off_c, 0, 82, 0
4, 80760, Note_on_c, 0, 84, 88
4, 80876, Note_off_c, 0, 84, 0
4, 80880, Note_on_c, 0, 83, 88
4, 80996, Note_off_c, 0, 83, 0
4, 81000, Note_on_c, 0, 82, 88
4, 81116, Note_off_c, 0, 82, 0
4, 81120, Note_on_c, 0, 83, 88
4, 81473, Note_off_c, 0, 83, 0
4, 81480, Note_on_c, 0, 81, 88
4, 81596, Note_off_c, 0, 81, 0
4, 81600, Note_on_c, 0, 79, 88
4, 82070, Note_off_c, 0, 79, 0
4, 82080, Note_on_c, 0, 78, 88
4, 82550, Note_off_c, 0, 78, 0
4, 82560, Note_on_c, 0, 76, 88
4, 83030, Note_off_c, 0, 76, 0
4, 83040, Note_on_c, 0, 74, 88
4, 83754, Note_off_c, 0, 74, 0
4, 83760, Note_on_c, 0, 73, 88
4, 83876, Note_off_c, 0, 73, 0
4, 83880, Note_on_c, 0, 71, 88
4, 83996, Note_off_c, 0, 71, 0
4, 84000, Note_on_c, 0, 70, 88
4, 84116, Note_off_c, 0, 70, 0
4, 84120, Note_on_c, 0, 79, 88
4, 84236, Note_off_c, 0, 79, 0
4, 84240, Note_on_c, 0, 78, 88
4, 84356, Note_off_c, 0, 78, 0
4, 84360, Note_on_c, 0, 76, 88
4, 84476, Note_off_c, 0, 76, 0
4, 84480, Note_on_c, 0, 74, 88
4, 84709, Note_off_c, 0, 74, 0
4, 84720, Note_on_c, 0, 74, 88
4, 84749, Note_off_c, 0, 74, 0
4, 84750, Note_on_c, 0, 73, 88
4, 84772, Note_off_c, 0, 73, 0
4, 84773, Note_on_c, 0, 74, 88
4, 84794, Note_off_c, 0, 74, 0
4, 84795, Note_on_c, 0, 73, 88
4, 84817, Note_off_c, 0, 73, 0
4, 84818, Note_on_c, 0, 74, 88
4, 84839, Note_off_c, 0, 74, 0
4, 84840, Note_on_c, 0, 73, 88
4, 84956, Note_off_c, 0, 73, 0
4, 84960, Note_on_c, 0, 71, 88
4, 85549, Note_off_c, 0, 71, 0
4, 85560, Note_on_c, 0, 71, 88
4, 85794, Note_off_c, 0, 71, 0
4, 85800, Note_on_c, 0, 70, 88
4, 85916, Note_off_c, 0, 70, 0
4, 85920, Note_on_c, 0, 76, 88
4, 86509, Note_off_c, 0, 76, 0
4, 86520, Note_on_c, 0, 76, 88
4, 86754, Note_off_c, 0, 76, 0
4, 86760, Note_on_c, 0, 75, 88
4, 86876, Note_off_c, 0, 75, 0
4, 86880, Note_on_c, 0, 79, 88
4, 87476, Note_off_c, 0, 79, 0
4, 87480, Note_on_c, 0, 78, 88
4, 87714, Note_off_c, 0, 78, 0
4, 87720, Note_on_c, 0, 77, 88
4, 87836, Note_off_c, 0, 77, 0
4, 87840, Note_on_c, 0, 83, 88
4, 87956, Note_off_c, 0, 83, 0
4, 87960, Note_on_c, 0, 76, 88
4, 88018, Note_off_c, 0, 76, 0
4, 88020, Note_on_c, 0, 75, 88
4, 88078, Note_off_c, 0, 75, 0
4, 88080, Note_on_c, 0, 76, 88
4, 88196, Note_off_c, 0, 76, 0
4, 88200, Note_on_c, 0, 79, 88
4, 88316, Note_off_c, 0, 79, 0
4, 88320, Note_on_c, 0, 74, 88
4, 88549, Note_off_c, 0, 74, 0
4, 88560, Note_on_c, 0, 74, 88
4, 88589, Note_off_c, 0, 74, 0
4, 88590, Note_on_c, 0, 73, 88
4, 88612, Note_off_c, 0, 73, 0
4, 88613, Note_on_c, 0, 74, 88
4, 88634, Note_off_c, 0, 74, 0
4, 88635, Note_on_c, 0, 73, 88
4, 88657, Note_off_c, 0, 73, 0
4, 88658, Note_on_c, 0, 74, 88
4, 88679, Note_off_c, 0, 74, 0
4, 88680, Note_on_c, 0, 73, 88
4, 88796, Note_off_c, 0, 73, 0
4, 88800, Note_on_c, 0, 75, 88
4, 88916, Note_off_c, 0, 75, 0
4, 88920, Note_on_c, 0, 76, 88
4, 89036, Note_off_c, 0, 76, 0
4, 89040, Note_on_c, 0, 70, 88
4, 89156, Note_off_c, 0, 70, 0
4, 89160, Note_on_c, 0, 71, 88
4, 89276, Note_off_c, 0, 71, 0
4, 89640, Note_on_c, 0, 70, 88
4, 89756, Note_off_c, 0, 70, 0
4, 89760, Note_on_c, 0, 71, 88
4, 90230, Note_off_c, 0, 71, 0
4, 90230, End_track
5, 0, Start_track
5, 0, Title_t, "Track 2"
5, 0, Program_c, 1, 6
5, 60480, Note_on_c, 1, 67, 88
5, 60950, Note_off_c, 1, 67, 0
5, 60960, Note_on_c, 1, 66, 88
5, 61430, Note_off_c, 1, 66, 0
5, 89280, Note_on_c, 1, 67, 88
5, 89750, Note_off_c, 1, 67, 0
5, 89760, Note_on_c, 1, 66, 88
5, 90230, Note_off_c, 1, 66, 0
5, 90230, End_track
6, 0, Start_track
6, 0, Title_t, "Track 3"
6, 0, Program_c, 2, 6
6, 0, Note_on_c, 2, 66, 88
6, 234, Note_off_c, 2, 66, 0
6, 240, Note_on_c, 2, 71, 88
6, 710, Note_off_c, 2, 71, 0
6, 720, Note_on_c, 2, 69, 88
6, 954, Note_off_c, 2, 69, 0
6, 960, Note_on_c, 2, 68, 88
6, 1194, Note_off_c, 2, 68, 0
6, 1200, Note_on_c, 2, 73, 88
6, 1670, Note_off_c, 2, 73, 0
6, 1680, Note_on_c, 2, 71, 88
6, 1796, Note_off_c, 2, 71, 0
6, 1800, Note_on_c, 2, 69, 88
6, 1916, Note_off_c, 2, 69, 0
6, 1920, Note_on_c, 2, 67, 88
6, 2510, Note_off_c, 2, 67, 0
6, 2520, Note_on_c, 2, 66, 88
6, 2636, Note_off_c, 2, 66, 0
6, 2640, Note_on_c, 2, 64, 88
6, 3114, Note_off_c, 2, 64, 0
6, 3120, Note_on_c, 2, 62, 88
6, 3354, Note_off_c, 2, 62, 0
6, 3360, Note_on_c, 2, 61, 88
6, 3594, Note_off_c, 2, 61, 0
6, 3600, Note_on_c, 2, 66, 88
6, 4074, Note_off_c, 2, 66, 0
6, 4080, Note_on_c, 2, 64, 88
6, 4550, Note_off_c, 2, 64, 0
6, 4560, Note_on_c, 2, 62, 88
6, 5034, Note_off_c, 2, 62, 0
6, 5040, Note_on_c, 2, 67, 88
6, 5510, Note_off_c, 2, 67, 0
6, 5520, Note_on_c, 2, 66, 88
6, 5754, Note_off_c, 2, 66, 0
6, 5760, Note_on_c, 2, 64, 88
6, 6230, Note_off_c, 2, 64, 0
6, 6240, Note_on_c, 2, 66, 88
6, 6474, Note_off_c, 2, 66, 0
6, 6720, Note_on_c, 2, 64, 88
6, 6954, Note_off_c, 2, 64, 0
6, 6960, Note_on_c, 2, 69, 88
6, 7430, Note_off_c, 2, 69, 0
6, 7440, Note_on_c, 2, 67, 88
6, 7674, Note_off_c, 2, 67, 0
6, 7680, Note_on_c, 2, 66, 88
6, 7914, Note_off_c, 2, 66, 0
6, 7920, Note_on_c, 2, 71, 88
6, 8390, Note_off_c, 2, 71, 0
6, 8400, Note_on_c, 2, 69, 88
6, 8634, Note_off_c, 2, 69, 0
6, 8640, Note_on_c, 2, 68, 88
6, 8874, Note_off_c, 2, 68, 0
6, 8880, Note_on_c, 2, 73, 88
6, 9350, Note_off_c, 2, 73, 0
6, 9360, Note_on_c, 2, 71, 88
6, 9834, Note_off_c, 2, 71, 0
6, 9840, Note_on_c, 2, 69, 88
6, 10074, Note_off_c, 2, 69, 0
6, 10080, Note_on_c, 2, 68, 88
6, 10550, Note_off_c, 2, 68, 0
6, 10560, Note_on_c, 2, 69, 88
6, 10794, Note_off_c, 2, 69, 0
6, 10800, Note_on_c, 2, 74, 88
6, 11270, Note_off_c, 2, 74, 0
6, 11280, Note_on_c, 2, 73, 88
6, 11514, Note_off_c, 2, 73, 0
6, 11520, Note_on_c, 2, 71, 88
6, 11754, Note_off_c, 2, 71, 0
6, 11760, Note_on_c, 2, 76, 88
6, 12230, Note_off_c, 2, 76, 0
6, 12240, Note_on_c, 2, 74, 88
6, 12474, Note_off_c, 2, 74, 0
6, 12480, Note_on_c, 2, 73, 88
6, 12714, Note_off_c, 2, 73, 0
6, 12720, Note_on_c, 2, 78, 88
6, 13073, Note_off_c, 2, 78, 0
6, 13080, Note_on_c, 2, 71, 88
6, 13196, Note_off_c, 2, 71, 0
6, 13200, Note_on_c, 2, 76, 88
6, 13556, Note_off_c, 2, 76, 0
6, 13560, Note_on_c, 2, 74, 88
6, 13618, Note_off_c, 2, 74, 0
6, 13620, Note_on_c, 2, 73, 88
6, 13678, Note_off_c, 2, 73, 0
6, 13680, Note_on_c, 2, 74, 88
6, 13796, Note_off_c, 2, 74, 0
6, 13800, Note_on_c, 2, 71, 88
6, 13909, Note_off_c, 2, 71, 0
6, 13920, Note_on_c, 2, 71, 88
6, 14154, Note_off_c, 2, 71, 0
6, 14160, Note_on_c, 2, 70, 88
6, 14394, Note_off_c, 2, 70, 0
6, 14400, Note_on_c, 2, 71, 88
6, 14634, Note_off_c, 2, 71, 0
6, 14640, Note_on_c, 2, 73, 88
6, 14874, Note_off_c, 2, 73, 0
6, 14880, Note_on_c, 2, 74, 88
6, 15233, Note_off_c, 2, 74, 0
6, 15240, Note_on_c, 2, 76, 88
6, 15476, Note_off_c, 2, 76, 0
6, 15480, Note_on_c, 2, 74, 88
6, 15596, Note_off_c, 2, 74, 0
6, 15600, Note_on_c, 2, 73, 88
6, 15716, Note_off_c, 2, 73, 0
6, 15720, Note_on_c, 2, 71, 88
6, 15829, Note_off_c, 2, 71, 0
6, 15840, Note_on_c, 2, 71, 88
6, 15913, Note_off_c, 2, 71, 0
6, 15915, Note_on_c, 2, 70, 88
6, 15937, Note_off_c, 2, 70, 0
6, 15938, Note_on_c, 2, 71, 88
6, 15959, Note_off_c, 2, 71, 0
6, 15960, Note_on_c, 2, 70, 88
6, 16313, Note_off_c, 2, 70, 0
6, 16320, Note_on_c, 2, 66, 88
6, 16554, Note_off_c, 2, 66, 0
6, 16560, Note_on_c, 2, 71, 88
6, 17030, Note_off_c, 2, 71, 0
6, 17040, Note_on_c, 2, 69, 88
6, 17274, Note_off_c, 2, 69, 0
6, 17280, Note_on_c, 2, 68, 88
6, 17514, Note_off_c, 2, 68, 0
6, 17520, Note_on_c, 2, 73, 88
6, 17990, Note_off_c, 2, 73, 0
6, 18000, Note_on_c, 2, 71, 88
6, 18116, Note_off_c, 2, 71, 0
6, 18120, Note_on_c, 2, 69, 88
6, 18236, Note_off_c, 2, 69, 0
6, 18240, Note_on_c, 2, 67, 88
6, 18830, Note_off_c, 2, 67, 0
6, 18840, Note_on_c, 2, 66, 88
6, 18956, Note_off_c, 2, 66, 0
6, 18960, Note_on_c, 2, 64, 88
6, 19434, Note_off_c, 2, 64, 0
6, 19440, Note_on_c, 2, 62, 88
6, 19674, Note_off_c, 2, 62, 0
6, 19680, Note_on_c, 2, 61, 88
6, 19914, Note_off_c, 2, 61, 0
6, 19920, Note_on_c, 2, 66, 88
6, 20394, Note_off_c, 2, 66, 0
6, 20400, Note_on_c, 2, 64, 88
6, 20870, Note_off_c, 2, 64, 0
6, 20880, Note_on_c, 2, 62, 88
6, 21354, Note_off_c, 2, 62, 0
6, 21360, Note_on_c, 2, 67, 88
6, 21830, Note_off_c, 2, 67, 0
6, 21840, Note_on_c, 2, 66, 88
6, 22074, Note_off_c, 2, 66, 0
6, 22080, Note_on_c, 2, 64, 88
6, 22550, Note_off_c, 2, 64, 0
6, 22560, Note_on_c, 2, 66, 88
6, 22794, Note_off_c, 2, 66, 0
6, 23040, Note_on_c, 2, 64, 88
6, 23274, Note_off_c, 2, 64, 0
6, 23280, Note_on_c, 2, 69, 88
6, 23750, Note_off_c, 2, 69, 0
6, 23760, Note_on_c, 2, 67, 88
6, 23994, Note_off_c, 2, 67, 0
6, 24000, Note_on_c, 2, 66, 88
6, 24234, Note_off_c, 2, 66, 0
6, 24240, Note_on_c, 2, 71, 88
6, 24710, Note_off_c, 2, 71, 0
6, 24720, Note_on_c, 2, 69, 88
6, 24954, Note_off_c, 2, 69, 0
6, 24960, Note_on_c, 2, 68, 88
6, 25194, Note_off_c, 2, 68, 0
6, 25200, Note_on_c, 2, 73, 88
6, 25670, Note_off_c, 2, 73, 0
6, 25680, Note_on_c, 2, 71, 88
6, 26154, Note_off_c, 2, 71, 0
6, 26160, Note_on_c, 2, 69, 88
6, 26394, Note_off_c, 2, 69, 0
6, 26400, Note_on_c, 2, 68, 88
6, 26870, Note_off_c, 2, 68, 0
6, 26880, Note_on_c, 2, 69, 88
6, 27114, Note_off_c, 2, 69, 0
6, 27120, Note_on_c, 2, 74, 88
6, 27590, Note_off_c, 2, 74, 0
6, 27600, Note_on_c, 2, 73, 88
6, 27834, Note_off_c, 2, 73, 0
6, 27840, Note_on_c, 2, 71, 88
6, 28074, Note_off_c, 2, 71, 0
6, 28080, Note_on_c, 2, 76, 88
6, 28550, Note_off_c, 2, 76, 0
6, 28560, Note_on_c, 2, 74, 88
6, 28794, Note_off_c, 2, 74, 0
6, 28800, Note_on_c, 2, 73, 88
6, 29034, Note_off_c, 2, 73, 0
6, 29040, Note_on_c, 2, 78, 88
6, 29393, Note_off_c, 2, 78, 0
6, 29400, Note_on_c, 2, 71, 88
6, 29516, Note_off_c, 2, 71, 0
6, 29520, Note_on_c, 2, 76, 88
6, 29876, Note_off_c, 2, 76, 0
6, 29880, Note_on_c, 2, 74, 88
6, 29938, Note_off_c, 2, 74, 0
6, 29940, Note_on_c, 2, 73, 88
6, 29998, Note_off_c, 2, 73, 0
6, 30000, Note_on_c, 2, 74, 88
6, 30116, Note_off_c, 2, 74, 0
6, 30120, Note_on_c, 2, 71, 88
6, 30229, Note_off_c, 2, 71, 0
6, 30240, Note_on_c, 2, 71, 88
6, 30474, Note_off_c, 2, 71, 0
6, 30480, Note_on_c, 2, 70, 88
6, 30714, Note_off_c, 2, 70, 0
6, 30720, Note_on_c, 2, 71, 88
6, 30954, Note_off_c, 2, 71, 0
6, 30960, Note_on_c, 2, 73, 88
6, 31194, Note_off_c, 2, 73, 0
6, 31200, Note_on_c, 2, 74, 88
6, 31553, Note_off_c, 2, 74, 0
6, 31560, Note_on_c, 2, 76, 88
6, 31796, Note_off_c, 2, 76, 0
6, 31800, Note_on_c, 2, 74, 88
6, 31916, Note_off_c, 2, 74, 0
6, 31920, Note_on_c, 2, 73, 88
6, 32036, Note_off_c, 2, 73, 0
6, 32040, Note_on_c, 2, 71, 88
6, 32149, Note_off_c, 2, 71, 0
6, 32160, Note_on_c, 2, 71, 88
6, 32233, Note_off_c, 2, 71, 0
6, 32235, Note_on_c, 2, 70, 88
6, 32257, Note_off_c, 2, 70, 0
6, 32258, Note_on_c, 2, 71, 88
6, 32279, Note_off_c, 2, 71, 0
6, 32280, Note_on_c, 2, 70, 88
6, 32633, Note_off_c, 2, 70, 0
6, 32760, Note_on_c, 2, 73, 88
6, 32876, Note_off_c, 2, 73, 0
6, 32880, Note_on_c, 2, 78, 88
6, 32996, Note_off_c, 2, 78, 0
6, 33000, Note_on_c, 2, 76, 88
6, 33116, Note_off_c, 2, 76, 0
6, 33120, Note_on_c, 2, 75, 88
6, 33590, Note_off_c, 2, 75, 0
6, 33600, Note_on_c, 2, 76, 88
6, 33834, Note_off_c, 2, 76, 0
6, 33840, Note_on_c, 2, 75, 88
6, 34074, Note_off_c, 2, 75, 0
6, 34080, Note_on_c, 2, 76, 88
6, 34196, Note_off_c, 2, 76, 0
6, 34200, Note_on_c, 2, 71, 88
6, 34316, Note_off_c, 2, 71, 0
6, 34320, Note_on_c, 2, 76, 88
6, 34436, Note_off_c, 2, 76, 0
6, 34440, Note_on_c, 2, 74, 88
6, 34556, Note_off_c, 2, 74, 0
6, 34560, Note_on_c, 2, 73, 88
6, 35030, Note_off_c, 2, 73, 0
6, 35040, Note_on_c, 2, 74, 88
6, 35274, Note_off_c, 2, 74, 0
6, 35280, Note_on_c, 2, 73, 88
6, 35514, Note_off_c, 2, 73, 0
6, 35520, Note_on_c, 2, 74, 88
6, 35636, Note_off_c, 2, 74, 0
6, 35640, Note_on_c, 2, 69, 88
6, 35756, Note_off_c, 2, 69, 0
6, 35760, Note_on_c, 2, 71, 88
6, 35876, Note_off_c, 2, 71, 0
6, 35880, Note_on_c, 2, 73, 88
6, 35996, Note_off_c, 2, 73, 0
6, 36000, Note_on_c, 2, 74, 88
6, 36596, Note_off_c, 2, 74, 0
6, 36600, Note_on_c, 2, 73, 88
6, 36716, Note_off_c, 2, 73, 0
6, 36720, Note_on_c, 2, 78, 88
6, 36836, Note_off_c, 2, 78, 0
6, 36840, Note_on_c, 2, 76, 88
6, 36956, Note_off_c, 2, 76, 0
6, 36960, Note_on_c, 2, 74, 88
6, 37076, Note_off_c, 2, 74, 0
6, 37080, Note_on_c, 2, 73, 88
6, 37196, Note_off_c, 2, 73, 0
6, 37200, Note_on_c, 2, 71, 88
6, 37674, Note_off_c, 2, 71, 0
6, 37680, Note_on_c, 2, 69, 88
6, 38029, Note_off_c, 2, 69, 0
6, 38040, Note_on_c, 2, 69, 88
6, 38156, Note_off_c, 2, 69, 0
6, 38160, Note_on_c, 2, 68, 88
6, 38276, Note_off_c, 2, 68, 0
6, 38280, Note_on_c, 2, 66, 88
6, 38396, Note_off_c, 2, 66, 0
6, 38400, Note_on_c, 2, 65, 88
6, 38516, Note_off_c, 2, 65, 0
6, 38520, Note_on_c, 2, 66, 88
6, 38636, Note_off_c, 2, 66, 0
6, 38640, Note_on_c, 2, 68, 88
6, 39110, Note_off_c, 2, 68, 0
6, 39120, Note_on_c, 2, 66, 88
6, 39236, Note_off_c, 2, 66, 0
6, 39240, Note_on_c, 2, 64, 88
6, 39356, Note_off_c, 2, 64, 0
6, 39360, Note_on_c, 2, 62, 88
6, 39830, Note_off_c, 2, 62, 0
6, 39840, Note_on_c, 2, 61, 88
6, 40310, Note_off_c, 2, 61, 0
6, 40320, Note_on_c, 2, 59, 88
6, 40910, Note_off_c, 2, 59, 0
6, 40920, Note_on_c, 2, 65, 88
6, 41036, Note_off_c, 2, 65, 0
6, 41040, Note_on_c, 2, 66, 88
6, 41156, Note_off_c, 2, 66, 0
6, 41160, Note_on_c, 2, 68, 88
6, 41276, Note_off_c, 2, 68, 0
6, 41280, Note_on_c, 2, 61, 88
6, 41396, Note_off_c, 2, 61, 0
6, 41400, Note_on_c, 2, 66, 88
6, 41634, Note_off_c, 2, 66, 0
6, 41640, Note_on_c, 2, 65, 88
6, 41756, Note_off_c, 2, 65, 0
6, 41760, Note_on_c, 2, 66, 88
6, 41994, Note_off_c, 2, 66, 0
6, 42000, Note_on_c, 2, 72, 88
6, 42474, Note_off_c, 2, 72, 0
6, 42480, Note_on_c, 2, 71, 88
6, 42596, Note_off_c, 2, 71, 0
6, 42600, Note_on_c, 2, 69, 88
6, 42716, Note_off_c, 2, 69, 0
6, 42720, Note_on_c, 2, 67, 88
6, 42836, Note_off_c, 2, 67, 0
6, 42840, Note_on_c, 2, 75, 88
6, 42956, Note_off_c, 2, 75, 0
6, 42960, Note_on_c, 2, 76, 88
6, 43076, Note_off_c, 2, 76, 0
6, 43080, Note_on_c, 2, 78, 88
6, 43196, Note_off_c, 2, 78, 0
6, 43200, Note_on_c, 2, 71, 88
6, 43316, Note_off_c, 2, 71, 0
6, 43320, Note_on_c, 2, 76, 88
6, 43554, Note_off_c, 2, 76, 0
6, 43560, Note_on_c, 2, 75, 88
6, 43676, Note_off_c, 2, 75, 0
6, 43680, Note_on_c, 2, 76, 88
6, 43914, Note_off_c, 2, 76, 0
6, 44160, Note_on_c, 2, 73, 88
6, 44394, Note_off_c, 2, 73, 0
6, 44400, Note_on_c, 2, 74, 88
6, 44516, Note_off_c, 2, 74, 0
6, 44520, Note_on_c, 2, 76, 88
6, 44636, Note_off_c, 2, 76, 0
6, 44640, Note_on_c, 2, 69, 88
6, 44756, Note_off_c, 2, 69, 0
6, 44760, Note_on_c, 2, 70, 88
6, 44876, Note_off_c, 2, 70, 0
6, 44880, Note_on_c, 2, 69, 88
6, 44996, Note_off_c, 2, 69, 0
6, 45000, Note_on_c, 2, 67, 88
6, 45116, Note_off_c, 2, 67, 0
6, 45120, Note_on_c, 2, 66, 88
6, 45354, Note_off_c, 2, 66, 0
6, 45360, Note_on_c, 2, 64, 88
6, 45594, Note_off_c, 2, 64, 0
6, 45600, Note_on_c, 2, 62, 88
6, 45834, Note_off_c, 2, 62, 0
6, 45840, Note_on_c, 2, 61, 88
6, 46074, Note_off_c, 2, 61, 0
6, 46080, Note_on_c, 2, 59, 88
6, 46314, Note_off_c, 2, 59, 0
6, 46320, Note_on_c, 2, 57, 88
6, 46554, Note_off_c, 2, 57, 0
6, 46560, Note_on_c, 2, 59, 88
6, 46794, Note_off_c, 2, 59, 0
6, 46800, Note_on_c, 2, 64, 88
6, 47156, Note_off_c, 2, 64, 0
6, 47160, Note_on_c, 2, 67, 88
6, 47276, Note_off_c, 2, 67, 0
6, 47280, Note_on_c, 2, 66, 88
6, 47396, Note_off_c, 2, 66, 0
6, 47400, Note_on_c, 2, 64, 88
6, 47516, Note_off_c, 2, 64, 0
6, 47520, Note_on_c, 2, 62, 88
6, 47754, Note_off_c, 2, 62, 0
6, 47760, Note_on_c, 2, 67, 88
6, 48116, Note_off_c, 2, 67, 0
6, 48120, Note_on_c, 2, 71, 88
6, 48236, Note_off_c, 2, 71, 0
6, 48240, Note_on_c, 2, 69, 88
6, 48356, Note_off_c, 2, 69, 0
6, 48360, Note_on_c, 2, 67, 88
6, 48476, Note_off_c, 2, 67, 0
6, 48480, Note_on_c, 2, 66, 88
6, 48714, Note_off_c, 2, 66, 0
6, 48720, Note_on_c, 2, 71, 88
6, 49076, Note_off_c, 2, 71, 0
6, 49080, Note_on_c, 2, 74, 88
6, 49196, Note_off_c, 2, 74, 0
6, 49200, Note_on_c, 2, 73, 88
6, 49316, Note_off_c, 2, 73, 0
6, 49320, Note_on_c, 2, 71, 88
6, 49436, Note_off_c, 2, 71, 0
6, 49440, Note_on_c, 2, 73, 88
6, 49556, Note_off_c, 2, 73, 0
6, 49560, Note_on_c, 2, 76, 88
6, 49676, Note_off_c, 2, 76, 0
6, 49680, Note_on_c, 2, 74, 88
6, 49796, Note_off_c, 2, 74, 0
6, 49800, Note_on_c, 2, 73, 88
6, 49916, Note_off_c, 2, 73, 0
6, 49920, Note_on_c, 2, 74, 88
6, 50154, Note_off_c, 2, 74, 0
6, 50160, Note_on_c, 2, 71, 88
6, 50513, Note_off_c, 2, 71, 0
6, 50520, Note_on_c, 2, 74, 88
6, 50636, Note_off_c, 2, 74, 0
6, 50640, Note_on_c, 2, 73, 88
6, 50756, Note_off_c, 2, 73, 0
6, 50760, Note_on_c, 2, 71, 88
6, 50876, Note_off_c, 2, 71, 0
6, 50880, Note_on_c, 2, 76, 88
6, 51114, Note_off_c, 2, 76, 0
6, 51120, Note_on_c, 2, 73, 88
6, 51473, Note_off_c, 2, 73, 0
6, 51480, Note_on_c, 2, 76, 88
6, 51596, Note_off_c, 2, 76, 0
6, 51600, Note_on_c, 2, 74, 88
6, 51716, Note_off_c, 2, 74, 0
6, 51720, Note_on_c, 2, 73, 88
6, 51836, Note_off_c, 2, 73, 0
6, 51840, Note_on_c, 2, 78, 88
6, 52074, Note_off_c, 2, 78, 0
6, 52080, Note_on_c, 2, 74, 88
6, 52433, Note_off_c, 2, 74, 0
6, 52440, Note_on_c, 2, 76, 88
6, 52556, Note_off_c, 2, 76, 0
6, 52560, Note_on_c, 2, 78, 88
6, 53034, Note_off_c, 2, 78, 0
6, 53040, Note_on_c, 2, 76, 88
6, 53510, Note_off_c, 2, 76, 0
6, 53520, Note_on_c, 2, 74, 88
6, 53994, Note_off_c, 2, 74, 0
6, 54000, Note_on_c, 2, 73, 88
6, 54470, Note_off_c, 2, 73, 0
6, 54480, Note_on_c, 2, 71, 88
6, 54596, Note_off_c, 2, 71, 0
6, 54600, Note_on_c, 2, 69, 88
6, 54716, Note_off_c, 2, 69, 0
6, 54720, Note_on_c, 2, 67, 88
6, 55310, Note_off_c, 2, 67, 0
6, 55320, Note_on_c, 2, 70, 88
6, 55436, Note_off_c, 2, 70, 0
6, 55440, Note_on_c, 2, 71, 88
6, 55556, Note_off_c, 2, 71, 0
6, 55560, Note_on_c, 2, 73, 88
6, 55676, Note_off_c, 2, 73, 0
6, 55680, Note_on_c, 2, 66, 88
6, 55796, Note_off_c, 2, 66, 0
6, 55800, Note_on_c, 2, 71, 88
6, 56034, Note_off_c, 2, 71, 0
6, 56040, Note_on_c, 2, 70, 88
6, 56156, Note_off_c, 2, 70, 0
6, 56160, Note_on_c, 2, 71, 88
6, 56276, Note_off_c, 2, 71, 0
6, 56280, Note_on_c, 2, 64, 88
6, 56514, Note_off_c, 2, 64, 0
6, 56520, Note_on_c, 2, 63, 88
6, 56636, Note_off_c, 2, 63, 0
6, 56640, Note_on_c, 2, 67, 88
6, 57229, Note_off_c, 2, 67, 0
6, 57240, Note_on_c, 2, 67, 88
6, 57474, Note_off_c, 2, 67, 0
6, 57480, Note_on_c, 2, 66, 88
6, 57596, Note_off_c, 2, 66, 0
6, 57600, Note_on_c, 2, 71, 88
6, 58189, Note_off_c, 2, 71, 0
6, 58200, Note_on_c, 2, 71, 88
6, 58434, Note_off_c, 2, 71, 0
6, 58440, Note_on_c, 2, 70, 88
6, 58556, Note_off_c, 2, 70, 0
6, 58560, Note_on_c, 2, 74, 88
6, 59150, Note_off_c, 2, 74, 0
6, 59160, Note_on_c, 2, 72, 88
6, 59276, Note_off_c, 2, 72, 0
6, 59280, Note_on_c, 2, 71, 88
6, 59754, Note_off_c, 2, 71, 0
6, 59760, Note_on_c, 2, 70, 88
6, 59994, Note_off_c, 2, 70, 0
6, 60000, Note_on_c, 2, 69, 88
6, 60116, Note_off_c, 2, 69, 0
6, 60120, Note_on_c, 2, 67, 88
6, 60354, Note_off_c, 2, 67, 0
6, 60360, Note_on_c, 2, 66, 88
6, 60596, Note_off_c, 2, 66, 0
6, 60600, Note_on_c, 2, 64, 88
6, 60716, Note_off_c, 2, 64, 0
6, 60720, Note_on_c, 2, 61, 88
6, 60954, Note_off_c, 2, 61, 0
6, 60960, Note_on_c, 2, 63, 88
6, 61430, Note_off_c, 2, 63, 0
6, 61560, Note_on_c, 2, 73, 88
6, 61676, Note_off_c, 2, 73, 0
6, 61680, Note_on_c, 2, 78, 88
6, 61796, Note_off_c, 2, 78, 0
6, 61800, Note_on_c, 2, 76, 88
6, 61916, Note_off_c, 2, 76, 0
6, 61920, Note_on_c, 2, 75, 88
6, 62390, Note_off_c, 2, 75, 0
6, 62400, Note_on_c, 2, 76, 88
6, 62634, Note_off_c, 2, 76, 0
6, 62640, Note_on_c, 2, 75, 88
6, 62874, Note_off_c, 2, 75, 0
6, 62880, Note_on_c, 2, 76, 88
6, 62996, Note_off_c, 2, 76, 0
6, 63000, Note_on_c, 2, 71, 88
6, 63116, Note_off_c, 2, 71, 0
6, 63120, Note_on_c, 2, 76, 88
6, 63236, Note_off_c, 2, 76, 0
6, 63240, Note_on_c, 2, 74, 88
6, 63356, Note_off_c, 2, 74, 0
6, 63360, Note_on_c, 2, 73, 88
6, 63830, Note_off_c, 2, 73, 0
6, 63840, Note_on_c, 2, 74, 88
6, 64074, Note_off_c, 2, 74, 0
6, 64080, Note_on_c, 2, 73, 88
6, 64314, Note_off_c, 2, 73, 0
6, 64320, Note_on_c, 2, 74, 88
6, 64436, Note_off_c, 2, 74, 0
6, 64440, Note_on_c, 2, 69, 88
6, 64556, Note_off_c, 2, 69, 0
6, 64560, Note_on_c, 2, 71, 88
6, 64676, Note_off_c, 2, 71, 0
6, 64680, Note_on_c, 2, 73, 88
6, 64796, Note_off_c, 2, 73, 0
6, 64800, Note_on_c, 2, 74, 88
6, 65396, Note_off_c, 2, 74, 0
6, 65400, Note_on_c, 2, 73, 88
6, 65516, Note_off_c, 2, 73, 0
6, 65520, Note_on_c, 2, 78, 88
6, 65636, Note_off_c, 2, 78, 0
6, 65640, Note_on_c, 2, 76, 88
6, 65756, Note_off_c, 2, 76, 0
6, 65760, Note_on_c, 2, 74, 88
6, 65876, Note_off_c, 2, 74, 0
6, 65880, Note_on_c, 2, 73, 88
6, 65996, Note_off_c, 2, 73, 0
6, 66000, Note_on_c, 2, 71, 88
6, 66474, Note_off_c, 2, 71, 0
6, 66480, Note_on_c, 2, 69, 88
6, 66829, Note_off_c, 2, 69, 0
6, 66840, Note_on_c, 2, 69, 88
6, 66956, Note_off_c, 2, 69, 0
6, 66960, Note_on_c, 2, 68, 88
6, 67076, Note_off_c, 2, 68, 0
6, 67080, Note_on_c, 2, 66, 88
6, 67196, Note_off_c, 2, 66, 0
6, 67200, Note_on_c, 2, 65, 88
6, 67316, Note_off_c, 2, 65, 0
6, 67320, Note_on_c, 2, 66, 88
6, 67436, Note_off_c, 2, 66, 0
6, 67440, Note_on_c, 2, 68, 88
6, 67910, Note_off_c, 2, 68, 0
6, 67920, Note_on_c, 2, 66, 88
6, 68036, Note_off_c, 2, 66, 0
6, 68040, Note_on_c, 2, 64, 88
6, 68156, Note_off_c, 2, 64, 0
6, 68160, Note_on_c, 2, 62, 88
6, 68630, Note_off_c, 2, 62, 0
6, 68640, Note_on_c, 2, 61, 88
6, 69110, Note_off_c, 2, 61, 0
6, 69120, Note_on_c, 2, 59, 88
6, 69710, Note_off_c, 2, 59, 0
6, 69720, Note_on_c, 2, 65, 88
6, 69836, Note_off_c, 2, 65, 0
6, 69840, Note_on_c, 2, 66, 88
6, 69956, Note_off_c, 2, 66, 0
6, 69960, Note_on_c, 2, 68, 88
6, 70076, Note_off_c, 2, 68, 0
6, 70080, Note_on_c, 2, 61, 88
6, 70196, Note_off_c, 2, 61, 0
6, 70200, Note_on_c, 2, 66, 88
6, 70434, Note_off_c, 2, 66, 0
6, 70440, Note_on_c, 2, 65, 88
6, 70556, Note_off_c, 2, 65, 0
6, 70560, Note_on_c, 2, 66, 88
6, 70794, Note_off_c, 2, 66, 0
6, 70800, Note_on_c, 2, 72, 88
6, 71274, Note_off_c, 2, 72, 0
6, 71280, Note_on_c, 2, 71, 88
6, 71396, Note_off_c, 2, 71, 0
6, 71400, Note_on_c, 2, 69, 88
6, 71516, Note_off_c, 2, 69, 0
6, 71520, Note_on_c, 2, 67, 88
6, 71636, Note_off_c, 2, 67, 0
6, 71640, Note_on_c, 2, 75, 88
6, 71756, Note_off_c, 2, 75, 0
6, 71760, Note_on_c, 2, 76, 88
6, 71876, Note_off_c, 2, 76, 0
6, 71880, Note_on_c, 2, 78, 88
6, 71996, Note_off_c, 2, 78, 0
6, 72000, Note_on_c, 2, 71, 88
6, 72116, Note_off_c, 2, 71, 0
6, 72120, Note_on_c, 2, 76, 88
6, 72354, Note_off_c, 2, 76, 0
6, 72360, Note_on_c, 2, 75, 88
6, 72476, Note_off_c, 2, 75, 0
6, 72480, Note_on_c, 2, 76, 88
6, 72714, Note_off_c, 2, 76, 0
6, 72960, Note_on_c, 2, 73, 88
6, 73194, Note_off_c, 2, 73, 0
6, 73200, Note_on_c, 2, 74, 88
6, 73316, Note_off_c, 2, 74, 0
6, 73320, Note_on_c, 2, 76, 88
6, 73436, Note_off_c, 2, 76, 0
6, 73440, Note_on_c, 2, 69, 88
6, 73556, Note_off_c, 2, 69, 0
6, 73560, Note_on_c, 2, 70, 88
6, 73676, Note_off_c, 2, 70, 0
6, 73680, Note_on_c, 2, 69, 88
6, 73796, Note_off_c, 2, 69, 0
6, 73800, Note_on_c, 2, 67, 88
6, 73916, Note_off_c, 2, 67, 0
6, 73920, Note_on_c, 2, 66, 88
6, 74154, Note_off_c, 2, 66, 0
6, 74160, Note_on_c, 2, 64, 88
6, 74394, Note_off_c, 2, 64, 0
6, 74400, Note_on_c, 2, 62, 88
6, 74634, Note_off_c, 2, 62, 0
6, 74640, Note_on_c, 2, 61, 88
6, 74874, Note_off_c, 2, 61, 0
6, 74880, Note_on_c, 2, 59, 88
6, 75114, Note_off_c, 2, 59, 0
6, 75120, Note_on_c, 2, 57, 88
6, 75354, Note_off_c, 2, 57, 0
6, 75360, Note_on_c, 2, 59, 88
6, 75594, Note_off_c, 2, 59, 0
6, 75600, Note_on_c, 2, 64, 88
6, 75956, Note_off_c, 2, 64, 0
6, 75960, Note_on_c, 2, 67, 88
6, 76076, Note_off_c, 2, 67, 0
6, 76080, Note_on_c, 2, 66, 88
6, 76196, Note_off_c, 2, 66, 0
6, 76200, Note_on_c, 2, 64, 88
6, 76316, Note_off_c, 2, 64, 0
6, 76320, Note_on_c, 2, 62, 88
6, 76554, Note_off_c, 2, 62, 0
6, 76560, Note_on_c, 2, 67, 88
6, 76916, Note_off_c, 2, 67, 0
6, 76920, Note_on_c, 2, 71, 88
6, 77036, Note_off_c, 2, 71, 0
6, 77040, Note_on_c, 2, 69, 88
6, 77156, Note_off_c, 2, 69, 0
6, 77160, Note_on_c, 2, 67, 88
6, 77276, Note_off_c, 2, 67, 0
6, 77280, Note_on_c, 2, 66, 88
6, 77514, Note_off_c, 2, 66, 0
6, 77520, Note_on_c, 2, 71, 88
6, 77876, Note_off_c, 2, 71, 0
6, 77880, Note_on_c, 2, 74, 88
6, 77996, Note_off_c, 2, 74, 0
6, 78000, Note_on_c, 2, 73, 88
6, 78116, Note_off_c, 2, 73, 0
6, 78120, Note_on_c, 2, 71, 88
6, 78236, Note_off_c, 2, 71, 0
6, 78240, Note_on_c, 2, 73, 88
6, 78356, Note_off_c, 2, 73, 0
6, 78360, Note_on_c, 2, 76, 88
6, 78476, Note_off_c, 2, 76, 0
6, 78480, Note_on_c, 2, 74, 88
6, 78596, Note_off_c, 2, 74, 0
6, 78600, Note_on_c, 2, 73, 88
6, 78716, Note_off_c, 2, 73, 0
6, 78720, Note_on_c, 2, 74, 88
6, 78954, Note_off_c, 2, 74, 0
6, 78960, Note_on_c, 2, 71, 88
6, 79313, Note_off_c, 2, 71, 0
6, 79320, Note_on_c, 2, 74, 88
6, 79436, Note_off_c, 2, 74, 0
6, 79440, Note_on_c, 2, 73, 88
6, 79556, Note_off_c, 2, 73, 0
6, 79560, Note_on_c, 2, 71, 88
6, 79676, Note_off_c, 2, 71, 0
6, 79680, Note_on_c, 2, 76, 88
6, 79914, Note_off_c, 2, 76, 0
6, 79920, Note_on_c, 2, 73, 88
6, 80273, Note_off_c, 2, 73, 0
6, 80280, Note_on_c, 2, 76, 88
6, 80396, Note_off_c, 2, 76, 0
6, 80400, Note_on_c, 2, 74, 88
6, 80516, Note_off_c, 2, 74, 0
6, 80520, Note_on_c, 2, 73, 88
6, 80636, Note_off_c, 2, 73, 0
6, 80640, Note_on_c, 2, 78, 88
6, 80874, Note_off_c, 2, 78, 0
6, 80880, Note_on_c, 2, 74, 88
6, 81233, Note_off_c, 2, 74, 0
6, 81240, Note_on_c, 2, 76, 88
6, 81356, Note_off_c, 2, 76, 0
6, 81360, Note_on_c, 2, 78, 88
6, 81834, Note_off_c, 2, 78, 0
6, 81840, Note_on_c, 2, 76, 88
6, 82310, Note_off_c, 2, 76, 0
6, 82320, Note_on_c, 2, 74, 88
6, 82794, Note_off_c, 2, 74, 0
6, 82800, Note_on_c, 2, 73, 88
6, 83270, Note_off_c, 2, 73, 0
6, 83280, Note_on_c, 2, 71, 88
6, 83396, Note_off_c, 2, 71, 0
6, 83400, Note_on_c, 2, 69, 88
6, 83516, Note_off_c, 2, 69, 0
6, 83520, Note_on_c, 2, 67, 88
6, 84110, Note_off_c, 2, 67, 0
6, 84120, Note_on_c, 2, 70, 88
6, 84236, Note_off_c, 2, 70, 0
6, 84240, Note_on_c, 2, 71, 88
6, 84356, Note_off_c, 2, 71, 0
6, 84360, Note_on_c, 2, 73, 88
6, 84476, Note_off_c, 2, 73, 0
6, 84480, Note_on_c, 2, 66, 88
6, 84596, Note_off_c, 2, 66, 0
6, 84600, Note_on_c, 2, 71, 88
6, 84834, Note_off_c, 2, 71, 0
6, 84840, Note_on_c, 2, 70, 88
6, 84956, Note_off_c, 2, 70, 0
6, 84960, Note_on_c, 2, 71, 88
6, 85076, Note_off_c, 2, 71, 0
6, 85080, Note_on_c, 2, 64, 88
6, 85314, Note_off_c, 2, 64, 0
6, 85320, Note_on_c, 2, 63, 88
6, 85436, Note_off_c, 2, 63, 0
6, 85440, Note_on_c, 2, 67, 88
6, 86029, Note_off_c, 2, 67, 0
6, 86040, Note_on_c, 2, 67, 88
6, 86274, Note_off_c, 2, 67, 0
6, 86280, Note_on_c, 2, 66, 88
6, 86396, Note_off_c, 2, 66, 0
6, 86400, Note_on_c, 2, 71, 88
6, 86989, Note_off_c, 2, 71, 0
6, 87000, Note_on_c, 2, 71, 88
6, 87234, Note_off_c, 2, 71, 0
6, 87240, Note_on_c, 2, 70, 88
6, 87356, Note_off_c, 2, 70, 0
6, 87360, Note_on_c, 2, 74, 88
6, 87950, Note_off_c, 2, 74, 0
6, 87960, Note_on_c, 2, 72, 88
6, 88076, Note_off_c, 2, 72, 0
6, 88080, Note_on_c, 2, 71, 88
6, 88554, Note_off_c, 2, 71, 0
6, 88560, Note_on_c, 2, 70, 88
6, 88794, Note_off_c, 2, 70, 0
6, 88800, Note_on_c, 2, 69, 88
6, 88916, Note_off_c, 2, 69, 0
6, 88920, Note_on_c, 2, 67, 88
6, 89154, Note_off_c, 2, 67, 0
6, 89160, Note_on_c, 2, 66, 88
6, 89396, Note_off_c, 2, 66, 0
6, 89400, Note_on_c, 2, 64, 88
6, 89516, Note_off_c, 2, 64, 0
6, 89520, Note_on_c, 2, 61, 88
6, 89754, Note_off_c, 2, 61, 0
6, 89760, Note_on_c, 2, 63, 88
6, 90230, Note_off_c, 2, 63, 0
6, 90230, End_track
7, 0, Start_track
7, 0, Title_t, "Track 4"
7, 0, Program_c, 3, 6
7, 0, Note_on_c, 3, 47, 88
7, 116, Note_off_c, 3, 47, 0
7, 120, Note_on_c, 3, 49, 88
7, 236, Note_off_c, 3, 49, 0
7, 240, Note_on_c, 3, 50, 88
7, 356, Note_off_c, 3, 50, 0
7, 360, Note_on_c, 3, 52, 88
7, 476, Note_off_c, 3, 52, 0
7, 480, Note_on_c, 3, 54, 88
7, 596, Note_off_c, 3, 54, 0
7, 600, Note_on_c, 3, 56, 88
7, 716, Note_off_c, 3, 56, 0
7, 720, Note_on_c, 3, 57, 88
7, 836, Note_off_c, 3, 57, 0
7, 840, Note_on_c, 3, 59, 88
7, 956, Note_off_c, 3, 59, 0
7, 960, Note_on_c, 3, 61, 88
7, 1076, Note_off_c, 3, 61, 0
7, 1080, Note_on_c, 3, 59, 88
7, 1196, Note_off_c, 3, 59, 0
7, 1200, Note_on_c, 3, 58, 88
7, 1316, Note_off_c, 3, 58, 0
7, 1320, Note_on_c, 3, 54, 88
7, 1436, Note_off_c, 3, 54, 0
7, 1440, Note_on_c, 3, 59, 88
7, 1556, Note_off_c, 3, 59, 0
7, 1560, Note_on_c, 3, 57, 88
7, 1676, Note_off_c, 3, 57, 0
7, 1680, Note_on_c, 3, 55, 88
7, 1796, Note_off_c, 3, 55, 0
7, 1800, Note_on_c, 3, 54, 88
7, 1916, Note_off_c, 3, 54, 0
7, 1920, Note_on_c, 3, 52, 88
7, 2036, Note_off_c, 3, 52, 0
7, 2040, Note_on_c, 3, 49, 88
7, 2156, Note_off_c, 3, 49, 0
7, 2160, Note_on_c, 3, 50, 88
7, 2276, Note_off_c, 3, 50, 0
7, 2280, Note_on_c, 3, 52, 88
7, 2396, Note_off_c, 3, 52, 0
7, 2400, Note_on_c, 3, 54, 88
7, 2516, Note_off_c, 3, 54, 0
7, 2520, Note_on_c, 3, 42, 88
7, 2636, Note_off_c, 3, 42, 0
7, 2640, Note_on_c, 3, 44, 88
7, 2756, Note_off_c, 3, 44, 0
7, 2760, Note_on_c, 3, 46, 88
7, 2876, Note_off_c, 3, 46, 0
7, 2880, Note_on_c, 3, 47, 88
7, 2996, Note_off_c, 3, 47, 0
7, 3000, Note_on_c, 3, 49, 88
7, 3116, Note_off_c, 3, 49, 0
7, 3120, Note_on_c, 3, 50, 88
7, 3236, Note_off_c, 3, 50, 0
7, 3240, Note_on_c, 3, 52, 88
7, 3356, Note_off_c, 3, 52, 0
7, 3360, Note_on_c, 3, 54, 88
7, 3476, Note_off_c, 3, 54, 0
7, 3480, Note_on_c, 3, 56, 88
7, 3596, Note_off_c, 3, 56, 0
7, 3600, Note_on_c, 3, 57, 88
7, 3716, Note_off_c, 3, 57, 0
7, 3720, Note_on_c, 3, 54, 88
7, 3836, Note_off_c, 3, 54, 0
7, 3840, Note_on_c, 3, 59, 88
7, 3956, Note_off_c, 3, 59, 0
7, 3960, Note_on_c, 3, 47, 88
7, 4076, Note_off_c, 3, 47, 0
7, 4080, Note_on_c, 3, 49, 88
7, 4196, Note_off_c, 3, 49, 0
7, 4200, Note_on_c, 3, 45, 88
7, 4316, Note_off_c, 3, 45, 0
7, 4320, Note_on_c, 3, 50, 88
7, 4436, Note_off_c, 3, 50, 0
7, 4440, Note_on_c, 3, 49, 88
7, 4556, Note_off_c, 3, 49, 0
7, 4560, Note_on_c, 3, 47, 88
7, 4676, Note_off_c, 3, 47, 0
7, 4680, Note_on_c, 3, 45, 88
7, 4796, Note_off_c, 3, 45, 0
7, 4800, Note_on_c, 3, 43, 88
7, 4916, Note_off_c, 3, 43, 0
7, 4920, Note_on_c, 3, 54, 88
7, 5036, Note_off_c, 3, 54, 0
7, 5040, Note_on_c, 3, 52, 88
7, 5156, Note_off_c, 3, 52, 0
7, 5160, Note_on_c, 3, 50, 88
7, 5276, Note_off_c, 3, 50, 0
7, 5280, Note_on_c, 3, 49, 88
7, 5396, Note_off_c, 3, 49, 0
7, 5400, Note_on_c, 3, 57, 88
7, 5516, Note_off_c, 3, 57, 0
7, 5520, Note_on_c, 3, 59, 88
7, 5636, Note_off_c, 3, 59, 0
7, 5640, Note_on_c, 3, 54, 88
7, 5756, Note_off_c, 3, 54, 0
7, 5760, Note_on_c, 3, 55, 88
7, 5876, Note_off_c, 3, 55, 0
7, 5880, Note_on_c, 3, 52, 88
7, 5996, Note_off_c, 3, 52, 0
7, 6000, Note_on_c, 3, 57, 88
7, 6116, Note_off_c, 3, 57, 0
7, 6120, Note_on_c, 3, 45, 88
7, 6236, Note_off_c, 3, 45, 0
7, 6240, Note_on_c, 3, 50, 88
7, 6356, Note_off_c, 3, 50, 0
7, 6360, Note_on_c, 3, 52, 88
7, 6476, Note_off_c, 3, 52, 0
7, 6480, Note_on_c, 3, 54, 88
7, 6596, Note_off_c, 3, 54, 0
7, 6600, Note_on_c, 3, 55, 88
7, 6716, Note_off_c, 3, 55, 0
7, 6720, Note_on_c, 3, 45, 88
7, 6836, Note_off_c, 3, 45, 0
7, 6840, Note_on_c, 3, 47, 88
7, 6956, Note_off_c, 3, 47, 0
7, 6960, Note_on_c, 3, 49, 88
7, 7076, Note_off_c, 3, 49, 0
7, 7080, Note_on_c, 3, 50, 88
7, 7196, Note_off_c, 3, 50, 0
7, 7200, Note_on_c, 3, 52, 88
7, 7316, Note_off_c, 3, 52, 0
7, 7320, Note_on_c, 3, 54, 88
7, 7436, Note_off_c, 3, 54, 0
7, 7440, Note_on_c, 3, 55, 88
7, 7556, Note_off_c, 3, 55, 0
7, 7560, Note_on_c, 3, 57, 88
7, 7676, Note_off_c, 3, 57, 0
7, 7680, Note_on_c, 3, 47, 88
7, 7796, Note_off_c, 3, 47, 0
7, 7800, Note_on_c, 3, 49, 88
7, 7916, Note_off_c, 3, 49, 0
7, 7920, Note_on_c, 3, 50, 88
7, 8036, Note_off_c, 3, 50, 0
7, 8040, Note_on_c, 3, 52, 88
7, 8156, Note_off_c, 3, 52, 0
7, 8160, Note_on_c, 3, 54, 88
7, 8276, Note_off_c, 3, 54, 0
7, 8280, Note_on_c, 3, 56, 88
7, 8396, Note_off_c, 3, 56, 0
7, 8400, Note_on_c, 3, 57, 88
7, 8516, Note_off_c, 3, 57, 0
7, 8520, Note_on_c, 3, 59, 88
7, 8636, Note_off_c, 3, 59, 0
7, 8640, Note_on_c, 3, 61, 88
7, 8756, Note_off_c, 3, 61, 0
7, 8760, Note_on_c, 3, 59, 88
7, 8876, Note_off_c, 3, 59, 0
7, 8880, Note_on_c, 3, 61, 88
7, 8996, Note_off_c, 3, 61, 0
7, 9000, Note_on_c, 3, 57, 88
7, 9116, Note_off_c, 3, 57, 0
7, 9120, Note_on_c, 3, 62, 88
7, 9236, Note_off_c, 3, 62, 0
7, 9240, Note_on_c, 3, 61, 88
7, 9356, Note_off_c, 3, 61, 0
7, 9360, Note_on_c, 3, 62, 88
7, 9476, Note_off_c, 3, 62, 0
7, 9480, Note_on_c, 3, 59, 88
7, 9596, Note_off_c, 3, 59, 0
7, 9600, Note_on_c, 3, 53, 88
7, 9716, Note_off_c, 3, 53, 0
7, 9720, Note_on_c, 3, 61, 88
7, 9836, Note_off_c, 3, 61, 0
7, 9840, Note_on_c, 3, 62, 88
7, 9956, Note_off_c, 3, 62, 0
7, 9960, Note_on_c, 3, 57, 88
7, 10076, Note_off_c, 3, 57, 0
7, 10080, Note_on_c, 3, 59, 88
7, 10196, Note_off_c, 3, 59, 0
7, 10200, Note_on_c, 3, 56, 88
7, 10316, Note_off_c, 3, 56, 0
7, 10320, Note_on_c, 3, 61, 88
7, 10436, Note_off_c, 3, 61, 0
7, 10440, Note_on_c, 3, 49, 88
7, 10556, Note_off_c, 3, 49, 0
7, 10560, Note_on_c, 3, 54, 88
7, 10676, Note_off_c, 3, 54, 0
7, 10680, Note_on_c, 3, 52, 88
7, 10796, Note_off_c, 3, 52, 0
7, 10800, Note_on_c, 3, 54, 88
7, 10916, Note_off_c, 3, 54, 0
7, 10920, Note_on_c, 3, 56, 88
7, 11036, Note_off_c, 3, 56, 0
7, 11040, Note_on_c, 3, 57, 88
7, 11156, Note_off_c, 3, 57, 0
7, 11160, Note_on_c, 3, 59, 88
7, 11276, Note_off_c, 3, 59, 0
7, 11280, Note_on_c, 3, 61, 88
7, 11396, Note_off_c, 3, 61, 0
7, 11400, Note_on_c, 3, 62, 88
7, 11516, Note_off_c, 3, 62, 0
7, 11520, Note_on_c, 3, 52, 88
7, 11636, Note_off_c, 3, 52, 0
7, 11640, Note_on_c, 3, 54, 88
7, 11756, Note_off_c, 3, 54, 0
7, 11760, Note_on_c, 3, 55, 88
7, 11876, Note_off_c, 3, 55, 0
7, 11880, Note_on_c, 3, 57, 88
7, 11996, Note_off_c, 3, 57, 0
7, 12000, Note_on_c, 3, 59, 88
7, 12116, Note_off_c, 3, 59, 0
7, 12120, Note_on_c, 3, 61, 88
7, 12236, Note_off_c, 3, 61, 0
7, 12240, Note_on_c, 3, 62, 88
7, 12356, Note_off_c, 3, 62, 0
7, 12360, Note_on_c, 3, 64, 88
7, 12476, Note_off_c, 3, 64, 0
7, 12480, Note_on_c, 3, 54, 88
7, 12596, Note_off_c, 3, 54, 0
7, 12600, Note_on_c, 3, 52, 88
7, 12716, Note_off_c, 3, 52, 0
7, 12720, Note_on_c, 3, 54, 88
7, 12836, Note_off_c, 3, 54, 0
7, 12840, Note_on_c, 3, 50, 88
7, 12956, Note_off_c, 3, 50, 0
7, 12960, Note_on_c, 3, 55, 88
7, 13076, Note_off_c, 3, 55, 0
7, 13080, Note_on_c, 3, 54, 88
7, 13196, Note_off_c, 3, 54, 0
7, 13200, Note_on_c, 3, 55, 88
7, 13316, Note_off_c, 3, 55, 0
7, 13320, Note_on_c, 3, 52, 88
7, 13436, Note_off_c, 3, 52, 0
7, 13440, Note_on_c, 3, 58, 88
7, 13556, Note_off_c, 3, 58, 0
7, 13560, Note_on_c, 3, 54, 88
7, 13676, Note_off_c, 3, 54, 0
7, 13680, Note_on_c, 3, 59, 88
7, 13796, Note_off_c, 3, 59, 0
7, 13800, Note_on_c, 3, 52, 88
7, 13916, Note_off_c, 3, 52, 0
7, 13920, Note_on_c, 3, 54, 88
7, 14036, Note_off_c, 3, 54, 0
7, 14040, Note_on_c, 3, 52, 88
7, 14156, Note_off_c, 3, 52, 0
7, 14160, Note_on_c, 3, 54, 88
7, 14276, Note_off_c, 3, 54, 0
7, 14280, Note_on_c, 3, 42, 88
7, 14396, Note_off_c, 3, 42, 0
7, 14400, Note_on_c, 3, 47, 88
7, 14634, Note_off_c, 3, 47, 0
7, 14640, Note_on_c, 3, 45, 88
7, 14869, Note_off_c, 3, 45, 0
7, 14880, Note_on_c, 3, 45, 88
7, 14909, Note_off_c, 3, 45, 0
7, 14910, Note_on_c, 3, 43, 88
7, 14939, Note_off_c, 3, 43, 0
7, 14940, Note_on_c, 3, 45, 88
7, 14969, Note_off_c, 3, 45, 0
7, 14970, Note_on_c, 3, 43, 88
7, 14999, Note_off_c, 3, 43, 0
7, 15000, Note_on_c, 3, 45, 88
7, 15029, Note_off_c, 3, 45, 0
7, 15030, Note_on_c, 3, 43, 88
7, 15059, Note_off_c, 3, 43, 0
7, 15060, Note_on_c, 3, 45, 88
7, 15089, Note_off_c, 3, 45, 0
7, 15090, Note_on_c, 3, 43, 88
7, 15119, Note_off_c, 3, 43, 0
7, 15120, Note_on_c, 3, 45, 88
7, 15149, Note_off_c, 3, 45, 0
7, 15150, Note_on_c, 3, 43, 88
7, 15179, Note_off_c, 3, 43, 0
7, 15180, Note_on_c, 3, 45, 88
7, 15209, Note_off_c, 3, 45, 0
7, 15210, Note_on_c, 3, 43, 88
7, 15239, Note_off_c, 3, 43, 0
7, 15240, Note_on_c, 3, 45, 88
7, 15269, Note_off_c, 3, 45, 0
7, 15270, Note_on_c, 3, 43, 88
7, 15299, Note_off_c, 3, 43, 0
7, 15300, Note_on_c, 3, 42, 88
7, 15329, Note_off_c, 3, 42, 0
7, 15330, Note_on_c, 3, 43, 88
7, 15359, Note_off_c, 3, 43, 0
7, 15360, Note_on_c, 3, 42, 88
7, 16305, Note_off_c, 3, 42, 0
7, 16320, Note_on_c, 3, 47, 88
7, 16436, Note_off_c, 3, 47, 0
7, 16440, Note_on_c, 3, 49, 88
7, 16556, Note_off_c, 3, 49, 0
7, 16560, Note_on_c, 3, 50, 88
7, 16676, Note_off_c, 3, 50, 0
7, 16680, Note_on_c, 3, 52, 88
7, 16796, Note_off_c, 3, 52, 0
7, 16800, Note_on_c, 3, 54, 88
7, 16916, Note_off_c, 3, 54, 0
7, 16920, Note_on_c, 3, 56, 88
7, 17036, Note_off_c, 3, 56, 0
7, 17040, Note_on_c, 3, 57, 88
7, 17156, Note_off_c, 3, 57, 0
7, 17160, Note_on_c, 3, 59, 88
7, 17276, Note_off_c, 3, 59, 0
7, 17280, Note_on_c, 3, 61, 88
7, 17396, Note_off_c, 3, 61, 0
7, 17400, Note_on_c, 3, 59, 88
7, 17516, Note_off_c, 3, 59, 0
7, 17520, Note_on_c, 3, 58, 88
7, 17636, Note_off_c, 3, 58, 0
7, 17640, Note_on_c, 3, 54, 88
7, 17756, Note_off_c, 3, 54, 0
7, 17760, Note_on_c, 3, 59, 88
7, 17876, Note_off_c, 3, 59, 0
7, 17880, Note_on_c, 3, 57, 88
7, 17996, Note_off_c, 3, 57, 0
7, 18000, Note_on_c, 3, 55, 88
7, 18116, Note_off_c, 3, 55, 0
7, 18120, Note_on_c, 3, 54, 88
7, 18236, Note_off_c, 3, 54, 0
7, 18240, Note_on_c, 3, 52, 88
7, 18356, Note_off_c, 3, 52, 0
7, 18360, Note_on_c, 3, 49, 88
7, 18476, Note_off_c, 3, 49, 0
7, 18480, Note_on_c, 3, 50, 88
7, 18596, Note_off_c, 3, 50, 0
7, 18600, Note_on_c, 3, 52, 88
7, 18716, Note_off_c, 3, 52, 0
7, 18720, Note_on_c, 3, 54, 88
7, 18836, Note_off_c, 3, 54, 0
7, 18840, Note_on_c, 3, 42, 88
7, 18956, Note_off_c, 3, 42, 0
7, 18960, Note_on_c, 3, 44, 88
7, 19076, Note_off_c, 3, 44, 0
7, 19080, Note_on_c, 3, 46, 88
7, 19196, Note_off_c, 3, 46, 0
7, 19200, Note_on_c, 3, 47, 88
7, 19316, Note_off_c, 3, 47, 0
7, 19320, Note_on_c, 3, 49, 88
7, 19436, Note_off_c, 3, 49, 0
7, 19440, Note_on_c, 3, 50, 88
7, 19556, Note_off_c, 3, 50, 0
7, 19560, Note_on_c, 3, 52, 88
7, 19676, Note_off_c, 3, 52, 0
7, 19680, Note_on_c, 3, 54, 88
7, 19796, Note_off_c, 3, 54, 0
7, 19800, Note_on_c, 3, 56, 88
7, 19916, Note_off_c, 3, 56, 0
7, 19920, Note_on_c, 3, 57, 88
7, 20036, Note_off_c, 3, 57, 0
7, 20040, Note_on_c, 3, 54, 88
7, 20156, Note_off_c, 3, 54, 0
7, 20160, Note_on_c, 3, 59, 88
7, 20276, Note_off_c, 3, 59, 0
7, 20280, Note_on_c, 3, 47, 88
7, 20396, Note_off_c, 3, 47, 0
7, 20400, Note_on_c, 3, 49, 88
7, 20516, Note_off_c, 3, 49, 0
7, 20520, Note_on_c, 3, 45, 88
7, 20636, Note_off_c, 3, 45, 0
7, 20640, Note_on_c, 3, 50, 88
7, 20756, Note_off_c, 3, 50, 0
7, 20760, Note_on_c, 3, 49, 88
7, 20876, Note_off_c, 3, 49, 0
7, 20880, Note_on_c, 3, 47, 88
7, 20996, Note_off_c, 3, 47, 0
7, 21000, Note_on_c, 3, 45, 88
7, 21116, Note_off_c, 3, 45, 0
7, 21120, Note_on_c, 3, 43, 88
7, 21236, Note_off_c, 3, 43, 0
7, 21240, Note_on_c, 3, 54, 88
7, 21356, Note_off_c, 3, 54, 0
7, 21360, Note_on_c, 3, 52, 88
7, 21476, Note_off_c, 3, 52, 0
7, 21480, Note_on_c, 3, 50, 88
7, 21596, Note_off_c, 3, 50, 0
7, 21600, Note_on_c, 3, 49, 88
7, 21716, Note_off_c, 3, 49, 0
7, 21720, Note_on_c, 3, 57, 88
7, 21836, Note_off_c, 3, 57, 0
7, 21840, Note_on_c, 3, 59, 88
7, 21956, Note_off_c, 3, 59, 0
7, 21960, Note_on_c, 3, 54, 88
7, 22076, Note_off_c, 3, 54, 0
7, 22080, Note_on_c, 3, 55, 88
7, 22196, Note_off_c, 3, 55, 0
7, 22200, Note_on_c, 3, 52, 88
7, 22316, Note_off_c, 3, 52, 0
7, 22320, Note_on_c, 3, 57, 88
7, 22436, Note_off_c, 3, 57, 0
7, 22440, Note_on_c, 3, 45, 88
7, 22556, Note_off_c, 3, 45, 0
7, 22560, Note_on_c, 3, 50, 88
7, 22676, Note_off_c, 3, 50, 0
7, 22680, Note_on_c, 3, 52, 88
7, 22796, Note_off_c, 3, 52, 0
7, 22800, Note_on_c, 3, 54, 88
7, 22916, Note_off_c, 3, 54, 0
7, 22920, Note_on_c, 3, 55, 88
7, 23036, Note_off_c, 3, 55, 0
7, 23040, Note_on_c, 3, 45, 88
7, 23156, Note_off_c, 3, 45, 0
7, 23160, Note_on_c, 3, 47, 88
7, 23276, Note_off_c, 3, 47, 0
7, 23280, Note_on_c, 3, 49, 88
7, 23396, Note_off_c, 3, 49, 0
7, 23400, Note_on_c, 3, 50, 88
7, 23516, Note_off_c, 3, 50, 0
7, 23520, Note_on_c, 3, 52, 88
7, 23636, Note_off_c, 3, 52, 0
7, 23640, Note_on_c, 3, 54, 88
7, 23756, Note_off_c, 3, 54, 0
7, 23760, Note_on_c, 3, 55, 88
7, 23876, Note_off_c, 3, 55, 0
7, 23880, Note_on_c, 3, 57, 88
7, 23996, Note_off_c, 3, 57, 0
7, 24000, Note_on_c, 3, 47, 88
7, 24116, Note_off_c, 3, 47, 0
7, 24120, Note_on_c, 3, 49, 88
7, 24236, Note_off_c, 3, 49, 0
7, 24240, Note_on_c, 3, 50, 88
7, 24356, Note_off_c, 3, 50, 0
7, 24360, Note_on_c, 3, 52, 88
7, 24476, Note_off_c, 3, 52, 0
7, 24480, Note_on_c, 3, 54, 88
7, 24596, Note_off_c, 3, 54, 0
7, 24600, Note_on_c, 3, 56, 88
7, 24716, Note_off_c, 3, 56, 0
7, 24720, Note_on_c, 3, 57, 88
7, 24836, Note_off_c, 3, 57, 0
7, 24840, Note_on_c, 3, 59, 88
7, 24956, Note_off_c, 3, 59, 0
7, 24960, Note_on_c, 3, 61, 88
7, 25076, Note_off_c, 3, 61, 0
7, 25080, Note_on_c, 3, 59, 88
7, 25196, Note_off_c, 3, 59, 0
7, 25200, Note_on_c, 3, 61, 88
7, 25316, Note_off_c, 3, 61, 0
7, 25320, Note_on_c, 3, 57, 88
7, 25436, Note_off_c, 3, 57, 0
7, 25440, Note_on_c, 3, 62, 88
7, 25556, Note_off_c, 3, 62, 0
7, 25560, Note_on_c, 3, 61, 88
7, 25676, Note_off_c, 3, 61, 0
7, 25680, Note_on_c, 3, 62, 88
7, 25796, Note_off_c, 3, 62, 0
7, 25800, Note_on_c, 3, 59, 88
7, 25916, Note_off_c, 3, 59, 0
7, 25920, Note_on_c, 3, 53, 88
7, 26036, Note_off_c, 3, 53, 0
7, 26040, Note_on_c, 3, 61, 88
7, 26156, Note_off_c, 3, 61, 0
7, 26160, Note_on_c, 3, 62, 88
7, 26276, Note_off_c, 3, 62, 0
7, 26280, Note_on_c, 3, 57, 88
7, 26396, Note_off_c, 3, 57, 0
7, 26400, Note_on_c, 3, 59, 88
7, 26516, Note_off_c, 3, 59, 0
7, 26520, Note_on_c, 3, 56, 88
7, 26636, Note_off_c, 3, 56, 0
7, 26640, Note_on_c, 3, 61, 88
7, 26756, Note_off_c, 3, 61, 0
7, 26760, Note_on_c, 3, 49, 88
7, 26876, Note_off_c, 3, 49, 0
7, 26880, Note_on_c, 3, 54, 88
7, 26996, Note_off_c, 3, 54, 0
7, 27000, Note_on_c, 3, 52, 88
7, 27116, Note_off_c, 3, 52, 0
7, 27120, Note_on_c, 3, 54, 88
7, 27236, Note_off_c, 3, 54, 0
7, 27240, Note_on_c, 3, 56, 88
7, 27356, Note_off_c, 3, 56, 0
7, 27360, Note_on_c, 3, 57, 88
7, 27476, Note_off_c, 3, 57, 0
7, 27480, Note_on_c, 3, 59, 88
7, 27596, Note_off_c, 3, 59, 0
7, 27600, Note_on_c, 3, 61, 88
7, 27716, Note_off_c, 3, 61, 0
7, 27720, Note_on_c, 3, 62, 88
7, 27836, Note_off_c, 3, 62, 0
7, 27840, Note_on_c, 3, 52, 88
7, 27956, Note_off_c, 3, 52, 0
7, 27960, Note_on_c, 3, 54, 88
7, 28076, Note_off_c, 3, 54, 0
7, 28080, Note_on_c, 3, 55, 88
7, 28196, Note_off_c, 3, 55, 0
7, 28200, Note_on_c, 3, 57, 88
7, 28316, Note_off_c, 3, 57, 0
7, 28320, Note_on_c, 3, 59, 88
7, 28436, Note_off_c, 3, 59, 0
7, 28440, Note_on_c, 3, 61, 88
7, 28556, Note_off_c, 3, 61, 0
7, 28560, Note_on_c, 3, 62, 88
7, 28676, Note_off_c, 3, 62, 0
7, 28680, Note_on_c, 3, 64, 88
7, 28796, Note_off_c, 3, 64, 0
7, 28800, Note_on_c, 3, 54, 88
7, 28916, Note_off_c, 3, 54, 0
7, 28920, Note_on_c, 3, 52, 88
7, 29036, Note_off_c, 3, 52, 0
7, 29040, Note_on_c, 3, 54, 88
7, 29156, Note_off_c, 3, 54, 0
7, 29160, Note_on_c, 3, 50, 88
7, 29276, Note_off_c, 3, 50, 0
7, 29280, Note_on_c, 3, 55, 88
7, 29396, Note_off_c, 3, 55, 0
7, 29400, Note_on_c, 3, 54, 88
7, 29516, Note_off_c, 3, 54, 0
7, 29520, Note_on_c, 3, 55, 88
7, 29636, Note_off_c, 3, 55, 0
7, 29640, Note_on_c, 3, 52, 88
7, 29756, Note_off_c, 3, 52, 0
7, 29760, Note_on_c, 3, 58, 88
7, 29876, Note_off_c, 3, 58, 0
7, 29880, Note_on_c, 3, 54, 88
7, 29996, Note_off_c, 3, 54, 0
7, 30000, Note_on_c, 3, 59, 88
7, 30116, Note_off_c, 3, 59, 0
7, 30120, Note_on_c, 3, 52, 88
7, 30236, Note_off_c, 3, 52, 0
7, 30240, Note_on_c, 3, 54, 88
7, 30356, Note_off_c, 3, 54, 0
7, 30360, Note_on_c, 3, 52, 88
7, 30476, Note_off_c, 3, 52, 0
7, 30480, Note_on_c, 3, 54, 88
7, 30596, Note_off_c, 3, 54, 0
7, 30600, Note_on_c, 3, 42, 88
7, 30716, Note_off_c, 3, 42, 0
7, 30720, Note_on_c, 3, 47, 88
7, 30954, Note_off_c, 3, 47, 0
7, 30960, Note_on_c, 3, 45, 88
7, 31189, Note_off_c, 3, 45, 0
7, 31200, Note_on_c, 3, 45, 88
7, 31229, Note_off_c, 3, 45, 0
7, 31230, Note_on_c, 3, 43, 88
7, 31259, Note_off_c, 3, 43, 0
7, 31260, Note_on_c, 3, 45, 88
7, 31289, Note_off_c, 3, 45, 0
7, 31290, Note_on_c, 3, 43, 88
7, 31319, Note_off_c, 3, 43, 0
7, 31320, Note_on_c, 3, 45, 88
7, 31349, Note_off_c, 3, 45, 0
7, 31350, Note_on_c, 3, 43, 88
7, 31379, Note_off_c, 3, 43, 0
7, 31380, Note_on_c, 3, 45, 88
7, 31409, Note_off_c, 3, 45, 0
7, 31410, Note_on_c, 3, 43, 88
7, 31439, Note_off_c, 3, 43, 0
7, 31440, Note_on_c, 3, 45, 88
7, 31469, Note_off_c, 3, 45, 0
7, 31470, Note_on_c, 3, 43, 88
7, 31499, Note_off_c, 3, 43, 0
7, 31500, Note_on_c, 3, 45, 88
7, 31529, Note_off_c, 3, 45, 0
7, 31530, Note_on_c, 3, 43, 88
7, 31559, Note_off_c, 3, 43, 0
7, 31560, Note_on_c, 3, 45, 88
7, 31589, Note_off_c, 3, 45, 0
7, 31590, Note_on_c, 3, 43, 88
7, 31619, Note_off_c, 3, 43, 0
7, 31620, Note_on_c, 3, 42, 88
7, 31649, Note_off_c, 3, 42, 0
7, 31650, Note_on_c, 3, 43, 88
7, 31679, Note_off_c, 3, 43, 0
7, 31680, Note_on_c, 3, 42, 88
7, 32625, Note_off_c, 3, 42, 0
7, 32640, Note_on_c, 3, 54, 88
7, 32756, Note_off_c, 3, 54, 0
7, 32760, Note_on_c, 3, 55, 88
7, 32876, Note_off_c, 3, 55, 0
7, 32880, Note_on_c, 3, 57, 88
7, 32996, Note_off_c, 3, 57, 0
7, 33000, Note_on_c, 3, 54, 88
7, 33116, Note_off_c, 3, 54, 0
7, 33120, Note_on_c, 3, 59, 88
7, 33236, Note_off_c, 3, 59, 0
7, 33240, Note_on_c, 3, 57, 88
7, 33356, Note_off_c, 3, 57, 0
7, 33360, Note_on_c, 3, 55, 88
7, 33476, Note_off_c, 3, 55, 0
7, 33480, Note_on_c, 3, 54, 88
7, 33596, Note_off_c, 3, 54, 0
7, 33600, Note_on_c, 3, 52, 88
7, 33716, Note_off_c, 3, 52, 0
7, 33720, Note_on_c, 3, 43, 88
7, 33836, Note_off_c, 3, 43, 0
7, 33840, Note_on_c, 3, 45, 88
7, 33956, Note_off_c, 3, 45, 0
7, 33960, Note_on_c, 3, 47, 88
7, 34076, Note_off_c, 3, 47, 0
7, 34080, Note_on_c, 3, 40, 88
7, 34196, Note_off_c, 3, 40, 0
7, 34200, Note_on_c, 3, 42, 88
7, 34316, Note_off_c, 3, 42, 0
7, 34320, Note_on_c, 3, 43, 88
7, 34436, Note_off_c, 3, 43, 0
7, 34440, Note_on_c, 3, 40, 88
7, 34556, Note_off_c, 3, 40, 0
7, 34560, Note_on_c, 3, 45, 88
7, 34676, Note_off_c, 3, 45, 0
7, 34680, Note_on_c, 3, 43, 88
7, 34796, Note_off_c, 3, 43, 0
7, 34800, Note_on_c, 3, 42, 88
7, 34916, Note_off_c, 3, 42, 0
7, 34920, Note_on_c, 3, 40, 88
7, 35036, Note_off_c, 3, 40, 0
7, 35040, Note_on_c, 3, 38, 88
7, 35156, Note_off_c, 3, 38, 0
7, 35160, Note_on_c, 3, 42, 88
7, 35276, Note_off_c, 3, 42, 0
7, 35280, Note_on_c, 3, 43, 88
7, 35396, Note_off_c, 3, 43, 0
7, 35400, Note_on_c, 3, 45, 88
7, 35516, Note_off_c, 3, 45, 0
7, 35520, Note_on_c, 3, 38, 88
7, 35636, Note_off_c, 3, 38, 0
7, 35640, Note_on_c, 3, 52, 88
7, 35756, Note_off_c, 3, 52, 0
7, 35760, Note_on_c, 3, 50, 88
7, 35876, Note_off_c, 3, 50, 0
7, 35880, Note_on_c, 3, 49, 88
7, 35996, Note_off_c, 3, 49, 0
7, 36000, Note_on_c, 3, 47, 88
7, 36116, Note_off_c, 3, 47, 0
7, 36120, Note_on_c, 3, 45, 88
7, 36236, Note_off_c, 3, 45, 0
7, 36240, Note_on_c, 3, 44, 88
7, 36356, Note_off_c, 3, 44, 0
7, 36360, Note_on_c, 3, 42, 88
7, 36476, Note_off_c, 3, 42, 0
7, 36480, Note_on_c, 3, 41, 88
7, 36596, Note_off_c, 3, 41, 0
7, 36600, Note_on_c, 3, 54, 88
7, 36716, Note_off_c, 3, 54, 0
7, 36720, Note_on_c, 3, 56, 88
7, 36836, Note_off_c, 3, 56, 0
7, 36840, Note_on_c, 3, 57, 88
7, 36956, Note_off_c, 3, 57, 0
7, 36960, Note_on_c, 3, 59, 88
7, 37076, Note_off_c, 3, 59, 0
7, 37080, Note_on_c, 3, 61, 88
7, 37196, Note_off_c, 3, 61, 0
7, 37200, Note_on_c, 3, 62, 88
7, 37316, Note_off_c, 3, 62, 0
7, 37320, Note_on_c, 3, 59, 88
7, 37436, Note_off_c, 3, 59, 0
7, 37440, Note_on_c, 3, 61, 88
7, 37556, Note_off_c, 3, 61, 0
7, 37560, Note_on_c, 3, 42, 88
7, 37676, Note_off_c, 3, 42, 0
7, 37680, Note_on_c, 3, 44, 88
7, 37796, Note_off_c, 3, 44, 0
7, 37800, Note_on_c, 3, 45, 88
7, 37916, Note_off_c, 3, 45, 0
7, 37920, Note_on_c, 3, 47, 88
7, 38036, Note_off_c, 3, 47, 0
7, 38040, Note_on_c, 3, 49, 88
7, 38156, Note_off_c, 3, 49, 0
7, 38160, Note_on_c, 3, 50, 88
7, 38276, Note_off_c, 3, 50, 0
7, 38280, Note_on_c, 3, 47, 88
7, 38396, Note_off_c, 3, 47, 0
7, 38400, Note_on_c, 3, 49, 88
7, 38516, Note_off_c, 3, 49, 0
7, 38520, Note_on_c, 3, 51, 88
7, 38636, Note_off_c, 3, 51, 0
7, 38640, Note_on_c, 3, 53, 88
7, 38756, Note_off_c, 3, 53, 0
7, 38760, Note_on_c, 3, 49, 88
7, 38876, Note_off_c, 3, 49, 0
7, 38880, Note_on_c, 3, 54, 88
7, 38996, Note_off_c, 3, 54, 0
7, 39000, Note_on_c, 3, 56, 88
7, 39116, Note_off_c, 3, 56, 0
7, 39120, Note_on_c, 3, 57, 88
7, 39236, Note_off_c, 3, 57, 0
7, 39240, Note_on_c, 3, 54, 88
7, 39356, Note_off_c, 3, 54, 0
7, 39360, Note_on_c, 3, 59, 88
7, 39476, Note_off_c, 3, 59, 0
7, 39480, Note_on_c, 3, 57, 88
7, 39596, Note_off_c, 3, 57, 0
7, 39600, Note_on_c, 3, 56, 88
7, 39716, Note_off_c, 3, 56, 0
7, 39720, Note_on_c, 3, 54, 88
7, 39836, Note_off_c, 3, 54, 0
7, 39840, Note_on_c, 3, 53, 88
7, 39956, Note_off_c, 3, 53, 0
7, 39960, Note_on_c, 3, 49, 88
7, 40076, Note_off_c, 3, 49, 0
7, 40080, Note_on_c, 3, 54, 88
7, 40196, Note_off_c, 3, 54, 0
7, 40200, Note_on_c, 3, 52, 88
7, 40316, Note_off_c, 3, 52, 0
7, 40320, Note_on_c, 3, 50, 88
7, 40436, Note_off_c, 3, 50, 0
7, 40440, Note_on_c, 3, 49, 88
7, 40556, Note_off_c, 3, 49, 0
7, 40560, Note_on_c, 3, 50, 88
7, 40676, Note_off_c, 3, 50, 0
7, 40680, Note_on_c, 3, 47, 88
7, 40796, Note_off_c, 3, 47, 0
7, 40800, Note_on_c, 3, 49, 88
7, 40916, Note_off_c, 3, 49, 0
7, 40920, Note_on_c, 3, 47, 88
7, 41036, Note_off_c, 3, 47, 0
7, 41040, Note_on_c, 3, 45, 88
7, 41156, Note_off_c, 3, 45, 0
7, 41160, Note_on_c, 3, 47, 88
7, 41276, Note_off_c, 3, 47, 0
7, 41280, Note_on_c, 3, 49, 88
7, 41396, Note_off_c, 3, 49, 0
7, 41400, Note_on_c, 3, 47, 88
7, 41516, Note_off_c, 3, 47, 0
7, 41520, Note_on_c, 3, 49, 88
7, 41636, Note_off_c, 3, 49, 0
7, 41640, Note_on_c, 3, 37, 88
7, 41756, Note_off_c, 3, 37, 0
7, 41760, Note_on_c, 3, 42, 88
7, 41876, Note_off_c, 3, 42, 0
7, 41880, Note_on_c, 3, 49, 88
7, 41996, Note_off_c, 3, 49, 0
7, 42000, Note_on_c, 3, 51, 88
7, 42116, Note_off_c, 3, 51, 0
7, 42120, Note_on_c, 3, 52, 88
7, 42236, Note_off_c, 3, 52, 0
7, 42240, Note_on_c, 3, 54, 88
7, 42356, Note_off_c, 3, 54, 0
7, 42360, Note_on_c, 3, 57, 88
7, 42476, Note_off_c, 3, 57, 0
7, 42480, Note_on_c, 3, 55, 88
7, 42596, Note_off_c, 3, 55, 0
7, 42600, Note_on_c, 3, 54, 88
7, 42716, Note_off_c, 3, 54, 0
7, 42720, Note_on_c, 3, 52, 88
7, 42836, Note_off_c, 3, 52, 0
7, 42840, Note_on_c, 3, 54, 88
7, 42956, Note_off_c, 3, 54, 0
7, 42960, Note_on_c, 3, 55, 88
7, 43076, Note_off_c, 3, 55, 0
7, 43080, Note_on_c, 3, 57, 88
7, 43196, Note_off_c, 3, 57, 0
7, 43200, Note_on_c, 3, 59, 88
7, 43316, Note_off_c, 3, 59, 0
7, 43320, Note_on_c, 3, 57, 88
7, 43436, Note_off_c, 3, 57, 0
7, 43440, Note_on_c, 3, 59, 88
7, 43556, Note_off_c, 3, 59, 0
7, 43560, Note_on_c, 3, 47, 88
7, 43676, Note_off_c, 3, 47, 0
7, 43680, Note_on_c, 3, 52, 88
7, 43796, Note_off_c, 3, 52, 0
7, 43800, Note_on_c, 3, 59, 88
7, 43916, Note_off_c, 3, 59, 0
7, 43920, Note_on_c, 3, 61, 88
7, 44036, Note_off_c, 3, 61, 0
7, 44040, Note_on_c, 3, 62, 88
7, 44156, Note_off_c, 3, 62, 0
7, 44160, Note_on_c, 3, 64, 88
7, 44276, Note_off_c, 3, 64, 0
7, 44280, Note_on_c, 3, 55, 88
7, 44396, Note_off_c, 3, 55, 0
7, 44400, Note_on_c, 3, 54, 88
7, 44516, Note_off_c, 3, 54, 0
7, 44520, Note_on_c, 3, 52, 88
7, 44636, Note_off_c, 3, 52, 0
7, 44640, Note_on_c, 3, 50, 88
7, 44756, Note_off_c, 3, 50, 0
7, 44760, Note_on_c, 3, 52, 88
7, 44876, Note_off_c, 3, 52, 0
7, 44880, Note_on_c, 3, 54, 88
7, 44996, Note_off_c, 3, 54, 0
7, 45000, Note_on_c, 3, 55, 88
7, 45116, Note_off_c, 3, 55, 0
7, 45120, Note_on_c, 3, 57, 88
7, 45236, Note_off_c, 3, 57, 0
7, 45240, Note_on_c, 3, 55, 88
7, 45356, Note_off_c, 3, 55, 0
7, 45360, Note_on_c, 3, 57, 88
7, 45476, Note_off_c, 3, 57, 0
7, 45480, Note_on_c, 3, 45, 88
7, 45596, Note_off_c, 3, 45, 0
7, 45600, Note_on_c, 3, 47, 88
7, 45716, Note_off_c, 3, 47, 0
7, 45720, Note_on_c, 3, 50, 88
7, 45836, Note_off_c, 3, 50, 0
7, 45840, Note_on_c, 3, 54, 88
7, 45956, Note_off_c, 3, 54, 0
7, 45960, Note_on_c, 3, 42, 88
7, 46076, Note_off_c, 3, 42, 0
7, 46080, Note_on_c, 3, 43, 88
7, 46196, Note_off_c, 3, 43, 0
7, 46200, Note_on_c, 3, 47, 88
7, 46316, Note_off_c, 3, 47, 0
7, 46320, Note_on_c, 3, 50, 88
7, 46669, Note_off_c, 3, 50, 0
7, 46680, Note_on_c, 3, 50, 88
7, 46796, Note_off_c, 3, 50, 0
7, 46800, Note_on_c, 3, 49, 88
7, 46916, Note_off_c, 3, 49, 0
7, 46920, Note_on_c, 3, 47, 88
7, 47036, Note_off_c, 3, 47, 0
7, 47040, Note_on_c, 3, 46, 88
7, 47156, Note_off_c, 3, 46, 0
7, 47160, Note_on_c, 3, 42, 88
7, 47276, Note_off_c, 3, 42, 0
7, 47280, Note_on_c, 3, 44, 88
7, 47396, Note_off_c, 3, 44, 0
7, 47400, Note_on_c, 3, 46, 88
7, 47516, Note_off_c, 3, 46, 0
7, 47520, Note_on_c, 3, 47, 88
7, 47636, Note_off_c, 3, 47, 0
7, 47640, Note_on_c, 3, 54, 88
7, 47756, Note_off_c, 3, 54, 0
7, 47760, Note_on_c, 3, 52, 88
7, 47876, Note_off_c, 3, 52, 0
7, 47880, Note_on_c, 3, 50, 88
7, 47996, Note_off_c, 3, 50, 0
7, 48000, Note_on_c, 3, 49, 88
7, 48116, Note_off_c, 3, 49, 0
7, 48120, Note_on_c, 3, 45, 88
7, 48236, Note_off_c, 3, 45, 0
7, 48240, Note_on_c, 3, 47, 88
7, 48356, Note_off_c, 3, 47, 0
7, 48360, Note_on_c, 3, 49, 88
7, 48476, Note_off_c, 3, 49, 0
7, 48480, Note_on_c, 3, 50, 88
7, 48596, Note_off_c, 3, 50, 0
7, 48600, Note_on_c, 3, 57, 88
7, 48716, Note_off_c, 3, 57, 0
7, 48720, Note_on_c, 3, 55, 88
7, 48836, Note_off_c, 3, 55, 0
7, 48840, Note_on_c, 3, 54, 88
7, 48956, Note_off_c, 3, 54, 0
7, 48960, Note_on_c, 3, 52, 88
7, 49076, Note_off_c, 3, 52, 0
7, 49080, Note_on_c, 3, 49, 88
7, 49196, Note_off_c, 3, 49, 0
7, 49200, Note_on_c, 3, 50, 88
7, 49316, Note_off_c, 3, 50, 0
7, 49320, Note_on_c, 3, 52, 88
7, 49436, Note_off_c, 3, 52, 0
7, 49440, Note_on_c, 3, 46, 88
7, 49556, Note_off_c, 3, 46, 0
7, 49560, Note_on_c, 3, 54, 88
7, 49676, Note_off_c, 3, 54, 0
7, 49680, Note_on_c, 3, 56, 88
7, 49796, Note_off_c, 3, 56, 0
7, 49800, Note_on_c, 3, 58, 88
7, 49916, Note_off_c, 3, 58, 0
7, 49920, Note_on_c, 3, 59, 88
7, 50036, Note_off_c, 3, 59, 0
7, 50040, Note_on_c, 3, 47, 88
7, 50156, Note_off_c, 3, 47, 0
7, 50160, Note_on_c, 3, 49, 88
7, 50276, Note_off_c, 3, 49, 0
7, 50280, Note_on_c, 3, 50, 88
7, 50396, Note_off_c, 3, 50, 0
7, 50400, Note_on_c, 3, 52, 88
7, 50516, Note_off_c, 3, 52, 0
7, 50520, Note_on_c, 3, 54, 88
7, 50636, Note_off_c, 3, 54, 0
7, 50640, Note_on_c, 3, 52, 88
7, 50756, Note_off_c, 3, 52, 0
7, 50760, Note_on_c, 3, 50, 88
7, 50876, Note_off_c, 3, 50, 0
7, 50880, Note_on_c, 3, 49, 88
7, 50996, Note_off_c, 3, 49, 0
7, 51000, Note_on_c, 3, 61, 88
7, 51116, Note_off_c, 3, 61, 0
7, 51120, Note_on_c, 3, 62, 88
7, 51236, Note_off_c, 3, 62, 0
7, 51240, Note_on_c, 3, 64, 88
7, 51356, Note_off_c, 3, 64, 0
7, 51360, Note_on_c, 3, 66, 88
7, 51476, Note_off_c, 3, 66, 0
7, 51480, Note_on_c, 3, 67, 88
7, 51596, Note_off_c, 3, 67, 0
7, 51600, Note_on_c, 3, 66, 88
7, 51716, Note_off_c, 3, 66, 0
7, 51720, Note_on_c, 3, 64, 88
7, 51836, Note_off_c, 3, 64, 0
7, 51840, Note_on_c, 3, 62, 88
7, 51956, Note_off_c, 3, 62, 0
7, 51960, Note_on_c, 3, 50, 88
7, 52076, Note_off_c, 3, 50, 0
7, 52080, Note_on_c, 3, 52, 88
7, 52196, Note_off_c, 3, 52, 0
7, 52200, Note_on_c, 3, 54, 88
7, 52316, Note_off_c, 3, 54, 0
7, 52320, Note_on_c, 3, 55, 88
7, 52436, Note_off_c, 3, 55, 0
7, 52440, Note_on_c, 3, 54, 88
7, 52556, Note_off_c, 3, 54, 0
7, 52560, Note_on_c, 3, 52, 88
7, 52676, Note_off_c, 3, 52, 0
7, 52680, Note_on_c, 3, 51, 88
7, 52796, Note_off_c, 3, 51, 0
7, 52800, Note_on_c, 3, 52, 88
7, 52916, Note_off_c, 3, 52, 0
7, 52920, Note_on_c, 3, 50, 88
7, 53036, Note_off_c, 3, 50, 0
7, 53040, Note_on_c, 3, 49, 88
7, 53156, Note_off_c, 3, 49, 0
7, 53160, Note_on_c, 3, 47, 88
7, 53276, Note_off_c, 3, 47, 0
7, 53280, Note_on_c, 3, 46, 88
7, 53396, Note_off_c, 3, 46, 0
7, 53400, Note_on_c, 3, 54, 88
7, 53516, Note_off_c, 3, 54, 0
7, 53520, Note_on_c, 3, 59, 88
7, 53636, Note_off_c, 3, 59, 0
7, 53640, Note_on_c, 3, 57, 88
7, 53756, Note_off_c, 3, 57, 0
7, 53760, Note_on_c, 3, 56, 88
7, 53876, Note_off_c, 3, 56, 0
7, 53880, Note_on_c, 3, 54, 88
7, 53996, Note_off_c, 3, 54, 0
7, 54000, Note_on_c, 3, 56, 88
7, 54116, Note_off_c, 3, 56, 0
7, 54120, Note_on_c, 3, 58, 88
7, 54236, Note_off_c, 3, 58, 0
7, 54240, Note_on_c, 3, 59, 88
7, 54356, Note_off_c, 3, 59, 0
7, 54360, Note_on_c, 3, 47, 88
7, 54476, Note_off_c, 3, 47, 0
7, 54480, Note_on_c, 3, 49, 88
7, 54596, Note_off_c, 3, 49, 0
7, 54600, Note_on_c, 3, 50, 88
7, 54716, Note_off_c, 3, 50, 0
7, 54720, Note_on_c, 3, 52, 88
7, 54836, Note_off_c, 3, 52, 0
7, 54840, Note_on_c, 3, 54, 88
7, 54956, Note_off_c, 3, 54, 0
7, 54960, Note_on_c, 3, 55, 88
7, 55076, Note_off_c, 3, 55, 0
7, 55080, Note_on_c, 3, 52, 88
7, 55196, Note_off_c, 3, 52, 0
7, 55200, Note_on_c, 3, 54, 88
7, 55316, Note_off_c, 3, 54, 0
7, 55320, Note_on_c, 3, 52, 88
7, 55436, Note_off_c, 3, 52, 0
7, 55440, Note_on_c, 3, 50, 88
7, 55556, Note_off_c, 3, 50, 0
7, 55560, Note_on_c, 3, 52, 88
7, 55676, Note_off_c, 3, 52, 0
7, 55680, Note_on_c, 3, 54, 88
7, 55796, Note_off_c, 3, 54, 0
7, 55800, Note_on_c, 3, 52, 88
7, 55916, Note_off_c, 3, 52, 0
7, 55920, Note_on_c, 3, 54, 88
7, 56036, Note_off_c, 3, 54, 0
7, 56040, Note_on_c, 3, 42, 88
7, 56156, Note_off_c, 3, 42, 0
7, 56160, Note_on_c, 3, 43, 88
7, 56394, Note_off_c, 3, 43, 0
7, 56400, Note_on_c, 3, 42, 88
7, 56634, Note_off_c, 3, 42, 0
7, 56640, Note_on_c, 3, 40, 88
7, 56874, Note_off_c, 3, 40, 0
7, 56880, Note_on_c, 3, 38, 88
7, 57114, Note_off_c, 3, 38, 0
7, 57120, Note_on_c, 3, 37, 88
7, 57236, Note_off_c, 3, 37, 0
7, 57240, Note_on_c, 3, 59, 88
7, 57356, Note_off_c, 3, 59, 0
7, 57360, Note_on_c, 3, 58, 88
7, 57476, Note_off_c, 3, 58, 0
7, 57480, Note_on_c, 3, 57, 88
7, 57596, Note_off_c, 3, 57, 0
7, 57600, Note_on_c, 3, 56, 88
7, 57716, Note_off_c, 3, 56, 0
7, 57720, Note_on_c, 3, 55, 88
7, 57836, Note_off_c, 3, 55, 0
7, 57840, Note_on_c, 3, 54, 88
7, 57956, Note_off_c, 3, 54, 0
7, 57960, Note_on_c, 3, 59, 88
7, 58076, Note_off_c, 3, 59, 0
7, 58080, Note_on_c, 3, 52, 88
7, 58196, Note_off_c, 3, 52, 0
7, 58200, Note_on_c, 3, 64, 88
7, 58316, Note_off_c, 3, 64, 0
7, 58320, Note_on_c, 3, 62, 88
7, 58436, Note_off_c, 3, 62, 0
7, 58440, Note_on_c, 3, 61, 88
7, 58556, Note_off_c, 3, 61, 0
7, 58560, Note_on_c, 3, 59, 88
7, 58676, Note_off_c, 3, 59, 0
7, 58680, Note_on_c, 3, 60, 88
7, 58796, Note_off_c, 3, 60, 0
7, 58800, Note_on_c, 3, 61, 88
7, 58916, Note_off_c, 3, 61, 0
7, 58920, Note_on_c, 3, 62, 88
7, 59036, Note_off_c, 3, 62, 0
7, 59040, Note_on_c, 3, 53, 88
7, 59156, Note_off_c, 3, 53, 0
7, 59160, Note_on_c, 3, 54, 88
7, 59276, Note_off_c, 3, 54, 0
7, 59280, Note_on_c, 3, 55, 88
7, 59396, Note_off_c, 3, 55, 0
7, 59400, Note_on_c, 3, 52, 88
7, 59516, Note_off_c, 3, 52, 0
7, 59520, Note_on_c, 3, 54, 88
7, 59636, Note_off_c, 3, 54, 0
7, 59640, Note_on_c, 3, 52, 88
7, 59756, Note_off_c, 3, 52, 0
7, 59760, Note_on_c, 3, 54, 88
7, 59876, Note_off_c, 3, 54, 0
7, 59880, Note_on_c, 3, 42, 88
7, 59996, Note_off_c, 3, 42, 0
7, 60000, Note_on_c, 3, 47, 88
7, 61425, Note_off_c, 3, 47, 0
7, 61440, Note_on_c, 3, 54, 88
7, 61556, Note_off_c, 3, 54, 0
7, 61560, Note_on_c, 3, 55, 88
7, 61676, Note_off_c, 3, 55, 0
7, 61680, Note_on_c, 3, 57, 88
7, 61796, Note_off_c, 3, 57, 0
7, 61800, Note_on_c, 3, 54, 88
7, 61916, Note_off_c, 3, 54, 0
7, 61920, Note_on_c, 3, 59, 88
7, 62036, Note_off_c, 3, 59, 0
7, 62040, Note_on_c, 3, 57, 88
7, 62156, Note_off_c, 3, 57, 0
7, 62160, Note_on_c, 3, 55, 88
7, 62276, Note_off_c, 3, 55, 0
7, 62280, Note_on_c, 3, 54, 88
7, 62396, Note_off_c, 3, 54, 0
7, 62400, Note_on_c, 3, 52, 88
7, 62516, Note_off_c, 3, 52, 0
7, 62520, Note_on_c, 3, 43, 88
7, 62636, Note_off_c, 3, 43, 0
7, 62640, Note_on_c, 3, 45, 88
7, 62756, Note_off_c, 3, 45, 0
7, 62760, Note_on_c, 3, 47, 88
7, 62876, Note_off_c, 3, 47, 0
7, 62880, Note_on_c, 3, 40, 88
7, 62996, Note_off_c, 3, 40, 0
7, 63000, Note_on_c, 3, 42, 88
7, 63116, Note_off_c, 3, 42, 0
7, 63120, Note_on_c, 3, 43, 88
7, 63236, Note_off_c, 3, 43, 0
7, 63240, Note_on_c, 3, 40, 88
7, 63356, Note_off_c, 3, 40, 0
7, 63360, Note_on_c, 3, 45, 88
7, 63476, Note_off_c, 3, 45, 0
7, 63480, Note_on_c, 3, 43, 88
7, 63596, Note_off_c, 3, 43, 0
7, 63600, Note_on_c, 3, 42, 88
7, 63716, Note_off_c, 3, 42, 0
7, 63720, Note_on_c, 3, 40, 88
7, 63836, Note_off_c, 3, 40, 0
7, 63840, Note_on_c, 3, 38, 88
7, 63956, Note_off_c, 3, 38, 0
7, 63960, Note_on_c, 3, 42, 88
7, 64076, Note_off_c, 3, 42, 0
7, 64080, Note_on_c, 3, 43, 88
7, 64196, Note_off_c, 3, 43, 0
7, 64200, Note_on_c, 3, 45, 88
7, 64316, Note_off_c, 3, 45, 0
7, 64320, Note_on_c, 3, 38, 88
7, 64436, Note_off_c, 3, 38, 0
7, 64440, Note_on_c, 3, 52, 88
7, 64556, Note_off_c, 3, 52, 0
7, 64560, Note_on_c, 3, 50, 88
7, 64676, Note_off_c, 3, 50, 0
7, 64680, Note_on_c, 3, 49, 88
7, 64796, Note_off_c, 3, 49, 0
7, 64800, Note_on_c, 3, 47, 88
7, 64916, Note_off_c, 3, 47, 0
7, 64920, Note_on_c, 3, 45, 88
7, 65036, Note_off_c, 3, 45, 0
7, 65040, Note_on_c, 3, 44, 88
7, 65156, Note_off_c, 3, 44, 0
7, 65160, Note_on_c, 3, 42, 88
7, 65276, Note_off_c, 3, 42, 0
7, 65280, Note_on_c, 3, 41, 88
7, 65396, Note_off_c, 3, 41, 0
7, 65400, Note_on_c, 3, 54, 88
7, 65516, Note_off_c, 3, 54, 0
7, 65520, Note_on_c, 3, 56, 88
7, 65636, Note_off_c, 3, 56, 0
7, 65640, Note_on_c, 3, 57, 88
7, 65756, Note_off_c, 3, 57, 0
7, 65760, Note_on_c, 3, 59, 88
7, 65876, Note_off_c, 3, 59, 0
7, 65880, Note_on_c, 3, 61, 88
7, 65996, Note_off_c, 3, 61, 0
7, 66000, Note_on_c, 3, 62, 88
7, 66116, Note_off_c, 3, 62, 0
7, 66120, Note_on_c, 3, 59, 88
7, 66236, Note_off_c, 3, 59, 0
7, 66240, Note_on_c, 3, 61, 88
7, 66356, Note_off_c, 3, 61, 0
7, 66360, Note_on_c, 3, 42, 88
7, 66476, Note_off_c, 3, 42, 0
7, 66480, Note_on_c, 3, 44, 88
7, 66596, Note_off_c, 3, 44, 0
7, 66600, Note_on_c, 3, 45, 88
7, 66716, Note_off_c, 3, 45, 0
7, 66720, Note_on_c, 3, 47, 88
7, 66836, Note_off_c, 3, 47, 0
7, 66840, Note_on_c, 3, 49, 88
7, 66956, Note_off_c, 3, 49, 0
7, 66960, Note_on_c, 3, 50, 88
7, 67076, Note_off_c, 3, 50, 0
7, 67080, Note_on_c, 3, 47, 88
7, 67196, Note_off_c, 3, 47, 0
7, 67200, Note_on_c, 3, 49, 88
7, 67316, Note_off_c, 3, 49, 0
7, 67320, Note_on_c, 3, 51, 88
7, 67436, Note_off_c, 3, 51, 0
7, 67440, Note_on_c, 3, 53, 88
7, 67556, Note_off_c, 3, 53, 0
7, 67560, Note_on_c, 3, 49, 88
7, 67676, Note_off_c, 3, 49, 0
7, 67680, Note_on_c, 3, 54, 88
7, 67796, Note_off_c, 3, 54, 0
7, 67800, Note_on_c, 3, 56, 88
7, 67916, Note_off_c, 3, 56, 0
7, 67920, Note_on_c, 3, 57, 88
7, 68036, Note_off_c, 3, 57, 0
7, 68040, Note_on_c, 3, 54, 88
7, 68156, Note_off_c, 3, 54, 0
7, 68160, Note_on_c, 3, 59, 88
7, 68276, Note_off_c, 3, 59, 0
7, 68280, Note_on_c, 3, 57, 88
7, 68396, Note_off_c, 3, 57, 0
7, 68400, Note_on_c, 3, 56, 88
7, 68516, Note_off_c, 3, 56, 0
7, 68520, Note_on_c, 3, 54, 88
7, 68636, Note_off_c, 3, 54, 0
7, 68640, Note_on_c, 3, 53, 88
7, 68756, Note_off_c, 3, 53, 0
7, 68760, Note_on_c, 3, 49, 88
7, 68876, Note_off_c, 3, 49, 0
7, 68880, Note_on_c, 3, 54, 88
7, 68996, Note_off_c, 3, 54, 0
7, 69000, Note_on_c, 3, 52, 88
7, 69116, Note_off_c, 3, 52, 0
7, 69120, Note_on_c, 3, 50, 88
7, 69236, Note_off_c, 3, 50, 0
7, 69240, Note_on_c, 3, 49, 88
7, 69356, Note_off_c, 3, 49, 0
7, 69360, Note_on_c, 3, 50, 88
7, 69476, Note_off_c, 3, 50, 0
7, 69480, Note_on_c, 3, 47, 88
7, 69596, Note_off_c, 3, 47, 0
7, 69600, Note_on_c, 3, 49, 88
7, 69716, Note_off_c, 3, 49, 0
7, 69720, Note_on_c, 3, 47, 88
7, 69836, Note_off_c, 3, 47, 0
7, 69840, Note_on_c, 3, 45, 88
7, 69956, Note_off_c, 3, 45, 0
7, 69960, Note_on_c, 3, 47, 88
7, 70076, Note_off_c, 3, 47, 0
7, 70080, Note_on_c, 3, 49, 88
7, 70196, Note_off_c, 3, 49, 0
7, 70200, Note_on_c, 3, 47, 88
7, 70316, Note_off_c, 3, 47, 0
7, 70320, Note_on_c, 3, 49, 88
7, 70436, Note_off_c, 3, 49, 0
7, 70440, Note_on_c, 3, 37, 88
7, 70556, Note_off_c, 3, 37, 0
7, 70560, Note_on_c, 3, 42, 88
7, 70676, Note_off_c, 3, 42, 0
7, 70680, Note_on_c, 3, 49, 88
7, 70796, Note_off_c, 3, 49, 0
7, 70800, Note_on_c, 3, 51, 88
7, 70916, Note_off_c, 3, 51, 0
7, 70920, Note_on_c, 3, 52, 88
7, 71036, Note_off_c, 3, 52, 0
7, 71040, Note_on_c, 3, 54, 88
7, 71156, Note_off_c, 3, 54, 0
7, 71160, Note_on_c, 3, 57, 88
7, 71276, Note_off_c, 3, 57, 0
7, 71280, Note_on_c, 3, 55, 88
7, 71396, Note_off_c, 3, 55, 0
7, 71400, Note_on_c, 3, 54, 88
7, 71516, Note_off_c, 3, 54, 0
7, 71520, Note_on_c, 3, 52, 88
7, 71636, Note_off_c, 3, 52, 0
7, 71640, Note_on_c, 3, 54, 88
7, 71756, Note_off_c, 3, 54, 0
7, 71760, Note_on_c, 3, 55, 88
7, 71876, Note_off_c, 3, 55, 0
7, 71880, Note_on_c, 3, 57, 88
7, 71996, Note_off_c, 3, 57, 0
7, 72000, Note_on_c, 3, 59, 88
7, 72116, Note_off_c, 3, 59, 0
7, 72120, Note_on_c, 3, 57, 88
7, 72236, Note_off_c, 3, 57, 0
7, 72240, Note_on_c, 3, 59, 88
7, 72356, Note_off_c, 3, 59, 0
7, 72360, Note_on_c, 3, 47, 88
7, 72476, Note_off_c, 3, 47, 0
7, 72480, Note_on_c, 3, 52, 88
7, 72596, Note_off_c, 3, 52, 0
7, 72600, Note_on_c, 3, 59, 88
7, 72716, Note_off_c, 3, 59, 0
7, 72720, Note_on_c, 3, 61, 88
7, 72836, Note_off_c, 3, 61, 0
7, 72840, Note_on_c, 3, 62, 88
7, 72956, Note_off_c, 3, 62, 0
7, 72960, Note_on_c, 3, 64, 88
7, 73076, Note_off_c, 3, 64, 0
7, 73080, Note_on_c, 3, 55, 88
7, 73196, Note_off_c, 3, 55, 0
7, 73200, Note_on_c, 3, 54, 88
7, 73316, Note_off_c, 3, 54, 0
7, 73320, Note_on_c, 3, 52, 88
7, 73436, Note_off_c, 3, 52, 0
7, 73440, Note_on_c, 3, 50, 88
7, 73556, Note_off_c, 3, 50, 0
7, 73560, Note_on_c, 3, 52, 88
7, 73676, Note_off_c, 3, 52, 0
7, 73680, Note_on_c, 3, 54, 88
7, 73796, Note_off_c, 3, 54, 0
7, 73800, Note_on_c, 3, 55, 88
7, 73916, Note_off_c, 3, 55, 0
7, 73920, Note_on_c, 3, 57, 88
7, 74036, Note_off_c, 3, 57, 0
7, 74040, Note_on_c, 3, 55, 88
7, 74156, Note_off_c, 3, 55, 0
7, 74160, Note_on_c, 3, 57, 88
7, 74276, Note_off_c, 3, 57, 0
7, 74280, Note_on_c, 3, 45, 88
7, 74396, Note_off_c, 3, 45, 0
7, 74400, Note_on_c, 3, 47, 88
7, 74516, Note_off_c, 3, 47, 0
7, 74520, Note_on_c, 3, 50, 88
7, 74636, Note_off_c, 3, 50, 0
7, 74640, Note_on_c, 3, 54, 88
7, 74756, Note_off_c, 3, 54, 0
7, 74760, Note_on_c, 3, 42, 88
7, 74876, Note_off_c, 3, 42, 0
7, 74880, Note_on_c, 3, 43, 88
7, 74996, Note_off_c, 3, 43, 0
7, 75000, Note_on_c, 3, 47, 88
7, 75116, Note_off_c, 3, 47, 0
7, 75120, Note_on_c, 3, 50, 88
7, 75469, Note_off_c, 3, 50, 0
7, 75480, Note_on_c, 3, 50, 88
7, 75596, Note_off_c, 3, 50, 0
7, 75600, Note_on_c, 3, 49, 88
7, 75716, Note_off_c, 3, 49, 0
7, 75720, Note_on_c, 3, 47, 88
7, 75836, Note_off_c, 3, 47, 0
7, 75840, Note_on_c, 3, 46, 88
7, 75956, Note_off_c, 3, 46, 0
7, 75960, Note_on_c, 3, 42, 88
7, 76076, Note_off_c, 3, 42, 0
7, 76080, Note_on_c, 3, 44, 88
7, 76196, Note_off_c, 3, 44, 0
7, 76200, Note_on_c, 3, 46, 88
7, 76316, Note_off_c, 3, 46, 0
7, 76320, Note_on_c, 3, 47, 88
7, 76436, Note_off_c, 3, 47, 0
7, 76440, Note_on_c, 3, 54, 88
7, 76556, Note_off_c, 3, 54, 0
7, 76560, Note_on_c, 3, 52, 88
7, 76676, Note_off_c, 3, 52, 0
7, 76680, Note_on_c, 3, 50, 88
7, 76796, Note_off_c, 3, 50, 0
7, 76800, Note_on_c, 3, 49, 88
7, 76916, Note_off_c, 3, 49, 0
7, 76920, Note_on_c, 3, 45, 88
7, 77036, Note_off_c, 3, 45, 0
7, 77040, Note_on_c, 3, 47, 88
7, 77156, Note_off_c, 3, 47, 0
7, 77160, Note_on_c, 3, 49, 88
7, 77276, Note_off_c, 3, 49, 0
7, 77280, Note_on_c, 3, 50, 88
7, 77396, Note_off_c, 3, 50, 0
7, 77400, Note_on_c, 3, 57, 88
7, 77516, Note_off_c, 3, 57, 0
7, 77520, Note_on_c, 3, 55, 88
7, 77636, Note_off_c, 3, 55, 0
7, 77640, Note_on_c, 3, 54, 88
7, 77756, Note_off_c, 3, 54, 0
7, 77760, Note_on_c, 3, 52, 88
7, 77876, Note_off_c, 3, 52, 0
7, 77880, Note_on_c, 3, 49, 88
7, 77996, Note_off_c, 3, 49, 0
7, 78000, Note_on_c, 3, 50, 88
7, 78116, Note_off_c, 3, 50, 0
7, 78120, Note_on_c, 3, 52, 88
7, 78236, Note_off_c, 3, 52, 0
7, 78240, Note_on_c, 3, 46, 88
7, 78356, Note_off_c, 3, 46, 0
7, 78360, Note_on_c, 3, 54, 88
7, 78476, Note_off_c, 3, 54, 0
7, 78480, Note_on_c, 3, 56, 88
7, 78596, Note_off_c, 3, 56, 0
7, 78600, Note_on_c, 3, 58, 88
7, 78716, Note_off_c, 3, 58, 0
7, 78720, Note_on_c, 3, 59, 88
7, 78836, Note_off_c, 3, 59, 0
7, 78840, Note_on_c, 3, 47, 88
7, 78956, Note_off_c, 3, 47, 0
7, 78960, Note_on_c, 3, 49, 88
7, 79076, Note_off_c, 3, 49, 0
7, 79080, Note_on_c, 3, 50, 88
7, 79196, Note_off_c, 3, 50, 0
7, 79200, Note_on_c, 3, 52, 88
7, 79316, Note_off_c, 3, 52, 0
7, 79320, Note_on_c, 3, 54, 88
7, 79436, Note_off_c, 3, 54, 0
7, 79440, Note_on_c, 3, 52, 88
7, 79556, Note_off_c, 3, 52, 0
7, 79560, Note_on_c, 3, 50, 88
7, 79676, Note_off_c, 3, 50, 0
7, 79680, Note_on_c, 3, 49, 88
7, 79796, Note_off_c, 3, 49, 0
7, 79800, Note_on_c, 3, 61, 88
7, 79916, Note_off_c, 3, 61, 0
7, 79920, Note_on_c, 3, 62, 88
7, 80036, Note_off_c, 3, 62, 0
7, 80040, Note_on_c, 3, 64, 88
7, 80156, Note_off_c, 3, 64, 0
7, 80160, Note_on_c, 3, 66, 88
7, 80276, Note_off_c, 3, 66, 0
7, 80280, Note_on_c, 3, 67, 88
7, 80396, Note_off_c, 3, 67, 0
7, 80400, Note_on_c, 3, 66, 88
7, 80516, Note_off_c, 3, 66, 0
7, 80520, Note_on_c, 3, 64, 88
7, 80636, Note_off_c, 3, 64, 0
7, 80640, Note_on_c, 3, 62, 88
7, 80756, Note_off_c, 3, 62, 0
7, 80760, Note_on_c, 3, 50, 88
7, 80876, Note_off_c, 3, 50, 0
7, 80880, Note_on_c, 3, 52, 88
7, 80996, Note_off_c, 3, 52, 0
7, 81000, Note_on_c, 3, 54, 88
7, 81116, Note_off_c, 3, 54, 0
7, 81120, Note_on_c, 3, 55, 88
7, 81236, Note_off_c, 3, 55, 0
7, 81240, Note_on_c, 3, 54, 88
7, 81356, Note_off_c, 3, 54, 0
7, 81360, Note_on_c, 3, 52, 88
7, 81476, Note_off_c, 3, 52, 0
7, 81480, Note_on_c, 3, 51, 88
7, 81596, Note_off_c, 3, 51, 0
7, 81600, Note_on_c, 3, 52, 88
7, 81716, Note_off_c, 3, 52, 0
7, 81720, Note_on_c, 3, 50, 88
7, 81836, Note_off_c, 3, 50, 0
7, 81840, Note_on_c, 3, 49, 88
7, 81956, Note_off_c, 3, 49, 0
7, 81960, Note_on_c, 3, 47, 88
7, 82076, Note_off_c, 3, 47, 0
7, 82080, Note_on_c, 3, 46, 88
7, 82196, Note_off_c, 3, 46, 0
7, 82200, Note_on_c, 3, 54, 88
7, 82316, Note_off_c, 3, 54, 0
7, 82320, Note_on_c, 3, 59, 88
7, 82436, Note_off_c, 3, 59, 0
7, 82440, Note_on_c, 3, 57, 88
7, 82556, Note_off_c, 3, 57, 0
7, 82560, Note_on_c, 3, 56, 88
7, 82676, Note_off_c, 3, 56, 0
7, 82680, Note_on_c, 3, 54, 88
7, 82796, Note_off_c, 3, 54, 0
7, 82800, Note_on_c, 3, 56, 88
7, 82916, Note_off_c, 3, 56, 0
7, 82920, Note_on_c, 3, 58, 88
7, 83036, Note_off_c, 3, 58, 0
7, 83040, Note_on_c, 3, 59, 88
7, 83156, Note_off_c, 3, 59, 0
7, 83160, Note_on_c, 3, 47, 88
7, 83276, Note_off_c, 3, 47, 0
7, 83280, Note_on_c, 3, 49, 88
7, 83396, Note_off_c, 3, 49, 0
7, 83400, Note_on_c, 3, 50, 88
7, 83516, Note_off_c, 3, 50, 0
7, 83520, Note_on_c, 3, 52, 88
7, 83636, Note_off_c, 3, 52, 0
7, 83640, Note_on_c, 3, 54, 88
7, 83756, Note_off_c, 3, 54, 0
7, 83760, Note_on_c, 3, 55, 88
7, 83876, Note_off_c, 3, 55, 0
7, 83880, Note_on_c, 3, 52, 88
7, 83996, Note_off_c, 3, 52, 0
7, 84000, Note_on_c, 3, 54, 88
7, 84116, Note_off_c, 3, 54, 0
7, 84120, Note_on_c, 3, 52, 88
7, 84236, Note_off_c, 3, 52, 0
7, 84240, Note_on_c, 3, 50, 88
7, 84356, Note_off_c, 3, 50, 0
7, 84360, Note_on_c, 3, 52, 88
7, 84476, Note_off_c, 3, 52, 0
7, 84480, Note_on_c, 3, 54, 88
7, 84596, Note_off_c, 3, 54, 0
7, 84600, Note_on_c, 3, 52, 88
7, 84716, Note_off_c, 3, 52, 0
7, 84720, Note_on_c, 3, 54, 88
7, 84836, Note_off_c, 3, 54, 0
7, 84840, Note_on_c, 3, 42, 88
7, 84956, Note_off_c, 3, 42, 0
7, 84960, Note_on_c, 3, 43, 88
7, 85194, Note_off_c, 3, 43, 0
7, 85200, Note_on_c, 3, 42, 88
7, 85434, Note_off_c, 3, 42, 0
7, 85440, Note_on_c, 3, 40, 88
7, 85674, Note_off_c, 3, 40, 0
7, 85680, Note_on_c, 3, 38, 88
7, 85914, Note_off_c, 3, 38, 0
7, 85920, Note_on_c, 3, 37, 88
7, 86036, Note_off_c, 3, 37, 0
7, 86040, Note_on_c, 3, 59, 88
7, 86156, Note_off_c, 3, 59, 0
7, 86160, Note_on_c, 3, 58, 88
7, 86276, Note_off_c, 3, 58, 0
7, 86280, Note_on_c, 3, 57, 88
7, 86396, Note_off_c, 3, 57, 0
7, 86400, Note_on_c, 3, 56, 88
7, 86516, Note_off_c, 3, 56, 0
7, 86520, Note_on_c, 3, 55, 88
7, 86636, Note_off_c, 3, 55, 0
7, 86640, Note_on_c, 3, 54, 88
7, 86756, Note_off_c, 3, 54, 0
7, 86760, Note_on_c, 3, 59, 88
7, 86876, Note_off_c, 3, 59, 0
7, 86880, Note_on_c, 3, 52, 88
7, 86996, Note_off_c, 3, 52, 0
7, 87000, Note_on_c, 3, 64, 88
7, 87116, Note_off_c, 3, 64, 0
7, 87120, Note_on_c, 3, 62, 88
7, 87236, Note_off_c, 3, 62, 0
7, 87240, Note_on_c, 3, 61, 88
7, 87356, Note_off_c, 3, 61, 0
7, 87360, Note_on_c, 3, 59, 88
7, 87476, Note_off_c, 3, 59, 0
7, 87480, Note_on_c, 3, 60, 88
7, 87596, Note_off_c, 3, 60, 0
7, 87600, Note_on_c, 3, 61, 88
7, 87716, Note_off_c, 3, 61, 0
7, 87720, Note_on_c, 3, 62, 88
7, 87836, Note_off_c, 3, 62, 0
7, 87840, Note_on_c, 3, 53, 88
7, 87956, Note_off_c, 3, 53, 0
7, 87960, Note_on_c, 3, 54, 88
7, 88076, Note_off_c, 3, 54, 0
7, 88080, Note_on_c, 3, 55, 88
7, 88196, Note_off_c, 3, 55, 0
7, 88200, Note_on_c, 3, 52, 88
7, 88316, Note_off_c, 3, 52, 0
7, 88320, Note_on_c, 3, 54, 88
7, 88436, Note_off_c, 3, 54, 0
7, 88440, Note_on_c, 3, 52, 88
7, 88556, Note_off_c, 3, 52, 0
7, 88560, Note_on_c, 3, 54, 88
7, 88676, Note_off_c, 3, 54, 0
7, 88680, Note_on_c, 3, 42, 88
7, 88796, Note_off_c, 3, 42, 0
7, 88800, Note_on_c, 3, 47, 88
7, 90225, Note_off_c, 3, 47, 0
7, 90225, End_track
0, 0, End_of_file
