0, 0, Header, 1, 9, 240
1, 0, Start_track
1, 0, Time_signature, 4, 2, 24, 8
1, 0, Tempo, 1071428
1, 0, SMPTE_offset, 64, 0, 0, 0, 93
1, 0, End_track
2, 0, Start_track
2, 0, Title_t, "(C) & (P) 1993"
2, 127, End_track
3, 0, Start_track
3, 0, Title_t, "CCARH,Stanford"
3, 0, End_track
4, 0, Start_track
4, 0, Title_t, "Track 1"
4, 0, Program_c, 0, 6
4, 60, Note_on_c, 0, 72, 88
4, 118, Note_off_c, 0, 72, 0
4, 120, Note_on_c, 0, 74, 88
4, 178, Note_off_c, 0, 74, 0
4, 180, Note_on_c, 0, 76, 88
4, 238, Note_off_c, 0, 76, 0
4, 240, Note_on_c, 0, 67, 88
4, 298, Note_off_c, 0, 67, 0
4, 300, Note_on_c, 0, 76, 88
4, 358, Note_off_c, 0, 76, 0
4, 360, Note_on_c, 0, 65, 88
4, 418, Note_off_c, 0, 65, 0
4, 420, Note_on_c, 0, 74, 88
4, 478, Note_off_c, 0, 74, 0
4, 480, Note_on_c, 0, 64, 88
4, 509, Note_off_c, 0, 64, 0
4, 510, Note_on_c, 0, 72, 88
4, 539, Note_off_c, 0, 72, 0
4, 540, Note_on_c, 0, 71, 88
4, 569, Note_off_c, 0, 71, 0
4, 570, Note_on_c, 0, 69, 88
4, 599, Note_off_c, 0, 69, 0
4, 600, Note_on_c, 0, 67, 88
4, 658, Note_off_c, 0, 67, 0
4, 660, Note_on_c, 0, 70, 88
4, 718, Note_off_c, 0, 70, 0
4, 720, Note_on_c, 0, 64, 88
4, 778, Note_off_c, 0, 64, 0
4, 780, Note_on_c, 0, 67, 88
4, 838, Note_off_c, 0, 67, 0
4, 840, Note_on_c, 0, 60, 88
4, 898, Note_off_c, 0, 60, 0
4, 900, Note_on_c, 0, 70, 88
4, 958, Note_off_c, 0, 70, 0
4, 960, Note_on_c, 0, 69, 88
4, 989, Note_off_c, 0, 69, 0
4, 990, Note_on_c, 0, 67, 88
4, 1019, Note_off_c, 0, 67, 0
4, 1020, Note_on_c, 0, 65, 88
4, 1049, Note_off_c, 0, 65, 0
4, 1050, Note_on_c, 0, 64, 88
4, 1079, Note_off_c, 0, 64, 0
4, 1080, Note_on_c, 0, 65, 88
4, 1138, Note_off_c, 0, 65, 0
4, 1140, Note_on_c, 0, 69, 88
4, 1198, Note_off_c, 0, 69, 0
4, 1200, Note_on_c, 0, 62, 88
4, 1258, Note_off_c, 0, 62, 0
4, 1260, Note_on_c, 0, 65, 88
4, 1318, Note_off_c, 0, 65, 0
4, 1320, Note_on_c, 0, 57, 88
4, 1378, Note_off_c, 0, 57, 0
4, 1380, Note_on_c, 0, 60, 88
4, 1438, Note_off_c, 0, 60, 0
4, 1440, Note_on_c, 0, 59, 88
4, 1498, Note_off_c, 0, 59, 0
4, 1500, Note_on_c, 0, 62, 88
4, 1558, Note_off_c, 0, 62, 0
4, 1560, Note_on_c, 0, 64, 88
4, 1618, Note_off_c, 0, 64, 0
4, 1620, Note_on_c, 0, 65, 88
4, 1678, Note_off_c, 0, 65, 0
4, 1680, Note_on_c, 0, 55, 88
4, 1738, Note_off_c, 0, 55, 0
4, 1740, Note_on_c, 0, 65, 88
4, 1798, Note_off_c, 0, 65, 0
4, 1800, Note_on_c, 0, 64, 88
4, 1858, Note_off_c, 0, 64, 0
4, 1860, Note_on_c, 0, 62, 88
4, 1918, Note_off_c, 0, 62, 0
4, 1920, Note_on_c, 0, 64, 88
4, 3174, Note_off_c, 0, 64, 0
4, 3180, Note_on_c, 0, 62, 88
4, 3296, Note_off_c, 0, 62, 0
4, 3300, Note_on_c, 0, 60, 88
4, 3358, Note_off_c, 0, 60, 0
4, 3360, Note_on_c, 0, 59, 88
4, 3418, Note_off_c, 0, 59, 0
4, 3420, Note_on_c, 0, 62, 88
4, 3478, Note_off_c, 0, 62, 0
4, 3480, Note_on_c, 0, 67, 88
4, 3646, Note_off_c, 0, 67, 0
4, 3660, Note_on_c, 0, 67, 88
4, 3718, Note_off_c, 0, 67, 0
4, 3720, Note_on_c, 0, 65, 88
4, 3778, Note_off_c, 0, 65, 0
4, 3780, Note_on_c, 0, 64, 88
4, 3838, Note_off_c, 0, 64, 0
4, 3840, Note_on_c, 0, 65, 88
4, 4126, Note_off_c, 0, 65, 0
4, 4140, Note_on_c, 0, 65, 88
4, 4198, Note_off_c, 0, 65, 0
4, 4200, Note_on_c, 0, 64, 88
4, 4258, Note_off_c, 0, 64, 0
4, 4260, Note_on_c, 0, 62, 88
4, 4318, Note_off_c, 0, 62, 0
4, 4320, Note_on_c, 0, 64, 88
4, 4790, Note_off_c, 0, 64, 0
4, 4800, Note_on_c, 0, 62, 88
4, 5086, Note_off_c, 0, 62, 0
4, 5100, Note_on_c, 0, 62, 88
4, 5158, Note_off_c, 0, 62, 0
4, 5160, Note_on_c, 0, 64, 88
4, 5218, Note_off_c, 0, 64, 0
4, 5220, Note_on_c, 0, 67, 88
4, 5278, Note_off_c, 0, 67, 0
4, 5280, Note_on_c, 0, 60, 88
4, 5574, Note_off_c, 0, 60, 0
4, 5580, Note_on_c, 0, 69, 88
4, 5609, Note_off_c, 0, 69, 0
4, 5610, Note_on_c, 0, 67, 88
4, 5639, Note_off_c, 0, 67, 0
4, 5640, Note_on_c, 0, 69, 88
4, 5698, Note_off_c, 0, 69, 0
4, 5700, Note_on_c, 0, 60, 88
4, 5758, Note_off_c, 0, 60, 0
4, 5760, Note_on_c, 0, 59, 88
4, 6054, Note_off_c, 0, 59, 0
4, 6060, Note_on_c, 0, 62, 88
4, 6118, Note_off_c, 0, 62, 0
4, 6120, Note_on_c, 0, 64, 88
4, 6178, Note_off_c, 0, 64, 0
4, 6180, Note_on_c, 0, 65, 88
4, 6238, Note_off_c, 0, 65, 0
4, 6240, Note_on_c, 0, 67, 88
4, 6646, Note_off_c, 0, 67, 0
4, 6660, Note_on_c, 0, 67, 88
4, 6718, Note_off_c, 0, 67, 0
4, 6720, Note_on_c, 0, 65, 88
4, 7190, Note_off_c, 0, 65, 0
4, 7200, Note_on_c, 0, 64, 88
4, 7486, Note_off_c, 0, 64, 0
4, 7500, Note_on_c, 0, 64, 88
4, 7558, Note_off_c, 0, 64, 0
4, 7560, Note_on_c, 0, 65, 88
4, 7618, Note_off_c, 0, 65, 0
4, 7620, Note_on_c, 0, 67, 88
4, 7678, Note_off_c, 0, 67, 0
4, 7680, Note_on_c, 0, 69, 88
4, 7709, Note_off_c, 0, 69, 0
4, 7710, Note_on_c, 0, 67, 88
4, 7739, Note_off_c, 0, 67, 0
4, 7740, Note_on_c, 0, 65, 88
4, 7769, Note_off_c, 0, 65, 0
4, 7770, Note_on_c, 0, 64, 88
4, 7799, Note_off_c, 0, 64, 0
4, 7800, Note_on_c, 0, 65, 88
4, 7858, Note_off_c, 0, 65, 0
4, 7860, Note_on_c, 0, 69, 88
4, 7918, Note_off_c, 0, 69, 0
4, 7920, Note_on_c, 0, 62, 88
4, 7978, Note_off_c, 0, 62, 0
4, 7980, Note_on_c, 0, 72, 88
4, 8038, Note_off_c, 0, 72, 0
4, 8040, Note_on_c, 0, 71, 88
4, 8098, Note_off_c, 0, 71, 0
4, 8100, Note_on_c, 0, 69, 88
4, 8158, Note_off_c, 0, 69, 0
4, 8160, Note_on_c, 0, 68, 88
4, 8454, Note_off_c, 0, 68, 0
4, 8460, Note_on_c, 0, 64, 88
4, 8518, Note_off_c, 0, 64, 0
4, 8520, Note_on_c, 0, 69, 88
4, 8746, Note_off_c, 0, 69, 0
4, 8760, Note_on_c, 0, 69, 88
4, 8876, Note_off_c, 0, 69, 0
4, 8880, Note_on_c, 0, 67, 88
4, 8996, Note_off_c, 0, 67, 0
4, 9000, Note_on_c, 0, 65, 88
4, 9116, Note_off_c, 0, 65, 0
4, 9120, Note_on_c, 0, 64, 88
4, 9286, Note_off_c, 0, 64, 0
4, 9300, Note_on_c, 0, 64, 88
4, 9406, Note_off_c, 0, 64, 0
4, 9420, Note_on_c, 0, 64, 88
4, 9478, Note_off_c, 0, 64, 0
4, 9480, Note_on_c, 0, 62, 88
4, 9538, Note_off_c, 0, 62, 0
4, 9540, Note_on_c, 0, 61, 88
4, 9598, Note_off_c, 0, 61, 0
4, 9600, Note_on_c, 0, 62, 88
4, 9658, Note_off_c, 0, 62, 0
4, 9660, Note_on_c, 0, 69, 88
4, 9718, Note_off_c, 0, 69, 0
4, 9720, Note_on_c, 0, 71, 88
4, 9778, Note_off_c, 0, 71, 0
4, 9780, Note_on_c, 0, 73, 88
4, 9838, Note_off_c, 0, 73, 0
4, 9840, Note_on_c, 0, 74, 88
4, 9898, Note_off_c, 0, 74, 0
4, 9900, Note_on_c, 0, 77, 88
4, 10126, Note_off_c, 0, 77, 0
4, 10140, Note_on_c, 0, 77, 88
4, 10198, Note_off_c, 0, 77, 0
4, 10200, Note_on_c, 0, 75, 88
4, 10258, Note_off_c, 0, 75, 0
4, 10260, Note_on_c, 0, 74, 88
4, 10318, Note_off_c, 0, 74, 0
4, 10320, Note_on_c, 0, 75, 88
4, 10378, Note_off_c, 0, 75, 0
4, 10380, Note_on_c, 0, 79, 88
4, 10438, Note_off_c, 0, 79, 0
4, 10440, Note_on_c, 0, 73, 88
4, 10498, Note_off_c, 0, 73, 0
4, 10500, Note_on_c, 0, 74, 88
4, 10558, Note_off_c, 0, 74, 0
4, 10560, Note_on_c, 0, 73, 88
4, 10913, Note_off_c, 0, 73, 0
4, 10920, Note_on_c, 0, 74, 88
4, 11086, Note_off_c, 0, 74, 0
4, 11100, Note_on_c, 0, 74, 88
4, 11158, Note_off_c, 0, 74, 0
4, 11160, Note_on_c, 0, 73, 88
4, 11218, Note_off_c, 0, 73, 0
4, 11220, Note_on_c, 0, 71, 88
4, 11278, Note_off_c, 0, 71, 0
4, 11280, Note_on_c, 0, 73, 88
4, 11338, Note_off_c, 0, 73, 0
4, 11340, Note_on_c, 0, 74, 88
4, 11398, Note_off_c, 0, 74, 0
4, 11400, Note_on_c, 0, 76, 88
4, 11578, Note_off_c, 0, 76, 0
4, 11580, Note_on_c, 0, 69, 88
4, 11638, Note_off_c, 0, 69, 0
4, 11640, Note_on_c, 0, 74, 88
4, 11698, Note_off_c, 0, 74, 0
4, 11700, Note_on_c, 0, 73, 88
4, 11758, Note_off_c, 0, 73, 0
4, 11760, Note_on_c, 0, 74, 88
4, 11935, Note_off_c, 0, 74, 0
4, 11940, Note_on_c, 0, 76, 88
4, 11998, Note_off_c, 0, 76, 0
4, 12000, Note_on_c, 0, 77, 88
4, 12294, Note_off_c, 0, 77, 0
4, 12300, Note_on_c, 0, 76, 88
4, 12358, Note_off_c, 0, 76, 0
4, 12360, Note_on_c, 0, 77, 88
4, 12476, Note_off_c, 0, 77, 0
4, 12480, Note_on_c, 0, 76, 88
4, 12766, Note_off_c, 0, 76, 0
4, 12780, Note_on_c, 0, 76, 88
4, 12838, Note_off_c, 0, 76, 0
4, 12840, Note_on_c, 0, 81, 88
4, 12898, Note_off_c, 0, 81, 0
4, 12900, Note_on_c, 0, 80, 88
4, 12958, Note_off_c, 0, 80, 0
4, 12960, Note_on_c, 0, 81, 88
4, 13254, Note_off_c, 0, 81, 0
4, 13260, Note_on_c, 0, 79, 88
4, 13318, Note_off_c, 0, 79, 0
4, 13320, Note_on_c, 0, 81, 88
4, 13378, Note_off_c, 0, 81, 0
4, 13380, Note_on_c, 0, 77, 88
4, 13438, Note_off_c, 0, 77, 0
4, 13440, Note_on_c, 0, 74, 88
4, 13734, Note_off_c, 0, 74, 0
4, 13740, Note_on_c, 0, 77, 88
4, 13798, Note_off_c, 0, 77, 0
4, 13800, Note_on_c, 0, 76, 88
4, 13858, Note_off_c, 0, 76, 0
4, 13860, Note_on_c, 0, 79, 88
4, 13918, Note_off_c, 0, 79, 0
4, 13920, Note_on_c, 0, 72, 88
4, 14332, Note_off_c, 0, 72, 0
4, 14340, Note_on_c, 0, 75, 88
4, 14398, Note_off_c, 0, 75, 0
4, 14400, Note_on_c, 0, 74, 88
4, 14694, Note_off_c, 0, 74, 0
4, 14700, Note_on_c, 0, 77, 88
4, 14816, Note_off_c, 0, 77, 0
4, 14820, Note_on_c, 0, 76, 88
4, 14878, Note_off_c, 0, 76, 0
4, 14880, Note_on_c, 0, 77, 88
4, 15055, Note_off_c, 0, 77, 0
4, 15060, Note_on_c, 0, 72, 88
4, 15118, Note_off_c, 0, 72, 0
4, 15120, Note_on_c, 0, 77, 88
4, 15178, Note_off_c, 0, 77, 0
4, 15180, Note_on_c, 0, 81, 88
4, 15238, Note_off_c, 0, 81, 0
4, 15240, Note_on_c, 0, 74, 88
4, 15298, Note_off_c, 0, 74, 0
4, 15300, Note_on_c, 0, 77, 88
4, 15358, Note_off_c, 0, 77, 0
4, 15360, Note_on_c, 0, 71, 88
4, 15418, Note_off_c, 0, 71, 0
4, 15420, Note_on_c, 0, 74, 88
4, 15478, Note_off_c, 0, 74, 0
4, 15480, Note_on_c, 0, 79, 88
4, 15646, Note_off_c, 0, 79, 0
4, 15660, Note_on_c, 0, 79, 88
4, 15718, Note_off_c, 0, 79, 0
4, 15720, Note_on_c, 0, 77, 88
4, 15778, Note_off_c, 0, 77, 0
4, 15780, Note_on_c, 0, 76, 88
4, 15838, Note_off_c, 0, 76, 0
4, 15840, Note_on_c, 0, 77, 88
4, 16134, Note_off_c, 0, 77, 0
4, 16140, Note_on_c, 0, 74, 88
4, 16198, Note_off_c, 0, 74, 0
4, 16200, Note_on_c, 0, 77, 88
4, 16366, Note_off_c, 0, 77, 0
4, 16380, Note_on_c, 0, 77, 88
4, 16438, Note_off_c, 0, 77, 0
4, 16440, Note_on_c, 0, 76, 88
4, 16615, Note_off_c, 0, 76, 0
4, 16620, Note_on_c, 0, 75, 88
4, 16678, Note_off_c, 0, 75, 0
4, 16680, Note_on_c, 0, 74, 88
4, 16738, Note_off_c, 0, 74, 0
4, 16740, Note_on_c, 0, 73, 88
4, 16798, Note_off_c, 0, 73, 0
4, 16800, Note_on_c, 0, 74, 88
4, 17206, Note_off_c, 0, 74, 0
4, 17220, Note_on_c, 0, 74, 88
4, 17278, Note_off_c, 0, 74, 0
4, 17280, Note_on_c, 0, 73, 88
4, 17396, Note_off_c, 0, 73, 0
4, 17400, Note_on_c, 0, 72, 88
4, 17686, Note_off_c, 0, 72, 0
4, 17700, Note_on_c, 0, 72, 88
4, 17758, Note_off_c, 0, 72, 0
4, 17760, Note_on_c, 0, 71, 88
4, 17876, Note_off_c, 0, 71, 0
4, 17880, Note_on_c, 0, 70, 88
4, 18166, Note_off_c, 0, 70, 0
4, 18180, Note_on_c, 0, 70, 88
4, 18238, Note_off_c, 0, 70, 0
4, 18240, Note_on_c, 0, 69, 88
4, 18710, Note_off_c, 0, 69, 0
4, 18720, Note_on_c, 0, 67, 88
4, 19006, Note_off_c, 0, 67, 0
4, 19020, Note_on_c, 0, 67, 88
4, 19078, Note_off_c, 0, 67, 0
4, 19080, Note_on_c, 0, 69, 88
4, 19138, Note_off_c, 0, 69, 0
4, 19140, Note_on_c, 0, 72, 88
4, 19198, Note_off_c, 0, 72, 0
4, 19200, Note_on_c, 0, 65, 88
4, 19494, Note_off_c, 0, 65, 0
4, 19500, Note_on_c, 0, 74, 88
4, 19529, Note_off_c, 0, 74, 0
4, 19530, Note_on_c, 0, 72, 88
4, 19559, Note_off_c, 0, 72, 0
4, 19560, Note_on_c, 0, 74, 88
4, 19618, Note_off_c, 0, 74, 0
4, 19620, Note_on_c, 0, 65, 88
4, 19678, Note_off_c, 0, 65, 0
4, 19680, Note_on_c, 0, 64, 88
4, 19974, Note_off_c, 0, 64, 0
4, 19980, Note_on_c, 0, 67, 88
4, 20038, Note_off_c, 0, 67, 0
4, 20040, Note_on_c, 0, 69, 88
4, 20098, Note_off_c, 0, 69, 0
4, 20100, Note_on_c, 0, 71, 88
4, 20158, Note_off_c, 0, 71, 0
4, 20160, Note_on_c, 0, 72, 88
4, 20566, Note_off_c, 0, 72, 0
4, 20580, Note_on_c, 0, 72, 88
4, 20638, Note_off_c, 0, 72, 0
4, 20640, Note_on_c, 0, 71, 88
4, 20993, Note_off_c, 0, 71, 0
4, 21000, Note_on_c, 0, 73, 88
4, 21029, Note_off_c, 0, 73, 0
4, 21030, Note_on_c, 0, 74, 88
4, 21059, Note_off_c, 0, 74, 0
4, 21060, Note_on_c, 0, 76, 88
4, 21118, Note_off_c, 0, 76, 0
4, 21120, Note_on_c, 0, 69, 88
4, 21406, Note_off_c, 0, 69, 0
4, 21420, Note_on_c, 0, 69, 88
4, 21478, Note_off_c, 0, 69, 0
4, 21480, Note_on_c, 0, 70, 88
4, 21538, Note_off_c, 0, 70, 0
4, 21540, Note_on_c, 0, 72, 88
4, 21598, Note_off_c, 0, 72, 0
4, 21600, Note_on_c, 0, 74, 88
4, 21629, Note_off_c, 0, 74, 0
4, 21630, Note_on_c, 0, 72, 88
4, 21659, Note_off_c, 0, 72, 0
4, 21660, Note_on_c, 0, 70, 88
4, 21689, Note_off_c, 0, 70, 0
4, 21690, Note_on_c, 0, 69, 88
4, 21719, Note_off_c, 0, 69, 0
4, 21720, Note_on_c, 0, 70, 88
4, 21778, Note_off_c, 0, 70, 0
4, 21780, Note_on_c, 0, 74, 88
4, 21838, Note_off_c, 0, 74, 0
4, 21840, Note_on_c, 0, 67, 88
4, 21898, Note_off_c, 0, 67, 0
4, 21900, Note_on_c, 0, 77, 88
4, 21958, Note_off_c, 0, 77, 0
4, 21960, Note_on_c, 0, 76, 88
4, 22018, Note_off_c, 0, 76, 0
4, 22020, Note_on_c, 0, 74, 88
4, 22078, Note_off_c, 0, 74, 0
4, 22080, Note_on_c, 0, 73, 88
4, 22374, Note_off_c, 0, 73, 0
4, 22380, Note_on_c, 0, 69, 88
4, 22438, Note_off_c, 0, 69, 0
4, 22440, Note_on_c, 0, 74, 88
4, 22666, Note_off_c, 0, 74, 0
4, 22680, Note_on_c, 0, 74, 88
4, 22796, Note_off_c, 0, 74, 0
4, 22800, Note_on_c, 0, 72, 88
4, 22916, Note_off_c, 0, 72, 0
4, 22920, Note_on_c, 0, 70, 88
4, 23036, Note_off_c, 0, 70, 0
4, 23040, Note_on_c, 0, 69, 88
4, 23206, Note_off_c, 0, 69, 0
4, 23220, Note_on_c, 0, 69, 88
4, 23326, Note_off_c, 0, 69, 0
4, 23340, Note_on_c, 0, 69, 88
4, 23398, Note_off_c, 0, 69, 0
4, 23400, Note_on_c, 0, 67, 88
4, 23458, Note_off_c, 0, 67, 0
4, 23460, Note_on_c, 0, 66, 88
4, 23518, Note_off_c, 0, 66, 0
4, 23520, Note_on_c, 0, 67, 88
4, 23578, Note_off_c, 0, 67, 0
4, 23580, Note_on_c, 0, 74, 88
4, 23638, Note_off_c, 0, 74, 0
4, 23640, Note_on_c, 0, 76, 88
4, 23698, Note_off_c, 0, 76, 0
4, 23700, Note_on_c, 0, 78, 88
4, 23758, Note_off_c, 0, 78, 0
4, 23760, Note_on_c, 0, 79, 88
4, 23818, Note_off_c, 0, 79, 0
4, 23820, Note_on_c, 0, 82, 88
4, 24046, Note_off_c, 0, 82, 0
4, 24060, Note_on_c, 0, 82, 88
4, 24118, Note_off_c, 0, 82, 0
4, 24120, Note_on_c, 0, 80, 88
4, 24178, Note_off_c, 0, 80, 0
4, 24180, Note_on_c, 0, 79, 88
4, 24238, Note_off_c, 0, 79, 0
4, 24240, Note_on_c, 0, 80, 88
4, 24298, Note_off_c, 0, 80, 0
4, 24300, Note_on_c, 0, 84, 88
4, 24358, Note_off_c, 0, 84, 0
4, 24360, Note_on_c, 0, 78, 88
4, 24418, Note_off_c, 0, 78, 0
4, 24420, Note_on_c, 0, 79, 88
4, 24478, Note_off_c, 0, 79, 0
4, 24480, Note_on_c, 0, 78, 88
4, 24833, Note_off_c, 0, 78, 0
4, 24840, Note_on_c, 0, 79, 88
4, 25006, Note_off_c, 0, 79, 0
4, 25020, Note_on_c, 0, 79, 88
4, 25078, Note_off_c, 0, 79, 0
4, 25080, Note_on_c, 0, 78, 88
4, 25138, Note_off_c, 0, 78, 0
4, 25140, Note_on_c, 0, 76, 88
4, 25198, Note_off_c, 0, 76, 0
4, 25200, Note_on_c, 0, 78, 88
4, 25258, Note_off_c, 0, 78, 0
4, 25260, Note_on_c, 0, 79, 88
4, 25318, Note_off_c, 0, 79, 0
4, 25320, Note_on_c, 0, 81, 88
4, 25495, Note_off_c, 0, 81, 0
4, 25500, Note_on_c, 0, 74, 88
4, 25558, Note_off_c, 0, 74, 0
4, 25560, Note_on_c, 0, 79, 88
4, 25618, Note_off_c, 0, 79, 0
4, 25620, Note_on_c, 0, 78, 88
4, 25678, Note_off_c, 0, 78, 0
4, 25680, Note_on_c, 0, 79, 88
4, 25855, Note_off_c, 0, 79, 0
4, 25860, Note_on_c, 0, 81, 88
4, 25918, Note_off_c, 0, 81, 0
4, 25920, Note_on_c, 0, 82, 88
4, 26214, Note_off_c, 0, 82, 0
4, 26220, Note_on_c, 0, 81, 88
4, 26278, Note_off_c, 0, 81, 0
4, 26280, Note_on_c, 0, 82, 88
4, 26396, Note_off_c, 0, 82, 0
4, 26400, Note_on_c, 0, 81, 88
4, 26812, Note_off_c, 0, 81, 0
4, 26820, Note_on_c, 0, 80, 88
4, 26878, Note_off_c, 0, 80, 0
4, 26880, Note_on_c, 0, 79, 88
4, 27286, Note_off_c, 0, 79, 0
4, 27300, Note_on_c, 0, 79, 88
4, 27358, Note_off_c, 0, 79, 0
4, 27360, Note_on_c, 0, 78, 88
4, 27654, Note_off_c, 0, 78, 0
4, 27660, Note_on_c, 0, 76, 88
4, 27718, Note_off_c, 0, 76, 0
4, 27720, Note_on_c, 0, 77, 88
4, 27956, Note_off_c, 0, 77, 0
4, 27960, Note_on_c, 0, 76, 88
4, 28018, Note_off_c, 0, 76, 0
4, 28020, Note_on_c, 0, 74, 88
4, 28078, Note_off_c, 0, 74, 0
4, 28080, Note_on_c, 0, 76, 88
4, 28366, Note_off_c, 0, 76, 0
4, 28380, Note_on_c, 0, 76, 88
4, 28438, Note_off_c, 0, 76, 0
4, 28440, Note_on_c, 0, 74, 88
4, 28498, Note_off_c, 0, 74, 0
4, 28500, Note_on_c, 0, 72, 88
4, 28558, Note_off_c, 0, 72, 0
4, 28560, Note_on_c, 0, 74, 88
4, 28618, Note_off_c, 0, 74, 0
4, 28620, Note_on_c, 0, 77, 88
4, 28678, Note_off_c, 0, 77, 0
4, 28680, Note_on_c, 0, 81, 88
4, 28738, Note_off_c, 0, 81, 0
4, 28740, Note_on_c, 0, 72, 88
4, 28798, Note_off_c, 0, 72, 0
4, 28800, Note_on_c, 0, 71, 88
4, 29034, Note_off_c, 0, 71, 0
4, 29040, Note_on_c, 0, 72, 88
4, 29689, Note_off_c, 0, 72, 0
4, 29700, Note_on_c, 0, 71, 88
4, 29758, Note_off_c, 0, 71, 0
4, 29760, Note_on_c, 0, 72, 88
4, 30230, Note_off_c, 0, 72, 0
4, 30300, Note_on_c, 0, 72, 88
4, 30358, Note_off_c, 0, 72, 0
4, 30360, Note_on_c, 0, 74, 88
4, 30418, Note_off_c, 0, 74, 0
4, 30420, Note_on_c, 0, 76, 88
4, 30478, Note_off_c, 0, 76, 0
4, 30480, Note_on_c, 0, 77, 88
4, 30538, Note_off_c, 0, 77, 0
4, 30540, Note_on_c, 0, 81, 88
4, 30598, Note_off_c, 0, 81, 0
4, 30600, Note_on_c, 0, 74, 88
4, 30658, Note_off_c, 0, 74, 0
4, 30660, Note_on_c, 0, 77, 88
4, 30718, Note_off_c, 0, 77, 0
4, 30720, Note_on_c, 0, 70, 88
4, 31006, Note_off_c, 0, 70, 0
4, 31020, Note_on_c, 0, 70, 88
4, 31136, Note_off_c, 0, 70, 0
4, 31140, Note_on_c, 0, 67, 88
4, 31256, Note_off_c, 0, 67, 0
4, 31260, Note_on_c, 0, 64, 88
4, 31318, Note_off_c, 0, 64, 0
4, 31320, Note_on_c, 0, 65, 88
4, 31378, Note_off_c, 0, 65, 0
4, 31380, Note_on_c, 0, 67, 88
4, 31438, Note_off_c, 0, 67, 0
4, 31440, Note_on_c, 0, 69, 88
4, 31615, Note_off_c, 0, 69, 0
4, 31620, Note_on_c, 0, 71, 88
4, 31678, Note_off_c, 0, 71, 0
4, 31680, Note_on_c, 0, 67, 88
4, 31680, Note_on_c, 0, 72, 88
4, 32625, Note_off_c, 0, 67, 0
4, 32625, Note_off_c, 0, 72, 0
4, 32625, End_track
5, 0, Start_track
5, 0, Title_t, "Track 2"
5, 0, Program_c, 1, 6
5, 1980, Note_on_c, 1, 60, 88
5, 2866, Note_off_c, 1, 60, 0
5, 27600, Note_on_c, 1, 74, 88
5, 27956, Note_off_c, 1, 74, 0
5, 27960, Note_on_c, 1, 72, 88
5, 28018, Note_off_c, 1, 72, 0
5, 28020, Note_on_c, 1, 71, 88
5, 28078, Note_off_c, 1, 71, 0
5, 28080, Note_on_c, 1, 72, 88
5, 28314, Note_off_c, 1, 72, 0
5, 30780, Note_on_c, 1, 69, 88
5, 30838, Note_off_c, 1, 69, 0
5, 30840, Note_on_c, 1, 67, 88
5, 30898, Note_off_c, 1, 67, 0
5, 30900, Note_on_c, 1, 65, 88
5, 30958, Note_off_c, 1, 65, 0
5, 30960, Note_on_c, 1, 67, 88
5, 31076, Note_off_c, 1, 67, 0
5, 31080, Note_on_c, 1, 64, 88
5, 31196, Note_off_c, 1, 64, 0
5, 31200, Note_on_c, 1, 60, 88
5, 31434, Note_off_c, 1, 60, 0
5, 31500, Note_on_c, 1, 65, 88
5, 31558, Note_off_c, 1, 65, 0
5, 31560, Note_on_c, 1, 62, 88
5, 31676, Note_off_c, 1, 62, 0
5, 31680, Note_on_c, 1, 60, 88
5, 31680, Note_on_c, 1, 64, 88
5, 32625, Note_off_c, 1, 60, 0
5, 32625, Note_off_c, 1, 64, 0
5, 32625, End_track
6, 0, Start_track
6, 0, Title_t, "Track 3"
6, 0, Program_c, 2, 6
6, 31560, Note_on_c, 2, 56, 88
6, 31676, Note_off_c, 2, 56, 0
6, 31676, End_track
7, 0, Start_track
7, 0, Title_t, "Track 4"
7, 0, Program_c, 3, 6
7, 1980, Note_on_c, 3, 60, 88
7, 2038, Note_off_c, 3, 60, 0
7, 2040, Note_on_c, 3, 59, 88
7, 2098, Note_off_c, 3, 59, 0
7, 2100, Note_on_c, 3, 57, 88
7, 2158, Note_off_c, 3, 57, 0
7, 2160, Note_on_c, 3, 55, 88
7, 2868, Note_off_c, 3, 55, 0
7, 2880, Note_on_c, 3, 57, 88
7, 3350, Note_off_c, 3, 57, 0
7, 3360, Note_on_c, 3, 55, 88
7, 3535, Note_off_c, 3, 55, 0
7, 3540, Note_on_c, 3, 59, 88
7, 3598, Note_off_c, 3, 59, 0
7, 3600, Note_on_c, 3, 60, 88
7, 3886, Note_off_c, 3, 60, 0
7, 3900, Note_on_c, 3, 60, 88
7, 3958, Note_off_c, 3, 60, 0
7, 3960, Note_on_c, 3, 62, 88
7, 4018, Note_off_c, 3, 62, 0
7, 4020, Note_on_c, 3, 57, 88
7, 4078, Note_off_c, 3, 57, 0
7, 4080, Note_on_c, 3, 59, 88
7, 4314, Note_off_c, 3, 59, 0
7, 4320, Note_on_c, 3, 60, 88
7, 4846, Note_off_c, 3, 60, 0
7, 4860, Note_on_c, 3, 60, 88
7, 4918, Note_off_c, 3, 60, 0
7, 4920, Note_on_c, 3, 59, 88
7, 4978, Note_off_c, 3, 59, 0
7, 4980, Note_on_c, 3, 57, 88
7, 5038, Note_off_c, 3, 57, 0
7, 5040, Note_on_c, 3, 59, 88
7, 5274, Note_off_c, 3, 59, 0
7, 5280, Note_on_c, 3, 57, 88
7, 5806, Note_off_c, 3, 57, 0
7, 5820, Note_on_c, 3, 57, 88
7, 5878, Note_off_c, 3, 57, 0
7, 5880, Note_on_c, 3, 55, 88
7, 5938, Note_off_c, 3, 55, 0
7, 5940, Note_on_c, 3, 54, 88
7, 5998, Note_off_c, 3, 54, 0
7, 6000, Note_on_c, 3, 55, 88
7, 6116, Note_off_c, 3, 55, 0
7, 6300, Note_on_c, 3, 64, 88
7, 6358, Note_off_c, 3, 64, 0
7, 6360, Note_on_c, 3, 59, 88
7, 6418, Note_off_c, 3, 59, 0
7, 6420, Note_on_c, 3, 62, 88
7, 6478, Note_off_c, 3, 62, 0
7, 6480, Note_on_c, 3, 61, 88
7, 6538, Note_off_c, 3, 61, 0
7, 6540, Note_on_c, 3, 64, 88
7, 6598, Note_off_c, 3, 64, 0
7, 6600, Note_on_c, 3, 57, 88
7, 7073, Note_off_c, 3, 57, 0
7, 7080, Note_on_c, 3, 62, 88
7, 7246, Note_off_c, 3, 62, 0
7, 7260, Note_on_c, 3, 62, 88
7, 7318, Note_off_c, 3, 62, 0
7, 7320, Note_on_c, 3, 60, 88
7, 7378, Note_off_c, 3, 60, 0
7, 7380, Note_on_c, 3, 59, 88
7, 7438, Note_off_c, 3, 59, 0
7, 7440, Note_on_c, 3, 60, 88
7, 7914, Note_off_c, 3, 60, 0
7, 7920, Note_on_c, 3, 62, 88
7, 8214, Note_off_c, 3, 62, 0
7, 8220, Note_on_c, 3, 65, 88
7, 8278, Note_off_c, 3, 65, 0
7, 8280, Note_on_c, 3, 64, 88
7, 8338, Note_off_c, 3, 64, 0
7, 8340, Note_on_c, 3, 62, 88
7, 8398, Note_off_c, 3, 62, 0
7, 8400, Note_on_c, 3, 60, 88
7, 8566, Note_off_c, 3, 60, 0
7, 8580, Note_on_c, 3, 60, 88
7, 8638, Note_off_c, 3, 60, 0
7, 8640, Note_on_c, 3, 59, 88
7, 8993, Note_off_c, 3, 59, 0
7, 9000, Note_on_c, 3, 62, 88
7, 9166, Note_off_c, 3, 62, 0
7, 9180, Note_on_c, 3, 62, 88
7, 9238, Note_off_c, 3, 62, 0
7, 9240, Note_on_c, 3, 61, 88
7, 9356, Note_off_c, 3, 61, 0
7, 9360, Note_on_c, 3, 57, 88
7, 9658, Note_off_c, 3, 57, 0
7, 9960, Note_on_c, 3, 69, 88
7, 10018, Note_off_c, 3, 69, 0
7, 10020, Note_on_c, 3, 72, 88
7, 10078, Note_off_c, 3, 72, 0
7, 10080, Note_on_c, 3, 70, 88
7, 10606, Note_off_c, 3, 70, 0
7, 10620, Note_on_c, 3, 70, 88
7, 10678, Note_off_c, 3, 70, 0
7, 10680, Note_on_c, 3, 69, 88
7, 10846, Note_off_c, 3, 69, 0
7, 10860, Note_on_c, 3, 69, 88
7, 10976, Note_off_c, 3, 69, 0
7, 10980, Note_on_c, 3, 68, 88
7, 11038, Note_off_c, 3, 68, 0
7, 11040, Note_on_c, 3, 69, 88
7, 11452, Note_off_c, 3, 69, 0
7, 11460, Note_on_c, 3, 67, 88
7, 11518, Note_off_c, 3, 67, 0
7, 11520, Note_on_c, 3, 65, 88
7, 11806, Note_off_c, 3, 65, 0
7, 11820, Note_on_c, 3, 65, 88
7, 11878, Note_off_c, 3, 65, 0
7, 11880, Note_on_c, 3, 70, 88
7, 11996, Note_off_c, 3, 70, 0
7, 12000, Note_on_c, 3, 69, 88
7, 12166, Note_off_c, 3, 69, 0
7, 12180, Note_on_c, 3, 69, 88
7, 12238, Note_off_c, 3, 69, 0
7, 12240, Note_on_c, 3, 74, 88
7, 12406, Note_off_c, 3, 74, 0
7, 12420, Note_on_c, 3, 74, 88
7, 12526, Note_off_c, 3, 74, 0
7, 12540, Note_on_c, 3, 74, 88
7, 12598, Note_off_c, 3, 74, 0
7, 12600, Note_on_c, 3, 72, 88
7, 12658, Note_off_c, 3, 72, 0
7, 12660, Note_on_c, 3, 71, 88
7, 12718, Note_off_c, 3, 71, 0
7, 12720, Note_on_c, 3, 72, 88
7, 13014, Note_off_c, 3, 72, 0
7, 13020, Note_on_c, 3, 73, 88
7, 13078, Note_off_c, 3, 73, 0
7, 13080, Note_on_c, 3, 74, 88
7, 13138, Note_off_c, 3, 74, 0
7, 13140, Note_on_c, 3, 76, 88
7, 13198, Note_off_c, 3, 76, 0
7, 13200, Note_on_c, 3, 69, 88
7, 13498, Note_off_c, 3, 69, 0
7, 13500, Note_on_c, 3, 66, 88
7, 13558, Note_off_c, 3, 66, 0
7, 13560, Note_on_c, 3, 67, 88
7, 13618, Note_off_c, 3, 67, 0
7, 13620, Note_on_c, 3, 69, 88
7, 13678, Note_off_c, 3, 69, 0
7, 13680, Note_on_c, 3, 70, 88
7, 13796, Note_off_c, 3, 70, 0
7, 14040, Note_on_c, 3, 70, 88
7, 14215, Note_off_c, 3, 70, 0
7, 14220, Note_on_c, 3, 69, 88
7, 14249, Note_off_c, 3, 69, 0
7, 14250, Note_on_c, 3, 67, 88
7, 14279, Note_off_c, 3, 67, 0
7, 14280, Note_on_c, 3, 69, 88
7, 14338, Note_off_c, 3, 69, 0
7, 14340, Note_on_c, 3, 72, 88
7, 14398, Note_off_c, 3, 72, 0
7, 14400, Note_on_c, 3, 70, 88
7, 14746, Note_off_c, 3, 70, 0
7, 14760, Note_on_c, 3, 70, 88
7, 14935, Note_off_c, 3, 70, 0
7, 14940, Note_on_c, 3, 67, 88
7, 14998, Note_off_c, 3, 67, 0
7, 15000, Note_on_c, 3, 69, 88
7, 15234, Note_off_c, 3, 69, 0
7, 15240, Note_on_c, 3, 65, 88
7, 15356, Note_off_c, 3, 65, 0
7, 15360, Note_on_c, 3, 67, 88
7, 15535, Note_off_c, 3, 67, 0
7, 15540, Note_on_c, 3, 71, 88
7, 15598, Note_off_c, 3, 71, 0
7, 15600, Note_on_c, 3, 73, 88
7, 15834, Note_off_c, 3, 73, 0
7, 15840, Note_on_c, 3, 74, 88
7, 15986, Note_off_c, 3, 74, 0
7, 15990, Note_on_c, 3, 72, 88
7, 16019, Note_off_c, 3, 72, 0
7, 16020, Note_on_c, 3, 70, 88
7, 16049, Note_off_c, 3, 70, 0
7, 16050, Note_on_c, 3, 69, 88
7, 16079, Note_off_c, 3, 69, 0
7, 16080, Note_on_c, 3, 70, 88
7, 16255, Note_off_c, 3, 70, 0
7, 16260, Note_on_c, 3, 69, 88
7, 16318, Note_off_c, 3, 69, 0
7, 16320, Note_on_c, 3, 68, 88
7, 16486, Note_off_c, 3, 68, 0
7, 16500, Note_on_c, 3, 68, 88
7, 16558, Note_off_c, 3, 68, 0
7, 16560, Note_on_c, 3, 69, 88
7, 16854, Note_off_c, 3, 69, 0
7, 16860, Note_on_c, 3, 72, 88
7, 16918, Note_off_c, 3, 72, 0
7, 16920, Note_on_c, 3, 70, 88
7, 16978, Note_off_c, 3, 70, 0
7, 16980, Note_on_c, 3, 69, 88
7, 17038, Note_off_c, 3, 69, 0
7, 17040, Note_on_c, 3, 70, 88
7, 17098, Note_off_c, 3, 70, 0
7, 17100, Note_on_c, 3, 66, 88
7, 17158, Note_off_c, 3, 66, 0
7, 17160, Note_on_c, 3, 67, 88
7, 17455, Note_off_c, 3, 67, 0
7, 17460, Note_on_c, 3, 70, 88
7, 17518, Note_off_c, 3, 70, 0
7, 17520, Note_on_c, 3, 69, 88
7, 17578, Note_off_c, 3, 69, 0
7, 17580, Note_on_c, 3, 67, 88
7, 17638, Note_off_c, 3, 67, 0
7, 17640, Note_on_c, 3, 66, 88
7, 17698, Note_off_c, 3, 66, 0
7, 17700, Note_on_c, 3, 63, 88
7, 17758, Note_off_c, 3, 63, 0
7, 17760, Note_on_c, 3, 62, 88
7, 17818, Note_off_c, 3, 62, 0
7, 17820, Note_on_c, 3, 64, 88
7, 17878, Note_off_c, 3, 64, 0
7, 17880, Note_on_c, 3, 65, 88
7, 17938, Note_off_c, 3, 65, 0
7, 17940, Note_on_c, 3, 69, 88
7, 17998, Note_off_c, 3, 69, 0
7, 18000, Note_on_c, 3, 67, 88
7, 18058, Note_off_c, 3, 67, 0
7, 18060, Note_on_c, 3, 65, 88
7, 18118, Note_off_c, 3, 65, 0
7, 18120, Note_on_c, 3, 64, 88
7, 18178, Note_off_c, 3, 64, 0
7, 18180, Note_on_c, 3, 61, 88
7, 18238, Note_off_c, 3, 61, 0
7, 18240, Note_on_c, 3, 60, 88
7, 18593, Note_off_c, 3, 60, 0
7, 18600, Note_on_c, 3, 65, 88
7, 18766, Note_off_c, 3, 65, 0
7, 18780, Note_on_c, 3, 65, 88
7, 18838, Note_off_c, 3, 65, 0
7, 18840, Note_on_c, 3, 64, 88
7, 18898, Note_off_c, 3, 64, 0
7, 18900, Note_on_c, 3, 62, 88
7, 18958, Note_off_c, 3, 62, 0
7, 18960, Note_on_c, 3, 64, 88
7, 19194, Note_off_c, 3, 64, 0
7, 19200, Note_on_c, 3, 62, 88
7, 19726, Note_off_c, 3, 62, 0
7, 19740, Note_on_c, 3, 62, 88
7, 19798, Note_off_c, 3, 62, 0
7, 19800, Note_on_c, 3, 60, 88
7, 19858, Note_off_c, 3, 60, 0
7, 19860, Note_on_c, 3, 59, 88
7, 19918, Note_off_c, 3, 59, 0
7, 19920, Note_on_c, 3, 60, 88
7, 20036, Note_off_c, 3, 60, 0
7, 20220, Note_on_c, 3, 69, 88
7, 20278, Note_off_c, 3, 69, 0
7, 20280, Note_on_c, 3, 64, 88
7, 20338, Note_off_c, 3, 64, 0
7, 20340, Note_on_c, 3, 67, 88
7, 20398, Note_off_c, 3, 67, 0
7, 20400, Note_on_c, 3, 66, 88
7, 20458, Note_off_c, 3, 66, 0
7, 20460, Note_on_c, 3, 69, 88
7, 20518, Note_off_c, 3, 69, 0
7, 20520, Note_on_c, 3, 62, 88
7, 20990, Note_off_c, 3, 62, 0
7, 21000, Note_on_c, 3, 67, 88
7, 21166, Note_off_c, 3, 67, 0
7, 21180, Note_on_c, 3, 67, 88
7, 21238, Note_off_c, 3, 67, 0
7, 21240, Note_on_c, 3, 65, 88
7, 21298, Note_off_c, 3, 65, 0
7, 21300, Note_on_c, 3, 64, 88
7, 21358, Note_off_c, 3, 64, 0
7, 21360, Note_on_c, 3, 65, 88
7, 21830, Note_off_c, 3, 65, 0
7, 21840, Note_on_c, 3, 67, 88
7, 22138, Note_off_c, 3, 67, 0
7, 22140, Note_on_c, 3, 70, 88
7, 22198, Note_off_c, 3, 70, 0
7, 22200, Note_on_c, 3, 69, 88
7, 22258, Note_off_c, 3, 69, 0
7, 22260, Note_on_c, 3, 67, 88
7, 22318, Note_off_c, 3, 67, 0
7, 22320, Note_on_c, 3, 65, 88
7, 22486, Note_off_c, 3, 65, 0
7, 22500, Note_on_c, 3, 65, 88
7, 22558, Note_off_c, 3, 65, 0
7, 22560, Note_on_c, 3, 64, 88
7, 22913, Note_off_c, 3, 64, 0
7, 22920, Note_on_c, 3, 67, 88
7, 23086, Note_off_c, 3, 67, 0
7, 23100, Note_on_c, 3, 67, 88
7, 23158, Note_off_c, 3, 67, 0
7, 23160, Note_on_c, 3, 66, 88
7, 23276, Note_off_c, 3, 66, 0
7, 23280, Note_on_c, 3, 62, 88
7, 23574, Note_off_c, 3, 62, 0
7, 23880, Note_on_c, 3, 74, 88
7, 23938, Note_off_c, 3, 74, 0
7, 23940, Note_on_c, 3, 77, 88
7, 23998, Note_off_c, 3, 77, 0
7, 24000, Note_on_c, 3, 75, 88
7, 24526, Note_off_c, 3, 75, 0
7, 24540, Note_on_c, 3, 75, 88
7, 24598, Note_off_c, 3, 75, 0
7, 24600, Note_on_c, 3, 74, 88
7, 24766, Note_off_c, 3, 74, 0
7, 24780, Note_on_c, 3, 74, 88
7, 24896, Note_off_c, 3, 74, 0
7, 24900, Note_on_c, 3, 73, 88
7, 24958, Note_off_c, 3, 73, 0
7, 24960, Note_on_c, 3, 74, 88
7, 25372, Note_off_c, 3, 74, 0
7, 25380, Note_on_c, 3, 72, 88
7, 25438, Note_off_c, 3, 72, 0
7, 25440, Note_on_c, 3, 70, 88
7, 25556, Note_off_c, 3, 70, 0
7, 25560, Note_on_c, 3, 72, 88
7, 25735, Note_off_c, 3, 72, 0
7, 25740, Note_on_c, 3, 70, 88
7, 25798, Note_off_c, 3, 70, 0
7, 25800, Note_on_c, 3, 75, 88
7, 25916, Note_off_c, 3, 75, 0
7, 25920, Note_on_c, 3, 74, 88
7, 26086, Note_off_c, 3, 74, 0
7, 26100, Note_on_c, 3, 74, 88
7, 26158, Note_off_c, 3, 74, 0
7, 26160, Note_on_c, 3, 79, 88
7, 26326, Note_off_c, 3, 79, 0
7, 26340, Note_on_c, 3, 79, 88
7, 26446, Note_off_c, 3, 79, 0
7, 26460, Note_on_c, 3, 79, 88
7, 26518, Note_off_c, 3, 79, 0
7, 26520, Note_on_c, 3, 77, 88
7, 26578, Note_off_c, 3, 77, 0
7, 26580, Note_on_c, 3, 76, 88
7, 26638, Note_off_c, 3, 76, 0
7, 26640, Note_on_c, 3, 77, 88
7, 26926, Note_off_c, 3, 77, 0
7, 26940, Note_on_c, 3, 77, 88
7, 26998, Note_off_c, 3, 77, 0
7, 27000, Note_on_c, 3, 76, 88
7, 27058, Note_off_c, 3, 76, 0
7, 27060, Note_on_c, 3, 74, 88
7, 27118, Note_off_c, 3, 74, 0
7, 27120, Note_on_c, 3, 76, 88
7, 27414, Note_off_c, 3, 76, 0
7, 27420, Note_on_c, 3, 75, 88
7, 27478, Note_off_c, 3, 75, 0
7, 27480, Note_on_c, 3, 74, 88
7, 27538, Note_off_c, 3, 74, 0
7, 27540, Note_on_c, 3, 72, 88
7, 27598, Note_off_c, 3, 72, 0
7, 27600, Note_on_c, 3, 74, 88
7, 27716, Note_off_c, 3, 74, 0
7, 27720, Note_on_c, 3, 67, 88
7, 28193, Note_off_c, 3, 67, 0
7, 28200, Note_on_c, 3, 70, 88
7, 28316, Note_off_c, 3, 70, 0
7, 28320, Note_on_c, 3, 69, 88
7, 28726, Note_off_c, 3, 69, 0
7, 28740, Note_on_c, 3, 69, 88
7, 28798, Note_off_c, 3, 69, 0
7, 28800, Note_on_c, 3, 67, 88
7, 29026, Note_off_c, 3, 67, 0
7, 29040, Note_on_c, 3, 67, 88
7, 29326, Note_off_c, 3, 67, 0
7, 29340, Note_on_c, 3, 67, 88
7, 29398, Note_off_c, 3, 67, 0
7, 29400, Note_on_c, 3, 65, 88
7, 29458, Note_off_c, 3, 65, 0
7, 29460, Note_on_c, 3, 64, 88
7, 29518, Note_off_c, 3, 64, 0
7, 29520, Note_on_c, 3, 62, 88
7, 29578, Note_off_c, 3, 62, 0
7, 29580, Note_on_c, 3, 64, 88
7, 29638, Note_off_c, 3, 64, 0
7, 29640, Note_on_c, 3, 65, 88
7, 29806, Note_off_c, 3, 65, 0
7, 29820, Note_on_c, 3, 65, 88
7, 29878, Note_off_c, 3, 65, 0
7, 29880, Note_on_c, 3, 64, 88
7, 29938, Note_off_c, 3, 64, 0
7, 29940, Note_on_c, 3, 62, 88
7, 29998, Note_off_c, 3, 62, 0
7, 30000, Note_on_c, 3, 64, 88
7, 30058, Note_off_c, 3, 64, 0
7, 30060, Note_on_c, 3, 67, 88
7, 30118, Note_off_c, 3, 67, 0
7, 30120, Note_on_c, 3, 60, 88
7, 30178, Note_off_c, 3, 60, 0
7, 30180, Note_on_c, 3, 64, 88
7, 30238, Note_off_c, 3, 64, 0
7, 30240, Note_on_c, 3, 57, 88
7, 30710, Note_off_c, 3, 57, 0
7, 30720, Note_on_c, 3, 55, 88
7, 31014, Note_off_c, 3, 55, 0
7, 31020, Note_on_c, 3, 53, 88
7, 31078, Note_off_c, 3, 53, 0
7, 31080, Note_on_c, 3, 55, 88
7, 31196, Note_off_c, 3, 55, 0
7, 31200, Note_on_c, 3, 57, 88
7, 31316, Note_off_c, 3, 57, 0
7, 31320, Note_on_c, 3, 55, 88
7, 31436, Note_off_c, 3, 55, 0
7, 31440, Note_on_c, 3, 53, 88
7, 31674, Note_off_c, 3, 53, 0
7, 31680, Note_on_c, 3, 52, 88
7, 32625, Note_off_c, 3, 52, 0
7, 32625, End_track
8, 0, Start_track
8, 0, Title_t, "Track 5"
8, 0, Program_c, 4, 6
8, 0, Note_on_c, 4, 48, 88
8, 2154, Note_off_c, 4, 48, 0
8, 2940, Note_on_c, 4, 48, 88
8, 2998, Note_off_c, 4, 48, 0
8, 3000, Note_on_c, 4, 50, 88
8, 3058, Note_off_c, 4, 50, 0
8, 3060, Note_on_c, 4, 52, 88
8, 3118, Note_off_c, 4, 52, 0
8, 3120, Note_on_c, 4, 53, 88
8, 3236, Note_off_c, 4, 53, 0
8, 3240, Note_on_c, 4, 52, 88
8, 3356, Note_off_c, 4, 52, 0
8, 3360, Note_on_c, 4, 50, 88
8, 3594, Note_off_c, 4, 50, 0
8, 3600, Note_on_c, 4, 52, 88
8, 3834, Note_off_c, 4, 52, 0
8, 3840, Note_on_c, 4, 50, 88
8, 4310, Note_off_c, 4, 50, 0
8, 4320, Note_on_c, 4, 48, 88
8, 4378, Note_off_c, 4, 48, 0
8, 5640, Note_on_c, 4, 50, 88
8, 6113, Note_off_c, 4, 50, 0
8, 6360, Note_on_c, 4, 52, 88
8, 6778, Note_off_c, 4, 52, 0
8, 6780, Note_on_c, 4, 45, 88
8, 6838, Note_off_c, 4, 45, 0
8, 6840, Note_on_c, 4, 47, 88
8, 6898, Note_off_c, 4, 47, 0
8, 6900, Note_on_c, 4, 49, 88
8, 6958, Note_off_c, 4, 49, 0
8, 6960, Note_on_c, 4, 50, 88
8, 7018, Note_off_c, 4, 50, 0
8, 9300, Note_on_c, 4, 55, 88
8, 9406, Note_off_c, 4, 55, 0
8, 9420, Note_on_c, 4, 55, 88
8, 9478, Note_off_c, 4, 55, 0
8, 9480, Note_on_c, 4, 53, 88
8, 9538, Note_off_c, 4, 53, 0
8, 9540, Note_on_c, 4, 52, 88
8, 9598, Note_off_c, 4, 52, 0
8, 9600, Note_on_c, 4, 53, 88
8, 10070, Note_off_c, 4, 53, 0
8, 10080, Note_on_c, 4, 55, 88
8, 10726, Note_off_c, 4, 55, 0
8, 10740, Note_on_c, 4, 55, 88
8, 10798, Note_off_c, 4, 55, 0
8, 10800, Note_on_c, 4, 54, 88
8, 10916, Note_off_c, 4, 54, 0
8, 10920, Note_on_c, 4, 53, 88
8, 11036, Note_off_c, 4, 53, 0
8, 11040, Note_on_c, 4, 52, 88
8, 11156, Note_off_c, 4, 52, 0
8, 11160, Note_on_c, 4, 50, 88
8, 11276, Note_off_c, 4, 50, 0
8, 11280, Note_on_c, 4, 52, 88
8, 11396, Note_off_c, 4, 52, 0
8, 11400, Note_on_c, 4, 57, 88
8, 11636, Note_off_c, 4, 57, 0
8, 11640, Note_on_c, 4, 58, 88
8, 11756, Note_off_c, 4, 58, 0
8, 11760, Note_on_c, 4, 57, 88
8, 11876, Note_off_c, 4, 57, 0
8, 11880, Note_on_c, 4, 55, 88
8, 11996, Note_off_c, 4, 55, 0
8, 12000, Note_on_c, 4, 53, 88
8, 12058, Note_off_c, 4, 53, 0
8, 12060, Note_on_c, 4, 55, 88
8, 12118, Note_off_c, 4, 55, 0
8, 12120, Note_on_c, 4, 57, 88
8, 12295, Note_off_c, 4, 57, 0
8, 12300, Note_on_c, 4, 56, 88
8, 12358, Note_off_c, 4, 56, 0
8, 12360, Note_on_c, 4, 57, 88
8, 12476, Note_off_c, 4, 57, 0
8, 12540, Note_on_c, 4, 52, 88
8, 12598, Note_off_c, 4, 52, 0
8, 12600, Note_on_c, 4, 54, 88
8, 12658, Note_off_c, 4, 54, 0
8, 12660, Note_on_c, 4, 56, 88
8, 12718, Note_off_c, 4, 56, 0
8, 12720, Note_on_c, 4, 57, 88
8, 13006, Note_off_c, 4, 57, 0
8, 13020, Note_on_c, 4, 57, 88
8, 13078, Note_off_c, 4, 57, 0
8, 13080, Note_on_c, 4, 59, 88
8, 13138, Note_off_c, 4, 59, 0
8, 13140, Note_on_c, 4, 61, 88
8, 13198, Note_off_c, 4, 61, 0
8, 13200, Note_on_c, 4, 62, 88
8, 13486, Note_off_c, 4, 62, 0
8, 13500, Note_on_c, 4, 62, 88
8, 13558, Note_off_c, 4, 62, 0
8, 13560, Note_on_c, 4, 64, 88
8, 13618, Note_off_c, 4, 64, 0
8, 13620, Note_on_c, 4, 66, 88
8, 13678, Note_off_c, 4, 66, 0
8, 13680, Note_on_c, 4, 67, 88
8, 13855, Note_off_c, 4, 67, 0
8, 13860, Note_on_c, 4, 65, 88
8, 13918, Note_off_c, 4, 65, 0
8, 13920, Note_on_c, 4, 64, 88
8, 14214, Note_off_c, 4, 64, 0
8, 14220, Note_on_c, 4, 60, 88
8, 14278, Note_off_c, 4, 60, 0
8, 14280, Note_on_c, 4, 65, 88
8, 14634, Note_off_c, 4, 65, 0
8, 14640, Note_on_c, 4, 58, 88
8, 14756, Note_off_c, 4, 58, 0
8, 14760, Note_on_c, 4, 60, 88
8, 15054, Note_off_c, 4, 60, 0
8, 15060, Note_on_c, 4, 57, 88
8, 15118, Note_off_c, 4, 57, 0
8, 15120, Note_on_c, 4, 62, 88
8, 15594, Note_off_c, 4, 62, 0
8, 15600, Note_on_c, 4, 55, 88
8, 15716, Note_off_c, 4, 55, 0
8, 15720, Note_on_c, 4, 57, 88
8, 15895, Note_off_c, 4, 57, 0
8, 15900, Note_on_c, 4, 52, 88
8, 15958, Note_off_c, 4, 52, 0
8, 15960, Note_on_c, 4, 53, 88
8, 16018, Note_off_c, 4, 53, 0
8, 16020, Note_on_c, 4, 57, 88
8, 16078, Note_off_c, 4, 57, 0
8, 16080, Note_on_c, 4, 62, 88
8, 16255, Note_off_c, 4, 62, 0
8, 16260, Note_on_c, 4, 60, 88
8, 16318, Note_off_c, 4, 60, 0
8, 16320, Note_on_c, 4, 59, 88
8, 16436, Note_off_c, 4, 59, 0
8, 16860, Note_on_c, 4, 50, 88
8, 16918, Note_off_c, 4, 50, 0
8, 16920, Note_on_c, 4, 52, 88
8, 16978, Note_off_c, 4, 52, 0
8, 16980, Note_on_c, 4, 54, 88
8, 17038, Note_off_c, 4, 54, 0
8, 17040, Note_on_c, 4, 55, 88
8, 17098, Note_off_c, 4, 55, 0
8, 17100, Note_on_c, 4, 57, 88
8, 17158, Note_off_c, 4, 57, 0
8, 17160, Note_on_c, 4, 58, 88
8, 17338, Note_off_c, 4, 58, 0
8, 17340, Note_on_c, 4, 57, 88
8, 17398, Note_off_c, 4, 57, 0
8, 17400, Note_on_c, 4, 52, 88
8, 17458, Note_off_c, 4, 52, 0
8, 17460, Note_on_c, 4, 55, 88
8, 17518, Note_off_c, 4, 55, 0
8, 17520, Note_on_c, 4, 54, 88
8, 17578, Note_off_c, 4, 54, 0
8, 17580, Note_on_c, 4, 55, 88
8, 17638, Note_off_c, 4, 55, 0
8, 17640, Note_on_c, 4, 57, 88
8, 17815, Note_off_c, 4, 57, 0
8, 17820, Note_on_c, 4, 55, 88
8, 17878, Note_off_c, 4, 55, 0
8, 17880, Note_on_c, 4, 50, 88
8, 17938, Note_off_c, 4, 50, 0
8, 17940, Note_on_c, 4, 53, 88
8, 17998, Note_off_c, 4, 53, 0
8, 18000, Note_on_c, 4, 52, 88
8, 18058, Note_off_c, 4, 52, 0
8, 18060, Note_on_c, 4, 53, 88
8, 18118, Note_off_c, 4, 53, 0
8, 18120, Note_on_c, 4, 55, 88
8, 18298, Note_off_c, 4, 55, 0
8, 18300, Note_on_c, 4, 48, 88
8, 18358, Note_off_c, 4, 48, 0
8, 18360, Note_on_c, 4, 50, 88
8, 18418, Note_off_c, 4, 50, 0
8, 18420, Note_on_c, 4, 52, 88
8, 18478, Note_off_c, 4, 52, 0
8, 18480, Note_on_c, 4, 53, 88
8, 18538, Note_off_c, 4, 53, 0
8, 19560, Note_on_c, 4, 55, 88
8, 20030, Note_off_c, 4, 55, 0
8, 20280, Note_on_c, 4, 57, 88
8, 20692, Note_off_c, 4, 57, 0
8, 20700, Note_on_c, 4, 50, 88
8, 20758, Note_off_c, 4, 50, 0
8, 20760, Note_on_c, 4, 52, 88
8, 20818, Note_off_c, 4, 52, 0
8, 20820, Note_on_c, 4, 54, 88
8, 20878, Note_off_c, 4, 54, 0
8, 20880, Note_on_c, 4, 55, 88
8, 20938, Note_off_c, 4, 55, 0
8, 23220, Note_on_c, 4, 60, 88
8, 23326, Note_off_c, 4, 60, 0
8, 23340, Note_on_c, 4, 60, 88
8, 23398, Note_off_c, 4, 60, 0
8, 23400, Note_on_c, 4, 58, 88
8, 23458, Note_off_c, 4, 58, 0
8, 23460, Note_on_c, 4, 57, 88
8, 23518, Note_off_c, 4, 57, 0
8, 23520, Note_on_c, 4, 58, 88
8, 23990, Note_off_c, 4, 58, 0
8, 24000, Note_on_c, 4, 60, 88
8, 24646, Note_off_c, 4, 60, 0
8, 24660, Note_on_c, 4, 60, 88
8, 24718, Note_off_c, 4, 60, 0
8, 24720, Note_on_c, 4, 59, 88
8, 24836, Note_off_c, 4, 59, 0
8, 24840, Note_on_c, 4, 58, 88
8, 24956, Note_off_c, 4, 58, 0
8, 24960, Note_on_c, 4, 57, 88
8, 25076, Note_off_c, 4, 57, 0
8, 25080, Note_on_c, 4, 55, 88
8, 25196, Note_off_c, 4, 55, 0
8, 25200, Note_on_c, 4, 57, 88
8, 25316, Note_off_c, 4, 57, 0
8, 25320, Note_on_c, 4, 62, 88
8, 25554, Note_off_c, 4, 62, 0
8, 25560, Note_on_c, 4, 63, 88
8, 25676, Note_off_c, 4, 63, 0
8, 25680, Note_on_c, 4, 62, 88
8, 25796, Note_off_c, 4, 62, 0
8, 25800, Note_on_c, 4, 60, 88
8, 25916, Note_off_c, 4, 60, 0
8, 25920, Note_on_c, 4, 58, 88
8, 25978, Note_off_c, 4, 58, 0
8, 25980, Note_on_c, 4, 60, 88
8, 26038, Note_off_c, 4, 60, 0
8, 26040, Note_on_c, 4, 62, 88
8, 26215, Note_off_c, 4, 62, 0
8, 26220, Note_on_c, 4, 61, 88
8, 26278, Note_off_c, 4, 61, 0
8, 26280, Note_on_c, 4, 62, 88
8, 26396, Note_off_c, 4, 62, 0
8, 26460, Note_on_c, 4, 57, 88
8, 26518, Note_off_c, 4, 57, 0
8, 26520, Note_on_c, 4, 59, 88
8, 26578, Note_off_c, 4, 59, 0
8, 26580, Note_on_c, 4, 61, 88
8, 26638, Note_off_c, 4, 61, 0
8, 26640, Note_on_c, 4, 62, 88
8, 26698, Note_off_c, 4, 62, 0
8, 26940, Note_on_c, 4, 55, 88
8, 26998, Note_off_c, 4, 55, 0
8, 27000, Note_on_c, 4, 57, 88
8, 27058, Note_off_c, 4, 57, 0
8, 27060, Note_on_c, 4, 59, 88
8, 27118, Note_off_c, 4, 59, 0
8, 27120, Note_on_c, 4, 60, 88
8, 27178, Note_off_c, 4, 60, 0
8, 27480, Note_on_c, 4, 57, 88
8, 27655, Note_off_c, 4, 57, 0
8, 27660, Note_on_c, 4, 55, 88
8, 27718, Note_off_c, 4, 55, 0
8, 27720, Note_on_c, 4, 50, 88
8, 27778, Note_off_c, 4, 50, 0
8, 27780, Note_on_c, 4, 53, 88
8, 27838, Note_off_c, 4, 53, 0
8, 27840, Note_on_c, 4, 52, 88
8, 27898, Note_off_c, 4, 52, 0
8, 27900, Note_on_c, 4, 53, 88
8, 27958, Note_off_c, 4, 53, 0
8, 27960, Note_on_c, 4, 55, 88
8, 28135, Note_off_c, 4, 55, 0
8, 28620, Note_on_c, 4, 57, 88
8, 28678, Note_off_c, 4, 57, 0
8, 28680, Note_on_c, 4, 62, 88
8, 29034, Note_off_c, 4, 62, 0
8, 29040, Note_on_c, 4, 64, 88
8, 29334, Note_off_c, 4, 64, 0
8, 29340, Note_on_c, 4, 52, 88
8, 29398, Note_off_c, 4, 52, 0
8, 29400, Note_on_c, 4, 50, 88
8, 29458, Note_off_c, 4, 50, 0
8, 29460, Note_on_c, 4, 48, 88
8, 29518, Note_off_c, 4, 48, 0
8, 29520, Note_on_c, 4, 55, 88
8, 30350, Note_off_c, 4, 55, 0
8, 30360, Note_on_c, 4, 53, 88
8, 30418, Note_off_c, 4, 53, 0
8, 30420, Note_on_c, 4, 52, 88
8, 30478, Note_off_c, 4, 52, 0
8, 30480, Note_on_c, 4, 50, 88
8, 30538, Note_off_c, 4, 50, 0
8, 30540, Note_on_c, 4, 52, 88
8, 30598, Note_off_c, 4, 52, 0
8, 30600, Note_on_c, 4, 53, 88
8, 30836, Note_off_c, 4, 53, 0
8, 30840, Note_on_c, 4, 52, 88
8, 30898, Note_off_c, 4, 52, 0
8, 30900, Note_on_c, 4, 50, 88
8, 30958, Note_off_c, 4, 50, 0
8, 30960, Note_on_c, 4, 52, 88
8, 31194, Note_off_c, 4, 52, 0
8, 31200, Note_on_c, 4, 53, 88
8, 31316, Note_off_c, 4, 53, 0
8, 31320, Note_on_c, 4, 52, 88
8, 31436, Note_off_c, 4, 52, 0
8, 31440, Note_on_c, 4, 50, 88
8, 31674, Note_off_c, 4, 50, 0
8, 31680, Note_on_c, 4, 55, 88
8, 32625, Note_off_c, 4, 55, 0
8, 32625, End_track
9, 0, Start_track
9, 0, Title_t, "Track 6"
9, 0, Program_c, 5, 6
9, 0, Note_on_c, 5, 36, 88
9, 2154, Note_off_c, 5, 36, 0
9, 2220, Note_on_c, 5, 53, 88
9, 2278, Note_off_c, 5, 53, 0
9, 2280, Note_on_c, 5, 52, 88
9, 2338, Note_off_c, 5, 52, 0
9, 2340, Note_on_c, 5, 50, 88
9, 2398, Note_off_c, 5, 50, 0
9, 2400, Note_on_c, 5, 48, 88
9, 2429, Note_off_c, 5, 48, 0
9, 2430, Note_on_c, 5, 50, 88
9, 2459, Note_off_c, 5, 50, 0
9, 2460, Note_on_c, 5, 48, 88
9, 2489, Note_off_c, 5, 48, 0
9, 2490, Note_on_c, 5, 47, 88
9, 2519, Note_off_c, 5, 47, 0
9, 2520, Note_on_c, 5, 48, 88
9, 2578, Note_off_c, 5, 48, 0
9, 2580, Note_on_c, 5, 52, 88
9, 2638, Note_off_c, 5, 52, 0
9, 2640, Note_on_c, 5, 43, 88
9, 2698, Note_off_c, 5, 43, 0
9, 2700, Note_on_c, 5, 46, 88
9, 2758, Note_off_c, 5, 46, 0
9, 2760, Note_on_c, 5, 45, 88
9, 2818, Note_off_c, 5, 45, 0
9, 2820, Note_on_c, 5, 43, 88
9, 2878, Note_off_c, 5, 43, 0
9, 2880, Note_on_c, 5, 41, 88
9, 3588, Note_off_c, 5, 41, 0
9, 3600, Note_on_c, 5, 40, 88
9, 3716, Note_off_c, 5, 40, 0
9, 3720, Note_on_c, 5, 45, 88
9, 3836, Note_off_c, 5, 45, 0
9, 3840, Note_on_c, 5, 38, 88
9, 4074, Note_off_c, 5, 38, 0
9, 4080, Note_on_c, 5, 43, 88
9, 4314, Note_off_c, 5, 43, 0
9, 4320, Note_on_c, 5, 36, 88
9, 4378, Note_off_c, 5, 36, 0
9, 4380, Note_on_c, 5, 43, 88
9, 4438, Note_off_c, 5, 43, 0
9, 4440, Note_on_c, 5, 45, 88
9, 4498, Note_off_c, 5, 45, 0
9, 4500, Note_on_c, 5, 47, 88
9, 4558, Note_off_c, 5, 47, 0
9, 4560, Note_on_c, 5, 48, 88
9, 4618, Note_off_c, 5, 48, 0
9, 4620, Note_on_c, 5, 52, 88
9, 4678, Note_off_c, 5, 52, 0
9, 4680, Note_on_c, 5, 45, 88
9, 4738, Note_off_c, 5, 45, 0
9, 4740, Note_on_c, 5, 48, 88
9, 4798, Note_off_c, 5, 48, 0
9, 4800, Note_on_c, 5, 42, 88
9, 4916, Note_off_c, 5, 42, 0
9, 4920, Note_on_c, 5, 38, 88
9, 5036, Note_off_c, 5, 38, 0
9, 5040, Note_on_c, 5, 43, 88
9, 5334, Note_off_c, 5, 43, 0
9, 5340, Note_on_c, 5, 45, 88
9, 5369, Note_off_c, 5, 45, 0
9, 5370, Note_on_c, 5, 47, 88
9, 5399, Note_off_c, 5, 47, 0
9, 5400, Note_on_c, 5, 48, 88
9, 5429, Note_off_c, 5, 48, 0
9, 5430, Note_on_c, 5, 50, 88
9, 5459, Note_off_c, 5, 50, 0
9, 5460, Note_on_c, 5, 52, 88
9, 5518, Note_off_c, 5, 52, 0
9, 5520, Note_on_c, 5, 42, 88
9, 5754, Note_off_c, 5, 42, 0
9, 5760, Note_on_c, 5, 43, 88
9, 6113, Note_off_c, 5, 43, 0
9, 6120, Note_on_c, 5, 41, 88
9, 6236, Note_off_c, 5, 41, 0
9, 6240, Note_on_c, 5, 40, 88
9, 6356, Note_off_c, 5, 40, 0
9, 6360, Note_on_c, 5, 43, 88
9, 6476, Note_off_c, 5, 43, 0
9, 6480, Note_on_c, 5, 45, 88
9, 6596, Note_off_c, 5, 45, 0
9, 6600, Note_on_c, 5, 49, 88
9, 6716, Note_off_c, 5, 49, 0
9, 6720, Note_on_c, 5, 38, 88
9, 7014, Note_off_c, 5, 38, 0
9, 7020, Note_on_c, 5, 53, 88
9, 7078, Note_off_c, 5, 53, 0
9, 7080, Note_on_c, 5, 47, 88
9, 7138, Note_off_c, 5, 47, 0
9, 7140, Note_on_c, 5, 50, 88
9, 7198, Note_off_c, 5, 50, 0
9, 7200, Note_on_c, 5, 44, 88
9, 7316, Note_off_c, 5, 44, 0
9, 7320, Note_on_c, 5, 40, 88
9, 7436, Note_off_c, 5, 40, 0
9, 7440, Note_on_c, 5, 45, 88
9, 7556, Note_off_c, 5, 45, 0
9, 7560, Note_on_c, 5, 43, 88
9, 7676, Note_off_c, 5, 43, 0
9, 7680, Note_on_c, 5, 41, 88
9, 7796, Note_off_c, 5, 41, 0
9, 7800, Note_on_c, 5, 40, 88
9, 7916, Note_off_c, 5, 40, 0
9, 7920, Note_on_c, 5, 41, 88
9, 8036, Note_off_c, 5, 41, 0
9, 8040, Note_on_c, 5, 38, 88
9, 8156, Note_off_c, 5, 38, 0
9, 8160, Note_on_c, 5, 40, 88
9, 8698, Note_off_c, 5, 40, 0
9, 8700, Note_on_c, 5, 47, 88
9, 8758, Note_off_c, 5, 47, 0
9, 8760, Note_on_c, 5, 48, 88
9, 8818, Note_off_c, 5, 48, 0
9, 8820, Note_on_c, 5, 50, 88
9, 8878, Note_off_c, 5, 50, 0
9, 8880, Note_on_c, 5, 52, 88
9, 8938, Note_off_c, 5, 52, 0
9, 8940, Note_on_c, 5, 55, 88
9, 8998, Note_off_c, 5, 55, 0
9, 9000, Note_on_c, 5, 47, 88
9, 9058, Note_off_c, 5, 47, 0
9, 9060, Note_on_c, 5, 50, 88
9, 9118, Note_off_c, 5, 50, 0
9, 9120, Note_on_c, 5, 49, 88
9, 9178, Note_off_c, 5, 49, 0
9, 9180, Note_on_c, 5, 52, 88
9, 9238, Note_off_c, 5, 52, 0
9, 9240, Note_on_c, 5, 45, 88
9, 9356, Note_off_c, 5, 45, 0
9, 9360, Note_on_c, 5, 50, 88
9, 9716, Note_off_c, 5, 50, 0
9, 9720, Note_on_c, 5, 45, 88
9, 9836, Note_off_c, 5, 45, 0
9, 9840, Note_on_c, 5, 46, 88
9, 9956, Note_off_c, 5, 46, 0
9, 9960, Note_on_c, 5, 50, 88
9, 10076, Note_off_c, 5, 50, 0
9, 10080, Note_on_c, 5, 43, 88
9, 10550, Note_off_c, 5, 43, 0
9, 10560, Note_on_c, 5, 45, 88
9, 11266, Note_off_c, 5, 45, 0
9, 11280, Note_on_c, 5, 45, 88
9, 11514, Note_off_c, 5, 45, 0
9, 11520, Note_on_c, 5, 50, 88
9, 12169, Note_off_c, 5, 50, 0
9, 12180, Note_on_c, 5, 48, 88
9, 12238, Note_off_c, 5, 48, 0
9, 12240, Note_on_c, 5, 47, 88
9, 12415, Note_off_c, 5, 47, 0
9, 12420, Note_on_c, 5, 45, 88
9, 12478, Note_off_c, 5, 45, 0
9, 12480, Note_on_c, 5, 44, 88
9, 12596, Note_off_c, 5, 44, 0
9, 12780, Note_on_c, 5, 48, 88
9, 12838, Note_off_c, 5, 48, 0
9, 12840, Note_on_c, 5, 53, 88
9, 12898, Note_off_c, 5, 53, 0
9, 12900, Note_on_c, 5, 52, 88
9, 12958, Note_off_c, 5, 52, 0
9, 12960, Note_on_c, 5, 53, 88
9, 13254, Note_off_c, 5, 53, 0
9, 13260, Note_on_c, 5, 52, 88
9, 13318, Note_off_c, 5, 52, 0
9, 13320, Note_on_c, 5, 53, 88
9, 13378, Note_off_c, 5, 53, 0
9, 13380, Note_on_c, 5, 50, 88
9, 13438, Note_off_c, 5, 50, 0
9, 13440, Note_on_c, 5, 58, 88
9, 13971, Note_off_c, 5, 58, 0
9, 13980, Note_on_c, 5, 57, 88
9, 14038, Note_off_c, 5, 57, 0
9, 14040, Note_on_c, 5, 55, 88
9, 14098, Note_off_c, 5, 55, 0
9, 14100, Note_on_c, 5, 58, 88
9, 14158, Note_off_c, 5, 58, 0
9, 14160, Note_on_c, 5, 57, 88
9, 14458, Note_off_c, 5, 57, 0
9, 14460, Note_on_c, 5, 55, 88
9, 14518, Note_off_c, 5, 55, 0
9, 14520, Note_on_c, 5, 53, 88
9, 14578, Note_off_c, 5, 53, 0
9, 14580, Note_on_c, 5, 57, 88
9, 14638, Note_off_c, 5, 57, 0
9, 14640, Note_on_c, 5, 55, 88
9, 14746, Note_off_c, 5, 55, 0
9, 14760, Note_on_c, 5, 48, 88
9, 14760, Note_on_c, 5, 55, 88
9, 14876, Note_off_c, 5, 48, 0
9, 14876, Note_off_c, 5, 55, 0
9, 14880, Note_on_c, 5, 53, 88
9, 15406, Note_off_c, 5, 53, 0
9, 15420, Note_on_c, 5, 53, 88
9, 15478, Note_off_c, 5, 53, 0
9, 15480, Note_on_c, 5, 52, 88
9, 15538, Note_off_c, 5, 52, 0
9, 15540, Note_on_c, 5, 50, 88
9, 15598, Note_off_c, 5, 50, 0
9, 15600, Note_on_c, 5, 52, 88
9, 15716, Note_off_c, 5, 52, 0
9, 15720, Note_on_c, 5, 45, 88
9, 15836, Note_off_c, 5, 45, 0
9, 15840, Note_on_c, 5, 50, 88
9, 16366, Note_off_c, 5, 50, 0
9, 16380, Note_on_c, 5, 50, 88
9, 16438, Note_off_c, 5, 50, 0
9, 16440, Note_on_c, 5, 48, 88
9, 16498, Note_off_c, 5, 48, 0
9, 16500, Note_on_c, 5, 47, 88
9, 16558, Note_off_c, 5, 47, 0
9, 16560, Note_on_c, 5, 48, 88
9, 16676, Note_off_c, 5, 48, 0
9, 16680, Note_on_c, 5, 53, 88
9, 16796, Note_off_c, 5, 53, 0
9, 16800, Note_on_c, 5, 46, 88
9, 17212, Note_off_c, 5, 46, 0
9, 17220, Note_on_c, 5, 51, 88
9, 17278, Note_off_c, 5, 51, 0
9, 17280, Note_on_c, 5, 45, 88
9, 17692, Note_off_c, 5, 45, 0
9, 17700, Note_on_c, 5, 54, 88
9, 17758, Note_off_c, 5, 54, 0
9, 17760, Note_on_c, 5, 43, 88
9, 18172, Note_off_c, 5, 43, 0
9, 18180, Note_on_c, 5, 52, 88
9, 18238, Note_off_c, 5, 52, 0
9, 18240, Note_on_c, 5, 41, 88
9, 18534, Note_off_c, 5, 41, 0
9, 18540, Note_on_c, 5, 57, 88
9, 18598, Note_off_c, 5, 57, 0
9, 18600, Note_on_c, 5, 50, 88
9, 18658, Note_off_c, 5, 50, 0
9, 18660, Note_on_c, 5, 53, 88
9, 18718, Note_off_c, 5, 53, 0
9, 18720, Note_on_c, 5, 47, 88
9, 18836, Note_off_c, 5, 47, 0
9, 18840, Note_on_c, 5, 43, 88
9, 18956, Note_off_c, 5, 43, 0
9, 18960, Note_on_c, 5, 48, 88
9, 19258, Note_off_c, 5, 48, 0
9, 19260, Note_on_c, 5, 50, 88
9, 19289, Note_off_c, 5, 50, 0
9, 19290, Note_on_c, 5, 52, 88
9, 19319, Note_off_c, 5, 52, 0
9, 19320, Note_on_c, 5, 53, 88
9, 19349, Note_off_c, 5, 53, 0
9, 19350, Note_on_c, 5, 55, 88
9, 19379, Note_off_c, 5, 55, 0
9, 19380, Note_on_c, 5, 57, 88
9, 19438, Note_off_c, 5, 57, 0
9, 19440, Note_on_c, 5, 47, 88
9, 19674, Note_off_c, 5, 47, 0
9, 19680, Note_on_c, 5, 48, 88
9, 20033, Note_off_c, 5, 48, 0
9, 20040, Note_on_c, 5, 47, 88
9, 20156, Note_off_c, 5, 47, 0
9, 20160, Note_on_c, 5, 45, 88
9, 20276, Note_off_c, 5, 45, 0
9, 20280, Note_on_c, 5, 48, 88
9, 20396, Note_off_c, 5, 48, 0
9, 20400, Note_on_c, 5, 50, 88
9, 20516, Note_off_c, 5, 50, 0
9, 20520, Note_on_c, 5, 54, 88
9, 20636, Note_off_c, 5, 54, 0
9, 20640, Note_on_c, 5, 43, 88
9, 20934, Note_off_c, 5, 43, 0
9, 20940, Note_on_c, 5, 59, 88
9, 20998, Note_off_c, 5, 59, 0
9, 21000, Note_on_c, 5, 52, 88
9, 21058, Note_off_c, 5, 52, 0
9, 21060, Note_on_c, 5, 55, 88
9, 21118, Note_off_c, 5, 55, 0
9, 21120, Note_on_c, 5, 49, 88
9, 21236, Note_off_c, 5, 49, 0
9, 21240, Note_on_c, 5, 45, 88
9, 21356, Note_off_c, 5, 45, 0
9, 21360, Note_on_c, 5, 50, 88
9, 21476, Note_off_c, 5, 50, 0
9, 21480, Note_on_c, 5, 48, 88
9, 21596, Note_off_c, 5, 48, 0
9, 21600, Note_on_c, 5, 46, 88
9, 21716, Note_off_c, 5, 46, 0
9, 21720, Note_on_c, 5, 45, 88
9, 21836, Note_off_c, 5, 45, 0
9, 21840, Note_on_c, 5, 46, 88
9, 21956, Note_off_c, 5, 46, 0
9, 21960, Note_on_c, 5, 43, 88
9, 22076, Note_off_c, 5, 43, 0
9, 22080, Note_on_c, 5, 45, 88
9, 22611, Note_off_c, 5, 45, 0
9, 22620, Note_on_c, 5, 52, 88
9, 22678, Note_off_c, 5, 52, 0
9, 22680, Note_on_c, 5, 53, 88
9, 22738, Note_off_c, 5, 53, 0
9, 22740, Note_on_c, 5, 55, 88
9, 22798, Note_off_c, 5, 55, 0
9, 22800, Note_on_c, 5, 57, 88
9, 22858, Note_off_c, 5, 57, 0
9, 22860, Note_on_c, 5, 60, 88
9, 22918, Note_off_c, 5, 60, 0
9, 22920, Note_on_c, 5, 52, 88
9, 22978, Note_off_c, 5, 52, 0
9, 22980, Note_on_c, 5, 55, 88
9, 23038, Note_off_c, 5, 55, 0
9, 23040, Note_on_c, 5, 54, 88
9, 23098, Note_off_c, 5, 54, 0
9, 23100, Note_on_c, 5, 57, 88
9, 23158, Note_off_c, 5, 57, 0
9, 23160, Note_on_c, 5, 50, 88
9, 23276, Note_off_c, 5, 50, 0
9, 23280, Note_on_c, 5, 55, 88
9, 23633, Note_off_c, 5, 55, 0
9, 23640, Note_on_c, 5, 50, 88
9, 23756, Note_off_c, 5, 50, 0
9, 23760, Note_on_c, 5, 51, 88
9, 23876, Note_off_c, 5, 51, 0
9, 23880, Note_on_c, 5, 55, 88
9, 23996, Note_off_c, 5, 55, 0
9, 24000, Note_on_c, 5, 48, 88
9, 24470, Note_off_c, 5, 48, 0
9, 24480, Note_on_c, 5, 50, 88
9, 25186, Note_off_c, 5, 50, 0
9, 25200, Note_on_c, 5, 50, 88
9, 25434, Note_off_c, 5, 50, 0
9, 25440, Note_on_c, 5, 55, 88
9, 26095, Note_off_c, 5, 55, 0
9, 26100, Note_on_c, 5, 53, 88
9, 26158, Note_off_c, 5, 53, 0
9, 26160, Note_on_c, 5, 52, 88
9, 26335, Note_off_c, 5, 52, 0
9, 26340, Note_on_c, 5, 50, 88
9, 26398, Note_off_c, 5, 50, 0
9, 26400, Note_on_c, 5, 49, 88
9, 26516, Note_off_c, 5, 49, 0
9, 26700, Note_on_c, 5, 57, 88
9, 26758, Note_off_c, 5, 57, 0
9, 26760, Note_on_c, 5, 50, 88
9, 26818, Note_off_c, 5, 50, 0
9, 26820, Note_on_c, 5, 53, 88
9, 26878, Note_off_c, 5, 53, 0
9, 26880, Note_on_c, 5, 47, 88
9, 26996, Note_off_c, 5, 47, 0
9, 27180, Note_on_c, 5, 55, 88
9, 27238, Note_off_c, 5, 55, 0
9, 27240, Note_on_c, 5, 48, 88
9, 27298, Note_off_c, 5, 48, 0
9, 27300, Note_on_c, 5, 52, 88
9, 27358, Note_off_c, 5, 52, 0
9, 27360, Note_on_c, 5, 45, 88
9, 27594, Note_off_c, 5, 45, 0
9, 27600, Note_on_c, 5, 47, 88
9, 27834, Note_off_c, 5, 47, 0
9, 27840, Note_on_c, 5, 48, 88
9, 28134, Note_off_c, 5, 48, 0
9, 28140, Note_on_c, 5, 52, 88
9, 28198, Note_off_c, 5, 52, 0
9, 28200, Note_on_c, 5, 45, 88
9, 28258, Note_off_c, 5, 45, 0
9, 28260, Note_on_c, 5, 48, 88
9, 28318, Note_off_c, 5, 48, 0
9, 28320, Note_on_c, 5, 41, 88
9, 28378, Note_off_c, 5, 41, 0
9, 28380, Note_on_c, 5, 48, 88
9, 28438, Note_off_c, 5, 48, 0
9, 28440, Note_on_c, 5, 50, 88
9, 28498, Note_off_c, 5, 50, 0
9, 28500, Note_on_c, 5, 52, 88
9, 28558, Note_off_c, 5, 52, 0
9, 28560, Note_on_c, 5, 53, 88
9, 28858, Note_off_c, 5, 53, 0
9, 28860, Note_on_c, 5, 57, 88
9, 28918, Note_off_c, 5, 57, 0
9, 28920, Note_on_c, 5, 55, 88
9, 28978, Note_off_c, 5, 55, 0
9, 28980, Note_on_c, 5, 53, 88
9, 29038, Note_off_c, 5, 53, 0
9, 29040, Note_on_c, 5, 52, 88
9, 29098, Note_off_c, 5, 52, 0
9, 29100, Note_on_c, 5, 55, 88
9, 29158, Note_off_c, 5, 55, 0
9, 29160, Note_on_c, 5, 48, 88
9, 29218, Note_off_c, 5, 48, 0
9, 29220, Note_on_c, 5, 52, 88
9, 29278, Note_off_c, 5, 52, 0
9, 29280, Note_on_c, 5, 43, 88
9, 29750, Note_off_c, 5, 43, 0
9, 29760, Note_on_c, 5, 48, 88
9, 32625, Note_off_c, 5, 48, 0
9, 32625, End_track
0, 0, End_of_file
