0, 0, Header, 1, 7, 240
1, 0, Start_track
1, 0, Time_signature, 4, 2, 24, 8
1, 0, Tempo, 857142
1, 0, SMPTE_offset, 64, 0, 0, 0, 102
1, 11520, Time_signature, 4, 2, 24, 8
1, 11520, End_track
2, 0, Start_track
2, 0, Title_t, "(C) & (P) 1993"
2, 127, End_track
3, 0, Start_track
3, 0, Title_t, "CCARH,Stanford"
3, 0, End_track
4, 0, Start_track
4, 0, Title_t, "Track 1"
4, 0, Program_c, 0, 6
4, 60, Note_on_c, 0, 67, 88
4, 118, Note_off_c, 0, 67, 0
4, 120, Note_on_c, 0, 65, 88
4, 178, Note_off_c, 0, 65, 0
4, 180, Note_on_c, 0, 67, 88
4, 238, Note_off_c, 0, 67, 0
4, 240, Note_on_c, 0, 68, 88
4, 298, Note_off_c, 0, 68, 0
4, 300, Note_on_c, 0, 65, 88
4, 358, Note_off_c, 0, 65, 0
4, 360, Note_on_c, 0, 63, 88
4, 418, Note_off_c, 0, 63, 0
4, 420, Note_on_c, 0, 65, 88
4, 478, Note_off_c, 0, 65, 0
4, 480, Note_on_c, 0, 67, 88
4, 538, Note_off_c, 0, 67, 0
4, 540, Note_on_c, 0, 63, 88
4, 598, Note_off_c, 0, 63, 0
4, 600, Note_on_c, 0, 62, 88
4, 658, Note_off_c, 0, 62, 0
4, 660, Note_on_c, 0, 63, 88
4, 718, Note_off_c, 0, 63, 0
4, 720, Note_on_c, 0, 65, 88
4, 778, Note_off_c, 0, 65, 0
4, 780, Note_on_c, 0, 62, 88
4, 838, Note_off_c, 0, 62, 0
4, 840, Note_on_c, 0, 60, 88
4, 898, Note_off_c, 0, 60, 0
4, 900, Note_on_c, 0, 62, 88
4, 958, Note_off_c, 0, 62, 0
4, 960, Note_on_c, 0, 63, 88
4, 1076, Note_off_c, 0, 63, 0
4, 1080, Note_on_c, 0, 72, 88
4, 1196, Note_off_c, 0, 72, 0
4, 1200, Note_on_c, 0, 65, 88
4, 1316, Note_off_c, 0, 65, 0
4, 1320, Note_on_c, 0, 72, 88
4, 1436, Note_off_c, 0, 72, 0
4, 1440, Note_on_c, 0, 63, 88
4, 1556, Note_off_c, 0, 63, 0
4, 1560, Note_on_c, 0, 72, 88
4, 1676, Note_off_c, 0, 72, 0
4, 1680, Note_on_c, 0, 62, 88
4, 1796, Note_off_c, 0, 62, 0
4, 1800, Note_on_c, 0, 71, 88
4, 1916, Note_off_c, 0, 71, 0
4, 1920, Note_on_c, 0, 60, 88
4, 1978, Note_off_c, 0, 60, 0
4, 1980, Note_on_c, 0, 63, 88
4, 2038, Note_off_c, 0, 63, 0
4, 2040, Note_on_c, 0, 67, 88
4, 2098, Note_off_c, 0, 67, 0
4, 2100, Note_on_c, 0, 72, 88
4, 2158, Note_off_c, 0, 72, 0
4, 2160, Note_on_c, 0, 62, 88
4, 2218, Note_off_c, 0, 62, 0
4, 2220, Note_on_c, 0, 72, 88
4, 2278, Note_off_c, 0, 72, 0
4, 2280, Note_on_c, 0, 71, 88
4, 2338, Note_off_c, 0, 71, 0
4, 2340, Note_on_c, 0, 69, 88
4, 2398, Note_off_c, 0, 69, 0
4, 2400, Note_on_c, 0, 62, 88
4, 2458, Note_off_c, 0, 62, 0
4, 2460, Note_on_c, 0, 67, 88
4, 2518, Note_off_c, 0, 67, 0
4, 2520, Note_on_c, 0, 71, 88
4, 2578, Note_off_c, 0, 71, 0
4, 2580, Note_on_c, 0, 74, 88
4, 2638, Note_off_c, 0, 74, 0
4, 2640, Note_on_c, 0, 63, 88
4, 2698, Note_off_c, 0, 63, 0
4, 2700, Note_on_c, 0, 74, 88
4, 2758, Note_off_c, 0, 74, 0
4, 2760, Note_on_c, 0, 72, 88
4, 2818, Note_off_c, 0, 72, 0
4, 2820, Note_on_c, 0, 71, 88
4, 2878, Note_off_c, 0, 71, 0
4, 2880, Note_on_c, 0, 63, 88
4, 2938, Note_off_c, 0, 63, 0
4, 2940, Note_on_c, 0, 68, 88
4, 2998, Note_off_c, 0, 68, 0
4, 3000, Note_on_c, 0, 72, 88
4, 3058, Note_off_c, 0, 72, 0
4, 3060, Note_on_c, 0, 75, 88
4, 3118, Note_off_c, 0, 75, 0
4, 3120, Note_on_c, 0, 65, 88
4, 3178, Note_off_c, 0, 65, 0
4, 3180, Note_on_c, 0, 75, 88
4, 3238, Note_off_c, 0, 75, 0
4, 3240, Note_on_c, 0, 74, 88
4, 3298, Note_off_c, 0, 74, 0
4, 3300, Note_on_c, 0, 72, 88
4, 3358, Note_off_c, 0, 72, 0
4, 3360, Note_on_c, 0, 65, 88
4, 3418, Note_off_c, 0, 65, 0
4, 3420, Note_on_c, 0, 70, 88
4, 3478, Note_off_c, 0, 70, 0
4, 3480, Note_on_c, 0, 74, 88
4, 3538, Note_off_c, 0, 74, 0
4, 3540, Note_on_c, 0, 77, 88
4, 3598, Note_off_c, 0, 77, 0
4, 3600, Note_on_c, 0, 67, 88
4, 3658, Note_off_c, 0, 67, 0
4, 3660, Note_on_c, 0, 77, 88
4, 3718, Note_off_c, 0, 77, 0
4, 3720, Note_on_c, 0, 75, 88
4, 3778, Note_off_c, 0, 75, 0
4, 3780, Note_on_c, 0, 74, 88
4, 3838, Note_off_c, 0, 74, 0
4, 3840, Note_on_c, 0, 75, 88
4, 3898, Note_off_c, 0, 75, 0
4, 3900, Note_on_c, 0, 72, 88
4, 3958, Note_off_c, 0, 72, 0
4, 3960, Note_on_c, 0, 70, 88
4, 4018, Note_off_c, 0, 70, 0
4, 4020, Note_on_c, 0, 72, 88
4, 4078, Note_off_c, 0, 72, 0
4, 4080, Note_on_c, 0, 74, 88
4, 4138, Note_off_c, 0, 74, 0
4, 4140, Note_on_c, 0, 70, 88
4, 4198, Note_off_c, 0, 70, 0
4, 4200, Note_on_c, 0, 68, 88
4, 4258, Note_off_c, 0, 68, 0
4, 4260, Note_on_c, 0, 70, 88
4, 4318, Note_off_c, 0, 70, 0
4, 4320, Note_on_c, 0, 72, 88
4, 4378, Note_off_c, 0, 72, 0
4, 4380, Note_on_c, 0, 70, 88
4, 4438, Note_off_c, 0, 70, 0
4, 4440, Note_on_c, 0, 68, 88
4, 4498, Note_off_c, 0, 68, 0
4, 4500, Note_on_c, 0, 67, 88
4, 4558, Note_off_c, 0, 67, 0
4, 4560, Note_on_c, 0, 65, 88
4, 4618, Note_off_c, 0, 65, 0
4, 4800, Note_on_c, 0, 74, 88
4, 4858, Note_off_c, 0, 74, 0
4, 4860, Note_on_c, 0, 70, 88
4, 4918, Note_off_c, 0, 70, 0
4, 4920, Note_on_c, 0, 68, 88
4, 4978, Note_off_c, 0, 68, 0
4, 4980, Note_on_c, 0, 70, 88
4, 5038, Note_off_c, 0, 70, 0
4, 5040, Note_on_c, 0, 72, 88
4, 5098, Note_off_c, 0, 72, 0
4, 5100, Note_on_c, 0, 68, 88
4, 5158, Note_off_c, 0, 68, 0
4, 5160, Note_on_c, 0, 67, 88
4, 5218, Note_off_c, 0, 67, 0
4, 5220, Note_on_c, 0, 68, 88
4, 5278, Note_off_c, 0, 68, 0
4, 5280, Note_on_c, 0, 70, 88
4, 5338, Note_off_c, 0, 70, 0
4, 5340, Note_on_c, 0, 68, 88
4, 5398, Note_off_c, 0, 68, 0
4, 5400, Note_on_c, 0, 67, 88
4, 5458, Note_off_c, 0, 67, 0
4, 5460, Note_on_c, 0, 65, 88
4, 5518, Note_off_c, 0, 65, 0
4, 5520, Note_on_c, 0, 63, 88
4, 5578, Note_off_c, 0, 63, 0
4, 5760, Note_on_c, 0, 72, 88
4, 5818, Note_off_c, 0, 72, 0
4, 5820, Note_on_c, 0, 68, 88
4, 5878, Note_off_c, 0, 68, 0
4, 5880, Note_on_c, 0, 67, 88
4, 5938, Note_off_c, 0, 67, 0
4, 5940, Note_on_c, 0, 68, 88
4, 5998, Note_off_c, 0, 68, 0
4, 6000, Note_on_c, 0, 70, 88
4, 6058, Note_off_c, 0, 70, 0
4, 6060, Note_on_c, 0, 67, 88
4, 6118, Note_off_c, 0, 67, 0
4, 6120, Note_on_c, 0, 65, 88
4, 6178, Note_off_c, 0, 65, 0
4, 6180, Note_on_c, 0, 67, 88
4, 6238, Note_off_c, 0, 67, 0
4, 6240, Note_on_c, 0, 68, 88
4, 6298, Note_off_c, 0, 68, 0
4, 6300, Note_on_c, 0, 65, 88
4, 6358, Note_off_c, 0, 65, 0
4, 6360, Note_on_c, 0, 63, 88
4, 6418, Note_off_c, 0, 63, 0
4, 6420, Note_on_c, 0, 65, 88
4, 6478, Note_off_c, 0, 65, 0
4, 6480, Note_on_c, 0, 68, 88
4, 6495, Note_on_c, 0, 67, 88
4, 6495, Note_off_c, 0, 68, 0
4, 6524, Note_off_c, 0, 67, 0
4, 6525, Note_on_c, 0, 68, 88
4, 6583, Note_off_c, 0, 68, 0
4, 6600, Note_on_c, 0, 68, 88
4, 6716, Note_off_c, 0, 68, 0
4, 6720, Note_on_c, 0, 68, 88
4, 6778, Note_off_c, 0, 68, 0
4, 6780, Note_on_c, 0, 67, 88
4, 6838, Note_off_c, 0, 67, 0
4, 6840, Note_on_c, 0, 65, 88
4, 6898, Note_off_c, 0, 65, 0
4, 6900, Note_on_c, 0, 67, 88
4, 6958, Note_off_c, 0, 67, 0
4, 6960, Note_on_c, 0, 68, 88
4, 6975, Note_on_c, 0, 67, 88
4, 6975, Note_off_c, 0, 68, 0
4, 7004, Note_off_c, 0, 67, 0
4, 7005, Note_on_c, 0, 68, 88
4, 7063, Note_off_c, 0, 68, 0
4, 7080, Note_on_c, 0, 68, 88
4, 7183, Note_off_c, 0, 68, 0
4, 7200, Note_on_c, 0, 68, 88
4, 7258, Note_off_c, 0, 68, 0
4, 7260, Note_on_c, 0, 74, 88
4, 7318, Note_off_c, 0, 74, 0
4, 7320, Note_on_c, 0, 77, 88
4, 7378, Note_off_c, 0, 77, 0
4, 7380, Note_on_c, 0, 75, 88
4, 7438, Note_off_c, 0, 75, 0
4, 7440, Note_on_c, 0, 74, 88
4, 7498, Note_off_c, 0, 74, 0
4, 7500, Note_on_c, 0, 72, 88
4, 7558, Note_off_c, 0, 72, 0
4, 7560, Note_on_c, 0, 70, 88
4, 7618, Note_off_c, 0, 70, 0
4, 7620, Note_on_c, 0, 68, 88
4, 7678, Note_off_c, 0, 68, 0
4, 7680, Note_on_c, 0, 67, 88
4, 7738, Note_off_c, 0, 67, 0
4, 7740, Note_on_c, 0, 70, 88
4, 7798, Note_off_c, 0, 70, 0
4, 7800, Note_on_c, 0, 75, 88
4, 7858, Note_off_c, 0, 75, 0
4, 7860, Note_on_c, 0, 67, 88
4, 7918, Note_off_c, 0, 67, 0
4, 7920, Note_on_c, 0, 65, 88
4, 7978, Note_off_c, 0, 65, 0
4, 7980, Note_on_c, 0, 75, 88
4, 8038, Note_off_c, 0, 75, 0
4, 8040, Note_on_c, 0, 65, 88
4, 8098, Note_off_c, 0, 65, 0
4, 8100, Note_on_c, 0, 74, 88
4, 8158, Note_off_c, 0, 74, 0
4, 8160, Note_on_c, 0, 75, 88
4, 8218, Note_off_c, 0, 75, 0
4, 8220, Note_on_c, 0, 70, 88
4, 8278, Note_off_c, 0, 70, 0
4, 8280, Note_on_c, 0, 68, 88
4, 8338, Note_off_c, 0, 68, 0
4, 8340, Note_on_c, 0, 70, 88
4, 8398, Note_off_c, 0, 70, 0
4, 8400, Note_on_c, 0, 72, 88
4, 8458, Note_off_c, 0, 72, 0
4, 8460, Note_on_c, 0, 68, 88
4, 8518, Note_off_c, 0, 68, 0
4, 8520, Note_on_c, 0, 67, 88
4, 8578, Note_off_c, 0, 67, 0
4, 8580, Note_on_c, 0, 68, 88
4, 8638, Note_off_c, 0, 68, 0
4, 8640, Note_on_c, 0, 70, 88
4, 8698, Note_off_c, 0, 70, 0
4, 8700, Note_on_c, 0, 67, 88
4, 8758, Note_off_c, 0, 67, 0
4, 8760, Note_on_c, 0, 65, 88
4, 8818, Note_off_c, 0, 65, 0
4, 8820, Note_on_c, 0, 67, 88
4, 8878, Note_off_c, 0, 67, 0
4, 8880, Note_on_c, 0, 68, 88
4, 8938, Note_off_c, 0, 68, 0
4, 8940, Note_on_c, 0, 65, 88
4, 8998, Note_off_c, 0, 65, 0
4, 9000, Note_on_c, 0, 63, 88
4, 9058, Note_off_c, 0, 63, 0
4, 9060, Note_on_c, 0, 65, 88
4, 9118, Note_off_c, 0, 65, 0
4, 9120, Note_on_c, 0, 67, 88
4, 9178, Note_off_c, 0, 67, 0
4, 9180, Note_on_c, 0, 63, 88
4, 9238, Note_off_c, 0, 63, 0
4, 9240, Note_on_c, 0, 62, 88
4, 9298, Note_off_c, 0, 62, 0
4, 9300, Note_on_c, 0, 63, 88
4, 9358, Note_off_c, 0, 63, 0
4, 9360, Note_on_c, 0, 60, 88
4, 9476, Note_off_c, 0, 60, 0
4, 9480, Note_on_c, 0, 68, 88
4, 9596, Note_off_c, 0, 68, 0
4, 9600, Note_on_c, 0, 58, 88
4, 9716, Note_off_c, 0, 58, 0
4, 9720, Note_on_c, 0, 67, 88
4, 9836, Note_off_c, 0, 67, 0
4, 9840, Note_on_c, 0, 56, 88
4, 9956, Note_off_c, 0, 56, 0
4, 9960, Note_on_c, 0, 65, 88
4, 10076, Note_off_c, 0, 65, 0
4, 10080, Note_on_c, 0, 55, 88
4, 10138, Note_off_c, 0, 55, 0
4, 10140, Note_on_c, 0, 58, 88
4, 10198, Note_off_c, 0, 58, 0
4, 10200, Note_on_c, 0, 63, 88
4, 10258, Note_off_c, 0, 63, 0
4, 10260, Note_on_c, 0, 67, 88
4, 10376, Note_off_c, 0, 67, 0
4, 10380, Note_on_c, 0, 65, 88
4, 10438, Note_off_c, 0, 65, 0
4, 10440, Note_on_c, 0, 63, 88
4, 10498, Note_off_c, 0, 63, 0
4, 10500, Note_on_c, 0, 62, 88
4, 10558, Note_off_c, 0, 62, 0
4, 10560, Note_on_c, 0, 63, 88
4, 10618, Note_off_c, 0, 63, 0
4, 10620, Note_on_c, 0, 67, 88
4, 10678, Note_off_c, 0, 67, 0
4, 10680, Note_on_c, 0, 72, 88
4, 10796, Note_off_c, 0, 72, 0
4, 10800, Note_on_c, 0, 70, 88
4, 10916, Note_off_c, 0, 70, 0
4, 10920, Note_on_c, 0, 68, 88
4, 11036, Note_off_c, 0, 68, 0
4, 11040, Note_on_c, 0, 67, 88
4, 11510, Note_off_c, 0, 67, 0
4, 11580, Note_on_c, 0, 67, 88
4, 11638, Note_off_c, 0, 67, 0
4, 11640, Note_on_c, 0, 65, 88
4, 11698, Note_off_c, 0, 65, 0
4, 11700, Note_on_c, 0, 67, 88
4, 11758, Note_off_c, 0, 67, 0
4, 11760, Note_on_c, 0, 68, 88
4, 11818, Note_off_c, 0, 68, 0
4, 11820, Note_on_c, 0, 65, 88
4, 11878, Note_off_c, 0, 65, 0
4, 11880, Note_on_c, 0, 63, 88
4, 11938, Note_off_c, 0, 63, 0
4, 11940, Note_on_c, 0, 65, 88
4, 11998, Note_off_c, 0, 65, 0
4, 12000, Note_on_c, 0, 67, 88
4, 12058, Note_off_c, 0, 67, 0
4, 12060, Note_on_c, 0, 63, 88
4, 12118, Note_off_c, 0, 63, 0
4, 12120, Note_on_c, 0, 62, 88
4, 12178, Note_off_c, 0, 62, 0
4, 12180, Note_on_c, 0, 63, 88
4, 12238, Note_off_c, 0, 63, 0
4, 12240, Note_on_c, 0, 65, 88
4, 12298, Note_off_c, 0, 65, 0
4, 12300, Note_on_c, 0, 62, 88
4, 12358, Note_off_c, 0, 62, 0
4, 12360, Note_on_c, 0, 60, 88
4, 12418, Note_off_c, 0, 60, 0
4, 12420, Note_on_c, 0, 62, 88
4, 12478, Note_off_c, 0, 62, 0
4, 12480, Note_on_c, 0, 63, 88
4, 12596, Note_off_c, 0, 63, 0
4, 12600, Note_on_c, 0, 72, 88
4, 12716, Note_off_c, 0, 72, 0
4, 12720, Note_on_c, 0, 65, 88
4, 12836, Note_off_c, 0, 65, 0
4, 12840, Note_on_c, 0, 72, 88
4, 12956, Note_off_c, 0, 72, 0
4, 12960, Note_on_c, 0, 63, 88
4, 13076, Note_off_c, 0, 63, 0
4, 13080, Note_on_c, 0, 72, 88
4, 13196, Note_off_c, 0, 72, 0
4, 13200, Note_on_c, 0, 62, 88
4, 13316, Note_off_c, 0, 62, 0
4, 13320, Note_on_c, 0, 71, 88
4, 13436, Note_off_c, 0, 71, 0
4, 13440, Note_on_c, 0, 60, 88
4, 13498, Note_off_c, 0, 60, 0
4, 13500, Note_on_c, 0, 63, 88
4, 13558, Note_off_c, 0, 63, 0
4, 13560, Note_on_c, 0, 67, 88
4, 13618, Note_off_c, 0, 67, 0
4, 13620, Note_on_c, 0, 72, 88
4, 13678, Note_off_c, 0, 72, 0
4, 13680, Note_on_c, 0, 62, 88
4, 13738, Note_off_c, 0, 62, 0
4, 13740, Note_on_c, 0, 72, 88
4, 13798, Note_off_c, 0, 72, 0
4, 13800, Note_on_c, 0, 71, 88
4, 13858, Note_off_c, 0, 71, 0
4, 13860, Note_on_c, 0, 69, 88
4, 13918, Note_off_c, 0, 69, 0
4, 13920, Note_on_c, 0, 62, 88
4, 13978, Note_off_c, 0, 62, 0
4, 13980, Note_on_c, 0, 67, 88
4, 14038, Note_off_c, 0, 67, 0
4, 14040, Note_on_c, 0, 71, 88
4, 14098, Note_off_c, 0, 71, 0
4, 14100, Note_on_c, 0, 74, 88
4, 14158, Note_off_c, 0, 74, 0
4, 14160, Note_on_c, 0, 63, 88
4, 14218, Note_off_c, 0, 63, 0
4, 14220, Note_on_c, 0, 74, 88
4, 14278, Note_off_c, 0, 74, 0
4, 14280, Note_on_c, 0, 72, 88
4, 14338, Note_off_c, 0, 72, 0
4, 14340, Note_on_c, 0, 71, 88
4, 14398, Note_off_c, 0, 71, 0
4, 14400, Note_on_c, 0, 63, 88
4, 14458, Note_off_c, 0, 63, 0
4, 14460, Note_on_c, 0, 68, 88
4, 14518, Note_off_c, 0, 68, 0
4, 14520, Note_on_c, 0, 72, 88
4, 14578, Note_off_c, 0, 72, 0
4, 14580, Note_on_c, 0, 75, 88
4, 14638, Note_off_c, 0, 75, 0
4, 14640, Note_on_c, 0, 65, 88
4, 14698, Note_off_c, 0, 65, 0
4, 14700, Note_on_c, 0, 75, 88
4, 14758, Note_off_c, 0, 75, 0
4, 14760, Note_on_c, 0, 74, 88
4, 14818, Note_off_c, 0, 74, 0
4, 14820, Note_on_c, 0, 72, 88
4, 14878, Note_off_c, 0, 72, 0
4, 14880, Note_on_c, 0, 65, 88
4, 14938, Note_off_c, 0, 65, 0
4, 14940, Note_on_c, 0, 70, 88
4, 14998, Note_off_c, 0, 70, 0
4, 15000, Note_on_c, 0, 74, 88
4, 15058, Note_off_c, 0, 74, 0
4, 15060, Note_on_c, 0, 77, 88
4, 15118, Note_off_c, 0, 77, 0
4, 15120, Note_on_c, 0, 67, 88
4, 15178, Note_off_c, 0, 67, 0
4, 15180, Note_on_c, 0, 77, 88
4, 15238, Note_off_c, 0, 77, 0
4, 15240, Note_on_c, 0, 75, 88
4, 15298, Note_off_c, 0, 75, 0
4, 15300, Note_on_c, 0, 74, 88
4, 15358, Note_off_c, 0, 74, 0
4, 15360, Note_on_c, 0, 75, 88
4, 15418, Note_off_c, 0, 75, 0
4, 15420, Note_on_c, 0, 72, 88
4, 15478, Note_off_c, 0, 72, 0
4, 15480, Note_on_c, 0, 70, 88
4, 15538, Note_off_c, 0, 70, 0
4, 15540, Note_on_c, 0, 72, 88
4, 15598, Note_off_c, 0, 72, 0
4, 15600, Note_on_c, 0, 74, 88
4, 15658, Note_off_c, 0, 74, 0
4, 15660, Note_on_c, 0, 70, 88
4, 15718, Note_off_c, 0, 70, 0
4, 15720, Note_on_c, 0, 68, 88
4, 15778, Note_off_c, 0, 68, 0
4, 15780, Note_on_c, 0, 70, 88
4, 15838, Note_off_c, 0, 70, 0
4, 15840, Note_on_c, 0, 72, 88
4, 15898, Note_off_c, 0, 72, 0
4, 15900, Note_on_c, 0, 70, 88
4, 15958, Note_off_c, 0, 70, 0
4, 15960, Note_on_c, 0, 68, 88
4, 16018, Note_off_c, 0, 68, 0
4, 16020, Note_on_c, 0, 67, 88
4, 16078, Note_off_c, 0, 67, 0
4, 16080, Note_on_c, 0, 65, 88
4, 16138, Note_off_c, 0, 65, 0
4, 16320, Note_on_c, 0, 74, 88
4, 16378, Note_off_c, 0, 74, 0
4, 16380, Note_on_c, 0, 70, 88
4, 16438, Note_off_c, 0, 70, 0
4, 16440, Note_on_c, 0, 68, 88
4, 16498, Note_off_c, 0, 68, 0
4, 16500, Note_on_c, 0, 70, 88
4, 16558, Note_off_c, 0, 70, 0
4, 16560, Note_on_c, 0, 72, 88
4, 16618, Note_off_c, 0, 72, 0
4, 16620, Note_on_c, 0, 68, 88
4, 16678, Note_off_c, 0, 68, 0
4, 16680, Note_on_c, 0, 67, 88
4, 16738, Note_off_c, 0, 67, 0
4, 16740, Note_on_c, 0, 68, 88
4, 16798, Note_off_c, 0, 68, 0
4, 16800, Note_on_c, 0, 70, 88
4, 16858, Note_off_c, 0, 70, 0
4, 16860, Note_on_c, 0, 68, 88
4, 16918, Note_off_c, 0, 68, 0
4, 16920, Note_on_c, 0, 67, 88
4, 16978, Note_off_c, 0, 67, 0
4, 16980, Note_on_c, 0, 65, 88
4, 17038, Note_off_c, 0, 65, 0
4, 17040, Note_on_c, 0, 63, 88
4, 17098, Note_off_c, 0, 63, 0
4, 17280, Note_on_c, 0, 72, 88
4, 17338, Note_off_c, 0, 72, 0
4, 17340, Note_on_c, 0, 68, 88
4, 17398, Note_off_c, 0, 68, 0
4, 17400, Note_on_c, 0, 67, 88
4, 17458, Note_off_c, 0, 67, 0
4, 17460, Note_on_c, 0, 68, 88
4, 17518, Note_off_c, 0, 68, 0
4, 17520, Note_on_c, 0, 70, 88
4, 17578, Note_off_c, 0, 70, 0
4, 17580, Note_on_c, 0, 67, 88
4, 17638, Note_off_c, 0, 67, 0
4, 17640, Note_on_c, 0, 65, 88
4, 17698, Note_off_c, 0, 65, 0
4, 17700, Note_on_c, 0, 67, 88
4, 17758, Note_off_c, 0, 67, 0
4, 17760, Note_on_c, 0, 68, 88
4, 17818, Note_off_c, 0, 68, 0
4, 17820, Note_on_c, 0, 65, 88
4, 17878, Note_off_c, 0, 65, 0
4, 17880, Note_on_c, 0, 63, 88
4, 17938, Note_off_c, 0, 63, 0
4, 17940, Note_on_c, 0, 65, 88
4, 17998, Note_off_c, 0, 65, 0
4, 18000, Note_on_c, 0, 68, 88
4, 18015, Note_on_c, 0, 67, 88
4, 18015, Note_off_c, 0, 68, 0
4, 18044, Note_off_c, 0, 67, 0
4, 18045, Note_on_c, 0, 68, 88
4, 18103, Note_off_c, 0, 68, 0
4, 18120, Note_on_c, 0, 68, 88
4, 18236, Note_off_c, 0, 68, 0
4, 18240, Note_on_c, 0, 68, 88
4, 18298, Note_off_c, 0, 68, 0
4, 18300, Note_on_c, 0, 67, 88
4, 18358, Note_off_c, 0, 67, 0
4, 18360, Note_on_c, 0, 65, 88
4, 18418, Note_off_c, 0, 65, 0
4, 18420, Note_on_c, 0, 67, 88
4, 18478, Note_off_c, 0, 67, 0
4, 18480, Note_on_c, 0, 68, 88
4, 18495, Note_on_c, 0, 67, 88
4, 18495, Note_off_c, 0, 68, 0
4, 18524, Note_off_c, 0, 67, 0
4, 18525, Note_on_c, 0, 68, 88
4, 18583, Note_off_c, 0, 68, 0
4, 18600, Note_on_c, 0, 68, 88
4, 18703, Note_off_c, 0, 68, 0
4, 18720, Note_on_c, 0, 68, 88
4, 18778, Note_off_c, 0, 68, 0
4, 18780, Note_on_c, 0, 74, 88
4, 18838, Note_off_c, 0, 74, 0
4, 18840, Note_on_c, 0, 77, 88
4, 18898, Note_off_c, 0, 77, 0
4, 18900, Note_on_c, 0, 75, 88
4, 18958, Note_off_c, 0, 75, 0
4, 18960, Note_on_c, 0, 74, 88
4, 19018, Note_off_c, 0, 74, 0
4, 19020, Note_on_c, 0, 72, 88
4, 19078, Note_off_c, 0, 72, 0
4, 19080, Note_on_c, 0, 70, 88
4, 19138, Note_off_c, 0, 70, 0
4, 19140, Note_on_c, 0, 68, 88
4, 19198, Note_off_c, 0, 68, 0
4, 19200, Note_on_c, 0, 67, 88
4, 19258, Note_off_c, 0, 67, 0
4, 19260, Note_on_c, 0, 70, 88
4, 19318, Note_off_c, 0, 70, 0
4, 19320, Note_on_c, 0, 75, 88
4, 19378, Note_off_c, 0, 75, 0
4, 19380, Note_on_c, 0, 67, 88
4, 19438, Note_off_c, 0, 67, 0
4, 19440, Note_on_c, 0, 65, 88
4, 19498, Note_off_c, 0, 65, 0
4, 19500, Note_on_c, 0, 75, 88
4, 19558, Note_off_c, 0, 75, 0
4, 19560, Note_on_c, 0, 65, 88
4, 19618, Note_off_c, 0, 65, 0
4, 19620, Note_on_c, 0, 74, 88
4, 19678, Note_off_c, 0, 74, 0
4, 19680, Note_on_c, 0, 75, 88
4, 19738, Note_off_c, 0, 75, 0
4, 19740, Note_on_c, 0, 70, 88
4, 19798, Note_off_c, 0, 70, 0
4, 19800, Note_on_c, 0, 68, 88
4, 19858, Note_off_c, 0, 68, 0
4, 19860, Note_on_c, 0, 70, 88
4, 19918, Note_off_c, 0, 70, 0
4, 19920, Note_on_c, 0, 72, 88
4, 19978, Note_off_c, 0, 72, 0
4, 19980, Note_on_c, 0, 68, 88
4, 20038, Note_off_c, 0, 68, 0
4, 20040, Note_on_c, 0, 67, 88
4, 20098, Note_off_c, 0, 67, 0
4, 20100, Note_on_c, 0, 68, 88
4, 20158, Note_off_c, 0, 68, 0
4, 20160, Note_on_c, 0, 70, 88
4, 20218, Note_off_c, 0, 70, 0
4, 20220, Note_on_c, 0, 67, 88
4, 20278, Note_off_c, 0, 67, 0
4, 20280, Note_on_c, 0, 65, 88
4, 20338, Note_off_c, 0, 65, 0
4, 20340, Note_on_c, 0, 67, 88
4, 20398, Note_off_c, 0, 67, 0
4, 20400, Note_on_c, 0, 68, 88
4, 20458, Note_off_c, 0, 68, 0
4, 20460, Note_on_c, 0, 65, 88
4, 20518, Note_off_c, 0, 65, 0
4, 20520, Note_on_c, 0, 63, 88
4, 20578, Note_off_c, 0, 63, 0
4, 20580, Note_on_c, 0, 65, 88
4, 20638, Note_off_c, 0, 65, 0
4, 20640, Note_on_c, 0, 67, 88
4, 20698, Note_off_c, 0, 67, 0
4, 20700, Note_on_c, 0, 63, 88
4, 20758, Note_off_c, 0, 63, 0
4, 20760, Note_on_c, 0, 62, 88
4, 20818, Note_off_c, 0, 62, 0
4, 20820, Note_on_c, 0, 63, 88
4, 20878, Note_off_c, 0, 63, 0
4, 20880, Note_on_c, 0, 60, 88
4, 20996, Note_off_c, 0, 60, 0
4, 21000, Note_on_c, 0, 68, 88
4, 21116, Note_off_c, 0, 68, 0
4, 21120, Note_on_c, 0, 58, 88
4, 21236, Note_off_c, 0, 58, 0
4, 21240, Note_on_c, 0, 67, 88
4, 21356, Note_off_c, 0, 67, 0
4, 21360, Note_on_c, 0, 56, 88
4, 21476, Note_off_c, 0, 56, 0
4, 21480, Note_on_c, 0, 65, 88
4, 21596, Note_off_c, 0, 65, 0
4, 21600, Note_on_c, 0, 55, 88
4, 21658, Note_off_c, 0, 55, 0
4, 21660, Note_on_c, 0, 58, 88
4, 21718, Note_off_c, 0, 58, 0
4, 21720, Note_on_c, 0, 63, 88
4, 21778, Note_off_c, 0, 63, 0
4, 21780, Note_on_c, 0, 67, 88
4, 21896, Note_off_c, 0, 67, 0
4, 21900, Note_on_c, 0, 65, 88
4, 21958, Note_off_c, 0, 65, 0
4, 21960, Note_on_c, 0, 63, 88
4, 22018, Note_off_c, 0, 63, 0
4, 22020, Note_on_c, 0, 62, 88
4, 22078, Note_off_c, 0, 62, 0
4, 22080, Note_on_c, 0, 63, 88
4, 22138, Note_off_c, 0, 63, 0
4, 22140, Note_on_c, 0, 67, 88
4, 22198, Note_off_c, 0, 67, 0
4, 22200, Note_on_c, 0, 72, 88
4, 22316, Note_off_c, 0, 72, 0
4, 22320, Note_on_c, 0, 70, 88
4, 22436, Note_off_c, 0, 70, 0
4, 22440, Note_on_c, 0, 68, 88
4, 22556, Note_off_c, 0, 68, 0
4, 22560, Note_on_c, 0, 67, 88
4, 23030, Note_off_c, 0, 67, 0
4, 23100, Note_on_c, 0, 70, 88
4, 23158, Note_off_c, 0, 70, 0
4, 23160, Note_on_c, 0, 69, 88
4, 23218, Note_off_c, 0, 69, 0
4, 23220, Note_on_c, 0, 70, 88
4, 23278, Note_off_c, 0, 70, 0
4, 23280, Note_on_c, 0, 75, 88
4, 23338, Note_off_c, 0, 75, 0
4, 23340, Note_on_c, 0, 70, 88
4, 23398, Note_off_c, 0, 70, 0
4, 23400, Note_on_c, 0, 69, 88
4, 23458, Note_off_c, 0, 69, 0
4, 23460, Note_on_c, 0, 70, 88
4, 23518, Note_off_c, 0, 70, 0
4, 23520, Note_on_c, 0, 77, 88
4, 23578, Note_off_c, 0, 77, 0
4, 23580, Note_on_c, 0, 70, 88
4, 23638, Note_off_c, 0, 70, 0
4, 23640, Note_on_c, 0, 69, 88
4, 23698, Note_off_c, 0, 69, 0
4, 23700, Note_on_c, 0, 70, 88
4, 23758, Note_off_c, 0, 70, 0
4, 23760, Note_on_c, 0, 80, 88
4, 23818, Note_off_c, 0, 80, 0
4, 23820, Note_on_c, 0, 70, 88
4, 23878, Note_off_c, 0, 70, 0
4, 23880, Note_on_c, 0, 69, 88
4, 23938, Note_off_c, 0, 69, 0
4, 23940, Note_on_c, 0, 70, 88
4, 23998, Note_off_c, 0, 70, 0
4, 24000, Note_on_c, 0, 79, 88
4, 24116, Note_off_c, 0, 79, 0
4, 24120, Note_on_c, 0, 75, 88
4, 24236, Note_off_c, 0, 75, 0
4, 24240, Note_on_c, 0, 74, 88
4, 24255, Note_on_c, 0, 72, 88
4, 24255, Note_off_c, 0, 74, 0
4, 24270, Note_off_c, 0, 72, 0
4, 24270, Note_on_c, 0, 74, 88
4, 24285, Note_on_c, 0, 72, 88
4, 24285, Note_off_c, 0, 74, 0
4, 24300, Note_on_c, 0, 71, 88
4, 24300, Note_off_c, 0, 72, 0
4, 24358, Note_off_c, 0, 71, 0
4, 24360, Note_on_c, 0, 72, 88
4, 24476, Note_off_c, 0, 72, 0
4, 24480, Note_on_c, 0, 77, 88
4, 24596, Note_off_c, 0, 77, 0
4, 24600, Note_on_c, 0, 74, 88
4, 24716, Note_off_c, 0, 74, 0
4, 24720, Note_on_c, 0, 72, 88
4, 24735, Note_on_c, 0, 71, 88
4, 24735, Note_off_c, 0, 72, 0
4, 24750, Note_off_c, 0, 71, 0
4, 24750, Note_on_c, 0, 72, 88
4, 24765, Note_on_c, 0, 71, 88
4, 24765, Note_off_c, 0, 72, 0
4, 24780, Note_on_c, 0, 69, 88
4, 24780, Note_off_c, 0, 71, 0
4, 24838, Note_off_c, 0, 69, 0
4, 24840, Note_on_c, 0, 71, 88
4, 24956, Note_off_c, 0, 71, 0
4, 24960, Note_on_c, 0, 75, 88
4, 25018, Note_off_c, 0, 75, 0
4, 25020, Note_on_c, 0, 63, 88
4, 25078, Note_off_c, 0, 63, 0
4, 25080, Note_on_c, 0, 62, 88
4, 25138, Note_off_c, 0, 62, 0
4, 25140, Note_on_c, 0, 63, 88
4, 25198, Note_off_c, 0, 63, 0
4, 25200, Note_on_c, 0, 67, 88
4, 25258, Note_off_c, 0, 67, 0
4, 25260, Note_on_c, 0, 63, 88
4, 25318, Note_off_c, 0, 63, 0
4, 25320, Note_on_c, 0, 62, 88
4, 25378, Note_off_c, 0, 62, 0
4, 25380, Note_on_c, 0, 63, 88
4, 25438, Note_off_c, 0, 63, 0
4, 25440, Note_on_c, 0, 70, 88
4, 25498, Note_off_c, 0, 70, 0
4, 25500, Note_on_c, 0, 63, 88
4, 25558, Note_off_c, 0, 63, 0
4, 25560, Note_on_c, 0, 62, 88
4, 25618, Note_off_c, 0, 62, 0
4, 25620, Note_on_c, 0, 63, 88
4, 25678, Note_off_c, 0, 63, 0
4, 25680, Note_on_c, 0, 73, 88
4, 25738, Note_off_c, 0, 73, 0
4, 25740, Note_on_c, 0, 63, 88
4, 25798, Note_off_c, 0, 63, 0
4, 25800, Note_on_c, 0, 62, 88
4, 25858, Note_off_c, 0, 62, 0
4, 25860, Note_on_c, 0, 63, 88
4, 25918, Note_off_c, 0, 63, 0
4, 25920, Note_on_c, 0, 72, 88
4, 26036, Note_off_c, 0, 72, 0
4, 26040, Note_on_c, 0, 68, 88
4, 26156, Note_off_c, 0, 68, 0
4, 26160, Note_on_c, 0, 67, 88
4, 26175, Note_on_c, 0, 65, 88
4, 26175, Note_off_c, 0, 67, 0
4, 26190, Note_off_c, 0, 65, 0
4, 26190, Note_on_c, 0, 67, 88
4, 26205, Note_on_c, 0, 65, 88
4, 26205, Note_off_c, 0, 67, 0
4, 26220, Note_on_c, 0, 64, 88
4, 26220, Note_off_c, 0, 65, 0
4, 26278, Note_off_c, 0, 64, 0
4, 26280, Note_on_c, 0, 65, 88
4, 26396, Note_off_c, 0, 65, 0
4, 26400, Note_on_c, 0, 70, 88
4, 26516, Note_off_c, 0, 70, 0
4, 26520, Note_on_c, 0, 67, 88
4, 26636, Note_off_c, 0, 67, 0
4, 26640, Note_on_c, 0, 65, 88
4, 26655, Note_on_c, 0, 64, 88
4, 26655, Note_off_c, 0, 65, 0
4, 26670, Note_off_c, 0, 64, 0
4, 26670, Note_on_c, 0, 65, 88
4, 26685, Note_on_c, 0, 64, 88
4, 26685, Note_off_c, 0, 65, 0
4, 26700, Note_on_c, 0, 62, 88
4, 26700, Note_off_c, 0, 64, 0
4, 26758, Note_off_c, 0, 62, 0
4, 26760, Note_on_c, 0, 64, 88
4, 26876, Note_off_c, 0, 64, 0
4, 26880, Note_on_c, 0, 68, 88
4, 26938, Note_off_c, 0, 68, 0
4, 26940, Note_on_c, 0, 72, 88
4, 26998, Note_off_c, 0, 72, 0
4, 27000, Note_on_c, 0, 71, 88
4, 27058, Note_off_c, 0, 71, 0
4, 27060, Note_on_c, 0, 72, 88
4, 27118, Note_off_c, 0, 72, 0
4, 27120, Note_on_c, 0, 73, 88
4, 27178, Note_off_c, 0, 73, 0
4, 27180, Note_on_c, 0, 72, 88
4, 27238, Note_off_c, 0, 72, 0
4, 27240, Note_on_c, 0, 71, 88
4, 27298, Note_off_c, 0, 71, 0
4, 27300, Note_on_c, 0, 72, 88
4, 27358, Note_off_c, 0, 72, 0
4, 27360, Note_on_c, 0, 67, 88
4, 27418, Note_off_c, 0, 67, 0
4, 27420, Note_on_c, 0, 72, 88
4, 27478, Note_off_c, 0, 72, 0
4, 27480, Note_on_c, 0, 71, 88
4, 27538, Note_off_c, 0, 71, 0
4, 27540, Note_on_c, 0, 72, 88
4, 27598, Note_off_c, 0, 72, 0
4, 27600, Note_on_c, 0, 73, 88
4, 27658, Note_off_c, 0, 73, 0
4, 27660, Note_on_c, 0, 72, 88
4, 27718, Note_off_c, 0, 72, 0
4, 27720, Note_on_c, 0, 71, 88
4, 27778, Note_off_c, 0, 71, 0
4, 27780, Note_on_c, 0, 72, 88
4, 27838, Note_off_c, 0, 72, 0
4, 27840, Note_on_c, 0, 65, 88
4, 27898, Note_off_c, 0, 65, 0
4, 27900, Note_on_c, 0, 72, 88
4, 27958, Note_off_c, 0, 72, 0
4, 27960, Note_on_c, 0, 74, 88
4, 28018, Note_off_c, 0, 74, 0
4, 28020, Note_on_c, 0, 76, 88
4, 28078, Note_off_c, 0, 76, 0
4, 28080, Note_on_c, 0, 77, 88
4, 28138, Note_off_c, 0, 77, 0
4, 28140, Note_on_c, 0, 70, 88
4, 28198, Note_off_c, 0, 70, 0
4, 28200, Note_on_c, 0, 69, 88
4, 28258, Note_off_c, 0, 69, 0
4, 28260, Note_on_c, 0, 70, 88
4, 28318, Note_off_c, 0, 70, 0
4, 28320, Note_on_c, 0, 79, 88
4, 28378, Note_off_c, 0, 79, 0
4, 28380, Note_on_c, 0, 77, 88
4, 28438, Note_off_c, 0, 77, 0
4, 28440, Note_on_c, 0, 76, 88
4, 28498, Note_off_c, 0, 76, 0
4, 28500, Note_on_c, 0, 74, 88
4, 28558, Note_off_c, 0, 74, 0
4, 28560, Note_on_c, 0, 72, 88
4, 28618, Note_off_c, 0, 72, 0
4, 28620, Note_on_c, 0, 70, 88
4, 28678, Note_off_c, 0, 70, 0
4, 28680, Note_on_c, 0, 68, 88
4, 28738, Note_off_c, 0, 68, 0
4, 28740, Note_on_c, 0, 67, 88
4, 28798, Note_off_c, 0, 67, 0
4, 28800, Note_on_c, 0, 68, 88
4, 28858, Note_off_c, 0, 68, 0
4, 28860, Note_on_c, 0, 65, 88
4, 28918, Note_off_c, 0, 65, 0
4, 28920, Note_on_c, 0, 64, 88
4, 28978, Note_off_c, 0, 64, 0
4, 28980, Note_on_c, 0, 65, 88
4, 29038, Note_off_c, 0, 65, 0
4, 29040, Note_on_c, 0, 72, 88
4, 29098, Note_off_c, 0, 72, 0
4, 29100, Note_on_c, 0, 68, 88
4, 29158, Note_off_c, 0, 68, 0
4, 29160, Note_on_c, 0, 67, 88
4, 29218, Note_off_c, 0, 67, 0
4, 29220, Note_on_c, 0, 68, 88
4, 29278, Note_off_c, 0, 68, 0
4, 29280, Note_on_c, 0, 77, 88
4, 29338, Note_off_c, 0, 77, 0
4, 29340, Note_on_c, 0, 75, 88
4, 29398, Note_off_c, 0, 75, 0
4, 29400, Note_on_c, 0, 73, 88
4, 29458, Note_off_c, 0, 73, 0
4, 29460, Note_on_c, 0, 72, 88
4, 29518, Note_off_c, 0, 72, 0
4, 29520, Note_on_c, 0, 70, 88
4, 29578, Note_off_c, 0, 70, 0
4, 29580, Note_on_c, 0, 68, 88
4, 29638, Note_off_c, 0, 68, 0
4, 29640, Note_on_c, 0, 67, 88
4, 29698, Note_off_c, 0, 67, 0
4, 29700, Note_on_c, 0, 65, 88
4, 29758, Note_off_c, 0, 65, 0
4, 29760, Note_on_c, 0, 67, 88
4, 29818, Note_off_c, 0, 67, 0
4, 29820, Note_on_c, 0, 63, 88
4, 29878, Note_off_c, 0, 63, 0
4, 29880, Note_on_c, 0, 62, 88
4, 29938, Note_off_c, 0, 62, 0
4, 29940, Note_on_c, 0, 63, 88
4, 29998, Note_off_c, 0, 63, 0
4, 30000, Note_on_c, 0, 70, 88
4, 30058, Note_off_c, 0, 70, 0
4, 30060, Note_on_c, 0, 67, 88
4, 30118, Note_off_c, 0, 67, 0
4, 30120, Note_on_c, 0, 65, 88
4, 30178, Note_off_c, 0, 65, 0
4, 30180, Note_on_c, 0, 67, 88
4, 30238, Note_off_c, 0, 67, 0
4, 30240, Note_on_c, 0, 75, 88
4, 30298, Note_off_c, 0, 75, 0
4, 30300, Note_on_c, 0, 73, 88
4, 30358, Note_off_c, 0, 73, 0
4, 30360, Note_on_c, 0, 72, 88
4, 30418, Note_off_c, 0, 72, 0
4, 30420, Note_on_c, 0, 70, 88
4, 30478, Note_off_c, 0, 70, 0
4, 30480, Note_on_c, 0, 68, 88
4, 30538, Note_off_c, 0, 68, 0
4, 30540, Note_on_c, 0, 67, 88
4, 30598, Note_off_c, 0, 67, 0
4, 30600, Note_on_c, 0, 65, 88
4, 30658, Note_off_c, 0, 65, 0
4, 30660, Note_on_c, 0, 64, 88
4, 30718, Note_off_c, 0, 64, 0
4, 30720, Note_on_c, 0, 65, 88
4, 30836, Note_off_c, 0, 65, 0
4, 30840, Note_on_c, 0, 69, 88
4, 30956, Note_off_c, 0, 69, 0
4, 30960, Note_on_c, 0, 70, 88
4, 31076, Note_off_c, 0, 70, 0
4, 31080, Note_on_c, 0, 72, 88
4, 31196, Note_off_c, 0, 72, 0
4, 31200, Note_on_c, 0, 73, 88
4, 31316, Note_off_c, 0, 73, 0
4, 31320, Note_on_c, 0, 76, 88
4, 31436, Note_off_c, 0, 76, 0
4, 31440, Note_on_c, 0, 77, 88
4, 31556, Note_off_c, 0, 77, 0
4, 31560, Note_on_c, 0, 79, 88
4, 31676, Note_off_c, 0, 79, 0
4, 31680, Note_on_c, 0, 72, 88
4, 31738, Note_off_c, 0, 72, 0
4, 31740, Note_on_c, 0, 76, 88
4, 31798, Note_off_c, 0, 76, 0
4, 31800, Note_on_c, 0, 77, 88
4, 31858, Note_off_c, 0, 77, 0
4, 31860, Note_on_c, 0, 80, 88
4, 31918, Note_off_c, 0, 80, 0
4, 31920, Note_on_c, 0, 70, 88
4, 31978, Note_off_c, 0, 70, 0
4, 31980, Note_on_c, 0, 79, 88
4, 32038, Note_off_c, 0, 79, 0
4, 32040, Note_on_c, 0, 77, 88
4, 32098, Note_off_c, 0, 77, 0
4, 32100, Note_on_c, 0, 76, 88
4, 32158, Note_off_c, 0, 76, 0
4, 32160, Note_on_c, 0, 68, 88
4, 32218, Note_off_c, 0, 68, 0
4, 32220, Note_on_c, 0, 72, 88
4, 32278, Note_off_c, 0, 72, 0
4, 32280, Note_on_c, 0, 76, 88
4, 32338, Note_off_c, 0, 76, 0
4, 32340, Note_on_c, 0, 77, 88
4, 32398, Note_off_c, 0, 77, 0
4, 32400, Note_on_c, 0, 67, 88
4, 32458, Note_off_c, 0, 67, 0
4, 32460, Note_on_c, 0, 73, 88
4, 32518, Note_off_c, 0, 73, 0
4, 32520, Note_on_c, 0, 72, 88
4, 32578, Note_off_c, 0, 72, 0
4, 32580, Note_on_c, 0, 70, 88
4, 32638, Note_off_c, 0, 70, 0
4, 32640, Note_on_c, 0, 68, 88
4, 32698, Note_off_c, 0, 68, 0
4, 32700, Note_on_c, 0, 67, 88
4, 32758, Note_off_c, 0, 67, 0
4, 32760, Note_on_c, 0, 65, 88
4, 32818, Note_off_c, 0, 65, 0
4, 32820, Note_on_c, 0, 64, 88
4, 32878, Note_off_c, 0, 64, 0
4, 32880, Note_on_c, 0, 65, 88
4, 32938, Note_off_c, 0, 65, 0
4, 32940, Note_on_c, 0, 68, 88
4, 32998, Note_off_c, 0, 68, 0
4, 33000, Note_on_c, 0, 60, 88
4, 33058, Note_off_c, 0, 60, 0
4, 33060, Note_on_c, 0, 63, 88
4, 33118, Note_off_c, 0, 63, 0
4, 33120, Note_on_c, 0, 62, 88
4, 33178, Note_off_c, 0, 62, 0
4, 33180, Note_on_c, 0, 68, 88
4, 33238, Note_off_c, 0, 68, 0
4, 33240, Note_on_c, 0, 65, 88
4, 33298, Note_off_c, 0, 65, 0
4, 33300, Note_on_c, 0, 62, 88
4, 33358, Note_off_c, 0, 62, 0
4, 33360, Note_on_c, 0, 58, 88
4, 33418, Note_off_c, 0, 58, 0
4, 33600, Note_on_c, 0, 67, 88
4, 33658, Note_off_c, 0, 67, 0
4, 33660, Note_on_c, 0, 65, 88
4, 33718, Note_off_c, 0, 65, 0
4, 33720, Note_on_c, 0, 63, 88
4, 33778, Note_off_c, 0, 63, 0
4, 33780, Note_on_c, 0, 62, 88
4, 33838, Note_off_c, 0, 62, 0
4, 33840, Note_on_c, 0, 63, 88
4, 33898, Note_off_c, 0, 63, 0
4, 33900, Note_on_c, 0, 67, 88
4, 33958, Note_off_c, 0, 67, 0
4, 33960, Note_on_c, 0, 59, 88
4, 34018, Note_off_c, 0, 59, 0
4, 34020, Note_on_c, 0, 62, 88
4, 34078, Note_off_c, 0, 62, 0
4, 34080, Note_on_c, 0, 60, 88
4, 34138, Note_off_c, 0, 60, 0
4, 34140, Note_on_c, 0, 67, 88
4, 34198, Note_off_c, 0, 67, 0
4, 34200, Note_on_c, 0, 63, 88
4, 34258, Note_off_c, 0, 63, 0
4, 34260, Note_on_c, 0, 60, 88
4, 34318, Note_off_c, 0, 60, 0
4, 34320, Note_on_c, 0, 56, 88
4, 34378, Note_off_c, 0, 56, 0
4, 34560, Note_on_c, 0, 65, 88
4, 34618, Note_off_c, 0, 65, 0
4, 34620, Note_on_c, 0, 63, 88
4, 34678, Note_off_c, 0, 63, 0
4, 34680, Note_on_c, 0, 62, 88
4, 34738, Note_off_c, 0, 62, 0
4, 34740, Note_on_c, 0, 60, 88
4, 34798, Note_off_c, 0, 60, 0
4, 34800, Note_on_c, 0, 62, 88
4, 34858, Note_off_c, 0, 62, 0
4, 34860, Note_on_c, 0, 65, 88
4, 34918, Note_off_c, 0, 65, 0
4, 34920, Note_on_c, 0, 68, 88
4, 34978, Note_off_c, 0, 68, 0
4, 34980, Note_on_c, 0, 60, 88
4, 35038, Note_off_c, 0, 60, 0
4, 35040, Note_on_c, 0, 59, 88
4, 35098, Note_off_c, 0, 59, 0
4, 35100, Note_on_c, 0, 65, 88
4, 35158, Note_off_c, 0, 65, 0
4, 35160, Note_on_c, 0, 62, 88
4, 35218, Note_off_c, 0, 62, 0
4, 35220, Note_on_c, 0, 59, 88
4, 35278, Note_off_c, 0, 59, 0
4, 35280, Note_on_c, 0, 55, 88
4, 35338, Note_off_c, 0, 55, 0
4, 35340, Note_on_c, 0, 59, 88
4, 35398, Note_off_c, 0, 59, 0
4, 35400, Note_on_c, 0, 60, 88
4, 35458, Note_off_c, 0, 60, 0
4, 35460, Note_on_c, 0, 62, 88
4, 35518, Note_off_c, 0, 62, 0
4, 35640, Note_on_c, 0, 67, 88
4, 35756, Note_off_c, 0, 67, 0
4, 35760, Note_on_c, 0, 72, 88
4, 36283, Note_off_c, 0, 72, 0
4, 36300, Note_on_c, 0, 72, 88
4, 36358, Note_off_c, 0, 72, 0
4, 36360, Note_on_c, 0, 70, 88
4, 36418, Note_off_c, 0, 70, 0
4, 36420, Note_on_c, 0, 68, 88
4, 36478, Note_off_c, 0, 68, 0
4, 36480, Note_on_c, 0, 67, 88
4, 36538, Note_off_c, 0, 67, 0
4, 36540, Note_on_c, 0, 68, 88
4, 36598, Note_off_c, 0, 68, 0
4, 36600, Note_on_c, 0, 70, 88
4, 36658, Note_off_c, 0, 70, 0
4, 36660, Note_on_c, 0, 67, 88
4, 36718, Note_off_c, 0, 67, 0
4, 36720, Note_on_c, 0, 60, 88
4, 36778, Note_off_c, 0, 60, 0
4, 36780, Note_on_c, 0, 73, 88
4, 36838, Note_off_c, 0, 73, 0
4, 36840, Note_on_c, 0, 72, 88
4, 36898, Note_off_c, 0, 72, 0
4, 36900, Note_on_c, 0, 70, 88
4, 36958, Note_off_c, 0, 70, 0
4, 36960, Note_on_c, 0, 68, 88
4, 37018, Note_off_c, 0, 68, 0
4, 37020, Note_on_c, 0, 70, 88
4, 37078, Note_off_c, 0, 70, 0
4, 37080, Note_on_c, 0, 72, 88
4, 37138, Note_off_c, 0, 72, 0
4, 37140, Note_on_c, 0, 68, 88
4, 37198, Note_off_c, 0, 68, 0
4, 37200, Note_on_c, 0, 62, 88
4, 37258, Note_off_c, 0, 62, 0
4, 37260, Note_on_c, 0, 75, 88
4, 37318, Note_off_c, 0, 75, 0
4, 37320, Note_on_c, 0, 74, 88
4, 37378, Note_off_c, 0, 74, 0
4, 37380, Note_on_c, 0, 72, 88
4, 37438, Note_off_c, 0, 72, 0
4, 37440, Note_on_c, 0, 71, 88
4, 37498, Note_off_c, 0, 71, 0
4, 37500, Note_on_c, 0, 67, 88
4, 37558, Note_off_c, 0, 67, 0
4, 37560, Note_on_c, 0, 72, 88
4, 37618, Note_off_c, 0, 72, 0
4, 37620, Note_on_c, 0, 74, 88
4, 37678, Note_off_c, 0, 74, 0
4, 37680, Note_on_c, 0, 75, 88
4, 37796, Note_off_c, 0, 75, 0
4, 37800, Note_on_c, 0, 74, 88
4, 37916, Note_off_c, 0, 74, 0
4, 37920, Note_on_c, 0, 72, 88
4, 38390, Note_off_c, 0, 72, 0
4, 38460, Note_on_c, 0, 70, 88
4, 38518, Note_off_c, 0, 70, 0
4, 38520, Note_on_c, 0, 69, 88
4, 38578, Note_off_c, 0, 69, 0
4, 38580, Note_on_c, 0, 70, 88
4, 38638, Note_off_c, 0, 70, 0
4, 38640, Note_on_c, 0, 75, 88
4, 38698, Note_off_c, 0, 75, 0
4, 38700, Note_on_c, 0, 70, 88
4, 38758, Note_off_c, 0, 70, 0
4, 38760, Note_on_c, 0, 69, 88
4, 38818, Note_off_c, 0, 69, 0
4, 38820, Note_on_c, 0, 70, 88
4, 38878, Note_off_c, 0, 70, 0
4, 38880, Note_on_c, 0, 77, 88
4, 38938, Note_off_c, 0, 77, 0
4, 38940, Note_on_c, 0, 70, 88
4, 38998, Note_off_c, 0, 70, 0
4, 39000, Note_on_c, 0, 69, 88
4, 39058, Note_off_c, 0, 69, 0
4, 39060, Note_on_c, 0, 70, 88
4, 39118, Note_off_c, 0, 70, 0
4, 39120, Note_on_c, 0, 80, 88
4, 39178, Note_off_c, 0, 80, 0
4, 39180, Note_on_c, 0, 70, 88
4, 39238, Note_off_c, 0, 70, 0
4, 39240, Note_on_c, 0, 69, 88
4, 39298, Note_off_c, 0, 69, 0
4, 39300, Note_on_c, 0, 70, 88
4, 39358, Note_off_c, 0, 70, 0
4, 39360, Note_on_c, 0, 79, 88
4, 39476, Note_off_c, 0, 79, 0
4, 39480, Note_on_c, 0, 75, 88
4, 39596, Note_off_c, 0, 75, 0
4, 39600, Note_on_c, 0, 74, 88
4, 39615, Note_on_c, 0, 72, 88
4, 39615, Note_off_c, 0, 74, 0
4, 39630, Note_off_c, 0, 72, 0
4, 39630, Note_on_c, 0, 74, 88
4, 39645, Note_on_c, 0, 72, 88
4, 39645, Note_off_c, 0, 74, 0
4, 39660, Note_on_c, 0, 71, 88
4, 39660, Note_off_c, 0, 72, 0
4, 39718, Note_off_c, 0, 71, 0
4, 39720, Note_on_c, 0, 72, 88
4, 39836, Note_off_c, 0, 72, 0
4, 39840, Note_on_c, 0, 77, 88
4, 39956, Note_off_c, 0, 77, 0
4, 39960, Note_on_c, 0, 74, 88
4, 40076, Note_off_c, 0, 74, 0
4, 40080, Note_on_c, 0, 72, 88
4, 40095, Note_on_c, 0, 71, 88
4, 40095, Note_off_c, 0, 72, 0
4, 40110, Note_off_c, 0, 71, 0
4, 40110, Note_on_c, 0, 72, 88
4, 40125, Note_on_c, 0, 71, 88
4, 40125, Note_off_c, 0, 72, 0
4, 40140, Note_on_c, 0, 69, 88
4, 40140, Note_off_c, 0, 71, 0
4, 40198, Note_off_c, 0, 69, 0
4, 40200, Note_on_c, 0, 71, 88
4, 40316, Note_off_c, 0, 71, 0
4, 40320, Note_on_c, 0, 75, 88
4, 40378, Note_off_c, 0, 75, 0
4, 40380, Note_on_c, 0, 63, 88
4, 40438, Note_off_c, 0, 63, 0
4, 40440, Note_on_c, 0, 62, 88
4, 40498, Note_off_c, 0, 62, 0
4, 40500, Note_on_c, 0, 63, 88
4, 40558, Note_off_c, 0, 63, 0
4, 40560, Note_on_c, 0, 67, 88
4, 40618, Note_off_c, 0, 67, 0
4, 40620, Note_on_c, 0, 63, 88
4, 40678, Note_off_c, 0, 63, 0
4, 40680, Note_on_c, 0, 62, 88
4, 40738, Note_off_c, 0, 62, 0
4, 40740, Note_on_c, 0, 63, 88
4, 40798, Note_off_c, 0, 63, 0
4, 40800, Note_on_c, 0, 70, 88
4, 40858, Note_off_c, 0, 70, 0
4, 40860, Note_on_c, 0, 63, 88
4, 40918, Note_off_c, 0, 63, 0
4, 40920, Note_on_c, 0, 62, 88
4, 40978, Note_off_c, 0, 62, 0
4, 40980, Note_on_c, 0, 63, 88
4, 41038, Note_off_c, 0, 63, 0
4, 41040, Note_on_c, 0, 73, 88
4, 41098, Note_off_c, 0, 73, 0
4, 41100, Note_on_c, 0, 63, 88
4, 41158, Note_off_c, 0, 63, 0
4, 41160, Note_on_c, 0, 62, 88
4, 41218, Note_off_c, 0, 62, 0
4, 41220, Note_on_c, 0, 63, 88
4, 41278, Note_off_c, 0, 63, 0
4, 41280, Note_on_c, 0, 72, 88
4, 41396, Note_off_c, 0, 72, 0
4, 41400, Note_on_c, 0, 68, 88
4, 41516, Note_off_c, 0, 68, 0
4, 41520, Note_on_c, 0, 67, 88
4, 41535, Note_on_c, 0, 65, 88
4, 41535, Note_off_c, 0, 67, 0
4, 41550, Note_off_c, 0, 65, 0
4, 41550, Note_on_c, 0, 67, 88
4, 41565, Note_on_c, 0, 65, 88
4, 41565, Note_off_c, 0, 67, 0
4, 41580, Note_on_c, 0, 64, 88
4, 41580, Note_off_c, 0, 65, 0
4, 41638, Note_off_c, 0, 64, 0
4, 41640, Note_on_c, 0, 65, 88
4, 41756, Note_off_c, 0, 65, 0
4, 41760, Note_on_c, 0, 70, 88
4, 41876, Note_off_c, 0, 70, 0
4, 41880, Note_on_c, 0, 67, 88
4, 41996, Note_off_c, 0, 67, 0
4, 42000, Note_on_c, 0, 65, 88
4, 42015, Note_on_c, 0, 64, 88
4, 42015, Note_off_c, 0, 65, 0
4, 42030, Note_off_c, 0, 64, 0
4, 42030, Note_on_c, 0, 65, 88
4, 42045, Note_on_c, 0, 64, 88
4, 42045, Note_off_c, 0, 65, 0
4, 42060, Note_on_c, 0, 62, 88
4, 42060, Note_off_c, 0, 64, 0
4, 42118, Note_off_c, 0, 62, 0
4, 42120, Note_on_c, 0, 64, 88
4, 42236, Note_off_c, 0, 64, 0
4, 42240, Note_on_c, 0, 68, 88
4, 42298, Note_off_c, 0, 68, 0
4, 42300, Note_on_c, 0, 72, 88
4, 42358, Note_off_c, 0, 72, 0
4, 42360, Note_on_c, 0, 71, 88
4, 42418, Note_off_c, 0, 71, 0
4, 42420, Note_on_c, 0, 72, 88
4, 42478, Note_off_c, 0, 72, 0
4, 42480, Note_on_c, 0, 73, 88
4, 42538, Note_off_c, 0, 73, 0
4, 42540, Note_on_c, 0, 72, 88
4, 42598, Note_off_c, 0, 72, 0
4, 42600, Note_on_c, 0, 71, 88
4, 42658, Note_off_c, 0, 71, 0
4, 42660, Note_on_c, 0, 72, 88
4, 42718, Note_off_c, 0, 72, 0
4, 42720, Note_on_c, 0, 67, 88
4, 42778, Note_off_c, 0, 67, 0
4, 42780, Note_on_c, 0, 72, 88
4, 42838, Note_off_c, 0, 72, 0
4, 42840, Note_on_c, 0, 71, 88
4, 42898, Note_off_c, 0, 71, 0
4, 42900, Note_on_c, 0, 72, 88
4, 42958, Note_off_c, 0, 72, 0
4, 42960, Note_on_c, 0, 73, 88
4, 43018, Note_off_c, 0, 73, 0
4, 43020, Note_on_c, 0, 72, 88
4, 43078, Note_off_c, 0, 72, 0
4, 43080, Note_on_c, 0, 71, 88
4, 43138, Note_off_c, 0, 71, 0
4, 43140, Note_on_c, 0, 72, 88
4, 43198, Note_off_c, 0, 72, 0
4, 43200, Note_on_c, 0, 65, 88
4, 43258, Note_off_c, 0, 65, 0
4, 43260, Note_on_c, 0, 72, 88
4, 43318, Note_off_c, 0, 72, 0
4, 43320, Note_on_c, 0, 74, 88
4, 43378, Note_off_c, 0, 74, 0
4, 43380, Note_on_c, 0, 76, 88
4, 43438, Note_off_c, 0, 76, 0
4, 43440, Note_on_c, 0, 77, 88
4, 43498, Note_off_c, 0, 77, 0
4, 43500, Note_on_c, 0, 70, 88
4, 43558, Note_off_c, 0, 70, 0
4, 43560, Note_on_c, 0, 69, 88
4, 43618, Note_off_c, 0, 69, 0
4, 43620, Note_on_c, 0, 70, 88
4, 43678, Note_off_c, 0, 70, 0
4, 43680, Note_on_c, 0, 79, 88
4, 43738, Note_off_c, 0, 79, 0
4, 43740, Note_on_c, 0, 77, 88
4, 43798, Note_off_c, 0, 77, 0
4, 43800, Note_on_c, 0, 76, 88
4, 43858, Note_off_c, 0, 76, 0
4, 43860, Note_on_c, 0, 74, 88
4, 43918, Note_off_c, 0, 74, 0
4, 43920, Note_on_c, 0, 72, 88
4, 43978, Note_off_c, 0, 72, 0
4, 43980, Note_on_c, 0, 70, 88
4, 44038, Note_off_c, 0, 70, 0
4, 44040, Note_on_c, 0, 68, 88
4, 44098, Note_off_c, 0, 68, 0
4, 44100, Note_on_c, 0, 67, 88
4, 44158, Note_off_c, 0, 67, 0
4, 44160, Note_on_c, 0, 68, 88
4, 44218, Note_off_c, 0, 68, 0
4, 44220, Note_on_c, 0, 65, 88
4, 44278, Note_off_c, 0, 65, 0
4, 44280, Note_on_c, 0, 64, 88
4, 44338, Note_off_c, 0, 64, 0
4, 44340, Note_on_c, 0, 65, 88
4, 44398, Note_off_c, 0, 65, 0
4, 44400, Note_on_c, 0, 72, 88
4, 44458, Note_off_c, 0, 72, 0
4, 44460, Note_on_c, 0, 68, 88
4, 44518, Note_off_c, 0, 68, 0
4, 44520, Note_on_c, 0, 67, 88
4, 44578, Note_off_c, 0, 67, 0
4, 44580, Note_on_c, 0, 68, 88
4, 44638, Note_off_c, 0, 68, 0
4, 44640, Note_on_c, 0, 77, 88
4, 44698, Note_off_c, 0, 77, 0
4, 44700, Note_on_c, 0, 75, 88
4, 44758, Note_off_c, 0, 75, 0
4, 44760, Note_on_c, 0, 73, 88
4, 44818, Note_off_c, 0, 73, 0
4, 44820, Note_on_c, 0, 72, 88
4, 44878, Note_off_c, 0, 72, 0
4, 44880, Note_on_c, 0, 70, 88
4, 44938, Note_off_c, 0, 70, 0
4, 44940, Note_on_c, 0, 68, 88
4, 44998, Note_off_c, 0, 68, 0
4, 45000, Note_on_c, 0, 67, 88
4, 45058, Note_off_c, 0, 67, 0
4, 45060, Note_on_c, 0, 65, 88
4, 45118, Note_off_c, 0, 65, 0
4, 45120, Note_on_c, 0, 67, 88
4, 45178, Note_off_c, 0, 67, 0
4, 45180, Note_on_c, 0, 63, 88
4, 45238, Note_off_c, 0, 63, 0
4, 45240, Note_on_c, 0, 62, 88
4, 45298, Note_off_c, 0, 62, 0
4, 45300, Note_on_c, 0, 63, 88
4, 45358, Note_off_c, 0, 63, 0
4, 45360, Note_on_c, 0, 70, 88
4, 45418, Note_off_c, 0, 70, 0
4, 45420, Note_on_c, 0, 67, 88
4, 45478, Note_off_c, 0, 67, 0
4, 45480, Note_on_c, 0, 65, 88
4, 45538, Note_off_c, 0, 65, 0
4, 45540, Note_on_c, 0, 67, 88
4, 45598, Note_off_c, 0, 67, 0
4, 45600, Note_on_c, 0, 75, 88
4, 45658, Note_off_c, 0, 75, 0
4, 45660, Note_on_c, 0, 73, 88
4, 45718, Note_off_c, 0, 73, 0
4, 45720, Note_on_c, 0, 72, 88
4, 45778, Note_off_c, 0, 72, 0
4, 45780, Note_on_c, 0, 70, 88
4, 45838, Note_off_c, 0, 70, 0
4, 45840, Note_on_c, 0, 68, 88
4, 45898, Note_off_c, 0, 68, 0
4, 45900, Note_on_c, 0, 67, 88
4, 45958, Note_off_c, 0, 67, 0
4, 45960, Note_on_c, 0, 65, 88
4, 46018, Note_off_c, 0, 65, 0
4, 46020, Note_on_c, 0, 64, 88
4, 46078, Note_off_c, 0, 64, 0
4, 46080, Note_on_c, 0, 65, 88
4, 46196, Note_off_c, 0, 65, 0
4, 46200, Note_on_c, 0, 69, 88
4, 46316, Note_off_c, 0, 69, 0
4, 46320, Note_on_c, 0, 70, 88
4, 46436, Note_off_c, 0, 70, 0
4, 46440, Note_on_c, 0, 72, 88
4, 46556, Note_off_c, 0, 72, 0
4, 46560, Note_on_c, 0, 73, 88
4, 46676, Note_off_c, 0, 73, 0
4, 46680, Note_on_c, 0, 76, 88
4, 46796, Note_off_c, 0, 76, 0
4, 46800, Note_on_c, 0, 77, 88
4, 46916, Note_off_c, 0, 77, 0
4, 46920, Note_on_c, 0, 79, 88
4, 47036, Note_off_c, 0, 79, 0
4, 47040, Note_on_c, 0, 72, 88
4, 47098, Note_off_c, 0, 72, 0
4, 47100, Note_on_c, 0, 76, 88
4, 47158, Note_off_c, 0, 76, 0
4, 47160, Note_on_c, 0, 77, 88
4, 47218, Note_off_c, 0, 77, 0
4, 47220, Note_on_c, 0, 80, 88
4, 47278, Note_off_c, 0, 80, 0
4, 47280, Note_on_c, 0, 70, 88
4, 47338, Note_off_c, 0, 70, 0
4, 47340, Note_on_c, 0, 79, 88
4, 47398, Note_off_c, 0, 79, 0
4, 47400, Note_on_c, 0, 77, 88
4, 47458, Note_off_c, 0, 77, 0
4, 47460, Note_on_c, 0, 76, 88
4, 47518, Note_off_c, 0, 76, 0
4, 47520, Note_on_c, 0, 68, 88
4, 47578, Note_off_c, 0, 68, 0
4, 47580, Note_on_c, 0, 72, 88
4, 47638, Note_off_c, 0, 72, 0
4, 47640, Note_on_c, 0, 76, 88
4, 47698, Note_off_c, 0, 76, 0
4, 47700, Note_on_c, 0, 77, 88
4, 47758, Note_off_c, 0, 77, 0
4, 47760, Note_on_c, 0, 67, 88
4, 47818, Note_off_c, 0, 67, 0
4, 47820, Note_on_c, 0, 73, 88
4, 47878, Note_off_c, 0, 73, 0
4, 47880, Note_on_c, 0, 72, 88
4, 47938, Note_off_c, 0, 72, 0
4, 47940, Note_on_c, 0, 70, 88
4, 47998, Note_off_c, 0, 70, 0
4, 48000, Note_on_c, 0, 68, 88
4, 48058, Note_off_c, 0, 68, 0
4, 48060, Note_on_c, 0, 67, 88
4, 48118, Note_off_c, 0, 67, 0
4, 48120, Note_on_c, 0, 65, 88
4, 48178, Note_off_c, 0, 65, 0
4, 48180, Note_on_c, 0, 64, 88
4, 48238, Note_off_c, 0, 64, 0
4, 48240, Note_on_c, 0, 65, 88
4, 48298, Note_off_c, 0, 65, 0
4, 48300, Note_on_c, 0, 68, 88
4, 48358, Note_off_c, 0, 68, 0
4, 48360, Note_on_c, 0, 60, 88
4, 48418, Note_off_c, 0, 60, 0
4, 48420, Note_on_c, 0, 63, 88
4, 48478, Note_off_c, 0, 63, 0
4, 48480, Note_on_c, 0, 62, 88
4, 48538, Note_off_c, 0, 62, 0
4, 48540, Note_on_c, 0, 68, 88
4, 48598, Note_off_c, 0, 68, 0
4, 48600, Note_on_c, 0, 65, 88
4, 48658, Note_off_c, 0, 65, 0
4, 48660, Note_on_c, 0, 62, 88
4, 48718, Note_off_c, 0, 62, 0
4, 48720, Note_on_c, 0, 58, 88
4, 48778, Note_off_c, 0, 58, 0
4, 48960, Note_on_c, 0, 67, 88
4, 49018, Note_off_c, 0, 67, 0
4, 49020, Note_on_c, 0, 65, 88
4, 49078, Note_off_c, 0, 65, 0
4, 49080, Note_on_c, 0, 63, 88
4, 49138, Note_off_c, 0, 63, 0
4, 49140, Note_on_c, 0, 62, 88
4, 49198, Note_off_c, 0, 62, 0
4, 49200, Note_on_c, 0, 63, 88
4, 49258, Note_off_c, 0, 63, 0
4, 49260, Note_on_c, 0, 67, 88
4, 49318, Note_off_c, 0, 67, 0
4, 49320, Note_on_c, 0, 59, 88
4, 49378, Note_off_c, 0, 59, 0
4, 49380, Note_on_c, 0, 62, 88
4, 49438, Note_off_c, 0, 62, 0
4, 49440, Note_on_c, 0, 60, 88
4, 49498, Note_off_c, 0, 60, 0
4, 49500, Note_on_c, 0, 67, 88
4, 49558, Note_off_c, 0, 67, 0
4, 49560, Note_on_c, 0, 63, 88
4, 49618, Note_off_c, 0, 63, 0
4, 49620, Note_on_c, 0, 60, 88
4, 49678, Note_off_c, 0, 60, 0
4, 49680, Note_on_c, 0, 56, 88
4, 49738, Note_off_c, 0, 56, 0
4, 49920, Note_on_c, 0, 65, 88
4, 49978, Note_off_c, 0, 65, 0
4, 49980, Note_on_c, 0, 63, 88
4, 50038, Note_off_c, 0, 63, 0
4, 50040, Note_on_c, 0, 62, 88
4, 50098, Note_off_c, 0, 62, 0
4, 50100, Note_on_c, 0, 60, 88
4, 50158, Note_off_c, 0, 60, 0
4, 50160, Note_on_c, 0, 62, 88
4, 50218, Note_off_c, 0, 62, 0
4, 50220, Note_on_c, 0, 65, 88
4, 50278, Note_off_c, 0, 65, 0
4, 50280, Note_on_c, 0, 68, 88
4, 50338, Note_off_c, 0, 68, 0
4, 50340, Note_on_c, 0, 60, 88
4, 50398, Note_off_c, 0, 60, 0
4, 50400, Note_on_c, 0, 59, 88
4, 50458, Note_off_c, 0, 59, 0
4, 50460, Note_on_c, 0, 65, 88
4, 50518, Note_off_c, 0, 65, 0
4, 50520, Note_on_c, 0, 62, 88
4, 50578, Note_off_c, 0, 62, 0
4, 50580, Note_on_c, 0, 59, 88
4, 50638, Note_off_c, 0, 59, 0
4, 50640, Note_on_c, 0, 55, 88
4, 50698, Note_off_c, 0, 55, 0
4, 50700, Note_on_c, 0, 59, 88
4, 50758, Note_off_c, 0, 59, 0
4, 50760, Note_on_c, 0, 60, 88
4, 50818, Note_off_c, 0, 60, 0
4, 50820, Note_on_c, 0, 62, 88
4, 50878, Note_off_c, 0, 62, 0
4, 51000, Note_on_c, 0, 67, 88
4, 51116, Note_off_c, 0, 67, 0
4, 51120, Note_on_c, 0, 72, 88
4, 51643, Note_off_c, 0, 72, 0
4, 51660, Note_on_c, 0, 72, 88
4, 51718, Note_off_c, 0, 72, 0
4, 51720, Note_on_c, 0, 70, 88
4, 51778, Note_off_c, 0, 70, 0
4, 51780, Note_on_c, 0, 68, 88
4, 51838, Note_off_c, 0, 68, 0
4, 51840, Note_on_c, 0, 67, 88
4, 51898, Note_off_c, 0, 67, 0
4, 51900, Note_on_c, 0, 68, 88
4, 51958, Note_off_c, 0, 68, 0
4, 51960, Note_on_c, 0, 70, 88
4, 52018, Note_off_c, 0, 70, 0
4, 52020, Note_on_c, 0, 67, 88
4, 52078, Note_off_c, 0, 67, 0
4, 52080, Note_on_c, 0, 60, 88
4, 52138, Note_off_c, 0, 60, 0
4, 52140, Note_on_c, 0, 73, 88
4, 52198, Note_off_c, 0, 73, 0
4, 52200, Note_on_c, 0, 72, 88
4, 52258, Note_off_c, 0, 72, 0
4, 52260, Note_on_c, 0, 70, 88
4, 52318, Note_off_c, 0, 70, 0
4, 52320, Note_on_c, 0, 68, 88
4, 52378, Note_off_c, 0, 68, 0
4, 52380, Note_on_c, 0, 70, 88
4, 52438, Note_off_c, 0, 70, 0
4, 52440, Note_on_c, 0, 72, 88
4, 52498, Note_off_c, 0, 72, 0
4, 52500, Note_on_c, 0, 68, 88
4, 52558, Note_off_c, 0, 68, 0
4, 52560, Note_on_c, 0, 62, 88
4, 52618, Note_off_c, 0, 62, 0
4, 52620, Note_on_c, 0, 75, 88
4, 52678, Note_off_c, 0, 75, 0
4, 52680, Note_on_c, 0, 74, 88
4, 52738, Note_off_c, 0, 74, 0
4, 52740, Note_on_c, 0, 72, 88
4, 52798, Note_off_c, 0, 72, 0
4, 52800, Note_on_c, 0, 71, 88
4, 52858, Note_off_c, 0, 71, 0
4, 52860, Note_on_c, 0, 67, 88
4, 52918, Note_off_c, 0, 67, 0
4, 52920, Note_on_c, 0, 72, 88
4, 52978, Note_off_c, 0, 72, 0
4, 52980, Note_on_c, 0, 74, 88
4, 53038, Note_off_c, 0, 74, 0
4, 53040, Note_on_c, 0, 75, 88
4, 53156, Note_off_c, 0, 75, 0
4, 53160, Note_on_c, 0, 74, 88
4, 53276, Note_off_c, 0, 74, 0
4, 53280, Note_on_c, 0, 72, 88
4, 53750, Note_off_c, 0, 72, 0
4, 53750, End_track
5, 0, Start_track
5, 0, Title_t, "Track 2"
5, 0, Program_c, 1, 6
5, 10680, Note_on_c, 1, 72, 88
5, 10738, Note_off_c, 1, 72, 0
5, 10740, Note_on_c, 1, 65, 88
5, 10798, Note_off_c, 1, 65, 0
5, 10800, Note_on_c, 1, 67, 88
5, 10916, Note_off_c, 1, 67, 0
5, 10920, Note_on_c, 1, 65, 88
5, 11036, Note_off_c, 1, 65, 0
5, 11040, Note_on_c, 1, 63, 88
5, 11510, Note_off_c, 1, 63, 0
5, 22200, Note_on_c, 1, 72, 88
5, 22258, Note_off_c, 1, 72, 0
5, 22260, Note_on_c, 1, 65, 88
5, 22318, Note_off_c, 1, 65, 0
5, 22320, Note_on_c, 1, 67, 88
5, 22436, Note_off_c, 1, 67, 0
5, 22440, Note_on_c, 1, 65, 88
5, 22556, Note_off_c, 1, 65, 0
5, 22560, Note_on_c, 1, 63, 88
5, 23030, Note_off_c, 1, 63, 0
5, 37560, Note_on_c, 1, 72, 88
5, 37794, Note_off_c, 1, 72, 0
5, 37800, Note_on_c, 1, 71, 88
5, 37916, Note_off_c, 1, 71, 0
5, 37920, Note_on_c, 1, 67, 88
5, 38390, Note_off_c, 1, 67, 0
5, 52920, Note_on_c, 1, 72, 88
5, 53154, Note_off_c, 1, 72, 0
5, 53160, Note_on_c, 1, 71, 88
5, 53276, Note_off_c, 1, 71, 0
5, 53280, Note_on_c, 1, 67, 88
5, 53750, Note_off_c, 1, 67, 0
5, 53750, End_track
6, 0, Start_track
6, 0, Title_t, "Track 3"
6, 0, Program_c, 2, 6
6, 10560, Note_on_c, 2, 63, 88
6, 10843, Note_off_c, 2, 63, 0
6, 10860, Note_on_c, 2, 63, 88
6, 10976, Note_off_c, 2, 63, 0
6, 10980, Note_on_c, 2, 62, 88
6, 11038, Note_off_c, 2, 62, 0
6, 11040, Note_on_c, 2, 58, 88
6, 11510, Note_off_c, 2, 58, 0
6, 22080, Note_on_c, 2, 63, 88
6, 22363, Note_off_c, 2, 63, 0
6, 22380, Note_on_c, 2, 63, 88
6, 22496, Note_off_c, 2, 63, 0
6, 22500, Note_on_c, 2, 62, 88
6, 22558, Note_off_c, 2, 62, 0
6, 22560, Note_on_c, 2, 58, 88
6, 23030, Note_off_c, 2, 58, 0
6, 37740, Note_on_c, 2, 67, 88
6, 37856, Note_off_c, 2, 67, 0
6, 37860, Note_on_c, 2, 65, 88
6, 37918, Note_off_c, 2, 65, 0
6, 37920, Note_on_c, 2, 63, 88
6, 38390, Note_off_c, 2, 63, 0
6, 53100, Note_on_c, 2, 67, 88
6, 53216, Note_off_c, 2, 67, 0
6, 53220, Note_on_c, 2, 65, 88
6, 53278, Note_off_c, 2, 65, 0
6, 53280, Note_on_c, 2, 63, 88
6, 53750, Note_off_c, 2, 63, 0
6, 53750, End_track
7, 0, Start_track
7, 0, Title_t, "Track 4"
7, 0, Program_c, 3, 6
7, 0, Note_on_c, 3, 48, 88
7, 116, Note_off_c, 3, 48, 0
7, 120, Note_on_c, 3, 60, 88
7, 236, Note_off_c, 3, 60, 0
7, 240, Note_on_c, 3, 53, 88
7, 356, Note_off_c, 3, 53, 0
7, 360, Note_on_c, 3, 60, 88
7, 476, Note_off_c, 3, 60, 0
7, 480, Note_on_c, 3, 51, 88
7, 596, Note_off_c, 3, 51, 0
7, 600, Note_on_c, 3, 60, 88
7, 716, Note_off_c, 3, 60, 0
7, 720, Note_on_c, 3, 50, 88
7, 836, Note_off_c, 3, 50, 0
7, 840, Note_on_c, 3, 59, 88
7, 956, Note_off_c, 3, 59, 0
7, 960, Note_on_c, 3, 48, 88
7, 1018, Note_off_c, 3, 48, 0
7, 1020, Note_on_c, 3, 55, 88
7, 1078, Note_off_c, 3, 55, 0
7, 1080, Note_on_c, 3, 53, 88
7, 1138, Note_off_c, 3, 53, 0
7, 1140, Note_on_c, 3, 55, 88
7, 1198, Note_off_c, 3, 55, 0
7, 1200, Note_on_c, 3, 56, 88
7, 1258, Note_off_c, 3, 56, 0
7, 1260, Note_on_c, 3, 53, 88
7, 1318, Note_off_c, 3, 53, 0
7, 1320, Note_on_c, 3, 51, 88
7, 1378, Note_off_c, 3, 51, 0
7, 1380, Note_on_c, 3, 53, 88
7, 1438, Note_off_c, 3, 53, 0
7, 1440, Note_on_c, 3, 55, 88
7, 1498, Note_off_c, 3, 55, 0
7, 1500, Note_on_c, 3, 51, 88
7, 1558, Note_off_c, 3, 51, 0
7, 1560, Note_on_c, 3, 50, 88
7, 1618, Note_off_c, 3, 50, 0
7, 1620, Note_on_c, 3, 51, 88
7, 1678, Note_off_c, 3, 51, 0
7, 1680, Note_on_c, 3, 53, 88
7, 1738, Note_off_c, 3, 53, 0
7, 1740, Note_on_c, 3, 50, 88
7, 1798, Note_off_c, 3, 50, 0
7, 1800, Note_on_c, 3, 48, 88
7, 1858, Note_off_c, 3, 48, 0
7, 1860, Note_on_c, 3, 50, 88
7, 1918, Note_off_c, 3, 50, 0
7, 1920, Note_on_c, 3, 51, 88
7, 2036, Note_off_c, 3, 51, 0
7, 2040, Note_on_c, 3, 48, 88
7, 2156, Note_off_c, 3, 48, 0
7, 2160, Note_on_c, 3, 53, 88
7, 2276, Note_off_c, 3, 53, 0
7, 2280, Note_on_c, 3, 50, 88
7, 2396, Note_off_c, 3, 50, 0
7, 2400, Note_on_c, 3, 55, 88
7, 2516, Note_off_c, 3, 55, 0
7, 2520, Note_on_c, 3, 53, 88
7, 2636, Note_off_c, 3, 53, 0
7, 2640, Note_on_c, 3, 55, 88
7, 2756, Note_off_c, 3, 55, 0
7, 2760, Note_on_c, 3, 51, 88
7, 2876, Note_off_c, 3, 51, 0
7, 2880, Note_on_c, 3, 56, 88
7, 2996, Note_off_c, 3, 56, 0
7, 3000, Note_on_c, 3, 55, 88
7, 3116, Note_off_c, 3, 55, 0
7, 3120, Note_on_c, 3, 57, 88
7, 3236, Note_off_c, 3, 57, 0
7, 3240, Note_on_c, 3, 53, 88
7, 3356, Note_off_c, 3, 53, 0
7, 3360, Note_on_c, 3, 58, 88
7, 3476, Note_off_c, 3, 58, 0
7, 3480, Note_on_c, 3, 57, 88
7, 3596, Note_off_c, 3, 57, 0
7, 3600, Note_on_c, 3, 59, 88
7, 3716, Note_off_c, 3, 59, 0
7, 3720, Note_on_c, 3, 55, 88
7, 3836, Note_off_c, 3, 55, 0
7, 3840, Note_on_c, 3, 60, 88
7, 3898, Note_off_c, 3, 60, 0
7, 3900, Note_on_c, 3, 68, 88
7, 3958, Note_off_c, 3, 68, 0
7, 3960, Note_on_c, 3, 67, 88
7, 4018, Note_off_c, 3, 67, 0
7, 4020, Note_on_c, 3, 68, 88
7, 4078, Note_off_c, 3, 68, 0
7, 4080, Note_on_c, 3, 58, 88
7, 4138, Note_off_c, 3, 58, 0
7, 4140, Note_on_c, 3, 67, 88
7, 4198, Note_off_c, 3, 67, 0
7, 4200, Note_on_c, 3, 65, 88
7, 4258, Note_off_c, 3, 65, 0
7, 4260, Note_on_c, 3, 67, 88
7, 4318, Note_off_c, 3, 67, 0
7, 4320, Note_on_c, 3, 56, 88
7, 4436, Note_off_c, 3, 56, 0
7, 4620, Note_on_c, 3, 63, 88
7, 4678, Note_off_c, 3, 63, 0
7, 4680, Note_on_c, 3, 62, 88
7, 4738, Note_off_c, 3, 62, 0
7, 4740, Note_on_c, 3, 60, 88
7, 4798, Note_off_c, 3, 60, 0
7, 4800, Note_on_c, 3, 58, 88
7, 4858, Note_off_c, 3, 58, 0
7, 4860, Note_on_c, 3, 67, 88
7, 4918, Note_off_c, 3, 67, 0
7, 4920, Note_on_c, 3, 65, 88
7, 4978, Note_off_c, 3, 65, 0
7, 4980, Note_on_c, 3, 67, 88
7, 5038, Note_off_c, 3, 67, 0
7, 5040, Note_on_c, 3, 56, 88
7, 5098, Note_off_c, 3, 56, 0
7, 5100, Note_on_c, 3, 65, 88
7, 5158, Note_off_c, 3, 65, 0
7, 5160, Note_on_c, 3, 63, 88
7, 5218, Note_off_c, 3, 63, 0
7, 5220, Note_on_c, 3, 65, 88
7, 5278, Note_off_c, 3, 65, 0
7, 5280, Note_on_c, 3, 55, 88
7, 5396, Note_off_c, 3, 55, 0
7, 5580, Note_on_c, 3, 61, 88
7, 5638, Note_off_c, 3, 61, 0
7, 5640, Note_on_c, 3, 60, 88
7, 5698, Note_off_c, 3, 60, 0
7, 5700, Note_on_c, 3, 58, 88
7, 5758, Note_off_c, 3, 58, 0
7, 5760, Note_on_c, 3, 56, 88
7, 5818, Note_off_c, 3, 56, 0
7, 5820, Note_on_c, 3, 65, 88
7, 5878, Note_off_c, 3, 65, 0
7, 5880, Note_on_c, 3, 63, 88
7, 5938, Note_off_c, 3, 63, 0
7, 5940, Note_on_c, 3, 65, 88
7, 5998, Note_off_c, 3, 65, 0
7, 6000, Note_on_c, 3, 55, 88
7, 6058, Note_off_c, 3, 55, 0
7, 6060, Note_on_c, 3, 63, 88
7, 6118, Note_off_c, 3, 63, 0
7, 6120, Note_on_c, 3, 62, 88
7, 6178, Note_off_c, 3, 62, 0
7, 6180, Note_on_c, 3, 63, 88
7, 6238, Note_off_c, 3, 63, 0
7, 6240, Note_on_c, 3, 53, 88
7, 6298, Note_off_c, 3, 53, 0
7, 6300, Note_on_c, 3, 62, 88
7, 6358, Note_off_c, 3, 62, 0
7, 6360, Note_on_c, 3, 60, 88
7, 6418, Note_off_c, 3, 60, 0
7, 6420, Note_on_c, 3, 62, 88
7, 6478, Note_off_c, 3, 62, 0
7, 6480, Note_on_c, 3, 51, 88
7, 6538, Note_off_c, 3, 51, 0
7, 6540, Note_on_c, 3, 60, 88
7, 6598, Note_off_c, 3, 60, 0
7, 6600, Note_on_c, 3, 58, 88
7, 6658, Note_off_c, 3, 58, 0
7, 6660, Note_on_c, 3, 60, 88
7, 6718, Note_off_c, 3, 60, 0
7, 6720, Note_on_c, 3, 50, 88
7, 6778, Note_off_c, 3, 50, 0
7, 6780, Note_on_c, 3, 58, 88
7, 6838, Note_off_c, 3, 58, 0
7, 6840, Note_on_c, 3, 56, 88
7, 6898, Note_off_c, 3, 56, 0
7, 6900, Note_on_c, 3, 58, 88
7, 6958, Note_off_c, 3, 58, 0
7, 6960, Note_on_c, 3, 48, 88
7, 7018, Note_off_c, 3, 48, 0
7, 7020, Note_on_c, 3, 56, 88
7, 7078, Note_off_c, 3, 56, 0
7, 7080, Note_on_c, 3, 55, 88
7, 7138, Note_off_c, 3, 55, 0
7, 7140, Note_on_c, 3, 56, 88
7, 7198, Note_off_c, 3, 56, 0
7, 7200, Note_on_c, 3, 46, 88
7, 7316, Note_off_c, 3, 46, 0
7, 7320, Note_on_c, 3, 58, 88
7, 7436, Note_off_c, 3, 58, 0
7, 7560, Note_on_c, 3, 50, 88
7, 7676, Note_off_c, 3, 50, 0
7, 7680, Note_on_c, 3, 51, 88
7, 7796, Note_off_c, 3, 51, 0
7, 7800, Note_on_c, 3, 48, 88
7, 7916, Note_off_c, 3, 48, 0
7, 7920, Note_on_c, 3, 44, 88
7, 8036, Note_off_c, 3, 44, 0
7, 8040, Note_on_c, 3, 46, 88
7, 8156, Note_off_c, 3, 46, 0
7, 8160, Note_on_c, 3, 39, 88
7, 8276, Note_off_c, 3, 39, 0
7, 8280, Note_on_c, 3, 51, 88
7, 8396, Note_off_c, 3, 51, 0
7, 8400, Note_on_c, 3, 44, 88
7, 8516, Note_off_c, 3, 44, 0
7, 8520, Note_on_c, 3, 51, 88
7, 8636, Note_off_c, 3, 51, 0
7, 8640, Note_on_c, 3, 43, 88
7, 8756, Note_off_c, 3, 43, 0
7, 8760, Note_on_c, 3, 51, 88
7, 8876, Note_off_c, 3, 51, 0
7, 8880, Note_on_c, 3, 41, 88
7, 8996, Note_off_c, 3, 41, 0
7, 9000, Note_on_c, 3, 50, 88
7, 9116, Note_off_c, 3, 50, 0
7, 9120, Note_on_c, 3, 51, 88
7, 9178, Note_off_c, 3, 51, 0
7, 9180, Note_on_c, 3, 55, 88
7, 9238, Note_off_c, 3, 55, 0
7, 9240, Note_on_c, 3, 53, 88
7, 9298, Note_off_c, 3, 53, 0
7, 9300, Note_on_c, 3, 55, 88
7, 9358, Note_off_c, 3, 55, 0
7, 9360, Note_on_c, 3, 56, 88
7, 9418, Note_off_c, 3, 56, 0
7, 9420, Note_on_c, 3, 53, 88
7, 9478, Note_off_c, 3, 53, 0
7, 9480, Note_on_c, 3, 51, 88
7, 9538, Note_off_c, 3, 51, 0
7, 9540, Note_on_c, 3, 53, 88
7, 9598, Note_off_c, 3, 53, 0
7, 9600, Note_on_c, 3, 55, 88
7, 9658, Note_off_c, 3, 55, 0
7, 9660, Note_on_c, 3, 51, 88
7, 9718, Note_off_c, 3, 51, 0
7, 9720, Note_on_c, 3, 50, 88
7, 9778, Note_off_c, 3, 50, 0
7, 9780, Note_on_c, 3, 51, 88
7, 9838, Note_off_c, 3, 51, 0
7, 9840, Note_on_c, 3, 53, 88
7, 9898, Note_off_c, 3, 53, 0
7, 9900, Note_on_c, 3, 50, 88
7, 9958, Note_off_c, 3, 50, 0
7, 9960, Note_on_c, 3, 48, 88
7, 10018, Note_off_c, 3, 48, 0
7, 10020, Note_on_c, 3, 50, 88
7, 10078, Note_off_c, 3, 50, 0
7, 10080, Note_on_c, 3, 51, 88
7, 10196, Note_off_c, 3, 51, 0
7, 10200, Note_on_c, 3, 55, 88
7, 10316, Note_off_c, 3, 55, 0
7, 10320, Note_on_c, 3, 56, 88
7, 10436, Note_off_c, 3, 56, 0
7, 10440, Note_on_c, 3, 58, 88
7, 10556, Note_off_c, 3, 58, 0
7, 10560, Note_on_c, 3, 60, 88
7, 10676, Note_off_c, 3, 60, 0
7, 10680, Note_on_c, 3, 56, 88
7, 10796, Note_off_c, 3, 56, 0
7, 10800, Note_on_c, 3, 58, 88
7, 10916, Note_off_c, 3, 58, 0
7, 10920, Note_on_c, 3, 46, 88
7, 11036, Note_off_c, 3, 46, 0
7, 11100, Note_on_c, 3, 51, 88
7, 11158, Note_off_c, 3, 51, 0
7, 11160, Note_on_c, 3, 46, 88
7, 11218, Note_off_c, 3, 46, 0
7, 11220, Note_on_c, 3, 43, 88
7, 11278, Note_off_c, 3, 43, 0
7, 11280, Note_on_c, 3, 39, 88
7, 11514, Note_off_c, 3, 39, 0
7, 11520, Note_on_c, 3, 48, 88
7, 11636, Note_off_c, 3, 48, 0
7, 11640, Note_on_c, 3, 60, 88
7, 11756, Note_off_c, 3, 60, 0
7, 11760, Note_on_c, 3, 53, 88
7, 11876, Note_off_c, 3, 53, 0
7, 11880, Note_on_c, 3, 60, 88
7, 11996, Note_off_c, 3, 60, 0
7, 12000, Note_on_c, 3, 51, 88
7, 12116, Note_off_c, 3, 51, 0
7, 12120, Note_on_c, 3, 60, 88
7, 12236, Note_off_c, 3, 60, 0
7, 12240, Note_on_c, 3, 50, 88
7, 12356, Note_off_c, 3, 50, 0
7, 12360, Note_on_c, 3, 59, 88
7, 12476, Note_off_c, 3, 59, 0
7, 12480, Note_on_c, 3, 48, 88
7, 12538, Note_off_c, 3, 48, 0
7, 12540, Note_on_c, 3, 55, 88
7, 12598, Note_off_c, 3, 55, 0
7, 12600, Note_on_c, 3, 53, 88
7, 12658, Note_off_c, 3, 53, 0
7, 12660, Note_on_c, 3, 55, 88
7, 12718, Note_off_c, 3, 55, 0
7, 12720, Note_on_c, 3, 56, 88
7, 12778, Note_off_c, 3, 56, 0
7, 12780, Note_on_c, 3, 53, 88
7, 12838, Note_off_c, 3, 53, 0
7, 12840, Note_on_c, 3, 51, 88
7, 12898, Note_off_c, 3, 51, 0
7, 12900, Note_on_c, 3, 53, 88
7, 12958, Note_off_c, 3, 53, 0
7, 12960, Note_on_c, 3, 55, 88
7, 13018, Note_off_c, 3, 55, 0
7, 13020, Note_on_c, 3, 51, 88
7, 13078, Note_off_c, 3, 51, 0
7, 13080, Note_on_c, 3, 50, 88
7, 13138, Note_off_c, 3, 50, 0
7, 13140, Note_on_c, 3, 51, 88
7, 13198, Note_off_c, 3, 51, 0
7, 13200, Note_on_c, 3, 53, 88
7, 13258, Note_off_c, 3, 53, 0
7, 13260, Note_on_c, 3, 50, 88
7, 13318, Note_off_c, 3, 50, 0
7, 13320, Note_on_c, 3, 48, 88
7, 13378, Note_off_c, 3, 48, 0
7, 13380, Note_on_c, 3, 50, 88
7, 13438, Note_off_c, 3, 50, 0
7, 13440, Note_on_c, 3, 51, 88
7, 13556, Note_off_c, 3, 51, 0
7, 13560, Note_on_c, 3, 48, 88
7, 13676, Note_off_c, 3, 48, 0
7, 13680, Note_on_c, 3, 53, 88
7, 13796, Note_off_c, 3, 53, 0
7, 13800, Note_on_c, 3, 50, 88
7, 13916, Note_off_c, 3, 50, 0
7, 13920, Note_on_c, 3, 55, 88
7, 14036, Note_off_c, 3, 55, 0
7, 14040, Note_on_c, 3, 53, 88
7, 14156, Note_off_c, 3, 53, 0
7, 14160, Note_on_c, 3, 55, 88
7, 14276, Note_off_c, 3, 55, 0
7, 14280, Note_on_c, 3, 51, 88
7, 14396, Note_off_c, 3, 51, 0
7, 14400, Note_on_c, 3, 56, 88
7, 14516, Note_off_c, 3, 56, 0
7, 14520, Note_on_c, 3, 55, 88
7, 14636, Note_off_c, 3, 55, 0
7, 14640, Note_on_c, 3, 57, 88
7, 14756, Note_off_c, 3, 57, 0
7, 14760, Note_on_c, 3, 53, 88
7, 14876, Note_off_c, 3, 53, 0
7, 14880, Note_on_c, 3, 58, 88
7, 14996, Note_off_c, 3, 58, 0
7, 15000, Note_on_c, 3, 57, 88
7, 15116, Note_off_c, 3, 57, 0
7, 15120, Note_on_c, 3, 59, 88
7, 15236, Note_off_c, 3, 59, 0
7, 15240, Note_on_c, 3, 55, 88
7, 15356, Note_off_c, 3, 55, 0
7, 15360, Note_on_c, 3, 60, 88
7, 15418, Note_off_c, 3, 60, 0
7, 15420, Note_on_c, 3, 68, 88
7, 15478, Note_off_c, 3, 68, 0
7, 15480, Note_on_c, 3, 67, 88
7, 15538, Note_off_c, 3, 67, 0
7, 15540, Note_on_c, 3, 68, 88
7, 15598, Note_off_c, 3, 68, 0
7, 15600, Note_on_c, 3, 58, 88
7, 15658, Note_off_c, 3, 58, 0
7, 15660, Note_on_c, 3, 67, 88
7, 15718, Note_off_c, 3, 67, 0
7, 15720, Note_on_c, 3, 65, 88
7, 15778, Note_off_c, 3, 65, 0
7, 15780, Note_on_c, 3, 67, 88
7, 15838, Note_off_c, 3, 67, 0
7, 15840, Note_on_c, 3, 56, 88
7, 15956, Note_off_c, 3, 56, 0
7, 16140, Note_on_c, 3, 63, 88
7, 16198, Note_off_c, 3, 63, 0
7, 16200, Note_on_c, 3, 62, 88
7, 16258, Note_off_c, 3, 62, 0
7, 16260, Note_on_c, 3, 60, 88
7, 16318, Note_off_c, 3, 60, 0
7, 16320, Note_on_c, 3, 58, 88
7, 16378, Note_off_c, 3, 58, 0
7, 16380, Note_on_c, 3, 67, 88
7, 16438, Note_off_c, 3, 67, 0
7, 16440, Note_on_c, 3, 65, 88
7, 16498, Note_off_c, 3, 65, 0
7, 16500, Note_on_c, 3, 67, 88
7, 16558, Note_off_c, 3, 67, 0
7, 16560, Note_on_c, 3, 56, 88
7, 16618, Note_off_c, 3, 56, 0
7, 16620, Note_on_c, 3, 65, 88
7, 16678, Note_off_c, 3, 65, 0
7, 16680, Note_on_c, 3, 63, 88
7, 16738, Note_off_c, 3, 63, 0
7, 16740, Note_on_c, 3, 65, 88
7, 16798, Note_off_c, 3, 65, 0
7, 16800, Note_on_c, 3, 55, 88
7, 16916, Note_off_c, 3, 55, 0
7, 17100, Note_on_c, 3, 61, 88
7, 17158, Note_off_c, 3, 61, 0
7, 17160, Note_on_c, 3, 60, 88
7, 17218, Note_off_c, 3, 60, 0
7, 17220, Note_on_c, 3, 58, 88
7, 17278, Note_off_c, 3, 58, 0
7, 17280, Note_on_c, 3, 56, 88
7, 17338, Note_off_c, 3, 56, 0
7, 17340, Note_on_c, 3, 65, 88
7, 17398, Note_off_c, 3, 65, 0
7, 17400, Note_on_c, 3, 63, 88
7, 17458, Note_off_c, 3, 63, 0
7, 17460, Note_on_c, 3, 65, 88
7, 17518, Note_off_c, 3, 65, 0
7, 17520, Note_on_c, 3, 55, 88
7, 17578, Note_off_c, 3, 55, 0
7, 17580, Note_on_c, 3, 63, 88
7, 17638, Note_off_c, 3, 63, 0
7, 17640, Note_on_c, 3, 62, 88
7, 17698, Note_off_c, 3, 62, 0
7, 17700, Note_on_c, 3, 63, 88
7, 17758, Note_off_c, 3, 63, 0
7, 17760, Note_on_c, 3, 53, 88
7, 17818, Note_off_c, 3, 53, 0
7, 17820, Note_on_c, 3, 62, 88
7, 17878, Note_off_c, 3, 62, 0
7, 17880, Note_on_c, 3, 60, 88
7, 17938, Note_off_c, 3, 60, 0
7, 17940, Note_on_c, 3, 62, 88
7, 17998, Note_off_c, 3, 62, 0
7, 18000, Note_on_c, 3, 51, 88
7, 18058, Note_off_c, 3, 51, 0
7, 18060, Note_on_c, 3, 60, 88
7, 18118, Note_off_c, 3, 60, 0
7, 18120, Note_on_c, 3, 58, 88
7, 18178, Note_off_c, 3, 58, 0
7, 18180, Note_on_c, 3, 60, 88
7, 18238, Note_off_c, 3, 60, 0
7, 18240, Note_on_c, 3, 50, 88
7, 18298, Note_off_c, 3, 50, 0
7, 18300, Note_on_c, 3, 58, 88
7, 18358, Note_off_c, 3, 58, 0
7, 18360, Note_on_c, 3, 56, 88
7, 18418, Note_off_c, 3, 56, 0
7, 18420, Note_on_c, 3, 58, 88
7, 18478, Note_off_c, 3, 58, 0
7, 18480, Note_on_c, 3, 48, 88
7, 18538, Note_off_c, 3, 48, 0
7, 18540, Note_on_c, 3, 56, 88
7, 18598, Note_off_c, 3, 56, 0
7, 18600, Note_on_c, 3, 55, 88
7, 18658, Note_off_c, 3, 55, 0
7, 18660, Note_on_c, 3, 56, 88
7, 18718, Note_off_c, 3, 56, 0
7, 18720, Note_on_c, 3, 46, 88
7, 18836, Note_off_c, 3, 46, 0
7, 18840, Note_on_c, 3, 58, 88
7, 18956, Note_off_c, 3, 58, 0
7, 19080, Note_on_c, 3, 50, 88
7, 19196, Note_off_c, 3, 50, 0
7, 19200, Note_on_c, 3, 51, 88
7, 19316, Note_off_c, 3, 51, 0
7, 19320, Note_on_c, 3, 48, 88
7, 19436, Note_off_c, 3, 48, 0
7, 19440, Note_on_c, 3, 44, 88
7, 19556, Note_off_c, 3, 44, 0
7, 19560, Note_on_c, 3, 46, 88
7, 19676, Note_off_c, 3, 46, 0
7, 19680, Note_on_c, 3, 39, 88
7, 19796, Note_off_c, 3, 39, 0
7, 19800, Note_on_c, 3, 51, 88
7, 19916, Note_off_c, 3, 51, 0
7, 19920, Note_on_c, 3, 44, 88
7, 20036, Note_off_c, 3, 44, 0
7, 20040, Note_on_c, 3, 51, 88
7, 20156, Note_off_c, 3, 51, 0
7, 20160, Note_on_c, 3, 43, 88
7, 20276, Note_off_c, 3, 43, 0
7, 20280, Note_on_c, 3, 51, 88
7, 20396, Note_off_c, 3, 51, 0
7, 20400, Note_on_c, 3, 41, 88
7, 20516, Note_off_c, 3, 41, 0
7, 20520, Note_on_c, 3, 50, 88
7, 20636, Note_off_c, 3, 50, 0
7, 20640, Note_on_c, 3, 51, 88
7, 20698, Note_off_c, 3, 51, 0
7, 20700, Note_on_c, 3, 55, 88
7, 20758, Note_off_c, 3, 55, 0
7, 20760, Note_on_c, 3, 53, 88
7, 20818, Note_off_c, 3, 53, 0
7, 20820, Note_on_c, 3, 55, 88
7, 20878, Note_off_c, 3, 55, 0
7, 20880, Note_on_c, 3, 56, 88
7, 20938, Note_off_c, 3, 56, 0
7, 20940, Note_on_c, 3, 53, 88
7, 20998, Note_off_c, 3, 53, 0
7, 21000, Note_on_c, 3, 51, 88
7, 21058, Note_off_c, 3, 51, 0
7, 21060, Note_on_c, 3, 53, 88
7, 21118, Note_off_c, 3, 53, 0
7, 21120, Note_on_c, 3, 55, 88
7, 21178, Note_off_c, 3, 55, 0
7, 21180, Note_on_c, 3, 51, 88
7, 21238, Note_off_c, 3, 51, 0
7, 21240, Note_on_c, 3, 50, 88
7, 21298, Note_off_c, 3, 50, 0
7, 21300, Note_on_c, 3, 51, 88
7, 21358, Note_off_c, 3, 51, 0
7, 21360, Note_on_c, 3, 53, 88
7, 21418, Note_off_c, 3, 53, 0
7, 21420, Note_on_c, 3, 50, 88
7, 21478, Note_off_c, 3, 50, 0
7, 21480, Note_on_c, 3, 48, 88
7, 21538, Note_off_c, 3, 48, 0
7, 21540, Note_on_c, 3, 50, 88
7, 21598, Note_off_c, 3, 50, 0
7, 21600, Note_on_c, 3, 51, 88
7, 21716, Note_off_c, 3, 51, 0
7, 21720, Note_on_c, 3, 55, 88
7, 21836, Note_off_c, 3, 55, 0
7, 21840, Note_on_c, 3, 56, 88
7, 21956, Note_off_c, 3, 56, 0
7, 21960, Note_on_c, 3, 58, 88
7, 22076, Note_off_c, 3, 58, 0
7, 22080, Note_on_c, 3, 60, 88
7, 22196, Note_off_c, 3, 60, 0
7, 22200, Note_on_c, 3, 56, 88
7, 22316, Note_off_c, 3, 56, 0
7, 22320, Note_on_c, 3, 58, 88
7, 22436, Note_off_c, 3, 58, 0
7, 22440, Note_on_c, 3, 46, 88
7, 22556, Note_off_c, 3, 46, 0
7, 22620, Note_on_c, 3, 51, 88
7, 22678, Note_off_c, 3, 51, 0
7, 22680, Note_on_c, 3, 46, 88
7, 22738, Note_off_c, 3, 46, 0
7, 22740, Note_on_c, 3, 43, 88
7, 22798, Note_off_c, 3, 43, 0
7, 22800, Note_on_c, 3, 39, 88
7, 23034, Note_off_c, 3, 39, 0
7, 23040, Note_on_c, 3, 51, 88
7, 23156, Note_off_c, 3, 51, 0
7, 23160, Note_on_c, 3, 53, 88
7, 23276, Note_off_c, 3, 53, 0
7, 23280, Note_on_c, 3, 55, 88
7, 23396, Note_off_c, 3, 55, 0
7, 23400, Note_on_c, 3, 51, 88
7, 23516, Note_off_c, 3, 51, 0
7, 23520, Note_on_c, 3, 50, 88
7, 23636, Note_off_c, 3, 50, 0
7, 23640, Note_on_c, 3, 48, 88
7, 23756, Note_off_c, 3, 48, 0
7, 23760, Note_on_c, 3, 50, 88
7, 23876, Note_off_c, 3, 50, 0
7, 23880, Note_on_c, 3, 46, 88
7, 23996, Note_off_c, 3, 46, 0
7, 24000, Note_on_c, 3, 51, 88
7, 24058, Note_off_c, 3, 51, 0
7, 24060, Note_on_c, 3, 55, 88
7, 24118, Note_off_c, 3, 55, 0
7, 24120, Note_on_c, 3, 56, 88
7, 24178, Note_off_c, 3, 56, 0
7, 24180, Note_on_c, 3, 55, 88
7, 24238, Note_off_c, 3, 55, 0
7, 24240, Note_on_c, 3, 44, 88
7, 24298, Note_off_c, 3, 44, 0
7, 24300, Note_on_c, 3, 55, 88
7, 24358, Note_off_c, 3, 55, 0
7, 24360, Note_on_c, 3, 56, 88
7, 24418, Note_off_c, 3, 56, 0
7, 24420, Note_on_c, 3, 55, 88
7, 24478, Note_off_c, 3, 55, 0
7, 24480, Note_on_c, 3, 50, 88
7, 24538, Note_off_c, 3, 50, 0
7, 24540, Note_on_c, 3, 53, 88
7, 24598, Note_off_c, 3, 53, 0
7, 24600, Note_on_c, 3, 55, 88
7, 24658, Note_off_c, 3, 55, 0
7, 24660, Note_on_c, 3, 53, 88
7, 24718, Note_off_c, 3, 53, 0
7, 24720, Note_on_c, 3, 43, 88
7, 24778, Note_off_c, 3, 43, 0
7, 24780, Note_on_c, 3, 53, 88
7, 24838, Note_off_c, 3, 53, 0
7, 24840, Note_on_c, 3, 55, 88
7, 24898, Note_off_c, 3, 55, 0
7, 24900, Note_on_c, 3, 53, 88
7, 24958, Note_off_c, 3, 53, 0
7, 24960, Note_on_c, 3, 48, 88
7, 25076, Note_off_c, 3, 48, 0
7, 25080, Note_on_c, 3, 60, 88
7, 25196, Note_off_c, 3, 60, 0
7, 25200, Note_on_c, 3, 58, 88
7, 25316, Note_off_c, 3, 58, 0
7, 25320, Note_on_c, 3, 56, 88
7, 25436, Note_off_c, 3, 56, 0
7, 25440, Note_on_c, 3, 55, 88
7, 25556, Note_off_c, 3, 55, 0
7, 25560, Note_on_c, 3, 53, 88
7, 25676, Note_off_c, 3, 53, 0
7, 25680, Note_on_c, 3, 55, 88
7, 25796, Note_off_c, 3, 55, 0
7, 25800, Note_on_c, 3, 51, 88
7, 25916, Note_off_c, 3, 51, 0
7, 25920, Note_on_c, 3, 56, 88
7, 25978, Note_off_c, 3, 56, 0
7, 25980, Note_on_c, 3, 60, 88
7, 26038, Note_off_c, 3, 60, 0
7, 26040, Note_on_c, 3, 61, 88
7, 26098, Note_off_c, 3, 61, 0
7, 26100, Note_on_c, 3, 60, 88
7, 26158, Note_off_c, 3, 60, 0
7, 26160, Note_on_c, 3, 49, 88
7, 26218, Note_off_c, 3, 49, 0
7, 26220, Note_on_c, 3, 60, 88
7, 26278, Note_off_c, 3, 60, 0
7, 26280, Note_on_c, 3, 61, 88
7, 26338, Note_off_c, 3, 61, 0
7, 26340, Note_on_c, 3, 60, 88
7, 26398, Note_off_c, 3, 60, 0
7, 26400, Note_on_c, 3, 55, 88
7, 26458, Note_off_c, 3, 55, 0
7, 26460, Note_on_c, 3, 58, 88
7, 26518, Note_off_c, 3, 58, 0
7, 26520, Note_on_c, 3, 60, 88
7, 26578, Note_off_c, 3, 60, 0
7, 26580, Note_on_c, 3, 58, 88
7, 26638, Note_off_c, 3, 58, 0
7, 26640, Note_on_c, 3, 48, 88
7, 26698, Note_off_c, 3, 48, 0
7, 26700, Note_on_c, 3, 58, 88
7, 26758, Note_off_c, 3, 58, 0
7, 26760, Note_on_c, 3, 60, 88
7, 26818, Note_off_c, 3, 60, 0
7, 26820, Note_on_c, 3, 58, 88
7, 26878, Note_off_c, 3, 58, 0
7, 26880, Note_on_c, 3, 53, 88
7, 26996, Note_off_c, 3, 53, 0
7, 27000, Note_on_c, 3, 56, 88
7, 27116, Note_off_c, 3, 56, 0
7, 27120, Note_on_c, 3, 53, 88
7, 27236, Note_off_c, 3, 53, 0
7, 27240, Note_on_c, 3, 61, 88
7, 27356, Note_off_c, 3, 61, 0
7, 27360, Note_on_c, 3, 52, 88
7, 27476, Note_off_c, 3, 52, 0
7, 27480, Note_on_c, 3, 55, 88
7, 27596, Note_off_c, 3, 55, 0
7, 27600, Note_on_c, 3, 51, 88
7, 27716, Note_off_c, 3, 51, 0
7, 27720, Note_on_c, 3, 60, 88
7, 27836, Note_off_c, 3, 60, 0
7, 27840, Note_on_c, 3, 50, 88
7, 27956, Note_off_c, 3, 50, 0
7, 27960, Note_on_c, 3, 53, 88
7, 28076, Note_off_c, 3, 53, 0
7, 28080, Note_on_c, 3, 49, 88
7, 28196, Note_off_c, 3, 49, 0
7, 28200, Note_on_c, 3, 58, 88
7, 28316, Note_off_c, 3, 58, 0
7, 28320, Note_on_c, 3, 48, 88
7, 28436, Note_off_c, 3, 48, 0
7, 28440, Note_on_c, 3, 50, 88
7, 28556, Note_off_c, 3, 50, 0
7, 28560, Note_on_c, 3, 52, 88
7, 28676, Note_off_c, 3, 52, 0
7, 28680, Note_on_c, 3, 48, 88
7, 28796, Note_off_c, 3, 48, 0
7, 28800, Note_on_c, 3, 53, 88
7, 28858, Note_off_c, 3, 53, 0
7, 28860, Note_on_c, 3, 56, 88
7, 28918, Note_off_c, 3, 56, 0
7, 28920, Note_on_c, 3, 55, 88
7, 28978, Note_off_c, 3, 55, 0
7, 28980, Note_on_c, 3, 56, 88
7, 29038, Note_off_c, 3, 56, 0
7, 29040, Note_on_c, 3, 51, 88
7, 29098, Note_off_c, 3, 51, 0
7, 29100, Note_on_c, 3, 60, 88
7, 29158, Note_off_c, 3, 60, 0
7, 29160, Note_on_c, 3, 58, 88
7, 29218, Note_off_c, 3, 58, 0
7, 29220, Note_on_c, 3, 60, 88
7, 29278, Note_off_c, 3, 60, 0
7, 29280, Note_on_c, 3, 49, 88
7, 29396, Note_off_c, 3, 49, 0
7, 29400, Note_on_c, 3, 53, 88
7, 29516, Note_off_c, 3, 53, 0
7, 29520, Note_on_c, 3, 58, 88
7, 29636, Note_off_c, 3, 58, 0
7, 29640, Note_on_c, 3, 61, 88
7, 29756, Note_off_c, 3, 61, 0
7, 29760, Note_on_c, 3, 51, 88
7, 29818, Note_off_c, 3, 51, 0
7, 29820, Note_on_c, 3, 55, 88
7, 29878, Note_off_c, 3, 55, 0
7, 29880, Note_on_c, 3, 53, 88
7, 29938, Note_off_c, 3, 53, 0
7, 29940, Note_on_c, 3, 55, 88
7, 29998, Note_off_c, 3, 55, 0
7, 30000, Note_on_c, 3, 49, 88
7, 30058, Note_off_c, 3, 49, 0
7, 30060, Note_on_c, 3, 58, 88
7, 30118, Note_off_c, 3, 58, 0
7, 30120, Note_on_c, 3, 56, 88
7, 30178, Note_off_c, 3, 56, 0
7, 30180, Note_on_c, 3, 58, 88
7, 30238, Note_off_c, 3, 58, 0
7, 30240, Note_on_c, 3, 48, 88
7, 30356, Note_off_c, 3, 48, 0
7, 30360, Note_on_c, 3, 51, 88
7, 30476, Note_off_c, 3, 51, 0
7, 30480, Note_on_c, 3, 56, 88
7, 30596, Note_off_c, 3, 56, 0
7, 30600, Note_on_c, 3, 60, 88
7, 30716, Note_off_c, 3, 60, 0
7, 30720, Note_on_c, 3, 49, 88
7, 30778, Note_off_c, 3, 49, 0
7, 30780, Note_on_c, 3, 53, 88
7, 30838, Note_off_c, 3, 53, 0
7, 30840, Note_on_c, 3, 51, 88
7, 30898, Note_off_c, 3, 51, 0
7, 30900, Note_on_c, 3, 53, 88
7, 30958, Note_off_c, 3, 53, 0
7, 30960, Note_on_c, 3, 54, 88
7, 31018, Note_off_c, 3, 54, 0
7, 31020, Note_on_c, 3, 53, 88
7, 31078, Note_off_c, 3, 53, 0
7, 31080, Note_on_c, 3, 51, 88
7, 31138, Note_off_c, 3, 51, 0
7, 31140, Note_on_c, 3, 53, 88
7, 31198, Note_off_c, 3, 53, 0
7, 31200, Note_on_c, 3, 46, 88
7, 31258, Note_off_c, 3, 46, 0
7, 31260, Note_on_c, 3, 53, 88
7, 31318, Note_off_c, 3, 53, 0
7, 31320, Note_on_c, 3, 55, 88
7, 31378, Note_off_c, 3, 55, 0
7, 31380, Note_on_c, 3, 56, 88
7, 31438, Note_off_c, 3, 56, 0
7, 31440, Note_on_c, 3, 55, 88
7, 31498, Note_off_c, 3, 55, 0
7, 31500, Note_on_c, 3, 53, 88
7, 31558, Note_off_c, 3, 53, 0
7, 31560, Note_on_c, 3, 52, 88
7, 31618, Note_off_c, 3, 52, 0
7, 31620, Note_on_c, 3, 53, 88
7, 31678, Note_off_c, 3, 53, 0
7, 31680, Note_on_c, 3, 44, 88
7, 31796, Note_off_c, 3, 44, 0
7, 31800, Note_on_c, 3, 41, 88
7, 31916, Note_off_c, 3, 41, 0
7, 31920, Note_on_c, 3, 48, 88
7, 32036, Note_off_c, 3, 48, 0
7, 32040, Note_on_c, 3, 36, 88
7, 32156, Note_off_c, 3, 36, 0
7, 32160, Note_on_c, 3, 41, 88
7, 32276, Note_off_c, 3, 41, 0
7, 32280, Note_on_c, 3, 44, 88
7, 32396, Note_off_c, 3, 44, 0
7, 32400, Note_on_c, 3, 46, 88
7, 32516, Note_off_c, 3, 46, 0
7, 32520, Note_on_c, 3, 48, 88
7, 32636, Note_off_c, 3, 48, 0
7, 32640, Note_on_c, 3, 53, 88
7, 32756, Note_off_c, 3, 53, 0
7, 32760, Note_on_c, 3, 55, 88
7, 32876, Note_off_c, 3, 55, 0
7, 32880, Note_on_c, 3, 56, 88
7, 32996, Note_off_c, 3, 56, 0
7, 33000, Note_on_c, 3, 53, 88
7, 33116, Note_off_c, 3, 53, 0
7, 33120, Note_on_c, 3, 58, 88
7, 33236, Note_off_c, 3, 58, 0
7, 33240, Note_on_c, 3, 46, 88
7, 33356, Note_off_c, 3, 46, 0
7, 33420, Note_on_c, 3, 56, 88
7, 33478, Note_off_c, 3, 56, 0
7, 33480, Note_on_c, 3, 55, 88
7, 33538, Note_off_c, 3, 55, 0
7, 33540, Note_on_c, 3, 53, 88
7, 33598, Note_off_c, 3, 53, 0
7, 33600, Note_on_c, 3, 51, 88
7, 33716, Note_off_c, 3, 51, 0
7, 33720, Note_on_c, 3, 53, 88
7, 33836, Note_off_c, 3, 53, 0
7, 33840, Note_on_c, 3, 55, 88
7, 33956, Note_off_c, 3, 55, 0
7, 33960, Note_on_c, 3, 51, 88
7, 34076, Note_off_c, 3, 51, 0
7, 34080, Note_on_c, 3, 56, 88
7, 34196, Note_off_c, 3, 56, 0
7, 34200, Note_on_c, 3, 44, 88
7, 34316, Note_off_c, 3, 44, 0
7, 34380, Note_on_c, 3, 55, 88
7, 34438, Note_off_c, 3, 55, 0
7, 34440, Note_on_c, 3, 53, 88
7, 34498, Note_off_c, 3, 53, 0
7, 34500, Note_on_c, 3, 51, 88
7, 34558, Note_off_c, 3, 51, 0
7, 34560, Note_on_c, 3, 50, 88
7, 34676, Note_off_c, 3, 50, 0
7, 34680, Note_on_c, 3, 51, 88
7, 34796, Note_off_c, 3, 51, 0
7, 34800, Note_on_c, 3, 53, 88
7, 34916, Note_off_c, 3, 53, 0
7, 34920, Note_on_c, 3, 50, 88
7, 35036, Note_off_c, 3, 50, 0
7, 35040, Note_on_c, 3, 55, 88
7, 35156, Note_off_c, 3, 55, 0
7, 35160, Note_on_c, 3, 43, 88
7, 35276, Note_off_c, 3, 43, 0
7, 35340, Note_on_c, 3, 53, 88
7, 35398, Note_off_c, 3, 53, 0
7, 35400, Note_on_c, 3, 51, 88
7, 35458, Note_off_c, 3, 51, 0
7, 35460, Note_on_c, 3, 50, 88
7, 35518, Note_off_c, 3, 50, 0
7, 35520, Note_on_c, 3, 48, 88
7, 35578, Note_off_c, 3, 48, 0
7, 35580, Note_on_c, 3, 50, 88
7, 35638, Note_off_c, 3, 50, 0
7, 35640, Note_on_c, 3, 51, 88
7, 35698, Note_off_c, 3, 51, 0
7, 35700, Note_on_c, 3, 48, 88
7, 35758, Note_off_c, 3, 48, 0
7, 35760, Note_on_c, 3, 44, 88
7, 35818, Note_off_c, 3, 44, 0
7, 35820, Note_on_c, 3, 55, 88
7, 35878, Note_off_c, 3, 55, 0
7, 35880, Note_on_c, 3, 53, 88
7, 35938, Note_off_c, 3, 53, 0
7, 35940, Note_on_c, 3, 51, 88
7, 35998, Note_off_c, 3, 51, 0
7, 36000, Note_on_c, 3, 50, 88
7, 36058, Note_off_c, 3, 50, 0
7, 36060, Note_on_c, 3, 51, 88
7, 36118, Note_off_c, 3, 51, 0
7, 36120, Note_on_c, 3, 53, 88
7, 36178, Note_off_c, 3, 53, 0
7, 36180, Note_on_c, 3, 50, 88
7, 36238, Note_off_c, 3, 50, 0
7, 36240, Note_on_c, 3, 46, 88
7, 36298, Note_off_c, 3, 46, 0
7, 36300, Note_on_c, 3, 56, 88
7, 36358, Note_off_c, 3, 56, 0
7, 36360, Note_on_c, 3, 55, 88
7, 36418, Note_off_c, 3, 55, 0
7, 36420, Note_on_c, 3, 53, 88
7, 36478, Note_off_c, 3, 53, 0
7, 36480, Note_on_c, 3, 51, 88
7, 36596, Note_off_c, 3, 51, 0
7, 36600, Note_on_c, 3, 50, 88
7, 36716, Note_off_c, 3, 50, 0
7, 36720, Note_on_c, 3, 51, 88
7, 36836, Note_off_c, 3, 51, 0
7, 36840, Note_on_c, 3, 52, 88
7, 36956, Note_off_c, 3, 52, 0
7, 36960, Note_on_c, 3, 53, 88
7, 37076, Note_off_c, 3, 53, 0
7, 37080, Note_on_c, 3, 52, 88
7, 37196, Note_off_c, 3, 52, 0
7, 37200, Note_on_c, 3, 53, 88
7, 37316, Note_off_c, 3, 53, 0
7, 37320, Note_on_c, 3, 54, 88
7, 37436, Note_off_c, 3, 54, 0
7, 37440, Note_on_c, 3, 55, 88
7, 37498, Note_off_c, 3, 55, 0
7, 37500, Note_on_c, 3, 53, 88
7, 37558, Note_off_c, 3, 53, 0
7, 37560, Note_on_c, 3, 51, 88
7, 37618, Note_off_c, 3, 51, 0
7, 37620, Note_on_c, 3, 53, 88
7, 37678, Note_off_c, 3, 53, 0
7, 37680, Note_on_c, 3, 55, 88
7, 37796, Note_off_c, 3, 55, 0
7, 37800, Note_on_c, 3, 43, 88
7, 37916, Note_off_c, 3, 43, 0
7, 37920, Note_on_c, 3, 36, 88
7, 37978, Note_off_c, 3, 36, 0
7, 37980, Note_on_c, 3, 48, 88
7, 38038, Note_off_c, 3, 48, 0
7, 38040, Note_on_c, 3, 51, 88
7, 38098, Note_off_c, 3, 51, 0
7, 38100, Note_on_c, 3, 55, 88
7, 38158, Note_off_c, 3, 55, 0
7, 38160, Note_on_c, 3, 60, 88
7, 38394, Note_off_c, 3, 60, 0
7, 38400, Note_on_c, 3, 51, 88
7, 38516, Note_off_c, 3, 51, 0
7, 38520, Note_on_c, 3, 53, 88
7, 38636, Note_off_c, 3, 53, 0
7, 38640, Note_on_c, 3, 55, 88
7, 38756, Note_off_c, 3, 55, 0
7, 38760, Note_on_c, 3, 51, 88
7, 38876, Note_off_c, 3, 51, 0
7, 38880, Note_on_c, 3, 50, 88
7, 38996, Note_off_c, 3, 50, 0
7, 39000, Note_on_c, 3, 48, 88
7, 39116, Note_off_c, 3, 48, 0
7, 39120, Note_on_c, 3, 50, 88
7, 39236, Note_off_c, 3, 50, 0
7, 39240, Note_on_c, 3, 46, 88
7, 39356, Note_off_c, 3, 46, 0
7, 39360, Note_on_c, 3, 51, 88
7, 39418, Note_off_c, 3, 51, 0
7, 39420, Note_on_c, 3, 55, 88
7, 39478, Note_off_c, 3, 55, 0
7, 39480, Note_on_c, 3, 56, 88
7, 39538, Note_off_c, 3, 56, 0
7, 39540, Note_on_c, 3, 55, 88
7, 39598, Note_off_c, 3, 55, 0
7, 39600, Note_on_c, 3, 44, 88
7, 39658, Note_off_c, 3, 44, 0
7, 39660, Note_on_c, 3, 55, 88
7, 39718, Note_off_c, 3, 55, 0
7, 39720, Note_on_c, 3, 56, 88
7, 39778, Note_off_c, 3, 56, 0
7, 39780, Note_on_c, 3, 55, 88
7, 39838, Note_off_c, 3, 55, 0
7, 39840, Note_on_c, 3, 50, 88
7, 39898, Note_off_c, 3, 50, 0
7, 39900, Note_on_c, 3, 53, 88
7, 39958, Note_off_c, 3, 53, 0
7, 39960, Note_on_c, 3, 55, 88
7, 40018, Note_off_c, 3, 55, 0
7, 40020, Note_on_c, 3, 53, 88
7, 40078, Note_off_c, 3, 53, 0
7, 40080, Note_on_c, 3, 43, 88
7, 40138, Note_off_c, 3, 43, 0
7, 40140, Note_on_c, 3, 53, 88
7, 40198, Note_off_c, 3, 53, 0
7, 40200, Note_on_c, 3, 55, 88
7, 40258, Note_off_c, 3, 55, 0
7, 40260, Note_on_c, 3, 53, 88
7, 40318, Note_off_c, 3, 53, 0
7, 40320, Note_on_c, 3, 48, 88
7, 40436, Note_off_c, 3, 48, 0
7, 40440, Note_on_c, 3, 60, 88
7, 40556, Note_off_c, 3, 60, 0
7, 40560, Note_on_c, 3, 58, 88
7, 40676, Note_off_c, 3, 58, 0
7, 40680, Note_on_c, 3, 56, 88
7, 40796, Note_off_c, 3, 56, 0
7, 40800, Note_on_c, 3, 55, 88
7, 40916, Note_off_c, 3, 55, 0
7, 40920, Note_on_c, 3, 53, 88
7, 41036, Note_off_c, 3, 53, 0
7, 41040, Note_on_c, 3, 55, 88
7, 41156, Note_off_c, 3, 55, 0
7, 41160, Note_on_c, 3, 51, 88
7, 41276, Note_off_c, 3, 51, 0
7, 41280, Note_on_c, 3, 56, 88
7, 41338, Note_off_c, 3, 56, 0
7, 41340, Note_on_c, 3, 60, 88
7, 41398, Note_off_c, 3, 60, 0
7, 41400, Note_on_c, 3, 61, 88
7, 41458, Note_off_c, 3, 61, 0
7, 41460, Note_on_c, 3, 60, 88
7, 41518, Note_off_c, 3, 60, 0
7, 41520, Note_on_c, 3, 49, 88
7, 41578, Note_off_c, 3, 49, 0
7, 41580, Note_on_c, 3, 60, 88
7, 41638, Note_off_c, 3, 60, 0
7, 41640, Note_on_c, 3, 61, 88
7, 41698, Note_off_c, 3, 61, 0
7, 41700, Note_on_c, 3, 60, 88
7, 41758, Note_off_c, 3, 60, 0
7, 41760, Note_on_c, 3, 55, 88
7, 41818, Note_off_c, 3, 55, 0
7, 41820, Note_on_c, 3, 58, 88
7, 41878, Note_off_c, 3, 58, 0
7, 41880, Note_on_c, 3, 60, 88
7, 41938, Note_off_c, 3, 60, 0
7, 41940, Note_on_c, 3, 58, 88
7, 41998, Note_off_c, 3, 58, 0
7, 42000, Note_on_c, 3, 48, 88
7, 42058, Note_off_c, 3, 48, 0
7, 42060, Note_on_c, 3, 58, 88
7, 42118, Note_off_c, 3, 58, 0
7, 42120, Note_on_c, 3, 60, 88
7, 42178, Note_off_c, 3, 60, 0
7, 42180, Note_on_c, 3, 58, 88
7, 42238, Note_off_c, 3, 58, 0
7, 42240, Note_on_c, 3, 53, 88
7, 42356, Note_off_c, 3, 53, 0
7, 42360, Note_on_c, 3, 56, 88
7, 42476, Note_off_c, 3, 56, 0
7, 42480, Note_on_c, 3, 53, 88
7, 42596, Note_off_c, 3, 53, 0
7, 42600, Note_on_c, 3, 61, 88
7, 42716, Note_off_c, 3, 61, 0
7, 42720, Note_on_c, 3, 52, 88
7, 42836, Note_off_c, 3, 52, 0
7, 42840, Note_on_c, 3, 55, 88
7, 42956, Note_off_c, 3, 55, 0
7, 42960, Note_on_c, 3, 51, 88
7, 43076, Note_off_c, 3, 51, 0
7, 43080, Note_on_c, 3, 60, 88
7, 43196, Note_off_c, 3, 60, 0
7, 43200, Note_on_c, 3, 50, 88
7, 43316, Note_off_c, 3, 50, 0
7, 43320, Note_on_c, 3, 53, 88
7, 43436, Note_off_c, 3, 53, 0
7, 43440, Note_on_c, 3, 49, 88
7, 43556, Note_off_c, 3, 49, 0
7, 43560, Note_on_c, 3, 58, 88
7, 43676, Note_off_c, 3, 58, 0
7, 43680, Note_on_c, 3, 48, 88
7, 43796, Note_off_c, 3, 48, 0
7, 43800, Note_on_c, 3, 50, 88
7, 43916, Note_off_c, 3, 50, 0
7, 43920, Note_on_c, 3, 52, 88
7, 44036, Note_off_c, 3, 52, 0
7, 44040, Note_on_c, 3, 48, 88
7, 44156, Note_off_c, 3, 48, 0
7, 44160, Note_on_c, 3, 53, 88
7, 44218, Note_off_c, 3, 53, 0
7, 44220, Note_on_c, 3, 56, 88
7, 44278, Note_off_c, 3, 56, 0
7, 44280, Note_on_c, 3, 55, 88
7, 44338, Note_off_c, 3, 55, 0
7, 44340, Note_on_c, 3, 56, 88
7, 44398, Note_off_c, 3, 56, 0
7, 44400, Note_on_c, 3, 51, 88
7, 44458, Note_off_c, 3, 51, 0
7, 44460, Note_on_c, 3, 60, 88
7, 44518, Note_off_c, 3, 60, 0
7, 44520, Note_on_c, 3, 58, 88
7, 44578, Note_off_c, 3, 58, 0
7, 44580, Note_on_c, 3, 60, 88
7, 44638, Note_off_c, 3, 60, 0
7, 44640, Note_on_c, 3, 49, 88
7, 44756, Note_off_c, 3, 49, 0
7, 44760, Note_on_c, 3, 53, 88
7, 44876, Note_off_c, 3, 53, 0
7, 44880, Note_on_c, 3, 58, 88
7, 44996, Note_off_c, 3, 58, 0
7, 45000, Note_on_c, 3, 61, 88
7, 45116, Note_off_c, 3, 61, 0
7, 45120, Note_on_c, 3, 51, 88
7, 45178, Note_off_c, 3, 51, 0
7, 45180, Note_on_c, 3, 55, 88
7, 45238, Note_off_c, 3, 55, 0
7, 45240, Note_on_c, 3, 53, 88
7, 45298, Note_off_c, 3, 53, 0
7, 45300, Note_on_c, 3, 55, 88
7, 45358, Note_off_c, 3, 55, 0
7, 45360, Note_on_c, 3, 49, 88
7, 45418, Note_off_c, 3, 49, 0
7, 45420, Note_on_c, 3, 58, 88
7, 45478, Note_off_c, 3, 58, 0
7, 45480, Note_on_c, 3, 56, 88
7, 45538, Note_off_c, 3, 56, 0
7, 45540, Note_on_c, 3, 58, 88
7, 45598, Note_off_c, 3, 58, 0
7, 45600, Note_on_c, 3, 48, 88
7, 45716, Note_off_c, 3, 48, 0
7, 45720, Note_on_c, 3, 51, 88
7, 45836, Note_off_c, 3, 51, 0
7, 45840, Note_on_c, 3, 56, 88
7, 45956, Note_off_c, 3, 56, 0
7, 45960, Note_on_c, 3, 60, 88
7, 46076, Note_off_c, 3, 60, 0
7, 46080, Note_on_c, 3, 49, 88
7, 46138, Note_off_c, 3, 49, 0
7, 46140, Note_on_c, 3, 53, 88
7, 46198, Note_off_c, 3, 53, 0
7, 46200, Note_on_c, 3, 51, 88
7, 46258, Note_off_c, 3, 51, 0
7, 46260, Note_on_c, 3, 53, 88
7, 46318, Note_off_c, 3, 53, 0
7, 46320, Note_on_c, 3, 54, 88
7, 46378, Note_off_c, 3, 54, 0
7, 46380, Note_on_c, 3, 53, 88
7, 46438, Note_off_c, 3, 53, 0
7, 46440, Note_on_c, 3, 51, 88
7, 46498, Note_off_c, 3, 51, 0
7, 46500, Note_on_c, 3, 53, 88
7, 46558, Note_off_c, 3, 53, 0
7, 46560, Note_on_c, 3, 46, 88
7, 46618, Note_off_c, 3, 46, 0
7, 46620, Note_on_c, 3, 53, 88
7, 46678, Note_off_c, 3, 53, 0
7, 46680, Note_on_c, 3, 55, 88
7, 46738, Note_off_c, 3, 55, 0
7, 46740, Note_on_c, 3, 56, 88
7, 46798, Note_off_c, 3, 56, 0
7, 46800, Note_on_c, 3, 55, 88
7, 46858, Note_off_c, 3, 55, 0
7, 46860, Note_on_c, 3, 53, 88
7, 46918, Note_off_c, 3, 53, 0
7, 46920, Note_on_c, 3, 52, 88
7, 46978, Note_off_c, 3, 52, 0
7, 46980, Note_on_c, 3, 53, 88
7, 47038, Note_off_c, 3, 53, 0
7, 47040, Note_on_c, 3, 44, 88
7, 47156, Note_off_c, 3, 44, 0
7, 47160, Note_on_c, 3, 41, 88
7, 47276, Note_off_c, 3, 41, 0
7, 47280, Note_on_c, 3, 48, 88
7, 47396, Note_off_c, 3, 48, 0
7, 47400, Note_on_c, 3, 36, 88
7, 47516, Note_off_c, 3, 36, 0
7, 47520, Note_on_c, 3, 41, 88
7, 47636, Note_off_c, 3, 41, 0
7, 47640, Note_on_c, 3, 44, 88
7, 47756, Note_off_c, 3, 44, 0
7, 47760, Note_on_c, 3, 46, 88
7, 47876, Note_off_c, 3, 46, 0
7, 47880, Note_on_c, 3, 48, 88
7, 47996, Note_off_c, 3, 48, 0
7, 48000, Note_on_c, 3, 53, 88
7, 48116, Note_off_c, 3, 53, 0
7, 48120, Note_on_c, 3, 55, 88
7, 48236, Note_off_c, 3, 55, 0
7, 48240, Note_on_c, 3, 56, 88
7, 48356, Note_off_c, 3, 56, 0
7, 48360, Note_on_c, 3, 53, 88
7, 48476, Note_off_c, 3, 53, 0
7, 48480, Note_on_c, 3, 58, 88
7, 48596, Note_off_c, 3, 58, 0
7, 48600, Note_on_c, 3, 46, 88
7, 48716, Note_off_c, 3, 46, 0
7, 48780, Note_on_c, 3, 56, 88
7, 48838, Note_off_c, 3, 56, 0
7, 48840, Note_on_c, 3, 55, 88
7, 48898, Note_off_c, 3, 55, 0
7, 48900, Note_on_c, 3, 53, 88
7, 48958, Note_off_c, 3, 53, 0
7, 48960, Note_on_c, 3, 51, 88
7, 49076, Note_off_c, 3, 51, 0
7, 49080, Note_on_c, 3, 53, 88
7, 49196, Note_off_c, 3, 53, 0
7, 49200, Note_on_c, 3, 55, 88
7, 49316, Note_off_c, 3, 55, 0
7, 49320, Note_on_c, 3, 51, 88
7, 49436, Note_off_c, 3, 51, 0
7, 49440, Note_on_c, 3, 56, 88
7, 49556, Note_off_c, 3, 56, 0
7, 49560, Note_on_c, 3, 44, 88
7, 49676, Note_off_c, 3, 44, 0
7, 49740, Note_on_c, 3, 55, 88
7, 49798, Note_off_c, 3, 55, 0
7, 49800, Note_on_c, 3, 53, 88
7, 49858, Note_off_c, 3, 53, 0
7, 49860, Note_on_c, 3, 51, 88
7, 49918, Note_off_c, 3, 51, 0
7, 49920, Note_on_c, 3, 50, 88
7, 50036, Note_off_c, 3, 50, 0
7, 50040, Note_on_c, 3, 51, 88
7, 50156, Note_off_c, 3, 51, 0
7, 50160, Note_on_c, 3, 53, 88
7, 50276, Note_off_c, 3, 53, 0
7, 50280, Note_on_c, 3, 50, 88
7, 50396, Note_off_c, 3, 50, 0
7, 50400, Note_on_c, 3, 55, 88
7, 50516, Note_off_c, 3, 55, 0
7, 50520, Note_on_c, 3, 43, 88
7, 50636, Note_off_c, 3, 43, 0
7, 50700, Note_on_c, 3, 53, 88
7, 50758, Note_off_c, 3, 53, 0
7, 50760, Note_on_c, 3, 51, 88
7, 50818, Note_off_c, 3, 51, 0
7, 50820, Note_on_c, 3, 50, 88
7, 50878, Note_off_c, 3, 50, 0
7, 50880, Note_on_c, 3, 48, 88
7, 50938, Note_off_c, 3, 48, 0
7, 50940, Note_on_c, 3, 50, 88
7, 50998, Note_off_c, 3, 50, 0
7, 51000, Note_on_c, 3, 51, 88
7, 51058, Note_off_c, 3, 51, 0
7, 51060, Note_on_c, 3, 48, 88
7, 51118, Note_off_c, 3, 48, 0
7, 51120, Note_on_c, 3, 44, 88
7, 51178, Note_off_c, 3, 44, 0
7, 51180, Note_on_c, 3, 55, 88
7, 51238, Note_off_c, 3, 55, 0
7, 51240, Note_on_c, 3, 53, 88
7, 51298, Note_off_c, 3, 53, 0
7, 51300, Note_on_c, 3, 51, 88
7, 51358, Note_off_c, 3, 51, 0
7, 51360, Note_on_c, 3, 50, 88
7, 51418, Note_off_c, 3, 50, 0
7, 51420, Note_on_c, 3, 51, 88
7, 51478, Note_off_c, 3, 51, 0
7, 51480, Note_on_c, 3, 53, 88
7, 51538, Note_off_c, 3, 53, 0
7, 51540, Note_on_c, 3, 50, 88
7, 51598, Note_off_c, 3, 50, 0
7, 51600, Note_on_c, 3, 46, 88
7, 51658, Note_off_c, 3, 46, 0
7, 51660, Note_on_c, 3, 56, 88
7, 51718, Note_off_c, 3, 56, 0
7, 51720, Note_on_c, 3, 55, 88
7, 51778, Note_off_c, 3, 55, 0
7, 51780, Note_on_c, 3, 53, 88
7, 51838, Note_off_c, 3, 53, 0
7, 51840, Note_on_c, 3, 51, 88
7, 51956, Note_off_c, 3, 51, 0
7, 51960, Note_on_c, 3, 50, 88
7, 52076, Note_off_c, 3, 50, 0
7, 52080, Note_on_c, 3, 51, 88
7, 52196, Note_off_c, 3, 51, 0
7, 52200, Note_on_c, 3, 52, 88
7, 52316, Note_off_c, 3, 52, 0
7, 52320, Note_on_c, 3, 53, 88
7, 52436, Note_off_c, 3, 53, 0
7, 52440, Note_on_c, 3, 52, 88
7, 52556, Note_off_c, 3, 52, 0
7, 52560, Note_on_c, 3, 53, 88
7, 52676, Note_off_c, 3, 53, 0
7, 52680, Note_on_c, 3, 54, 88
7, 52796, Note_off_c, 3, 54, 0
7, 52800, Note_on_c, 3, 55, 88
7, 52858, Note_off_c, 3, 55, 0
7, 52860, Note_on_c, 3, 53, 88
7, 52918, Note_off_c, 3, 53, 0
7, 52920, Note_on_c, 3, 51, 88
7, 52978, Note_off_c, 3, 51, 0
7, 52980, Note_on_c, 3, 53, 88
7, 53038, Note_off_c, 3, 53, 0
7, 53040, Note_on_c, 3, 55, 88
7, 53156, Note_off_c, 3, 55, 0
7, 53160, Note_on_c, 3, 43, 88
7, 53276, Note_off_c, 3, 43, 0
7, 53280, Note_on_c, 3, 36, 88
7, 53338, Note_off_c, 3, 36, 0
7, 53340, Note_on_c, 3, 48, 88
7, 53398, Note_off_c, 3, 48, 0
7, 53400, Note_on_c, 3, 51, 88
7, 53458, Note_off_c, 3, 51, 0
7, 53460, Note_on_c, 3, 55, 88
7, 53518, Note_off_c, 3, 55, 0
7, 53520, Note_on_c, 3, 60, 88
7, 53754, Note_off_c, 3, 60, 0
7, 53754, End_track
0, 0, End_of_file
