0, 0, Header, 1, 7, 240
1, 0, Start_track
1, 0, Time_signature, 4, 2, 24, 8
1, 0, Tempo, 714285
1, 0, SMPTE_offset, 64, 0, 0, 0, 110
1, 23040, Time_signature, 3, 3, 24, 8
1, 23040, Tempo, 857142
1, 23040, End_track
2, 0, Start_track
2, 0, Title_t, "(C) & (P) 1993"
2, 127, End_track
3, 0, Start_track
3, 0, Title_t, "CCARH,Stanford"
3, 0, End_track
4, 0, Start_track
4, 0, Title_t, "Track 1"
4, 0, Program_c, 0, 6
4, 60, Note_on_c, 0, 65, 88
4, 118, Note_off_c, 0, 65, 0
4, 120, Note_on_c, 0, 68, 88
4, 178, Note_off_c, 0, 68, 0
4, 180, Note_on_c, 0, 73, 88
4, 474, Note_off_c, 0, 73, 0
4, 540, Note_on_c, 0, 65, 88
4, 598, Note_off_c, 0, 65, 0
4, 600, Note_on_c, 0, 68, 88
4, 658, Note_off_c, 0, 68, 0
4, 660, Note_on_c, 0, 73, 88
4, 954, Note_off_c, 0, 73, 0
4, 1020, Note_on_c, 0, 66, 88
4, 1078, Note_off_c, 0, 66, 0
4, 1080, Note_on_c, 0, 70, 88
4, 1138, Note_off_c, 0, 70, 0
4, 1140, Note_on_c, 0, 73, 88
4, 1434, Note_off_c, 0, 73, 0
4, 1500, Note_on_c, 0, 66, 88
4, 1558, Note_off_c, 0, 66, 0
4, 1560, Note_on_c, 0, 68, 88
4, 1618, Note_off_c, 0, 68, 0
4, 1620, Note_on_c, 0, 75, 88
4, 1914, Note_off_c, 0, 75, 0
4, 1980, Note_on_c, 0, 65, 88
4, 2038, Note_off_c, 0, 65, 0
4, 2040, Note_on_c, 0, 68, 88
4, 2098, Note_off_c, 0, 68, 0
4, 2100, Note_on_c, 0, 75, 88
4, 2394, Note_off_c, 0, 75, 0
4, 2460, Note_on_c, 0, 65, 88
4, 2518, Note_off_c, 0, 65, 0
4, 2520, Note_on_c, 0, 68, 88
4, 2578, Note_off_c, 0, 68, 0
4, 2580, Note_on_c, 0, 73, 88
4, 2874, Note_off_c, 0, 73, 0
4, 2940, Note_on_c, 0, 63, 88
4, 2998, Note_off_c, 0, 63, 0
4, 3000, Note_on_c, 0, 67, 88
4, 3058, Note_off_c, 0, 67, 0
4, 3060, Note_on_c, 0, 70, 88
4, 3354, Note_off_c, 0, 70, 0
4, 3420, Note_on_c, 0, 63, 88
4, 3478, Note_off_c, 0, 63, 0
4, 3480, Note_on_c, 0, 68, 88
4, 3538, Note_off_c, 0, 68, 0
4, 3540, Note_on_c, 0, 72, 88
4, 3834, Note_off_c, 0, 72, 0
4, 3900, Note_on_c, 0, 65, 88
4, 3958, Note_off_c, 0, 65, 0
4, 3960, Note_on_c, 0, 70, 88
4, 4018, Note_off_c, 0, 70, 0
4, 4020, Note_on_c, 0, 73, 88
4, 4314, Note_off_c, 0, 73, 0
4, 4380, Note_on_c, 0, 63, 88
4, 4438, Note_off_c, 0, 63, 0
4, 4440, Note_on_c, 0, 70, 88
4, 4498, Note_off_c, 0, 70, 0
4, 4500, Note_on_c, 0, 73, 88
4, 4794, Note_off_c, 0, 73, 0
4, 4860, Note_on_c, 0, 63, 88
4, 4918, Note_off_c, 0, 63, 0
4, 4920, Note_on_c, 0, 70, 88
4, 4978, Note_off_c, 0, 70, 0
4, 4980, Note_on_c, 0, 73, 88
4, 5274, Note_off_c, 0, 73, 0
4, 5340, Note_on_c, 0, 63, 88
4, 5398, Note_off_c, 0, 63, 0
4, 5400, Note_on_c, 0, 68, 88
4, 5458, Note_off_c, 0, 68, 0
4, 5460, Note_on_c, 0, 72, 88
4, 5754, Note_off_c, 0, 72, 0
4, 5820, Note_on_c, 0, 65, 88
4, 5878, Note_off_c, 0, 65, 0
4, 5880, Note_on_c, 0, 70, 88
4, 5938, Note_off_c, 0, 70, 0
4, 5940, Note_on_c, 0, 74, 88
4, 6234, Note_off_c, 0, 74, 0
4, 6300, Note_on_c, 0, 63, 88
4, 6358, Note_off_c, 0, 63, 0
4, 6360, Note_on_c, 0, 70, 88
4, 6418, Note_off_c, 0, 70, 0
4, 6420, Note_on_c, 0, 75, 88
4, 6714, Note_off_c, 0, 75, 0
4, 6780, Note_on_c, 0, 65, 88
4, 6838, Note_off_c, 0, 65, 0
4, 6840, Note_on_c, 0, 69, 88
4, 6898, Note_off_c, 0, 69, 0
4, 6900, Note_on_c, 0, 75, 88
4, 7194, Note_off_c, 0, 75, 0
4, 7260, Note_on_c, 0, 65, 88
4, 7318, Note_off_c, 0, 65, 0
4, 7320, Note_on_c, 0, 70, 88
4, 7378, Note_off_c, 0, 70, 0
4, 7380, Note_on_c, 0, 73, 88
4, 7674, Note_off_c, 0, 73, 0
4, 7740, Note_on_c, 0, 66, 88
4, 7798, Note_off_c, 0, 66, 0
4, 7800, Note_on_c, 0, 72, 88
4, 7858, Note_off_c, 0, 72, 0
4, 7860, Note_on_c, 0, 75, 88
4, 8154, Note_off_c, 0, 75, 0
4, 8220, Note_on_c, 0, 68, 88
4, 8278, Note_off_c, 0, 68, 0
4, 8280, Note_on_c, 0, 72, 88
4, 8338, Note_off_c, 0, 72, 0
4, 8340, Note_on_c, 0, 77, 88
4, 8634, Note_off_c, 0, 77, 0
4, 8700, Note_on_c, 0, 66, 88
4, 8758, Note_off_c, 0, 66, 0
4, 8760, Note_on_c, 0, 73, 88
4, 8818, Note_off_c, 0, 73, 0
4, 8820, Note_on_c, 0, 77, 88
4, 9114, Note_off_c, 0, 77, 0
4, 9180, Note_on_c, 0, 66, 88
4, 9238, Note_off_c, 0, 66, 0
4, 9240, Note_on_c, 0, 68, 88
4, 9298, Note_off_c, 0, 68, 0
4, 9300, Note_on_c, 0, 75, 88
4, 9594, Note_off_c, 0, 75, 0
4, 9660, Note_on_c, 0, 66, 88
4, 9718, Note_off_c, 0, 66, 0
4, 9720, Note_on_c, 0, 68, 88
4, 9778, Note_off_c, 0, 68, 0
4, 9780, Note_on_c, 0, 75, 88
4, 10074, Note_off_c, 0, 75, 0
4, 10140, Note_on_c, 0, 65, 88
4, 10198, Note_off_c, 0, 65, 0
4, 10200, Note_on_c, 0, 68, 88
4, 10258, Note_off_c, 0, 68, 0
4, 10260, Note_on_c, 0, 73, 88
4, 10554, Note_off_c, 0, 73, 0
4, 10620, Note_on_c, 0, 63, 88
4, 10678, Note_off_c, 0, 63, 0
4, 10680, Note_on_c, 0, 66, 88
4, 10738, Note_off_c, 0, 66, 0
4, 10740, Note_on_c, 0, 73, 88
4, 11034, Note_off_c, 0, 73, 0
4, 11100, Note_on_c, 0, 63, 88
4, 11158, Note_off_c, 0, 63, 0
4, 11160, Note_on_c, 0, 66, 88
4, 11218, Note_off_c, 0, 66, 0
4, 11220, Note_on_c, 0, 71, 88
4, 11514, Note_off_c, 0, 71, 0
4, 11580, Note_on_c, 0, 61, 88
4, 11638, Note_off_c, 0, 61, 0
4, 11640, Note_on_c, 0, 65, 88
4, 11698, Note_off_c, 0, 65, 0
4, 11700, Note_on_c, 0, 71, 88
4, 11994, Note_off_c, 0, 71, 0
4, 12060, Note_on_c, 0, 61, 88
4, 12118, Note_off_c, 0, 61, 0
4, 12120, Note_on_c, 0, 66, 88
4, 12178, Note_off_c, 0, 66, 0
4, 12180, Note_on_c, 0, 70, 88
4, 12474, Note_off_c, 0, 70, 0
4, 12540, Note_on_c, 0, 63, 88
4, 12598, Note_off_c, 0, 63, 0
4, 12600, Note_on_c, 0, 66, 88
4, 12658, Note_off_c, 0, 66, 0
4, 12660, Note_on_c, 0, 68, 88
4, 12954, Note_off_c, 0, 68, 0
4, 13020, Note_on_c, 0, 58, 88
4, 13078, Note_off_c, 0, 58, 0
4, 13080, Note_on_c, 0, 65, 88
4, 13138, Note_off_c, 0, 65, 0
4, 13140, Note_on_c, 0, 68, 88
4, 13434, Note_off_c, 0, 68, 0
4, 13500, Note_on_c, 0, 62, 88
4, 13558, Note_off_c, 0, 62, 0
4, 13560, Note_on_c, 0, 65, 88
4, 13618, Note_off_c, 0, 65, 0
4, 13620, Note_on_c, 0, 68, 88
4, 13914, Note_off_c, 0, 68, 0
4, 13980, Note_on_c, 0, 61, 88
4, 14038, Note_off_c, 0, 61, 0
4, 14040, Note_on_c, 0, 63, 88
4, 14098, Note_off_c, 0, 63, 0
4, 14100, Note_on_c, 0, 67, 88
4, 14394, Note_off_c, 0, 67, 0
4, 14460, Note_on_c, 0, 60, 88
4, 14518, Note_off_c, 0, 60, 0
4, 14520, Note_on_c, 0, 63, 88
4, 14578, Note_off_c, 0, 63, 0
4, 14580, Note_on_c, 0, 66, 88
4, 14874, Note_off_c, 0, 66, 0
4, 14940, Note_on_c, 0, 59, 88
4, 14998, Note_off_c, 0, 59, 0
4, 15000, Note_on_c, 0, 61, 88
4, 15058, Note_off_c, 0, 61, 0
4, 15060, Note_on_c, 0, 65, 88
4, 15354, Note_off_c, 0, 65, 0
4, 15420, Note_on_c, 0, 58, 88
4, 15478, Note_off_c, 0, 58, 0
4, 15480, Note_on_c, 0, 61, 88
4, 15538, Note_off_c, 0, 61, 0
4, 15540, Note_on_c, 0, 65, 88
4, 15834, Note_off_c, 0, 65, 0
4, 15900, Note_on_c, 0, 58, 88
4, 15958, Note_off_c, 0, 58, 0
4, 15960, Note_on_c, 0, 61, 88
4, 16018, Note_off_c, 0, 61, 0
4, 16020, Note_on_c, 0, 63, 88
4, 16314, Note_off_c, 0, 63, 0
4, 16380, Note_on_c, 0, 56, 88
4, 16438, Note_off_c, 0, 56, 0
4, 16440, Note_on_c, 0, 60, 88
4, 16498, Note_off_c, 0, 60, 0
4, 16500, Note_on_c, 0, 63, 88
4, 16794, Note_off_c, 0, 63, 0
4, 16860, Note_on_c, 0, 56, 88
4, 16918, Note_off_c, 0, 56, 0
4, 16920, Note_on_c, 0, 61, 88
4, 16978, Note_off_c, 0, 61, 0
4, 16980, Note_on_c, 0, 65, 88
4, 17274, Note_off_c, 0, 65, 0
4, 17340, Note_on_c, 0, 58, 88
4, 17398, Note_off_c, 0, 58, 0
4, 17400, Note_on_c, 0, 63, 88
4, 17458, Note_off_c, 0, 63, 0
4, 17460, Note_on_c, 0, 66, 88
4, 17754, Note_off_c, 0, 66, 0
4, 17820, Note_on_c, 0, 56, 88
4, 17878, Note_off_c, 0, 56, 0
4, 17880, Note_on_c, 0, 63, 88
4, 17938, Note_off_c, 0, 63, 0
4, 17940, Note_on_c, 0, 66, 88
4, 18234, Note_off_c, 0, 66, 0
4, 18300, Note_on_c, 0, 56, 88
4, 18358, Note_off_c, 0, 56, 0
4, 18360, Note_on_c, 0, 63, 88
4, 18418, Note_off_c, 0, 63, 0
4, 18420, Note_on_c, 0, 66, 88
4, 18714, Note_off_c, 0, 66, 0
4, 18780, Note_on_c, 0, 56, 88
4, 18838, Note_off_c, 0, 56, 0
4, 18840, Note_on_c, 0, 61, 88
4, 18898, Note_off_c, 0, 61, 0
4, 18900, Note_on_c, 0, 65, 88
4, 19194, Note_off_c, 0, 65, 0
4, 19260, Note_on_c, 0, 58, 88
4, 19318, Note_off_c, 0, 58, 0
4, 19320, Note_on_c, 0, 63, 88
4, 19378, Note_off_c, 0, 63, 0
4, 19380, Note_on_c, 0, 67, 88
4, 19674, Note_off_c, 0, 67, 0
4, 19740, Note_on_c, 0, 59, 88
4, 19798, Note_off_c, 0, 59, 0
4, 19800, Note_on_c, 0, 63, 88
4, 19858, Note_off_c, 0, 63, 0
4, 19860, Note_on_c, 0, 68, 88
4, 20154, Note_off_c, 0, 68, 0
4, 20220, Note_on_c, 0, 59, 88
4, 20278, Note_off_c, 0, 59, 0
4, 20280, Note_on_c, 0, 63, 88
4, 20338, Note_off_c, 0, 63, 0
4, 20340, Note_on_c, 0, 68, 88
4, 20634, Note_off_c, 0, 68, 0
4, 20700, Note_on_c, 0, 59, 88
4, 20758, Note_off_c, 0, 59, 0
4, 20760, Note_on_c, 0, 62, 88
4, 20818, Note_off_c, 0, 62, 0
4, 20820, Note_on_c, 0, 68, 88
4, 21114, Note_off_c, 0, 68, 0
4, 21180, Note_on_c, 0, 59, 88
4, 21238, Note_off_c, 0, 59, 0
4, 21240, Note_on_c, 0, 63, 88
4, 21298, Note_off_c, 0, 63, 0
4, 21300, Note_on_c, 0, 68, 88
4, 21594, Note_off_c, 0, 68, 0
4, 21660, Note_on_c, 0, 62, 88
4, 21718, Note_off_c, 0, 62, 0
4, 21720, Note_on_c, 0, 65, 88
4, 21778, Note_off_c, 0, 65, 0
4, 21780, Note_on_c, 0, 68, 88
4, 22074, Note_off_c, 0, 68, 0
4, 22140, Note_on_c, 0, 61, 88
4, 22198, Note_off_c, 0, 61, 0
4, 22200, Note_on_c, 0, 64, 88
4, 22258, Note_off_c, 0, 64, 0
4, 22260, Note_on_c, 0, 68, 88
4, 22554, Note_off_c, 0, 68, 0
4, 22620, Note_on_c, 0, 61, 88
4, 22678, Note_off_c, 0, 61, 0
4, 22680, Note_on_c, 0, 63, 88
4, 22738, Note_off_c, 0, 63, 0
4, 22740, Note_on_c, 0, 67, 88
4, 23034, Note_off_c, 0, 67, 0
4, 23040, Note_on_c, 0, 68, 88
4, 23156, Note_off_c, 0, 68, 0
4, 23160, Note_on_c, 0, 63, 88
4, 23218, Note_off_c, 0, 63, 0
4, 23220, Note_on_c, 0, 61, 88
4, 23278, Note_off_c, 0, 61, 0
4, 23280, Note_on_c, 0, 63, 88
4, 23338, Note_off_c, 0, 63, 0
4, 23340, Note_on_c, 0, 65, 88
4, 23398, Note_off_c, 0, 65, 0
4, 23400, Note_on_c, 0, 65, 88
4, 23516, Note_off_c, 0, 65, 0
4, 23520, Note_on_c, 0, 66, 88
4, 23754, Note_off_c, 0, 66, 0
4, 23760, Note_on_c, 0, 66, 88
4, 23876, Note_off_c, 0, 66, 0
4, 23880, Note_on_c, 0, 65, 88
4, 23996, Note_off_c, 0, 65, 0
4, 24000, Note_on_c, 0, 70, 88
4, 24116, Note_off_c, 0, 70, 0
4, 24120, Note_on_c, 0, 63, 88
4, 24236, Note_off_c, 0, 63, 0
4, 24240, Note_on_c, 0, 68, 88
4, 24269, Note_off_c, 0, 68, 0
4, 24270, Note_on_c, 0, 66, 88
4, 24314, Note_off_c, 0, 66, 0
4, 24315, Note_on_c, 0, 68, 88
4, 24476, Note_off_c, 0, 68, 0
4, 24480, Note_on_c, 0, 68, 88
4, 24596, Note_off_c, 0, 68, 0
4, 24600, Note_on_c, 0, 66, 88
4, 24658, Note_off_c, 0, 66, 0
4, 24660, Note_on_c, 0, 65, 88
4, 24718, Note_off_c, 0, 65, 0
4, 24720, Note_on_c, 0, 66, 88
4, 24778, Note_off_c, 0, 66, 0
4, 24780, Note_on_c, 0, 68, 88
4, 24838, Note_off_c, 0, 68, 0
4, 24840, Note_on_c, 0, 66, 88
4, 24956, Note_off_c, 0, 66, 0
4, 24960, Note_on_c, 0, 65, 88
4, 25194, Note_off_c, 0, 65, 0
4, 25200, Note_on_c, 0, 63, 88
4, 25316, Note_off_c, 0, 63, 0
4, 25320, Note_on_c, 0, 68, 88
4, 25378, Note_off_c, 0, 68, 0
4, 25380, Note_on_c, 0, 67, 88
4, 25438, Note_off_c, 0, 67, 0
4, 25440, Note_on_c, 0, 68, 88
4, 25498, Note_off_c, 0, 68, 0
4, 25500, Note_on_c, 0, 70, 88
4, 25558, Note_off_c, 0, 70, 0
4, 25560, Note_on_c, 0, 72, 88
4, 25618, Note_off_c, 0, 72, 0
4, 25620, Note_on_c, 0, 68, 88
4, 25678, Note_off_c, 0, 68, 0
4, 25680, Note_on_c, 0, 73, 88
4, 25738, Note_off_c, 0, 73, 0
4, 25740, Note_on_c, 0, 75, 88
4, 25798, Note_off_c, 0, 75, 0
4, 25800, Note_on_c, 0, 73, 88
4, 25858, Note_off_c, 0, 73, 0
4, 25860, Note_on_c, 0, 72, 88
4, 25918, Note_off_c, 0, 72, 0
4, 25920, Note_on_c, 0, 70, 88
4, 25978, Note_off_c, 0, 70, 0
4, 25980, Note_on_c, 0, 72, 88
4, 26038, Note_off_c, 0, 72, 0
4, 26040, Note_on_c, 0, 73, 88
4, 26055, Note_on_c, 0, 72, 88
4, 26055, Note_off_c, 0, 73, 0
4, 26077, Note_off_c, 0, 72, 0
4, 26078, Note_on_c, 0, 73, 88
4, 26099, Note_off_c, 0, 73, 0
4, 26100, Note_on_c, 0, 72, 88
4, 26115, Note_off_c, 0, 72, 0
4, 26115, Note_on_c, 0, 73, 88
4, 26130, Note_on_c, 0, 72, 88
4, 26130, Note_off_c, 0, 73, 0
4, 26217, Note_off_c, 0, 72, 0
4, 26220, Note_on_c, 0, 73, 88
4, 26278, Note_off_c, 0, 73, 0
4, 26280, Note_on_c, 0, 73, 88
4, 26396, Note_off_c, 0, 73, 0
4, 26400, Note_on_c, 0, 77, 88
4, 26516, Note_off_c, 0, 77, 0
4, 26520, Note_on_c, 0, 75, 88
4, 26636, Note_off_c, 0, 75, 0
4, 26640, Note_on_c, 0, 73, 88
4, 26756, Note_off_c, 0, 73, 0
4, 26760, Note_on_c, 0, 78, 88
4, 26818, Note_off_c, 0, 78, 0
4, 26820, Note_on_c, 0, 80, 88
4, 26878, Note_off_c, 0, 80, 0
4, 26880, Note_on_c, 0, 78, 88
4, 26938, Note_off_c, 0, 78, 0
4, 26940, Note_on_c, 0, 77, 88
4, 26998, Note_off_c, 0, 77, 0
4, 27000, Note_on_c, 0, 75, 88
4, 27285, Note_off_c, 0, 75, 0
4, 27300, Note_on_c, 0, 75, 88
4, 27358, Note_off_c, 0, 75, 0
4, 27360, Note_on_c, 0, 73, 88
4, 27535, Note_off_c, 0, 73, 0
4, 27540, Note_on_c, 0, 72, 88
4, 27598, Note_off_c, 0, 72, 0
4, 27600, Note_on_c, 0, 73, 88
4, 27658, Note_off_c, 0, 73, 0
4, 27660, Note_on_c, 0, 75, 88
4, 27718, Note_off_c, 0, 75, 0
4, 27720, Note_on_c, 0, 68, 88
4, 27836, Note_off_c, 0, 68, 0
4, 27840, Note_on_c, 0, 73, 88
4, 27898, Note_off_c, 0, 73, 0
4, 27900, Note_on_c, 0, 75, 88
4, 27958, Note_off_c, 0, 75, 0
4, 27960, Note_on_c, 0, 73, 88
4, 28018, Note_off_c, 0, 73, 0
4, 28020, Note_on_c, 0, 72, 88
4, 28078, Note_off_c, 0, 72, 0
4, 28080, Note_on_c, 0, 70, 88
4, 28196, Note_off_c, 0, 70, 0
4, 28200, Note_on_c, 0, 72, 88
4, 28365, Note_off_c, 0, 72, 0
4, 28380, Note_on_c, 0, 72, 88
4, 28438, Note_off_c, 0, 72, 0
4, 28440, Note_on_c, 0, 73, 88
4, 28725, Note_off_c, 0, 73, 0
4, 28740, Note_on_c, 0, 73, 88
4, 28798, Note_off_c, 0, 73, 0
4, 28800, Note_on_c, 0, 72, 88
4, 28916, Note_off_c, 0, 72, 0
4, 29280, Note_on_c, 0, 70, 88
4, 29338, Note_off_c, 0, 70, 0
4, 29340, Note_on_c, 0, 68, 88
4, 29398, Note_off_c, 0, 68, 0
4, 29400, Note_on_c, 0, 70, 88
4, 29458, Note_off_c, 0, 70, 0
4, 29460, Note_on_c, 0, 72, 88
4, 29518, Note_off_c, 0, 72, 0
4, 29520, Note_on_c, 0, 73, 88
4, 29996, Note_off_c, 0, 73, 0
4, 30000, Note_on_c, 0, 72, 88
4, 30116, Note_off_c, 0, 72, 0
4, 30120, Note_on_c, 0, 77, 88
4, 30236, Note_off_c, 0, 77, 0
4, 30240, Note_on_c, 0, 70, 88
4, 30474, Note_off_c, 0, 70, 0
4, 30480, Note_on_c, 0, 75, 88
4, 30596, Note_off_c, 0, 75, 0
4, 30600, Note_on_c, 0, 68, 88
4, 30834, Note_off_c, 0, 68, 0
4, 30840, Note_on_c, 0, 73, 88
4, 31076, Note_off_c, 0, 73, 0
4, 31080, Note_on_c, 0, 72, 88
4, 31138, Note_off_c, 0, 72, 0
4, 31140, Note_on_c, 0, 70, 88
4, 31198, Note_off_c, 0, 70, 0
4, 31200, Note_on_c, 0, 72, 88
4, 31258, Note_off_c, 0, 72, 0
4, 31260, Note_on_c, 0, 75, 88
4, 31318, Note_off_c, 0, 75, 0
4, 31320, Note_on_c, 0, 68, 88
4, 31436, Note_off_c, 0, 68, 0
4, 31440, Note_on_c, 0, 73, 88
4, 31556, Note_off_c, 0, 73, 0
4, 31560, Note_on_c, 0, 66, 88
4, 31676, Note_off_c, 0, 66, 0
4, 31680, Note_on_c, 0, 65, 88
4, 31796, Note_off_c, 0, 65, 0
4, 31800, Note_on_c, 0, 63, 88
4, 32034, Note_off_c, 0, 63, 0
4, 32040, Note_on_c, 0, 61, 88
4, 32393, Note_off_c, 0, 61, 0
4, 32393, End_track
5, 0, Start_track
5, 0, Title_t, "Track 2"
5, 0, Program_c, 1, 6
5, 240, Note_on_c, 1, 68, 88
5, 298, Note_off_c, 1, 68, 0
5, 300, Note_on_c, 1, 66, 88
5, 358, Note_off_c, 1, 66, 0
5, 360, Note_on_c, 1, 68, 88
5, 418, Note_off_c, 1, 68, 0
5, 420, Note_on_c, 1, 65, 88
5, 478, Note_off_c, 1, 65, 0
5, 720, Note_on_c, 1, 68, 88
5, 778, Note_off_c, 1, 68, 0
5, 780, Note_on_c, 1, 66, 88
5, 838, Note_off_c, 1, 66, 0
5, 840, Note_on_c, 1, 68, 88
5, 898, Note_off_c, 1, 68, 0
5, 900, Note_on_c, 1, 65, 88
5, 958, Note_off_c, 1, 65, 0
5, 1200, Note_on_c, 1, 70, 88
5, 1258, Note_off_c, 1, 70, 0
5, 1260, Note_on_c, 1, 68, 88
5, 1318, Note_off_c, 1, 68, 0
5, 1320, Note_on_c, 1, 70, 88
5, 1378, Note_off_c, 1, 70, 0
5, 1380, Note_on_c, 1, 66, 88
5, 1438, Note_off_c, 1, 66, 0
5, 1680, Note_on_c, 1, 68, 88
5, 1738, Note_off_c, 1, 68, 0
5, 1740, Note_on_c, 1, 66, 88
5, 1798, Note_off_c, 1, 66, 0
5, 1800, Note_on_c, 1, 68, 88
5, 1858, Note_off_c, 1, 68, 0
5, 1860, Note_on_c, 1, 66, 88
5, 1918, Note_off_c, 1, 66, 0
5, 2160, Note_on_c, 1, 68, 88
5, 2218, Note_off_c, 1, 68, 0
5, 2220, Note_on_c, 1, 66, 88
5, 2278, Note_off_c, 1, 66, 0
5, 2280, Note_on_c, 1, 68, 88
5, 2338, Note_off_c, 1, 68, 0
5, 2340, Note_on_c, 1, 66, 88
5, 2398, Note_off_c, 1, 66, 0
5, 2640, Note_on_c, 1, 68, 88
5, 2698, Note_off_c, 1, 68, 0
5, 2700, Note_on_c, 1, 66, 88
5, 2758, Note_off_c, 1, 66, 0
5, 2760, Note_on_c, 1, 68, 88
5, 2818, Note_off_c, 1, 68, 0
5, 2820, Note_on_c, 1, 65, 88
5, 2878, Note_off_c, 1, 65, 0
5, 3120, Note_on_c, 1, 67, 88
5, 3178, Note_off_c, 1, 67, 0
5, 3180, Note_on_c, 1, 65, 88
5, 3238, Note_off_c, 1, 65, 0
5, 3240, Note_on_c, 1, 67, 88
5, 3298, Note_off_c, 1, 67, 0
5, 3300, Note_on_c, 1, 63, 88
5, 3358, Note_off_c, 1, 63, 0
5, 3600, Note_on_c, 1, 68, 88
5, 3658, Note_off_c, 1, 68, 0
5, 3660, Note_on_c, 1, 67, 88
5, 3718, Note_off_c, 1, 67, 0
5, 3720, Note_on_c, 1, 68, 88
5, 3778, Note_off_c, 1, 68, 0
5, 3780, Note_on_c, 1, 63, 88
5, 3838, Note_off_c, 1, 63, 0
5, 4080, Note_on_c, 1, 70, 88
5, 4138, Note_off_c, 1, 70, 0
5, 4140, Note_on_c, 1, 68, 88
5, 4198, Note_off_c, 1, 68, 0
5, 4200, Note_on_c, 1, 70, 88
5, 4258, Note_off_c, 1, 70, 0
5, 4260, Note_on_c, 1, 65, 88
5, 4318, Note_off_c, 1, 65, 0
5, 4560, Note_on_c, 1, 70, 88
5, 4618, Note_off_c, 1, 70, 0
5, 4620, Note_on_c, 1, 68, 88
5, 4678, Note_off_c, 1, 68, 0
5, 4680, Note_on_c, 1, 70, 88
5, 4738, Note_off_c, 1, 70, 0
5, 4740, Note_on_c, 1, 63, 88
5, 4798, Note_off_c, 1, 63, 0
5, 5040, Note_on_c, 1, 70, 88
5, 5098, Note_off_c, 1, 70, 0
5, 5100, Note_on_c, 1, 68, 88
5, 5158, Note_off_c, 1, 68, 0
5, 5160, Note_on_c, 1, 70, 88
5, 5218, Note_off_c, 1, 70, 0
5, 5220, Note_on_c, 1, 63, 88
5, 5278, Note_off_c, 1, 63, 0
5, 5520, Note_on_c, 1, 68, 88
5, 5578, Note_off_c, 1, 68, 0
5, 5580, Note_on_c, 1, 67, 88
5, 5638, Note_off_c, 1, 67, 0
5, 5640, Note_on_c, 1, 68, 88
5, 5698, Note_off_c, 1, 68, 0
5, 5700, Note_on_c, 1, 63, 88
5, 5758, Note_off_c, 1, 63, 0
5, 6000, Note_on_c, 1, 70, 88
5, 6058, Note_off_c, 1, 70, 0
5, 6060, Note_on_c, 1, 68, 88
5, 6118, Note_off_c, 1, 68, 0
5, 6120, Note_on_c, 1, 70, 88
5, 6178, Note_off_c, 1, 70, 0
5, 6180, Note_on_c, 1, 65, 88
5, 6238, Note_off_c, 1, 65, 0
5, 6480, Note_on_c, 1, 70, 88
5, 6538, Note_off_c, 1, 70, 0
5, 6540, Note_on_c, 1, 68, 88
5, 6598, Note_off_c, 1, 68, 0
5, 6600, Note_on_c, 1, 70, 88
5, 6658, Note_off_c, 1, 70, 0
5, 6660, Note_on_c, 1, 63, 88
5, 6718, Note_off_c, 1, 63, 0
5, 6960, Note_on_c, 1, 69, 88
5, 7018, Note_off_c, 1, 69, 0
5, 7020, Note_on_c, 1, 67, 88
5, 7078, Note_off_c, 1, 67, 0
5, 7080, Note_on_c, 1, 69, 88
5, 7138, Note_off_c, 1, 69, 0
5, 7140, Note_on_c, 1, 65, 88
5, 7198, Note_off_c, 1, 65, 0
5, 7440, Note_on_c, 1, 70, 88
5, 7498, Note_off_c, 1, 70, 0
5, 7500, Note_on_c, 1, 69, 88
5, 7558, Note_off_c, 1, 69, 0
5, 7560, Note_on_c, 1, 70, 88
5, 7618, Note_off_c, 1, 70, 0
5, 7620, Note_on_c, 1, 65, 88
5, 7678, Note_off_c, 1, 65, 0
5, 7920, Note_on_c, 1, 72, 88
5, 7978, Note_off_c, 1, 72, 0
5, 7980, Note_on_c, 1, 70, 88
5, 8038, Note_off_c, 1, 70, 0
5, 8040, Note_on_c, 1, 72, 88
5, 8098, Note_off_c, 1, 72, 0
5, 8100, Note_on_c, 1, 66, 88
5, 8158, Note_off_c, 1, 66, 0
5, 8400, Note_on_c, 1, 72, 88
5, 8458, Note_off_c, 1, 72, 0
5, 8460, Note_on_c, 1, 70, 88
5, 8518, Note_off_c, 1, 70, 0
5, 8520, Note_on_c, 1, 72, 88
5, 8578, Note_off_c, 1, 72, 0
5, 8580, Note_on_c, 1, 68, 88
5, 8638, Note_off_c, 1, 68, 0
5, 8880, Note_on_c, 1, 73, 88
5, 8938, Note_off_c, 1, 73, 0
5, 8940, Note_on_c, 1, 72, 88
5, 8998, Note_off_c, 1, 72, 0
5, 9000, Note_on_c, 1, 73, 88
5, 9058, Note_off_c, 1, 73, 0
5, 9060, Note_on_c, 1, 66, 88
5, 9118, Note_off_c, 1, 66, 0
5, 9360, Note_on_c, 1, 68, 88
5, 9418, Note_off_c, 1, 68, 0
5, 9420, Note_on_c, 1, 66, 88
5, 9478, Note_off_c, 1, 66, 0
5, 9480, Note_on_c, 1, 68, 88
5, 9538, Note_off_c, 1, 68, 0
5, 9540, Note_on_c, 1, 66, 88
5, 9598, Note_off_c, 1, 66, 0
5, 9840, Note_on_c, 1, 68, 88
5, 9898, Note_off_c, 1, 68, 0
5, 9900, Note_on_c, 1, 66, 88
5, 9958, Note_off_c, 1, 66, 0
5, 9960, Note_on_c, 1, 68, 88
5, 10018, Note_off_c, 1, 68, 0
5, 10020, Note_on_c, 1, 66, 88
5, 10078, Note_off_c, 1, 66, 0
5, 10320, Note_on_c, 1, 68, 88
5, 10378, Note_off_c, 1, 68, 0
5, 10380, Note_on_c, 1, 66, 88
5, 10438, Note_off_c, 1, 66, 0
5, 10440, Note_on_c, 1, 68, 88
5, 10498, Note_off_c, 1, 68, 0
5, 10500, Note_on_c, 1, 65, 88
5, 10558, Note_off_c, 1, 65, 0
5, 10800, Note_on_c, 1, 66, 88
5, 10858, Note_off_c, 1, 66, 0
5, 10860, Note_on_c, 1, 65, 88
5, 10918, Note_off_c, 1, 65, 0
5, 10920, Note_on_c, 1, 66, 88
5, 10978, Note_off_c, 1, 66, 0
5, 10980, Note_on_c, 1, 63, 88
5, 11038, Note_off_c, 1, 63, 0
5, 11280, Note_on_c, 1, 66, 88
5, 11338, Note_off_c, 1, 66, 0
5, 11340, Note_on_c, 1, 65, 88
5, 11398, Note_off_c, 1, 65, 0
5, 11400, Note_on_c, 1, 66, 88
5, 11458, Note_off_c, 1, 66, 0
5, 11460, Note_on_c, 1, 63, 88
5, 11518, Note_off_c, 1, 63, 0
5, 11760, Note_on_c, 1, 65, 88
5, 11818, Note_off_c, 1, 65, 0
5, 11820, Note_on_c, 1, 63, 88
5, 11878, Note_off_c, 1, 63, 0
5, 11880, Note_on_c, 1, 65, 88
5, 11938, Note_off_c, 1, 65, 0
5, 11940, Note_on_c, 1, 61, 88
5, 11998, Note_off_c, 1, 61, 0
5, 12240, Note_on_c, 1, 66, 88
5, 12298, Note_off_c, 1, 66, 0
5, 12300, Note_on_c, 1, 65, 88
5, 12358, Note_off_c, 1, 65, 0
5, 12360, Note_on_c, 1, 66, 88
5, 12418, Note_off_c, 1, 66, 0
5, 12420, Note_on_c, 1, 61, 88
5, 12478, Note_off_c, 1, 61, 0
5, 12720, Note_on_c, 1, 66, 88
5, 12778, Note_off_c, 1, 66, 0
5, 12780, Note_on_c, 1, 65, 88
5, 12838, Note_off_c, 1, 65, 0
5, 12840, Note_on_c, 1, 66, 88
5, 12898, Note_off_c, 1, 66, 0
5, 12900, Note_on_c, 1, 63, 88
5, 12958, Note_off_c, 1, 63, 0
5, 13200, Note_on_c, 1, 65, 88
5, 13258, Note_off_c, 1, 65, 0
5, 13260, Note_on_c, 1, 63, 88
5, 13318, Note_off_c, 1, 63, 0
5, 13320, Note_on_c, 1, 65, 88
5, 13378, Note_off_c, 1, 65, 0
5, 13380, Note_on_c, 1, 62, 88
5, 13438, Note_off_c, 1, 62, 0
5, 13680, Note_on_c, 1, 65, 88
5, 13738, Note_off_c, 1, 65, 0
5, 13740, Note_on_c, 1, 63, 88
5, 13798, Note_off_c, 1, 63, 0
5, 13800, Note_on_c, 1, 65, 88
5, 13858, Note_off_c, 1, 65, 0
5, 13860, Note_on_c, 1, 62, 88
5, 13918, Note_off_c, 1, 62, 0
5, 14160, Note_on_c, 1, 63, 88
5, 14218, Note_off_c, 1, 63, 0
5, 14220, Note_on_c, 1, 61, 88
5, 14278, Note_off_c, 1, 61, 0
5, 14280, Note_on_c, 1, 63, 88
5, 14338, Note_off_c, 1, 63, 0
5, 14340, Note_on_c, 1, 61, 88
5, 14398, Note_off_c, 1, 61, 0
5, 14640, Note_on_c, 1, 63, 88
5, 14698, Note_off_c, 1, 63, 0
5, 14700, Note_on_c, 1, 61, 88
5, 14758, Note_off_c, 1, 61, 0
5, 14760, Note_on_c, 1, 63, 88
5, 14818, Note_off_c, 1, 63, 0
5, 14820, Note_on_c, 1, 60, 88
5, 14878, Note_off_c, 1, 60, 0
5, 15120, Note_on_c, 1, 61, 88
5, 15178, Note_off_c, 1, 61, 0
5, 15180, Note_on_c, 1, 59, 88
5, 15238, Note_off_c, 1, 59, 0
5, 15240, Note_on_c, 1, 61, 88
5, 15298, Note_off_c, 1, 61, 0
5, 15300, Note_on_c, 1, 59, 88
5, 15358, Note_off_c, 1, 59, 0
5, 15600, Note_on_c, 1, 61, 88
5, 15658, Note_off_c, 1, 61, 0
5, 15660, Note_on_c, 1, 60, 88
5, 15718, Note_off_c, 1, 60, 0
5, 15720, Note_on_c, 1, 61, 88
5, 15778, Note_off_c, 1, 61, 0
5, 15780, Note_on_c, 1, 58, 88
5, 15838, Note_off_c, 1, 58, 0
5, 16080, Note_on_c, 1, 61, 88
5, 16138, Note_off_c, 1, 61, 0
5, 16140, Note_on_c, 1, 60, 88
5, 16198, Note_off_c, 1, 60, 0
5, 16200, Note_on_c, 1, 61, 88
5, 16258, Note_off_c, 1, 61, 0
5, 16260, Note_on_c, 1, 58, 88
5, 16318, Note_off_c, 1, 58, 0
5, 16560, Note_on_c, 1, 60, 88
5, 16618, Note_off_c, 1, 60, 0
5, 16620, Note_on_c, 1, 58, 88
5, 16678, Note_off_c, 1, 58, 0
5, 16680, Note_on_c, 1, 60, 88
5, 16738, Note_off_c, 1, 60, 0
5, 16740, Note_on_c, 1, 56, 88
5, 16798, Note_off_c, 1, 56, 0
5, 17040, Note_on_c, 1, 61, 88
5, 17098, Note_off_c, 1, 61, 0
5, 17100, Note_on_c, 1, 60, 88
5, 17158, Note_off_c, 1, 60, 0
5, 17160, Note_on_c, 1, 61, 88
5, 17218, Note_off_c, 1, 61, 0
5, 17220, Note_on_c, 1, 56, 88
5, 17278, Note_off_c, 1, 56, 0
5, 17520, Note_on_c, 1, 63, 88
5, 17578, Note_off_c, 1, 63, 0
5, 17580, Note_on_c, 1, 61, 88
5, 17638, Note_off_c, 1, 61, 0
5, 17640, Note_on_c, 1, 63, 88
5, 17698, Note_off_c, 1, 63, 0
5, 17700, Note_on_c, 1, 58, 88
5, 17758, Note_off_c, 1, 58, 0
5, 18000, Note_on_c, 1, 63, 88
5, 18058, Note_off_c, 1, 63, 0
5, 18060, Note_on_c, 1, 61, 88
5, 18118, Note_off_c, 1, 61, 0
5, 18120, Note_on_c, 1, 63, 88
5, 18178, Note_off_c, 1, 63, 0
5, 18180, Note_on_c, 1, 56, 88
5, 18238, Note_off_c, 1, 56, 0
5, 18480, Note_on_c, 1, 63, 88
5, 18538, Note_off_c, 1, 63, 0
5, 18540, Note_on_c, 1, 61, 88
5, 18598, Note_off_c, 1, 61, 0
5, 18600, Note_on_c, 1, 63, 88
5, 18658, Note_off_c, 1, 63, 0
5, 18660, Note_on_c, 1, 56, 88
5, 18718, Note_off_c, 1, 56, 0
5, 18960, Note_on_c, 1, 61, 88
5, 19018, Note_off_c, 1, 61, 0
5, 19020, Note_on_c, 1, 60, 88
5, 19078, Note_off_c, 1, 60, 0
5, 19080, Note_on_c, 1, 61, 88
5, 19138, Note_off_c, 1, 61, 0
5, 19140, Note_on_c, 1, 56, 88
5, 19198, Note_off_c, 1, 56, 0
5, 19440, Note_on_c, 1, 63, 88
5, 19498, Note_off_c, 1, 63, 0
5, 19500, Note_on_c, 1, 61, 88
5, 19558, Note_off_c, 1, 61, 0
5, 19560, Note_on_c, 1, 63, 88
5, 19618, Note_off_c, 1, 63, 0
5, 19620, Note_on_c, 1, 58, 88
5, 19678, Note_off_c, 1, 58, 0
5, 19920, Note_on_c, 1, 63, 88
5, 19978, Note_off_c, 1, 63, 0
5, 19980, Note_on_c, 1, 61, 88
5, 20038, Note_off_c, 1, 61, 0
5, 20040, Note_on_c, 1, 63, 88
5, 20098, Note_off_c, 1, 63, 0
5, 20100, Note_on_c, 1, 59, 88
5, 20158, Note_off_c, 1, 59, 0
5, 20400, Note_on_c, 1, 63, 88
5, 20458, Note_off_c, 1, 63, 0
5, 20460, Note_on_c, 1, 61, 88
5, 20518, Note_off_c, 1, 61, 0
5, 20520, Note_on_c, 1, 63, 88
5, 20578, Note_off_c, 1, 63, 0
5, 20580, Note_on_c, 1, 59, 88
5, 20638, Note_off_c, 1, 59, 0
5, 20880, Note_on_c, 1, 63, 88
5, 20938, Note_off_c, 1, 63, 0
5, 20940, Note_on_c, 1, 62, 88
5, 20998, Note_off_c, 1, 62, 0
5, 21000, Note_on_c, 1, 63, 88
5, 21058, Note_off_c, 1, 63, 0
5, 21060, Note_on_c, 1, 62, 88
5, 21118, Note_off_c, 1, 62, 0
5, 21360, Note_on_c, 1, 63, 88
5, 21418, Note_off_c, 1, 63, 0
5, 21420, Note_on_c, 1, 61, 88
5, 21478, Note_off_c, 1, 61, 0
5, 21480, Note_on_c, 1, 63, 88
5, 21538, Note_off_c, 1, 63, 0
5, 21540, Note_on_c, 1, 59, 88
5, 21598, Note_off_c, 1, 59, 0
5, 21840, Note_on_c, 1, 65, 88
5, 21898, Note_off_c, 1, 65, 0
5, 21900, Note_on_c, 1, 63, 88
5, 21958, Note_off_c, 1, 63, 0
5, 21960, Note_on_c, 1, 65, 88
5, 22018, Note_off_c, 1, 65, 0
5, 22020, Note_on_c, 1, 62, 88
5, 22078, Note_off_c, 1, 62, 0
5, 22320, Note_on_c, 1, 64, 88
5, 22378, Note_off_c, 1, 64, 0
5, 22380, Note_on_c, 1, 63, 88
5, 22438, Note_off_c, 1, 63, 0
5, 22440, Note_on_c, 1, 64, 88
5, 22498, Note_off_c, 1, 64, 0
5, 22500, Note_on_c, 1, 61, 88
5, 22558, Note_off_c, 1, 61, 0
5, 22800, Note_on_c, 1, 63, 88
5, 22858, Note_off_c, 1, 63, 0
5, 22860, Note_on_c, 1, 61, 88
5, 22918, Note_off_c, 1, 61, 0
5, 22920, Note_on_c, 1, 63, 88
5, 22978, Note_off_c, 1, 63, 0
5, 22980, Note_on_c, 1, 61, 88
5, 23038, Note_off_c, 1, 61, 0
5, 23040, Note_on_c, 1, 60, 88
5, 23040, Note_on_c, 1, 63, 88
5, 23156, Note_off_c, 1, 60, 0
5, 23156, Note_off_c, 1, 63, 0
5, 23520, Note_on_c, 1, 58, 88
5, 23578, Note_off_c, 1, 58, 0
5, 23580, Note_on_c, 1, 56, 88
5, 23638, Note_off_c, 1, 56, 0
5, 23640, Note_on_c, 1, 58, 88
5, 23698, Note_off_c, 1, 58, 0
5, 23700, Note_on_c, 1, 60, 88
5, 23758, Note_off_c, 1, 60, 0
5, 23760, Note_on_c, 1, 60, 88
5, 23876, Note_off_c, 1, 60, 0
5, 23880, Note_on_c, 1, 61, 88
5, 24114, Note_off_c, 1, 61, 0
5, 24120, Note_on_c, 1, 61, 88
5, 24236, Note_off_c, 1, 61, 0
5, 24240, Note_on_c, 1, 60, 88
5, 24356, Note_off_c, 1, 60, 0
5, 24360, Note_on_c, 1, 65, 88
5, 24476, Note_off_c, 1, 65, 0
5, 24480, Note_on_c, 1, 58, 88
5, 24596, Note_off_c, 1, 58, 0
5, 24600, Note_on_c, 1, 63, 88
5, 24629, Note_off_c, 1, 63, 0
5, 24630, Note_on_c, 1, 61, 88
5, 24674, Note_off_c, 1, 61, 0
5, 24675, Note_on_c, 1, 63, 88
5, 24836, Note_off_c, 1, 63, 0
5, 24840, Note_on_c, 1, 63, 88
5, 24956, Note_off_c, 1, 63, 0
5, 24960, Note_on_c, 1, 61, 88
5, 25316, Note_off_c, 1, 61, 0
5, 25320, Note_on_c, 1, 60, 88
5, 25378, Note_off_c, 1, 60, 0
5, 25380, Note_on_c, 1, 58, 88
5, 25438, Note_off_c, 1, 58, 0
5, 25440, Note_on_c, 1, 60, 88
5, 25498, Note_off_c, 1, 60, 0
5, 25500, Note_on_c, 1, 61, 88
5, 25558, Note_off_c, 1, 61, 0
5, 25560, Note_on_c, 1, 63, 88
5, 25676, Note_off_c, 1, 63, 0
5, 25680, Note_on_c, 1, 56, 88
5, 25796, Note_off_c, 1, 56, 0
5, 25800, Note_on_c, 1, 61, 88
5, 25916, Note_off_c, 1, 61, 0
5, 25920, Note_on_c, 1, 66, 88
5, 26338, Note_off_c, 1, 66, 0
5, 26340, Note_on_c, 1, 65, 88
5, 26398, Note_off_c, 1, 65, 0
5, 26400, Note_on_c, 1, 68, 88
5, 26698, Note_off_c, 1, 68, 0
5, 26700, Note_on_c, 1, 65, 88
5, 26758, Note_off_c, 1, 65, 0
5, 26760, Note_on_c, 1, 61, 88
5, 26818, Note_off_c, 1, 61, 0
5, 26820, Note_on_c, 1, 65, 88
5, 26878, Note_off_c, 1, 65, 0
5, 26880, Note_on_c, 1, 63, 88
5, 26938, Note_off_c, 1, 63, 0
5, 26940, Note_on_c, 1, 61, 88
5, 26998, Note_off_c, 1, 61, 0
5, 27000, Note_on_c, 1, 60, 88
5, 27116, Note_off_c, 1, 60, 0
5, 27120, Note_on_c, 1, 72, 88
5, 27236, Note_off_c, 1, 72, 0
5, 27240, Note_on_c, 1, 65, 88
5, 27405, Note_off_c, 1, 65, 0
5, 27420, Note_on_c, 1, 65, 88
5, 27478, Note_off_c, 1, 65, 0
5, 27480, Note_on_c, 1, 66, 88
5, 27778, Note_off_c, 1, 66, 0
5, 27780, Note_on_c, 1, 65, 88
5, 28074, Note_off_c, 1, 65, 0
5, 28080, Note_on_c, 1, 67, 88
5, 28138, Note_off_c, 1, 67, 0
5, 28140, Note_on_c, 1, 63, 88
5, 28198, Note_off_c, 1, 63, 0
5, 28200, Note_on_c, 1, 68, 88
5, 28258, Note_off_c, 1, 68, 0
5, 28260, Note_on_c, 1, 67, 88
5, 28318, Note_off_c, 1, 67, 0
5, 28320, Note_on_c, 1, 68, 88
5, 28485, Note_off_c, 1, 68, 0
5, 28500, Note_on_c, 1, 68, 88
5, 28558, Note_off_c, 1, 68, 0
5, 28560, Note_on_c, 1, 67, 88
5, 28618, Note_off_c, 1, 67, 0
5, 28620, Note_on_c, 1, 65, 88
5, 28678, Note_off_c, 1, 65, 0
5, 28680, Note_on_c, 1, 67, 88
5, 28796, Note_off_c, 1, 67, 0
5, 28800, Note_on_c, 1, 68, 88
5, 28916, Note_off_c, 1, 68, 0
5, 28920, Note_on_c, 1, 63, 88
5, 28978, Note_off_c, 1, 63, 0
5, 28980, Note_on_c, 1, 61, 88
5, 29038, Note_off_c, 1, 61, 0
5, 29040, Note_on_c, 1, 63, 88
5, 29098, Note_off_c, 1, 63, 0
5, 29100, Note_on_c, 1, 65, 88
5, 29158, Note_off_c, 1, 65, 0
5, 29160, Note_on_c, 1, 66, 88
5, 29636, Note_off_c, 1, 66, 0
5, 29640, Note_on_c, 1, 65, 88
5, 29756, Note_off_c, 1, 65, 0
5, 29760, Note_on_c, 1, 70, 88
5, 29876, Note_off_c, 1, 70, 0
5, 29880, Note_on_c, 1, 69, 88
5, 30114, Note_off_c, 1, 69, 0
5, 30120, Note_on_c, 1, 68, 88
5, 30356, Note_off_c, 1, 68, 0
5, 30360, Note_on_c, 1, 67, 88
5, 30476, Note_off_c, 1, 67, 0
5, 30480, Note_on_c, 1, 66, 88
5, 30716, Note_off_c, 1, 66, 0
5, 30720, Note_on_c, 1, 65, 88
5, 30836, Note_off_c, 1, 65, 0
5, 30840, Note_on_c, 1, 64, 88
5, 30956, Note_off_c, 1, 64, 0
5, 30960, Note_on_c, 1, 63, 88
5, 31436, Note_off_c, 1, 63, 0
5, 31440, Note_on_c, 1, 61, 88
5, 31556, Note_off_c, 1, 61, 0
5, 31560, Note_on_c, 1, 63, 88
5, 31738, Note_off_c, 1, 63, 0
5, 31740, Note_on_c, 1, 61, 88
5, 31856, Note_off_c, 1, 61, 0
5, 31860, Note_on_c, 1, 58, 88
5, 31918, Note_off_c, 1, 58, 0
5, 31920, Note_on_c, 1, 60, 88
5, 32036, Note_off_c, 1, 60, 0
5, 32040, Note_on_c, 1, 56, 88
5, 32393, Note_off_c, 1, 56, 0
5, 32393, End_track
6, 0, Start_track
6, 0, Title_t, "Track 3"
6, 0, Program_c, 2, 6
6, 0, Note_on_c, 2, 56, 88
6, 105, Note_off_c, 2, 56, 0
6, 120, Note_on_c, 2, 56, 88
6, 236, Note_off_c, 2, 56, 0
6, 240, Note_on_c, 2, 53, 88
6, 345, Note_off_c, 2, 53, 0
6, 360, Note_on_c, 2, 53, 88
6, 476, Note_off_c, 2, 53, 0
6, 480, Note_on_c, 2, 56, 88
6, 585, Note_off_c, 2, 56, 0
6, 600, Note_on_c, 2, 56, 88
6, 716, Note_off_c, 2, 56, 0
6, 720, Note_on_c, 2, 59, 88
6, 825, Note_off_c, 2, 59, 0
6, 840, Note_on_c, 2, 59, 88
6, 956, Note_off_c, 2, 59, 0
6, 960, Note_on_c, 2, 58, 88
6, 1065, Note_off_c, 2, 58, 0
6, 1080, Note_on_c, 2, 58, 88
6, 1196, Note_off_c, 2, 58, 0
6, 1200, Note_on_c, 2, 54, 88
6, 1305, Note_off_c, 2, 54, 0
6, 1320, Note_on_c, 2, 54, 88
6, 1436, Note_off_c, 2, 54, 0
6, 1440, Note_on_c, 2, 60, 88
6, 1545, Note_off_c, 2, 60, 0
6, 1560, Note_on_c, 2, 60, 88
6, 1665, Note_off_c, 2, 60, 0
6, 1680, Note_on_c, 2, 60, 88
6, 1785, Note_off_c, 2, 60, 0
6, 1800, Note_on_c, 2, 60, 88
6, 1916, Note_off_c, 2, 60, 0
6, 1920, Note_on_c, 2, 61, 88
6, 2025, Note_off_c, 2, 61, 0
6, 2040, Note_on_c, 2, 61, 88
6, 2145, Note_off_c, 2, 61, 0
6, 2160, Note_on_c, 2, 61, 88
6, 2265, Note_off_c, 2, 61, 0
6, 2280, Note_on_c, 2, 61, 88
6, 2396, Note_off_c, 2, 61, 0
6, 2400, Note_on_c, 2, 56, 88
6, 2505, Note_off_c, 2, 56, 0
6, 2520, Note_on_c, 2, 56, 88
6, 2636, Note_off_c, 2, 56, 0
6, 2640, Note_on_c, 2, 53, 88
6, 2745, Note_off_c, 2, 53, 0
6, 2760, Note_on_c, 2, 53, 88
6, 2876, Note_off_c, 2, 53, 0
6, 2880, Note_on_c, 2, 58, 88
6, 2985, Note_off_c, 2, 58, 0
6, 3000, Note_on_c, 2, 58, 88
6, 3116, Note_off_c, 2, 58, 0
6, 3120, Note_on_c, 2, 51, 88
6, 3225, Note_off_c, 2, 51, 0
6, 3240, Note_on_c, 2, 51, 88
6, 3356, Note_off_c, 2, 51, 0
6, 3360, Note_on_c, 2, 56, 88
6, 3465, Note_off_c, 2, 56, 0
6, 3480, Note_on_c, 2, 56, 88
6, 3585, Note_off_c, 2, 56, 0
6, 3600, Note_on_c, 2, 56, 88
6, 3705, Note_off_c, 2, 56, 0
6, 3720, Note_on_c, 2, 56, 88
6, 3836, Note_off_c, 2, 56, 0
6, 3840, Note_on_c, 2, 56, 88
6, 3945, Note_off_c, 2, 56, 0
6, 3960, Note_on_c, 2, 56, 88
6, 4065, Note_off_c, 2, 56, 0
6, 4080, Note_on_c, 2, 56, 88
6, 4185, Note_off_c, 2, 56, 0
6, 4200, Note_on_c, 2, 56, 88
6, 4316, Note_off_c, 2, 56, 0
6, 4320, Note_on_c, 2, 55, 88
6, 4425, Note_off_c, 2, 55, 0
6, 4440, Note_on_c, 2, 55, 88
6, 4545, Note_off_c, 2, 55, 0
6, 4560, Note_on_c, 2, 55, 88
6, 4665, Note_off_c, 2, 55, 0
6, 4680, Note_on_c, 2, 55, 88
6, 4796, Note_off_c, 2, 55, 0
6, 4800, Note_on_c, 2, 56, 88
6, 4916, Note_off_c, 2, 56, 0
6, 4920, Note_on_c, 2, 51, 88
6, 5025, Note_off_c, 2, 51, 0
6, 5040, Note_on_c, 2, 51, 88
6, 5156, Note_off_c, 2, 51, 0
6, 5160, Note_on_c, 2, 55, 88
6, 5276, Note_off_c, 2, 55, 0
6, 5280, Note_on_c, 2, 56, 88
6, 5385, Note_off_c, 2, 56, 0
6, 5400, Note_on_c, 2, 56, 88
6, 5516, Note_off_c, 2, 56, 0
6, 5520, Note_on_c, 2, 60, 88
6, 5625, Note_off_c, 2, 60, 0
6, 5640, Note_on_c, 2, 60, 88
6, 5756, Note_off_c, 2, 60, 0
6, 5760, Note_on_c, 2, 58, 88
6, 5876, Note_off_c, 2, 58, 0
6, 5880, Note_on_c, 2, 53, 88
6, 5985, Note_off_c, 2, 53, 0
6, 6000, Note_on_c, 2, 53, 88
6, 6116, Note_off_c, 2, 53, 0
6, 6120, Note_on_c, 2, 50, 88
6, 6236, Note_off_c, 2, 50, 0
6, 6240, Note_on_c, 2, 51, 88
6, 6345, Note_off_c, 2, 51, 0
6, 6360, Note_on_c, 2, 51, 88
6, 6476, Note_off_c, 2, 51, 0
6, 6480, Note_on_c, 2, 54, 88
6, 6585, Note_off_c, 2, 54, 0
6, 6600, Note_on_c, 2, 54, 88
6, 6716, Note_off_c, 2, 54, 0
6, 6720, Note_on_c, 2, 48, 88
6, 6825, Note_off_c, 2, 48, 0
6, 6840, Note_on_c, 2, 48, 88
6, 6956, Note_off_c, 2, 48, 0
6, 6960, Note_on_c, 2, 53, 88
6, 7065, Note_off_c, 2, 53, 0
6, 7080, Note_on_c, 2, 53, 88
6, 7185, Note_off_c, 2, 53, 0
6, 7200, Note_on_c, 2, 53, 88
6, 7305, Note_off_c, 2, 53, 0
6, 7320, Note_on_c, 2, 53, 88
6, 7436, Note_off_c, 2, 53, 0
6, 7440, Note_on_c, 2, 61, 88
6, 7545, Note_off_c, 2, 61, 0
6, 7560, Note_on_c, 2, 61, 88
6, 7676, Note_off_c, 2, 61, 0
6, 7680, Note_on_c, 2, 60, 88
6, 7785, Note_off_c, 2, 60, 0
6, 7800, Note_on_c, 2, 60, 88
6, 7905, Note_off_c, 2, 60, 0
6, 7920, Note_on_c, 2, 60, 88
6, 8025, Note_off_c, 2, 60, 0
6, 8040, Note_on_c, 2, 60, 88
6, 8156, Note_off_c, 2, 60, 0
6, 8160, Note_on_c, 2, 65, 88
6, 8265, Note_off_c, 2, 65, 0
6, 8280, Note_on_c, 2, 65, 88
6, 8385, Note_off_c, 2, 65, 0
6, 8400, Note_on_c, 2, 65, 88
6, 8505, Note_off_c, 2, 65, 0
6, 8520, Note_on_c, 2, 65, 88
6, 8636, Note_off_c, 2, 65, 0
6, 8640, Note_on_c, 2, 61, 88
6, 8745, Note_off_c, 2, 61, 0
6, 8760, Note_on_c, 2, 61, 88
6, 8865, Note_off_c, 2, 61, 0
6, 8880, Note_on_c, 2, 61, 88
6, 8985, Note_off_c, 2, 61, 0
6, 9000, Note_on_c, 2, 61, 88
6, 9116, Note_off_c, 2, 61, 0
6, 9120, Note_on_c, 2, 63, 88
6, 9225, Note_off_c, 2, 63, 0
6, 9240, Note_on_c, 2, 63, 88
6, 9345, Note_off_c, 2, 63, 0
6, 9360, Note_on_c, 2, 63, 88
6, 9465, Note_off_c, 2, 63, 0
6, 9480, Note_on_c, 2, 63, 88
6, 9596, Note_off_c, 2, 63, 0
6, 9600, Note_on_c, 2, 56, 88
6, 9705, Note_off_c, 2, 56, 0
6, 9720, Note_on_c, 2, 56, 88
6, 9836, Note_off_c, 2, 56, 0
6, 9840, Note_on_c, 2, 60, 88
6, 9945, Note_off_c, 2, 60, 0
6, 9960, Note_on_c, 2, 60, 88
6, 10076, Note_off_c, 2, 60, 0
6, 10080, Note_on_c, 2, 61, 88
6, 10185, Note_off_c, 2, 61, 0
6, 10200, Note_on_c, 2, 61, 88
6, 10316, Note_off_c, 2, 61, 0
6, 10320, Note_on_c, 2, 59, 88
6, 10425, Note_off_c, 2, 59, 0
6, 10440, Note_on_c, 2, 59, 88
6, 10556, Note_off_c, 2, 59, 0
6, 10560, Note_on_c, 2, 58, 88
6, 10665, Note_off_c, 2, 58, 0
6, 10680, Note_on_c, 2, 58, 88
6, 10785, Note_off_c, 2, 58, 0
6, 10800, Note_on_c, 2, 58, 88
6, 10905, Note_off_c, 2, 58, 0
6, 10920, Note_on_c, 2, 58, 88
6, 11036, Note_off_c, 2, 58, 0
6, 11040, Note_on_c, 2, 59, 88
6, 11145, Note_off_c, 2, 59, 0
6, 11160, Note_on_c, 2, 59, 88
6, 11265, Note_off_c, 2, 59, 0
6, 11280, Note_on_c, 2, 59, 88
6, 11385, Note_off_c, 2, 59, 0
6, 11400, Note_on_c, 2, 59, 88
6, 11516, Note_off_c, 2, 59, 0
6, 11520, Note_on_c, 2, 56, 88
6, 11625, Note_off_c, 2, 56, 0
6, 11640, Note_on_c, 2, 56, 88
6, 11745, Note_off_c, 2, 56, 0
6, 11760, Note_on_c, 2, 56, 88
6, 11865, Note_off_c, 2, 56, 0
6, 11880, Note_on_c, 2, 56, 88
6, 11996, Note_off_c, 2, 56, 0
6, 12000, Note_on_c, 2, 58, 88
6, 12105, Note_off_c, 2, 58, 0
6, 12120, Note_on_c, 2, 58, 88
6, 12225, Note_off_c, 2, 58, 0
6, 12240, Note_on_c, 2, 58, 88
6, 12345, Note_off_c, 2, 58, 0
6, 12360, Note_on_c, 2, 58, 88
6, 12476, Note_off_c, 2, 58, 0
6, 12480, Note_on_c, 2, 51, 88
6, 12585, Note_off_c, 2, 51, 0
6, 12600, Note_on_c, 2, 51, 88
6, 12705, Note_off_c, 2, 51, 0
6, 12720, Note_on_c, 2, 51, 88
6, 12825, Note_off_c, 2, 51, 0
6, 12840, Note_on_c, 2, 51, 88
6, 12956, Note_off_c, 2, 51, 0
6, 12960, Note_on_c, 2, 53, 88
6, 13065, Note_off_c, 2, 53, 0
6, 13080, Note_on_c, 2, 53, 88
6, 13196, Note_off_c, 2, 53, 0
6, 13200, Note_on_c, 2, 58, 88
6, 13305, Note_off_c, 2, 58, 0
6, 13320, Note_on_c, 2, 58, 88
6, 13436, Note_off_c, 2, 58, 0
6, 13440, Note_on_c, 2, 59, 88
6, 13545, Note_off_c, 2, 59, 0
6, 13560, Note_on_c, 2, 59, 88
6, 13665, Note_off_c, 2, 59, 0
6, 13680, Note_on_c, 2, 59, 88
6, 13785, Note_off_c, 2, 59, 0
6, 13800, Note_on_c, 2, 59, 88
6, 13916, Note_off_c, 2, 59, 0
6, 13920, Note_on_c, 2, 58, 88
6, 14025, Note_off_c, 2, 58, 0
6, 14040, Note_on_c, 2, 58, 88
6, 14145, Note_off_c, 2, 58, 0
6, 14160, Note_on_c, 2, 58, 88
6, 14265, Note_off_c, 2, 58, 0
6, 14280, Note_on_c, 2, 58, 88
6, 14396, Note_off_c, 2, 58, 0
6, 14400, Note_on_c, 2, 56, 88
6, 14505, Note_off_c, 2, 56, 0
6, 14520, Note_on_c, 2, 56, 88
6, 14625, Note_off_c, 2, 56, 0
6, 14640, Note_on_c, 2, 56, 88
6, 14745, Note_off_c, 2, 56, 0
6, 14760, Note_on_c, 2, 56, 88
6, 14865, Note_off_c, 2, 56, 0
6, 14880, Note_on_c, 2, 56, 88
6, 14985, Note_off_c, 2, 56, 0
6, 15000, Note_on_c, 2, 56, 88
6, 15105, Note_off_c, 2, 56, 0
6, 15120, Note_on_c, 2, 56, 88
6, 15225, Note_off_c, 2, 56, 0
6, 15240, Note_on_c, 2, 56, 88
6, 15356, Note_off_c, 2, 56, 0
6, 15360, Note_on_c, 2, 54, 88
6, 15465, Note_off_c, 2, 54, 0
6, 15480, Note_on_c, 2, 54, 88
6, 15585, Note_off_c, 2, 54, 0
6, 15600, Note_on_c, 2, 54, 88
6, 15705, Note_off_c, 2, 54, 0
6, 15720, Note_on_c, 2, 54, 88
6, 15825, Note_off_c, 2, 54, 0
6, 15840, Note_on_c, 2, 54, 88
6, 15945, Note_off_c, 2, 54, 0
6, 15960, Note_on_c, 2, 54, 88
6, 16065, Note_off_c, 2, 54, 0
6, 16080, Note_on_c, 2, 54, 88
6, 16185, Note_off_c, 2, 54, 0
6, 16200, Note_on_c, 2, 54, 88
6, 16316, Note_off_c, 2, 54, 0
6, 16320, Note_on_c, 2, 51, 88
6, 16425, Note_off_c, 2, 51, 0
6, 16440, Note_on_c, 2, 51, 88
6, 16545, Note_off_c, 2, 51, 0
6, 16560, Note_on_c, 2, 51, 88
6, 16665, Note_off_c, 2, 51, 0
6, 16680, Note_on_c, 2, 51, 88
6, 16796, Note_off_c, 2, 51, 0
6, 16800, Note_on_c, 2, 49, 88
6, 16905, Note_off_c, 2, 49, 0
6, 16920, Note_on_c, 2, 49, 88
6, 17036, Note_off_c, 2, 49, 0
6, 17040, Note_on_c, 2, 44, 88
6, 17156, Note_off_c, 2, 44, 0
6, 17160, Note_on_c, 2, 49, 88
6, 17276, Note_off_c, 2, 49, 0
6, 17280, Note_on_c, 2, 49, 88
6, 17385, Note_off_c, 2, 49, 0
6, 17400, Note_on_c, 2, 49, 88
6, 17505, Note_off_c, 2, 49, 0
6, 17520, Note_on_c, 2, 49, 88
6, 17625, Note_off_c, 2, 49, 0
6, 17640, Note_on_c, 2, 49, 88
6, 17756, Note_off_c, 2, 49, 0
6, 17760, Note_on_c, 2, 48, 88
6, 17865, Note_off_c, 2, 48, 0
6, 17880, Note_on_c, 2, 48, 88
6, 17985, Note_off_c, 2, 48, 0
6, 18000, Note_on_c, 2, 48, 88
6, 18105, Note_off_c, 2, 48, 0
6, 18120, Note_on_c, 2, 48, 88
6, 18236, Note_off_c, 2, 48, 0
6, 18240, Note_on_c, 2, 49, 88
6, 18356, Note_off_c, 2, 49, 0
6, 18360, Note_on_c, 2, 44, 88
6, 18465, Note_off_c, 2, 44, 0
6, 18480, Note_on_c, 2, 44, 88
6, 18596, Note_off_c, 2, 44, 0
6, 18600, Note_on_c, 2, 48, 88
6, 18716, Note_off_c, 2, 48, 0
6, 18720, Note_on_c, 2, 49, 88
6, 18825, Note_off_c, 2, 49, 0
6, 18840, Note_on_c, 2, 49, 88
6, 18956, Note_off_c, 2, 49, 0
6, 18960, Note_on_c, 2, 53, 88
6, 19065, Note_off_c, 2, 53, 0
6, 19080, Note_on_c, 2, 53, 88
6, 19196, Note_off_c, 2, 53, 0
6, 19200, Note_on_c, 2, 51, 88
6, 19305, Note_off_c, 2, 51, 0
6, 19320, Note_on_c, 2, 51, 88
6, 19425, Note_off_c, 2, 51, 0
6, 19440, Note_on_c, 2, 51, 88
6, 19545, Note_off_c, 2, 51, 0
6, 19560, Note_on_c, 2, 51, 88
6, 19665, Note_off_c, 2, 51, 0
6, 19680, Note_on_c, 2, 51, 88
6, 19785, Note_off_c, 2, 51, 0
6, 19800, Note_on_c, 2, 51, 88
6, 19916, Note_off_c, 2, 51, 0
6, 19920, Note_on_c, 2, 56, 88
6, 20025, Note_off_c, 2, 56, 0
6, 20040, Note_on_c, 2, 56, 88
6, 20156, Note_off_c, 2, 56, 0
6, 20160, Note_on_c, 2, 56, 88
6, 20265, Note_off_c, 2, 56, 0
6, 20280, Note_on_c, 2, 56, 88
6, 20385, Note_off_c, 2, 56, 0
6, 20400, Note_on_c, 2, 56, 88
6, 20505, Note_off_c, 2, 56, 0
6, 20520, Note_on_c, 2, 56, 88
6, 20625, Note_off_c, 2, 56, 0
6, 20640, Note_on_c, 2, 56, 88
6, 20745, Note_off_c, 2, 56, 0
6, 20760, Note_on_c, 2, 56, 88
6, 20865, Note_off_c, 2, 56, 0
6, 20880, Note_on_c, 2, 56, 88
6, 20985, Note_off_c, 2, 56, 0
6, 21000, Note_on_c, 2, 56, 88
6, 21116, Note_off_c, 2, 56, 0
6, 21120, Note_on_c, 2, 56, 88
6, 21225, Note_off_c, 2, 56, 0
6, 21240, Note_on_c, 2, 56, 88
6, 21345, Note_off_c, 2, 56, 0
6, 21360, Note_on_c, 2, 56, 88
6, 21465, Note_off_c, 2, 56, 0
6, 21480, Note_on_c, 2, 56, 88
6, 21596, Note_off_c, 2, 56, 0
6, 21600, Note_on_c, 2, 59, 88
6, 21705, Note_off_c, 2, 59, 0
6, 21720, Note_on_c, 2, 59, 88
6, 21825, Note_off_c, 2, 59, 0
6, 21840, Note_on_c, 2, 59, 88
6, 21945, Note_off_c, 2, 59, 0
6, 21960, Note_on_c, 2, 59, 88
6, 22076, Note_off_c, 2, 59, 0
6, 22080, Note_on_c, 2, 58, 88
6, 22185, Note_off_c, 2, 58, 0
6, 22200, Note_on_c, 2, 58, 88
6, 22305, Note_off_c, 2, 58, 0
6, 22320, Note_on_c, 2, 58, 88
6, 22425, Note_off_c, 2, 58, 0
6, 22440, Note_on_c, 2, 58, 88
6, 22545, Note_off_c, 2, 58, 0
6, 22560, Note_on_c, 2, 58, 88
6, 22665, Note_off_c, 2, 58, 0
6, 22680, Note_on_c, 2, 58, 88
6, 22785, Note_off_c, 2, 58, 0
6, 22800, Note_on_c, 2, 58, 88
6, 22905, Note_off_c, 2, 58, 0
6, 22920, Note_on_c, 2, 58, 88
6, 23036, Note_off_c, 2, 58, 0
6, 23040, Note_on_c, 2, 56, 88
6, 23156, Note_off_c, 2, 56, 0
6, 31980, Note_on_c, 2, 54, 88
6, 32038, Note_off_c, 2, 54, 0
6, 32040, Note_on_c, 2, 53, 88
6, 32393, Note_off_c, 2, 53, 0
6, 32393, End_track
7, 0, Start_track
7, 0, Title_t, "Track 4"
7, 0, Program_c, 3, 6
7, 0, Note_on_c, 3, 49, 88
7, 234, Note_off_c, 3, 49, 0
7, 480, Note_on_c, 3, 49, 88
7, 714, Note_off_c, 3, 49, 0
7, 960, Note_on_c, 3, 49, 88
7, 1194, Note_off_c, 3, 49, 0
7, 1440, Note_on_c, 3, 49, 88
7, 1674, Note_off_c, 3, 49, 0
7, 1920, Note_on_c, 3, 49, 88
7, 2154, Note_off_c, 3, 49, 0
7, 2400, Note_on_c, 3, 49, 88
7, 2634, Note_off_c, 3, 49, 0
7, 2880, Note_on_c, 3, 49, 88
7, 3114, Note_off_c, 3, 49, 0
7, 3360, Note_on_c, 3, 48, 88
7, 3594, Note_off_c, 3, 48, 0
7, 3840, Note_on_c, 3, 46, 88
7, 4074, Note_off_c, 3, 46, 0
7, 4320, Note_on_c, 3, 51, 88
7, 4554, Note_off_c, 3, 51, 0
7, 4800, Note_on_c, 3, 44, 88
7, 5034, Note_off_c, 3, 44, 0
7, 5280, Note_on_c, 3, 44, 88
7, 5514, Note_off_c, 3, 44, 0
7, 5760, Note_on_c, 3, 44, 88
7, 5994, Note_off_c, 3, 44, 0
7, 6240, Note_on_c, 3, 42, 88
7, 6474, Note_off_c, 3, 42, 0
7, 6720, Note_on_c, 3, 41, 88
7, 6954, Note_off_c, 3, 41, 0
7, 7200, Note_on_c, 3, 46, 88
7, 7434, Note_off_c, 3, 46, 0
7, 7680, Note_on_c, 3, 58, 88
7, 7914, Note_off_c, 3, 58, 0
7, 8160, Note_on_c, 3, 56, 88
7, 8394, Note_off_c, 3, 56, 0
7, 8640, Note_on_c, 3, 58, 88
7, 8874, Note_off_c, 3, 58, 0
7, 9120, Note_on_c, 3, 60, 88
7, 9354, Note_off_c, 3, 60, 0
7, 9600, Note_on_c, 3, 53, 88
7, 9834, Note_off_c, 3, 53, 0
7, 10080, Note_on_c, 3, 53, 88
7, 10314, Note_off_c, 3, 53, 0
7, 10560, Note_on_c, 3, 54, 88
7, 10794, Note_off_c, 3, 54, 0
7, 11040, Note_on_c, 3, 56, 88
7, 11274, Note_off_c, 3, 56, 0
7, 11520, Note_on_c, 3, 49, 88
7, 11754, Note_off_c, 3, 49, 0
7, 12000, Note_on_c, 3, 54, 88
7, 12234, Note_off_c, 3, 54, 0
7, 12480, Note_on_c, 3, 48, 88
7, 12714, Note_off_c, 3, 48, 0
7, 12960, Note_on_c, 3, 50, 88
7, 13194, Note_off_c, 3, 50, 0
7, 13440, Note_on_c, 3, 51, 88
7, 13674, Note_off_c, 3, 51, 0
7, 13920, Note_on_c, 3, 51, 88
7, 14154, Note_off_c, 3, 51, 0
7, 14400, Note_on_c, 3, 51, 88
7, 14634, Note_off_c, 3, 51, 0
7, 14880, Note_on_c, 3, 49, 88
7, 15114, Note_off_c, 3, 49, 0
7, 15360, Note_on_c, 3, 42, 88
7, 15594, Note_off_c, 3, 42, 0
7, 15840, Note_on_c, 3, 42, 88
7, 16074, Note_off_c, 3, 42, 0
7, 16320, Note_on_c, 3, 42, 88
7, 16554, Note_off_c, 3, 42, 0
7, 16800, Note_on_c, 3, 41, 88
7, 17034, Note_off_c, 3, 41, 0
7, 17280, Note_on_c, 3, 39, 88
7, 17514, Note_off_c, 3, 39, 0
7, 17760, Note_on_c, 3, 44, 88
7, 17994, Note_off_c, 3, 44, 0
7, 18240, Note_on_c, 3, 37, 88
7, 18474, Note_off_c, 3, 37, 0
7, 18720, Note_on_c, 3, 37, 88
7, 18954, Note_off_c, 3, 37, 0
7, 19200, Note_on_c, 3, 49, 88
7, 19434, Note_off_c, 3, 49, 0
7, 19680, Note_on_c, 3, 47, 88
7, 19914, Note_off_c, 3, 47, 0
7, 20160, Note_on_c, 3, 52, 88
7, 20394, Note_off_c, 3, 52, 0
7, 20640, Note_on_c, 3, 53, 88
7, 20874, Note_off_c, 3, 53, 0
7, 21120, Note_on_c, 3, 51, 88
7, 21354, Note_off_c, 3, 51, 0
7, 21600, Note_on_c, 3, 51, 88
7, 21834, Note_off_c, 3, 51, 0
7, 22080, Note_on_c, 3, 51, 88
7, 22314, Note_off_c, 3, 51, 0
7, 22560, Note_on_c, 3, 51, 88
7, 22794, Note_off_c, 3, 51, 0
7, 23040, Note_on_c, 3, 44, 88
7, 23156, Note_off_c, 3, 44, 0
7, 24960, Note_on_c, 3, 53, 88
7, 25018, Note_off_c, 3, 53, 0
7, 25020, Note_on_c, 3, 51, 88
7, 25078, Note_off_c, 3, 51, 0
7, 25080, Note_on_c, 3, 53, 88
7, 25138, Note_off_c, 3, 53, 0
7, 25140, Note_on_c, 3, 54, 88
7, 25198, Note_off_c, 3, 54, 0
7, 25200, Note_on_c, 3, 56, 88
7, 25676, Note_off_c, 3, 56, 0
7, 25680, Note_on_c, 3, 53, 88
7, 25796, Note_off_c, 3, 53, 0
7, 25800, Note_on_c, 3, 58, 88
7, 25916, Note_off_c, 3, 58, 0
7, 25920, Note_on_c, 3, 51, 88
7, 26036, Note_off_c, 3, 51, 0
7, 26040, Note_on_c, 3, 56, 88
7, 26156, Note_off_c, 3, 56, 0
7, 26160, Note_on_c, 3, 44, 88
7, 26276, Note_off_c, 3, 44, 0
7, 26280, Note_on_c, 3, 49, 88
7, 26396, Note_off_c, 3, 49, 0
7, 26400, Note_on_c, 3, 61, 88
7, 26458, Note_off_c, 3, 61, 0
7, 26460, Note_on_c, 3, 63, 88
7, 26518, Note_off_c, 3, 63, 0
7, 26520, Note_on_c, 3, 61, 88
7, 26578, Note_off_c, 3, 61, 0
7, 26580, Note_on_c, 3, 60, 88
7, 26638, Note_off_c, 3, 60, 0
7, 26640, Note_on_c, 3, 58, 88
7, 27045, Note_off_c, 3, 58, 0
7, 27060, Note_on_c, 3, 58, 88
7, 27118, Note_off_c, 3, 58, 0
7, 27120, Note_on_c, 3, 57, 88
7, 27178, Note_off_c, 3, 57, 0
7, 27180, Note_on_c, 3, 55, 88
7, 27238, Note_off_c, 3, 55, 0
7, 27240, Note_on_c, 3, 57, 88
7, 27298, Note_off_c, 3, 57, 0
7, 27300, Note_on_c, 3, 53, 88
7, 27358, Note_off_c, 3, 53, 0
7, 27360, Note_on_c, 3, 58, 88
7, 27476, Note_off_c, 3, 58, 0
7, 27480, Note_on_c, 3, 46, 88
7, 27538, Note_off_c, 3, 46, 0
7, 27540, Note_on_c, 3, 44, 88
7, 27598, Note_off_c, 3, 44, 0
7, 27600, Note_on_c, 3, 46, 88
7, 27658, Note_off_c, 3, 46, 0
7, 27660, Note_on_c, 3, 48, 88
7, 27718, Note_off_c, 3, 48, 0
7, 27720, Note_on_c, 3, 49, 88
7, 28196, Note_off_c, 3, 49, 0
7, 28200, Note_on_c, 3, 48, 88
7, 28316, Note_off_c, 3, 48, 0
7, 28320, Note_on_c, 3, 53, 88
7, 28436, Note_off_c, 3, 53, 0
7, 28440, Note_on_c, 3, 46, 88
7, 28556, Note_off_c, 3, 46, 0
7, 28560, Note_on_c, 3, 51, 88
7, 28676, Note_off_c, 3, 51, 0
7, 28680, Note_on_c, 3, 39, 88
7, 28796, Note_off_c, 3, 39, 0
7, 28800, Note_on_c, 3, 44, 88
7, 28858, Note_off_c, 3, 44, 0
7, 28860, Note_on_c, 3, 43, 88
7, 28918, Note_off_c, 3, 43, 0
7, 28920, Note_on_c, 3, 44, 88
7, 28978, Note_off_c, 3, 44, 0
7, 28980, Note_on_c, 3, 46, 88
7, 29038, Note_off_c, 3, 46, 0
7, 29040, Note_on_c, 3, 48, 88
7, 29098, Note_off_c, 3, 48, 0
7, 29100, Note_on_c, 3, 49, 88
7, 29158, Note_off_c, 3, 49, 0
7, 29160, Note_on_c, 3, 51, 88
7, 29218, Note_off_c, 3, 51, 0
7, 29220, Note_on_c, 3, 50, 88
7, 29278, Note_off_c, 3, 50, 0
7, 29280, Note_on_c, 3, 51, 88
7, 29338, Note_off_c, 3, 51, 0
7, 29340, Note_on_c, 3, 53, 88
7, 29398, Note_off_c, 3, 53, 0
7, 29400, Note_on_c, 3, 54, 88
7, 29458, Note_off_c, 3, 54, 0
7, 29460, Note_on_c, 3, 56, 88
7, 29518, Note_off_c, 3, 56, 0
7, 29520, Note_on_c, 3, 58, 88
7, 29578, Note_off_c, 3, 58, 0
7, 29580, Note_on_c, 3, 57, 88
7, 29638, Note_off_c, 3, 57, 0
7, 29640, Note_on_c, 3, 58, 88
7, 29698, Note_off_c, 3, 58, 0
7, 29700, Note_on_c, 3, 60, 88
7, 29758, Note_off_c, 3, 60, 0
7, 29760, Note_on_c, 3, 61, 88
7, 29818, Note_off_c, 3, 61, 0
7, 29820, Note_on_c, 3, 63, 88
7, 29878, Note_off_c, 3, 63, 0
7, 29880, Note_on_c, 3, 65, 88
7, 29938, Note_off_c, 3, 65, 0
7, 29940, Note_on_c, 3, 63, 88
7, 29998, Note_off_c, 3, 63, 0
7, 30000, Note_on_c, 3, 65, 88
7, 30058, Note_off_c, 3, 65, 0
7, 30060, Note_on_c, 3, 66, 88
7, 30118, Note_off_c, 3, 66, 0
7, 30120, Note_on_c, 3, 65, 88
7, 30178, Note_off_c, 3, 65, 0
7, 30180, Note_on_c, 3, 63, 88
7, 30238, Note_off_c, 3, 63, 0
7, 30240, Note_on_c, 3, 62, 88
7, 30298, Note_off_c, 3, 62, 0
7, 30300, Note_on_c, 3, 58, 88
7, 30358, Note_off_c, 3, 58, 0
7, 30360, Note_on_c, 3, 63, 88
7, 30418, Note_off_c, 3, 63, 0
7, 30420, Note_on_c, 3, 65, 88
7, 30478, Note_off_c, 3, 65, 0
7, 30480, Note_on_c, 3, 63, 88
7, 30538, Note_off_c, 3, 63, 0
7, 30540, Note_on_c, 3, 61, 88
7, 30598, Note_off_c, 3, 61, 0
7, 30600, Note_on_c, 3, 60, 88
7, 30658, Note_off_c, 3, 60, 0
7, 30660, Note_on_c, 3, 56, 88
7, 30718, Note_off_c, 3, 56, 0
7, 30720, Note_on_c, 3, 61, 88
7, 30778, Note_off_c, 3, 61, 0
7, 30780, Note_on_c, 3, 59, 88
7, 30838, Note_off_c, 3, 59, 0
7, 30840, Note_on_c, 3, 58, 88
7, 30898, Note_off_c, 3, 58, 0
7, 30900, Note_on_c, 3, 56, 88
7, 30958, Note_off_c, 3, 56, 0
7, 30960, Note_on_c, 3, 55, 88
7, 31018, Note_off_c, 3, 55, 0
7, 31020, Note_on_c, 3, 51, 88
7, 31078, Note_off_c, 3, 51, 0
7, 31080, Note_on_c, 3, 56, 88
7, 31138, Note_off_c, 3, 56, 0
7, 31140, Note_on_c, 3, 58, 88
7, 31198, Note_off_c, 3, 58, 0
7, 31200, Note_on_c, 3, 56, 88
7, 31258, Note_off_c, 3, 56, 0
7, 31260, Note_on_c, 3, 54, 88
7, 31318, Note_off_c, 3, 54, 0
7, 31320, Note_on_c, 3, 53, 88
7, 31378, Note_off_c, 3, 53, 0
7, 31380, Note_on_c, 3, 54, 88
7, 31438, Note_off_c, 3, 54, 0
7, 31440, Note_on_c, 3, 53, 88
7, 31498, Note_off_c, 3, 53, 0
7, 31500, Note_on_c, 3, 51, 88
7, 31558, Note_off_c, 3, 51, 0
7, 31560, Note_on_c, 3, 53, 88
7, 31618, Note_off_c, 3, 53, 0
7, 31620, Note_on_c, 3, 54, 88
7, 31678, Note_off_c, 3, 54, 0
7, 31680, Note_on_c, 3, 56, 88
7, 31796, Note_off_c, 3, 56, 0
7, 31800, Note_on_c, 3, 42, 88
7, 31916, Note_off_c, 3, 42, 0
7, 31920, Note_on_c, 3, 44, 88
7, 32036, Note_off_c, 3, 44, 0
7, 32040, Note_on_c, 3, 37, 88
7, 32393, Note_off_c, 3, 37, 0
7, 32393, End_track
0, 0, End_of_file
