0, 0, Header, 1, 7, 240
1, 0, Start_track
1, 0, Time_signature, 9, 3, 24, 8
1, 0, Tempo, 845070
1, 0, SMPTE_offset, 64, 0, 0, 0, 93
1, 0, End_track
2, 0, Start_track
2, 0, Title_t, "(C) & (P) 1993"
2, 127, End_track
3, 0, Start_track
3, 0, Title_t, "CCARH,Stanford"
3, 0, End_track
4, 0, Start_track
4, 0, Title_t, "Track 1"
4, 0, Program_c, 0, 6
4, 600, Note_on_c, 0, 68, 88
4, 716, Note_off_c, 0, 68, 0
4, 720, Note_on_c, 0, 73, 88
4, 753, Note_off_c, 0, 73, 0
4, 754, Note_on_c, 0, 72, 88
4, 794, Note_off_c, 0, 72, 0
4, 795, Note_on_c, 0, 73, 88
4, 956, Note_off_c, 0, 73, 0
4, 960, Note_on_c, 0, 76, 88
4, 1076, Note_off_c, 0, 76, 0
4, 1080, Note_on_c, 0, 75, 88
4, 1611, Note_off_c, 0, 75, 0
4, 1620, Note_on_c, 0, 75, 88
4, 1678, Note_off_c, 0, 75, 0
4, 1680, Note_on_c, 0, 76, 88
4, 1738, Note_off_c, 0, 76, 0
4, 1740, Note_on_c, 0, 78, 88
4, 1798, Note_off_c, 0, 78, 0
4, 1800, Note_on_c, 0, 80, 88
4, 1833, Note_off_c, 0, 80, 0
4, 1834, Note_on_c, 0, 78, 88
4, 1874, Note_off_c, 0, 78, 0
4, 1875, Note_on_c, 0, 80, 88
4, 2033, Note_off_c, 0, 80, 0
4, 2040, Note_on_c, 0, 80, 88
4, 2156, Note_off_c, 0, 80, 0
4, 2160, Note_on_c, 0, 80, 88
4, 2394, Note_off_c, 0, 80, 0
4, 2400, Note_on_c, 0, 73, 88
4, 2516, Note_off_c, 0, 73, 0
4, 2520, Note_on_c, 0, 78, 88
4, 2549, Note_off_c, 0, 78, 0
4, 2550, Note_on_c, 0, 76, 88
4, 2579, Note_off_c, 0, 76, 0
4, 2580, Note_on_c, 0, 78, 88
4, 3111, Note_off_c, 0, 78, 0
4, 3120, Note_on_c, 0, 78, 88
4, 3236, Note_off_c, 0, 78, 0
4, 3240, Note_on_c, 0, 78, 88
4, 3474, Note_off_c, 0, 78, 0
4, 3480, Note_on_c, 0, 80, 88
4, 3596, Note_off_c, 0, 80, 0
4, 3600, Note_on_c, 0, 78, 88
4, 3716, Note_off_c, 0, 78, 0
4, 3720, Note_on_c, 0, 76, 88
4, 4073, Note_off_c, 0, 76, 0
4, 4080, Note_on_c, 0, 75, 88
4, 4196, Note_off_c, 0, 75, 0
4, 4200, Note_on_c, 0, 76, 88
4, 4316, Note_off_c, 0, 76, 0
4, 4320, Note_on_c, 0, 75, 88
4, 4673, Note_off_c, 0, 75, 0
4, 4920, Note_on_c, 0, 75, 88
4, 5033, Note_off_c, 0, 75, 0
4, 5040, Note_on_c, 0, 75, 88
4, 5156, Note_off_c, 0, 75, 0
4, 5160, Note_on_c, 0, 76, 88
4, 5276, Note_off_c, 0, 76, 0
4, 5280, Note_on_c, 0, 72, 88
4, 5396, Note_off_c, 0, 72, 0
4, 5400, Note_on_c, 0, 72, 88
4, 5516, Note_off_c, 0, 72, 0
4, 5520, Note_on_c, 0, 73, 88
4, 5932, Note_off_c, 0, 73, 0
4, 5940, Note_on_c, 0, 76, 88
4, 5998, Note_off_c, 0, 76, 0
4, 6000, Note_on_c, 0, 75, 88
4, 6058, Note_off_c, 0, 75, 0
4, 6060, Note_on_c, 0, 73, 88
4, 6113, Note_off_c, 0, 73, 0
4, 6120, Note_on_c, 0, 73, 88
4, 6236, Note_off_c, 0, 73, 0
4, 6240, Note_on_c, 0, 81, 88
4, 6356, Note_off_c, 0, 81, 0
4, 6360, Note_on_c, 0, 73, 88
4, 6476, Note_off_c, 0, 73, 0
4, 6480, Note_on_c, 0, 73, 88
4, 6596, Note_off_c, 0, 73, 0
4, 6600, Note_on_c, 0, 72, 88
4, 6716, Note_off_c, 0, 72, 0
4, 6720, Note_on_c, 0, 68, 88
4, 6833, Note_off_c, 0, 68, 0
4, 6840, Note_on_c, 0, 68, 88
4, 6961, Note_off_c, 0, 68, 0
4, 6964, Note_on_c, 0, 73, 88
4, 7550, Note_off_c, 0, 73, 0
4, 7560, Note_on_c, 0, 73, 88
4, 7794, Note_off_c, 0, 73, 0
4, 7800, Note_on_c, 0, 75, 88
4, 7916, Note_off_c, 0, 75, 0
4, 7920, Note_on_c, 0, 73, 88
4, 8041, Note_off_c, 0, 73, 0
4, 8044, Note_on_c, 0, 71, 88
4, 8630, Note_off_c, 0, 71, 0
4, 8640, Note_on_c, 0, 71, 88
4, 8993, Note_off_c, 0, 71, 0
4, 9000, Note_on_c, 0, 71, 88
4, 9029, Note_off_c, 0, 71, 0
4, 9030, Note_on_c, 0, 69, 88
4, 9059, Note_off_c, 0, 69, 0
4, 9060, Note_on_c, 0, 71, 88
4, 9089, Note_off_c, 0, 71, 0
4, 9090, Note_on_c, 0, 69, 88
4, 9119, Note_off_c, 0, 69, 0
4, 9120, Note_on_c, 0, 71, 88
4, 9149, Note_off_c, 0, 71, 0
4, 9150, Note_on_c, 0, 69, 88
4, 9179, Note_off_c, 0, 69, 0
4, 9180, Note_on_c, 0, 71, 88
4, 9209, Note_off_c, 0, 71, 0
4, 9210, Note_on_c, 0, 69, 88
4, 9239, Note_off_c, 0, 69, 0
4, 9240, Note_on_c, 0, 68, 88
4, 9353, Note_off_c, 0, 68, 0
4, 9360, Note_on_c, 0, 68, 88
4, 9476, Note_off_c, 0, 68, 0
4, 9480, Note_on_c, 0, 69, 88
4, 9596, Note_off_c, 0, 69, 0
4, 9600, Note_on_c, 0, 71, 88
4, 9716, Note_off_c, 0, 71, 0
4, 9720, Note_on_c, 0, 69, 88
4, 9836, Note_off_c, 0, 69, 0
4, 9840, Note_on_c, 0, 68, 88
4, 9956, Note_off_c, 0, 68, 0
4, 10320, Note_on_c, 0, 68, 88
4, 10436, Note_off_c, 0, 68, 0
4, 10440, Note_on_c, 0, 73, 88
4, 11034, Note_off_c, 0, 73, 0
4, 11040, Note_on_c, 0, 75, 88
4, 11156, Note_off_c, 0, 75, 0
4, 11160, Note_on_c, 0, 73, 88
4, 11276, Note_off_c, 0, 73, 0
4, 11280, Note_on_c, 0, 71, 88
4, 11309, Note_off_c, 0, 71, 0
4, 11310, Note_on_c, 0, 73, 88
4, 11339, Note_off_c, 0, 73, 0
4, 11340, Note_on_c, 0, 71, 88
4, 11369, Note_off_c, 0, 71, 0
4, 11370, Note_on_c, 0, 73, 88
4, 11395, Note_off_c, 0, 73, 0
4, 11396, Note_on_c, 0, 71, 88
4, 11422, Note_off_c, 0, 71, 0
4, 11423, Note_on_c, 0, 73, 88
4, 11448, Note_off_c, 0, 73, 0
4, 11449, Note_on_c, 0, 71, 88
4, 11635, Note_off_c, 0, 71, 0
4, 11640, Note_on_c, 0, 70, 88
4, 11756, Note_off_c, 0, 70, 0
4, 11760, Note_on_c, 0, 71, 88
4, 11876, Note_off_c, 0, 71, 0
4, 11880, Note_on_c, 0, 71, 88
4, 11996, Note_off_c, 0, 71, 0
4, 12000, Note_on_c, 0, 70, 88
4, 12470, Note_off_c, 0, 70, 0
4, 12480, Note_on_c, 0, 71, 88
4, 12596, Note_off_c, 0, 71, 0
4, 12600, Note_on_c, 0, 73, 88
4, 13076, Note_off_c, 0, 73, 0
4, 13080, Note_on_c, 0, 76, 88
4, 13196, Note_off_c, 0, 76, 0
4, 13200, Note_on_c, 0, 75, 88
4, 13313, Note_off_c, 0, 75, 0
4, 13320, Note_on_c, 0, 75, 88
4, 13436, Note_off_c, 0, 75, 0
4, 13440, Note_on_c, 0, 76, 88
4, 13498, Note_off_c, 0, 76, 0
4, 13500, Note_on_c, 0, 75, 88
4, 13558, Note_off_c, 0, 75, 0
4, 13560, Note_on_c, 0, 76, 88
4, 13913, Note_off_c, 0, 76, 0
4, 13920, Note_on_c, 0, 73, 88
4, 14036, Note_off_c, 0, 73, 0
4, 14040, Note_on_c, 0, 75, 88
4, 14073, Note_off_c, 0, 75, 0
4, 14074, Note_on_c, 0, 73, 88
4, 14114, Note_off_c, 0, 73, 0
4, 14115, Note_on_c, 0, 75, 88
4, 14276, Note_off_c, 0, 75, 0
4, 14280, Note_on_c, 0, 76, 88
4, 14396, Note_off_c, 0, 76, 0
4, 14400, Note_on_c, 0, 78, 88
4, 14516, Note_off_c, 0, 78, 0
4, 14520, Note_on_c, 0, 76, 88
4, 14636, Note_off_c, 0, 76, 0
4, 14640, Note_on_c, 0, 75, 88
4, 14756, Note_off_c, 0, 75, 0
4, 14760, Note_on_c, 0, 77, 88
4, 14876, Note_off_c, 0, 77, 0
4, 14880, Note_on_c, 0, 80, 88
4, 14996, Note_off_c, 0, 80, 0
4, 15000, Note_on_c, 0, 79, 88
4, 15116, Note_off_c, 0, 79, 0
4, 15120, Note_on_c, 0, 80, 88
4, 15236, Note_off_c, 0, 80, 0
4, 15240, Note_on_c, 0, 79, 88
4, 15356, Note_off_c, 0, 79, 0
4, 15360, Note_on_c, 0, 77, 88
4, 15476, Note_off_c, 0, 77, 0
4, 15480, Note_on_c, 0, 79, 88
4, 15714, Note_off_c, 0, 79, 0
4, 15720, Note_on_c, 0, 80, 88
4, 15836, Note_off_c, 0, 80, 0
4, 15840, Note_on_c, 0, 82, 88
4, 16074, Note_off_c, 0, 82, 0
4, 16080, Note_on_c, 0, 79, 88
4, 16196, Note_off_c, 0, 79, 0
4, 16200, Note_on_c, 0, 80, 88
4, 16434, Note_off_c, 0, 80, 0
4, 16440, Note_on_c, 0, 82, 88
4, 16556, Note_off_c, 0, 82, 0
4, 16560, Note_on_c, 0, 80, 88
4, 16913, Note_off_c, 0, 80, 0
4, 16920, Note_on_c, 0, 80, 88
4, 16956, Note_off_c, 0, 80, 0
4, 16958, Note_on_c, 0, 79, 88
4, 16997, Note_off_c, 0, 79, 0
4, 16999, Note_on_c, 0, 80, 88
4, 17039, Note_off_c, 0, 80, 0
4, 17040, Note_on_c, 0, 79, 88
4, 17156, Note_off_c, 0, 79, 0
4, 17160, Note_on_c, 0, 80, 88
4, 17276, Note_off_c, 0, 80, 0
4, 17280, Note_on_c, 0, 80, 88
4, 17633, Note_off_c, 0, 80, 0
4, 20040, Note_on_c, 0, 80, 88
4, 20153, Note_off_c, 0, 80, 0
4, 20160, Note_on_c, 0, 80, 88
4, 20276, Note_off_c, 0, 80, 0
4, 20280, Note_on_c, 0, 81, 88
4, 20396, Note_off_c, 0, 81, 0
4, 20400, Note_on_c, 0, 78, 88
4, 20516, Note_off_c, 0, 78, 0
4, 20520, Note_on_c, 0, 76, 88
4, 20636, Note_off_c, 0, 76, 0
4, 20640, Note_on_c, 0, 75, 88
4, 21052, Note_off_c, 0, 75, 0
4, 21060, Note_on_c, 0, 78, 88
4, 21118, Note_off_c, 0, 78, 0
4, 21120, Note_on_c, 0, 77, 88
4, 21178, Note_off_c, 0, 77, 0
4, 21180, Note_on_c, 0, 75, 88
4, 21238, Note_off_c, 0, 75, 0
4, 21240, Note_on_c, 0, 80, 88
4, 21356, Note_off_c, 0, 80, 0
4, 21360, Note_on_c, 0, 83, 88
4, 21418, Note_off_c, 0, 83, 0
4, 21420, Note_on_c, 0, 81, 88
4, 21478, Note_off_c, 0, 81, 0
4, 21480, Note_on_c, 0, 83, 88
4, 21596, Note_off_c, 0, 83, 0
4, 21600, Note_on_c, 0, 78, 88
4, 21629, Note_off_c, 0, 78, 0
4, 21630, Note_on_c, 0, 77, 88
4, 21659, Note_off_c, 0, 77, 0
4, 21660, Note_on_c, 0, 78, 88
4, 21689, Note_off_c, 0, 78, 0
4, 21690, Note_on_c, 0, 77, 88
4, 21719, Note_off_c, 0, 77, 0
4, 21720, Note_on_c, 0, 75, 88
4, 21836, Note_off_c, 0, 75, 0
4, 21840, Note_on_c, 0, 73, 88
4, 21956, Note_off_c, 0, 73, 0
4, 21960, Note_on_c, 0, 78, 88
4, 22796, Note_off_c, 0, 78, 0
4, 22800, Note_on_c, 0, 76, 88
4, 22916, Note_off_c, 0, 76, 0
4, 22920, Note_on_c, 0, 75, 88
4, 23036, Note_off_c, 0, 75, 0
4, 23040, Note_on_c, 0, 76, 88
4, 24230, Note_off_c, 0, 76, 0
4, 24240, Note_on_c, 0, 75, 88
4, 24356, Note_off_c, 0, 75, 0
4, 24360, Note_on_c, 0, 73, 88
4, 24476, Note_off_c, 0, 73, 0
4, 24480, Note_on_c, 0, 75, 88
4, 24596, Note_off_c, 0, 75, 0
4, 24600, Note_on_c, 0, 73, 88
4, 24716, Note_off_c, 0, 73, 0
4, 24720, Note_on_c, 0, 71, 88
4, 24836, Note_off_c, 0, 71, 0
4, 24840, Note_on_c, 0, 73, 88
4, 25430, Note_off_c, 0, 73, 0
4, 25440, Note_on_c, 0, 78, 88
4, 25556, Note_off_c, 0, 78, 0
4, 25560, Note_on_c, 0, 76, 88
4, 25676, Note_off_c, 0, 76, 0
4, 25680, Note_on_c, 0, 75, 88
4, 25796, Note_off_c, 0, 75, 0
4, 25800, Note_on_c, 0, 73, 88
4, 25916, Note_off_c, 0, 73, 0
4, 25920, Note_on_c, 0, 71, 88
4, 26390, Note_off_c, 0, 71, 0
4, 26400, Note_on_c, 0, 69, 88
4, 26516, Note_off_c, 0, 69, 0
4, 26520, Note_on_c, 0, 68, 88
4, 26636, Note_off_c, 0, 68, 0
4, 26640, Note_on_c, 0, 73, 88
4, 26756, Note_off_c, 0, 73, 0
4, 26760, Note_on_c, 0, 75, 88
4, 26876, Note_off_c, 0, 75, 0
4, 26880, Note_on_c, 0, 76, 88
4, 26996, Note_off_c, 0, 76, 0
4, 27000, Note_on_c, 0, 69, 88
4, 27116, Note_off_c, 0, 69, 0
4, 27120, Note_on_c, 0, 71, 88
4, 27236, Note_off_c, 0, 71, 0
4, 27240, Note_on_c, 0, 73, 88
4, 27356, Note_off_c, 0, 73, 0
4, 27360, Note_on_c, 0, 69, 88
4, 27476, Note_off_c, 0, 69, 0
4, 27480, Note_on_c, 0, 68, 88
4, 27538, Note_off_c, 0, 68, 0
4, 27540, Note_on_c, 0, 66, 88
4, 27598, Note_off_c, 0, 66, 0
4, 27600, Note_on_c, 0, 64, 88
4, 27658, Note_off_c, 0, 64, 0
4, 27660, Note_on_c, 0, 66, 88
4, 27718, Note_off_c, 0, 66, 0
4, 27720, Note_on_c, 0, 68, 88
4, 27749, Note_off_c, 0, 68, 0
4, 27750, Note_on_c, 0, 66, 88
4, 27779, Note_off_c, 0, 66, 0
4, 27780, Note_on_c, 0, 68, 88
4, 27809, Note_off_c, 0, 68, 0
4, 27810, Note_on_c, 0, 66, 88
4, 27839, Note_off_c, 0, 66, 0
4, 27840, Note_on_c, 0, 68, 88
4, 27869, Note_off_c, 0, 68, 0
4, 27870, Note_on_c, 0, 66, 88
4, 27899, Note_off_c, 0, 66, 0
4, 27900, Note_on_c, 0, 68, 88
4, 27929, Note_off_c, 0, 68, 0
4, 27930, Note_on_c, 0, 66, 88
4, 27959, Note_off_c, 0, 66, 0
4, 27960, Note_on_c, 0, 68, 88
4, 27989, Note_off_c, 0, 68, 0
4, 27990, Note_on_c, 0, 66, 88
4, 28019, Note_off_c, 0, 66, 0
4, 28020, Note_on_c, 0, 64, 88
4, 28049, Note_off_c, 0, 64, 0
4, 28050, Note_on_c, 0, 66, 88
4, 28079, Note_off_c, 0, 66, 0
4, 28080, Note_on_c, 0, 64, 88
4, 28196, Note_off_c, 0, 64, 0
4, 28200, Note_on_c, 0, 68, 88
4, 28316, Note_off_c, 0, 68, 0
4, 28320, Note_on_c, 0, 71, 88
4, 28436, Note_off_c, 0, 71, 0
4, 28440, Note_on_c, 0, 76, 88
4, 28498, Note_off_c, 0, 76, 0
4, 28500, Note_on_c, 0, 75, 88
4, 28558, Note_off_c, 0, 75, 0
4, 28560, Note_on_c, 0, 76, 88
4, 28673, Note_off_c, 0, 76, 0
4, 28680, Note_on_c, 0, 76, 88
4, 28793, Note_off_c, 0, 76, 0
4, 28800, Note_on_c, 0, 76, 88
4, 28833, Note_off_c, 0, 76, 0
4, 28834, Note_on_c, 0, 75, 88
4, 28874, Note_off_c, 0, 75, 0
4, 28875, Note_on_c, 0, 76, 88
4, 29033, Note_off_c, 0, 76, 0
4, 29040, Note_on_c, 0, 76, 88
4, 29156, Note_off_c, 0, 76, 0
4, 29160, Note_on_c, 0, 76, 88
4, 29276, Note_off_c, 0, 76, 0
4, 29280, Note_on_c, 0, 78, 88
4, 29338, Note_off_c, 0, 78, 0
4, 29340, Note_on_c, 0, 76, 88
4, 29398, Note_off_c, 0, 76, 0
4, 29400, Note_on_c, 0, 75, 88
4, 29458, Note_off_c, 0, 75, 0
4, 29460, Note_on_c, 0, 73, 88
4, 29518, Note_off_c, 0, 73, 0
4, 29520, Note_on_c, 0, 75, 88
4, 29754, Note_off_c, 0, 75, 0
4, 29760, Note_on_c, 0, 77, 88
4, 29876, Note_off_c, 0, 77, 0
4, 29880, Note_on_c, 0, 78, 88
4, 29996, Note_off_c, 0, 78, 0
4, 30000, Note_on_c, 0, 77, 88
4, 30116, Note_off_c, 0, 77, 0
4, 30120, Note_on_c, 0, 78, 88
4, 30236, Note_off_c, 0, 78, 0
4, 30240, Note_on_c, 0, 78, 88
4, 30710, Note_off_c, 0, 78, 0
4, 30720, Note_on_c, 0, 81, 88
4, 30778, Note_off_c, 0, 81, 0
4, 30780, Note_on_c, 0, 80, 88
4, 30838, Note_off_c, 0, 80, 0
4, 30840, Note_on_c, 0, 78, 88
4, 30898, Note_off_c, 0, 78, 0
4, 30900, Note_on_c, 0, 76, 88
4, 30958, Note_off_c, 0, 76, 0
4, 30960, Note_on_c, 0, 75, 88
4, 31076, Note_off_c, 0, 75, 0
4, 31080, Note_on_c, 0, 78, 88
4, 31138, Note_off_c, 0, 78, 0
4, 31140, Note_on_c, 0, 76, 88
4, 31198, Note_off_c, 0, 76, 0
4, 31200, Note_on_c, 0, 78, 88
4, 31316, Note_off_c, 0, 78, 0
4, 31320, Note_on_c, 0, 73, 88
4, 31436, Note_off_c, 0, 73, 0
4, 31440, Note_on_c, 0, 72, 88
4, 31556, Note_off_c, 0, 72, 0
4, 31560, Note_on_c, 0, 75, 88
4, 31676, Note_off_c, 0, 75, 0
4, 31680, Note_on_c, 0, 80, 88
4, 32211, Note_off_c, 0, 80, 0
4, 32220, Note_on_c, 0, 80, 88
4, 32278, Note_off_c, 0, 80, 0
4, 32280, Note_on_c, 0, 82, 88
4, 32338, Note_off_c, 0, 82, 0
4, 32340, Note_on_c, 0, 83, 88
4, 32398, Note_off_c, 0, 83, 0
4, 32400, Note_on_c, 0, 83, 88
4, 32429, Note_off_c, 0, 83, 0
4, 32430, Note_on_c, 0, 82, 88
4, 32459, Note_off_c, 0, 82, 0
4, 32460, Note_on_c, 0, 83, 88
4, 32489, Note_off_c, 0, 83, 0
4, 32490, Note_on_c, 0, 82, 88
4, 32519, Note_off_c, 0, 82, 0
4, 32520, Note_on_c, 0, 83, 88
4, 32549, Note_off_c, 0, 83, 0
4, 32550, Note_on_c, 0, 82, 88
4, 32579, Note_off_c, 0, 82, 0
4, 32580, Note_on_c, 0, 83, 88
4, 32609, Note_off_c, 0, 83, 0
4, 32610, Note_on_c, 0, 82, 88
4, 32639, Note_off_c, 0, 82, 0
4, 32640, Note_on_c, 0, 83, 88
4, 32669, Note_off_c, 0, 83, 0
4, 32670, Note_on_c, 0, 82, 88
4, 32699, Note_off_c, 0, 82, 0
4, 32700, Note_on_c, 0, 80, 88
4, 32729, Note_off_c, 0, 80, 0
4, 32730, Note_on_c, 0, 82, 88
4, 32759, Note_off_c, 0, 82, 0
4, 32760, Note_on_c, 0, 83, 88
4, 32935, Note_off_c, 0, 83, 0
4, 32940, Note_on_c, 0, 81, 88
4, 32998, Note_off_c, 0, 81, 0
4, 33000, Note_on_c, 0, 80, 88
4, 33058, Note_off_c, 0, 80, 0
4, 33060, Note_on_c, 0, 78, 88
4, 33113, Note_off_c, 0, 78, 0
4, 33120, Note_on_c, 0, 78, 88
4, 33236, Note_off_c, 0, 78, 0
4, 33240, Note_on_c, 0, 80, 88
4, 33356, Note_off_c, 0, 80, 0
4, 33360, Note_on_c, 0, 77, 88
4, 33476, Note_off_c, 0, 77, 0
4, 33480, Note_on_c, 0, 77, 88
4, 33596, Note_off_c, 0, 77, 0
4, 33600, Note_on_c, 0, 78, 88
4, 33716, Note_off_c, 0, 78, 0
4, 33720, Note_on_c, 0, 80, 88
4, 33836, Note_off_c, 0, 80, 0
4, 33840, Note_on_c, 0, 78, 88
4, 33956, Note_off_c, 0, 78, 0
4, 33960, Note_on_c, 0, 77, 88
4, 34430, Note_off_c, 0, 77, 0
4, 34440, Note_on_c, 0, 78, 88
4, 34556, Note_off_c, 0, 78, 0
4, 34560, Note_on_c, 0, 78, 88
4, 35150, Note_off_c, 0, 78, 0
4, 35160, Note_on_c, 0, 78, 88
4, 35218, Note_off_c, 0, 78, 0
4, 35220, Note_on_c, 0, 80, 88
4, 35249, Note_off_c, 0, 80, 0
4, 35250, Note_on_c, 0, 81, 88
4, 35279, Note_off_c, 0, 81, 0
4, 35280, Note_on_c, 0, 76, 88
4, 35396, Note_off_c, 0, 76, 0
4, 35400, Note_on_c, 0, 74, 88
4, 35516, Note_off_c, 0, 74, 0
4, 35520, Note_on_c, 0, 73, 88
4, 35636, Note_off_c, 0, 73, 0
4, 35640, Note_on_c, 0, 73, 88
4, 35756, Note_off_c, 0, 73, 0
4, 35760, Note_on_c, 0, 71, 88
4, 35818, Note_off_c, 0, 71, 0
4, 35820, Note_on_c, 0, 74, 88
4, 35878, Note_off_c, 0, 74, 0
4, 35880, Note_on_c, 0, 73, 88
4, 35938, Note_off_c, 0, 73, 0
4, 35940, Note_on_c, 0, 71, 88
4, 35998, Note_off_c, 0, 71, 0
4, 36000, Note_on_c, 0, 80, 88
4, 36590, Note_off_c, 0, 80, 0
4, 36600, Note_on_c, 0, 81, 88
4, 36716, Note_off_c, 0, 81, 0
4, 36720, Note_on_c, 0, 80, 88
4, 36836, Note_off_c, 0, 80, 0
4, 36840, Note_on_c, 0, 78, 88
4, 37252, Note_off_c, 0, 78, 0
4, 37260, Note_on_c, 0, 81, 88
4, 37318, Note_off_c, 0, 81, 0
4, 37320, Note_on_c, 0, 80, 88
4, 37378, Note_off_c, 0, 80, 0
4, 37380, Note_on_c, 0, 78, 88
4, 37433, Note_off_c, 0, 78, 0
4, 37440, Note_on_c, 0, 78, 88
4, 37556, Note_off_c, 0, 78, 0
4, 37560, Note_on_c, 0, 77, 88
4, 37676, Note_off_c, 0, 77, 0
4, 37680, Note_on_c, 0, 80, 88
4, 37796, Note_off_c, 0, 80, 0
4, 37800, Note_on_c, 0, 74, 88
4, 37916, Note_off_c, 0, 74, 0
4, 37920, Note_on_c, 0, 73, 88
4, 38036, Note_off_c, 0, 73, 0
4, 38040, Note_on_c, 0, 77, 88
4, 38156, Note_off_c, 0, 77, 0
4, 38160, Note_on_c, 0, 78, 88
4, 38394, Note_off_c, 0, 78, 0
4, 38400, Note_on_c, 0, 81, 88
4, 38516, Note_off_c, 0, 81, 0
4, 38520, Note_on_c, 0, 75, 88
4, 38636, Note_off_c, 0, 75, 0
4, 38640, Note_on_c, 0, 76, 88
4, 38756, Note_off_c, 0, 76, 0
4, 38760, Note_on_c, 0, 78, 88
4, 38876, Note_off_c, 0, 78, 0
4, 38880, Note_on_c, 0, 73, 88
4, 38996, Note_off_c, 0, 73, 0
4, 39000, Note_on_c, 0, 72, 88
4, 39116, Note_off_c, 0, 72, 0
4, 39120, Note_on_c, 0, 68, 88
4, 39236, Note_off_c, 0, 68, 0
4, 39240, Note_on_c, 0, 73, 88
4, 40135, Note_off_c, 0, 73, 0
4, 40140, Note_on_c, 0, 76, 88
4, 40198, Note_off_c, 0, 76, 0
4, 40200, Note_on_c, 0, 75, 88
4, 40258, Note_off_c, 0, 75, 0
4, 40260, Note_on_c, 0, 73, 88
4, 40313, Note_off_c, 0, 73, 0
4, 40320, Note_on_c, 0, 73, 88
4, 40441, Note_off_c, 0, 73, 0
4, 40444, Note_on_c, 0, 72, 88
4, 40674, Note_off_c, 0, 72, 0
4, 41640, Note_on_c, 0, 68, 88
4, 41756, Note_off_c, 0, 68, 0
4, 41760, Note_on_c, 0, 73, 88
4, 41793, Note_off_c, 0, 73, 0
4, 41794, Note_on_c, 0, 72, 88
4, 41834, Note_off_c, 0, 72, 0
4, 41835, Note_on_c, 0, 73, 88
4, 41996, Note_off_c, 0, 73, 0
4, 42000, Note_on_c, 0, 76, 88
4, 42116, Note_off_c, 0, 76, 0
4, 42120, Note_on_c, 0, 76, 88
4, 42236, Note_off_c, 0, 76, 0
4, 42240, Note_on_c, 0, 75, 88
4, 42652, Note_off_c, 0, 75, 0
4, 42660, Note_on_c, 0, 75, 88
4, 42718, Note_off_c, 0, 75, 0
4, 42720, Note_on_c, 0, 76, 88
4, 42778, Note_off_c, 0, 76, 0
4, 42780, Note_on_c, 0, 78, 88
4, 42838, Note_off_c, 0, 78, 0
4, 42840, Note_on_c, 0, 80, 88
4, 43073, Note_off_c, 0, 80, 0
4, 43080, Note_on_c, 0, 80, 88
4, 43196, Note_off_c, 0, 80, 0
4, 43200, Note_on_c, 0, 81, 88
4, 43316, Note_off_c, 0, 81, 0
4, 43320, Note_on_c, 0, 80, 88
4, 43436, Note_off_c, 0, 80, 0
4, 43440, Note_on_c, 0, 73, 88
4, 43556, Note_off_c, 0, 73, 0
4, 43560, Note_on_c, 0, 78, 88
4, 44150, Note_off_c, 0, 78, 0
4, 44160, Note_on_c, 0, 78, 88
4, 44276, Note_off_c, 0, 78, 0
4, 44280, Note_on_c, 0, 78, 88
4, 44514, Note_off_c, 0, 78, 0
4, 44520, Note_on_c, 0, 80, 88
4, 44636, Note_off_c, 0, 80, 0
4, 44640, Note_on_c, 0, 78, 88
4, 44756, Note_off_c, 0, 78, 0
4, 44760, Note_on_c, 0, 76, 88
4, 44789, Note_off_c, 0, 76, 0
4, 44790, Note_on_c, 0, 78, 88
4, 44819, Note_off_c, 0, 78, 0
4, 44820, Note_on_c, 0, 76, 88
4, 44849, Note_off_c, 0, 76, 0
4, 44850, Note_on_c, 0, 78, 88
4, 44875, Note_off_c, 0, 78, 0
4, 44876, Note_on_c, 0, 76, 88
4, 44902, Note_off_c, 0, 76, 0
4, 44903, Note_on_c, 0, 78, 88
4, 44928, Note_off_c, 0, 78, 0
4, 44929, Note_on_c, 0, 76, 88
4, 45115, Note_off_c, 0, 76, 0
4, 45120, Note_on_c, 0, 75, 88
4, 45236, Note_off_c, 0, 75, 0
4, 45240, Note_on_c, 0, 76, 88
4, 45356, Note_off_c, 0, 76, 0
4, 45360, Note_on_c, 0, 76, 88
4, 45481, Note_off_c, 0, 76, 0
4, 45484, Note_on_c, 0, 75, 88
4, 45714, Note_off_c, 0, 75, 0
4, 45960, Note_on_c, 0, 75, 88
4, 46073, Note_off_c, 0, 75, 0
4, 46080, Note_on_c, 0, 75, 88
4, 46196, Note_off_c, 0, 75, 0
4, 46200, Note_on_c, 0, 76, 88
4, 46316, Note_off_c, 0, 76, 0
4, 46320, Note_on_c, 0, 72, 88
4, 46436, Note_off_c, 0, 72, 0
4, 46440, Note_on_c, 0, 72, 88
4, 46556, Note_off_c, 0, 72, 0
4, 46560, Note_on_c, 0, 73, 88
4, 46972, Note_off_c, 0, 73, 0
4, 46980, Note_on_c, 0, 76, 88
4, 47038, Note_off_c, 0, 76, 0
4, 47040, Note_on_c, 0, 75, 88
4, 47098, Note_off_c, 0, 75, 0
4, 47100, Note_on_c, 0, 73, 88
4, 47153, Note_off_c, 0, 73, 0
4, 47160, Note_on_c, 0, 73, 88
4, 47276, Note_off_c, 0, 73, 0
4, 47280, Note_on_c, 0, 81, 88
4, 47396, Note_off_c, 0, 81, 0
4, 47400, Note_on_c, 0, 73, 88
4, 47516, Note_off_c, 0, 73, 0
4, 47520, Note_on_c, 0, 73, 88
4, 47636, Note_off_c, 0, 73, 0
4, 47640, Note_on_c, 0, 72, 88
4, 47756, Note_off_c, 0, 72, 0
4, 47760, Note_on_c, 0, 68, 88
4, 47876, Note_off_c, 0, 68, 0
4, 47880, Note_on_c, 0, 80, 88
4, 48470, Note_off_c, 0, 80, 0
4, 48480, Note_on_c, 0, 80, 88
4, 48596, Note_off_c, 0, 80, 0
4, 48600, Note_on_c, 0, 80, 88
4, 48953, Note_off_c, 0, 80, 0
4, 48960, Note_on_c, 0, 79, 88
4, 49313, Note_off_c, 0, 79, 0
4, 49560, Note_on_c, 0, 78, 88
4, 49676, Note_off_c, 0, 78, 0
4, 49680, Note_on_c, 0, 78, 88
4, 49796, Note_off_c, 0, 78, 0
4, 49800, Note_on_c, 0, 77, 88
4, 49858, Note_off_c, 0, 77, 0
4, 49860, Note_on_c, 0, 75, 88
4, 49918, Note_off_c, 0, 75, 0
4, 49920, Note_on_c, 0, 73, 88
4, 49978, Note_off_c, 0, 73, 0
4, 49980, Note_on_c, 0, 75, 88
4, 50033, Note_off_c, 0, 75, 0
4, 50040, Note_on_c, 0, 75, 88
4, 50161, Note_off_c, 0, 75, 0
4, 50164, Note_on_c, 0, 76, 88
4, 50750, Note_off_c, 0, 76, 0
4, 50760, Note_on_c, 0, 76, 88
4, 50876, Note_off_c, 0, 76, 0
4, 50880, Note_on_c, 0, 75, 88
4, 50996, Note_off_c, 0, 75, 0
4, 51000, Note_on_c, 0, 73, 88
4, 51113, Note_off_c, 0, 73, 0
4, 51120, Note_on_c, 0, 73, 88
4, 51241, Note_off_c, 0, 73, 0
4, 51244, Note_on_c, 0, 72, 88
4, 51474, Note_off_c, 0, 72, 0
4, 51480, Note_on_c, 0, 71, 88
4, 52074, Note_off_c, 0, 71, 0
4, 52080, Note_on_c, 0, 73, 88
4, 52196, Note_off_c, 0, 73, 0
4, 52200, Note_on_c, 0, 71, 88
4, 52316, Note_off_c, 0, 71, 0
4, 52320, Note_on_c, 0, 69, 88
4, 52436, Note_off_c, 0, 69, 0
4, 52440, Note_on_c, 0, 68, 88
4, 52553, Note_off_c, 0, 68, 0
4, 52560, Note_on_c, 0, 68, 88
4, 52676, Note_off_c, 0, 68, 0
4, 52680, Note_on_c, 0, 66, 88
4, 52796, Note_off_c, 0, 66, 0
4, 52800, Note_on_c, 0, 64, 88
4, 52916, Note_off_c, 0, 64, 0
4, 52920, Note_on_c, 0, 64, 88
4, 53036, Note_off_c, 0, 64, 0
4, 53040, Note_on_c, 0, 63, 88
4, 53098, Note_off_c, 0, 63, 0
4, 53100, Note_on_c, 0, 68, 88
4, 53158, Note_off_c, 0, 68, 0
4, 53160, Note_on_c, 0, 72, 88
4, 53218, Note_off_c, 0, 72, 0
4, 53220, Note_on_c, 0, 75, 88
4, 53278, Note_off_c, 0, 75, 0
4, 53280, Note_on_c, 0, 80, 88
4, 53338, Note_off_c, 0, 80, 0
4, 53340, Note_on_c, 0, 78, 88
4, 53398, Note_off_c, 0, 78, 0
4, 53400, Note_on_c, 0, 80, 88
4, 53513, Note_off_c, 0, 80, 0
4, 53520, Note_on_c, 0, 80, 88
4, 53633, Note_off_c, 0, 80, 0
4, 53640, Note_on_c, 0, 80, 88
4, 53873, Note_off_c, 0, 80, 0
4, 53880, Note_on_c, 0, 80, 88
4, 53996, Note_off_c, 0, 80, 0
4, 54000, Note_on_c, 0, 80, 88
4, 54116, Note_off_c, 0, 80, 0
4, 54120, Note_on_c, 0, 81, 88
4, 54178, Note_off_c, 0, 81, 0
4, 54180, Note_on_c, 0, 80, 88
4, 54238, Note_off_c, 0, 80, 0
4, 54240, Note_on_c, 0, 78, 88
4, 54298, Note_off_c, 0, 78, 0
4, 54300, Note_on_c, 0, 76, 88
4, 54358, Note_off_c, 0, 76, 0
4, 54360, Note_on_c, 0, 78, 88
4, 54593, Note_off_c, 0, 78, 0
4, 54600, Note_on_c, 0, 78, 88
4, 54713, Note_off_c, 0, 78, 0
4, 54720, Note_on_c, 0, 78, 88
4, 54953, Note_off_c, 0, 78, 0
4, 54960, Note_on_c, 0, 78, 88
4, 55076, Note_off_c, 0, 78, 0
4, 55080, Note_on_c, 0, 78, 88
4, 55433, Note_off_c, 0, 78, 0
4, 55440, Note_on_c, 0, 76, 88
4, 55556, Note_off_c, 0, 76, 0
4, 55560, Note_on_c, 0, 78, 88
4, 55676, Note_off_c, 0, 78, 0
4, 55680, Note_on_c, 0, 80, 88
4, 55796, Note_off_c, 0, 80, 0
4, 55800, Note_on_c, 0, 73, 88
4, 55916, Note_off_c, 0, 73, 0
4, 55920, Note_on_c, 0, 75, 88
4, 56036, Note_off_c, 0, 75, 0
4, 56040, Note_on_c, 0, 76, 88
4, 56156, Note_off_c, 0, 76, 0
4, 56160, Note_on_c, 0, 71, 88
4, 56276, Note_off_c, 0, 71, 0
4, 56280, Note_on_c, 0, 70, 88
4, 56396, Note_off_c, 0, 70, 0
4, 56400, Note_on_c, 0, 63, 88
4, 56516, Note_off_c, 0, 63, 0
4, 56520, Note_on_c, 0, 75, 88
4, 56578, Note_off_c, 0, 75, 0
4, 56580, Note_on_c, 0, 73, 88
4, 56638, Note_off_c, 0, 73, 0
4, 56640, Note_on_c, 0, 75, 88
4, 57052, Note_off_c, 0, 75, 0
4, 57060, Note_on_c, 0, 75, 88
4, 57118, Note_off_c, 0, 75, 0
4, 57120, Note_on_c, 0, 77, 88
4, 57178, Note_off_c, 0, 77, 0
4, 57180, Note_on_c, 0, 78, 88
4, 57238, Note_off_c, 0, 78, 0
4, 57240, Note_on_c, 0, 78, 88
4, 57269, Note_off_c, 0, 78, 0
4, 57270, Note_on_c, 0, 77, 88
4, 57299, Note_off_c, 0, 77, 0
4, 57300, Note_on_c, 0, 78, 88
4, 57329, Note_off_c, 0, 78, 0
4, 57330, Note_on_c, 0, 77, 88
4, 57359, Note_off_c, 0, 77, 0
4, 57360, Note_on_c, 0, 78, 88
4, 57389, Note_off_c, 0, 78, 0
4, 57390, Note_on_c, 0, 77, 88
4, 57419, Note_off_c, 0, 77, 0
4, 57420, Note_on_c, 0, 78, 88
4, 57449, Note_off_c, 0, 78, 0
4, 57450, Note_on_c, 0, 77, 88
4, 57479, Note_off_c, 0, 77, 0
4, 57480, Note_on_c, 0, 78, 88
4, 57509, Note_off_c, 0, 78, 0
4, 57510, Note_on_c, 0, 77, 88
4, 57539, Note_off_c, 0, 77, 0
4, 57540, Note_on_c, 0, 75, 88
4, 57569, Note_off_c, 0, 75, 0
4, 57570, Note_on_c, 0, 77, 88
4, 57599, Note_off_c, 0, 77, 0
4, 57600, Note_on_c, 0, 78, 88
4, 57775, Note_off_c, 0, 78, 0
4, 57780, Note_on_c, 0, 76, 88
4, 57838, Note_off_c, 0, 76, 0
4, 57840, Note_on_c, 0, 74, 88
4, 57898, Note_off_c, 0, 74, 0
4, 57900, Note_on_c, 0, 73, 88
4, 57958, Note_off_c, 0, 73, 0
4, 57960, Note_on_c, 0, 71, 88
4, 58554, Note_off_c, 0, 71, 0
4, 58560, Note_on_c, 0, 73, 88
4, 58676, Note_off_c, 0, 73, 0
4, 58680, Note_on_c, 0, 71, 88
4, 59036, Note_off_c, 0, 71, 0
4, 59044, Note_on_c, 0, 69, 88
4, 59073, Note_off_c, 0, 69, 0
4, 59074, Note_on_c, 0, 71, 88
4, 59103, Note_off_c, 0, 71, 0
4, 59104, Note_on_c, 0, 69, 88
4, 59133, Note_off_c, 0, 69, 0
4, 59134, Note_on_c, 0, 71, 88
4, 59163, Note_off_c, 0, 71, 0
4, 59164, Note_on_c, 0, 69, 88
4, 59193, Note_off_c, 0, 69, 0
4, 59194, Note_on_c, 0, 71, 88
4, 59223, Note_off_c, 0, 71, 0
4, 59224, Note_on_c, 0, 69, 88
4, 59253, Note_off_c, 0, 69, 0
4, 59254, Note_on_c, 0, 71, 88
4, 59279, Note_off_c, 0, 71, 0
4, 59280, Note_on_c, 0, 69, 88
4, 59305, Note_off_c, 0, 69, 0
4, 59306, Note_on_c, 0, 71, 88
4, 59339, Note_off_c, 0, 71, 0
4, 59340, Note_on_c, 0, 68, 88
4, 59369, Note_off_c, 0, 68, 0
4, 59370, Note_on_c, 0, 69, 88
4, 59399, Note_off_c, 0, 69, 0
4, 59400, Note_on_c, 0, 68, 88
4, 59634, Note_off_c, 0, 68, 0
4, 60000, Note_on_c, 0, 68, 88
4, 60116, Note_off_c, 0, 68, 0
4, 60120, Note_on_c, 0, 73, 88
4, 60833, Note_off_c, 0, 73, 0
4, 60840, Note_on_c, 0, 72, 88
4, 61074, Note_off_c, 0, 72, 0
4, 61080, Note_on_c, 0, 73, 88
4, 61196, Note_off_c, 0, 73, 0
4, 61200, Note_on_c, 0, 75, 88
4, 61794, Note_off_c, 0, 75, 0
4, 61800, Note_on_c, 0, 76, 88
4, 61913, Note_off_c, 0, 76, 0
4, 61920, Note_on_c, 0, 76, 88
4, 62036, Note_off_c, 0, 76, 0
4, 62040, Note_on_c, 0, 78, 88
4, 62510, Note_off_c, 0, 78, 0
4, 62520, Note_on_c, 0, 75, 88
4, 62636, Note_off_c, 0, 75, 0
4, 62640, Note_on_c, 0, 75, 88
4, 62761, Note_off_c, 0, 75, 0
4, 62764, Note_on_c, 0, 76, 88
4, 62994, Note_off_c, 0, 76, 0
4, 63000, Note_on_c, 0, 77, 88
4, 63353, Note_off_c, 0, 77, 0
4, 63360, Note_on_c, 0, 78, 88
4, 63713, Note_off_c, 0, 78, 0
4, 63720, Note_on_c, 0, 76, 88
4, 64073, Note_off_c, 0, 76, 0
4, 64080, Note_on_c, 0, 75, 88
4, 64196, Note_off_c, 0, 75, 0
4, 64200, Note_on_c, 0, 78, 88
4, 64316, Note_off_c, 0, 78, 0
4, 64320, Note_on_c, 0, 76, 88
4, 64436, Note_off_c, 0, 76, 0
4, 64440, Note_on_c, 0, 78, 88
4, 64498, Note_off_c, 0, 78, 0
4, 64500, Note_on_c, 0, 80, 88
4, 64558, Note_off_c, 0, 80, 0
4, 64560, Note_on_c, 0, 81, 88
4, 64676, Note_off_c, 0, 81, 0
4, 64680, Note_on_c, 0, 80, 88
4, 64796, Note_off_c, 0, 80, 0
4, 64800, Note_on_c, 0, 78, 88
4, 64916, Note_off_c, 0, 78, 0
4, 64920, Note_on_c, 0, 76, 88
4, 65036, Note_off_c, 0, 76, 0
4, 65040, Note_on_c, 0, 75, 88
4, 65156, Note_off_c, 0, 75, 0
4, 65160, Note_on_c, 0, 73, 88
4, 65513, Note_off_c, 0, 73, 0
4, 65520, Note_on_c, 0, 73, 88
4, 65549, Note_off_c, 0, 73, 0
4, 65550, Note_on_c, 0, 72, 88
4, 65572, Note_off_c, 0, 72, 0
4, 65573, Note_on_c, 0, 73, 88
4, 65594, Note_off_c, 0, 73, 0
4, 65595, Note_on_c, 0, 72, 88
4, 65617, Note_off_c, 0, 72, 0
4, 65618, Note_on_c, 0, 73, 88
4, 65639, Note_off_c, 0, 73, 0
4, 65640, Note_on_c, 0, 72, 88
4, 65756, Note_off_c, 0, 72, 0
4, 65760, Note_on_c, 0, 73, 88
4, 65876, Note_off_c, 0, 73, 0
4, 65880, Note_on_c, 0, 73, 88
4, 66233, Note_off_c, 0, 73, 0
4, 66233, End_track
5, 0, Start_track
5, 0, Title_t, "Track 2"
5, 0, Program_c, 1, 6
5, 720, Note_on_c, 1, 64, 88
5, 1073, Note_off_c, 1, 64, 0
5, 1080, Note_on_c, 1, 66, 88
5, 1433, Note_off_c, 1, 66, 0
5, 1440, Note_on_c, 1, 68, 88
5, 1793, Note_off_c, 1, 68, 0
5, 1800, Note_on_c, 1, 63, 88
5, 2153, Note_off_c, 1, 63, 0
5, 2160, Note_on_c, 1, 61, 88
5, 2691, Note_off_c, 1, 61, 0
5, 2700, Note_on_c, 1, 76, 88
5, 2758, Note_off_c, 1, 76, 0
5, 2760, Note_on_c, 1, 75, 88
5, 2818, Note_off_c, 1, 75, 0
5, 2820, Note_on_c, 1, 73, 88
5, 2873, Note_off_c, 1, 73, 0
5, 2880, Note_on_c, 1, 73, 88
5, 2996, Note_off_c, 1, 73, 0
5, 3000, Note_on_c, 1, 72, 88
5, 3116, Note_off_c, 1, 72, 0
5, 3120, Note_on_c, 1, 75, 88
5, 3236, Note_off_c, 1, 75, 0
5, 3240, Note_on_c, 1, 69, 88
5, 3356, Note_off_c, 1, 69, 0
5, 3360, Note_on_c, 1, 68, 88
5, 3476, Note_off_c, 1, 68, 0
5, 3480, Note_on_c, 1, 72, 88
5, 3596, Note_off_c, 1, 72, 0
5, 3600, Note_on_c, 1, 73, 88
5, 4070, Note_off_c, 1, 73, 0
5, 4080, Note_on_c, 1, 72, 88
5, 4196, Note_off_c, 1, 72, 0
5, 4200, Note_on_c, 1, 73, 88
5, 4316, Note_off_c, 1, 73, 0
5, 4320, Note_on_c, 1, 72, 88
5, 4673, Note_off_c, 1, 72, 0
5, 5280, Note_on_c, 1, 68, 88
5, 5396, Note_off_c, 1, 68, 0
5, 5400, Note_on_c, 1, 69, 88
5, 5753, Note_off_c, 1, 69, 0
5, 6360, Note_on_c, 1, 69, 88
5, 6476, Note_off_c, 1, 69, 0
5, 6480, Note_on_c, 1, 68, 88
5, 6833, Note_off_c, 1, 68, 0
5, 7080, Note_on_c, 1, 56, 88
5, 7196, Note_off_c, 1, 56, 0
5, 7200, Note_on_c, 1, 61, 88
5, 7434, Note_off_c, 1, 61, 0
5, 7440, Note_on_c, 1, 64, 88
5, 7556, Note_off_c, 1, 64, 0
5, 7560, Note_on_c, 1, 63, 88
5, 8091, Note_off_c, 1, 63, 0
5, 8100, Note_on_c, 1, 63, 88
5, 8158, Note_off_c, 1, 63, 0
5, 8160, Note_on_c, 1, 64, 88
5, 8218, Note_off_c, 1, 64, 0
5, 8220, Note_on_c, 1, 66, 88
5, 8278, Note_off_c, 1, 66, 0
5, 8280, Note_on_c, 1, 68, 88
5, 8513, Note_off_c, 1, 68, 0
5, 8520, Note_on_c, 1, 68, 88
5, 8636, Note_off_c, 1, 68, 0
5, 8640, Note_on_c, 1, 68, 88
5, 8874, Note_off_c, 1, 68, 0
5, 8880, Note_on_c, 1, 61, 88
5, 8996, Note_off_c, 1, 61, 0
5, 9000, Note_on_c, 1, 66, 88
5, 9590, Note_off_c, 1, 66, 0
5, 9600, Note_on_c, 1, 66, 88
5, 9716, Note_off_c, 1, 66, 0
5, 9720, Note_on_c, 1, 66, 88
5, 9954, Note_off_c, 1, 66, 0
5, 9960, Note_on_c, 1, 68, 88
5, 10076, Note_off_c, 1, 68, 0
5, 10080, Note_on_c, 1, 66, 88
5, 10120, Note_off_c, 1, 66, 0
5, 10121, Note_on_c, 1, 64, 88
5, 10158, Note_off_c, 1, 64, 0
5, 10159, Note_on_c, 1, 66, 88
5, 10195, Note_off_c, 1, 66, 0
5, 10196, Note_on_c, 1, 64, 88
5, 10233, Note_off_c, 1, 64, 0
5, 10234, Note_on_c, 1, 66, 88
5, 10270, Note_off_c, 1, 66, 0
5, 10271, Note_on_c, 1, 64, 88
5, 10308, Note_off_c, 1, 64, 0
5, 10309, Note_on_c, 1, 66, 88
5, 10345, Note_off_c, 1, 66, 0
5, 10346, Note_on_c, 1, 64, 88
5, 10554, Note_off_c, 1, 64, 0
5, 10560, Note_on_c, 1, 63, 88
5, 10676, Note_off_c, 1, 63, 0
5, 10680, Note_on_c, 1, 64, 88
5, 10796, Note_off_c, 1, 64, 0
5, 10800, Note_on_c, 1, 63, 88
5, 11508, Note_off_c, 1, 63, 0
5, 11520, Note_on_c, 1, 68, 88
5, 11873, Note_off_c, 1, 68, 0
5, 11880, Note_on_c, 1, 68, 88
5, 12233, Note_off_c, 1, 68, 0
5, 12240, Note_on_c, 1, 67, 88
5, 12474, Note_off_c, 1, 67, 0
5, 12480, Note_on_c, 1, 68, 88
5, 12596, Note_off_c, 1, 68, 0
5, 12600, Note_on_c, 1, 70, 88
5, 13194, Note_off_c, 1, 70, 0
5, 13200, Note_on_c, 1, 71, 88
5, 13316, Note_off_c, 1, 71, 0
5, 13320, Note_on_c, 1, 73, 88
5, 13910, Note_off_c, 1, 73, 0
5, 13920, Note_on_c, 1, 70, 88
5, 14036, Note_off_c, 1, 70, 0
5, 14040, Note_on_c, 1, 71, 88
5, 14393, Note_off_c, 1, 71, 0
5, 14400, Note_on_c, 1, 72, 88
5, 14753, Note_off_c, 1, 72, 0
5, 14760, Note_on_c, 1, 73, 88
5, 15113, Note_off_c, 1, 73, 0
5, 15120, Note_on_c, 1, 71, 88
5, 15473, Note_off_c, 1, 71, 0
5, 15480, Note_on_c, 1, 70, 88
5, 15596, Note_off_c, 1, 70, 0
5, 15600, Note_on_c, 1, 73, 88
5, 15716, Note_off_c, 1, 73, 0
5, 15720, Note_on_c, 1, 71, 88
5, 15836, Note_off_c, 1, 71, 0
5, 15840, Note_on_c, 1, 73, 88
5, 15898, Note_off_c, 1, 73, 0
5, 15900, Note_on_c, 1, 75, 88
5, 15958, Note_off_c, 1, 75, 0
5, 15960, Note_on_c, 1, 76, 88
5, 16076, Note_off_c, 1, 76, 0
5, 16080, Note_on_c, 1, 75, 88
5, 16196, Note_off_c, 1, 75, 0
5, 16200, Note_on_c, 1, 73, 88
5, 16316, Note_off_c, 1, 73, 0
5, 16320, Note_on_c, 1, 71, 88
5, 16436, Note_off_c, 1, 71, 0
5, 16440, Note_on_c, 1, 73, 88
5, 16556, Note_off_c, 1, 73, 0
5, 16560, Note_on_c, 1, 71, 88
5, 16913, Note_off_c, 1, 71, 0
5, 16920, Note_on_c, 1, 70, 88
5, 17154, Note_off_c, 1, 70, 0
5, 17160, Note_on_c, 1, 71, 88
5, 17276, Note_off_c, 1, 71, 0
5, 17280, Note_on_c, 1, 68, 88
5, 17870, Note_off_c, 1, 68, 0
5, 17880, Note_on_c, 1, 75, 88
5, 17993, Note_off_c, 1, 75, 0
5, 18000, Note_on_c, 1, 75, 88
5, 18116, Note_off_c, 1, 75, 0
5, 18120, Note_on_c, 1, 76, 88
5, 18236, Note_off_c, 1, 76, 0
5, 18240, Note_on_c, 1, 73, 88
5, 18356, Note_off_c, 1, 73, 0
5, 18360, Note_on_c, 1, 71, 88
5, 18476, Note_off_c, 1, 71, 0
5, 18480, Note_on_c, 1, 70, 88
5, 18892, Note_off_c, 1, 70, 0
5, 18900, Note_on_c, 1, 73, 88
5, 18958, Note_off_c, 1, 73, 0
5, 18960, Note_on_c, 1, 71, 88
5, 19018, Note_off_c, 1, 71, 0
5, 19020, Note_on_c, 1, 70, 88
5, 19078, Note_off_c, 1, 70, 0
5, 19080, Note_on_c, 1, 75, 88
5, 19196, Note_off_c, 1, 75, 0
5, 19200, Note_on_c, 1, 78, 88
5, 19258, Note_off_c, 1, 78, 0
5, 19260, Note_on_c, 1, 76, 88
5, 19318, Note_off_c, 1, 76, 0
5, 19320, Note_on_c, 1, 78, 88
5, 19436, Note_off_c, 1, 78, 0
5, 19440, Note_on_c, 1, 73, 88
5, 19469, Note_off_c, 1, 73, 0
5, 19470, Note_on_c, 1, 72, 88
5, 19499, Note_off_c, 1, 72, 0
5, 19500, Note_on_c, 1, 73, 88
5, 19529, Note_off_c, 1, 73, 0
5, 19530, Note_on_c, 1, 72, 88
5, 19559, Note_off_c, 1, 72, 0
5, 19560, Note_on_c, 1, 70, 88
5, 19676, Note_off_c, 1, 70, 0
5, 19680, Note_on_c, 1, 68, 88
5, 19796, Note_off_c, 1, 68, 0
5, 19800, Note_on_c, 1, 73, 88
5, 20873, Note_off_c, 1, 73, 0
5, 20880, Note_on_c, 1, 71, 88
5, 21953, Note_off_c, 1, 71, 0
5, 21960, Note_on_c, 1, 69, 88
5, 22076, Note_off_c, 1, 69, 0
5, 22080, Note_on_c, 1, 71, 88
5, 22196, Note_off_c, 1, 71, 0
5, 22200, Note_on_c, 1, 69, 88
5, 22313, Note_off_c, 1, 69, 0
5, 22320, Note_on_c, 1, 69, 88
5, 22436, Note_off_c, 1, 69, 0
5, 22440, Note_on_c, 1, 68, 88
5, 22556, Note_off_c, 1, 68, 0
5, 22560, Note_on_c, 1, 69, 88
5, 22676, Note_off_c, 1, 69, 0
5, 22680, Note_on_c, 1, 71, 88
5, 23270, Note_off_c, 1, 71, 0
5, 23280, Note_on_c, 1, 73, 88
5, 23396, Note_off_c, 1, 73, 0
5, 23400, Note_on_c, 1, 71, 88
5, 23516, Note_off_c, 1, 71, 0
5, 23520, Note_on_c, 1, 70, 88
5, 23636, Note_off_c, 1, 70, 0
5, 23640, Note_on_c, 1, 68, 88
5, 23756, Note_off_c, 1, 68, 0
5, 23760, Note_on_c, 1, 73, 88
5, 23994, Note_off_c, 1, 73, 0
5, 24000, Note_on_c, 1, 70, 88
5, 24116, Note_off_c, 1, 70, 0
5, 24120, Note_on_c, 1, 66, 88
5, 24710, Note_off_c, 1, 66, 0
5, 24720, Note_on_c, 1, 68, 88
5, 24836, Note_off_c, 1, 68, 0
5, 24840, Note_on_c, 1, 64, 88
5, 24956, Note_off_c, 1, 64, 0
5, 24960, Note_on_c, 1, 63, 88
5, 25076, Note_off_c, 1, 63, 0
5, 25080, Note_on_c, 1, 61, 88
5, 25196, Note_off_c, 1, 61, 0
5, 25200, Note_on_c, 1, 66, 88
5, 25316, Note_off_c, 1, 66, 0
5, 25320, Note_on_c, 1, 68, 88
5, 25436, Note_off_c, 1, 68, 0
5, 25440, Note_on_c, 1, 69, 88
5, 25556, Note_off_c, 1, 69, 0
5, 25560, Note_on_c, 1, 68, 88
5, 25676, Note_off_c, 1, 68, 0
5, 25680, Note_on_c, 1, 66, 88
5, 25796, Note_off_c, 1, 66, 0
5, 25800, Note_on_c, 1, 64, 88
5, 25916, Note_off_c, 1, 64, 0
5, 25920, Note_on_c, 1, 63, 88
5, 26036, Note_off_c, 1, 63, 0
5, 26040, Note_on_c, 1, 61, 88
5, 26156, Note_off_c, 1, 61, 0
5, 26160, Note_on_c, 1, 59, 88
5, 26276, Note_off_c, 1, 59, 0
5, 26280, Note_on_c, 1, 64, 88
5, 27708, Note_off_c, 1, 64, 0
5, 27720, Note_on_c, 1, 63, 88
5, 28073, Note_off_c, 1, 63, 0
5, 28080, Note_on_c, 1, 64, 88
5, 28314, Note_off_c, 1, 64, 0
5, 29160, Note_on_c, 1, 59, 88
5, 29276, Note_off_c, 1, 59, 0
5, 29280, Note_on_c, 1, 63, 88
5, 29396, Note_off_c, 1, 63, 0
5, 29400, Note_on_c, 1, 66, 88
5, 29516, Note_off_c, 1, 66, 0
5, 29520, Note_on_c, 1, 71, 88
5, 29578, Note_off_c, 1, 71, 0
5, 29580, Note_on_c, 1, 69, 88
5, 29638, Note_off_c, 1, 69, 0
5, 29640, Note_on_c, 1, 71, 88
5, 29753, Note_off_c, 1, 71, 0
5, 29760, Note_on_c, 1, 71, 88
5, 29873, Note_off_c, 1, 71, 0
5, 29880, Note_on_c, 1, 71, 88
5, 30113, Note_off_c, 1, 71, 0
5, 30120, Note_on_c, 1, 71, 88
5, 30236, Note_off_c, 1, 71, 0
5, 30240, Note_on_c, 1, 71, 88
5, 30356, Note_off_c, 1, 71, 0
5, 30360, Note_on_c, 1, 73, 88
5, 30418, Note_off_c, 1, 73, 0
5, 30420, Note_on_c, 1, 71, 88
5, 30478, Note_off_c, 1, 71, 0
5, 30480, Note_on_c, 1, 69, 88
5, 30538, Note_off_c, 1, 69, 0
5, 30540, Note_on_c, 1, 68, 88
5, 30598, Note_off_c, 1, 68, 0
5, 30600, Note_on_c, 1, 69, 88
5, 31190, Note_off_c, 1, 69, 0
5, 31200, Note_on_c, 1, 69, 88
5, 31316, Note_off_c, 1, 69, 0
5, 31320, Note_on_c, 1, 68, 88
5, 31673, Note_off_c, 1, 68, 0
5, 31920, Note_on_c, 1, 68, 88
5, 32036, Note_off_c, 1, 68, 0
5, 32040, Note_on_c, 1, 73, 88
5, 32753, Note_off_c, 1, 73, 0
5, 33000, Note_on_c, 1, 66, 88
5, 33116, Note_off_c, 1, 66, 0
5, 33120, Note_on_c, 1, 71, 88
5, 33354, Note_off_c, 1, 71, 0
5, 33360, Note_on_c, 1, 68, 88
5, 33476, Note_off_c, 1, 68, 0
5, 33480, Note_on_c, 1, 69, 88
5, 33714, Note_off_c, 1, 69, 0
5, 33720, Note_on_c, 1, 71, 88
5, 33836, Note_off_c, 1, 71, 0
5, 33840, Note_on_c, 1, 68, 88
5, 34074, Note_off_c, 1, 68, 0
5, 34080, Note_on_c, 1, 71, 88
5, 34138, Note_off_c, 1, 71, 0
5, 34140, Note_on_c, 1, 73, 88
5, 34169, Note_off_c, 1, 73, 0
5, 34170, Note_on_c, 1, 74, 88
5, 34193, Note_off_c, 1, 74, 0
5, 34200, Note_on_c, 1, 74, 88
5, 34316, Note_off_c, 1, 74, 0
5, 34320, Note_on_c, 1, 73, 88
5, 34436, Note_off_c, 1, 73, 0
5, 34440, Note_on_c, 1, 71, 88
5, 34556, Note_off_c, 1, 71, 0
5, 34560, Note_on_c, 1, 69, 88
5, 34913, Note_off_c, 1, 69, 0
5, 35160, Note_on_c, 1, 61, 88
5, 35276, Note_off_c, 1, 61, 0
5, 35280, Note_on_c, 1, 66, 88
5, 35514, Note_off_c, 1, 66, 0
5, 35520, Note_on_c, 1, 69, 88
5, 35636, Note_off_c, 1, 69, 0
5, 35640, Note_on_c, 1, 68, 88
5, 36171, Note_off_c, 1, 68, 0
5, 36180, Note_on_c, 1, 68, 88
5, 36238, Note_off_c, 1, 68, 0
5, 36240, Note_on_c, 1, 69, 88
5, 36298, Note_off_c, 1, 69, 0
5, 36300, Note_on_c, 1, 71, 88
5, 36358, Note_off_c, 1, 71, 0
5, 36360, Note_on_c, 1, 73, 88
5, 36593, Note_off_c, 1, 73, 0
5, 36600, Note_on_c, 1, 73, 88
5, 36716, Note_off_c, 1, 73, 0
5, 36720, Note_on_c, 1, 73, 88
5, 36954, Note_off_c, 1, 73, 0
5, 36960, Note_on_c, 1, 66, 88
5, 37076, Note_off_c, 1, 66, 0
5, 37080, Note_on_c, 1, 71, 88
5, 37670, Note_off_c, 1, 71, 0
5, 37680, Note_on_c, 1, 71, 88
5, 37796, Note_off_c, 1, 71, 0
5, 37800, Note_on_c, 1, 71, 88
5, 38034, Note_off_c, 1, 71, 0
5, 38040, Note_on_c, 1, 73, 88
5, 38156, Note_off_c, 1, 73, 0
5, 38160, Note_on_c, 1, 71, 88
5, 38276, Note_off_c, 1, 71, 0
5, 38280, Note_on_c, 1, 69, 88
5, 38633, Note_off_c, 1, 69, 0
5, 38640, Note_on_c, 1, 68, 88
5, 38756, Note_off_c, 1, 68, 0
5, 38760, Note_on_c, 1, 69, 88
5, 38876, Note_off_c, 1, 69, 0
5, 38880, Note_on_c, 1, 68, 88
5, 39233, Note_off_c, 1, 68, 0
5, 39480, Note_on_c, 1, 68, 88
5, 39596, Note_off_c, 1, 68, 0
5, 39600, Note_on_c, 1, 69, 88
5, 39633, Note_off_c, 1, 69, 0
5, 39634, Note_on_c, 1, 68, 88
5, 39674, Note_off_c, 1, 68, 0
5, 39675, Note_on_c, 1, 69, 88
5, 39836, Note_off_c, 1, 69, 0
5, 39840, Note_on_c, 1, 64, 88
5, 39956, Note_off_c, 1, 64, 0
5, 39960, Note_on_c, 1, 66, 88
5, 40491, Note_off_c, 1, 66, 0
5, 40500, Note_on_c, 1, 69, 88
5, 40558, Note_off_c, 1, 69, 0
5, 40560, Note_on_c, 1, 68, 88
5, 40618, Note_off_c, 1, 68, 0
5, 40620, Note_on_c, 1, 66, 88
5, 40673, Note_off_c, 1, 66, 0
5, 40680, Note_on_c, 1, 66, 88
5, 40796, Note_off_c, 1, 66, 0
5, 40800, Note_on_c, 1, 75, 88
5, 40916, Note_off_c, 1, 75, 0
5, 40920, Note_on_c, 1, 66, 88
5, 41036, Note_off_c, 1, 66, 0
5, 41040, Note_on_c, 1, 64, 88
5, 41985, Note_off_c, 1, 64, 0
5, 42000, Note_on_c, 1, 73, 88
5, 42116, Note_off_c, 1, 73, 0
5, 42120, Note_on_c, 1, 73, 88
5, 42473, Note_off_c, 1, 73, 0
5, 42480, Note_on_c, 1, 72, 88
5, 42833, Note_off_c, 1, 72, 0
5, 42960, Note_on_c, 1, 71, 88
5, 43018, Note_off_c, 1, 71, 0
5, 43020, Note_on_c, 1, 70, 88
5, 43078, Note_off_c, 1, 70, 0
5, 43080, Note_on_c, 1, 71, 88
5, 43196, Note_off_c, 1, 71, 0
5, 43200, Note_on_c, 1, 71, 88
5, 43553, Note_off_c, 1, 71, 0
5, 43560, Note_on_c, 1, 70, 88
5, 43735, Note_off_c, 1, 70, 0
5, 43740, Note_on_c, 1, 71, 88
5, 43798, Note_off_c, 1, 71, 0
5, 43800, Note_on_c, 1, 70, 88
5, 43858, Note_off_c, 1, 70, 0
5, 43860, Note_on_c, 1, 68, 88
5, 43918, Note_off_c, 1, 68, 0
5, 43920, Note_on_c, 1, 69, 88
5, 44153, Note_off_c, 1, 69, 0
5, 44160, Note_on_c, 1, 69, 88
5, 44276, Note_off_c, 1, 69, 0
5, 44280, Note_on_c, 1, 69, 88
5, 44396, Note_off_c, 1, 69, 0
5, 44400, Note_on_c, 1, 68, 88
5, 44516, Note_off_c, 1, 68, 0
5, 44520, Note_on_c, 1, 72, 88
5, 44636, Note_off_c, 1, 72, 0
5, 44640, Note_on_c, 1, 73, 88
5, 45110, Note_off_c, 1, 73, 0
5, 45120, Note_on_c, 1, 72, 88
5, 45236, Note_off_c, 1, 72, 0
5, 45240, Note_on_c, 1, 73, 88
5, 45356, Note_off_c, 1, 73, 0
5, 45360, Note_on_c, 1, 72, 88
5, 45713, Note_off_c, 1, 72, 0
5, 46320, Note_on_c, 1, 68, 88
5, 46436, Note_off_c, 1, 68, 0
5, 46440, Note_on_c, 1, 69, 88
5, 46793, Note_off_c, 1, 69, 0
5, 47400, Note_on_c, 1, 69, 88
5, 47516, Note_off_c, 1, 69, 0
5, 47520, Note_on_c, 1, 68, 88
5, 47754, Note_off_c, 1, 68, 0
5, 48120, Note_on_c, 1, 68, 88
5, 48236, Note_off_c, 1, 68, 0
5, 48240, Note_on_c, 1, 73, 88
5, 48298, Note_off_c, 1, 73, 0
5, 48300, Note_on_c, 1, 75, 88
5, 48358, Note_off_c, 1, 75, 0
5, 48360, Note_on_c, 1, 76, 88
5, 48476, Note_off_c, 1, 76, 0
5, 48480, Note_on_c, 1, 73, 88
5, 48596, Note_off_c, 1, 73, 0
5, 48600, Note_on_c, 1, 71, 88
5, 48716, Note_off_c, 1, 71, 0
5, 48720, Note_on_c, 1, 70, 88
5, 49132, Note_off_c, 1, 70, 0
5, 49140, Note_on_c, 1, 73, 88
5, 49198, Note_off_c, 1, 73, 0
5, 49200, Note_on_c, 1, 71, 88
5, 49258, Note_off_c, 1, 71, 0
5, 49260, Note_on_c, 1, 70, 88
5, 49318, Note_off_c, 1, 70, 0
5, 49320, Note_on_c, 1, 72, 88
5, 49436, Note_off_c, 1, 72, 0
5, 49440, Note_on_c, 1, 73, 88
5, 49556, Note_off_c, 1, 73, 0
5, 49560, Note_on_c, 1, 75, 88
5, 49676, Note_off_c, 1, 75, 0
5, 49680, Note_on_c, 1, 68, 88
5, 50211, Note_off_c, 1, 68, 0
5, 50220, Note_on_c, 1, 64, 88
5, 50278, Note_off_c, 1, 64, 0
5, 50280, Note_on_c, 1, 66, 88
5, 50338, Note_off_c, 1, 66, 0
5, 50340, Note_on_c, 1, 68, 88
5, 50398, Note_off_c, 1, 68, 0
5, 50400, Note_on_c, 1, 69, 88
5, 50516, Note_off_c, 1, 69, 0
5, 50520, Note_on_c, 1, 73, 88
5, 50578, Note_off_c, 1, 73, 0
5, 50580, Note_on_c, 1, 72, 88
5, 50638, Note_off_c, 1, 72, 0
5, 50640, Note_on_c, 1, 73, 88
5, 50756, Note_off_c, 1, 73, 0
5, 50760, Note_on_c, 1, 66, 88
5, 51350, Note_off_c, 1, 66, 0
5, 51360, Note_on_c, 1, 68, 88
5, 51476, Note_off_c, 1, 68, 0
5, 51480, Note_on_c, 1, 66, 88
5, 51596, Note_off_c, 1, 66, 0
5, 51600, Note_on_c, 1, 65, 88
5, 51716, Note_off_c, 1, 65, 0
5, 51720, Note_on_c, 1, 63, 88
5, 51836, Note_off_c, 1, 63, 0
5, 51840, Note_on_c, 1, 63, 88
5, 51961, Note_off_c, 1, 63, 0
5, 51964, Note_on_c, 1, 65, 88
5, 52194, Note_off_c, 1, 65, 0
5, 52200, Note_on_c, 1, 66, 88
5, 52434, Note_off_c, 1, 66, 0
5, 52440, Note_on_c, 1, 64, 88
5, 52553, Note_off_c, 1, 64, 0
5, 52560, Note_on_c, 1, 64, 88
5, 52676, Note_off_c, 1, 64, 0
5, 52680, Note_on_c, 1, 63, 88
5, 52796, Note_off_c, 1, 63, 0
5, 52800, Note_on_c, 1, 61, 88
5, 52916, Note_off_c, 1, 61, 0
5, 52920, Note_on_c, 1, 60, 88
5, 53273, Note_off_c, 1, 60, 0
5, 54180, Note_on_c, 1, 63, 88
5, 54238, Note_off_c, 1, 63, 0
5, 54240, Note_on_c, 1, 66, 88
5, 54298, Note_off_c, 1, 66, 0
5, 54300, Note_on_c, 1, 70, 88
5, 54358, Note_off_c, 1, 70, 0
5, 54360, Note_on_c, 1, 75, 88
5, 54418, Note_off_c, 1, 75, 0
5, 54420, Note_on_c, 1, 73, 88
5, 54478, Note_off_c, 1, 73, 0
5, 54480, Note_on_c, 1, 75, 88
5, 54593, Note_off_c, 1, 75, 0
5, 54600, Note_on_c, 1, 75, 88
5, 54713, Note_off_c, 1, 75, 0
5, 54720, Note_on_c, 1, 75, 88
5, 54953, Note_off_c, 1, 75, 0
5, 54960, Note_on_c, 1, 75, 88
5, 55076, Note_off_c, 1, 75, 0
5, 55080, Note_on_c, 1, 75, 88
5, 55196, Note_off_c, 1, 75, 0
5, 55200, Note_on_c, 1, 76, 88
5, 55258, Note_off_c, 1, 76, 0
5, 55260, Note_on_c, 1, 75, 88
5, 55318, Note_off_c, 1, 75, 0
5, 55320, Note_on_c, 1, 73, 88
5, 55378, Note_off_c, 1, 73, 0
5, 55380, Note_on_c, 1, 72, 88
5, 55438, Note_off_c, 1, 72, 0
5, 55440, Note_on_c, 1, 73, 88
5, 55556, Note_off_c, 1, 73, 0
5, 55560, Note_on_c, 1, 75, 88
5, 55676, Note_off_c, 1, 75, 0
5, 55680, Note_on_c, 1, 76, 88
5, 55796, Note_off_c, 1, 76, 0
5, 55800, Note_on_c, 1, 70, 88
5, 55916, Note_off_c, 1, 70, 0
5, 55920, Note_on_c, 1, 71, 88
5, 56036, Note_off_c, 1, 71, 0
5, 56040, Note_on_c, 1, 73, 88
5, 56156, Note_off_c, 1, 73, 0
5, 56160, Note_on_c, 1, 67, 88
5, 56513, Note_off_c, 1, 67, 0
5, 56760, Note_on_c, 1, 63, 88
5, 56876, Note_off_c, 1, 63, 0
5, 56880, Note_on_c, 1, 68, 88
5, 57593, Note_off_c, 1, 68, 0
5, 57600, Note_on_c, 1, 61, 88
5, 57716, Note_off_c, 1, 61, 0
5, 58140, Note_on_c, 1, 69, 88
5, 58198, Note_off_c, 1, 69, 0
5, 58200, Note_on_c, 1, 68, 88
5, 58258, Note_off_c, 1, 68, 0
5, 58260, Note_on_c, 1, 66, 88
5, 58318, Note_off_c, 1, 66, 0
5, 58320, Note_on_c, 1, 68, 88
5, 59028, Note_off_c, 1, 68, 0
5, 59040, Note_on_c, 1, 66, 88
5, 59634, Note_off_c, 1, 66, 0
5, 59640, Note_on_c, 1, 68, 88
5, 59756, Note_off_c, 1, 68, 0
5, 59760, Note_on_c, 1, 64, 88
5, 60230, Note_off_c, 1, 64, 0
5, 60240, Note_on_c, 1, 63, 88
5, 60356, Note_off_c, 1, 63, 0
5, 60360, Note_on_c, 1, 64, 88
5, 60476, Note_off_c, 1, 64, 0
5, 60480, Note_on_c, 1, 64, 88
5, 60596, Note_off_c, 1, 64, 0
5, 60600, Note_on_c, 1, 63, 88
5, 61070, Note_off_c, 1, 63, 0
5, 61080, Note_on_c, 1, 64, 88
5, 61196, Note_off_c, 1, 64, 0
5, 61200, Note_on_c, 1, 66, 88
5, 61676, Note_off_c, 1, 66, 0
5, 61680, Note_on_c, 1, 69, 88
5, 61796, Note_off_c, 1, 69, 0
5, 61800, Note_on_c, 1, 68, 88
5, 61913, Note_off_c, 1, 68, 0
5, 61920, Note_on_c, 1, 68, 88
5, 62036, Note_off_c, 1, 68, 0
5, 62040, Note_on_c, 1, 69, 88
5, 62510, Note_off_c, 1, 69, 0
5, 62520, Note_on_c, 1, 66, 88
5, 62636, Note_off_c, 1, 66, 0
5, 62640, Note_on_c, 1, 68, 88
5, 62874, Note_off_c, 1, 68, 0
5, 62880, Note_on_c, 1, 69, 88
5, 62996, Note_off_c, 1, 69, 0
5, 63000, Note_on_c, 1, 71, 88
5, 63116, Note_off_c, 1, 71, 0
5, 63120, Note_on_c, 1, 69, 88
5, 63236, Note_off_c, 1, 69, 0
5, 63240, Note_on_c, 1, 68, 88
5, 63356, Note_off_c, 1, 68, 0
5, 63360, Note_on_c, 1, 70, 88
5, 63476, Note_off_c, 1, 70, 0
5, 63480, Note_on_c, 1, 73, 88
5, 63596, Note_off_c, 1, 73, 0
5, 63600, Note_on_c, 1, 72, 88
5, 63716, Note_off_c, 1, 72, 0
5, 63720, Note_on_c, 1, 73, 88
5, 63836, Note_off_c, 1, 73, 0
5, 63840, Note_on_c, 1, 72, 88
5, 63956, Note_off_c, 1, 72, 0
5, 63960, Note_on_c, 1, 70, 88
5, 64076, Note_off_c, 1, 70, 0
5, 64080, Note_on_c, 1, 72, 88
5, 64314, Note_off_c, 1, 72, 0
5, 64320, Note_on_c, 1, 73, 88
5, 64436, Note_off_c, 1, 73, 0
5, 64440, Note_on_c, 1, 75, 88
5, 64674, Note_off_c, 1, 75, 0
5, 64680, Note_on_c, 1, 72, 88
5, 64796, Note_off_c, 1, 72, 0
5, 64800, Note_on_c, 1, 73, 88
5, 65034, Note_off_c, 1, 73, 0
5, 65040, Note_on_c, 1, 69, 88
5, 65156, Note_off_c, 1, 69, 0
5, 65160, Note_on_c, 1, 64, 88
5, 65513, Note_off_c, 1, 64, 0
5, 65520, Note_on_c, 1, 63, 88
5, 65754, Note_off_c, 1, 63, 0
5, 65760, Note_on_c, 1, 64, 88
5, 65876, Note_off_c, 1, 64, 0
5, 65880, Note_on_c, 1, 64, 88
5, 65880, Note_on_c, 1, 68, 88
5, 66233, Note_off_c, 1, 64, 0
5, 66233, Note_off_c, 1, 68, 0
5, 66233, End_track
6, 0, Start_track
6, 0, Title_t, "Track 3"
6, 0, Program_c, 2, 6
6, 65520, Note_on_c, 2, 56, 88
6, 65873, Note_off_c, 2, 56, 0
6, 65880, Note_on_c, 2, 61, 88
6, 66233, Note_off_c, 2, 61, 0
6, 66233, End_track
7, 0, Start_track
7, 0, Title_t, "Track 4"
7, 0, Program_c, 3, 6
7, 0, Note_on_c, 3, 49, 88
7, 116, Note_off_c, 3, 49, 0
7, 120, Note_on_c, 3, 52, 88
7, 236, Note_off_c, 3, 52, 0
7, 240, Note_on_c, 3, 56, 88
7, 356, Note_off_c, 3, 56, 0
7, 360, Note_on_c, 3, 61, 88
7, 1196, Note_off_c, 3, 61, 0
7, 1200, Note_on_c, 3, 59, 88
7, 1316, Note_off_c, 3, 59, 0
7, 1320, Note_on_c, 3, 57, 88
7, 1436, Note_off_c, 3, 57, 0
7, 1440, Note_on_c, 3, 59, 88
7, 1971, Note_off_c, 3, 59, 0
7, 1980, Note_on_c, 3, 52, 88
7, 2038, Note_off_c, 3, 52, 0
7, 2040, Note_on_c, 3, 54, 88
7, 2098, Note_off_c, 3, 54, 0
7, 2100, Note_on_c, 3, 56, 88
7, 2158, Note_off_c, 3, 56, 0
7, 2160, Note_on_c, 3, 56, 88
7, 2276, Note_off_c, 3, 56, 0
7, 2280, Note_on_c, 3, 57, 88
7, 2692, Note_off_c, 3, 57, 0
7, 2700, Note_on_c, 3, 56, 88
7, 2758, Note_off_c, 3, 56, 0
7, 2760, Note_on_c, 3, 54, 88
7, 2818, Note_off_c, 3, 54, 0
7, 2820, Note_on_c, 3, 52, 88
7, 2878, Note_off_c, 3, 52, 0
7, 2880, Note_on_c, 3, 51, 88
7, 3114, Note_off_c, 3, 51, 0
7, 3120, Note_on_c, 3, 54, 88
7, 3236, Note_off_c, 3, 54, 0
7, 3240, Note_on_c, 3, 48, 88
7, 3474, Note_off_c, 3, 48, 0
7, 3480, Note_on_c, 3, 44, 88
7, 3596, Note_off_c, 3, 44, 0
7, 3600, Note_on_c, 3, 49, 88
7, 3953, Note_off_c, 3, 49, 0
7, 3960, Note_on_c, 3, 37, 88
7, 4313, Note_off_c, 3, 37, 0
7, 4320, Note_on_c, 3, 44, 88
7, 4436, Note_off_c, 3, 44, 0
7, 4440, Note_on_c, 3, 48, 88
7, 4556, Note_off_c, 3, 48, 0
7, 4560, Note_on_c, 3, 51, 88
7, 4676, Note_off_c, 3, 51, 0
7, 4680, Note_on_c, 3, 56, 88
7, 4855, Note_off_c, 3, 56, 0
7, 4860, Note_on_c, 3, 57, 88
7, 4918, Note_off_c, 3, 57, 0
7, 4920, Note_on_c, 3, 56, 88
7, 4978, Note_off_c, 3, 56, 0
7, 4980, Note_on_c, 3, 54, 88
7, 5038, Note_off_c, 3, 54, 0
7, 5040, Note_on_c, 3, 56, 88
7, 5073, Note_off_c, 3, 56, 0
7, 5074, Note_on_c, 3, 54, 88
7, 5114, Note_off_c, 3, 54, 0
7, 5115, Note_on_c, 3, 56, 88
7, 5273, Note_off_c, 3, 56, 0
7, 5280, Note_on_c, 3, 56, 88
7, 5396, Note_off_c, 3, 56, 0
7, 5400, Note_on_c, 3, 56, 88
7, 5575, Note_off_c, 3, 56, 0
7, 5580, Note_on_c, 3, 49, 88
7, 5638, Note_off_c, 3, 49, 0
7, 5640, Note_on_c, 3, 51, 88
7, 5698, Note_off_c, 3, 51, 0
7, 5700, Note_on_c, 3, 53, 88
7, 5758, Note_off_c, 3, 53, 0
7, 5760, Note_on_c, 3, 54, 88
7, 5793, Note_off_c, 3, 54, 0
7, 5794, Note_on_c, 3, 53, 88
7, 5834, Note_off_c, 3, 53, 0
7, 5835, Note_on_c, 3, 54, 88
7, 5937, Note_off_c, 3, 54, 0
7, 5940, Note_on_c, 3, 56, 88
7, 5998, Note_off_c, 3, 56, 0
7, 6000, Note_on_c, 3, 54, 88
7, 6058, Note_off_c, 3, 54, 0
7, 6060, Note_on_c, 3, 52, 88
7, 6118, Note_off_c, 3, 52, 0
7, 6120, Note_on_c, 3, 54, 88
7, 6353, Note_off_c, 3, 54, 0
7, 6360, Note_on_c, 3, 54, 88
7, 6476, Note_off_c, 3, 54, 0
7, 6480, Note_on_c, 3, 54, 88
7, 6596, Note_off_c, 3, 54, 0
7, 6600, Note_on_c, 3, 56, 88
7, 6658, Note_off_c, 3, 56, 0
7, 6660, Note_on_c, 3, 54, 88
7, 6718, Note_off_c, 3, 54, 0
7, 6720, Note_on_c, 3, 52, 88
7, 6778, Note_off_c, 3, 52, 0
7, 6780, Note_on_c, 3, 51, 88
7, 6838, Note_off_c, 3, 51, 0
7, 6840, Note_on_c, 3, 52, 88
7, 7310, Note_off_c, 3, 52, 0
7, 7320, Note_on_c, 3, 51, 88
7, 7436, Note_off_c, 3, 51, 0
7, 7440, Note_on_c, 3, 49, 88
7, 7556, Note_off_c, 3, 49, 0
7, 7560, Note_on_c, 3, 54, 88
7, 7676, Note_off_c, 3, 54, 0
7, 7680, Note_on_c, 3, 52, 88
7, 7796, Note_off_c, 3, 52, 0
7, 7800, Note_on_c, 3, 51, 88
7, 7916, Note_off_c, 3, 51, 0
7, 7920, Note_on_c, 3, 56, 88
7, 8154, Note_off_c, 3, 56, 0
7, 8160, Note_on_c, 3, 54, 88
7, 8273, Note_off_c, 3, 54, 0
7, 8280, Note_on_c, 3, 54, 88
7, 8396, Note_off_c, 3, 54, 0
7, 8400, Note_on_c, 3, 53, 88
7, 8453, Note_off_c, 3, 53, 0
7, 8460, Note_on_c, 3, 53, 88
7, 8518, Note_off_c, 3, 53, 0
7, 8520, Note_on_c, 3, 54, 88
7, 8578, Note_off_c, 3, 54, 0
7, 8580, Note_on_c, 3, 56, 88
7, 8638, Note_off_c, 3, 56, 0
7, 8640, Note_on_c, 3, 57, 88
7, 8756, Note_off_c, 3, 57, 0
7, 8760, Note_on_c, 3, 59, 88
7, 8876, Note_off_c, 3, 59, 0
7, 8880, Note_on_c, 3, 56, 88
7, 8996, Note_off_c, 3, 56, 0
7, 9000, Note_on_c, 3, 54, 88
7, 9116, Note_off_c, 3, 54, 0
7, 9120, Note_on_c, 3, 56, 88
7, 9236, Note_off_c, 3, 56, 0
7, 9240, Note_on_c, 3, 52, 88
7, 9356, Note_off_c, 3, 52, 0
7, 9360, Note_on_c, 3, 51, 88
7, 9476, Note_off_c, 3, 51, 0
7, 9480, Note_on_c, 3, 52, 88
7, 9596, Note_off_c, 3, 52, 0
7, 9600, Note_on_c, 3, 49, 88
7, 9716, Note_off_c, 3, 49, 0
7, 9720, Note_on_c, 3, 48, 88
7, 9836, Note_off_c, 3, 48, 0
7, 9840, Note_on_c, 3, 46, 88
7, 9956, Note_off_c, 3, 46, 0
7, 9960, Note_on_c, 3, 44, 88
7, 10076, Note_off_c, 3, 44, 0
7, 10080, Note_on_c, 3, 49, 88
7, 10196, Note_off_c, 3, 49, 0
7, 10200, Note_on_c, 3, 51, 88
7, 10316, Note_off_c, 3, 51, 0
7, 10320, Note_on_c, 3, 47, 88
7, 10436, Note_off_c, 3, 47, 0
7, 10440, Note_on_c, 3, 46, 88
7, 10556, Note_off_c, 3, 46, 0
7, 10560, Note_on_c, 3, 47, 88
7, 10676, Note_off_c, 3, 47, 0
7, 10680, Note_on_c, 3, 44, 88
7, 10796, Note_off_c, 3, 44, 0
7, 10800, Note_on_c, 3, 43, 88
7, 10916, Note_off_c, 3, 43, 0
7, 10920, Note_on_c, 3, 41, 88
7, 11036, Note_off_c, 3, 41, 0
7, 11040, Note_on_c, 3, 39, 88
7, 11156, Note_off_c, 3, 39, 0
7, 11160, Note_on_c, 3, 44, 88
7, 11276, Note_off_c, 3, 44, 0
7, 11280, Note_on_c, 3, 47, 88
7, 11396, Note_off_c, 3, 47, 0
7, 11400, Note_on_c, 3, 46, 88
7, 11516, Note_off_c, 3, 46, 0
7, 11520, Note_on_c, 3, 47, 88
7, 11636, Note_off_c, 3, 47, 0
7, 11640, Note_on_c, 3, 49, 88
7, 11756, Note_off_c, 3, 49, 0
7, 11760, Note_on_c, 3, 51, 88
7, 11876, Note_off_c, 3, 51, 0
7, 11880, Note_on_c, 3, 52, 88
7, 11996, Note_off_c, 3, 52, 0
7, 12000, Note_on_c, 3, 54, 88
7, 12116, Note_off_c, 3, 54, 0
7, 12120, Note_on_c, 3, 51, 88
7, 12236, Note_off_c, 3, 51, 0
7, 12240, Note_on_c, 3, 49, 88
7, 12356, Note_off_c, 3, 49, 0
7, 12360, Note_on_c, 3, 51, 88
7, 12476, Note_off_c, 3, 51, 0
7, 12480, Note_on_c, 3, 47, 88
7, 12596, Note_off_c, 3, 47, 0
7, 12600, Note_on_c, 3, 46, 88
7, 12658, Note_off_c, 3, 46, 0
7, 12660, Note_on_c, 3, 47, 88
7, 12718, Note_off_c, 3, 47, 0
7, 12720, Note_on_c, 3, 49, 88
7, 12836, Note_off_c, 3, 49, 0
7, 12840, Note_on_c, 3, 46, 88
7, 12956, Note_off_c, 3, 46, 0
7, 12960, Note_on_c, 3, 39, 88
7, 13550, Note_off_c, 3, 39, 0
7, 13560, Note_on_c, 3, 55, 88
7, 13673, Note_off_c, 3, 55, 0
7, 13680, Note_on_c, 3, 55, 88
7, 13801, Note_off_c, 3, 55, 0
7, 13804, Note_on_c, 3, 56, 88
7, 14034, Note_off_c, 3, 56, 0
7, 14040, Note_on_c, 3, 56, 88
7, 14156, Note_off_c, 3, 56, 0
7, 14160, Note_on_c, 3, 54, 88
7, 14276, Note_off_c, 3, 54, 0
7, 14280, Note_on_c, 3, 52, 88
7, 14396, Note_off_c, 3, 52, 0
7, 14400, Note_on_c, 3, 51, 88
7, 14634, Note_off_c, 3, 51, 0
7, 14640, Note_on_c, 3, 56, 88
7, 14756, Note_off_c, 3, 56, 0
7, 14760, Note_on_c, 3, 51, 88
7, 14789, Note_off_c, 3, 51, 0
7, 14790, Note_on_c, 3, 49, 88
7, 14819, Note_off_c, 3, 49, 0
7, 14820, Note_on_c, 3, 51, 88
7, 14849, Note_off_c, 3, 51, 0
7, 14850, Note_on_c, 3, 49, 88
7, 14879, Note_off_c, 3, 49, 0
7, 14880, Note_on_c, 3, 51, 88
7, 14909, Note_off_c, 3, 51, 0
7, 14910, Note_on_c, 3, 49, 88
7, 14939, Note_off_c, 3, 49, 0
7, 14940, Note_on_c, 3, 51, 88
7, 14969, Note_off_c, 3, 51, 0
7, 14970, Note_on_c, 3, 49, 88
7, 14999, Note_off_c, 3, 49, 0
7, 15000, Note_on_c, 3, 51, 88
7, 15029, Note_off_c, 3, 51, 0
7, 15030, Note_on_c, 3, 49, 88
7, 15059, Note_off_c, 3, 49, 0
7, 15060, Note_on_c, 3, 48, 88
7, 15089, Note_off_c, 3, 48, 0
7, 15090, Note_on_c, 3, 49, 88
7, 15119, Note_off_c, 3, 49, 0
7, 15120, Note_on_c, 3, 51, 88
7, 15149, Note_off_c, 3, 51, 0
7, 15150, Note_on_c, 3, 50, 88
7, 15179, Note_off_c, 3, 50, 0
7, 15180, Note_on_c, 3, 51, 88
7, 15209, Note_off_c, 3, 51, 0
7, 15210, Note_on_c, 3, 50, 88
7, 15239, Note_off_c, 3, 50, 0
7, 15240, Note_on_c, 3, 51, 88
7, 15269, Note_off_c, 3, 51, 0
7, 15270, Note_on_c, 3, 50, 88
7, 15299, Note_off_c, 3, 50, 0
7, 15300, Note_on_c, 3, 51, 88
7, 15329, Note_off_c, 3, 51, 0
7, 15330, Note_on_c, 3, 50, 88
7, 15359, Note_off_c, 3, 50, 0
7, 15360, Note_on_c, 3, 51, 88
7, 15389, Note_off_c, 3, 51, 0
7, 15390, Note_on_c, 3, 50, 88
7, 15419, Note_off_c, 3, 50, 0
7, 15420, Note_on_c, 3, 48, 88
7, 15449, Note_off_c, 3, 48, 0
7, 15450, Note_on_c, 3, 50, 88
7, 15479, Note_off_c, 3, 50, 0
7, 15480, Note_on_c, 3, 51, 88
7, 16070, Note_off_c, 3, 51, 0
7, 16080, Note_on_c, 3, 63, 88
7, 16196, Note_off_c, 3, 63, 0
7, 16200, Note_on_c, 3, 64, 88
7, 16316, Note_off_c, 3, 64, 0
7, 16320, Note_on_c, 3, 63, 88
7, 16436, Note_off_c, 3, 63, 0
7, 16440, Note_on_c, 3, 61, 88
7, 16556, Note_off_c, 3, 61, 0
7, 16560, Note_on_c, 3, 63, 88
7, 16913, Note_off_c, 3, 63, 0
7, 16920, Note_on_c, 3, 51, 88
7, 17273, Note_off_c, 3, 51, 0
7, 17280, Note_on_c, 3, 44, 88
7, 17396, Note_off_c, 3, 44, 0
7, 17400, Note_on_c, 3, 47, 88
7, 17516, Note_off_c, 3, 47, 0
7, 17520, Note_on_c, 3, 51, 88
7, 17636, Note_off_c, 3, 51, 0
7, 17640, Note_on_c, 3, 56, 88
7, 18535, Note_off_c, 3, 56, 0
7, 18540, Note_on_c, 3, 49, 88
7, 18598, Note_off_c, 3, 49, 0
7, 18600, Note_on_c, 3, 51, 88
7, 18658, Note_off_c, 3, 51, 0
7, 18660, Note_on_c, 3, 52, 88
7, 18718, Note_off_c, 3, 52, 0
7, 18720, Note_on_c, 3, 54, 88
7, 18954, Note_off_c, 3, 54, 0
7, 18960, Note_on_c, 3, 42, 88
7, 19076, Note_off_c, 3, 42, 0
7, 19080, Note_on_c, 3, 54, 88
7, 19131, Note_off_c, 3, 54, 0
7, 19133, Note_on_c, 3, 52, 88
7, 19187, Note_off_c, 3, 52, 0
7, 19189, Note_on_c, 3, 54, 88
7, 19435, Note_off_c, 3, 54, 0
7, 19440, Note_on_c, 3, 54, 88
7, 19793, Note_off_c, 3, 54, 0
7, 19800, Note_on_c, 3, 54, 88
7, 19829, Note_off_c, 3, 54, 0
7, 19830, Note_on_c, 3, 52, 88
7, 19859, Note_off_c, 3, 52, 0
7, 19860, Note_on_c, 3, 54, 88
7, 19889, Note_off_c, 3, 54, 0
7, 19890, Note_on_c, 3, 52, 88
7, 19919, Note_off_c, 3, 52, 0
7, 19920, Note_on_c, 3, 54, 88
7, 19949, Note_off_c, 3, 54, 0
7, 19950, Note_on_c, 3, 52, 88
7, 19979, Note_off_c, 3, 52, 0
7, 19980, Note_on_c, 3, 54, 88
7, 20009, Note_off_c, 3, 54, 0
7, 20010, Note_on_c, 3, 52, 88
7, 20039, Note_off_c, 3, 52, 0
7, 20040, Note_on_c, 3, 54, 88
7, 20069, Note_off_c, 3, 54, 0
7, 20070, Note_on_c, 3, 52, 88
7, 20099, Note_off_c, 3, 52, 0
7, 20100, Note_on_c, 3, 51, 88
7, 20129, Note_off_c, 3, 51, 0
7, 20130, Note_on_c, 3, 52, 88
7, 20159, Note_off_c, 3, 52, 0
7, 20160, Note_on_c, 3, 56, 88
7, 20189, Note_off_c, 3, 56, 0
7, 20190, Note_on_c, 3, 54, 88
7, 20219, Note_off_c, 3, 54, 0
7, 20220, Note_on_c, 3, 56, 88
7, 20249, Note_off_c, 3, 56, 0
7, 20250, Note_on_c, 3, 54, 88
7, 20279, Note_off_c, 3, 54, 0
7, 20280, Note_on_c, 3, 56, 88
7, 20309, Note_off_c, 3, 56, 0
7, 20310, Note_on_c, 3, 54, 88
7, 20339, Note_off_c, 3, 54, 0
7, 20340, Note_on_c, 3, 56, 88
7, 20369, Note_off_c, 3, 56, 0
7, 20370, Note_on_c, 3, 54, 88
7, 20399, Note_off_c, 3, 54, 0
7, 20400, Note_on_c, 3, 56, 88
7, 20429, Note_off_c, 3, 56, 0
7, 20430, Note_on_c, 3, 54, 88
7, 20459, Note_off_c, 3, 54, 0
7, 20460, Note_on_c, 3, 52, 88
7, 20489, Note_off_c, 3, 52, 0
7, 20490, Note_on_c, 3, 54, 88
7, 20519, Note_off_c, 3, 54, 0
7, 20520, Note_on_c, 3, 56, 88
7, 20754, Note_off_c, 3, 56, 0
7, 20760, Note_on_c, 3, 57, 88
7, 20876, Note_off_c, 3, 57, 0
7, 20880, Note_on_c, 3, 56, 88
7, 21114, Note_off_c, 3, 56, 0
7, 21120, Note_on_c, 3, 54, 88
7, 21236, Note_off_c, 3, 54, 0
7, 21240, Note_on_c, 3, 53, 88
7, 21356, Note_off_c, 3, 53, 0
7, 21360, Note_on_c, 3, 54, 88
7, 21476, Note_off_c, 3, 54, 0
7, 21480, Note_on_c, 3, 56, 88
7, 21596, Note_off_c, 3, 56, 0
7, 21600, Note_on_c, 3, 49, 88
7, 21953, Note_off_c, 3, 49, 0
7, 22200, Note_on_c, 3, 61, 88
7, 22313, Note_off_c, 3, 61, 0
7, 22320, Note_on_c, 3, 61, 88
7, 22436, Note_off_c, 3, 61, 0
7, 22440, Note_on_c, 3, 62, 88
7, 22556, Note_off_c, 3, 62, 0
7, 22560, Note_on_c, 3, 59, 88
7, 22676, Note_off_c, 3, 59, 0
7, 22680, Note_on_c, 3, 57, 88
7, 22796, Note_off_c, 3, 57, 0
7, 22800, Note_on_c, 3, 56, 88
7, 23212, Note_off_c, 3, 56, 0
7, 23220, Note_on_c, 3, 59, 88
7, 23278, Note_off_c, 3, 59, 0
7, 23280, Note_on_c, 3, 58, 88
7, 23338, Note_off_c, 3, 58, 0
7, 23340, Note_on_c, 3, 56, 88
7, 23398, Note_off_c, 3, 56, 0
7, 23400, Note_on_c, 3, 61, 88
7, 23516, Note_off_c, 3, 61, 0
7, 23520, Note_on_c, 3, 64, 88
7, 23578, Note_off_c, 3, 64, 0
7, 23580, Note_on_c, 3, 63, 88
7, 23638, Note_off_c, 3, 63, 0
7, 23640, Note_on_c, 3, 64, 88
7, 23756, Note_off_c, 3, 64, 0
7, 23760, Note_on_c, 3, 59, 88
7, 23789, Note_off_c, 3, 59, 0
7, 23790, Note_on_c, 3, 58, 88
7, 23819, Note_off_c, 3, 58, 0
7, 23820, Note_on_c, 3, 59, 88
7, 23849, Note_off_c, 3, 59, 0
7, 23850, Note_on_c, 3, 58, 88
7, 23879, Note_off_c, 3, 58, 0
7, 23880, Note_on_c, 3, 56, 88
7, 23996, Note_off_c, 3, 56, 0
7, 24000, Note_on_c, 3, 54, 88
7, 24116, Note_off_c, 3, 54, 0
7, 24120, Note_on_c, 3, 59, 88
7, 24354, Note_off_c, 3, 59, 0
7, 24360, Note_on_c, 3, 47, 88
7, 24476, Note_off_c, 3, 47, 0
7, 24480, Note_on_c, 3, 59, 88
7, 24516, Note_off_c, 3, 59, 0
7, 24518, Note_on_c, 3, 57, 88
7, 24561, Note_off_c, 3, 57, 0
7, 24563, Note_on_c, 3, 59, 88
7, 24834, Note_off_c, 3, 59, 0
7, 24840, Note_on_c, 3, 59, 88
7, 24956, Note_off_c, 3, 59, 0
7, 24960, Note_on_c, 3, 61, 88
7, 25018, Note_off_c, 3, 61, 0
7, 25020, Note_on_c, 3, 59, 88
7, 25078, Note_off_c, 3, 59, 0
7, 25080, Note_on_c, 3, 57, 88
7, 25138, Note_off_c, 3, 57, 0
7, 25140, Note_on_c, 3, 56, 88
7, 25198, Note_off_c, 3, 56, 0
7, 25200, Note_on_c, 3, 57, 88
7, 25434, Note_off_c, 3, 57, 0
7, 25440, Note_on_c, 3, 45, 88
7, 25556, Note_off_c, 3, 45, 0
7, 25560, Note_on_c, 3, 57, 88
7, 25596, Note_off_c, 3, 57, 0
7, 25598, Note_on_c, 3, 56, 88
7, 25641, Note_off_c, 3, 56, 0
7, 25643, Note_on_c, 3, 57, 88
7, 25914, Note_off_c, 3, 57, 0
7, 25920, Note_on_c, 3, 57, 88
7, 26036, Note_off_c, 3, 57, 0
7, 26040, Note_on_c, 3, 59, 88
7, 26098, Note_off_c, 3, 59, 0
7, 26100, Note_on_c, 3, 57, 88
7, 26158, Note_off_c, 3, 57, 0
7, 26160, Note_on_c, 3, 56, 88
7, 26218, Note_off_c, 3, 56, 0
7, 26220, Note_on_c, 3, 54, 88
7, 26278, Note_off_c, 3, 54, 0
7, 26280, Note_on_c, 3, 56, 88
7, 26514, Note_off_c, 3, 56, 0
7, 26520, Note_on_c, 3, 61, 88
7, 26636, Note_off_c, 3, 61, 0
7, 26640, Note_on_c, 3, 59, 88
7, 26756, Note_off_c, 3, 59, 0
7, 26760, Note_on_c, 3, 57, 88
7, 26876, Note_off_c, 3, 57, 0
7, 26880, Note_on_c, 3, 56, 88
7, 26996, Note_off_c, 3, 56, 0
7, 27000, Note_on_c, 3, 54, 88
7, 27116, Note_off_c, 3, 54, 0
7, 27120, Note_on_c, 3, 56, 88
7, 27236, Note_off_c, 3, 56, 0
7, 27240, Note_on_c, 3, 57, 88
7, 27356, Note_off_c, 3, 57, 0
7, 27360, Note_on_c, 3, 59, 88
7, 27396, Note_off_c, 3, 59, 0
7, 27398, Note_on_c, 3, 57, 88
7, 27441, Note_off_c, 3, 57, 0
7, 27443, Note_on_c, 3, 59, 88
7, 27714, Note_off_c, 3, 59, 0
7, 27720, Note_on_c, 3, 47, 88
7, 28073, Note_off_c, 3, 47, 0
7, 28080, Note_on_c, 3, 52, 88
7, 28550, Note_off_c, 3, 52, 0
7, 28560, Note_on_c, 3, 56, 88
7, 28618, Note_off_c, 3, 56, 0
7, 28620, Note_on_c, 3, 54, 88
7, 28678, Note_off_c, 3, 54, 0
7, 28680, Note_on_c, 3, 52, 88
7, 28738, Note_off_c, 3, 52, 0
7, 28740, Note_on_c, 3, 51, 88
7, 28798, Note_off_c, 3, 51, 0
7, 28800, Note_on_c, 3, 49, 88
7, 28916, Note_off_c, 3, 49, 0
7, 28920, Note_on_c, 3, 59, 88
7, 29036, Note_off_c, 3, 59, 0
7, 29040, Note_on_c, 3, 58, 88
7, 29156, Note_off_c, 3, 58, 0
7, 29160, Note_on_c, 3, 59, 88
7, 29691, Note_off_c, 3, 59, 0
7, 29700, Note_on_c, 3, 57, 88
7, 29758, Note_off_c, 3, 57, 0
7, 29760, Note_on_c, 3, 56, 88
7, 29818, Note_off_c, 3, 56, 0
7, 29820, Note_on_c, 3, 54, 88
7, 29878, Note_off_c, 3, 54, 0
7, 29880, Note_on_c, 3, 56, 88
7, 30114, Note_off_c, 3, 56, 0
7, 30120, Note_on_c, 3, 61, 88
7, 30236, Note_off_c, 3, 61, 0
7, 30240, Note_on_c, 3, 54, 88
7, 30356, Note_off_c, 3, 54, 0
7, 30360, Note_on_c, 3, 57, 88
7, 30476, Note_off_c, 3, 57, 0
7, 30480, Note_on_c, 3, 61, 88
7, 30596, Note_off_c, 3, 61, 0
7, 30600, Note_on_c, 3, 66, 88
7, 30658, Note_off_c, 3, 66, 0
7, 30660, Note_on_c, 3, 65, 88
7, 30718, Note_off_c, 3, 65, 0
7, 30720, Note_on_c, 3, 66, 88
7, 30833, Note_off_c, 3, 66, 0
7, 30840, Note_on_c, 3, 66, 88
7, 30953, Note_off_c, 3, 66, 0
7, 30960, Note_on_c, 3, 66, 88
7, 30993, Note_off_c, 3, 66, 0
7, 30994, Note_on_c, 3, 65, 88
7, 31034, Note_off_c, 3, 65, 0
7, 31035, Note_on_c, 3, 66, 88
7, 31193, Note_off_c, 3, 66, 0
7, 31200, Note_on_c, 3, 66, 88
7, 31316, Note_off_c, 3, 66, 0
7, 31320, Note_on_c, 3, 66, 88
7, 31436, Note_off_c, 3, 66, 0
7, 31440, Note_on_c, 3, 68, 88
7, 31498, Note_off_c, 3, 68, 0
7, 31500, Note_on_c, 3, 66, 88
7, 31558, Note_off_c, 3, 66, 0
7, 31560, Note_on_c, 3, 64, 88
7, 31618, Note_off_c, 3, 64, 0
7, 31620, Note_on_c, 3, 63, 88
7, 31678, Note_off_c, 3, 63, 0
7, 31680, Note_on_c, 3, 64, 88
7, 31793, Note_off_c, 3, 64, 0
7, 31800, Note_on_c, 3, 64, 88
7, 31858, Note_off_c, 3, 64, 0
7, 31860, Note_on_c, 3, 63, 88
7, 31918, Note_off_c, 3, 63, 0
7, 31920, Note_on_c, 3, 64, 88
7, 32033, Note_off_c, 3, 64, 0
7, 32040, Note_on_c, 3, 64, 88
7, 32073, Note_off_c, 3, 64, 0
7, 32074, Note_on_c, 3, 63, 88
7, 32114, Note_off_c, 3, 63, 0
7, 32115, Note_on_c, 3, 64, 88
7, 32273, Note_off_c, 3, 64, 0
7, 32280, Note_on_c, 3, 64, 88
7, 32396, Note_off_c, 3, 64, 0
7, 32400, Note_on_c, 3, 64, 88
7, 32516, Note_off_c, 3, 64, 0
7, 32520, Note_on_c, 3, 66, 88
7, 32578, Note_off_c, 3, 66, 0
7, 32580, Note_on_c, 3, 64, 88
7, 32638, Note_off_c, 3, 64, 0
7, 32640, Note_on_c, 3, 62, 88
7, 32698, Note_off_c, 3, 62, 0
7, 32700, Note_on_c, 3, 61, 88
7, 32758, Note_off_c, 3, 61, 0
7, 32760, Note_on_c, 3, 62, 88
7, 32818, Note_off_c, 3, 62, 0
7, 32820, Note_on_c, 3, 61, 88
7, 32878, Note_off_c, 3, 61, 0
7, 32880, Note_on_c, 3, 62, 88
7, 32993, Note_off_c, 3, 62, 0
7, 33000, Note_on_c, 3, 62, 88
7, 33113, Note_off_c, 3, 62, 0
7, 33120, Note_on_c, 3, 62, 88
7, 33353, Note_off_c, 3, 62, 0
7, 33360, Note_on_c, 3, 62, 88
7, 33476, Note_off_c, 3, 62, 0
7, 33480, Note_on_c, 3, 61, 88
7, 33714, Note_off_c, 3, 61, 0
7, 33720, Note_on_c, 3, 59, 88
7, 33836, Note_off_c, 3, 59, 0
7, 33840, Note_on_c, 3, 61, 88
7, 34193, Note_off_c, 3, 61, 0
7, 34200, Note_on_c, 3, 49, 88
7, 34553, Note_off_c, 3, 49, 0
7, 34560, Note_on_c, 3, 42, 88
7, 34676, Note_off_c, 3, 42, 0
7, 34680, Note_on_c, 3, 45, 88
7, 34796, Note_off_c, 3, 45, 0
7, 34800, Note_on_c, 3, 49, 88
7, 34916, Note_off_c, 3, 49, 0
7, 34920, Note_on_c, 3, 54, 88
7, 35756, Note_off_c, 3, 54, 0
7, 35760, Note_on_c, 3, 52, 88
7, 35876, Note_off_c, 3, 52, 0
7, 35880, Note_on_c, 3, 50, 88
7, 35993, Note_off_c, 3, 50, 0
7, 36000, Note_on_c, 3, 50, 88
7, 36116, Note_off_c, 3, 50, 0
7, 36120, Note_on_c, 3, 52, 88
7, 36532, Note_off_c, 3, 52, 0
7, 36540, Note_on_c, 3, 45, 88
7, 36598, Note_off_c, 3, 45, 0
7, 36600, Note_on_c, 3, 47, 88
7, 36658, Note_off_c, 3, 47, 0
7, 36660, Note_on_c, 3, 49, 88
7, 36718, Note_off_c, 3, 49, 0
7, 36720, Note_on_c, 3, 50, 88
7, 37251, Note_off_c, 3, 50, 0
7, 37260, Note_on_c, 3, 49, 88
7, 37318, Note_off_c, 3, 49, 0
7, 37320, Note_on_c, 3, 47, 88
7, 37378, Note_off_c, 3, 47, 0
7, 37380, Note_on_c, 3, 45, 88
7, 37438, Note_off_c, 3, 45, 0
7, 37440, Note_on_c, 3, 44, 88
7, 37674, Note_off_c, 3, 44, 0
7, 37680, Note_on_c, 3, 47, 88
7, 37796, Note_off_c, 3, 47, 0
7, 37800, Note_on_c, 3, 41, 88
7, 38034, Note_off_c, 3, 41, 0
7, 38040, Note_on_c, 3, 37, 88
7, 38156, Note_off_c, 3, 37, 0
7, 38160, Note_on_c, 3, 42, 88
7, 38335, Note_off_c, 3, 42, 0
7, 38340, Note_on_c, 3, 49, 88
7, 38398, Note_off_c, 3, 49, 0
7, 38400, Note_on_c, 3, 51, 88
7, 38458, Note_off_c, 3, 51, 0
7, 38460, Note_on_c, 3, 52, 88
7, 38518, Note_off_c, 3, 52, 0
7, 38520, Note_on_c, 3, 54, 88
7, 38753, Note_off_c, 3, 54, 0
7, 38760, Note_on_c, 3, 54, 88
7, 38876, Note_off_c, 3, 54, 0
7, 38880, Note_on_c, 3, 54, 88
7, 38996, Note_off_c, 3, 54, 0
7, 39000, Note_on_c, 3, 56, 88
7, 39058, Note_off_c, 3, 56, 0
7, 39060, Note_on_c, 3, 54, 88
7, 39118, Note_off_c, 3, 54, 0
7, 39120, Note_on_c, 3, 52, 88
7, 39178, Note_off_c, 3, 52, 0
7, 39180, Note_on_c, 3, 51, 88
7, 39238, Note_off_c, 3, 51, 0
7, 39240, Note_on_c, 3, 52, 88
7, 39356, Note_off_c, 3, 52, 0
7, 39360, Note_on_c, 3, 54, 88
7, 39418, Note_off_c, 3, 54, 0
7, 39420, Note_on_c, 3, 52, 88
7, 39478, Note_off_c, 3, 52, 0
7, 39480, Note_on_c, 3, 51, 88
7, 39538, Note_off_c, 3, 51, 0
7, 39540, Note_on_c, 3, 49, 88
7, 39598, Note_off_c, 3, 49, 0
7, 39600, Note_on_c, 3, 54, 88
7, 39716, Note_off_c, 3, 54, 0
7, 39720, Note_on_c, 3, 57, 88
7, 39778, Note_off_c, 3, 57, 0
7, 39780, Note_on_c, 3, 56, 88
7, 39838, Note_off_c, 3, 56, 0
7, 39840, Note_on_c, 3, 57, 88
7, 39956, Note_off_c, 3, 57, 0
7, 39960, Note_on_c, 3, 51, 88
7, 40076, Note_off_c, 3, 51, 0
7, 40080, Note_on_c, 3, 52, 88
7, 40196, Note_off_c, 3, 52, 0
7, 40200, Note_on_c, 3, 54, 88
7, 40316, Note_off_c, 3, 54, 0
7, 40320, Note_on_c, 3, 56, 88
7, 40554, Note_off_c, 3, 56, 0
7, 40560, Note_on_c, 3, 51, 88
7, 40676, Note_off_c, 3, 51, 0
7, 40680, Note_on_c, 3, 48, 88
7, 40914, Note_off_c, 3, 48, 0
7, 40920, Note_on_c, 3, 44, 88
7, 41036, Note_off_c, 3, 44, 0
7, 41040, Note_on_c, 3, 49, 88
7, 41215, Note_off_c, 3, 49, 0
7, 41220, Note_on_c, 3, 56, 88
7, 41278, Note_off_c, 3, 56, 0
7, 41280, Note_on_c, 3, 58, 88
7, 41338, Note_off_c, 3, 58, 0
7, 41340, Note_on_c, 3, 60, 88
7, 41398, Note_off_c, 3, 60, 0
7, 41400, Note_on_c, 3, 61, 88
7, 41516, Note_off_c, 3, 61, 0
7, 41520, Note_on_c, 3, 63, 88
7, 41636, Note_off_c, 3, 63, 0
7, 41640, Note_on_c, 3, 59, 88
7, 41756, Note_off_c, 3, 59, 0
7, 41760, Note_on_c, 3, 57, 88
7, 41876, Note_off_c, 3, 57, 0
7, 41880, Note_on_c, 3, 59, 88
7, 41996, Note_off_c, 3, 59, 0
7, 42000, Note_on_c, 3, 56, 88
7, 42116, Note_off_c, 3, 56, 0
7, 42120, Note_on_c, 3, 54, 88
7, 42295, Note_off_c, 3, 54, 0
7, 42300, Note_on_c, 3, 51, 88
7, 42358, Note_off_c, 3, 51, 0
7, 42360, Note_on_c, 3, 52, 88
7, 42418, Note_off_c, 3, 52, 0
7, 42420, Note_on_c, 3, 54, 88
7, 42478, Note_off_c, 3, 54, 0
7, 42480, Note_on_c, 3, 56, 88
7, 42596, Note_off_c, 3, 56, 0
7, 42600, Note_on_c, 3, 57, 88
7, 42716, Note_off_c, 3, 57, 0
7, 42720, Note_on_c, 3, 54, 88
7, 42833, Note_off_c, 3, 54, 0
7, 42840, Note_on_c, 3, 54, 88
7, 42869, Note_off_c, 3, 54, 0
7, 42870, Note_on_c, 3, 53, 88
7, 42899, Note_off_c, 3, 53, 0
7, 42900, Note_on_c, 3, 54, 88
7, 42929, Note_off_c, 3, 54, 0
7, 42930, Note_on_c, 3, 53, 88
7, 42959, Note_off_c, 3, 53, 0
7, 42960, Note_on_c, 3, 54, 88
7, 42989, Note_off_c, 3, 54, 0
7, 42990, Note_on_c, 3, 53, 88
7, 43019, Note_off_c, 3, 53, 0
7, 43020, Note_on_c, 3, 54, 88
7, 43049, Note_off_c, 3, 54, 0
7, 43050, Note_on_c, 3, 53, 88
7, 43079, Note_off_c, 3, 53, 0
7, 43080, Note_on_c, 3, 54, 88
7, 43109, Note_off_c, 3, 54, 0
7, 43110, Note_on_c, 3, 53, 88
7, 43139, Note_off_c, 3, 53, 0
7, 43140, Note_on_c, 3, 51, 88
7, 43169, Note_off_c, 3, 51, 0
7, 43170, Note_on_c, 3, 53, 88
7, 43199, Note_off_c, 3, 53, 0
7, 43200, Note_on_c, 3, 54, 88
7, 43790, Note_off_c, 3, 54, 0
7, 43800, Note_on_c, 3, 52, 88
7, 43916, Note_off_c, 3, 52, 0
7, 43920, Note_on_c, 3, 51, 88
7, 44036, Note_off_c, 3, 51, 0
7, 44040, Note_on_c, 3, 52, 88
7, 44156, Note_off_c, 3, 52, 0
7, 44160, Note_on_c, 3, 49, 88
7, 44276, Note_off_c, 3, 49, 0
7, 44280, Note_on_c, 3, 48, 88
7, 44514, Note_off_c, 3, 48, 0
7, 44520, Note_on_c, 3, 44, 88
7, 44636, Note_off_c, 3, 44, 0
7, 44640, Note_on_c, 3, 49, 88
7, 44993, Note_off_c, 3, 49, 0
7, 45000, Note_on_c, 3, 37, 88
7, 45353, Note_off_c, 3, 37, 0
7, 45360, Note_on_c, 3, 44, 88
7, 45476, Note_off_c, 3, 44, 0
7, 45480, Note_on_c, 3, 48, 88
7, 45596, Note_off_c, 3, 48, 0
7, 45600, Note_on_c, 3, 51, 88
7, 45716, Note_off_c, 3, 51, 0
7, 45720, Note_on_c, 3, 56, 88
7, 45895, Note_off_c, 3, 56, 0
7, 45900, Note_on_c, 3, 57, 88
7, 45958, Note_off_c, 3, 57, 0
7, 45960, Note_on_c, 3, 56, 88
7, 46018, Note_off_c, 3, 56, 0
7, 46020, Note_on_c, 3, 54, 88
7, 46078, Note_off_c, 3, 54, 0
7, 46080, Note_on_c, 3, 56, 88
7, 46113, Note_off_c, 3, 56, 0
7, 46114, Note_on_c, 3, 54, 88
7, 46154, Note_off_c, 3, 54, 0
7, 46155, Note_on_c, 3, 56, 88
7, 46313, Note_off_c, 3, 56, 0
7, 46320, Note_on_c, 3, 56, 88
7, 46436, Note_off_c, 3, 56, 0
7, 46440, Note_on_c, 3, 56, 88
7, 46615, Note_off_c, 3, 56, 0
7, 46620, Note_on_c, 3, 49, 88
7, 46678, Note_off_c, 3, 49, 0
7, 46680, Note_on_c, 3, 51, 88
7, 46738, Note_off_c, 3, 51, 0
7, 46740, Note_on_c, 3, 53, 88
7, 46798, Note_off_c, 3, 53, 0
7, 46800, Note_on_c, 3, 54, 88
7, 46833, Note_off_c, 3, 54, 0
7, 46834, Note_on_c, 3, 53, 88
7, 46874, Note_off_c, 3, 53, 0
7, 46875, Note_on_c, 3, 54, 88
7, 46977, Note_off_c, 3, 54, 0
7, 46980, Note_on_c, 3, 56, 88
7, 47038, Note_off_c, 3, 56, 0
7, 47040, Note_on_c, 3, 54, 88
7, 47098, Note_off_c, 3, 54, 0
7, 47100, Note_on_c, 3, 52, 88
7, 47158, Note_off_c, 3, 52, 0
7, 47160, Note_on_c, 3, 54, 88
7, 47193, Note_off_c, 3, 54, 0
7, 47194, Note_on_c, 3, 53, 88
7, 47234, Note_off_c, 3, 53, 0
7, 47235, Note_on_c, 3, 54, 88
7, 47393, Note_off_c, 3, 54, 0
7, 47400, Note_on_c, 3, 54, 88
7, 47516, Note_off_c, 3, 54, 0
7, 47520, Note_on_c, 3, 54, 88
7, 47695, Note_off_c, 3, 54, 0
7, 47700, Note_on_c, 3, 48, 88
7, 47758, Note_off_c, 3, 48, 0
7, 47760, Note_on_c, 3, 49, 88
7, 47818, Note_off_c, 3, 49, 0
7, 47820, Note_on_c, 3, 51, 88
7, 47878, Note_off_c, 3, 51, 0
7, 47880, Note_on_c, 3, 52, 88
7, 48055, Note_off_c, 3, 52, 0
7, 48060, Note_on_c, 3, 54, 88
7, 48118, Note_off_c, 3, 54, 0
7, 48120, Note_on_c, 3, 52, 88
7, 48178, Note_off_c, 3, 52, 0
7, 48180, Note_on_c, 3, 51, 88
7, 48238, Note_off_c, 3, 51, 0
7, 48240, Note_on_c, 3, 52, 88
7, 48473, Note_off_c, 3, 52, 0
7, 48480, Note_on_c, 3, 52, 88
7, 48596, Note_off_c, 3, 52, 0
7, 48600, Note_on_c, 3, 52, 88
7, 48775, Note_off_c, 3, 52, 0
7, 48780, Note_on_c, 3, 46, 88
7, 48838, Note_off_c, 3, 46, 0
7, 48840, Note_on_c, 3, 48, 88
7, 48898, Note_off_c, 3, 48, 0
7, 48900, Note_on_c, 3, 49, 88
7, 48958, Note_off_c, 3, 49, 0
7, 48960, Note_on_c, 3, 51, 88
7, 49135, Note_off_c, 3, 51, 0
7, 49140, Note_on_c, 3, 52, 88
7, 49198, Note_off_c, 3, 52, 0
7, 49200, Note_on_c, 3, 51, 88
7, 49258, Note_off_c, 3, 51, 0
7, 49260, Note_on_c, 3, 49, 88
7, 49318, Note_off_c, 3, 49, 0
7, 49320, Note_on_c, 3, 51, 88
7, 49553, Note_off_c, 3, 51, 0
7, 49560, Note_on_c, 3, 51, 88
7, 49676, Note_off_c, 3, 51, 0
7, 49680, Note_on_c, 3, 51, 88
7, 49855, Note_off_c, 3, 51, 0
7, 49860, Note_on_c, 3, 44, 88
7, 49918, Note_off_c, 3, 44, 0
7, 49920, Note_on_c, 3, 46, 88
7, 49978, Note_off_c, 3, 46, 0
7, 49980, Note_on_c, 3, 48, 88
7, 50038, Note_off_c, 3, 48, 0
7, 50040, Note_on_c, 3, 49, 88
7, 50215, Note_off_c, 3, 49, 0
7, 50220, Note_on_c, 3, 51, 88
7, 50278, Note_off_c, 3, 51, 0
7, 50280, Note_on_c, 3, 49, 88
7, 50338, Note_off_c, 3, 49, 0
7, 50340, Note_on_c, 3, 48, 88
7, 50398, Note_off_c, 3, 48, 0
7, 50400, Note_on_c, 3, 49, 88
7, 50516, Note_off_c, 3, 49, 0
7, 50520, Note_on_c, 3, 51, 88
7, 50636, Note_off_c, 3, 51, 0
7, 50640, Note_on_c, 3, 52, 88
7, 50756, Note_off_c, 3, 52, 0
7, 50760, Note_on_c, 3, 45, 88
7, 50994, Note_off_c, 3, 45, 0
7, 51000, Note_on_c, 3, 57, 88
7, 51113, Note_off_c, 3, 57, 0
7, 51120, Note_on_c, 3, 57, 88
7, 51295, Note_off_c, 3, 57, 0
7, 51300, Note_on_c, 3, 51, 88
7, 51358, Note_off_c, 3, 51, 0
7, 51360, Note_on_c, 3, 52, 88
7, 51418, Note_off_c, 3, 52, 0
7, 51420, Note_on_c, 3, 54, 88
7, 51478, Note_off_c, 3, 54, 0
7, 51480, Note_on_c, 3, 56, 88
7, 51713, Note_off_c, 3, 56, 0
7, 51720, Note_on_c, 3, 56, 88
7, 51836, Note_off_c, 3, 56, 0
7, 51840, Note_on_c, 3, 56, 88
7, 52074, Note_off_c, 3, 56, 0
7, 52080, Note_on_c, 3, 49, 88
7, 52196, Note_off_c, 3, 49, 0
7, 52200, Note_on_c, 3, 54, 88
7, 52258, Note_off_c, 3, 54, 0
7, 52260, Note_on_c, 3, 53, 88
7, 52318, Note_off_c, 3, 53, 0
7, 52320, Note_on_c, 3, 54, 88
7, 52433, Note_off_c, 3, 54, 0
7, 52440, Note_on_c, 3, 54, 88
7, 52553, Note_off_c, 3, 54, 0
7, 52560, Note_on_c, 3, 54, 88
7, 52793, Note_off_c, 3, 54, 0
7, 52800, Note_on_c, 3, 54, 88
7, 52916, Note_off_c, 3, 54, 0
7, 52920, Note_on_c, 3, 54, 88
7, 53036, Note_off_c, 3, 54, 0
7, 53040, Note_on_c, 3, 56, 88
7, 53098, Note_off_c, 3, 56, 0
7, 53100, Note_on_c, 3, 54, 88
7, 53158, Note_off_c, 3, 54, 0
7, 53160, Note_on_c, 3, 52, 88
7, 53218, Note_off_c, 3, 52, 0
7, 53220, Note_on_c, 3, 51, 88
7, 53278, Note_off_c, 3, 51, 0
7, 53280, Note_on_c, 3, 54, 88
7, 53367, Note_off_c, 3, 54, 0
7, 53370, Note_on_c, 3, 52, 88
7, 53399, Note_off_c, 3, 52, 0
7, 53400, Note_on_c, 3, 54, 88
7, 53429, Note_off_c, 3, 54, 0
7, 53430, Note_on_c, 3, 52, 88
7, 53459, Note_off_c, 3, 52, 0
7, 53460, Note_on_c, 3, 54, 88
7, 53489, Note_off_c, 3, 54, 0
7, 53490, Note_on_c, 3, 52, 88
7, 53519, Note_off_c, 3, 52, 0
7, 53520, Note_on_c, 3, 54, 88
7, 53549, Note_off_c, 3, 54, 0
7, 53550, Note_on_c, 3, 52, 88
7, 53575, Note_off_c, 3, 52, 0
7, 53576, Note_on_c, 3, 54, 88
7, 53602, Note_off_c, 3, 54, 0
7, 53603, Note_on_c, 3, 52, 88
7, 53628, Note_off_c, 3, 52, 0
7, 53629, Note_on_c, 3, 54, 88
7, 53654, Note_off_c, 3, 54, 0
7, 53655, Note_on_c, 3, 52, 88
7, 53680, Note_off_c, 3, 52, 0
7, 53681, Note_on_c, 3, 54, 88
7, 53707, Note_off_c, 3, 54, 0
7, 53708, Note_on_c, 3, 52, 88
7, 53733, Note_off_c, 3, 52, 0
7, 53734, Note_on_c, 3, 54, 88
7, 53759, Note_off_c, 3, 54, 0
7, 53760, Note_on_c, 3, 52, 88
7, 53876, Note_off_c, 3, 52, 0
7, 53880, Note_on_c, 3, 51, 88
7, 53938, Note_off_c, 3, 51, 0
7, 53940, Note_on_c, 3, 52, 88
7, 53998, Note_off_c, 3, 52, 0
7, 54000, Note_on_c, 3, 51, 88
7, 54116, Note_off_c, 3, 51, 0
7, 54540, Note_on_c, 3, 52, 88
7, 54598, Note_off_c, 3, 52, 0
7, 54600, Note_on_c, 3, 51, 88
7, 54658, Note_off_c, 3, 51, 0
7, 54660, Note_on_c, 3, 49, 88
7, 54718, Note_off_c, 3, 49, 0
7, 54720, Note_on_c, 3, 48, 88
7, 54778, Note_off_c, 3, 48, 0
7, 54780, Note_on_c, 3, 49, 88
7, 54838, Note_off_c, 3, 49, 0
7, 54840, Note_on_c, 3, 51, 88
7, 54956, Note_off_c, 3, 51, 0
7, 54960, Note_on_c, 3, 44, 88
7, 55076, Note_off_c, 3, 44, 0
7, 55080, Note_on_c, 3, 49, 88
7, 55255, Note_off_c, 3, 49, 0
7, 55260, Note_on_c, 3, 51, 88
7, 55318, Note_off_c, 3, 51, 0
7, 55320, Note_on_c, 3, 52, 88
7, 55378, Note_off_c, 3, 52, 0
7, 55380, Note_on_c, 3, 56, 88
7, 55438, Note_off_c, 3, 56, 0
7, 55440, Note_on_c, 3, 61, 88
7, 55498, Note_off_c, 3, 61, 0
7, 55500, Note_on_c, 3, 60, 88
7, 55558, Note_off_c, 3, 60, 0
7, 55560, Note_on_c, 3, 61, 88
7, 55673, Note_off_c, 3, 61, 0
7, 55680, Note_on_c, 3, 61, 88
7, 55793, Note_off_c, 3, 61, 0
7, 55800, Note_on_c, 3, 61, 88
7, 56033, Note_off_c, 3, 61, 0
7, 56040, Note_on_c, 3, 61, 88
7, 56156, Note_off_c, 3, 61, 0
7, 56160, Note_on_c, 3, 61, 88
7, 56276, Note_off_c, 3, 61, 0
7, 56280, Note_on_c, 3, 63, 88
7, 56338, Note_off_c, 3, 63, 0
7, 56340, Note_on_c, 3, 61, 88
7, 56398, Note_off_c, 3, 61, 0
7, 56400, Note_on_c, 3, 59, 88
7, 56458, Note_off_c, 3, 59, 0
7, 56460, Note_on_c, 3, 58, 88
7, 56518, Note_off_c, 3, 58, 0
7, 56520, Note_on_c, 3, 59, 88
7, 56633, Note_off_c, 3, 59, 0
7, 56640, Note_on_c, 3, 59, 88
7, 56698, Note_off_c, 3, 59, 0
7, 56700, Note_on_c, 3, 58, 88
7, 56758, Note_off_c, 3, 58, 0
7, 56760, Note_on_c, 3, 59, 88
7, 56873, Note_off_c, 3, 59, 0
7, 56880, Note_on_c, 3, 59, 88
7, 57113, Note_off_c, 3, 59, 0
7, 57120, Note_on_c, 3, 59, 88
7, 57236, Note_off_c, 3, 59, 0
7, 57240, Note_on_c, 3, 59, 88
7, 57356, Note_off_c, 3, 59, 0
7, 57360, Note_on_c, 3, 61, 88
7, 57418, Note_off_c, 3, 61, 0
7, 57420, Note_on_c, 3, 59, 88
7, 57478, Note_off_c, 3, 59, 0
7, 57480, Note_on_c, 3, 57, 88
7, 57538, Note_off_c, 3, 57, 0
7, 57540, Note_on_c, 3, 56, 88
7, 57598, Note_off_c, 3, 56, 0
7, 57600, Note_on_c, 3, 57, 88
7, 57658, Note_off_c, 3, 57, 0
7, 57660, Note_on_c, 3, 54, 88
7, 57718, Note_off_c, 3, 54, 0
7, 57720, Note_on_c, 3, 56, 88
7, 57778, Note_off_c, 3, 56, 0
7, 57780, Note_on_c, 3, 57, 88
7, 57838, Note_off_c, 3, 57, 0
7, 57840, Note_on_c, 3, 59, 88
7, 57898, Note_off_c, 3, 59, 0
7, 57900, Note_on_c, 3, 61, 88
7, 57958, Note_off_c, 3, 61, 0
7, 57960, Note_on_c, 3, 62, 88
7, 58018, Note_off_c, 3, 62, 0
7, 58020, Note_on_c, 3, 61, 88
7, 58078, Note_off_c, 3, 61, 0
7, 58080, Note_on_c, 3, 62, 88
7, 58196, Note_off_c, 3, 62, 0
7, 58200, Note_on_c, 3, 59, 88
7, 58316, Note_off_c, 3, 59, 0
7, 58320, Note_on_c, 3, 54, 88
7, 58436, Note_off_c, 3, 54, 0
7, 58440, Note_on_c, 3, 53, 88
7, 58498, Note_off_c, 3, 53, 0
7, 58500, Note_on_c, 3, 49, 88
7, 58558, Note_off_c, 3, 49, 0
7, 58560, Note_on_c, 3, 51, 88
7, 58618, Note_off_c, 3, 51, 0
7, 58620, Note_on_c, 3, 53, 88
7, 58678, Note_off_c, 3, 53, 0
7, 58680, Note_on_c, 3, 54, 88
7, 58796, Note_off_c, 3, 54, 0
7, 58800, Note_on_c, 3, 57, 88
7, 58858, Note_off_c, 3, 57, 0
7, 58860, Note_on_c, 3, 56, 88
7, 58918, Note_off_c, 3, 56, 0
7, 58920, Note_on_c, 3, 54, 88
7, 58978, Note_off_c, 3, 54, 0
7, 58980, Note_on_c, 3, 52, 88
7, 59038, Note_off_c, 3, 52, 0
7, 59040, Note_on_c, 3, 51, 88
7, 59156, Note_off_c, 3, 51, 0
7, 59160, Note_on_c, 3, 52, 88
7, 59276, Note_off_c, 3, 52, 0
7, 59280, Note_on_c, 3, 49, 88
7, 59396, Note_off_c, 3, 49, 0
7, 59400, Note_on_c, 3, 48, 88
7, 59458, Note_off_c, 3, 48, 0
7, 59460, Note_on_c, 3, 49, 88
7, 59518, Note_off_c, 3, 49, 0
7, 59520, Note_on_c, 3, 51, 88
7, 59636, Note_off_c, 3, 51, 0
7, 59640, Note_on_c, 3, 44, 88
7, 59756, Note_off_c, 3, 44, 0
7, 59760, Note_on_c, 3, 49, 88
7, 59876, Note_off_c, 3, 49, 0
7, 59880, Note_on_c, 3, 52, 88
7, 59996, Note_off_c, 3, 52, 0
7, 60000, Note_on_c, 3, 51, 88
7, 60116, Note_off_c, 3, 51, 0
7, 60120, Note_on_c, 3, 52, 88
7, 60236, Note_off_c, 3, 52, 0
7, 60240, Note_on_c, 3, 54, 88
7, 60356, Note_off_c, 3, 54, 0
7, 60360, Note_on_c, 3, 56, 88
7, 60476, Note_off_c, 3, 56, 0
7, 60480, Note_on_c, 3, 57, 88
7, 60596, Note_off_c, 3, 57, 0
7, 60600, Note_on_c, 3, 59, 88
7, 60716, Note_off_c, 3, 59, 0
7, 60720, Note_on_c, 3, 56, 88
7, 60836, Note_off_c, 3, 56, 0
7, 60840, Note_on_c, 3, 54, 88
7, 60956, Note_off_c, 3, 54, 0
7, 60960, Note_on_c, 3, 56, 88
7, 61076, Note_off_c, 3, 56, 0
7, 61080, Note_on_c, 3, 52, 88
7, 61196, Note_off_c, 3, 52, 0
7, 61200, Note_on_c, 3, 51, 88
7, 61258, Note_off_c, 3, 51, 0
7, 61260, Note_on_c, 3, 52, 88
7, 61318, Note_off_c, 3, 52, 0
7, 61320, Note_on_c, 3, 54, 88
7, 61436, Note_off_c, 3, 54, 0
7, 61440, Note_on_c, 3, 51, 88
7, 61556, Note_off_c, 3, 51, 0
7, 61560, Note_on_c, 3, 44, 88
7, 62150, Note_off_c, 3, 44, 0
7, 62160, Note_on_c, 3, 60, 88
7, 62273, Note_off_c, 3, 60, 0
7, 62280, Note_on_c, 3, 60, 88
7, 62401, Note_off_c, 3, 60, 0
7, 62404, Note_on_c, 3, 61, 88
7, 62634, Note_off_c, 3, 61, 0
7, 62640, Note_on_c, 3, 61, 88
7, 62756, Note_off_c, 3, 61, 0
7, 62760, Note_on_c, 3, 59, 88
7, 62876, Note_off_c, 3, 59, 0
7, 62880, Note_on_c, 3, 57, 88
7, 62996, Note_off_c, 3, 57, 0
7, 63000, Note_on_c, 3, 56, 88
7, 63234, Note_off_c, 3, 56, 0
7, 63240, Note_on_c, 3, 61, 88
7, 63356, Note_off_c, 3, 61, 0
7, 63360, Note_on_c, 3, 56, 88
7, 63389, Note_off_c, 3, 56, 0
7, 63390, Note_on_c, 3, 54, 88
7, 63419, Note_off_c, 3, 54, 0
7, 63420, Note_on_c, 3, 56, 88
7, 63449, Note_off_c, 3, 56, 0
7, 63450, Note_on_c, 3, 54, 88
7, 63479, Note_off_c, 3, 54, 0
7, 63480, Note_on_c, 3, 56, 88
7, 63509, Note_off_c, 3, 56, 0
7, 63510, Note_on_c, 3, 54, 88
7, 63539, Note_off_c, 3, 54, 0
7, 63540, Note_on_c, 3, 56, 88
7, 63569, Note_off_c, 3, 56, 0
7, 63570, Note_on_c, 3, 54, 88
7, 63599, Note_off_c, 3, 54, 0
7, 63600, Note_on_c, 3, 56, 88
7, 63629, Note_off_c, 3, 56, 0
7, 63630, Note_on_c, 3, 54, 88
7, 63659, Note_off_c, 3, 54, 0
7, 63660, Note_on_c, 3, 53, 88
7, 63689, Note_off_c, 3, 53, 0
7, 63690, Note_on_c, 3, 54, 88
7, 63719, Note_off_c, 3, 54, 0
7, 63720, Note_on_c, 3, 56, 88
7, 63749, Note_off_c, 3, 56, 0
7, 63750, Note_on_c, 3, 55, 88
7, 63779, Note_off_c, 3, 55, 0
7, 63780, Note_on_c, 3, 56, 88
7, 63809, Note_off_c, 3, 56, 0
7, 63810, Note_on_c, 3, 55, 88
7, 63839, Note_off_c, 3, 55, 0
7, 63840, Note_on_c, 3, 56, 88
7, 63869, Note_off_c, 3, 56, 0
7, 63870, Note_on_c, 3, 55, 88
7, 63899, Note_off_c, 3, 55, 0
7, 63900, Note_on_c, 3, 56, 88
7, 63929, Note_off_c, 3, 56, 0
7, 63930, Note_on_c, 3, 55, 88
7, 63959, Note_off_c, 3, 55, 0
7, 63960, Note_on_c, 3, 56, 88
7, 63989, Note_off_c, 3, 56, 0
7, 63990, Note_on_c, 3, 55, 88
7, 64019, Note_off_c, 3, 55, 0
7, 64020, Note_on_c, 3, 53, 88
7, 64049, Note_off_c, 3, 53, 0
7, 64050, Note_on_c, 3, 55, 88
7, 64079, Note_off_c, 3, 55, 0
7, 64080, Note_on_c, 3, 56, 88
7, 64670, Note_off_c, 3, 56, 0
7, 64680, Note_on_c, 3, 44, 88
7, 64796, Note_off_c, 3, 44, 0
7, 64800, Note_on_c, 3, 45, 88
7, 64916, Note_off_c, 3, 45, 0
7, 64920, Note_on_c, 3, 44, 88
7, 65036, Note_off_c, 3, 44, 0
7, 65040, Note_on_c, 3, 42, 88
7, 65156, Note_off_c, 3, 42, 0
7, 65160, Note_on_c, 3, 44, 88
7, 65868, Note_off_c, 3, 44, 0
7, 65880, Note_on_c, 3, 37, 88
7, 66233, Note_off_c, 3, 37, 0
7, 66233, End_track
0, 0, End_of_file
