0, 0, Header, 1, 8, 240
1, 0, Start_track
1, 0, Time_signature, 12, 3, 24, 8
1, 0, Tempo, 666666
1, 0, SMPTE_offset, 64, 0, 0, 0, 103
1, 23040, Time_signature, 12, 3, 24, 8
1, 23040, End_track
2, 0, Start_track
2, 0, Title_t, "(C) & (P) 1993"
2, 127, End_track
3, 0, Start_track
3, 0, Title_t, "CCARH,Stanford"
3, 0, End_track
4, 0, Start_track
4, 0, Title_t, "Track 1"
4, 0, Program_c, 0, 6
4, 120, Note_on_c, 0, 62, 88
4, 178, Note_off_c, 0, 62, 0
4, 180, Note_on_c, 0, 64, 88
4, 238, Note_off_c, 0, 64, 0
4, 240, Note_on_c, 0, 66, 88
4, 298, Note_off_c, 0, 66, 0
4, 300, Note_on_c, 0, 67, 88
4, 358, Note_off_c, 0, 67, 0
4, 360, Note_on_c, 0, 69, 88
4, 476, Note_off_c, 0, 69, 0
4, 480, Note_on_c, 0, 66, 88
4, 596, Note_off_c, 0, 66, 0
4, 600, Note_on_c, 0, 69, 88
4, 716, Note_off_c, 0, 69, 0
4, 720, Note_on_c, 0, 74, 88
4, 836, Note_off_c, 0, 74, 0
4, 840, Note_on_c, 0, 69, 88
4, 956, Note_off_c, 0, 69, 0
4, 960, Note_on_c, 0, 74, 88
4, 1076, Note_off_c, 0, 74, 0
4, 1080, Note_on_c, 0, 78, 88
4, 1196, Note_off_c, 0, 78, 0
4, 1200, Note_on_c, 0, 74, 88
4, 1316, Note_off_c, 0, 74, 0
4, 1320, Note_on_c, 0, 78, 88
4, 1436, Note_off_c, 0, 78, 0
4, 1440, Note_on_c, 0, 81, 88
4, 1793, Note_off_c, 0, 81, 0
4, 1800, Note_on_c, 0, 81, 88
4, 2153, Note_off_c, 0, 81, 0
4, 2160, Note_on_c, 0, 81, 88
4, 2335, Note_off_c, 0, 81, 0
4, 2340, Note_on_c, 0, 79, 88
4, 2513, Note_off_c, 0, 79, 0
4, 2520, Note_on_c, 0, 79, 88
4, 2695, Note_off_c, 0, 79, 0
4, 2700, Note_on_c, 0, 78, 88
4, 2875, Note_off_c, 0, 78, 0
4, 2880, Note_on_c, 0, 78, 88
4, 3233, Note_off_c, 0, 78, 0
4, 4680, Note_on_c, 0, 78, 88
4, 5033, Note_off_c, 0, 78, 0
4, 5040, Note_on_c, 0, 78, 88
4, 5215, Note_off_c, 0, 78, 0
4, 5220, Note_on_c, 0, 76, 88
4, 5393, Note_off_c, 0, 76, 0
4, 5400, Note_on_c, 0, 76, 88
4, 5575, Note_off_c, 0, 76, 0
4, 5580, Note_on_c, 0, 74, 88
4, 5755, Note_off_c, 0, 74, 0
4, 5760, Note_on_c, 0, 74, 88
4, 5935, Note_off_c, 0, 74, 0
4, 6600, Note_on_c, 0, 64, 88
4, 6658, Note_off_c, 0, 64, 0
4, 6660, Note_on_c, 0, 66, 88
4, 6718, Note_off_c, 0, 66, 0
4, 6720, Note_on_c, 0, 68, 88
4, 6778, Note_off_c, 0, 68, 0
4, 6780, Note_on_c, 0, 69, 88
4, 6838, Note_off_c, 0, 69, 0
4, 6840, Note_on_c, 0, 71, 88
4, 6956, Note_off_c, 0, 71, 0
4, 6960, Note_on_c, 0, 68, 88
4, 7076, Note_off_c, 0, 68, 0
4, 7080, Note_on_c, 0, 71, 88
4, 7196, Note_off_c, 0, 71, 0
4, 7200, Note_on_c, 0, 76, 88
4, 7375, Note_off_c, 0, 76, 0
4, 8040, Note_on_c, 0, 62, 88
4, 8098, Note_off_c, 0, 62, 0
4, 8100, Note_on_c, 0, 64, 88
4, 8158, Note_off_c, 0, 64, 0
4, 8160, Note_on_c, 0, 66, 88
4, 8218, Note_off_c, 0, 66, 0
4, 8220, Note_on_c, 0, 68, 88
4, 8278, Note_off_c, 0, 68, 0
4, 8280, Note_on_c, 0, 69, 88
4, 8396, Note_off_c, 0, 69, 0
4, 8400, Note_on_c, 0, 66, 88
4, 8516, Note_off_c, 0, 66, 0
4, 8520, Note_on_c, 0, 69, 88
4, 8636, Note_off_c, 0, 69, 0
4, 8640, Note_on_c, 0, 74, 88
4, 8874, Note_off_c, 0, 74, 0
4, 8880, Note_on_c, 0, 66, 88
4, 8996, Note_off_c, 0, 66, 0
4, 9000, Note_on_c, 0, 74, 88
4, 9233, Note_off_c, 0, 74, 0
4, 9240, Note_on_c, 0, 74, 88
4, 9353, Note_off_c, 0, 74, 0
4, 9360, Note_on_c, 0, 74, 88
4, 9713, Note_off_c, 0, 74, 0
4, 9840, Note_on_c, 0, 76, 88
4, 9898, Note_off_c, 0, 76, 0
4, 9900, Note_on_c, 0, 74, 88
4, 9958, Note_off_c, 0, 74, 0
4, 9960, Note_on_c, 0, 73, 88
4, 10018, Note_off_c, 0, 73, 0
4, 10020, Note_on_c, 0, 71, 88
4, 10078, Note_off_c, 0, 71, 0
4, 10080, Note_on_c, 0, 73, 88
4, 10196, Note_off_c, 0, 73, 0
4, 10200, Note_on_c, 0, 69, 88
4, 10258, Note_off_c, 0, 69, 0
4, 10260, Note_on_c, 0, 71, 88
4, 10318, Note_off_c, 0, 71, 0
4, 10320, Note_on_c, 0, 73, 88
4, 10378, Note_off_c, 0, 73, 0
4, 10380, Note_on_c, 0, 74, 88
4, 10438, Note_off_c, 0, 74, 0
4, 10440, Note_on_c, 0, 76, 88
4, 10556, Note_off_c, 0, 76, 0
4, 10560, Note_on_c, 0, 74, 88
4, 10618, Note_off_c, 0, 74, 0
4, 10620, Note_on_c, 0, 73, 88
4, 10678, Note_off_c, 0, 73, 0
4, 10680, Note_on_c, 0, 71, 88
4, 10738, Note_off_c, 0, 71, 0
4, 10740, Note_on_c, 0, 69, 88
4, 10798, Note_off_c, 0, 69, 0
4, 10800, Note_on_c, 0, 74, 88
4, 10916, Note_off_c, 0, 74, 0
4, 10920, Note_on_c, 0, 71, 88
4, 10978, Note_off_c, 0, 71, 0
4, 10980, Note_on_c, 0, 73, 88
4, 11038, Note_off_c, 0, 73, 0
4, 11040, Note_on_c, 0, 74, 88
4, 11098, Note_off_c, 0, 74, 0
4, 11100, Note_on_c, 0, 76, 88
4, 11158, Note_off_c, 0, 76, 0
4, 11160, Note_on_c, 0, 78, 88
4, 11276, Note_off_c, 0, 78, 0
4, 11280, Note_on_c, 0, 76, 88
4, 11338, Note_off_c, 0, 76, 0
4, 11340, Note_on_c, 0, 74, 88
4, 11398, Note_off_c, 0, 74, 0
4, 11400, Note_on_c, 0, 73, 88
4, 11458, Note_off_c, 0, 73, 0
4, 11460, Note_on_c, 0, 71, 88
4, 11518, Note_off_c, 0, 71, 0
4, 11520, Note_on_c, 0, 76, 88
4, 12583, Note_off_c, 0, 76, 0
4, 12600, Note_on_c, 0, 74, 88
4, 13313, Note_off_c, 0, 74, 0
4, 13320, Note_on_c, 0, 74, 88
4, 13673, Note_off_c, 0, 74, 0
4, 13680, Note_on_c, 0, 80, 88
4, 14033, Note_off_c, 0, 80, 0
4, 14040, Note_on_c, 0, 83, 88
4, 14516, Note_off_c, 0, 83, 0
4, 14520, Note_on_c, 0, 81, 88
4, 14578, Note_off_c, 0, 81, 0
4, 14580, Note_on_c, 0, 80, 88
4, 14638, Note_off_c, 0, 80, 0
4, 14640, Note_on_c, 0, 78, 88
4, 14698, Note_off_c, 0, 78, 0
4, 14700, Note_on_c, 0, 76, 88
4, 14758, Note_off_c, 0, 76, 0
4, 14760, Note_on_c, 0, 75, 88
4, 14876, Note_off_c, 0, 75, 0
4, 14880, Note_on_c, 0, 78, 88
4, 14996, Note_off_c, 0, 78, 0
4, 15000, Note_on_c, 0, 75, 88
4, 15116, Note_off_c, 0, 75, 0
4, 15120, Note_on_c, 0, 69, 88
4, 15236, Note_off_c, 0, 69, 0
4, 15240, Note_on_c, 0, 75, 88
4, 15356, Note_off_c, 0, 75, 0
4, 15360, Note_on_c, 0, 69, 88
4, 15476, Note_off_c, 0, 69, 0
4, 15480, Note_on_c, 0, 66, 88
4, 15596, Note_off_c, 0, 66, 0
4, 15600, Note_on_c, 0, 69, 88
4, 15716, Note_off_c, 0, 69, 0
4, 15720, Note_on_c, 0, 66, 88
4, 15836, Note_off_c, 0, 66, 0
4, 15840, Note_on_c, 0, 68, 88
4, 15956, Note_off_c, 0, 68, 0
4, 15960, Note_on_c, 0, 66, 88
4, 16076, Note_off_c, 0, 66, 0
4, 16080, Note_on_c, 0, 64, 88
4, 16196, Note_off_c, 0, 64, 0
4, 16200, Note_on_c, 0, 69, 88
4, 16434, Note_off_c, 0, 69, 0
4, 16440, Note_on_c, 0, 74, 88
4, 16556, Note_off_c, 0, 74, 0
4, 16560, Note_on_c, 0, 73, 88
4, 16913, Note_off_c, 0, 73, 0
4, 16920, Note_on_c, 0, 73, 88
4, 16949, Note_off_c, 0, 73, 0
4, 16950, Note_on_c, 0, 71, 88
4, 16979, Note_off_c, 0, 71, 0
4, 16980, Note_on_c, 0, 73, 88
4, 17009, Note_off_c, 0, 73, 0
4, 17010, Note_on_c, 0, 71, 88
4, 17039, Note_off_c, 0, 71, 0
4, 17040, Note_on_c, 0, 69, 88
4, 17156, Note_off_c, 0, 69, 0
4, 17160, Note_on_c, 0, 71, 88
4, 17276, Note_off_c, 0, 71, 0
4, 17280, Note_on_c, 0, 69, 88
4, 17396, Note_off_c, 0, 69, 0
4, 17400, Note_on_c, 0, 73, 88
4, 17458, Note_off_c, 0, 73, 0
4, 17460, Note_on_c, 0, 71, 88
4, 17518, Note_off_c, 0, 71, 0
4, 17520, Note_on_c, 0, 69, 88
4, 17578, Note_off_c, 0, 69, 0
4, 17580, Note_on_c, 0, 68, 88
4, 17638, Note_off_c, 0, 68, 0
4, 17640, Note_on_c, 0, 66, 88
4, 17756, Note_off_c, 0, 66, 0
4, 17760, Note_on_c, 0, 69, 88
4, 17818, Note_off_c, 0, 69, 0
4, 17820, Note_on_c, 0, 68, 88
4, 17878, Note_off_c, 0, 68, 0
4, 17880, Note_on_c, 0, 66, 88
4, 17938, Note_off_c, 0, 66, 0
4, 17940, Note_on_c, 0, 64, 88
4, 17998, Note_off_c, 0, 64, 0
4, 18000, Note_on_c, 0, 63, 88
4, 18116, Note_off_c, 0, 63, 0
4, 18120, Note_on_c, 0, 66, 88
4, 18236, Note_off_c, 0, 66, 0
4, 18240, Note_on_c, 0, 71, 88
4, 18353, Note_off_c, 0, 71, 0
4, 18360, Note_on_c, 0, 71, 88
4, 18836, Note_off_c, 0, 71, 0
4, 18840, Note_on_c, 0, 69, 88
4, 18898, Note_off_c, 0, 69, 0
4, 18900, Note_on_c, 0, 68, 88
4, 18958, Note_off_c, 0, 68, 0
4, 18960, Note_on_c, 0, 66, 88
4, 19018, Note_off_c, 0, 66, 0
4, 19020, Note_on_c, 0, 64, 88
4, 19078, Note_off_c, 0, 64, 0
4, 19080, Note_on_c, 0, 62, 88
4, 19196, Note_off_c, 0, 62, 0
4, 19200, Note_on_c, 0, 66, 88
4, 19258, Note_off_c, 0, 66, 0
4, 19260, Note_on_c, 0, 64, 88
4, 19318, Note_off_c, 0, 64, 0
4, 19320, Note_on_c, 0, 62, 88
4, 19378, Note_off_c, 0, 62, 0
4, 19380, Note_on_c, 0, 61, 88
4, 19438, Note_off_c, 0, 61, 0
4, 19440, Note_on_c, 0, 59, 88
4, 19556, Note_off_c, 0, 59, 0
4, 19560, Note_on_c, 0, 62, 88
4, 19676, Note_off_c, 0, 62, 0
4, 19680, Note_on_c, 0, 67, 88
4, 19793, Note_off_c, 0, 67, 0
4, 19800, Note_on_c, 0, 67, 88
4, 20276, Note_off_c, 0, 67, 0
4, 20280, Note_on_c, 0, 66, 88
4, 20338, Note_off_c, 0, 66, 0
4, 20340, Note_on_c, 0, 64, 88
4, 20398, Note_off_c, 0, 64, 0
4, 20400, Note_on_c, 0, 62, 88
4, 20458, Note_off_c, 0, 62, 0
4, 20460, Note_on_c, 0, 61, 88
4, 20518, Note_off_c, 0, 61, 0
4, 20520, Note_on_c, 0, 59, 88
4, 20636, Note_off_c, 0, 59, 0
4, 20640, Note_on_c, 0, 62, 88
4, 20698, Note_off_c, 0, 62, 0
4, 20700, Note_on_c, 0, 61, 88
4, 20758, Note_off_c, 0, 61, 0
4, 20760, Note_on_c, 0, 59, 88
4, 20818, Note_off_c, 0, 59, 0
4, 20820, Note_on_c, 0, 57, 88
4, 20878, Note_off_c, 0, 57, 0
4, 20880, Note_on_c, 0, 56, 88
4, 20996, Note_off_c, 0, 56, 0
4, 21000, Note_on_c, 0, 59, 88
4, 21116, Note_off_c, 0, 59, 0
4, 21120, Note_on_c, 0, 64, 88
4, 21236, Note_off_c, 0, 64, 0
4, 21240, Note_on_c, 0, 61, 88
4, 21356, Note_off_c, 0, 61, 0
4, 21360, Note_on_c, 0, 64, 88
4, 21476, Note_off_c, 0, 64, 0
4, 21480, Note_on_c, 0, 69, 88
4, 21596, Note_off_c, 0, 69, 0
4, 21600, Note_on_c, 0, 62, 88
4, 21834, Note_off_c, 0, 62, 0
4, 21840, Note_on_c, 0, 71, 88
4, 21956, Note_off_c, 0, 71, 0
4, 21960, Note_on_c, 0, 64, 88
4, 22076, Note_off_c, 0, 64, 0
4, 22080, Note_on_c, 0, 69, 88
4, 22196, Note_off_c, 0, 69, 0
4, 22200, Note_on_c, 0, 68, 88
4, 22316, Note_off_c, 0, 68, 0
4, 22320, Note_on_c, 0, 69, 88
4, 23028, Note_off_c, 0, 69, 0
4, 23160, Note_on_c, 0, 62, 88
4, 23218, Note_off_c, 0, 62, 0
4, 23220, Note_on_c, 0, 64, 88
4, 23278, Note_off_c, 0, 64, 0
4, 23280, Note_on_c, 0, 66, 88
4, 23338, Note_off_c, 0, 66, 0
4, 23340, Note_on_c, 0, 67, 88
4, 23398, Note_off_c, 0, 67, 0
4, 23400, Note_on_c, 0, 69, 88
4, 23516, Note_off_c, 0, 69, 0
4, 23520, Note_on_c, 0, 66, 88
4, 23636, Note_off_c, 0, 66, 0
4, 23640, Note_on_c, 0, 69, 88
4, 23756, Note_off_c, 0, 69, 0
4, 23760, Note_on_c, 0, 74, 88
4, 23876, Note_off_c, 0, 74, 0
4, 23880, Note_on_c, 0, 69, 88
4, 23996, Note_off_c, 0, 69, 0
4, 24000, Note_on_c, 0, 74, 88
4, 24116, Note_off_c, 0, 74, 0
4, 24120, Note_on_c, 0, 78, 88
4, 24236, Note_off_c, 0, 78, 0
4, 24240, Note_on_c, 0, 74, 88
4, 24356, Note_off_c, 0, 74, 0
4, 24360, Note_on_c, 0, 78, 88
4, 24476, Note_off_c, 0, 78, 0
4, 24480, Note_on_c, 0, 81, 88
4, 24833, Note_off_c, 0, 81, 0
4, 24840, Note_on_c, 0, 81, 88
4, 25193, Note_off_c, 0, 81, 0
4, 25200, Note_on_c, 0, 81, 88
4, 25375, Note_off_c, 0, 81, 0
4, 25380, Note_on_c, 0, 79, 88
4, 25553, Note_off_c, 0, 79, 0
4, 25560, Note_on_c, 0, 79, 88
4, 25735, Note_off_c, 0, 79, 0
4, 25740, Note_on_c, 0, 78, 88
4, 25915, Note_off_c, 0, 78, 0
4, 25920, Note_on_c, 0, 78, 88
4, 26273, Note_off_c, 0, 78, 0
4, 27720, Note_on_c, 0, 78, 88
4, 28073, Note_off_c, 0, 78, 0
4, 28080, Note_on_c, 0, 78, 88
4, 28255, Note_off_c, 0, 78, 0
4, 28260, Note_on_c, 0, 76, 88
4, 28433, Note_off_c, 0, 76, 0
4, 28440, Note_on_c, 0, 76, 88
4, 28615, Note_off_c, 0, 76, 0
4, 28620, Note_on_c, 0, 74, 88
4, 28795, Note_off_c, 0, 74, 0
4, 28800, Note_on_c, 0, 74, 88
4, 28975, Note_off_c, 0, 74, 0
4, 29640, Note_on_c, 0, 64, 88
4, 29698, Note_off_c, 0, 64, 0
4, 29700, Note_on_c, 0, 66, 88
4, 29758, Note_off_c, 0, 66, 0
4, 29760, Note_on_c, 0, 68, 88
4, 29818, Note_off_c, 0, 68, 0
4, 29820, Note_on_c, 0, 69, 88
4, 29878, Note_off_c, 0, 69, 0
4, 29880, Note_on_c, 0, 71, 88
4, 29996, Note_off_c, 0, 71, 0
4, 30000, Note_on_c, 0, 68, 88
4, 30116, Note_off_c, 0, 68, 0
4, 30120, Note_on_c, 0, 71, 88
4, 30236, Note_off_c, 0, 71, 0
4, 30240, Note_on_c, 0, 76, 88
4, 30415, Note_off_c, 0, 76, 0
4, 31080, Note_on_c, 0, 62, 88
4, 31138, Note_off_c, 0, 62, 0
4, 31140, Note_on_c, 0, 64, 88
4, 31198, Note_off_c, 0, 64, 0
4, 31200, Note_on_c, 0, 66, 88
4, 31258, Note_off_c, 0, 66, 0
4, 31260, Note_on_c, 0, 68, 88
4, 31318, Note_off_c, 0, 68, 0
4, 31320, Note_on_c, 0, 69, 88
4, 31436, Note_off_c, 0, 69, 0
4, 31440, Note_on_c, 0, 66, 88
4, 31556, Note_off_c, 0, 66, 0
4, 31560, Note_on_c, 0, 69, 88
4, 31676, Note_off_c, 0, 69, 0
4, 31680, Note_on_c, 0, 74, 88
4, 31914, Note_off_c, 0, 74, 0
4, 31920, Note_on_c, 0, 66, 88
4, 32036, Note_off_c, 0, 66, 0
4, 32040, Note_on_c, 0, 74, 88
4, 32273, Note_off_c, 0, 74, 0
4, 32280, Note_on_c, 0, 74, 88
4, 32393, Note_off_c, 0, 74, 0
4, 32400, Note_on_c, 0, 74, 88
4, 32753, Note_off_c, 0, 74, 0
4, 32880, Note_on_c, 0, 76, 88
4, 32938, Note_off_c, 0, 76, 0
4, 32940, Note_on_c, 0, 74, 88
4, 32998, Note_off_c, 0, 74, 0
4, 33000, Note_on_c, 0, 73, 88
4, 33058, Note_off_c, 0, 73, 0
4, 33060, Note_on_c, 0, 71, 88
4, 33118, Note_off_c, 0, 71, 0
4, 33120, Note_on_c, 0, 73, 88
4, 33236, Note_off_c, 0, 73, 0
4, 33240, Note_on_c, 0, 69, 88
4, 33298, Note_off_c, 0, 69, 0
4, 33300, Note_on_c, 0, 71, 88
4, 33358, Note_off_c, 0, 71, 0
4, 33360, Note_on_c, 0, 73, 88
4, 33418, Note_off_c, 0, 73, 0
4, 33420, Note_on_c, 0, 74, 88
4, 33478, Note_off_c, 0, 74, 0
4, 33480, Note_on_c, 0, 76, 88
4, 33596, Note_off_c, 0, 76, 0
4, 33600, Note_on_c, 0, 74, 88
4, 33658, Note_off_c, 0, 74, 0
4, 33660, Note_on_c, 0, 73, 88
4, 33718, Note_off_c, 0, 73, 0
4, 33720, Note_on_c, 0, 71, 88
4, 33778, Note_off_c, 0, 71, 0
4, 33780, Note_on_c, 0, 69, 88
4, 33838, Note_off_c, 0, 69, 0
4, 33840, Note_on_c, 0, 74, 88
4, 33956, Note_off_c, 0, 74, 0
4, 33960, Note_on_c, 0, 71, 88
4, 34018, Note_off_c, 0, 71, 0
4, 34020, Note_on_c, 0, 73, 88
4, 34078, Note_off_c, 0, 73, 0
4, 34080, Note_on_c, 0, 74, 88
4, 34138, Note_off_c, 0, 74, 0
4, 34140, Note_on_c, 0, 76, 88
4, 34198, Note_off_c, 0, 76, 0
4, 34200, Note_on_c, 0, 78, 88
4, 34316, Note_off_c, 0, 78, 0
4, 34320, Note_on_c, 0, 76, 88
4, 34378, Note_off_c, 0, 76, 0
4, 34380, Note_on_c, 0, 74, 88
4, 34438, Note_off_c, 0, 74, 0
4, 34440, Note_on_c, 0, 73, 88
4, 34498, Note_off_c, 0, 73, 0
4, 34500, Note_on_c, 0, 71, 88
4, 34558, Note_off_c, 0, 71, 0
4, 34560, Note_on_c, 0, 76, 88
4, 35623, Note_off_c, 0, 76, 0
4, 35640, Note_on_c, 0, 74, 88
4, 36353, Note_off_c, 0, 74, 0
4, 36360, Note_on_c, 0, 74, 88
4, 36713, Note_off_c, 0, 74, 0
4, 36720, Note_on_c, 0, 80, 88
4, 37073, Note_off_c, 0, 80, 0
4, 37080, Note_on_c, 0, 83, 88
4, 37556, Note_off_c, 0, 83, 0
4, 37560, Note_on_c, 0, 81, 88
4, 37618, Note_off_c, 0, 81, 0
4, 37620, Note_on_c, 0, 80, 88
4, 37678, Note_off_c, 0, 80, 0
4, 37680, Note_on_c, 0, 78, 88
4, 37738, Note_off_c, 0, 78, 0
4, 37740, Note_on_c, 0, 76, 88
4, 37798, Note_off_c, 0, 76, 0
4, 37800, Note_on_c, 0, 75, 88
4, 37916, Note_off_c, 0, 75, 0
4, 37920, Note_on_c, 0, 78, 88
4, 38036, Note_off_c, 0, 78, 0
4, 38040, Note_on_c, 0, 75, 88
4, 38156, Note_off_c, 0, 75, 0
4, 38160, Note_on_c, 0, 69, 88
4, 38276, Note_off_c, 0, 69, 0
4, 38280, Note_on_c, 0, 75, 88
4, 38396, Note_off_c, 0, 75, 0
4, 38400, Note_on_c, 0, 69, 88
4, 38516, Note_off_c, 0, 69, 0
4, 38520, Note_on_c, 0, 66, 88
4, 38636, Note_off_c, 0, 66, 0
4, 38640, Note_on_c, 0, 69, 88
4, 38756, Note_off_c, 0, 69, 0
4, 38760, Note_on_c, 0, 66, 88
4, 38876, Note_off_c, 0, 66, 0
4, 38880, Note_on_c, 0, 68, 88
4, 38996, Note_off_c, 0, 68, 0
4, 39000, Note_on_c, 0, 66, 88
4, 39116, Note_off_c, 0, 66, 0
4, 39120, Note_on_c, 0, 64, 88
4, 39236, Note_off_c, 0, 64, 0
4, 39240, Note_on_c, 0, 69, 88
4, 39474, Note_off_c, 0, 69, 0
4, 39480, Note_on_c, 0, 74, 88
4, 39596, Note_off_c, 0, 74, 0
4, 39600, Note_on_c, 0, 73, 88
4, 39953, Note_off_c, 0, 73, 0
4, 39960, Note_on_c, 0, 73, 88
4, 39989, Note_off_c, 0, 73, 0
4, 39990, Note_on_c, 0, 71, 88
4, 40019, Note_off_c, 0, 71, 0
4, 40020, Note_on_c, 0, 73, 88
4, 40049, Note_off_c, 0, 73, 0
4, 40050, Note_on_c, 0, 71, 88
4, 40079, Note_off_c, 0, 71, 0
4, 40080, Note_on_c, 0, 69, 88
4, 40196, Note_off_c, 0, 69, 0
4, 40200, Note_on_c, 0, 71, 88
4, 40316, Note_off_c, 0, 71, 0
4, 40320, Note_on_c, 0, 69, 88
4, 40436, Note_off_c, 0, 69, 0
4, 40440, Note_on_c, 0, 73, 88
4, 40498, Note_off_c, 0, 73, 0
4, 40500, Note_on_c, 0, 71, 88
4, 40558, Note_off_c, 0, 71, 0
4, 40560, Note_on_c, 0, 69, 88
4, 40618, Note_off_c, 0, 69, 0
4, 40620, Note_on_c, 0, 68, 88
4, 40678, Note_off_c, 0, 68, 0
4, 40680, Note_on_c, 0, 66, 88
4, 40796, Note_off_c, 0, 66, 0
4, 40800, Note_on_c, 0, 69, 88
4, 40858, Note_off_c, 0, 69, 0
4, 40860, Note_on_c, 0, 68, 88
4, 40918, Note_off_c, 0, 68, 0
4, 40920, Note_on_c, 0, 66, 88
4, 40978, Note_off_c, 0, 66, 0
4, 40980, Note_on_c, 0, 64, 88
4, 41038, Note_off_c, 0, 64, 0
4, 41040, Note_on_c, 0, 63, 88
4, 41156, Note_off_c, 0, 63, 0
4, 41160, Note_on_c, 0, 66, 88
4, 41276, Note_off_c, 0, 66, 0
4, 41280, Note_on_c, 0, 71, 88
4, 41393, Note_off_c, 0, 71, 0
4, 41400, Note_on_c, 0, 71, 88
4, 41876, Note_off_c, 0, 71, 0
4, 41880, Note_on_c, 0, 69, 88
4, 41938, Note_off_c, 0, 69, 0
4, 41940, Note_on_c, 0, 68, 88
4, 41998, Note_off_c, 0, 68, 0
4, 42000, Note_on_c, 0, 66, 88
4, 42058, Note_off_c, 0, 66, 0
4, 42060, Note_on_c, 0, 64, 88
4, 42118, Note_off_c, 0, 64, 0
4, 42120, Note_on_c, 0, 62, 88
4, 42236, Note_off_c, 0, 62, 0
4, 42240, Note_on_c, 0, 66, 88
4, 42298, Note_off_c, 0, 66, 0
4, 42300, Note_on_c, 0, 64, 88
4, 42358, Note_off_c, 0, 64, 0
4, 42360, Note_on_c, 0, 62, 88
4, 42418, Note_off_c, 0, 62, 0
4, 42420, Note_on_c, 0, 61, 88
4, 42478, Note_off_c, 0, 61, 0
4, 42480, Note_on_c, 0, 59, 88
4, 42596, Note_off_c, 0, 59, 0
4, 42600, Note_on_c, 0, 62, 88
4, 42716, Note_off_c, 0, 62, 0
4, 42720, Note_on_c, 0, 67, 88
4, 42833, Note_off_c, 0, 67, 0
4, 42840, Note_on_c, 0, 67, 88
4, 43316, Note_off_c, 0, 67, 0
4, 43320, Note_on_c, 0, 66, 88
4, 43378, Note_off_c, 0, 66, 0
4, 43380, Note_on_c, 0, 64, 88
4, 43438, Note_off_c, 0, 64, 0
4, 43440, Note_on_c, 0, 62, 88
4, 43498, Note_off_c, 0, 62, 0
4, 43500, Note_on_c, 0, 61, 88
4, 43558, Note_off_c, 0, 61, 0
4, 43560, Note_on_c, 0, 59, 88
4, 43676, Note_off_c, 0, 59, 0
4, 43680, Note_on_c, 0, 62, 88
4, 43738, Note_off_c, 0, 62, 0
4, 43740, Note_on_c, 0, 61, 88
4, 43798, Note_off_c, 0, 61, 0
4, 43800, Note_on_c, 0, 59, 88
4, 43858, Note_off_c, 0, 59, 0
4, 43860, Note_on_c, 0, 57, 88
4, 43918, Note_off_c, 0, 57, 0
4, 43920, Note_on_c, 0, 56, 88
4, 44036, Note_off_c, 0, 56, 0
4, 44040, Note_on_c, 0, 59, 88
4, 44156, Note_off_c, 0, 59, 0
4, 44160, Note_on_c, 0, 64, 88
4, 44276, Note_off_c, 0, 64, 0
4, 44280, Note_on_c, 0, 61, 88
4, 44396, Note_off_c, 0, 61, 0
4, 44400, Note_on_c, 0, 64, 88
4, 44516, Note_off_c, 0, 64, 0
4, 44520, Note_on_c, 0, 69, 88
4, 44636, Note_off_c, 0, 69, 0
4, 44640, Note_on_c, 0, 62, 88
4, 44874, Note_off_c, 0, 62, 0
4, 44880, Note_on_c, 0, 71, 88
4, 44996, Note_off_c, 0, 71, 0
4, 45000, Note_on_c, 0, 64, 88
4, 45116, Note_off_c, 0, 64, 0
4, 45120, Note_on_c, 0, 69, 88
4, 45236, Note_off_c, 0, 69, 0
4, 45240, Note_on_c, 0, 68, 88
4, 45356, Note_off_c, 0, 68, 0
4, 45360, Note_on_c, 0, 69, 88
4, 46068, Note_off_c, 0, 69, 0
4, 46200, Note_on_c, 0, 76, 88
4, 46258, Note_off_c, 0, 76, 0
4, 46260, Note_on_c, 0, 74, 88
4, 46318, Note_off_c, 0, 74, 0
4, 46320, Note_on_c, 0, 73, 88
4, 46378, Note_off_c, 0, 73, 0
4, 46380, Note_on_c, 0, 71, 88
4, 46438, Note_off_c, 0, 71, 0
4, 46440, Note_on_c, 0, 69, 88
4, 46556, Note_off_c, 0, 69, 0
4, 46560, Note_on_c, 0, 73, 88
4, 46676, Note_off_c, 0, 73, 0
4, 46680, Note_on_c, 0, 69, 88
4, 46796, Note_off_c, 0, 69, 0
4, 46800, Note_on_c, 0, 64, 88
4, 46916, Note_off_c, 0, 64, 0
4, 46920, Note_on_c, 0, 69, 88
4, 47036, Note_off_c, 0, 69, 0
4, 47040, Note_on_c, 0, 64, 88
4, 47156, Note_off_c, 0, 64, 0
4, 47160, Note_on_c, 0, 61, 88
4, 47276, Note_off_c, 0, 61, 0
4, 47280, Note_on_c, 0, 64, 88
4, 47396, Note_off_c, 0, 64, 0
4, 47400, Note_on_c, 0, 61, 88
4, 47516, Note_off_c, 0, 61, 0
4, 47640, Note_on_c, 0, 69, 88
4, 47698, Note_off_c, 0, 69, 0
4, 47700, Note_on_c, 0, 71, 88
4, 47758, Note_off_c, 0, 71, 0
4, 47760, Note_on_c, 0, 73, 88
4, 47818, Note_off_c, 0, 73, 0
4, 47820, Note_on_c, 0, 74, 88
4, 47878, Note_off_c, 0, 74, 0
4, 47880, Note_on_c, 0, 76, 88
4, 47996, Note_off_c, 0, 76, 0
4, 48000, Note_on_c, 0, 73, 88
4, 48116, Note_off_c, 0, 73, 0
4, 48120, Note_on_c, 0, 76, 88
4, 48236, Note_off_c, 0, 76, 0
4, 48240, Note_on_c, 0, 81, 88
4, 48298, Note_off_c, 0, 81, 0
4, 48300, Note_on_c, 0, 76, 88
4, 48358, Note_off_c, 0, 76, 0
4, 48360, Note_on_c, 0, 78, 88
4, 48418, Note_off_c, 0, 78, 0
4, 48420, Note_on_c, 0, 80, 88
4, 48478, Note_off_c, 0, 80, 0
4, 48480, Note_on_c, 0, 81, 88
4, 48538, Note_off_c, 0, 81, 0
4, 48540, Note_on_c, 0, 80, 88
4, 48598, Note_off_c, 0, 80, 0
4, 48600, Note_on_c, 0, 81, 88
4, 48658, Note_off_c, 0, 81, 0
4, 48660, Note_on_c, 0, 76, 88
4, 48718, Note_off_c, 0, 76, 0
4, 48720, Note_on_c, 0, 78, 88
4, 48778, Note_off_c, 0, 78, 0
4, 48780, Note_on_c, 0, 80, 88
4, 48838, Note_off_c, 0, 80, 0
4, 48840, Note_on_c, 0, 81, 88
4, 48898, Note_off_c, 0, 81, 0
4, 48900, Note_on_c, 0, 80, 88
4, 48958, Note_off_c, 0, 80, 0
4, 48960, Note_on_c, 0, 81, 88
4, 49076, Note_off_c, 0, 81, 0
4, 49080, Note_on_c, 0, 80, 88
4, 49138, Note_off_c, 0, 80, 0
4, 49140, Note_on_c, 0, 78, 88
4, 49198, Note_off_c, 0, 78, 0
4, 49200, Note_on_c, 0, 76, 88
4, 49258, Note_off_c, 0, 76, 0
4, 49260, Note_on_c, 0, 74, 88
4, 49318, Note_off_c, 0, 74, 0
4, 49320, Note_on_c, 0, 73, 88
4, 49378, Note_off_c, 0, 73, 0
4, 49380, Note_on_c, 0, 74, 88
4, 49438, Note_off_c, 0, 74, 0
4, 49440, Note_on_c, 0, 76, 88
4, 49498, Note_off_c, 0, 76, 0
4, 49500, Note_on_c, 0, 74, 88
4, 49558, Note_off_c, 0, 74, 0
4, 49560, Note_on_c, 0, 73, 88
4, 49618, Note_off_c, 0, 73, 0
4, 49620, Note_on_c, 0, 71, 88
4, 49673, Note_off_c, 0, 71, 0
4, 49680, Note_on_c, 0, 71, 88
4, 49716, Note_off_c, 0, 71, 0
4, 49718, Note_on_c, 0, 69, 88
4, 49747, Note_off_c, 0, 69, 0
4, 49748, Note_on_c, 0, 71, 88
4, 49777, Note_off_c, 0, 71, 0
4, 49778, Note_on_c, 0, 69, 88
4, 49807, Note_off_c, 0, 69, 0
4, 49808, Note_on_c, 0, 71, 88
4, 49837, Note_off_c, 0, 71, 0
4, 49838, Note_on_c, 0, 69, 88
4, 49867, Note_off_c, 0, 69, 0
4, 49868, Note_on_c, 0, 71, 88
4, 49897, Note_off_c, 0, 71, 0
4, 49898, Note_on_c, 0, 69, 88
4, 49927, Note_off_c, 0, 69, 0
4, 49928, Note_on_c, 0, 71, 88
4, 49957, Note_off_c, 0, 71, 0
4, 49958, Note_on_c, 0, 69, 88
4, 49987, Note_off_c, 0, 69, 0
4, 49988, Note_on_c, 0, 71, 88
4, 50017, Note_off_c, 0, 71, 0
4, 50018, Note_on_c, 0, 69, 88
4, 50047, Note_off_c, 0, 69, 0
4, 50048, Note_on_c, 0, 71, 88
4, 50077, Note_off_c, 0, 71, 0
4, 50078, Note_on_c, 0, 69, 88
4, 50107, Note_off_c, 0, 69, 0
4, 50108, Note_on_c, 0, 71, 88
4, 50137, Note_off_c, 0, 71, 0
4, 50138, Note_on_c, 0, 69, 88
4, 50167, Note_off_c, 0, 69, 0
4, 50168, Note_on_c, 0, 71, 88
4, 50197, Note_off_c, 0, 71, 0
4, 50198, Note_on_c, 0, 69, 88
4, 50227, Note_off_c, 0, 69, 0
4, 50228, Note_on_c, 0, 71, 88
4, 50257, Note_off_c, 0, 71, 0
4, 50258, Note_on_c, 0, 69, 88
4, 50287, Note_off_c, 0, 69, 0
4, 50288, Note_on_c, 0, 71, 88
4, 50317, Note_off_c, 0, 71, 0
4, 50318, Note_on_c, 0, 69, 88
4, 50347, Note_off_c, 0, 69, 0
4, 50348, Note_on_c, 0, 71, 88
4, 50369, Note_off_c, 0, 71, 0
4, 50370, Note_on_c, 0, 69, 88
4, 50399, Note_off_c, 0, 69, 0
4, 50400, Note_on_c, 0, 69, 88
4, 50458, Note_off_c, 0, 69, 0
4, 50460, Note_on_c, 0, 71, 88
4, 50518, Note_off_c, 0, 71, 0
4, 50520, Note_on_c, 0, 69, 88
4, 50578, Note_off_c, 0, 69, 0
4, 50580, Note_on_c, 0, 68, 88
4, 50638, Note_off_c, 0, 68, 0
4, 50640, Note_on_c, 0, 69, 88
4, 50698, Note_off_c, 0, 69, 0
4, 50700, Note_on_c, 0, 64, 88
4, 50758, Note_off_c, 0, 64, 0
4, 50760, Note_on_c, 0, 61, 88
4, 50818, Note_off_c, 0, 61, 0
4, 50820, Note_on_c, 0, 66, 88
4, 50878, Note_off_c, 0, 66, 0
4, 50880, Note_on_c, 0, 64, 88
4, 50938, Note_off_c, 0, 64, 0
4, 50940, Note_on_c, 0, 62, 88
4, 50998, Note_off_c, 0, 62, 0
4, 51000, Note_on_c, 0, 64, 88
4, 51058, Note_off_c, 0, 64, 0
4, 51060, Note_on_c, 0, 61, 88
4, 51118, Note_off_c, 0, 61, 0
4, 51120, Note_on_c, 0, 59, 88
4, 51156, Note_off_c, 0, 59, 0
4, 51158, Note_on_c, 0, 57, 88
4, 51187, Note_off_c, 0, 57, 0
4, 51188, Note_on_c, 0, 59, 88
4, 51217, Note_off_c, 0, 59, 0
4, 51218, Note_on_c, 0, 57, 88
4, 51247, Note_off_c, 0, 57, 0
4, 51248, Note_on_c, 0, 59, 88
4, 51277, Note_off_c, 0, 59, 0
4, 51278, Note_on_c, 0, 57, 88
4, 51307, Note_off_c, 0, 57, 0
4, 51308, Note_on_c, 0, 59, 88
4, 51337, Note_off_c, 0, 59, 0
4, 51338, Note_on_c, 0, 57, 88
4, 51367, Note_off_c, 0, 57, 0
4, 51368, Note_on_c, 0, 59, 88
4, 51397, Note_off_c, 0, 59, 0
4, 51398, Note_on_c, 0, 57, 88
4, 51427, Note_off_c, 0, 57, 0
4, 51428, Note_on_c, 0, 59, 88
4, 51457, Note_off_c, 0, 59, 0
4, 51458, Note_on_c, 0, 57, 88
4, 51487, Note_off_c, 0, 57, 0
4, 51488, Note_on_c, 0, 59, 88
4, 51517, Note_off_c, 0, 59, 0
4, 51518, Note_on_c, 0, 57, 88
4, 51547, Note_off_c, 0, 57, 0
4, 51548, Note_on_c, 0, 59, 88
4, 51577, Note_off_c, 0, 59, 0
4, 51578, Note_on_c, 0, 57, 88
4, 51607, Note_off_c, 0, 57, 0
4, 51608, Note_on_c, 0, 59, 88
4, 51637, Note_off_c, 0, 59, 0
4, 51638, Note_on_c, 0, 57, 88
4, 51667, Note_off_c, 0, 57, 0
4, 51668, Note_on_c, 0, 59, 88
4, 51697, Note_off_c, 0, 59, 0
4, 51698, Note_on_c, 0, 57, 88
4, 51727, Note_off_c, 0, 57, 0
4, 51728, Note_on_c, 0, 59, 88
4, 51757, Note_off_c, 0, 59, 0
4, 51758, Note_on_c, 0, 57, 88
4, 51787, Note_off_c, 0, 57, 0
4, 51788, Note_on_c, 0, 59, 88
4, 51809, Note_off_c, 0, 59, 0
4, 51810, Note_on_c, 0, 57, 88
4, 51839, Note_off_c, 0, 57, 0
4, 51840, Note_on_c, 0, 57, 88
4, 52015, Note_off_c, 0, 57, 0
4, 52680, Note_on_c, 0, 76, 88
4, 52738, Note_off_c, 0, 76, 0
4, 52740, Note_on_c, 0, 74, 88
4, 52798, Note_off_c, 0, 74, 0
4, 52800, Note_on_c, 0, 73, 88
4, 52858, Note_off_c, 0, 73, 0
4, 52860, Note_on_c, 0, 71, 88
4, 52918, Note_off_c, 0, 71, 0
4, 52920, Note_on_c, 0, 69, 88
4, 53036, Note_off_c, 0, 69, 0
4, 53040, Note_on_c, 0, 76, 88
4, 53156, Note_off_c, 0, 76, 0
4, 53160, Note_on_c, 0, 67, 88
4, 53276, Note_off_c, 0, 67, 0
4, 53280, Note_on_c, 0, 66, 88
4, 53455, Note_off_c, 0, 66, 0
4, 54120, Note_on_c, 0, 81, 88
4, 54178, Note_off_c, 0, 81, 0
4, 54180, Note_on_c, 0, 79, 88
4, 54238, Note_off_c, 0, 79, 0
4, 54240, Note_on_c, 0, 78, 88
4, 54298, Note_off_c, 0, 78, 0
4, 54300, Note_on_c, 0, 76, 88
4, 54358, Note_off_c, 0, 76, 0
4, 54360, Note_on_c, 0, 74, 88
4, 54476, Note_off_c, 0, 74, 0
4, 54480, Note_on_c, 0, 81, 88
4, 54596, Note_off_c, 0, 81, 0
4, 54600, Note_on_c, 0, 72, 88
4, 54716, Note_off_c, 0, 72, 0
4, 54720, Note_on_c, 0, 71, 88
4, 55547, Note_off_c, 0, 71, 0
4, 55560, Note_on_c, 0, 73, 88
4, 55618, Note_off_c, 0, 73, 0
4, 55620, Note_on_c, 0, 71, 88
4, 55678, Note_off_c, 0, 71, 0
4, 55680, Note_on_c, 0, 70, 88
4, 55738, Note_off_c, 0, 70, 0
4, 55740, Note_on_c, 0, 71, 88
4, 55798, Note_off_c, 0, 71, 0
4, 55800, Note_on_c, 0, 73, 88
4, 56276, Note_off_c, 0, 73, 0
4, 56280, Note_on_c, 0, 74, 88
4, 56338, Note_off_c, 0, 74, 0
4, 56340, Note_on_c, 0, 73, 88
4, 56398, Note_off_c, 0, 73, 0
4, 56400, Note_on_c, 0, 71, 88
4, 56458, Note_off_c, 0, 71, 0
4, 56460, Note_on_c, 0, 73, 88
4, 56518, Note_off_c, 0, 73, 0
4, 56520, Note_on_c, 0, 74, 88
4, 56990, Note_off_c, 0, 74, 0
4, 57000, Note_on_c, 0, 76, 88
4, 57058, Note_off_c, 0, 76, 0
4, 57060, Note_on_c, 0, 74, 88
4, 57118, Note_off_c, 0, 74, 0
4, 57120, Note_on_c, 0, 73, 88
4, 57178, Note_off_c, 0, 73, 0
4, 57180, Note_on_c, 0, 74, 88
4, 57238, Note_off_c, 0, 74, 0
4, 57240, Note_on_c, 0, 76, 88
4, 57716, Note_off_c, 0, 76, 0
4, 57720, Note_on_c, 0, 79, 88
4, 57778, Note_off_c, 0, 79, 0
4, 57780, Note_on_c, 0, 78, 88
4, 57838, Note_off_c, 0, 78, 0
4, 57840, Note_on_c, 0, 76, 88
4, 57898, Note_off_c, 0, 76, 0
4, 57900, Note_on_c, 0, 75, 88
4, 57958, Note_off_c, 0, 75, 0
4, 57960, Note_on_c, 0, 76, 88
4, 58076, Note_off_c, 0, 76, 0
4, 58080, Note_on_c, 0, 79, 88
4, 58196, Note_off_c, 0, 79, 0
4, 58200, Note_on_c, 0, 75, 88
4, 58316, Note_off_c, 0, 75, 0
4, 58320, Note_on_c, 0, 76, 88
4, 58436, Note_off_c, 0, 76, 0
4, 58440, Note_on_c, 0, 79, 88
4, 58498, Note_off_c, 0, 79, 0
4, 58500, Note_on_c, 0, 78, 88
4, 58558, Note_off_c, 0, 78, 0
4, 58560, Note_on_c, 0, 76, 88
4, 58618, Note_off_c, 0, 76, 0
4, 58620, Note_on_c, 0, 75, 88
4, 58678, Note_off_c, 0, 75, 0
4, 58680, Note_on_c, 0, 76, 88
4, 58796, Note_off_c, 0, 76, 0
4, 58800, Note_on_c, 0, 78, 88
4, 58858, Note_off_c, 0, 78, 0
4, 58860, Note_on_c, 0, 76, 88
4, 58918, Note_off_c, 0, 76, 0
4, 58920, Note_on_c, 0, 75, 88
4, 58978, Note_off_c, 0, 75, 0
4, 58980, Note_on_c, 0, 73, 88
4, 59038, Note_off_c, 0, 73, 0
4, 59040, Note_on_c, 0, 75, 88
4, 59215, Note_off_c, 0, 75, 0
4, 59760, Note_on_c, 0, 78, 88
4, 59935, Note_off_c, 0, 78, 0
4, 60540, Note_on_c, 0, 71, 88
4, 60598, Note_off_c, 0, 71, 0
4, 60600, Note_on_c, 0, 73, 88
4, 60658, Note_off_c, 0, 73, 0
4, 60660, Note_on_c, 0, 75, 88
4, 60718, Note_off_c, 0, 75, 0
4, 60720, Note_on_c, 0, 76, 88
4, 60778, Note_off_c, 0, 76, 0
4, 60780, Note_on_c, 0, 78, 88
4, 60838, Note_off_c, 0, 78, 0
4, 60840, Note_on_c, 0, 79, 88
4, 60898, Note_off_c, 0, 79, 0
4, 60900, Note_on_c, 0, 78, 88
4, 60958, Note_off_c, 0, 78, 0
4, 60960, Note_on_c, 0, 76, 88
4, 61018, Note_off_c, 0, 76, 0
4, 61020, Note_on_c, 0, 74, 88
4, 61078, Note_off_c, 0, 74, 0
4, 61080, Note_on_c, 0, 73, 88
4, 61138, Note_off_c, 0, 73, 0
4, 61140, Note_on_c, 0, 71, 88
4, 61198, Note_off_c, 0, 71, 0
4, 61200, Note_on_c, 0, 76, 88
4, 61258, Note_off_c, 0, 76, 0
4, 61260, Note_on_c, 0, 74, 88
4, 61318, Note_off_c, 0, 74, 0
4, 61320, Note_on_c, 0, 73, 88
4, 61378, Note_off_c, 0, 73, 0
4, 61380, Note_on_c, 0, 71, 88
4, 61438, Note_off_c, 0, 71, 0
4, 61440, Note_on_c, 0, 69, 88
4, 61498, Note_off_c, 0, 69, 0
4, 61500, Note_on_c, 0, 68, 88
4, 61558, Note_off_c, 0, 68, 0
4, 61560, Note_on_c, 0, 73, 88
4, 61618, Note_off_c, 0, 73, 0
4, 61620, Note_on_c, 0, 71, 88
4, 61678, Note_off_c, 0, 71, 0
4, 61680, Note_on_c, 0, 69, 88
4, 61738, Note_off_c, 0, 69, 0
4, 61740, Note_on_c, 0, 67, 88
4, 61798, Note_off_c, 0, 67, 0
4, 61800, Note_on_c, 0, 66, 88
4, 61858, Note_off_c, 0, 66, 0
4, 61860, Note_on_c, 0, 64, 88
4, 61918, Note_off_c, 0, 64, 0
4, 61920, Note_on_c, 0, 66, 88
4, 61978, Note_off_c, 0, 66, 0
4, 61980, Note_on_c, 0, 69, 88
4, 62038, Note_off_c, 0, 69, 0
4, 62040, Note_on_c, 0, 71, 88
4, 62098, Note_off_c, 0, 71, 0
4, 62100, Note_on_c, 0, 73, 88
4, 62158, Note_off_c, 0, 73, 0
4, 62160, Note_on_c, 0, 74, 88
4, 62218, Note_off_c, 0, 74, 0
4, 62220, Note_on_c, 0, 76, 88
4, 62278, Note_off_c, 0, 76, 0
4, 62280, Note_on_c, 0, 78, 88
4, 62338, Note_off_c, 0, 78, 0
4, 62340, Note_on_c, 0, 76, 88
4, 62398, Note_off_c, 0, 76, 0
4, 62400, Note_on_c, 0, 74, 88
4, 62458, Note_off_c, 0, 74, 0
4, 62460, Note_on_c, 0, 73, 88
4, 62518, Note_off_c, 0, 73, 0
4, 62520, Note_on_c, 0, 71, 88
4, 62578, Note_off_c, 0, 71, 0
4, 62580, Note_on_c, 0, 69, 88
4, 62638, Note_off_c, 0, 69, 0
4, 62640, Note_on_c, 0, 68, 88
4, 62698, Note_off_c, 0, 68, 0
4, 62700, Note_on_c, 0, 71, 88
4, 62758, Note_off_c, 0, 71, 0
4, 62760, Note_on_c, 0, 76, 88
4, 62818, Note_off_c, 0, 76, 0
4, 62820, Note_on_c, 0, 74, 88
4, 62878, Note_off_c, 0, 74, 0
4, 62880, Note_on_c, 0, 76, 88
4, 63055, Note_off_c, 0, 76, 0
4, 63060, Note_on_c, 0, 70, 88
4, 63118, Note_off_c, 0, 70, 0
4, 63120, Note_on_c, 0, 73, 88
4, 63178, Note_off_c, 0, 73, 0
4, 63180, Note_on_c, 0, 74, 88
4, 63238, Note_off_c, 0, 74, 0
4, 63240, Note_on_c, 0, 76, 88
4, 63418, Note_off_c, 0, 76, 0
4, 63420, Note_on_c, 0, 66, 88
4, 63478, Note_off_c, 0, 66, 0
4, 63480, Note_on_c, 0, 68, 88
4, 63538, Note_off_c, 0, 68, 0
4, 63540, Note_on_c, 0, 70, 88
4, 63598, Note_off_c, 0, 70, 0
4, 63600, Note_on_c, 0, 71, 88
4, 63658, Note_off_c, 0, 71, 0
4, 63660, Note_on_c, 0, 73, 88
4, 63718, Note_off_c, 0, 73, 0
4, 63720, Note_on_c, 0, 74, 88
4, 63778, Note_off_c, 0, 74, 0
4, 63780, Note_on_c, 0, 73, 88
4, 63838, Note_off_c, 0, 73, 0
4, 63840, Note_on_c, 0, 71, 88
4, 63898, Note_off_c, 0, 71, 0
4, 63900, Note_on_c, 0, 69, 88
4, 63958, Note_off_c, 0, 69, 0
4, 63960, Note_on_c, 0, 67, 88
4, 64018, Note_off_c, 0, 67, 0
4, 64020, Note_on_c, 0, 66, 88
4, 64078, Note_off_c, 0, 66, 0
4, 64080, Note_on_c, 0, 71, 88
4, 64138, Note_off_c, 0, 71, 0
4, 64140, Note_on_c, 0, 69, 88
4, 64198, Note_off_c, 0, 69, 0
4, 64200, Note_on_c, 0, 67, 88
4, 64258, Note_off_c, 0, 67, 0
4, 64260, Note_on_c, 0, 66, 88
4, 64318, Note_off_c, 0, 66, 0
4, 64320, Note_on_c, 0, 64, 88
4, 64378, Note_off_c, 0, 64, 0
4, 64380, Note_on_c, 0, 62, 88
4, 64438, Note_off_c, 0, 62, 0
4, 64440, Note_on_c, 0, 67, 88
4, 64498, Note_off_c, 0, 67, 0
4, 64500, Note_on_c, 0, 66, 88
4, 64558, Note_off_c, 0, 66, 0
4, 64560, Note_on_c, 0, 64, 88
4, 64618, Note_off_c, 0, 64, 0
4, 64620, Note_on_c, 0, 62, 88
4, 64678, Note_off_c, 0, 62, 0
4, 64680, Note_on_c, 0, 61, 88
4, 64738, Note_off_c, 0, 61, 0
4, 64740, Note_on_c, 0, 64, 88
4, 64798, Note_off_c, 0, 64, 0
4, 64800, Note_on_c, 0, 58, 88
4, 64916, Note_off_c, 0, 58, 0
4, 64920, Note_on_c, 0, 79, 88
4, 64978, Note_off_c, 0, 79, 0
4, 64980, Note_on_c, 0, 78, 88
4, 65038, Note_off_c, 0, 78, 0
4, 65040, Note_on_c, 0, 76, 88
4, 65098, Note_off_c, 0, 76, 0
4, 65100, Note_on_c, 0, 74, 88
4, 65158, Note_off_c, 0, 74, 0
4, 65160, Note_on_c, 0, 73, 88
4, 65276, Note_off_c, 0, 73, 0
4, 65280, Note_on_c, 0, 76, 88
4, 65396, Note_off_c, 0, 76, 0
4, 65400, Note_on_c, 0, 73, 88
4, 65516, Note_off_c, 0, 73, 0
4, 65520, Note_on_c, 0, 70, 88
4, 65636, Note_off_c, 0, 70, 0
4, 65640, Note_on_c, 0, 73, 88
4, 65756, Note_off_c, 0, 73, 0
4, 65760, Note_on_c, 0, 70, 88
4, 65876, Note_off_c, 0, 70, 0
4, 65880, Note_on_c, 0, 64, 88
4, 65996, Note_off_c, 0, 64, 0
4, 66000, Note_on_c, 0, 70, 88
4, 66116, Note_off_c, 0, 70, 0
4, 66120, Note_on_c, 0, 64, 88
4, 66236, Note_off_c, 0, 64, 0
4, 66240, Note_on_c, 0, 62, 88
4, 66415, Note_off_c, 0, 62, 0
4, 66600, Note_on_c, 0, 71, 88
4, 66953, Note_off_c, 0, 71, 0
4, 66960, Note_on_c, 0, 74, 88
4, 67313, Note_off_c, 0, 74, 0
4, 67320, Note_on_c, 0, 77, 88
4, 67673, Note_off_c, 0, 77, 0
4, 67680, Note_on_c, 0, 78, 88
4, 67914, Note_off_c, 0, 78, 0
4, 67920, Note_on_c, 0, 76, 88
4, 68036, Note_off_c, 0, 76, 0
4, 68040, Note_on_c, 0, 74, 88
4, 68274, Note_off_c, 0, 74, 0
4, 68280, Note_on_c, 0, 79, 88
4, 68396, Note_off_c, 0, 79, 0
4, 68400, Note_on_c, 0, 74, 88
4, 68753, Note_off_c, 0, 74, 0
4, 68760, Note_on_c, 0, 74, 88
4, 68789, Note_off_c, 0, 74, 0
4, 68790, Note_on_c, 0, 73, 88
4, 68819, Note_off_c, 0, 73, 0
4, 68820, Note_on_c, 0, 74, 88
4, 68849, Note_off_c, 0, 74, 0
4, 68850, Note_on_c, 0, 73, 88
4, 68879, Note_off_c, 0, 73, 0
4, 68880, Note_on_c, 0, 71, 88
4, 68996, Note_off_c, 0, 71, 0
4, 69000, Note_on_c, 0, 73, 88
4, 69116, Note_off_c, 0, 73, 0
4, 69120, Note_on_c, 0, 71, 88
4, 69236, Note_off_c, 0, 71, 0
4, 69240, Note_on_c, 0, 74, 88
4, 69298, Note_off_c, 0, 74, 0
4, 69300, Note_on_c, 0, 73, 88
4, 69358, Note_off_c, 0, 73, 0
4, 69360, Note_on_c, 0, 71, 88
4, 69418, Note_off_c, 0, 71, 0
4, 69420, Note_on_c, 0, 69, 88
4, 69478, Note_off_c, 0, 69, 0
4, 69480, Note_on_c, 0, 67, 88
4, 69596, Note_off_c, 0, 67, 0
4, 69600, Note_on_c, 0, 71, 88
4, 69658, Note_off_c, 0, 71, 0
4, 69660, Note_on_c, 0, 69, 88
4, 69718, Note_off_c, 0, 69, 0
4, 69720, Note_on_c, 0, 67, 88
4, 69778, Note_off_c, 0, 67, 0
4, 69780, Note_on_c, 0, 66, 88
4, 69838, Note_off_c, 0, 66, 0
4, 69840, Note_on_c, 0, 64, 88
4, 69956, Note_off_c, 0, 64, 0
4, 69960, Note_on_c, 0, 67, 88
4, 70076, Note_off_c, 0, 67, 0
4, 70080, Note_on_c, 0, 72, 88
4, 70193, Note_off_c, 0, 72, 0
4, 70200, Note_on_c, 0, 72, 88
4, 70794, Note_off_c, 0, 72, 0
4, 70800, Note_on_c, 0, 71, 88
4, 70913, Note_off_c, 0, 71, 0
4, 70920, Note_on_c, 0, 71, 88
4, 71510, Note_off_c, 0, 71, 0
4, 71520, Note_on_c, 0, 69, 88
4, 71633, Note_off_c, 0, 69, 0
4, 71640, Note_on_c, 0, 69, 88
4, 72234, Note_off_c, 0, 69, 0
4, 72240, Note_on_c, 0, 67, 88
4, 72353, Note_off_c, 0, 67, 0
4, 72360, Note_on_c, 0, 67, 88
4, 72950, Note_off_c, 0, 67, 0
4, 72960, Note_on_c, 0, 66, 88
4, 73193, Note_off_c, 0, 66, 0
4, 73200, Note_on_c, 0, 66, 88
4, 73316, Note_off_c, 0, 66, 0
4, 73320, Note_on_c, 0, 72, 88
4, 73436, Note_off_c, 0, 72, 0
4, 73440, Note_on_c, 0, 71, 88
4, 73910, Note_off_c, 0, 71, 0
4, 73920, Note_on_c, 0, 73, 88
4, 74036, Note_off_c, 0, 73, 0
4, 74040, Note_on_c, 0, 74, 88
4, 74274, Note_off_c, 0, 74, 0
4, 74280, Note_on_c, 0, 71, 88
4, 74396, Note_off_c, 0, 71, 0
4, 74400, Note_on_c, 0, 73, 88
4, 74516, Note_off_c, 0, 73, 0
4, 74520, Note_on_c, 0, 76, 88
4, 74996, Note_off_c, 0, 76, 0
4, 75000, Note_on_c, 0, 73, 88
4, 75116, Note_off_c, 0, 73, 0
4, 75120, Note_on_c, 0, 74, 88
4, 75236, Note_off_c, 0, 74, 0
4, 75240, Note_on_c, 0, 79, 88
4, 75710, Note_off_c, 0, 79, 0
4, 75720, Note_on_c, 0, 78, 88
4, 75836, Note_off_c, 0, 78, 0
4, 75840, Note_on_c, 0, 76, 88
4, 75956, Note_off_c, 0, 76, 0
4, 75960, Note_on_c, 0, 78, 88
4, 76436, Note_off_c, 0, 78, 0
4, 76440, Note_on_c, 0, 76, 88
4, 76556, Note_off_c, 0, 76, 0
4, 76560, Note_on_c, 0, 74, 88
4, 76676, Note_off_c, 0, 74, 0
4, 76680, Note_on_c, 0, 76, 88
4, 76796, Note_off_c, 0, 76, 0
4, 76800, Note_on_c, 0, 73, 88
4, 76916, Note_off_c, 0, 73, 0
4, 76920, Note_on_c, 0, 74, 88
4, 77033, Note_off_c, 0, 74, 0
4, 77040, Note_on_c, 0, 74, 88
4, 77062, Note_off_c, 0, 74, 0
4, 77063, Note_on_c, 0, 73, 88
4, 77092, Note_off_c, 0, 73, 0
4, 77093, Note_on_c, 0, 74, 88
4, 77122, Note_off_c, 0, 74, 0
4, 77123, Note_on_c, 0, 73, 88
4, 77152, Note_off_c, 0, 73, 0
4, 77153, Note_on_c, 0, 74, 88
4, 77182, Note_off_c, 0, 74, 0
4, 77183, Note_on_c, 0, 73, 88
4, 77212, Note_off_c, 0, 73, 0
4, 77213, Note_on_c, 0, 74, 88
4, 77234, Note_off_c, 0, 74, 0
4, 77235, Note_on_c, 0, 73, 88
4, 77257, Note_off_c, 0, 73, 0
4, 77258, Note_on_c, 0, 74, 88
4, 77279, Note_off_c, 0, 74, 0
4, 77280, Note_on_c, 0, 73, 88
4, 77396, Note_off_c, 0, 73, 0
4, 77760, Note_on_c, 0, 70, 88
4, 78113, Note_off_c, 0, 70, 0
4, 78120, Note_on_c, 0, 69, 88
4, 78473, Note_off_c, 0, 69, 0
4, 78480, Note_on_c, 0, 67, 88
4, 78833, Note_off_c, 0, 67, 0
4, 78840, Note_on_c, 0, 65, 88
4, 79258, Note_off_c, 0, 65, 0
4, 79260, Note_on_c, 0, 64, 88
4, 79318, Note_off_c, 0, 64, 0
4, 79320, Note_on_c, 0, 62, 88
4, 79378, Note_off_c, 0, 62, 0
4, 79380, Note_on_c, 0, 61, 88
4, 79438, Note_off_c, 0, 61, 0
4, 79440, Note_on_c, 0, 62, 88
4, 79498, Note_off_c, 0, 62, 0
4, 79500, Note_on_c, 0, 65, 88
4, 79558, Note_off_c, 0, 65, 0
4, 79560, Note_on_c, 0, 71, 88
4, 79618, Note_off_c, 0, 71, 0
4, 79620, Note_on_c, 0, 65, 88
4, 79678, Note_off_c, 0, 65, 0
4, 79680, Note_on_c, 0, 64, 88
4, 79738, Note_off_c, 0, 64, 0
4, 79740, Note_on_c, 0, 62, 88
4, 79798, Note_off_c, 0, 62, 0
4, 79800, Note_on_c, 0, 61, 88
4, 79858, Note_off_c, 0, 61, 0
4, 79860, Note_on_c, 0, 59, 88
4, 79918, Note_off_c, 0, 59, 0
4, 79920, Note_on_c, 0, 61, 88
4, 80095, Note_off_c, 0, 61, 0
4, 82440, Note_on_c, 0, 78, 88
4, 82793, Note_off_c, 0, 78, 0
4, 82800, Note_on_c, 0, 78, 88
4, 82975, Note_off_c, 0, 78, 0
4, 82980, Note_on_c, 0, 76, 88
4, 83153, Note_off_c, 0, 76, 0
4, 83160, Note_on_c, 0, 76, 88
4, 83335, Note_off_c, 0, 76, 0
4, 83340, Note_on_c, 0, 74, 88
4, 83515, Note_off_c, 0, 74, 0
4, 83520, Note_on_c, 0, 74, 88
4, 83636, Note_off_c, 0, 74, 0
4, 83640, Note_on_c, 0, 62, 88
4, 83698, Note_off_c, 0, 62, 0
4, 83700, Note_on_c, 0, 64, 88
4, 83758, Note_off_c, 0, 64, 0
4, 83760, Note_on_c, 0, 66, 88
4, 83818, Note_off_c, 0, 66, 0
4, 83820, Note_on_c, 0, 67, 88
4, 83878, Note_off_c, 0, 67, 0
4, 83880, Note_on_c, 0, 69, 88
4, 83996, Note_off_c, 0, 69, 0
4, 84000, Note_on_c, 0, 66, 88
4, 84116, Note_off_c, 0, 66, 0
4, 84120, Note_on_c, 0, 69, 88
4, 84236, Note_off_c, 0, 69, 0
4, 84240, Note_on_c, 0, 72, 88
4, 84356, Note_off_c, 0, 72, 0
4, 84360, Note_on_c, 0, 69, 88
4, 84476, Note_off_c, 0, 69, 0
4, 84480, Note_on_c, 0, 72, 88
4, 84596, Note_off_c, 0, 72, 0
4, 84600, Note_on_c, 0, 78, 88
4, 84716, Note_off_c, 0, 78, 0
4, 84720, Note_on_c, 0, 72, 88
4, 84836, Note_off_c, 0, 72, 0
4, 84840, Note_on_c, 0, 78, 88
4, 84956, Note_off_c, 0, 78, 0
4, 84960, Note_on_c, 0, 81, 88
4, 85313, Note_off_c, 0, 81, 0
4, 85320, Note_on_c, 0, 72, 88
4, 85673, Note_off_c, 0, 72, 0
4, 85680, Note_on_c, 0, 72, 88
4, 85855, Note_off_c, 0, 72, 0
4, 85860, Note_on_c, 0, 71, 88
4, 86033, Note_off_c, 0, 71, 0
4, 86040, Note_on_c, 0, 71, 88
4, 86215, Note_off_c, 0, 71, 0
4, 86220, Note_on_c, 0, 69, 88
4, 86395, Note_off_c, 0, 69, 0
4, 86400, Note_on_c, 0, 71, 88
4, 86516, Note_off_c, 0, 71, 0
4, 86520, Note_on_c, 0, 83, 88
4, 86578, Note_off_c, 0, 83, 0
4, 86580, Note_on_c, 0, 81, 88
4, 86638, Note_off_c, 0, 81, 0
4, 86640, Note_on_c, 0, 79, 88
4, 86698, Note_off_c, 0, 79, 0
4, 86700, Note_on_c, 0, 78, 88
4, 86758, Note_off_c, 0, 78, 0
4, 86760, Note_on_c, 0, 76, 88
4, 86876, Note_off_c, 0, 76, 0
4, 86880, Note_on_c, 0, 79, 88
4, 86996, Note_off_c, 0, 79, 0
4, 87000, Note_on_c, 0, 76, 88
4, 87116, Note_off_c, 0, 76, 0
4, 87120, Note_on_c, 0, 73, 88
4, 87295, Note_off_c, 0, 73, 0
4, 87960, Note_on_c, 0, 81, 88
4, 88018, Note_off_c, 0, 81, 0
4, 88020, Note_on_c, 0, 79, 88
4, 88078, Note_off_c, 0, 79, 0
4, 88080, Note_on_c, 0, 78, 88
4, 88138, Note_off_c, 0, 78, 0
4, 88140, Note_on_c, 0, 76, 88
4, 88198, Note_off_c, 0, 76, 0
4, 88200, Note_on_c, 0, 74, 88
4, 88316, Note_off_c, 0, 74, 0
4, 88320, Note_on_c, 0, 78, 88
4, 88436, Note_off_c, 0, 78, 0
4, 88440, Note_on_c, 0, 74, 88
4, 88556, Note_off_c, 0, 74, 0
4, 88560, Note_on_c, 0, 71, 88
4, 88735, Note_off_c, 0, 71, 0
4, 89520, Note_on_c, 0, 71, 88
4, 89633, Note_off_c, 0, 71, 0
4, 89640, Note_on_c, 0, 71, 88
4, 89873, Note_off_c, 0, 71, 0
4, 89880, Note_on_c, 0, 71, 88
4, 89996, Note_off_c, 0, 71, 0
4, 90000, Note_on_c, 0, 69, 88
4, 90353, Note_off_c, 0, 69, 0
4, 91080, Note_on_c, 0, 74, 88
4, 91433, Note_off_c, 0, 74, 0
4, 91440, Note_on_c, 0, 71, 88
4, 91793, Note_off_c, 0, 71, 0
4, 91800, Note_on_c, 0, 76, 88
4, 92513, Note_off_c, 0, 76, 0
4, 92520, Note_on_c, 0, 74, 88
4, 92754, Note_off_c, 0, 74, 0
4, 92760, Note_on_c, 0, 72, 88
4, 92876, Note_off_c, 0, 72, 0
4, 92880, Note_on_c, 0, 71, 88
4, 93114, Note_off_c, 0, 71, 0
4, 93120, Note_on_c, 0, 69, 88
4, 93236, Note_off_c, 0, 69, 0
4, 93240, Note_on_c, 0, 67, 88
4, 93953, Note_off_c, 0, 67, 0
4, 93960, Note_on_c, 0, 67, 88
4, 94313, Note_off_c, 0, 67, 0
4, 94320, Note_on_c, 0, 73, 88
4, 94673, Note_off_c, 0, 73, 0
4, 94680, Note_on_c, 0, 76, 88
4, 95156, Note_off_c, 0, 76, 0
4, 95160, Note_on_c, 0, 74, 88
4, 95218, Note_off_c, 0, 74, 0
4, 95220, Note_on_c, 0, 73, 88
4, 95278, Note_off_c, 0, 73, 0
4, 95280, Note_on_c, 0, 71, 88
4, 95338, Note_off_c, 0, 71, 0
4, 95340, Note_on_c, 0, 69, 88
4, 95398, Note_off_c, 0, 69, 0
4, 95400, Note_on_c, 0, 68, 88
4, 95516, Note_off_c, 0, 68, 0
4, 95520, Note_on_c, 0, 71, 88
4, 95636, Note_off_c, 0, 71, 0
4, 95640, Note_on_c, 0, 68, 88
4, 95756, Note_off_c, 0, 68, 0
4, 95760, Note_on_c, 0, 62, 88
4, 95876, Note_off_c, 0, 62, 0
4, 95880, Note_on_c, 0, 68, 88
4, 95996, Note_off_c, 0, 68, 0
4, 96000, Note_on_c, 0, 62, 88
4, 96116, Note_off_c, 0, 62, 0
4, 96120, Note_on_c, 0, 59, 88
4, 96236, Note_off_c, 0, 59, 0
4, 96240, Note_on_c, 0, 62, 88
4, 96356, Note_off_c, 0, 62, 0
4, 96360, Note_on_c, 0, 59, 88
4, 96476, Note_off_c, 0, 59, 0
4, 96480, Note_on_c, 0, 61, 88
4, 96596, Note_off_c, 0, 61, 0
4, 96600, Note_on_c, 0, 59, 88
4, 96716, Note_off_c, 0, 59, 0
4, 96720, Note_on_c, 0, 57, 88
4, 96836, Note_off_c, 0, 57, 0
4, 96840, Note_on_c, 0, 62, 88
4, 97074, Note_off_c, 0, 62, 0
4, 97080, Note_on_c, 0, 67, 88
4, 97314, Note_off_c, 0, 67, 0
4, 97320, Note_on_c, 0, 66, 88
4, 97378, Note_off_c, 0, 66, 0
4, 97380, Note_on_c, 0, 64, 88
4, 97438, Note_off_c, 0, 64, 0
4, 97440, Note_on_c, 0, 66, 88
4, 97556, Note_off_c, 0, 66, 0
4, 97560, Note_on_c, 0, 64, 88
4, 97794, Note_off_c, 0, 64, 0
4, 97800, Note_on_c, 0, 69, 88
4, 97916, Note_off_c, 0, 69, 0
4, 97920, Note_on_c, 0, 66, 88
4, 97978, Note_off_c, 0, 66, 0
4, 97980, Note_on_c, 0, 69, 88
4, 98038, Note_off_c, 0, 69, 0
4, 98040, Note_on_c, 0, 71, 88
4, 98098, Note_off_c, 0, 71, 0
4, 98100, Note_on_c, 0, 73, 88
4, 98158, Note_off_c, 0, 73, 0
4, 98160, Note_on_c, 0, 74, 88
4, 98218, Note_off_c, 0, 74, 0
4, 98220, Note_on_c, 0, 76, 88
4, 98278, Note_off_c, 0, 76, 0
4, 98280, Note_on_c, 0, 78, 88
4, 98338, Note_off_c, 0, 78, 0
4, 98340, Note_on_c, 0, 76, 88
4, 98398, Note_off_c, 0, 76, 0
4, 98400, Note_on_c, 0, 74, 88
4, 98458, Note_off_c, 0, 74, 0
4, 98460, Note_on_c, 0, 73, 88
4, 98518, Note_off_c, 0, 73, 0
4, 98520, Note_on_c, 0, 71, 88
4, 98578, Note_off_c, 0, 71, 0
4, 98580, Note_on_c, 0, 69, 88
4, 98638, Note_off_c, 0, 69, 0
4, 98640, Note_on_c, 0, 68, 88
4, 98756, Note_off_c, 0, 68, 0
4, 98760, Note_on_c, 0, 71, 88
4, 98876, Note_off_c, 0, 71, 0
4, 98880, Note_on_c, 0, 76, 88
4, 98993, Note_off_c, 0, 76, 0
4, 99000, Note_on_c, 0, 76, 88
4, 99713, Note_off_c, 0, 76, 0
4, 99720, Note_on_c, 0, 74, 88
4, 99778, Note_off_c, 0, 74, 0
4, 99780, Note_on_c, 0, 73, 88
4, 99838, Note_off_c, 0, 73, 0
4, 99840, Note_on_c, 0, 71, 88
4, 99898, Note_off_c, 0, 71, 0
4, 99900, Note_on_c, 0, 69, 88
4, 99958, Note_off_c, 0, 69, 0
4, 99960, Note_on_c, 0, 67, 88
4, 100018, Note_off_c, 0, 67, 0
4, 100020, Note_on_c, 0, 66, 88
4, 100078, Note_off_c, 0, 66, 0
4, 100080, Note_on_c, 0, 64, 88
4, 100196, Note_off_c, 0, 64, 0
4, 100200, Note_on_c, 0, 67, 88
4, 100316, Note_off_c, 0, 67, 0
4, 100320, Note_on_c, 0, 72, 88
4, 100433, Note_off_c, 0, 72, 0
4, 100440, Note_on_c, 0, 72, 88
4, 101153, Note_off_c, 0, 72, 0
4, 101160, Note_on_c, 0, 71, 88
4, 101218, Note_off_c, 0, 71, 0
4, 101220, Note_on_c, 0, 69, 88
4, 101278, Note_off_c, 0, 69, 0
4, 101280, Note_on_c, 0, 67, 88
4, 101338, Note_off_c, 0, 67, 0
4, 101340, Note_on_c, 0, 66, 88
4, 101398, Note_off_c, 0, 66, 0
4, 101400, Note_on_c, 0, 64, 88
4, 101458, Note_off_c, 0, 64, 0
4, 101460, Note_on_c, 0, 62, 88
4, 101518, Note_off_c, 0, 62, 0
4, 101520, Note_on_c, 0, 61, 88
4, 101636, Note_off_c, 0, 61, 0
4, 101640, Note_on_c, 0, 64, 88
4, 101756, Note_off_c, 0, 64, 0
4, 101760, Note_on_c, 0, 69, 88
4, 101876, Note_off_c, 0, 69, 0
4, 101880, Note_on_c, 0, 66, 88
4, 101996, Note_off_c, 0, 66, 0
4, 102000, Note_on_c, 0, 69, 88
4, 102116, Note_off_c, 0, 69, 0
4, 102120, Note_on_c, 0, 74, 88
4, 102236, Note_off_c, 0, 74, 0
4, 102240, Note_on_c, 0, 67, 88
4, 102474, Note_off_c, 0, 67, 0
4, 102480, Note_on_c, 0, 76, 88
4, 102596, Note_off_c, 0, 76, 0
4, 102600, Note_on_c, 0, 69, 88
4, 102716, Note_off_c, 0, 69, 0
4, 102720, Note_on_c, 0, 74, 88
4, 102836, Note_off_c, 0, 74, 0
4, 102840, Note_on_c, 0, 73, 88
4, 102956, Note_off_c, 0, 73, 0
4, 102960, Note_on_c, 0, 74, 88
4, 103668, Note_off_c, 0, 74, 0
4, 103800, Note_on_c, 0, 76, 88
4, 103858, Note_off_c, 0, 76, 0
4, 103860, Note_on_c, 0, 74, 88
4, 103918, Note_off_c, 0, 74, 0
4, 103920, Note_on_c, 0, 73, 88
4, 103978, Note_off_c, 0, 73, 0
4, 103980, Note_on_c, 0, 71, 88
4, 104038, Note_off_c, 0, 71, 0
4, 104040, Note_on_c, 0, 69, 88
4, 104156, Note_off_c, 0, 69, 0
4, 104160, Note_on_c, 0, 73, 88
4, 104276, Note_off_c, 0, 73, 0
4, 104280, Note_on_c, 0, 69, 88
4, 104396, Note_off_c, 0, 69, 0
4, 104400, Note_on_c, 0, 64, 88
4, 104516, Note_off_c, 0, 64, 0
4, 104520, Note_on_c, 0, 69, 88
4, 104636, Note_off_c, 0, 69, 0
4, 104640, Note_on_c, 0, 64, 88
4, 104756, Note_off_c, 0, 64, 0
4, 104760, Note_on_c, 0, 61, 88
4, 104876, Note_off_c, 0, 61, 0
4, 104880, Note_on_c, 0, 64, 88
4, 104996, Note_off_c, 0, 64, 0
4, 105000, Note_on_c, 0, 61, 88
4, 105116, Note_off_c, 0, 61, 0
4, 105240, Note_on_c, 0, 69, 88
4, 105298, Note_off_c, 0, 69, 0
4, 105300, Note_on_c, 0, 71, 88
4, 105358, Note_off_c, 0, 71, 0
4, 105360, Note_on_c, 0, 73, 88
4, 105418, Note_off_c, 0, 73, 0
4, 105420, Note_on_c, 0, 74, 88
4, 105478, Note_off_c, 0, 74, 0
4, 105480, Note_on_c, 0, 76, 88
4, 105596, Note_off_c, 0, 76, 0
4, 105600, Note_on_c, 0, 73, 88
4, 105716, Note_off_c, 0, 73, 0
4, 105720, Note_on_c, 0, 76, 88
4, 105836, Note_off_c, 0, 76, 0
4, 105840, Note_on_c, 0, 81, 88
4, 105898, Note_off_c, 0, 81, 0
4, 105900, Note_on_c, 0, 76, 88
4, 105958, Note_off_c, 0, 76, 0
4, 105960, Note_on_c, 0, 78, 88
4, 106018, Note_off_c, 0, 78, 0
4, 106020, Note_on_c, 0, 80, 88
4, 106078, Note_off_c, 0, 80, 0
4, 106080, Note_on_c, 0, 81, 88
4, 106138, Note_off_c, 0, 81, 0
4, 106140, Note_on_c, 0, 80, 88
4, 106198, Note_off_c, 0, 80, 0
4, 106200, Note_on_c, 0, 81, 88
4, 106258, Note_off_c, 0, 81, 0
4, 106260, Note_on_c, 0, 76, 88
4, 106318, Note_off_c, 0, 76, 0
4, 106320, Note_on_c, 0, 78, 88
4, 106378, Note_off_c, 0, 78, 0
4, 106380, Note_on_c, 0, 80, 88
4, 106438, Note_off_c, 0, 80, 0
4, 106440, Note_on_c, 0, 81, 88
4, 106498, Note_off_c, 0, 81, 0
4, 106500, Note_on_c, 0, 80, 88
4, 106558, Note_off_c, 0, 80, 0
4, 106560, Note_on_c, 0, 81, 88
4, 106676, Note_off_c, 0, 81, 0
4, 106680, Note_on_c, 0, 80, 88
4, 106738, Note_off_c, 0, 80, 0
4, 106740, Note_on_c, 0, 78, 88
4, 106798, Note_off_c, 0, 78, 0
4, 106800, Note_on_c, 0, 76, 88
4, 106858, Note_off_c, 0, 76, 0
4, 106860, Note_on_c, 0, 74, 88
4, 106918, Note_off_c, 0, 74, 0
4, 106920, Note_on_c, 0, 73, 88
4, 106978, Note_off_c, 0, 73, 0
4, 106980, Note_on_c, 0, 74, 88
4, 107038, Note_off_c, 0, 74, 0
4, 107040, Note_on_c, 0, 76, 88
4, 107098, Note_off_c, 0, 76, 0
4, 107100, Note_on_c, 0, 74, 88
4, 107158, Note_off_c, 0, 74, 0
4, 107160, Note_on_c, 0, 73, 88
4, 107218, Note_off_c, 0, 73, 0
4, 107220, Note_on_c, 0, 71, 88
4, 107273, Note_off_c, 0, 71, 0
4, 107280, Note_on_c, 0, 71, 88
4, 107316, Note_off_c, 0, 71, 0
4, 107318, Note_on_c, 0, 69, 88
4, 107347, Note_off_c, 0, 69, 0
4, 107348, Note_on_c, 0, 71, 88
4, 107377, Note_off_c, 0, 71, 0
4, 107378, Note_on_c, 0, 69, 88
4, 107407, Note_off_c, 0, 69, 0
4, 107408, Note_on_c, 0, 71, 88
4, 107437, Note_off_c, 0, 71, 0
4, 107438, Note_on_c, 0, 69, 88
4, 107467, Note_off_c, 0, 69, 0
4, 107468, Note_on_c, 0, 71, 88
4, 107497, Note_off_c, 0, 71, 0
4, 107498, Note_on_c, 0, 69, 88
4, 107527, Note_off_c, 0, 69, 0
4, 107528, Note_on_c, 0, 71, 88
4, 107557, Note_off_c, 0, 71, 0
4, 107558, Note_on_c, 0, 69, 88
4, 107587, Note_off_c, 0, 69, 0
4, 107588, Note_on_c, 0, 71, 88
4, 107617, Note_off_c, 0, 71, 0
4, 107618, Note_on_c, 0, 69, 88
4, 107647, Note_off_c, 0, 69, 0
4, 107648, Note_on_c, 0, 71, 88
4, 107677, Note_off_c, 0, 71, 0
4, 107678, Note_on_c, 0, 69, 88
4, 107707, Note_off_c, 0, 69, 0
4, 107708, Note_on_c, 0, 71, 88
4, 107737, Note_off_c, 0, 71, 0
4, 107738, Note_on_c, 0, 69, 88
4, 107767, Note_off_c, 0, 69, 0
4, 107768, Note_on_c, 0, 71, 88
4, 107797, Note_off_c, 0, 71, 0
4, 107798, Note_on_c, 0, 69, 88
4, 107827, Note_off_c, 0, 69, 0
4, 107828, Note_on_c, 0, 71, 88
4, 107857, Note_off_c, 0, 71, 0
4, 107858, Note_on_c, 0, 69, 88
4, 107887, Note_off_c, 0, 69, 0
4, 107888, Note_on_c, 0, 71, 88
4, 107917, Note_off_c, 0, 71, 0
4, 107918, Note_on_c, 0, 69, 88
4, 107947, Note_off_c, 0, 69, 0
4, 107948, Note_on_c, 0, 71, 88
4, 107969, Note_off_c, 0, 71, 0
4, 107970, Note_on_c, 0, 69, 88
4, 107999, Note_off_c, 0, 69, 0
4, 108000, Note_on_c, 0, 69, 88
4, 108058, Note_off_c, 0, 69, 0
4, 108060, Note_on_c, 0, 71, 88
4, 108118, Note_off_c, 0, 71, 0
4, 108120, Note_on_c, 0, 69, 88
4, 108178, Note_off_c, 0, 69, 0
4, 108180, Note_on_c, 0, 68, 88
4, 108238, Note_off_c, 0, 68, 0
4, 108240, Note_on_c, 0, 69, 88
4, 108298, Note_off_c, 0, 69, 0
4, 108300, Note_on_c, 0, 64, 88
4, 108358, Note_off_c, 0, 64, 0
4, 108360, Note_on_c, 0, 61, 88
4, 108418, Note_off_c, 0, 61, 0
4, 108420, Note_on_c, 0, 66, 88
4, 108478, Note_off_c, 0, 66, 0
4, 108480, Note_on_c, 0, 64, 88
4, 108538, Note_off_c, 0, 64, 0
4, 108540, Note_on_c, 0, 62, 88
4, 108598, Note_off_c, 0, 62, 0
4, 108600, Note_on_c, 0, 64, 88
4, 108658, Note_off_c, 0, 64, 0
4, 108660, Note_on_c, 0, 61, 88
4, 108718, Note_off_c, 0, 61, 0
4, 108720, Note_on_c, 0, 59, 88
4, 108756, Note_off_c, 0, 59, 0
4, 108758, Note_on_c, 0, 57, 88
4, 108787, Note_off_c, 0, 57, 0
4, 108788, Note_on_c, 0, 59, 88
4, 108817, Note_off_c, 0, 59, 0
4, 108818, Note_on_c, 0, 57, 88
4, 108847, Note_off_c, 0, 57, 0
4, 108848, Note_on_c, 0, 59, 88
4, 108877, Note_off_c, 0, 59, 0
4, 108878, Note_on_c, 0, 57, 88
4, 108907, Note_off_c, 0, 57, 0
4, 108908, Note_on_c, 0, 59, 88
4, 108937, Note_off_c, 0, 59, 0
4, 108938, Note_on_c, 0, 57, 88
4, 108967, Note_off_c, 0, 57, 0
4, 108968, Note_on_c, 0, 59, 88
4, 108997, Note_off_c, 0, 59, 0
4, 108998, Note_on_c, 0, 57, 88
4, 109027, Note_off_c, 0, 57, 0
4, 109028, Note_on_c, 0, 59, 88
4, 109057, Note_off_c, 0, 59, 0
4, 109058, Note_on_c, 0, 57, 88
4, 109087, Note_off_c, 0, 57, 0
4, 109088, Note_on_c, 0, 59, 88
4, 109117, Note_off_c, 0, 59, 0
4, 109118, Note_on_c, 0, 57, 88
4, 109147, Note_off_c, 0, 57, 0
4, 109148, Note_on_c, 0, 59, 88
4, 109177, Note_off_c, 0, 59, 0
4, 109178, Note_on_c, 0, 57, 88
4, 109207, Note_off_c, 0, 57, 0
4, 109208, Note_on_c, 0, 59, 88
4, 109237, Note_off_c, 0, 59, 0
4, 109238, Note_on_c, 0, 57, 88
4, 109267, Note_off_c, 0, 57, 0
4, 109268, Note_on_c, 0, 59, 88
4, 109297, Note_off_c, 0, 59, 0
4, 109298, Note_on_c, 0, 57, 88
4, 109327, Note_off_c, 0, 57, 0
4, 109328, Note_on_c, 0, 59, 88
4, 109357, Note_off_c, 0, 59, 0
4, 109358, Note_on_c, 0, 57, 88
4, 109387, Note_off_c, 0, 57, 0
4, 109388, Note_on_c, 0, 59, 88
4, 109409, Note_off_c, 0, 59, 0
4, 109410, Note_on_c, 0, 57, 88
4, 109439, Note_off_c, 0, 57, 0
4, 109440, Note_on_c, 0, 57, 88
4, 109615, Note_off_c, 0, 57, 0
4, 110280, Note_on_c, 0, 76, 88
4, 110338, Note_off_c, 0, 76, 0
4, 110340, Note_on_c, 0, 74, 88
4, 110398, Note_off_c, 0, 74, 0
4, 110400, Note_on_c, 0, 73, 88
4, 110458, Note_off_c, 0, 73, 0
4, 110460, Note_on_c, 0, 71, 88
4, 110518, Note_off_c, 0, 71, 0
4, 110520, Note_on_c, 0, 69, 88
4, 110636, Note_off_c, 0, 69, 0
4, 110640, Note_on_c, 0, 76, 88
4, 110756, Note_off_c, 0, 76, 0
4, 110760, Note_on_c, 0, 67, 88
4, 110876, Note_off_c, 0, 67, 0
4, 110880, Note_on_c, 0, 66, 88
4, 111055, Note_off_c, 0, 66, 0
4, 111720, Note_on_c, 0, 81, 88
4, 111778, Note_off_c, 0, 81, 0
4, 111780, Note_on_c, 0, 79, 88
4, 111838, Note_off_c, 0, 79, 0
4, 111840, Note_on_c, 0, 78, 88
4, 111898, Note_off_c, 0, 78, 0
4, 111900, Note_on_c, 0, 76, 88
4, 111958, Note_off_c, 0, 76, 0
4, 111960, Note_on_c, 0, 74, 88
4, 112076, Note_off_c, 0, 74, 0
4, 112080, Note_on_c, 0, 81, 88
4, 112196, Note_off_c, 0, 81, 0
4, 112200, Note_on_c, 0, 72, 88
4, 112316, Note_off_c, 0, 72, 0
4, 112320, Note_on_c, 0, 71, 88
4, 113147, Note_off_c, 0, 71, 0
4, 113160, Note_on_c, 0, 73, 88
4, 113218, Note_off_c, 0, 73, 0
4, 113220, Note_on_c, 0, 71, 88
4, 113278, Note_off_c, 0, 71, 0
4, 113280, Note_on_c, 0, 70, 88
4, 113338, Note_off_c, 0, 70, 0
4, 113340, Note_on_c, 0, 71, 88
4, 113398, Note_off_c, 0, 71, 0
4, 113400, Note_on_c, 0, 73, 88
4, 113876, Note_off_c, 0, 73, 0
4, 113880, Note_on_c, 0, 74, 88
4, 113938, Note_off_c, 0, 74, 0
4, 113940, Note_on_c, 0, 73, 88
4, 113998, Note_off_c, 0, 73, 0
4, 114000, Note_on_c, 0, 71, 88
4, 114058, Note_off_c, 0, 71, 0
4, 114060, Note_on_c, 0, 73, 88
4, 114118, Note_off_c, 0, 73, 0
4, 114120, Note_on_c, 0, 74, 88
4, 114590, Note_off_c, 0, 74, 0
4, 114600, Note_on_c, 0, 76, 88
4, 114658, Note_off_c, 0, 76, 0
4, 114660, Note_on_c, 0, 74, 88
4, 114718, Note_off_c, 0, 74, 0
4, 114720, Note_on_c, 0, 73, 88
4, 114778, Note_off_c, 0, 73, 0
4, 114780, Note_on_c, 0, 74, 88
4, 114838, Note_off_c, 0, 74, 0
4, 114840, Note_on_c, 0, 76, 88
4, 115316, Note_off_c, 0, 76, 0
4, 115320, Note_on_c, 0, 79, 88
4, 115378, Note_off_c, 0, 79, 0
4, 115380, Note_on_c, 0, 78, 88
4, 115438, Note_off_c, 0, 78, 0
4, 115440, Note_on_c, 0, 76, 88
4, 115498, Note_off_c, 0, 76, 0
4, 115500, Note_on_c, 0, 75, 88
4, 115558, Note_off_c, 0, 75, 0
4, 115560, Note_on_c, 0, 76, 88
4, 115676, Note_off_c, 0, 76, 0
4, 115680, Note_on_c, 0, 79, 88
4, 115796, Note_off_c, 0, 79, 0
4, 115800, Note_on_c, 0, 75, 88
4, 115916, Note_off_c, 0, 75, 0
4, 115920, Note_on_c, 0, 76, 88
4, 116036, Note_off_c, 0, 76, 0
4, 116040, Note_on_c, 0, 79, 88
4, 116098, Note_off_c, 0, 79, 0
4, 116100, Note_on_c, 0, 78, 88
4, 116158, Note_off_c, 0, 78, 0
4, 116160, Note_on_c, 0, 76, 88
4, 116218, Note_off_c, 0, 76, 0
4, 116220, Note_on_c, 0, 75, 88
4, 116278, Note_off_c, 0, 75, 0
4, 116280, Note_on_c, 0, 76, 88
4, 116396, Note_off_c, 0, 76, 0
4, 116400, Note_on_c, 0, 78, 88
4, 116458, Note_off_c, 0, 78, 0
4, 116460, Note_on_c, 0, 76, 88
4, 116518, Note_off_c, 0, 76, 0
4, 116520, Note_on_c, 0, 75, 88
4, 116578, Note_off_c, 0, 75, 0
4, 116580, Note_on_c, 0, 73, 88
4, 116638, Note_off_c, 0, 73, 0
4, 116640, Note_on_c, 0, 75, 88
4, 116815, Note_off_c, 0, 75, 0
4, 117360, Note_on_c, 0, 78, 88
4, 117535, Note_off_c, 0, 78, 0
4, 118140, Note_on_c, 0, 71, 88
4, 118198, Note_off_c, 0, 71, 0
4, 118200, Note_on_c, 0, 73, 88
4, 118258, Note_off_c, 0, 73, 0
4, 118260, Note_on_c, 0, 75, 88
4, 118318, Note_off_c, 0, 75, 0
4, 118320, Note_on_c, 0, 76, 88
4, 118378, Note_off_c, 0, 76, 0
4, 118380, Note_on_c, 0, 78, 88
4, 118438, Note_off_c, 0, 78, 0
4, 118440, Note_on_c, 0, 79, 88
4, 118498, Note_off_c, 0, 79, 0
4, 118500, Note_on_c, 0, 78, 88
4, 118558, Note_off_c, 0, 78, 0
4, 118560, Note_on_c, 0, 76, 88
4, 118618, Note_off_c, 0, 76, 0
4, 118620, Note_on_c, 0, 74, 88
4, 118678, Note_off_c, 0, 74, 0
4, 118680, Note_on_c, 0, 73, 88
4, 118738, Note_off_c, 0, 73, 0
4, 118740, Note_on_c, 0, 71, 88
4, 118798, Note_off_c, 0, 71, 0
4, 118800, Note_on_c, 0, 76, 88
4, 118858, Note_off_c, 0, 76, 0
4, 118860, Note_on_c, 0, 74, 88
4, 118918, Note_off_c, 0, 74, 0
4, 118920, Note_on_c, 0, 73, 88
4, 118978, Note_off_c, 0, 73, 0
4, 118980, Note_on_c, 0, 71, 88
4, 119038, Note_off_c, 0, 71, 0
4, 119040, Note_on_c, 0, 69, 88
4, 119098, Note_off_c, 0, 69, 0
4, 119100, Note_on_c, 0, 68, 88
4, 119158, Note_off_c, 0, 68, 0
4, 119160, Note_on_c, 0, 73, 88
4, 119218, Note_off_c, 0, 73, 0
4, 119220, Note_on_c, 0, 71, 88
4, 119278, Note_off_c, 0, 71, 0
4, 119280, Note_on_c, 0, 69, 88
4, 119338, Note_off_c, 0, 69, 0
4, 119340, Note_on_c, 0, 67, 88
4, 119398, Note_off_c, 0, 67, 0
4, 119400, Note_on_c, 0, 66, 88
4, 119458, Note_off_c, 0, 66, 0
4, 119460, Note_on_c, 0, 64, 88
4, 119518, Note_off_c, 0, 64, 0
4, 119520, Note_on_c, 0, 66, 88
4, 119578, Note_off_c, 0, 66, 0
4, 119580, Note_on_c, 0, 69, 88
4, 119638, Note_off_c, 0, 69, 0
4, 119640, Note_on_c, 0, 71, 88
4, 119698, Note_off_c, 0, 71, 0
4, 119700, Note_on_c, 0, 73, 88
4, 119758, Note_off_c, 0, 73, 0
4, 119760, Note_on_c, 0, 74, 88
4, 119818, Note_off_c, 0, 74, 0
4, 119820, Note_on_c, 0, 76, 88
4, 119878, Note_off_c, 0, 76, 0
4, 119880, Note_on_c, 0, 78, 88
4, 119938, Note_off_c, 0, 78, 0
4, 119940, Note_on_c, 0, 76, 88
4, 119998, Note_off_c, 0, 76, 0
4, 120000, Note_on_c, 0, 74, 88
4, 120058, Note_off_c, 0, 74, 0
4, 120060, Note_on_c, 0, 73, 88
4, 120118, Note_off_c, 0, 73, 0
4, 120120, Note_on_c, 0, 71, 88
4, 120178, Note_off_c, 0, 71, 0
4, 120180, Note_on_c, 0, 69, 88
4, 120238, Note_off_c, 0, 69, 0
4, 120240, Note_on_c, 0, 68, 88
4, 120298, Note_off_c, 0, 68, 0
4, 120300, Note_on_c, 0, 71, 88
4, 120358, Note_off_c, 0, 71, 0
4, 120360, Note_on_c, 0, 76, 88
4, 120418, Note_off_c, 0, 76, 0
4, 120420, Note_on_c, 0, 74, 88
4, 120478, Note_off_c, 0, 74, 0
4, 120480, Note_on_c, 0, 76, 88
4, 120655, Note_off_c, 0, 76, 0
4, 120660, Note_on_c, 0, 70, 88
4, 120718, Note_off_c, 0, 70, 0
4, 120720, Note_on_c, 0, 73, 88
4, 120778, Note_off_c, 0, 73, 0
4, 120780, Note_on_c, 0, 74, 88
4, 120838, Note_off_c, 0, 74, 0
4, 120840, Note_on_c, 0, 76, 88
4, 121018, Note_off_c, 0, 76, 0
4, 121020, Note_on_c, 0, 66, 88
4, 121078, Note_off_c, 0, 66, 0
4, 121080, Note_on_c, 0, 68, 88
4, 121138, Note_off_c, 0, 68, 0
4, 121140, Note_on_c, 0, 70, 88
4, 121198, Note_off_c, 0, 70, 0
4, 121200, Note_on_c, 0, 71, 88
4, 121258, Note_off_c, 0, 71, 0
4, 121260, Note_on_c, 0, 73, 88
4, 121318, Note_off_c, 0, 73, 0
4, 121320, Note_on_c, 0, 74, 88
4, 121378, Note_off_c, 0, 74, 0
4, 121380, Note_on_c, 0, 73, 88
4, 121438, Note_off_c, 0, 73, 0
4, 121440, Note_on_c, 0, 71, 88
4, 121498, Note_off_c, 0, 71, 0
4, 121500, Note_on_c, 0, 69, 88
4, 121558, Note_off_c, 0, 69, 0
4, 121560, Note_on_c, 0, 67, 88
4, 121618, Note_off_c, 0, 67, 0
4, 121620, Note_on_c, 0, 66, 88
4, 121678, Note_off_c, 0, 66, 0
4, 121680, Note_on_c, 0, 71, 88
4, 121738, Note_off_c, 0, 71, 0
4, 121740, Note_on_c, 0, 69, 88
4, 121798, Note_off_c, 0, 69, 0
4, 121800, Note_on_c, 0, 67, 88
4, 121858, Note_off_c, 0, 67, 0
4, 121860, Note_on_c, 0, 66, 88
4, 121918, Note_off_c, 0, 66, 0
4, 121920, Note_on_c, 0, 64, 88
4, 121978, Note_off_c, 0, 64, 0
4, 121980, Note_on_c, 0, 62, 88
4, 122038, Note_off_c, 0, 62, 0
4, 122040, Note_on_c, 0, 67, 88
4, 122098, Note_off_c, 0, 67, 0
4, 122100, Note_on_c, 0, 66, 88
4, 122158, Note_off_c, 0, 66, 0
4, 122160, Note_on_c, 0, 64, 88
4, 122218, Note_off_c, 0, 64, 0
4, 122220, Note_on_c, 0, 62, 88
4, 122278, Note_off_c, 0, 62, 0
4, 122280, Note_on_c, 0, 61, 88
4, 122338, Note_off_c, 0, 61, 0
4, 122340, Note_on_c, 0, 64, 88
4, 122398, Note_off_c, 0, 64, 0
4, 122400, Note_on_c, 0, 58, 88
4, 122516, Note_off_c, 0, 58, 0
4, 122520, Note_on_c, 0, 79, 88
4, 122578, Note_off_c, 0, 79, 0
4, 122580, Note_on_c, 0, 78, 88
4, 122638, Note_off_c, 0, 78, 0
4, 122640, Note_on_c, 0, 76, 88
4, 122698, Note_off_c, 0, 76, 0
4, 122700, Note_on_c, 0, 74, 88
4, 122758, Note_off_c, 0, 74, 0
4, 122760, Note_on_c, 0, 73, 88
4, 122876, Note_off_c, 0, 73, 0
4, 122880, Note_on_c, 0, 76, 88
4, 122996, Note_off_c, 0, 76, 0
4, 123000, Note_on_c, 0, 73, 88
4, 123116, Note_off_c, 0, 73, 0
4, 123120, Note_on_c, 0, 70, 88
4, 123236, Note_off_c, 0, 70, 0
4, 123240, Note_on_c, 0, 73, 88
4, 123356, Note_off_c, 0, 73, 0
4, 123360, Note_on_c, 0, 70, 88
4, 123476, Note_off_c, 0, 70, 0
4, 123480, Note_on_c, 0, 64, 88
4, 123596, Note_off_c, 0, 64, 0
4, 123600, Note_on_c, 0, 70, 88
4, 123716, Note_off_c, 0, 70, 0
4, 123720, Note_on_c, 0, 64, 88
4, 123836, Note_off_c, 0, 64, 0
4, 123840, Note_on_c, 0, 62, 88
4, 124015, Note_off_c, 0, 62, 0
4, 124200, Note_on_c, 0, 71, 88
4, 124553, Note_off_c, 0, 71, 0
4, 124560, Note_on_c, 0, 74, 88
4, 124913, Note_off_c, 0, 74, 0
4, 124920, Note_on_c, 0, 77, 88
4, 125273, Note_off_c, 0, 77, 0
4, 125280, Note_on_c, 0, 78, 88
4, 125514, Note_off_c, 0, 78, 0
4, 125520, Note_on_c, 0, 76, 88
4, 125636, Note_off_c, 0, 76, 0
4, 125640, Note_on_c, 0, 74, 88
4, 125874, Note_off_c, 0, 74, 0
4, 125880, Note_on_c, 0, 79, 88
4, 125996, Note_off_c, 0, 79, 0
4, 126000, Note_on_c, 0, 74, 88
4, 126353, Note_off_c, 0, 74, 0
4, 126360, Note_on_c, 0, 74, 88
4, 126389, Note_off_c, 0, 74, 0
4, 126390, Note_on_c, 0, 73, 88
4, 126419, Note_off_c, 0, 73, 0
4, 126420, Note_on_c, 0, 74, 88
4, 126449, Note_off_c, 0, 74, 0
4, 126450, Note_on_c, 0, 73, 88
4, 126479, Note_off_c, 0, 73, 0
4, 126480, Note_on_c, 0, 71, 88
4, 126596, Note_off_c, 0, 71, 0
4, 126600, Note_on_c, 0, 73, 88
4, 126716, Note_off_c, 0, 73, 0
4, 126720, Note_on_c, 0, 71, 88
4, 126836, Note_off_c, 0, 71, 0
4, 126840, Note_on_c, 0, 74, 88
4, 126898, Note_off_c, 0, 74, 0
4, 126900, Note_on_c, 0, 73, 88
4, 126958, Note_off_c, 0, 73, 0
4, 126960, Note_on_c, 0, 71, 88
4, 127018, Note_off_c, 0, 71, 0
4, 127020, Note_on_c, 0, 69, 88
4, 127078, Note_off_c, 0, 69, 0
4, 127080, Note_on_c, 0, 67, 88
4, 127196, Note_off_c, 0, 67, 0
4, 127200, Note_on_c, 0, 71, 88
4, 127258, Note_off_c, 0, 71, 0
4, 127260, Note_on_c, 0, 69, 88
4, 127318, Note_off_c, 0, 69, 0
4, 127320, Note_on_c, 0, 67, 88
4, 127378, Note_off_c, 0, 67, 0
4, 127380, Note_on_c, 0, 66, 88
4, 127438, Note_off_c, 0, 66, 0
4, 127440, Note_on_c, 0, 64, 88
4, 127556, Note_off_c, 0, 64, 0
4, 127560, Note_on_c, 0, 67, 88
4, 127676, Note_off_c, 0, 67, 0
4, 127680, Note_on_c, 0, 72, 88
4, 127793, Note_off_c, 0, 72, 0
4, 127800, Note_on_c, 0, 72, 88
4, 128394, Note_off_c, 0, 72, 0
4, 128400, Note_on_c, 0, 71, 88
4, 128513, Note_off_c, 0, 71, 0
4, 128520, Note_on_c, 0, 71, 88
4, 129110, Note_off_c, 0, 71, 0
4, 129120, Note_on_c, 0, 69, 88
4, 129233, Note_off_c, 0, 69, 0
4, 129240, Note_on_c, 0, 69, 88
4, 129834, Note_off_c, 0, 69, 0
4, 129840, Note_on_c, 0, 67, 88
4, 129953, Note_off_c, 0, 67, 0
4, 129960, Note_on_c, 0, 67, 88
4, 130550, Note_off_c, 0, 67, 0
4, 130560, Note_on_c, 0, 66, 88
4, 130793, Note_off_c, 0, 66, 0
4, 130800, Note_on_c, 0, 66, 88
4, 130916, Note_off_c, 0, 66, 0
4, 130920, Note_on_c, 0, 72, 88
4, 131036, Note_off_c, 0, 72, 0
4, 131040, Note_on_c, 0, 71, 88
4, 131510, Note_off_c, 0, 71, 0
4, 131520, Note_on_c, 0, 73, 88
4, 131636, Note_off_c, 0, 73, 0
4, 131640, Note_on_c, 0, 74, 88
4, 131874, Note_off_c, 0, 74, 0
4, 131880, Note_on_c, 0, 71, 88
4, 131996, Note_off_c, 0, 71, 0
4, 132000, Note_on_c, 0, 73, 88
4, 132116, Note_off_c, 0, 73, 0
4, 132120, Note_on_c, 0, 76, 88
4, 132596, Note_off_c, 0, 76, 0
4, 132600, Note_on_c, 0, 73, 88
4, 132716, Note_off_c, 0, 73, 0
4, 132720, Note_on_c, 0, 74, 88
4, 132836, Note_off_c, 0, 74, 0
4, 132840, Note_on_c, 0, 79, 88
4, 133310, Note_off_c, 0, 79, 0
4, 133320, Note_on_c, 0, 78, 88
4, 133436, Note_off_c, 0, 78, 0
4, 133440, Note_on_c, 0, 76, 88
4, 133556, Note_off_c, 0, 76, 0
4, 133560, Note_on_c, 0, 78, 88
4, 134036, Note_off_c, 0, 78, 0
4, 134040, Note_on_c, 0, 76, 88
4, 134156, Note_off_c, 0, 76, 0
4, 134160, Note_on_c, 0, 74, 88
4, 134276, Note_off_c, 0, 74, 0
4, 134280, Note_on_c, 0, 76, 88
4, 134396, Note_off_c, 0, 76, 0
4, 134400, Note_on_c, 0, 73, 88
4, 134516, Note_off_c, 0, 73, 0
4, 134520, Note_on_c, 0, 74, 88
4, 134633, Note_off_c, 0, 74, 0
4, 134640, Note_on_c, 0, 74, 88
4, 134662, Note_off_c, 0, 74, 0
4, 134663, Note_on_c, 0, 73, 88
4, 134692, Note_off_c, 0, 73, 0
4, 134693, Note_on_c, 0, 74, 88
4, 134722, Note_off_c, 0, 74, 0
4, 134723, Note_on_c, 0, 73, 88
4, 134752, Note_off_c, 0, 73, 0
4, 134753, Note_on_c, 0, 74, 88
4, 134782, Note_off_c, 0, 74, 0
4, 134783, Note_on_c, 0, 73, 88
4, 134812, Note_off_c, 0, 73, 0
4, 134813, Note_on_c, 0, 74, 88
4, 134834, Note_off_c, 0, 74, 0
4, 134835, Note_on_c, 0, 73, 88
4, 134857, Note_off_c, 0, 73, 0
4, 134858, Note_on_c, 0, 74, 88
4, 134879, Note_off_c, 0, 74, 0
4, 134880, Note_on_c, 0, 73, 88
4, 134996, Note_off_c, 0, 73, 0
4, 135360, Note_on_c, 0, 70, 88
4, 135713, Note_off_c, 0, 70, 0
4, 135720, Note_on_c, 0, 69, 88
4, 136073, Note_off_c, 0, 69, 0
4, 136080, Note_on_c, 0, 67, 88
4, 136433, Note_off_c, 0, 67, 0
4, 136440, Note_on_c, 0, 65, 88
4, 136858, Note_off_c, 0, 65, 0
4, 136860, Note_on_c, 0, 64, 88
4, 136918, Note_off_c, 0, 64, 0
4, 136920, Note_on_c, 0, 62, 88
4, 136978, Note_off_c, 0, 62, 0
4, 136980, Note_on_c, 0, 61, 88
4, 137038, Note_off_c, 0, 61, 0
4, 137040, Note_on_c, 0, 62, 88
4, 137098, Note_off_c, 0, 62, 0
4, 137100, Note_on_c, 0, 65, 88
4, 137158, Note_off_c, 0, 65, 0
4, 137160, Note_on_c, 0, 71, 88
4, 137218, Note_off_c, 0, 71, 0
4, 137220, Note_on_c, 0, 65, 88
4, 137278, Note_off_c, 0, 65, 0
4, 137280, Note_on_c, 0, 64, 88
4, 137338, Note_off_c, 0, 64, 0
4, 137340, Note_on_c, 0, 62, 88
4, 137398, Note_off_c, 0, 62, 0
4, 137400, Note_on_c, 0, 61, 88
4, 137458, Note_off_c, 0, 61, 0
4, 137460, Note_on_c, 0, 59, 88
4, 137518, Note_off_c, 0, 59, 0
4, 137520, Note_on_c, 0, 61, 88
4, 137695, Note_off_c, 0, 61, 0
4, 140040, Note_on_c, 0, 78, 88
4, 140393, Note_off_c, 0, 78, 0
4, 140400, Note_on_c, 0, 78, 88
4, 140575, Note_off_c, 0, 78, 0
4, 140580, Note_on_c, 0, 76, 88
4, 140753, Note_off_c, 0, 76, 0
4, 140760, Note_on_c, 0, 76, 88
4, 140935, Note_off_c, 0, 76, 0
4, 140940, Note_on_c, 0, 74, 88
4, 141115, Note_off_c, 0, 74, 0
4, 141120, Note_on_c, 0, 74, 88
4, 141236, Note_off_c, 0, 74, 0
4, 141240, Note_on_c, 0, 62, 88
4, 141298, Note_off_c, 0, 62, 0
4, 141300, Note_on_c, 0, 64, 88
4, 141358, Note_off_c, 0, 64, 0
4, 141360, Note_on_c, 0, 66, 88
4, 141418, Note_off_c, 0, 66, 0
4, 141420, Note_on_c, 0, 67, 88
4, 141478, Note_off_c, 0, 67, 0
4, 141480, Note_on_c, 0, 69, 88
4, 141596, Note_off_c, 0, 69, 0
4, 141600, Note_on_c, 0, 66, 88
4, 141716, Note_off_c, 0, 66, 0
4, 141720, Note_on_c, 0, 69, 88
4, 141836, Note_off_c, 0, 69, 0
4, 141840, Note_on_c, 0, 72, 88
4, 141956, Note_off_c, 0, 72, 0
4, 141960, Note_on_c, 0, 69, 88
4, 142076, Note_off_c, 0, 69, 0
4, 142080, Note_on_c, 0, 72, 88
4, 142196, Note_off_c, 0, 72, 0
4, 142200, Note_on_c, 0, 78, 88
4, 142316, Note_off_c, 0, 78, 0
4, 142320, Note_on_c, 0, 72, 88
4, 142436, Note_off_c, 0, 72, 0
4, 142440, Note_on_c, 0, 78, 88
4, 142556, Note_off_c, 0, 78, 0
4, 142560, Note_on_c, 0, 81, 88
4, 142913, Note_off_c, 0, 81, 0
4, 142920, Note_on_c, 0, 72, 88
4, 143273, Note_off_c, 0, 72, 0
4, 143280, Note_on_c, 0, 72, 88
4, 143455, Note_off_c, 0, 72, 0
4, 143460, Note_on_c, 0, 71, 88
4, 143633, Note_off_c, 0, 71, 0
4, 143640, Note_on_c, 0, 71, 88
4, 143815, Note_off_c, 0, 71, 0
4, 143820, Note_on_c, 0, 69, 88
4, 143995, Note_off_c, 0, 69, 0
4, 144000, Note_on_c, 0, 71, 88
4, 144116, Note_off_c, 0, 71, 0
4, 144120, Note_on_c, 0, 83, 88
4, 144178, Note_off_c, 0, 83, 0
4, 144180, Note_on_c, 0, 81, 88
4, 144238, Note_off_c, 0, 81, 0
4, 144240, Note_on_c, 0, 79, 88
4, 144298, Note_off_c, 0, 79, 0
4, 144300, Note_on_c, 0, 78, 88
4, 144358, Note_off_c, 0, 78, 0
4, 144360, Note_on_c, 0, 76, 88
4, 144476, Note_off_c, 0, 76, 0
4, 144480, Note_on_c, 0, 79, 88
4, 144596, Note_off_c, 0, 79, 0
4, 144600, Note_on_c, 0, 76, 88
4, 144716, Note_off_c, 0, 76, 0
4, 144720, Note_on_c, 0, 73, 88
4, 144895, Note_off_c, 0, 73, 0
4, 145560, Note_on_c, 0, 81, 88
4, 145618, Note_off_c, 0, 81, 0
4, 145620, Note_on_c, 0, 79, 88
4, 145678, Note_off_c, 0, 79, 0
4, 145680, Note_on_c, 0, 78, 88
4, 145738, Note_off_c, 0, 78, 0
4, 145740, Note_on_c, 0, 76, 88
4, 145798, Note_off_c, 0, 76, 0
4, 145800, Note_on_c, 0, 74, 88
4, 145916, Note_off_c, 0, 74, 0
4, 145920, Note_on_c, 0, 78, 88
4, 146036, Note_off_c, 0, 78, 0
4, 146040, Note_on_c, 0, 74, 88
4, 146156, Note_off_c, 0, 74, 0
4, 146160, Note_on_c, 0, 71, 88
4, 146335, Note_off_c, 0, 71, 0
4, 147120, Note_on_c, 0, 71, 88
4, 147233, Note_off_c, 0, 71, 0
4, 147240, Note_on_c, 0, 71, 88
4, 147473, Note_off_c, 0, 71, 0
4, 147480, Note_on_c, 0, 71, 88
4, 147596, Note_off_c, 0, 71, 0
4, 147600, Note_on_c, 0, 69, 88
4, 147953, Note_off_c, 0, 69, 0
4, 148680, Note_on_c, 0, 74, 88
4, 149033, Note_off_c, 0, 74, 0
4, 149040, Note_on_c, 0, 71, 88
4, 149393, Note_off_c, 0, 71, 0
4, 149400, Note_on_c, 0, 76, 88
4, 150113, Note_off_c, 0, 76, 0
4, 150120, Note_on_c, 0, 74, 88
4, 150354, Note_off_c, 0, 74, 0
4, 150360, Note_on_c, 0, 72, 88
4, 150476, Note_off_c, 0, 72, 0
4, 150480, Note_on_c, 0, 71, 88
4, 150714, Note_off_c, 0, 71, 0
4, 150720, Note_on_c, 0, 69, 88
4, 150836, Note_off_c, 0, 69, 0
4, 150840, Note_on_c, 0, 67, 88
4, 151553, Note_off_c, 0, 67, 0
4, 151560, Note_on_c, 0, 67, 88
4, 151913, Note_off_c, 0, 67, 0
4, 151920, Note_on_c, 0, 73, 88
4, 152273, Note_off_c, 0, 73, 0
4, 152280, Note_on_c, 0, 76, 88
4, 152756, Note_off_c, 0, 76, 0
4, 152760, Note_on_c, 0, 74, 88
4, 152818, Note_off_c, 0, 74, 0
4, 152820, Note_on_c, 0, 73, 88
4, 152878, Note_off_c, 0, 73, 0
4, 152880, Note_on_c, 0, 71, 88
4, 152938, Note_off_c, 0, 71, 0
4, 152940, Note_on_c, 0, 69, 88
4, 152998, Note_off_c, 0, 69, 0
4, 153000, Note_on_c, 0, 68, 88
4, 153116, Note_off_c, 0, 68, 0
4, 153120, Note_on_c, 0, 71, 88
4, 153236, Note_off_c, 0, 71, 0
4, 153240, Note_on_c, 0, 68, 88
4, 153356, Note_off_c, 0, 68, 0
4, 153360, Note_on_c, 0, 62, 88
4, 153476, Note_off_c, 0, 62, 0
4, 153480, Note_on_c, 0, 68, 88
4, 153596, Note_off_c, 0, 68, 0
4, 153600, Note_on_c, 0, 62, 88
4, 153716, Note_off_c, 0, 62, 0
4, 153720, Note_on_c, 0, 59, 88
4, 153836, Note_off_c, 0, 59, 0
4, 153840, Note_on_c, 0, 62, 88
4, 153956, Note_off_c, 0, 62, 0
4, 153960, Note_on_c, 0, 59, 88
4, 154076, Note_off_c, 0, 59, 0
4, 154080, Note_on_c, 0, 61, 88
4, 154196, Note_off_c, 0, 61, 0
4, 154200, Note_on_c, 0, 59, 88
4, 154316, Note_off_c, 0, 59, 0
4, 154320, Note_on_c, 0, 57, 88
4, 154436, Note_off_c, 0, 57, 0
4, 154440, Note_on_c, 0, 62, 88
4, 154674, Note_off_c, 0, 62, 0
4, 154680, Note_on_c, 0, 67, 88
4, 154914, Note_off_c, 0, 67, 0
4, 154920, Note_on_c, 0, 66, 88
4, 154978, Note_off_c, 0, 66, 0
4, 154980, Note_on_c, 0, 64, 88
4, 155038, Note_off_c, 0, 64, 0
4, 155040, Note_on_c, 0, 66, 88
4, 155156, Note_off_c, 0, 66, 0
4, 155160, Note_on_c, 0, 64, 88
4, 155394, Note_off_c, 0, 64, 0
4, 155400, Note_on_c, 0, 69, 88
4, 155516, Note_off_c, 0, 69, 0
4, 155520, Note_on_c, 0, 66, 88
4, 155578, Note_off_c, 0, 66, 0
4, 155580, Note_on_c, 0, 69, 88
4, 155638, Note_off_c, 0, 69, 0
4, 155640, Note_on_c, 0, 71, 88
4, 155698, Note_off_c, 0, 71, 0
4, 155700, Note_on_c, 0, 73, 88
4, 155758, Note_off_c, 0, 73, 0
4, 155760, Note_on_c, 0, 74, 88
4, 155818, Note_off_c, 0, 74, 0
4, 155820, Note_on_c, 0, 76, 88
4, 155878, Note_off_c, 0, 76, 0
4, 155880, Note_on_c, 0, 78, 88
4, 155938, Note_off_c, 0, 78, 0
4, 155940, Note_on_c, 0, 76, 88
4, 155998, Note_off_c, 0, 76, 0
4, 156000, Note_on_c, 0, 74, 88
4, 156058, Note_off_c, 0, 74, 0
4, 156060, Note_on_c, 0, 73, 88
4, 156118, Note_off_c, 0, 73, 0
4, 156120, Note_on_c, 0, 71, 88
4, 156178, Note_off_c, 0, 71, 0
4, 156180, Note_on_c, 0, 69, 88
4, 156238, Note_off_c, 0, 69, 0
4, 156240, Note_on_c, 0, 68, 88
4, 156356, Note_off_c, 0, 68, 0
4, 156360, Note_on_c, 0, 71, 88
4, 156476, Note_off_c, 0, 71, 0
4, 156480, Note_on_c, 0, 76, 88
4, 156593, Note_off_c, 0, 76, 0
4, 156600, Note_on_c, 0, 76, 88
4, 157313, Note_off_c, 0, 76, 0
4, 157320, Note_on_c, 0, 74, 88
4, 157378, Note_off_c, 0, 74, 0
4, 157380, Note_on_c, 0, 73, 88
4, 157438, Note_off_c, 0, 73, 0
4, 157440, Note_on_c, 0, 71, 88
4, 157498, Note_off_c, 0, 71, 0
4, 157500, Note_on_c, 0, 69, 88
4, 157558, Note_off_c, 0, 69, 0
4, 157560, Note_on_c, 0, 67, 88
4, 157618, Note_off_c, 0, 67, 0
4, 157620, Note_on_c, 0, 66, 88
4, 157678, Note_off_c, 0, 66, 0
4, 157680, Note_on_c, 0, 64, 88
4, 157796, Note_off_c, 0, 64, 0
4, 157800, Note_on_c, 0, 67, 88
4, 157916, Note_off_c, 0, 67, 0
4, 157920, Note_on_c, 0, 72, 88
4, 158033, Note_off_c, 0, 72, 0
4, 158040, Note_on_c, 0, 72, 88
4, 158753, Note_off_c, 0, 72, 0
4, 158760, Note_on_c, 0, 71, 88
4, 158818, Note_off_c, 0, 71, 0
4, 158820, Note_on_c, 0, 69, 88
4, 158878, Note_off_c, 0, 69, 0
4, 158880, Note_on_c, 0, 67, 88
4, 158938, Note_off_c, 0, 67, 0
4, 158940, Note_on_c, 0, 66, 88
4, 158998, Note_off_c, 0, 66, 0
4, 159000, Note_on_c, 0, 64, 88
4, 159058, Note_off_c, 0, 64, 0
4, 159060, Note_on_c, 0, 62, 88
4, 159118, Note_off_c, 0, 62, 0
4, 159120, Note_on_c, 0, 61, 88
4, 159236, Note_off_c, 0, 61, 0
4, 159240, Note_on_c, 0, 64, 88
4, 159356, Note_off_c, 0, 64, 0
4, 159360, Note_on_c, 0, 69, 88
4, 159476, Note_off_c, 0, 69, 0
4, 159480, Note_on_c, 0, 66, 88
4, 159596, Note_off_c, 0, 66, 0
4, 159600, Note_on_c, 0, 69, 88
4, 159716, Note_off_c, 0, 69, 0
4, 159720, Note_on_c, 0, 74, 88
4, 159836, Note_off_c, 0, 74, 0
4, 159840, Note_on_c, 0, 67, 88
4, 160074, Note_off_c, 0, 67, 0
4, 160080, Note_on_c, 0, 76, 88
4, 160196, Note_off_c, 0, 76, 0
4, 160200, Note_on_c, 0, 69, 88
4, 160316, Note_off_c, 0, 69, 0
4, 160320, Note_on_c, 0, 74, 88
4, 160436, Note_off_c, 0, 74, 0
4, 160440, Note_on_c, 0, 73, 88
4, 160556, Note_off_c, 0, 73, 0
4, 160560, Note_on_c, 0, 74, 88
4, 161268, Note_off_c, 0, 74, 0
4, 161268, End_track
5, 0, Start_track
5, 0, Title_t, "Track 2"
5, 0, Program_c, 1, 6
5, 63120, Note_on_c, 1, 73, 88
5, 63418, Note_off_c, 1, 73, 0
5, 103080, Note_on_c, 1, 69, 88
5, 103670, Note_off_c, 1, 69, 0
5, 120720, Note_on_c, 1, 73, 88
5, 121018, Note_off_c, 1, 73, 0
5, 160680, Note_on_c, 1, 69, 88
5, 161270, Note_off_c, 1, 69, 0
5, 161270, End_track
6, 0, Start_track
6, 0, Title_t, "Track 3"
6, 0, Program_c, 2, 6
6, 1800, Note_on_c, 2, 78, 88
6, 2153, Note_off_c, 2, 78, 0
6, 2160, Note_on_c, 2, 78, 88
6, 2335, Note_off_c, 2, 78, 0
6, 2340, Note_on_c, 2, 76, 88
6, 2513, Note_off_c, 2, 76, 0
6, 2520, Note_on_c, 2, 76, 88
6, 2695, Note_off_c, 2, 76, 0
6, 2700, Note_on_c, 2, 74, 88
6, 2875, Note_off_c, 2, 74, 0
6, 2880, Note_on_c, 2, 74, 88
6, 2996, Note_off_c, 2, 74, 0
6, 3000, Note_on_c, 2, 50, 88
6, 3058, Note_off_c, 2, 50, 0
6, 3060, Note_on_c, 2, 52, 88
6, 3118, Note_off_c, 2, 52, 0
6, 3120, Note_on_c, 2, 54, 88
6, 3178, Note_off_c, 2, 54, 0
6, 3180, Note_on_c, 2, 55, 88
6, 3238, Note_off_c, 2, 55, 0
6, 3240, Note_on_c, 2, 57, 88
6, 3356, Note_off_c, 2, 57, 0
6, 3360, Note_on_c, 2, 54, 88
6, 3476, Note_off_c, 2, 54, 0
6, 3480, Note_on_c, 2, 57, 88
6, 3596, Note_off_c, 2, 57, 0
6, 3600, Note_on_c, 2, 62, 88
6, 3716, Note_off_c, 2, 62, 0
6, 3720, Note_on_c, 2, 57, 88
6, 3836, Note_off_c, 2, 57, 0
6, 3840, Note_on_c, 2, 62, 88
6, 3956, Note_off_c, 2, 62, 0
6, 3960, Note_on_c, 2, 66, 88
6, 4076, Note_off_c, 2, 66, 0
6, 4080, Note_on_c, 2, 62, 88
6, 4196, Note_off_c, 2, 62, 0
6, 4200, Note_on_c, 2, 66, 88
6, 4316, Note_off_c, 2, 66, 0
6, 4320, Note_on_c, 2, 69, 88
6, 4673, Note_off_c, 2, 69, 0
6, 4680, Note_on_c, 2, 69, 88
6, 5033, Note_off_c, 2, 69, 0
6, 5040, Note_on_c, 2, 69, 88
6, 5215, Note_off_c, 2, 69, 0
6, 5220, Note_on_c, 2, 67, 88
6, 5393, Note_off_c, 2, 67, 0
6, 5400, Note_on_c, 2, 67, 88
6, 5575, Note_off_c, 2, 67, 0
6, 5580, Note_on_c, 2, 66, 88
6, 5755, Note_off_c, 2, 66, 0
6, 5760, Note_on_c, 2, 66, 88
6, 5873, Note_off_c, 2, 66, 0
6, 5880, Note_on_c, 2, 66, 88
6, 5938, Note_off_c, 2, 66, 0
6, 5940, Note_on_c, 2, 64, 88
6, 5998, Note_off_c, 2, 64, 0
6, 6000, Note_on_c, 2, 62, 88
6, 6058, Note_off_c, 2, 62, 0
6, 6060, Note_on_c, 2, 61, 88
6, 6118, Note_off_c, 2, 61, 0
6, 6120, Note_on_c, 2, 59, 88
6, 6236, Note_off_c, 2, 59, 0
6, 6240, Note_on_c, 2, 62, 88
6, 6356, Note_off_c, 2, 62, 0
6, 6360, Note_on_c, 2, 59, 88
6, 6476, Note_off_c, 2, 59, 0
6, 6480, Note_on_c, 2, 56, 88
6, 6655, Note_off_c, 2, 56, 0
6, 7320, Note_on_c, 2, 64, 88
6, 7378, Note_off_c, 2, 64, 0
6, 7380, Note_on_c, 2, 62, 88
6, 7438, Note_off_c, 2, 62, 0
6, 7440, Note_on_c, 2, 61, 88
6, 7498, Note_off_c, 2, 61, 0
6, 7500, Note_on_c, 2, 59, 88
6, 7558, Note_off_c, 2, 59, 0
6, 7560, Note_on_c, 2, 57, 88
6, 7676, Note_off_c, 2, 57, 0
6, 7680, Note_on_c, 2, 61, 88
6, 7796, Note_off_c, 2, 61, 0
6, 7800, Note_on_c, 2, 57, 88
6, 7916, Note_off_c, 2, 57, 0
6, 7920, Note_on_c, 2, 54, 88
6, 8095, Note_off_c, 2, 54, 0
6, 9000, Note_on_c, 2, 66, 88
6, 9233, Note_off_c, 2, 66, 0
6, 9240, Note_on_c, 2, 66, 88
6, 9356, Note_off_c, 2, 66, 0
6, 9360, Note_on_c, 2, 64, 88
6, 9713, Note_off_c, 2, 64, 0
6, 11640, Note_on_c, 2, 57, 88
6, 11698, Note_off_c, 2, 57, 0
6, 11700, Note_on_c, 2, 59, 88
6, 11758, Note_off_c, 2, 59, 0
6, 11760, Note_on_c, 2, 61, 88
6, 11818, Note_off_c, 2, 61, 0
6, 11820, Note_on_c, 2, 62, 88
6, 11878, Note_off_c, 2, 62, 0
6, 11880, Note_on_c, 2, 64, 88
6, 11996, Note_off_c, 2, 64, 0
6, 12000, Note_on_c, 2, 62, 88
6, 12058, Note_off_c, 2, 62, 0
6, 12060, Note_on_c, 2, 61, 88
6, 12118, Note_off_c, 2, 61, 0
6, 12120, Note_on_c, 2, 59, 88
6, 12178, Note_off_c, 2, 59, 0
6, 12180, Note_on_c, 2, 57, 88
6, 12238, Note_off_c, 2, 57, 0
6, 12240, Note_on_c, 2, 66, 88
6, 12356, Note_off_c, 2, 66, 0
6, 12360, Note_on_c, 2, 59, 88
6, 12418, Note_off_c, 2, 59, 0
6, 12420, Note_on_c, 2, 61, 88
6, 12478, Note_off_c, 2, 61, 0
6, 12480, Note_on_c, 2, 62, 88
6, 12538, Note_off_c, 2, 62, 0
6, 12540, Note_on_c, 2, 64, 88
6, 12598, Note_off_c, 2, 64, 0
6, 12600, Note_on_c, 2, 66, 88
6, 12716, Note_off_c, 2, 66, 0
6, 12720, Note_on_c, 2, 64, 88
6, 12778, Note_off_c, 2, 64, 0
6, 12780, Note_on_c, 2, 62, 88
6, 12838, Note_off_c, 2, 62, 0
6, 12840, Note_on_c, 2, 61, 88
6, 12898, Note_off_c, 2, 61, 0
6, 12900, Note_on_c, 2, 59, 88
6, 12958, Note_off_c, 2, 59, 0
6, 12960, Note_on_c, 2, 68, 88
6, 13076, Note_off_c, 2, 68, 0
6, 13080, Note_on_c, 2, 64, 88
6, 13138, Note_off_c, 2, 64, 0
6, 13140, Note_on_c, 2, 66, 88
6, 13198, Note_off_c, 2, 66, 0
6, 13200, Note_on_c, 2, 68, 88
6, 13258, Note_off_c, 2, 68, 0
6, 13260, Note_on_c, 2, 69, 88
6, 13318, Note_off_c, 2, 69, 0
6, 13320, Note_on_c, 2, 71, 88
6, 13436, Note_off_c, 2, 71, 0
6, 13440, Note_on_c, 2, 68, 88
6, 13556, Note_off_c, 2, 68, 0
6, 13560, Note_on_c, 2, 71, 88
6, 13676, Note_off_c, 2, 71, 0
6, 13680, Note_on_c, 2, 74, 88
6, 13796, Note_off_c, 2, 74, 0
6, 13800, Note_on_c, 2, 71, 88
6, 13916, Note_off_c, 2, 71, 0
6, 13920, Note_on_c, 2, 74, 88
6, 14036, Note_off_c, 2, 74, 0
6, 14040, Note_on_c, 2, 80, 88
6, 14156, Note_off_c, 2, 80, 0
6, 14160, Note_on_c, 2, 74, 88
6, 14276, Note_off_c, 2, 74, 0
6, 14280, Note_on_c, 2, 80, 88
6, 14396, Note_off_c, 2, 80, 0
6, 14400, Note_on_c, 2, 73, 88
6, 14753, Note_off_c, 2, 73, 0
6, 14760, Note_on_c, 2, 69, 88
6, 15113, Note_off_c, 2, 69, 0
6, 15120, Note_on_c, 2, 66, 88
6, 15473, Note_off_c, 2, 66, 0
6, 15480, Note_on_c, 2, 63, 88
6, 15833, Note_off_c, 2, 63, 0
6, 15840, Note_on_c, 2, 64, 88
6, 16074, Note_off_c, 2, 64, 0
6, 16080, Note_on_c, 2, 62, 88
6, 16196, Note_off_c, 2, 62, 0
6, 16200, Note_on_c, 2, 61, 88
6, 16434, Note_off_c, 2, 61, 0
6, 16440, Note_on_c, 2, 69, 88
6, 16553, Note_off_c, 2, 69, 0
6, 16560, Note_on_c, 2, 69, 88
6, 16913, Note_off_c, 2, 69, 0
6, 16920, Note_on_c, 2, 68, 88
6, 17273, Note_off_c, 2, 68, 0
6, 17280, Note_on_c, 2, 69, 88
6, 17455, Note_off_c, 2, 69, 0
6, 18480, Note_on_c, 2, 68, 88
6, 18596, Note_off_c, 2, 68, 0
6, 18600, Note_on_c, 2, 65, 88
6, 18716, Note_off_c, 2, 65, 0
6, 18720, Note_on_c, 2, 61, 88
6, 18895, Note_off_c, 2, 61, 0
6, 19920, Note_on_c, 2, 64, 88
6, 20036, Note_off_c, 2, 64, 0
6, 20040, Note_on_c, 2, 61, 88
6, 20156, Note_off_c, 2, 61, 0
6, 20160, Note_on_c, 2, 57, 88
6, 20335, Note_off_c, 2, 57, 0
6, 21840, Note_on_c, 2, 62, 88
6, 21956, Note_off_c, 2, 62, 0
6, 21960, Note_on_c, 2, 61, 88
6, 22194, Note_off_c, 2, 61, 0
6, 22200, Note_on_c, 2, 59, 88
6, 22316, Note_off_c, 2, 59, 0
6, 22320, Note_on_c, 2, 61, 88
6, 23028, Note_off_c, 2, 61, 0
6, 24840, Note_on_c, 2, 78, 88
6, 25193, Note_off_c, 2, 78, 0
6, 25200, Note_on_c, 2, 78, 88
6, 25375, Note_off_c, 2, 78, 0
6, 25380, Note_on_c, 2, 76, 88
6, 25553, Note_off_c, 2, 76, 0
6, 25560, Note_on_c, 2, 76, 88
6, 25735, Note_off_c, 2, 76, 0
6, 25740, Note_on_c, 2, 74, 88
6, 25915, Note_off_c, 2, 74, 0
6, 25920, Note_on_c, 2, 74, 88
6, 26036, Note_off_c, 2, 74, 0
6, 26040, Note_on_c, 2, 50, 88
6, 26098, Note_off_c, 2, 50, 0
6, 26100, Note_on_c, 2, 52, 88
6, 26158, Note_off_c, 2, 52, 0
6, 26160, Note_on_c, 2, 54, 88
6, 26218, Note_off_c, 2, 54, 0
6, 26220, Note_on_c, 2, 55, 88
6, 26278, Note_off_c, 2, 55, 0
6, 26280, Note_on_c, 2, 57, 88
6, 26396, Note_off_c, 2, 57, 0
6, 26400, Note_on_c, 2, 54, 88
6, 26516, Note_off_c, 2, 54, 0
6, 26520, Note_on_c, 2, 57, 88
6, 26636, Note_off_c, 2, 57, 0
6, 26640, Note_on_c, 2, 62, 88
6, 26756, Note_off_c, 2, 62, 0
6, 26760, Note_on_c, 2, 57, 88
6, 26876, Note_off_c, 2, 57, 0
6, 26880, Note_on_c, 2, 62, 88
6, 26996, Note_off_c, 2, 62, 0
6, 27000, Note_on_c, 2, 66, 88
6, 27116, Note_off_c, 2, 66, 0
6, 27120, Note_on_c, 2, 62, 88
6, 27236, Note_off_c, 2, 62, 0
6, 27240, Note_on_c, 2, 66, 88
6, 27356, Note_off_c, 2, 66, 0
6, 27360, Note_on_c, 2, 69, 88
6, 27713, Note_off_c, 2, 69, 0
6, 27720, Note_on_c, 2, 69, 88
6, 28073, Note_off_c, 2, 69, 0
6, 28080, Note_on_c, 2, 69, 88
6, 28255, Note_off_c, 2, 69, 0
6, 28260, Note_on_c, 2, 67, 88
6, 28433, Note_off_c, 2, 67, 0
6, 28440, Note_on_c, 2, 67, 88
6, 28615, Note_off_c, 2, 67, 0
6, 28620, Note_on_c, 2, 66, 88
6, 28795, Note_off_c, 2, 66, 0
6, 28800, Note_on_c, 2, 66, 88
6, 28913, Note_off_c, 2, 66, 0
6, 28920, Note_on_c, 2, 66, 88
6, 28978, Note_off_c, 2, 66, 0
6, 28980, Note_on_c, 2, 64, 88
6, 29038, Note_off_c, 2, 64, 0
6, 29040, Note_on_c, 2, 62, 88
6, 29098, Note_off_c, 2, 62, 0
6, 29100, Note_on_c, 2, 61, 88
6, 29158, Note_off_c, 2, 61, 0
6, 29160, Note_on_c, 2, 59, 88
6, 29276, Note_off_c, 2, 59, 0
6, 29280, Note_on_c, 2, 62, 88
6, 29396, Note_off_c, 2, 62, 0
6, 29400, Note_on_c, 2, 59, 88
6, 29516, Note_off_c, 2, 59, 0
6, 29520, Note_on_c, 2, 56, 88
6, 29695, Note_off_c, 2, 56, 0
6, 30360, Note_on_c, 2, 64, 88
6, 30418, Note_off_c, 2, 64, 0
6, 30420, Note_on_c, 2, 62, 88
6, 30478, Note_off_c, 2, 62, 0
6, 30480, Note_on_c, 2, 61, 88
6, 30538, Note_off_c, 2, 61, 0
6, 30540, Note_on_c, 2, 59, 88
6, 30598, Note_off_c, 2, 59, 0
6, 30600, Note_on_c, 2, 57, 88
6, 30716, Note_off_c, 2, 57, 0
6, 30720, Note_on_c, 2, 61, 88
6, 30836, Note_off_c, 2, 61, 0
6, 30840, Note_on_c, 2, 57, 88
6, 30956, Note_off_c, 2, 57, 0
6, 30960, Note_on_c, 2, 54, 88
6, 31135, Note_off_c, 2, 54, 0
6, 32040, Note_on_c, 2, 66, 88
6, 32273, Note_off_c, 2, 66, 0
6, 32280, Note_on_c, 2, 66, 88
6, 32396, Note_off_c, 2, 66, 0
6, 32400, Note_on_c, 2, 64, 88
6, 32753, Note_off_c, 2, 64, 0
6, 34680, Note_on_c, 2, 57, 88
6, 34738, Note_off_c, 2, 57, 0
6, 34740, Note_on_c, 2, 59, 88
6, 34798, Note_off_c, 2, 59, 0
6, 34800, Note_on_c, 2, 61, 88
6, 34858, Note_off_c, 2, 61, 0
6, 34860, Note_on_c, 2, 62, 88
6, 34918, Note_off_c, 2, 62, 0
6, 34920, Note_on_c, 2, 64, 88
6, 35036, Note_off_c, 2, 64, 0
6, 35040, Note_on_c, 2, 62, 88
6, 35098, Note_off_c, 2, 62, 0
6, 35100, Note_on_c, 2, 61, 88
6, 35158, Note_off_c, 2, 61, 0
6, 35160, Note_on_c, 2, 59, 88
6, 35218, Note_off_c, 2, 59, 0
6, 35220, Note_on_c, 2, 57, 88
6, 35278, Note_off_c, 2, 57, 0
6, 35280, Note_on_c, 2, 66, 88
6, 35396, Note_off_c, 2, 66, 0
6, 35400, Note_on_c, 2, 59, 88
6, 35458, Note_off_c, 2, 59, 0
6, 35460, Note_on_c, 2, 61, 88
6, 35518, Note_off_c, 2, 61, 0
6, 35520, Note_on_c, 2, 62, 88
6, 35578, Note_off_c, 2, 62, 0
6, 35580, Note_on_c, 2, 64, 88
6, 35638, Note_off_c, 2, 64, 0
6, 35640, Note_on_c, 2, 66, 88
6, 35756, Note_off_c, 2, 66, 0
6, 35760, Note_on_c, 2, 64, 88
6, 35818, Note_off_c, 2, 64, 0
6, 35820, Note_on_c, 2, 62, 88
6, 35878, Note_off_c, 2, 62, 0
6, 35880, Note_on_c, 2, 61, 88
6, 35938, Note_off_c, 2, 61, 0
6, 35940, Note_on_c, 2, 59, 88
6, 35998, Note_off_c, 2, 59, 0
6, 36000, Note_on_c, 2, 68, 88
6, 36116, Note_off_c, 2, 68, 0
6, 36120, Note_on_c, 2, 64, 88
6, 36178, Note_off_c, 2, 64, 0
6, 36180, Note_on_c, 2, 66, 88
6, 36238, Note_off_c, 2, 66, 0
6, 36240, Note_on_c, 2, 68, 88
6, 36298, Note_off_c, 2, 68, 0
6, 36300, Note_on_c, 2, 69, 88
6, 36358, Note_off_c, 2, 69, 0
6, 36360, Note_on_c, 2, 71, 88
6, 36476, Note_off_c, 2, 71, 0
6, 36480, Note_on_c, 2, 68, 88
6, 36596, Note_off_c, 2, 68, 0
6, 36600, Note_on_c, 2, 71, 88
6, 36716, Note_off_c, 2, 71, 0
6, 36720, Note_on_c, 2, 74, 88
6, 36836, Note_off_c, 2, 74, 0
6, 36840, Note_on_c, 2, 71, 88
6, 36956, Note_off_c, 2, 71, 0
6, 36960, Note_on_c, 2, 74, 88
6, 37076, Note_off_c, 2, 74, 0
6, 37080, Note_on_c, 2, 80, 88
6, 37196, Note_off_c, 2, 80, 0
6, 37200, Note_on_c, 2, 74, 88
6, 37316, Note_off_c, 2, 74, 0
6, 37320, Note_on_c, 2, 80, 88
6, 37436, Note_off_c, 2, 80, 0
6, 37440, Note_on_c, 2, 73, 88
6, 37793, Note_off_c, 2, 73, 0
6, 37800, Note_on_c, 2, 69, 88
6, 38153, Note_off_c, 2, 69, 0
6, 38160, Note_on_c, 2, 66, 88
6, 38513, Note_off_c, 2, 66, 0
6, 38520, Note_on_c, 2, 63, 88
6, 38873, Note_off_c, 2, 63, 0
6, 38880, Note_on_c, 2, 64, 88
6, 39114, Note_off_c, 2, 64, 0
6, 39120, Note_on_c, 2, 62, 88
6, 39236, Note_off_c, 2, 62, 0
6, 39240, Note_on_c, 2, 61, 88
6, 39474, Note_off_c, 2, 61, 0
6, 39480, Note_on_c, 2, 69, 88
6, 39593, Note_off_c, 2, 69, 0
6, 39600, Note_on_c, 2, 69, 88
6, 39953, Note_off_c, 2, 69, 0
6, 39960, Note_on_c, 2, 68, 88
6, 40313, Note_off_c, 2, 68, 0
6, 40320, Note_on_c, 2, 69, 88
6, 40495, Note_off_c, 2, 69, 0
6, 41520, Note_on_c, 2, 68, 88
6, 41636, Note_off_c, 2, 68, 0
6, 41640, Note_on_c, 2, 65, 88
6, 41756, Note_off_c, 2, 65, 0
6, 41760, Note_on_c, 2, 61, 88
6, 41935, Note_off_c, 2, 61, 0
6, 42960, Note_on_c, 2, 64, 88
6, 43076, Note_off_c, 2, 64, 0
6, 43080, Note_on_c, 2, 61, 88
6, 43196, Note_off_c, 2, 61, 0
6, 43200, Note_on_c, 2, 57, 88
6, 43375, Note_off_c, 2, 57, 0
6, 44880, Note_on_c, 2, 62, 88
6, 44996, Note_off_c, 2, 62, 0
6, 45000, Note_on_c, 2, 61, 88
6, 45234, Note_off_c, 2, 61, 0
6, 45240, Note_on_c, 2, 59, 88
6, 45356, Note_off_c, 2, 59, 0
6, 45360, Note_on_c, 2, 61, 88
6, 46068, Note_off_c, 2, 61, 0
6, 47880, Note_on_c, 2, 69, 88
6, 48233, Note_off_c, 2, 69, 0
6, 48240, Note_on_c, 2, 69, 88
6, 48415, Note_off_c, 2, 69, 0
6, 48420, Note_on_c, 2, 71, 88
6, 48593, Note_off_c, 2, 71, 0
6, 48600, Note_on_c, 2, 71, 88
6, 48775, Note_off_c, 2, 71, 0
6, 48780, Note_on_c, 2, 73, 88
6, 48955, Note_off_c, 2, 73, 0
6, 48960, Note_on_c, 2, 73, 88
6, 49135, Note_off_c, 2, 73, 0
6, 50760, Note_on_c, 2, 49, 88
6, 51113, Note_off_c, 2, 49, 0
6, 51120, Note_on_c, 2, 49, 88
6, 51295, Note_off_c, 2, 49, 0
6, 51300, Note_on_c, 2, 50, 88
6, 51473, Note_off_c, 2, 50, 0
6, 51480, Note_on_c, 2, 50, 88
6, 51655, Note_off_c, 2, 50, 0
6, 51660, Note_on_c, 2, 52, 88
6, 51835, Note_off_c, 2, 52, 0
6, 51840, Note_on_c, 2, 52, 88
6, 51956, Note_off_c, 2, 52, 0
6, 51960, Note_on_c, 2, 57, 88
6, 52018, Note_off_c, 2, 57, 0
6, 52020, Note_on_c, 2, 59, 88
6, 52078, Note_off_c, 2, 59, 0
6, 52080, Note_on_c, 2, 61, 88
6, 52138, Note_off_c, 2, 61, 0
6, 52140, Note_on_c, 2, 62, 88
6, 52198, Note_off_c, 2, 62, 0
6, 52200, Note_on_c, 2, 64, 88
6, 52316, Note_off_c, 2, 64, 0
6, 52320, Note_on_c, 2, 61, 88
6, 52436, Note_off_c, 2, 61, 0
6, 52440, Note_on_c, 2, 64, 88
6, 52556, Note_off_c, 2, 64, 0
6, 52560, Note_on_c, 2, 67, 88
6, 52735, Note_off_c, 2, 67, 0
6, 53400, Note_on_c, 2, 62, 88
6, 53458, Note_off_c, 2, 62, 0
6, 53460, Note_on_c, 2, 64, 88
6, 53518, Note_off_c, 2, 64, 0
6, 53520, Note_on_c, 2, 66, 88
6, 53578, Note_off_c, 2, 66, 0
6, 53580, Note_on_c, 2, 67, 88
6, 53638, Note_off_c, 2, 67, 0
6, 53640, Note_on_c, 2, 69, 88
6, 53756, Note_off_c, 2, 69, 0
6, 53760, Note_on_c, 2, 66, 88
6, 53876, Note_off_c, 2, 66, 0
6, 53880, Note_on_c, 2, 69, 88
6, 53996, Note_off_c, 2, 69, 0
6, 54000, Note_on_c, 2, 72, 88
6, 54175, Note_off_c, 2, 72, 0
6, 54960, Note_on_c, 2, 69, 88
6, 55073, Note_off_c, 2, 69, 0
6, 55080, Note_on_c, 2, 69, 88
6, 55102, Note_off_c, 2, 69, 0
6, 55103, Note_on_c, 2, 67, 88
6, 55132, Note_off_c, 2, 67, 0
6, 55133, Note_on_c, 2, 69, 88
6, 55154, Note_off_c, 2, 69, 0
6, 55155, Note_on_c, 2, 67, 88
6, 55177, Note_off_c, 2, 67, 0
6, 55178, Note_on_c, 2, 69, 88
6, 55199, Note_off_c, 2, 69, 0
6, 55200, Note_on_c, 2, 67, 88
6, 55316, Note_off_c, 2, 67, 0
6, 55320, Note_on_c, 2, 66, 88
6, 55436, Note_off_c, 2, 66, 0
6, 55440, Note_on_c, 2, 64, 88
6, 56030, Note_off_c, 2, 64, 0
6, 56040, Note_on_c, 2, 67, 88
6, 56156, Note_off_c, 2, 67, 0
6, 56160, Note_on_c, 2, 66, 88
6, 56750, Note_off_c, 2, 66, 0
6, 56760, Note_on_c, 2, 69, 88
6, 56876, Note_off_c, 2, 69, 0
6, 56880, Note_on_c, 2, 67, 88
6, 57470, Note_off_c, 2, 67, 0
6, 57480, Note_on_c, 2, 71, 88
6, 57596, Note_off_c, 2, 71, 0
6, 57600, Note_on_c, 2, 70, 88
6, 57775, Note_off_c, 2, 70, 0
6, 58320, Note_on_c, 2, 73, 88
6, 58495, Note_off_c, 2, 73, 0
6, 59160, Note_on_c, 2, 72, 88
6, 59218, Note_off_c, 2, 72, 0
6, 59220, Note_on_c, 2, 71, 88
6, 59278, Note_off_c, 2, 71, 0
6, 59280, Note_on_c, 2, 69, 88
6, 59338, Note_off_c, 2, 69, 0
6, 59340, Note_on_c, 2, 68, 88
6, 59398, Note_off_c, 2, 68, 0
6, 59400, Note_on_c, 2, 69, 88
6, 59516, Note_off_c, 2, 69, 0
6, 59520, Note_on_c, 2, 72, 88
6, 59636, Note_off_c, 2, 72, 0
6, 59640, Note_on_c, 2, 68, 88
6, 59756, Note_off_c, 2, 68, 0
6, 59760, Note_on_c, 2, 69, 88
6, 59876, Note_off_c, 2, 69, 0
6, 59880, Note_on_c, 2, 72, 88
6, 59938, Note_off_c, 2, 72, 0
6, 59940, Note_on_c, 2, 71, 88
6, 59998, Note_off_c, 2, 71, 0
6, 60000, Note_on_c, 2, 69, 88
6, 60058, Note_off_c, 2, 69, 0
6, 60060, Note_on_c, 2, 68, 88
6, 60118, Note_off_c, 2, 68, 0
6, 60120, Note_on_c, 2, 69, 88
6, 60236, Note_off_c, 2, 69, 0
6, 60240, Note_on_c, 2, 71, 88
6, 60298, Note_off_c, 2, 71, 0
6, 60300, Note_on_c, 2, 69, 88
6, 60358, Note_off_c, 2, 69, 0
6, 60360, Note_on_c, 2, 67, 88
6, 60418, Note_off_c, 2, 67, 0
6, 60420, Note_on_c, 2, 66, 88
6, 60478, Note_off_c, 2, 66, 0
6, 60480, Note_on_c, 2, 67, 88
6, 60655, Note_off_c, 2, 67, 0
6, 62940, Note_on_c, 2, 67, 88
6, 62998, Note_off_c, 2, 67, 0
6, 63000, Note_on_c, 2, 66, 88
6, 63418, Note_off_c, 2, 66, 0
6, 65160, Note_on_c, 2, 70, 88
6, 65513, Note_off_c, 2, 70, 0
6, 65520, Note_on_c, 2, 64, 88
6, 65873, Note_off_c, 2, 64, 0
6, 65880, Note_on_c, 2, 61, 88
6, 66356, Note_off_c, 2, 61, 0
6, 66360, Note_on_c, 2, 59, 88
6, 66418, Note_off_c, 2, 59, 0
6, 66420, Note_on_c, 2, 61, 88
6, 66478, Note_off_c, 2, 61, 0
6, 66480, Note_on_c, 2, 62, 88
6, 66538, Note_off_c, 2, 62, 0
6, 66540, Note_on_c, 2, 64, 88
6, 66598, Note_off_c, 2, 64, 0
6, 66600, Note_on_c, 2, 66, 88
6, 66716, Note_off_c, 2, 66, 0
6, 66720, Note_on_c, 2, 62, 88
6, 66836, Note_off_c, 2, 62, 0
6, 66840, Note_on_c, 2, 66, 88
6, 66956, Note_off_c, 2, 66, 0
6, 66960, Note_on_c, 2, 71, 88
6, 67076, Note_off_c, 2, 71, 0
6, 67080, Note_on_c, 2, 66, 88
6, 67196, Note_off_c, 2, 66, 0
6, 67200, Note_on_c, 2, 71, 88
6, 67316, Note_off_c, 2, 71, 0
6, 67320, Note_on_c, 2, 74, 88
6, 67436, Note_off_c, 2, 74, 0
6, 67440, Note_on_c, 2, 71, 88
6, 67556, Note_off_c, 2, 71, 0
6, 67560, Note_on_c, 2, 74, 88
6, 67676, Note_off_c, 2, 74, 0
6, 67680, Note_on_c, 2, 73, 88
6, 67796, Note_off_c, 2, 73, 0
6, 67800, Note_on_c, 2, 70, 88
6, 67916, Note_off_c, 2, 70, 0
6, 67920, Note_on_c, 2, 73, 88
6, 68036, Note_off_c, 2, 73, 0
6, 68040, Note_on_c, 2, 71, 88
6, 68393, Note_off_c, 2, 71, 0
6, 68400, Note_on_c, 2, 71, 88
6, 68753, Note_off_c, 2, 71, 0
6, 68760, Note_on_c, 2, 70, 88
6, 69113, Note_off_c, 2, 70, 0
6, 69120, Note_on_c, 2, 71, 88
6, 69295, Note_off_c, 2, 71, 0
6, 70320, Note_on_c, 2, 69, 88
6, 70436, Note_off_c, 2, 69, 0
6, 70440, Note_on_c, 2, 66, 88
6, 70556, Note_off_c, 2, 66, 0
6, 70560, Note_on_c, 2, 62, 88
6, 70676, Note_off_c, 2, 62, 0
6, 70680, Note_on_c, 2, 67, 88
6, 70974, Note_off_c, 2, 67, 0
6, 70980, Note_on_c, 2, 69, 88
6, 71038, Note_off_c, 2, 69, 0
6, 71040, Note_on_c, 2, 67, 88
6, 71098, Note_off_c, 2, 67, 0
6, 71100, Note_on_c, 2, 66, 88
6, 71158, Note_off_c, 2, 66, 0
6, 71160, Note_on_c, 2, 64, 88
6, 71218, Note_off_c, 2, 64, 0
6, 71220, Note_on_c, 2, 62, 88
6, 71278, Note_off_c, 2, 62, 0
6, 71280, Note_on_c, 2, 61, 88
6, 71396, Note_off_c, 2, 61, 0
6, 71400, Note_on_c, 2, 66, 88
6, 71694, Note_off_c, 2, 66, 0
6, 71700, Note_on_c, 2, 67, 88
6, 71758, Note_off_c, 2, 67, 0
6, 71760, Note_on_c, 2, 66, 88
6, 71818, Note_off_c, 2, 66, 0
6, 71820, Note_on_c, 2, 64, 88
6, 71878, Note_off_c, 2, 64, 0
6, 71880, Note_on_c, 2, 62, 88
6, 71938, Note_off_c, 2, 62, 0
6, 71940, Note_on_c, 2, 61, 88
6, 71998, Note_off_c, 2, 61, 0
6, 72000, Note_on_c, 2, 59, 88
6, 72116, Note_off_c, 2, 59, 0
6, 72120, Note_on_c, 2, 64, 88
6, 72414, Note_off_c, 2, 64, 0
6, 72420, Note_on_c, 2, 66, 88
6, 72478, Note_off_c, 2, 66, 0
6, 72480, Note_on_c, 2, 64, 88
6, 72538, Note_off_c, 2, 64, 0
6, 72540, Note_on_c, 2, 62, 88
6, 72598, Note_off_c, 2, 62, 0
6, 72600, Note_on_c, 2, 61, 88
6, 72658, Note_off_c, 2, 61, 0
6, 72660, Note_on_c, 2, 59, 88
6, 72718, Note_off_c, 2, 59, 0
6, 72720, Note_on_c, 2, 57, 88
6, 72836, Note_off_c, 2, 57, 0
6, 72840, Note_on_c, 2, 62, 88
6, 73556, Note_off_c, 2, 62, 0
6, 73560, Note_on_c, 2, 67, 88
6, 73618, Note_off_c, 2, 67, 0
6, 73620, Note_on_c, 2, 66, 88
6, 73678, Note_off_c, 2, 66, 0
6, 73680, Note_on_c, 2, 64, 88
6, 73738, Note_off_c, 2, 64, 0
6, 73740, Note_on_c, 2, 62, 88
6, 73798, Note_off_c, 2, 62, 0
6, 73800, Note_on_c, 2, 67, 88
6, 73916, Note_off_c, 2, 67, 0
6, 73920, Note_on_c, 2, 64, 88
6, 74036, Note_off_c, 2, 64, 0
6, 74040, Note_on_c, 2, 66, 88
6, 74274, Note_off_c, 2, 66, 0
6, 74280, Note_on_c, 2, 62, 88
6, 74396, Note_off_c, 2, 62, 0
6, 74400, Note_on_c, 2, 64, 88
6, 74516, Note_off_c, 2, 64, 0
6, 74520, Note_on_c, 2, 67, 88
6, 74996, Note_off_c, 2, 67, 0
6, 75000, Note_on_c, 2, 64, 88
6, 75116, Note_off_c, 2, 64, 0
6, 75120, Note_on_c, 2, 66, 88
6, 75236, Note_off_c, 2, 66, 0
6, 75240, Note_on_c, 2, 71, 88
6, 75710, Note_off_c, 2, 71, 0
6, 75720, Note_on_c, 2, 69, 88
6, 75836, Note_off_c, 2, 69, 0
6, 75840, Note_on_c, 2, 67, 88
6, 75956, Note_off_c, 2, 67, 0
6, 75960, Note_on_c, 2, 69, 88
6, 76436, Note_off_c, 2, 69, 0
6, 76440, Note_on_c, 2, 67, 88
6, 76556, Note_off_c, 2, 67, 0
6, 76560, Note_on_c, 2, 66, 88
6, 76676, Note_off_c, 2, 66, 0
6, 76680, Note_on_c, 2, 67, 88
6, 76796, Note_off_c, 2, 67, 0
6, 76800, Note_on_c, 2, 64, 88
6, 76916, Note_off_c, 2, 64, 0
6, 76920, Note_on_c, 2, 66, 88
6, 77036, Note_off_c, 2, 66, 0
6, 77040, Note_on_c, 2, 64, 88
6, 77393, Note_off_c, 2, 64, 0
6, 77400, Note_on_c, 2, 65, 88
6, 77458, Note_off_c, 2, 65, 0
6, 77460, Note_on_c, 2, 64, 88
6, 77518, Note_off_c, 2, 64, 0
6, 77520, Note_on_c, 2, 65, 88
6, 77578, Note_off_c, 2, 65, 0
6, 77580, Note_on_c, 2, 62, 88
6, 77638, Note_off_c, 2, 62, 0
6, 77640, Note_on_c, 2, 69, 88
6, 77698, Note_off_c, 2, 69, 0
6, 77700, Note_on_c, 2, 65, 88
6, 77876, Note_off_c, 2, 65, 0
6, 77880, Note_on_c, 2, 64, 88
6, 77996, Note_off_c, 2, 64, 0
6, 78000, Note_on_c, 2, 67, 88
6, 78234, Note_off_c, 2, 67, 0
6, 78240, Note_on_c, 2, 61, 88
6, 78356, Note_off_c, 2, 61, 0
6, 78360, Note_on_c, 2, 62, 88
6, 78594, Note_off_c, 2, 62, 0
6, 78600, Note_on_c, 2, 61, 88
6, 78716, Note_off_c, 2, 61, 0
6, 78720, Note_on_c, 2, 64, 88
6, 78954, Note_off_c, 2, 64, 0
6, 78960, Note_on_c, 2, 57, 88
6, 79076, Note_off_c, 2, 57, 0
6, 79080, Note_on_c, 2, 62, 88
6, 79375, Note_off_c, 2, 62, 0
6, 79980, Note_on_c, 2, 57, 88
6, 80038, Note_off_c, 2, 57, 0
6, 80040, Note_on_c, 2, 55, 88
6, 80098, Note_off_c, 2, 55, 0
6, 80100, Note_on_c, 2, 54, 88
6, 80158, Note_off_c, 2, 54, 0
6, 80160, Note_on_c, 2, 52, 88
6, 80218, Note_off_c, 2, 52, 0
6, 80220, Note_on_c, 2, 50, 88
6, 80278, Note_off_c, 2, 50, 0
6, 80280, Note_on_c, 2, 49, 88
6, 80455, Note_off_c, 2, 49, 0
6, 80760, Note_on_c, 2, 50, 88
6, 80818, Note_off_c, 2, 50, 0
6, 80820, Note_on_c, 2, 52, 88
6, 80878, Note_off_c, 2, 52, 0
6, 80880, Note_on_c, 2, 54, 88
6, 80938, Note_off_c, 2, 54, 0
6, 80940, Note_on_c, 2, 55, 88
6, 80998, Note_off_c, 2, 55, 0
6, 81000, Note_on_c, 2, 57, 88
6, 81116, Note_off_c, 2, 57, 0
6, 81120, Note_on_c, 2, 54, 88
6, 81236, Note_off_c, 2, 54, 0
6, 81240, Note_on_c, 2, 57, 88
6, 81356, Note_off_c, 2, 57, 0
6, 81360, Note_on_c, 2, 62, 88
6, 81476, Note_off_c, 2, 62, 0
6, 81480, Note_on_c, 2, 57, 88
6, 81596, Note_off_c, 2, 57, 0
6, 81600, Note_on_c, 2, 62, 88
6, 81716, Note_off_c, 2, 62, 0
6, 81720, Note_on_c, 2, 66, 88
6, 81836, Note_off_c, 2, 66, 0
6, 81840, Note_on_c, 2, 62, 88
6, 81956, Note_off_c, 2, 62, 0
6, 81960, Note_on_c, 2, 66, 88
6, 82076, Note_off_c, 2, 66, 0
6, 82080, Note_on_c, 2, 69, 88
6, 82433, Note_off_c, 2, 69, 0
6, 82440, Note_on_c, 2, 69, 88
6, 82793, Note_off_c, 2, 69, 0
6, 82800, Note_on_c, 2, 69, 88
6, 82975, Note_off_c, 2, 69, 0
6, 82980, Note_on_c, 2, 67, 88
6, 83153, Note_off_c, 2, 67, 0
6, 83160, Note_on_c, 2, 67, 88
6, 83335, Note_off_c, 2, 67, 0
6, 83340, Note_on_c, 2, 66, 88
6, 83515, Note_off_c, 2, 66, 0
6, 83520, Note_on_c, 2, 66, 88
6, 83695, Note_off_c, 2, 66, 0
6, 85320, Note_on_c, 2, 69, 88
6, 85673, Note_off_c, 2, 69, 0
6, 85680, Note_on_c, 2, 69, 88
6, 85855, Note_off_c, 2, 69, 0
6, 85860, Note_on_c, 2, 67, 88
6, 86033, Note_off_c, 2, 67, 0
6, 86040, Note_on_c, 2, 67, 88
6, 86215, Note_off_c, 2, 67, 0
6, 86220, Note_on_c, 2, 66, 88
6, 86395, Note_off_c, 2, 66, 0
6, 86400, Note_on_c, 2, 67, 88
6, 86575, Note_off_c, 2, 67, 0
6, 87240, Note_on_c, 2, 57, 88
6, 87298, Note_off_c, 2, 57, 0
6, 87300, Note_on_c, 2, 59, 88
6, 87358, Note_off_c, 2, 59, 0
6, 87360, Note_on_c, 2, 61, 88
6, 87418, Note_off_c, 2, 61, 0
6, 87420, Note_on_c, 2, 62, 88
6, 87478, Note_off_c, 2, 62, 0
6, 87480, Note_on_c, 2, 64, 88
6, 87596, Note_off_c, 2, 64, 0
6, 87600, Note_on_c, 2, 61, 88
6, 87716, Note_off_c, 2, 61, 0
6, 87720, Note_on_c, 2, 64, 88
6, 87836, Note_off_c, 2, 64, 0
6, 87840, Note_on_c, 2, 69, 88
6, 88015, Note_off_c, 2, 69, 0
6, 88680, Note_on_c, 2, 55, 88
6, 88738, Note_off_c, 2, 55, 0
6, 88740, Note_on_c, 2, 57, 88
6, 88798, Note_off_c, 2, 57, 0
6, 88800, Note_on_c, 2, 59, 88
6, 88858, Note_off_c, 2, 59, 0
6, 88860, Note_on_c, 2, 61, 88
6, 88918, Note_off_c, 2, 61, 0
6, 88920, Note_on_c, 2, 62, 88
6, 89036, Note_off_c, 2, 62, 0
6, 89040, Note_on_c, 2, 59, 88
6, 89156, Note_off_c, 2, 59, 0
6, 89160, Note_on_c, 2, 62, 88
6, 89276, Note_off_c, 2, 62, 0
6, 89280, Note_on_c, 2, 67, 88
6, 89514, Note_off_c, 2, 67, 0
6, 89520, Note_on_c, 2, 62, 88
6, 89636, Note_off_c, 2, 62, 0
6, 89640, Note_on_c, 2, 67, 88
6, 89873, Note_off_c, 2, 67, 0
6, 89880, Note_on_c, 2, 67, 88
6, 89993, Note_off_c, 2, 67, 0
6, 90000, Note_on_c, 2, 67, 88
6, 90353, Note_off_c, 2, 67, 0
6, 90480, Note_on_c, 2, 69, 88
6, 90538, Note_off_c, 2, 69, 0
6, 90540, Note_on_c, 2, 67, 88
6, 90598, Note_off_c, 2, 67, 0
6, 90600, Note_on_c, 2, 66, 88
6, 90658, Note_off_c, 2, 66, 0
6, 90660, Note_on_c, 2, 64, 88
6, 90718, Note_off_c, 2, 64, 0
6, 90720, Note_on_c, 2, 66, 88
6, 90836, Note_off_c, 2, 66, 0
6, 90840, Note_on_c, 2, 62, 88
6, 90898, Note_off_c, 2, 62, 0
6, 90900, Note_on_c, 2, 64, 88
6, 90958, Note_off_c, 2, 64, 0
6, 90960, Note_on_c, 2, 66, 88
6, 91018, Note_off_c, 2, 66, 0
6, 91020, Note_on_c, 2, 67, 88
6, 91078, Note_off_c, 2, 67, 0
6, 91080, Note_on_c, 2, 69, 88
6, 91196, Note_off_c, 2, 69, 0
6, 91200, Note_on_c, 2, 67, 88
6, 91258, Note_off_c, 2, 67, 0
6, 91260, Note_on_c, 2, 66, 88
6, 91318, Note_off_c, 2, 66, 0
6, 91320, Note_on_c, 2, 64, 88
6, 91378, Note_off_c, 2, 64, 0
6, 91380, Note_on_c, 2, 62, 88
6, 91438, Note_off_c, 2, 62, 0
6, 91440, Note_on_c, 2, 67, 88
6, 91556, Note_off_c, 2, 67, 0
6, 91560, Note_on_c, 2, 64, 88
6, 91618, Note_off_c, 2, 64, 0
6, 91620, Note_on_c, 2, 66, 88
6, 91678, Note_off_c, 2, 66, 0
6, 91680, Note_on_c, 2, 67, 88
6, 91738, Note_off_c, 2, 67, 0
6, 91740, Note_on_c, 2, 69, 88
6, 91798, Note_off_c, 2, 69, 0
6, 91800, Note_on_c, 2, 71, 88
6, 91916, Note_off_c, 2, 71, 0
6, 91920, Note_on_c, 2, 69, 88
6, 91978, Note_off_c, 2, 69, 0
6, 91980, Note_on_c, 2, 67, 88
6, 92038, Note_off_c, 2, 67, 0
6, 92040, Note_on_c, 2, 66, 88
6, 92098, Note_off_c, 2, 66, 0
6, 92100, Note_on_c, 2, 64, 88
6, 92158, Note_off_c, 2, 64, 0
6, 92160, Note_on_c, 2, 69, 88
6, 92394, Note_off_c, 2, 69, 0
6, 92400, Note_on_c, 2, 67, 88
6, 92516, Note_off_c, 2, 67, 0
6, 92520, Note_on_c, 2, 66, 88
6, 93228, Note_off_c, 2, 66, 0
6, 93240, Note_on_c, 2, 64, 88
6, 93474, Note_off_c, 2, 64, 0
6, 93480, Note_on_c, 2, 62, 88
6, 93596, Note_off_c, 2, 62, 0
6, 93600, Note_on_c, 2, 61, 88
6, 93716, Note_off_c, 2, 61, 0
6, 93720, Note_on_c, 2, 57, 88
6, 93778, Note_off_c, 2, 57, 0
6, 93780, Note_on_c, 2, 59, 88
6, 93838, Note_off_c, 2, 59, 0
6, 93840, Note_on_c, 2, 61, 88
6, 93898, Note_off_c, 2, 61, 0
6, 93900, Note_on_c, 2, 62, 88
6, 93958, Note_off_c, 2, 62, 0
6, 93960, Note_on_c, 2, 64, 88
6, 94076, Note_off_c, 2, 64, 0
6, 94080, Note_on_c, 2, 61, 88
6, 94196, Note_off_c, 2, 61, 0
6, 94200, Note_on_c, 2, 64, 88
6, 94316, Note_off_c, 2, 64, 0
6, 94320, Note_on_c, 2, 67, 88
6, 94436, Note_off_c, 2, 67, 0
6, 94440, Note_on_c, 2, 64, 88
6, 94556, Note_off_c, 2, 64, 0
6, 94560, Note_on_c, 2, 67, 88
6, 94676, Note_off_c, 2, 67, 0
6, 94680, Note_on_c, 2, 73, 88
6, 94796, Note_off_c, 2, 73, 0
6, 94800, Note_on_c, 2, 67, 88
6, 94916, Note_off_c, 2, 67, 0
6, 94920, Note_on_c, 2, 73, 88
6, 95036, Note_off_c, 2, 73, 0
6, 95040, Note_on_c, 2, 66, 88
6, 95393, Note_off_c, 2, 66, 0
6, 95400, Note_on_c, 2, 62, 88
6, 95753, Note_off_c, 2, 62, 0
6, 95760, Note_on_c, 2, 59, 88
6, 96113, Note_off_c, 2, 59, 0
6, 96120, Note_on_c, 2, 56, 88
6, 96473, Note_off_c, 2, 56, 0
6, 96480, Note_on_c, 2, 57, 88
6, 96714, Note_off_c, 2, 57, 0
6, 96720, Note_on_c, 2, 55, 88
6, 96836, Note_off_c, 2, 55, 0
6, 96840, Note_on_c, 2, 54, 88
6, 97074, Note_off_c, 2, 54, 0
6, 97080, Note_on_c, 2, 64, 88
6, 97196, Note_off_c, 2, 64, 0
6, 97200, Note_on_c, 2, 61, 88
6, 97434, Note_off_c, 2, 61, 0
6, 97440, Note_on_c, 2, 62, 88
6, 97674, Note_off_c, 2, 62, 0
6, 97680, Note_on_c, 2, 61, 88
6, 97738, Note_off_c, 2, 61, 0
6, 97740, Note_on_c, 2, 59, 88
6, 97798, Note_off_c, 2, 59, 0
6, 97800, Note_on_c, 2, 61, 88
6, 97916, Note_off_c, 2, 61, 0
6, 97920, Note_on_c, 2, 62, 88
6, 97978, Note_off_c, 2, 62, 0
6, 99120, Note_on_c, 2, 73, 88
6, 99236, Note_off_c, 2, 73, 0
6, 99240, Note_on_c, 2, 70, 88
6, 99356, Note_off_c, 2, 70, 0
6, 99360, Note_on_c, 2, 66, 88
6, 99476, Note_off_c, 2, 66, 0
6, 99480, Note_on_c, 2, 68, 88
6, 99538, Note_off_c, 2, 68, 0
6, 99540, Note_on_c, 2, 70, 88
6, 99598, Note_off_c, 2, 70, 0
6, 99600, Note_on_c, 2, 71, 88
6, 99658, Note_off_c, 2, 71, 0
6, 99660, Note_on_c, 2, 73, 88
6, 99718, Note_off_c, 2, 73, 0
6, 99720, Note_on_c, 2, 74, 88
6, 99778, Note_off_c, 2, 74, 0
6, 100560, Note_on_c, 2, 69, 88
6, 100676, Note_off_c, 2, 69, 0
6, 100680, Note_on_c, 2, 66, 88
6, 100796, Note_off_c, 2, 66, 0
6, 100800, Note_on_c, 2, 62, 88
6, 100916, Note_off_c, 2, 62, 0
6, 100920, Note_on_c, 2, 64, 88
6, 100978, Note_off_c, 2, 64, 0
6, 100980, Note_on_c, 2, 66, 88
6, 101038, Note_off_c, 2, 66, 0
6, 101040, Note_on_c, 2, 67, 88
6, 101098, Note_off_c, 2, 67, 0
6, 101100, Note_on_c, 2, 69, 88
6, 101158, Note_off_c, 2, 69, 0
6, 101160, Note_on_c, 2, 71, 88
6, 101218, Note_off_c, 2, 71, 0
6, 101760, Note_on_c, 2, 61, 88
6, 101876, Note_off_c, 2, 61, 0
6, 101880, Note_on_c, 2, 62, 88
6, 102114, Note_off_c, 2, 62, 0
6, 102120, Note_on_c, 2, 66, 88
6, 102236, Note_off_c, 2, 66, 0
6, 102240, Note_on_c, 2, 67, 88
6, 102356, Note_off_c, 2, 67, 0
6, 102360, Note_on_c, 2, 69, 88
6, 102476, Note_off_c, 2, 69, 0
6, 102480, Note_on_c, 2, 71, 88
6, 102596, Note_off_c, 2, 71, 0
6, 102600, Note_on_c, 2, 66, 88
6, 102834, Note_off_c, 2, 66, 0
6, 102840, Note_on_c, 2, 67, 88
6, 103074, Note_off_c, 2, 67, 0
6, 103080, Note_on_c, 2, 69, 88
6, 103196, Note_off_c, 2, 69, 0
6, 103200, Note_on_c, 2, 66, 88
6, 103670, Note_off_c, 2, 66, 0
6, 105480, Note_on_c, 2, 69, 88
6, 105833, Note_off_c, 2, 69, 0
6, 105840, Note_on_c, 2, 69, 88
6, 106015, Note_off_c, 2, 69, 0
6, 106020, Note_on_c, 2, 71, 88
6, 106193, Note_off_c, 2, 71, 0
6, 106200, Note_on_c, 2, 71, 88
6, 106375, Note_off_c, 2, 71, 0
6, 106380, Note_on_c, 2, 73, 88
6, 106555, Note_off_c, 2, 73, 0
6, 106560, Note_on_c, 2, 73, 88
6, 106735, Note_off_c, 2, 73, 0
6, 108360, Note_on_c, 2, 49, 88
6, 108713, Note_off_c, 2, 49, 0
6, 108720, Note_on_c, 2, 49, 88
6, 108895, Note_off_c, 2, 49, 0
6, 108900, Note_on_c, 2, 50, 88
6, 109073, Note_off_c, 2, 50, 0
6, 109080, Note_on_c, 2, 50, 88
6, 109255, Note_off_c, 2, 50, 0
6, 109260, Note_on_c, 2, 52, 88
6, 109435, Note_off_c, 2, 52, 0
6, 109440, Note_on_c, 2, 52, 88
6, 109556, Note_off_c, 2, 52, 0
6, 109560, Note_on_c, 2, 57, 88
6, 109618, Note_off_c, 2, 57, 0
6, 109620, Note_on_c, 2, 59, 88
6, 109678, Note_off_c, 2, 59, 0
6, 109680, Note_on_c, 2, 61, 88
6, 109738, Note_off_c, 2, 61, 0
6, 109740, Note_on_c, 2, 62, 88
6, 109798, Note_off_c, 2, 62, 0
6, 109800, Note_on_c, 2, 64, 88
6, 109916, Note_off_c, 2, 64, 0
6, 109920, Note_on_c, 2, 61, 88
6, 110036, Note_off_c, 2, 61, 0
6, 110040, Note_on_c, 2, 64, 88
6, 110156, Note_off_c, 2, 64, 0
6, 110160, Note_on_c, 2, 67, 88
6, 110335, Note_off_c, 2, 67, 0
6, 111000, Note_on_c, 2, 62, 88
6, 111058, Note_off_c, 2, 62, 0
6, 111060, Note_on_c, 2, 64, 88
6, 111118, Note_off_c, 2, 64, 0
6, 111120, Note_on_c, 2, 66, 88
6, 111178, Note_off_c, 2, 66, 0
6, 111180, Note_on_c, 2, 67, 88
6, 111238, Note_off_c, 2, 67, 0
6, 111240, Note_on_c, 2, 69, 88
6, 111356, Note_off_c, 2, 69, 0
6, 111360, Note_on_c, 2, 66, 88
6, 111476, Note_off_c, 2, 66, 0
6, 111480, Note_on_c, 2, 69, 88
6, 111596, Note_off_c, 2, 69, 0
6, 111600, Note_on_c, 2, 72, 88
6, 111775, Note_off_c, 2, 72, 0
6, 112560, Note_on_c, 2, 69, 88
6, 112673, Note_off_c, 2, 69, 0
6, 112680, Note_on_c, 2, 69, 88
6, 112702, Note_off_c, 2, 69, 0
6, 112703, Note_on_c, 2, 67, 88
6, 112732, Note_off_c, 2, 67, 0
6, 112733, Note_on_c, 2, 69, 88
6, 112754, Note_off_c, 2, 69, 0
6, 112755, Note_on_c, 2, 67, 88
6, 112777, Note_off_c, 2, 67, 0
6, 112778, Note_on_c, 2, 69, 88
6, 112799, Note_off_c, 2, 69, 0
6, 112800, Note_on_c, 2, 67, 88
6, 112916, Note_off_c, 2, 67, 0
6, 112920, Note_on_c, 2, 66, 88
6, 113036, Note_off_c, 2, 66, 0
6, 113040, Note_on_c, 2, 64, 88
6, 113630, Note_off_c, 2, 64, 0
6, 113640, Note_on_c, 2, 67, 88
6, 113756, Note_off_c, 2, 67, 0
6, 113760, Note_on_c, 2, 66, 88
6, 114350, Note_off_c, 2, 66, 0
6, 114360, Note_on_c, 2, 69, 88
6, 114476, Note_off_c, 2, 69, 0
6, 114480, Note_on_c, 2, 67, 88
6, 115070, Note_off_c, 2, 67, 0
6, 115080, Note_on_c, 2, 71, 88
6, 115196, Note_off_c, 2, 71, 0
6, 115200, Note_on_c, 2, 70, 88
6, 115375, Note_off_c, 2, 70, 0
6, 115920, Note_on_c, 2, 73, 88
6, 116095, Note_off_c, 2, 73, 0
6, 116760, Note_on_c, 2, 72, 88
6, 116818, Note_off_c, 2, 72, 0
6, 116820, Note_on_c, 2, 71, 88
6, 116878, Note_off_c, 2, 71, 0
6, 116880, Note_on_c, 2, 69, 88
6, 116938, Note_off_c, 2, 69, 0
6, 116940, Note_on_c, 2, 68, 88
6, 116998, Note_off_c, 2, 68, 0
6, 117000, Note_on_c, 2, 69, 88
6, 117116, Note_off_c, 2, 69, 0
6, 117120, Note_on_c, 2, 72, 88
6, 117236, Note_off_c, 2, 72, 0
6, 117240, Note_on_c, 2, 68, 88
6, 117356, Note_off_c, 2, 68, 0
6, 117360, Note_on_c, 2, 69, 88
6, 117476, Note_off_c, 2, 69, 0
6, 117480, Note_on_c, 2, 72, 88
6, 117538, Note_off_c, 2, 72, 0
6, 117540, Note_on_c, 2, 71, 88
6, 117598, Note_off_c, 2, 71, 0
6, 117600, Note_on_c, 2, 69, 88
6, 117658, Note_off_c, 2, 69, 0
6, 117660, Note_on_c, 2, 68, 88
6, 117718, Note_off_c, 2, 68, 0
6, 117720, Note_on_c, 2, 69, 88
6, 117836, Note_off_c, 2, 69, 0
6, 117840, Note_on_c, 2, 71, 88
6, 117898, Note_off_c, 2, 71, 0
6, 117900, Note_on_c, 2, 69, 88
6, 117958, Note_off_c, 2, 69, 0
6, 117960, Note_on_c, 2, 67, 88
6, 118018, Note_off_c, 2, 67, 0
6, 118020, Note_on_c, 2, 66, 88
6, 118078, Note_off_c, 2, 66, 0
6, 118080, Note_on_c, 2, 67, 88
6, 118255, Note_off_c, 2, 67, 0
6, 120540, Note_on_c, 2, 67, 88
6, 120598, Note_off_c, 2, 67, 0
6, 120600, Note_on_c, 2, 66, 88
6, 121018, Note_off_c, 2, 66, 0
6, 122760, Note_on_c, 2, 70, 88
6, 123113, Note_off_c, 2, 70, 0
6, 123120, Note_on_c, 2, 64, 88
6, 123473, Note_off_c, 2, 64, 0
6, 123480, Note_on_c, 2, 61, 88
6, 123956, Note_off_c, 2, 61, 0
6, 123960, Note_on_c, 2, 59, 88
6, 124018, Note_off_c, 2, 59, 0
6, 124020, Note_on_c, 2, 61, 88
6, 124078, Note_off_c, 2, 61, 0
6, 124080, Note_on_c, 2, 62, 88
6, 124138, Note_off_c, 2, 62, 0
6, 124140, Note_on_c, 2, 64, 88
6, 124198, Note_off_c, 2, 64, 0
6, 124200, Note_on_c, 2, 66, 88
6, 124316, Note_off_c, 2, 66, 0
6, 124320, Note_on_c, 2, 62, 88
6, 124436, Note_off_c, 2, 62, 0
6, 124440, Note_on_c, 2, 66, 88
6, 124556, Note_off_c, 2, 66, 0
6, 124560, Note_on_c, 2, 71, 88
6, 124676, Note_off_c, 2, 71, 0
6, 124680, Note_on_c, 2, 66, 88
6, 124796, Note_off_c, 2, 66, 0
6, 124800, Note_on_c, 2, 71, 88
6, 124916, Note_off_c, 2, 71, 0
6, 124920, Note_on_c, 2, 74, 88
6, 125036, Note_off_c, 2, 74, 0
6, 125040, Note_on_c, 2, 71, 88
6, 125156, Note_off_c, 2, 71, 0
6, 125160, Note_on_c, 2, 74, 88
6, 125276, Note_off_c, 2, 74, 0
6, 125280, Note_on_c, 2, 73, 88
6, 125396, Note_off_c, 2, 73, 0
6, 125400, Note_on_c, 2, 70, 88
6, 125516, Note_off_c, 2, 70, 0
6, 125520, Note_on_c, 2, 73, 88
6, 125636, Note_off_c, 2, 73, 0
6, 125640, Note_on_c, 2, 71, 88
6, 125993, Note_off_c, 2, 71, 0
6, 126000, Note_on_c, 2, 71, 88
6, 126353, Note_off_c, 2, 71, 0
6, 126360, Note_on_c, 2, 70, 88
6, 126713, Note_off_c, 2, 70, 0
6, 126720, Note_on_c, 2, 71, 88
6, 126895, Note_off_c, 2, 71, 0
6, 127920, Note_on_c, 2, 69, 88
6, 128036, Note_off_c, 2, 69, 0
6, 128040, Note_on_c, 2, 66, 88
6, 128156, Note_off_c, 2, 66, 0
6, 128160, Note_on_c, 2, 62, 88
6, 128276, Note_off_c, 2, 62, 0
6, 128280, Note_on_c, 2, 67, 88
6, 128574, Note_off_c, 2, 67, 0
6, 128580, Note_on_c, 2, 69, 88
6, 128638, Note_off_c, 2, 69, 0
6, 128640, Note_on_c, 2, 67, 88
6, 128698, Note_off_c, 2, 67, 0
6, 128700, Note_on_c, 2, 66, 88
6, 128758, Note_off_c, 2, 66, 0
6, 128760, Note_on_c, 2, 64, 88
6, 128818, Note_off_c, 2, 64, 0
6, 128820, Note_on_c, 2, 62, 88
6, 128878, Note_off_c, 2, 62, 0
6, 128880, Note_on_c, 2, 61, 88
6, 128996, Note_off_c, 2, 61, 0
6, 129000, Note_on_c, 2, 66, 88
6, 129294, Note_off_c, 2, 66, 0
6, 129300, Note_on_c, 2, 67, 88
6, 129358, Note_off_c, 2, 67, 0
6, 129360, Note_on_c, 2, 66, 88
6, 129418, Note_off_c, 2, 66, 0
6, 129420, Note_on_c, 2, 64, 88
6, 129478, Note_off_c, 2, 64, 0
6, 129480, Note_on_c, 2, 62, 88
6, 129538, Note_off_c, 2, 62, 0
6, 129540, Note_on_c, 2, 61, 88
6, 129598, Note_off_c, 2, 61, 0
6, 129600, Note_on_c, 2, 59, 88
6, 129716, Note_off_c, 2, 59, 0
6, 129720, Note_on_c, 2, 64, 88
6, 130014, Note_off_c, 2, 64, 0
6, 130020, Note_on_c, 2, 66, 88
6, 130078, Note_off_c, 2, 66, 0
6, 130080, Note_on_c, 2, 64, 88
6, 130138, Note_off_c, 2, 64, 0
6, 130140, Note_on_c, 2, 62, 88
6, 130198, Note_off_c, 2, 62, 0
6, 130200, Note_on_c, 2, 61, 88
6, 130258, Note_off_c, 2, 61, 0
6, 130260, Note_on_c, 2, 59, 88
6, 130318, Note_off_c, 2, 59, 0
6, 130320, Note_on_c, 2, 57, 88
6, 130436, Note_off_c, 2, 57, 0
6, 130440, Note_on_c, 2, 62, 88
6, 131156, Note_off_c, 2, 62, 0
6, 131160, Note_on_c, 2, 67, 88
6, 131218, Note_off_c, 2, 67, 0
6, 131220, Note_on_c, 2, 66, 88
6, 131278, Note_off_c, 2, 66, 0
6, 131280, Note_on_c, 2, 64, 88
6, 131338, Note_off_c, 2, 64, 0
6, 131340, Note_on_c, 2, 62, 88
6, 131398, Note_off_c, 2, 62, 0
6, 131400, Note_on_c, 2, 67, 88
6, 131516, Note_off_c, 2, 67, 0
6, 131520, Note_on_c, 2, 64, 88
6, 131636, Note_off_c, 2, 64, 0
6, 131640, Note_on_c, 2, 66, 88
6, 131874, Note_off_c, 2, 66, 0
6, 131880, Note_on_c, 2, 62, 88
6, 131996, Note_off_c, 2, 62, 0
6, 132000, Note_on_c, 2, 64, 88
6, 132116, Note_off_c, 2, 64, 0
6, 132120, Note_on_c, 2, 67, 88
6, 132596, Note_off_c, 2, 67, 0
6, 132600, Note_on_c, 2, 64, 88
6, 132716, Note_off_c, 2, 64, 0
6, 132720, Note_on_c, 2, 66, 88
6, 132836, Note_off_c, 2, 66, 0
6, 132840, Note_on_c, 2, 71, 88
6, 133310, Note_off_c, 2, 71, 0
6, 133320, Note_on_c, 2, 69, 88
6, 133436, Note_off_c, 2, 69, 0
6, 133440, Note_on_c, 2, 67, 88
6, 133556, Note_off_c, 2, 67, 0
6, 133560, Note_on_c, 2, 69, 88
6, 134036, Note_off_c, 2, 69, 0
6, 134040, Note_on_c, 2, 67, 88
6, 134156, Note_off_c, 2, 67, 0
6, 134160, Note_on_c, 2, 66, 88
6, 134276, Note_off_c, 2, 66, 0
6, 134280, Note_on_c, 2, 67, 88
6, 134396, Note_off_c, 2, 67, 0
6, 134400, Note_on_c, 2, 64, 88
6, 134516, Note_off_c, 2, 64, 0
6, 134520, Note_on_c, 2, 66, 88
6, 134636, Note_off_c, 2, 66, 0
6, 134640, Note_on_c, 2, 64, 88
6, 134993, Note_off_c, 2, 64, 0
6, 135000, Note_on_c, 2, 65, 88
6, 135058, Note_off_c, 2, 65, 0
6, 135060, Note_on_c, 2, 64, 88
6, 135118, Note_off_c, 2, 64, 0
6, 135120, Note_on_c, 2, 65, 88
6, 135178, Note_off_c, 2, 65, 0
6, 135180, Note_on_c, 2, 62, 88
6, 135238, Note_off_c, 2, 62, 0
6, 135240, Note_on_c, 2, 69, 88
6, 135298, Note_off_c, 2, 69, 0
6, 135300, Note_on_c, 2, 65, 88
6, 135476, Note_off_c, 2, 65, 0
6, 135480, Note_on_c, 2, 64, 88
6, 135596, Note_off_c, 2, 64, 0
6, 135600, Note_on_c, 2, 67, 88
6, 135834, Note_off_c, 2, 67, 0
6, 135840, Note_on_c, 2, 61, 88
6, 135956, Note_off_c, 2, 61, 0
6, 135960, Note_on_c, 2, 62, 88
6, 136194, Note_off_c, 2, 62, 0
6, 136200, Note_on_c, 2, 61, 88
6, 136316, Note_off_c, 2, 61, 0
6, 136320, Note_on_c, 2, 64, 88
6, 136554, Note_off_c, 2, 64, 0
6, 136560, Note_on_c, 2, 57, 88
6, 136676, Note_off_c, 2, 57, 0
6, 136680, Note_on_c, 2, 62, 88
6, 136975, Note_off_c, 2, 62, 0
6, 137580, Note_on_c, 2, 57, 88
6, 137638, Note_off_c, 2, 57, 0
6, 137640, Note_on_c, 2, 55, 88
6, 137698, Note_off_c, 2, 55, 0
6, 137700, Note_on_c, 2, 54, 88
6, 137758, Note_off_c, 2, 54, 0
6, 137760, Note_on_c, 2, 52, 88
6, 137818, Note_off_c, 2, 52, 0
6, 137820, Note_on_c, 2, 50, 88
6, 137878, Note_off_c, 2, 50, 0
6, 137880, Note_on_c, 2, 49, 88
6, 138055, Note_off_c, 2, 49, 0
6, 138360, Note_on_c, 2, 50, 88
6, 138418, Note_off_c, 2, 50, 0
6, 138420, Note_on_c, 2, 52, 88
6, 138478, Note_off_c, 2, 52, 0
6, 138480, Note_on_c, 2, 54, 88
6, 138538, Note_off_c, 2, 54, 0
6, 138540, Note_on_c, 2, 55, 88
6, 138598, Note_off_c, 2, 55, 0
6, 138600, Note_on_c, 2, 57, 88
6, 138716, Note_off_c, 2, 57, 0
6, 138720, Note_on_c, 2, 54, 88
6, 138836, Note_off_c, 2, 54, 0
6, 138840, Note_on_c, 2, 57, 88
6, 138956, Note_off_c, 2, 57, 0
6, 138960, Note_on_c, 2, 62, 88
6, 139076, Note_off_c, 2, 62, 0
6, 139080, Note_on_c, 2, 57, 88
6, 139196, Note_off_c, 2, 57, 0
6, 139200, Note_on_c, 2, 62, 88
6, 139316, Note_off_c, 2, 62, 0
6, 139320, Note_on_c, 2, 66, 88
6, 139436, Note_off_c, 2, 66, 0
6, 139440, Note_on_c, 2, 62, 88
6, 139556, Note_off_c, 2, 62, 0
6, 139560, Note_on_c, 2, 66, 88
6, 139676, Note_off_c, 2, 66, 0
6, 139680, Note_on_c, 2, 69, 88
6, 140033, Note_off_c, 2, 69, 0
6, 140040, Note_on_c, 2, 69, 88
6, 140393, Note_off_c, 2, 69, 0
6, 140400, Note_on_c, 2, 69, 88
6, 140575, Note_off_c, 2, 69, 0
6, 140580, Note_on_c, 2, 67, 88
6, 140753, Note_off_c, 2, 67, 0
6, 140760, Note_on_c, 2, 67, 88
6, 140935, Note_off_c, 2, 67, 0
6, 140940, Note_on_c, 2, 66, 88
6, 141115, Note_off_c, 2, 66, 0
6, 141120, Note_on_c, 2, 66, 88
6, 141295, Note_off_c, 2, 66, 0
6, 142920, Note_on_c, 2, 69, 88
6, 143273, Note_off_c, 2, 69, 0
6, 143280, Note_on_c, 2, 69, 88
6, 143455, Note_off_c, 2, 69, 0
6, 143460, Note_on_c, 2, 67, 88
6, 143633, Note_off_c, 2, 67, 0
6, 143640, Note_on_c, 2, 67, 88
6, 143815, Note_off_c, 2, 67, 0
6, 143820, Note_on_c, 2, 66, 88
6, 143995, Note_off_c, 2, 66, 0
6, 144000, Note_on_c, 2, 67, 88
6, 144175, Note_off_c, 2, 67, 0
6, 144840, Note_on_c, 2, 57, 88
6, 144898, Note_off_c, 2, 57, 0
6, 144900, Note_on_c, 2, 59, 88
6, 144958, Note_off_c, 2, 59, 0
6, 144960, Note_on_c, 2, 61, 88
6, 145018, Note_off_c, 2, 61, 0
6, 145020, Note_on_c, 2, 62, 88
6, 145078, Note_off_c, 2, 62, 0
6, 145080, Note_on_c, 2, 64, 88
6, 145196, Note_off_c, 2, 64, 0
6, 145200, Note_on_c, 2, 61, 88
6, 145316, Note_off_c, 2, 61, 0
6, 145320, Note_on_c, 2, 64, 88
6, 145436, Note_off_c, 2, 64, 0
6, 145440, Note_on_c, 2, 69, 88
6, 145615, Note_off_c, 2, 69, 0
6, 146280, Note_on_c, 2, 55, 88
6, 146338, Note_off_c, 2, 55, 0
6, 146340, Note_on_c, 2, 57, 88
6, 146398, Note_off_c, 2, 57, 0
6, 146400, Note_on_c, 2, 59, 88
6, 146458, Note_off_c, 2, 59, 0
6, 146460, Note_on_c, 2, 61, 88
6, 146518, Note_off_c, 2, 61, 0
6, 146520, Note_on_c, 2, 62, 88
6, 146636, Note_off_c, 2, 62, 0
6, 146640, Note_on_c, 2, 59, 88
6, 146756, Note_off_c, 2, 59, 0
6, 146760, Note_on_c, 2, 62, 88
6, 146876, Note_off_c, 2, 62, 0
6, 146880, Note_on_c, 2, 67, 88
6, 147114, Note_off_c, 2, 67, 0
6, 147120, Note_on_c, 2, 62, 88
6, 147236, Note_off_c, 2, 62, 0
6, 147240, Note_on_c, 2, 67, 88
6, 147473, Note_off_c, 2, 67, 0
6, 147480, Note_on_c, 2, 67, 88
6, 147593, Note_off_c, 2, 67, 0
6, 147600, Note_on_c, 2, 67, 88
6, 147953, Note_off_c, 2, 67, 0
6, 148080, Note_on_c, 2, 69, 88
6, 148138, Note_off_c, 2, 69, 0
6, 148140, Note_on_c, 2, 67, 88
6, 148198, Note_off_c, 2, 67, 0
6, 148200, Note_on_c, 2, 66, 88
6, 148258, Note_off_c, 2, 66, 0
6, 148260, Note_on_c, 2, 64, 88
6, 148318, Note_off_c, 2, 64, 0
6, 148320, Note_on_c, 2, 66, 88
6, 148436, Note_off_c, 2, 66, 0
6, 148440, Note_on_c, 2, 62, 88
6, 148498, Note_off_c, 2, 62, 0
6, 148500, Note_on_c, 2, 64, 88
6, 148558, Note_off_c, 2, 64, 0
6, 148560, Note_on_c, 2, 66, 88
6, 148618, Note_off_c, 2, 66, 0
6, 148620, Note_on_c, 2, 67, 88
6, 148678, Note_off_c, 2, 67, 0
6, 148680, Note_on_c, 2, 69, 88
6, 148796, Note_off_c, 2, 69, 0
6, 148800, Note_on_c, 2, 67, 88
6, 148858, Note_off_c, 2, 67, 0
6, 148860, Note_on_c, 2, 66, 88
6, 148918, Note_off_c, 2, 66, 0
6, 148920, Note_on_c, 2, 64, 88
6, 148978, Note_off_c, 2, 64, 0
6, 148980, Note_on_c, 2, 62, 88
6, 149038, Note_off_c, 2, 62, 0
6, 149040, Note_on_c, 2, 67, 88
6, 149156, Note_off_c, 2, 67, 0
6, 149160, Note_on_c, 2, 64, 88
6, 149218, Note_off_c, 2, 64, 0
6, 149220, Note_on_c, 2, 66, 88
6, 149278, Note_off_c, 2, 66, 0
6, 149280, Note_on_c, 2, 67, 88
6, 149338, Note_off_c, 2, 67, 0
6, 149340, Note_on_c, 2, 69, 88
6, 149398, Note_off_c, 2, 69, 0
6, 149400, Note_on_c, 2, 71, 88
6, 149516, Note_off_c, 2, 71, 0
6, 149520, Note_on_c, 2, 69, 88
6, 149578, Note_off_c, 2, 69, 0
6, 149580, Note_on_c, 2, 67, 88
6, 149638, Note_off_c, 2, 67, 0
6, 149640, Note_on_c, 2, 66, 88
6, 149698, Note_off_c, 2, 66, 0
6, 149700, Note_on_c, 2, 64, 88
6, 149758, Note_off_c, 2, 64, 0
6, 149760, Note_on_c, 2, 69, 88
6, 149994, Note_off_c, 2, 69, 0
6, 150000, Note_on_c, 2, 67, 88
6, 150116, Note_off_c, 2, 67, 0
6, 150120, Note_on_c, 2, 66, 88
6, 150828, Note_off_c, 2, 66, 0
6, 150840, Note_on_c, 2, 64, 88
6, 151074, Note_off_c, 2, 64, 0
6, 151080, Note_on_c, 2, 62, 88
6, 151196, Note_off_c, 2, 62, 0
6, 151200, Note_on_c, 2, 61, 88
6, 151316, Note_off_c, 2, 61, 0
6, 151320, Note_on_c, 2, 57, 88
6, 151378, Note_off_c, 2, 57, 0
6, 151380, Note_on_c, 2, 59, 88
6, 151438, Note_off_c, 2, 59, 0
6, 151440, Note_on_c, 2, 61, 88
6, 151498, Note_off_c, 2, 61, 0
6, 151500, Note_on_c, 2, 62, 88
6, 151558, Note_off_c, 2, 62, 0
6, 151560, Note_on_c, 2, 64, 88
6, 151676, Note_off_c, 2, 64, 0
6, 151680, Note_on_c, 2, 61, 88
6, 151796, Note_off_c, 2, 61, 0
6, 151800, Note_on_c, 2, 64, 88
6, 151916, Note_off_c, 2, 64, 0
6, 151920, Note_on_c, 2, 67, 88
6, 152036, Note_off_c, 2, 67, 0
6, 152040, Note_on_c, 2, 64, 88
6, 152156, Note_off_c, 2, 64, 0
6, 152160, Note_on_c, 2, 67, 88
6, 152276, Note_off_c, 2, 67, 0
6, 152280, Note_on_c, 2, 73, 88
6, 152396, Note_off_c, 2, 73, 0
6, 152400, Note_on_c, 2, 67, 88
6, 152516, Note_off_c, 2, 67, 0
6, 152520, Note_on_c, 2, 73, 88
6, 152636, Note_off_c, 2, 73, 0
6, 152640, Note_on_c, 2, 66, 88
6, 152993, Note_off_c, 2, 66, 0
6, 153000, Note_on_c, 2, 62, 88
6, 153353, Note_off_c, 2, 62, 0
6, 153360, Note_on_c, 2, 59, 88
6, 153713, Note_off_c, 2, 59, 0
6, 153720, Note_on_c, 2, 56, 88
6, 154073, Note_off_c, 2, 56, 0
6, 154080, Note_on_c, 2, 57, 88
6, 154314, Note_off_c, 2, 57, 0
6, 154320, Note_on_c, 2, 55, 88
6, 154436, Note_off_c, 2, 55, 0
6, 154440, Note_on_c, 2, 54, 88
6, 154674, Note_off_c, 2, 54, 0
6, 154680, Note_on_c, 2, 64, 88
6, 154796, Note_off_c, 2, 64, 0
6, 154800, Note_on_c, 2, 61, 88
6, 155034, Note_off_c, 2, 61, 0
6, 155040, Note_on_c, 2, 62, 88
6, 155274, Note_off_c, 2, 62, 0
6, 155280, Note_on_c, 2, 61, 88
6, 155338, Note_off_c, 2, 61, 0
6, 155340, Note_on_c, 2, 59, 88
6, 155398, Note_off_c, 2, 59, 0
6, 155400, Note_on_c, 2, 61, 88
6, 155516, Note_off_c, 2, 61, 0
6, 155520, Note_on_c, 2, 62, 88
6, 155578, Note_off_c, 2, 62, 0
6, 156720, Note_on_c, 2, 73, 88
6, 156836, Note_off_c, 2, 73, 0
6, 156840, Note_on_c, 2, 70, 88
6, 156956, Note_off_c, 2, 70, 0
6, 156960, Note_on_c, 2, 66, 88
6, 157076, Note_off_c, 2, 66, 0
6, 157080, Note_on_c, 2, 68, 88
6, 157138, Note_off_c, 2, 68, 0
6, 157140, Note_on_c, 2, 70, 88
6, 157198, Note_off_c, 2, 70, 0
6, 157200, Note_on_c, 2, 71, 88
6, 157258, Note_off_c, 2, 71, 0
6, 157260, Note_on_c, 2, 73, 88
6, 157318, Note_off_c, 2, 73, 0
6, 157320, Note_on_c, 2, 74, 88
6, 157378, Note_off_c, 2, 74, 0
6, 158160, Note_on_c, 2, 69, 88
6, 158276, Note_off_c, 2, 69, 0
6, 158280, Note_on_c, 2, 66, 88
6, 158396, Note_off_c, 2, 66, 0
6, 158400, Note_on_c, 2, 62, 88
6, 158516, Note_off_c, 2, 62, 0
6, 158520, Note_on_c, 2, 64, 88
6, 158578, Note_off_c, 2, 64, 0
6, 158580, Note_on_c, 2, 66, 88
6, 158638, Note_off_c, 2, 66, 0
6, 158640, Note_on_c, 2, 67, 88
6, 158698, Note_off_c, 2, 67, 0
6, 158700, Note_on_c, 2, 69, 88
6, 158758, Note_off_c, 2, 69, 0
6, 158760, Note_on_c, 2, 71, 88
6, 158818, Note_off_c, 2, 71, 0
6, 159360, Note_on_c, 2, 61, 88
6, 159476, Note_off_c, 2, 61, 0
6, 159480, Note_on_c, 2, 62, 88
6, 159714, Note_off_c, 2, 62, 0
6, 159720, Note_on_c, 2, 66, 88
6, 159836, Note_off_c, 2, 66, 0
6, 159840, Note_on_c, 2, 67, 88
6, 159956, Note_off_c, 2, 67, 0
6, 159960, Note_on_c, 2, 69, 88
6, 160076, Note_off_c, 2, 69, 0
6, 160080, Note_on_c, 2, 71, 88
6, 160196, Note_off_c, 2, 71, 0
6, 160200, Note_on_c, 2, 66, 88
6, 160434, Note_off_c, 2, 66, 0
6, 160440, Note_on_c, 2, 67, 88
6, 160674, Note_off_c, 2, 67, 0
6, 160680, Note_on_c, 2, 69, 88
6, 160796, Note_off_c, 2, 69, 0
6, 160800, Note_on_c, 2, 66, 88
6, 161270, Note_off_c, 2, 66, 0
6, 161270, End_track
7, 0, Start_track
7, 0, Title_t, "Track 4"
7, 0, Program_c, 3, 6
7, 0, Note_on_c, 3, 50, 88
7, 353, Note_off_c, 3, 50, 0
7, 23040, Note_on_c, 3, 50, 88
7, 23393, Note_off_c, 3, 50, 0
7, 46080, Note_on_c, 3, 57, 88
7, 46433, Note_off_c, 3, 57, 0
7, 47520, Note_on_c, 3, 57, 88
7, 47873, Note_off_c, 3, 57, 0
7, 47880, Note_on_c, 3, 61, 88
7, 48233, Note_off_c, 3, 61, 0
7, 48240, Note_on_c, 3, 61, 88
7, 48415, Note_off_c, 3, 61, 0
7, 48420, Note_on_c, 3, 62, 88
7, 48593, Note_off_c, 3, 62, 0
7, 48600, Note_on_c, 3, 62, 88
7, 48775, Note_off_c, 3, 62, 0
7, 48780, Note_on_c, 3, 64, 88
7, 48955, Note_off_c, 3, 64, 0
7, 48960, Note_on_c, 3, 64, 88
7, 49135, Note_off_c, 3, 64, 0
7, 50760, Note_on_c, 3, 52, 88
7, 51113, Note_off_c, 3, 52, 0
7, 51120, Note_on_c, 3, 52, 88
7, 51295, Note_off_c, 3, 52, 0
7, 79200, Note_on_c, 3, 59, 88
7, 79375, Note_off_c, 3, 59, 0
7, 102840, Note_on_c, 3, 64, 88
7, 102956, Note_off_c, 3, 64, 0
7, 103320, Note_on_c, 3, 62, 88
7, 103673, Note_off_c, 3, 62, 0
7, 103680, Note_on_c, 3, 57, 88
7, 104033, Note_off_c, 3, 57, 0
7, 105120, Note_on_c, 3, 57, 88
7, 105473, Note_off_c, 3, 57, 0
7, 105480, Note_on_c, 3, 61, 88
7, 105833, Note_off_c, 3, 61, 0
7, 105840, Note_on_c, 3, 61, 88
7, 106015, Note_off_c, 3, 61, 0
7, 106020, Note_on_c, 3, 62, 88
7, 106193, Note_off_c, 3, 62, 0
7, 106200, Note_on_c, 3, 62, 88
7, 106375, Note_off_c, 3, 62, 0
7, 106380, Note_on_c, 3, 64, 88
7, 106555, Note_off_c, 3, 64, 0
7, 106560, Note_on_c, 3, 64, 88
7, 106735, Note_off_c, 3, 64, 0
7, 108360, Note_on_c, 3, 52, 88
7, 108713, Note_off_c, 3, 52, 0
7, 108720, Note_on_c, 3, 52, 88
7, 108895, Note_off_c, 3, 52, 0
7, 136800, Note_on_c, 3, 59, 88
7, 136975, Note_off_c, 3, 59, 0
7, 160440, Note_on_c, 3, 64, 88
7, 160556, Note_off_c, 3, 64, 0
7, 160920, Note_on_c, 3, 62, 88
7, 161273, Note_off_c, 3, 62, 0
7, 161273, End_track
8, 0, Start_track
8, 0, Title_t, "Track 5"
8, 0, Program_c, 4, 6
8, 0, Note_on_c, 4, 38, 88
8, 353, Note_off_c, 4, 38, 0
8, 1800, Note_on_c, 4, 62, 88
8, 2153, Note_off_c, 4, 62, 0
8, 2160, Note_on_c, 4, 69, 88
8, 2513, Note_off_c, 4, 69, 0
8, 2520, Note_on_c, 4, 57, 88
8, 2873, Note_off_c, 4, 57, 0
8, 2880, Note_on_c, 4, 62, 88
8, 3233, Note_off_c, 4, 62, 0
8, 4680, Note_on_c, 4, 50, 88
8, 5033, Note_off_c, 4, 50, 0
8, 5040, Note_on_c, 4, 57, 88
8, 5393, Note_off_c, 4, 57, 0
8, 5400, Note_on_c, 4, 45, 88
8, 5753, Note_off_c, 4, 45, 0
8, 5760, Note_on_c, 4, 50, 88
8, 5994, Note_off_c, 4, 50, 0
8, 6000, Note_on_c, 4, 38, 88
8, 6116, Note_off_c, 4, 38, 0
8, 6120, Note_on_c, 4, 50, 88
8, 6353, Note_off_c, 4, 50, 0
8, 6360, Note_on_c, 4, 50, 88
8, 6473, Note_off_c, 4, 50, 0
8, 6480, Note_on_c, 4, 50, 88
8, 6833, Note_off_c, 4, 50, 0
8, 6960, Note_on_c, 4, 52, 88
8, 7018, Note_off_c, 4, 52, 0
8, 7020, Note_on_c, 4, 50, 88
8, 7078, Note_off_c, 4, 50, 0
8, 7080, Note_on_c, 4, 49, 88
8, 7138, Note_off_c, 4, 49, 0
8, 7140, Note_on_c, 4, 47, 88
8, 7198, Note_off_c, 4, 47, 0
8, 7200, Note_on_c, 4, 49, 88
8, 7434, Note_off_c, 4, 49, 0
8, 7440, Note_on_c, 4, 37, 88
8, 7556, Note_off_c, 4, 37, 0
8, 7560, Note_on_c, 4, 49, 88
8, 7793, Note_off_c, 4, 49, 0
8, 7800, Note_on_c, 4, 49, 88
8, 7913, Note_off_c, 4, 49, 0
8, 7920, Note_on_c, 4, 49, 88
8, 8273, Note_off_c, 4, 49, 0
8, 8400, Note_on_c, 4, 50, 88
8, 8458, Note_off_c, 4, 50, 0
8, 8460, Note_on_c, 4, 49, 88
8, 8518, Note_off_c, 4, 49, 0
8, 8520, Note_on_c, 4, 47, 88
8, 8578, Note_off_c, 4, 47, 0
8, 8580, Note_on_c, 4, 45, 88
8, 8638, Note_off_c, 4, 45, 0
8, 8640, Note_on_c, 4, 47, 88
8, 8756, Note_off_c, 4, 47, 0
8, 8760, Note_on_c, 4, 54, 88
8, 8818, Note_off_c, 4, 54, 0
8, 8820, Note_on_c, 4, 52, 88
8, 8878, Note_off_c, 4, 52, 0
8, 8880, Note_on_c, 4, 50, 88
8, 8938, Note_off_c, 4, 50, 0
8, 8940, Note_on_c, 4, 49, 88
8, 8998, Note_off_c, 4, 49, 0
8, 9000, Note_on_c, 4, 47, 88
8, 9116, Note_off_c, 4, 47, 0
8, 9120, Note_on_c, 4, 50, 88
8, 9236, Note_off_c, 4, 50, 0
8, 9240, Note_on_c, 4, 47, 88
8, 9356, Note_off_c, 4, 47, 0
8, 9360, Note_on_c, 4, 44, 88
8, 9476, Note_off_c, 4, 44, 0
8, 9480, Note_on_c, 4, 47, 88
8, 9596, Note_off_c, 4, 47, 0
8, 9600, Note_on_c, 4, 44, 88
8, 9716, Note_off_c, 4, 44, 0
8, 9720, Note_on_c, 4, 40, 88
8, 9836, Note_off_c, 4, 40, 0
8, 9840, Note_on_c, 4, 44, 88
8, 9956, Note_off_c, 4, 44, 0
8, 9960, Note_on_c, 4, 40, 88
8, 10076, Note_off_c, 4, 40, 0
8, 10080, Note_on_c, 4, 45, 88
8, 10196, Note_off_c, 4, 45, 0
8, 10200, Note_on_c, 4, 49, 88
8, 10316, Note_off_c, 4, 49, 0
8, 10320, Note_on_c, 4, 45, 88
8, 10436, Note_off_c, 4, 45, 0
8, 10440, Note_on_c, 4, 42, 88
8, 10556, Note_off_c, 4, 42, 0
8, 10560, Note_on_c, 4, 45, 88
8, 10676, Note_off_c, 4, 45, 0
8, 10680, Note_on_c, 4, 42, 88
8, 10796, Note_off_c, 4, 42, 0
8, 10800, Note_on_c, 4, 47, 88
8, 10916, Note_off_c, 4, 47, 0
8, 10920, Note_on_c, 4, 50, 88
8, 11036, Note_off_c, 4, 50, 0
8, 11040, Note_on_c, 4, 47, 88
8, 11156, Note_off_c, 4, 47, 0
8, 11160, Note_on_c, 4, 44, 88
8, 11276, Note_off_c, 4, 44, 0
8, 11280, Note_on_c, 4, 47, 88
8, 11396, Note_off_c, 4, 47, 0
8, 11400, Note_on_c, 4, 44, 88
8, 11516, Note_off_c, 4, 44, 0
8, 11520, Note_on_c, 4, 49, 88
8, 11695, Note_off_c, 4, 49, 0
8, 12240, Note_on_c, 4, 50, 88
8, 12415, Note_off_c, 4, 50, 0
8, 12960, Note_on_c, 4, 52, 88
8, 13194, Note_off_c, 4, 52, 0
8, 13200, Note_on_c, 4, 40, 88
8, 13313, Note_off_c, 4, 40, 0
8, 13320, Note_on_c, 4, 40, 88
8, 13553, Note_off_c, 4, 40, 0
8, 13560, Note_on_c, 4, 40, 88
8, 13673, Note_off_c, 4, 40, 0
8, 13680, Note_on_c, 4, 40, 88
8, 14211, Note_off_c, 4, 40, 0
8, 14220, Note_on_c, 4, 47, 88
8, 14278, Note_off_c, 4, 47, 0
8, 14280, Note_on_c, 4, 49, 88
8, 14338, Note_off_c, 4, 49, 0
8, 14340, Note_on_c, 4, 50, 88
8, 14398, Note_off_c, 4, 50, 0
8, 14400, Note_on_c, 4, 52, 88
8, 14634, Note_off_c, 4, 52, 0
8, 14640, Note_on_c, 4, 40, 88
8, 14753, Note_off_c, 4, 40, 0
8, 14760, Note_on_c, 4, 40, 88
8, 14993, Note_off_c, 4, 40, 0
8, 15000, Note_on_c, 4, 40, 88
8, 15113, Note_off_c, 4, 40, 0
8, 15120, Note_on_c, 4, 40, 88
8, 15473, Note_off_c, 4, 40, 0
8, 16080, Note_on_c, 4, 52, 88
8, 16196, Note_off_c, 4, 52, 0
8, 16200, Note_on_c, 4, 54, 88
8, 16316, Note_off_c, 4, 54, 0
8, 16320, Note_on_c, 4, 52, 88
8, 16436, Note_off_c, 4, 52, 0
8, 16440, Note_on_c, 4, 50, 88
8, 16556, Note_off_c, 4, 50, 0
8, 16560, Note_on_c, 4, 52, 88
8, 16913, Note_off_c, 4, 52, 0
8, 16920, Note_on_c, 4, 40, 88
8, 17273, Note_off_c, 4, 40, 0
8, 17280, Note_on_c, 4, 45, 88
8, 17514, Note_off_c, 4, 45, 0
8, 17520, Note_on_c, 4, 52, 88
8, 17636, Note_off_c, 4, 52, 0
8, 17640, Note_on_c, 4, 57, 88
8, 17669, Note_off_c, 4, 57, 0
8, 17670, Note_on_c, 4, 56, 88
8, 17706, Note_off_c, 4, 56, 0
8, 17708, Note_on_c, 4, 57, 88
8, 18112, Note_off_c, 4, 57, 0
8, 18120, Note_on_c, 4, 59, 88
8, 18178, Note_off_c, 4, 59, 0
8, 18180, Note_on_c, 4, 57, 88
8, 18238, Note_off_c, 4, 57, 0
8, 18240, Note_on_c, 4, 56, 88
8, 18298, Note_off_c, 4, 56, 0
8, 18300, Note_on_c, 4, 54, 88
8, 18358, Note_off_c, 4, 54, 0
8, 18360, Note_on_c, 4, 53, 88
8, 18476, Note_off_c, 4, 53, 0
8, 18480, Note_on_c, 4, 54, 88
8, 18538, Note_off_c, 4, 54, 0
8, 18540, Note_on_c, 4, 53, 88
8, 18598, Note_off_c, 4, 53, 0
8, 18600, Note_on_c, 4, 51, 88
8, 18658, Note_off_c, 4, 51, 0
8, 18660, Note_on_c, 4, 49, 88
8, 18718, Note_off_c, 4, 49, 0
8, 18720, Note_on_c, 4, 54, 88
8, 18954, Note_off_c, 4, 54, 0
8, 18960, Note_on_c, 4, 42, 88
8, 19076, Note_off_c, 4, 42, 0
8, 19080, Note_on_c, 4, 54, 88
8, 19109, Note_off_c, 4, 54, 0
8, 19110, Note_on_c, 4, 52, 88
8, 19146, Note_off_c, 4, 52, 0
8, 19148, Note_on_c, 4, 54, 88
8, 19552, Note_off_c, 4, 54, 0
8, 19560, Note_on_c, 4, 55, 88
8, 19618, Note_off_c, 4, 55, 0
8, 19620, Note_on_c, 4, 54, 88
8, 19678, Note_off_c, 4, 54, 0
8, 19680, Note_on_c, 4, 52, 88
8, 19738, Note_off_c, 4, 52, 0
8, 19740, Note_on_c, 4, 50, 88
8, 19798, Note_off_c, 4, 50, 0
8, 19800, Note_on_c, 4, 49, 88
8, 19916, Note_off_c, 4, 49, 0
8, 19920, Note_on_c, 4, 50, 88
8, 19978, Note_off_c, 4, 50, 0
8, 19980, Note_on_c, 4, 49, 88
8, 20038, Note_off_c, 4, 49, 0
8, 20040, Note_on_c, 4, 47, 88
8, 20098, Note_off_c, 4, 47, 0
8, 20100, Note_on_c, 4, 45, 88
8, 20158, Note_off_c, 4, 45, 0
8, 20160, Note_on_c, 4, 50, 88
8, 20394, Note_off_c, 4, 50, 0
8, 20400, Note_on_c, 4, 38, 88
8, 20516, Note_off_c, 4, 38, 0
8, 20520, Note_on_c, 4, 50, 88
8, 20549, Note_off_c, 4, 50, 0
8, 20550, Note_on_c, 4, 49, 88
8, 20586, Note_off_c, 4, 49, 0
8, 20588, Note_on_c, 4, 50, 88
8, 20992, Note_off_c, 4, 50, 0
8, 21000, Note_on_c, 4, 52, 88
8, 21058, Note_off_c, 4, 52, 0
8, 21060, Note_on_c, 4, 50, 88
8, 21118, Note_off_c, 4, 50, 0
8, 21120, Note_on_c, 4, 49, 88
8, 21178, Note_off_c, 4, 49, 0
8, 21180, Note_on_c, 4, 47, 88
8, 21238, Note_off_c, 4, 47, 0
8, 21240, Note_on_c, 4, 45, 88
8, 21356, Note_off_c, 4, 45, 0
8, 21360, Note_on_c, 4, 47, 88
8, 21418, Note_off_c, 4, 47, 0
8, 21420, Note_on_c, 4, 49, 88
8, 21478, Note_off_c, 4, 49, 0
8, 21480, Note_on_c, 4, 50, 88
8, 21538, Note_off_c, 4, 50, 0
8, 21540, Note_on_c, 4, 52, 88
8, 21598, Note_off_c, 4, 52, 0
8, 21600, Note_on_c, 4, 54, 88
8, 21716, Note_off_c, 4, 54, 0
8, 21720, Note_on_c, 4, 52, 88
8, 21836, Note_off_c, 4, 52, 0
8, 21840, Note_on_c, 4, 50, 88
8, 21956, Note_off_c, 4, 50, 0
8, 21960, Note_on_c, 4, 52, 88
8, 22194, Note_off_c, 4, 52, 0
8, 22200, Note_on_c, 4, 40, 88
8, 22316, Note_off_c, 4, 40, 0
8, 22320, Note_on_c, 4, 45, 88
8, 22436, Note_off_c, 4, 45, 0
8, 22440, Note_on_c, 4, 49, 88
8, 22556, Note_off_c, 4, 49, 0
8, 22560, Note_on_c, 4, 52, 88
8, 22676, Note_off_c, 4, 52, 0
8, 22680, Note_on_c, 4, 57, 88
8, 23033, Note_off_c, 4, 57, 0
8, 23040, Note_on_c, 4, 38, 88
8, 23393, Note_off_c, 4, 38, 0
8, 24840, Note_on_c, 4, 62, 88
8, 25193, Note_off_c, 4, 62, 0
8, 25200, Note_on_c, 4, 69, 88
8, 25553, Note_off_c, 4, 69, 0
8, 25560, Note_on_c, 4, 57, 88
8, 25913, Note_off_c, 4, 57, 0
8, 25920, Note_on_c, 4, 62, 88
8, 26273, Note_off_c, 4, 62, 0
8, 27720, Note_on_c, 4, 50, 88
8, 28073, Note_off_c, 4, 50, 0
8, 28080, Note_on_c, 4, 57, 88
8, 28433, Note_off_c, 4, 57, 0
8, 28440, Note_on_c, 4, 45, 88
8, 28793, Note_off_c, 4, 45, 0
8, 28800, Note_on_c, 4, 50, 88
8, 29034, Note_off_c, 4, 50, 0
8, 29040, Note_on_c, 4, 38, 88
8, 29156, Note_off_c, 4, 38, 0
8, 29160, Note_on_c, 4, 50, 88
8, 29393, Note_off_c, 4, 50, 0
8, 29400, Note_on_c, 4, 50, 88
8, 29513, Note_off_c, 4, 50, 0
8, 29520, Note_on_c, 4, 50, 88
8, 29873, Note_off_c, 4, 50, 0
8, 30000, Note_on_c, 4, 52, 88
8, 30058, Note_off_c, 4, 52, 0
8, 30060, Note_on_c, 4, 50, 88
8, 30118, Note_off_c, 4, 50, 0
8, 30120, Note_on_c, 4, 49, 88
8, 30178, Note_off_c, 4, 49, 0
8, 30180, Note_on_c, 4, 47, 88
8, 30238, Note_off_c, 4, 47, 0
8, 30240, Note_on_c, 4, 49, 88
8, 30474, Note_off_c, 4, 49, 0
8, 30480, Note_on_c, 4, 37, 88
8, 30596, Note_off_c, 4, 37, 0
8, 30600, Note_on_c, 4, 49, 88
8, 30833, Note_off_c, 4, 49, 0
8, 30840, Note_on_c, 4, 49, 88
8, 30953, Note_off_c, 4, 49, 0
8, 30960, Note_on_c, 4, 49, 88
8, 31313, Note_off_c, 4, 49, 0
8, 31440, Note_on_c, 4, 50, 88
8, 31498, Note_off_c, 4, 50, 0
8, 31500, Note_on_c, 4, 49, 88
8, 31558, Note_off_c, 4, 49, 0
8, 31560, Note_on_c, 4, 47, 88
8, 31618, Note_off_c, 4, 47, 0
8, 31620, Note_on_c, 4, 45, 88
8, 31678, Note_off_c, 4, 45, 0
8, 31680, Note_on_c, 4, 47, 88
8, 31796, Note_off_c, 4, 47, 0
8, 31800, Note_on_c, 4, 54, 88
8, 31858, Note_off_c, 4, 54, 0
8, 31860, Note_on_c, 4, 52, 88
8, 31918, Note_off_c, 4, 52, 0
8, 31920, Note_on_c, 4, 50, 88
8, 31978, Note_off_c, 4, 50, 0
8, 31980, Note_on_c, 4, 49, 88
8, 32038, Note_off_c, 4, 49, 0
8, 32040, Note_on_c, 4, 47, 88
8, 32156, Note_off_c, 4, 47, 0
8, 32160, Note_on_c, 4, 50, 88
8, 32276, Note_off_c, 4, 50, 0
8, 32280, Note_on_c, 4, 47, 88
8, 32396, Note_off_c, 4, 47, 0
8, 32400, Note_on_c, 4, 44, 88
8, 32516, Note_off_c, 4, 44, 0
8, 32520, Note_on_c, 4, 47, 88
8, 32636, Note_off_c, 4, 47, 0
8, 32640, Note_on_c, 4, 44, 88
8, 32756, Note_off_c, 4, 44, 0
8, 32760, Note_on_c, 4, 40, 88
8, 32876, Note_off_c, 4, 40, 0
8, 32880, Note_on_c, 4, 44, 88
8, 32996, Note_off_c, 4, 44, 0
8, 33000, Note_on_c, 4, 40, 88
8, 33116, Note_off_c, 4, 40, 0
8, 33120, Note_on_c, 4, 45, 88
8, 33236, Note_off_c, 4, 45, 0
8, 33240, Note_on_c, 4, 49, 88
8, 33356, Note_off_c, 4, 49, 0
8, 33360, Note_on_c, 4, 45, 88
8, 33476, Note_off_c, 4, 45, 0
8, 33480, Note_on_c, 4, 42, 88
8, 33596, Note_off_c, 4, 42, 0
8, 33600, Note_on_c, 4, 45, 88
8, 33716, Note_off_c, 4, 45, 0
8, 33720, Note_on_c, 4, 42, 88
8, 33836, Note_off_c, 4, 42, 0
8, 33840, Note_on_c, 4, 47, 88
8, 33956, Note_off_c, 4, 47, 0
8, 33960, Note_on_c, 4, 50, 88
8, 34076, Note_off_c, 4, 50, 0
8, 34080, Note_on_c, 4, 47, 88
8, 34196, Note_off_c, 4, 47, 0
8, 34200, Note_on_c, 4, 44, 88
8, 34316, Note_off_c, 4, 44, 0
8, 34320, Note_on_c, 4, 47, 88
8, 34436, Note_off_c, 4, 47, 0
8, 34440, Note_on_c, 4, 44, 88
8, 34556, Note_off_c, 4, 44, 0
8, 34560, Note_on_c, 4, 49, 88
8, 34735, Note_off_c, 4, 49, 0
8, 35280, Note_on_c, 4, 50, 88
8, 35455, Note_off_c, 4, 50, 0
8, 36000, Note_on_c, 4, 52, 88
8, 36234, Note_off_c, 4, 52, 0
8, 36240, Note_on_c, 4, 40, 88
8, 36353, Note_off_c, 4, 40, 0
8, 36360, Note_on_c, 4, 40, 88
8, 36593, Note_off_c, 4, 40, 0
8, 36600, Note_on_c, 4, 40, 88
8, 36713, Note_off_c, 4, 40, 0
8, 36720, Note_on_c, 4, 40, 88
8, 37251, Note_off_c, 4, 40, 0
8, 37260, Note_on_c, 4, 47, 88
8, 37318, Note_off_c, 4, 47, 0
8, 37320, Note_on_c, 4, 49, 88
8, 37378, Note_off_c, 4, 49, 0
8, 37380, Note_on_c, 4, 50, 88
8, 37438, Note_off_c, 4, 50, 0
8, 37440, Note_on_c, 4, 52, 88
8, 37674, Note_off_c, 4, 52, 0
8, 37680, Note_on_c, 4, 40, 88
8, 37793, Note_off_c, 4, 40, 0
8, 37800, Note_on_c, 4, 40, 88
8, 38033, Note_off_c, 4, 40, 0
8, 38040, Note_on_c, 4, 40, 88
8, 38153, Note_off_c, 4, 40, 0
8, 38160, Note_on_c, 4, 40, 88
8, 38513, Note_off_c, 4, 40, 0
8, 39120, Note_on_c, 4, 52, 88
8, 39236, Note_off_c, 4, 52, 0
8, 39240, Note_on_c, 4, 54, 88
8, 39356, Note_off_c, 4, 54, 0
8, 39360, Note_on_c, 4, 52, 88
8, 39476, Note_off_c, 4, 52, 0
8, 39480, Note_on_c, 4, 50, 88
8, 39596, Note_off_c, 4, 50, 0
8, 39600, Note_on_c, 4, 52, 88
8, 39953, Note_off_c, 4, 52, 0
8, 39960, Note_on_c, 4, 40, 88
8, 40313, Note_off_c, 4, 40, 0
8, 40320, Note_on_c, 4, 45, 88
8, 40554, Note_off_c, 4, 45, 0
8, 40560, Note_on_c, 4, 52, 88
8, 40676, Note_off_c, 4, 52, 0
8, 40680, Note_on_c, 4, 57, 88
8, 40709, Note_off_c, 4, 57, 0
8, 40710, Note_on_c, 4, 56, 88
8, 40746, Note_off_c, 4, 56, 0
8, 40748, Note_on_c, 4, 57, 88
8, 41152, Note_off_c, 4, 57, 0
8, 41160, Note_on_c, 4, 59, 88
8, 41218, Note_off_c, 4, 59, 0
8, 41220, Note_on_c, 4, 57, 88
8, 41278, Note_off_c, 4, 57, 0
8, 41280, Note_on_c, 4, 56, 88
8, 41338, Note_off_c, 4, 56, 0
8, 41340, Note_on_c, 4, 54, 88
8, 41398, Note_off_c, 4, 54, 0
8, 41400, Note_on_c, 4, 53, 88
8, 41516, Note_off_c, 4, 53, 0
8, 41520, Note_on_c, 4, 54, 88
8, 41578, Note_off_c, 4, 54, 0
8, 41580, Note_on_c, 4, 53, 88
8, 41638, Note_off_c, 4, 53, 0
8, 41640, Note_on_c, 4, 51, 88
8, 41698, Note_off_c, 4, 51, 0
8, 41700, Note_on_c, 4, 49, 88
8, 41758, Note_off_c, 4, 49, 0
8, 41760, Note_on_c, 4, 54, 88
8, 41994, Note_off_c, 4, 54, 0
8, 42000, Note_on_c, 4, 42, 88
8, 42116, Note_off_c, 4, 42, 0
8, 42120, Note_on_c, 4, 54, 88
8, 42149, Note_off_c, 4, 54, 0
8, 42150, Note_on_c, 4, 52, 88
8, 42186, Note_off_c, 4, 52, 0
8, 42188, Note_on_c, 4, 54, 88
8, 42592, Note_off_c, 4, 54, 0
8, 42600, Note_on_c, 4, 55, 88
8, 42658, Note_off_c, 4, 55, 0
8, 42660, Note_on_c, 4, 54, 88
8, 42718, Note_off_c, 4, 54, 0
8, 42720, Note_on_c, 4, 52, 88
8, 42778, Note_off_c, 4, 52, 0
8, 42780, Note_on_c, 4, 50, 88
8, 42838, Note_off_c, 4, 50, 0
8, 42840, Note_on_c, 4, 49, 88
8, 42956, Note_off_c, 4, 49, 0
8, 42960, Note_on_c, 4, 50, 88
8, 43018, Note_off_c, 4, 50, 0
8, 43020, Note_on_c, 4, 49, 88
8, 43078, Note_off_c, 4, 49, 0
8, 43080, Note_on_c, 4, 47, 88
8, 43138, Note_off_c, 4, 47, 0
8, 43140, Note_on_c, 4, 45, 88
8, 43198, Note_off_c, 4, 45, 0
8, 43200, Note_on_c, 4, 50, 88
8, 43434, Note_off_c, 4, 50, 0
8, 43440, Note_on_c, 4, 38, 88
8, 43556, Note_off_c, 4, 38, 0
8, 43560, Note_on_c, 4, 50, 88
8, 43589, Note_off_c, 4, 50, 0
8, 43590, Note_on_c, 4, 49, 88
8, 43626, Note_off_c, 4, 49, 0
8, 43628, Note_on_c, 4, 50, 88
8, 44032, Note_off_c, 4, 50, 0
8, 44040, Note_on_c, 4, 52, 88
8, 44098, Note_off_c, 4, 52, 0
8, 44100, Note_on_c, 4, 50, 88
8, 44158, Note_off_c, 4, 50, 0
8, 44160, Note_on_c, 4, 49, 88
8, 44218, Note_off_c, 4, 49, 0
8, 44220, Note_on_c, 4, 47, 88
8, 44278, Note_off_c, 4, 47, 0
8, 44280, Note_on_c, 4, 45, 88
8, 44396, Note_off_c, 4, 45, 0
8, 44400, Note_on_c, 4, 47, 88
8, 44458, Note_off_c, 4, 47, 0
8, 44460, Note_on_c, 4, 49, 88
8, 44518, Note_off_c, 4, 49, 0
8, 44520, Note_on_c, 4, 50, 88
8, 44578, Note_off_c, 4, 50, 0
8, 44580, Note_on_c, 4, 52, 88
8, 44638, Note_off_c, 4, 52, 0
8, 44640, Note_on_c, 4, 54, 88
8, 44756, Note_off_c, 4, 54, 0
8, 44760, Note_on_c, 4, 52, 88
8, 44876, Note_off_c, 4, 52, 0
8, 44880, Note_on_c, 4, 50, 88
8, 44996, Note_off_c, 4, 50, 0
8, 45000, Note_on_c, 4, 52, 88
8, 45234, Note_off_c, 4, 52, 0
8, 45240, Note_on_c, 4, 40, 88
8, 45356, Note_off_c, 4, 40, 0
8, 45360, Note_on_c, 4, 45, 88
8, 45476, Note_off_c, 4, 45, 0
8, 45480, Note_on_c, 4, 49, 88
8, 45596, Note_off_c, 4, 49, 0
8, 45600, Note_on_c, 4, 52, 88
8, 45716, Note_off_c, 4, 52, 0
8, 45720, Note_on_c, 4, 57, 88
8, 46073, Note_off_c, 4, 57, 0
8, 46080, Note_on_c, 4, 45, 88
8, 46433, Note_off_c, 4, 45, 0
8, 47880, Note_on_c, 4, 57, 88
8, 48233, Note_off_c, 4, 57, 0
8, 48240, Note_on_c, 4, 57, 88
8, 48415, Note_off_c, 4, 57, 0
8, 49080, Note_on_c, 4, 64, 88
8, 49138, Note_off_c, 4, 64, 0
8, 49140, Note_on_c, 4, 62, 88
8, 49198, Note_off_c, 4, 62, 0
8, 49200, Note_on_c, 4, 61, 88
8, 49258, Note_off_c, 4, 61, 0
8, 49260, Note_on_c, 4, 59, 88
8, 49318, Note_off_c, 4, 59, 0
8, 49320, Note_on_c, 4, 57, 88
8, 49436, Note_off_c, 4, 57, 0
8, 49440, Note_on_c, 4, 61, 88
8, 49556, Note_off_c, 4, 61, 0
8, 49560, Note_on_c, 4, 57, 88
8, 49676, Note_off_c, 4, 57, 0
8, 49680, Note_on_c, 4, 52, 88
8, 49796, Note_off_c, 4, 52, 0
8, 49800, Note_on_c, 4, 57, 88
8, 49916, Note_off_c, 4, 57, 0
8, 49920, Note_on_c, 4, 52, 88
8, 50036, Note_off_c, 4, 52, 0
8, 50040, Note_on_c, 4, 49, 88
8, 50156, Note_off_c, 4, 49, 0
8, 50160, Note_on_c, 4, 52, 88
8, 50276, Note_off_c, 4, 52, 0
8, 50280, Note_on_c, 4, 49, 88
8, 50396, Note_off_c, 4, 49, 0
8, 50400, Note_on_c, 4, 45, 88
8, 50753, Note_off_c, 4, 45, 0
8, 50760, Note_on_c, 4, 45, 88
8, 51113, Note_off_c, 4, 45, 0
8, 51120, Note_on_c, 4, 45, 88
8, 51295, Note_off_c, 4, 45, 0
8, 51300, Note_on_c, 4, 47, 88
8, 51473, Note_off_c, 4, 47, 0
8, 51480, Note_on_c, 4, 47, 88
8, 51655, Note_off_c, 4, 47, 0
8, 51660, Note_on_c, 4, 49, 88
8, 51835, Note_off_c, 4, 49, 0
8, 51840, Note_on_c, 4, 49, 88
8, 52015, Note_off_c, 4, 49, 0
8, 52440, Note_on_c, 4, 57, 88
8, 52556, Note_off_c, 4, 57, 0
8, 52560, Note_on_c, 4, 59, 88
8, 52676, Note_off_c, 4, 59, 0
8, 52680, Note_on_c, 4, 61, 88
8, 52738, Note_off_c, 4, 61, 0
8, 52740, Note_on_c, 4, 59, 88
8, 52798, Note_off_c, 4, 59, 0
8, 52800, Note_on_c, 4, 57, 88
8, 52858, Note_off_c, 4, 57, 0
8, 52860, Note_on_c, 4, 59, 88
8, 52918, Note_off_c, 4, 59, 0
8, 52920, Note_on_c, 4, 61, 88
8, 53036, Note_off_c, 4, 61, 0
8, 53040, Note_on_c, 4, 62, 88
8, 53098, Note_off_c, 4, 62, 0
8, 53100, Note_on_c, 4, 61, 88
8, 53158, Note_off_c, 4, 61, 0
8, 53160, Note_on_c, 4, 59, 88
8, 53218, Note_off_c, 4, 59, 0
8, 53220, Note_on_c, 4, 61, 88
8, 53278, Note_off_c, 4, 61, 0
8, 53280, Note_on_c, 4, 62, 88
8, 53455, Note_off_c, 4, 62, 0
8, 53880, Note_on_c, 4, 50, 88
8, 53996, Note_off_c, 4, 50, 0
8, 54000, Note_on_c, 4, 52, 88
8, 54116, Note_off_c, 4, 52, 0
8, 54120, Note_on_c, 4, 54, 88
8, 54178, Note_off_c, 4, 54, 0
8, 54180, Note_on_c, 4, 52, 88
8, 54238, Note_off_c, 4, 52, 0
8, 54240, Note_on_c, 4, 50, 88
8, 54298, Note_off_c, 4, 50, 0
8, 54300, Note_on_c, 4, 52, 88
8, 54358, Note_off_c, 4, 52, 0
8, 54360, Note_on_c, 4, 54, 88
8, 54476, Note_off_c, 4, 54, 0
8, 54480, Note_on_c, 4, 55, 88
8, 54538, Note_off_c, 4, 55, 0
8, 54540, Note_on_c, 4, 54, 88
8, 54598, Note_off_c, 4, 54, 0
8, 54600, Note_on_c, 4, 52, 88
8, 54658, Note_off_c, 4, 52, 0
8, 54660, Note_on_c, 4, 54, 88
8, 54718, Note_off_c, 4, 54, 0
8, 54720, Note_on_c, 4, 55, 88
8, 54836, Note_off_c, 4, 55, 0
8, 54840, Note_on_c, 4, 59, 88
8, 54898, Note_off_c, 4, 59, 0
8, 54900, Note_on_c, 4, 57, 88
8, 54958, Note_off_c, 4, 57, 0
8, 54960, Note_on_c, 4, 55, 88
8, 55018, Note_off_c, 4, 55, 0
8, 55020, Note_on_c, 4, 54, 88
8, 55078, Note_off_c, 4, 54, 0
8, 55080, Note_on_c, 4, 52, 88
8, 55196, Note_off_c, 4, 52, 0
8, 55200, Note_on_c, 4, 55, 88
8, 55258, Note_off_c, 4, 55, 0
8, 55260, Note_on_c, 4, 54, 88
8, 55318, Note_off_c, 4, 54, 0
8, 55320, Note_on_c, 4, 52, 88
8, 55378, Note_off_c, 4, 52, 0
8, 55380, Note_on_c, 4, 50, 88
8, 55438, Note_off_c, 4, 50, 0
8, 55440, Note_on_c, 4, 49, 88
8, 55556, Note_off_c, 4, 49, 0
8, 55560, Note_on_c, 4, 52, 88
8, 55676, Note_off_c, 4, 52, 0
8, 55680, Note_on_c, 4, 49, 88
8, 55796, Note_off_c, 4, 49, 0
8, 55800, Note_on_c, 4, 46, 88
8, 55916, Note_off_c, 4, 46, 0
8, 55920, Note_on_c, 4, 49, 88
8, 56036, Note_off_c, 4, 49, 0
8, 56040, Note_on_c, 4, 46, 88
8, 56156, Note_off_c, 4, 46, 0
8, 56160, Note_on_c, 4, 50, 88
8, 56276, Note_off_c, 4, 50, 0
8, 56280, Note_on_c, 4, 54, 88
8, 56396, Note_off_c, 4, 54, 0
8, 56400, Note_on_c, 4, 50, 88
8, 56516, Note_off_c, 4, 50, 0
8, 56520, Note_on_c, 4, 47, 88
8, 56636, Note_off_c, 4, 47, 0
8, 56640, Note_on_c, 4, 50, 88
8, 56756, Note_off_c, 4, 50, 0
8, 56760, Note_on_c, 4, 47, 88
8, 56876, Note_off_c, 4, 47, 0
8, 56880, Note_on_c, 4, 52, 88
8, 56996, Note_off_c, 4, 52, 0
8, 57000, Note_on_c, 4, 55, 88
8, 57116, Note_off_c, 4, 55, 0
8, 57120, Note_on_c, 4, 52, 88
8, 57236, Note_off_c, 4, 52, 0
8, 57240, Note_on_c, 4, 49, 88
8, 57356, Note_off_c, 4, 49, 0
8, 57360, Note_on_c, 4, 52, 88
8, 57476, Note_off_c, 4, 52, 0
8, 57480, Note_on_c, 4, 49, 88
8, 57596, Note_off_c, 4, 49, 0
8, 57600, Note_on_c, 4, 54, 88
8, 57834, Note_off_c, 4, 54, 0
8, 57840, Note_on_c, 4, 59, 88
8, 57956, Note_off_c, 4, 59, 0
8, 57960, Note_on_c, 4, 58, 88
8, 58076, Note_off_c, 4, 58, 0
8, 58080, Note_on_c, 4, 59, 88
8, 58196, Note_off_c, 4, 59, 0
8, 58200, Note_on_c, 4, 61, 88
8, 58316, Note_off_c, 4, 61, 0
8, 58320, Note_on_c, 4, 54, 88
8, 58554, Note_off_c, 4, 54, 0
8, 58560, Note_on_c, 4, 59, 88
8, 58676, Note_off_c, 4, 59, 0
8, 58680, Note_on_c, 4, 58, 88
8, 58914, Note_off_c, 4, 58, 0
8, 58920, Note_on_c, 4, 59, 88
8, 59036, Note_off_c, 4, 59, 0
8, 59040, Note_on_c, 4, 47, 88
8, 59274, Note_off_c, 4, 47, 0
8, 59280, Note_on_c, 4, 64, 88
8, 59396, Note_off_c, 4, 64, 0
8, 59400, Note_on_c, 4, 63, 88
8, 59516, Note_off_c, 4, 63, 0
8, 59520, Note_on_c, 4, 64, 88
8, 59636, Note_off_c, 4, 64, 0
8, 59640, Note_on_c, 4, 66, 88
8, 59756, Note_off_c, 4, 66, 0
8, 59760, Note_on_c, 4, 59, 88
8, 59994, Note_off_c, 4, 59, 0
8, 60000, Note_on_c, 4, 64, 88
8, 60116, Note_off_c, 4, 64, 0
8, 60120, Note_on_c, 4, 63, 88
8, 60354, Note_off_c, 4, 63, 0
8, 60360, Note_on_c, 4, 64, 88
8, 60476, Note_off_c, 4, 64, 0
8, 60480, Note_on_c, 4, 52, 88
8, 60538, Note_off_c, 4, 52, 0
8, 60540, Note_on_c, 4, 55, 88
8, 60598, Note_off_c, 4, 55, 0
8, 60600, Note_on_c, 4, 57, 88
8, 60658, Note_off_c, 4, 57, 0
8, 60660, Note_on_c, 4, 59, 88
8, 60718, Note_off_c, 4, 59, 0
8, 60720, Note_on_c, 4, 61, 88
8, 60778, Note_off_c, 4, 61, 0
8, 60780, Note_on_c, 4, 63, 88
8, 60838, Note_off_c, 4, 63, 0
8, 60840, Note_on_c, 4, 64, 88
8, 60956, Note_off_c, 4, 64, 0
8, 60960, Note_on_c, 4, 67, 88
8, 61076, Note_off_c, 4, 67, 0
8, 61080, Note_on_c, 4, 64, 88
8, 61196, Note_off_c, 4, 64, 0
8, 61200, Note_on_c, 4, 61, 88
8, 61316, Note_off_c, 4, 61, 0
8, 61320, Note_on_c, 4, 64, 88
8, 61436, Note_off_c, 4, 64, 0
8, 61440, Note_on_c, 4, 61, 88
8, 61556, Note_off_c, 4, 61, 0
8, 61560, Note_on_c, 4, 57, 88
8, 61676, Note_off_c, 4, 57, 0
8, 61680, Note_on_c, 4, 61, 88
8, 61796, Note_off_c, 4, 61, 0
8, 61800, Note_on_c, 4, 57, 88
8, 61916, Note_off_c, 4, 57, 0
8, 61920, Note_on_c, 4, 50, 88
8, 61978, Note_off_c, 4, 50, 0
8, 61980, Note_on_c, 4, 54, 88
8, 62038, Note_off_c, 4, 54, 0
8, 62040, Note_on_c, 4, 55, 88
8, 62098, Note_off_c, 4, 55, 0
8, 62100, Note_on_c, 4, 57, 88
8, 62158, Note_off_c, 4, 57, 0
8, 62160, Note_on_c, 4, 59, 88
8, 62218, Note_off_c, 4, 59, 0
8, 62220, Note_on_c, 4, 61, 88
8, 62278, Note_off_c, 4, 61, 0
8, 62280, Note_on_c, 4, 62, 88
8, 62750, Note_off_c, 4, 62, 0
8, 62760, Note_on_c, 4, 61, 88
8, 62876, Note_off_c, 4, 61, 0
8, 62880, Note_on_c, 4, 59, 88
8, 62996, Note_off_c, 4, 59, 0
8, 63000, Note_on_c, 4, 58, 88
8, 63058, Note_off_c, 4, 58, 0
8, 63060, Note_on_c, 4, 61, 88
8, 63118, Note_off_c, 4, 61, 0
8, 63120, Note_on_c, 4, 59, 88
8, 63178, Note_off_c, 4, 59, 0
8, 63180, Note_on_c, 4, 58, 88
8, 63238, Note_off_c, 4, 58, 0
8, 63240, Note_on_c, 4, 56, 88
8, 63298, Note_off_c, 4, 56, 0
8, 63300, Note_on_c, 4, 54, 88
8, 63358, Note_off_c, 4, 54, 0
8, 63360, Note_on_c, 4, 59, 88
8, 63476, Note_off_c, 4, 59, 0
8, 63480, Note_on_c, 4, 54, 88
8, 63596, Note_off_c, 4, 54, 0
8, 63600, Note_on_c, 4, 50, 88
8, 63716, Note_off_c, 4, 50, 0
8, 63720, Note_on_c, 4, 47, 88
8, 63836, Note_off_c, 4, 47, 0
8, 63840, Note_on_c, 4, 49, 88
8, 63898, Note_off_c, 4, 49, 0
8, 63900, Note_on_c, 4, 50, 88
8, 63958, Note_off_c, 4, 50, 0
8, 63960, Note_on_c, 4, 52, 88
8, 64018, Note_off_c, 4, 52, 0
8, 64020, Note_on_c, 4, 54, 88
8, 64078, Note_off_c, 4, 54, 0
8, 64080, Note_on_c, 4, 55, 88
8, 64138, Note_off_c, 4, 55, 0
8, 64140, Note_on_c, 4, 57, 88
8, 64198, Note_off_c, 4, 57, 0
8, 64200, Note_on_c, 4, 59, 88
8, 64258, Note_off_c, 4, 59, 0
8, 64260, Note_on_c, 4, 57, 88
8, 64318, Note_off_c, 4, 57, 0
8, 64320, Note_on_c, 4, 55, 88
8, 64378, Note_off_c, 4, 55, 0
8, 64380, Note_on_c, 4, 54, 88
8, 64438, Note_off_c, 4, 54, 0
8, 64440, Note_on_c, 4, 52, 88
8, 64498, Note_off_c, 4, 52, 0
8, 64500, Note_on_c, 4, 54, 88
8, 64558, Note_off_c, 4, 54, 0
8, 64560, Note_on_c, 4, 55, 88
8, 64618, Note_off_c, 4, 55, 0
8, 64620, Note_on_c, 4, 54, 88
8, 64678, Note_off_c, 4, 54, 0
8, 64680, Note_on_c, 4, 55, 88
8, 64738, Note_off_c, 4, 55, 0
8, 64740, Note_on_c, 4, 52, 88
8, 64798, Note_off_c, 4, 52, 0
8, 64800, Note_on_c, 4, 54, 88
8, 65034, Note_off_c, 4, 54, 0
8, 65040, Note_on_c, 4, 42, 88
8, 65153, Note_off_c, 4, 42, 0
8, 65160, Note_on_c, 4, 42, 88
8, 65393, Note_off_c, 4, 42, 0
8, 65400, Note_on_c, 4, 42, 88
8, 65513, Note_off_c, 4, 42, 0
8, 65520, Note_on_c, 4, 42, 88
8, 65873, Note_off_c, 4, 42, 0
8, 66060, Note_on_c, 4, 49, 88
8, 66118, Note_off_c, 4, 49, 0
8, 66120, Note_on_c, 4, 50, 88
8, 66178, Note_off_c, 4, 50, 0
8, 66180, Note_on_c, 4, 52, 88
8, 66238, Note_off_c, 4, 52, 0
8, 66240, Note_on_c, 4, 54, 88
8, 66474, Note_off_c, 4, 54, 0
8, 66480, Note_on_c, 4, 42, 88
8, 66593, Note_off_c, 4, 42, 0
8, 66600, Note_on_c, 4, 42, 88
8, 66833, Note_off_c, 4, 42, 0
8, 66840, Note_on_c, 4, 42, 88
8, 66953, Note_off_c, 4, 42, 0
8, 66960, Note_on_c, 4, 42, 88
8, 67313, Note_off_c, 4, 42, 0
8, 67860, Note_on_c, 4, 50, 88
8, 67918, Note_off_c, 4, 50, 0
8, 67920, Note_on_c, 4, 52, 88
8, 67978, Note_off_c, 4, 52, 0
8, 67980, Note_on_c, 4, 54, 88
8, 68038, Note_off_c, 4, 54, 0
8, 68040, Note_on_c, 4, 55, 88
8, 68156, Note_off_c, 4, 55, 0
8, 68160, Note_on_c, 4, 54, 88
8, 68276, Note_off_c, 4, 54, 0
8, 68280, Note_on_c, 4, 52, 88
8, 68396, Note_off_c, 4, 52, 0
8, 68400, Note_on_c, 4, 54, 88
8, 68753, Note_off_c, 4, 54, 0
8, 68760, Note_on_c, 4, 42, 88
8, 69113, Note_off_c, 4, 42, 0
8, 69120, Note_on_c, 4, 47, 88
8, 69354, Note_off_c, 4, 47, 0
8, 69360, Note_on_c, 4, 54, 88
8, 69476, Note_off_c, 4, 54, 0
8, 69480, Note_on_c, 4, 59, 88
8, 69538, Note_off_c, 4, 59, 0
8, 69540, Note_on_c, 4, 57, 88
8, 69598, Note_off_c, 4, 57, 0
8, 69600, Note_on_c, 4, 59, 88
8, 69953, Note_off_c, 4, 59, 0
8, 69960, Note_on_c, 4, 60, 88
8, 70018, Note_off_c, 4, 60, 0
8, 70020, Note_on_c, 4, 59, 88
8, 70078, Note_off_c, 4, 59, 0
8, 70080, Note_on_c, 4, 57, 88
8, 70138, Note_off_c, 4, 57, 0
8, 70140, Note_on_c, 4, 55, 88
8, 70198, Note_off_c, 4, 55, 0
8, 70200, Note_on_c, 4, 54, 88
8, 70316, Note_off_c, 4, 54, 0
8, 70320, Note_on_c, 4, 55, 88
8, 70378, Note_off_c, 4, 55, 0
8, 70380, Note_on_c, 4, 54, 88
8, 70438, Note_off_c, 4, 54, 0
8, 70440, Note_on_c, 4, 52, 88
8, 70498, Note_off_c, 4, 52, 0
8, 70500, Note_on_c, 4, 50, 88
8, 70558, Note_off_c, 4, 50, 0
8, 70560, Note_on_c, 4, 55, 88
8, 70618, Note_off_c, 4, 55, 0
8, 70620, Note_on_c, 4, 57, 88
8, 70678, Note_off_c, 4, 57, 0
8, 70680, Note_on_c, 4, 59, 88
8, 70738, Note_off_c, 4, 59, 0
8, 70740, Note_on_c, 4, 55, 88
8, 70798, Note_off_c, 4, 55, 0
8, 70800, Note_on_c, 4, 54, 88
8, 70858, Note_off_c, 4, 54, 0
8, 70860, Note_on_c, 4, 55, 88
8, 70918, Note_off_c, 4, 55, 0
8, 70920, Note_on_c, 4, 49, 88
8, 71036, Note_off_c, 4, 49, 0
8, 71040, Note_on_c, 4, 52, 88
8, 71156, Note_off_c, 4, 52, 0
8, 71160, Note_on_c, 4, 49, 88
8, 71276, Note_off_c, 4, 49, 0
8, 71280, Note_on_c, 4, 54, 88
8, 71338, Note_off_c, 4, 54, 0
8, 71340, Note_on_c, 4, 55, 88
8, 71398, Note_off_c, 4, 55, 0
8, 71400, Note_on_c, 4, 57, 88
8, 71458, Note_off_c, 4, 57, 0
8, 71460, Note_on_c, 4, 54, 88
8, 71518, Note_off_c, 4, 54, 0
8, 71520, Note_on_c, 4, 52, 88
8, 71578, Note_off_c, 4, 52, 0
8, 71580, Note_on_c, 4, 54, 88
8, 71638, Note_off_c, 4, 54, 0
8, 71640, Note_on_c, 4, 47, 88
8, 71756, Note_off_c, 4, 47, 0
8, 71760, Note_on_c, 4, 50, 88
8, 71876, Note_off_c, 4, 50, 0
8, 71880, Note_on_c, 4, 47, 88
8, 71996, Note_off_c, 4, 47, 0
8, 72000, Note_on_c, 4, 52, 88
8, 72058, Note_off_c, 4, 52, 0
8, 72060, Note_on_c, 4, 54, 88
8, 72118, Note_off_c, 4, 54, 0
8, 72120, Note_on_c, 4, 55, 88
8, 72178, Note_off_c, 4, 55, 0
8, 72180, Note_on_c, 4, 52, 88
8, 72238, Note_off_c, 4, 52, 0
8, 72240, Note_on_c, 4, 50, 88
8, 72298, Note_off_c, 4, 50, 0
8, 72300, Note_on_c, 4, 52, 88
8, 72358, Note_off_c, 4, 52, 0
8, 72360, Note_on_c, 4, 45, 88
8, 72476, Note_off_c, 4, 45, 0
8, 72480, Note_on_c, 4, 49, 88
8, 72596, Note_off_c, 4, 49, 0
8, 72600, Note_on_c, 4, 45, 88
8, 72716, Note_off_c, 4, 45, 0
8, 72720, Note_on_c, 4, 50, 88
8, 72778, Note_off_c, 4, 50, 0
8, 72780, Note_on_c, 4, 52, 88
8, 72838, Note_off_c, 4, 52, 0
8, 72840, Note_on_c, 4, 54, 88
8, 72898, Note_off_c, 4, 54, 0
8, 72900, Note_on_c, 4, 50, 88
8, 72958, Note_off_c, 4, 50, 0
8, 72960, Note_on_c, 4, 49, 88
8, 73018, Note_off_c, 4, 49, 0
8, 73020, Note_on_c, 4, 50, 88
8, 73078, Note_off_c, 4, 50, 0
8, 73080, Note_on_c, 4, 47, 88
8, 73138, Note_off_c, 4, 47, 0
8, 73140, Note_on_c, 4, 48, 88
8, 73198, Note_off_c, 4, 48, 0
8, 73200, Note_on_c, 4, 50, 88
8, 73258, Note_off_c, 4, 50, 0
8, 73260, Note_on_c, 4, 47, 88
8, 73318, Note_off_c, 4, 47, 0
8, 73320, Note_on_c, 4, 45, 88
8, 73378, Note_off_c, 4, 45, 0
8, 73380, Note_on_c, 4, 47, 88
8, 73438, Note_off_c, 4, 47, 0
8, 73440, Note_on_c, 4, 43, 88
8, 73498, Note_off_c, 4, 43, 0
8, 73500, Note_on_c, 4, 45, 88
8, 73558, Note_off_c, 4, 45, 0
8, 73560, Note_on_c, 4, 47, 88
8, 73618, Note_off_c, 4, 47, 0
8, 73620, Note_on_c, 4, 45, 88
8, 73678, Note_off_c, 4, 45, 0
8, 73680, Note_on_c, 4, 43, 88
8, 73738, Note_off_c, 4, 43, 0
8, 73740, Note_on_c, 4, 42, 88
8, 73798, Note_off_c, 4, 42, 0
8, 73800, Note_on_c, 4, 40, 88
8, 73858, Note_off_c, 4, 40, 0
8, 73860, Note_on_c, 4, 42, 88
8, 73918, Note_off_c, 4, 42, 0
8, 73920, Note_on_c, 4, 43, 88
8, 73978, Note_off_c, 4, 43, 0
8, 73980, Note_on_c, 4, 42, 88
8, 74038, Note_off_c, 4, 42, 0
8, 74040, Note_on_c, 4, 40, 88
8, 74098, Note_off_c, 4, 40, 0
8, 74100, Note_on_c, 4, 38, 88
8, 74158, Note_off_c, 4, 38, 0
8, 74160, Note_on_c, 4, 45, 88
8, 74572, Note_off_c, 4, 45, 0
8, 74580, Note_on_c, 4, 47, 88
8, 74638, Note_off_c, 4, 47, 0
8, 74640, Note_on_c, 4, 49, 88
8, 74698, Note_off_c, 4, 49, 0
8, 74700, Note_on_c, 4, 50, 88
8, 74758, Note_off_c, 4, 50, 0
8, 74760, Note_on_c, 4, 52, 88
8, 74818, Note_off_c, 4, 52, 0
8, 74820, Note_on_c, 4, 46, 88
8, 74878, Note_off_c, 4, 46, 0
8, 74880, Note_on_c, 4, 47, 88
8, 75292, Note_off_c, 4, 47, 0
8, 75300, Note_on_c, 4, 45, 88
8, 75358, Note_off_c, 4, 45, 0
8, 75360, Note_on_c, 4, 47, 88
8, 75418, Note_off_c, 4, 47, 0
8, 75420, Note_on_c, 4, 50, 88
8, 75478, Note_off_c, 4, 50, 0
8, 75480, Note_on_c, 4, 49, 88
8, 75538, Note_off_c, 4, 49, 0
8, 75540, Note_on_c, 4, 52, 88
8, 75598, Note_off_c, 4, 52, 0
8, 75600, Note_on_c, 4, 50, 88
8, 76012, Note_off_c, 4, 50, 0
8, 76020, Note_on_c, 4, 52, 88
8, 76078, Note_off_c, 4, 52, 0
8, 76080, Note_on_c, 4, 50, 88
8, 76138, Note_off_c, 4, 50, 0
8, 76140, Note_on_c, 4, 48, 88
8, 76198, Note_off_c, 4, 48, 0
8, 76200, Note_on_c, 4, 47, 88
8, 76258, Note_off_c, 4, 47, 0
8, 76260, Note_on_c, 4, 45, 88
8, 76318, Note_off_c, 4, 45, 0
8, 76320, Note_on_c, 4, 43, 88
8, 76378, Note_off_c, 4, 43, 0
8, 76380, Note_on_c, 4, 50, 88
8, 76438, Note_off_c, 4, 50, 0
8, 76440, Note_on_c, 4, 52, 88
8, 76498, Note_off_c, 4, 52, 0
8, 76500, Note_on_c, 4, 54, 88
8, 76558, Note_off_c, 4, 54, 0
8, 76560, Note_on_c, 4, 55, 88
8, 76618, Note_off_c, 4, 55, 0
8, 76620, Note_on_c, 4, 57, 88
8, 76678, Note_off_c, 4, 57, 0
8, 76680, Note_on_c, 4, 58, 88
8, 77092, Note_off_c, 4, 58, 0
8, 77100, Note_on_c, 4, 57, 88
8, 77158, Note_off_c, 4, 57, 0
8, 77160, Note_on_c, 4, 58, 88
8, 77218, Note_off_c, 4, 58, 0
8, 77220, Note_on_c, 4, 55, 88
8, 77278, Note_off_c, 4, 55, 0
8, 77280, Note_on_c, 4, 52, 88
8, 77338, Note_off_c, 4, 52, 0
8, 77340, Note_on_c, 4, 55, 88
8, 77398, Note_off_c, 4, 55, 0
8, 77400, Note_on_c, 4, 57, 88
8, 77458, Note_off_c, 4, 57, 0
8, 77460, Note_on_c, 4, 55, 88
8, 77518, Note_off_c, 4, 55, 0
8, 77520, Note_on_c, 4, 57, 88
8, 77578, Note_off_c, 4, 57, 0
8, 77580, Note_on_c, 4, 53, 88
8, 77638, Note_off_c, 4, 53, 0
8, 77640, Note_on_c, 4, 50, 88
8, 77698, Note_off_c, 4, 50, 0
8, 77700, Note_on_c, 4, 53, 88
8, 77758, Note_off_c, 4, 53, 0
8, 77760, Note_on_c, 4, 55, 88
8, 77818, Note_off_c, 4, 55, 0
8, 77820, Note_on_c, 4, 53, 88
8, 77878, Note_off_c, 4, 53, 0
8, 77880, Note_on_c, 4, 55, 88
8, 77938, Note_off_c, 4, 55, 0
8, 77940, Note_on_c, 4, 52, 88
8, 77998, Note_off_c, 4, 52, 0
8, 78000, Note_on_c, 4, 49, 88
8, 78058, Note_off_c, 4, 49, 0
8, 78060, Note_on_c, 4, 52, 88
8, 78118, Note_off_c, 4, 52, 0
8, 78120, Note_on_c, 4, 53, 88
8, 78178, Note_off_c, 4, 53, 0
8, 78180, Note_on_c, 4, 52, 88
8, 78238, Note_off_c, 4, 52, 0
8, 78240, Note_on_c, 4, 53, 88
8, 78298, Note_off_c, 4, 53, 0
8, 78300, Note_on_c, 4, 50, 88
8, 78358, Note_off_c, 4, 50, 0
8, 78360, Note_on_c, 4, 47, 88
8, 78418, Note_off_c, 4, 47, 0
8, 78420, Note_on_c, 4, 50, 88
8, 78478, Note_off_c, 4, 50, 0
8, 78480, Note_on_c, 4, 52, 88
8, 78538, Note_off_c, 4, 52, 0
8, 78540, Note_on_c, 4, 50, 88
8, 78598, Note_off_c, 4, 50, 0
8, 78600, Note_on_c, 4, 52, 88
8, 78658, Note_off_c, 4, 52, 0
8, 78660, Note_on_c, 4, 49, 88
8, 78718, Note_off_c, 4, 49, 0
8, 78720, Note_on_c, 4, 45, 88
8, 78778, Note_off_c, 4, 45, 0
8, 78780, Note_on_c, 4, 49, 88
8, 78838, Note_off_c, 4, 49, 0
8, 78840, Note_on_c, 4, 50, 88
8, 78898, Note_off_c, 4, 50, 0
8, 78900, Note_on_c, 4, 49, 88
8, 78958, Note_off_c, 4, 49, 0
8, 78960, Note_on_c, 4, 50, 88
8, 79018, Note_off_c, 4, 50, 0
8, 79020, Note_on_c, 4, 53, 88
8, 79078, Note_off_c, 4, 53, 0
8, 79080, Note_on_c, 4, 46, 88
8, 79138, Note_off_c, 4, 46, 0
8, 79140, Note_on_c, 4, 50, 88
8, 79198, Note_off_c, 4, 50, 0
8, 79200, Note_on_c, 4, 45, 88
8, 79265, Note_off_c, 4, 45, 0
8, 79268, Note_on_c, 4, 44, 88
8, 79304, Note_off_c, 4, 44, 0
8, 79305, Note_on_c, 4, 45, 88
8, 79341, Note_off_c, 4, 45, 0
8, 79343, Note_on_c, 4, 44, 88
8, 79379, Note_off_c, 4, 44, 0
8, 79380, Note_on_c, 4, 45, 88
8, 79416, Note_off_c, 4, 45, 0
8, 79418, Note_on_c, 4, 44, 88
8, 79454, Note_off_c, 4, 44, 0
8, 79455, Note_on_c, 4, 45, 88
8, 79491, Note_off_c, 4, 45, 0
8, 79493, Note_on_c, 4, 44, 88
8, 79529, Note_off_c, 4, 44, 0
8, 79530, Note_on_c, 4, 45, 88
8, 79566, Note_off_c, 4, 45, 0
8, 79568, Note_on_c, 4, 44, 88
8, 79597, Note_off_c, 4, 44, 0
8, 79598, Note_on_c, 4, 45, 88
8, 79627, Note_off_c, 4, 45, 0
8, 79628, Note_on_c, 4, 44, 88
8, 79657, Note_off_c, 4, 44, 0
8, 79658, Note_on_c, 4, 45, 88
8, 79687, Note_off_c, 4, 45, 0
8, 79688, Note_on_c, 4, 44, 88
8, 79717, Note_off_c, 4, 44, 0
8, 79718, Note_on_c, 4, 45, 88
8, 79747, Note_off_c, 4, 45, 0
8, 79748, Note_on_c, 4, 44, 88
8, 79777, Note_off_c, 4, 44, 0
8, 79778, Note_on_c, 4, 45, 88
8, 79807, Note_off_c, 4, 45, 0
8, 79808, Note_on_c, 4, 44, 88
8, 79837, Note_off_c, 4, 44, 0
8, 79838, Note_on_c, 4, 45, 88
8, 79867, Note_off_c, 4, 45, 0
8, 79868, Note_on_c, 4, 44, 88
8, 79918, Note_off_c, 4, 44, 0
8, 79920, Note_on_c, 4, 45, 88
8, 80273, Note_off_c, 4, 45, 0
8, 80340, Note_on_c, 4, 47, 88
8, 80398, Note_off_c, 4, 47, 0
8, 80400, Note_on_c, 4, 45, 88
8, 80458, Note_off_c, 4, 45, 0
8, 80460, Note_on_c, 4, 43, 88
8, 80518, Note_off_c, 4, 43, 0
8, 80520, Note_on_c, 4, 42, 88
8, 80578, Note_off_c, 4, 42, 0
8, 80580, Note_on_c, 4, 40, 88
8, 80638, Note_off_c, 4, 40, 0
8, 80640, Note_on_c, 4, 38, 88
8, 80993, Note_off_c, 4, 38, 0
8, 82440, Note_on_c, 4, 50, 88
8, 82793, Note_off_c, 4, 50, 0
8, 82800, Note_on_c, 4, 57, 88
8, 83153, Note_off_c, 4, 57, 0
8, 83160, Note_on_c, 4, 45, 88
8, 83513, Note_off_c, 4, 45, 0
8, 83520, Note_on_c, 4, 50, 88
8, 83873, Note_off_c, 4, 50, 0
8, 84000, Note_on_c, 4, 60, 88
8, 84058, Note_off_c, 4, 60, 0
8, 84060, Note_on_c, 4, 59, 88
8, 84118, Note_off_c, 4, 59, 0
8, 84120, Note_on_c, 4, 57, 88
8, 84178, Note_off_c, 4, 57, 0
8, 84180, Note_on_c, 4, 55, 88
8, 84238, Note_off_c, 4, 55, 0
8, 84240, Note_on_c, 4, 54, 88
8, 84356, Note_off_c, 4, 54, 0
8, 84360, Note_on_c, 4, 57, 88
8, 84476, Note_off_c, 4, 57, 0
8, 84480, Note_on_c, 4, 54, 88
8, 84596, Note_off_c, 4, 54, 0
8, 84600, Note_on_c, 4, 50, 88
8, 84716, Note_off_c, 4, 50, 0
8, 84720, Note_on_c, 4, 54, 88
8, 84836, Note_off_c, 4, 54, 0
8, 84840, Note_on_c, 4, 50, 88
8, 84956, Note_off_c, 4, 50, 0
8, 84960, Note_on_c, 4, 45, 88
8, 85076, Note_off_c, 4, 45, 0
8, 85080, Note_on_c, 4, 50, 88
8, 85196, Note_off_c, 4, 50, 0
8, 85200, Note_on_c, 4, 45, 88
8, 85316, Note_off_c, 4, 45, 0
8, 85320, Note_on_c, 4, 42, 88
8, 85436, Note_off_c, 4, 42, 0
8, 85440, Note_on_c, 4, 45, 88
8, 85556, Note_off_c, 4, 45, 0
8, 85560, Note_on_c, 4, 42, 88
8, 85676, Note_off_c, 4, 42, 0
8, 85680, Note_on_c, 4, 38, 88
8, 86033, Note_off_c, 4, 38, 0
8, 86040, Note_on_c, 4, 50, 88
8, 86393, Note_off_c, 4, 50, 0
8, 86400, Note_on_c, 4, 43, 88
8, 86634, Note_off_c, 4, 43, 0
8, 86640, Note_on_c, 4, 50, 88
8, 86756, Note_off_c, 4, 50, 0
8, 86760, Note_on_c, 4, 55, 88
8, 86993, Note_off_c, 4, 55, 0
8, 87000, Note_on_c, 4, 55, 88
8, 87113, Note_off_c, 4, 55, 0
8, 87120, Note_on_c, 4, 55, 88
8, 87473, Note_off_c, 4, 55, 0
8, 87600, Note_on_c, 4, 45, 88
8, 87658, Note_off_c, 4, 45, 0
8, 87660, Note_on_c, 4, 43, 88
8, 87718, Note_off_c, 4, 43, 0
8, 87720, Note_on_c, 4, 42, 88
8, 87778, Note_off_c, 4, 42, 0
8, 87780, Note_on_c, 4, 40, 88
8, 87838, Note_off_c, 4, 40, 0
8, 87840, Note_on_c, 4, 42, 88
8, 88074, Note_off_c, 4, 42, 0
8, 88080, Note_on_c, 4, 54, 88
8, 88193, Note_off_c, 4, 54, 0
8, 88200, Note_on_c, 4, 54, 88
8, 88433, Note_off_c, 4, 54, 0
8, 88440, Note_on_c, 4, 54, 88
8, 88553, Note_off_c, 4, 54, 0
8, 88560, Note_on_c, 4, 54, 88
8, 88913, Note_off_c, 4, 54, 0
8, 89040, Note_on_c, 4, 43, 88
8, 89098, Note_off_c, 4, 43, 0
8, 89100, Note_on_c, 4, 42, 88
8, 89158, Note_off_c, 4, 42, 0
8, 89160, Note_on_c, 4, 40, 88
8, 89218, Note_off_c, 4, 40, 0
8, 89220, Note_on_c, 4, 38, 88
8, 89278, Note_off_c, 4, 38, 0
8, 89280, Note_on_c, 4, 40, 88
8, 89396, Note_off_c, 4, 40, 0
8, 89400, Note_on_c, 4, 59, 88
8, 89458, Note_off_c, 4, 59, 0
8, 89460, Note_on_c, 4, 57, 88
8, 89518, Note_off_c, 4, 57, 0
8, 89520, Note_on_c, 4, 55, 88
8, 89578, Note_off_c, 4, 55, 0
8, 89580, Note_on_c, 4, 54, 88
8, 89638, Note_off_c, 4, 54, 0
8, 89640, Note_on_c, 4, 52, 88
8, 89756, Note_off_c, 4, 52, 0
8, 89760, Note_on_c, 4, 55, 88
8, 89876, Note_off_c, 4, 55, 0
8, 89880, Note_on_c, 4, 52, 88
8, 89996, Note_off_c, 4, 52, 0
8, 90000, Note_on_c, 4, 49, 88
8, 90116, Note_off_c, 4, 49, 0
8, 90120, Note_on_c, 4, 52, 88
8, 90236, Note_off_c, 4, 52, 0
8, 90240, Note_on_c, 4, 49, 88
8, 90356, Note_off_c, 4, 49, 0
8, 90360, Note_on_c, 4, 45, 88
8, 90476, Note_off_c, 4, 45, 0
8, 90480, Note_on_c, 4, 49, 88
8, 90596, Note_off_c, 4, 49, 0
8, 90600, Note_on_c, 4, 45, 88
8, 90716, Note_off_c, 4, 45, 0
8, 90720, Note_on_c, 4, 50, 88
8, 90836, Note_off_c, 4, 50, 0
8, 90840, Note_on_c, 4, 54, 88
8, 90956, Note_off_c, 4, 54, 0
8, 90960, Note_on_c, 4, 50, 88
8, 91076, Note_off_c, 4, 50, 0
8, 91080, Note_on_c, 4, 47, 88
8, 91196, Note_off_c, 4, 47, 0
8, 91200, Note_on_c, 4, 50, 88
8, 91316, Note_off_c, 4, 50, 0
8, 91320, Note_on_c, 4, 47, 88
8, 91436, Note_off_c, 4, 47, 0
8, 91440, Note_on_c, 4, 52, 88
8, 91556, Note_off_c, 4, 52, 0
8, 91560, Note_on_c, 4, 55, 88
8, 91676, Note_off_c, 4, 55, 0
8, 91680, Note_on_c, 4, 52, 88
8, 91796, Note_off_c, 4, 52, 0
8, 91800, Note_on_c, 4, 49, 88
8, 91916, Note_off_c, 4, 49, 0
8, 91920, Note_on_c, 4, 52, 88
8, 92036, Note_off_c, 4, 52, 0
8, 92040, Note_on_c, 4, 49, 88
8, 92156, Note_off_c, 4, 49, 0
8, 92160, Note_on_c, 4, 54, 88
8, 92276, Note_off_c, 4, 54, 0
8, 92280, Note_on_c, 4, 50, 88
8, 92338, Note_off_c, 4, 50, 0
8, 92340, Note_on_c, 4, 52, 88
8, 92398, Note_off_c, 4, 52, 0
8, 92400, Note_on_c, 4, 54, 88
8, 92458, Note_off_c, 4, 54, 0
8, 92460, Note_on_c, 4, 55, 88
8, 92518, Note_off_c, 4, 55, 0
8, 92520, Note_on_c, 4, 57, 88
8, 92636, Note_off_c, 4, 57, 0
8, 92640, Note_on_c, 4, 55, 88
8, 92698, Note_off_c, 4, 55, 0
8, 92700, Note_on_c, 4, 54, 88
8, 92758, Note_off_c, 4, 54, 0
8, 92760, Note_on_c, 4, 52, 88
8, 92818, Note_off_c, 4, 52, 0
8, 92820, Note_on_c, 4, 50, 88
8, 92878, Note_off_c, 4, 50, 0
8, 92880, Note_on_c, 4, 55, 88
8, 92996, Note_off_c, 4, 55, 0
8, 93000, Note_on_c, 4, 52, 88
8, 93058, Note_off_c, 4, 52, 0
8, 93060, Note_on_c, 4, 54, 88
8, 93118, Note_off_c, 4, 54, 0
8, 93120, Note_on_c, 4, 55, 88
8, 93178, Note_off_c, 4, 55, 0
8, 93180, Note_on_c, 4, 57, 88
8, 93238, Note_off_c, 4, 57, 0
8, 93240, Note_on_c, 4, 59, 88
8, 93356, Note_off_c, 4, 59, 0
8, 93360, Note_on_c, 4, 57, 88
8, 93418, Note_off_c, 4, 57, 0
8, 93420, Note_on_c, 4, 55, 88
8, 93478, Note_off_c, 4, 55, 0
8, 93480, Note_on_c, 4, 54, 88
8, 93538, Note_off_c, 4, 54, 0
8, 93540, Note_on_c, 4, 52, 88
8, 93598, Note_off_c, 4, 52, 0
8, 93600, Note_on_c, 4, 57, 88
8, 93834, Note_off_c, 4, 57, 0
8, 93840, Note_on_c, 4, 45, 88
8, 93953, Note_off_c, 4, 45, 0
8, 93960, Note_on_c, 4, 45, 88
8, 94193, Note_off_c, 4, 45, 0
8, 94200, Note_on_c, 4, 45, 88
8, 94313, Note_off_c, 4, 45, 0
8, 94320, Note_on_c, 4, 45, 88
8, 94851, Note_off_c, 4, 45, 0
8, 94860, Note_on_c, 4, 52, 88
8, 94918, Note_off_c, 4, 52, 0
8, 94920, Note_on_c, 4, 54, 88
8, 94978, Note_off_c, 4, 54, 0
8, 94980, Note_on_c, 4, 55, 88
8, 95038, Note_off_c, 4, 55, 0
8, 95040, Note_on_c, 4, 57, 88
8, 95274, Note_off_c, 4, 57, 0
8, 95280, Note_on_c, 4, 45, 88
8, 95393, Note_off_c, 4, 45, 0
8, 95400, Note_on_c, 4, 45, 88
8, 95633, Note_off_c, 4, 45, 0
8, 95640, Note_on_c, 4, 45, 88
8, 95753, Note_off_c, 4, 45, 0
8, 95760, Note_on_c, 4, 45, 88
8, 96113, Note_off_c, 4, 45, 0
8, 96660, Note_on_c, 4, 42, 88
8, 96718, Note_off_c, 4, 42, 0
8, 96720, Note_on_c, 4, 43, 88
8, 96778, Note_off_c, 4, 43, 0
8, 96780, Note_on_c, 4, 45, 88
8, 96838, Note_off_c, 4, 45, 0
8, 96840, Note_on_c, 4, 47, 88
8, 96956, Note_off_c, 4, 47, 0
8, 96960, Note_on_c, 4, 45, 88
8, 97076, Note_off_c, 4, 45, 0
8, 97080, Note_on_c, 4, 43, 88
8, 97196, Note_off_c, 4, 43, 0
8, 97200, Note_on_c, 4, 45, 88
8, 97434, Note_off_c, 4, 45, 0
8, 97440, Note_on_c, 4, 57, 88
8, 97553, Note_off_c, 4, 57, 0
8, 97560, Note_on_c, 4, 57, 88
8, 97794, Note_off_c, 4, 57, 0
8, 97800, Note_on_c, 4, 45, 88
8, 97916, Note_off_c, 4, 45, 0
8, 97920, Note_on_c, 4, 50, 88
8, 98154, Note_off_c, 4, 50, 0
8, 98160, Note_on_c, 4, 57, 88
8, 98276, Note_off_c, 4, 57, 0
8, 98280, Note_on_c, 4, 62, 88
8, 98750, Note_off_c, 4, 62, 0
8, 98760, Note_on_c, 4, 64, 88
8, 98818, Note_off_c, 4, 64, 0
8, 98820, Note_on_c, 4, 62, 88
8, 98878, Note_off_c, 4, 62, 0
8, 98880, Note_on_c, 4, 61, 88
8, 98938, Note_off_c, 4, 61, 0
8, 98940, Note_on_c, 4, 59, 88
8, 98998, Note_off_c, 4, 59, 0
8, 99000, Note_on_c, 4, 58, 88
8, 99116, Note_off_c, 4, 58, 0
8, 99120, Note_on_c, 4, 59, 88
8, 99178, Note_off_c, 4, 59, 0
8, 99180, Note_on_c, 4, 58, 88
8, 99238, Note_off_c, 4, 58, 0
8, 99240, Note_on_c, 4, 56, 88
8, 99298, Note_off_c, 4, 56, 0
8, 99300, Note_on_c, 4, 54, 88
8, 99358, Note_off_c, 4, 54, 0
8, 99360, Note_on_c, 4, 59, 88
8, 99594, Note_off_c, 4, 59, 0
8, 99600, Note_on_c, 4, 47, 88
8, 99716, Note_off_c, 4, 47, 0
8, 99720, Note_on_c, 4, 59, 88
8, 100190, Note_off_c, 4, 59, 0
8, 100200, Note_on_c, 4, 60, 88
8, 100258, Note_off_c, 4, 60, 0
8, 100260, Note_on_c, 4, 59, 88
8, 100318, Note_off_c, 4, 59, 0
8, 100320, Note_on_c, 4, 57, 88
8, 100378, Note_off_c, 4, 57, 0
8, 100380, Note_on_c, 4, 55, 88
8, 100438, Note_off_c, 4, 55, 0
8, 100440, Note_on_c, 4, 54, 88
8, 100556, Note_off_c, 4, 54, 0
8, 100560, Note_on_c, 4, 55, 88
8, 100618, Note_off_c, 4, 55, 0
8, 100620, Note_on_c, 4, 54, 88
8, 100678, Note_off_c, 4, 54, 0
8, 100680, Note_on_c, 4, 52, 88
8, 100738, Note_off_c, 4, 52, 0
8, 100740, Note_on_c, 4, 50, 88
8, 100798, Note_off_c, 4, 50, 0
8, 100800, Note_on_c, 4, 55, 88
8, 101034, Note_off_c, 4, 55, 0
8, 101040, Note_on_c, 4, 43, 88
8, 101156, Note_off_c, 4, 43, 0
8, 101160, Note_on_c, 4, 55, 88
8, 101630, Note_off_c, 4, 55, 0
8, 101640, Note_on_c, 4, 57, 88
8, 101698, Note_off_c, 4, 57, 0
8, 101700, Note_on_c, 4, 55, 88
8, 101758, Note_off_c, 4, 55, 0
8, 101760, Note_on_c, 4, 54, 88
8, 101818, Note_off_c, 4, 54, 0
8, 101820, Note_on_c, 4, 52, 88
8, 101878, Note_off_c, 4, 52, 0
8, 101880, Note_on_c, 4, 50, 88
8, 101996, Note_off_c, 4, 50, 0
8, 102000, Note_on_c, 4, 52, 88
8, 102058, Note_off_c, 4, 52, 0
8, 102060, Note_on_c, 4, 54, 88
8, 102118, Note_off_c, 4, 54, 0
8, 102120, Note_on_c, 4, 55, 88
8, 102178, Note_off_c, 4, 55, 0
8, 102180, Note_on_c, 4, 57, 88
8, 102238, Note_off_c, 4, 57, 0
8, 102240, Note_on_c, 4, 59, 88
8, 102356, Note_off_c, 4, 59, 0
8, 102360, Note_on_c, 4, 57, 88
8, 102476, Note_off_c, 4, 57, 0
8, 102480, Note_on_c, 4, 55, 88
8, 102596, Note_off_c, 4, 55, 0
8, 102600, Note_on_c, 4, 57, 88
8, 102834, Note_off_c, 4, 57, 0
8, 102840, Note_on_c, 4, 45, 88
8, 102956, Note_off_c, 4, 45, 0
8, 102960, Note_on_c, 4, 38, 88
8, 103668, Note_off_c, 4, 38, 0
8, 103680, Note_on_c, 4, 45, 88
8, 104033, Note_off_c, 4, 45, 0
8, 105480, Note_on_c, 4, 57, 88
8, 105833, Note_off_c, 4, 57, 0
8, 105840, Note_on_c, 4, 57, 88
8, 106015, Note_off_c, 4, 57, 0
8, 106680, Note_on_c, 4, 64, 88
8, 106738, Note_off_c, 4, 64, 0
8, 106740, Note_on_c, 4, 62, 88
8, 106798, Note_off_c, 4, 62, 0
8, 106800, Note_on_c, 4, 61, 88
8, 106858, Note_off_c, 4, 61, 0
8, 106860, Note_on_c, 4, 59, 88
8, 106918, Note_off_c, 4, 59, 0
8, 106920, Note_on_c, 4, 57, 88
8, 107036, Note_off_c, 4, 57, 0
8, 107040, Note_on_c, 4, 61, 88
8, 107156, Note_off_c, 4, 61, 0
8, 107160, Note_on_c, 4, 57, 88
8, 107276, Note_off_c, 4, 57, 0
8, 107280, Note_on_c, 4, 52, 88
8, 107396, Note_off_c, 4, 52, 0
8, 107400, Note_on_c, 4, 57, 88
8, 107516, Note_off_c, 4, 57, 0
8, 107520, Note_on_c, 4, 52, 88
8, 107636, Note_off_c, 4, 52, 0
8, 107640, Note_on_c, 4, 49, 88
8, 107756, Note_off_c, 4, 49, 0
8, 107760, Note_on_c, 4, 52, 88
8, 107876, Note_off_c, 4, 52, 0
8, 107880, Note_on_c, 4, 49, 88
8, 107996, Note_off_c, 4, 49, 0
8, 108000, Note_on_c, 4, 45, 88
8, 108353, Note_off_c, 4, 45, 0
8, 108360, Note_on_c, 4, 45, 88
8, 108713, Note_off_c, 4, 45, 0
8, 108720, Note_on_c, 4, 45, 88
8, 108895, Note_off_c, 4, 45, 0
8, 108900, Note_on_c, 4, 47, 88
8, 109073, Note_off_c, 4, 47, 0
8, 109080, Note_on_c, 4, 47, 88
8, 109255, Note_off_c, 4, 47, 0
8, 109260, Note_on_c, 4, 49, 88
8, 109435, Note_off_c, 4, 49, 0
8, 109440, Note_on_c, 4, 49, 88
8, 109615, Note_off_c, 4, 49, 0
8, 110040, Note_on_c, 4, 57, 88
8, 110156, Note_off_c, 4, 57, 0
8, 110160, Note_on_c, 4, 59, 88
8, 110276, Note_off_c, 4, 59, 0
8, 110280, Note_on_c, 4, 61, 88
8, 110338, Note_off_c, 4, 61, 0
8, 110340, Note_on_c, 4, 59, 88
8, 110398, Note_off_c, 4, 59, 0
8, 110400, Note_on_c, 4, 57, 88
8, 110458, Note_off_c, 4, 57, 0
8, 110460, Note_on_c, 4, 59, 88
8, 110518, Note_off_c, 4, 59, 0
8, 110520, Note_on_c, 4, 61, 88
8, 110636, Note_off_c, 4, 61, 0
8, 110640, Note_on_c, 4, 62, 88
8, 110698, Note_off_c, 4, 62, 0
8, 110700, Note_on_c, 4, 61, 88
8, 110758, Note_off_c, 4, 61, 0
8, 110760, Note_on_c, 4, 59, 88
8, 110818, Note_off_c, 4, 59, 0
8, 110820, Note_on_c, 4, 61, 88
8, 110878, Note_off_c, 4, 61, 0
8, 110880, Note_on_c, 4, 62, 88
8, 111055, Note_off_c, 4, 62, 0
8, 111480, Note_on_c, 4, 50, 88
8, 111596, Note_off_c, 4, 50, 0
8, 111600, Note_on_c, 4, 52, 88
8, 111716, Note_off_c, 4, 52, 0
8, 111720, Note_on_c, 4, 54, 88
8, 111778, Note_off_c, 4, 54, 0
8, 111780, Note_on_c, 4, 52, 88
8, 111838, Note_off_c, 4, 52, 0
8, 111840, Note_on_c, 4, 50, 88
8, 111898, Note_off_c, 4, 50, 0
8, 111900, Note_on_c, 4, 52, 88
8, 111958, Note_off_c, 4, 52, 0
8, 111960, Note_on_c, 4, 54, 88
8, 112076, Note_off_c, 4, 54, 0
8, 112080, Note_on_c, 4, 55, 88
8, 112138, Note_off_c, 4, 55, 0
8, 112140, Note_on_c, 4, 54, 88
8, 112198, Note_off_c, 4, 54, 0
8, 112200, Note_on_c, 4, 52, 88
8, 112258, Note_off_c, 4, 52, 0
8, 112260, Note_on_c, 4, 54, 88
8, 112318, Note_off_c, 4, 54, 0
8, 112320, Note_on_c, 4, 55, 88
8, 112436, Note_off_c, 4, 55, 0
8, 112440, Note_on_c, 4, 59, 88
8, 112498, Note_off_c, 4, 59, 0
8, 112500, Note_on_c, 4, 57, 88
8, 112558, Note_off_c, 4, 57, 0
8, 112560, Note_on_c, 4, 55, 88
8, 112618, Note_off_c, 4, 55, 0
8, 112620, Note_on_c, 4, 54, 88
8, 112678, Note_off_c, 4, 54, 0
8, 112680, Note_on_c, 4, 52, 88
8, 112796, Note_off_c, 4, 52, 0
8, 112800, Note_on_c, 4, 55, 88
8, 112858, Note_off_c, 4, 55, 0
8, 112860, Note_on_c, 4, 54, 88
8, 112918, Note_off_c, 4, 54, 0
8, 112920, Note_on_c, 4, 52, 88
8, 112978, Note_off_c, 4, 52, 0
8, 112980, Note_on_c, 4, 50, 88
8, 113038, Note_off_c, 4, 50, 0
8, 113040, Note_on_c, 4, 49, 88
8, 113156, Note_off_c, 4, 49, 0
8, 113160, Note_on_c, 4, 52, 88
8, 113276, Note_off_c, 4, 52, 0
8, 113280, Note_on_c, 4, 49, 88
8, 113396, Note_off_c, 4, 49, 0
8, 113400, Note_on_c, 4, 46, 88
8, 113516, Note_off_c, 4, 46, 0
8, 113520, Note_on_c, 4, 49, 88
8, 113636, Note_off_c, 4, 49, 0
8, 113640, Note_on_c, 4, 46, 88
8, 113756, Note_off_c, 4, 46, 0
8, 113760, Note_on_c, 4, 50, 88
8, 113876, Note_off_c, 4, 50, 0
8, 113880, Note_on_c, 4, 54, 88
8, 113996, Note_off_c, 4, 54, 0
8, 114000, Note_on_c, 4, 50, 88
8, 114116, Note_off_c, 4, 50, 0
8, 114120, Note_on_c, 4, 47, 88
8, 114236, Note_off_c, 4, 47, 0
8, 114240, Note_on_c, 4, 50, 88
8, 114356, Note_off_c, 4, 50, 0
8, 114360, Note_on_c, 4, 47, 88
8, 114476, Note_off_c, 4, 47, 0
8, 114480, Note_on_c, 4, 52, 88
8, 114596, Note_off_c, 4, 52, 0
8, 114600, Note_on_c, 4, 55, 88
8, 114716, Note_off_c, 4, 55, 0
8, 114720, Note_on_c, 4, 52, 88
8, 114836, Note_off_c, 4, 52, 0
8, 114840, Note_on_c, 4, 49, 88
8, 114956, Note_off_c, 4, 49, 0
8, 114960, Note_on_c, 4, 52, 88
8, 115076, Note_off_c, 4, 52, 0
8, 115080, Note_on_c, 4, 49, 88
8, 115196, Note_off_c, 4, 49, 0
8, 115200, Note_on_c, 4, 54, 88
8, 115434, Note_off_c, 4, 54, 0
8, 115440, Note_on_c, 4, 59, 88
8, 115556, Note_off_c, 4, 59, 0
8, 115560, Note_on_c, 4, 58, 88
8, 115676, Note_off_c, 4, 58, 0
8, 115680, Note_on_c, 4, 59, 88
8, 115796, Note_off_c, 4, 59, 0
8, 115800, Note_on_c, 4, 61, 88
8, 115916, Note_off_c, 4, 61, 0
8, 115920, Note_on_c, 4, 54, 88
8, 116154, Note_off_c, 4, 54, 0
8, 116160, Note_on_c, 4, 59, 88
8, 116276, Note_off_c, 4, 59, 0
8, 116280, Note_on_c, 4, 58, 88
8, 116514, Note_off_c, 4, 58, 0
8, 116520, Note_on_c, 4, 59, 88
8, 116636, Note_off_c, 4, 59, 0
8, 116640, Note_on_c, 4, 47, 88
8, 116874, Note_off_c, 4, 47, 0
8, 116880, Note_on_c, 4, 64, 88
8, 116996, Note_off_c, 4, 64, 0
8, 117000, Note_on_c, 4, 63, 88
8, 117116, Note_off_c, 4, 63, 0
8, 117120, Note_on_c, 4, 64, 88
8, 117236, Note_off_c, 4, 64, 0
8, 117240, Note_on_c, 4, 66, 88
8, 117356, Note_off_c, 4, 66, 0
8, 117360, Note_on_c, 4, 59, 88
8, 117594, Note_off_c, 4, 59, 0
8, 117600, Note_on_c, 4, 64, 88
8, 117716, Note_off_c, 4, 64, 0
8, 117720, Note_on_c, 4, 63, 88
8, 117954, Note_off_c, 4, 63, 0
8, 117960, Note_on_c, 4, 64, 88
8, 118076, Note_off_c, 4, 64, 0
8, 118080, Note_on_c, 4, 52, 88
8, 118138, Note_off_c, 4, 52, 0
8, 118140, Note_on_c, 4, 55, 88
8, 118198, Note_off_c, 4, 55, 0
8, 118200, Note_on_c, 4, 57, 88
8, 118258, Note_off_c, 4, 57, 0
8, 118260, Note_on_c, 4, 59, 88
8, 118318, Note_off_c, 4, 59, 0
8, 118320, Note_on_c, 4, 61, 88
8, 118378, Note_off_c, 4, 61, 0
8, 118380, Note_on_c, 4, 63, 88
8, 118438, Note_off_c, 4, 63, 0
8, 118440, Note_on_c, 4, 64, 88
8, 118556, Note_off_c, 4, 64, 0
8, 118560, Note_on_c, 4, 67, 88
8, 118676, Note_off_c, 4, 67, 0
8, 118680, Note_on_c, 4, 64, 88
8, 118796, Note_off_c, 4, 64, 0
8, 118800, Note_on_c, 4, 61, 88
8, 118916, Note_off_c, 4, 61, 0
8, 118920, Note_on_c, 4, 64, 88
8, 119036, Note_off_c, 4, 64, 0
8, 119040, Note_on_c, 4, 61, 88
8, 119156, Note_off_c, 4, 61, 0
8, 119160, Note_on_c, 4, 57, 88
8, 119276, Note_off_c, 4, 57, 0
8, 119280, Note_on_c, 4, 61, 88
8, 119396, Note_off_c, 4, 61, 0
8, 119400, Note_on_c, 4, 57, 88
8, 119516, Note_off_c, 4, 57, 0
8, 119520, Note_on_c, 4, 50, 88
8, 119578, Note_off_c, 4, 50, 0
8, 119580, Note_on_c, 4, 54, 88
8, 119638, Note_off_c, 4, 54, 0
8, 119640, Note_on_c, 4, 55, 88
8, 119698, Note_off_c, 4, 55, 0
8, 119700, Note_on_c, 4, 57, 88
8, 119758, Note_off_c, 4, 57, 0
8, 119760, Note_on_c, 4, 59, 88
8, 119818, Note_off_c, 4, 59, 0
8, 119820, Note_on_c, 4, 61, 88
8, 119878, Note_off_c, 4, 61, 0
8, 119880, Note_on_c, 4, 62, 88
8, 120350, Note_off_c, 4, 62, 0
8, 120360, Note_on_c, 4, 61, 88
8, 120476, Note_off_c, 4, 61, 0
8, 120480, Note_on_c, 4, 59, 88
8, 120596, Note_off_c, 4, 59, 0
8, 120600, Note_on_c, 4, 58, 88
8, 120658, Note_off_c, 4, 58, 0
8, 120660, Note_on_c, 4, 61, 88
8, 120718, Note_off_c, 4, 61, 0
8, 120720, Note_on_c, 4, 59, 88
8, 120778, Note_off_c, 4, 59, 0
8, 120780, Note_on_c, 4, 58, 88
8, 120838, Note_off_c, 4, 58, 0
8, 120840, Note_on_c, 4, 56, 88
8, 120898, Note_off_c, 4, 56, 0
8, 120900, Note_on_c, 4, 54, 88
8, 120958, Note_off_c, 4, 54, 0
8, 120960, Note_on_c, 4, 59, 88
8, 121076, Note_off_c, 4, 59, 0
8, 121080, Note_on_c, 4, 54, 88
8, 121196, Note_off_c, 4, 54, 0
8, 121200, Note_on_c, 4, 50, 88
8, 121316, Note_off_c, 4, 50, 0
8, 121320, Note_on_c, 4, 47, 88
8, 121436, Note_off_c, 4, 47, 0
8, 121440, Note_on_c, 4, 49, 88
8, 121498, Note_off_c, 4, 49, 0
8, 121500, Note_on_c, 4, 50, 88
8, 121558, Note_off_c, 4, 50, 0
8, 121560, Note_on_c, 4, 52, 88
8, 121618, Note_off_c, 4, 52, 0
8, 121620, Note_on_c, 4, 54, 88
8, 121678, Note_off_c, 4, 54, 0
8, 121680, Note_on_c, 4, 55, 88
8, 121738, Note_off_c, 4, 55, 0
8, 121740, Note_on_c, 4, 57, 88
8, 121798, Note_off_c, 4, 57, 0
8, 121800, Note_on_c, 4, 59, 88
8, 121858, Note_off_c, 4, 59, 0
8, 121860, Note_on_c, 4, 57, 88
8, 121918, Note_off_c, 4, 57, 0
8, 121920, Note_on_c, 4, 55, 88
8, 121978, Note_off_c, 4, 55, 0
8, 121980, Note_on_c, 4, 54, 88
8, 122038, Note_off_c, 4, 54, 0
8, 122040, Note_on_c, 4, 52, 88
8, 122098, Note_off_c, 4, 52, 0
8, 122100, Note_on_c, 4, 54, 88
8, 122158, Note_off_c, 4, 54, 0
8, 122160, Note_on_c, 4, 55, 88
8, 122218, Note_off_c, 4, 55, 0
8, 122220, Note_on_c, 4, 54, 88
8, 122278, Note_off_c, 4, 54, 0
8, 122280, Note_on_c, 4, 55, 88
8, 122338, Note_off_c, 4, 55, 0
8, 122340, Note_on_c, 4, 52, 88
8, 122398, Note_off_c, 4, 52, 0
8, 122400, Note_on_c, 4, 54, 88
8, 122634, Note_off_c, 4, 54, 0
8, 122640, Note_on_c, 4, 42, 88
8, 122753, Note_off_c, 4, 42, 0
8, 122760, Note_on_c, 4, 42, 88
8, 122993, Note_off_c, 4, 42, 0
8, 123000, Note_on_c, 4, 42, 88
8, 123113, Note_off_c, 4, 42, 0
8, 123120, Note_on_c, 4, 42, 88
8, 123473, Note_off_c, 4, 42, 0
8, 123660, Note_on_c, 4, 49, 88
8, 123718, Note_off_c, 4, 49, 0
8, 123720, Note_on_c, 4, 50, 88
8, 123778, Note_off_c, 4, 50, 0
8, 123780, Note_on_c, 4, 52, 88
8, 123838, Note_off_c, 4, 52, 0
8, 123840, Note_on_c, 4, 54, 88
8, 124074, Note_off_c, 4, 54, 0
8, 124080, Note_on_c, 4, 42, 88
8, 124193, Note_off_c, 4, 42, 0
8, 124200, Note_on_c, 4, 42, 88
8, 124433, Note_off_c, 4, 42, 0
8, 124440, Note_on_c, 4, 42, 88
8, 124553, Note_off_c, 4, 42, 0
8, 124560, Note_on_c, 4, 42, 88
8, 124913, Note_off_c, 4, 42, 0
8, 125460, Note_on_c, 4, 50, 88
8, 125518, Note_off_c, 4, 50, 0
8, 125520, Note_on_c, 4, 52, 88
8, 125578, Note_off_c, 4, 52, 0
8, 125580, Note_on_c, 4, 54, 88
8, 125638, Note_off_c, 4, 54, 0
8, 125640, Note_on_c, 4, 55, 88
8, 125756, Note_off_c, 4, 55, 0
8, 125760, Note_on_c, 4, 54, 88
8, 125876, Note_off_c, 4, 54, 0
8, 125880, Note_on_c, 4, 52, 88
8, 125996, Note_off_c, 4, 52, 0
8, 126000, Note_on_c, 4, 54, 88
8, 126353, Note_off_c, 4, 54, 0
8, 126360, Note_on_c, 4, 42, 88
8, 126713, Note_off_c, 4, 42, 0
8, 126720, Note_on_c, 4, 47, 88
8, 126954, Note_off_c, 4, 47, 0
8, 126960, Note_on_c, 4, 54, 88
8, 127076, Note_off_c, 4, 54, 0
8, 127080, Note_on_c, 4, 59, 88
8, 127138, Note_off_c, 4, 59, 0
8, 127140, Note_on_c, 4, 57, 88
8, 127198, Note_off_c, 4, 57, 0
8, 127200, Note_on_c, 4, 59, 88
8, 127553, Note_off_c, 4, 59, 0
8, 127560, Note_on_c, 4, 60, 88
8, 127618, Note_off_c, 4, 60, 0
8, 127620, Note_on_c, 4, 59, 88
8, 127678, Note_off_c, 4, 59, 0
8, 127680, Note_on_c, 4, 57, 88
8, 127738, Note_off_c, 4, 57, 0
8, 127740, Note_on_c, 4, 55, 88
8, 127798, Note_off_c, 4, 55, 0
8, 127800, Note_on_c, 4, 54, 88
8, 127916, Note_off_c, 4, 54, 0
8, 127920, Note_on_c, 4, 55, 88
8, 127978, Note_off_c, 4, 55, 0
8, 127980, Note_on_c, 4, 54, 88
8, 128038, Note_off_c, 4, 54, 0
8, 128040, Note_on_c, 4, 52, 88
8, 128098, Note_off_c, 4, 52, 0
8, 128100, Note_on_c, 4, 50, 88
8, 128158, Note_off_c, 4, 50, 0
8, 128160, Note_on_c, 4, 55, 88
8, 128218, Note_off_c, 4, 55, 0
8, 128220, Note_on_c, 4, 57, 88
8, 128278, Note_off_c, 4, 57, 0
8, 128280, Note_on_c, 4, 59, 88
8, 128338, Note_off_c, 4, 59, 0
8, 128340, Note_on_c, 4, 55, 88
8, 128398, Note_off_c, 4, 55, 0
8, 128400, Note_on_c, 4, 54, 88
8, 128458, Note_off_c, 4, 54, 0
8, 128460, Note_on_c, 4, 55, 88
8, 128518, Note_off_c, 4, 55, 0
8, 128520, Note_on_c, 4, 49, 88
8, 128636, Note_off_c, 4, 49, 0
8, 128640, Note_on_c, 4, 52, 88
8, 128756, Note_off_c, 4, 52, 0
8, 128760, Note_on_c, 4, 49, 88
8, 128876, Note_off_c, 4, 49, 0
8, 128880, Note_on_c, 4, 54, 88
8, 128938, Note_off_c, 4, 54, 0
8, 128940, Note_on_c, 4, 55, 88
8, 128998, Note_off_c, 4, 55, 0
8, 129000, Note_on_c, 4, 57, 88
8, 129058, Note_off_c, 4, 57, 0
8, 129060, Note_on_c, 4, 54, 88
8, 129118, Note_off_c, 4, 54, 0
8, 129120, Note_on_c, 4, 52, 88
8, 129178, Note_off_c, 4, 52, 0
8, 129180, Note_on_c, 4, 54, 88
8, 129238, Note_off_c, 4, 54, 0
8, 129240, Note_on_c, 4, 47, 88
8, 129356, Note_off_c, 4, 47, 0
8, 129360, Note_on_c, 4, 50, 88
8, 129476, Note_off_c, 4, 50, 0
8, 129480, Note_on_c, 4, 47, 88
8, 129596, Note_off_c, 4, 47, 0
8, 129600, Note_on_c, 4, 52, 88
8, 129658, Note_off_c, 4, 52, 0
8, 129660, Note_on_c, 4, 54, 88
8, 129718, Note_off_c, 4, 54, 0
8, 129720, Note_on_c, 4, 55, 88
8, 129778, Note_off_c, 4, 55, 0
8, 129780, Note_on_c, 4, 52, 88
8, 129838, Note_off_c, 4, 52, 0
8, 129840, Note_on_c, 4, 50, 88
8, 129898, Note_off_c, 4, 50, 0
8, 129900, Note_on_c, 4, 52, 88
8, 129958, Note_off_c, 4, 52, 0
8, 129960, Note_on_c, 4, 45, 88
8, 130076, Note_off_c, 4, 45, 0
8, 130080, Note_on_c, 4, 49, 88
8, 130196, Note_off_c, 4, 49, 0
8, 130200, Note_on_c, 4, 45, 88
8, 130316, Note_off_c, 4, 45, 0
8, 130320, Note_on_c, 4, 50, 88
8, 130378, Note_off_c, 4, 50, 0
8, 130380, Note_on_c, 4, 52, 88
8, 130438, Note_off_c, 4, 52, 0
8, 130440, Note_on_c, 4, 54, 88
8, 130498, Note_off_c, 4, 54, 0
8, 130500, Note_on_c, 4, 50, 88
8, 130558, Note_off_c, 4, 50, 0
8, 130560, Note_on_c, 4, 49, 88
8, 130618, Note_off_c, 4, 49, 0
8, 130620, Note_on_c, 4, 50, 88
8, 130678, Note_off_c, 4, 50, 0
8, 130680, Note_on_c, 4, 47, 88
8, 130738, Note_off_c, 4, 47, 0
8, 130740, Note_on_c, 4, 48, 88
8, 130798, Note_off_c, 4, 48, 0
8, 130800, Note_on_c, 4, 50, 88
8, 130858, Note_off_c, 4, 50, 0
8, 130860, Note_on_c, 4, 47, 88
8, 130918, Note_off_c, 4, 47, 0
8, 130920, Note_on_c, 4, 45, 88
8, 130978, Note_off_c, 4, 45, 0
8, 130980, Note_on_c, 4, 47, 88
8, 131038, Note_off_c, 4, 47, 0
8, 131040, Note_on_c, 4, 43, 88
8, 131098, Note_off_c, 4, 43, 0
8, 131100, Note_on_c, 4, 45, 88
8, 131158, Note_off_c, 4, 45, 0
8, 131160, Note_on_c, 4, 47, 88
8, 131218, Note_off_c, 4, 47, 0
8, 131220, Note_on_c, 4, 45, 88
8, 131278, Note_off_c, 4, 45, 0
8, 131280, Note_on_c, 4, 43, 88
8, 131338, Note_off_c, 4, 43, 0
8, 131340, Note_on_c, 4, 42, 88
8, 131398, Note_off_c, 4, 42, 0
8, 131400, Note_on_c, 4, 40, 88
8, 131458, Note_off_c, 4, 40, 0
8, 131460, Note_on_c, 4, 42, 88
8, 131518, Note_off_c, 4, 42, 0
8, 131520, Note_on_c, 4, 43, 88
8, 131578, Note_off_c, 4, 43, 0
8, 131580, Note_on_c, 4, 42, 88
8, 131638, Note_off_c, 4, 42, 0
8, 131640, Note_on_c, 4, 40, 88
8, 131698, Note_off_c, 4, 40, 0
8, 131700, Note_on_c, 4, 38, 88
8, 131758, Note_off_c, 4, 38, 0
8, 131760, Note_on_c, 4, 45, 88
8, 132172, Note_off_c, 4, 45, 0
8, 132180, Note_on_c, 4, 47, 88
8, 132238, Note_off_c, 4, 47, 0
8, 132240, Note_on_c, 4, 49, 88
8, 132298, Note_off_c, 4, 49, 0
8, 132300, Note_on_c, 4, 50, 88
8, 132358, Note_off_c, 4, 50, 0
8, 132360, Note_on_c, 4, 52, 88
8, 132418, Note_off_c, 4, 52, 0
8, 132420, Note_on_c, 4, 46, 88
8, 132478, Note_off_c, 4, 46, 0
8, 132480, Note_on_c, 4, 47, 88
8, 132892, Note_off_c, 4, 47, 0
8, 132900, Note_on_c, 4, 45, 88
8, 132958, Note_off_c, 4, 45, 0
8, 132960, Note_on_c, 4, 47, 88
8, 133018, Note_off_c, 4, 47, 0
8, 133020, Note_on_c, 4, 50, 88
8, 133078, Note_off_c, 4, 50, 0
8, 133080, Note_on_c, 4, 49, 88
8, 133138, Note_off_c, 4, 49, 0
8, 133140, Note_on_c, 4, 52, 88
8, 133198, Note_off_c, 4, 52, 0
8, 133200, Note_on_c, 4, 50, 88
8, 133612, Note_off_c, 4, 50, 0
8, 133620, Note_on_c, 4, 52, 88
8, 133678, Note_off_c, 4, 52, 0
8, 133680, Note_on_c, 4, 50, 88
8, 133738, Note_off_c, 4, 50, 0
8, 133740, Note_on_c, 4, 48, 88
8, 133798, Note_off_c, 4, 48, 0
8, 133800, Note_on_c, 4, 47, 88
8, 133858, Note_off_c, 4, 47, 0
8, 133860, Note_on_c, 4, 45, 88
8, 133918, Note_off_c, 4, 45, 0
8, 133920, Note_on_c, 4, 43, 88
8, 133978, Note_off_c, 4, 43, 0
8, 133980, Note_on_c, 4, 50, 88
8, 134038, Note_off_c, 4, 50, 0
8, 134040, Note_on_c, 4, 52, 88
8, 134098, Note_off_c, 4, 52, 0
8, 134100, Note_on_c, 4, 54, 88
8, 134158, Note_off_c, 4, 54, 0
8, 134160, Note_on_c, 4, 55, 88
8, 134218, Note_off_c, 4, 55, 0
8, 134220, Note_on_c, 4, 57, 88
8, 134278, Note_off_c, 4, 57, 0
8, 134280, Note_on_c, 4, 58, 88
8, 134692, Note_off_c, 4, 58, 0
8, 134700, Note_on_c, 4, 57, 88
8, 134758, Note_off_c, 4, 57, 0
8, 134760, Note_on_c, 4, 58, 88
8, 134818, Note_off_c, 4, 58, 0
8, 134820, Note_on_c, 4, 55, 88
8, 134878, Note_off_c, 4, 55, 0
8, 134880, Note_on_c, 4, 52, 88
8, 134938, Note_off_c, 4, 52, 0
8, 134940, Note_on_c, 4, 55, 88
8, 134998, Note_off_c, 4, 55, 0
8, 135000, Note_on_c, 4, 57, 88
8, 135058, Note_off_c, 4, 57, 0
8, 135060, Note_on_c, 4, 55, 88
8, 135118, Note_off_c, 4, 55, 0
8, 135120, Note_on_c, 4, 57, 88
8, 135178, Note_off_c, 4, 57, 0
8, 135180, Note_on_c, 4, 53, 88
8, 135238, Note_off_c, 4, 53, 0
8, 135240, Note_on_c, 4, 50, 88
8, 135298, Note_off_c, 4, 50, 0
8, 135300, Note_on_c, 4, 53, 88
8, 135358, Note_off_c, 4, 53, 0
8, 135360, Note_on_c, 4, 55, 88
8, 135418, Note_off_c, 4, 55, 0
8, 135420, Note_on_c, 4, 53, 88
8, 135478, Note_off_c, 4, 53, 0
8, 135480, Note_on_c, 4, 55, 88
8, 135538, Note_off_c, 4, 55, 0
8, 135540, Note_on_c, 4, 52, 88
8, 135598, Note_off_c, 4, 52, 0
8, 135600, Note_on_c, 4, 49, 88
8, 135658, Note_off_c, 4, 49, 0
8, 135660, Note_on_c, 4, 52, 88
8, 135718, Note_off_c, 4, 52, 0
8, 135720, Note_on_c, 4, 53, 88
8, 135778, Note_off_c, 4, 53, 0
8, 135780, Note_on_c, 4, 52, 88
8, 135838, Note_off_c, 4, 52, 0
8, 135840, Note_on_c, 4, 53, 88
8, 135898, Note_off_c, 4, 53, 0
8, 135900, Note_on_c, 4, 50, 88
8, 135958, Note_off_c, 4, 50, 0
8, 135960, Note_on_c, 4, 47, 88
8, 136018, Note_off_c, 4, 47, 0
8, 136020, Note_on_c, 4, 50, 88
8, 136078, Note_off_c, 4, 50, 0
8, 136080, Note_on_c, 4, 52, 88
8, 136138, Note_off_c, 4, 52, 0
8, 136140, Note_on_c, 4, 50, 88
8, 136198, Note_off_c, 4, 50, 0
8, 136200, Note_on_c, 4, 52, 88
8, 136258, Note_off_c, 4, 52, 0
8, 136260, Note_on_c, 4, 49, 88
8, 136318, Note_off_c, 4, 49, 0
8, 136320, Note_on_c, 4, 45, 88
8, 136378, Note_off_c, 4, 45, 0
8, 136380, Note_on_c, 4, 49, 88
8, 136438, Note_off_c, 4, 49, 0
8, 136440, Note_on_c, 4, 50, 88
8, 136498, Note_off_c, 4, 50, 0
8, 136500, Note_on_c, 4, 49, 88
8, 136558, Note_off_c, 4, 49, 0
8, 136560, Note_on_c, 4, 50, 88
8, 136618, Note_off_c, 4, 50, 0
8, 136620, Note_on_c, 4, 53, 88
8, 136678, Note_off_c, 4, 53, 0
8, 136680, Note_on_c, 4, 46, 88
8, 136738, Note_off_c, 4, 46, 0
8, 136740, Note_on_c, 4, 50, 88
8, 136798, Note_off_c, 4, 50, 0
8, 136800, Note_on_c, 4, 45, 88
8, 136865, Note_off_c, 4, 45, 0
8, 136868, Note_on_c, 4, 44, 88
8, 136904, Note_off_c, 4, 44, 0
8, 136905, Note_on_c, 4, 45, 88
8, 136941, Note_off_c, 4, 45, 0
8, 136943, Note_on_c, 4, 44, 88
8, 136979, Note_off_c, 4, 44, 0
8, 136980, Note_on_c, 4, 45, 88
8, 137016, Note_off_c, 4, 45, 0
8, 137018, Note_on_c, 4, 44, 88
8, 137054, Note_off_c, 4, 44, 0
8, 137055, Note_on_c, 4, 45, 88
8, 137091, Note_off_c, 4, 45, 0
8, 137093, Note_on_c, 4, 44, 88
8, 137129, Note_off_c, 4, 44, 0
8, 137130, Note_on_c, 4, 45, 88
8, 137166, Note_off_c, 4, 45, 0
8, 137168, Note_on_c, 4, 44, 88
8, 137197, Note_off_c, 4, 44, 0
8, 137198, Note_on_c, 4, 45, 88
8, 137227, Note_off_c, 4, 45, 0
8, 137228, Note_on_c, 4, 44, 88
8, 137257, Note_off_c, 4, 44, 0
8, 137258, Note_on_c, 4, 45, 88
8, 137287, Note_off_c, 4, 45, 0
8, 137288, Note_on_c, 4, 44, 88
8, 137317, Note_off_c, 4, 44, 0
8, 137318, Note_on_c, 4, 45, 88
8, 137347, Note_off_c, 4, 45, 0
8, 137348, Note_on_c, 4, 44, 88
8, 137377, Note_off_c, 4, 44, 0
8, 137378, Note_on_c, 4, 45, 88
8, 137407, Note_off_c, 4, 45, 0
8, 137408, Note_on_c, 4, 44, 88
8, 137437, Note_off_c, 4, 44, 0
8, 137438, Note_on_c, 4, 45, 88
8, 137467, Note_off_c, 4, 45, 0
8, 137468, Note_on_c, 4, 44, 88
8, 137518, Note_off_c, 4, 44, 0
8, 137520, Note_on_c, 4, 45, 88
8, 137873, Note_off_c, 4, 45, 0
8, 137940, Note_on_c, 4, 47, 88
8, 137998, Note_off_c, 4, 47, 0
8, 138000, Note_on_c, 4, 45, 88
8, 138058, Note_off_c, 4, 45, 0
8, 138060, Note_on_c, 4, 43, 88
8, 138118, Note_off_c, 4, 43, 0
8, 138120, Note_on_c, 4, 42, 88
8, 138178, Note_off_c, 4, 42, 0
8, 138180, Note_on_c, 4, 40, 88
8, 138238, Note_off_c, 4, 40, 0
8, 138240, Note_on_c, 4, 38, 88
8, 138593, Note_off_c, 4, 38, 0
8, 140040, Note_on_c, 4, 50, 88
8, 140393, Note_off_c, 4, 50, 0
8, 140400, Note_on_c, 4, 57, 88
8, 140753, Note_off_c, 4, 57, 0
8, 140760, Note_on_c, 4, 45, 88
8, 141113, Note_off_c, 4, 45, 0
8, 141120, Note_on_c, 4, 50, 88
8, 141473, Note_off_c, 4, 50, 0
8, 141600, Note_on_c, 4, 60, 88
8, 141658, Note_off_c, 4, 60, 0
8, 141660, Note_on_c, 4, 59, 88
8, 141718, Note_off_c, 4, 59, 0
8, 141720, Note_on_c, 4, 57, 88
8, 141778, Note_off_c, 4, 57, 0
8, 141780, Note_on_c, 4, 55, 88
8, 141838, Note_off_c, 4, 55, 0
8, 141840, Note_on_c, 4, 54, 88
8, 141956, Note_off_c, 4, 54, 0
8, 141960, Note_on_c, 4, 57, 88
8, 142076, Note_off_c, 4, 57, 0
8, 142080, Note_on_c, 4, 54, 88
8, 142196, Note_off_c, 4, 54, 0
8, 142200, Note_on_c, 4, 50, 88
8, 142316, Note_off_c, 4, 50, 0
8, 142320, Note_on_c, 4, 54, 88
8, 142436, Note_off_c, 4, 54, 0
8, 142440, Note_on_c, 4, 50, 88
8, 142556, Note_off_c, 4, 50, 0
8, 142560, Note_on_c, 4, 45, 88
8, 142676, Note_off_c, 4, 45, 0
8, 142680, Note_on_c, 4, 50, 88
8, 142796, Note_off_c, 4, 50, 0
8, 142800, Note_on_c, 4, 45, 88
8, 142916, Note_off_c, 4, 45, 0
8, 142920, Note_on_c, 4, 42, 88
8, 143036, Note_off_c, 4, 42, 0
8, 143040, Note_on_c, 4, 45, 88
8, 143156, Note_off_c, 4, 45, 0
8, 143160, Note_on_c, 4, 42, 88
8, 143276, Note_off_c, 4, 42, 0
8, 143280, Note_on_c, 4, 38, 88
8, 143633, Note_off_c, 4, 38, 0
8, 143640, Note_on_c, 4, 50, 88
8, 143993, Note_off_c, 4, 50, 0
8, 144000, Note_on_c, 4, 43, 88
8, 144234, Note_off_c, 4, 43, 0
8, 144240, Note_on_c, 4, 50, 88
8, 144356, Note_off_c, 4, 50, 0
8, 144360, Note_on_c, 4, 55, 88
8, 144593, Note_off_c, 4, 55, 0
8, 144600, Note_on_c, 4, 55, 88
8, 144713, Note_off_c, 4, 55, 0
8, 144720, Note_on_c, 4, 55, 88
8, 145073, Note_off_c, 4, 55, 0
8, 145200, Note_on_c, 4, 45, 88
8, 145258, Note_off_c, 4, 45, 0
8, 145260, Note_on_c, 4, 43, 88
8, 145318, Note_off_c, 4, 43, 0
8, 145320, Note_on_c, 4, 42, 88
8, 145378, Note_off_c, 4, 42, 0
8, 145380, Note_on_c, 4, 40, 88
8, 145438, Note_off_c, 4, 40, 0
8, 145440, Note_on_c, 4, 42, 88
8, 145674, Note_off_c, 4, 42, 0
8, 145680, Note_on_c, 4, 54, 88
8, 145793, Note_off_c, 4, 54, 0
8, 145800, Note_on_c, 4, 54, 88
8, 146033, Note_off_c, 4, 54, 0
8, 146040, Note_on_c, 4, 54, 88
8, 146153, Note_off_c, 4, 54, 0
8, 146160, Note_on_c, 4, 54, 88
8, 146513, Note_off_c, 4, 54, 0
8, 146640, Note_on_c, 4, 43, 88
8, 146698, Note_off_c, 4, 43, 0
8, 146700, Note_on_c, 4, 42, 88
8, 146758, Note_off_c, 4, 42, 0
8, 146760, Note_on_c, 4, 40, 88
8, 146818, Note_off_c, 4, 40, 0
8, 146820, Note_on_c, 4, 38, 88
8, 146878, Note_off_c, 4, 38, 0
8, 146880, Note_on_c, 4, 40, 88
8, 146996, Note_off_c, 4, 40, 0
8, 147000, Note_on_c, 4, 59, 88
8, 147058, Note_off_c, 4, 59, 0
8, 147060, Note_on_c, 4, 57, 88
8, 147118, Note_off_c, 4, 57, 0
8, 147120, Note_on_c, 4, 55, 88
8, 147178, Note_off_c, 4, 55, 0
8, 147180, Note_on_c, 4, 54, 88
8, 147238, Note_off_c, 4, 54, 0
8, 147240, Note_on_c, 4, 52, 88
8, 147356, Note_off_c, 4, 52, 0
8, 147360, Note_on_c, 4, 55, 88
8, 147476, Note_off_c, 4, 55, 0
8, 147480, Note_on_c, 4, 52, 88
8, 147596, Note_off_c, 4, 52, 0
8, 147600, Note_on_c, 4, 49, 88
8, 147716, Note_off_c, 4, 49, 0
8, 147720, Note_on_c, 4, 52, 88
8, 147836, Note_off_c, 4, 52, 0
8, 147840, Note_on_c, 4, 49, 88
8, 147956, Note_off_c, 4, 49, 0
8, 147960, Note_on_c, 4, 45, 88
8, 148076, Note_off_c, 4, 45, 0
8, 148080, Note_on_c, 4, 49, 88
8, 148196, Note_off_c, 4, 49, 0
8, 148200, Note_on_c, 4, 45, 88
8, 148316, Note_off_c, 4, 45, 0
8, 148320, Note_on_c, 4, 50, 88
8, 148436, Note_off_c, 4, 50, 0
8, 148440, Note_on_c, 4, 54, 88
8, 148556, Note_off_c, 4, 54, 0
8, 148560, Note_on_c, 4, 50, 88
8, 148676, Note_off_c, 4, 50, 0
8, 148680, Note_on_c, 4, 47, 88
8, 148796, Note_off_c, 4, 47, 0
8, 148800, Note_on_c, 4, 50, 88
8, 148916, Note_off_c, 4, 50, 0
8, 148920, Note_on_c, 4, 47, 88
8, 149036, Note_off_c, 4, 47, 0
8, 149040, Note_on_c, 4, 52, 88
8, 149156, Note_off_c, 4, 52, 0
8, 149160, Note_on_c, 4, 55, 88
8, 149276, Note_off_c, 4, 55, 0
8, 149280, Note_on_c, 4, 52, 88
8, 149396, Note_off_c, 4, 52, 0
8, 149400, Note_on_c, 4, 49, 88
8, 149516, Note_off_c, 4, 49, 0
8, 149520, Note_on_c, 4, 52, 88
8, 149636, Note_off_c, 4, 52, 0
8, 149640, Note_on_c, 4, 49, 88
8, 149756, Note_off_c, 4, 49, 0
8, 149760, Note_on_c, 4, 54, 88
8, 149876, Note_off_c, 4, 54, 0
8, 149880, Note_on_c, 4, 50, 88
8, 149938, Note_off_c, 4, 50, 0
8, 149940, Note_on_c, 4, 52, 88
8, 149998, Note_off_c, 4, 52, 0
8, 150000, Note_on_c, 4, 54, 88
8, 150058, Note_off_c, 4, 54, 0
8, 150060, Note_on_c, 4, 55, 88
8, 150118, Note_off_c, 4, 55, 0
8, 150120, Note_on_c, 4, 57, 88
8, 150236, Note_off_c, 4, 57, 0
8, 150240, Note_on_c, 4, 55, 88
8, 150298, Note_off_c, 4, 55, 0
8, 150300, Note_on_c, 4, 54, 88
8, 150358, Note_off_c, 4, 54, 0
8, 150360, Note_on_c, 4, 52, 88
8, 150418, Note_off_c, 4, 52, 0
8, 150420, Note_on_c, 4, 50, 88
8, 150478, Note_off_c, 4, 50, 0
8, 150480, Note_on_c, 4, 55, 88
8, 150596, Note_off_c, 4, 55, 0
8, 150600, Note_on_c, 4, 52, 88
8, 150658, Note_off_c, 4, 52, 0
8, 150660, Note_on_c, 4, 54, 88
8, 150718, Note_off_c, 4, 54, 0
8, 150720, Note_on_c, 4, 55, 88
8, 150778, Note_off_c, 4, 55, 0
8, 150780, Note_on_c, 4, 57, 88
8, 150838, Note_off_c, 4, 57, 0
8, 150840, Note_on_c, 4, 59, 88
8, 150956, Note_off_c, 4, 59, 0
8, 150960, Note_on_c, 4, 57, 88
8, 151018, Note_off_c, 4, 57, 0
8, 151020, Note_on_c, 4, 55, 88
8, 151078, Note_off_c, 4, 55, 0
8, 151080, Note_on_c, 4, 54, 88
8, 151138, Note_off_c, 4, 54, 0
8, 151140, Note_on_c, 4, 52, 88
8, 151198, Note_off_c, 4, 52, 0
8, 151200, Note_on_c, 4, 57, 88
8, 151434, Note_off_c, 4, 57, 0
8, 151440, Note_on_c, 4, 45, 88
8, 151553, Note_off_c, 4, 45, 0
8, 151560, Note_on_c, 4, 45, 88
8, 151793, Note_off_c, 4, 45, 0
8, 151800, Note_on_c, 4, 45, 88
8, 151913, Note_off_c, 4, 45, 0
8, 151920, Note_on_c, 4, 45, 88
8, 152451, Note_off_c, 4, 45, 0
8, 152460, Note_on_c, 4, 52, 88
8, 152518, Note_off_c, 4, 52, 0
8, 152520, Note_on_c, 4, 54, 88
8, 152578, Note_off_c, 4, 54, 0
8, 152580, Note_on_c, 4, 55, 88
8, 152638, Note_off_c, 4, 55, 0
8, 152640, Note_on_c, 4, 57, 88
8, 152874, Note_off_c, 4, 57, 0
8, 152880, Note_on_c, 4, 45, 88
8, 152993, Note_off_c, 4, 45, 0
8, 153000, Note_on_c, 4, 45, 88
8, 153233, Note_off_c, 4, 45, 0
8, 153240, Note_on_c, 4, 45, 88
8, 153353, Note_off_c, 4, 45, 0
8, 153360, Note_on_c, 4, 45, 88
8, 153713, Note_off_c, 4, 45, 0
8, 154260, Note_on_c, 4, 42, 88
8, 154318, Note_off_c, 4, 42, 0
8, 154320, Note_on_c, 4, 43, 88
8, 154378, Note_off_c, 4, 43, 0
8, 154380, Note_on_c, 4, 45, 88
8, 154438, Note_off_c, 4, 45, 0
8, 154440, Note_on_c, 4, 47, 88
8, 154556, Note_off_c, 4, 47, 0
8, 154560, Note_on_c, 4, 45, 88
8, 154676, Note_off_c, 4, 45, 0
8, 154680, Note_on_c, 4, 43, 88
8, 154796, Note_off_c, 4, 43, 0
8, 154800, Note_on_c, 4, 45, 88
8, 155034, Note_off_c, 4, 45, 0
8, 155040, Note_on_c, 4, 57, 88
8, 155153, Note_off_c, 4, 57, 0
8, 155160, Note_on_c, 4, 57, 88
8, 155394, Note_off_c, 4, 57, 0
8, 155400, Note_on_c, 4, 45, 88
8, 155516, Note_off_c, 4, 45, 0
8, 155520, Note_on_c, 4, 50, 88
8, 155754, Note_off_c, 4, 50, 0
8, 155760, Note_on_c, 4, 57, 88
8, 155876, Note_off_c, 4, 57, 0
8, 155880, Note_on_c, 4, 62, 88
8, 156350, Note_off_c, 4, 62, 0
8, 156360, Note_on_c, 4, 64, 88
8, 156418, Note_off_c, 4, 64, 0
8, 156420, Note_on_c, 4, 62, 88
8, 156478, Note_off_c, 4, 62, 0
8, 156480, Note_on_c, 4, 61, 88
8, 156538, Note_off_c, 4, 61, 0
8, 156540, Note_on_c, 4, 59, 88
8, 156598, Note_off_c, 4, 59, 0
8, 156600, Note_on_c, 4, 58, 88
8, 156716, Note_off_c, 4, 58, 0
8, 156720, Note_on_c, 4, 59, 88
8, 156778, Note_off_c, 4, 59, 0
8, 156780, Note_on_c, 4, 58, 88
8, 156838, Note_off_c, 4, 58, 0
8, 156840, Note_on_c, 4, 56, 88
8, 156898, Note_off_c, 4, 56, 0
8, 156900, Note_on_c, 4, 54, 88
8, 156958, Note_off_c, 4, 54, 0
8, 156960, Note_on_c, 4, 59, 88
8, 157194, Note_off_c, 4, 59, 0
8, 157200, Note_on_c, 4, 47, 88
8, 157316, Note_off_c, 4, 47, 0
8, 157320, Note_on_c, 4, 59, 88
8, 157790, Note_off_c, 4, 59, 0
8, 157800, Note_on_c, 4, 60, 88
8, 157858, Note_off_c, 4, 60, 0
8, 157860, Note_on_c, 4, 59, 88
8, 157918, Note_off_c, 4, 59, 0
8, 157920, Note_on_c, 4, 57, 88
8, 157978, Note_off_c, 4, 57, 0
8, 157980, Note_on_c, 4, 55, 88
8, 158038, Note_off_c, 4, 55, 0
8, 158040, Note_on_c, 4, 54, 88
8, 158156, Note_off_c, 4, 54, 0
8, 158160, Note_on_c, 4, 55, 88
8, 158218, Note_off_c, 4, 55, 0
8, 158220, Note_on_c, 4, 54, 88
8, 158278, Note_off_c, 4, 54, 0
8, 158280, Note_on_c, 4, 52, 88
8, 158338, Note_off_c, 4, 52, 0
8, 158340, Note_on_c, 4, 50, 88
8, 158398, Note_off_c, 4, 50, 0
8, 158400, Note_on_c, 4, 55, 88
8, 158634, Note_off_c, 4, 55, 0
8, 158640, Note_on_c, 4, 43, 88
8, 158756, Note_off_c, 4, 43, 0
8, 158760, Note_on_c, 4, 55, 88
8, 159230, Note_off_c, 4, 55, 0
8, 159240, Note_on_c, 4, 57, 88
8, 159298, Note_off_c, 4, 57, 0
8, 159300, Note_on_c, 4, 55, 88
8, 159358, Note_off_c, 4, 55, 0
8, 159360, Note_on_c, 4, 54, 88
8, 159418, Note_off_c, 4, 54, 0
8, 159420, Note_on_c, 4, 52, 88
8, 159478, Note_off_c, 4, 52, 0
8, 159480, Note_on_c, 4, 50, 88
8, 159596, Note_off_c, 4, 50, 0
8, 159600, Note_on_c, 4, 52, 88
8, 159658, Note_off_c, 4, 52, 0
8, 159660, Note_on_c, 4, 54, 88
8, 159718, Note_off_c, 4, 54, 0
8, 159720, Note_on_c, 4, 55, 88
8, 159778, Note_off_c, 4, 55, 0
8, 159780, Note_on_c, 4, 57, 88
8, 159838, Note_off_c, 4, 57, 0
8, 159840, Note_on_c, 4, 59, 88
8, 159956, Note_off_c, 4, 59, 0
8, 159960, Note_on_c, 4, 57, 88
8, 160076, Note_off_c, 4, 57, 0
8, 160080, Note_on_c, 4, 55, 88
8, 160196, Note_off_c, 4, 55, 0
8, 160200, Note_on_c, 4, 57, 88
8, 160434, Note_off_c, 4, 57, 0
8, 160440, Note_on_c, 4, 45, 88
8, 160556, Note_off_c, 4, 45, 0
8, 160560, Note_on_c, 4, 38, 88
8, 161268, Note_off_c, 4, 38, 0
8, 161268, End_track
0, 0, End_of_file
