0, 0, Header, 1, 5, 240
1, 0, Start_track
1, 0, Time_signature, 12, 4, 24, 8
1, 0, Tempo, 714285
1, 0, SMPTE_offset, 64, 0, 0, 0, 93
1, 0, End_track
2, 0, Start_track
2, 0, Title_t, "(C) & (P) 1993"
2, 127, End_track
3, 0, Start_track
3, 0, Title_t, "CCARH,Stanford"
3, 0, End_track
4, 0, Start_track
4, 0, Title_t, "Track 1"
4, 0, Program_c, 0, 6
4, 0, Note_on_c, 0, 66, 88
4, 58, Note_off_c, 0, 66, 0
4, 60, Note_on_c, 0, 70, 88
4, 118, Note_off_c, 0, 70, 0
4, 120, Note_on_c, 0, 73, 88
4, 178, Note_off_c, 0, 73, 0
4, 180, Note_on_c, 0, 70, 88
4, 238, Note_off_c, 0, 70, 0
4, 240, Note_on_c, 0, 66, 88
4, 298, Note_off_c, 0, 66, 0
4, 300, Note_on_c, 0, 73, 88
4, 339, Note_off_c, 0, 73, 0
4, 360, Note_on_c, 0, 73, 88
4, 778, Note_off_c, 0, 73, 0
4, 780, Note_on_c, 0, 70, 88
4, 838, Note_off_c, 0, 70, 0
4, 840, Note_on_c, 0, 71, 88
4, 956, Note_off_c, 0, 71, 0
4, 960, Note_on_c, 0, 73, 88
4, 1018, Note_off_c, 0, 73, 0
4, 1020, Note_on_c, 0, 70, 88
4, 1136, Note_off_c, 0, 70, 0
4, 1140, Note_on_c, 0, 75, 88
4, 1198, Note_off_c, 0, 75, 0
4, 1200, Note_on_c, 0, 68, 88
4, 1316, Note_off_c, 0, 68, 0
4, 1320, Note_on_c, 0, 70, 88
4, 1378, Note_off_c, 0, 70, 0
4, 1380, Note_on_c, 0, 66, 88
4, 1498, Note_off_c, 0, 66, 0
4, 1500, Note_on_c, 0, 71, 88
4, 1558, Note_off_c, 0, 71, 0
4, 1560, Note_on_c, 0, 65, 88
4, 1676, Note_off_c, 0, 65, 0
4, 1680, Note_on_c, 0, 71, 88
4, 1738, Note_off_c, 0, 71, 0
4, 1740, Note_on_c, 0, 63, 88
4, 1856, Note_off_c, 0, 63, 0
4, 1860, Note_on_c, 0, 71, 88
4, 1918, Note_off_c, 0, 71, 0
4, 1920, Note_on_c, 0, 61, 88
4, 1978, Note_off_c, 0, 61, 0
4, 1980, Note_on_c, 0, 65, 88
4, 2038, Note_off_c, 0, 65, 0
4, 2040, Note_on_c, 0, 68, 88
4, 2098, Note_off_c, 0, 68, 0
4, 2100, Note_on_c, 0, 71, 88
4, 2158, Note_off_c, 0, 71, 0
4, 2160, Note_on_c, 0, 70, 88
4, 2218, Note_off_c, 0, 70, 0
4, 2220, Note_on_c, 0, 66, 88
4, 2278, Note_off_c, 0, 66, 0
4, 2280, Note_on_c, 0, 72, 88
4, 2396, Note_off_c, 0, 72, 0
4, 2400, Note_on_c, 0, 66, 88
4, 2458, Note_off_c, 0, 66, 0
4, 2460, Note_on_c, 0, 73, 88
4, 2576, Note_off_c, 0, 73, 0
4, 2580, Note_on_c, 0, 66, 88
4, 2638, Note_off_c, 0, 66, 0
4, 2640, Note_on_c, 0, 75, 88
4, 2756, Note_off_c, 0, 75, 0
4, 2760, Note_on_c, 0, 68, 88
4, 2818, Note_off_c, 0, 68, 0
4, 2820, Note_on_c, 0, 77, 88
4, 2938, Note_off_c, 0, 77, 0
4, 2940, Note_on_c, 0, 80, 88
4, 2998, Note_off_c, 0, 80, 0
4, 3000, Note_on_c, 0, 73, 88
4, 3116, Note_off_c, 0, 73, 0
4, 3120, Note_on_c, 0, 75, 88
4, 3178, Note_off_c, 0, 75, 0
4, 3180, Note_on_c, 0, 72, 88
4, 3238, Note_off_c, 0, 72, 0
4, 3240, Note_on_c, 0, 73, 88
4, 3298, Note_off_c, 0, 73, 0
4, 3300, Note_on_c, 0, 77, 88
4, 3358, Note_off_c, 0, 77, 0
4, 3360, Note_on_c, 0, 73, 88
4, 3399, Note_off_c, 0, 73, 0
4, 3420, Note_on_c, 0, 73, 88
4, 3478, Note_off_c, 0, 73, 0
4, 3480, Note_on_c, 0, 77, 88
4, 3509, Note_off_c, 0, 77, 0
4, 3510, Note_on_c, 0, 75, 88
4, 3539, Note_off_c, 0, 75, 0
4, 3540, Note_on_c, 0, 73, 88
4, 3658, Note_off_c, 0, 73, 0
4, 3660, Note_on_c, 0, 82, 88
4, 3718, Note_off_c, 0, 82, 0
4, 3720, Note_on_c, 0, 73, 88
4, 3836, Note_off_c, 0, 73, 0
4, 3840, Note_on_c, 0, 75, 88
4, 3898, Note_off_c, 0, 75, 0
4, 3900, Note_on_c, 0, 72, 88
4, 3958, Note_off_c, 0, 72, 0
4, 3960, Note_on_c, 0, 73, 88
4, 4018, Note_off_c, 0, 73, 0
4, 4020, Note_on_c, 0, 77, 88
4, 4078, Note_off_c, 0, 77, 0
4, 4080, Note_on_c, 0, 80, 88
4, 4138, Note_off_c, 0, 80, 0
4, 4140, Note_on_c, 0, 77, 88
4, 4198, Note_off_c, 0, 77, 0
4, 4200, Note_on_c, 0, 73, 88
4, 4258, Note_off_c, 0, 73, 0
4, 4260, Note_on_c, 0, 80, 88
4, 4318, Note_off_c, 0, 80, 0
4, 4320, Note_on_c, 0, 82, 88
4, 4349, Note_off_c, 0, 82, 0
4, 4350, Note_on_c, 0, 80, 88
4, 4379, Note_off_c, 0, 80, 0
4, 4380, Note_on_c, 0, 82, 88
4, 4409, Note_off_c, 0, 82, 0
4, 4410, Note_on_c, 0, 80, 88
4, 4439, Note_off_c, 0, 80, 0
4, 4440, Note_on_c, 0, 82, 88
4, 4469, Note_off_c, 0, 82, 0
4, 4470, Note_on_c, 0, 80, 88
4, 4499, Note_off_c, 0, 80, 0
4, 4500, Note_on_c, 0, 82, 88
4, 4529, Note_off_c, 0, 82, 0
4, 4530, Note_on_c, 0, 80, 88
4, 4559, Note_off_c, 0, 80, 0
4, 4560, Note_on_c, 0, 82, 88
4, 4585, Note_off_c, 0, 82, 0
4, 4586, Note_on_c, 0, 80, 88
4, 4612, Note_off_c, 0, 80, 0
4, 4613, Note_on_c, 0, 82, 88
4, 4638, Note_off_c, 0, 82, 0
4, 4639, Note_on_c, 0, 80, 88
4, 4737, Note_off_c, 0, 80, 0
4, 4740, Note_on_c, 0, 77, 88
4, 4798, Note_off_c, 0, 77, 0
4, 4800, Note_on_c, 0, 78, 88
4, 4916, Note_off_c, 0, 78, 0
4, 4920, Note_on_c, 0, 80, 88
4, 4978, Note_off_c, 0, 80, 0
4, 4980, Note_on_c, 0, 77, 88
4, 5098, Note_off_c, 0, 77, 0
4, 5100, Note_on_c, 0, 82, 88
4, 5158, Note_off_c, 0, 82, 0
4, 5160, Note_on_c, 0, 75, 88
4, 5276, Note_off_c, 0, 75, 0
4, 5280, Note_on_c, 0, 77, 88
4, 5338, Note_off_c, 0, 77, 0
4, 5340, Note_on_c, 0, 74, 88
4, 5398, Note_off_c, 0, 74, 0
4, 5400, Note_on_c, 0, 78, 88
4, 5458, Note_off_c, 0, 78, 0
4, 5460, Note_on_c, 0, 70, 88
4, 5518, Note_off_c, 0, 70, 0
4, 5520, Note_on_c, 0, 71, 88
4, 5636, Note_off_c, 0, 71, 0
4, 5640, Note_on_c, 0, 73, 88
4, 5698, Note_off_c, 0, 73, 0
4, 5700, Note_on_c, 0, 70, 88
4, 5818, Note_off_c, 0, 70, 0
4, 5820, Note_on_c, 0, 75, 88
4, 5878, Note_off_c, 0, 75, 0
4, 5880, Note_on_c, 0, 68, 88
4, 5996, Note_off_c, 0, 68, 0
4, 6000, Note_on_c, 0, 70, 88
4, 6058, Note_off_c, 0, 70, 0
4, 6060, Note_on_c, 0, 66, 88
4, 6176, Note_off_c, 0, 66, 0
4, 6180, Note_on_c, 0, 71, 88
4, 6238, Note_off_c, 0, 71, 0
4, 6240, Note_on_c, 0, 64, 88
4, 6356, Note_off_c, 0, 64, 0
4, 6360, Note_on_c, 0, 66, 88
4, 6418, Note_off_c, 0, 66, 0
4, 6420, Note_on_c, 0, 63, 88
4, 6478, Note_off_c, 0, 63, 0
4, 6480, Note_on_c, 0, 68, 88
4, 6538, Note_off_c, 0, 68, 0
4, 6540, Note_on_c, 0, 62, 88
4, 6598, Note_off_c, 0, 62, 0
4, 6600, Note_on_c, 0, 63, 88
4, 6716, Note_off_c, 0, 63, 0
4, 6720, Note_on_c, 0, 62, 88
4, 6778, Note_off_c, 0, 62, 0
4, 6780, Note_on_c, 0, 68, 88
4, 6896, Note_off_c, 0, 68, 0
4, 6900, Note_on_c, 0, 65, 88
4, 6958, Note_off_c, 0, 65, 0
4, 6960, Note_on_c, 0, 71, 88
4, 7076, Note_off_c, 0, 71, 0
4, 7080, Note_on_c, 0, 68, 88
4, 7138, Note_off_c, 0, 68, 0
4, 7140, Note_on_c, 0, 77, 88
4, 7258, Note_off_c, 0, 77, 0
4, 7260, Note_on_c, 0, 65, 88
4, 7318, Note_off_c, 0, 65, 0
4, 7320, Note_on_c, 0, 66, 88
4, 7436, Note_off_c, 0, 66, 0
4, 7440, Note_on_c, 0, 70, 88
4, 7498, Note_off_c, 0, 70, 0
4, 7500, Note_on_c, 0, 75, 88
4, 7616, Note_off_c, 0, 75, 0
4, 7620, Note_on_c, 0, 65, 88
4, 7678, Note_off_c, 0, 65, 0
4, 7680, Note_on_c, 0, 68, 88
4, 7796, Note_off_c, 0, 68, 0
4, 7800, Note_on_c, 0, 70, 88
4, 7858, Note_off_c, 0, 70, 0
4, 7860, Note_on_c, 0, 74, 88
4, 7918, Note_off_c, 0, 74, 0
4, 7920, Note_on_c, 0, 77, 88
4, 7949, Note_off_c, 0, 77, 0
4, 7950, Note_on_c, 0, 75, 88
4, 7979, Note_off_c, 0, 75, 0
4, 7980, Note_on_c, 0, 77, 88
4, 8009, Note_off_c, 0, 77, 0
4, 8010, Note_on_c, 0, 75, 88
4, 8039, Note_off_c, 0, 75, 0
4, 8040, Note_on_c, 0, 77, 88
4, 8069, Note_off_c, 0, 77, 0
4, 8070, Note_on_c, 0, 75, 88
4, 8099, Note_off_c, 0, 75, 0
4, 8100, Note_on_c, 0, 77, 88
4, 8129, Note_off_c, 0, 77, 0
4, 8130, Note_on_c, 0, 75, 88
4, 8159, Note_off_c, 0, 75, 0
4, 8160, Note_on_c, 0, 77, 88
4, 8185, Note_off_c, 0, 77, 0
4, 8186, Note_on_c, 0, 75, 88
4, 8212, Note_off_c, 0, 75, 0
4, 8213, Note_on_c, 0, 77, 88
4, 8238, Note_off_c, 0, 77, 0
4, 8239, Note_on_c, 0, 75, 88
4, 8337, Note_off_c, 0, 75, 0
4, 8340, Note_on_c, 0, 78, 88
4, 8398, Note_off_c, 0, 78, 0
4, 8400, Note_on_c, 0, 82, 88
4, 8458, Note_off_c, 0, 82, 0
4, 8460, Note_on_c, 0, 78, 88
4, 8518, Note_off_c, 0, 78, 0
4, 8520, Note_on_c, 0, 75, 88
4, 8578, Note_off_c, 0, 75, 0
4, 8580, Note_on_c, 0, 81, 88
4, 8638, Note_off_c, 0, 81, 0
4, 8640, Note_on_c, 0, 82, 88
4, 8669, Note_off_c, 0, 82, 0
4, 8670, Note_on_c, 0, 81, 88
4, 8699, Note_off_c, 0, 81, 0
4, 8700, Note_on_c, 0, 82, 88
4, 8729, Note_off_c, 0, 82, 0
4, 8730, Note_on_c, 0, 81, 88
4, 8759, Note_off_c, 0, 81, 0
4, 8760, Note_on_c, 0, 82, 88
4, 8789, Note_off_c, 0, 82, 0
4, 8790, Note_on_c, 0, 81, 88
4, 8819, Note_off_c, 0, 81, 0
4, 8820, Note_on_c, 0, 82, 88
4, 8849, Note_off_c, 0, 82, 0
4, 8850, Note_on_c, 0, 81, 88
4, 8879, Note_off_c, 0, 81, 0
4, 8880, Note_on_c, 0, 82, 88
4, 8905, Note_off_c, 0, 82, 0
4, 8906, Note_on_c, 0, 81, 88
4, 8932, Note_off_c, 0, 81, 0
4, 8933, Note_on_c, 0, 82, 88
4, 8958, Note_off_c, 0, 82, 0
4, 8959, Note_on_c, 0, 81, 88
4, 9057, Note_off_c, 0, 81, 0
4, 9060, Note_on_c, 0, 82, 88
4, 9118, Note_off_c, 0, 82, 0
4, 9120, Note_on_c, 0, 84, 88
4, 9178, Note_off_c, 0, 84, 0
4, 9180, Note_on_c, 0, 77, 88
4, 9238, Note_off_c, 0, 77, 0
4, 9240, Note_on_c, 0, 78, 88
4, 9298, Note_off_c, 0, 78, 0
4, 9300, Note_on_c, 0, 75, 88
4, 9358, Note_off_c, 0, 75, 0
4, 9360, Note_on_c, 0, 73, 88
4, 9418, Note_off_c, 0, 73, 0
4, 9420, Note_on_c, 0, 77, 88
4, 9478, Note_off_c, 0, 77, 0
4, 9480, Note_on_c, 0, 70, 88
4, 9596, Note_off_c, 0, 70, 0
4, 9600, Note_on_c, 0, 72, 88
4, 9658, Note_off_c, 0, 72, 0
4, 9660, Note_on_c, 0, 69, 88
4, 9718, Note_off_c, 0, 69, 0
4, 9720, Note_on_c, 0, 70, 88
4, 9778, Note_off_c, 0, 70, 0
4, 9780, Note_on_c, 0, 73, 88
4, 9838, Note_off_c, 0, 73, 0
4, 9840, Note_on_c, 0, 70, 88
4, 9879, Note_off_c, 0, 70, 0
4, 9900, Note_on_c, 0, 70, 88
4, 9958, Note_off_c, 0, 70, 0
4, 9960, Note_on_c, 0, 73, 88
4, 9989, Note_off_c, 0, 73, 0
4, 9990, Note_on_c, 0, 72, 88
4, 10019, Note_off_c, 0, 72, 0
4, 10020, Note_on_c, 0, 70, 88
4, 10138, Note_off_c, 0, 70, 0
4, 10140, Note_on_c, 0, 78, 88
4, 10198, Note_off_c, 0, 78, 0
4, 10200, Note_on_c, 0, 70, 88
4, 10316, Note_off_c, 0, 70, 0
4, 10320, Note_on_c, 0, 72, 88
4, 10378, Note_off_c, 0, 72, 0
4, 10380, Note_on_c, 0, 69, 88
4, 10438, Note_off_c, 0, 69, 0
4, 10440, Note_on_c, 0, 70, 88
4, 10498, Note_off_c, 0, 70, 0
4, 10500, Note_on_c, 0, 73, 88
4, 10558, Note_off_c, 0, 73, 0
4, 10560, Note_on_c, 0, 77, 88
4, 10618, Note_off_c, 0, 77, 0
4, 10620, Note_on_c, 0, 73, 88
4, 10678, Note_off_c, 0, 73, 0
4, 10680, Note_on_c, 0, 70, 88
4, 10738, Note_off_c, 0, 70, 0
4, 10740, Note_on_c, 0, 79, 88
4, 10798, Note_off_c, 0, 79, 0
4, 10800, Note_on_c, 0, 79, 88
4, 11212, Note_off_c, 0, 79, 0
4, 11220, Note_on_c, 0, 82, 88
4, 11278, Note_off_c, 0, 82, 0
4, 11280, Note_on_c, 0, 75, 88
4, 11338, Note_off_c, 0, 75, 0
4, 11340, Note_on_c, 0, 73, 88
4, 11398, Note_off_c, 0, 73, 0
4, 11400, Note_on_c, 0, 71, 88
4, 11458, Note_off_c, 0, 71, 0
4, 11460, Note_on_c, 0, 70, 88
4, 11518, Note_off_c, 0, 70, 0
4, 11520, Note_on_c, 0, 71, 88
4, 11578, Note_off_c, 0, 71, 0
4, 11580, Note_on_c, 0, 75, 88
4, 11638, Note_off_c, 0, 75, 0
4, 11640, Note_on_c, 0, 68, 88
4, 11756, Note_off_c, 0, 68, 0
4, 11760, Note_on_c, 0, 70, 88
4, 11818, Note_off_c, 0, 70, 0
4, 11820, Note_on_c, 0, 67, 88
4, 11878, Note_off_c, 0, 67, 0
4, 11880, Note_on_c, 0, 68, 88
4, 11938, Note_off_c, 0, 68, 0
4, 11940, Note_on_c, 0, 71, 88
4, 11998, Note_off_c, 0, 71, 0
4, 12000, Note_on_c, 0, 68, 88
4, 12039, Note_off_c, 0, 68, 0
4, 12060, Note_on_c, 0, 68, 88
4, 12118, Note_off_c, 0, 68, 0
4, 12120, Note_on_c, 0, 71, 88
4, 12149, Note_off_c, 0, 71, 0
4, 12150, Note_on_c, 0, 70, 88
4, 12179, Note_off_c, 0, 70, 0
4, 12180, Note_on_c, 0, 68, 88
4, 12298, Note_off_c, 0, 68, 0
4, 12300, Note_on_c, 0, 76, 88
4, 12358, Note_off_c, 0, 76, 0
4, 12360, Note_on_c, 0, 68, 88
4, 12476, Note_off_c, 0, 68, 0
4, 12480, Note_on_c, 0, 70, 88
4, 12538, Note_off_c, 0, 70, 0
4, 12540, Note_on_c, 0, 67, 88
4, 12598, Note_off_c, 0, 67, 0
4, 12600, Note_on_c, 0, 68, 88
4, 12658, Note_off_c, 0, 68, 0
4, 12660, Note_on_c, 0, 71, 88
4, 12718, Note_off_c, 0, 71, 0
4, 12720, Note_on_c, 0, 75, 88
4, 12778, Note_off_c, 0, 75, 0
4, 12780, Note_on_c, 0, 71, 88
4, 12838, Note_off_c, 0, 71, 0
4, 12840, Note_on_c, 0, 68, 88
4, 12898, Note_off_c, 0, 68, 0
4, 12900, Note_on_c, 0, 77, 88
4, 12958, Note_off_c, 0, 77, 0
4, 12960, Note_on_c, 0, 78, 88
4, 12989, Note_off_c, 0, 78, 0
4, 12990, Note_on_c, 0, 77, 88
4, 13019, Note_off_c, 0, 77, 0
4, 13020, Note_on_c, 0, 78, 88
4, 13049, Note_off_c, 0, 78, 0
4, 13050, Note_on_c, 0, 77, 88
4, 13079, Note_off_c, 0, 77, 0
4, 13080, Note_on_c, 0, 78, 88
4, 13109, Note_off_c, 0, 78, 0
4, 13110, Note_on_c, 0, 77, 88
4, 13139, Note_off_c, 0, 77, 0
4, 13140, Note_on_c, 0, 78, 88
4, 13169, Note_off_c, 0, 78, 0
4, 13170, Note_on_c, 0, 77, 88
4, 13199, Note_off_c, 0, 77, 0
4, 13200, Note_on_c, 0, 78, 88
4, 13225, Note_off_c, 0, 78, 0
4, 13226, Note_on_c, 0, 77, 88
4, 13252, Note_off_c, 0, 77, 0
4, 13253, Note_on_c, 0, 78, 88
4, 13278, Note_off_c, 0, 78, 0
4, 13279, Note_on_c, 0, 77, 88
4, 13377, Note_off_c, 0, 77, 0
4, 13380, Note_on_c, 0, 73, 88
4, 13438, Note_off_c, 0, 73, 0
4, 13440, Note_on_c, 0, 77, 88
4, 13498, Note_off_c, 0, 77, 0
4, 13500, Note_on_c, 0, 80, 88
4, 13558, Note_off_c, 0, 80, 0
4, 13560, Note_on_c, 0, 77, 88
4, 13618, Note_off_c, 0, 77, 0
4, 13620, Note_on_c, 0, 80, 88
4, 13678, Note_off_c, 0, 80, 0
4, 13680, Note_on_c, 0, 83, 88
4, 14092, Note_off_c, 0, 83, 0
4, 14100, Note_on_c, 0, 80, 88
4, 14158, Note_off_c, 0, 80, 0
4, 14160, Note_on_c, 0, 82, 88
4, 14276, Note_off_c, 0, 82, 0
4, 14280, Note_on_c, 0, 83, 88
4, 14338, Note_off_c, 0, 83, 0
4, 14340, Note_on_c, 0, 80, 88
4, 14458, Note_off_c, 0, 80, 0
4, 14460, Note_on_c, 0, 77, 88
4, 14518, Note_off_c, 0, 77, 0
4, 14520, Note_on_c, 0, 78, 88
4, 14636, Note_off_c, 0, 78, 0
4, 14640, Note_on_c, 0, 80, 88
4, 14698, Note_off_c, 0, 80, 0
4, 14700, Note_on_c, 0, 77, 88
4, 14758, Note_off_c, 0, 77, 0
4, 14760, Note_on_c, 0, 78, 88
4, 14818, Note_off_c, 0, 78, 0
4, 14820, Note_on_c, 0, 70, 88
4, 14878, Note_off_c, 0, 70, 0
4, 14880, Note_on_c, 0, 71, 88
4, 14996, Note_off_c, 0, 71, 0
4, 15000, Note_on_c, 0, 73, 88
4, 15058, Note_off_c, 0, 73, 0
4, 15060, Note_on_c, 0, 70, 88
4, 15178, Note_off_c, 0, 70, 0
4, 15180, Note_on_c, 0, 75, 88
4, 15238, Note_off_c, 0, 75, 0
4, 15240, Note_on_c, 0, 68, 88
4, 15356, Note_off_c, 0, 68, 0
4, 15360, Note_on_c, 0, 70, 88
4, 15418, Note_off_c, 0, 70, 0
4, 15420, Note_on_c, 0, 66, 88
4, 15536, Note_off_c, 0, 66, 0
4, 15540, Note_on_c, 0, 65, 88
4, 15598, Note_off_c, 0, 65, 0
4, 15600, Note_on_c, 0, 71, 88
4, 15716, Note_off_c, 0, 71, 0
4, 15720, Note_on_c, 0, 68, 88
4, 15778, Note_off_c, 0, 68, 0
4, 15780, Note_on_c, 0, 75, 88
4, 15898, Note_off_c, 0, 75, 0
4, 15900, Note_on_c, 0, 71, 88
4, 15958, Note_off_c, 0, 71, 0
4, 15960, Note_on_c, 0, 80, 88
4, 16076, Note_off_c, 0, 80, 0
4, 16080, Note_on_c, 0, 77, 88
4, 16138, Note_off_c, 0, 77, 0
4, 16140, Note_on_c, 0, 71, 88
4, 16256, Note_off_c, 0, 71, 0
4, 16260, Note_on_c, 0, 68, 88
4, 16318, Note_off_c, 0, 68, 0
4, 16320, Note_on_c, 0, 73, 88
4, 16436, Note_off_c, 0, 73, 0
4, 16440, Note_on_c, 0, 70, 88
4, 16498, Note_off_c, 0, 70, 0
4, 16500, Note_on_c, 0, 66, 88
4, 16618, Note_off_c, 0, 66, 0
4, 16620, Note_on_c, 0, 63, 88
4, 16678, Note_off_c, 0, 63, 0
4, 16680, Note_on_c, 0, 71, 88
4, 16796, Note_off_c, 0, 71, 0
4, 16800, Note_on_c, 0, 68, 88
4, 16858, Note_off_c, 0, 68, 0
4, 16860, Note_on_c, 0, 65, 88
4, 16918, Note_off_c, 0, 65, 0
4, 16920, Note_on_c, 0, 66, 88
4, 17338, Note_off_c, 0, 66, 0
4, 17340, Note_on_c, 0, 58, 88
4, 17398, Note_off_c, 0, 58, 0
4, 17400, Note_on_c, 0, 59, 88
4, 17516, Note_off_c, 0, 59, 0
4, 17520, Note_on_c, 0, 61, 88
4, 17578, Note_off_c, 0, 61, 0
4, 17580, Note_on_c, 0, 58, 88
4, 17696, Note_off_c, 0, 58, 0
4, 17700, Note_on_c, 0, 63, 88
4, 17758, Note_off_c, 0, 63, 0
4, 17760, Note_on_c, 0, 56, 88
4, 17876, Note_off_c, 0, 56, 0
4, 17880, Note_on_c, 0, 58, 88
4, 17938, Note_off_c, 0, 58, 0
4, 17940, Note_on_c, 0, 54, 88
4, 17998, Note_off_c, 0, 54, 0
4, 18000, Note_on_c, 0, 59, 88
4, 18412, Note_off_c, 0, 59, 0
4, 18420, Note_on_c, 0, 65, 88
4, 18478, Note_off_c, 0, 65, 0
4, 18480, Note_on_c, 0, 68, 88
4, 18538, Note_off_c, 0, 68, 0
4, 18540, Note_on_c, 0, 65, 88
4, 18598, Note_off_c, 0, 65, 0
4, 18600, Note_on_c, 0, 59, 88
4, 18658, Note_off_c, 0, 59, 0
4, 18660, Note_on_c, 0, 68, 88
4, 18718, Note_off_c, 0, 68, 0
4, 18720, Note_on_c, 0, 57, 88
4, 18778, Note_off_c, 0, 57, 0
4, 18780, Note_on_c, 0, 61, 88
4, 18838, Note_off_c, 0, 61, 0
4, 18840, Note_on_c, 0, 66, 88
4, 18898, Note_off_c, 0, 66, 0
4, 18900, Note_on_c, 0, 59, 88
4, 18958, Note_off_c, 0, 59, 0
4, 18960, Note_on_c, 0, 65, 88
4, 19018, Note_off_c, 0, 65, 0
4, 19020, Note_on_c, 0, 68, 88
4, 19078, Note_off_c, 0, 68, 0
4, 19080, Note_on_c, 0, 61, 88
4, 19138, Note_off_c, 0, 61, 0
4, 19140, Note_on_c, 0, 66, 88
4, 19198, Note_off_c, 0, 66, 0
4, 19200, Note_on_c, 0, 69, 88
4, 19258, Note_off_c, 0, 69, 0
4, 19260, Note_on_c, 0, 62, 88
4, 19318, Note_off_c, 0, 62, 0
4, 19320, Note_on_c, 0, 68, 88
4, 19378, Note_off_c, 0, 68, 0
4, 19380, Note_on_c, 0, 71, 88
4, 19438, Note_off_c, 0, 71, 0
4, 19440, Note_on_c, 0, 65, 88
4, 19498, Note_off_c, 0, 65, 0
4, 19500, Note_on_c, 0, 71, 88
4, 19558, Note_off_c, 0, 71, 0
4, 19560, Note_on_c, 0, 74, 88
4, 19676, Note_off_c, 0, 74, 0
4, 19680, Note_on_c, 0, 71, 88
4, 19738, Note_off_c, 0, 71, 0
4, 19740, Note_on_c, 0, 77, 88
4, 19856, Note_off_c, 0, 77, 0
4, 19860, Note_on_c, 0, 74, 88
4, 19918, Note_off_c, 0, 74, 0
4, 19920, Note_on_c, 0, 80, 88
4, 20036, Note_off_c, 0, 80, 0
4, 20040, Note_on_c, 0, 77, 88
4, 20098, Note_off_c, 0, 77, 0
4, 20100, Note_on_c, 0, 83, 88
4, 20158, Note_off_c, 0, 83, 0
4, 20160, Note_on_c, 0, 82, 88
4, 20218, Note_off_c, 0, 82, 0
4, 20220, Note_on_c, 0, 73, 88
4, 20278, Note_off_c, 0, 73, 0
4, 20280, Note_on_c, 0, 78, 88
4, 20396, Note_off_c, 0, 78, 0
4, 20400, Note_on_c, 0, 80, 88
4, 20458, Note_off_c, 0, 80, 0
4, 20460, Note_on_c, 0, 77, 88
4, 20518, Note_off_c, 0, 77, 0
4, 20520, Note_on_c, 0, 78, 88
4, 20578, Note_off_c, 0, 78, 0
4, 20580, Note_on_c, 0, 70, 88
4, 20638, Note_off_c, 0, 70, 0
4, 20640, Note_on_c, 0, 78, 88
4, 20679, Note_off_c, 0, 78, 0
4, 20700, Note_on_c, 0, 78, 88
4, 20758, Note_off_c, 0, 78, 0
4, 20760, Note_on_c, 0, 82, 88
4, 20789, Note_off_c, 0, 82, 0
4, 20790, Note_on_c, 0, 80, 88
4, 20819, Note_off_c, 0, 80, 0
4, 20820, Note_on_c, 0, 78, 88
4, 20938, Note_off_c, 0, 78, 0
4, 20940, Note_on_c, 0, 68, 88
4, 20998, Note_off_c, 0, 68, 0
4, 21000, Note_on_c, 0, 78, 88
4, 21116, Note_off_c, 0, 78, 0
4, 21120, Note_on_c, 0, 80, 88
4, 21178, Note_off_c, 0, 80, 0
4, 21180, Note_on_c, 0, 77, 88
4, 21238, Note_off_c, 0, 77, 0
4, 21240, Note_on_c, 0, 78, 88
4, 21298, Note_off_c, 0, 78, 0
4, 21300, Note_on_c, 0, 73, 88
4, 21358, Note_off_c, 0, 73, 0
4, 21360, Note_on_c, 0, 70, 88
4, 21418, Note_off_c, 0, 70, 0
4, 21420, Note_on_c, 0, 66, 88
4, 21595, Note_off_c, 0, 66, 0
4, 21595, End_track
5, 0, Start_track
5, 0, Title_t, "Track 2"
5, 0, Program_c, 1, 6
5, 360, Note_on_c, 1, 54, 88
5, 418, Note_off_c, 1, 54, 0
5, 420, Note_on_c, 1, 58, 88
5, 478, Note_off_c, 1, 58, 0
5, 480, Note_on_c, 1, 61, 88
5, 538, Note_off_c, 1, 61, 0
5, 540, Note_on_c, 1, 58, 88
5, 598, Note_off_c, 1, 58, 0
5, 600, Note_on_c, 1, 54, 88
5, 658, Note_off_c, 1, 54, 0
5, 660, Note_on_c, 1, 63, 88
5, 718, Note_off_c, 1, 63, 0
5, 720, Note_on_c, 1, 63, 88
5, 895, Note_off_c, 1, 63, 0
5, 900, Note_on_c, 1, 61, 88
5, 1075, Note_off_c, 1, 61, 0
5, 1080, Note_on_c, 1, 59, 88
5, 1255, Note_off_c, 1, 59, 0
5, 1260, Note_on_c, 1, 58, 88
5, 1435, Note_off_c, 1, 58, 0
5, 1440, Note_on_c, 1, 56, 88
5, 1615, Note_off_c, 1, 56, 0
5, 1620, Note_on_c, 1, 54, 88
5, 1795, Note_off_c, 1, 54, 0
5, 1800, Note_on_c, 1, 53, 88
5, 1975, Note_off_c, 1, 53, 0
5, 1980, Note_on_c, 1, 49, 88
5, 2155, Note_off_c, 1, 49, 0
5, 2160, Note_on_c, 1, 54, 88
5, 2335, Note_off_c, 1, 54, 0
5, 2340, Note_on_c, 1, 56, 88
5, 2515, Note_off_c, 1, 56, 0
5, 2520, Note_on_c, 1, 58, 88
5, 2695, Note_off_c, 1, 58, 0
5, 2700, Note_on_c, 1, 60, 88
5, 2875, Note_off_c, 1, 60, 0
5, 2880, Note_on_c, 1, 61, 88
5, 3055, Note_off_c, 1, 61, 0
5, 3060, Note_on_c, 1, 56, 88
5, 3235, Note_off_c, 1, 56, 0
5, 3240, Note_on_c, 1, 58, 88
5, 3415, Note_off_c, 1, 58, 0
5, 3420, Note_on_c, 1, 53, 88
5, 3595, Note_off_c, 1, 53, 0
5, 3600, Note_on_c, 1, 54, 88
5, 3775, Note_off_c, 1, 54, 0
5, 3780, Note_on_c, 1, 56, 88
5, 3955, Note_off_c, 1, 56, 0
5, 3960, Note_on_c, 1, 49, 88
5, 4135, Note_off_c, 1, 49, 0
5, 4320, Note_on_c, 1, 49, 88
5, 4378, Note_off_c, 1, 49, 0
5, 4380, Note_on_c, 1, 53, 88
5, 4438, Note_off_c, 1, 53, 0
5, 4440, Note_on_c, 1, 56, 88
5, 4498, Note_off_c, 1, 56, 0
5, 4500, Note_on_c, 1, 53, 88
5, 4558, Note_off_c, 1, 53, 0
5, 4560, Note_on_c, 1, 49, 88
5, 4618, Note_off_c, 1, 49, 0
5, 4620, Note_on_c, 1, 58, 88
5, 4659, Note_off_c, 1, 58, 0
5, 4680, Note_on_c, 1, 58, 88
5, 4855, Note_off_c, 1, 58, 0
5, 4860, Note_on_c, 1, 56, 88
5, 5035, Note_off_c, 1, 56, 0
5, 5040, Note_on_c, 1, 54, 88
5, 5215, Note_off_c, 1, 54, 0
5, 5220, Note_on_c, 1, 53, 88
5, 5395, Note_off_c, 1, 53, 0
5, 5400, Note_on_c, 1, 51, 88
5, 5575, Note_off_c, 1, 51, 0
5, 5580, Note_on_c, 1, 49, 88
5, 5755, Note_off_c, 1, 49, 0
5, 5760, Note_on_c, 1, 47, 88
5, 5935, Note_off_c, 1, 47, 0
5, 5940, Note_on_c, 1, 46, 88
5, 6115, Note_off_c, 1, 46, 0
5, 6120, Note_on_c, 1, 44, 88
5, 6295, Note_off_c, 1, 44, 0
5, 6300, Note_on_c, 1, 42, 88
5, 6475, Note_off_c, 1, 42, 0
5, 6480, Note_on_c, 1, 41, 88
5, 6655, Note_off_c, 1, 41, 0
5, 6660, Note_on_c, 1, 51, 88
5, 6835, Note_off_c, 1, 51, 0
5, 6840, Note_on_c, 1, 50, 88
5, 7015, Note_off_c, 1, 50, 0
5, 7020, Note_on_c, 1, 46, 88
5, 7195, Note_off_c, 1, 46, 0
5, 7200, Note_on_c, 1, 51, 88
5, 7375, Note_off_c, 1, 51, 0
5, 7380, Note_on_c, 1, 54, 88
5, 7555, Note_off_c, 1, 54, 0
5, 7560, Note_on_c, 1, 56, 88
5, 7735, Note_off_c, 1, 56, 0
5, 7740, Note_on_c, 1, 58, 88
5, 7915, Note_off_c, 1, 58, 0
5, 7920, Note_on_c, 1, 51, 88
5, 7978, Note_off_c, 1, 51, 0
5, 7980, Note_on_c, 1, 54, 88
5, 8038, Note_off_c, 1, 54, 0
5, 8040, Note_on_c, 1, 58, 88
5, 8098, Note_off_c, 1, 58, 0
5, 8100, Note_on_c, 1, 54, 88
5, 8158, Note_off_c, 1, 54, 0
5, 8160, Note_on_c, 1, 51, 88
5, 8218, Note_off_c, 1, 51, 0
5, 8220, Note_on_c, 1, 60, 88
5, 8278, Note_off_c, 1, 60, 0
5, 8280, Note_on_c, 1, 61, 88
5, 8302, Note_off_c, 1, 61, 0
5, 8303, Note_on_c, 1, 60, 88
5, 8332, Note_off_c, 1, 60, 0
5, 8333, Note_on_c, 1, 61, 88
5, 8362, Note_off_c, 1, 61, 0
5, 8363, Note_on_c, 1, 60, 88
5, 8392, Note_off_c, 1, 60, 0
5, 8393, Note_on_c, 1, 61, 88
5, 8422, Note_off_c, 1, 61, 0
5, 8423, Note_on_c, 1, 60, 88
5, 8444, Note_off_c, 1, 60, 0
5, 8445, Note_on_c, 1, 61, 88
5, 8467, Note_off_c, 1, 61, 0
5, 8468, Note_on_c, 1, 60, 88
5, 8489, Note_off_c, 1, 60, 0
5, 8490, Note_on_c, 1, 61, 88
5, 8512, Note_off_c, 1, 61, 0
5, 8513, Note_on_c, 1, 60, 88
5, 8534, Note_off_c, 1, 60, 0
5, 8535, Note_on_c, 1, 61, 88
5, 8557, Note_off_c, 1, 61, 0
5, 8558, Note_on_c, 1, 60, 88
5, 8637, Note_off_c, 1, 60, 0
5, 8640, Note_on_c, 1, 60, 88
5, 8698, Note_off_c, 1, 60, 0
5, 8700, Note_on_c, 1, 63, 88
5, 8758, Note_off_c, 1, 63, 0
5, 8760, Note_on_c, 1, 66, 88
5, 8818, Note_off_c, 1, 66, 0
5, 8820, Note_on_c, 1, 63, 88
5, 8878, Note_off_c, 1, 63, 0
5, 8880, Note_on_c, 1, 60, 88
5, 8938, Note_off_c, 1, 60, 0
5, 8940, Note_on_c, 1, 66, 88
5, 8979, Note_off_c, 1, 66, 0
5, 9000, Note_on_c, 1, 66, 88
5, 9058, Note_off_c, 1, 66, 0
5, 9060, Note_on_c, 1, 65, 88
5, 9118, Note_off_c, 1, 65, 0
5, 9120, Note_on_c, 1, 63, 88
5, 9178, Note_off_c, 1, 63, 0
5, 9180, Note_on_c, 1, 61, 88
5, 9238, Note_off_c, 1, 61, 0
5, 9240, Note_on_c, 1, 63, 88
5, 9298, Note_off_c, 1, 63, 0
5, 9300, Note_on_c, 1, 65, 88
5, 9358, Note_off_c, 1, 65, 0
5, 9360, Note_on_c, 1, 58, 88
5, 9535, Note_off_c, 1, 58, 0
5, 9540, Note_on_c, 1, 53, 88
5, 9715, Note_off_c, 1, 53, 0
5, 9720, Note_on_c, 1, 54, 88
5, 9895, Note_off_c, 1, 54, 0
5, 9900, Note_on_c, 1, 49, 88
5, 10075, Note_off_c, 1, 49, 0
5, 10080, Note_on_c, 1, 51, 88
5, 10255, Note_off_c, 1, 51, 0
5, 10260, Note_on_c, 1, 53, 88
5, 10435, Note_off_c, 1, 53, 0
5, 10440, Note_on_c, 1, 46, 88
5, 10615, Note_off_c, 1, 46, 0
5, 10800, Note_on_c, 1, 51, 88
5, 10858, Note_off_c, 1, 51, 0
5, 10860, Note_on_c, 1, 55, 88
5, 10918, Note_off_c, 1, 55, 0
5, 10920, Note_on_c, 1, 58, 88
5, 10978, Note_off_c, 1, 58, 0
5, 10980, Note_on_c, 1, 55, 88
5, 11038, Note_off_c, 1, 55, 0
5, 11040, Note_on_c, 1, 51, 88
5, 11098, Note_off_c, 1, 51, 0
5, 11100, Note_on_c, 1, 61, 88
5, 11139, Note_off_c, 1, 61, 0
5, 11160, Note_on_c, 1, 61, 88
5, 11335, Note_off_c, 1, 61, 0
5, 11340, Note_on_c, 1, 55, 88
5, 11515, Note_off_c, 1, 55, 0
5, 11520, Note_on_c, 1, 56, 88
5, 11695, Note_off_c, 1, 56, 0
5, 11700, Note_on_c, 1, 51, 88
5, 11875, Note_off_c, 1, 51, 0
5, 11880, Note_on_c, 1, 52, 88
5, 12055, Note_off_c, 1, 52, 0
5, 12060, Note_on_c, 1, 47, 88
5, 12235, Note_off_c, 1, 47, 0
5, 12240, Note_on_c, 1, 49, 88
5, 12415, Note_off_c, 1, 49, 0
5, 12420, Note_on_c, 1, 51, 88
5, 12595, Note_off_c, 1, 51, 0
5, 12600, Note_on_c, 1, 44, 88
5, 12775, Note_off_c, 1, 44, 0
5, 12960, Note_on_c, 1, 49, 88
5, 13018, Note_off_c, 1, 49, 0
5, 13020, Note_on_c, 1, 53, 88
5, 13078, Note_off_c, 1, 53, 0
5, 13080, Note_on_c, 1, 56, 88
5, 13138, Note_off_c, 1, 56, 0
5, 13140, Note_on_c, 1, 53, 88
5, 13198, Note_off_c, 1, 53, 0
5, 13200, Note_on_c, 1, 49, 88
5, 13258, Note_off_c, 1, 49, 0
5, 13260, Note_on_c, 1, 59, 88
5, 13299, Note_off_c, 1, 59, 0
5, 13320, Note_on_c, 1, 59, 88
5, 13554, Note_off_c, 1, 59, 0
5, 13560, Note_on_c, 1, 56, 88
5, 13618, Note_off_c, 1, 56, 0
5, 13620, Note_on_c, 1, 59, 88
5, 13678, Note_off_c, 1, 59, 0
5, 13680, Note_on_c, 1, 65, 88
5, 13738, Note_off_c, 1, 65, 0
5, 13740, Note_on_c, 1, 68, 88
5, 13798, Note_off_c, 1, 68, 0
5, 13800, Note_on_c, 1, 65, 88
5, 13858, Note_off_c, 1, 65, 0
5, 13860, Note_on_c, 1, 61, 88
5, 13918, Note_off_c, 1, 61, 0
5, 13920, Note_on_c, 1, 65, 88
5, 13978, Note_off_c, 1, 65, 0
5, 13980, Note_on_c, 1, 61, 88
5, 14038, Note_off_c, 1, 61, 0
5, 14040, Note_on_c, 1, 54, 88
5, 14215, Note_off_c, 1, 54, 0
5, 14220, Note_on_c, 1, 59, 88
5, 14395, Note_off_c, 1, 59, 0
5, 14400, Note_on_c, 1, 60, 88
5, 14575, Note_off_c, 1, 60, 0
5, 14580, Note_on_c, 1, 61, 88
5, 14755, Note_off_c, 1, 61, 0
5, 14760, Note_on_c, 1, 51, 88
5, 14935, Note_off_c, 1, 51, 0
5, 14940, Note_on_c, 1, 49, 88
5, 15115, Note_off_c, 1, 49, 0
5, 15120, Note_on_c, 1, 47, 88
5, 15295, Note_off_c, 1, 47, 0
5, 15300, Note_on_c, 1, 46, 88
5, 15475, Note_off_c, 1, 46, 0
5, 15480, Note_on_c, 1, 44, 88
5, 15655, Note_off_c, 1, 44, 0
5, 15660, Note_on_c, 1, 54, 88
5, 15835, Note_off_c, 1, 54, 0
5, 15840, Note_on_c, 1, 53, 88
5, 16015, Note_off_c, 1, 53, 0
5, 16020, Note_on_c, 1, 49, 88
5, 16195, Note_off_c, 1, 49, 0
5, 16200, Note_on_c, 1, 54, 88
5, 16375, Note_off_c, 1, 54, 0
5, 16380, Note_on_c, 1, 46, 88
5, 16555, Note_off_c, 1, 46, 0
5, 16560, Note_on_c, 1, 47, 88
5, 16735, Note_off_c, 1, 47, 0
5, 16740, Note_on_c, 1, 49, 88
5, 16915, Note_off_c, 1, 49, 0
5, 16920, Note_on_c, 1, 42, 88
5, 16978, Note_off_c, 1, 42, 0
5, 16980, Note_on_c, 1, 46, 88
5, 17038, Note_off_c, 1, 46, 0
5, 17040, Note_on_c, 1, 49, 88
5, 17098, Note_off_c, 1, 49, 0
5, 17100, Note_on_c, 1, 46, 88
5, 17158, Note_off_c, 1, 46, 0
5, 17160, Note_on_c, 1, 42, 88
5, 17218, Note_off_c, 1, 42, 0
5, 17220, Note_on_c, 1, 51, 88
5, 17278, Note_off_c, 1, 51, 0
5, 17280, Note_on_c, 1, 51, 88
5, 17455, Note_off_c, 1, 51, 0
5, 17460, Note_on_c, 1, 49, 88
5, 17635, Note_off_c, 1, 49, 0
5, 17640, Note_on_c, 1, 47, 88
5, 17815, Note_off_c, 1, 47, 0
5, 17820, Note_on_c, 1, 46, 88
5, 17995, Note_off_c, 1, 46, 0
5, 18000, Note_on_c, 1, 44, 88
5, 18058, Note_off_c, 1, 44, 0
5, 18060, Note_on_c, 1, 47, 88
5, 18118, Note_off_c, 1, 47, 0
5, 18120, Note_on_c, 1, 51, 88
5, 18178, Note_off_c, 1, 51, 0
5, 18180, Note_on_c, 1, 47, 88
5, 18238, Note_off_c, 1, 47, 0
5, 18240, Note_on_c, 1, 44, 88
5, 18298, Note_off_c, 1, 44, 0
5, 18300, Note_on_c, 1, 53, 88
5, 18358, Note_off_c, 1, 53, 0
5, 18360, Note_on_c, 1, 37, 88
5, 18895, Note_off_c, 1, 37, 0
5, 18900, Note_on_c, 1, 49, 88
5, 19075, Note_off_c, 1, 49, 0
5, 19080, Note_on_c, 1, 37, 88
5, 19255, Note_off_c, 1, 37, 0
5, 19260, Note_on_c, 1, 49, 88
5, 19435, Note_off_c, 1, 49, 0
5, 19440, Note_on_c, 1, 37, 88
5, 19615, Note_off_c, 1, 37, 0
5, 19620, Note_on_c, 1, 53, 88
5, 19795, Note_off_c, 1, 53, 0
5, 19800, Note_on_c, 1, 56, 88
5, 19975, Note_off_c, 1, 56, 0
5, 19980, Note_on_c, 1, 61, 88
5, 20155, Note_off_c, 1, 61, 0
5, 20160, Note_on_c, 1, 54, 88
5, 20335, Note_off_c, 1, 54, 0
5, 20340, Note_on_c, 1, 49, 88
5, 20515, Note_off_c, 1, 49, 0
5, 20520, Note_on_c, 1, 51, 88
5, 20695, Note_off_c, 1, 51, 0
5, 20700, Note_on_c, 1, 46, 88
5, 20875, Note_off_c, 1, 46, 0
5, 20880, Note_on_c, 1, 47, 88
5, 21055, Note_off_c, 1, 47, 0
5, 21060, Note_on_c, 1, 49, 88
5, 21235, Note_off_c, 1, 49, 0
5, 21240, Note_on_c, 1, 42, 88
5, 21593, Note_off_c, 1, 42, 0
5, 21593, End_track
0, 0, End_of_file
