0, 0, Header, 1, 8, 240
1, 0, Start_track
1, 0, Time_signature, 6, 2, 24, 8
1, 0, Tempo, 491803
1, 0, SMPTE_offset, 64, 0, 0, 0, 93
1, 0, End_track
2, 0, Start_track
2, 0, Title_t, "(C) & (P) 1993"
2, 127, End_track
3, 0, Start_track
3, 0, Title_t, "CCARH,Stanford"
3, 0, End_track
4, 0, Start_track
4, 0, Title_t, "Track 1"
4, 0, Program_c, 0, 6
4, 0, Note_on_c, 0, 68, 88
4, 116, Note_off_c, 0, 68, 0
4, 120, Note_on_c, 0, 66, 88
4, 236, Note_off_c, 0, 66, 0
4, 240, Note_on_c, 0, 64, 88
4, 356, Note_off_c, 0, 64, 0
4, 360, Note_on_c, 0, 63, 88
4, 476, Note_off_c, 0, 63, 0
4, 480, Note_on_c, 0, 64, 88
4, 596, Note_off_c, 0, 64, 0
4, 600, Note_on_c, 0, 61, 88
4, 716, Note_off_c, 0, 61, 0
4, 720, Note_on_c, 0, 73, 88
4, 1073, Note_off_c, 0, 73, 0
4, 1080, Note_on_c, 0, 71, 88
4, 1196, Note_off_c, 0, 71, 0
4, 1200, Note_on_c, 0, 69, 88
4, 1434, Note_off_c, 0, 69, 0
4, 1440, Note_on_c, 0, 69, 88
4, 1527, Note_off_c, 0, 69, 0
4, 1530, Note_on_c, 0, 68, 88
4, 1574, Note_off_c, 0, 68, 0
4, 1575, Note_on_c, 0, 69, 88
4, 1619, Note_off_c, 0, 69, 0
4, 1620, Note_on_c, 0, 68, 88
4, 1664, Note_off_c, 0, 68, 0
4, 1665, Note_on_c, 0, 69, 88
4, 1709, Note_off_c, 0, 69, 0
4, 1710, Note_on_c, 0, 68, 88
4, 1754, Note_off_c, 0, 68, 0
4, 1755, Note_on_c, 0, 69, 88
4, 1799, Note_off_c, 0, 69, 0
4, 1800, Note_on_c, 0, 68, 88
4, 1844, Note_off_c, 0, 68, 0
4, 1845, Note_on_c, 0, 69, 88
4, 1889, Note_off_c, 0, 69, 0
4, 1890, Note_on_c, 0, 68, 88
4, 1934, Note_off_c, 0, 68, 0
4, 1935, Note_on_c, 0, 69, 88
4, 1979, Note_off_c, 0, 69, 0
4, 1980, Note_on_c, 0, 68, 88
4, 2009, Note_off_c, 0, 68, 0
4, 2010, Note_on_c, 0, 69, 88
4, 2039, Note_off_c, 0, 69, 0
4, 2040, Note_on_c, 0, 68, 88
4, 2630, Note_off_c, 0, 68, 0
4, 2640, Note_on_c, 0, 66, 88
4, 2874, Note_off_c, 0, 66, 0
4, 2880, Note_on_c, 0, 75, 88
4, 2996, Note_off_c, 0, 75, 0
4, 3000, Note_on_c, 0, 73, 88
4, 3116, Note_off_c, 0, 73, 0
4, 3120, Note_on_c, 0, 72, 88
4, 3236, Note_off_c, 0, 72, 0
4, 3240, Note_on_c, 0, 70, 88
4, 3356, Note_off_c, 0, 70, 0
4, 3360, Note_on_c, 0, 72, 88
4, 3476, Note_off_c, 0, 72, 0
4, 3480, Note_on_c, 0, 68, 88
4, 3596, Note_off_c, 0, 68, 0
4, 3600, Note_on_c, 0, 80, 88
4, 3953, Note_off_c, 0, 80, 0
4, 3960, Note_on_c, 0, 78, 88
4, 4076, Note_off_c, 0, 78, 0
4, 4080, Note_on_c, 0, 76, 88
4, 4314, Note_off_c, 0, 76, 0
4, 4320, Note_on_c, 0, 76, 88
4, 4436, Note_off_c, 0, 76, 0
4, 4440, Note_on_c, 0, 75, 88
4, 5503, Note_off_c, 0, 75, 0
4, 5520, Note_on_c, 0, 80, 88
4, 5754, Note_off_c, 0, 80, 0
4, 5760, Note_on_c, 0, 75, 88
4, 5818, Note_off_c, 0, 75, 0
4, 5820, Note_on_c, 0, 73, 88
4, 5878, Note_off_c, 0, 73, 0
4, 5880, Note_on_c, 0, 72, 88
4, 5996, Note_off_c, 0, 72, 0
4, 6000, Note_on_c, 0, 73, 88
4, 6116, Note_off_c, 0, 73, 0
4, 6120, Note_on_c, 0, 76, 88
4, 6236, Note_off_c, 0, 76, 0
4, 6240, Note_on_c, 0, 81, 88
4, 6593, Note_off_c, 0, 81, 0
4, 6600, Note_on_c, 0, 80, 88
4, 6716, Note_off_c, 0, 80, 0
4, 6720, Note_on_c, 0, 78, 88
4, 6836, Note_off_c, 0, 78, 0
4, 6840, Note_on_c, 0, 76, 88
4, 6956, Note_off_c, 0, 76, 0
4, 6960, Note_on_c, 0, 75, 88
4, 7076, Note_off_c, 0, 75, 0
4, 7080, Note_on_c, 0, 73, 88
4, 7196, Note_off_c, 0, 73, 0
4, 7200, Note_on_c, 0, 73, 88
4, 7258, Note_off_c, 0, 73, 0
4, 7260, Note_on_c, 0, 71, 88
4, 7318, Note_off_c, 0, 71, 0
4, 7320, Note_on_c, 0, 69, 88
4, 7436, Note_off_c, 0, 69, 0
4, 7440, Note_on_c, 0, 71, 88
4, 7556, Note_off_c, 0, 71, 0
4, 7560, Note_on_c, 0, 75, 88
4, 7676, Note_off_c, 0, 75, 0
4, 7680, Note_on_c, 0, 80, 88
4, 8033, Note_off_c, 0, 80, 0
4, 8040, Note_on_c, 0, 78, 88
4, 8156, Note_off_c, 0, 78, 0
4, 8160, Note_on_c, 0, 76, 88
4, 8276, Note_off_c, 0, 76, 0
4, 8280, Note_on_c, 0, 75, 88
4, 8396, Note_off_c, 0, 75, 0
4, 8400, Note_on_c, 0, 73, 88
4, 8516, Note_off_c, 0, 73, 0
4, 8520, Note_on_c, 0, 71, 88
4, 8636, Note_off_c, 0, 71, 0
4, 8640, Note_on_c, 0, 71, 88
4, 8698, Note_off_c, 0, 71, 0
4, 8700, Note_on_c, 0, 69, 88
4, 8758, Note_off_c, 0, 69, 0
4, 8760, Note_on_c, 0, 68, 88
4, 8876, Note_off_c, 0, 68, 0
4, 8880, Note_on_c, 0, 69, 88
4, 8996, Note_off_c, 0, 69, 0
4, 9000, Note_on_c, 0, 73, 88
4, 9116, Note_off_c, 0, 73, 0
4, 9120, Note_on_c, 0, 78, 88
4, 9473, Note_off_c, 0, 78, 0
4, 9480, Note_on_c, 0, 76, 88
4, 9596, Note_off_c, 0, 76, 0
4, 9600, Note_on_c, 0, 75, 88
4, 9716, Note_off_c, 0, 75, 0
4, 9720, Note_on_c, 0, 73, 88
4, 9836, Note_off_c, 0, 73, 0
4, 9840, Note_on_c, 0, 71, 88
4, 9956, Note_off_c, 0, 71, 0
4, 9960, Note_on_c, 0, 69, 88
4, 10076, Note_off_c, 0, 69, 0
4, 10080, Note_on_c, 0, 69, 88
4, 10153, Note_off_c, 0, 69, 0
4, 10155, Note_on_c, 0, 68, 88
4, 10199, Note_off_c, 0, 68, 0
4, 10200, Note_on_c, 0, 69, 88
4, 10244, Note_off_c, 0, 69, 0
4, 10245, Note_on_c, 0, 68, 88
4, 10289, Note_off_c, 0, 68, 0
4, 10290, Note_on_c, 0, 69, 88
4, 10334, Note_off_c, 0, 69, 0
4, 10335, Note_on_c, 0, 68, 88
4, 10364, Note_off_c, 0, 68, 0
4, 10365, Note_on_c, 0, 69, 88
4, 10394, Note_off_c, 0, 69, 0
4, 10395, Note_on_c, 0, 68, 88
4, 10424, Note_off_c, 0, 68, 0
4, 10425, Note_on_c, 0, 69, 88
4, 10454, Note_off_c, 0, 69, 0
4, 10455, Note_on_c, 0, 68, 88
4, 10484, Note_off_c, 0, 68, 0
4, 10485, Note_on_c, 0, 69, 88
4, 10514, Note_off_c, 0, 69, 0
4, 10515, Note_on_c, 0, 68, 88
4, 11150, Note_off_c, 0, 68, 0
4, 11160, Note_on_c, 0, 66, 88
4, 11276, Note_off_c, 0, 66, 0
4, 11280, Note_on_c, 0, 69, 88
4, 11324, Note_off_c, 0, 69, 0
4, 11325, Note_on_c, 0, 68, 88
4, 11383, Note_off_c, 0, 68, 0
4, 11385, Note_on_c, 0, 69, 88
4, 11516, Note_off_c, 0, 69, 0
4, 11520, Note_on_c, 0, 69, 88
4, 11636, Note_off_c, 0, 69, 0
4, 11640, Note_on_c, 0, 68, 88
4, 11756, Note_off_c, 0, 68, 0
4, 11760, Note_on_c, 0, 66, 88
4, 11876, Note_off_c, 0, 66, 0
4, 11880, Note_on_c, 0, 64, 88
4, 11996, Note_off_c, 0, 64, 0
4, 12000, Note_on_c, 0, 66, 88
4, 12116, Note_off_c, 0, 66, 0
4, 12120, Note_on_c, 0, 63, 88
4, 12236, Note_off_c, 0, 63, 0
4, 12240, Note_on_c, 0, 75, 88
4, 12356, Note_off_c, 0, 75, 0
4, 12360, Note_on_c, 0, 73, 88
4, 12476, Note_off_c, 0, 73, 0
4, 12480, Note_on_c, 0, 72, 88
4, 12596, Note_off_c, 0, 72, 0
4, 12600, Note_on_c, 0, 70, 88
4, 12716, Note_off_c, 0, 70, 0
4, 12720, Note_on_c, 0, 72, 88
4, 12836, Note_off_c, 0, 72, 0
4, 12840, Note_on_c, 0, 68, 88
4, 12956, Note_off_c, 0, 68, 0
4, 12960, Note_on_c, 0, 81, 88
4, 13076, Note_off_c, 0, 81, 0
4, 13080, Note_on_c, 0, 80, 88
4, 13196, Note_off_c, 0, 80, 0
4, 13200, Note_on_c, 0, 78, 88
4, 13316, Note_off_c, 0, 78, 0
4, 13320, Note_on_c, 0, 76, 88
4, 13436, Note_off_c, 0, 76, 0
4, 13440, Note_on_c, 0, 78, 88
4, 13556, Note_off_c, 0, 78, 0
4, 13560, Note_on_c, 0, 75, 88
4, 13676, Note_off_c, 0, 75, 0
4, 13680, Note_on_c, 0, 76, 88
4, 14753, Note_off_c, 0, 76, 0
4, 14760, Note_on_c, 0, 75, 88
4, 14876, Note_off_c, 0, 75, 0
4, 14880, Note_on_c, 0, 73, 88
4, 15098, Note_off_c, 0, 73, 0
4, 15120, Note_on_c, 0, 73, 88
4, 15473, Note_off_c, 0, 73, 0
4, 15480, Note_on_c, 0, 71, 88
4, 15596, Note_off_c, 0, 71, 0
4, 15600, Note_on_c, 0, 70, 88
4, 15834, Note_off_c, 0, 70, 0
4, 15840, Note_on_c, 0, 70, 88
4, 15956, Note_off_c, 0, 70, 0
4, 15960, Note_on_c, 0, 68, 88
4, 16076, Note_off_c, 0, 68, 0
4, 16080, Note_on_c, 0, 67, 88
4, 16196, Note_off_c, 0, 67, 0
4, 16200, Note_on_c, 0, 65, 88
4, 16316, Note_off_c, 0, 65, 0
4, 16320, Note_on_c, 0, 67, 88
4, 16436, Note_off_c, 0, 67, 0
4, 16440, Note_on_c, 0, 63, 88
4, 16556, Note_off_c, 0, 63, 0
4, 16560, Note_on_c, 0, 75, 88
4, 17396, Note_off_c, 0, 75, 0
4, 17400, Note_on_c, 0, 72, 88
4, 17516, Note_off_c, 0, 72, 0
4, 17520, Note_on_c, 0, 73, 88
4, 17636, Note_off_c, 0, 73, 0
4, 17640, Note_on_c, 0, 75, 88
4, 17756, Note_off_c, 0, 75, 0
4, 17760, Note_on_c, 0, 76, 88
4, 17876, Note_off_c, 0, 76, 0
4, 17880, Note_on_c, 0, 75, 88
4, 17996, Note_off_c, 0, 75, 0
4, 18000, Note_on_c, 0, 73, 88
4, 18102, Note_off_c, 0, 73, 0
4, 18105, Note_on_c, 0, 71, 88
4, 18355, Note_off_c, 0, 71, 0
4, 18360, Note_on_c, 0, 73, 88
4, 18476, Note_off_c, 0, 73, 0
4, 18480, Note_on_c, 0, 70, 88
4, 18524, Note_off_c, 0, 70, 0
4, 18525, Note_on_c, 0, 71, 88
4, 18569, Note_off_c, 0, 71, 0
4, 18570, Note_on_c, 0, 70, 88
4, 18614, Note_off_c, 0, 70, 0
4, 18615, Note_on_c, 0, 68, 88
4, 18644, Note_off_c, 0, 68, 0
4, 18645, Note_on_c, 0, 70, 88
4, 18718, Note_off_c, 0, 70, 0
4, 18720, Note_on_c, 0, 68, 88
4, 19901, Note_off_c, 0, 68, 0
4, 19920, Note_on_c, 0, 71, 88
4, 19964, Note_off_c, 0, 71, 0
4, 19965, Note_on_c, 0, 70, 88
4, 20023, Note_off_c, 0, 70, 0
4, 20025, Note_on_c, 0, 71, 88
4, 20156, Note_off_c, 0, 71, 0
4, 20160, Note_on_c, 0, 71, 88
4, 20276, Note_off_c, 0, 71, 0
4, 20280, Note_on_c, 0, 68, 88
4, 20396, Note_off_c, 0, 68, 0
4, 20400, Note_on_c, 0, 70, 88
4, 20516, Note_off_c, 0, 70, 0
4, 20520, Note_on_c, 0, 73, 88
4, 20636, Note_off_c, 0, 73, 0
4, 20640, Note_on_c, 0, 76, 88
4, 20993, Note_off_c, 0, 76, 0
4, 21000, Note_on_c, 0, 75, 88
4, 21116, Note_off_c, 0, 75, 0
4, 21120, Note_on_c, 0, 76, 88
4, 21236, Note_off_c, 0, 76, 0
4, 21240, Note_on_c, 0, 80, 88
4, 21356, Note_off_c, 0, 80, 0
4, 21360, Note_on_c, 0, 78, 88
4, 21594, Note_off_c, 0, 78, 0
4, 21600, Note_on_c, 0, 75, 88
4, 22320, Note_on_c, 0, 71, 88
4, 22554, Note_off_c, 0, 71, 0
4, 22781, Note_off_c, 0, 75, 0
4, 22800, Note_on_c, 0, 73, 88
4, 23156, Note_off_c, 0, 73, 0
4, 23160, Note_on_c, 0, 70, 88
4, 23276, Note_off_c, 0, 70, 0
4, 23280, Note_on_c, 0, 72, 88
4, 23396, Note_off_c, 0, 72, 0
4, 23400, Note_on_c, 0, 75, 88
4, 23516, Note_off_c, 0, 75, 0
4, 23520, Note_on_c, 0, 78, 88
4, 23636, Note_off_c, 0, 78, 0
4, 23640, Note_on_c, 0, 80, 88
4, 23756, Note_off_c, 0, 80, 0
4, 23760, Note_on_c, 0, 81, 88
4, 23876, Note_off_c, 0, 81, 0
4, 23880, Note_on_c, 0, 80, 88
4, 23996, Note_off_c, 0, 80, 0
4, 24000, Note_on_c, 0, 78, 88
4, 24116, Note_off_c, 0, 78, 0
4, 24120, Note_on_c, 0, 76, 88
4, 24236, Note_off_c, 0, 76, 0
4, 24240, Note_on_c, 0, 78, 88
4, 24356, Note_off_c, 0, 78, 0
4, 24360, Note_on_c, 0, 75, 88
4, 24476, Note_off_c, 0, 75, 0
4, 24480, Note_on_c, 0, 76, 88
4, 26036, Note_off_c, 0, 76, 0
4, 26040, Note_on_c, 0, 74, 88
4, 26156, Note_off_c, 0, 74, 0
4, 26160, Note_on_c, 0, 77, 88
4, 26276, Note_off_c, 0, 77, 0
4, 26280, Note_on_c, 0, 80, 88
4, 26396, Note_off_c, 0, 80, 0
4, 26400, Note_on_c, 0, 83, 88
4, 26753, Note_off_c, 0, 83, 0
4, 26760, Note_on_c, 0, 74, 88
4, 26876, Note_off_c, 0, 74, 0
4, 26880, Note_on_c, 0, 73, 88
4, 26996, Note_off_c, 0, 73, 0
4, 27000, Note_on_c, 0, 71, 88
4, 27116, Note_off_c, 0, 71, 0
4, 27120, Note_on_c, 0, 69, 88
4, 27236, Note_off_c, 0, 69, 0
4, 27240, Note_on_c, 0, 68, 88
4, 27356, Note_off_c, 0, 68, 0
4, 27360, Note_on_c, 0, 69, 88
4, 27404, Note_off_c, 0, 69, 0
4, 27405, Note_on_c, 0, 68, 88
4, 27463, Note_off_c, 0, 68, 0
4, 27465, Note_on_c, 0, 69, 88
4, 28188, Note_off_c, 0, 69, 0
4, 28200, Note_on_c, 0, 68, 88
4, 28316, Note_off_c, 0, 68, 0
4, 28320, Note_on_c, 0, 69, 88
4, 28436, Note_off_c, 0, 69, 0
4, 28440, Note_on_c, 0, 73, 88
4, 28556, Note_off_c, 0, 73, 0
4, 28560, Note_on_c, 0, 78, 88
4, 28916, Note_off_c, 0, 78, 0
4, 28920, Note_on_c, 0, 76, 88
4, 29036, Note_off_c, 0, 76, 0
4, 29040, Note_on_c, 0, 75, 88
4, 29156, Note_off_c, 0, 75, 0
4, 29160, Note_on_c, 0, 73, 88
4, 29276, Note_off_c, 0, 73, 0
4, 29280, Note_on_c, 0, 71, 88
4, 29396, Note_off_c, 0, 71, 0
4, 29400, Note_on_c, 0, 69, 88
4, 29498, Note_off_c, 0, 69, 0
4, 29520, Note_on_c, 0, 69, 88
4, 29578, Note_off_c, 0, 69, 0
4, 29580, Note_on_c, 0, 68, 88
4, 29638, Note_off_c, 0, 68, 0
4, 29640, Note_on_c, 0, 66, 88
4, 29756, Note_off_c, 0, 66, 0
4, 29760, Note_on_c, 0, 68, 88
4, 29876, Note_off_c, 0, 68, 0
4, 29880, Note_on_c, 0, 71, 88
4, 29996, Note_off_c, 0, 71, 0
4, 30000, Note_on_c, 0, 76, 88
4, 30356, Note_off_c, 0, 76, 0
4, 30360, Note_on_c, 0, 75, 88
4, 30476, Note_off_c, 0, 75, 0
4, 30480, Note_on_c, 0, 73, 88
4, 30596, Note_off_c, 0, 73, 0
4, 30600, Note_on_c, 0, 71, 88
4, 30716, Note_off_c, 0, 71, 0
4, 30720, Note_on_c, 0, 69, 88
4, 30836, Note_off_c, 0, 69, 0
4, 30840, Note_on_c, 0, 68, 88
4, 30938, Note_off_c, 0, 68, 0
4, 30960, Note_on_c, 0, 68, 88
4, 31018, Note_off_c, 0, 68, 0
4, 31020, Note_on_c, 0, 66, 88
4, 31078, Note_off_c, 0, 66, 0
4, 31080, Note_on_c, 0, 64, 88
4, 31196, Note_off_c, 0, 64, 0
4, 31200, Note_on_c, 0, 66, 88
4, 31316, Note_off_c, 0, 66, 0
4, 31320, Note_on_c, 0, 69, 88
4, 31436, Note_off_c, 0, 69, 0
4, 31440, Note_on_c, 0, 75, 88
4, 31796, Note_off_c, 0, 75, 0
4, 31800, Note_on_c, 0, 73, 88
4, 31916, Note_off_c, 0, 73, 0
4, 31920, Note_on_c, 0, 72, 88
4, 32036, Note_off_c, 0, 72, 0
4, 32040, Note_on_c, 0, 70, 88
4, 32156, Note_off_c, 0, 70, 0
4, 32160, Note_on_c, 0, 68, 88
4, 32276, Note_off_c, 0, 68, 0
4, 32280, Note_on_c, 0, 66, 88
4, 32378, Note_off_c, 0, 66, 0
4, 32400, Note_on_c, 0, 66, 88
4, 32458, Note_off_c, 0, 66, 0
4, 32460, Note_on_c, 0, 64, 88
4, 32518, Note_off_c, 0, 64, 0
4, 32520, Note_on_c, 0, 63, 88
4, 32636, Note_off_c, 0, 63, 0
4, 32640, Note_on_c, 0, 64, 88
4, 32756, Note_off_c, 0, 64, 0
4, 32760, Note_on_c, 0, 68, 88
4, 32876, Note_off_c, 0, 68, 0
4, 32880, Note_on_c, 0, 73, 88
4, 33236, Note_off_c, 0, 73, 0
4, 33240, Note_on_c, 0, 71, 88
4, 33356, Note_off_c, 0, 71, 0
4, 33360, Note_on_c, 0, 69, 88
4, 33476, Note_off_c, 0, 69, 0
4, 33480, Note_on_c, 0, 68, 88
4, 33596, Note_off_c, 0, 68, 0
4, 33600, Note_on_c, 0, 69, 88
4, 33716, Note_off_c, 0, 69, 0
4, 33720, Note_on_c, 0, 66, 88
4, 33836, Note_off_c, 0, 66, 0
4, 33840, Note_on_c, 0, 78, 88
4, 33956, Note_off_c, 0, 78, 0
4, 33960, Note_on_c, 0, 76, 88
4, 34076, Note_off_c, 0, 76, 0
4, 34080, Note_on_c, 0, 74, 88
4, 34196, Note_off_c, 0, 74, 0
4, 34200, Note_on_c, 0, 73, 88
4, 34316, Note_off_c, 0, 73, 0
4, 34320, Note_on_c, 0, 74, 88
4, 34436, Note_off_c, 0, 74, 0
4, 34440, Note_on_c, 0, 69, 88
4, 34556, Note_off_c, 0, 69, 0
4, 34560, Note_on_c, 0, 81, 88
4, 34676, Note_off_c, 0, 81, 0
4, 34680, Note_on_c, 0, 80, 88
4, 34796, Note_off_c, 0, 80, 0
4, 34800, Note_on_c, 0, 78, 88
4, 34916, Note_off_c, 0, 78, 0
4, 34920, Note_on_c, 0, 76, 88
4, 35036, Note_off_c, 0, 76, 0
4, 35040, Note_on_c, 0, 78, 88
4, 35156, Note_off_c, 0, 78, 0
4, 35160, Note_on_c, 0, 75, 88
4, 35276, Note_off_c, 0, 75, 0
4, 35280, Note_on_c, 0, 84, 88
4, 35750, Note_off_c, 0, 84, 0
4, 35760, Note_on_c, 0, 80, 88
4, 35994, Note_off_c, 0, 80, 0
4, 36000, Note_on_c, 0, 80, 88
4, 36827, Note_off_c, 0, 80, 0
4, 36840, Note_on_c, 0, 78, 88
4, 36956, Note_off_c, 0, 78, 0
4, 36960, Note_on_c, 0, 76, 88
4, 37076, Note_off_c, 0, 76, 0
4, 37080, Note_on_c, 0, 75, 88
4, 37196, Note_off_c, 0, 75, 0
4, 37200, Note_on_c, 0, 76, 88
4, 37316, Note_off_c, 0, 76, 0
4, 37320, Note_on_c, 0, 73, 88
4, 37436, Note_off_c, 0, 73, 0
4, 37440, Note_on_c, 0, 78, 88
4, 38267, Note_off_c, 0, 78, 0
4, 38280, Note_on_c, 0, 76, 88
4, 38396, Note_off_c, 0, 76, 0
4, 38400, Note_on_c, 0, 75, 88
4, 38516, Note_off_c, 0, 75, 0
4, 38520, Note_on_c, 0, 73, 88
4, 38636, Note_off_c, 0, 73, 0
4, 38640, Note_on_c, 0, 75, 88
4, 38756, Note_off_c, 0, 75, 0
4, 38760, Note_on_c, 0, 68, 88
4, 38876, Note_off_c, 0, 68, 0
4, 38880, Note_on_c, 0, 76, 88
4, 39707, Note_off_c, 0, 76, 0
4, 39720, Note_on_c, 0, 75, 88
4, 39836, Note_off_c, 0, 75, 0
4, 39840, Note_on_c, 0, 76, 88
4, 39956, Note_off_c, 0, 76, 0
4, 39960, Note_on_c, 0, 78, 88
4, 40076, Note_off_c, 0, 78, 0
4, 40080, Note_on_c, 0, 80, 88
4, 40196, Note_off_c, 0, 80, 0
4, 40200, Note_on_c, 0, 81, 88
4, 40316, Note_off_c, 0, 81, 0
4, 40320, Note_on_c, 0, 73, 88
4, 40349, Note_off_c, 0, 73, 0
4, 40350, Note_on_c, 0, 72, 88
4, 40394, Note_off_c, 0, 72, 0
4, 40395, Note_on_c, 0, 73, 88
4, 40424, Note_off_c, 0, 73, 0
4, 40425, Note_on_c, 0, 72, 88
4, 40454, Note_off_c, 0, 72, 0
4, 40455, Note_on_c, 0, 73, 88
4, 40484, Note_off_c, 0, 73, 0
4, 40485, Note_on_c, 0, 72, 88
4, 40514, Note_off_c, 0, 72, 0
4, 40515, Note_on_c, 0, 73, 88
4, 40544, Note_off_c, 0, 73, 0
4, 40545, Note_on_c, 0, 72, 88
4, 40676, Note_off_c, 0, 72, 0
4, 40680, Note_on_c, 0, 73, 88
4, 40796, Note_off_c, 0, 73, 0
4, 40800, Note_on_c, 0, 75, 88
4, 41034, Note_off_c, 0, 75, 0
4, 41040, Note_on_c, 0, 66, 88
4, 41876, Note_off_c, 0, 66, 0
4, 41880, Note_on_c, 0, 64, 88
4, 41996, Note_off_c, 0, 64, 0
4, 42000, Note_on_c, 0, 63, 88
4, 42116, Note_off_c, 0, 63, 0
4, 42120, Note_on_c, 0, 61, 88
4, 42236, Note_off_c, 0, 61, 0
4, 42240, Note_on_c, 0, 63, 88
4, 42356, Note_off_c, 0, 63, 0
4, 42360, Note_on_c, 0, 60, 88
4, 42476, Note_off_c, 0, 60, 0
4, 42480, Note_on_c, 0, 69, 88
4, 42596, Note_off_c, 0, 69, 0
4, 42600, Note_on_c, 0, 68, 88
4, 42716, Note_off_c, 0, 68, 0
4, 42720, Note_on_c, 0, 66, 88
4, 42836, Note_off_c, 0, 66, 0
4, 42840, Note_on_c, 0, 64, 88
4, 42956, Note_off_c, 0, 64, 0
4, 42960, Note_on_c, 0, 66, 88
4, 43076, Note_off_c, 0, 66, 0
4, 43080, Note_on_c, 0, 63, 88
4, 43196, Note_off_c, 0, 63, 0
4, 43200, Note_on_c, 0, 72, 88
4, 43316, Note_off_c, 0, 72, 0
4, 43320, Note_on_c, 0, 69, 88
4, 43436, Note_off_c, 0, 69, 0
4, 43440, Note_on_c, 0, 68, 88
4, 43556, Note_off_c, 0, 68, 0
4, 43560, Note_on_c, 0, 66, 88
4, 43676, Note_off_c, 0, 66, 0
4, 43680, Note_on_c, 0, 68, 88
4, 43796, Note_off_c, 0, 68, 0
4, 43800, Note_on_c, 0, 63, 88
4, 43916, Note_off_c, 0, 63, 0
4, 43920, Note_on_c, 0, 75, 88
4, 44036, Note_off_c, 0, 75, 0
4, 44040, Note_on_c, 0, 73, 88
4, 44156, Note_off_c, 0, 73, 0
4, 44160, Note_on_c, 0, 72, 88
4, 44276, Note_off_c, 0, 72, 0
4, 44280, Note_on_c, 0, 70, 88
4, 44396, Note_off_c, 0, 70, 0
4, 44400, Note_on_c, 0, 72, 88
4, 44516, Note_off_c, 0, 72, 0
4, 44520, Note_on_c, 0, 68, 88
4, 44636, Note_off_c, 0, 68, 0
4, 44640, Note_on_c, 0, 80, 88
4, 44874, Note_off_c, 0, 80, 0
4, 44880, Note_on_c, 0, 78, 88
4, 44996, Note_off_c, 0, 78, 0
4, 45000, Note_on_c, 0, 76, 88
4, 45116, Note_off_c, 0, 76, 0
4, 45120, Note_on_c, 0, 75, 88
4, 45236, Note_off_c, 0, 75, 0
4, 45240, Note_on_c, 0, 73, 88
4, 45356, Note_off_c, 0, 73, 0
4, 45360, Note_on_c, 0, 72, 88
4, 45476, Note_off_c, 0, 72, 0
4, 45480, Note_on_c, 0, 73, 88
4, 45596, Note_off_c, 0, 73, 0
4, 45600, Note_on_c, 0, 75, 88
4, 45716, Note_off_c, 0, 75, 0
4, 45720, Note_on_c, 0, 78, 88
4, 45836, Note_off_c, 0, 78, 0
4, 45840, Note_on_c, 0, 69, 88
4, 46196, Note_off_c, 0, 69, 0
4, 46200, Note_on_c, 0, 68, 88
4, 46316, Note_off_c, 0, 68, 0
4, 46320, Note_on_c, 0, 69, 88
4, 46436, Note_off_c, 0, 69, 0
4, 46440, Note_on_c, 0, 66, 88
4, 46556, Note_off_c, 0, 66, 0
4, 46560, Note_on_c, 0, 81, 88
4, 47030, Note_off_c, 0, 81, 0
4, 47040, Note_on_c, 0, 80, 88
4, 47156, Note_off_c, 0, 80, 0
4, 47160, Note_on_c, 0, 78, 88
4, 47276, Note_off_c, 0, 78, 0
4, 47280, Note_on_c, 0, 76, 88
4, 47396, Note_off_c, 0, 76, 0
4, 47400, Note_on_c, 0, 75, 88
4, 47516, Note_off_c, 0, 75, 0
4, 47520, Note_on_c, 0, 76, 88
4, 48110, Note_off_c, 0, 76, 0
4, 48120, Note_on_c, 0, 81, 88
4, 48236, Note_off_c, 0, 81, 0
4, 48240, Note_on_c, 0, 76, 88
4, 48593, Note_off_c, 0, 76, 0
4, 48600, Note_on_c, 0, 78, 88
4, 48716, Note_off_c, 0, 78, 0
4, 48720, Note_on_c, 0, 75, 88
4, 48764, Note_off_c, 0, 75, 0
4, 48765, Note_on_c, 0, 76, 88
4, 48809, Note_off_c, 0, 76, 0
4, 48810, Note_on_c, 0, 75, 88
4, 48854, Note_off_c, 0, 75, 0
4, 48855, Note_on_c, 0, 73, 88
4, 48884, Note_off_c, 0, 73, 0
4, 48885, Note_on_c, 0, 75, 88
4, 48958, Note_off_c, 0, 75, 0
4, 48960, Note_on_c, 0, 73, 88
4, 50023, Note_off_c, 0, 73, 0
4, 50040, Note_on_c, 0, 76, 88
4, 50156, Note_off_c, 0, 76, 0
4, 50160, Note_on_c, 0, 75, 88
4, 50394, Note_off_c, 0, 75, 0
4, 50400, Note_on_c, 0, 76, 88
4, 51463, Note_off_c, 0, 76, 0
4, 51480, Note_on_c, 0, 72, 88
4, 51596, Note_off_c, 0, 72, 0
4, 51600, Note_on_c, 0, 73, 88
4, 51834, Note_off_c, 0, 73, 0
4, 51840, Note_on_c, 0, 79, 88
4, 53021, Note_off_c, 0, 79, 0
4, 53040, Note_on_c, 0, 80, 88
4, 53274, Note_off_c, 0, 80, 0
4, 53280, Note_on_c, 0, 73, 88
4, 54343, Note_off_c, 0, 73, 0
4, 54360, Note_on_c, 0, 75, 88
4, 54476, Note_off_c, 0, 75, 0
4, 54480, Note_on_c, 0, 72, 88
4, 54714, Note_off_c, 0, 72, 0
4, 54720, Note_on_c, 0, 73, 88
4, 55310, Note_off_c, 0, 73, 0
4, 55320, Note_on_c, 0, 72, 88
4, 55436, Note_off_c, 0, 72, 0
4, 55440, Note_on_c, 0, 73, 88
4, 56148, Note_off_c, 0, 73, 0
4, 56148, End_track
5, 0, Start_track
5, 0, Title_t, "Track 2"
5, 0, Program_c, 1, 6
5, 22080, Note_on_c, 1, 71, 88
5, 22788, Note_off_c, 1, 71, 0
5, 24960, Note_on_c, 1, 73, 88
5, 25905, Note_off_c, 1, 73, 0
5, 51600, Note_on_c, 1, 73, 88
5, 51956, Note_off_c, 1, 73, 0
5, 51960, Note_on_c, 1, 75, 88
5, 52076, Note_off_c, 1, 75, 0
5, 52080, Note_on_c, 1, 76, 88
5, 52196, Note_off_c, 1, 76, 0
5, 52200, Note_on_c, 1, 75, 88
5, 52316, Note_off_c, 1, 75, 0
5, 52320, Note_on_c, 1, 73, 88
5, 52436, Note_off_c, 1, 73, 0
5, 52440, Note_on_c, 1, 71, 88
5, 52556, Note_off_c, 1, 71, 0
5, 53040, Note_on_c, 1, 72, 88
5, 53274, Note_off_c, 1, 72, 0
5, 54480, Note_on_c, 1, 63, 88
5, 54596, Note_off_c, 1, 63, 0
5, 54600, Note_on_c, 1, 66, 88
5, 54836, Note_off_c, 1, 66, 0
5, 54840, Note_on_c, 1, 68, 88
5, 54956, Note_off_c, 1, 68, 0
5, 54960, Note_on_c, 1, 69, 88
5, 55076, Note_off_c, 1, 69, 0
5, 55080, Note_on_c, 1, 66, 88
5, 55433, Note_off_c, 1, 66, 0
5, 55440, Note_on_c, 1, 68, 88
5, 56148, Note_off_c, 1, 68, 0
5, 56148, End_track
6, 0, Start_track
6, 0, Title_t, "Track 3"
6, 0, Program_c, 2, 6
6, 720, Note_on_c, 2, 64, 88
6, 720, Note_on_c, 2, 68, 88
6, 1190, Note_off_c, 2, 64, 0
6, 1190, Note_off_c, 2, 68, 0
6, 1200, Note_on_c, 2, 66, 88
6, 1434, Note_off_c, 2, 66, 0
6, 1440, Note_on_c, 2, 64, 88
6, 2621, Note_off_c, 2, 64, 0
6, 2640, Note_on_c, 2, 66, 88
6, 3588, Note_off_c, 2, 66, 0
6, 3600, Note_on_c, 2, 68, 88
6, 3600, Note_on_c, 2, 75, 88
6, 4058, Note_off_c, 2, 68, 0
6, 4070, Note_off_c, 2, 75, 0
6, 4080, Note_on_c, 2, 68, 88
6, 4080, Note_on_c, 2, 73, 88
6, 4314, Note_off_c, 2, 68, 0
6, 4314, Note_off_c, 2, 73, 0
6, 4320, Note_on_c, 2, 68, 88
6, 4320, Note_on_c, 2, 72, 88
6, 5498, Note_off_c, 2, 68, 0
6, 5498, Note_off_c, 2, 72, 0
6, 5520, Note_on_c, 2, 68, 88
6, 5520, Note_on_c, 2, 72, 88
6, 5754, Note_off_c, 2, 68, 0
6, 5754, Note_off_c, 2, 72, 0
6, 5760, Note_on_c, 2, 69, 88
6, 5994, Note_off_c, 2, 69, 0
6, 6480, Note_on_c, 2, 69, 88
6, 7188, Note_off_c, 2, 69, 0
6, 7200, Note_on_c, 2, 68, 88
6, 7434, Note_off_c, 2, 68, 0
6, 7920, Note_on_c, 2, 68, 88
6, 8628, Note_off_c, 2, 68, 0
6, 8640, Note_on_c, 2, 66, 88
6, 8874, Note_off_c, 2, 66, 0
6, 9360, Note_on_c, 2, 66, 88
6, 10068, Note_off_c, 2, 66, 0
6, 10080, Note_on_c, 2, 64, 88
6, 10788, Note_off_c, 2, 64, 0
6, 13800, Note_on_c, 2, 75, 88
6, 13916, Note_off_c, 2, 75, 0
6, 13920, Note_on_c, 2, 73, 88
6, 14036, Note_off_c, 2, 73, 0
6, 14040, Note_on_c, 2, 71, 88
6, 14156, Note_off_c, 2, 71, 0
6, 14160, Note_on_c, 2, 73, 88
6, 14276, Note_off_c, 2, 73, 0
6, 14280, Note_on_c, 2, 70, 88
6, 14396, Note_off_c, 2, 70, 0
6, 14400, Note_on_c, 2, 68, 88
6, 14487, Note_off_c, 2, 68, 0
6, 14490, Note_on_c, 2, 67, 88
6, 14755, Note_off_c, 2, 67, 0
6, 14760, Note_on_c, 2, 68, 88
6, 14876, Note_off_c, 2, 68, 0
6, 14880, Note_on_c, 2, 70, 88
6, 14909, Note_off_c, 2, 70, 0
6, 14910, Note_on_c, 2, 68, 88
6, 14954, Note_off_c, 2, 68, 0
6, 14955, Note_on_c, 2, 70, 88
6, 15116, Note_off_c, 2, 70, 0
6, 15120, Note_on_c, 2, 63, 88
6, 15473, Note_off_c, 2, 63, 0
6, 15480, Note_on_c, 2, 65, 88
6, 15596, Note_off_c, 2, 65, 0
6, 15600, Note_on_c, 2, 67, 88
6, 15629, Note_off_c, 2, 67, 0
6, 15630, Note_on_c, 2, 65, 88
6, 15674, Note_off_c, 2, 65, 0
6, 15675, Note_on_c, 2, 67, 88
6, 15836, Note_off_c, 2, 67, 0
6, 15840, Note_on_c, 2, 67, 88
6, 15956, Note_off_c, 2, 67, 0
6, 16560, Note_on_c, 2, 67, 88
6, 16560, Note_on_c, 2, 70, 88
6, 17030, Note_off_c, 2, 67, 0
6, 17030, Note_off_c, 2, 70, 0
6, 17040, Note_on_c, 2, 68, 88
6, 18461, Note_off_c, 2, 68, 0
6, 18480, Note_on_c, 2, 67, 88
6, 18714, Note_off_c, 2, 67, 0
6, 18720, Note_on_c, 2, 59, 88
6, 18720, Note_on_c, 2, 63, 88
6, 19901, Note_off_c, 2, 59, 0
6, 19901, Note_off_c, 2, 63, 0
6, 21720, Note_on_c, 2, 73, 88
6, 21836, Note_off_c, 2, 73, 0
6, 21840, Note_on_c, 2, 71, 88
6, 21956, Note_off_c, 2, 71, 0
6, 21960, Note_on_c, 2, 70, 88
6, 22076, Note_off_c, 2, 70, 0
6, 22080, Note_on_c, 2, 71, 88
6, 22196, Note_off_c, 2, 71, 0
6, 22200, Note_on_c, 2, 66, 88
6, 23274, Note_off_c, 2, 66, 0
6, 24600, Note_on_c, 2, 75, 88
6, 24716, Note_off_c, 2, 75, 0
6, 24720, Note_on_c, 2, 73, 88
6, 24836, Note_off_c, 2, 73, 0
6, 24840, Note_on_c, 2, 72, 88
6, 24956, Note_off_c, 2, 72, 0
6, 24960, Note_on_c, 2, 73, 88
6, 25076, Note_off_c, 2, 73, 0
6, 25080, Note_on_c, 2, 68, 88
6, 25907, Note_off_c, 2, 68, 0
6, 35160, Note_on_c, 2, 75, 88
6, 36353, Note_off_c, 2, 75, 0
6, 36360, Note_on_c, 2, 76, 88
6, 36476, Note_off_c, 2, 76, 0
6, 36480, Note_on_c, 2, 72, 88
6, 36714, Note_off_c, 2, 72, 0
6, 36720, Note_on_c, 2, 73, 88
6, 37793, Note_off_c, 2, 73, 0
6, 37800, Note_on_c, 2, 72, 88
6, 37916, Note_off_c, 2, 72, 0
6, 37920, Note_on_c, 2, 75, 88
6, 38154, Note_off_c, 2, 75, 0
6, 38160, Note_on_c, 2, 68, 88
6, 39233, Note_off_c, 2, 68, 0
6, 39240, Note_on_c, 2, 73, 88
6, 39356, Note_off_c, 2, 73, 0
6, 39360, Note_on_c, 2, 66, 88
6, 39476, Note_off_c, 2, 66, 0
6, 39480, Note_on_c, 2, 68, 88
6, 39596, Note_off_c, 2, 68, 0
6, 39600, Note_on_c, 2, 69, 88
6, 40308, Note_off_c, 2, 69, 0
6, 40320, Note_on_c, 2, 68, 88
6, 41028, Note_off_c, 2, 68, 0
6, 41040, Note_on_c, 2, 60, 88
6, 41040, Note_on_c, 2, 63, 88
6, 41748, Note_off_c, 2, 60, 0
6, 41748, Note_off_c, 2, 63, 0
6, 47640, Note_on_c, 2, 75, 88
6, 47756, Note_off_c, 2, 75, 0
6, 47760, Note_on_c, 2, 73, 88
6, 47876, Note_off_c, 2, 73, 0
6, 47880, Note_on_c, 2, 72, 88
6, 47996, Note_off_c, 2, 72, 0
6, 48000, Note_on_c, 2, 73, 88
6, 48218, Note_off_c, 2, 73, 0
6, 48240, Note_on_c, 2, 73, 88
6, 48710, Note_off_c, 2, 73, 0
6, 48720, Note_on_c, 2, 72, 88
6, 48954, Note_off_c, 2, 72, 0
6, 49080, Note_on_c, 2, 71, 88
6, 49196, Note_off_c, 2, 71, 0
6, 49200, Note_on_c, 2, 70, 88
6, 49316, Note_off_c, 2, 70, 0
6, 49320, Note_on_c, 2, 68, 88
6, 49436, Note_off_c, 2, 68, 0
6, 49440, Note_on_c, 2, 67, 88
6, 49556, Note_off_c, 2, 67, 0
6, 49560, Note_on_c, 2, 68, 88
6, 49658, Note_off_c, 2, 68, 0
6, 49680, Note_on_c, 2, 68, 88
6, 49753, Note_off_c, 2, 68, 0
6, 49755, Note_on_c, 2, 67, 88
6, 50390, Note_off_c, 2, 67, 0
6, 50400, Note_on_c, 2, 67, 88
6, 50516, Note_off_c, 2, 67, 0
6, 50520, Note_on_c, 2, 68, 88
6, 50636, Note_off_c, 2, 68, 0
6, 50640, Note_on_c, 2, 70, 88
6, 50756, Note_off_c, 2, 70, 0
6, 50760, Note_on_c, 2, 68, 88
6, 50876, Note_off_c, 2, 68, 0
6, 50880, Note_on_c, 2, 71, 88
6, 50996, Note_off_c, 2, 71, 0
6, 51000, Note_on_c, 2, 70, 88
6, 51098, Note_off_c, 2, 70, 0
6, 51120, Note_on_c, 2, 70, 88
6, 51956, Note_off_c, 2, 70, 0
6, 52560, Note_on_c, 2, 70, 88
6, 52676, Note_off_c, 2, 70, 0
6, 52680, Note_on_c, 2, 68, 88
6, 52796, Note_off_c, 2, 68, 0
6, 52800, Note_on_c, 2, 67, 88
6, 52916, Note_off_c, 2, 67, 0
6, 52920, Note_on_c, 2, 65, 88
6, 53036, Note_off_c, 2, 65, 0
6, 53040, Note_on_c, 2, 66, 88
6, 53156, Note_off_c, 2, 66, 0
6, 53160, Note_on_c, 2, 63, 88
6, 53276, Note_off_c, 2, 63, 0
6, 53280, Note_on_c, 2, 64, 88
6, 53396, Note_off_c, 2, 64, 0
6, 53400, Note_on_c, 2, 71, 88
6, 53516, Note_off_c, 2, 71, 0
6, 53520, Note_on_c, 2, 69, 88
6, 53636, Note_off_c, 2, 69, 0
6, 53640, Note_on_c, 2, 68, 88
6, 53756, Note_off_c, 2, 68, 0
6, 53760, Note_on_c, 2, 66, 88
6, 53876, Note_off_c, 2, 66, 0
6, 53880, Note_on_c, 2, 69, 88
6, 53996, Note_off_c, 2, 69, 0
6, 54000, Note_on_c, 2, 64, 88
6, 54353, Note_off_c, 2, 64, 0
6, 54360, Note_on_c, 2, 66, 88
6, 54476, Note_off_c, 2, 66, 0
6, 54480, Note_on_c, 2, 63, 88
6, 54714, Note_off_c, 2, 63, 0
6, 54720, Note_on_c, 2, 61, 88
6, 55190, Note_off_c, 2, 61, 0
6, 55200, Note_on_c, 2, 63, 88
6, 55434, Note_off_c, 2, 63, 0
6, 55440, Note_on_c, 2, 65, 88
6, 56148, Note_off_c, 2, 65, 0
6, 56148, End_track
7, 0, Start_track
7, 0, Title_t, "Track 4"
7, 0, Program_c, 3, 6
7, 1440, Note_on_c, 3, 56, 88
7, 1556, Note_off_c, 3, 56, 0
7, 1560, Note_on_c, 3, 54, 88
7, 1676, Note_off_c, 3, 54, 0
7, 1680, Note_on_c, 3, 52, 88
7, 1796, Note_off_c, 3, 52, 0
7, 1800, Note_on_c, 3, 51, 88
7, 1916, Note_off_c, 3, 51, 0
7, 1920, Note_on_c, 3, 52, 88
7, 2036, Note_off_c, 3, 52, 0
7, 2040, Note_on_c, 3, 49, 88
7, 2156, Note_off_c, 3, 49, 0
7, 2160, Note_on_c, 3, 52, 88
7, 2204, Note_off_c, 3, 52, 0
7, 2205, Note_on_c, 3, 56, 88
7, 2249, Note_off_c, 3, 56, 0
7, 2250, Note_on_c, 3, 61, 88
7, 2515, Note_off_c, 3, 61, 0
7, 2520, Note_on_c, 3, 59, 88
7, 2636, Note_off_c, 3, 59, 0
7, 2640, Note_on_c, 3, 57, 88
7, 2874, Note_off_c, 3, 57, 0
7, 2880, Note_on_c, 3, 56, 88
7, 4061, Note_off_c, 3, 56, 0
7, 4080, Note_on_c, 3, 61, 88
7, 4314, Note_off_c, 3, 61, 0
7, 4320, Note_on_c, 3, 63, 88
7, 4436, Note_off_c, 3, 63, 0
7, 4440, Note_on_c, 3, 61, 88
7, 4556, Note_off_c, 3, 61, 0
7, 4560, Note_on_c, 3, 60, 88
7, 4676, Note_off_c, 3, 60, 0
7, 4680, Note_on_c, 3, 58, 88
7, 4796, Note_off_c, 3, 58, 0
7, 4800, Note_on_c, 3, 60, 88
7, 4916, Note_off_c, 3, 60, 0
7, 4920, Note_on_c, 3, 56, 88
7, 5036, Note_off_c, 3, 56, 0
7, 5040, Note_on_c, 3, 60, 88
7, 5084, Note_off_c, 3, 60, 0
7, 5085, Note_on_c, 3, 63, 88
7, 5129, Note_off_c, 3, 63, 0
7, 5130, Note_on_c, 3, 66, 88
7, 5395, Note_off_c, 3, 66, 0
7, 5400, Note_on_c, 3, 64, 88
7, 5516, Note_off_c, 3, 64, 0
7, 5520, Note_on_c, 3, 63, 88
7, 5754, Note_off_c, 3, 63, 0
7, 5760, Note_on_c, 3, 64, 88
7, 6468, Note_off_c, 3, 64, 0
7, 6480, Note_on_c, 3, 63, 88
7, 7908, Note_off_c, 3, 63, 0
7, 7920, Note_on_c, 3, 61, 88
7, 9348, Note_off_c, 3, 61, 0
7, 9360, Note_on_c, 3, 59, 88
7, 10196, Note_off_c, 3, 59, 0
7, 10200, Note_on_c, 3, 57, 88
7, 10316, Note_off_c, 3, 57, 0
7, 10320, Note_on_c, 3, 56, 88
7, 10436, Note_off_c, 3, 56, 0
7, 10440, Note_on_c, 3, 54, 88
7, 10556, Note_off_c, 3, 54, 0
7, 10560, Note_on_c, 3, 56, 88
7, 10676, Note_off_c, 3, 56, 0
7, 10680, Note_on_c, 3, 52, 88
7, 10796, Note_off_c, 3, 52, 0
7, 10800, Note_on_c, 3, 56, 88
7, 10844, Note_off_c, 3, 56, 0
7, 10845, Note_on_c, 3, 59, 88
7, 10889, Note_off_c, 3, 59, 0
7, 10890, Note_on_c, 3, 64, 88
7, 11155, Note_off_c, 3, 64, 0
7, 11160, Note_on_c, 3, 63, 88
7, 11276, Note_off_c, 3, 63, 0
7, 11280, Note_on_c, 3, 61, 88
7, 11514, Note_off_c, 3, 61, 0
7, 11520, Note_on_c, 3, 60, 88
7, 13313, Note_off_c, 3, 60, 0
7, 13320, Note_on_c, 3, 61, 88
7, 13436, Note_off_c, 3, 61, 0
7, 13440, Note_on_c, 3, 63, 88
7, 13674, Note_off_c, 3, 63, 0
7, 13680, Note_on_c, 3, 61, 88
7, 14388, Note_off_c, 3, 61, 0
7, 18000, Note_on_c, 3, 51, 88
7, 18836, Note_off_c, 3, 51, 0
7, 18840, Note_on_c, 3, 49, 88
7, 18956, Note_off_c, 3, 49, 0
7, 18960, Note_on_c, 3, 47, 88
7, 19076, Note_off_c, 3, 47, 0
7, 19080, Note_on_c, 3, 46, 88
7, 19196, Note_off_c, 3, 46, 0
7, 19200, Note_on_c, 3, 47, 88
7, 19316, Note_off_c, 3, 47, 0
7, 19320, Note_on_c, 3, 44, 88
7, 19436, Note_off_c, 3, 44, 0
7, 19440, Note_on_c, 3, 47, 88
7, 19556, Note_off_c, 3, 47, 0
7, 19560, Note_on_c, 3, 51, 88
7, 19676, Note_off_c, 3, 51, 0
7, 19680, Note_on_c, 3, 56, 88
7, 19796, Note_off_c, 3, 56, 0
7, 19800, Note_on_c, 3, 52, 88
7, 19916, Note_off_c, 3, 52, 0
7, 19920, Note_on_c, 3, 54, 88
7, 20036, Note_off_c, 3, 54, 0
7, 20040, Note_on_c, 3, 51, 88
7, 20156, Note_off_c, 3, 51, 0
7, 20160, Note_on_c, 3, 52, 88
7, 20868, Note_off_c, 3, 52, 0
7, 20880, Note_on_c, 3, 54, 88
7, 20924, Note_off_c, 3, 54, 0
7, 20925, Note_on_c, 3, 52, 88
7, 20969, Note_off_c, 3, 52, 0
7, 20970, Note_on_c, 3, 54, 88
7, 21235, Note_off_c, 3, 54, 0
7, 21240, Note_on_c, 3, 56, 88
7, 21356, Note_off_c, 3, 56, 0
7, 21360, Note_on_c, 3, 58, 88
7, 21594, Note_off_c, 3, 58, 0
7, 22320, Note_on_c, 3, 63, 88
7, 23028, Note_off_c, 3, 63, 0
7, 23520, Note_on_c, 3, 51, 88
7, 24465, Note_off_c, 3, 51, 0
7, 25200, Note_on_c, 3, 64, 88
7, 25908, Note_off_c, 3, 64, 0
7, 26280, Note_on_c, 3, 61, 88
7, 26396, Note_off_c, 3, 61, 0
7, 26400, Note_on_c, 3, 62, 88
7, 26870, Note_off_c, 3, 62, 0
7, 26880, Note_on_c, 3, 56, 88
7, 27114, Note_off_c, 3, 56, 0
7, 27120, Note_on_c, 3, 61, 88
7, 27476, Note_off_c, 3, 61, 0
7, 27480, Note_on_c, 3, 59, 88
7, 27596, Note_off_c, 3, 59, 0
7, 27600, Note_on_c, 3, 57, 88
7, 27716, Note_off_c, 3, 57, 0
7, 27720, Note_on_c, 3, 56, 88
7, 27836, Note_off_c, 3, 56, 0
7, 27840, Note_on_c, 3, 57, 88
7, 27956, Note_off_c, 3, 57, 0
7, 27960, Note_on_c, 3, 54, 88
7, 28076, Note_off_c, 3, 54, 0
7, 28080, Note_on_c, 3, 66, 88
7, 28433, Note_off_c, 3, 66, 0
7, 28440, Note_on_c, 3, 64, 88
7, 28556, Note_off_c, 3, 64, 0
7, 28560, Note_on_c, 3, 63, 88
7, 28676, Note_off_c, 3, 63, 0
7, 28680, Note_on_c, 3, 61, 88
7, 28796, Note_off_c, 3, 61, 0
7, 28800, Note_on_c, 3, 59, 88
7, 29153, Note_off_c, 3, 59, 0
7, 29160, Note_on_c, 3, 61, 88
7, 29276, Note_off_c, 3, 61, 0
7, 29280, Note_on_c, 3, 63, 88
7, 29870, Note_off_c, 3, 63, 0
7, 29880, Note_on_c, 3, 56, 88
7, 29996, Note_off_c, 3, 56, 0
7, 30000, Note_on_c, 3, 61, 88
7, 30116, Note_off_c, 3, 61, 0
7, 30120, Note_on_c, 3, 60, 88
7, 30236, Note_off_c, 3, 60, 0
7, 30240, Note_on_c, 3, 61, 88
7, 30269, Note_off_c, 3, 61, 0
7, 30270, Note_on_c, 3, 60, 88
7, 30328, Note_off_c, 3, 60, 0
7, 30330, Note_on_c, 3, 61, 88
7, 31304, Note_off_c, 3, 61, 0
7, 31320, Note_on_c, 3, 60, 88
7, 31436, Note_off_c, 3, 60, 0
7, 31440, Note_on_c, 3, 61, 88
7, 31556, Note_off_c, 3, 61, 0
7, 31560, Note_on_c, 3, 58, 88
7, 31676, Note_off_c, 3, 58, 0
7, 31680, Note_on_c, 3, 60, 88
7, 31724, Note_off_c, 3, 60, 0
7, 31725, Note_on_c, 3, 58, 88
7, 31798, Note_off_c, 3, 58, 0
7, 31800, Note_on_c, 3, 60, 88
7, 32034, Note_off_c, 3, 60, 0
7, 32040, Note_on_c, 3, 61, 88
7, 32156, Note_off_c, 3, 61, 0
7, 32160, Note_on_c, 3, 63, 88
7, 32394, Note_off_c, 3, 63, 0
7, 32400, Note_on_c, 3, 61, 88
7, 33108, Note_off_c, 3, 61, 0
7, 33120, Note_on_c, 3, 57, 88
7, 33473, Note_off_c, 3, 57, 0
7, 33480, Note_on_c, 3, 59, 88
7, 33596, Note_off_c, 3, 59, 0
7, 33600, Note_on_c, 3, 61, 88
7, 33834, Note_off_c, 3, 61, 0
7, 33840, Note_on_c, 3, 62, 88
7, 33884, Note_off_c, 3, 62, 0
7, 33885, Note_on_c, 3, 61, 88
7, 33943, Note_off_c, 3, 61, 0
7, 33945, Note_on_c, 3, 62, 88
7, 34550, Note_off_c, 3, 62, 0
7, 34560, Note_on_c, 3, 60, 88
7, 35268, Note_off_c, 3, 60, 0
7, 35280, Note_on_c, 3, 66, 88
7, 35514, Note_off_c, 3, 66, 0
7, 48240, Note_on_c, 3, 56, 88
7, 49058, Note_off_c, 3, 56, 0
7, 49080, Note_on_c, 3, 56, 88
7, 49196, Note_off_c, 3, 56, 0
7, 49200, Note_on_c, 3, 55, 88
7, 49316, Note_off_c, 3, 55, 0
7, 49320, Note_on_c, 3, 56, 88
7, 49436, Note_off_c, 3, 56, 0
7, 49440, Note_on_c, 3, 58, 88
7, 49556, Note_off_c, 3, 58, 0
7, 49560, Note_on_c, 3, 51, 88
7, 49676, Note_off_c, 3, 51, 0
7, 49680, Note_on_c, 3, 52, 88
7, 50516, Note_off_c, 3, 52, 0
7, 50520, Note_on_c, 3, 51, 88
7, 50636, Note_off_c, 3, 51, 0
7, 50640, Note_on_c, 3, 49, 88
7, 50756, Note_off_c, 3, 49, 0
7, 50760, Note_on_c, 3, 47, 88
7, 50876, Note_off_c, 3, 47, 0
7, 50880, Note_on_c, 3, 49, 88
7, 50996, Note_off_c, 3, 49, 0
7, 51000, Note_on_c, 3, 52, 88
7, 51116, Note_off_c, 3, 52, 0
7, 51120, Note_on_c, 3, 55, 88
7, 51828, Note_off_c, 3, 55, 0
7, 54480, Note_on_c, 3, 44, 88
7, 54596, Note_off_c, 3, 44, 0
7, 54600, Note_on_c, 3, 56, 88
7, 54954, Note_off_c, 3, 56, 0
7, 54960, Note_on_c, 3, 54, 88
7, 55194, Note_off_c, 3, 54, 0
7, 55200, Note_on_c, 3, 57, 88
7, 55434, Note_off_c, 3, 57, 0
7, 55440, Note_on_c, 3, 56, 88
7, 56148, Note_off_c, 3, 56, 0
7, 56148, End_track
8, 0, Start_track
8, 0, Title_t, "Track 5"
8, 0, Program_c, 4, 6
8, 0, Note_on_c, 4, 49, 88
8, 2857, Note_off_c, 4, 49, 0
8, 2880, Note_on_c, 4, 48, 88
8, 4061, Note_off_c, 4, 48, 0
8, 4080, Note_on_c, 4, 49, 88
8, 4314, Note_off_c, 4, 49, 0
8, 4320, Note_on_c, 4, 56, 88
8, 6468, Note_off_c, 4, 56, 0
8, 6480, Note_on_c, 4, 54, 88
8, 7908, Note_off_c, 4, 54, 0
8, 7920, Note_on_c, 4, 52, 88
8, 9348, Note_off_c, 4, 52, 0
8, 9360, Note_on_c, 4, 51, 88
8, 10068, Note_off_c, 4, 51, 0
8, 10080, Note_on_c, 4, 52, 88
8, 11497, Note_off_c, 4, 52, 0
8, 11520, Note_on_c, 4, 51, 88
8, 12228, Note_off_c, 4, 51, 0
8, 12240, Note_on_c, 4, 56, 88
8, 12593, Note_off_c, 4, 56, 0
8, 12600, Note_on_c, 4, 54, 88
8, 12716, Note_off_c, 4, 54, 0
8, 12720, Note_on_c, 4, 56, 88
8, 12954, Note_off_c, 4, 56, 0
8, 12960, Note_on_c, 4, 49, 88
8, 14023, Note_off_c, 4, 49, 0
8, 14040, Note_on_c, 4, 51, 88
8, 14156, Note_off_c, 4, 51, 0
8, 14160, Note_on_c, 4, 52, 88
8, 14394, Note_off_c, 4, 52, 0
8, 14400, Note_on_c, 4, 46, 88
8, 14516, Note_off_c, 4, 46, 0
8, 14520, Note_on_c, 4, 51, 88
8, 14636, Note_off_c, 4, 51, 0
8, 14640, Note_on_c, 4, 49, 88
8, 14756, Note_off_c, 4, 49, 0
8, 14760, Note_on_c, 4, 47, 88
8, 14876, Note_off_c, 4, 47, 0
8, 14880, Note_on_c, 4, 49, 88
8, 14996, Note_off_c, 4, 49, 0
8, 15000, Note_on_c, 4, 46, 88
8, 15116, Note_off_c, 4, 46, 0
8, 15120, Note_on_c, 4, 43, 88
8, 15236, Note_off_c, 4, 43, 0
8, 15240, Note_on_c, 4, 47, 88
8, 15356, Note_off_c, 4, 47, 0
8, 15360, Note_on_c, 4, 46, 88
8, 15476, Note_off_c, 4, 46, 0
8, 15480, Note_on_c, 4, 44, 88
8, 15596, Note_off_c, 4, 44, 0
8, 15600, Note_on_c, 4, 46, 88
8, 15716, Note_off_c, 4, 46, 0
8, 15720, Note_on_c, 4, 43, 88
8, 15836, Note_off_c, 4, 43, 0
8, 15840, Note_on_c, 4, 37, 88
8, 16667, Note_off_c, 4, 37, 0
8, 16680, Note_on_c, 4, 49, 88
8, 16796, Note_off_c, 4, 49, 0
8, 16800, Note_on_c, 4, 47, 88
8, 16916, Note_off_c, 4, 47, 0
8, 16920, Note_on_c, 4, 46, 88
8, 17036, Note_off_c, 4, 46, 0
8, 17040, Note_on_c, 4, 47, 88
8, 17156, Note_off_c, 4, 47, 0
8, 17160, Note_on_c, 4, 44, 88
8, 17276, Note_off_c, 4, 44, 0
8, 17280, Note_on_c, 4, 52, 88
8, 17324, Note_off_c, 4, 52, 0
8, 17325, Note_on_c, 4, 51, 88
8, 17369, Note_off_c, 4, 51, 0
8, 17370, Note_on_c, 4, 52, 88
8, 17635, Note_off_c, 4, 52, 0
8, 17640, Note_on_c, 4, 51, 88
8, 17756, Note_off_c, 4, 51, 0
8, 17760, Note_on_c, 4, 49, 88
8, 17994, Note_off_c, 4, 49, 0
8, 18000, Note_on_c, 4, 51, 88
8, 18470, Note_off_c, 4, 51, 0
8, 18480, Note_on_c, 4, 39, 88
8, 18714, Note_off_c, 4, 39, 0
8, 18720, Note_on_c, 4, 44, 88
8, 20137, Note_off_c, 4, 44, 0
8, 20160, Note_on_c, 4, 49, 88
8, 20276, Note_off_c, 4, 49, 0
8, 20280, Note_on_c, 4, 51, 88
8, 20396, Note_off_c, 4, 51, 0
8, 20400, Note_on_c, 4, 49, 88
8, 20516, Note_off_c, 4, 49, 0
8, 20520, Note_on_c, 4, 47, 88
8, 20636, Note_off_c, 4, 47, 0
8, 20640, Note_on_c, 4, 49, 88
8, 20756, Note_off_c, 4, 49, 0
8, 20760, Note_on_c, 4, 46, 88
8, 21587, Note_off_c, 4, 46, 0
8, 21600, Note_on_c, 4, 59, 88
8, 21644, Note_off_c, 4, 59, 0
8, 21645, Note_on_c, 4, 58, 88
8, 21718, Note_off_c, 4, 58, 0
8, 21720, Note_on_c, 4, 59, 88
8, 22418, Note_off_c, 4, 59, 0
8, 22440, Note_on_c, 4, 59, 88
8, 22556, Note_off_c, 4, 59, 0
8, 22560, Note_on_c, 4, 57, 88
8, 22676, Note_off_c, 4, 57, 0
8, 22680, Note_on_c, 4, 56, 88
8, 22796, Note_off_c, 4, 56, 0
8, 22800, Note_on_c, 4, 57, 88
8, 22916, Note_off_c, 4, 57, 0
8, 22920, Note_on_c, 4, 54, 88
8, 23036, Note_off_c, 4, 54, 0
8, 23040, Note_on_c, 4, 51, 88
8, 23156, Note_off_c, 4, 51, 0
8, 23160, Note_on_c, 4, 52, 88
8, 23276, Note_off_c, 4, 52, 0
8, 23280, Note_on_c, 4, 51, 88
8, 23396, Note_off_c, 4, 51, 0
8, 23400, Note_on_c, 4, 49, 88
8, 23516, Note_off_c, 4, 49, 0
8, 23520, Note_on_c, 4, 51, 88
8, 23636, Note_off_c, 4, 51, 0
8, 23640, Note_on_c, 4, 48, 88
8, 23756, Note_off_c, 4, 48, 0
8, 23760, Note_on_c, 4, 44, 88
8, 24113, Note_off_c, 4, 44, 0
8, 24120, Note_on_c, 4, 46, 88
8, 24236, Note_off_c, 4, 46, 0
8, 24240, Note_on_c, 4, 48, 88
8, 24474, Note_off_c, 4, 48, 0
8, 24480, Note_on_c, 4, 49, 88
8, 25307, Note_off_c, 4, 49, 0
8, 25320, Note_on_c, 4, 51, 88
8, 25436, Note_off_c, 4, 51, 0
8, 25440, Note_on_c, 4, 52, 88
8, 25556, Note_off_c, 4, 52, 0
8, 25560, Note_on_c, 4, 54, 88
8, 25676, Note_off_c, 4, 54, 0
8, 25680, Note_on_c, 4, 56, 88
8, 25796, Note_off_c, 4, 56, 0
8, 25800, Note_on_c, 4, 57, 88
8, 25916, Note_off_c, 4, 57, 0
8, 25920, Note_on_c, 4, 59, 88
8, 26498, Note_off_c, 4, 59, 0
8, 26520, Note_on_c, 4, 59, 88
8, 26636, Note_off_c, 4, 59, 0
8, 26640, Note_on_c, 4, 53, 88
8, 27348, Note_off_c, 4, 53, 0
8, 27360, Note_on_c, 4, 54, 88
8, 28777, Note_off_c, 4, 54, 0
8, 28800, Note_on_c, 4, 56, 88
8, 29153, Note_off_c, 4, 56, 0
8, 29160, Note_on_c, 4, 57, 88
8, 29276, Note_off_c, 4, 57, 0
8, 29280, Note_on_c, 4, 59, 88
8, 29514, Note_off_c, 4, 59, 0
8, 29520, Note_on_c, 4, 52, 88
8, 30593, Note_off_c, 4, 52, 0
8, 30600, Note_on_c, 4, 51, 88
8, 30716, Note_off_c, 4, 51, 0
8, 30720, Note_on_c, 4, 49, 88
8, 30954, Note_off_c, 4, 49, 0
8, 30960, Note_on_c, 4, 51, 88
8, 31668, Note_off_c, 4, 51, 0
8, 31680, Note_on_c, 4, 56, 88
8, 32033, Note_off_c, 4, 56, 0
8, 32040, Note_on_c, 4, 58, 88
8, 32156, Note_off_c, 4, 58, 0
8, 32160, Note_on_c, 4, 60, 88
8, 32394, Note_off_c, 4, 60, 0
8, 32400, Note_on_c, 4, 61, 88
8, 32753, Note_off_c, 4, 61, 0
8, 32760, Note_on_c, 4, 59, 88
8, 32876, Note_off_c, 4, 59, 0
8, 32880, Note_on_c, 4, 57, 88
8, 32996, Note_off_c, 4, 57, 0
8, 33000, Note_on_c, 4, 56, 88
8, 33116, Note_off_c, 4, 56, 0
8, 33120, Note_on_c, 4, 54, 88
8, 34183, Note_off_c, 4, 54, 0
8, 34200, Note_on_c, 4, 52, 88
8, 34316, Note_off_c, 4, 52, 0
8, 34320, Note_on_c, 4, 54, 88
8, 34554, Note_off_c, 4, 54, 0
8, 34560, Note_on_c, 4, 51, 88
8, 34913, Note_off_c, 4, 51, 0
8, 34920, Note_on_c, 4, 54, 88
8, 35036, Note_off_c, 4, 54, 0
8, 35040, Note_on_c, 4, 57, 88
8, 35393, Note_off_c, 4, 57, 0
8, 35400, Note_on_c, 4, 56, 88
8, 35516, Note_off_c, 4, 56, 0
8, 35520, Note_on_c, 4, 54, 88
8, 35636, Note_off_c, 4, 54, 0
8, 35640, Note_on_c, 4, 52, 88
8, 35756, Note_off_c, 4, 52, 0
8, 35760, Note_on_c, 4, 54, 88
8, 35876, Note_off_c, 4, 54, 0
8, 35880, Note_on_c, 4, 51, 88
8, 35996, Note_off_c, 4, 51, 0
8, 36000, Note_on_c, 4, 52, 88
8, 36116, Note_off_c, 4, 52, 0
8, 36120, Note_on_c, 4, 51, 88
8, 36236, Note_off_c, 4, 51, 0
8, 36240, Note_on_c, 4, 49, 88
8, 36356, Note_off_c, 4, 49, 0
8, 36360, Note_on_c, 4, 47, 88
8, 36476, Note_off_c, 4, 47, 0
8, 36480, Note_on_c, 4, 49, 88
8, 36596, Note_off_c, 4, 49, 0
8, 36600, Note_on_c, 4, 45, 88
8, 36716, Note_off_c, 4, 45, 0
8, 36720, Note_on_c, 4, 57, 88
8, 36764, Note_off_c, 4, 57, 0
8, 36765, Note_on_c, 4, 56, 88
8, 36823, Note_off_c, 4, 56, 0
8, 36825, Note_on_c, 4, 57, 88
8, 37430, Note_off_c, 4, 57, 0
8, 37440, Note_on_c, 4, 57, 88
8, 37556, Note_off_c, 4, 57, 0
8, 37560, Note_on_c, 4, 56, 88
8, 37676, Note_off_c, 4, 56, 0
8, 37680, Note_on_c, 4, 54, 88
8, 37796, Note_off_c, 4, 54, 0
8, 37800, Note_on_c, 4, 52, 88
8, 37916, Note_off_c, 4, 52, 0
8, 37920, Note_on_c, 4, 54, 88
8, 38036, Note_off_c, 4, 54, 0
8, 38040, Note_on_c, 4, 51, 88
8, 38156, Note_off_c, 4, 51, 0
8, 38160, Note_on_c, 4, 60, 88
8, 38233, Note_off_c, 4, 60, 0
8, 38235, Note_on_c, 4, 58, 88
8, 38293, Note_off_c, 4, 58, 0
8, 38295, Note_on_c, 4, 60, 88
8, 38339, Note_off_c, 4, 60, 0
8, 38340, Note_on_c, 4, 58, 88
8, 38384, Note_off_c, 4, 58, 0
8, 38385, Note_on_c, 4, 60, 88
8, 38872, Note_off_c, 4, 60, 0
8, 38880, Note_on_c, 4, 61, 88
8, 38996, Note_off_c, 4, 61, 0
8, 39000, Note_on_c, 4, 59, 88
8, 39116, Note_off_c, 4, 59, 0
8, 39120, Note_on_c, 4, 57, 88
8, 39236, Note_off_c, 4, 57, 0
8, 39240, Note_on_c, 4, 56, 88
8, 39356, Note_off_c, 4, 56, 0
8, 39360, Note_on_c, 4, 57, 88
8, 39476, Note_off_c, 4, 57, 0
8, 39480, Note_on_c, 4, 54, 88
8, 39596, Note_off_c, 4, 54, 0
8, 39600, Note_on_c, 4, 66, 88
8, 40436, Note_off_c, 4, 66, 0
8, 40440, Note_on_c, 4, 64, 88
8, 40556, Note_off_c, 4, 64, 0
8, 40560, Note_on_c, 4, 63, 88
8, 40676, Note_off_c, 4, 63, 0
8, 40680, Note_on_c, 4, 61, 88
8, 40796, Note_off_c, 4, 61, 0
8, 40800, Note_on_c, 4, 60, 88
8, 40916, Note_off_c, 4, 60, 0
8, 40920, Note_on_c, 4, 58, 88
8, 41036, Note_off_c, 4, 58, 0
8, 41040, Note_on_c, 4, 56, 88
8, 41156, Note_off_c, 4, 56, 0
8, 41160, Note_on_c, 4, 54, 88
8, 41276, Note_off_c, 4, 54, 0
8, 41280, Note_on_c, 4, 52, 88
8, 41396, Note_off_c, 4, 52, 0
8, 41400, Note_on_c, 4, 51, 88
8, 41516, Note_off_c, 4, 51, 0
8, 41520, Note_on_c, 4, 49, 88
8, 41636, Note_off_c, 4, 49, 0
8, 41640, Note_on_c, 4, 47, 88
8, 41756, Note_off_c, 4, 47, 0
8, 41760, Note_on_c, 4, 45, 88
8, 42113, Note_off_c, 4, 45, 0
8, 42120, Note_on_c, 4, 47, 88
8, 42236, Note_off_c, 4, 47, 0
8, 42240, Note_on_c, 4, 44, 88
8, 42474, Note_off_c, 4, 44, 0
8, 42480, Note_on_c, 4, 42, 88
8, 42833, Note_off_c, 4, 42, 0
8, 42840, Note_on_c, 4, 44, 88
8, 42956, Note_off_c, 4, 44, 0
8, 42960, Note_on_c, 4, 40, 88
8, 43194, Note_off_c, 4, 40, 0
8, 43200, Note_on_c, 4, 39, 88
8, 43553, Note_off_c, 4, 39, 0
8, 43560, Note_on_c, 4, 40, 88
8, 43676, Note_off_c, 4, 40, 0
8, 43680, Note_on_c, 4, 42, 88
8, 43914, Note_off_c, 4, 42, 0
8, 43920, Note_on_c, 4, 36, 88
8, 44273, Note_off_c, 4, 36, 0
8, 44280, Note_on_c, 4, 39, 88
8, 44396, Note_off_c, 4, 39, 0
8, 44400, Note_on_c, 4, 42, 88
8, 44634, Note_off_c, 4, 42, 0
8, 44640, Note_on_c, 4, 40, 88
8, 44756, Note_off_c, 4, 40, 0
8, 44760, Note_on_c, 4, 52, 88
8, 44876, Note_off_c, 4, 52, 0
8, 44880, Note_on_c, 4, 54, 88
8, 44996, Note_off_c, 4, 54, 0
8, 45000, Note_on_c, 4, 56, 88
8, 45116, Note_off_c, 4, 56, 0
8, 45120, Note_on_c, 4, 57, 88
8, 45236, Note_off_c, 4, 57, 0
8, 45240, Note_on_c, 4, 54, 88
8, 45356, Note_off_c, 4, 54, 0
8, 45360, Note_on_c, 4, 51, 88
8, 45476, Note_off_c, 4, 51, 0
8, 45480, Note_on_c, 4, 52, 88
8, 45596, Note_off_c, 4, 52, 0
8, 45600, Note_on_c, 4, 54, 88
8, 45716, Note_off_c, 4, 54, 0
8, 45720, Note_on_c, 4, 51, 88
8, 45836, Note_off_c, 4, 51, 0
8, 45840, Note_on_c, 4, 48, 88
8, 45956, Note_off_c, 4, 48, 0
8, 45960, Note_on_c, 4, 49, 88
8, 46076, Note_off_c, 4, 49, 0
8, 46080, Note_on_c, 4, 51, 88
8, 46196, Note_off_c, 4, 51, 0
8, 46200, Note_on_c, 4, 48, 88
8, 46316, Note_off_c, 4, 48, 0
8, 46320, Note_on_c, 4, 44, 88
8, 46436, Note_off_c, 4, 44, 0
8, 46440, Note_on_c, 4, 46, 88
8, 46556, Note_off_c, 4, 46, 0
8, 46560, Note_on_c, 4, 48, 88
8, 46676, Note_off_c, 4, 48, 0
8, 46680, Note_on_c, 4, 49, 88
8, 46796, Note_off_c, 4, 49, 0
8, 46800, Note_on_c, 4, 51, 88
8, 46916, Note_off_c, 4, 51, 0
8, 46920, Note_on_c, 4, 52, 88
8, 47036, Note_off_c, 4, 52, 0
8, 47040, Note_on_c, 4, 54, 88
8, 47156, Note_off_c, 4, 54, 0
8, 47160, Note_on_c, 4, 56, 88
8, 47276, Note_off_c, 4, 56, 0
8, 47280, Note_on_c, 4, 58, 88
8, 47396, Note_off_c, 4, 58, 0
8, 47400, Note_on_c, 4, 60, 88
8, 47516, Note_off_c, 4, 60, 0
8, 47520, Note_on_c, 4, 61, 88
8, 47636, Note_off_c, 4, 61, 0
8, 47640, Note_on_c, 4, 59, 88
8, 47756, Note_off_c, 4, 59, 0
8, 47760, Note_on_c, 4, 57, 88
8, 47876, Note_off_c, 4, 57, 0
8, 47880, Note_on_c, 4, 56, 88
8, 47996, Note_off_c, 4, 56, 0
8, 48000, Note_on_c, 4, 57, 88
8, 48116, Note_off_c, 4, 57, 0
8, 48120, Note_on_c, 4, 54, 88
8, 48236, Note_off_c, 4, 54, 0
8, 48240, Note_on_c, 4, 56, 88
8, 48710, Note_off_c, 4, 56, 0
8, 48720, Note_on_c, 4, 44, 88
8, 48954, Note_off_c, 4, 44, 0
8, 48960, Note_on_c, 4, 46, 88
8, 50023, Note_off_c, 4, 46, 0
8, 50040, Note_on_c, 4, 47, 88
8, 50156, Note_off_c, 4, 47, 0
8, 50160, Note_on_c, 4, 49, 88
8, 50394, Note_off_c, 4, 49, 0
8, 50400, Note_on_c, 4, 43, 88
8, 51463, Note_off_c, 4, 43, 0
8, 51480, Note_on_c, 4, 44, 88
8, 51596, Note_off_c, 4, 44, 0
8, 51600, Note_on_c, 4, 46, 88
8, 51834, Note_off_c, 4, 46, 0
8, 51840, Note_on_c, 4, 39, 88
8, 52310, Note_off_c, 4, 39, 0
8, 53400, Note_on_c, 4, 63, 88
8, 53516, Note_off_c, 4, 63, 0
8, 53520, Note_on_c, 4, 61, 88
8, 53636, Note_off_c, 4, 61, 0
8, 53640, Note_on_c, 4, 59, 88
8, 53756, Note_off_c, 4, 59, 0
8, 53760, Note_on_c, 4, 57, 88
8, 53876, Note_off_c, 4, 57, 0
8, 53880, Note_on_c, 4, 54, 88
8, 53996, Note_off_c, 4, 54, 0
8, 54000, Note_on_c, 4, 56, 88
8, 54116, Note_off_c, 4, 56, 0
8, 54120, Note_on_c, 4, 51, 88
8, 54236, Note_off_c, 4, 51, 0
8, 54240, Note_on_c, 4, 52, 88
8, 54356, Note_off_c, 4, 52, 0
8, 54360, Note_on_c, 4, 49, 88
8, 54476, Note_off_c, 4, 49, 0
8, 54480, Note_on_c, 4, 44, 88
8, 54714, Note_off_c, 4, 44, 0
8, 54720, Note_on_c, 4, 49, 88
8, 56137, Note_off_c, 4, 49, 0
8, 56137, End_track
0, 0, End_of_file
