0, 0, Header, 1, 8, 240
1, 0, Start_track
1, 0, Time_signature, 9, 3, 24, 8
1, 0, Tempo, 389610
1, 0, SMPTE_offset, 64, 0, 0, 0, 93
1, 0, End_track
2, 0, Start_track
2, 0, Title_t, "(C) & (P) 1993"
2, 127, End_track
3, 0, Start_track
3, 0, Title_t, "CCARH,Stanford"
3, 0, End_track
4, 0, Start_track
4, 0, Title_t, "Track 1"
4, 0, Program_c, 0, 6
4, 0, Note_on_c, 0, 70, 88
4, 353, Note_off_c, 0, 70, 0
4, 840, Note_on_c, 0, 67, 88
4, 956, Note_off_c, 0, 67, 0
4, 960, Note_on_c, 0, 75, 88
4, 1076, Note_off_c, 0, 75, 0
4, 1080, Note_on_c, 0, 75, 88
4, 1255, Note_off_c, 0, 75, 0
4, 1260, Note_on_c, 0, 74, 88
4, 1435, Note_off_c, 0, 74, 0
4, 1920, Note_on_c, 0, 65, 88
4, 2036, Note_off_c, 0, 65, 0
4, 2040, Note_on_c, 0, 67, 88
4, 2156, Note_off_c, 0, 67, 0
4, 2160, Note_on_c, 0, 68, 88
4, 2276, Note_off_c, 0, 68, 0
4, 2280, Note_on_c, 0, 60, 88
4, 2396, Note_off_c, 0, 60, 0
4, 2400, Note_on_c, 0, 63, 88
4, 2516, Note_off_c, 0, 63, 0
4, 2520, Note_on_c, 0, 62, 88
4, 2636, Note_off_c, 0, 62, 0
4, 2640, Note_on_c, 0, 65, 88
4, 2756, Note_off_c, 0, 65, 0
4, 2760, Note_on_c, 0, 70, 88
4, 2876, Note_off_c, 0, 70, 0
4, 2880, Note_on_c, 0, 58, 88
4, 2996, Note_off_c, 0, 58, 0
4, 3000, Note_on_c, 0, 65, 88
4, 3116, Note_off_c, 0, 65, 0
4, 3120, Note_on_c, 0, 68, 88
4, 3236, Note_off_c, 0, 68, 0
4, 3240, Note_on_c, 0, 68, 88
4, 3415, Note_off_c, 0, 68, 0
4, 3420, Note_on_c, 0, 67, 88
4, 3595, Note_off_c, 0, 67, 0
4, 4080, Note_on_c, 0, 51, 88
4, 4196, Note_off_c, 0, 51, 0
4, 4200, Note_on_c, 0, 50, 88
4, 4316, Note_off_c, 0, 50, 0
4, 4320, Note_on_c, 0, 51, 88
4, 4436, Note_off_c, 0, 51, 0
4, 4440, Note_on_c, 0, 55, 88
4, 4556, Note_off_c, 0, 55, 0
4, 4560, Note_on_c, 0, 53, 88
4, 4676, Note_off_c, 0, 53, 0
4, 4680, Note_on_c, 0, 55, 88
4, 4796, Note_off_c, 0, 55, 0
4, 4800, Note_on_c, 0, 58, 88
4, 4916, Note_off_c, 0, 58, 0
4, 4920, Note_on_c, 0, 56, 88
4, 5036, Note_off_c, 0, 56, 0
4, 5040, Note_on_c, 0, 58, 88
4, 5156, Note_off_c, 0, 58, 0
4, 5160, Note_on_c, 0, 61, 88
4, 5276, Note_off_c, 0, 61, 0
4, 5280, Note_on_c, 0, 55, 88
4, 5396, Note_off_c, 0, 55, 0
4, 5400, Note_on_c, 0, 56, 88
4, 5516, Note_off_c, 0, 56, 0
4, 5520, Note_on_c, 0, 60, 88
4, 5636, Note_off_c, 0, 60, 0
4, 5640, Note_on_c, 0, 58, 88
4, 5756, Note_off_c, 0, 58, 0
4, 5760, Note_on_c, 0, 60, 88
4, 5876, Note_off_c, 0, 60, 0
4, 5880, Note_on_c, 0, 63, 88
4, 5996, Note_off_c, 0, 63, 0
4, 6000, Note_on_c, 0, 61, 88
4, 6116, Note_off_c, 0, 61, 0
4, 6120, Note_on_c, 0, 63, 88
4, 6236, Note_off_c, 0, 63, 0
4, 6240, Note_on_c, 0, 68, 88
4, 6356, Note_off_c, 0, 68, 0
4, 6360, Note_on_c, 0, 60, 88
4, 6476, Note_off_c, 0, 60, 0
4, 6480, Note_on_c, 0, 62, 88
4, 6596, Note_off_c, 0, 62, 0
4, 6600, Note_on_c, 0, 65, 88
4, 6716, Note_off_c, 0, 65, 0
4, 6720, Note_on_c, 0, 63, 88
4, 6836, Note_off_c, 0, 63, 0
4, 6840, Note_on_c, 0, 65, 88
4, 6956, Note_off_c, 0, 65, 0
4, 6960, Note_on_c, 0, 68, 88
4, 7076, Note_off_c, 0, 68, 0
4, 7080, Note_on_c, 0, 67, 88
4, 7196, Note_off_c, 0, 67, 0
4, 7200, Note_on_c, 0, 68, 88
4, 7316, Note_off_c, 0, 68, 0
4, 7320, Note_on_c, 0, 77, 88
4, 7436, Note_off_c, 0, 77, 0
4, 7440, Note_on_c, 0, 68, 88
4, 7556, Note_off_c, 0, 68, 0
4, 7560, Note_on_c, 0, 67, 88
4, 7676, Note_off_c, 0, 67, 0
4, 7680, Note_on_c, 0, 70, 88
4, 7796, Note_off_c, 0, 70, 0
4, 7800, Note_on_c, 0, 68, 88
4, 7916, Note_off_c, 0, 68, 0
4, 7920, Note_on_c, 0, 70, 88
4, 8036, Note_off_c, 0, 70, 0
4, 8040, Note_on_c, 0, 75, 88
4, 8156, Note_off_c, 0, 75, 0
4, 8160, Note_on_c, 0, 74, 88
4, 8276, Note_off_c, 0, 74, 0
4, 8280, Note_on_c, 0, 75, 88
4, 8396, Note_off_c, 0, 75, 0
4, 8400, Note_on_c, 0, 79, 88
4, 8516, Note_off_c, 0, 79, 0
4, 8520, Note_on_c, 0, 77, 88
4, 8636, Note_off_c, 0, 77, 0
4, 8640, Note_on_c, 0, 79, 88
4, 8756, Note_off_c, 0, 79, 0
4, 8760, Note_on_c, 0, 75, 88
4, 8876, Note_off_c, 0, 75, 0
4, 8880, Note_on_c, 0, 74, 88
4, 8996, Note_off_c, 0, 74, 0
4, 9000, Note_on_c, 0, 75, 88
4, 10073, Note_off_c, 0, 75, 0
4, 10560, Note_on_c, 0, 69, 88
4, 10676, Note_off_c, 0, 69, 0
4, 10680, Note_on_c, 0, 75, 88
4, 10796, Note_off_c, 0, 75, 0
4, 10800, Note_on_c, 0, 74, 88
4, 10916, Note_off_c, 0, 74, 0
4, 10920, Note_on_c, 0, 70, 88
4, 11036, Note_off_c, 0, 70, 0
4, 11040, Note_on_c, 0, 65, 88
4, 11156, Note_off_c, 0, 65, 0
4, 11160, Note_on_c, 0, 67, 88
4, 11276, Note_off_c, 0, 67, 0
4, 11280, Note_on_c, 0, 63, 88
4, 11396, Note_off_c, 0, 63, 0
4, 11400, Note_on_c, 0, 62, 88
4, 11516, Note_off_c, 0, 62, 0
4, 11520, Note_on_c, 0, 60, 88
4, 11636, Note_off_c, 0, 60, 0
4, 11640, Note_on_c, 0, 70, 88
4, 11756, Note_off_c, 0, 70, 0
4, 11760, Note_on_c, 0, 69, 88
4, 11876, Note_off_c, 0, 69, 0
4, 11880, Note_on_c, 0, 70, 88
4, 12233, Note_off_c, 0, 70, 0
4, 12720, Note_on_c, 0, 58, 88
4, 12836, Note_off_c, 0, 58, 0
4, 12840, Note_on_c, 0, 57, 88
4, 12956, Note_off_c, 0, 57, 0
4, 12960, Note_on_c, 0, 58, 88
4, 13076, Note_off_c, 0, 58, 0
4, 13080, Note_on_c, 0, 62, 88
4, 13196, Note_off_c, 0, 62, 0
4, 13200, Note_on_c, 0, 60, 88
4, 13316, Note_off_c, 0, 60, 0
4, 13320, Note_on_c, 0, 62, 88
4, 13436, Note_off_c, 0, 62, 0
4, 13440, Note_on_c, 0, 65, 88
4, 13556, Note_off_c, 0, 65, 0
4, 13560, Note_on_c, 0, 63, 88
4, 13676, Note_off_c, 0, 63, 0
4, 13680, Note_on_c, 0, 65, 88
4, 13796, Note_off_c, 0, 65, 0
4, 13800, Note_on_c, 0, 68, 88
4, 13916, Note_off_c, 0, 68, 0
4, 13920, Note_on_c, 0, 62, 88
4, 14036, Note_off_c, 0, 62, 0
4, 14040, Note_on_c, 0, 63, 88
4, 14156, Note_off_c, 0, 63, 0
4, 14160, Note_on_c, 0, 67, 88
4, 14276, Note_off_c, 0, 67, 0
4, 14280, Note_on_c, 0, 65, 88
4, 14396, Note_off_c, 0, 65, 0
4, 14400, Note_on_c, 0, 67, 88
4, 14516, Note_off_c, 0, 67, 0
4, 14520, Note_on_c, 0, 70, 88
4, 14636, Note_off_c, 0, 70, 0
4, 14640, Note_on_c, 0, 68, 88
4, 14756, Note_off_c, 0, 68, 0
4, 14760, Note_on_c, 0, 70, 88
4, 14876, Note_off_c, 0, 70, 0
4, 14880, Note_on_c, 0, 75, 88
4, 14996, Note_off_c, 0, 75, 0
4, 15000, Note_on_c, 0, 67, 88
4, 15116, Note_off_c, 0, 67, 0
4, 15120, Note_on_c, 0, 69, 88
4, 15236, Note_off_c, 0, 69, 0
4, 15240, Note_on_c, 0, 72, 88
4, 15356, Note_off_c, 0, 72, 0
4, 15360, Note_on_c, 0, 70, 88
4, 15476, Note_off_c, 0, 70, 0
4, 15480, Note_on_c, 0, 72, 88
4, 15596, Note_off_c, 0, 72, 0
4, 15600, Note_on_c, 0, 75, 88
4, 15716, Note_off_c, 0, 75, 0
4, 15720, Note_on_c, 0, 74, 88
4, 15836, Note_off_c, 0, 74, 0
4, 15840, Note_on_c, 0, 75, 88
4, 15956, Note_off_c, 0, 75, 0
4, 15960, Note_on_c, 0, 84, 88
4, 16076, Note_off_c, 0, 84, 0
4, 16080, Note_on_c, 0, 75, 88
4, 16196, Note_off_c, 0, 75, 0
4, 16200, Note_on_c, 0, 74, 88
4, 16316, Note_off_c, 0, 74, 0
4, 16320, Note_on_c, 0, 70, 88
4, 16436, Note_off_c, 0, 70, 0
4, 16440, Note_on_c, 0, 69, 88
4, 16556, Note_off_c, 0, 69, 0
4, 16560, Note_on_c, 0, 70, 88
4, 16676, Note_off_c, 0, 70, 0
4, 16680, Note_on_c, 0, 74, 88
4, 16796, Note_off_c, 0, 74, 0
4, 16800, Note_on_c, 0, 72, 88
4, 16916, Note_off_c, 0, 72, 0
4, 16920, Note_on_c, 0, 74, 88
4, 17036, Note_off_c, 0, 74, 0
4, 17040, Note_on_c, 0, 77, 88
4, 17156, Note_off_c, 0, 77, 0
4, 17160, Note_on_c, 0, 75, 88
4, 17276, Note_off_c, 0, 75, 0
4, 17280, Note_on_c, 0, 77, 88
4, 17633, Note_off_c, 0, 77, 0
4, 18120, Note_on_c, 0, 67, 88
4, 18236, Note_off_c, 0, 67, 0
4, 18240, Note_on_c, 0, 65, 88
4, 18356, Note_off_c, 0, 65, 0
4, 18360, Note_on_c, 0, 67, 88
4, 18713, Note_off_c, 0, 67, 0
4, 19200, Note_on_c, 0, 74, 88
4, 19316, Note_off_c, 0, 74, 0
4, 19320, Note_on_c, 0, 75, 88
4, 19436, Note_off_c, 0, 75, 0
4, 19440, Note_on_c, 0, 77, 88
4, 19793, Note_off_c, 0, 77, 0
4, 20040, Note_on_c, 0, 77, 88
4, 20156, Note_off_c, 0, 77, 0
4, 20160, Note_on_c, 0, 71, 88
4, 20394, Note_off_c, 0, 71, 0
4, 20400, Note_on_c, 0, 72, 88
4, 20516, Note_off_c, 0, 72, 0
4, 20520, Note_on_c, 0, 71, 88
4, 20873, Note_off_c, 0, 71, 0
4, 21000, Note_on_c, 0, 59, 88
4, 21116, Note_off_c, 0, 59, 0
4, 21120, Note_on_c, 0, 62, 88
4, 21236, Note_off_c, 0, 62, 0
4, 21240, Note_on_c, 0, 65, 88
4, 21356, Note_off_c, 0, 65, 0
4, 21360, Note_on_c, 0, 63, 88
4, 21476, Note_off_c, 0, 63, 0
4, 21480, Note_on_c, 0, 62, 88
4, 21596, Note_off_c, 0, 62, 0
4, 21600, Note_on_c, 0, 63, 88
4, 21716, Note_off_c, 0, 63, 0
4, 21720, Note_on_c, 0, 67, 88
4, 21836, Note_off_c, 0, 67, 0
4, 21840, Note_on_c, 0, 72, 88
4, 21956, Note_off_c, 0, 72, 0
4, 21960, Note_on_c, 0, 75, 88
4, 22076, Note_off_c, 0, 75, 0
4, 22080, Note_on_c, 0, 74, 88
4, 22196, Note_off_c, 0, 74, 0
4, 22200, Note_on_c, 0, 72, 88
4, 22316, Note_off_c, 0, 72, 0
4, 22440, Note_on_c, 0, 63, 88
4, 22556, Note_off_c, 0, 63, 0
4, 22560, Note_on_c, 0, 72, 88
4, 22676, Note_off_c, 0, 72, 0
4, 22680, Note_on_c, 0, 65, 88
4, 22796, Note_off_c, 0, 65, 0
4, 22800, Note_on_c, 0, 68, 88
4, 22916, Note_off_c, 0, 68, 0
4, 22920, Note_on_c, 0, 72, 88
4, 23036, Note_off_c, 0, 72, 0
4, 23040, Note_on_c, 0, 75, 88
4, 23156, Note_off_c, 0, 75, 0
4, 23160, Note_on_c, 0, 74, 88
4, 23276, Note_off_c, 0, 74, 0
4, 23280, Note_on_c, 0, 72, 88
4, 23396, Note_off_c, 0, 72, 0
4, 23520, Note_on_c, 0, 67, 88
4, 23636, Note_off_c, 0, 67, 0
4, 23640, Note_on_c, 0, 72, 88
4, 23756, Note_off_c, 0, 72, 0
4, 23760, Note_on_c, 0, 68, 88
4, 23876, Note_off_c, 0, 68, 0
4, 23880, Note_on_c, 0, 71, 88
4, 23996, Note_off_c, 0, 71, 0
4, 24000, Note_on_c, 0, 72, 88
4, 24116, Note_off_c, 0, 72, 0
4, 24120, Note_on_c, 0, 75, 88
4, 24236, Note_off_c, 0, 75, 0
4, 24240, Note_on_c, 0, 74, 88
4, 24356, Note_off_c, 0, 74, 0
4, 24360, Note_on_c, 0, 72, 88
4, 24476, Note_off_c, 0, 72, 0
4, 24600, Note_on_c, 0, 65, 88
4, 24716, Note_off_c, 0, 65, 0
4, 24720, Note_on_c, 0, 71, 88
4, 24836, Note_off_c, 0, 71, 0
4, 24840, Note_on_c, 0, 72, 88
4, 24956, Note_off_c, 0, 72, 0
4, 24960, Note_on_c, 0, 67, 88
4, 25076, Note_off_c, 0, 67, 0
4, 25080, Note_on_c, 0, 63, 88
4, 25196, Note_off_c, 0, 63, 0
4, 25200, Note_on_c, 0, 60, 88
4, 25316, Note_off_c, 0, 60, 0
4, 26040, Note_on_c, 0, 75, 88
4, 26156, Note_off_c, 0, 75, 0
4, 26160, Note_on_c, 0, 74, 88
4, 26276, Note_off_c, 0, 74, 0
4, 26280, Note_on_c, 0, 75, 88
4, 26396, Note_off_c, 0, 75, 0
4, 26400, Note_on_c, 0, 72, 88
4, 26516, Note_off_c, 0, 72, 0
4, 26520, Note_on_c, 0, 69, 88
4, 26636, Note_off_c, 0, 69, 0
4, 26640, Note_on_c, 0, 65, 88
4, 26756, Note_off_c, 0, 65, 0
4, 27120, Note_on_c, 0, 65, 88
4, 27236, Note_off_c, 0, 65, 0
4, 27240, Note_on_c, 0, 63, 88
4, 27356, Note_off_c, 0, 63, 0
4, 27360, Note_on_c, 0, 65, 88
4, 27476, Note_off_c, 0, 65, 0
4, 27480, Note_on_c, 0, 70, 88
4, 27596, Note_off_c, 0, 70, 0
4, 27600, Note_on_c, 0, 72, 88
4, 27716, Note_off_c, 0, 72, 0
4, 27720, Note_on_c, 0, 73, 88
4, 27836, Note_off_c, 0, 73, 0
4, 28200, Note_on_c, 0, 73, 88
4, 28316, Note_off_c, 0, 73, 0
4, 28320, Note_on_c, 0, 72, 88
4, 28436, Note_off_c, 0, 72, 0
4, 28440, Note_on_c, 0, 73, 88
4, 28556, Note_off_c, 0, 73, 0
4, 28560, Note_on_c, 0, 70, 88
4, 28676, Note_off_c, 0, 70, 0
4, 28680, Note_on_c, 0, 67, 88
4, 28796, Note_off_c, 0, 67, 0
4, 28800, Note_on_c, 0, 63, 88
4, 28916, Note_off_c, 0, 63, 0
4, 29280, Note_on_c, 0, 63, 88
4, 29396, Note_off_c, 0, 63, 0
4, 29400, Note_on_c, 0, 61, 88
4, 29516, Note_off_c, 0, 61, 0
4, 29520, Note_on_c, 0, 63, 88
4, 29636, Note_off_c, 0, 63, 0
4, 29640, Note_on_c, 0, 68, 88
4, 29756, Note_off_c, 0, 68, 0
4, 29760, Note_on_c, 0, 70, 88
4, 29876, Note_off_c, 0, 70, 0
4, 29880, Note_on_c, 0, 72, 88
4, 29996, Note_off_c, 0, 72, 0
4, 30360, Note_on_c, 0, 62, 88
4, 30476, Note_off_c, 0, 62, 0
4, 30480, Note_on_c, 0, 68, 88
4, 30596, Note_off_c, 0, 68, 0
4, 30600, Note_on_c, 0, 72, 88
4, 30716, Note_off_c, 0, 72, 0
4, 30720, Note_on_c, 0, 70, 88
4, 30836, Note_off_c, 0, 70, 0
4, 30840, Note_on_c, 0, 68, 88
4, 30956, Note_off_c, 0, 68, 0
4, 31080, Note_on_c, 0, 61, 88
4, 31196, Note_off_c, 0, 61, 0
4, 31200, Note_on_c, 0, 70, 88
4, 31316, Note_off_c, 0, 70, 0
4, 31440, Note_on_c, 0, 60, 88
4, 31556, Note_off_c, 0, 60, 0
4, 31560, Note_on_c, 0, 67, 88
4, 31676, Note_off_c, 0, 67, 0
4, 31680, Note_on_c, 0, 70, 88
4, 31796, Note_off_c, 0, 70, 0
4, 31800, Note_on_c, 0, 68, 88
4, 31916, Note_off_c, 0, 68, 0
4, 31920, Note_on_c, 0, 67, 88
4, 32036, Note_off_c, 0, 67, 0
4, 32160, Note_on_c, 0, 60, 88
4, 32276, Note_off_c, 0, 60, 0
4, 32280, Note_on_c, 0, 68, 88
4, 32396, Note_off_c, 0, 68, 0
4, 32520, Note_on_c, 0, 58, 88
4, 32636, Note_off_c, 0, 58, 0
4, 32640, Note_on_c, 0, 68, 88
4, 32756, Note_off_c, 0, 68, 0
4, 32880, Note_on_c, 0, 68, 88
4, 32996, Note_off_c, 0, 68, 0
4, 33000, Note_on_c, 0, 67, 88
4, 33116, Note_off_c, 0, 67, 0
4, 33240, Note_on_c, 0, 72, 88
4, 33356, Note_off_c, 0, 72, 0
4, 33360, Note_on_c, 0, 63, 88
4, 33476, Note_off_c, 0, 63, 0
4, 33600, Note_on_c, 0, 62, 88
4, 33716, Note_off_c, 0, 62, 0
4, 33720, Note_on_c, 0, 60, 88
4, 33836, Note_off_c, 0, 60, 0
4, 33840, Note_on_c, 0, 62, 88
4, 33956, Note_off_c, 0, 62, 0
4, 33960, Note_on_c, 0, 58, 88
4, 34076, Note_off_c, 0, 58, 0
4, 34080, Note_on_c, 0, 57, 88
4, 34196, Note_off_c, 0, 57, 0
4, 34200, Note_on_c, 0, 58, 88
4, 34316, Note_off_c, 0, 58, 0
4, 34320, Note_on_c, 0, 62, 88
4, 34436, Note_off_c, 0, 62, 0
4, 34440, Note_on_c, 0, 65, 88
4, 34556, Note_off_c, 0, 65, 0
4, 34560, Note_on_c, 0, 68, 88
4, 34676, Note_off_c, 0, 68, 0
4, 34680, Note_on_c, 0, 65, 88
4, 34796, Note_off_c, 0, 65, 0
4, 34800, Note_on_c, 0, 63, 88
4, 34916, Note_off_c, 0, 63, 0
4, 34920, Note_on_c, 0, 65, 88
4, 35036, Note_off_c, 0, 65, 0
4, 35040, Note_on_c, 0, 62, 88
4, 35156, Note_off_c, 0, 62, 0
4, 35160, Note_on_c, 0, 60, 88
4, 35276, Note_off_c, 0, 60, 0
4, 35280, Note_on_c, 0, 62, 88
4, 35396, Note_off_c, 0, 62, 0
4, 35400, Note_on_c, 0, 65, 88
4, 35516, Note_off_c, 0, 65, 0
4, 35520, Note_on_c, 0, 68, 88
4, 35636, Note_off_c, 0, 68, 0
4, 35640, Note_on_c, 0, 72, 88
4, 35756, Note_off_c, 0, 72, 0
4, 35760, Note_on_c, 0, 63, 88
4, 35876, Note_off_c, 0, 63, 0
4, 35880, Note_on_c, 0, 62, 88
4, 35996, Note_off_c, 0, 62, 0
4, 36000, Note_on_c, 0, 70, 88
4, 36116, Note_off_c, 0, 70, 0
4, 36120, Note_on_c, 0, 61, 88
4, 36236, Note_off_c, 0, 61, 0
4, 36240, Note_on_c, 0, 60, 88
4, 36356, Note_off_c, 0, 60, 0
4, 36360, Note_on_c, 0, 68, 88
4, 36476, Note_off_c, 0, 68, 0
4, 36480, Note_on_c, 0, 59, 88
4, 36596, Note_off_c, 0, 59, 0
4, 36600, Note_on_c, 0, 58, 88
4, 36716, Note_off_c, 0, 58, 0
4, 36840, Note_on_c, 0, 67, 88
4, 36956, Note_off_c, 0, 67, 0
4, 36960, Note_on_c, 0, 65, 88
4, 37076, Note_off_c, 0, 65, 0
4, 37080, Note_on_c, 0, 67, 88
4, 37196, Note_off_c, 0, 67, 0
4, 37200, Note_on_c, 0, 63, 88
4, 37316, Note_off_c, 0, 63, 0
4, 37320, Note_on_c, 0, 62, 88
4, 37436, Note_off_c, 0, 62, 0
4, 37440, Note_on_c, 0, 63, 88
4, 37556, Note_off_c, 0, 63, 0
4, 37560, Note_on_c, 0, 67, 88
4, 37676, Note_off_c, 0, 67, 0
4, 37680, Note_on_c, 0, 70, 88
4, 37796, Note_off_c, 0, 70, 0
4, 37800, Note_on_c, 0, 73, 88
4, 37916, Note_off_c, 0, 73, 0
4, 37920, Note_on_c, 0, 70, 88
4, 38036, Note_off_c, 0, 70, 0
4, 38040, Note_on_c, 0, 68, 88
4, 38156, Note_off_c, 0, 68, 0
4, 38160, Note_on_c, 0, 70, 88
4, 38276, Note_off_c, 0, 70, 0
4, 38280, Note_on_c, 0, 67, 88
4, 38396, Note_off_c, 0, 67, 0
4, 38400, Note_on_c, 0, 65, 88
4, 38516, Note_off_c, 0, 65, 0
4, 38520, Note_on_c, 0, 67, 88
4, 38636, Note_off_c, 0, 67, 0
4, 38640, Note_on_c, 0, 70, 88
4, 38756, Note_off_c, 0, 70, 0
4, 38760, Note_on_c, 0, 73, 88
4, 38876, Note_off_c, 0, 73, 0
4, 38880, Note_on_c, 0, 77, 88
4, 38996, Note_off_c, 0, 77, 0
4, 39000, Note_on_c, 0, 68, 88
4, 39116, Note_off_c, 0, 68, 0
4, 39120, Note_on_c, 0, 67, 88
4, 39236, Note_off_c, 0, 67, 0
4, 39240, Note_on_c, 0, 75, 88
4, 39356, Note_off_c, 0, 75, 0
4, 39360, Note_on_c, 0, 66, 88
4, 39476, Note_off_c, 0, 66, 0
4, 39480, Note_on_c, 0, 65, 88
4, 39596, Note_off_c, 0, 65, 0
4, 39600, Note_on_c, 0, 73, 88
4, 39716, Note_off_c, 0, 73, 0
4, 39720, Note_on_c, 0, 64, 88
4, 39836, Note_off_c, 0, 64, 0
4, 39840, Note_on_c, 0, 63, 88
4, 39956, Note_off_c, 0, 63, 0
4, 40080, Note_on_c, 0, 72, 88
4, 40196, Note_off_c, 0, 72, 0
4, 40200, Note_on_c, 0, 70, 88
4, 40316, Note_off_c, 0, 70, 0
4, 40320, Note_on_c, 0, 72, 88
4, 40436, Note_off_c, 0, 72, 0
4, 40440, Note_on_c, 0, 68, 88
4, 40556, Note_off_c, 0, 68, 0
4, 40560, Note_on_c, 0, 67, 88
4, 40676, Note_off_c, 0, 67, 0
4, 40680, Note_on_c, 0, 68, 88
4, 40796, Note_off_c, 0, 68, 0
4, 40800, Note_on_c, 0, 72, 88
4, 40916, Note_off_c, 0, 72, 0
4, 40920, Note_on_c, 0, 75, 88
4, 41036, Note_off_c, 0, 75, 0
4, 41040, Note_on_c, 0, 79, 88
4, 41156, Note_off_c, 0, 79, 0
4, 41160, Note_on_c, 0, 70, 88
4, 41276, Note_off_c, 0, 70, 0
4, 41280, Note_on_c, 0, 69, 88
4, 41396, Note_off_c, 0, 69, 0
4, 41400, Note_on_c, 0, 77, 88
4, 41516, Note_off_c, 0, 77, 0
4, 41520, Note_on_c, 0, 68, 88
4, 41636, Note_off_c, 0, 68, 0
4, 41640, Note_on_c, 0, 67, 88
4, 41756, Note_off_c, 0, 67, 0
4, 41760, Note_on_c, 0, 75, 88
4, 41876, Note_off_c, 0, 75, 0
4, 41880, Note_on_c, 0, 66, 88
4, 41996, Note_off_c, 0, 66, 0
4, 42000, Note_on_c, 0, 65, 88
4, 42116, Note_off_c, 0, 65, 0
4, 42240, Note_on_c, 0, 74, 88
4, 42356, Note_off_c, 0, 74, 0
4, 42360, Note_on_c, 0, 72, 88
4, 42476, Note_off_c, 0, 72, 0
4, 42480, Note_on_c, 0, 74, 88
4, 42596, Note_off_c, 0, 74, 0
4, 42600, Note_on_c, 0, 70, 88
4, 42716, Note_off_c, 0, 70, 0
4, 42720, Note_on_c, 0, 69, 88
4, 42836, Note_off_c, 0, 69, 0
4, 42840, Note_on_c, 0, 70, 88
4, 42956, Note_off_c, 0, 70, 0
4, 42960, Note_on_c, 0, 74, 88
4, 43076, Note_off_c, 0, 74, 0
4, 43080, Note_on_c, 0, 77, 88
4, 43196, Note_off_c, 0, 77, 0
4, 43200, Note_on_c, 0, 80, 88
4, 43316, Note_off_c, 0, 80, 0
4, 43320, Note_on_c, 0, 72, 88
4, 43436, Note_off_c, 0, 72, 0
4, 43440, Note_on_c, 0, 71, 88
4, 43556, Note_off_c, 0, 71, 0
4, 43560, Note_on_c, 0, 79, 88
4, 43676, Note_off_c, 0, 79, 0
4, 43680, Note_on_c, 0, 70, 88
4, 43796, Note_off_c, 0, 70, 0
4, 43800, Note_on_c, 0, 69, 88
4, 43916, Note_off_c, 0, 69, 0
4, 43920, Note_on_c, 0, 77, 88
4, 44036, Note_off_c, 0, 77, 0
4, 44040, Note_on_c, 0, 68, 88
4, 44156, Note_off_c, 0, 68, 0
4, 44160, Note_on_c, 0, 67, 88
4, 44276, Note_off_c, 0, 67, 0
4, 44400, Note_on_c, 0, 75, 88
4, 44516, Note_off_c, 0, 75, 0
4, 44520, Note_on_c, 0, 74, 88
4, 44636, Note_off_c, 0, 74, 0
4, 44640, Note_on_c, 0, 75, 88
4, 44756, Note_off_c, 0, 75, 0
4, 44760, Note_on_c, 0, 72, 88
4, 44876, Note_off_c, 0, 72, 0
4, 44880, Note_on_c, 0, 71, 88
4, 44996, Note_off_c, 0, 71, 0
4, 45000, Note_on_c, 0, 72, 88
4, 45116, Note_off_c, 0, 72, 0
4, 45120, Note_on_c, 0, 75, 88
4, 45236, Note_off_c, 0, 75, 0
4, 45240, Note_on_c, 0, 79, 88
4, 45356, Note_off_c, 0, 79, 0
4, 45360, Note_on_c, 0, 84, 88
4, 45594, Note_off_c, 0, 84, 0
4, 45600, Note_on_c, 0, 83, 88
4, 45716, Note_off_c, 0, 83, 0
4, 45720, Note_on_c, 0, 84, 88
4, 45836, Note_off_c, 0, 84, 0
4, 45840, Note_on_c, 0, 79, 88
4, 45956, Note_off_c, 0, 79, 0
4, 45960, Note_on_c, 0, 80, 88
4, 46076, Note_off_c, 0, 80, 0
4, 46200, Note_on_c, 0, 78, 88
4, 46316, Note_off_c, 0, 78, 0
4, 46320, Note_on_c, 0, 79, 88
4, 46436, Note_off_c, 0, 79, 0
4, 46440, Note_on_c, 0, 84, 88
4, 46674, Note_off_c, 0, 84, 0
4, 46680, Note_on_c, 0, 78, 88
4, 46796, Note_off_c, 0, 78, 0
4, 46800, Note_on_c, 0, 79, 88
4, 46916, Note_off_c, 0, 79, 0
4, 46920, Note_on_c, 0, 74, 88
4, 47036, Note_off_c, 0, 74, 0
4, 47040, Note_on_c, 0, 75, 88
4, 47156, Note_off_c, 0, 75, 0
4, 47280, Note_on_c, 0, 73, 88
4, 47396, Note_off_c, 0, 73, 0
4, 47400, Note_on_c, 0, 74, 88
4, 47516, Note_off_c, 0, 74, 0
4, 47520, Note_on_c, 0, 82, 88
4, 47636, Note_off_c, 0, 82, 0
4, 47640, Note_on_c, 0, 79, 88
4, 47756, Note_off_c, 0, 79, 0
4, 47760, Note_on_c, 0, 74, 88
4, 47876, Note_off_c, 0, 74, 0
4, 47880, Note_on_c, 0, 75, 88
4, 47996, Note_off_c, 0, 75, 0
4, 48000, Note_on_c, 0, 79, 88
4, 48116, Note_off_c, 0, 79, 0
4, 48120, Note_on_c, 0, 84, 88
4, 48236, Note_off_c, 0, 84, 0
4, 48240, Note_on_c, 0, 82, 88
4, 48356, Note_off_c, 0, 82, 0
4, 48360, Note_on_c, 0, 81, 88
4, 48476, Note_off_c, 0, 81, 0
4, 48480, Note_on_c, 0, 79, 88
4, 48596, Note_off_c, 0, 79, 0
4, 48600, Note_on_c, 0, 78, 88
4, 48658, Note_off_c, 0, 78, 0
4, 48660, Note_on_c, 0, 79, 88
4, 48718, Note_off_c, 0, 79, 0
4, 48720, Note_on_c, 0, 81, 88
4, 48836, Note_off_c, 0, 81, 0
4, 48840, Note_on_c, 0, 74, 88
4, 48956, Note_off_c, 0, 74, 0
4, 48960, Note_on_c, 0, 75, 88
4, 49076, Note_off_c, 0, 75, 0
4, 49080, Note_on_c, 0, 74, 88
4, 49196, Note_off_c, 0, 74, 0
4, 49200, Note_on_c, 0, 72, 88
4, 49316, Note_off_c, 0, 72, 0
4, 49320, Note_on_c, 0, 70, 88
4, 49436, Note_off_c, 0, 70, 0
4, 49440, Note_on_c, 0, 72, 88
4, 49556, Note_off_c, 0, 72, 0
4, 49560, Note_on_c, 0, 69, 88
4, 49676, Note_off_c, 0, 69, 0
4, 49680, Note_on_c, 0, 70, 88
4, 49796, Note_off_c, 0, 70, 0
4, 49800, Note_on_c, 0, 74, 88
4, 49916, Note_off_c, 0, 74, 0
4, 49920, Note_on_c, 0, 79, 88
4, 50036, Note_off_c, 0, 79, 0
4, 50040, Note_on_c, 0, 82, 88
4, 50156, Note_off_c, 0, 82, 0
4, 50160, Note_on_c, 0, 81, 88
4, 50276, Note_off_c, 0, 81, 0
4, 50280, Note_on_c, 0, 79, 88
4, 50396, Note_off_c, 0, 79, 0
4, 50520, Note_on_c, 0, 70, 88
4, 50636, Note_off_c, 0, 70, 0
4, 50640, Note_on_c, 0, 79, 88
4, 50756, Note_off_c, 0, 79, 0
4, 50760, Note_on_c, 0, 72, 88
4, 50876, Note_off_c, 0, 72, 0
4, 50880, Note_on_c, 0, 75, 88
4, 50996, Note_off_c, 0, 75, 0
4, 51000, Note_on_c, 0, 79, 88
4, 51116, Note_off_c, 0, 79, 0
4, 51120, Note_on_c, 0, 82, 88
4, 51236, Note_off_c, 0, 82, 0
4, 51240, Note_on_c, 0, 81, 88
4, 51356, Note_off_c, 0, 81, 0
4, 51360, Note_on_c, 0, 79, 88
4, 51476, Note_off_c, 0, 79, 0
4, 51600, Note_on_c, 0, 74, 88
4, 51716, Note_off_c, 0, 74, 0
4, 51720, Note_on_c, 0, 79, 88
4, 51836, Note_off_c, 0, 79, 0
4, 51840, Note_on_c, 0, 75, 88
4, 51956, Note_off_c, 0, 75, 0
4, 51960, Note_on_c, 0, 78, 88
4, 52076, Note_off_c, 0, 78, 0
4, 52080, Note_on_c, 0, 79, 88
4, 52196, Note_off_c, 0, 79, 0
4, 52200, Note_on_c, 0, 70, 88
4, 52316, Note_off_c, 0, 70, 0
4, 52320, Note_on_c, 0, 69, 88
4, 52436, Note_off_c, 0, 69, 0
4, 52440, Note_on_c, 0, 67, 88
4, 52556, Note_off_c, 0, 67, 0
4, 52680, Note_on_c, 0, 72, 88
4, 52796, Note_off_c, 0, 72, 0
4, 52800, Note_on_c, 0, 66, 88
4, 52916, Note_off_c, 0, 66, 0
4, 52920, Note_on_c, 0, 67, 88
4, 53036, Note_off_c, 0, 67, 0
4, 53040, Note_on_c, 0, 70, 88
4, 53156, Note_off_c, 0, 70, 0
4, 53160, Note_on_c, 0, 74, 88
4, 53276, Note_off_c, 0, 74, 0
4, 53280, Note_on_c, 0, 79, 88
4, 53396, Note_off_c, 0, 79, 0
4, 53640, Note_on_c, 0, 70, 88
4, 54116, Note_off_c, 0, 70, 0
4, 54120, Note_on_c, 0, 73, 88
4, 54236, Note_off_c, 0, 73, 0
4, 54240, Note_on_c, 0, 72, 88
4, 54356, Note_off_c, 0, 72, 0
4, 54360, Note_on_c, 0, 73, 88
4, 54476, Note_off_c, 0, 73, 0
4, 54480, Note_on_c, 0, 70, 88
4, 54596, Note_off_c, 0, 70, 0
4, 54600, Note_on_c, 0, 67, 88
4, 54716, Note_off_c, 0, 67, 0
4, 54720, Note_on_c, 0, 64, 88
4, 54954, Note_off_c, 0, 64, 0
4, 54960, Note_on_c, 0, 70, 88
4, 55196, Note_off_c, 0, 70, 0
4, 55200, Note_on_c, 0, 68, 88
4, 55316, Note_off_c, 0, 68, 0
4, 55320, Note_on_c, 0, 67, 88
4, 55436, Note_off_c, 0, 67, 0
4, 55440, Note_on_c, 0, 68, 88
4, 55556, Note_off_c, 0, 68, 0
4, 55560, Note_on_c, 0, 72, 88
4, 55676, Note_off_c, 0, 72, 0
4, 55680, Note_on_c, 0, 77, 88
4, 55796, Note_off_c, 0, 77, 0
4, 55800, Note_on_c, 0, 80, 88
4, 56034, Note_off_c, 0, 80, 0
4, 56280, Note_on_c, 0, 80, 88
4, 56396, Note_off_c, 0, 80, 0
4, 56400, Note_on_c, 0, 79, 88
4, 56516, Note_off_c, 0, 79, 0
4, 56520, Note_on_c, 0, 80, 88
4, 56636, Note_off_c, 0, 80, 0
4, 56640, Note_on_c, 0, 77, 88
4, 56756, Note_off_c, 0, 77, 0
4, 56760, Note_on_c, 0, 74, 88
4, 56876, Note_off_c, 0, 74, 0
4, 56880, Note_on_c, 0, 70, 88
4, 57114, Note_off_c, 0, 70, 0
4, 57120, Note_on_c, 0, 80, 88
4, 57356, Note_off_c, 0, 80, 0
4, 57360, Note_on_c, 0, 79, 88
4, 57476, Note_off_c, 0, 79, 0
4, 57480, Note_on_c, 0, 77, 88
4, 57596, Note_off_c, 0, 77, 0
4, 57600, Note_on_c, 0, 79, 88
4, 57716, Note_off_c, 0, 79, 0
4, 57720, Note_on_c, 0, 75, 88
4, 57836, Note_off_c, 0, 75, 0
4, 57840, Note_on_c, 0, 70, 88
4, 57956, Note_off_c, 0, 70, 0
4, 57960, Note_on_c, 0, 67, 88
4, 58076, Note_off_c, 0, 67, 0
4, 58080, Note_on_c, 0, 70, 88
4, 58196, Note_off_c, 0, 70, 0
4, 58200, Note_on_c, 0, 73, 88
4, 58436, Note_off_c, 0, 73, 0
4, 58440, Note_on_c, 0, 72, 88
4, 58556, Note_off_c, 0, 72, 0
4, 58560, Note_on_c, 0, 70, 88
4, 58676, Note_off_c, 0, 70, 0
4, 58680, Note_on_c, 0, 68, 88
4, 58796, Note_off_c, 0, 68, 0
4, 58800, Note_on_c, 0, 67, 88
4, 58916, Note_off_c, 0, 67, 0
4, 58920, Note_on_c, 0, 65, 88
4, 59154, Note_off_c, 0, 65, 0
4, 59160, Note_on_c, 0, 63, 88
4, 59276, Note_off_c, 0, 63, 0
4, 59280, Note_on_c, 0, 66, 88
4, 59516, Note_off_c, 0, 66, 0
4, 59520, Note_on_c, 0, 65, 88
4, 59636, Note_off_c, 0, 65, 0
4, 59640, Note_on_c, 0, 63, 88
4, 59756, Note_off_c, 0, 63, 0
4, 59760, Note_on_c, 0, 62, 88
4, 59876, Note_off_c, 0, 62, 0
4, 59880, Note_on_c, 0, 60, 88
4, 59996, Note_off_c, 0, 60, 0
4, 60000, Note_on_c, 0, 58, 88
4, 60116, Note_off_c, 0, 58, 0
4, 60600, Note_on_c, 0, 63, 88
4, 60716, Note_off_c, 0, 63, 0
4, 60720, Note_on_c, 0, 62, 88
4, 60836, Note_off_c, 0, 62, 0
4, 60840, Note_on_c, 0, 63, 88
4, 60956, Note_off_c, 0, 63, 0
4, 60960, Note_on_c, 0, 58, 88
4, 61076, Note_off_c, 0, 58, 0
4, 61080, Note_on_c, 0, 56, 88
4, 61196, Note_off_c, 0, 56, 0
4, 61680, Note_on_c, 0, 65, 88
4, 61796, Note_off_c, 0, 65, 0
4, 61800, Note_on_c, 0, 63, 88
4, 61916, Note_off_c, 0, 63, 0
4, 61920, Note_on_c, 0, 65, 88
4, 62036, Note_off_c, 0, 65, 0
4, 62040, Note_on_c, 0, 62, 88
4, 62156, Note_off_c, 0, 62, 0
4, 62160, Note_on_c, 0, 58, 88
4, 62276, Note_off_c, 0, 58, 0
4, 62760, Note_on_c, 0, 67, 88
4, 62876, Note_off_c, 0, 67, 0
4, 62880, Note_on_c, 0, 65, 88
4, 62996, Note_off_c, 0, 65, 0
4, 63000, Note_on_c, 0, 67, 88
4, 63116, Note_off_c, 0, 67, 0
4, 63120, Note_on_c, 0, 63, 88
4, 63236, Note_off_c, 0, 63, 0
4, 63240, Note_on_c, 0, 60, 88
4, 63356, Note_off_c, 0, 60, 0
4, 63840, Note_on_c, 0, 68, 88
4, 63956, Note_off_c, 0, 68, 0
4, 63960, Note_on_c, 0, 67, 88
4, 64076, Note_off_c, 0, 67, 0
4, 64080, Note_on_c, 0, 68, 88
4, 64196, Note_off_c, 0, 68, 0
4, 64200, Note_on_c, 0, 65, 88
4, 64316, Note_off_c, 0, 65, 0
4, 64320, Note_on_c, 0, 62, 88
4, 64436, Note_off_c, 0, 62, 0
4, 64800, Note_on_c, 0, 70, 88
4, 65153, Note_off_c, 0, 70, 0
4, 65640, Note_on_c, 0, 67, 88
4, 65756, Note_off_c, 0, 67, 0
4, 65760, Note_on_c, 0, 75, 88
4, 65876, Note_off_c, 0, 75, 0
4, 65880, Note_on_c, 0, 75, 88
4, 66055, Note_off_c, 0, 75, 0
4, 66060, Note_on_c, 0, 74, 88
4, 66235, Note_off_c, 0, 74, 0
4, 66720, Note_on_c, 0, 65, 88
4, 66836, Note_off_c, 0, 65, 0
4, 66840, Note_on_c, 0, 67, 88
4, 66956, Note_off_c, 0, 67, 0
4, 66960, Note_on_c, 0, 68, 88
4, 67076, Note_off_c, 0, 68, 0
4, 67080, Note_on_c, 0, 60, 88
4, 67196, Note_off_c, 0, 60, 0
4, 67200, Note_on_c, 0, 63, 88
4, 67316, Note_off_c, 0, 63, 0
4, 67320, Note_on_c, 0, 62, 88
4, 67436, Note_off_c, 0, 62, 0
4, 67440, Note_on_c, 0, 65, 88
4, 67556, Note_off_c, 0, 65, 0
4, 67560, Note_on_c, 0, 70, 88
4, 67676, Note_off_c, 0, 70, 0
4, 67680, Note_on_c, 0, 58, 88
4, 67796, Note_off_c, 0, 58, 0
4, 67800, Note_on_c, 0, 65, 88
4, 67916, Note_off_c, 0, 65, 0
4, 67920, Note_on_c, 0, 68, 88
4, 68036, Note_off_c, 0, 68, 0
4, 68040, Note_on_c, 0, 67, 88
4, 68156, Note_off_c, 0, 67, 0
4, 68160, Note_on_c, 0, 58, 88
4, 68276, Note_off_c, 0, 58, 0
4, 68280, Note_on_c, 0, 61, 88
4, 68396, Note_off_c, 0, 61, 0
4, 68400, Note_on_c, 0, 60, 88
4, 68516, Note_off_c, 0, 60, 0
4, 68520, Note_on_c, 0, 63, 88
4, 68636, Note_off_c, 0, 63, 0
4, 68640, Note_on_c, 0, 68, 88
4, 68756, Note_off_c, 0, 68, 0
4, 68760, Note_on_c, 0, 56, 88
4, 68876, Note_off_c, 0, 56, 0
4, 68880, Note_on_c, 0, 63, 88
4, 68996, Note_off_c, 0, 63, 0
4, 69000, Note_on_c, 0, 67, 88
4, 69116, Note_off_c, 0, 67, 0
4, 69120, Note_on_c, 0, 65, 88
4, 69236, Note_off_c, 0, 65, 0
4, 69240, Note_on_c, 0, 56, 88
4, 69356, Note_off_c, 0, 56, 0
4, 69360, Note_on_c, 0, 60, 88
4, 69476, Note_off_c, 0, 60, 0
4, 69480, Note_on_c, 0, 58, 88
4, 69596, Note_off_c, 0, 58, 0
4, 69600, Note_on_c, 0, 62, 88
4, 69716, Note_off_c, 0, 62, 0
4, 69720, Note_on_c, 0, 67, 88
4, 69836, Note_off_c, 0, 67, 0
4, 69840, Note_on_c, 0, 55, 88
4, 69956, Note_off_c, 0, 55, 0
4, 69960, Note_on_c, 0, 62, 88
4, 70076, Note_off_c, 0, 62, 0
4, 70080, Note_on_c, 0, 65, 88
4, 70196, Note_off_c, 0, 65, 0
4, 70200, Note_on_c, 0, 63, 88
4, 70316, Note_off_c, 0, 63, 0
4, 70320, Note_on_c, 0, 55, 88
4, 70436, Note_off_c, 0, 55, 0
4, 70440, Note_on_c, 0, 58, 88
4, 70556, Note_off_c, 0, 58, 0
4, 70560, Note_on_c, 0, 56, 88
4, 70676, Note_off_c, 0, 56, 0
4, 70680, Note_on_c, 0, 60, 88
4, 70796, Note_off_c, 0, 60, 0
4, 70800, Note_on_c, 0, 65, 88
4, 70916, Note_off_c, 0, 65, 0
4, 70920, Note_on_c, 0, 53, 88
4, 71036, Note_off_c, 0, 53, 0
4, 71040, Note_on_c, 0, 60, 88
4, 71156, Note_off_c, 0, 60, 0
4, 71160, Note_on_c, 0, 63, 88
4, 71276, Note_off_c, 0, 63, 0
4, 71280, Note_on_c, 0, 62, 88
4, 71633, Note_off_c, 0, 62, 0
4, 71880, Note_on_c, 0, 80, 88
4, 71996, Note_off_c, 0, 80, 0
4, 72000, Note_on_c, 0, 79, 88
4, 72234, Note_off_c, 0, 79, 0
4, 72600, Note_on_c, 0, 77, 88
4, 72716, Note_off_c, 0, 77, 0
4, 72720, Note_on_c, 0, 75, 88
4, 73058, Note_off_c, 0, 75, 0
4, 73080, Note_on_c, 0, 75, 88
4, 73116, Note_off_c, 0, 75, 0
4, 73118, Note_on_c, 0, 74, 88
4, 73161, Note_off_c, 0, 74, 0
4, 73163, Note_on_c, 0, 75, 88
4, 73199, Note_off_c, 0, 75, 0
4, 73200, Note_on_c, 0, 74, 88
4, 73316, Note_off_c, 0, 74, 0
4, 73320, Note_on_c, 0, 75, 88
4, 73436, Note_off_c, 0, 75, 0
4, 73440, Note_on_c, 0, 75, 88
4, 73556, Note_off_c, 0, 75, 0
4, 73560, Note_on_c, 0, 70, 88
4, 73676, Note_off_c, 0, 70, 0
4, 73680, Note_on_c, 0, 68, 88
4, 73796, Note_off_c, 0, 68, 0
4, 73800, Note_on_c, 0, 70, 88
4, 73916, Note_off_c, 0, 70, 0
4, 73920, Note_on_c, 0, 67, 88
4, 74036, Note_off_c, 0, 67, 0
4, 74040, Note_on_c, 0, 65, 88
4, 74156, Note_off_c, 0, 65, 0
4, 74160, Note_on_c, 0, 67, 88
4, 74276, Note_off_c, 0, 67, 0
4, 74280, Note_on_c, 0, 63, 88
4, 74396, Note_off_c, 0, 63, 0
4, 74400, Note_on_c, 0, 62, 88
4, 74516, Note_off_c, 0, 62, 0
4, 74520, Note_on_c, 0, 63, 88
4, 74636, Note_off_c, 0, 63, 0
4, 74640, Note_on_c, 0, 58, 88
4, 74756, Note_off_c, 0, 58, 0
4, 74760, Note_on_c, 0, 56, 88
4, 74876, Note_off_c, 0, 56, 0
4, 74880, Note_on_c, 0, 58, 88
4, 74996, Note_off_c, 0, 58, 0
4, 75000, Note_on_c, 0, 55, 88
4, 75116, Note_off_c, 0, 55, 0
4, 75120, Note_on_c, 0, 53, 88
4, 75236, Note_off_c, 0, 53, 0
4, 75240, Note_on_c, 0, 55, 88
4, 75356, Note_off_c, 0, 55, 0
4, 75360, Note_on_c, 0, 51, 88
4, 75476, Note_off_c, 0, 51, 0
4, 75480, Note_on_c, 0, 50, 88
4, 75596, Note_off_c, 0, 50, 0
4, 75600, Note_on_c, 0, 51, 88
4, 75953, Note_off_c, 0, 51, 0
4, 75960, Note_on_c, 0, 39, 88
4, 76313, Note_off_c, 0, 39, 0
4, 76313, End_track
5, 0, Start_track
5, 0, Title_t, "Track 2"
5, 0, Program_c, 1, 6
5, 3240, Note_on_c, 1, 63, 88
5, 3593, Note_off_c, 1, 63, 0
5, 9120, Note_on_c, 1, 72, 88
5, 9236, Note_off_c, 1, 72, 0
5, 9240, Note_on_c, 1, 70, 88
5, 9356, Note_off_c, 1, 70, 0
5, 9360, Note_on_c, 1, 72, 88
5, 10073, Note_off_c, 1, 72, 0
5, 55680, Note_on_c, 1, 77, 88
5, 56033, Note_off_c, 1, 77, 0
5, 56033, End_track
6, 0, Start_track
6, 0, Title_t, "Track 3"
6, 0, Program_c, 2, 6
6, 0, Note_on_c, 2, 67, 88
6, 353, Note_off_c, 2, 67, 0
6, 840, Note_on_c, 2, 67, 88
6, 1074, Note_off_c, 2, 67, 0
6, 1080, Note_on_c, 2, 65, 88
6, 1433, Note_off_c, 2, 65, 0
6, 2520, Note_on_c, 2, 62, 88
6, 2873, Note_off_c, 2, 62, 0
6, 2880, Note_on_c, 2, 58, 88
6, 3233, Note_off_c, 2, 58, 0
6, 3240, Note_on_c, 2, 58, 88
6, 3593, Note_off_c, 2, 58, 0
6, 9480, Note_on_c, 2, 69, 88
6, 9596, Note_off_c, 2, 69, 0
6, 9600, Note_on_c, 2, 67, 88
6, 9716, Note_off_c, 2, 67, 0
6, 9720, Note_on_c, 2, 69, 88
6, 10073, Note_off_c, 2, 69, 0
6, 10560, Note_on_c, 2, 69, 88
6, 10794, Note_off_c, 2, 69, 0
6, 11520, Note_on_c, 2, 60, 88
6, 11873, Note_off_c, 2, 60, 0
6, 11880, Note_on_c, 2, 62, 88
6, 12233, Note_off_c, 2, 62, 0
6, 17280, Note_on_c, 2, 74, 88
6, 17633, Note_off_c, 2, 74, 0
6, 18120, Note_on_c, 2, 63, 88
6, 18236, Note_off_c, 2, 63, 0
6, 18240, Note_on_c, 2, 62, 88
6, 18356, Note_off_c, 2, 62, 0
6, 18360, Note_on_c, 2, 63, 88
6, 18713, Note_off_c, 2, 63, 0
6, 19200, Note_on_c, 2, 65, 88
6, 19316, Note_off_c, 2, 65, 0
6, 19320, Note_on_c, 2, 67, 88
6, 19436, Note_off_c, 2, 67, 0
6, 19440, Note_on_c, 2, 68, 88
6, 19793, Note_off_c, 2, 68, 0
6, 20040, Note_on_c, 2, 68, 88
6, 20138, Note_off_c, 2, 68, 0
6, 20160, Note_on_c, 2, 68, 88
6, 20378, Note_off_c, 2, 68, 0
6, 20400, Note_on_c, 2, 68, 88
6, 20516, Note_off_c, 2, 68, 0
6, 20520, Note_on_c, 2, 68, 88
6, 20873, Note_off_c, 2, 68, 0
6, 27480, Note_on_c, 2, 70, 88
6, 27833, Note_off_c, 2, 70, 0
6, 29640, Note_on_c, 2, 68, 88
6, 29993, Note_off_c, 2, 68, 0
6, 55560, Note_on_c, 2, 72, 88
6, 56030, Note_off_c, 2, 72, 0
6, 64800, Note_on_c, 2, 63, 88
6, 64800, Note_on_c, 2, 67, 88
6, 65153, Note_off_c, 2, 63, 0
6, 65153, Note_off_c, 2, 67, 0
6, 65640, Note_on_c, 2, 67, 88
6, 65874, Note_off_c, 2, 67, 0
6, 65880, Note_on_c, 2, 65, 88
6, 66233, Note_off_c, 2, 65, 0
6, 71280, Note_on_c, 2, 58, 88
6, 71633, Note_off_c, 2, 58, 0
6, 71880, Note_on_c, 2, 77, 88
6, 71996, Note_off_c, 2, 77, 0
6, 72000, Note_on_c, 2, 75, 88
6, 72234, Note_off_c, 2, 75, 0
6, 72600, Note_on_c, 2, 72, 88
6, 72716, Note_off_c, 2, 72, 0
6, 72720, Note_on_c, 2, 70, 88
6, 73428, Note_off_c, 2, 70, 0
6, 73428, End_track
7, 0, Start_track
7, 0, Title_t, "Track 4"
7, 0, Program_c, 3, 6
7, 4920, Note_on_c, 3, 39, 88
7, 5036, Note_off_c, 3, 39, 0
7, 5040, Note_on_c, 3, 51, 88
7, 5274, Note_off_c, 3, 51, 0
7, 5280, Note_on_c, 3, 49, 88
7, 5396, Note_off_c, 3, 49, 0
7, 5400, Note_on_c, 3, 48, 88
7, 5634, Note_off_c, 3, 48, 0
7, 5640, Note_on_c, 3, 51, 88
7, 5756, Note_off_c, 3, 51, 0
7, 5760, Note_on_c, 3, 44, 88
7, 5994, Note_off_c, 3, 44, 0
7, 6000, Note_on_c, 3, 46, 88
7, 6116, Note_off_c, 3, 46, 0
7, 6120, Note_on_c, 3, 48, 88
7, 6354, Note_off_c, 3, 48, 0
7, 6360, Note_on_c, 3, 44, 88
7, 6476, Note_off_c, 3, 44, 0
7, 6480, Note_on_c, 3, 53, 88
7, 6714, Note_off_c, 3, 53, 0
7, 6720, Note_on_c, 3, 56, 88
7, 6836, Note_off_c, 3, 56, 0
7, 6840, Note_on_c, 3, 50, 88
7, 7074, Note_off_c, 3, 50, 0
7, 7080, Note_on_c, 3, 51, 88
7, 7196, Note_off_c, 3, 51, 0
7, 7200, Note_on_c, 3, 53, 88
7, 7434, Note_off_c, 3, 53, 0
7, 7440, Note_on_c, 3, 50, 88
7, 7556, Note_off_c, 3, 50, 0
7, 7560, Note_on_c, 3, 51, 88
7, 7794, Note_off_c, 3, 51, 0
7, 7800, Note_on_c, 3, 53, 88
7, 7916, Note_off_c, 3, 53, 0
7, 7920, Note_on_c, 3, 55, 88
7, 8154, Note_off_c, 3, 55, 0
7, 8160, Note_on_c, 3, 58, 88
7, 8276, Note_off_c, 3, 58, 0
7, 8280, Note_on_c, 3, 55, 88
7, 8514, Note_off_c, 3, 55, 0
7, 8520, Note_on_c, 3, 50, 88
7, 8636, Note_off_c, 3, 50, 0
7, 8640, Note_on_c, 3, 51, 88
7, 8874, Note_off_c, 3, 51, 0
7, 8880, Note_on_c, 3, 55, 88
7, 8996, Note_off_c, 3, 55, 0
7, 9000, Note_on_c, 3, 48, 88
7, 9234, Note_off_c, 3, 48, 0
7, 9240, Note_on_c, 3, 50, 88
7, 9356, Note_off_c, 3, 50, 0
7, 9360, Note_on_c, 3, 51, 88
7, 9418, Note_off_c, 3, 51, 0
7, 9420, Note_on_c, 3, 50, 88
7, 9478, Note_off_c, 3, 50, 0
7, 9480, Note_on_c, 3, 48, 88
7, 9538, Note_off_c, 3, 48, 0
7, 9540, Note_on_c, 3, 50, 88
7, 9598, Note_off_c, 3, 50, 0
7, 9600, Note_on_c, 3, 51, 88
7, 9716, Note_off_c, 3, 51, 0
7, 9720, Note_on_c, 3, 41, 88
7, 9836, Note_off_c, 3, 41, 0
7, 9840, Note_on_c, 3, 65, 88
7, 9956, Note_off_c, 3, 65, 0
7, 9960, Note_on_c, 3, 63, 88
7, 10076, Note_off_c, 3, 63, 0
7, 10080, Note_on_c, 3, 65, 88
7, 10196, Note_off_c, 3, 65, 0
7, 10200, Note_on_c, 3, 60, 88
7, 10316, Note_off_c, 3, 60, 0
7, 10320, Note_on_c, 3, 57, 88
7, 10436, Note_off_c, 3, 57, 0
7, 10440, Note_on_c, 3, 53, 88
7, 10556, Note_off_c, 3, 53, 0
7, 10800, Note_on_c, 3, 58, 88
7, 10916, Note_off_c, 3, 58, 0
7, 11160, Note_on_c, 3, 51, 88
7, 11276, Note_off_c, 3, 51, 0
7, 11520, Note_on_c, 3, 53, 88
7, 11636, Note_off_c, 3, 53, 0
7, 12000, Note_on_c, 3, 58, 88
7, 12116, Note_off_c, 3, 58, 0
7, 12120, Note_on_c, 3, 57, 88
7, 12236, Note_off_c, 3, 57, 0
7, 12240, Note_on_c, 3, 58, 88
7, 12356, Note_off_c, 3, 58, 0
7, 12360, Note_on_c, 3, 53, 88
7, 12476, Note_off_c, 3, 53, 0
7, 12480, Note_on_c, 3, 50, 88
7, 12596, Note_off_c, 3, 50, 0
7, 12600, Note_on_c, 3, 46, 88
7, 12716, Note_off_c, 3, 46, 0
7, 13080, Note_on_c, 3, 46, 88
7, 13196, Note_off_c, 3, 46, 0
7, 13200, Note_on_c, 3, 45, 88
7, 13316, Note_off_c, 3, 45, 0
7, 13320, Note_on_c, 3, 46, 88
7, 13436, Note_off_c, 3, 46, 0
7, 13440, Note_on_c, 3, 50, 88
7, 13556, Note_off_c, 3, 50, 0
7, 13560, Note_on_c, 3, 48, 88
7, 13676, Note_off_c, 3, 48, 0
7, 13680, Note_on_c, 3, 50, 88
7, 13796, Note_off_c, 3, 50, 0
7, 13800, Note_on_c, 3, 53, 88
7, 13916, Note_off_c, 3, 53, 0
7, 13920, Note_on_c, 3, 56, 88
7, 14036, Note_off_c, 3, 56, 0
7, 14040, Note_on_c, 3, 55, 88
7, 14156, Note_off_c, 3, 55, 0
7, 14160, Note_on_c, 3, 58, 88
7, 14276, Note_off_c, 3, 58, 0
7, 14280, Note_on_c, 3, 56, 88
7, 14396, Note_off_c, 3, 56, 0
7, 14400, Note_on_c, 3, 58, 88
7, 14516, Note_off_c, 3, 58, 0
7, 14520, Note_on_c, 3, 55, 88
7, 14636, Note_off_c, 3, 55, 0
7, 14640, Note_on_c, 3, 53, 88
7, 14756, Note_off_c, 3, 53, 0
7, 14760, Note_on_c, 3, 55, 88
7, 14876, Note_off_c, 3, 55, 0
7, 14880, Note_on_c, 3, 58, 88
7, 14996, Note_off_c, 3, 58, 0
7, 15000, Note_on_c, 3, 62, 88
7, 15116, Note_off_c, 3, 62, 0
7, 15120, Note_on_c, 3, 60, 88
7, 15236, Note_off_c, 3, 60, 0
7, 15240, Note_on_c, 3, 63, 88
7, 15356, Note_off_c, 3, 63, 0
7, 15360, Note_on_c, 3, 62, 88
7, 15476, Note_off_c, 3, 62, 0
7, 15480, Note_on_c, 3, 63, 88
7, 15596, Note_off_c, 3, 63, 0
7, 15600, Note_on_c, 3, 60, 88
7, 15716, Note_off_c, 3, 60, 0
7, 15720, Note_on_c, 3, 58, 88
7, 15836, Note_off_c, 3, 58, 0
7, 15840, Note_on_c, 3, 60, 88
7, 15956, Note_off_c, 3, 60, 0
7, 15960, Note_on_c, 3, 58, 88
7, 16076, Note_off_c, 3, 58, 0
7, 16080, Note_on_c, 3, 57, 88
7, 16196, Note_off_c, 3, 57, 0
7, 16200, Note_on_c, 3, 58, 88
7, 16316, Note_off_c, 3, 58, 0
7, 16320, Note_on_c, 3, 62, 88
7, 16436, Note_off_c, 3, 62, 0
7, 16440, Note_on_c, 3, 60, 88
7, 16556, Note_off_c, 3, 60, 0
7, 16560, Note_on_c, 3, 62, 88
7, 16676, Note_off_c, 3, 62, 0
7, 16680, Note_on_c, 3, 65, 88
7, 16796, Note_off_c, 3, 65, 0
7, 16800, Note_on_c, 3, 63, 88
7, 16916, Note_off_c, 3, 63, 0
7, 16920, Note_on_c, 3, 65, 88
7, 17036, Note_off_c, 3, 65, 0
7, 17040, Note_on_c, 3, 68, 88
7, 17156, Note_off_c, 3, 68, 0
7, 17160, Note_on_c, 3, 67, 88
7, 17276, Note_off_c, 3, 67, 0
7, 17280, Note_on_c, 3, 68, 88
7, 17633, Note_off_c, 3, 68, 0
7, 20400, Note_on_c, 3, 65, 88
7, 20516, Note_off_c, 3, 65, 0
7, 20520, Note_on_c, 3, 62, 88
7, 20873, Note_off_c, 3, 62, 0
7, 27360, Note_on_c, 3, 65, 88
7, 27830, Note_off_c, 3, 65, 0
7, 29520, Note_on_c, 3, 63, 88
7, 29990, Note_off_c, 3, 63, 0
7, 55440, Note_on_c, 3, 68, 88
7, 56030, Note_off_c, 3, 68, 0
7, 60120, Note_on_c, 3, 56, 88
7, 60236, Note_off_c, 3, 56, 0
7, 60240, Note_on_c, 3, 55, 88
7, 60356, Note_off_c, 3, 55, 0
7, 60360, Note_on_c, 3, 53, 88
7, 60476, Note_off_c, 3, 53, 0
7, 60480, Note_on_c, 3, 55, 88
7, 60596, Note_off_c, 3, 55, 0
7, 61200, Note_on_c, 3, 55, 88
7, 61316, Note_off_c, 3, 55, 0
7, 61320, Note_on_c, 3, 53, 88
7, 61436, Note_off_c, 3, 53, 0
7, 61440, Note_on_c, 3, 51, 88
7, 61556, Note_off_c, 3, 51, 0
7, 61560, Note_on_c, 3, 50, 88
7, 61676, Note_off_c, 3, 50, 0
7, 62280, Note_on_c, 3, 56, 88
7, 62396, Note_off_c, 3, 56, 0
7, 62400, Note_on_c, 3, 55, 88
7, 62516, Note_off_c, 3, 55, 0
7, 62520, Note_on_c, 3, 53, 88
7, 62636, Note_off_c, 3, 53, 0
7, 62640, Note_on_c, 3, 51, 88
7, 62756, Note_off_c, 3, 51, 0
7, 63360, Note_on_c, 3, 58, 88
7, 63476, Note_off_c, 3, 58, 0
7, 63480, Note_on_c, 3, 56, 88
7, 63596, Note_off_c, 3, 56, 0
7, 63600, Note_on_c, 3, 55, 88
7, 63716, Note_off_c, 3, 55, 0
7, 63720, Note_on_c, 3, 53, 88
7, 63836, Note_off_c, 3, 53, 0
7, 64440, Note_on_c, 3, 60, 88
7, 64556, Note_off_c, 3, 60, 0
7, 64560, Note_on_c, 3, 58, 88
7, 64676, Note_off_c, 3, 58, 0
7, 64680, Note_on_c, 3, 56, 88
7, 64796, Note_off_c, 3, 56, 0
7, 71280, Note_on_c, 3, 53, 88
7, 71633, Note_off_c, 3, 53, 0
7, 71880, Note_on_c, 3, 70, 88
7, 71978, Note_off_c, 3, 70, 0
7, 72000, Note_on_c, 3, 70, 88
7, 72234, Note_off_c, 3, 70, 0
7, 72600, Note_on_c, 3, 68, 88
7, 72716, Note_off_c, 3, 68, 0
7, 72720, Note_on_c, 3, 67, 88
7, 73073, Note_off_c, 3, 67, 0
7, 73080, Note_on_c, 3, 65, 88
7, 73433, Note_off_c, 3, 65, 0
7, 73433, End_track
8, 0, Start_track
8, 0, Title_t, "Track 5"
8, 0, Program_c, 4, 6
8, 120, Note_on_c, 4, 63, 88
8, 236, Note_off_c, 4, 63, 0
8, 240, Note_on_c, 4, 62, 88
8, 356, Note_off_c, 4, 62, 0
8, 360, Note_on_c, 4, 63, 88
8, 476, Note_off_c, 4, 63, 0
8, 480, Note_on_c, 4, 58, 88
8, 596, Note_off_c, 4, 58, 0
8, 600, Note_on_c, 4, 55, 88
8, 716, Note_off_c, 4, 55, 0
8, 720, Note_on_c, 4, 51, 88
8, 836, Note_off_c, 4, 51, 0
8, 1200, Note_on_c, 4, 58, 88
8, 1316, Note_off_c, 4, 58, 0
8, 1320, Note_on_c, 4, 57, 88
8, 1436, Note_off_c, 4, 57, 0
8, 1440, Note_on_c, 4, 58, 88
8, 1556, Note_off_c, 4, 58, 0
8, 1560, Note_on_c, 4, 53, 88
8, 1676, Note_off_c, 4, 53, 0
8, 1680, Note_on_c, 4, 50, 88
8, 1796, Note_off_c, 4, 50, 0
8, 1800, Note_on_c, 4, 46, 88
8, 1916, Note_off_c, 4, 46, 0
8, 2160, Note_on_c, 4, 53, 88
8, 2276, Note_off_c, 4, 53, 0
8, 2520, Note_on_c, 4, 58, 88
8, 2636, Note_off_c, 4, 58, 0
8, 2880, Note_on_c, 4, 46, 88
8, 2996, Note_off_c, 4, 46, 0
8, 3360, Note_on_c, 4, 51, 88
8, 3476, Note_off_c, 4, 51, 0
8, 3480, Note_on_c, 4, 50, 88
8, 3596, Note_off_c, 4, 50, 0
8, 3600, Note_on_c, 4, 51, 88
8, 3716, Note_off_c, 4, 51, 0
8, 3720, Note_on_c, 4, 46, 88
8, 3836, Note_off_c, 4, 46, 0
8, 3840, Note_on_c, 4, 43, 88
8, 3956, Note_off_c, 4, 43, 0
8, 3960, Note_on_c, 4, 39, 88
8, 4076, Note_off_c, 4, 39, 0
8, 4920, Note_on_c, 4, 39, 88
8, 5018, Note_off_c, 4, 39, 0
8, 5040, Note_on_c, 4, 39, 88
8, 5258, Note_off_c, 4, 39, 0
8, 5280, Note_on_c, 4, 39, 88
8, 5396, Note_off_c, 4, 39, 0
8, 5400, Note_on_c, 4, 39, 88
8, 5634, Note_off_c, 4, 39, 0
8, 6000, Note_on_c, 4, 39, 88
8, 6098, Note_off_c, 4, 39, 0
8, 6120, Note_on_c, 4, 39, 88
8, 6338, Note_off_c, 4, 39, 0
8, 6360, Note_on_c, 4, 39, 88
8, 6476, Note_off_c, 4, 39, 0
8, 6480, Note_on_c, 4, 51, 88
8, 6714, Note_off_c, 4, 51, 0
8, 7440, Note_on_c, 4, 39, 88
8, 7440, Note_on_c, 4, 46, 88
8, 7556, Note_off_c, 4, 39, 0
8, 7556, Note_off_c, 4, 46, 0
8, 7560, Note_on_c, 4, 39, 88
8, 7560, Note_on_c, 4, 46, 88
8, 7794, Note_off_c, 4, 39, 0
8, 7794, Note_off_c, 4, 46, 0
8, 13560, Note_on_c, 4, 46, 88
8, 13658, Note_off_c, 4, 46, 0
8, 13680, Note_on_c, 4, 46, 88
8, 13898, Note_off_c, 4, 46, 0
8, 13920, Note_on_c, 4, 46, 88
8, 14036, Note_off_c, 4, 46, 0
8, 14040, Note_on_c, 4, 46, 88
8, 14274, Note_off_c, 4, 46, 0
8, 14640, Note_on_c, 4, 46, 88
8, 14738, Note_off_c, 4, 46, 0
8, 14760, Note_on_c, 4, 46, 88
8, 14994, Note_off_c, 4, 46, 0
8, 15000, Note_on_c, 4, 58, 88
8, 15116, Note_off_c, 4, 58, 0
8, 15120, Note_on_c, 4, 58, 88
8, 15354, Note_off_c, 4, 58, 0
8, 16080, Note_on_c, 4, 46, 88
8, 16080, Note_on_c, 4, 53, 88
8, 16196, Note_off_c, 4, 46, 0
8, 16196, Note_off_c, 4, 53, 0
8, 16200, Note_on_c, 4, 46, 88
8, 16200, Note_on_c, 4, 53, 88
8, 16434, Note_off_c, 4, 46, 0
8, 16434, Note_off_c, 4, 53, 0
8, 17400, Note_on_c, 4, 58, 88
8, 17516, Note_off_c, 4, 58, 0
8, 17520, Note_on_c, 4, 57, 88
8, 17636, Note_off_c, 4, 57, 0
8, 17640, Note_on_c, 4, 58, 88
8, 17756, Note_off_c, 4, 58, 0
8, 17760, Note_on_c, 4, 53, 88
8, 17876, Note_off_c, 4, 53, 0
8, 17880, Note_on_c, 4, 50, 88
8, 17996, Note_off_c, 4, 50, 0
8, 18000, Note_on_c, 4, 46, 88
8, 18116, Note_off_c, 4, 46, 0
8, 18480, Note_on_c, 4, 58, 88
8, 18596, Note_off_c, 4, 58, 0
8, 18600, Note_on_c, 4, 56, 88
8, 18716, Note_off_c, 4, 56, 0
8, 18720, Note_on_c, 4, 58, 88
8, 18836, Note_off_c, 4, 58, 0
8, 18840, Note_on_c, 4, 55, 88
8, 18956, Note_off_c, 4, 55, 0
8, 18960, Note_on_c, 4, 51, 88
8, 19076, Note_off_c, 4, 51, 0
8, 19080, Note_on_c, 4, 46, 88
8, 19196, Note_off_c, 4, 46, 0
8, 19560, Note_on_c, 4, 46, 88
8, 19676, Note_off_c, 4, 46, 0
8, 19680, Note_on_c, 4, 45, 88
8, 19796, Note_off_c, 4, 45, 0
8, 19800, Note_on_c, 4, 46, 88
8, 19916, Note_off_c, 4, 46, 0
8, 19920, Note_on_c, 4, 50, 88
8, 20036, Note_off_c, 4, 50, 0
8, 20040, Note_on_c, 4, 48, 88
8, 20156, Note_off_c, 4, 48, 0
8, 20160, Note_on_c, 4, 50, 88
8, 20276, Note_off_c, 4, 50, 0
8, 20280, Note_on_c, 4, 53, 88
8, 20396, Note_off_c, 4, 53, 0
8, 20400, Note_on_c, 4, 51, 88
8, 20516, Note_off_c, 4, 51, 0
8, 20520, Note_on_c, 4, 53, 88
8, 20636, Note_off_c, 4, 53, 0
8, 20640, Note_on_c, 4, 56, 88
8, 20756, Note_off_c, 4, 56, 0
8, 20760, Note_on_c, 4, 55, 88
8, 20876, Note_off_c, 4, 55, 0
8, 20880, Note_on_c, 4, 56, 88
8, 20996, Note_off_c, 4, 56, 0
8, 21240, Note_on_c, 4, 47, 88
8, 21356, Note_off_c, 4, 47, 0
8, 21600, Note_on_c, 4, 48, 88
8, 21716, Note_off_c, 4, 48, 0
8, 21960, Note_on_c, 4, 60, 88
8, 22076, Note_off_c, 4, 60, 0
8, 22320, Note_on_c, 4, 58, 88
8, 22436, Note_off_c, 4, 58, 0
8, 22680, Note_on_c, 4, 56, 88
8, 22796, Note_off_c, 4, 56, 0
8, 23040, Note_on_c, 4, 44, 88
8, 23156, Note_off_c, 4, 44, 0
8, 23400, Note_on_c, 4, 51, 88
8, 23516, Note_off_c, 4, 51, 0
8, 23760, Note_on_c, 4, 53, 88
8, 23876, Note_off_c, 4, 53, 0
8, 24120, Note_on_c, 4, 54, 88
8, 24236, Note_off_c, 4, 54, 0
8, 24480, Note_on_c, 4, 55, 88
8, 24596, Note_off_c, 4, 55, 0
8, 24840, Note_on_c, 4, 48, 88
8, 25310, Note_off_c, 4, 48, 0
8, 25320, Note_on_c, 4, 51, 88
8, 25436, Note_off_c, 4, 51, 0
8, 25440, Note_on_c, 4, 55, 88
8, 25556, Note_off_c, 4, 55, 0
8, 25560, Note_on_c, 4, 58, 88
8, 25676, Note_off_c, 4, 58, 0
8, 25680, Note_on_c, 4, 57, 88
8, 25796, Note_off_c, 4, 57, 0
8, 25800, Note_on_c, 4, 55, 88
8, 25916, Note_off_c, 4, 55, 0
8, 25920, Note_on_c, 4, 57, 88
8, 26036, Note_off_c, 4, 57, 0
8, 26760, Note_on_c, 4, 60, 88
8, 26876, Note_off_c, 4, 60, 0
8, 26880, Note_on_c, 4, 53, 88
8, 26996, Note_off_c, 4, 53, 0
8, 27000, Note_on_c, 4, 58, 88
8, 27116, Note_off_c, 4, 58, 0
8, 27840, Note_on_c, 4, 56, 88
8, 27956, Note_off_c, 4, 56, 0
8, 27960, Note_on_c, 4, 53, 88
8, 28076, Note_off_c, 4, 53, 0
8, 28080, Note_on_c, 4, 55, 88
8, 28196, Note_off_c, 4, 55, 0
8, 28920, Note_on_c, 4, 58, 88
8, 29036, Note_off_c, 4, 58, 0
8, 29040, Note_on_c, 4, 51, 88
8, 29156, Note_off_c, 4, 51, 0
8, 29160, Note_on_c, 4, 56, 88
8, 29276, Note_off_c, 4, 56, 0
8, 30000, Note_on_c, 4, 55, 88
8, 30116, Note_off_c, 4, 55, 0
8, 30120, Note_on_c, 4, 51, 88
8, 30236, Note_off_c, 4, 51, 0
8, 30240, Note_on_c, 4, 53, 88
8, 30474, Note_off_c, 4, 53, 0
8, 30960, Note_on_c, 4, 55, 88
8, 31076, Note_off_c, 4, 55, 0
8, 31320, Note_on_c, 4, 52, 88
8, 31436, Note_off_c, 4, 52, 0
8, 32040, Note_on_c, 4, 53, 88
8, 32156, Note_off_c, 4, 53, 0
8, 32400, Note_on_c, 4, 50, 88
8, 32516, Note_off_c, 4, 50, 0
8, 32760, Note_on_c, 4, 51, 88
8, 32876, Note_off_c, 4, 51, 0
8, 33120, Note_on_c, 4, 45, 88
8, 33236, Note_off_c, 4, 45, 0
8, 33480, Note_on_c, 4, 46, 88
8, 33596, Note_off_c, 4, 46, 0
8, 33960, Note_on_c, 4, 50, 88
8, 34076, Note_off_c, 4, 50, 0
8, 34080, Note_on_c, 4, 48, 88
8, 34196, Note_off_c, 4, 48, 0
8, 34200, Note_on_c, 4, 50, 88
8, 34316, Note_off_c, 4, 50, 0
8, 34320, Note_on_c, 4, 53, 88
8, 34436, Note_off_c, 4, 53, 0
8, 34440, Note_on_c, 4, 56, 88
8, 34556, Note_off_c, 4, 56, 0
8, 34560, Note_on_c, 4, 46, 88
8, 34676, Note_off_c, 4, 46, 0
8, 34680, Note_on_c, 4, 50, 88
8, 34796, Note_off_c, 4, 50, 0
8, 34800, Note_on_c, 4, 48, 88
8, 34916, Note_off_c, 4, 48, 0
8, 34920, Note_on_c, 4, 50, 88
8, 35036, Note_off_c, 4, 50, 0
8, 35040, Note_on_c, 4, 53, 88
8, 35156, Note_off_c, 4, 53, 0
8, 35160, Note_on_c, 4, 51, 88
8, 35276, Note_off_c, 4, 51, 0
8, 35280, Note_on_c, 4, 53, 88
8, 35396, Note_off_c, 4, 53, 0
8, 35400, Note_on_c, 4, 50, 88
8, 35516, Note_off_c, 4, 50, 0
8, 35520, Note_on_c, 4, 46, 88
8, 35636, Note_off_c, 4, 46, 0
8, 35880, Note_on_c, 4, 53, 88
8, 35996, Note_off_c, 4, 53, 0
8, 36000, Note_on_c, 4, 43, 88
8, 36234, Note_off_c, 4, 43, 0
8, 36240, Note_on_c, 4, 51, 88
8, 36356, Note_off_c, 4, 51, 0
8, 36360, Note_on_c, 4, 41, 88
8, 36594, Note_off_c, 4, 41, 0
8, 36600, Note_on_c, 4, 50, 88
8, 36716, Note_off_c, 4, 50, 0
8, 36720, Note_on_c, 4, 39, 88
8, 36836, Note_off_c, 4, 39, 0
8, 37200, Note_on_c, 4, 55, 88
8, 37316, Note_off_c, 4, 55, 0
8, 37320, Note_on_c, 4, 53, 88
8, 37436, Note_off_c, 4, 53, 0
8, 37440, Note_on_c, 4, 55, 88
8, 37556, Note_off_c, 4, 55, 0
8, 37560, Note_on_c, 4, 58, 88
8, 37676, Note_off_c, 4, 58, 0
8, 37680, Note_on_c, 4, 61, 88
8, 37796, Note_off_c, 4, 61, 0
8, 37800, Note_on_c, 4, 51, 88
8, 37916, Note_off_c, 4, 51, 0
8, 37920, Note_on_c, 4, 55, 88
8, 38036, Note_off_c, 4, 55, 0
8, 38040, Note_on_c, 4, 53, 88
8, 38156, Note_off_c, 4, 53, 0
8, 38160, Note_on_c, 4, 55, 88
8, 38276, Note_off_c, 4, 55, 0
8, 38280, Note_on_c, 4, 58, 88
8, 38396, Note_off_c, 4, 58, 0
8, 38400, Note_on_c, 4, 56, 88
8, 38516, Note_off_c, 4, 56, 0
8, 38520, Note_on_c, 4, 58, 88
8, 38636, Note_off_c, 4, 58, 0
8, 38640, Note_on_c, 4, 55, 88
8, 38756, Note_off_c, 4, 55, 0
8, 38760, Note_on_c, 4, 51, 88
8, 38876, Note_off_c, 4, 51, 0
8, 39120, Note_on_c, 4, 58, 88
8, 39236, Note_off_c, 4, 58, 0
8, 39240, Note_on_c, 4, 48, 88
8, 39474, Note_off_c, 4, 48, 0
8, 39480, Note_on_c, 4, 56, 88
8, 39596, Note_off_c, 4, 56, 0
8, 39600, Note_on_c, 4, 46, 88
8, 39834, Note_off_c, 4, 46, 0
8, 39840, Note_on_c, 4, 55, 88
8, 39956, Note_off_c, 4, 55, 0
8, 39960, Note_on_c, 4, 44, 88
8, 40194, Note_off_c, 4, 44, 0
8, 40440, Note_on_c, 4, 60, 88
8, 40556, Note_off_c, 4, 60, 0
8, 40560, Note_on_c, 4, 58, 88
8, 40676, Note_off_c, 4, 58, 0
8, 40680, Note_on_c, 4, 60, 88
8, 40914, Note_off_c, 4, 60, 0
8, 41280, Note_on_c, 4, 48, 88
8, 41396, Note_off_c, 4, 48, 0
8, 41400, Note_on_c, 4, 62, 88
8, 41634, Note_off_c, 4, 62, 0
8, 41640, Note_on_c, 4, 46, 88
8, 41756, Note_off_c, 4, 46, 0
8, 41760, Note_on_c, 4, 60, 88
8, 41994, Note_off_c, 4, 60, 0
8, 42000, Note_on_c, 4, 45, 88
8, 42116, Note_off_c, 4, 45, 0
8, 42120, Note_on_c, 4, 46, 88
8, 42354, Note_off_c, 4, 46, 0
8, 42600, Note_on_c, 4, 62, 88
8, 42716, Note_off_c, 4, 62, 0
8, 42720, Note_on_c, 4, 60, 88
8, 42836, Note_off_c, 4, 60, 0
8, 42840, Note_on_c, 4, 62, 88
8, 43074, Note_off_c, 4, 62, 0
8, 43440, Note_on_c, 4, 50, 88
8, 43556, Note_off_c, 4, 50, 0
8, 43560, Note_on_c, 4, 63, 88
8, 43794, Note_off_c, 4, 63, 0
8, 43800, Note_on_c, 4, 48, 88
8, 43916, Note_off_c, 4, 48, 0
8, 43920, Note_on_c, 4, 62, 88
8, 44154, Note_off_c, 4, 62, 0
8, 44160, Note_on_c, 4, 47, 88
8, 44276, Note_off_c, 4, 47, 0
8, 44280, Note_on_c, 4, 48, 88
8, 44514, Note_off_c, 4, 48, 0
8, 44760, Note_on_c, 4, 63, 88
8, 44876, Note_off_c, 4, 63, 0
8, 44880, Note_on_c, 4, 62, 88
8, 44996, Note_off_c, 4, 62, 0
8, 45000, Note_on_c, 4, 63, 88
8, 45234, Note_off_c, 4, 63, 0
8, 45480, Note_on_c, 4, 68, 88
8, 45596, Note_off_c, 4, 68, 0
8, 45600, Note_on_c, 4, 67, 88
8, 45716, Note_off_c, 4, 67, 0
8, 45720, Note_on_c, 4, 68, 88
8, 45836, Note_off_c, 4, 68, 0
8, 45840, Note_on_c, 4, 63, 88
8, 45956, Note_off_c, 4, 63, 0
8, 45960, Note_on_c, 4, 60, 88
8, 46076, Note_off_c, 4, 60, 0
8, 46080, Note_on_c, 4, 67, 88
8, 46196, Note_off_c, 4, 67, 0
8, 46200, Note_on_c, 4, 62, 88
8, 46316, Note_off_c, 4, 62, 0
8, 46320, Note_on_c, 4, 58, 88
8, 46436, Note_off_c, 4, 58, 0
8, 46440, Note_on_c, 4, 66, 88
8, 46556, Note_off_c, 4, 66, 0
8, 46560, Note_on_c, 4, 60, 88
8, 46676, Note_off_c, 4, 60, 0
8, 46680, Note_on_c, 4, 57, 88
8, 46796, Note_off_c, 4, 57, 0
8, 46800, Note_on_c, 4, 63, 88
8, 46916, Note_off_c, 4, 63, 0
8, 46920, Note_on_c, 4, 58, 88
8, 47036, Note_off_c, 4, 58, 0
8, 47040, Note_on_c, 4, 55, 88
8, 47156, Note_off_c, 4, 55, 0
8, 47160, Note_on_c, 4, 62, 88
8, 47276, Note_off_c, 4, 62, 0
8, 47280, Note_on_c, 4, 57, 88
8, 47396, Note_off_c, 4, 57, 0
8, 47400, Note_on_c, 4, 54, 88
8, 47516, Note_off_c, 4, 54, 0
8, 47520, Note_on_c, 4, 55, 88
8, 47636, Note_off_c, 4, 55, 0
8, 47880, Note_on_c, 4, 48, 88
8, 47996, Note_off_c, 4, 48, 0
8, 48240, Note_on_c, 4, 49, 88
8, 48356, Note_off_c, 4, 49, 0
8, 48600, Note_on_c, 4, 50, 88
8, 48716, Note_off_c, 4, 50, 0
8, 49200, Note_on_c, 4, 38, 88
8, 49316, Note_off_c, 4, 38, 0
8, 49320, Note_on_c, 4, 40, 88
8, 49554, Note_off_c, 4, 40, 0
8, 49560, Note_on_c, 4, 42, 88
8, 49676, Note_off_c, 4, 42, 0
8, 49680, Note_on_c, 4, 43, 88
8, 49796, Note_off_c, 4, 43, 0
8, 50040, Note_on_c, 4, 55, 88
8, 50156, Note_off_c, 4, 55, 0
8, 50400, Note_on_c, 4, 53, 88
8, 50516, Note_off_c, 4, 53, 0
8, 50760, Note_on_c, 4, 51, 88
8, 50876, Note_off_c, 4, 51, 0
8, 51120, Note_on_c, 4, 39, 88
8, 51236, Note_off_c, 4, 39, 0
8, 51480, Note_on_c, 4, 46, 88
8, 51596, Note_off_c, 4, 46, 0
8, 51840, Note_on_c, 4, 48, 88
8, 51956, Note_off_c, 4, 48, 0
8, 52200, Note_on_c, 4, 49, 88
8, 52316, Note_off_c, 4, 49, 0
8, 52560, Note_on_c, 4, 50, 88
8, 52676, Note_off_c, 4, 50, 0
8, 52920, Note_on_c, 4, 43, 88
8, 53390, Note_off_c, 4, 43, 0
8, 53400, Note_on_c, 4, 46, 88
8, 53516, Note_off_c, 4, 46, 0
8, 53520, Note_on_c, 4, 50, 88
8, 53636, Note_off_c, 4, 50, 0
8, 53640, Note_on_c, 4, 53, 88
8, 53756, Note_off_c, 4, 53, 0
8, 53760, Note_on_c, 4, 52, 88
8, 53876, Note_off_c, 4, 52, 0
8, 53880, Note_on_c, 4, 50, 88
8, 53996, Note_off_c, 4, 50, 0
8, 54000, Note_on_c, 4, 52, 88
8, 54234, Note_off_c, 4, 52, 0
8, 54840, Note_on_c, 4, 55, 88
8, 54956, Note_off_c, 4, 55, 0
8, 54960, Note_on_c, 4, 48, 88
8, 55076, Note_off_c, 4, 48, 0
8, 55080, Note_on_c, 4, 53, 88
8, 55314, Note_off_c, 4, 53, 0
8, 55920, Note_on_c, 4, 48, 88
8, 56036, Note_off_c, 4, 48, 0
8, 56040, Note_on_c, 4, 51, 88
8, 56156, Note_off_c, 4, 51, 0
8, 56160, Note_on_c, 4, 50, 88
8, 56276, Note_off_c, 4, 50, 0
8, 57000, Note_on_c, 4, 62, 88
8, 57116, Note_off_c, 4, 62, 0
8, 57120, Note_on_c, 4, 58, 88
8, 57236, Note_off_c, 4, 58, 0
8, 57240, Note_on_c, 4, 63, 88
8, 57474, Note_off_c, 4, 63, 0
8, 58080, Note_on_c, 4, 55, 88
8, 58196, Note_off_c, 4, 55, 0
8, 58200, Note_on_c, 4, 51, 88
8, 58316, Note_off_c, 4, 51, 0
8, 58320, Note_on_c, 4, 56, 88
8, 58436, Note_off_c, 4, 56, 0
8, 58440, Note_on_c, 4, 51, 88
8, 58556, Note_off_c, 4, 51, 0
8, 58560, Note_on_c, 4, 49, 88
8, 58676, Note_off_c, 4, 49, 0
8, 58680, Note_on_c, 4, 48, 88
8, 58796, Note_off_c, 4, 48, 0
8, 58800, Note_on_c, 4, 46, 88
8, 58916, Note_off_c, 4, 46, 0
8, 58920, Note_on_c, 4, 44, 88
8, 59036, Note_off_c, 4, 44, 0
8, 59040, Note_on_c, 4, 43, 88
8, 59156, Note_off_c, 4, 43, 0
8, 59160, Note_on_c, 4, 48, 88
8, 59276, Note_off_c, 4, 48, 0
8, 59280, Note_on_c, 4, 46, 88
8, 59396, Note_off_c, 4, 46, 0
8, 59400, Note_on_c, 4, 45, 88
8, 59516, Note_off_c, 4, 45, 0
8, 59520, Note_on_c, 4, 46, 88
8, 59578, Note_off_c, 4, 46, 0
8, 59580, Note_on_c, 4, 45, 88
8, 59638, Note_off_c, 4, 45, 0
8, 59640, Note_on_c, 4, 43, 88
8, 59698, Note_off_c, 4, 43, 0
8, 59700, Note_on_c, 4, 45, 88
8, 59758, Note_off_c, 4, 45, 0
8, 59760, Note_on_c, 4, 46, 88
8, 59876, Note_off_c, 4, 46, 0
8, 60480, Note_on_c, 4, 46, 88
8, 60596, Note_off_c, 4, 46, 0
8, 61560, Note_on_c, 4, 46, 88
8, 61676, Note_off_c, 4, 46, 0
8, 62640, Note_on_c, 4, 46, 88
8, 62756, Note_off_c, 4, 46, 0
8, 63720, Note_on_c, 4, 46, 88
8, 63720, Note_on_c, 4, 50, 88
8, 63836, Note_off_c, 4, 46, 0
8, 63836, Note_off_c, 4, 50, 0
8, 64800, Note_on_c, 4, 55, 88
8, 64916, Note_off_c, 4, 55, 0
8, 64920, Note_on_c, 4, 58, 88
8, 65036, Note_off_c, 4, 58, 0
8, 65040, Note_on_c, 4, 56, 88
8, 65156, Note_off_c, 4, 56, 0
8, 65160, Note_on_c, 4, 58, 88
8, 65276, Note_off_c, 4, 58, 0
8, 65280, Note_on_c, 4, 55, 88
8, 65396, Note_off_c, 4, 55, 0
8, 65400, Note_on_c, 4, 51, 88
8, 65516, Note_off_c, 4, 51, 0
8, 65520, Note_on_c, 4, 46, 88
8, 65636, Note_off_c, 4, 46, 0
8, 66000, Note_on_c, 4, 58, 88
8, 66116, Note_off_c, 4, 58, 0
8, 66120, Note_on_c, 4, 57, 88
8, 66236, Note_off_c, 4, 57, 0
8, 66240, Note_on_c, 4, 58, 88
8, 66356, Note_off_c, 4, 58, 0
8, 66360, Note_on_c, 4, 53, 88
8, 66476, Note_off_c, 4, 53, 0
8, 66480, Note_on_c, 4, 50, 88
8, 66596, Note_off_c, 4, 50, 0
8, 66600, Note_on_c, 4, 46, 88
8, 66716, Note_off_c, 4, 46, 0
8, 67200, Note_on_c, 4, 55, 88
8, 67316, Note_off_c, 4, 55, 0
8, 67320, Note_on_c, 4, 53, 88
8, 67554, Note_off_c, 4, 53, 0
8, 67560, Note_on_c, 4, 51, 88
8, 67676, Note_off_c, 4, 51, 0
8, 67680, Note_on_c, 4, 50, 88
8, 67914, Note_off_c, 4, 50, 0
8, 67920, Note_on_c, 4, 46, 88
8, 68036, Note_off_c, 4, 46, 0
8, 68040, Note_on_c, 4, 39, 88
8, 68274, Note_off_c, 4, 39, 0
8, 68280, Note_on_c, 4, 53, 88
8, 68396, Note_off_c, 4, 53, 0
8, 68400, Note_on_c, 4, 51, 88
8, 68634, Note_off_c, 4, 51, 0
8, 68640, Note_on_c, 4, 49, 88
8, 68756, Note_off_c, 4, 49, 0
8, 68760, Note_on_c, 4, 48, 88
8, 68994, Note_off_c, 4, 48, 0
8, 69000, Note_on_c, 4, 44, 88
8, 69116, Note_off_c, 4, 44, 0
8, 69120, Note_on_c, 4, 38, 88
8, 69354, Note_off_c, 4, 38, 0
8, 69360, Note_on_c, 4, 51, 88
8, 69476, Note_off_c, 4, 51, 0
8, 69480, Note_on_c, 4, 50, 88
8, 69714, Note_off_c, 4, 50, 0
8, 69720, Note_on_c, 4, 48, 88
8, 69836, Note_off_c, 4, 48, 0
8, 69840, Note_on_c, 4, 46, 88
8, 70074, Note_off_c, 4, 46, 0
8, 70080, Note_on_c, 4, 43, 88
8, 70196, Note_off_c, 4, 43, 0
8, 70200, Note_on_c, 4, 36, 88
8, 70434, Note_off_c, 4, 36, 0
8, 70440, Note_on_c, 4, 49, 88
8, 70556, Note_off_c, 4, 49, 0
8, 70560, Note_on_c, 4, 48, 88
8, 70794, Note_off_c, 4, 48, 0
8, 70800, Note_on_c, 4, 46, 88
8, 70916, Note_off_c, 4, 46, 0
8, 70920, Note_on_c, 4, 44, 88
8, 71154, Note_off_c, 4, 44, 0
8, 71160, Note_on_c, 4, 43, 88
8, 71276, Note_off_c, 4, 43, 0
8, 71280, Note_on_c, 4, 44, 88
8, 71633, Note_off_c, 4, 44, 0
8, 71880, Note_on_c, 4, 50, 88
8, 71996, Note_off_c, 4, 50, 0
8, 72000, Note_on_c, 4, 51, 88
8, 72116, Note_off_c, 4, 51, 0
8, 72120, Note_on_c, 4, 53, 88
8, 72178, Note_off_c, 4, 53, 0
8, 72180, Note_on_c, 4, 55, 88
8, 72238, Note_off_c, 4, 55, 0
8, 72240, Note_on_c, 4, 56, 88
8, 72298, Note_off_c, 4, 56, 0
8, 72300, Note_on_c, 4, 58, 88
8, 72358, Note_off_c, 4, 58, 0
8, 72360, Note_on_c, 4, 60, 88
8, 72418, Note_off_c, 4, 60, 0
8, 72420, Note_on_c, 4, 62, 88
8, 72478, Note_off_c, 4, 62, 0
8, 72480, Note_on_c, 4, 63, 88
8, 72596, Note_off_c, 4, 63, 0
8, 72600, Note_on_c, 4, 56, 88
8, 72716, Note_off_c, 4, 56, 0
8, 72720, Note_on_c, 4, 58, 88
8, 73073, Note_off_c, 4, 58, 0
8, 73080, Note_on_c, 4, 46, 88
8, 73433, Note_off_c, 4, 46, 0
8, 73440, Note_on_c, 4, 51, 88
8, 73793, Note_off_c, 4, 51, 0
8, 73793, End_track
0, 0, End_of_file
