0, 0, Header, 1, 5, 240
1, 0, Start_track
1, 0, Time_signature, 4, 2, 24, 8
1, 0, Tempo, 789473
1, 0, SMPTE_offset, 64, 0, 0, 0, 102
1, 15360, Time_signature, 4, 2, 24, 8
1, 15360, End_track
2, 0, Start_track
2, 0, Title_t, "(C) & (P) 1993"
2, 127, End_track
3, 0, Start_track
3, 0, Title_t, "CCARH,Stanford"
3, 0, End_track
4, 0, Start_track
4, 0, Title_t, "Track 1"
4, 0, Program_c, 0, 6
4, 0, Note_on_c, 0, 63, 88
4, 58, Note_off_c, 0, 63, 0
4, 60, Note_on_c, 0, 66, 88
4, 118, Note_off_c, 0, 66, 0
4, 120, Note_on_c, 0, 65, 88
4, 178, Note_off_c, 0, 65, 0
4, 180, Note_on_c, 0, 68, 88
4, 238, Note_off_c, 0, 68, 0
4, 240, Note_on_c, 0, 66, 88
4, 298, Note_off_c, 0, 66, 0
4, 300, Note_on_c, 0, 70, 88
4, 358, Note_off_c, 0, 70, 0
4, 360, Note_on_c, 0, 68, 88
4, 418, Note_off_c, 0, 68, 0
4, 420, Note_on_c, 0, 71, 88
4, 478, Note_off_c, 0, 71, 0
4, 480, Note_on_c, 0, 70, 88
4, 538, Note_off_c, 0, 70, 0
4, 540, Note_on_c, 0, 75, 88
4, 598, Note_off_c, 0, 75, 0
4, 600, Note_on_c, 0, 74, 88
4, 658, Note_off_c, 0, 74, 0
4, 660, Note_on_c, 0, 72, 88
4, 718, Note_off_c, 0, 72, 0
4, 720, Note_on_c, 0, 70, 88
4, 778, Note_off_c, 0, 70, 0
4, 780, Note_on_c, 0, 68, 88
4, 838, Note_off_c, 0, 68, 0
4, 840, Note_on_c, 0, 66, 88
4, 898, Note_off_c, 0, 66, 0
4, 900, Note_on_c, 0, 65, 88
4, 958, Note_off_c, 0, 65, 0
4, 960, Note_on_c, 0, 66, 88
4, 1076, Note_off_c, 0, 66, 0
4, 1080, Note_on_c, 0, 62, 88
4, 1196, Note_off_c, 0, 62, 0
4, 1200, Note_on_c, 0, 63, 88
4, 1316, Note_off_c, 0, 63, 0
4, 1320, Note_on_c, 0, 75, 88
4, 1421, Note_off_c, 0, 75, 0
4, 1440, Note_on_c, 0, 75, 88
4, 1455, Note_on_c, 0, 74, 88
4, 1455, Note_off_c, 0, 75, 0
4, 1470, Note_off_c, 0, 74, 0
4, 1470, Note_on_c, 0, 75, 88
4, 1485, Note_on_c, 0, 74, 88
4, 1485, Note_off_c, 0, 75, 0
4, 1500, Note_on_c, 0, 72, 88
4, 1500, Note_off_c, 0, 74, 0
4, 1558, Note_off_c, 0, 72, 0
4, 1560, Note_on_c, 0, 70, 88
4, 1676, Note_off_c, 0, 70, 0
4, 1800, Note_on_c, 0, 74, 88
4, 1822, Note_off_c, 0, 74, 0
4, 1823, Note_on_c, 0, 75, 88
4, 1848, Note_off_c, 0, 75, 0
4, 1849, Note_on_c, 0, 74, 88
4, 1874, Note_off_c, 0, 74, 0
4, 1875, Note_on_c, 0, 72, 88
4, 1897, Note_off_c, 0, 72, 0
4, 1898, Note_on_c, 0, 74, 88
4, 1919, Note_off_c, 0, 74, 0
4, 1920, Note_on_c, 0, 75, 88
4, 1978, Note_off_c, 0, 75, 0
4, 1980, Note_on_c, 0, 78, 88
4, 2038, Note_off_c, 0, 78, 0
4, 2040, Note_on_c, 0, 77, 88
4, 2098, Note_off_c, 0, 77, 0
4, 2100, Note_on_c, 0, 80, 88
4, 2158, Note_off_c, 0, 80, 0
4, 2160, Note_on_c, 0, 78, 88
4, 2218, Note_off_c, 0, 78, 0
4, 2220, Note_on_c, 0, 77, 88
4, 2278, Note_off_c, 0, 77, 0
4, 2280, Note_on_c, 0, 75, 88
4, 2338, Note_off_c, 0, 75, 0
4, 2340, Note_on_c, 0, 73, 88
4, 2398, Note_off_c, 0, 73, 0
4, 2400, Note_on_c, 0, 71, 88
4, 2516, Note_off_c, 0, 71, 0
4, 2520, Note_on_c, 0, 75, 88
4, 2636, Note_off_c, 0, 75, 0
4, 2640, Note_on_c, 0, 80, 88
4, 2669, Note_off_c, 0, 80, 0
4, 2670, Note_on_c, 0, 78, 88
4, 2699, Note_off_c, 0, 78, 0
4, 2700, Note_on_c, 0, 80, 88
4, 2875, Note_off_c, 0, 80, 0
4, 2880, Note_on_c, 0, 80, 88
4, 2938, Note_off_c, 0, 80, 0
4, 2940, Note_on_c, 0, 77, 88
4, 2998, Note_off_c, 0, 77, 0
4, 3000, Note_on_c, 0, 78, 88
4, 3058, Note_off_c, 0, 78, 0
4, 3060, Note_on_c, 0, 75, 88
4, 3118, Note_off_c, 0, 75, 0
4, 3120, Note_on_c, 0, 77, 88
4, 3178, Note_off_c, 0, 77, 0
4, 3180, Note_on_c, 0, 80, 88
4, 3238, Note_off_c, 0, 80, 0
4, 3240, Note_on_c, 0, 73, 88
4, 3298, Note_off_c, 0, 73, 0
4, 3300, Note_on_c, 0, 71, 88
4, 3358, Note_off_c, 0, 71, 0
4, 3360, Note_on_c, 0, 70, 88
4, 3476, Note_off_c, 0, 70, 0
4, 3480, Note_on_c, 0, 73, 88
4, 3596, Note_off_c, 0, 73, 0
4, 3600, Note_on_c, 0, 78, 88
4, 3629, Note_off_c, 0, 78, 0
4, 3630, Note_on_c, 0, 76, 88
4, 3659, Note_off_c, 0, 76, 0
4, 3660, Note_on_c, 0, 78, 88
4, 3835, Note_off_c, 0, 78, 0
4, 3840, Note_on_c, 0, 78, 88
4, 3898, Note_off_c, 0, 78, 0
4, 3900, Note_on_c, 0, 77, 88
4, 3958, Note_off_c, 0, 77, 0
4, 3960, Note_on_c, 0, 75, 88
4, 4018, Note_off_c, 0, 75, 0
4, 4020, Note_on_c, 0, 74, 88
4, 4078, Note_off_c, 0, 74, 0
4, 4080, Note_on_c, 0, 75, 88
4, 4138, Note_off_c, 0, 75, 0
4, 4140, Note_on_c, 0, 78, 88
4, 4198, Note_off_c, 0, 78, 0
4, 4200, Note_on_c, 0, 68, 88
4, 4258, Note_off_c, 0, 68, 0
4, 4260, Note_on_c, 0, 78, 88
4, 4318, Note_off_c, 0, 78, 0
4, 4320, Note_on_c, 0, 77, 88
4, 4378, Note_off_c, 0, 77, 0
4, 4380, Note_on_c, 0, 75, 88
4, 4438, Note_off_c, 0, 75, 0
4, 4440, Note_on_c, 0, 73, 88
4, 4498, Note_off_c, 0, 73, 0
4, 4500, Note_on_c, 0, 72, 88
4, 4558, Note_off_c, 0, 72, 0
4, 4560, Note_on_c, 0, 73, 88
4, 4618, Note_off_c, 0, 73, 0
4, 4620, Note_on_c, 0, 76, 88
4, 4678, Note_off_c, 0, 76, 0
4, 4680, Note_on_c, 0, 66, 88
4, 4738, Note_off_c, 0, 66, 0
4, 4740, Note_on_c, 0, 76, 88
4, 4798, Note_off_c, 0, 76, 0
4, 4800, Note_on_c, 0, 75, 88
4, 4858, Note_off_c, 0, 75, 0
4, 4860, Note_on_c, 0, 73, 88
4, 4918, Note_off_c, 0, 73, 0
4, 4920, Note_on_c, 0, 71, 88
4, 4978, Note_off_c, 0, 71, 0
4, 4980, Note_on_c, 0, 70, 88
4, 5038, Note_off_c, 0, 70, 0
4, 5040, Note_on_c, 0, 71, 88
4, 5098, Note_off_c, 0, 71, 0
4, 5100, Note_on_c, 0, 75, 88
4, 5158, Note_off_c, 0, 75, 0
4, 5160, Note_on_c, 0, 65, 88
4, 5218, Note_off_c, 0, 65, 0
4, 5220, Note_on_c, 0, 75, 88
4, 5278, Note_off_c, 0, 75, 0
4, 5280, Note_on_c, 0, 71, 88
4, 5338, Note_off_c, 0, 71, 0
4, 5340, Note_on_c, 0, 75, 88
4, 5398, Note_off_c, 0, 75, 0
4, 5400, Note_on_c, 0, 66, 88
4, 5458, Note_off_c, 0, 66, 0
4, 5460, Note_on_c, 0, 75, 88
4, 5518, Note_off_c, 0, 75, 0
4, 5520, Note_on_c, 0, 71, 88
4, 5578, Note_off_c, 0, 71, 0
4, 5580, Note_on_c, 0, 75, 88
4, 5638, Note_off_c, 0, 75, 0
4, 5640, Note_on_c, 0, 68, 88
4, 5698, Note_off_c, 0, 68, 0
4, 5700, Note_on_c, 0, 75, 88
4, 5758, Note_off_c, 0, 75, 0
4, 5760, Note_on_c, 0, 73, 88
4, 5818, Note_off_c, 0, 73, 0
4, 5820, Note_on_c, 0, 71, 88
4, 5878, Note_off_c, 0, 71, 0
4, 5880, Note_on_c, 0, 70, 88
4, 5938, Note_off_c, 0, 70, 0
4, 5940, Note_on_c, 0, 68, 88
4, 5998, Note_off_c, 0, 68, 0
4, 6000, Note_on_c, 0, 70, 88
4, 6058, Note_off_c, 0, 70, 0
4, 6060, Note_on_c, 0, 73, 88
4, 6118, Note_off_c, 0, 73, 0
4, 6120, Note_on_c, 0, 63, 88
4, 6178, Note_off_c, 0, 63, 0
4, 6180, Note_on_c, 0, 73, 88
4, 6238, Note_off_c, 0, 73, 0
4, 6240, Note_on_c, 0, 70, 88
4, 6298, Note_off_c, 0, 70, 0
4, 6300, Note_on_c, 0, 73, 88
4, 6358, Note_off_c, 0, 73, 0
4, 6360, Note_on_c, 0, 65, 88
4, 6418, Note_off_c, 0, 65, 0
4, 6420, Note_on_c, 0, 73, 88
4, 6478, Note_off_c, 0, 73, 0
4, 6480, Note_on_c, 0, 70, 88
4, 6538, Note_off_c, 0, 70, 0
4, 6540, Note_on_c, 0, 73, 88
4, 6598, Note_off_c, 0, 73, 0
4, 6600, Note_on_c, 0, 66, 88
4, 6658, Note_off_c, 0, 66, 0
4, 6660, Note_on_c, 0, 73, 88
4, 6718, Note_off_c, 0, 73, 0
4, 6720, Note_on_c, 0, 71, 88
4, 6778, Note_off_c, 0, 71, 0
4, 6780, Note_on_c, 0, 70, 88
4, 6838, Note_off_c, 0, 70, 0
4, 6840, Note_on_c, 0, 68, 88
4, 6898, Note_off_c, 0, 68, 0
4, 6900, Note_on_c, 0, 66, 88
4, 6958, Note_off_c, 0, 66, 0
4, 6960, Note_on_c, 0, 68, 88
4, 7018, Note_off_c, 0, 68, 0
4, 7020, Note_on_c, 0, 71, 88
4, 7078, Note_off_c, 0, 71, 0
4, 7080, Note_on_c, 0, 61, 88
4, 7138, Note_off_c, 0, 61, 0
4, 7140, Note_on_c, 0, 71, 88
4, 7198, Note_off_c, 0, 71, 0
4, 7200, Note_on_c, 0, 68, 88
4, 7258, Note_off_c, 0, 68, 0
4, 7260, Note_on_c, 0, 71, 88
4, 7318, Note_off_c, 0, 71, 0
4, 7320, Note_on_c, 0, 63, 88
4, 7378, Note_off_c, 0, 63, 0
4, 7380, Note_on_c, 0, 71, 88
4, 7438, Note_off_c, 0, 71, 0
4, 7440, Note_on_c, 0, 68, 88
4, 7498, Note_off_c, 0, 68, 0
4, 7500, Note_on_c, 0, 71, 88
4, 7558, Note_off_c, 0, 71, 0
4, 7560, Note_on_c, 0, 65, 88
4, 7618, Note_off_c, 0, 65, 0
4, 7620, Note_on_c, 0, 71, 88
4, 7678, Note_off_c, 0, 71, 0
4, 7680, Note_on_c, 0, 70, 88
4, 7738, Note_off_c, 0, 70, 0
4, 7740, Note_on_c, 0, 66, 88
4, 7798, Note_off_c, 0, 66, 0
4, 7800, Note_on_c, 0, 65, 88
4, 7858, Note_off_c, 0, 65, 0
4, 7860, Note_on_c, 0, 75, 88
4, 7918, Note_off_c, 0, 75, 0
4, 7920, Note_on_c, 0, 73, 88
4, 7978, Note_off_c, 0, 73, 0
4, 7980, Note_on_c, 0, 70, 88
4, 8038, Note_off_c, 0, 70, 0
4, 8040, Note_on_c, 0, 68, 88
4, 8098, Note_off_c, 0, 68, 0
4, 8100, Note_on_c, 0, 78, 88
4, 8141, Note_off_c, 0, 78, 0
4, 8160, Note_on_c, 0, 78, 88
4, 8175, Note_on_c, 0, 77, 88
4, 8175, Note_off_c, 0, 78, 0
4, 8190, Note_off_c, 0, 77, 0
4, 8190, Note_on_c, 0, 78, 88
4, 8205, Note_on_c, 0, 77, 88
4, 8205, Note_off_c, 0, 78, 0
4, 8220, Note_on_c, 0, 75, 88
4, 8220, Note_off_c, 0, 77, 0
4, 8278, Note_off_c, 0, 75, 0
4, 8280, Note_on_c, 0, 73, 88
4, 8396, Note_off_c, 0, 73, 0
4, 8640, Note_on_c, 0, 66, 88
4, 8698, Note_off_c, 0, 66, 0
4, 8700, Note_on_c, 0, 70, 88
4, 8758, Note_off_c, 0, 70, 0
4, 8760, Note_on_c, 0, 68, 88
4, 8818, Note_off_c, 0, 68, 0
4, 8820, Note_on_c, 0, 71, 88
4, 8878, Note_off_c, 0, 71, 0
4, 8880, Note_on_c, 0, 70, 88
4, 8938, Note_off_c, 0, 70, 0
4, 8940, Note_on_c, 0, 73, 88
4, 8998, Note_off_c, 0, 73, 0
4, 9000, Note_on_c, 0, 71, 88
4, 9058, Note_off_c, 0, 71, 0
4, 9060, Note_on_c, 0, 75, 88
4, 9118, Note_off_c, 0, 75, 0
4, 9120, Note_on_c, 0, 73, 88
4, 9178, Note_off_c, 0, 73, 0
4, 9180, Note_on_c, 0, 78, 88
4, 9238, Note_off_c, 0, 78, 0
4, 9240, Note_on_c, 0, 77, 88
4, 9298, Note_off_c, 0, 77, 0
4, 9300, Note_on_c, 0, 75, 88
4, 9358, Note_off_c, 0, 75, 0
4, 9360, Note_on_c, 0, 73, 88
4, 9418, Note_off_c, 0, 73, 0
4, 9420, Note_on_c, 0, 71, 88
4, 9478, Note_off_c, 0, 71, 0
4, 9480, Note_on_c, 0, 70, 88
4, 9538, Note_off_c, 0, 70, 0
4, 9540, Note_on_c, 0, 68, 88
4, 9598, Note_off_c, 0, 68, 0
4, 9600, Note_on_c, 0, 70, 88
4, 9658, Note_off_c, 0, 70, 0
4, 9660, Note_on_c, 0, 73, 88
4, 9718, Note_off_c, 0, 73, 0
4, 9720, Note_on_c, 0, 72, 88
4, 9778, Note_off_c, 0, 72, 0
4, 9780, Note_on_c, 0, 75, 88
4, 9838, Note_off_c, 0, 75, 0
4, 9840, Note_on_c, 0, 73, 88
4, 9898, Note_off_c, 0, 73, 0
4, 9900, Note_on_c, 0, 77, 88
4, 9958, Note_off_c, 0, 77, 0
4, 9960, Note_on_c, 0, 75, 88
4, 10018, Note_off_c, 0, 75, 0
4, 10020, Note_on_c, 0, 78, 88
4, 10078, Note_off_c, 0, 78, 0
4, 10080, Note_on_c, 0, 77, 88
4, 10138, Note_off_c, 0, 77, 0
4, 10140, Note_on_c, 0, 82, 88
4, 10198, Note_off_c, 0, 82, 0
4, 10200, Note_on_c, 0, 81, 88
4, 10258, Note_off_c, 0, 81, 0
4, 10260, Note_on_c, 0, 79, 88
4, 10318, Note_off_c, 0, 79, 0
4, 10320, Note_on_c, 0, 77, 88
4, 10378, Note_off_c, 0, 77, 0
4, 10380, Note_on_c, 0, 75, 88
4, 10438, Note_off_c, 0, 75, 0
4, 10440, Note_on_c, 0, 73, 88
4, 10498, Note_off_c, 0, 73, 0
4, 10500, Note_on_c, 0, 72, 88
4, 10558, Note_off_c, 0, 72, 0
4, 10560, Note_on_c, 0, 73, 88
4, 10676, Note_off_c, 0, 73, 0
4, 10680, Note_on_c, 0, 69, 88
4, 10796, Note_off_c, 0, 69, 0
4, 10800, Note_on_c, 0, 70, 88
4, 10916, Note_off_c, 0, 70, 0
4, 10920, Note_on_c, 0, 78, 88
4, 11036, Note_off_c, 0, 78, 0
4, 11040, Note_on_c, 0, 69, 88
4, 11069, Note_off_c, 0, 69, 0
4, 11070, Note_on_c, 0, 67, 88
4, 11099, Note_off_c, 0, 67, 0
4, 11100, Note_on_c, 0, 65, 88
4, 11158, Note_off_c, 0, 65, 0
4, 11160, Note_on_c, 0, 75, 88
4, 11276, Note_off_c, 0, 75, 0
4, 11340, Note_on_c, 0, 69, 88
4, 11398, Note_off_c, 0, 69, 0
4, 11400, Note_on_c, 0, 70, 88
4, 11458, Note_off_c, 0, 70, 0
4, 11460, Note_on_c, 0, 72, 88
4, 11518, Note_off_c, 0, 72, 0
4, 11520, Note_on_c, 0, 65, 88
4, 11578, Note_off_c, 0, 65, 0
4, 11580, Note_on_c, 0, 73, 88
4, 11638, Note_off_c, 0, 73, 0
4, 11640, Note_on_c, 0, 72, 88
4, 11698, Note_off_c, 0, 72, 0
4, 11700, Note_on_c, 0, 75, 88
4, 11758, Note_off_c, 0, 75, 0
4, 11760, Note_on_c, 0, 73, 88
4, 11818, Note_off_c, 0, 73, 0
4, 11820, Note_on_c, 0, 72, 88
4, 11878, Note_off_c, 0, 72, 0
4, 11880, Note_on_c, 0, 70, 88
4, 11938, Note_off_c, 0, 70, 0
4, 11940, Note_on_c, 0, 69, 88
4, 11998, Note_off_c, 0, 69, 0
4, 12000, Note_on_c, 0, 73, 88
4, 12058, Note_off_c, 0, 73, 0
4, 12060, Note_on_c, 0, 70, 88
4, 12118, Note_off_c, 0, 70, 0
4, 12120, Note_on_c, 0, 69, 88
4, 12178, Note_off_c, 0, 69, 0
4, 12180, Note_on_c, 0, 72, 88
4, 12238, Note_off_c, 0, 72, 0
4, 12240, Note_on_c, 0, 70, 88
4, 12298, Note_off_c, 0, 70, 0
4, 12300, Note_on_c, 0, 68, 88
4, 12358, Note_off_c, 0, 68, 0
4, 12360, Note_on_c, 0, 66, 88
4, 12418, Note_off_c, 0, 66, 0
4, 12420, Note_on_c, 0, 65, 88
4, 12478, Note_off_c, 0, 65, 0
4, 12480, Note_on_c, 0, 63, 88
4, 12538, Note_off_c, 0, 63, 0
4, 12540, Note_on_c, 0, 73, 88
4, 12598, Note_off_c, 0, 73, 0
4, 12600, Note_on_c, 0, 72, 88
4, 12658, Note_off_c, 0, 72, 0
4, 12660, Note_on_c, 0, 75, 88
4, 12718, Note_off_c, 0, 75, 0
4, 12720, Note_on_c, 0, 73, 88
4, 12778, Note_off_c, 0, 73, 0
4, 12780, Note_on_c, 0, 72, 88
4, 12838, Note_off_c, 0, 72, 0
4, 12840, Note_on_c, 0, 70, 88
4, 12898, Note_off_c, 0, 70, 0
4, 12900, Note_on_c, 0, 69, 88
4, 12958, Note_off_c, 0, 69, 0
4, 12960, Note_on_c, 0, 79, 88
4, 13018, Note_off_c, 0, 79, 0
4, 13020, Note_on_c, 0, 73, 88
4, 13078, Note_off_c, 0, 73, 0
4, 13080, Note_on_c, 0, 69, 88
4, 13138, Note_off_c, 0, 69, 0
4, 13140, Note_on_c, 0, 70, 88
4, 13198, Note_off_c, 0, 70, 0
4, 13200, Note_on_c, 0, 82, 88
4, 13222, Note_off_c, 0, 82, 0
4, 13223, Note_on_c, 0, 81, 88
4, 13244, Note_off_c, 0, 81, 0
4, 13245, Note_on_c, 0, 82, 88
4, 13267, Note_off_c, 0, 82, 0
4, 13268, Note_on_c, 0, 81, 88
4, 13289, Note_off_c, 0, 81, 0
4, 13290, Note_on_c, 0, 82, 88
4, 13312, Note_off_c, 0, 82, 0
4, 13313, Note_on_c, 0, 81, 88
4, 13334, Note_off_c, 0, 81, 0
4, 13335, Note_on_c, 0, 82, 88
4, 13357, Note_off_c, 0, 82, 0
4, 13358, Note_on_c, 0, 81, 88
4, 13379, Note_off_c, 0, 81, 0
4, 13380, Note_on_c, 0, 79, 88
4, 13409, Note_off_c, 0, 79, 0
4, 13410, Note_on_c, 0, 81, 88
4, 13439, Note_off_c, 0, 81, 0
4, 13440, Note_on_c, 0, 82, 88
4, 13498, Note_off_c, 0, 82, 0
4, 13500, Note_on_c, 0, 80, 88
4, 13529, Note_off_c, 0, 80, 0
4, 13530, Note_on_c, 0, 78, 88
4, 13559, Note_off_c, 0, 78, 0
4, 13560, Note_on_c, 0, 77, 88
4, 13618, Note_off_c, 0, 77, 0
4, 13620, Note_on_c, 0, 75, 88
4, 13678, Note_off_c, 0, 75, 0
4, 13680, Note_on_c, 0, 73, 88
4, 13738, Note_off_c, 0, 73, 0
4, 13740, Note_on_c, 0, 82, 88
4, 13798, Note_off_c, 0, 82, 0
4, 13800, Note_on_c, 0, 72, 88
4, 13858, Note_off_c, 0, 72, 0
4, 13860, Note_on_c, 0, 81, 88
4, 13918, Note_off_c, 0, 81, 0
4, 13920, Note_on_c, 0, 82, 88
4, 13978, Note_off_c, 0, 82, 0
4, 13980, Note_on_c, 0, 70, 88
4, 14038, Note_off_c, 0, 70, 0
4, 14040, Note_on_c, 0, 75, 88
4, 14069, Note_off_c, 0, 75, 0
4, 14070, Note_on_c, 0, 73, 88
4, 14099, Note_off_c, 0, 73, 0
4, 14100, Note_on_c, 0, 72, 88
4, 14158, Note_off_c, 0, 72, 0
4, 14160, Note_on_c, 0, 73, 88
4, 14218, Note_off_c, 0, 73, 0
4, 14220, Note_on_c, 0, 72, 88
4, 14249, Note_off_c, 0, 72, 0
4, 14250, Note_on_c, 0, 70, 88
4, 14279, Note_off_c, 0, 70, 0
4, 14280, Note_on_c, 0, 69, 88
4, 14309, Note_off_c, 0, 69, 0
4, 14310, Note_on_c, 0, 70, 88
4, 14339, Note_off_c, 0, 70, 0
4, 14340, Note_on_c, 0, 72, 88
4, 14398, Note_off_c, 0, 72, 0
4, 14400, Note_on_c, 0, 65, 88
4, 14429, Note_off_c, 0, 65, 0
4, 14430, Note_on_c, 0, 70, 88
4, 14459, Note_off_c, 0, 70, 0
4, 14460, Note_on_c, 0, 68, 88
4, 14489, Note_off_c, 0, 68, 0
4, 14490, Note_on_c, 0, 66, 88
4, 14519, Note_off_c, 0, 66, 0
4, 14520, Note_on_c, 0, 65, 88
4, 14578, Note_off_c, 0, 65, 0
4, 14580, Note_on_c, 0, 63, 88
4, 14638, Note_off_c, 0, 63, 0
4, 14640, Note_on_c, 0, 61, 88
4, 14698, Note_off_c, 0, 61, 0
4, 14700, Note_on_c, 0, 60, 88
4, 14729, Note_off_c, 0, 60, 0
4, 14730, Note_on_c, 0, 61, 88
4, 14759, Note_off_c, 0, 61, 0
4, 14760, Note_on_c, 0, 63, 88
4, 14789, Note_off_c, 0, 63, 0
4, 14790, Note_on_c, 0, 61, 88
4, 14819, Note_off_c, 0, 61, 0
4, 14820, Note_on_c, 0, 60, 88
4, 14878, Note_off_c, 0, 60, 0
4, 14880, Note_on_c, 0, 58, 88
4, 14938, Note_off_c, 0, 58, 0
4, 14940, Note_on_c, 0, 61, 88
4, 14998, Note_off_c, 0, 61, 0
4, 15000, Note_on_c, 0, 65, 88
4, 15058, Note_off_c, 0, 65, 0
4, 15060, Note_on_c, 0, 69, 88
4, 15101, Note_off_c, 0, 69, 0
4, 15120, Note_on_c, 0, 69, 88
4, 15236, Note_off_c, 0, 69, 0
4, 15240, Note_on_c, 0, 70, 88
4, 15356, Note_off_c, 0, 70, 0
4, 15360, Note_on_c, 0, 63, 88
4, 15418, Note_off_c, 0, 63, 0
4, 15420, Note_on_c, 0, 66, 88
4, 15478, Note_off_c, 0, 66, 0
4, 15480, Note_on_c, 0, 65, 88
4, 15538, Note_off_c, 0, 65, 0
4, 15540, Note_on_c, 0, 68, 88
4, 15598, Note_off_c, 0, 68, 0
4, 15600, Note_on_c, 0, 66, 88
4, 15658, Note_off_c, 0, 66, 0
4, 15660, Note_on_c, 0, 70, 88
4, 15718, Note_off_c, 0, 70, 0
4, 15720, Note_on_c, 0, 68, 88
4, 15778, Note_off_c, 0, 68, 0
4, 15780, Note_on_c, 0, 71, 88
4, 15838, Note_off_c, 0, 71, 0
4, 15840, Note_on_c, 0, 70, 88
4, 15898, Note_off_c, 0, 70, 0
4, 15900, Note_on_c, 0, 75, 88
4, 15958, Note_off_c, 0, 75, 0
4, 15960, Note_on_c, 0, 74, 88
4, 16018, Note_off_c, 0, 74, 0
4, 16020, Note_on_c, 0, 72, 88
4, 16078, Note_off_c, 0, 72, 0
4, 16080, Note_on_c, 0, 70, 88
4, 16138, Note_off_c, 0, 70, 0
4, 16140, Note_on_c, 0, 68, 88
4, 16198, Note_off_c, 0, 68, 0
4, 16200, Note_on_c, 0, 66, 88
4, 16258, Note_off_c, 0, 66, 0
4, 16260, Note_on_c, 0, 65, 88
4, 16318, Note_off_c, 0, 65, 0
4, 16320, Note_on_c, 0, 66, 88
4, 16436, Note_off_c, 0, 66, 0
4, 16440, Note_on_c, 0, 62, 88
4, 16556, Note_off_c, 0, 62, 0
4, 16560, Note_on_c, 0, 63, 88
4, 16676, Note_off_c, 0, 63, 0
4, 16680, Note_on_c, 0, 75, 88
4, 16781, Note_off_c, 0, 75, 0
4, 16800, Note_on_c, 0, 75, 88
4, 16815, Note_on_c, 0, 74, 88
4, 16815, Note_off_c, 0, 75, 0
4, 16830, Note_off_c, 0, 74, 0
4, 16830, Note_on_c, 0, 75, 88
4, 16845, Note_on_c, 0, 74, 88
4, 16845, Note_off_c, 0, 75, 0
4, 16860, Note_on_c, 0, 72, 88
4, 16860, Note_off_c, 0, 74, 0
4, 16918, Note_off_c, 0, 72, 0
4, 16920, Note_on_c, 0, 70, 88
4, 17036, Note_off_c, 0, 70, 0
4, 17160, Note_on_c, 0, 74, 88
4, 17182, Note_off_c, 0, 74, 0
4, 17183, Note_on_c, 0, 75, 88
4, 17208, Note_off_c, 0, 75, 0
4, 17209, Note_on_c, 0, 74, 88
4, 17234, Note_off_c, 0, 74, 0
4, 17235, Note_on_c, 0, 72, 88
4, 17257, Note_off_c, 0, 72, 0
4, 17258, Note_on_c, 0, 74, 88
4, 17279, Note_off_c, 0, 74, 0
4, 17280, Note_on_c, 0, 75, 88
4, 17338, Note_off_c, 0, 75, 0
4, 17340, Note_on_c, 0, 78, 88
4, 17398, Note_off_c, 0, 78, 0
4, 17400, Note_on_c, 0, 77, 88
4, 17458, Note_off_c, 0, 77, 0
4, 17460, Note_on_c, 0, 80, 88
4, 17518, Note_off_c, 0, 80, 0
4, 17520, Note_on_c, 0, 78, 88
4, 17578, Note_off_c, 0, 78, 0
4, 17580, Note_on_c, 0, 77, 88
4, 17638, Note_off_c, 0, 77, 0
4, 17640, Note_on_c, 0, 75, 88
4, 17698, Note_off_c, 0, 75, 0
4, 17700, Note_on_c, 0, 73, 88
4, 17758, Note_off_c, 0, 73, 0
4, 17760, Note_on_c, 0, 71, 88
4, 17876, Note_off_c, 0, 71, 0
4, 17880, Note_on_c, 0, 75, 88
4, 17996, Note_off_c, 0, 75, 0
4, 18000, Note_on_c, 0, 80, 88
4, 18029, Note_off_c, 0, 80, 0
4, 18030, Note_on_c, 0, 78, 88
4, 18059, Note_off_c, 0, 78, 0
4, 18060, Note_on_c, 0, 80, 88
4, 18235, Note_off_c, 0, 80, 0
4, 18240, Note_on_c, 0, 80, 88
4, 18298, Note_off_c, 0, 80, 0
4, 18300, Note_on_c, 0, 77, 88
4, 18358, Note_off_c, 0, 77, 0
4, 18360, Note_on_c, 0, 78, 88
4, 18418, Note_off_c, 0, 78, 0
4, 18420, Note_on_c, 0, 75, 88
4, 18478, Note_off_c, 0, 75, 0
4, 18480, Note_on_c, 0, 77, 88
4, 18538, Note_off_c, 0, 77, 0
4, 18540, Note_on_c, 0, 80, 88
4, 18598, Note_off_c, 0, 80, 0
4, 18600, Note_on_c, 0, 73, 88
4, 18658, Note_off_c, 0, 73, 0
4, 18660, Note_on_c, 0, 71, 88
4, 18718, Note_off_c, 0, 71, 0
4, 18720, Note_on_c, 0, 70, 88
4, 18836, Note_off_c, 0, 70, 0
4, 18840, Note_on_c, 0, 73, 88
4, 18956, Note_off_c, 0, 73, 0
4, 18960, Note_on_c, 0, 78, 88
4, 18989, Note_off_c, 0, 78, 0
4, 18990, Note_on_c, 0, 76, 88
4, 19019, Note_off_c, 0, 76, 0
4, 19020, Note_on_c, 0, 78, 88
4, 19195, Note_off_c, 0, 78, 0
4, 19200, Note_on_c, 0, 78, 88
4, 19258, Note_off_c, 0, 78, 0
4, 19260, Note_on_c, 0, 77, 88
4, 19318, Note_off_c, 0, 77, 0
4, 19320, Note_on_c, 0, 75, 88
4, 19378, Note_off_c, 0, 75, 0
4, 19380, Note_on_c, 0, 74, 88
4, 19438, Note_off_c, 0, 74, 0
4, 19440, Note_on_c, 0, 75, 88
4, 19498, Note_off_c, 0, 75, 0
4, 19500, Note_on_c, 0, 78, 88
4, 19558, Note_off_c, 0, 78, 0
4, 19560, Note_on_c, 0, 68, 88
4, 19618, Note_off_c, 0, 68, 0
4, 19620, Note_on_c, 0, 78, 88
4, 19678, Note_off_c, 0, 78, 0
4, 19680, Note_on_c, 0, 77, 88
4, 19738, Note_off_c, 0, 77, 0
4, 19740, Note_on_c, 0, 75, 88
4, 19798, Note_off_c, 0, 75, 0
4, 19800, Note_on_c, 0, 73, 88
4, 19858, Note_off_c, 0, 73, 0
4, 19860, Note_on_c, 0, 72, 88
4, 19918, Note_off_c, 0, 72, 0
4, 19920, Note_on_c, 0, 73, 88
4, 19978, Note_off_c, 0, 73, 0
4, 19980, Note_on_c, 0, 76, 88
4, 20038, Note_off_c, 0, 76, 0
4, 20040, Note_on_c, 0, 66, 88
4, 20098, Note_off_c, 0, 66, 0
4, 20100, Note_on_c, 0, 76, 88
4, 20158, Note_off_c, 0, 76, 0
4, 20160, Note_on_c, 0, 75, 88
4, 20218, Note_off_c, 0, 75, 0
4, 20220, Note_on_c, 0, 73, 88
4, 20278, Note_off_c, 0, 73, 0
4, 20280, Note_on_c, 0, 71, 88
4, 20338, Note_off_c, 0, 71, 0
4, 20340, Note_on_c, 0, 70, 88
4, 20398, Note_off_c, 0, 70, 0
4, 20400, Note_on_c, 0, 71, 88
4, 20458, Note_off_c, 0, 71, 0
4, 20460, Note_on_c, 0, 75, 88
4, 20518, Note_off_c, 0, 75, 0
4, 20520, Note_on_c, 0, 65, 88
4, 20578, Note_off_c, 0, 65, 0
4, 20580, Note_on_c, 0, 75, 88
4, 20638, Note_off_c, 0, 75, 0
4, 20640, Note_on_c, 0, 71, 88
4, 20698, Note_off_c, 0, 71, 0
4, 20700, Note_on_c, 0, 75, 88
4, 20758, Note_off_c, 0, 75, 0
4, 20760, Note_on_c, 0, 66, 88
4, 20818, Note_off_c, 0, 66, 0
4, 20820, Note_on_c, 0, 75, 88
4, 20878, Note_off_c, 0, 75, 0
4, 20880, Note_on_c, 0, 71, 88
4, 20938, Note_off_c, 0, 71, 0
4, 20940, Note_on_c, 0, 75, 88
4, 20998, Note_off_c, 0, 75, 0
4, 21000, Note_on_c, 0, 68, 88
4, 21058, Note_off_c, 0, 68, 0
4, 21060, Note_on_c, 0, 75, 88
4, 21118, Note_off_c, 0, 75, 0
4, 21120, Note_on_c, 0, 73, 88
4, 21178, Note_off_c, 0, 73, 0
4, 21180, Note_on_c, 0, 71, 88
4, 21238, Note_off_c, 0, 71, 0
4, 21240, Note_on_c, 0, 70, 88
4, 21298, Note_off_c, 0, 70, 0
4, 21300, Note_on_c, 0, 68, 88
4, 21358, Note_off_c, 0, 68, 0
4, 21360, Note_on_c, 0, 70, 88
4, 21418, Note_off_c, 0, 70, 0
4, 21420, Note_on_c, 0, 73, 88
4, 21478, Note_off_c, 0, 73, 0
4, 21480, Note_on_c, 0, 63, 88
4, 21538, Note_off_c, 0, 63, 0
4, 21540, Note_on_c, 0, 73, 88
4, 21598, Note_off_c, 0, 73, 0
4, 21600, Note_on_c, 0, 70, 88
4, 21658, Note_off_c, 0, 70, 0
4, 21660, Note_on_c, 0, 73, 88
4, 21718, Note_off_c, 0, 73, 0
4, 21720, Note_on_c, 0, 65, 88
4, 21778, Note_off_c, 0, 65, 0
4, 21780, Note_on_c, 0, 73, 88
4, 21838, Note_off_c, 0, 73, 0
4, 21840, Note_on_c, 0, 70, 88
4, 21898, Note_off_c, 0, 70, 0
4, 21900, Note_on_c, 0, 73, 88
4, 21958, Note_off_c, 0, 73, 0
4, 21960, Note_on_c, 0, 66, 88
4, 22018, Note_off_c, 0, 66, 0
4, 22020, Note_on_c, 0, 73, 88
4, 22078, Note_off_c, 0, 73, 0
4, 22080, Note_on_c, 0, 71, 88
4, 22138, Note_off_c, 0, 71, 0
4, 22140, Note_on_c, 0, 70, 88
4, 22198, Note_off_c, 0, 70, 0
4, 22200, Note_on_c, 0, 68, 88
4, 22258, Note_off_c, 0, 68, 0
4, 22260, Note_on_c, 0, 66, 88
4, 22318, Note_off_c, 0, 66, 0
4, 22320, Note_on_c, 0, 68, 88
4, 22378, Note_off_c, 0, 68, 0
4, 22380, Note_on_c, 0, 71, 88
4, 22438, Note_off_c, 0, 71, 0
4, 22440, Note_on_c, 0, 61, 88
4, 22498, Note_off_c, 0, 61, 0
4, 22500, Note_on_c, 0, 71, 88
4, 22558, Note_off_c, 0, 71, 0
4, 22560, Note_on_c, 0, 68, 88
4, 22618, Note_off_c, 0, 68, 0
4, 22620, Note_on_c, 0, 71, 88
4, 22678, Note_off_c, 0, 71, 0
4, 22680, Note_on_c, 0, 63, 88
4, 22738, Note_off_c, 0, 63, 0
4, 22740, Note_on_c, 0, 71, 88
4, 22798, Note_off_c, 0, 71, 0
4, 22800, Note_on_c, 0, 68, 88
4, 22858, Note_off_c, 0, 68, 0
4, 22860, Note_on_c, 0, 71, 88
4, 22918, Note_off_c, 0, 71, 0
4, 22920, Note_on_c, 0, 65, 88
4, 22978, Note_off_c, 0, 65, 0
4, 22980, Note_on_c, 0, 71, 88
4, 23038, Note_off_c, 0, 71, 0
4, 23040, Note_on_c, 0, 70, 88
4, 23098, Note_off_c, 0, 70, 0
4, 23100, Note_on_c, 0, 66, 88
4, 23158, Note_off_c, 0, 66, 0
4, 23160, Note_on_c, 0, 65, 88
4, 23218, Note_off_c, 0, 65, 0
4, 23220, Note_on_c, 0, 75, 88
4, 23278, Note_off_c, 0, 75, 0
4, 23280, Note_on_c, 0, 73, 88
4, 23338, Note_off_c, 0, 73, 0
4, 23340, Note_on_c, 0, 70, 88
4, 23398, Note_off_c, 0, 70, 0
4, 23400, Note_on_c, 0, 68, 88
4, 23458, Note_off_c, 0, 68, 0
4, 23460, Note_on_c, 0, 78, 88
4, 23501, Note_off_c, 0, 78, 0
4, 23520, Note_on_c, 0, 78, 88
4, 23535, Note_on_c, 0, 77, 88
4, 23535, Note_off_c, 0, 78, 0
4, 23550, Note_off_c, 0, 77, 0
4, 23550, Note_on_c, 0, 78, 88
4, 23565, Note_on_c, 0, 77, 88
4, 23565, Note_off_c, 0, 78, 0
4, 23580, Note_on_c, 0, 75, 88
4, 23580, Note_off_c, 0, 77, 0
4, 23638, Note_off_c, 0, 75, 0
4, 23640, Note_on_c, 0, 73, 88
4, 23756, Note_off_c, 0, 73, 0
4, 24000, Note_on_c, 0, 66, 88
4, 24058, Note_off_c, 0, 66, 0
4, 24060, Note_on_c, 0, 70, 88
4, 24118, Note_off_c, 0, 70, 0
4, 24120, Note_on_c, 0, 68, 88
4, 24178, Note_off_c, 0, 68, 0
4, 24180, Note_on_c, 0, 71, 88
4, 24238, Note_off_c, 0, 71, 0
4, 24240, Note_on_c, 0, 70, 88
4, 24298, Note_off_c, 0, 70, 0
4, 24300, Note_on_c, 0, 73, 88
4, 24358, Note_off_c, 0, 73, 0
4, 24360, Note_on_c, 0, 71, 88
4, 24418, Note_off_c, 0, 71, 0
4, 24420, Note_on_c, 0, 75, 88
4, 24478, Note_off_c, 0, 75, 0
4, 24480, Note_on_c, 0, 73, 88
4, 24538, Note_off_c, 0, 73, 0
4, 24540, Note_on_c, 0, 78, 88
4, 24598, Note_off_c, 0, 78, 0
4, 24600, Note_on_c, 0, 77, 88
4, 24658, Note_off_c, 0, 77, 0
4, 24660, Note_on_c, 0, 75, 88
4, 24718, Note_off_c, 0, 75, 0
4, 24720, Note_on_c, 0, 73, 88
4, 24778, Note_off_c, 0, 73, 0
4, 24780, Note_on_c, 0, 71, 88
4, 24838, Note_off_c, 0, 71, 0
4, 24840, Note_on_c, 0, 70, 88
4, 24898, Note_off_c, 0, 70, 0
4, 24900, Note_on_c, 0, 68, 88
4, 24958, Note_off_c, 0, 68, 0
4, 24960, Note_on_c, 0, 70, 88
4, 25018, Note_off_c, 0, 70, 0
4, 25020, Note_on_c, 0, 73, 88
4, 25078, Note_off_c, 0, 73, 0
4, 25080, Note_on_c, 0, 72, 88
4, 25138, Note_off_c, 0, 72, 0
4, 25140, Note_on_c, 0, 75, 88
4, 25198, Note_off_c, 0, 75, 0
4, 25200, Note_on_c, 0, 73, 88
4, 25258, Note_off_c, 0, 73, 0
4, 25260, Note_on_c, 0, 77, 88
4, 25318, Note_off_c, 0, 77, 0
4, 25320, Note_on_c, 0, 75, 88
4, 25378, Note_off_c, 0, 75, 0
4, 25380, Note_on_c, 0, 78, 88
4, 25438, Note_off_c, 0, 78, 0
4, 25440, Note_on_c, 0, 77, 88
4, 25498, Note_off_c, 0, 77, 0
4, 25500, Note_on_c, 0, 82, 88
4, 25558, Note_off_c, 0, 82, 0
4, 25560, Note_on_c, 0, 81, 88
4, 25618, Note_off_c, 0, 81, 0
4, 25620, Note_on_c, 0, 79, 88
4, 25678, Note_off_c, 0, 79, 0
4, 25680, Note_on_c, 0, 77, 88
4, 25738, Note_off_c, 0, 77, 0
4, 25740, Note_on_c, 0, 75, 88
4, 25798, Note_off_c, 0, 75, 0
4, 25800, Note_on_c, 0, 73, 88
4, 25858, Note_off_c, 0, 73, 0
4, 25860, Note_on_c, 0, 72, 88
4, 25918, Note_off_c, 0, 72, 0
4, 25920, Note_on_c, 0, 73, 88
4, 26036, Note_off_c, 0, 73, 0
4, 26040, Note_on_c, 0, 69, 88
4, 26156, Note_off_c, 0, 69, 0
4, 26160, Note_on_c, 0, 70, 88
4, 26276, Note_off_c, 0, 70, 0
4, 26280, Note_on_c, 0, 78, 88
4, 26396, Note_off_c, 0, 78, 0
4, 26400, Note_on_c, 0, 69, 88
4, 26429, Note_off_c, 0, 69, 0
4, 26430, Note_on_c, 0, 67, 88
4, 26459, Note_off_c, 0, 67, 0
4, 26460, Note_on_c, 0, 65, 88
4, 26518, Note_off_c, 0, 65, 0
4, 26520, Note_on_c, 0, 75, 88
4, 26636, Note_off_c, 0, 75, 0
4, 26700, Note_on_c, 0, 69, 88
4, 26758, Note_off_c, 0, 69, 0
4, 26760, Note_on_c, 0, 70, 88
4, 26818, Note_off_c, 0, 70, 0
4, 26820, Note_on_c, 0, 72, 88
4, 26878, Note_off_c, 0, 72, 0
4, 26880, Note_on_c, 0, 65, 88
4, 26938, Note_off_c, 0, 65, 0
4, 26940, Note_on_c, 0, 73, 88
4, 26998, Note_off_c, 0, 73, 0
4, 27000, Note_on_c, 0, 72, 88
4, 27058, Note_off_c, 0, 72, 0
4, 27060, Note_on_c, 0, 75, 88
4, 27118, Note_off_c, 0, 75, 0
4, 27120, Note_on_c, 0, 73, 88
4, 27178, Note_off_c, 0, 73, 0
4, 27180, Note_on_c, 0, 72, 88
4, 27238, Note_off_c, 0, 72, 0
4, 27240, Note_on_c, 0, 70, 88
4, 27298, Note_off_c, 0, 70, 0
4, 27300, Note_on_c, 0, 69, 88
4, 27358, Note_off_c, 0, 69, 0
4, 27360, Note_on_c, 0, 73, 88
4, 27418, Note_off_c, 0, 73, 0
4, 27420, Note_on_c, 0, 70, 88
4, 27478, Note_off_c, 0, 70, 0
4, 27480, Note_on_c, 0, 69, 88
4, 27538, Note_off_c, 0, 69, 0
4, 27540, Note_on_c, 0, 72, 88
4, 27598, Note_off_c, 0, 72, 0
4, 27600, Note_on_c, 0, 70, 88
4, 27658, Note_off_c, 0, 70, 0
4, 27660, Note_on_c, 0, 68, 88
4, 27718, Note_off_c, 0, 68, 0
4, 27720, Note_on_c, 0, 66, 88
4, 27778, Note_off_c, 0, 66, 0
4, 27780, Note_on_c, 0, 65, 88
4, 27838, Note_off_c, 0, 65, 0
4, 27840, Note_on_c, 0, 63, 88
4, 27898, Note_off_c, 0, 63, 0
4, 27900, Note_on_c, 0, 73, 88
4, 27958, Note_off_c, 0, 73, 0
4, 27960, Note_on_c, 0, 72, 88
4, 28018, Note_off_c, 0, 72, 0
4, 28020, Note_on_c, 0, 75, 88
4, 28078, Note_off_c, 0, 75, 0
4, 28080, Note_on_c, 0, 73, 88
4, 28138, Note_off_c, 0, 73, 0
4, 28140, Note_on_c, 0, 72, 88
4, 28198, Note_off_c, 0, 72, 0
4, 28200, Note_on_c, 0, 70, 88
4, 28258, Note_off_c, 0, 70, 0
4, 28260, Note_on_c, 0, 69, 88
4, 28318, Note_off_c, 0, 69, 0
4, 28320, Note_on_c, 0, 79, 88
4, 28378, Note_off_c, 0, 79, 0
4, 28380, Note_on_c, 0, 73, 88
4, 28438, Note_off_c, 0, 73, 0
4, 28440, Note_on_c, 0, 69, 88
4, 28498, Note_off_c, 0, 69, 0
4, 28500, Note_on_c, 0, 70, 88
4, 28558, Note_off_c, 0, 70, 0
4, 28560, Note_on_c, 0, 82, 88
4, 28582, Note_off_c, 0, 82, 0
4, 28583, Note_on_c, 0, 81, 88
4, 28604, Note_off_c, 0, 81, 0
4, 28605, Note_on_c, 0, 82, 88
4, 28627, Note_off_c, 0, 82, 0
4, 28628, Note_on_c, 0, 81, 88
4, 28649, Note_off_c, 0, 81, 0
4, 28650, Note_on_c, 0, 82, 88
4, 28672, Note_off_c, 0, 82, 0
4, 28673, Note_on_c, 0, 81, 88
4, 28694, Note_off_c, 0, 81, 0
4, 28695, Note_on_c, 0, 82, 88
4, 28717, Note_off_c, 0, 82, 0
4, 28718, Note_on_c, 0, 81, 88
4, 28739, Note_off_c, 0, 81, 0
4, 28740, Note_on_c, 0, 79, 88
4, 28769, Note_off_c, 0, 79, 0
4, 28770, Note_on_c, 0, 81, 88
4, 28799, Note_off_c, 0, 81, 0
4, 28800, Note_on_c, 0, 82, 88
4, 28858, Note_off_c, 0, 82, 0
4, 28860, Note_on_c, 0, 80, 88
4, 28889, Note_off_c, 0, 80, 0
4, 28890, Note_on_c, 0, 78, 88
4, 28919, Note_off_c, 0, 78, 0
4, 28920, Note_on_c, 0, 77, 88
4, 28978, Note_off_c, 0, 77, 0
4, 28980, Note_on_c, 0, 75, 88
4, 29038, Note_off_c, 0, 75, 0
4, 29040, Note_on_c, 0, 73, 88
4, 29098, Note_off_c, 0, 73, 0
4, 29100, Note_on_c, 0, 82, 88
4, 29158, Note_off_c, 0, 82, 0
4, 29160, Note_on_c, 0, 72, 88
4, 29218, Note_off_c, 0, 72, 0
4, 29220, Note_on_c, 0, 81, 88
4, 29278, Note_off_c, 0, 81, 0
4, 29280, Note_on_c, 0, 82, 88
4, 29338, Note_off_c, 0, 82, 0
4, 29340, Note_on_c, 0, 70, 88
4, 29398, Note_off_c, 0, 70, 0
4, 29400, Note_on_c, 0, 75, 88
4, 29429, Note_off_c, 0, 75, 0
4, 29430, Note_on_c, 0, 73, 88
4, 29459, Note_off_c, 0, 73, 0
4, 29460, Note_on_c, 0, 72, 88
4, 29518, Note_off_c, 0, 72, 0
4, 29520, Note_on_c, 0, 73, 88
4, 29578, Note_off_c, 0, 73, 0
4, 29580, Note_on_c, 0, 72, 88
4, 29609, Note_off_c, 0, 72, 0
4, 29610, Note_on_c, 0, 70, 88
4, 29639, Note_off_c, 0, 70, 0
4, 29640, Note_on_c, 0, 69, 88
4, 29669, Note_off_c, 0, 69, 0
4, 29670, Note_on_c, 0, 70, 88
4, 29699, Note_off_c, 0, 70, 0
4, 29700, Note_on_c, 0, 72, 88
4, 29758, Note_off_c, 0, 72, 0
4, 29760, Note_on_c, 0, 65, 88
4, 29789, Note_off_c, 0, 65, 0
4, 29790, Note_on_c, 0, 70, 88
4, 29819, Note_off_c, 0, 70, 0
4, 29820, Note_on_c, 0, 68, 88
4, 29849, Note_off_c, 0, 68, 0
4, 29850, Note_on_c, 0, 66, 88
4, 29879, Note_off_c, 0, 66, 0
4, 29880, Note_on_c, 0, 65, 88
4, 29938, Note_off_c, 0, 65, 0
4, 29940, Note_on_c, 0, 63, 88
4, 29998, Note_off_c, 0, 63, 0
4, 30000, Note_on_c, 0, 61, 88
4, 30058, Note_off_c, 0, 61, 0
4, 30060, Note_on_c, 0, 60, 88
4, 30089, Note_off_c, 0, 60, 0
4, 30090, Note_on_c, 0, 61, 88
4, 30119, Note_off_c, 0, 61, 0
4, 30120, Note_on_c, 0, 63, 88
4, 30149, Note_off_c, 0, 63, 0
4, 30150, Note_on_c, 0, 61, 88
4, 30179, Note_off_c, 0, 61, 0
4, 30180, Note_on_c, 0, 60, 88
4, 30238, Note_off_c, 0, 60, 0
4, 30240, Note_on_c, 0, 58, 88
4, 30298, Note_off_c, 0, 58, 0
4, 30300, Note_on_c, 0, 61, 88
4, 30358, Note_off_c, 0, 61, 0
4, 30360, Note_on_c, 0, 65, 88
4, 30418, Note_off_c, 0, 65, 0
4, 30420, Note_on_c, 0, 69, 88
4, 30461, Note_off_c, 0, 69, 0
4, 30480, Note_on_c, 0, 69, 88
4, 30596, Note_off_c, 0, 69, 0
4, 30600, Note_on_c, 0, 70, 88
4, 30716, Note_off_c, 0, 70, 0
4, 30720, Note_on_c, 0, 80, 88
4, 30778, Note_off_c, 0, 80, 0
4, 30780, Note_on_c, 0, 77, 88
4, 30809, Note_off_c, 0, 77, 0
4, 30810, Note_on_c, 0, 74, 88
4, 30839, Note_off_c, 0, 74, 0
4, 30840, Note_on_c, 0, 70, 88
4, 31015, Note_off_c, 0, 70, 0
4, 31020, Note_on_c, 0, 74, 88
4, 31049, Note_off_c, 0, 74, 0
4, 31050, Note_on_c, 0, 77, 88
4, 31079, Note_off_c, 0, 77, 0
4, 31080, Note_on_c, 0, 78, 88
4, 31109, Note_off_c, 0, 78, 0
4, 31110, Note_on_c, 0, 77, 88
4, 31139, Note_off_c, 0, 77, 0
4, 31140, Note_on_c, 0, 75, 88
4, 31198, Note_off_c, 0, 75, 0
4, 31200, Note_on_c, 0, 74, 88
4, 31258, Note_off_c, 0, 74, 0
4, 31260, Note_on_c, 0, 77, 88
4, 31289, Note_off_c, 0, 77, 0
4, 31290, Note_on_c, 0, 80, 88
4, 31319, Note_off_c, 0, 80, 0
4, 31320, Note_on_c, 0, 83, 88
4, 31495, Note_off_c, 0, 83, 0
4, 31500, Note_on_c, 0, 77, 88
4, 31529, Note_off_c, 0, 77, 0
4, 31530, Note_on_c, 0, 75, 88
4, 31559, Note_off_c, 0, 75, 0
4, 31560, Note_on_c, 0, 77, 88
4, 31589, Note_off_c, 0, 77, 0
4, 31590, Note_on_c, 0, 78, 88
4, 31619, Note_off_c, 0, 78, 0
4, 31620, Note_on_c, 0, 80, 88
4, 31678, Note_off_c, 0, 80, 0
4, 31680, Note_on_c, 0, 78, 88
4, 31738, Note_off_c, 0, 78, 0
4, 31740, Note_on_c, 0, 77, 88
4, 31798, Note_off_c, 0, 77, 0
4, 31800, Note_on_c, 0, 75, 88
4, 31858, Note_off_c, 0, 75, 0
4, 31860, Note_on_c, 0, 74, 88
4, 31918, Note_off_c, 0, 74, 0
4, 31920, Note_on_c, 0, 75, 88
4, 31978, Note_off_c, 0, 75, 0
4, 31980, Note_on_c, 0, 78, 88
4, 32038, Note_off_c, 0, 78, 0
4, 32040, Note_on_c, 0, 68, 88
4, 32098, Note_off_c, 0, 68, 0
4, 32100, Note_on_c, 0, 78, 88
4, 32158, Note_off_c, 0, 78, 0
4, 32160, Note_on_c, 0, 75, 88
4, 32218, Note_off_c, 0, 75, 0
4, 32220, Note_on_c, 0, 78, 88
4, 32278, Note_off_c, 0, 78, 0
4, 32280, Note_on_c, 0, 70, 88
4, 32338, Note_off_c, 0, 70, 0
4, 32340, Note_on_c, 0, 78, 88
4, 32398, Note_off_c, 0, 78, 0
4, 32400, Note_on_c, 0, 75, 88
4, 32458, Note_off_c, 0, 75, 0
4, 32460, Note_on_c, 0, 78, 88
4, 32518, Note_off_c, 0, 78, 0
4, 32520, Note_on_c, 0, 72, 88
4, 32578, Note_off_c, 0, 72, 0
4, 32580, Note_on_c, 0, 78, 88
4, 32638, Note_off_c, 0, 78, 0
4, 32640, Note_on_c, 0, 73, 88
4, 32698, Note_off_c, 0, 73, 0
4, 32700, Note_on_c, 0, 77, 88
4, 32758, Note_off_c, 0, 77, 0
4, 32760, Note_on_c, 0, 75, 88
4, 32818, Note_off_c, 0, 75, 0
4, 32820, Note_on_c, 0, 78, 88
4, 32878, Note_off_c, 0, 78, 0
4, 32880, Note_on_c, 0, 77, 88
4, 32938, Note_off_c, 0, 77, 0
4, 32940, Note_on_c, 0, 80, 88
4, 32998, Note_off_c, 0, 80, 0
4, 33000, Note_on_c, 0, 78, 88
4, 33058, Note_off_c, 0, 78, 0
4, 33060, Note_on_c, 0, 82, 88
4, 33118, Note_off_c, 0, 82, 0
4, 33120, Note_on_c, 0, 80, 88
4, 33178, Note_off_c, 0, 80, 0
4, 33180, Note_on_c, 0, 83, 88
4, 33238, Note_off_c, 0, 83, 0
4, 33240, Note_on_c, 0, 82, 88
4, 33298, Note_off_c, 0, 82, 0
4, 33300, Note_on_c, 0, 80, 88
4, 33358, Note_off_c, 0, 80, 0
4, 33360, Note_on_c, 0, 78, 88
4, 33418, Note_off_c, 0, 78, 0
4, 33420, Note_on_c, 0, 77, 88
4, 33478, Note_off_c, 0, 77, 0
4, 33480, Note_on_c, 0, 75, 88
4, 33538, Note_off_c, 0, 75, 0
4, 33540, Note_on_c, 0, 73, 88
4, 33598, Note_off_c, 0, 73, 0
4, 33600, Note_on_c, 0, 78, 88
4, 33658, Note_off_c, 0, 78, 0
4, 33660, Note_on_c, 0, 71, 88
4, 33718, Note_off_c, 0, 71, 0
4, 33720, Note_on_c, 0, 70, 88
4, 33778, Note_off_c, 0, 70, 0
4, 33780, Note_on_c, 0, 68, 88
4, 33838, Note_off_c, 0, 68, 0
4, 33840, Note_on_c, 0, 70, 88
4, 33898, Note_off_c, 0, 70, 0
4, 33900, Note_on_c, 0, 76, 88
4, 34016, Note_off_c, 0, 76, 0
4, 34020, Note_on_c, 0, 75, 88
4, 34078, Note_off_c, 0, 75, 0
4, 34080, Note_on_c, 0, 73, 88
4, 34138, Note_off_c, 0, 73, 0
4, 34140, Note_on_c, 0, 78, 88
4, 34256, Note_off_c, 0, 78, 0
4, 34260, Note_on_c, 0, 76, 88
4, 34318, Note_off_c, 0, 76, 0
4, 34320, Note_on_c, 0, 75, 88
4, 34378, Note_off_c, 0, 75, 0
4, 34380, Note_on_c, 0, 78, 88
4, 34438, Note_off_c, 0, 78, 0
4, 34440, Note_on_c, 0, 83, 88
4, 34498, Note_off_c, 0, 83, 0
4, 34500, Note_on_c, 0, 79, 88
4, 34558, Note_off_c, 0, 79, 0
4, 34560, Note_on_c, 0, 80, 88
4, 34618, Note_off_c, 0, 80, 0
4, 34620, Note_on_c, 0, 76, 88
4, 34678, Note_off_c, 0, 76, 0
4, 34680, Note_on_c, 0, 75, 88
4, 34738, Note_off_c, 0, 75, 0
4, 34740, Note_on_c, 0, 78, 88
4, 34798, Note_off_c, 0, 78, 0
4, 34800, Note_on_c, 0, 76, 88
4, 34858, Note_off_c, 0, 76, 0
4, 34860, Note_on_c, 0, 75, 88
4, 34918, Note_off_c, 0, 75, 0
4, 34920, Note_on_c, 0, 73, 88
4, 34978, Note_off_c, 0, 73, 0
4, 34980, Note_on_c, 0, 72, 88
4, 35038, Note_off_c, 0, 72, 0
4, 35040, Note_on_c, 0, 76, 88
4, 35098, Note_off_c, 0, 76, 0
4, 35100, Note_on_c, 0, 73, 88
4, 35158, Note_off_c, 0, 73, 0
4, 35160, Note_on_c, 0, 71, 88
4, 35218, Note_off_c, 0, 71, 0
4, 35220, Note_on_c, 0, 75, 88
4, 35278, Note_off_c, 0, 75, 0
4, 35280, Note_on_c, 0, 73, 88
4, 35338, Note_off_c, 0, 73, 0
4, 35340, Note_on_c, 0, 71, 88
4, 35398, Note_off_c, 0, 71, 0
4, 35400, Note_on_c, 0, 70, 88
4, 35458, Note_off_c, 0, 70, 0
4, 35460, Note_on_c, 0, 68, 88
4, 35518, Note_off_c, 0, 68, 0
4, 35520, Note_on_c, 0, 67, 88
4, 35636, Note_off_c, 0, 67, 0
4, 35640, Note_on_c, 0, 70, 88
4, 35756, Note_off_c, 0, 70, 0
4, 35760, Note_on_c, 0, 75, 88
4, 36054, Note_off_c, 0, 75, 0
4, 36060, Note_on_c, 0, 71, 88
4, 36118, Note_off_c, 0, 71, 0
4, 36120, Note_on_c, 0, 73, 88
4, 36178, Note_off_c, 0, 73, 0
4, 36180, Note_on_c, 0, 70, 88
4, 36238, Note_off_c, 0, 70, 0
4, 36240, Note_on_c, 0, 71, 88
4, 36298, Note_off_c, 0, 71, 0
4, 36300, Note_on_c, 0, 75, 88
4, 36358, Note_off_c, 0, 75, 0
4, 36360, Note_on_c, 0, 68, 88
4, 36418, Note_off_c, 0, 68, 0
4, 36420, Note_on_c, 0, 66, 88
4, 36478, Note_off_c, 0, 66, 0
4, 36480, Note_on_c, 0, 64, 88
4, 36596, Note_off_c, 0, 64, 0
4, 36600, Note_on_c, 0, 68, 88
4, 36716, Note_off_c, 0, 68, 0
4, 36720, Note_on_c, 0, 73, 88
4, 37014, Note_off_c, 0, 73, 0
4, 37020, Note_on_c, 0, 64, 88
4, 37078, Note_off_c, 0, 64, 0
4, 37080, Note_on_c, 0, 63, 88
4, 37138, Note_off_c, 0, 63, 0
4, 37140, Note_on_c, 0, 62, 88
4, 37198, Note_off_c, 0, 62, 0
4, 37200, Note_on_c, 0, 63, 88
4, 37316, Note_off_c, 0, 63, 0
4, 37320, Note_on_c, 0, 70, 88
4, 37436, Note_off_c, 0, 70, 0
4, 37440, Note_on_c, 0, 75, 88
4, 37498, Note_off_c, 0, 75, 0
4, 37500, Note_on_c, 0, 73, 88
4, 37529, Note_off_c, 0, 73, 0
4, 37530, Note_on_c, 0, 71, 88
4, 37559, Note_off_c, 0, 71, 0
4, 37560, Note_on_c, 0, 70, 88
4, 37589, Note_off_c, 0, 70, 0
4, 37590, Note_on_c, 0, 71, 88
4, 37619, Note_off_c, 0, 71, 0
4, 37620, Note_on_c, 0, 73, 88
4, 37678, Note_off_c, 0, 73, 0
4, 37680, Note_on_c, 0, 71, 88
4, 37738, Note_off_c, 0, 71, 0
4, 37740, Note_on_c, 0, 80, 88
4, 37798, Note_off_c, 0, 80, 0
4, 37800, Note_on_c, 0, 70, 88
4, 37858, Note_off_c, 0, 70, 0
4, 37860, Note_on_c, 0, 79, 88
4, 37918, Note_off_c, 0, 79, 0
4, 37920, Note_on_c, 0, 80, 88
4, 37978, Note_off_c, 0, 80, 0
4, 37980, Note_on_c, 0, 76, 88
4, 38038, Note_off_c, 0, 76, 0
4, 38040, Note_on_c, 0, 75, 88
4, 38098, Note_off_c, 0, 75, 0
4, 38100, Note_on_c, 0, 73, 88
4, 38158, Note_off_c, 0, 73, 0
4, 38160, Note_on_c, 0, 75, 88
4, 38218, Note_off_c, 0, 75, 0
4, 38220, Note_on_c, 0, 68, 88
4, 38278, Note_off_c, 0, 68, 0
4, 38280, Note_on_c, 0, 67, 88
4, 38338, Note_off_c, 0, 67, 0
4, 38340, Note_on_c, 0, 73, 88
4, 38398, Note_off_c, 0, 73, 0
4, 38400, Note_on_c, 0, 71, 88
4, 38458, Note_off_c, 0, 71, 0
4, 38460, Note_on_c, 0, 70, 88
4, 38518, Note_off_c, 0, 70, 0
4, 38520, Note_on_c, 0, 68, 88
4, 38578, Note_off_c, 0, 68, 0
4, 38580, Note_on_c, 0, 67, 88
4, 38638, Note_off_c, 0, 67, 0
4, 38640, Note_on_c, 0, 68, 88
4, 38698, Note_off_c, 0, 68, 0
4, 38700, Note_on_c, 0, 71, 88
4, 38758, Note_off_c, 0, 71, 0
4, 38760, Note_on_c, 0, 61, 88
4, 38818, Note_off_c, 0, 61, 0
4, 38820, Note_on_c, 0, 71, 88
4, 38878, Note_off_c, 0, 71, 0
4, 38880, Note_on_c, 0, 68, 88
4, 38938, Note_off_c, 0, 68, 0
4, 38940, Note_on_c, 0, 71, 88
4, 38998, Note_off_c, 0, 71, 0
4, 39000, Note_on_c, 0, 63, 88
4, 39058, Note_off_c, 0, 63, 0
4, 39060, Note_on_c, 0, 71, 88
4, 39118, Note_off_c, 0, 71, 0
4, 39120, Note_on_c, 0, 68, 88
4, 39178, Note_off_c, 0, 68, 0
4, 39180, Note_on_c, 0, 71, 88
4, 39238, Note_off_c, 0, 71, 0
4, 39240, Note_on_c, 0, 65, 88
4, 39298, Note_off_c, 0, 65, 0
4, 39300, Note_on_c, 0, 71, 88
4, 39358, Note_off_c, 0, 71, 0
4, 39360, Note_on_c, 0, 70, 88
4, 39418, Note_off_c, 0, 70, 0
4, 39420, Note_on_c, 0, 68, 88
4, 39478, Note_off_c, 0, 68, 0
4, 39480, Note_on_c, 0, 66, 88
4, 39538, Note_off_c, 0, 66, 0
4, 39540, Note_on_c, 0, 65, 88
4, 39598, Note_off_c, 0, 65, 0
4, 39600, Note_on_c, 0, 66, 88
4, 39658, Note_off_c, 0, 66, 0
4, 39660, Note_on_c, 0, 70, 88
4, 39718, Note_off_c, 0, 70, 0
4, 39720, Note_on_c, 0, 60, 88
4, 39778, Note_off_c, 0, 60, 0
4, 39780, Note_on_c, 0, 70, 88
4, 39838, Note_off_c, 0, 70, 0
4, 39840, Note_on_c, 0, 66, 88
4, 39898, Note_off_c, 0, 66, 0
4, 39900, Note_on_c, 0, 70, 88
4, 39958, Note_off_c, 0, 70, 0
4, 39960, Note_on_c, 0, 62, 88
4, 40018, Note_off_c, 0, 62, 0
4, 40020, Note_on_c, 0, 70, 88
4, 40078, Note_off_c, 0, 70, 0
4, 40080, Note_on_c, 0, 66, 88
4, 40138, Note_off_c, 0, 66, 0
4, 40140, Note_on_c, 0, 70, 88
4, 40198, Note_off_c, 0, 70, 0
4, 40200, Note_on_c, 0, 63, 88
4, 40258, Note_off_c, 0, 63, 0
4, 40260, Note_on_c, 0, 70, 88
4, 40318, Note_off_c, 0, 70, 0
4, 40320, Note_on_c, 0, 68, 88
4, 40378, Note_off_c, 0, 68, 0
4, 40380, Note_on_c, 0, 66, 88
4, 40438, Note_off_c, 0, 66, 0
4, 40440, Note_on_c, 0, 65, 88
4, 40498, Note_off_c, 0, 65, 0
4, 40500, Note_on_c, 0, 63, 88
4, 40558, Note_off_c, 0, 63, 0
4, 40560, Note_on_c, 0, 65, 88
4, 40618, Note_off_c, 0, 65, 0
4, 40620, Note_on_c, 0, 68, 88
4, 40678, Note_off_c, 0, 68, 0
4, 40680, Note_on_c, 0, 58, 88
4, 40738, Note_off_c, 0, 58, 0
4, 40740, Note_on_c, 0, 68, 88
4, 40798, Note_off_c, 0, 68, 0
4, 40800, Note_on_c, 0, 65, 88
4, 40858, Note_off_c, 0, 65, 0
4, 40860, Note_on_c, 0, 68, 88
4, 40918, Note_off_c, 0, 68, 0
4, 40920, Note_on_c, 0, 60, 88
4, 40978, Note_off_c, 0, 60, 0
4, 40980, Note_on_c, 0, 68, 88
4, 41038, Note_off_c, 0, 68, 0
4, 41040, Note_on_c, 0, 65, 88
4, 41098, Note_off_c, 0, 65, 0
4, 41100, Note_on_c, 0, 68, 88
4, 41158, Note_off_c, 0, 68, 0
4, 41160, Note_on_c, 0, 62, 88
4, 41218, Note_off_c, 0, 62, 0
4, 41220, Note_on_c, 0, 68, 88
4, 41278, Note_off_c, 0, 68, 0
4, 41280, Note_on_c, 0, 66, 88
4, 41338, Note_off_c, 0, 66, 0
4, 41340, Note_on_c, 0, 70, 88
4, 41398, Note_off_c, 0, 70, 0
4, 41400, Note_on_c, 0, 74, 88
4, 41458, Note_off_c, 0, 74, 0
4, 41460, Note_on_c, 0, 77, 88
4, 41518, Note_off_c, 0, 77, 0
4, 41520, Note_on_c, 0, 70, 88
4, 41578, Note_off_c, 0, 70, 0
4, 41580, Note_on_c, 0, 74, 88
4, 41638, Note_off_c, 0, 74, 0
4, 41640, Note_on_c, 0, 77, 88
4, 41698, Note_off_c, 0, 77, 0
4, 41700, Note_on_c, 0, 80, 88
4, 41758, Note_off_c, 0, 80, 0
4, 41760, Note_on_c, 0, 78, 88
4, 41789, Note_off_c, 0, 78, 0
4, 41790, Note_on_c, 0, 77, 88
4, 41819, Note_off_c, 0, 77, 0
4, 41820, Note_on_c, 0, 75, 88
4, 41878, Note_off_c, 0, 75, 0
4, 41880, Note_on_c, 0, 77, 88
4, 41996, Note_off_c, 0, 77, 0
4, 42240, Note_on_c, 0, 63, 88
4, 42298, Note_off_c, 0, 63, 0
4, 42300, Note_on_c, 0, 66, 88
4, 42358, Note_off_c, 0, 66, 0
4, 42360, Note_on_c, 0, 65, 88
4, 42418, Note_off_c, 0, 65, 0
4, 42420, Note_on_c, 0, 68, 88
4, 42478, Note_off_c, 0, 68, 0
4, 42480, Note_on_c, 0, 66, 88
4, 42538, Note_off_c, 0, 66, 0
4, 42540, Note_on_c, 0, 70, 88
4, 42598, Note_off_c, 0, 70, 0
4, 42600, Note_on_c, 0, 68, 88
4, 42658, Note_off_c, 0, 68, 0
4, 42660, Note_on_c, 0, 71, 88
4, 42718, Note_off_c, 0, 71, 0
4, 42720, Note_on_c, 0, 70, 88
4, 42778, Note_off_c, 0, 70, 0
4, 42780, Note_on_c, 0, 75, 88
4, 42838, Note_off_c, 0, 75, 0
4, 42840, Note_on_c, 0, 74, 88
4, 42898, Note_off_c, 0, 74, 0
4, 42900, Note_on_c, 0, 72, 88
4, 42958, Note_off_c, 0, 72, 0
4, 42960, Note_on_c, 0, 70, 88
4, 43018, Note_off_c, 0, 70, 0
4, 43020, Note_on_c, 0, 68, 88
4, 43078, Note_off_c, 0, 68, 0
4, 43080, Note_on_c, 0, 66, 88
4, 43138, Note_off_c, 0, 66, 0
4, 43140, Note_on_c, 0, 65, 88
4, 43198, Note_off_c, 0, 65, 0
4, 43200, Note_on_c, 0, 66, 88
4, 43258, Note_off_c, 0, 66, 0
4, 43260, Note_on_c, 0, 70, 88
4, 43318, Note_off_c, 0, 70, 0
4, 43320, Note_on_c, 0, 68, 88
4, 43378, Note_off_c, 0, 68, 0
4, 43380, Note_on_c, 0, 71, 88
4, 43438, Note_off_c, 0, 71, 0
4, 43440, Note_on_c, 0, 70, 88
4, 43498, Note_off_c, 0, 70, 0
4, 43500, Note_on_c, 0, 68, 88
4, 43558, Note_off_c, 0, 68, 0
4, 43560, Note_on_c, 0, 66, 88
4, 43618, Note_off_c, 0, 66, 0
4, 43620, Note_on_c, 0, 65, 88
4, 43678, Note_off_c, 0, 65, 0
4, 43680, Note_on_c, 0, 63, 88
4, 43738, Note_off_c, 0, 63, 0
4, 43740, Note_on_c, 0, 66, 88
4, 43798, Note_off_c, 0, 66, 0
4, 43800, Note_on_c, 0, 65, 88
4, 43858, Note_off_c, 0, 65, 0
4, 43860, Note_on_c, 0, 68, 88
4, 43918, Note_off_c, 0, 68, 0
4, 43920, Note_on_c, 0, 66, 88
4, 43978, Note_off_c, 0, 66, 0
4, 43980, Note_on_c, 0, 65, 88
4, 44038, Note_off_c, 0, 65, 0
4, 44040, Note_on_c, 0, 63, 88
4, 44098, Note_off_c, 0, 63, 0
4, 44100, Note_on_c, 0, 62, 88
4, 44158, Note_off_c, 0, 62, 0
4, 44160, Note_on_c, 0, 63, 88
4, 44218, Note_off_c, 0, 63, 0
4, 44220, Note_on_c, 0, 68, 88
4, 44278, Note_off_c, 0, 68, 0
4, 44280, Note_on_c, 0, 67, 88
4, 44338, Note_off_c, 0, 67, 0
4, 44340, Note_on_c, 0, 70, 88
4, 44398, Note_off_c, 0, 70, 0
4, 44400, Note_on_c, 0, 68, 88
4, 44458, Note_off_c, 0, 68, 0
4, 44460, Note_on_c, 0, 66, 88
4, 44518, Note_off_c, 0, 66, 0
4, 44520, Note_on_c, 0, 65, 88
4, 44578, Note_off_c, 0, 65, 0
4, 44580, Note_on_c, 0, 63, 88
4, 44638, Note_off_c, 0, 63, 0
4, 44640, Note_on_c, 0, 62, 88
4, 44698, Note_off_c, 0, 62, 0
4, 44700, Note_on_c, 0, 65, 88
4, 44758, Note_off_c, 0, 65, 0
4, 44760, Note_on_c, 0, 63, 88
4, 44818, Note_off_c, 0, 63, 0
4, 44820, Note_on_c, 0, 66, 88
4, 44878, Note_off_c, 0, 66, 0
4, 44880, Note_on_c, 0, 65, 88
4, 44938, Note_off_c, 0, 65, 0
4, 44940, Note_on_c, 0, 63, 88
4, 44998, Note_off_c, 0, 63, 0
4, 45000, Note_on_c, 0, 62, 88
4, 45058, Note_off_c, 0, 62, 0
4, 45060, Note_on_c, 0, 60, 88
4, 45118, Note_off_c, 0, 60, 0
4, 45120, Note_on_c, 0, 58, 88
4, 45236, Note_off_c, 0, 58, 0
4, 45240, Note_on_c, 0, 70, 88
4, 45356, Note_off_c, 0, 70, 0
4, 45360, Note_on_c, 0, 68, 88
4, 45418, Note_off_c, 0, 68, 0
4, 45420, Note_on_c, 0, 66, 88
4, 45478, Note_off_c, 0, 66, 0
4, 45480, Note_on_c, 0, 65, 88
4, 45538, Note_off_c, 0, 65, 0
4, 45540, Note_on_c, 0, 66, 88
4, 45598, Note_off_c, 0, 66, 0
4, 45600, Note_on_c, 0, 63, 88
4, 45658, Note_off_c, 0, 63, 0
4, 45660, Note_on_c, 0, 67, 88
4, 45718, Note_off_c, 0, 67, 0
4, 45720, Note_on_c, 0, 65, 88
4, 45778, Note_off_c, 0, 65, 0
4, 45780, Note_on_c, 0, 68, 88
4, 45838, Note_off_c, 0, 68, 0
4, 45840, Note_on_c, 0, 67, 88
4, 45898, Note_off_c, 0, 67, 0
4, 45900, Note_on_c, 0, 70, 88
4, 45958, Note_off_c, 0, 70, 0
4, 45960, Note_on_c, 0, 68, 88
4, 46018, Note_off_c, 0, 68, 0
4, 46020, Note_on_c, 0, 71, 88
4, 46078, Note_off_c, 0, 71, 0
4, 46080, Note_on_c, 0, 70, 88
4, 46138, Note_off_c, 0, 70, 0
4, 46140, Note_on_c, 0, 73, 88
4, 46198, Note_off_c, 0, 73, 0
4, 46200, Note_on_c, 0, 71, 88
4, 46258, Note_off_c, 0, 71, 0
4, 46260, Note_on_c, 0, 70, 88
4, 46318, Note_off_c, 0, 70, 0
4, 46320, Note_on_c, 0, 68, 88
4, 46378, Note_off_c, 0, 68, 0
4, 46380, Note_on_c, 0, 67, 88
4, 46438, Note_off_c, 0, 67, 0
4, 46440, Note_on_c, 0, 65, 88
4, 46498, Note_off_c, 0, 65, 0
4, 46500, Note_on_c, 0, 63, 88
4, 46558, Note_off_c, 0, 63, 0
4, 46560, Note_on_c, 0, 75, 88
4, 46618, Note_off_c, 0, 75, 0
4, 46620, Note_on_c, 0, 72, 88
4, 46649, Note_off_c, 0, 72, 0
4, 46650, Note_on_c, 0, 69, 88
4, 46679, Note_off_c, 0, 69, 0
4, 46680, Note_on_c, 0, 65, 88
4, 46855, Note_off_c, 0, 65, 0
4, 46860, Note_on_c, 0, 69, 88
4, 46889, Note_off_c, 0, 69, 0
4, 46890, Note_on_c, 0, 72, 88
4, 46919, Note_off_c, 0, 72, 0
4, 46920, Note_on_c, 0, 73, 88
4, 46949, Note_off_c, 0, 73, 0
4, 46950, Note_on_c, 0, 72, 88
4, 46979, Note_off_c, 0, 72, 0
4, 46980, Note_on_c, 0, 70, 88
4, 47038, Note_off_c, 0, 70, 0
4, 47040, Note_on_c, 0, 69, 88
4, 47098, Note_off_c, 0, 69, 0
4, 47100, Note_on_c, 0, 72, 88
4, 47129, Note_off_c, 0, 72, 0
4, 47130, Note_on_c, 0, 75, 88
4, 47159, Note_off_c, 0, 75, 0
4, 47160, Note_on_c, 0, 78, 88
4, 47335, Note_off_c, 0, 78, 0
4, 47340, Note_on_c, 0, 72, 88
4, 47369, Note_off_c, 0, 72, 0
4, 47370, Note_on_c, 0, 70, 88
4, 47399, Note_off_c, 0, 70, 0
4, 47400, Note_on_c, 0, 72, 88
4, 47429, Note_off_c, 0, 72, 0
4, 47430, Note_on_c, 0, 74, 88
4, 47459, Note_off_c, 0, 74, 0
4, 47460, Note_on_c, 0, 75, 88
4, 47518, Note_off_c, 0, 75, 0
4, 47520, Note_on_c, 0, 74, 88
4, 47578, Note_off_c, 0, 74, 0
4, 47580, Note_on_c, 0, 77, 88
4, 47638, Note_off_c, 0, 77, 0
4, 47640, Note_on_c, 0, 75, 88
4, 47698, Note_off_c, 0, 75, 0
4, 47700, Note_on_c, 0, 78, 88
4, 47758, Note_off_c, 0, 78, 0
4, 47760, Note_on_c, 0, 77, 88
4, 47818, Note_off_c, 0, 77, 0
4, 47820, Note_on_c, 0, 80, 88
4, 47878, Note_off_c, 0, 80, 0
4, 47880, Note_on_c, 0, 78, 88
4, 47938, Note_off_c, 0, 78, 0
4, 47940, Note_on_c, 0, 82, 88
4, 47998, Note_off_c, 0, 82, 0
4, 48000, Note_on_c, 0, 80, 88
4, 48058, Note_off_c, 0, 80, 0
4, 48060, Note_on_c, 0, 83, 88
4, 48118, Note_off_c, 0, 83, 0
4, 48120, Note_on_c, 0, 82, 88
4, 48178, Note_off_c, 0, 82, 0
4, 48180, Note_on_c, 0, 80, 88
4, 48238, Note_off_c, 0, 80, 0
4, 48240, Note_on_c, 0, 78, 88
4, 48298, Note_off_c, 0, 78, 0
4, 48300, Note_on_c, 0, 77, 88
4, 48358, Note_off_c, 0, 77, 0
4, 48360, Note_on_c, 0, 75, 88
4, 48418, Note_off_c, 0, 75, 0
4, 48420, Note_on_c, 0, 74, 88
4, 48478, Note_off_c, 0, 74, 0
4, 48480, Note_on_c, 0, 75, 88
4, 48538, Note_off_c, 0, 75, 0
4, 48540, Note_on_c, 0, 77, 88
4, 48569, Note_off_c, 0, 77, 0
4, 48570, Note_on_c, 0, 78, 88
4, 48599, Note_off_c, 0, 78, 0
4, 48600, Note_on_c, 0, 80, 88
4, 48629, Note_off_c, 0, 80, 0
4, 48630, Note_on_c, 0, 78, 88
4, 48659, Note_off_c, 0, 78, 0
4, 48660, Note_on_c, 0, 77, 88
4, 48718, Note_off_c, 0, 77, 0
4, 48720, Note_on_c, 0, 78, 88
4, 48778, Note_off_c, 0, 78, 0
4, 48780, Note_on_c, 0, 77, 88
4, 48809, Note_off_c, 0, 77, 0
4, 48810, Note_on_c, 0, 75, 88
4, 48839, Note_off_c, 0, 75, 0
4, 48840, Note_on_c, 0, 74, 88
4, 48869, Note_off_c, 0, 74, 0
4, 48870, Note_on_c, 0, 75, 88
4, 48899, Note_off_c, 0, 75, 0
4, 48900, Note_on_c, 0, 77, 88
4, 48958, Note_off_c, 0, 77, 0
4, 48960, Note_on_c, 0, 70, 88
4, 48989, Note_off_c, 0, 70, 0
4, 48990, Note_on_c, 0, 75, 88
4, 49019, Note_off_c, 0, 75, 0
4, 49020, Note_on_c, 0, 73, 88
4, 49049, Note_off_c, 0, 73, 0
4, 49050, Note_on_c, 0, 71, 88
4, 49079, Note_off_c, 0, 71, 0
4, 49080, Note_on_c, 0, 70, 88
4, 49138, Note_off_c, 0, 70, 0
4, 49140, Note_on_c, 0, 68, 88
4, 49198, Note_off_c, 0, 68, 0
4, 49200, Note_on_c, 0, 66, 88
4, 49258, Note_off_c, 0, 66, 0
4, 49260, Note_on_c, 0, 65, 88
4, 49289, Note_off_c, 0, 65, 0
4, 49290, Note_on_c, 0, 66, 88
4, 49319, Note_off_c, 0, 66, 0
4, 49320, Note_on_c, 0, 68, 88
4, 49349, Note_off_c, 0, 68, 0
4, 49350, Note_on_c, 0, 66, 88
4, 49379, Note_off_c, 0, 66, 0
4, 49380, Note_on_c, 0, 65, 88
4, 49438, Note_off_c, 0, 65, 0
4, 49440, Note_on_c, 0, 63, 88
4, 49498, Note_off_c, 0, 63, 0
4, 49500, Note_on_c, 0, 66, 88
4, 49558, Note_off_c, 0, 66, 0
4, 49560, Note_on_c, 0, 70, 88
4, 49618, Note_off_c, 0, 70, 0
4, 49620, Note_on_c, 0, 74, 88
4, 49661, Note_off_c, 0, 74, 0
4, 49680, Note_on_c, 0, 74, 88
4, 49796, Note_off_c, 0, 74, 0
4, 49800, Note_on_c, 0, 75, 88
4, 49916, Note_off_c, 0, 75, 0
4, 49920, Note_on_c, 0, 80, 88
4, 49978, Note_off_c, 0, 80, 0
4, 49980, Note_on_c, 0, 77, 88
4, 50009, Note_off_c, 0, 77, 0
4, 50010, Note_on_c, 0, 74, 88
4, 50039, Note_off_c, 0, 74, 0
4, 50040, Note_on_c, 0, 70, 88
4, 50215, Note_off_c, 0, 70, 0
4, 50220, Note_on_c, 0, 74, 88
4, 50249, Note_off_c, 0, 74, 0
4, 50250, Note_on_c, 0, 77, 88
4, 50279, Note_off_c, 0, 77, 0
4, 50280, Note_on_c, 0, 78, 88
4, 50309, Note_off_c, 0, 78, 0
4, 50310, Note_on_c, 0, 77, 88
4, 50339, Note_off_c, 0, 77, 0
4, 50340, Note_on_c, 0, 75, 88
4, 50398, Note_off_c, 0, 75, 0
4, 50400, Note_on_c, 0, 74, 88
4, 50458, Note_off_c, 0, 74, 0
4, 50460, Note_on_c, 0, 77, 88
4, 50489, Note_off_c, 0, 77, 0
4, 50490, Note_on_c, 0, 80, 88
4, 50519, Note_off_c, 0, 80, 0
4, 50520, Note_on_c, 0, 83, 88
4, 50695, Note_off_c, 0, 83, 0
4, 50700, Note_on_c, 0, 77, 88
4, 50729, Note_off_c, 0, 77, 0
4, 50730, Note_on_c, 0, 75, 88
4, 50759, Note_off_c, 0, 75, 0
4, 50760, Note_on_c, 0, 77, 88
4, 50789, Note_off_c, 0, 77, 0
4, 50790, Note_on_c, 0, 78, 88
4, 50819, Note_off_c, 0, 78, 0
4, 50820, Note_on_c, 0, 80, 88
4, 50878, Note_off_c, 0, 80, 0
4, 50880, Note_on_c, 0, 78, 88
4, 50938, Note_off_c, 0, 78, 0
4, 50940, Note_on_c, 0, 77, 88
4, 50998, Note_off_c, 0, 77, 0
4, 51000, Note_on_c, 0, 75, 88
4, 51058, Note_off_c, 0, 75, 0
4, 51060, Note_on_c, 0, 74, 88
4, 51118, Note_off_c, 0, 74, 0
4, 51120, Note_on_c, 0, 75, 88
4, 51178, Note_off_c, 0, 75, 0
4, 51180, Note_on_c, 0, 78, 88
4, 51238, Note_off_c, 0, 78, 0
4, 51240, Note_on_c, 0, 68, 88
4, 51298, Note_off_c, 0, 68, 0
4, 51300, Note_on_c, 0, 78, 88
4, 51358, Note_off_c, 0, 78, 0
4, 51360, Note_on_c, 0, 75, 88
4, 51418, Note_off_c, 0, 75, 0
4, 51420, Note_on_c, 0, 78, 88
4, 51478, Note_off_c, 0, 78, 0
4, 51480, Note_on_c, 0, 70, 88
4, 51538, Note_off_c, 0, 70, 0
4, 51540, Note_on_c, 0, 78, 88
4, 51598, Note_off_c, 0, 78, 0
4, 51600, Note_on_c, 0, 75, 88
4, 51658, Note_off_c, 0, 75, 0
4, 51660, Note_on_c, 0, 78, 88
4, 51718, Note_off_c, 0, 78, 0
4, 51720, Note_on_c, 0, 72, 88
4, 51778, Note_off_c, 0, 72, 0
4, 51780, Note_on_c, 0, 78, 88
4, 51838, Note_off_c, 0, 78, 0
4, 51840, Note_on_c, 0, 73, 88
4, 51898, Note_off_c, 0, 73, 0
4, 51900, Note_on_c, 0, 77, 88
4, 51958, Note_off_c, 0, 77, 0
4, 51960, Note_on_c, 0, 75, 88
4, 52018, Note_off_c, 0, 75, 0
4, 52020, Note_on_c, 0, 78, 88
4, 52078, Note_off_c, 0, 78, 0
4, 52080, Note_on_c, 0, 77, 88
4, 52138, Note_off_c, 0, 77, 0
4, 52140, Note_on_c, 0, 80, 88
4, 52198, Note_off_c, 0, 80, 0
4, 52200, Note_on_c, 0, 78, 88
4, 52258, Note_off_c, 0, 78, 0
4, 52260, Note_on_c, 0, 82, 88
4, 52318, Note_off_c, 0, 82, 0
4, 52320, Note_on_c, 0, 80, 88
4, 52378, Note_off_c, 0, 80, 0
4, 52380, Note_on_c, 0, 83, 88
4, 52438, Note_off_c, 0, 83, 0
4, 52440, Note_on_c, 0, 82, 88
4, 52498, Note_off_c, 0, 82, 0
4, 52500, Note_on_c, 0, 80, 88
4, 52558, Note_off_c, 0, 80, 0
4, 52560, Note_on_c, 0, 78, 88
4, 52618, Note_off_c, 0, 78, 0
4, 52620, Note_on_c, 0, 77, 88
4, 52678, Note_off_c, 0, 77, 0
4, 52680, Note_on_c, 0, 75, 88
4, 52738, Note_off_c, 0, 75, 0
4, 52740, Note_on_c, 0, 73, 88
4, 52798, Note_off_c, 0, 73, 0
4, 52800, Note_on_c, 0, 78, 88
4, 52858, Note_off_c, 0, 78, 0
4, 52860, Note_on_c, 0, 71, 88
4, 52918, Note_off_c, 0, 71, 0
4, 52920, Note_on_c, 0, 70, 88
4, 52978, Note_off_c, 0, 70, 0
4, 52980, Note_on_c, 0, 68, 88
4, 53038, Note_off_c, 0, 68, 0
4, 53040, Note_on_c, 0, 70, 88
4, 53098, Note_off_c, 0, 70, 0
4, 53100, Note_on_c, 0, 76, 88
4, 53216, Note_off_c, 0, 76, 0
4, 53220, Note_on_c, 0, 75, 88
4, 53278, Note_off_c, 0, 75, 0
4, 53280, Note_on_c, 0, 73, 88
4, 53338, Note_off_c, 0, 73, 0
4, 53340, Note_on_c, 0, 78, 88
4, 53456, Note_off_c, 0, 78, 0
4, 53460, Note_on_c, 0, 76, 88
4, 53518, Note_off_c, 0, 76, 0
4, 53520, Note_on_c, 0, 75, 88
4, 53578, Note_off_c, 0, 75, 0
4, 53580, Note_on_c, 0, 78, 88
4, 53638, Note_off_c, 0, 78, 0
4, 53640, Note_on_c, 0, 83, 88
4, 53698, Note_off_c, 0, 83, 0
4, 53700, Note_on_c, 0, 79, 88
4, 53758, Note_off_c, 0, 79, 0
4, 53760, Note_on_c, 0, 80, 88
4, 53818, Note_off_c, 0, 80, 0
4, 53820, Note_on_c, 0, 76, 88
4, 53878, Note_off_c, 0, 76, 0
4, 53880, Note_on_c, 0, 75, 88
4, 53938, Note_off_c, 0, 75, 0
4, 53940, Note_on_c, 0, 78, 88
4, 53998, Note_off_c, 0, 78, 0
4, 54000, Note_on_c, 0, 76, 88
4, 54058, Note_off_c, 0, 76, 0
4, 54060, Note_on_c, 0, 75, 88
4, 54118, Note_off_c, 0, 75, 0
4, 54120, Note_on_c, 0, 73, 88
4, 54178, Note_off_c, 0, 73, 0
4, 54180, Note_on_c, 0, 72, 88
4, 54238, Note_off_c, 0, 72, 0
4, 54240, Note_on_c, 0, 76, 88
4, 54298, Note_off_c, 0, 76, 0
4, 54300, Note_on_c, 0, 73, 88
4, 54358, Note_off_c, 0, 73, 0
4, 54360, Note_on_c, 0, 71, 88
4, 54418, Note_off_c, 0, 71, 0
4, 54420, Note_on_c, 0, 75, 88
4, 54478, Note_off_c, 0, 75, 0
4, 54480, Note_on_c, 0, 73, 88
4, 54538, Note_off_c, 0, 73, 0
4, 54540, Note_on_c, 0, 71, 88
4, 54598, Note_off_c, 0, 71, 0
4, 54600, Note_on_c, 0, 70, 88
4, 54658, Note_off_c, 0, 70, 0
4, 54660, Note_on_c, 0, 68, 88
4, 54718, Note_off_c, 0, 68, 0
4, 54720, Note_on_c, 0, 67, 88
4, 54836, Note_off_c, 0, 67, 0
4, 54840, Note_on_c, 0, 70, 88
4, 54956, Note_off_c, 0, 70, 0
4, 54960, Note_on_c, 0, 75, 88
4, 55254, Note_off_c, 0, 75, 0
4, 55260, Note_on_c, 0, 71, 88
4, 55318, Note_off_c, 0, 71, 0
4, 55320, Note_on_c, 0, 73, 88
4, 55378, Note_off_c, 0, 73, 0
4, 55380, Note_on_c, 0, 70, 88
4, 55438, Note_off_c, 0, 70, 0
4, 55440, Note_on_c, 0, 71, 88
4, 55498, Note_off_c, 0, 71, 0
4, 55500, Note_on_c, 0, 75, 88
4, 55558, Note_off_c, 0, 75, 0
4, 55560, Note_on_c, 0, 68, 88
4, 55618, Note_off_c, 0, 68, 0
4, 55620, Note_on_c, 0, 66, 88
4, 55678, Note_off_c, 0, 66, 0
4, 55680, Note_on_c, 0, 64, 88
4, 55796, Note_off_c, 0, 64, 0
4, 55800, Note_on_c, 0, 68, 88
4, 55916, Note_off_c, 0, 68, 0
4, 55920, Note_on_c, 0, 73, 88
4, 56214, Note_off_c, 0, 73, 0
4, 56220, Note_on_c, 0, 64, 88
4, 56278, Note_off_c, 0, 64, 0
4, 56280, Note_on_c, 0, 63, 88
4, 56338, Note_off_c, 0, 63, 0
4, 56340, Note_on_c, 0, 62, 88
4, 56398, Note_off_c, 0, 62, 0
4, 56400, Note_on_c, 0, 63, 88
4, 56516, Note_off_c, 0, 63, 0
4, 56520, Note_on_c, 0, 70, 88
4, 56636, Note_off_c, 0, 70, 0
4, 56640, Note_on_c, 0, 75, 88
4, 56698, Note_off_c, 0, 75, 0
4, 56700, Note_on_c, 0, 73, 88
4, 56729, Note_off_c, 0, 73, 0
4, 56730, Note_on_c, 0, 71, 88
4, 56759, Note_off_c, 0, 71, 0
4, 56760, Note_on_c, 0, 70, 88
4, 56789, Note_off_c, 0, 70, 0
4, 56790, Note_on_c, 0, 71, 88
4, 56819, Note_off_c, 0, 71, 0
4, 56820, Note_on_c, 0, 73, 88
4, 56878, Note_off_c, 0, 73, 0
4, 56880, Note_on_c, 0, 71, 88
4, 56938, Note_off_c, 0, 71, 0
4, 56940, Note_on_c, 0, 80, 88
4, 56998, Note_off_c, 0, 80, 0
4, 57000, Note_on_c, 0, 70, 88
4, 57058, Note_off_c, 0, 70, 0
4, 57060, Note_on_c, 0, 79, 88
4, 57118, Note_off_c, 0, 79, 0
4, 57120, Note_on_c, 0, 80, 88
4, 57178, Note_off_c, 0, 80, 0
4, 57180, Note_on_c, 0, 76, 88
4, 57238, Note_off_c, 0, 76, 0
4, 57240, Note_on_c, 0, 75, 88
4, 57298, Note_off_c, 0, 75, 0
4, 57300, Note_on_c, 0, 73, 88
4, 57358, Note_off_c, 0, 73, 0
4, 57360, Note_on_c, 0, 75, 88
4, 57418, Note_off_c, 0, 75, 0
4, 57420, Note_on_c, 0, 68, 88
4, 57478, Note_off_c, 0, 68, 0
4, 57480, Note_on_c, 0, 67, 88
4, 57538, Note_off_c, 0, 67, 0
4, 57540, Note_on_c, 0, 73, 88
4, 57598, Note_off_c, 0, 73, 0
4, 57600, Note_on_c, 0, 71, 88
4, 57658, Note_off_c, 0, 71, 0
4, 57660, Note_on_c, 0, 70, 88
4, 57718, Note_off_c, 0, 70, 0
4, 57720, Note_on_c, 0, 68, 88
4, 57778, Note_off_c, 0, 68, 0
4, 57780, Note_on_c, 0, 67, 88
4, 57838, Note_off_c, 0, 67, 0
4, 57840, Note_on_c, 0, 68, 88
4, 57898, Note_off_c, 0, 68, 0
4, 57900, Note_on_c, 0, 71, 88
4, 57958, Note_off_c, 0, 71, 0
4, 57960, Note_on_c, 0, 61, 88
4, 58018, Note_off_c, 0, 61, 0
4, 58020, Note_on_c, 0, 71, 88
4, 58078, Note_off_c, 0, 71, 0
4, 58080, Note_on_c, 0, 68, 88
4, 58138, Note_off_c, 0, 68, 0
4, 58140, Note_on_c, 0, 71, 88
4, 58198, Note_off_c, 0, 71, 0
4, 58200, Note_on_c, 0, 63, 88
4, 58258, Note_off_c, 0, 63, 0
4, 58260, Note_on_c, 0, 71, 88
4, 58318, Note_off_c, 0, 71, 0
4, 58320, Note_on_c, 0, 68, 88
4, 58378, Note_off_c, 0, 68, 0
4, 58380, Note_on_c, 0, 71, 88
4, 58438, Note_off_c, 0, 71, 0
4, 58440, Note_on_c, 0, 65, 88
4, 58498, Note_off_c, 0, 65, 0
4, 58500, Note_on_c, 0, 71, 88
4, 58558, Note_off_c, 0, 71, 0
4, 58560, Note_on_c, 0, 70, 88
4, 58618, Note_off_c, 0, 70, 0
4, 58620, Note_on_c, 0, 68, 88
4, 58678, Note_off_c, 0, 68, 0
4, 58680, Note_on_c, 0, 66, 88
4, 58738, Note_off_c, 0, 66, 0
4, 58740, Note_on_c, 0, 65, 88
4, 58798, Note_off_c, 0, 65, 0
4, 58800, Note_on_c, 0, 66, 88
4, 58858, Note_off_c, 0, 66, 0
4, 58860, Note_on_c, 0, 70, 88
4, 58918, Note_off_c, 0, 70, 0
4, 58920, Note_on_c, 0, 60, 88
4, 58978, Note_off_c, 0, 60, 0
4, 58980, Note_on_c, 0, 70, 88
4, 59038, Note_off_c, 0, 70, 0
4, 59040, Note_on_c, 0, 66, 88
4, 59098, Note_off_c, 0, 66, 0
4, 59100, Note_on_c, 0, 70, 88
4, 59158, Note_off_c, 0, 70, 0
4, 59160, Note_on_c, 0, 62, 88
4, 59218, Note_off_c, 0, 62, 0
4, 59220, Note_on_c, 0, 70, 88
4, 59278, Note_off_c, 0, 70, 0
4, 59280, Note_on_c, 0, 66, 88
4, 59338, Note_off_c, 0, 66, 0
4, 59340, Note_on_c, 0, 70, 88
4, 59398, Note_off_c, 0, 70, 0
4, 59400, Note_on_c, 0, 63, 88
4, 59458, Note_off_c, 0, 63, 0
4, 59460, Note_on_c, 0, 70, 88
4, 59518, Note_off_c, 0, 70, 0
4, 59520, Note_on_c, 0, 68, 88
4, 59578, Note_off_c, 0, 68, 0
4, 59580, Note_on_c, 0, 66, 88
4, 59638, Note_off_c, 0, 66, 0
4, 59640, Note_on_c, 0, 65, 88
4, 59698, Note_off_c, 0, 65, 0
4, 59700, Note_on_c, 0, 63, 88
4, 59758, Note_off_c, 0, 63, 0
4, 59760, Note_on_c, 0, 65, 88
4, 59818, Note_off_c, 0, 65, 0
4, 59820, Note_on_c, 0, 68, 88
4, 59878, Note_off_c, 0, 68, 0
4, 59880, Note_on_c, 0, 58, 88
4, 59938, Note_off_c, 0, 58, 0
4, 59940, Note_on_c, 0, 68, 88
4, 59998, Note_off_c, 0, 68, 0
4, 60000, Note_on_c, 0, 65, 88
4, 60058, Note_off_c, 0, 65, 0
4, 60060, Note_on_c, 0, 68, 88
4, 60118, Note_off_c, 0, 68, 0
4, 60120, Note_on_c, 0, 60, 88
4, 60178, Note_off_c, 0, 60, 0
4, 60180, Note_on_c, 0, 68, 88
4, 60238, Note_off_c, 0, 68, 0
4, 60240, Note_on_c, 0, 65, 88
4, 60298, Note_off_c, 0, 65, 0
4, 60300, Note_on_c, 0, 68, 88
4, 60358, Note_off_c, 0, 68, 0
4, 60360, Note_on_c, 0, 62, 88
4, 60418, Note_off_c, 0, 62, 0
4, 60420, Note_on_c, 0, 68, 88
4, 60478, Note_off_c, 0, 68, 0
4, 60480, Note_on_c, 0, 66, 88
4, 60538, Note_off_c, 0, 66, 0
4, 60540, Note_on_c, 0, 70, 88
4, 60598, Note_off_c, 0, 70, 0
4, 60600, Note_on_c, 0, 74, 88
4, 60658, Note_off_c, 0, 74, 0
4, 60660, Note_on_c, 0, 77, 88
4, 60718, Note_off_c, 0, 77, 0
4, 60720, Note_on_c, 0, 70, 88
4, 60778, Note_off_c, 0, 70, 0
4, 60780, Note_on_c, 0, 74, 88
4, 60838, Note_off_c, 0, 74, 0
4, 60840, Note_on_c, 0, 77, 88
4, 60898, Note_off_c, 0, 77, 0
4, 60900, Note_on_c, 0, 80, 88
4, 60958, Note_off_c, 0, 80, 0
4, 60960, Note_on_c, 0, 78, 88
4, 60989, Note_off_c, 0, 78, 0
4, 60990, Note_on_c, 0, 77, 88
4, 61019, Note_off_c, 0, 77, 0
4, 61020, Note_on_c, 0, 75, 88
4, 61078, Note_off_c, 0, 75, 0
4, 61080, Note_on_c, 0, 77, 88
4, 61196, Note_off_c, 0, 77, 0
4, 61440, Note_on_c, 0, 63, 88
4, 61498, Note_off_c, 0, 63, 0
4, 61500, Note_on_c, 0, 66, 88
4, 61558, Note_off_c, 0, 66, 0
4, 61560, Note_on_c, 0, 65, 88
4, 61618, Note_off_c, 0, 65, 0
4, 61620, Note_on_c, 0, 68, 88
4, 61678, Note_off_c, 0, 68, 0
4, 61680, Note_on_c, 0, 66, 88
4, 61738, Note_off_c, 0, 66, 0
4, 61740, Note_on_c, 0, 70, 88
4, 61798, Note_off_c, 0, 70, 0
4, 61800, Note_on_c, 0, 68, 88
4, 61858, Note_off_c, 0, 68, 0
4, 61860, Note_on_c, 0, 71, 88
4, 61918, Note_off_c, 0, 71, 0
4, 61920, Note_on_c, 0, 70, 88
4, 61978, Note_off_c, 0, 70, 0
4, 61980, Note_on_c, 0, 75, 88
4, 62038, Note_off_c, 0, 75, 0
4, 62040, Note_on_c, 0, 74, 88
4, 62098, Note_off_c, 0, 74, 0
4, 62100, Note_on_c, 0, 72, 88
4, 62158, Note_off_c, 0, 72, 0
4, 62160, Note_on_c, 0, 70, 88
4, 62218, Note_off_c, 0, 70, 0
4, 62220, Note_on_c, 0, 68, 88
4, 62278, Note_off_c, 0, 68, 0
4, 62280, Note_on_c, 0, 66, 88
4, 62338, Note_off_c, 0, 66, 0
4, 62340, Note_on_c, 0, 65, 88
4, 62398, Note_off_c, 0, 65, 0
4, 62400, Note_on_c, 0, 66, 88
4, 62458, Note_off_c, 0, 66, 0
4, 62460, Note_on_c, 0, 70, 88
4, 62518, Note_off_c, 0, 70, 0
4, 62520, Note_on_c, 0, 68, 88
4, 62578, Note_off_c, 0, 68, 0
4, 62580, Note_on_c, 0, 71, 88
4, 62638, Note_off_c, 0, 71, 0
4, 62640, Note_on_c, 0, 70, 88
4, 62698, Note_off_c, 0, 70, 0
4, 62700, Note_on_c, 0, 68, 88
4, 62758, Note_off_c, 0, 68, 0
4, 62760, Note_on_c, 0, 66, 88
4, 62818, Note_off_c, 0, 66, 0
4, 62820, Note_on_c, 0, 65, 88
4, 62878, Note_off_c, 0, 65, 0
4, 62880, Note_on_c, 0, 63, 88
4, 62938, Note_off_c, 0, 63, 0
4, 62940, Note_on_c, 0, 66, 88
4, 62998, Note_off_c, 0, 66, 0
4, 63000, Note_on_c, 0, 65, 88
4, 63058, Note_off_c, 0, 65, 0
4, 63060, Note_on_c, 0, 68, 88
4, 63118, Note_off_c, 0, 68, 0
4, 63120, Note_on_c, 0, 66, 88
4, 63178, Note_off_c, 0, 66, 0
4, 63180, Note_on_c, 0, 65, 88
4, 63238, Note_off_c, 0, 65, 0
4, 63240, Note_on_c, 0, 63, 88
4, 63298, Note_off_c, 0, 63, 0
4, 63300, Note_on_c, 0, 62, 88
4, 63358, Note_off_c, 0, 62, 0
4, 63360, Note_on_c, 0, 63, 88
4, 63418, Note_off_c, 0, 63, 0
4, 63420, Note_on_c, 0, 68, 88
4, 63478, Note_off_c, 0, 68, 0
4, 63480, Note_on_c, 0, 67, 88
4, 63538, Note_off_c, 0, 67, 0
4, 63540, Note_on_c, 0, 70, 88
4, 63598, Note_off_c, 0, 70, 0
4, 63600, Note_on_c, 0, 68, 88
4, 63658, Note_off_c, 0, 68, 0
4, 63660, Note_on_c, 0, 66, 88
4, 63718, Note_off_c, 0, 66, 0
4, 63720, Note_on_c, 0, 65, 88
4, 63778, Note_off_c, 0, 65, 0
4, 63780, Note_on_c, 0, 63, 88
4, 63838, Note_off_c, 0, 63, 0
4, 63840, Note_on_c, 0, 62, 88
4, 63898, Note_off_c, 0, 62, 0
4, 63900, Note_on_c, 0, 65, 88
4, 63958, Note_off_c, 0, 65, 0
4, 63960, Note_on_c, 0, 63, 88
4, 64018, Note_off_c, 0, 63, 0
4, 64020, Note_on_c, 0, 66, 88
4, 64078, Note_off_c, 0, 66, 0
4, 64080, Note_on_c, 0, 65, 88
4, 64138, Note_off_c, 0, 65, 0
4, 64140, Note_on_c, 0, 63, 88
4, 64198, Note_off_c, 0, 63, 0
4, 64200, Note_on_c, 0, 62, 88
4, 64258, Note_off_c, 0, 62, 0
4, 64260, Note_on_c, 0, 60, 88
4, 64318, Note_off_c, 0, 60, 0
4, 64320, Note_on_c, 0, 58, 88
4, 64436, Note_off_c, 0, 58, 0
4, 64440, Note_on_c, 0, 70, 88
4, 64556, Note_off_c, 0, 70, 0
4, 64560, Note_on_c, 0, 68, 88
4, 64618, Note_off_c, 0, 68, 0
4, 64620, Note_on_c, 0, 66, 88
4, 64678, Note_off_c, 0, 66, 0
4, 64680, Note_on_c, 0, 65, 88
4, 64738, Note_off_c, 0, 65, 0
4, 64740, Note_on_c, 0, 66, 88
4, 64798, Note_off_c, 0, 66, 0
4, 64800, Note_on_c, 0, 63, 88
4, 64858, Note_off_c, 0, 63, 0
4, 64860, Note_on_c, 0, 67, 88
4, 64918, Note_off_c, 0, 67, 0
4, 64920, Note_on_c, 0, 65, 88
4, 64978, Note_off_c, 0, 65, 0
4, 64980, Note_on_c, 0, 68, 88
4, 65038, Note_off_c, 0, 68, 0
4, 65040, Note_on_c, 0, 67, 88
4, 65098, Note_off_c, 0, 67, 0
4, 65100, Note_on_c, 0, 70, 88
4, 65158, Note_off_c, 0, 70, 0
4, 65160, Note_on_c, 0, 68, 88
4, 65218, Note_off_c, 0, 68, 0
4, 65220, Note_on_c, 0, 71, 88
4, 65278, Note_off_c, 0, 71, 0
4, 65280, Note_on_c, 0, 70, 88
4, 65338, Note_off_c, 0, 70, 0
4, 65340, Note_on_c, 0, 73, 88
4, 65398, Note_off_c, 0, 73, 0
4, 65400, Note_on_c, 0, 71, 88
4, 65458, Note_off_c, 0, 71, 0
4, 65460, Note_on_c, 0, 70, 88
4, 65518, Note_off_c, 0, 70, 0
4, 65520, Note_on_c, 0, 68, 88
4, 65578, Note_off_c, 0, 68, 0
4, 65580, Note_on_c, 0, 67, 88
4, 65638, Note_off_c, 0, 67, 0
4, 65640, Note_on_c, 0, 65, 88
4, 65698, Note_off_c, 0, 65, 0
4, 65700, Note_on_c, 0, 63, 88
4, 65758, Note_off_c, 0, 63, 0
4, 65760, Note_on_c, 0, 75, 88
4, 65818, Note_off_c, 0, 75, 0
4, 65820, Note_on_c, 0, 72, 88
4, 65849, Note_off_c, 0, 72, 0
4, 65850, Note_on_c, 0, 69, 88
4, 65879, Note_off_c, 0, 69, 0
4, 65880, Note_on_c, 0, 65, 88
4, 66055, Note_off_c, 0, 65, 0
4, 66060, Note_on_c, 0, 69, 88
4, 66089, Note_off_c, 0, 69, 0
4, 66090, Note_on_c, 0, 72, 88
4, 66119, Note_off_c, 0, 72, 0
4, 66120, Note_on_c, 0, 73, 88
4, 66149, Note_off_c, 0, 73, 0
4, 66150, Note_on_c, 0, 72, 88
4, 66179, Note_off_c, 0, 72, 0
4, 66180, Note_on_c, 0, 70, 88
4, 66238, Note_off_c, 0, 70, 0
4, 66240, Note_on_c, 0, 69, 88
4, 66298, Note_off_c, 0, 69, 0
4, 66300, Note_on_c, 0, 72, 88
4, 66329, Note_off_c, 0, 72, 0
4, 66330, Note_on_c, 0, 75, 88
4, 66359, Note_off_c, 0, 75, 0
4, 66360, Note_on_c, 0, 78, 88
4, 66535, Note_off_c, 0, 78, 0
4, 66540, Note_on_c, 0, 72, 88
4, 66569, Note_off_c, 0, 72, 0
4, 66570, Note_on_c, 0, 70, 88
4, 66599, Note_off_c, 0, 70, 0
4, 66600, Note_on_c, 0, 72, 88
4, 66629, Note_off_c, 0, 72, 0
4, 66630, Note_on_c, 0, 74, 88
4, 66659, Note_off_c, 0, 74, 0
4, 66660, Note_on_c, 0, 75, 88
4, 66718, Note_off_c, 0, 75, 0
4, 66720, Note_on_c, 0, 74, 88
4, 66778, Note_off_c, 0, 74, 0
4, 66780, Note_on_c, 0, 77, 88
4, 66838, Note_off_c, 0, 77, 0
4, 66840, Note_on_c, 0, 75, 88
4, 66898, Note_off_c, 0, 75, 0
4, 66900, Note_on_c, 0, 78, 88
4, 66958, Note_off_c, 0, 78, 0
4, 66960, Note_on_c, 0, 77, 88
4, 67018, Note_off_c, 0, 77, 0
4, 67020, Note_on_c, 0, 80, 88
4, 67078, Note_off_c, 0, 80, 0
4, 67080, Note_on_c, 0, 78, 88
4, 67138, Note_off_c, 0, 78, 0
4, 67140, Note_on_c, 0, 82, 88
4, 67198, Note_off_c, 0, 82, 0
4, 67200, Note_on_c, 0, 80, 88
4, 67258, Note_off_c, 0, 80, 0
4, 67260, Note_on_c, 0, 83, 88
4, 67318, Note_off_c, 0, 83, 0
4, 67320, Note_on_c, 0, 82, 88
4, 67378, Note_off_c, 0, 82, 0
4, 67380, Note_on_c, 0, 80, 88
4, 67438, Note_off_c, 0, 80, 0
4, 67440, Note_on_c, 0, 78, 88
4, 67498, Note_off_c, 0, 78, 0
4, 67500, Note_on_c, 0, 77, 88
4, 67558, Note_off_c, 0, 77, 0
4, 67560, Note_on_c, 0, 75, 88
4, 67618, Note_off_c, 0, 75, 0
4, 67620, Note_on_c, 0, 74, 88
4, 67678, Note_off_c, 0, 74, 0
4, 67680, Note_on_c, 0, 75, 88
4, 67738, Note_off_c, 0, 75, 0
4, 67740, Note_on_c, 0, 77, 88
4, 67769, Note_off_c, 0, 77, 0
4, 67770, Note_on_c, 0, 78, 88
4, 67799, Note_off_c, 0, 78, 0
4, 67800, Note_on_c, 0, 80, 88
4, 67829, Note_off_c, 0, 80, 0
4, 67830, Note_on_c, 0, 78, 88
4, 67859, Note_off_c, 0, 78, 0
4, 67860, Note_on_c, 0, 77, 88
4, 67918, Note_off_c, 0, 77, 0
4, 67920, Note_on_c, 0, 78, 88
4, 67978, Note_off_c, 0, 78, 0
4, 67980, Note_on_c, 0, 77, 88
4, 68009, Note_off_c, 0, 77, 0
4, 68010, Note_on_c, 0, 75, 88
4, 68039, Note_off_c, 0, 75, 0
4, 68040, Note_on_c, 0, 74, 88
4, 68069, Note_off_c, 0, 74, 0
4, 68070, Note_on_c, 0, 75, 88
4, 68099, Note_off_c, 0, 75, 0
4, 68100, Note_on_c, 0, 77, 88
4, 68158, Note_off_c, 0, 77, 0
4, 68160, Note_on_c, 0, 70, 88
4, 68189, Note_off_c, 0, 70, 0
4, 68190, Note_on_c, 0, 75, 88
4, 68219, Note_off_c, 0, 75, 0
4, 68220, Note_on_c, 0, 73, 88
4, 68249, Note_off_c, 0, 73, 0
4, 68250, Note_on_c, 0, 71, 88
4, 68279, Note_off_c, 0, 71, 0
4, 68280, Note_on_c, 0, 70, 88
4, 68338, Note_off_c, 0, 70, 0
4, 68340, Note_on_c, 0, 68, 88
4, 68398, Note_off_c, 0, 68, 0
4, 68400, Note_on_c, 0, 66, 88
4, 68458, Note_off_c, 0, 66, 0
4, 68460, Note_on_c, 0, 65, 88
4, 68489, Note_off_c, 0, 65, 0
4, 68490, Note_on_c, 0, 66, 88
4, 68519, Note_off_c, 0, 66, 0
4, 68520, Note_on_c, 0, 68, 88
4, 68549, Note_off_c, 0, 68, 0
4, 68550, Note_on_c, 0, 66, 88
4, 68579, Note_off_c, 0, 66, 0
4, 68580, Note_on_c, 0, 65, 88
4, 68638, Note_off_c, 0, 65, 0
4, 68640, Note_on_c, 0, 63, 88
4, 68698, Note_off_c, 0, 63, 0
4, 68700, Note_on_c, 0, 66, 88
4, 68758, Note_off_c, 0, 66, 0
4, 68760, Note_on_c, 0, 70, 88
4, 68818, Note_off_c, 0, 70, 0
4, 68820, Note_on_c, 0, 74, 88
4, 68861, Note_off_c, 0, 74, 0
4, 68880, Note_on_c, 0, 74, 88
4, 68996, Note_off_c, 0, 74, 0
4, 69000, Note_on_c, 0, 75, 88
4, 69116, Note_off_c, 0, 75, 0
4, 69116, End_track
5, 0, Start_track
5, 0, Title_t, "Track 2"
5, 0, Program_c, 1, 6
5, 0, Note_on_c, 1, 51, 88
5, 29, Note_off_c, 1, 51, 0
5, 30, Note_on_c, 1, 50, 88
5, 59, Note_off_c, 1, 50, 0
5, 60, Note_on_c, 1, 51, 88
5, 235, Note_off_c, 1, 51, 0
5, 240, Note_on_c, 1, 39, 88
5, 474, Note_off_c, 1, 39, 0
5, 960, Note_on_c, 1, 51, 88
5, 1018, Note_off_c, 1, 51, 0
5, 1020, Note_on_c, 1, 54, 88
5, 1078, Note_off_c, 1, 54, 0
5, 1080, Note_on_c, 1, 53, 88
5, 1138, Note_off_c, 1, 53, 0
5, 1140, Note_on_c, 1, 56, 88
5, 1198, Note_off_c, 1, 56, 0
5, 1200, Note_on_c, 1, 54, 88
5, 1258, Note_off_c, 1, 54, 0
5, 1260, Note_on_c, 1, 58, 88
5, 1318, Note_off_c, 1, 58, 0
5, 1320, Note_on_c, 1, 56, 88
5, 1378, Note_off_c, 1, 56, 0
5, 1380, Note_on_c, 1, 59, 88
5, 1438, Note_off_c, 1, 59, 0
5, 1440, Note_on_c, 1, 58, 88
5, 1498, Note_off_c, 1, 58, 0
5, 1500, Note_on_c, 1, 63, 88
5, 1558, Note_off_c, 1, 63, 0
5, 1560, Note_on_c, 1, 62, 88
5, 1618, Note_off_c, 1, 62, 0
5, 1620, Note_on_c, 1, 60, 88
5, 1678, Note_off_c, 1, 60, 0
5, 1680, Note_on_c, 1, 58, 88
5, 1738, Note_off_c, 1, 58, 0
5, 1740, Note_on_c, 1, 56, 88
5, 1798, Note_off_c, 1, 56, 0
5, 1800, Note_on_c, 1, 54, 88
5, 1858, Note_off_c, 1, 54, 0
5, 1860, Note_on_c, 1, 53, 88
5, 1918, Note_off_c, 1, 53, 0
5, 1920, Note_on_c, 1, 54, 88
5, 2036, Note_off_c, 1, 54, 0
5, 2040, Note_on_c, 1, 50, 88
5, 2156, Note_off_c, 1, 50, 0
5, 2160, Note_on_c, 1, 51, 88
5, 2276, Note_off_c, 1, 51, 0
5, 2280, Note_on_c, 1, 54, 88
5, 2396, Note_off_c, 1, 54, 0
5, 2400, Note_on_c, 1, 56, 88
5, 2458, Note_off_c, 1, 56, 0
5, 2460, Note_on_c, 1, 59, 88
5, 2518, Note_off_c, 1, 59, 0
5, 2520, Note_on_c, 1, 58, 88
5, 2578, Note_off_c, 1, 58, 0
5, 2580, Note_on_c, 1, 61, 88
5, 2638, Note_off_c, 1, 61, 0
5, 2640, Note_on_c, 1, 59, 88
5, 2698, Note_off_c, 1, 59, 0
5, 2700, Note_on_c, 1, 58, 88
5, 2758, Note_off_c, 1, 58, 0
5, 2760, Note_on_c, 1, 56, 88
5, 2818, Note_off_c, 1, 56, 0
5, 2820, Note_on_c, 1, 54, 88
5, 2878, Note_off_c, 1, 54, 0
5, 2880, Note_on_c, 1, 53, 88
5, 2996, Note_off_c, 1, 53, 0
5, 3000, Note_on_c, 1, 56, 88
5, 3116, Note_off_c, 1, 56, 0
5, 3120, Note_on_c, 1, 61, 88
5, 3156, Note_off_c, 1, 61, 0
5, 3158, Note_on_c, 1, 59, 88
5, 3194, Note_off_c, 1, 59, 0
5, 3195, Note_on_c, 1, 61, 88
5, 3414, Note_off_c, 1, 61, 0
5, 3420, Note_on_c, 1, 58, 88
5, 3478, Note_off_c, 1, 58, 0
5, 3480, Note_on_c, 1, 59, 88
5, 3538, Note_off_c, 1, 59, 0
5, 3540, Note_on_c, 1, 56, 88
5, 3598, Note_off_c, 1, 56, 0
5, 3600, Note_on_c, 1, 58, 88
5, 3658, Note_off_c, 1, 58, 0
5, 3660, Note_on_c, 1, 61, 88
5, 3718, Note_off_c, 1, 61, 0
5, 3720, Note_on_c, 1, 54, 88
5, 3778, Note_off_c, 1, 54, 0
5, 3780, Note_on_c, 1, 53, 88
5, 3838, Note_off_c, 1, 53, 0
5, 3840, Note_on_c, 1, 51, 88
5, 3956, Note_off_c, 1, 51, 0
5, 3960, Note_on_c, 1, 54, 88
5, 4076, Note_off_c, 1, 54, 0
5, 4080, Note_on_c, 1, 59, 88
5, 4109, Note_off_c, 1, 59, 0
5, 4110, Note_on_c, 1, 58, 88
5, 4139, Note_off_c, 1, 58, 0
5, 4140, Note_on_c, 1, 59, 88
5, 4315, Note_off_c, 1, 59, 0
5, 4320, Note_on_c, 1, 49, 88
5, 4436, Note_off_c, 1, 49, 0
5, 4440, Note_on_c, 1, 53, 88
5, 4556, Note_off_c, 1, 53, 0
5, 4560, Note_on_c, 1, 58, 88
5, 4589, Note_off_c, 1, 58, 0
5, 4590, Note_on_c, 1, 56, 88
5, 4619, Note_off_c, 1, 56, 0
5, 4620, Note_on_c, 1, 58, 88
5, 4795, Note_off_c, 1, 58, 0
5, 4800, Note_on_c, 1, 47, 88
5, 4916, Note_off_c, 1, 47, 0
5, 4920, Note_on_c, 1, 51, 88
5, 5036, Note_off_c, 1, 51, 0
5, 5040, Note_on_c, 1, 56, 88
5, 5156, Note_off_c, 1, 56, 0
5, 5160, Note_on_c, 1, 49, 88
5, 5276, Note_off_c, 1, 49, 0
5, 5280, Note_on_c, 1, 51, 88
5, 5396, Note_off_c, 1, 51, 0
5, 5400, Note_on_c, 1, 59, 88
5, 5516, Note_off_c, 1, 59, 0
5, 5520, Note_on_c, 1, 56, 88
5, 5636, Note_off_c, 1, 56, 0
5, 5640, Note_on_c, 1, 53, 88
5, 5756, Note_off_c, 1, 53, 0
5, 5760, Note_on_c, 1, 46, 88
5, 5876, Note_off_c, 1, 46, 0
5, 5880, Note_on_c, 1, 49, 88
5, 5996, Note_off_c, 1, 49, 0
5, 6000, Note_on_c, 1, 54, 88
5, 6116, Note_off_c, 1, 54, 0
5, 6120, Note_on_c, 1, 47, 88
5, 6236, Note_off_c, 1, 47, 0
5, 6240, Note_on_c, 1, 49, 88
5, 6356, Note_off_c, 1, 49, 0
5, 6360, Note_on_c, 1, 58, 88
5, 6476, Note_off_c, 1, 58, 0
5, 6480, Note_on_c, 1, 54, 88
5, 6596, Note_off_c, 1, 54, 0
5, 6600, Note_on_c, 1, 51, 88
5, 6716, Note_off_c, 1, 51, 0
5, 6720, Note_on_c, 1, 44, 88
5, 6836, Note_off_c, 1, 44, 0
5, 6840, Note_on_c, 1, 47, 88
5, 6956, Note_off_c, 1, 47, 0
5, 6960, Note_on_c, 1, 53, 88
5, 7076, Note_off_c, 1, 53, 0
5, 7080, Note_on_c, 1, 46, 88
5, 7196, Note_off_c, 1, 46, 0
5, 7200, Note_on_c, 1, 47, 88
5, 7316, Note_off_c, 1, 47, 0
5, 7320, Note_on_c, 1, 56, 88
5, 7436, Note_off_c, 1, 56, 0
5, 7440, Note_on_c, 1, 53, 88
5, 7556, Note_off_c, 1, 53, 0
5, 7560, Note_on_c, 1, 49, 88
5, 7676, Note_off_c, 1, 49, 0
5, 7680, Note_on_c, 1, 42, 88
5, 7738, Note_off_c, 1, 42, 0
5, 7740, Note_on_c, 1, 46, 88
5, 7798, Note_off_c, 1, 46, 0
5, 7800, Note_on_c, 1, 44, 88
5, 7858, Note_off_c, 1, 44, 0
5, 7860, Note_on_c, 1, 47, 88
5, 7918, Note_off_c, 1, 47, 0
5, 7920, Note_on_c, 1, 46, 88
5, 7978, Note_off_c, 1, 46, 0
5, 7980, Note_on_c, 1, 49, 88
5, 8038, Note_off_c, 1, 49, 0
5, 8040, Note_on_c, 1, 47, 88
5, 8098, Note_off_c, 1, 47, 0
5, 8100, Note_on_c, 1, 51, 88
5, 8158, Note_off_c, 1, 51, 0
5, 8160, Note_on_c, 1, 49, 88
5, 8218, Note_off_c, 1, 49, 0
5, 8220, Note_on_c, 1, 54, 88
5, 8278, Note_off_c, 1, 54, 0
5, 8280, Note_on_c, 1, 53, 88
5, 8338, Note_off_c, 1, 53, 0
5, 8340, Note_on_c, 1, 51, 88
5, 8398, Note_off_c, 1, 51, 0
5, 8400, Note_on_c, 1, 49, 88
5, 8458, Note_off_c, 1, 49, 0
5, 8460, Note_on_c, 1, 47, 88
5, 8518, Note_off_c, 1, 47, 0
5, 8520, Note_on_c, 1, 46, 88
5, 8578, Note_off_c, 1, 46, 0
5, 8580, Note_on_c, 1, 44, 88
5, 8638, Note_off_c, 1, 44, 0
5, 8640, Note_on_c, 1, 46, 88
5, 8756, Note_off_c, 1, 46, 0
5, 8760, Note_on_c, 1, 49, 88
5, 8876, Note_off_c, 1, 49, 0
5, 8880, Note_on_c, 1, 54, 88
5, 8996, Note_off_c, 1, 54, 0
5, 9000, Note_on_c, 1, 56, 88
5, 9116, Note_off_c, 1, 56, 0
5, 9120, Note_on_c, 1, 58, 88
5, 9236, Note_off_c, 1, 58, 0
5, 9240, Note_on_c, 1, 59, 88
5, 9356, Note_off_c, 1, 59, 0
5, 9360, Note_on_c, 1, 61, 88
5, 9476, Note_off_c, 1, 61, 0
5, 9480, Note_on_c, 1, 49, 88
5, 9596, Note_off_c, 1, 49, 0
5, 9600, Note_on_c, 1, 54, 88
5, 9716, Note_off_c, 1, 54, 0
5, 9720, Note_on_c, 1, 51, 88
5, 9836, Note_off_c, 1, 51, 0
5, 9840, Note_on_c, 1, 53, 88
5, 9956, Note_off_c, 1, 53, 0
5, 9960, Note_on_c, 1, 48, 88
5, 10076, Note_off_c, 1, 48, 0
5, 10080, Note_on_c, 1, 49, 88
5, 10196, Note_off_c, 1, 49, 0
5, 10200, Note_on_c, 1, 51, 88
5, 10316, Note_off_c, 1, 51, 0
5, 10320, Note_on_c, 1, 53, 88
5, 10436, Note_off_c, 1, 53, 0
5, 10440, Note_on_c, 1, 41, 88
5, 10556, Note_off_c, 1, 41, 0
5, 10560, Note_on_c, 1, 46, 88
5, 10618, Note_off_c, 1, 46, 0
5, 10620, Note_on_c, 1, 49, 88
5, 10678, Note_off_c, 1, 49, 0
5, 10680, Note_on_c, 1, 48, 88
5, 10738, Note_off_c, 1, 48, 0
5, 10740, Note_on_c, 1, 51, 88
5, 10798, Note_off_c, 1, 51, 0
5, 10800, Note_on_c, 1, 49, 88
5, 10858, Note_off_c, 1, 49, 0
5, 10860, Note_on_c, 1, 53, 88
5, 10918, Note_off_c, 1, 53, 0
5, 10920, Note_on_c, 1, 51, 88
5, 10978, Note_off_c, 1, 51, 0
5, 10980, Note_on_c, 1, 54, 88
5, 11038, Note_off_c, 1, 54, 0
5, 11040, Note_on_c, 1, 53, 88
5, 11098, Note_off_c, 1, 53, 0
5, 11100, Note_on_c, 1, 58, 88
5, 11158, Note_off_c, 1, 58, 0
5, 11160, Note_on_c, 1, 57, 88
5, 11218, Note_off_c, 1, 57, 0
5, 11220, Note_on_c, 1, 55, 88
5, 11278, Note_off_c, 1, 55, 0
5, 11280, Note_on_c, 1, 53, 88
5, 11338, Note_off_c, 1, 53, 0
5, 11340, Note_on_c, 1, 51, 88
5, 11398, Note_off_c, 1, 51, 0
5, 11400, Note_on_c, 1, 49, 88
5, 11458, Note_off_c, 1, 49, 0
5, 11460, Note_on_c, 1, 48, 88
5, 11518, Note_off_c, 1, 48, 0
5, 11520, Note_on_c, 1, 49, 88
5, 11578, Note_off_c, 1, 49, 0
5, 11580, Note_on_c, 1, 53, 88
5, 11638, Note_off_c, 1, 53, 0
5, 11640, Note_on_c, 1, 51, 88
5, 11698, Note_off_c, 1, 51, 0
5, 11700, Note_on_c, 1, 54, 88
5, 11758, Note_off_c, 1, 54, 0
5, 11760, Note_on_c, 1, 53, 88
5, 11818, Note_off_c, 1, 53, 0
5, 11820, Note_on_c, 1, 51, 88
5, 11878, Note_off_c, 1, 51, 0
5, 11880, Note_on_c, 1, 49, 88
5, 11938, Note_off_c, 1, 49, 0
5, 11940, Note_on_c, 1, 48, 88
5, 11998, Note_off_c, 1, 48, 0
5, 12000, Note_on_c, 1, 46, 88
5, 12058, Note_off_c, 1, 46, 0
5, 12060, Note_on_c, 1, 49, 88
5, 12118, Note_off_c, 1, 49, 0
5, 12120, Note_on_c, 1, 48, 88
5, 12178, Note_off_c, 1, 48, 0
5, 12180, Note_on_c, 1, 51, 88
5, 12238, Note_off_c, 1, 51, 0
5, 12240, Note_on_c, 1, 49, 88
5, 12298, Note_off_c, 1, 49, 0
5, 12300, Note_on_c, 1, 48, 88
5, 12358, Note_off_c, 1, 48, 0
5, 12360, Note_on_c, 1, 46, 88
5, 12418, Note_off_c, 1, 46, 0
5, 12420, Note_on_c, 1, 44, 88
5, 12478, Note_off_c, 1, 44, 0
5, 12480, Note_on_c, 1, 43, 88
5, 12538, Note_off_c, 1, 43, 0
5, 12540, Note_on_c, 1, 46, 88
5, 12598, Note_off_c, 1, 46, 0
5, 12600, Note_on_c, 1, 45, 88
5, 12658, Note_off_c, 1, 45, 0
5, 12660, Note_on_c, 1, 48, 88
5, 12718, Note_off_c, 1, 48, 0
5, 12720, Note_on_c, 1, 46, 88
5, 12778, Note_off_c, 1, 46, 0
5, 12780, Note_on_c, 1, 44, 88
5, 12838, Note_off_c, 1, 44, 0
5, 12840, Note_on_c, 1, 42, 88
5, 12898, Note_off_c, 1, 42, 0
5, 12900, Note_on_c, 1, 41, 88
5, 12958, Note_off_c, 1, 41, 0
5, 12960, Note_on_c, 1, 40, 88
5, 13076, Note_off_c, 1, 40, 0
5, 13080, Note_on_c, 1, 52, 88
5, 13196, Note_off_c, 1, 52, 0
5, 13260, Note_on_c, 1, 54, 88
5, 13318, Note_off_c, 1, 54, 0
5, 13320, Note_on_c, 1, 53, 88
5, 13378, Note_off_c, 1, 53, 0
5, 13380, Note_on_c, 1, 51, 88
5, 13438, Note_off_c, 1, 51, 0
5, 13440, Note_on_c, 1, 49, 88
5, 13498, Note_off_c, 1, 49, 0
5, 13500, Note_on_c, 1, 48, 88
5, 13558, Note_off_c, 1, 48, 0
5, 13560, Note_on_c, 1, 49, 88
5, 13618, Note_off_c, 1, 49, 0
5, 13620, Note_on_c, 1, 51, 88
5, 13678, Note_off_c, 1, 51, 0
5, 13680, Note_on_c, 1, 53, 88
5, 13738, Note_off_c, 1, 53, 0
5, 13740, Note_on_c, 1, 54, 88
5, 13798, Note_off_c, 1, 54, 0
5, 13800, Note_on_c, 1, 51, 88
5, 13858, Note_off_c, 1, 51, 0
5, 13860, Note_on_c, 1, 53, 88
5, 13918, Note_off_c, 1, 53, 0
5, 13920, Note_on_c, 1, 54, 88
5, 14036, Note_off_c, 1, 54, 0
5, 14040, Note_on_c, 1, 42, 88
5, 14156, Note_off_c, 1, 42, 0
5, 14160, Note_on_c, 1, 41, 88
5, 14276, Note_off_c, 1, 41, 0
5, 14280, Note_on_c, 1, 39, 88
5, 14396, Note_off_c, 1, 39, 0
5, 14400, Note_on_c, 1, 37, 88
5, 14516, Note_off_c, 1, 37, 0
5, 14520, Note_on_c, 1, 49, 88
5, 14578, Note_off_c, 1, 49, 0
5, 14580, Note_on_c, 1, 51, 88
5, 14638, Note_off_c, 1, 51, 0
5, 14640, Note_on_c, 1, 53, 88
5, 14756, Note_off_c, 1, 53, 0
5, 14760, Note_on_c, 1, 41, 88
5, 14876, Note_off_c, 1, 41, 0
5, 14880, Note_on_c, 1, 46, 88
5, 15350, Note_off_c, 1, 46, 0
5, 15360, Note_on_c, 1, 51, 88
5, 15389, Note_off_c, 1, 51, 0
5, 15390, Note_on_c, 1, 50, 88
5, 15419, Note_off_c, 1, 50, 0
5, 15420, Note_on_c, 1, 51, 88
5, 15595, Note_off_c, 1, 51, 0
5, 15600, Note_on_c, 1, 39, 88
5, 15834, Note_off_c, 1, 39, 0
5, 16320, Note_on_c, 1, 51, 88
5, 16378, Note_off_c, 1, 51, 0
5, 16380, Note_on_c, 1, 54, 88
5, 16438, Note_off_c, 1, 54, 0
5, 16440, Note_on_c, 1, 53, 88
5, 16498, Note_off_c, 1, 53, 0
5, 16500, Note_on_c, 1, 56, 88
5, 16558, Note_off_c, 1, 56, 0
5, 16560, Note_on_c, 1, 54, 88
5, 16618, Note_off_c, 1, 54, 0
5, 16620, Note_on_c, 1, 58, 88
5, 16678, Note_off_c, 1, 58, 0
5, 16680, Note_on_c, 1, 56, 88
5, 16738, Note_off_c, 1, 56, 0
5, 16740, Note_on_c, 1, 59, 88
5, 16798, Note_off_c, 1, 59, 0
5, 16800, Note_on_c, 1, 58, 88
5, 16858, Note_off_c, 1, 58, 0
5, 16860, Note_on_c, 1, 63, 88
5, 16918, Note_off_c, 1, 63, 0
5, 16920, Note_on_c, 1, 62, 88
5, 16978, Note_off_c, 1, 62, 0
5, 16980, Note_on_c, 1, 60, 88
5, 17038, Note_off_c, 1, 60, 0
5, 17040, Note_on_c, 1, 58, 88
5, 17098, Note_off_c, 1, 58, 0
5, 17100, Note_on_c, 1, 56, 88
5, 17158, Note_off_c, 1, 56, 0
5, 17160, Note_on_c, 1, 54, 88
5, 17218, Note_off_c, 1, 54, 0
5, 17220, Note_on_c, 1, 53, 88
5, 17278, Note_off_c, 1, 53, 0
5, 17280, Note_on_c, 1, 54, 88
5, 17396, Note_off_c, 1, 54, 0
5, 17400, Note_on_c, 1, 50, 88
5, 17516, Note_off_c, 1, 50, 0
5, 17520, Note_on_c, 1, 51, 88
5, 17636, Note_off_c, 1, 51, 0
5, 17640, Note_on_c, 1, 54, 88
5, 17756, Note_off_c, 1, 54, 0
5, 17760, Note_on_c, 1, 56, 88
5, 17818, Note_off_c, 1, 56, 0
5, 17820, Note_on_c, 1, 59, 88
5, 17878, Note_off_c, 1, 59, 0
5, 17880, Note_on_c, 1, 58, 88
5, 17938, Note_off_c, 1, 58, 0
5, 17940, Note_on_c, 1, 61, 88
5, 17998, Note_off_c, 1, 61, 0
5, 18000, Note_on_c, 1, 59, 88
5, 18058, Note_off_c, 1, 59, 0
5, 18060, Note_on_c, 1, 58, 88
5, 18118, Note_off_c, 1, 58, 0
5, 18120, Note_on_c, 1, 56, 88
5, 18178, Note_off_c, 1, 56, 0
5, 18180, Note_on_c, 1, 54, 88
5, 18238, Note_off_c, 1, 54, 0
5, 18240, Note_on_c, 1, 53, 88
5, 18356, Note_off_c, 1, 53, 0
5, 18360, Note_on_c, 1, 56, 88
5, 18476, Note_off_c, 1, 56, 0
5, 18480, Note_on_c, 1, 61, 88
5, 18516, Note_off_c, 1, 61, 0
5, 18518, Note_on_c, 1, 59, 88
5, 18554, Note_off_c, 1, 59, 0
5, 18555, Note_on_c, 1, 61, 88
5, 18774, Note_off_c, 1, 61, 0
5, 18780, Note_on_c, 1, 58, 88
5, 18838, Note_off_c, 1, 58, 0
5, 18840, Note_on_c, 1, 59, 88
5, 18898, Note_off_c, 1, 59, 0
5, 18900, Note_on_c, 1, 56, 88
5, 18958, Note_off_c, 1, 56, 0
5, 18960, Note_on_c, 1, 58, 88
5, 19018, Note_off_c, 1, 58, 0
5, 19020, Note_on_c, 1, 61, 88
5, 19078, Note_off_c, 1, 61, 0
5, 19080, Note_on_c, 1, 54, 88
5, 19138, Note_off_c, 1, 54, 0
5, 19140, Note_on_c, 1, 53, 88
5, 19198, Note_off_c, 1, 53, 0
5, 19200, Note_on_c, 1, 51, 88
5, 19316, Note_off_c, 1, 51, 0
5, 19320, Note_on_c, 1, 54, 88
5, 19436, Note_off_c, 1, 54, 0
5, 19440, Note_on_c, 1, 59, 88
5, 19469, Note_off_c, 1, 59, 0
5, 19470, Note_on_c, 1, 58, 88
5, 19499, Note_off_c, 1, 58, 0
5, 19500, Note_on_c, 1, 59, 88
5, 19675, Note_off_c, 1, 59, 0
5, 19680, Note_on_c, 1, 49, 88
5, 19796, Note_off_c, 1, 49, 0
5, 19800, Note_on_c, 1, 53, 88
5, 19916, Note_off_c, 1, 53, 0
5, 19920, Note_on_c, 1, 58, 88
5, 19949, Note_off_c, 1, 58, 0
5, 19950, Note_on_c, 1, 56, 88
5, 19979, Note_off_c, 1, 56, 0
5, 19980, Note_on_c, 1, 58, 88
5, 20155, Note_off_c, 1, 58, 0
5, 20160, Note_on_c, 1, 47, 88
5, 20276, Note_off_c, 1, 47, 0
5, 20280, Note_on_c, 1, 51, 88
5, 20396, Note_off_c, 1, 51, 0
5, 20400, Note_on_c, 1, 56, 88
5, 20516, Note_off_c, 1, 56, 0
5, 20520, Note_on_c, 1, 49, 88
5, 20636, Note_off_c, 1, 49, 0
5, 20640, Note_on_c, 1, 51, 88
5, 20756, Note_off_c, 1, 51, 0
5, 20760, Note_on_c, 1, 59, 88
5, 20876, Note_off_c, 1, 59, 0
5, 20880, Note_on_c, 1, 56, 88
5, 20996, Note_off_c, 1, 56, 0
5, 21000, Note_on_c, 1, 53, 88
5, 21116, Note_off_c, 1, 53, 0
5, 21120, Note_on_c, 1, 46, 88
5, 21236, Note_off_c, 1, 46, 0
5, 21240, Note_on_c, 1, 49, 88
5, 21356, Note_off_c, 1, 49, 0
5, 21360, Note_on_c, 1, 54, 88
5, 21476, Note_off_c, 1, 54, 0
5, 21480, Note_on_c, 1, 47, 88
5, 21596, Note_off_c, 1, 47, 0
5, 21600, Note_on_c, 1, 49, 88
5, 21716, Note_off_c, 1, 49, 0
5, 21720, Note_on_c, 1, 58, 88
5, 21836, Note_off_c, 1, 58, 0
5, 21840, Note_on_c, 1, 54, 88
5, 21956, Note_off_c, 1, 54, 0
5, 21960, Note_on_c, 1, 51, 88
5, 22076, Note_off_c, 1, 51, 0
5, 22080, Note_on_c, 1, 44, 88
5, 22196, Note_off_c, 1, 44, 0
5, 22200, Note_on_c, 1, 47, 88
5, 22316, Note_off_c, 1, 47, 0
5, 22320, Note_on_c, 1, 53, 88
5, 22436, Note_off_c, 1, 53, 0
5, 22440, Note_on_c, 1, 46, 88
5, 22556, Note_off_c, 1, 46, 0
5, 22560, Note_on_c, 1, 47, 88
5, 22676, Note_off_c, 1, 47, 0
5, 22680, Note_on_c, 1, 56, 88
5, 22796, Note_off_c, 1, 56, 0
5, 22800, Note_on_c, 1, 53, 88
5, 22916, Note_off_c, 1, 53, 0
5, 22920, Note_on_c, 1, 49, 88
5, 23036, Note_off_c, 1, 49, 0
5, 23040, Note_on_c, 1, 42, 88
5, 23098, Note_off_c, 1, 42, 0
5, 23100, Note_on_c, 1, 46, 88
5, 23158, Note_off_c, 1, 46, 0
5, 23160, Note_on_c, 1, 44, 88
5, 23218, Note_off_c, 1, 44, 0
5, 23220, Note_on_c, 1, 47, 88
5, 23278, Note_off_c, 1, 47, 0
5, 23280, Note_on_c, 1, 46, 88
5, 23338, Note_off_c, 1, 46, 0
5, 23340, Note_on_c, 1, 49, 88
5, 23398, Note_off_c, 1, 49, 0
5, 23400, Note_on_c, 1, 47, 88
5, 23458, Note_off_c, 1, 47, 0
5, 23460, Note_on_c, 1, 51, 88
5, 23518, Note_off_c, 1, 51, 0
5, 23520, Note_on_c, 1, 49, 88
5, 23578, Note_off_c, 1, 49, 0
5, 23580, Note_on_c, 1, 54, 88
5, 23638, Note_off_c, 1, 54, 0
5, 23640, Note_on_c, 1, 53, 88
5, 23698, Note_off_c, 1, 53, 0
5, 23700, Note_on_c, 1, 51, 88
5, 23758, Note_off_c, 1, 51, 0
5, 23760, Note_on_c, 1, 49, 88
5, 23818, Note_off_c, 1, 49, 0
5, 23820, Note_on_c, 1, 47, 88
5, 23878, Note_off_c, 1, 47, 0
5, 23880, Note_on_c, 1, 46, 88
5, 23938, Note_off_c, 1, 46, 0
5, 23940, Note_on_c, 1, 44, 88
5, 23998, Note_off_c, 1, 44, 0
5, 24000, Note_on_c, 1, 46, 88
5, 24116, Note_off_c, 1, 46, 0
5, 24120, Note_on_c, 1, 49, 88
5, 24236, Note_off_c, 1, 49, 0
5, 24240, Note_on_c, 1, 54, 88
5, 24356, Note_off_c, 1, 54, 0
5, 24360, Note_on_c, 1, 56, 88
5, 24476, Note_off_c, 1, 56, 0
5, 24480, Note_on_c, 1, 58, 88
5, 24596, Note_off_c, 1, 58, 0
5, 24600, Note_on_c, 1, 59, 88
5, 24716, Note_off_c, 1, 59, 0
5, 24720, Note_on_c, 1, 61, 88
5, 24836, Note_off_c, 1, 61, 0
5, 24840, Note_on_c, 1, 49, 88
5, 24956, Note_off_c, 1, 49, 0
5, 24960, Note_on_c, 1, 54, 88
5, 25076, Note_off_c, 1, 54, 0
5, 25080, Note_on_c, 1, 51, 88
5, 25196, Note_off_c, 1, 51, 0
5, 25200, Note_on_c, 1, 53, 88
5, 25316, Note_off_c, 1, 53, 0
5, 25320, Note_on_c, 1, 48, 88
5, 25436, Note_off_c, 1, 48, 0
5, 25440, Note_on_c, 1, 49, 88
5, 25556, Note_off_c, 1, 49, 0
5, 25560, Note_on_c, 1, 51, 88
5, 25676, Note_off_c, 1, 51, 0
5, 25680, Note_on_c, 1, 53, 88
5, 25796, Note_off_c, 1, 53, 0
5, 25800, Note_on_c, 1, 41, 88
5, 25916, Note_off_c, 1, 41, 0
5, 25920, Note_on_c, 1, 46, 88
5, 25978, Note_off_c, 1, 46, 0
5, 25980, Note_on_c, 1, 49, 88
5, 26038, Note_off_c, 1, 49, 0
5, 26040, Note_on_c, 1, 48, 88
5, 26098, Note_off_c, 1, 48, 0
5, 26100, Note_on_c, 1, 51, 88
5, 26158, Note_off_c, 1, 51, 0
5, 26160, Note_on_c, 1, 49, 88
5, 26218, Note_off_c, 1, 49, 0
5, 26220, Note_on_c, 1, 53, 88
5, 26278, Note_off_c, 1, 53, 0
5, 26280, Note_on_c, 1, 51, 88
5, 26338, Note_off_c, 1, 51, 0
5, 26340, Note_on_c, 1, 54, 88
5, 26398, Note_off_c, 1, 54, 0
5, 26400, Note_on_c, 1, 53, 88
5, 26458, Note_off_c, 1, 53, 0
5, 26460, Note_on_c, 1, 58, 88
5, 26518, Note_off_c, 1, 58, 0
5, 26520, Note_on_c, 1, 57, 88
5, 26578, Note_off_c, 1, 57, 0
5, 26580, Note_on_c, 1, 55, 88
5, 26638, Note_off_c, 1, 55, 0
5, 26640, Note_on_c, 1, 53, 88
5, 26698, Note_off_c, 1, 53, 0
5, 26700, Note_on_c, 1, 51, 88
5, 26758, Note_off_c, 1, 51, 0
5, 26760, Note_on_c, 1, 49, 88
5, 26818, Note_off_c, 1, 49, 0
5, 26820, Note_on_c, 1, 48, 88
5, 26878, Note_off_c, 1, 48, 0
5, 26880, Note_on_c, 1, 49, 88
5, 26938, Note_off_c, 1, 49, 0
5, 26940, Note_on_c, 1, 53, 88
5, 26998, Note_off_c, 1, 53, 0
5, 27000, Note_on_c, 1, 51, 88
5, 27058, Note_off_c, 1, 51, 0
5, 27060, Note_on_c, 1, 54, 88
5, 27118, Note_off_c, 1, 54, 0
5, 27120, Note_on_c, 1, 53, 88
5, 27178, Note_off_c, 1, 53, 0
5, 27180, Note_on_c, 1, 51, 88
5, 27238, Note_off_c, 1, 51, 0
5, 27240, Note_on_c, 1, 49, 88
5, 27298, Note_off_c, 1, 49, 0
5, 27300, Note_on_c, 1, 48, 88
5, 27358, Note_off_c, 1, 48, 0
5, 27360, Note_on_c, 1, 46, 88
5, 27418, Note_off_c, 1, 46, 0
5, 27420, Note_on_c, 1, 49, 88
5, 27478, Note_off_c, 1, 49, 0
5, 27480, Note_on_c, 1, 48, 88
5, 27538, Note_off_c, 1, 48, 0
5, 27540, Note_on_c, 1, 51, 88
5, 27598, Note_off_c, 1, 51, 0
5, 27600, Note_on_c, 1, 49, 88
5, 27658, Note_off_c, 1, 49, 0
5, 27660, Note_on_c, 1, 48, 88
5, 27718, Note_off_c, 1, 48, 0
5, 27720, Note_on_c, 1, 46, 88
5, 27778, Note_off_c, 1, 46, 0
5, 27780, Note_on_c, 1, 44, 88
5, 27838, Note_off_c, 1, 44, 0
5, 27840, Note_on_c, 1, 43, 88
5, 27898, Note_off_c, 1, 43, 0
5, 27900, Note_on_c, 1, 46, 88
5, 27958, Note_off_c, 1, 46, 0
5, 27960, Note_on_c, 1, 45, 88
5, 28018, Note_off_c, 1, 45, 0
5, 28020, Note_on_c, 1, 48, 88
5, 28078, Note_off_c, 1, 48, 0
5, 28080, Note_on_c, 1, 46, 88
5, 28138, Note_off_c, 1, 46, 0
5, 28140, Note_on_c, 1, 44, 88
5, 28198, Note_off_c, 1, 44, 0
5, 28200, Note_on_c, 1, 42, 88
5, 28258, Note_off_c, 1, 42, 0
5, 28260, Note_on_c, 1, 41, 88
5, 28318, Note_off_c, 1, 41, 0
5, 28320, Note_on_c, 1, 40, 88
5, 28436, Note_off_c, 1, 40, 0
5, 28440, Note_on_c, 1, 52, 88
5, 28556, Note_off_c, 1, 52, 0
5, 28620, Note_on_c, 1, 54, 88
5, 28678, Note_off_c, 1, 54, 0
5, 28680, Note_on_c, 1, 53, 88
5, 28738, Note_off_c, 1, 53, 0
5, 28740, Note_on_c, 1, 51, 88
5, 28798, Note_off_c, 1, 51, 0
5, 28800, Note_on_c, 1, 49, 88
5, 28858, Note_off_c, 1, 49, 0
5, 28860, Note_on_c, 1, 48, 88
5, 28918, Note_off_c, 1, 48, 0
5, 28920, Note_on_c, 1, 49, 88
5, 28978, Note_off_c, 1, 49, 0
5, 28980, Note_on_c, 1, 51, 88
5, 29038, Note_off_c, 1, 51, 0
5, 29040, Note_on_c, 1, 53, 88
5, 29098, Note_off_c, 1, 53, 0
5, 29100, Note_on_c, 1, 54, 88
5, 29158, Note_off_c, 1, 54, 0
5, 29160, Note_on_c, 1, 51, 88
5, 29218, Note_off_c, 1, 51, 0
5, 29220, Note_on_c, 1, 53, 88
5, 29278, Note_off_c, 1, 53, 0
5, 29280, Note_on_c, 1, 54, 88
5, 29396, Note_off_c, 1, 54, 0
5, 29400, Note_on_c, 1, 42, 88
5, 29516, Note_off_c, 1, 42, 0
5, 29520, Note_on_c, 1, 41, 88
5, 29636, Note_off_c, 1, 41, 0
5, 29640, Note_on_c, 1, 39, 88
5, 29756, Note_off_c, 1, 39, 0
5, 29760, Note_on_c, 1, 37, 88
5, 29876, Note_off_c, 1, 37, 0
5, 29880, Note_on_c, 1, 49, 88
5, 29938, Note_off_c, 1, 49, 0
5, 29940, Note_on_c, 1, 51, 88
5, 29998, Note_off_c, 1, 51, 0
5, 30000, Note_on_c, 1, 53, 88
5, 30116, Note_off_c, 1, 53, 0
5, 30120, Note_on_c, 1, 41, 88
5, 30236, Note_off_c, 1, 41, 0
5, 30240, Note_on_c, 1, 46, 88
5, 30710, Note_off_c, 1, 46, 0
5, 30720, Note_on_c, 1, 46, 88
5, 30778, Note_off_c, 1, 46, 0
5, 30780, Note_on_c, 1, 50, 88
5, 30838, Note_off_c, 1, 50, 0
5, 30840, Note_on_c, 1, 48, 88
5, 30898, Note_off_c, 1, 48, 0
5, 30900, Note_on_c, 1, 51, 88
5, 30958, Note_off_c, 1, 51, 0
5, 30960, Note_on_c, 1, 50, 88
5, 31018, Note_off_c, 1, 50, 0
5, 31020, Note_on_c, 1, 53, 88
5, 31078, Note_off_c, 1, 53, 0
5, 31080, Note_on_c, 1, 51, 88
5, 31138, Note_off_c, 1, 51, 0
5, 31140, Note_on_c, 1, 54, 88
5, 31198, Note_off_c, 1, 54, 0
5, 31200, Note_on_c, 1, 53, 88
5, 31258, Note_off_c, 1, 53, 0
5, 31260, Note_on_c, 1, 56, 88
5, 31318, Note_off_c, 1, 56, 0
5, 31320, Note_on_c, 1, 54, 88
5, 31378, Note_off_c, 1, 54, 0
5, 31380, Note_on_c, 1, 53, 88
5, 31438, Note_off_c, 1, 53, 0
5, 31440, Note_on_c, 1, 51, 88
5, 31498, Note_off_c, 1, 51, 0
5, 31500, Note_on_c, 1, 50, 88
5, 31558, Note_off_c, 1, 50, 0
5, 31560, Note_on_c, 1, 48, 88
5, 31618, Note_off_c, 1, 48, 0
5, 31620, Note_on_c, 1, 46, 88
5, 31678, Note_off_c, 1, 46, 0
5, 31680, Note_on_c, 1, 51, 88
5, 31796, Note_off_c, 1, 51, 0
5, 31800, Note_on_c, 1, 54, 88
5, 31916, Note_off_c, 1, 54, 0
5, 31920, Note_on_c, 1, 60, 88
5, 32036, Note_off_c, 1, 60, 0
5, 32040, Note_on_c, 1, 53, 88
5, 32156, Note_off_c, 1, 53, 0
5, 32160, Note_on_c, 1, 54, 88
5, 32276, Note_off_c, 1, 54, 0
5, 32280, Note_on_c, 1, 63, 88
5, 32396, Note_off_c, 1, 63, 0
5, 32400, Note_on_c, 1, 60, 88
5, 32516, Note_off_c, 1, 60, 0
5, 32520, Note_on_c, 1, 56, 88
5, 32636, Note_off_c, 1, 56, 0
5, 32640, Note_on_c, 1, 59, 88
5, 32698, Note_off_c, 1, 59, 0
5, 32700, Note_on_c, 1, 56, 88
5, 32729, Note_off_c, 1, 56, 0
5, 32730, Note_on_c, 1, 53, 88
5, 32759, Note_off_c, 1, 53, 0
5, 32760, Note_on_c, 1, 49, 88
5, 32935, Note_off_c, 1, 49, 0
5, 32940, Note_on_c, 1, 53, 88
5, 32969, Note_off_c, 1, 53, 0
5, 32970, Note_on_c, 1, 56, 88
5, 32999, Note_off_c, 1, 56, 0
5, 33000, Note_on_c, 1, 58, 88
5, 33029, Note_off_c, 1, 58, 0
5, 33030, Note_on_c, 1, 56, 88
5, 33059, Note_off_c, 1, 56, 0
5, 33060, Note_on_c, 1, 54, 88
5, 33118, Note_off_c, 1, 54, 0
5, 33120, Note_on_c, 1, 53, 88
5, 33178, Note_off_c, 1, 53, 0
5, 33180, Note_on_c, 1, 56, 88
5, 33209, Note_off_c, 1, 56, 0
5, 33210, Note_on_c, 1, 59, 88
5, 33239, Note_off_c, 1, 59, 0
5, 33240, Note_on_c, 1, 63, 88
5, 33415, Note_off_c, 1, 63, 0
5, 33420, Note_on_c, 1, 56, 88
5, 33449, Note_off_c, 1, 56, 0
5, 33450, Note_on_c, 1, 54, 88
5, 33479, Note_off_c, 1, 54, 0
5, 33480, Note_on_c, 1, 56, 88
5, 33509, Note_off_c, 1, 56, 0
5, 33510, Note_on_c, 1, 58, 88
5, 33539, Note_off_c, 1, 58, 0
5, 33540, Note_on_c, 1, 59, 88
5, 33598, Note_off_c, 1, 59, 0
5, 33600, Note_on_c, 1, 58, 88
5, 33658, Note_off_c, 1, 58, 0
5, 33660, Note_on_c, 1, 56, 88
5, 33718, Note_off_c, 1, 56, 0
5, 33720, Note_on_c, 1, 54, 88
5, 33778, Note_off_c, 1, 54, 0
5, 33780, Note_on_c, 1, 53, 88
5, 33838, Note_off_c, 1, 53, 0
5, 33840, Note_on_c, 1, 54, 88
5, 33898, Note_off_c, 1, 54, 0
5, 33900, Note_on_c, 1, 58, 88
5, 33958, Note_off_c, 1, 58, 0
5, 33960, Note_on_c, 1, 47, 88
5, 34018, Note_off_c, 1, 47, 0
5, 34020, Note_on_c, 1, 58, 88
5, 34078, Note_off_c, 1, 58, 0
5, 34080, Note_on_c, 1, 54, 88
5, 34138, Note_off_c, 1, 54, 0
5, 34140, Note_on_c, 1, 58, 88
5, 34198, Note_off_c, 1, 58, 0
5, 34200, Note_on_c, 1, 49, 88
5, 34258, Note_off_c, 1, 49, 0
5, 34260, Note_on_c, 1, 58, 88
5, 34318, Note_off_c, 1, 58, 0
5, 34320, Note_on_c, 1, 54, 88
5, 34378, Note_off_c, 1, 54, 0
5, 34380, Note_on_c, 1, 58, 88
5, 34438, Note_off_c, 1, 58, 0
5, 34440, Note_on_c, 1, 51, 88
5, 34498, Note_off_c, 1, 51, 0
5, 34500, Note_on_c, 1, 58, 88
5, 34558, Note_off_c, 1, 58, 0
5, 34560, Note_on_c, 1, 52, 88
5, 34618, Note_off_c, 1, 52, 0
5, 34620, Note_on_c, 1, 56, 88
5, 34678, Note_off_c, 1, 56, 0
5, 34680, Note_on_c, 1, 54, 88
5, 34738, Note_off_c, 1, 54, 0
5, 34740, Note_on_c, 1, 57, 88
5, 34798, Note_off_c, 1, 57, 0
5, 34800, Note_on_c, 1, 56, 88
5, 34858, Note_off_c, 1, 56, 0
5, 34860, Note_on_c, 1, 54, 88
5, 34918, Note_off_c, 1, 54, 0
5, 34920, Note_on_c, 1, 52, 88
5, 34978, Note_off_c, 1, 52, 0
5, 34980, Note_on_c, 1, 51, 88
5, 35038, Note_off_c, 1, 51, 0
5, 35040, Note_on_c, 1, 49, 88
5, 35156, Note_off_c, 1, 49, 0
5, 35160, Note_on_c, 1, 52, 88
5, 35276, Note_off_c, 1, 52, 0
5, 35280, Note_on_c, 1, 58, 88
5, 35578, Note_off_c, 1, 58, 0
5, 35580, Note_on_c, 1, 55, 88
5, 35638, Note_off_c, 1, 55, 0
5, 35640, Note_on_c, 1, 56, 88
5, 35698, Note_off_c, 1, 56, 0
5, 35700, Note_on_c, 1, 53, 88
5, 35758, Note_off_c, 1, 53, 0
5, 35760, Note_on_c, 1, 55, 88
5, 35818, Note_off_c, 1, 55, 0
5, 35820, Note_on_c, 1, 58, 88
5, 35878, Note_off_c, 1, 58, 0
5, 35880, Note_on_c, 1, 51, 88
5, 35938, Note_off_c, 1, 51, 0
5, 35940, Note_on_c, 1, 49, 88
5, 35998, Note_off_c, 1, 49, 0
5, 36000, Note_on_c, 1, 47, 88
5, 36116, Note_off_c, 1, 47, 0
5, 36120, Note_on_c, 1, 51, 88
5, 36236, Note_off_c, 1, 51, 0
5, 36240, Note_on_c, 1, 56, 88
5, 36538, Note_off_c, 1, 56, 0
5, 36540, Note_on_c, 1, 54, 88
5, 36598, Note_off_c, 1, 54, 0
5, 36600, Note_on_c, 1, 52, 88
5, 36658, Note_off_c, 1, 52, 0
5, 36660, Note_on_c, 1, 51, 88
5, 36718, Note_off_c, 1, 51, 0
5, 36720, Note_on_c, 1, 52, 88
5, 36778, Note_off_c, 1, 52, 0
5, 36780, Note_on_c, 1, 56, 88
5, 36838, Note_off_c, 1, 56, 0
5, 36840, Note_on_c, 1, 49, 88
5, 36898, Note_off_c, 1, 49, 0
5, 36900, Note_on_c, 1, 47, 88
5, 36958, Note_off_c, 1, 47, 0
5, 36960, Note_on_c, 1, 46, 88
5, 37018, Note_off_c, 1, 46, 0
5, 37020, Note_on_c, 1, 56, 88
5, 37078, Note_off_c, 1, 56, 0
5, 37080, Note_on_c, 1, 55, 88
5, 37138, Note_off_c, 1, 55, 0
5, 37140, Note_on_c, 1, 53, 88
5, 37198, Note_off_c, 1, 53, 0
5, 37200, Note_on_c, 1, 55, 88
5, 37258, Note_off_c, 1, 55, 0
5, 37260, Note_on_c, 1, 58, 88
5, 37318, Note_off_c, 1, 58, 0
5, 37320, Note_on_c, 1, 51, 88
5, 37378, Note_off_c, 1, 51, 0
5, 37380, Note_on_c, 1, 49, 88
5, 37438, Note_off_c, 1, 49, 0
5, 37440, Note_on_c, 1, 47, 88
5, 37556, Note_off_c, 1, 47, 0
5, 37560, Note_on_c, 1, 52, 88
5, 37676, Note_off_c, 1, 52, 0
5, 37680, Note_on_c, 1, 49, 88
5, 37796, Note_off_c, 1, 49, 0
5, 37800, Note_on_c, 1, 51, 88
5, 37916, Note_off_c, 1, 51, 0
5, 37920, Note_on_c, 1, 44, 88
5, 38036, Note_off_c, 1, 44, 0
5, 38040, Note_on_c, 1, 46, 88
5, 38156, Note_off_c, 1, 46, 0
5, 38160, Note_on_c, 1, 47, 88
5, 38276, Note_off_c, 1, 47, 0
5, 38280, Note_on_c, 1, 46, 88
5, 38396, Note_off_c, 1, 46, 0
5, 38400, Note_on_c, 1, 44, 88
5, 38516, Note_off_c, 1, 44, 0
5, 38520, Note_on_c, 1, 47, 88
5, 38636, Note_off_c, 1, 47, 0
5, 38640, Note_on_c, 1, 53, 88
5, 38756, Note_off_c, 1, 53, 0
5, 38760, Note_on_c, 1, 46, 88
5, 38876, Note_off_c, 1, 46, 0
5, 38880, Note_on_c, 1, 47, 88
5, 38996, Note_off_c, 1, 47, 0
5, 39000, Note_on_c, 1, 56, 88
5, 39116, Note_off_c, 1, 56, 0
5, 39120, Note_on_c, 1, 53, 88
5, 39236, Note_off_c, 1, 53, 0
5, 39240, Note_on_c, 1, 49, 88
5, 39356, Note_off_c, 1, 49, 0
5, 39360, Note_on_c, 1, 42, 88
5, 39476, Note_off_c, 1, 42, 0
5, 39480, Note_on_c, 1, 46, 88
5, 39596, Note_off_c, 1, 46, 0
5, 39600, Note_on_c, 1, 51, 88
5, 39716, Note_off_c, 1, 51, 0
5, 39720, Note_on_c, 1, 44, 88
5, 39836, Note_off_c, 1, 44, 0
5, 39840, Note_on_c, 1, 46, 88
5, 39956, Note_off_c, 1, 46, 0
5, 39960, Note_on_c, 1, 54, 88
5, 40076, Note_off_c, 1, 54, 0
5, 40080, Note_on_c, 1, 51, 88
5, 40196, Note_off_c, 1, 51, 0
5, 40200, Note_on_c, 1, 47, 88
5, 40316, Note_off_c, 1, 47, 0
5, 40320, Note_on_c, 1, 41, 88
5, 40436, Note_off_c, 1, 41, 0
5, 40440, Note_on_c, 1, 44, 88
5, 40556, Note_off_c, 1, 44, 0
5, 40560, Note_on_c, 1, 50, 88
5, 40676, Note_off_c, 1, 50, 0
5, 40680, Note_on_c, 1, 42, 88
5, 40796, Note_off_c, 1, 42, 0
5, 40800, Note_on_c, 1, 44, 88
5, 40916, Note_off_c, 1, 44, 0
5, 40920, Note_on_c, 1, 53, 88
5, 41036, Note_off_c, 1, 53, 0
5, 41040, Note_on_c, 1, 50, 88
5, 41156, Note_off_c, 1, 50, 0
5, 41160, Note_on_c, 1, 46, 88
5, 41276, Note_off_c, 1, 46, 0
5, 41280, Note_on_c, 1, 39, 88
5, 41338, Note_off_c, 1, 39, 0
5, 41340, Note_on_c, 1, 42, 88
5, 41398, Note_off_c, 1, 42, 0
5, 41400, Note_on_c, 1, 41, 88
5, 41458, Note_off_c, 1, 41, 0
5, 41460, Note_on_c, 1, 44, 88
5, 41518, Note_off_c, 1, 44, 0
5, 41520, Note_on_c, 1, 42, 88
5, 41578, Note_off_c, 1, 42, 0
5, 41580, Note_on_c, 1, 46, 88
5, 41638, Note_off_c, 1, 46, 0
5, 41640, Note_on_c, 1, 44, 88
5, 41698, Note_off_c, 1, 44, 0
5, 41700, Note_on_c, 1, 47, 88
5, 41758, Note_off_c, 1, 47, 0
5, 41760, Note_on_c, 1, 46, 88
5, 41818, Note_off_c, 1, 46, 0
5, 41820, Note_on_c, 1, 51, 88
5, 41878, Note_off_c, 1, 51, 0
5, 41880, Note_on_c, 1, 50, 88
5, 41938, Note_off_c, 1, 50, 0
5, 41940, Note_on_c, 1, 48, 88
5, 41998, Note_off_c, 1, 48, 0
5, 42000, Note_on_c, 1, 46, 88
5, 42058, Note_off_c, 1, 46, 0
5, 42060, Note_on_c, 1, 44, 88
5, 42118, Note_off_c, 1, 44, 0
5, 42120, Note_on_c, 1, 42, 88
5, 42178, Note_off_c, 1, 42, 0
5, 42180, Note_on_c, 1, 41, 88
5, 42238, Note_off_c, 1, 41, 0
5, 42240, Note_on_c, 1, 42, 88
5, 42298, Note_off_c, 1, 42, 0
5, 42300, Note_on_c, 1, 46, 88
5, 42358, Note_off_c, 1, 46, 0
5, 42360, Note_on_c, 1, 50, 88
5, 42418, Note_off_c, 1, 50, 0
5, 42420, Note_on_c, 1, 53, 88
5, 42478, Note_off_c, 1, 53, 0
5, 42480, Note_on_c, 1, 46, 88
5, 42538, Note_off_c, 1, 46, 0
5, 42540, Note_on_c, 1, 50, 88
5, 42598, Note_off_c, 1, 50, 0
5, 42600, Note_on_c, 1, 53, 88
5, 42658, Note_off_c, 1, 53, 0
5, 42660, Note_on_c, 1, 56, 88
5, 42718, Note_off_c, 1, 56, 0
5, 42720, Note_on_c, 1, 54, 88
5, 42749, Note_off_c, 1, 54, 0
5, 42750, Note_on_c, 1, 53, 88
5, 42779, Note_off_c, 1, 53, 0
5, 42780, Note_on_c, 1, 51, 88
5, 42838, Note_off_c, 1, 51, 0
5, 42840, Note_on_c, 1, 53, 88
5, 42956, Note_off_c, 1, 53, 0
5, 43080, Note_on_c, 1, 58, 88
5, 43196, Note_off_c, 1, 58, 0
5, 43200, Note_on_c, 1, 51, 88
5, 43316, Note_off_c, 1, 51, 0
5, 43320, Note_on_c, 1, 59, 88
5, 43436, Note_off_c, 1, 59, 0
5, 43440, Note_on_c, 1, 49, 88
5, 43556, Note_off_c, 1, 49, 0
5, 43560, Note_on_c, 1, 58, 88
5, 43676, Note_off_c, 1, 58, 0
5, 43680, Note_on_c, 1, 47, 88
5, 43796, Note_off_c, 1, 47, 0
5, 43800, Note_on_c, 1, 56, 88
5, 43916, Note_off_c, 1, 56, 0
5, 43920, Note_on_c, 1, 46, 88
5, 44036, Note_off_c, 1, 46, 0
5, 44040, Note_on_c, 1, 58, 88
5, 44156, Note_off_c, 1, 58, 0
5, 44160, Note_on_c, 1, 59, 88
5, 44218, Note_off_c, 1, 59, 0
5, 44220, Note_on_c, 1, 56, 88
5, 44278, Note_off_c, 1, 56, 0
5, 44280, Note_on_c, 1, 58, 88
5, 44338, Note_off_c, 1, 58, 0
5, 44340, Note_on_c, 1, 61, 88
5, 44398, Note_off_c, 1, 61, 0
5, 44400, Note_on_c, 1, 59, 88
5, 44458, Note_off_c, 1, 59, 0
5, 44460, Note_on_c, 1, 58, 88
5, 44518, Note_off_c, 1, 58, 0
5, 44520, Note_on_c, 1, 56, 88
5, 44578, Note_off_c, 1, 56, 0
5, 44580, Note_on_c, 1, 59, 88
5, 44638, Note_off_c, 1, 59, 0
5, 44640, Note_on_c, 1, 58, 88
5, 44698, Note_off_c, 1, 58, 0
5, 44700, Note_on_c, 1, 53, 88
5, 44758, Note_off_c, 1, 53, 0
5, 44760, Note_on_c, 1, 54, 88
5, 44818, Note_off_c, 1, 54, 0
5, 44820, Note_on_c, 1, 58, 88
5, 44878, Note_off_c, 1, 58, 0
5, 44880, Note_on_c, 1, 56, 88
5, 44938, Note_off_c, 1, 56, 0
5, 44940, Note_on_c, 1, 54, 88
5, 44998, Note_off_c, 1, 54, 0
5, 45000, Note_on_c, 1, 53, 88
5, 45058, Note_off_c, 1, 53, 0
5, 45060, Note_on_c, 1, 56, 88
5, 45118, Note_off_c, 1, 56, 0
5, 45120, Note_on_c, 1, 54, 88
5, 45178, Note_off_c, 1, 54, 0
5, 45180, Note_on_c, 1, 50, 88
5, 45238, Note_off_c, 1, 50, 0
5, 45240, Note_on_c, 1, 51, 88
5, 45298, Note_off_c, 1, 51, 0
5, 45300, Note_on_c, 1, 54, 88
5, 45358, Note_off_c, 1, 54, 0
5, 45360, Note_on_c, 1, 58, 88
5, 45476, Note_off_c, 1, 58, 0
5, 45480, Note_on_c, 1, 46, 88
5, 45596, Note_off_c, 1, 46, 0
5, 45600, Note_on_c, 1, 61, 88
5, 45658, Note_off_c, 1, 61, 0
5, 45660, Note_on_c, 1, 58, 88
5, 45689, Note_off_c, 1, 58, 0
5, 45690, Note_on_c, 1, 55, 88
5, 45719, Note_off_c, 1, 55, 0
5, 45720, Note_on_c, 1, 51, 88
5, 45895, Note_off_c, 1, 51, 0
5, 45900, Note_on_c, 1, 55, 88
5, 45929, Note_off_c, 1, 55, 0
5, 45930, Note_on_c, 1, 58, 88
5, 45959, Note_off_c, 1, 58, 0
5, 45960, Note_on_c, 1, 59, 88
5, 45989, Note_off_c, 1, 59, 0
5, 45990, Note_on_c, 1, 58, 88
5, 46019, Note_off_c, 1, 58, 0
5, 46020, Note_on_c, 1, 56, 88
5, 46078, Note_off_c, 1, 56, 0
5, 46080, Note_on_c, 1, 55, 88
5, 46138, Note_off_c, 1, 55, 0
5, 46140, Note_on_c, 1, 58, 88
5, 46169, Note_off_c, 1, 58, 0
5, 46170, Note_on_c, 1, 61, 88
5, 46199, Note_off_c, 1, 61, 0
5, 46200, Note_on_c, 1, 64, 88
5, 46375, Note_off_c, 1, 64, 0
5, 46380, Note_on_c, 1, 58, 88
5, 46409, Note_off_c, 1, 58, 0
5, 46410, Note_on_c, 1, 56, 88
5, 46439, Note_off_c, 1, 56, 0
5, 46440, Note_on_c, 1, 58, 88
5, 46469, Note_off_c, 1, 58, 0
5, 46470, Note_on_c, 1, 59, 88
5, 46499, Note_off_c, 1, 59, 0
5, 46500, Note_on_c, 1, 61, 88
5, 46558, Note_off_c, 1, 61, 0
5, 46560, Note_on_c, 1, 53, 88
5, 46618, Note_off_c, 1, 53, 0
5, 46620, Note_on_c, 1, 57, 88
5, 46678, Note_off_c, 1, 57, 0
5, 46680, Note_on_c, 1, 55, 88
5, 46738, Note_off_c, 1, 55, 0
5, 46740, Note_on_c, 1, 58, 88
5, 46798, Note_off_c, 1, 58, 0
5, 46800, Note_on_c, 1, 57, 88
5, 46858, Note_off_c, 1, 57, 0
5, 46860, Note_on_c, 1, 60, 88
5, 46918, Note_off_c, 1, 60, 0
5, 46920, Note_on_c, 1, 58, 88
5, 46978, Note_off_c, 1, 58, 0
5, 46980, Note_on_c, 1, 61, 88
5, 47038, Note_off_c, 1, 61, 0
5, 47040, Note_on_c, 1, 60, 88
5, 47098, Note_off_c, 1, 60, 0
5, 47100, Note_on_c, 1, 63, 88
5, 47158, Note_off_c, 1, 63, 0
5, 47160, Note_on_c, 1, 61, 88
5, 47218, Note_off_c, 1, 61, 0
5, 47220, Note_on_c, 1, 60, 88
5, 47278, Note_off_c, 1, 60, 0
5, 47280, Note_on_c, 1, 58, 88
5, 47338, Note_off_c, 1, 58, 0
5, 47340, Note_on_c, 1, 57, 88
5, 47398, Note_off_c, 1, 57, 0
5, 47400, Note_on_c, 1, 55, 88
5, 47458, Note_off_c, 1, 55, 0
5, 47460, Note_on_c, 1, 53, 88
5, 47518, Note_off_c, 1, 53, 0
5, 47520, Note_on_c, 1, 56, 88
5, 47578, Note_off_c, 1, 56, 0
5, 47580, Note_on_c, 1, 53, 88
5, 47609, Note_off_c, 1, 53, 0
5, 47610, Note_on_c, 1, 50, 88
5, 47639, Note_off_c, 1, 50, 0
5, 47640, Note_on_c, 1, 46, 88
5, 47815, Note_off_c, 1, 46, 0
5, 47820, Note_on_c, 1, 50, 88
5, 47849, Note_off_c, 1, 50, 0
5, 47850, Note_on_c, 1, 53, 88
5, 47879, Note_off_c, 1, 53, 0
5, 47880, Note_on_c, 1, 58, 88
5, 48058, Note_off_c, 1, 58, 0
5, 48060, Note_on_c, 1, 56, 88
5, 48089, Note_off_c, 1, 56, 0
5, 48090, Note_on_c, 1, 53, 88
5, 48119, Note_off_c, 1, 53, 0
5, 48120, Note_on_c, 1, 50, 88
5, 48178, Note_off_c, 1, 50, 0
5, 48180, Note_on_c, 1, 59, 88
5, 48238, Note_off_c, 1, 59, 0
5, 48240, Note_on_c, 1, 58, 88
5, 48298, Note_off_c, 1, 58, 0
5, 48300, Note_on_c, 1, 56, 88
5, 48329, Note_off_c, 1, 56, 0
5, 48330, Note_on_c, 1, 54, 88
5, 48359, Note_off_c, 1, 54, 0
5, 48360, Note_on_c, 1, 53, 88
5, 48389, Note_off_c, 1, 53, 0
5, 48390, Note_on_c, 1, 54, 88
5, 48419, Note_off_c, 1, 54, 0
5, 48420, Note_on_c, 1, 56, 88
5, 48478, Note_off_c, 1, 56, 0
5, 48480, Note_on_c, 1, 54, 88
5, 48596, Note_off_c, 1, 54, 0
5, 48600, Note_on_c, 1, 47, 88
5, 48716, Note_off_c, 1, 47, 0
5, 48720, Note_on_c, 1, 46, 88
5, 48836, Note_off_c, 1, 46, 0
5, 48840, Note_on_c, 1, 44, 88
5, 48956, Note_off_c, 1, 44, 0
5, 48960, Note_on_c, 1, 42, 88
5, 49076, Note_off_c, 1, 42, 0
5, 49080, Note_on_c, 1, 54, 88
5, 49138, Note_off_c, 1, 54, 0
5, 49140, Note_on_c, 1, 56, 88
5, 49198, Note_off_c, 1, 56, 0
5, 49200, Note_on_c, 1, 58, 88
5, 49316, Note_off_c, 1, 58, 0
5, 49320, Note_on_c, 1, 46, 88
5, 49436, Note_off_c, 1, 46, 0
5, 49440, Note_on_c, 1, 39, 88
5, 49910, Note_off_c, 1, 39, 0
5, 49920, Note_on_c, 1, 46, 88
5, 49978, Note_off_c, 1, 46, 0
5, 49980, Note_on_c, 1, 50, 88
5, 50038, Note_off_c, 1, 50, 0
5, 50040, Note_on_c, 1, 48, 88
5, 50098, Note_off_c, 1, 48, 0
5, 50100, Note_on_c, 1, 51, 88
5, 50158, Note_off_c, 1, 51, 0
5, 50160, Note_on_c, 1, 50, 88
5, 50218, Note_off_c, 1, 50, 0
5, 50220, Note_on_c, 1, 53, 88
5, 50278, Note_off_c, 1, 53, 0
5, 50280, Note_on_c, 1, 51, 88
5, 50338, Note_off_c, 1, 51, 0
5, 50340, Note_on_c, 1, 54, 88
5, 50398, Note_off_c, 1, 54, 0
5, 50400, Note_on_c, 1, 53, 88
5, 50458, Note_off_c, 1, 53, 0
5, 50460, Note_on_c, 1, 56, 88
5, 50518, Note_off_c, 1, 56, 0
5, 50520, Note_on_c, 1, 54, 88
5, 50578, Note_off_c, 1, 54, 0
5, 50580, Note_on_c, 1, 53, 88
5, 50638, Note_off_c, 1, 53, 0
5, 50640, Note_on_c, 1, 51, 88
5, 50698, Note_off_c, 1, 51, 0
5, 50700, Note_on_c, 1, 50, 88
5, 50758, Note_off_c, 1, 50, 0
5, 50760, Note_on_c, 1, 48, 88
5, 50818, Note_off_c, 1, 48, 0
5, 50820, Note_on_c, 1, 46, 88
5, 50878, Note_off_c, 1, 46, 0
5, 50880, Note_on_c, 1, 51, 88
5, 50996, Note_off_c, 1, 51, 0
5, 51000, Note_on_c, 1, 54, 88
5, 51116, Note_off_c, 1, 54, 0
5, 51120, Note_on_c, 1, 60, 88
5, 51236, Note_off_c, 1, 60, 0
5, 51240, Note_on_c, 1, 53, 88
5, 51356, Note_off_c, 1, 53, 0
5, 51360, Note_on_c, 1, 54, 88
5, 51476, Note_off_c, 1, 54, 0
5, 51480, Note_on_c, 1, 63, 88
5, 51596, Note_off_c, 1, 63, 0
5, 51600, Note_on_c, 1, 60, 88
5, 51716, Note_off_c, 1, 60, 0
5, 51720, Note_on_c, 1, 56, 88
5, 51836, Note_off_c, 1, 56, 0
5, 51840, Note_on_c, 1, 59, 88
5, 51898, Note_off_c, 1, 59, 0
5, 51900, Note_on_c, 1, 56, 88
5, 51929, Note_off_c, 1, 56, 0
5, 51930, Note_on_c, 1, 53, 88
5, 51959, Note_off_c, 1, 53, 0
5, 51960, Note_on_c, 1, 49, 88
5, 52135, Note_off_c, 1, 49, 0
5, 52140, Note_on_c, 1, 53, 88
5, 52169, Note_off_c, 1, 53, 0
5, 52170, Note_on_c, 1, 56, 88
5, 52199, Note_off_c, 1, 56, 0
5, 52200, Note_on_c, 1, 58, 88
5, 52229, Note_off_c, 1, 58, 0
5, 52230, Note_on_c, 1, 56, 88
5, 52259, Note_off_c, 1, 56, 0
5, 52260, Note_on_c, 1, 54, 88
5, 52318, Note_off_c, 1, 54, 0
5, 52320, Note_on_c, 1, 53, 88
5, 52378, Note_off_c, 1, 53, 0
5, 52380, Note_on_c, 1, 56, 88
5, 52409, Note_off_c, 1, 56, 0
5, 52410, Note_on_c, 1, 59, 88
5, 52439, Note_off_c, 1, 59, 0
5, 52440, Note_on_c, 1, 63, 88
5, 52615, Note_off_c, 1, 63, 0
5, 52620, Note_on_c, 1, 56, 88
5, 52649, Note_off_c, 1, 56, 0
5, 52650, Note_on_c, 1, 54, 88
5, 52679, Note_off_c, 1, 54, 0
5, 52680, Note_on_c, 1, 56, 88
5, 52709, Note_off_c, 1, 56, 0
5, 52710, Note_on_c, 1, 58, 88
5, 52739, Note_off_c, 1, 58, 0
5, 52740, Note_on_c, 1, 59, 88
5, 52798, Note_off_c, 1, 59, 0
5, 52800, Note_on_c, 1, 58, 88
5, 52858, Note_off_c, 1, 58, 0
5, 52860, Note_on_c, 1, 56, 88
5, 52918, Note_off_c, 1, 56, 0
5, 52920, Note_on_c, 1, 54, 88
5, 52978, Note_off_c, 1, 54, 0
5, 52980, Note_on_c, 1, 53, 88
5, 53038, Note_off_c, 1, 53, 0
5, 53040, Note_on_c, 1, 54, 88
5, 53098, Note_off_c, 1, 54, 0
5, 53100, Note_on_c, 1, 58, 88
5, 53158, Note_off_c, 1, 58, 0
5, 53160, Note_on_c, 1, 47, 88
5, 53218, Note_off_c, 1, 47, 0
5, 53220, Note_on_c, 1, 58, 88
5, 53278, Note_off_c, 1, 58, 0
5, 53280, Note_on_c, 1, 54, 88
5, 53338, Note_off_c, 1, 54, 0
5, 53340, Note_on_c, 1, 58, 88
5, 53398, Note_off_c, 1, 58, 0
5, 53400, Note_on_c, 1, 49, 88
5, 53458, Note_off_c, 1, 49, 0
5, 53460, Note_on_c, 1, 58, 88
5, 53518, Note_off_c, 1, 58, 0
5, 53520, Note_on_c, 1, 54, 88
5, 53578, Note_off_c, 1, 54, 0
5, 53580, Note_on_c, 1, 58, 88
5, 53638, Note_off_c, 1, 58, 0
5, 53640, Note_on_c, 1, 51, 88
5, 53698, Note_off_c, 1, 51, 0
5, 53700, Note_on_c, 1, 58, 88
5, 53758, Note_off_c, 1, 58, 0
5, 53760, Note_on_c, 1, 52, 88
5, 53818, Note_off_c, 1, 52, 0
5, 53820, Note_on_c, 1, 56, 88
5, 53878, Note_off_c, 1, 56, 0
5, 53880, Note_on_c, 1, 54, 88
5, 53938, Note_off_c, 1, 54, 0
5, 53940, Note_on_c, 1, 57, 88
5, 53998, Note_off_c, 1, 57, 0
5, 54000, Note_on_c, 1, 56, 88
5, 54058, Note_off_c, 1, 56, 0
5, 54060, Note_on_c, 1, 54, 88
5, 54118, Note_off_c, 1, 54, 0
5, 54120, Note_on_c, 1, 52, 88
5, 54178, Note_off_c, 1, 52, 0
5, 54180, Note_on_c, 1, 51, 88
5, 54238, Note_off_c, 1, 51, 0
5, 54240, Note_on_c, 1, 49, 88
5, 54356, Note_off_c, 1, 49, 0
5, 54360, Note_on_c, 1, 52, 88
5, 54476, Note_off_c, 1, 52, 0
5, 54480, Note_on_c, 1, 58, 88
5, 54778, Note_off_c, 1, 58, 0
5, 54780, Note_on_c, 1, 55, 88
5, 54838, Note_off_c, 1, 55, 0
5, 54840, Note_on_c, 1, 56, 88
5, 54898, Note_off_c, 1, 56, 0
5, 54900, Note_on_c, 1, 53, 88
5, 54958, Note_off_c, 1, 53, 0
5, 54960, Note_on_c, 1, 55, 88
5, 55018, Note_off_c, 1, 55, 0
5, 55020, Note_on_c, 1, 58, 88
5, 55078, Note_off_c, 1, 58, 0
5, 55080, Note_on_c, 1, 51, 88
5, 55138, Note_off_c, 1, 51, 0
5, 55140, Note_on_c, 1, 49, 88
5, 55198, Note_off_c, 1, 49, 0
5, 55200, Note_on_c, 1, 47, 88
5, 55316, Note_off_c, 1, 47, 0
5, 55320, Note_on_c, 1, 51, 88
5, 55436, Note_off_c, 1, 51, 0
5, 55440, Note_on_c, 1, 56, 88
5, 55738, Note_off_c, 1, 56, 0
5, 55740, Note_on_c, 1, 54, 88
5, 55798, Note_off_c, 1, 54, 0
5, 55800, Note_on_c, 1, 52, 88
5, 55858, Note_off_c, 1, 52, 0
5, 55860, Note_on_c, 1, 51, 88
5, 55918, Note_off_c, 1, 51, 0
5, 55920, Note_on_c, 1, 52, 88
5, 55978, Note_off_c, 1, 52, 0
5, 55980, Note_on_c, 1, 56, 88
5, 56038, Note_off_c, 1, 56, 0
5, 56040, Note_on_c, 1, 49, 88
5, 56098, Note_off_c, 1, 49, 0
5, 56100, Note_on_c, 1, 47, 88
5, 56158, Note_off_c, 1, 47, 0
5, 56160, Note_on_c, 1, 46, 88
5, 56218, Note_off_c, 1, 46, 0
5, 56220, Note_on_c, 1, 56, 88
5, 56278, Note_off_c, 1, 56, 0
5, 56280, Note_on_c, 1, 55, 88
5, 56338, Note_off_c, 1, 55, 0
5, 56340, Note_on_c, 1, 53, 88
5, 56398, Note_off_c, 1, 53, 0
5, 56400, Note_on_c, 1, 55, 88
5, 56458, Note_off_c, 1, 55, 0
5, 56460, Note_on_c, 1, 58, 88
5, 56518, Note_off_c, 1, 58, 0
5, 56520, Note_on_c, 1, 51, 88
5, 56578, Note_off_c, 1, 51, 0
5, 56580, Note_on_c, 1, 49, 88
5, 56638, Note_off_c, 1, 49, 0
5, 56640, Note_on_c, 1, 47, 88
5, 56756, Note_off_c, 1, 47, 0
5, 56760, Note_on_c, 1, 52, 88
5, 56876, Note_off_c, 1, 52, 0
5, 56880, Note_on_c, 1, 49, 88
5, 56996, Note_off_c, 1, 49, 0
5, 57000, Note_on_c, 1, 51, 88
5, 57116, Note_off_c, 1, 51, 0
5, 57120, Note_on_c, 1, 44, 88
5, 57236, Note_off_c, 1, 44, 0
5, 57240, Note_on_c, 1, 46, 88
5, 57356, Note_off_c, 1, 46, 0
5, 57360, Note_on_c, 1, 47, 88
5, 57476, Note_off_c, 1, 47, 0
5, 57480, Note_on_c, 1, 46, 88
5, 57596, Note_off_c, 1, 46, 0
5, 57600, Note_on_c, 1, 44, 88
5, 57716, Note_off_c, 1, 44, 0
5, 57720, Note_on_c, 1, 47, 88
5, 57836, Note_off_c, 1, 47, 0
5, 57840, Note_on_c, 1, 53, 88
5, 57956, Note_off_c, 1, 53, 0
5, 57960, Note_on_c, 1, 46, 88
5, 58076, Note_off_c, 1, 46, 0
5, 58080, Note_on_c, 1, 47, 88
5, 58196, Note_off_c, 1, 47, 0
5, 58200, Note_on_c, 1, 56, 88
5, 58316, Note_off_c, 1, 56, 0
5, 58320, Note_on_c, 1, 53, 88
5, 58436, Note_off_c, 1, 53, 0
5, 58440, Note_on_c, 1, 49, 88
5, 58556, Note_off_c, 1, 49, 0
5, 58560, Note_on_c, 1, 42, 88
5, 58676, Note_off_c, 1, 42, 0
5, 58680, Note_on_c, 1, 46, 88
5, 58796, Note_off_c, 1, 46, 0
5, 58800, Note_on_c, 1, 51, 88
5, 58916, Note_off_c, 1, 51, 0
5, 58920, Note_on_c, 1, 44, 88
5, 59036, Note_off_c, 1, 44, 0
5, 59040, Note_on_c, 1, 46, 88
5, 59156, Note_off_c, 1, 46, 0
5, 59160, Note_on_c, 1, 54, 88
5, 59276, Note_off_c, 1, 54, 0
5, 59280, Note_on_c, 1, 51, 88
5, 59396, Note_off_c, 1, 51, 0
5, 59400, Note_on_c, 1, 47, 88
5, 59516, Note_off_c, 1, 47, 0
5, 59520, Note_on_c, 1, 41, 88
5, 59636, Note_off_c, 1, 41, 0
5, 59640, Note_on_c, 1, 44, 88
5, 59756, Note_off_c, 1, 44, 0
5, 59760, Note_on_c, 1, 50, 88
5, 59876, Note_off_c, 1, 50, 0
5, 59880, Note_on_c, 1, 42, 88
5, 59996, Note_off_c, 1, 42, 0
5, 60000, Note_on_c, 1, 44, 88
5, 60116, Note_off_c, 1, 44, 0
5, 60120, Note_on_c, 1, 53, 88
5, 60236, Note_off_c, 1, 53, 0
5, 60240, Note_on_c, 1, 50, 88
5, 60356, Note_off_c, 1, 50, 0
5, 60360, Note_on_c, 1, 46, 88
5, 60476, Note_off_c, 1, 46, 0
5, 60480, Note_on_c, 1, 39, 88
5, 60538, Note_off_c, 1, 39, 0
5, 60540, Note_on_c, 1, 42, 88
5, 60598, Note_off_c, 1, 42, 0
5, 60600, Note_on_c, 1, 41, 88
5, 60658, Note_off_c, 1, 41, 0
5, 60660, Note_on_c, 1, 44, 88
5, 60718, Note_off_c, 1, 44, 0
5, 60720, Note_on_c, 1, 42, 88
5, 60778, Note_off_c, 1, 42, 0
5, 60780, Note_on_c, 1, 46, 88
5, 60838, Note_off_c, 1, 46, 0
5, 60840, Note_on_c, 1, 44, 88
5, 60898, Note_off_c, 1, 44, 0
5, 60900, Note_on_c, 1, 47, 88
5, 60958, Note_off_c, 1, 47, 0
5, 60960, Note_on_c, 1, 46, 88
5, 61018, Note_off_c, 1, 46, 0
5, 61020, Note_on_c, 1, 51, 88
5, 61078, Note_off_c, 1, 51, 0
5, 61080, Note_on_c, 1, 50, 88
5, 61138, Note_off_c, 1, 50, 0
5, 61140, Note_on_c, 1, 48, 88
5, 61198, Note_off_c, 1, 48, 0
5, 61200, Note_on_c, 1, 46, 88
5, 61258, Note_off_c, 1, 46, 0
5, 61260, Note_on_c, 1, 44, 88
5, 61318, Note_off_c, 1, 44, 0
5, 61320, Note_on_c, 1, 42, 88
5, 61378, Note_off_c, 1, 42, 0
5, 61380, Note_on_c, 1, 41, 88
5, 61438, Note_off_c, 1, 41, 0
5, 61440, Note_on_c, 1, 42, 88
5, 61498, Note_off_c, 1, 42, 0
5, 61500, Note_on_c, 1, 46, 88
5, 61558, Note_off_c, 1, 46, 0
5, 61560, Note_on_c, 1, 50, 88
5, 61618, Note_off_c, 1, 50, 0
5, 61620, Note_on_c, 1, 53, 88
5, 61678, Note_off_c, 1, 53, 0
5, 61680, Note_on_c, 1, 46, 88
5, 61738, Note_off_c, 1, 46, 0
5, 61740, Note_on_c, 1, 50, 88
5, 61798, Note_off_c, 1, 50, 0
5, 61800, Note_on_c, 1, 53, 88
5, 61858, Note_off_c, 1, 53, 0
5, 61860, Note_on_c, 1, 56, 88
5, 61918, Note_off_c, 1, 56, 0
5, 61920, Note_on_c, 1, 54, 88
5, 61949, Note_off_c, 1, 54, 0
5, 61950, Note_on_c, 1, 53, 88
5, 61979, Note_off_c, 1, 53, 0
5, 61980, Note_on_c, 1, 51, 88
5, 62038, Note_off_c, 1, 51, 0
5, 62040, Note_on_c, 1, 53, 88
5, 62156, Note_off_c, 1, 53, 0
5, 62280, Note_on_c, 1, 58, 88
5, 62396, Note_off_c, 1, 58, 0
5, 62400, Note_on_c, 1, 51, 88
5, 62516, Note_off_c, 1, 51, 0
5, 62520, Note_on_c, 1, 59, 88
5, 62636, Note_off_c, 1, 59, 0
5, 62640, Note_on_c, 1, 49, 88
5, 62756, Note_off_c, 1, 49, 0
5, 62760, Note_on_c, 1, 58, 88
5, 62876, Note_off_c, 1, 58, 0
5, 62880, Note_on_c, 1, 47, 88
5, 62996, Note_off_c, 1, 47, 0
5, 63000, Note_on_c, 1, 56, 88
5, 63116, Note_off_c, 1, 56, 0
5, 63120, Note_on_c, 1, 46, 88
5, 63236, Note_off_c, 1, 46, 0
5, 63240, Note_on_c, 1, 58, 88
5, 63356, Note_off_c, 1, 58, 0
5, 63360, Note_on_c, 1, 59, 88
5, 63418, Note_off_c, 1, 59, 0
5, 63420, Note_on_c, 1, 56, 88
5, 63478, Note_off_c, 1, 56, 0
5, 63480, Note_on_c, 1, 58, 88
5, 63538, Note_off_c, 1, 58, 0
5, 63540, Note_on_c, 1, 61, 88
5, 63598, Note_off_c, 1, 61, 0
5, 63600, Note_on_c, 1, 59, 88
5, 63658, Note_off_c, 1, 59, 0
5, 63660, Note_on_c, 1, 58, 88
5, 63718, Note_off_c, 1, 58, 0
5, 63720, Note_on_c, 1, 56, 88
5, 63778, Note_off_c, 1, 56, 0
5, 63780, Note_on_c, 1, 59, 88
5, 63838, Note_off_c, 1, 59, 0
5, 63840, Note_on_c, 1, 58, 88
5, 63898, Note_off_c, 1, 58, 0
5, 63900, Note_on_c, 1, 53, 88
5, 63958, Note_off_c, 1, 53, 0
5, 63960, Note_on_c, 1, 54, 88
5, 64018, Note_off_c, 1, 54, 0
5, 64020, Note_on_c, 1, 58, 88
5, 64078, Note_off_c, 1, 58, 0
5, 64080, Note_on_c, 1, 56, 88
5, 64138, Note_off_c, 1, 56, 0
5, 64140, Note_on_c, 1, 54, 88
5, 64198, Note_off_c, 1, 54, 0
5, 64200, Note_on_c, 1, 53, 88
5, 64258, Note_off_c, 1, 53, 0
5, 64260, Note_on_c, 1, 56, 88
5, 64318, Note_off_c, 1, 56, 0
5, 64320, Note_on_c, 1, 54, 88
5, 64378, Note_off_c, 1, 54, 0
5, 64380, Note_on_c, 1, 50, 88
5, 64438, Note_off_c, 1, 50, 0
5, 64440, Note_on_c, 1, 51, 88
5, 64498, Note_off_c, 1, 51, 0
5, 64500, Note_on_c, 1, 54, 88
5, 64558, Note_off_c, 1, 54, 0
5, 64560, Note_on_c, 1, 58, 88
5, 64676, Note_off_c, 1, 58, 0
5, 64680, Note_on_c, 1, 46, 88
5, 64796, Note_off_c, 1, 46, 0
5, 64800, Note_on_c, 1, 61, 88
5, 64858, Note_off_c, 1, 61, 0
5, 64860, Note_on_c, 1, 58, 88
5, 64889, Note_off_c, 1, 58, 0
5, 64890, Note_on_c, 1, 55, 88
5, 64919, Note_off_c, 1, 55, 0
5, 64920, Note_on_c, 1, 51, 88
5, 65095, Note_off_c, 1, 51, 0
5, 65100, Note_on_c, 1, 55, 88
5, 65129, Note_off_c, 1, 55, 0
5, 65130, Note_on_c, 1, 58, 88
5, 65159, Note_off_c, 1, 58, 0
5, 65160, Note_on_c, 1, 59, 88
5, 65189, Note_off_c, 1, 59, 0
5, 65190, Note_on_c, 1, 58, 88
5, 65219, Note_off_c, 1, 58, 0
5, 65220, Note_on_c, 1, 56, 88
5, 65278, Note_off_c, 1, 56, 0
5, 65280, Note_on_c, 1, 55, 88
5, 65338, Note_off_c, 1, 55, 0
5, 65340, Note_on_c, 1, 58, 88
5, 65369, Note_off_c, 1, 58, 0
5, 65370, Note_on_c, 1, 61, 88
5, 65399, Note_off_c, 1, 61, 0
5, 65400, Note_on_c, 1, 64, 88
5, 65575, Note_off_c, 1, 64, 0
5, 65580, Note_on_c, 1, 58, 88
5, 65609, Note_off_c, 1, 58, 0
5, 65610, Note_on_c, 1, 56, 88
5, 65639, Note_off_c, 1, 56, 0
5, 65640, Note_on_c, 1, 58, 88
5, 65669, Note_off_c, 1, 58, 0
5, 65670, Note_on_c, 1, 59, 88
5, 65699, Note_off_c, 1, 59, 0
5, 65700, Note_on_c, 1, 61, 88
5, 65758, Note_off_c, 1, 61, 0
5, 65760, Note_on_c, 1, 53, 88
5, 65818, Note_off_c, 1, 53, 0
5, 65820, Note_on_c, 1, 57, 88
5, 65878, Note_off_c, 1, 57, 0
5, 65880, Note_on_c, 1, 55, 88
5, 65938, Note_off_c, 1, 55, 0
5, 65940, Note_on_c, 1, 58, 88
5, 65998, Note_off_c, 1, 58, 0
5, 66000, Note_on_c, 1, 57, 88
5, 66058, Note_off_c, 1, 57, 0
5, 66060, Note_on_c, 1, 60, 88
5, 66118, Note_off_c, 1, 60, 0
5, 66120, Note_on_c, 1, 58, 88
5, 66178, Note_off_c, 1, 58, 0
5, 66180, Note_on_c, 1, 61, 88
5, 66238, Note_off_c, 1, 61, 0
5, 66240, Note_on_c, 1, 60, 88
5, 66298, Note_off_c, 1, 60, 0
5, 66300, Note_on_c, 1, 63, 88
5, 66358, Note_off_c, 1, 63, 0
5, 66360, Note_on_c, 1, 61, 88
5, 66418, Note_off_c, 1, 61, 0
5, 66420, Note_on_c, 1, 60, 88
5, 66478, Note_off_c, 1, 60, 0
5, 66480, Note_on_c, 1, 58, 88
5, 66538, Note_off_c, 1, 58, 0
5, 66540, Note_on_c, 1, 57, 88
5, 66598, Note_off_c, 1, 57, 0
5, 66600, Note_on_c, 1, 55, 88
5, 66658, Note_off_c, 1, 55, 0
5, 66660, Note_on_c, 1, 53, 88
5, 66718, Note_off_c, 1, 53, 0
5, 66720, Note_on_c, 1, 56, 88
5, 66778, Note_off_c, 1, 56, 0
5, 66780, Note_on_c, 1, 53, 88
5, 66809, Note_off_c, 1, 53, 0
5, 66810, Note_on_c, 1, 50, 88
5, 66839, Note_off_c, 1, 50, 0
5, 66840, Note_on_c, 1, 46, 88
5, 67015, Note_off_c, 1, 46, 0
5, 67020, Note_on_c, 1, 50, 88
5, 67049, Note_off_c, 1, 50, 0
5, 67050, Note_on_c, 1, 53, 88
5, 67079, Note_off_c, 1, 53, 0
5, 67080, Note_on_c, 1, 58, 88
5, 67258, Note_off_c, 1, 58, 0
5, 67260, Note_on_c, 1, 56, 88
5, 67289, Note_off_c, 1, 56, 0
5, 67290, Note_on_c, 1, 53, 88
5, 67319, Note_off_c, 1, 53, 0
5, 67320, Note_on_c, 1, 50, 88
5, 67378, Note_off_c, 1, 50, 0
5, 67380, Note_on_c, 1, 59, 88
5, 67438, Note_off_c, 1, 59, 0
5, 67440, Note_on_c, 1, 58, 88
5, 67498, Note_off_c, 1, 58, 0
5, 67500, Note_on_c, 1, 56, 88
5, 67529, Note_off_c, 1, 56, 0
5, 67530, Note_on_c, 1, 54, 88
5, 67559, Note_off_c, 1, 54, 0
5, 67560, Note_on_c, 1, 53, 88
5, 67589, Note_off_c, 1, 53, 0
5, 67590, Note_on_c, 1, 54, 88
5, 67619, Note_off_c, 1, 54, 0
5, 67620, Note_on_c, 1, 56, 88
5, 67678, Note_off_c, 1, 56, 0
5, 67680, Note_on_c, 1, 54, 88
5, 67796, Note_off_c, 1, 54, 0
5, 67800, Note_on_c, 1, 47, 88
5, 67916, Note_off_c, 1, 47, 0
5, 67920, Note_on_c, 1, 46, 88
5, 68036, Note_off_c, 1, 46, 0
5, 68040, Note_on_c, 1, 44, 88
5, 68156, Note_off_c, 1, 44, 0
5, 68160, Note_on_c, 1, 42, 88
5, 68276, Note_off_c, 1, 42, 0
5, 68280, Note_on_c, 1, 54, 88
5, 68338, Note_off_c, 1, 54, 0
5, 68340, Note_on_c, 1, 56, 88
5, 68398, Note_off_c, 1, 56, 0
5, 68400, Note_on_c, 1, 58, 88
5, 68516, Note_off_c, 1, 58, 0
5, 68520, Note_on_c, 1, 46, 88
5, 68636, Note_off_c, 1, 46, 0
5, 68640, Note_on_c, 1, 39, 88
5, 69110, Note_off_c, 1, 39, 0
5, 69110, End_track
0, 0, End_of_file
