0, 0, Header, 1, 8, 240
1, 0, Start_track
1, 0, Time_signature, 3, 2, 24, 8
1, 0, Tempo, 937500
1, 0, SMPTE_offset, 64, 0, 0, 0, 103
1, 17280, Time_signature, 3, 2, 24, 8
1, 17280, End_track
2, 0, Start_track
2, 0, Title_t, "(C) & (P) 1993"
2, 127, End_track
3, 0, Start_track
3, 0, Title_t, "CCARH,Stanford"
3, 0, End_track
4, 0, Start_track
4, 0, Title_t, "Track 1"
4, 0, Program_c, 0, 6
4, 120, Note_on_c, 0, 71, 88
4, 236, Note_off_c, 0, 71, 0
4, 240, Note_on_c, 0, 73, 88
4, 529, Note_off_c, 0, 73, 0
4, 540, Note_on_c, 0, 73, 88
4, 598, Note_off_c, 0, 73, 0
4, 600, Note_on_c, 0, 71, 88
4, 658, Note_off_c, 0, 71, 0
4, 660, Note_on_c, 0, 69, 88
4, 718, Note_off_c, 0, 69, 0
4, 720, Note_on_c, 0, 71, 88
4, 1009, Note_off_c, 0, 71, 0
4, 1020, Note_on_c, 0, 71, 88
4, 1078, Note_off_c, 0, 71, 0
4, 1080, Note_on_c, 0, 76, 88
4, 1138, Note_off_c, 0, 76, 0
4, 1140, Note_on_c, 0, 75, 88
4, 1198, Note_off_c, 0, 75, 0
4, 1200, Note_on_c, 0, 73, 88
4, 1258, Note_off_c, 0, 73, 0
4, 1260, Note_on_c, 0, 71, 88
4, 1318, Note_off_c, 0, 71, 0
4, 1320, Note_on_c, 0, 69, 88
4, 1378, Note_off_c, 0, 69, 0
4, 1380, Note_on_c, 0, 68, 88
4, 1438, Note_off_c, 0, 68, 0
4, 1440, Note_on_c, 0, 69, 88
4, 2209, Note_off_c, 0, 69, 0
4, 2220, Note_on_c, 0, 69, 88
4, 2278, Note_off_c, 0, 69, 0
4, 2280, Note_on_c, 0, 68, 88
4, 2338, Note_off_c, 0, 68, 0
4, 2340, Note_on_c, 0, 66, 88
4, 2398, Note_off_c, 0, 66, 0
4, 2400, Note_on_c, 0, 68, 88
4, 2689, Note_off_c, 0, 68, 0
4, 2700, Note_on_c, 0, 68, 88
4, 2758, Note_off_c, 0, 68, 0
4, 2760, Note_on_c, 0, 66, 88
4, 2818, Note_off_c, 0, 66, 0
4, 2820, Note_on_c, 0, 64, 88
4, 2878, Note_off_c, 0, 64, 0
4, 2880, Note_on_c, 0, 63, 88
4, 2996, Note_off_c, 0, 63, 0
4, 3240, Note_on_c, 0, 75, 88
4, 3356, Note_off_c, 0, 75, 0
4, 3360, Note_on_c, 0, 76, 88
4, 3649, Note_off_c, 0, 76, 0
4, 3660, Note_on_c, 0, 76, 88
4, 3718, Note_off_c, 0, 76, 0
4, 3720, Note_on_c, 0, 75, 88
4, 3778, Note_off_c, 0, 75, 0
4, 3780, Note_on_c, 0, 73, 88
4, 3838, Note_off_c, 0, 73, 0
4, 3840, Note_on_c, 0, 75, 88
4, 3956, Note_off_c, 0, 75, 0
4, 4380, Note_on_c, 0, 75, 88
4, 4438, Note_off_c, 0, 75, 0
4, 4440, Note_on_c, 0, 73, 88
4, 4498, Note_off_c, 0, 73, 0
4, 4500, Note_on_c, 0, 71, 88
4, 4558, Note_off_c, 0, 71, 0
4, 4560, Note_on_c, 0, 73, 88
4, 5329, Note_off_c, 0, 73, 0
4, 5340, Note_on_c, 0, 73, 88
4, 5398, Note_off_c, 0, 73, 0
4, 5400, Note_on_c, 0, 71, 88
4, 5458, Note_off_c, 0, 71, 0
4, 5460, Note_on_c, 0, 70, 88
4, 5518, Note_off_c, 0, 70, 0
4, 5520, Note_on_c, 0, 71, 88
4, 5818, Note_off_c, 0, 71, 0
4, 5820, Note_on_c, 0, 69, 88
4, 5878, Note_off_c, 0, 69, 0
4, 5880, Note_on_c, 0, 68, 88
4, 5938, Note_off_c, 0, 68, 0
4, 5940, Note_on_c, 0, 66, 88
4, 5998, Note_off_c, 0, 66, 0
4, 6000, Note_on_c, 0, 65, 88
4, 6058, Note_off_c, 0, 65, 0
4, 6060, Note_on_c, 0, 68, 88
4, 6118, Note_off_c, 0, 68, 0
4, 6120, Note_on_c, 0, 71, 88
4, 6178, Note_off_c, 0, 71, 0
4, 6180, Note_on_c, 0, 74, 88
4, 6289, Note_off_c, 0, 74, 0
4, 6300, Note_on_c, 0, 74, 88
4, 6358, Note_off_c, 0, 74, 0
4, 6360, Note_on_c, 0, 73, 88
4, 6418, Note_off_c, 0, 73, 0
4, 6420, Note_on_c, 0, 71, 88
4, 6538, Note_off_c, 0, 71, 0
4, 6540, Note_on_c, 0, 69, 88
4, 6598, Note_off_c, 0, 69, 0
4, 6600, Note_on_c, 0, 68, 88
4, 6658, Note_off_c, 0, 68, 0
4, 6660, Note_on_c, 0, 71, 88
4, 6718, Note_off_c, 0, 71, 0
4, 6720, Note_on_c, 0, 69, 88
4, 6778, Note_off_c, 0, 69, 0
4, 6780, Note_on_c, 0, 73, 88
4, 6838, Note_off_c, 0, 73, 0
4, 6840, Note_on_c, 0, 78, 88
4, 6898, Note_off_c, 0, 78, 0
4, 6900, Note_on_c, 0, 81, 88
4, 7016, Note_off_c, 0, 81, 0
4, 7020, Note_on_c, 0, 78, 88
4, 7078, Note_off_c, 0, 78, 0
4, 7080, Note_on_c, 0, 80, 88
4, 7138, Note_off_c, 0, 80, 0
4, 7140, Note_on_c, 0, 81, 88
4, 7198, Note_off_c, 0, 81, 0
4, 7200, Note_on_c, 0, 72, 88
4, 7316, Note_off_c, 0, 72, 0
4, 7320, Note_on_c, 0, 73, 88
4, 7436, Note_off_c, 0, 73, 0
4, 7440, Note_on_c, 0, 75, 88
4, 7910, Note_off_c, 0, 75, 0
4, 8040, Note_on_c, 0, 68, 88
4, 8156, Note_off_c, 0, 68, 0
4, 8160, Note_on_c, 0, 73, 88
4, 8276, Note_off_c, 0, 73, 0
4, 8280, Note_on_c, 0, 76, 88
4, 8396, Note_off_c, 0, 76, 0
4, 8400, Note_on_c, 0, 70, 88
4, 8516, Note_off_c, 0, 70, 0
4, 8520, Note_on_c, 0, 71, 88
4, 8578, Note_off_c, 0, 71, 0
4, 8580, Note_on_c, 0, 73, 88
4, 8698, Note_off_c, 0, 73, 0
4, 8700, Note_on_c, 0, 65, 88
4, 8758, Note_off_c, 0, 65, 0
4, 8760, Note_on_c, 0, 66, 88
4, 8818, Note_off_c, 0, 66, 0
4, 8820, Note_on_c, 0, 68, 88
4, 8878, Note_off_c, 0, 68, 0
4, 8880, Note_on_c, 0, 70, 88
4, 8938, Note_off_c, 0, 70, 0
4, 8940, Note_on_c, 0, 71, 88
4, 8998, Note_off_c, 0, 71, 0
4, 9000, Note_on_c, 0, 73, 88
4, 9058, Note_off_c, 0, 73, 0
4, 9060, Note_on_c, 0, 75, 88
4, 9118, Note_off_c, 0, 75, 0
4, 9120, Note_on_c, 0, 76, 88
4, 9178, Note_off_c, 0, 76, 0
4, 9180, Note_on_c, 0, 75, 88
4, 9238, Note_off_c, 0, 75, 0
4, 9240, Note_on_c, 0, 76, 88
4, 9298, Note_off_c, 0, 76, 0
4, 9300, Note_on_c, 0, 73, 88
4, 9358, Note_off_c, 0, 73, 0
4, 9360, Note_on_c, 0, 75, 88
4, 10314, Note_off_c, 0, 75, 0
4, 10320, Note_on_c, 0, 74, 88
4, 10436, Note_off_c, 0, 74, 0
4, 10440, Note_on_c, 0, 71, 88
4, 10556, Note_off_c, 0, 71, 0
4, 10560, Note_on_c, 0, 68, 88
4, 10676, Note_off_c, 0, 68, 0
4, 10680, Note_on_c, 0, 71, 88
4, 10849, Note_off_c, 0, 71, 0
4, 10860, Note_on_c, 0, 71, 88
4, 10918, Note_off_c, 0, 71, 0
4, 10920, Note_on_c, 0, 70, 88
4, 10978, Note_off_c, 0, 70, 0
4, 10980, Note_on_c, 0, 68, 88
4, 11038, Note_off_c, 0, 68, 0
4, 11040, Note_on_c, 0, 70, 88
4, 11098, Note_off_c, 0, 70, 0
4, 11100, Note_on_c, 0, 71, 88
4, 11158, Note_off_c, 0, 71, 0
4, 11160, Note_on_c, 0, 73, 88
4, 11218, Note_off_c, 0, 73, 0
4, 11220, Note_on_c, 0, 70, 88
4, 11278, Note_off_c, 0, 70, 0
4, 11280, Note_on_c, 0, 66, 88
4, 11396, Note_off_c, 0, 66, 0
4, 11400, Note_on_c, 0, 78, 88
4, 11578, Note_off_c, 0, 78, 0
4, 11580, Note_on_c, 0, 76, 88
4, 11638, Note_off_c, 0, 76, 0
4, 11640, Note_on_c, 0, 80, 88
4, 11698, Note_off_c, 0, 80, 0
4, 11700, Note_on_c, 0, 78, 88
4, 11758, Note_off_c, 0, 78, 0
4, 11760, Note_on_c, 0, 76, 88
4, 11818, Note_off_c, 0, 76, 0
4, 11820, Note_on_c, 0, 75, 88
4, 11878, Note_off_c, 0, 75, 0
4, 11880, Note_on_c, 0, 73, 88
4, 11938, Note_off_c, 0, 73, 0
4, 11940, Note_on_c, 0, 71, 88
4, 11998, Note_off_c, 0, 71, 0
4, 12000, Note_on_c, 0, 75, 88
4, 12058, Note_off_c, 0, 75, 0
4, 12060, Note_on_c, 0, 66, 88
4, 12118, Note_off_c, 0, 66, 0
4, 12120, Note_on_c, 0, 73, 88
4, 12178, Note_off_c, 0, 73, 0
4, 12180, Note_on_c, 0, 64, 88
4, 12238, Note_off_c, 0, 64, 0
4, 12240, Note_on_c, 0, 63, 88
4, 12298, Note_off_c, 0, 63, 0
4, 12300, Note_on_c, 0, 66, 88
4, 12358, Note_off_c, 0, 66, 0
4, 12360, Note_on_c, 0, 71, 88
4, 12418, Note_off_c, 0, 71, 0
4, 12420, Note_on_c, 0, 70, 88
4, 12478, Note_off_c, 0, 70, 0
4, 12480, Note_on_c, 0, 71, 88
4, 12714, Note_off_c, 0, 71, 0
4, 12720, Note_on_c, 0, 68, 88
4, 12954, Note_off_c, 0, 68, 0
4, 12960, Note_on_c, 0, 66, 88
4, 13018, Note_off_c, 0, 66, 0
4, 13020, Note_on_c, 0, 68, 88
4, 13078, Note_off_c, 0, 68, 0
4, 13080, Note_on_c, 0, 69, 88
4, 13138, Note_off_c, 0, 69, 0
4, 13140, Note_on_c, 0, 68, 88
4, 13198, Note_off_c, 0, 68, 0
4, 13200, Note_on_c, 0, 69, 88
4, 13434, Note_off_c, 0, 69, 0
4, 13440, Note_on_c, 0, 66, 88
4, 13674, Note_off_c, 0, 66, 0
4, 13680, Note_on_c, 0, 64, 88
4, 13738, Note_off_c, 0, 64, 0
4, 13740, Note_on_c, 0, 66, 88
4, 13798, Note_off_c, 0, 66, 0
4, 13800, Note_on_c, 0, 67, 88
4, 13858, Note_off_c, 0, 67, 0
4, 13860, Note_on_c, 0, 66, 88
4, 13918, Note_off_c, 0, 66, 0
4, 13920, Note_on_c, 0, 67, 88
4, 14154, Note_off_c, 0, 67, 0
4, 14160, Note_on_c, 0, 64, 88
4, 14516, Note_off_c, 0, 64, 0
4, 14520, Note_on_c, 0, 73, 88
4, 14629, Note_off_c, 0, 73, 0
4, 14640, Note_on_c, 0, 73, 88
4, 14756, Note_off_c, 0, 73, 0
4, 14760, Note_on_c, 0, 64, 88
4, 14876, Note_off_c, 0, 64, 0
4, 14880, Note_on_c, 0, 63, 88
4, 14996, Note_off_c, 0, 63, 0
4, 15000, Note_on_c, 0, 78, 88
4, 15116, Note_off_c, 0, 78, 0
4, 15120, Note_on_c, 0, 78, 88
4, 15236, Note_off_c, 0, 78, 0
4, 15240, Note_on_c, 0, 71, 88
4, 15356, Note_off_c, 0, 71, 0
4, 15360, Note_on_c, 0, 70, 88
4, 15476, Note_off_c, 0, 70, 0
4, 15480, Note_on_c, 0, 76, 88
4, 15589, Note_off_c, 0, 76, 0
4, 15600, Note_on_c, 0, 76, 88
4, 15716, Note_off_c, 0, 76, 0
4, 15720, Note_on_c, 0, 66, 88
4, 15836, Note_off_c, 0, 66, 0
4, 15840, Note_on_c, 0, 66, 88
4, 16193, Note_off_c, 0, 66, 0
4, 16200, Note_on_c, 0, 68, 88
4, 16258, Note_off_c, 0, 68, 0
4, 16260, Note_on_c, 0, 71, 88
4, 16369, Note_off_c, 0, 71, 0
4, 16380, Note_on_c, 0, 71, 88
4, 16496, Note_off_c, 0, 71, 0
4, 16500, Note_on_c, 0, 70, 88
4, 16558, Note_off_c, 0, 70, 0
4, 16560, Note_on_c, 0, 71, 88
4, 16676, Note_off_c, 0, 71, 0
4, 16680, Note_on_c, 0, 64, 88
4, 16796, Note_off_c, 0, 64, 0
4, 16800, Note_on_c, 0, 63, 88
4, 16916, Note_off_c, 0, 63, 0
4, 16920, Note_on_c, 0, 61, 88
4, 17036, Note_off_c, 0, 61, 0
4, 17040, Note_on_c, 0, 63, 88
4, 17274, Note_off_c, 0, 63, 0
4, 17400, Note_on_c, 0, 71, 88
4, 17516, Note_off_c, 0, 71, 0
4, 17520, Note_on_c, 0, 73, 88
4, 17809, Note_off_c, 0, 73, 0
4, 17820, Note_on_c, 0, 73, 88
4, 17878, Note_off_c, 0, 73, 0
4, 17880, Note_on_c, 0, 71, 88
4, 17938, Note_off_c, 0, 71, 0
4, 17940, Note_on_c, 0, 69, 88
4, 17998, Note_off_c, 0, 69, 0
4, 18000, Note_on_c, 0, 71, 88
4, 18289, Note_off_c, 0, 71, 0
4, 18300, Note_on_c, 0, 71, 88
4, 18358, Note_off_c, 0, 71, 0
4, 18360, Note_on_c, 0, 76, 88
4, 18418, Note_off_c, 0, 76, 0
4, 18420, Note_on_c, 0, 75, 88
4, 18478, Note_off_c, 0, 75, 0
4, 18480, Note_on_c, 0, 73, 88
4, 18538, Note_off_c, 0, 73, 0
4, 18540, Note_on_c, 0, 71, 88
4, 18598, Note_off_c, 0, 71, 0
4, 18600, Note_on_c, 0, 69, 88
4, 18658, Note_off_c, 0, 69, 0
4, 18660, Note_on_c, 0, 68, 88
4, 18718, Note_off_c, 0, 68, 0
4, 18720, Note_on_c, 0, 69, 88
4, 19489, Note_off_c, 0, 69, 0
4, 19500, Note_on_c, 0, 69, 88
4, 19558, Note_off_c, 0, 69, 0
4, 19560, Note_on_c, 0, 68, 88
4, 19618, Note_off_c, 0, 68, 0
4, 19620, Note_on_c, 0, 66, 88
4, 19678, Note_off_c, 0, 66, 0
4, 19680, Note_on_c, 0, 68, 88
4, 19969, Note_off_c, 0, 68, 0
4, 19980, Note_on_c, 0, 68, 88
4, 20038, Note_off_c, 0, 68, 0
4, 20040, Note_on_c, 0, 66, 88
4, 20098, Note_off_c, 0, 66, 0
4, 20100, Note_on_c, 0, 64, 88
4, 20158, Note_off_c, 0, 64, 0
4, 20160, Note_on_c, 0, 63, 88
4, 20276, Note_off_c, 0, 63, 0
4, 20520, Note_on_c, 0, 75, 88
4, 20636, Note_off_c, 0, 75, 0
4, 20640, Note_on_c, 0, 76, 88
4, 20929, Note_off_c, 0, 76, 0
4, 20940, Note_on_c, 0, 76, 88
4, 20998, Note_off_c, 0, 76, 0
4, 21000, Note_on_c, 0, 75, 88
4, 21058, Note_off_c, 0, 75, 0
4, 21060, Note_on_c, 0, 73, 88
4, 21118, Note_off_c, 0, 73, 0
4, 21120, Note_on_c, 0, 75, 88
4, 21236, Note_off_c, 0, 75, 0
4, 21660, Note_on_c, 0, 75, 88
4, 21718, Note_off_c, 0, 75, 0
4, 21720, Note_on_c, 0, 73, 88
4, 21778, Note_off_c, 0, 73, 0
4, 21780, Note_on_c, 0, 71, 88
4, 21838, Note_off_c, 0, 71, 0
4, 21840, Note_on_c, 0, 73, 88
4, 22609, Note_off_c, 0, 73, 0
4, 22620, Note_on_c, 0, 73, 88
4, 22678, Note_off_c, 0, 73, 0
4, 22680, Note_on_c, 0, 71, 88
4, 22738, Note_off_c, 0, 71, 0
4, 22740, Note_on_c, 0, 70, 88
4, 22798, Note_off_c, 0, 70, 0
4, 22800, Note_on_c, 0, 71, 88
4, 23098, Note_off_c, 0, 71, 0
4, 23100, Note_on_c, 0, 69, 88
4, 23158, Note_off_c, 0, 69, 0
4, 23160, Note_on_c, 0, 68, 88
4, 23218, Note_off_c, 0, 68, 0
4, 23220, Note_on_c, 0, 66, 88
4, 23278, Note_off_c, 0, 66, 0
4, 23280, Note_on_c, 0, 65, 88
4, 23338, Note_off_c, 0, 65, 0
4, 23340, Note_on_c, 0, 68, 88
4, 23398, Note_off_c, 0, 68, 0
4, 23400, Note_on_c, 0, 71, 88
4, 23458, Note_off_c, 0, 71, 0
4, 23460, Note_on_c, 0, 74, 88
4, 23569, Note_off_c, 0, 74, 0
4, 23580, Note_on_c, 0, 74, 88
4, 23638, Note_off_c, 0, 74, 0
4, 23640, Note_on_c, 0, 73, 88
4, 23698, Note_off_c, 0, 73, 0
4, 23700, Note_on_c, 0, 71, 88
4, 23818, Note_off_c, 0, 71, 0
4, 23820, Note_on_c, 0, 69, 88
4, 23878, Note_off_c, 0, 69, 0
4, 23880, Note_on_c, 0, 68, 88
4, 23938, Note_off_c, 0, 68, 0
4, 23940, Note_on_c, 0, 71, 88
4, 23998, Note_off_c, 0, 71, 0
4, 24000, Note_on_c, 0, 69, 88
4, 24058, Note_off_c, 0, 69, 0
4, 24060, Note_on_c, 0, 73, 88
4, 24118, Note_off_c, 0, 73, 0
4, 24120, Note_on_c, 0, 78, 88
4, 24178, Note_off_c, 0, 78, 0
4, 24180, Note_on_c, 0, 81, 88
4, 24296, Note_off_c, 0, 81, 0
4, 24300, Note_on_c, 0, 78, 88
4, 24358, Note_off_c, 0, 78, 0
4, 24360, Note_on_c, 0, 80, 88
4, 24418, Note_off_c, 0, 80, 0
4, 24420, Note_on_c, 0, 81, 88
4, 24478, Note_off_c, 0, 81, 0
4, 24480, Note_on_c, 0, 72, 88
4, 24596, Note_off_c, 0, 72, 0
4, 24600, Note_on_c, 0, 73, 88
4, 24716, Note_off_c, 0, 73, 0
4, 24720, Note_on_c, 0, 75, 88
4, 25190, Note_off_c, 0, 75, 0
4, 25320, Note_on_c, 0, 68, 88
4, 25436, Note_off_c, 0, 68, 0
4, 25440, Note_on_c, 0, 73, 88
4, 25556, Note_off_c, 0, 73, 0
4, 25560, Note_on_c, 0, 76, 88
4, 25676, Note_off_c, 0, 76, 0
4, 25680, Note_on_c, 0, 70, 88
4, 25796, Note_off_c, 0, 70, 0
4, 25800, Note_on_c, 0, 71, 88
4, 25858, Note_off_c, 0, 71, 0
4, 25860, Note_on_c, 0, 73, 88
4, 25978, Note_off_c, 0, 73, 0
4, 25980, Note_on_c, 0, 65, 88
4, 26038, Note_off_c, 0, 65, 0
4, 26040, Note_on_c, 0, 66, 88
4, 26098, Note_off_c, 0, 66, 0
4, 26100, Note_on_c, 0, 68, 88
4, 26158, Note_off_c, 0, 68, 0
4, 26160, Note_on_c, 0, 70, 88
4, 26218, Note_off_c, 0, 70, 0
4, 26220, Note_on_c, 0, 71, 88
4, 26278, Note_off_c, 0, 71, 0
4, 26280, Note_on_c, 0, 73, 88
4, 26338, Note_off_c, 0, 73, 0
4, 26340, Note_on_c, 0, 75, 88
4, 26398, Note_off_c, 0, 75, 0
4, 26400, Note_on_c, 0, 76, 88
4, 26458, Note_off_c, 0, 76, 0
4, 26460, Note_on_c, 0, 75, 88
4, 26518, Note_off_c, 0, 75, 0
4, 26520, Note_on_c, 0, 76, 88
4, 26578, Note_off_c, 0, 76, 0
4, 26580, Note_on_c, 0, 73, 88
4, 26638, Note_off_c, 0, 73, 0
4, 26640, Note_on_c, 0, 75, 88
4, 27594, Note_off_c, 0, 75, 0
4, 27600, Note_on_c, 0, 74, 88
4, 27716, Note_off_c, 0, 74, 0
4, 27720, Note_on_c, 0, 71, 88
4, 27836, Note_off_c, 0, 71, 0
4, 27840, Note_on_c, 0, 68, 88
4, 27956, Note_off_c, 0, 68, 0
4, 27960, Note_on_c, 0, 71, 88
4, 28129, Note_off_c, 0, 71, 0
4, 28140, Note_on_c, 0, 71, 88
4, 28198, Note_off_c, 0, 71, 0
4, 28200, Note_on_c, 0, 70, 88
4, 28258, Note_off_c, 0, 70, 0
4, 28260, Note_on_c, 0, 68, 88
4, 28318, Note_off_c, 0, 68, 0
4, 28320, Note_on_c, 0, 70, 88
4, 28378, Note_off_c, 0, 70, 0
4, 28380, Note_on_c, 0, 71, 88
4, 28438, Note_off_c, 0, 71, 0
4, 28440, Note_on_c, 0, 73, 88
4, 28498, Note_off_c, 0, 73, 0
4, 28500, Note_on_c, 0, 70, 88
4, 28558, Note_off_c, 0, 70, 0
4, 28560, Note_on_c, 0, 66, 88
4, 28676, Note_off_c, 0, 66, 0
4, 28680, Note_on_c, 0, 78, 88
4, 28858, Note_off_c, 0, 78, 0
4, 28860, Note_on_c, 0, 76, 88
4, 28918, Note_off_c, 0, 76, 0
4, 28920, Note_on_c, 0, 80, 88
4, 28978, Note_off_c, 0, 80, 0
4, 28980, Note_on_c, 0, 78, 88
4, 29038, Note_off_c, 0, 78, 0
4, 29040, Note_on_c, 0, 76, 88
4, 29098, Note_off_c, 0, 76, 0
4, 29100, Note_on_c, 0, 75, 88
4, 29158, Note_off_c, 0, 75, 0
4, 29160, Note_on_c, 0, 73, 88
4, 29218, Note_off_c, 0, 73, 0
4, 29220, Note_on_c, 0, 71, 88
4, 29278, Note_off_c, 0, 71, 0
4, 29280, Note_on_c, 0, 75, 88
4, 29338, Note_off_c, 0, 75, 0
4, 29340, Note_on_c, 0, 66, 88
4, 29398, Note_off_c, 0, 66, 0
4, 29400, Note_on_c, 0, 73, 88
4, 29458, Note_off_c, 0, 73, 0
4, 29460, Note_on_c, 0, 64, 88
4, 29518, Note_off_c, 0, 64, 0
4, 29520, Note_on_c, 0, 63, 88
4, 29578, Note_off_c, 0, 63, 0
4, 29580, Note_on_c, 0, 66, 88
4, 29638, Note_off_c, 0, 66, 0
4, 29640, Note_on_c, 0, 71, 88
4, 29698, Note_off_c, 0, 71, 0
4, 29700, Note_on_c, 0, 70, 88
4, 29758, Note_off_c, 0, 70, 0
4, 29760, Note_on_c, 0, 71, 88
4, 29994, Note_off_c, 0, 71, 0
4, 30000, Note_on_c, 0, 68, 88
4, 30234, Note_off_c, 0, 68, 0
4, 30240, Note_on_c, 0, 66, 88
4, 30298, Note_off_c, 0, 66, 0
4, 30300, Note_on_c, 0, 68, 88
4, 30358, Note_off_c, 0, 68, 0
4, 30360, Note_on_c, 0, 69, 88
4, 30418, Note_off_c, 0, 69, 0
4, 30420, Note_on_c, 0, 68, 88
4, 30478, Note_off_c, 0, 68, 0
4, 30480, Note_on_c, 0, 69, 88
4, 30714, Note_off_c, 0, 69, 0
4, 30720, Note_on_c, 0, 66, 88
4, 30954, Note_off_c, 0, 66, 0
4, 30960, Note_on_c, 0, 64, 88
4, 31018, Note_off_c, 0, 64, 0
4, 31020, Note_on_c, 0, 66, 88
4, 31078, Note_off_c, 0, 66, 0
4, 31080, Note_on_c, 0, 67, 88
4, 31138, Note_off_c, 0, 67, 0
4, 31140, Note_on_c, 0, 66, 88
4, 31198, Note_off_c, 0, 66, 0
4, 31200, Note_on_c, 0, 67, 88
4, 31434, Note_off_c, 0, 67, 0
4, 31440, Note_on_c, 0, 64, 88
4, 31796, Note_off_c, 0, 64, 0
4, 31800, Note_on_c, 0, 73, 88
4, 31909, Note_off_c, 0, 73, 0
4, 31920, Note_on_c, 0, 73, 88
4, 32036, Note_off_c, 0, 73, 0
4, 32040, Note_on_c, 0, 64, 88
4, 32156, Note_off_c, 0, 64, 0
4, 32160, Note_on_c, 0, 63, 88
4, 32276, Note_off_c, 0, 63, 0
4, 32280, Note_on_c, 0, 78, 88
4, 32396, Note_off_c, 0, 78, 0
4, 32400, Note_on_c, 0, 78, 88
4, 32516, Note_off_c, 0, 78, 0
4, 32520, Note_on_c, 0, 71, 88
4, 32636, Note_off_c, 0, 71, 0
4, 32640, Note_on_c, 0, 70, 88
4, 32756, Note_off_c, 0, 70, 0
4, 32760, Note_on_c, 0, 76, 88
4, 32869, Note_off_c, 0, 76, 0
4, 32880, Note_on_c, 0, 76, 88
4, 32996, Note_off_c, 0, 76, 0
4, 33000, Note_on_c, 0, 66, 88
4, 33116, Note_off_c, 0, 66, 0
4, 33120, Note_on_c, 0, 66, 88
4, 33473, Note_off_c, 0, 66, 0
4, 33480, Note_on_c, 0, 68, 88
4, 33538, Note_off_c, 0, 68, 0
4, 33540, Note_on_c, 0, 71, 88
4, 33649, Note_off_c, 0, 71, 0
4, 33660, Note_on_c, 0, 71, 88
4, 33776, Note_off_c, 0, 71, 0
4, 33780, Note_on_c, 0, 70, 88
4, 33838, Note_off_c, 0, 70, 0
4, 33840, Note_on_c, 0, 71, 88
4, 33956, Note_off_c, 0, 71, 0
4, 33960, Note_on_c, 0, 64, 88
4, 34076, Note_off_c, 0, 64, 0
4, 34080, Note_on_c, 0, 63, 88
4, 34196, Note_off_c, 0, 63, 0
4, 34200, Note_on_c, 0, 61, 88
4, 34316, Note_off_c, 0, 61, 0
4, 34320, Note_on_c, 0, 63, 88
4, 34554, Note_off_c, 0, 63, 0
4, 34680, Note_on_c, 0, 78, 88
4, 34796, Note_off_c, 0, 78, 0
4, 34800, Note_on_c, 0, 80, 88
4, 35089, Note_off_c, 0, 80, 0
4, 35100, Note_on_c, 0, 80, 88
4, 35158, Note_off_c, 0, 80, 0
4, 35160, Note_on_c, 0, 78, 88
4, 35218, Note_off_c, 0, 78, 0
4, 35220, Note_on_c, 0, 76, 88
4, 35278, Note_off_c, 0, 76, 0
4, 35280, Note_on_c, 0, 78, 88
4, 35569, Note_off_c, 0, 78, 0
4, 35580, Note_on_c, 0, 78, 88
4, 35638, Note_off_c, 0, 78, 0
4, 35640, Note_on_c, 0, 80, 88
4, 35698, Note_off_c, 0, 80, 0
4, 35700, Note_on_c, 0, 81, 88
4, 35758, Note_off_c, 0, 81, 0
4, 35760, Note_on_c, 0, 80, 88
4, 35818, Note_off_c, 0, 80, 0
4, 35820, Note_on_c, 0, 78, 88
4, 35878, Note_off_c, 0, 78, 0
4, 35880, Note_on_c, 0, 76, 88
4, 35938, Note_off_c, 0, 76, 0
4, 35940, Note_on_c, 0, 75, 88
4, 35998, Note_off_c, 0, 75, 0
4, 36000, Note_on_c, 0, 76, 88
4, 36349, Note_off_c, 0, 76, 0
4, 36360, Note_on_c, 0, 76, 88
4, 36476, Note_off_c, 0, 76, 0
4, 36480, Note_on_c, 0, 75, 88
4, 36596, Note_off_c, 0, 75, 0
4, 36600, Note_on_c, 0, 73, 88
4, 36716, Note_off_c, 0, 73, 0
4, 36720, Note_on_c, 0, 72, 88
4, 37190, Note_off_c, 0, 72, 0
4, 37500, Note_on_c, 0, 73, 88
4, 37558, Note_off_c, 0, 73, 0
4, 37560, Note_on_c, 0, 68, 88
4, 37618, Note_off_c, 0, 68, 0
4, 37620, Note_on_c, 0, 67, 88
4, 37678, Note_off_c, 0, 67, 0
4, 37680, Note_on_c, 0, 68, 88
4, 37738, Note_off_c, 0, 68, 0
4, 37740, Note_on_c, 0, 72, 88
4, 37798, Note_off_c, 0, 72, 0
4, 37800, Note_on_c, 0, 73, 88
4, 37858, Note_off_c, 0, 73, 0
4, 37860, Note_on_c, 0, 75, 88
4, 37918, Note_off_c, 0, 75, 0
4, 37920, Note_on_c, 0, 76, 88
4, 37978, Note_off_c, 0, 76, 0
4, 37980, Note_on_c, 0, 75, 88
4, 38038, Note_off_c, 0, 75, 0
4, 38040, Note_on_c, 0, 76, 88
4, 38098, Note_off_c, 0, 76, 0
4, 38100, Note_on_c, 0, 73, 88
4, 38158, Note_off_c, 0, 73, 0
4, 38160, Note_on_c, 0, 75, 88
4, 38218, Note_off_c, 0, 75, 0
4, 38220, Note_on_c, 0, 72, 88
4, 38278, Note_off_c, 0, 72, 0
4, 38280, Note_on_c, 0, 68, 88
4, 38338, Note_off_c, 0, 68, 0
4, 38340, Note_on_c, 0, 67, 88
4, 38398, Note_off_c, 0, 67, 0
4, 38400, Note_on_c, 0, 68, 88
4, 38458, Note_off_c, 0, 68, 0
4, 38460, Note_on_c, 0, 72, 88
4, 38518, Note_off_c, 0, 72, 0
4, 38520, Note_on_c, 0, 75, 88
4, 38578, Note_off_c, 0, 75, 0
4, 38580, Note_on_c, 0, 76, 88
4, 38638, Note_off_c, 0, 76, 0
4, 38640, Note_on_c, 0, 78, 88
4, 38698, Note_off_c, 0, 78, 0
4, 38700, Note_on_c, 0, 76, 88
4, 38758, Note_off_c, 0, 76, 0
4, 38760, Note_on_c, 0, 78, 88
4, 38818, Note_off_c, 0, 78, 0
4, 38820, Note_on_c, 0, 75, 88
4, 38878, Note_off_c, 0, 75, 0
4, 38880, Note_on_c, 0, 76, 88
4, 39292, Note_off_c, 0, 76, 0
4, 39300, Note_on_c, 0, 75, 88
4, 39416, Note_off_c, 0, 75, 0
4, 39420, Note_on_c, 0, 73, 88
4, 39536, Note_off_c, 0, 73, 0
4, 39540, Note_on_c, 0, 72, 88
4, 39598, Note_off_c, 0, 72, 0
4, 39600, Note_on_c, 0, 73, 88
4, 39834, Note_off_c, 0, 73, 0
4, 40380, Note_on_c, 0, 76, 88
4, 40438, Note_off_c, 0, 76, 0
4, 40440, Note_on_c, 0, 75, 88
4, 40498, Note_off_c, 0, 75, 0
4, 40500, Note_on_c, 0, 73, 88
4, 40558, Note_off_c, 0, 73, 0
4, 40560, Note_on_c, 0, 71, 88
4, 40618, Note_off_c, 0, 71, 0
4, 40620, Note_on_c, 0, 70, 88
4, 40678, Note_off_c, 0, 70, 0
4, 40680, Note_on_c, 0, 71, 88
4, 40738, Note_off_c, 0, 71, 0
4, 40740, Note_on_c, 0, 73, 88
4, 40798, Note_off_c, 0, 73, 0
4, 40800, Note_on_c, 0, 75, 88
4, 40858, Note_off_c, 0, 75, 0
4, 40860, Note_on_c, 0, 76, 88
4, 40918, Note_off_c, 0, 76, 0
4, 40920, Note_on_c, 0, 78, 88
4, 40949, Note_off_c, 0, 78, 0
4, 40950, Note_on_c, 0, 76, 88
4, 40979, Note_off_c, 0, 76, 0
4, 40980, Note_on_c, 0, 75, 88
4, 41009, Note_off_c, 0, 75, 0
4, 41010, Note_on_c, 0, 76, 88
4, 41039, Note_off_c, 0, 76, 0
4, 41040, Note_on_c, 0, 78, 88
4, 41098, Note_off_c, 0, 78, 0
4, 41100, Note_on_c, 0, 80, 88
4, 41158, Note_off_c, 0, 80, 0
4, 41160, Note_on_c, 0, 78, 88
4, 41218, Note_off_c, 0, 78, 0
4, 41220, Note_on_c, 0, 76, 88
4, 41278, Note_off_c, 0, 76, 0
4, 41280, Note_on_c, 0, 75, 88
4, 41338, Note_off_c, 0, 75, 0
4, 41340, Note_on_c, 0, 73, 88
4, 41398, Note_off_c, 0, 73, 0
4, 41400, Note_on_c, 0, 75, 88
4, 41458, Note_off_c, 0, 75, 0
4, 41460, Note_on_c, 0, 76, 88
4, 41518, Note_off_c, 0, 76, 0
4, 41520, Note_on_c, 0, 78, 88
4, 41578, Note_off_c, 0, 78, 0
4, 41580, Note_on_c, 0, 80, 88
4, 41638, Note_off_c, 0, 80, 0
4, 41640, Note_on_c, 0, 81, 88
4, 41669, Note_off_c, 0, 81, 0
4, 41670, Note_on_c, 0, 80, 88
4, 41699, Note_off_c, 0, 80, 0
4, 41700, Note_on_c, 0, 78, 88
4, 41729, Note_off_c, 0, 78, 0
4, 41730, Note_on_c, 0, 80, 88
4, 41759, Note_off_c, 0, 80, 0
4, 41760, Note_on_c, 0, 81, 88
4, 41818, Note_off_c, 0, 81, 0
4, 41820, Note_on_c, 0, 73, 88
4, 41878, Note_off_c, 0, 73, 0
4, 41880, Note_on_c, 0, 71, 88
4, 41938, Note_off_c, 0, 71, 0
4, 41940, Note_on_c, 0, 70, 88
4, 41998, Note_off_c, 0, 70, 0
4, 42000, Note_on_c, 0, 71, 88
4, 42058, Note_off_c, 0, 71, 0
4, 42060, Note_on_c, 0, 81, 88
4, 42118, Note_off_c, 0, 81, 0
4, 42120, Note_on_c, 0, 80, 88
4, 42178, Note_off_c, 0, 80, 0
4, 42180, Note_on_c, 0, 78, 88
4, 42238, Note_off_c, 0, 78, 0
4, 42240, Note_on_c, 0, 83, 88
4, 42298, Note_off_c, 0, 83, 0
4, 42300, Note_on_c, 0, 76, 88
4, 42358, Note_off_c, 0, 76, 0
4, 42360, Note_on_c, 0, 75, 88
4, 42418, Note_off_c, 0, 75, 0
4, 42420, Note_on_c, 0, 81, 88
4, 42478, Note_off_c, 0, 81, 0
4, 42480, Note_on_c, 0, 80, 88
4, 42538, Note_off_c, 0, 80, 0
4, 43260, Note_on_c, 0, 80, 88
4, 43318, Note_off_c, 0, 80, 0
4, 43320, Note_on_c, 0, 78, 88
4, 43378, Note_off_c, 0, 78, 0
4, 43380, Note_on_c, 0, 76, 88
4, 43438, Note_off_c, 0, 76, 0
4, 43440, Note_on_c, 0, 78, 88
4, 43556, Note_off_c, 0, 78, 0
4, 43560, Note_on_c, 0, 81, 88
4, 43794, Note_off_c, 0, 81, 0
4, 43800, Note_on_c, 0, 75, 88
4, 43978, Note_off_c, 0, 75, 0
4, 43980, Note_on_c, 0, 78, 88
4, 44038, Note_off_c, 0, 78, 0
4, 44040, Note_on_c, 0, 76, 88
4, 44098, Note_off_c, 0, 76, 0
4, 44100, Note_on_c, 0, 75, 88
4, 44158, Note_off_c, 0, 75, 0
4, 44160, Note_on_c, 0, 76, 88
4, 44276, Note_off_c, 0, 76, 0
4, 44280, Note_on_c, 0, 80, 88
4, 44514, Note_off_c, 0, 80, 0
4, 44520, Note_on_c, 0, 73, 88
4, 44698, Note_off_c, 0, 73, 0
4, 44700, Note_on_c, 0, 76, 88
4, 44758, Note_off_c, 0, 76, 0
4, 44760, Note_on_c, 0, 75, 88
4, 44818, Note_off_c, 0, 75, 0
4, 44820, Note_on_c, 0, 73, 88
4, 44878, Note_off_c, 0, 73, 0
4, 44880, Note_on_c, 0, 75, 88
4, 44996, Note_off_c, 0, 75, 0
4, 45000, Note_on_c, 0, 78, 88
4, 45109, Note_off_c, 0, 78, 0
4, 45120, Note_on_c, 0, 78, 88
4, 45236, Note_off_c, 0, 78, 0
4, 45240, Note_on_c, 0, 69, 88
4, 45356, Note_off_c, 0, 69, 0
4, 45360, Note_on_c, 0, 69, 88
4, 45476, Note_off_c, 0, 69, 0
4, 45480, Note_on_c, 0, 68, 88
4, 45538, Note_off_c, 0, 68, 0
4, 45540, Note_on_c, 0, 66, 88
4, 45598, Note_off_c, 0, 66, 0
4, 45600, Note_on_c, 0, 68, 88
4, 46129, Note_off_c, 0, 68, 0
4, 46140, Note_on_c, 0, 68, 88
4, 46198, Note_off_c, 0, 68, 0
4, 46200, Note_on_c, 0, 66, 88
4, 46258, Note_off_c, 0, 66, 0
4, 46260, Note_on_c, 0, 64, 88
4, 46318, Note_off_c, 0, 64, 0
4, 46320, Note_on_c, 0, 63, 88
4, 46378, Note_off_c, 0, 63, 0
4, 46380, Note_on_c, 0, 61, 88
4, 46438, Note_off_c, 0, 61, 0
4, 46440, Note_on_c, 0, 63, 88
4, 46498, Note_off_c, 0, 63, 0
4, 46500, Note_on_c, 0, 64, 88
4, 46558, Note_off_c, 0, 64, 0
4, 46560, Note_on_c, 0, 66, 88
4, 46618, Note_off_c, 0, 66, 0
4, 46620, Note_on_c, 0, 68, 88
4, 46678, Note_off_c, 0, 68, 0
4, 46680, Note_on_c, 0, 69, 88
4, 46709, Note_off_c, 0, 69, 0
4, 46710, Note_on_c, 0, 68, 88
4, 46739, Note_off_c, 0, 68, 0
4, 46740, Note_on_c, 0, 66, 88
4, 46769, Note_off_c, 0, 66, 0
4, 46770, Note_on_c, 0, 68, 88
4, 46799, Note_off_c, 0, 68, 0
4, 46800, Note_on_c, 0, 69, 88
4, 47636, Note_off_c, 0, 69, 0
4, 47640, Note_on_c, 0, 78, 88
4, 47749, Note_off_c, 0, 78, 0
4, 47760, Note_on_c, 0, 78, 88
4, 47876, Note_off_c, 0, 78, 0
4, 47880, Note_on_c, 0, 69, 88
4, 47996, Note_off_c, 0, 69, 0
4, 48000, Note_on_c, 0, 68, 88
4, 48116, Note_off_c, 0, 68, 0
4, 48120, Note_on_c, 0, 83, 88
4, 48236, Note_off_c, 0, 83, 0
4, 48240, Note_on_c, 0, 83, 88
4, 48356, Note_off_c, 0, 83, 0
4, 48360, Note_on_c, 0, 76, 88
4, 48476, Note_off_c, 0, 76, 0
4, 48480, Note_on_c, 0, 75, 88
4, 48596, Note_off_c, 0, 75, 0
4, 48600, Note_on_c, 0, 81, 88
4, 48709, Note_off_c, 0, 81, 0
4, 48720, Note_on_c, 0, 81, 88
4, 48836, Note_off_c, 0, 81, 0
4, 48840, Note_on_c, 0, 71, 88
4, 48956, Note_off_c, 0, 71, 0
4, 48960, Note_on_c, 0, 71, 88
4, 49313, Note_off_c, 0, 71, 0
4, 49320, Note_on_c, 0, 73, 88
4, 49378, Note_off_c, 0, 73, 0
4, 49380, Note_on_c, 0, 76, 88
4, 49489, Note_off_c, 0, 76, 0
4, 49500, Note_on_c, 0, 76, 88
4, 49616, Note_off_c, 0, 76, 0
4, 49620, Note_on_c, 0, 75, 88
4, 49678, Note_off_c, 0, 75, 0
4, 49740, Note_on_c, 0, 71, 88
4, 49798, Note_off_c, 0, 71, 0
4, 49800, Note_on_c, 0, 76, 88
4, 49858, Note_off_c, 0, 76, 0
4, 49860, Note_on_c, 0, 75, 88
4, 49918, Note_off_c, 0, 75, 0
4, 49920, Note_on_c, 0, 76, 88
4, 50154, Note_off_c, 0, 76, 0
4, 50160, Note_on_c, 0, 73, 88
4, 50394, Note_off_c, 0, 73, 0
4, 50400, Note_on_c, 0, 71, 88
4, 50458, Note_off_c, 0, 71, 0
4, 50460, Note_on_c, 0, 73, 88
4, 50518, Note_off_c, 0, 73, 0
4, 50520, Note_on_c, 0, 74, 88
4, 50578, Note_off_c, 0, 74, 0
4, 50580, Note_on_c, 0, 73, 88
4, 50638, Note_off_c, 0, 73, 0
4, 50640, Note_on_c, 0, 74, 88
4, 50874, Note_off_c, 0, 74, 0
4, 50880, Note_on_c, 0, 71, 88
4, 51114, Note_off_c, 0, 71, 0
4, 51120, Note_on_c, 0, 69, 88
4, 51178, Note_off_c, 0, 69, 0
4, 51180, Note_on_c, 0, 71, 88
4, 51238, Note_off_c, 0, 71, 0
4, 51240, Note_on_c, 0, 72, 88
4, 51298, Note_off_c, 0, 72, 0
4, 51300, Note_on_c, 0, 71, 88
4, 51358, Note_off_c, 0, 71, 0
4, 51360, Note_on_c, 0, 72, 88
4, 51594, Note_off_c, 0, 72, 0
4, 51600, Note_on_c, 0, 69, 88
4, 52074, Note_off_c, 0, 69, 0
4, 52560, Note_on_c, 0, 68, 88
4, 52794, Note_off_c, 0, 68, 0
4, 52860, Note_on_c, 0, 68, 88
4, 52918, Note_off_c, 0, 68, 0
4, 52920, Note_on_c, 0, 66, 88
4, 52978, Note_off_c, 0, 66, 0
4, 52980, Note_on_c, 0, 64, 88
4, 53038, Note_off_c, 0, 64, 0
4, 53040, Note_on_c, 0, 66, 88
4, 53274, Note_off_c, 0, 66, 0
4, 53340, Note_on_c, 0, 59, 88
4, 53398, Note_off_c, 0, 59, 0
4, 53400, Note_on_c, 0, 64, 88
4, 53458, Note_off_c, 0, 64, 0
4, 53460, Note_on_c, 0, 63, 88
4, 53518, Note_off_c, 0, 63, 0
4, 53520, Note_on_c, 0, 64, 88
4, 53578, Note_off_c, 0, 64, 0
4, 53580, Note_on_c, 0, 59, 88
4, 53638, Note_off_c, 0, 59, 0
4, 53640, Note_on_c, 0, 68, 88
4, 53698, Note_off_c, 0, 68, 0
4, 53700, Note_on_c, 0, 64, 88
4, 53758, Note_off_c, 0, 64, 0
4, 53760, Note_on_c, 0, 71, 88
4, 54058, Note_off_c, 0, 71, 0
4, 54060, Note_on_c, 0, 64, 88
4, 54118, Note_off_c, 0, 64, 0
4, 54120, Note_on_c, 0, 69, 88
4, 54178, Note_off_c, 0, 69, 0
4, 54180, Note_on_c, 0, 68, 88
4, 54238, Note_off_c, 0, 68, 0
4, 54240, Note_on_c, 0, 69, 88
4, 54298, Note_off_c, 0, 69, 0
4, 54300, Note_on_c, 0, 64, 88
4, 54358, Note_off_c, 0, 64, 0
4, 54360, Note_on_c, 0, 73, 88
4, 54418, Note_off_c, 0, 73, 0
4, 54420, Note_on_c, 0, 69, 88
4, 54478, Note_off_c, 0, 69, 0
4, 54480, Note_on_c, 0, 76, 88
4, 54778, Note_off_c, 0, 76, 0
4, 54780, Note_on_c, 0, 69, 88
4, 54838, Note_off_c, 0, 69, 0
4, 54840, Note_on_c, 0, 75, 88
4, 54898, Note_off_c, 0, 75, 0
4, 54900, Note_on_c, 0, 73, 88
4, 54958, Note_off_c, 0, 73, 0
4, 54960, Note_on_c, 0, 75, 88
4, 55018, Note_off_c, 0, 75, 0
4, 55020, Note_on_c, 0, 69, 88
4, 55078, Note_off_c, 0, 69, 0
4, 55080, Note_on_c, 0, 78, 88
4, 55138, Note_off_c, 0, 78, 0
4, 55140, Note_on_c, 0, 75, 88
4, 55198, Note_off_c, 0, 75, 0
4, 55200, Note_on_c, 0, 81, 88
4, 55258, Note_off_c, 0, 81, 0
4, 55260, Note_on_c, 0, 78, 88
4, 55318, Note_off_c, 0, 78, 0
4, 55320, Note_on_c, 0, 76, 88
4, 55378, Note_off_c, 0, 76, 0
4, 55380, Note_on_c, 0, 75, 88
4, 55438, Note_off_c, 0, 75, 0
4, 55440, Note_on_c, 0, 76, 88
4, 56148, Note_off_c, 0, 76, 0
4, 56280, Note_on_c, 0, 78, 88
4, 56396, Note_off_c, 0, 78, 0
4, 56400, Note_on_c, 0, 80, 88
4, 56689, Note_off_c, 0, 80, 0
4, 56700, Note_on_c, 0, 80, 88
4, 56758, Note_off_c, 0, 80, 0
4, 56760, Note_on_c, 0, 78, 88
4, 56818, Note_off_c, 0, 78, 0
4, 56820, Note_on_c, 0, 76, 88
4, 56878, Note_off_c, 0, 76, 0
4, 56880, Note_on_c, 0, 78, 88
4, 57169, Note_off_c, 0, 78, 0
4, 57180, Note_on_c, 0, 78, 88
4, 57238, Note_off_c, 0, 78, 0
4, 57240, Note_on_c, 0, 80, 88
4, 57298, Note_off_c, 0, 80, 0
4, 57300, Note_on_c, 0, 81, 88
4, 57358, Note_off_c, 0, 81, 0
4, 57360, Note_on_c, 0, 80, 88
4, 57418, Note_off_c, 0, 80, 0
4, 57420, Note_on_c, 0, 78, 88
4, 57478, Note_off_c, 0, 78, 0
4, 57480, Note_on_c, 0, 76, 88
4, 57538, Note_off_c, 0, 76, 0
4, 57540, Note_on_c, 0, 75, 88
4, 57598, Note_off_c, 0, 75, 0
4, 57600, Note_on_c, 0, 76, 88
4, 57949, Note_off_c, 0, 76, 0
4, 57960, Note_on_c, 0, 76, 88
4, 58076, Note_off_c, 0, 76, 0
4, 58080, Note_on_c, 0, 75, 88
4, 58196, Note_off_c, 0, 75, 0
4, 58200, Note_on_c, 0, 73, 88
4, 58316, Note_off_c, 0, 73, 0
4, 58320, Note_on_c, 0, 72, 88
4, 58790, Note_off_c, 0, 72, 0
4, 59100, Note_on_c, 0, 73, 88
4, 59158, Note_off_c, 0, 73, 0
4, 59160, Note_on_c, 0, 68, 88
4, 59218, Note_off_c, 0, 68, 0
4, 59220, Note_on_c, 0, 67, 88
4, 59278, Note_off_c, 0, 67, 0
4, 59280, Note_on_c, 0, 68, 88
4, 59338, Note_off_c, 0, 68, 0
4, 59340, Note_on_c, 0, 72, 88
4, 59398, Note_off_c, 0, 72, 0
4, 59400, Note_on_c, 0, 73, 88
4, 59458, Note_off_c, 0, 73, 0
4, 59460, Note_on_c, 0, 75, 88
4, 59518, Note_off_c, 0, 75, 0
4, 59520, Note_on_c, 0, 76, 88
4, 59578, Note_off_c, 0, 76, 0
4, 59580, Note_on_c, 0, 75, 88
4, 59638, Note_off_c, 0, 75, 0
4, 59640, Note_on_c, 0, 76, 88
4, 59698, Note_off_c, 0, 76, 0
4, 59700, Note_on_c, 0, 73, 88
4, 59758, Note_off_c, 0, 73, 0
4, 59760, Note_on_c, 0, 75, 88
4, 59818, Note_off_c, 0, 75, 0
4, 59820, Note_on_c, 0, 72, 88
4, 59878, Note_off_c, 0, 72, 0
4, 59880, Note_on_c, 0, 68, 88
4, 59938, Note_off_c, 0, 68, 0
4, 59940, Note_on_c, 0, 67, 88
4, 59998, Note_off_c, 0, 67, 0
4, 60000, Note_on_c, 0, 68, 88
4, 60058, Note_off_c, 0, 68, 0
4, 60060, Note_on_c, 0, 72, 88
4, 60118, Note_off_c, 0, 72, 0
4, 60120, Note_on_c, 0, 75, 88
4, 60178, Note_off_c, 0, 75, 0
4, 60180, Note_on_c, 0, 76, 88
4, 60238, Note_off_c, 0, 76, 0
4, 60240, Note_on_c, 0, 78, 88
4, 60298, Note_off_c, 0, 78, 0
4, 60300, Note_on_c, 0, 76, 88
4, 60358, Note_off_c, 0, 76, 0
4, 60360, Note_on_c, 0, 78, 88
4, 60418, Note_off_c, 0, 78, 0
4, 60420, Note_on_c, 0, 75, 88
4, 60478, Note_off_c, 0, 75, 0
4, 60480, Note_on_c, 0, 76, 88
4, 60892, Note_off_c, 0, 76, 0
4, 60900, Note_on_c, 0, 75, 88
4, 61016, Note_off_c, 0, 75, 0
4, 61020, Note_on_c, 0, 73, 88
4, 61136, Note_off_c, 0, 73, 0
4, 61140, Note_on_c, 0, 72, 88
4, 61198, Note_off_c, 0, 72, 0
4, 61200, Note_on_c, 0, 73, 88
4, 61434, Note_off_c, 0, 73, 0
4, 61980, Note_on_c, 0, 76, 88
4, 62038, Note_off_c, 0, 76, 0
4, 62040, Note_on_c, 0, 75, 88
4, 62098, Note_off_c, 0, 75, 0
4, 62100, Note_on_c, 0, 73, 88
4, 62158, Note_off_c, 0, 73, 0
4, 62160, Note_on_c, 0, 71, 88
4, 62218, Note_off_c, 0, 71, 0
4, 62220, Note_on_c, 0, 70, 88
4, 62278, Note_off_c, 0, 70, 0
4, 62280, Note_on_c, 0, 71, 88
4, 62338, Note_off_c, 0, 71, 0
4, 62340, Note_on_c, 0, 73, 88
4, 62398, Note_off_c, 0, 73, 0
4, 62400, Note_on_c, 0, 75, 88
4, 62458, Note_off_c, 0, 75, 0
4, 62460, Note_on_c, 0, 76, 88
4, 62518, Note_off_c, 0, 76, 0
4, 62520, Note_on_c, 0, 78, 88
4, 62549, Note_off_c, 0, 78, 0
4, 62550, Note_on_c, 0, 76, 88
4, 62579, Note_off_c, 0, 76, 0
4, 62580, Note_on_c, 0, 75, 88
4, 62609, Note_off_c, 0, 75, 0
4, 62610, Note_on_c, 0, 76, 88
4, 62639, Note_off_c, 0, 76, 0
4, 62640, Note_on_c, 0, 78, 88
4, 62698, Note_off_c, 0, 78, 0
4, 62700, Note_on_c, 0, 80, 88
4, 62758, Note_off_c, 0, 80, 0
4, 62760, Note_on_c, 0, 78, 88
4, 62818, Note_off_c, 0, 78, 0
4, 62820, Note_on_c, 0, 76, 88
4, 62878, Note_off_c, 0, 76, 0
4, 62880, Note_on_c, 0, 75, 88
4, 62938, Note_off_c, 0, 75, 0
4, 62940, Note_on_c, 0, 73, 88
4, 62998, Note_off_c, 0, 73, 0
4, 63000, Note_on_c, 0, 75, 88
4, 63058, Note_off_c, 0, 75, 0
4, 63060, Note_on_c, 0, 76, 88
4, 63118, Note_off_c, 0, 76, 0
4, 63120, Note_on_c, 0, 78, 88
4, 63178, Note_off_c, 0, 78, 0
4, 63180, Note_on_c, 0, 80, 88
4, 63238, Note_off_c, 0, 80, 0
4, 63240, Note_on_c, 0, 81, 88
4, 63269, Note_off_c, 0, 81, 0
4, 63270, Note_on_c, 0, 80, 88
4, 63299, Note_off_c, 0, 80, 0
4, 63300, Note_on_c, 0, 78, 88
4, 63329, Note_off_c, 0, 78, 0
4, 63330, Note_on_c, 0, 80, 88
4, 63359, Note_off_c, 0, 80, 0
4, 63360, Note_on_c, 0, 81, 88
4, 63418, Note_off_c, 0, 81, 0
4, 63420, Note_on_c, 0, 73, 88
4, 63478, Note_off_c, 0, 73, 0
4, 63480, Note_on_c, 0, 71, 88
4, 63538, Note_off_c, 0, 71, 0
4, 63540, Note_on_c, 0, 70, 88
4, 63598, Note_off_c, 0, 70, 0
4, 63600, Note_on_c, 0, 71, 88
4, 63658, Note_off_c, 0, 71, 0
4, 63660, Note_on_c, 0, 81, 88
4, 63718, Note_off_c, 0, 81, 0
4, 63720, Note_on_c, 0, 80, 88
4, 63778, Note_off_c, 0, 80, 0
4, 63780, Note_on_c, 0, 78, 88
4, 63838, Note_off_c, 0, 78, 0
4, 63840, Note_on_c, 0, 83, 88
4, 63898, Note_off_c, 0, 83, 0
4, 63900, Note_on_c, 0, 76, 88
4, 63958, Note_off_c, 0, 76, 0
4, 63960, Note_on_c, 0, 75, 88
4, 64018, Note_off_c, 0, 75, 0
4, 64020, Note_on_c, 0, 81, 88
4, 64078, Note_off_c, 0, 81, 0
4, 64080, Note_on_c, 0, 80, 88
4, 64138, Note_off_c, 0, 80, 0
4, 64860, Note_on_c, 0, 80, 88
4, 64918, Note_off_c, 0, 80, 0
4, 64920, Note_on_c, 0, 78, 88
4, 64978, Note_off_c, 0, 78, 0
4, 64980, Note_on_c, 0, 76, 88
4, 65038, Note_off_c, 0, 76, 0
4, 65040, Note_on_c, 0, 78, 88
4, 65156, Note_off_c, 0, 78, 0
4, 65160, Note_on_c, 0, 81, 88
4, 65394, Note_off_c, 0, 81, 0
4, 65400, Note_on_c, 0, 75, 88
4, 65578, Note_off_c, 0, 75, 0
4, 65580, Note_on_c, 0, 78, 88
4, 65638, Note_off_c, 0, 78, 0
4, 65640, Note_on_c, 0, 76, 88
4, 65698, Note_off_c, 0, 76, 0
4, 65700, Note_on_c, 0, 75, 88
4, 65758, Note_off_c, 0, 75, 0
4, 65760, Note_on_c, 0, 76, 88
4, 65876, Note_off_c, 0, 76, 0
4, 65880, Note_on_c, 0, 80, 88
4, 66114, Note_off_c, 0, 80, 0
4, 66120, Note_on_c, 0, 73, 88
4, 66298, Note_off_c, 0, 73, 0
4, 66300, Note_on_c, 0, 76, 88
4, 66358, Note_off_c, 0, 76, 0
4, 66360, Note_on_c, 0, 75, 88
4, 66418, Note_off_c, 0, 75, 0
4, 66420, Note_on_c, 0, 73, 88
4, 66478, Note_off_c, 0, 73, 0
4, 66480, Note_on_c, 0, 75, 88
4, 66596, Note_off_c, 0, 75, 0
4, 66600, Note_on_c, 0, 78, 88
4, 66709, Note_off_c, 0, 78, 0
4, 66720, Note_on_c, 0, 78, 88
4, 66836, Note_off_c, 0, 78, 0
4, 66840, Note_on_c, 0, 69, 88
4, 66956, Note_off_c, 0, 69, 0
4, 66960, Note_on_c, 0, 69, 88
4, 67076, Note_off_c, 0, 69, 0
4, 67080, Note_on_c, 0, 68, 88
4, 67138, Note_off_c, 0, 68, 0
4, 67140, Note_on_c, 0, 66, 88
4, 67198, Note_off_c, 0, 66, 0
4, 67200, Note_on_c, 0, 68, 88
4, 67729, Note_off_c, 0, 68, 0
4, 67740, Note_on_c, 0, 68, 88
4, 67798, Note_off_c, 0, 68, 0
4, 67800, Note_on_c, 0, 66, 88
4, 67858, Note_off_c, 0, 66, 0
4, 67860, Note_on_c, 0, 64, 88
4, 67918, Note_off_c, 0, 64, 0
4, 67920, Note_on_c, 0, 63, 88
4, 67978, Note_off_c, 0, 63, 0
4, 67980, Note_on_c, 0, 61, 88
4, 68038, Note_off_c, 0, 61, 0
4, 68040, Note_on_c, 0, 63, 88
4, 68098, Note_off_c, 0, 63, 0
4, 68100, Note_on_c, 0, 64, 88
4, 68158, Note_off_c, 0, 64, 0
4, 68160, Note_on_c, 0, 66, 88
4, 68218, Note_off_c, 0, 66, 0
4, 68220, Note_on_c, 0, 68, 88
4, 68278, Note_off_c, 0, 68, 0
4, 68280, Note_on_c, 0, 69, 88
4, 68309, Note_off_c, 0, 69, 0
4, 68310, Note_on_c, 0, 68, 88
4, 68339, Note_off_c, 0, 68, 0
4, 68340, Note_on_c, 0, 66, 88
4, 68369, Note_off_c, 0, 66, 0
4, 68370, Note_on_c, 0, 68, 88
4, 68399, Note_off_c, 0, 68, 0
4, 68400, Note_on_c, 0, 69, 88
4, 69236, Note_off_c, 0, 69, 0
4, 69240, Note_on_c, 0, 78, 88
4, 69349, Note_off_c, 0, 78, 0
4, 69360, Note_on_c, 0, 78, 88
4, 69476, Note_off_c, 0, 78, 0
4, 69480, Note_on_c, 0, 69, 88
4, 69596, Note_off_c, 0, 69, 0
4, 69600, Note_on_c, 0, 68, 88
4, 69716, Note_off_c, 0, 68, 0
4, 69720, Note_on_c, 0, 83, 88
4, 69836, Note_off_c, 0, 83, 0
4, 69840, Note_on_c, 0, 83, 88
4, 69956, Note_off_c, 0, 83, 0
4, 69960, Note_on_c, 0, 76, 88
4, 70076, Note_off_c, 0, 76, 0
4, 70080, Note_on_c, 0, 75, 88
4, 70196, Note_off_c, 0, 75, 0
4, 70200, Note_on_c, 0, 81, 88
4, 70309, Note_off_c, 0, 81, 0
4, 70320, Note_on_c, 0, 81, 88
4, 70436, Note_off_c, 0, 81, 0
4, 70440, Note_on_c, 0, 71, 88
4, 70556, Note_off_c, 0, 71, 0
4, 70560, Note_on_c, 0, 71, 88
4, 70913, Note_off_c, 0, 71, 0
4, 70920, Note_on_c, 0, 73, 88
4, 70978, Note_off_c, 0, 73, 0
4, 70980, Note_on_c, 0, 76, 88
4, 71089, Note_off_c, 0, 76, 0
4, 71100, Note_on_c, 0, 76, 88
4, 71216, Note_off_c, 0, 76, 0
4, 71220, Note_on_c, 0, 75, 88
4, 71278, Note_off_c, 0, 75, 0
4, 71340, Note_on_c, 0, 71, 88
4, 71398, Note_off_c, 0, 71, 0
4, 71400, Note_on_c, 0, 76, 88
4, 71458, Note_off_c, 0, 76, 0
4, 71460, Note_on_c, 0, 75, 88
4, 71518, Note_off_c, 0, 75, 0
4, 71520, Note_on_c, 0, 76, 88
4, 71754, Note_off_c, 0, 76, 0
4, 71760, Note_on_c, 0, 73, 88
4, 71994, Note_off_c, 0, 73, 0
4, 72000, Note_on_c, 0, 71, 88
4, 72058, Note_off_c, 0, 71, 0
4, 72060, Note_on_c, 0, 73, 88
4, 72118, Note_off_c, 0, 73, 0
4, 72120, Note_on_c, 0, 74, 88
4, 72178, Note_off_c, 0, 74, 0
4, 72180, Note_on_c, 0, 73, 88
4, 72238, Note_off_c, 0, 73, 0
4, 72240, Note_on_c, 0, 74, 88
4, 72474, Note_off_c, 0, 74, 0
4, 72480, Note_on_c, 0, 71, 88
4, 72714, Note_off_c, 0, 71, 0
4, 72720, Note_on_c, 0, 69, 88
4, 72778, Note_off_c, 0, 69, 0
4, 72780, Note_on_c, 0, 71, 88
4, 72838, Note_off_c, 0, 71, 0
4, 72840, Note_on_c, 0, 72, 88
4, 72898, Note_off_c, 0, 72, 0
4, 72900, Note_on_c, 0, 71, 88
4, 72958, Note_off_c, 0, 71, 0
4, 72960, Note_on_c, 0, 72, 88
4, 73194, Note_off_c, 0, 72, 0
4, 73200, Note_on_c, 0, 69, 88
4, 73674, Note_off_c, 0, 69, 0
4, 74160, Note_on_c, 0, 68, 88
4, 74394, Note_off_c, 0, 68, 0
4, 74460, Note_on_c, 0, 68, 88
4, 74518, Note_off_c, 0, 68, 0
4, 74520, Note_on_c, 0, 66, 88
4, 74578, Note_off_c, 0, 66, 0
4, 74580, Note_on_c, 0, 64, 88
4, 74638, Note_off_c, 0, 64, 0
4, 74640, Note_on_c, 0, 66, 88
4, 74874, Note_off_c, 0, 66, 0
4, 74940, Note_on_c, 0, 59, 88
4, 74998, Note_off_c, 0, 59, 0
4, 75000, Note_on_c, 0, 64, 88
4, 75058, Note_off_c, 0, 64, 0
4, 75060, Note_on_c, 0, 63, 88
4, 75118, Note_off_c, 0, 63, 0
4, 75120, Note_on_c, 0, 64, 88
4, 75178, Note_off_c, 0, 64, 0
4, 75180, Note_on_c, 0, 59, 88
4, 75238, Note_off_c, 0, 59, 0
4, 75240, Note_on_c, 0, 68, 88
4, 75298, Note_off_c, 0, 68, 0
4, 75300, Note_on_c, 0, 64, 88
4, 75358, Note_off_c, 0, 64, 0
4, 75360, Note_on_c, 0, 71, 88
4, 75658, Note_off_c, 0, 71, 0
4, 75660, Note_on_c, 0, 64, 88
4, 75718, Note_off_c, 0, 64, 0
4, 75720, Note_on_c, 0, 69, 88
4, 75778, Note_off_c, 0, 69, 0
4, 75780, Note_on_c, 0, 68, 88
4, 75838, Note_off_c, 0, 68, 0
4, 75840, Note_on_c, 0, 69, 88
4, 75898, Note_off_c, 0, 69, 0
4, 75900, Note_on_c, 0, 64, 88
4, 75958, Note_off_c, 0, 64, 0
4, 75960, Note_on_c, 0, 73, 88
4, 76018, Note_off_c, 0, 73, 0
4, 76020, Note_on_c, 0, 69, 88
4, 76078, Note_off_c, 0, 69, 0
4, 76080, Note_on_c, 0, 76, 88
4, 76378, Note_off_c, 0, 76, 0
4, 76380, Note_on_c, 0, 69, 88
4, 76438, Note_off_c, 0, 69, 0
4, 76440, Note_on_c, 0, 75, 88
4, 76498, Note_off_c, 0, 75, 0
4, 76500, Note_on_c, 0, 73, 88
4, 76558, Note_off_c, 0, 73, 0
4, 76560, Note_on_c, 0, 75, 88
4, 76618, Note_off_c, 0, 75, 0
4, 76620, Note_on_c, 0, 69, 88
4, 76678, Note_off_c, 0, 69, 0
4, 76680, Note_on_c, 0, 78, 88
4, 76738, Note_off_c, 0, 78, 0
4, 76740, Note_on_c, 0, 75, 88
4, 76798, Note_off_c, 0, 75, 0
4, 76800, Note_on_c, 0, 81, 88
4, 76858, Note_off_c, 0, 81, 0
4, 76860, Note_on_c, 0, 78, 88
4, 76918, Note_off_c, 0, 78, 0
4, 76920, Note_on_c, 0, 76, 88
4, 76978, Note_off_c, 0, 76, 0
4, 76980, Note_on_c, 0, 75, 88
4, 77038, Note_off_c, 0, 75, 0
4, 77040, Note_on_c, 0, 76, 88
4, 77748, Note_off_c, 0, 76, 0
4, 77748, End_track
5, 0, Start_track
5, 0, Title_t, "Track 2"
5, 0, Program_c, 1, 6
5, 15720, Note_on_c, 1, 64, 88
5, 15836, Note_off_c, 1, 64, 0
5, 15840, Note_on_c, 1, 64, 88
5, 16134, Note_off_c, 1, 64, 0
5, 16140, Note_on_c, 1, 63, 88
5, 16315, Note_off_c, 1, 63, 0
5, 16320, Note_on_c, 1, 61, 88
5, 16436, Note_off_c, 1, 61, 0
5, 16440, Note_on_c, 1, 64, 88
5, 16618, Note_off_c, 1, 64, 0
5, 16620, Note_on_c, 1, 63, 88
5, 16736, Note_off_c, 1, 63, 0
5, 16740, Note_on_c, 1, 61, 88
5, 16856, Note_off_c, 1, 61, 0
5, 16860, Note_on_c, 1, 59, 88
5, 16976, Note_off_c, 1, 59, 0
5, 16980, Note_on_c, 1, 58, 88
5, 17038, Note_off_c, 1, 58, 0
5, 17040, Note_on_c, 1, 59, 88
5, 17274, Note_off_c, 1, 59, 0
5, 33000, Note_on_c, 1, 64, 88
5, 33116, Note_off_c, 1, 64, 0
5, 33120, Note_on_c, 1, 64, 88
5, 33414, Note_off_c, 1, 64, 0
5, 33420, Note_on_c, 1, 63, 88
5, 33595, Note_off_c, 1, 63, 0
5, 33600, Note_on_c, 1, 61, 88
5, 33716, Note_off_c, 1, 61, 0
5, 33720, Note_on_c, 1, 64, 88
5, 33898, Note_off_c, 1, 64, 0
5, 33900, Note_on_c, 1, 63, 88
5, 34016, Note_off_c, 1, 63, 0
5, 34020, Note_on_c, 1, 61, 88
5, 34136, Note_off_c, 1, 61, 0
5, 34140, Note_on_c, 1, 59, 88
5, 34256, Note_off_c, 1, 59, 0
5, 34260, Note_on_c, 1, 58, 88
5, 34318, Note_off_c, 1, 58, 0
5, 34320, Note_on_c, 1, 59, 88
5, 34554, Note_off_c, 1, 59, 0
5, 45600, Note_on_c, 1, 64, 88
5, 45629, Note_off_c, 1, 64, 0
5, 45630, Note_on_c, 1, 63, 88
5, 45666, Note_off_c, 1, 63, 0
5, 45668, Note_on_c, 1, 64, 88
5, 46072, Note_off_c, 1, 64, 0
5, 48840, Note_on_c, 1, 69, 88
5, 48956, Note_off_c, 1, 69, 0
5, 48960, Note_on_c, 1, 69, 88
5, 49254, Note_off_c, 1, 69, 0
5, 49260, Note_on_c, 1, 68, 88
5, 49435, Note_off_c, 1, 68, 0
5, 51840, Note_on_c, 1, 59, 88
5, 52074, Note_off_c, 1, 59, 0
5, 53040, Note_on_c, 1, 66, 88
5, 53098, Note_off_c, 1, 66, 0
5, 53100, Note_on_c, 1, 61, 88
5, 53158, Note_off_c, 1, 61, 0
5, 53160, Note_on_c, 1, 63, 88
5, 53276, Note_off_c, 1, 63, 0
5, 53820, Note_on_c, 1, 66, 88
5, 53878, Note_off_c, 1, 66, 0
5, 53880, Note_on_c, 1, 64, 88
5, 53938, Note_off_c, 1, 64, 0
5, 53940, Note_on_c, 1, 62, 88
5, 53998, Note_off_c, 1, 62, 0
5, 54000, Note_on_c, 1, 61, 88
5, 54116, Note_off_c, 1, 61, 0
5, 54540, Note_on_c, 1, 71, 88
5, 54598, Note_off_c, 1, 71, 0
5, 54600, Note_on_c, 1, 69, 88
5, 54658, Note_off_c, 1, 69, 0
5, 54660, Note_on_c, 1, 68, 88
5, 54718, Note_off_c, 1, 68, 0
5, 54720, Note_on_c, 1, 66, 88
5, 54836, Note_off_c, 1, 66, 0
5, 55440, Note_on_c, 1, 68, 88
5, 55440, Note_on_c, 1, 71, 88
5, 56148, Note_off_c, 1, 68, 0
5, 56148, Note_off_c, 1, 71, 0
5, 67200, Note_on_c, 1, 64, 88
5, 67229, Note_off_c, 1, 64, 0
5, 67230, Note_on_c, 1, 63, 88
5, 67266, Note_off_c, 1, 63, 0
5, 67268, Note_on_c, 1, 64, 88
5, 67672, Note_off_c, 1, 64, 0
5, 70440, Note_on_c, 1, 69, 88
5, 70556, Note_off_c, 1, 69, 0
5, 70560, Note_on_c, 1, 69, 88
5, 70854, Note_off_c, 1, 69, 0
5, 70860, Note_on_c, 1, 68, 88
5, 71035, Note_off_c, 1, 68, 0
5, 73440, Note_on_c, 1, 59, 88
5, 73674, Note_off_c, 1, 59, 0
5, 74640, Note_on_c, 1, 66, 88
5, 74698, Note_off_c, 1, 66, 0
5, 74700, Note_on_c, 1, 61, 88
5, 74758, Note_off_c, 1, 61, 0
5, 74760, Note_on_c, 1, 63, 88
5, 74876, Note_off_c, 1, 63, 0
5, 75420, Note_on_c, 1, 66, 88
5, 75478, Note_off_c, 1, 66, 0
5, 75480, Note_on_c, 1, 64, 88
5, 75538, Note_off_c, 1, 64, 0
5, 75540, Note_on_c, 1, 62, 88
5, 75598, Note_off_c, 1, 62, 0
5, 75600, Note_on_c, 1, 61, 88
5, 75716, Note_off_c, 1, 61, 0
5, 76140, Note_on_c, 1, 71, 88
5, 76198, Note_off_c, 1, 71, 0
5, 76200, Note_on_c, 1, 69, 88
5, 76258, Note_off_c, 1, 69, 0
5, 76260, Note_on_c, 1, 68, 88
5, 76318, Note_off_c, 1, 68, 0
5, 76320, Note_on_c, 1, 66, 88
5, 76436, Note_off_c, 1, 66, 0
5, 77040, Note_on_c, 1, 68, 88
5, 77040, Note_on_c, 1, 71, 88
5, 77748, Note_off_c, 1, 68, 0
5, 77748, Note_off_c, 1, 71, 0
5, 77748, End_track
6, 0, Start_track
6, 0, Title_t, "Track 3"
6, 0, Program_c, 2, 6
6, 360, Note_on_c, 2, 68, 88
6, 476, Note_off_c, 2, 68, 0
6, 480, Note_on_c, 2, 69, 88
6, 769, Note_off_c, 2, 69, 0
6, 780, Note_on_c, 2, 69, 88
6, 838, Note_off_c, 2, 69, 0
6, 840, Note_on_c, 2, 68, 88
6, 898, Note_off_c, 2, 68, 0
6, 900, Note_on_c, 2, 66, 88
6, 958, Note_off_c, 2, 66, 0
6, 960, Note_on_c, 2, 68, 88
6, 1076, Note_off_c, 2, 68, 0
6, 1500, Note_on_c, 2, 68, 88
6, 1558, Note_off_c, 2, 68, 0
6, 1560, Note_on_c, 2, 66, 88
6, 1618, Note_off_c, 2, 66, 0
6, 1620, Note_on_c, 2, 64, 88
6, 1678, Note_off_c, 2, 64, 0
6, 1680, Note_on_c, 2, 66, 88
6, 2449, Note_off_c, 2, 66, 0
6, 2460, Note_on_c, 2, 66, 88
6, 2518, Note_off_c, 2, 66, 0
6, 2520, Note_on_c, 2, 64, 88
6, 2578, Note_off_c, 2, 64, 0
6, 2580, Note_on_c, 2, 63, 88
6, 2638, Note_off_c, 2, 63, 0
6, 2640, Note_on_c, 2, 64, 88
6, 2756, Note_off_c, 2, 64, 0
6, 3000, Note_on_c, 2, 66, 88
6, 3116, Note_off_c, 2, 66, 0
6, 3120, Note_on_c, 2, 68, 88
6, 3409, Note_off_c, 2, 68, 0
6, 3420, Note_on_c, 2, 68, 88
6, 3478, Note_off_c, 2, 68, 0
6, 3480, Note_on_c, 2, 66, 88
6, 3538, Note_off_c, 2, 66, 0
6, 3540, Note_on_c, 2, 64, 88
6, 3598, Note_off_c, 2, 64, 0
6, 3600, Note_on_c, 2, 66, 88
6, 3889, Note_off_c, 2, 66, 0
6, 3900, Note_on_c, 2, 66, 88
6, 3958, Note_off_c, 2, 66, 0
6, 3960, Note_on_c, 2, 71, 88
6, 4018, Note_off_c, 2, 71, 0
6, 4020, Note_on_c, 2, 69, 88
6, 4078, Note_off_c, 2, 69, 0
6, 4080, Note_on_c, 2, 68, 88
6, 4138, Note_off_c, 2, 68, 0
6, 4140, Note_on_c, 2, 66, 88
6, 4198, Note_off_c, 2, 66, 0
6, 4200, Note_on_c, 2, 64, 88
6, 4258, Note_off_c, 2, 64, 0
6, 4260, Note_on_c, 2, 63, 88
6, 4318, Note_off_c, 2, 63, 0
6, 4320, Note_on_c, 2, 64, 88
6, 5089, Note_off_c, 2, 64, 0
6, 5100, Note_on_c, 2, 64, 88
6, 5158, Note_off_c, 2, 64, 0
6, 5160, Note_on_c, 2, 63, 88
6, 5218, Note_off_c, 2, 63, 0
6, 5220, Note_on_c, 2, 61, 88
6, 5278, Note_off_c, 2, 61, 0
6, 5280, Note_on_c, 2, 63, 88
6, 5750, Note_off_c, 2, 63, 0
6, 5880, Note_on_c, 2, 57, 88
6, 5996, Note_off_c, 2, 57, 0
6, 6000, Note_on_c, 2, 59, 88
6, 6116, Note_off_c, 2, 59, 0
6, 6120, Note_on_c, 2, 62, 88
6, 6178, Note_off_c, 2, 62, 0
6, 6180, Note_on_c, 2, 65, 88
6, 6238, Note_off_c, 2, 65, 0
6, 6240, Note_on_c, 2, 66, 88
6, 6356, Note_off_c, 2, 66, 0
6, 6360, Note_on_c, 2, 65, 88
6, 6589, Note_off_c, 2, 65, 0
6, 6600, Note_on_c, 2, 65, 88
6, 6716, Note_off_c, 2, 65, 0
6, 6720, Note_on_c, 2, 66, 88
6, 6836, Note_off_c, 2, 66, 0
6, 6840, Note_on_c, 2, 64, 88
6, 6956, Note_off_c, 2, 64, 0
6, 6960, Note_on_c, 2, 63, 88
6, 7076, Note_off_c, 2, 63, 0
6, 7080, Note_on_c, 2, 61, 88
6, 7196, Note_off_c, 2, 61, 0
6, 7200, Note_on_c, 2, 63, 88
6, 7316, Note_off_c, 2, 63, 0
6, 7320, Note_on_c, 2, 64, 88
6, 7436, Note_off_c, 2, 64, 0
6, 7440, Note_on_c, 2, 66, 88
6, 7556, Note_off_c, 2, 66, 0
6, 7560, Note_on_c, 2, 69, 88
6, 7618, Note_off_c, 2, 69, 0
6, 7620, Note_on_c, 2, 72, 88
6, 7678, Note_off_c, 2, 72, 0
6, 7680, Note_on_c, 2, 73, 88
6, 7796, Note_off_c, 2, 73, 0
6, 7800, Note_on_c, 2, 72, 88
6, 7916, Note_off_c, 2, 72, 0
6, 7920, Note_on_c, 2, 73, 88
6, 8154, Note_off_c, 2, 73, 0
6, 8400, Note_on_c, 2, 67, 88
6, 8634, Note_off_c, 2, 67, 0
6, 8640, Note_on_c, 2, 66, 88
6, 8756, Note_off_c, 2, 66, 0
6, 9420, Note_on_c, 2, 58, 88
6, 9478, Note_off_c, 2, 58, 0
6, 9480, Note_on_c, 2, 59, 88
6, 9538, Note_off_c, 2, 59, 0
6, 9540, Note_on_c, 2, 61, 88
6, 9598, Note_off_c, 2, 61, 0
6, 9600, Note_on_c, 2, 63, 88
6, 9658, Note_off_c, 2, 63, 0
6, 9660, Note_on_c, 2, 64, 88
6, 9718, Note_off_c, 2, 64, 0
6, 9720, Note_on_c, 2, 66, 88
6, 9778, Note_off_c, 2, 66, 0
6, 9780, Note_on_c, 2, 68, 88
6, 9838, Note_off_c, 2, 68, 0
6, 9840, Note_on_c, 2, 69, 88
6, 9898, Note_off_c, 2, 69, 0
6, 9900, Note_on_c, 2, 68, 88
6, 9958, Note_off_c, 2, 68, 0
6, 9960, Note_on_c, 2, 69, 88
6, 10018, Note_off_c, 2, 69, 0
6, 10020, Note_on_c, 2, 66, 88
6, 10078, Note_off_c, 2, 66, 0
6, 10080, Note_on_c, 2, 68, 88
6, 10138, Note_off_c, 2, 68, 0
6, 10140, Note_on_c, 2, 66, 88
6, 10198, Note_off_c, 2, 66, 0
6, 10200, Note_on_c, 2, 68, 88
6, 10258, Note_off_c, 2, 68, 0
6, 10260, Note_on_c, 2, 70, 88
6, 10318, Note_off_c, 2, 70, 0
6, 10320, Note_on_c, 2, 71, 88
6, 10436, Note_off_c, 2, 71, 0
6, 10440, Note_on_c, 2, 68, 88
6, 10556, Note_off_c, 2, 68, 0
6, 10560, Note_on_c, 2, 65, 88
6, 10794, Note_off_c, 2, 65, 0
6, 10800, Note_on_c, 2, 64, 88
6, 11329, Note_off_c, 2, 64, 0
6, 11340, Note_on_c, 2, 64, 88
6, 11398, Note_off_c, 2, 64, 0
6, 11400, Note_on_c, 2, 63, 88
6, 11458, Note_off_c, 2, 63, 0
6, 11460, Note_on_c, 2, 61, 88
6, 11518, Note_off_c, 2, 61, 0
6, 11520, Note_on_c, 2, 63, 88
6, 11636, Note_off_c, 2, 63, 0
6, 11640, Note_on_c, 2, 58, 88
6, 11756, Note_off_c, 2, 58, 0
6, 11760, Note_on_c, 2, 59, 88
6, 12109, Note_off_c, 2, 59, 0
6, 12120, Note_on_c, 2, 59, 88
6, 12138, Note_off_c, 2, 59, 0
6, 12139, Note_on_c, 2, 58, 88
6, 12157, Note_off_c, 2, 58, 0
6, 12158, Note_on_c, 2, 59, 88
6, 12176, Note_on_c, 2, 58, 88
6, 12176, Note_off_c, 2, 59, 0
6, 12194, Note_off_c, 2, 58, 0
6, 12195, Note_on_c, 2, 59, 88
6, 12210, Note_on_c, 2, 58, 88
6, 12210, Note_off_c, 2, 59, 0
6, 12239, Note_off_c, 2, 58, 0
6, 12240, Note_on_c, 2, 59, 88
6, 12474, Note_off_c, 2, 59, 0
6, 12540, Note_on_c, 2, 66, 88
6, 12598, Note_off_c, 2, 66, 0
6, 12600, Note_on_c, 2, 64, 88
6, 12658, Note_off_c, 2, 64, 0
6, 12660, Note_on_c, 2, 66, 88
6, 12776, Note_off_c, 2, 66, 0
6, 12780, Note_on_c, 2, 64, 88
6, 12838, Note_off_c, 2, 64, 0
6, 12840, Note_on_c, 2, 63, 88
6, 12898, Note_off_c, 2, 63, 0
6, 12900, Note_on_c, 2, 64, 88
6, 13194, Note_off_c, 2, 64, 0
6, 13260, Note_on_c, 2, 64, 88
6, 13318, Note_off_c, 2, 64, 0
6, 13320, Note_on_c, 2, 63, 88
6, 13378, Note_off_c, 2, 63, 0
6, 13380, Note_on_c, 2, 64, 88
6, 13496, Note_off_c, 2, 64, 0
6, 13500, Note_on_c, 2, 63, 88
6, 13558, Note_off_c, 2, 63, 0
6, 13560, Note_on_c, 2, 61, 88
6, 13618, Note_off_c, 2, 61, 0
6, 13620, Note_on_c, 2, 63, 88
6, 13914, Note_off_c, 2, 63, 0
6, 13980, Note_on_c, 2, 63, 88
6, 14038, Note_off_c, 2, 63, 0
6, 14040, Note_on_c, 2, 61, 88
6, 14098, Note_off_c, 2, 61, 0
6, 14100, Note_on_c, 2, 63, 88
6, 14216, Note_off_c, 2, 63, 0
6, 14220, Note_on_c, 2, 61, 88
6, 14278, Note_off_c, 2, 61, 0
6, 14280, Note_on_c, 2, 59, 88
6, 14338, Note_off_c, 2, 59, 0
6, 14340, Note_on_c, 2, 61, 88
6, 14634, Note_off_c, 2, 61, 0
6, 14760, Note_on_c, 2, 61, 88
6, 14876, Note_off_c, 2, 61, 0
6, 14880, Note_on_c, 2, 59, 88
6, 14996, Note_off_c, 2, 59, 0
6, 15240, Note_on_c, 2, 63, 88
6, 15356, Note_off_c, 2, 63, 0
6, 15360, Note_on_c, 2, 61, 88
6, 15476, Note_off_c, 2, 61, 0
6, 15720, Note_on_c, 2, 61, 88
6, 15836, Note_off_c, 2, 61, 0
6, 15840, Note_on_c, 2, 58, 88
6, 16074, Note_off_c, 2, 58, 0
6, 16080, Note_on_c, 2, 59, 88
6, 16314, Note_off_c, 2, 59, 0
6, 16440, Note_on_c, 2, 54, 88
6, 16676, Note_off_c, 2, 54, 0
6, 16680, Note_on_c, 2, 55, 88
6, 16796, Note_off_c, 2, 55, 0
6, 16800, Note_on_c, 2, 54, 88
6, 16916, Note_off_c, 2, 54, 0
6, 16920, Note_on_c, 2, 52, 88
6, 17036, Note_off_c, 2, 52, 0
6, 17040, Note_on_c, 2, 54, 88
6, 17274, Note_off_c, 2, 54, 0
6, 17640, Note_on_c, 2, 68, 88
6, 17756, Note_off_c, 2, 68, 0
6, 17760, Note_on_c, 2, 69, 88
6, 18049, Note_off_c, 2, 69, 0
6, 18060, Note_on_c, 2, 69, 88
6, 18118, Note_off_c, 2, 69, 0
6, 18120, Note_on_c, 2, 68, 88
6, 18178, Note_off_c, 2, 68, 0
6, 18180, Note_on_c, 2, 66, 88
6, 18238, Note_off_c, 2, 66, 0
6, 18240, Note_on_c, 2, 68, 88
6, 18356, Note_off_c, 2, 68, 0
6, 18780, Note_on_c, 2, 68, 88
6, 18838, Note_off_c, 2, 68, 0
6, 18840, Note_on_c, 2, 66, 88
6, 18898, Note_off_c, 2, 66, 0
6, 18900, Note_on_c, 2, 64, 88
6, 18958, Note_off_c, 2, 64, 0
6, 18960, Note_on_c, 2, 66, 88
6, 19729, Note_off_c, 2, 66, 0
6, 19740, Note_on_c, 2, 66, 88
6, 19798, Note_off_c, 2, 66, 0
6, 19800, Note_on_c, 2, 64, 88
6, 19858, Note_off_c, 2, 64, 0
6, 19860, Note_on_c, 2, 63, 88
6, 19918, Note_off_c, 2, 63, 0
6, 19920, Note_on_c, 2, 64, 88
6, 20036, Note_off_c, 2, 64, 0
6, 20280, Note_on_c, 2, 66, 88
6, 20396, Note_off_c, 2, 66, 0
6, 20400, Note_on_c, 2, 68, 88
6, 20689, Note_off_c, 2, 68, 0
6, 20700, Note_on_c, 2, 68, 88
6, 20758, Note_off_c, 2, 68, 0
6, 20760, Note_on_c, 2, 66, 88
6, 20818, Note_off_c, 2, 66, 0
6, 20820, Note_on_c, 2, 64, 88
6, 20878, Note_off_c, 2, 64, 0
6, 20880, Note_on_c, 2, 66, 88
6, 21169, Note_off_c, 2, 66, 0
6, 21180, Note_on_c, 2, 66, 88
6, 21238, Note_off_c, 2, 66, 0
6, 21240, Note_on_c, 2, 71, 88
6, 21298, Note_off_c, 2, 71, 0
6, 21300, Note_on_c, 2, 69, 88
6, 21358, Note_off_c, 2, 69, 0
6, 21360, Note_on_c, 2, 68, 88
6, 21418, Note_off_c, 2, 68, 0
6, 21420, Note_on_c, 2, 66, 88
6, 21478, Note_off_c, 2, 66, 0
6, 21480, Note_on_c, 2, 64, 88
6, 21538, Note_off_c, 2, 64, 0
6, 21540, Note_on_c, 2, 63, 88
6, 21598, Note_off_c, 2, 63, 0
6, 21600, Note_on_c, 2, 64, 88
6, 22369, Note_off_c, 2, 64, 0
6, 22380, Note_on_c, 2, 64, 88
6, 22438, Note_off_c, 2, 64, 0
6, 22440, Note_on_c, 2, 63, 88
6, 22498, Note_off_c, 2, 63, 0
6, 22500, Note_on_c, 2, 61, 88
6, 22558, Note_off_c, 2, 61, 0
6, 22560, Note_on_c, 2, 63, 88
6, 23030, Note_off_c, 2, 63, 0
6, 23160, Note_on_c, 2, 57, 88
6, 23276, Note_off_c, 2, 57, 0
6, 23280, Note_on_c, 2, 59, 88
6, 23396, Note_off_c, 2, 59, 0
6, 23400, Note_on_c, 2, 62, 88
6, 23458, Note_off_c, 2, 62, 0
6, 23460, Note_on_c, 2, 65, 88
6, 23518, Note_off_c, 2, 65, 0
6, 23520, Note_on_c, 2, 66, 88
6, 23636, Note_off_c, 2, 66, 0
6, 23640, Note_on_c, 2, 65, 88
6, 23869, Note_off_c, 2, 65, 0
6, 23880, Note_on_c, 2, 65, 88
6, 23996, Note_off_c, 2, 65, 0
6, 24000, Note_on_c, 2, 66, 88
6, 24116, Note_off_c, 2, 66, 0
6, 24120, Note_on_c, 2, 64, 88
6, 24236, Note_off_c, 2, 64, 0
6, 24240, Note_on_c, 2, 63, 88
6, 24356, Note_off_c, 2, 63, 0
6, 24360, Note_on_c, 2, 61, 88
6, 24476, Note_off_c, 2, 61, 0
6, 24480, Note_on_c, 2, 63, 88
6, 24596, Note_off_c, 2, 63, 0
6, 24600, Note_on_c, 2, 64, 88
6, 24716, Note_off_c, 2, 64, 0
6, 24720, Note_on_c, 2, 66, 88
6, 24836, Note_off_c, 2, 66, 0
6, 24840, Note_on_c, 2, 69, 88
6, 24898, Note_off_c, 2, 69, 0
6, 24900, Note_on_c, 2, 72, 88
6, 24958, Note_off_c, 2, 72, 0
6, 24960, Note_on_c, 2, 73, 88
6, 25076, Note_off_c, 2, 73, 0
6, 25080, Note_on_c, 2, 72, 88
6, 25196, Note_off_c, 2, 72, 0
6, 25200, Note_on_c, 2, 73, 88
6, 25434, Note_off_c, 2, 73, 0
6, 25680, Note_on_c, 2, 67, 88
6, 25914, Note_off_c, 2, 67, 0
6, 25920, Note_on_c, 2, 66, 88
6, 26036, Note_off_c, 2, 66, 0
6, 26700, Note_on_c, 2, 58, 88
6, 26758, Note_off_c, 2, 58, 0
6, 26760, Note_on_c, 2, 59, 88
6, 26818, Note_off_c, 2, 59, 0
6, 26820, Note_on_c, 2, 61, 88
6, 26878, Note_off_c, 2, 61, 0
6, 26880, Note_on_c, 2, 63, 88
6, 26938, Note_off_c, 2, 63, 0
6, 26940, Note_on_c, 2, 64, 88
6, 26998, Note_off_c, 2, 64, 0
6, 27000, Note_on_c, 2, 66, 88
6, 27058, Note_off_c, 2, 66, 0
6, 27060, Note_on_c, 2, 68, 88
6, 27118, Note_off_c, 2, 68, 0
6, 27120, Note_on_c, 2, 69, 88
6, 27178, Note_off_c, 2, 69, 0
6, 27180, Note_on_c, 2, 68, 88
6, 27238, Note_off_c, 2, 68, 0
6, 27240, Note_on_c, 2, 69, 88
6, 27298, Note_off_c, 2, 69, 0
6, 27300, Note_on_c, 2, 66, 88
6, 27358, Note_off_c, 2, 66, 0
6, 27360, Note_on_c, 2, 68, 88
6, 27418, Note_off_c, 2, 68, 0
6, 27420, Note_on_c, 2, 66, 88
6, 27478, Note_off_c, 2, 66, 0
6, 27480, Note_on_c, 2, 68, 88
6, 27538, Note_off_c, 2, 68, 0
6, 27540, Note_on_c, 2, 70, 88
6, 27598, Note_off_c, 2, 70, 0
6, 27600, Note_on_c, 2, 71, 88
6, 27716, Note_off_c, 2, 71, 0
6, 27720, Note_on_c, 2, 68, 88
6, 27836, Note_off_c, 2, 68, 0
6, 27840, Note_on_c, 2, 65, 88
6, 28074, Note_off_c, 2, 65, 0
6, 28080, Note_on_c, 2, 64, 88
6, 28609, Note_off_c, 2, 64, 0
6, 28620, Note_on_c, 2, 64, 88
6, 28678, Note_off_c, 2, 64, 0
6, 28680, Note_on_c, 2, 63, 88
6, 28738, Note_off_c, 2, 63, 0
6, 28740, Note_on_c, 2, 61, 88
6, 28798, Note_off_c, 2, 61, 0
6, 28800, Note_on_c, 2, 63, 88
6, 28916, Note_off_c, 2, 63, 0
6, 28920, Note_on_c, 2, 58, 88
6, 29036, Note_off_c, 2, 58, 0
6, 29040, Note_on_c, 2, 59, 88
6, 29389, Note_off_c, 2, 59, 0
6, 29400, Note_on_c, 2, 59, 88
6, 29418, Note_off_c, 2, 59, 0
6, 29419, Note_on_c, 2, 58, 88
6, 29437, Note_off_c, 2, 58, 0
6, 29438, Note_on_c, 2, 59, 88
6, 29456, Note_on_c, 2, 58, 88
6, 29456, Note_off_c, 2, 59, 0
6, 29474, Note_off_c, 2, 58, 0
6, 29475, Note_on_c, 2, 59, 88
6, 29490, Note_on_c, 2, 58, 88
6, 29490, Note_off_c, 2, 59, 0
6, 29519, Note_off_c, 2, 58, 0
6, 29520, Note_on_c, 2, 59, 88
6, 29754, Note_off_c, 2, 59, 0
6, 29820, Note_on_c, 2, 66, 88
6, 29878, Note_off_c, 2, 66, 0
6, 29880, Note_on_c, 2, 64, 88
6, 29938, Note_off_c, 2, 64, 0
6, 29940, Note_on_c, 2, 66, 88
6, 30056, Note_off_c, 2, 66, 0
6, 30060, Note_on_c, 2, 64, 88
6, 30118, Note_off_c, 2, 64, 0
6, 30120, Note_on_c, 2, 63, 88
6, 30178, Note_off_c, 2, 63, 0
6, 30180, Note_on_c, 2, 64, 88
6, 30474, Note_off_c, 2, 64, 0
6, 30540, Note_on_c, 2, 64, 88
6, 30598, Note_off_c, 2, 64, 0
6, 30600, Note_on_c, 2, 63, 88
6, 30658, Note_off_c, 2, 63, 0
6, 30660, Note_on_c, 2, 64, 88
6, 30776, Note_off_c, 2, 64, 0
6, 30780, Note_on_c, 2, 63, 88
6, 30838, Note_off_c, 2, 63, 0
6, 30840, Note_on_c, 2, 61, 88
6, 30898, Note_off_c, 2, 61, 0
6, 30900, Note_on_c, 2, 63, 88
6, 31194, Note_off_c, 2, 63, 0
6, 31260, Note_on_c, 2, 63, 88
6, 31318, Note_off_c, 2, 63, 0
6, 31320, Note_on_c, 2, 61, 88
6, 31378, Note_off_c, 2, 61, 0
6, 31380, Note_on_c, 2, 63, 88
6, 31496, Note_off_c, 2, 63, 0
6, 31500, Note_on_c, 2, 61, 88
6, 31558, Note_off_c, 2, 61, 0
6, 31560, Note_on_c, 2, 59, 88
6, 31618, Note_off_c, 2, 59, 0
6, 31620, Note_on_c, 2, 61, 88
6, 31914, Note_off_c, 2, 61, 0
6, 32040, Note_on_c, 2, 61, 88
6, 32156, Note_off_c, 2, 61, 0
6, 32160, Note_on_c, 2, 59, 88
6, 32276, Note_off_c, 2, 59, 0
6, 32520, Note_on_c, 2, 63, 88
6, 32636, Note_off_c, 2, 63, 0
6, 32640, Note_on_c, 2, 61, 88
6, 32756, Note_off_c, 2, 61, 0
6, 33000, Note_on_c, 2, 61, 88
6, 33116, Note_off_c, 2, 61, 0
6, 33120, Note_on_c, 2, 58, 88
6, 33354, Note_off_c, 2, 58, 0
6, 33360, Note_on_c, 2, 59, 88
6, 33594, Note_off_c, 2, 59, 0
6, 33720, Note_on_c, 2, 54, 88
6, 33956, Note_off_c, 2, 54, 0
6, 33960, Note_on_c, 2, 55, 88
6, 34076, Note_off_c, 2, 55, 0
6, 34080, Note_on_c, 2, 54, 88
6, 34196, Note_off_c, 2, 54, 0
6, 34200, Note_on_c, 2, 52, 88
6, 34316, Note_off_c, 2, 52, 0
6, 34320, Note_on_c, 2, 54, 88
6, 34554, Note_off_c, 2, 54, 0
6, 34920, Note_on_c, 2, 75, 88
6, 35036, Note_off_c, 2, 75, 0
6, 35040, Note_on_c, 2, 76, 88
6, 35329, Note_off_c, 2, 76, 0
6, 35340, Note_on_c, 2, 76, 88
6, 35398, Note_off_c, 2, 76, 0
6, 35400, Note_on_c, 2, 75, 88
6, 35458, Note_off_c, 2, 75, 0
6, 35460, Note_on_c, 2, 73, 88
6, 35518, Note_off_c, 2, 73, 0
6, 35520, Note_on_c, 2, 75, 88
6, 35636, Note_off_c, 2, 75, 0
6, 36060, Note_on_c, 2, 75, 88
6, 36118, Note_off_c, 2, 75, 0
6, 36120, Note_on_c, 2, 73, 88
6, 36178, Note_off_c, 2, 73, 0
6, 36180, Note_on_c, 2, 72, 88
6, 36238, Note_off_c, 2, 72, 0
6, 36240, Note_on_c, 2, 73, 88
6, 36474, Note_off_c, 2, 73, 0
6, 36480, Note_on_c, 2, 66, 88
6, 36769, Note_off_c, 2, 66, 0
6, 36780, Note_on_c, 2, 66, 88
6, 36838, Note_off_c, 2, 66, 0
6, 36840, Note_on_c, 2, 68, 88
6, 36898, Note_off_c, 2, 68, 0
6, 36900, Note_on_c, 2, 69, 88
6, 36958, Note_off_c, 2, 69, 0
6, 36960, Note_on_c, 2, 68, 88
6, 37018, Note_off_c, 2, 68, 0
6, 37020, Note_on_c, 2, 66, 88
6, 37078, Note_off_c, 2, 66, 0
6, 37080, Note_on_c, 2, 64, 88
6, 37138, Note_off_c, 2, 64, 0
6, 37140, Note_on_c, 2, 63, 88
6, 37198, Note_off_c, 2, 63, 0
6, 37200, Note_on_c, 2, 61, 88
6, 37258, Note_off_c, 2, 61, 0
6, 37260, Note_on_c, 2, 60, 88
6, 37318, Note_off_c, 2, 60, 0
6, 37320, Note_on_c, 2, 61, 88
6, 37378, Note_off_c, 2, 61, 0
6, 37380, Note_on_c, 2, 63, 88
6, 37438, Note_off_c, 2, 63, 0
6, 37440, Note_on_c, 2, 56, 88
6, 37556, Note_off_c, 2, 56, 0
6, 37560, Note_on_c, 2, 61, 88
6, 37669, Note_off_c, 2, 61, 0
6, 37680, Note_on_c, 2, 61, 88
6, 37796, Note_off_c, 2, 61, 0
6, 37800, Note_on_c, 2, 56, 88
6, 37909, Note_off_c, 2, 56, 0
6, 37920, Note_on_c, 2, 56, 88
6, 38029, Note_off_c, 2, 56, 0
6, 38040, Note_on_c, 2, 56, 88
6, 38156, Note_off_c, 2, 56, 0
6, 38160, Note_on_c, 2, 56, 88
6, 38276, Note_off_c, 2, 56, 0
6, 38280, Note_on_c, 2, 63, 88
6, 38389, Note_off_c, 2, 63, 0
6, 38400, Note_on_c, 2, 63, 88
6, 38516, Note_off_c, 2, 63, 0
6, 38520, Note_on_c, 2, 56, 88
6, 38629, Note_off_c, 2, 56, 0
6, 38640, Note_on_c, 2, 56, 88
6, 38749, Note_off_c, 2, 56, 0
6, 38760, Note_on_c, 2, 56, 88
6, 38876, Note_off_c, 2, 56, 0
6, 38880, Note_on_c, 2, 56, 88
6, 38938, Note_off_c, 2, 56, 0
6, 38940, Note_on_c, 2, 73, 88
6, 38998, Note_off_c, 2, 73, 0
6, 39000, Note_on_c, 2, 68, 88
6, 39058, Note_off_c, 2, 68, 0
6, 39060, Note_on_c, 2, 71, 88
6, 39118, Note_off_c, 2, 71, 0
6, 39120, Note_on_c, 2, 69, 88
6, 39178, Note_off_c, 2, 69, 0
6, 39180, Note_on_c, 2, 73, 88
6, 39238, Note_off_c, 2, 73, 0
6, 39240, Note_on_c, 2, 66, 88
6, 39356, Note_off_c, 2, 66, 0
6, 39360, Note_on_c, 2, 64, 88
6, 39476, Note_off_c, 2, 64, 0
6, 39480, Note_on_c, 2, 63, 88
6, 39596, Note_off_c, 2, 63, 0
6, 39600, Note_on_c, 2, 64, 88
6, 39658, Note_off_c, 2, 64, 0
6, 39660, Note_on_c, 2, 69, 88
6, 39718, Note_off_c, 2, 69, 0
6, 39720, Note_on_c, 2, 68, 88
6, 39778, Note_off_c, 2, 68, 0
6, 39780, Note_on_c, 2, 66, 88
6, 39838, Note_off_c, 2, 66, 0
6, 39840, Note_on_c, 2, 64, 88
6, 39898, Note_off_c, 2, 64, 0
6, 39900, Note_on_c, 2, 63, 88
6, 39958, Note_off_c, 2, 63, 0
6, 39960, Note_on_c, 2, 64, 88
6, 40018, Note_off_c, 2, 64, 0
6, 40020, Note_on_c, 2, 66, 88
6, 40078, Note_off_c, 2, 66, 0
6, 40080, Note_on_c, 2, 68, 88
6, 40138, Note_off_c, 2, 68, 0
6, 40140, Note_on_c, 2, 69, 88
6, 40198, Note_off_c, 2, 69, 0
6, 40200, Note_on_c, 2, 71, 88
6, 40229, Note_off_c, 2, 71, 0
6, 40230, Note_on_c, 2, 69, 88
6, 40259, Note_off_c, 2, 69, 0
6, 40260, Note_on_c, 2, 68, 88
6, 40289, Note_off_c, 2, 68, 0
6, 40290, Note_on_c, 2, 69, 88
6, 40319, Note_off_c, 2, 69, 0
6, 40320, Note_on_c, 2, 71, 88
6, 40436, Note_off_c, 2, 71, 0
6, 41160, Note_on_c, 2, 71, 88
6, 41276, Note_off_c, 2, 71, 0
6, 41280, Note_on_c, 2, 69, 88
6, 41396, Note_off_c, 2, 69, 0
6, 41400, Note_on_c, 2, 68, 88
6, 41516, Note_off_c, 2, 68, 0
6, 41520, Note_on_c, 2, 66, 88
6, 41636, Note_off_c, 2, 66, 0
6, 41640, Note_on_c, 2, 64, 88
6, 41756, Note_off_c, 2, 64, 0
6, 41760, Note_on_c, 2, 63, 88
6, 41876, Note_off_c, 2, 63, 0
6, 41880, Note_on_c, 2, 64, 88
6, 41996, Note_off_c, 2, 64, 0
6, 42000, Note_on_c, 2, 63, 88
6, 42116, Note_off_c, 2, 63, 0
6, 42120, Note_on_c, 2, 61, 88
6, 42236, Note_off_c, 2, 61, 0
6, 42240, Note_on_c, 2, 59, 88
6, 42538, Note_off_c, 2, 59, 0
6, 42540, Note_on_c, 2, 66, 88
6, 42598, Note_off_c, 2, 66, 0
6, 42600, Note_on_c, 2, 64, 88
6, 42658, Note_off_c, 2, 64, 0
6, 42660, Note_on_c, 2, 63, 88
6, 42718, Note_off_c, 2, 63, 0
6, 42720, Note_on_c, 2, 64, 88
6, 42778, Note_off_c, 2, 64, 0
6, 42780, Note_on_c, 2, 74, 88
6, 42838, Note_off_c, 2, 74, 0
6, 42840, Note_on_c, 2, 73, 88
6, 42898, Note_off_c, 2, 73, 0
6, 42900, Note_on_c, 2, 71, 88
6, 42958, Note_off_c, 2, 71, 0
6, 42960, Note_on_c, 2, 76, 88
6, 43018, Note_off_c, 2, 76, 0
6, 43020, Note_on_c, 2, 69, 88
6, 43078, Note_off_c, 2, 69, 0
6, 43080, Note_on_c, 2, 68, 88
6, 43138, Note_off_c, 2, 68, 0
6, 43140, Note_on_c, 2, 74, 88
6, 43198, Note_off_c, 2, 74, 0
6, 43200, Note_on_c, 2, 73, 88
6, 43670, Note_off_c, 2, 73, 0
6, 43680, Note_on_c, 2, 71, 88
6, 44390, Note_off_c, 2, 71, 0
6, 44400, Note_on_c, 2, 69, 88
6, 45230, Note_off_c, 2, 69, 0
6, 45240, Note_on_c, 2, 63, 88
6, 45418, Note_off_c, 2, 63, 0
6, 45420, Note_on_c, 2, 59, 88
6, 45832, Note_off_c, 2, 59, 0
6, 46080, Note_on_c, 2, 61, 88
6, 46314, Note_off_c, 2, 61, 0
6, 46860, Note_on_c, 2, 64, 88
6, 46918, Note_off_c, 2, 64, 0
6, 46920, Note_on_c, 2, 63, 88
6, 46978, Note_off_c, 2, 63, 0
6, 46980, Note_on_c, 2, 61, 88
6, 47038, Note_off_c, 2, 61, 0
6, 47040, Note_on_c, 2, 59, 88
6, 47098, Note_off_c, 2, 59, 0
6, 47100, Note_on_c, 2, 58, 88
6, 47158, Note_off_c, 2, 58, 0
6, 47160, Note_on_c, 2, 59, 88
6, 47218, Note_off_c, 2, 59, 0
6, 47220, Note_on_c, 2, 61, 88
6, 47278, Note_off_c, 2, 61, 0
6, 47280, Note_on_c, 2, 63, 88
6, 47338, Note_off_c, 2, 63, 0
6, 47340, Note_on_c, 2, 64, 88
6, 47398, Note_off_c, 2, 64, 0
6, 47400, Note_on_c, 2, 66, 88
6, 47429, Note_off_c, 2, 66, 0
6, 47430, Note_on_c, 2, 64, 88
6, 47459, Note_off_c, 2, 64, 0
6, 47460, Note_on_c, 2, 63, 88
6, 47489, Note_off_c, 2, 63, 0
6, 47490, Note_on_c, 2, 64, 88
6, 47519, Note_off_c, 2, 64, 0
6, 47520, Note_on_c, 2, 66, 88
6, 47636, Note_off_c, 2, 66, 0
6, 47880, Note_on_c, 2, 66, 88
6, 47996, Note_off_c, 2, 66, 0
6, 48000, Note_on_c, 2, 64, 88
6, 48116, Note_off_c, 2, 64, 0
6, 48360, Note_on_c, 2, 68, 88
6, 48476, Note_off_c, 2, 68, 0
6, 48480, Note_on_c, 2, 66, 88
6, 48596, Note_off_c, 2, 66, 0
6, 48840, Note_on_c, 2, 66, 88
6, 48956, Note_off_c, 2, 66, 0
6, 48960, Note_on_c, 2, 63, 88
6, 49194, Note_off_c, 2, 63, 0
6, 49200, Note_on_c, 2, 64, 88
6, 49434, Note_off_c, 2, 64, 0
6, 49440, Note_on_c, 2, 66, 88
6, 49556, Note_off_c, 2, 66, 0
6, 49560, Note_on_c, 2, 69, 88
6, 49676, Note_off_c, 2, 69, 0
6, 49680, Note_on_c, 2, 68, 88
6, 49914, Note_off_c, 2, 68, 0
6, 49980, Note_on_c, 2, 71, 88
6, 50038, Note_off_c, 2, 71, 0
6, 50040, Note_on_c, 2, 69, 88
6, 50098, Note_off_c, 2, 69, 0
6, 50100, Note_on_c, 2, 71, 88
6, 50158, Note_off_c, 2, 71, 0
6, 50220, Note_on_c, 2, 69, 88
6, 50278, Note_off_c, 2, 69, 0
6, 50280, Note_on_c, 2, 68, 88
6, 50338, Note_off_c, 2, 68, 0
6, 50340, Note_on_c, 2, 69, 88
6, 50634, Note_off_c, 2, 69, 0
6, 50700, Note_on_c, 2, 69, 88
6, 50758, Note_off_c, 2, 69, 0
6, 50760, Note_on_c, 2, 68, 88
6, 50818, Note_off_c, 2, 68, 0
6, 50820, Note_on_c, 2, 69, 88
6, 50936, Note_off_c, 2, 69, 0
6, 50940, Note_on_c, 2, 68, 88
6, 50998, Note_off_c, 2, 68, 0
6, 51000, Note_on_c, 2, 66, 88
6, 51058, Note_off_c, 2, 66, 0
6, 51060, Note_on_c, 2, 68, 88
6, 51354, Note_off_c, 2, 68, 0
6, 51420, Note_on_c, 2, 68, 88
6, 51478, Note_off_c, 2, 68, 0
6, 51480, Note_on_c, 2, 66, 88
6, 51538, Note_off_c, 2, 66, 0
6, 51540, Note_on_c, 2, 68, 88
6, 51598, Note_off_c, 2, 68, 0
6, 51660, Note_on_c, 2, 66, 88
6, 51718, Note_off_c, 2, 66, 0
6, 51720, Note_on_c, 2, 64, 88
6, 51778, Note_off_c, 2, 64, 0
6, 51780, Note_on_c, 2, 66, 88
6, 52074, Note_off_c, 2, 66, 0
6, 52380, Note_on_c, 2, 59, 88
6, 52438, Note_off_c, 2, 59, 0
6, 52440, Note_on_c, 2, 61, 88
6, 52498, Note_off_c, 2, 61, 0
6, 52500, Note_on_c, 2, 63, 88
6, 52558, Note_off_c, 2, 63, 0
6, 52560, Note_on_c, 2, 64, 88
6, 52794, Note_off_c, 2, 64, 0
6, 53220, Note_on_c, 2, 57, 88
6, 53278, Note_off_c, 2, 57, 0
6, 53280, Note_on_c, 2, 56, 88
6, 53396, Note_off_c, 2, 56, 0
6, 53400, Note_on_c, 2, 54, 88
6, 53516, Note_off_c, 2, 54, 0
6, 53520, Note_on_c, 2, 56, 88
6, 53636, Note_off_c, 2, 56, 0
6, 53640, Note_on_c, 2, 59, 88
6, 53756, Note_off_c, 2, 59, 0
6, 53760, Note_on_c, 2, 57, 88
6, 53876, Note_off_c, 2, 57, 0
6, 53880, Note_on_c, 2, 56, 88
6, 53996, Note_off_c, 2, 56, 0
6, 54000, Note_on_c, 2, 57, 88
6, 54116, Note_off_c, 2, 57, 0
6, 54120, Note_on_c, 2, 59, 88
6, 54236, Note_off_c, 2, 59, 0
6, 54240, Note_on_c, 2, 61, 88
6, 54356, Note_off_c, 2, 61, 0
6, 54360, Note_on_c, 2, 64, 88
6, 54476, Note_off_c, 2, 64, 0
6, 54600, Note_on_c, 2, 59, 88
6, 54716, Note_off_c, 2, 59, 0
6, 54720, Note_on_c, 2, 60, 88
6, 54954, Note_off_c, 2, 60, 0
6, 55080, Note_on_c, 2, 60, 88
6, 55189, Note_off_c, 2, 60, 0
6, 55200, Note_on_c, 2, 60, 88
6, 55309, Note_off_c, 2, 60, 0
6, 55320, Note_on_c, 2, 60, 88
6, 55436, Note_off_c, 2, 60, 0
6, 55440, Note_on_c, 2, 59, 88
6, 56148, Note_off_c, 2, 59, 0
6, 56520, Note_on_c, 2, 75, 88
6, 56636, Note_off_c, 2, 75, 0
6, 56640, Note_on_c, 2, 76, 88
6, 56929, Note_off_c, 2, 76, 0
6, 56940, Note_on_c, 2, 76, 88
6, 56998, Note_off_c, 2, 76, 0
6, 57000, Note_on_c, 2, 75, 88
6, 57058, Note_off_c, 2, 75, 0
6, 57060, Note_on_c, 2, 73, 88
6, 57118, Note_off_c, 2, 73, 0
6, 57120, Note_on_c, 2, 75, 88
6, 57236, Note_off_c, 2, 75, 0
6, 57660, Note_on_c, 2, 75, 88
6, 57718, Note_off_c, 2, 75, 0
6, 57720, Note_on_c, 2, 73, 88
6, 57778, Note_off_c, 2, 73, 0
6, 57780, Note_on_c, 2, 72, 88
6, 57838, Note_off_c, 2, 72, 0
6, 57840, Note_on_c, 2, 73, 88
6, 58074, Note_off_c, 2, 73, 0
6, 58080, Note_on_c, 2, 66, 88
6, 58369, Note_off_c, 2, 66, 0
6, 58380, Note_on_c, 2, 66, 88
6, 58438, Note_off_c, 2, 66, 0
6, 58440, Note_on_c, 2, 68, 88
6, 58498, Note_off_c, 2, 68, 0
6, 58500, Note_on_c, 2, 69, 88
6, 58558, Note_off_c, 2, 69, 0
6, 58560, Note_on_c, 2, 68, 88
6, 58618, Note_off_c, 2, 68, 0
6, 58620, Note_on_c, 2, 66, 88
6, 58678, Note_off_c, 2, 66, 0
6, 58680, Note_on_c, 2, 64, 88
6, 58738, Note_off_c, 2, 64, 0
6, 58740, Note_on_c, 2, 63, 88
6, 58798, Note_off_c, 2, 63, 0
6, 58800, Note_on_c, 2, 61, 88
6, 58858, Note_off_c, 2, 61, 0
6, 58860, Note_on_c, 2, 60, 88
6, 58918, Note_off_c, 2, 60, 0
6, 58920, Note_on_c, 2, 61, 88
6, 58978, Note_off_c, 2, 61, 0
6, 58980, Note_on_c, 2, 63, 88
6, 59038, Note_off_c, 2, 63, 0
6, 59040, Note_on_c, 2, 56, 88
6, 59156, Note_off_c, 2, 56, 0
6, 59160, Note_on_c, 2, 61, 88
6, 59269, Note_off_c, 2, 61, 0
6, 59280, Note_on_c, 2, 61, 88
6, 59396, Note_off_c, 2, 61, 0
6, 59400, Note_on_c, 2, 56, 88
6, 59509, Note_off_c, 2, 56, 0
6, 59520, Note_on_c, 2, 56, 88
6, 59629, Note_off_c, 2, 56, 0
6, 59640, Note_on_c, 2, 56, 88
6, 59756, Note_off_c, 2, 56, 0
6, 59760, Note_on_c, 2, 56, 88
6, 59876, Note_off_c, 2, 56, 0
6, 59880, Note_on_c, 2, 63, 88
6, 59989, Note_off_c, 2, 63, 0
6, 60000, Note_on_c, 2, 63, 88
6, 60116, Note_off_c, 2, 63, 0
6, 60120, Note_on_c, 2, 56, 88
6, 60229, Note_off_c, 2, 56, 0
6, 60240, Note_on_c, 2, 56, 88
6, 60349, Note_off_c, 2, 56, 0
6, 60360, Note_on_c, 2, 56, 88
6, 60476, Note_off_c, 2, 56, 0
6, 60480, Note_on_c, 2, 56, 88
6, 60538, Note_off_c, 2, 56, 0
6, 60540, Note_on_c, 2, 73, 88
6, 60598, Note_off_c, 2, 73, 0
6, 60600, Note_on_c, 2, 68, 88
6, 60658, Note_off_c, 2, 68, 0
6, 60660, Note_on_c, 2, 71, 88
6, 60718, Note_off_c, 2, 71, 0
6, 60720, Note_on_c, 2, 69, 88
6, 60778, Note_off_c, 2, 69, 0
6, 60780, Note_on_c, 2, 73, 88
6, 60838, Note_off_c, 2, 73, 0
6, 60840, Note_on_c, 2, 66, 88
6, 60956, Note_off_c, 2, 66, 0
6, 60960, Note_on_c, 2, 64, 88
6, 61076, Note_off_c, 2, 64, 0
6, 61080, Note_on_c, 2, 63, 88
6, 61196, Note_off_c, 2, 63, 0
6, 61200, Note_on_c, 2, 64, 88
6, 61258, Note_off_c, 2, 64, 0
6, 61260, Note_on_c, 2, 69, 88
6, 61318, Note_off_c, 2, 69, 0
6, 61320, Note_on_c, 2, 68, 88
6, 61378, Note_off_c, 2, 68, 0
6, 61380, Note_on_c, 2, 66, 88
6, 61438, Note_off_c, 2, 66, 0
6, 61440, Note_on_c, 2, 64, 88
6, 61498, Note_off_c, 2, 64, 0
6, 61500, Note_on_c, 2, 63, 88
6, 61558, Note_off_c, 2, 63, 0
6, 61560, Note_on_c, 2, 64, 88
6, 61618, Note_off_c, 2, 64, 0
6, 61620, Note_on_c, 2, 66, 88
6, 61678, Note_off_c, 2, 66, 0
6, 61680, Note_on_c, 2, 68, 88
6, 61738, Note_off_c, 2, 68, 0
6, 61740, Note_on_c, 2, 69, 88
6, 61798, Note_off_c, 2, 69, 0
6, 61800, Note_on_c, 2, 71, 88
6, 61829, Note_off_c, 2, 71, 0
6, 61830, Note_on_c, 2, 69, 88
6, 61859, Note_off_c, 2, 69, 0
6, 61860, Note_on_c, 2, 68, 88
6, 61889, Note_off_c, 2, 68, 0
6, 61890, Note_on_c, 2, 69, 88
6, 61919, Note_off_c, 2, 69, 0
6, 61920, Note_on_c, 2, 71, 88
6, 62036, Note_off_c, 2, 71, 0
6, 62760, Note_on_c, 2, 71, 88
6, 62876, Note_off_c, 2, 71, 0
6, 62880, Note_on_c, 2, 69, 88
6, 62996, Note_off_c, 2, 69, 0
6, 63000, Note_on_c, 2, 68, 88
6, 63116, Note_off_c, 2, 68, 0
6, 63120, Note_on_c, 2, 66, 88
6, 63236, Note_off_c, 2, 66, 0
6, 63240, Note_on_c, 2, 64, 88
6, 63356, Note_off_c, 2, 64, 0
6, 63360, Note_on_c, 2, 63, 88
6, 63476, Note_off_c, 2, 63, 0
6, 63480, Note_on_c, 2, 64, 88
6, 63596, Note_off_c, 2, 64, 0
6, 63600, Note_on_c, 2, 63, 88
6, 63716, Note_off_c, 2, 63, 0
6, 63720, Note_on_c, 2, 61, 88
6, 63836, Note_off_c, 2, 61, 0
6, 63840, Note_on_c, 2, 59, 88
6, 64138, Note_off_c, 2, 59, 0
6, 64140, Note_on_c, 2, 66, 88
6, 64198, Note_off_c, 2, 66, 0
6, 64200, Note_on_c, 2, 64, 88
6, 64258, Note_off_c, 2, 64, 0
6, 64260, Note_on_c, 2, 63, 88
6, 64318, Note_off_c, 2, 63, 0
6, 64320, Note_on_c, 2, 64, 88
6, 64378, Note_off_c, 2, 64, 0
6, 64380, Note_on_c, 2, 74, 88
6, 64438, Note_off_c, 2, 74, 0
6, 64440, Note_on_c, 2, 73, 88
6, 64498, Note_off_c, 2, 73, 0
6, 64500, Note_on_c, 2, 71, 88
6, 64558, Note_off_c, 2, 71, 0
6, 64560, Note_on_c, 2, 76, 88
6, 64618, Note_off_c, 2, 76, 0
6, 64620, Note_on_c, 2, 69, 88
6, 64678, Note_off_c, 2, 69, 0
6, 64680, Note_on_c, 2, 68, 88
6, 64738, Note_off_c, 2, 68, 0
6, 64740, Note_on_c, 2, 74, 88
6, 64798, Note_off_c, 2, 74, 0
6, 64800, Note_on_c, 2, 73, 88
6, 65270, Note_off_c, 2, 73, 0
6, 65280, Note_on_c, 2, 71, 88
6, 65990, Note_off_c, 2, 71, 0
6, 66000, Note_on_c, 2, 69, 88
6, 66830, Note_off_c, 2, 69, 0
6, 66840, Note_on_c, 2, 63, 88
6, 67018, Note_off_c, 2, 63, 0
6, 67020, Note_on_c, 2, 59, 88
6, 67432, Note_off_c, 2, 59, 0
6, 67680, Note_on_c, 2, 61, 88
6, 67914, Note_off_c, 2, 61, 0
6, 68460, Note_on_c, 2, 64, 88
6, 68518, Note_off_c, 2, 64, 0
6, 68520, Note_on_c, 2, 63, 88
6, 68578, Note_off_c, 2, 63, 0
6, 68580, Note_on_c, 2, 61, 88
6, 68638, Note_off_c, 2, 61, 0
6, 68640, Note_on_c, 2, 59, 88
6, 68698, Note_off_c, 2, 59, 0
6, 68700, Note_on_c, 2, 58, 88
6, 68758, Note_off_c, 2, 58, 0
6, 68760, Note_on_c, 2, 59, 88
6, 68818, Note_off_c, 2, 59, 0
6, 68820, Note_on_c, 2, 61, 88
6, 68878, Note_off_c, 2, 61, 0
6, 68880, Note_on_c, 2, 63, 88
6, 68938, Note_off_c, 2, 63, 0
6, 68940, Note_on_c, 2, 64, 88
6, 68998, Note_off_c, 2, 64, 0
6, 69000, Note_on_c, 2, 66, 88
6, 69029, Note_off_c, 2, 66, 0
6, 69030, Note_on_c, 2, 64, 88
6, 69059, Note_off_c, 2, 64, 0
6, 69060, Note_on_c, 2, 63, 88
6, 69089, Note_off_c, 2, 63, 0
6, 69090, Note_on_c, 2, 64, 88
6, 69119, Note_off_c, 2, 64, 0
6, 69120, Note_on_c, 2, 66, 88
6, 69236, Note_off_c, 2, 66, 0
6, 69480, Note_on_c, 2, 66, 88
6, 69596, Note_off_c, 2, 66, 0
6, 69600, Note_on_c, 2, 64, 88
6, 69716, Note_off_c, 2, 64, 0
6, 69960, Note_on_c, 2, 68, 88
6, 70076, Note_off_c, 2, 68, 0
6, 70080, Note_on_c, 2, 66, 88
6, 70196, Note_off_c, 2, 66, 0
6, 70440, Note_on_c, 2, 66, 88
6, 70556, Note_off_c, 2, 66, 0
6, 70560, Note_on_c, 2, 63, 88
6, 70794, Note_off_c, 2, 63, 0
6, 70800, Note_on_c, 2, 64, 88
6, 71034, Note_off_c, 2, 64, 0
6, 71040, Note_on_c, 2, 66, 88
6, 71156, Note_off_c, 2, 66, 0
6, 71160, Note_on_c, 2, 69, 88
6, 71276, Note_off_c, 2, 69, 0
6, 71280, Note_on_c, 2, 68, 88
6, 71514, Note_off_c, 2, 68, 0
6, 71580, Note_on_c, 2, 71, 88
6, 71638, Note_off_c, 2, 71, 0
6, 71640, Note_on_c, 2, 69, 88
6, 71698, Note_off_c, 2, 69, 0
6, 71700, Note_on_c, 2, 71, 88
6, 71758, Note_off_c, 2, 71, 0
6, 71820, Note_on_c, 2, 69, 88
6, 71878, Note_off_c, 2, 69, 0
6, 71880, Note_on_c, 2, 68, 88
6, 71938, Note_off_c, 2, 68, 0
6, 71940, Note_on_c, 2, 69, 88
6, 72234, Note_off_c, 2, 69, 0
6, 72300, Note_on_c, 2, 69, 88
6, 72358, Note_off_c, 2, 69, 0
6, 72360, Note_on_c, 2, 68, 88
6, 72418, Note_off_c, 2, 68, 0
6, 72420, Note_on_c, 2, 69, 88
6, 72536, Note_off_c, 2, 69, 0
6, 72540, Note_on_c, 2, 68, 88
6, 72598, Note_off_c, 2, 68, 0
6, 72600, Note_on_c, 2, 66, 88
6, 72658, Note_off_c, 2, 66, 0
6, 72660, Note_on_c, 2, 68, 88
6, 72954, Note_off_c, 2, 68, 0
6, 73020, Note_on_c, 2, 68, 88
6, 73078, Note_off_c, 2, 68, 0
6, 73080, Note_on_c, 2, 66, 88
6, 73138, Note_off_c, 2, 66, 0
6, 73140, Note_on_c, 2, 68, 88
6, 73198, Note_off_c, 2, 68, 0
6, 73260, Note_on_c, 2, 66, 88
6, 73318, Note_off_c, 2, 66, 0
6, 73320, Note_on_c, 2, 64, 88
6, 73378, Note_off_c, 2, 64, 0
6, 73380, Note_on_c, 2, 66, 88
6, 73674, Note_off_c, 2, 66, 0
6, 73980, Note_on_c, 2, 59, 88
6, 74038, Note_off_c, 2, 59, 0
6, 74040, Note_on_c, 2, 61, 88
6, 74098, Note_off_c, 2, 61, 0
6, 74100, Note_on_c, 2, 63, 88
6, 74158, Note_off_c, 2, 63, 0
6, 74160, Note_on_c, 2, 64, 88
6, 74394, Note_off_c, 2, 64, 0
6, 74820, Note_on_c, 2, 57, 88
6, 74878, Note_off_c, 2, 57, 0
6, 74880, Note_on_c, 2, 56, 88
6, 74996, Note_off_c, 2, 56, 0
6, 75000, Note_on_c, 2, 54, 88
6, 75116, Note_off_c, 2, 54, 0
6, 75120, Note_on_c, 2, 56, 88
6, 75236, Note_off_c, 2, 56, 0
6, 75240, Note_on_c, 2, 59, 88
6, 75356, Note_off_c, 2, 59, 0
6, 75360, Note_on_c, 2, 57, 88
6, 75476, Note_off_c, 2, 57, 0
6, 75480, Note_on_c, 2, 56, 88
6, 75596, Note_off_c, 2, 56, 0
6, 75600, Note_on_c, 2, 57, 88
6, 75716, Note_off_c, 2, 57, 0
6, 75720, Note_on_c, 2, 59, 88
6, 75836, Note_off_c, 2, 59, 0
6, 75840, Note_on_c, 2, 61, 88
6, 75956, Note_off_c, 2, 61, 0
6, 75960, Note_on_c, 2, 64, 88
6, 76076, Note_off_c, 2, 64, 0
6, 76200, Note_on_c, 2, 59, 88
6, 76316, Note_off_c, 2, 59, 0
6, 76320, Note_on_c, 2, 60, 88
6, 76554, Note_off_c, 2, 60, 0
6, 76680, Note_on_c, 2, 60, 88
6, 76789, Note_off_c, 2, 60, 0
6, 76800, Note_on_c, 2, 60, 88
6, 76909, Note_off_c, 2, 60, 0
6, 76920, Note_on_c, 2, 60, 88
6, 77036, Note_off_c, 2, 60, 0
6, 77040, Note_on_c, 2, 59, 88
6, 77748, Note_off_c, 2, 59, 0
6, 77748, End_track
7, 0, Start_track
7, 0, Title_t, "Track 4"
7, 0, Program_c, 3, 6
7, 54480, Note_on_c, 3, 57, 88
7, 54714, Note_off_c, 3, 57, 0
7, 54720, Note_on_c, 3, 57, 88
7, 54954, Note_off_c, 3, 57, 0
7, 55080, Note_on_c, 3, 57, 88
7, 55189, Note_off_c, 3, 57, 0
7, 55200, Note_on_c, 3, 57, 88
7, 55309, Note_off_c, 3, 57, 0
7, 55320, Note_on_c, 3, 57, 88
7, 55436, Note_off_c, 3, 57, 0
7, 55440, Note_on_c, 3, 56, 88
7, 56148, Note_off_c, 3, 56, 0
7, 76080, Note_on_c, 3, 57, 88
7, 76314, Note_off_c, 3, 57, 0
7, 76320, Note_on_c, 3, 57, 88
7, 76554, Note_off_c, 3, 57, 0
7, 76680, Note_on_c, 3, 57, 88
7, 76789, Note_off_c, 3, 57, 0
7, 76800, Note_on_c, 3, 57, 88
7, 76909, Note_off_c, 3, 57, 0
7, 76920, Note_on_c, 3, 57, 88
7, 77036, Note_off_c, 3, 57, 0
7, 77040, Note_on_c, 3, 56, 88
7, 77748, Note_off_c, 3, 56, 0
7, 77748, End_track
8, 0, Start_track
8, 0, Title_t, "Track 5"
8, 0, Program_c, 4, 6
8, 0, Note_on_c, 4, 52, 88
8, 1729, Note_off_c, 4, 52, 0
8, 1740, Note_on_c, 4, 52, 88
8, 1798, Note_off_c, 4, 52, 0
8, 1800, Note_on_c, 4, 51, 88
8, 1858, Note_off_c, 4, 51, 0
8, 1860, Note_on_c, 4, 49, 88
8, 1918, Note_off_c, 4, 49, 0
8, 1920, Note_on_c, 4, 51, 88
8, 1978, Note_off_c, 4, 51, 0
8, 1980, Note_on_c, 4, 54, 88
8, 2038, Note_off_c, 4, 54, 0
8, 2040, Note_on_c, 4, 47, 88
8, 2098, Note_off_c, 4, 47, 0
8, 2100, Note_on_c, 4, 51, 88
8, 2158, Note_off_c, 4, 51, 0
8, 2160, Note_on_c, 4, 52, 88
8, 2276, Note_off_c, 4, 52, 0
8, 2280, Note_on_c, 4, 40, 88
8, 2396, Note_off_c, 4, 40, 0
8, 2400, Note_on_c, 4, 52, 88
8, 2516, Note_off_c, 4, 52, 0
8, 2520, Note_on_c, 4, 54, 88
8, 2636, Note_off_c, 4, 54, 0
8, 2640, Note_on_c, 4, 56, 88
8, 2756, Note_off_c, 4, 56, 0
8, 2760, Note_on_c, 4, 57, 88
8, 2876, Note_off_c, 4, 57, 0
8, 2880, Note_on_c, 4, 59, 88
8, 4609, Note_off_c, 4, 59, 0
8, 4620, Note_on_c, 4, 59, 88
8, 4678, Note_off_c, 4, 59, 0
8, 4680, Note_on_c, 4, 58, 88
8, 4738, Note_off_c, 4, 58, 0
8, 4740, Note_on_c, 4, 56, 88
8, 4798, Note_off_c, 4, 56, 0
8, 4800, Note_on_c, 4, 58, 88
8, 4858, Note_off_c, 4, 58, 0
8, 4860, Note_on_c, 4, 61, 88
8, 4918, Note_off_c, 4, 61, 0
8, 4920, Note_on_c, 4, 54, 88
8, 4978, Note_off_c, 4, 54, 0
8, 4980, Note_on_c, 4, 58, 88
8, 5038, Note_off_c, 4, 58, 0
8, 5040, Note_on_c, 4, 59, 88
8, 5571, Note_off_c, 4, 59, 0
8, 5580, Note_on_c, 4, 61, 88
8, 5638, Note_off_c, 4, 61, 0
8, 5640, Note_on_c, 4, 59, 88
8, 5698, Note_off_c, 4, 59, 0
8, 5700, Note_on_c, 4, 57, 88
8, 5758, Note_off_c, 4, 57, 0
8, 5760, Note_on_c, 4, 56, 88
8, 6468, Note_off_c, 4, 56, 0
8, 6480, Note_on_c, 4, 54, 88
8, 7258, Note_off_c, 4, 54, 0
8, 7260, Note_on_c, 4, 52, 88
8, 7318, Note_off_c, 4, 52, 0
8, 7320, Note_on_c, 4, 51, 88
8, 7378, Note_off_c, 4, 51, 0
8, 7380, Note_on_c, 4, 49, 88
8, 7438, Note_off_c, 4, 49, 0
8, 7440, Note_on_c, 4, 48, 88
8, 7498, Note_off_c, 4, 48, 0
8, 7500, Note_on_c, 4, 51, 88
8, 7558, Note_off_c, 4, 51, 0
8, 7560, Note_on_c, 4, 54, 88
8, 7618, Note_off_c, 4, 54, 0
8, 7620, Note_on_c, 4, 57, 88
8, 7729, Note_off_c, 4, 57, 0
8, 7740, Note_on_c, 4, 57, 88
8, 7798, Note_off_c, 4, 57, 0
8, 7800, Note_on_c, 4, 56, 88
8, 7858, Note_off_c, 4, 56, 0
8, 7860, Note_on_c, 4, 54, 88
8, 7978, Note_off_c, 4, 54, 0
8, 7980, Note_on_c, 4, 52, 88
8, 8038, Note_off_c, 4, 52, 0
8, 8040, Note_on_c, 4, 51, 88
8, 8098, Note_off_c, 4, 51, 0
8, 8100, Note_on_c, 4, 54, 88
8, 8158, Note_off_c, 4, 54, 0
8, 8160, Note_on_c, 4, 52, 88
8, 8218, Note_off_c, 4, 52, 0
8, 8220, Note_on_c, 4, 56, 88
8, 8278, Note_off_c, 4, 56, 0
8, 8280, Note_on_c, 4, 61, 88
8, 8338, Note_off_c, 4, 61, 0
8, 8340, Note_on_c, 4, 64, 88
8, 8456, Note_off_c, 4, 64, 0
8, 8460, Note_on_c, 4, 61, 88
8, 8518, Note_off_c, 4, 61, 0
8, 8520, Note_on_c, 4, 63, 88
8, 8578, Note_off_c, 4, 63, 0
8, 8580, Note_on_c, 4, 64, 88
8, 8638, Note_off_c, 4, 64, 0
8, 8640, Note_on_c, 4, 58, 88
8, 8756, Note_off_c, 4, 58, 0
8, 8760, Note_on_c, 4, 61, 88
8, 8876, Note_off_c, 4, 61, 0
8, 8880, Note_on_c, 4, 66, 88
8, 8996, Note_off_c, 4, 66, 0
8, 9000, Note_on_c, 4, 61, 88
8, 9116, Note_off_c, 4, 61, 0
8, 9120, Note_on_c, 4, 58, 88
8, 9236, Note_off_c, 4, 58, 0
8, 9240, Note_on_c, 4, 54, 88
8, 9356, Note_off_c, 4, 54, 0
8, 9360, Note_on_c, 4, 59, 88
8, 9476, Note_off_c, 4, 59, 0
8, 10140, Note_on_c, 4, 51, 88
8, 10198, Note_off_c, 4, 51, 0
8, 10200, Note_on_c, 4, 52, 88
8, 10258, Note_off_c, 4, 52, 0
8, 10260, Note_on_c, 4, 54, 88
8, 10318, Note_off_c, 4, 54, 0
8, 10320, Note_on_c, 4, 56, 88
8, 10378, Note_off_c, 4, 56, 0
8, 10380, Note_on_c, 4, 58, 88
8, 10438, Note_off_c, 4, 58, 0
8, 10440, Note_on_c, 4, 59, 88
8, 10498, Note_off_c, 4, 59, 0
8, 10500, Note_on_c, 4, 61, 88
8, 10558, Note_off_c, 4, 61, 0
8, 10560, Note_on_c, 4, 62, 88
8, 10618, Note_off_c, 4, 62, 0
8, 10620, Note_on_c, 4, 61, 88
8, 10678, Note_off_c, 4, 61, 0
8, 10680, Note_on_c, 4, 62, 88
8, 10738, Note_off_c, 4, 62, 0
8, 10740, Note_on_c, 4, 59, 88
8, 10798, Note_off_c, 4, 59, 0
8, 10800, Note_on_c, 4, 61, 88
8, 11153, Note_off_c, 4, 61, 0
8, 11160, Note_on_c, 4, 59, 88
8, 11276, Note_off_c, 4, 59, 0
8, 11280, Note_on_c, 4, 58, 88
8, 11514, Note_off_c, 4, 58, 0
8, 11520, Note_on_c, 4, 59, 88
8, 11636, Note_off_c, 4, 59, 0
8, 11640, Note_on_c, 4, 54, 88
8, 11756, Note_off_c, 4, 54, 0
8, 11760, Note_on_c, 4, 56, 88
8, 11876, Note_off_c, 4, 56, 0
8, 11880, Note_on_c, 4, 52, 88
8, 11996, Note_off_c, 4, 52, 0
8, 12000, Note_on_c, 4, 54, 88
8, 12234, Note_off_c, 4, 54, 0
8, 12240, Note_on_c, 4, 59, 88
8, 12356, Note_off_c, 4, 59, 0
8, 12360, Note_on_c, 4, 47, 88
8, 12469, Note_off_c, 4, 47, 0
8, 12480, Note_on_c, 4, 47, 88
8, 12596, Note_off_c, 4, 47, 0
8, 12600, Note_on_c, 4, 59, 88
8, 12709, Note_off_c, 4, 59, 0
8, 12720, Note_on_c, 4, 59, 88
8, 12836, Note_off_c, 4, 59, 0
8, 12840, Note_on_c, 4, 47, 88
8, 12956, Note_off_c, 4, 47, 0
8, 12960, Note_on_c, 4, 59, 88
8, 13076, Note_off_c, 4, 59, 0
8, 13080, Note_on_c, 4, 47, 88
8, 13189, Note_off_c, 4, 47, 0
8, 13200, Note_on_c, 4, 47, 88
8, 13316, Note_off_c, 4, 47, 0
8, 13320, Note_on_c, 4, 59, 88
8, 13429, Note_off_c, 4, 59, 0
8, 13440, Note_on_c, 4, 59, 88
8, 13556, Note_off_c, 4, 59, 0
8, 13560, Note_on_c, 4, 47, 88
8, 13676, Note_off_c, 4, 47, 0
8, 13680, Note_on_c, 4, 59, 88
8, 13796, Note_off_c, 4, 59, 0
8, 13800, Note_on_c, 4, 47, 88
8, 13909, Note_off_c, 4, 47, 0
8, 13920, Note_on_c, 4, 47, 88
8, 14036, Note_off_c, 4, 47, 0
8, 14040, Note_on_c, 4, 59, 88
8, 14149, Note_off_c, 4, 59, 0
8, 14160, Note_on_c, 4, 59, 88
8, 14276, Note_off_c, 4, 59, 0
8, 14280, Note_on_c, 4, 47, 88
8, 14396, Note_off_c, 4, 47, 0
8, 14400, Note_on_c, 4, 59, 88
8, 14509, Note_off_c, 4, 59, 0
8, 14520, Note_on_c, 4, 59, 88
8, 14542, Note_off_c, 4, 59, 0
8, 14543, Note_on_c, 4, 58, 88
8, 14572, Note_off_c, 4, 58, 0
8, 14573, Note_on_c, 4, 59, 88
8, 14594, Note_off_c, 4, 59, 0
8, 14595, Note_on_c, 4, 58, 88
8, 14617, Note_off_c, 4, 58, 0
8, 14618, Note_on_c, 4, 59, 88
8, 14639, Note_off_c, 4, 59, 0
8, 14640, Note_on_c, 4, 58, 88
8, 14698, Note_off_c, 4, 58, 0
8, 14700, Note_on_c, 4, 54, 88
8, 14758, Note_off_c, 4, 54, 0
8, 14760, Note_on_c, 4, 56, 88
8, 14818, Note_off_c, 4, 56, 0
8, 14820, Note_on_c, 4, 58, 88
8, 14878, Note_off_c, 4, 58, 0
8, 14880, Note_on_c, 4, 59, 88
8, 14938, Note_off_c, 4, 59, 0
8, 14940, Note_on_c, 4, 56, 88
8, 14998, Note_off_c, 4, 56, 0
8, 15000, Note_on_c, 4, 54, 88
8, 15058, Note_off_c, 4, 54, 0
8, 15060, Note_on_c, 4, 52, 88
8, 15118, Note_off_c, 4, 52, 0
8, 15120, Note_on_c, 4, 51, 88
8, 15178, Note_off_c, 4, 51, 0
8, 15180, Note_on_c, 4, 49, 88
8, 15238, Note_off_c, 4, 49, 0
8, 15240, Note_on_c, 4, 51, 88
8, 15298, Note_off_c, 4, 51, 0
8, 15300, Note_on_c, 4, 52, 88
8, 15358, Note_off_c, 4, 52, 0
8, 15360, Note_on_c, 4, 54, 88
8, 15418, Note_off_c, 4, 54, 0
8, 15420, Note_on_c, 4, 51, 88
8, 15478, Note_off_c, 4, 51, 0
8, 15480, Note_on_c, 4, 49, 88
8, 15538, Note_off_c, 4, 49, 0
8, 15540, Note_on_c, 4, 47, 88
8, 15598, Note_off_c, 4, 47, 0
8, 15600, Note_on_c, 4, 46, 88
8, 15658, Note_off_c, 4, 46, 0
8, 15660, Note_on_c, 4, 44, 88
8, 15718, Note_off_c, 4, 44, 0
8, 15720, Note_on_c, 4, 46, 88
8, 15778, Note_off_c, 4, 46, 0
8, 15780, Note_on_c, 4, 47, 88
8, 15838, Note_off_c, 4, 47, 0
8, 15840, Note_on_c, 4, 49, 88
8, 15898, Note_off_c, 4, 49, 0
8, 15900, Note_on_c, 4, 46, 88
8, 15958, Note_off_c, 4, 46, 0
8, 15960, Note_on_c, 4, 44, 88
8, 16018, Note_off_c, 4, 44, 0
8, 16020, Note_on_c, 4, 42, 88
8, 16078, Note_off_c, 4, 42, 0
8, 16080, Note_on_c, 4, 47, 88
8, 16196, Note_off_c, 4, 47, 0
8, 16200, Note_on_c, 4, 44, 88
8, 16316, Note_off_c, 4, 44, 0
8, 16320, Note_on_c, 4, 40, 88
8, 16436, Note_off_c, 4, 40, 0
8, 16440, Note_on_c, 4, 42, 88
8, 16556, Note_off_c, 4, 42, 0
8, 16560, Note_on_c, 4, 47, 88
8, 17268, Note_off_c, 4, 47, 0
8, 17280, Note_on_c, 4, 52, 88
8, 19009, Note_off_c, 4, 52, 0
8, 19020, Note_on_c, 4, 52, 88
8, 19078, Note_off_c, 4, 52, 0
8, 19080, Note_on_c, 4, 51, 88
8, 19138, Note_off_c, 4, 51, 0
8, 19140, Note_on_c, 4, 49, 88
8, 19198, Note_off_c, 4, 49, 0
8, 19200, Note_on_c, 4, 51, 88
8, 19258, Note_off_c, 4, 51, 0
8, 19260, Note_on_c, 4, 54, 88
8, 19318, Note_off_c, 4, 54, 0
8, 19320, Note_on_c, 4, 47, 88
8, 19378, Note_off_c, 4, 47, 0
8, 19380, Note_on_c, 4, 51, 88
8, 19438, Note_off_c, 4, 51, 0
8, 19440, Note_on_c, 4, 52, 88
8, 19556, Note_off_c, 4, 52, 0
8, 19560, Note_on_c, 4, 40, 88
8, 19676, Note_off_c, 4, 40, 0
8, 19680, Note_on_c, 4, 52, 88
8, 19796, Note_off_c, 4, 52, 0
8, 19800, Note_on_c, 4, 54, 88
8, 19916, Note_off_c, 4, 54, 0
8, 19920, Note_on_c, 4, 56, 88
8, 20036, Note_off_c, 4, 56, 0
8, 20040, Note_on_c, 4, 57, 88
8, 20156, Note_off_c, 4, 57, 0
8, 20160, Note_on_c, 4, 59, 88
8, 21889, Note_off_c, 4, 59, 0
8, 21900, Note_on_c, 4, 59, 88
8, 21958, Note_off_c, 4, 59, 0
8, 21960, Note_on_c, 4, 58, 88
8, 22018, Note_off_c, 4, 58, 0
8, 22020, Note_on_c, 4, 56, 88
8, 22078, Note_off_c, 4, 56, 0
8, 22080, Note_on_c, 4, 58, 88
8, 22138, Note_off_c, 4, 58, 0
8, 22140, Note_on_c, 4, 61, 88
8, 22198, Note_off_c, 4, 61, 0
8, 22200, Note_on_c, 4, 54, 88
8, 22258, Note_off_c, 4, 54, 0
8, 22260, Note_on_c, 4, 58, 88
8, 22318, Note_off_c, 4, 58, 0
8, 22320, Note_on_c, 4, 59, 88
8, 22851, Note_off_c, 4, 59, 0
8, 22860, Note_on_c, 4, 61, 88
8, 22918, Note_off_c, 4, 61, 0
8, 22920, Note_on_c, 4, 59, 88
8, 22978, Note_off_c, 4, 59, 0
8, 22980, Note_on_c, 4, 57, 88
8, 23038, Note_off_c, 4, 57, 0
8, 23040, Note_on_c, 4, 56, 88
8, 23748, Note_off_c, 4, 56, 0
8, 23760, Note_on_c, 4, 54, 88
8, 24538, Note_off_c, 4, 54, 0
8, 24540, Note_on_c, 4, 52, 88
8, 24598, Note_off_c, 4, 52, 0
8, 24600, Note_on_c, 4, 51, 88
8, 24658, Note_off_c, 4, 51, 0
8, 24660, Note_on_c, 4, 49, 88
8, 24718, Note_off_c, 4, 49, 0
8, 24720, Note_on_c, 4, 48, 88
8, 24778, Note_off_c, 4, 48, 0
8, 24780, Note_on_c, 4, 51, 88
8, 24838, Note_off_c, 4, 51, 0
8, 24840, Note_on_c, 4, 54, 88
8, 24898, Note_off_c, 4, 54, 0
8, 24900, Note_on_c, 4, 57, 88
8, 25009, Note_off_c, 4, 57, 0
8, 25020, Note_on_c, 4, 57, 88
8, 25078, Note_off_c, 4, 57, 0
8, 25080, Note_on_c, 4, 56, 88
8, 25138, Note_off_c, 4, 56, 0
8, 25140, Note_on_c, 4, 54, 88
8, 25258, Note_off_c, 4, 54, 0
8, 25260, Note_on_c, 4, 52, 88
8, 25318, Note_off_c, 4, 52, 0
8, 25320, Note_on_c, 4, 51, 88
8, 25378, Note_off_c, 4, 51, 0
8, 25380, Note_on_c, 4, 54, 88
8, 25438, Note_off_c, 4, 54, 0
8, 25440, Note_on_c, 4, 52, 88
8, 25498, Note_off_c, 4, 52, 0
8, 25500, Note_on_c, 4, 56, 88
8, 25558, Note_off_c, 4, 56, 0
8, 25560, Note_on_c, 4, 61, 88
8, 25618, Note_off_c, 4, 61, 0
8, 25620, Note_on_c, 4, 64, 88
8, 25736, Note_off_c, 4, 64, 0
8, 25740, Note_on_c, 4, 61, 88
8, 25798, Note_off_c, 4, 61, 0
8, 25800, Note_on_c, 4, 63, 88
8, 25858, Note_off_c, 4, 63, 0
8, 25860, Note_on_c, 4, 64, 88
8, 25918, Note_off_c, 4, 64, 0
8, 25920, Note_on_c, 4, 58, 88
8, 26036, Note_off_c, 4, 58, 0
8, 26040, Note_on_c, 4, 61, 88
8, 26156, Note_off_c, 4, 61, 0
8, 26160, Note_on_c, 4, 66, 88
8, 26276, Note_off_c, 4, 66, 0
8, 26280, Note_on_c, 4, 61, 88
8, 26396, Note_off_c, 4, 61, 0
8, 26400, Note_on_c, 4, 58, 88
8, 26516, Note_off_c, 4, 58, 0
8, 26520, Note_on_c, 4, 54, 88
8, 26636, Note_off_c, 4, 54, 0
8, 26640, Note_on_c, 4, 59, 88
8, 26756, Note_off_c, 4, 59, 0
8, 27420, Note_on_c, 4, 51, 88
8, 27478, Note_off_c, 4, 51, 0
8, 27480, Note_on_c, 4, 52, 88
8, 27538, Note_off_c, 4, 52, 0
8, 27540, Note_on_c, 4, 54, 88
8, 27598, Note_off_c, 4, 54, 0
8, 27600, Note_on_c, 4, 56, 88
8, 27658, Note_off_c, 4, 56, 0
8, 27660, Note_on_c, 4, 58, 88
8, 27718, Note_off_c, 4, 58, 0
8, 27720, Note_on_c, 4, 59, 88
8, 27778, Note_off_c, 4, 59, 0
8, 27780, Note_on_c, 4, 61, 88
8, 27838, Note_off_c, 4, 61, 0
8, 27840, Note_on_c, 4, 62, 88
8, 27898, Note_off_c, 4, 62, 0
8, 27900, Note_on_c, 4, 61, 88
8, 27958, Note_off_c, 4, 61, 0
8, 27960, Note_on_c, 4, 62, 88
8, 28018, Note_off_c, 4, 62, 0
8, 28020, Note_on_c, 4, 59, 88
8, 28078, Note_off_c, 4, 59, 0
8, 28080, Note_on_c, 4, 61, 88
8, 28433, Note_off_c, 4, 61, 0
8, 28440, Note_on_c, 4, 59, 88
8, 28556, Note_off_c, 4, 59, 0
8, 28560, Note_on_c, 4, 58, 88
8, 28794, Note_off_c, 4, 58, 0
8, 28800, Note_on_c, 4, 59, 88
8, 28916, Note_off_c, 4, 59, 0
8, 28920, Note_on_c, 4, 54, 88
8, 29036, Note_off_c, 4, 54, 0
8, 29040, Note_on_c, 4, 56, 88
8, 29156, Note_off_c, 4, 56, 0
8, 29160, Note_on_c, 4, 52, 88
8, 29276, Note_off_c, 4, 52, 0
8, 29280, Note_on_c, 4, 54, 88
8, 29514, Note_off_c, 4, 54, 0
8, 29520, Note_on_c, 4, 59, 88
8, 29636, Note_off_c, 4, 59, 0
8, 29640, Note_on_c, 4, 47, 88
8, 29749, Note_off_c, 4, 47, 0
8, 29760, Note_on_c, 4, 47, 88
8, 29876, Note_off_c, 4, 47, 0
8, 29880, Note_on_c, 4, 59, 88
8, 29989, Note_off_c, 4, 59, 0
8, 30000, Note_on_c, 4, 59, 88
8, 30116, Note_off_c, 4, 59, 0
8, 30120, Note_on_c, 4, 47, 88
8, 30236, Note_off_c, 4, 47, 0
8, 30240, Note_on_c, 4, 59, 88
8, 30356, Note_off_c, 4, 59, 0
8, 30360, Note_on_c, 4, 47, 88
8, 30469, Note_off_c, 4, 47, 0
8, 30480, Note_on_c, 4, 47, 88
8, 30596, Note_off_c, 4, 47, 0
8, 30600, Note_on_c, 4, 59, 88
8, 30709, Note_off_c, 4, 59, 0
8, 30720, Note_on_c, 4, 59, 88
8, 30836, Note_off_c, 4, 59, 0
8, 30840, Note_on_c, 4, 47, 88
8, 30956, Note_off_c, 4, 47, 0
8, 30960, Note_on_c, 4, 59, 88
8, 31076, Note_off_c, 4, 59, 0
8, 31080, Note_on_c, 4, 47, 88
8, 31189, Note_off_c, 4, 47, 0
8, 31200, Note_on_c, 4, 47, 88
8, 31316, Note_off_c, 4, 47, 0
8, 31320, Note_on_c, 4, 59, 88
8, 31429, Note_off_c, 4, 59, 0
8, 31440, Note_on_c, 4, 59, 88
8, 31556, Note_off_c, 4, 59, 0
8, 31560, Note_on_c, 4, 47, 88
8, 31676, Note_off_c, 4, 47, 0
8, 31680, Note_on_c, 4, 59, 88
8, 31789, Note_off_c, 4, 59, 0
8, 31800, Note_on_c, 4, 59, 88
8, 31822, Note_off_c, 4, 59, 0
8, 31823, Note_on_c, 4, 58, 88
8, 31852, Note_off_c, 4, 58, 0
8, 31853, Note_on_c, 4, 59, 88
8, 31874, Note_off_c, 4, 59, 0
8, 31875, Note_on_c, 4, 58, 88
8, 31897, Note_off_c, 4, 58, 0
8, 31898, Note_on_c, 4, 59, 88
8, 31919, Note_off_c, 4, 59, 0
8, 31920, Note_on_c, 4, 58, 88
8, 31978, Note_off_c, 4, 58, 0
8, 31980, Note_on_c, 4, 54, 88
8, 32038, Note_off_c, 4, 54, 0
8, 32040, Note_on_c, 4, 56, 88
8, 32098, Note_off_c, 4, 56, 0
8, 32100, Note_on_c, 4, 58, 88
8, 32158, Note_off_c, 4, 58, 0
8, 32160, Note_on_c, 4, 59, 88
8, 32218, Note_off_c, 4, 59, 0
8, 32220, Note_on_c, 4, 56, 88
8, 32278, Note_off_c, 4, 56, 0
8, 32280, Note_on_c, 4, 54, 88
8, 32338, Note_off_c, 4, 54, 0
8, 32340, Note_on_c, 4, 52, 88
8, 32398, Note_off_c, 4, 52, 0
8, 32400, Note_on_c, 4, 51, 88
8, 32458, Note_off_c, 4, 51, 0
8, 32460, Note_on_c, 4, 49, 88
8, 32518, Note_off_c, 4, 49, 0
8, 32520, Note_on_c, 4, 51, 88
8, 32578, Note_off_c, 4, 51, 0
8, 32580, Note_on_c, 4, 52, 88
8, 32638, Note_off_c, 4, 52, 0
8, 32640, Note_on_c, 4, 54, 88
8, 32698, Note_off_c, 4, 54, 0
8, 32700, Note_on_c, 4, 51, 88
8, 32758, Note_off_c, 4, 51, 0
8, 32760, Note_on_c, 4, 49, 88
8, 32818, Note_off_c, 4, 49, 0
8, 32820, Note_on_c, 4, 47, 88
8, 32878, Note_off_c, 4, 47, 0
8, 32880, Note_on_c, 4, 46, 88
8, 32938, Note_off_c, 4, 46, 0
8, 32940, Note_on_c, 4, 44, 88
8, 32998, Note_off_c, 4, 44, 0
8, 33000, Note_on_c, 4, 46, 88
8, 33058, Note_off_c, 4, 46, 0
8, 33060, Note_on_c, 4, 47, 88
8, 33118, Note_off_c, 4, 47, 0
8, 33120, Note_on_c, 4, 49, 88
8, 33178, Note_off_c, 4, 49, 0
8, 33180, Note_on_c, 4, 46, 88
8, 33238, Note_off_c, 4, 46, 0
8, 33240, Note_on_c, 4, 44, 88
8, 33298, Note_off_c, 4, 44, 0
8, 33300, Note_on_c, 4, 42, 88
8, 33358, Note_off_c, 4, 42, 0
8, 33360, Note_on_c, 4, 47, 88
8, 33476, Note_off_c, 4, 47, 0
8, 33480, Note_on_c, 4, 44, 88
8, 33596, Note_off_c, 4, 44, 0
8, 33600, Note_on_c, 4, 40, 88
8, 33716, Note_off_c, 4, 40, 0
8, 33720, Note_on_c, 4, 42, 88
8, 33836, Note_off_c, 4, 42, 0
8, 33840, Note_on_c, 4, 47, 88
8, 34548, Note_off_c, 4, 47, 0
8, 34560, Note_on_c, 4, 59, 88
8, 35514, Note_off_c, 4, 59, 0
8, 35520, Note_on_c, 4, 61, 88
8, 35542, Note_off_c, 4, 61, 0
8, 35543, Note_on_c, 4, 60, 88
8, 35572, Note_off_c, 4, 60, 0
8, 35573, Note_on_c, 4, 61, 88
8, 35602, Note_off_c, 4, 61, 0
8, 35603, Note_on_c, 4, 60, 88
8, 35632, Note_off_c, 4, 60, 0
8, 35633, Note_on_c, 4, 61, 88
8, 35662, Note_off_c, 4, 61, 0
8, 35663, Note_on_c, 4, 60, 88
8, 35684, Note_off_c, 4, 60, 0
8, 35685, Note_on_c, 4, 61, 88
8, 35707, Note_off_c, 4, 61, 0
8, 35708, Note_on_c, 4, 60, 88
8, 35729, Note_off_c, 4, 60, 0
8, 35730, Note_on_c, 4, 61, 88
8, 35752, Note_off_c, 4, 61, 0
8, 35753, Note_on_c, 4, 60, 88
8, 35774, Note_off_c, 4, 60, 0
8, 35775, Note_on_c, 4, 61, 88
8, 35797, Note_off_c, 4, 61, 0
8, 35798, Note_on_c, 4, 60, 88
8, 35819, Note_off_c, 4, 60, 0
8, 35820, Note_on_c, 4, 61, 88
8, 35842, Note_off_c, 4, 61, 0
8, 35843, Note_on_c, 4, 60, 88
8, 35864, Note_off_c, 4, 60, 0
8, 35865, Note_on_c, 4, 61, 88
8, 35887, Note_off_c, 4, 61, 0
8, 35888, Note_on_c, 4, 60, 88
8, 35909, Note_off_c, 4, 60, 0
8, 35910, Note_on_c, 4, 61, 88
8, 35932, Note_off_c, 4, 61, 0
8, 35933, Note_on_c, 4, 60, 88
8, 35954, Note_off_c, 4, 60, 0
8, 35955, Note_on_c, 4, 58, 88
8, 35977, Note_off_c, 4, 58, 0
8, 35978, Note_on_c, 4, 60, 88
8, 35999, Note_off_c, 4, 60, 0
8, 36000, Note_on_c, 4, 61, 88
8, 36294, Note_off_c, 4, 61, 0
8, 36300, Note_on_c, 4, 59, 88
8, 36358, Note_off_c, 4, 59, 0
8, 36360, Note_on_c, 4, 57, 88
8, 36418, Note_off_c, 4, 57, 0
8, 36420, Note_on_c, 4, 56, 88
8, 36478, Note_off_c, 4, 56, 0
8, 36480, Note_on_c, 4, 57, 88
8, 36538, Note_off_c, 4, 57, 0
8, 36540, Note_on_c, 4, 61, 88
8, 36598, Note_off_c, 4, 61, 0
8, 36600, Note_on_c, 4, 54, 88
8, 36658, Note_off_c, 4, 54, 0
8, 36660, Note_on_c, 4, 57, 88
8, 36718, Note_off_c, 4, 57, 0
8, 36720, Note_on_c, 4, 56, 88
8, 36836, Note_off_c, 4, 56, 0
8, 36840, Note_on_c, 4, 44, 88
8, 36956, Note_off_c, 4, 44, 0
8, 36960, Note_on_c, 4, 56, 88
8, 37076, Note_off_c, 4, 56, 0
8, 37080, Note_on_c, 4, 57, 88
8, 37196, Note_off_c, 4, 57, 0
8, 37200, Note_on_c, 4, 56, 88
8, 37316, Note_off_c, 4, 56, 0
8, 37320, Note_on_c, 4, 54, 88
8, 37436, Note_off_c, 4, 54, 0
8, 37440, Note_on_c, 4, 52, 88
8, 37556, Note_off_c, 4, 52, 0
8, 37920, Note_on_c, 4, 49, 88
8, 38154, Note_off_c, 4, 49, 0
8, 38160, Note_on_c, 4, 48, 88
8, 38276, Note_off_c, 4, 48, 0
8, 38640, Note_on_c, 4, 44, 88
8, 38874, Note_off_c, 4, 44, 0
8, 38880, Note_on_c, 4, 49, 88
8, 38996, Note_off_c, 4, 49, 0
8, 39000, Note_on_c, 4, 52, 88
8, 39116, Note_off_c, 4, 52, 0
8, 39120, Note_on_c, 4, 54, 88
8, 39236, Note_off_c, 4, 54, 0
8, 39240, Note_on_c, 4, 57, 88
8, 39356, Note_off_c, 4, 57, 0
8, 39360, Note_on_c, 4, 55, 88
8, 39476, Note_off_c, 4, 55, 0
8, 39480, Note_on_c, 4, 56, 88
8, 39596, Note_off_c, 4, 56, 0
8, 39600, Note_on_c, 4, 49, 88
8, 39716, Note_off_c, 4, 49, 0
8, 39720, Note_on_c, 4, 52, 88
8, 39836, Note_off_c, 4, 52, 0
8, 39840, Note_on_c, 4, 56, 88
8, 39956, Note_off_c, 4, 56, 0
8, 39960, Note_on_c, 4, 61, 88
8, 40076, Note_off_c, 4, 61, 0
8, 40080, Note_on_c, 4, 59, 88
8, 40196, Note_off_c, 4, 59, 0
8, 40200, Note_on_c, 4, 57, 88
8, 40316, Note_off_c, 4, 57, 0
8, 40320, Note_on_c, 4, 56, 88
8, 40436, Note_off_c, 4, 56, 0
8, 40440, Note_on_c, 4, 59, 88
8, 40556, Note_off_c, 4, 59, 0
8, 40560, Note_on_c, 4, 64, 88
8, 40676, Note_off_c, 4, 64, 0
8, 40680, Note_on_c, 4, 68, 88
8, 40796, Note_off_c, 4, 68, 0
8, 40800, Note_on_c, 4, 66, 88
8, 40916, Note_off_c, 4, 66, 0
8, 40920, Note_on_c, 4, 64, 88
8, 41036, Note_off_c, 4, 64, 0
8, 41040, Note_on_c, 4, 63, 88
8, 41156, Note_off_c, 4, 63, 0
8, 41160, Note_on_c, 4, 68, 88
8, 41276, Note_off_c, 4, 68, 0
8, 41280, Note_on_c, 4, 66, 88
8, 41396, Note_off_c, 4, 66, 0
8, 41400, Note_on_c, 4, 64, 88
8, 41516, Note_off_c, 4, 64, 0
8, 41520, Note_on_c, 4, 63, 88
8, 41636, Note_off_c, 4, 63, 0
8, 41640, Note_on_c, 4, 61, 88
8, 41756, Note_off_c, 4, 61, 0
8, 41760, Note_on_c, 4, 59, 88
8, 41876, Note_off_c, 4, 59, 0
8, 41880, Note_on_c, 4, 61, 88
8, 41996, Note_off_c, 4, 61, 0
8, 42000, Note_on_c, 4, 59, 88
8, 42116, Note_off_c, 4, 59, 0
8, 42120, Note_on_c, 4, 57, 88
8, 42236, Note_off_c, 4, 57, 0
8, 42240, Note_on_c, 4, 56, 88
8, 42356, Note_off_c, 4, 56, 0
8, 42360, Note_on_c, 4, 54, 88
8, 42476, Note_off_c, 4, 54, 0
8, 42480, Note_on_c, 4, 52, 88
8, 42596, Note_off_c, 4, 52, 0
8, 42600, Note_on_c, 4, 54, 88
8, 42716, Note_off_c, 4, 54, 0
8, 42720, Note_on_c, 4, 56, 88
8, 42836, Note_off_c, 4, 56, 0
8, 42840, Note_on_c, 4, 52, 88
8, 42956, Note_off_c, 4, 52, 0
8, 42960, Note_on_c, 4, 49, 88
8, 43076, Note_off_c, 4, 49, 0
8, 43080, Note_on_c, 4, 52, 88
8, 43196, Note_off_c, 4, 52, 0
8, 43200, Note_on_c, 4, 45, 88
8, 43316, Note_off_c, 4, 45, 0
8, 43320, Note_on_c, 4, 57, 88
8, 43495, Note_off_c, 4, 57, 0
8, 43500, Note_on_c, 4, 56, 88
8, 43558, Note_off_c, 4, 56, 0
8, 43560, Note_on_c, 4, 54, 88
8, 43618, Note_off_c, 4, 54, 0
8, 43620, Note_on_c, 4, 52, 88
8, 43678, Note_off_c, 4, 52, 0
8, 43680, Note_on_c, 4, 51, 88
8, 43738, Note_off_c, 4, 51, 0
8, 43740, Note_on_c, 4, 49, 88
8, 43798, Note_off_c, 4, 49, 0
8, 43800, Note_on_c, 4, 47, 88
8, 43858, Note_off_c, 4, 47, 0
8, 43860, Note_on_c, 4, 45, 88
8, 43918, Note_off_c, 4, 45, 0
8, 43920, Note_on_c, 4, 44, 88
8, 44036, Note_off_c, 4, 44, 0
8, 44040, Note_on_c, 4, 56, 88
8, 44215, Note_off_c, 4, 56, 0
8, 44220, Note_on_c, 4, 54, 88
8, 44278, Note_off_c, 4, 54, 0
8, 44280, Note_on_c, 4, 52, 88
8, 44338, Note_off_c, 4, 52, 0
8, 44340, Note_on_c, 4, 51, 88
8, 44398, Note_off_c, 4, 51, 0
8, 44400, Note_on_c, 4, 49, 88
8, 44458, Note_off_c, 4, 49, 0
8, 44460, Note_on_c, 4, 47, 88
8, 44518, Note_off_c, 4, 47, 0
8, 44520, Note_on_c, 4, 45, 88
8, 44578, Note_off_c, 4, 45, 0
8, 44580, Note_on_c, 4, 44, 88
8, 44638, Note_off_c, 4, 44, 0
8, 44640, Note_on_c, 4, 42, 88
8, 44756, Note_off_c, 4, 42, 0
8, 44760, Note_on_c, 4, 54, 88
8, 44935, Note_off_c, 4, 54, 0
8, 44940, Note_on_c, 4, 52, 88
8, 44998, Note_off_c, 4, 52, 0
8, 45000, Note_on_c, 4, 51, 88
8, 45058, Note_off_c, 4, 51, 0
8, 45060, Note_on_c, 4, 49, 88
8, 45118, Note_off_c, 4, 49, 0
8, 45120, Note_on_c, 4, 47, 88
8, 45178, Note_off_c, 4, 47, 0
8, 45180, Note_on_c, 4, 45, 88
8, 45238, Note_off_c, 4, 45, 0
8, 45240, Note_on_c, 4, 44, 88
8, 45298, Note_off_c, 4, 44, 0
8, 45300, Note_on_c, 4, 42, 88
8, 45358, Note_off_c, 4, 42, 0
8, 45360, Note_on_c, 4, 40, 88
8, 45476, Note_off_c, 4, 40, 0
8, 45480, Note_on_c, 4, 52, 88
8, 45655, Note_off_c, 4, 52, 0
8, 45660, Note_on_c, 4, 51, 88
8, 45718, Note_off_c, 4, 51, 0
8, 45720, Note_on_c, 4, 52, 88
8, 45778, Note_off_c, 4, 52, 0
8, 45780, Note_on_c, 4, 54, 88
8, 45838, Note_off_c, 4, 54, 0
8, 45840, Note_on_c, 4, 56, 88
8, 45898, Note_off_c, 4, 56, 0
8, 45900, Note_on_c, 4, 59, 88
8, 45958, Note_off_c, 4, 59, 0
8, 45960, Note_on_c, 4, 52, 88
8, 46018, Note_off_c, 4, 52, 0
8, 46020, Note_on_c, 4, 56, 88
8, 46078, Note_off_c, 4, 56, 0
8, 46080, Note_on_c, 4, 57, 88
8, 46196, Note_off_c, 4, 57, 0
8, 46200, Note_on_c, 4, 45, 88
8, 46316, Note_off_c, 4, 45, 0
8, 46320, Note_on_c, 4, 57, 88
8, 46436, Note_off_c, 4, 57, 0
8, 46440, Note_on_c, 4, 59, 88
8, 46556, Note_off_c, 4, 59, 0
8, 46560, Note_on_c, 4, 57, 88
8, 46676, Note_off_c, 4, 57, 0
8, 46680, Note_on_c, 4, 56, 88
8, 46796, Note_off_c, 4, 56, 0
8, 46800, Note_on_c, 4, 54, 88
8, 47034, Note_off_c, 4, 54, 0
8, 47160, Note_on_c, 4, 56, 88
8, 47276, Note_off_c, 4, 56, 0
8, 47280, Note_on_c, 4, 54, 88
8, 47396, Note_off_c, 4, 54, 0
8, 47400, Note_on_c, 4, 52, 88
8, 47516, Note_off_c, 4, 52, 0
8, 47520, Note_on_c, 4, 52, 88
8, 47593, Note_off_c, 4, 52, 0
8, 47595, Note_on_c, 4, 51, 88
8, 47617, Note_off_c, 4, 51, 0
8, 47618, Note_on_c, 4, 52, 88
8, 47639, Note_off_c, 4, 52, 0
8, 47640, Note_on_c, 4, 51, 88
8, 47662, Note_off_c, 4, 51, 0
8, 47663, Note_on_c, 4, 52, 88
8, 47684, Note_off_c, 4, 52, 0
8, 47685, Note_on_c, 4, 51, 88
8, 47707, Note_off_c, 4, 51, 0
8, 47708, Note_on_c, 4, 52, 88
8, 47722, Note_off_c, 4, 52, 0
8, 47723, Note_on_c, 4, 51, 88
8, 47817, Note_off_c, 4, 51, 0
8, 47820, Note_on_c, 4, 59, 88
8, 47878, Note_off_c, 4, 59, 0
8, 47880, Note_on_c, 4, 61, 88
8, 47938, Note_off_c, 4, 61, 0
8, 47940, Note_on_c, 4, 63, 88
8, 47998, Note_off_c, 4, 63, 0
8, 48000, Note_on_c, 4, 64, 88
8, 48058, Note_off_c, 4, 64, 0
8, 48060, Note_on_c, 4, 61, 88
8, 48118, Note_off_c, 4, 61, 0
8, 48120, Note_on_c, 4, 59, 88
8, 48178, Note_off_c, 4, 59, 0
8, 48180, Note_on_c, 4, 57, 88
8, 48238, Note_off_c, 4, 57, 0
8, 48240, Note_on_c, 4, 56, 88
8, 48298, Note_off_c, 4, 56, 0
8, 48300, Note_on_c, 4, 54, 88
8, 48358, Note_off_c, 4, 54, 0
8, 48360, Note_on_c, 4, 56, 88
8, 48418, Note_off_c, 4, 56, 0
8, 48420, Note_on_c, 4, 57, 88
8, 48478, Note_off_c, 4, 57, 0
8, 48480, Note_on_c, 4, 59, 88
8, 48538, Note_off_c, 4, 59, 0
8, 48540, Note_on_c, 4, 56, 88
8, 48598, Note_off_c, 4, 56, 0
8, 48600, Note_on_c, 4, 54, 88
8, 48658, Note_off_c, 4, 54, 0
8, 48660, Note_on_c, 4, 52, 88
8, 48718, Note_off_c, 4, 52, 0
8, 48720, Note_on_c, 4, 51, 88
8, 48778, Note_off_c, 4, 51, 0
8, 48780, Note_on_c, 4, 49, 88
8, 48838, Note_off_c, 4, 49, 0
8, 48840, Note_on_c, 4, 51, 88
8, 48898, Note_off_c, 4, 51, 0
8, 48900, Note_on_c, 4, 52, 88
8, 48958, Note_off_c, 4, 52, 0
8, 48960, Note_on_c, 4, 54, 88
8, 49018, Note_off_c, 4, 54, 0
8, 49020, Note_on_c, 4, 51, 88
8, 49078, Note_off_c, 4, 51, 0
8, 49080, Note_on_c, 4, 49, 88
8, 49138, Note_off_c, 4, 49, 0
8, 49140, Note_on_c, 4, 47, 88
8, 49198, Note_off_c, 4, 47, 0
8, 49200, Note_on_c, 4, 52, 88
8, 49316, Note_off_c, 4, 52, 0
8, 49320, Note_on_c, 4, 49, 88
8, 49436, Note_off_c, 4, 49, 0
8, 49440, Note_on_c, 4, 45, 88
8, 49556, Note_off_c, 4, 45, 0
8, 49560, Note_on_c, 4, 47, 88
8, 49676, Note_off_c, 4, 47, 0
8, 49680, Note_on_c, 4, 52, 88
8, 49796, Note_off_c, 4, 52, 0
8, 49800, Note_on_c, 4, 40, 88
8, 49909, Note_off_c, 4, 40, 0
8, 49920, Note_on_c, 4, 40, 88
8, 50036, Note_off_c, 4, 40, 0
8, 50040, Note_on_c, 4, 52, 88
8, 50149, Note_off_c, 4, 52, 0
8, 50160, Note_on_c, 4, 52, 88
8, 50276, Note_off_c, 4, 52, 0
8, 50280, Note_on_c, 4, 40, 88
8, 50396, Note_off_c, 4, 40, 0
8, 50400, Note_on_c, 4, 52, 88
8, 50516, Note_off_c, 4, 52, 0
8, 50520, Note_on_c, 4, 40, 88
8, 50629, Note_off_c, 4, 40, 0
8, 50640, Note_on_c, 4, 40, 88
8, 50756, Note_off_c, 4, 40, 0
8, 50760, Note_on_c, 4, 52, 88
8, 50869, Note_off_c, 4, 52, 0
8, 50880, Note_on_c, 4, 52, 88
8, 50996, Note_off_c, 4, 52, 0
8, 51000, Note_on_c, 4, 40, 88
8, 51116, Note_off_c, 4, 40, 0
8, 51120, Note_on_c, 4, 52, 88
8, 51236, Note_off_c, 4, 52, 0
8, 51240, Note_on_c, 4, 40, 88
8, 51349, Note_off_c, 4, 40, 0
8, 51360, Note_on_c, 4, 40, 88
8, 51476, Note_off_c, 4, 40, 0
8, 51480, Note_on_c, 4, 52, 88
8, 51589, Note_off_c, 4, 52, 0
8, 51600, Note_on_c, 4, 52, 88
8, 51716, Note_off_c, 4, 52, 0
8, 51720, Note_on_c, 4, 40, 88
8, 51836, Note_off_c, 4, 40, 0
8, 51840, Note_on_c, 4, 39, 88
8, 51898, Note_off_c, 4, 39, 0
8, 51900, Note_on_c, 4, 42, 88
8, 51958, Note_off_c, 4, 42, 0
8, 51960, Note_on_c, 4, 47, 88
8, 52018, Note_off_c, 4, 47, 0
8, 52020, Note_on_c, 4, 49, 88
8, 52078, Note_off_c, 4, 49, 0
8, 52080, Note_on_c, 4, 51, 88
8, 52138, Note_off_c, 4, 51, 0
8, 52140, Note_on_c, 4, 52, 88
8, 52198, Note_off_c, 4, 52, 0
8, 52200, Note_on_c, 4, 54, 88
8, 52258, Note_off_c, 4, 54, 0
8, 52260, Note_on_c, 4, 56, 88
8, 52318, Note_off_c, 4, 56, 0
8, 52320, Note_on_c, 4, 57, 88
8, 52378, Note_off_c, 4, 57, 0
8, 52620, Note_on_c, 4, 59, 88
8, 52678, Note_off_c, 4, 59, 0
8, 52680, Note_on_c, 4, 56, 88
8, 52738, Note_off_c, 4, 56, 0
8, 52740, Note_on_c, 4, 52, 88
8, 52798, Note_off_c, 4, 52, 0
8, 52800, Note_on_c, 4, 59, 88
8, 53034, Note_off_c, 4, 59, 0
8, 53040, Note_on_c, 4, 47, 88
8, 53274, Note_off_c, 4, 47, 0
8, 53280, Note_on_c, 4, 52, 88
8, 53929, Note_off_c, 4, 52, 0
8, 53940, Note_on_c, 4, 52, 88
8, 54649, Note_off_c, 4, 52, 0
8, 54660, Note_on_c, 4, 52, 88
8, 56148, Note_off_c, 4, 52, 0
8, 56160, Note_on_c, 4, 59, 88
8, 57114, Note_off_c, 4, 59, 0
8, 57120, Note_on_c, 4, 61, 88
8, 57142, Note_off_c, 4, 61, 0
8, 57143, Note_on_c, 4, 60, 88
8, 57172, Note_off_c, 4, 60, 0
8, 57173, Note_on_c, 4, 61, 88
8, 57202, Note_off_c, 4, 61, 0
8, 57203, Note_on_c, 4, 60, 88
8, 57232, Note_off_c, 4, 60, 0
8, 57233, Note_on_c, 4, 61, 88
8, 57262, Note_off_c, 4, 61, 0
8, 57263, Note_on_c, 4, 60, 88
8, 57284, Note_off_c, 4, 60, 0
8, 57285, Note_on_c, 4, 61, 88
8, 57307, Note_off_c, 4, 61, 0
8, 57308, Note_on_c, 4, 60, 88
8, 57329, Note_off_c, 4, 60, 0
8, 57330, Note_on_c, 4, 61, 88
8, 57352, Note_off_c, 4, 61, 0
8, 57353, Note_on_c, 4, 60, 88
8, 57374, Note_off_c, 4, 60, 0
8, 57375, Note_on_c, 4, 61, 88
8, 57397, Note_off_c, 4, 61, 0
8, 57398, Note_on_c, 4, 60, 88
8, 57419, Note_off_c, 4, 60, 0
8, 57420, Note_on_c, 4, 61, 88
8, 57442, Note_off_c, 4, 61, 0
8, 57443, Note_on_c, 4, 60, 88
8, 57464, Note_off_c, 4, 60, 0
8, 57465, Note_on_c, 4, 61, 88
8, 57487, Note_off_c, 4, 61, 0
8, 57488, Note_on_c, 4, 60, 88
8, 57509, Note_off_c, 4, 60, 0
8, 57510, Note_on_c, 4, 61, 88
8, 57532, Note_off_c, 4, 61, 0
8, 57533, Note_on_c, 4, 60, 88
8, 57554, Note_off_c, 4, 60, 0
8, 57555, Note_on_c, 4, 58, 88
8, 57577, Note_off_c, 4, 58, 0
8, 57578, Note_on_c, 4, 60, 88
8, 57599, Note_off_c, 4, 60, 0
8, 57600, Note_on_c, 4, 61, 88
8, 57894, Note_off_c, 4, 61, 0
8, 57900, Note_on_c, 4, 59, 88
8, 57958, Note_off_c, 4, 59, 0
8, 57960, Note_on_c, 4, 57, 88
8, 58018, Note_off_c, 4, 57, 0
8, 58020, Note_on_c, 4, 56, 88
8, 58078, Note_off_c, 4, 56, 0
8, 58080, Note_on_c, 4, 57, 88
8, 58138, Note_off_c, 4, 57, 0
8, 58140, Note_on_c, 4, 61, 88
8, 58198, Note_off_c, 4, 61, 0
8, 58200, Note_on_c, 4, 54, 88
8, 58258, Note_off_c, 4, 54, 0
8, 58260, Note_on_c, 4, 57, 88
8, 58318, Note_off_c, 4, 57, 0
8, 58320, Note_on_c, 4, 56, 88
8, 58436, Note_off_c, 4, 56, 0
8, 58440, Note_on_c, 4, 44, 88
8, 58556, Note_off_c, 4, 44, 0
8, 58560, Note_on_c, 4, 56, 88
8, 58676, Note_off_c, 4, 56, 0
8, 58680, Note_on_c, 4, 57, 88
8, 58796, Note_off_c, 4, 57, 0
8, 58800, Note_on_c, 4, 56, 88
8, 58916, Note_off_c, 4, 56, 0
8, 58920, Note_on_c, 4, 54, 88
8, 59036, Note_off_c, 4, 54, 0
8, 59040, Note_on_c, 4, 52, 88
8, 59156, Note_off_c, 4, 52, 0
8, 59520, Note_on_c, 4, 49, 88
8, 59754, Note_off_c, 4, 49, 0
8, 59760, Note_on_c, 4, 48, 88
8, 59876, Note_off_c, 4, 48, 0
8, 60240, Note_on_c, 4, 44, 88
8, 60474, Note_off_c, 4, 44, 0
8, 60480, Note_on_c, 4, 49, 88
8, 60596, Note_off_c, 4, 49, 0
8, 60600, Note_on_c, 4, 52, 88
8, 60716, Note_off_c, 4, 52, 0
8, 60720, Note_on_c, 4, 54, 88
8, 60836, Note_off_c, 4, 54, 0
8, 60840, Note_on_c, 4, 57, 88
8, 60956, Note_off_c, 4, 57, 0
8, 60960, Note_on_c, 4, 55, 88
8, 61076, Note_off_c, 4, 55, 0
8, 61080, Note_on_c, 4, 56, 88
8, 61196, Note_off_c, 4, 56, 0
8, 61200, Note_on_c, 4, 49, 88
8, 61316, Note_off_c, 4, 49, 0
8, 61320, Note_on_c, 4, 52, 88
8, 61436, Note_off_c, 4, 52, 0
8, 61440, Note_on_c, 4, 56, 88
8, 61556, Note_off_c, 4, 56, 0
8, 61560, Note_on_c, 4, 61, 88
8, 61676, Note_off_c, 4, 61, 0
8, 61680, Note_on_c, 4, 59, 88
8, 61796, Note_off_c, 4, 59, 0
8, 61800, Note_on_c, 4, 57, 88
8, 61916, Note_off_c, 4, 57, 0
8, 61920, Note_on_c, 4, 56, 88
8, 62036, Note_off_c, 4, 56, 0
8, 62040, Note_on_c, 4, 59, 88
8, 62156, Note_off_c, 4, 59, 0
8, 62160, Note_on_c, 4, 64, 88
8, 62276, Note_off_c, 4, 64, 0
8, 62280, Note_on_c, 4, 68, 88
8, 62396, Note_off_c, 4, 68, 0
8, 62400, Note_on_c, 4, 66, 88
8, 62516, Note_off_c, 4, 66, 0
8, 62520, Note_on_c, 4, 64, 88
8, 62636, Note_off_c, 4, 64, 0
8, 62640, Note_on_c, 4, 63, 88
8, 62756, Note_off_c, 4, 63, 0
8, 62760, Note_on_c, 4, 68, 88
8, 62876, Note_off_c, 4, 68, 0
8, 62880, Note_on_c, 4, 66, 88
8, 62996, Note_off_c, 4, 66, 0
8, 63000, Note_on_c, 4, 64, 88
8, 63116, Note_off_c, 4, 64, 0
8, 63120, Note_on_c, 4, 63, 88
8, 63236, Note_off_c, 4, 63, 0
8, 63240, Note_on_c, 4, 61, 88
8, 63356, Note_off_c, 4, 61, 0
8, 63360, Note_on_c, 4, 59, 88
8, 63476, Note_off_c, 4, 59, 0
8, 63480, Note_on_c, 4, 61, 88
8, 63596, Note_off_c, 4, 61, 0
8, 63600, Note_on_c, 4, 59, 88
8, 63716, Note_off_c, 4, 59, 0
8, 63720, Note_on_c, 4, 57, 88
8, 63836, Note_off_c, 4, 57, 0
8, 63840, Note_on_c, 4, 56, 88
8, 63956, Note_off_c, 4, 56, 0
8, 63960, Note_on_c, 4, 54, 88
8, 64076, Note_off_c, 4, 54, 0
8, 64080, Note_on_c, 4, 52, 88
8, 64196, Note_off_c, 4, 52, 0
8, 64200, Note_on_c, 4, 54, 88
8, 64316, Note_off_c, 4, 54, 0
8, 64320, Note_on_c, 4, 56, 88
8, 64436, Note_off_c, 4, 56, 0
8, 64440, Note_on_c, 4, 52, 88
8, 64556, Note_off_c, 4, 52, 0
8, 64560, Note_on_c, 4, 49, 88
8, 64676, Note_off_c, 4, 49, 0
8, 64680, Note_on_c, 4, 52, 88
8, 64796, Note_off_c, 4, 52, 0
8, 64800, Note_on_c, 4, 45, 88
8, 64916, Note_off_c, 4, 45, 0
8, 64920, Note_on_c, 4, 57, 88
8, 65095, Note_off_c, 4, 57, 0
8, 65100, Note_on_c, 4, 56, 88
8, 65158, Note_off_c, 4, 56, 0
8, 65160, Note_on_c, 4, 54, 88
8, 65218, Note_off_c, 4, 54, 0
8, 65220, Note_on_c, 4, 52, 88
8, 65278, Note_off_c, 4, 52, 0
8, 65280, Note_on_c, 4, 51, 88
8, 65338, Note_off_c, 4, 51, 0
8, 65340, Note_on_c, 4, 49, 88
8, 65398, Note_off_c, 4, 49, 0
8, 65400, Note_on_c, 4, 47, 88
8, 65458, Note_off_c, 4, 47, 0
8, 65460, Note_on_c, 4, 45, 88
8, 65518, Note_off_c, 4, 45, 0
8, 65520, Note_on_c, 4, 44, 88
8, 65636, Note_off_c, 4, 44, 0
8, 65640, Note_on_c, 4, 56, 88
8, 65815, Note_off_c, 4, 56, 0
8, 65820, Note_on_c, 4, 54, 88
8, 65878, Note_off_c, 4, 54, 0
8, 65880, Note_on_c, 4, 52, 88
8, 65938, Note_off_c, 4, 52, 0
8, 65940, Note_on_c, 4, 51, 88
8, 65998, Note_off_c, 4, 51, 0
8, 66000, Note_on_c, 4, 49, 88
8, 66058, Note_off_c, 4, 49, 0
8, 66060, Note_on_c, 4, 47, 88
8, 66118, Note_off_c, 4, 47, 0
8, 66120, Note_on_c, 4, 45, 88
8, 66178, Note_off_c, 4, 45, 0
8, 66180, Note_on_c, 4, 44, 88
8, 66238, Note_off_c, 4, 44, 0
8, 66240, Note_on_c, 4, 42, 88
8, 66356, Note_off_c, 4, 42, 0
8, 66360, Note_on_c, 4, 54, 88
8, 66535, Note_off_c, 4, 54, 0
8, 66540, Note_on_c, 4, 52, 88
8, 66598, Note_off_c, 4, 52, 0
8, 66600, Note_on_c, 4, 51, 88
8, 66658, Note_off_c, 4, 51, 0
8, 66660, Note_on_c, 4, 49, 88
8, 66718, Note_off_c, 4, 49, 0
8, 66720, Note_on_c, 4, 47, 88
8, 66778, Note_off_c, 4, 47, 0
8, 66780, Note_on_c, 4, 45, 88
8, 66838, Note_off_c, 4, 45, 0
8, 66840, Note_on_c, 4, 44, 88
8, 66898, Note_off_c, 4, 44, 0
8, 66900, Note_on_c, 4, 42, 88
8, 66958, Note_off_c, 4, 42, 0
8, 66960, Note_on_c, 4, 40, 88
8, 67076, Note_off_c, 4, 40, 0
8, 67080, Note_on_c, 4, 52, 88
8, 67255, Note_off_c, 4, 52, 0
8, 67260, Note_on_c, 4, 51, 88
8, 67318, Note_off_c, 4, 51, 0
8, 67320, Note_on_c, 4, 52, 88
8, 67378, Note_off_c, 4, 52, 0
8, 67380, Note_on_c, 4, 54, 88
8, 67438, Note_off_c, 4, 54, 0
8, 67440, Note_on_c, 4, 56, 88
8, 67498, Note_off_c, 4, 56, 0
8, 67500, Note_on_c, 4, 59, 88
8, 67558, Note_off_c, 4, 59, 0
8, 67560, Note_on_c, 4, 52, 88
8, 67618, Note_off_c, 4, 52, 0
8, 67620, Note_on_c, 4, 56, 88
8, 67678, Note_off_c, 4, 56, 0
8, 67680, Note_on_c, 4, 57, 88
8, 67796, Note_off_c, 4, 57, 0
8, 67800, Note_on_c, 4, 45, 88
8, 67916, Note_off_c, 4, 45, 0
8, 67920, Note_on_c, 4, 57, 88
8, 68036, Note_off_c, 4, 57, 0
8, 68040, Note_on_c, 4, 59, 88
8, 68156, Note_off_c, 4, 59, 0
8, 68160, Note_on_c, 4, 57, 88
8, 68276, Note_off_c, 4, 57, 0
8, 68280, Note_on_c, 4, 56, 88
8, 68396, Note_off_c, 4, 56, 0
8, 68400, Note_on_c, 4, 54, 88
8, 68634, Note_off_c, 4, 54, 0
8, 68760, Note_on_c, 4, 56, 88
8, 68876, Note_off_c, 4, 56, 0
8, 68880, Note_on_c, 4, 54, 88
8, 68996, Note_off_c, 4, 54, 0
8, 69000, Note_on_c, 4, 52, 88
8, 69116, Note_off_c, 4, 52, 0
8, 69120, Note_on_c, 4, 52, 88
8, 69193, Note_off_c, 4, 52, 0
8, 69195, Note_on_c, 4, 51, 88
8, 69217, Note_off_c, 4, 51, 0
8, 69218, Note_on_c, 4, 52, 88
8, 69239, Note_off_c, 4, 52, 0
8, 69240, Note_on_c, 4, 51, 88
8, 69262, Note_off_c, 4, 51, 0
8, 69263, Note_on_c, 4, 52, 88
8, 69284, Note_off_c, 4, 52, 0
8, 69285, Note_on_c, 4, 51, 88
8, 69307, Note_off_c, 4, 51, 0
8, 69308, Note_on_c, 4, 52, 88
8, 69322, Note_off_c, 4, 52, 0
8, 69323, Note_on_c, 4, 51, 88
8, 69417, Note_off_c, 4, 51, 0
8, 69420, Note_on_c, 4, 59, 88
8, 69478, Note_off_c, 4, 59, 0
8, 69480, Note_on_c, 4, 61, 88
8, 69538, Note_off_c, 4, 61, 0
8, 69540, Note_on_c, 4, 63, 88
8, 69598, Note_off_c, 4, 63, 0
8, 69600, Note_on_c, 4, 64, 88
8, 69658, Note_off_c, 4, 64, 0
8, 69660, Note_on_c, 4, 61, 88
8, 69718, Note_off_c, 4, 61, 0
8, 69720, Note_on_c, 4, 59, 88
8, 69778, Note_off_c, 4, 59, 0
8, 69780, Note_on_c, 4, 57, 88
8, 69838, Note_off_c, 4, 57, 0
8, 69840, Note_on_c, 4, 56, 88
8, 69898, Note_off_c, 4, 56, 0
8, 69900, Note_on_c, 4, 54, 88
8, 69958, Note_off_c, 4, 54, 0
8, 69960, Note_on_c, 4, 56, 88
8, 70018, Note_off_c, 4, 56, 0
8, 70020, Note_on_c, 4, 57, 88
8, 70078, Note_off_c, 4, 57, 0
8, 70080, Note_on_c, 4, 59, 88
8, 70138, Note_off_c, 4, 59, 0
8, 70140, Note_on_c, 4, 56, 88
8, 70198, Note_off_c, 4, 56, 0
8, 70200, Note_on_c, 4, 54, 88
8, 70258, Note_off_c, 4, 54, 0
8, 70260, Note_on_c, 4, 52, 88
8, 70318, Note_off_c, 4, 52, 0
8, 70320, Note_on_c, 4, 51, 88
8, 70378, Note_off_c, 4, 51, 0
8, 70380, Note_on_c, 4, 49, 88
8, 70438, Note_off_c, 4, 49, 0
8, 70440, Note_on_c, 4, 51, 88
8, 70498, Note_off_c, 4, 51, 0
8, 70500, Note_on_c, 4, 52, 88
8, 70558, Note_off_c, 4, 52, 0
8, 70560, Note_on_c, 4, 54, 88
8, 70618, Note_off_c, 4, 54, 0
8, 70620, Note_on_c, 4, 51, 88
8, 70678, Note_off_c, 4, 51, 0
8, 70680, Note_on_c, 4, 49, 88
8, 70738, Note_off_c, 4, 49, 0
8, 70740, Note_on_c, 4, 47, 88
8, 70798, Note_off_c, 4, 47, 0
8, 70800, Note_on_c, 4, 52, 88
8, 70916, Note_off_c, 4, 52, 0
8, 70920, Note_on_c, 4, 49, 88
8, 71036, Note_off_c, 4, 49, 0
8, 71040, Note_on_c, 4, 45, 88
8, 71156, Note_off_c, 4, 45, 0
8, 71160, Note_on_c, 4, 47, 88
8, 71276, Note_off_c, 4, 47, 0
8, 71280, Note_on_c, 4, 52, 88
8, 71396, Note_off_c, 4, 52, 0
8, 71400, Note_on_c, 4, 40, 88
8, 71509, Note_off_c, 4, 40, 0
8, 71520, Note_on_c, 4, 40, 88
8, 71636, Note_off_c, 4, 40, 0
8, 71640, Note_on_c, 4, 52, 88
8, 71749, Note_off_c, 4, 52, 0
8, 71760, Note_on_c, 4, 52, 88
8, 71876, Note_off_c, 4, 52, 0
8, 71880, Note_on_c, 4, 40, 88
8, 71996, Note_off_c, 4, 40, 0
8, 72000, Note_on_c, 4, 52, 88
8, 72116, Note_off_c, 4, 52, 0
8, 72120, Note_on_c, 4, 40, 88
8, 72229, Note_off_c, 4, 40, 0
8, 72240, Note_on_c, 4, 40, 88
8, 72356, Note_off_c, 4, 40, 0
8, 72360, Note_on_c, 4, 52, 88
8, 72469, Note_off_c, 4, 52, 0
8, 72480, Note_on_c, 4, 52, 88
8, 72596, Note_off_c, 4, 52, 0
8, 72600, Note_on_c, 4, 40, 88
8, 72716, Note_off_c, 4, 40, 0
8, 72720, Note_on_c, 4, 52, 88
8, 72836, Note_off_c, 4, 52, 0
8, 72840, Note_on_c, 4, 40, 88
8, 72949, Note_off_c, 4, 40, 0
8, 72960, Note_on_c, 4, 40, 88
8, 73076, Note_off_c, 4, 40, 0
8, 73080, Note_on_c, 4, 52, 88
8, 73189, Note_off_c, 4, 52, 0
8, 73200, Note_on_c, 4, 52, 88
8, 73316, Note_off_c, 4, 52, 0
8, 73320, Note_on_c, 4, 40, 88
8, 73436, Note_off_c, 4, 40, 0
8, 73440, Note_on_c, 4, 39, 88
8, 73498, Note_off_c, 4, 39, 0
8, 73500, Note_on_c, 4, 42, 88
8, 73558, Note_off_c, 4, 42, 0
8, 73560, Note_on_c, 4, 47, 88
8, 73618, Note_off_c, 4, 47, 0
8, 73620, Note_on_c, 4, 49, 88
8, 73678, Note_off_c, 4, 49, 0
8, 73680, Note_on_c, 4, 51, 88
8, 73738, Note_off_c, 4, 51, 0
8, 73740, Note_on_c, 4, 52, 88
8, 73798, Note_off_c, 4, 52, 0
8, 73800, Note_on_c, 4, 54, 88
8, 73858, Note_off_c, 4, 54, 0
8, 73860, Note_on_c, 4, 56, 88
8, 73918, Note_off_c, 4, 56, 0
8, 73920, Note_on_c, 4, 57, 88
8, 73978, Note_off_c, 4, 57, 0
8, 74220, Note_on_c, 4, 59, 88
8, 74278, Note_off_c, 4, 59, 0
8, 74280, Note_on_c, 4, 56, 88
8, 74338, Note_off_c, 4, 56, 0
8, 74340, Note_on_c, 4, 52, 88
8, 74398, Note_off_c, 4, 52, 0
8, 74400, Note_on_c, 4, 59, 88
8, 74634, Note_off_c, 4, 59, 0
8, 74640, Note_on_c, 4, 47, 88
8, 74874, Note_off_c, 4, 47, 0
8, 74880, Note_on_c, 4, 52, 88
8, 75529, Note_off_c, 4, 52, 0
8, 75540, Note_on_c, 4, 52, 88
8, 76249, Note_off_c, 4, 52, 0
8, 76260, Note_on_c, 4, 52, 88
8, 77748, Note_off_c, 4, 52, 0
8, 77748, End_track
0, 0, End_of_file
