0, 0, Header, 1, 5, 240
1, 0, Start_track
1, 0, Time_signature, 3, 3, 24, 8
1, 0, Tempo, 789473
1, 0, SMPTE_offset, 64, 0, 0, 0, 103
1, 17280, Time_signature, 3, 3, 24, 8
1, 17280, End_track
2, 0, Start_track
2, 0, Title_t, "(C) & (P) 1993"
2, 127, End_track
3, 0, Start_track
3, 0, Title_t, "CCARH,Stanford"
3, 0, End_track
4, 0, Start_track
4, 0, Title_t, "Track 1"
4, 0, Program_c, 0, 6
4, 60, Note_on_c, 0, 67, 88
4, 118, Note_off_c, 0, 67, 0
4, 120, Note_on_c, 0, 69, 88
4, 178, Note_off_c, 0, 69, 0
4, 180, Note_on_c, 0, 71, 88
4, 238, Note_off_c, 0, 71, 0
4, 240, Note_on_c, 0, 72, 88
4, 298, Note_off_c, 0, 72, 0
4, 300, Note_on_c, 0, 69, 88
4, 358, Note_off_c, 0, 69, 0
4, 360, Note_on_c, 0, 71, 88
4, 418, Note_off_c, 0, 71, 0
4, 420, Note_on_c, 0, 67, 88
4, 478, Note_off_c, 0, 67, 0
4, 480, Note_on_c, 0, 66, 88
4, 538, Note_off_c, 0, 66, 0
4, 540, Note_on_c, 0, 64, 88
4, 598, Note_off_c, 0, 64, 0
4, 600, Note_on_c, 0, 63, 88
4, 658, Note_off_c, 0, 63, 0
4, 660, Note_on_c, 0, 69, 88
4, 718, Note_off_c, 0, 69, 0
4, 720, Note_on_c, 0, 67, 88
4, 749, Note_off_c, 0, 67, 0
4, 750, Note_on_c, 0, 66, 88
4, 779, Note_off_c, 0, 66, 0
4, 780, Note_on_c, 0, 64, 88
4, 838, Note_off_c, 0, 64, 0
4, 840, Note_on_c, 0, 76, 88
4, 956, Note_off_c, 0, 76, 0
4, 1080, Note_on_c, 0, 75, 88
4, 1109, Note_off_c, 0, 75, 0
4, 1110, Note_on_c, 0, 73, 88
4, 1139, Note_off_c, 0, 73, 0
4, 1140, Note_on_c, 0, 71, 88
4, 1198, Note_off_c, 0, 71, 0
4, 1200, Note_on_c, 0, 81, 88
4, 1316, Note_off_c, 0, 81, 0
4, 1500, Note_on_c, 0, 67, 88
4, 1558, Note_off_c, 0, 67, 0
4, 1560, Note_on_c, 0, 69, 88
4, 1618, Note_off_c, 0, 69, 0
4, 1620, Note_on_c, 0, 71, 88
4, 1678, Note_off_c, 0, 71, 0
4, 1680, Note_on_c, 0, 72, 88
4, 1738, Note_off_c, 0, 72, 0
4, 1740, Note_on_c, 0, 69, 88
4, 1798, Note_off_c, 0, 69, 0
4, 1800, Note_on_c, 0, 71, 88
4, 1858, Note_off_c, 0, 71, 0
4, 1860, Note_on_c, 0, 67, 88
4, 1918, Note_off_c, 0, 67, 0
4, 1920, Note_on_c, 0, 66, 88
4, 1978, Note_off_c, 0, 66, 0
4, 1980, Note_on_c, 0, 64, 88
4, 2038, Note_off_c, 0, 64, 0
4, 2040, Note_on_c, 0, 63, 88
4, 2098, Note_off_c, 0, 63, 0
4, 2100, Note_on_c, 0, 69, 88
4, 2158, Note_off_c, 0, 69, 0
4, 2160, Note_on_c, 0, 67, 88
4, 2218, Note_off_c, 0, 67, 0
4, 2220, Note_on_c, 0, 71, 88
4, 2278, Note_off_c, 0, 71, 0
4, 2280, Note_on_c, 0, 72, 88
4, 2338, Note_off_c, 0, 72, 0
4, 2340, Note_on_c, 0, 74, 88
4, 2398, Note_off_c, 0, 74, 0
4, 2400, Note_on_c, 0, 76, 88
4, 2458, Note_off_c, 0, 76, 0
4, 2460, Note_on_c, 0, 72, 88
4, 2518, Note_off_c, 0, 72, 0
4, 2520, Note_on_c, 0, 74, 88
4, 2578, Note_off_c, 0, 74, 0
4, 2580, Note_on_c, 0, 71, 88
4, 2638, Note_off_c, 0, 71, 0
4, 2640, Note_on_c, 0, 69, 88
4, 2698, Note_off_c, 0, 69, 0
4, 2700, Note_on_c, 0, 67, 88
4, 2758, Note_off_c, 0, 67, 0
4, 2760, Note_on_c, 0, 66, 88
4, 2818, Note_off_c, 0, 66, 0
4, 2820, Note_on_c, 0, 72, 88
4, 2878, Note_off_c, 0, 72, 0
4, 2880, Note_on_c, 0, 71, 88
4, 2938, Note_off_c, 0, 71, 0
4, 2940, Note_on_c, 0, 74, 88
4, 2998, Note_off_c, 0, 74, 0
4, 3000, Note_on_c, 0, 76, 88
4, 3058, Note_off_c, 0, 76, 0
4, 3060, Note_on_c, 0, 78, 88
4, 3118, Note_off_c, 0, 78, 0
4, 3120, Note_on_c, 0, 79, 88
4, 3178, Note_off_c, 0, 79, 0
4, 3180, Note_on_c, 0, 76, 88
4, 3238, Note_off_c, 0, 76, 0
4, 3240, Note_on_c, 0, 78, 88
4, 3298, Note_off_c, 0, 78, 0
4, 3300, Note_on_c, 0, 74, 88
4, 3358, Note_off_c, 0, 74, 0
4, 3360, Note_on_c, 0, 73, 88
4, 3418, Note_off_c, 0, 73, 0
4, 3420, Note_on_c, 0, 71, 88
4, 3478, Note_off_c, 0, 71, 0
4, 3480, Note_on_c, 0, 70, 88
4, 3538, Note_off_c, 0, 70, 0
4, 3540, Note_on_c, 0, 76, 88
4, 3598, Note_off_c, 0, 76, 0
4, 3600, Note_on_c, 0, 74, 88
4, 3658, Note_off_c, 0, 74, 0
4, 3660, Note_on_c, 0, 78, 88
4, 3718, Note_off_c, 0, 78, 0
4, 3720, Note_on_c, 0, 76, 88
4, 3778, Note_off_c, 0, 76, 0
4, 3780, Note_on_c, 0, 74, 88
4, 3838, Note_off_c, 0, 74, 0
4, 3840, Note_on_c, 0, 73, 88
4, 3898, Note_off_c, 0, 73, 0
4, 3900, Note_on_c, 0, 71, 88
4, 3958, Note_off_c, 0, 71, 0
4, 3960, Note_on_c, 0, 70, 88
4, 3989, Note_off_c, 0, 70, 0
4, 3990, Note_on_c, 0, 68, 88
4, 4019, Note_off_c, 0, 68, 0
4, 4020, Note_on_c, 0, 66, 88
4, 4078, Note_off_c, 0, 66, 0
4, 4080, Note_on_c, 0, 76, 88
4, 4196, Note_off_c, 0, 76, 0
4, 4380, Note_on_c, 0, 74, 88
4, 4438, Note_off_c, 0, 74, 0
4, 4440, Note_on_c, 0, 76, 88
4, 4498, Note_off_c, 0, 76, 0
4, 4500, Note_on_c, 0, 78, 88
4, 4558, Note_off_c, 0, 78, 0
4, 4560, Note_on_c, 0, 79, 88
4, 4618, Note_off_c, 0, 79, 0
4, 4620, Note_on_c, 0, 76, 88
4, 4678, Note_off_c, 0, 76, 0
4, 4680, Note_on_c, 0, 78, 88
4, 4738, Note_off_c, 0, 78, 0
4, 4740, Note_on_c, 0, 74, 88
4, 4798, Note_off_c, 0, 74, 0
4, 4800, Note_on_c, 0, 73, 88
4, 4858, Note_off_c, 0, 73, 0
4, 4860, Note_on_c, 0, 71, 88
4, 4918, Note_off_c, 0, 71, 0
4, 4920, Note_on_c, 0, 70, 88
4, 4978, Note_off_c, 0, 70, 0
4, 4980, Note_on_c, 0, 76, 88
4, 5038, Note_off_c, 0, 76, 0
4, 5040, Note_on_c, 0, 74, 88
4, 5098, Note_off_c, 0, 74, 0
4, 5100, Note_on_c, 0, 71, 88
4, 5158, Note_off_c, 0, 71, 0
4, 5160, Note_on_c, 0, 73, 88
4, 5218, Note_off_c, 0, 73, 0
4, 5220, Note_on_c, 0, 74, 88
4, 5278, Note_off_c, 0, 74, 0
4, 5280, Note_on_c, 0, 76, 88
4, 5338, Note_off_c, 0, 76, 0
4, 5340, Note_on_c, 0, 73, 88
4, 5398, Note_off_c, 0, 73, 0
4, 5400, Note_on_c, 0, 74, 88
4, 5458, Note_off_c, 0, 74, 0
4, 5460, Note_on_c, 0, 71, 88
4, 5518, Note_off_c, 0, 71, 0
4, 5520, Note_on_c, 0, 69, 88
4, 5578, Note_off_c, 0, 69, 0
4, 5580, Note_on_c, 0, 67, 88
4, 5638, Note_off_c, 0, 67, 0
4, 5640, Note_on_c, 0, 66, 88
4, 5698, Note_off_c, 0, 66, 0
4, 5700, Note_on_c, 0, 72, 88
4, 5758, Note_off_c, 0, 72, 0
4, 5760, Note_on_c, 0, 71, 88
4, 5818, Note_off_c, 0, 71, 0
4, 5820, Note_on_c, 0, 67, 88
4, 5878, Note_off_c, 0, 67, 0
4, 5880, Note_on_c, 0, 76, 88
4, 5938, Note_off_c, 0, 76, 0
4, 5940, Note_on_c, 0, 71, 88
4, 5998, Note_off_c, 0, 71, 0
4, 6000, Note_on_c, 0, 72, 88
4, 6058, Note_off_c, 0, 72, 0
4, 6060, Note_on_c, 0, 81, 88
4, 6118, Note_off_c, 0, 81, 0
4, 6120, Note_on_c, 0, 71, 88
4, 6178, Note_off_c, 0, 71, 0
4, 6180, Note_on_c, 0, 74, 88
4, 6238, Note_off_c, 0, 74, 0
4, 6240, Note_on_c, 0, 79, 88
4, 6356, Note_off_c, 0, 79, 0
4, 6360, Note_on_c, 0, 71, 88
4, 6378, Note_off_c, 0, 71, 0
4, 6379, Note_on_c, 0, 69, 88
4, 6401, Note_off_c, 0, 69, 0
4, 6401, Note_on_c, 0, 71, 88
4, 6419, Note_off_c, 0, 71, 0
4, 6420, Note_on_c, 0, 69, 88
4, 6478, Note_off_c, 0, 69, 0
4, 6480, Note_on_c, 0, 67, 88
4, 6538, Note_off_c, 0, 67, 0
4, 6540, Note_on_c, 0, 64, 88
4, 6598, Note_off_c, 0, 64, 0
4, 6600, Note_on_c, 0, 72, 88
4, 6658, Note_off_c, 0, 72, 0
4, 6660, Note_on_c, 0, 67, 88
4, 6718, Note_off_c, 0, 67, 0
4, 6720, Note_on_c, 0, 69, 88
4, 6778, Note_off_c, 0, 69, 0
4, 6780, Note_on_c, 0, 78, 88
4, 6838, Note_off_c, 0, 78, 0
4, 6840, Note_on_c, 0, 67, 88
4, 6898, Note_off_c, 0, 67, 0
4, 6900, Note_on_c, 0, 71, 88
4, 6958, Note_off_c, 0, 71, 0
4, 6960, Note_on_c, 0, 76, 88
4, 7076, Note_off_c, 0, 76, 0
4, 7080, Note_on_c, 0, 67, 88
4, 7098, Note_off_c, 0, 67, 0
4, 7099, Note_on_c, 0, 66, 88
4, 7121, Note_off_c, 0, 66, 0
4, 7121, Note_on_c, 0, 67, 88
4, 7139, Note_off_c, 0, 67, 0
4, 7140, Note_on_c, 0, 66, 88
4, 7198, Note_off_c, 0, 66, 0
4, 7200, Note_on_c, 0, 64, 88
4, 7258, Note_off_c, 0, 64, 0
4, 7260, Note_on_c, 0, 67, 88
4, 7318, Note_off_c, 0, 67, 0
4, 7320, Note_on_c, 0, 69, 88
4, 7378, Note_off_c, 0, 69, 0
4, 7380, Note_on_c, 0, 71, 88
4, 7438, Note_off_c, 0, 71, 0
4, 7440, Note_on_c, 0, 72, 88
4, 7498, Note_off_c, 0, 72, 0
4, 7500, Note_on_c, 0, 69, 88
4, 7558, Note_off_c, 0, 69, 0
4, 7560, Note_on_c, 0, 71, 88
4, 7589, Note_off_c, 0, 71, 0
4, 7590, Note_on_c, 0, 69, 88
4, 7619, Note_off_c, 0, 69, 0
4, 7620, Note_on_c, 0, 67, 88
4, 7678, Note_off_c, 0, 67, 0
4, 7680, Note_on_c, 0, 77, 88
4, 7796, Note_off_c, 0, 77, 0
4, 7980, Note_on_c, 0, 64, 88
4, 8038, Note_off_c, 0, 64, 0
4, 8040, Note_on_c, 0, 66, 88
4, 8098, Note_off_c, 0, 66, 0
4, 8100, Note_on_c, 0, 67, 88
4, 8158, Note_off_c, 0, 67, 0
4, 8160, Note_on_c, 0, 69, 88
4, 8218, Note_off_c, 0, 69, 0
4, 8220, Note_on_c, 0, 66, 88
4, 8278, Note_off_c, 0, 66, 0
4, 8280, Note_on_c, 0, 67, 88
4, 8338, Note_off_c, 0, 67, 0
4, 8340, Note_on_c, 0, 62, 88
4, 8398, Note_off_c, 0, 62, 0
4, 8400, Note_on_c, 0, 64, 88
4, 8458, Note_off_c, 0, 64, 0
4, 8460, Note_on_c, 0, 66, 88
4, 8518, Note_off_c, 0, 66, 0
4, 8520, Note_on_c, 0, 67, 88
4, 8698, Note_off_c, 0, 67, 0
4, 8700, Note_on_c, 0, 66, 88
4, 8758, Note_off_c, 0, 66, 0
4, 8760, Note_on_c, 0, 68, 88
4, 8818, Note_off_c, 0, 68, 0
4, 8820, Note_on_c, 0, 69, 88
4, 8878, Note_off_c, 0, 69, 0
4, 8880, Note_on_c, 0, 71, 88
4, 8938, Note_off_c, 0, 71, 0
4, 8940, Note_on_c, 0, 68, 88
4, 8998, Note_off_c, 0, 68, 0
4, 9000, Note_on_c, 0, 69, 88
4, 9058, Note_off_c, 0, 69, 0
4, 9060, Note_on_c, 0, 64, 88
4, 9118, Note_off_c, 0, 64, 0
4, 9120, Note_on_c, 0, 66, 88
4, 9178, Note_off_c, 0, 66, 0
4, 9180, Note_on_c, 0, 67, 88
4, 9238, Note_off_c, 0, 67, 0
4, 9240, Note_on_c, 0, 69, 88
4, 9418, Note_off_c, 0, 69, 0
4, 9420, Note_on_c, 0, 68, 88
4, 9478, Note_off_c, 0, 68, 0
4, 9480, Note_on_c, 0, 70, 88
4, 9538, Note_off_c, 0, 70, 0
4, 9540, Note_on_c, 0, 71, 88
4, 9598, Note_off_c, 0, 71, 0
4, 9600, Note_on_c, 0, 73, 88
4, 9658, Note_off_c, 0, 73, 0
4, 9660, Note_on_c, 0, 70, 88
4, 9718, Note_off_c, 0, 70, 0
4, 9720, Note_on_c, 0, 71, 88
4, 9778, Note_off_c, 0, 71, 0
4, 9780, Note_on_c, 0, 66, 88
4, 9838, Note_off_c, 0, 66, 0
4, 9840, Note_on_c, 0, 68, 88
4, 9898, Note_off_c, 0, 68, 0
4, 9900, Note_on_c, 0, 70, 88
4, 9958, Note_off_c, 0, 70, 0
4, 9960, Note_on_c, 0, 71, 88
4, 10138, Note_off_c, 0, 71, 0
4, 10140, Note_on_c, 0, 70, 88
4, 10198, Note_off_c, 0, 70, 0
4, 10200, Note_on_c, 0, 71, 88
4, 10258, Note_off_c, 0, 71, 0
4, 10260, Note_on_c, 0, 73, 88
4, 10318, Note_off_c, 0, 73, 0
4, 10320, Note_on_c, 0, 74, 88
4, 10378, Note_off_c, 0, 74, 0
4, 10380, Note_on_c, 0, 71, 88
4, 10438, Note_off_c, 0, 71, 0
4, 10440, Note_on_c, 0, 73, 88
4, 10498, Note_off_c, 0, 73, 0
4, 10500, Note_on_c, 0, 71, 88
4, 10558, Note_off_c, 0, 71, 0
4, 10560, Note_on_c, 0, 70, 88
4, 10618, Note_off_c, 0, 70, 0
4, 10620, Note_on_c, 0, 68, 88
4, 10678, Note_off_c, 0, 68, 0
4, 10680, Note_on_c, 0, 66, 88
4, 10738, Note_off_c, 0, 66, 0
4, 10740, Note_on_c, 0, 64, 88
4, 10798, Note_off_c, 0, 64, 0
4, 10800, Note_on_c, 0, 62, 88
4, 10858, Note_off_c, 0, 62, 0
4, 10860, Note_on_c, 0, 66, 88
4, 10918, Note_off_c, 0, 66, 0
4, 10920, Note_on_c, 0, 68, 88
4, 10978, Note_off_c, 0, 68, 0
4, 10980, Note_on_c, 0, 70, 88
4, 11038, Note_off_c, 0, 70, 0
4, 11040, Note_on_c, 0, 71, 88
4, 11098, Note_off_c, 0, 71, 0
4, 11100, Note_on_c, 0, 68, 88
4, 11158, Note_off_c, 0, 68, 0
4, 11160, Note_on_c, 0, 70, 88
4, 11218, Note_off_c, 0, 70, 0
4, 11220, Note_on_c, 0, 68, 88
4, 11278, Note_off_c, 0, 68, 0
4, 11280, Note_on_c, 0, 66, 88
4, 11338, Note_off_c, 0, 66, 0
4, 11340, Note_on_c, 0, 64, 88
4, 11398, Note_off_c, 0, 64, 0
4, 11400, Note_on_c, 0, 62, 88
4, 11458, Note_off_c, 0, 62, 0
4, 11460, Note_on_c, 0, 61, 88
4, 11518, Note_off_c, 0, 61, 0
4, 11520, Note_on_c, 0, 61, 88
4, 11538, Note_off_c, 0, 61, 0
4, 11539, Note_on_c, 0, 59, 88
4, 11561, Note_off_c, 0, 59, 0
4, 11561, Note_on_c, 0, 61, 88
4, 11583, Note_off_c, 0, 61, 0
4, 11584, Note_on_c, 0, 59, 88
4, 11606, Note_off_c, 0, 59, 0
4, 11606, Note_on_c, 0, 61, 88
4, 11628, Note_off_c, 0, 61, 0
4, 11629, Note_on_c, 0, 59, 88
4, 11651, Note_off_c, 0, 59, 0
4, 11651, Note_on_c, 0, 61, 88
4, 11673, Note_off_c, 0, 61, 0
4, 11674, Note_on_c, 0, 59, 88
4, 11692, Note_off_c, 0, 59, 0
4, 11693, Note_on_c, 0, 61, 88
4, 11711, Note_on_c, 0, 59, 88
4, 11711, Note_off_c, 0, 61, 0
4, 11729, Note_off_c, 0, 59, 0
4, 11730, Note_on_c, 0, 61, 88
4, 11748, Note_off_c, 0, 61, 0
4, 11749, Note_on_c, 0, 59, 88
4, 11767, Note_off_c, 0, 59, 0
4, 11768, Note_on_c, 0, 61, 88
4, 11786, Note_on_c, 0, 59, 88
4, 11786, Note_off_c, 0, 61, 0
4, 11804, Note_off_c, 0, 59, 0
4, 11805, Note_on_c, 0, 61, 88
4, 11823, Note_off_c, 0, 61, 0
4, 11824, Note_on_c, 0, 59, 88
4, 11842, Note_off_c, 0, 59, 0
4, 11843, Note_on_c, 0, 61, 88
4, 11861, Note_on_c, 0, 59, 88
4, 11861, Note_off_c, 0, 61, 0
4, 11879, Note_off_c, 0, 59, 0
4, 11880, Note_on_c, 0, 61, 88
4, 11898, Note_off_c, 0, 61, 0
4, 11899, Note_on_c, 0, 59, 88
4, 11921, Note_off_c, 0, 59, 0
4, 11921, Note_on_c, 0, 61, 88
4, 11943, Note_off_c, 0, 61, 0
4, 11944, Note_on_c, 0, 59, 88
4, 11966, Note_off_c, 0, 59, 0
4, 11966, Note_on_c, 0, 61, 88
4, 11988, Note_off_c, 0, 61, 0
4, 11989, Note_on_c, 0, 59, 88
4, 12011, Note_off_c, 0, 59, 0
4, 12011, Note_on_c, 0, 61, 88
4, 12033, Note_off_c, 0, 61, 0
4, 12034, Note_on_c, 0, 59, 88
4, 12052, Note_off_c, 0, 59, 0
4, 12053, Note_on_c, 0, 61, 88
4, 12071, Note_on_c, 0, 59, 88
4, 12071, Note_off_c, 0, 61, 0
4, 12089, Note_off_c, 0, 59, 0
4, 12090, Note_on_c, 0, 61, 88
4, 12108, Note_off_c, 0, 61, 0
4, 12109, Note_on_c, 0, 59, 88
4, 12127, Note_off_c, 0, 59, 0
4, 12128, Note_on_c, 0, 61, 88
4, 12146, Note_on_c, 0, 59, 88
4, 12146, Note_off_c, 0, 61, 0
4, 12164, Note_off_c, 0, 59, 0
4, 12165, Note_on_c, 0, 61, 88
4, 12183, Note_off_c, 0, 61, 0
4, 12184, Note_on_c, 0, 59, 88
4, 12202, Note_off_c, 0, 59, 0
4, 12203, Note_on_c, 0, 61, 88
4, 12221, Note_on_c, 0, 59, 88
4, 12221, Note_off_c, 0, 61, 0
4, 12239, Note_off_c, 0, 59, 0
4, 12240, Note_on_c, 0, 61, 88
4, 12258, Note_off_c, 0, 61, 0
4, 12259, Note_on_c, 0, 59, 88
4, 12281, Note_off_c, 0, 59, 0
4, 12281, Note_on_c, 0, 61, 88
4, 12303, Note_off_c, 0, 61, 0
4, 12304, Note_on_c, 0, 59, 88
4, 12326, Note_off_c, 0, 59, 0
4, 12326, Note_on_c, 0, 61, 88
4, 12348, Note_off_c, 0, 61, 0
4, 12349, Note_on_c, 0, 59, 88
4, 12371, Note_off_c, 0, 59, 0
4, 12371, Note_on_c, 0, 61, 88
4, 12393, Note_off_c, 0, 61, 0
4, 12394, Note_on_c, 0, 59, 88
4, 12412, Note_off_c, 0, 59, 0
4, 12413, Note_on_c, 0, 61, 88
4, 12431, Note_on_c, 0, 59, 88
4, 12431, Note_off_c, 0, 61, 0
4, 12449, Note_off_c, 0, 59, 0
4, 12450, Note_on_c, 0, 61, 88
4, 12468, Note_off_c, 0, 61, 0
4, 12469, Note_on_c, 0, 59, 88
4, 12487, Note_off_c, 0, 59, 0
4, 12488, Note_on_c, 0, 61, 88
4, 12506, Note_on_c, 0, 59, 88
4, 12506, Note_off_c, 0, 61, 0
4, 12524, Note_off_c, 0, 59, 0
4, 12525, Note_on_c, 0, 61, 88
4, 12543, Note_off_c, 0, 61, 0
4, 12544, Note_on_c, 0, 59, 88
4, 12562, Note_off_c, 0, 59, 0
4, 12563, Note_on_c, 0, 61, 88
4, 12581, Note_on_c, 0, 59, 88
4, 12581, Note_off_c, 0, 61, 0
4, 12599, Note_off_c, 0, 59, 0
4, 12600, Note_on_c, 0, 61, 88
4, 12618, Note_off_c, 0, 61, 0
4, 12619, Note_on_c, 0, 59, 88
4, 12641, Note_off_c, 0, 59, 0
4, 12641, Note_on_c, 0, 61, 88
4, 12663, Note_off_c, 0, 61, 0
4, 12664, Note_on_c, 0, 59, 88
4, 12686, Note_off_c, 0, 59, 0
4, 12686, Note_on_c, 0, 61, 88
4, 12708, Note_off_c, 0, 61, 0
4, 12709, Note_on_c, 0, 59, 88
4, 12731, Note_off_c, 0, 59, 0
4, 12731, Note_on_c, 0, 61, 88
4, 12753, Note_off_c, 0, 61, 0
4, 12754, Note_on_c, 0, 59, 88
4, 12772, Note_off_c, 0, 59, 0
4, 12773, Note_on_c, 0, 61, 88
4, 12791, Note_on_c, 0, 59, 88
4, 12791, Note_off_c, 0, 61, 0
4, 12809, Note_off_c, 0, 59, 0
4, 12810, Note_on_c, 0, 61, 88
4, 12828, Note_off_c, 0, 61, 0
4, 12829, Note_on_c, 0, 59, 88
4, 12847, Note_off_c, 0, 59, 0
4, 12848, Note_on_c, 0, 61, 88
4, 12866, Note_on_c, 0, 59, 88
4, 12866, Note_off_c, 0, 61, 0
4, 12884, Note_off_c, 0, 59, 0
4, 12885, Note_on_c, 0, 61, 88
4, 12903, Note_off_c, 0, 61, 0
4, 12904, Note_on_c, 0, 59, 88
4, 12922, Note_off_c, 0, 59, 0
4, 12923, Note_on_c, 0, 61, 88
4, 12941, Note_on_c, 0, 59, 88
4, 12941, Note_off_c, 0, 61, 0
4, 12959, Note_off_c, 0, 59, 0
4, 12960, Note_on_c, 0, 59, 88
4, 13076, Note_off_c, 0, 59, 0
4, 13080, Note_on_c, 0, 64, 88
4, 13378, Note_off_c, 0, 64, 0
4, 13380, Note_on_c, 0, 66, 88
4, 13438, Note_off_c, 0, 66, 0
4, 13440, Note_on_c, 0, 64, 88
4, 13498, Note_off_c, 0, 64, 0
4, 13500, Note_on_c, 0, 62, 88
4, 13558, Note_off_c, 0, 62, 0
4, 13560, Note_on_c, 0, 61, 88
4, 13618, Note_off_c, 0, 61, 0
4, 13620, Note_on_c, 0, 64, 88
4, 13678, Note_off_c, 0, 64, 0
4, 13680, Note_on_c, 0, 58, 88
4, 13796, Note_off_c, 0, 58, 0
4, 13800, Note_on_c, 0, 73, 88
4, 14098, Note_off_c, 0, 73, 0
4, 14100, Note_on_c, 0, 74, 88
4, 14158, Note_off_c, 0, 74, 0
4, 14160, Note_on_c, 0, 73, 88
4, 14218, Note_off_c, 0, 73, 0
4, 14220, Note_on_c, 0, 71, 88
4, 14278, Note_off_c, 0, 71, 0
4, 14280, Note_on_c, 0, 70, 88
4, 14338, Note_off_c, 0, 70, 0
4, 14340, Note_on_c, 0, 73, 88
4, 14398, Note_off_c, 0, 73, 0
4, 14400, Note_on_c, 0, 66, 88
4, 14516, Note_off_c, 0, 66, 0
4, 14520, Note_on_c, 0, 79, 88
4, 14818, Note_off_c, 0, 79, 0
4, 14820, Note_on_c, 0, 78, 88
4, 14878, Note_off_c, 0, 78, 0
4, 14880, Note_on_c, 0, 76, 88
4, 14938, Note_off_c, 0, 76, 0
4, 14940, Note_on_c, 0, 74, 88
4, 14998, Note_off_c, 0, 74, 0
4, 15000, Note_on_c, 0, 73, 88
4, 15058, Note_off_c, 0, 73, 0
4, 15060, Note_on_c, 0, 76, 88
4, 15118, Note_off_c, 0, 76, 0
4, 15120, Note_on_c, 0, 74, 88
4, 15538, Note_off_c, 0, 74, 0
4, 15540, Note_on_c, 0, 73, 88
4, 15598, Note_off_c, 0, 73, 0
4, 15600, Note_on_c, 0, 71, 88
4, 15658, Note_off_c, 0, 71, 0
4, 15660, Note_on_c, 0, 69, 88
4, 15718, Note_off_c, 0, 69, 0
4, 15720, Note_on_c, 0, 68, 88
4, 15778, Note_off_c, 0, 68, 0
4, 15780, Note_on_c, 0, 71, 88
4, 15838, Note_off_c, 0, 71, 0
4, 15840, Note_on_c, 0, 65, 88
4, 15898, Note_off_c, 0, 65, 0
4, 15900, Note_on_c, 0, 74, 88
4, 15958, Note_off_c, 0, 74, 0
4, 15960, Note_on_c, 0, 73, 88
4, 16018, Note_off_c, 0, 73, 0
4, 16020, Note_on_c, 0, 71, 88
4, 16078, Note_off_c, 0, 71, 0
4, 16080, Note_on_c, 0, 70, 88
4, 16138, Note_off_c, 0, 70, 0
4, 16140, Note_on_c, 0, 73, 88
4, 16198, Note_off_c, 0, 73, 0
4, 16200, Note_on_c, 0, 76, 88
4, 16258, Note_off_c, 0, 76, 0
4, 16260, Note_on_c, 0, 79, 88
4, 16318, Note_off_c, 0, 79, 0
4, 16320, Note_on_c, 0, 78, 88
4, 16378, Note_off_c, 0, 78, 0
4, 16380, Note_on_c, 0, 76, 88
4, 16438, Note_off_c, 0, 76, 0
4, 16440, Note_on_c, 0, 74, 88
4, 16498, Note_off_c, 0, 74, 0
4, 16500, Note_on_c, 0, 78, 88
4, 16558, Note_off_c, 0, 78, 0
4, 16560, Note_on_c, 0, 71, 88
4, 16676, Note_off_c, 0, 71, 0
4, 16680, Note_on_c, 0, 73, 88
4, 16796, Note_off_c, 0, 73, 0
4, 16800, Note_on_c, 0, 70, 88
4, 16818, Note_off_c, 0, 70, 0
4, 16819, Note_on_c, 0, 71, 88
4, 16841, Note_on_c, 0, 70, 88
4, 16841, Note_off_c, 0, 71, 0
4, 16863, Note_off_c, 0, 70, 0
4, 16864, Note_on_c, 0, 68, 88
4, 16882, Note_off_c, 0, 68, 0
4, 16883, Note_on_c, 0, 70, 88
4, 16919, Note_off_c, 0, 70, 0
4, 16920, Note_on_c, 0, 71, 88
4, 17273, Note_off_c, 0, 71, 0
4, 17340, Note_on_c, 0, 67, 88
4, 17398, Note_off_c, 0, 67, 0
4, 17400, Note_on_c, 0, 69, 88
4, 17458, Note_off_c, 0, 69, 0
4, 17460, Note_on_c, 0, 71, 88
4, 17518, Note_off_c, 0, 71, 0
4, 17520, Note_on_c, 0, 72, 88
4, 17578, Note_off_c, 0, 72, 0
4, 17580, Note_on_c, 0, 69, 88
4, 17638, Note_off_c, 0, 69, 0
4, 17640, Note_on_c, 0, 71, 88
4, 17698, Note_off_c, 0, 71, 0
4, 17700, Note_on_c, 0, 67, 88
4, 17758, Note_off_c, 0, 67, 0
4, 17760, Note_on_c, 0, 66, 88
4, 17818, Note_off_c, 0, 66, 0
4, 17820, Note_on_c, 0, 64, 88
4, 17878, Note_off_c, 0, 64, 0
4, 17880, Note_on_c, 0, 63, 88
4, 17938, Note_off_c, 0, 63, 0
4, 17940, Note_on_c, 0, 69, 88
4, 17998, Note_off_c, 0, 69, 0
4, 18000, Note_on_c, 0, 67, 88
4, 18029, Note_off_c, 0, 67, 0
4, 18030, Note_on_c, 0, 66, 88
4, 18059, Note_off_c, 0, 66, 0
4, 18060, Note_on_c, 0, 64, 88
4, 18118, Note_off_c, 0, 64, 0
4, 18120, Note_on_c, 0, 76, 88
4, 18236, Note_off_c, 0, 76, 0
4, 18360, Note_on_c, 0, 75, 88
4, 18389, Note_off_c, 0, 75, 0
4, 18390, Note_on_c, 0, 73, 88
4, 18419, Note_off_c, 0, 73, 0
4, 18420, Note_on_c, 0, 71, 88
4, 18478, Note_off_c, 0, 71, 0
4, 18480, Note_on_c, 0, 81, 88
4, 18596, Note_off_c, 0, 81, 0
4, 18780, Note_on_c, 0, 67, 88
4, 18838, Note_off_c, 0, 67, 0
4, 18840, Note_on_c, 0, 69, 88
4, 18898, Note_off_c, 0, 69, 0
4, 18900, Note_on_c, 0, 71, 88
4, 18958, Note_off_c, 0, 71, 0
4, 18960, Note_on_c, 0, 72, 88
4, 19018, Note_off_c, 0, 72, 0
4, 19020, Note_on_c, 0, 69, 88
4, 19078, Note_off_c, 0, 69, 0
4, 19080, Note_on_c, 0, 71, 88
4, 19138, Note_off_c, 0, 71, 0
4, 19140, Note_on_c, 0, 67, 88
4, 19198, Note_off_c, 0, 67, 0
4, 19200, Note_on_c, 0, 66, 88
4, 19258, Note_off_c, 0, 66, 0
4, 19260, Note_on_c, 0, 64, 88
4, 19318, Note_off_c, 0, 64, 0
4, 19320, Note_on_c, 0, 63, 88
4, 19378, Note_off_c, 0, 63, 0
4, 19380, Note_on_c, 0, 69, 88
4, 19438, Note_off_c, 0, 69, 0
4, 19440, Note_on_c, 0, 67, 88
4, 19498, Note_off_c, 0, 67, 0
4, 19500, Note_on_c, 0, 71, 88
4, 19558, Note_off_c, 0, 71, 0
4, 19560, Note_on_c, 0, 72, 88
4, 19618, Note_off_c, 0, 72, 0
4, 19620, Note_on_c, 0, 74, 88
4, 19678, Note_off_c, 0, 74, 0
4, 19680, Note_on_c, 0, 76, 88
4, 19738, Note_off_c, 0, 76, 0
4, 19740, Note_on_c, 0, 72, 88
4, 19798, Note_off_c, 0, 72, 0
4, 19800, Note_on_c, 0, 74, 88
4, 19858, Note_off_c, 0, 74, 0
4, 19860, Note_on_c, 0, 71, 88
4, 19918, Note_off_c, 0, 71, 0
4, 19920, Note_on_c, 0, 69, 88
4, 19978, Note_off_c, 0, 69, 0
4, 19980, Note_on_c, 0, 67, 88
4, 20038, Note_off_c, 0, 67, 0
4, 20040, Note_on_c, 0, 66, 88
4, 20098, Note_off_c, 0, 66, 0
4, 20100, Note_on_c, 0, 72, 88
4, 20158, Note_off_c, 0, 72, 0
4, 20160, Note_on_c, 0, 71, 88
4, 20218, Note_off_c, 0, 71, 0
4, 20220, Note_on_c, 0, 74, 88
4, 20278, Note_off_c, 0, 74, 0
4, 20280, Note_on_c, 0, 76, 88
4, 20338, Note_off_c, 0, 76, 0
4, 20340, Note_on_c, 0, 78, 88
4, 20398, Note_off_c, 0, 78, 0
4, 20400, Note_on_c, 0, 79, 88
4, 20458, Note_off_c, 0, 79, 0
4, 20460, Note_on_c, 0, 76, 88
4, 20518, Note_off_c, 0, 76, 0
4, 20520, Note_on_c, 0, 78, 88
4, 20578, Note_off_c, 0, 78, 0
4, 20580, Note_on_c, 0, 74, 88
4, 20638, Note_off_c, 0, 74, 0
4, 20640, Note_on_c, 0, 73, 88
4, 20698, Note_off_c, 0, 73, 0
4, 20700, Note_on_c, 0, 71, 88
4, 20758, Note_off_c, 0, 71, 0
4, 20760, Note_on_c, 0, 70, 88
4, 20818, Note_off_c, 0, 70, 0
4, 20820, Note_on_c, 0, 76, 88
4, 20878, Note_off_c, 0, 76, 0
4, 20880, Note_on_c, 0, 74, 88
4, 20938, Note_off_c, 0, 74, 0
4, 20940, Note_on_c, 0, 78, 88
4, 20998, Note_off_c, 0, 78, 0
4, 21000, Note_on_c, 0, 76, 88
4, 21058, Note_off_c, 0, 76, 0
4, 21060, Note_on_c, 0, 74, 88
4, 21118, Note_off_c, 0, 74, 0
4, 21120, Note_on_c, 0, 73, 88
4, 21178, Note_off_c, 0, 73, 0
4, 21180, Note_on_c, 0, 71, 88
4, 21238, Note_off_c, 0, 71, 0
4, 21240, Note_on_c, 0, 70, 88
4, 21269, Note_off_c, 0, 70, 0
4, 21270, Note_on_c, 0, 68, 88
4, 21299, Note_off_c, 0, 68, 0
4, 21300, Note_on_c, 0, 66, 88
4, 21358, Note_off_c, 0, 66, 0
4, 21360, Note_on_c, 0, 76, 88
4, 21476, Note_off_c, 0, 76, 0
4, 21660, Note_on_c, 0, 74, 88
4, 21718, Note_off_c, 0, 74, 0
4, 21720, Note_on_c, 0, 76, 88
4, 21778, Note_off_c, 0, 76, 0
4, 21780, Note_on_c, 0, 78, 88
4, 21838, Note_off_c, 0, 78, 0
4, 21840, Note_on_c, 0, 79, 88
4, 21898, Note_off_c, 0, 79, 0
4, 21900, Note_on_c, 0, 76, 88
4, 21958, Note_off_c, 0, 76, 0
4, 21960, Note_on_c, 0, 78, 88
4, 22018, Note_off_c, 0, 78, 0
4, 22020, Note_on_c, 0, 74, 88
4, 22078, Note_off_c, 0, 74, 0
4, 22080, Note_on_c, 0, 73, 88
4, 22138, Note_off_c, 0, 73, 0
4, 22140, Note_on_c, 0, 71, 88
4, 22198, Note_off_c, 0, 71, 0
4, 22200, Note_on_c, 0, 70, 88
4, 22258, Note_off_c, 0, 70, 0
4, 22260, Note_on_c, 0, 76, 88
4, 22318, Note_off_c, 0, 76, 0
4, 22320, Note_on_c, 0, 74, 88
4, 22378, Note_off_c, 0, 74, 0
4, 22380, Note_on_c, 0, 71, 88
4, 22438, Note_off_c, 0, 71, 0
4, 22440, Note_on_c, 0, 73, 88
4, 22498, Note_off_c, 0, 73, 0
4, 22500, Note_on_c, 0, 74, 88
4, 22558, Note_off_c, 0, 74, 0
4, 22560, Note_on_c, 0, 76, 88
4, 22618, Note_off_c, 0, 76, 0
4, 22620, Note_on_c, 0, 73, 88
4, 22678, Note_off_c, 0, 73, 0
4, 22680, Note_on_c, 0, 74, 88
4, 22738, Note_off_c, 0, 74, 0
4, 22740, Note_on_c, 0, 71, 88
4, 22798, Note_off_c, 0, 71, 0
4, 22800, Note_on_c, 0, 69, 88
4, 22858, Note_off_c, 0, 69, 0
4, 22860, Note_on_c, 0, 67, 88
4, 22918, Note_off_c, 0, 67, 0
4, 22920, Note_on_c, 0, 66, 88
4, 22978, Note_off_c, 0, 66, 0
4, 22980, Note_on_c, 0, 72, 88
4, 23038, Note_off_c, 0, 72, 0
4, 23040, Note_on_c, 0, 71, 88
4, 23098, Note_off_c, 0, 71, 0
4, 23100, Note_on_c, 0, 67, 88
4, 23158, Note_off_c, 0, 67, 0
4, 23160, Note_on_c, 0, 76, 88
4, 23218, Note_off_c, 0, 76, 0
4, 23220, Note_on_c, 0, 71, 88
4, 23278, Note_off_c, 0, 71, 0
4, 23280, Note_on_c, 0, 72, 88
4, 23338, Note_off_c, 0, 72, 0
4, 23340, Note_on_c, 0, 81, 88
4, 23398, Note_off_c, 0, 81, 0
4, 23400, Note_on_c, 0, 71, 88
4, 23458, Note_off_c, 0, 71, 0
4, 23460, Note_on_c, 0, 74, 88
4, 23518, Note_off_c, 0, 74, 0
4, 23520, Note_on_c, 0, 79, 88
4, 23636, Note_off_c, 0, 79, 0
4, 23640, Note_on_c, 0, 71, 88
4, 23658, Note_off_c, 0, 71, 0
4, 23659, Note_on_c, 0, 69, 88
4, 23681, Note_off_c, 0, 69, 0
4, 23681, Note_on_c, 0, 71, 88
4, 23699, Note_off_c, 0, 71, 0
4, 23700, Note_on_c, 0, 69, 88
4, 23758, Note_off_c, 0, 69, 0
4, 23760, Note_on_c, 0, 67, 88
4, 23818, Note_off_c, 0, 67, 0
4, 23820, Note_on_c, 0, 64, 88
4, 23878, Note_off_c, 0, 64, 0
4, 23880, Note_on_c, 0, 72, 88
4, 23938, Note_off_c, 0, 72, 0
4, 23940, Note_on_c, 0, 67, 88
4, 23998, Note_off_c, 0, 67, 0
4, 24000, Note_on_c, 0, 69, 88
4, 24058, Note_off_c, 0, 69, 0
4, 24060, Note_on_c, 0, 78, 88
4, 24118, Note_off_c, 0, 78, 0
4, 24120, Note_on_c, 0, 67, 88
4, 24178, Note_off_c, 0, 67, 0
4, 24180, Note_on_c, 0, 71, 88
4, 24238, Note_off_c, 0, 71, 0
4, 24240, Note_on_c, 0, 76, 88
4, 24356, Note_off_c, 0, 76, 0
4, 24360, Note_on_c, 0, 67, 88
4, 24378, Note_off_c, 0, 67, 0
4, 24379, Note_on_c, 0, 66, 88
4, 24401, Note_off_c, 0, 66, 0
4, 24401, Note_on_c, 0, 67, 88
4, 24419, Note_off_c, 0, 67, 0
4, 24420, Note_on_c, 0, 66, 88
4, 24478, Note_off_c, 0, 66, 0
4, 24480, Note_on_c, 0, 64, 88
4, 24538, Note_off_c, 0, 64, 0
4, 24540, Note_on_c, 0, 67, 88
4, 24598, Note_off_c, 0, 67, 0
4, 24600, Note_on_c, 0, 69, 88
4, 24658, Note_off_c, 0, 69, 0
4, 24660, Note_on_c, 0, 71, 88
4, 24718, Note_off_c, 0, 71, 0
4, 24720, Note_on_c, 0, 72, 88
4, 24778, Note_off_c, 0, 72, 0
4, 24780, Note_on_c, 0, 69, 88
4, 24838, Note_off_c, 0, 69, 0
4, 24840, Note_on_c, 0, 71, 88
4, 24869, Note_off_c, 0, 71, 0
4, 24870, Note_on_c, 0, 69, 88
4, 24899, Note_off_c, 0, 69, 0
4, 24900, Note_on_c, 0, 67, 88
4, 24958, Note_off_c, 0, 67, 0
4, 24960, Note_on_c, 0, 77, 88
4, 25076, Note_off_c, 0, 77, 0
4, 25260, Note_on_c, 0, 64, 88
4, 25318, Note_off_c, 0, 64, 0
4, 25320, Note_on_c, 0, 66, 88
4, 25378, Note_off_c, 0, 66, 0
4, 25380, Note_on_c, 0, 67, 88
4, 25438, Note_off_c, 0, 67, 0
4, 25440, Note_on_c, 0, 69, 88
4, 25498, Note_off_c, 0, 69, 0
4, 25500, Note_on_c, 0, 66, 88
4, 25558, Note_off_c, 0, 66, 0
4, 25560, Note_on_c, 0, 67, 88
4, 25618, Note_off_c, 0, 67, 0
4, 25620, Note_on_c, 0, 62, 88
4, 25678, Note_off_c, 0, 62, 0
4, 25680, Note_on_c, 0, 64, 88
4, 25738, Note_off_c, 0, 64, 0
4, 25740, Note_on_c, 0, 66, 88
4, 25798, Note_off_c, 0, 66, 0
4, 25800, Note_on_c, 0, 67, 88
4, 25978, Note_off_c, 0, 67, 0
4, 25980, Note_on_c, 0, 66, 88
4, 26038, Note_off_c, 0, 66, 0
4, 26040, Note_on_c, 0, 68, 88
4, 26098, Note_off_c, 0, 68, 0
4, 26100, Note_on_c, 0, 69, 88
4, 26158, Note_off_c, 0, 69, 0
4, 26160, Note_on_c, 0, 71, 88
4, 26218, Note_off_c, 0, 71, 0
4, 26220, Note_on_c, 0, 68, 88
4, 26278, Note_off_c, 0, 68, 0
4, 26280, Note_on_c, 0, 69, 88
4, 26338, Note_off_c, 0, 69, 0
4, 26340, Note_on_c, 0, 64, 88
4, 26398, Note_off_c, 0, 64, 0
4, 26400, Note_on_c, 0, 66, 88
4, 26458, Note_off_c, 0, 66, 0
4, 26460, Note_on_c, 0, 67, 88
4, 26518, Note_off_c, 0, 67, 0
4, 26520, Note_on_c, 0, 69, 88
4, 26698, Note_off_c, 0, 69, 0
4, 26700, Note_on_c, 0, 68, 88
4, 26758, Note_off_c, 0, 68, 0
4, 26760, Note_on_c, 0, 70, 88
4, 26818, Note_off_c, 0, 70, 0
4, 26820, Note_on_c, 0, 71, 88
4, 26878, Note_off_c, 0, 71, 0
4, 26880, Note_on_c, 0, 73, 88
4, 26938, Note_off_c, 0, 73, 0
4, 26940, Note_on_c, 0, 70, 88
4, 26998, Note_off_c, 0, 70, 0
4, 27000, Note_on_c, 0, 71, 88
4, 27058, Note_off_c, 0, 71, 0
4, 27060, Note_on_c, 0, 66, 88
4, 27118, Note_off_c, 0, 66, 0
4, 27120, Note_on_c, 0, 68, 88
4, 27178, Note_off_c, 0, 68, 0
4, 27180, Note_on_c, 0, 70, 88
4, 27238, Note_off_c, 0, 70, 0
4, 27240, Note_on_c, 0, 71, 88
4, 27418, Note_off_c, 0, 71, 0
4, 27420, Note_on_c, 0, 70, 88
4, 27478, Note_off_c, 0, 70, 0
4, 27480, Note_on_c, 0, 71, 88
4, 27538, Note_off_c, 0, 71, 0
4, 27540, Note_on_c, 0, 73, 88
4, 27598, Note_off_c, 0, 73, 0
4, 27600, Note_on_c, 0, 74, 88
4, 27658, Note_off_c, 0, 74, 0
4, 27660, Note_on_c, 0, 71, 88
4, 27718, Note_off_c, 0, 71, 0
4, 27720, Note_on_c, 0, 73, 88
4, 27778, Note_off_c, 0, 73, 0
4, 27780, Note_on_c, 0, 71, 88
4, 27838, Note_off_c, 0, 71, 0
4, 27840, Note_on_c, 0, 70, 88
4, 27898, Note_off_c, 0, 70, 0
4, 27900, Note_on_c, 0, 68, 88
4, 27958, Note_off_c, 0, 68, 0
4, 27960, Note_on_c, 0, 66, 88
4, 28018, Note_off_c, 0, 66, 0
4, 28020, Note_on_c, 0, 64, 88
4, 28078, Note_off_c, 0, 64, 0
4, 28080, Note_on_c, 0, 62, 88
4, 28138, Note_off_c, 0, 62, 0
4, 28140, Note_on_c, 0, 66, 88
4, 28198, Note_off_c, 0, 66, 0
4, 28200, Note_on_c, 0, 68, 88
4, 28258, Note_off_c, 0, 68, 0
4, 28260, Note_on_c, 0, 70, 88
4, 28318, Note_off_c, 0, 70, 0
4, 28320, Note_on_c, 0, 71, 88
4, 28378, Note_off_c, 0, 71, 0
4, 28380, Note_on_c, 0, 68, 88
4, 28438, Note_off_c, 0, 68, 0
4, 28440, Note_on_c, 0, 70, 88
4, 28498, Note_off_c, 0, 70, 0
4, 28500, Note_on_c, 0, 68, 88
4, 28558, Note_off_c, 0, 68, 0
4, 28560, Note_on_c, 0, 66, 88
4, 28618, Note_off_c, 0, 66, 0
4, 28620, Note_on_c, 0, 64, 88
4, 28678, Note_off_c, 0, 64, 0
4, 28680, Note_on_c, 0, 62, 88
4, 28738, Note_off_c, 0, 62, 0
4, 28740, Note_on_c, 0, 61, 88
4, 28798, Note_off_c, 0, 61, 0
4, 28800, Note_on_c, 0, 61, 88
4, 28818, Note_off_c, 0, 61, 0
4, 28819, Note_on_c, 0, 59, 88
4, 28841, Note_off_c, 0, 59, 0
4, 28841, Note_on_c, 0, 61, 88
4, 28863, Note_off_c, 0, 61, 0
4, 28864, Note_on_c, 0, 59, 88
4, 28886, Note_off_c, 0, 59, 0
4, 28886, Note_on_c, 0, 61, 88
4, 28908, Note_off_c, 0, 61, 0
4, 28909, Note_on_c, 0, 59, 88
4, 28931, Note_off_c, 0, 59, 0
4, 28931, Note_on_c, 0, 61, 88
4, 28953, Note_off_c, 0, 61, 0
4, 28954, Note_on_c, 0, 59, 88
4, 28972, Note_off_c, 0, 59, 0
4, 28973, Note_on_c, 0, 61, 88
4, 28991, Note_on_c, 0, 59, 88
4, 28991, Note_off_c, 0, 61, 0
4, 29009, Note_off_c, 0, 59, 0
4, 29010, Note_on_c, 0, 61, 88
4, 29028, Note_off_c, 0, 61, 0
4, 29029, Note_on_c, 0, 59, 88
4, 29047, Note_off_c, 0, 59, 0
4, 29048, Note_on_c, 0, 61, 88
4, 29066, Note_on_c, 0, 59, 88
4, 29066, Note_off_c, 0, 61, 0
4, 29084, Note_off_c, 0, 59, 0
4, 29085, Note_on_c, 0, 61, 88
4, 29103, Note_off_c, 0, 61, 0
4, 29104, Note_on_c, 0, 59, 88
4, 29122, Note_off_c, 0, 59, 0
4, 29123, Note_on_c, 0, 61, 88
4, 29141, Note_on_c, 0, 59, 88
4, 29141, Note_off_c, 0, 61, 0
4, 29159, Note_off_c, 0, 59, 0
4, 29160, Note_on_c, 0, 61, 88
4, 29178, Note_off_c, 0, 61, 0
4, 29179, Note_on_c, 0, 59, 88
4, 29201, Note_off_c, 0, 59, 0
4, 29201, Note_on_c, 0, 61, 88
4, 29223, Note_off_c, 0, 61, 0
4, 29224, Note_on_c, 0, 59, 88
4, 29246, Note_off_c, 0, 59, 0
4, 29246, Note_on_c, 0, 61, 88
4, 29268, Note_off_c, 0, 61, 0
4, 29269, Note_on_c, 0, 59, 88
4, 29291, Note_off_c, 0, 59, 0
4, 29291, Note_on_c, 0, 61, 88
4, 29313, Note_off_c, 0, 61, 0
4, 29314, Note_on_c, 0, 59, 88
4, 29332, Note_off_c, 0, 59, 0
4, 29333, Note_on_c, 0, 61, 88
4, 29351, Note_on_c, 0, 59, 88
4, 29351, Note_off_c, 0, 61, 0
4, 29369, Note_off_c, 0, 59, 0
4, 29370, Note_on_c, 0, 61, 88
4, 29388, Note_off_c, 0, 61, 0
4, 29389, Note_on_c, 0, 59, 88
4, 29407, Note_off_c, 0, 59, 0
4, 29408, Note_on_c, 0, 61, 88
4, 29426, Note_on_c, 0, 59, 88
4, 29426, Note_off_c, 0, 61, 0
4, 29444, Note_off_c, 0, 59, 0
4, 29445, Note_on_c, 0, 61, 88
4, 29463, Note_off_c, 0, 61, 0
4, 29464, Note_on_c, 0, 59, 88
4, 29482, Note_off_c, 0, 59, 0
4, 29483, Note_on_c, 0, 61, 88
4, 29501, Note_on_c, 0, 59, 88
4, 29501, Note_off_c, 0, 61, 0
4, 29519, Note_off_c, 0, 59, 0
4, 29520, Note_on_c, 0, 61, 88
4, 29538, Note_off_c, 0, 61, 0
4, 29539, Note_on_c, 0, 59, 88
4, 29561, Note_off_c, 0, 59, 0
4, 29561, Note_on_c, 0, 61, 88
4, 29583, Note_off_c, 0, 61, 0
4, 29584, Note_on_c, 0, 59, 88
4, 29606, Note_off_c, 0, 59, 0
4, 29606, Note_on_c, 0, 61, 88
4, 29628, Note_off_c, 0, 61, 0
4, 29629, Note_on_c, 0, 59, 88
4, 29651, Note_off_c, 0, 59, 0
4, 29651, Note_on_c, 0, 61, 88
4, 29673, Note_off_c, 0, 61, 0
4, 29674, Note_on_c, 0, 59, 88
4, 29692, Note_off_c, 0, 59, 0
4, 29693, Note_on_c, 0, 61, 88
4, 29711, Note_on_c, 0, 59, 88
4, 29711, Note_off_c, 0, 61, 0
4, 29729, Note_off_c, 0, 59, 0
4, 29730, Note_on_c, 0, 61, 88
4, 29748, Note_off_c, 0, 61, 0
4, 29749, Note_on_c, 0, 59, 88
4, 29767, Note_off_c, 0, 59, 0
4, 29768, Note_on_c, 0, 61, 88
4, 29786, Note_on_c, 0, 59, 88
4, 29786, Note_off_c, 0, 61, 0
4, 29804, Note_off_c, 0, 59, 0
4, 29805, Note_on_c, 0, 61, 88
4, 29823, Note_off_c, 0, 61, 0
4, 29824, Note_on_c, 0, 59, 88
4, 29842, Note_off_c, 0, 59, 0
4, 29843, Note_on_c, 0, 61, 88
4, 29861, Note_on_c, 0, 59, 88
4, 29861, Note_off_c, 0, 61, 0
4, 29879, Note_off_c, 0, 59, 0
4, 29880, Note_on_c, 0, 61, 88
4, 29898, Note_off_c, 0, 61, 0
4, 29899, Note_on_c, 0, 59, 88
4, 29921, Note_off_c, 0, 59, 0
4, 29921, Note_on_c, 0, 61, 88
4, 29943, Note_off_c, 0, 61, 0
4, 29944, Note_on_c, 0, 59, 88
4, 29966, Note_off_c, 0, 59, 0
4, 29966, Note_on_c, 0, 61, 88
4, 29988, Note_off_c, 0, 61, 0
4, 29989, Note_on_c, 0, 59, 88
4, 30011, Note_off_c, 0, 59, 0
4, 30011, Note_on_c, 0, 61, 88
4, 30033, Note_off_c, 0, 61, 0
4, 30034, Note_on_c, 0, 59, 88
4, 30052, Note_off_c, 0, 59, 0
4, 30053, Note_on_c, 0, 61, 88
4, 30071, Note_on_c, 0, 59, 88
4, 30071, Note_off_c, 0, 61, 0
4, 30089, Note_off_c, 0, 59, 0
4, 30090, Note_on_c, 0, 61, 88
4, 30108, Note_off_c, 0, 61, 0
4, 30109, Note_on_c, 0, 59, 88
4, 30127, Note_off_c, 0, 59, 0
4, 30128, Note_on_c, 0, 61, 88
4, 30146, Note_on_c, 0, 59, 88
4, 30146, Note_off_c, 0, 61, 0
4, 30164, Note_off_c, 0, 59, 0
4, 30165, Note_on_c, 0, 61, 88
4, 30183, Note_off_c, 0, 61, 0
4, 30184, Note_on_c, 0, 59, 88
4, 30202, Note_off_c, 0, 59, 0
4, 30203, Note_on_c, 0, 61, 88
4, 30221, Note_on_c, 0, 59, 88
4, 30221, Note_off_c, 0, 61, 0
4, 30239, Note_off_c, 0, 59, 0
4, 30240, Note_on_c, 0, 59, 88
4, 30356, Note_off_c, 0, 59, 0
4, 30360, Note_on_c, 0, 64, 88
4, 30658, Note_off_c, 0, 64, 0
4, 30660, Note_on_c, 0, 66, 88
4, 30718, Note_off_c, 0, 66, 0
4, 30720, Note_on_c, 0, 64, 88
4, 30778, Note_off_c, 0, 64, 0
4, 30780, Note_on_c, 0, 62, 88
4, 30838, Note_off_c, 0, 62, 0
4, 30840, Note_on_c, 0, 61, 88
4, 30898, Note_off_c, 0, 61, 0
4, 30900, Note_on_c, 0, 64, 88
4, 30958, Note_off_c, 0, 64, 0
4, 30960, Note_on_c, 0, 58, 88
4, 31076, Note_off_c, 0, 58, 0
4, 31080, Note_on_c, 0, 73, 88
4, 31378, Note_off_c, 0, 73, 0
4, 31380, Note_on_c, 0, 74, 88
4, 31438, Note_off_c, 0, 74, 0
4, 31440, Note_on_c, 0, 73, 88
4, 31498, Note_off_c, 0, 73, 0
4, 31500, Note_on_c, 0, 71, 88
4, 31558, Note_off_c, 0, 71, 0
4, 31560, Note_on_c, 0, 70, 88
4, 31618, Note_off_c, 0, 70, 0
4, 31620, Note_on_c, 0, 73, 88
4, 31678, Note_off_c, 0, 73, 0
4, 31680, Note_on_c, 0, 66, 88
4, 31796, Note_off_c, 0, 66, 0
4, 31800, Note_on_c, 0, 79, 88
4, 32098, Note_off_c, 0, 79, 0
4, 32100, Note_on_c, 0, 78, 88
4, 32158, Note_off_c, 0, 78, 0
4, 32160, Note_on_c, 0, 76, 88
4, 32218, Note_off_c, 0, 76, 0
4, 32220, Note_on_c, 0, 74, 88
4, 32278, Note_off_c, 0, 74, 0
4, 32280, Note_on_c, 0, 73, 88
4, 32338, Note_off_c, 0, 73, 0
4, 32340, Note_on_c, 0, 76, 88
4, 32398, Note_off_c, 0, 76, 0
4, 32400, Note_on_c, 0, 74, 88
4, 32818, Note_off_c, 0, 74, 0
4, 32820, Note_on_c, 0, 73, 88
4, 32878, Note_off_c, 0, 73, 0
4, 32880, Note_on_c, 0, 71, 88
4, 32938, Note_off_c, 0, 71, 0
4, 32940, Note_on_c, 0, 69, 88
4, 32998, Note_off_c, 0, 69, 0
4, 33000, Note_on_c, 0, 68, 88
4, 33058, Note_off_c, 0, 68, 0
4, 33060, Note_on_c, 0, 71, 88
4, 33118, Note_off_c, 0, 71, 0
4, 33120, Note_on_c, 0, 65, 88
4, 33178, Note_off_c, 0, 65, 0
4, 33180, Note_on_c, 0, 74, 88
4, 33238, Note_off_c, 0, 74, 0
4, 33240, Note_on_c, 0, 73, 88
4, 33298, Note_off_c, 0, 73, 0
4, 33300, Note_on_c, 0, 71, 88
4, 33358, Note_off_c, 0, 71, 0
4, 33360, Note_on_c, 0, 70, 88
4, 33418, Note_off_c, 0, 70, 0
4, 33420, Note_on_c, 0, 73, 88
4, 33478, Note_off_c, 0, 73, 0
4, 33480, Note_on_c, 0, 76, 88
4, 33538, Note_off_c, 0, 76, 0
4, 33540, Note_on_c, 0, 79, 88
4, 33598, Note_off_c, 0, 79, 0
4, 33600, Note_on_c, 0, 78, 88
4, 33658, Note_off_c, 0, 78, 0
4, 33660, Note_on_c, 0, 76, 88
4, 33718, Note_off_c, 0, 76, 0
4, 33720, Note_on_c, 0, 74, 88
4, 33778, Note_off_c, 0, 74, 0
4, 33780, Note_on_c, 0, 78, 88
4, 33838, Note_off_c, 0, 78, 0
4, 33840, Note_on_c, 0, 71, 88
4, 33956, Note_off_c, 0, 71, 0
4, 33960, Note_on_c, 0, 73, 88
4, 34076, Note_off_c, 0, 73, 0
4, 34080, Note_on_c, 0, 70, 88
4, 34098, Note_off_c, 0, 70, 0
4, 34099, Note_on_c, 0, 71, 88
4, 34121, Note_on_c, 0, 70, 88
4, 34121, Note_off_c, 0, 71, 0
4, 34143, Note_off_c, 0, 70, 0
4, 34144, Note_on_c, 0, 68, 88
4, 34162, Note_off_c, 0, 68, 0
4, 34163, Note_on_c, 0, 70, 88
4, 34199, Note_off_c, 0, 70, 0
4, 34200, Note_on_c, 0, 71, 88
4, 34553, Note_off_c, 0, 71, 0
4, 34560, Note_on_c, 0, 78, 88
4, 35036, Note_off_c, 0, 78, 0
4, 35040, Note_on_c, 0, 76, 88
4, 35098, Note_off_c, 0, 76, 0
4, 35100, Note_on_c, 0, 78, 88
4, 35158, Note_off_c, 0, 78, 0
4, 35160, Note_on_c, 0, 79, 88
4, 35276, Note_off_c, 0, 79, 0
4, 35280, Note_on_c, 0, 78, 88
4, 35393, Note_off_c, 0, 78, 0
4, 35400, Note_on_c, 0, 76, 88
4, 35407, Note_off_c, 0, 76, 0
4, 35408, Note_on_c, 0, 78, 88
4, 35421, Note_off_c, 0, 78, 0
4, 35423, Note_on_c, 0, 76, 88
4, 35433, Note_off_c, 0, 76, 0
4, 35434, Note_on_c, 0, 78, 88
4, 35445, Note_on_c, 0, 76, 88
4, 35445, Note_off_c, 0, 78, 0
4, 35456, Note_off_c, 0, 76, 0
4, 35456, Note_on_c, 0, 78, 88
4, 35467, Note_off_c, 0, 78, 0
4, 35468, Note_on_c, 0, 76, 88
4, 35518, Note_off_c, 0, 76, 0
4, 35520, Note_on_c, 0, 69, 88
4, 35636, Note_off_c, 0, 69, 0
4, 35640, Note_on_c, 0, 74, 88
4, 35756, Note_off_c, 0, 74, 0
4, 35760, Note_on_c, 0, 72, 88
4, 35818, Note_off_c, 0, 72, 0
4, 35820, Note_on_c, 0, 71, 88
4, 35878, Note_off_c, 0, 71, 0
4, 35880, Note_on_c, 0, 72, 88
4, 36058, Note_off_c, 0, 72, 0
4, 36060, Note_on_c, 0, 71, 88
4, 36118, Note_off_c, 0, 71, 0
4, 36120, Note_on_c, 0, 69, 88
4, 36178, Note_off_c, 0, 69, 0
4, 36180, Note_on_c, 0, 67, 88
4, 36238, Note_off_c, 0, 67, 0
4, 36240, Note_on_c, 0, 66, 88
4, 36298, Note_off_c, 0, 66, 0
4, 36300, Note_on_c, 0, 69, 88
4, 36358, Note_off_c, 0, 69, 0
4, 36360, Note_on_c, 0, 67, 88
4, 36418, Note_off_c, 0, 67, 0
4, 36420, Note_on_c, 0, 71, 88
4, 36478, Note_off_c, 0, 71, 0
4, 36480, Note_on_c, 0, 72, 88
4, 36538, Note_off_c, 0, 72, 0
4, 36540, Note_on_c, 0, 74, 88
4, 36598, Note_off_c, 0, 74, 0
4, 36600, Note_on_c, 0, 76, 88
4, 36658, Note_off_c, 0, 76, 0
4, 36660, Note_on_c, 0, 69, 88
4, 36718, Note_off_c, 0, 69, 0
4, 36720, Note_on_c, 0, 74, 88
4, 36778, Note_off_c, 0, 74, 0
4, 36780, Note_on_c, 0, 68, 88
4, 36838, Note_off_c, 0, 68, 0
4, 36840, Note_on_c, 0, 69, 88
4, 36898, Note_off_c, 0, 69, 0
4, 36900, Note_on_c, 0, 71, 88
4, 36958, Note_off_c, 0, 71, 0
4, 36960, Note_on_c, 0, 72, 88
4, 37018, Note_off_c, 0, 72, 0
4, 37020, Note_on_c, 0, 66, 88
4, 37078, Note_off_c, 0, 66, 0
4, 37080, Note_on_c, 0, 71, 88
4, 37138, Note_off_c, 0, 71, 0
4, 37140, Note_on_c, 0, 64, 88
4, 37198, Note_off_c, 0, 64, 0
4, 37200, Note_on_c, 0, 66, 88
4, 37258, Note_off_c, 0, 66, 0
4, 37260, Note_on_c, 0, 68, 88
4, 37318, Note_off_c, 0, 68, 0
4, 37320, Note_on_c, 0, 69, 88
4, 37378, Note_off_c, 0, 69, 0
4, 37380, Note_on_c, 0, 63, 88
4, 37438, Note_off_c, 0, 63, 0
4, 37440, Note_on_c, 0, 68, 88
4, 37556, Note_off_c, 0, 68, 0
4, 37560, Note_on_c, 0, 69, 88
4, 37676, Note_off_c, 0, 69, 0
4, 37680, Note_on_c, 0, 71, 88
4, 37796, Note_off_c, 0, 71, 0
4, 37800, Note_on_c, 0, 64, 88
4, 37858, Note_off_c, 0, 64, 0
4, 37860, Note_on_c, 0, 76, 88
4, 37918, Note_off_c, 0, 76, 0
4, 37920, Note_on_c, 0, 74, 88
4, 37978, Note_off_c, 0, 74, 0
4, 37980, Note_on_c, 0, 72, 88
4, 38038, Note_off_c, 0, 72, 0
4, 38040, Note_on_c, 0, 71, 88
4, 38098, Note_off_c, 0, 71, 0
4, 38100, Note_on_c, 0, 74, 88
4, 38158, Note_off_c, 0, 74, 0
4, 38160, Note_on_c, 0, 72, 88
4, 38276, Note_off_c, 0, 72, 0
4, 38280, Note_on_c, 0, 74, 88
4, 38396, Note_off_c, 0, 74, 0
4, 38400, Note_on_c, 0, 76, 88
4, 38516, Note_off_c, 0, 76, 0
4, 38520, Note_on_c, 0, 69, 88
4, 38578, Note_off_c, 0, 69, 0
4, 38580, Note_on_c, 0, 81, 88
4, 38638, Note_off_c, 0, 81, 0
4, 38640, Note_on_c, 0, 79, 88
4, 38698, Note_off_c, 0, 79, 0
4, 38700, Note_on_c, 0, 77, 88
4, 38758, Note_off_c, 0, 77, 0
4, 38760, Note_on_c, 0, 76, 88
4, 38818, Note_off_c, 0, 76, 0
4, 38820, Note_on_c, 0, 79, 88
4, 38878, Note_off_c, 0, 79, 0
4, 38880, Note_on_c, 0, 77, 88
4, 38996, Note_off_c, 0, 77, 0
4, 39000, Note_on_c, 0, 79, 88
4, 39116, Note_off_c, 0, 79, 0
4, 39120, Note_on_c, 0, 81, 88
4, 39298, Note_off_c, 0, 81, 0
4, 39300, Note_on_c, 0, 74, 88
4, 39358, Note_off_c, 0, 74, 0
4, 39360, Note_on_c, 0, 72, 88
4, 39418, Note_off_c, 0, 72, 0
4, 39420, Note_on_c, 0, 71, 88
4, 39478, Note_off_c, 0, 71, 0
4, 39480, Note_on_c, 0, 69, 88
4, 39538, Note_off_c, 0, 69, 0
4, 39540, Note_on_c, 0, 72, 88
4, 39598, Note_off_c, 0, 72, 0
4, 39600, Note_on_c, 0, 71, 88
4, 39716, Note_off_c, 0, 71, 0
4, 39720, Note_on_c, 0, 72, 88
4, 39836, Note_off_c, 0, 72, 0
4, 39840, Note_on_c, 0, 74, 88
4, 40018, Note_off_c, 0, 74, 0
4, 40020, Note_on_c, 0, 67, 88
4, 40078, Note_off_c, 0, 67, 0
4, 40080, Note_on_c, 0, 72, 88
4, 40138, Note_off_c, 0, 72, 0
4, 40140, Note_on_c, 0, 74, 88
4, 40198, Note_off_c, 0, 74, 0
4, 40200, Note_on_c, 0, 76, 88
4, 40378, Note_off_c, 0, 76, 0
4, 40380, Note_on_c, 0, 72, 88
4, 40438, Note_off_c, 0, 72, 0
4, 40440, Note_on_c, 0, 74, 88
4, 40498, Note_off_c, 0, 74, 0
4, 40500, Note_on_c, 0, 76, 88
4, 40558, Note_off_c, 0, 76, 0
4, 40560, Note_on_c, 0, 77, 88
4, 40738, Note_off_c, 0, 77, 0
4, 40740, Note_on_c, 0, 79, 88
4, 40798, Note_off_c, 0, 79, 0
4, 40800, Note_on_c, 0, 77, 88
4, 40858, Note_off_c, 0, 77, 0
4, 40860, Note_on_c, 0, 76, 88
4, 40918, Note_off_c, 0, 76, 0
4, 40920, Note_on_c, 0, 74, 88
4, 40978, Note_off_c, 0, 74, 0
4, 40980, Note_on_c, 0, 77, 88
4, 41038, Note_off_c, 0, 77, 0
4, 41040, Note_on_c, 0, 76, 88
4, 41098, Note_off_c, 0, 76, 0
4, 41100, Note_on_c, 0, 64, 88
4, 41158, Note_off_c, 0, 64, 0
4, 41160, Note_on_c, 0, 66, 88
4, 41218, Note_off_c, 0, 66, 0
4, 41220, Note_on_c, 0, 68, 88
4, 41278, Note_off_c, 0, 68, 0
4, 41280, Note_on_c, 0, 69, 88
4, 41338, Note_off_c, 0, 69, 0
4, 41340, Note_on_c, 0, 66, 88
4, 41398, Note_off_c, 0, 66, 0
4, 41400, Note_on_c, 0, 74, 88
4, 41458, Note_off_c, 0, 74, 0
4, 41460, Note_on_c, 0, 66, 88
4, 41518, Note_off_c, 0, 66, 0
4, 41520, Note_on_c, 0, 68, 88
4, 41578, Note_off_c, 0, 68, 0
4, 41580, Note_on_c, 0, 69, 88
4, 41638, Note_off_c, 0, 69, 0
4, 41640, Note_on_c, 0, 71, 88
4, 41698, Note_off_c, 0, 71, 0
4, 41700, Note_on_c, 0, 68, 88
4, 41758, Note_off_c, 0, 68, 0
4, 41760, Note_on_c, 0, 72, 88
4, 41818, Note_off_c, 0, 72, 0
4, 41820, Note_on_c, 0, 68, 88
4, 41878, Note_off_c, 0, 68, 0
4, 41880, Note_on_c, 0, 69, 88
4, 41938, Note_off_c, 0, 69, 0
4, 41940, Note_on_c, 0, 71, 88
4, 41998, Note_off_c, 0, 71, 0
4, 42000, Note_on_c, 0, 72, 88
4, 42058, Note_off_c, 0, 72, 0
4, 42060, Note_on_c, 0, 69, 88
4, 42118, Note_off_c, 0, 69, 0
4, 42120, Note_on_c, 0, 72, 88
4, 42178, Note_off_c, 0, 72, 0
4, 42180, Note_on_c, 0, 71, 88
4, 42238, Note_off_c, 0, 71, 0
4, 42240, Note_on_c, 0, 69, 88
4, 42298, Note_off_c, 0, 69, 0
4, 42300, Note_on_c, 0, 68, 88
4, 42358, Note_off_c, 0, 68, 0
4, 42360, Note_on_c, 0, 69, 88
4, 42538, Note_off_c, 0, 69, 0
4, 42540, Note_on_c, 0, 71, 88
4, 42598, Note_off_c, 0, 71, 0
4, 42600, Note_on_c, 0, 72, 88
4, 42622, Note_off_c, 0, 72, 0
4, 42623, Note_on_c, 0, 71, 88
4, 42641, Note_off_c, 0, 71, 0
4, 42641, Note_on_c, 0, 72, 88
4, 42659, Note_off_c, 0, 72, 0
4, 42660, Note_on_c, 0, 71, 88
4, 42675, Note_off_c, 0, 71, 0
4, 42675, Note_on_c, 0, 72, 88
4, 42690, Note_on_c, 0, 71, 88
4, 42690, Note_off_c, 0, 72, 0
4, 42705, Note_off_c, 0, 71, 0
4, 42705, Note_on_c, 0, 72, 88
4, 42720, Note_on_c, 0, 71, 88
4, 42720, Note_off_c, 0, 72, 0
4, 42778, Note_off_c, 0, 71, 0
4, 42780, Note_on_c, 0, 69, 88
4, 42838, Note_off_c, 0, 69, 0
4, 42840, Note_on_c, 0, 69, 88
4, 43193, Note_off_c, 0, 69, 0
4, 43260, Note_on_c, 0, 74, 88
4, 43318, Note_off_c, 0, 74, 0
4, 43320, Note_on_c, 0, 72, 88
4, 43378, Note_off_c, 0, 72, 0
4, 43380, Note_on_c, 0, 71, 88
4, 43438, Note_off_c, 0, 71, 0
4, 43440, Note_on_c, 0, 69, 88
4, 43498, Note_off_c, 0, 69, 0
4, 43500, Note_on_c, 0, 72, 88
4, 43558, Note_off_c, 0, 72, 0
4, 43560, Note_on_c, 0, 71, 88
4, 43618, Note_off_c, 0, 71, 0
4, 43620, Note_on_c, 0, 74, 88
4, 43678, Note_off_c, 0, 74, 0
4, 43680, Note_on_c, 0, 76, 88
4, 43738, Note_off_c, 0, 76, 0
4, 43740, Note_on_c, 0, 78, 88
4, 43798, Note_off_c, 0, 78, 0
4, 43800, Note_on_c, 0, 79, 88
4, 43858, Note_off_c, 0, 79, 0
4, 43860, Note_on_c, 0, 73, 88
4, 43918, Note_off_c, 0, 73, 0
4, 43920, Note_on_c, 0, 78, 88
4, 43978, Note_off_c, 0, 78, 0
4, 43980, Note_on_c, 0, 71, 88
4, 44038, Note_off_c, 0, 71, 0
4, 44040, Note_on_c, 0, 72, 88
4, 44098, Note_off_c, 0, 72, 0
4, 44100, Note_on_c, 0, 74, 88
4, 44158, Note_off_c, 0, 74, 0
4, 44160, Note_on_c, 0, 76, 88
4, 44218, Note_off_c, 0, 76, 0
4, 44220, Note_on_c, 0, 69, 88
4, 44278, Note_off_c, 0, 69, 0
4, 44280, Note_on_c, 0, 74, 88
4, 44338, Note_off_c, 0, 74, 0
4, 44340, Note_on_c, 0, 67, 88
4, 44398, Note_off_c, 0, 67, 0
4, 44400, Note_on_c, 0, 69, 88
4, 44458, Note_off_c, 0, 69, 0
4, 44460, Note_on_c, 0, 71, 88
4, 44518, Note_off_c, 0, 71, 0
4, 44520, Note_on_c, 0, 72, 88
4, 44578, Note_off_c, 0, 72, 0
4, 44580, Note_on_c, 0, 66, 88
4, 44638, Note_off_c, 0, 66, 0
4, 44640, Note_on_c, 0, 71, 88
4, 44756, Note_off_c, 0, 71, 0
4, 44760, Note_on_c, 0, 76, 88
4, 44782, Note_off_c, 0, 76, 0
4, 44783, Note_on_c, 0, 75, 88
4, 44804, Note_off_c, 0, 75, 0
4, 44805, Note_on_c, 0, 76, 88
4, 44827, Note_off_c, 0, 76, 0
4, 44828, Note_on_c, 0, 75, 88
4, 44849, Note_off_c, 0, 75, 0
4, 44850, Note_on_c, 0, 76, 88
4, 44872, Note_off_c, 0, 76, 0
4, 44873, Note_on_c, 0, 75, 88
4, 44894, Note_off_c, 0, 75, 0
4, 44895, Note_on_c, 0, 76, 88
4, 44917, Note_off_c, 0, 76, 0
4, 44918, Note_on_c, 0, 75, 88
4, 44939, Note_off_c, 0, 75, 0
4, 44940, Note_on_c, 0, 73, 88
4, 44969, Note_off_c, 0, 73, 0
4, 44970, Note_on_c, 0, 75, 88
4, 44999, Note_off_c, 0, 75, 0
4, 45000, Note_on_c, 0, 76, 88
4, 45116, Note_off_c, 0, 76, 0
4, 45120, Note_on_c, 0, 78, 88
4, 45138, Note_off_c, 0, 78, 0
4, 45139, Note_on_c, 0, 79, 88
4, 45161, Note_on_c, 0, 78, 88
4, 45161, Note_off_c, 0, 79, 0
4, 45183, Note_off_c, 0, 78, 0
4, 45184, Note_on_c, 0, 76, 88
4, 45202, Note_off_c, 0, 76, 0
4, 45203, Note_on_c, 0, 78, 88
4, 45239, Note_off_c, 0, 78, 0
4, 45240, Note_on_c, 0, 79, 88
4, 45418, Note_off_c, 0, 79, 0
4, 45420, Note_on_c, 0, 78, 88
4, 45478, Note_off_c, 0, 78, 0
4, 45480, Note_on_c, 0, 76, 88
4, 45538, Note_off_c, 0, 76, 0
4, 45540, Note_on_c, 0, 75, 88
4, 45598, Note_off_c, 0, 75, 0
4, 45600, Note_on_c, 0, 76, 88
4, 45778, Note_off_c, 0, 76, 0
4, 45780, Note_on_c, 0, 74, 88
4, 45838, Note_off_c, 0, 74, 0
4, 45840, Note_on_c, 0, 72, 88
4, 45898, Note_off_c, 0, 72, 0
4, 45900, Note_on_c, 0, 71, 88
4, 45958, Note_off_c, 0, 71, 0
4, 45960, Note_on_c, 0, 72, 88
4, 46018, Note_off_c, 0, 72, 0
4, 46020, Note_on_c, 0, 81, 88
4, 46078, Note_off_c, 0, 81, 0
4, 46080, Note_on_c, 0, 71, 88
4, 46138, Note_off_c, 0, 71, 0
4, 46140, Note_on_c, 0, 62, 88
4, 46198, Note_off_c, 0, 62, 0
4, 46200, Note_on_c, 0, 64, 88
4, 46258, Note_off_c, 0, 64, 0
4, 46260, Note_on_c, 0, 66, 88
4, 46318, Note_off_c, 0, 66, 0
4, 46320, Note_on_c, 0, 67, 88
4, 46498, Note_off_c, 0, 67, 0
4, 46500, Note_on_c, 0, 66, 88
4, 46558, Note_off_c, 0, 66, 0
4, 46560, Note_on_c, 0, 68, 88
4, 46618, Note_off_c, 0, 68, 0
4, 46620, Note_on_c, 0, 69, 88
4, 46678, Note_off_c, 0, 69, 0
4, 46680, Note_on_c, 0, 71, 88
4, 46738, Note_off_c, 0, 71, 0
4, 46740, Note_on_c, 0, 68, 88
4, 46798, Note_off_c, 0, 68, 0
4, 46800, Note_on_c, 0, 69, 88
4, 46858, Note_off_c, 0, 69, 0
4, 46860, Note_on_c, 0, 64, 88
4, 46918, Note_off_c, 0, 64, 0
4, 46920, Note_on_c, 0, 66, 88
4, 46978, Note_off_c, 0, 66, 0
4, 46980, Note_on_c, 0, 67, 88
4, 47038, Note_off_c, 0, 67, 0
4, 47040, Note_on_c, 0, 69, 88
4, 47218, Note_off_c, 0, 69, 0
4, 47220, Note_on_c, 0, 67, 88
4, 47278, Note_off_c, 0, 67, 0
4, 47280, Note_on_c, 0, 69, 88
4, 47338, Note_off_c, 0, 69, 0
4, 47340, Note_on_c, 0, 71, 88
4, 47398, Note_off_c, 0, 71, 0
4, 47400, Note_on_c, 0, 72, 88
4, 47458, Note_off_c, 0, 72, 0
4, 47460, Note_on_c, 0, 69, 88
4, 47518, Note_off_c, 0, 69, 0
4, 47520, Note_on_c, 0, 71, 88
4, 47578, Note_off_c, 0, 71, 0
4, 47580, Note_on_c, 0, 75, 88
4, 47638, Note_off_c, 0, 75, 0
4, 47640, Note_on_c, 0, 76, 88
4, 47698, Note_off_c, 0, 76, 0
4, 47700, Note_on_c, 0, 78, 88
4, 47758, Note_off_c, 0, 78, 0
4, 47760, Note_on_c, 0, 79, 88
4, 47818, Note_off_c, 0, 79, 0
4, 47820, Note_on_c, 0, 76, 88
4, 47878, Note_off_c, 0, 76, 0
4, 47880, Note_on_c, 0, 78, 88
4, 47938, Note_off_c, 0, 78, 0
4, 47940, Note_on_c, 0, 76, 88
4, 47998, Note_off_c, 0, 76, 0
4, 48000, Note_on_c, 0, 75, 88
4, 48058, Note_off_c, 0, 75, 0
4, 48060, Note_on_c, 0, 73, 88
4, 48118, Note_off_c, 0, 73, 0
4, 48120, Note_on_c, 0, 71, 88
4, 48178, Note_off_c, 0, 71, 0
4, 48180, Note_on_c, 0, 69, 88
4, 48238, Note_off_c, 0, 69, 0
4, 48240, Note_on_c, 0, 67, 88
4, 48298, Note_off_c, 0, 67, 0
4, 48300, Note_on_c, 0, 71, 88
4, 48358, Note_off_c, 0, 71, 0
4, 48360, Note_on_c, 0, 73, 88
4, 48418, Note_off_c, 0, 73, 0
4, 48420, Note_on_c, 0, 75, 88
4, 48478, Note_off_c, 0, 75, 0
4, 48480, Note_on_c, 0, 76, 88
4, 48538, Note_off_c, 0, 76, 0
4, 48540, Note_on_c, 0, 73, 88
4, 48598, Note_off_c, 0, 73, 0
4, 48600, Note_on_c, 0, 75, 88
4, 48658, Note_off_c, 0, 75, 0
4, 48660, Note_on_c, 0, 73, 88
4, 48718, Note_off_c, 0, 73, 0
4, 48720, Note_on_c, 0, 71, 88
4, 48778, Note_off_c, 0, 71, 0
4, 48780, Note_on_c, 0, 69, 88
4, 48838, Note_off_c, 0, 69, 0
4, 48840, Note_on_c, 0, 67, 88
4, 48898, Note_off_c, 0, 67, 0
4, 48900, Note_on_c, 0, 66, 88
4, 48958, Note_off_c, 0, 66, 0
4, 48960, Note_on_c, 0, 66, 88
4, 48978, Note_off_c, 0, 66, 0
4, 48979, Note_on_c, 0, 64, 88
4, 49001, Note_off_c, 0, 64, 0
4, 49001, Note_on_c, 0, 66, 88
4, 49023, Note_off_c, 0, 66, 0
4, 49024, Note_on_c, 0, 64, 88
4, 49046, Note_off_c, 0, 64, 0
4, 49046, Note_on_c, 0, 66, 88
4, 49068, Note_off_c, 0, 66, 0
4, 49069, Note_on_c, 0, 64, 88
4, 49091, Note_off_c, 0, 64, 0
4, 49091, Note_on_c, 0, 66, 88
4, 49113, Note_off_c, 0, 66, 0
4, 49114, Note_on_c, 0, 64, 88
4, 49132, Note_off_c, 0, 64, 0
4, 49133, Note_on_c, 0, 66, 88
4, 49151, Note_on_c, 0, 64, 88
4, 49151, Note_off_c, 0, 66, 0
4, 49169, Note_off_c, 0, 64, 0
4, 49170, Note_on_c, 0, 66, 88
4, 49188, Note_off_c, 0, 66, 0
4, 49189, Note_on_c, 0, 64, 88
4, 49207, Note_off_c, 0, 64, 0
4, 49208, Note_on_c, 0, 66, 88
4, 49226, Note_on_c, 0, 64, 88
4, 49226, Note_off_c, 0, 66, 0
4, 49244, Note_off_c, 0, 64, 0
4, 49245, Note_on_c, 0, 66, 88
4, 49263, Note_off_c, 0, 66, 0
4, 49264, Note_on_c, 0, 64, 88
4, 49282, Note_off_c, 0, 64, 0
4, 49283, Note_on_c, 0, 66, 88
4, 49301, Note_on_c, 0, 64, 88
4, 49301, Note_off_c, 0, 66, 0
4, 49319, Note_off_c, 0, 64, 0
4, 49320, Note_on_c, 0, 66, 88
4, 49338, Note_off_c, 0, 66, 0
4, 49339, Note_on_c, 0, 64, 88
4, 49361, Note_off_c, 0, 64, 0
4, 49361, Note_on_c, 0, 66, 88
4, 49383, Note_off_c, 0, 66, 0
4, 49384, Note_on_c, 0, 64, 88
4, 49406, Note_off_c, 0, 64, 0
4, 49406, Note_on_c, 0, 66, 88
4, 49428, Note_off_c, 0, 66, 0
4, 49429, Note_on_c, 0, 64, 88
4, 49451, Note_off_c, 0, 64, 0
4, 49451, Note_on_c, 0, 66, 88
4, 49473, Note_off_c, 0, 66, 0
4, 49474, Note_on_c, 0, 64, 88
4, 49492, Note_off_c, 0, 64, 0
4, 49493, Note_on_c, 0, 66, 88
4, 49511, Note_on_c, 0, 64, 88
4, 49511, Note_off_c, 0, 66, 0
4, 49529, Note_off_c, 0, 64, 0
4, 49530, Note_on_c, 0, 66, 88
4, 49548, Note_off_c, 0, 66, 0
4, 49549, Note_on_c, 0, 64, 88
4, 49567, Note_off_c, 0, 64, 0
4, 49568, Note_on_c, 0, 66, 88
4, 49586, Note_on_c, 0, 64, 88
4, 49586, Note_off_c, 0, 66, 0
4, 49604, Note_off_c, 0, 64, 0
4, 49605, Note_on_c, 0, 66, 88
4, 49623, Note_off_c, 0, 66, 0
4, 49624, Note_on_c, 0, 64, 88
4, 49642, Note_off_c, 0, 64, 0
4, 49643, Note_on_c, 0, 66, 88
4, 49661, Note_on_c, 0, 64, 88
4, 49661, Note_off_c, 0, 66, 0
4, 49679, Note_off_c, 0, 64, 0
4, 49680, Note_on_c, 0, 66, 88
4, 49698, Note_off_c, 0, 66, 0
4, 49699, Note_on_c, 0, 64, 88
4, 49721, Note_off_c, 0, 64, 0
4, 49721, Note_on_c, 0, 66, 88
4, 49743, Note_off_c, 0, 66, 0
4, 49744, Note_on_c, 0, 64, 88
4, 49766, Note_off_c, 0, 64, 0
4, 49766, Note_on_c, 0, 66, 88
4, 49788, Note_off_c, 0, 66, 0
4, 49789, Note_on_c, 0, 64, 88
4, 49811, Note_off_c, 0, 64, 0
4, 49811, Note_on_c, 0, 66, 88
4, 49833, Note_off_c, 0, 66, 0
4, 49834, Note_on_c, 0, 64, 88
4, 49852, Note_off_c, 0, 64, 0
4, 49853, Note_on_c, 0, 66, 88
4, 49871, Note_on_c, 0, 64, 88
4, 49871, Note_off_c, 0, 66, 0
4, 49889, Note_off_c, 0, 64, 0
4, 49890, Note_on_c, 0, 66, 88
4, 49908, Note_off_c, 0, 66, 0
4, 49909, Note_on_c, 0, 64, 88
4, 49927, Note_off_c, 0, 64, 0
4, 49928, Note_on_c, 0, 66, 88
4, 49946, Note_on_c, 0, 64, 88
4, 49946, Note_off_c, 0, 66, 0
4, 49964, Note_off_c, 0, 64, 0
4, 49965, Note_on_c, 0, 66, 88
4, 49983, Note_off_c, 0, 66, 0
4, 49984, Note_on_c, 0, 64, 88
4, 50002, Note_off_c, 0, 64, 0
4, 50003, Note_on_c, 0, 66, 88
4, 50021, Note_on_c, 0, 64, 88
4, 50021, Note_off_c, 0, 66, 0
4, 50039, Note_off_c, 0, 64, 0
4, 50040, Note_on_c, 0, 64, 88
4, 50156, Note_off_c, 0, 64, 0
4, 50160, Note_on_c, 0, 74, 88
4, 50458, Note_off_c, 0, 74, 0
4, 50460, Note_on_c, 0, 76, 88
4, 50518, Note_off_c, 0, 76, 0
4, 50520, Note_on_c, 0, 74, 88
4, 50578, Note_off_c, 0, 74, 0
4, 50580, Note_on_c, 0, 72, 88
4, 50638, Note_off_c, 0, 72, 0
4, 50640, Note_on_c, 0, 71, 88
4, 50698, Note_off_c, 0, 71, 0
4, 50700, Note_on_c, 0, 74, 88
4, 50758, Note_off_c, 0, 74, 0
4, 50760, Note_on_c, 0, 72, 88
4, 50876, Note_off_c, 0, 72, 0
4, 50880, Note_on_c, 0, 76, 88
4, 50996, Note_off_c, 0, 76, 0
4, 51000, Note_on_c, 0, 81, 88
4, 51178, Note_off_c, 0, 81, 0
4, 51180, Note_on_c, 0, 83, 88
4, 51238, Note_off_c, 0, 83, 0
4, 51240, Note_on_c, 0, 81, 88
4, 51298, Note_off_c, 0, 81, 0
4, 51300, Note_on_c, 0, 79, 88
4, 51358, Note_off_c, 0, 79, 0
4, 51360, Note_on_c, 0, 78, 88
4, 51418, Note_off_c, 0, 78, 0
4, 51420, Note_on_c, 0, 81, 88
4, 51478, Note_off_c, 0, 81, 0
4, 51480, Note_on_c, 0, 75, 88
4, 51596, Note_off_c, 0, 75, 0
4, 51600, Note_on_c, 0, 84, 88
4, 51898, Note_off_c, 0, 84, 0
4, 51900, Note_on_c, 0, 83, 88
4, 51958, Note_off_c, 0, 83, 0
4, 51960, Note_on_c, 0, 81, 88
4, 52018, Note_off_c, 0, 81, 0
4, 52020, Note_on_c, 0, 79, 88
4, 52078, Note_off_c, 0, 79, 0
4, 52080, Note_on_c, 0, 78, 88
4, 52138, Note_off_c, 0, 78, 0
4, 52140, Note_on_c, 0, 81, 88
4, 52198, Note_off_c, 0, 81, 0
4, 52200, Note_on_c, 0, 79, 88
4, 52618, Note_off_c, 0, 79, 0
4, 52620, Note_on_c, 0, 78, 88
4, 52678, Note_off_c, 0, 78, 0
4, 52680, Note_on_c, 0, 76, 88
4, 52738, Note_off_c, 0, 76, 0
4, 52740, Note_on_c, 0, 74, 88
4, 52798, Note_off_c, 0, 74, 0
4, 52800, Note_on_c, 0, 73, 88
4, 52858, Note_off_c, 0, 73, 0
4, 52860, Note_on_c, 0, 76, 88
4, 52918, Note_off_c, 0, 76, 0
4, 52920, Note_on_c, 0, 70, 88
4, 52978, Note_off_c, 0, 70, 0
4, 52980, Note_on_c, 0, 79, 88
4, 53038, Note_off_c, 0, 79, 0
4, 53040, Note_on_c, 0, 78, 88
4, 53098, Note_off_c, 0, 78, 0
4, 53100, Note_on_c, 0, 76, 88
4, 53158, Note_off_c, 0, 76, 0
4, 53160, Note_on_c, 0, 75, 88
4, 53218, Note_off_c, 0, 75, 0
4, 53220, Note_on_c, 0, 78, 88
4, 53278, Note_off_c, 0, 78, 0
4, 53280, Note_on_c, 0, 69, 88
4, 53338, Note_off_c, 0, 69, 0
4, 53340, Note_on_c, 0, 72, 88
4, 53398, Note_off_c, 0, 72, 0
4, 53400, Note_on_c, 0, 71, 88
4, 53458, Note_off_c, 0, 71, 0
4, 53460, Note_on_c, 0, 69, 88
4, 53518, Note_off_c, 0, 69, 0
4, 53520, Note_on_c, 0, 67, 88
4, 53578, Note_off_c, 0, 67, 0
4, 53580, Note_on_c, 0, 71, 88
4, 53638, Note_off_c, 0, 71, 0
4, 53640, Note_on_c, 0, 64, 88
4, 53756, Note_off_c, 0, 64, 0
4, 53760, Note_on_c, 0, 66, 88
4, 53876, Note_off_c, 0, 66, 0
4, 53880, Note_on_c, 0, 63, 88
4, 53898, Note_off_c, 0, 63, 0
4, 53899, Note_on_c, 0, 64, 88
4, 53921, Note_on_c, 0, 63, 88
4, 53921, Note_off_c, 0, 64, 0
4, 53943, Note_off_c, 0, 63, 0
4, 53944, Note_on_c, 0, 61, 88
4, 53962, Note_off_c, 0, 61, 0
4, 53963, Note_on_c, 0, 63, 88
4, 53999, Note_off_c, 0, 63, 0
4, 54000, Note_on_c, 0, 64, 88
4, 54058, Note_off_c, 0, 64, 0
4, 54060, Note_on_c, 0, 68, 88
4, 54118, Note_off_c, 0, 68, 0
4, 54120, Note_on_c, 0, 69, 88
4, 54178, Note_off_c, 0, 69, 0
4, 54180, Note_on_c, 0, 71, 88
4, 54238, Note_off_c, 0, 71, 0
4, 54240, Note_on_c, 0, 72, 88
4, 54298, Note_off_c, 0, 72, 0
4, 54300, Note_on_c, 0, 69, 88
4, 54358, Note_off_c, 0, 69, 0
4, 54360, Note_on_c, 0, 71, 88
4, 54418, Note_off_c, 0, 71, 0
4, 54420, Note_on_c, 0, 69, 88
4, 54478, Note_off_c, 0, 69, 0
4, 54480, Note_on_c, 0, 68, 88
4, 54538, Note_off_c, 0, 68, 0
4, 54540, Note_on_c, 0, 66, 88
4, 54598, Note_off_c, 0, 66, 0
4, 54600, Note_on_c, 0, 64, 88
4, 54658, Note_off_c, 0, 64, 0
4, 54660, Note_on_c, 0, 74, 88
4, 54718, Note_off_c, 0, 74, 0
4, 54720, Note_on_c, 0, 73, 88
4, 54778, Note_off_c, 0, 73, 0
4, 54780, Note_on_c, 0, 75, 88
4, 54838, Note_off_c, 0, 75, 0
4, 54840, Note_on_c, 0, 76, 88
4, 54898, Note_off_c, 0, 76, 0
4, 54900, Note_on_c, 0, 78, 88
4, 54958, Note_off_c, 0, 78, 0
4, 54960, Note_on_c, 0, 79, 88
4, 55018, Note_off_c, 0, 79, 0
4, 55020, Note_on_c, 0, 76, 88
4, 55078, Note_off_c, 0, 76, 0
4, 55080, Note_on_c, 0, 78, 88
4, 55138, Note_off_c, 0, 78, 0
4, 55140, Note_on_c, 0, 76, 88
4, 55198, Note_off_c, 0, 76, 0
4, 55200, Note_on_c, 0, 75, 88
4, 55258, Note_off_c, 0, 75, 0
4, 55260, Note_on_c, 0, 73, 88
4, 55318, Note_off_c, 0, 73, 0
4, 55320, Note_on_c, 0, 71, 88
4, 55378, Note_off_c, 0, 71, 0
4, 55380, Note_on_c, 0, 69, 88
4, 55438, Note_off_c, 0, 69, 0
4, 55440, Note_on_c, 0, 67, 88
4, 55556, Note_off_c, 0, 67, 0
4, 55560, Note_on_c, 0, 69, 88
4, 55676, Note_off_c, 0, 69, 0
4, 55680, Note_on_c, 0, 66, 88
4, 55698, Note_off_c, 0, 66, 0
4, 55699, Note_on_c, 0, 67, 88
4, 55721, Note_on_c, 0, 66, 88
4, 55721, Note_off_c, 0, 67, 0
4, 55743, Note_off_c, 0, 66, 0
4, 55744, Note_on_c, 0, 64, 88
4, 55762, Note_off_c, 0, 64, 0
4, 55763, Note_on_c, 0, 66, 88
4, 55799, Note_off_c, 0, 66, 0
4, 55800, Note_on_c, 0, 64, 88
4, 56153, Note_off_c, 0, 64, 0
4, 56160, Note_on_c, 0, 78, 88
4, 56636, Note_off_c, 0, 78, 0
4, 56640, Note_on_c, 0, 76, 88
4, 56698, Note_off_c, 0, 76, 0
4, 56700, Note_on_c, 0, 78, 88
4, 56758, Note_off_c, 0, 78, 0
4, 56760, Note_on_c, 0, 79, 88
4, 56876, Note_off_c, 0, 79, 0
4, 56880, Note_on_c, 0, 78, 88
4, 56993, Note_off_c, 0, 78, 0
4, 57000, Note_on_c, 0, 76, 88
4, 57007, Note_off_c, 0, 76, 0
4, 57008, Note_on_c, 0, 78, 88
4, 57021, Note_off_c, 0, 78, 0
4, 57023, Note_on_c, 0, 76, 88
4, 57033, Note_off_c, 0, 76, 0
4, 57034, Note_on_c, 0, 78, 88
4, 57045, Note_on_c, 0, 76, 88
4, 57045, Note_off_c, 0, 78, 0
4, 57056, Note_off_c, 0, 76, 0
4, 57056, Note_on_c, 0, 78, 88
4, 57067, Note_off_c, 0, 78, 0
4, 57068, Note_on_c, 0, 76, 88
4, 57118, Note_off_c, 0, 76, 0
4, 57120, Note_on_c, 0, 69, 88
4, 57236, Note_off_c, 0, 69, 0
4, 57240, Note_on_c, 0, 74, 88
4, 57356, Note_off_c, 0, 74, 0
4, 57360, Note_on_c, 0, 72, 88
4, 57418, Note_off_c, 0, 72, 0
4, 57420, Note_on_c, 0, 71, 88
4, 57478, Note_off_c, 0, 71, 0
4, 57480, Note_on_c, 0, 72, 88
4, 57658, Note_off_c, 0, 72, 0
4, 57660, Note_on_c, 0, 71, 88
4, 57718, Note_off_c, 0, 71, 0
4, 57720, Note_on_c, 0, 69, 88
4, 57778, Note_off_c, 0, 69, 0
4, 57780, Note_on_c, 0, 67, 88
4, 57838, Note_off_c, 0, 67, 0
4, 57840, Note_on_c, 0, 66, 88
4, 57898, Note_off_c, 0, 66, 0
4, 57900, Note_on_c, 0, 69, 88
4, 57958, Note_off_c, 0, 69, 0
4, 57960, Note_on_c, 0, 67, 88
4, 58018, Note_off_c, 0, 67, 0
4, 58020, Note_on_c, 0, 71, 88
4, 58078, Note_off_c, 0, 71, 0
4, 58080, Note_on_c, 0, 72, 88
4, 58138, Note_off_c, 0, 72, 0
4, 58140, Note_on_c, 0, 74, 88
4, 58198, Note_off_c, 0, 74, 0
4, 58200, Note_on_c, 0, 76, 88
4, 58258, Note_off_c, 0, 76, 0
4, 58260, Note_on_c, 0, 69, 88
4, 58318, Note_off_c, 0, 69, 0
4, 58320, Note_on_c, 0, 74, 88
4, 58378, Note_off_c, 0, 74, 0
4, 58380, Note_on_c, 0, 68, 88
4, 58438, Note_off_c, 0, 68, 0
4, 58440, Note_on_c, 0, 69, 88
4, 58498, Note_off_c, 0, 69, 0
4, 58500, Note_on_c, 0, 71, 88
4, 58558, Note_off_c, 0, 71, 0
4, 58560, Note_on_c, 0, 72, 88
4, 58618, Note_off_c, 0, 72, 0
4, 58620, Note_on_c, 0, 66, 88
4, 58678, Note_off_c, 0, 66, 0
4, 58680, Note_on_c, 0, 71, 88
4, 58738, Note_off_c, 0, 71, 0
4, 58740, Note_on_c, 0, 64, 88
4, 58798, Note_off_c, 0, 64, 0
4, 58800, Note_on_c, 0, 66, 88
4, 58858, Note_off_c, 0, 66, 0
4, 58860, Note_on_c, 0, 68, 88
4, 58918, Note_off_c, 0, 68, 0
4, 58920, Note_on_c, 0, 69, 88
4, 58978, Note_off_c, 0, 69, 0
4, 58980, Note_on_c, 0, 63, 88
4, 59038, Note_off_c, 0, 63, 0
4, 59040, Note_on_c, 0, 68, 88
4, 59156, Note_off_c, 0, 68, 0
4, 59160, Note_on_c, 0, 69, 88
4, 59276, Note_off_c, 0, 69, 0
4, 59280, Note_on_c, 0, 71, 88
4, 59396, Note_off_c, 0, 71, 0
4, 59400, Note_on_c, 0, 64, 88
4, 59458, Note_off_c, 0, 64, 0
4, 59460, Note_on_c, 0, 76, 88
4, 59518, Note_off_c, 0, 76, 0
4, 59520, Note_on_c, 0, 74, 88
4, 59578, Note_off_c, 0, 74, 0
4, 59580, Note_on_c, 0, 72, 88
4, 59638, Note_off_c, 0, 72, 0
4, 59640, Note_on_c, 0, 71, 88
4, 59698, Note_off_c, 0, 71, 0
4, 59700, Note_on_c, 0, 74, 88
4, 59758, Note_off_c, 0, 74, 0
4, 59760, Note_on_c, 0, 72, 88
4, 59876, Note_off_c, 0, 72, 0
4, 59880, Note_on_c, 0, 74, 88
4, 59996, Note_off_c, 0, 74, 0
4, 60000, Note_on_c, 0, 76, 88
4, 60116, Note_off_c, 0, 76, 0
4, 60120, Note_on_c, 0, 69, 88
4, 60178, Note_off_c, 0, 69, 0
4, 60180, Note_on_c, 0, 81, 88
4, 60238, Note_off_c, 0, 81, 0
4, 60240, Note_on_c, 0, 79, 88
4, 60298, Note_off_c, 0, 79, 0
4, 60300, Note_on_c, 0, 77, 88
4, 60358, Note_off_c, 0, 77, 0
4, 60360, Note_on_c, 0, 76, 88
4, 60418, Note_off_c, 0, 76, 0
4, 60420, Note_on_c, 0, 79, 88
4, 60478, Note_off_c, 0, 79, 0
4, 60480, Note_on_c, 0, 77, 88
4, 60596, Note_off_c, 0, 77, 0
4, 60600, Note_on_c, 0, 79, 88
4, 60716, Note_off_c, 0, 79, 0
4, 60720, Note_on_c, 0, 81, 88
4, 60898, Note_off_c, 0, 81, 0
4, 60900, Note_on_c, 0, 74, 88
4, 60958, Note_off_c, 0, 74, 0
4, 60960, Note_on_c, 0, 72, 88
4, 61018, Note_off_c, 0, 72, 0
4, 61020, Note_on_c, 0, 71, 88
4, 61078, Note_off_c, 0, 71, 0
4, 61080, Note_on_c, 0, 69, 88
4, 61138, Note_off_c, 0, 69, 0
4, 61140, Note_on_c, 0, 72, 88
4, 61198, Note_off_c, 0, 72, 0
4, 61200, Note_on_c, 0, 71, 88
4, 61316, Note_off_c, 0, 71, 0
4, 61320, Note_on_c, 0, 72, 88
4, 61436, Note_off_c, 0, 72, 0
4, 61440, Note_on_c, 0, 74, 88
4, 61618, Note_off_c, 0, 74, 0
4, 61620, Note_on_c, 0, 67, 88
4, 61678, Note_off_c, 0, 67, 0
4, 61680, Note_on_c, 0, 72, 88
4, 61738, Note_off_c, 0, 72, 0
4, 61740, Note_on_c, 0, 74, 88
4, 61798, Note_off_c, 0, 74, 0
4, 61800, Note_on_c, 0, 76, 88
4, 61978, Note_off_c, 0, 76, 0
4, 61980, Note_on_c, 0, 72, 88
4, 62038, Note_off_c, 0, 72, 0
4, 62040, Note_on_c, 0, 74, 88
4, 62098, Note_off_c, 0, 74, 0
4, 62100, Note_on_c, 0, 76, 88
4, 62158, Note_off_c, 0, 76, 0
4, 62160, Note_on_c, 0, 77, 88
4, 62338, Note_off_c, 0, 77, 0
4, 62340, Note_on_c, 0, 79, 88
4, 62398, Note_off_c, 0, 79, 0
4, 62400, Note_on_c, 0, 77, 88
4, 62458, Note_off_c, 0, 77, 0
4, 62460, Note_on_c, 0, 76, 88
4, 62518, Note_off_c, 0, 76, 0
4, 62520, Note_on_c, 0, 74, 88
4, 62578, Note_off_c, 0, 74, 0
4, 62580, Note_on_c, 0, 77, 88
4, 62638, Note_off_c, 0, 77, 0
4, 62640, Note_on_c, 0, 76, 88
4, 62698, Note_off_c, 0, 76, 0
4, 62700, Note_on_c, 0, 64, 88
4, 62758, Note_off_c, 0, 64, 0
4, 62760, Note_on_c, 0, 66, 88
4, 62818, Note_off_c, 0, 66, 0
4, 62820, Note_on_c, 0, 68, 88
4, 62878, Note_off_c, 0, 68, 0
4, 62880, Note_on_c, 0, 69, 88
4, 62938, Note_off_c, 0, 69, 0
4, 62940, Note_on_c, 0, 66, 88
4, 62998, Note_off_c, 0, 66, 0
4, 63000, Note_on_c, 0, 74, 88
4, 63058, Note_off_c, 0, 74, 0
4, 63060, Note_on_c, 0, 66, 88
4, 63118, Note_off_c, 0, 66, 0
4, 63120, Note_on_c, 0, 68, 88
4, 63178, Note_off_c, 0, 68, 0
4, 63180, Note_on_c, 0, 69, 88
4, 63238, Note_off_c, 0, 69, 0
4, 63240, Note_on_c, 0, 71, 88
4, 63298, Note_off_c, 0, 71, 0
4, 63300, Note_on_c, 0, 68, 88
4, 63358, Note_off_c, 0, 68, 0
4, 63360, Note_on_c, 0, 72, 88
4, 63418, Note_off_c, 0, 72, 0
4, 63420, Note_on_c, 0, 68, 88
4, 63478, Note_off_c, 0, 68, 0
4, 63480, Note_on_c, 0, 69, 88
4, 63538, Note_off_c, 0, 69, 0
4, 63540, Note_on_c, 0, 71, 88
4, 63598, Note_off_c, 0, 71, 0
4, 63600, Note_on_c, 0, 72, 88
4, 63658, Note_off_c, 0, 72, 0
4, 63660, Note_on_c, 0, 69, 88
4, 63718, Note_off_c, 0, 69, 0
4, 63720, Note_on_c, 0, 72, 88
4, 63778, Note_off_c, 0, 72, 0
4, 63780, Note_on_c, 0, 71, 88
4, 63838, Note_off_c, 0, 71, 0
4, 63840, Note_on_c, 0, 69, 88
4, 63898, Note_off_c, 0, 69, 0
4, 63900, Note_on_c, 0, 68, 88
4, 63958, Note_off_c, 0, 68, 0
4, 63960, Note_on_c, 0, 69, 88
4, 64138, Note_off_c, 0, 69, 0
4, 64140, Note_on_c, 0, 71, 88
4, 64198, Note_off_c, 0, 71, 0
4, 64200, Note_on_c, 0, 72, 88
4, 64222, Note_off_c, 0, 72, 0
4, 64223, Note_on_c, 0, 71, 88
4, 64241, Note_off_c, 0, 71, 0
4, 64241, Note_on_c, 0, 72, 88
4, 64259, Note_off_c, 0, 72, 0
4, 64260, Note_on_c, 0, 71, 88
4, 64275, Note_off_c, 0, 71, 0
4, 64275, Note_on_c, 0, 72, 88
4, 64290, Note_on_c, 0, 71, 88
4, 64290, Note_off_c, 0, 72, 0
4, 64305, Note_off_c, 0, 71, 0
4, 64305, Note_on_c, 0, 72, 88
4, 64320, Note_on_c, 0, 71, 88
4, 64320, Note_off_c, 0, 72, 0
4, 64378, Note_off_c, 0, 71, 0
4, 64380, Note_on_c, 0, 69, 88
4, 64438, Note_off_c, 0, 69, 0
4, 64440, Note_on_c, 0, 69, 88
4, 64793, Note_off_c, 0, 69, 0
4, 64860, Note_on_c, 0, 74, 88
4, 64918, Note_off_c, 0, 74, 0
4, 64920, Note_on_c, 0, 72, 88
4, 64978, Note_off_c, 0, 72, 0
4, 64980, Note_on_c, 0, 71, 88
4, 65038, Note_off_c, 0, 71, 0
4, 65040, Note_on_c, 0, 69, 88
4, 65098, Note_off_c, 0, 69, 0
4, 65100, Note_on_c, 0, 72, 88
4, 65158, Note_off_c, 0, 72, 0
4, 65160, Note_on_c, 0, 71, 88
4, 65218, Note_off_c, 0, 71, 0
4, 65220, Note_on_c, 0, 74, 88
4, 65278, Note_off_c, 0, 74, 0
4, 65280, Note_on_c, 0, 76, 88
4, 65338, Note_off_c, 0, 76, 0
4, 65340, Note_on_c, 0, 78, 88
4, 65398, Note_off_c, 0, 78, 0
4, 65400, Note_on_c, 0, 79, 88
4, 65458, Note_off_c, 0, 79, 0
4, 65460, Note_on_c, 0, 73, 88
4, 65518, Note_off_c, 0, 73, 0
4, 65520, Note_on_c, 0, 78, 88
4, 65578, Note_off_c, 0, 78, 0
4, 65580, Note_on_c, 0, 71, 88
4, 65638, Note_off_c, 0, 71, 0
4, 65640, Note_on_c, 0, 72, 88
4, 65698, Note_off_c, 0, 72, 0
4, 65700, Note_on_c, 0, 74, 88
4, 65758, Note_off_c, 0, 74, 0
4, 65760, Note_on_c, 0, 76, 88
4, 65818, Note_off_c, 0, 76, 0
4, 65820, Note_on_c, 0, 69, 88
4, 65878, Note_off_c, 0, 69, 0
4, 65880, Note_on_c, 0, 74, 88
4, 65938, Note_off_c, 0, 74, 0
4, 65940, Note_on_c, 0, 67, 88
4, 65998, Note_off_c, 0, 67, 0
4, 66000, Note_on_c, 0, 69, 88
4, 66058, Note_off_c, 0, 69, 0
4, 66060, Note_on_c, 0, 71, 88
4, 66118, Note_off_c, 0, 71, 0
4, 66120, Note_on_c, 0, 72, 88
4, 66178, Note_off_c, 0, 72, 0
4, 66180, Note_on_c, 0, 66, 88
4, 66238, Note_off_c, 0, 66, 0
4, 66240, Note_on_c, 0, 71, 88
4, 66356, Note_off_c, 0, 71, 0
4, 66360, Note_on_c, 0, 76, 88
4, 66382, Note_off_c, 0, 76, 0
4, 66383, Note_on_c, 0, 75, 88
4, 66404, Note_off_c, 0, 75, 0
4, 66405, Note_on_c, 0, 76, 88
4, 66427, Note_off_c, 0, 76, 0
4, 66428, Note_on_c, 0, 75, 88
4, 66449, Note_off_c, 0, 75, 0
4, 66450, Note_on_c, 0, 76, 88
4, 66472, Note_off_c, 0, 76, 0
4, 66473, Note_on_c, 0, 75, 88
4, 66494, Note_off_c, 0, 75, 0
4, 66495, Note_on_c, 0, 76, 88
4, 66517, Note_off_c, 0, 76, 0
4, 66518, Note_on_c, 0, 75, 88
4, 66539, Note_off_c, 0, 75, 0
4, 66540, Note_on_c, 0, 73, 88
4, 66569, Note_off_c, 0, 73, 0
4, 66570, Note_on_c, 0, 75, 88
4, 66599, Note_off_c, 0, 75, 0
4, 66600, Note_on_c, 0, 76, 88
4, 66716, Note_off_c, 0, 76, 0
4, 66720, Note_on_c, 0, 78, 88
4, 66738, Note_off_c, 0, 78, 0
4, 66739, Note_on_c, 0, 79, 88
4, 66761, Note_on_c, 0, 78, 88
4, 66761, Note_off_c, 0, 79, 0
4, 66783, Note_off_c, 0, 78, 0
4, 66784, Note_on_c, 0, 76, 88
4, 66802, Note_off_c, 0, 76, 0
4, 66803, Note_on_c, 0, 78, 88
4, 66839, Note_off_c, 0, 78, 0
4, 66840, Note_on_c, 0, 79, 88
4, 67018, Note_off_c, 0, 79, 0
4, 67020, Note_on_c, 0, 78, 88
4, 67078, Note_off_c, 0, 78, 0
4, 67080, Note_on_c, 0, 76, 88
4, 67138, Note_off_c, 0, 76, 0
4, 67140, Note_on_c, 0, 75, 88
4, 67198, Note_off_c, 0, 75, 0
4, 67200, Note_on_c, 0, 76, 88
4, 67378, Note_off_c, 0, 76, 0
4, 67380, Note_on_c, 0, 74, 88
4, 67438, Note_off_c, 0, 74, 0
4, 67440, Note_on_c, 0, 72, 88
4, 67498, Note_off_c, 0, 72, 0
4, 67500, Note_on_c, 0, 71, 88
4, 67558, Note_off_c, 0, 71, 0
4, 67560, Note_on_c, 0, 72, 88
4, 67618, Note_off_c, 0, 72, 0
4, 67620, Note_on_c, 0, 81, 88
4, 67678, Note_off_c, 0, 81, 0
4, 67680, Note_on_c, 0, 71, 88
4, 67738, Note_off_c, 0, 71, 0
4, 67740, Note_on_c, 0, 62, 88
4, 67798, Note_off_c, 0, 62, 0
4, 67800, Note_on_c, 0, 64, 88
4, 67858, Note_off_c, 0, 64, 0
4, 67860, Note_on_c, 0, 66, 88
4, 67918, Note_off_c, 0, 66, 0
4, 67920, Note_on_c, 0, 67, 88
4, 68098, Note_off_c, 0, 67, 0
4, 68100, Note_on_c, 0, 66, 88
4, 68158, Note_off_c, 0, 66, 0
4, 68160, Note_on_c, 0, 68, 88
4, 68218, Note_off_c, 0, 68, 0
4, 68220, Note_on_c, 0, 69, 88
4, 68278, Note_off_c, 0, 69, 0
4, 68280, Note_on_c, 0, 71, 88
4, 68338, Note_off_c, 0, 71, 0
4, 68340, Note_on_c, 0, 68, 88
4, 68398, Note_off_c, 0, 68, 0
4, 68400, Note_on_c, 0, 69, 88
4, 68458, Note_off_c, 0, 69, 0
4, 68460, Note_on_c, 0, 64, 88
4, 68518, Note_off_c, 0, 64, 0
4, 68520, Note_on_c, 0, 66, 88
4, 68578, Note_off_c, 0, 66, 0
4, 68580, Note_on_c, 0, 67, 88
4, 68638, Note_off_c, 0, 67, 0
4, 68640, Note_on_c, 0, 69, 88
4, 68818, Note_off_c, 0, 69, 0
4, 68820, Note_on_c, 0, 67, 88
4, 68878, Note_off_c, 0, 67, 0
4, 68880, Note_on_c, 0, 69, 88
4, 68938, Note_off_c, 0, 69, 0
4, 68940, Note_on_c, 0, 71, 88
4, 68998, Note_off_c, 0, 71, 0
4, 69000, Note_on_c, 0, 72, 88
4, 69058, Note_off_c, 0, 72, 0
4, 69060, Note_on_c, 0, 69, 88
4, 69118, Note_off_c, 0, 69, 0
4, 69120, Note_on_c, 0, 71, 88
4, 69178, Note_off_c, 0, 71, 0
4, 69180, Note_on_c, 0, 75, 88
4, 69238, Note_off_c, 0, 75, 0
4, 69240, Note_on_c, 0, 76, 88
4, 69298, Note_off_c, 0, 76, 0
4, 69300, Note_on_c, 0, 78, 88
4, 69358, Note_off_c, 0, 78, 0
4, 69360, Note_on_c, 0, 79, 88
4, 69418, Note_off_c, 0, 79, 0
4, 69420, Note_on_c, 0, 76, 88
4, 69478, Note_off_c, 0, 76, 0
4, 69480, Note_on_c, 0, 78, 88
4, 69538, Note_off_c, 0, 78, 0
4, 69540, Note_on_c, 0, 76, 88
4, 69598, Note_off_c, 0, 76, 0
4, 69600, Note_on_c, 0, 75, 88
4, 69658, Note_off_c, 0, 75, 0
4, 69660, Note_on_c, 0, 73, 88
4, 69718, Note_off_c, 0, 73, 0
4, 69720, Note_on_c, 0, 71, 88
4, 69778, Note_off_c, 0, 71, 0
4, 69780, Note_on_c, 0, 69, 88
4, 69838, Note_off_c, 0, 69, 0
4, 69840, Note_on_c, 0, 67, 88
4, 69898, Note_off_c, 0, 67, 0
4, 69900, Note_on_c, 0, 71, 88
4, 69958, Note_off_c, 0, 71, 0
4, 69960, Note_on_c, 0, 73, 88
4, 70018, Note_off_c, 0, 73, 0
4, 70020, Note_on_c, 0, 75, 88
4, 70078, Note_off_c, 0, 75, 0
4, 70080, Note_on_c, 0, 76, 88
4, 70138, Note_off_c, 0, 76, 0
4, 70140, Note_on_c, 0, 73, 88
4, 70198, Note_off_c, 0, 73, 0
4, 70200, Note_on_c, 0, 75, 88
4, 70258, Note_off_c, 0, 75, 0
4, 70260, Note_on_c, 0, 73, 88
4, 70318, Note_off_c, 0, 73, 0
4, 70320, Note_on_c, 0, 71, 88
4, 70378, Note_off_c, 0, 71, 0
4, 70380, Note_on_c, 0, 69, 88
4, 70438, Note_off_c, 0, 69, 0
4, 70440, Note_on_c, 0, 67, 88
4, 70498, Note_off_c, 0, 67, 0
4, 70500, Note_on_c, 0, 66, 88
4, 70558, Note_off_c, 0, 66, 0
4, 70560, Note_on_c, 0, 66, 88
4, 70578, Note_off_c, 0, 66, 0
4, 70579, Note_on_c, 0, 64, 88
4, 70601, Note_off_c, 0, 64, 0
4, 70601, Note_on_c, 0, 66, 88
4, 70623, Note_off_c, 0, 66, 0
4, 70624, Note_on_c, 0, 64, 88
4, 70646, Note_off_c, 0, 64, 0
4, 70646, Note_on_c, 0, 66, 88
4, 70668, Note_off_c, 0, 66, 0
4, 70669, Note_on_c, 0, 64, 88
4, 70691, Note_off_c, 0, 64, 0
4, 70691, Note_on_c, 0, 66, 88
4, 70713, Note_off_c, 0, 66, 0
4, 70714, Note_on_c, 0, 64, 88
4, 70732, Note_off_c, 0, 64, 0
4, 70733, Note_on_c, 0, 66, 88
4, 70751, Note_on_c, 0, 64, 88
4, 70751, Note_off_c, 0, 66, 0
4, 70769, Note_off_c, 0, 64, 0
4, 70770, Note_on_c, 0, 66, 88
4, 70788, Note_off_c, 0, 66, 0
4, 70789, Note_on_c, 0, 64, 88
4, 70807, Note_off_c, 0, 64, 0
4, 70808, Note_on_c, 0, 66, 88
4, 70826, Note_on_c, 0, 64, 88
4, 70826, Note_off_c, 0, 66, 0
4, 70844, Note_off_c, 0, 64, 0
4, 70845, Note_on_c, 0, 66, 88
4, 70863, Note_off_c, 0, 66, 0
4, 70864, Note_on_c, 0, 64, 88
4, 70882, Note_off_c, 0, 64, 0
4, 70883, Note_on_c, 0, 66, 88
4, 70901, Note_on_c, 0, 64, 88
4, 70901, Note_off_c, 0, 66, 0
4, 70919, Note_off_c, 0, 64, 0
4, 70920, Note_on_c, 0, 66, 88
4, 70938, Note_off_c, 0, 66, 0
4, 70939, Note_on_c, 0, 64, 88
4, 70961, Note_off_c, 0, 64, 0
4, 70961, Note_on_c, 0, 66, 88
4, 70983, Note_off_c, 0, 66, 0
4, 70984, Note_on_c, 0, 64, 88
4, 71006, Note_off_c, 0, 64, 0
4, 71006, Note_on_c, 0, 66, 88
4, 71028, Note_off_c, 0, 66, 0
4, 71029, Note_on_c, 0, 64, 88
4, 71051, Note_off_c, 0, 64, 0
4, 71051, Note_on_c, 0, 66, 88
4, 71073, Note_off_c, 0, 66, 0
4, 71074, Note_on_c, 0, 64, 88
4, 71092, Note_off_c, 0, 64, 0
4, 71093, Note_on_c, 0, 66, 88
4, 71111, Note_on_c, 0, 64, 88
4, 71111, Note_off_c, 0, 66, 0
4, 71129, Note_off_c, 0, 64, 0
4, 71130, Note_on_c, 0, 66, 88
4, 71148, Note_off_c, 0, 66, 0
4, 71149, Note_on_c, 0, 64, 88
4, 71167, Note_off_c, 0, 64, 0
4, 71168, Note_on_c, 0, 66, 88
4, 71186, Note_on_c, 0, 64, 88
4, 71186, Note_off_c, 0, 66, 0
4, 71204, Note_off_c, 0, 64, 0
4, 71205, Note_on_c, 0, 66, 88
4, 71223, Note_off_c, 0, 66, 0
4, 71224, Note_on_c, 0, 64, 88
4, 71242, Note_off_c, 0, 64, 0
4, 71243, Note_on_c, 0, 66, 88
4, 71261, Note_on_c, 0, 64, 88
4, 71261, Note_off_c, 0, 66, 0
4, 71279, Note_off_c, 0, 64, 0
4, 71280, Note_on_c, 0, 66, 88
4, 71298, Note_off_c, 0, 66, 0
4, 71299, Note_on_c, 0, 64, 88
4, 71321, Note_off_c, 0, 64, 0
4, 71321, Note_on_c, 0, 66, 88
4, 71343, Note_off_c, 0, 66, 0
4, 71344, Note_on_c, 0, 64, 88
4, 71366, Note_off_c, 0, 64, 0
4, 71366, Note_on_c, 0, 66, 88
4, 71388, Note_off_c, 0, 66, 0
4, 71389, Note_on_c, 0, 64, 88
4, 71411, Note_off_c, 0, 64, 0
4, 71411, Note_on_c, 0, 66, 88
4, 71433, Note_off_c, 0, 66, 0
4, 71434, Note_on_c, 0, 64, 88
4, 71452, Note_off_c, 0, 64, 0
4, 71453, Note_on_c, 0, 66, 88
4, 71471, Note_on_c, 0, 64, 88
4, 71471, Note_off_c, 0, 66, 0
4, 71489, Note_off_c, 0, 64, 0
4, 71490, Note_on_c, 0, 66, 88
4, 71508, Note_off_c, 0, 66, 0
4, 71509, Note_on_c, 0, 64, 88
4, 71527, Note_off_c, 0, 64, 0
4, 71528, Note_on_c, 0, 66, 88
4, 71546, Note_on_c, 0, 64, 88
4, 71546, Note_off_c, 0, 66, 0
4, 71564, Note_off_c, 0, 64, 0
4, 71565, Note_on_c, 0, 66, 88
4, 71583, Note_off_c, 0, 66, 0
4, 71584, Note_on_c, 0, 64, 88
4, 71602, Note_off_c, 0, 64, 0
4, 71603, Note_on_c, 0, 66, 88
4, 71621, Note_on_c, 0, 64, 88
4, 71621, Note_off_c, 0, 66, 0
4, 71639, Note_off_c, 0, 64, 0
4, 71640, Note_on_c, 0, 64, 88
4, 71756, Note_off_c, 0, 64, 0
4, 71760, Note_on_c, 0, 74, 88
4, 72058, Note_off_c, 0, 74, 0
4, 72060, Note_on_c, 0, 76, 88
4, 72118, Note_off_c, 0, 76, 0
4, 72120, Note_on_c, 0, 74, 88
4, 72178, Note_off_c, 0, 74, 0
4, 72180, Note_on_c, 0, 72, 88
4, 72238, Note_off_c, 0, 72, 0
4, 72240, Note_on_c, 0, 71, 88
4, 72298, Note_off_c, 0, 71, 0
4, 72300, Note_on_c, 0, 74, 88
4, 72358, Note_off_c, 0, 74, 0
4, 72360, Note_on_c, 0, 72, 88
4, 72476, Note_off_c, 0, 72, 0
4, 72480, Note_on_c, 0, 76, 88
4, 72596, Note_off_c, 0, 76, 0
4, 72600, Note_on_c, 0, 81, 88
4, 72778, Note_off_c, 0, 81, 0
4, 72780, Note_on_c, 0, 83, 88
4, 72838, Note_off_c, 0, 83, 0
4, 72840, Note_on_c, 0, 81, 88
4, 72898, Note_off_c, 0, 81, 0
4, 72900, Note_on_c, 0, 79, 88
4, 72958, Note_off_c, 0, 79, 0
4, 72960, Note_on_c, 0, 78, 88
4, 73018, Note_off_c, 0, 78, 0
4, 73020, Note_on_c, 0, 81, 88
4, 73078, Note_off_c, 0, 81, 0
4, 73080, Note_on_c, 0, 75, 88
4, 73196, Note_off_c, 0, 75, 0
4, 73200, Note_on_c, 0, 84, 88
4, 73498, Note_off_c, 0, 84, 0
4, 73500, Note_on_c, 0, 83, 88
4, 73558, Note_off_c, 0, 83, 0
4, 73560, Note_on_c, 0, 81, 88
4, 73618, Note_off_c, 0, 81, 0
4, 73620, Note_on_c, 0, 79, 88
4, 73678, Note_off_c, 0, 79, 0
4, 73680, Note_on_c, 0, 78, 88
4, 73738, Note_off_c, 0, 78, 0
4, 73740, Note_on_c, 0, 81, 88
4, 73798, Note_off_c, 0, 81, 0
4, 73800, Note_on_c, 0, 79, 88
4, 74218, Note_off_c, 0, 79, 0
4, 74220, Note_on_c, 0, 78, 88
4, 74278, Note_off_c, 0, 78, 0
4, 74280, Note_on_c, 0, 76, 88
4, 74338, Note_off_c, 0, 76, 0
4, 74340, Note_on_c, 0, 74, 88
4, 74398, Note_off_c, 0, 74, 0
4, 74400, Note_on_c, 0, 73, 88
4, 74458, Note_off_c, 0, 73, 0
4, 74460, Note_on_c, 0, 76, 88
4, 74518, Note_off_c, 0, 76, 0
4, 74520, Note_on_c, 0, 70, 88
4, 74578, Note_off_c, 0, 70, 0
4, 74580, Note_on_c, 0, 79, 88
4, 74638, Note_off_c, 0, 79, 0
4, 74640, Note_on_c, 0, 78, 88
4, 74698, Note_off_c, 0, 78, 0
4, 74700, Note_on_c, 0, 76, 88
4, 74758, Note_off_c, 0, 76, 0
4, 74760, Note_on_c, 0, 75, 88
4, 74818, Note_off_c, 0, 75, 0
4, 74820, Note_on_c, 0, 78, 88
4, 74878, Note_off_c, 0, 78, 0
4, 74880, Note_on_c, 0, 69, 88
4, 74938, Note_off_c, 0, 69, 0
4, 74940, Note_on_c, 0, 72, 88
4, 74998, Note_off_c, 0, 72, 0
4, 75000, Note_on_c, 0, 71, 88
4, 75058, Note_off_c, 0, 71, 0
4, 75060, Note_on_c, 0, 69, 88
4, 75118, Note_off_c, 0, 69, 0
4, 75120, Note_on_c, 0, 67, 88
4, 75178, Note_off_c, 0, 67, 0
4, 75180, Note_on_c, 0, 71, 88
4, 75238, Note_off_c, 0, 71, 0
4, 75240, Note_on_c, 0, 64, 88
4, 75356, Note_off_c, 0, 64, 0
4, 75360, Note_on_c, 0, 66, 88
4, 75476, Note_off_c, 0, 66, 0
4, 75480, Note_on_c, 0, 63, 88
4, 75498, Note_off_c, 0, 63, 0
4, 75499, Note_on_c, 0, 64, 88
4, 75521, Note_on_c, 0, 63, 88
4, 75521, Note_off_c, 0, 64, 0
4, 75543, Note_off_c, 0, 63, 0
4, 75544, Note_on_c, 0, 61, 88
4, 75562, Note_off_c, 0, 61, 0
4, 75563, Note_on_c, 0, 63, 88
4, 75599, Note_off_c, 0, 63, 0
4, 75600, Note_on_c, 0, 64, 88
4, 75658, Note_off_c, 0, 64, 0
4, 75660, Note_on_c, 0, 68, 88
4, 75718, Note_off_c, 0, 68, 0
4, 75720, Note_on_c, 0, 69, 88
4, 75778, Note_off_c, 0, 69, 0
4, 75780, Note_on_c, 0, 71, 88
4, 75838, Note_off_c, 0, 71, 0
4, 75840, Note_on_c, 0, 72, 88
4, 75898, Note_off_c, 0, 72, 0
4, 75900, Note_on_c, 0, 69, 88
4, 75958, Note_off_c, 0, 69, 0
4, 75960, Note_on_c, 0, 71, 88
4, 76018, Note_off_c, 0, 71, 0
4, 76020, Note_on_c, 0, 69, 88
4, 76078, Note_off_c, 0, 69, 0
4, 76080, Note_on_c, 0, 68, 88
4, 76138, Note_off_c, 0, 68, 0
4, 76140, Note_on_c, 0, 66, 88
4, 76198, Note_off_c, 0, 66, 0
4, 76200, Note_on_c, 0, 64, 88
4, 76258, Note_off_c, 0, 64, 0
4, 76260, Note_on_c, 0, 74, 88
4, 76318, Note_off_c, 0, 74, 0
4, 76320, Note_on_c, 0, 73, 88
4, 76378, Note_off_c, 0, 73, 0
4, 76380, Note_on_c, 0, 75, 88
4, 76438, Note_off_c, 0, 75, 0
4, 76440, Note_on_c, 0, 76, 88
4, 76498, Note_off_c, 0, 76, 0
4, 76500, Note_on_c, 0, 78, 88
4, 76558, Note_off_c, 0, 78, 0
4, 76560, Note_on_c, 0, 79, 88
4, 76618, Note_off_c, 0, 79, 0
4, 76620, Note_on_c, 0, 76, 88
4, 76678, Note_off_c, 0, 76, 0
4, 76680, Note_on_c, 0, 78, 88
4, 76738, Note_off_c, 0, 78, 0
4, 76740, Note_on_c, 0, 76, 88
4, 76798, Note_off_c, 0, 76, 0
4, 76800, Note_on_c, 0, 75, 88
4, 76858, Note_off_c, 0, 75, 0
4, 76860, Note_on_c, 0, 73, 88
4, 76918, Note_off_c, 0, 73, 0
4, 76920, Note_on_c, 0, 71, 88
4, 76978, Note_off_c, 0, 71, 0
4, 76980, Note_on_c, 0, 69, 88
4, 77038, Note_off_c, 0, 69, 0
4, 77040, Note_on_c, 0, 67, 88
4, 77156, Note_off_c, 0, 67, 0
4, 77160, Note_on_c, 0, 69, 88
4, 77276, Note_off_c, 0, 69, 0
4, 77280, Note_on_c, 0, 66, 88
4, 77298, Note_off_c, 0, 66, 0
4, 77299, Note_on_c, 0, 67, 88
4, 77321, Note_on_c, 0, 66, 88
4, 77321, Note_off_c, 0, 67, 0
4, 77343, Note_off_c, 0, 66, 0
4, 77344, Note_on_c, 0, 64, 88
4, 77362, Note_off_c, 0, 64, 0
4, 77363, Note_on_c, 0, 66, 88
4, 77399, Note_off_c, 0, 66, 0
4, 77400, Note_on_c, 0, 64, 88
4, 77753, Note_off_c, 0, 64, 0
4, 77753, End_track
5, 0, Start_track
5, 0, Title_t, "Track 2"
5, 0, Program_c, 1, 6
5, 0, Note_on_c, 1, 52, 88
5, 116, Note_off_c, 1, 52, 0
5, 120, Note_on_c, 1, 40, 88
5, 236, Note_off_c, 1, 40, 0
5, 780, Note_on_c, 1, 55, 88
5, 838, Note_off_c, 1, 55, 0
5, 840, Note_on_c, 1, 57, 88
5, 898, Note_off_c, 1, 57, 0
5, 900, Note_on_c, 1, 59, 88
5, 958, Note_off_c, 1, 59, 0
5, 960, Note_on_c, 1, 60, 88
5, 1018, Note_off_c, 1, 60, 0
5, 1020, Note_on_c, 1, 57, 88
5, 1078, Note_off_c, 1, 57, 0
5, 1080, Note_on_c, 1, 59, 88
5, 1138, Note_off_c, 1, 59, 0
5, 1140, Note_on_c, 1, 55, 88
5, 1198, Note_off_c, 1, 55, 0
5, 1200, Note_on_c, 1, 54, 88
5, 1258, Note_off_c, 1, 54, 0
5, 1260, Note_on_c, 1, 52, 88
5, 1318, Note_off_c, 1, 52, 0
5, 1320, Note_on_c, 1, 51, 88
5, 1378, Note_off_c, 1, 51, 0
5, 1380, Note_on_c, 1, 57, 88
5, 1438, Note_off_c, 1, 57, 0
5, 1440, Note_on_c, 1, 55, 88
5, 1498, Note_off_c, 1, 55, 0
5, 1500, Note_on_c, 1, 52, 88
5, 1558, Note_off_c, 1, 52, 0
5, 1560, Note_on_c, 1, 54, 88
5, 1618, Note_off_c, 1, 54, 0
5, 1620, Note_on_c, 1, 55, 88
5, 1678, Note_off_c, 1, 55, 0
5, 1680, Note_on_c, 1, 57, 88
5, 1738, Note_off_c, 1, 57, 0
5, 1740, Note_on_c, 1, 54, 88
5, 1798, Note_off_c, 1, 54, 0
5, 1800, Note_on_c, 1, 55, 88
5, 1916, Note_off_c, 1, 55, 0
5, 1920, Note_on_c, 1, 57, 88
5, 2036, Note_off_c, 1, 57, 0
5, 2040, Note_on_c, 1, 59, 88
5, 2156, Note_off_c, 1, 59, 0
5, 2160, Note_on_c, 1, 52, 88
5, 2276, Note_off_c, 1, 52, 0
5, 2280, Note_on_c, 1, 50, 88
5, 2396, Note_off_c, 1, 50, 0
5, 2400, Note_on_c, 1, 48, 88
5, 2516, Note_off_c, 1, 48, 0
5, 2520, Note_on_c, 1, 47, 88
5, 2636, Note_off_c, 1, 47, 0
5, 2640, Note_on_c, 1, 48, 88
5, 2756, Note_off_c, 1, 48, 0
5, 2760, Note_on_c, 1, 50, 88
5, 2876, Note_off_c, 1, 50, 0
5, 2880, Note_on_c, 1, 43, 88
5, 2996, Note_off_c, 1, 43, 0
5, 3000, Note_on_c, 1, 42, 88
5, 3116, Note_off_c, 1, 42, 0
5, 3120, Note_on_c, 1, 40, 88
5, 3236, Note_off_c, 1, 40, 0
5, 3240, Note_on_c, 1, 38, 88
5, 3356, Note_off_c, 1, 38, 0
5, 3360, Note_on_c, 1, 40, 88
5, 3476, Note_off_c, 1, 40, 0
5, 3480, Note_on_c, 1, 42, 88
5, 3596, Note_off_c, 1, 42, 0
5, 3600, Note_on_c, 1, 47, 88
5, 3658, Note_off_c, 1, 47, 0
5, 3660, Note_on_c, 1, 50, 88
5, 3718, Note_off_c, 1, 50, 0
5, 3720, Note_on_c, 1, 52, 88
5, 3778, Note_off_c, 1, 52, 0
5, 3780, Note_on_c, 1, 54, 88
5, 3838, Note_off_c, 1, 54, 0
5, 3840, Note_on_c, 1, 55, 88
5, 3898, Note_off_c, 1, 55, 0
5, 3900, Note_on_c, 1, 52, 88
5, 3958, Note_off_c, 1, 52, 0
5, 3960, Note_on_c, 1, 54, 88
5, 4018, Note_off_c, 1, 54, 0
5, 4020, Note_on_c, 1, 50, 88
5, 4078, Note_off_c, 1, 50, 0
5, 4080, Note_on_c, 1, 49, 88
5, 4138, Note_off_c, 1, 49, 0
5, 4140, Note_on_c, 1, 47, 88
5, 4198, Note_off_c, 1, 47, 0
5, 4200, Note_on_c, 1, 46, 88
5, 4258, Note_off_c, 1, 46, 0
5, 4260, Note_on_c, 1, 52, 88
5, 4318, Note_off_c, 1, 52, 0
5, 4320, Note_on_c, 1, 50, 88
5, 4378, Note_off_c, 1, 50, 0
5, 4380, Note_on_c, 1, 47, 88
5, 4438, Note_off_c, 1, 47, 0
5, 4440, Note_on_c, 1, 49, 88
5, 4498, Note_off_c, 1, 49, 0
5, 4500, Note_on_c, 1, 50, 88
5, 4558, Note_off_c, 1, 50, 0
5, 4560, Note_on_c, 1, 52, 88
5, 4618, Note_off_c, 1, 52, 0
5, 4620, Note_on_c, 1, 49, 88
5, 4678, Note_off_c, 1, 49, 0
5, 4680, Note_on_c, 1, 50, 88
5, 4796, Note_off_c, 1, 50, 0
5, 4800, Note_on_c, 1, 52, 88
5, 4916, Note_off_c, 1, 52, 0
5, 4920, Note_on_c, 1, 54, 88
5, 5036, Note_off_c, 1, 54, 0
5, 5040, Note_on_c, 1, 47, 88
5, 5156, Note_off_c, 1, 47, 0
5, 5160, Note_on_c, 1, 59, 88
5, 5276, Note_off_c, 1, 59, 0
5, 5280, Note_on_c, 1, 58, 88
5, 5396, Note_off_c, 1, 58, 0
5, 5400, Note_on_c, 1, 59, 88
5, 5516, Note_off_c, 1, 59, 0
5, 5520, Note_on_c, 1, 54, 88
5, 5636, Note_off_c, 1, 54, 0
5, 5640, Note_on_c, 1, 50, 88
5, 5756, Note_off_c, 1, 50, 0
5, 5760, Note_on_c, 1, 55, 88
5, 5818, Note_off_c, 1, 55, 0
5, 5820, Note_on_c, 1, 59, 88
5, 5878, Note_off_c, 1, 59, 0
5, 5880, Note_on_c, 1, 60, 88
5, 5938, Note_off_c, 1, 60, 0
5, 5940, Note_on_c, 1, 62, 88
5, 5998, Note_off_c, 1, 62, 0
5, 6000, Note_on_c, 1, 64, 88
5, 6058, Note_off_c, 1, 64, 0
5, 6060, Note_on_c, 1, 60, 88
5, 6118, Note_off_c, 1, 60, 0
5, 6120, Note_on_c, 1, 62, 88
5, 6178, Note_off_c, 1, 62, 0
5, 6180, Note_on_c, 1, 59, 88
5, 6238, Note_off_c, 1, 59, 0
5, 6240, Note_on_c, 1, 57, 88
5, 6298, Note_off_c, 1, 57, 0
5, 6300, Note_on_c, 1, 55, 88
5, 6358, Note_off_c, 1, 55, 0
5, 6360, Note_on_c, 1, 54, 88
5, 6418, Note_off_c, 1, 54, 0
5, 6420, Note_on_c, 1, 60, 88
5, 6478, Note_off_c, 1, 60, 0
5, 6480, Note_on_c, 1, 59, 88
5, 6538, Note_off_c, 1, 59, 0
5, 6540, Note_on_c, 1, 55, 88
5, 6598, Note_off_c, 1, 55, 0
5, 6600, Note_on_c, 1, 57, 88
5, 6658, Note_off_c, 1, 57, 0
5, 6660, Note_on_c, 1, 59, 88
5, 6718, Note_off_c, 1, 59, 0
5, 6720, Note_on_c, 1, 60, 88
5, 6778, Note_off_c, 1, 60, 0
5, 6780, Note_on_c, 1, 57, 88
5, 6838, Note_off_c, 1, 57, 0
5, 6840, Note_on_c, 1, 59, 88
5, 6898, Note_off_c, 1, 59, 0
5, 6900, Note_on_c, 1, 55, 88
5, 6958, Note_off_c, 1, 55, 0
5, 6960, Note_on_c, 1, 54, 88
5, 7018, Note_off_c, 1, 54, 0
5, 7020, Note_on_c, 1, 52, 88
5, 7078, Note_off_c, 1, 52, 0
5, 7080, Note_on_c, 1, 51, 88
5, 7138, Note_off_c, 1, 51, 0
5, 7140, Note_on_c, 1, 57, 88
5, 7198, Note_off_c, 1, 57, 0
5, 7200, Note_on_c, 1, 55, 88
5, 7258, Note_off_c, 1, 55, 0
5, 7260, Note_on_c, 1, 52, 88
5, 7318, Note_off_c, 1, 52, 0
5, 7320, Note_on_c, 1, 54, 88
5, 7378, Note_off_c, 1, 54, 0
5, 7380, Note_on_c, 1, 55, 88
5, 7438, Note_off_c, 1, 55, 0
5, 7440, Note_on_c, 1, 57, 88
5, 7498, Note_off_c, 1, 57, 0
5, 7500, Note_on_c, 1, 54, 88
5, 7558, Note_off_c, 1, 54, 0
5, 7560, Note_on_c, 1, 55, 88
5, 7618, Note_off_c, 1, 55, 0
5, 7620, Note_on_c, 1, 52, 88
5, 7678, Note_off_c, 1, 52, 0
5, 7680, Note_on_c, 1, 50, 88
5, 7738, Note_off_c, 1, 50, 0
5, 7740, Note_on_c, 1, 48, 88
5, 7798, Note_off_c, 1, 48, 0
5, 7800, Note_on_c, 1, 47, 88
5, 7858, Note_off_c, 1, 47, 0
5, 7860, Note_on_c, 1, 53, 88
5, 7918, Note_off_c, 1, 53, 0
5, 7920, Note_on_c, 1, 52, 88
5, 7978, Note_off_c, 1, 52, 0
5, 7980, Note_on_c, 1, 43, 88
5, 8038, Note_off_c, 1, 43, 0
5, 8040, Note_on_c, 1, 45, 88
5, 8098, Note_off_c, 1, 45, 0
5, 8100, Note_on_c, 1, 47, 88
5, 8158, Note_off_c, 1, 47, 0
5, 8160, Note_on_c, 1, 48, 88
5, 8338, Note_off_c, 1, 48, 0
5, 8340, Note_on_c, 1, 47, 88
5, 8398, Note_off_c, 1, 47, 0
5, 8400, Note_on_c, 1, 49, 88
5, 8458, Note_off_c, 1, 49, 0
5, 8460, Note_on_c, 1, 50, 88
5, 8518, Note_off_c, 1, 50, 0
5, 8520, Note_on_c, 1, 52, 88
5, 8578, Note_off_c, 1, 52, 0
5, 8580, Note_on_c, 1, 49, 88
5, 8638, Note_off_c, 1, 49, 0
5, 8640, Note_on_c, 1, 50, 88
5, 8698, Note_off_c, 1, 50, 0
5, 8700, Note_on_c, 1, 45, 88
5, 8758, Note_off_c, 1, 45, 0
5, 8760, Note_on_c, 1, 47, 88
5, 8818, Note_off_c, 1, 47, 0
5, 8820, Note_on_c, 1, 48, 88
5, 8878, Note_off_c, 1, 48, 0
5, 8880, Note_on_c, 1, 50, 88
5, 9058, Note_off_c, 1, 50, 0
5, 9060, Note_on_c, 1, 49, 88
5, 9118, Note_off_c, 1, 49, 0
5, 9120, Note_on_c, 1, 51, 88
5, 9178, Note_off_c, 1, 51, 0
5, 9180, Note_on_c, 1, 52, 88
5, 9238, Note_off_c, 1, 52, 0
5, 9240, Note_on_c, 1, 54, 88
5, 9298, Note_off_c, 1, 54, 0
5, 9300, Note_on_c, 1, 51, 88
5, 9358, Note_off_c, 1, 51, 0
5, 9360, Note_on_c, 1, 52, 88
5, 9418, Note_off_c, 1, 52, 0
5, 9420, Note_on_c, 1, 47, 88
5, 9478, Note_off_c, 1, 47, 0
5, 9480, Note_on_c, 1, 49, 88
5, 9538, Note_off_c, 1, 49, 0
5, 9540, Note_on_c, 1, 50, 88
5, 9598, Note_off_c, 1, 50, 0
5, 9600, Note_on_c, 1, 52, 88
5, 9778, Note_off_c, 1, 52, 0
5, 9780, Note_on_c, 1, 50, 88
5, 9838, Note_off_c, 1, 50, 0
5, 9840, Note_on_c, 1, 52, 88
5, 9898, Note_off_c, 1, 52, 0
5, 9900, Note_on_c, 1, 54, 88
5, 9958, Note_off_c, 1, 54, 0
5, 9960, Note_on_c, 1, 55, 88
5, 10018, Note_off_c, 1, 55, 0
5, 10020, Note_on_c, 1, 52, 88
5, 10078, Note_off_c, 1, 52, 0
5, 10080, Note_on_c, 1, 55, 88
5, 10098, Note_off_c, 1, 55, 0
5, 10099, Note_on_c, 1, 54, 88
5, 10121, Note_off_c, 1, 54, 0
5, 10121, Note_on_c, 1, 55, 88
5, 10143, Note_off_c, 1, 55, 0
5, 10144, Note_on_c, 1, 54, 88
5, 10166, Note_off_c, 1, 54, 0
5, 10166, Note_on_c, 1, 55, 88
5, 10188, Note_off_c, 1, 55, 0
5, 10189, Note_on_c, 1, 54, 88
5, 10211, Note_off_c, 1, 54, 0
5, 10211, Note_on_c, 1, 55, 88
5, 10233, Note_off_c, 1, 55, 0
5, 10234, Note_on_c, 1, 54, 88
5, 10252, Note_off_c, 1, 54, 0
5, 10253, Note_on_c, 1, 55, 88
5, 10271, Note_on_c, 1, 54, 88
5, 10271, Note_off_c, 1, 55, 0
5, 10289, Note_off_c, 1, 54, 0
5, 10290, Note_on_c, 1, 55, 88
5, 10308, Note_off_c, 1, 55, 0
5, 10309, Note_on_c, 1, 54, 88
5, 10327, Note_off_c, 1, 54, 0
5, 10328, Note_on_c, 1, 55, 88
5, 10346, Note_on_c, 1, 54, 88
5, 10346, Note_off_c, 1, 55, 0
5, 10364, Note_off_c, 1, 54, 0
5, 10365, Note_on_c, 1, 55, 88
5, 10383, Note_off_c, 1, 55, 0
5, 10384, Note_on_c, 1, 54, 88
5, 10402, Note_off_c, 1, 54, 0
5, 10403, Note_on_c, 1, 55, 88
5, 10421, Note_on_c, 1, 54, 88
5, 10421, Note_off_c, 1, 55, 0
5, 10439, Note_off_c, 1, 54, 0
5, 10440, Note_on_c, 1, 55, 88
5, 10458, Note_off_c, 1, 55, 0
5, 10459, Note_on_c, 1, 54, 88
5, 10481, Note_off_c, 1, 54, 0
5, 10481, Note_on_c, 1, 55, 88
5, 10503, Note_off_c, 1, 55, 0
5, 10504, Note_on_c, 1, 54, 88
5, 10526, Note_off_c, 1, 54, 0
5, 10526, Note_on_c, 1, 55, 88
5, 10548, Note_off_c, 1, 55, 0
5, 10549, Note_on_c, 1, 54, 88
5, 10571, Note_off_c, 1, 54, 0
5, 10571, Note_on_c, 1, 55, 88
5, 10593, Note_off_c, 1, 55, 0
5, 10594, Note_on_c, 1, 54, 88
5, 10612, Note_off_c, 1, 54, 0
5, 10613, Note_on_c, 1, 55, 88
5, 10631, Note_on_c, 1, 54, 88
5, 10631, Note_off_c, 1, 55, 0
5, 10649, Note_off_c, 1, 54, 0
5, 10650, Note_on_c, 1, 55, 88
5, 10668, Note_off_c, 1, 55, 0
5, 10669, Note_on_c, 1, 54, 88
5, 10687, Note_off_c, 1, 54, 0
5, 10688, Note_on_c, 1, 55, 88
5, 10706, Note_on_c, 1, 54, 88
5, 10706, Note_off_c, 1, 55, 0
5, 10724, Note_off_c, 1, 54, 0
5, 10725, Note_on_c, 1, 55, 88
5, 10743, Note_off_c, 1, 55, 0
5, 10744, Note_on_c, 1, 54, 88
5, 10762, Note_off_c, 1, 54, 0
5, 10763, Note_on_c, 1, 55, 88
5, 10781, Note_on_c, 1, 54, 88
5, 10781, Note_off_c, 1, 55, 0
5, 10799, Note_off_c, 1, 54, 0
5, 10800, Note_on_c, 1, 55, 88
5, 10818, Note_off_c, 1, 55, 0
5, 10819, Note_on_c, 1, 54, 88
5, 10841, Note_off_c, 1, 54, 0
5, 10841, Note_on_c, 1, 55, 88
5, 10863, Note_off_c, 1, 55, 0
5, 10864, Note_on_c, 1, 54, 88
5, 10886, Note_off_c, 1, 54, 0
5, 10886, Note_on_c, 1, 55, 88
5, 10908, Note_off_c, 1, 55, 0
5, 10909, Note_on_c, 1, 54, 88
5, 10931, Note_off_c, 1, 54, 0
5, 10931, Note_on_c, 1, 55, 88
5, 10953, Note_off_c, 1, 55, 0
5, 10954, Note_on_c, 1, 54, 88
5, 10972, Note_off_c, 1, 54, 0
5, 10973, Note_on_c, 1, 55, 88
5, 10991, Note_on_c, 1, 54, 88
5, 10991, Note_off_c, 1, 55, 0
5, 11009, Note_off_c, 1, 54, 0
5, 11010, Note_on_c, 1, 55, 88
5, 11028, Note_off_c, 1, 55, 0
5, 11029, Note_on_c, 1, 54, 88
5, 11047, Note_off_c, 1, 54, 0
5, 11048, Note_on_c, 1, 55, 88
5, 11066, Note_on_c, 1, 54, 88
5, 11066, Note_off_c, 1, 55, 0
5, 11084, Note_off_c, 1, 54, 0
5, 11085, Note_on_c, 1, 55, 88
5, 11103, Note_off_c, 1, 55, 0
5, 11104, Note_on_c, 1, 54, 88
5, 11122, Note_off_c, 1, 54, 0
5, 11123, Note_on_c, 1, 55, 88
5, 11141, Note_on_c, 1, 54, 88
5, 11141, Note_off_c, 1, 55, 0
5, 11159, Note_off_c, 1, 54, 0
5, 11160, Note_on_c, 1, 55, 88
5, 11178, Note_off_c, 1, 55, 0
5, 11179, Note_on_c, 1, 54, 88
5, 11201, Note_off_c, 1, 54, 0
5, 11201, Note_on_c, 1, 55, 88
5, 11223, Note_off_c, 1, 55, 0
5, 11224, Note_on_c, 1, 54, 88
5, 11246, Note_off_c, 1, 54, 0
5, 11246, Note_on_c, 1, 55, 88
5, 11268, Note_off_c, 1, 55, 0
5, 11269, Note_on_c, 1, 54, 88
5, 11291, Note_off_c, 1, 54, 0
5, 11291, Note_on_c, 1, 55, 88
5, 11313, Note_off_c, 1, 55, 0
5, 11314, Note_on_c, 1, 54, 88
5, 11336, Note_off_c, 1, 54, 0
5, 11336, Note_on_c, 1, 55, 88
5, 11358, Note_off_c, 1, 55, 0
5, 11359, Note_on_c, 1, 54, 88
5, 11381, Note_off_c, 1, 54, 0
5, 11381, Note_on_c, 1, 55, 88
5, 11399, Note_off_c, 1, 55, 0
5, 11400, Note_on_c, 1, 54, 88
5, 11516, Note_off_c, 1, 54, 0
5, 11580, Note_on_c, 1, 51, 88
5, 11638, Note_off_c, 1, 51, 0
5, 11640, Note_on_c, 1, 52, 88
5, 11698, Note_off_c, 1, 52, 0
5, 11700, Note_on_c, 1, 54, 88
5, 11758, Note_off_c, 1, 54, 0
5, 11760, Note_on_c, 1, 55, 88
5, 11818, Note_off_c, 1, 55, 0
5, 11820, Note_on_c, 1, 52, 88
5, 11878, Note_off_c, 1, 52, 0
5, 11880, Note_on_c, 1, 54, 88
5, 11938, Note_off_c, 1, 54, 0
5, 11940, Note_on_c, 1, 52, 88
5, 11998, Note_off_c, 1, 52, 0
5, 12000, Note_on_c, 1, 51, 88
5, 12058, Note_off_c, 1, 51, 0
5, 12060, Note_on_c, 1, 49, 88
5, 12118, Note_off_c, 1, 49, 0
5, 12120, Note_on_c, 1, 47, 88
5, 12178, Note_off_c, 1, 47, 0
5, 12180, Note_on_c, 1, 45, 88
5, 12238, Note_off_c, 1, 45, 0
5, 12240, Note_on_c, 1, 43, 88
5, 12298, Note_off_c, 1, 43, 0
5, 12300, Note_on_c, 1, 47, 88
5, 12358, Note_off_c, 1, 47, 0
5, 12360, Note_on_c, 1, 49, 88
5, 12418, Note_off_c, 1, 49, 0
5, 12420, Note_on_c, 1, 51, 88
5, 12478, Note_off_c, 1, 51, 0
5, 12480, Note_on_c, 1, 52, 88
5, 12538, Note_off_c, 1, 52, 0
5, 12540, Note_on_c, 1, 49, 88
5, 12598, Note_off_c, 1, 49, 0
5, 12600, Note_on_c, 1, 51, 88
5, 12658, Note_off_c, 1, 51, 0
5, 12660, Note_on_c, 1, 49, 88
5, 12718, Note_off_c, 1, 49, 0
5, 12720, Note_on_c, 1, 47, 88
5, 12778, Note_off_c, 1, 47, 0
5, 12780, Note_on_c, 1, 45, 88
5, 12838, Note_off_c, 1, 45, 0
5, 12840, Note_on_c, 1, 43, 88
5, 12898, Note_off_c, 1, 43, 0
5, 12900, Note_on_c, 1, 42, 88
5, 12958, Note_off_c, 1, 42, 0
5, 12960, Note_on_c, 1, 40, 88
5, 13018, Note_off_c, 1, 40, 0
5, 13020, Note_on_c, 1, 50, 88
5, 13078, Note_off_c, 1, 50, 0
5, 13080, Note_on_c, 1, 49, 88
5, 13138, Note_off_c, 1, 49, 0
5, 13140, Note_on_c, 1, 47, 88
5, 13198, Note_off_c, 1, 47, 0
5, 13200, Note_on_c, 1, 46, 88
5, 13258, Note_off_c, 1, 46, 0
5, 13260, Note_on_c, 1, 49, 88
5, 13318, Note_off_c, 1, 49, 0
5, 13320, Note_on_c, 1, 42, 88
5, 13436, Note_off_c, 1, 42, 0
5, 13440, Note_on_c, 1, 55, 88
5, 13738, Note_off_c, 1, 55, 0
5, 13740, Note_on_c, 1, 54, 88
5, 13798, Note_off_c, 1, 54, 0
5, 13800, Note_on_c, 1, 52, 88
5, 13858, Note_off_c, 1, 52, 0
5, 13860, Note_on_c, 1, 50, 88
5, 13918, Note_off_c, 1, 50, 0
5, 13920, Note_on_c, 1, 49, 88
5, 13978, Note_off_c, 1, 49, 0
5, 13980, Note_on_c, 1, 52, 88
5, 14038, Note_off_c, 1, 52, 0
5, 14040, Note_on_c, 1, 46, 88
5, 14156, Note_off_c, 1, 46, 0
5, 14160, Note_on_c, 1, 64, 88
5, 14458, Note_off_c, 1, 64, 0
5, 14460, Note_on_c, 1, 62, 88
5, 14518, Note_off_c, 1, 62, 0
5, 14520, Note_on_c, 1, 61, 88
5, 14578, Note_off_c, 1, 61, 0
5, 14580, Note_on_c, 1, 59, 88
5, 14638, Note_off_c, 1, 59, 0
5, 14640, Note_on_c, 1, 58, 88
5, 14698, Note_off_c, 1, 58, 0
5, 14700, Note_on_c, 1, 61, 88
5, 14758, Note_off_c, 1, 61, 0
5, 14760, Note_on_c, 1, 54, 88
5, 14876, Note_off_c, 1, 54, 0
5, 14880, Note_on_c, 1, 56, 88
5, 14996, Note_off_c, 1, 56, 0
5, 15000, Note_on_c, 1, 58, 88
5, 15116, Note_off_c, 1, 58, 0
5, 15120, Note_on_c, 1, 59, 88
5, 15178, Note_off_c, 1, 59, 0
5, 15180, Note_on_c, 1, 58, 88
5, 15238, Note_off_c, 1, 58, 0
5, 15240, Note_on_c, 1, 59, 88
5, 15298, Note_off_c, 1, 59, 0
5, 15300, Note_on_c, 1, 61, 88
5, 15358, Note_off_c, 1, 61, 0
5, 15360, Note_on_c, 1, 62, 88
5, 15418, Note_off_c, 1, 62, 0
5, 15420, Note_on_c, 1, 59, 88
5, 15478, Note_off_c, 1, 59, 0
5, 15480, Note_on_c, 1, 53, 88
5, 15538, Note_off_c, 1, 53, 0
5, 15540, Note_on_c, 1, 54, 88
5, 15598, Note_off_c, 1, 54, 0
5, 15600, Note_on_c, 1, 56, 88
5, 15658, Note_off_c, 1, 56, 0
5, 15660, Note_on_c, 1, 57, 88
5, 15718, Note_off_c, 1, 57, 0
5, 15720, Note_on_c, 1, 59, 88
5, 15778, Note_off_c, 1, 59, 0
5, 15780, Note_on_c, 1, 56, 88
5, 15838, Note_off_c, 1, 56, 0
5, 15840, Note_on_c, 1, 49, 88
5, 15956, Note_off_c, 1, 49, 0
5, 15960, Note_on_c, 1, 53, 88
5, 16076, Note_off_c, 1, 53, 0
5, 16080, Note_on_c, 1, 54, 88
5, 16196, Note_off_c, 1, 54, 0
5, 16200, Note_on_c, 1, 55, 88
5, 16316, Note_off_c, 1, 55, 0
5, 16320, Note_on_c, 1, 46, 88
5, 16436, Note_off_c, 1, 46, 0
5, 16440, Note_on_c, 1, 47, 88
5, 16556, Note_off_c, 1, 47, 0
5, 16560, Note_on_c, 1, 43, 88
5, 16676, Note_off_c, 1, 43, 0
5, 16680, Note_on_c, 1, 40, 88
5, 16796, Note_off_c, 1, 40, 0
5, 16800, Note_on_c, 1, 42, 88
5, 16916, Note_off_c, 1, 42, 0
5, 16920, Note_on_c, 1, 47, 88
5, 16978, Note_off_c, 1, 47, 0
5, 16980, Note_on_c, 1, 49, 88
5, 17038, Note_off_c, 1, 49, 0
5, 17040, Note_on_c, 1, 51, 88
5, 17098, Note_off_c, 1, 51, 0
5, 17100, Note_on_c, 1, 52, 88
5, 17158, Note_off_c, 1, 52, 0
5, 17160, Note_on_c, 1, 54, 88
5, 17218, Note_off_c, 1, 54, 0
5, 17220, Note_on_c, 1, 51, 88
5, 17278, Note_off_c, 1, 51, 0
5, 17280, Note_on_c, 1, 52, 88
5, 17396, Note_off_c, 1, 52, 0
5, 17400, Note_on_c, 1, 40, 88
5, 17516, Note_off_c, 1, 40, 0
5, 18060, Note_on_c, 1, 55, 88
5, 18118, Note_off_c, 1, 55, 0
5, 18120, Note_on_c, 1, 57, 88
5, 18178, Note_off_c, 1, 57, 0
5, 18180, Note_on_c, 1, 59, 88
5, 18238, Note_off_c, 1, 59, 0
5, 18240, Note_on_c, 1, 60, 88
5, 18298, Note_off_c, 1, 60, 0
5, 18300, Note_on_c, 1, 57, 88
5, 18358, Note_off_c, 1, 57, 0
5, 18360, Note_on_c, 1, 59, 88
5, 18418, Note_off_c, 1, 59, 0
5, 18420, Note_on_c, 1, 55, 88
5, 18478, Note_off_c, 1, 55, 0
5, 18480, Note_on_c, 1, 54, 88
5, 18538, Note_off_c, 1, 54, 0
5, 18540, Note_on_c, 1, 52, 88
5, 18598, Note_off_c, 1, 52, 0
5, 18600, Note_on_c, 1, 51, 88
5, 18658, Note_off_c, 1, 51, 0
5, 18660, Note_on_c, 1, 57, 88
5, 18718, Note_off_c, 1, 57, 0
5, 18720, Note_on_c, 1, 55, 88
5, 18778, Note_off_c, 1, 55, 0
5, 18780, Note_on_c, 1, 52, 88
5, 18838, Note_off_c, 1, 52, 0
5, 18840, Note_on_c, 1, 54, 88
5, 18898, Note_off_c, 1, 54, 0
5, 18900, Note_on_c, 1, 55, 88
5, 18958, Note_off_c, 1, 55, 0
5, 18960, Note_on_c, 1, 57, 88
5, 19018, Note_off_c, 1, 57, 0
5, 19020, Note_on_c, 1, 54, 88
5, 19078, Note_off_c, 1, 54, 0
5, 19080, Note_on_c, 1, 55, 88
5, 19196, Note_off_c, 1, 55, 0
5, 19200, Note_on_c, 1, 57, 88
5, 19316, Note_off_c, 1, 57, 0
5, 19320, Note_on_c, 1, 59, 88
5, 19436, Note_off_c, 1, 59, 0
5, 19440, Note_on_c, 1, 52, 88
5, 19556, Note_off_c, 1, 52, 0
5, 19560, Note_on_c, 1, 50, 88
5, 19676, Note_off_c, 1, 50, 0
5, 19680, Note_on_c, 1, 48, 88
5, 19796, Note_off_c, 1, 48, 0
5, 19800, Note_on_c, 1, 47, 88
5, 19916, Note_off_c, 1, 47, 0
5, 19920, Note_on_c, 1, 48, 88
5, 20036, Note_off_c, 1, 48, 0
5, 20040, Note_on_c, 1, 50, 88
5, 20156, Note_off_c, 1, 50, 0
5, 20160, Note_on_c, 1, 43, 88
5, 20276, Note_off_c, 1, 43, 0
5, 20280, Note_on_c, 1, 42, 88
5, 20396, Note_off_c, 1, 42, 0
5, 20400, Note_on_c, 1, 40, 88
5, 20516, Note_off_c, 1, 40, 0
5, 20520, Note_on_c, 1, 38, 88
5, 20636, Note_off_c, 1, 38, 0
5, 20640, Note_on_c, 1, 40, 88
5, 20756, Note_off_c, 1, 40, 0
5, 20760, Note_on_c, 1, 42, 88
5, 20876, Note_off_c, 1, 42, 0
5, 20880, Note_on_c, 1, 47, 88
5, 20938, Note_off_c, 1, 47, 0
5, 20940, Note_on_c, 1, 50, 88
5, 20998, Note_off_c, 1, 50, 0
5, 21000, Note_on_c, 1, 52, 88
5, 21058, Note_off_c, 1, 52, 0
5, 21060, Note_on_c, 1, 54, 88
5, 21118, Note_off_c, 1, 54, 0
5, 21120, Note_on_c, 1, 55, 88
5, 21178, Note_off_c, 1, 55, 0
5, 21180, Note_on_c, 1, 52, 88
5, 21238, Note_off_c, 1, 52, 0
5, 21240, Note_on_c, 1, 54, 88
5, 21298, Note_off_c, 1, 54, 0
5, 21300, Note_on_c, 1, 50, 88
5, 21358, Note_off_c, 1, 50, 0
5, 21360, Note_on_c, 1, 49, 88
5, 21418, Note_off_c, 1, 49, 0
5, 21420, Note_on_c, 1, 47, 88
5, 21478, Note_off_c, 1, 47, 0
5, 21480, Note_on_c, 1, 46, 88
5, 21538, Note_off_c, 1, 46, 0
5, 21540, Note_on_c, 1, 52, 88
5, 21598, Note_off_c, 1, 52, 0
5, 21600, Note_on_c, 1, 50, 88
5, 21658, Note_off_c, 1, 50, 0
5, 21660, Note_on_c, 1, 47, 88
5, 21718, Note_off_c, 1, 47, 0
5, 21720, Note_on_c, 1, 49, 88
5, 21778, Note_off_c, 1, 49, 0
5, 21780, Note_on_c, 1, 50, 88
5, 21838, Note_off_c, 1, 50, 0
5, 21840, Note_on_c, 1, 52, 88
5, 21898, Note_off_c, 1, 52, 0
5, 21900, Note_on_c, 1, 49, 88
5, 21958, Note_off_c, 1, 49, 0
5, 21960, Note_on_c, 1, 50, 88
5, 22076, Note_off_c, 1, 50, 0
5, 22080, Note_on_c, 1, 52, 88
5, 22196, Note_off_c, 1, 52, 0
5, 22200, Note_on_c, 1, 54, 88
5, 22316, Note_off_c, 1, 54, 0
5, 22320, Note_on_c, 1, 47, 88
5, 22436, Note_off_c, 1, 47, 0
5, 22440, Note_on_c, 1, 59, 88
5, 22556, Note_off_c, 1, 59, 0
5, 22560, Note_on_c, 1, 58, 88
5, 22676, Note_off_c, 1, 58, 0
5, 22680, Note_on_c, 1, 59, 88
5, 22796, Note_off_c, 1, 59, 0
5, 22800, Note_on_c, 1, 54, 88
5, 22916, Note_off_c, 1, 54, 0
5, 22920, Note_on_c, 1, 50, 88
5, 23036, Note_off_c, 1, 50, 0
5, 23040, Note_on_c, 1, 55, 88
5, 23098, Note_off_c, 1, 55, 0
5, 23100, Note_on_c, 1, 59, 88
5, 23158, Note_off_c, 1, 59, 0
5, 23160, Note_on_c, 1, 60, 88
5, 23218, Note_off_c, 1, 60, 0
5, 23220, Note_on_c, 1, 62, 88
5, 23278, Note_off_c, 1, 62, 0
5, 23280, Note_on_c, 1, 64, 88
5, 23338, Note_off_c, 1, 64, 0
5, 23340, Note_on_c, 1, 60, 88
5, 23398, Note_off_c, 1, 60, 0
5, 23400, Note_on_c, 1, 62, 88
5, 23458, Note_off_c, 1, 62, 0
5, 23460, Note_on_c, 1, 59, 88
5, 23518, Note_off_c, 1, 59, 0
5, 23520, Note_on_c, 1, 57, 88
5, 23578, Note_off_c, 1, 57, 0
5, 23580, Note_on_c, 1, 55, 88
5, 23638, Note_off_c, 1, 55, 0
5, 23640, Note_on_c, 1, 54, 88
5, 23698, Note_off_c, 1, 54, 0
5, 23700, Note_on_c, 1, 60, 88
5, 23758, Note_off_c, 1, 60, 0
5, 23760, Note_on_c, 1, 59, 88
5, 23818, Note_off_c, 1, 59, 0
5, 23820, Note_on_c, 1, 55, 88
5, 23878, Note_off_c, 1, 55, 0
5, 23880, Note_on_c, 1, 57, 88
5, 23938, Note_off_c, 1, 57, 0
5, 23940, Note_on_c, 1, 59, 88
5, 23998, Note_off_c, 1, 59, 0
5, 24000, Note_on_c, 1, 60, 88
5, 24058, Note_off_c, 1, 60, 0
5, 24060, Note_on_c, 1, 57, 88
5, 24118, Note_off_c, 1, 57, 0
5, 24120, Note_on_c, 1, 59, 88
5, 24178, Note_off_c, 1, 59, 0
5, 24180, Note_on_c, 1, 55, 88
5, 24238, Note_off_c, 1, 55, 0
5, 24240, Note_on_c, 1, 54, 88
5, 24298, Note_off_c, 1, 54, 0
5, 24300, Note_on_c, 1, 52, 88
5, 24358, Note_off_c, 1, 52, 0
5, 24360, Note_on_c, 1, 51, 88
5, 24418, Note_off_c, 1, 51, 0
5, 24420, Note_on_c, 1, 57, 88
5, 24478, Note_off_c, 1, 57, 0
5, 24480, Note_on_c, 1, 55, 88
5, 24538, Note_off_c, 1, 55, 0
5, 24540, Note_on_c, 1, 52, 88
5, 24598, Note_off_c, 1, 52, 0
5, 24600, Note_on_c, 1, 54, 88
5, 24658, Note_off_c, 1, 54, 0
5, 24660, Note_on_c, 1, 55, 88
5, 24718, Note_off_c, 1, 55, 0
5, 24720, Note_on_c, 1, 57, 88
5, 24778, Note_off_c, 1, 57, 0
5, 24780, Note_on_c, 1, 54, 88
5, 24838, Note_off_c, 1, 54, 0
5, 24840, Note_on_c, 1, 55, 88
5, 24898, Note_off_c, 1, 55, 0
5, 24900, Note_on_c, 1, 52, 88
5, 24958, Note_off_c, 1, 52, 0
5, 24960, Note_on_c, 1, 50, 88
5, 25018, Note_off_c, 1, 50, 0
5, 25020, Note_on_c, 1, 48, 88
5, 25078, Note_off_c, 1, 48, 0
5, 25080, Note_on_c, 1, 47, 88
5, 25138, Note_off_c, 1, 47, 0
5, 25140, Note_on_c, 1, 53, 88
5, 25198, Note_off_c, 1, 53, 0
5, 25200, Note_on_c, 1, 52, 88
5, 25258, Note_off_c, 1, 52, 0
5, 25260, Note_on_c, 1, 43, 88
5, 25318, Note_off_c, 1, 43, 0
5, 25320, Note_on_c, 1, 45, 88
5, 25378, Note_off_c, 1, 45, 0
5, 25380, Note_on_c, 1, 47, 88
5, 25438, Note_off_c, 1, 47, 0
5, 25440, Note_on_c, 1, 48, 88
5, 25618, Note_off_c, 1, 48, 0
5, 25620, Note_on_c, 1, 47, 88
5, 25678, Note_off_c, 1, 47, 0
5, 25680, Note_on_c, 1, 49, 88
5, 25738, Note_off_c, 1, 49, 0
5, 25740, Note_on_c, 1, 50, 88
5, 25798, Note_off_c, 1, 50, 0
5, 25800, Note_on_c, 1, 52, 88
5, 25858, Note_off_c, 1, 52, 0
5, 25860, Note_on_c, 1, 49, 88
5, 25918, Note_off_c, 1, 49, 0
5, 25920, Note_on_c, 1, 50, 88
5, 25978, Note_off_c, 1, 50, 0
5, 25980, Note_on_c, 1, 45, 88
5, 26038, Note_off_c, 1, 45, 0
5, 26040, Note_on_c, 1, 47, 88
5, 26098, Note_off_c, 1, 47, 0
5, 26100, Note_on_c, 1, 48, 88
5, 26158, Note_off_c, 1, 48, 0
5, 26160, Note_on_c, 1, 50, 88
5, 26338, Note_off_c, 1, 50, 0
5, 26340, Note_on_c, 1, 49, 88
5, 26398, Note_off_c, 1, 49, 0
5, 26400, Note_on_c, 1, 51, 88
5, 26458, Note_off_c, 1, 51, 0
5, 26460, Note_on_c, 1, 52, 88
5, 26518, Note_off_c, 1, 52, 0
5, 26520, Note_on_c, 1, 54, 88
5, 26578, Note_off_c, 1, 54, 0
5, 26580, Note_on_c, 1, 51, 88
5, 26638, Note_off_c, 1, 51, 0
5, 26640, Note_on_c, 1, 52, 88
5, 26698, Note_off_c, 1, 52, 0
5, 26700, Note_on_c, 1, 47, 88
5, 26758, Note_off_c, 1, 47, 0
5, 26760, Note_on_c, 1, 49, 88
5, 26818, Note_off_c, 1, 49, 0
5, 26820, Note_on_c, 1, 50, 88
5, 26878, Note_off_c, 1, 50, 0
5, 26880, Note_on_c, 1, 52, 88
5, 27058, Note_off_c, 1, 52, 0
5, 27060, Note_on_c, 1, 50, 88
5, 27118, Note_off_c, 1, 50, 0
5, 27120, Note_on_c, 1, 52, 88
5, 27178, Note_off_c, 1, 52, 0
5, 27180, Note_on_c, 1, 54, 88
5, 27238, Note_off_c, 1, 54, 0
5, 27240, Note_on_c, 1, 55, 88
5, 27298, Note_off_c, 1, 55, 0
5, 27300, Note_on_c, 1, 52, 88
5, 27358, Note_off_c, 1, 52, 0
5, 27360, Note_on_c, 1, 55, 88
5, 27378, Note_off_c, 1, 55, 0
5, 27379, Note_on_c, 1, 54, 88
5, 27401, Note_off_c, 1, 54, 0
5, 27401, Note_on_c, 1, 55, 88
5, 27423, Note_off_c, 1, 55, 0
5, 27424, Note_on_c, 1, 54, 88
5, 27446, Note_off_c, 1, 54, 0
5, 27446, Note_on_c, 1, 55, 88
5, 27468, Note_off_c, 1, 55, 0
5, 27469, Note_on_c, 1, 54, 88
5, 27491, Note_off_c, 1, 54, 0
5, 27491, Note_on_c, 1, 55, 88
5, 27513, Note_off_c, 1, 55, 0
5, 27514, Note_on_c, 1, 54, 88
5, 27532, Note_off_c, 1, 54, 0
5, 27533, Note_on_c, 1, 55, 88
5, 27551, Note_on_c, 1, 54, 88
5, 27551, Note_off_c, 1, 55, 0
5, 27569, Note_off_c, 1, 54, 0
5, 27570, Note_on_c, 1, 55, 88
5, 27588, Note_off_c, 1, 55, 0
5, 27589, Note_on_c, 1, 54, 88
5, 27607, Note_off_c, 1, 54, 0
5, 27608, Note_on_c, 1, 55, 88
5, 27626, Note_on_c, 1, 54, 88
5, 27626, Note_off_c, 1, 55, 0
5, 27644, Note_off_c, 1, 54, 0
5, 27645, Note_on_c, 1, 55, 88
5, 27663, Note_off_c, 1, 55, 0
5, 27664, Note_on_c, 1, 54, 88
5, 27682, Note_off_c, 1, 54, 0
5, 27683, Note_on_c, 1, 55, 88
5, 27701, Note_on_c, 1, 54, 88
5, 27701, Note_off_c, 1, 55, 0
5, 27719, Note_off_c, 1, 54, 0
5, 27720, Note_on_c, 1, 55, 88
5, 27738, Note_off_c, 1, 55, 0
5, 27739, Note_on_c, 1, 54, 88
5, 27761, Note_off_c, 1, 54, 0
5, 27761, Note_on_c, 1, 55, 88
5, 27783, Note_off_c, 1, 55, 0
5, 27784, Note_on_c, 1, 54, 88
5, 27806, Note_off_c, 1, 54, 0
5, 27806, Note_on_c, 1, 55, 88
5, 27828, Note_off_c, 1, 55, 0
5, 27829, Note_on_c, 1, 54, 88
5, 27851, Note_off_c, 1, 54, 0
5, 27851, Note_on_c, 1, 55, 88
5, 27873, Note_off_c, 1, 55, 0
5, 27874, Note_on_c, 1, 54, 88
5, 27892, Note_off_c, 1, 54, 0
5, 27893, Note_on_c, 1, 55, 88
5, 27911, Note_on_c, 1, 54, 88
5, 27911, Note_off_c, 1, 55, 0
5, 27929, Note_off_c, 1, 54, 0
5, 27930, Note_on_c, 1, 55, 88
5, 27948, Note_off_c, 1, 55, 0
5, 27949, Note_on_c, 1, 54, 88
5, 27967, Note_off_c, 1, 54, 0
5, 27968, Note_on_c, 1, 55, 88
5, 27986, Note_on_c, 1, 54, 88
5, 27986, Note_off_c, 1, 55, 0
5, 28004, Note_off_c, 1, 54, 0
5, 28005, Note_on_c, 1, 55, 88
5, 28023, Note_off_c, 1, 55, 0
5, 28024, Note_on_c, 1, 54, 88
5, 28042, Note_off_c, 1, 54, 0
5, 28043, Note_on_c, 1, 55, 88
5, 28061, Note_on_c, 1, 54, 88
5, 28061, Note_off_c, 1, 55, 0
5, 28079, Note_off_c, 1, 54, 0
5, 28080, Note_on_c, 1, 55, 88
5, 28098, Note_off_c, 1, 55, 0
5, 28099, Note_on_c, 1, 54, 88
5, 28121, Note_off_c, 1, 54, 0
5, 28121, Note_on_c, 1, 55, 88
5, 28143, Note_off_c, 1, 55, 0
5, 28144, Note_on_c, 1, 54, 88
5, 28166, Note_off_c, 1, 54, 0
5, 28166, Note_on_c, 1, 55, 88
5, 28188, Note_off_c, 1, 55, 0
5, 28189, Note_on_c, 1, 54, 88
5, 28211, Note_off_c, 1, 54, 0
5, 28211, Note_on_c, 1, 55, 88
5, 28233, Note_off_c, 1, 55, 0
5, 28234, Note_on_c, 1, 54, 88
5, 28252, Note_off_c, 1, 54, 0
5, 28253, Note_on_c, 1, 55, 88
5, 28271, Note_on_c, 1, 54, 88
5, 28271, Note_off_c, 1, 55, 0
5, 28289, Note_off_c, 1, 54, 0
5, 28290, Note_on_c, 1, 55, 88
5, 28308, Note_off_c, 1, 55, 0
5, 28309, Note_on_c, 1, 54, 88
5, 28327, Note_off_c, 1, 54, 0
5, 28328, Note_on_c, 1, 55, 88
5, 28346, Note_on_c, 1, 54, 88
5, 28346, Note_off_c, 1, 55, 0
5, 28364, Note_off_c, 1, 54, 0
5, 28365, Note_on_c, 1, 55, 88
5, 28383, Note_off_c, 1, 55, 0
5, 28384, Note_on_c, 1, 54, 88
5, 28402, Note_off_c, 1, 54, 0
5, 28403, Note_on_c, 1, 55, 88
5, 28421, Note_on_c, 1, 54, 88
5, 28421, Note_off_c, 1, 55, 0
5, 28439, Note_off_c, 1, 54, 0
5, 28440, Note_on_c, 1, 55, 88
5, 28458, Note_off_c, 1, 55, 0
5, 28459, Note_on_c, 1, 54, 88
5, 28481, Note_off_c, 1, 54, 0
5, 28481, Note_on_c, 1, 55, 88
5, 28503, Note_off_c, 1, 55, 0
5, 28504, Note_on_c, 1, 54, 88
5, 28526, Note_off_c, 1, 54, 0
5, 28526, Note_on_c, 1, 55, 88
5, 28548, Note_off_c, 1, 55, 0
5, 28549, Note_on_c, 1, 54, 88
5, 28571, Note_off_c, 1, 54, 0
5, 28571, Note_on_c, 1, 55, 88
5, 28593, Note_off_c, 1, 55, 0
5, 28594, Note_on_c, 1, 54, 88
5, 28616, Note_off_c, 1, 54, 0
5, 28616, Note_on_c, 1, 55, 88
5, 28638, Note_off_c, 1, 55, 0
5, 28639, Note_on_c, 1, 54, 88
5, 28661, Note_off_c, 1, 54, 0
5, 28661, Note_on_c, 1, 55, 88
5, 28679, Note_off_c, 1, 55, 0
5, 28680, Note_on_c, 1, 54, 88
5, 28796, Note_off_c, 1, 54, 0
5, 28860, Note_on_c, 1, 51, 88
5, 28918, Note_off_c, 1, 51, 0
5, 28920, Note_on_c, 1, 52, 88
5, 28978, Note_off_c, 1, 52, 0
5, 28980, Note_on_c, 1, 54, 88
5, 29038, Note_off_c, 1, 54, 0
5, 29040, Note_on_c, 1, 55, 88
5, 29098, Note_off_c, 1, 55, 0
5, 29100, Note_on_c, 1, 52, 88
5, 29158, Note_off_c, 1, 52, 0
5, 29160, Note_on_c, 1, 54, 88
5, 29218, Note_off_c, 1, 54, 0
5, 29220, Note_on_c, 1, 52, 88
5, 29278, Note_off_c, 1, 52, 0
5, 29280, Note_on_c, 1, 51, 88
5, 29338, Note_off_c, 1, 51, 0
5, 29340, Note_on_c, 1, 49, 88
5, 29398, Note_off_c, 1, 49, 0
5, 29400, Note_on_c, 1, 47, 88
5, 29458, Note_off_c, 1, 47, 0
5, 29460, Note_on_c, 1, 45, 88
5, 29518, Note_off_c, 1, 45, 0
5, 29520, Note_on_c, 1, 43, 88
5, 29578, Note_off_c, 1, 43, 0
5, 29580, Note_on_c, 1, 47, 88
5, 29638, Note_off_c, 1, 47, 0
5, 29640, Note_on_c, 1, 49, 88
5, 29698, Note_off_c, 1, 49, 0
5, 29700, Note_on_c, 1, 51, 88
5, 29758, Note_off_c, 1, 51, 0
5, 29760, Note_on_c, 1, 52, 88
5, 29818, Note_off_c, 1, 52, 0
5, 29820, Note_on_c, 1, 49, 88
5, 29878, Note_off_c, 1, 49, 0
5, 29880, Note_on_c, 1, 51, 88
5, 29938, Note_off_c, 1, 51, 0
5, 29940, Note_on_c, 1, 49, 88
5, 29998, Note_off_c, 1, 49, 0
5, 30000, Note_on_c, 1, 47, 88
5, 30058, Note_off_c, 1, 47, 0
5, 30060, Note_on_c, 1, 45, 88
5, 30118, Note_off_c, 1, 45, 0
5, 30120, Note_on_c, 1, 43, 88
5, 30178, Note_off_c, 1, 43, 0
5, 30180, Note_on_c, 1, 42, 88
5, 30238, Note_off_c, 1, 42, 0
5, 30240, Note_on_c, 1, 40, 88
5, 30298, Note_off_c, 1, 40, 0
5, 30300, Note_on_c, 1, 50, 88
5, 30358, Note_off_c, 1, 50, 0
5, 30360, Note_on_c, 1, 49, 88
5, 30418, Note_off_c, 1, 49, 0
5, 30420, Note_on_c, 1, 47, 88
5, 30478, Note_off_c, 1, 47, 0
5, 30480, Note_on_c, 1, 46, 88
5, 30538, Note_off_c, 1, 46, 0
5, 30540, Note_on_c, 1, 49, 88
5, 30598, Note_off_c, 1, 49, 0
5, 30600, Note_on_c, 1, 42, 88
5, 30716, Note_off_c, 1, 42, 0
5, 30720, Note_on_c, 1, 55, 88
5, 31018, Note_off_c, 1, 55, 0
5, 31020, Note_on_c, 1, 54, 88
5, 31078, Note_off_c, 1, 54, 0
5, 31080, Note_on_c, 1, 52, 88
5, 31138, Note_off_c, 1, 52, 0
5, 31140, Note_on_c, 1, 50, 88
5, 31198, Note_off_c, 1, 50, 0
5, 31200, Note_on_c, 1, 49, 88
5, 31258, Note_off_c, 1, 49, 0
5, 31260, Note_on_c, 1, 52, 88
5, 31318, Note_off_c, 1, 52, 0
5, 31320, Note_on_c, 1, 46, 88
5, 31436, Note_off_c, 1, 46, 0
5, 31440, Note_on_c, 1, 64, 88
5, 31738, Note_off_c, 1, 64, 0
5, 31740, Note_on_c, 1, 62, 88
5, 31798, Note_off_c, 1, 62, 0
5, 31800, Note_on_c, 1, 61, 88
5, 31858, Note_off_c, 1, 61, 0
5, 31860, Note_on_c, 1, 59, 88
5, 31918, Note_off_c, 1, 59, 0
5, 31920, Note_on_c, 1, 58, 88
5, 31978, Note_off_c, 1, 58, 0
5, 31980, Note_on_c, 1, 61, 88
5, 32038, Note_off_c, 1, 61, 0
5, 32040, Note_on_c, 1, 54, 88
5, 32156, Note_off_c, 1, 54, 0
5, 32160, Note_on_c, 1, 56, 88
5, 32276, Note_off_c, 1, 56, 0
5, 32280, Note_on_c, 1, 58, 88
5, 32396, Note_off_c, 1, 58, 0
5, 32400, Note_on_c, 1, 59, 88
5, 32458, Note_off_c, 1, 59, 0
5, 32460, Note_on_c, 1, 58, 88
5, 32518, Note_off_c, 1, 58, 0
5, 32520, Note_on_c, 1, 59, 88
5, 32578, Note_off_c, 1, 59, 0
5, 32580, Note_on_c, 1, 61, 88
5, 32638, Note_off_c, 1, 61, 0
5, 32640, Note_on_c, 1, 62, 88
5, 32698, Note_off_c, 1, 62, 0
5, 32700, Note_on_c, 1, 59, 88
5, 32758, Note_off_c, 1, 59, 0
5, 32760, Note_on_c, 1, 53, 88
5, 32818, Note_off_c, 1, 53, 0
5, 32820, Note_on_c, 1, 54, 88
5, 32878, Note_off_c, 1, 54, 0
5, 32880, Note_on_c, 1, 56, 88
5, 32938, Note_off_c, 1, 56, 0
5, 32940, Note_on_c, 1, 57, 88
5, 32998, Note_off_c, 1, 57, 0
5, 33000, Note_on_c, 1, 59, 88
5, 33058, Note_off_c, 1, 59, 0
5, 33060, Note_on_c, 1, 56, 88
5, 33118, Note_off_c, 1, 56, 0
5, 33120, Note_on_c, 1, 49, 88
5, 33236, Note_off_c, 1, 49, 0
5, 33240, Note_on_c, 1, 53, 88
5, 33356, Note_off_c, 1, 53, 0
5, 33360, Note_on_c, 1, 54, 88
5, 33476, Note_off_c, 1, 54, 0
5, 33480, Note_on_c, 1, 55, 88
5, 33596, Note_off_c, 1, 55, 0
5, 33600, Note_on_c, 1, 46, 88
5, 33716, Note_off_c, 1, 46, 0
5, 33720, Note_on_c, 1, 47, 88
5, 33836, Note_off_c, 1, 47, 0
5, 33840, Note_on_c, 1, 43, 88
5, 33956, Note_off_c, 1, 43, 0
5, 33960, Note_on_c, 1, 40, 88
5, 34076, Note_off_c, 1, 40, 0
5, 34080, Note_on_c, 1, 42, 88
5, 34196, Note_off_c, 1, 42, 0
5, 34200, Note_on_c, 1, 47, 88
5, 34553, Note_off_c, 1, 47, 0
5, 34620, Note_on_c, 1, 59, 88
5, 34678, Note_off_c, 1, 59, 0
5, 34680, Note_on_c, 1, 57, 88
5, 34738, Note_off_c, 1, 57, 0
5, 34740, Note_on_c, 1, 55, 88
5, 34798, Note_off_c, 1, 55, 0
5, 34800, Note_on_c, 1, 54, 88
5, 34858, Note_off_c, 1, 54, 0
5, 34860, Note_on_c, 1, 57, 88
5, 34918, Note_off_c, 1, 57, 0
5, 34920, Note_on_c, 1, 55, 88
5, 34978, Note_off_c, 1, 55, 0
5, 34980, Note_on_c, 1, 59, 88
5, 35038, Note_off_c, 1, 59, 0
5, 35040, Note_on_c, 1, 61, 88
5, 35098, Note_off_c, 1, 61, 0
5, 35100, Note_on_c, 1, 62, 88
5, 35158, Note_off_c, 1, 62, 0
5, 35160, Note_on_c, 1, 64, 88
5, 35218, Note_off_c, 1, 64, 0
5, 35220, Note_on_c, 1, 57, 88
5, 35278, Note_off_c, 1, 57, 0
5, 35280, Note_on_c, 1, 62, 88
5, 35338, Note_off_c, 1, 62, 0
5, 35340, Note_on_c, 1, 55, 88
5, 35398, Note_off_c, 1, 55, 0
5, 35400, Note_on_c, 1, 57, 88
5, 35458, Note_off_c, 1, 57, 0
5, 35460, Note_on_c, 1, 59, 88
5, 35518, Note_off_c, 1, 59, 0
5, 35520, Note_on_c, 1, 60, 88
5, 35578, Note_off_c, 1, 60, 0
5, 35580, Note_on_c, 1, 54, 88
5, 35638, Note_off_c, 1, 54, 0
5, 35640, Note_on_c, 1, 59, 88
5, 35698, Note_off_c, 1, 59, 0
5, 35700, Note_on_c, 1, 52, 88
5, 35758, Note_off_c, 1, 52, 0
5, 35760, Note_on_c, 1, 54, 88
5, 35818, Note_off_c, 1, 54, 0
5, 35820, Note_on_c, 1, 55, 88
5, 35878, Note_off_c, 1, 55, 0
5, 35880, Note_on_c, 1, 57, 88
5, 35938, Note_off_c, 1, 57, 0
5, 35940, Note_on_c, 1, 51, 88
5, 35998, Note_off_c, 1, 51, 0
5, 36000, Note_on_c, 1, 55, 88
5, 36116, Note_off_c, 1, 55, 0
5, 36120, Note_on_c, 1, 57, 88
5, 36236, Note_off_c, 1, 57, 0
5, 36240, Note_on_c, 1, 59, 88
5, 36356, Note_off_c, 1, 59, 0
5, 36360, Note_on_c, 1, 52, 88
5, 36476, Note_off_c, 1, 52, 0
5, 36480, Note_on_c, 1, 50, 88
5, 36596, Note_off_c, 1, 50, 0
5, 36600, Note_on_c, 1, 48, 88
5, 36716, Note_off_c, 1, 48, 0
5, 36720, Note_on_c, 1, 47, 88
5, 36836, Note_off_c, 1, 47, 0
5, 36840, Note_on_c, 1, 40, 88
5, 36956, Note_off_c, 1, 40, 0
5, 36960, Note_on_c, 1, 45, 88
5, 37076, Note_off_c, 1, 45, 0
5, 37080, Note_on_c, 1, 38, 88
5, 37138, Note_off_c, 1, 38, 0
5, 37140, Note_on_c, 1, 36, 88
5, 37198, Note_off_c, 1, 36, 0
5, 37200, Note_on_c, 1, 38, 88
5, 37258, Note_off_c, 1, 38, 0
5, 37260, Note_on_c, 1, 40, 88
5, 37318, Note_off_c, 1, 40, 0
5, 37320, Note_on_c, 1, 41, 88
5, 37436, Note_off_c, 1, 41, 0
5, 37440, Note_on_c, 1, 40, 88
5, 37498, Note_off_c, 1, 40, 0
5, 37500, Note_on_c, 1, 52, 88
5, 37558, Note_off_c, 1, 52, 0
5, 37560, Note_on_c, 1, 50, 88
5, 37618, Note_off_c, 1, 50, 0
5, 37620, Note_on_c, 1, 48, 88
5, 37678, Note_off_c, 1, 48, 0
5, 37680, Note_on_c, 1, 47, 88
5, 37738, Note_off_c, 1, 47, 0
5, 37740, Note_on_c, 1, 50, 88
5, 37798, Note_off_c, 1, 50, 0
5, 37800, Note_on_c, 1, 48, 88
5, 37916, Note_off_c, 1, 48, 0
5, 37920, Note_on_c, 1, 50, 88
5, 38036, Note_off_c, 1, 50, 0
5, 38040, Note_on_c, 1, 52, 88
5, 38156, Note_off_c, 1, 52, 0
5, 38160, Note_on_c, 1, 45, 88
5, 38218, Note_off_c, 1, 45, 0
5, 38220, Note_on_c, 1, 57, 88
5, 38278, Note_off_c, 1, 57, 0
5, 38280, Note_on_c, 1, 55, 88
5, 38338, Note_off_c, 1, 55, 0
5, 38340, Note_on_c, 1, 53, 88
5, 38398, Note_off_c, 1, 53, 0
5, 38400, Note_on_c, 1, 52, 88
5, 38458, Note_off_c, 1, 52, 0
5, 38460, Note_on_c, 1, 55, 88
5, 38518, Note_off_c, 1, 55, 0
5, 38520, Note_on_c, 1, 53, 88
5, 38636, Note_off_c, 1, 53, 0
5, 38640, Note_on_c, 1, 55, 88
5, 38756, Note_off_c, 1, 55, 0
5, 38760, Note_on_c, 1, 57, 88
5, 38876, Note_off_c, 1, 57, 0
5, 38880, Note_on_c, 1, 50, 88
5, 38938, Note_off_c, 1, 50, 0
5, 38940, Note_on_c, 1, 62, 88
5, 38998, Note_off_c, 1, 62, 0
5, 39000, Note_on_c, 1, 60, 88
5, 39058, Note_off_c, 1, 60, 0
5, 39060, Note_on_c, 1, 59, 88
5, 39118, Note_off_c, 1, 59, 0
5, 39120, Note_on_c, 1, 57, 88
5, 39178, Note_off_c, 1, 57, 0
5, 39180, Note_on_c, 1, 60, 88
5, 39238, Note_off_c, 1, 60, 0
5, 39240, Note_on_c, 1, 59, 88
5, 39356, Note_off_c, 1, 59, 0
5, 39360, Note_on_c, 1, 60, 88
5, 39476, Note_off_c, 1, 60, 0
5, 39480, Note_on_c, 1, 62, 88
5, 39596, Note_off_c, 1, 62, 0
5, 39660, Note_on_c, 1, 55, 88
5, 39718, Note_off_c, 1, 55, 0
5, 39720, Note_on_c, 1, 53, 88
5, 39778, Note_off_c, 1, 53, 0
5, 39780, Note_on_c, 1, 52, 88
5, 39838, Note_off_c, 1, 52, 0
5, 39840, Note_on_c, 1, 50, 88
5, 39898, Note_off_c, 1, 50, 0
5, 39900, Note_on_c, 1, 53, 88
5, 39958, Note_off_c, 1, 53, 0
5, 39960, Note_on_c, 1, 43, 88
5, 40018, Note_off_c, 1, 43, 0
5, 40020, Note_on_c, 1, 53, 88
5, 40078, Note_off_c, 1, 53, 0
5, 40080, Note_on_c, 1, 52, 88
5, 40138, Note_off_c, 1, 52, 0
5, 40140, Note_on_c, 1, 50, 88
5, 40198, Note_off_c, 1, 50, 0
5, 40200, Note_on_c, 1, 48, 88
5, 40258, Note_off_c, 1, 48, 0
5, 40260, Note_on_c, 1, 52, 88
5, 40318, Note_off_c, 1, 52, 0
5, 40320, Note_on_c, 1, 43, 88
5, 40378, Note_off_c, 1, 43, 0
5, 40380, Note_on_c, 1, 52, 88
5, 40438, Note_off_c, 1, 52, 0
5, 40440, Note_on_c, 1, 50, 88
5, 40498, Note_off_c, 1, 50, 0
5, 40500, Note_on_c, 1, 48, 88
5, 40558, Note_off_c, 1, 48, 0
5, 40560, Note_on_c, 1, 47, 88
5, 40618, Note_off_c, 1, 47, 0
5, 40620, Note_on_c, 1, 50, 88
5, 40678, Note_off_c, 1, 50, 0
5, 40680, Note_on_c, 1, 43, 88
5, 40796, Note_off_c, 1, 43, 0
5, 40800, Note_on_c, 1, 45, 88
5, 40916, Note_off_c, 1, 45, 0
5, 40920, Note_on_c, 1, 47, 88
5, 41036, Note_off_c, 1, 47, 0
5, 41040, Note_on_c, 1, 48, 88
5, 41098, Note_off_c, 1, 48, 0
5, 41100, Note_on_c, 1, 62, 88
5, 41158, Note_off_c, 1, 62, 0
5, 41160, Note_on_c, 1, 60, 88
5, 41218, Note_off_c, 1, 60, 0
5, 41220, Note_on_c, 1, 59, 88
5, 41278, Note_off_c, 1, 59, 0
5, 41280, Note_on_c, 1, 57, 88
5, 41338, Note_off_c, 1, 57, 0
5, 41340, Note_on_c, 1, 60, 88
5, 41398, Note_off_c, 1, 60, 0
5, 41400, Note_on_c, 1, 47, 88
5, 41458, Note_off_c, 1, 47, 0
5, 41460, Note_on_c, 1, 60, 88
5, 41518, Note_off_c, 1, 60, 0
5, 41520, Note_on_c, 1, 59, 88
5, 41578, Note_off_c, 1, 59, 0
5, 41580, Note_on_c, 1, 57, 88
5, 41638, Note_off_c, 1, 57, 0
5, 41640, Note_on_c, 1, 56, 88
5, 41698, Note_off_c, 1, 56, 0
5, 41700, Note_on_c, 1, 59, 88
5, 41758, Note_off_c, 1, 59, 0
5, 41760, Note_on_c, 1, 45, 88
5, 41818, Note_off_c, 1, 45, 0
5, 41820, Note_on_c, 1, 59, 88
5, 41878, Note_off_c, 1, 59, 0
5, 41880, Note_on_c, 1, 57, 88
5, 41938, Note_off_c, 1, 57, 0
5, 41940, Note_on_c, 1, 56, 88
5, 41998, Note_off_c, 1, 56, 0
5, 42000, Note_on_c, 1, 54, 88
5, 42058, Note_off_c, 1, 54, 0
5, 42060, Note_on_c, 1, 57, 88
5, 42118, Note_off_c, 1, 57, 0
5, 42120, Note_on_c, 1, 51, 88
5, 42236, Note_off_c, 1, 51, 0
5, 42240, Note_on_c, 1, 52, 88
5, 42356, Note_off_c, 1, 52, 0
5, 42360, Note_on_c, 1, 53, 88
5, 42476, Note_off_c, 1, 53, 0
5, 42480, Note_on_c, 1, 52, 88
5, 42538, Note_off_c, 1, 52, 0
5, 42540, Note_on_c, 1, 50, 88
5, 42598, Note_off_c, 1, 50, 0
5, 42600, Note_on_c, 1, 52, 88
5, 42716, Note_off_c, 1, 52, 0
5, 42720, Note_on_c, 1, 40, 88
5, 42836, Note_off_c, 1, 40, 0
5, 42840, Note_on_c, 1, 45, 88
5, 42898, Note_off_c, 1, 45, 0
5, 42900, Note_on_c, 1, 57, 88
5, 42958, Note_off_c, 1, 57, 0
5, 42960, Note_on_c, 1, 55, 88
5, 43018, Note_off_c, 1, 55, 0
5, 43020, Note_on_c, 1, 54, 88
5, 43078, Note_off_c, 1, 54, 0
5, 43080, Note_on_c, 1, 52, 88
5, 43138, Note_off_c, 1, 52, 0
5, 43140, Note_on_c, 1, 55, 88
5, 43198, Note_off_c, 1, 55, 0
5, 43200, Note_on_c, 1, 54, 88
5, 43316, Note_off_c, 1, 54, 0
5, 43320, Note_on_c, 1, 50, 88
5, 43436, Note_off_c, 1, 50, 0
5, 43440, Note_on_c, 1, 54, 88
5, 43556, Note_off_c, 1, 54, 0
5, 43560, Note_on_c, 1, 55, 88
5, 43676, Note_off_c, 1, 55, 0
5, 43680, Note_on_c, 1, 54, 88
5, 43796, Note_off_c, 1, 54, 0
5, 43800, Note_on_c, 1, 52, 88
5, 43916, Note_off_c, 1, 52, 0
5, 43920, Note_on_c, 1, 50, 88
5, 43978, Note_off_c, 1, 50, 0
5, 43980, Note_on_c, 1, 55, 88
5, 44038, Note_off_c, 1, 55, 0
5, 44040, Note_on_c, 1, 57, 88
5, 44098, Note_off_c, 1, 57, 0
5, 44100, Note_on_c, 1, 59, 88
5, 44158, Note_off_c, 1, 59, 0
5, 44160, Note_on_c, 1, 60, 88
5, 44338, Note_off_c, 1, 60, 0
5, 44340, Note_on_c, 1, 59, 88
5, 44398, Note_off_c, 1, 59, 0
5, 44400, Note_on_c, 1, 57, 88
5, 44458, Note_off_c, 1, 57, 0
5, 44460, Note_on_c, 1, 55, 88
5, 44518, Note_off_c, 1, 55, 0
5, 44520, Note_on_c, 1, 57, 88
5, 44698, Note_off_c, 1, 57, 0
5, 44700, Note_on_c, 1, 59, 88
5, 44758, Note_off_c, 1, 59, 0
5, 44760, Note_on_c, 1, 57, 88
5, 44818, Note_off_c, 1, 57, 0
5, 44820, Note_on_c, 1, 55, 88
5, 44878, Note_off_c, 1, 55, 0
5, 44880, Note_on_c, 1, 54, 88
5, 44938, Note_off_c, 1, 54, 0
5, 44940, Note_on_c, 1, 57, 88
5, 44998, Note_off_c, 1, 57, 0
5, 45000, Note_on_c, 1, 55, 88
5, 45058, Note_off_c, 1, 55, 0
5, 45060, Note_on_c, 1, 59, 88
5, 45118, Note_off_c, 1, 59, 0
5, 45120, Note_on_c, 1, 61, 88
5, 45178, Note_off_c, 1, 61, 0
5, 45180, Note_on_c, 1, 63, 88
5, 45238, Note_off_c, 1, 63, 0
5, 45240, Note_on_c, 1, 64, 88
5, 45298, Note_off_c, 1, 64, 0
5, 45300, Note_on_c, 1, 57, 88
5, 45358, Note_off_c, 1, 57, 0
5, 45360, Note_on_c, 1, 62, 88
5, 45418, Note_off_c, 1, 62, 0
5, 45420, Note_on_c, 1, 55, 88
5, 45478, Note_off_c, 1, 55, 0
5, 45480, Note_on_c, 1, 57, 88
5, 45538, Note_off_c, 1, 57, 0
5, 45540, Note_on_c, 1, 59, 88
5, 45598, Note_off_c, 1, 59, 0
5, 45600, Note_on_c, 1, 60, 88
5, 45658, Note_off_c, 1, 60, 0
5, 45660, Note_on_c, 1, 54, 88
5, 45718, Note_off_c, 1, 54, 0
5, 45720, Note_on_c, 1, 59, 88
5, 45778, Note_off_c, 1, 59, 0
5, 45780, Note_on_c, 1, 52, 88
5, 45838, Note_off_c, 1, 52, 0
5, 45840, Note_on_c, 1, 54, 88
5, 45898, Note_off_c, 1, 54, 0
5, 45900, Note_on_c, 1, 55, 88
5, 45958, Note_off_c, 1, 55, 0
5, 45960, Note_on_c, 1, 57, 88
5, 46018, Note_off_c, 1, 57, 0
5, 46020, Note_on_c, 1, 50, 88
5, 46078, Note_off_c, 1, 50, 0
5, 46080, Note_on_c, 1, 55, 88
5, 46138, Note_off_c, 1, 55, 0
5, 46140, Note_on_c, 1, 54, 88
5, 46198, Note_off_c, 1, 54, 0
5, 46200, Note_on_c, 1, 55, 88
5, 46258, Note_off_c, 1, 55, 0
5, 46260, Note_on_c, 1, 57, 88
5, 46318, Note_off_c, 1, 57, 0
5, 46320, Note_on_c, 1, 59, 88
5, 46378, Note_off_c, 1, 59, 0
5, 46380, Note_on_c, 1, 61, 88
5, 46438, Note_off_c, 1, 61, 0
5, 46440, Note_on_c, 1, 62, 88
5, 46498, Note_off_c, 1, 62, 0
5, 46500, Note_on_c, 1, 57, 88
5, 46558, Note_off_c, 1, 57, 0
5, 46560, Note_on_c, 1, 59, 88
5, 46618, Note_off_c, 1, 59, 0
5, 46620, Note_on_c, 1, 60, 88
5, 46678, Note_off_c, 1, 60, 0
5, 46680, Note_on_c, 1, 62, 88
5, 46858, Note_off_c, 1, 62, 0
5, 46860, Note_on_c, 1, 61, 88
5, 46918, Note_off_c, 1, 61, 0
5, 46920, Note_on_c, 1, 63, 88
5, 46978, Note_off_c, 1, 63, 0
5, 46980, Note_on_c, 1, 64, 88
5, 47038, Note_off_c, 1, 64, 0
5, 47040, Note_on_c, 1, 66, 88
5, 47098, Note_off_c, 1, 66, 0
5, 47100, Note_on_c, 1, 63, 88
5, 47158, Note_off_c, 1, 63, 0
5, 47160, Note_on_c, 1, 64, 88
5, 47218, Note_off_c, 1, 64, 0
5, 47220, Note_on_c, 1, 52, 88
5, 47278, Note_off_c, 1, 52, 0
5, 47280, Note_on_c, 1, 54, 88
5, 47338, Note_off_c, 1, 54, 0
5, 47340, Note_on_c, 1, 55, 88
5, 47398, Note_off_c, 1, 55, 0
5, 47400, Note_on_c, 1, 57, 88
5, 47458, Note_off_c, 1, 57, 0
5, 47460, Note_on_c, 1, 54, 88
5, 47518, Note_off_c, 1, 54, 0
5, 47520, Note_on_c, 1, 55, 88
5, 47636, Note_off_c, 1, 55, 0
5, 47640, Note_on_c, 1, 54, 88
5, 47756, Note_off_c, 1, 54, 0
5, 47760, Note_on_c, 1, 52, 88
5, 47876, Note_off_c, 1, 52, 0
5, 47880, Note_on_c, 1, 60, 88
5, 47898, Note_off_c, 1, 60, 0
5, 47899, Note_on_c, 1, 59, 88
5, 47921, Note_off_c, 1, 59, 0
5, 47921, Note_on_c, 1, 60, 88
5, 47943, Note_off_c, 1, 60, 0
5, 47944, Note_on_c, 1, 59, 88
5, 47966, Note_off_c, 1, 59, 0
5, 47966, Note_on_c, 1, 60, 88
5, 47988, Note_off_c, 1, 60, 0
5, 47989, Note_on_c, 1, 59, 88
5, 48011, Note_off_c, 1, 59, 0
5, 48011, Note_on_c, 1, 60, 88
5, 48033, Note_off_c, 1, 60, 0
5, 48034, Note_on_c, 1, 59, 88
5, 48052, Note_off_c, 1, 59, 0
5, 48053, Note_on_c, 1, 60, 88
5, 48071, Note_on_c, 1, 59, 88
5, 48071, Note_off_c, 1, 60, 0
5, 48089, Note_off_c, 1, 59, 0
5, 48090, Note_on_c, 1, 60, 88
5, 48108, Note_off_c, 1, 60, 0
5, 48109, Note_on_c, 1, 59, 88
5, 48127, Note_off_c, 1, 59, 0
5, 48128, Note_on_c, 1, 60, 88
5, 48146, Note_on_c, 1, 59, 88
5, 48146, Note_off_c, 1, 60, 0
5, 48164, Note_off_c, 1, 59, 0
5, 48165, Note_on_c, 1, 60, 88
5, 48183, Note_off_c, 1, 60, 0
5, 48184, Note_on_c, 1, 59, 88
5, 48202, Note_off_c, 1, 59, 0
5, 48203, Note_on_c, 1, 60, 88
5, 48221, Note_on_c, 1, 59, 88
5, 48221, Note_off_c, 1, 60, 0
5, 48239, Note_off_c, 1, 59, 0
5, 48240, Note_on_c, 1, 60, 88
5, 48258, Note_off_c, 1, 60, 0
5, 48259, Note_on_c, 1, 59, 88
5, 48281, Note_off_c, 1, 59, 0
5, 48281, Note_on_c, 1, 60, 88
5, 48303, Note_off_c, 1, 60, 0
5, 48304, Note_on_c, 1, 59, 88
5, 48326, Note_off_c, 1, 59, 0
5, 48326, Note_on_c, 1, 60, 88
5, 48348, Note_off_c, 1, 60, 0
5, 48349, Note_on_c, 1, 59, 88
5, 48371, Note_off_c, 1, 59, 0
5, 48371, Note_on_c, 1, 60, 88
5, 48393, Note_off_c, 1, 60, 0
5, 48394, Note_on_c, 1, 59, 88
5, 48412, Note_off_c, 1, 59, 0
5, 48413, Note_on_c, 1, 60, 88
5, 48431, Note_on_c, 1, 59, 88
5, 48431, Note_off_c, 1, 60, 0
5, 48449, Note_off_c, 1, 59, 0
5, 48450, Note_on_c, 1, 60, 88
5, 48468, Note_off_c, 1, 60, 0
5, 48469, Note_on_c, 1, 59, 88
5, 48487, Note_off_c, 1, 59, 0
5, 48488, Note_on_c, 1, 60, 88
5, 48506, Note_on_c, 1, 59, 88
5, 48506, Note_off_c, 1, 60, 0
5, 48524, Note_off_c, 1, 59, 0
5, 48525, Note_on_c, 1, 60, 88
5, 48543, Note_off_c, 1, 60, 0
5, 48544, Note_on_c, 1, 59, 88
5, 48562, Note_off_c, 1, 59, 0
5, 48563, Note_on_c, 1, 60, 88
5, 48581, Note_on_c, 1, 59, 88
5, 48581, Note_off_c, 1, 60, 0
5, 48599, Note_off_c, 1, 59, 0
5, 48600, Note_on_c, 1, 60, 88
5, 48618, Note_off_c, 1, 60, 0
5, 48619, Note_on_c, 1, 59, 88
5, 48641, Note_off_c, 1, 59, 0
5, 48641, Note_on_c, 1, 60, 88
5, 48663, Note_off_c, 1, 60, 0
5, 48664, Note_on_c, 1, 59, 88
5, 48686, Note_off_c, 1, 59, 0
5, 48686, Note_on_c, 1, 60, 88
5, 48708, Note_off_c, 1, 60, 0
5, 48709, Note_on_c, 1, 59, 88
5, 48731, Note_off_c, 1, 59, 0
5, 48731, Note_on_c, 1, 60, 88
5, 48753, Note_off_c, 1, 60, 0
5, 48754, Note_on_c, 1, 59, 88
5, 48776, Note_off_c, 1, 59, 0
5, 48776, Note_on_c, 1, 60, 88
5, 48798, Note_off_c, 1, 60, 0
5, 48799, Note_on_c, 1, 59, 88
5, 48821, Note_off_c, 1, 59, 0
5, 48821, Note_on_c, 1, 60, 88
5, 48839, Note_off_c, 1, 60, 0
5, 48840, Note_on_c, 1, 59, 88
5, 48956, Note_off_c, 1, 59, 0
5, 49020, Note_on_c, 1, 56, 88
5, 49078, Note_off_c, 1, 56, 0
5, 49080, Note_on_c, 1, 57, 88
5, 49138, Note_off_c, 1, 57, 0
5, 49140, Note_on_c, 1, 59, 88
5, 49198, Note_off_c, 1, 59, 0
5, 49200, Note_on_c, 1, 60, 88
5, 49258, Note_off_c, 1, 60, 0
5, 49260, Note_on_c, 1, 57, 88
5, 49318, Note_off_c, 1, 57, 0
5, 49320, Note_on_c, 1, 59, 88
5, 49378, Note_off_c, 1, 59, 0
5, 49380, Note_on_c, 1, 57, 88
5, 49438, Note_off_c, 1, 57, 0
5, 49440, Note_on_c, 1, 56, 88
5, 49498, Note_off_c, 1, 56, 0
5, 49500, Note_on_c, 1, 54, 88
5, 49558, Note_off_c, 1, 54, 0
5, 49560, Note_on_c, 1, 52, 88
5, 49618, Note_off_c, 1, 52, 0
5, 49620, Note_on_c, 1, 50, 88
5, 49678, Note_off_c, 1, 50, 0
5, 49680, Note_on_c, 1, 48, 88
5, 49738, Note_off_c, 1, 48, 0
5, 49740, Note_on_c, 1, 52, 88
5, 49798, Note_off_c, 1, 52, 0
5, 49800, Note_on_c, 1, 54, 88
5, 49858, Note_off_c, 1, 54, 0
5, 49860, Note_on_c, 1, 56, 88
5, 49918, Note_off_c, 1, 56, 0
5, 49920, Note_on_c, 1, 57, 88
5, 49978, Note_off_c, 1, 57, 0
5, 49980, Note_on_c, 1, 54, 88
5, 50038, Note_off_c, 1, 54, 0
5, 50040, Note_on_c, 1, 56, 88
5, 50098, Note_off_c, 1, 56, 0
5, 50100, Note_on_c, 1, 54, 88
5, 50158, Note_off_c, 1, 54, 0
5, 50160, Note_on_c, 1, 52, 88
5, 50218, Note_off_c, 1, 52, 0
5, 50220, Note_on_c, 1, 50, 88
5, 50278, Note_off_c, 1, 50, 0
5, 50280, Note_on_c, 1, 48, 88
5, 50338, Note_off_c, 1, 48, 0
5, 50340, Note_on_c, 1, 47, 88
5, 50398, Note_off_c, 1, 47, 0
5, 50400, Note_on_c, 1, 45, 88
5, 50516, Note_off_c, 1, 45, 0
5, 50520, Note_on_c, 1, 52, 88
5, 50636, Note_off_c, 1, 52, 0
5, 50640, Note_on_c, 1, 56, 88
5, 50756, Note_off_c, 1, 56, 0
5, 50760, Note_on_c, 1, 57, 88
5, 50818, Note_off_c, 1, 57, 0
5, 50820, Note_on_c, 1, 59, 88
5, 50878, Note_off_c, 1, 59, 0
5, 50880, Note_on_c, 1, 57, 88
5, 50938, Note_off_c, 1, 57, 0
5, 50940, Note_on_c, 1, 55, 88
5, 50998, Note_off_c, 1, 55, 0
5, 51000, Note_on_c, 1, 54, 88
5, 51058, Note_off_c, 1, 54, 0
5, 51060, Note_on_c, 1, 57, 88
5, 51118, Note_off_c, 1, 57, 0
5, 51120, Note_on_c, 1, 51, 88
5, 51236, Note_off_c, 1, 51, 0
5, 51240, Note_on_c, 1, 60, 88
5, 51538, Note_off_c, 1, 60, 0
5, 51540, Note_on_c, 1, 57, 88
5, 51598, Note_off_c, 1, 57, 0
5, 51600, Note_on_c, 1, 54, 88
5, 51658, Note_off_c, 1, 54, 0
5, 51660, Note_on_c, 1, 57, 88
5, 51718, Note_off_c, 1, 57, 0
5, 51720, Note_on_c, 1, 51, 88
5, 51778, Note_off_c, 1, 51, 0
5, 51780, Note_on_c, 1, 54, 88
5, 51838, Note_off_c, 1, 54, 0
5, 51840, Note_on_c, 1, 47, 88
5, 51956, Note_off_c, 1, 47, 0
5, 51960, Note_on_c, 1, 64, 88
5, 51982, Note_off_c, 1, 64, 0
5, 51983, Note_on_c, 1, 63, 88
5, 52004, Note_off_c, 1, 63, 0
5, 52005, Note_on_c, 1, 64, 88
5, 52027, Note_off_c, 1, 64, 0
5, 52028, Note_on_c, 1, 63, 88
5, 52049, Note_off_c, 1, 63, 0
5, 52050, Note_on_c, 1, 64, 88
5, 52072, Note_off_c, 1, 64, 0
5, 52073, Note_on_c, 1, 63, 88
5, 52094, Note_off_c, 1, 63, 0
5, 52095, Note_on_c, 1, 64, 88
5, 52117, Note_off_c, 1, 64, 0
5, 52118, Note_on_c, 1, 63, 88
5, 52139, Note_off_c, 1, 63, 0
5, 52140, Note_on_c, 1, 61, 88
5, 52169, Note_off_c, 1, 61, 0
5, 52170, Note_on_c, 1, 63, 88
5, 52199, Note_off_c, 1, 63, 0
5, 52200, Note_on_c, 1, 64, 88
5, 52258, Note_off_c, 1, 64, 0
5, 52260, Note_on_c, 1, 63, 88
5, 52318, Note_off_c, 1, 63, 0
5, 52320, Note_on_c, 1, 64, 88
5, 52378, Note_off_c, 1, 64, 0
5, 52380, Note_on_c, 1, 66, 88
5, 52438, Note_off_c, 1, 66, 0
5, 52440, Note_on_c, 1, 67, 88
5, 52498, Note_off_c, 1, 67, 0
5, 52500, Note_on_c, 1, 64, 88
5, 52558, Note_off_c, 1, 64, 0
5, 52560, Note_on_c, 1, 58, 88
5, 52618, Note_off_c, 1, 58, 0
5, 52620, Note_on_c, 1, 59, 88
5, 52678, Note_off_c, 1, 59, 0
5, 52680, Note_on_c, 1, 61, 88
5, 52738, Note_off_c, 1, 61, 0
5, 52740, Note_on_c, 1, 62, 88
5, 52798, Note_off_c, 1, 62, 0
5, 52800, Note_on_c, 1, 64, 88
5, 52858, Note_off_c, 1, 64, 0
5, 52860, Note_on_c, 1, 61, 88
5, 52918, Note_off_c, 1, 61, 0
5, 52920, Note_on_c, 1, 54, 88
5, 53036, Note_off_c, 1, 54, 0
5, 53040, Note_on_c, 1, 58, 88
5, 53156, Note_off_c, 1, 58, 0
5, 53160, Note_on_c, 1, 59, 88
5, 53276, Note_off_c, 1, 59, 0
5, 53280, Note_on_c, 1, 60, 88
5, 53396, Note_off_c, 1, 60, 0
5, 53400, Note_on_c, 1, 51, 88
5, 53516, Note_off_c, 1, 51, 0
5, 53520, Note_on_c, 1, 52, 88
5, 53636, Note_off_c, 1, 52, 0
5, 53640, Note_on_c, 1, 48, 88
5, 53756, Note_off_c, 1, 48, 0
5, 53760, Note_on_c, 1, 45, 88
5, 53876, Note_off_c, 1, 45, 0
5, 53880, Note_on_c, 1, 47, 88
5, 53996, Note_off_c, 1, 47, 0
5, 54000, Note_on_c, 1, 36, 88
5, 54058, Note_off_c, 1, 36, 0
5, 54060, Note_on_c, 1, 40, 88
5, 54118, Note_off_c, 1, 40, 0
5, 54120, Note_on_c, 1, 42, 88
5, 54178, Note_off_c, 1, 42, 0
5, 54180, Note_on_c, 1, 44, 88
5, 54238, Note_off_c, 1, 44, 0
5, 54240, Note_on_c, 1, 45, 88
5, 54298, Note_off_c, 1, 45, 0
5, 54300, Note_on_c, 1, 42, 88
5, 54358, Note_off_c, 1, 42, 0
5, 54360, Note_on_c, 1, 44, 88
5, 54418, Note_off_c, 1, 44, 0
5, 54420, Note_on_c, 1, 47, 88
5, 54478, Note_off_c, 1, 47, 0
5, 54480, Note_on_c, 1, 48, 88
5, 54538, Note_off_c, 1, 48, 0
5, 54540, Note_on_c, 1, 50, 88
5, 54598, Note_off_c, 1, 50, 0
5, 54600, Note_on_c, 1, 52, 88
5, 54658, Note_off_c, 1, 52, 0
5, 54660, Note_on_c, 1, 54, 88
5, 54718, Note_off_c, 1, 54, 0
5, 54720, Note_on_c, 1, 55, 88
5, 54836, Note_off_c, 1, 55, 0
5, 54840, Note_on_c, 1, 54, 88
5, 54956, Note_off_c, 1, 54, 0
5, 54960, Note_on_c, 1, 52, 88
5, 55076, Note_off_c, 1, 52, 0
5, 55080, Note_on_c, 1, 51, 88
5, 55196, Note_off_c, 1, 51, 0
5, 55200, Note_on_c, 1, 47, 88
5, 55316, Note_off_c, 1, 47, 0
5, 55320, Note_on_c, 1, 51, 88
5, 55436, Note_off_c, 1, 51, 0
5, 55440, Note_on_c, 1, 52, 88
5, 55556, Note_off_c, 1, 52, 0
5, 55560, Note_on_c, 1, 45, 88
5, 55676, Note_off_c, 1, 45, 0
5, 55680, Note_on_c, 1, 47, 88
5, 55796, Note_off_c, 1, 47, 0
5, 55800, Note_on_c, 1, 40, 88
5, 56153, Note_off_c, 1, 40, 0
5, 56220, Note_on_c, 1, 59, 88
5, 56278, Note_off_c, 1, 59, 0
5, 56280, Note_on_c, 1, 57, 88
5, 56338, Note_off_c, 1, 57, 0
5, 56340, Note_on_c, 1, 55, 88
5, 56398, Note_off_c, 1, 55, 0
5, 56400, Note_on_c, 1, 54, 88
5, 56458, Note_off_c, 1, 54, 0
5, 56460, Note_on_c, 1, 57, 88
5, 56518, Note_off_c, 1, 57, 0
5, 56520, Note_on_c, 1, 55, 88
5, 56578, Note_off_c, 1, 55, 0
5, 56580, Note_on_c, 1, 59, 88
5, 56638, Note_off_c, 1, 59, 0
5, 56640, Note_on_c, 1, 61, 88
5, 56698, Note_off_c, 1, 61, 0
5, 56700, Note_on_c, 1, 62, 88
5, 56758, Note_off_c, 1, 62, 0
5, 56760, Note_on_c, 1, 64, 88
5, 56818, Note_off_c, 1, 64, 0
5, 56820, Note_on_c, 1, 57, 88
5, 56878, Note_off_c, 1, 57, 0
5, 56880, Note_on_c, 1, 62, 88
5, 56938, Note_off_c, 1, 62, 0
5, 56940, Note_on_c, 1, 55, 88
5, 56998, Note_off_c, 1, 55, 0
5, 57000, Note_on_c, 1, 57, 88
5, 57058, Note_off_c, 1, 57, 0
5, 57060, Note_on_c, 1, 59, 88
5, 57118, Note_off_c, 1, 59, 0
5, 57120, Note_on_c, 1, 60, 88
5, 57178, Note_off_c, 1, 60, 0
5, 57180, Note_on_c, 1, 54, 88
5, 57238, Note_off_c, 1, 54, 0
5, 57240, Note_on_c, 1, 59, 88
5, 57298, Note_off_c, 1, 59, 0
5, 57300, Note_on_c, 1, 52, 88
5, 57358, Note_off_c, 1, 52, 0
5, 57360, Note_on_c, 1, 54, 88
5, 57418, Note_off_c, 1, 54, 0
5, 57420, Note_on_c, 1, 55, 88
5, 57478, Note_off_c, 1, 55, 0
5, 57480, Note_on_c, 1, 57, 88
5, 57538, Note_off_c, 1, 57, 0
5, 57540, Note_on_c, 1, 51, 88
5, 57598, Note_off_c, 1, 51, 0
5, 57600, Note_on_c, 1, 55, 88
5, 57716, Note_off_c, 1, 55, 0
5, 57720, Note_on_c, 1, 57, 88
5, 57836, Note_off_c, 1, 57, 0
5, 57840, Note_on_c, 1, 59, 88
5, 57956, Note_off_c, 1, 59, 0
5, 57960, Note_on_c, 1, 52, 88
5, 58076, Note_off_c, 1, 52, 0
5, 58080, Note_on_c, 1, 50, 88
5, 58196, Note_off_c, 1, 50, 0
5, 58200, Note_on_c, 1, 48, 88
5, 58316, Note_off_c, 1, 48, 0
5, 58320, Note_on_c, 1, 47, 88
5, 58436, Note_off_c, 1, 47, 0
5, 58440, Note_on_c, 1, 40, 88
5, 58556, Note_off_c, 1, 40, 0
5, 58560, Note_on_c, 1, 45, 88
5, 58676, Note_off_c, 1, 45, 0
5, 58680, Note_on_c, 1, 38, 88
5, 58738, Note_off_c, 1, 38, 0
5, 58740, Note_on_c, 1, 36, 88
5, 58798, Note_off_c, 1, 36, 0
5, 58800, Note_on_c, 1, 38, 88
5, 58858, Note_off_c, 1, 38, 0
5, 58860, Note_on_c, 1, 40, 88
5, 58918, Note_off_c, 1, 40, 0
5, 58920, Note_on_c, 1, 41, 88
5, 59036, Note_off_c, 1, 41, 0
5, 59040, Note_on_c, 1, 40, 88
5, 59098, Note_off_c, 1, 40, 0
5, 59100, Note_on_c, 1, 52, 88
5, 59158, Note_off_c, 1, 52, 0
5, 59160, Note_on_c, 1, 50, 88
5, 59218, Note_off_c, 1, 50, 0
5, 59220, Note_on_c, 1, 48, 88
5, 59278, Note_off_c, 1, 48, 0
5, 59280, Note_on_c, 1, 47, 88
5, 59338, Note_off_c, 1, 47, 0
5, 59340, Note_on_c, 1, 50, 88
5, 59398, Note_off_c, 1, 50, 0
5, 59400, Note_on_c, 1, 48, 88
5, 59516, Note_off_c, 1, 48, 0
5, 59520, Note_on_c, 1, 50, 88
5, 59636, Note_off_c, 1, 50, 0
5, 59640, Note_on_c, 1, 52, 88
5, 59756, Note_off_c, 1, 52, 0
5, 59760, Note_on_c, 1, 45, 88
5, 59818, Note_off_c, 1, 45, 0
5, 59820, Note_on_c, 1, 57, 88
5, 59878, Note_off_c, 1, 57, 0
5, 59880, Note_on_c, 1, 55, 88
5, 59938, Note_off_c, 1, 55, 0
5, 59940, Note_on_c, 1, 53, 88
5, 59998, Note_off_c, 1, 53, 0
5, 60000, Note_on_c, 1, 52, 88
5, 60058, Note_off_c, 1, 52, 0
5, 60060, Note_on_c, 1, 55, 88
5, 60118, Note_off_c, 1, 55, 0
5, 60120, Note_on_c, 1, 53, 88
5, 60236, Note_off_c, 1, 53, 0
5, 60240, Note_on_c, 1, 55, 88
5, 60356, Note_off_c, 1, 55, 0
5, 60360, Note_on_c, 1, 57, 88
5, 60476, Note_off_c, 1, 57, 0
5, 60480, Note_on_c, 1, 50, 88
5, 60538, Note_off_c, 1, 50, 0
5, 60540, Note_on_c, 1, 62, 88
5, 60598, Note_off_c, 1, 62, 0
5, 60600, Note_on_c, 1, 60, 88
5, 60658, Note_off_c, 1, 60, 0
5, 60660, Note_on_c, 1, 59, 88
5, 60718, Note_off_c, 1, 59, 0
5, 60720, Note_on_c, 1, 57, 88
5, 60778, Note_off_c, 1, 57, 0
5, 60780, Note_on_c, 1, 60, 88
5, 60838, Note_off_c, 1, 60, 0
5, 60840, Note_on_c, 1, 59, 88
5, 60956, Note_off_c, 1, 59, 0
5, 60960, Note_on_c, 1, 60, 88
5, 61076, Note_off_c, 1, 60, 0
5, 61080, Note_on_c, 1, 62, 88
5, 61196, Note_off_c, 1, 62, 0
5, 61260, Note_on_c, 1, 55, 88
5, 61318, Note_off_c, 1, 55, 0
5, 61320, Note_on_c, 1, 53, 88
5, 61378, Note_off_c, 1, 53, 0
5, 61380, Note_on_c, 1, 52, 88
5, 61438, Note_off_c, 1, 52, 0
5, 61440, Note_on_c, 1, 50, 88
5, 61498, Note_off_c, 1, 50, 0
5, 61500, Note_on_c, 1, 53, 88
5, 61558, Note_off_c, 1, 53, 0
5, 61560, Note_on_c, 1, 43, 88
5, 61618, Note_off_c, 1, 43, 0
5, 61620, Note_on_c, 1, 53, 88
5, 61678, Note_off_c, 1, 53, 0
5, 61680, Note_on_c, 1, 52, 88
5, 61738, Note_off_c, 1, 52, 0
5, 61740, Note_on_c, 1, 50, 88
5, 61798, Note_off_c, 1, 50, 0
5, 61800, Note_on_c, 1, 48, 88
5, 61858, Note_off_c, 1, 48, 0
5, 61860, Note_on_c, 1, 52, 88
5, 61918, Note_off_c, 1, 52, 0
5, 61920, Note_on_c, 1, 43, 88
5, 61978, Note_off_c, 1, 43, 0
5, 61980, Note_on_c, 1, 52, 88
5, 62038, Note_off_c, 1, 52, 0
5, 62040, Note_on_c, 1, 50, 88
5, 62098, Note_off_c, 1, 50, 0
5, 62100, Note_on_c, 1, 48, 88
5, 62158, Note_off_c, 1, 48, 0
5, 62160, Note_on_c, 1, 47, 88
5, 62218, Note_off_c, 1, 47, 0
5, 62220, Note_on_c, 1, 50, 88
5, 62278, Note_off_c, 1, 50, 0
5, 62280, Note_on_c, 1, 43, 88
5, 62396, Note_off_c, 1, 43, 0
5, 62400, Note_on_c, 1, 45, 88
5, 62516, Note_off_c, 1, 45, 0
5, 62520, Note_on_c, 1, 47, 88
5, 62636, Note_off_c, 1, 47, 0
5, 62640, Note_on_c, 1, 48, 88
5, 62698, Note_off_c, 1, 48, 0
5, 62700, Note_on_c, 1, 62, 88
5, 62758, Note_off_c, 1, 62, 0
5, 62760, Note_on_c, 1, 60, 88
5, 62818, Note_off_c, 1, 60, 0
5, 62820, Note_on_c, 1, 59, 88
5, 62878, Note_off_c, 1, 59, 0
5, 62880, Note_on_c, 1, 57, 88
5, 62938, Note_off_c, 1, 57, 0
5, 62940, Note_on_c, 1, 60, 88
5, 62998, Note_off_c, 1, 60, 0
5, 63000, Note_on_c, 1, 47, 88
5, 63058, Note_off_c, 1, 47, 0
5, 63060, Note_on_c, 1, 60, 88
5, 63118, Note_off_c, 1, 60, 0
5, 63120, Note_on_c, 1, 59, 88
5, 63178, Note_off_c, 1, 59, 0
5, 63180, Note_on_c, 1, 57, 88
5, 63238, Note_off_c, 1, 57, 0
5, 63240, Note_on_c, 1, 56, 88
5, 63298, Note_off_c, 1, 56, 0
5, 63300, Note_on_c, 1, 59, 88
5, 63358, Note_off_c, 1, 59, 0
5, 63360, Note_on_c, 1, 45, 88
5, 63418, Note_off_c, 1, 45, 0
5, 63420, Note_on_c, 1, 59, 88
5, 63478, Note_off_c, 1, 59, 0
5, 63480, Note_on_c, 1, 57, 88
5, 63538, Note_off_c, 1, 57, 0
5, 63540, Note_on_c, 1, 56, 88
5, 63598, Note_off_c, 1, 56, 0
5, 63600, Note_on_c, 1, 54, 88
5, 63658, Note_off_c, 1, 54, 0
5, 63660, Note_on_c, 1, 57, 88
5, 63718, Note_off_c, 1, 57, 0
5, 63720, Note_on_c, 1, 51, 88
5, 63836, Note_off_c, 1, 51, 0
5, 63840, Note_on_c, 1, 52, 88
5, 63956, Note_off_c, 1, 52, 0
5, 63960, Note_on_c, 1, 53, 88
5, 64076, Note_off_c, 1, 53, 0
5, 64080, Note_on_c, 1, 52, 88
5, 64138, Note_off_c, 1, 52, 0
5, 64140, Note_on_c, 1, 50, 88
5, 64198, Note_off_c, 1, 50, 0
5, 64200, Note_on_c, 1, 52, 88
5, 64316, Note_off_c, 1, 52, 0
5, 64320, Note_on_c, 1, 40, 88
5, 64436, Note_off_c, 1, 40, 0
5, 64440, Note_on_c, 1, 45, 88
5, 64498, Note_off_c, 1, 45, 0
5, 64500, Note_on_c, 1, 57, 88
5, 64558, Note_off_c, 1, 57, 0
5, 64560, Note_on_c, 1, 55, 88
5, 64618, Note_off_c, 1, 55, 0
5, 64620, Note_on_c, 1, 54, 88
5, 64678, Note_off_c, 1, 54, 0
5, 64680, Note_on_c, 1, 52, 88
5, 64738, Note_off_c, 1, 52, 0
5, 64740, Note_on_c, 1, 55, 88
5, 64798, Note_off_c, 1, 55, 0
5, 64800, Note_on_c, 1, 54, 88
5, 64916, Note_off_c, 1, 54, 0
5, 64920, Note_on_c, 1, 50, 88
5, 65036, Note_off_c, 1, 50, 0
5, 65040, Note_on_c, 1, 54, 88
5, 65156, Note_off_c, 1, 54, 0
5, 65160, Note_on_c, 1, 55, 88
5, 65276, Note_off_c, 1, 55, 0
5, 65280, Note_on_c, 1, 54, 88
5, 65396, Note_off_c, 1, 54, 0
5, 65400, Note_on_c, 1, 52, 88
5, 65516, Note_off_c, 1, 52, 0
5, 65520, Note_on_c, 1, 50, 88
5, 65578, Note_off_c, 1, 50, 0
5, 65580, Note_on_c, 1, 55, 88
5, 65638, Note_off_c, 1, 55, 0
5, 65640, Note_on_c, 1, 57, 88
5, 65698, Note_off_c, 1, 57, 0
5, 65700, Note_on_c, 1, 59, 88
5, 65758, Note_off_c, 1, 59, 0
5, 65760, Note_on_c, 1, 60, 88
5, 65938, Note_off_c, 1, 60, 0
5, 65940, Note_on_c, 1, 59, 88
5, 65998, Note_off_c, 1, 59, 0
5, 66000, Note_on_c, 1, 57, 88
5, 66058, Note_off_c, 1, 57, 0
5, 66060, Note_on_c, 1, 55, 88
5, 66118, Note_off_c, 1, 55, 0
5, 66120, Note_on_c, 1, 57, 88
5, 66298, Note_off_c, 1, 57, 0
5, 66300, Note_on_c, 1, 59, 88
5, 66358, Note_off_c, 1, 59, 0
5, 66360, Note_on_c, 1, 57, 88
5, 66418, Note_off_c, 1, 57, 0
5, 66420, Note_on_c, 1, 55, 88
5, 66478, Note_off_c, 1, 55, 0
5, 66480, Note_on_c, 1, 54, 88
5, 66538, Note_off_c, 1, 54, 0
5, 66540, Note_on_c, 1, 57, 88
5, 66598, Note_off_c, 1, 57, 0
5, 66600, Note_on_c, 1, 55, 88
5, 66658, Note_off_c, 1, 55, 0
5, 66660, Note_on_c, 1, 59, 88
5, 66718, Note_off_c, 1, 59, 0
5, 66720, Note_on_c, 1, 61, 88
5, 66778, Note_off_c, 1, 61, 0
5, 66780, Note_on_c, 1, 63, 88
5, 66838, Note_off_c, 1, 63, 0
5, 66840, Note_on_c, 1, 64, 88
5, 66898, Note_off_c, 1, 64, 0
5, 66900, Note_on_c, 1, 57, 88
5, 66958, Note_off_c, 1, 57, 0
5, 66960, Note_on_c, 1, 62, 88
5, 67018, Note_off_c, 1, 62, 0
5, 67020, Note_on_c, 1, 55, 88
5, 67078, Note_off_c, 1, 55, 0
5, 67080, Note_on_c, 1, 57, 88
5, 67138, Note_off_c, 1, 57, 0
5, 67140, Note_on_c, 1, 59, 88
5, 67198, Note_off_c, 1, 59, 0
5, 67200, Note_on_c, 1, 60, 88
5, 67258, Note_off_c, 1, 60, 0
5, 67260, Note_on_c, 1, 54, 88
5, 67318, Note_off_c, 1, 54, 0
5, 67320, Note_on_c, 1, 59, 88
5, 67378, Note_off_c, 1, 59, 0
5, 67380, Note_on_c, 1, 52, 88
5, 67438, Note_off_c, 1, 52, 0
5, 67440, Note_on_c, 1, 54, 88
5, 67498, Note_off_c, 1, 54, 0
5, 67500, Note_on_c, 1, 55, 88
5, 67558, Note_off_c, 1, 55, 0
5, 67560, Note_on_c, 1, 57, 88
5, 67618, Note_off_c, 1, 57, 0
5, 67620, Note_on_c, 1, 50, 88
5, 67678, Note_off_c, 1, 50, 0
5, 67680, Note_on_c, 1, 55, 88
5, 67738, Note_off_c, 1, 55, 0
5, 67740, Note_on_c, 1, 54, 88
5, 67798, Note_off_c, 1, 54, 0
5, 67800, Note_on_c, 1, 55, 88
5, 67858, Note_off_c, 1, 55, 0
5, 67860, Note_on_c, 1, 57, 88
5, 67918, Note_off_c, 1, 57, 0
5, 67920, Note_on_c, 1, 59, 88
5, 67978, Note_off_c, 1, 59, 0
5, 67980, Note_on_c, 1, 61, 88
5, 68038, Note_off_c, 1, 61, 0
5, 68040, Note_on_c, 1, 62, 88
5, 68098, Note_off_c, 1, 62, 0
5, 68100, Note_on_c, 1, 57, 88
5, 68158, Note_off_c, 1, 57, 0
5, 68160, Note_on_c, 1, 59, 88
5, 68218, Note_off_c, 1, 59, 0
5, 68220, Note_on_c, 1, 60, 88
5, 68278, Note_off_c, 1, 60, 0
5, 68280, Note_on_c, 1, 62, 88
5, 68458, Note_off_c, 1, 62, 0
5, 68460, Note_on_c, 1, 61, 88
5, 68518, Note_off_c, 1, 61, 0
5, 68520, Note_on_c, 1, 63, 88
5, 68578, Note_off_c, 1, 63, 0
5, 68580, Note_on_c, 1, 64, 88
5, 68638, Note_off_c, 1, 64, 0
5, 68640, Note_on_c, 1, 66, 88
5, 68698, Note_off_c, 1, 66, 0
5, 68700, Note_on_c, 1, 63, 88
5, 68758, Note_off_c, 1, 63, 0
5, 68760, Note_on_c, 1, 64, 88
5, 68818, Note_off_c, 1, 64, 0
5, 68820, Note_on_c, 1, 52, 88
5, 68878, Note_off_c, 1, 52, 0
5, 68880, Note_on_c, 1, 54, 88
5, 68938, Note_off_c, 1, 54, 0
5, 68940, Note_on_c, 1, 55, 88
5, 68998, Note_off_c, 1, 55, 0
5, 69000, Note_on_c, 1, 57, 88
5, 69058, Note_off_c, 1, 57, 0
5, 69060, Note_on_c, 1, 54, 88
5, 69118, Note_off_c, 1, 54, 0
5, 69120, Note_on_c, 1, 55, 88
5, 69236, Note_off_c, 1, 55, 0
5, 69240, Note_on_c, 1, 54, 88
5, 69356, Note_off_c, 1, 54, 0
5, 69360, Note_on_c, 1, 52, 88
5, 69476, Note_off_c, 1, 52, 0
5, 69480, Note_on_c, 1, 60, 88
5, 69498, Note_off_c, 1, 60, 0
5, 69499, Note_on_c, 1, 59, 88
5, 69521, Note_off_c, 1, 59, 0
5, 69521, Note_on_c, 1, 60, 88
5, 69543, Note_off_c, 1, 60, 0
5, 69544, Note_on_c, 1, 59, 88
5, 69566, Note_off_c, 1, 59, 0
5, 69566, Note_on_c, 1, 60, 88
5, 69588, Note_off_c, 1, 60, 0
5, 69589, Note_on_c, 1, 59, 88
5, 69611, Note_off_c, 1, 59, 0
5, 69611, Note_on_c, 1, 60, 88
5, 69633, Note_off_c, 1, 60, 0
5, 69634, Note_on_c, 1, 59, 88
5, 69652, Note_off_c, 1, 59, 0
5, 69653, Note_on_c, 1, 60, 88
5, 69671, Note_on_c, 1, 59, 88
5, 69671, Note_off_c, 1, 60, 0
5, 69689, Note_off_c, 1, 59, 0
5, 69690, Note_on_c, 1, 60, 88
5, 69708, Note_off_c, 1, 60, 0
5, 69709, Note_on_c, 1, 59, 88
5, 69727, Note_off_c, 1, 59, 0
5, 69728, Note_on_c, 1, 60, 88
5, 69746, Note_on_c, 1, 59, 88
5, 69746, Note_off_c, 1, 60, 0
5, 69764, Note_off_c, 1, 59, 0
5, 69765, Note_on_c, 1, 60, 88
5, 69783, Note_off_c, 1, 60, 0
5, 69784, Note_on_c, 1, 59, 88
5, 69802, Note_off_c, 1, 59, 0
5, 69803, Note_on_c, 1, 60, 88
5, 69821, Note_on_c, 1, 59, 88
5, 69821, Note_off_c, 1, 60, 0
5, 69839, Note_off_c, 1, 59, 0
5, 69840, Note_on_c, 1, 60, 88
5, 69858, Note_off_c, 1, 60, 0
5, 69859, Note_on_c, 1, 59, 88
5, 69881, Note_off_c, 1, 59, 0
5, 69881, Note_on_c, 1, 60, 88
5, 69903, Note_off_c, 1, 60, 0
5, 69904, Note_on_c, 1, 59, 88
5, 69926, Note_off_c, 1, 59, 0
5, 69926, Note_on_c, 1, 60, 88
5, 69948, Note_off_c, 1, 60, 0
5, 69949, Note_on_c, 1, 59, 88
5, 69971, Note_off_c, 1, 59, 0
5, 69971, Note_on_c, 1, 60, 88
5, 69993, Note_off_c, 1, 60, 0
5, 69994, Note_on_c, 1, 59, 88
5, 70012, Note_off_c, 1, 59, 0
5, 70013, Note_on_c, 1, 60, 88
5, 70031, Note_on_c, 1, 59, 88
5, 70031, Note_off_c, 1, 60, 0
5, 70049, Note_off_c, 1, 59, 0
5, 70050, Note_on_c, 1, 60, 88
5, 70068, Note_off_c, 1, 60, 0
5, 70069, Note_on_c, 1, 59, 88
5, 70087, Note_off_c, 1, 59, 0
5, 70088, Note_on_c, 1, 60, 88
5, 70106, Note_on_c, 1, 59, 88
5, 70106, Note_off_c, 1, 60, 0
5, 70124, Note_off_c, 1, 59, 0
5, 70125, Note_on_c, 1, 60, 88
5, 70143, Note_off_c, 1, 60, 0
5, 70144, Note_on_c, 1, 59, 88
5, 70162, Note_off_c, 1, 59, 0
5, 70163, Note_on_c, 1, 60, 88
5, 70181, Note_on_c, 1, 59, 88
5, 70181, Note_off_c, 1, 60, 0
5, 70199, Note_off_c, 1, 59, 0
5, 70200, Note_on_c, 1, 60, 88
5, 70218, Note_off_c, 1, 60, 0
5, 70219, Note_on_c, 1, 59, 88
5, 70241, Note_off_c, 1, 59, 0
5, 70241, Note_on_c, 1, 60, 88
5, 70263, Note_off_c, 1, 60, 0
5, 70264, Note_on_c, 1, 59, 88
5, 70286, Note_off_c, 1, 59, 0
5, 70286, Note_on_c, 1, 60, 88
5, 70308, Note_off_c, 1, 60, 0
5, 70309, Note_on_c, 1, 59, 88
5, 70331, Note_off_c, 1, 59, 0
5, 70331, Note_on_c, 1, 60, 88
5, 70353, Note_off_c, 1, 60, 0
5, 70354, Note_on_c, 1, 59, 88
5, 70376, Note_off_c, 1, 59, 0
5, 70376, Note_on_c, 1, 60, 88
5, 70398, Note_off_c, 1, 60, 0
5, 70399, Note_on_c, 1, 59, 88
5, 70421, Note_off_c, 1, 59, 0
5, 70421, Note_on_c, 1, 60, 88
5, 70439, Note_off_c, 1, 60, 0
5, 70440, Note_on_c, 1, 59, 88
5, 70556, Note_off_c, 1, 59, 0
5, 70620, Note_on_c, 1, 56, 88
5, 70678, Note_off_c, 1, 56, 0
5, 70680, Note_on_c, 1, 57, 88
5, 70738, Note_off_c, 1, 57, 0
5, 70740, Note_on_c, 1, 59, 88
5, 70798, Note_off_c, 1, 59, 0
5, 70800, Note_on_c, 1, 60, 88
5, 70858, Note_off_c, 1, 60, 0
5, 70860, Note_on_c, 1, 57, 88
5, 70918, Note_off_c, 1, 57, 0
5, 70920, Note_on_c, 1, 59, 88
5, 70978, Note_off_c, 1, 59, 0
5, 70980, Note_on_c, 1, 57, 88
5, 71038, Note_off_c, 1, 57, 0
5, 71040, Note_on_c, 1, 56, 88
5, 71098, Note_off_c, 1, 56, 0
5, 71100, Note_on_c, 1, 54, 88
5, 71158, Note_off_c, 1, 54, 0
5, 71160, Note_on_c, 1, 52, 88
5, 71218, Note_off_c, 1, 52, 0
5, 71220, Note_on_c, 1, 50, 88
5, 71278, Note_off_c, 1, 50, 0
5, 71280, Note_on_c, 1, 48, 88
5, 71338, Note_off_c, 1, 48, 0
5, 71340, Note_on_c, 1, 52, 88
5, 71398, Note_off_c, 1, 52, 0
5, 71400, Note_on_c, 1, 54, 88
5, 71458, Note_off_c, 1, 54, 0
5, 71460, Note_on_c, 1, 56, 88
5, 71518, Note_off_c, 1, 56, 0
5, 71520, Note_on_c, 1, 57, 88
5, 71578, Note_off_c, 1, 57, 0
5, 71580, Note_on_c, 1, 54, 88
5, 71638, Note_off_c, 1, 54, 0
5, 71640, Note_on_c, 1, 56, 88
5, 71698, Note_off_c, 1, 56, 0
5, 71700, Note_on_c, 1, 54, 88
5, 71758, Note_off_c, 1, 54, 0
5, 71760, Note_on_c, 1, 52, 88
5, 71818, Note_off_c, 1, 52, 0
5, 71820, Note_on_c, 1, 50, 88
5, 71878, Note_off_c, 1, 50, 0
5, 71880, Note_on_c, 1, 48, 88
5, 71938, Note_off_c, 1, 48, 0
5, 71940, Note_on_c, 1, 47, 88
5, 71998, Note_off_c, 1, 47, 0
5, 72000, Note_on_c, 1, 45, 88
5, 72116, Note_off_c, 1, 45, 0
5, 72120, Note_on_c, 1, 52, 88
5, 72236, Note_off_c, 1, 52, 0
5, 72240, Note_on_c, 1, 56, 88
5, 72356, Note_off_c, 1, 56, 0
5, 72360, Note_on_c, 1, 57, 88
5, 72418, Note_off_c, 1, 57, 0
5, 72420, Note_on_c, 1, 59, 88
5, 72478, Note_off_c, 1, 59, 0
5, 72480, Note_on_c, 1, 57, 88
5, 72538, Note_off_c, 1, 57, 0
5, 72540, Note_on_c, 1, 55, 88
5, 72598, Note_off_c, 1, 55, 0
5, 72600, Note_on_c, 1, 54, 88
5, 72658, Note_off_c, 1, 54, 0
5, 72660, Note_on_c, 1, 57, 88
5, 72718, Note_off_c, 1, 57, 0
5, 72720, Note_on_c, 1, 51, 88
5, 72836, Note_off_c, 1, 51, 0
5, 72840, Note_on_c, 1, 60, 88
5, 73138, Note_off_c, 1, 60, 0
5, 73140, Note_on_c, 1, 57, 88
5, 73198, Note_off_c, 1, 57, 0
5, 73200, Note_on_c, 1, 54, 88
5, 73258, Note_off_c, 1, 54, 0
5, 73260, Note_on_c, 1, 57, 88
5, 73318, Note_off_c, 1, 57, 0
5, 73320, Note_on_c, 1, 51, 88
5, 73378, Note_off_c, 1, 51, 0
5, 73380, Note_on_c, 1, 54, 88
5, 73438, Note_off_c, 1, 54, 0
5, 73440, Note_on_c, 1, 47, 88
5, 73556, Note_off_c, 1, 47, 0
5, 73560, Note_on_c, 1, 64, 88
5, 73582, Note_off_c, 1, 64, 0
5, 73583, Note_on_c, 1, 63, 88
5, 73604, Note_off_c, 1, 63, 0
5, 73605, Note_on_c, 1, 64, 88
5, 73627, Note_off_c, 1, 64, 0
5, 73628, Note_on_c, 1, 63, 88
5, 73649, Note_off_c, 1, 63, 0
5, 73650, Note_on_c, 1, 64, 88
5, 73672, Note_off_c, 1, 64, 0
5, 73673, Note_on_c, 1, 63, 88
5, 73694, Note_off_c, 1, 63, 0
5, 73695, Note_on_c, 1, 64, 88
5, 73717, Note_off_c, 1, 64, 0
5, 73718, Note_on_c, 1, 63, 88
5, 73739, Note_off_c, 1, 63, 0
5, 73740, Note_on_c, 1, 61, 88
5, 73769, Note_off_c, 1, 61, 0
5, 73770, Note_on_c, 1, 63, 88
5, 73799, Note_off_c, 1, 63, 0
5, 73800, Note_on_c, 1, 64, 88
5, 73858, Note_off_c, 1, 64, 0
5, 73860, Note_on_c, 1, 63, 88
5, 73918, Note_off_c, 1, 63, 0
5, 73920, Note_on_c, 1, 64, 88
5, 73978, Note_off_c, 1, 64, 0
5, 73980, Note_on_c, 1, 66, 88
5, 74038, Note_off_c, 1, 66, 0
5, 74040, Note_on_c, 1, 67, 88
5, 74098, Note_off_c, 1, 67, 0
5, 74100, Note_on_c, 1, 64, 88
5, 74158, Note_off_c, 1, 64, 0
5, 74160, Note_on_c, 1, 58, 88
5, 74218, Note_off_c, 1, 58, 0
5, 74220, Note_on_c, 1, 59, 88
5, 74278, Note_off_c, 1, 59, 0
5, 74280, Note_on_c, 1, 61, 88
5, 74338, Note_off_c, 1, 61, 0
5, 74340, Note_on_c, 1, 62, 88
5, 74398, Note_off_c, 1, 62, 0
5, 74400, Note_on_c, 1, 64, 88
5, 74458, Note_off_c, 1, 64, 0
5, 74460, Note_on_c, 1, 61, 88
5, 74518, Note_off_c, 1, 61, 0
5, 74520, Note_on_c, 1, 54, 88
5, 74636, Note_off_c, 1, 54, 0
5, 74640, Note_on_c, 1, 58, 88
5, 74756, Note_off_c, 1, 58, 0
5, 74760, Note_on_c, 1, 59, 88
5, 74876, Note_off_c, 1, 59, 0
5, 74880, Note_on_c, 1, 60, 88
5, 74996, Note_off_c, 1, 60, 0
5, 75000, Note_on_c, 1, 51, 88
5, 75116, Note_off_c, 1, 51, 0
5, 75120, Note_on_c, 1, 52, 88
5, 75236, Note_off_c, 1, 52, 0
5, 75240, Note_on_c, 1, 48, 88
5, 75356, Note_off_c, 1, 48, 0
5, 75360, Note_on_c, 1, 45, 88
5, 75476, Note_off_c, 1, 45, 0
5, 75480, Note_on_c, 1, 47, 88
5, 75596, Note_off_c, 1, 47, 0
5, 75600, Note_on_c, 1, 36, 88
5, 75658, Note_off_c, 1, 36, 0
5, 75660, Note_on_c, 1, 40, 88
5, 75718, Note_off_c, 1, 40, 0
5, 75720, Note_on_c, 1, 42, 88
5, 75778, Note_off_c, 1, 42, 0
5, 75780, Note_on_c, 1, 44, 88
5, 75838, Note_off_c, 1, 44, 0
5, 75840, Note_on_c, 1, 45, 88
5, 75898, Note_off_c, 1, 45, 0
5, 75900, Note_on_c, 1, 42, 88
5, 75958, Note_off_c, 1, 42, 0
5, 75960, Note_on_c, 1, 44, 88
5, 76018, Note_off_c, 1, 44, 0
5, 76020, Note_on_c, 1, 47, 88
5, 76078, Note_off_c, 1, 47, 0
5, 76080, Note_on_c, 1, 48, 88
5, 76138, Note_off_c, 1, 48, 0
5, 76140, Note_on_c, 1, 50, 88
5, 76198, Note_off_c, 1, 50, 0
5, 76200, Note_on_c, 1, 52, 88
5, 76258, Note_off_c, 1, 52, 0
5, 76260, Note_on_c, 1, 54, 88
5, 76318, Note_off_c, 1, 54, 0
5, 76320, Note_on_c, 1, 55, 88
5, 76436, Note_off_c, 1, 55, 0
5, 76440, Note_on_c, 1, 54, 88
5, 76556, Note_off_c, 1, 54, 0
5, 76560, Note_on_c, 1, 52, 88
5, 76676, Note_off_c, 1, 52, 0
5, 76680, Note_on_c, 1, 51, 88
5, 76796, Note_off_c, 1, 51, 0
5, 76800, Note_on_c, 1, 47, 88
5, 76916, Note_off_c, 1, 47, 0
5, 76920, Note_on_c, 1, 51, 88
5, 77036, Note_off_c, 1, 51, 0
5, 77040, Note_on_c, 1, 52, 88
5, 77156, Note_off_c, 1, 52, 0
5, 77160, Note_on_c, 1, 45, 88
5, 77276, Note_off_c, 1, 45, 0
5, 77280, Note_on_c, 1, 47, 88
5, 77396, Note_off_c, 1, 47, 0
5, 77400, Note_on_c, 1, 40, 88
5, 77753, Note_off_c, 1, 40, 0
5, 77753, End_track
0, 0, End_of_file
