0, 0, Header, 1, 9, 240
1, 0, Start_track
1, 0, Time_signature, 3, 1, 24, 8
1, 0, Tempo, 500000
1, 0, SMPTE_offset, 64, 0, 0, 0, 93
1, 0, End_track
2, 0, Start_track
2, 0, Title_t, "(C) & (P) 1993"
2, 127, End_track
3, 0, Start_track
3, 0, Title_t, "CCARH,Stanford"
3, 0, End_track
4, 0, Start_track
4, 0, Title_t, "Track 1"
4, 0, Program_c, 0, 6
4, 120, Note_on_c, 0, 76, 88
4, 236, Note_off_c, 0, 76, 0
4, 240, Note_on_c, 0, 77, 88
4, 356, Note_off_c, 0, 77, 0
4, 360, Note_on_c, 0, 79, 88
4, 476, Note_off_c, 0, 79, 0
4, 480, Note_on_c, 0, 77, 88
4, 596, Note_off_c, 0, 77, 0
4, 600, Note_on_c, 0, 76, 88
4, 716, Note_off_c, 0, 76, 0
4, 720, Note_on_c, 0, 74, 88
4, 836, Note_off_c, 0, 74, 0
4, 840, Note_on_c, 0, 72, 88
4, 956, Note_off_c, 0, 72, 0
4, 960, Note_on_c, 0, 74, 88
4, 1076, Note_off_c, 0, 74, 0
4, 1080, Note_on_c, 0, 72, 88
4, 1196, Note_off_c, 0, 72, 0
4, 1200, Note_on_c, 0, 70, 88
4, 1316, Note_off_c, 0, 70, 0
4, 1320, Note_on_c, 0, 69, 88
4, 1436, Note_off_c, 0, 69, 0
4, 1440, Note_on_c, 0, 70, 88
4, 3350, Note_off_c, 0, 70, 0
4, 3360, Note_on_c, 0, 69, 88
4, 3830, Note_off_c, 0, 69, 0
4, 3840, Note_on_c, 0, 68, 88
4, 4429, Note_off_c, 0, 68, 0
4, 4440, Note_on_c, 0, 68, 88
4, 4556, Note_off_c, 0, 68, 0
4, 4560, Note_on_c, 0, 67, 88
4, 4676, Note_off_c, 0, 67, 0
4, 4680, Note_on_c, 0, 65, 88
4, 4796, Note_off_c, 0, 65, 0
4, 4800, Note_on_c, 0, 67, 88
4, 5745, Note_off_c, 0, 67, 0
4, 6840, Note_on_c, 0, 69, 88
4, 6956, Note_off_c, 0, 69, 0
4, 6960, Note_on_c, 0, 70, 88
4, 7076, Note_off_c, 0, 70, 0
4, 7080, Note_on_c, 0, 72, 88
4, 7790, Note_off_c, 0, 72, 0
4, 7800, Note_on_c, 0, 69, 88
4, 7916, Note_off_c, 0, 69, 0
4, 7920, Note_on_c, 0, 70, 88
4, 9703, Note_off_c, 0, 70, 0
4, 9720, Note_on_c, 0, 67, 88
4, 9836, Note_off_c, 0, 67, 0
4, 9840, Note_on_c, 0, 69, 88
4, 9956, Note_off_c, 0, 69, 0
4, 9960, Note_on_c, 0, 70, 88
4, 10670, Note_off_c, 0, 70, 0
4, 10680, Note_on_c, 0, 67, 88
4, 10796, Note_off_c, 0, 67, 0
4, 10800, Note_on_c, 0, 69, 88
4, 11636, Note_off_c, 0, 69, 0
4, 11640, Note_on_c, 0, 72, 88
4, 11756, Note_off_c, 0, 72, 0
4, 11760, Note_on_c, 0, 74, 88
4, 11876, Note_off_c, 0, 74, 0
4, 11880, Note_on_c, 0, 75, 88
4, 11996, Note_off_c, 0, 75, 0
4, 12000, Note_on_c, 0, 74, 88
4, 12945, Note_off_c, 0, 74, 0
4, 12960, Note_on_c, 0, 76, 88
4, 13905, Note_off_c, 0, 76, 0
4, 13920, Note_on_c, 0, 77, 88
4, 14516, Note_off_c, 0, 77, 0
4, 14520, Note_on_c, 0, 76, 88
4, 14636, Note_off_c, 0, 76, 0
4, 14640, Note_on_c, 0, 77, 88
4, 14756, Note_off_c, 0, 77, 0
4, 14760, Note_on_c, 0, 79, 88
4, 14876, Note_off_c, 0, 79, 0
4, 14880, Note_on_c, 0, 77, 88
4, 14996, Note_off_c, 0, 77, 0
4, 15000, Note_on_c, 0, 76, 88
4, 15116, Note_off_c, 0, 76, 0
4, 15120, Note_on_c, 0, 74, 88
4, 15236, Note_off_c, 0, 74, 0
4, 15240, Note_on_c, 0, 72, 88
4, 15356, Note_off_c, 0, 72, 0
4, 15360, Note_on_c, 0, 74, 88
4, 15476, Note_off_c, 0, 74, 0
4, 15480, Note_on_c, 0, 72, 88
4, 15596, Note_off_c, 0, 72, 0
4, 15600, Note_on_c, 0, 71, 88
4, 15716, Note_off_c, 0, 71, 0
4, 15720, Note_on_c, 0, 69, 88
4, 15836, Note_off_c, 0, 69, 0
4, 15840, Note_on_c, 0, 71, 88
4, 16785, Note_off_c, 0, 71, 0
4, 16800, Note_on_c, 0, 72, 88
4, 17988, Note_off_c, 0, 72, 0
4, 18000, Note_on_c, 0, 72, 88
4, 18234, Note_off_c, 0, 72, 0
4, 18240, Note_on_c, 0, 74, 88
4, 18474, Note_off_c, 0, 74, 0
4, 18480, Note_on_c, 0, 77, 88
4, 18714, Note_off_c, 0, 77, 0
4, 18720, Note_on_c, 0, 71, 88
4, 18954, Note_off_c, 0, 71, 0
4, 18960, Note_on_c, 0, 72, 88
4, 19194, Note_off_c, 0, 72, 0
4, 19200, Note_on_c, 0, 74, 88
4, 19790, Note_off_c, 0, 74, 0
4, 19800, Note_on_c, 0, 67, 88
4, 19916, Note_off_c, 0, 67, 0
4, 19920, Note_on_c, 0, 69, 88
4, 20036, Note_off_c, 0, 69, 0
4, 20040, Note_on_c, 0, 71, 88
4, 20156, Note_off_c, 0, 71, 0
4, 20160, Note_on_c, 0, 72, 88
4, 21341, Note_off_c, 0, 72, 0
4, 21360, Note_on_c, 0, 72, 88
4, 21476, Note_off_c, 0, 72, 0
4, 21480, Note_on_c, 0, 71, 88
4, 21596, Note_off_c, 0, 71, 0
4, 21600, Note_on_c, 0, 72, 88
4, 23156, Note_off_c, 0, 72, 0
4, 23160, Note_on_c, 0, 71, 88
4, 23276, Note_off_c, 0, 71, 0
4, 23280, Note_on_c, 0, 72, 88
4, 23396, Note_off_c, 0, 72, 0
4, 23400, Note_on_c, 0, 74, 88
4, 23516, Note_off_c, 0, 74, 0
4, 23520, Note_on_c, 0, 72, 88
4, 23636, Note_off_c, 0, 72, 0
4, 23640, Note_on_c, 0, 71, 88
4, 23756, Note_off_c, 0, 71, 0
4, 23760, Note_on_c, 0, 69, 88
4, 23876, Note_off_c, 0, 69, 0
4, 23880, Note_on_c, 0, 67, 88
4, 23996, Note_off_c, 0, 67, 0
4, 24000, Note_on_c, 0, 69, 88
4, 24116, Note_off_c, 0, 69, 0
4, 24120, Note_on_c, 0, 67, 88
4, 24236, Note_off_c, 0, 67, 0
4, 24240, Note_on_c, 0, 65, 88
4, 24356, Note_off_c, 0, 65, 0
4, 24360, Note_on_c, 0, 64, 88
4, 24476, Note_off_c, 0, 64, 0
4, 24480, Note_on_c, 0, 65, 88
4, 26390, Note_off_c, 0, 65, 0
4, 26400, Note_on_c, 0, 64, 88
4, 26870, Note_off_c, 0, 64, 0
4, 26880, Note_on_c, 0, 63, 88
4, 27469, Note_off_c, 0, 63, 0
4, 27480, Note_on_c, 0, 63, 88
4, 27596, Note_off_c, 0, 63, 0
4, 27600, Note_on_c, 0, 62, 88
4, 27716, Note_off_c, 0, 62, 0
4, 27720, Note_on_c, 0, 60, 88
4, 27836, Note_off_c, 0, 60, 0
4, 27840, Note_on_c, 0, 62, 88
4, 28785, Note_off_c, 0, 62, 0
4, 29880, Note_on_c, 0, 64, 88
4, 29996, Note_off_c, 0, 64, 0
4, 30000, Note_on_c, 0, 65, 88
4, 30116, Note_off_c, 0, 65, 0
4, 30120, Note_on_c, 0, 67, 88
4, 30830, Note_off_c, 0, 67, 0
4, 30840, Note_on_c, 0, 64, 88
4, 30956, Note_off_c, 0, 64, 0
4, 30960, Note_on_c, 0, 65, 88
4, 32743, Note_off_c, 0, 65, 0
4, 32760, Note_on_c, 0, 62, 88
4, 32876, Note_off_c, 0, 62, 0
4, 32880, Note_on_c, 0, 64, 88
4, 32996, Note_off_c, 0, 64, 0
4, 33000, Note_on_c, 0, 65, 88
4, 33710, Note_off_c, 0, 65, 0
4, 33720, Note_on_c, 0, 62, 88
4, 33836, Note_off_c, 0, 62, 0
4, 33840, Note_on_c, 0, 64, 88
4, 34676, Note_off_c, 0, 64, 0
4, 34680, Note_on_c, 0, 67, 88
4, 34796, Note_off_c, 0, 67, 0
4, 34800, Note_on_c, 0, 69, 88
4, 34916, Note_off_c, 0, 69, 0
4, 34920, Note_on_c, 0, 70, 88
4, 35036, Note_off_c, 0, 70, 0
4, 35040, Note_on_c, 0, 69, 88
4, 35985, Note_off_c, 0, 69, 0
4, 36000, Note_on_c, 0, 71, 88
4, 36945, Note_off_c, 0, 71, 0
4, 36960, Note_on_c, 0, 72, 88
4, 37549, Note_off_c, 0, 72, 0
4, 37560, Note_on_c, 0, 72, 88
4, 37676, Note_off_c, 0, 72, 0
4, 37680, Note_on_c, 0, 74, 88
4, 37796, Note_off_c, 0, 74, 0
4, 37800, Note_on_c, 0, 75, 88
4, 37916, Note_off_c, 0, 75, 0
4, 37920, Note_on_c, 0, 74, 88
4, 38865, Note_off_c, 0, 74, 0
4, 38880, Note_on_c, 0, 76, 88
4, 39825, Note_off_c, 0, 76, 0
4, 39840, Note_on_c, 0, 77, 88
4, 40429, Note_off_c, 0, 77, 0
4, 40440, Note_on_c, 0, 77, 88
4, 40556, Note_off_c, 0, 77, 0
4, 40560, Note_on_c, 0, 79, 88
4, 40676, Note_off_c, 0, 79, 0
4, 40680, Note_on_c, 0, 81, 88
4, 40796, Note_off_c, 0, 81, 0
4, 40800, Note_on_c, 0, 79, 88
4, 40916, Note_off_c, 0, 79, 0
4, 40920, Note_on_c, 0, 77, 88
4, 41036, Note_off_c, 0, 77, 0
4, 41040, Note_on_c, 0, 76, 88
4, 41156, Note_off_c, 0, 76, 0
4, 41160, Note_on_c, 0, 74, 88
4, 41276, Note_off_c, 0, 74, 0
4, 41280, Note_on_c, 0, 76, 88
4, 41396, Note_off_c, 0, 76, 0
4, 41400, Note_on_c, 0, 74, 88
4, 41516, Note_off_c, 0, 74, 0
4, 41520, Note_on_c, 0, 73, 88
4, 41636, Note_off_c, 0, 73, 0
4, 41640, Note_on_c, 0, 71, 88
4, 41756, Note_off_c, 0, 71, 0
4, 41760, Note_on_c, 0, 73, 88
4, 42705, Note_off_c, 0, 73, 0
4, 42720, Note_on_c, 0, 74, 88
4, 43434, Note_off_c, 0, 74, 0
4, 43440, Note_on_c, 0, 77, 88
4, 43674, Note_off_c, 0, 77, 0
4, 43680, Note_on_c, 0, 76, 88
4, 43914, Note_off_c, 0, 76, 0
4, 43920, Note_on_c, 0, 79, 88
4, 44154, Note_off_c, 0, 79, 0
4, 44160, Note_on_c, 0, 73, 88
4, 44394, Note_off_c, 0, 73, 0
4, 44400, Note_on_c, 0, 74, 88
4, 44749, Note_off_c, 0, 74, 0
4, 44760, Note_on_c, 0, 74, 88
4, 44876, Note_off_c, 0, 74, 0
4, 44880, Note_on_c, 0, 73, 88
4, 44996, Note_off_c, 0, 73, 0
4, 45000, Note_on_c, 0, 71, 88
4, 45116, Note_off_c, 0, 71, 0
4, 45120, Note_on_c, 0, 73, 88
4, 46065, Note_off_c, 0, 73, 0
4, 46200, Note_on_c, 0, 73, 88
4, 46316, Note_off_c, 0, 73, 0
4, 46320, Note_on_c, 0, 74, 88
4, 46436, Note_off_c, 0, 74, 0
4, 46440, Note_on_c, 0, 76, 88
4, 46556, Note_off_c, 0, 76, 0
4, 46560, Note_on_c, 0, 74, 88
4, 46676, Note_off_c, 0, 74, 0
4, 46680, Note_on_c, 0, 72, 88
4, 46796, Note_off_c, 0, 72, 0
4, 46800, Note_on_c, 0, 70, 88
4, 46916, Note_off_c, 0, 70, 0
4, 46920, Note_on_c, 0, 69, 88
4, 47036, Note_off_c, 0, 69, 0
4, 47040, Note_on_c, 0, 70, 88
4, 47156, Note_off_c, 0, 70, 0
4, 47160, Note_on_c, 0, 69, 88
4, 47276, Note_off_c, 0, 69, 0
4, 47280, Note_on_c, 0, 67, 88
4, 47396, Note_off_c, 0, 67, 0
4, 47400, Note_on_c, 0, 65, 88
4, 47516, Note_off_c, 0, 65, 0
4, 47520, Note_on_c, 0, 67, 88
4, 49430, Note_off_c, 0, 67, 0
4, 49440, Note_on_c, 0, 65, 88
4, 52310, Note_off_c, 0, 65, 0
4, 52920, Note_on_c, 0, 61, 88
4, 53036, Note_off_c, 0, 61, 0
4, 53040, Note_on_c, 0, 62, 88
4, 53156, Note_off_c, 0, 62, 0
4, 53160, Note_on_c, 0, 64, 88
4, 53276, Note_off_c, 0, 64, 0
4, 53280, Note_on_c, 0, 61, 88
4, 53396, Note_off_c, 0, 61, 0
4, 53400, Note_on_c, 0, 64, 88
4, 53516, Note_off_c, 0, 64, 0
4, 53520, Note_on_c, 0, 65, 88
4, 53636, Note_off_c, 0, 65, 0
4, 53640, Note_on_c, 0, 67, 88
4, 53756, Note_off_c, 0, 67, 0
4, 53760, Note_on_c, 0, 69, 88
4, 54836, Note_off_c, 0, 69, 0
4, 54840, Note_on_c, 0, 67, 88
4, 54956, Note_off_c, 0, 67, 0
4, 54960, Note_on_c, 0, 70, 88
4, 55076, Note_off_c, 0, 70, 0
4, 55080, Note_on_c, 0, 69, 88
4, 55196, Note_off_c, 0, 69, 0
4, 55200, Note_on_c, 0, 67, 88
4, 55316, Note_off_c, 0, 67, 0
4, 55320, Note_on_c, 0, 65, 88
4, 55436, Note_off_c, 0, 65, 0
4, 55440, Note_on_c, 0, 64, 88
4, 55789, Note_off_c, 0, 64, 0
4, 55800, Note_on_c, 0, 64, 88
4, 55916, Note_off_c, 0, 64, 0
4, 55920, Note_on_c, 0, 65, 88
4, 56036, Note_off_c, 0, 65, 0
4, 56040, Note_on_c, 0, 67, 88
4, 56269, Note_off_c, 0, 67, 0
4, 56280, Note_on_c, 0, 67, 88
4, 56396, Note_off_c, 0, 67, 0
4, 56400, Note_on_c, 0, 65, 88
4, 56516, Note_off_c, 0, 65, 0
4, 56520, Note_on_c, 0, 64, 88
4, 56636, Note_off_c, 0, 64, 0
4, 56640, Note_on_c, 0, 65, 88
4, 57709, Note_off_c, 0, 65, 0
4, 57720, Note_on_c, 0, 65, 88
4, 57836, Note_off_c, 0, 65, 0
4, 57840, Note_on_c, 0, 67, 88
4, 57956, Note_off_c, 0, 67, 0
4, 57960, Note_on_c, 0, 69, 88
4, 58076, Note_off_c, 0, 69, 0
4, 58080, Note_on_c, 0, 70, 88
4, 59149, Note_off_c, 0, 70, 0
4, 59160, Note_on_c, 0, 70, 88
4, 59276, Note_off_c, 0, 70, 0
4, 59280, Note_on_c, 0, 69, 88
4, 59396, Note_off_c, 0, 69, 0
4, 59400, Note_on_c, 0, 67, 88
4, 59516, Note_off_c, 0, 67, 0
4, 59520, Note_on_c, 0, 69, 88
4, 60589, Note_off_c, 0, 69, 0
4, 60600, Note_on_c, 0, 69, 88
4, 60716, Note_off_c, 0, 69, 0
4, 60720, Note_on_c, 0, 70, 88
4, 60836, Note_off_c, 0, 70, 0
4, 60840, Note_on_c, 0, 72, 88
4, 60956, Note_off_c, 0, 72, 0
4, 60960, Note_on_c, 0, 74, 88
4, 62029, Note_off_c, 0, 74, 0
4, 62040, Note_on_c, 0, 74, 88
4, 62156, Note_off_c, 0, 74, 0
4, 62160, Note_on_c, 0, 72, 88
4, 62276, Note_off_c, 0, 72, 0
4, 62280, Note_on_c, 0, 70, 88
4, 62396, Note_off_c, 0, 70, 0
4, 62400, Note_on_c, 0, 72, 88
4, 63469, Note_off_c, 0, 72, 0
4, 63480, Note_on_c, 0, 72, 88
4, 63596, Note_off_c, 0, 72, 0
4, 63600, Note_on_c, 0, 74, 88
4, 63716, Note_off_c, 0, 74, 0
4, 63720, Note_on_c, 0, 76, 88
4, 63836, Note_off_c, 0, 76, 0
4, 63840, Note_on_c, 0, 77, 88
4, 64909, Note_off_c, 0, 77, 0
4, 64920, Note_on_c, 0, 77, 88
4, 65036, Note_off_c, 0, 77, 0
4, 65040, Note_on_c, 0, 76, 88
4, 65156, Note_off_c, 0, 76, 0
4, 65160, Note_on_c, 0, 74, 88
4, 65276, Note_off_c, 0, 74, 0
4, 65280, Note_on_c, 0, 76, 88
4, 66710, Note_off_c, 0, 76, 0
4, 66720, Note_on_c, 0, 74, 88
4, 69229, Note_off_c, 0, 74, 0
4, 69240, Note_on_c, 0, 74, 88
4, 69356, Note_off_c, 0, 74, 0
4, 69360, Note_on_c, 0, 76, 88
4, 69476, Note_off_c, 0, 76, 0
4, 69480, Note_on_c, 0, 77, 88
4, 69596, Note_off_c, 0, 77, 0
4, 69600, Note_on_c, 0, 76, 88
4, 69716, Note_off_c, 0, 76, 0
4, 69720, Note_on_c, 0, 74, 88
4, 69836, Note_off_c, 0, 74, 0
4, 69840, Note_on_c, 0, 72, 88
4, 69956, Note_off_c, 0, 72, 0
4, 69960, Note_on_c, 0, 71, 88
4, 70076, Note_off_c, 0, 71, 0
4, 70080, Note_on_c, 0, 72, 88
4, 70196, Note_off_c, 0, 72, 0
4, 70200, Note_on_c, 0, 71, 88
4, 70316, Note_off_c, 0, 71, 0
4, 70320, Note_on_c, 0, 69, 88
4, 70436, Note_off_c, 0, 69, 0
4, 70440, Note_on_c, 0, 68, 88
4, 70556, Note_off_c, 0, 68, 0
4, 70560, Note_on_c, 0, 69, 88
4, 72116, Note_off_c, 0, 69, 0
4, 72120, Note_on_c, 0, 79, 88
4, 72236, Note_off_c, 0, 79, 0
4, 72240, Note_on_c, 0, 81, 88
4, 72356, Note_off_c, 0, 81, 0
4, 72360, Note_on_c, 0, 82, 88
4, 72476, Note_off_c, 0, 82, 0
4, 72480, Note_on_c, 0, 81, 88
4, 72596, Note_off_c, 0, 81, 0
4, 72600, Note_on_c, 0, 79, 88
4, 72716, Note_off_c, 0, 79, 0
4, 72720, Note_on_c, 0, 77, 88
4, 72836, Note_off_c, 0, 77, 0
4, 72840, Note_on_c, 0, 76, 88
4, 72956, Note_off_c, 0, 76, 0
4, 72960, Note_on_c, 0, 77, 88
4, 73076, Note_off_c, 0, 77, 0
4, 73080, Note_on_c, 0, 76, 88
4, 73196, Note_off_c, 0, 76, 0
4, 73200, Note_on_c, 0, 74, 88
4, 73316, Note_off_c, 0, 74, 0
4, 73320, Note_on_c, 0, 73, 88
4, 73436, Note_off_c, 0, 73, 0
4, 73440, Note_on_c, 0, 74, 88
4, 73556, Note_off_c, 0, 74, 0
4, 73560, Note_on_c, 0, 76, 88
4, 73676, Note_off_c, 0, 76, 0
4, 73680, Note_on_c, 0, 77, 88
4, 73796, Note_off_c, 0, 77, 0
4, 73800, Note_on_c, 0, 79, 88
4, 73916, Note_off_c, 0, 79, 0
4, 73920, Note_on_c, 0, 77, 88
4, 74036, Note_off_c, 0, 77, 0
4, 74040, Note_on_c, 0, 76, 88
4, 74156, Note_off_c, 0, 76, 0
4, 74160, Note_on_c, 0, 74, 88
4, 74276, Note_off_c, 0, 74, 0
4, 74280, Note_on_c, 0, 73, 88
4, 74396, Note_off_c, 0, 73, 0
4, 74400, Note_on_c, 0, 74, 88
4, 74516, Note_off_c, 0, 74, 0
4, 74520, Note_on_c, 0, 72, 88
4, 74636, Note_off_c, 0, 72, 0
4, 74640, Note_on_c, 0, 70, 88
4, 74756, Note_off_c, 0, 70, 0
4, 74760, Note_on_c, 0, 69, 88
4, 74876, Note_off_c, 0, 69, 0
4, 74880, Note_on_c, 0, 70, 88
4, 74996, Note_off_c, 0, 70, 0
4, 75000, Note_on_c, 0, 72, 88
4, 75116, Note_off_c, 0, 72, 0
4, 75120, Note_on_c, 0, 74, 88
4, 75236, Note_off_c, 0, 74, 0
4, 75240, Note_on_c, 0, 75, 88
4, 75356, Note_off_c, 0, 75, 0
4, 75360, Note_on_c, 0, 74, 88
4, 75476, Note_off_c, 0, 74, 0
4, 75480, Note_on_c, 0, 72, 88
4, 75596, Note_off_c, 0, 72, 0
4, 75600, Note_on_c, 0, 70, 88
4, 75716, Note_off_c, 0, 70, 0
4, 75720, Note_on_c, 0, 69, 88
4, 75836, Note_off_c, 0, 69, 0
4, 75840, Note_on_c, 0, 70, 88
4, 75956, Note_off_c, 0, 70, 0
4, 75960, Note_on_c, 0, 69, 88
4, 76076, Note_off_c, 0, 69, 0
4, 76080, Note_on_c, 0, 68, 88
4, 76196, Note_off_c, 0, 68, 0
4, 76200, Note_on_c, 0, 66, 88
4, 76316, Note_off_c, 0, 66, 0
4, 76320, Note_on_c, 0, 68, 88
4, 76554, Note_off_c, 0, 68, 0
4, 76560, Note_on_c, 0, 64, 88
4, 76794, Note_off_c, 0, 64, 0
4, 77040, Note_on_c, 0, 71, 88
4, 77274, Note_off_c, 0, 71, 0
4, 77280, Note_on_c, 0, 74, 88
4, 77994, Note_off_c, 0, 74, 0
4, 78000, Note_on_c, 0, 72, 88
4, 78349, Note_off_c, 0, 72, 0
4, 78360, Note_on_c, 0, 72, 88
4, 78476, Note_off_c, 0, 72, 0
4, 78480, Note_on_c, 0, 71, 88
4, 78596, Note_off_c, 0, 71, 0
4, 78600, Note_on_c, 0, 69, 88
4, 78716, Note_off_c, 0, 69, 0
4, 78720, Note_on_c, 0, 71, 88
4, 79190, Note_off_c, 0, 71, 0
4, 79200, Note_on_c, 0, 69, 88
4, 80617, Note_off_c, 0, 69, 0
4, 80760, Note_on_c, 0, 76, 88
4, 80876, Note_off_c, 0, 76, 0
4, 80880, Note_on_c, 0, 77, 88
4, 80996, Note_off_c, 0, 77, 0
4, 81000, Note_on_c, 0, 79, 88
4, 81116, Note_off_c, 0, 79, 0
4, 81120, Note_on_c, 0, 77, 88
4, 81236, Note_off_c, 0, 77, 0
4, 81240, Note_on_c, 0, 76, 88
4, 81356, Note_off_c, 0, 76, 0
4, 81360, Note_on_c, 0, 74, 88
4, 81476, Note_off_c, 0, 74, 0
4, 81480, Note_on_c, 0, 72, 88
4, 81596, Note_off_c, 0, 72, 0
4, 81600, Note_on_c, 0, 74, 88
4, 81716, Note_off_c, 0, 74, 0
4, 81720, Note_on_c, 0, 72, 88
4, 81836, Note_off_c, 0, 72, 0
4, 81840, Note_on_c, 0, 70, 88
4, 81956, Note_off_c, 0, 70, 0
4, 81960, Note_on_c, 0, 69, 88
4, 82076, Note_off_c, 0, 69, 0
4, 82080, Note_on_c, 0, 70, 88
4, 83990, Note_off_c, 0, 70, 0
4, 84000, Note_on_c, 0, 69, 88
4, 84470, Note_off_c, 0, 69, 0
4, 84480, Note_on_c, 0, 68, 88
4, 85069, Note_off_c, 0, 68, 0
4, 85080, Note_on_c, 0, 68, 88
4, 85196, Note_off_c, 0, 68, 0
4, 85200, Note_on_c, 0, 67, 88
4, 85316, Note_off_c, 0, 67, 0
4, 85320, Note_on_c, 0, 65, 88
4, 85436, Note_off_c, 0, 65, 0
4, 85440, Note_on_c, 0, 67, 88
4, 86385, Note_off_c, 0, 67, 0
4, 87480, Note_on_c, 0, 69, 88
4, 87596, Note_off_c, 0, 69, 0
4, 87600, Note_on_c, 0, 70, 88
4, 87716, Note_off_c, 0, 70, 0
4, 87720, Note_on_c, 0, 72, 88
4, 88430, Note_off_c, 0, 72, 0
4, 88440, Note_on_c, 0, 69, 88
4, 88556, Note_off_c, 0, 69, 0
4, 88560, Note_on_c, 0, 70, 88
4, 89396, Note_off_c, 0, 70, 0
4, 89400, Note_on_c, 0, 67, 88
4, 89516, Note_off_c, 0, 67, 0
4, 89520, Note_on_c, 0, 69, 88
4, 89636, Note_off_c, 0, 69, 0
4, 89640, Note_on_c, 0, 70, 88
4, 89756, Note_off_c, 0, 70, 0
4, 89880, Note_on_c, 0, 74, 88
4, 89996, Note_off_c, 0, 74, 0
4, 90000, Note_on_c, 0, 75, 88
4, 91190, Note_off_c, 0, 75, 0
4, 91200, Note_on_c, 0, 74, 88
4, 91434, Note_off_c, 0, 74, 0
4, 91440, Note_on_c, 0, 72, 88
4, 91674, Note_off_c, 0, 72, 0
4, 91680, Note_on_c, 0, 74, 88
4, 92630, Note_off_c, 0, 74, 0
4, 92640, Note_on_c, 0, 72, 88
4, 93348, Note_off_c, 0, 72, 0
4, 93360, Note_on_c, 0, 74, 88
4, 93476, Note_off_c, 0, 74, 0
4, 93480, Note_on_c, 0, 75, 88
4, 93596, Note_off_c, 0, 75, 0
4, 93600, Note_on_c, 0, 70, 88
4, 93834, Note_off_c, 0, 70, 0
4, 93840, Note_on_c, 0, 69, 88
4, 94548, Note_off_c, 0, 69, 0
4, 94560, Note_on_c, 0, 70, 88
4, 95156, Note_off_c, 0, 70, 0
4, 95160, Note_on_c, 0, 69, 88
4, 95276, Note_off_c, 0, 69, 0
4, 95280, Note_on_c, 0, 70, 88
4, 95396, Note_off_c, 0, 70, 0
4, 95400, Note_on_c, 0, 72, 88
4, 95516, Note_off_c, 0, 72, 0
4, 95520, Note_on_c, 0, 70, 88
4, 95636, Note_off_c, 0, 70, 0
4, 95640, Note_on_c, 0, 69, 88
4, 95756, Note_off_c, 0, 69, 0
4, 95760, Note_on_c, 0, 67, 88
4, 95876, Note_off_c, 0, 67, 0
4, 95880, Note_on_c, 0, 65, 88
4, 95996, Note_off_c, 0, 65, 0
4, 96000, Note_on_c, 0, 67, 88
4, 96116, Note_off_c, 0, 67, 0
4, 96120, Note_on_c, 0, 65, 88
4, 96236, Note_off_c, 0, 65, 0
4, 96240, Note_on_c, 0, 64, 88
4, 96356, Note_off_c, 0, 64, 0
4, 96360, Note_on_c, 0, 62, 88
4, 96476, Note_off_c, 0, 62, 0
4, 96480, Note_on_c, 0, 64, 88
4, 97425, Note_off_c, 0, 64, 0
4, 97440, Note_on_c, 0, 65, 88
4, 98628, Note_off_c, 0, 65, 0
4, 98640, Note_on_c, 0, 65, 88
4, 98874, Note_off_c, 0, 65, 0
4, 98880, Note_on_c, 0, 67, 88
4, 99114, Note_off_c, 0, 67, 0
4, 99120, Note_on_c, 0, 69, 88
4, 99236, Note_off_c, 0, 69, 0
4, 99240, Note_on_c, 0, 70, 88
4, 99356, Note_off_c, 0, 70, 0
4, 99360, Note_on_c, 0, 64, 88
4, 99594, Note_off_c, 0, 64, 0
4, 99600, Note_on_c, 0, 65, 88
4, 99834, Note_off_c, 0, 65, 0
4, 99840, Note_on_c, 0, 67, 88
4, 100430, Note_off_c, 0, 67, 0
4, 100440, Note_on_c, 0, 60, 88
4, 100556, Note_off_c, 0, 60, 0
4, 100560, Note_on_c, 0, 62, 88
4, 100676, Note_off_c, 0, 62, 0
4, 100680, Note_on_c, 0, 64, 88
4, 100796, Note_off_c, 0, 64, 0
4, 100800, Note_on_c, 0, 65, 88
4, 101981, Note_off_c, 0, 65, 0
4, 102000, Note_on_c, 0, 65, 88
4, 102116, Note_off_c, 0, 65, 0
4, 102120, Note_on_c, 0, 64, 88
4, 102236, Note_off_c, 0, 64, 0
4, 102240, Note_on_c, 0, 65, 88
4, 103657, Note_off_c, 0, 65, 0
4, 103657, End_track
5, 0, Start_track
5, 0, Title_t, "Track 2"
5, 0, Program_c, 1, 6
5, 1560, Note_on_c, 1, 69, 88
5, 1676, Note_off_c, 1, 69, 0
5, 1680, Note_on_c, 1, 67, 88
5, 1796, Note_off_c, 1, 67, 0
5, 1800, Note_on_c, 1, 65, 88
5, 1916, Note_off_c, 1, 65, 0
5, 1920, Note_on_c, 1, 67, 88
5, 3350, Note_off_c, 1, 67, 0
5, 3360, Note_on_c, 1, 65, 88
5, 3829, Note_off_c, 1, 65, 0
5, 3840, Note_on_c, 1, 65, 88
5, 4554, Note_off_c, 1, 65, 0
5, 4920, Note_on_c, 1, 65, 88
5, 5036, Note_off_c, 1, 65, 0
5, 5040, Note_on_c, 1, 64, 88
5, 5156, Note_off_c, 1, 64, 0
5, 5160, Note_on_c, 1, 62, 88
5, 5276, Note_off_c, 1, 62, 0
5, 5280, Note_on_c, 1, 64, 88
5, 5750, Note_off_c, 1, 64, 0
5, 6360, Note_on_c, 1, 64, 88
5, 6476, Note_off_c, 1, 64, 0
5, 6480, Note_on_c, 1, 66, 88
5, 6596, Note_off_c, 1, 66, 0
5, 6600, Note_on_c, 1, 67, 88
5, 6716, Note_off_c, 1, 67, 0
5, 6720, Note_on_c, 1, 66, 88
5, 7316, Note_off_c, 1, 66, 0
5, 7320, Note_on_c, 1, 69, 88
5, 7436, Note_off_c, 1, 69, 0
5, 7440, Note_on_c, 1, 67, 88
5, 7556, Note_off_c, 1, 67, 0
5, 7560, Note_on_c, 1, 66, 88
5, 7676, Note_off_c, 1, 66, 0
5, 7680, Note_on_c, 1, 67, 88
5, 8029, Note_off_c, 1, 67, 0
5, 8040, Note_on_c, 1, 67, 88
5, 8156, Note_off_c, 1, 67, 0
5, 8160, Note_on_c, 1, 62, 88
5, 8276, Note_off_c, 1, 62, 0
5, 8280, Note_on_c, 1, 65, 88
5, 8396, Note_off_c, 1, 65, 0
5, 8400, Note_on_c, 1, 64, 88
5, 8516, Note_off_c, 1, 64, 0
5, 8520, Note_on_c, 1, 62, 88
5, 8636, Note_off_c, 1, 62, 0
5, 8640, Note_on_c, 1, 64, 88
5, 9110, Note_off_c, 1, 64, 0
5, 12120, Note_on_c, 1, 72, 88
5, 12236, Note_off_c, 1, 72, 0
5, 12240, Note_on_c, 1, 70, 88
5, 12356, Note_off_c, 1, 70, 0
5, 12360, Note_on_c, 1, 69, 88
5, 12476, Note_off_c, 1, 69, 0
5, 12480, Note_on_c, 1, 70, 88
5, 12950, Note_off_c, 1, 70, 0
5, 12960, Note_on_c, 1, 72, 88
5, 14377, Note_off_c, 1, 72, 0
5, 15960, Note_on_c, 1, 69, 88
5, 16076, Note_off_c, 1, 69, 0
5, 16080, Note_on_c, 1, 67, 88
5, 16196, Note_off_c, 1, 67, 0
5, 16200, Note_on_c, 1, 65, 88
5, 16316, Note_off_c, 1, 65, 0
5, 16320, Note_on_c, 1, 67, 88
5, 17750, Note_off_c, 1, 67, 0
5, 21240, Note_on_c, 1, 65, 88
5, 21709, Note_off_c, 1, 65, 0
5, 21720, Note_on_c, 1, 65, 88
5, 21836, Note_off_c, 1, 65, 0
5, 21840, Note_on_c, 1, 67, 88
5, 21956, Note_off_c, 1, 67, 0
5, 21960, Note_on_c, 1, 69, 88
5, 22076, Note_off_c, 1, 69, 0
5, 22080, Note_on_c, 1, 67, 88
5, 23025, Note_off_c, 1, 67, 0
5, 24600, Note_on_c, 1, 64, 88
5, 24716, Note_off_c, 1, 64, 0
5, 24720, Note_on_c, 1, 62, 88
5, 24836, Note_off_c, 1, 62, 0
5, 24840, Note_on_c, 1, 60, 88
5, 24956, Note_off_c, 1, 60, 0
5, 24960, Note_on_c, 1, 62, 88
5, 26390, Note_off_c, 1, 62, 0
5, 26400, Note_on_c, 1, 60, 88
5, 26869, Note_off_c, 1, 60, 0
5, 26880, Note_on_c, 1, 60, 88
5, 27594, Note_off_c, 1, 60, 0
5, 27960, Note_on_c, 1, 60, 88
5, 28076, Note_off_c, 1, 60, 0
5, 28080, Note_on_c, 1, 59, 88
5, 28196, Note_off_c, 1, 59, 0
5, 28200, Note_on_c, 1, 57, 88
5, 28316, Note_off_c, 1, 57, 0
5, 28320, Note_on_c, 1, 59, 88
5, 28790, Note_off_c, 1, 59, 0
5, 29400, Note_on_c, 1, 59, 88
5, 29516, Note_off_c, 1, 59, 0
5, 29520, Note_on_c, 1, 61, 88
5, 29636, Note_off_c, 1, 61, 0
5, 29640, Note_on_c, 1, 62, 88
5, 29756, Note_off_c, 1, 62, 0
5, 29760, Note_on_c, 1, 61, 88
5, 30356, Note_off_c, 1, 61, 0
5, 30360, Note_on_c, 1, 64, 88
5, 30476, Note_off_c, 1, 64, 0
5, 30480, Note_on_c, 1, 62, 88
5, 30596, Note_off_c, 1, 62, 0
5, 30600, Note_on_c, 1, 61, 88
5, 30716, Note_off_c, 1, 61, 0
5, 30720, Note_on_c, 1, 62, 88
5, 31069, Note_off_c, 1, 62, 0
5, 31080, Note_on_c, 1, 62, 88
5, 31196, Note_off_c, 1, 62, 0
5, 31200, Note_on_c, 1, 57, 88
5, 31316, Note_off_c, 1, 57, 0
5, 31320, Note_on_c, 1, 60, 88
5, 31436, Note_off_c, 1, 60, 0
5, 31440, Note_on_c, 1, 59, 88
5, 31556, Note_off_c, 1, 59, 0
5, 31560, Note_on_c, 1, 57, 88
5, 31676, Note_off_c, 1, 57, 0
5, 31680, Note_on_c, 1, 59, 88
5, 32150, Note_off_c, 1, 59, 0
5, 35160, Note_on_c, 1, 67, 88
5, 35276, Note_off_c, 1, 67, 0
5, 35280, Note_on_c, 1, 65, 88
5, 35396, Note_off_c, 1, 65, 0
5, 35400, Note_on_c, 1, 64, 88
5, 35516, Note_off_c, 1, 64, 0
5, 35520, Note_on_c, 1, 65, 88
5, 35990, Note_off_c, 1, 65, 0
5, 36000, Note_on_c, 1, 67, 88
5, 36945, Note_off_c, 1, 67, 0
5, 36960, Note_on_c, 1, 67, 88
5, 37430, Note_off_c, 1, 67, 0
5, 37440, Note_on_c, 1, 65, 88
5, 37674, Note_off_c, 1, 65, 0
5, 38040, Note_on_c, 1, 72, 88
5, 38156, Note_off_c, 1, 72, 0
5, 38160, Note_on_c, 1, 70, 88
5, 38276, Note_off_c, 1, 70, 0
5, 38280, Note_on_c, 1, 69, 88
5, 38396, Note_off_c, 1, 69, 0
5, 38400, Note_on_c, 1, 70, 88
5, 38870, Note_off_c, 1, 70, 0
5, 38880, Note_on_c, 1, 70, 88
5, 39825, Note_off_c, 1, 70, 0
5, 39840, Note_on_c, 1, 72, 88
5, 40074, Note_off_c, 1, 72, 0
5, 41880, Note_on_c, 1, 70, 88
5, 41996, Note_off_c, 1, 70, 0
5, 42000, Note_on_c, 1, 69, 88
5, 42116, Note_off_c, 1, 69, 0
5, 42120, Note_on_c, 1, 67, 88
5, 42236, Note_off_c, 1, 67, 0
5, 42240, Note_on_c, 1, 69, 88
5, 43434, Note_off_c, 1, 69, 0
5, 45120, Note_on_c, 1, 69, 88
5, 46065, Note_off_c, 1, 69, 0
5, 47640, Note_on_c, 1, 65, 88
5, 47756, Note_off_c, 1, 65, 0
5, 47760, Note_on_c, 1, 64, 88
5, 47876, Note_off_c, 1, 64, 0
5, 47880, Note_on_c, 1, 62, 88
5, 47996, Note_off_c, 1, 62, 0
5, 48000, Note_on_c, 1, 64, 88
5, 49430, Note_off_c, 1, 64, 0
5, 49440, Note_on_c, 1, 62, 88
5, 52310, Note_off_c, 1, 62, 0
5, 65760, Note_on_c, 1, 72, 88
5, 66710, Note_off_c, 1, 72, 0
5, 66720, Note_on_c, 1, 71, 88
5, 69236, Note_off_c, 1, 71, 0
5, 77040, Note_on_c, 1, 71, 88
5, 77994, Note_off_c, 1, 71, 0
5, 78000, Note_on_c, 1, 69, 88
5, 78827, Note_off_c, 1, 69, 0
5, 78840, Note_on_c, 1, 66, 88
5, 78956, Note_off_c, 1, 66, 0
5, 78960, Note_on_c, 1, 68, 88
5, 79194, Note_off_c, 1, 68, 0
5, 82200, Note_on_c, 1, 69, 88
5, 82316, Note_off_c, 1, 69, 0
5, 82320, Note_on_c, 1, 67, 88
5, 82436, Note_off_c, 1, 67, 0
5, 82440, Note_on_c, 1, 65, 88
5, 82556, Note_off_c, 1, 65, 0
5, 82560, Note_on_c, 1, 67, 88
5, 83990, Note_off_c, 1, 67, 0
5, 84000, Note_on_c, 1, 65, 88
5, 84469, Note_off_c, 1, 65, 0
5, 84480, Note_on_c, 1, 65, 88
5, 85194, Note_off_c, 1, 65, 0
5, 85560, Note_on_c, 1, 65, 88
5, 85676, Note_off_c, 1, 65, 0
5, 85680, Note_on_c, 1, 64, 88
5, 85796, Note_off_c, 1, 64, 0
5, 85800, Note_on_c, 1, 62, 88
5, 85916, Note_off_c, 1, 62, 0
5, 85920, Note_on_c, 1, 64, 88
5, 86390, Note_off_c, 1, 64, 0
5, 87000, Note_on_c, 1, 64, 88
5, 87116, Note_off_c, 1, 64, 0
5, 87120, Note_on_c, 1, 66, 88
5, 87236, Note_off_c, 1, 66, 0
5, 87240, Note_on_c, 1, 67, 88
5, 87356, Note_off_c, 1, 67, 0
5, 87360, Note_on_c, 1, 66, 88
5, 87956, Note_off_c, 1, 66, 0
5, 87960, Note_on_c, 1, 69, 88
5, 88076, Note_off_c, 1, 69, 0
5, 88080, Note_on_c, 1, 67, 88
5, 88196, Note_off_c, 1, 67, 0
5, 88200, Note_on_c, 1, 66, 88
5, 88316, Note_off_c, 1, 66, 0
5, 88320, Note_on_c, 1, 67, 88
5, 88669, Note_off_c, 1, 67, 0
5, 88680, Note_on_c, 1, 67, 88
5, 89396, Note_off_c, 1, 67, 0
5, 89760, Note_on_c, 1, 72, 88
5, 91190, Note_off_c, 1, 72, 0
5, 91200, Note_on_c, 1, 70, 88
5, 91434, Note_off_c, 1, 70, 0
5, 91440, Note_on_c, 1, 69, 88
5, 91674, Note_off_c, 1, 69, 0
5, 91680, Note_on_c, 1, 70, 88
5, 91914, Note_off_c, 1, 70, 0
5, 91920, Note_on_c, 1, 68, 88
5, 92276, Note_off_c, 1, 68, 0
5, 92280, Note_on_c, 1, 65, 88
5, 92396, Note_off_c, 1, 65, 0
5, 92400, Note_on_c, 1, 67, 88
5, 92516, Note_off_c, 1, 67, 0
5, 92520, Note_on_c, 1, 68, 88
5, 92636, Note_off_c, 1, 68, 0
5, 92640, Note_on_c, 1, 67, 88
5, 93585, Note_off_c, 1, 67, 0
5, 93600, Note_on_c, 1, 65, 88
5, 94781, Note_off_c, 1, 65, 0
5, 101880, Note_on_c, 1, 58, 88
5, 102349, Note_off_c, 1, 58, 0
5, 102360, Note_on_c, 1, 58, 88
5, 102476, Note_off_c, 1, 58, 0
5, 102480, Note_on_c, 1, 57, 88
5, 102596, Note_off_c, 1, 57, 0
5, 102600, Note_on_c, 1, 55, 88
5, 102716, Note_off_c, 1, 55, 0
5, 102720, Note_on_c, 1, 57, 88
5, 103665, Note_off_c, 1, 57, 0
5, 103665, End_track
6, 0, Start_track
6, 0, Title_t, "Track 3"
6, 0, Program_c, 2, 6
6, 2040, Note_on_c, 2, 65, 88
6, 2156, Note_off_c, 2, 65, 0
6, 2160, Note_on_c, 2, 64, 88
6, 2276, Note_off_c, 2, 64, 0
6, 2280, Note_on_c, 2, 62, 88
6, 2396, Note_off_c, 2, 62, 0
6, 2400, Note_on_c, 2, 64, 88
6, 3350, Note_off_c, 2, 64, 0
6, 3360, Note_on_c, 2, 60, 88
6, 3830, Note_off_c, 2, 60, 0
6, 3840, Note_on_c, 2, 62, 88
6, 4310, Note_off_c, 2, 62, 0
6, 4320, Note_on_c, 2, 60, 88
6, 4554, Note_off_c, 2, 60, 0
6, 5880, Note_on_c, 2, 60, 88
6, 5996, Note_off_c, 2, 60, 0
6, 6000, Note_on_c, 2, 62, 88
6, 6116, Note_off_c, 2, 62, 0
6, 6120, Note_on_c, 2, 63, 88
6, 6236, Note_off_c, 2, 63, 0
6, 6240, Note_on_c, 2, 62, 88
6, 7670, Note_off_c, 2, 62, 0
6, 9240, Note_on_c, 2, 62, 88
6, 9356, Note_off_c, 2, 62, 0
6, 9360, Note_on_c, 2, 64, 88
6, 9476, Note_off_c, 2, 64, 0
6, 9480, Note_on_c, 2, 65, 88
6, 9596, Note_off_c, 2, 65, 0
6, 9600, Note_on_c, 2, 64, 88
6, 10196, Note_off_c, 2, 64, 0
6, 10200, Note_on_c, 2, 67, 88
6, 10316, Note_off_c, 2, 67, 0
6, 10320, Note_on_c, 2, 65, 88
6, 10436, Note_off_c, 2, 65, 0
6, 10440, Note_on_c, 2, 64, 88
6, 10556, Note_off_c, 2, 64, 0
6, 10560, Note_on_c, 2, 65, 88
6, 10909, Note_off_c, 2, 65, 0
6, 10920, Note_on_c, 2, 65, 88
6, 11990, Note_off_c, 2, 65, 0
6, 12240, Note_on_c, 2, 67, 88
6, 12593, Note_off_c, 2, 67, 0
6, 12600, Note_on_c, 2, 69, 88
6, 12716, Note_off_c, 2, 69, 0
6, 12720, Note_on_c, 2, 67, 88
6, 12836, Note_off_c, 2, 67, 0
6, 12840, Note_on_c, 2, 65, 88
6, 12956, Note_off_c, 2, 65, 0
6, 12960, Note_on_c, 2, 67, 88
6, 13905, Note_off_c, 2, 67, 0
6, 13920, Note_on_c, 2, 65, 88
6, 14390, Note_off_c, 2, 65, 0
6, 14640, Note_on_c, 2, 57, 88
6, 14874, Note_off_c, 2, 57, 0
6, 14880, Note_on_c, 2, 62, 88
6, 16430, Note_off_c, 2, 62, 0
6, 16440, Note_on_c, 2, 65, 88
6, 16556, Note_off_c, 2, 65, 0
6, 16560, Note_on_c, 2, 64, 88
6, 16676, Note_off_c, 2, 64, 0
6, 16680, Note_on_c, 2, 62, 88
6, 16796, Note_off_c, 2, 62, 0
6, 16800, Note_on_c, 2, 64, 88
6, 17750, Note_off_c, 2, 64, 0
6, 17760, Note_on_c, 2, 65, 88
6, 19309, Note_off_c, 2, 65, 0
6, 19320, Note_on_c, 2, 65, 88
6, 19436, Note_off_c, 2, 65, 0
6, 19440, Note_on_c, 2, 64, 88
6, 19556, Note_off_c, 2, 64, 0
6, 19560, Note_on_c, 2, 62, 88
6, 19676, Note_off_c, 2, 62, 0
6, 19680, Note_on_c, 2, 64, 88
6, 20269, Note_off_c, 2, 64, 0
6, 20280, Note_on_c, 2, 64, 88
6, 20396, Note_off_c, 2, 64, 0
6, 20400, Note_on_c, 2, 65, 88
6, 20516, Note_off_c, 2, 65, 0
6, 20520, Note_on_c, 2, 67, 88
6, 20636, Note_off_c, 2, 67, 0
6, 20640, Note_on_c, 2, 69, 88
6, 20756, Note_off_c, 2, 69, 0
6, 20760, Note_on_c, 2, 67, 88
6, 20876, Note_off_c, 2, 67, 0
6, 20880, Note_on_c, 2, 65, 88
6, 20996, Note_off_c, 2, 65, 0
6, 21000, Note_on_c, 2, 64, 88
6, 21116, Note_off_c, 2, 64, 0
6, 21120, Note_on_c, 2, 62, 88
6, 21590, Note_off_c, 2, 62, 0
6, 21600, Note_on_c, 2, 60, 88
6, 22070, Note_off_c, 2, 60, 0
6, 22200, Note_on_c, 2, 65, 88
6, 22316, Note_off_c, 2, 65, 0
6, 22320, Note_on_c, 2, 64, 88
6, 22436, Note_off_c, 2, 64, 0
6, 22440, Note_on_c, 2, 62, 88
6, 22556, Note_off_c, 2, 62, 0
6, 22560, Note_on_c, 2, 64, 88
6, 23510, Note_off_c, 2, 64, 0
6, 25080, Note_on_c, 2, 60, 88
6, 25196, Note_off_c, 2, 60, 0
6, 25200, Note_on_c, 2, 59, 88
6, 25316, Note_off_c, 2, 59, 0
6, 25320, Note_on_c, 2, 57, 88
6, 25436, Note_off_c, 2, 57, 0
6, 25440, Note_on_c, 2, 59, 88
6, 26390, Note_off_c, 2, 59, 0
6, 26400, Note_on_c, 2, 55, 88
6, 26870, Note_off_c, 2, 55, 0
6, 26880, Note_on_c, 2, 57, 88
6, 27350, Note_off_c, 2, 57, 0
6, 27360, Note_on_c, 2, 55, 88
6, 27594, Note_off_c, 2, 55, 0
6, 28920, Note_on_c, 2, 55, 88
6, 29036, Note_off_c, 2, 55, 0
6, 29040, Note_on_c, 2, 57, 88
6, 29156, Note_off_c, 2, 57, 0
6, 29160, Note_on_c, 2, 58, 88
6, 29276, Note_off_c, 2, 58, 0
6, 29280, Note_on_c, 2, 57, 88
6, 30710, Note_off_c, 2, 57, 0
6, 32280, Note_on_c, 2, 57, 88
6, 32396, Note_off_c, 2, 57, 0
6, 32400, Note_on_c, 2, 59, 88
6, 32516, Note_off_c, 2, 59, 0
6, 32520, Note_on_c, 2, 60, 88
6, 32636, Note_off_c, 2, 60, 0
6, 32640, Note_on_c, 2, 59, 88
6, 33236, Note_off_c, 2, 59, 0
6, 33240, Note_on_c, 2, 62, 88
6, 33356, Note_off_c, 2, 62, 0
6, 33360, Note_on_c, 2, 60, 88
6, 33476, Note_off_c, 2, 60, 0
6, 33480, Note_on_c, 2, 59, 88
6, 33596, Note_off_c, 2, 59, 0
6, 33600, Note_on_c, 2, 60, 88
6, 33949, Note_off_c, 2, 60, 0
6, 33960, Note_on_c, 2, 60, 88
6, 35030, Note_off_c, 2, 60, 0
6, 35280, Note_on_c, 2, 62, 88
6, 35633, Note_off_c, 2, 62, 0
6, 35640, Note_on_c, 2, 64, 88
6, 35756, Note_off_c, 2, 64, 0
6, 35760, Note_on_c, 2, 62, 88
6, 35876, Note_off_c, 2, 62, 0
6, 35880, Note_on_c, 2, 60, 88
6, 35996, Note_off_c, 2, 60, 0
6, 36000, Note_on_c, 2, 62, 88
6, 36945, Note_off_c, 2, 62, 0
6, 36960, Note_on_c, 2, 60, 88
6, 37674, Note_off_c, 2, 60, 0
6, 38520, Note_on_c, 2, 69, 88
6, 38636, Note_off_c, 2, 69, 0
6, 38640, Note_on_c, 2, 67, 88
6, 38756, Note_off_c, 2, 67, 0
6, 38760, Note_on_c, 2, 65, 88
6, 38876, Note_off_c, 2, 65, 0
6, 38880, Note_on_c, 2, 67, 88
6, 39825, Note_off_c, 2, 67, 0
6, 39840, Note_on_c, 2, 65, 88
6, 40074, Note_off_c, 2, 65, 0
6, 42360, Note_on_c, 2, 67, 88
6, 42476, Note_off_c, 2, 67, 0
6, 42480, Note_on_c, 2, 65, 88
6, 42596, Note_off_c, 2, 65, 0
6, 42600, Note_on_c, 2, 64, 88
6, 42716, Note_off_c, 2, 64, 0
6, 42720, Note_on_c, 2, 65, 88
6, 43434, Note_off_c, 2, 65, 0
6, 43440, Note_on_c, 2, 69, 88
6, 43674, Note_off_c, 2, 69, 0
6, 43680, Note_on_c, 2, 67, 88
6, 43914, Note_off_c, 2, 67, 0
6, 43920, Note_on_c, 2, 70, 88
6, 44154, Note_off_c, 2, 70, 0
6, 44160, Note_on_c, 2, 64, 88
6, 44394, Note_off_c, 2, 64, 0
6, 44400, Note_on_c, 2, 65, 88
6, 44749, Note_off_c, 2, 65, 0
6, 44760, Note_on_c, 2, 65, 88
6, 44876, Note_off_c, 2, 65, 0
6, 44880, Note_on_c, 2, 64, 88
6, 44996, Note_off_c, 2, 64, 0
6, 45000, Note_on_c, 2, 62, 88
6, 45116, Note_off_c, 2, 62, 0
6, 45120, Note_on_c, 2, 64, 88
6, 46065, Note_off_c, 2, 64, 0
6, 52440, Note_on_c, 2, 57, 88
6, 52556, Note_off_c, 2, 57, 0
6, 52560, Note_on_c, 2, 59, 88
6, 52676, Note_off_c, 2, 59, 0
6, 52680, Note_on_c, 2, 60, 88
6, 52796, Note_off_c, 2, 60, 0
6, 52800, Note_on_c, 2, 59, 88
6, 53270, Note_off_c, 2, 59, 0
6, 53280, Note_on_c, 2, 57, 88
6, 53870, Note_off_c, 2, 57, 0
6, 53880, Note_on_c, 2, 59, 88
6, 53996, Note_off_c, 2, 59, 0
6, 54000, Note_on_c, 2, 61, 88
6, 54116, Note_off_c, 2, 61, 0
6, 54120, Note_on_c, 2, 62, 88
6, 54236, Note_off_c, 2, 62, 0
6, 54240, Note_on_c, 2, 64, 88
6, 54954, Note_off_c, 2, 64, 0
6, 54960, Note_on_c, 2, 62, 88
6, 55549, Note_off_c, 2, 62, 0
6, 55560, Note_on_c, 2, 62, 88
6, 55676, Note_off_c, 2, 62, 0
6, 55680, Note_on_c, 2, 61, 88
6, 56150, Note_off_c, 2, 61, 0
6, 56160, Note_on_c, 2, 62, 88
6, 56750, Note_off_c, 2, 62, 0
6, 56760, Note_on_c, 2, 64, 88
6, 56876, Note_off_c, 2, 64, 0
6, 56880, Note_on_c, 2, 62, 88
6, 56996, Note_off_c, 2, 62, 0
6, 57000, Note_on_c, 2, 61, 88
6, 57116, Note_off_c, 2, 61, 0
6, 57120, Note_on_c, 2, 62, 88
6, 58189, Note_off_c, 2, 62, 0
6, 58200, Note_on_c, 2, 62, 88
6, 58316, Note_off_c, 2, 62, 0
6, 58320, Note_on_c, 2, 64, 88
6, 58436, Note_off_c, 2, 64, 0
6, 58440, Note_on_c, 2, 65, 88
6, 58556, Note_off_c, 2, 65, 0
6, 58560, Note_on_c, 2, 67, 88
6, 58794, Note_off_c, 2, 67, 0
6, 58800, Note_on_c, 2, 64, 88
6, 59034, Note_off_c, 2, 64, 0
6, 59040, Note_on_c, 2, 60, 88
6, 59630, Note_off_c, 2, 60, 0
6, 59640, Note_on_c, 2, 67, 88
6, 59756, Note_off_c, 2, 67, 0
6, 59760, Note_on_c, 2, 65, 88
6, 59876, Note_off_c, 2, 65, 0
6, 59880, Note_on_c, 2, 64, 88
6, 59996, Note_off_c, 2, 64, 0
6, 60000, Note_on_c, 2, 65, 88
6, 61069, Note_off_c, 2, 65, 0
6, 61080, Note_on_c, 2, 65, 88
6, 61196, Note_off_c, 2, 65, 0
6, 61200, Note_on_c, 2, 67, 88
6, 61316, Note_off_c, 2, 67, 0
6, 61320, Note_on_c, 2, 69, 88
6, 61436, Note_off_c, 2, 69, 0
6, 61440, Note_on_c, 2, 70, 88
6, 61674, Note_off_c, 2, 70, 0
6, 61680, Note_on_c, 2, 67, 88
6, 61914, Note_off_c, 2, 67, 0
6, 61920, Note_on_c, 2, 64, 88
6, 62510, Note_off_c, 2, 64, 0
6, 62520, Note_on_c, 2, 70, 88
6, 62636, Note_off_c, 2, 70, 0
6, 62640, Note_on_c, 2, 69, 88
6, 62756, Note_off_c, 2, 69, 0
6, 62760, Note_on_c, 2, 67, 88
6, 62876, Note_off_c, 2, 67, 0
6, 62880, Note_on_c, 2, 69, 88
6, 63949, Note_off_c, 2, 69, 0
6, 63960, Note_on_c, 2, 69, 88
6, 64076, Note_off_c, 2, 69, 0
6, 64080, Note_on_c, 2, 71, 88
6, 64196, Note_off_c, 2, 71, 0
6, 64200, Note_on_c, 2, 72, 88
6, 64316, Note_off_c, 2, 72, 0
6, 64320, Note_on_c, 2, 74, 88
6, 64554, Note_off_c, 2, 74, 0
6, 64560, Note_on_c, 2, 71, 88
6, 64794, Note_off_c, 2, 71, 0
6, 64800, Note_on_c, 2, 67, 88
6, 65390, Note_off_c, 2, 67, 0
6, 65400, Note_on_c, 2, 74, 88
6, 65516, Note_off_c, 2, 74, 0
6, 65520, Note_on_c, 2, 72, 88
6, 65636, Note_off_c, 2, 72, 0
6, 65640, Note_on_c, 2, 71, 88
6, 65756, Note_off_c, 2, 71, 0
6, 65880, Note_on_c, 2, 71, 88
6, 65996, Note_off_c, 2, 71, 0
6, 66000, Note_on_c, 2, 69, 88
6, 66116, Note_off_c, 2, 69, 0
6, 66120, Note_on_c, 2, 68, 88
6, 66236, Note_off_c, 2, 68, 0
6, 66240, Note_on_c, 2, 69, 88
6, 66709, Note_off_c, 2, 69, 0
6, 66720, Note_on_c, 2, 69, 88
6, 67665, Note_off_c, 2, 69, 0
6, 67680, Note_on_c, 2, 68, 88
6, 69236, Note_off_c, 2, 68, 0
6, 70680, Note_on_c, 2, 67, 88
6, 70796, Note_off_c, 2, 67, 0
6, 70800, Note_on_c, 2, 65, 88
6, 70916, Note_off_c, 2, 65, 0
6, 70920, Note_on_c, 2, 64, 88
6, 71036, Note_off_c, 2, 64, 0
6, 71040, Note_on_c, 2, 65, 88
6, 71156, Note_off_c, 2, 65, 0
6, 71160, Note_on_c, 2, 64, 88
6, 71276, Note_off_c, 2, 64, 0
6, 71280, Note_on_c, 2, 65, 88
6, 71396, Note_off_c, 2, 65, 0
6, 71400, Note_on_c, 2, 67, 88
6, 71516, Note_off_c, 2, 67, 0
6, 71520, Note_on_c, 2, 65, 88
6, 71636, Note_off_c, 2, 65, 0
6, 71640, Note_on_c, 2, 64, 88
6, 71756, Note_off_c, 2, 64, 0
6, 71760, Note_on_c, 2, 62, 88
6, 71876, Note_off_c, 2, 62, 0
6, 71880, Note_on_c, 2, 61, 88
6, 71996, Note_off_c, 2, 61, 0
6, 72000, Note_on_c, 2, 62, 88
6, 72116, Note_off_c, 2, 62, 0
6, 76800, Note_on_c, 2, 68, 88
6, 77994, Note_off_c, 2, 68, 0
6, 78000, Note_on_c, 2, 66, 88
6, 78234, Note_off_c, 2, 66, 0
6, 78240, Note_on_c, 2, 64, 88
6, 79067, Note_off_c, 2, 64, 0
6, 79080, Note_on_c, 2, 62, 88
6, 79309, Note_off_c, 2, 62, 0
6, 79320, Note_on_c, 2, 62, 88
6, 79436, Note_off_c, 2, 62, 0
6, 79440, Note_on_c, 2, 64, 88
6, 79556, Note_off_c, 2, 64, 0
6, 79560, Note_on_c, 2, 65, 88
6, 79676, Note_off_c, 2, 65, 0
6, 79680, Note_on_c, 2, 64, 88
6, 79796, Note_off_c, 2, 64, 0
6, 79800, Note_on_c, 2, 62, 88
6, 79916, Note_off_c, 2, 62, 0
6, 79920, Note_on_c, 2, 61, 88
6, 80036, Note_off_c, 2, 61, 0
6, 80040, Note_on_c, 2, 59, 88
6, 80156, Note_off_c, 2, 59, 0
6, 80160, Note_on_c, 2, 61, 88
6, 80630, Note_off_c, 2, 61, 0
6, 82680, Note_on_c, 2, 65, 88
6, 82796, Note_off_c, 2, 65, 0
6, 82800, Note_on_c, 2, 64, 88
6, 82916, Note_off_c, 2, 64, 0
6, 82920, Note_on_c, 2, 62, 88
6, 83036, Note_off_c, 2, 62, 0
6, 83040, Note_on_c, 2, 64, 88
6, 83990, Note_off_c, 2, 64, 0
6, 84000, Note_on_c, 2, 60, 88
6, 84470, Note_off_c, 2, 60, 0
6, 84480, Note_on_c, 2, 62, 88
6, 84950, Note_off_c, 2, 62, 0
6, 84960, Note_on_c, 2, 60, 88
6, 85194, Note_off_c, 2, 60, 0
6, 86520, Note_on_c, 2, 60, 88
6, 86636, Note_off_c, 2, 60, 0
6, 86640, Note_on_c, 2, 62, 88
6, 86756, Note_off_c, 2, 62, 0
6, 86760, Note_on_c, 2, 63, 88
6, 86876, Note_off_c, 2, 63, 0
6, 86880, Note_on_c, 2, 62, 88
6, 88785, Note_off_c, 2, 62, 0
6, 88800, Note_on_c, 2, 62, 88
6, 89396, Note_off_c, 2, 62, 0
6, 90120, Note_on_c, 2, 70, 88
6, 90236, Note_off_c, 2, 70, 0
6, 90240, Note_on_c, 2, 69, 88
6, 91190, Note_off_c, 2, 69, 0
6, 91200, Note_on_c, 2, 65, 88
6, 92276, Note_off_c, 2, 65, 0
6, 92760, Note_on_c, 2, 65, 88
6, 92876, Note_off_c, 2, 65, 0
6, 92880, Note_on_c, 2, 63, 88
6, 92996, Note_off_c, 2, 63, 0
6, 93000, Note_on_c, 2, 62, 88
6, 93116, Note_off_c, 2, 62, 0
6, 93120, Note_on_c, 2, 63, 88
6, 93236, Note_off_c, 2, 63, 0
6, 93240, Note_on_c, 2, 62, 88
6, 93356, Note_off_c, 2, 62, 0
6, 93360, Note_on_c, 2, 60, 88
6, 93476, Note_off_c, 2, 60, 0
6, 93480, Note_on_c, 2, 58, 88
6, 93596, Note_off_c, 2, 58, 0
6, 93600, Note_on_c, 2, 60, 88
6, 94545, Note_off_c, 2, 60, 0
6, 94560, Note_on_c, 2, 58, 88
6, 94794, Note_off_c, 2, 58, 0
6, 96600, Note_on_c, 2, 62, 88
6, 96716, Note_off_c, 2, 62, 0
6, 96720, Note_on_c, 2, 60, 88
6, 96836, Note_off_c, 2, 60, 0
6, 96840, Note_on_c, 2, 58, 88
6, 96956, Note_off_c, 2, 58, 0
6, 96960, Note_on_c, 2, 60, 88
6, 98390, Note_off_c, 2, 60, 0
6, 98400, Note_on_c, 2, 58, 88
6, 99949, Note_off_c, 2, 58, 0
6, 99960, Note_on_c, 2, 58, 88
6, 100076, Note_off_c, 2, 58, 0
6, 100080, Note_on_c, 2, 57, 88
6, 100196, Note_off_c, 2, 57, 0
6, 100200, Note_on_c, 2, 55, 88
6, 100316, Note_off_c, 2, 55, 0
6, 100320, Note_on_c, 2, 57, 88
6, 100909, Note_off_c, 2, 57, 0
6, 100920, Note_on_c, 2, 57, 88
6, 101036, Note_off_c, 2, 57, 0
6, 101040, Note_on_c, 2, 58, 88
6, 101156, Note_off_c, 2, 58, 0
6, 101160, Note_on_c, 2, 60, 88
6, 101276, Note_off_c, 2, 60, 0
6, 101280, Note_on_c, 2, 62, 88
6, 101396, Note_off_c, 2, 62, 0
6, 101400, Note_on_c, 2, 60, 88
6, 101516, Note_off_c, 2, 60, 0
6, 101520, Note_on_c, 2, 58, 88
6, 101636, Note_off_c, 2, 58, 0
6, 101640, Note_on_c, 2, 57, 88
6, 101756, Note_off_c, 2, 57, 0
6, 101760, Note_on_c, 2, 55, 88
6, 102230, Note_off_c, 2, 55, 0
6, 102240, Note_on_c, 2, 53, 88
6, 102830, Note_off_c, 2, 53, 0
6, 102840, Note_on_c, 2, 55, 88
6, 102956, Note_off_c, 2, 55, 0
6, 102960, Note_on_c, 2, 53, 88
6, 103076, Note_off_c, 2, 53, 0
6, 103080, Note_on_c, 2, 52, 88
6, 103196, Note_off_c, 2, 52, 0
6, 103200, Note_on_c, 2, 53, 88
6, 103670, Note_off_c, 2, 53, 0
6, 103670, End_track
7, 0, Start_track
7, 0, Title_t, "Track 4"
7, 0, Program_c, 3, 6
7, 79920, Note_on_c, 3, 56, 88
7, 80154, Note_off_c, 3, 56, 0
7, 80160, Note_on_c, 3, 57, 88
7, 80630, Note_off_c, 3, 57, 0
7, 95280, Note_on_c, 3, 50, 88
7, 95514, Note_off_c, 3, 50, 0
7, 95520, Note_on_c, 3, 55, 88
7, 97070, Note_off_c, 3, 55, 0
7, 97080, Note_on_c, 3, 58, 88
7, 97196, Note_off_c, 3, 58, 0
7, 97200, Note_on_c, 3, 57, 88
7, 97316, Note_off_c, 3, 57, 0
7, 97320, Note_on_c, 3, 55, 88
7, 97436, Note_off_c, 3, 55, 0
7, 97440, Note_on_c, 3, 57, 88
7, 98390, Note_off_c, 3, 57, 0
7, 98390, End_track
8, 0, Start_track
8, 0, Title_t, "Track 5"
8, 0, Program_c, 4, 6
8, 960, Note_on_c, 4, 57, 88
8, 1430, Note_off_c, 4, 57, 0
8, 1440, Note_on_c, 4, 62, 88
8, 1910, Note_off_c, 4, 62, 0
8, 1920, Note_on_c, 4, 58, 88
8, 2390, Note_off_c, 4, 58, 0
8, 2400, Note_on_c, 4, 55, 88
8, 2516, Note_off_c, 4, 55, 0
8, 2520, Note_on_c, 4, 58, 88
8, 2636, Note_off_c, 4, 58, 0
8, 2640, Note_on_c, 4, 60, 88
8, 2756, Note_off_c, 4, 60, 0
8, 2760, Note_on_c, 4, 62, 88
8, 2876, Note_off_c, 4, 62, 0
8, 2880, Note_on_c, 4, 60, 88
8, 2996, Note_off_c, 4, 60, 0
8, 3000, Note_on_c, 4, 58, 88
8, 3116, Note_off_c, 4, 58, 0
8, 3120, Note_on_c, 4, 57, 88
8, 3236, Note_off_c, 4, 57, 0
8, 3240, Note_on_c, 4, 55, 88
8, 3356, Note_off_c, 4, 55, 0
8, 3360, Note_on_c, 4, 57, 88
8, 3830, Note_off_c, 4, 57, 0
8, 3840, Note_on_c, 4, 53, 88
8, 4429, Note_off_c, 4, 53, 0
8, 4440, Note_on_c, 4, 53, 88
8, 4556, Note_off_c, 4, 53, 0
8, 4560, Note_on_c, 4, 52, 88
8, 4676, Note_off_c, 4, 52, 0
8, 4680, Note_on_c, 4, 50, 88
8, 4796, Note_off_c, 4, 50, 0
8, 4800, Note_on_c, 4, 52, 88
8, 5034, Note_off_c, 4, 52, 0
8, 5040, Note_on_c, 4, 55, 88
8, 5274, Note_off_c, 4, 55, 0
8, 5280, Note_on_c, 4, 60, 88
8, 5514, Note_off_c, 4, 60, 0
8, 5520, Note_on_c, 4, 55, 88
8, 5989, Note_off_c, 4, 55, 0
8, 6000, Note_on_c, 4, 55, 88
8, 6234, Note_off_c, 4, 55, 0
8, 6240, Note_on_c, 4, 54, 88
8, 6474, Note_off_c, 4, 54, 0
8, 6480, Note_on_c, 4, 58, 88
8, 6714, Note_off_c, 4, 58, 0
8, 6720, Note_on_c, 4, 57, 88
8, 7434, Note_off_c, 4, 57, 0
8, 7440, Note_on_c, 4, 50, 88
8, 7910, Note_off_c, 4, 50, 0
8, 7920, Note_on_c, 4, 55, 88
8, 8389, Note_off_c, 4, 55, 0
8, 8400, Note_on_c, 4, 55, 88
8, 8756, Note_off_c, 4, 55, 0
8, 8760, Note_on_c, 4, 58, 88
8, 8876, Note_off_c, 4, 58, 0
8, 8880, Note_on_c, 4, 60, 88
8, 8996, Note_off_c, 4, 60, 0
8, 9000, Note_on_c, 4, 61, 88
8, 9116, Note_off_c, 4, 61, 0
8, 9120, Note_on_c, 4, 60, 88
8, 11143, Note_off_c, 4, 60, 0
8, 11160, Note_on_c, 4, 63, 88
8, 11276, Note_off_c, 4, 63, 0
8, 11280, Note_on_c, 4, 62, 88
8, 11396, Note_off_c, 4, 62, 0
8, 11400, Note_on_c, 4, 60, 88
8, 11516, Note_off_c, 4, 60, 0
8, 11520, Note_on_c, 4, 62, 88
8, 11990, Note_off_c, 4, 62, 0
8, 12240, Note_on_c, 4, 62, 88
8, 12948, Note_off_c, 4, 62, 0
8, 12960, Note_on_c, 4, 60, 88
8, 13194, Note_off_c, 4, 60, 0
8, 14640, Note_on_c, 4, 57, 88
8, 15821, Note_off_c, 4, 57, 0
8, 15840, Note_on_c, 4, 55, 88
8, 16310, Note_off_c, 4, 55, 0
8, 16920, Note_on_c, 4, 59, 88
8, 17036, Note_off_c, 4, 59, 0
8, 17040, Note_on_c, 4, 60, 88
8, 17156, Note_off_c, 4, 60, 0
8, 17160, Note_on_c, 4, 62, 88
8, 17276, Note_off_c, 4, 62, 0
8, 17280, Note_on_c, 4, 60, 88
8, 17396, Note_off_c, 4, 60, 0
8, 17400, Note_on_c, 4, 59, 88
8, 17516, Note_off_c, 4, 59, 0
8, 17520, Note_on_c, 4, 57, 88
8, 17636, Note_off_c, 4, 57, 0
8, 17640, Note_on_c, 4, 55, 88
8, 17756, Note_off_c, 4, 55, 0
8, 17760, Note_on_c, 4, 57, 88
8, 19190, Note_off_c, 4, 57, 0
8, 19200, Note_on_c, 4, 55, 88
8, 20145, Note_off_c, 4, 55, 0
8, 20160, Note_on_c, 4, 57, 88
8, 20394, Note_off_c, 4, 57, 0
8, 21360, Note_on_c, 4, 55, 88
8, 22070, Note_off_c, 4, 55, 0
8, 22680, Note_on_c, 4, 62, 88
8, 22796, Note_off_c, 4, 62, 0
8, 22800, Note_on_c, 4, 60, 88
8, 22916, Note_off_c, 4, 60, 0
8, 22920, Note_on_c, 4, 59, 88
8, 23036, Note_off_c, 4, 59, 0
8, 23040, Note_on_c, 4, 60, 88
8, 23274, Note_off_c, 4, 60, 0
8, 23280, Note_on_c, 4, 55, 88
8, 23514, Note_off_c, 4, 55, 0
8, 23520, Note_on_c, 4, 57, 88
8, 23754, Note_off_c, 4, 57, 0
8, 23760, Note_on_c, 4, 52, 88
8, 23994, Note_off_c, 4, 52, 0
8, 24000, Note_on_c, 4, 53, 88
8, 24234, Note_off_c, 4, 53, 0
8, 24240, Note_on_c, 4, 57, 88
8, 24474, Note_off_c, 4, 57, 0
8, 24480, Note_on_c, 4, 50, 88
8, 24714, Note_off_c, 4, 50, 0
8, 24720, Note_on_c, 4, 52, 88
8, 24954, Note_off_c, 4, 52, 0
8, 24960, Note_on_c, 4, 53, 88
8, 25549, Note_off_c, 4, 53, 0
8, 25560, Note_on_c, 4, 53, 88
8, 25676, Note_off_c, 4, 53, 0
8, 25680, Note_on_c, 4, 55, 88
8, 25796, Note_off_c, 4, 55, 0
8, 25800, Note_on_c, 4, 57, 88
8, 25916, Note_off_c, 4, 57, 0
8, 25920, Note_on_c, 4, 55, 88
8, 26036, Note_off_c, 4, 55, 0
8, 26040, Note_on_c, 4, 53, 88
8, 26156, Note_off_c, 4, 53, 0
8, 26160, Note_on_c, 4, 52, 88
8, 26276, Note_off_c, 4, 52, 0
8, 26280, Note_on_c, 4, 50, 88
8, 26396, Note_off_c, 4, 50, 0
8, 26400, Note_on_c, 4, 52, 88
8, 26870, Note_off_c, 4, 52, 0
8, 26880, Note_on_c, 4, 48, 88
8, 27469, Note_off_c, 4, 48, 0
8, 27480, Note_on_c, 4, 48, 88
8, 27596, Note_off_c, 4, 48, 0
8, 27600, Note_on_c, 4, 47, 88
8, 27716, Note_off_c, 4, 47, 0
8, 27720, Note_on_c, 4, 45, 88
8, 27836, Note_off_c, 4, 45, 0
8, 27840, Note_on_c, 4, 47, 88
8, 28074, Note_off_c, 4, 47, 0
8, 28080, Note_on_c, 4, 50, 88
8, 28314, Note_off_c, 4, 50, 0
8, 28320, Note_on_c, 4, 55, 88
8, 28554, Note_off_c, 4, 55, 0
8, 28560, Note_on_c, 4, 50, 88
8, 29270, Note_off_c, 4, 50, 0
8, 29280, Note_on_c, 4, 49, 88
8, 29514, Note_off_c, 4, 49, 0
8, 29520, Note_on_c, 4, 53, 88
8, 29754, Note_off_c, 4, 53, 0
8, 29760, Note_on_c, 4, 52, 88
8, 30474, Note_off_c, 4, 52, 0
8, 30480, Note_on_c, 4, 45, 88
8, 30950, Note_off_c, 4, 45, 0
8, 30960, Note_on_c, 4, 50, 88
8, 31429, Note_off_c, 4, 50, 0
8, 31440, Note_on_c, 4, 50, 88
8, 31796, Note_off_c, 4, 50, 0
8, 31800, Note_on_c, 4, 53, 88
8, 31916, Note_off_c, 4, 53, 0
8, 31920, Note_on_c, 4, 55, 88
8, 32036, Note_off_c, 4, 55, 0
8, 32040, Note_on_c, 4, 56, 88
8, 32156, Note_off_c, 4, 56, 0
8, 32160, Note_on_c, 4, 55, 88
8, 34183, Note_off_c, 4, 55, 0
8, 34200, Note_on_c, 4, 58, 88
8, 34316, Note_off_c, 4, 58, 0
8, 34320, Note_on_c, 4, 57, 88
8, 34436, Note_off_c, 4, 57, 0
8, 34440, Note_on_c, 4, 55, 88
8, 34556, Note_off_c, 4, 55, 0
8, 34560, Note_on_c, 4, 57, 88
8, 35030, Note_off_c, 4, 57, 0
8, 35280, Note_on_c, 4, 57, 88
8, 35988, Note_off_c, 4, 57, 0
8, 36000, Note_on_c, 4, 55, 88
8, 36234, Note_off_c, 4, 55, 0
8, 41400, Note_on_c, 4, 65, 88
8, 41516, Note_off_c, 4, 65, 0
8, 41520, Note_on_c, 4, 64, 88
8, 41636, Note_off_c, 4, 64, 0
8, 41640, Note_on_c, 4, 62, 88
8, 41756, Note_off_c, 4, 62, 0
8, 41760, Note_on_c, 4, 64, 88
8, 42230, Note_off_c, 4, 64, 0
8, 42840, Note_on_c, 4, 61, 88
8, 42956, Note_off_c, 4, 61, 0
8, 42960, Note_on_c, 4, 62, 88
8, 43076, Note_off_c, 4, 62, 0
8, 43080, Note_on_c, 4, 64, 88
8, 43196, Note_off_c, 4, 64, 0
8, 43200, Note_on_c, 4, 62, 88
8, 43316, Note_off_c, 4, 62, 0
8, 43320, Note_on_c, 4, 60, 88
8, 43436, Note_off_c, 4, 60, 0
8, 43440, Note_on_c, 4, 58, 88
8, 43556, Note_off_c, 4, 58, 0
8, 43560, Note_on_c, 4, 57, 88
8, 43676, Note_off_c, 4, 57, 0
8, 43680, Note_on_c, 4, 58, 88
8, 44150, Note_off_c, 4, 58, 0
8, 44160, Note_on_c, 4, 57, 88
8, 45230, Note_off_c, 4, 57, 0
8, 45240, Note_on_c, 4, 55, 88
8, 45356, Note_off_c, 4, 55, 0
8, 45360, Note_on_c, 4, 57, 88
8, 45476, Note_off_c, 4, 57, 0
8, 45480, Note_on_c, 4, 58, 88
8, 45596, Note_off_c, 4, 58, 0
8, 45600, Note_on_c, 4, 57, 88
8, 45716, Note_off_c, 4, 57, 0
8, 45720, Note_on_c, 4, 55, 88
8, 45836, Note_off_c, 4, 55, 0
8, 45840, Note_on_c, 4, 53, 88
8, 45956, Note_off_c, 4, 53, 0
8, 45960, Note_on_c, 4, 52, 88
8, 46076, Note_off_c, 4, 52, 0
8, 46560, Note_on_c, 4, 57, 88
8, 47030, Note_off_c, 4, 57, 0
8, 47040, Note_on_c, 4, 62, 88
8, 47754, Note_off_c, 4, 62, 0
8, 48120, Note_on_c, 4, 62, 88
8, 48236, Note_off_c, 4, 62, 0
8, 48240, Note_on_c, 4, 61, 88
8, 48356, Note_off_c, 4, 61, 0
8, 48360, Note_on_c, 4, 59, 88
8, 48476, Note_off_c, 4, 59, 0
8, 48480, Note_on_c, 4, 61, 88
8, 49430, Note_off_c, 4, 61, 0
8, 49440, Note_on_c, 4, 57, 88
8, 50516, Note_off_c, 4, 57, 0
8, 50520, Note_on_c, 4, 60, 88
8, 50636, Note_off_c, 4, 60, 0
8, 50640, Note_on_c, 4, 59, 88
8, 50756, Note_off_c, 4, 59, 0
8, 50760, Note_on_c, 4, 57, 88
8, 50876, Note_off_c, 4, 57, 0
8, 50880, Note_on_c, 4, 56, 88
8, 51114, Note_off_c, 4, 56, 0
8, 51120, Note_on_c, 4, 57, 88
8, 51354, Note_off_c, 4, 57, 0
8, 51360, Note_on_c, 4, 59, 88
8, 51956, Note_off_c, 4, 59, 0
8, 51960, Note_on_c, 4, 50, 88
8, 52076, Note_off_c, 4, 50, 0
8, 52080, Note_on_c, 4, 52, 88
8, 52196, Note_off_c, 4, 52, 0
8, 52200, Note_on_c, 4, 53, 88
8, 52316, Note_off_c, 4, 53, 0
8, 52320, Note_on_c, 4, 52, 88
8, 53870, Note_off_c, 4, 52, 0
8, 53880, Note_on_c, 4, 53, 88
8, 53996, Note_off_c, 4, 53, 0
8, 54000, Note_on_c, 4, 52, 88
8, 54116, Note_off_c, 4, 52, 0
8, 54120, Note_on_c, 4, 50, 88
8, 54236, Note_off_c, 4, 50, 0
8, 54240, Note_on_c, 4, 49, 88
8, 54954, Note_off_c, 4, 49, 0
8, 54960, Note_on_c, 4, 50, 88
8, 55194, Note_off_c, 4, 50, 0
8, 55200, Note_on_c, 4, 52, 88
8, 55434, Note_off_c, 4, 52, 0
8, 55440, Note_on_c, 4, 53, 88
8, 55674, Note_off_c, 4, 53, 0
8, 55680, Note_on_c, 4, 55, 88
8, 55914, Note_off_c, 4, 55, 0
8, 55920, Note_on_c, 4, 57, 88
8, 56154, Note_off_c, 4, 57, 0
8, 56160, Note_on_c, 4, 58, 88
8, 56394, Note_off_c, 4, 58, 0
8, 56400, Note_on_c, 4, 57, 88
8, 56516, Note_off_c, 4, 57, 0
8, 56520, Note_on_c, 4, 55, 88
8, 56636, Note_off_c, 4, 55, 0
8, 56640, Note_on_c, 4, 57, 88
8, 57230, Note_off_c, 4, 57, 0
8, 57240, Note_on_c, 4, 60, 88
8, 57356, Note_off_c, 4, 60, 0
8, 57360, Note_on_c, 4, 58, 88
8, 57476, Note_off_c, 4, 58, 0
8, 57480, Note_on_c, 4, 57, 88
8, 57596, Note_off_c, 4, 57, 0
8, 57600, Note_on_c, 4, 58, 88
8, 58308, Note_off_c, 4, 58, 0
8, 58320, Note_on_c, 4, 57, 88
8, 58554, Note_off_c, 4, 57, 0
8, 58560, Note_on_c, 4, 55, 88
8, 59274, Note_off_c, 4, 55, 0
8, 59280, Note_on_c, 4, 53, 88
8, 59396, Note_off_c, 4, 53, 0
8, 59400, Note_on_c, 4, 52, 88
8, 59516, Note_off_c, 4, 52, 0
8, 59520, Note_on_c, 4, 53, 88
8, 59754, Note_off_c, 4, 53, 0
8, 59760, Note_on_c, 4, 57, 88
8, 60113, Note_off_c, 4, 57, 0
8, 60120, Note_on_c, 4, 64, 88
8, 60236, Note_off_c, 4, 64, 0
8, 60240, Note_on_c, 4, 62, 88
8, 60356, Note_off_c, 4, 62, 0
8, 60360, Note_on_c, 4, 61, 88
8, 60476, Note_off_c, 4, 61, 0
8, 60480, Note_on_c, 4, 62, 88
8, 61188, Note_off_c, 4, 62, 0
8, 61200, Note_on_c, 4, 60, 88
8, 61434, Note_off_c, 4, 60, 0
8, 61440, Note_on_c, 4, 58, 88
8, 62154, Note_off_c, 4, 58, 0
8, 62160, Note_on_c, 4, 57, 88
8, 62276, Note_off_c, 4, 57, 0
8, 62280, Note_on_c, 4, 55, 88
8, 62396, Note_off_c, 4, 55, 0
8, 62400, Note_on_c, 4, 57, 88
8, 62634, Note_off_c, 4, 57, 0
8, 62640, Note_on_c, 4, 60, 88
8, 62993, Note_off_c, 4, 60, 0
8, 63000, Note_on_c, 4, 67, 88
8, 63116, Note_off_c, 4, 67, 0
8, 63120, Note_on_c, 4, 65, 88
8, 63236, Note_off_c, 4, 65, 0
8, 63240, Note_on_c, 4, 64, 88
8, 63356, Note_off_c, 4, 64, 0
8, 63360, Note_on_c, 4, 65, 88
8, 64068, Note_off_c, 4, 65, 0
8, 64080, Note_on_c, 4, 64, 88
8, 64314, Note_off_c, 4, 64, 0
8, 64320, Note_on_c, 4, 62, 88
8, 65034, Note_off_c, 4, 62, 0
8, 65040, Note_on_c, 4, 60, 88
8, 65156, Note_off_c, 4, 60, 0
8, 65160, Note_on_c, 4, 59, 88
8, 65276, Note_off_c, 4, 59, 0
8, 65280, Note_on_c, 4, 60, 88
8, 65750, Note_off_c, 4, 60, 0
8, 68160, Note_on_c, 4, 64, 88
8, 69354, Note_off_c, 4, 64, 0
8, 69360, Note_on_c, 4, 52, 88
8, 69594, Note_off_c, 4, 52, 0
8, 69600, Note_on_c, 4, 54, 88
8, 69834, Note_off_c, 4, 54, 0
8, 69840, Note_on_c, 4, 56, 88
8, 70074, Note_off_c, 4, 56, 0
8, 70080, Note_on_c, 4, 57, 88
8, 70314, Note_off_c, 4, 57, 0
8, 70320, Note_on_c, 4, 59, 88
8, 70554, Note_off_c, 4, 59, 0
8, 70560, Note_on_c, 4, 60, 88
8, 70794, Note_off_c, 4, 60, 0
8, 70800, Note_on_c, 4, 57, 88
8, 71270, Note_off_c, 4, 57, 0
8, 71280, Note_on_c, 4, 61, 88
8, 71514, Note_off_c, 4, 61, 0
8, 71520, Note_on_c, 4, 62, 88
8, 71754, Note_off_c, 4, 62, 0
8, 71760, Note_on_c, 4, 57, 88
8, 72229, Note_off_c, 4, 57, 0
8, 72240, Note_on_c, 4, 57, 88
8, 72474, Note_off_c, 4, 57, 0
8, 72480, Note_on_c, 4, 59, 88
8, 72714, Note_off_c, 4, 59, 0
8, 72720, Note_on_c, 4, 61, 88
8, 72954, Note_off_c, 4, 61, 0
8, 72960, Note_on_c, 4, 62, 88
8, 73194, Note_off_c, 4, 62, 0
8, 73200, Note_on_c, 4, 64, 88
8, 73434, Note_off_c, 4, 64, 0
8, 73440, Note_on_c, 4, 65, 88
8, 73556, Note_off_c, 4, 65, 0
8, 75120, Note_on_c, 4, 53, 88
8, 75354, Note_off_c, 4, 53, 0
8, 75360, Note_on_c, 4, 58, 88
8, 75594, Note_off_c, 4, 58, 0
8, 75600, Note_on_c, 4, 60, 88
8, 75834, Note_off_c, 4, 60, 0
8, 75840, Note_on_c, 4, 62, 88
8, 76074, Note_off_c, 4, 62, 0
8, 76080, Note_on_c, 4, 60, 88
8, 76314, Note_off_c, 4, 60, 0
8, 76320, Note_on_c, 4, 59, 88
8, 76554, Note_off_c, 4, 59, 0
8, 76560, Note_on_c, 4, 64, 88
8, 77994, Note_off_c, 4, 64, 0
8, 78360, Note_on_c, 4, 45, 88
8, 78476, Note_off_c, 4, 45, 0
8, 78480, Note_on_c, 4, 47, 88
8, 78596, Note_off_c, 4, 47, 0
8, 78600, Note_on_c, 4, 48, 88
8, 78716, Note_off_c, 4, 48, 0
8, 78720, Note_on_c, 4, 50, 88
8, 78954, Note_off_c, 4, 50, 0
8, 78960, Note_on_c, 4, 52, 88
8, 79194, Note_off_c, 4, 52, 0
8, 79200, Note_on_c, 4, 53, 88
8, 79434, Note_off_c, 4, 53, 0
8, 79440, Note_on_c, 4, 50, 88
8, 79674, Note_off_c, 4, 50, 0
8, 79680, Note_on_c, 4, 53, 88
8, 80150, Note_off_c, 4, 53, 0
8, 80160, Note_on_c, 4, 52, 88
8, 80630, Note_off_c, 4, 52, 0
8, 81600, Note_on_c, 4, 57, 88
8, 82070, Note_off_c, 4, 57, 0
8, 82080, Note_on_c, 4, 62, 88
8, 82550, Note_off_c, 4, 62, 0
8, 82560, Note_on_c, 4, 58, 88
8, 83030, Note_off_c, 4, 58, 0
8, 83040, Note_on_c, 4, 55, 88
8, 83156, Note_off_c, 4, 55, 0
8, 83160, Note_on_c, 4, 58, 88
8, 83276, Note_off_c, 4, 58, 0
8, 83280, Note_on_c, 4, 60, 88
8, 83396, Note_off_c, 4, 60, 0
8, 83400, Note_on_c, 4, 62, 88
8, 83516, Note_off_c, 4, 62, 0
8, 83520, Note_on_c, 4, 60, 88
8, 83636, Note_off_c, 4, 60, 0
8, 83640, Note_on_c, 4, 58, 88
8, 83756, Note_off_c, 4, 58, 0
8, 83760, Note_on_c, 4, 57, 88
8, 83876, Note_off_c, 4, 57, 0
8, 83880, Note_on_c, 4, 55, 88
8, 83996, Note_off_c, 4, 55, 0
8, 84000, Note_on_c, 4, 57, 88
8, 84470, Note_off_c, 4, 57, 0
8, 84480, Note_on_c, 4, 53, 88
8, 85069, Note_off_c, 4, 53, 0
8, 85080, Note_on_c, 4, 53, 88
8, 85196, Note_off_c, 4, 53, 0
8, 85200, Note_on_c, 4, 52, 88
8, 85316, Note_off_c, 4, 52, 0
8, 85320, Note_on_c, 4, 50, 88
8, 85436, Note_off_c, 4, 50, 0
8, 85440, Note_on_c, 4, 52, 88
8, 85674, Note_off_c, 4, 52, 0
8, 85680, Note_on_c, 4, 55, 88
8, 85914, Note_off_c, 4, 55, 0
8, 85920, Note_on_c, 4, 60, 88
8, 86154, Note_off_c, 4, 60, 0
8, 86160, Note_on_c, 4, 55, 88
8, 86629, Note_off_c, 4, 55, 0
8, 86640, Note_on_c, 4, 55, 88
8, 86874, Note_off_c, 4, 55, 0
8, 86880, Note_on_c, 4, 54, 88
8, 87114, Note_off_c, 4, 54, 0
8, 87120, Note_on_c, 4, 58, 88
8, 87354, Note_off_c, 4, 58, 0
8, 87360, Note_on_c, 4, 57, 88
8, 88074, Note_off_c, 4, 57, 0
8, 88080, Note_on_c, 4, 50, 88
8, 88550, Note_off_c, 4, 50, 0
8, 88560, Note_on_c, 4, 55, 88
8, 88913, Note_off_c, 4, 55, 0
8, 88920, Note_on_c, 4, 54, 88
8, 89036, Note_off_c, 4, 54, 0
8, 89040, Note_on_c, 4, 55, 88
8, 89156, Note_off_c, 4, 55, 0
8, 89160, Note_on_c, 4, 57, 88
8, 89276, Note_off_c, 4, 57, 0
8, 89280, Note_on_c, 4, 58, 88
8, 89514, Note_off_c, 4, 58, 0
8, 97560, Note_on_c, 4, 52, 88
8, 97676, Note_off_c, 4, 52, 0
8, 97680, Note_on_c, 4, 53, 88
8, 97796, Note_off_c, 4, 53, 0
8, 97800, Note_on_c, 4, 55, 88
8, 97916, Note_off_c, 4, 55, 0
8, 97920, Note_on_c, 4, 53, 88
8, 98036, Note_off_c, 4, 53, 0
8, 98040, Note_on_c, 4, 52, 88
8, 98156, Note_off_c, 4, 52, 0
8, 98160, Note_on_c, 4, 50, 88
8, 98276, Note_off_c, 4, 50, 0
8, 98280, Note_on_c, 4, 48, 88
8, 98396, Note_off_c, 4, 48, 0
8, 98400, Note_on_c, 4, 50, 88
8, 99830, Note_off_c, 4, 50, 0
8, 99840, Note_on_c, 4, 48, 88
8, 101029, Note_off_c, 4, 48, 0
8, 101040, Note_on_c, 4, 48, 88
8, 101274, Note_off_c, 4, 48, 0
8, 101280, Note_on_c, 4, 46, 88
8, 101750, Note_off_c, 4, 46, 0
8, 101760, Note_on_c, 4, 48, 88
8, 103657, Note_off_c, 4, 48, 0
8, 103657, End_track
9, 0, Start_track
9, 0, Title_t, "Track 6"
9, 0, Program_c, 5, 6
9, 0, Note_on_c, 5, 41, 88
9, 470, Note_off_c, 5, 41, 0
9, 480, Note_on_c, 5, 53, 88
9, 3470, Note_off_c, 5, 53, 0
9, 3480, Note_on_c, 5, 55, 88
9, 3596, Note_off_c, 5, 55, 0
9, 3600, Note_on_c, 5, 53, 88
9, 3716, Note_off_c, 5, 53, 0
9, 3720, Note_on_c, 5, 52, 88
9, 3836, Note_off_c, 5, 52, 0
9, 3840, Note_on_c, 5, 53, 88
9, 3956, Note_off_c, 5, 53, 0
9, 3960, Note_on_c, 5, 50, 88
9, 4076, Note_off_c, 5, 50, 0
9, 4080, Note_on_c, 5, 48, 88
9, 4196, Note_off_c, 5, 48, 0
9, 4200, Note_on_c, 5, 47, 88
9, 4316, Note_off_c, 5, 47, 0
9, 4320, Note_on_c, 5, 48, 88
9, 5383, Note_off_c, 5, 48, 0
9, 5400, Note_on_c, 5, 50, 88
9, 5516, Note_off_c, 5, 50, 0
9, 5520, Note_on_c, 5, 48, 88
9, 5636, Note_off_c, 5, 48, 0
9, 5640, Note_on_c, 5, 46, 88
9, 5756, Note_off_c, 5, 46, 0
9, 5760, Note_on_c, 5, 45, 88
9, 6230, Note_off_c, 5, 45, 0
9, 6240, Note_on_c, 5, 50, 88
9, 7185, Note_off_c, 5, 50, 0
9, 7200, Note_on_c, 5, 43, 88
9, 7670, Note_off_c, 5, 43, 0
9, 7680, Note_on_c, 5, 46, 88
9, 8150, Note_off_c, 5, 46, 0
9, 8160, Note_on_c, 5, 43, 88
9, 8630, Note_off_c, 5, 43, 0
9, 8640, Note_on_c, 5, 48, 88
9, 9110, Note_off_c, 5, 48, 0
9, 9120, Note_on_c, 5, 52, 88
9, 9590, Note_off_c, 5, 52, 0
9, 9600, Note_on_c, 5, 48, 88
9, 10070, Note_off_c, 5, 48, 0
9, 10080, Note_on_c, 5, 53, 88
9, 10550, Note_off_c, 5, 53, 0
9, 10560, Note_on_c, 5, 57, 88
9, 11030, Note_off_c, 5, 57, 0
9, 11040, Note_on_c, 5, 53, 88
9, 11510, Note_off_c, 5, 53, 0
9, 11520, Note_on_c, 5, 58, 88
9, 11754, Note_off_c, 5, 58, 0
9, 11760, Note_on_c, 5, 57, 88
9, 11994, Note_off_c, 5, 57, 0
9, 12000, Note_on_c, 5, 58, 88
9, 13069, Note_off_c, 5, 58, 0
9, 13080, Note_on_c, 5, 58, 88
9, 13196, Note_off_c, 5, 58, 0
9, 13200, Note_on_c, 5, 60, 88
9, 13316, Note_off_c, 5, 60, 0
9, 13320, Note_on_c, 5, 62, 88
9, 13436, Note_off_c, 5, 62, 0
9, 13440, Note_on_c, 5, 60, 88
9, 13556, Note_off_c, 5, 60, 0
9, 13560, Note_on_c, 5, 58, 88
9, 13676, Note_off_c, 5, 58, 0
9, 13680, Note_on_c, 5, 57, 88
9, 13796, Note_off_c, 5, 57, 0
9, 13800, Note_on_c, 5, 55, 88
9, 13916, Note_off_c, 5, 55, 0
9, 13920, Note_on_c, 5, 57, 88
9, 14036, Note_off_c, 5, 57, 0
9, 14040, Note_on_c, 5, 55, 88
9, 14156, Note_off_c, 5, 55, 0
9, 14160, Note_on_c, 5, 53, 88
9, 14276, Note_off_c, 5, 53, 0
9, 14280, Note_on_c, 5, 52, 88
9, 14396, Note_off_c, 5, 52, 0
9, 14400, Note_on_c, 5, 50, 88
9, 15108, Note_off_c, 5, 50, 0
9, 15120, Note_on_c, 5, 52, 88
9, 15354, Note_off_c, 5, 52, 0
9, 15360, Note_on_c, 5, 53, 88
9, 16310, Note_off_c, 5, 53, 0
9, 16800, Note_on_c, 5, 52, 88
9, 17870, Note_off_c, 5, 52, 0
9, 17880, Note_on_c, 5, 55, 88
9, 17996, Note_off_c, 5, 55, 0
9, 18000, Note_on_c, 5, 53, 88
9, 18116, Note_off_c, 5, 53, 0
9, 18120, Note_on_c, 5, 52, 88
9, 18236, Note_off_c, 5, 52, 0
9, 18240, Note_on_c, 5, 53, 88
9, 18356, Note_off_c, 5, 53, 0
9, 18360, Note_on_c, 5, 52, 88
9, 18476, Note_off_c, 5, 52, 0
9, 18480, Note_on_c, 5, 50, 88
9, 18596, Note_off_c, 5, 50, 0
9, 18600, Note_on_c, 5, 48, 88
9, 18716, Note_off_c, 5, 48, 0
9, 18720, Note_on_c, 5, 50, 88
9, 18836, Note_off_c, 5, 50, 0
9, 18840, Note_on_c, 5, 48, 88
9, 18956, Note_off_c, 5, 48, 0
9, 18960, Note_on_c, 5, 47, 88
9, 19076, Note_off_c, 5, 47, 0
9, 19080, Note_on_c, 5, 45, 88
9, 19196, Note_off_c, 5, 45, 0
9, 19200, Note_on_c, 5, 47, 88
9, 19434, Note_off_c, 5, 47, 0
9, 19440, Note_on_c, 5, 43, 88
9, 19674, Note_off_c, 5, 43, 0
9, 19680, Note_on_c, 5, 48, 88
9, 19914, Note_off_c, 5, 48, 0
9, 19920, Note_on_c, 5, 47, 88
9, 20154, Note_off_c, 5, 47, 0
9, 20160, Note_on_c, 5, 45, 88
9, 20394, Note_off_c, 5, 45, 0
9, 20400, Note_on_c, 5, 43, 88
9, 20634, Note_off_c, 5, 43, 0
9, 20640, Note_on_c, 5, 41, 88
9, 20874, Note_off_c, 5, 41, 0
9, 20880, Note_on_c, 5, 38, 88
9, 21114, Note_off_c, 5, 38, 0
9, 21120, Note_on_c, 5, 43, 88
9, 21590, Note_off_c, 5, 43, 0
9, 21600, Note_on_c, 5, 48, 88
9, 22070, Note_off_c, 5, 48, 0
9, 23520, Note_on_c, 5, 48, 88
9, 26510, Note_off_c, 5, 48, 0
9, 26520, Note_on_c, 5, 50, 88
9, 26636, Note_off_c, 5, 50, 0
9, 26640, Note_on_c, 5, 48, 88
9, 26756, Note_off_c, 5, 48, 0
9, 26760, Note_on_c, 5, 47, 88
9, 26876, Note_off_c, 5, 47, 0
9, 26880, Note_on_c, 5, 48, 88
9, 26996, Note_off_c, 5, 48, 0
9, 27000, Note_on_c, 5, 45, 88
9, 27116, Note_off_c, 5, 45, 0
9, 27120, Note_on_c, 5, 43, 88
9, 27236, Note_off_c, 5, 43, 0
9, 27240, Note_on_c, 5, 42, 88
9, 27356, Note_off_c, 5, 42, 0
9, 27360, Note_on_c, 5, 43, 88
9, 28423, Note_off_c, 5, 43, 0
9, 28440, Note_on_c, 5, 45, 88
9, 28556, Note_off_c, 5, 45, 0
9, 28560, Note_on_c, 5, 43, 88
9, 28676, Note_off_c, 5, 43, 0
9, 28680, Note_on_c, 5, 41, 88
9, 28796, Note_off_c, 5, 41, 0
9, 28800, Note_on_c, 5, 40, 88
9, 29270, Note_off_c, 5, 40, 0
9, 29280, Note_on_c, 5, 45, 88
9, 30225, Note_off_c, 5, 45, 0
9, 30240, Note_on_c, 5, 38, 88
9, 30710, Note_off_c, 5, 38, 0
9, 30720, Note_on_c, 5, 41, 88
9, 31190, Note_off_c, 5, 41, 0
9, 31200, Note_on_c, 5, 38, 88
9, 31670, Note_off_c, 5, 38, 0
9, 31680, Note_on_c, 5, 43, 88
9, 32150, Note_off_c, 5, 43, 0
9, 32160, Note_on_c, 5, 47, 88
9, 32630, Note_off_c, 5, 47, 0
9, 32640, Note_on_c, 5, 43, 88
9, 33110, Note_off_c, 5, 43, 0
9, 33120, Note_on_c, 5, 48, 88
9, 33590, Note_off_c, 5, 48, 0
9, 33600, Note_on_c, 5, 52, 88
9, 34070, Note_off_c, 5, 52, 0
9, 34080, Note_on_c, 5, 48, 88
9, 34550, Note_off_c, 5, 48, 0
9, 34560, Note_on_c, 5, 53, 88
9, 34794, Note_off_c, 5, 53, 0
9, 34800, Note_on_c, 5, 52, 88
9, 35034, Note_off_c, 5, 52, 0
9, 35040, Note_on_c, 5, 53, 88
9, 36109, Note_off_c, 5, 53, 0
9, 36120, Note_on_c, 5, 53, 88
9, 36236, Note_off_c, 5, 53, 0
9, 36240, Note_on_c, 5, 55, 88
9, 36356, Note_off_c, 5, 55, 0
9, 36360, Note_on_c, 5, 57, 88
9, 36476, Note_off_c, 5, 57, 0
9, 36480, Note_on_c, 5, 55, 88
9, 36596, Note_off_c, 5, 55, 0
9, 36600, Note_on_c, 5, 53, 88
9, 36716, Note_off_c, 5, 53, 0
9, 36720, Note_on_c, 5, 52, 88
9, 36836, Note_off_c, 5, 52, 0
9, 36840, Note_on_c, 5, 50, 88
9, 36956, Note_off_c, 5, 50, 0
9, 36960, Note_on_c, 5, 52, 88
9, 37076, Note_off_c, 5, 52, 0
9, 37080, Note_on_c, 5, 50, 88
9, 37196, Note_off_c, 5, 50, 0
9, 37200, Note_on_c, 5, 48, 88
9, 37316, Note_off_c, 5, 48, 0
9, 37320, Note_on_c, 5, 46, 88
9, 37436, Note_off_c, 5, 46, 0
9, 37440, Note_on_c, 5, 45, 88
9, 37556, Note_off_c, 5, 45, 0
9, 37560, Note_on_c, 5, 52, 88
9, 37676, Note_off_c, 5, 52, 0
9, 37680, Note_on_c, 5, 53, 88
9, 37796, Note_off_c, 5, 53, 0
9, 37800, Note_on_c, 5, 55, 88
9, 37916, Note_off_c, 5, 55, 0
9, 37920, Note_on_c, 5, 53, 88
9, 38036, Note_off_c, 5, 53, 0
9, 38040, Note_on_c, 5, 51, 88
9, 38156, Note_off_c, 5, 51, 0
9, 38160, Note_on_c, 5, 50, 88
9, 38276, Note_off_c, 5, 50, 0
9, 38280, Note_on_c, 5, 48, 88
9, 38396, Note_off_c, 5, 48, 0
9, 38400, Note_on_c, 5, 50, 88
9, 38516, Note_off_c, 5, 50, 0
9, 38520, Note_on_c, 5, 48, 88
9, 38636, Note_off_c, 5, 48, 0
9, 38640, Note_on_c, 5, 46, 88
9, 38756, Note_off_c, 5, 46, 0
9, 38760, Note_on_c, 5, 45, 88
9, 38876, Note_off_c, 5, 45, 0
9, 38880, Note_on_c, 5, 43, 88
9, 38996, Note_off_c, 5, 43, 0
9, 39000, Note_on_c, 5, 58, 88
9, 39116, Note_off_c, 5, 58, 0
9, 39120, Note_on_c, 5, 60, 88
9, 39236, Note_off_c, 5, 60, 0
9, 39240, Note_on_c, 5, 62, 88
9, 39356, Note_off_c, 5, 62, 0
9, 39360, Note_on_c, 5, 60, 88
9, 39476, Note_off_c, 5, 60, 0
9, 39480, Note_on_c, 5, 58, 88
9, 39596, Note_off_c, 5, 58, 0
9, 39600, Note_on_c, 5, 57, 88
9, 39716, Note_off_c, 5, 57, 0
9, 39720, Note_on_c, 5, 55, 88
9, 39836, Note_off_c, 5, 55, 0
9, 39840, Note_on_c, 5, 57, 88
9, 39956, Note_off_c, 5, 57, 0
9, 39960, Note_on_c, 5, 55, 88
9, 40076, Note_off_c, 5, 55, 0
9, 40080, Note_on_c, 5, 53, 88
9, 40196, Note_off_c, 5, 53, 0
9, 40200, Note_on_c, 5, 52, 88
9, 40316, Note_off_c, 5, 52, 0
9, 40320, Note_on_c, 5, 50, 88
9, 40436, Note_off_c, 5, 50, 0
9, 40440, Note_on_c, 5, 57, 88
9, 40556, Note_off_c, 5, 57, 0
9, 40560, Note_on_c, 5, 58, 88
9, 40676, Note_off_c, 5, 58, 0
9, 40680, Note_on_c, 5, 60, 88
9, 40796, Note_off_c, 5, 60, 0
9, 40800, Note_on_c, 5, 58, 88
9, 40916, Note_off_c, 5, 58, 0
9, 40920, Note_on_c, 5, 57, 88
9, 41036, Note_off_c, 5, 57, 0
9, 41040, Note_on_c, 5, 55, 88
9, 41156, Note_off_c, 5, 55, 0
9, 41160, Note_on_c, 5, 53, 88
9, 41276, Note_off_c, 5, 53, 0
9, 41280, Note_on_c, 5, 55, 88
9, 42705, Note_off_c, 5, 55, 0
9, 42720, Note_on_c, 5, 53, 88
9, 43670, Note_off_c, 5, 53, 0
9, 43800, Note_on_c, 5, 57, 88
9, 43916, Note_off_c, 5, 57, 0
9, 43920, Note_on_c, 5, 55, 88
9, 44036, Note_off_c, 5, 55, 0
9, 44040, Note_on_c, 5, 53, 88
9, 44156, Note_off_c, 5, 53, 0
9, 44160, Note_on_c, 5, 55, 88
9, 44276, Note_off_c, 5, 55, 0
9, 44280, Note_on_c, 5, 53, 88
9, 44396, Note_off_c, 5, 53, 0
9, 44400, Note_on_c, 5, 52, 88
9, 44516, Note_off_c, 5, 52, 0
9, 44520, Note_on_c, 5, 50, 88
9, 44636, Note_off_c, 5, 50, 0
9, 44640, Note_on_c, 5, 57, 88
9, 44874, Note_off_c, 5, 57, 0
9, 44880, Note_on_c, 5, 45, 88
9, 45350, Note_off_c, 5, 45, 0
9, 46080, Note_on_c, 5, 53, 88
9, 47497, Note_off_c, 5, 53, 0
9, 47520, Note_on_c, 5, 52, 88
9, 48465, Note_off_c, 5, 52, 0
9, 48600, Note_on_c, 5, 55, 88
9, 48716, Note_off_c, 5, 55, 0
9, 48720, Note_on_c, 5, 57, 88
9, 48836, Note_off_c, 5, 57, 0
9, 48840, Note_on_c, 5, 58, 88
9, 48956, Note_off_c, 5, 58, 0
9, 48960, Note_on_c, 5, 57, 88
9, 49076, Note_off_c, 5, 57, 0
9, 49080, Note_on_c, 5, 55, 88
9, 49196, Note_off_c, 5, 55, 0
9, 49200, Note_on_c, 5, 53, 88
9, 49316, Note_off_c, 5, 53, 0
9, 49320, Note_on_c, 5, 52, 88
9, 49436, Note_off_c, 5, 52, 0
9, 49440, Note_on_c, 5, 53, 88
9, 49556, Note_off_c, 5, 53, 0
9, 49560, Note_on_c, 5, 52, 88
9, 49676, Note_off_c, 5, 52, 0
9, 49680, Note_on_c, 5, 50, 88
9, 49796, Note_off_c, 5, 50, 0
9, 49800, Note_on_c, 5, 49, 88
9, 49916, Note_off_c, 5, 49, 0
9, 49920, Note_on_c, 5, 50, 88
9, 50036, Note_off_c, 5, 50, 0
9, 50040, Note_on_c, 5, 48, 88
9, 50156, Note_off_c, 5, 48, 0
9, 50160, Note_on_c, 5, 47, 88
9, 50276, Note_off_c, 5, 47, 0
9, 50280, Note_on_c, 5, 45, 88
9, 50396, Note_off_c, 5, 45, 0
9, 50400, Note_on_c, 5, 47, 88
9, 50990, Note_off_c, 5, 47, 0
9, 51000, Note_on_c, 5, 48, 88
9, 51116, Note_off_c, 5, 48, 0
9, 51120, Note_on_c, 5, 50, 88
9, 51236, Note_off_c, 5, 50, 0
9, 51240, Note_on_c, 5, 52, 88
9, 51356, Note_off_c, 5, 52, 0
9, 51360, Note_on_c, 5, 50, 88
9, 51476, Note_off_c, 5, 50, 0
9, 51480, Note_on_c, 5, 48, 88
9, 51596, Note_off_c, 5, 48, 0
9, 51600, Note_on_c, 5, 47, 88
9, 51716, Note_off_c, 5, 47, 0
9, 51720, Note_on_c, 5, 45, 88
9, 51836, Note_off_c, 5, 45, 0
9, 51840, Note_on_c, 5, 44, 88
9, 53257, Note_off_c, 5, 44, 0
9, 53280, Note_on_c, 5, 43, 88
9, 54343, Note_off_c, 5, 43, 0
9, 54360, Note_on_c, 5, 46, 88
9, 54476, Note_off_c, 5, 46, 0
9, 54480, Note_on_c, 5, 45, 88
9, 54596, Note_off_c, 5, 45, 0
9, 54600, Note_on_c, 5, 43, 88
9, 54716, Note_off_c, 5, 43, 0
9, 54720, Note_on_c, 5, 41, 88
9, 55190, Note_off_c, 5, 41, 0
9, 55200, Note_on_c, 5, 43, 88
9, 55670, Note_off_c, 5, 43, 0
9, 55680, Note_on_c, 5, 45, 88
9, 56150, Note_off_c, 5, 45, 0
9, 56160, Note_on_c, 5, 50, 88
9, 57709, Note_off_c, 5, 50, 0
9, 57720, Note_on_c, 5, 50, 88
9, 57836, Note_off_c, 5, 50, 0
9, 57840, Note_on_c, 5, 52, 88
9, 57956, Note_off_c, 5, 52, 0
9, 57960, Note_on_c, 5, 53, 88
9, 58076, Note_off_c, 5, 53, 0
9, 58080, Note_on_c, 5, 55, 88
9, 58314, Note_off_c, 5, 55, 0
9, 58320, Note_on_c, 5, 53, 88
9, 58673, Note_off_c, 5, 53, 0
9, 58680, Note_on_c, 5, 52, 88
9, 58796, Note_off_c, 5, 52, 0
9, 58800, Note_on_c, 5, 50, 88
9, 58916, Note_off_c, 5, 50, 0
9, 58920, Note_on_c, 5, 48, 88
9, 59036, Note_off_c, 5, 48, 0
9, 59040, Note_on_c, 5, 53, 88
9, 59274, Note_off_c, 5, 53, 0
9, 59280, Note_on_c, 5, 41, 88
9, 59514, Note_off_c, 5, 41, 0
9, 59520, Note_on_c, 5, 53, 88
9, 60589, Note_off_c, 5, 53, 0
9, 60600, Note_on_c, 5, 53, 88
9, 60716, Note_off_c, 5, 53, 0
9, 60720, Note_on_c, 5, 55, 88
9, 60836, Note_off_c, 5, 55, 0
9, 60840, Note_on_c, 5, 57, 88
9, 60956, Note_off_c, 5, 57, 0
9, 60960, Note_on_c, 5, 58, 88
9, 61194, Note_off_c, 5, 58, 0
9, 61200, Note_on_c, 5, 57, 88
9, 61553, Note_off_c, 5, 57, 0
9, 61560, Note_on_c, 5, 55, 88
9, 61676, Note_off_c, 5, 55, 0
9, 61680, Note_on_c, 5, 53, 88
9, 61796, Note_off_c, 5, 53, 0
9, 61800, Note_on_c, 5, 52, 88
9, 61916, Note_off_c, 5, 52, 0
9, 61920, Note_on_c, 5, 57, 88
9, 62154, Note_off_c, 5, 57, 0
9, 62160, Note_on_c, 5, 45, 88
9, 62394, Note_off_c, 5, 45, 0
9, 62400, Note_on_c, 5, 57, 88
9, 63469, Note_off_c, 5, 57, 0
9, 63480, Note_on_c, 5, 57, 88
9, 63596, Note_off_c, 5, 57, 0
9, 63600, Note_on_c, 5, 59, 88
9, 63716, Note_off_c, 5, 59, 0
9, 63720, Note_on_c, 5, 60, 88
9, 63836, Note_off_c, 5, 60, 0
9, 63840, Note_on_c, 5, 62, 88
9, 64074, Note_off_c, 5, 62, 0
9, 64080, Note_on_c, 5, 60, 88
9, 64433, Note_off_c, 5, 60, 0
9, 64440, Note_on_c, 5, 59, 88
9, 64556, Note_off_c, 5, 59, 0
9, 64560, Note_on_c, 5, 57, 88
9, 64676, Note_off_c, 5, 57, 0
9, 64680, Note_on_c, 5, 55, 88
9, 64796, Note_off_c, 5, 55, 0
9, 64800, Note_on_c, 5, 60, 88
9, 65034, Note_off_c, 5, 60, 0
9, 65040, Note_on_c, 5, 48, 88
9, 65274, Note_off_c, 5, 48, 0
9, 65280, Note_on_c, 5, 60, 88
9, 66225, Note_off_c, 5, 60, 0
9, 66360, Note_on_c, 5, 64, 88
9, 66476, Note_off_c, 5, 64, 0
9, 66480, Note_on_c, 5, 65, 88
9, 66596, Note_off_c, 5, 65, 0
9, 66600, Note_on_c, 5, 67, 88
9, 66716, Note_off_c, 5, 67, 0
9, 66720, Note_on_c, 5, 65, 88
9, 66836, Note_off_c, 5, 65, 0
9, 66840, Note_on_c, 5, 64, 88
9, 66956, Note_off_c, 5, 64, 0
9, 66960, Note_on_c, 5, 62, 88
9, 67076, Note_off_c, 5, 62, 0
9, 67080, Note_on_c, 5, 60, 88
9, 67196, Note_off_c, 5, 60, 0
9, 67200, Note_on_c, 5, 62, 88
9, 67316, Note_off_c, 5, 62, 0
9, 67320, Note_on_c, 5, 60, 88
9, 67436, Note_off_c, 5, 60, 0
9, 67440, Note_on_c, 5, 59, 88
9, 67556, Note_off_c, 5, 59, 0
9, 67560, Note_on_c, 5, 57, 88
9, 67676, Note_off_c, 5, 57, 0
9, 67680, Note_on_c, 5, 59, 88
9, 67796, Note_off_c, 5, 59, 0
9, 67800, Note_on_c, 5, 57, 88
9, 67916, Note_off_c, 5, 57, 0
9, 67920, Note_on_c, 5, 56, 88
9, 68036, Note_off_c, 5, 56, 0
9, 68040, Note_on_c, 5, 54, 88
9, 68156, Note_off_c, 5, 54, 0
9, 68160, Note_on_c, 5, 56, 88
9, 68276, Note_off_c, 5, 56, 0
9, 68280, Note_on_c, 5, 50, 88
9, 68396, Note_off_c, 5, 50, 0
9, 68400, Note_on_c, 5, 52, 88
9, 68516, Note_off_c, 5, 52, 0
9, 68520, Note_on_c, 5, 53, 88
9, 68636, Note_off_c, 5, 53, 0
9, 68640, Note_on_c, 5, 52, 88
9, 68756, Note_off_c, 5, 52, 0
9, 68760, Note_on_c, 5, 50, 88
9, 68876, Note_off_c, 5, 50, 0
9, 68880, Note_on_c, 5, 48, 88
9, 68996, Note_off_c, 5, 48, 0
9, 69000, Note_on_c, 5, 47, 88
9, 69116, Note_off_c, 5, 47, 0
9, 69120, Note_on_c, 5, 48, 88
9, 70794, Note_off_c, 5, 48, 0
9, 70800, Note_on_c, 5, 49, 88
9, 71034, Note_off_c, 5, 49, 0
9, 71040, Note_on_c, 5, 50, 88
9, 71274, Note_off_c, 5, 50, 0
9, 71280, Note_on_c, 5, 52, 88
9, 71514, Note_off_c, 5, 52, 0
9, 71520, Note_on_c, 5, 53, 88
9, 71754, Note_off_c, 5, 53, 0
9, 71760, Note_on_c, 5, 55, 88
9, 71994, Note_off_c, 5, 55, 0
9, 72000, Note_on_c, 5, 53, 88
9, 73556, Note_off_c, 5, 53, 0
9, 73560, Note_on_c, 5, 55, 88
9, 73676, Note_off_c, 5, 55, 0
9, 73680, Note_on_c, 5, 57, 88
9, 73796, Note_off_c, 5, 57, 0
9, 73800, Note_on_c, 5, 58, 88
9, 73916, Note_off_c, 5, 58, 0
9, 73920, Note_on_c, 5, 57, 88
9, 74036, Note_off_c, 5, 57, 0
9, 74040, Note_on_c, 5, 55, 88
9, 74156, Note_off_c, 5, 55, 0
9, 74160, Note_on_c, 5, 53, 88
9, 74276, Note_off_c, 5, 53, 0
9, 74280, Note_on_c, 5, 52, 88
9, 74396, Note_off_c, 5, 52, 0
9, 74400, Note_on_c, 5, 53, 88
9, 74516, Note_off_c, 5, 53, 0
9, 74520, Note_on_c, 5, 52, 88
9, 74636, Note_off_c, 5, 52, 0
9, 74640, Note_on_c, 5, 50, 88
9, 74756, Note_off_c, 5, 50, 0
9, 74760, Note_on_c, 5, 49, 88
9, 74876, Note_off_c, 5, 49, 0
9, 74880, Note_on_c, 5, 50, 88
9, 76429, Note_off_c, 5, 50, 0
9, 76440, Note_on_c, 5, 50, 88
9, 76556, Note_off_c, 5, 50, 0
9, 76560, Note_on_c, 5, 52, 88
9, 76676, Note_off_c, 5, 52, 0
9, 76680, Note_on_c, 5, 53, 88
9, 76796, Note_off_c, 5, 53, 0
9, 76800, Note_on_c, 5, 52, 88
9, 76916, Note_off_c, 5, 52, 0
9, 76920, Note_on_c, 5, 50, 88
9, 77036, Note_off_c, 5, 50, 0
9, 77040, Note_on_c, 5, 48, 88
9, 77156, Note_off_c, 5, 48, 0
9, 77160, Note_on_c, 5, 47, 88
9, 77276, Note_off_c, 5, 47, 0
9, 77280, Note_on_c, 5, 48, 88
9, 77396, Note_off_c, 5, 48, 0
9, 77400, Note_on_c, 5, 47, 88
9, 77516, Note_off_c, 5, 47, 0
9, 77520, Note_on_c, 5, 45, 88
9, 77636, Note_off_c, 5, 45, 0
9, 77640, Note_on_c, 5, 44, 88
9, 77756, Note_off_c, 5, 44, 0
9, 77760, Note_on_c, 5, 45, 88
9, 77876, Note_off_c, 5, 45, 0
9, 77880, Note_on_c, 5, 41, 88
9, 77996, Note_off_c, 5, 41, 0
9, 78000, Note_on_c, 5, 40, 88
9, 78116, Note_off_c, 5, 40, 0
9, 78120, Note_on_c, 5, 39, 88
9, 78236, Note_off_c, 5, 39, 0
9, 78240, Note_on_c, 5, 40, 88
9, 79185, Note_off_c, 5, 40, 0
9, 79200, Note_on_c, 5, 45, 88
9, 80263, Note_off_c, 5, 45, 0
9, 80280, Note_on_c, 5, 46, 88
9, 80396, Note_off_c, 5, 46, 0
9, 80400, Note_on_c, 5, 45, 88
9, 80516, Note_off_c, 5, 45, 0
9, 80520, Note_on_c, 5, 43, 88
9, 80636, Note_off_c, 5, 43, 0
9, 80640, Note_on_c, 5, 41, 88
9, 81110, Note_off_c, 5, 41, 0
9, 81120, Note_on_c, 5, 53, 88
9, 84110, Note_off_c, 5, 53, 0
9, 84120, Note_on_c, 5, 55, 88
9, 84236, Note_off_c, 5, 55, 0
9, 84240, Note_on_c, 5, 53, 88
9, 84356, Note_off_c, 5, 53, 0
9, 84360, Note_on_c, 5, 52, 88
9, 84476, Note_off_c, 5, 52, 0
9, 84480, Note_on_c, 5, 53, 88
9, 84596, Note_off_c, 5, 53, 0
9, 84600, Note_on_c, 5, 50, 88
9, 84716, Note_off_c, 5, 50, 0
9, 84720, Note_on_c, 5, 48, 88
9, 84836, Note_off_c, 5, 48, 0
9, 84840, Note_on_c, 5, 47, 88
9, 84956, Note_off_c, 5, 47, 0
9, 84960, Note_on_c, 5, 48, 88
9, 86023, Note_off_c, 5, 48, 0
9, 86040, Note_on_c, 5, 50, 88
9, 86156, Note_off_c, 5, 50, 0
9, 86160, Note_on_c, 5, 48, 88
9, 86276, Note_off_c, 5, 48, 0
9, 86280, Note_on_c, 5, 46, 88
9, 86396, Note_off_c, 5, 46, 0
9, 86400, Note_on_c, 5, 45, 88
9, 86870, Note_off_c, 5, 45, 0
9, 86880, Note_on_c, 5, 50, 88
9, 87825, Note_off_c, 5, 50, 0
9, 87840, Note_on_c, 5, 43, 88
9, 88310, Note_off_c, 5, 43, 0
9, 88320, Note_on_c, 5, 46, 88
9, 88790, Note_off_c, 5, 46, 0
9, 88800, Note_on_c, 5, 50, 88
9, 89270, Note_off_c, 5, 50, 0
9, 89280, Note_on_c, 5, 55, 88
9, 89750, Note_off_c, 5, 55, 0
9, 89760, Note_on_c, 5, 57, 88
9, 90230, Note_off_c, 5, 57, 0
9, 90240, Note_on_c, 5, 53, 88
9, 90356, Note_off_c, 5, 53, 0
9, 90360, Note_on_c, 5, 67, 88
9, 90476, Note_off_c, 5, 67, 0
9, 90480, Note_on_c, 5, 65, 88
9, 90596, Note_off_c, 5, 65, 0
9, 90600, Note_on_c, 5, 63, 88
9, 90716, Note_off_c, 5, 63, 0
9, 90720, Note_on_c, 5, 62, 88
9, 90836, Note_off_c, 5, 62, 0
9, 90840, Note_on_c, 5, 60, 88
9, 90956, Note_off_c, 5, 60, 0
9, 90960, Note_on_c, 5, 58, 88
9, 91076, Note_off_c, 5, 58, 0
9, 91080, Note_on_c, 5, 57, 88
9, 91196, Note_off_c, 5, 57, 0
9, 91200, Note_on_c, 5, 58, 88
9, 91316, Note_off_c, 5, 58, 0
9, 91320, Note_on_c, 5, 50, 88
9, 91436, Note_off_c, 5, 50, 0
9, 91440, Note_on_c, 5, 51, 88
9, 91556, Note_off_c, 5, 51, 0
9, 91560, Note_on_c, 5, 53, 88
9, 91676, Note_off_c, 5, 53, 0
9, 91680, Note_on_c, 5, 51, 88
9, 91796, Note_off_c, 5, 51, 0
9, 91800, Note_on_c, 5, 50, 88
9, 91916, Note_off_c, 5, 50, 0
9, 91920, Note_on_c, 5, 48, 88
9, 92036, Note_off_c, 5, 48, 0
9, 92040, Note_on_c, 5, 46, 88
9, 92156, Note_off_c, 5, 46, 0
9, 92160, Note_on_c, 5, 51, 88
9, 92394, Note_off_c, 5, 51, 0
9, 92400, Note_on_c, 5, 50, 88
9, 92634, Note_off_c, 5, 50, 0
9, 92640, Note_on_c, 5, 51, 88
9, 93709, Note_off_c, 5, 51, 0
9, 93720, Note_on_c, 5, 51, 88
9, 93836, Note_off_c, 5, 51, 0
9, 93840, Note_on_c, 5, 53, 88
9, 93956, Note_off_c, 5, 53, 0
9, 93960, Note_on_c, 5, 55, 88
9, 94076, Note_off_c, 5, 55, 0
9, 94080, Note_on_c, 5, 53, 88
9, 94196, Note_off_c, 5, 53, 0
9, 94200, Note_on_c, 5, 51, 88
9, 94316, Note_off_c, 5, 51, 0
9, 94320, Note_on_c, 5, 50, 88
9, 94436, Note_off_c, 5, 50, 0
9, 94440, Note_on_c, 5, 48, 88
9, 94556, Note_off_c, 5, 48, 0
9, 94560, Note_on_c, 5, 50, 88
9, 94676, Note_off_c, 5, 50, 0
9, 94680, Note_on_c, 5, 48, 88
9, 94796, Note_off_c, 5, 48, 0
9, 94800, Note_on_c, 5, 46, 88
9, 94916, Note_off_c, 5, 46, 0
9, 94920, Note_on_c, 5, 45, 88
9, 95036, Note_off_c, 5, 45, 0
9, 95040, Note_on_c, 5, 43, 88
9, 95748, Note_off_c, 5, 43, 0
9, 95760, Note_on_c, 5, 45, 88
9, 95994, Note_off_c, 5, 45, 0
9, 96000, Note_on_c, 5, 46, 88
9, 96950, Note_off_c, 5, 46, 0
9, 97440, Note_on_c, 5, 45, 88
9, 98510, Note_off_c, 5, 45, 0
9, 98520, Note_on_c, 5, 48, 88
9, 98636, Note_off_c, 5, 48, 0
9, 98640, Note_on_c, 5, 46, 88
9, 98756, Note_off_c, 5, 46, 0
9, 98760, Note_on_c, 5, 45, 88
9, 98876, Note_off_c, 5, 45, 0
9, 98880, Note_on_c, 5, 46, 88
9, 98996, Note_off_c, 5, 46, 0
9, 99000, Note_on_c, 5, 45, 88
9, 99116, Note_off_c, 5, 45, 0
9, 99120, Note_on_c, 5, 43, 88
9, 99236, Note_off_c, 5, 43, 0
9, 99240, Note_on_c, 5, 41, 88
9, 99356, Note_off_c, 5, 41, 0
9, 99360, Note_on_c, 5, 43, 88
9, 99476, Note_off_c, 5, 43, 0
9, 99480, Note_on_c, 5, 41, 88
9, 99596, Note_off_c, 5, 41, 0
9, 99600, Note_on_c, 5, 40, 88
9, 99716, Note_off_c, 5, 40, 0
9, 99720, Note_on_c, 5, 38, 88
9, 99836, Note_off_c, 5, 38, 0
9, 99840, Note_on_c, 5, 40, 88
9, 100074, Note_off_c, 5, 40, 0
9, 100080, Note_on_c, 5, 36, 88
9, 100314, Note_off_c, 5, 36, 0
9, 100320, Note_on_c, 5, 41, 88
9, 100554, Note_off_c, 5, 41, 0
9, 100560, Note_on_c, 5, 40, 88
9, 100794, Note_off_c, 5, 40, 0
9, 100800, Note_on_c, 5, 38, 88
9, 101270, Note_off_c, 5, 38, 0
9, 101520, Note_on_c, 5, 43, 88
9, 101754, Note_off_c, 5, 43, 0
9, 101760, Note_on_c, 5, 48, 88
9, 101994, Note_off_c, 5, 48, 0
9, 102000, Note_on_c, 5, 36, 88
9, 102234, Note_off_c, 5, 36, 0
9, 102240, Note_on_c, 5, 41, 88
9, 103657, Note_off_c, 5, 41, 0
9, 103657, End_track
0, 0, End_of_file
