0, 0, Header, 1, 7, 240
1, 0, Start_track
1, 0, Time_signature, 2, 2, 24, 8
1, 0, Tempo, 869565
1, 0, SMPTE_offset, 64, 0, 0, 0, 168
1, 13440, Time_signature, 2, 2, 24, 8
1, 26880, Tempo, 869565
1, 46320, Tempo, 1000000
1, 46560, Tempo, 1111111
1, 46800, Tempo, 1500000
1, 47040, Tempo, 869565
1, 66480, Tempo, 1000000
1, 66720, Tempo, 1111111
1, 66960, Tempo, 1714285
1, 66960, End_track
2, 0, Start_track
2, 0, Title_t, "(C) & (P) 1993"
2, 127, End_track
3, 0, Start_track
3, 0, Title_t, "CCARH,Stanford"
3, 0, End_track
4, 0, Start_track
4, 0, Title_t, "Track 1"
4, 0, Program_c, 0, 6
4, 120, Note_on_c, 0, 68, 88
4, 236, Note_off_c, 0, 68, 0
4, 240, Note_on_c, 0, 68, 88
4, 356, Note_off_c, 0, 68, 0
4, 360, Note_on_c, 0, 67, 88
4, 476, Note_off_c, 0, 67, 0
4, 600, Note_on_c, 0, 70, 88
4, 716, Note_off_c, 0, 70, 0
4, 720, Note_on_c, 0, 70, 88
4, 836, Note_off_c, 0, 70, 0
4, 840, Note_on_c, 0, 68, 88
4, 956, Note_off_c, 0, 68, 0
4, 1080, Note_on_c, 0, 80, 88
4, 1196, Note_off_c, 0, 80, 0
4, 1200, Note_on_c, 0, 80, 88
4, 1316, Note_off_c, 0, 80, 0
4, 1320, Note_on_c, 0, 79, 88
4, 1436, Note_off_c, 0, 79, 0
4, 1560, Note_on_c, 0, 77, 88
4, 1676, Note_off_c, 0, 77, 0
4, 1680, Note_on_c, 0, 77, 88
4, 1796, Note_off_c, 0, 77, 0
4, 1800, Note_on_c, 0, 76, 88
4, 1916, Note_off_c, 0, 76, 0
4, 1980, Note_on_c, 0, 67, 88
4, 2038, Note_off_c, 0, 67, 0
4, 2040, Note_on_c, 0, 60, 88
4, 2098, Note_off_c, 0, 60, 0
4, 2100, Note_on_c, 0, 67, 88
4, 2158, Note_off_c, 0, 67, 0
4, 2220, Note_on_c, 0, 68, 88
4, 2278, Note_off_c, 0, 68, 0
4, 2280, Note_on_c, 0, 60, 88
4, 2338, Note_off_c, 0, 60, 0
4, 2340, Note_on_c, 0, 68, 88
4, 2398, Note_off_c, 0, 68, 0
4, 2460, Note_on_c, 0, 65, 88
4, 2518, Note_off_c, 0, 65, 0
4, 2520, Note_on_c, 0, 60, 88
4, 2578, Note_off_c, 0, 60, 0
4, 2580, Note_on_c, 0, 65, 88
4, 2638, Note_off_c, 0, 65, 0
4, 2700, Note_on_c, 0, 67, 88
4, 2758, Note_off_c, 0, 67, 0
4, 2760, Note_on_c, 0, 60, 88
4, 2818, Note_off_c, 0, 60, 0
4, 2820, Note_on_c, 0, 67, 88
4, 2878, Note_off_c, 0, 67, 0
4, 2940, Note_on_c, 0, 70, 88
4, 2998, Note_off_c, 0, 70, 0
4, 3000, Note_on_c, 0, 60, 88
4, 3058, Note_off_c, 0, 60, 0
4, 3060, Note_on_c, 0, 70, 88
4, 3118, Note_off_c, 0, 70, 0
4, 3180, Note_on_c, 0, 68, 88
4, 3238, Note_off_c, 0, 68, 0
4, 3240, Note_on_c, 0, 60, 88
4, 3298, Note_off_c, 0, 60, 0
4, 3300, Note_on_c, 0, 68, 88
4, 3358, Note_off_c, 0, 68, 0
4, 3420, Note_on_c, 0, 65, 88
4, 3478, Note_off_c, 0, 65, 0
4, 3480, Note_on_c, 0, 60, 88
4, 3538, Note_off_c, 0, 60, 0
4, 3540, Note_on_c, 0, 65, 88
4, 3598, Note_off_c, 0, 65, 0
4, 3660, Note_on_c, 0, 67, 88
4, 3718, Note_off_c, 0, 67, 0
4, 3720, Note_on_c, 0, 60, 88
4, 3778, Note_off_c, 0, 60, 0
4, 3780, Note_on_c, 0, 67, 88
4, 3838, Note_off_c, 0, 67, 0
4, 3960, Note_on_c, 0, 68, 88
4, 4076, Note_off_c, 0, 68, 0
4, 4080, Note_on_c, 0, 68, 88
4, 4196, Note_off_c, 0, 68, 0
4, 4200, Note_on_c, 0, 67, 88
4, 4316, Note_off_c, 0, 67, 0
4, 4440, Note_on_c, 0, 70, 88
4, 4556, Note_off_c, 0, 70, 0
4, 4560, Note_on_c, 0, 70, 88
4, 4676, Note_off_c, 0, 70, 0
4, 4680, Note_on_c, 0, 68, 88
4, 4796, Note_off_c, 0, 68, 0
4, 4920, Note_on_c, 0, 72, 88
4, 5036, Note_off_c, 0, 72, 0
4, 5040, Note_on_c, 0, 72, 88
4, 5156, Note_off_c, 0, 72, 0
4, 5160, Note_on_c, 0, 73, 88
4, 5276, Note_off_c, 0, 73, 0
4, 5400, Note_on_c, 0, 70, 88
4, 5516, Note_off_c, 0, 70, 0
4, 5520, Note_on_c, 0, 70, 88
4, 5636, Note_off_c, 0, 70, 0
4, 5640, Note_on_c, 0, 72, 88
4, 5756, Note_off_c, 0, 72, 0
4, 5880, Note_on_c, 0, 75, 88
4, 5996, Note_off_c, 0, 75, 0
4, 6000, Note_on_c, 0, 75, 88
4, 6116, Note_off_c, 0, 75, 0
4, 6120, Note_on_c, 0, 73, 88
4, 6236, Note_off_c, 0, 73, 0
4, 6360, Note_on_c, 0, 73, 88
4, 6476, Note_off_c, 0, 73, 0
4, 6480, Note_on_c, 0, 73, 88
4, 6596, Note_off_c, 0, 73, 0
4, 6600, Note_on_c, 0, 72, 88
4, 6716, Note_off_c, 0, 72, 0
4, 6840, Note_on_c, 0, 78, 88
4, 6956, Note_off_c, 0, 78, 0
4, 6960, Note_on_c, 0, 78, 88
4, 7076, Note_off_c, 0, 78, 0
4, 7080, Note_on_c, 0, 77, 88
4, 7196, Note_off_c, 0, 77, 0
4, 7320, Note_on_c, 0, 80, 88
4, 7436, Note_off_c, 0, 80, 0
4, 7440, Note_on_c, 0, 80, 88
4, 7556, Note_off_c, 0, 80, 0
4, 7560, Note_on_c, 0, 79, 88
4, 7676, Note_off_c, 0, 79, 0
4, 7740, Note_on_c, 0, 70, 88
4, 7798, Note_off_c, 0, 70, 0
4, 7800, Note_on_c, 0, 63, 88
4, 7858, Note_off_c, 0, 63, 0
4, 7860, Note_on_c, 0, 70, 88
4, 7918, Note_off_c, 0, 70, 0
4, 7980, Note_on_c, 0, 72, 88
4, 8038, Note_off_c, 0, 72, 0
4, 8040, Note_on_c, 0, 63, 88
4, 8098, Note_off_c, 0, 63, 0
4, 8100, Note_on_c, 0, 72, 88
4, 8158, Note_off_c, 0, 72, 0
4, 8220, Note_on_c, 0, 68, 88
4, 8278, Note_off_c, 0, 68, 0
4, 8280, Note_on_c, 0, 63, 88
4, 8338, Note_off_c, 0, 63, 0
4, 8340, Note_on_c, 0, 68, 88
4, 8398, Note_off_c, 0, 68, 0
4, 8460, Note_on_c, 0, 70, 88
4, 8518, Note_off_c, 0, 70, 0
4, 8520, Note_on_c, 0, 63, 88
4, 8578, Note_off_c, 0, 63, 0
4, 8580, Note_on_c, 0, 70, 88
4, 8638, Note_off_c, 0, 70, 0
4, 8700, Note_on_c, 0, 73, 88
4, 8758, Note_off_c, 0, 73, 0
4, 8760, Note_on_c, 0, 63, 88
4, 8818, Note_off_c, 0, 63, 0
4, 8820, Note_on_c, 0, 73, 88
4, 8878, Note_off_c, 0, 73, 0
4, 8940, Note_on_c, 0, 72, 88
4, 8998, Note_off_c, 0, 72, 0
4, 9000, Note_on_c, 0, 63, 88
4, 9058, Note_off_c, 0, 63, 0
4, 9060, Note_on_c, 0, 72, 88
4, 9118, Note_off_c, 0, 72, 0
4, 9180, Note_on_c, 0, 74, 88
4, 9238, Note_off_c, 0, 74, 0
4, 9240, Note_on_c, 0, 63, 88
4, 9298, Note_off_c, 0, 63, 0
4, 9300, Note_on_c, 0, 74, 88
4, 9358, Note_off_c, 0, 74, 0
4, 9420, Note_on_c, 0, 75, 88
4, 9478, Note_off_c, 0, 75, 0
4, 9480, Note_on_c, 0, 63, 88
4, 9538, Note_off_c, 0, 63, 0
4, 9540, Note_on_c, 0, 75, 88
4, 9598, Note_off_c, 0, 75, 0
4, 9600, Note_on_c, 0, 66, 88
4, 9658, Note_off_c, 0, 66, 0
4, 9660, Note_on_c, 0, 68, 88
4, 9718, Note_off_c, 0, 68, 0
4, 9720, Note_on_c, 0, 72, 88
4, 9778, Note_off_c, 0, 72, 0
4, 9780, Note_on_c, 0, 75, 88
4, 9838, Note_off_c, 0, 75, 0
4, 9840, Note_on_c, 0, 75, 88
4, 9898, Note_off_c, 0, 75, 0
4, 9900, Note_on_c, 0, 72, 88
4, 9958, Note_off_c, 0, 72, 0
4, 9960, Note_on_c, 0, 68, 88
4, 10018, Note_off_c, 0, 68, 0
4, 10020, Note_on_c, 0, 65, 88
4, 10063, Note_off_c, 0, 65, 0
4, 10080, Note_on_c, 0, 65, 88
4, 10138, Note_off_c, 0, 65, 0
4, 10140, Note_on_c, 0, 67, 88
4, 10198, Note_off_c, 0, 67, 0
4, 10200, Note_on_c, 0, 70, 88
4, 10258, Note_off_c, 0, 70, 0
4, 10260, Note_on_c, 0, 73, 88
4, 10318, Note_off_c, 0, 73, 0
4, 10320, Note_on_c, 0, 73, 88
4, 10378, Note_off_c, 0, 73, 0
4, 10380, Note_on_c, 0, 70, 88
4, 10438, Note_off_c, 0, 70, 0
4, 10440, Note_on_c, 0, 67, 88
4, 10498, Note_off_c, 0, 67, 0
4, 10500, Note_on_c, 0, 63, 88
4, 10543, Note_off_c, 0, 63, 0
4, 10560, Note_on_c, 0, 63, 88
4, 10618, Note_off_c, 0, 63, 0
4, 10620, Note_on_c, 0, 65, 88
4, 10678, Note_off_c, 0, 65, 0
4, 10680, Note_on_c, 0, 68, 88
4, 10738, Note_off_c, 0, 68, 0
4, 10740, Note_on_c, 0, 72, 88
4, 10798, Note_off_c, 0, 72, 0
4, 10800, Note_on_c, 0, 72, 88
4, 10858, Note_off_c, 0, 72, 0
4, 10860, Note_on_c, 0, 68, 88
4, 10918, Note_off_c, 0, 68, 0
4, 10920, Note_on_c, 0, 65, 88
4, 10978, Note_off_c, 0, 65, 0
4, 10980, Note_on_c, 0, 61, 88
4, 11023, Note_off_c, 0, 61, 0
4, 11040, Note_on_c, 0, 61, 88
4, 11098, Note_off_c, 0, 61, 0
4, 11100, Note_on_c, 0, 63, 88
4, 11158, Note_off_c, 0, 63, 0
4, 11160, Note_on_c, 0, 67, 88
4, 11218, Note_off_c, 0, 67, 0
4, 11220, Note_on_c, 0, 70, 88
4, 11278, Note_off_c, 0, 70, 0
4, 11280, Note_on_c, 0, 70, 88
4, 11338, Note_off_c, 0, 70, 0
4, 11340, Note_on_c, 0, 67, 88
4, 11398, Note_off_c, 0, 67, 0
4, 11400, Note_on_c, 0, 63, 88
4, 11458, Note_off_c, 0, 63, 0
4, 11460, Note_on_c, 0, 60, 88
4, 11518, Note_off_c, 0, 60, 0
4, 11580, Note_on_c, 0, 68, 88
4, 11638, Note_off_c, 0, 68, 0
4, 11640, Note_on_c, 0, 60, 88
4, 11698, Note_off_c, 0, 60, 0
4, 11700, Note_on_c, 0, 68, 88
4, 11758, Note_off_c, 0, 68, 0
4, 11820, Note_on_c, 0, 68, 88
4, 11878, Note_off_c, 0, 68, 0
4, 11880, Note_on_c, 0, 61, 88
4, 11938, Note_off_c, 0, 61, 0
4, 11940, Note_on_c, 0, 68, 88
4, 11998, Note_off_c, 0, 68, 0
4, 12060, Note_on_c, 0, 68, 88
4, 12118, Note_off_c, 0, 68, 0
4, 12120, Note_on_c, 0, 60, 88
4, 12178, Note_off_c, 0, 60, 0
4, 12180, Note_on_c, 0, 68, 88
4, 12238, Note_off_c, 0, 68, 0
4, 12300, Note_on_c, 0, 68, 88
4, 12358, Note_off_c, 0, 68, 0
4, 12360, Note_on_c, 0, 58, 88
4, 12418, Note_off_c, 0, 58, 0
4, 12420, Note_on_c, 0, 68, 88
4, 12478, Note_off_c, 0, 68, 0
4, 12540, Note_on_c, 0, 68, 88
4, 12598, Note_off_c, 0, 68, 0
4, 12600, Note_on_c, 0, 56, 88
4, 12658, Note_off_c, 0, 56, 0
4, 12660, Note_on_c, 0, 68, 88
4, 12718, Note_off_c, 0, 68, 0
4, 12720, Note_on_c, 0, 58, 88
4, 12778, Note_off_c, 0, 58, 0
4, 12780, Note_on_c, 0, 68, 88
4, 12838, Note_off_c, 0, 68, 0
4, 12840, Note_on_c, 0, 64, 88
4, 12898, Note_off_c, 0, 64, 0
4, 12900, Note_on_c, 0, 68, 88
4, 12958, Note_off_c, 0, 68, 0
4, 12960, Note_on_c, 0, 63, 88
4, 13018, Note_off_c, 0, 63, 0
4, 13020, Note_on_c, 0, 67, 88
4, 13078, Note_off_c, 0, 67, 0
4, 13080, Note_on_c, 0, 61, 88
4, 13138, Note_off_c, 0, 61, 0
4, 13140, Note_on_c, 0, 67, 88
4, 13198, Note_off_c, 0, 67, 0
4, 13200, Note_on_c, 0, 67, 88
4, 13316, Note_off_c, 0, 67, 0
4, 13320, Note_on_c, 0, 68, 88
4, 13436, Note_off_c, 0, 68, 0
4, 13560, Note_on_c, 0, 68, 88
4, 13676, Note_off_c, 0, 68, 0
4, 13680, Note_on_c, 0, 68, 88
4, 13796, Note_off_c, 0, 68, 0
4, 13800, Note_on_c, 0, 67, 88
4, 13916, Note_off_c, 0, 67, 0
4, 14040, Note_on_c, 0, 70, 88
4, 14156, Note_off_c, 0, 70, 0
4, 14160, Note_on_c, 0, 70, 88
4, 14276, Note_off_c, 0, 70, 0
4, 14280, Note_on_c, 0, 68, 88
4, 14396, Note_off_c, 0, 68, 0
4, 14520, Note_on_c, 0, 80, 88
4, 14636, Note_off_c, 0, 80, 0
4, 14640, Note_on_c, 0, 80, 88
4, 14756, Note_off_c, 0, 80, 0
4, 14760, Note_on_c, 0, 79, 88
4, 14876, Note_off_c, 0, 79, 0
4, 15000, Note_on_c, 0, 77, 88
4, 15116, Note_off_c, 0, 77, 0
4, 15120, Note_on_c, 0, 77, 88
4, 15236, Note_off_c, 0, 77, 0
4, 15240, Note_on_c, 0, 76, 88
4, 15356, Note_off_c, 0, 76, 0
4, 15420, Note_on_c, 0, 67, 88
4, 15478, Note_off_c, 0, 67, 0
4, 15480, Note_on_c, 0, 60, 88
4, 15538, Note_off_c, 0, 60, 0
4, 15540, Note_on_c, 0, 67, 88
4, 15598, Note_off_c, 0, 67, 0
4, 15660, Note_on_c, 0, 68, 88
4, 15718, Note_off_c, 0, 68, 0
4, 15720, Note_on_c, 0, 60, 88
4, 15778, Note_off_c, 0, 60, 0
4, 15780, Note_on_c, 0, 68, 88
4, 15838, Note_off_c, 0, 68, 0
4, 15900, Note_on_c, 0, 65, 88
4, 15958, Note_off_c, 0, 65, 0
4, 15960, Note_on_c, 0, 60, 88
4, 16018, Note_off_c, 0, 60, 0
4, 16020, Note_on_c, 0, 65, 88
4, 16078, Note_off_c, 0, 65, 0
4, 16140, Note_on_c, 0, 67, 88
4, 16198, Note_off_c, 0, 67, 0
4, 16200, Note_on_c, 0, 60, 88
4, 16258, Note_off_c, 0, 60, 0
4, 16260, Note_on_c, 0, 67, 88
4, 16318, Note_off_c, 0, 67, 0
4, 16380, Note_on_c, 0, 70, 88
4, 16438, Note_off_c, 0, 70, 0
4, 16440, Note_on_c, 0, 60, 88
4, 16498, Note_off_c, 0, 60, 0
4, 16500, Note_on_c, 0, 70, 88
4, 16558, Note_off_c, 0, 70, 0
4, 16620, Note_on_c, 0, 68, 88
4, 16678, Note_off_c, 0, 68, 0
4, 16680, Note_on_c, 0, 60, 88
4, 16738, Note_off_c, 0, 60, 0
4, 16740, Note_on_c, 0, 68, 88
4, 16798, Note_off_c, 0, 68, 0
4, 16860, Note_on_c, 0, 65, 88
4, 16918, Note_off_c, 0, 65, 0
4, 16920, Note_on_c, 0, 60, 88
4, 16978, Note_off_c, 0, 60, 0
4, 16980, Note_on_c, 0, 65, 88
4, 17038, Note_off_c, 0, 65, 0
4, 17100, Note_on_c, 0, 67, 88
4, 17158, Note_off_c, 0, 67, 0
4, 17160, Note_on_c, 0, 60, 88
4, 17218, Note_off_c, 0, 60, 0
4, 17220, Note_on_c, 0, 67, 88
4, 17278, Note_off_c, 0, 67, 0
4, 17400, Note_on_c, 0, 68, 88
4, 17516, Note_off_c, 0, 68, 0
4, 17520, Note_on_c, 0, 68, 88
4, 17636, Note_off_c, 0, 68, 0
4, 17640, Note_on_c, 0, 67, 88
4, 17756, Note_off_c, 0, 67, 0
4, 17880, Note_on_c, 0, 70, 88
4, 17996, Note_off_c, 0, 70, 0
4, 18000, Note_on_c, 0, 70, 88
4, 18116, Note_off_c, 0, 70, 0
4, 18120, Note_on_c, 0, 68, 88
4, 18236, Note_off_c, 0, 68, 0
4, 18360, Note_on_c, 0, 72, 88
4, 18476, Note_off_c, 0, 72, 0
4, 18480, Note_on_c, 0, 72, 88
4, 18596, Note_off_c, 0, 72, 0
4, 18600, Note_on_c, 0, 73, 88
4, 18716, Note_off_c, 0, 73, 0
4, 18840, Note_on_c, 0, 70, 88
4, 18956, Note_off_c, 0, 70, 0
4, 18960, Note_on_c, 0, 70, 88
4, 19076, Note_off_c, 0, 70, 0
4, 19080, Note_on_c, 0, 72, 88
4, 19196, Note_off_c, 0, 72, 0
4, 19320, Note_on_c, 0, 75, 88
4, 19436, Note_off_c, 0, 75, 0
4, 19440, Note_on_c, 0, 75, 88
4, 19556, Note_off_c, 0, 75, 0
4, 19560, Note_on_c, 0, 73, 88
4, 19676, Note_off_c, 0, 73, 0
4, 19800, Note_on_c, 0, 73, 88
4, 19916, Note_off_c, 0, 73, 0
4, 19920, Note_on_c, 0, 73, 88
4, 20036, Note_off_c, 0, 73, 0
4, 20040, Note_on_c, 0, 72, 88
4, 20156, Note_off_c, 0, 72, 0
4, 20280, Note_on_c, 0, 78, 88
4, 20396, Note_off_c, 0, 78, 0
4, 20400, Note_on_c, 0, 78, 88
4, 20516, Note_off_c, 0, 78, 0
4, 20520, Note_on_c, 0, 77, 88
4, 20636, Note_off_c, 0, 77, 0
4, 20760, Note_on_c, 0, 80, 88
4, 20876, Note_off_c, 0, 80, 0
4, 20880, Note_on_c, 0, 80, 88
4, 20996, Note_off_c, 0, 80, 0
4, 21000, Note_on_c, 0, 79, 88
4, 21116, Note_off_c, 0, 79, 0
4, 21180, Note_on_c, 0, 70, 88
4, 21238, Note_off_c, 0, 70, 0
4, 21240, Note_on_c, 0, 63, 88
4, 21298, Note_off_c, 0, 63, 0
4, 21300, Note_on_c, 0, 70, 88
4, 21358, Note_off_c, 0, 70, 0
4, 21420, Note_on_c, 0, 72, 88
4, 21478, Note_off_c, 0, 72, 0
4, 21480, Note_on_c, 0, 63, 88
4, 21538, Note_off_c, 0, 63, 0
4, 21540, Note_on_c, 0, 72, 88
4, 21598, Note_off_c, 0, 72, 0
4, 21660, Note_on_c, 0, 68, 88
4, 21718, Note_off_c, 0, 68, 0
4, 21720, Note_on_c, 0, 63, 88
4, 21778, Note_off_c, 0, 63, 0
4, 21780, Note_on_c, 0, 68, 88
4, 21838, Note_off_c, 0, 68, 0
4, 21900, Note_on_c, 0, 70, 88
4, 21958, Note_off_c, 0, 70, 0
4, 21960, Note_on_c, 0, 63, 88
4, 22018, Note_off_c, 0, 63, 0
4, 22020, Note_on_c, 0, 70, 88
4, 22078, Note_off_c, 0, 70, 0
4, 22140, Note_on_c, 0, 73, 88
4, 22198, Note_off_c, 0, 73, 0
4, 22200, Note_on_c, 0, 63, 88
4, 22258, Note_off_c, 0, 63, 0
4, 22260, Note_on_c, 0, 73, 88
4, 22318, Note_off_c, 0, 73, 0
4, 22380, Note_on_c, 0, 72, 88
4, 22438, Note_off_c, 0, 72, 0
4, 22440, Note_on_c, 0, 63, 88
4, 22498, Note_off_c, 0, 63, 0
4, 22500, Note_on_c, 0, 72, 88
4, 22558, Note_off_c, 0, 72, 0
4, 22620, Note_on_c, 0, 74, 88
4, 22678, Note_off_c, 0, 74, 0
4, 22680, Note_on_c, 0, 63, 88
4, 22738, Note_off_c, 0, 63, 0
4, 22740, Note_on_c, 0, 74, 88
4, 22798, Note_off_c, 0, 74, 0
4, 22860, Note_on_c, 0, 75, 88
4, 22918, Note_off_c, 0, 75, 0
4, 22920, Note_on_c, 0, 63, 88
4, 22978, Note_off_c, 0, 63, 0
4, 22980, Note_on_c, 0, 75, 88
4, 23038, Note_off_c, 0, 75, 0
4, 23040, Note_on_c, 0, 66, 88
4, 23098, Note_off_c, 0, 66, 0
4, 23100, Note_on_c, 0, 68, 88
4, 23158, Note_off_c, 0, 68, 0
4, 23160, Note_on_c, 0, 72, 88
4, 23218, Note_off_c, 0, 72, 0
4, 23220, Note_on_c, 0, 75, 88
4, 23278, Note_off_c, 0, 75, 0
4, 23280, Note_on_c, 0, 75, 88
4, 23338, Note_off_c, 0, 75, 0
4, 23340, Note_on_c, 0, 72, 88
4, 23398, Note_off_c, 0, 72, 0
4, 23400, Note_on_c, 0, 68, 88
4, 23458, Note_off_c, 0, 68, 0
4, 23460, Note_on_c, 0, 65, 88
4, 23503, Note_off_c, 0, 65, 0
4, 23520, Note_on_c, 0, 65, 88
4, 23578, Note_off_c, 0, 65, 0
4, 23580, Note_on_c, 0, 67, 88
4, 23638, Note_off_c, 0, 67, 0
4, 23640, Note_on_c, 0, 70, 88
4, 23698, Note_off_c, 0, 70, 0
4, 23700, Note_on_c, 0, 73, 88
4, 23758, Note_off_c, 0, 73, 0
4, 23760, Note_on_c, 0, 73, 88
4, 23818, Note_off_c, 0, 73, 0
4, 23820, Note_on_c, 0, 70, 88
4, 23878, Note_off_c, 0, 70, 0
4, 23880, Note_on_c, 0, 67, 88
4, 23938, Note_off_c, 0, 67, 0
4, 23940, Note_on_c, 0, 63, 88
4, 23983, Note_off_c, 0, 63, 0
4, 24000, Note_on_c, 0, 63, 88
4, 24058, Note_off_c, 0, 63, 0
4, 24060, Note_on_c, 0, 65, 88
4, 24118, Note_off_c, 0, 65, 0
4, 24120, Note_on_c, 0, 68, 88
4, 24178, Note_off_c, 0, 68, 0
4, 24180, Note_on_c, 0, 72, 88
4, 24238, Note_off_c, 0, 72, 0
4, 24240, Note_on_c, 0, 72, 88
4, 24298, Note_off_c, 0, 72, 0
4, 24300, Note_on_c, 0, 68, 88
4, 24358, Note_off_c, 0, 68, 0
4, 24360, Note_on_c, 0, 65, 88
4, 24418, Note_off_c, 0, 65, 0
4, 24420, Note_on_c, 0, 61, 88
4, 24463, Note_off_c, 0, 61, 0
4, 24480, Note_on_c, 0, 61, 88
4, 24538, Note_off_c, 0, 61, 0
4, 24540, Note_on_c, 0, 63, 88
4, 24598, Note_off_c, 0, 63, 0
4, 24600, Note_on_c, 0, 67, 88
4, 24658, Note_off_c, 0, 67, 0
4, 24660, Note_on_c, 0, 70, 88
4, 24718, Note_off_c, 0, 70, 0
4, 24720, Note_on_c, 0, 70, 88
4, 24778, Note_off_c, 0, 70, 0
4, 24780, Note_on_c, 0, 67, 88
4, 24838, Note_off_c, 0, 67, 0
4, 24840, Note_on_c, 0, 63, 88
4, 24898, Note_off_c, 0, 63, 0
4, 24900, Note_on_c, 0, 60, 88
4, 24958, Note_off_c, 0, 60, 0
4, 25020, Note_on_c, 0, 68, 88
4, 25078, Note_off_c, 0, 68, 0
4, 25080, Note_on_c, 0, 60, 88
4, 25138, Note_off_c, 0, 60, 0
4, 25140, Note_on_c, 0, 68, 88
4, 25198, Note_off_c, 0, 68, 0
4, 25260, Note_on_c, 0, 68, 88
4, 25318, Note_off_c, 0, 68, 0
4, 25320, Note_on_c, 0, 61, 88
4, 25378, Note_off_c, 0, 61, 0
4, 25380, Note_on_c, 0, 68, 88
4, 25438, Note_off_c, 0, 68, 0
4, 25500, Note_on_c, 0, 68, 88
4, 25558, Note_off_c, 0, 68, 0
4, 25560, Note_on_c, 0, 60, 88
4, 25618, Note_off_c, 0, 60, 0
4, 25620, Note_on_c, 0, 68, 88
4, 25678, Note_off_c, 0, 68, 0
4, 25740, Note_on_c, 0, 68, 88
4, 25798, Note_off_c, 0, 68, 0
4, 25800, Note_on_c, 0, 58, 88
4, 25858, Note_off_c, 0, 58, 0
4, 25860, Note_on_c, 0, 68, 88
4, 25918, Note_off_c, 0, 68, 0
4, 25980, Note_on_c, 0, 68, 88
4, 26038, Note_off_c, 0, 68, 0
4, 26040, Note_on_c, 0, 56, 88
4, 26098, Note_off_c, 0, 56, 0
4, 26100, Note_on_c, 0, 68, 88
4, 26158, Note_off_c, 0, 68, 0
4, 26160, Note_on_c, 0, 58, 88
4, 26218, Note_off_c, 0, 58, 0
4, 26220, Note_on_c, 0, 68, 88
4, 26278, Note_off_c, 0, 68, 0
4, 26280, Note_on_c, 0, 64, 88
4, 26338, Note_off_c, 0, 64, 0
4, 26340, Note_on_c, 0, 68, 88
4, 26398, Note_off_c, 0, 68, 0
4, 26400, Note_on_c, 0, 63, 88
4, 26458, Note_off_c, 0, 63, 0
4, 26460, Note_on_c, 0, 67, 88
4, 26518, Note_off_c, 0, 67, 0
4, 26520, Note_on_c, 0, 61, 88
4, 26578, Note_off_c, 0, 61, 0
4, 26580, Note_on_c, 0, 67, 88
4, 26638, Note_off_c, 0, 67, 0
4, 26640, Note_on_c, 0, 67, 88
4, 26756, Note_off_c, 0, 67, 0
4, 26760, Note_on_c, 0, 68, 88
4, 26876, Note_off_c, 0, 68, 0
4, 27000, Note_on_c, 0, 72, 88
4, 27116, Note_off_c, 0, 72, 0
4, 27120, Note_on_c, 0, 72, 88
4, 27236, Note_off_c, 0, 72, 0
4, 27240, Note_on_c, 0, 70, 88
4, 27356, Note_off_c, 0, 70, 0
4, 27480, Note_on_c, 0, 73, 88
4, 27596, Note_off_c, 0, 73, 0
4, 27600, Note_on_c, 0, 73, 88
4, 27716, Note_off_c, 0, 73, 0
4, 27720, Note_on_c, 0, 72, 88
4, 27836, Note_off_c, 0, 72, 0
4, 27960, Note_on_c, 0, 75, 88
4, 28076, Note_off_c, 0, 75, 0
4, 28080, Note_on_c, 0, 75, 88
4, 28196, Note_off_c, 0, 75, 0
4, 28200, Note_on_c, 0, 74, 88
4, 28316, Note_off_c, 0, 74, 0
4, 28440, Note_on_c, 0, 77, 88
4, 28556, Note_off_c, 0, 77, 0
4, 28560, Note_on_c, 0, 77, 88
4, 28676, Note_off_c, 0, 77, 0
4, 28680, Note_on_c, 0, 75, 88
4, 28796, Note_off_c, 0, 75, 0
4, 28800, Note_on_c, 0, 78, 88
4, 29034, Note_off_c, 0, 78, 0
4, 29040, Note_on_c, 0, 77, 88
4, 29274, Note_off_c, 0, 77, 0
4, 29280, Note_on_c, 0, 75, 88
4, 29514, Note_off_c, 0, 75, 0
4, 29520, Note_on_c, 0, 73, 88
4, 29754, Note_off_c, 0, 73, 0
4, 29760, Note_on_c, 0, 74, 88
4, 29994, Note_off_c, 0, 74, 0
4, 30000, Note_on_c, 0, 75, 88
4, 30234, Note_off_c, 0, 75, 0
4, 30240, Note_on_c, 0, 77, 88
4, 30596, Note_off_c, 0, 77, 0
4, 30600, Note_on_c, 0, 75, 88
4, 30716, Note_off_c, 0, 75, 0
4, 30780, Note_on_c, 0, 78, 88
4, 30838, Note_off_c, 0, 78, 0
4, 30840, Note_on_c, 0, 77, 88
4, 30898, Note_off_c, 0, 77, 0
4, 30900, Note_on_c, 0, 78, 88
4, 30958, Note_off_c, 0, 78, 0
4, 30960, Note_on_c, 0, 70, 88
4, 31076, Note_off_c, 0, 70, 0
4, 31080, Note_on_c, 0, 69, 88
4, 31255, Note_off_c, 0, 69, 0
4, 31260, Note_on_c, 0, 75, 88
4, 31318, Note_off_c, 0, 75, 0
4, 31320, Note_on_c, 0, 73, 88
4, 31378, Note_off_c, 0, 73, 0
4, 31380, Note_on_c, 0, 75, 88
4, 31438, Note_off_c, 0, 75, 0
4, 31440, Note_on_c, 0, 66, 88
4, 31556, Note_off_c, 0, 66, 0
4, 31560, Note_on_c, 0, 65, 88
4, 31735, Note_off_c, 0, 65, 0
4, 31740, Note_on_c, 0, 73, 88
4, 31798, Note_off_c, 0, 73, 0
4, 31800, Note_on_c, 0, 72, 88
4, 31858, Note_off_c, 0, 72, 0
4, 31860, Note_on_c, 0, 73, 88
4, 31918, Note_off_c, 0, 73, 0
4, 31920, Note_on_c, 0, 63, 88
4, 31978, Note_off_c, 0, 63, 0
4, 31980, Note_on_c, 0, 72, 88
4, 32038, Note_off_c, 0, 72, 0
4, 32040, Note_on_c, 0, 70, 88
4, 32098, Note_off_c, 0, 70, 0
4, 32100, Note_on_c, 0, 72, 88
4, 32216, Note_off_c, 0, 72, 0
4, 32220, Note_on_c, 0, 70, 88
4, 32336, Note_off_c, 0, 70, 0
4, 32340, Note_on_c, 0, 69, 88
4, 32398, Note_off_c, 0, 69, 0
4, 32400, Note_on_c, 0, 69, 88
4, 32516, Note_off_c, 0, 69, 0
4, 32520, Note_on_c, 0, 70, 88
4, 32636, Note_off_c, 0, 70, 0
4, 32640, Note_on_c, 0, 77, 88
4, 32743, Note_off_c, 0, 77, 0
4, 32760, Note_on_c, 0, 77, 88
4, 32775, Note_on_c, 0, 75, 88
4, 32775, Note_off_c, 0, 77, 0
4, 32797, Note_off_c, 0, 75, 0
4, 32798, Note_on_c, 0, 77, 88
4, 32819, Note_off_c, 0, 77, 0
4, 32820, Note_on_c, 0, 75, 88
4, 32878, Note_off_c, 0, 75, 0
4, 32880, Note_on_c, 0, 73, 88
4, 32996, Note_off_c, 0, 73, 0
4, 33000, Note_on_c, 0, 77, 88
4, 33116, Note_off_c, 0, 77, 0
4, 33120, Note_on_c, 0, 70, 88
4, 33236, Note_off_c, 0, 70, 0
4, 33240, Note_on_c, 0, 73, 88
4, 33298, Note_off_c, 0, 73, 0
4, 33300, Note_on_c, 0, 77, 88
4, 33358, Note_off_c, 0, 77, 0
4, 33360, Note_on_c, 0, 80, 88
4, 33476, Note_off_c, 0, 80, 0
4, 33480, Note_on_c, 0, 79, 88
4, 33596, Note_off_c, 0, 79, 0
4, 33600, Note_on_c, 0, 75, 88
4, 33703, Note_off_c, 0, 75, 0
4, 33720, Note_on_c, 0, 75, 88
4, 33735, Note_on_c, 0, 73, 88
4, 33735, Note_off_c, 0, 75, 0
4, 33757, Note_off_c, 0, 73, 0
4, 33758, Note_on_c, 0, 75, 88
4, 33779, Note_off_c, 0, 75, 0
4, 33780, Note_on_c, 0, 73, 88
4, 33838, Note_off_c, 0, 73, 0
4, 33840, Note_on_c, 0, 72, 88
4, 33956, Note_off_c, 0, 72, 0
4, 33960, Note_on_c, 0, 75, 88
4, 34076, Note_off_c, 0, 75, 0
4, 34080, Note_on_c, 0, 68, 88
4, 34196, Note_off_c, 0, 68, 0
4, 34200, Note_on_c, 0, 72, 88
4, 34258, Note_off_c, 0, 72, 0
4, 34260, Note_on_c, 0, 75, 88
4, 34318, Note_off_c, 0, 75, 0
4, 34320, Note_on_c, 0, 78, 88
4, 34436, Note_off_c, 0, 78, 0
4, 34440, Note_on_c, 0, 77, 88
4, 34556, Note_off_c, 0, 77, 0
4, 34560, Note_on_c, 0, 68, 88
4, 34676, Note_off_c, 0, 68, 0
4, 34680, Note_on_c, 0, 77, 88
4, 34796, Note_off_c, 0, 77, 0
4, 34800, Note_on_c, 0, 70, 88
4, 34815, Note_on_c, 0, 68, 88
4, 34815, Note_off_c, 0, 70, 0
4, 34837, Note_off_c, 0, 68, 0
4, 34838, Note_on_c, 0, 70, 88
4, 34859, Note_off_c, 0, 70, 0
4, 34860, Note_on_c, 0, 68, 88
4, 34918, Note_off_c, 0, 68, 0
4, 34920, Note_on_c, 0, 67, 88
4, 35036, Note_off_c, 0, 67, 0
4, 35040, Note_on_c, 0, 70, 88
4, 35156, Note_off_c, 0, 70, 0
4, 35160, Note_on_c, 0, 79, 88
4, 35276, Note_off_c, 0, 79, 0
4, 35280, Note_on_c, 0, 72, 88
4, 35295, Note_on_c, 0, 70, 88
4, 35295, Note_off_c, 0, 72, 0
4, 35317, Note_off_c, 0, 70, 0
4, 35318, Note_on_c, 0, 72, 88
4, 35339, Note_off_c, 0, 72, 0
4, 35340, Note_on_c, 0, 70, 88
4, 35398, Note_off_c, 0, 70, 0
4, 35400, Note_on_c, 0, 68, 88
4, 35516, Note_off_c, 0, 68, 0
4, 35520, Note_on_c, 0, 72, 88
4, 35578, Note_off_c, 0, 72, 0
4, 35580, Note_on_c, 0, 76, 88
4, 35638, Note_off_c, 0, 76, 0
4, 35640, Note_on_c, 0, 77, 88
4, 35698, Note_off_c, 0, 77, 0
4, 35700, Note_on_c, 0, 80, 88
4, 35758, Note_off_c, 0, 80, 0
4, 35760, Note_on_c, 0, 73, 88
4, 35818, Note_off_c, 0, 73, 0
4, 35820, Note_on_c, 0, 80, 88
4, 35878, Note_off_c, 0, 80, 0
4, 35880, Note_on_c, 0, 72, 88
4, 35938, Note_off_c, 0, 72, 0
4, 35940, Note_on_c, 0, 80, 88
4, 35998, Note_off_c, 0, 80, 0
4, 36000, Note_on_c, 0, 70, 88
4, 36058, Note_off_c, 0, 70, 0
4, 36060, Note_on_c, 0, 80, 88
4, 36118, Note_off_c, 0, 80, 0
4, 36120, Note_on_c, 0, 79, 88
4, 36178, Note_off_c, 0, 79, 0
4, 36180, Note_on_c, 0, 77, 88
4, 36238, Note_off_c, 0, 77, 0
4, 36240, Note_on_c, 0, 77, 88
4, 36298, Note_off_c, 0, 77, 0
4, 36300, Note_on_c, 0, 76, 88
4, 36358, Note_off_c, 0, 76, 0
4, 36360, Note_on_c, 0, 74, 88
4, 36418, Note_off_c, 0, 74, 0
4, 36420, Note_on_c, 0, 72, 88
4, 36478, Note_off_c, 0, 72, 0
4, 36480, Note_on_c, 0, 80, 88
4, 36538, Note_off_c, 0, 80, 0
4, 36540, Note_on_c, 0, 77, 88
4, 36598, Note_off_c, 0, 77, 0
4, 36600, Note_on_c, 0, 73, 88
4, 36658, Note_off_c, 0, 73, 0
4, 36660, Note_on_c, 0, 72, 88
4, 36718, Note_off_c, 0, 72, 0
4, 36720, Note_on_c, 0, 70, 88
4, 36778, Note_off_c, 0, 70, 0
4, 36780, Note_on_c, 0, 68, 88
4, 36838, Note_off_c, 0, 68, 0
4, 36840, Note_on_c, 0, 70, 88
4, 36898, Note_off_c, 0, 70, 0
4, 36900, Note_on_c, 0, 73, 88
4, 36958, Note_off_c, 0, 73, 0
4, 36960, Note_on_c, 0, 78, 88
4, 37018, Note_off_c, 0, 78, 0
4, 37020, Note_on_c, 0, 75, 88
4, 37078, Note_off_c, 0, 75, 0
4, 37080, Note_on_c, 0, 72, 88
4, 37138, Note_off_c, 0, 72, 0
4, 37140, Note_on_c, 0, 70, 88
4, 37198, Note_off_c, 0, 70, 0
4, 37200, Note_on_c, 0, 69, 88
4, 37258, Note_off_c, 0, 69, 0
4, 37260, Note_on_c, 0, 67, 88
4, 37318, Note_off_c, 0, 67, 0
4, 37320, Note_on_c, 0, 69, 88
4, 37378, Note_off_c, 0, 69, 0
4, 37380, Note_on_c, 0, 72, 88
4, 37438, Note_off_c, 0, 72, 0
4, 37440, Note_on_c, 0, 77, 88
4, 37498, Note_off_c, 0, 77, 0
4, 37500, Note_on_c, 0, 73, 88
4, 37558, Note_off_c, 0, 73, 0
4, 37560, Note_on_c, 0, 70, 88
4, 37618, Note_off_c, 0, 70, 0
4, 37620, Note_on_c, 0, 68, 88
4, 37678, Note_off_c, 0, 68, 0
4, 37680, Note_on_c, 0, 66, 88
4, 37738, Note_off_c, 0, 66, 0
4, 37740, Note_on_c, 0, 65, 88
4, 37798, Note_off_c, 0, 65, 0
4, 37800, Note_on_c, 0, 66, 88
4, 37858, Note_off_c, 0, 66, 0
4, 37860, Note_on_c, 0, 70, 88
4, 37918, Note_off_c, 0, 70, 0
4, 37920, Note_on_c, 0, 75, 88
4, 37978, Note_off_c, 0, 75, 0
4, 37980, Note_on_c, 0, 72, 88
4, 38038, Note_off_c, 0, 72, 0
4, 38040, Note_on_c, 0, 69, 88
4, 38098, Note_off_c, 0, 69, 0
4, 38100, Note_on_c, 0, 66, 88
4, 38158, Note_off_c, 0, 66, 0
4, 38160, Note_on_c, 0, 65, 88
4, 38218, Note_off_c, 0, 65, 0
4, 38220, Note_on_c, 0, 64, 88
4, 38278, Note_off_c, 0, 64, 0
4, 38280, Note_on_c, 0, 65, 88
4, 38338, Note_off_c, 0, 65, 0
4, 38340, Note_on_c, 0, 75, 88
4, 38398, Note_off_c, 0, 75, 0
4, 38400, Note_on_c, 0, 73, 88
4, 38516, Note_off_c, 0, 73, 0
4, 38640, Note_on_c, 0, 67, 88
4, 38756, Note_off_c, 0, 67, 0
4, 38880, Note_on_c, 0, 70, 88
4, 38996, Note_off_c, 0, 70, 0
4, 39120, Note_on_c, 0, 64, 88
4, 39236, Note_off_c, 0, 64, 0
4, 39420, Note_on_c, 0, 67, 88
4, 39478, Note_off_c, 0, 67, 0
4, 39480, Note_on_c, 0, 58, 88
4, 39538, Note_off_c, 0, 58, 0
4, 39540, Note_on_c, 0, 67, 88
4, 39598, Note_off_c, 0, 67, 0
4, 39600, Note_on_c, 0, 56, 88
4, 39658, Note_off_c, 0, 56, 0
4, 39660, Note_on_c, 0, 67, 88
4, 39718, Note_off_c, 0, 67, 0
4, 39720, Note_on_c, 0, 56, 88
4, 39778, Note_off_c, 0, 56, 0
4, 39780, Note_on_c, 0, 65, 88
4, 39838, Note_off_c, 0, 65, 0
4, 39840, Note_on_c, 0, 56, 88
4, 39898, Note_off_c, 0, 56, 0
4, 39900, Note_on_c, 0, 65, 88
4, 39958, Note_off_c, 0, 65, 0
4, 39960, Note_on_c, 0, 56, 88
4, 40018, Note_off_c, 0, 56, 0
4, 40020, Note_on_c, 0, 65, 88
4, 40078, Note_off_c, 0, 65, 0
4, 40080, Note_on_c, 0, 56, 88
4, 40138, Note_off_c, 0, 56, 0
4, 40140, Note_on_c, 0, 65, 88
4, 40198, Note_off_c, 0, 65, 0
4, 40200, Note_on_c, 0, 64, 88
4, 40316, Note_off_c, 0, 64, 0
4, 40440, Note_on_c, 0, 68, 88
4, 40556, Note_off_c, 0, 68, 0
4, 40560, Note_on_c, 0, 68, 88
4, 40676, Note_off_c, 0, 68, 0
4, 40680, Note_on_c, 0, 67, 88
4, 40796, Note_off_c, 0, 67, 0
4, 40920, Note_on_c, 0, 67, 88
4, 40978, Note_off_c, 0, 67, 0
4, 40980, Note_on_c, 0, 68, 88
4, 41038, Note_off_c, 0, 68, 0
4, 41040, Note_on_c, 0, 70, 88
4, 41098, Note_off_c, 0, 70, 0
4, 41100, Note_on_c, 0, 73, 88
4, 41158, Note_off_c, 0, 73, 0
4, 41160, Note_on_c, 0, 72, 88
4, 41276, Note_off_c, 0, 72, 0
4, 41400, Note_on_c, 0, 72, 88
4, 41516, Note_off_c, 0, 72, 0
4, 41520, Note_on_c, 0, 70, 88
4, 41578, Note_off_c, 0, 70, 0
4, 41580, Note_on_c, 0, 68, 88
4, 41638, Note_off_c, 0, 68, 0
4, 41640, Note_on_c, 0, 67, 88
4, 41698, Note_off_c, 0, 67, 0
4, 41700, Note_on_c, 0, 65, 88
4, 41758, Note_off_c, 0, 65, 0
4, 41760, Note_on_c, 0, 68, 88
4, 41818, Note_off_c, 0, 68, 0
4, 41820, Note_on_c, 0, 67, 88
4, 41878, Note_off_c, 0, 67, 0
4, 41880, Note_on_c, 0, 65, 88
4, 41938, Note_off_c, 0, 65, 0
4, 41940, Note_on_c, 0, 64, 88
4, 41998, Note_off_c, 0, 64, 0
4, 42000, Note_on_c, 0, 64, 88
4, 42058, Note_off_c, 0, 64, 0
4, 42060, Note_on_c, 0, 65, 88
4, 42118, Note_off_c, 0, 65, 0
4, 42120, Note_on_c, 0, 67, 88
4, 42178, Note_off_c, 0, 67, 0
4, 42180, Note_on_c, 0, 65, 88
4, 42238, Note_off_c, 0, 65, 0
4, 42240, Note_on_c, 0, 64, 88
4, 42298, Note_off_c, 0, 64, 0
4, 42300, Note_on_c, 0, 65, 88
4, 42358, Note_off_c, 0, 65, 0
4, 42360, Note_on_c, 0, 70, 88
4, 42418, Note_off_c, 0, 70, 0
4, 42420, Note_on_c, 0, 65, 88
4, 42478, Note_off_c, 0, 65, 0
4, 42480, Note_on_c, 0, 64, 88
4, 42538, Note_off_c, 0, 64, 0
4, 42540, Note_on_c, 0, 65, 88
4, 42598, Note_off_c, 0, 65, 0
4, 42600, Note_on_c, 0, 68, 88
4, 42658, Note_off_c, 0, 68, 0
4, 42660, Note_on_c, 0, 65, 88
4, 42718, Note_off_c, 0, 65, 0
4, 42720, Note_on_c, 0, 64, 88
4, 42778, Note_off_c, 0, 64, 0
4, 42780, Note_on_c, 0, 65, 88
4, 42838, Note_off_c, 0, 65, 0
4, 42840, Note_on_c, 0, 73, 88
4, 42898, Note_off_c, 0, 73, 0
4, 42900, Note_on_c, 0, 65, 88
4, 42958, Note_off_c, 0, 65, 0
4, 42960, Note_on_c, 0, 64, 88
4, 43018, Note_off_c, 0, 64, 0
4, 43020, Note_on_c, 0, 65, 88
4, 43078, Note_off_c, 0, 65, 0
4, 43080, Note_on_c, 0, 72, 88
4, 43138, Note_off_c, 0, 72, 0
4, 43140, Note_on_c, 0, 65, 88
4, 43198, Note_off_c, 0, 65, 0
4, 43200, Note_on_c, 0, 63, 88
4, 43258, Note_off_c, 0, 63, 0
4, 43260, Note_on_c, 0, 65, 88
4, 43318, Note_off_c, 0, 65, 0
4, 43320, Note_on_c, 0, 69, 88
4, 43378, Note_off_c, 0, 69, 0
4, 43380, Note_on_c, 0, 72, 88
4, 43438, Note_off_c, 0, 72, 0
4, 43440, Note_on_c, 0, 72, 88
4, 43498, Note_off_c, 0, 72, 0
4, 43500, Note_on_c, 0, 69, 88
4, 43558, Note_off_c, 0, 69, 0
4, 43560, Note_on_c, 0, 65, 88
4, 43618, Note_off_c, 0, 65, 0
4, 43620, Note_on_c, 0, 61, 88
4, 43663, Note_off_c, 0, 61, 0
4, 43680, Note_on_c, 0, 61, 88
4, 43738, Note_off_c, 0, 61, 0
4, 43740, Note_on_c, 0, 63, 88
4, 43798, Note_off_c, 0, 63, 0
4, 43800, Note_on_c, 0, 67, 88
4, 43858, Note_off_c, 0, 67, 0
4, 43860, Note_on_c, 0, 70, 88
4, 43918, Note_off_c, 0, 70, 0
4, 43920, Note_on_c, 0, 70, 88
4, 43978, Note_off_c, 0, 70, 0
4, 43980, Note_on_c, 0, 67, 88
4, 44038, Note_off_c, 0, 67, 0
4, 44040, Note_on_c, 0, 63, 88
4, 44098, Note_off_c, 0, 63, 0
4, 44100, Note_on_c, 0, 60, 88
4, 44143, Note_off_c, 0, 60, 0
4, 44160, Note_on_c, 0, 60, 88
4, 44218, Note_off_c, 0, 60, 0
4, 44220, Note_on_c, 0, 61, 88
4, 44278, Note_off_c, 0, 61, 0
4, 44280, Note_on_c, 0, 65, 88
4, 44338, Note_off_c, 0, 65, 0
4, 44340, Note_on_c, 0, 68, 88
4, 44398, Note_off_c, 0, 68, 0
4, 44400, Note_on_c, 0, 68, 88
4, 44458, Note_off_c, 0, 68, 0
4, 44460, Note_on_c, 0, 65, 88
4, 44518, Note_off_c, 0, 65, 0
4, 44520, Note_on_c, 0, 61, 88
4, 44578, Note_off_c, 0, 61, 0
4, 44580, Note_on_c, 0, 58, 88
4, 44623, Note_off_c, 0, 58, 0
4, 44640, Note_on_c, 0, 58, 88
4, 44698, Note_off_c, 0, 58, 0
4, 44700, Note_on_c, 0, 60, 88
4, 44758, Note_off_c, 0, 60, 0
4, 44760, Note_on_c, 0, 64, 88
4, 44818, Note_off_c, 0, 64, 0
4, 44820, Note_on_c, 0, 67, 88
4, 44878, Note_off_c, 0, 67, 0
4, 44880, Note_on_c, 0, 67, 88
4, 44938, Note_off_c, 0, 67, 0
4, 44940, Note_on_c, 0, 64, 88
4, 44998, Note_off_c, 0, 64, 0
4, 45000, Note_on_c, 0, 60, 88
4, 45058, Note_off_c, 0, 60, 0
4, 45060, Note_on_c, 0, 56, 88
4, 45118, Note_off_c, 0, 56, 0
4, 45180, Note_on_c, 0, 65, 88
4, 45238, Note_off_c, 0, 65, 0
4, 45240, Note_on_c, 0, 57, 88
4, 45298, Note_off_c, 0, 57, 0
4, 45300, Note_on_c, 0, 65, 88
4, 45358, Note_off_c, 0, 65, 0
4, 45420, Note_on_c, 0, 67, 88
4, 45478, Note_off_c, 0, 67, 0
4, 45480, Note_on_c, 0, 58, 88
4, 45538, Note_off_c, 0, 58, 0
4, 45540, Note_on_c, 0, 67, 88
4, 45598, Note_off_c, 0, 67, 0
4, 45660, Note_on_c, 0, 69, 88
4, 45718, Note_off_c, 0, 69, 0
4, 45720, Note_on_c, 0, 66, 88
4, 45778, Note_off_c, 0, 66, 0
4, 45780, Note_on_c, 0, 69, 88
4, 45838, Note_off_c, 0, 69, 0
4, 45900, Note_on_c, 0, 70, 88
4, 45958, Note_off_c, 0, 70, 0
4, 45960, Note_on_c, 0, 65, 88
4, 46018, Note_off_c, 0, 65, 0
4, 46020, Note_on_c, 0, 70, 88
4, 46078, Note_off_c, 0, 70, 0
4, 46140, Note_on_c, 0, 68, 88
4, 46198, Note_off_c, 0, 68, 0
4, 46200, Note_on_c, 0, 65, 88
4, 46258, Note_off_c, 0, 65, 0
4, 46260, Note_on_c, 0, 68, 88
4, 46318, Note_off_c, 0, 68, 0
4, 46440, Note_on_c, 0, 65, 88
4, 46440, Note_on_c, 0, 68, 88
4, 46556, Note_off_c, 0, 65, 0
4, 46556, Note_off_c, 0, 68, 0
4, 46620, Note_on_c, 0, 67, 88
4, 46663, Note_off_c, 0, 67, 0
4, 46680, Note_on_c, 0, 67, 88
4, 46695, Note_on_c, 0, 65, 88
4, 46695, Note_off_c, 0, 67, 0
4, 46710, Note_off_c, 0, 65, 0
4, 46710, Note_on_c, 0, 67, 88
4, 46725, Note_on_c, 0, 65, 88
4, 46725, Note_off_c, 0, 67, 0
4, 46740, Note_on_c, 0, 64, 88
4, 46740, Note_off_c, 0, 65, 0
4, 46798, Note_off_c, 0, 64, 0
4, 46800, Note_on_c, 0, 64, 88
4, 46916, Note_off_c, 0, 64, 0
4, 46920, Note_on_c, 0, 65, 88
4, 47036, Note_off_c, 0, 65, 0
4, 47160, Note_on_c, 0, 72, 88
4, 47276, Note_off_c, 0, 72, 0
4, 47280, Note_on_c, 0, 72, 88
4, 47396, Note_off_c, 0, 72, 0
4, 47400, Note_on_c, 0, 70, 88
4, 47516, Note_off_c, 0, 70, 0
4, 47640, Note_on_c, 0, 73, 88
4, 47756, Note_off_c, 0, 73, 0
4, 47760, Note_on_c, 0, 73, 88
4, 47876, Note_off_c, 0, 73, 0
4, 47880, Note_on_c, 0, 72, 88
4, 47996, Note_off_c, 0, 72, 0
4, 48120, Note_on_c, 0, 75, 88
4, 48236, Note_off_c, 0, 75, 0
4, 48240, Note_on_c, 0, 75, 88
4, 48356, Note_off_c, 0, 75, 0
4, 48360, Note_on_c, 0, 74, 88
4, 48476, Note_off_c, 0, 74, 0
4, 48600, Note_on_c, 0, 77, 88
4, 48716, Note_off_c, 0, 77, 0
4, 48720, Note_on_c, 0, 77, 88
4, 48836, Note_off_c, 0, 77, 0
4, 48840, Note_on_c, 0, 75, 88
4, 48956, Note_off_c, 0, 75, 0
4, 48960, Note_on_c, 0, 78, 88
4, 49194, Note_off_c, 0, 78, 0
4, 49200, Note_on_c, 0, 77, 88
4, 49434, Note_off_c, 0, 77, 0
4, 49440, Note_on_c, 0, 75, 88
4, 49674, Note_off_c, 0, 75, 0
4, 49680, Note_on_c, 0, 73, 88
4, 49914, Note_off_c, 0, 73, 0
4, 49920, Note_on_c, 0, 74, 88
4, 50154, Note_off_c, 0, 74, 0
4, 50160, Note_on_c, 0, 75, 88
4, 50394, Note_off_c, 0, 75, 0
4, 50400, Note_on_c, 0, 77, 88
4, 50756, Note_off_c, 0, 77, 0
4, 50760, Note_on_c, 0, 75, 88
4, 50876, Note_off_c, 0, 75, 0
4, 50940, Note_on_c, 0, 78, 88
4, 50998, Note_off_c, 0, 78, 0
4, 51000, Note_on_c, 0, 77, 88
4, 51058, Note_off_c, 0, 77, 0
4, 51060, Note_on_c, 0, 78, 88
4, 51118, Note_off_c, 0, 78, 0
4, 51120, Note_on_c, 0, 70, 88
4, 51236, Note_off_c, 0, 70, 0
4, 51240, Note_on_c, 0, 69, 88
4, 51415, Note_off_c, 0, 69, 0
4, 51420, Note_on_c, 0, 75, 88
4, 51478, Note_off_c, 0, 75, 0
4, 51480, Note_on_c, 0, 73, 88
4, 51538, Note_off_c, 0, 73, 0
4, 51540, Note_on_c, 0, 75, 88
4, 51598, Note_off_c, 0, 75, 0
4, 51600, Note_on_c, 0, 66, 88
4, 51716, Note_off_c, 0, 66, 0
4, 51720, Note_on_c, 0, 65, 88
4, 51895, Note_off_c, 0, 65, 0
4, 51900, Note_on_c, 0, 73, 88
4, 51958, Note_off_c, 0, 73, 0
4, 51960, Note_on_c, 0, 72, 88
4, 52018, Note_off_c, 0, 72, 0
4, 52020, Note_on_c, 0, 73, 88
4, 52078, Note_off_c, 0, 73, 0
4, 52080, Note_on_c, 0, 63, 88
4, 52138, Note_off_c, 0, 63, 0
4, 52140, Note_on_c, 0, 72, 88
4, 52198, Note_off_c, 0, 72, 0
4, 52200, Note_on_c, 0, 70, 88
4, 52258, Note_off_c, 0, 70, 0
4, 52260, Note_on_c, 0, 72, 88
4, 52376, Note_off_c, 0, 72, 0
4, 52380, Note_on_c, 0, 70, 88
4, 52496, Note_off_c, 0, 70, 0
4, 52500, Note_on_c, 0, 69, 88
4, 52558, Note_off_c, 0, 69, 0
4, 52560, Note_on_c, 0, 69, 88
4, 52676, Note_off_c, 0, 69, 0
4, 52680, Note_on_c, 0, 70, 88
4, 52796, Note_off_c, 0, 70, 0
4, 52800, Note_on_c, 0, 77, 88
4, 52903, Note_off_c, 0, 77, 0
4, 52920, Note_on_c, 0, 77, 88
4, 52935, Note_on_c, 0, 75, 88
4, 52935, Note_off_c, 0, 77, 0
4, 52957, Note_off_c, 0, 75, 0
4, 52958, Note_on_c, 0, 77, 88
4, 52979, Note_off_c, 0, 77, 0
4, 52980, Note_on_c, 0, 75, 88
4, 53038, Note_off_c, 0, 75, 0
4, 53040, Note_on_c, 0, 73, 88
4, 53156, Note_off_c, 0, 73, 0
4, 53160, Note_on_c, 0, 77, 88
4, 53276, Note_off_c, 0, 77, 0
4, 53280, Note_on_c, 0, 70, 88
4, 53396, Note_off_c, 0, 70, 0
4, 53400, Note_on_c, 0, 73, 88
4, 53458, Note_off_c, 0, 73, 0
4, 53460, Note_on_c, 0, 77, 88
4, 53518, Note_off_c, 0, 77, 0
4, 53520, Note_on_c, 0, 80, 88
4, 53636, Note_off_c, 0, 80, 0
4, 53640, Note_on_c, 0, 79, 88
4, 53756, Note_off_c, 0, 79, 0
4, 53760, Note_on_c, 0, 75, 88
4, 53863, Note_off_c, 0, 75, 0
4, 53880, Note_on_c, 0, 75, 88
4, 53895, Note_on_c, 0, 73, 88
4, 53895, Note_off_c, 0, 75, 0
4, 53917, Note_off_c, 0, 73, 0
4, 53918, Note_on_c, 0, 75, 88
4, 53939, Note_off_c, 0, 75, 0
4, 53940, Note_on_c, 0, 73, 88
4, 53998, Note_off_c, 0, 73, 0
4, 54000, Note_on_c, 0, 72, 88
4, 54116, Note_off_c, 0, 72, 0
4, 54120, Note_on_c, 0, 75, 88
4, 54236, Note_off_c, 0, 75, 0
4, 54240, Note_on_c, 0, 68, 88
4, 54356, Note_off_c, 0, 68, 0
4, 54360, Note_on_c, 0, 72, 88
4, 54418, Note_off_c, 0, 72, 0
4, 54420, Note_on_c, 0, 75, 88
4, 54478, Note_off_c, 0, 75, 0
4, 54480, Note_on_c, 0, 78, 88
4, 54596, Note_off_c, 0, 78, 0
4, 54600, Note_on_c, 0, 77, 88
4, 54716, Note_off_c, 0, 77, 0
4, 54720, Note_on_c, 0, 68, 88
4, 54836, Note_off_c, 0, 68, 0
4, 54840, Note_on_c, 0, 77, 88
4, 54956, Note_off_c, 0, 77, 0
4, 54960, Note_on_c, 0, 70, 88
4, 54975, Note_on_c, 0, 68, 88
4, 54975, Note_off_c, 0, 70, 0
4, 54997, Note_off_c, 0, 68, 0
4, 54998, Note_on_c, 0, 70, 88
4, 55019, Note_off_c, 0, 70, 0
4, 55020, Note_on_c, 0, 68, 88
4, 55078, Note_off_c, 0, 68, 0
4, 55080, Note_on_c, 0, 67, 88
4, 55196, Note_off_c, 0, 67, 0
4, 55200, Note_on_c, 0, 70, 88
4, 55316, Note_off_c, 0, 70, 0
4, 55320, Note_on_c, 0, 79, 88
4, 55436, Note_off_c, 0, 79, 0
4, 55440, Note_on_c, 0, 72, 88
4, 55455, Note_on_c, 0, 70, 88
4, 55455, Note_off_c, 0, 72, 0
4, 55477, Note_off_c, 0, 70, 0
4, 55478, Note_on_c, 0, 72, 88
4, 55499, Note_off_c, 0, 72, 0
4, 55500, Note_on_c, 0, 70, 88
4, 55558, Note_off_c, 0, 70, 0
4, 55560, Note_on_c, 0, 68, 88
4, 55676, Note_off_c, 0, 68, 0
4, 55680, Note_on_c, 0, 72, 88
4, 55738, Note_off_c, 0, 72, 0
4, 55740, Note_on_c, 0, 76, 88
4, 55798, Note_off_c, 0, 76, 0
4, 55800, Note_on_c, 0, 77, 88
4, 55858, Note_off_c, 0, 77, 0
4, 55860, Note_on_c, 0, 80, 88
4, 55918, Note_off_c, 0, 80, 0
4, 55920, Note_on_c, 0, 73, 88
4, 55978, Note_off_c, 0, 73, 0
4, 55980, Note_on_c, 0, 80, 88
4, 56038, Note_off_c, 0, 80, 0
4, 56040, Note_on_c, 0, 72, 88
4, 56098, Note_off_c, 0, 72, 0
4, 56100, Note_on_c, 0, 80, 88
4, 56158, Note_off_c, 0, 80, 0
4, 56160, Note_on_c, 0, 70, 88
4, 56218, Note_off_c, 0, 70, 0
4, 56220, Note_on_c, 0, 80, 88
4, 56278, Note_off_c, 0, 80, 0
4, 56280, Note_on_c, 0, 79, 88
4, 56338, Note_off_c, 0, 79, 0
4, 56340, Note_on_c, 0, 77, 88
4, 56398, Note_off_c, 0, 77, 0
4, 56400, Note_on_c, 0, 77, 88
4, 56458, Note_off_c, 0, 77, 0
4, 56460, Note_on_c, 0, 76, 88
4, 56518, Note_off_c, 0, 76, 0
4, 56520, Note_on_c, 0, 74, 88
4, 56578, Note_off_c, 0, 74, 0
4, 56580, Note_on_c, 0, 72, 88
4, 56638, Note_off_c, 0, 72, 0
4, 56640, Note_on_c, 0, 80, 88
4, 56698, Note_off_c, 0, 80, 0
4, 56700, Note_on_c, 0, 77, 88
4, 56758, Note_off_c, 0, 77, 0
4, 56760, Note_on_c, 0, 73, 88
4, 56818, Note_off_c, 0, 73, 0
4, 56820, Note_on_c, 0, 72, 88
4, 56878, Note_off_c, 0, 72, 0
4, 56880, Note_on_c, 0, 70, 88
4, 56938, Note_off_c, 0, 70, 0
4, 56940, Note_on_c, 0, 68, 88
4, 56998, Note_off_c, 0, 68, 0
4, 57000, Note_on_c, 0, 70, 88
4, 57058, Note_off_c, 0, 70, 0
4, 57060, Note_on_c, 0, 73, 88
4, 57118, Note_off_c, 0, 73, 0
4, 57120, Note_on_c, 0, 78, 88
4, 57178, Note_off_c, 0, 78, 0
4, 57180, Note_on_c, 0, 75, 88
4, 57238, Note_off_c, 0, 75, 0
4, 57240, Note_on_c, 0, 72, 88
4, 57298, Note_off_c, 0, 72, 0
4, 57300, Note_on_c, 0, 70, 88
4, 57358, Note_off_c, 0, 70, 0
4, 57360, Note_on_c, 0, 69, 88
4, 57418, Note_off_c, 0, 69, 0
4, 57420, Note_on_c, 0, 67, 88
4, 57478, Note_off_c, 0, 67, 0
4, 57480, Note_on_c, 0, 69, 88
4, 57538, Note_off_c, 0, 69, 0
4, 57540, Note_on_c, 0, 72, 88
4, 57598, Note_off_c, 0, 72, 0
4, 57600, Note_on_c, 0, 77, 88
4, 57658, Note_off_c, 0, 77, 0
4, 57660, Note_on_c, 0, 73, 88
4, 57718, Note_off_c, 0, 73, 0
4, 57720, Note_on_c, 0, 70, 88
4, 57778, Note_off_c, 0, 70, 0
4, 57780, Note_on_c, 0, 68, 88
4, 57838, Note_off_c, 0, 68, 0
4, 57840, Note_on_c, 0, 66, 88
4, 57898, Note_off_c, 0, 66, 0
4, 57900, Note_on_c, 0, 65, 88
4, 57958, Note_off_c, 0, 65, 0
4, 57960, Note_on_c, 0, 66, 88
4, 58018, Note_off_c, 0, 66, 0
4, 58020, Note_on_c, 0, 70, 88
4, 58078, Note_off_c, 0, 70, 0
4, 58080, Note_on_c, 0, 75, 88
4, 58138, Note_off_c, 0, 75, 0
4, 58140, Note_on_c, 0, 72, 88
4, 58198, Note_off_c, 0, 72, 0
4, 58200, Note_on_c, 0, 69, 88
4, 58258, Note_off_c, 0, 69, 0
4, 58260, Note_on_c, 0, 66, 88
4, 58318, Note_off_c, 0, 66, 0
4, 58320, Note_on_c, 0, 65, 88
4, 58378, Note_off_c, 0, 65, 0
4, 58380, Note_on_c, 0, 64, 88
4, 58438, Note_off_c, 0, 64, 0
4, 58440, Note_on_c, 0, 65, 88
4, 58498, Note_off_c, 0, 65, 0
4, 58500, Note_on_c, 0, 75, 88
4, 58558, Note_off_c, 0, 75, 0
4, 58560, Note_on_c, 0, 73, 88
4, 58676, Note_off_c, 0, 73, 0
4, 58800, Note_on_c, 0, 67, 88
4, 58916, Note_off_c, 0, 67, 0
4, 59040, Note_on_c, 0, 70, 88
4, 59156, Note_off_c, 0, 70, 0
4, 59280, Note_on_c, 0, 64, 88
4, 59396, Note_off_c, 0, 64, 0
4, 59580, Note_on_c, 0, 67, 88
4, 59638, Note_off_c, 0, 67, 0
4, 59640, Note_on_c, 0, 58, 88
4, 59698, Note_off_c, 0, 58, 0
4, 59700, Note_on_c, 0, 67, 88
4, 59758, Note_off_c, 0, 67, 0
4, 59760, Note_on_c, 0, 56, 88
4, 59818, Note_off_c, 0, 56, 0
4, 59820, Note_on_c, 0, 67, 88
4, 59878, Note_off_c, 0, 67, 0
4, 59880, Note_on_c, 0, 56, 88
4, 59938, Note_off_c, 0, 56, 0
4, 59940, Note_on_c, 0, 65, 88
4, 59998, Note_off_c, 0, 65, 0
4, 60000, Note_on_c, 0, 56, 88
4, 60058, Note_off_c, 0, 56, 0
4, 60060, Note_on_c, 0, 65, 88
4, 60118, Note_off_c, 0, 65, 0
4, 60120, Note_on_c, 0, 56, 88
4, 60178, Note_off_c, 0, 56, 0
4, 60180, Note_on_c, 0, 65, 88
4, 60238, Note_off_c, 0, 65, 0
4, 60240, Note_on_c, 0, 56, 88
4, 60298, Note_off_c, 0, 56, 0
4, 60300, Note_on_c, 0, 65, 88
4, 60358, Note_off_c, 0, 65, 0
4, 60360, Note_on_c, 0, 64, 88
4, 60476, Note_off_c, 0, 64, 0
4, 60600, Note_on_c, 0, 68, 88
4, 60716, Note_off_c, 0, 68, 0
4, 60720, Note_on_c, 0, 68, 88
4, 60836, Note_off_c, 0, 68, 0
4, 60840, Note_on_c, 0, 67, 88
4, 60956, Note_off_c, 0, 67, 0
4, 61080, Note_on_c, 0, 67, 88
4, 61138, Note_off_c, 0, 67, 0
4, 61140, Note_on_c, 0, 68, 88
4, 61198, Note_off_c, 0, 68, 0
4, 61200, Note_on_c, 0, 70, 88
4, 61258, Note_off_c, 0, 70, 0
4, 61260, Note_on_c, 0, 73, 88
4, 61318, Note_off_c, 0, 73, 0
4, 61320, Note_on_c, 0, 72, 88
4, 61436, Note_off_c, 0, 72, 0
4, 61560, Note_on_c, 0, 72, 88
4, 61676, Note_off_c, 0, 72, 0
4, 61680, Note_on_c, 0, 70, 88
4, 61738, Note_off_c, 0, 70, 0
4, 61740, Note_on_c, 0, 68, 88
4, 61798, Note_off_c, 0, 68, 0
4, 61800, Note_on_c, 0, 67, 88
4, 61858, Note_off_c, 0, 67, 0
4, 61860, Note_on_c, 0, 65, 88
4, 61918, Note_off_c, 0, 65, 0
4, 61920, Note_on_c, 0, 68, 88
4, 61978, Note_off_c, 0, 68, 0
4, 61980, Note_on_c, 0, 67, 88
4, 62038, Note_off_c, 0, 67, 0
4, 62040, Note_on_c, 0, 65, 88
4, 62098, Note_off_c, 0, 65, 0
4, 62100, Note_on_c, 0, 64, 88
4, 62158, Note_off_c, 0, 64, 0
4, 62160, Note_on_c, 0, 64, 88
4, 62218, Note_off_c, 0, 64, 0
4, 62220, Note_on_c, 0, 65, 88
4, 62278, Note_off_c, 0, 65, 0
4, 62280, Note_on_c, 0, 67, 88
4, 62338, Note_off_c, 0, 67, 0
4, 62340, Note_on_c, 0, 65, 88
4, 62398, Note_off_c, 0, 65, 0
4, 62400, Note_on_c, 0, 64, 88
4, 62458, Note_off_c, 0, 64, 0
4, 62460, Note_on_c, 0, 65, 88
4, 62518, Note_off_c, 0, 65, 0
4, 62520, Note_on_c, 0, 70, 88
4, 62578, Note_off_c, 0, 70, 0
4, 62580, Note_on_c, 0, 65, 88
4, 62638, Note_off_c, 0, 65, 0
4, 62640, Note_on_c, 0, 64, 88
4, 62698, Note_off_c, 0, 64, 0
4, 62700, Note_on_c, 0, 65, 88
4, 62758, Note_off_c, 0, 65, 0
4, 62760, Note_on_c, 0, 68, 88
4, 62818, Note_off_c, 0, 68, 0
4, 62820, Note_on_c, 0, 65, 88
4, 62878, Note_off_c, 0, 65, 0
4, 62880, Note_on_c, 0, 64, 88
4, 62938, Note_off_c, 0, 64, 0
4, 62940, Note_on_c, 0, 65, 88
4, 62998, Note_off_c, 0, 65, 0
4, 63000, Note_on_c, 0, 73, 88
4, 63058, Note_off_c, 0, 73, 0
4, 63060, Note_on_c, 0, 65, 88
4, 63118, Note_off_c, 0, 65, 0
4, 63120, Note_on_c, 0, 64, 88
4, 63178, Note_off_c, 0, 64, 0
4, 63180, Note_on_c, 0, 65, 88
4, 63238, Note_off_c, 0, 65, 0
4, 63240, Note_on_c, 0, 72, 88
4, 63298, Note_off_c, 0, 72, 0
4, 63300, Note_on_c, 0, 65, 88
4, 63358, Note_off_c, 0, 65, 0
4, 63360, Note_on_c, 0, 63, 88
4, 63418, Note_off_c, 0, 63, 0
4, 63420, Note_on_c, 0, 65, 88
4, 63478, Note_off_c, 0, 65, 0
4, 63480, Note_on_c, 0, 69, 88
4, 63538, Note_off_c, 0, 69, 0
4, 63540, Note_on_c, 0, 72, 88
4, 63598, Note_off_c, 0, 72, 0
4, 63600, Note_on_c, 0, 72, 88
4, 63658, Note_off_c, 0, 72, 0
4, 63660, Note_on_c, 0, 69, 88
4, 63718, Note_off_c, 0, 69, 0
4, 63720, Note_on_c, 0, 65, 88
4, 63778, Note_off_c, 0, 65, 0
4, 63780, Note_on_c, 0, 61, 88
4, 63823, Note_off_c, 0, 61, 0
4, 63840, Note_on_c, 0, 61, 88
4, 63898, Note_off_c, 0, 61, 0
4, 63900, Note_on_c, 0, 63, 88
4, 63958, Note_off_c, 0, 63, 0
4, 63960, Note_on_c, 0, 67, 88
4, 64018, Note_off_c, 0, 67, 0
4, 64020, Note_on_c, 0, 70, 88
4, 64078, Note_off_c, 0, 70, 0
4, 64080, Note_on_c, 0, 70, 88
4, 64138, Note_off_c, 0, 70, 0
4, 64140, Note_on_c, 0, 67, 88
4, 64198, Note_off_c, 0, 67, 0
4, 64200, Note_on_c, 0, 63, 88
4, 64258, Note_off_c, 0, 63, 0
4, 64260, Note_on_c, 0, 60, 88
4, 64303, Note_off_c, 0, 60, 0
4, 64320, Note_on_c, 0, 60, 88
4, 64378, Note_off_c, 0, 60, 0
4, 64380, Note_on_c, 0, 61, 88
4, 64438, Note_off_c, 0, 61, 0
4, 64440, Note_on_c, 0, 65, 88
4, 64498, Note_off_c, 0, 65, 0
4, 64500, Note_on_c, 0, 68, 88
4, 64558, Note_off_c, 0, 68, 0
4, 64560, Note_on_c, 0, 68, 88
4, 64618, Note_off_c, 0, 68, 0
4, 64620, Note_on_c, 0, 65, 88
4, 64678, Note_off_c, 0, 65, 0
4, 64680, Note_on_c, 0, 61, 88
4, 64738, Note_off_c, 0, 61, 0
4, 64740, Note_on_c, 0, 58, 88
4, 64783, Note_off_c, 0, 58, 0
4, 64800, Note_on_c, 0, 58, 88
4, 64858, Note_off_c, 0, 58, 0
4, 64860, Note_on_c, 0, 60, 88
4, 64918, Note_off_c, 0, 60, 0
4, 64920, Note_on_c, 0, 64, 88
4, 64978, Note_off_c, 0, 64, 0
4, 64980, Note_on_c, 0, 67, 88
4, 65038, Note_off_c, 0, 67, 0
4, 65040, Note_on_c, 0, 67, 88
4, 65098, Note_off_c, 0, 67, 0
4, 65100, Note_on_c, 0, 64, 88
4, 65158, Note_off_c, 0, 64, 0
4, 65160, Note_on_c, 0, 60, 88
4, 65218, Note_off_c, 0, 60, 0
4, 65220, Note_on_c, 0, 56, 88
4, 65278, Note_off_c, 0, 56, 0
4, 65340, Note_on_c, 0, 65, 88
4, 65398, Note_off_c, 0, 65, 0
4, 65400, Note_on_c, 0, 57, 88
4, 65458, Note_off_c, 0, 57, 0
4, 65460, Note_on_c, 0, 65, 88
4, 65518, Note_off_c, 0, 65, 0
4, 65580, Note_on_c, 0, 67, 88
4, 65638, Note_off_c, 0, 67, 0
4, 65640, Note_on_c, 0, 58, 88
4, 65698, Note_off_c, 0, 58, 0
4, 65700, Note_on_c, 0, 67, 88
4, 65758, Note_off_c, 0, 67, 0
4, 65820, Note_on_c, 0, 69, 88
4, 65878, Note_off_c, 0, 69, 0
4, 65880, Note_on_c, 0, 66, 88
4, 65938, Note_off_c, 0, 66, 0
4, 65940, Note_on_c, 0, 69, 88
4, 65998, Note_off_c, 0, 69, 0
4, 66060, Note_on_c, 0, 70, 88
4, 66118, Note_off_c, 0, 70, 0
4, 66120, Note_on_c, 0, 65, 88
4, 66178, Note_off_c, 0, 65, 0
4, 66180, Note_on_c, 0, 70, 88
4, 66238, Note_off_c, 0, 70, 0
4, 66300, Note_on_c, 0, 68, 88
4, 66358, Note_off_c, 0, 68, 0
4, 66360, Note_on_c, 0, 65, 88
4, 66418, Note_off_c, 0, 65, 0
4, 66420, Note_on_c, 0, 68, 88
4, 66478, Note_off_c, 0, 68, 0
4, 66600, Note_on_c, 0, 65, 88
4, 66600, Note_on_c, 0, 68, 88
4, 66716, Note_off_c, 0, 65, 0
4, 66716, Note_off_c, 0, 68, 0
4, 66780, Note_on_c, 0, 67, 88
4, 66823, Note_off_c, 0, 67, 0
4, 66840, Note_on_c, 0, 67, 88
4, 66855, Note_on_c, 0, 65, 88
4, 66855, Note_off_c, 0, 67, 0
4, 66870, Note_off_c, 0, 65, 0
4, 66870, Note_on_c, 0, 67, 88
4, 66885, Note_on_c, 0, 65, 88
4, 66885, Note_off_c, 0, 67, 0
4, 66900, Note_on_c, 0, 64, 88
4, 66900, Note_off_c, 0, 65, 0
4, 66958, Note_off_c, 0, 64, 0
4, 66960, Note_on_c, 0, 64, 88
4, 67076, Note_off_c, 0, 64, 0
4, 67080, Note_on_c, 0, 65, 88
4, 67196, Note_off_c, 0, 65, 0
4, 67196, End_track
5, 0, Start_track
5, 0, Title_t, "Track 2"
5, 0, Program_c, 1, 6
5, 120, Note_on_c, 1, 65, 88
5, 236, Note_off_c, 1, 65, 0
5, 240, Note_on_c, 1, 65, 88
5, 356, Note_off_c, 1, 65, 0
5, 360, Note_on_c, 1, 64, 88
5, 476, Note_off_c, 1, 64, 0
5, 600, Note_on_c, 1, 67, 88
5, 716, Note_off_c, 1, 67, 0
5, 720, Note_on_c, 1, 67, 88
5, 836, Note_off_c, 1, 67, 0
5, 840, Note_on_c, 1, 65, 88
5, 956, Note_off_c, 1, 65, 0
5, 1080, Note_on_c, 1, 72, 88
5, 1196, Note_off_c, 1, 72, 0
5, 1200, Note_on_c, 1, 72, 88
5, 1316, Note_off_c, 1, 72, 0
5, 1320, Note_on_c, 1, 70, 88
5, 1436, Note_off_c, 1, 70, 0
5, 1560, Note_on_c, 1, 68, 88
5, 1676, Note_off_c, 1, 68, 0
5, 1680, Note_on_c, 1, 68, 88
5, 1796, Note_off_c, 1, 68, 0
5, 1800, Note_on_c, 1, 67, 88
5, 1916, Note_off_c, 1, 67, 0
5, 1920, Note_on_c, 1, 64, 88
5, 2036, Note_off_c, 1, 64, 0
5, 2160, Note_on_c, 1, 65, 88
5, 2276, Note_off_c, 1, 65, 0
5, 2400, Note_on_c, 1, 62, 88
5, 2516, Note_off_c, 1, 62, 0
5, 2640, Note_on_c, 1, 64, 88
5, 2756, Note_off_c, 1, 64, 0
5, 2880, Note_on_c, 1, 67, 88
5, 2996, Note_off_c, 1, 67, 0
5, 3120, Note_on_c, 1, 65, 88
5, 3236, Note_off_c, 1, 65, 0
5, 3360, Note_on_c, 1, 62, 88
5, 3476, Note_off_c, 1, 62, 0
5, 3600, Note_on_c, 1, 64, 88
5, 3716, Note_off_c, 1, 64, 0
5, 3960, Note_on_c, 1, 65, 88
5, 4076, Note_off_c, 1, 65, 0
5, 4080, Note_on_c, 1, 65, 88
5, 4196, Note_off_c, 1, 65, 0
5, 4200, Note_on_c, 1, 64, 88
5, 4316, Note_off_c, 1, 64, 0
5, 4440, Note_on_c, 1, 67, 88
5, 4556, Note_off_c, 1, 67, 0
5, 4560, Note_on_c, 1, 67, 88
5, 4676, Note_off_c, 1, 67, 0
5, 4680, Note_on_c, 1, 65, 88
5, 4796, Note_off_c, 1, 65, 0
5, 4920, Note_on_c, 1, 68, 88
5, 5036, Note_off_c, 1, 68, 0
5, 5040, Note_on_c, 1, 68, 88
5, 5156, Note_off_c, 1, 68, 0
5, 5160, Note_on_c, 1, 70, 88
5, 5276, Note_off_c, 1, 70, 0
5, 5400, Note_on_c, 1, 67, 88
5, 5516, Note_off_c, 1, 67, 0
5, 5520, Note_on_c, 1, 67, 88
5, 5636, Note_off_c, 1, 67, 0
5, 5640, Note_on_c, 1, 68, 88
5, 5756, Note_off_c, 1, 68, 0
5, 5880, Note_on_c, 1, 72, 88
5, 5996, Note_off_c, 1, 72, 0
5, 6000, Note_on_c, 1, 72, 88
5, 6116, Note_off_c, 1, 72, 0
5, 6120, Note_on_c, 1, 70, 88
5, 6236, Note_off_c, 1, 70, 0
5, 6360, Note_on_c, 1, 70, 88
5, 6476, Note_off_c, 1, 70, 0
5, 6480, Note_on_c, 1, 70, 88
5, 6596, Note_off_c, 1, 70, 0
5, 6600, Note_on_c, 1, 68, 88
5, 6716, Note_off_c, 1, 68, 0
5, 6840, Note_on_c, 1, 75, 88
5, 6956, Note_off_c, 1, 75, 0
5, 6960, Note_on_c, 1, 75, 88
5, 7076, Note_off_c, 1, 75, 0
5, 7080, Note_on_c, 1, 73, 88
5, 7196, Note_off_c, 1, 73, 0
5, 7320, Note_on_c, 1, 72, 88
5, 7436, Note_off_c, 1, 72, 0
5, 7440, Note_on_c, 1, 72, 88
5, 7556, Note_off_c, 1, 72, 0
5, 7560, Note_on_c, 1, 70, 88
5, 7676, Note_off_c, 1, 70, 0
5, 7680, Note_on_c, 1, 67, 88
5, 7796, Note_off_c, 1, 67, 0
5, 7920, Note_on_c, 1, 68, 88
5, 8036, Note_off_c, 1, 68, 0
5, 8160, Note_on_c, 1, 65, 88
5, 8276, Note_off_c, 1, 65, 0
5, 8400, Note_on_c, 1, 67, 88
5, 8516, Note_off_c, 1, 67, 0
5, 8640, Note_on_c, 1, 70, 88
5, 8756, Note_off_c, 1, 70, 0
5, 8880, Note_on_c, 1, 68, 88
5, 8996, Note_off_c, 1, 68, 0
5, 9120, Note_on_c, 1, 65, 88
5, 9236, Note_off_c, 1, 65, 0
5, 9360, Note_on_c, 1, 67, 88
5, 9476, Note_off_c, 1, 67, 0
5, 12960, Note_on_c, 1, 63, 88
5, 13076, Note_off_c, 1, 63, 0
5, 13080, Note_on_c, 1, 61, 88
5, 13196, Note_off_c, 1, 61, 0
5, 13200, Note_on_c, 1, 61, 88
5, 13316, Note_off_c, 1, 61, 0
5, 13320, Note_on_c, 1, 60, 88
5, 13436, Note_off_c, 1, 60, 0
5, 13560, Note_on_c, 1, 65, 88
5, 13676, Note_off_c, 1, 65, 0
5, 13680, Note_on_c, 1, 65, 88
5, 13796, Note_off_c, 1, 65, 0
5, 13800, Note_on_c, 1, 64, 88
5, 13916, Note_off_c, 1, 64, 0
5, 14040, Note_on_c, 1, 67, 88
5, 14156, Note_off_c, 1, 67, 0
5, 14160, Note_on_c, 1, 67, 88
5, 14276, Note_off_c, 1, 67, 0
5, 14280, Note_on_c, 1, 65, 88
5, 14396, Note_off_c, 1, 65, 0
5, 14520, Note_on_c, 1, 72, 88
5, 14636, Note_off_c, 1, 72, 0
5, 14640, Note_on_c, 1, 72, 88
5, 14756, Note_off_c, 1, 72, 0
5, 14760, Note_on_c, 1, 70, 88
5, 14876, Note_off_c, 1, 70, 0
5, 15000, Note_on_c, 1, 68, 88
5, 15116, Note_off_c, 1, 68, 0
5, 15120, Note_on_c, 1, 68, 88
5, 15236, Note_off_c, 1, 68, 0
5, 15240, Note_on_c, 1, 67, 88
5, 15356, Note_off_c, 1, 67, 0
5, 15360, Note_on_c, 1, 64, 88
5, 15476, Note_off_c, 1, 64, 0
5, 15600, Note_on_c, 1, 65, 88
5, 15716, Note_off_c, 1, 65, 0
5, 15840, Note_on_c, 1, 62, 88
5, 15956, Note_off_c, 1, 62, 0
5, 16080, Note_on_c, 1, 64, 88
5, 16196, Note_off_c, 1, 64, 0
5, 16320, Note_on_c, 1, 67, 88
5, 16436, Note_off_c, 1, 67, 0
5, 16560, Note_on_c, 1, 65, 88
5, 16676, Note_off_c, 1, 65, 0
5, 16800, Note_on_c, 1, 62, 88
5, 16916, Note_off_c, 1, 62, 0
5, 17040, Note_on_c, 1, 64, 88
5, 17156, Note_off_c, 1, 64, 0
5, 17400, Note_on_c, 1, 65, 88
5, 17516, Note_off_c, 1, 65, 0
5, 17520, Note_on_c, 1, 65, 88
5, 17636, Note_off_c, 1, 65, 0
5, 17640, Note_on_c, 1, 64, 88
5, 17756, Note_off_c, 1, 64, 0
5, 17880, Note_on_c, 1, 67, 88
5, 17996, Note_off_c, 1, 67, 0
5, 18000, Note_on_c, 1, 67, 88
5, 18116, Note_off_c, 1, 67, 0
5, 18120, Note_on_c, 1, 65, 88
5, 18236, Note_off_c, 1, 65, 0
5, 18360, Note_on_c, 1, 68, 88
5, 18476, Note_off_c, 1, 68, 0
5, 18480, Note_on_c, 1, 68, 88
5, 18596, Note_off_c, 1, 68, 0
5, 18600, Note_on_c, 1, 70, 88
5, 18716, Note_off_c, 1, 70, 0
5, 18840, Note_on_c, 1, 67, 88
5, 18956, Note_off_c, 1, 67, 0
5, 18960, Note_on_c, 1, 67, 88
5, 19076, Note_off_c, 1, 67, 0
5, 19080, Note_on_c, 1, 68, 88
5, 19196, Note_off_c, 1, 68, 0
5, 19320, Note_on_c, 1, 72, 88
5, 19436, Note_off_c, 1, 72, 0
5, 19440, Note_on_c, 1, 72, 88
5, 19556, Note_off_c, 1, 72, 0
5, 19560, Note_on_c, 1, 70, 88
5, 19676, Note_off_c, 1, 70, 0
5, 19800, Note_on_c, 1, 70, 88
5, 19916, Note_off_c, 1, 70, 0
5, 19920, Note_on_c, 1, 70, 88
5, 20036, Note_off_c, 1, 70, 0
5, 20040, Note_on_c, 1, 68, 88
5, 20156, Note_off_c, 1, 68, 0
5, 20280, Note_on_c, 1, 75, 88
5, 20396, Note_off_c, 1, 75, 0
5, 20400, Note_on_c, 1, 75, 88
5, 20516, Note_off_c, 1, 75, 0
5, 20520, Note_on_c, 1, 73, 88
5, 20636, Note_off_c, 1, 73, 0
5, 20760, Note_on_c, 1, 72, 88
5, 20876, Note_off_c, 1, 72, 0
5, 20880, Note_on_c, 1, 72, 88
5, 20996, Note_off_c, 1, 72, 0
5, 21000, Note_on_c, 1, 70, 88
5, 21116, Note_off_c, 1, 70, 0
5, 21120, Note_on_c, 1, 67, 88
5, 21236, Note_off_c, 1, 67, 0
5, 21360, Note_on_c, 1, 68, 88
5, 21476, Note_off_c, 1, 68, 0
5, 21600, Note_on_c, 1, 65, 88
5, 21716, Note_off_c, 1, 65, 0
5, 21840, Note_on_c, 1, 67, 88
5, 21956, Note_off_c, 1, 67, 0
5, 22080, Note_on_c, 1, 70, 88
5, 22196, Note_off_c, 1, 70, 0
5, 22320, Note_on_c, 1, 68, 88
5, 22436, Note_off_c, 1, 68, 0
5, 22560, Note_on_c, 1, 65, 88
5, 22676, Note_off_c, 1, 65, 0
5, 22800, Note_on_c, 1, 67, 88
5, 22916, Note_off_c, 1, 67, 0
5, 26400, Note_on_c, 1, 63, 88
5, 26516, Note_off_c, 1, 63, 0
5, 26520, Note_on_c, 1, 61, 88
5, 26636, Note_off_c, 1, 61, 0
5, 26640, Note_on_c, 1, 61, 88
5, 26756, Note_off_c, 1, 61, 0
5, 26760, Note_on_c, 1, 60, 88
5, 26876, Note_off_c, 1, 60, 0
5, 27000, Note_on_c, 1, 68, 88
5, 27116, Note_off_c, 1, 68, 0
5, 27120, Note_on_c, 1, 68, 88
5, 27236, Note_off_c, 1, 68, 0
5, 27240, Note_on_c, 1, 67, 88
5, 27356, Note_off_c, 1, 67, 0
5, 27480, Note_on_c, 1, 70, 88
5, 27596, Note_off_c, 1, 70, 0
5, 27600, Note_on_c, 1, 70, 88
5, 27716, Note_off_c, 1, 70, 0
5, 27720, Note_on_c, 1, 68, 88
5, 27836, Note_off_c, 1, 68, 0
5, 27960, Note_on_c, 1, 66, 88
5, 28076, Note_off_c, 1, 66, 0
5, 28080, Note_on_c, 1, 66, 88
5, 28196, Note_off_c, 1, 66, 0
5, 28200, Note_on_c, 1, 65, 88
5, 28316, Note_off_c, 1, 65, 0
5, 28440, Note_on_c, 1, 68, 88
5, 28556, Note_off_c, 1, 68, 0
5, 28560, Note_on_c, 1, 68, 88
5, 28676, Note_off_c, 1, 68, 0
5, 28680, Note_on_c, 1, 67, 88
5, 28796, Note_off_c, 1, 67, 0
5, 29280, Note_on_c, 1, 72, 88
5, 29636, Note_off_c, 1, 72, 0
5, 29640, Note_on_c, 1, 70, 88
5, 29756, Note_off_c, 1, 70, 0
5, 29760, Note_on_c, 1, 71, 88
5, 29994, Note_off_c, 1, 71, 0
5, 30000, Note_on_c, 1, 70, 88
5, 30234, Note_off_c, 1, 70, 0
5, 30240, Note_on_c, 1, 68, 88
5, 30474, Note_off_c, 1, 68, 0
5, 30480, Note_on_c, 1, 66, 88
5, 30714, Note_off_c, 1, 66, 0
5, 31680, Note_on_c, 1, 65, 88
5, 31914, Note_off_c, 1, 65, 0
5, 31920, Note_on_c, 1, 63, 88
5, 32154, Note_off_c, 1, 63, 0
5, 32160, Note_on_c, 1, 61, 88
5, 32276, Note_off_c, 1, 61, 0
5, 32280, Note_on_c, 1, 60, 88
5, 32396, Note_off_c, 1, 60, 0
5, 32400, Note_on_c, 1, 60, 88
5, 32516, Note_off_c, 1, 60, 0
5, 32520, Note_on_c, 1, 61, 88
5, 32636, Note_off_c, 1, 61, 0
5, 38400, Note_on_c, 1, 70, 88
5, 38516, Note_off_c, 1, 70, 0
5, 38640, Note_on_c, 1, 64, 88
5, 38756, Note_off_c, 1, 64, 0
5, 38880, Note_on_c, 1, 61, 88
5, 38996, Note_off_c, 1, 61, 0
5, 39120, Note_on_c, 1, 61, 88
5, 39236, Note_off_c, 1, 61, 0
5, 39480, Note_on_c, 1, 58, 88
5, 39596, Note_off_c, 1, 58, 0
5, 39600, Note_on_c, 1, 56, 88
5, 39703, Note_off_c, 1, 56, 0
5, 39720, Note_on_c, 1, 56, 88
5, 39823, Note_off_c, 1, 56, 0
5, 39840, Note_on_c, 1, 56, 88
5, 39943, Note_off_c, 1, 56, 0
5, 39960, Note_on_c, 1, 56, 88
5, 40076, Note_off_c, 1, 56, 0
5, 40080, Note_on_c, 1, 56, 88
5, 40196, Note_off_c, 1, 56, 0
5, 40200, Note_on_c, 1, 55, 88
5, 40316, Note_off_c, 1, 55, 0
5, 40440, Note_on_c, 1, 65, 88
5, 40556, Note_off_c, 1, 65, 0
5, 40560, Note_on_c, 1, 65, 88
5, 40676, Note_off_c, 1, 65, 0
5, 40680, Note_on_c, 1, 64, 88
5, 40796, Note_off_c, 1, 64, 0
5, 40920, Note_on_c, 1, 64, 88
5, 41036, Note_off_c, 1, 64, 0
5, 41040, Note_on_c, 1, 64, 88
5, 41274, Note_off_c, 1, 64, 0
5, 41400, Note_on_c, 1, 65, 88
5, 41636, Note_off_c, 1, 65, 0
5, 41880, Note_on_c, 1, 58, 88
5, 41996, Note_off_c, 1, 58, 0
5, 42000, Note_on_c, 1, 56, 88
5, 42116, Note_off_c, 1, 56, 0
5, 45240, Note_on_c, 1, 60, 88
5, 45356, Note_off_c, 1, 60, 0
5, 45480, Note_on_c, 1, 61, 88
5, 45596, Note_off_c, 1, 61, 0
5, 45720, Note_on_c, 1, 63, 88
5, 45836, Note_off_c, 1, 63, 0
5, 45960, Note_on_c, 1, 58, 88
5, 46076, Note_off_c, 1, 58, 0
5, 46200, Note_on_c, 1, 60, 88
5, 46316, Note_off_c, 1, 60, 0
5, 46440, Note_on_c, 1, 62, 88
5, 46556, Note_off_c, 1, 62, 0
5, 47160, Note_on_c, 1, 68, 88
5, 47276, Note_off_c, 1, 68, 0
5, 47280, Note_on_c, 1, 68, 88
5, 47396, Note_off_c, 1, 68, 0
5, 47400, Note_on_c, 1, 67, 88
5, 47516, Note_off_c, 1, 67, 0
5, 47640, Note_on_c, 1, 70, 88
5, 47756, Note_off_c, 1, 70, 0
5, 47760, Note_on_c, 1, 70, 88
5, 47876, Note_off_c, 1, 70, 0
5, 47880, Note_on_c, 1, 68, 88
5, 47996, Note_off_c, 1, 68, 0
5, 48120, Note_on_c, 1, 66, 88
5, 48236, Note_off_c, 1, 66, 0
5, 48240, Note_on_c, 1, 66, 88
5, 48356, Note_off_c, 1, 66, 0
5, 48360, Note_on_c, 1, 65, 88
5, 48476, Note_off_c, 1, 65, 0
5, 48600, Note_on_c, 1, 68, 88
5, 48716, Note_off_c, 1, 68, 0
5, 48720, Note_on_c, 1, 68, 88
5, 48836, Note_off_c, 1, 68, 0
5, 48840, Note_on_c, 1, 67, 88
5, 48956, Note_off_c, 1, 67, 0
5, 49440, Note_on_c, 1, 72, 88
5, 49796, Note_off_c, 1, 72, 0
5, 49800, Note_on_c, 1, 70, 88
5, 49916, Note_off_c, 1, 70, 0
5, 49920, Note_on_c, 1, 71, 88
5, 50154, Note_off_c, 1, 71, 0
5, 50160, Note_on_c, 1, 70, 88
5, 50394, Note_off_c, 1, 70, 0
5, 50400, Note_on_c, 1, 68, 88
5, 50634, Note_off_c, 1, 68, 0
5, 50640, Note_on_c, 1, 66, 88
5, 50874, Note_off_c, 1, 66, 0
5, 51840, Note_on_c, 1, 65, 88
5, 52074, Note_off_c, 1, 65, 0
5, 52080, Note_on_c, 1, 63, 88
5, 52314, Note_off_c, 1, 63, 0
5, 52320, Note_on_c, 1, 61, 88
5, 52436, Note_off_c, 1, 61, 0
5, 52440, Note_on_c, 1, 60, 88
5, 52556, Note_off_c, 1, 60, 0
5, 52560, Note_on_c, 1, 60, 88
5, 52676, Note_off_c, 1, 60, 0
5, 52680, Note_on_c, 1, 61, 88
5, 52796, Note_off_c, 1, 61, 0
5, 58560, Note_on_c, 1, 70, 88
5, 58676, Note_off_c, 1, 70, 0
5, 58800, Note_on_c, 1, 64, 88
5, 58916, Note_off_c, 1, 64, 0
5, 59040, Note_on_c, 1, 61, 88
5, 59156, Note_off_c, 1, 61, 0
5, 59280, Note_on_c, 1, 61, 88
5, 59396, Note_off_c, 1, 61, 0
5, 59640, Note_on_c, 1, 58, 88
5, 59756, Note_off_c, 1, 58, 0
5, 59760, Note_on_c, 1, 56, 88
5, 59863, Note_off_c, 1, 56, 0
5, 59880, Note_on_c, 1, 56, 88
5, 59983, Note_off_c, 1, 56, 0
5, 60000, Note_on_c, 1, 56, 88
5, 60103, Note_off_c, 1, 56, 0
5, 60120, Note_on_c, 1, 56, 88
5, 60236, Note_off_c, 1, 56, 0
5, 60240, Note_on_c, 1, 56, 88
5, 60356, Note_off_c, 1, 56, 0
5, 60360, Note_on_c, 1, 55, 88
5, 60476, Note_off_c, 1, 55, 0
5, 60600, Note_on_c, 1, 65, 88
5, 60716, Note_off_c, 1, 65, 0
5, 60720, Note_on_c, 1, 65, 88
5, 60836, Note_off_c, 1, 65, 0
5, 60840, Note_on_c, 1, 64, 88
5, 60956, Note_off_c, 1, 64, 0
5, 61080, Note_on_c, 1, 64, 88
5, 61196, Note_off_c, 1, 64, 0
5, 61200, Note_on_c, 1, 64, 88
5, 61434, Note_off_c, 1, 64, 0
5, 61560, Note_on_c, 1, 65, 88
5, 61796, Note_off_c, 1, 65, 0
5, 62040, Note_on_c, 1, 58, 88
5, 62156, Note_off_c, 1, 58, 0
5, 62160, Note_on_c, 1, 56, 88
5, 62276, Note_off_c, 1, 56, 0
5, 65400, Note_on_c, 1, 60, 88
5, 65516, Note_off_c, 1, 60, 0
5, 65640, Note_on_c, 1, 61, 88
5, 65756, Note_off_c, 1, 61, 0
5, 65880, Note_on_c, 1, 63, 88
5, 65996, Note_off_c, 1, 63, 0
5, 66120, Note_on_c, 1, 58, 88
5, 66236, Note_off_c, 1, 58, 0
5, 66360, Note_on_c, 1, 60, 88
5, 66476, Note_off_c, 1, 60, 0
5, 66600, Note_on_c, 1, 62, 88
5, 66716, Note_off_c, 1, 62, 0
5, 66716, End_track
6, 0, Start_track
6, 0, Title_t, "Track 3"
6, 0, Program_c, 2, 6
6, 9720, Note_on_c, 2, 56, 88
6, 9956, Note_off_c, 2, 56, 0
6, 9960, Note_on_c, 2, 53, 88
6, 10076, Note_off_c, 2, 53, 0
6, 10200, Note_on_c, 2, 55, 88
6, 10436, Note_off_c, 2, 55, 0
6, 10440, Note_on_c, 2, 51, 88
6, 10556, Note_off_c, 2, 51, 0
6, 10680, Note_on_c, 2, 53, 88
6, 10916, Note_off_c, 2, 53, 0
6, 10920, Note_on_c, 2, 49, 88
6, 11036, Note_off_c, 2, 49, 0
6, 11160, Note_on_c, 2, 51, 88
6, 11396, Note_off_c, 2, 51, 0
6, 11400, Note_on_c, 2, 48, 88
6, 11516, Note_off_c, 2, 48, 0
6, 11520, Note_on_c, 2, 51, 88
6, 11636, Note_off_c, 2, 51, 0
6, 11640, Note_on_c, 2, 54, 88
6, 11756, Note_off_c, 2, 54, 0
6, 11760, Note_on_c, 2, 53, 88
6, 11876, Note_off_c, 2, 53, 0
6, 12120, Note_on_c, 2, 51, 88
6, 12236, Note_off_c, 2, 51, 0
6, 12240, Note_on_c, 2, 49, 88
6, 12356, Note_off_c, 2, 49, 0
6, 12600, Note_on_c, 2, 47, 88
6, 12716, Note_off_c, 2, 47, 0
6, 12840, Note_on_c, 2, 46, 88
6, 12956, Note_off_c, 2, 46, 0
6, 12960, Note_on_c, 2, 51, 88
6, 13434, Note_off_c, 2, 51, 0
6, 23160, Note_on_c, 2, 56, 88
6, 23396, Note_off_c, 2, 56, 0
6, 23400, Note_on_c, 2, 53, 88
6, 23516, Note_off_c, 2, 53, 0
6, 23640, Note_on_c, 2, 55, 88
6, 23876, Note_off_c, 2, 55, 0
6, 23880, Note_on_c, 2, 51, 88
6, 23996, Note_off_c, 2, 51, 0
6, 24120, Note_on_c, 2, 53, 88
6, 24356, Note_off_c, 2, 53, 0
6, 24360, Note_on_c, 2, 49, 88
6, 24476, Note_off_c, 2, 49, 0
6, 24600, Note_on_c, 2, 51, 88
6, 24836, Note_off_c, 2, 51, 0
6, 24840, Note_on_c, 2, 48, 88
6, 24956, Note_off_c, 2, 48, 0
6, 24960, Note_on_c, 2, 51, 88
6, 25076, Note_off_c, 2, 51, 0
6, 25080, Note_on_c, 2, 54, 88
6, 25196, Note_off_c, 2, 54, 0
6, 25200, Note_on_c, 2, 53, 88
6, 25316, Note_off_c, 2, 53, 0
6, 25560, Note_on_c, 2, 51, 88
6, 25676, Note_off_c, 2, 51, 0
6, 25680, Note_on_c, 2, 49, 88
6, 25796, Note_off_c, 2, 49, 0
6, 26040, Note_on_c, 2, 47, 88
6, 26156, Note_off_c, 2, 47, 0
6, 26280, Note_on_c, 2, 46, 88
6, 26396, Note_off_c, 2, 46, 0
6, 26400, Note_on_c, 2, 51, 88
6, 26874, Note_off_c, 2, 51, 0
6, 36600, Note_on_c, 2, 56, 88
6, 36716, Note_off_c, 2, 56, 0
6, 36720, Note_on_c, 2, 55, 88
6, 36954, Note_off_c, 2, 55, 0
6, 37080, Note_on_c, 2, 54, 88
6, 37196, Note_off_c, 2, 54, 0
6, 37200, Note_on_c, 2, 53, 88
6, 37316, Note_off_c, 2, 53, 0
6, 37320, Note_on_c, 2, 60, 88
6, 37436, Note_off_c, 2, 60, 0
6, 37560, Note_on_c, 2, 53, 88
6, 37676, Note_off_c, 2, 53, 0
6, 37680, Note_on_c, 2, 51, 88
6, 37914, Note_off_c, 2, 51, 0
6, 38040, Note_on_c, 2, 49, 88
6, 38156, Note_off_c, 2, 49, 0
6, 38160, Note_on_c, 2, 48, 88
6, 38394, Note_off_c, 2, 48, 0
6, 43200, Note_on_c, 2, 57, 88
6, 43434, Note_off_c, 2, 57, 0
6, 43560, Note_on_c, 2, 56, 88
6, 43676, Note_off_c, 2, 56, 0
6, 43680, Note_on_c, 2, 55, 88
6, 44023, Note_off_c, 2, 55, 0
6, 44040, Note_on_c, 2, 55, 88
6, 44156, Note_off_c, 2, 55, 0
6, 44160, Note_on_c, 2, 53, 88
6, 44503, Note_off_c, 2, 53, 0
6, 44520, Note_on_c, 2, 53, 88
6, 44636, Note_off_c, 2, 53, 0
6, 44640, Note_on_c, 2, 52, 88
6, 44874, Note_off_c, 2, 52, 0
6, 46320, Note_on_c, 2, 50, 88
6, 46320, Note_on_c, 2, 53, 88
6, 46436, Note_off_c, 2, 50, 0
6, 46436, Note_off_c, 2, 53, 0
6, 46560, Note_on_c, 2, 48, 88
6, 46676, Note_off_c, 2, 48, 0
6, 46680, Note_on_c, 2, 58, 88
6, 46796, Note_off_c, 2, 58, 0
6, 46800, Note_on_c, 2, 58, 88
6, 46916, Note_off_c, 2, 58, 0
6, 46920, Note_on_c, 2, 56, 88
6, 47036, Note_off_c, 2, 56, 0
6, 56760, Note_on_c, 2, 56, 88
6, 56876, Note_off_c, 2, 56, 0
6, 56880, Note_on_c, 2, 55, 88
6, 57114, Note_off_c, 2, 55, 0
6, 57240, Note_on_c, 2, 54, 88
6, 57356, Note_off_c, 2, 54, 0
6, 57360, Note_on_c, 2, 53, 88
6, 57476, Note_off_c, 2, 53, 0
6, 57480, Note_on_c, 2, 60, 88
6, 57596, Note_off_c, 2, 60, 0
6, 57720, Note_on_c, 2, 53, 88
6, 57836, Note_off_c, 2, 53, 0
6, 57840, Note_on_c, 2, 51, 88
6, 58074, Note_off_c, 2, 51, 0
6, 58200, Note_on_c, 2, 49, 88
6, 58316, Note_off_c, 2, 49, 0
6, 58320, Note_on_c, 2, 48, 88
6, 58554, Note_off_c, 2, 48, 0
6, 63360, Note_on_c, 2, 57, 88
6, 63594, Note_off_c, 2, 57, 0
6, 63720, Note_on_c, 2, 56, 88
6, 63836, Note_off_c, 2, 56, 0
6, 63840, Note_on_c, 2, 55, 88
6, 64183, Note_off_c, 2, 55, 0
6, 64200, Note_on_c, 2, 55, 88
6, 64316, Note_off_c, 2, 55, 0
6, 64320, Note_on_c, 2, 53, 88
6, 64663, Note_off_c, 2, 53, 0
6, 64680, Note_on_c, 2, 53, 88
6, 64796, Note_off_c, 2, 53, 0
6, 64800, Note_on_c, 2, 52, 88
6, 65034, Note_off_c, 2, 52, 0
6, 66480, Note_on_c, 2, 50, 88
6, 66480, Note_on_c, 2, 53, 88
6, 66596, Note_off_c, 2, 50, 0
6, 66596, Note_off_c, 2, 53, 0
6, 66720, Note_on_c, 2, 48, 88
6, 66836, Note_off_c, 2, 48, 0
6, 66840, Note_on_c, 2, 58, 88
6, 66956, Note_off_c, 2, 58, 0
6, 66960, Note_on_c, 2, 58, 88
6, 67076, Note_off_c, 2, 58, 0
6, 67080, Note_on_c, 2, 56, 88
6, 67196, Note_off_c, 2, 56, 0
6, 67196, End_track
7, 0, Start_track
7, 0, Title_t, "Track 4"
7, 0, Program_c, 3, 6
7, 0, Note_on_c, 3, 53, 88
7, 234, Note_off_c, 3, 53, 0
7, 240, Note_on_c, 3, 60, 88
7, 474, Note_off_c, 3, 60, 0
7, 480, Note_on_c, 3, 48, 88
7, 714, Note_off_c, 3, 48, 0
7, 720, Note_on_c, 3, 53, 88
7, 954, Note_off_c, 3, 53, 0
7, 960, Note_on_c, 3, 41, 88
7, 1194, Note_off_c, 3, 41, 0
7, 1200, Note_on_c, 3, 46, 88
7, 1434, Note_off_c, 3, 46, 0
7, 1440, Note_on_c, 3, 47, 88
7, 1674, Note_off_c, 3, 47, 0
7, 1680, Note_on_c, 3, 48, 88
7, 1914, Note_off_c, 3, 48, 0
7, 3840, Note_on_c, 3, 53, 88
7, 4074, Note_off_c, 3, 53, 0
7, 4080, Note_on_c, 3, 60, 88
7, 4314, Note_off_c, 3, 60, 0
7, 4320, Note_on_c, 3, 48, 88
7, 4554, Note_off_c, 3, 48, 0
7, 4560, Note_on_c, 3, 53, 88
7, 4794, Note_off_c, 3, 53, 0
7, 4800, Note_on_c, 3, 41, 88
7, 5034, Note_off_c, 3, 41, 0
7, 5040, Note_on_c, 3, 46, 88
7, 5274, Note_off_c, 3, 46, 0
7, 5280, Note_on_c, 3, 39, 88
7, 5514, Note_off_c, 3, 39, 0
7, 5520, Note_on_c, 3, 44, 88
7, 5754, Note_off_c, 3, 44, 0
7, 5760, Note_on_c, 3, 56, 88
7, 5994, Note_off_c, 3, 56, 0
7, 6000, Note_on_c, 3, 58, 88
7, 6234, Note_off_c, 3, 58, 0
7, 6240, Note_on_c, 3, 46, 88
7, 6474, Note_off_c, 3, 46, 0
7, 6480, Note_on_c, 3, 48, 88
7, 6714, Note_off_c, 3, 48, 0
7, 6720, Note_on_c, 3, 60, 88
7, 6954, Note_off_c, 3, 60, 0
7, 6960, Note_on_c, 3, 61, 88
7, 7194, Note_off_c, 3, 61, 0
7, 7200, Note_on_c, 3, 62, 88
7, 7434, Note_off_c, 3, 62, 0
7, 7440, Note_on_c, 3, 63, 88
7, 7674, Note_off_c, 3, 63, 0
7, 9600, Note_on_c, 3, 48, 88
7, 9834, Note_off_c, 3, 48, 0
7, 9840, Note_on_c, 3, 49, 88
7, 10074, Note_off_c, 3, 49, 0
7, 10080, Note_on_c, 3, 46, 88
7, 10314, Note_off_c, 3, 46, 0
7, 10320, Note_on_c, 3, 48, 88
7, 10554, Note_off_c, 3, 48, 0
7, 10560, Note_on_c, 3, 44, 88
7, 10794, Note_off_c, 3, 44, 0
7, 10800, Note_on_c, 3, 46, 88
7, 11034, Note_off_c, 3, 46, 0
7, 11040, Note_on_c, 3, 43, 88
7, 11274, Note_off_c, 3, 43, 0
7, 11280, Note_on_c, 3, 44, 88
7, 11514, Note_off_c, 3, 44, 0
7, 11880, Note_on_c, 3, 44, 88
7, 11996, Note_off_c, 3, 44, 0
7, 12000, Note_on_c, 3, 42, 88
7, 12116, Note_off_c, 3, 42, 0
7, 12360, Note_on_c, 3, 40, 88
7, 12476, Note_off_c, 3, 40, 0
7, 12480, Note_on_c, 3, 39, 88
7, 12596, Note_off_c, 3, 39, 0
7, 12720, Note_on_c, 3, 38, 88
7, 12954, Note_off_c, 3, 38, 0
7, 13080, Note_on_c, 3, 39, 88
7, 13196, Note_off_c, 3, 39, 0
7, 13200, Note_on_c, 3, 44, 88
7, 13434, Note_off_c, 3, 44, 0
7, 13440, Note_on_c, 3, 53, 88
7, 13674, Note_off_c, 3, 53, 0
7, 13680, Note_on_c, 3, 60, 88
7, 13914, Note_off_c, 3, 60, 0
7, 13920, Note_on_c, 3, 48, 88
7, 14154, Note_off_c, 3, 48, 0
7, 14160, Note_on_c, 3, 53, 88
7, 14394, Note_off_c, 3, 53, 0
7, 14400, Note_on_c, 3, 41, 88
7, 14634, Note_off_c, 3, 41, 0
7, 14640, Note_on_c, 3, 46, 88
7, 14874, Note_off_c, 3, 46, 0
7, 14880, Note_on_c, 3, 47, 88
7, 15114, Note_off_c, 3, 47, 0
7, 15120, Note_on_c, 3, 48, 88
7, 15354, Note_off_c, 3, 48, 0
7, 17280, Note_on_c, 3, 53, 88
7, 17514, Note_off_c, 3, 53, 0
7, 17520, Note_on_c, 3, 60, 88
7, 17754, Note_off_c, 3, 60, 0
7, 17760, Note_on_c, 3, 48, 88
7, 17994, Note_off_c, 3, 48, 0
7, 18000, Note_on_c, 3, 53, 88
7, 18234, Note_off_c, 3, 53, 0
7, 18240, Note_on_c, 3, 41, 88
7, 18474, Note_off_c, 3, 41, 0
7, 18480, Note_on_c, 3, 46, 88
7, 18714, Note_off_c, 3, 46, 0
7, 18720, Note_on_c, 3, 39, 88
7, 18954, Note_off_c, 3, 39, 0
7, 18960, Note_on_c, 3, 44, 88
7, 19194, Note_off_c, 3, 44, 0
7, 19200, Note_on_c, 3, 56, 88
7, 19434, Note_off_c, 3, 56, 0
7, 19440, Note_on_c, 3, 58, 88
7, 19674, Note_off_c, 3, 58, 0
7, 19680, Note_on_c, 3, 46, 88
7, 19914, Note_off_c, 3, 46, 0
7, 19920, Note_on_c, 3, 48, 88
7, 20154, Note_off_c, 3, 48, 0
7, 20160, Note_on_c, 3, 60, 88
7, 20394, Note_off_c, 3, 60, 0
7, 20400, Note_on_c, 3, 61, 88
7, 20634, Note_off_c, 3, 61, 0
7, 20640, Note_on_c, 3, 62, 88
7, 20874, Note_off_c, 3, 62, 0
7, 20880, Note_on_c, 3, 63, 88
7, 21114, Note_off_c, 3, 63, 0
7, 23040, Note_on_c, 3, 48, 88
7, 23274, Note_off_c, 3, 48, 0
7, 23280, Note_on_c, 3, 49, 88
7, 23514, Note_off_c, 3, 49, 0
7, 23520, Note_on_c, 3, 46, 88
7, 23754, Note_off_c, 3, 46, 0
7, 23760, Note_on_c, 3, 48, 88
7, 23994, Note_off_c, 3, 48, 0
7, 24000, Note_on_c, 3, 44, 88
7, 24234, Note_off_c, 3, 44, 0
7, 24240, Note_on_c, 3, 46, 88
7, 24474, Note_off_c, 3, 46, 0
7, 24480, Note_on_c, 3, 43, 88
7, 24714, Note_off_c, 3, 43, 0
7, 24720, Note_on_c, 3, 44, 88
7, 24954, Note_off_c, 3, 44, 0
7, 25320, Note_on_c, 3, 44, 88
7, 25436, Note_off_c, 3, 44, 0
7, 25440, Note_on_c, 3, 42, 88
7, 25556, Note_off_c, 3, 42, 0
7, 25800, Note_on_c, 3, 40, 88
7, 25916, Note_off_c, 3, 40, 0
7, 25920, Note_on_c, 3, 39, 88
7, 26036, Note_off_c, 3, 39, 0
7, 26160, Note_on_c, 3, 38, 88
7, 26394, Note_off_c, 3, 38, 0
7, 26520, Note_on_c, 3, 39, 88
7, 26636, Note_off_c, 3, 39, 0
7, 26640, Note_on_c, 3, 44, 88
7, 26874, Note_off_c, 3, 44, 0
7, 26880, Note_on_c, 3, 56, 88
7, 27114, Note_off_c, 3, 56, 0
7, 27120, Note_on_c, 3, 63, 88
7, 27354, Note_off_c, 3, 63, 0
7, 27360, Note_on_c, 3, 51, 88
7, 27594, Note_off_c, 3, 51, 0
7, 27600, Note_on_c, 3, 56, 88
7, 27834, Note_off_c, 3, 56, 0
7, 27840, Note_on_c, 3, 57, 88
7, 28074, Note_off_c, 3, 57, 0
7, 28080, Note_on_c, 3, 58, 88
7, 28314, Note_off_c, 3, 58, 0
7, 28320, Note_on_c, 3, 50, 88
7, 28554, Note_off_c, 3, 50, 0
7, 28560, Note_on_c, 3, 51, 88
7, 28794, Note_off_c, 3, 51, 0
7, 28860, Note_on_c, 3, 69, 88
7, 28918, Note_off_c, 3, 69, 0
7, 28920, Note_on_c, 3, 63, 88
7, 28978, Note_off_c, 3, 63, 0
7, 28980, Note_on_c, 3, 69, 88
7, 29038, Note_off_c, 3, 69, 0
7, 29100, Note_on_c, 3, 70, 88
7, 29158, Note_off_c, 3, 70, 0
7, 29160, Note_on_c, 3, 61, 88
7, 29218, Note_off_c, 3, 61, 0
7, 29220, Note_on_c, 3, 70, 88
7, 29278, Note_off_c, 3, 70, 0
7, 29340, Note_on_c, 3, 66, 88
7, 29398, Note_off_c, 3, 66, 0
7, 29400, Note_on_c, 3, 57, 88
7, 29458, Note_off_c, 3, 57, 0
7, 29460, Note_on_c, 3, 66, 88
7, 29518, Note_off_c, 3, 66, 0
7, 29580, Note_on_c, 3, 65, 88
7, 29638, Note_off_c, 3, 65, 0
7, 29640, Note_on_c, 3, 58, 88
7, 29698, Note_off_c, 3, 58, 0
7, 29700, Note_on_c, 3, 65, 88
7, 29758, Note_off_c, 3, 65, 0
7, 29820, Note_on_c, 3, 68, 88
7, 29878, Note_off_c, 3, 68, 0
7, 29880, Note_on_c, 3, 58, 88
7, 29938, Note_off_c, 3, 58, 0
7, 29940, Note_on_c, 3, 68, 88
7, 29998, Note_off_c, 3, 68, 0
7, 30060, Note_on_c, 3, 66, 88
7, 30118, Note_off_c, 3, 66, 0
7, 30120, Note_on_c, 3, 60, 88
7, 30178, Note_off_c, 3, 60, 0
7, 30180, Note_on_c, 3, 66, 88
7, 30238, Note_off_c, 3, 66, 0
7, 30300, Note_on_c, 3, 65, 88
7, 30358, Note_off_c, 3, 65, 0
7, 30360, Note_on_c, 3, 62, 88
7, 30418, Note_off_c, 3, 62, 0
7, 30420, Note_on_c, 3, 65, 88
7, 30478, Note_off_c, 3, 65, 0
7, 30540, Note_on_c, 3, 63, 88
7, 30598, Note_off_c, 3, 63, 0
7, 30600, Note_on_c, 3, 62, 88
7, 30658, Note_off_c, 3, 62, 0
7, 30660, Note_on_c, 3, 63, 88
7, 30718, Note_off_c, 3, 63, 0
7, 30720, Note_on_c, 3, 60, 88
7, 30778, Note_off_c, 3, 60, 0
7, 30780, Note_on_c, 3, 63, 88
7, 30838, Note_off_c, 3, 63, 0
7, 30840, Note_on_c, 3, 61, 88
7, 30898, Note_off_c, 3, 61, 0
7, 30900, Note_on_c, 3, 63, 88
7, 30958, Note_off_c, 3, 63, 0
7, 30960, Note_on_c, 3, 53, 88
7, 31018, Note_off_c, 3, 53, 0
7, 31020, Note_on_c, 3, 61, 88
7, 31078, Note_off_c, 3, 61, 0
7, 31080, Note_on_c, 3, 60, 88
7, 31138, Note_off_c, 3, 60, 0
7, 31140, Note_on_c, 3, 61, 88
7, 31198, Note_off_c, 3, 61, 0
7, 31200, Note_on_c, 3, 55, 88
7, 31258, Note_off_c, 3, 55, 0
7, 31260, Note_on_c, 3, 60, 88
7, 31318, Note_off_c, 3, 60, 0
7, 31320, Note_on_c, 3, 58, 88
7, 31378, Note_off_c, 3, 58, 0
7, 31380, Note_on_c, 3, 60, 88
7, 31438, Note_off_c, 3, 60, 0
7, 31440, Note_on_c, 3, 57, 88
7, 31498, Note_off_c, 3, 57, 0
7, 31500, Note_on_c, 3, 58, 88
7, 31558, Note_off_c, 3, 58, 0
7, 31560, Note_on_c, 3, 57, 88
7, 31618, Note_off_c, 3, 57, 0
7, 31620, Note_on_c, 3, 58, 88
7, 31678, Note_off_c, 3, 58, 0
7, 31680, Note_on_c, 3, 49, 88
7, 31738, Note_off_c, 3, 49, 0
7, 31740, Note_on_c, 3, 58, 88
7, 31798, Note_off_c, 3, 58, 0
7, 31800, Note_on_c, 3, 57, 88
7, 31858, Note_off_c, 3, 57, 0
7, 31860, Note_on_c, 3, 58, 88
7, 31918, Note_off_c, 3, 58, 0
7, 31920, Note_on_c, 3, 54, 88
7, 31978, Note_off_c, 3, 54, 0
7, 31980, Note_on_c, 3, 53, 88
7, 32038, Note_off_c, 3, 53, 0
7, 32040, Note_on_c, 3, 54, 88
7, 32098, Note_off_c, 3, 54, 0
7, 32100, Note_on_c, 3, 51, 88
7, 32158, Note_off_c, 3, 51, 0
7, 32160, Note_on_c, 3, 53, 88
7, 32276, Note_off_c, 3, 53, 0
7, 32280, Note_on_c, 3, 41, 88
7, 32396, Note_off_c, 3, 41, 0
7, 32400, Note_on_c, 3, 46, 88
7, 32634, Note_off_c, 3, 46, 0
7, 32700, Note_on_c, 3, 61, 88
7, 32758, Note_off_c, 3, 61, 0
7, 32760, Note_on_c, 3, 60, 88
7, 32818, Note_off_c, 3, 60, 0
7, 32820, Note_on_c, 3, 61, 88
7, 32878, Note_off_c, 3, 61, 0
7, 32880, Note_on_c, 3, 58, 88
7, 32938, Note_off_c, 3, 58, 0
7, 32940, Note_on_c, 3, 61, 88
7, 32998, Note_off_c, 3, 61, 0
7, 33000, Note_on_c, 3, 56, 88
7, 33058, Note_off_c, 3, 56, 0
7, 33060, Note_on_c, 3, 61, 88
7, 33118, Note_off_c, 3, 61, 0
7, 33120, Note_on_c, 3, 55, 88
7, 33178, Note_off_c, 3, 55, 0
7, 33180, Note_on_c, 3, 61, 88
7, 33238, Note_off_c, 3, 61, 0
7, 33240, Note_on_c, 3, 53, 88
7, 33298, Note_off_c, 3, 53, 0
7, 33300, Note_on_c, 3, 61, 88
7, 33358, Note_off_c, 3, 61, 0
7, 33360, Note_on_c, 3, 51, 88
7, 33418, Note_off_c, 3, 51, 0
7, 33420, Note_on_c, 3, 55, 88
7, 33478, Note_off_c, 3, 55, 0
7, 33480, Note_on_c, 3, 58, 88
7, 33538, Note_off_c, 3, 58, 0
7, 33540, Note_on_c, 3, 61, 88
7, 33598, Note_off_c, 3, 61, 0
7, 33660, Note_on_c, 3, 60, 88
7, 33718, Note_off_c, 3, 60, 0
7, 33720, Note_on_c, 3, 58, 88
7, 33778, Note_off_c, 3, 58, 0
7, 33780, Note_on_c, 3, 60, 88
7, 33838, Note_off_c, 3, 60, 0
7, 33840, Note_on_c, 3, 56, 88
7, 33898, Note_off_c, 3, 56, 0
7, 33900, Note_on_c, 3, 60, 88
7, 33958, Note_off_c, 3, 60, 0
7, 33960, Note_on_c, 3, 54, 88
7, 34018, Note_off_c, 3, 54, 0
7, 34020, Note_on_c, 3, 60, 88
7, 34078, Note_off_c, 3, 60, 0
7, 34080, Note_on_c, 3, 53, 88
7, 34138, Note_off_c, 3, 53, 0
7, 34140, Note_on_c, 3, 60, 88
7, 34198, Note_off_c, 3, 60, 0
7, 34200, Note_on_c, 3, 51, 88
7, 34258, Note_off_c, 3, 51, 0
7, 34260, Note_on_c, 3, 60, 88
7, 34318, Note_off_c, 3, 60, 0
7, 34320, Note_on_c, 3, 49, 88
7, 34378, Note_off_c, 3, 49, 0
7, 34380, Note_on_c, 3, 53, 88
7, 34438, Note_off_c, 3, 53, 0
7, 34440, Note_on_c, 3, 56, 88
7, 34498, Note_off_c, 3, 56, 0
7, 34500, Note_on_c, 3, 60, 88
7, 34558, Note_off_c, 3, 60, 0
7, 34560, Note_on_c, 3, 50, 88
7, 34618, Note_off_c, 3, 50, 0
7, 34620, Note_on_c, 3, 53, 88
7, 34678, Note_off_c, 3, 53, 0
7, 34680, Note_on_c, 3, 56, 88
7, 34738, Note_off_c, 3, 56, 0
7, 34740, Note_on_c, 3, 58, 88
7, 34798, Note_off_c, 3, 58, 0
7, 34800, Note_on_c, 3, 51, 88
7, 34858, Note_off_c, 3, 51, 0
7, 34860, Note_on_c, 3, 55, 88
7, 34918, Note_off_c, 3, 55, 0
7, 34920, Note_on_c, 3, 58, 88
7, 34978, Note_off_c, 3, 58, 0
7, 34980, Note_on_c, 3, 61, 88
7, 35038, Note_off_c, 3, 61, 0
7, 35040, Note_on_c, 3, 52, 88
7, 35098, Note_off_c, 3, 52, 0
7, 35100, Note_on_c, 3, 55, 88
7, 35158, Note_off_c, 3, 55, 0
7, 35160, Note_on_c, 3, 58, 88
7, 35218, Note_off_c, 3, 58, 0
7, 35220, Note_on_c, 3, 60, 88
7, 35278, Note_off_c, 3, 60, 0
7, 35280, Note_on_c, 3, 53, 88
7, 35338, Note_off_c, 3, 53, 0
7, 35340, Note_on_c, 3, 56, 88
7, 35398, Note_off_c, 3, 56, 0
7, 35400, Note_on_c, 3, 60, 88
7, 35458, Note_off_c, 3, 60, 0
7, 35460, Note_on_c, 3, 64, 88
7, 35518, Note_off_c, 3, 64, 0
7, 35520, Note_on_c, 3, 65, 88
7, 35636, Note_off_c, 3, 65, 0
7, 35640, Note_on_c, 3, 68, 88
7, 35756, Note_off_c, 3, 68, 0
7, 35760, Note_on_c, 3, 58, 88
7, 35876, Note_off_c, 3, 58, 0
7, 35880, Note_on_c, 3, 60, 88
7, 35996, Note_off_c, 3, 60, 0
7, 36000, Note_on_c, 3, 61, 88
7, 36116, Note_off_c, 3, 61, 0
7, 36120, Note_on_c, 3, 58, 88
7, 36236, Note_off_c, 3, 58, 0
7, 36240, Note_on_c, 3, 60, 88
7, 36356, Note_off_c, 3, 60, 0
7, 36360, Note_on_c, 3, 48, 88
7, 36476, Note_off_c, 3, 48, 0
7, 36600, Note_on_c, 3, 53, 88
7, 36716, Note_off_c, 3, 53, 0
7, 36720, Note_on_c, 3, 53, 88
7, 36836, Note_off_c, 3, 53, 0
7, 36840, Note_on_c, 3, 52, 88
7, 36956, Note_off_c, 3, 52, 0
7, 37080, Note_on_c, 3, 51, 88
7, 37196, Note_off_c, 3, 51, 0
7, 37200, Note_on_c, 3, 51, 88
7, 37434, Note_off_c, 3, 51, 0
7, 37560, Note_on_c, 3, 49, 88
7, 37676, Note_off_c, 3, 49, 0
7, 37680, Note_on_c, 3, 49, 88
7, 37796, Note_off_c, 3, 49, 0
7, 37800, Note_on_c, 3, 48, 88
7, 37916, Note_off_c, 3, 48, 0
7, 38040, Note_on_c, 3, 46, 88
7, 38156, Note_off_c, 3, 46, 0
7, 38160, Note_on_c, 3, 46, 88
7, 38276, Note_off_c, 3, 46, 0
7, 38280, Note_on_c, 3, 45, 88
7, 38396, Note_off_c, 3, 45, 0
7, 38460, Note_on_c, 3, 58, 88
7, 38518, Note_off_c, 3, 58, 0
7, 38520, Note_on_c, 3, 60, 88
7, 38578, Note_off_c, 3, 60, 0
7, 38580, Note_on_c, 3, 61, 88
7, 38638, Note_off_c, 3, 61, 0
7, 38700, Note_on_c, 3, 60, 88
7, 38758, Note_off_c, 3, 60, 0
7, 38760, Note_on_c, 3, 58, 88
7, 38818, Note_off_c, 3, 58, 0
7, 38820, Note_on_c, 3, 56, 88
7, 38878, Note_off_c, 3, 56, 0
7, 38940, Note_on_c, 3, 55, 88
7, 38998, Note_off_c, 3, 55, 0
7, 39000, Note_on_c, 3, 56, 88
7, 39058, Note_off_c, 3, 56, 0
7, 39060, Note_on_c, 3, 58, 88
7, 39118, Note_off_c, 3, 58, 0
7, 39180, Note_on_c, 3, 56, 88
7, 39238, Note_off_c, 3, 56, 0
7, 39240, Note_on_c, 3, 55, 88
7, 39298, Note_off_c, 3, 55, 0
7, 39300, Note_on_c, 3, 53, 88
7, 39358, Note_off_c, 3, 53, 0
7, 39360, Note_on_c, 3, 52, 88
7, 39476, Note_off_c, 3, 52, 0
7, 39480, Note_on_c, 3, 60, 88
7, 39596, Note_off_c, 3, 60, 0
7, 39600, Note_on_c, 3, 53, 88
7, 39716, Note_off_c, 3, 53, 0
7, 39720, Note_on_c, 3, 60, 88
7, 39836, Note_off_c, 3, 60, 0
7, 39840, Note_on_c, 3, 49, 88
7, 39956, Note_off_c, 3, 49, 0
7, 39960, Note_on_c, 3, 59, 88
7, 40076, Note_off_c, 3, 59, 0
7, 40080, Note_on_c, 3, 48, 88
7, 40196, Note_off_c, 3, 48, 0
7, 40200, Note_on_c, 3, 60, 88
7, 40316, Note_off_c, 3, 60, 0
7, 40320, Note_on_c, 3, 53, 88
7, 40554, Note_off_c, 3, 53, 0
7, 40560, Note_on_c, 3, 58, 88
7, 40794, Note_off_c, 3, 58, 0
7, 40800, Note_on_c, 3, 61, 88
7, 41034, Note_off_c, 3, 61, 0
7, 41040, Note_on_c, 3, 55, 88
7, 41274, Note_off_c, 3, 55, 0
7, 41280, Note_on_c, 3, 56, 88
7, 41514, Note_off_c, 3, 56, 0
7, 41520, Note_on_c, 3, 61, 88
7, 41636, Note_off_c, 3, 61, 0
7, 41640, Note_on_c, 3, 58, 88
7, 41756, Note_off_c, 3, 58, 0
7, 41760, Note_on_c, 3, 60, 88
7, 41876, Note_off_c, 3, 60, 0
7, 41880, Note_on_c, 3, 48, 88
7, 41996, Note_off_c, 3, 48, 0
7, 42000, Note_on_c, 3, 49, 88
7, 42116, Note_off_c, 3, 49, 0
7, 42240, Note_on_c, 3, 61, 88
7, 42356, Note_off_c, 3, 61, 0
7, 42360, Note_on_c, 3, 49, 88
7, 42476, Note_off_c, 3, 49, 0
7, 42480, Note_on_c, 3, 48, 88
7, 42596, Note_off_c, 3, 48, 0
7, 42600, Note_on_c, 3, 60, 88
7, 42716, Note_off_c, 3, 60, 0
7, 42720, Note_on_c, 3, 58, 88
7, 42836, Note_off_c, 3, 58, 0
7, 42840, Note_on_c, 3, 46, 88
7, 42956, Note_off_c, 3, 46, 0
7, 42960, Note_on_c, 3, 44, 88
7, 43018, Note_off_c, 3, 44, 0
7, 43020, Note_on_c, 3, 48, 88
7, 43078, Note_off_c, 3, 48, 0
7, 43080, Note_on_c, 3, 53, 88
7, 43138, Note_off_c, 3, 53, 0
7, 43140, Note_on_c, 3, 55, 88
7, 43198, Note_off_c, 3, 55, 0
7, 43200, Note_on_c, 3, 57, 88
7, 43316, Note_off_c, 3, 57, 0
7, 43320, Note_on_c, 3, 53, 88
7, 43436, Note_off_c, 3, 53, 0
7, 43440, Note_on_c, 3, 46, 88
7, 43674, Note_off_c, 3, 46, 0
7, 43800, Note_on_c, 3, 51, 88
7, 43916, Note_off_c, 3, 51, 0
7, 43920, Note_on_c, 3, 44, 88
7, 44154, Note_off_c, 3, 44, 0
7, 44280, Note_on_c, 3, 49, 88
7, 44396, Note_off_c, 3, 49, 0
7, 44400, Note_on_c, 3, 43, 88
7, 44634, Note_off_c, 3, 43, 0
7, 44760, Note_on_c, 3, 48, 88
7, 44876, Note_off_c, 3, 48, 0
7, 44880, Note_on_c, 3, 41, 88
7, 44996, Note_off_c, 3, 41, 0
7, 45000, Note_on_c, 3, 44, 88
7, 45116, Note_off_c, 3, 44, 0
7, 45120, Note_on_c, 3, 48, 88
7, 45236, Note_off_c, 3, 48, 0
7, 45240, Note_on_c, 3, 51, 88
7, 45356, Note_off_c, 3, 51, 0
7, 45360, Note_on_c, 3, 49, 88
7, 45476, Note_off_c, 3, 49, 0
7, 45480, Note_on_c, 3, 41, 88
7, 45596, Note_off_c, 3, 41, 0
7, 45600, Note_on_c, 3, 39, 88
7, 45716, Note_off_c, 3, 39, 0
7, 45720, Note_on_c, 3, 48, 88
7, 45836, Note_off_c, 3, 48, 0
7, 45840, Note_on_c, 3, 46, 88
7, 45956, Note_off_c, 3, 46, 0
7, 45960, Note_on_c, 3, 37, 88
7, 46076, Note_off_c, 3, 37, 0
7, 46080, Note_on_c, 3, 36, 88
7, 46196, Note_off_c, 3, 36, 0
7, 46200, Note_on_c, 3, 48, 88
7, 46316, Note_off_c, 3, 48, 0
7, 46320, Note_on_c, 3, 47, 88
7, 46436, Note_off_c, 3, 47, 0
7, 46560, Note_on_c, 3, 48, 88
7, 46794, Note_off_c, 3, 48, 0
7, 46800, Note_on_c, 3, 53, 88
7, 47034, Note_off_c, 3, 53, 0
7, 47040, Note_on_c, 3, 56, 88
7, 47274, Note_off_c, 3, 56, 0
7, 47280, Note_on_c, 3, 63, 88
7, 47514, Note_off_c, 3, 63, 0
7, 47520, Note_on_c, 3, 51, 88
7, 47754, Note_off_c, 3, 51, 0
7, 47760, Note_on_c, 3, 56, 88
7, 47994, Note_off_c, 3, 56, 0
7, 48000, Note_on_c, 3, 57, 88
7, 48234, Note_off_c, 3, 57, 0
7, 48240, Note_on_c, 3, 58, 88
7, 48474, Note_off_c, 3, 58, 0
7, 48480, Note_on_c, 3, 50, 88
7, 48714, Note_off_c, 3, 50, 0
7, 48720, Note_on_c, 3, 51, 88
7, 48954, Note_off_c, 3, 51, 0
7, 49020, Note_on_c, 3, 69, 88
7, 49078, Note_off_c, 3, 69, 0
7, 49080, Note_on_c, 3, 63, 88
7, 49138, Note_off_c, 3, 63, 0
7, 49140, Note_on_c, 3, 69, 88
7, 49198, Note_off_c, 3, 69, 0
7, 49260, Note_on_c, 3, 70, 88
7, 49318, Note_off_c, 3, 70, 0
7, 49320, Note_on_c, 3, 61, 88
7, 49378, Note_off_c, 3, 61, 0
7, 49380, Note_on_c, 3, 70, 88
7, 49438, Note_off_c, 3, 70, 0
7, 49500, Note_on_c, 3, 66, 88
7, 49558, Note_off_c, 3, 66, 0
7, 49560, Note_on_c, 3, 57, 88
7, 49618, Note_off_c, 3, 57, 0
7, 49620, Note_on_c, 3, 66, 88
7, 49678, Note_off_c, 3, 66, 0
7, 49740, Note_on_c, 3, 65, 88
7, 49798, Note_off_c, 3, 65, 0
7, 49800, Note_on_c, 3, 58, 88
7, 49858, Note_off_c, 3, 58, 0
7, 49860, Note_on_c, 3, 65, 88
7, 49918, Note_off_c, 3, 65, 0
7, 49980, Note_on_c, 3, 68, 88
7, 50038, Note_off_c, 3, 68, 0
7, 50040, Note_on_c, 3, 58, 88
7, 50098, Note_off_c, 3, 58, 0
7, 50100, Note_on_c, 3, 68, 88
7, 50158, Note_off_c, 3, 68, 0
7, 50220, Note_on_c, 3, 66, 88
7, 50278, Note_off_c, 3, 66, 0
7, 50280, Note_on_c, 3, 60, 88
7, 50338, Note_off_c, 3, 60, 0
7, 50340, Note_on_c, 3, 66, 88
7, 50398, Note_off_c, 3, 66, 0
7, 50460, Note_on_c, 3, 65, 88
7, 50518, Note_off_c, 3, 65, 0
7, 50520, Note_on_c, 3, 62, 88
7, 50578, Note_off_c, 3, 62, 0
7, 50580, Note_on_c, 3, 65, 88
7, 50638, Note_off_c, 3, 65, 0
7, 50700, Note_on_c, 3, 63, 88
7, 50758, Note_off_c, 3, 63, 0
7, 50760, Note_on_c, 3, 62, 88
7, 50818, Note_off_c, 3, 62, 0
7, 50820, Note_on_c, 3, 63, 88
7, 50878, Note_off_c, 3, 63, 0
7, 50880, Note_on_c, 3, 60, 88
7, 50938, Note_off_c, 3, 60, 0
7, 50940, Note_on_c, 3, 63, 88
7, 50998, Note_off_c, 3, 63, 0
7, 51000, Note_on_c, 3, 61, 88
7, 51058, Note_off_c, 3, 61, 0
7, 51060, Note_on_c, 3, 63, 88
7, 51118, Note_off_c, 3, 63, 0
7, 51120, Note_on_c, 3, 53, 88
7, 51178, Note_off_c, 3, 53, 0
7, 51180, Note_on_c, 3, 61, 88
7, 51238, Note_off_c, 3, 61, 0
7, 51240, Note_on_c, 3, 60, 88
7, 51298, Note_off_c, 3, 60, 0
7, 51300, Note_on_c, 3, 61, 88
7, 51358, Note_off_c, 3, 61, 0
7, 51360, Note_on_c, 3, 55, 88
7, 51418, Note_off_c, 3, 55, 0
7, 51420, Note_on_c, 3, 60, 88
7, 51478, Note_off_c, 3, 60, 0
7, 51480, Note_on_c, 3, 58, 88
7, 51538, Note_off_c, 3, 58, 0
7, 51540, Note_on_c, 3, 60, 88
7, 51598, Note_off_c, 3, 60, 0
7, 51600, Note_on_c, 3, 57, 88
7, 51658, Note_off_c, 3, 57, 0
7, 51660, Note_on_c, 3, 58, 88
7, 51718, Note_off_c, 3, 58, 0
7, 51720, Note_on_c, 3, 57, 88
7, 51778, Note_off_c, 3, 57, 0
7, 51780, Note_on_c, 3, 58, 88
7, 51838, Note_off_c, 3, 58, 0
7, 51840, Note_on_c, 3, 49, 88
7, 51898, Note_off_c, 3, 49, 0
7, 51900, Note_on_c, 3, 58, 88
7, 51958, Note_off_c, 3, 58, 0
7, 51960, Note_on_c, 3, 57, 88
7, 52018, Note_off_c, 3, 57, 0
7, 52020, Note_on_c, 3, 58, 88
7, 52078, Note_off_c, 3, 58, 0
7, 52080, Note_on_c, 3, 54, 88
7, 52138, Note_off_c, 3, 54, 0
7, 52140, Note_on_c, 3, 53, 88
7, 52198, Note_off_c, 3, 53, 0
7, 52200, Note_on_c, 3, 54, 88
7, 52258, Note_off_c, 3, 54, 0
7, 52260, Note_on_c, 3, 51, 88
7, 52318, Note_off_c, 3, 51, 0
7, 52320, Note_on_c, 3, 53, 88
7, 52436, Note_off_c, 3, 53, 0
7, 52440, Note_on_c, 3, 41, 88
7, 52556, Note_off_c, 3, 41, 0
7, 52560, Note_on_c, 3, 46, 88
7, 52794, Note_off_c, 3, 46, 0
7, 52860, Note_on_c, 3, 61, 88
7, 52918, Note_off_c, 3, 61, 0
7, 52920, Note_on_c, 3, 60, 88
7, 52978, Note_off_c, 3, 60, 0
7, 52980, Note_on_c, 3, 61, 88
7, 53038, Note_off_c, 3, 61, 0
7, 53040, Note_on_c, 3, 58, 88
7, 53098, Note_off_c, 3, 58, 0
7, 53100, Note_on_c, 3, 61, 88
7, 53158, Note_off_c, 3, 61, 0
7, 53160, Note_on_c, 3, 56, 88
7, 53218, Note_off_c, 3, 56, 0
7, 53220, Note_on_c, 3, 61, 88
7, 53278, Note_off_c, 3, 61, 0
7, 53280, Note_on_c, 3, 55, 88
7, 53338, Note_off_c, 3, 55, 0
7, 53340, Note_on_c, 3, 61, 88
7, 53398, Note_off_c, 3, 61, 0
7, 53400, Note_on_c, 3, 53, 88
7, 53458, Note_off_c, 3, 53, 0
7, 53460, Note_on_c, 3, 61, 88
7, 53518, Note_off_c, 3, 61, 0
7, 53520, Note_on_c, 3, 51, 88
7, 53578, Note_off_c, 3, 51, 0
7, 53580, Note_on_c, 3, 55, 88
7, 53638, Note_off_c, 3, 55, 0
7, 53640, Note_on_c, 3, 58, 88
7, 53698, Note_off_c, 3, 58, 0
7, 53700, Note_on_c, 3, 61, 88
7, 53758, Note_off_c, 3, 61, 0
7, 53820, Note_on_c, 3, 60, 88
7, 53878, Note_off_c, 3, 60, 0
7, 53880, Note_on_c, 3, 58, 88
7, 53938, Note_off_c, 3, 58, 0
7, 53940, Note_on_c, 3, 60, 88
7, 53998, Note_off_c, 3, 60, 0
7, 54000, Note_on_c, 3, 56, 88
7, 54058, Note_off_c, 3, 56, 0
7, 54060, Note_on_c, 3, 60, 88
7, 54118, Note_off_c, 3, 60, 0
7, 54120, Note_on_c, 3, 54, 88
7, 54178, Note_off_c, 3, 54, 0
7, 54180, Note_on_c, 3, 60, 88
7, 54238, Note_off_c, 3, 60, 0
7, 54240, Note_on_c, 3, 53, 88
7, 54298, Note_off_c, 3, 53, 0
7, 54300, Note_on_c, 3, 60, 88
7, 54358, Note_off_c, 3, 60, 0
7, 54360, Note_on_c, 3, 51, 88
7, 54418, Note_off_c, 3, 51, 0
7, 54420, Note_on_c, 3, 60, 88
7, 54478, Note_off_c, 3, 60, 0
7, 54480, Note_on_c, 3, 49, 88
7, 54538, Note_off_c, 3, 49, 0
7, 54540, Note_on_c, 3, 53, 88
7, 54598, Note_off_c, 3, 53, 0
7, 54600, Note_on_c, 3, 56, 88
7, 54658, Note_off_c, 3, 56, 0
7, 54660, Note_on_c, 3, 60, 88
7, 54718, Note_off_c, 3, 60, 0
7, 54720, Note_on_c, 3, 50, 88
7, 54778, Note_off_c, 3, 50, 0
7, 54780, Note_on_c, 3, 53, 88
7, 54838, Note_off_c, 3, 53, 0
7, 54840, Note_on_c, 3, 56, 88
7, 54898, Note_off_c, 3, 56, 0
7, 54900, Note_on_c, 3, 58, 88
7, 54958, Note_off_c, 3, 58, 0
7, 54960, Note_on_c, 3, 51, 88
7, 55018, Note_off_c, 3, 51, 0
7, 55020, Note_on_c, 3, 55, 88
7, 55078, Note_off_c, 3, 55, 0
7, 55080, Note_on_c, 3, 58, 88
7, 55138, Note_off_c, 3, 58, 0
7, 55140, Note_on_c, 3, 61, 88
7, 55198, Note_off_c, 3, 61, 0
7, 55200, Note_on_c, 3, 52, 88
7, 55258, Note_off_c, 3, 52, 0
7, 55260, Note_on_c, 3, 55, 88
7, 55318, Note_off_c, 3, 55, 0
7, 55320, Note_on_c, 3, 58, 88
7, 55378, Note_off_c, 3, 58, 0
7, 55380, Note_on_c, 3, 60, 88
7, 55438, Note_off_c, 3, 60, 0
7, 55440, Note_on_c, 3, 53, 88
7, 55498, Note_off_c, 3, 53, 0
7, 55500, Note_on_c, 3, 56, 88
7, 55558, Note_off_c, 3, 56, 0
7, 55560, Note_on_c, 3, 60, 88
7, 55618, Note_off_c, 3, 60, 0
7, 55620, Note_on_c, 3, 64, 88
7, 55678, Note_off_c, 3, 64, 0
7, 55680, Note_on_c, 3, 65, 88
7, 55796, Note_off_c, 3, 65, 0
7, 55800, Note_on_c, 3, 68, 88
7, 55916, Note_off_c, 3, 68, 0
7, 55920, Note_on_c, 3, 58, 88
7, 56036, Note_off_c, 3, 58, 0
7, 56040, Note_on_c, 3, 60, 88
7, 56156, Note_off_c, 3, 60, 0
7, 56160, Note_on_c, 3, 61, 88
7, 56276, Note_off_c, 3, 61, 0
7, 56280, Note_on_c, 3, 58, 88
7, 56396, Note_off_c, 3, 58, 0
7, 56400, Note_on_c, 3, 60, 88
7, 56516, Note_off_c, 3, 60, 0
7, 56520, Note_on_c, 3, 48, 88
7, 56636, Note_off_c, 3, 48, 0
7, 56760, Note_on_c, 3, 53, 88
7, 56876, Note_off_c, 3, 53, 0
7, 56880, Note_on_c, 3, 53, 88
7, 56996, Note_off_c, 3, 53, 0
7, 57000, Note_on_c, 3, 52, 88
7, 57116, Note_off_c, 3, 52, 0
7, 57240, Note_on_c, 3, 51, 88
7, 57356, Note_off_c, 3, 51, 0
7, 57360, Note_on_c, 3, 51, 88
7, 57594, Note_off_c, 3, 51, 0
7, 57720, Note_on_c, 3, 49, 88
7, 57836, Note_off_c, 3, 49, 0
7, 57840, Note_on_c, 3, 49, 88
7, 57956, Note_off_c, 3, 49, 0
7, 57960, Note_on_c, 3, 48, 88
7, 58076, Note_off_c, 3, 48, 0
7, 58200, Note_on_c, 3, 46, 88
7, 58316, Note_off_c, 3, 46, 0
7, 58320, Note_on_c, 3, 46, 88
7, 58436, Note_off_c, 3, 46, 0
7, 58440, Note_on_c, 3, 45, 88
7, 58556, Note_off_c, 3, 45, 0
7, 58620, Note_on_c, 3, 58, 88
7, 58678, Note_off_c, 3, 58, 0
7, 58680, Note_on_c, 3, 60, 88
7, 58738, Note_off_c, 3, 60, 0
7, 58740, Note_on_c, 3, 61, 88
7, 58798, Note_off_c, 3, 61, 0
7, 58860, Note_on_c, 3, 60, 88
7, 58918, Note_off_c, 3, 60, 0
7, 58920, Note_on_c, 3, 58, 88
7, 58978, Note_off_c, 3, 58, 0
7, 58980, Note_on_c, 3, 56, 88
7, 59038, Note_off_c, 3, 56, 0
7, 59100, Note_on_c, 3, 55, 88
7, 59158, Note_off_c, 3, 55, 0
7, 59160, Note_on_c, 3, 56, 88
7, 59218, Note_off_c, 3, 56, 0
7, 59220, Note_on_c, 3, 58, 88
7, 59278, Note_off_c, 3, 58, 0
7, 59340, Note_on_c, 3, 56, 88
7, 59398, Note_off_c, 3, 56, 0
7, 59400, Note_on_c, 3, 55, 88
7, 59458, Note_off_c, 3, 55, 0
7, 59460, Note_on_c, 3, 53, 88
7, 59518, Note_off_c, 3, 53, 0
7, 59520, Note_on_c, 3, 52, 88
7, 59636, Note_off_c, 3, 52, 0
7, 59640, Note_on_c, 3, 60, 88
7, 59756, Note_off_c, 3, 60, 0
7, 59760, Note_on_c, 3, 53, 88
7, 59876, Note_off_c, 3, 53, 0
7, 59880, Note_on_c, 3, 60, 88
7, 59996, Note_off_c, 3, 60, 0
7, 60000, Note_on_c, 3, 49, 88
7, 60116, Note_off_c, 3, 49, 0
7, 60120, Note_on_c, 3, 59, 88
7, 60236, Note_off_c, 3, 59, 0
7, 60240, Note_on_c, 3, 48, 88
7, 60356, Note_off_c, 3, 48, 0
7, 60360, Note_on_c, 3, 60, 88
7, 60476, Note_off_c, 3, 60, 0
7, 60480, Note_on_c, 3, 53, 88
7, 60714, Note_off_c, 3, 53, 0
7, 60720, Note_on_c, 3, 58, 88
7, 60954, Note_off_c, 3, 58, 0
7, 60960, Note_on_c, 3, 61, 88
7, 61194, Note_off_c, 3, 61, 0
7, 61200, Note_on_c, 3, 55, 88
7, 61434, Note_off_c, 3, 55, 0
7, 61440, Note_on_c, 3, 56, 88
7, 61674, Note_off_c, 3, 56, 0
7, 61680, Note_on_c, 3, 61, 88
7, 61796, Note_off_c, 3, 61, 0
7, 61800, Note_on_c, 3, 58, 88
7, 61916, Note_off_c, 3, 58, 0
7, 61920, Note_on_c, 3, 60, 88
7, 62036, Note_off_c, 3, 60, 0
7, 62040, Note_on_c, 3, 48, 88
7, 62156, Note_off_c, 3, 48, 0
7, 62160, Note_on_c, 3, 49, 88
7, 62276, Note_off_c, 3, 49, 0
7, 62400, Note_on_c, 3, 61, 88
7, 62516, Note_off_c, 3, 61, 0
7, 62520, Note_on_c, 3, 49, 88
7, 62636, Note_off_c, 3, 49, 0
7, 62640, Note_on_c, 3, 48, 88
7, 62756, Note_off_c, 3, 48, 0
7, 62760, Note_on_c, 3, 60, 88
7, 62876, Note_off_c, 3, 60, 0
7, 62880, Note_on_c, 3, 58, 88
7, 62996, Note_off_c, 3, 58, 0
7, 63000, Note_on_c, 3, 46, 88
7, 63116, Note_off_c, 3, 46, 0
7, 63120, Note_on_c, 3, 44, 88
7, 63178, Note_off_c, 3, 44, 0
7, 63180, Note_on_c, 3, 48, 88
7, 63238, Note_off_c, 3, 48, 0
7, 63240, Note_on_c, 3, 53, 88
7, 63298, Note_off_c, 3, 53, 0
7, 63300, Note_on_c, 3, 55, 88
7, 63358, Note_off_c, 3, 55, 0
7, 63360, Note_on_c, 3, 57, 88
7, 63476, Note_off_c, 3, 57, 0
7, 63480, Note_on_c, 3, 53, 88
7, 63596, Note_off_c, 3, 53, 0
7, 63600, Note_on_c, 3, 46, 88
7, 63834, Note_off_c, 3, 46, 0
7, 63960, Note_on_c, 3, 51, 88
7, 64076, Note_off_c, 3, 51, 0
7, 64080, Note_on_c, 3, 44, 88
7, 64314, Note_off_c, 3, 44, 0
7, 64440, Note_on_c, 3, 49, 88
7, 64556, Note_off_c, 3, 49, 0
7, 64560, Note_on_c, 3, 43, 88
7, 64794, Note_off_c, 3, 43, 0
7, 64920, Note_on_c, 3, 48, 88
7, 65036, Note_off_c, 3, 48, 0
7, 65040, Note_on_c, 3, 41, 88
7, 65156, Note_off_c, 3, 41, 0
7, 65160, Note_on_c, 3, 44, 88
7, 65276, Note_off_c, 3, 44, 0
7, 65280, Note_on_c, 3, 48, 88
7, 65396, Note_off_c, 3, 48, 0
7, 65400, Note_on_c, 3, 51, 88
7, 65516, Note_off_c, 3, 51, 0
7, 65520, Note_on_c, 3, 49, 88
7, 65636, Note_off_c, 3, 49, 0
7, 65640, Note_on_c, 3, 41, 88
7, 65756, Note_off_c, 3, 41, 0
7, 65760, Note_on_c, 3, 39, 88
7, 65876, Note_off_c, 3, 39, 0
7, 65880, Note_on_c, 3, 48, 88
7, 65996, Note_off_c, 3, 48, 0
7, 66000, Note_on_c, 3, 46, 88
7, 66116, Note_off_c, 3, 46, 0
7, 66120, Note_on_c, 3, 37, 88
7, 66236, Note_off_c, 3, 37, 0
7, 66240, Note_on_c, 3, 36, 88
7, 66356, Note_off_c, 3, 36, 0
7, 66360, Note_on_c, 3, 48, 88
7, 66476, Note_off_c, 3, 48, 0
7, 66480, Note_on_c, 3, 47, 88
7, 66596, Note_off_c, 3, 47, 0
7, 66720, Note_on_c, 3, 48, 88
7, 66954, Note_off_c, 3, 48, 0
7, 66960, Note_on_c, 3, 53, 88
7, 67194, Note_off_c, 3, 53, 0
7, 67194, End_track
0, 0, End_of_file
