0, 0, Header, 1, 7, 240
1, 0, Start_track
1, 0, Time_signature, 3, 2, 24, 8
1, 0, Tempo, 833333
1, 0, SMPTE_offset, 64, 0, 0, 0, 93
1, 0, End_track
2, 0, Start_track
2, 0, Title_t, "(C) & (P) 1993"
2, 127, End_track
3, 0, Start_track
3, 0, Title_t, "CCARH,Stanford"
3, 0, End_track
4, 0, Start_track
4, 0, Title_t, "Track 1"
4, 0, Program_c, 0, 6
4, 0, Note_on_c, 0, 73, 88
4, 146, Note_off_c, 0, 73, 0
4, 150, Note_on_c, 0, 71, 88
4, 179, Note_off_c, 0, 71, 0
4, 180, Note_on_c, 0, 70, 88
4, 209, Note_off_c, 0, 70, 0
4, 210, Note_on_c, 0, 68, 88
4, 225, Note_off_c, 0, 68, 0
4, 240, Note_on_c, 0, 68, 88
4, 354, Note_off_c, 0, 68, 0
4, 358, Note_on_c, 0, 66, 88
4, 595, Note_off_c, 0, 66, 0
4, 660, Note_on_c, 0, 78, 88
4, 718, Note_off_c, 0, 78, 0
4, 720, Note_on_c, 0, 77, 88
4, 895, Note_off_c, 0, 77, 0
4, 900, Note_on_c, 0, 78, 88
4, 929, Note_off_c, 0, 78, 0
4, 930, Note_on_c, 0, 80, 88
4, 959, Note_off_c, 0, 80, 0
4, 960, Note_on_c, 0, 73, 88
4, 1313, Note_off_c, 0, 73, 0
4, 1380, Note_on_c, 0, 78, 88
4, 1438, Note_off_c, 0, 78, 0
4, 1440, Note_on_c, 0, 71, 88
4, 1615, Note_off_c, 0, 71, 0
4, 1620, Note_on_c, 0, 75, 88
4, 1678, Note_off_c, 0, 75, 0
4, 1680, Note_on_c, 0, 68, 88
4, 1855, Note_off_c, 0, 68, 0
4, 1860, Note_on_c, 0, 71, 88
4, 1918, Note_off_c, 0, 71, 0
4, 1920, Note_on_c, 0, 65, 88
4, 2095, Note_off_c, 0, 65, 0
4, 2100, Note_on_c, 0, 73, 88
4, 2158, Note_off_c, 0, 73, 0
4, 2160, Note_on_c, 0, 70, 88
4, 2218, Note_off_c, 0, 70, 0
4, 2220, Note_on_c, 0, 73, 88
4, 2278, Note_off_c, 0, 73, 0
4, 2280, Note_on_c, 0, 66, 88
4, 2338, Note_off_c, 0, 66, 0
4, 2340, Note_on_c, 0, 68, 88
4, 2398, Note_off_c, 0, 68, 0
4, 2400, Note_on_c, 0, 70, 88
4, 2458, Note_off_c, 0, 70, 0
4, 2460, Note_on_c, 0, 66, 88
4, 2518, Note_off_c, 0, 66, 0
4, 2520, Note_on_c, 0, 73, 88
4, 2578, Note_off_c, 0, 73, 0
4, 2580, Note_on_c, 0, 70, 88
4, 2638, Note_off_c, 0, 70, 0
4, 2640, Note_on_c, 0, 66, 88
4, 2698, Note_off_c, 0, 66, 0
4, 2700, Note_on_c, 0, 70, 88
4, 2758, Note_off_c, 0, 70, 0
4, 2760, Note_on_c, 0, 68, 88
4, 2818, Note_off_c, 0, 68, 0
4, 2820, Note_on_c, 0, 66, 88
4, 2878, Note_off_c, 0, 66, 0
4, 2880, Note_on_c, 0, 68, 88
4, 2938, Note_off_c, 0, 68, 0
4, 2940, Note_on_c, 0, 73, 88
4, 2998, Note_off_c, 0, 73, 0
4, 3000, Note_on_c, 0, 65, 88
4, 3058, Note_off_c, 0, 65, 0
4, 3060, Note_on_c, 0, 66, 88
4, 3118, Note_off_c, 0, 66, 0
4, 3120, Note_on_c, 0, 68, 88
4, 3178, Note_off_c, 0, 68, 0
4, 3180, Note_on_c, 0, 65, 88
4, 3238, Note_off_c, 0, 65, 0
4, 3240, Note_on_c, 0, 73, 88
4, 3298, Note_off_c, 0, 73, 0
4, 3300, Note_on_c, 0, 68, 88
4, 3358, Note_off_c, 0, 68, 0
4, 3360, Note_on_c, 0, 65, 88
4, 3418, Note_off_c, 0, 65, 0
4, 3420, Note_on_c, 0, 68, 88
4, 3478, Note_off_c, 0, 68, 0
4, 3480, Note_on_c, 0, 66, 88
4, 3538, Note_off_c, 0, 66, 0
4, 3540, Note_on_c, 0, 65, 88
4, 3598, Note_off_c, 0, 65, 0
4, 3600, Note_on_c, 0, 66, 88
4, 3658, Note_off_c, 0, 66, 0
4, 3660, Note_on_c, 0, 70, 88
4, 3718, Note_off_c, 0, 70, 0
4, 3720, Note_on_c, 0, 63, 88
4, 3778, Note_off_c, 0, 63, 0
4, 3780, Note_on_c, 0, 65, 88
4, 3838, Note_off_c, 0, 65, 0
4, 3840, Note_on_c, 0, 66, 88
4, 3898, Note_off_c, 0, 66, 0
4, 3900, Note_on_c, 0, 63, 88
4, 3958, Note_off_c, 0, 63, 0
4, 3960, Note_on_c, 0, 70, 88
4, 4018, Note_off_c, 0, 70, 0
4, 4020, Note_on_c, 0, 66, 88
4, 4078, Note_off_c, 0, 66, 0
4, 4080, Note_on_c, 0, 63, 88
4, 4138, Note_off_c, 0, 63, 0
4, 4140, Note_on_c, 0, 66, 88
4, 4198, Note_off_c, 0, 66, 0
4, 4200, Note_on_c, 0, 65, 88
4, 4258, Note_off_c, 0, 65, 0
4, 4260, Note_on_c, 0, 63, 88
4, 4318, Note_off_c, 0, 63, 0
4, 4320, Note_on_c, 0, 65, 88
4, 4378, Note_off_c, 0, 65, 0
4, 4380, Note_on_c, 0, 68, 88
4, 4438, Note_off_c, 0, 68, 0
4, 4440, Note_on_c, 0, 61, 88
4, 4498, Note_off_c, 0, 61, 0
4, 4500, Note_on_c, 0, 63, 88
4, 4558, Note_off_c, 0, 63, 0
4, 4560, Note_on_c, 0, 65, 88
4, 4618, Note_off_c, 0, 65, 0
4, 4620, Note_on_c, 0, 61, 88
4, 4678, Note_off_c, 0, 61, 0
4, 4680, Note_on_c, 0, 68, 88
4, 4738, Note_off_c, 0, 68, 0
4, 4740, Note_on_c, 0, 65, 88
4, 4798, Note_off_c, 0, 65, 0
4, 4800, Note_on_c, 0, 61, 88
4, 4858, Note_off_c, 0, 61, 0
4, 4860, Note_on_c, 0, 71, 88
4, 4918, Note_off_c, 0, 71, 0
4, 4920, Note_on_c, 0, 70, 88
4, 4978, Note_off_c, 0, 70, 0
4, 4980, Note_on_c, 0, 68, 88
4, 5038, Note_off_c, 0, 68, 0
4, 5040, Note_on_c, 0, 70, 88
4, 5098, Note_off_c, 0, 70, 0
4, 5100, Note_on_c, 0, 73, 88
4, 5158, Note_off_c, 0, 73, 0
4, 5160, Note_on_c, 0, 66, 88
4, 5218, Note_off_c, 0, 66, 0
4, 5220, Note_on_c, 0, 68, 88
4, 5278, Note_off_c, 0, 68, 0
4, 5280, Note_on_c, 0, 70, 88
4, 5338, Note_off_c, 0, 70, 0
4, 5340, Note_on_c, 0, 66, 88
4, 5398, Note_off_c, 0, 66, 0
4, 5400, Note_on_c, 0, 73, 88
4, 5458, Note_off_c, 0, 73, 0
4, 5460, Note_on_c, 0, 70, 88
4, 5518, Note_off_c, 0, 70, 0
4, 5520, Note_on_c, 0, 66, 88
4, 5578, Note_off_c, 0, 66, 0
4, 5580, Note_on_c, 0, 68, 88
4, 5638, Note_off_c, 0, 68, 0
4, 5640, Note_on_c, 0, 66, 88
4, 5698, Note_off_c, 0, 66, 0
4, 5700, Note_on_c, 0, 65, 88
4, 5758, Note_off_c, 0, 65, 0
4, 5760, Note_on_c, 0, 63, 88
4, 5818, Note_off_c, 0, 63, 0
4, 5820, Note_on_c, 0, 70, 88
4, 5878, Note_off_c, 0, 70, 0
4, 5880, Note_on_c, 0, 63, 88
4, 5938, Note_off_c, 0, 63, 0
4, 5940, Note_on_c, 0, 65, 88
4, 5998, Note_off_c, 0, 65, 0
4, 6000, Note_on_c, 0, 67, 88
4, 6058, Note_off_c, 0, 67, 0
4, 6060, Note_on_c, 0, 63, 88
4, 6118, Note_off_c, 0, 63, 0
4, 6120, Note_on_c, 0, 70, 88
4, 6178, Note_off_c, 0, 70, 0
4, 6180, Note_on_c, 0, 67, 88
4, 6238, Note_off_c, 0, 67, 0
4, 6240, Note_on_c, 0, 63, 88
4, 6298, Note_off_c, 0, 63, 0
4, 6300, Note_on_c, 0, 73, 88
4, 6358, Note_off_c, 0, 73, 0
4, 6360, Note_on_c, 0, 72, 88
4, 6418, Note_off_c, 0, 72, 0
4, 6420, Note_on_c, 0, 70, 88
4, 6478, Note_off_c, 0, 70, 0
4, 6480, Note_on_c, 0, 72, 88
4, 6538, Note_off_c, 0, 72, 0
4, 6540, Note_on_c, 0, 75, 88
4, 6598, Note_off_c, 0, 75, 0
4, 6600, Note_on_c, 0, 68, 88
4, 6658, Note_off_c, 0, 68, 0
4, 6660, Note_on_c, 0, 70, 88
4, 6718, Note_off_c, 0, 70, 0
4, 6720, Note_on_c, 0, 72, 88
4, 6778, Note_off_c, 0, 72, 0
4, 6780, Note_on_c, 0, 68, 88
4, 6838, Note_off_c, 0, 68, 0
4, 6840, Note_on_c, 0, 75, 88
4, 6898, Note_off_c, 0, 75, 0
4, 6900, Note_on_c, 0, 72, 88
4, 6958, Note_off_c, 0, 72, 0
4, 6960, Note_on_c, 0, 68, 88
4, 7018, Note_off_c, 0, 68, 0
4, 7020, Note_on_c, 0, 70, 88
4, 7078, Note_off_c, 0, 70, 0
4, 7080, Note_on_c, 0, 68, 88
4, 7138, Note_off_c, 0, 68, 0
4, 7140, Note_on_c, 0, 66, 88
4, 7198, Note_off_c, 0, 66, 0
4, 7200, Note_on_c, 0, 65, 88
4, 7258, Note_off_c, 0, 65, 0
4, 7260, Note_on_c, 0, 72, 88
4, 7318, Note_off_c, 0, 72, 0
4, 7320, Note_on_c, 0, 65, 88
4, 7378, Note_off_c, 0, 65, 0
4, 7380, Note_on_c, 0, 67, 88
4, 7438, Note_off_c, 0, 67, 0
4, 7440, Note_on_c, 0, 69, 88
4, 7498, Note_off_c, 0, 69, 0
4, 7500, Note_on_c, 0, 65, 88
4, 7558, Note_off_c, 0, 65, 0
4, 7560, Note_on_c, 0, 72, 88
4, 7618, Note_off_c, 0, 72, 0
4, 7620, Note_on_c, 0, 69, 88
4, 7678, Note_off_c, 0, 69, 0
4, 7680, Note_on_c, 0, 65, 88
4, 7738, Note_off_c, 0, 65, 0
4, 7740, Note_on_c, 0, 75, 88
4, 7798, Note_off_c, 0, 75, 0
4, 7800, Note_on_c, 0, 73, 88
4, 7858, Note_off_c, 0, 73, 0
4, 7860, Note_on_c, 0, 72, 88
4, 7918, Note_off_c, 0, 72, 0
4, 7920, Note_on_c, 0, 73, 88
4, 8095, Note_off_c, 0, 73, 0
4, 8100, Note_on_c, 0, 70, 88
4, 8158, Note_off_c, 0, 70, 0
4, 8160, Note_on_c, 0, 78, 88
4, 8542, Note_off_c, 0, 78, 0
4, 8550, Note_on_c, 0, 77, 88
4, 8579, Note_off_c, 0, 77, 0
4, 8580, Note_on_c, 0, 75, 88
4, 8609, Note_off_c, 0, 75, 0
4, 8610, Note_on_c, 0, 73, 88
4, 8639, Note_off_c, 0, 73, 0
4, 8640, Note_on_c, 0, 75, 88
4, 8815, Note_off_c, 0, 75, 0
4, 8820, Note_on_c, 0, 72, 88
4, 8878, Note_off_c, 0, 72, 0
4, 8880, Note_on_c, 0, 80, 88
4, 9262, Note_off_c, 0, 80, 0
4, 9270, Note_on_c, 0, 78, 88
4, 9299, Note_off_c, 0, 78, 0
4, 9300, Note_on_c, 0, 77, 88
4, 9329, Note_off_c, 0, 77, 0
4, 9330, Note_on_c, 0, 75, 88
4, 9359, Note_off_c, 0, 75, 0
4, 9360, Note_on_c, 0, 77, 88
4, 9535, Note_off_c, 0, 77, 0
4, 9540, Note_on_c, 0, 73, 88
4, 9598, Note_off_c, 0, 73, 0
4, 9600, Note_on_c, 0, 82, 88
4, 9746, Note_off_c, 0, 82, 0
4, 9750, Note_on_c, 0, 80, 88
4, 9779, Note_off_c, 0, 80, 0
4, 9780, Note_on_c, 0, 78, 88
4, 9809, Note_off_c, 0, 78, 0
4, 9810, Note_on_c, 0, 77, 88
4, 9839, Note_off_c, 0, 77, 0
4, 9840, Note_on_c, 0, 75, 88
4, 10015, Note_off_c, 0, 75, 0
4, 10020, Note_on_c, 0, 78, 88
4, 10078, Note_off_c, 0, 78, 0
4, 10080, Note_on_c, 0, 73, 88
4, 10138, Note_off_c, 0, 73, 0
4, 10140, Note_on_c, 0, 72, 88
4, 10227, Note_off_c, 0, 72, 0
4, 10230, Note_on_c, 0, 75, 88
4, 10259, Note_off_c, 0, 75, 0
4, 10260, Note_on_c, 0, 77, 88
4, 10289, Note_off_c, 0, 77, 0
4, 10290, Note_on_c, 0, 78, 88
4, 10319, Note_off_c, 0, 78, 0
4, 10320, Note_on_c, 0, 80, 88
4, 10495, Note_off_c, 0, 80, 0
4, 10500, Note_on_c, 0, 72, 88
4, 10558, Note_off_c, 0, 72, 0
4, 10560, Note_on_c, 0, 73, 88
4, 10735, Note_off_c, 0, 73, 0
4, 10740, Note_on_c, 0, 68, 88
4, 10798, Note_off_c, 0, 68, 0
4, 10800, Note_on_c, 0, 70, 88
4, 10946, Note_off_c, 0, 70, 0
4, 10950, Note_on_c, 0, 68, 88
4, 10979, Note_off_c, 0, 68, 0
4, 10980, Note_on_c, 0, 66, 88
4, 11009, Note_off_c, 0, 66, 0
4, 11010, Note_on_c, 0, 65, 88
4, 11039, Note_off_c, 0, 65, 0
4, 11040, Note_on_c, 0, 63, 88
4, 11215, Note_off_c, 0, 63, 0
4, 11220, Note_on_c, 0, 73, 88
4, 11278, Note_off_c, 0, 73, 0
4, 11280, Note_on_c, 0, 68, 88
4, 11455, Note_off_c, 0, 68, 0
4, 11460, Note_on_c, 0, 72, 88
4, 11518, Note_off_c, 0, 72, 0
4, 11520, Note_on_c, 0, 73, 88
4, 11578, Note_off_c, 0, 73, 0
4, 11580, Note_on_c, 0, 68, 88
4, 11638, Note_off_c, 0, 68, 0
4, 11640, Note_on_c, 0, 73, 88
4, 11698, Note_off_c, 0, 73, 0
4, 11700, Note_on_c, 0, 75, 88
4, 11758, Note_off_c, 0, 75, 0
4, 11760, Note_on_c, 0, 77, 88
4, 11818, Note_off_c, 0, 77, 0
4, 11820, Note_on_c, 0, 73, 88
4, 11878, Note_off_c, 0, 73, 0
4, 11880, Note_on_c, 0, 80, 88
4, 11938, Note_off_c, 0, 80, 0
4, 11940, Note_on_c, 0, 77, 88
4, 11998, Note_off_c, 0, 77, 0
4, 12000, Note_on_c, 0, 73, 88
4, 12058, Note_off_c, 0, 73, 0
4, 12060, Note_on_c, 0, 77, 88
4, 12118, Note_off_c, 0, 77, 0
4, 12120, Note_on_c, 0, 75, 88
4, 12178, Note_off_c, 0, 75, 0
4, 12180, Note_on_c, 0, 73, 88
4, 12238, Note_off_c, 0, 73, 0
4, 12240, Note_on_c, 0, 75, 88
4, 12298, Note_off_c, 0, 75, 0
4, 12300, Note_on_c, 0, 80, 88
4, 12358, Note_off_c, 0, 80, 0
4, 12360, Note_on_c, 0, 68, 88
4, 12418, Note_off_c, 0, 68, 0
4, 12420, Note_on_c, 0, 70, 88
4, 12478, Note_off_c, 0, 70, 0
4, 12480, Note_on_c, 0, 72, 88
4, 12538, Note_off_c, 0, 72, 0
4, 12540, Note_on_c, 0, 68, 88
4, 12598, Note_off_c, 0, 68, 0
4, 12600, Note_on_c, 0, 75, 88
4, 12658, Note_off_c, 0, 75, 0
4, 12660, Note_on_c, 0, 72, 88
4, 12718, Note_off_c, 0, 72, 0
4, 12720, Note_on_c, 0, 68, 88
4, 12778, Note_off_c, 0, 68, 0
4, 12780, Note_on_c, 0, 78, 88
4, 12838, Note_off_c, 0, 78, 0
4, 12840, Note_on_c, 0, 77, 88
4, 12898, Note_off_c, 0, 77, 0
4, 12900, Note_on_c, 0, 75, 88
4, 12958, Note_off_c, 0, 75, 0
4, 12960, Note_on_c, 0, 73, 88
4, 13018, Note_off_c, 0, 73, 0
4, 13020, Note_on_c, 0, 68, 88
4, 13078, Note_off_c, 0, 68, 0
4, 13080, Note_on_c, 0, 73, 88
4, 13138, Note_off_c, 0, 73, 0
4, 13140, Note_on_c, 0, 75, 88
4, 13198, Note_off_c, 0, 75, 0
4, 13200, Note_on_c, 0, 77, 88
4, 13258, Note_off_c, 0, 77, 0
4, 13260, Note_on_c, 0, 73, 88
4, 13318, Note_off_c, 0, 73, 0
4, 13320, Note_on_c, 0, 80, 88
4, 13378, Note_off_c, 0, 80, 0
4, 13380, Note_on_c, 0, 77, 88
4, 13438, Note_off_c, 0, 77, 0
4, 13440, Note_on_c, 0, 73, 88
4, 13498, Note_off_c, 0, 73, 0
4, 13500, Note_on_c, 0, 83, 88
4, 13558, Note_off_c, 0, 83, 0
4, 13560, Note_on_c, 0, 82, 88
4, 13618, Note_off_c, 0, 82, 0
4, 13620, Note_on_c, 0, 80, 88
4, 13678, Note_off_c, 0, 80, 0
4, 13680, Note_on_c, 0, 78, 88
4, 13826, Note_off_c, 0, 78, 0
4, 13830, Note_on_c, 0, 71, 88
4, 13859, Note_off_c, 0, 71, 0
4, 13860, Note_on_c, 0, 70, 88
4, 13889, Note_off_c, 0, 70, 0
4, 13890, Note_on_c, 0, 68, 88
4, 13919, Note_off_c, 0, 68, 0
4, 13920, Note_on_c, 0, 66, 88
4, 14273, Note_off_c, 0, 66, 0
4, 14340, Note_on_c, 0, 78, 88
4, 14398, Note_off_c, 0, 78, 0
4, 14400, Note_on_c, 0, 77, 88
4, 14575, Note_off_c, 0, 77, 0
4, 14580, Note_on_c, 0, 78, 88
4, 14609, Note_off_c, 0, 78, 0
4, 14610, Note_on_c, 0, 80, 88
4, 14639, Note_off_c, 0, 80, 0
4, 14640, Note_on_c, 0, 73, 88
4, 14934, Note_off_c, 0, 73, 0
4, 14940, Note_on_c, 0, 75, 88
4, 14998, Note_off_c, 0, 75, 0
4, 15000, Note_on_c, 0, 73, 88
4, 15058, Note_off_c, 0, 73, 0
4, 15060, Note_on_c, 0, 71, 88
4, 15118, Note_off_c, 0, 71, 0
4, 15120, Note_on_c, 0, 70, 88
4, 15295, Note_off_c, 0, 70, 0
4, 15300, Note_on_c, 0, 68, 88
4, 15329, Note_off_c, 0, 68, 0
4, 15330, Note_on_c, 0, 66, 88
4, 15359, Note_off_c, 0, 66, 0
4, 15360, Note_on_c, 0, 76, 88
4, 15535, Note_off_c, 0, 76, 0
4, 15540, Note_on_c, 0, 73, 88
4, 15598, Note_off_c, 0, 73, 0
4, 15600, Note_on_c, 0, 70, 88
4, 15775, Note_off_c, 0, 70, 0
4, 15780, Note_on_c, 0, 76, 88
4, 15838, Note_off_c, 0, 76, 0
4, 15840, Note_on_c, 0, 75, 88
4, 15898, Note_off_c, 0, 75, 0
4, 15900, Note_on_c, 0, 78, 88
4, 15958, Note_off_c, 0, 78, 0
4, 15960, Note_on_c, 0, 71, 88
4, 16018, Note_off_c, 0, 71, 0
4, 16020, Note_on_c, 0, 73, 88
4, 16078, Note_off_c, 0, 73, 0
4, 16080, Note_on_c, 0, 75, 88
4, 16138, Note_off_c, 0, 75, 0
4, 16140, Note_on_c, 0, 71, 88
4, 16198, Note_off_c, 0, 71, 0
4, 16200, Note_on_c, 0, 78, 88
4, 16258, Note_off_c, 0, 78, 0
4, 16260, Note_on_c, 0, 75, 88
4, 16318, Note_off_c, 0, 75, 0
4, 16320, Note_on_c, 0, 71, 88
4, 16378, Note_off_c, 0, 71, 0
4, 16380, Note_on_c, 0, 75, 88
4, 16438, Note_off_c, 0, 75, 0
4, 16440, Note_on_c, 0, 73, 88
4, 16498, Note_off_c, 0, 73, 0
4, 16500, Note_on_c, 0, 71, 88
4, 16558, Note_off_c, 0, 71, 0
4, 16560, Note_on_c, 0, 73, 88
4, 16618, Note_off_c, 0, 73, 0
4, 16620, Note_on_c, 0, 78, 88
4, 16678, Note_off_c, 0, 78, 0
4, 16680, Note_on_c, 0, 70, 88
4, 16738, Note_off_c, 0, 70, 0
4, 16740, Note_on_c, 0, 71, 88
4, 16798, Note_off_c, 0, 71, 0
4, 16800, Note_on_c, 0, 73, 88
4, 16858, Note_off_c, 0, 73, 0
4, 16860, Note_on_c, 0, 70, 88
4, 16918, Note_off_c, 0, 70, 0
4, 16920, Note_on_c, 0, 78, 88
4, 16978, Note_off_c, 0, 78, 0
4, 16980, Note_on_c, 0, 73, 88
4, 17038, Note_off_c, 0, 73, 0
4, 17040, Note_on_c, 0, 70, 88
4, 17098, Note_off_c, 0, 70, 0
4, 17100, Note_on_c, 0, 73, 88
4, 17158, Note_off_c, 0, 73, 0
4, 17160, Note_on_c, 0, 71, 88
4, 17218, Note_off_c, 0, 71, 0
4, 17220, Note_on_c, 0, 70, 88
4, 17278, Note_off_c, 0, 70, 0
4, 17280, Note_on_c, 0, 71, 88
4, 17338, Note_off_c, 0, 71, 0
4, 17340, Note_on_c, 0, 75, 88
4, 17398, Note_off_c, 0, 75, 0
4, 17400, Note_on_c, 0, 68, 88
4, 17458, Note_off_c, 0, 68, 0
4, 17460, Note_on_c, 0, 70, 88
4, 17518, Note_off_c, 0, 70, 0
4, 17520, Note_on_c, 0, 71, 88
4, 17578, Note_off_c, 0, 71, 0
4, 17580, Note_on_c, 0, 68, 88
4, 17638, Note_off_c, 0, 68, 0
4, 17640, Note_on_c, 0, 75, 88
4, 17698, Note_off_c, 0, 75, 0
4, 17700, Note_on_c, 0, 71, 88
4, 17758, Note_off_c, 0, 71, 0
4, 17760, Note_on_c, 0, 68, 88
4, 17818, Note_off_c, 0, 68, 0
4, 17820, Note_on_c, 0, 71, 88
4, 17878, Note_off_c, 0, 71, 0
4, 17880, Note_on_c, 0, 70, 88
4, 17938, Note_off_c, 0, 70, 0
4, 17940, Note_on_c, 0, 68, 88
4, 17998, Note_off_c, 0, 68, 0
4, 18000, Note_on_c, 0, 70, 88
4, 18175, Note_off_c, 0, 70, 0
4, 18180, Note_on_c, 0, 73, 88
4, 18238, Note_off_c, 0, 73, 0
4, 18240, Note_on_c, 0, 75, 88
4, 18262, Note_off_c, 0, 75, 0
4, 18263, Note_on_c, 0, 73, 88
4, 18284, Note_off_c, 0, 73, 0
4, 18285, Note_on_c, 0, 75, 88
4, 18307, Note_off_c, 0, 75, 0
4, 18308, Note_on_c, 0, 73, 88
4, 18329, Note_off_c, 0, 73, 0
4, 18330, Note_on_c, 0, 75, 88
4, 18352, Note_off_c, 0, 75, 0
4, 18353, Note_on_c, 0, 73, 88
4, 18374, Note_off_c, 0, 73, 0
4, 18375, Note_on_c, 0, 75, 88
4, 18397, Note_off_c, 0, 75, 0
4, 18398, Note_on_c, 0, 73, 88
4, 18419, Note_off_c, 0, 73, 0
4, 18420, Note_on_c, 0, 72, 88
4, 18449, Note_off_c, 0, 72, 0
4, 18450, Note_on_c, 0, 73, 88
4, 18479, Note_off_c, 0, 73, 0
4, 18480, Note_on_c, 0, 75, 88
4, 18502, Note_off_c, 0, 75, 0
4, 18503, Note_on_c, 0, 73, 88
4, 18524, Note_off_c, 0, 73, 0
4, 18525, Note_on_c, 0, 75, 88
4, 18547, Note_off_c, 0, 75, 0
4, 18548, Note_on_c, 0, 73, 88
4, 18569, Note_off_c, 0, 73, 0
4, 18570, Note_on_c, 0, 75, 88
4, 18592, Note_off_c, 0, 75, 0
4, 18593, Note_on_c, 0, 73, 88
4, 18614, Note_off_c, 0, 73, 0
4, 18615, Note_on_c, 0, 75, 88
4, 18637, Note_off_c, 0, 75, 0
4, 18638, Note_on_c, 0, 73, 88
4, 18659, Note_off_c, 0, 73, 0
4, 18660, Note_on_c, 0, 72, 88
4, 18689, Note_off_c, 0, 72, 0
4, 18690, Note_on_c, 0, 73, 88
4, 18719, Note_off_c, 0, 73, 0
4, 18720, Note_on_c, 0, 68, 88
4, 18895, Note_off_c, 0, 68, 0
4, 18900, Note_on_c, 0, 73, 88
4, 18958, Note_off_c, 0, 73, 0
4, 18960, Note_on_c, 0, 75, 88
4, 18982, Note_off_c, 0, 75, 0
4, 18983, Note_on_c, 0, 73, 88
4, 19004, Note_off_c, 0, 73, 0
4, 19005, Note_on_c, 0, 75, 88
4, 19027, Note_off_c, 0, 75, 0
4, 19028, Note_on_c, 0, 73, 88
4, 19049, Note_off_c, 0, 73, 0
4, 19050, Note_on_c, 0, 75, 88
4, 19072, Note_off_c, 0, 75, 0
4, 19073, Note_on_c, 0, 73, 88
4, 19094, Note_off_c, 0, 73, 0
4, 19095, Note_on_c, 0, 75, 88
4, 19117, Note_off_c, 0, 75, 0
4, 19118, Note_on_c, 0, 73, 88
4, 19139, Note_off_c, 0, 73, 0
4, 19140, Note_on_c, 0, 72, 88
4, 19169, Note_off_c, 0, 72, 0
4, 19170, Note_on_c, 0, 73, 88
4, 19199, Note_off_c, 0, 73, 0
4, 19200, Note_on_c, 0, 75, 88
4, 19222, Note_off_c, 0, 75, 0
4, 19223, Note_on_c, 0, 73, 88
4, 19244, Note_off_c, 0, 73, 0
4, 19245, Note_on_c, 0, 75, 88
4, 19267, Note_off_c, 0, 75, 0
4, 19268, Note_on_c, 0, 73, 88
4, 19289, Note_off_c, 0, 73, 0
4, 19290, Note_on_c, 0, 75, 88
4, 19312, Note_off_c, 0, 75, 0
4, 19313, Note_on_c, 0, 73, 88
4, 19334, Note_off_c, 0, 73, 0
4, 19335, Note_on_c, 0, 75, 88
4, 19357, Note_off_c, 0, 75, 0
4, 19358, Note_on_c, 0, 73, 88
4, 19379, Note_off_c, 0, 73, 0
4, 19380, Note_on_c, 0, 72, 88
4, 19409, Note_off_c, 0, 72, 0
4, 19410, Note_on_c, 0, 73, 88
4, 19439, Note_off_c, 0, 73, 0
4, 19440, Note_on_c, 0, 66, 88
4, 19615, Note_off_c, 0, 66, 0
4, 19620, Note_on_c, 0, 73, 88
4, 19678, Note_off_c, 0, 73, 0
4, 19680, Note_on_c, 0, 82, 88
4, 19855, Note_off_c, 0, 82, 0
4, 19860, Note_on_c, 0, 73, 88
4, 19905, Note_off_c, 0, 73, 0
4, 19920, Note_on_c, 0, 73, 88
4, 19944, Note_on_c, 0, 72, 88
4, 19944, Note_off_c, 0, 73, 0
4, 19968, Note_off_c, 0, 72, 0
4, 19969, Note_on_c, 0, 73, 88
4, 19992, Note_off_c, 0, 73, 0
4, 19993, Note_on_c, 0, 72, 88
4, 20017, Note_off_c, 0, 72, 0
4, 20018, Note_on_c, 0, 73, 88
4, 20041, Note_off_c, 0, 73, 0
4, 20042, Note_on_c, 0, 72, 88
4, 20098, Note_off_c, 0, 72, 0
4, 20100, Note_on_c, 0, 73, 88
4, 20158, Note_off_c, 0, 73, 0
4, 20160, Note_on_c, 0, 73, 88
4, 20513, Note_off_c, 0, 73, 0
4, 20550, Note_on_c, 0, 73, 88
4, 20579, Note_off_c, 0, 73, 0
4, 20580, Note_on_c, 0, 75, 88
4, 20609, Note_off_c, 0, 75, 0
4, 20610, Note_on_c, 0, 77, 88
4, 20639, Note_off_c, 0, 77, 0
4, 20640, Note_on_c, 0, 78, 88
4, 20662, Note_off_c, 0, 78, 0
4, 20663, Note_on_c, 0, 77, 88
4, 20684, Note_off_c, 0, 77, 0
4, 20685, Note_on_c, 0, 78, 88
4, 20707, Note_off_c, 0, 78, 0
4, 20708, Note_on_c, 0, 77, 88
4, 20729, Note_off_c, 0, 77, 0
4, 20730, Note_on_c, 0, 78, 88
4, 20752, Note_off_c, 0, 78, 0
4, 20753, Note_on_c, 0, 77, 88
4, 20774, Note_off_c, 0, 77, 0
4, 20775, Note_on_c, 0, 78, 88
4, 20797, Note_off_c, 0, 78, 0
4, 20798, Note_on_c, 0, 77, 88
4, 20819, Note_off_c, 0, 77, 0
4, 20820, Note_on_c, 0, 75, 88
4, 20849, Note_off_c, 0, 75, 0
4, 20850, Note_on_c, 0, 77, 88
4, 20879, Note_off_c, 0, 77, 0
4, 20880, Note_on_c, 0, 78, 88
4, 20938, Note_off_c, 0, 78, 0
4, 20940, Note_on_c, 0, 73, 88
4, 20998, Note_off_c, 0, 73, 0
4, 21000, Note_on_c, 0, 66, 88
4, 21058, Note_off_c, 0, 66, 0
4, 21060, Note_on_c, 0, 68, 88
4, 21118, Note_off_c, 0, 68, 0
4, 21120, Note_on_c, 0, 70, 88
4, 21178, Note_off_c, 0, 70, 0
4, 21180, Note_on_c, 0, 66, 88
4, 21238, Note_off_c, 0, 66, 0
4, 21240, Note_on_c, 0, 73, 88
4, 21298, Note_off_c, 0, 73, 0
4, 21300, Note_on_c, 0, 70, 88
4, 21358, Note_off_c, 0, 70, 0
4, 21360, Note_on_c, 0, 64, 88
4, 21418, Note_off_c, 0, 64, 0
4, 21420, Note_on_c, 0, 68, 88
4, 21478, Note_off_c, 0, 68, 0
4, 21480, Note_on_c, 0, 66, 88
4, 21538, Note_off_c, 0, 66, 0
4, 21540, Note_on_c, 0, 64, 88
4, 21598, Note_off_c, 0, 64, 0
4, 21600, Note_on_c, 0, 63, 88
4, 21953, Note_off_c, 0, 63, 0
4, 21990, Note_on_c, 0, 75, 88
4, 22019, Note_off_c, 0, 75, 0
4, 22020, Note_on_c, 0, 74, 88
4, 22049, Note_off_c, 0, 74, 0
4, 22050, Note_on_c, 0, 75, 88
4, 22079, Note_off_c, 0, 75, 0
4, 22080, Note_on_c, 0, 77, 88
4, 22102, Note_off_c, 0, 77, 0
4, 22103, Note_on_c, 0, 75, 88
4, 22124, Note_off_c, 0, 75, 0
4, 22125, Note_on_c, 0, 77, 88
4, 22147, Note_off_c, 0, 77, 0
4, 22148, Note_on_c, 0, 75, 88
4, 22169, Note_off_c, 0, 75, 0
4, 22170, Note_on_c, 0, 77, 88
4, 22192, Note_off_c, 0, 77, 0
4, 22193, Note_on_c, 0, 75, 88
4, 22214, Note_off_c, 0, 75, 0
4, 22215, Note_on_c, 0, 77, 88
4, 22237, Note_off_c, 0, 77, 0
4, 22238, Note_on_c, 0, 75, 88
4, 22259, Note_off_c, 0, 75, 0
4, 22260, Note_on_c, 0, 74, 88
4, 22289, Note_off_c, 0, 74, 0
4, 22290, Note_on_c, 0, 75, 88
4, 22319, Note_off_c, 0, 75, 0
4, 22320, Note_on_c, 0, 77, 88
4, 22378, Note_off_c, 0, 77, 0
4, 22380, Note_on_c, 0, 71, 88
4, 22438, Note_off_c, 0, 71, 0
4, 22440, Note_on_c, 0, 65, 88
4, 22498, Note_off_c, 0, 65, 0
4, 22500, Note_on_c, 0, 66, 88
4, 22558, Note_off_c, 0, 66, 0
4, 22560, Note_on_c, 0, 68, 88
4, 22618, Note_off_c, 0, 68, 0
4, 22620, Note_on_c, 0, 65, 88
4, 22678, Note_off_c, 0, 65, 0
4, 22680, Note_on_c, 0, 71, 88
4, 22738, Note_off_c, 0, 71, 0
4, 22740, Note_on_c, 0, 68, 88
4, 22798, Note_off_c, 0, 68, 0
4, 22800, Note_on_c, 0, 63, 88
4, 22858, Note_off_c, 0, 63, 0
4, 22860, Note_on_c, 0, 66, 88
4, 22918, Note_off_c, 0, 66, 0
4, 22920, Note_on_c, 0, 65, 88
4, 22978, Note_off_c, 0, 65, 0
4, 22980, Note_on_c, 0, 63, 88
4, 23038, Note_off_c, 0, 63, 0
4, 23040, Note_on_c, 0, 62, 88
4, 23215, Note_off_c, 0, 62, 0
4, 23220, Note_on_c, 0, 63, 88
4, 23249, Note_off_c, 0, 63, 0
4, 23250, Note_on_c, 0, 65, 88
4, 23279, Note_off_c, 0, 65, 0
4, 23280, Note_on_c, 0, 58, 88
4, 23574, Note_off_c, 0, 58, 0
4, 23580, Note_on_c, 0, 68, 88
4, 23638, Note_off_c, 0, 68, 0
4, 23640, Note_on_c, 0, 66, 88
4, 23698, Note_off_c, 0, 66, 0
4, 23700, Note_on_c, 0, 65, 88
4, 23758, Note_off_c, 0, 65, 0
4, 23760, Note_on_c, 0, 63, 88
4, 23818, Note_off_c, 0, 63, 0
4, 23820, Note_on_c, 0, 66, 88
4, 23878, Note_off_c, 0, 66, 0
4, 23880, Note_on_c, 0, 70, 88
4, 23938, Note_off_c, 0, 70, 0
4, 23940, Note_on_c, 0, 66, 88
4, 23998, Note_off_c, 0, 66, 0
4, 24000, Note_on_c, 0, 75, 88
4, 24058, Note_off_c, 0, 75, 0
4, 24060, Note_on_c, 0, 70, 88
4, 24118, Note_off_c, 0, 70, 0
4, 24120, Note_on_c, 0, 78, 88
4, 24178, Note_off_c, 0, 78, 0
4, 24180, Note_on_c, 0, 75, 88
4, 24238, Note_off_c, 0, 75, 0
4, 24240, Note_on_c, 0, 70, 88
4, 24298, Note_off_c, 0, 70, 0
4, 24300, Note_on_c, 0, 75, 88
4, 24358, Note_off_c, 0, 75, 0
4, 24360, Note_on_c, 0, 74, 88
4, 24418, Note_off_c, 0, 74, 0
4, 24420, Note_on_c, 0, 72, 88
4, 24478, Note_off_c, 0, 72, 0
4, 24480, Note_on_c, 0, 74, 88
4, 24538, Note_off_c, 0, 74, 0
4, 24540, Note_on_c, 0, 77, 88
4, 24598, Note_off_c, 0, 77, 0
4, 24600, Note_on_c, 0, 70, 88
4, 24658, Note_off_c, 0, 70, 0
4, 24660, Note_on_c, 0, 72, 88
4, 24718, Note_off_c, 0, 72, 0
4, 24720, Note_on_c, 0, 74, 88
4, 24778, Note_off_c, 0, 74, 0
4, 24780, Note_on_c, 0, 70, 88
4, 24838, Note_off_c, 0, 70, 0
4, 24840, Note_on_c, 0, 80, 88
4, 24898, Note_off_c, 0, 80, 0
4, 24900, Note_on_c, 0, 77, 88
4, 24958, Note_off_c, 0, 77, 0
4, 24960, Note_on_c, 0, 74, 88
4, 25018, Note_off_c, 0, 74, 0
4, 25020, Note_on_c, 0, 83, 88
4, 25078, Note_off_c, 0, 83, 0
4, 25080, Note_on_c, 0, 82, 88
4, 25138, Note_off_c, 0, 82, 0
4, 25140, Note_on_c, 0, 80, 88
4, 25198, Note_off_c, 0, 80, 0
4, 25200, Note_on_c, 0, 78, 88
4, 25258, Note_off_c, 0, 78, 0
4, 25260, Note_on_c, 0, 82, 88
4, 25318, Note_off_c, 0, 82, 0
4, 25320, Note_on_c, 0, 75, 88
4, 25378, Note_off_c, 0, 75, 0
4, 25380, Note_on_c, 0, 77, 88
4, 25438, Note_off_c, 0, 77, 0
4, 25440, Note_on_c, 0, 78, 88
4, 25498, Note_off_c, 0, 78, 0
4, 25500, Note_on_c, 0, 75, 88
4, 25558, Note_off_c, 0, 75, 0
4, 25560, Note_on_c, 0, 82, 88
4, 25618, Note_off_c, 0, 82, 0
4, 25620, Note_on_c, 0, 78, 88
4, 25678, Note_off_c, 0, 78, 0
4, 25680, Note_on_c, 0, 75, 88
4, 25738, Note_off_c, 0, 75, 0
4, 25740, Note_on_c, 0, 78, 88
4, 25798, Note_off_c, 0, 78, 0
4, 25800, Note_on_c, 0, 77, 88
4, 25858, Note_off_c, 0, 77, 0
4, 25860, Note_on_c, 0, 75, 88
4, 25918, Note_off_c, 0, 75, 0
4, 25920, Note_on_c, 0, 77, 88
4, 25978, Note_off_c, 0, 77, 0
4, 25980, Note_on_c, 0, 82, 88
4, 26038, Note_off_c, 0, 82, 0
4, 26040, Note_on_c, 0, 70, 88
4, 26098, Note_off_c, 0, 70, 0
4, 26100, Note_on_c, 0, 72, 88
4, 26158, Note_off_c, 0, 72, 0
4, 26160, Note_on_c, 0, 74, 88
4, 26218, Note_off_c, 0, 74, 0
4, 26220, Note_on_c, 0, 70, 88
4, 26278, Note_off_c, 0, 70, 0
4, 26280, Note_on_c, 0, 77, 88
4, 26338, Note_off_c, 0, 77, 0
4, 26340, Note_on_c, 0, 74, 88
4, 26398, Note_off_c, 0, 74, 0
4, 26400, Note_on_c, 0, 70, 88
4, 26458, Note_off_c, 0, 70, 0
4, 26460, Note_on_c, 0, 80, 88
4, 26518, Note_off_c, 0, 80, 0
4, 26520, Note_on_c, 0, 78, 88
4, 26578, Note_off_c, 0, 78, 0
4, 26580, Note_on_c, 0, 77, 88
4, 26638, Note_off_c, 0, 77, 0
4, 26640, Note_on_c, 0, 78, 88
4, 26815, Note_off_c, 0, 78, 0
4, 26820, Note_on_c, 0, 74, 88
4, 26878, Note_off_c, 0, 74, 0
4, 26880, Note_on_c, 0, 75, 88
4, 27026, Note_off_c, 0, 75, 0
4, 27030, Note_on_c, 0, 66, 88
4, 27059, Note_off_c, 0, 66, 0
4, 27060, Note_on_c, 0, 65, 88
4, 27089, Note_off_c, 0, 65, 0
4, 27090, Note_on_c, 0, 63, 88
4, 27119, Note_off_c, 0, 63, 0
4, 27120, Note_on_c, 0, 70, 88
4, 27142, Note_off_c, 0, 70, 0
4, 27143, Note_on_c, 0, 69, 88
4, 27164, Note_off_c, 0, 69, 0
4, 27165, Note_on_c, 0, 70, 88
4, 27187, Note_off_c, 0, 70, 0
4, 27188, Note_on_c, 0, 69, 88
4, 27209, Note_off_c, 0, 69, 0
4, 27210, Note_on_c, 0, 70, 88
4, 27232, Note_off_c, 0, 70, 0
4, 27233, Note_on_c, 0, 69, 88
4, 27254, Note_off_c, 0, 69, 0
4, 27255, Note_on_c, 0, 70, 88
4, 27277, Note_off_c, 0, 70, 0
4, 27278, Note_on_c, 0, 69, 88
4, 27299, Note_off_c, 0, 69, 0
4, 27300, Note_on_c, 0, 67, 88
4, 27329, Note_off_c, 0, 67, 0
4, 27330, Note_on_c, 0, 69, 88
4, 27359, Note_off_c, 0, 69, 0
4, 27360, Note_on_c, 0, 70, 88
4, 27418, Note_off_c, 0, 70, 0
4, 27420, Note_on_c, 0, 65, 88
4, 27478, Note_off_c, 0, 65, 0
4, 27480, Note_on_c, 0, 70, 88
4, 27538, Note_off_c, 0, 70, 0
4, 27540, Note_on_c, 0, 72, 88
4, 27598, Note_off_c, 0, 72, 0
4, 27600, Note_on_c, 0, 73, 88
4, 27658, Note_off_c, 0, 73, 0
4, 27660, Note_on_c, 0, 70, 88
4, 27718, Note_off_c, 0, 70, 0
4, 27720, Note_on_c, 0, 77, 88
4, 27778, Note_off_c, 0, 77, 0
4, 27780, Note_on_c, 0, 73, 88
4, 27838, Note_off_c, 0, 73, 0
4, 27840, Note_on_c, 0, 82, 88
4, 27898, Note_off_c, 0, 82, 0
4, 27900, Note_on_c, 0, 80, 88
4, 27958, Note_off_c, 0, 80, 0
4, 27960, Note_on_c, 0, 78, 88
4, 28018, Note_off_c, 0, 78, 0
4, 28020, Note_on_c, 0, 77, 88
4, 28078, Note_off_c, 0, 77, 0
4, 28080, Note_on_c, 0, 75, 88
4, 28138, Note_off_c, 0, 75, 0
4, 28140, Note_on_c, 0, 74, 88
4, 28198, Note_off_c, 0, 74, 0
4, 28200, Note_on_c, 0, 75, 88
4, 28316, Note_off_c, 0, 75, 0
4, 28470, Note_on_c, 0, 75, 88
4, 28499, Note_off_c, 0, 75, 0
4, 28500, Note_on_c, 0, 77, 88
4, 28529, Note_off_c, 0, 77, 0
4, 28530, Note_on_c, 0, 79, 88
4, 28559, Note_off_c, 0, 79, 0
4, 28560, Note_on_c, 0, 80, 88
4, 28725, Note_off_c, 0, 80, 0
4, 28740, Note_on_c, 0, 80, 88
4, 28798, Note_off_c, 0, 80, 0
4, 28800, Note_on_c, 0, 80, 88
4, 28858, Note_off_c, 0, 80, 0
4, 28860, Note_on_c, 0, 77, 88
4, 28918, Note_off_c, 0, 77, 0
4, 28920, Note_on_c, 0, 74, 88
4, 28978, Note_off_c, 0, 74, 0
4, 28980, Note_on_c, 0, 75, 88
4, 29038, Note_off_c, 0, 75, 0
4, 29040, Note_on_c, 0, 77, 88
4, 29098, Note_off_c, 0, 77, 0
4, 29100, Note_on_c, 0, 74, 88
4, 29158, Note_off_c, 0, 74, 0
4, 29160, Note_on_c, 0, 68, 88
4, 29218, Note_off_c, 0, 68, 0
4, 29220, Note_on_c, 0, 71, 88
4, 29278, Note_off_c, 0, 71, 0
4, 29280, Note_on_c, 0, 63, 88
4, 29349, Note_off_c, 0, 63, 0
4, 29351, Note_on_c, 0, 62, 88
4, 29456, Note_off_c, 0, 62, 0
4, 29460, Note_on_c, 0, 71, 88
4, 29518, Note_off_c, 0, 71, 0
4, 29520, Note_on_c, 0, 70, 88
4, 29666, Note_off_c, 0, 70, 0
4, 29670, Note_on_c, 0, 68, 88
4, 29699, Note_off_c, 0, 68, 0
4, 29700, Note_on_c, 0, 66, 88
4, 29729, Note_off_c, 0, 66, 0
4, 29730, Note_on_c, 0, 65, 88
4, 29759, Note_off_c, 0, 65, 0
4, 29760, Note_on_c, 0, 63, 88
4, 30113, Note_off_c, 0, 63, 0
4, 30180, Note_on_c, 0, 75, 88
4, 30238, Note_off_c, 0, 75, 0
4, 30240, Note_on_c, 0, 75, 88
4, 30298, Note_off_c, 0, 75, 0
4, 30300, Note_on_c, 0, 74, 88
4, 30387, Note_off_c, 0, 74, 0
4, 30390, Note_on_c, 0, 75, 88
4, 30419, Note_off_c, 0, 75, 0
4, 30420, Note_on_c, 0, 77, 88
4, 30449, Note_off_c, 0, 77, 0
4, 30450, Note_on_c, 0, 78, 88
4, 30479, Note_off_c, 0, 78, 0
4, 30480, Note_on_c, 0, 80, 88
4, 30833, Note_off_c, 0, 80, 0
4, 30900, Note_on_c, 0, 82, 88
4, 30958, Note_off_c, 0, 82, 0
4, 30960, Note_on_c, 0, 80, 88
4, 31029, Note_off_c, 0, 80, 0
4, 31031, Note_on_c, 0, 78, 88
4, 31136, Note_off_c, 0, 78, 0
4, 31140, Note_on_c, 0, 77, 88
4, 31198, Note_off_c, 0, 77, 0
4, 31200, Note_on_c, 0, 75, 88
4, 31258, Note_off_c, 0, 75, 0
4, 31260, Note_on_c, 0, 74, 88
4, 31284, Note_off_c, 0, 74, 0
4, 31284, Note_on_c, 0, 75, 88
4, 31306, Note_off_c, 0, 75, 0
4, 31307, Note_on_c, 0, 74, 88
4, 31329, Note_off_c, 0, 74, 0
4, 31329, Note_on_c, 0, 75, 88
4, 31351, Note_off_c, 0, 75, 0
4, 31352, Note_on_c, 0, 74, 88
4, 31374, Note_off_c, 0, 74, 0
4, 31374, Note_on_c, 0, 75, 88
4, 31396, Note_off_c, 0, 75, 0
4, 31397, Note_on_c, 0, 74, 88
4, 31419, Note_off_c, 0, 74, 0
4, 31419, Note_on_c, 0, 75, 88
4, 31441, Note_off_c, 0, 75, 0
4, 31442, Note_on_c, 0, 74, 88
4, 31556, Note_off_c, 0, 74, 0
4, 31560, Note_on_c, 0, 75, 88
4, 31676, Note_off_c, 0, 75, 0
4, 31680, Note_on_c, 0, 75, 88
4, 31738, Note_off_c, 0, 75, 0
4, 31740, Note_on_c, 0, 70, 88
4, 31798, Note_off_c, 0, 70, 0
4, 31800, Note_on_c, 0, 66, 88
4, 31858, Note_off_c, 0, 66, 0
4, 31860, Note_on_c, 0, 68, 88
4, 31918, Note_off_c, 0, 68, 0
4, 31920, Note_on_c, 0, 70, 88
4, 31978, Note_off_c, 0, 70, 0
4, 31980, Note_on_c, 0, 66, 88
4, 32038, Note_off_c, 0, 66, 0
4, 32040, Note_on_c, 0, 75, 88
4, 32098, Note_off_c, 0, 75, 0
4, 32100, Note_on_c, 0, 70, 88
4, 32158, Note_off_c, 0, 70, 0
4, 32160, Note_on_c, 0, 66, 88
4, 32218, Note_off_c, 0, 66, 0
4, 32220, Note_on_c, 0, 68, 88
4, 32278, Note_off_c, 0, 68, 0
4, 32280, Note_on_c, 0, 66, 88
4, 32338, Note_off_c, 0, 66, 0
4, 32340, Note_on_c, 0, 65, 88
4, 32398, Note_off_c, 0, 65, 0
4, 32400, Note_on_c, 0, 67, 88
4, 32458, Note_off_c, 0, 67, 0
4, 32460, Note_on_c, 0, 75, 88
4, 32518, Note_off_c, 0, 75, 0
4, 32520, Note_on_c, 0, 67, 88
4, 32578, Note_off_c, 0, 67, 0
4, 32580, Note_on_c, 0, 68, 88
4, 32638, Note_off_c, 0, 68, 0
4, 32640, Note_on_c, 0, 70, 88
4, 32698, Note_off_c, 0, 70, 0
4, 32700, Note_on_c, 0, 67, 88
4, 32758, Note_off_c, 0, 67, 0
4, 32760, Note_on_c, 0, 75, 88
4, 32818, Note_off_c, 0, 75, 0
4, 32820, Note_on_c, 0, 70, 88
4, 32878, Note_off_c, 0, 70, 0
4, 32880, Note_on_c, 0, 67, 88
4, 32938, Note_off_c, 0, 67, 0
4, 32940, Note_on_c, 0, 70, 88
4, 32998, Note_off_c, 0, 70, 0
4, 33000, Note_on_c, 0, 68, 88
4, 33058, Note_off_c, 0, 68, 0
4, 33060, Note_on_c, 0, 67, 88
4, 33118, Note_off_c, 0, 67, 0
4, 33120, Note_on_c, 0, 68, 88
4, 33178, Note_off_c, 0, 68, 0
4, 33180, Note_on_c, 0, 75, 88
4, 33238, Note_off_c, 0, 75, 0
4, 33240, Note_on_c, 0, 68, 88
4, 33298, Note_off_c, 0, 68, 0
4, 33300, Note_on_c, 0, 70, 88
4, 33358, Note_off_c, 0, 70, 0
4, 33360, Note_on_c, 0, 71, 88
4, 33418, Note_off_c, 0, 71, 0
4, 33420, Note_on_c, 0, 68, 88
4, 33478, Note_off_c, 0, 68, 0
4, 33480, Note_on_c, 0, 75, 88
4, 33538, Note_off_c, 0, 75, 0
4, 33540, Note_on_c, 0, 71, 88
4, 33598, Note_off_c, 0, 71, 0
4, 33600, Note_on_c, 0, 68, 88
4, 33658, Note_off_c, 0, 68, 0
4, 33660, Note_on_c, 0, 71, 88
4, 33718, Note_off_c, 0, 71, 0
4, 33720, Note_on_c, 0, 70, 88
4, 33778, Note_off_c, 0, 70, 0
4, 33780, Note_on_c, 0, 68, 88
4, 33838, Note_off_c, 0, 68, 0
4, 33840, Note_on_c, 0, 70, 88
4, 33898, Note_off_c, 0, 70, 0
4, 33900, Note_on_c, 0, 75, 88
4, 33958, Note_off_c, 0, 75, 0
4, 33960, Note_on_c, 0, 70, 88
4, 34018, Note_off_c, 0, 70, 0
4, 34020, Note_on_c, 0, 71, 88
4, 34078, Note_off_c, 0, 71, 0
4, 34080, Note_on_c, 0, 73, 88
4, 34138, Note_off_c, 0, 73, 0
4, 34140, Note_on_c, 0, 70, 88
4, 34198, Note_off_c, 0, 70, 0
4, 34200, Note_on_c, 0, 76, 88
4, 34258, Note_off_c, 0, 76, 0
4, 34260, Note_on_c, 0, 73, 88
4, 34318, Note_off_c, 0, 73, 0
4, 34320, Note_on_c, 0, 70, 88
4, 34378, Note_off_c, 0, 70, 0
4, 34380, Note_on_c, 0, 73, 88
4, 34438, Note_off_c, 0, 73, 0
4, 34440, Note_on_c, 0, 71, 88
4, 34498, Note_off_c, 0, 71, 0
4, 34500, Note_on_c, 0, 70, 88
4, 34558, Note_off_c, 0, 70, 0
4, 34560, Note_on_c, 0, 71, 88
4, 34735, Note_off_c, 0, 71, 0
4, 34740, Note_on_c, 0, 67, 88
4, 34798, Note_off_c, 0, 67, 0
4, 34800, Note_on_c, 0, 68, 88
4, 34975, Note_off_c, 0, 68, 0
4, 34980, Note_on_c, 0, 71, 88
4, 35038, Note_off_c, 0, 71, 0
4, 35040, Note_on_c, 0, 75, 88
4, 35186, Note_off_c, 0, 75, 0
4, 35190, Note_on_c, 0, 80, 88
4, 35219, Note_off_c, 0, 80, 0
4, 35220, Note_on_c, 0, 78, 88
4, 35249, Note_off_c, 0, 78, 0
4, 35250, Note_on_c, 0, 77, 88
4, 35279, Note_off_c, 0, 77, 0
4, 35280, Note_on_c, 0, 78, 88
4, 35455, Note_off_c, 0, 78, 0
4, 35460, Note_on_c, 0, 67, 88
4, 35518, Note_off_c, 0, 67, 0
4, 35520, Note_on_c, 0, 68, 88
4, 35695, Note_off_c, 0, 68, 0
4, 35700, Note_on_c, 0, 72, 88
4, 35758, Note_off_c, 0, 72, 0
4, 35760, Note_on_c, 0, 75, 88
4, 35906, Note_off_c, 0, 75, 0
4, 35910, Note_on_c, 0, 78, 88
4, 35939, Note_off_c, 0, 78, 0
4, 35940, Note_on_c, 0, 77, 88
4, 35969, Note_off_c, 0, 77, 0
4, 35970, Note_on_c, 0, 75, 88
4, 35999, Note_off_c, 0, 75, 0
4, 36000, Note_on_c, 0, 77, 88
4, 36175, Note_off_c, 0, 77, 0
4, 36180, Note_on_c, 0, 67, 88
4, 36238, Note_off_c, 0, 67, 0
4, 36240, Note_on_c, 0, 68, 88
4, 36415, Note_off_c, 0, 68, 0
4, 36420, Note_on_c, 0, 73, 88
4, 36478, Note_off_c, 0, 73, 0
4, 36480, Note_on_c, 0, 77, 88
4, 36626, Note_off_c, 0, 77, 0
4, 36630, Note_on_c, 0, 68, 88
4, 36659, Note_off_c, 0, 68, 0
4, 36660, Note_on_c, 0, 66, 88
4, 36689, Note_off_c, 0, 66, 0
4, 36690, Note_on_c, 0, 65, 88
4, 36719, Note_off_c, 0, 65, 0
4, 36720, Note_on_c, 0, 66, 88
4, 36895, Note_off_c, 0, 66, 0
4, 36900, Note_on_c, 0, 70, 88
4, 36958, Note_off_c, 0, 70, 0
4, 36960, Note_on_c, 0, 63, 88
4, 37135, Note_off_c, 0, 63, 0
4, 37140, Note_on_c, 0, 73, 88
4, 37185, Note_off_c, 0, 73, 0
4, 37200, Note_on_c, 0, 73, 88
4, 37222, Note_off_c, 0, 73, 0
4, 37223, Note_on_c, 0, 72, 88
4, 37244, Note_off_c, 0, 72, 0
4, 37245, Note_on_c, 0, 73, 88
4, 37267, Note_off_c, 0, 73, 0
4, 37268, Note_on_c, 0, 72, 88
4, 37289, Note_off_c, 0, 72, 0
4, 37290, Note_on_c, 0, 73, 88
4, 37312, Note_off_c, 0, 73, 0
4, 37313, Note_on_c, 0, 72, 88
4, 37334, Note_off_c, 0, 72, 0
4, 37335, Note_on_c, 0, 73, 88
4, 37357, Note_off_c, 0, 73, 0
4, 37358, Note_on_c, 0, 72, 88
4, 37379, Note_off_c, 0, 72, 0
4, 37380, Note_on_c, 0, 70, 88
4, 37409, Note_off_c, 0, 70, 0
4, 37410, Note_on_c, 0, 72, 88
4, 37439, Note_off_c, 0, 72, 0
4, 37440, Note_on_c, 0, 73, 88
4, 37498, Note_off_c, 0, 73, 0
4, 37500, Note_on_c, 0, 68, 88
4, 37558, Note_off_c, 0, 68, 0
4, 37560, Note_on_c, 0, 65, 88
4, 37618, Note_off_c, 0, 65, 0
4, 37620, Note_on_c, 0, 66, 88
4, 37678, Note_off_c, 0, 66, 0
4, 37680, Note_on_c, 0, 68, 88
4, 37738, Note_off_c, 0, 68, 0
4, 37740, Note_on_c, 0, 65, 88
4, 37798, Note_off_c, 0, 65, 0
4, 37800, Note_on_c, 0, 73, 88
4, 37858, Note_off_c, 0, 73, 0
4, 37860, Note_on_c, 0, 68, 88
4, 37918, Note_off_c, 0, 68, 0
4, 37920, Note_on_c, 0, 65, 88
4, 37978, Note_off_c, 0, 65, 0
4, 37980, Note_on_c, 0, 66, 88
4, 38038, Note_off_c, 0, 66, 0
4, 38040, Note_on_c, 0, 65, 88
4, 38098, Note_off_c, 0, 65, 0
4, 38100, Note_on_c, 0, 63, 88
4, 38158, Note_off_c, 0, 63, 0
4, 38160, Note_on_c, 0, 61, 88
4, 38218, Note_off_c, 0, 61, 0
4, 38220, Note_on_c, 0, 68, 88
4, 38278, Note_off_c, 0, 68, 0
4, 38280, Note_on_c, 0, 65, 88
4, 38338, Note_off_c, 0, 65, 0
4, 38340, Note_on_c, 0, 66, 88
4, 38398, Note_off_c, 0, 66, 0
4, 38400, Note_on_c, 0, 68, 88
4, 38458, Note_off_c, 0, 68, 0
4, 38460, Note_on_c, 0, 65, 88
4, 38518, Note_off_c, 0, 65, 0
4, 38520, Note_on_c, 0, 73, 88
4, 38578, Note_off_c, 0, 73, 0
4, 38580, Note_on_c, 0, 68, 88
4, 38638, Note_off_c, 0, 68, 0
4, 38640, Note_on_c, 0, 65, 88
4, 38698, Note_off_c, 0, 65, 0
4, 38700, Note_on_c, 0, 68, 88
4, 38758, Note_off_c, 0, 68, 0
4, 38760, Note_on_c, 0, 66, 88
4, 38818, Note_off_c, 0, 66, 0
4, 38820, Note_on_c, 0, 65, 88
4, 38878, Note_off_c, 0, 65, 0
4, 38880, Note_on_c, 0, 66, 88
4, 38938, Note_off_c, 0, 66, 0
4, 38940, Note_on_c, 0, 73, 88
4, 38998, Note_off_c, 0, 73, 0
4, 39000, Note_on_c, 0, 66, 88
4, 39058, Note_off_c, 0, 66, 0
4, 39060, Note_on_c, 0, 68, 88
4, 39118, Note_off_c, 0, 68, 0
4, 39120, Note_on_c, 0, 70, 88
4, 39178, Note_off_c, 0, 70, 0
4, 39180, Note_on_c, 0, 66, 88
4, 39238, Note_off_c, 0, 66, 0
4, 39240, Note_on_c, 0, 73, 88
4, 39298, Note_off_c, 0, 73, 0
4, 39300, Note_on_c, 0, 70, 88
4, 39358, Note_off_c, 0, 70, 0
4, 39360, Note_on_c, 0, 66, 88
4, 39418, Note_off_c, 0, 66, 0
4, 39420, Note_on_c, 0, 70, 88
4, 39478, Note_off_c, 0, 70, 0
4, 39480, Note_on_c, 0, 68, 88
4, 39538, Note_off_c, 0, 68, 0
4, 39540, Note_on_c, 0, 66, 88
4, 39598, Note_off_c, 0, 66, 0
4, 39600, Note_on_c, 0, 68, 88
4, 39658, Note_off_c, 0, 68, 0
4, 39660, Note_on_c, 0, 73, 88
4, 39718, Note_off_c, 0, 73, 0
4, 39720, Note_on_c, 0, 68, 88
4, 39778, Note_off_c, 0, 68, 0
4, 39780, Note_on_c, 0, 70, 88
4, 39838, Note_off_c, 0, 70, 0
4, 39840, Note_on_c, 0, 71, 88
4, 39898, Note_off_c, 0, 71, 0
4, 39900, Note_on_c, 0, 68, 88
4, 39958, Note_off_c, 0, 68, 0
4, 39960, Note_on_c, 0, 75, 88
4, 40018, Note_off_c, 0, 75, 0
4, 40020, Note_on_c, 0, 71, 88
4, 40078, Note_off_c, 0, 71, 0
4, 40080, Note_on_c, 0, 68, 88
4, 40138, Note_off_c, 0, 68, 0
4, 40140, Note_on_c, 0, 71, 88
4, 40198, Note_off_c, 0, 71, 0
4, 40200, Note_on_c, 0, 70, 88
4, 40258, Note_off_c, 0, 70, 0
4, 40260, Note_on_c, 0, 68, 88
4, 40318, Note_off_c, 0, 68, 0
4, 40320, Note_on_c, 0, 70, 88
4, 40378, Note_off_c, 0, 70, 0
4, 40380, Note_on_c, 0, 73, 88
4, 40409, Note_off_c, 0, 73, 0
4, 40410, Note_on_c, 0, 71, 88
4, 40439, Note_off_c, 0, 71, 0
4, 40440, Note_on_c, 0, 70, 88
4, 40469, Note_off_c, 0, 70, 0
4, 40470, Note_on_c, 0, 68, 88
4, 40499, Note_off_c, 0, 68, 0
4, 40500, Note_on_c, 0, 66, 88
4, 40529, Note_off_c, 0, 66, 0
4, 40530, Note_on_c, 0, 65, 88
4, 40559, Note_off_c, 0, 65, 0
4, 40560, Note_on_c, 0, 66, 88
4, 40913, Note_off_c, 0, 66, 0
4, 40980, Note_on_c, 0, 78, 88
4, 41038, Note_off_c, 0, 78, 0
4, 41040, Note_on_c, 0, 77, 88
4, 41215, Note_off_c, 0, 77, 0
4, 41220, Note_on_c, 0, 78, 88
4, 41249, Note_off_c, 0, 78, 0
4, 41250, Note_on_c, 0, 80, 88
4, 41279, Note_off_c, 0, 80, 0
4, 41280, Note_on_c, 0, 73, 88
4, 41633, Note_off_c, 0, 73, 0
4, 41700, Note_on_c, 0, 78, 88
4, 41758, Note_off_c, 0, 78, 0
4, 41760, Note_on_c, 0, 71, 88
4, 41935, Note_off_c, 0, 71, 0
4, 41940, Note_on_c, 0, 75, 88
4, 41998, Note_off_c, 0, 75, 0
4, 42000, Note_on_c, 0, 68, 88
4, 42175, Note_off_c, 0, 68, 0
4, 42180, Note_on_c, 0, 71, 88
4, 42238, Note_off_c, 0, 71, 0
4, 42240, Note_on_c, 0, 65, 88
4, 42415, Note_off_c, 0, 65, 0
4, 42420, Note_on_c, 0, 73, 88
4, 42478, Note_off_c, 0, 73, 0
4, 42480, Note_on_c, 0, 70, 88
4, 42538, Note_off_c, 0, 70, 0
4, 42540, Note_on_c, 0, 73, 88
4, 42598, Note_off_c, 0, 73, 0
4, 42600, Note_on_c, 0, 66, 88
4, 42658, Note_off_c, 0, 66, 0
4, 42660, Note_on_c, 0, 68, 88
4, 42718, Note_off_c, 0, 68, 0
4, 42720, Note_on_c, 0, 70, 88
4, 42778, Note_off_c, 0, 70, 0
4, 42780, Note_on_c, 0, 66, 88
4, 42838, Note_off_c, 0, 66, 0
4, 42840, Note_on_c, 0, 73, 88
4, 42898, Note_off_c, 0, 73, 0
4, 42900, Note_on_c, 0, 70, 88
4, 42958, Note_off_c, 0, 70, 0
4, 42960, Note_on_c, 0, 66, 88
4, 43018, Note_off_c, 0, 66, 0
4, 43020, Note_on_c, 0, 76, 88
4, 43078, Note_off_c, 0, 76, 0
4, 43080, Note_on_c, 0, 75, 88
4, 43138, Note_off_c, 0, 75, 0
4, 43140, Note_on_c, 0, 73, 88
4, 43198, Note_off_c, 0, 73, 0
4, 43200, Note_on_c, 0, 75, 88
4, 43258, Note_off_c, 0, 75, 0
4, 43260, Note_on_c, 0, 78, 88
4, 43318, Note_off_c, 0, 78, 0
4, 43320, Note_on_c, 0, 71, 88
4, 43378, Note_off_c, 0, 71, 0
4, 43380, Note_on_c, 0, 73, 88
4, 43438, Note_off_c, 0, 73, 0
4, 43440, Note_on_c, 0, 75, 88
4, 43498, Note_off_c, 0, 75, 0
4, 43500, Note_on_c, 0, 71, 88
4, 43558, Note_off_c, 0, 71, 0
4, 43560, Note_on_c, 0, 78, 88
4, 43618, Note_off_c, 0, 78, 0
4, 43620, Note_on_c, 0, 75, 88
4, 43678, Note_off_c, 0, 75, 0
4, 43680, Note_on_c, 0, 70, 88
4, 43738, Note_off_c, 0, 70, 0
4, 43740, Note_on_c, 0, 73, 88
4, 43798, Note_off_c, 0, 73, 0
4, 43800, Note_on_c, 0, 71, 88
4, 43858, Note_off_c, 0, 71, 0
4, 43860, Note_on_c, 0, 70, 88
4, 43918, Note_off_c, 0, 70, 0
4, 43920, Note_on_c, 0, 68, 88
4, 43978, Note_off_c, 0, 68, 0
4, 43980, Note_on_c, 0, 75, 88
4, 44038, Note_off_c, 0, 75, 0
4, 44040, Note_on_c, 0, 68, 88
4, 44098, Note_off_c, 0, 68, 0
4, 44100, Note_on_c, 0, 70, 88
4, 44158, Note_off_c, 0, 70, 0
4, 44160, Note_on_c, 0, 72, 88
4, 44218, Note_off_c, 0, 72, 0
4, 44220, Note_on_c, 0, 68, 88
4, 44278, Note_off_c, 0, 68, 0
4, 44280, Note_on_c, 0, 75, 88
4, 44338, Note_off_c, 0, 75, 0
4, 44340, Note_on_c, 0, 72, 88
4, 44398, Note_off_c, 0, 72, 0
4, 44400, Note_on_c, 0, 68, 88
4, 44458, Note_off_c, 0, 68, 0
4, 44460, Note_on_c, 0, 78, 88
4, 44518, Note_off_c, 0, 78, 0
4, 44520, Note_on_c, 0, 77, 88
4, 44578, Note_off_c, 0, 77, 0
4, 44580, Note_on_c, 0, 75, 88
4, 44638, Note_off_c, 0, 75, 0
4, 44640, Note_on_c, 0, 77, 88
4, 44698, Note_off_c, 0, 77, 0
4, 44700, Note_on_c, 0, 80, 88
4, 44758, Note_off_c, 0, 80, 0
4, 44760, Note_on_c, 0, 73, 88
4, 44818, Note_off_c, 0, 73, 0
4, 44820, Note_on_c, 0, 75, 88
4, 44878, Note_off_c, 0, 75, 0
4, 44880, Note_on_c, 0, 77, 88
4, 44938, Note_off_c, 0, 77, 0
4, 44940, Note_on_c, 0, 73, 88
4, 44998, Note_off_c, 0, 73, 0
4, 45000, Note_on_c, 0, 80, 88
4, 45058, Note_off_c, 0, 80, 0
4, 45060, Note_on_c, 0, 77, 88
4, 45118, Note_off_c, 0, 77, 0
4, 45120, Note_on_c, 0, 71, 88
4, 45178, Note_off_c, 0, 71, 0
4, 45180, Note_on_c, 0, 75, 88
4, 45238, Note_off_c, 0, 75, 0
4, 45240, Note_on_c, 0, 73, 88
4, 45298, Note_off_c, 0, 73, 0
4, 45300, Note_on_c, 0, 71, 88
4, 45358, Note_off_c, 0, 71, 0
4, 45360, Note_on_c, 0, 70, 88
4, 45418, Note_off_c, 0, 70, 0
4, 45420, Note_on_c, 0, 77, 88
4, 45478, Note_off_c, 0, 77, 0
4, 45480, Note_on_c, 0, 70, 88
4, 45538, Note_off_c, 0, 70, 0
4, 45540, Note_on_c, 0, 72, 88
4, 45598, Note_off_c, 0, 72, 0
4, 45600, Note_on_c, 0, 74, 88
4, 45658, Note_off_c, 0, 74, 0
4, 45660, Note_on_c, 0, 70, 88
4, 45718, Note_off_c, 0, 70, 0
4, 45720, Note_on_c, 0, 77, 88
4, 45778, Note_off_c, 0, 77, 0
4, 45780, Note_on_c, 0, 74, 88
4, 45838, Note_off_c, 0, 74, 0
4, 45840, Note_on_c, 0, 70, 88
4, 45898, Note_off_c, 0, 70, 0
4, 45900, Note_on_c, 0, 80, 88
4, 45958, Note_off_c, 0, 80, 0
4, 45960, Note_on_c, 0, 78, 88
4, 46018, Note_off_c, 0, 78, 0
4, 46020, Note_on_c, 0, 77, 88
4, 46078, Note_off_c, 0, 77, 0
4, 46080, Note_on_c, 0, 78, 88
4, 46255, Note_off_c, 0, 78, 0
4, 46260, Note_on_c, 0, 75, 88
4, 46318, Note_off_c, 0, 75, 0
4, 46320, Note_on_c, 0, 83, 88
4, 46702, Note_off_c, 0, 83, 0
4, 46710, Note_on_c, 0, 82, 88
4, 46739, Note_off_c, 0, 82, 0
4, 46740, Note_on_c, 0, 80, 88
4, 46769, Note_off_c, 0, 80, 0
4, 46770, Note_on_c, 0, 78, 88
4, 46799, Note_off_c, 0, 78, 0
4, 46800, Note_on_c, 0, 80, 88
4, 46975, Note_off_c, 0, 80, 0
4, 46980, Note_on_c, 0, 83, 88
4, 47038, Note_off_c, 0, 83, 0
4, 47040, Note_on_c, 0, 73, 88
4, 47334, Note_off_c, 0, 73, 0
4, 47340, Note_on_c, 0, 75, 88
4, 47369, Note_off_c, 0, 75, 0
4, 47370, Note_on_c, 0, 77, 88
4, 47399, Note_off_c, 0, 77, 0
4, 47400, Note_on_c, 0, 78, 88
4, 47458, Note_off_c, 0, 78, 0
4, 47460, Note_on_c, 0, 80, 88
4, 47518, Note_off_c, 0, 80, 0
4, 47520, Note_on_c, 0, 82, 88
4, 47695, Note_off_c, 0, 82, 0
4, 47700, Note_on_c, 0, 80, 88
4, 47758, Note_off_c, 0, 80, 0
4, 47760, Note_on_c, 0, 78, 88
4, 47818, Note_off_c, 0, 78, 0
4, 47820, Note_on_c, 0, 77, 88
4, 47844, Note_off_c, 0, 77, 0
4, 47844, Note_on_c, 0, 78, 88
4, 47866, Note_off_c, 0, 78, 0
4, 47867, Note_on_c, 0, 77, 88
4, 47889, Note_off_c, 0, 77, 0
4, 47889, Note_on_c, 0, 78, 88
4, 47911, Note_off_c, 0, 78, 0
4, 47912, Note_on_c, 0, 77, 88
4, 47934, Note_off_c, 0, 77, 0
4, 47934, Note_on_c, 0, 78, 88
4, 47956, Note_off_c, 0, 78, 0
4, 47957, Note_on_c, 0, 77, 88
4, 47979, Note_off_c, 0, 77, 0
4, 47979, Note_on_c, 0, 78, 88
4, 48001, Note_off_c, 0, 78, 0
4, 48002, Note_on_c, 0, 77, 88
4, 48116, Note_off_c, 0, 77, 0
4, 48120, Note_on_c, 0, 78, 88
4, 48236, Note_off_c, 0, 78, 0
4, 48240, Note_on_c, 0, 78, 88
4, 48298, Note_off_c, 0, 78, 0
4, 48300, Note_on_c, 0, 82, 88
4, 48358, Note_off_c, 0, 82, 0
4, 48360, Note_on_c, 0, 73, 88
4, 48418, Note_off_c, 0, 73, 0
4, 48420, Note_on_c, 0, 77, 88
4, 48478, Note_off_c, 0, 77, 0
4, 48480, Note_on_c, 0, 78, 88
4, 48538, Note_off_c, 0, 78, 0
4, 48540, Note_on_c, 0, 73, 88
4, 48598, Note_off_c, 0, 73, 0
4, 48600, Note_on_c, 0, 82, 88
4, 48658, Note_off_c, 0, 82, 0
4, 48660, Note_on_c, 0, 78, 88
4, 48718, Note_off_c, 0, 78, 0
4, 48720, Note_on_c, 0, 73, 88
4, 48778, Note_off_c, 0, 73, 0
4, 48780, Note_on_c, 0, 80, 88
4, 48838, Note_off_c, 0, 80, 0
4, 48840, Note_on_c, 0, 78, 88
4, 48898, Note_off_c, 0, 78, 0
4, 48900, Note_on_c, 0, 77, 88
4, 48958, Note_off_c, 0, 77, 0
4, 48960, Note_on_c, 0, 78, 88
4, 49018, Note_off_c, 0, 78, 0
4, 49020, Note_on_c, 0, 73, 88
4, 49078, Note_off_c, 0, 73, 0
4, 49080, Note_on_c, 0, 70, 88
4, 49138, Note_off_c, 0, 70, 0
4, 49140, Note_on_c, 0, 71, 88
4, 49198, Note_off_c, 0, 71, 0
4, 49200, Note_on_c, 0, 73, 88
4, 49258, Note_off_c, 0, 73, 0
4, 49260, Note_on_c, 0, 70, 88
4, 49318, Note_off_c, 0, 70, 0
4, 49320, Note_on_c, 0, 78, 88
4, 49378, Note_off_c, 0, 78, 0
4, 49380, Note_on_c, 0, 73, 88
4, 49438, Note_off_c, 0, 73, 0
4, 49440, Note_on_c, 0, 70, 88
4, 49498, Note_off_c, 0, 70, 0
4, 49500, Note_on_c, 0, 71, 88
4, 49558, Note_off_c, 0, 71, 0
4, 49560, Note_on_c, 0, 70, 88
4, 49618, Note_off_c, 0, 70, 0
4, 49620, Note_on_c, 0, 68, 88
4, 49678, Note_off_c, 0, 68, 0
4, 49680, Note_on_c, 0, 66, 88
4, 49738, Note_off_c, 0, 66, 0
4, 49740, Note_on_c, 0, 69, 88
4, 49798, Note_off_c, 0, 69, 0
4, 49800, Note_on_c, 0, 60, 88
4, 49858, Note_off_c, 0, 60, 0
4, 49860, Note_on_c, 0, 65, 88
4, 49918, Note_off_c, 0, 65, 0
4, 49920, Note_on_c, 0, 66, 88
4, 49978, Note_off_c, 0, 66, 0
4, 49980, Note_on_c, 0, 60, 88
4, 50038, Note_off_c, 0, 60, 0
4, 50040, Note_on_c, 0, 69, 88
4, 50098, Note_off_c, 0, 69, 0
4, 50100, Note_on_c, 0, 66, 88
4, 50158, Note_off_c, 0, 66, 0
4, 50160, Note_on_c, 0, 60, 88
4, 50218, Note_off_c, 0, 60, 0
4, 50220, Note_on_c, 0, 68, 88
4, 50278, Note_off_c, 0, 68, 0
4, 50280, Note_on_c, 0, 66, 88
4, 50338, Note_off_c, 0, 66, 0
4, 50340, Note_on_c, 0, 65, 88
4, 50398, Note_off_c, 0, 65, 0
4, 50400, Note_on_c, 0, 66, 88
4, 50458, Note_off_c, 0, 66, 0
4, 50460, Note_on_c, 0, 69, 88
4, 50518, Note_off_c, 0, 69, 0
4, 50520, Note_on_c, 0, 73, 88
4, 50578, Note_off_c, 0, 73, 0
4, 50580, Note_on_c, 0, 71, 88
4, 50638, Note_off_c, 0, 71, 0
4, 50640, Note_on_c, 0, 69, 88
4, 50698, Note_off_c, 0, 69, 0
4, 50700, Note_on_c, 0, 73, 88
4, 50758, Note_off_c, 0, 73, 0
4, 50760, Note_on_c, 0, 66, 88
4, 50818, Note_off_c, 0, 66, 0
4, 50820, Note_on_c, 0, 69, 88
4, 50878, Note_off_c, 0, 69, 0
4, 50880, Note_on_c, 0, 73, 88
4, 50938, Note_off_c, 0, 73, 0
4, 50940, Note_on_c, 0, 69, 88
4, 50998, Note_off_c, 0, 69, 0
4, 51000, Note_on_c, 0, 73, 88
4, 51058, Note_off_c, 0, 73, 0
4, 51060, Note_on_c, 0, 77, 88
4, 51118, Note_off_c, 0, 77, 0
4, 51120, Note_on_c, 0, 78, 88
4, 51178, Note_off_c, 0, 78, 0
4, 51180, Note_on_c, 0, 81, 88
4, 51238, Note_off_c, 0, 81, 0
4, 51240, Note_on_c, 0, 75, 88
4, 51298, Note_off_c, 0, 75, 0
4, 51300, Note_on_c, 0, 77, 88
4, 51358, Note_off_c, 0, 77, 0
4, 51360, Note_on_c, 0, 78, 88
4, 51418, Note_off_c, 0, 78, 0
4, 51420, Note_on_c, 0, 75, 88
4, 51478, Note_off_c, 0, 75, 0
4, 51480, Note_on_c, 0, 81, 88
4, 51538, Note_off_c, 0, 81, 0
4, 51540, Note_on_c, 0, 78, 88
4, 51598, Note_off_c, 0, 78, 0
4, 51600, Note_on_c, 0, 75, 88
4, 51658, Note_off_c, 0, 75, 0
4, 51660, Note_on_c, 0, 78, 88
4, 51718, Note_off_c, 0, 78, 0
4, 51720, Note_on_c, 0, 77, 88
4, 51778, Note_off_c, 0, 77, 0
4, 51780, Note_on_c, 0, 75, 88
4, 51838, Note_off_c, 0, 75, 0
4, 51840, Note_on_c, 0, 77, 88
4, 51840, Note_on_c, 0, 80, 88
4, 52074, Note_off_c, 0, 77, 0
4, 52074, Note_off_c, 0, 80, 0
4, 52260, Note_on_c, 0, 77, 88
4, 52318, Note_off_c, 0, 77, 0
4, 52320, Note_on_c, 0, 78, 88
4, 52407, Note_off_c, 0, 78, 0
4, 52410, Note_on_c, 0, 77, 88
4, 52425, Note_on_c, 0, 75, 88
4, 52425, Note_off_c, 0, 77, 0
4, 52440, Note_on_c, 0, 73, 88
4, 52440, Note_off_c, 0, 75, 0
4, 52469, Note_off_c, 0, 73, 0
4, 52470, Note_on_c, 0, 71, 88
4, 52499, Note_off_c, 0, 71, 0
4, 52500, Note_on_c, 0, 70, 88
4, 52529, Note_off_c, 0, 70, 0
4, 52530, Note_on_c, 0, 68, 88
4, 52559, Note_off_c, 0, 68, 0
4, 52560, Note_on_c, 0, 66, 88
4, 52735, Note_off_c, 0, 66, 0
4, 52740, Note_on_c, 0, 75, 88
4, 52798, Note_off_c, 0, 75, 0
4, 52800, Note_on_c, 0, 66, 88
4, 53034, Note_off_c, 0, 66, 0
4, 53040, Note_on_c, 0, 65, 88
4, 53062, Note_off_c, 0, 65, 0
4, 53063, Note_on_c, 0, 66, 88
4, 53082, Note_off_c, 0, 66, 0
4, 53083, Note_on_c, 0, 65, 88
4, 53103, Note_off_c, 0, 65, 0
4, 53104, Note_on_c, 0, 66, 88
4, 53124, Note_on_c, 0, 65, 88
4, 53124, Note_off_c, 0, 66, 0
4, 53143, Note_off_c, 0, 65, 0
4, 53143, Note_on_c, 0, 66, 88
4, 53161, Note_off_c, 0, 66, 0
4, 53162, Note_on_c, 0, 65, 88
4, 53218, Note_off_c, 0, 65, 0
4, 53220, Note_on_c, 0, 66, 88
4, 53278, Note_off_c, 0, 66, 0
4, 53280, Note_on_c, 0, 66, 88
4, 53988, Note_off_c, 0, 66, 0
4, 53988, End_track
5, 0, Start_track
5, 0, Title_t, "Track 2"
5, 0, Program_c, 1, 6
5, 51840, Note_on_c, 1, 68, 88
5, 51840, Note_on_c, 1, 73, 88
5, 52074, Note_off_c, 1, 68, 0
5, 52074, Note_off_c, 1, 73, 0
5, 52260, Note_on_c, 1, 68, 88
5, 52260, Note_on_c, 1, 73, 88
5, 52305, Note_off_c, 1, 73, 0
5, 52318, Note_off_c, 1, 68, 0
5, 52320, Note_on_c, 1, 66, 88
5, 52320, Note_on_c, 1, 73, 88
5, 52378, Note_off_c, 1, 66, 0
5, 52378, Note_off_c, 1, 73, 0
5, 52740, Note_on_c, 1, 66, 88
5, 52798, Note_off_c, 1, 66, 0
5, 52800, Note_on_c, 1, 61, 88
5, 53270, Note_off_c, 1, 61, 0
5, 53280, Note_on_c, 1, 61, 88
5, 53988, Note_off_c, 1, 61, 0
5, 53988, End_track
6, 0, Start_track
6, 0, Title_t, "Track 3"
6, 0, Program_c, 2, 6
6, 48000, Note_on_c, 2, 49, 88
6, 48175, Note_off_c, 2, 49, 0
6, 48180, Note_on_c, 2, 59, 88
6, 48238, Note_off_c, 2, 59, 0
6, 48240, Note_on_c, 2, 58, 88
6, 48356, Note_off_c, 2, 58, 0
6, 51840, Note_on_c, 2, 53, 88
6, 52074, Note_off_c, 2, 53, 0
6, 52740, Note_on_c, 2, 58, 88
6, 52798, Note_off_c, 2, 58, 0
6, 52800, Note_on_c, 2, 56, 88
6, 52975, Note_off_c, 2, 56, 0
6, 52980, Note_on_c, 2, 58, 88
6, 53038, Note_off_c, 2, 58, 0
6, 53040, Note_on_c, 2, 59, 88
6, 53274, Note_off_c, 2, 59, 0
6, 53280, Note_on_c, 2, 58, 88
6, 53988, Note_off_c, 2, 58, 0
6, 53988, End_track
7, 0, Start_track
7, 0, Title_t, "Track 4"
7, 0, Program_c, 3, 6
7, 0, Note_on_c, 3, 54, 88
7, 175, Note_off_c, 3, 54, 0
7, 180, Note_on_c, 3, 56, 88
7, 238, Note_off_c, 3, 56, 0
7, 240, Note_on_c, 3, 58, 88
7, 415, Note_off_c, 3, 58, 0
7, 420, Note_on_c, 3, 56, 88
7, 478, Note_off_c, 3, 56, 0
7, 480, Note_on_c, 3, 58, 88
7, 655, Note_off_c, 3, 58, 0
7, 660, Note_on_c, 3, 54, 88
7, 718, Note_off_c, 3, 54, 0
7, 720, Note_on_c, 3, 61, 88
7, 895, Note_off_c, 3, 61, 0
7, 900, Note_on_c, 3, 59, 88
7, 958, Note_off_c, 3, 59, 0
7, 960, Note_on_c, 3, 58, 88
7, 1135, Note_off_c, 3, 58, 0
7, 1140, Note_on_c, 3, 63, 88
7, 1198, Note_off_c, 3, 63, 0
7, 1200, Note_on_c, 3, 61, 88
7, 1375, Note_off_c, 3, 61, 0
7, 1380, Note_on_c, 3, 63, 88
7, 1438, Note_off_c, 3, 63, 0
7, 1440, Note_on_c, 3, 56, 88
7, 1615, Note_off_c, 3, 56, 0
7, 1620, Note_on_c, 3, 58, 88
7, 1678, Note_off_c, 3, 58, 0
7, 1680, Note_on_c, 3, 59, 88
7, 1855, Note_off_c, 3, 59, 0
7, 1860, Note_on_c, 3, 56, 88
7, 1918, Note_off_c, 3, 56, 0
7, 1920, Note_on_c, 3, 61, 88
7, 2095, Note_off_c, 3, 61, 0
7, 2100, Note_on_c, 3, 49, 88
7, 2158, Note_off_c, 3, 49, 0
7, 2160, Note_on_c, 3, 54, 88
7, 2335, Note_off_c, 3, 54, 0
7, 2340, Note_on_c, 3, 61, 88
7, 2385, Note_off_c, 3, 61, 0
7, 2400, Note_on_c, 3, 61, 88
7, 2565, Note_off_c, 3, 61, 0
7, 2580, Note_on_c, 3, 61, 88
7, 2638, Note_off_c, 3, 61, 0
7, 2640, Note_on_c, 3, 58, 88
7, 2815, Note_off_c, 3, 58, 0
7, 2820, Note_on_c, 3, 61, 88
7, 2878, Note_off_c, 3, 61, 0
7, 2880, Note_on_c, 3, 53, 88
7, 3055, Note_off_c, 3, 53, 0
7, 3060, Note_on_c, 3, 61, 88
7, 3105, Note_off_c, 3, 61, 0
7, 3120, Note_on_c, 3, 61, 88
7, 3285, Note_off_c, 3, 61, 0
7, 3300, Note_on_c, 3, 61, 88
7, 3358, Note_off_c, 3, 61, 0
7, 3360, Note_on_c, 3, 56, 88
7, 3535, Note_off_c, 3, 56, 0
7, 3540, Note_on_c, 3, 61, 88
7, 3598, Note_off_c, 3, 61, 0
7, 3600, Note_on_c, 3, 51, 88
7, 3775, Note_off_c, 3, 51, 0
7, 3780, Note_on_c, 3, 61, 88
7, 3825, Note_off_c, 3, 61, 0
7, 3840, Note_on_c, 3, 61, 88
7, 4005, Note_off_c, 3, 61, 0
7, 4020, Note_on_c, 3, 61, 88
7, 4078, Note_off_c, 3, 61, 0
7, 4080, Note_on_c, 3, 54, 88
7, 4255, Note_off_c, 3, 54, 0
7, 4260, Note_on_c, 3, 60, 88
7, 4318, Note_off_c, 3, 60, 0
7, 4320, Note_on_c, 3, 49, 88
7, 4495, Note_off_c, 3, 49, 0
7, 4500, Note_on_c, 3, 56, 88
7, 4529, Note_off_c, 3, 56, 0
7, 4530, Note_on_c, 3, 58, 88
7, 4559, Note_off_c, 3, 58, 0
7, 4560, Note_on_c, 3, 59, 88
7, 4735, Note_off_c, 3, 59, 0
7, 4740, Note_on_c, 3, 56, 88
7, 4798, Note_off_c, 3, 56, 0
7, 4800, Note_on_c, 3, 53, 88
7, 4975, Note_off_c, 3, 53, 0
7, 4980, Note_on_c, 3, 49, 88
7, 5038, Note_off_c, 3, 49, 0
7, 5040, Note_on_c, 3, 54, 88
7, 5215, Note_off_c, 3, 54, 0
7, 5220, Note_on_c, 3, 49, 88
7, 5278, Note_off_c, 3, 49, 0
7, 5280, Note_on_c, 3, 42, 88
7, 5514, Note_off_c, 3, 42, 0
7, 5760, Note_on_c, 3, 55, 88
7, 5935, Note_off_c, 3, 55, 0
7, 5940, Note_on_c, 3, 58, 88
7, 5969, Note_off_c, 3, 58, 0
7, 5970, Note_on_c, 3, 59, 88
7, 5999, Note_off_c, 3, 59, 0
7, 6000, Note_on_c, 3, 61, 88
7, 6175, Note_off_c, 3, 61, 0
7, 6180, Note_on_c, 3, 58, 88
7, 6238, Note_off_c, 3, 58, 0
7, 6240, Note_on_c, 3, 55, 88
7, 6415, Note_off_c, 3, 55, 0
7, 6420, Note_on_c, 3, 51, 88
7, 6478, Note_off_c, 3, 51, 0
7, 6480, Note_on_c, 3, 56, 88
7, 6655, Note_off_c, 3, 56, 0
7, 6660, Note_on_c, 3, 51, 88
7, 6718, Note_off_c, 3, 51, 0
7, 6720, Note_on_c, 3, 44, 88
7, 6954, Note_off_c, 3, 44, 0
7, 7200, Note_on_c, 3, 57, 88
7, 7375, Note_off_c, 3, 57, 0
7, 7380, Note_on_c, 3, 60, 88
7, 7409, Note_off_c, 3, 60, 0
7, 7410, Note_on_c, 3, 61, 88
7, 7439, Note_off_c, 3, 61, 0
7, 7440, Note_on_c, 3, 63, 88
7, 7615, Note_off_c, 3, 63, 0
7, 7620, Note_on_c, 3, 60, 88
7, 7678, Note_off_c, 3, 60, 0
7, 7680, Note_on_c, 3, 57, 88
7, 7855, Note_off_c, 3, 57, 0
7, 7860, Note_on_c, 3, 53, 88
7, 7918, Note_off_c, 3, 53, 0
7, 7920, Note_on_c, 3, 58, 88
7, 8295, Note_off_c, 3, 58, 0
7, 8310, Note_on_c, 3, 58, 88
7, 8339, Note_off_c, 3, 58, 0
7, 8340, Note_on_c, 3, 60, 88
7, 8369, Note_off_c, 3, 60, 0
7, 8370, Note_on_c, 3, 61, 88
7, 8399, Note_off_c, 3, 61, 0
7, 8400, Note_on_c, 3, 63, 88
7, 8575, Note_off_c, 3, 63, 0
7, 8580, Note_on_c, 3, 66, 88
7, 8638, Note_off_c, 3, 66, 0
7, 8640, Note_on_c, 3, 60, 88
7, 9022, Note_off_c, 3, 60, 0
7, 9030, Note_on_c, 3, 61, 88
7, 9059, Note_off_c, 3, 61, 0
7, 9060, Note_on_c, 3, 60, 88
7, 9089, Note_off_c, 3, 60, 0
7, 9090, Note_on_c, 3, 58, 88
7, 9119, Note_off_c, 3, 58, 0
7, 9120, Note_on_c, 3, 60, 88
7, 9295, Note_off_c, 3, 60, 0
7, 9300, Note_on_c, 3, 56, 88
7, 9358, Note_off_c, 3, 56, 0
7, 9360, Note_on_c, 3, 61, 88
7, 9418, Note_off_c, 3, 61, 0
7, 9420, Note_on_c, 3, 49, 88
7, 9478, Note_off_c, 3, 49, 0
7, 9480, Note_on_c, 3, 51, 88
7, 9538, Note_off_c, 3, 51, 0
7, 9540, Note_on_c, 3, 53, 88
7, 9598, Note_off_c, 3, 53, 0
7, 9600, Note_on_c, 3, 54, 88
7, 9658, Note_off_c, 3, 54, 0
7, 9660, Note_on_c, 3, 42, 88
7, 9718, Note_off_c, 3, 42, 0
7, 9720, Note_on_c, 3, 54, 88
7, 9778, Note_off_c, 3, 54, 0
7, 9780, Note_on_c, 3, 53, 88
7, 9838, Note_off_c, 3, 53, 0
7, 9840, Note_on_c, 3, 54, 88
7, 9898, Note_off_c, 3, 54, 0
7, 9900, Note_on_c, 3, 42, 88
7, 9958, Note_off_c, 3, 42, 0
7, 9960, Note_on_c, 3, 54, 88
7, 10018, Note_off_c, 3, 54, 0
7, 10020, Note_on_c, 3, 53, 88
7, 10078, Note_off_c, 3, 53, 0
7, 10080, Note_on_c, 3, 54, 88
7, 10462, Note_off_c, 3, 54, 0
7, 10470, Note_on_c, 3, 51, 88
7, 10499, Note_off_c, 3, 51, 0
7, 10500, Note_on_c, 3, 53, 88
7, 10529, Note_off_c, 3, 53, 0
7, 10530, Note_on_c, 3, 54, 88
7, 10559, Note_off_c, 3, 54, 0
7, 10560, Note_on_c, 3, 53, 88
7, 10706, Note_off_c, 3, 53, 0
7, 10710, Note_on_c, 3, 49, 88
7, 10739, Note_off_c, 3, 49, 0
7, 10740, Note_on_c, 3, 51, 88
7, 10769, Note_off_c, 3, 51, 0
7, 10770, Note_on_c, 3, 53, 88
7, 10799, Note_off_c, 3, 53, 0
7, 10800, Note_on_c, 3, 54, 88
7, 10975, Note_off_c, 3, 54, 0
7, 10980, Note_on_c, 3, 51, 88
7, 11038, Note_off_c, 3, 51, 0
7, 11040, Note_on_c, 3, 56, 88
7, 11186, Note_off_c, 3, 56, 0
7, 11190, Note_on_c, 3, 58, 88
7, 11219, Note_off_c, 3, 58, 0
7, 11220, Note_on_c, 3, 56, 88
7, 11249, Note_off_c, 3, 56, 0
7, 11250, Note_on_c, 3, 54, 88
7, 11279, Note_off_c, 3, 54, 0
7, 11280, Note_on_c, 3, 56, 88
7, 11455, Note_off_c, 3, 56, 0
7, 11460, Note_on_c, 3, 44, 88
7, 11518, Note_off_c, 3, 44, 0
7, 11520, Note_on_c, 3, 49, 88
7, 11666, Note_off_c, 3, 49, 0
7, 11670, Note_on_c, 3, 53, 88
7, 11699, Note_off_c, 3, 53, 0
7, 11700, Note_on_c, 3, 51, 88
7, 11729, Note_off_c, 3, 51, 0
7, 11730, Note_on_c, 3, 49, 88
7, 11759, Note_off_c, 3, 49, 0
7, 11760, Note_on_c, 3, 56, 88
7, 12113, Note_off_c, 3, 56, 0
7, 12180, Note_on_c, 3, 61, 88
7, 12238, Note_off_c, 3, 61, 0
7, 12240, Note_on_c, 3, 60, 88
7, 12415, Note_off_c, 3, 60, 0
7, 12420, Note_on_c, 3, 61, 88
7, 12449, Note_off_c, 3, 61, 0
7, 12450, Note_on_c, 3, 63, 88
7, 12479, Note_off_c, 3, 63, 0
7, 12480, Note_on_c, 3, 56, 88
7, 12774, Note_off_c, 3, 56, 0
7, 12780, Note_on_c, 3, 58, 88
7, 12838, Note_off_c, 3, 58, 0
7, 12840, Note_on_c, 3, 56, 88
7, 12898, Note_off_c, 3, 56, 0
7, 12900, Note_on_c, 3, 54, 88
7, 12958, Note_off_c, 3, 54, 0
7, 12960, Note_on_c, 3, 53, 88
7, 13135, Note_off_c, 3, 53, 0
7, 13140, Note_on_c, 3, 51, 88
7, 13169, Note_off_c, 3, 51, 0
7, 13170, Note_on_c, 3, 49, 88
7, 13199, Note_off_c, 3, 49, 0
7, 13200, Note_on_c, 3, 59, 88
7, 13375, Note_off_c, 3, 59, 0
7, 13380, Note_on_c, 3, 56, 88
7, 13438, Note_off_c, 3, 56, 0
7, 13440, Note_on_c, 3, 53, 88
7, 13615, Note_off_c, 3, 53, 0
7, 13620, Note_on_c, 3, 59, 88
7, 13678, Note_off_c, 3, 59, 0
7, 13680, Note_on_c, 3, 58, 88
7, 13738, Note_off_c, 3, 58, 0
7, 13740, Note_on_c, 3, 61, 88
7, 13798, Note_off_c, 3, 61, 0
7, 13800, Note_on_c, 3, 54, 88
7, 13858, Note_off_c, 3, 54, 0
7, 13860, Note_on_c, 3, 56, 88
7, 13918, Note_off_c, 3, 56, 0
7, 13920, Note_on_c, 3, 58, 88
7, 13978, Note_off_c, 3, 58, 0
7, 13980, Note_on_c, 3, 54, 88
7, 14038, Note_off_c, 3, 54, 0
7, 14040, Note_on_c, 3, 61, 88
7, 14098, Note_off_c, 3, 61, 0
7, 14100, Note_on_c, 3, 58, 88
7, 14158, Note_off_c, 3, 58, 0
7, 14160, Note_on_c, 3, 54, 88
7, 14218, Note_off_c, 3, 54, 0
7, 14220, Note_on_c, 3, 58, 88
7, 14278, Note_off_c, 3, 58, 0
7, 14280, Note_on_c, 3, 56, 88
7, 14338, Note_off_c, 3, 56, 0
7, 14340, Note_on_c, 3, 54, 88
7, 14398, Note_off_c, 3, 54, 0
7, 14400, Note_on_c, 3, 56, 88
7, 14458, Note_off_c, 3, 56, 0
7, 14460, Note_on_c, 3, 61, 88
7, 14518, Note_off_c, 3, 61, 0
7, 14520, Note_on_c, 3, 49, 88
7, 14578, Note_off_c, 3, 49, 0
7, 14580, Note_on_c, 3, 51, 88
7, 14638, Note_off_c, 3, 51, 0
7, 14640, Note_on_c, 3, 53, 88
7, 14698, Note_off_c, 3, 53, 0
7, 14700, Note_on_c, 3, 49, 88
7, 14758, Note_off_c, 3, 49, 0
7, 14760, Note_on_c, 3, 56, 88
7, 14818, Note_off_c, 3, 56, 0
7, 14820, Note_on_c, 3, 53, 88
7, 14878, Note_off_c, 3, 53, 0
7, 14880, Note_on_c, 3, 49, 88
7, 14938, Note_off_c, 3, 49, 0
7, 14940, Note_on_c, 3, 59, 88
7, 14998, Note_off_c, 3, 59, 0
7, 15000, Note_on_c, 3, 58, 88
7, 15058, Note_off_c, 3, 58, 0
7, 15060, Note_on_c, 3, 56, 88
7, 15118, Note_off_c, 3, 56, 0
7, 15120, Note_on_c, 3, 54, 88
7, 15178, Note_off_c, 3, 54, 0
7, 15180, Note_on_c, 3, 49, 88
7, 15238, Note_off_c, 3, 49, 0
7, 15240, Note_on_c, 3, 54, 88
7, 15298, Note_off_c, 3, 54, 0
7, 15300, Note_on_c, 3, 56, 88
7, 15358, Note_off_c, 3, 56, 0
7, 15360, Note_on_c, 3, 58, 88
7, 15418, Note_off_c, 3, 58, 0
7, 15420, Note_on_c, 3, 54, 88
7, 15478, Note_off_c, 3, 54, 0
7, 15480, Note_on_c, 3, 61, 88
7, 15538, Note_off_c, 3, 61, 0
7, 15540, Note_on_c, 3, 58, 88
7, 15598, Note_off_c, 3, 58, 0
7, 15600, Note_on_c, 3, 54, 88
7, 15658, Note_off_c, 3, 54, 0
7, 15660, Note_on_c, 3, 64, 88
7, 15718, Note_off_c, 3, 64, 0
7, 15720, Note_on_c, 3, 63, 88
7, 15778, Note_off_c, 3, 63, 0
7, 15780, Note_on_c, 3, 61, 88
7, 15838, Note_off_c, 3, 61, 0
7, 15840, Note_on_c, 3, 59, 88
7, 16015, Note_off_c, 3, 59, 0
7, 16020, Note_on_c, 3, 54, 88
7, 16065, Note_off_c, 3, 54, 0
7, 16080, Note_on_c, 3, 54, 88
7, 16255, Note_off_c, 3, 54, 0
7, 16260, Note_on_c, 3, 59, 88
7, 16318, Note_off_c, 3, 59, 0
7, 16320, Note_on_c, 3, 63, 88
7, 16495, Note_off_c, 3, 63, 0
7, 16500, Note_on_c, 3, 54, 88
7, 16558, Note_off_c, 3, 54, 0
7, 16560, Note_on_c, 3, 58, 88
7, 16735, Note_off_c, 3, 58, 0
7, 16740, Note_on_c, 3, 54, 88
7, 16785, Note_off_c, 3, 54, 0
7, 16800, Note_on_c, 3, 54, 88
7, 16975, Note_off_c, 3, 54, 0
7, 16980, Note_on_c, 3, 58, 88
7, 17038, Note_off_c, 3, 58, 0
7, 17040, Note_on_c, 3, 61, 88
7, 17215, Note_off_c, 3, 61, 0
7, 17220, Note_on_c, 3, 54, 88
7, 17278, Note_off_c, 3, 54, 0
7, 17280, Note_on_c, 3, 56, 88
7, 17455, Note_off_c, 3, 56, 0
7, 17460, Note_on_c, 3, 54, 88
7, 17505, Note_off_c, 3, 54, 0
7, 17520, Note_on_c, 3, 54, 88
7, 17695, Note_off_c, 3, 54, 0
7, 17700, Note_on_c, 3, 56, 88
7, 17758, Note_off_c, 3, 56, 0
7, 17760, Note_on_c, 3, 59, 88
7, 17935, Note_off_c, 3, 59, 0
7, 17940, Note_on_c, 3, 53, 88
7, 17998, Note_off_c, 3, 53, 0
7, 18000, Note_on_c, 3, 54, 88
7, 18058, Note_off_c, 3, 54, 0
7, 18060, Note_on_c, 3, 61, 88
7, 18118, Note_off_c, 3, 61, 0
7, 18120, Note_on_c, 3, 54, 88
7, 18178, Note_off_c, 3, 54, 0
7, 18180, Note_on_c, 3, 56, 88
7, 18238, Note_off_c, 3, 56, 0
7, 18240, Note_on_c, 3, 58, 88
7, 18298, Note_off_c, 3, 58, 0
7, 18300, Note_on_c, 3, 54, 88
7, 18358, Note_off_c, 3, 54, 0
7, 18360, Note_on_c, 3, 61, 88
7, 18418, Note_off_c, 3, 61, 0
7, 18420, Note_on_c, 3, 58, 88
7, 18478, Note_off_c, 3, 58, 0
7, 18480, Note_on_c, 3, 54, 88
7, 18538, Note_off_c, 3, 54, 0
7, 18540, Note_on_c, 3, 58, 88
7, 18598, Note_off_c, 3, 58, 0
7, 18600, Note_on_c, 3, 56, 88
7, 18658, Note_off_c, 3, 56, 0
7, 18660, Note_on_c, 3, 54, 88
7, 18718, Note_off_c, 3, 54, 0
7, 18720, Note_on_c, 3, 53, 88
7, 18778, Note_off_c, 3, 53, 0
7, 18780, Note_on_c, 3, 61, 88
7, 18838, Note_off_c, 3, 61, 0
7, 18840, Note_on_c, 3, 53, 88
7, 18898, Note_off_c, 3, 53, 0
7, 18900, Note_on_c, 3, 54, 88
7, 18958, Note_off_c, 3, 54, 0
7, 18960, Note_on_c, 3, 56, 88
7, 19018, Note_off_c, 3, 56, 0
7, 19020, Note_on_c, 3, 53, 88
7, 19078, Note_off_c, 3, 53, 0
7, 19080, Note_on_c, 3, 61, 88
7, 19138, Note_off_c, 3, 61, 0
7, 19140, Note_on_c, 3, 56, 88
7, 19198, Note_off_c, 3, 56, 0
7, 19200, Note_on_c, 3, 53, 88
7, 19258, Note_off_c, 3, 53, 0
7, 19260, Note_on_c, 3, 56, 88
7, 19318, Note_off_c, 3, 56, 0
7, 19320, Note_on_c, 3, 54, 88
7, 19378, Note_off_c, 3, 54, 0
7, 19380, Note_on_c, 3, 53, 88
7, 19438, Note_off_c, 3, 53, 0
7, 19440, Note_on_c, 3, 51, 88
7, 19498, Note_off_c, 3, 51, 0
7, 19500, Note_on_c, 3, 61, 88
7, 19558, Note_off_c, 3, 61, 0
7, 19560, Note_on_c, 3, 51, 88
7, 19618, Note_off_c, 3, 51, 0
7, 19620, Note_on_c, 3, 53, 88
7, 19678, Note_off_c, 3, 53, 0
7, 19680, Note_on_c, 3, 54, 88
7, 19738, Note_off_c, 3, 54, 0
7, 19740, Note_on_c, 3, 51, 88
7, 19798, Note_off_c, 3, 51, 0
7, 19800, Note_on_c, 3, 61, 88
7, 19858, Note_off_c, 3, 61, 0
7, 19860, Note_on_c, 3, 54, 88
7, 19918, Note_off_c, 3, 54, 0
7, 19920, Note_on_c, 3, 51, 88
7, 19978, Note_off_c, 3, 51, 0
7, 19980, Note_on_c, 3, 54, 88
7, 20038, Note_off_c, 3, 54, 0
7, 20040, Note_on_c, 3, 53, 88
7, 20098, Note_off_c, 3, 53, 0
7, 20100, Note_on_c, 3, 51, 88
7, 20158, Note_off_c, 3, 51, 0
7, 20160, Note_on_c, 3, 49, 88
7, 20218, Note_off_c, 3, 49, 0
7, 20220, Note_on_c, 3, 61, 88
7, 20278, Note_off_c, 3, 61, 0
7, 20280, Note_on_c, 3, 49, 88
7, 20338, Note_off_c, 3, 49, 0
7, 20340, Note_on_c, 3, 51, 88
7, 20398, Note_off_c, 3, 51, 0
7, 20400, Note_on_c, 3, 53, 88
7, 20458, Note_off_c, 3, 53, 0
7, 20460, Note_on_c, 3, 49, 88
7, 20518, Note_off_c, 3, 49, 0
7, 20520, Note_on_c, 3, 56, 88
7, 20578, Note_off_c, 3, 56, 0
7, 20580, Note_on_c, 3, 53, 88
7, 20638, Note_off_c, 3, 53, 0
7, 20640, Note_on_c, 3, 47, 88
7, 20698, Note_off_c, 3, 47, 0
7, 20700, Note_on_c, 3, 51, 88
7, 20758, Note_off_c, 3, 51, 0
7, 20760, Note_on_c, 3, 49, 88
7, 20818, Note_off_c, 3, 49, 0
7, 20820, Note_on_c, 3, 47, 88
7, 20878, Note_off_c, 3, 47, 0
7, 20880, Note_on_c, 3, 46, 88
7, 21233, Note_off_c, 3, 46, 0
7, 21270, Note_on_c, 3, 54, 88
7, 21299, Note_off_c, 3, 54, 0
7, 21300, Note_on_c, 3, 56, 88
7, 21329, Note_off_c, 3, 56, 0
7, 21330, Note_on_c, 3, 58, 88
7, 21359, Note_off_c, 3, 58, 0
7, 21360, Note_on_c, 3, 59, 88
7, 21382, Note_off_c, 3, 59, 0
7, 21383, Note_on_c, 3, 58, 88
7, 21404, Note_off_c, 3, 58, 0
7, 21405, Note_on_c, 3, 59, 88
7, 21427, Note_off_c, 3, 59, 0
7, 21428, Note_on_c, 3, 58, 88
7, 21449, Note_off_c, 3, 58, 0
7, 21450, Note_on_c, 3, 59, 88
7, 21472, Note_off_c, 3, 59, 0
7, 21473, Note_on_c, 3, 58, 88
7, 21494, Note_off_c, 3, 58, 0
7, 21495, Note_on_c, 3, 59, 88
7, 21517, Note_off_c, 3, 59, 0
7, 21518, Note_on_c, 3, 58, 88
7, 21539, Note_off_c, 3, 58, 0
7, 21540, Note_on_c, 3, 56, 88
7, 21569, Note_off_c, 3, 56, 0
7, 21570, Note_on_c, 3, 58, 88
7, 21599, Note_off_c, 3, 58, 0
7, 21600, Note_on_c, 3, 59, 88
7, 21658, Note_off_c, 3, 59, 0
7, 21660, Note_on_c, 3, 54, 88
7, 21718, Note_off_c, 3, 54, 0
7, 21720, Note_on_c, 3, 47, 88
7, 21778, Note_off_c, 3, 47, 0
7, 21780, Note_on_c, 3, 49, 88
7, 21838, Note_off_c, 3, 49, 0
7, 21840, Note_on_c, 3, 51, 88
7, 21898, Note_off_c, 3, 51, 0
7, 21900, Note_on_c, 3, 47, 88
7, 21958, Note_off_c, 3, 47, 0
7, 21960, Note_on_c, 3, 54, 88
7, 22018, Note_off_c, 3, 54, 0
7, 22020, Note_on_c, 3, 51, 88
7, 22078, Note_off_c, 3, 51, 0
7, 22080, Note_on_c, 3, 46, 88
7, 22138, Note_off_c, 3, 46, 0
7, 22140, Note_on_c, 3, 49, 88
7, 22198, Note_off_c, 3, 49, 0
7, 22200, Note_on_c, 3, 47, 88
7, 22258, Note_off_c, 3, 47, 0
7, 22260, Note_on_c, 3, 46, 88
7, 22318, Note_off_c, 3, 46, 0
7, 22320, Note_on_c, 3, 44, 88
7, 22673, Note_off_c, 3, 44, 0
7, 22710, Note_on_c, 3, 56, 88
7, 22739, Note_off_c, 3, 56, 0
7, 22740, Note_on_c, 3, 55, 88
7, 22769, Note_off_c, 3, 55, 0
7, 22770, Note_on_c, 3, 56, 88
7, 22799, Note_off_c, 3, 56, 0
7, 22800, Note_on_c, 3, 58, 88
7, 22822, Note_off_c, 3, 58, 0
7, 22823, Note_on_c, 3, 57, 88
7, 22844, Note_off_c, 3, 57, 0
7, 22845, Note_on_c, 3, 58, 88
7, 22867, Note_off_c, 3, 58, 0
7, 22868, Note_on_c, 3, 57, 88
7, 22889, Note_off_c, 3, 57, 0
7, 22890, Note_on_c, 3, 58, 88
7, 22912, Note_off_c, 3, 58, 0
7, 22913, Note_on_c, 3, 57, 88
7, 22934, Note_off_c, 3, 57, 0
7, 22935, Note_on_c, 3, 58, 88
7, 22957, Note_off_c, 3, 58, 0
7, 22958, Note_on_c, 3, 57, 88
7, 22979, Note_off_c, 3, 57, 0
7, 22980, Note_on_c, 3, 55, 88
7, 23009, Note_off_c, 3, 55, 0
7, 23010, Note_on_c, 3, 57, 88
7, 23039, Note_off_c, 3, 57, 0
7, 23040, Note_on_c, 3, 58, 88
7, 23098, Note_off_c, 3, 58, 0
7, 23100, Note_on_c, 3, 53, 88
7, 23158, Note_off_c, 3, 53, 0
7, 23160, Note_on_c, 3, 46, 88
7, 23218, Note_off_c, 3, 46, 0
7, 23220, Note_on_c, 3, 48, 88
7, 23278, Note_off_c, 3, 48, 0
7, 23280, Note_on_c, 3, 50, 88
7, 23338, Note_off_c, 3, 50, 0
7, 23340, Note_on_c, 3, 46, 88
7, 23398, Note_off_c, 3, 46, 0
7, 23400, Note_on_c, 3, 53, 88
7, 23458, Note_off_c, 3, 53, 0
7, 23460, Note_on_c, 3, 50, 88
7, 23518, Note_off_c, 3, 50, 0
7, 23520, Note_on_c, 3, 44, 88
7, 23578, Note_off_c, 3, 44, 0
7, 23580, Note_on_c, 3, 47, 88
7, 23638, Note_off_c, 3, 47, 0
7, 23640, Note_on_c, 3, 46, 88
7, 23698, Note_off_c, 3, 46, 0
7, 23700, Note_on_c, 3, 44, 88
7, 23758, Note_off_c, 3, 44, 0
7, 23760, Note_on_c, 3, 42, 88
7, 23935, Note_off_c, 3, 42, 0
7, 23940, Note_on_c, 3, 58, 88
7, 23985, Note_off_c, 3, 58, 0
7, 24000, Note_on_c, 3, 58, 88
7, 24175, Note_off_c, 3, 58, 0
7, 24180, Note_on_c, 3, 54, 88
7, 24225, Note_off_c, 3, 54, 0
7, 24240, Note_on_c, 3, 54, 88
7, 24415, Note_off_c, 3, 54, 0
7, 24420, Note_on_c, 3, 51, 88
7, 24478, Note_off_c, 3, 51, 0
7, 24480, Note_on_c, 3, 41, 88
7, 24655, Note_off_c, 3, 41, 0
7, 24660, Note_on_c, 3, 58, 88
7, 24705, Note_off_c, 3, 58, 0
7, 24720, Note_on_c, 3, 58, 88
7, 24895, Note_off_c, 3, 58, 0
7, 24900, Note_on_c, 3, 53, 88
7, 24945, Note_off_c, 3, 53, 0
7, 24960, Note_on_c, 3, 53, 88
7, 25135, Note_off_c, 3, 53, 0
7, 25140, Note_on_c, 3, 50, 88
7, 25198, Note_off_c, 3, 50, 0
7, 25200, Note_on_c, 3, 39, 88
7, 25375, Note_off_c, 3, 39, 0
7, 25380, Note_on_c, 3, 58, 88
7, 25425, Note_off_c, 3, 58, 0
7, 25440, Note_on_c, 3, 58, 88
7, 25615, Note_off_c, 3, 58, 0
7, 25620, Note_on_c, 3, 51, 88
7, 25665, Note_off_c, 3, 51, 0
7, 25680, Note_on_c, 3, 51, 88
7, 25855, Note_off_c, 3, 51, 0
7, 25860, Note_on_c, 3, 48, 88
7, 25918, Note_off_c, 3, 48, 0
7, 25920, Note_on_c, 3, 38, 88
7, 26095, Note_off_c, 3, 38, 0
7, 26100, Note_on_c, 3, 58, 88
7, 26145, Note_off_c, 3, 58, 0
7, 26160, Note_on_c, 3, 58, 88
7, 26335, Note_off_c, 3, 58, 0
7, 26340, Note_on_c, 3, 50, 88
7, 26385, Note_off_c, 3, 50, 0
7, 26400, Note_on_c, 3, 50, 88
7, 26575, Note_off_c, 3, 50, 0
7, 26580, Note_on_c, 3, 46, 88
7, 26638, Note_off_c, 3, 46, 0
7, 26640, Note_on_c, 3, 51, 88
7, 26698, Note_off_c, 3, 51, 0
7, 26700, Note_on_c, 3, 58, 88
7, 26758, Note_off_c, 3, 58, 0
7, 26760, Note_on_c, 3, 51, 88
7, 26818, Note_off_c, 3, 51, 0
7, 26820, Note_on_c, 3, 53, 88
7, 26878, Note_off_c, 3, 53, 0
7, 26880, Note_on_c, 3, 54, 88
7, 26938, Note_off_c, 3, 54, 0
7, 26940, Note_on_c, 3, 51, 88
7, 26998, Note_off_c, 3, 51, 0
7, 27000, Note_on_c, 3, 58, 88
7, 27058, Note_off_c, 3, 58, 0
7, 27060, Note_on_c, 3, 54, 88
7, 27118, Note_off_c, 3, 54, 0
7, 27120, Note_on_c, 3, 51, 88
7, 27178, Note_off_c, 3, 51, 0
7, 27180, Note_on_c, 3, 54, 88
7, 27238, Note_off_c, 3, 54, 0
7, 27240, Note_on_c, 3, 53, 88
7, 27298, Note_off_c, 3, 53, 0
7, 27300, Note_on_c, 3, 51, 88
7, 27358, Note_off_c, 3, 51, 0
7, 27360, Note_on_c, 3, 49, 88
7, 27418, Note_off_c, 3, 49, 0
7, 27420, Note_on_c, 3, 58, 88
7, 27478, Note_off_c, 3, 58, 0
7, 27480, Note_on_c, 3, 49, 88
7, 27538, Note_off_c, 3, 49, 0
7, 27540, Note_on_c, 3, 51, 88
7, 27598, Note_off_c, 3, 51, 0
7, 27600, Note_on_c, 3, 53, 88
7, 27658, Note_off_c, 3, 53, 0
7, 27660, Note_on_c, 3, 49, 88
7, 27718, Note_off_c, 3, 49, 0
7, 27720, Note_on_c, 3, 58, 88
7, 27778, Note_off_c, 3, 58, 0
7, 27780, Note_on_c, 3, 53, 88
7, 27838, Note_off_c, 3, 53, 0
7, 27840, Note_on_c, 3, 49, 88
7, 27898, Note_off_c, 3, 49, 0
7, 27900, Note_on_c, 3, 53, 88
7, 27958, Note_off_c, 3, 53, 0
7, 27960, Note_on_c, 3, 51, 88
7, 28018, Note_off_c, 3, 51, 0
7, 28020, Note_on_c, 3, 49, 88
7, 28078, Note_off_c, 3, 49, 0
7, 28080, Note_on_c, 3, 47, 88
7, 28138, Note_off_c, 3, 47, 0
7, 28140, Note_on_c, 3, 58, 88
7, 28198, Note_off_c, 3, 58, 0
7, 28200, Note_on_c, 3, 47, 88
7, 28258, Note_off_c, 3, 47, 0
7, 28260, Note_on_c, 3, 49, 88
7, 28318, Note_off_c, 3, 49, 0
7, 28320, Note_on_c, 3, 51, 88
7, 28378, Note_off_c, 3, 51, 0
7, 28380, Note_on_c, 3, 47, 88
7, 28438, Note_off_c, 3, 47, 0
7, 28440, Note_on_c, 3, 56, 88
7, 28498, Note_off_c, 3, 56, 0
7, 28500, Note_on_c, 3, 51, 88
7, 28558, Note_off_c, 3, 51, 0
7, 28560, Note_on_c, 3, 47, 88
7, 28618, Note_off_c, 3, 47, 0
7, 28620, Note_on_c, 3, 51, 88
7, 28678, Note_off_c, 3, 51, 0
7, 28680, Note_on_c, 3, 49, 88
7, 28738, Note_off_c, 3, 49, 0
7, 28740, Note_on_c, 3, 47, 88
7, 28798, Note_off_c, 3, 47, 0
7, 28800, Note_on_c, 3, 46, 88
7, 28858, Note_off_c, 3, 46, 0
7, 28860, Note_on_c, 3, 58, 88
7, 28918, Note_off_c, 3, 58, 0
7, 28920, Note_on_c, 3, 46, 88
7, 28978, Note_off_c, 3, 46, 0
7, 28980, Note_on_c, 3, 48, 88
7, 29038, Note_off_c, 3, 48, 0
7, 29040, Note_on_c, 3, 50, 88
7, 29098, Note_off_c, 3, 50, 0
7, 29100, Note_on_c, 3, 46, 88
7, 29158, Note_off_c, 3, 46, 0
7, 29160, Note_on_c, 3, 53, 88
7, 29218, Note_off_c, 3, 53, 0
7, 29220, Note_on_c, 3, 50, 88
7, 29278, Note_off_c, 3, 50, 0
7, 29280, Note_on_c, 3, 44, 88
7, 29338, Note_off_c, 3, 44, 0
7, 29340, Note_on_c, 3, 47, 88
7, 29398, Note_off_c, 3, 47, 0
7, 29400, Note_on_c, 3, 46, 88
7, 29458, Note_off_c, 3, 46, 0
7, 29460, Note_on_c, 3, 44, 88
7, 29518, Note_off_c, 3, 44, 0
7, 29520, Note_on_c, 3, 42, 88
7, 29578, Note_off_c, 3, 42, 0
7, 29580, Note_on_c, 3, 46, 88
7, 29638, Note_off_c, 3, 46, 0
7, 29640, Note_on_c, 3, 51, 88
7, 29698, Note_off_c, 3, 51, 0
7, 29700, Note_on_c, 3, 53, 88
7, 29758, Note_off_c, 3, 53, 0
7, 29760, Note_on_c, 3, 54, 88
7, 29818, Note_off_c, 3, 54, 0
7, 29820, Note_on_c, 3, 51, 88
7, 29878, Note_off_c, 3, 51, 0
7, 29880, Note_on_c, 3, 54, 88
7, 29938, Note_off_c, 3, 54, 0
7, 29940, Note_on_c, 3, 56, 88
7, 29998, Note_off_c, 3, 56, 0
7, 30000, Note_on_c, 3, 58, 88
7, 30058, Note_off_c, 3, 58, 0
7, 30060, Note_on_c, 3, 54, 88
7, 30118, Note_off_c, 3, 54, 0
7, 30120, Note_on_c, 3, 59, 88
7, 30165, Note_off_c, 3, 59, 0
7, 30180, Note_on_c, 3, 59, 88
7, 30238, Note_off_c, 3, 59, 0
7, 30240, Note_on_c, 3, 59, 88
7, 30622, Note_off_c, 3, 59, 0
7, 30630, Note_on_c, 3, 58, 88
7, 30659, Note_off_c, 3, 58, 0
7, 30660, Note_on_c, 3, 56, 88
7, 30689, Note_off_c, 3, 56, 0
7, 30690, Note_on_c, 3, 54, 88
7, 30719, Note_off_c, 3, 54, 0
7, 30720, Note_on_c, 3, 53, 88
7, 30895, Note_off_c, 3, 53, 0
7, 30900, Note_on_c, 3, 62, 88
7, 30958, Note_off_c, 3, 62, 0
7, 30960, Note_on_c, 3, 63, 88
7, 31135, Note_off_c, 3, 63, 0
7, 31140, Note_on_c, 3, 56, 88
7, 31198, Note_off_c, 3, 56, 0
7, 31200, Note_on_c, 3, 58, 88
7, 31346, Note_off_c, 3, 58, 0
7, 31350, Note_on_c, 3, 59, 88
7, 31379, Note_off_c, 3, 59, 0
7, 31380, Note_on_c, 3, 58, 88
7, 31409, Note_off_c, 3, 58, 0
7, 31410, Note_on_c, 3, 56, 88
7, 31439, Note_off_c, 3, 56, 0
7, 31440, Note_on_c, 3, 58, 88
7, 31615, Note_off_c, 3, 58, 0
7, 31620, Note_on_c, 3, 46, 88
7, 31678, Note_off_c, 3, 46, 0
7, 31680, Note_on_c, 3, 51, 88
7, 31855, Note_off_c, 3, 51, 0
7, 31860, Note_on_c, 3, 63, 88
7, 31905, Note_off_c, 3, 63, 0
7, 31920, Note_on_c, 3, 63, 88
7, 32085, Note_off_c, 3, 63, 0
7, 32100, Note_on_c, 3, 63, 88
7, 32158, Note_off_c, 3, 63, 0
7, 32160, Note_on_c, 3, 58, 88
7, 32335, Note_off_c, 3, 58, 0
7, 32340, Note_on_c, 3, 63, 88
7, 32398, Note_off_c, 3, 63, 0
7, 32400, Note_on_c, 3, 49, 88
7, 32575, Note_off_c, 3, 49, 0
7, 32580, Note_on_c, 3, 63, 88
7, 32625, Note_off_c, 3, 63, 0
7, 32640, Note_on_c, 3, 63, 88
7, 32805, Note_off_c, 3, 63, 0
7, 32820, Note_on_c, 3, 63, 88
7, 32878, Note_off_c, 3, 63, 0
7, 32880, Note_on_c, 3, 58, 88
7, 33055, Note_off_c, 3, 58, 0
7, 33060, Note_on_c, 3, 63, 88
7, 33118, Note_off_c, 3, 63, 0
7, 33120, Note_on_c, 3, 47, 88
7, 33295, Note_off_c, 3, 47, 0
7, 33300, Note_on_c, 3, 63, 88
7, 33345, Note_off_c, 3, 63, 0
7, 33360, Note_on_c, 3, 63, 88
7, 33525, Note_off_c, 3, 63, 0
7, 33540, Note_on_c, 3, 63, 88
7, 33598, Note_off_c, 3, 63, 0
7, 33600, Note_on_c, 3, 59, 88
7, 33775, Note_off_c, 3, 59, 0
7, 33780, Note_on_c, 3, 63, 88
7, 33838, Note_off_c, 3, 63, 0
7, 33840, Note_on_c, 3, 55, 88
7, 34015, Note_off_c, 3, 55, 0
7, 34020, Note_on_c, 3, 63, 88
7, 34065, Note_off_c, 3, 63, 0
7, 34080, Note_on_c, 3, 63, 88
7, 34245, Note_off_c, 3, 63, 0
7, 34260, Note_on_c, 3, 63, 88
7, 34318, Note_off_c, 3, 63, 0
7, 34320, Note_on_c, 3, 61, 88
7, 34495, Note_off_c, 3, 61, 0
7, 34500, Note_on_c, 3, 63, 88
7, 34558, Note_off_c, 3, 63, 0
7, 34560, Note_on_c, 3, 56, 88
7, 34618, Note_off_c, 3, 56, 0
7, 34620, Note_on_c, 3, 51, 88
7, 34678, Note_off_c, 3, 51, 0
7, 34680, Note_on_c, 3, 44, 88
7, 34738, Note_off_c, 3, 44, 0
7, 34740, Note_on_c, 3, 46, 88
7, 34798, Note_off_c, 3, 46, 0
7, 34800, Note_on_c, 3, 47, 88
7, 34858, Note_off_c, 3, 47, 0
7, 34860, Note_on_c, 3, 44, 88
7, 34918, Note_off_c, 3, 44, 0
7, 34920, Note_on_c, 3, 51, 88
7, 34978, Note_off_c, 3, 51, 0
7, 34980, Note_on_c, 3, 47, 88
7, 35038, Note_off_c, 3, 47, 0
7, 35040, Note_on_c, 3, 44, 88
7, 35098, Note_off_c, 3, 44, 0
7, 35100, Note_on_c, 3, 49, 88
7, 35158, Note_off_c, 3, 49, 0
7, 35160, Note_on_c, 3, 47, 88
7, 35218, Note_off_c, 3, 47, 0
7, 35220, Note_on_c, 3, 46, 88
7, 35278, Note_off_c, 3, 46, 0
7, 35280, Note_on_c, 3, 48, 88
7, 35338, Note_off_c, 3, 48, 0
7, 35340, Note_on_c, 3, 56, 88
7, 35398, Note_off_c, 3, 56, 0
7, 35400, Note_on_c, 3, 48, 88
7, 35458, Note_off_c, 3, 48, 0
7, 35460, Note_on_c, 3, 49, 88
7, 35518, Note_off_c, 3, 49, 0
7, 35520, Note_on_c, 3, 51, 88
7, 35578, Note_off_c, 3, 51, 0
7, 35580, Note_on_c, 3, 48, 88
7, 35638, Note_off_c, 3, 48, 0
7, 35640, Note_on_c, 3, 56, 88
7, 35698, Note_off_c, 3, 56, 0
7, 35700, Note_on_c, 3, 51, 88
7, 35758, Note_off_c, 3, 51, 0
7, 35760, Note_on_c, 3, 48, 88
7, 35818, Note_off_c, 3, 48, 0
7, 35820, Note_on_c, 3, 51, 88
7, 35878, Note_off_c, 3, 51, 0
7, 35880, Note_on_c, 3, 49, 88
7, 35938, Note_off_c, 3, 49, 0
7, 35940, Note_on_c, 3, 48, 88
7, 35998, Note_off_c, 3, 48, 0
7, 36000, Note_on_c, 3, 49, 88
7, 36058, Note_off_c, 3, 49, 0
7, 36060, Note_on_c, 3, 56, 88
7, 36118, Note_off_c, 3, 56, 0
7, 36120, Note_on_c, 3, 49, 88
7, 36178, Note_off_c, 3, 49, 0
7, 36180, Note_on_c, 3, 51, 88
7, 36238, Note_off_c, 3, 51, 0
7, 36240, Note_on_c, 3, 53, 88
7, 36298, Note_off_c, 3, 53, 0
7, 36300, Note_on_c, 3, 49, 88
7, 36358, Note_off_c, 3, 49, 0
7, 36360, Note_on_c, 3, 56, 88
7, 36418, Note_off_c, 3, 56, 0
7, 36420, Note_on_c, 3, 53, 88
7, 36478, Note_off_c, 3, 53, 0
7, 36480, Note_on_c, 3, 49, 88
7, 36538, Note_off_c, 3, 49, 0
7, 36540, Note_on_c, 3, 53, 88
7, 36598, Note_off_c, 3, 53, 0
7, 36600, Note_on_c, 3, 51, 88
7, 36658, Note_off_c, 3, 51, 0
7, 36660, Note_on_c, 3, 49, 88
7, 36718, Note_off_c, 3, 49, 0
7, 36720, Note_on_c, 3, 51, 88
7, 36778, Note_off_c, 3, 51, 0
7, 36780, Note_on_c, 3, 56, 88
7, 36838, Note_off_c, 3, 56, 0
7, 36840, Note_on_c, 3, 51, 88
7, 36898, Note_off_c, 3, 51, 0
7, 36900, Note_on_c, 3, 53, 88
7, 36958, Note_off_c, 3, 53, 0
7, 36960, Note_on_c, 3, 54, 88
7, 37018, Note_off_c, 3, 54, 0
7, 37020, Note_on_c, 3, 51, 88
7, 37078, Note_off_c, 3, 51, 0
7, 37080, Note_on_c, 3, 58, 88
7, 37138, Note_off_c, 3, 58, 0
7, 37140, Note_on_c, 3, 54, 88
7, 37198, Note_off_c, 3, 54, 0
7, 37200, Note_on_c, 3, 51, 88
7, 37258, Note_off_c, 3, 51, 0
7, 37260, Note_on_c, 3, 54, 88
7, 37318, Note_off_c, 3, 54, 0
7, 37320, Note_on_c, 3, 53, 88
7, 37378, Note_off_c, 3, 53, 0
7, 37380, Note_on_c, 3, 51, 88
7, 37438, Note_off_c, 3, 51, 0
7, 37440, Note_on_c, 3, 53, 88
7, 37498, Note_off_c, 3, 53, 0
7, 37500, Note_on_c, 3, 56, 88
7, 37558, Note_off_c, 3, 56, 0
7, 37560, Note_on_c, 3, 61, 88
7, 37618, Note_off_c, 3, 61, 0
7, 37620, Note_on_c, 3, 56, 88
7, 37678, Note_off_c, 3, 56, 0
7, 37680, Note_on_c, 3, 53, 88
7, 37738, Note_off_c, 3, 53, 0
7, 37740, Note_on_c, 3, 56, 88
7, 37798, Note_off_c, 3, 56, 0
7, 37800, Note_on_c, 3, 49, 88
7, 37858, Note_off_c, 3, 49, 0
7, 37860, Note_on_c, 3, 53, 88
7, 37918, Note_off_c, 3, 53, 0
7, 37920, Note_on_c, 3, 56, 88
7, 37978, Note_off_c, 3, 56, 0
7, 37980, Note_on_c, 3, 49, 88
7, 38038, Note_off_c, 3, 49, 0
7, 38040, Note_on_c, 3, 56, 88
7, 38098, Note_off_c, 3, 56, 0
7, 38100, Note_on_c, 3, 58, 88
7, 38158, Note_off_c, 3, 58, 0
7, 38160, Note_on_c, 3, 59, 88
7, 38306, Note_off_c, 3, 59, 0
7, 38310, Note_on_c, 3, 61, 88
7, 38339, Note_off_c, 3, 61, 0
7, 38340, Note_on_c, 3, 59, 88
7, 38369, Note_off_c, 3, 59, 0
7, 38370, Note_on_c, 3, 58, 88
7, 38399, Note_off_c, 3, 58, 0
7, 38400, Note_on_c, 3, 59, 88
7, 38782, Note_off_c, 3, 59, 0
7, 38790, Note_on_c, 3, 56, 88
7, 38819, Note_off_c, 3, 56, 0
7, 38820, Note_on_c, 3, 58, 88
7, 38849, Note_off_c, 3, 58, 0
7, 38850, Note_on_c, 3, 59, 88
7, 38879, Note_off_c, 3, 59, 0
7, 38880, Note_on_c, 3, 58, 88
7, 38938, Note_off_c, 3, 58, 0
7, 38940, Note_on_c, 3, 54, 88
7, 38998, Note_off_c, 3, 54, 0
7, 39000, Note_on_c, 3, 58, 88
7, 39058, Note_off_c, 3, 58, 0
7, 39060, Note_on_c, 3, 56, 88
7, 39118, Note_off_c, 3, 56, 0
7, 39120, Note_on_c, 3, 54, 88
7, 39178, Note_off_c, 3, 54, 0
7, 39180, Note_on_c, 3, 58, 88
7, 39238, Note_off_c, 3, 58, 0
7, 39240, Note_on_c, 3, 49, 88
7, 39298, Note_off_c, 3, 49, 0
7, 39300, Note_on_c, 3, 54, 88
7, 39358, Note_off_c, 3, 54, 0
7, 39360, Note_on_c, 3, 58, 88
7, 39418, Note_off_c, 3, 58, 0
7, 39420, Note_on_c, 3, 54, 88
7, 39478, Note_off_c, 3, 54, 0
7, 39480, Note_on_c, 3, 56, 88
7, 39538, Note_off_c, 3, 56, 0
7, 39540, Note_on_c, 3, 58, 88
7, 39598, Note_off_c, 3, 58, 0
7, 39600, Note_on_c, 3, 53, 88
7, 39775, Note_off_c, 3, 53, 0
7, 39780, Note_on_c, 3, 61, 88
7, 39838, Note_off_c, 3, 61, 0
7, 39840, Note_on_c, 3, 49, 88
7, 39975, Note_off_c, 3, 49, 0
7, 39990, Note_on_c, 3, 49, 88
7, 40019, Note_off_c, 3, 49, 0
7, 40020, Note_on_c, 3, 51, 88
7, 40049, Note_off_c, 3, 51, 0
7, 40050, Note_on_c, 3, 53, 88
7, 40079, Note_off_c, 3, 53, 0
7, 40080, Note_on_c, 3, 54, 88
7, 40102, Note_off_c, 3, 54, 0
7, 40103, Note_on_c, 3, 53, 88
7, 40124, Note_off_c, 3, 53, 0
7, 40125, Note_on_c, 3, 54, 88
7, 40147, Note_off_c, 3, 54, 0
7, 40148, Note_on_c, 3, 53, 88
7, 40169, Note_off_c, 3, 53, 0
7, 40170, Note_on_c, 3, 54, 88
7, 40192, Note_off_c, 3, 54, 0
7, 40193, Note_on_c, 3, 53, 88
7, 40214, Note_off_c, 3, 53, 0
7, 40215, Note_on_c, 3, 54, 88
7, 40237, Note_off_c, 3, 54, 0
7, 40238, Note_on_c, 3, 53, 88
7, 40259, Note_off_c, 3, 53, 0
7, 40260, Note_on_c, 3, 51, 88
7, 40289, Note_off_c, 3, 51, 0
7, 40290, Note_on_c, 3, 53, 88
7, 40319, Note_off_c, 3, 53, 0
7, 40320, Note_on_c, 3, 54, 88
7, 40495, Note_off_c, 3, 54, 0
7, 40500, Note_on_c, 3, 56, 88
7, 40558, Note_off_c, 3, 56, 0
7, 40560, Note_on_c, 3, 58, 88
7, 40735, Note_off_c, 3, 58, 0
7, 40740, Note_on_c, 3, 56, 88
7, 40798, Note_off_c, 3, 56, 0
7, 40800, Note_on_c, 3, 58, 88
7, 40975, Note_off_c, 3, 58, 0
7, 40980, Note_on_c, 3, 54, 88
7, 41038, Note_off_c, 3, 54, 0
7, 41040, Note_on_c, 3, 61, 88
7, 41215, Note_off_c, 3, 61, 0
7, 41220, Note_on_c, 3, 59, 88
7, 41278, Note_off_c, 3, 59, 0
7, 41280, Note_on_c, 3, 58, 88
7, 41455, Note_off_c, 3, 58, 0
7, 41460, Note_on_c, 3, 63, 88
7, 41518, Note_off_c, 3, 63, 0
7, 41520, Note_on_c, 3, 61, 88
7, 41695, Note_off_c, 3, 61, 0
7, 41700, Note_on_c, 3, 63, 88
7, 41758, Note_off_c, 3, 63, 0
7, 41760, Note_on_c, 3, 56, 88
7, 41935, Note_off_c, 3, 56, 0
7, 41940, Note_on_c, 3, 58, 88
7, 41998, Note_off_c, 3, 58, 0
7, 42000, Note_on_c, 3, 59, 88
7, 42175, Note_off_c, 3, 59, 0
7, 42180, Note_on_c, 3, 56, 88
7, 42238, Note_off_c, 3, 56, 0
7, 42240, Note_on_c, 3, 61, 88
7, 42415, Note_off_c, 3, 61, 0
7, 42420, Note_on_c, 3, 49, 88
7, 42478, Note_off_c, 3, 49, 0
7, 42480, Note_on_c, 3, 54, 88
7, 42655, Note_off_c, 3, 54, 0
7, 42660, Note_on_c, 3, 52, 88
7, 42689, Note_off_c, 3, 52, 0
7, 42690, Note_on_c, 3, 51, 88
7, 42719, Note_off_c, 3, 51, 0
7, 42720, Note_on_c, 3, 52, 88
7, 42895, Note_off_c, 3, 52, 0
7, 42900, Note_on_c, 3, 49, 88
7, 42958, Note_off_c, 3, 49, 0
7, 42960, Note_on_c, 3, 46, 88
7, 43135, Note_off_c, 3, 46, 0
7, 43140, Note_on_c, 3, 42, 88
7, 43198, Note_off_c, 3, 42, 0
7, 43200, Note_on_c, 3, 47, 88
7, 43375, Note_off_c, 3, 47, 0
7, 43380, Note_on_c, 3, 54, 88
7, 43438, Note_off_c, 3, 54, 0
7, 43440, Note_on_c, 3, 59, 88
7, 43674, Note_off_c, 3, 59, 0
7, 43920, Note_on_c, 3, 48, 88
7, 44095, Note_off_c, 3, 48, 0
7, 44100, Note_on_c, 3, 51, 88
7, 44129, Note_off_c, 3, 51, 0
7, 44130, Note_on_c, 3, 53, 88
7, 44159, Note_off_c, 3, 53, 0
7, 44160, Note_on_c, 3, 54, 88
7, 44335, Note_off_c, 3, 54, 0
7, 44340, Note_on_c, 3, 51, 88
7, 44398, Note_off_c, 3, 51, 0
7, 44400, Note_on_c, 3, 48, 88
7, 44575, Note_off_c, 3, 48, 0
7, 44580, Note_on_c, 3, 44, 88
7, 44638, Note_off_c, 3, 44, 0
7, 44640, Note_on_c, 3, 49, 88
7, 44815, Note_off_c, 3, 49, 0
7, 44820, Note_on_c, 3, 56, 88
7, 44878, Note_off_c, 3, 56, 0
7, 44880, Note_on_c, 3, 61, 88
7, 45114, Note_off_c, 3, 61, 0
7, 45360, Note_on_c, 3, 50, 88
7, 45535, Note_off_c, 3, 50, 0
7, 45540, Note_on_c, 3, 53, 88
7, 45569, Note_off_c, 3, 53, 0
7, 45570, Note_on_c, 3, 54, 88
7, 45599, Note_off_c, 3, 54, 0
7, 45600, Note_on_c, 3, 56, 88
7, 45775, Note_off_c, 3, 56, 0
7, 45780, Note_on_c, 3, 53, 88
7, 45838, Note_off_c, 3, 53, 0
7, 45840, Note_on_c, 3, 50, 88
7, 46015, Note_off_c, 3, 50, 0
7, 46020, Note_on_c, 3, 46, 88
7, 46078, Note_off_c, 3, 46, 0
7, 46080, Note_on_c, 3, 51, 88
7, 46455, Note_off_c, 3, 51, 0
7, 46470, Note_on_c, 3, 51, 88
7, 46499, Note_off_c, 3, 51, 0
7, 46500, Note_on_c, 3, 53, 88
7, 46529, Note_off_c, 3, 53, 0
7, 46530, Note_on_c, 3, 54, 88
7, 46559, Note_off_c, 3, 54, 0
7, 46560, Note_on_c, 3, 56, 88
7, 46735, Note_off_c, 3, 56, 0
7, 46740, Note_on_c, 3, 59, 88
7, 46798, Note_off_c, 3, 59, 0
7, 46800, Note_on_c, 3, 53, 88
7, 47182, Note_off_c, 3, 53, 0
7, 47190, Note_on_c, 3, 54, 88
7, 47219, Note_off_c, 3, 54, 0
7, 47220, Note_on_c, 3, 53, 88
7, 47249, Note_off_c, 3, 53, 0
7, 47250, Note_on_c, 3, 51, 88
7, 47279, Note_off_c, 3, 51, 0
7, 47280, Note_on_c, 3, 53, 88
7, 47455, Note_off_c, 3, 53, 0
7, 47460, Note_on_c, 3, 49, 88
7, 47518, Note_off_c, 3, 49, 0
7, 47520, Note_on_c, 3, 54, 88
7, 47695, Note_off_c, 3, 54, 0
7, 47700, Note_on_c, 3, 59, 88
7, 47758, Note_off_c, 3, 59, 0
7, 47760, Note_on_c, 3, 61, 88
7, 47906, Note_off_c, 3, 61, 0
7, 47910, Note_on_c, 3, 56, 88
7, 47939, Note_off_c, 3, 56, 0
7, 47940, Note_on_c, 3, 58, 88
7, 47969, Note_off_c, 3, 58, 0
7, 47970, Note_on_c, 3, 59, 88
7, 47999, Note_off_c, 3, 59, 0
7, 48000, Note_on_c, 3, 49, 88
7, 48234, Note_off_c, 3, 49, 0
7, 48240, Note_on_c, 3, 54, 88
7, 48415, Note_off_c, 3, 54, 0
7, 48420, Note_on_c, 3, 61, 88
7, 48465, Note_off_c, 3, 61, 0
7, 48480, Note_on_c, 3, 61, 88
7, 48645, Note_off_c, 3, 61, 0
7, 48660, Note_on_c, 3, 61, 88
7, 48718, Note_off_c, 3, 61, 0
7, 48720, Note_on_c, 3, 58, 88
7, 48895, Note_off_c, 3, 58, 0
7, 48900, Note_on_c, 3, 61, 88
7, 48958, Note_off_c, 3, 61, 0
7, 48960, Note_on_c, 3, 52, 88
7, 49135, Note_off_c, 3, 52, 0
7, 49140, Note_on_c, 3, 61, 88
7, 49198, Note_off_c, 3, 61, 0
7, 49200, Note_on_c, 3, 58, 88
7, 49375, Note_off_c, 3, 58, 0
7, 49380, Note_on_c, 3, 52, 88
7, 49425, Note_off_c, 3, 52, 0
7, 49440, Note_on_c, 3, 52, 88
7, 49615, Note_off_c, 3, 52, 0
7, 49620, Note_on_c, 3, 51, 88
7, 49678, Note_off_c, 3, 51, 0
7, 49680, Note_on_c, 3, 51, 88
7, 49855, Note_off_c, 3, 51, 0
7, 49860, Note_on_c, 3, 57, 88
7, 49905, Note_off_c, 3, 57, 0
7, 49920, Note_on_c, 3, 57, 88
7, 50085, Note_off_c, 3, 57, 0
7, 50100, Note_on_c, 3, 57, 88
7, 50158, Note_off_c, 3, 57, 0
7, 50160, Note_on_c, 3, 54, 88
7, 50335, Note_off_c, 3, 54, 0
7, 50340, Note_on_c, 3, 57, 88
7, 50398, Note_off_c, 3, 57, 0
7, 50400, Note_on_c, 3, 49, 88
7, 50575, Note_off_c, 3, 49, 0
7, 50580, Note_on_c, 3, 53, 88
7, 50638, Note_off_c, 3, 53, 0
7, 50640, Note_on_c, 3, 54, 88
7, 50815, Note_off_c, 3, 54, 0
7, 50820, Note_on_c, 3, 49, 88
7, 50865, Note_off_c, 3, 49, 0
7, 50880, Note_on_c, 3, 49, 88
7, 51055, Note_off_c, 3, 49, 0
7, 51060, Note_on_c, 3, 48, 88
7, 51118, Note_off_c, 3, 48, 0
7, 51120, Note_on_c, 3, 48, 88
7, 51295, Note_off_c, 3, 48, 0
7, 51300, Note_on_c, 3, 60, 88
7, 51345, Note_off_c, 3, 60, 0
7, 51360, Note_on_c, 3, 60, 88
7, 51535, Note_off_c, 3, 60, 0
7, 51540, Note_on_c, 3, 63, 88
7, 51598, Note_off_c, 3, 63, 0
7, 51600, Note_on_c, 3, 56, 88
7, 51775, Note_off_c, 3, 56, 0
7, 51780, Note_on_c, 3, 54, 88
7, 51838, Note_off_c, 3, 54, 0
7, 51840, Note_on_c, 3, 47, 88
7, 52074, Note_off_c, 3, 47, 0
7, 52260, Note_on_c, 3, 59, 88
7, 52318, Note_off_c, 3, 59, 0
7, 52320, Note_on_c, 3, 58, 88
7, 52436, Note_off_c, 3, 58, 0
7, 52740, Note_on_c, 3, 48, 88
7, 52798, Note_off_c, 3, 48, 0
7, 52800, Note_on_c, 3, 49, 88
7, 53270, Note_off_c, 3, 49, 0
7, 53280, Note_on_c, 3, 42, 88
7, 53988, Note_off_c, 3, 42, 0
7, 53988, End_track
0, 0, End_of_file
