0, 0, Header, 1, 7, 240
1, 0, Start_track
1, 0, Time_signature, 3, 2, 24, 8
1, 0, Tempo, 1132075
1, 0, SMPTE_offset, 64, 0, 0, 0, 164
1, 19920, Tempo, 1250000
1, 20160, Tempo, 1363636
1, 20280, Tempo, 1764705
1, 20400, Tempo, 1132075
1, 25920, Tempo, 1153846
1, 27360, Tempo, 1176470
1, 28080, Tempo, 1176470
1, 29760, Tempo, 1276595
1, 30000, Tempo, 1500000
1, 30000, End_track
2, 0, Start_track
2, 0, Title_t, "(C) & (P) 1993"
2, 127, End_track
3, 0, Start_track
3, 0, Title_t, "CCARH,Stanford"
3, 0, End_track
4, 0, Start_track
4, 0, Title_t, "Track 1"
4, 0, Program_c, 0, 6
4, 0, Note_on_c, 0, 78, 88
4, 116, Note_off_c, 0, 78, 0
4, 120, Note_on_c, 0, 73, 88
4, 354, Note_off_c, 0, 73, 0
4, 360, Note_on_c, 0, 69, 88
4, 418, Note_off_c, 0, 69, 0
4, 420, Note_on_c, 0, 71, 88
4, 478, Note_off_c, 0, 71, 0
4, 480, Note_on_c, 0, 73, 88
4, 519, Note_off_c, 0, 73, 0
4, 520, Note_on_c, 0, 71, 88
4, 559, Note_off_c, 0, 71, 0
4, 560, Note_on_c, 0, 69, 88
4, 599, Note_off_c, 0, 69, 0
4, 600, Note_on_c, 0, 71, 88
4, 639, Note_off_c, 0, 71, 0
4, 640, Note_on_c, 0, 69, 88
4, 679, Note_off_c, 0, 69, 0
4, 680, Note_on_c, 0, 68, 88
4, 719, Note_off_c, 0, 68, 0
4, 720, Note_on_c, 0, 69, 88
4, 778, Note_off_c, 0, 69, 0
4, 780, Note_on_c, 0, 71, 88
4, 838, Note_off_c, 0, 71, 0
4, 840, Note_on_c, 0, 69, 88
4, 898, Note_off_c, 0, 69, 0
4, 900, Note_on_c, 0, 68, 88
4, 958, Note_off_c, 0, 68, 0
4, 960, Note_on_c, 0, 69, 88
4, 1018, Note_off_c, 0, 69, 0
4, 1020, Note_on_c, 0, 73, 88
4, 1078, Note_off_c, 0, 73, 0
4, 1080, Note_on_c, 0, 78, 88
4, 1138, Note_off_c, 0, 78, 0
4, 1140, Note_on_c, 0, 80, 88
4, 1198, Note_off_c, 0, 80, 0
4, 1200, Note_on_c, 0, 81, 88
4, 1239, Note_off_c, 0, 81, 0
4, 1240, Note_on_c, 0, 80, 88
4, 1279, Note_off_c, 0, 80, 0
4, 1280, Note_on_c, 0, 78, 88
4, 1319, Note_off_c, 0, 78, 0
4, 1320, Note_on_c, 0, 80, 88
4, 1359, Note_off_c, 0, 80, 0
4, 1360, Note_on_c, 0, 78, 88
4, 1399, Note_off_c, 0, 78, 0
4, 1400, Note_on_c, 0, 77, 88
4, 1439, Note_off_c, 0, 77, 0
4, 1440, Note_on_c, 0, 78, 88
4, 1498, Note_off_c, 0, 78, 0
4, 1500, Note_on_c, 0, 73, 88
4, 1616, Note_off_c, 0, 73, 0
4, 1620, Note_on_c, 0, 77, 88
4, 1678, Note_off_c, 0, 77, 0
4, 1680, Note_on_c, 0, 78, 88
4, 1738, Note_off_c, 0, 78, 0
4, 1740, Note_on_c, 0, 73, 88
4, 1856, Note_off_c, 0, 73, 0
4, 1860, Note_on_c, 0, 77, 88
4, 1918, Note_off_c, 0, 77, 0
4, 1920, Note_on_c, 0, 78, 88
4, 1978, Note_off_c, 0, 78, 0
4, 1980, Note_on_c, 0, 73, 88
4, 2038, Note_off_c, 0, 73, 0
4, 2040, Note_on_c, 0, 78, 88
4, 2098, Note_off_c, 0, 78, 0
4, 2100, Note_on_c, 0, 80, 88
4, 2158, Note_off_c, 0, 80, 0
4, 2160, Note_on_c, 0, 81, 88
4, 2218, Note_off_c, 0, 81, 0
4, 2220, Note_on_c, 0, 77, 88
4, 2278, Note_off_c, 0, 77, 0
4, 2280, Note_on_c, 0, 78, 88
4, 2338, Note_off_c, 0, 78, 0
4, 2340, Note_on_c, 0, 81, 88
4, 2398, Note_off_c, 0, 81, 0
4, 2400, Note_on_c, 0, 71, 88
4, 2458, Note_off_c, 0, 71, 0
4, 2460, Note_on_c, 0, 81, 88
4, 2518, Note_off_c, 0, 81, 0
4, 2520, Note_on_c, 0, 80, 88
4, 2578, Note_off_c, 0, 80, 0
4, 2580, Note_on_c, 0, 81, 88
4, 2638, Note_off_c, 0, 81, 0
4, 2640, Note_on_c, 0, 83, 88
4, 2679, Note_off_c, 0, 83, 0
4, 2680, Note_on_c, 0, 81, 88
4, 2719, Note_off_c, 0, 81, 0
4, 2720, Note_on_c, 0, 80, 88
4, 2759, Note_off_c, 0, 80, 0
4, 2760, Note_on_c, 0, 81, 88
4, 2799, Note_off_c, 0, 81, 0
4, 2800, Note_on_c, 0, 80, 88
4, 2839, Note_off_c, 0, 80, 0
4, 2840, Note_on_c, 0, 78, 88
4, 2879, Note_off_c, 0, 78, 0
4, 2880, Note_on_c, 0, 77, 88
4, 2938, Note_off_c, 0, 77, 0
4, 2940, Note_on_c, 0, 72, 88
4, 3056, Note_off_c, 0, 72, 0
4, 3060, Note_on_c, 0, 73, 88
4, 3118, Note_off_c, 0, 73, 0
4, 3120, Note_on_c, 0, 78, 88
4, 3178, Note_off_c, 0, 78, 0
4, 3180, Note_on_c, 0, 72, 88
4, 3296, Note_off_c, 0, 72, 0
4, 3300, Note_on_c, 0, 73, 88
4, 3358, Note_off_c, 0, 73, 0
4, 3360, Note_on_c, 0, 80, 88
4, 3399, Note_off_c, 0, 80, 0
4, 3400, Note_on_c, 0, 71, 88
4, 3439, Note_off_c, 0, 71, 0
4, 3440, Note_on_c, 0, 73, 88
4, 3479, Note_off_c, 0, 73, 0
4, 3480, Note_on_c, 0, 74, 88
4, 3519, Note_off_c, 0, 74, 0
4, 3520, Note_on_c, 0, 73, 88
4, 3559, Note_off_c, 0, 73, 0
4, 3560, Note_on_c, 0, 71, 88
4, 3599, Note_off_c, 0, 71, 0
4, 3600, Note_on_c, 0, 69, 88
4, 3874, Note_off_c, 0, 69, 0
4, 3880, Note_on_c, 0, 68, 88
4, 3919, Note_off_c, 0, 68, 0
4, 3920, Note_on_c, 0, 66, 88
4, 3959, Note_off_c, 0, 66, 0
4, 3960, Note_on_c, 0, 65, 88
4, 3999, Note_off_c, 0, 65, 0
4, 4000, Note_on_c, 0, 66, 88
4, 4039, Note_off_c, 0, 66, 0
4, 4040, Note_on_c, 0, 68, 88
4, 4079, Note_off_c, 0, 68, 0
4, 4080, Note_on_c, 0, 66, 88
4, 4119, Note_off_c, 0, 66, 0
4, 4120, Note_on_c, 0, 65, 88
4, 4159, Note_off_c, 0, 65, 0
4, 4160, Note_on_c, 0, 66, 88
4, 4199, Note_off_c, 0, 66, 0
4, 4200, Note_on_c, 0, 75, 88
4, 4287, Note_off_c, 0, 75, 0
4, 4290, Note_on_c, 0, 66, 88
4, 4319, Note_off_c, 0, 66, 0
4, 4320, Note_on_c, 0, 66, 88
4, 4495, Note_off_c, 0, 66, 0
4, 4500, Note_on_c, 0, 65, 88
4, 4529, Note_off_c, 0, 65, 0
4, 4530, Note_on_c, 0, 63, 88
4, 4559, Note_off_c, 0, 63, 0
4, 4560, Note_on_c, 0, 65, 88
4, 4599, Note_off_c, 0, 65, 0
4, 4600, Note_on_c, 0, 61, 88
4, 4639, Note_off_c, 0, 61, 0
4, 4640, Note_on_c, 0, 63, 88
4, 4679, Note_off_c, 0, 63, 0
4, 4680, Note_on_c, 0, 65, 88
4, 4719, Note_off_c, 0, 65, 0
4, 4720, Note_on_c, 0, 66, 88
4, 4759, Note_off_c, 0, 66, 0
4, 4760, Note_on_c, 0, 68, 88
4, 4799, Note_off_c, 0, 68, 0
4, 4800, Note_on_c, 0, 66, 88
4, 4839, Note_off_c, 0, 66, 0
4, 4840, Note_on_c, 0, 65, 88
4, 4879, Note_off_c, 0, 65, 0
4, 4880, Note_on_c, 0, 66, 88
4, 4919, Note_off_c, 0, 66, 0
4, 4920, Note_on_c, 0, 68, 88
4, 4959, Note_off_c, 0, 68, 0
4, 4960, Note_on_c, 0, 69, 88
4, 4999, Note_off_c, 0, 69, 0
4, 5000, Note_on_c, 0, 71, 88
4, 5039, Note_off_c, 0, 71, 0
4, 5040, Note_on_c, 0, 69, 88
4, 5069, Note_off_c, 0, 69, 0
4, 5070, Note_on_c, 0, 68, 88
4, 5099, Note_off_c, 0, 68, 0
4, 5100, Note_on_c, 0, 66, 88
4, 5216, Note_off_c, 0, 66, 0
4, 5220, Note_on_c, 0, 69, 88
4, 5249, Note_off_c, 0, 69, 0
4, 5250, Note_on_c, 0, 73, 88
4, 5279, Note_off_c, 0, 73, 0
4, 5280, Note_on_c, 0, 78, 88
4, 5319, Note_off_c, 0, 78, 0
4, 5320, Note_on_c, 0, 73, 88
4, 5359, Note_off_c, 0, 73, 0
4, 5360, Note_on_c, 0, 75, 88
4, 5399, Note_off_c, 0, 75, 0
4, 5400, Note_on_c, 0, 77, 88
4, 5439, Note_off_c, 0, 77, 0
4, 5440, Note_on_c, 0, 78, 88
4, 5479, Note_off_c, 0, 78, 0
4, 5480, Note_on_c, 0, 80, 88
4, 5519, Note_off_c, 0, 80, 0
4, 5520, Note_on_c, 0, 81, 88
4, 5559, Note_off_c, 0, 81, 0
4, 5560, Note_on_c, 0, 80, 88
4, 5599, Note_off_c, 0, 80, 0
4, 5600, Note_on_c, 0, 78, 88
4, 5639, Note_off_c, 0, 78, 0
4, 5640, Note_on_c, 0, 80, 88
4, 5679, Note_off_c, 0, 80, 0
4, 5680, Note_on_c, 0, 78, 88
4, 5719, Note_off_c, 0, 78, 0
4, 5720, Note_on_c, 0, 76, 88
4, 5759, Note_off_c, 0, 76, 0
4, 5760, Note_on_c, 0, 75, 88
4, 5818, Note_off_c, 0, 75, 0
4, 5820, Note_on_c, 0, 76, 88
4, 5878, Note_off_c, 0, 76, 0
4, 5880, Note_on_c, 0, 78, 88
4, 6055, Note_off_c, 0, 78, 0
4, 6060, Note_on_c, 0, 76, 88
4, 6118, Note_off_c, 0, 76, 0
4, 6120, Note_on_c, 0, 75, 88
4, 6178, Note_off_c, 0, 75, 0
4, 6180, Note_on_c, 0, 81, 88
4, 6238, Note_off_c, 0, 81, 0
4, 6240, Note_on_c, 0, 80, 88
4, 6279, Note_off_c, 0, 80, 0
4, 6280, Note_on_c, 0, 78, 88
4, 6319, Note_off_c, 0, 78, 0
4, 6320, Note_on_c, 0, 76, 88
4, 6359, Note_off_c, 0, 76, 0
4, 6360, Note_on_c, 0, 78, 88
4, 6399, Note_off_c, 0, 78, 0
4, 6400, Note_on_c, 0, 76, 88
4, 6439, Note_off_c, 0, 76, 0
4, 6440, Note_on_c, 0, 75, 88
4, 6479, Note_off_c, 0, 75, 0
4, 6480, Note_on_c, 0, 76, 88
4, 6538, Note_off_c, 0, 76, 0
4, 6540, Note_on_c, 0, 75, 88
4, 6598, Note_off_c, 0, 75, 0
4, 6600, Note_on_c, 0, 73, 88
4, 6775, Note_off_c, 0, 73, 0
4, 6780, Note_on_c, 0, 75, 88
4, 6838, Note_off_c, 0, 75, 0
4, 6840, Note_on_c, 0, 73, 88
4, 6898, Note_off_c, 0, 73, 0
4, 6900, Note_on_c, 0, 72, 88
4, 6958, Note_off_c, 0, 72, 0
4, 6960, Note_on_c, 0, 73, 88
4, 7018, Note_off_c, 0, 73, 0
4, 7020, Note_on_c, 0, 76, 88
4, 7078, Note_off_c, 0, 76, 0
4, 7080, Note_on_c, 0, 69, 88
4, 7138, Note_off_c, 0, 69, 0
4, 7140, Note_on_c, 0, 68, 88
4, 7198, Note_off_c, 0, 68, 0
4, 7200, Note_on_c, 0, 69, 88
4, 7258, Note_off_c, 0, 69, 0
4, 7260, Note_on_c, 0, 72, 88
4, 7318, Note_off_c, 0, 72, 0
4, 7320, Note_on_c, 0, 66, 88
4, 7378, Note_off_c, 0, 66, 0
4, 7380, Note_on_c, 0, 64, 88
4, 7438, Note_off_c, 0, 64, 0
4, 7440, Note_on_c, 0, 66, 88
4, 7498, Note_off_c, 0, 66, 0
4, 7500, Note_on_c, 0, 72, 88
4, 7558, Note_off_c, 0, 72, 0
4, 7560, Note_on_c, 0, 73, 88
4, 7618, Note_off_c, 0, 73, 0
4, 7620, Note_on_c, 0, 75, 88
4, 7678, Note_off_c, 0, 75, 0
4, 7680, Note_on_c, 0, 76, 88
4, 7719, Note_off_c, 0, 76, 0
4, 7720, Note_on_c, 0, 75, 88
4, 7759, Note_off_c, 0, 75, 0
4, 7760, Note_on_c, 0, 73, 88
4, 7799, Note_off_c, 0, 73, 0
4, 7800, Note_on_c, 0, 75, 88
4, 7839, Note_off_c, 0, 75, 0
4, 7840, Note_on_c, 0, 73, 88
4, 7879, Note_off_c, 0, 73, 0
4, 7880, Note_on_c, 0, 72, 88
4, 7919, Note_off_c, 0, 72, 0
4, 7920, Note_on_c, 0, 73, 88
4, 8036, Note_off_c, 0, 73, 0
4, 8040, Note_on_c, 0, 68, 88
4, 8274, Note_off_c, 0, 68, 0
4, 8280, Note_on_c, 0, 64, 88
4, 8338, Note_off_c, 0, 64, 0
4, 8340, Note_on_c, 0, 66, 88
4, 8398, Note_off_c, 0, 66, 0
4, 8400, Note_on_c, 0, 68, 88
4, 8439, Note_off_c, 0, 68, 0
4, 8440, Note_on_c, 0, 66, 88
4, 8479, Note_off_c, 0, 66, 0
4, 8480, Note_on_c, 0, 64, 88
4, 8519, Note_off_c, 0, 64, 0
4, 8520, Note_on_c, 0, 66, 88
4, 8559, Note_off_c, 0, 66, 0
4, 8560, Note_on_c, 0, 64, 88
4, 8599, Note_off_c, 0, 64, 0
4, 8600, Note_on_c, 0, 63, 88
4, 8639, Note_off_c, 0, 63, 0
4, 8640, Note_on_c, 0, 64, 88
4, 8698, Note_off_c, 0, 64, 0
4, 8700, Note_on_c, 0, 66, 88
4, 8758, Note_off_c, 0, 66, 0
4, 8760, Note_on_c, 0, 64, 88
4, 8818, Note_off_c, 0, 64, 0
4, 8820, Note_on_c, 0, 63, 88
4, 8878, Note_off_c, 0, 63, 0
4, 8880, Note_on_c, 0, 64, 88
4, 8938, Note_off_c, 0, 64, 0
4, 8940, Note_on_c, 0, 68, 88
4, 8998, Note_off_c, 0, 68, 0
4, 9000, Note_on_c, 0, 73, 88
4, 9058, Note_off_c, 0, 73, 0
4, 9060, Note_on_c, 0, 75, 88
4, 9118, Note_off_c, 0, 75, 0
4, 9120, Note_on_c, 0, 76, 88
4, 9159, Note_off_c, 0, 76, 0
4, 9160, Note_on_c, 0, 79, 88
4, 9199, Note_off_c, 0, 79, 0
4, 9200, Note_on_c, 0, 78, 88
4, 9239, Note_off_c, 0, 78, 0
4, 9240, Note_on_c, 0, 76, 88
4, 9279, Note_off_c, 0, 76, 0
4, 9280, Note_on_c, 0, 74, 88
4, 9319, Note_off_c, 0, 74, 0
4, 9320, Note_on_c, 0, 73, 88
4, 9359, Note_off_c, 0, 73, 0
4, 9360, Note_on_c, 0, 71, 88
4, 9399, Note_off_c, 0, 71, 0
4, 9400, Note_on_c, 0, 70, 88
4, 9439, Note_off_c, 0, 70, 0
4, 9440, Note_on_c, 0, 73, 88
4, 9479, Note_off_c, 0, 73, 0
4, 9480, Note_on_c, 0, 64, 88
4, 9626, Note_off_c, 0, 64, 0
4, 9630, Note_on_c, 0, 66, 88
4, 9659, Note_off_c, 0, 66, 0
4, 9660, Note_on_c, 0, 64, 88
4, 9689, Note_off_c, 0, 64, 0
4, 9690, Note_on_c, 0, 63, 88
4, 9719, Note_off_c, 0, 63, 0
4, 9720, Note_on_c, 0, 64, 88
4, 9767, Note_off_c, 0, 64, 0
4, 9780, Note_on_c, 0, 64, 88
4, 9896, Note_off_c, 0, 64, 0
4, 9900, Note_on_c, 0, 70, 88
4, 9958, Note_off_c, 0, 70, 0
4, 9960, Note_on_c, 0, 71, 88
4, 10018, Note_off_c, 0, 71, 0
4, 10020, Note_on_c, 0, 73, 88
4, 10078, Note_off_c, 0, 73, 0
4, 10080, Note_on_c, 0, 62, 88
4, 10138, Note_off_c, 0, 62, 0
4, 10140, Note_on_c, 0, 64, 88
4, 10198, Note_off_c, 0, 64, 0
4, 10200, Note_on_c, 0, 62, 88
4, 10258, Note_off_c, 0, 62, 0
4, 10260, Note_on_c, 0, 61, 88
4, 10318, Note_off_c, 0, 61, 0
4, 10320, Note_on_c, 0, 62, 88
4, 10378, Note_off_c, 0, 62, 0
4, 10380, Note_on_c, 0, 66, 88
4, 10438, Note_off_c, 0, 66, 0
4, 10440, Note_on_c, 0, 71, 88
4, 10498, Note_off_c, 0, 71, 0
4, 10500, Note_on_c, 0, 73, 88
4, 10558, Note_off_c, 0, 73, 0
4, 10560, Note_on_c, 0, 74, 88
4, 10599, Note_off_c, 0, 74, 0
4, 10600, Note_on_c, 0, 78, 88
4, 10639, Note_off_c, 0, 78, 0
4, 10640, Note_on_c, 0, 76, 88
4, 10679, Note_off_c, 0, 76, 0
4, 10680, Note_on_c, 0, 74, 88
4, 10719, Note_off_c, 0, 74, 0
4, 10720, Note_on_c, 0, 73, 88
4, 10759, Note_off_c, 0, 73, 0
4, 10760, Note_on_c, 0, 71, 88
4, 10799, Note_off_c, 0, 71, 0
4, 10800, Note_on_c, 0, 69, 88
4, 10839, Note_off_c, 0, 69, 0
4, 10840, Note_on_c, 0, 68, 88
4, 10879, Note_off_c, 0, 68, 0
4, 10880, Note_on_c, 0, 71, 88
4, 10919, Note_off_c, 0, 71, 0
4, 10920, Note_on_c, 0, 62, 88
4, 11066, Note_off_c, 0, 62, 0
4, 11070, Note_on_c, 0, 64, 88
4, 11099, Note_off_c, 0, 64, 0
4, 11100, Note_on_c, 0, 62, 88
4, 11129, Note_off_c, 0, 62, 0
4, 11130, Note_on_c, 0, 61, 88
4, 11159, Note_off_c, 0, 61, 0
4, 11160, Note_on_c, 0, 62, 88
4, 11207, Note_off_c, 0, 62, 0
4, 11220, Note_on_c, 0, 62, 88
4, 11336, Note_off_c, 0, 62, 0
4, 11340, Note_on_c, 0, 68, 88
4, 11398, Note_off_c, 0, 68, 0
4, 11400, Note_on_c, 0, 69, 88
4, 11458, Note_off_c, 0, 69, 0
4, 11460, Note_on_c, 0, 71, 88
4, 11518, Note_off_c, 0, 71, 0
4, 11520, Note_on_c, 0, 61, 88
4, 11578, Note_off_c, 0, 61, 0
4, 11580, Note_on_c, 0, 62, 88
4, 11638, Note_off_c, 0, 62, 0
4, 11640, Note_on_c, 0, 61, 88
4, 11698, Note_off_c, 0, 61, 0
4, 11700, Note_on_c, 0, 59, 88
4, 11758, Note_off_c, 0, 59, 0
4, 11760, Note_on_c, 0, 61, 88
4, 11818, Note_off_c, 0, 61, 0
4, 11820, Note_on_c, 0, 64, 88
4, 11878, Note_off_c, 0, 64, 0
4, 11880, Note_on_c, 0, 69, 88
4, 11938, Note_off_c, 0, 69, 0
4, 11940, Note_on_c, 0, 71, 88
4, 11998, Note_off_c, 0, 71, 0
4, 12000, Note_on_c, 0, 73, 88
4, 12298, Note_off_c, 0, 73, 0
4, 12300, Note_on_c, 0, 67, 88
4, 12358, Note_off_c, 0, 67, 0
4, 12360, Note_on_c, 0, 66, 88
4, 12418, Note_off_c, 0, 66, 0
4, 12420, Note_on_c, 0, 64, 88
4, 12478, Note_off_c, 0, 64, 0
4, 12480, Note_on_c, 0, 66, 88
4, 12538, Note_off_c, 0, 66, 0
4, 12540, Note_on_c, 0, 69, 88
4, 12598, Note_off_c, 0, 69, 0
4, 12600, Note_on_c, 0, 74, 88
4, 12658, Note_off_c, 0, 74, 0
4, 12660, Note_on_c, 0, 76, 88
4, 12718, Note_off_c, 0, 76, 0
4, 12720, Note_on_c, 0, 78, 88
4, 13018, Note_off_c, 0, 78, 0
4, 13020, Note_on_c, 0, 69, 88
4, 13078, Note_off_c, 0, 69, 0
4, 13080, Note_on_c, 0, 68, 88
4, 13138, Note_off_c, 0, 68, 0
4, 13140, Note_on_c, 0, 66, 88
4, 13198, Note_off_c, 0, 66, 0
4, 13200, Note_on_c, 0, 68, 88
4, 13258, Note_off_c, 0, 68, 0
4, 13260, Note_on_c, 0, 71, 88
4, 13318, Note_off_c, 0, 71, 0
4, 13320, Note_on_c, 0, 76, 88
4, 13378, Note_off_c, 0, 76, 0
4, 13380, Note_on_c, 0, 78, 88
4, 13438, Note_off_c, 0, 78, 0
4, 13440, Note_on_c, 0, 83, 88
4, 13498, Note_off_c, 0, 83, 0
4, 13500, Note_on_c, 0, 74, 88
4, 13558, Note_off_c, 0, 74, 0
4, 13560, Note_on_c, 0, 73, 88
4, 13618, Note_off_c, 0, 73, 0
4, 13620, Note_on_c, 0, 71, 88
4, 13678, Note_off_c, 0, 71, 0
4, 13680, Note_on_c, 0, 73, 88
4, 13738, Note_off_c, 0, 73, 0
4, 13740, Note_on_c, 0, 78, 88
4, 13798, Note_off_c, 0, 78, 0
4, 13800, Note_on_c, 0, 76, 88
4, 13858, Note_off_c, 0, 76, 0
4, 13860, Note_on_c, 0, 75, 88
4, 13918, Note_off_c, 0, 75, 0
4, 13920, Note_on_c, 0, 76, 88
4, 13978, Note_off_c, 0, 76, 0
4, 13980, Note_on_c, 0, 73, 88
4, 14038, Note_off_c, 0, 73, 0
4, 14040, Note_on_c, 0, 71, 88
4, 14098, Note_off_c, 0, 71, 0
4, 14100, Note_on_c, 0, 69, 88
4, 14158, Note_off_c, 0, 69, 0
4, 14160, Note_on_c, 0, 73, 88
4, 14218, Note_off_c, 0, 73, 0
4, 14220, Note_on_c, 0, 64, 88
4, 14278, Note_off_c, 0, 64, 0
4, 14280, Note_on_c, 0, 71, 88
4, 14338, Note_off_c, 0, 71, 0
4, 14340, Note_on_c, 0, 62, 88
4, 14398, Note_off_c, 0, 62, 0
4, 14400, Note_on_c, 0, 61, 88
4, 14458, Note_off_c, 0, 61, 0
4, 14460, Note_on_c, 0, 64, 88
4, 14518, Note_off_c, 0, 64, 0
4, 14520, Note_on_c, 0, 69, 88
4, 14695, Note_off_c, 0, 69, 0
4, 14700, Note_on_c, 0, 64, 88
4, 14758, Note_off_c, 0, 64, 0
4, 14760, Note_on_c, 0, 69, 88
4, 14818, Note_off_c, 0, 69, 0
4, 14820, Note_on_c, 0, 71, 88
4, 14878, Note_off_c, 0, 71, 0
4, 14880, Note_on_c, 0, 73, 88
4, 14938, Note_off_c, 0, 73, 0
4, 14940, Note_on_c, 0, 69, 88
4, 14998, Note_off_c, 0, 69, 0
4, 15000, Note_on_c, 0, 66, 88
4, 15058, Note_off_c, 0, 66, 0
4, 15060, Note_on_c, 0, 75, 88
4, 15118, Note_off_c, 0, 75, 0
4, 15120, Note_on_c, 0, 76, 88
4, 15178, Note_off_c, 0, 76, 0
4, 15180, Note_on_c, 0, 71, 88
4, 15296, Note_off_c, 0, 71, 0
4, 15300, Note_on_c, 0, 75, 88
4, 15358, Note_off_c, 0, 75, 0
4, 15360, Note_on_c, 0, 76, 88
4, 15418, Note_off_c, 0, 76, 0
4, 15420, Note_on_c, 0, 71, 88
4, 15536, Note_off_c, 0, 71, 0
4, 15540, Note_on_c, 0, 75, 88
4, 15598, Note_off_c, 0, 75, 0
4, 15600, Note_on_c, 0, 76, 88
4, 15658, Note_off_c, 0, 76, 0
4, 15660, Note_on_c, 0, 71, 88
4, 15718, Note_off_c, 0, 71, 0
4, 15720, Note_on_c, 0, 70, 88
4, 15778, Note_off_c, 0, 70, 0
4, 15780, Note_on_c, 0, 76, 88
4, 15838, Note_off_c, 0, 76, 0
4, 15840, Note_on_c, 0, 74, 88
4, 15898, Note_off_c, 0, 74, 0
4, 15900, Note_on_c, 0, 73, 88
4, 15958, Note_off_c, 0, 73, 0
4, 15960, Note_on_c, 0, 71, 88
4, 16135, Note_off_c, 0, 71, 0
4, 16140, Note_on_c, 0, 66, 88
4, 16198, Note_off_c, 0, 66, 0
4, 16200, Note_on_c, 0, 71, 88
4, 16258, Note_off_c, 0, 71, 0
4, 16260, Note_on_c, 0, 73, 88
4, 16318, Note_off_c, 0, 73, 0
4, 16320, Note_on_c, 0, 74, 88
4, 16378, Note_off_c, 0, 74, 0
4, 16380, Note_on_c, 0, 71, 88
4, 16438, Note_off_c, 0, 71, 0
4, 16440, Note_on_c, 0, 68, 88
4, 16498, Note_off_c, 0, 68, 0
4, 16500, Note_on_c, 0, 77, 88
4, 16558, Note_off_c, 0, 77, 0
4, 16560, Note_on_c, 0, 78, 88
4, 16618, Note_off_c, 0, 78, 0
4, 16620, Note_on_c, 0, 73, 88
4, 16736, Note_off_c, 0, 73, 0
4, 16740, Note_on_c, 0, 77, 88
4, 16798, Note_off_c, 0, 77, 0
4, 16800, Note_on_c, 0, 78, 88
4, 16858, Note_off_c, 0, 78, 0
4, 16860, Note_on_c, 0, 73, 88
4, 16976, Note_off_c, 0, 73, 0
4, 16980, Note_on_c, 0, 77, 88
4, 17038, Note_off_c, 0, 77, 0
4, 17040, Note_on_c, 0, 78, 88
4, 17098, Note_off_c, 0, 78, 0
4, 17100, Note_on_c, 0, 73, 88
4, 17158, Note_off_c, 0, 73, 0
4, 17160, Note_on_c, 0, 72, 88
4, 17218, Note_off_c, 0, 72, 0
4, 17220, Note_on_c, 0, 78, 88
4, 17278, Note_off_c, 0, 78, 0
4, 17280, Note_on_c, 0, 76, 88
4, 17338, Note_off_c, 0, 76, 0
4, 17340, Note_on_c, 0, 75, 88
4, 17398, Note_off_c, 0, 75, 0
4, 17400, Note_on_c, 0, 73, 88
4, 17575, Note_off_c, 0, 73, 0
4, 17580, Note_on_c, 0, 68, 88
4, 17638, Note_off_c, 0, 68, 0
4, 17640, Note_on_c, 0, 73, 88
4, 17698, Note_off_c, 0, 73, 0
4, 17700, Note_on_c, 0, 75, 88
4, 17758, Note_off_c, 0, 75, 0
4, 17760, Note_on_c, 0, 76, 88
4, 17818, Note_off_c, 0, 76, 0
4, 17820, Note_on_c, 0, 73, 88
4, 17878, Note_off_c, 0, 73, 0
4, 17880, Note_on_c, 0, 70, 88
4, 17938, Note_off_c, 0, 70, 0
4, 17940, Note_on_c, 0, 79, 88
4, 17998, Note_off_c, 0, 79, 0
4, 18000, Note_on_c, 0, 78, 88
4, 18058, Note_off_c, 0, 78, 0
4, 18060, Note_on_c, 0, 74, 88
4, 18118, Note_off_c, 0, 74, 0
4, 18120, Note_on_c, 0, 71, 88
4, 18178, Note_off_c, 0, 71, 0
4, 18180, Note_on_c, 0, 70, 88
4, 18238, Note_off_c, 0, 70, 0
4, 18240, Note_on_c, 0, 71, 88
4, 18298, Note_off_c, 0, 71, 0
4, 18300, Note_on_c, 0, 66, 88
4, 18358, Note_off_c, 0, 66, 0
4, 18360, Note_on_c, 0, 71, 88
4, 18418, Note_off_c, 0, 71, 0
4, 18420, Note_on_c, 0, 74, 88
4, 18478, Note_off_c, 0, 74, 0
4, 18480, Note_on_c, 0, 78, 88
4, 18538, Note_off_c, 0, 78, 0
4, 18540, Note_on_c, 0, 74, 88
4, 18598, Note_off_c, 0, 74, 0
4, 18600, Note_on_c, 0, 72, 88
4, 18658, Note_off_c, 0, 72, 0
4, 18660, Note_on_c, 0, 81, 88
4, 18718, Note_off_c, 0, 81, 0
4, 18720, Note_on_c, 0, 80, 88
4, 18778, Note_off_c, 0, 80, 0
4, 18780, Note_on_c, 0, 76, 88
4, 18838, Note_off_c, 0, 76, 0
4, 18840, Note_on_c, 0, 73, 88
4, 18898, Note_off_c, 0, 73, 0
4, 18900, Note_on_c, 0, 72, 88
4, 18958, Note_off_c, 0, 72, 0
4, 18960, Note_on_c, 0, 73, 88
4, 19018, Note_off_c, 0, 73, 0
4, 19020, Note_on_c, 0, 68, 88
4, 19078, Note_off_c, 0, 68, 0
4, 19080, Note_on_c, 0, 73, 88
4, 19138, Note_off_c, 0, 73, 0
4, 19140, Note_on_c, 0, 76, 88
4, 19198, Note_off_c, 0, 76, 0
4, 19200, Note_on_c, 0, 80, 88
4, 19258, Note_off_c, 0, 80, 0
4, 19260, Note_on_c, 0, 77, 88
4, 19318, Note_off_c, 0, 77, 0
4, 19320, Note_on_c, 0, 74, 88
4, 19378, Note_off_c, 0, 74, 0
4, 19380, Note_on_c, 0, 83, 88
4, 19438, Note_off_c, 0, 83, 0
4, 19440, Note_on_c, 0, 81, 88
4, 19498, Note_off_c, 0, 81, 0
4, 19500, Note_on_c, 0, 78, 88
4, 19616, Note_off_c, 0, 78, 0
4, 19620, Note_on_c, 0, 77, 88
4, 19678, Note_off_c, 0, 77, 0
4, 19680, Note_on_c, 0, 78, 88
4, 19738, Note_off_c, 0, 78, 0
4, 19740, Note_on_c, 0, 74, 88
4, 19856, Note_off_c, 0, 74, 0
4, 19860, Note_on_c, 0, 73, 88
4, 19907, Note_off_c, 0, 73, 0
4, 19920, Note_on_c, 0, 73, 88
4, 19978, Note_off_c, 0, 73, 0
4, 19980, Note_on_c, 0, 72, 88
4, 20096, Note_off_c, 0, 72, 0
4, 20100, Note_on_c, 0, 78, 88
4, 20158, Note_off_c, 0, 78, 0
4, 20160, Note_on_c, 0, 78, 88
4, 20276, Note_off_c, 0, 78, 0
4, 20280, Note_on_c, 0, 77, 88
4, 20396, Note_off_c, 0, 77, 0
4, 20880, Note_on_c, 0, 78, 88
4, 20996, Note_off_c, 0, 78, 0
4, 21000, Note_on_c, 0, 73, 88
4, 21234, Note_off_c, 0, 73, 0
4, 21240, Note_on_c, 0, 69, 88
4, 21298, Note_off_c, 0, 69, 0
4, 21300, Note_on_c, 0, 71, 88
4, 21358, Note_off_c, 0, 71, 0
4, 21360, Note_on_c, 0, 73, 88
4, 21399, Note_off_c, 0, 73, 0
4, 21400, Note_on_c, 0, 71, 88
4, 21439, Note_off_c, 0, 71, 0
4, 21440, Note_on_c, 0, 69, 88
4, 21479, Note_off_c, 0, 69, 0
4, 21480, Note_on_c, 0, 71, 88
4, 21519, Note_off_c, 0, 71, 0
4, 21520, Note_on_c, 0, 69, 88
4, 21559, Note_off_c, 0, 69, 0
4, 21560, Note_on_c, 0, 68, 88
4, 21599, Note_off_c, 0, 68, 0
4, 21600, Note_on_c, 0, 69, 88
4, 21658, Note_off_c, 0, 69, 0
4, 21660, Note_on_c, 0, 71, 88
4, 21718, Note_off_c, 0, 71, 0
4, 21720, Note_on_c, 0, 69, 88
4, 21778, Note_off_c, 0, 69, 0
4, 21780, Note_on_c, 0, 68, 88
4, 21838, Note_off_c, 0, 68, 0
4, 21840, Note_on_c, 0, 69, 88
4, 21898, Note_off_c, 0, 69, 0
4, 21900, Note_on_c, 0, 73, 88
4, 21958, Note_off_c, 0, 73, 0
4, 21960, Note_on_c, 0, 78, 88
4, 22018, Note_off_c, 0, 78, 0
4, 22020, Note_on_c, 0, 80, 88
4, 22078, Note_off_c, 0, 80, 0
4, 22080, Note_on_c, 0, 81, 88
4, 22119, Note_off_c, 0, 81, 0
4, 22120, Note_on_c, 0, 80, 88
4, 22159, Note_off_c, 0, 80, 0
4, 22160, Note_on_c, 0, 78, 88
4, 22199, Note_off_c, 0, 78, 0
4, 22200, Note_on_c, 0, 80, 88
4, 22239, Note_off_c, 0, 80, 0
4, 22240, Note_on_c, 0, 78, 88
4, 22279, Note_off_c, 0, 78, 0
4, 22280, Note_on_c, 0, 77, 88
4, 22319, Note_off_c, 0, 77, 0
4, 22320, Note_on_c, 0, 78, 88
4, 22378, Note_off_c, 0, 78, 0
4, 22380, Note_on_c, 0, 73, 88
4, 22496, Note_off_c, 0, 73, 0
4, 22500, Note_on_c, 0, 77, 88
4, 22558, Note_off_c, 0, 77, 0
4, 22560, Note_on_c, 0, 78, 88
4, 22618, Note_off_c, 0, 78, 0
4, 22620, Note_on_c, 0, 73, 88
4, 22736, Note_off_c, 0, 73, 0
4, 22740, Note_on_c, 0, 77, 88
4, 22798, Note_off_c, 0, 77, 0
4, 22800, Note_on_c, 0, 78, 88
4, 22858, Note_off_c, 0, 78, 0
4, 22860, Note_on_c, 0, 74, 88
4, 22918, Note_off_c, 0, 74, 0
4, 22920, Note_on_c, 0, 73, 88
4, 22978, Note_off_c, 0, 73, 0
4, 22980, Note_on_c, 0, 82, 88
4, 23038, Note_off_c, 0, 82, 0
4, 23040, Note_on_c, 0, 83, 88
4, 23098, Note_off_c, 0, 83, 0
4, 23100, Note_on_c, 0, 78, 88
4, 23216, Note_off_c, 0, 78, 0
4, 23220, Note_on_c, 0, 82, 88
4, 23278, Note_off_c, 0, 82, 0
4, 23280, Note_on_c, 0, 83, 88
4, 23338, Note_off_c, 0, 83, 0
4, 23340, Note_on_c, 0, 78, 88
4, 23456, Note_off_c, 0, 78, 0
4, 23460, Note_on_c, 0, 82, 88
4, 23518, Note_off_c, 0, 82, 0
4, 23520, Note_on_c, 0, 83, 88
4, 23559, Note_off_c, 0, 83, 0
4, 23560, Note_on_c, 0, 81, 88
4, 23599, Note_off_c, 0, 81, 0
4, 23600, Note_on_c, 0, 80, 88
4, 23639, Note_off_c, 0, 80, 0
4, 23640, Note_on_c, 0, 81, 88
4, 23679, Note_off_c, 0, 81, 0
4, 23680, Note_on_c, 0, 80, 88
4, 23719, Note_off_c, 0, 80, 0
4, 23720, Note_on_c, 0, 78, 88
4, 23759, Note_off_c, 0, 78, 0
4, 23760, Note_on_c, 0, 79, 88
4, 23818, Note_off_c, 0, 79, 0
4, 23820, Note_on_c, 0, 74, 88
4, 23936, Note_off_c, 0, 74, 0
4, 23940, Note_on_c, 0, 78, 88
4, 23998, Note_off_c, 0, 78, 0
4, 24000, Note_on_c, 0, 79, 88
4, 24058, Note_off_c, 0, 79, 0
4, 24060, Note_on_c, 0, 74, 88
4, 24176, Note_off_c, 0, 74, 0
4, 24180, Note_on_c, 0, 78, 88
4, 24238, Note_off_c, 0, 78, 0
4, 24240, Note_on_c, 0, 79, 88
4, 24279, Note_off_c, 0, 79, 0
4, 24280, Note_on_c, 0, 81, 88
4, 24319, Note_off_c, 0, 81, 0
4, 24320, Note_on_c, 0, 83, 88
4, 24359, Note_off_c, 0, 83, 0
4, 24360, Note_on_c, 0, 81, 88
4, 24399, Note_off_c, 0, 81, 0
4, 24400, Note_on_c, 0, 80, 88
4, 24439, Note_off_c, 0, 80, 0
4, 24440, Note_on_c, 0, 78, 88
4, 24479, Note_off_c, 0, 78, 0
4, 24480, Note_on_c, 0, 77, 88
4, 24519, Note_off_c, 0, 77, 0
4, 24520, Note_on_c, 0, 78, 88
4, 24559, Note_off_c, 0, 78, 0
4, 24560, Note_on_c, 0, 80, 88
4, 24599, Note_off_c, 0, 80, 0
4, 24600, Note_on_c, 0, 78, 88
4, 24639, Note_off_c, 0, 78, 0
4, 24640, Note_on_c, 0, 77, 88
4, 24679, Note_off_c, 0, 77, 0
4, 24680, Note_on_c, 0, 75, 88
4, 24719, Note_off_c, 0, 75, 0
4, 24720, Note_on_c, 0, 73, 88
4, 24759, Note_off_c, 0, 73, 0
4, 24760, Note_on_c, 0, 71, 88
4, 24799, Note_off_c, 0, 71, 0
4, 24800, Note_on_c, 0, 73, 88
4, 24839, Note_off_c, 0, 73, 0
4, 24840, Note_on_c, 0, 74, 88
4, 24879, Note_off_c, 0, 74, 0
4, 24880, Note_on_c, 0, 73, 88
4, 24919, Note_off_c, 0, 73, 0
4, 24920, Note_on_c, 0, 71, 88
4, 24959, Note_off_c, 0, 71, 0
4, 24960, Note_on_c, 0, 69, 88
4, 24999, Note_off_c, 0, 69, 0
4, 25000, Note_on_c, 0, 71, 88
4, 25039, Note_off_c, 0, 71, 0
4, 25040, Note_on_c, 0, 73, 88
4, 25079, Note_off_c, 0, 73, 0
4, 25080, Note_on_c, 0, 71, 88
4, 25119, Note_off_c, 0, 71, 0
4, 25120, Note_on_c, 0, 69, 88
4, 25159, Note_off_c, 0, 69, 0
4, 25160, Note_on_c, 0, 68, 88
4, 25199, Note_off_c, 0, 68, 0
4, 25200, Note_on_c, 0, 66, 88
4, 25258, Note_off_c, 0, 66, 0
4, 25260, Note_on_c, 0, 77, 88
4, 25376, Note_off_c, 0, 77, 0
4, 25380, Note_on_c, 0, 78, 88
4, 25438, Note_off_c, 0, 78, 0
4, 25440, Note_on_c, 0, 68, 88
4, 25498, Note_off_c, 0, 68, 0
4, 25500, Note_on_c, 0, 78, 88
4, 25616, Note_off_c, 0, 78, 0
4, 25620, Note_on_c, 0, 77, 88
4, 25678, Note_off_c, 0, 77, 0
4, 25680, Note_on_c, 0, 70, 88
4, 25738, Note_off_c, 0, 70, 0
4, 25740, Note_on_c, 0, 76, 88
4, 25856, Note_off_c, 0, 76, 0
4, 25860, Note_on_c, 0, 75, 88
4, 25918, Note_off_c, 0, 75, 0
4, 25920, Note_on_c, 0, 75, 88
4, 25959, Note_off_c, 0, 75, 0
4, 25960, Note_on_c, 0, 76, 88
4, 25999, Note_off_c, 0, 76, 0
4, 26000, Note_on_c, 0, 78, 88
4, 26039, Note_off_c, 0, 78, 0
4, 26040, Note_on_c, 0, 76, 88
4, 26079, Note_off_c, 0, 76, 0
4, 26080, Note_on_c, 0, 75, 88
4, 26119, Note_off_c, 0, 75, 0
4, 26120, Note_on_c, 0, 73, 88
4, 26159, Note_off_c, 0, 73, 0
4, 26160, Note_on_c, 0, 72, 88
4, 26199, Note_off_c, 0, 72, 0
4, 26200, Note_on_c, 0, 73, 88
4, 26239, Note_off_c, 0, 73, 0
4, 26240, Note_on_c, 0, 75, 88
4, 26279, Note_off_c, 0, 75, 0
4, 26280, Note_on_c, 0, 73, 88
4, 26319, Note_off_c, 0, 73, 0
4, 26320, Note_on_c, 0, 72, 88
4, 26359, Note_off_c, 0, 72, 0
4, 26360, Note_on_c, 0, 70, 88
4, 26399, Note_off_c, 0, 70, 0
4, 26400, Note_on_c, 0, 68, 88
4, 26439, Note_off_c, 0, 68, 0
4, 26440, Note_on_c, 0, 66, 88
4, 26479, Note_off_c, 0, 66, 0
4, 26480, Note_on_c, 0, 68, 88
4, 26519, Note_off_c, 0, 68, 0
4, 26520, Note_on_c, 0, 69, 88
4, 26559, Note_off_c, 0, 69, 0
4, 26560, Note_on_c, 0, 68, 88
4, 26599, Note_off_c, 0, 68, 0
4, 26600, Note_on_c, 0, 66, 88
4, 26639, Note_off_c, 0, 66, 0
4, 26640, Note_on_c, 0, 65, 88
4, 26679, Note_off_c, 0, 65, 0
4, 26680, Note_on_c, 0, 66, 88
4, 26719, Note_off_c, 0, 66, 0
4, 26720, Note_on_c, 0, 68, 88
4, 26759, Note_off_c, 0, 68, 0
4, 26760, Note_on_c, 0, 66, 88
4, 26799, Note_off_c, 0, 66, 0
4, 26800, Note_on_c, 0, 65, 88
4, 26839, Note_off_c, 0, 65, 0
4, 26840, Note_on_c, 0, 63, 88
4, 26879, Note_off_c, 0, 63, 0
4, 26880, Note_on_c, 0, 61, 88
4, 27174, Note_off_c, 0, 61, 0
4, 27180, Note_on_c, 0, 65, 88
4, 27209, Note_off_c, 0, 65, 0
4, 27210, Note_on_c, 0, 68, 88
4, 27239, Note_off_c, 0, 68, 0
4, 27240, Note_on_c, 0, 71, 88
4, 27298, Note_off_c, 0, 71, 0
4, 27300, Note_on_c, 0, 74, 88
4, 27358, Note_off_c, 0, 74, 0
4, 27360, Note_on_c, 0, 73, 88
4, 27399, Note_off_c, 0, 73, 0
4, 27400, Note_on_c, 0, 75, 88
4, 27439, Note_off_c, 0, 75, 0
4, 27440, Note_on_c, 0, 77, 88
4, 27479, Note_off_c, 0, 77, 0
4, 27480, Note_on_c, 0, 78, 88
4, 27519, Note_off_c, 0, 78, 0
4, 27520, Note_on_c, 0, 76, 88
4, 27559, Note_off_c, 0, 76, 0
4, 27560, Note_on_c, 0, 74, 88
4, 27599, Note_off_c, 0, 74, 0
4, 27600, Note_on_c, 0, 73, 88
4, 27639, Note_off_c, 0, 73, 0
4, 27640, Note_on_c, 0, 71, 88
4, 27679, Note_off_c, 0, 71, 0
4, 27680, Note_on_c, 0, 69, 88
4, 27719, Note_off_c, 0, 69, 0
4, 27720, Note_on_c, 0, 74, 88
4, 27759, Note_off_c, 0, 74, 0
4, 27760, Note_on_c, 0, 73, 88
4, 27799, Note_off_c, 0, 73, 0
4, 27800, Note_on_c, 0, 71, 88
4, 27839, Note_off_c, 0, 71, 0
4, 27840, Note_on_c, 0, 69, 88
4, 27879, Note_off_c, 0, 69, 0
4, 27880, Note_on_c, 0, 68, 88
4, 27919, Note_off_c, 0, 68, 0
4, 27920, Note_on_c, 0, 66, 88
4, 27959, Note_off_c, 0, 66, 0
4, 27960, Note_on_c, 0, 68, 88
4, 27999, Note_off_c, 0, 68, 0
4, 28000, Note_on_c, 0, 66, 88
4, 28039, Note_off_c, 0, 66, 0
4, 28040, Note_on_c, 0, 65, 88
4, 28079, Note_off_c, 0, 65, 0
4, 28080, Note_on_c, 0, 66, 88
4, 28611, Note_off_c, 0, 66, 0
4, 28620, Note_on_c, 0, 65, 88
4, 28736, Note_off_c, 0, 65, 0
4, 28740, Note_on_c, 0, 66, 88
4, 28798, Note_off_c, 0, 66, 0
4, 28800, Note_on_c, 0, 74, 88
4, 28858, Note_off_c, 0, 74, 0
4, 28860, Note_on_c, 0, 72, 88
4, 28976, Note_off_c, 0, 72, 0
4, 28980, Note_on_c, 0, 73, 88
4, 29038, Note_off_c, 0, 73, 0
4, 29040, Note_on_c, 0, 65, 88
4, 29098, Note_off_c, 0, 65, 0
4, 29100, Note_on_c, 0, 71, 88
4, 29216, Note_off_c, 0, 71, 0
4, 29220, Note_on_c, 0, 69, 88
4, 29278, Note_off_c, 0, 69, 0
4, 29280, Note_on_c, 0, 68, 88
4, 29319, Note_off_c, 0, 68, 0
4, 29320, Note_on_c, 0, 71, 88
4, 29359, Note_off_c, 0, 71, 0
4, 29360, Note_on_c, 0, 69, 88
4, 29399, Note_off_c, 0, 69, 0
4, 29400, Note_on_c, 0, 68, 88
4, 29439, Note_off_c, 0, 68, 0
4, 29440, Note_on_c, 0, 66, 88
4, 29479, Note_off_c, 0, 66, 0
4, 29480, Note_on_c, 0, 65, 88
4, 29519, Note_off_c, 0, 65, 0
4, 29520, Note_on_c, 0, 66, 88
4, 29559, Note_off_c, 0, 66, 0
4, 29560, Note_on_c, 0, 68, 88
4, 29599, Note_off_c, 0, 68, 0
4, 29600, Note_on_c, 0, 69, 88
4, 29639, Note_off_c, 0, 69, 0
4, 29640, Note_on_c, 0, 71, 88
4, 29679, Note_off_c, 0, 71, 0
4, 29680, Note_on_c, 0, 73, 88
4, 29719, Note_off_c, 0, 73, 0
4, 29720, Note_on_c, 0, 74, 88
4, 29759, Note_off_c, 0, 74, 0
4, 29760, Note_on_c, 0, 61, 88
4, 29876, Note_off_c, 0, 61, 0
4, 29880, Note_on_c, 0, 66, 88
4, 30047, Note_off_c, 0, 66, 0
4, 30060, Note_on_c, 0, 66, 88
4, 30176, Note_off_c, 0, 66, 0
4, 30180, Note_on_c, 0, 65, 88
4, 30238, Note_off_c, 0, 65, 0
4, 30240, Note_on_c, 0, 66, 88
4, 30948, Note_off_c, 0, 66, 0
4, 30948, End_track
5, 0, Start_track
5, 0, Title_t, "Track 2"
5, 0, Program_c, 1, 6
5, 20160, Note_on_c, 1, 73, 88
5, 20394, Note_off_c, 1, 73, 0
5, 28120, Note_on_c, 1, 64, 88
5, 28159, Note_off_c, 1, 64, 0
5, 28160, Note_on_c, 1, 62, 88
5, 28199, Note_off_c, 1, 62, 0
5, 28200, Note_on_c, 1, 61, 88
5, 28239, Note_off_c, 1, 61, 0
5, 28240, Note_on_c, 1, 62, 88
5, 28279, Note_off_c, 1, 62, 0
5, 28280, Note_on_c, 1, 64, 88
5, 28319, Note_off_c, 1, 64, 0
5, 28320, Note_on_c, 1, 62, 88
5, 28359, Note_off_c, 1, 62, 0
5, 28360, Note_on_c, 1, 61, 88
5, 28399, Note_off_c, 1, 61, 0
5, 28400, Note_on_c, 1, 59, 88
5, 28439, Note_off_c, 1, 59, 0
5, 28440, Note_on_c, 1, 58, 88
5, 28479, Note_off_c, 1, 58, 0
5, 28480, Note_on_c, 1, 59, 88
5, 28519, Note_off_c, 1, 59, 0
5, 28520, Note_on_c, 1, 61, 88
5, 28559, Note_off_c, 1, 61, 0
5, 28560, Note_on_c, 1, 59, 88
5, 28676, Note_off_c, 1, 59, 0
5, 28680, Note_on_c, 1, 57, 88
5, 28796, Note_off_c, 1, 57, 0
5, 28800, Note_on_c, 1, 56, 88
5, 28916, Note_off_c, 1, 56, 0
5, 28920, Note_on_c, 1, 57, 88
5, 29036, Note_off_c, 1, 57, 0
5, 29040, Note_on_c, 1, 59, 88
5, 29156, Note_off_c, 1, 59, 0
5, 29880, Note_on_c, 1, 56, 88
5, 29996, Note_off_c, 1, 56, 0
5, 30000, Note_on_c, 1, 57, 88
5, 30116, Note_off_c, 1, 57, 0
5, 30120, Note_on_c, 1, 59, 88
5, 30236, Note_off_c, 1, 59, 0
5, 30240, Note_on_c, 1, 58, 88
5, 30948, Note_off_c, 1, 58, 0
5, 30948, End_track
6, 0, Start_track
6, 0, Title_t, "Track 3"
6, 0, Program_c, 2, 6
6, 120, Note_on_c, 2, 57, 88
6, 236, Note_off_c, 2, 57, 0
6, 240, Note_on_c, 2, 61, 88
6, 356, Note_off_c, 2, 61, 0
6, 360, Note_on_c, 2, 66, 88
6, 594, Note_off_c, 2, 66, 0
6, 600, Note_on_c, 2, 65, 88
6, 716, Note_off_c, 2, 65, 0
6, 720, Note_on_c, 2, 66, 88
6, 836, Note_off_c, 2, 66, 0
6, 840, Note_on_c, 2, 61, 88
6, 1074, Note_off_c, 2, 61, 0
6, 1080, Note_on_c, 2, 57, 88
6, 1138, Note_off_c, 2, 57, 0
6, 1140, Note_on_c, 2, 59, 88
6, 1198, Note_off_c, 2, 59, 0
6, 1200, Note_on_c, 2, 61, 88
6, 1239, Note_off_c, 2, 61, 0
6, 1240, Note_on_c, 2, 59, 88
6, 1279, Note_off_c, 2, 59, 0
6, 1280, Note_on_c, 2, 57, 88
6, 1319, Note_off_c, 2, 57, 0
6, 1320, Note_on_c, 2, 59, 88
6, 1359, Note_off_c, 2, 59, 0
6, 1360, Note_on_c, 2, 57, 88
6, 1399, Note_off_c, 2, 57, 0
6, 1400, Note_on_c, 2, 56, 88
6, 1439, Note_off_c, 2, 56, 0
6, 1440, Note_on_c, 2, 57, 88
6, 1556, Note_off_c, 2, 57, 0
6, 1560, Note_on_c, 2, 59, 88
6, 1676, Note_off_c, 2, 59, 0
6, 1680, Note_on_c, 2, 61, 88
6, 1796, Note_off_c, 2, 61, 0
6, 1800, Note_on_c, 2, 68, 88
6, 1916, Note_off_c, 2, 68, 0
6, 1920, Note_on_c, 2, 66, 88
6, 2036, Note_off_c, 2, 66, 0
6, 2040, Note_on_c, 2, 65, 88
6, 2156, Note_off_c, 2, 65, 0
6, 2160, Note_on_c, 2, 66, 88
6, 2276, Note_off_c, 2, 66, 0
6, 2280, Note_on_c, 2, 61, 88
6, 2396, Note_off_c, 2, 61, 0
6, 2400, Note_on_c, 2, 54, 88
6, 2516, Note_off_c, 2, 54, 0
6, 2520, Note_on_c, 2, 53, 88
6, 2636, Note_off_c, 2, 53, 0
6, 2640, Note_on_c, 2, 54, 88
6, 2756, Note_off_c, 2, 54, 0
6, 2760, Note_on_c, 2, 59, 88
6, 2876, Note_off_c, 2, 59, 0
6, 3000, Note_on_c, 2, 56, 88
6, 3116, Note_off_c, 2, 56, 0
6, 3120, Note_on_c, 2, 57, 88
6, 3236, Note_off_c, 2, 57, 0
6, 3240, Note_on_c, 2, 54, 88
6, 3356, Note_off_c, 2, 54, 0
6, 3360, Note_on_c, 2, 53, 88
6, 3627, Note_off_c, 2, 53, 0
6, 3640, Note_on_c, 2, 53, 88
6, 3679, Note_off_c, 2, 53, 0
6, 3680, Note_on_c, 2, 54, 88
6, 3719, Note_off_c, 2, 54, 0
6, 3720, Note_on_c, 2, 56, 88
6, 3759, Note_off_c, 2, 56, 0
6, 3760, Note_on_c, 2, 54, 88
6, 3799, Note_off_c, 2, 54, 0
6, 3800, Note_on_c, 2, 53, 88
6, 3839, Note_off_c, 2, 53, 0
6, 3840, Note_on_c, 2, 54, 88
6, 3879, Note_off_c, 2, 54, 0
6, 3880, Note_on_c, 2, 56, 88
6, 3919, Note_off_c, 2, 56, 0
6, 3920, Note_on_c, 2, 57, 88
6, 3959, Note_off_c, 2, 57, 0
6, 3960, Note_on_c, 2, 59, 88
6, 3999, Note_off_c, 2, 59, 0
6, 4000, Note_on_c, 2, 57, 88
6, 4039, Note_off_c, 2, 57, 0
6, 4040, Note_on_c, 2, 56, 88
6, 4079, Note_off_c, 2, 56, 0
6, 4080, Note_on_c, 2, 57, 88
6, 4378, Note_off_c, 2, 57, 0
6, 4380, Note_on_c, 2, 56, 88
6, 4409, Note_off_c, 2, 56, 0
6, 4410, Note_on_c, 2, 54, 88
6, 4439, Note_off_c, 2, 54, 0
6, 4440, Note_on_c, 2, 56, 88
6, 4793, Note_off_c, 2, 56, 0
6, 5640, Note_on_c, 2, 57, 88
6, 5927, Note_off_c, 2, 57, 0
6, 5940, Note_on_c, 2, 57, 88
6, 5998, Note_off_c, 2, 57, 0
6, 6000, Note_on_c, 2, 56, 88
6, 6116, Note_off_c, 2, 56, 0
6, 6120, Note_on_c, 2, 54, 88
6, 6236, Note_off_c, 2, 54, 0
6, 6240, Note_on_c, 2, 52, 88
6, 6356, Note_off_c, 2, 52, 0
6, 6360, Note_on_c, 2, 51, 88
6, 6476, Note_off_c, 2, 51, 0
6, 6480, Note_on_c, 2, 49, 88
6, 7067, Note_off_c, 2, 49, 0
6, 7080, Note_on_c, 2, 49, 88
6, 7196, Note_off_c, 2, 49, 0
6, 7200, Note_on_c, 2, 54, 88
6, 7316, Note_off_c, 2, 54, 0
6, 7800, Note_on_c, 2, 54, 88
6, 8036, Note_off_c, 2, 54, 0
6, 8040, Note_on_c, 2, 52, 88
6, 8156, Note_off_c, 2, 52, 0
6, 8160, Note_on_c, 2, 56, 88
6, 8276, Note_off_c, 2, 56, 0
6, 8280, Note_on_c, 2, 61, 88
6, 8514, Note_off_c, 2, 61, 0
6, 8520, Note_on_c, 2, 60, 88
6, 8636, Note_off_c, 2, 60, 0
6, 8640, Note_on_c, 2, 61, 88
6, 8756, Note_off_c, 2, 61, 0
6, 8760, Note_on_c, 2, 56, 88
6, 8935, Note_off_c, 2, 56, 0
6, 8940, Note_on_c, 2, 54, 88
6, 8998, Note_off_c, 2, 54, 0
6, 9000, Note_on_c, 2, 52, 88
6, 9116, Note_off_c, 2, 52, 0
6, 9240, Note_on_c, 2, 52, 88
6, 9476, Note_off_c, 2, 52, 0
6, 9480, Note_on_c, 2, 49, 88
6, 9596, Note_off_c, 2, 49, 0
6, 9600, Note_on_c, 2, 54, 88
6, 10187, Note_off_c, 2, 54, 0
6, 10200, Note_on_c, 2, 54, 88
6, 10316, Note_off_c, 2, 54, 0
6, 10320, Note_on_c, 2, 59, 88
6, 10378, Note_off_c, 2, 59, 0
6, 10380, Note_on_c, 2, 54, 88
6, 10487, Note_off_c, 2, 54, 0
6, 10500, Note_on_c, 2, 54, 88
6, 10616, Note_off_c, 2, 54, 0
6, 10620, Note_on_c, 2, 50, 88
6, 10916, Note_off_c, 2, 50, 0
6, 10920, Note_on_c, 2, 47, 88
6, 11036, Note_off_c, 2, 47, 0
6, 11040, Note_on_c, 2, 52, 88
6, 11627, Note_off_c, 2, 52, 0
6, 11640, Note_on_c, 2, 52, 88
6, 11756, Note_off_c, 2, 52, 0
6, 11760, Note_on_c, 2, 57, 88
6, 11876, Note_off_c, 2, 57, 0
6, 11880, Note_on_c, 2, 56, 88
6, 11996, Note_off_c, 2, 56, 0
6, 12000, Note_on_c, 2, 57, 88
6, 12347, Note_off_c, 2, 57, 0
6, 12360, Note_on_c, 2, 57, 88
6, 12476, Note_off_c, 2, 57, 0
6, 12480, Note_on_c, 2, 62, 88
6, 12596, Note_off_c, 2, 62, 0
6, 12600, Note_on_c, 2, 57, 88
6, 12767, Note_off_c, 2, 57, 0
6, 12780, Note_on_c, 2, 57, 88
6, 12896, Note_off_c, 2, 57, 0
6, 12900, Note_on_c, 2, 51, 88
6, 12958, Note_off_c, 2, 51, 0
6, 12960, Note_on_c, 2, 56, 88
6, 13076, Note_off_c, 2, 56, 0
6, 13080, Note_on_c, 2, 59, 88
6, 13196, Note_off_c, 2, 59, 0
6, 13200, Note_on_c, 2, 64, 88
6, 13316, Note_off_c, 2, 64, 0
6, 13320, Note_on_c, 2, 59, 88
6, 13436, Note_off_c, 2, 59, 0
6, 13440, Note_on_c, 2, 56, 88
6, 13674, Note_off_c, 2, 56, 0
6, 13680, Note_on_c, 2, 57, 88
6, 13796, Note_off_c, 2, 57, 0
6, 13800, Note_on_c, 2, 56, 88
6, 13975, Note_off_c, 2, 56, 0
6, 13980, Note_on_c, 2, 57, 88
6, 14096, Note_off_c, 2, 57, 0
6, 14100, Note_on_c, 2, 59, 88
6, 14216, Note_off_c, 2, 59, 0
6, 14220, Note_on_c, 2, 57, 88
6, 14336, Note_off_c, 2, 57, 0
6, 14340, Note_on_c, 2, 56, 88
6, 14398, Note_off_c, 2, 56, 0
6, 14400, Note_on_c, 2, 57, 88
6, 14634, Note_off_c, 2, 57, 0
6, 15000, Note_on_c, 2, 60, 88
6, 15116, Note_off_c, 2, 60, 0
6, 15120, Note_on_c, 2, 59, 88
6, 15236, Note_off_c, 2, 59, 0
6, 15240, Note_on_c, 2, 57, 88
6, 15356, Note_off_c, 2, 57, 0
6, 15360, Note_on_c, 2, 55, 88
6, 15476, Note_off_c, 2, 55, 0
6, 15480, Note_on_c, 2, 59, 88
6, 15596, Note_off_c, 2, 59, 0
6, 15600, Note_on_c, 2, 61, 88
6, 15834, Note_off_c, 2, 61, 0
6, 15840, Note_on_c, 2, 59, 88
6, 16074, Note_off_c, 2, 59, 0
6, 16440, Note_on_c, 2, 62, 88
6, 16556, Note_off_c, 2, 62, 0
6, 16560, Note_on_c, 2, 61, 88
6, 16676, Note_off_c, 2, 61, 0
6, 16680, Note_on_c, 2, 59, 88
6, 16796, Note_off_c, 2, 59, 0
6, 16800, Note_on_c, 2, 57, 88
6, 16916, Note_off_c, 2, 57, 0
6, 16920, Note_on_c, 2, 61, 88
6, 17036, Note_off_c, 2, 61, 0
6, 17040, Note_on_c, 2, 63, 88
6, 17274, Note_off_c, 2, 63, 0
6, 17280, Note_on_c, 2, 61, 88
6, 17455, Note_off_c, 2, 61, 0
6, 17460, Note_on_c, 2, 56, 88
6, 17518, Note_off_c, 2, 56, 0
6, 17520, Note_on_c, 2, 52, 88
6, 17578, Note_off_c, 2, 52, 0
6, 17580, Note_on_c, 2, 49, 88
6, 17638, Note_off_c, 2, 49, 0
6, 17640, Note_on_c, 2, 52, 88
6, 17698, Note_off_c, 2, 52, 0
6, 17700, Note_on_c, 2, 56, 88
6, 17758, Note_off_c, 2, 56, 0
6, 17760, Note_on_c, 2, 61, 88
6, 18116, Note_off_c, 2, 61, 0
6, 18120, Note_on_c, 2, 54, 88
6, 18236, Note_off_c, 2, 54, 0
6, 18240, Note_on_c, 2, 50, 88
6, 18298, Note_off_c, 2, 50, 0
6, 18300, Note_on_c, 2, 47, 88
6, 18358, Note_off_c, 2, 47, 0
6, 18360, Note_on_c, 2, 50, 88
6, 18418, Note_off_c, 2, 50, 0
6, 18420, Note_on_c, 2, 54, 88
6, 18478, Note_off_c, 2, 54, 0
6, 18480, Note_on_c, 2, 59, 88
6, 18596, Note_off_c, 2, 59, 0
6, 18600, Note_on_c, 2, 54, 88
6, 18716, Note_off_c, 2, 54, 0
6, 18720, Note_on_c, 2, 61, 88
6, 18836, Note_off_c, 2, 61, 0
6, 18840, Note_on_c, 2, 56, 88
6, 18956, Note_off_c, 2, 56, 0
6, 18960, Note_on_c, 2, 52, 88
6, 19018, Note_off_c, 2, 52, 0
6, 19020, Note_on_c, 2, 49, 88
6, 19078, Note_off_c, 2, 49, 0
6, 19080, Note_on_c, 2, 52, 88
6, 19138, Note_off_c, 2, 52, 0
6, 19140, Note_on_c, 2, 56, 88
6, 19198, Note_off_c, 2, 56, 0
6, 19200, Note_on_c, 2, 61, 88
6, 19316, Note_off_c, 2, 61, 0
6, 19320, Note_on_c, 2, 56, 88
6, 19436, Note_off_c, 2, 56, 0
6, 19440, Note_on_c, 2, 54, 88
6, 19556, Note_off_c, 2, 54, 0
6, 19560, Note_on_c, 2, 56, 88
6, 19676, Note_off_c, 2, 56, 0
6, 19680, Note_on_c, 2, 57, 88
6, 19796, Note_off_c, 2, 57, 0
6, 19800, Note_on_c, 2, 56, 88
6, 19916, Note_off_c, 2, 56, 0
6, 19920, Note_on_c, 2, 54, 88
6, 20036, Note_off_c, 2, 54, 0
6, 20040, Note_on_c, 2, 56, 88
6, 20156, Note_off_c, 2, 56, 0
6, 20160, Note_on_c, 2, 57, 88
6, 20276, Note_off_c, 2, 57, 0
6, 20280, Note_on_c, 2, 56, 88
6, 20396, Note_off_c, 2, 56, 0
6, 21000, Note_on_c, 2, 57, 88
6, 21116, Note_off_c, 2, 57, 0
6, 21120, Note_on_c, 2, 61, 88
6, 21236, Note_off_c, 2, 61, 0
6, 21240, Note_on_c, 2, 66, 88
6, 21474, Note_off_c, 2, 66, 0
6, 21480, Note_on_c, 2, 65, 88
6, 21596, Note_off_c, 2, 65, 0
6, 21600, Note_on_c, 2, 66, 88
6, 21716, Note_off_c, 2, 66, 0
6, 21720, Note_on_c, 2, 61, 88
6, 21954, Note_off_c, 2, 61, 0
6, 21960, Note_on_c, 2, 57, 88
6, 22018, Note_off_c, 2, 57, 0
6, 22020, Note_on_c, 2, 59, 88
6, 22078, Note_off_c, 2, 59, 0
6, 22080, Note_on_c, 2, 61, 88
6, 22119, Note_off_c, 2, 61, 0
6, 22120, Note_on_c, 2, 59, 88
6, 22159, Note_off_c, 2, 59, 0
6, 22160, Note_on_c, 2, 57, 88
6, 22199, Note_off_c, 2, 57, 0
6, 22200, Note_on_c, 2, 59, 88
6, 22239, Note_off_c, 2, 59, 0
6, 22240, Note_on_c, 2, 57, 88
6, 22279, Note_off_c, 2, 57, 0
6, 22280, Note_on_c, 2, 56, 88
6, 22319, Note_off_c, 2, 56, 0
6, 22320, Note_on_c, 2, 57, 88
6, 22436, Note_off_c, 2, 57, 0
6, 22440, Note_on_c, 2, 59, 88
6, 22556, Note_off_c, 2, 59, 0
6, 22560, Note_on_c, 2, 61, 88
6, 22676, Note_off_c, 2, 61, 0
6, 22680, Note_on_c, 2, 59, 88
6, 22796, Note_off_c, 2, 59, 0
6, 22800, Note_on_c, 2, 57, 88
6, 22916, Note_off_c, 2, 57, 0
6, 22920, Note_on_c, 2, 55, 88
6, 23036, Note_off_c, 2, 55, 0
6, 23040, Note_on_c, 2, 54, 88
6, 23156, Note_off_c, 2, 54, 0
6, 23160, Note_on_c, 2, 52, 88
6, 23276, Note_off_c, 2, 52, 0
6, 23280, Note_on_c, 2, 54, 88
6, 23396, Note_off_c, 2, 54, 0
6, 23400, Note_on_c, 2, 61, 88
6, 23516, Note_off_c, 2, 61, 0
6, 23520, Note_on_c, 2, 54, 88
6, 23754, Note_off_c, 2, 54, 0
6, 23760, Note_on_c, 2, 59, 88
6, 23876, Note_off_c, 2, 59, 0
6, 23880, Note_on_c, 2, 62, 88
6, 23987, Note_off_c, 2, 62, 0
6, 24000, Note_on_c, 2, 62, 88
6, 24107, Note_off_c, 2, 62, 0
6, 24120, Note_on_c, 2, 62, 88
6, 24227, Note_off_c, 2, 62, 0
6, 24240, Note_on_c, 2, 62, 88
6, 24347, Note_off_c, 2, 62, 0
6, 24360, Note_on_c, 2, 62, 88
6, 24476, Note_off_c, 2, 62, 0
6, 24480, Note_on_c, 2, 61, 88
6, 24714, Note_off_c, 2, 61, 0
6, 24840, Note_on_c, 2, 56, 88
6, 24956, Note_off_c, 2, 56, 0
6, 24960, Note_on_c, 2, 61, 88
6, 25307, Note_off_c, 2, 61, 0
6, 25320, Note_on_c, 2, 61, 88
6, 25436, Note_off_c, 2, 61, 0
6, 25440, Note_on_c, 2, 59, 88
6, 25674, Note_off_c, 2, 59, 0
6, 25800, Note_on_c, 2, 58, 88
6, 25916, Note_off_c, 2, 58, 0
6, 25920, Note_on_c, 2, 60, 88
6, 26036, Note_off_c, 2, 60, 0
6, 26040, Note_on_c, 2, 61, 88
6, 26156, Note_off_c, 2, 61, 0
6, 26160, Note_on_c, 2, 63, 88
6, 26276, Note_off_c, 2, 63, 0
6, 26280, Note_on_c, 2, 56, 88
6, 26396, Note_off_c, 2, 56, 0
6, 26400, Note_on_c, 2, 58, 88
6, 26516, Note_off_c, 2, 58, 0
6, 26520, Note_on_c, 2, 60, 88
6, 26636, Note_off_c, 2, 60, 0
6, 26640, Note_on_c, 2, 59, 88
6, 26756, Note_off_c, 2, 59, 0
6, 26760, Note_on_c, 2, 57, 88
6, 26876, Note_off_c, 2, 57, 0
6, 26880, Note_on_c, 2, 56, 88
6, 26996, Note_off_c, 2, 56, 0
6, 27000, Note_on_c, 2, 57, 88
6, 27116, Note_off_c, 2, 57, 0
6, 27120, Note_on_c, 2, 59, 88
6, 27236, Note_off_c, 2, 59, 0
6, 27240, Note_on_c, 2, 53, 88
6, 27356, Note_off_c, 2, 53, 0
6, 27360, Note_on_c, 2, 54, 88
6, 27476, Note_off_c, 2, 54, 0
6, 27480, Note_on_c, 2, 49, 88
6, 27596, Note_off_c, 2, 49, 0
6, 27600, Note_on_c, 2, 54, 88
6, 27953, Note_off_c, 2, 54, 0
6, 27960, Note_on_c, 2, 53, 88
6, 28076, Note_off_c, 2, 53, 0
6, 28680, Note_on_c, 2, 54, 88
6, 28796, Note_off_c, 2, 54, 0
6, 28800, Note_on_c, 2, 53, 88
6, 28916, Note_off_c, 2, 53, 0
6, 28920, Note_on_c, 2, 54, 88
6, 29036, Note_off_c, 2, 54, 0
6, 29040, Note_on_c, 2, 56, 88
6, 29156, Note_off_c, 2, 56, 0
6, 29160, Note_on_c, 2, 54, 88
6, 29394, Note_off_c, 2, 54, 0
6, 29400, Note_on_c, 2, 53, 88
6, 29516, Note_off_c, 2, 53, 0
6, 29520, Note_on_c, 2, 49, 88
6, 29636, Note_off_c, 2, 49, 0
6, 29640, Note_on_c, 2, 53, 88
6, 29796, Note_off_c, 2, 53, 0
6, 29800, Note_on_c, 2, 54, 88
6, 29839, Note_off_c, 2, 54, 0
6, 29840, Note_on_c, 2, 52, 88
6, 29879, Note_off_c, 2, 52, 0
6, 29880, Note_on_c, 2, 50, 88
6, 29919, Note_off_c, 2, 50, 0
6, 29920, Note_on_c, 2, 49, 88
6, 29959, Note_off_c, 2, 49, 0
6, 29960, Note_on_c, 2, 47, 88
6, 29999, Note_off_c, 2, 47, 0
6, 30000, Note_on_c, 2, 49, 88
6, 30948, Note_off_c, 2, 49, 0
6, 30948, End_track
7, 0, Start_track
7, 0, Title_t, "Track 4"
7, 0, Program_c, 3, 6
7, 0, Note_on_c, 3, 54, 88
7, 412, Note_off_c, 3, 54, 0
7, 420, Note_on_c, 3, 56, 88
7, 478, Note_off_c, 3, 56, 0
7, 480, Note_on_c, 3, 57, 88
7, 596, Note_off_c, 3, 57, 0
7, 600, Note_on_c, 3, 61, 88
7, 716, Note_off_c, 3, 61, 0
7, 720, Note_on_c, 3, 54, 88
7, 1556, Note_off_c, 3, 54, 0
7, 1560, Note_on_c, 3, 56, 88
7, 1676, Note_off_c, 3, 56, 0
7, 1680, Note_on_c, 3, 57, 88
7, 1796, Note_off_c, 3, 57, 0
7, 1800, Note_on_c, 3, 59, 88
7, 1916, Note_off_c, 3, 59, 0
7, 1920, Note_on_c, 3, 57, 88
7, 2036, Note_off_c, 3, 57, 0
7, 2040, Note_on_c, 3, 56, 88
7, 2156, Note_off_c, 3, 56, 0
7, 2160, Note_on_c, 3, 54, 88
7, 2276, Note_off_c, 3, 54, 0
7, 2280, Note_on_c, 3, 52, 88
7, 2396, Note_off_c, 3, 52, 0
7, 2400, Note_on_c, 3, 50, 88
7, 2870, Note_off_c, 3, 50, 0
7, 2880, Note_on_c, 3, 49, 88
7, 3834, Note_off_c, 3, 49, 0
7, 4200, Note_on_c, 3, 48, 88
7, 4316, Note_off_c, 3, 48, 0
7, 4320, Note_on_c, 3, 49, 88
7, 4667, Note_off_c, 3, 49, 0
7, 4680, Note_on_c, 3, 49, 88
7, 4796, Note_off_c, 3, 49, 0
7, 4800, Note_on_c, 3, 51, 88
7, 4916, Note_off_c, 3, 51, 0
7, 4920, Note_on_c, 3, 53, 88
7, 5036, Note_off_c, 3, 53, 0
7, 5040, Note_on_c, 3, 54, 88
7, 5156, Note_off_c, 3, 54, 0
7, 5160, Note_on_c, 3, 42, 88
7, 5276, Note_off_c, 3, 42, 0
7, 5280, Note_on_c, 3, 45, 88
7, 5396, Note_off_c, 3, 45, 0
7, 5400, Note_on_c, 3, 49, 88
7, 5516, Note_off_c, 3, 49, 0
7, 5520, Note_on_c, 3, 54, 88
7, 5876, Note_off_c, 3, 54, 0
7, 5880, Note_on_c, 3, 51, 88
7, 5996, Note_off_c, 3, 51, 0
7, 6000, Note_on_c, 3, 48, 88
7, 6234, Note_off_c, 3, 48, 0
7, 6360, Note_on_c, 3, 44, 88
7, 6476, Note_off_c, 3, 44, 0
7, 6480, Note_on_c, 3, 49, 88
7, 6655, Note_off_c, 3, 49, 0
7, 6660, Note_on_c, 3, 47, 88
7, 6718, Note_off_c, 3, 47, 0
7, 6720, Note_on_c, 3, 45, 88
7, 6836, Note_off_c, 3, 45, 0
7, 6840, Note_on_c, 3, 44, 88
7, 6956, Note_off_c, 3, 44, 0
7, 6960, Note_on_c, 3, 42, 88
7, 7316, Note_off_c, 3, 42, 0
7, 7320, Note_on_c, 3, 44, 88
7, 7436, Note_off_c, 3, 44, 0
7, 7440, Note_on_c, 3, 45, 88
7, 7556, Note_off_c, 3, 45, 0
7, 7560, Note_on_c, 3, 42, 88
7, 7676, Note_off_c, 3, 42, 0
7, 7680, Note_on_c, 3, 44, 88
7, 7914, Note_off_c, 3, 44, 0
7, 7920, Note_on_c, 3, 49, 88
7, 8332, Note_off_c, 3, 49, 0
7, 8340, Note_on_c, 3, 51, 88
7, 8398, Note_off_c, 3, 51, 0
7, 8400, Note_on_c, 3, 52, 88
7, 8516, Note_off_c, 3, 52, 0
7, 8520, Note_on_c, 3, 56, 88
7, 8636, Note_off_c, 3, 56, 0
7, 8640, Note_on_c, 3, 49, 88
7, 9052, Note_off_c, 3, 49, 0
7, 9060, Note_on_c, 3, 47, 88
7, 9118, Note_off_c, 3, 47, 0
7, 9120, Note_on_c, 3, 46, 88
7, 9236, Note_off_c, 3, 46, 0
7, 9240, Note_on_c, 3, 49, 88
7, 9356, Note_off_c, 3, 49, 0
7, 9360, Note_on_c, 3, 42, 88
7, 9594, Note_off_c, 3, 42, 0
7, 9720, Note_on_c, 3, 49, 88
7, 9836, Note_off_c, 3, 49, 0
7, 9840, Note_on_c, 3, 46, 88
7, 9956, Note_off_c, 3, 46, 0
7, 9960, Note_on_c, 3, 42, 88
7, 10076, Note_off_c, 3, 42, 0
7, 10080, Note_on_c, 3, 47, 88
7, 10433, Note_off_c, 3, 47, 0
7, 10440, Note_on_c, 3, 50, 88
7, 10556, Note_off_c, 3, 50, 0
7, 10560, Note_on_c, 3, 47, 88
7, 10618, Note_off_c, 3, 47, 0
7, 10620, Note_on_c, 3, 50, 88
7, 10678, Note_off_c, 3, 50, 0
7, 10680, Note_on_c, 3, 44, 88
7, 10738, Note_off_c, 3, 44, 0
7, 10740, Note_on_c, 3, 47, 88
7, 10798, Note_off_c, 3, 47, 0
7, 10800, Note_on_c, 3, 40, 88
7, 11034, Note_off_c, 3, 40, 0
7, 11160, Note_on_c, 3, 47, 88
7, 11276, Note_off_c, 3, 47, 0
7, 11280, Note_on_c, 3, 44, 88
7, 11396, Note_off_c, 3, 44, 0
7, 11400, Note_on_c, 3, 40, 88
7, 11516, Note_off_c, 3, 40, 0
7, 11520, Note_on_c, 3, 45, 88
7, 11754, Note_off_c, 3, 45, 0
7, 12060, Note_on_c, 3, 52, 88
7, 12118, Note_off_c, 3, 52, 0
7, 12120, Note_on_c, 3, 49, 88
7, 12178, Note_off_c, 3, 49, 0
7, 12180, Note_on_c, 3, 45, 88
7, 12238, Note_off_c, 3, 45, 0
7, 12240, Note_on_c, 3, 50, 88
7, 12593, Note_off_c, 3, 50, 0
7, 12600, Note_on_c, 3, 54, 88
7, 12716, Note_off_c, 3, 54, 0
7, 12720, Note_on_c, 3, 51, 88
7, 12836, Note_off_c, 3, 51, 0
7, 12840, Note_on_c, 3, 47, 88
7, 12956, Note_off_c, 3, 47, 0
7, 12960, Note_on_c, 3, 52, 88
7, 13547, Note_off_c, 3, 52, 0
7, 13560, Note_on_c, 3, 52, 88
7, 13676, Note_off_c, 3, 52, 0
7, 13680, Note_on_c, 3, 45, 88
7, 13796, Note_off_c, 3, 45, 0
7, 13800, Note_on_c, 3, 47, 88
7, 13916, Note_off_c, 3, 47, 0
7, 13920, Note_on_c, 3, 49, 88
7, 14036, Note_off_c, 3, 49, 0
7, 14040, Note_on_c, 3, 50, 88
7, 14156, Note_off_c, 3, 50, 0
7, 14160, Note_on_c, 3, 52, 88
7, 14267, Note_off_c, 3, 52, 0
7, 14280, Note_on_c, 3, 52, 88
7, 14396, Note_off_c, 3, 52, 0
7, 14400, Note_on_c, 3, 57, 88
7, 14575, Note_off_c, 3, 57, 0
7, 14580, Note_on_c, 3, 52, 88
7, 14638, Note_off_c, 3, 52, 0
7, 14640, Note_on_c, 3, 49, 88
7, 14698, Note_off_c, 3, 49, 0
7, 14700, Note_on_c, 3, 45, 88
7, 14758, Note_off_c, 3, 45, 0
7, 14760, Note_on_c, 3, 49, 88
7, 14818, Note_off_c, 3, 49, 0
7, 14820, Note_on_c, 3, 52, 88
7, 14878, Note_off_c, 3, 52, 0
7, 14880, Note_on_c, 3, 57, 88
7, 15114, Note_off_c, 3, 57, 0
7, 15120, Note_on_c, 3, 55, 88
7, 15236, Note_off_c, 3, 55, 0
7, 15240, Note_on_c, 3, 54, 88
7, 15356, Note_off_c, 3, 54, 0
7, 15360, Note_on_c, 3, 52, 88
7, 15476, Note_off_c, 3, 52, 0
7, 15480, Note_on_c, 3, 55, 88
7, 15596, Note_off_c, 3, 55, 0
7, 15600, Note_on_c, 3, 49, 88
7, 15716, Note_off_c, 3, 49, 0
7, 15720, Note_on_c, 3, 54, 88
7, 15836, Note_off_c, 3, 54, 0
7, 15840, Note_on_c, 3, 59, 88
7, 16015, Note_off_c, 3, 59, 0
7, 16020, Note_on_c, 3, 54, 88
7, 16078, Note_off_c, 3, 54, 0
7, 16080, Note_on_c, 3, 50, 88
7, 16138, Note_off_c, 3, 50, 0
7, 16140, Note_on_c, 3, 47, 88
7, 16198, Note_off_c, 3, 47, 0
7, 16200, Note_on_c, 3, 50, 88
7, 16258, Note_off_c, 3, 50, 0
7, 16260, Note_on_c, 3, 54, 88
7, 16318, Note_off_c, 3, 54, 0
7, 16320, Note_on_c, 3, 59, 88
7, 16554, Note_off_c, 3, 59, 0
7, 16560, Note_on_c, 3, 57, 88
7, 16676, Note_off_c, 3, 57, 0
7, 16680, Note_on_c, 3, 56, 88
7, 16796, Note_off_c, 3, 56, 0
7, 16800, Note_on_c, 3, 54, 88
7, 16916, Note_off_c, 3, 54, 0
7, 16920, Note_on_c, 3, 57, 88
7, 17036, Note_off_c, 3, 57, 0
7, 17040, Note_on_c, 3, 51, 88
7, 17156, Note_off_c, 3, 51, 0
7, 17160, Note_on_c, 3, 56, 88
7, 17276, Note_off_c, 3, 56, 0
7, 17280, Note_on_c, 3, 61, 88
7, 17514, Note_off_c, 3, 61, 0
7, 17880, Note_on_c, 3, 52, 88
7, 17996, Note_off_c, 3, 52, 0
7, 18000, Note_on_c, 3, 50, 88
7, 18234, Note_off_c, 3, 50, 0
7, 18600, Note_on_c, 3, 51, 88
7, 18716, Note_off_c, 3, 51, 0
7, 18720, Note_on_c, 3, 52, 88
7, 18954, Note_off_c, 3, 52, 0
7, 19320, Note_on_c, 3, 53, 88
7, 19436, Note_off_c, 3, 53, 0
7, 19440, Note_on_c, 3, 54, 88
7, 19793, Note_off_c, 3, 54, 0
7, 19800, Note_on_c, 3, 52, 88
7, 19916, Note_off_c, 3, 52, 0
7, 19920, Note_on_c, 3, 51, 88
7, 20036, Note_off_c, 3, 51, 0
7, 20040, Note_on_c, 3, 50, 88
7, 20156, Note_off_c, 3, 50, 0
7, 20160, Note_on_c, 3, 49, 88
7, 20394, Note_off_c, 3, 49, 0
7, 20520, Note_on_c, 3, 47, 88
7, 20559, Note_off_c, 3, 47, 0
7, 20560, Note_on_c, 3, 49, 88
7, 20599, Note_off_c, 3, 49, 0
7, 20600, Note_on_c, 3, 50, 88
7, 20639, Note_off_c, 3, 50, 0
7, 20640, Note_on_c, 3, 49, 88
7, 20679, Note_off_c, 3, 49, 0
7, 20680, Note_on_c, 3, 47, 88
7, 20719, Note_off_c, 3, 47, 0
7, 20720, Note_on_c, 3, 45, 88
7, 20759, Note_off_c, 3, 45, 0
7, 20760, Note_on_c, 3, 47, 88
7, 20799, Note_off_c, 3, 47, 0
7, 20800, Note_on_c, 3, 45, 88
7, 20839, Note_off_c, 3, 45, 0
7, 20840, Note_on_c, 3, 44, 88
7, 20879, Note_off_c, 3, 44, 0
7, 20880, Note_on_c, 3, 42, 88
7, 20996, Note_off_c, 3, 42, 0
7, 21000, Note_on_c, 3, 54, 88
7, 21294, Note_off_c, 3, 54, 0
7, 21300, Note_on_c, 3, 56, 88
7, 21358, Note_off_c, 3, 56, 0
7, 21360, Note_on_c, 3, 57, 88
7, 21476, Note_off_c, 3, 57, 0
7, 21480, Note_on_c, 3, 61, 88
7, 21596, Note_off_c, 3, 61, 0
7, 21600, Note_on_c, 3, 54, 88
7, 22436, Note_off_c, 3, 54, 0
7, 22440, Note_on_c, 3, 56, 88
7, 22556, Note_off_c, 3, 56, 0
7, 22560, Note_on_c, 3, 57, 88
7, 22676, Note_off_c, 3, 57, 0
7, 22680, Note_on_c, 3, 56, 88
7, 22796, Note_off_c, 3, 56, 0
7, 22800, Note_on_c, 3, 54, 88
7, 22916, Note_off_c, 3, 54, 0
7, 22920, Note_on_c, 3, 52, 88
7, 23036, Note_off_c, 3, 52, 0
7, 23040, Note_on_c, 3, 50, 88
7, 23156, Note_off_c, 3, 50, 0
7, 23160, Note_on_c, 3, 49, 88
7, 23276, Note_off_c, 3, 49, 0
7, 23280, Note_on_c, 3, 50, 88
7, 23396, Note_off_c, 3, 50, 0
7, 23400, Note_on_c, 3, 52, 88
7, 23516, Note_off_c, 3, 52, 0
7, 23520, Note_on_c, 3, 50, 88
7, 23636, Note_off_c, 3, 50, 0
7, 23640, Note_on_c, 3, 49, 88
7, 23756, Note_off_c, 3, 49, 0
7, 23760, Note_on_c, 3, 47, 88
7, 23876, Note_off_c, 3, 47, 0
7, 23880, Note_on_c, 3, 59, 88
7, 23987, Note_off_c, 3, 59, 0
7, 24000, Note_on_c, 3, 59, 88
7, 24107, Note_off_c, 3, 59, 0
7, 24120, Note_on_c, 3, 59, 88
7, 24227, Note_off_c, 3, 59, 0
7, 24240, Note_on_c, 3, 59, 88
7, 24347, Note_off_c, 3, 59, 0
7, 24360, Note_on_c, 3, 59, 88
7, 24476, Note_off_c, 3, 59, 0
7, 24480, Note_on_c, 3, 59, 88
7, 24714, Note_off_c, 3, 59, 0
7, 24840, Note_on_c, 3, 53, 88
7, 24956, Note_off_c, 3, 53, 0
7, 24960, Note_on_c, 3, 54, 88
7, 25076, Note_off_c, 3, 54, 0
7, 25080, Note_on_c, 3, 49, 88
7, 25196, Note_off_c, 3, 49, 0
7, 25200, Note_on_c, 3, 50, 88
7, 25547, Note_off_c, 3, 50, 0
7, 25560, Note_on_c, 3, 50, 88
7, 25676, Note_off_c, 3, 50, 0
7, 25680, Note_on_c, 3, 49, 88
7, 25796, Note_off_c, 3, 49, 0
7, 25800, Note_on_c, 3, 55, 88
7, 25916, Note_off_c, 3, 55, 0
7, 25920, Note_on_c, 3, 54, 88
7, 26273, Note_off_c, 3, 54, 0
7, 26280, Note_on_c, 3, 52, 88
7, 26514, Note_off_c, 3, 52, 0
7, 26520, Note_on_c, 3, 51, 88
7, 26636, Note_off_c, 3, 51, 0
7, 26640, Note_on_c, 3, 49, 88
7, 26756, Note_off_c, 3, 49, 0
7, 26760, Note_on_c, 3, 51, 88
7, 26876, Note_off_c, 3, 51, 0
7, 26880, Note_on_c, 3, 53, 88
7, 26996, Note_off_c, 3, 53, 0
7, 27000, Note_on_c, 3, 54, 88
7, 27116, Note_off_c, 3, 54, 0
7, 27120, Note_on_c, 3, 56, 88
7, 27236, Note_off_c, 3, 56, 0
7, 27240, Note_on_c, 3, 44, 88
7, 27356, Note_off_c, 3, 44, 0
7, 27360, Note_on_c, 3, 45, 88
7, 27713, Note_off_c, 3, 45, 0
7, 27720, Note_on_c, 3, 47, 88
7, 27836, Note_off_c, 3, 47, 0
7, 27840, Note_on_c, 3, 49, 88
7, 27956, Note_off_c, 3, 49, 0
7, 27960, Note_on_c, 3, 47, 88
7, 28076, Note_off_c, 3, 47, 0
7, 28080, Note_on_c, 3, 46, 88
7, 28196, Note_off_c, 3, 46, 0
7, 28200, Note_on_c, 3, 54, 88
7, 28316, Note_off_c, 3, 54, 0
7, 28320, Note_on_c, 3, 47, 88
7, 28436, Note_off_c, 3, 47, 0
7, 28440, Note_on_c, 3, 49, 88
7, 28556, Note_off_c, 3, 49, 0
7, 28560, Note_on_c, 3, 50, 88
7, 28676, Note_off_c, 3, 50, 0
7, 28680, Note_on_c, 3, 47, 88
7, 28796, Note_off_c, 3, 47, 0
7, 28800, Note_on_c, 3, 49, 88
7, 29153, Note_off_c, 3, 49, 0
7, 29160, Note_on_c, 3, 50, 88
7, 29276, Note_off_c, 3, 50, 0
7, 29280, Note_on_c, 3, 47, 88
7, 29396, Note_off_c, 3, 47, 0
7, 29400, Note_on_c, 3, 49, 88
7, 29516, Note_off_c, 3, 49, 0
7, 29520, Note_on_c, 3, 45, 88
7, 29636, Note_off_c, 3, 45, 0
7, 29640, Note_on_c, 3, 44, 88
7, 29756, Note_off_c, 3, 44, 0
7, 29760, Note_on_c, 3, 45, 88
7, 29876, Note_off_c, 3, 45, 0
7, 30120, Note_on_c, 3, 37, 88
7, 30236, Note_off_c, 3, 37, 0
7, 30240, Note_on_c, 3, 42, 88
7, 30948, Note_off_c, 3, 42, 0
7, 30948, End_track
0, 0, End_of_file
