0, 0, Header, 1, 6, 240
1, 0, Start_track
1, 0, Time_signature, 3, 2, 24, 8
1, 0, Tempo, 697674
1, 0, SMPTE_offset, 64, 0, 0, 0, 102
1, 11520, Time_signature, 3, 2, 24, 8
1, 11520, End_track
2, 0, Start_track
2, 0, Title_t, "(C) & (P) 1993"
2, 127, End_track
3, 0, Start_track
3, 0, Title_t, "CCARH,Stanford"
3, 0, End_track
4, 0, Start_track
4, 0, Title_t, "Track 1"
4, 0, Program_c, 0, 6
4, 0, Note_on_c, 0, 67, 88
4, 58, Note_off_c, 0, 67, 0
4, 60, Note_on_c, 0, 74, 88
4, 118, Note_off_c, 0, 74, 0
4, 120, Note_on_c, 0, 66, 88
4, 178, Note_off_c, 0, 66, 0
4, 180, Note_on_c, 0, 74, 88
4, 238, Note_off_c, 0, 74, 0
4, 240, Note_on_c, 0, 67, 88
4, 298, Note_off_c, 0, 67, 0
4, 300, Note_on_c, 0, 74, 88
4, 358, Note_off_c, 0, 74, 0
4, 360, Note_on_c, 0, 69, 88
4, 418, Note_off_c, 0, 69, 0
4, 420, Note_on_c, 0, 74, 88
4, 478, Note_off_c, 0, 74, 0
4, 480, Note_on_c, 0, 71, 88
4, 538, Note_off_c, 0, 71, 0
4, 540, Note_on_c, 0, 74, 88
4, 598, Note_off_c, 0, 74, 0
4, 600, Note_on_c, 0, 72, 88
4, 658, Note_off_c, 0, 72, 0
4, 660, Note_on_c, 0, 74, 88
4, 718, Note_off_c, 0, 74, 0
4, 720, Note_on_c, 0, 71, 88
4, 778, Note_off_c, 0, 71, 0
4, 780, Note_on_c, 0, 74, 88
4, 838, Note_off_c, 0, 74, 0
4, 840, Note_on_c, 0, 69, 88
4, 898, Note_off_c, 0, 69, 0
4, 900, Note_on_c, 0, 74, 88
4, 958, Note_off_c, 0, 74, 0
4, 960, Note_on_c, 0, 67, 88
4, 1018, Note_off_c, 0, 67, 0
4, 1020, Note_on_c, 0, 74, 88
4, 1078, Note_off_c, 0, 74, 0
4, 1080, Note_on_c, 0, 72, 88
4, 1138, Note_off_c, 0, 72, 0
4, 1140, Note_on_c, 0, 74, 88
4, 1198, Note_off_c, 0, 74, 0
4, 1200, Note_on_c, 0, 71, 88
4, 1258, Note_off_c, 0, 71, 0
4, 1260, Note_on_c, 0, 74, 88
4, 1318, Note_off_c, 0, 74, 0
4, 1320, Note_on_c, 0, 69, 88
4, 1378, Note_off_c, 0, 69, 0
4, 1380, Note_on_c, 0, 74, 88
4, 1438, Note_off_c, 0, 74, 0
4, 1440, Note_on_c, 0, 71, 88
4, 1498, Note_off_c, 0, 71, 0
4, 1500, Note_on_c, 0, 74, 88
4, 1558, Note_off_c, 0, 74, 0
4, 1560, Note_on_c, 0, 69, 88
4, 1618, Note_off_c, 0, 69, 0
4, 1620, Note_on_c, 0, 74, 88
4, 1678, Note_off_c, 0, 74, 0
4, 1680, Note_on_c, 0, 67, 88
4, 1738, Note_off_c, 0, 67, 0
4, 1740, Note_on_c, 0, 74, 88
4, 1798, Note_off_c, 0, 74, 0
4, 1800, Note_on_c, 0, 71, 88
4, 1858, Note_off_c, 0, 71, 0
4, 1860, Note_on_c, 0, 74, 88
4, 1918, Note_off_c, 0, 74, 0
4, 1920, Note_on_c, 0, 69, 88
4, 1978, Note_off_c, 0, 69, 0
4, 1980, Note_on_c, 0, 74, 88
4, 2038, Note_off_c, 0, 74, 0
4, 2040, Note_on_c, 0, 67, 88
4, 2098, Note_off_c, 0, 67, 0
4, 2100, Note_on_c, 0, 74, 88
4, 4436, Note_off_c, 0, 74, 0
4, 4440, Note_on_c, 0, 71, 88
4, 4556, Note_off_c, 0, 71, 0
4, 4560, Note_on_c, 0, 72, 88
4, 4676, Note_off_c, 0, 72, 0
4, 4680, Note_on_c, 0, 74, 88
4, 4796, Note_off_c, 0, 74, 0
4, 4800, Note_on_c, 0, 76, 88
4, 4916, Note_off_c, 0, 76, 0
4, 4920, Note_on_c, 0, 78, 88
4, 5036, Note_off_c, 0, 78, 0
4, 5040, Note_on_c, 0, 67, 88
4, 5098, Note_off_c, 0, 67, 0
4, 5100, Note_on_c, 0, 79, 88
4, 5158, Note_off_c, 0, 79, 0
4, 5160, Note_on_c, 0, 78, 88
4, 5218, Note_off_c, 0, 78, 0
4, 5220, Note_on_c, 0, 79, 88
4, 5278, Note_off_c, 0, 79, 0
4, 5280, Note_on_c, 0, 67, 88
4, 5338, Note_off_c, 0, 67, 0
4, 5340, Note_on_c, 0, 79, 88
4, 5398, Note_off_c, 0, 79, 0
4, 5400, Note_on_c, 0, 69, 88
4, 5458, Note_off_c, 0, 69, 0
4, 5460, Note_on_c, 0, 79, 88
4, 5518, Note_off_c, 0, 79, 0
4, 5520, Note_on_c, 0, 71, 88
4, 5578, Note_off_c, 0, 71, 0
4, 5580, Note_on_c, 0, 79, 88
4, 5638, Note_off_c, 0, 79, 0
4, 5640, Note_on_c, 0, 73, 88
4, 5698, Note_off_c, 0, 73, 0
4, 5700, Note_on_c, 0, 79, 88
4, 5758, Note_off_c, 0, 79, 0
4, 5760, Note_on_c, 0, 78, 88
4, 5818, Note_off_c, 0, 78, 0
4, 5820, Note_on_c, 0, 74, 88
4, 5878, Note_off_c, 0, 74, 0
4, 5880, Note_on_c, 0, 73, 88
4, 5938, Note_off_c, 0, 73, 0
4, 5940, Note_on_c, 0, 74, 88
4, 5998, Note_off_c, 0, 74, 0
4, 6000, Note_on_c, 0, 83, 88
4, 6058, Note_off_c, 0, 83, 0
4, 6060, Note_on_c, 0, 71, 88
4, 6118, Note_off_c, 0, 71, 0
4, 6120, Note_on_c, 0, 81, 88
4, 6178, Note_off_c, 0, 81, 0
4, 6180, Note_on_c, 0, 71, 88
4, 6238, Note_off_c, 0, 71, 0
4, 6240, Note_on_c, 0, 79, 88
4, 6298, Note_off_c, 0, 79, 0
4, 6300, Note_on_c, 0, 71, 88
4, 6358, Note_off_c, 0, 71, 0
4, 6360, Note_on_c, 0, 78, 88
4, 6418, Note_off_c, 0, 78, 0
4, 6420, Note_on_c, 0, 71, 88
4, 6478, Note_off_c, 0, 71, 0
4, 6480, Note_on_c, 0, 76, 88
4, 6538, Note_off_c, 0, 76, 0
4, 6540, Note_on_c, 0, 73, 88
4, 6598, Note_off_c, 0, 73, 0
4, 6600, Note_on_c, 0, 71, 88
4, 6658, Note_off_c, 0, 71, 0
4, 6660, Note_on_c, 0, 73, 88
4, 6718, Note_off_c, 0, 73, 0
4, 6720, Note_on_c, 0, 81, 88
4, 6778, Note_off_c, 0, 81, 0
4, 6780, Note_on_c, 0, 69, 88
4, 6838, Note_off_c, 0, 69, 0
4, 6840, Note_on_c, 0, 79, 88
4, 6898, Note_off_c, 0, 79, 0
4, 6900, Note_on_c, 0, 69, 88
4, 6958, Note_off_c, 0, 69, 0
4, 6960, Note_on_c, 0, 78, 88
4, 7018, Note_off_c, 0, 78, 0
4, 7020, Note_on_c, 0, 69, 88
4, 7078, Note_off_c, 0, 69, 0
4, 7080, Note_on_c, 0, 76, 88
4, 7138, Note_off_c, 0, 76, 0
4, 7140, Note_on_c, 0, 69, 88
4, 7198, Note_off_c, 0, 69, 0
4, 7200, Note_on_c, 0, 74, 88
4, 7258, Note_off_c, 0, 74, 0
4, 7260, Note_on_c, 0, 71, 88
4, 7318, Note_off_c, 0, 71, 0
4, 7320, Note_on_c, 0, 69, 88
4, 7378, Note_off_c, 0, 69, 0
4, 7380, Note_on_c, 0, 71, 88
4, 7438, Note_off_c, 0, 71, 0
4, 7440, Note_on_c, 0, 79, 88
4, 7498, Note_off_c, 0, 79, 0
4, 7500, Note_on_c, 0, 67, 88
4, 7558, Note_off_c, 0, 67, 0
4, 7560, Note_on_c, 0, 78, 88
4, 7618, Note_off_c, 0, 78, 0
4, 7620, Note_on_c, 0, 67, 88
4, 7678, Note_off_c, 0, 67, 0
4, 7680, Note_on_c, 0, 76, 88
4, 7738, Note_off_c, 0, 76, 0
4, 7740, Note_on_c, 0, 67, 88
4, 7798, Note_off_c, 0, 67, 0
4, 7800, Note_on_c, 0, 74, 88
4, 7858, Note_off_c, 0, 74, 0
4, 7860, Note_on_c, 0, 67, 88
4, 7918, Note_off_c, 0, 67, 0
4, 7920, Note_on_c, 0, 73, 88
4, 7978, Note_off_c, 0, 73, 0
4, 7980, Note_on_c, 0, 67, 88
4, 8038, Note_off_c, 0, 67, 0
4, 8040, Note_on_c, 0, 74, 88
4, 8098, Note_off_c, 0, 74, 0
4, 8100, Note_on_c, 0, 67, 88
4, 8158, Note_off_c, 0, 67, 0
4, 8160, Note_on_c, 0, 76, 88
4, 8218, Note_off_c, 0, 76, 0
4, 8220, Note_on_c, 0, 67, 88
4, 8278, Note_off_c, 0, 67, 0
4, 8280, Note_on_c, 0, 74, 88
4, 8338, Note_off_c, 0, 74, 0
4, 8340, Note_on_c, 0, 67, 88
4, 8398, Note_off_c, 0, 67, 0
4, 8400, Note_on_c, 0, 73, 88
4, 8458, Note_off_c, 0, 73, 0
4, 8460, Note_on_c, 0, 67, 88
4, 8518, Note_off_c, 0, 67, 0
4, 8520, Note_on_c, 0, 71, 88
4, 8578, Note_off_c, 0, 71, 0
4, 8580, Note_on_c, 0, 67, 88
4, 8638, Note_off_c, 0, 67, 0
4, 8640, Note_on_c, 0, 69, 88
4, 8698, Note_off_c, 0, 69, 0
4, 8700, Note_on_c, 0, 67, 88
4, 8758, Note_off_c, 0, 67, 0
4, 8760, Note_on_c, 0, 66, 88
4, 8818, Note_off_c, 0, 66, 0
4, 8820, Note_on_c, 0, 64, 88
4, 8878, Note_off_c, 0, 64, 0
4, 8880, Note_on_c, 0, 66, 88
4, 8996, Note_off_c, 0, 66, 0
4, 9000, Note_on_c, 0, 74, 88
4, 9116, Note_off_c, 0, 74, 0
4, 9120, Note_on_c, 0, 64, 88
4, 9236, Note_off_c, 0, 64, 0
4, 9240, Note_on_c, 0, 73, 88
4, 9356, Note_off_c, 0, 73, 0
4, 9360, Note_on_c, 0, 62, 88
4, 9418, Note_off_c, 0, 62, 0
4, 9420, Note_on_c, 0, 64, 88
4, 9478, Note_off_c, 0, 64, 0
4, 9480, Note_on_c, 0, 65, 88
4, 9538, Note_off_c, 0, 65, 0
4, 9540, Note_on_c, 0, 62, 88
4, 9598, Note_off_c, 0, 62, 0
4, 9600, Note_on_c, 0, 68, 88
4, 9658, Note_off_c, 0, 68, 0
4, 9660, Note_on_c, 0, 62, 88
4, 9718, Note_off_c, 0, 62, 0
4, 9720, Note_on_c, 0, 69, 88
4, 9778, Note_off_c, 0, 69, 0
4, 9780, Note_on_c, 0, 62, 88
4, 9838, Note_off_c, 0, 62, 0
4, 9840, Note_on_c, 0, 71, 88
4, 9898, Note_off_c, 0, 71, 0
4, 9900, Note_on_c, 0, 62, 88
4, 9958, Note_off_c, 0, 62, 0
4, 9960, Note_on_c, 0, 61, 88
4, 10018, Note_off_c, 0, 61, 0
4, 10020, Note_on_c, 0, 59, 88
4, 10078, Note_off_c, 0, 59, 0
4, 10080, Note_on_c, 0, 61, 88
4, 10138, Note_off_c, 0, 61, 0
4, 10140, Note_on_c, 0, 64, 88
4, 10198, Note_off_c, 0, 64, 0
4, 10200, Note_on_c, 0, 69, 88
4, 10434, Note_off_c, 0, 69, 0
4, 10440, Note_on_c, 0, 67, 88
4, 10498, Note_off_c, 0, 67, 0
4, 10500, Note_on_c, 0, 66, 88
4, 10558, Note_off_c, 0, 66, 0
4, 10560, Note_on_c, 0, 67, 88
4, 10618, Note_off_c, 0, 67, 0
4, 10620, Note_on_c, 0, 66, 88
4, 10678, Note_off_c, 0, 66, 0
4, 10680, Note_on_c, 0, 64, 88
4, 10738, Note_off_c, 0, 64, 0
4, 10740, Note_on_c, 0, 66, 88
4, 10798, Note_off_c, 0, 66, 0
4, 10800, Note_on_c, 0, 62, 88
4, 10916, Note_off_c, 0, 62, 0
4, 10920, Note_on_c, 0, 61, 88
4, 10978, Note_off_c, 0, 61, 0
4, 10980, Note_on_c, 0, 59, 88
4, 11038, Note_off_c, 0, 59, 0
4, 11040, Note_on_c, 0, 57, 88
4, 11098, Note_off_c, 0, 57, 0
4, 11100, Note_on_c, 0, 55, 88
4, 11158, Note_off_c, 0, 55, 0
4, 11160, Note_on_c, 0, 54, 88
4, 11218, Note_off_c, 0, 54, 0
4, 11220, Note_on_c, 0, 52, 88
4, 11278, Note_off_c, 0, 52, 0
4, 11280, Note_on_c, 0, 50, 88
4, 11302, Note_off_c, 0, 50, 0
4, 11303, Note_on_c, 0, 49, 88
4, 11339, Note_off_c, 0, 49, 0
4, 11340, Note_on_c, 0, 50, 88
4, 11515, Note_off_c, 0, 50, 0
4, 11520, Note_on_c, 0, 67, 88
4, 11578, Note_off_c, 0, 67, 0
4, 11580, Note_on_c, 0, 74, 88
4, 11638, Note_off_c, 0, 74, 0
4, 11640, Note_on_c, 0, 66, 88
4, 11698, Note_off_c, 0, 66, 0
4, 11700, Note_on_c, 0, 74, 88
4, 11758, Note_off_c, 0, 74, 0
4, 11760, Note_on_c, 0, 67, 88
4, 11818, Note_off_c, 0, 67, 0
4, 11820, Note_on_c, 0, 74, 88
4, 11878, Note_off_c, 0, 74, 0
4, 11880, Note_on_c, 0, 69, 88
4, 11938, Note_off_c, 0, 69, 0
4, 11940, Note_on_c, 0, 74, 88
4, 11998, Note_off_c, 0, 74, 0
4, 12000, Note_on_c, 0, 71, 88
4, 12058, Note_off_c, 0, 71, 0
4, 12060, Note_on_c, 0, 74, 88
4, 12118, Note_off_c, 0, 74, 0
4, 12120, Note_on_c, 0, 72, 88
4, 12178, Note_off_c, 0, 72, 0
4, 12180, Note_on_c, 0, 74, 88
4, 12238, Note_off_c, 0, 74, 0
4, 12240, Note_on_c, 0, 71, 88
4, 12298, Note_off_c, 0, 71, 0
4, 12300, Note_on_c, 0, 74, 88
4, 12358, Note_off_c, 0, 74, 0
4, 12360, Note_on_c, 0, 69, 88
4, 12418, Note_off_c, 0, 69, 0
4, 12420, Note_on_c, 0, 74, 88
4, 12478, Note_off_c, 0, 74, 0
4, 12480, Note_on_c, 0, 67, 88
4, 12538, Note_off_c, 0, 67, 0
4, 12540, Note_on_c, 0, 74, 88
4, 12598, Note_off_c, 0, 74, 0
4, 12600, Note_on_c, 0, 72, 88
4, 12658, Note_off_c, 0, 72, 0
4, 12660, Note_on_c, 0, 74, 88
4, 12718, Note_off_c, 0, 74, 0
4, 12720, Note_on_c, 0, 71, 88
4, 12778, Note_off_c, 0, 71, 0
4, 12780, Note_on_c, 0, 74, 88
4, 12838, Note_off_c, 0, 74, 0
4, 12840, Note_on_c, 0, 69, 88
4, 12898, Note_off_c, 0, 69, 0
4, 12900, Note_on_c, 0, 74, 88
4, 12958, Note_off_c, 0, 74, 0
4, 12960, Note_on_c, 0, 71, 88
4, 13018, Note_off_c, 0, 71, 0
4, 13020, Note_on_c, 0, 74, 88
4, 13078, Note_off_c, 0, 74, 0
4, 13080, Note_on_c, 0, 69, 88
4, 13138, Note_off_c, 0, 69, 0
4, 13140, Note_on_c, 0, 74, 88
4, 13198, Note_off_c, 0, 74, 0
4, 13200, Note_on_c, 0, 67, 88
4, 13258, Note_off_c, 0, 67, 0
4, 13260, Note_on_c, 0, 74, 88
4, 13318, Note_off_c, 0, 74, 0
4, 13320, Note_on_c, 0, 71, 88
4, 13378, Note_off_c, 0, 71, 0
4, 13380, Note_on_c, 0, 74, 88
4, 13438, Note_off_c, 0, 74, 0
4, 13440, Note_on_c, 0, 69, 88
4, 13498, Note_off_c, 0, 69, 0
4, 13500, Note_on_c, 0, 74, 88
4, 13558, Note_off_c, 0, 74, 0
4, 13560, Note_on_c, 0, 67, 88
4, 13618, Note_off_c, 0, 67, 0
4, 13620, Note_on_c, 0, 74, 88
4, 15956, Note_off_c, 0, 74, 0
4, 15960, Note_on_c, 0, 71, 88
4, 16076, Note_off_c, 0, 71, 0
4, 16080, Note_on_c, 0, 72, 88
4, 16196, Note_off_c, 0, 72, 0
4, 16200, Note_on_c, 0, 74, 88
4, 16316, Note_off_c, 0, 74, 0
4, 16320, Note_on_c, 0, 76, 88
4, 16436, Note_off_c, 0, 76, 0
4, 16440, Note_on_c, 0, 78, 88
4, 16556, Note_off_c, 0, 78, 0
4, 16560, Note_on_c, 0, 67, 88
4, 16618, Note_off_c, 0, 67, 0
4, 16620, Note_on_c, 0, 79, 88
4, 16678, Note_off_c, 0, 79, 0
4, 16680, Note_on_c, 0, 78, 88
4, 16738, Note_off_c, 0, 78, 0
4, 16740, Note_on_c, 0, 79, 88
4, 16798, Note_off_c, 0, 79, 0
4, 16800, Note_on_c, 0, 67, 88
4, 16858, Note_off_c, 0, 67, 0
4, 16860, Note_on_c, 0, 79, 88
4, 16918, Note_off_c, 0, 79, 0
4, 16920, Note_on_c, 0, 69, 88
4, 16978, Note_off_c, 0, 69, 0
4, 16980, Note_on_c, 0, 79, 88
4, 17038, Note_off_c, 0, 79, 0
4, 17040, Note_on_c, 0, 71, 88
4, 17098, Note_off_c, 0, 71, 0
4, 17100, Note_on_c, 0, 79, 88
4, 17158, Note_off_c, 0, 79, 0
4, 17160, Note_on_c, 0, 73, 88
4, 17218, Note_off_c, 0, 73, 0
4, 17220, Note_on_c, 0, 79, 88
4, 17278, Note_off_c, 0, 79, 0
4, 17280, Note_on_c, 0, 78, 88
4, 17338, Note_off_c, 0, 78, 0
4, 17340, Note_on_c, 0, 74, 88
4, 17398, Note_off_c, 0, 74, 0
4, 17400, Note_on_c, 0, 73, 88
4, 17458, Note_off_c, 0, 73, 0
4, 17460, Note_on_c, 0, 74, 88
4, 17518, Note_off_c, 0, 74, 0
4, 17520, Note_on_c, 0, 83, 88
4, 17578, Note_off_c, 0, 83, 0
4, 17580, Note_on_c, 0, 71, 88
4, 17638, Note_off_c, 0, 71, 0
4, 17640, Note_on_c, 0, 81, 88
4, 17698, Note_off_c, 0, 81, 0
4, 17700, Note_on_c, 0, 71, 88
4, 17758, Note_off_c, 0, 71, 0
4, 17760, Note_on_c, 0, 79, 88
4, 17818, Note_off_c, 0, 79, 0
4, 17820, Note_on_c, 0, 71, 88
4, 17878, Note_off_c, 0, 71, 0
4, 17880, Note_on_c, 0, 78, 88
4, 17938, Note_off_c, 0, 78, 0
4, 17940, Note_on_c, 0, 71, 88
4, 17998, Note_off_c, 0, 71, 0
4, 18000, Note_on_c, 0, 76, 88
4, 18058, Note_off_c, 0, 76, 0
4, 18060, Note_on_c, 0, 73, 88
4, 18118, Note_off_c, 0, 73, 0
4, 18120, Note_on_c, 0, 71, 88
4, 18178, Note_off_c, 0, 71, 0
4, 18180, Note_on_c, 0, 73, 88
4, 18238, Note_off_c, 0, 73, 0
4, 18240, Note_on_c, 0, 81, 88
4, 18298, Note_off_c, 0, 81, 0
4, 18300, Note_on_c, 0, 69, 88
4, 18358, Note_off_c, 0, 69, 0
4, 18360, Note_on_c, 0, 79, 88
4, 18418, Note_off_c, 0, 79, 0
4, 18420, Note_on_c, 0, 69, 88
4, 18478, Note_off_c, 0, 69, 0
4, 18480, Note_on_c, 0, 78, 88
4, 18538, Note_off_c, 0, 78, 0
4, 18540, Note_on_c, 0, 69, 88
4, 18598, Note_off_c, 0, 69, 0
4, 18600, Note_on_c, 0, 76, 88
4, 18658, Note_off_c, 0, 76, 0
4, 18660, Note_on_c, 0, 69, 88
4, 18718, Note_off_c, 0, 69, 0
4, 18720, Note_on_c, 0, 74, 88
4, 18778, Note_off_c, 0, 74, 0
4, 18780, Note_on_c, 0, 71, 88
4, 18838, Note_off_c, 0, 71, 0
4, 18840, Note_on_c, 0, 69, 88
4, 18898, Note_off_c, 0, 69, 0
4, 18900, Note_on_c, 0, 71, 88
4, 18958, Note_off_c, 0, 71, 0
4, 18960, Note_on_c, 0, 79, 88
4, 19018, Note_off_c, 0, 79, 0
4, 19020, Note_on_c, 0, 67, 88
4, 19078, Note_off_c, 0, 67, 0
4, 19080, Note_on_c, 0, 78, 88
4, 19138, Note_off_c, 0, 78, 0
4, 19140, Note_on_c, 0, 67, 88
4, 19198, Note_off_c, 0, 67, 0
4, 19200, Note_on_c, 0, 76, 88
4, 19258, Note_off_c, 0, 76, 0
4, 19260, Note_on_c, 0, 67, 88
4, 19318, Note_off_c, 0, 67, 0
4, 19320, Note_on_c, 0, 74, 88
4, 19378, Note_off_c, 0, 74, 0
4, 19380, Note_on_c, 0, 67, 88
4, 19438, Note_off_c, 0, 67, 0
4, 19440, Note_on_c, 0, 73, 88
4, 19498, Note_off_c, 0, 73, 0
4, 19500, Note_on_c, 0, 67, 88
4, 19558, Note_off_c, 0, 67, 0
4, 19560, Note_on_c, 0, 74, 88
4, 19618, Note_off_c, 0, 74, 0
4, 19620, Note_on_c, 0, 67, 88
4, 19678, Note_off_c, 0, 67, 0
4, 19680, Note_on_c, 0, 76, 88
4, 19738, Note_off_c, 0, 76, 0
4, 19740, Note_on_c, 0, 67, 88
4, 19798, Note_off_c, 0, 67, 0
4, 19800, Note_on_c, 0, 74, 88
4, 19858, Note_off_c, 0, 74, 0
4, 19860, Note_on_c, 0, 67, 88
4, 19918, Note_off_c, 0, 67, 0
4, 19920, Note_on_c, 0, 73, 88
4, 19978, Note_off_c, 0, 73, 0
4, 19980, Note_on_c, 0, 67, 88
4, 20038, Note_off_c, 0, 67, 0
4, 20040, Note_on_c, 0, 71, 88
4, 20098, Note_off_c, 0, 71, 0
4, 20100, Note_on_c, 0, 67, 88
4, 20158, Note_off_c, 0, 67, 0
4, 20160, Note_on_c, 0, 69, 88
4, 20218, Note_off_c, 0, 69, 0
4, 20220, Note_on_c, 0, 67, 88
4, 20278, Note_off_c, 0, 67, 0
4, 20280, Note_on_c, 0, 66, 88
4, 20338, Note_off_c, 0, 66, 0
4, 20340, Note_on_c, 0, 64, 88
4, 20398, Note_off_c, 0, 64, 0
4, 20400, Note_on_c, 0, 66, 88
4, 20516, Note_off_c, 0, 66, 0
4, 20520, Note_on_c, 0, 74, 88
4, 20636, Note_off_c, 0, 74, 0
4, 20640, Note_on_c, 0, 64, 88
4, 20756, Note_off_c, 0, 64, 0
4, 20760, Note_on_c, 0, 73, 88
4, 20876, Note_off_c, 0, 73, 0
4, 20880, Note_on_c, 0, 62, 88
4, 20938, Note_off_c, 0, 62, 0
4, 20940, Note_on_c, 0, 64, 88
4, 20998, Note_off_c, 0, 64, 0
4, 21000, Note_on_c, 0, 65, 88
4, 21058, Note_off_c, 0, 65, 0
4, 21060, Note_on_c, 0, 62, 88
4, 21118, Note_off_c, 0, 62, 0
4, 21120, Note_on_c, 0, 68, 88
4, 21178, Note_off_c, 0, 68, 0
4, 21180, Note_on_c, 0, 62, 88
4, 21238, Note_off_c, 0, 62, 0
4, 21240, Note_on_c, 0, 69, 88
4, 21298, Note_off_c, 0, 69, 0
4, 21300, Note_on_c, 0, 62, 88
4, 21358, Note_off_c, 0, 62, 0
4, 21360, Note_on_c, 0, 71, 88
4, 21418, Note_off_c, 0, 71, 0
4, 21420, Note_on_c, 0, 62, 88
4, 21478, Note_off_c, 0, 62, 0
4, 21480, Note_on_c, 0, 61, 88
4, 21538, Note_off_c, 0, 61, 0
4, 21540, Note_on_c, 0, 59, 88
4, 21598, Note_off_c, 0, 59, 0
4, 21600, Note_on_c, 0, 61, 88
4, 21658, Note_off_c, 0, 61, 0
4, 21660, Note_on_c, 0, 64, 88
4, 21718, Note_off_c, 0, 64, 0
4, 21720, Note_on_c, 0, 69, 88
4, 21954, Note_off_c, 0, 69, 0
4, 21960, Note_on_c, 0, 67, 88
4, 22018, Note_off_c, 0, 67, 0
4, 22020, Note_on_c, 0, 66, 88
4, 22078, Note_off_c, 0, 66, 0
4, 22080, Note_on_c, 0, 67, 88
4, 22138, Note_off_c, 0, 67, 0
4, 22140, Note_on_c, 0, 66, 88
4, 22198, Note_off_c, 0, 66, 0
4, 22200, Note_on_c, 0, 64, 88
4, 22258, Note_off_c, 0, 64, 0
4, 22260, Note_on_c, 0, 66, 88
4, 22318, Note_off_c, 0, 66, 0
4, 22320, Note_on_c, 0, 62, 88
4, 22436, Note_off_c, 0, 62, 0
4, 22440, Note_on_c, 0, 61, 88
4, 22498, Note_off_c, 0, 61, 0
4, 22500, Note_on_c, 0, 59, 88
4, 22558, Note_off_c, 0, 59, 0
4, 22560, Note_on_c, 0, 57, 88
4, 22618, Note_off_c, 0, 57, 0
4, 22620, Note_on_c, 0, 55, 88
4, 22678, Note_off_c, 0, 55, 0
4, 22680, Note_on_c, 0, 54, 88
4, 22738, Note_off_c, 0, 54, 0
4, 22740, Note_on_c, 0, 52, 88
4, 22798, Note_off_c, 0, 52, 0
4, 22800, Note_on_c, 0, 50, 88
4, 22822, Note_off_c, 0, 50, 0
4, 22823, Note_on_c, 0, 49, 88
4, 22859, Note_off_c, 0, 49, 0
4, 22860, Note_on_c, 0, 50, 88
4, 23035, Note_off_c, 0, 50, 0
4, 23040, Note_on_c, 0, 66, 88
4, 23098, Note_off_c, 0, 66, 0
4, 23100, Note_on_c, 0, 62, 88
4, 23158, Note_off_c, 0, 62, 0
4, 23160, Note_on_c, 0, 64, 88
4, 23218, Note_off_c, 0, 64, 0
4, 23220, Note_on_c, 0, 62, 88
4, 23278, Note_off_c, 0, 62, 0
4, 23280, Note_on_c, 0, 66, 88
4, 23338, Note_off_c, 0, 66, 0
4, 23340, Note_on_c, 0, 62, 88
4, 23398, Note_off_c, 0, 62, 0
4, 23400, Note_on_c, 0, 67, 88
4, 23458, Note_off_c, 0, 67, 0
4, 23460, Note_on_c, 0, 62, 88
4, 23518, Note_off_c, 0, 62, 0
4, 23520, Note_on_c, 0, 69, 88
4, 23578, Note_off_c, 0, 69, 0
4, 23580, Note_on_c, 0, 62, 88
4, 23638, Note_off_c, 0, 62, 0
4, 23640, Note_on_c, 0, 67, 88
4, 23698, Note_off_c, 0, 67, 0
4, 23700, Note_on_c, 0, 62, 88
4, 23758, Note_off_c, 0, 62, 0
4, 23760, Note_on_c, 0, 66, 88
4, 23818, Note_off_c, 0, 66, 0
4, 23820, Note_on_c, 0, 62, 88
4, 23878, Note_off_c, 0, 62, 0
4, 23880, Note_on_c, 0, 64, 88
4, 23938, Note_off_c, 0, 64, 0
4, 23940, Note_on_c, 0, 62, 88
4, 23998, Note_off_c, 0, 62, 0
4, 24000, Note_on_c, 0, 66, 88
4, 24058, Note_off_c, 0, 66, 0
4, 24060, Note_on_c, 0, 62, 88
4, 24118, Note_off_c, 0, 62, 0
4, 24120, Note_on_c, 0, 67, 88
4, 24178, Note_off_c, 0, 67, 0
4, 24180, Note_on_c, 0, 62, 88
4, 24238, Note_off_c, 0, 62, 0
4, 24240, Note_on_c, 0, 69, 88
4, 24298, Note_off_c, 0, 69, 0
4, 24300, Note_on_c, 0, 62, 88
4, 24358, Note_off_c, 0, 62, 0
4, 24360, Note_on_c, 0, 66, 88
4, 24418, Note_off_c, 0, 66, 0
4, 24420, Note_on_c, 0, 62, 88
4, 24478, Note_off_c, 0, 62, 0
4, 24480, Note_on_c, 0, 67, 88
4, 24538, Note_off_c, 0, 67, 0
4, 24540, Note_on_c, 0, 62, 88
4, 24598, Note_off_c, 0, 62, 0
4, 24600, Note_on_c, 0, 66, 88
4, 24658, Note_off_c, 0, 66, 0
4, 24660, Note_on_c, 0, 62, 88
4, 24718, Note_off_c, 0, 62, 0
4, 24720, Note_on_c, 0, 67, 88
4, 24778, Note_off_c, 0, 67, 0
4, 24780, Note_on_c, 0, 62, 88
4, 24838, Note_off_c, 0, 62, 0
4, 24840, Note_on_c, 0, 71, 88
4, 24898, Note_off_c, 0, 71, 0
4, 24900, Note_on_c, 0, 62, 88
4, 24958, Note_off_c, 0, 62, 0
4, 24960, Note_on_c, 0, 69, 88
4, 25018, Note_off_c, 0, 69, 0
4, 25020, Note_on_c, 0, 62, 88
4, 25078, Note_off_c, 0, 62, 0
4, 25080, Note_on_c, 0, 72, 88
4, 25138, Note_off_c, 0, 72, 0
4, 25140, Note_on_c, 0, 62, 88
4, 25198, Note_off_c, 0, 62, 0
4, 25200, Note_on_c, 0, 71, 88
4, 25299, Note_off_c, 0, 71, 0
4, 25320, Note_on_c, 0, 71, 88
4, 25335, Note_on_c, 0, 69, 88
4, 25335, Note_off_c, 0, 71, 0
4, 25357, Note_off_c, 0, 69, 0
4, 25358, Note_on_c, 0, 71, 88
4, 25376, Note_off_c, 0, 71, 0
4, 25380, Note_on_c, 0, 69, 88
4, 25395, Note_off_c, 0, 69, 0
4, 25395, Note_on_c, 0, 71, 88
4, 25410, Note_on_c, 0, 69, 88
4, 25410, Note_off_c, 0, 71, 0
4, 25439, Note_off_c, 0, 69, 0
4, 25440, Note_on_c, 0, 67, 88
4, 25556, Note_off_c, 0, 67, 0
4, 25560, Note_on_c, 0, 69, 88
4, 25676, Note_off_c, 0, 69, 0
4, 25680, Note_on_c, 0, 71, 88
4, 25796, Note_off_c, 0, 71, 0
4, 25800, Note_on_c, 0, 72, 88
4, 25916, Note_off_c, 0, 72, 0
4, 25920, Note_on_c, 0, 74, 88
4, 26036, Note_off_c, 0, 74, 0
4, 26040, Note_on_c, 0, 72, 88
4, 26156, Note_off_c, 0, 72, 0
4, 26160, Note_on_c, 0, 74, 88
4, 26276, Note_off_c, 0, 74, 0
4, 26280, Note_on_c, 0, 76, 88
4, 26396, Note_off_c, 0, 76, 0
4, 26400, Note_on_c, 0, 77, 88
4, 26516, Note_off_c, 0, 77, 0
4, 26520, Note_on_c, 0, 74, 88
4, 26636, Note_off_c, 0, 74, 0
4, 26640, Note_on_c, 0, 76, 88
4, 26756, Note_off_c, 0, 76, 0
4, 26760, Note_on_c, 0, 79, 88
4, 26876, Note_off_c, 0, 79, 0
4, 26880, Note_on_c, 0, 76, 88
4, 26996, Note_off_c, 0, 76, 0
4, 27000, Note_on_c, 0, 72, 88
4, 27116, Note_off_c, 0, 72, 0
4, 27120, Note_on_c, 0, 74, 88
4, 27236, Note_off_c, 0, 74, 0
4, 27240, Note_on_c, 0, 71, 88
4, 27356, Note_off_c, 0, 71, 0
4, 27360, Note_on_c, 0, 72, 88
4, 27418, Note_off_c, 0, 72, 0
4, 27420, Note_on_c, 0, 76, 88
4, 27478, Note_off_c, 0, 76, 0
4, 27480, Note_on_c, 0, 75, 88
4, 27538, Note_off_c, 0, 75, 0
4, 27540, Note_on_c, 0, 76, 88
4, 27598, Note_off_c, 0, 76, 0
4, 27600, Note_on_c, 0, 81, 88
4, 27658, Note_off_c, 0, 81, 0
4, 27660, Note_on_c, 0, 72, 88
4, 27718, Note_off_c, 0, 72, 0
4, 27720, Note_on_c, 0, 79, 88
4, 27778, Note_off_c, 0, 79, 0
4, 27780, Note_on_c, 0, 72, 88
4, 27838, Note_off_c, 0, 72, 0
4, 27840, Note_on_c, 0, 78, 88
4, 27898, Note_off_c, 0, 78, 0
4, 27900, Note_on_c, 0, 72, 88
4, 27958, Note_off_c, 0, 72, 0
4, 27960, Note_on_c, 0, 76, 88
4, 28018, Note_off_c, 0, 76, 0
4, 28020, Note_on_c, 0, 72, 88
4, 28078, Note_off_c, 0, 72, 0
4, 28080, Note_on_c, 0, 75, 88
4, 28138, Note_off_c, 0, 75, 0
4, 28140, Note_on_c, 0, 71, 88
4, 28198, Note_off_c, 0, 71, 0
4, 28200, Note_on_c, 0, 70, 88
4, 28258, Note_off_c, 0, 70, 0
4, 28260, Note_on_c, 0, 71, 88
4, 28318, Note_off_c, 0, 71, 0
4, 28320, Note_on_c, 0, 79, 88
4, 28378, Note_off_c, 0, 79, 0
4, 28380, Note_on_c, 0, 71, 88
4, 28438, Note_off_c, 0, 71, 0
4, 28440, Note_on_c, 0, 78, 88
4, 28498, Note_off_c, 0, 78, 0
4, 28500, Note_on_c, 0, 71, 88
4, 28558, Note_off_c, 0, 71, 0
4, 28560, Note_on_c, 0, 76, 88
4, 28618, Note_off_c, 0, 76, 0
4, 28620, Note_on_c, 0, 71, 88
4, 28678, Note_off_c, 0, 71, 0
4, 28680, Note_on_c, 0, 74, 88
4, 28738, Note_off_c, 0, 74, 0
4, 28740, Note_on_c, 0, 71, 88
4, 28798, Note_off_c, 0, 71, 0
4, 28800, Note_on_c, 0, 72, 88
4, 28858, Note_off_c, 0, 72, 0
4, 28860, Note_on_c, 0, 69, 88
4, 28918, Note_off_c, 0, 69, 0
4, 28920, Note_on_c, 0, 67, 88
4, 28978, Note_off_c, 0, 67, 0
4, 28980, Note_on_c, 0, 69, 88
4, 29038, Note_off_c, 0, 69, 0
4, 29040, Note_on_c, 0, 66, 88
4, 29098, Note_off_c, 0, 66, 0
4, 29100, Note_on_c, 0, 69, 88
4, 29158, Note_off_c, 0, 69, 0
4, 29160, Note_on_c, 0, 64, 88
4, 29218, Note_off_c, 0, 64, 0
4, 29220, Note_on_c, 0, 69, 88
4, 29278, Note_off_c, 0, 69, 0
4, 29280, Note_on_c, 0, 63, 88
4, 29338, Note_off_c, 0, 63, 0
4, 29340, Note_on_c, 0, 69, 88
4, 29398, Note_off_c, 0, 69, 0
4, 29400, Note_on_c, 0, 64, 88
4, 29458, Note_off_c, 0, 64, 0
4, 29460, Note_on_c, 0, 69, 88
4, 29518, Note_off_c, 0, 69, 0
4, 29520, Note_on_c, 0, 66, 88
4, 29636, Note_off_c, 0, 66, 0
4, 29640, Note_on_c, 0, 75, 88
4, 29756, Note_off_c, 0, 75, 0
4, 29760, Note_on_c, 0, 76, 88
4, 29876, Note_off_c, 0, 76, 0
4, 29880, Note_on_c, 0, 79, 88
4, 29909, Note_off_c, 0, 79, 0
4, 29910, Note_on_c, 0, 78, 88
4, 29939, Note_off_c, 0, 78, 0
4, 29940, Note_on_c, 0, 76, 88
4, 29969, Note_off_c, 0, 76, 0
4, 29970, Note_on_c, 0, 78, 88
4, 29999, Note_off_c, 0, 78, 0
4, 30000, Note_on_c, 0, 79, 88
4, 30116, Note_off_c, 0, 79, 0
4, 30120, Note_on_c, 0, 75, 88
4, 30236, Note_off_c, 0, 75, 0
4, 30240, Note_on_c, 0, 76, 88
4, 30298, Note_off_c, 0, 76, 0
4, 30300, Note_on_c, 0, 71, 88
4, 30358, Note_off_c, 0, 71, 0
4, 30360, Note_on_c, 0, 72, 88
4, 30418, Note_off_c, 0, 72, 0
4, 30420, Note_on_c, 0, 69, 88
4, 30478, Note_off_c, 0, 69, 0
4, 30480, Note_on_c, 0, 67, 88
4, 30596, Note_off_c, 0, 67, 0
4, 30600, Note_on_c, 0, 76, 88
4, 30716, Note_off_c, 0, 76, 0
4, 30720, Note_on_c, 0, 66, 88
4, 30836, Note_off_c, 0, 66, 0
4, 30840, Note_on_c, 0, 76, 88
4, 30869, Note_off_c, 0, 76, 0
4, 30870, Note_on_c, 0, 75, 88
4, 30899, Note_off_c, 0, 75, 0
4, 30900, Note_on_c, 0, 73, 88
4, 30929, Note_off_c, 0, 73, 0
4, 30930, Note_on_c, 0, 75, 88
4, 30959, Note_off_c, 0, 75, 0
4, 30960, Note_on_c, 0, 76, 88
4, 31018, Note_off_c, 0, 76, 0
4, 31020, Note_on_c, 0, 71, 88
4, 31078, Note_off_c, 0, 71, 0
4, 31080, Note_on_c, 0, 67, 88
4, 31138, Note_off_c, 0, 67, 0
4, 31140, Note_on_c, 0, 71, 88
4, 31198, Note_off_c, 0, 71, 0
4, 31200, Note_on_c, 0, 64, 88
4, 31494, Note_off_c, 0, 64, 0
4, 31500, Note_on_c, 0, 67, 88
4, 31558, Note_off_c, 0, 67, 0
4, 31560, Note_on_c, 0, 71, 88
4, 31618, Note_off_c, 0, 71, 0
4, 31620, Note_on_c, 0, 74, 88
4, 31678, Note_off_c, 0, 74, 0
4, 31680, Note_on_c, 0, 73, 88
4, 31796, Note_off_c, 0, 73, 0
4, 31800, Note_on_c, 0, 69, 88
4, 31916, Note_off_c, 0, 69, 0
4, 31920, Note_on_c, 0, 73, 88
4, 32036, Note_off_c, 0, 73, 0
4, 32040, Note_on_c, 0, 76, 88
4, 32156, Note_off_c, 0, 76, 0
4, 32160, Note_on_c, 0, 81, 88
4, 32276, Note_off_c, 0, 81, 0
4, 32280, Note_on_c, 0, 79, 88
4, 32396, Note_off_c, 0, 79, 0
4, 32400, Note_on_c, 0, 78, 88
4, 32516, Note_off_c, 0, 78, 0
4, 32520, Note_on_c, 0, 81, 88
4, 32636, Note_off_c, 0, 81, 0
4, 32640, Note_on_c, 0, 78, 88
4, 32756, Note_off_c, 0, 78, 0
4, 32760, Note_on_c, 0, 74, 88
4, 32876, Note_off_c, 0, 74, 0
4, 32880, Note_on_c, 0, 69, 88
4, 32996, Note_off_c, 0, 69, 0
4, 33000, Note_on_c, 0, 72, 88
4, 33116, Note_off_c, 0, 72, 0
4, 33120, Note_on_c, 0, 71, 88
4, 33236, Note_off_c, 0, 71, 0
4, 33240, Note_on_c, 0, 67, 88
4, 33356, Note_off_c, 0, 67, 0
4, 33360, Note_on_c, 0, 71, 88
4, 33476, Note_off_c, 0, 71, 0
4, 33480, Note_on_c, 0, 74, 88
4, 33596, Note_off_c, 0, 74, 0
4, 33600, Note_on_c, 0, 79, 88
4, 33716, Note_off_c, 0, 79, 0
4, 33720, Note_on_c, 0, 77, 88
4, 33836, Note_off_c, 0, 77, 0
4, 33840, Note_on_c, 0, 76, 88
4, 33869, Note_off_c, 0, 76, 0
4, 33870, Note_on_c, 0, 74, 88
4, 33914, Note_off_c, 0, 74, 0
4, 33915, Note_on_c, 0, 76, 88
4, 34134, Note_off_c, 0, 76, 0
4, 34140, Note_on_c, 0, 74, 88
4, 34198, Note_off_c, 0, 74, 0
4, 34200, Note_on_c, 0, 72, 88
4, 34258, Note_off_c, 0, 72, 0
4, 34260, Note_on_c, 0, 71, 88
4, 34318, Note_off_c, 0, 71, 0
4, 34320, Note_on_c, 0, 69, 88
4, 34378, Note_off_c, 0, 69, 0
4, 34380, Note_on_c, 0, 67, 88
4, 34438, Note_off_c, 0, 67, 0
4, 34440, Note_on_c, 0, 66, 88
4, 34498, Note_off_c, 0, 66, 0
4, 34500, Note_on_c, 0, 64, 88
4, 34558, Note_off_c, 0, 64, 0
4, 34560, Note_on_c, 0, 66, 88
4, 34676, Note_off_c, 0, 66, 0
4, 34680, Note_on_c, 0, 74, 88
4, 34695, Note_on_c, 0, 72, 88
4, 34695, Note_off_c, 0, 74, 0
4, 34724, Note_off_c, 0, 72, 0
4, 34725, Note_on_c, 0, 74, 88
4, 34856, Note_off_c, 0, 74, 0
4, 34860, Note_on_c, 0, 72, 88
4, 34918, Note_off_c, 0, 72, 0
4, 34920, Note_on_c, 0, 71, 88
4, 34978, Note_off_c, 0, 71, 0
4, 34980, Note_on_c, 0, 69, 88
4, 35038, Note_off_c, 0, 69, 0
4, 35040, Note_on_c, 0, 67, 88
4, 35098, Note_off_c, 0, 67, 0
4, 35100, Note_on_c, 0, 66, 88
4, 35158, Note_off_c, 0, 66, 0
4, 35160, Note_on_c, 0, 64, 88
4, 35218, Note_off_c, 0, 64, 0
4, 35220, Note_on_c, 0, 62, 88
4, 35278, Note_off_c, 0, 62, 0
4, 35280, Note_on_c, 0, 64, 88
4, 35396, Note_off_c, 0, 64, 0
4, 35400, Note_on_c, 0, 72, 88
4, 35415, Note_on_c, 0, 71, 88
4, 35415, Note_off_c, 0, 72, 0
4, 35444, Note_off_c, 0, 71, 0
4, 35445, Note_on_c, 0, 72, 88
4, 35576, Note_off_c, 0, 72, 0
4, 35580, Note_on_c, 0, 71, 88
4, 35638, Note_off_c, 0, 71, 0
4, 35640, Note_on_c, 0, 69, 88
4, 35698, Note_off_c, 0, 69, 0
4, 35700, Note_on_c, 0, 67, 88
4, 35758, Note_off_c, 0, 67, 0
4, 35760, Note_on_c, 0, 66, 88
4, 35818, Note_off_c, 0, 66, 0
4, 35820, Note_on_c, 0, 64, 88
4, 35878, Note_off_c, 0, 64, 0
4, 35880, Note_on_c, 0, 62, 88
4, 35938, Note_off_c, 0, 62, 0
4, 35940, Note_on_c, 0, 60, 88
4, 35998, Note_off_c, 0, 60, 0
4, 36000, Note_on_c, 0, 62, 88
4, 36058, Note_off_c, 0, 62, 0
4, 36060, Note_on_c, 0, 66, 88
4, 36118, Note_off_c, 0, 66, 0
4, 36120, Note_on_c, 0, 64, 88
4, 36178, Note_off_c, 0, 64, 0
4, 36180, Note_on_c, 0, 62, 88
4, 36238, Note_off_c, 0, 62, 0
4, 36240, Note_on_c, 0, 64, 88
4, 36298, Note_off_c, 0, 64, 0
4, 36300, Note_on_c, 0, 66, 88
4, 36358, Note_off_c, 0, 66, 0
4, 36360, Note_on_c, 0, 67, 88
4, 36418, Note_off_c, 0, 67, 0
4, 36420, Note_on_c, 0, 69, 88
4, 36478, Note_off_c, 0, 69, 0
4, 36480, Note_on_c, 0, 71, 88
4, 36538, Note_off_c, 0, 71, 0
4, 36540, Note_on_c, 0, 69, 88
4, 36598, Note_off_c, 0, 69, 0
4, 36600, Note_on_c, 0, 71, 88
4, 36658, Note_off_c, 0, 71, 0
4, 36660, Note_on_c, 0, 67, 88
4, 36718, Note_off_c, 0, 67, 0
4, 36720, Note_on_c, 0, 69, 88
4, 36778, Note_off_c, 0, 69, 0
4, 36780, Note_on_c, 0, 74, 88
4, 36838, Note_off_c, 0, 74, 0
4, 36840, Note_on_c, 0, 72, 88
4, 36898, Note_off_c, 0, 72, 0
4, 36900, Note_on_c, 0, 71, 88
4, 36958, Note_off_c, 0, 71, 0
4, 36960, Note_on_c, 0, 69, 88
4, 37018, Note_off_c, 0, 69, 0
4, 37020, Note_on_c, 0, 67, 88
4, 37078, Note_off_c, 0, 67, 0
4, 37080, Note_on_c, 0, 66, 88
4, 37138, Note_off_c, 0, 66, 0
4, 37140, Note_on_c, 0, 64, 88
4, 37198, Note_off_c, 0, 64, 0
4, 37200, Note_on_c, 0, 62, 88
4, 37498, Note_off_c, 0, 62, 0
4, 37500, Note_on_c, 0, 67, 88
4, 37558, Note_off_c, 0, 67, 0
4, 37560, Note_on_c, 0, 60, 88
4, 37618, Note_off_c, 0, 60, 0
4, 37620, Note_on_c, 0, 67, 88
4, 37678, Note_off_c, 0, 67, 0
4, 37680, Note_on_c, 0, 62, 88
4, 37738, Note_off_c, 0, 62, 0
4, 37740, Note_on_c, 0, 67, 88
4, 37798, Note_off_c, 0, 67, 0
4, 37800, Note_on_c, 0, 59, 88
4, 37858, Note_off_c, 0, 59, 0
4, 37860, Note_on_c, 0, 67, 88
4, 37918, Note_off_c, 0, 67, 0
4, 37920, Note_on_c, 0, 60, 88
4, 37978, Note_off_c, 0, 60, 0
4, 37980, Note_on_c, 0, 67, 88
4, 38038, Note_off_c, 0, 67, 0
4, 38040, Note_on_c, 0, 62, 88
4, 38098, Note_off_c, 0, 62, 0
4, 38100, Note_on_c, 0, 67, 88
4, 38158, Note_off_c, 0, 67, 0
4, 38160, Note_on_c, 0, 64, 88
4, 38218, Note_off_c, 0, 64, 0
4, 38220, Note_on_c, 0, 67, 88
4, 38278, Note_off_c, 0, 67, 0
4, 38280, Note_on_c, 0, 62, 88
4, 38338, Note_off_c, 0, 62, 0
4, 38340, Note_on_c, 0, 67, 88
4, 38398, Note_off_c, 0, 67, 0
4, 38400, Note_on_c, 0, 64, 88
4, 38458, Note_off_c, 0, 64, 0
4, 38460, Note_on_c, 0, 69, 88
4, 38518, Note_off_c, 0, 69, 0
4, 38520, Note_on_c, 0, 61, 88
4, 38578, Note_off_c, 0, 61, 0
4, 38580, Note_on_c, 0, 69, 88
4, 38638, Note_off_c, 0, 69, 0
4, 38640, Note_on_c, 0, 62, 88
4, 38698, Note_off_c, 0, 62, 0
4, 38700, Note_on_c, 0, 69, 88
4, 38758, Note_off_c, 0, 69, 0
4, 38760, Note_on_c, 0, 64, 88
4, 38818, Note_off_c, 0, 64, 0
4, 38820, Note_on_c, 0, 69, 88
4, 38878, Note_off_c, 0, 69, 0
4, 38880, Note_on_c, 0, 66, 88
4, 38938, Note_off_c, 0, 66, 0
4, 38940, Note_on_c, 0, 69, 88
4, 38998, Note_off_c, 0, 69, 0
4, 39000, Note_on_c, 0, 64, 88
4, 39058, Note_off_c, 0, 64, 0
4, 39060, Note_on_c, 0, 69, 88
4, 39118, Note_off_c, 0, 69, 0
4, 39120, Note_on_c, 0, 66, 88
4, 39178, Note_off_c, 0, 66, 0
4, 39180, Note_on_c, 0, 71, 88
4, 39238, Note_off_c, 0, 71, 0
4, 39240, Note_on_c, 0, 63, 88
4, 39298, Note_off_c, 0, 63, 0
4, 39300, Note_on_c, 0, 71, 88
4, 39358, Note_off_c, 0, 71, 0
4, 39360, Note_on_c, 0, 64, 88
4, 39418, Note_off_c, 0, 64, 0
4, 39420, Note_on_c, 0, 71, 88
4, 39478, Note_off_c, 0, 71, 0
4, 39480, Note_on_c, 0, 66, 88
4, 39538, Note_off_c, 0, 66, 0
4, 39540, Note_on_c, 0, 71, 88
4, 39598, Note_off_c, 0, 71, 0
4, 39600, Note_on_c, 0, 67, 88
4, 39658, Note_off_c, 0, 67, 0
4, 39660, Note_on_c, 0, 71, 88
4, 39718, Note_off_c, 0, 71, 0
4, 39720, Note_on_c, 0, 66, 88
4, 39778, Note_off_c, 0, 66, 0
4, 39780, Note_on_c, 0, 71, 88
4, 39838, Note_off_c, 0, 71, 0
4, 39840, Note_on_c, 0, 64, 88
4, 39956, Note_off_c, 0, 64, 0
4, 39960, Note_on_c, 0, 67, 88
4, 40076, Note_off_c, 0, 67, 0
4, 40080, Note_on_c, 0, 72, 88
4, 40102, Note_off_c, 0, 72, 0
4, 40103, Note_on_c, 0, 71, 88
4, 40139, Note_off_c, 0, 71, 0
4, 40140, Note_on_c, 0, 72, 88
4, 40315, Note_off_c, 0, 72, 0
4, 40320, Note_on_c, 0, 72, 88
4, 40378, Note_off_c, 0, 72, 0
4, 40380, Note_on_c, 0, 81, 88
4, 40438, Note_off_c, 0, 81, 0
4, 40440, Note_on_c, 0, 79, 88
4, 40498, Note_off_c, 0, 79, 0
4, 40500, Note_on_c, 0, 81, 88
4, 40558, Note_off_c, 0, 81, 0
4, 40560, Note_on_c, 0, 78, 88
4, 40618, Note_off_c, 0, 78, 0
4, 40620, Note_on_c, 0, 81, 88
4, 40678, Note_off_c, 0, 81, 0
4, 40680, Note_on_c, 0, 76, 88
4, 40738, Note_off_c, 0, 76, 0
4, 40740, Note_on_c, 0, 81, 88
4, 40798, Note_off_c, 0, 81, 0
4, 40800, Note_on_c, 0, 74, 88
4, 40858, Note_off_c, 0, 74, 0
4, 40860, Note_on_c, 0, 81, 88
4, 40918, Note_off_c, 0, 81, 0
4, 40920, Note_on_c, 0, 72, 88
4, 40978, Note_off_c, 0, 72, 0
4, 40980, Note_on_c, 0, 81, 88
4, 41038, Note_off_c, 0, 81, 0
4, 41040, Note_on_c, 0, 71, 88
4, 41156, Note_off_c, 0, 71, 0
4, 41160, Note_on_c, 0, 74, 88
4, 41276, Note_off_c, 0, 74, 0
4, 41280, Note_on_c, 0, 79, 88
4, 41396, Note_off_c, 0, 79, 0
4, 41400, Note_on_c, 0, 77, 88
4, 41516, Note_off_c, 0, 77, 0
4, 41520, Note_on_c, 0, 76, 88
4, 41636, Note_off_c, 0, 76, 0
4, 41640, Note_on_c, 0, 74, 88
4, 41756, Note_off_c, 0, 74, 0
4, 41760, Note_on_c, 0, 76, 88
4, 41818, Note_off_c, 0, 76, 0
4, 41820, Note_on_c, 0, 72, 88
4, 41878, Note_off_c, 0, 72, 0
4, 41880, Note_on_c, 0, 71, 88
4, 41938, Note_off_c, 0, 71, 0
4, 41940, Note_on_c, 0, 72, 88
4, 41998, Note_off_c, 0, 72, 0
4, 42000, Note_on_c, 0, 84, 88
4, 42058, Note_off_c, 0, 84, 0
4, 42060, Note_on_c, 0, 72, 88
4, 42118, Note_off_c, 0, 72, 0
4, 42120, Note_on_c, 0, 83, 88
4, 42178, Note_off_c, 0, 83, 0
4, 42180, Note_on_c, 0, 72, 88
4, 42238, Note_off_c, 0, 72, 0
4, 42240, Note_on_c, 0, 81, 88
4, 42298, Note_off_c, 0, 81, 0
4, 42300, Note_on_c, 0, 72, 88
4, 42358, Note_off_c, 0, 72, 0
4, 42360, Note_on_c, 0, 79, 88
4, 42418, Note_off_c, 0, 79, 0
4, 42420, Note_on_c, 0, 72, 88
4, 42478, Note_off_c, 0, 72, 0
4, 42480, Note_on_c, 0, 78, 88
4, 42538, Note_off_c, 0, 78, 0
4, 42540, Note_on_c, 0, 72, 88
4, 42598, Note_off_c, 0, 72, 0
4, 42600, Note_on_c, 0, 79, 88
4, 42658, Note_off_c, 0, 79, 0
4, 42660, Note_on_c, 0, 72, 88
4, 42718, Note_off_c, 0, 72, 0
4, 42720, Note_on_c, 0, 81, 88
4, 42778, Note_off_c, 0, 81, 0
4, 42780, Note_on_c, 0, 72, 88
4, 42838, Note_off_c, 0, 72, 0
4, 42840, Note_on_c, 0, 79, 88
4, 42898, Note_off_c, 0, 79, 0
4, 42900, Note_on_c, 0, 72, 88
4, 42958, Note_off_c, 0, 72, 0
4, 42960, Note_on_c, 0, 78, 88
4, 43018, Note_off_c, 0, 78, 0
4, 43020, Note_on_c, 0, 72, 88
4, 43078, Note_off_c, 0, 72, 0
4, 43080, Note_on_c, 0, 76, 88
4, 43138, Note_off_c, 0, 76, 0
4, 43140, Note_on_c, 0, 72, 88
4, 43198, Note_off_c, 0, 72, 0
4, 43200, Note_on_c, 0, 74, 88
4, 43258, Note_off_c, 0, 74, 0
4, 43260, Note_on_c, 0, 72, 88
4, 43318, Note_off_c, 0, 72, 0
4, 43320, Note_on_c, 0, 71, 88
4, 43378, Note_off_c, 0, 71, 0
4, 43380, Note_on_c, 0, 69, 88
4, 43438, Note_off_c, 0, 69, 0
4, 43440, Note_on_c, 0, 71, 88
4, 43556, Note_off_c, 0, 71, 0
4, 43560, Note_on_c, 0, 79, 88
4, 43676, Note_off_c, 0, 79, 0
4, 43680, Note_on_c, 0, 69, 88
4, 43796, Note_off_c, 0, 69, 0
4, 43800, Note_on_c, 0, 79, 88
4, 43822, Note_off_c, 0, 79, 0
4, 43823, Note_on_c, 0, 78, 88
4, 43852, Note_off_c, 0, 78, 0
4, 43853, Note_on_c, 0, 76, 88
4, 43882, Note_off_c, 0, 76, 0
4, 43883, Note_on_c, 0, 78, 88
4, 43919, Note_off_c, 0, 78, 0
4, 43920, Note_on_c, 0, 67, 88
4, 43978, Note_off_c, 0, 67, 0
4, 43980, Note_on_c, 0, 69, 88
4, 44038, Note_off_c, 0, 69, 0
4, 44040, Note_on_c, 0, 70, 88
4, 44098, Note_off_c, 0, 70, 0
4, 44100, Note_on_c, 0, 67, 88
4, 44158, Note_off_c, 0, 67, 0
4, 44160, Note_on_c, 0, 73, 88
4, 44218, Note_off_c, 0, 73, 0
4, 44220, Note_on_c, 0, 67, 88
4, 44278, Note_off_c, 0, 67, 0
4, 44280, Note_on_c, 0, 74, 88
4, 44338, Note_off_c, 0, 74, 0
4, 44340, Note_on_c, 0, 67, 88
4, 44398, Note_off_c, 0, 67, 0
4, 44400, Note_on_c, 0, 76, 88
4, 44458, Note_off_c, 0, 76, 0
4, 44460, Note_on_c, 0, 67, 88
4, 44518, Note_off_c, 0, 67, 0
4, 44520, Note_on_c, 0, 66, 88
4, 44578, Note_off_c, 0, 66, 0
4, 44580, Note_on_c, 0, 64, 88
4, 44638, Note_off_c, 0, 64, 0
4, 44640, Note_on_c, 0, 66, 88
4, 44698, Note_off_c, 0, 66, 0
4, 44700, Note_on_c, 0, 69, 88
4, 44758, Note_off_c, 0, 69, 0
4, 44760, Note_on_c, 0, 74, 88
4, 44994, Note_off_c, 0, 74, 0
4, 45000, Note_on_c, 0, 72, 88
4, 45058, Note_off_c, 0, 72, 0
4, 45060, Note_on_c, 0, 71, 88
4, 45118, Note_off_c, 0, 71, 0
4, 45120, Note_on_c, 0, 72, 88
4, 45178, Note_off_c, 0, 72, 0
4, 45180, Note_on_c, 0, 71, 88
4, 45238, Note_off_c, 0, 71, 0
4, 45240, Note_on_c, 0, 69, 88
4, 45298, Note_off_c, 0, 69, 0
4, 45300, Note_on_c, 0, 71, 88
4, 45358, Note_off_c, 0, 71, 0
4, 45360, Note_on_c, 0, 67, 88
4, 45476, Note_off_c, 0, 67, 0
4, 45480, Note_on_c, 0, 66, 88
4, 45538, Note_off_c, 0, 66, 0
4, 45540, Note_on_c, 0, 64, 88
4, 45598, Note_off_c, 0, 64, 0
4, 45600, Note_on_c, 0, 62, 88
4, 45658, Note_off_c, 0, 62, 0
4, 45660, Note_on_c, 0, 60, 88
4, 45718, Note_off_c, 0, 60, 0
4, 45720, Note_on_c, 0, 59, 88
4, 45778, Note_off_c, 0, 59, 0
4, 45780, Note_on_c, 0, 57, 88
4, 45838, Note_off_c, 0, 57, 0
4, 45840, Note_on_c, 0, 55, 88
4, 45862, Note_off_c, 0, 55, 0
4, 45863, Note_on_c, 0, 54, 88
4, 45899, Note_off_c, 0, 54, 0
4, 45900, Note_on_c, 0, 55, 88
4, 46075, Note_off_c, 0, 55, 0
4, 46080, Note_on_c, 0, 66, 88
4, 46138, Note_off_c, 0, 66, 0
4, 46140, Note_on_c, 0, 62, 88
4, 46198, Note_off_c, 0, 62, 0
4, 46200, Note_on_c, 0, 64, 88
4, 46258, Note_off_c, 0, 64, 0
4, 46260, Note_on_c, 0, 62, 88
4, 46318, Note_off_c, 0, 62, 0
4, 46320, Note_on_c, 0, 66, 88
4, 46378, Note_off_c, 0, 66, 0
4, 46380, Note_on_c, 0, 62, 88
4, 46438, Note_off_c, 0, 62, 0
4, 46440, Note_on_c, 0, 67, 88
4, 46498, Note_off_c, 0, 67, 0
4, 46500, Note_on_c, 0, 62, 88
4, 46558, Note_off_c, 0, 62, 0
4, 46560, Note_on_c, 0, 69, 88
4, 46618, Note_off_c, 0, 69, 0
4, 46620, Note_on_c, 0, 62, 88
4, 46678, Note_off_c, 0, 62, 0
4, 46680, Note_on_c, 0, 67, 88
4, 46738, Note_off_c, 0, 67, 0
4, 46740, Note_on_c, 0, 62, 88
4, 46798, Note_off_c, 0, 62, 0
4, 46800, Note_on_c, 0, 66, 88
4, 46858, Note_off_c, 0, 66, 0
4, 46860, Note_on_c, 0, 62, 88
4, 46918, Note_off_c, 0, 62, 0
4, 46920, Note_on_c, 0, 64, 88
4, 46978, Note_off_c, 0, 64, 0
4, 46980, Note_on_c, 0, 62, 88
4, 47038, Note_off_c, 0, 62, 0
4, 47040, Note_on_c, 0, 66, 88
4, 47098, Note_off_c, 0, 66, 0
4, 47100, Note_on_c, 0, 62, 88
4, 47158, Note_off_c, 0, 62, 0
4, 47160, Note_on_c, 0, 67, 88
4, 47218, Note_off_c, 0, 67, 0
4, 47220, Note_on_c, 0, 62, 88
4, 47278, Note_off_c, 0, 62, 0
4, 47280, Note_on_c, 0, 69, 88
4, 47338, Note_off_c, 0, 69, 0
4, 47340, Note_on_c, 0, 62, 88
4, 47398, Note_off_c, 0, 62, 0
4, 47400, Note_on_c, 0, 66, 88
4, 47458, Note_off_c, 0, 66, 0
4, 47460, Note_on_c, 0, 62, 88
4, 47518, Note_off_c, 0, 62, 0
4, 47520, Note_on_c, 0, 67, 88
4, 47578, Note_off_c, 0, 67, 0
4, 47580, Note_on_c, 0, 62, 88
4, 47638, Note_off_c, 0, 62, 0
4, 47640, Note_on_c, 0, 66, 88
4, 47698, Note_off_c, 0, 66, 0
4, 47700, Note_on_c, 0, 62, 88
4, 47758, Note_off_c, 0, 62, 0
4, 47760, Note_on_c, 0, 67, 88
4, 47818, Note_off_c, 0, 67, 0
4, 47820, Note_on_c, 0, 62, 88
4, 47878, Note_off_c, 0, 62, 0
4, 47880, Note_on_c, 0, 71, 88
4, 47938, Note_off_c, 0, 71, 0
4, 47940, Note_on_c, 0, 62, 88
4, 47998, Note_off_c, 0, 62, 0
4, 48000, Note_on_c, 0, 69, 88
4, 48058, Note_off_c, 0, 69, 0
4, 48060, Note_on_c, 0, 62, 88
4, 48118, Note_off_c, 0, 62, 0
4, 48120, Note_on_c, 0, 72, 88
4, 48178, Note_off_c, 0, 72, 0
4, 48180, Note_on_c, 0, 62, 88
4, 48238, Note_off_c, 0, 62, 0
4, 48240, Note_on_c, 0, 71, 88
4, 48339, Note_off_c, 0, 71, 0
4, 48360, Note_on_c, 0, 71, 88
4, 48375, Note_on_c, 0, 69, 88
4, 48375, Note_off_c, 0, 71, 0
4, 48397, Note_off_c, 0, 69, 0
4, 48398, Note_on_c, 0, 71, 88
4, 48416, Note_off_c, 0, 71, 0
4, 48420, Note_on_c, 0, 69, 88
4, 48435, Note_off_c, 0, 69, 0
4, 48435, Note_on_c, 0, 71, 88
4, 48450, Note_on_c, 0, 69, 88
4, 48450, Note_off_c, 0, 71, 0
4, 48479, Note_off_c, 0, 69, 0
4, 48480, Note_on_c, 0, 67, 88
4, 48596, Note_off_c, 0, 67, 0
4, 48600, Note_on_c, 0, 69, 88
4, 48716, Note_off_c, 0, 69, 0
4, 48720, Note_on_c, 0, 71, 88
4, 48836, Note_off_c, 0, 71, 0
4, 48840, Note_on_c, 0, 72, 88
4, 48956, Note_off_c, 0, 72, 0
4, 48960, Note_on_c, 0, 74, 88
4, 49076, Note_off_c, 0, 74, 0
4, 49080, Note_on_c, 0, 72, 88
4, 49196, Note_off_c, 0, 72, 0
4, 49200, Note_on_c, 0, 74, 88
4, 49316, Note_off_c, 0, 74, 0
4, 49320, Note_on_c, 0, 76, 88
4, 49436, Note_off_c, 0, 76, 0
4, 49440, Note_on_c, 0, 77, 88
4, 49556, Note_off_c, 0, 77, 0
4, 49560, Note_on_c, 0, 74, 88
4, 49676, Note_off_c, 0, 74, 0
4, 49680, Note_on_c, 0, 76, 88
4, 49796, Note_off_c, 0, 76, 0
4, 49800, Note_on_c, 0, 79, 88
4, 49916, Note_off_c, 0, 79, 0
4, 49920, Note_on_c, 0, 76, 88
4, 50036, Note_off_c, 0, 76, 0
4, 50040, Note_on_c, 0, 72, 88
4, 50156, Note_off_c, 0, 72, 0
4, 50160, Note_on_c, 0, 74, 88
4, 50276, Note_off_c, 0, 74, 0
4, 50280, Note_on_c, 0, 71, 88
4, 50396, Note_off_c, 0, 71, 0
4, 50400, Note_on_c, 0, 72, 88
4, 50458, Note_off_c, 0, 72, 0
4, 50460, Note_on_c, 0, 76, 88
4, 50518, Note_off_c, 0, 76, 0
4, 50520, Note_on_c, 0, 75, 88
4, 50578, Note_off_c, 0, 75, 0
4, 50580, Note_on_c, 0, 76, 88
4, 50638, Note_off_c, 0, 76, 0
4, 50640, Note_on_c, 0, 81, 88
4, 50698, Note_off_c, 0, 81, 0
4, 50700, Note_on_c, 0, 72, 88
4, 50758, Note_off_c, 0, 72, 0
4, 50760, Note_on_c, 0, 79, 88
4, 50818, Note_off_c, 0, 79, 0
4, 50820, Note_on_c, 0, 72, 88
4, 50878, Note_off_c, 0, 72, 0
4, 50880, Note_on_c, 0, 78, 88
4, 50938, Note_off_c, 0, 78, 0
4, 50940, Note_on_c, 0, 72, 88
4, 50998, Note_off_c, 0, 72, 0
4, 51000, Note_on_c, 0, 76, 88
4, 51058, Note_off_c, 0, 76, 0
4, 51060, Note_on_c, 0, 72, 88
4, 51118, Note_off_c, 0, 72, 0
4, 51120, Note_on_c, 0, 75, 88
4, 51178, Note_off_c, 0, 75, 0
4, 51180, Note_on_c, 0, 71, 88
4, 51238, Note_off_c, 0, 71, 0
4, 51240, Note_on_c, 0, 70, 88
4, 51298, Note_off_c, 0, 70, 0
4, 51300, Note_on_c, 0, 71, 88
4, 51358, Note_off_c, 0, 71, 0
4, 51360, Note_on_c, 0, 79, 88
4, 51418, Note_off_c, 0, 79, 0
4, 51420, Note_on_c, 0, 71, 88
4, 51478, Note_off_c, 0, 71, 0
4, 51480, Note_on_c, 0, 78, 88
4, 51538, Note_off_c, 0, 78, 0
4, 51540, Note_on_c, 0, 71, 88
4, 51598, Note_off_c, 0, 71, 0
4, 51600, Note_on_c, 0, 76, 88
4, 51658, Note_off_c, 0, 76, 0
4, 51660, Note_on_c, 0, 71, 88
4, 51718, Note_off_c, 0, 71, 0
4, 51720, Note_on_c, 0, 74, 88
4, 51778, Note_off_c, 0, 74, 0
4, 51780, Note_on_c, 0, 71, 88
4, 51838, Note_off_c, 0, 71, 0
4, 51840, Note_on_c, 0, 72, 88
4, 51898, Note_off_c, 0, 72, 0
4, 51900, Note_on_c, 0, 69, 88
4, 51958, Note_off_c, 0, 69, 0
4, 51960, Note_on_c, 0, 67, 88
4, 52018, Note_off_c, 0, 67, 0
4, 52020, Note_on_c, 0, 69, 88
4, 52078, Note_off_c, 0, 69, 0
4, 52080, Note_on_c, 0, 66, 88
4, 52138, Note_off_c, 0, 66, 0
4, 52140, Note_on_c, 0, 69, 88
4, 52198, Note_off_c, 0, 69, 0
4, 52200, Note_on_c, 0, 64, 88
4, 52258, Note_off_c, 0, 64, 0
4, 52260, Note_on_c, 0, 69, 88
4, 52318, Note_off_c, 0, 69, 0
4, 52320, Note_on_c, 0, 63, 88
4, 52378, Note_off_c, 0, 63, 0
4, 52380, Note_on_c, 0, 69, 88
4, 52438, Note_off_c, 0, 69, 0
4, 52440, Note_on_c, 0, 64, 88
4, 52498, Note_off_c, 0, 64, 0
4, 52500, Note_on_c, 0, 69, 88
4, 52558, Note_off_c, 0, 69, 0
4, 52560, Note_on_c, 0, 66, 88
4, 52676, Note_off_c, 0, 66, 0
4, 52680, Note_on_c, 0, 75, 88
4, 52796, Note_off_c, 0, 75, 0
4, 52800, Note_on_c, 0, 76, 88
4, 52916, Note_off_c, 0, 76, 0
4, 52920, Note_on_c, 0, 79, 88
4, 52949, Note_off_c, 0, 79, 0
4, 52950, Note_on_c, 0, 78, 88
4, 52979, Note_off_c, 0, 78, 0
4, 52980, Note_on_c, 0, 76, 88
4, 53009, Note_off_c, 0, 76, 0
4, 53010, Note_on_c, 0, 78, 88
4, 53039, Note_off_c, 0, 78, 0
4, 53040, Note_on_c, 0, 79, 88
4, 53156, Note_off_c, 0, 79, 0
4, 53160, Note_on_c, 0, 75, 88
4, 53276, Note_off_c, 0, 75, 0
4, 53280, Note_on_c, 0, 76, 88
4, 53338, Note_off_c, 0, 76, 0
4, 53340, Note_on_c, 0, 71, 88
4, 53398, Note_off_c, 0, 71, 0
4, 53400, Note_on_c, 0, 72, 88
4, 53458, Note_off_c, 0, 72, 0
4, 53460, Note_on_c, 0, 69, 88
4, 53518, Note_off_c, 0, 69, 0
4, 53520, Note_on_c, 0, 67, 88
4, 53636, Note_off_c, 0, 67, 0
4, 53640, Note_on_c, 0, 76, 88
4, 53756, Note_off_c, 0, 76, 0
4, 53760, Note_on_c, 0, 66, 88
4, 53876, Note_off_c, 0, 66, 0
4, 53880, Note_on_c, 0, 76, 88
4, 53909, Note_off_c, 0, 76, 0
4, 53910, Note_on_c, 0, 75, 88
4, 53939, Note_off_c, 0, 75, 0
4, 53940, Note_on_c, 0, 73, 88
4, 53969, Note_off_c, 0, 73, 0
4, 53970, Note_on_c, 0, 75, 88
4, 53999, Note_off_c, 0, 75, 0
4, 54000, Note_on_c, 0, 76, 88
4, 54058, Note_off_c, 0, 76, 0
4, 54060, Note_on_c, 0, 71, 88
4, 54118, Note_off_c, 0, 71, 0
4, 54120, Note_on_c, 0, 67, 88
4, 54178, Note_off_c, 0, 67, 0
4, 54180, Note_on_c, 0, 71, 88
4, 54238, Note_off_c, 0, 71, 0
4, 54240, Note_on_c, 0, 64, 88
4, 54534, Note_off_c, 0, 64, 0
4, 54540, Note_on_c, 0, 67, 88
4, 54598, Note_off_c, 0, 67, 0
4, 54600, Note_on_c, 0, 71, 88
4, 54658, Note_off_c, 0, 71, 0
4, 54660, Note_on_c, 0, 74, 88
4, 54718, Note_off_c, 0, 74, 0
4, 54720, Note_on_c, 0, 73, 88
4, 54836, Note_off_c, 0, 73, 0
4, 54840, Note_on_c, 0, 69, 88
4, 54956, Note_off_c, 0, 69, 0
4, 54960, Note_on_c, 0, 73, 88
4, 55076, Note_off_c, 0, 73, 0
4, 55080, Note_on_c, 0, 76, 88
4, 55196, Note_off_c, 0, 76, 0
4, 55200, Note_on_c, 0, 81, 88
4, 55316, Note_off_c, 0, 81, 0
4, 55320, Note_on_c, 0, 79, 88
4, 55436, Note_off_c, 0, 79, 0
4, 55440, Note_on_c, 0, 78, 88
4, 55556, Note_off_c, 0, 78, 0
4, 55560, Note_on_c, 0, 81, 88
4, 55676, Note_off_c, 0, 81, 0
4, 55680, Note_on_c, 0, 78, 88
4, 55796, Note_off_c, 0, 78, 0
4, 55800, Note_on_c, 0, 74, 88
4, 55916, Note_off_c, 0, 74, 0
4, 55920, Note_on_c, 0, 69, 88
4, 56036, Note_off_c, 0, 69, 0
4, 56040, Note_on_c, 0, 72, 88
4, 56156, Note_off_c, 0, 72, 0
4, 56160, Note_on_c, 0, 71, 88
4, 56276, Note_off_c, 0, 71, 0
4, 56280, Note_on_c, 0, 67, 88
4, 56396, Note_off_c, 0, 67, 0
4, 56400, Note_on_c, 0, 71, 88
4, 56516, Note_off_c, 0, 71, 0
4, 56520, Note_on_c, 0, 74, 88
4, 56636, Note_off_c, 0, 74, 0
4, 56640, Note_on_c, 0, 79, 88
4, 56756, Note_off_c, 0, 79, 0
4, 56760, Note_on_c, 0, 77, 88
4, 56876, Note_off_c, 0, 77, 0
4, 56880, Note_on_c, 0, 76, 88
4, 56909, Note_off_c, 0, 76, 0
4, 56910, Note_on_c, 0, 74, 88
4, 56954, Note_off_c, 0, 74, 0
4, 56955, Note_on_c, 0, 76, 88
4, 57174, Note_off_c, 0, 76, 0
4, 57180, Note_on_c, 0, 74, 88
4, 57238, Note_off_c, 0, 74, 0
4, 57240, Note_on_c, 0, 72, 88
4, 57298, Note_off_c, 0, 72, 0
4, 57300, Note_on_c, 0, 71, 88
4, 57358, Note_off_c, 0, 71, 0
4, 57360, Note_on_c, 0, 69, 88
4, 57418, Note_off_c, 0, 69, 0
4, 57420, Note_on_c, 0, 67, 88
4, 57478, Note_off_c, 0, 67, 0
4, 57480, Note_on_c, 0, 66, 88
4, 57538, Note_off_c, 0, 66, 0
4, 57540, Note_on_c, 0, 64, 88
4, 57598, Note_off_c, 0, 64, 0
4, 57600, Note_on_c, 0, 66, 88
4, 57716, Note_off_c, 0, 66, 0
4, 57720, Note_on_c, 0, 74, 88
4, 57735, Note_on_c, 0, 72, 88
4, 57735, Note_off_c, 0, 74, 0
4, 57764, Note_off_c, 0, 72, 0
4, 57765, Note_on_c, 0, 74, 88
4, 57896, Note_off_c, 0, 74, 0
4, 57900, Note_on_c, 0, 72, 88
4, 57958, Note_off_c, 0, 72, 0
4, 57960, Note_on_c, 0, 71, 88
4, 58018, Note_off_c, 0, 71, 0
4, 58020, Note_on_c, 0, 69, 88
4, 58078, Note_off_c, 0, 69, 0
4, 58080, Note_on_c, 0, 67, 88
4, 58138, Note_off_c, 0, 67, 0
4, 58140, Note_on_c, 0, 66, 88
4, 58198, Note_off_c, 0, 66, 0
4, 58200, Note_on_c, 0, 64, 88
4, 58258, Note_off_c, 0, 64, 0
4, 58260, Note_on_c, 0, 62, 88
4, 58318, Note_off_c, 0, 62, 0
4, 58320, Note_on_c, 0, 64, 88
4, 58436, Note_off_c, 0, 64, 0
4, 58440, Note_on_c, 0, 72, 88
4, 58455, Note_on_c, 0, 71, 88
4, 58455, Note_off_c, 0, 72, 0
4, 58484, Note_off_c, 0, 71, 0
4, 58485, Note_on_c, 0, 72, 88
4, 58616, Note_off_c, 0, 72, 0
4, 58620, Note_on_c, 0, 71, 88
4, 58678, Note_off_c, 0, 71, 0
4, 58680, Note_on_c, 0, 69, 88
4, 58738, Note_off_c, 0, 69, 0
4, 58740, Note_on_c, 0, 67, 88
4, 58798, Note_off_c, 0, 67, 0
4, 58800, Note_on_c, 0, 66, 88
4, 58858, Note_off_c, 0, 66, 0
4, 58860, Note_on_c, 0, 64, 88
4, 58918, Note_off_c, 0, 64, 0
4, 58920, Note_on_c, 0, 62, 88
4, 58978, Note_off_c, 0, 62, 0
4, 58980, Note_on_c, 0, 60, 88
4, 59038, Note_off_c, 0, 60, 0
4, 59040, Note_on_c, 0, 62, 88
4, 59098, Note_off_c, 0, 62, 0
4, 59100, Note_on_c, 0, 66, 88
4, 59158, Note_off_c, 0, 66, 0
4, 59160, Note_on_c, 0, 64, 88
4, 59218, Note_off_c, 0, 64, 0
4, 59220, Note_on_c, 0, 62, 88
4, 59278, Note_off_c, 0, 62, 0
4, 59280, Note_on_c, 0, 64, 88
4, 59338, Note_off_c, 0, 64, 0
4, 59340, Note_on_c, 0, 66, 88
4, 59398, Note_off_c, 0, 66, 0
4, 59400, Note_on_c, 0, 67, 88
4, 59458, Note_off_c, 0, 67, 0
4, 59460, Note_on_c, 0, 69, 88
4, 59518, Note_off_c, 0, 69, 0
4, 59520, Note_on_c, 0, 71, 88
4, 59578, Note_off_c, 0, 71, 0
4, 59580, Note_on_c, 0, 69, 88
4, 59638, Note_off_c, 0, 69, 0
4, 59640, Note_on_c, 0, 71, 88
4, 59698, Note_off_c, 0, 71, 0
4, 59700, Note_on_c, 0, 67, 88
4, 59758, Note_off_c, 0, 67, 0
4, 59760, Note_on_c, 0, 69, 88
4, 59818, Note_off_c, 0, 69, 0
4, 59820, Note_on_c, 0, 74, 88
4, 59878, Note_off_c, 0, 74, 0
4, 59880, Note_on_c, 0, 72, 88
4, 59938, Note_off_c, 0, 72, 0
4, 59940, Note_on_c, 0, 71, 88
4, 59998, Note_off_c, 0, 71, 0
4, 60000, Note_on_c, 0, 69, 88
4, 60058, Note_off_c, 0, 69, 0
4, 60060, Note_on_c, 0, 67, 88
4, 60118, Note_off_c, 0, 67, 0
4, 60120, Note_on_c, 0, 66, 88
4, 60178, Note_off_c, 0, 66, 0
4, 60180, Note_on_c, 0, 64, 88
4, 60238, Note_off_c, 0, 64, 0
4, 60240, Note_on_c, 0, 62, 88
4, 60538, Note_off_c, 0, 62, 0
4, 60540, Note_on_c, 0, 67, 88
4, 60598, Note_off_c, 0, 67, 0
4, 60600, Note_on_c, 0, 60, 88
4, 60658, Note_off_c, 0, 60, 0
4, 60660, Note_on_c, 0, 67, 88
4, 60718, Note_off_c, 0, 67, 0
4, 60720, Note_on_c, 0, 62, 88
4, 60778, Note_off_c, 0, 62, 0
4, 60780, Note_on_c, 0, 67, 88
4, 60838, Note_off_c, 0, 67, 0
4, 60840, Note_on_c, 0, 59, 88
4, 60898, Note_off_c, 0, 59, 0
4, 60900, Note_on_c, 0, 67, 88
4, 60958, Note_off_c, 0, 67, 0
4, 60960, Note_on_c, 0, 60, 88
4, 61018, Note_off_c, 0, 60, 0
4, 61020, Note_on_c, 0, 67, 88
4, 61078, Note_off_c, 0, 67, 0
4, 61080, Note_on_c, 0, 62, 88
4, 61138, Note_off_c, 0, 62, 0
4, 61140, Note_on_c, 0, 67, 88
4, 61198, Note_off_c, 0, 67, 0
4, 61200, Note_on_c, 0, 64, 88
4, 61258, Note_off_c, 0, 64, 0
4, 61260, Note_on_c, 0, 67, 88
4, 61318, Note_off_c, 0, 67, 0
4, 61320, Note_on_c, 0, 62, 88
4, 61378, Note_off_c, 0, 62, 0
4, 61380, Note_on_c, 0, 67, 88
4, 61438, Note_off_c, 0, 67, 0
4, 61440, Note_on_c, 0, 64, 88
4, 61498, Note_off_c, 0, 64, 0
4, 61500, Note_on_c, 0, 69, 88
4, 61558, Note_off_c, 0, 69, 0
4, 61560, Note_on_c, 0, 61, 88
4, 61618, Note_off_c, 0, 61, 0
4, 61620, Note_on_c, 0, 69, 88
4, 61678, Note_off_c, 0, 69, 0
4, 61680, Note_on_c, 0, 62, 88
4, 61738, Note_off_c, 0, 62, 0
4, 61740, Note_on_c, 0, 69, 88
4, 61798, Note_off_c, 0, 69, 0
4, 61800, Note_on_c, 0, 64, 88
4, 61858, Note_off_c, 0, 64, 0
4, 61860, Note_on_c, 0, 69, 88
4, 61918, Note_off_c, 0, 69, 0
4, 61920, Note_on_c, 0, 66, 88
4, 61978, Note_off_c, 0, 66, 0
4, 61980, Note_on_c, 0, 69, 88
4, 62038, Note_off_c, 0, 69, 0
4, 62040, Note_on_c, 0, 64, 88
4, 62098, Note_off_c, 0, 64, 0
4, 62100, Note_on_c, 0, 69, 88
4, 62158, Note_off_c, 0, 69, 0
4, 62160, Note_on_c, 0, 66, 88
4, 62218, Note_off_c, 0, 66, 0
4, 62220, Note_on_c, 0, 71, 88
4, 62278, Note_off_c, 0, 71, 0
4, 62280, Note_on_c, 0, 63, 88
4, 62338, Note_off_c, 0, 63, 0
4, 62340, Note_on_c, 0, 71, 88
4, 62398, Note_off_c, 0, 71, 0
4, 62400, Note_on_c, 0, 64, 88
4, 62458, Note_off_c, 0, 64, 0
4, 62460, Note_on_c, 0, 71, 88
4, 62518, Note_off_c, 0, 71, 0
4, 62520, Note_on_c, 0, 66, 88
4, 62578, Note_off_c, 0, 66, 0
4, 62580, Note_on_c, 0, 71, 88
4, 62638, Note_off_c, 0, 71, 0
4, 62640, Note_on_c, 0, 67, 88
4, 62698, Note_off_c, 0, 67, 0
4, 62700, Note_on_c, 0, 71, 88
4, 62758, Note_off_c, 0, 71, 0
4, 62760, Note_on_c, 0, 66, 88
4, 62818, Note_off_c, 0, 66, 0
4, 62820, Note_on_c, 0, 71, 88
4, 62878, Note_off_c, 0, 71, 0
4, 62880, Note_on_c, 0, 64, 88
4, 62996, Note_off_c, 0, 64, 0
4, 63000, Note_on_c, 0, 67, 88
4, 63116, Note_off_c, 0, 67, 0
4, 63120, Note_on_c, 0, 72, 88
4, 63142, Note_off_c, 0, 72, 0
4, 63143, Note_on_c, 0, 71, 88
4, 63179, Note_off_c, 0, 71, 0
4, 63180, Note_on_c, 0, 72, 88
4, 63355, Note_off_c, 0, 72, 0
4, 63360, Note_on_c, 0, 72, 88
4, 63418, Note_off_c, 0, 72, 0
4, 63420, Note_on_c, 0, 81, 88
4, 63478, Note_off_c, 0, 81, 0
4, 63480, Note_on_c, 0, 79, 88
4, 63538, Note_off_c, 0, 79, 0
4, 63540, Note_on_c, 0, 81, 88
4, 63598, Note_off_c, 0, 81, 0
4, 63600, Note_on_c, 0, 78, 88
4, 63658, Note_off_c, 0, 78, 0
4, 63660, Note_on_c, 0, 81, 88
4, 63718, Note_off_c, 0, 81, 0
4, 63720, Note_on_c, 0, 76, 88
4, 63778, Note_off_c, 0, 76, 0
4, 63780, Note_on_c, 0, 81, 88
4, 63838, Note_off_c, 0, 81, 0
4, 63840, Note_on_c, 0, 74, 88
4, 63898, Note_off_c, 0, 74, 0
4, 63900, Note_on_c, 0, 81, 88
4, 63958, Note_off_c, 0, 81, 0
4, 63960, Note_on_c, 0, 72, 88
4, 64018, Note_off_c, 0, 72, 0
4, 64020, Note_on_c, 0, 81, 88
4, 64078, Note_off_c, 0, 81, 0
4, 64080, Note_on_c, 0, 71, 88
4, 64196, Note_off_c, 0, 71, 0
4, 64200, Note_on_c, 0, 74, 88
4, 64316, Note_off_c, 0, 74, 0
4, 64320, Note_on_c, 0, 79, 88
4, 64436, Note_off_c, 0, 79, 0
4, 64440, Note_on_c, 0, 77, 88
4, 64556, Note_off_c, 0, 77, 0
4, 64560, Note_on_c, 0, 76, 88
4, 64676, Note_off_c, 0, 76, 0
4, 64680, Note_on_c, 0, 74, 88
4, 64796, Note_off_c, 0, 74, 0
4, 64800, Note_on_c, 0, 76, 88
4, 64858, Note_off_c, 0, 76, 0
4, 64860, Note_on_c, 0, 72, 88
4, 64918, Note_off_c, 0, 72, 0
4, 64920, Note_on_c, 0, 71, 88
4, 64978, Note_off_c, 0, 71, 0
4, 64980, Note_on_c, 0, 72, 88
4, 65038, Note_off_c, 0, 72, 0
4, 65040, Note_on_c, 0, 84, 88
4, 65098, Note_off_c, 0, 84, 0
4, 65100, Note_on_c, 0, 72, 88
4, 65158, Note_off_c, 0, 72, 0
4, 65160, Note_on_c, 0, 83, 88
4, 65218, Note_off_c, 0, 83, 0
4, 65220, Note_on_c, 0, 72, 88
4, 65278, Note_off_c, 0, 72, 0
4, 65280, Note_on_c, 0, 81, 88
4, 65338, Note_off_c, 0, 81, 0
4, 65340, Note_on_c, 0, 72, 88
4, 65398, Note_off_c, 0, 72, 0
4, 65400, Note_on_c, 0, 79, 88
4, 65458, Note_off_c, 0, 79, 0
4, 65460, Note_on_c, 0, 72, 88
4, 65518, Note_off_c, 0, 72, 0
4, 65520, Note_on_c, 0, 78, 88
4, 65578, Note_off_c, 0, 78, 0
4, 65580, Note_on_c, 0, 72, 88
4, 65638, Note_off_c, 0, 72, 0
4, 65640, Note_on_c, 0, 79, 88
4, 65698, Note_off_c, 0, 79, 0
4, 65700, Note_on_c, 0, 72, 88
4, 65758, Note_off_c, 0, 72, 0
4, 65760, Note_on_c, 0, 81, 88
4, 65818, Note_off_c, 0, 81, 0
4, 65820, Note_on_c, 0, 72, 88
4, 65878, Note_off_c, 0, 72, 0
4, 65880, Note_on_c, 0, 79, 88
4, 65938, Note_off_c, 0, 79, 0
4, 65940, Note_on_c, 0, 72, 88
4, 65998, Note_off_c, 0, 72, 0
4, 66000, Note_on_c, 0, 78, 88
4, 66058, Note_off_c, 0, 78, 0
4, 66060, Note_on_c, 0, 72, 88
4, 66118, Note_off_c, 0, 72, 0
4, 66120, Note_on_c, 0, 76, 88
4, 66178, Note_off_c, 0, 76, 0
4, 66180, Note_on_c, 0, 72, 88
4, 66238, Note_off_c, 0, 72, 0
4, 66240, Note_on_c, 0, 74, 88
4, 66298, Note_off_c, 0, 74, 0
4, 66300, Note_on_c, 0, 72, 88
4, 66358, Note_off_c, 0, 72, 0
4, 66360, Note_on_c, 0, 71, 88
4, 66418, Note_off_c, 0, 71, 0
4, 66420, Note_on_c, 0, 69, 88
4, 66478, Note_off_c, 0, 69, 0
4, 66480, Note_on_c, 0, 71, 88
4, 66596, Note_off_c, 0, 71, 0
4, 66600, Note_on_c, 0, 79, 88
4, 66716, Note_off_c, 0, 79, 0
4, 66720, Note_on_c, 0, 69, 88
4, 66836, Note_off_c, 0, 69, 0
4, 66840, Note_on_c, 0, 79, 88
4, 66862, Note_off_c, 0, 79, 0
4, 66863, Note_on_c, 0, 78, 88
4, 66892, Note_off_c, 0, 78, 0
4, 66893, Note_on_c, 0, 76, 88
4, 66922, Note_off_c, 0, 76, 0
4, 66923, Note_on_c, 0, 78, 88
4, 66959, Note_off_c, 0, 78, 0
4, 66960, Note_on_c, 0, 67, 88
4, 67018, Note_off_c, 0, 67, 0
4, 67020, Note_on_c, 0, 69, 88
4, 67078, Note_off_c, 0, 69, 0
4, 67080, Note_on_c, 0, 70, 88
4, 67138, Note_off_c, 0, 70, 0
4, 67140, Note_on_c, 0, 67, 88
4, 67198, Note_off_c, 0, 67, 0
4, 67200, Note_on_c, 0, 73, 88
4, 67258, Note_off_c, 0, 73, 0
4, 67260, Note_on_c, 0, 67, 88
4, 67318, Note_off_c, 0, 67, 0
4, 67320, Note_on_c, 0, 74, 88
4, 67378, Note_off_c, 0, 74, 0
4, 67380, Note_on_c, 0, 67, 88
4, 67438, Note_off_c, 0, 67, 0
4, 67440, Note_on_c, 0, 76, 88
4, 67498, Note_off_c, 0, 76, 0
4, 67500, Note_on_c, 0, 67, 88
4, 67558, Note_off_c, 0, 67, 0
4, 67560, Note_on_c, 0, 66, 88
4, 67618, Note_off_c, 0, 66, 0
4, 67620, Note_on_c, 0, 64, 88
4, 67678, Note_off_c, 0, 64, 0
4, 67680, Note_on_c, 0, 66, 88
4, 67738, Note_off_c, 0, 66, 0
4, 67740, Note_on_c, 0, 69, 88
4, 67798, Note_off_c, 0, 69, 0
4, 67800, Note_on_c, 0, 74, 88
4, 68034, Note_off_c, 0, 74, 0
4, 68040, Note_on_c, 0, 72, 88
4, 68098, Note_off_c, 0, 72, 0
4, 68100, Note_on_c, 0, 71, 88
4, 68158, Note_off_c, 0, 71, 0
4, 68160, Note_on_c, 0, 72, 88
4, 68218, Note_off_c, 0, 72, 0
4, 68220, Note_on_c, 0, 71, 88
4, 68278, Note_off_c, 0, 71, 0
4, 68280, Note_on_c, 0, 69, 88
4, 68338, Note_off_c, 0, 69, 0
4, 68340, Note_on_c, 0, 71, 88
4, 68398, Note_off_c, 0, 71, 0
4, 68400, Note_on_c, 0, 67, 88
4, 68516, Note_off_c, 0, 67, 0
4, 68520, Note_on_c, 0, 66, 88
4, 68578, Note_off_c, 0, 66, 0
4, 68580, Note_on_c, 0, 64, 88
4, 68638, Note_off_c, 0, 64, 0
4, 68640, Note_on_c, 0, 62, 88
4, 68698, Note_off_c, 0, 62, 0
4, 68700, Note_on_c, 0, 60, 88
4, 68758, Note_off_c, 0, 60, 0
4, 68760, Note_on_c, 0, 59, 88
4, 68818, Note_off_c, 0, 59, 0
4, 68820, Note_on_c, 0, 57, 88
4, 68878, Note_off_c, 0, 57, 0
4, 68880, Note_on_c, 0, 55, 88
4, 68902, Note_off_c, 0, 55, 0
4, 68903, Note_on_c, 0, 54, 88
4, 68939, Note_off_c, 0, 54, 0
4, 68940, Note_on_c, 0, 55, 88
4, 69115, Note_off_c, 0, 55, 0
4, 69115, End_track
5, 0, Start_track
5, 0, Title_t, "Track 2"
5, 0, Program_c, 1, 6
5, 0, Note_on_c, 1, 59, 88
5, 116, Note_off_c, 1, 59, 0
5, 120, Note_on_c, 1, 57, 88
5, 236, Note_off_c, 1, 57, 0
5, 240, Note_on_c, 1, 59, 88
5, 356, Note_off_c, 1, 59, 0
5, 360, Note_on_c, 1, 60, 88
5, 476, Note_off_c, 1, 60, 0
5, 480, Note_on_c, 1, 62, 88
5, 596, Note_off_c, 1, 62, 0
5, 600, Note_on_c, 1, 64, 88
5, 716, Note_off_c, 1, 64, 0
5, 720, Note_on_c, 1, 62, 88
5, 836, Note_off_c, 1, 62, 0
5, 840, Note_on_c, 1, 60, 88
5, 956, Note_off_c, 1, 60, 0
5, 960, Note_on_c, 1, 59, 88
5, 1076, Note_off_c, 1, 59, 0
5, 1080, Note_on_c, 1, 64, 88
5, 1196, Note_off_c, 1, 64, 0
5, 1200, Note_on_c, 1, 62, 88
5, 1316, Note_off_c, 1, 62, 0
5, 1320, Note_on_c, 1, 60, 88
5, 1436, Note_off_c, 1, 60, 0
5, 1440, Note_on_c, 1, 62, 88
5, 1556, Note_off_c, 1, 62, 0
5, 1560, Note_on_c, 1, 60, 88
5, 1676, Note_off_c, 1, 60, 0
5, 1680, Note_on_c, 1, 59, 88
5, 1796, Note_off_c, 1, 59, 0
5, 1800, Note_on_c, 1, 62, 88
5, 1916, Note_off_c, 1, 62, 0
5, 1920, Note_on_c, 1, 60, 88
5, 2036, Note_off_c, 1, 60, 0
5, 2040, Note_on_c, 1, 59, 88
5, 2156, Note_off_c, 1, 59, 0
5, 2160, Note_on_c, 1, 66, 88
5, 2276, Note_off_c, 1, 66, 0
5, 2280, Note_on_c, 1, 64, 88
5, 2396, Note_off_c, 1, 64, 0
5, 2400, Note_on_c, 1, 66, 88
5, 2516, Note_off_c, 1, 66, 0
5, 2520, Note_on_c, 1, 67, 88
5, 2636, Note_off_c, 1, 67, 0
5, 2640, Note_on_c, 1, 69, 88
5, 2756, Note_off_c, 1, 69, 0
5, 2760, Note_on_c, 1, 71, 88
5, 2876, Note_off_c, 1, 71, 0
5, 2880, Note_on_c, 1, 69, 88
5, 2996, Note_off_c, 1, 69, 0
5, 3000, Note_on_c, 1, 67, 88
5, 3116, Note_off_c, 1, 67, 0
5, 3120, Note_on_c, 1, 66, 88
5, 3236, Note_off_c, 1, 66, 0
5, 3240, Note_on_c, 1, 71, 88
5, 3356, Note_off_c, 1, 71, 0
5, 3360, Note_on_c, 1, 69, 88
5, 3476, Note_off_c, 1, 69, 0
5, 3480, Note_on_c, 1, 67, 88
5, 3596, Note_off_c, 1, 67, 0
5, 3600, Note_on_c, 1, 69, 88
5, 3716, Note_off_c, 1, 69, 0
5, 3720, Note_on_c, 1, 67, 88
5, 3836, Note_off_c, 1, 67, 0
5, 3840, Note_on_c, 1, 66, 88
5, 3956, Note_off_c, 1, 66, 0
5, 3960, Note_on_c, 1, 69, 88
5, 4076, Note_off_c, 1, 69, 0
5, 4080, Note_on_c, 1, 67, 88
5, 4196, Note_off_c, 1, 67, 0
5, 4200, Note_on_c, 1, 66, 88
5, 4316, Note_off_c, 1, 66, 0
5, 4320, Note_on_c, 1, 64, 88
5, 4554, Note_off_c, 1, 64, 0
5, 4560, Note_on_c, 1, 69, 88
5, 5030, Note_off_c, 1, 69, 0
5, 11520, Note_on_c, 1, 59, 88
5, 11636, Note_off_c, 1, 59, 0
5, 11640, Note_on_c, 1, 57, 88
5, 11756, Note_off_c, 1, 57, 0
5, 11760, Note_on_c, 1, 59, 88
5, 11876, Note_off_c, 1, 59, 0
5, 11880, Note_on_c, 1, 60, 88
5, 11996, Note_off_c, 1, 60, 0
5, 12000, Note_on_c, 1, 62, 88
5, 12116, Note_off_c, 1, 62, 0
5, 12120, Note_on_c, 1, 64, 88
5, 12236, Note_off_c, 1, 64, 0
5, 12240, Note_on_c, 1, 62, 88
5, 12356, Note_off_c, 1, 62, 0
5, 12360, Note_on_c, 1, 60, 88
5, 12476, Note_off_c, 1, 60, 0
5, 12480, Note_on_c, 1, 59, 88
5, 12596, Note_off_c, 1, 59, 0
5, 12600, Note_on_c, 1, 64, 88
5, 12716, Note_off_c, 1, 64, 0
5, 12720, Note_on_c, 1, 62, 88
5, 12836, Note_off_c, 1, 62, 0
5, 12840, Note_on_c, 1, 60, 88
5, 12956, Note_off_c, 1, 60, 0
5, 12960, Note_on_c, 1, 62, 88
5, 13076, Note_off_c, 1, 62, 0
5, 13080, Note_on_c, 1, 60, 88
5, 13196, Note_off_c, 1, 60, 0
5, 13200, Note_on_c, 1, 59, 88
5, 13316, Note_off_c, 1, 59, 0
5, 13320, Note_on_c, 1, 62, 88
5, 13436, Note_off_c, 1, 62, 0
5, 13440, Note_on_c, 1, 60, 88
5, 13556, Note_off_c, 1, 60, 0
5, 13560, Note_on_c, 1, 59, 88
5, 13676, Note_off_c, 1, 59, 0
5, 13680, Note_on_c, 1, 66, 88
5, 13796, Note_off_c, 1, 66, 0
5, 13800, Note_on_c, 1, 64, 88
5, 13916, Note_off_c, 1, 64, 0
5, 13920, Note_on_c, 1, 66, 88
5, 14036, Note_off_c, 1, 66, 0
5, 14040, Note_on_c, 1, 67, 88
5, 14156, Note_off_c, 1, 67, 0
5, 14160, Note_on_c, 1, 69, 88
5, 14276, Note_off_c, 1, 69, 0
5, 14280, Note_on_c, 1, 71, 88
5, 14396, Note_off_c, 1, 71, 0
5, 14400, Note_on_c, 1, 69, 88
5, 14516, Note_off_c, 1, 69, 0
5, 14520, Note_on_c, 1, 67, 88
5, 14636, Note_off_c, 1, 67, 0
5, 14640, Note_on_c, 1, 66, 88
5, 14756, Note_off_c, 1, 66, 0
5, 14760, Note_on_c, 1, 71, 88
5, 14876, Note_off_c, 1, 71, 0
5, 14880, Note_on_c, 1, 69, 88
5, 14996, Note_off_c, 1, 69, 0
5, 15000, Note_on_c, 1, 67, 88
5, 15116, Note_off_c, 1, 67, 0
5, 15120, Note_on_c, 1, 69, 88
5, 15236, Note_off_c, 1, 69, 0
5, 15240, Note_on_c, 1, 67, 88
5, 15356, Note_off_c, 1, 67, 0
5, 15360, Note_on_c, 1, 66, 88
5, 15476, Note_off_c, 1, 66, 0
5, 15480, Note_on_c, 1, 69, 88
5, 15596, Note_off_c, 1, 69, 0
5, 15600, Note_on_c, 1, 67, 88
5, 15716, Note_off_c, 1, 67, 0
5, 15720, Note_on_c, 1, 66, 88
5, 15836, Note_off_c, 1, 66, 0
5, 15840, Note_on_c, 1, 64, 88
5, 16074, Note_off_c, 1, 64, 0
5, 16080, Note_on_c, 1, 69, 88
5, 16550, Note_off_c, 1, 69, 0
5, 23040, Note_on_c, 1, 57, 88
5, 23156, Note_off_c, 1, 57, 0
5, 23160, Note_on_c, 1, 55, 88
5, 23276, Note_off_c, 1, 55, 0
5, 23280, Note_on_c, 1, 57, 88
5, 23396, Note_off_c, 1, 57, 0
5, 23400, Note_on_c, 1, 59, 88
5, 23516, Note_off_c, 1, 59, 0
5, 23520, Note_on_c, 1, 60, 88
5, 23636, Note_off_c, 1, 60, 0
5, 23640, Note_on_c, 1, 59, 88
5, 23756, Note_off_c, 1, 59, 0
5, 23760, Note_on_c, 1, 57, 88
5, 23876, Note_off_c, 1, 57, 0
5, 23880, Note_on_c, 1, 55, 88
5, 23996, Note_off_c, 1, 55, 0
5, 24000, Note_on_c, 1, 57, 88
5, 24116, Note_off_c, 1, 57, 0
5, 24120, Note_on_c, 1, 59, 88
5, 24236, Note_off_c, 1, 59, 0
5, 24240, Note_on_c, 1, 60, 88
5, 24356, Note_off_c, 1, 60, 0
5, 24360, Note_on_c, 1, 57, 88
5, 24476, Note_off_c, 1, 57, 0
5, 24480, Note_on_c, 1, 59, 88
5, 24596, Note_off_c, 1, 59, 0
5, 24600, Note_on_c, 1, 57, 88
5, 24716, Note_off_c, 1, 57, 0
5, 24720, Note_on_c, 1, 59, 88
5, 24836, Note_off_c, 1, 59, 0
5, 24840, Note_on_c, 1, 55, 88
5, 24956, Note_off_c, 1, 55, 0
5, 24960, Note_on_c, 1, 57, 88
5, 25076, Note_off_c, 1, 57, 0
5, 25080, Note_on_c, 1, 54, 88
5, 25196, Note_off_c, 1, 54, 0
5, 46080, Note_on_c, 1, 57, 88
5, 46196, Note_off_c, 1, 57, 0
5, 46200, Note_on_c, 1, 55, 88
5, 46316, Note_off_c, 1, 55, 0
5, 46320, Note_on_c, 1, 57, 88
5, 46436, Note_off_c, 1, 57, 0
5, 46440, Note_on_c, 1, 59, 88
5, 46556, Note_off_c, 1, 59, 0
5, 46560, Note_on_c, 1, 60, 88
5, 46676, Note_off_c, 1, 60, 0
5, 46680, Note_on_c, 1, 59, 88
5, 46796, Note_off_c, 1, 59, 0
5, 46800, Note_on_c, 1, 57, 88
5, 46916, Note_off_c, 1, 57, 0
5, 46920, Note_on_c, 1, 55, 88
5, 47036, Note_off_c, 1, 55, 0
5, 47040, Note_on_c, 1, 57, 88
5, 47156, Note_off_c, 1, 57, 0
5, 47160, Note_on_c, 1, 59, 88
5, 47276, Note_off_c, 1, 59, 0
5, 47280, Note_on_c, 1, 60, 88
5, 47396, Note_off_c, 1, 60, 0
5, 47400, Note_on_c, 1, 57, 88
5, 47516, Note_off_c, 1, 57, 0
5, 47520, Note_on_c, 1, 59, 88
5, 47636, Note_off_c, 1, 59, 0
5, 47640, Note_on_c, 1, 57, 88
5, 47756, Note_off_c, 1, 57, 0
5, 47760, Note_on_c, 1, 59, 88
5, 47876, Note_off_c, 1, 59, 0
5, 47880, Note_on_c, 1, 55, 88
5, 47996, Note_off_c, 1, 55, 0
5, 48000, Note_on_c, 1, 57, 88
5, 48116, Note_off_c, 1, 57, 0
5, 48120, Note_on_c, 1, 54, 88
5, 48236, Note_off_c, 1, 54, 0
5, 48236, End_track
6, 0, Start_track
6, 0, Title_t, "Track 3"
6, 0, Program_c, 2, 6
6, 0, Note_on_c, 2, 55, 88
6, 2148, Note_off_c, 2, 55, 0
6, 2160, Note_on_c, 2, 50, 88
6, 2218, Note_off_c, 2, 50, 0
6, 2220, Note_on_c, 2, 57, 88
6, 2278, Note_off_c, 2, 57, 0
6, 2280, Note_on_c, 2, 49, 88
6, 2338, Note_off_c, 2, 49, 0
6, 2340, Note_on_c, 2, 57, 88
6, 2398, Note_off_c, 2, 57, 0
6, 2400, Note_on_c, 2, 50, 88
6, 2458, Note_off_c, 2, 50, 0
6, 2460, Note_on_c, 2, 57, 88
6, 2518, Note_off_c, 2, 57, 0
6, 2520, Note_on_c, 2, 52, 88
6, 2578, Note_off_c, 2, 52, 0
6, 2580, Note_on_c, 2, 57, 88
6, 2638, Note_off_c, 2, 57, 0
6, 2640, Note_on_c, 2, 54, 88
6, 2698, Note_off_c, 2, 54, 0
6, 2700, Note_on_c, 2, 57, 88
6, 2758, Note_off_c, 2, 57, 0
6, 2760, Note_on_c, 2, 55, 88
6, 2818, Note_off_c, 2, 55, 0
6, 2820, Note_on_c, 2, 57, 88
6, 2878, Note_off_c, 2, 57, 0
6, 2880, Note_on_c, 2, 54, 88
6, 2938, Note_off_c, 2, 54, 0
6, 2940, Note_on_c, 2, 57, 88
6, 2998, Note_off_c, 2, 57, 0
6, 3000, Note_on_c, 2, 52, 88
6, 3058, Note_off_c, 2, 52, 0
6, 3060, Note_on_c, 2, 57, 88
6, 3118, Note_off_c, 2, 57, 0
6, 3120, Note_on_c, 2, 50, 88
6, 3178, Note_off_c, 2, 50, 0
6, 3180, Note_on_c, 2, 57, 88
6, 3238, Note_off_c, 2, 57, 0
6, 3240, Note_on_c, 2, 55, 88
6, 3298, Note_off_c, 2, 55, 0
6, 3300, Note_on_c, 2, 57, 88
6, 3358, Note_off_c, 2, 57, 0
6, 3360, Note_on_c, 2, 54, 88
6, 3418, Note_off_c, 2, 54, 0
6, 3420, Note_on_c, 2, 57, 88
6, 3478, Note_off_c, 2, 57, 0
6, 3480, Note_on_c, 2, 52, 88
6, 3538, Note_off_c, 2, 52, 0
6, 3540, Note_on_c, 2, 57, 88
6, 3598, Note_off_c, 2, 57, 0
6, 3600, Note_on_c, 2, 54, 88
6, 3658, Note_off_c, 2, 54, 0
6, 3660, Note_on_c, 2, 57, 88
6, 3718, Note_off_c, 2, 57, 0
6, 3720, Note_on_c, 2, 52, 88
6, 3778, Note_off_c, 2, 52, 0
6, 3780, Note_on_c, 2, 57, 88
6, 3838, Note_off_c, 2, 57, 0
6, 3840, Note_on_c, 2, 50, 88
6, 3898, Note_off_c, 2, 50, 0
6, 3900, Note_on_c, 2, 57, 88
6, 3958, Note_off_c, 2, 57, 0
6, 3960, Note_on_c, 2, 54, 88
6, 4018, Note_off_c, 2, 54, 0
6, 4020, Note_on_c, 2, 57, 88
6, 4078, Note_off_c, 2, 57, 0
6, 4080, Note_on_c, 2, 52, 88
6, 4138, Note_off_c, 2, 52, 0
6, 4140, Note_on_c, 2, 57, 88
6, 4198, Note_off_c, 2, 57, 0
6, 4200, Note_on_c, 2, 50, 88
6, 4258, Note_off_c, 2, 50, 0
6, 4260, Note_on_c, 2, 57, 88
6, 4318, Note_off_c, 2, 57, 0
6, 4320, Note_on_c, 2, 45, 88
6, 4378, Note_off_c, 2, 45, 0
6, 4380, Note_on_c, 2, 57, 88
6, 4438, Note_off_c, 2, 57, 0
6, 4440, Note_on_c, 2, 56, 88
6, 4498, Note_off_c, 2, 56, 0
6, 4500, Note_on_c, 2, 57, 88
6, 4558, Note_off_c, 2, 57, 0
6, 4560, Note_on_c, 2, 45, 88
6, 4618, Note_off_c, 2, 45, 0
6, 4620, Note_on_c, 2, 57, 88
6, 4678, Note_off_c, 2, 57, 0
6, 4680, Note_on_c, 2, 47, 88
6, 4738, Note_off_c, 2, 47, 0
6, 4740, Note_on_c, 2, 57, 88
6, 4798, Note_off_c, 2, 57, 0
6, 4800, Note_on_c, 2, 48, 88
6, 4858, Note_off_c, 2, 48, 0
6, 4860, Note_on_c, 2, 57, 88
6, 4918, Note_off_c, 2, 57, 0
6, 4920, Note_on_c, 2, 50, 88
6, 4978, Note_off_c, 2, 50, 0
6, 4980, Note_on_c, 2, 57, 88
6, 5038, Note_off_c, 2, 57, 0
6, 5040, Note_on_c, 2, 52, 88
6, 5098, Note_off_c, 2, 52, 0
6, 5100, Note_on_c, 2, 64, 88
6, 5158, Note_off_c, 2, 64, 0
6, 5160, Note_on_c, 2, 62, 88
6, 5218, Note_off_c, 2, 62, 0
6, 5220, Note_on_c, 2, 64, 88
6, 5278, Note_off_c, 2, 64, 0
6, 5280, Note_on_c, 2, 52, 88
6, 5338, Note_off_c, 2, 52, 0
6, 5340, Note_on_c, 2, 64, 88
6, 5398, Note_off_c, 2, 64, 0
6, 5400, Note_on_c, 2, 54, 88
6, 5458, Note_off_c, 2, 54, 0
6, 5460, Note_on_c, 2, 64, 88
6, 5518, Note_off_c, 2, 64, 0
6, 5520, Note_on_c, 2, 55, 88
6, 5578, Note_off_c, 2, 55, 0
6, 5580, Note_on_c, 2, 64, 88
6, 5638, Note_off_c, 2, 64, 0
6, 5640, Note_on_c, 2, 57, 88
6, 5698, Note_off_c, 2, 57, 0
6, 5700, Note_on_c, 2, 64, 88
6, 5758, Note_off_c, 2, 64, 0
6, 5760, Note_on_c, 2, 62, 88
6, 5818, Note_off_c, 2, 62, 0
6, 5820, Note_on_c, 2, 59, 88
6, 5878, Note_off_c, 2, 59, 0
6, 5880, Note_on_c, 2, 57, 88
6, 5938, Note_off_c, 2, 57, 0
6, 5940, Note_on_c, 2, 59, 88
6, 5998, Note_off_c, 2, 59, 0
6, 6000, Note_on_c, 2, 55, 88
6, 6116, Note_off_c, 2, 55, 0
6, 6120, Note_on_c, 2, 66, 88
6, 6236, Note_off_c, 2, 66, 0
6, 6240, Note_on_c, 2, 64, 88
6, 6356, Note_off_c, 2, 64, 0
6, 6360, Note_on_c, 2, 62, 88
6, 6476, Note_off_c, 2, 62, 0
6, 6480, Note_on_c, 2, 61, 88
6, 6538, Note_off_c, 2, 61, 0
6, 6540, Note_on_c, 2, 57, 88
6, 6598, Note_off_c, 2, 57, 0
6, 6600, Note_on_c, 2, 55, 88
6, 6658, Note_off_c, 2, 55, 0
6, 6660, Note_on_c, 2, 57, 88
6, 6718, Note_off_c, 2, 57, 0
6, 6720, Note_on_c, 2, 54, 88
6, 6836, Note_off_c, 2, 54, 0
6, 6840, Note_on_c, 2, 64, 88
6, 6956, Note_off_c, 2, 64, 0
6, 6960, Note_on_c, 2, 62, 88
6, 7076, Note_off_c, 2, 62, 0
6, 7080, Note_on_c, 2, 61, 88
6, 7196, Note_off_c, 2, 61, 0
6, 7200, Note_on_c, 2, 59, 88
6, 7258, Note_off_c, 2, 59, 0
6, 7260, Note_on_c, 2, 55, 88
6, 7318, Note_off_c, 2, 55, 0
6, 7320, Note_on_c, 2, 54, 88
6, 7378, Note_off_c, 2, 54, 0
6, 7380, Note_on_c, 2, 55, 88
6, 7438, Note_off_c, 2, 55, 0
6, 7440, Note_on_c, 2, 52, 88
6, 7556, Note_off_c, 2, 52, 0
6, 7560, Note_on_c, 2, 62, 88
6, 7676, Note_off_c, 2, 62, 0
6, 7680, Note_on_c, 2, 61, 88
6, 7796, Note_off_c, 2, 61, 0
6, 7800, Note_on_c, 2, 59, 88
6, 7916, Note_off_c, 2, 59, 0
6, 7920, Note_on_c, 2, 57, 88
6, 8036, Note_off_c, 2, 57, 0
6, 8040, Note_on_c, 2, 59, 88
6, 8156, Note_off_c, 2, 59, 0
6, 8160, Note_on_c, 2, 61, 88
6, 8276, Note_off_c, 2, 61, 0
6, 8280, Note_on_c, 2, 64, 88
6, 8396, Note_off_c, 2, 64, 0
6, 8400, Note_on_c, 2, 57, 88
6, 8516, Note_off_c, 2, 57, 0
6, 8520, Note_on_c, 2, 61, 88
6, 8636, Note_off_c, 2, 61, 0
6, 8640, Note_on_c, 2, 54, 88
6, 8756, Note_off_c, 2, 54, 0
6, 8760, Note_on_c, 2, 57, 88
6, 8876, Note_off_c, 2, 57, 0
6, 8880, Note_on_c, 2, 50, 88
6, 8938, Note_off_c, 2, 50, 0
6, 8940, Note_on_c, 2, 52, 88
6, 8998, Note_off_c, 2, 52, 0
6, 9000, Note_on_c, 2, 54, 88
6, 9058, Note_off_c, 2, 54, 0
6, 9060, Note_on_c, 2, 55, 88
6, 9118, Note_off_c, 2, 55, 0
6, 9120, Note_on_c, 2, 57, 88
6, 9236, Note_off_c, 2, 57, 0
6, 9240, Note_on_c, 2, 45, 88
6, 9356, Note_off_c, 2, 45, 0
6, 9360, Note_on_c, 2, 47, 88
6, 9476, Note_off_c, 2, 47, 0
6, 9480, Note_on_c, 2, 50, 88
6, 9596, Note_off_c, 2, 50, 0
6, 9600, Note_on_c, 2, 53, 88
6, 9716, Note_off_c, 2, 53, 0
6, 9720, Note_on_c, 2, 45, 88
6, 9836, Note_off_c, 2, 45, 0
6, 9840, Note_on_c, 2, 44, 88
6, 9956, Note_off_c, 2, 44, 0
6, 9960, Note_on_c, 2, 52, 88
6, 10076, Note_off_c, 2, 52, 0
6, 10080, Note_on_c, 2, 45, 88
6, 10138, Note_off_c, 2, 45, 0
6, 10140, Note_on_c, 2, 49, 88
6, 10198, Note_off_c, 2, 49, 0
6, 10200, Note_on_c, 2, 52, 88
6, 10258, Note_off_c, 2, 52, 0
6, 10260, Note_on_c, 2, 55, 88
6, 10318, Note_off_c, 2, 55, 0
6, 10320, Note_on_c, 2, 54, 88
6, 10436, Note_off_c, 2, 54, 0
6, 10440, Note_on_c, 2, 50, 88
6, 10556, Note_off_c, 2, 50, 0
6, 10560, Note_on_c, 2, 57, 88
6, 10567, Note_off_c, 2, 57, 0
6, 10568, Note_on_c, 2, 55, 88
6, 10589, Note_off_c, 2, 55, 0
6, 10590, Note_on_c, 2, 57, 88
6, 10677, Note_off_c, 2, 57, 0
6, 10680, Note_on_c, 2, 45, 88
6, 10796, Note_off_c, 2, 45, 0
6, 10800, Note_on_c, 2, 50, 88
6, 10916, Note_off_c, 2, 50, 0
6, 10920, Note_on_c, 2, 38, 88
6, 11036, Note_off_c, 2, 38, 0
6, 11040, Note_on_c, 2, 42, 88
6, 11156, Note_off_c, 2, 42, 0
6, 11160, Note_on_c, 2, 45, 88
6, 11276, Note_off_c, 2, 45, 0
6, 11280, Note_on_c, 2, 50, 88
6, 11302, Note_off_c, 2, 50, 0
6, 11303, Note_on_c, 2, 49, 88
6, 11339, Note_off_c, 2, 49, 0
6, 11340, Note_on_c, 2, 50, 88
6, 11515, Note_off_c, 2, 50, 0
6, 11520, Note_on_c, 2, 55, 88
6, 13668, Note_off_c, 2, 55, 0
6, 13680, Note_on_c, 2, 50, 88
6, 13738, Note_off_c, 2, 50, 0
6, 13740, Note_on_c, 2, 57, 88
6, 13798, Note_off_c, 2, 57, 0
6, 13800, Note_on_c, 2, 49, 88
6, 13858, Note_off_c, 2, 49, 0
6, 13860, Note_on_c, 2, 57, 88
6, 13918, Note_off_c, 2, 57, 0
6, 13920, Note_on_c, 2, 50, 88
6, 13978, Note_off_c, 2, 50, 0
6, 13980, Note_on_c, 2, 57, 88
6, 14038, Note_off_c, 2, 57, 0
6, 14040, Note_on_c, 2, 52, 88
6, 14098, Note_off_c, 2, 52, 0
6, 14100, Note_on_c, 2, 57, 88
6, 14158, Note_off_c, 2, 57, 0
6, 14160, Note_on_c, 2, 54, 88
6, 14218, Note_off_c, 2, 54, 0
6, 14220, Note_on_c, 2, 57, 88
6, 14278, Note_off_c, 2, 57, 0
6, 14280, Note_on_c, 2, 55, 88
6, 14338, Note_off_c, 2, 55, 0
6, 14340, Note_on_c, 2, 57, 88
6, 14398, Note_off_c, 2, 57, 0
6, 14400, Note_on_c, 2, 54, 88
6, 14458, Note_off_c, 2, 54, 0
6, 14460, Note_on_c, 2, 57, 88
6, 14518, Note_off_c, 2, 57, 0
6, 14520, Note_on_c, 2, 52, 88
6, 14578, Note_off_c, 2, 52, 0
6, 14580, Note_on_c, 2, 57, 88
6, 14638, Note_off_c, 2, 57, 0
6, 14640, Note_on_c, 2, 50, 88
6, 14698, Note_off_c, 2, 50, 0
6, 14700, Note_on_c, 2, 57, 88
6, 14758, Note_off_c, 2, 57, 0
6, 14760, Note_on_c, 2, 55, 88
6, 14818, Note_off_c, 2, 55, 0
6, 14820, Note_on_c, 2, 57, 88
6, 14878, Note_off_c, 2, 57, 0
6, 14880, Note_on_c, 2, 54, 88
6, 14938, Note_off_c, 2, 54, 0
6, 14940, Note_on_c, 2, 57, 88
6, 14998, Note_off_c, 2, 57, 0
6, 15000, Note_on_c, 2, 52, 88
6, 15058, Note_off_c, 2, 52, 0
6, 15060, Note_on_c, 2, 57, 88
6, 15118, Note_off_c, 2, 57, 0
6, 15120, Note_on_c, 2, 54, 88
6, 15178, Note_off_c, 2, 54, 0
6, 15180, Note_on_c, 2, 57, 88
6, 15238, Note_off_c, 2, 57, 0
6, 15240, Note_on_c, 2, 52, 88
6, 15298, Note_off_c, 2, 52, 0
6, 15300, Note_on_c, 2, 57, 88
6, 15358, Note_off_c, 2, 57, 0
6, 15360, Note_on_c, 2, 50, 88
6, 15418, Note_off_c, 2, 50, 0
6, 15420, Note_on_c, 2, 57, 88
6, 15478, Note_off_c, 2, 57, 0
6, 15480, Note_on_c, 2, 54, 88
6, 15538, Note_off_c, 2, 54, 0
6, 15540, Note_on_c, 2, 57, 88
6, 15598, Note_off_c, 2, 57, 0
6, 15600, Note_on_c, 2, 52, 88
6, 15658, Note_off_c, 2, 52, 0
6, 15660, Note_on_c, 2, 57, 88
6, 15718, Note_off_c, 2, 57, 0
6, 15720, Note_on_c, 2, 50, 88
6, 15778, Note_off_c, 2, 50, 0
6, 15780, Note_on_c, 2, 57, 88
6, 15838, Note_off_c, 2, 57, 0
6, 15840, Note_on_c, 2, 45, 88
6, 15898, Note_off_c, 2, 45, 0
6, 15900, Note_on_c, 2, 57, 88
6, 15958, Note_off_c, 2, 57, 0
6, 15960, Note_on_c, 2, 56, 88
6, 16018, Note_off_c, 2, 56, 0
6, 16020, Note_on_c, 2, 57, 88
6, 16078, Note_off_c, 2, 57, 0
6, 16080, Note_on_c, 2, 45, 88
6, 16138, Note_off_c, 2, 45, 0
6, 16140, Note_on_c, 2, 57, 88
6, 16198, Note_off_c, 2, 57, 0
6, 16200, Note_on_c, 2, 47, 88
6, 16258, Note_off_c, 2, 47, 0
6, 16260, Note_on_c, 2, 57, 88
6, 16318, Note_off_c, 2, 57, 0
6, 16320, Note_on_c, 2, 48, 88
6, 16378, Note_off_c, 2, 48, 0
6, 16380, Note_on_c, 2, 57, 88
6, 16438, Note_off_c, 2, 57, 0
6, 16440, Note_on_c, 2, 50, 88
6, 16498, Note_off_c, 2, 50, 0
6, 16500, Note_on_c, 2, 57, 88
6, 16558, Note_off_c, 2, 57, 0
6, 16560, Note_on_c, 2, 52, 88
6, 16618, Note_off_c, 2, 52, 0
6, 16620, Note_on_c, 2, 64, 88
6, 16678, Note_off_c, 2, 64, 0
6, 16680, Note_on_c, 2, 62, 88
6, 16738, Note_off_c, 2, 62, 0
6, 16740, Note_on_c, 2, 64, 88
6, 16798, Note_off_c, 2, 64, 0
6, 16800, Note_on_c, 2, 52, 88
6, 16858, Note_off_c, 2, 52, 0
6, 16860, Note_on_c, 2, 64, 88
6, 16918, Note_off_c, 2, 64, 0
6, 16920, Note_on_c, 2, 54, 88
6, 16978, Note_off_c, 2, 54, 0
6, 16980, Note_on_c, 2, 64, 88
6, 17038, Note_off_c, 2, 64, 0
6, 17040, Note_on_c, 2, 55, 88
6, 17098, Note_off_c, 2, 55, 0
6, 17100, Note_on_c, 2, 64, 88
6, 17158, Note_off_c, 2, 64, 0
6, 17160, Note_on_c, 2, 57, 88
6, 17218, Note_off_c, 2, 57, 0
6, 17220, Note_on_c, 2, 64, 88
6, 17278, Note_off_c, 2, 64, 0
6, 17280, Note_on_c, 2, 62, 88
6, 17338, Note_off_c, 2, 62, 0
6, 17340, Note_on_c, 2, 59, 88
6, 17398, Note_off_c, 2, 59, 0
6, 17400, Note_on_c, 2, 57, 88
6, 17458, Note_off_c, 2, 57, 0
6, 17460, Note_on_c, 2, 59, 88
6, 17518, Note_off_c, 2, 59, 0
6, 17520, Note_on_c, 2, 55, 88
6, 17636, Note_off_c, 2, 55, 0
6, 17640, Note_on_c, 2, 66, 88
6, 17756, Note_off_c, 2, 66, 0
6, 17760, Note_on_c, 2, 64, 88
6, 17876, Note_off_c, 2, 64, 0
6, 17880, Note_on_c, 2, 62, 88
6, 17996, Note_off_c, 2, 62, 0
6, 18000, Note_on_c, 2, 61, 88
6, 18058, Note_off_c, 2, 61, 0
6, 18060, Note_on_c, 2, 57, 88
6, 18118, Note_off_c, 2, 57, 0
6, 18120, Note_on_c, 2, 55, 88
6, 18178, Note_off_c, 2, 55, 0
6, 18180, Note_on_c, 2, 57, 88
6, 18238, Note_off_c, 2, 57, 0
6, 18240, Note_on_c, 2, 54, 88
6, 18356, Note_off_c, 2, 54, 0
6, 18360, Note_on_c, 2, 64, 88
6, 18476, Note_off_c, 2, 64, 0
6, 18480, Note_on_c, 2, 62, 88
6, 18596, Note_off_c, 2, 62, 0
6, 18600, Note_on_c, 2, 61, 88
6, 18716, Note_off_c, 2, 61, 0
6, 18720, Note_on_c, 2, 59, 88
6, 18778, Note_off_c, 2, 59, 0
6, 18780, Note_on_c, 2, 55, 88
6, 18838, Note_off_c, 2, 55, 0
6, 18840, Note_on_c, 2, 54, 88
6, 18898, Note_off_c, 2, 54, 0
6, 18900, Note_on_c, 2, 55, 88
6, 18958, Note_off_c, 2, 55, 0
6, 18960, Note_on_c, 2, 52, 88
6, 19076, Note_off_c, 2, 52, 0
6, 19080, Note_on_c, 2, 62, 88
6, 19196, Note_off_c, 2, 62, 0
6, 19200, Note_on_c, 2, 61, 88
6, 19316, Note_off_c, 2, 61, 0
6, 19320, Note_on_c, 2, 59, 88
6, 19436, Note_off_c, 2, 59, 0
6, 19440, Note_on_c, 2, 57, 88
6, 19556, Note_off_c, 2, 57, 0
6, 19560, Note_on_c, 2, 59, 88
6, 19676, Note_off_c, 2, 59, 0
6, 19680, Note_on_c, 2, 61, 88
6, 19796, Note_off_c, 2, 61, 0
6, 19800, Note_on_c, 2, 64, 88
6, 19916, Note_off_c, 2, 64, 0
6, 19920, Note_on_c, 2, 57, 88
6, 20036, Note_off_c, 2, 57, 0
6, 20040, Note_on_c, 2, 61, 88
6, 20156, Note_off_c, 2, 61, 0
6, 20160, Note_on_c, 2, 54, 88
6, 20276, Note_off_c, 2, 54, 0
6, 20280, Note_on_c, 2, 57, 88
6, 20396, Note_off_c, 2, 57, 0
6, 20400, Note_on_c, 2, 50, 88
6, 20458, Note_off_c, 2, 50, 0
6, 20460, Note_on_c, 2, 52, 88
6, 20518, Note_off_c, 2, 52, 0
6, 20520, Note_on_c, 2, 54, 88
6, 20578, Note_off_c, 2, 54, 0
6, 20580, Note_on_c, 2, 55, 88
6, 20638, Note_off_c, 2, 55, 0
6, 20640, Note_on_c, 2, 57, 88
6, 20756, Note_off_c, 2, 57, 0
6, 20760, Note_on_c, 2, 45, 88
6, 20876, Note_off_c, 2, 45, 0
6, 20880, Note_on_c, 2, 47, 88
6, 20996, Note_off_c, 2, 47, 0
6, 21000, Note_on_c, 2, 50, 88
6, 21116, Note_off_c, 2, 50, 0
6, 21120, Note_on_c, 2, 53, 88
6, 21236, Note_off_c, 2, 53, 0
6, 21240, Note_on_c, 2, 45, 88
6, 21356, Note_off_c, 2, 45, 0
6, 21360, Note_on_c, 2, 44, 88
6, 21476, Note_off_c, 2, 44, 0
6, 21480, Note_on_c, 2, 52, 88
6, 21596, Note_off_c, 2, 52, 0
6, 21600, Note_on_c, 2, 45, 88
6, 21658, Note_off_c, 2, 45, 0
6, 21660, Note_on_c, 2, 49, 88
6, 21718, Note_off_c, 2, 49, 0
6, 21720, Note_on_c, 2, 52, 88
6, 21778, Note_off_c, 2, 52, 0
6, 21780, Note_on_c, 2, 55, 88
6, 21838, Note_off_c, 2, 55, 0
6, 21840, Note_on_c, 2, 54, 88
6, 21956, Note_off_c, 2, 54, 0
6, 21960, Note_on_c, 2, 50, 88
6, 22076, Note_off_c, 2, 50, 0
6, 22080, Note_on_c, 2, 57, 88
6, 22087, Note_off_c, 2, 57, 0
6, 22088, Note_on_c, 2, 55, 88
6, 22109, Note_off_c, 2, 55, 0
6, 22110, Note_on_c, 2, 57, 88
6, 22197, Note_off_c, 2, 57, 0
6, 22200, Note_on_c, 2, 45, 88
6, 22316, Note_off_c, 2, 45, 0
6, 22320, Note_on_c, 2, 50, 88
6, 22436, Note_off_c, 2, 50, 0
6, 22440, Note_on_c, 2, 38, 88
6, 22556, Note_off_c, 2, 38, 0
6, 22560, Note_on_c, 2, 42, 88
6, 22676, Note_off_c, 2, 42, 0
6, 22680, Note_on_c, 2, 45, 88
6, 22796, Note_off_c, 2, 45, 0
6, 22800, Note_on_c, 2, 50, 88
6, 22822, Note_off_c, 2, 50, 0
6, 22823, Note_on_c, 2, 49, 88
6, 22859, Note_off_c, 2, 49, 0
6, 22860, Note_on_c, 2, 50, 88
6, 23035, Note_off_c, 2, 50, 0
6, 23040, Note_on_c, 2, 50, 88
6, 25188, Note_off_c, 2, 50, 0
6, 25200, Note_on_c, 2, 43, 88
6, 25258, Note_off_c, 2, 43, 0
6, 25260, Note_on_c, 2, 55, 88
6, 25318, Note_off_c, 2, 55, 0
6, 25320, Note_on_c, 2, 54, 88
6, 25378, Note_off_c, 2, 54, 0
6, 25380, Note_on_c, 2, 55, 88
6, 25438, Note_off_c, 2, 55, 0
6, 25440, Note_on_c, 2, 59, 88
6, 25498, Note_off_c, 2, 59, 0
6, 25500, Note_on_c, 2, 55, 88
6, 25558, Note_off_c, 2, 55, 0
6, 25560, Note_on_c, 2, 60, 88
6, 25618, Note_off_c, 2, 60, 0
6, 25620, Note_on_c, 2, 55, 88
6, 25678, Note_off_c, 2, 55, 0
6, 25680, Note_on_c, 2, 62, 88
6, 25738, Note_off_c, 2, 62, 0
6, 25740, Note_on_c, 2, 55, 88
6, 25798, Note_off_c, 2, 55, 0
6, 25800, Note_on_c, 2, 60, 88
6, 25858, Note_off_c, 2, 60, 0
6, 25860, Note_on_c, 2, 55, 88
6, 25918, Note_off_c, 2, 55, 0
6, 25920, Note_on_c, 2, 59, 88
6, 25978, Note_off_c, 2, 59, 0
6, 25980, Note_on_c, 2, 55, 88
6, 26038, Note_off_c, 2, 55, 0
6, 26040, Note_on_c, 2, 57, 88
6, 26098, Note_off_c, 2, 57, 0
6, 26100, Note_on_c, 2, 55, 88
6, 26158, Note_off_c, 2, 55, 0
6, 26160, Note_on_c, 2, 59, 88
6, 26218, Note_off_c, 2, 59, 0
6, 26220, Note_on_c, 2, 55, 88
6, 26278, Note_off_c, 2, 55, 0
6, 26280, Note_on_c, 2, 60, 88
6, 26338, Note_off_c, 2, 60, 0
6, 26340, Note_on_c, 2, 55, 88
6, 26398, Note_off_c, 2, 55, 0
6, 26400, Note_on_c, 2, 62, 88
6, 26458, Note_off_c, 2, 62, 0
6, 26460, Note_on_c, 2, 55, 88
6, 26518, Note_off_c, 2, 55, 0
6, 26520, Note_on_c, 2, 59, 88
6, 26578, Note_off_c, 2, 59, 0
6, 26580, Note_on_c, 2, 55, 88
6, 26638, Note_off_c, 2, 55, 0
6, 26640, Note_on_c, 2, 60, 88
6, 26698, Note_off_c, 2, 60, 0
6, 26700, Note_on_c, 2, 55, 88
6, 26758, Note_off_c, 2, 55, 0
6, 26760, Note_on_c, 2, 59, 88
6, 26818, Note_off_c, 2, 59, 0
6, 26820, Note_on_c, 2, 55, 88
6, 26878, Note_off_c, 2, 55, 0
6, 26880, Note_on_c, 2, 60, 88
6, 26938, Note_off_c, 2, 60, 0
6, 26940, Note_on_c, 2, 55, 88
6, 26998, Note_off_c, 2, 55, 0
6, 27000, Note_on_c, 2, 64, 88
6, 27058, Note_off_c, 2, 64, 0
6, 27060, Note_on_c, 2, 55, 88
6, 27118, Note_off_c, 2, 55, 0
6, 27120, Note_on_c, 2, 62, 88
6, 27178, Note_off_c, 2, 62, 0
6, 27180, Note_on_c, 2, 55, 88
6, 27238, Note_off_c, 2, 55, 0
6, 27240, Note_on_c, 2, 65, 88
6, 27298, Note_off_c, 2, 65, 0
6, 27300, Note_on_c, 2, 55, 88
6, 27358, Note_off_c, 2, 55, 0
6, 27360, Note_on_c, 2, 64, 88
6, 27418, Note_off_c, 2, 64, 0
6, 27420, Note_on_c, 2, 60, 88
6, 27478, Note_off_c, 2, 60, 0
6, 27480, Note_on_c, 2, 59, 88
6, 27538, Note_off_c, 2, 59, 0
6, 27540, Note_on_c, 2, 60, 88
6, 27598, Note_off_c, 2, 60, 0
6, 27600, Note_on_c, 2, 54, 88
6, 27716, Note_off_c, 2, 54, 0
6, 27720, Note_on_c, 2, 64, 88
6, 27836, Note_off_c, 2, 64, 0
6, 27840, Note_on_c, 2, 63, 88
6, 27956, Note_off_c, 2, 63, 0
6, 27960, Note_on_c, 2, 66, 88
6, 28076, Note_off_c, 2, 66, 0
6, 28080, Note_on_c, 2, 59, 88
6, 28138, Note_off_c, 2, 59, 0
6, 28140, Note_on_c, 2, 63, 88
6, 28198, Note_off_c, 2, 63, 0
6, 28200, Note_on_c, 2, 61, 88
6, 28258, Note_off_c, 2, 61, 0
6, 28260, Note_on_c, 2, 63, 88
6, 28318, Note_off_c, 2, 63, 0
6, 28320, Note_on_c, 2, 52, 88
6, 28436, Note_off_c, 2, 52, 0
6, 28440, Note_on_c, 2, 54, 88
6, 28556, Note_off_c, 2, 54, 0
6, 28560, Note_on_c, 2, 55, 88
6, 28676, Note_off_c, 2, 55, 0
6, 28680, Note_on_c, 2, 52, 88
6, 28796, Note_off_c, 2, 52, 0
6, 28800, Note_on_c, 2, 57, 88
6, 28858, Note_off_c, 2, 57, 0
6, 28860, Note_on_c, 2, 60, 88
6, 28918, Note_off_c, 2, 60, 0
6, 28920, Note_on_c, 2, 59, 88
6, 28978, Note_off_c, 2, 59, 0
6, 28980, Note_on_c, 2, 60, 88
6, 29038, Note_off_c, 2, 60, 0
6, 29040, Note_on_c, 2, 57, 88
6, 29098, Note_off_c, 2, 57, 0
6, 29100, Note_on_c, 2, 60, 88
6, 29158, Note_off_c, 2, 60, 0
6, 29160, Note_on_c, 2, 55, 88
6, 29218, Note_off_c, 2, 55, 0
6, 29220, Note_on_c, 2, 60, 88
6, 29278, Note_off_c, 2, 60, 0
6, 29280, Note_on_c, 2, 54, 88
6, 29338, Note_off_c, 2, 54, 0
6, 29340, Note_on_c, 2, 60, 88
6, 29398, Note_off_c, 2, 60, 0
6, 29400, Note_on_c, 2, 52, 88
6, 29458, Note_off_c, 2, 52, 0
6, 29460, Note_on_c, 2, 60, 88
6, 29518, Note_off_c, 2, 60, 0
6, 29520, Note_on_c, 2, 51, 88
6, 29578, Note_off_c, 2, 51, 0
6, 29580, Note_on_c, 2, 59, 88
6, 29638, Note_off_c, 2, 59, 0
6, 29640, Note_on_c, 2, 47, 88
6, 29698, Note_off_c, 2, 47, 0
6, 29700, Note_on_c, 2, 59, 88
6, 29758, Note_off_c, 2, 59, 0
6, 29760, Note_on_c, 2, 49, 88
6, 29818, Note_off_c, 2, 49, 0
6, 29820, Note_on_c, 2, 59, 88
6, 29878, Note_off_c, 2, 59, 0
6, 29880, Note_on_c, 2, 51, 88
6, 29938, Note_off_c, 2, 51, 0
6, 29940, Note_on_c, 2, 59, 88
6, 29998, Note_off_c, 2, 59, 0
6, 30000, Note_on_c, 2, 52, 88
6, 30058, Note_off_c, 2, 52, 0
6, 30060, Note_on_c, 2, 59, 88
6, 30118, Note_off_c, 2, 59, 0
6, 30120, Note_on_c, 2, 54, 88
6, 30178, Note_off_c, 2, 54, 0
6, 30180, Note_on_c, 2, 59, 88
6, 30238, Note_off_c, 2, 59, 0
6, 30240, Note_on_c, 2, 55, 88
6, 30298, Note_off_c, 2, 55, 0
6, 30300, Note_on_c, 2, 59, 88
6, 30358, Note_off_c, 2, 59, 0
6, 30360, Note_on_c, 2, 57, 88
6, 30418, Note_off_c, 2, 57, 0
6, 30420, Note_on_c, 2, 60, 88
6, 30478, Note_off_c, 2, 60, 0
6, 30480, Note_on_c, 2, 59, 88
6, 30538, Note_off_c, 2, 59, 0
6, 30540, Note_on_c, 2, 57, 88
6, 30598, Note_off_c, 2, 57, 0
6, 30600, Note_on_c, 2, 55, 88
6, 30658, Note_off_c, 2, 55, 0
6, 30660, Note_on_c, 2, 57, 88
6, 30718, Note_off_c, 2, 57, 0
6, 30720, Note_on_c, 2, 59, 88
6, 30836, Note_off_c, 2, 59, 0
6, 30840, Note_on_c, 2, 47, 88
6, 30956, Note_off_c, 2, 47, 0
6, 30960, Note_on_c, 2, 52, 88
6, 30989, Note_off_c, 2, 52, 0
6, 30990, Note_on_c, 2, 50, 88
6, 31034, Note_off_c, 2, 50, 0
6, 31035, Note_on_c, 2, 52, 88
6, 31254, Note_off_c, 2, 52, 0
6, 31260, Note_on_c, 2, 47, 88
6, 31318, Note_off_c, 2, 47, 0
6, 31320, Note_on_c, 2, 43, 88
6, 31378, Note_off_c, 2, 43, 0
6, 31380, Note_on_c, 2, 47, 88
6, 31438, Note_off_c, 2, 47, 0
6, 31440, Note_on_c, 2, 40, 88
6, 31556, Note_off_c, 2, 40, 0
6, 31740, Note_on_c, 2, 45, 88
6, 31798, Note_off_c, 2, 45, 0
6, 31800, Note_on_c, 2, 49, 88
6, 31858, Note_off_c, 2, 49, 0
6, 31860, Note_on_c, 2, 45, 88
6, 31918, Note_off_c, 2, 45, 0
6, 31920, Note_on_c, 2, 52, 88
6, 31978, Note_off_c, 2, 52, 0
6, 31980, Note_on_c, 2, 45, 88
6, 32038, Note_off_c, 2, 45, 0
6, 32040, Note_on_c, 2, 55, 88
6, 32098, Note_off_c, 2, 55, 0
6, 32100, Note_on_c, 2, 45, 88
6, 32158, Note_off_c, 2, 45, 0
6, 32160, Note_on_c, 2, 54, 88
6, 32218, Note_off_c, 2, 54, 0
6, 32220, Note_on_c, 2, 45, 88
6, 32278, Note_off_c, 2, 45, 0
6, 32280, Note_on_c, 2, 52, 88
6, 32338, Note_off_c, 2, 52, 0
6, 32340, Note_on_c, 2, 45, 88
6, 32398, Note_off_c, 2, 45, 0
6, 32400, Note_on_c, 2, 50, 88
6, 32458, Note_off_c, 2, 50, 0
6, 32460, Note_on_c, 2, 45, 88
6, 32518, Note_off_c, 2, 45, 0
6, 32520, Note_on_c, 2, 42, 88
6, 32578, Note_off_c, 2, 42, 0
6, 32580, Note_on_c, 2, 45, 88
6, 32638, Note_off_c, 2, 45, 0
6, 32640, Note_on_c, 2, 38, 88
6, 32698, Note_off_c, 2, 38, 0
6, 32700, Note_on_c, 2, 42, 88
6, 32758, Note_off_c, 2, 42, 0
6, 32760, Note_on_c, 2, 45, 88
6, 32818, Note_off_c, 2, 45, 0
6, 32820, Note_on_c, 2, 50, 88
6, 32878, Note_off_c, 2, 50, 0
6, 32880, Note_on_c, 2, 54, 88
6, 32938, Note_off_c, 2, 54, 0
6, 32940, Note_on_c, 2, 57, 88
6, 32998, Note_off_c, 2, 57, 0
6, 33000, Note_on_c, 2, 54, 88
6, 33058, Note_off_c, 2, 54, 0
6, 33060, Note_on_c, 2, 50, 88
6, 33118, Note_off_c, 2, 50, 0
6, 33120, Note_on_c, 2, 55, 88
6, 33178, Note_off_c, 2, 55, 0
6, 33180, Note_on_c, 2, 43, 88
6, 33238, Note_off_c, 2, 43, 0
6, 33240, Note_on_c, 2, 47, 88
6, 33298, Note_off_c, 2, 47, 0
6, 33300, Note_on_c, 2, 43, 88
6, 33358, Note_off_c, 2, 43, 0
6, 33360, Note_on_c, 2, 50, 88
6, 33418, Note_off_c, 2, 50, 0
6, 33420, Note_on_c, 2, 43, 88
6, 33478, Note_off_c, 2, 43, 0
6, 33480, Note_on_c, 2, 53, 88
6, 33538, Note_off_c, 2, 53, 0
6, 33540, Note_on_c, 2, 43, 88
6, 33598, Note_off_c, 2, 43, 0
6, 33600, Note_on_c, 2, 52, 88
6, 33658, Note_off_c, 2, 52, 0
6, 33660, Note_on_c, 2, 43, 88
6, 33718, Note_off_c, 2, 43, 0
6, 33720, Note_on_c, 2, 50, 88
6, 33778, Note_off_c, 2, 50, 0
6, 33780, Note_on_c, 2, 43, 88
6, 33838, Note_off_c, 2, 43, 0
6, 33840, Note_on_c, 2, 48, 88
6, 33898, Note_off_c, 2, 48, 0
6, 33900, Note_on_c, 2, 43, 88
6, 33958, Note_off_c, 2, 43, 0
6, 33960, Note_on_c, 2, 40, 88
6, 34018, Note_off_c, 2, 40, 0
6, 34020, Note_on_c, 2, 43, 88
6, 34078, Note_off_c, 2, 43, 0
6, 34080, Note_on_c, 2, 36, 88
6, 34196, Note_off_c, 2, 36, 0
6, 34620, Note_on_c, 2, 48, 88
6, 34678, Note_off_c, 2, 48, 0
6, 34680, Note_on_c, 2, 47, 88
6, 34738, Note_off_c, 2, 47, 0
6, 34740, Note_on_c, 2, 45, 88
6, 34798, Note_off_c, 2, 45, 0
6, 34800, Note_on_c, 2, 47, 88
6, 34916, Note_off_c, 2, 47, 0
6, 34920, Note_on_c, 2, 50, 88
6, 35036, Note_off_c, 2, 50, 0
6, 35040, Note_on_c, 2, 52, 88
6, 35156, Note_off_c, 2, 52, 0
6, 35160, Note_on_c, 2, 55, 88
6, 35338, Note_off_c, 2, 55, 0
6, 35340, Note_on_c, 2, 47, 88
6, 35398, Note_off_c, 2, 47, 0
6, 35400, Note_on_c, 2, 45, 88
6, 35458, Note_off_c, 2, 45, 0
6, 35460, Note_on_c, 2, 43, 88
6, 35518, Note_off_c, 2, 43, 0
6, 35520, Note_on_c, 2, 45, 88
6, 35636, Note_off_c, 2, 45, 0
6, 35640, Note_on_c, 2, 48, 88
6, 35756, Note_off_c, 2, 48, 0
6, 35760, Note_on_c, 2, 50, 88
6, 35876, Note_off_c, 2, 50, 0
6, 35880, Note_on_c, 2, 54, 88
6, 36058, Note_off_c, 2, 54, 0
6, 36060, Note_on_c, 2, 45, 88
6, 36118, Note_off_c, 2, 45, 0
6, 36120, Note_on_c, 2, 43, 88
6, 36178, Note_off_c, 2, 43, 0
6, 36180, Note_on_c, 2, 42, 88
6, 36238, Note_off_c, 2, 42, 0
6, 36240, Note_on_c, 2, 43, 88
6, 36356, Note_off_c, 2, 43, 0
6, 36360, Note_on_c, 2, 47, 88
6, 36476, Note_off_c, 2, 47, 0
6, 36480, Note_on_c, 2, 50, 88
6, 36596, Note_off_c, 2, 50, 0
6, 36600, Note_on_c, 2, 55, 88
6, 36716, Note_off_c, 2, 55, 0
6, 36720, Note_on_c, 2, 54, 88
6, 36836, Note_off_c, 2, 54, 0
6, 36840, Note_on_c, 2, 50, 88
6, 36956, Note_off_c, 2, 50, 0
6, 36960, Note_on_c, 2, 54, 88
6, 37076, Note_off_c, 2, 54, 0
6, 37080, Note_on_c, 2, 57, 88
6, 37196, Note_off_c, 2, 57, 0
6, 37200, Note_on_c, 2, 62, 88
6, 37258, Note_off_c, 2, 62, 0
6, 37260, Note_on_c, 2, 50, 88
6, 37318, Note_off_c, 2, 50, 0
6, 37320, Note_on_c, 2, 48, 88
6, 37378, Note_off_c, 2, 48, 0
6, 37380, Note_on_c, 2, 50, 88
6, 37438, Note_off_c, 2, 50, 0
6, 37440, Note_on_c, 2, 47, 88
6, 37498, Note_off_c, 2, 47, 0
6, 37500, Note_on_c, 2, 50, 88
6, 37558, Note_off_c, 2, 50, 0
6, 37560, Note_on_c, 2, 45, 88
6, 37618, Note_off_c, 2, 45, 0
6, 37620, Note_on_c, 2, 50, 88
6, 37678, Note_off_c, 2, 50, 0
6, 37680, Note_on_c, 2, 47, 88
6, 37738, Note_off_c, 2, 47, 0
6, 37740, Note_on_c, 2, 50, 88
6, 37798, Note_off_c, 2, 50, 0
6, 37800, Note_on_c, 2, 43, 88
6, 37858, Note_off_c, 2, 43, 0
6, 37860, Note_on_c, 2, 50, 88
6, 37918, Note_off_c, 2, 50, 0
6, 37920, Note_on_c, 2, 45, 88
6, 37978, Note_off_c, 2, 45, 0
6, 37980, Note_on_c, 2, 50, 88
6, 38038, Note_off_c, 2, 50, 0
6, 38040, Note_on_c, 2, 47, 88
6, 38098, Note_off_c, 2, 47, 0
6, 38100, Note_on_c, 2, 50, 88
6, 38158, Note_off_c, 2, 50, 0
6, 38160, Note_on_c, 2, 48, 88
6, 38218, Note_off_c, 2, 48, 0
6, 38220, Note_on_c, 2, 52, 88
6, 38278, Note_off_c, 2, 52, 0
6, 38280, Note_on_c, 2, 47, 88
6, 38338, Note_off_c, 2, 47, 0
6, 38340, Note_on_c, 2, 52, 88
6, 38398, Note_off_c, 2, 52, 0
6, 38400, Note_on_c, 2, 49, 88
6, 38458, Note_off_c, 2, 49, 0
6, 38460, Note_on_c, 2, 52, 88
6, 38518, Note_off_c, 2, 52, 0
6, 38520, Note_on_c, 2, 45, 88
6, 38578, Note_off_c, 2, 45, 0
6, 38580, Note_on_c, 2, 52, 88
6, 38638, Note_off_c, 2, 52, 0
6, 38640, Note_on_c, 2, 47, 88
6, 38698, Note_off_c, 2, 47, 0
6, 38700, Note_on_c, 2, 52, 88
6, 38758, Note_off_c, 2, 52, 0
6, 38760, Note_on_c, 2, 49, 88
6, 38818, Note_off_c, 2, 49, 0
6, 38820, Note_on_c, 2, 52, 88
6, 38878, Note_off_c, 2, 52, 0
6, 38880, Note_on_c, 2, 50, 88
6, 38938, Note_off_c, 2, 50, 0
6, 38940, Note_on_c, 2, 54, 88
6, 38998, Note_off_c, 2, 54, 0
6, 39000, Note_on_c, 2, 49, 88
6, 39058, Note_off_c, 2, 49, 0
6, 39060, Note_on_c, 2, 54, 88
6, 39118, Note_off_c, 2, 54, 0
6, 39120, Note_on_c, 2, 51, 88
6, 39178, Note_off_c, 2, 51, 0
6, 39180, Note_on_c, 2, 54, 88
6, 39238, Note_off_c, 2, 54, 0
6, 39240, Note_on_c, 2, 47, 88
6, 39298, Note_off_c, 2, 47, 0
6, 39300, Note_on_c, 2, 54, 88
6, 39358, Note_off_c, 2, 54, 0
6, 39360, Note_on_c, 2, 49, 88
6, 39418, Note_off_c, 2, 49, 0
6, 39420, Note_on_c, 2, 54, 88
6, 39478, Note_off_c, 2, 54, 0
6, 39480, Note_on_c, 2, 51, 88
6, 39538, Note_off_c, 2, 51, 0
6, 39540, Note_on_c, 2, 54, 88
6, 39598, Note_off_c, 2, 54, 0
6, 39600, Note_on_c, 2, 52, 88
6, 39658, Note_off_c, 2, 52, 0
6, 39660, Note_on_c, 2, 55, 88
6, 39718, Note_off_c, 2, 55, 0
6, 39720, Note_on_c, 2, 50, 88
6, 39778, Note_off_c, 2, 50, 0
6, 39780, Note_on_c, 2, 55, 88
6, 39838, Note_off_c, 2, 55, 0
6, 39840, Note_on_c, 2, 48, 88
6, 39898, Note_off_c, 2, 48, 0
6, 39900, Note_on_c, 2, 55, 88
6, 39958, Note_off_c, 2, 55, 0
6, 39960, Note_on_c, 2, 47, 88
6, 40018, Note_off_c, 2, 47, 0
6, 40020, Note_on_c, 2, 55, 88
6, 40078, Note_off_c, 2, 55, 0
6, 40080, Note_on_c, 2, 45, 88
6, 40138, Note_off_c, 2, 45, 0
6, 40140, Note_on_c, 2, 48, 88
6, 40198, Note_off_c, 2, 48, 0
6, 40200, Note_on_c, 2, 52, 88
6, 40258, Note_off_c, 2, 52, 0
6, 40260, Note_on_c, 2, 55, 88
6, 40318, Note_off_c, 2, 55, 0
6, 40320, Note_on_c, 2, 54, 88
6, 40436, Note_off_c, 2, 54, 0
6, 40440, Note_on_c, 2, 57, 88
6, 40556, Note_off_c, 2, 57, 0
6, 40560, Note_on_c, 2, 50, 88
6, 40676, Note_off_c, 2, 50, 0
6, 40680, Note_on_c, 2, 52, 88
6, 40796, Note_off_c, 2, 52, 0
6, 40800, Note_on_c, 2, 54, 88
6, 40916, Note_off_c, 2, 54, 0
6, 40920, Note_on_c, 2, 50, 88
6, 41036, Note_off_c, 2, 50, 0
6, 41040, Note_on_c, 2, 55, 88
6, 41098, Note_off_c, 2, 55, 0
6, 41100, Note_on_c, 2, 67, 88
6, 41158, Note_off_c, 2, 67, 0
6, 41160, Note_on_c, 2, 65, 88
6, 41218, Note_off_c, 2, 65, 0
6, 41220, Note_on_c, 2, 67, 88
6, 41278, Note_off_c, 2, 67, 0
6, 41280, Note_on_c, 2, 64, 88
6, 41338, Note_off_c, 2, 64, 0
6, 41340, Note_on_c, 2, 67, 88
6, 41398, Note_off_c, 2, 67, 0
6, 41400, Note_on_c, 2, 62, 88
6, 41458, Note_off_c, 2, 62, 0
6, 41460, Note_on_c, 2, 67, 88
6, 41518, Note_off_c, 2, 67, 0
6, 41520, Note_on_c, 2, 60, 88
6, 41578, Note_off_c, 2, 60, 0
6, 41580, Note_on_c, 2, 67, 88
6, 41638, Note_off_c, 2, 67, 0
6, 41640, Note_on_c, 2, 59, 88
6, 41698, Note_off_c, 2, 59, 0
6, 41700, Note_on_c, 2, 67, 88
6, 41758, Note_off_c, 2, 67, 0
6, 41760, Note_on_c, 2, 60, 88
6, 41818, Note_off_c, 2, 60, 0
6, 41820, Note_on_c, 2, 64, 88
6, 41878, Note_off_c, 2, 64, 0
6, 41880, Note_on_c, 2, 62, 88
6, 41938, Note_off_c, 2, 62, 0
6, 41940, Note_on_c, 2, 64, 88
6, 41998, Note_off_c, 2, 64, 0
6, 42000, Note_on_c, 2, 57, 88
6, 42116, Note_off_c, 2, 57, 0
6, 42120, Note_on_c, 2, 59, 88
6, 42236, Note_off_c, 2, 59, 0
6, 42240, Note_on_c, 2, 60, 88
6, 42356, Note_off_c, 2, 60, 0
6, 42360, Note_on_c, 2, 57, 88
6, 42476, Note_off_c, 2, 57, 0
6, 42480, Note_on_c, 2, 62, 88
6, 42596, Note_off_c, 2, 62, 0
6, 42600, Note_on_c, 2, 57, 88
6, 42716, Note_off_c, 2, 57, 0
6, 42720, Note_on_c, 2, 54, 88
6, 42836, Note_off_c, 2, 54, 0
6, 42840, Note_on_c, 2, 57, 88
6, 42956, Note_off_c, 2, 57, 0
6, 42960, Note_on_c, 2, 50, 88
6, 43076, Note_off_c, 2, 50, 0
6, 43080, Note_on_c, 2, 54, 88
6, 43196, Note_off_c, 2, 54, 0
6, 43200, Note_on_c, 2, 47, 88
6, 43316, Note_off_c, 2, 47, 0
6, 43320, Note_on_c, 2, 50, 88
6, 43436, Note_off_c, 2, 50, 0
6, 43440, Note_on_c, 2, 43, 88
6, 43498, Note_off_c, 2, 43, 0
6, 43500, Note_on_c, 2, 45, 88
6, 43558, Note_off_c, 2, 45, 0
6, 43560, Note_on_c, 2, 47, 88
6, 43618, Note_off_c, 2, 47, 0
6, 43620, Note_on_c, 2, 48, 88
6, 43678, Note_off_c, 2, 48, 0
6, 43680, Note_on_c, 2, 50, 88
6, 43796, Note_off_c, 2, 50, 0
6, 43800, Note_on_c, 2, 38, 88
6, 43916, Note_off_c, 2, 38, 0
6, 43920, Note_on_c, 2, 40, 88
6, 44036, Note_off_c, 2, 40, 0
6, 44040, Note_on_c, 2, 55, 88
6, 44156, Note_off_c, 2, 55, 0
6, 44160, Note_on_c, 2, 58, 88
6, 44276, Note_off_c, 2, 58, 0
6, 44280, Note_on_c, 2, 50, 88
6, 44396, Note_off_c, 2, 50, 0
6, 44400, Note_on_c, 2, 49, 88
6, 44516, Note_off_c, 2, 49, 0
6, 44520, Note_on_c, 2, 45, 88
6, 44636, Note_off_c, 2, 45, 0
6, 44640, Note_on_c, 2, 50, 88
6, 44698, Note_off_c, 2, 50, 0
6, 44700, Note_on_c, 2, 54, 88
6, 44758, Note_off_c, 2, 54, 0
6, 44760, Note_on_c, 2, 57, 88
6, 44818, Note_off_c, 2, 57, 0
6, 44820, Note_on_c, 2, 60, 88
6, 44878, Note_off_c, 2, 60, 0
6, 44880, Note_on_c, 2, 59, 88
6, 44996, Note_off_c, 2, 59, 0
6, 45000, Note_on_c, 2, 55, 88
6, 45116, Note_off_c, 2, 55, 0
6, 45120, Note_on_c, 2, 62, 88
6, 45236, Note_off_c, 2, 62, 0
6, 45240, Note_on_c, 2, 50, 88
6, 45356, Note_off_c, 2, 50, 0
6, 45360, Note_on_c, 2, 55, 88
6, 45476, Note_off_c, 2, 55, 0
6, 45480, Note_on_c, 2, 43, 88
6, 45596, Note_off_c, 2, 43, 0
6, 45600, Note_on_c, 2, 47, 88
6, 45716, Note_off_c, 2, 47, 0
6, 45720, Note_on_c, 2, 50, 88
6, 45836, Note_off_c, 2, 50, 0
6, 45840, Note_on_c, 2, 55, 88
6, 45862, Note_off_c, 2, 55, 0
6, 45863, Note_on_c, 2, 54, 88
6, 45899, Note_off_c, 2, 54, 0
6, 45900, Note_on_c, 2, 55, 88
6, 46075, Note_off_c, 2, 55, 0
6, 46080, Note_on_c, 2, 50, 88
6, 48228, Note_off_c, 2, 50, 0
6, 48240, Note_on_c, 2, 43, 88
6, 48298, Note_off_c, 2, 43, 0
6, 48300, Note_on_c, 2, 55, 88
6, 48358, Note_off_c, 2, 55, 0
6, 48360, Note_on_c, 2, 54, 88
6, 48418, Note_off_c, 2, 54, 0
6, 48420, Note_on_c, 2, 55, 88
6, 48478, Note_off_c, 2, 55, 0
6, 48480, Note_on_c, 2, 59, 88
6, 48538, Note_off_c, 2, 59, 0
6, 48540, Note_on_c, 2, 55, 88
6, 48598, Note_off_c, 2, 55, 0
6, 48600, Note_on_c, 2, 60, 88
6, 48658, Note_off_c, 2, 60, 0
6, 48660, Note_on_c, 2, 55, 88
6, 48718, Note_off_c, 2, 55, 0
6, 48720, Note_on_c, 2, 62, 88
6, 48778, Note_off_c, 2, 62, 0
6, 48780, Note_on_c, 2, 55, 88
6, 48838, Note_off_c, 2, 55, 0
6, 48840, Note_on_c, 2, 60, 88
6, 48898, Note_off_c, 2, 60, 0
6, 48900, Note_on_c, 2, 55, 88
6, 48958, Note_off_c, 2, 55, 0
6, 48960, Note_on_c, 2, 59, 88
6, 49018, Note_off_c, 2, 59, 0
6, 49020, Note_on_c, 2, 55, 88
6, 49078, Note_off_c, 2, 55, 0
6, 49080, Note_on_c, 2, 57, 88
6, 49138, Note_off_c, 2, 57, 0
6, 49140, Note_on_c, 2, 55, 88
6, 49198, Note_off_c, 2, 55, 0
6, 49200, Note_on_c, 2, 59, 88
6, 49258, Note_off_c, 2, 59, 0
6, 49260, Note_on_c, 2, 55, 88
6, 49318, Note_off_c, 2, 55, 0
6, 49320, Note_on_c, 2, 60, 88
6, 49378, Note_off_c, 2, 60, 0
6, 49380, Note_on_c, 2, 55, 88
6, 49438, Note_off_c, 2, 55, 0
6, 49440, Note_on_c, 2, 62, 88
6, 49498, Note_off_c, 2, 62, 0
6, 49500, Note_on_c, 2, 55, 88
6, 49558, Note_off_c, 2, 55, 0
6, 49560, Note_on_c, 2, 59, 88
6, 49618, Note_off_c, 2, 59, 0
6, 49620, Note_on_c, 2, 55, 88
6, 49678, Note_off_c, 2, 55, 0
6, 49680, Note_on_c, 2, 60, 88
6, 49738, Note_off_c, 2, 60, 0
6, 49740, Note_on_c, 2, 55, 88
6, 49798, Note_off_c, 2, 55, 0
6, 49800, Note_on_c, 2, 59, 88
6, 49858, Note_off_c, 2, 59, 0
6, 49860, Note_on_c, 2, 55, 88
6, 49918, Note_off_c, 2, 55, 0
6, 49920, Note_on_c, 2, 60, 88
6, 49978, Note_off_c, 2, 60, 0
6, 49980, Note_on_c, 2, 55, 88
6, 50038, Note_off_c, 2, 55, 0
6, 50040, Note_on_c, 2, 64, 88
6, 50098, Note_off_c, 2, 64, 0
6, 50100, Note_on_c, 2, 55, 88
6, 50158, Note_off_c, 2, 55, 0
6, 50160, Note_on_c, 2, 62, 88
6, 50218, Note_off_c, 2, 62, 0
6, 50220, Note_on_c, 2, 55, 88
6, 50278, Note_off_c, 2, 55, 0
6, 50280, Note_on_c, 2, 65, 88
6, 50338, Note_off_c, 2, 65, 0
6, 50340, Note_on_c, 2, 55, 88
6, 50398, Note_off_c, 2, 55, 0
6, 50400, Note_on_c, 2, 64, 88
6, 50458, Note_off_c, 2, 64, 0
6, 50460, Note_on_c, 2, 60, 88
6, 50518, Note_off_c, 2, 60, 0
6, 50520, Note_on_c, 2, 59, 88
6, 50578, Note_off_c, 2, 59, 0
6, 50580, Note_on_c, 2, 60, 88
6, 50638, Note_off_c, 2, 60, 0
6, 50640, Note_on_c, 2, 54, 88
6, 50756, Note_off_c, 2, 54, 0
6, 50760, Note_on_c, 2, 64, 88
6, 50876, Note_off_c, 2, 64, 0
6, 50880, Note_on_c, 2, 63, 88
6, 50996, Note_off_c, 2, 63, 0
6, 51000, Note_on_c, 2, 66, 88
6, 51116, Note_off_c, 2, 66, 0
6, 51120, Note_on_c, 2, 59, 88
6, 51178, Note_off_c, 2, 59, 0
6, 51180, Note_on_c, 2, 63, 88
6, 51238, Note_off_c, 2, 63, 0
6, 51240, Note_on_c, 2, 61, 88
6, 51298, Note_off_c, 2, 61, 0
6, 51300, Note_on_c, 2, 63, 88
6, 51358, Note_off_c, 2, 63, 0
6, 51360, Note_on_c, 2, 52, 88
6, 51476, Note_off_c, 2, 52, 0
6, 51480, Note_on_c, 2, 54, 88
6, 51596, Note_off_c, 2, 54, 0
6, 51600, Note_on_c, 2, 55, 88
6, 51716, Note_off_c, 2, 55, 0
6, 51720, Note_on_c, 2, 52, 88
6, 51836, Note_off_c, 2, 52, 0
6, 51840, Note_on_c, 2, 57, 88
6, 51898, Note_off_c, 2, 57, 0
6, 51900, Note_on_c, 2, 60, 88
6, 51958, Note_off_c, 2, 60, 0
6, 51960, Note_on_c, 2, 59, 88
6, 52018, Note_off_c, 2, 59, 0
6, 52020, Note_on_c, 2, 60, 88
6, 52078, Note_off_c, 2, 60, 0
6, 52080, Note_on_c, 2, 57, 88
6, 52138, Note_off_c, 2, 57, 0
6, 52140, Note_on_c, 2, 60, 88
6, 52198, Note_off_c, 2, 60, 0
6, 52200, Note_on_c, 2, 55, 88
6, 52258, Note_off_c, 2, 55, 0
6, 52260, Note_on_c, 2, 60, 88
6, 52318, Note_off_c, 2, 60, 0
6, 52320, Note_on_c, 2, 54, 88
6, 52378, Note_off_c, 2, 54, 0
6, 52380, Note_on_c, 2, 60, 88
6, 52438, Note_off_c, 2, 60, 0
6, 52440, Note_on_c, 2, 52, 88
6, 52498, Note_off_c, 2, 52, 0
6, 52500, Note_on_c, 2, 60, 88
6, 52558, Note_off_c, 2, 60, 0
6, 52560, Note_on_c, 2, 51, 88
6, 52618, Note_off_c, 2, 51, 0
6, 52620, Note_on_c, 2, 59, 88
6, 52678, Note_off_c, 2, 59, 0
6, 52680, Note_on_c, 2, 47, 88
6, 52738, Note_off_c, 2, 47, 0
6, 52740, Note_on_c, 2, 59, 88
6, 52798, Note_off_c, 2, 59, 0
6, 52800, Note_on_c, 2, 49, 88
6, 52858, Note_off_c, 2, 49, 0
6, 52860, Note_on_c, 2, 59, 88
6, 52918, Note_off_c, 2, 59, 0
6, 52920, Note_on_c, 2, 51, 88
6, 52978, Note_off_c, 2, 51, 0
6, 52980, Note_on_c, 2, 59, 88
6, 53038, Note_off_c, 2, 59, 0
6, 53040, Note_on_c, 2, 52, 88
6, 53098, Note_off_c, 2, 52, 0
6, 53100, Note_on_c, 2, 59, 88
6, 53158, Note_off_c, 2, 59, 0
6, 53160, Note_on_c, 2, 54, 88
6, 53218, Note_off_c, 2, 54, 0
6, 53220, Note_on_c, 2, 59, 88
6, 53278, Note_off_c, 2, 59, 0
6, 53280, Note_on_c, 2, 55, 88
6, 53338, Note_off_c, 2, 55, 0
6, 53340, Note_on_c, 2, 59, 88
6, 53398, Note_off_c, 2, 59, 0
6, 53400, Note_on_c, 2, 57, 88
6, 53458, Note_off_c, 2, 57, 0
6, 53460, Note_on_c, 2, 60, 88
6, 53518, Note_off_c, 2, 60, 0
6, 53520, Note_on_c, 2, 59, 88
6, 53578, Note_off_c, 2, 59, 0
6, 53580, Note_on_c, 2, 57, 88
6, 53638, Note_off_c, 2, 57, 0
6, 53640, Note_on_c, 2, 55, 88
6, 53698, Note_off_c, 2, 55, 0
6, 53700, Note_on_c, 2, 57, 88
6, 53758, Note_off_c, 2, 57, 0
6, 53760, Note_on_c, 2, 59, 88
6, 53876, Note_off_c, 2, 59, 0
6, 53880, Note_on_c, 2, 47, 88
6, 53996, Note_off_c, 2, 47, 0
6, 54000, Note_on_c, 2, 52, 88
6, 54029, Note_off_c, 2, 52, 0
6, 54030, Note_on_c, 2, 50, 88
6, 54074, Note_off_c, 2, 50, 0
6, 54075, Note_on_c, 2, 52, 88
6, 54294, Note_off_c, 2, 52, 0
6, 54300, Note_on_c, 2, 47, 88
6, 54358, Note_off_c, 2, 47, 0
6, 54360, Note_on_c, 2, 43, 88
6, 54418, Note_off_c, 2, 43, 0
6, 54420, Note_on_c, 2, 47, 88
6, 54478, Note_off_c, 2, 47, 0
6, 54480, Note_on_c, 2, 40, 88
6, 54596, Note_off_c, 2, 40, 0
6, 54780, Note_on_c, 2, 45, 88
6, 54838, Note_off_c, 2, 45, 0
6, 54840, Note_on_c, 2, 49, 88
6, 54898, Note_off_c, 2, 49, 0
6, 54900, Note_on_c, 2, 45, 88
6, 54958, Note_off_c, 2, 45, 0
6, 54960, Note_on_c, 2, 52, 88
6, 55018, Note_off_c, 2, 52, 0
6, 55020, Note_on_c, 2, 45, 88
6, 55078, Note_off_c, 2, 45, 0
6, 55080, Note_on_c, 2, 55, 88
6, 55138, Note_off_c, 2, 55, 0
6, 55140, Note_on_c, 2, 45, 88
6, 55198, Note_off_c, 2, 45, 0
6, 55200, Note_on_c, 2, 54, 88
6, 55258, Note_off_c, 2, 54, 0
6, 55260, Note_on_c, 2, 45, 88
6, 55318, Note_off_c, 2, 45, 0
6, 55320, Note_on_c, 2, 52, 88
6, 55378, Note_off_c, 2, 52, 0
6, 55380, Note_on_c, 2, 45, 88
6, 55438, Note_off_c, 2, 45, 0
6, 55440, Note_on_c, 2, 50, 88
6, 55498, Note_off_c, 2, 50, 0
6, 55500, Note_on_c, 2, 45, 88
6, 55558, Note_off_c, 2, 45, 0
6, 55560, Note_on_c, 2, 42, 88
6, 55618, Note_off_c, 2, 42, 0
6, 55620, Note_on_c, 2, 45, 88
6, 55678, Note_off_c, 2, 45, 0
6, 55680, Note_on_c, 2, 38, 88
6, 55738, Note_off_c, 2, 38, 0
6, 55740, Note_on_c, 2, 42, 88
6, 55798, Note_off_c, 2, 42, 0
6, 55800, Note_on_c, 2, 45, 88
6, 55858, Note_off_c, 2, 45, 0
6, 55860, Note_on_c, 2, 50, 88
6, 55918, Note_off_c, 2, 50, 0
6, 55920, Note_on_c, 2, 54, 88
6, 55978, Note_off_c, 2, 54, 0
6, 55980, Note_on_c, 2, 57, 88
6, 56038, Note_off_c, 2, 57, 0
6, 56040, Note_on_c, 2, 54, 88
6, 56098, Note_off_c, 2, 54, 0
6, 56100, Note_on_c, 2, 50, 88
6, 56158, Note_off_c, 2, 50, 0
6, 56160, Note_on_c, 2, 55, 88
6, 56218, Note_off_c, 2, 55, 0
6, 56220, Note_on_c, 2, 43, 88
6, 56278, Note_off_c, 2, 43, 0
6, 56280, Note_on_c, 2, 47, 88
6, 56338, Note_off_c, 2, 47, 0
6, 56340, Note_on_c, 2, 43, 88
6, 56398, Note_off_c, 2, 43, 0
6, 56400, Note_on_c, 2, 50, 88
6, 56458, Note_off_c, 2, 50, 0
6, 56460, Note_on_c, 2, 43, 88
6, 56518, Note_off_c, 2, 43, 0
6, 56520, Note_on_c, 2, 53, 88
6, 56578, Note_off_c, 2, 53, 0
6, 56580, Note_on_c, 2, 43, 88
6, 56638, Note_off_c, 2, 43, 0
6, 56640, Note_on_c, 2, 52, 88
6, 56698, Note_off_c, 2, 52, 0
6, 56700, Note_on_c, 2, 43, 88
6, 56758, Note_off_c, 2, 43, 0
6, 56760, Note_on_c, 2, 50, 88
6, 56818, Note_off_c, 2, 50, 0
6, 56820, Note_on_c, 2, 43, 88
6, 56878, Note_off_c, 2, 43, 0
6, 56880, Note_on_c, 2, 48, 88
6, 56938, Note_off_c, 2, 48, 0
6, 56940, Note_on_c, 2, 43, 88
6, 56998, Note_off_c, 2, 43, 0
6, 57000, Note_on_c, 2, 40, 88
6, 57058, Note_off_c, 2, 40, 0
6, 57060, Note_on_c, 2, 43, 88
6, 57118, Note_off_c, 2, 43, 0
6, 57120, Note_on_c, 2, 36, 88
6, 57236, Note_off_c, 2, 36, 0
6, 57660, Note_on_c, 2, 48, 88
6, 57718, Note_off_c, 2, 48, 0
6, 57720, Note_on_c, 2, 47, 88
6, 57778, Note_off_c, 2, 47, 0
6, 57780, Note_on_c, 2, 45, 88
6, 57838, Note_off_c, 2, 45, 0
6, 57840, Note_on_c, 2, 47, 88
6, 57956, Note_off_c, 2, 47, 0
6, 57960, Note_on_c, 2, 50, 88
6, 58076, Note_off_c, 2, 50, 0
6, 58080, Note_on_c, 2, 52, 88
6, 58196, Note_off_c, 2, 52, 0
6, 58200, Note_on_c, 2, 55, 88
6, 58378, Note_off_c, 2, 55, 0
6, 58380, Note_on_c, 2, 47, 88
6, 58438, Note_off_c, 2, 47, 0
6, 58440, Note_on_c, 2, 45, 88
6, 58498, Note_off_c, 2, 45, 0
6, 58500, Note_on_c, 2, 43, 88
6, 58558, Note_off_c, 2, 43, 0
6, 58560, Note_on_c, 2, 45, 88
6, 58676, Note_off_c, 2, 45, 0
6, 58680, Note_on_c, 2, 48, 88
6, 58796, Note_off_c, 2, 48, 0
6, 58800, Note_on_c, 2, 50, 88
6, 58916, Note_off_c, 2, 50, 0
6, 58920, Note_on_c, 2, 54, 88
6, 59098, Note_off_c, 2, 54, 0
6, 59100, Note_on_c, 2, 45, 88
6, 59158, Note_off_c, 2, 45, 0
6, 59160, Note_on_c, 2, 43, 88
6, 59218, Note_off_c, 2, 43, 0
6, 59220, Note_on_c, 2, 42, 88
6, 59278, Note_off_c, 2, 42, 0
6, 59280, Note_on_c, 2, 43, 88
6, 59396, Note_off_c, 2, 43, 0
6, 59400, Note_on_c, 2, 47, 88
6, 59516, Note_off_c, 2, 47, 0
6, 59520, Note_on_c, 2, 50, 88
6, 59636, Note_off_c, 2, 50, 0
6, 59640, Note_on_c, 2, 55, 88
6, 59756, Note_off_c, 2, 55, 0
6, 59760, Note_on_c, 2, 54, 88
6, 59876, Note_off_c, 2, 54, 0
6, 59880, Note_on_c, 2, 50, 88
6, 59996, Note_off_c, 2, 50, 0
6, 60000, Note_on_c, 2, 54, 88
6, 60116, Note_off_c, 2, 54, 0
6, 60120, Note_on_c, 2, 57, 88
6, 60236, Note_off_c, 2, 57, 0
6, 60240, Note_on_c, 2, 62, 88
6, 60298, Note_off_c, 2, 62, 0
6, 60300, Note_on_c, 2, 50, 88
6, 60358, Note_off_c, 2, 50, 0
6, 60360, Note_on_c, 2, 48, 88
6, 60418, Note_off_c, 2, 48, 0
6, 60420, Note_on_c, 2, 50, 88
6, 60478, Note_off_c, 2, 50, 0
6, 60480, Note_on_c, 2, 47, 88
6, 60538, Note_off_c, 2, 47, 0
6, 60540, Note_on_c, 2, 50, 88
6, 60598, Note_off_c, 2, 50, 0
6, 60600, Note_on_c, 2, 45, 88
6, 60658, Note_off_c, 2, 45, 0
6, 60660, Note_on_c, 2, 50, 88
6, 60718, Note_off_c, 2, 50, 0
6, 60720, Note_on_c, 2, 47, 88
6, 60778, Note_off_c, 2, 47, 0
6, 60780, Note_on_c, 2, 50, 88
6, 60838, Note_off_c, 2, 50, 0
6, 60840, Note_on_c, 2, 43, 88
6, 60898, Note_off_c, 2, 43, 0
6, 60900, Note_on_c, 2, 50, 88
6, 60958, Note_off_c, 2, 50, 0
6, 60960, Note_on_c, 2, 45, 88
6, 61018, Note_off_c, 2, 45, 0
6, 61020, Note_on_c, 2, 50, 88
6, 61078, Note_off_c, 2, 50, 0
6, 61080, Note_on_c, 2, 47, 88
6, 61138, Note_off_c, 2, 47, 0
6, 61140, Note_on_c, 2, 50, 88
6, 61198, Note_off_c, 2, 50, 0
6, 61200, Note_on_c, 2, 48, 88
6, 61258, Note_off_c, 2, 48, 0
6, 61260, Note_on_c, 2, 52, 88
6, 61318, Note_off_c, 2, 52, 0
6, 61320, Note_on_c, 2, 47, 88
6, 61378, Note_off_c, 2, 47, 0
6, 61380, Note_on_c, 2, 52, 88
6, 61438, Note_off_c, 2, 52, 0
6, 61440, Note_on_c, 2, 49, 88
6, 61498, Note_off_c, 2, 49, 0
6, 61500, Note_on_c, 2, 52, 88
6, 61558, Note_off_c, 2, 52, 0
6, 61560, Note_on_c, 2, 45, 88
6, 61618, Note_off_c, 2, 45, 0
6, 61620, Note_on_c, 2, 52, 88
6, 61678, Note_off_c, 2, 52, 0
6, 61680, Note_on_c, 2, 47, 88
6, 61738, Note_off_c, 2, 47, 0
6, 61740, Note_on_c, 2, 52, 88
6, 61798, Note_off_c, 2, 52, 0
6, 61800, Note_on_c, 2, 49, 88
6, 61858, Note_off_c, 2, 49, 0
6, 61860, Note_on_c, 2, 52, 88
6, 61918, Note_off_c, 2, 52, 0
6, 61920, Note_on_c, 2, 50, 88
6, 61978, Note_off_c, 2, 50, 0
6, 61980, Note_on_c, 2, 54, 88
6, 62038, Note_off_c, 2, 54, 0
6, 62040, Note_on_c, 2, 49, 88
6, 62098, Note_off_c, 2, 49, 0
6, 62100, Note_on_c, 2, 54, 88
6, 62158, Note_off_c, 2, 54, 0
6, 62160, Note_on_c, 2, 51, 88
6, 62218, Note_off_c, 2, 51, 0
6, 62220, Note_on_c, 2, 54, 88
6, 62278, Note_off_c, 2, 54, 0
6, 62280, Note_on_c, 2, 47, 88
6, 62338, Note_off_c, 2, 47, 0
6, 62340, Note_on_c, 2, 54, 88
6, 62398, Note_off_c, 2, 54, 0
6, 62400, Note_on_c, 2, 49, 88
6, 62458, Note_off_c, 2, 49, 0
6, 62460, Note_on_c, 2, 54, 88
6, 62518, Note_off_c, 2, 54, 0
6, 62520, Note_on_c, 2, 51, 88
6, 62578, Note_off_c, 2, 51, 0
6, 62580, Note_on_c, 2, 54, 88
6, 62638, Note_off_c, 2, 54, 0
6, 62640, Note_on_c, 2, 52, 88
6, 62698, Note_off_c, 2, 52, 0
6, 62700, Note_on_c, 2, 55, 88
6, 62758, Note_off_c, 2, 55, 0
6, 62760, Note_on_c, 2, 50, 88
6, 62818, Note_off_c, 2, 50, 0
6, 62820, Note_on_c, 2, 55, 88
6, 62878, Note_off_c, 2, 55, 0
6, 62880, Note_on_c, 2, 48, 88
6, 62938, Note_off_c, 2, 48, 0
6, 62940, Note_on_c, 2, 55, 88
6, 62998, Note_off_c, 2, 55, 0
6, 63000, Note_on_c, 2, 47, 88
6, 63058, Note_off_c, 2, 47, 0
6, 63060, Note_on_c, 2, 55, 88
6, 63118, Note_off_c, 2, 55, 0
6, 63120, Note_on_c, 2, 45, 88
6, 63178, Note_off_c, 2, 45, 0
6, 63180, Note_on_c, 2, 48, 88
6, 63238, Note_off_c, 2, 48, 0
6, 63240, Note_on_c, 2, 52, 88
6, 63298, Note_off_c, 2, 52, 0
6, 63300, Note_on_c, 2, 55, 88
6, 63358, Note_off_c, 2, 55, 0
6, 63360, Note_on_c, 2, 54, 88
6, 63476, Note_off_c, 2, 54, 0
6, 63480, Note_on_c, 2, 57, 88
6, 63596, Note_off_c, 2, 57, 0
6, 63600, Note_on_c, 2, 50, 88
6, 63716, Note_off_c, 2, 50, 0
6, 63720, Note_on_c, 2, 52, 88
6, 63836, Note_off_c, 2, 52, 0
6, 63840, Note_on_c, 2, 54, 88
6, 63956, Note_off_c, 2, 54, 0
6, 63960, Note_on_c, 2, 50, 88
6, 64076, Note_off_c, 2, 50, 0
6, 64080, Note_on_c, 2, 55, 88
6, 64138, Note_off_c, 2, 55, 0
6, 64140, Note_on_c, 2, 67, 88
6, 64198, Note_off_c, 2, 67, 0
6, 64200, Note_on_c, 2, 65, 88
6, 64258, Note_off_c, 2, 65, 0
6, 64260, Note_on_c, 2, 67, 88
6, 64318, Note_off_c, 2, 67, 0
6, 64320, Note_on_c, 2, 64, 88
6, 64378, Note_off_c, 2, 64, 0
6, 64380, Note_on_c, 2, 67, 88
6, 64438, Note_off_c, 2, 67, 0
6, 64440, Note_on_c, 2, 62, 88
6, 64498, Note_off_c, 2, 62, 0
6, 64500, Note_on_c, 2, 67, 88
6, 64558, Note_off_c, 2, 67, 0
6, 64560, Note_on_c, 2, 60, 88
6, 64618, Note_off_c, 2, 60, 0
6, 64620, Note_on_c, 2, 67, 88
6, 64678, Note_off_c, 2, 67, 0
6, 64680, Note_on_c, 2, 59, 88
6, 64738, Note_off_c, 2, 59, 0
6, 64740, Note_on_c, 2, 67, 88
6, 64798, Note_off_c, 2, 67, 0
6, 64800, Note_on_c, 2, 60, 88
6, 64858, Note_off_c, 2, 60, 0
6, 64860, Note_on_c, 2, 64, 88
6, 64918, Note_off_c, 2, 64, 0
6, 64920, Note_on_c, 2, 62, 88
6, 64978, Note_off_c, 2, 62, 0
6, 64980, Note_on_c, 2, 64, 88
6, 65038, Note_off_c, 2, 64, 0
6, 65040, Note_on_c, 2, 57, 88
6, 65156, Note_off_c, 2, 57, 0
6, 65160, Note_on_c, 2, 59, 88
6, 65276, Note_off_c, 2, 59, 0
6, 65280, Note_on_c, 2, 60, 88
6, 65396, Note_off_c, 2, 60, 0
6, 65400, Note_on_c, 2, 57, 88
6, 65516, Note_off_c, 2, 57, 0
6, 65520, Note_on_c, 2, 62, 88
6, 65636, Note_off_c, 2, 62, 0
6, 65640, Note_on_c, 2, 57, 88
6, 65756, Note_off_c, 2, 57, 0
6, 65760, Note_on_c, 2, 54, 88
6, 65876, Note_off_c, 2, 54, 0
6, 65880, Note_on_c, 2, 57, 88
6, 65996, Note_off_c, 2, 57, 0
6, 66000, Note_on_c, 2, 50, 88
6, 66116, Note_off_c, 2, 50, 0
6, 66120, Note_on_c, 2, 54, 88
6, 66236, Note_off_c, 2, 54, 0
6, 66240, Note_on_c, 2, 47, 88
6, 66356, Note_off_c, 2, 47, 0
6, 66360, Note_on_c, 2, 50, 88
6, 66476, Note_off_c, 2, 50, 0
6, 66480, Note_on_c, 2, 43, 88
6, 66538, Note_off_c, 2, 43, 0
6, 66540, Note_on_c, 2, 45, 88
6, 66598, Note_off_c, 2, 45, 0
6, 66600, Note_on_c, 2, 47, 88
6, 66658, Note_off_c, 2, 47, 0
6, 66660, Note_on_c, 2, 48, 88
6, 66718, Note_off_c, 2, 48, 0
6, 66720, Note_on_c, 2, 50, 88
6, 66836, Note_off_c, 2, 50, 0
6, 66840, Note_on_c, 2, 38, 88
6, 66956, Note_off_c, 2, 38, 0
6, 66960, Note_on_c, 2, 40, 88
6, 67076, Note_off_c, 2, 40, 0
6, 67080, Note_on_c, 2, 55, 88
6, 67196, Note_off_c, 2, 55, 0
6, 67200, Note_on_c, 2, 58, 88
6, 67316, Note_off_c, 2, 58, 0
6, 67320, Note_on_c, 2, 50, 88
6, 67436, Note_off_c, 2, 50, 0
6, 67440, Note_on_c, 2, 49, 88
6, 67556, Note_off_c, 2, 49, 0
6, 67560, Note_on_c, 2, 45, 88
6, 67676, Note_off_c, 2, 45, 0
6, 67680, Note_on_c, 2, 50, 88
6, 67738, Note_off_c, 2, 50, 0
6, 67740, Note_on_c, 2, 54, 88
6, 67798, Note_off_c, 2, 54, 0
6, 67800, Note_on_c, 2, 57, 88
6, 67858, Note_off_c, 2, 57, 0
6, 67860, Note_on_c, 2, 60, 88
6, 67918, Note_off_c, 2, 60, 0
6, 67920, Note_on_c, 2, 59, 88
6, 68036, Note_off_c, 2, 59, 0
6, 68040, Note_on_c, 2, 55, 88
6, 68156, Note_off_c, 2, 55, 0
6, 68160, Note_on_c, 2, 62, 88
6, 68276, Note_off_c, 2, 62, 0
6, 68280, Note_on_c, 2, 50, 88
6, 68396, Note_off_c, 2, 50, 0
6, 68400, Note_on_c, 2, 55, 88
6, 68516, Note_off_c, 2, 55, 0
6, 68520, Note_on_c, 2, 43, 88
6, 68636, Note_off_c, 2, 43, 0
6, 68640, Note_on_c, 2, 47, 88
6, 68756, Note_off_c, 2, 47, 0
6, 68760, Note_on_c, 2, 50, 88
6, 68876, Note_off_c, 2, 50, 0
6, 68880, Note_on_c, 2, 55, 88
6, 68902, Note_off_c, 2, 55, 0
6, 68903, Note_on_c, 2, 54, 88
6, 68939, Note_off_c, 2, 54, 0
6, 68940, Note_on_c, 2, 55, 88
6, 69115, Note_off_c, 2, 55, 0
6, 69115, End_track
0, 0, End_of_file
