0, 0, Header, 1, 9, 240
1, 0, Start_track
1, 0, Time_signature, 4, 2, 24, 8
1, 0, Tempo, 1666666
1, 0, SMPTE_offset, 64, 0, 0, 0, 93
1, 0, End_track
2, 0, Start_track
2, 0, Title_t, "(C) & (P) 1993"
2, 127, End_track
3, 0, Start_track
3, 0, Title_t, "CCARH,Stanford"
3, 0, End_track
4, 0, Start_track
4, 0, Title_t, "Track 1"
4, 0, Program_c, 0, 6
4, 1050, Note_on_c, 0, 74, 88
4, 1079, Note_off_c, 0, 74, 0
4, 1080, Note_on_c, 0, 69, 88
4, 1167, Note_off_c, 0, 69, 0
4, 1170, Note_on_c, 0, 72, 88
4, 1199, Note_off_c, 0, 72, 0
4, 1200, Note_on_c, 0, 70, 88
4, 1521, Note_off_c, 0, 70, 0
4, 1530, Note_on_c, 0, 70, 88
4, 1551, Note_off_c, 0, 70, 0
4, 1560, Note_on_c, 0, 70, 88
4, 1567, Note_off_c, 0, 70, 0
4, 1568, Note_on_c, 0, 69, 88
4, 1578, Note_off_c, 0, 69, 0
4, 1579, Note_on_c, 0, 70, 88
4, 1590, Note_on_c, 0, 69, 88
4, 1590, Note_off_c, 0, 70, 0
4, 1648, Note_off_c, 0, 69, 0
4, 1650, Note_on_c, 0, 67, 88
4, 1679, Note_off_c, 0, 67, 0
4, 1680, Note_on_c, 0, 76, 88
4, 1767, Note_off_c, 0, 76, 0
4, 1770, Note_on_c, 0, 67, 88
4, 1791, Note_off_c, 0, 67, 0
4, 1800, Note_on_c, 0, 67, 88
4, 1807, Note_off_c, 0, 67, 0
4, 1808, Note_on_c, 0, 66, 88
4, 1818, Note_off_c, 0, 66, 0
4, 1819, Note_on_c, 0, 67, 88
4, 1830, Note_on_c, 0, 66, 88
4, 1830, Note_off_c, 0, 67, 0
4, 1888, Note_off_c, 0, 66, 0
4, 1890, Note_on_c, 0, 64, 88
4, 1919, Note_off_c, 0, 64, 0
4, 1920, Note_on_c, 0, 66, 88
4, 2007, Note_off_c, 0, 66, 0
4, 2010, Note_on_c, 0, 67, 88
4, 2039, Note_off_c, 0, 67, 0
4, 2040, Note_on_c, 0, 69, 88
4, 2245, Note_off_c, 0, 69, 0
4, 2250, Note_on_c, 0, 62, 88
4, 2279, Note_off_c, 0, 62, 0
4, 2280, Note_on_c, 0, 67, 88
4, 2367, Note_off_c, 0, 67, 0
4, 2370, Note_on_c, 0, 70, 88
4, 2399, Note_off_c, 0, 70, 0
4, 2400, Note_on_c, 0, 72, 88
4, 2723, Note_off_c, 0, 72, 0
4, 2730, Note_on_c, 0, 74, 88
4, 2759, Note_off_c, 0, 74, 0
4, 2760, Note_on_c, 0, 69, 88
4, 2847, Note_off_c, 0, 69, 0
4, 2850, Note_on_c, 0, 72, 88
4, 2879, Note_off_c, 0, 72, 0
4, 2880, Note_on_c, 0, 71, 88
4, 2967, Note_off_c, 0, 71, 0
4, 2970, Note_on_c, 0, 72, 88
4, 2999, Note_off_c, 0, 72, 0
4, 3000, Note_on_c, 0, 74, 88
4, 3205, Note_off_c, 0, 74, 0
4, 3210, Note_on_c, 0, 67, 88
4, 3239, Note_off_c, 0, 67, 0
4, 3240, Note_on_c, 0, 72, 88
4, 3327, Note_off_c, 0, 72, 0
4, 3330, Note_on_c, 0, 75, 88
4, 3359, Note_off_c, 0, 75, 0
4, 3360, Note_on_c, 0, 77, 88
4, 3683, Note_off_c, 0, 77, 0
4, 3690, Note_on_c, 0, 79, 88
4, 3719, Note_off_c, 0, 79, 0
4, 3720, Note_on_c, 0, 74, 88
4, 3807, Note_off_c, 0, 74, 0
4, 3810, Note_on_c, 0, 77, 88
4, 3839, Note_off_c, 0, 77, 0
4, 3840, Note_on_c, 0, 75, 88
4, 4074, Note_off_c, 0, 75, 0
4, 4890, Note_on_c, 0, 79, 88
4, 4919, Note_off_c, 0, 79, 0
4, 4920, Note_on_c, 0, 74, 88
4, 5007, Note_off_c, 0, 74, 0
4, 5010, Note_on_c, 0, 77, 88
4, 5039, Note_off_c, 0, 77, 0
4, 5040, Note_on_c, 0, 75, 88
4, 5361, Note_off_c, 0, 75, 0
4, 5370, Note_on_c, 0, 75, 88
4, 5399, Note_off_c, 0, 75, 0
4, 5400, Note_on_c, 0, 74, 88
4, 5487, Note_off_c, 0, 74, 0
4, 5490, Note_on_c, 0, 72, 88
4, 5519, Note_off_c, 0, 72, 0
4, 5520, Note_on_c, 0, 81, 88
4, 5847, Note_off_c, 0, 81, 0
4, 5850, Note_on_c, 0, 79, 88
4, 5879, Note_off_c, 0, 79, 0
4, 5880, Note_on_c, 0, 74, 88
4, 5967, Note_off_c, 0, 74, 0
4, 5970, Note_on_c, 0, 77, 88
4, 5999, Note_off_c, 0, 77, 0
4, 6000, Note_on_c, 0, 75, 88
4, 6116, Note_off_c, 0, 75, 0
4, 6120, Note_on_c, 0, 79, 88
4, 6236, Note_off_c, 0, 79, 0
4, 6240, Note_on_c, 0, 73, 88
4, 6474, Note_off_c, 0, 73, 0
4, 6480, Note_on_c, 0, 74, 88
4, 6714, Note_off_c, 0, 74, 0
4, 6720, Note_on_c, 0, 74, 88
4, 7281, Note_off_c, 0, 74, 0
4, 7290, Note_on_c, 0, 74, 88
4, 7319, Note_off_c, 0, 74, 0
4, 7320, Note_on_c, 0, 76, 88
4, 7407, Note_off_c, 0, 76, 0
4, 7410, Note_on_c, 0, 79, 88
4, 7439, Note_off_c, 0, 79, 0
4, 7440, Note_on_c, 0, 73, 88
4, 7527, Note_off_c, 0, 73, 0
4, 7530, Note_on_c, 0, 74, 88
4, 7559, Note_off_c, 0, 74, 0
4, 7560, Note_on_c, 0, 76, 88
4, 7767, Note_off_c, 0, 76, 0
4, 7770, Note_on_c, 0, 74, 88
4, 7799, Note_off_c, 0, 74, 0
4, 7800, Note_on_c, 0, 69, 88
4, 7887, Note_off_c, 0, 69, 0
4, 7890, Note_on_c, 0, 72, 88
4, 7919, Note_off_c, 0, 72, 0
4, 7920, Note_on_c, 0, 70, 88
4, 8241, Note_off_c, 0, 70, 0
4, 8250, Note_on_c, 0, 70, 88
4, 8279, Note_off_c, 0, 70, 0
4, 8280, Note_on_c, 0, 69, 88
4, 8367, Note_off_c, 0, 69, 0
4, 8370, Note_on_c, 0, 67, 88
4, 8399, Note_off_c, 0, 67, 0
4, 8400, Note_on_c, 0, 76, 88
4, 8487, Note_off_c, 0, 76, 0
4, 8490, Note_on_c, 0, 67, 88
4, 8519, Note_off_c, 0, 67, 0
4, 8520, Note_on_c, 0, 66, 88
4, 8607, Note_off_c, 0, 66, 0
4, 8610, Note_on_c, 0, 64, 88
4, 8639, Note_off_c, 0, 64, 0
4, 8640, Note_on_c, 0, 66, 88
4, 8727, Note_off_c, 0, 66, 0
4, 8730, Note_on_c, 0, 67, 88
4, 8759, Note_off_c, 0, 67, 0
4, 8760, Note_on_c, 0, 69, 88
4, 8965, Note_off_c, 0, 69, 0
4, 8970, Note_on_c, 0, 62, 88
4, 8999, Note_off_c, 0, 62, 0
4, 9000, Note_on_c, 0, 67, 88
4, 9087, Note_off_c, 0, 67, 0
4, 9090, Note_on_c, 0, 70, 88
4, 9119, Note_off_c, 0, 70, 0
4, 9120, Note_on_c, 0, 72, 88
4, 9443, Note_off_c, 0, 72, 0
4, 9450, Note_on_c, 0, 74, 88
4, 9479, Note_off_c, 0, 74, 0
4, 9480, Note_on_c, 0, 69, 88
4, 9567, Note_off_c, 0, 69, 0
4, 9570, Note_on_c, 0, 72, 88
4, 9599, Note_off_c, 0, 72, 0
4, 9600, Note_on_c, 0, 70, 88
4, 9921, Note_off_c, 0, 70, 0
4, 9930, Note_on_c, 0, 70, 88
4, 9959, Note_off_c, 0, 70, 0
4, 9960, Note_on_c, 0, 75, 88
4, 10047, Note_off_c, 0, 75, 0
4, 10050, Note_on_c, 0, 79, 88
4, 10079, Note_off_c, 0, 79, 0
4, 10080, Note_on_c, 0, 68, 88
4, 10647, Note_off_c, 0, 68, 0
4, 10650, Note_on_c, 0, 62, 88
4, 10679, Note_off_c, 0, 62, 0
4, 10680, Note_on_c, 0, 65, 88
4, 10767, Note_off_c, 0, 65, 0
4, 10770, Note_on_c, 0, 68, 88
4, 10799, Note_off_c, 0, 68, 0
4, 10800, Note_on_c, 0, 67, 88
4, 10971, Note_off_c, 0, 67, 0
4, 10980, Note_on_c, 0, 67, 88
4, 11038, Note_off_c, 0, 67, 0
4, 11040, Note_on_c, 0, 65, 88
4, 11361, Note_off_c, 0, 65, 0
4, 11370, Note_on_c, 0, 65, 88
4, 11399, Note_off_c, 0, 65, 0
4, 11400, Note_on_c, 0, 67, 88
4, 11487, Note_off_c, 0, 67, 0
4, 11490, Note_on_c, 0, 62, 88
4, 11519, Note_off_c, 0, 62, 0
4, 11520, Note_on_c, 0, 63, 88
4, 11843, Note_off_c, 0, 63, 0
4, 11850, Note_on_c, 0, 75, 88
4, 11879, Note_off_c, 0, 75, 0
4, 11880, Note_on_c, 0, 69, 88
4, 11967, Note_off_c, 0, 69, 0
4, 11970, Note_on_c, 0, 72, 88
4, 11999, Note_off_c, 0, 72, 0
4, 12000, Note_on_c, 0, 66, 88
4, 12087, Note_off_c, 0, 66, 0
4, 12090, Note_on_c, 0, 62, 88
4, 12119, Note_off_c, 0, 62, 0
4, 12120, Note_on_c, 0, 66, 88
4, 12207, Note_off_c, 0, 66, 0
4, 12210, Note_on_c, 0, 69, 88
4, 12239, Note_off_c, 0, 69, 0
4, 12240, Note_on_c, 0, 74, 88
4, 12803, Note_off_c, 0, 74, 0
4, 12810, Note_on_c, 0, 79, 88
4, 12839, Note_off_c, 0, 79, 0
4, 12840, Note_on_c, 0, 72, 88
4, 12927, Note_off_c, 0, 72, 0
4, 12930, Note_on_c, 0, 75, 88
4, 12959, Note_off_c, 0, 75, 0
4, 12960, Note_on_c, 0, 69, 88
4, 13047, Note_off_c, 0, 69, 0
4, 13050, Note_on_c, 0, 65, 88
4, 13079, Note_off_c, 0, 65, 0
4, 13080, Note_on_c, 0, 69, 88
4, 13167, Note_off_c, 0, 69, 0
4, 13170, Note_on_c, 0, 72, 88
4, 13199, Note_off_c, 0, 72, 0
4, 13200, Note_on_c, 0, 77, 88
4, 13527, Note_off_c, 0, 77, 0
4, 13530, Note_on_c, 0, 82, 88
4, 13559, Note_off_c, 0, 82, 0
4, 13560, Note_on_c, 0, 79, 88
4, 13647, Note_off_c, 0, 79, 0
4, 13650, Note_on_c, 0, 74, 88
4, 13679, Note_off_c, 0, 74, 0
4, 13680, Note_on_c, 0, 77, 88
4, 13695, Note_on_c, 0, 76, 88
4, 13695, Note_off_c, 0, 77, 0
4, 13710, Note_off_c, 0, 76, 0
4, 13710, Note_on_c, 0, 77, 88
4, 13725, Note_on_c, 0, 76, 88
4, 13725, Note_off_c, 0, 77, 0
4, 13740, Note_off_c, 0, 76, 0
4, 13740, Note_on_c, 0, 77, 88
4, 13755, Note_on_c, 0, 76, 88
4, 13755, Note_off_c, 0, 77, 0
4, 13766, Note_off_c, 0, 76, 0
4, 13766, Note_on_c, 0, 77, 88
4, 13777, Note_off_c, 0, 77, 0
4, 13778, Note_on_c, 0, 76, 88
4, 13788, Note_off_c, 0, 76, 0
4, 13789, Note_on_c, 0, 77, 88
4, 13800, Note_on_c, 0, 76, 88
4, 13800, Note_off_c, 0, 77, 0
4, 13851, Note_off_c, 0, 76, 0
4, 13860, Note_on_c, 0, 76, 88
4, 13918, Note_off_c, 0, 76, 0
4, 13920, Note_on_c, 0, 77, 88
4, 14243, Note_off_c, 0, 77, 0
4, 14250, Note_on_c, 0, 75, 88
4, 14279, Note_off_c, 0, 75, 0
4, 14280, Note_on_c, 0, 74, 88
4, 14367, Note_off_c, 0, 74, 0
4, 14370, Note_on_c, 0, 77, 88
4, 14399, Note_off_c, 0, 77, 0
4, 14400, Note_on_c, 0, 71, 88
4, 14634, Note_off_c, 0, 71, 0
4, 14640, Note_on_c, 0, 72, 88
4, 14963, Note_off_c, 0, 72, 0
4, 14970, Note_on_c, 0, 74, 88
4, 14999, Note_off_c, 0, 74, 0
4, 15000, Note_on_c, 0, 75, 88
4, 15087, Note_off_c, 0, 75, 0
4, 15090, Note_on_c, 0, 70, 88
4, 15119, Note_off_c, 0, 70, 0
4, 15120, Note_on_c, 0, 72, 88
4, 15441, Note_off_c, 0, 72, 0
4, 15450, Note_on_c, 0, 72, 88
4, 15479, Note_off_c, 0, 72, 0
4, 15480, Note_on_c, 0, 74, 88
4, 15567, Note_off_c, 0, 74, 0
4, 15570, Note_on_c, 0, 69, 88
4, 15599, Note_off_c, 0, 69, 0
4, 15600, Note_on_c, 0, 70, 88
4, 15923, Note_off_c, 0, 70, 0
4, 15930, Note_on_c, 0, 75, 88
4, 15959, Note_off_c, 0, 75, 0
4, 15960, Note_on_c, 0, 67, 88
4, 16047, Note_off_c, 0, 67, 0
4, 16050, Note_on_c, 0, 70, 88
4, 16079, Note_off_c, 0, 70, 0
4, 16080, Note_on_c, 0, 68, 88
4, 16196, Note_off_c, 0, 68, 0
4, 16200, Note_on_c, 0, 72, 88
4, 16316, Note_off_c, 0, 72, 0
4, 16320, Note_on_c, 0, 66, 88
4, 16338, Note_off_c, 0, 66, 0
4, 16339, Note_on_c, 0, 64, 88
4, 16361, Note_off_c, 0, 64, 0
4, 16361, Note_on_c, 0, 66, 88
4, 16555, Note_off_c, 0, 66, 0
4, 16560, Note_on_c, 0, 67, 88
4, 16883, Note_off_c, 0, 67, 0
4, 16890, Note_on_c, 0, 66, 88
4, 16919, Note_off_c, 0, 66, 0
4, 16920, Note_on_c, 0, 67, 88
4, 17007, Note_off_c, 0, 67, 0
4, 17010, Note_on_c, 0, 70, 88
4, 17121, Note_off_c, 0, 70, 0
4, 17130, Note_on_c, 0, 70, 88
4, 17159, Note_off_c, 0, 70, 0
4, 17160, Note_on_c, 0, 69, 88
4, 17247, Note_off_c, 0, 69, 0
4, 17250, Note_on_c, 0, 67, 88
4, 17279, Note_off_c, 0, 67, 0
4, 17280, Note_on_c, 0, 66, 88
4, 17451, Note_off_c, 0, 66, 0
4, 17460, Note_on_c, 0, 66, 88
4, 17518, Note_off_c, 0, 66, 0
4, 17520, Note_on_c, 0, 67, 88
4, 17843, Note_off_c, 0, 67, 0
4, 17850, Note_on_c, 0, 70, 88
4, 17879, Note_off_c, 0, 70, 0
4, 17880, Note_on_c, 0, 69, 88
4, 17967, Note_off_c, 0, 69, 0
4, 17970, Note_on_c, 0, 72, 88
4, 17999, Note_off_c, 0, 72, 0
4, 18000, Note_on_c, 0, 67, 88
4, 18036, Note_off_c, 0, 67, 0
4, 18038, Note_on_c, 0, 66, 88
4, 18052, Note_off_c, 0, 66, 0
4, 18053, Note_on_c, 0, 67, 88
4, 18067, Note_off_c, 0, 67, 0
4, 18068, Note_on_c, 0, 66, 88
4, 18082, Note_off_c, 0, 66, 0
4, 18083, Note_on_c, 0, 67, 88
4, 18097, Note_off_c, 0, 67, 0
4, 18098, Note_on_c, 0, 66, 88
4, 18108, Note_off_c, 0, 66, 0
4, 18109, Note_on_c, 0, 67, 88
4, 18120, Note_on_c, 0, 66, 88
4, 18120, Note_off_c, 0, 67, 0
4, 18236, Note_off_c, 0, 66, 0
4, 18240, Note_on_c, 0, 67, 88
4, 18415, Note_off_c, 0, 67, 0
4, 18420, Note_on_c, 0, 65, 88
4, 18478, Note_off_c, 0, 65, 0
4, 18480, Note_on_c, 0, 63, 88
4, 18651, Note_off_c, 0, 63, 0
4, 18660, Note_on_c, 0, 63, 88
4, 18718, Note_off_c, 0, 63, 0
4, 18720, Note_on_c, 0, 62, 88
4, 18836, Note_off_c, 0, 62, 0
4, 18900, Note_on_c, 0, 67, 88
4, 18958, Note_off_c, 0, 67, 0
4, 18960, Note_on_c, 0, 77, 88
4, 19135, Note_off_c, 0, 77, 0
4, 19140, Note_on_c, 0, 74, 88
4, 19198, Note_off_c, 0, 74, 0
4, 19200, Note_on_c, 0, 75, 88
4, 19375, Note_off_c, 0, 75, 0
4, 19380, Note_on_c, 0, 74, 88
4, 19438, Note_off_c, 0, 74, 0
4, 19440, Note_on_c, 0, 75, 88
4, 19527, Note_off_c, 0, 75, 0
4, 19530, Note_on_c, 0, 72, 88
4, 19559, Note_off_c, 0, 72, 0
4, 19560, Note_on_c, 0, 79, 88
4, 19647, Note_off_c, 0, 79, 0
4, 19650, Note_on_c, 0, 78, 88
4, 19679, Note_off_c, 0, 78, 0
4, 19680, Note_on_c, 0, 79, 88
4, 20150, Note_off_c, 0, 79, 0
4, 20150, End_track
5, 0, Start_track
5, 0, Title_t, "Track 2"
5, 0, Program_c, 1, 6
5, 4560, Note_on_c, 1, 74, 88
5, 4916, Note_off_c, 1, 74, 0
5, 4920, Note_on_c, 1, 71, 88
5, 5036, Note_off_c, 1, 71, 0
5, 5040, Note_on_c, 1, 72, 88
5, 5601, Note_off_c, 1, 72, 0
5, 5610, Note_on_c, 1, 72, 88
5, 5631, Note_off_c, 1, 72, 0
5, 5640, Note_on_c, 1, 72, 88
5, 5647, Note_off_c, 1, 72, 0
5, 5648, Note_on_c, 1, 70, 88
5, 5658, Note_off_c, 1, 70, 0
5, 5659, Note_on_c, 1, 72, 88
5, 5670, Note_on_c, 1, 70, 88
5, 5670, Note_off_c, 1, 72, 0
5, 5728, Note_off_c, 1, 70, 0
5, 5730, Note_on_c, 1, 69, 88
5, 5759, Note_off_c, 1, 69, 0
5, 5760, Note_on_c, 1, 70, 88
5, 6230, Note_off_c, 1, 70, 0
5, 6240, Note_on_c, 1, 69, 88
5, 6807, Note_off_c, 1, 69, 0
5, 6810, Note_on_c, 1, 64, 88
5, 6839, Note_off_c, 1, 64, 0
5, 6840, Note_on_c, 1, 65, 88
5, 6927, Note_off_c, 1, 65, 0
5, 6930, Note_on_c, 1, 62, 88
5, 6959, Note_off_c, 1, 62, 0
5, 6960, Note_on_c, 1, 69, 88
5, 6975, Note_on_c, 1, 68, 88
5, 6975, Note_off_c, 1, 69, 0
5, 6990, Note_off_c, 1, 68, 0
5, 6990, Note_on_c, 1, 69, 88
5, 7005, Note_on_c, 1, 68, 88
5, 7005, Note_off_c, 1, 69, 0
5, 7020, Note_off_c, 1, 68, 0
5, 7020, Note_on_c, 1, 69, 88
5, 7035, Note_on_c, 1, 68, 88
5, 7035, Note_off_c, 1, 69, 0
5, 7046, Note_off_c, 1, 68, 0
5, 7046, Note_on_c, 1, 69, 88
5, 7057, Note_off_c, 1, 69, 0
5, 7058, Note_on_c, 1, 68, 88
5, 7068, Note_off_c, 1, 68, 0
5, 7069, Note_on_c, 1, 69, 88
5, 7080, Note_on_c, 1, 68, 88
5, 7080, Note_off_c, 1, 69, 0
5, 7131, Note_off_c, 1, 68, 0
5, 7140, Note_on_c, 1, 68, 88
5, 7198, Note_off_c, 1, 68, 0
5, 7200, Note_on_c, 1, 69, 88
5, 7316, Note_off_c, 1, 69, 0
5, 7320, Note_on_c, 1, 70, 88
5, 7525, Note_off_c, 1, 70, 0
5, 7530, Note_on_c, 1, 69, 88
5, 7559, Note_off_c, 1, 69, 0
5, 7560, Note_on_c, 1, 64, 88
5, 7647, Note_off_c, 1, 64, 0
5, 7650, Note_on_c, 1, 67, 88
5, 7679, Note_off_c, 1, 67, 0
5, 7680, Note_on_c, 1, 65, 88
5, 7914, Note_off_c, 1, 65, 0
5, 8010, Note_on_c, 1, 65, 88
5, 8039, Note_off_c, 1, 65, 0
5, 8040, Note_on_c, 1, 64, 88
5, 8127, Note_off_c, 1, 64, 0
5, 8130, Note_on_c, 1, 67, 88
5, 8159, Note_off_c, 1, 67, 0
5, 8160, Note_on_c, 1, 61, 88
5, 8630, Note_off_c, 1, 61, 0
5, 8640, Note_on_c, 1, 62, 88
5, 8874, Note_off_c, 1, 62, 0
5, 9000, Note_on_c, 1, 67, 88
5, 9201, Note_off_c, 1, 67, 0
5, 9210, Note_on_c, 1, 67, 88
5, 9239, Note_off_c, 1, 67, 0
5, 9240, Note_on_c, 1, 66, 88
5, 9327, Note_off_c, 1, 66, 0
5, 9330, Note_on_c, 1, 64, 88
5, 9359, Note_off_c, 1, 64, 0
5, 9360, Note_on_c, 1, 66, 88
5, 9594, Note_off_c, 1, 66, 0
5, 19800, Note_on_c, 1, 74, 88
5, 20153, Note_off_c, 1, 74, 0
5, 20153, End_track
6, 0, Start_track
6, 0, Title_t, "Track 3"
6, 0, Program_c, 2, 6
6, 2280, Note_on_c, 2, 67, 88
6, 2481, Note_off_c, 2, 67, 0
6, 2490, Note_on_c, 2, 67, 88
6, 2519, Note_off_c, 2, 67, 0
6, 2520, Note_on_c, 2, 66, 88
6, 2607, Note_off_c, 2, 66, 0
6, 2610, Note_on_c, 2, 64, 88
6, 2639, Note_off_c, 2, 64, 0
6, 2640, Note_on_c, 2, 66, 88
6, 2874, Note_off_c, 2, 66, 0
6, 2880, Note_on_c, 2, 67, 88
6, 3114, Note_off_c, 2, 67, 0
6, 3240, Note_on_c, 2, 72, 88
6, 3441, Note_off_c, 2, 72, 0
6, 3450, Note_on_c, 2, 72, 88
6, 3479, Note_off_c, 2, 72, 0
6, 3480, Note_on_c, 2, 71, 88
6, 3567, Note_off_c, 2, 71, 0
6, 3570, Note_on_c, 2, 69, 88
6, 3599, Note_off_c, 2, 69, 0
6, 3600, Note_on_c, 2, 71, 88
6, 3834, Note_off_c, 2, 71, 0
6, 3930, Note_on_c, 2, 72, 88
6, 3959, Note_off_c, 2, 72, 0
6, 3960, Note_on_c, 2, 67, 88
6, 4047, Note_off_c, 2, 67, 0
6, 4050, Note_on_c, 2, 70, 88
6, 4079, Note_off_c, 2, 70, 0
6, 4080, Note_on_c, 2, 68, 88
6, 4401, Note_off_c, 2, 68, 0
6, 4410, Note_on_c, 2, 68, 88
6, 4439, Note_off_c, 2, 68, 0
6, 4440, Note_on_c, 2, 67, 88
6, 4527, Note_off_c, 2, 67, 0
6, 4530, Note_on_c, 2, 65, 88
6, 4559, Note_off_c, 2, 65, 0
6, 4560, Note_on_c, 2, 74, 88
6, 4647, Note_off_c, 2, 74, 0
6, 4650, Note_on_c, 2, 65, 88
6, 4679, Note_off_c, 2, 65, 0
6, 4680, Note_on_c, 2, 63, 88
6, 4767, Note_off_c, 2, 63, 0
6, 4770, Note_on_c, 2, 62, 88
6, 4799, Note_off_c, 2, 62, 0
6, 4800, Note_on_c, 2, 63, 88
6, 4916, Note_off_c, 2, 63, 0
6, 4920, Note_on_c, 2, 65, 88
6, 5036, Note_off_c, 2, 65, 0
6, 5040, Note_on_c, 2, 67, 88
6, 5156, Note_off_c, 2, 67, 0
6, 5160, Note_on_c, 2, 66, 88
6, 5247, Note_off_c, 2, 66, 0
6, 5250, Note_on_c, 2, 67, 88
6, 5279, Note_off_c, 2, 67, 0
6, 5280, Note_on_c, 2, 69, 88
6, 5396, Note_off_c, 2, 69, 0
6, 5400, Note_on_c, 2, 57, 88
6, 5634, Note_off_c, 2, 57, 0
6, 5640, Note_on_c, 2, 62, 88
6, 5876, Note_off_c, 2, 62, 0
6, 5880, Note_on_c, 2, 67, 88
6, 6081, Note_off_c, 2, 67, 0
6, 6090, Note_on_c, 2, 67, 88
6, 6119, Note_off_c, 2, 67, 0
6, 6120, Note_on_c, 2, 62, 88
6, 6207, Note_off_c, 2, 62, 0
6, 6210, Note_on_c, 2, 65, 88
6, 6239, Note_off_c, 2, 65, 0
6, 6240, Note_on_c, 2, 64, 88
6, 6474, Note_off_c, 2, 64, 0
6, 6480, Note_on_c, 2, 65, 88
6, 6836, Note_off_c, 2, 65, 0
6, 12330, Note_on_c, 2, 69, 88
6, 12359, Note_off_c, 2, 69, 0
6, 12360, Note_on_c, 2, 70, 88
6, 12447, Note_off_c, 2, 70, 0
6, 12450, Note_on_c, 2, 66, 88
6, 12479, Note_off_c, 2, 66, 0
6, 12480, Note_on_c, 2, 67, 88
6, 12950, Note_off_c, 2, 67, 0
6, 12960, Note_on_c, 2, 65, 88
6, 13018, Note_off_c, 2, 65, 0
6, 13290, Note_on_c, 2, 65, 88
6, 13319, Note_off_c, 2, 65, 0
6, 13320, Note_on_c, 2, 67, 88
6, 13407, Note_off_c, 2, 67, 0
6, 13410, Note_on_c, 2, 69, 88
6, 13439, Note_off_c, 2, 69, 0
6, 13440, Note_on_c, 2, 70, 88
6, 14001, Note_off_c, 2, 70, 0
6, 14010, Note_on_c, 2, 70, 88
6, 14039, Note_off_c, 2, 70, 0
6, 14040, Note_on_c, 2, 68, 88
6, 14127, Note_off_c, 2, 68, 0
6, 14130, Note_on_c, 2, 67, 88
6, 14159, Note_off_c, 2, 67, 0
6, 14160, Note_on_c, 2, 68, 88
6, 14394, Note_off_c, 2, 68, 0
6, 14400, Note_on_c, 2, 67, 88
6, 14990, Note_off_c, 2, 67, 0
6, 15210, Note_on_c, 2, 67, 88
6, 15239, Note_off_c, 2, 67, 0
6, 15240, Note_on_c, 2, 66, 88
6, 15327, Note_off_c, 2, 66, 0
6, 15330, Note_on_c, 2, 69, 88
6, 15359, Note_off_c, 2, 69, 0
6, 15360, Note_on_c, 2, 62, 88
6, 15683, Note_off_c, 2, 62, 0
6, 15690, Note_on_c, 2, 66, 88
6, 15719, Note_off_c, 2, 66, 0
6, 15720, Note_on_c, 2, 67, 88
6, 15807, Note_off_c, 2, 67, 0
6, 15810, Note_on_c, 2, 62, 88
6, 15839, Note_off_c, 2, 62, 0
6, 15840, Note_on_c, 2, 63, 88
6, 16310, Note_off_c, 2, 63, 0
6, 16320, Note_on_c, 2, 62, 88
6, 17028, Note_off_c, 2, 62, 0
6, 17040, Note_on_c, 2, 61, 88
6, 17274, Note_off_c, 2, 61, 0
6, 17280, Note_on_c, 2, 62, 88
6, 17367, Note_off_c, 2, 62, 0
6, 17370, Note_on_c, 2, 61, 88
6, 17399, Note_off_c, 2, 61, 0
6, 17400, Note_on_c, 2, 62, 88
6, 17605, Note_off_c, 2, 62, 0
6, 17610, Note_on_c, 2, 61, 88
6, 17639, Note_off_c, 2, 61, 0
6, 17640, Note_on_c, 2, 62, 88
6, 17874, Note_off_c, 2, 62, 0
6, 17880, Note_on_c, 2, 60, 88
6, 18085, Note_off_c, 2, 60, 0
6, 18090, Note_on_c, 2, 63, 88
6, 18119, Note_off_c, 2, 63, 0
6, 18120, Note_on_c, 2, 62, 88
6, 18207, Note_off_c, 2, 62, 0
6, 18210, Note_on_c, 2, 60, 88
6, 18327, Note_off_c, 2, 60, 0
6, 18330, Note_on_c, 2, 57, 88
6, 18359, Note_off_c, 2, 57, 0
6, 18360, Note_on_c, 2, 59, 88
6, 18561, Note_off_c, 2, 59, 0
6, 18570, Note_on_c, 2, 59, 88
6, 18599, Note_off_c, 2, 59, 0
6, 18600, Note_on_c, 2, 60, 88
6, 18801, Note_off_c, 2, 60, 0
6, 18810, Note_on_c, 2, 60, 88
6, 18839, Note_off_c, 2, 60, 0
6, 18840, Note_on_c, 2, 59, 88
6, 18956, Note_off_c, 2, 59, 0
6, 19050, Note_on_c, 2, 72, 88
6, 19079, Note_off_c, 2, 72, 0
6, 19080, Note_on_c, 2, 71, 88
6, 19287, Note_off_c, 2, 71, 0
6, 19290, Note_on_c, 2, 67, 88
6, 19319, Note_off_c, 2, 67, 0
6, 19320, Note_on_c, 2, 72, 88
6, 19521, Note_off_c, 2, 72, 0
6, 19530, Note_on_c, 2, 72, 88
6, 19551, Note_off_c, 2, 72, 0
6, 19560, Note_on_c, 2, 72, 88
6, 19761, Note_off_c, 2, 72, 0
6, 19770, Note_on_c, 2, 72, 88
6, 19799, Note_off_c, 2, 72, 0
6, 19800, Note_on_c, 2, 74, 88
6, 19887, Note_off_c, 2, 74, 0
6, 19890, Note_on_c, 2, 69, 88
6, 19919, Note_off_c, 2, 69, 0
6, 19920, Note_on_c, 2, 71, 88
6, 20154, Note_off_c, 2, 71, 0
6, 20154, End_track
7, 0, Start_track
7, 0, Title_t, "Track 4"
7, 0, Program_c, 3, 6
7, 90, Note_on_c, 3, 67, 88
7, 119, Note_off_c, 3, 67, 0
7, 120, Note_on_c, 3, 62, 88
7, 207, Note_off_c, 3, 62, 0
7, 210, Note_on_c, 3, 65, 88
7, 239, Note_off_c, 3, 65, 0
7, 240, Note_on_c, 3, 63, 88
7, 561, Note_off_c, 3, 63, 0
7, 570, Note_on_c, 3, 63, 88
7, 591, Note_off_c, 3, 63, 0
7, 600, Note_on_c, 3, 63, 88
7, 609, Note_on_c, 3, 62, 88
7, 609, Note_off_c, 3, 63, 0
7, 620, Note_off_c, 3, 62, 0
7, 621, Note_on_c, 3, 63, 88
7, 630, Note_on_c, 3, 62, 88
7, 630, Note_off_c, 3, 63, 0
7, 688, Note_off_c, 3, 62, 0
7, 690, Note_on_c, 3, 60, 88
7, 719, Note_off_c, 3, 60, 0
7, 720, Note_on_c, 3, 69, 88
7, 807, Note_off_c, 3, 69, 0
7, 810, Note_on_c, 3, 60, 88
7, 831, Note_off_c, 3, 60, 0
7, 840, Note_on_c, 3, 60, 88
7, 849, Note_on_c, 3, 58, 88
7, 849, Note_off_c, 3, 60, 0
7, 860, Note_off_c, 3, 58, 0
7, 861, Note_on_c, 3, 60, 88
7, 870, Note_on_c, 3, 58, 88
7, 870, Note_off_c, 3, 60, 0
7, 928, Note_off_c, 3, 58, 0
7, 930, Note_on_c, 3, 57, 88
7, 959, Note_off_c, 3, 57, 0
7, 960, Note_on_c, 3, 58, 88
7, 1076, Note_off_c, 3, 58, 0
7, 1080, Note_on_c, 3, 60, 88
7, 1196, Note_off_c, 3, 60, 0
7, 1200, Note_on_c, 3, 62, 88
7, 1287, Note_off_c, 3, 62, 0
7, 1290, Note_on_c, 3, 65, 88
7, 1319, Note_off_c, 3, 65, 0
7, 1320, Note_on_c, 3, 64, 88
7, 1407, Note_off_c, 3, 64, 0
7, 1410, Note_on_c, 3, 67, 88
7, 1439, Note_off_c, 3, 67, 0
7, 1440, Note_on_c, 3, 61, 88
7, 1910, Note_off_c, 3, 61, 0
7, 1920, Note_on_c, 3, 62, 88
7, 2095, Note_off_c, 3, 62, 0
7, 2100, Note_on_c, 3, 60, 88
7, 2158, Note_off_c, 3, 60, 0
7, 2160, Note_on_c, 3, 58, 88
7, 2394, Note_off_c, 3, 58, 0
7, 2400, Note_on_c, 3, 57, 88
7, 2753, Note_off_c, 3, 57, 0
7, 2760, Note_on_c, 3, 62, 88
7, 3055, Note_off_c, 3, 62, 0
7, 3060, Note_on_c, 3, 59, 88
7, 3118, Note_off_c, 3, 59, 0
7, 3120, Note_on_c, 3, 55, 88
7, 3236, Note_off_c, 3, 55, 0
7, 3240, Note_on_c, 3, 63, 88
7, 3356, Note_off_c, 3, 63, 0
7, 3360, Note_on_c, 3, 56, 88
7, 3476, Note_off_c, 3, 56, 0
7, 3480, Note_on_c, 3, 53, 88
7, 3596, Note_off_c, 3, 53, 0
7, 3600, Note_on_c, 3, 55, 88
7, 4074, Note_off_c, 3, 55, 0
7, 9690, Note_on_c, 3, 67, 88
7, 9719, Note_off_c, 3, 67, 0
7, 9720, Note_on_c, 3, 62, 88
7, 9807, Note_off_c, 3, 62, 0
7, 9810, Note_on_c, 3, 65, 88
7, 9839, Note_off_c, 3, 65, 0
7, 9840, Note_on_c, 3, 63, 88
7, 9956, Note_off_c, 3, 63, 0
7, 9960, Note_on_c, 3, 58, 88
7, 10076, Note_off_c, 3, 58, 0
7, 10080, Note_on_c, 3, 60, 88
7, 10167, Note_off_c, 3, 60, 0
7, 10170, Note_on_c, 3, 62, 88
7, 10199, Note_off_c, 3, 62, 0
7, 10200, Note_on_c, 3, 63, 88
7, 10287, Note_off_c, 3, 63, 0
7, 10290, Note_on_c, 3, 60, 88
7, 10319, Note_off_c, 3, 60, 0
7, 10320, Note_on_c, 3, 67, 88
7, 10333, Note_on_c, 3, 65, 88
7, 10333, Note_off_c, 3, 67, 0
7, 10348, Note_off_c, 3, 65, 0
7, 10348, Note_on_c, 3, 67, 88
7, 10363, Note_on_c, 3, 65, 88
7, 10363, Note_off_c, 3, 67, 0
7, 10376, Note_off_c, 3, 65, 0
7, 10376, Note_on_c, 3, 67, 88
7, 10389, Note_on_c, 3, 65, 88
7, 10389, Note_off_c, 3, 67, 0
7, 10402, Note_off_c, 3, 65, 0
7, 10403, Note_on_c, 3, 67, 88
7, 10415, Note_off_c, 3, 67, 0
7, 10416, Note_on_c, 3, 65, 88
7, 10428, Note_off_c, 3, 65, 0
7, 10429, Note_on_c, 3, 67, 88
7, 10441, Note_off_c, 3, 67, 0
7, 10442, Note_on_c, 3, 65, 88
7, 10491, Note_off_c, 3, 65, 0
7, 10500, Note_on_c, 3, 65, 88
7, 10558, Note_off_c, 3, 65, 0
7, 10560, Note_on_c, 3, 58, 88
7, 10881, Note_off_c, 3, 58, 0
7, 10890, Note_on_c, 3, 58, 88
7, 10919, Note_off_c, 3, 58, 0
7, 10920, Note_on_c, 3, 63, 88
7, 11121, Note_off_c, 3, 63, 0
7, 11130, Note_on_c, 3, 63, 88
7, 11159, Note_off_c, 3, 63, 0
7, 11160, Note_on_c, 3, 62, 88
7, 11247, Note_off_c, 3, 62, 0
7, 11250, Note_on_c, 3, 60, 88
7, 11279, Note_off_c, 3, 60, 0
7, 11280, Note_on_c, 3, 62, 88
7, 11607, Note_off_c, 3, 62, 0
7, 11610, Note_on_c, 3, 59, 88
7, 11639, Note_off_c, 3, 59, 0
7, 11640, Note_on_c, 3, 60, 88
7, 11727, Note_off_c, 3, 60, 0
7, 11730, Note_on_c, 3, 55, 88
7, 11759, Note_off_c, 3, 55, 0
7, 11760, Note_on_c, 3, 51, 88
7, 11847, Note_off_c, 3, 51, 0
7, 11850, Note_on_c, 3, 55, 88
7, 11879, Note_off_c, 3, 55, 0
7, 11880, Note_on_c, 3, 48, 88
7, 11967, Note_off_c, 3, 48, 0
7, 11970, Note_on_c, 3, 51, 88
7, 11999, Note_off_c, 3, 51, 0
7, 12000, Note_on_c, 3, 50, 88
7, 12087, Note_off_c, 3, 50, 0
7, 12090, Note_on_c, 3, 54, 88
7, 12119, Note_off_c, 3, 54, 0
7, 12120, Note_on_c, 3, 57, 88
7, 12325, Note_off_c, 3, 57, 0
7, 12330, Note_on_c, 3, 54, 88
7, 12359, Note_off_c, 3, 54, 0
7, 12360, Note_on_c, 3, 55, 88
7, 12447, Note_off_c, 3, 55, 0
7, 12450, Note_on_c, 3, 57, 88
7, 12479, Note_off_c, 3, 57, 0
7, 12480, Note_on_c, 3, 58, 88
7, 12801, Note_off_c, 3, 58, 0
7, 12810, Note_on_c, 3, 58, 88
7, 12839, Note_off_c, 3, 58, 0
7, 12840, Note_on_c, 3, 57, 88
7, 12927, Note_off_c, 3, 57, 0
7, 12930, Note_on_c, 3, 58, 88
7, 12959, Note_off_c, 3, 58, 0
7, 12960, Note_on_c, 3, 60, 88
7, 13047, Note_off_c, 3, 60, 0
7, 13050, Note_on_c, 3, 57, 88
7, 13079, Note_off_c, 3, 57, 0
7, 13080, Note_on_c, 3, 53, 88
7, 13167, Note_off_c, 3, 53, 0
7, 13170, Note_on_c, 3, 57, 88
7, 13199, Note_off_c, 3, 57, 0
7, 13200, Note_on_c, 3, 62, 88
7, 13763, Note_off_c, 3, 62, 0
7, 13770, Note_on_c, 3, 61, 88
7, 13799, Note_off_c, 3, 61, 0
7, 13800, Note_on_c, 3, 60, 88
7, 13887, Note_off_c, 3, 60, 0
7, 13890, Note_on_c, 3, 58, 88
7, 13919, Note_off_c, 3, 58, 0
7, 13920, Note_on_c, 3, 60, 88
7, 14241, Note_off_c, 3, 60, 0
7, 14250, Note_on_c, 3, 60, 88
7, 14279, Note_off_c, 3, 60, 0
7, 14280, Note_on_c, 3, 65, 88
7, 14367, Note_off_c, 3, 65, 0
7, 14370, Note_on_c, 3, 63, 88
7, 14399, Note_off_c, 3, 63, 0
7, 14400, Note_on_c, 3, 62, 88
7, 14634, Note_off_c, 3, 62, 0
7, 14640, Note_on_c, 3, 63, 88
7, 14993, Note_off_c, 3, 63, 0
7, 15000, Note_on_c, 3, 55, 88
7, 15116, Note_off_c, 3, 55, 0
7, 15120, Note_on_c, 3, 54, 88
7, 15236, Note_off_c, 3, 54, 0
7, 15240, Note_on_c, 3, 57, 88
7, 15476, Note_off_c, 3, 57, 0
7, 15480, Note_on_c, 3, 55, 88
7, 15567, Note_off_c, 3, 55, 0
7, 15570, Note_on_c, 3, 54, 88
7, 15599, Note_off_c, 3, 54, 0
7, 15600, Note_on_c, 3, 55, 88
7, 15953, Note_off_c, 3, 55, 0
7, 15960, Note_on_c, 3, 60, 88
7, 16161, Note_off_c, 3, 60, 0
7, 16170, Note_on_c, 3, 60, 88
7, 16199, Note_off_c, 3, 60, 0
7, 16200, Note_on_c, 3, 55, 88
7, 16287, Note_off_c, 3, 55, 0
7, 16290, Note_on_c, 3, 58, 88
7, 16319, Note_off_c, 3, 58, 0
7, 16320, Note_on_c, 3, 57, 88
7, 16554, Note_off_c, 3, 57, 0
7, 16560, Note_on_c, 3, 58, 88
7, 16794, Note_off_c, 3, 58, 0
7, 16794, End_track
8, 0, Start_track
8, 0, Title_t, "Track 5"
8, 0, Program_c, 4, 6
8, 330, Note_on_c, 4, 58, 88
8, 359, Note_off_c, 4, 58, 0
8, 360, Note_on_c, 4, 57, 88
8, 447, Note_off_c, 4, 57, 0
8, 450, Note_on_c, 4, 60, 88
8, 479, Note_off_c, 4, 60, 0
8, 480, Note_on_c, 4, 54, 88
8, 950, Note_off_c, 4, 54, 0
8, 960, Note_on_c, 4, 55, 88
8, 1905, Note_off_c, 4, 55, 0
8, 1920, Note_on_c, 4, 50, 88
8, 2806, Note_off_c, 4, 50, 0
8, 2820, Note_on_c, 4, 51, 88
8, 2878, Note_off_c, 4, 51, 0
8, 2880, Note_on_c, 4, 53, 88
8, 3114, Note_off_c, 4, 53, 0
8, 3120, Note_on_c, 4, 51, 88
8, 3354, Note_off_c, 4, 51, 0
8, 3360, Note_on_c, 4, 50, 88
8, 3594, Note_off_c, 4, 50, 0
8, 3600, Note_on_c, 4, 55, 88
8, 3716, Note_off_c, 4, 55, 0
8, 3720, Note_on_c, 4, 43, 88
8, 3836, Note_off_c, 4, 43, 0
8, 3840, Note_on_c, 4, 48, 88
8, 4785, Note_off_c, 4, 48, 0
8, 7050, Note_on_c, 4, 49, 88
8, 7079, Note_off_c, 4, 49, 0
8, 7080, Note_on_c, 4, 50, 88
8, 7167, Note_off_c, 4, 50, 0
8, 7170, Note_on_c, 4, 52, 88
8, 7199, Note_off_c, 4, 52, 0
8, 7200, Note_on_c, 4, 53, 88
8, 7316, Note_off_c, 4, 53, 0
8, 7320, Note_on_c, 4, 55, 88
8, 7436, Note_off_c, 4, 55, 0
8, 7440, Note_on_c, 4, 57, 88
8, 7556, Note_off_c, 4, 57, 0
8, 7560, Note_on_c, 4, 49, 88
8, 7676, Note_off_c, 4, 49, 0
8, 7680, Note_on_c, 4, 50, 88
8, 7796, Note_off_c, 4, 50, 0
8, 7800, Note_on_c, 4, 53, 88
8, 8005, Note_off_c, 4, 53, 0
8, 8010, Note_on_c, 4, 57, 88
8, 8039, Note_off_c, 4, 57, 0
8, 8040, Note_on_c, 4, 55, 88
8, 8127, Note_off_c, 4, 55, 0
8, 8130, Note_on_c, 4, 53, 88
8, 8159, Note_off_c, 4, 53, 0
8, 8160, Note_on_c, 4, 52, 88
8, 8276, Note_off_c, 4, 52, 0
8, 8280, Note_on_c, 4, 53, 88
8, 8396, Note_off_c, 4, 53, 0
8, 8400, Note_on_c, 4, 55, 88
8, 8516, Note_off_c, 4, 55, 0
8, 8520, Note_on_c, 4, 58, 88
8, 8636, Note_off_c, 4, 58, 0
8, 8640, Note_on_c, 4, 57, 88
8, 8815, Note_off_c, 4, 57, 0
8, 8820, Note_on_c, 4, 54, 88
8, 8878, Note_off_c, 4, 54, 0
8, 8880, Note_on_c, 4, 50, 88
8, 8996, Note_off_c, 4, 50, 0
8, 9000, Note_on_c, 4, 58, 88
8, 9116, Note_off_c, 4, 58, 0
8, 9120, Note_on_c, 4, 51, 88
8, 9236, Note_off_c, 4, 51, 0
8, 9240, Note_on_c, 4, 48, 88
8, 9356, Note_off_c, 4, 48, 0
8, 9360, Note_on_c, 4, 50, 88
8, 9716, Note_off_c, 4, 50, 0
8, 10680, Note_on_c, 4, 46, 88
8, 10796, Note_off_c, 4, 46, 0
8, 10800, Note_on_c, 4, 51, 88
8, 10916, Note_off_c, 4, 51, 0
8, 10920, Note_on_c, 4, 55, 88
8, 11036, Note_off_c, 4, 55, 0
8, 11040, Note_on_c, 4, 48, 88
8, 11274, Note_off_c, 4, 48, 0
8, 11280, Note_on_c, 4, 55, 88
8, 11636, Note_off_c, 4, 55, 0
8, 17130, Note_on_c, 4, 54, 88
8, 17159, Note_off_c, 4, 54, 0
8, 17160, Note_on_c, 4, 55, 88
8, 17247, Note_off_c, 4, 55, 0
8, 17250, Note_on_c, 4, 57, 88
8, 17279, Note_off_c, 4, 57, 0
8, 17280, Note_on_c, 4, 58, 88
8, 17601, Note_off_c, 4, 58, 0
8, 17610, Note_on_c, 4, 58, 88
8, 17639, Note_off_c, 4, 58, 0
8, 17640, Note_on_c, 4, 57, 88
8, 17727, Note_off_c, 4, 57, 0
8, 17730, Note_on_c, 4, 55, 88
8, 17759, Note_off_c, 4, 55, 0
8, 17760, Note_on_c, 4, 57, 88
8, 18230, Note_off_c, 4, 57, 0
8, 18240, Note_on_c, 4, 55, 88
8, 18652, Note_off_c, 4, 55, 0
8, 18660, Note_on_c, 4, 54, 88
8, 18718, Note_off_c, 4, 54, 0
8, 18720, Note_on_c, 4, 55, 88
8, 18895, Note_off_c, 4, 55, 0
8, 18900, Note_on_c, 4, 53, 88
8, 18929, Note_off_c, 4, 53, 0
8, 18930, Note_on_c, 4, 51, 88
8, 18959, Note_off_c, 4, 51, 0
8, 18960, Note_on_c, 4, 50, 88
8, 19047, Note_off_c, 4, 50, 0
8, 19050, Note_on_c, 4, 43, 88
8, 19079, Note_off_c, 4, 43, 0
8, 19080, Note_on_c, 4, 55, 88
8, 19287, Note_off_c, 4, 55, 0
8, 19290, Note_on_c, 4, 53, 88
8, 19319, Note_off_c, 4, 53, 0
8, 19320, Note_on_c, 4, 51, 88
8, 19407, Note_off_c, 4, 51, 0
8, 19410, Note_on_c, 4, 55, 88
8, 19439, Note_off_c, 4, 55, 0
8, 19440, Note_on_c, 4, 48, 88
8, 19527, Note_off_c, 4, 48, 0
8, 19530, Note_on_c, 4, 51, 88
8, 19545, Note_on_c, 4, 50, 88
8, 19545, Note_off_c, 4, 51, 0
8, 19560, Note_off_c, 4, 50, 0
8, 19560, Note_on_c, 4, 51, 88
8, 19676, Note_off_c, 4, 51, 0
8, 19680, Note_on_c, 4, 50, 88
8, 20150, Note_off_c, 4, 50, 0
8, 20150, End_track
9, 0, Start_track
9, 0, Title_t, "Track 6"
9, 0, Program_c, 5, 6
9, 0, Note_on_c, 5, 43, 88
9, 945, Note_off_c, 5, 43, 0
9, 4170, Note_on_c, 5, 63, 88
9, 4199, Note_off_c, 5, 63, 0
9, 4200, Note_on_c, 5, 62, 88
9, 4287, Note_off_c, 5, 62, 0
9, 4290, Note_on_c, 5, 65, 88
9, 4319, Note_off_c, 5, 65, 0
9, 4320, Note_on_c, 5, 59, 88
9, 4790, Note_off_c, 5, 59, 0
9, 4800, Note_on_c, 5, 60, 88
9, 5123, Note_off_c, 5, 60, 0
9, 5130, Note_on_c, 5, 58, 88
9, 5159, Note_off_c, 5, 58, 0
9, 5160, Note_on_c, 5, 57, 88
9, 5247, Note_off_c, 5, 57, 0
9, 5250, Note_on_c, 5, 60, 88
9, 5279, Note_off_c, 5, 60, 0
9, 5280, Note_on_c, 5, 54, 88
9, 5750, Note_off_c, 5, 54, 0
9, 5760, Note_on_c, 5, 55, 88
9, 6321, Note_off_c, 5, 55, 0
9, 6330, Note_on_c, 5, 57, 88
9, 6359, Note_off_c, 5, 57, 0
9, 6360, Note_on_c, 5, 52, 88
9, 6447, Note_off_c, 5, 52, 0
9, 6450, Note_on_c, 5, 55, 88
9, 6479, Note_off_c, 5, 55, 0
9, 6480, Note_on_c, 5, 53, 88
9, 6567, Note_off_c, 5, 53, 0
9, 6570, Note_on_c, 5, 50, 88
9, 6599, Note_off_c, 5, 50, 0
9, 6600, Note_on_c, 5, 45, 88
9, 6687, Note_off_c, 5, 45, 0
9, 6690, Note_on_c, 5, 48, 88
9, 6719, Note_off_c, 5, 48, 0
9, 6720, Note_on_c, 5, 46, 88
9, 6954, Note_off_c, 5, 46, 0
9, 6960, Note_on_c, 5, 47, 88
9, 7194, Note_off_c, 5, 47, 0
9, 7200, Note_on_c, 5, 45, 88
9, 7670, Note_off_c, 5, 45, 0
9, 7680, Note_on_c, 5, 50, 88
9, 8625, Note_off_c, 5, 50, 0
9, 8640, Note_on_c, 5, 48, 88
9, 8874, Note_off_c, 5, 48, 0
9, 8880, Note_on_c, 5, 46, 88
9, 9114, Note_off_c, 5, 46, 0
9, 9120, Note_on_c, 5, 45, 88
9, 9354, Note_off_c, 5, 45, 0
9, 9360, Note_on_c, 5, 50, 88
9, 9476, Note_off_c, 5, 50, 0
9, 9480, Note_on_c, 5, 38, 88
9, 9596, Note_off_c, 5, 38, 0
9, 9600, Note_on_c, 5, 43, 88
9, 9716, Note_off_c, 5, 43, 0
9, 9720, Note_on_c, 5, 46, 88
9, 9807, Note_off_c, 5, 46, 0
9, 9810, Note_on_c, 5, 50, 88
9, 9839, Note_off_c, 5, 50, 0
9, 9840, Note_on_c, 5, 55, 88
9, 10163, Note_off_c, 5, 55, 0
9, 10170, Note_on_c, 5, 53, 88
9, 10199, Note_off_c, 5, 53, 0
9, 10200, Note_on_c, 5, 48, 88
9, 10287, Note_off_c, 5, 48, 0
9, 10290, Note_on_c, 5, 51, 88
9, 10319, Note_off_c, 5, 51, 0
9, 10320, Note_on_c, 5, 50, 88
9, 10407, Note_off_c, 5, 50, 0
9, 10410, Note_on_c, 5, 46, 88
9, 10439, Note_off_c, 5, 46, 0
9, 10440, Note_on_c, 5, 41, 88
9, 10527, Note_off_c, 5, 41, 0
9, 10530, Note_on_c, 5, 44, 88
9, 10559, Note_off_c, 5, 44, 0
9, 10560, Note_on_c, 5, 43, 88
9, 11030, Note_off_c, 5, 43, 0
9, 11040, Note_on_c, 5, 45, 88
9, 11274, Note_off_c, 5, 45, 0
9, 11280, Note_on_c, 5, 47, 88
9, 11514, Note_off_c, 5, 47, 0
9, 11520, Note_on_c, 5, 48, 88
9, 11754, Note_off_c, 5, 48, 0
9, 11880, Note_on_c, 5, 48, 88
9, 12171, Note_off_c, 5, 48, 0
9, 12180, Note_on_c, 5, 48, 88
9, 12238, Note_off_c, 5, 48, 0
9, 12240, Note_on_c, 5, 46, 88
9, 12561, Note_off_c, 5, 46, 0
9, 12570, Note_on_c, 5, 46, 88
9, 12599, Note_off_c, 5, 46, 0
9, 12600, Note_on_c, 5, 48, 88
9, 12687, Note_off_c, 5, 48, 0
9, 12690, Note_on_c, 5, 50, 88
9, 12719, Note_off_c, 5, 50, 0
9, 12720, Note_on_c, 5, 51, 88
9, 13190, Note_off_c, 5, 51, 0
9, 13290, Note_on_c, 5, 50, 88
9, 13319, Note_off_c, 5, 50, 0
9, 13320, Note_on_c, 5, 51, 88
9, 13407, Note_off_c, 5, 51, 0
9, 13410, Note_on_c, 5, 53, 88
9, 13439, Note_off_c, 5, 53, 0
9, 13440, Note_on_c, 5, 55, 88
9, 13910, Note_off_c, 5, 55, 0
9, 13920, Note_on_c, 5, 53, 88
9, 14487, Note_off_c, 5, 53, 0
9, 14490, Note_on_c, 5, 55, 88
9, 14519, Note_off_c, 5, 55, 0
9, 14520, Note_on_c, 5, 50, 88
9, 14607, Note_off_c, 5, 50, 0
9, 14610, Note_on_c, 5, 53, 88
9, 14639, Note_off_c, 5, 53, 0
9, 14640, Note_on_c, 5, 51, 88
9, 14727, Note_off_c, 5, 51, 0
9, 14730, Note_on_c, 5, 48, 88
9, 14759, Note_off_c, 5, 48, 0
9, 14760, Note_on_c, 5, 43, 88
9, 14847, Note_off_c, 5, 43, 0
9, 14850, Note_on_c, 5, 46, 88
9, 14879, Note_off_c, 5, 46, 0
9, 14880, Note_on_c, 5, 45, 88
9, 15350, Note_off_c, 5, 45, 0
9, 15360, Note_on_c, 5, 46, 88
9, 15830, Note_off_c, 5, 46, 0
9, 15840, Note_on_c, 5, 48, 88
9, 16407, Note_off_c, 5, 48, 0
9, 16410, Note_on_c, 5, 50, 88
9, 16439, Note_off_c, 5, 50, 0
9, 16440, Note_on_c, 5, 45, 88
9, 16527, Note_off_c, 5, 45, 0
9, 16530, Note_on_c, 5, 48, 88
9, 16559, Note_off_c, 5, 48, 0
9, 16560, Note_on_c, 5, 46, 88
9, 16647, Note_off_c, 5, 46, 0
9, 16650, Note_on_c, 5, 43, 88
9, 16679, Note_off_c, 5, 43, 0
9, 16680, Note_on_c, 5, 38, 88
9, 16767, Note_off_c, 5, 38, 0
9, 16770, Note_on_c, 5, 41, 88
9, 16799, Note_off_c, 5, 41, 0
9, 16800, Note_on_c, 5, 39, 88
9, 16916, Note_off_c, 5, 39, 0
9, 16920, Note_on_c, 5, 51, 88
9, 17007, Note_off_c, 5, 51, 0
9, 17010, Note_on_c, 5, 50, 88
9, 17039, Note_off_c, 5, 50, 0
9, 17040, Note_on_c, 5, 51, 88
9, 17156, Note_off_c, 5, 51, 0
9, 17160, Note_on_c, 5, 52, 88
9, 17276, Note_off_c, 5, 52, 0
9, 17280, Note_on_c, 5, 50, 88
9, 18225, Note_off_c, 5, 50, 0
9, 18240, Note_on_c, 5, 43, 88
9, 20145, Note_off_c, 5, 43, 0
9, 20145, End_track
0, 0, End_of_file
