0, 0, Header, 1, 7, 240
1, 0, Start_track
1, 0, Time_signature, 3, 2, 24, 8
1, 0, Tempo, 937500
1, 0, SMPTE_offset, 64, 0, 0, 0, 93
1, 0, End_track
2, 0, Start_track
2, 0, Title_t, "(C) & (P) 1993"
2, 127, End_track
3, 0, Start_track
3, 0, Title_t, "CCARH,Stanford"
3, 0, End_track
4, 0, Start_track
4, 0, Title_t, "Track 1"
4, 0, Program_c, 0, 6
4, 0, Note_on_c, 0, 72, 88
4, 113, Note_off_c, 0, 72, 0
4, 120, Note_on_c, 0, 72, 88
4, 353, Note_off_c, 0, 72, 0
4, 360, Note_on_c, 0, 72, 88
4, 593, Note_off_c, 0, 72, 0
4, 600, Note_on_c, 0, 72, 88
4, 716, Note_off_c, 0, 72, 0
4, 780, Note_on_c, 0, 68, 88
4, 838, Note_off_c, 0, 68, 0
4, 840, Note_on_c, 0, 66, 88
4, 898, Note_off_c, 0, 66, 0
4, 900, Note_on_c, 0, 65, 88
4, 958, Note_off_c, 0, 65, 0
4, 960, Note_on_c, 0, 66, 88
4, 1018, Note_off_c, 0, 66, 0
4, 1020, Note_on_c, 0, 72, 88
4, 1078, Note_off_c, 0, 72, 0
4, 1080, Note_on_c, 0, 75, 88
4, 1138, Note_off_c, 0, 75, 0
4, 1140, Note_on_c, 0, 73, 88
4, 1198, Note_off_c, 0, 73, 0
4, 1200, Note_on_c, 0, 72, 88
4, 1258, Note_off_c, 0, 72, 0
4, 1260, Note_on_c, 0, 70, 88
4, 1318, Note_off_c, 0, 70, 0
4, 1320, Note_on_c, 0, 68, 88
4, 1378, Note_off_c, 0, 68, 0
4, 1380, Note_on_c, 0, 66, 88
4, 1438, Note_off_c, 0, 66, 0
4, 1440, Note_on_c, 0, 73, 88
4, 1553, Note_off_c, 0, 73, 0
4, 1560, Note_on_c, 0, 73, 88
4, 1735, Note_off_c, 0, 73, 0
4, 1740, Note_on_c, 0, 72, 88
4, 1798, Note_off_c, 0, 72, 0
4, 1800, Note_on_c, 0, 73, 88
4, 1975, Note_off_c, 0, 73, 0
4, 1980, Note_on_c, 0, 72, 88
4, 2038, Note_off_c, 0, 72, 0
4, 2040, Note_on_c, 0, 73, 88
4, 2156, Note_off_c, 0, 73, 0
4, 2220, Note_on_c, 0, 75, 88
4, 2278, Note_off_c, 0, 75, 0
4, 2280, Note_on_c, 0, 73, 88
4, 2338, Note_off_c, 0, 73, 0
4, 2340, Note_on_c, 0, 72, 88
4, 2398, Note_off_c, 0, 72, 0
4, 2400, Note_on_c, 0, 73, 88
4, 2458, Note_off_c, 0, 73, 0
4, 2460, Note_on_c, 0, 68, 88
4, 2518, Note_off_c, 0, 68, 0
4, 2520, Note_on_c, 0, 77, 88
4, 2578, Note_off_c, 0, 77, 0
4, 2580, Note_on_c, 0, 75, 88
4, 2638, Note_off_c, 0, 75, 0
4, 2640, Note_on_c, 0, 73, 88
4, 2698, Note_off_c, 0, 73, 0
4, 2700, Note_on_c, 0, 72, 88
4, 2758, Note_off_c, 0, 72, 0
4, 2760, Note_on_c, 0, 70, 88
4, 2818, Note_off_c, 0, 70, 0
4, 2820, Note_on_c, 0, 68, 88
4, 2878, Note_off_c, 0, 68, 0
4, 2880, Note_on_c, 0, 67, 88
4, 2938, Note_off_c, 0, 67, 0
4, 2940, Note_on_c, 0, 65, 88
4, 2998, Note_off_c, 0, 65, 0
4, 3000, Note_on_c, 0, 63, 88
4, 3058, Note_off_c, 0, 63, 0
4, 3060, Note_on_c, 0, 62, 88
4, 3118, Note_off_c, 0, 62, 0
4, 3120, Note_on_c, 0, 63, 88
4, 3295, Note_off_c, 0, 63, 0
4, 3300, Note_on_c, 0, 67, 88
4, 3329, Note_off_c, 0, 67, 0
4, 3330, Note_on_c, 0, 70, 88
4, 3359, Note_off_c, 0, 70, 0
4, 3360, Note_on_c, 0, 73, 88
4, 3535, Note_off_c, 0, 73, 0
4, 3540, Note_on_c, 0, 68, 88
4, 3598, Note_off_c, 0, 68, 0
4, 3600, Note_on_c, 0, 67, 88
4, 3658, Note_off_c, 0, 67, 0
4, 3660, Note_on_c, 0, 72, 88
4, 3718, Note_off_c, 0, 72, 0
4, 3720, Note_on_c, 0, 70, 88
4, 3778, Note_off_c, 0, 70, 0
4, 3780, Note_on_c, 0, 68, 88
4, 3838, Note_off_c, 0, 68, 0
4, 3840, Note_on_c, 0, 70, 88
4, 4015, Note_off_c, 0, 70, 0
4, 4020, Note_on_c, 0, 73, 88
4, 4049, Note_off_c, 0, 73, 0
4, 4050, Note_on_c, 0, 77, 88
4, 4079, Note_off_c, 0, 77, 0
4, 4080, Note_on_c, 0, 82, 88
4, 4255, Note_off_c, 0, 82, 0
4, 4260, Note_on_c, 0, 73, 88
4, 4318, Note_off_c, 0, 73, 0
4, 4320, Note_on_c, 0, 72, 88
4, 4378, Note_off_c, 0, 72, 0
4, 4380, Note_on_c, 0, 77, 88
4, 4438, Note_off_c, 0, 77, 0
4, 4440, Note_on_c, 0, 75, 88
4, 4498, Note_off_c, 0, 75, 0
4, 4500, Note_on_c, 0, 73, 88
4, 4558, Note_off_c, 0, 73, 0
4, 4560, Note_on_c, 0, 72, 88
4, 4618, Note_off_c, 0, 72, 0
4, 4620, Note_on_c, 0, 80, 88
4, 4678, Note_off_c, 0, 80, 0
4, 4680, Note_on_c, 0, 75, 88
4, 4738, Note_off_c, 0, 75, 0
4, 4740, Note_on_c, 0, 73, 88
4, 4798, Note_off_c, 0, 73, 0
4, 4800, Note_on_c, 0, 72, 88
4, 4858, Note_off_c, 0, 72, 0
4, 4860, Note_on_c, 0, 75, 88
4, 4918, Note_off_c, 0, 75, 0
4, 4920, Note_on_c, 0, 72, 88
4, 4978, Note_off_c, 0, 72, 0
4, 4980, Note_on_c, 0, 70, 88
4, 5038, Note_off_c, 0, 70, 0
4, 5040, Note_on_c, 0, 68, 88
4, 5098, Note_off_c, 0, 68, 0
4, 5100, Note_on_c, 0, 73, 88
4, 5158, Note_off_c, 0, 73, 0
4, 5160, Note_on_c, 0, 72, 88
4, 5218, Note_off_c, 0, 72, 0
4, 5220, Note_on_c, 0, 70, 88
4, 5278, Note_off_c, 0, 70, 0
4, 5280, Note_on_c, 0, 72, 88
4, 5338, Note_off_c, 0, 72, 0
4, 5340, Note_on_c, 0, 77, 88
4, 5398, Note_off_c, 0, 77, 0
4, 5400, Note_on_c, 0, 72, 88
4, 5458, Note_off_c, 0, 72, 0
4, 5460, Note_on_c, 0, 70, 88
4, 5518, Note_off_c, 0, 70, 0
4, 5520, Note_on_c, 0, 68, 88
4, 5578, Note_off_c, 0, 68, 0
4, 5580, Note_on_c, 0, 72, 88
4, 5638, Note_off_c, 0, 72, 0
4, 5640, Note_on_c, 0, 68, 88
4, 5698, Note_off_c, 0, 68, 0
4, 5700, Note_on_c, 0, 67, 88
4, 5758, Note_off_c, 0, 67, 0
4, 5760, Note_on_c, 0, 65, 88
4, 5818, Note_off_c, 0, 65, 0
4, 5820, Note_on_c, 0, 70, 88
4, 5878, Note_off_c, 0, 70, 0
4, 5880, Note_on_c, 0, 68, 88
4, 5938, Note_off_c, 0, 68, 0
4, 5940, Note_on_c, 0, 67, 88
4, 5998, Note_off_c, 0, 67, 0
4, 6000, Note_on_c, 0, 68, 88
4, 6058, Note_off_c, 0, 68, 0
4, 6060, Note_on_c, 0, 72, 88
4, 6118, Note_off_c, 0, 72, 0
4, 6120, Note_on_c, 0, 68, 88
4, 6178, Note_off_c, 0, 68, 0
4, 6180, Note_on_c, 0, 67, 88
4, 6238, Note_off_c, 0, 67, 0
4, 6240, Note_on_c, 0, 65, 88
4, 6298, Note_off_c, 0, 65, 0
4, 6300, Note_on_c, 0, 68, 88
4, 6358, Note_off_c, 0, 68, 0
4, 6360, Note_on_c, 0, 65, 88
4, 6418, Note_off_c, 0, 65, 0
4, 6420, Note_on_c, 0, 63, 88
4, 6478, Note_off_c, 0, 63, 0
4, 6480, Note_on_c, 0, 62, 88
4, 6538, Note_off_c, 0, 62, 0
4, 6540, Note_on_c, 0, 65, 88
4, 6598, Note_off_c, 0, 65, 0
4, 6600, Note_on_c, 0, 68, 88
4, 6775, Note_off_c, 0, 68, 0
4, 6780, Note_on_c, 0, 67, 88
4, 6838, Note_off_c, 0, 67, 0
4, 6840, Note_on_c, 0, 68, 88
4, 7015, Note_off_c, 0, 68, 0
4, 7020, Note_on_c, 0, 77, 88
4, 7078, Note_off_c, 0, 77, 0
4, 7080, Note_on_c, 0, 70, 88
4, 7138, Note_off_c, 0, 70, 0
4, 7140, Note_on_c, 0, 68, 88
4, 7198, Note_off_c, 0, 68, 0
4, 7200, Note_on_c, 0, 67, 88
4, 7229, Note_off_c, 0, 67, 0
4, 7230, Note_on_c, 0, 68, 88
4, 7259, Note_off_c, 0, 68, 0
4, 7260, Note_on_c, 0, 70, 88
4, 7318, Note_off_c, 0, 70, 0
4, 7320, Note_on_c, 0, 63, 88
4, 7495, Note_off_c, 0, 63, 0
4, 7500, Note_on_c, 0, 60, 88
4, 7558, Note_off_c, 0, 60, 0
4, 7560, Note_on_c, 0, 65, 88
4, 7618, Note_off_c, 0, 65, 0
4, 7620, Note_on_c, 0, 68, 88
4, 7678, Note_off_c, 0, 68, 0
4, 7680, Note_on_c, 0, 67, 88
4, 7738, Note_off_c, 0, 67, 0
4, 7740, Note_on_c, 0, 65, 88
4, 7798, Note_off_c, 0, 65, 0
4, 7800, Note_on_c, 0, 63, 88
4, 7858, Note_off_c, 0, 63, 0
4, 7860, Note_on_c, 0, 62, 88
4, 7918, Note_off_c, 0, 62, 0
4, 7920, Note_on_c, 0, 63, 88
4, 7949, Note_off_c, 0, 63, 0
4, 7950, Note_on_c, 0, 62, 88
4, 7979, Note_off_c, 0, 62, 0
4, 7980, Note_on_c, 0, 60, 88
4, 8038, Note_off_c, 0, 60, 0
4, 8040, Note_on_c, 0, 68, 88
4, 8215, Note_off_c, 0, 68, 0
4, 8220, Note_on_c, 0, 63, 88
4, 8278, Note_off_c, 0, 63, 0
4, 8280, Note_on_c, 0, 68, 88
4, 8338, Note_off_c, 0, 68, 0
4, 8340, Note_on_c, 0, 72, 88
4, 8398, Note_off_c, 0, 72, 0
4, 8400, Note_on_c, 0, 70, 88
4, 8458, Note_off_c, 0, 70, 0
4, 8460, Note_on_c, 0, 68, 88
4, 8518, Note_off_c, 0, 68, 0
4, 8520, Note_on_c, 0, 67, 88
4, 8578, Note_off_c, 0, 67, 0
4, 8580, Note_on_c, 0, 65, 88
4, 8638, Note_off_c, 0, 65, 0
4, 8640, Note_on_c, 0, 67, 88
4, 8669, Note_off_c, 0, 67, 0
4, 8670, Note_on_c, 0, 65, 88
4, 8699, Note_off_c, 0, 65, 0
4, 8700, Note_on_c, 0, 63, 88
4, 8758, Note_off_c, 0, 63, 0
4, 8760, Note_on_c, 0, 72, 88
4, 8935, Note_off_c, 0, 72, 0
4, 8940, Note_on_c, 0, 67, 88
4, 8998, Note_off_c, 0, 67, 0
4, 9000, Note_on_c, 0, 72, 88
4, 9058, Note_off_c, 0, 72, 0
4, 9060, Note_on_c, 0, 75, 88
4, 9118, Note_off_c, 0, 75, 0
4, 9120, Note_on_c, 0, 74, 88
4, 9178, Note_off_c, 0, 74, 0
4, 9180, Note_on_c, 0, 72, 88
4, 9238, Note_off_c, 0, 72, 0
4, 9240, Note_on_c, 0, 70, 88
4, 9298, Note_off_c, 0, 70, 0
4, 9300, Note_on_c, 0, 68, 88
4, 9358, Note_off_c, 0, 68, 0
4, 9360, Note_on_c, 0, 70, 88
4, 9389, Note_off_c, 0, 70, 0
4, 9390, Note_on_c, 0, 68, 88
4, 9419, Note_off_c, 0, 68, 0
4, 9420, Note_on_c, 0, 67, 88
4, 9478, Note_off_c, 0, 67, 0
4, 9480, Note_on_c, 0, 75, 88
4, 9655, Note_off_c, 0, 75, 0
4, 9660, Note_on_c, 0, 70, 88
4, 9718, Note_off_c, 0, 70, 0
4, 9720, Note_on_c, 0, 75, 88
4, 9778, Note_off_c, 0, 75, 0
4, 9780, Note_on_c, 0, 79, 88
4, 9838, Note_off_c, 0, 79, 0
4, 9840, Note_on_c, 0, 77, 88
4, 9898, Note_off_c, 0, 77, 0
4, 9900, Note_on_c, 0, 75, 88
4, 9958, Note_off_c, 0, 75, 0
4, 9960, Note_on_c, 0, 74, 88
4, 10018, Note_off_c, 0, 74, 0
4, 10020, Note_on_c, 0, 72, 88
4, 10078, Note_off_c, 0, 72, 0
4, 10080, Note_on_c, 0, 74, 88
4, 10109, Note_off_c, 0, 74, 0
4, 10110, Note_on_c, 0, 75, 88
4, 10139, Note_off_c, 0, 75, 0
4, 10140, Note_on_c, 0, 77, 88
4, 10198, Note_off_c, 0, 77, 0
4, 10200, Note_on_c, 0, 70, 88
4, 10258, Note_off_c, 0, 70, 0
4, 10260, Note_on_c, 0, 72, 88
4, 10318, Note_off_c, 0, 72, 0
4, 10320, Note_on_c, 0, 74, 88
4, 10378, Note_off_c, 0, 74, 0
4, 10380, Note_on_c, 0, 75, 88
4, 10438, Note_off_c, 0, 75, 0
4, 10440, Note_on_c, 0, 77, 88
4, 10498, Note_off_c, 0, 77, 0
4, 10500, Note_on_c, 0, 79, 88
4, 10558, Note_off_c, 0, 79, 0
4, 10560, Note_on_c, 0, 80, 88
4, 10618, Note_off_c, 0, 80, 0
4, 10620, Note_on_c, 0, 77, 88
4, 10678, Note_off_c, 0, 77, 0
4, 10680, Note_on_c, 0, 75, 88
4, 10738, Note_off_c, 0, 75, 0
4, 10740, Note_on_c, 0, 74, 88
4, 10798, Note_off_c, 0, 74, 0
4, 10800, Note_on_c, 0, 82, 88
4, 10858, Note_off_c, 0, 82, 0
4, 10860, Note_on_c, 0, 79, 88
4, 10889, Note_off_c, 0, 79, 0
4, 10890, Note_on_c, 0, 77, 88
4, 10919, Note_off_c, 0, 77, 0
4, 10920, Note_on_c, 0, 75, 88
4, 10949, Note_off_c, 0, 75, 0
4, 10950, Note_on_c, 0, 77, 88
4, 10979, Note_off_c, 0, 77, 0
4, 10980, Note_on_c, 0, 79, 88
4, 11038, Note_off_c, 0, 79, 0
4, 11040, Note_on_c, 0, 68, 88
4, 11098, Note_off_c, 0, 68, 0
4, 11100, Note_on_c, 0, 77, 88
4, 11158, Note_off_c, 0, 77, 0
4, 11160, Note_on_c, 0, 74, 88
4, 11218, Note_off_c, 0, 74, 0
4, 11220, Note_on_c, 0, 75, 88
4, 11278, Note_off_c, 0, 75, 0
4, 11280, Note_on_c, 0, 67, 88
4, 11338, Note_off_c, 0, 67, 0
4, 11340, Note_on_c, 0, 75, 88
4, 11398, Note_off_c, 0, 75, 0
4, 11400, Note_on_c, 0, 65, 88
4, 11458, Note_off_c, 0, 65, 0
4, 11460, Note_on_c, 0, 74, 88
4, 11518, Note_off_c, 0, 74, 0
4, 11520, Note_on_c, 0, 75, 88
4, 11633, Note_off_c, 0, 75, 0
4, 11640, Note_on_c, 0, 75, 88
4, 11815, Note_off_c, 0, 75, 0
4, 11820, Note_on_c, 0, 74, 88
4, 11878, Note_off_c, 0, 74, 0
4, 11880, Note_on_c, 0, 75, 88
4, 12055, Note_off_c, 0, 75, 0
4, 12060, Note_on_c, 0, 74, 88
4, 12118, Note_off_c, 0, 74, 0
4, 12120, Note_on_c, 0, 75, 88
4, 12236, Note_off_c, 0, 75, 0
4, 12300, Note_on_c, 0, 75, 88
4, 12358, Note_off_c, 0, 75, 0
4, 12360, Note_on_c, 0, 73, 88
4, 12418, Note_off_c, 0, 73, 0
4, 12420, Note_on_c, 0, 72, 88
4, 12478, Note_off_c, 0, 72, 0
4, 12480, Note_on_c, 0, 73, 88
4, 12538, Note_off_c, 0, 73, 0
4, 12540, Note_on_c, 0, 79, 88
4, 12598, Note_off_c, 0, 79, 0
4, 12600, Note_on_c, 0, 82, 88
4, 12658, Note_off_c, 0, 82, 0
4, 12660, Note_on_c, 0, 80, 88
4, 12718, Note_off_c, 0, 80, 0
4, 12720, Note_on_c, 0, 79, 88
4, 12778, Note_off_c, 0, 79, 0
4, 12780, Note_on_c, 0, 77, 88
4, 12838, Note_off_c, 0, 77, 0
4, 12840, Note_on_c, 0, 75, 88
4, 12898, Note_off_c, 0, 75, 0
4, 12900, Note_on_c, 0, 73, 88
4, 12958, Note_off_c, 0, 73, 0
4, 12960, Note_on_c, 0, 72, 88
4, 13073, Note_off_c, 0, 72, 0
4, 13080, Note_on_c, 0, 72, 88
4, 13313, Note_off_c, 0, 72, 0
4, 13320, Note_on_c, 0, 72, 88
4, 13553, Note_off_c, 0, 72, 0
4, 13560, Note_on_c, 0, 72, 88
4, 13676, Note_off_c, 0, 72, 0
4, 13740, Note_on_c, 0, 70, 88
4, 13798, Note_off_c, 0, 70, 0
4, 13800, Note_on_c, 0, 68, 88
4, 13858, Note_off_c, 0, 68, 0
4, 13860, Note_on_c, 0, 67, 88
4, 13918, Note_off_c, 0, 67, 0
4, 13920, Note_on_c, 0, 68, 88
4, 13978, Note_off_c, 0, 68, 0
4, 13980, Note_on_c, 0, 63, 88
4, 14038, Note_off_c, 0, 63, 0
4, 14040, Note_on_c, 0, 72, 88
4, 14098, Note_off_c, 0, 72, 0
4, 14100, Note_on_c, 0, 70, 88
4, 14158, Note_off_c, 0, 70, 0
4, 14160, Note_on_c, 0, 68, 88
4, 14218, Note_off_c, 0, 68, 0
4, 14220, Note_on_c, 0, 67, 88
4, 14278, Note_off_c, 0, 67, 0
4, 14280, Note_on_c, 0, 65, 88
4, 14338, Note_off_c, 0, 65, 0
4, 14340, Note_on_c, 0, 63, 88
4, 14398, Note_off_c, 0, 63, 0
4, 14400, Note_on_c, 0, 62, 88
4, 14458, Note_off_c, 0, 62, 0
4, 14460, Note_on_c, 0, 63, 88
4, 14518, Note_off_c, 0, 63, 0
4, 14520, Note_on_c, 0, 62, 88
4, 14578, Note_off_c, 0, 62, 0
4, 14580, Note_on_c, 0, 60, 88
4, 14638, Note_off_c, 0, 60, 0
4, 14640, Note_on_c, 0, 62, 88
4, 14698, Note_off_c, 0, 62, 0
4, 14700, Note_on_c, 0, 65, 88
4, 14758, Note_off_c, 0, 65, 0
4, 14760, Note_on_c, 0, 58, 88
4, 14818, Note_off_c, 0, 58, 0
4, 14820, Note_on_c, 0, 60, 88
4, 14878, Note_off_c, 0, 60, 0
4, 14880, Note_on_c, 0, 62, 88
4, 14938, Note_off_c, 0, 62, 0
4, 14940, Note_on_c, 0, 63, 88
4, 14998, Note_off_c, 0, 63, 0
4, 15000, Note_on_c, 0, 65, 88
4, 15058, Note_off_c, 0, 65, 0
4, 15060, Note_on_c, 0, 67, 88
4, 15118, Note_off_c, 0, 67, 0
4, 15120, Note_on_c, 0, 68, 88
4, 15178, Note_off_c, 0, 68, 0
4, 15180, Note_on_c, 0, 70, 88
4, 15238, Note_off_c, 0, 70, 0
4, 15240, Note_on_c, 0, 68, 88
4, 15298, Note_off_c, 0, 68, 0
4, 15300, Note_on_c, 0, 67, 88
4, 15358, Note_off_c, 0, 67, 0
4, 15360, Note_on_c, 0, 68, 88
4, 15418, Note_off_c, 0, 68, 0
4, 15420, Note_on_c, 0, 72, 88
4, 15478, Note_off_c, 0, 72, 0
4, 15480, Note_on_c, 0, 65, 88
4, 15538, Note_off_c, 0, 65, 0
4, 15540, Note_on_c, 0, 67, 88
4, 15598, Note_off_c, 0, 67, 0
4, 15600, Note_on_c, 0, 68, 88
4, 15658, Note_off_c, 0, 68, 0
4, 15660, Note_on_c, 0, 70, 88
4, 15718, Note_off_c, 0, 70, 0
4, 15720, Note_on_c, 0, 72, 88
4, 15778, Note_off_c, 0, 72, 0
4, 15780, Note_on_c, 0, 74, 88
4, 15838, Note_off_c, 0, 74, 0
4, 15840, Note_on_c, 0, 75, 88
4, 15898, Note_off_c, 0, 75, 0
4, 15900, Note_on_c, 0, 68, 88
4, 15958, Note_off_c, 0, 68, 0
4, 15960, Note_on_c, 0, 67, 88
4, 16018, Note_off_c, 0, 67, 0
4, 16020, Note_on_c, 0, 65, 88
4, 16078, Note_off_c, 0, 65, 0
4, 16080, Note_on_c, 0, 67, 88
4, 16138, Note_off_c, 0, 67, 0
4, 16140, Note_on_c, 0, 70, 88
4, 16198, Note_off_c, 0, 70, 0
4, 16200, Note_on_c, 0, 67, 88
4, 16258, Note_off_c, 0, 67, 0
4, 16260, Note_on_c, 0, 65, 88
4, 16318, Note_off_c, 0, 65, 0
4, 16320, Note_on_c, 0, 63, 88
4, 16378, Note_off_c, 0, 63, 0
4, 16380, Note_on_c, 0, 73, 88
4, 16438, Note_off_c, 0, 73, 0
4, 16440, Note_on_c, 0, 72, 88
4, 16498, Note_off_c, 0, 72, 0
4, 16500, Note_on_c, 0, 70, 88
4, 16558, Note_off_c, 0, 70, 0
4, 16560, Note_on_c, 0, 72, 88
4, 16735, Note_off_c, 0, 72, 0
4, 16740, Note_on_c, 0, 75, 88
4, 16793, Note_off_c, 0, 75, 0
4, 16800, Note_on_c, 0, 75, 88
4, 16975, Note_off_c, 0, 75, 0
4, 16980, Note_on_c, 0, 80, 88
4, 17033, Note_off_c, 0, 80, 0
4, 17040, Note_on_c, 0, 80, 88
4, 17338, Note_off_c, 0, 80, 0
4, 17340, Note_on_c, 0, 67, 88
4, 17398, Note_off_c, 0, 67, 0
4, 17400, Note_on_c, 0, 65, 88
4, 17458, Note_off_c, 0, 65, 0
4, 17460, Note_on_c, 0, 64, 88
4, 17518, Note_off_c, 0, 64, 0
4, 17520, Note_on_c, 0, 65, 88
4, 17578, Note_off_c, 0, 65, 0
4, 17580, Note_on_c, 0, 68, 88
4, 17638, Note_off_c, 0, 68, 0
4, 17640, Note_on_c, 0, 65, 88
4, 17698, Note_off_c, 0, 65, 0
4, 17700, Note_on_c, 0, 63, 88
4, 17758, Note_off_c, 0, 63, 0
4, 17760, Note_on_c, 0, 61, 88
4, 17818, Note_off_c, 0, 61, 0
4, 17820, Note_on_c, 0, 72, 88
4, 17878, Note_off_c, 0, 72, 0
4, 17880, Note_on_c, 0, 70, 88
4, 17938, Note_off_c, 0, 70, 0
4, 17940, Note_on_c, 0, 68, 88
4, 17998, Note_off_c, 0, 68, 0
4, 18000, Note_on_c, 0, 70, 88
4, 18175, Note_off_c, 0, 70, 0
4, 18180, Note_on_c, 0, 73, 88
4, 18233, Note_off_c, 0, 73, 0
4, 18240, Note_on_c, 0, 73, 88
4, 18415, Note_off_c, 0, 73, 0
4, 18420, Note_on_c, 0, 79, 88
4, 18473, Note_off_c, 0, 79, 0
4, 18480, Note_on_c, 0, 79, 88
4, 18778, Note_off_c, 0, 79, 0
4, 18780, Note_on_c, 0, 65, 88
4, 18838, Note_off_c, 0, 65, 0
4, 18840, Note_on_c, 0, 64, 88
4, 18898, Note_off_c, 0, 64, 0
4, 18900, Note_on_c, 0, 62, 88
4, 18958, Note_off_c, 0, 62, 0
4, 18960, Note_on_c, 0, 64, 88
4, 19018, Note_off_c, 0, 64, 0
4, 19020, Note_on_c, 0, 67, 88
4, 19078, Note_off_c, 0, 67, 0
4, 19080, Note_on_c, 0, 64, 88
4, 19138, Note_off_c, 0, 64, 0
4, 19140, Note_on_c, 0, 62, 88
4, 19198, Note_off_c, 0, 62, 0
4, 19200, Note_on_c, 0, 60, 88
4, 19258, Note_off_c, 0, 60, 0
4, 19260, Note_on_c, 0, 70, 88
4, 19318, Note_off_c, 0, 70, 0
4, 19320, Note_on_c, 0, 68, 88
4, 19378, Note_off_c, 0, 68, 0
4, 19380, Note_on_c, 0, 67, 88
4, 19438, Note_off_c, 0, 67, 0
4, 19440, Note_on_c, 0, 68, 88
4, 19615, Note_off_c, 0, 68, 0
4, 19620, Note_on_c, 0, 72, 88
4, 19673, Note_off_c, 0, 72, 0
4, 19680, Note_on_c, 0, 72, 88
4, 19855, Note_off_c, 0, 72, 0
4, 19860, Note_on_c, 0, 77, 88
4, 19913, Note_off_c, 0, 77, 0
4, 19920, Note_on_c, 0, 77, 88
4, 20218, Note_off_c, 0, 77, 0
4, 20220, Note_on_c, 0, 78, 88
4, 20278, Note_off_c, 0, 78, 0
4, 20280, Note_on_c, 0, 77, 88
4, 20338, Note_off_c, 0, 77, 0
4, 20340, Note_on_c, 0, 76, 88
4, 20398, Note_off_c, 0, 76, 0
4, 20400, Note_on_c, 0, 77, 88
4, 20458, Note_off_c, 0, 77, 0
4, 20460, Note_on_c, 0, 82, 88
4, 20518, Note_off_c, 0, 82, 0
4, 20520, Note_on_c, 0, 77, 88
4, 20578, Note_off_c, 0, 77, 0
4, 20580, Note_on_c, 0, 75, 88
4, 20638, Note_off_c, 0, 75, 0
4, 20640, Note_on_c, 0, 73, 88
4, 20698, Note_off_c, 0, 73, 0
4, 20700, Note_on_c, 0, 77, 88
4, 20758, Note_off_c, 0, 77, 0
4, 20760, Note_on_c, 0, 73, 88
4, 20818, Note_off_c, 0, 73, 0
4, 20820, Note_on_c, 0, 72, 88
4, 20878, Note_off_c, 0, 72, 0
4, 20880, Note_on_c, 0, 70, 88
4, 20938, Note_off_c, 0, 70, 0
4, 20940, Note_on_c, 0, 75, 88
4, 20998, Note_off_c, 0, 75, 0
4, 21000, Note_on_c, 0, 73, 88
4, 21058, Note_off_c, 0, 73, 0
4, 21060, Note_on_c, 0, 72, 88
4, 21118, Note_off_c, 0, 72, 0
4, 21120, Note_on_c, 0, 73, 88
4, 21178, Note_off_c, 0, 73, 0
4, 21180, Note_on_c, 0, 77, 88
4, 21238, Note_off_c, 0, 77, 0
4, 21240, Note_on_c, 0, 73, 88
4, 21298, Note_off_c, 0, 73, 0
4, 21300, Note_on_c, 0, 72, 88
4, 21358, Note_off_c, 0, 72, 0
4, 21360, Note_on_c, 0, 70, 88
4, 21418, Note_off_c, 0, 70, 0
4, 21420, Note_on_c, 0, 73, 88
4, 21478, Note_off_c, 0, 73, 0
4, 21480, Note_on_c, 0, 70, 88
4, 21538, Note_off_c, 0, 70, 0
4, 21540, Note_on_c, 0, 68, 88
4, 21598, Note_off_c, 0, 68, 0
4, 21600, Note_on_c, 0, 66, 88
4, 21658, Note_off_c, 0, 66, 0
4, 21660, Note_on_c, 0, 71, 88
4, 21718, Note_off_c, 0, 71, 0
4, 21720, Note_on_c, 0, 70, 88
4, 21778, Note_off_c, 0, 70, 0
4, 21780, Note_on_c, 0, 69, 88
4, 21838, Note_off_c, 0, 69, 0
4, 21840, Note_on_c, 0, 70, 88
4, 21898, Note_off_c, 0, 70, 0
4, 21900, Note_on_c, 0, 73, 88
4, 21958, Note_off_c, 0, 73, 0
4, 21960, Note_on_c, 0, 70, 88
4, 22018, Note_off_c, 0, 70, 0
4, 22020, Note_on_c, 0, 68, 88
4, 22078, Note_off_c, 0, 68, 0
4, 22080, Note_on_c, 0, 66, 88
4, 22138, Note_off_c, 0, 66, 0
4, 22140, Note_on_c, 0, 70, 88
4, 22198, Note_off_c, 0, 70, 0
4, 22200, Note_on_c, 0, 66, 88
4, 22258, Note_off_c, 0, 66, 0
4, 22260, Note_on_c, 0, 65, 88
4, 22318, Note_off_c, 0, 65, 0
4, 22320, Note_on_c, 0, 64, 88
4, 22466, Note_off_c, 0, 64, 0
4, 22470, Note_on_c, 0, 62, 88
4, 22499, Note_off_c, 0, 62, 0
4, 22500, Note_on_c, 0, 64, 88
4, 22529, Note_off_c, 0, 64, 0
4, 22530, Note_on_c, 0, 65, 88
4, 22559, Note_off_c, 0, 65, 0
4, 22560, Note_on_c, 0, 67, 88
4, 22706, Note_off_c, 0, 67, 0
4, 22710, Note_on_c, 0, 65, 88
4, 22739, Note_off_c, 0, 65, 0
4, 22740, Note_on_c, 0, 67, 88
4, 22769, Note_off_c, 0, 67, 0
4, 22770, Note_on_c, 0, 68, 88
4, 22799, Note_off_c, 0, 68, 0
4, 22800, Note_on_c, 0, 70, 88
4, 22916, Note_off_c, 0, 70, 0
4, 23070, Note_on_c, 0, 72, 88
4, 23099, Note_off_c, 0, 72, 0
4, 23100, Note_on_c, 0, 74, 88
4, 23129, Note_off_c, 0, 74, 0
4, 23130, Note_on_c, 0, 76, 88
4, 23159, Note_off_c, 0, 76, 0
4, 23160, Note_on_c, 0, 77, 88
4, 23306, Note_off_c, 0, 77, 0
4, 23310, Note_on_c, 0, 72, 88
4, 23339, Note_off_c, 0, 72, 0
4, 23340, Note_on_c, 0, 70, 88
4, 23369, Note_off_c, 0, 70, 0
4, 23370, Note_on_c, 0, 68, 88
4, 23399, Note_off_c, 0, 68, 0
4, 23400, Note_on_c, 0, 70, 88
4, 23458, Note_off_c, 0, 70, 0
4, 23460, Note_on_c, 0, 73, 88
4, 23518, Note_off_c, 0, 73, 0
4, 23520, Note_on_c, 0, 67, 88
4, 23578, Note_off_c, 0, 67, 0
4, 23580, Note_on_c, 0, 70, 88
4, 23876, Note_off_c, 0, 70, 0
4, 23880, Note_on_c, 0, 68, 88
4, 24113, Note_off_c, 0, 68, 0
4, 24120, Note_on_c, 0, 68, 88
4, 24353, Note_off_c, 0, 68, 0
4, 24360, Note_on_c, 0, 68, 88
4, 24476, Note_off_c, 0, 68, 0
4, 24540, Note_on_c, 0, 67, 88
4, 24598, Note_off_c, 0, 67, 0
4, 24600, Note_on_c, 0, 65, 88
4, 24658, Note_off_c, 0, 65, 0
4, 24660, Note_on_c, 0, 64, 88
4, 24718, Note_off_c, 0, 64, 0
4, 24720, Note_on_c, 0, 65, 88
4, 24778, Note_off_c, 0, 65, 0
4, 24780, Note_on_c, 0, 68, 88
4, 24838, Note_off_c, 0, 68, 0
4, 24840, Note_on_c, 0, 72, 88
4, 24898, Note_off_c, 0, 72, 0
4, 24900, Note_on_c, 0, 70, 88
4, 24958, Note_off_c, 0, 70, 0
4, 24960, Note_on_c, 0, 68, 88
4, 25018, Note_off_c, 0, 68, 0
4, 25020, Note_on_c, 0, 67, 88
4, 25078, Note_off_c, 0, 67, 0
4, 25080, Note_on_c, 0, 65, 88
4, 25138, Note_off_c, 0, 65, 0
4, 25140, Note_on_c, 0, 63, 88
4, 25198, Note_off_c, 0, 63, 0
4, 25200, Note_on_c, 0, 70, 88
4, 25313, Note_off_c, 0, 70, 0
4, 25320, Note_on_c, 0, 70, 88
4, 25495, Note_off_c, 0, 70, 0
4, 25500, Note_on_c, 0, 69, 88
4, 25558, Note_off_c, 0, 69, 0
4, 25560, Note_on_c, 0, 70, 88
4, 25735, Note_off_c, 0, 70, 0
4, 25740, Note_on_c, 0, 69, 88
4, 25798, Note_off_c, 0, 69, 0
4, 25800, Note_on_c, 0, 70, 88
4, 25916, Note_off_c, 0, 70, 0
4, 25980, Note_on_c, 0, 53, 88
4, 26038, Note_off_c, 0, 53, 0
4, 26040, Note_on_c, 0, 55, 88
4, 26098, Note_off_c, 0, 55, 0
4, 26100, Note_on_c, 0, 57, 88
4, 26158, Note_off_c, 0, 57, 0
4, 26160, Note_on_c, 0, 58, 88
4, 26218, Note_off_c, 0, 58, 0
4, 26220, Note_on_c, 0, 60, 88
4, 26278, Note_off_c, 0, 60, 0
4, 26280, Note_on_c, 0, 61, 88
4, 26338, Note_off_c, 0, 61, 0
4, 26340, Note_on_c, 0, 60, 88
4, 26398, Note_off_c, 0, 60, 0
4, 26400, Note_on_c, 0, 63, 88
4, 26458, Note_off_c, 0, 63, 0
4, 26460, Note_on_c, 0, 61, 88
4, 26518, Note_off_c, 0, 61, 0
4, 26520, Note_on_c, 0, 60, 88
4, 26578, Note_off_c, 0, 60, 0
4, 26580, Note_on_c, 0, 58, 88
4, 26638, Note_off_c, 0, 58, 0
4, 26640, Note_on_c, 0, 64, 88
4, 26698, Note_off_c, 0, 64, 0
4, 26700, Note_on_c, 0, 61, 88
4, 26758, Note_off_c, 0, 61, 0
4, 26760, Note_on_c, 0, 60, 88
4, 26818, Note_off_c, 0, 60, 0
4, 26820, Note_on_c, 0, 58, 88
4, 26878, Note_off_c, 0, 58, 0
4, 26880, Note_on_c, 0, 67, 88
4, 26938, Note_off_c, 0, 67, 0
4, 26940, Note_on_c, 0, 61, 88
4, 26998, Note_off_c, 0, 61, 0
4, 27000, Note_on_c, 0, 60, 88
4, 27058, Note_off_c, 0, 60, 0
4, 27060, Note_on_c, 0, 58, 88
4, 27118, Note_off_c, 0, 58, 0
4, 27120, Note_on_c, 0, 70, 88
4, 27178, Note_off_c, 0, 70, 0
4, 27180, Note_on_c, 0, 68, 88
4, 27238, Note_off_c, 0, 68, 0
4, 27240, Note_on_c, 0, 67, 88
4, 27298, Note_off_c, 0, 67, 0
4, 27300, Note_on_c, 0, 65, 88
4, 27358, Note_off_c, 0, 65, 0
4, 27360, Note_on_c, 0, 73, 88
4, 27418, Note_off_c, 0, 73, 0
4, 27420, Note_on_c, 0, 68, 88
4, 27478, Note_off_c, 0, 68, 0
4, 27480, Note_on_c, 0, 67, 88
4, 27538, Note_off_c, 0, 67, 0
4, 27540, Note_on_c, 0, 65, 88
4, 27598, Note_off_c, 0, 65, 0
4, 27600, Note_on_c, 0, 64, 88
4, 27746, Note_off_c, 0, 64, 0
4, 27750, Note_on_c, 0, 67, 88
4, 27779, Note_off_c, 0, 67, 0
4, 27780, Note_on_c, 0, 70, 88
4, 27809, Note_off_c, 0, 70, 0
4, 27810, Note_on_c, 0, 76, 88
4, 27839, Note_off_c, 0, 76, 0
4, 27840, Note_on_c, 0, 79, 88
4, 28015, Note_off_c, 0, 79, 0
4, 28020, Note_on_c, 0, 70, 88
4, 28078, Note_off_c, 0, 70, 0
4, 28080, Note_on_c, 0, 68, 88
4, 28138, Note_off_c, 0, 68, 0
4, 28140, Note_on_c, 0, 73, 88
4, 28198, Note_off_c, 0, 73, 0
4, 28200, Note_on_c, 0, 72, 88
4, 28258, Note_off_c, 0, 72, 0
4, 28260, Note_on_c, 0, 70, 88
4, 28318, Note_off_c, 0, 70, 0
4, 28320, Note_on_c, 0, 72, 88
4, 28378, Note_off_c, 0, 72, 0
4, 28380, Note_on_c, 0, 77, 88
4, 28438, Note_off_c, 0, 77, 0
4, 28440, Note_on_c, 0, 72, 88
4, 28498, Note_off_c, 0, 72, 0
4, 28500, Note_on_c, 0, 70, 88
4, 28558, Note_off_c, 0, 70, 0
4, 28560, Note_on_c, 0, 68, 88
4, 28618, Note_off_c, 0, 68, 0
4, 28620, Note_on_c, 0, 72, 88
4, 28678, Note_off_c, 0, 72, 0
4, 28680, Note_on_c, 0, 68, 88
4, 28738, Note_off_c, 0, 68, 0
4, 28740, Note_on_c, 0, 67, 88
4, 28798, Note_off_c, 0, 67, 0
4, 28800, Note_on_c, 0, 65, 88
4, 28858, Note_off_c, 0, 65, 0
4, 28860, Note_on_c, 0, 70, 88
4, 28918, Note_off_c, 0, 70, 0
4, 28920, Note_on_c, 0, 69, 88
4, 28978, Note_off_c, 0, 69, 0
4, 28980, Note_on_c, 0, 67, 88
4, 29038, Note_off_c, 0, 67, 0
4, 29040, Note_on_c, 0, 69, 88
4, 29098, Note_off_c, 0, 69, 0
4, 29100, Note_on_c, 0, 72, 88
4, 29158, Note_off_c, 0, 72, 0
4, 29160, Note_on_c, 0, 69, 88
4, 29218, Note_off_c, 0, 69, 0
4, 29220, Note_on_c, 0, 67, 88
4, 29278, Note_off_c, 0, 67, 0
4, 29280, Note_on_c, 0, 65, 88
4, 29338, Note_off_c, 0, 65, 0
4, 29340, Note_on_c, 0, 72, 88
4, 29398, Note_off_c, 0, 72, 0
4, 29400, Note_on_c, 0, 65, 88
4, 29458, Note_off_c, 0, 65, 0
4, 29460, Note_on_c, 0, 63, 88
4, 29518, Note_off_c, 0, 63, 0
4, 29520, Note_on_c, 0, 61, 88
4, 29578, Note_off_c, 0, 61, 0
4, 29580, Note_on_c, 0, 72, 88
4, 29638, Note_off_c, 0, 72, 0
4, 29640, Note_on_c, 0, 70, 88
4, 29698, Note_off_c, 0, 70, 0
4, 29700, Note_on_c, 0, 69, 88
4, 29758, Note_off_c, 0, 69, 0
4, 29760, Note_on_c, 0, 70, 88
4, 29818, Note_off_c, 0, 70, 0
4, 29820, Note_on_c, 0, 73, 88
4, 29878, Note_off_c, 0, 73, 0
4, 29880, Note_on_c, 0, 70, 88
4, 29938, Note_off_c, 0, 70, 0
4, 29940, Note_on_c, 0, 68, 88
4, 29998, Note_off_c, 0, 68, 0
4, 30000, Note_on_c, 0, 66, 88
4, 30058, Note_off_c, 0, 66, 0
4, 30060, Note_on_c, 0, 70, 88
4, 30118, Note_off_c, 0, 70, 0
4, 30120, Note_on_c, 0, 66, 88
4, 30178, Note_off_c, 0, 66, 0
4, 30180, Note_on_c, 0, 65, 88
4, 30238, Note_off_c, 0, 65, 0
4, 30240, Note_on_c, 0, 63, 88
4, 30298, Note_off_c, 0, 63, 0
4, 30300, Note_on_c, 0, 68, 88
4, 30358, Note_off_c, 0, 68, 0
4, 30360, Note_on_c, 0, 66, 88
4, 30418, Note_off_c, 0, 66, 0
4, 30420, Note_on_c, 0, 65, 88
4, 30478, Note_off_c, 0, 65, 0
4, 30480, Note_on_c, 0, 66, 88
4, 30538, Note_off_c, 0, 66, 0
4, 30540, Note_on_c, 0, 70, 88
4, 30598, Note_off_c, 0, 70, 0
4, 30600, Note_on_c, 0, 66, 88
4, 30658, Note_off_c, 0, 66, 0
4, 30660, Note_on_c, 0, 65, 88
4, 30718, Note_off_c, 0, 65, 0
4, 30720, Note_on_c, 0, 63, 88
4, 30778, Note_off_c, 0, 63, 0
4, 30780, Note_on_c, 0, 70, 88
4, 30838, Note_off_c, 0, 70, 0
4, 30840, Note_on_c, 0, 63, 88
4, 30898, Note_off_c, 0, 63, 0
4, 30900, Note_on_c, 0, 61, 88
4, 30958, Note_off_c, 0, 61, 0
4, 30960, Note_on_c, 0, 60, 88
4, 30989, Note_off_c, 0, 60, 0
4, 30990, Note_on_c, 0, 61, 88
4, 31019, Note_off_c, 0, 61, 0
4, 31020, Note_on_c, 0, 63, 88
4, 31078, Note_off_c, 0, 63, 0
4, 31080, Note_on_c, 0, 57, 88
4, 31255, Note_off_c, 0, 57, 0
4, 31260, Note_on_c, 0, 60, 88
4, 31318, Note_off_c, 0, 60, 0
4, 31320, Note_on_c, 0, 63, 88
4, 31378, Note_off_c, 0, 63, 0
4, 31380, Note_on_c, 0, 66, 88
4, 31438, Note_off_c, 0, 66, 0
4, 31440, Note_on_c, 0, 65, 88
4, 31498, Note_off_c, 0, 65, 0
4, 31500, Note_on_c, 0, 63, 88
4, 31558, Note_off_c, 0, 63, 0
4, 31560, Note_on_c, 0, 61, 88
4, 31618, Note_off_c, 0, 61, 0
4, 31620, Note_on_c, 0, 60, 88
4, 31678, Note_off_c, 0, 60, 0
4, 31680, Note_on_c, 0, 61, 88
4, 31709, Note_off_c, 0, 61, 0
4, 31710, Note_on_c, 0, 63, 88
4, 31739, Note_off_c, 0, 63, 0
4, 31740, Note_on_c, 0, 65, 88
4, 31798, Note_off_c, 0, 65, 0
4, 31800, Note_on_c, 0, 58, 88
4, 31975, Note_off_c, 0, 58, 0
4, 31980, Note_on_c, 0, 61, 88
4, 32038, Note_off_c, 0, 61, 0
4, 32040, Note_on_c, 0, 66, 88
4, 32098, Note_off_c, 0, 66, 0
4, 32100, Note_on_c, 0, 70, 88
4, 32158, Note_off_c, 0, 70, 0
4, 32160, Note_on_c, 0, 68, 88
4, 32218, Note_off_c, 0, 68, 0
4, 32220, Note_on_c, 0, 66, 88
4, 32278, Note_off_c, 0, 66, 0
4, 32280, Note_on_c, 0, 65, 88
4, 32338, Note_off_c, 0, 65, 0
4, 32340, Note_on_c, 0, 63, 88
4, 32398, Note_off_c, 0, 63, 0
4, 32400, Note_on_c, 0, 65, 88
4, 32429, Note_off_c, 0, 65, 0
4, 32430, Note_on_c, 0, 66, 88
4, 32459, Note_off_c, 0, 66, 0
4, 32460, Note_on_c, 0, 68, 88
4, 32518, Note_off_c, 0, 68, 0
4, 32520, Note_on_c, 0, 61, 88
4, 32695, Note_off_c, 0, 61, 0
4, 32700, Note_on_c, 0, 65, 88
4, 32758, Note_off_c, 0, 65, 0
4, 32760, Note_on_c, 0, 70, 88
4, 32818, Note_off_c, 0, 70, 0
4, 32820, Note_on_c, 0, 73, 88
4, 32878, Note_off_c, 0, 73, 0
4, 32880, Note_on_c, 0, 72, 88
4, 32938, Note_off_c, 0, 72, 0
4, 32940, Note_on_c, 0, 70, 88
4, 32998, Note_off_c, 0, 70, 0
4, 33000, Note_on_c, 0, 68, 88
4, 33058, Note_off_c, 0, 68, 0
4, 33060, Note_on_c, 0, 66, 88
4, 33118, Note_off_c, 0, 66, 0
4, 33120, Note_on_c, 0, 68, 88
4, 33149, Note_off_c, 0, 68, 0
4, 33150, Note_on_c, 0, 66, 88
4, 33179, Note_off_c, 0, 66, 0
4, 33180, Note_on_c, 0, 65, 88
4, 33238, Note_off_c, 0, 65, 0
4, 33240, Note_on_c, 0, 73, 88
4, 33415, Note_off_c, 0, 73, 0
4, 33420, Note_on_c, 0, 68, 88
4, 33478, Note_off_c, 0, 68, 0
4, 33480, Note_on_c, 0, 73, 88
4, 33538, Note_off_c, 0, 73, 0
4, 33540, Note_on_c, 0, 77, 88
4, 33598, Note_off_c, 0, 77, 0
4, 33600, Note_on_c, 0, 75, 88
4, 33658, Note_off_c, 0, 75, 0
4, 33660, Note_on_c, 0, 73, 88
4, 33718, Note_off_c, 0, 73, 0
4, 33720, Note_on_c, 0, 72, 88
4, 33778, Note_off_c, 0, 72, 0
4, 33780, Note_on_c, 0, 70, 88
4, 33838, Note_off_c, 0, 70, 0
4, 33840, Note_on_c, 0, 72, 88
4, 33869, Note_off_c, 0, 72, 0
4, 33870, Note_on_c, 0, 73, 88
4, 33899, Note_off_c, 0, 73, 0
4, 33900, Note_on_c, 0, 75, 88
4, 33958, Note_off_c, 0, 75, 0
4, 33960, Note_on_c, 0, 68, 88
4, 34018, Note_off_c, 0, 68, 0
4, 34020, Note_on_c, 0, 70, 88
4, 34078, Note_off_c, 0, 70, 0
4, 34080, Note_on_c, 0, 72, 88
4, 34138, Note_off_c, 0, 72, 0
4, 34140, Note_on_c, 0, 73, 88
4, 34198, Note_off_c, 0, 73, 0
4, 34200, Note_on_c, 0, 75, 88
4, 34258, Note_off_c, 0, 75, 0
4, 34260, Note_on_c, 0, 77, 88
4, 34318, Note_off_c, 0, 77, 0
4, 34320, Note_on_c, 0, 78, 88
4, 34378, Note_off_c, 0, 78, 0
4, 34380, Note_on_c, 0, 75, 88
4, 34438, Note_off_c, 0, 75, 0
4, 34440, Note_on_c, 0, 73, 88
4, 34498, Note_off_c, 0, 73, 0
4, 34500, Note_on_c, 0, 72, 88
4, 34558, Note_off_c, 0, 72, 0
4, 34560, Note_on_c, 0, 80, 88
4, 34618, Note_off_c, 0, 80, 0
4, 34620, Note_on_c, 0, 77, 88
4, 34649, Note_off_c, 0, 77, 0
4, 34650, Note_on_c, 0, 75, 88
4, 34679, Note_off_c, 0, 75, 0
4, 34680, Note_on_c, 0, 73, 88
4, 34709, Note_off_c, 0, 73, 0
4, 34710, Note_on_c, 0, 75, 88
4, 34739, Note_off_c, 0, 75, 0
4, 34740, Note_on_c, 0, 77, 88
4, 34798, Note_off_c, 0, 77, 0
4, 34800, Note_on_c, 0, 66, 88
4, 34858, Note_off_c, 0, 66, 0
4, 34860, Note_on_c, 0, 75, 88
4, 34918, Note_off_c, 0, 75, 0
4, 34920, Note_on_c, 0, 72, 88
4, 34978, Note_off_c, 0, 72, 0
4, 34980, Note_on_c, 0, 73, 88
4, 35038, Note_off_c, 0, 73, 0
4, 35040, Note_on_c, 0, 65, 88
4, 35098, Note_off_c, 0, 65, 0
4, 35100, Note_on_c, 0, 73, 88
4, 35158, Note_off_c, 0, 73, 0
4, 35160, Note_on_c, 0, 63, 88
4, 35218, Note_off_c, 0, 63, 0
4, 35220, Note_on_c, 0, 72, 88
4, 35278, Note_off_c, 0, 72, 0
4, 35280, Note_on_c, 0, 73, 88
4, 35393, Note_off_c, 0, 73, 0
4, 35400, Note_on_c, 0, 73, 88
4, 35575, Note_off_c, 0, 73, 0
4, 35580, Note_on_c, 0, 72, 88
4, 35638, Note_off_c, 0, 72, 0
4, 35640, Note_on_c, 0, 73, 88
4, 35815, Note_off_c, 0, 73, 0
4, 35820, Note_on_c, 0, 72, 88
4, 35878, Note_off_c, 0, 72, 0
4, 35880, Note_on_c, 0, 73, 88
4, 35996, Note_off_c, 0, 73, 0
4, 36060, Note_on_c, 0, 73, 88
4, 36118, Note_off_c, 0, 73, 0
4, 36120, Note_on_c, 0, 71, 88
4, 36178, Note_off_c, 0, 71, 0
4, 36180, Note_on_c, 0, 70, 88
4, 36238, Note_off_c, 0, 70, 0
4, 36240, Note_on_c, 0, 71, 88
4, 36298, Note_off_c, 0, 71, 0
4, 36300, Note_on_c, 0, 77, 88
4, 36358, Note_off_c, 0, 77, 0
4, 36360, Note_on_c, 0, 80, 88
4, 36418, Note_off_c, 0, 80, 0
4, 36420, Note_on_c, 0, 78, 88
4, 36478, Note_off_c, 0, 78, 0
4, 36480, Note_on_c, 0, 77, 88
4, 36538, Note_off_c, 0, 77, 0
4, 36540, Note_on_c, 0, 75, 88
4, 36598, Note_off_c, 0, 75, 0
4, 36600, Note_on_c, 0, 73, 88
4, 36658, Note_off_c, 0, 73, 0
4, 36660, Note_on_c, 0, 71, 88
4, 36718, Note_off_c, 0, 71, 0
4, 36720, Note_on_c, 0, 70, 88
4, 36778, Note_off_c, 0, 70, 0
4, 36780, Note_on_c, 0, 77, 88
4, 36809, Note_off_c, 0, 77, 0
4, 36810, Note_on_c, 0, 78, 88
4, 36839, Note_off_c, 0, 78, 0
4, 36840, Note_on_c, 0, 80, 88
4, 37015, Note_off_c, 0, 80, 0
4, 37020, Note_on_c, 0, 78, 88
4, 37078, Note_off_c, 0, 78, 0
4, 37080, Note_on_c, 0, 80, 88
4, 37255, Note_off_c, 0, 80, 0
4, 37260, Note_on_c, 0, 78, 88
4, 37318, Note_off_c, 0, 78, 0
4, 37320, Note_on_c, 0, 80, 88
4, 37436, Note_off_c, 0, 80, 0
4, 37500, Note_on_c, 0, 80, 88
4, 37558, Note_off_c, 0, 80, 0
4, 37560, Note_on_c, 0, 78, 88
4, 37618, Note_off_c, 0, 78, 0
4, 37620, Note_on_c, 0, 77, 88
4, 37678, Note_off_c, 0, 77, 0
4, 37680, Note_on_c, 0, 78, 88
4, 37738, Note_off_c, 0, 78, 0
4, 37740, Note_on_c, 0, 82, 88
4, 37798, Note_off_c, 0, 82, 0
4, 37800, Note_on_c, 0, 75, 88
4, 37858, Note_off_c, 0, 75, 0
4, 37860, Note_on_c, 0, 77, 88
4, 37918, Note_off_c, 0, 77, 0
4, 37920, Note_on_c, 0, 78, 88
4, 37978, Note_off_c, 0, 78, 0
4, 37980, Note_on_c, 0, 75, 88
4, 38038, Note_off_c, 0, 75, 0
4, 38040, Note_on_c, 0, 81, 88
4, 38098, Note_off_c, 0, 81, 0
4, 38100, Note_on_c, 0, 82, 88
4, 38158, Note_off_c, 0, 82, 0
4, 38160, Note_on_c, 0, 84, 88
4, 38189, Note_off_c, 0, 84, 0
4, 38190, Note_on_c, 0, 77, 88
4, 38219, Note_off_c, 0, 77, 0
4, 38220, Note_on_c, 0, 75, 88
4, 38249, Note_off_c, 0, 75, 0
4, 38250, Note_on_c, 0, 73, 88
4, 38279, Note_off_c, 0, 73, 0
4, 38280, Note_on_c, 0, 75, 88
4, 38455, Note_off_c, 0, 75, 0
4, 38460, Note_on_c, 0, 73, 88
4, 38518, Note_off_c, 0, 73, 0
4, 38520, Note_on_c, 0, 75, 88
4, 38695, Note_off_c, 0, 75, 0
4, 38700, Note_on_c, 0, 73, 88
4, 38758, Note_off_c, 0, 73, 0
4, 38760, Note_on_c, 0, 75, 88
4, 38876, Note_off_c, 0, 75, 0
4, 38940, Note_on_c, 0, 75, 88
4, 38998, Note_off_c, 0, 75, 0
4, 39000, Note_on_c, 0, 73, 88
4, 39058, Note_off_c, 0, 73, 0
4, 39060, Note_on_c, 0, 72, 88
4, 39118, Note_off_c, 0, 72, 0
4, 39120, Note_on_c, 0, 73, 88
4, 39178, Note_off_c, 0, 73, 0
4, 39180, Note_on_c, 0, 77, 88
4, 39238, Note_off_c, 0, 77, 0
4, 39240, Note_on_c, 0, 70, 88
4, 39298, Note_off_c, 0, 70, 0
4, 39300, Note_on_c, 0, 72, 88
4, 39358, Note_off_c, 0, 72, 0
4, 39360, Note_on_c, 0, 73, 88
4, 39418, Note_off_c, 0, 73, 0
4, 39420, Note_on_c, 0, 70, 88
4, 39478, Note_off_c, 0, 70, 0
4, 39480, Note_on_c, 0, 76, 88
4, 39538, Note_off_c, 0, 76, 0
4, 39540, Note_on_c, 0, 77, 88
4, 39598, Note_off_c, 0, 77, 0
4, 39600, Note_on_c, 0, 79, 88
4, 39629, Note_off_c, 0, 79, 0
4, 39630, Note_on_c, 0, 72, 88
4, 39659, Note_off_c, 0, 72, 0
4, 39660, Note_on_c, 0, 70, 88
4, 39689, Note_off_c, 0, 70, 0
4, 39690, Note_on_c, 0, 68, 88
4, 39719, Note_off_c, 0, 68, 0
4, 39720, Note_on_c, 0, 70, 88
4, 39895, Note_off_c, 0, 70, 0
4, 39900, Note_on_c, 0, 68, 88
4, 39958, Note_off_c, 0, 68, 0
4, 39960, Note_on_c, 0, 70, 88
4, 40135, Note_off_c, 0, 70, 0
4, 40140, Note_on_c, 0, 68, 88
4, 40198, Note_off_c, 0, 68, 0
4, 40200, Note_on_c, 0, 70, 88
4, 40316, Note_off_c, 0, 70, 0
4, 40350, Note_on_c, 0, 70, 88
4, 40379, Note_off_c, 0, 70, 0
4, 40380, Note_on_c, 0, 68, 88
4, 40409, Note_off_c, 0, 68, 0
4, 40410, Note_on_c, 0, 67, 88
4, 40439, Note_off_c, 0, 67, 0
4, 40440, Note_on_c, 0, 68, 88
4, 40586, Note_off_c, 0, 68, 0
4, 40590, Note_on_c, 0, 67, 88
4, 40619, Note_off_c, 0, 67, 0
4, 40620, Note_on_c, 0, 65, 88
4, 40649, Note_off_c, 0, 65, 0
4, 40650, Note_on_c, 0, 64, 88
4, 40679, Note_off_c, 0, 64, 0
4, 40680, Note_on_c, 0, 65, 88
4, 40738, Note_off_c, 0, 65, 0
4, 40740, Note_on_c, 0, 68, 88
4, 40798, Note_off_c, 0, 68, 0
4, 40800, Note_on_c, 0, 73, 88
4, 40858, Note_off_c, 0, 73, 0
4, 40860, Note_on_c, 0, 68, 88
4, 40918, Note_off_c, 0, 68, 0
4, 40920, Note_on_c, 0, 67, 88
4, 40978, Note_off_c, 0, 67, 0
4, 40980, Note_on_c, 0, 65, 88
4, 41038, Note_off_c, 0, 65, 0
4, 41040, Note_on_c, 0, 63, 88
4, 41098, Note_off_c, 0, 63, 0
4, 41100, Note_on_c, 0, 70, 88
4, 41129, Note_off_c, 0, 70, 0
4, 41130, Note_on_c, 0, 72, 88
4, 41159, Note_off_c, 0, 72, 0
4, 41160, Note_on_c, 0, 73, 88
4, 41335, Note_off_c, 0, 73, 0
4, 41340, Note_on_c, 0, 72, 88
4, 41398, Note_off_c, 0, 72, 0
4, 41400, Note_on_c, 0, 73, 88
4, 41575, Note_off_c, 0, 73, 0
4, 41580, Note_on_c, 0, 72, 88
4, 41638, Note_off_c, 0, 72, 0
4, 41640, Note_on_c, 0, 73, 88
4, 41789, Note_off_c, 0, 73, 0
4, 41790, Note_on_c, 0, 72, 88
4, 41819, Note_off_c, 0, 72, 0
4, 41820, Note_on_c, 0, 70, 88
4, 41849, Note_off_c, 0, 70, 0
4, 41850, Note_on_c, 0, 68, 88
4, 41879, Note_off_c, 0, 68, 0
4, 41880, Note_on_c, 0, 78, 88
4, 42113, Note_off_c, 0, 78, 0
4, 42120, Note_on_c, 0, 78, 88
4, 42353, Note_off_c, 0, 78, 0
4, 42360, Note_on_c, 0, 78, 88
4, 42476, Note_off_c, 0, 78, 0
4, 42540, Note_on_c, 0, 78, 88
4, 42598, Note_off_c, 0, 78, 0
4, 42600, Note_on_c, 0, 77, 88
4, 42658, Note_off_c, 0, 77, 0
4, 42660, Note_on_c, 0, 75, 88
4, 42718, Note_off_c, 0, 75, 0
4, 42720, Note_on_c, 0, 77, 88
4, 42778, Note_off_c, 0, 77, 0
4, 42780, Note_on_c, 0, 80, 88
4, 42838, Note_off_c, 0, 80, 0
4, 42840, Note_on_c, 0, 73, 88
4, 42898, Note_off_c, 0, 73, 0
4, 42900, Note_on_c, 0, 75, 88
4, 42958, Note_off_c, 0, 75, 0
4, 42960, Note_on_c, 0, 77, 88
4, 43018, Note_off_c, 0, 77, 0
4, 43020, Note_on_c, 0, 73, 88
4, 43078, Note_off_c, 0, 73, 0
4, 43080, Note_on_c, 0, 70, 88
4, 43138, Note_off_c, 0, 70, 0
4, 43140, Note_on_c, 0, 72, 88
4, 43198, Note_off_c, 0, 72, 0
4, 43200, Note_on_c, 0, 73, 88
4, 43258, Note_off_c, 0, 73, 0
4, 43260, Note_on_c, 0, 70, 88
4, 43318, Note_off_c, 0, 70, 0
4, 43320, Note_on_c, 0, 63, 88
4, 43378, Note_off_c, 0, 63, 0
4, 43380, Note_on_c, 0, 65, 88
4, 43438, Note_off_c, 0, 65, 0
4, 43440, Note_on_c, 0, 67, 88
4, 43498, Note_off_c, 0, 67, 0
4, 43500, Note_on_c, 0, 68, 88
4, 43558, Note_off_c, 0, 68, 0
4, 43560, Note_on_c, 0, 70, 88
4, 43618, Note_off_c, 0, 70, 0
4, 43620, Note_on_c, 0, 72, 88
4, 43678, Note_off_c, 0, 72, 0
4, 43680, Note_on_c, 0, 73, 88
4, 43738, Note_off_c, 0, 73, 0
4, 43740, Note_on_c, 0, 72, 88
4, 43798, Note_off_c, 0, 72, 0
4, 43800, Note_on_c, 0, 70, 88
4, 43858, Note_off_c, 0, 70, 0
4, 43860, Note_on_c, 0, 73, 88
4, 43918, Note_off_c, 0, 73, 0
4, 43920, Note_on_c, 0, 72, 88
4, 43949, Note_off_c, 0, 72, 0
4, 43950, Note_on_c, 0, 75, 88
4, 43979, Note_off_c, 0, 75, 0
4, 43980, Note_on_c, 0, 77, 88
4, 44009, Note_off_c, 0, 77, 0
4, 44010, Note_on_c, 0, 79, 88
4, 44039, Note_off_c, 0, 79, 0
4, 44040, Note_on_c, 0, 80, 88
4, 44098, Note_off_c, 0, 80, 0
4, 44100, Note_on_c, 0, 72, 88
4, 44158, Note_off_c, 0, 72, 0
4, 44160, Note_on_c, 0, 75, 88
4, 44218, Note_off_c, 0, 75, 0
4, 44220, Note_on_c, 0, 74, 88
4, 44278, Note_off_c, 0, 74, 0
4, 44280, Note_on_c, 0, 79, 88
4, 44338, Note_off_c, 0, 79, 0
4, 44340, Note_on_c, 0, 77, 88
4, 44398, Note_off_c, 0, 77, 0
4, 44400, Note_on_c, 0, 75, 88
4, 44458, Note_off_c, 0, 75, 0
4, 44460, Note_on_c, 0, 74, 88
4, 44518, Note_off_c, 0, 74, 0
4, 44520, Note_on_c, 0, 72, 88
4, 44578, Note_off_c, 0, 72, 0
4, 44580, Note_on_c, 0, 70, 88
4, 44638, Note_off_c, 0, 70, 0
4, 44640, Note_on_c, 0, 68, 88
4, 44669, Note_off_c, 0, 68, 0
4, 44670, Note_on_c, 0, 67, 88
4, 44699, Note_off_c, 0, 67, 0
4, 44700, Note_on_c, 0, 65, 88
4, 44758, Note_off_c, 0, 65, 0
4, 44760, Note_on_c, 0, 67, 88
4, 44818, Note_off_c, 0, 67, 0
4, 44820, Note_on_c, 0, 70, 88
4, 44878, Note_off_c, 0, 70, 0
4, 44880, Note_on_c, 0, 63, 88
4, 44996, Note_off_c, 0, 63, 0
4, 45420, Note_on_c, 0, 61, 88
4, 45478, Note_off_c, 0, 61, 0
4, 45480, Note_on_c, 0, 60, 88
4, 45538, Note_off_c, 0, 60, 0
4, 45540, Note_on_c, 0, 58, 88
4, 45598, Note_off_c, 0, 58, 0
4, 45600, Note_on_c, 0, 60, 88
4, 45658, Note_off_c, 0, 60, 0
4, 45660, Note_on_c, 0, 63, 88
4, 45718, Note_off_c, 0, 63, 0
4, 45720, Note_on_c, 0, 60, 88
4, 45778, Note_off_c, 0, 60, 0
4, 45780, Note_on_c, 0, 58, 88
4, 45838, Note_off_c, 0, 58, 0
4, 45840, Note_on_c, 0, 56, 88
4, 45898, Note_off_c, 0, 56, 0
4, 45900, Note_on_c, 0, 66, 88
4, 45958, Note_off_c, 0, 66, 0
4, 45960, Note_on_c, 0, 65, 88
4, 46018, Note_off_c, 0, 65, 0
4, 46020, Note_on_c, 0, 63, 88
4, 46078, Note_off_c, 0, 63, 0
4, 46080, Note_on_c, 0, 65, 88
4, 46226, Note_off_c, 0, 65, 0
4, 46230, Note_on_c, 0, 68, 88
4, 46259, Note_off_c, 0, 68, 0
4, 46260, Note_on_c, 0, 70, 88
4, 46289, Note_off_c, 0, 70, 0
4, 46290, Note_on_c, 0, 72, 88
4, 46319, Note_off_c, 0, 72, 0
4, 46320, Note_on_c, 0, 73, 88
4, 46466, Note_off_c, 0, 73, 0
4, 46470, Note_on_c, 0, 68, 88
4, 46499, Note_off_c, 0, 68, 0
4, 46500, Note_on_c, 0, 73, 88
4, 46529, Note_off_c, 0, 73, 0
4, 46530, Note_on_c, 0, 75, 88
4, 46559, Note_off_c, 0, 75, 0
4, 46560, Note_on_c, 0, 77, 88
4, 46858, Note_off_c, 0, 77, 0
4, 46860, Note_on_c, 0, 63, 88
4, 46918, Note_off_c, 0, 63, 0
4, 46920, Note_on_c, 0, 62, 88
4, 46978, Note_off_c, 0, 62, 0
4, 46980, Note_on_c, 0, 60, 88
4, 47038, Note_off_c, 0, 60, 0
4, 47040, Note_on_c, 0, 62, 88
4, 47098, Note_off_c, 0, 62, 0
4, 47100, Note_on_c, 0, 65, 88
4, 47158, Note_off_c, 0, 65, 0
4, 47160, Note_on_c, 0, 62, 88
4, 47218, Note_off_c, 0, 62, 0
4, 47220, Note_on_c, 0, 60, 88
4, 47278, Note_off_c, 0, 60, 0
4, 47280, Note_on_c, 0, 58, 88
4, 47338, Note_off_c, 0, 58, 0
4, 47340, Note_on_c, 0, 68, 88
4, 47398, Note_off_c, 0, 68, 0
4, 47400, Note_on_c, 0, 67, 88
4, 47458, Note_off_c, 0, 67, 0
4, 47460, Note_on_c, 0, 65, 88
4, 47518, Note_off_c, 0, 65, 0
4, 47520, Note_on_c, 0, 67, 88
4, 47666, Note_off_c, 0, 67, 0
4, 47670, Note_on_c, 0, 70, 88
4, 47699, Note_off_c, 0, 70, 0
4, 47700, Note_on_c, 0, 75, 88
4, 47729, Note_off_c, 0, 75, 0
4, 47730, Note_on_c, 0, 77, 88
4, 47759, Note_off_c, 0, 77, 0
4, 47760, Note_on_c, 0, 79, 88
4, 47906, Note_off_c, 0, 79, 0
4, 47910, Note_on_c, 0, 75, 88
4, 47939, Note_off_c, 0, 75, 0
4, 47940, Note_on_c, 0, 79, 88
4, 47969, Note_off_c, 0, 79, 0
4, 47970, Note_on_c, 0, 80, 88
4, 47999, Note_off_c, 0, 80, 0
4, 48000, Note_on_c, 0, 82, 88
4, 48146, Note_off_c, 0, 82, 0
4, 48150, Note_on_c, 0, 75, 88
4, 48179, Note_off_c, 0, 75, 0
4, 48180, Note_on_c, 0, 82, 88
4, 48209, Note_off_c, 0, 82, 0
4, 48210, Note_on_c, 0, 84, 88
4, 48239, Note_off_c, 0, 84, 0
4, 48240, Note_on_c, 0, 85, 88
4, 48298, Note_off_c, 0, 85, 0
4, 48300, Note_on_c, 0, 84, 88
4, 48358, Note_off_c, 0, 84, 0
4, 48360, Note_on_c, 0, 82, 88
4, 48418, Note_off_c, 0, 82, 0
4, 48420, Note_on_c, 0, 80, 88
4, 48478, Note_off_c, 0, 80, 0
4, 48480, Note_on_c, 0, 79, 88
4, 48538, Note_off_c, 0, 79, 0
4, 48540, Note_on_c, 0, 82, 88
4, 48598, Note_off_c, 0, 82, 0
4, 48600, Note_on_c, 0, 79, 88
4, 48658, Note_off_c, 0, 79, 0
4, 48660, Note_on_c, 0, 77, 88
4, 48718, Note_off_c, 0, 77, 0
4, 48720, Note_on_c, 0, 75, 88
4, 48778, Note_off_c, 0, 75, 0
4, 48780, Note_on_c, 0, 82, 88
4, 48838, Note_off_c, 0, 82, 0
4, 48840, Note_on_c, 0, 75, 88
4, 48898, Note_off_c, 0, 75, 0
4, 48900, Note_on_c, 0, 73, 88
4, 48958, Note_off_c, 0, 73, 0
4, 48960, Note_on_c, 0, 72, 88
4, 49106, Note_off_c, 0, 72, 0
4, 49110, Note_on_c, 0, 73, 88
4, 49139, Note_off_c, 0, 73, 0
4, 49140, Note_on_c, 0, 75, 88
4, 49169, Note_off_c, 0, 75, 0
4, 49170, Note_on_c, 0, 77, 88
4, 49199, Note_off_c, 0, 77, 0
4, 49200, Note_on_c, 0, 78, 88
4, 49375, Note_off_c, 0, 78, 0
4, 49380, Note_on_c, 0, 68, 88
4, 49438, Note_off_c, 0, 68, 0
4, 49440, Note_on_c, 0, 78, 88
4, 49733, Note_off_c, 0, 78, 0
4, 49740, Note_on_c, 0, 78, 88
4, 49798, Note_off_c, 0, 78, 0
4, 49800, Note_on_c, 0, 77, 88
4, 49858, Note_off_c, 0, 77, 0
4, 49860, Note_on_c, 0, 75, 88
4, 49918, Note_off_c, 0, 75, 0
4, 49920, Note_on_c, 0, 73, 88
4, 49978, Note_off_c, 0, 73, 0
4, 49980, Note_on_c, 0, 77, 88
4, 50038, Note_off_c, 0, 77, 0
4, 50040, Note_on_c, 0, 73, 88
4, 50098, Note_off_c, 0, 73, 0
4, 50100, Note_on_c, 0, 72, 88
4, 50158, Note_off_c, 0, 72, 0
4, 50160, Note_on_c, 0, 70, 88
4, 50218, Note_off_c, 0, 70, 0
4, 50220, Note_on_c, 0, 77, 88
4, 50278, Note_off_c, 0, 77, 0
4, 50280, Note_on_c, 0, 70, 88
4, 50338, Note_off_c, 0, 70, 0
4, 50340, Note_on_c, 0, 68, 88
4, 50398, Note_off_c, 0, 68, 0
4, 50400, Note_on_c, 0, 67, 88
4, 50458, Note_off_c, 0, 67, 0
4, 50460, Note_on_c, 0, 77, 88
4, 50518, Note_off_c, 0, 77, 0
4, 50520, Note_on_c, 0, 75, 88
4, 50578, Note_off_c, 0, 75, 0
4, 50580, Note_on_c, 0, 73, 88
4, 50638, Note_off_c, 0, 73, 0
4, 50640, Note_on_c, 0, 72, 88
4, 50698, Note_off_c, 0, 72, 0
4, 50700, Note_on_c, 0, 75, 88
4, 50758, Note_off_c, 0, 75, 0
4, 50760, Note_on_c, 0, 72, 88
4, 50818, Note_off_c, 0, 72, 0
4, 50820, Note_on_c, 0, 70, 88
4, 50878, Note_off_c, 0, 70, 0
4, 50880, Note_on_c, 0, 68, 88
4, 50938, Note_off_c, 0, 68, 0
4, 50940, Note_on_c, 0, 75, 88
4, 50998, Note_off_c, 0, 75, 0
4, 51000, Note_on_c, 0, 68, 88
4, 51058, Note_off_c, 0, 68, 0
4, 51060, Note_on_c, 0, 67, 88
4, 51118, Note_off_c, 0, 67, 0
4, 51120, Note_on_c, 0, 65, 88
4, 51178, Note_off_c, 0, 65, 0
4, 51180, Note_on_c, 0, 75, 88
4, 51238, Note_off_c, 0, 75, 0
4, 51240, Note_on_c, 0, 73, 88
4, 51298, Note_off_c, 0, 73, 0
4, 51300, Note_on_c, 0, 72, 88
4, 51358, Note_off_c, 0, 72, 0
4, 51360, Note_on_c, 0, 70, 88
4, 51418, Note_off_c, 0, 70, 0
4, 51420, Note_on_c, 0, 73, 88
4, 51478, Note_off_c, 0, 73, 0
4, 51480, Note_on_c, 0, 70, 88
4, 51538, Note_off_c, 0, 70, 0
4, 51540, Note_on_c, 0, 68, 88
4, 51598, Note_off_c, 0, 68, 0
4, 51600, Note_on_c, 0, 67, 88
4, 51658, Note_off_c, 0, 67, 0
4, 51660, Note_on_c, 0, 73, 88
4, 51718, Note_off_c, 0, 73, 0
4, 51720, Note_on_c, 0, 67, 88
4, 51778, Note_off_c, 0, 67, 0
4, 51780, Note_on_c, 0, 65, 88
4, 51838, Note_off_c, 0, 65, 0
4, 51840, Note_on_c, 0, 63, 88
4, 51898, Note_off_c, 0, 63, 0
4, 51900, Note_on_c, 0, 73, 88
4, 51958, Note_off_c, 0, 73, 0
4, 51960, Note_on_c, 0, 71, 88
4, 52018, Note_off_c, 0, 71, 0
4, 52020, Note_on_c, 0, 70, 88
4, 52078, Note_off_c, 0, 70, 0
4, 52080, Note_on_c, 0, 68, 88
4, 52138, Note_off_c, 0, 68, 0
4, 52140, Note_on_c, 0, 71, 88
4, 52198, Note_off_c, 0, 71, 0
4, 52200, Note_on_c, 0, 68, 88
4, 52258, Note_off_c, 0, 68, 0
4, 52260, Note_on_c, 0, 66, 88
4, 52318, Note_off_c, 0, 66, 0
4, 52320, Note_on_c, 0, 64, 88
4, 52378, Note_off_c, 0, 64, 0
4, 52380, Note_on_c, 0, 71, 88
4, 52438, Note_off_c, 0, 71, 0
4, 52440, Note_on_c, 0, 64, 88
4, 52498, Note_off_c, 0, 64, 0
4, 52500, Note_on_c, 0, 63, 88
4, 52558, Note_off_c, 0, 63, 0
4, 52560, Note_on_c, 0, 61, 88
4, 52618, Note_off_c, 0, 61, 0
4, 52620, Note_on_c, 0, 71, 88
4, 52678, Note_off_c, 0, 71, 0
4, 52680, Note_on_c, 0, 69, 88
4, 52738, Note_off_c, 0, 69, 0
4, 52740, Note_on_c, 0, 68, 88
4, 52798, Note_off_c, 0, 68, 0
4, 52800, Note_on_c, 0, 69, 88
4, 52829, Note_off_c, 0, 69, 0
4, 52830, Note_on_c, 0, 64, 88
4, 52859, Note_off_c, 0, 64, 0
4, 52860, Note_on_c, 0, 66, 88
4, 52889, Note_off_c, 0, 66, 0
4, 52890, Note_on_c, 0, 68, 88
4, 52919, Note_off_c, 0, 68, 0
4, 52920, Note_on_c, 0, 69, 88
4, 52949, Note_off_c, 0, 69, 0
4, 52950, Note_on_c, 0, 71, 88
4, 52979, Note_off_c, 0, 71, 0
4, 52980, Note_on_c, 0, 73, 88
4, 53009, Note_off_c, 0, 73, 0
4, 53010, Note_on_c, 0, 74, 88
4, 53039, Note_off_c, 0, 74, 0
4, 53040, Note_on_c, 0, 76, 88
4, 53098, Note_off_c, 0, 76, 0
4, 53100, Note_on_c, 0, 73, 88
4, 53158, Note_off_c, 0, 73, 0
4, 53160, Note_on_c, 0, 69, 88
4, 53218, Note_off_c, 0, 69, 0
4, 53220, Note_on_c, 0, 68, 88
4, 53278, Note_off_c, 0, 68, 0
4, 53280, Note_on_c, 0, 68, 88
4, 53396, Note_off_c, 0, 68, 0
4, 53400, Note_on_c, 0, 67, 88
4, 53516, Note_off_c, 0, 67, 0
4, 53700, Note_on_c, 0, 77, 88
4, 53753, Note_off_c, 0, 77, 0
4, 53760, Note_on_c, 0, 77, 88
4, 53876, Note_off_c, 0, 77, 0
4, 53880, Note_on_c, 0, 75, 88
4, 53996, Note_off_c, 0, 75, 0
4, 54180, Note_on_c, 0, 65, 88
4, 54238, Note_off_c, 0, 65, 0
4, 54240, Note_on_c, 0, 68, 88
4, 54473, Note_off_c, 0, 68, 0
4, 54480, Note_on_c, 0, 68, 88
4, 54498, Note_off_c, 0, 68, 0
4, 54499, Note_on_c, 0, 67, 88
4, 54521, Note_off_c, 0, 67, 0
4, 54521, Note_on_c, 0, 68, 88
4, 54543, Note_off_c, 0, 68, 0
4, 54544, Note_on_c, 0, 67, 88
4, 54562, Note_off_c, 0, 67, 0
4, 54563, Note_on_c, 0, 68, 88
4, 54581, Note_on_c, 0, 67, 88
4, 54581, Note_off_c, 0, 68, 0
4, 54599, Note_off_c, 0, 67, 0
4, 54600, Note_on_c, 0, 68, 88
4, 54653, Note_off_c, 0, 68, 0
4, 54660, Note_on_c, 0, 68, 88
4, 54718, Note_off_c, 0, 68, 0
4, 54720, Note_on_c, 0, 68, 88
4, 54954, Note_off_c, 0, 68, 0
4, 54954, End_track
5, 0, Start_track
5, 0, Title_t, "Track 2"
5, 0, Program_c, 1, 6
5, 0, Note_on_c, 1, 68, 88
5, 113, Note_off_c, 1, 68, 0
5, 120, Note_on_c, 1, 68, 88
5, 295, Note_off_c, 1, 68, 0
5, 300, Note_on_c, 1, 67, 88
5, 358, Note_off_c, 1, 67, 0
5, 360, Note_on_c, 1, 68, 88
5, 535, Note_off_c, 1, 68, 0
5, 540, Note_on_c, 1, 67, 88
5, 598, Note_off_c, 1, 67, 0
5, 600, Note_on_c, 1, 68, 88
5, 716, Note_off_c, 1, 68, 0
5, 1500, Note_on_c, 1, 68, 88
5, 1793, Note_off_c, 1, 68, 0
5, 1800, Note_on_c, 1, 68, 88
5, 2033, Note_off_c, 1, 68, 0
5, 2040, Note_on_c, 1, 68, 88
5, 2156, Note_off_c, 1, 68, 0
5, 6540, Note_on_c, 1, 65, 88
5, 6833, Note_off_c, 1, 65, 0
5, 6840, Note_on_c, 1, 65, 88
5, 7015, Note_off_c, 1, 65, 0
5, 11580, Note_on_c, 1, 70, 88
5, 11873, Note_off_c, 1, 70, 0
5, 11880, Note_on_c, 1, 70, 88
5, 12113, Note_off_c, 1, 70, 0
5, 12120, Note_on_c, 1, 70, 88
5, 12236, Note_off_c, 1, 70, 0
5, 12960, Note_on_c, 1, 68, 88
5, 13073, Note_off_c, 1, 68, 0
5, 13080, Note_on_c, 1, 68, 88
5, 13255, Note_off_c, 1, 68, 0
5, 13260, Note_on_c, 1, 67, 88
5, 13318, Note_off_c, 1, 67, 0
5, 13320, Note_on_c, 1, 68, 88
5, 13495, Note_off_c, 1, 68, 0
5, 13500, Note_on_c, 1, 67, 88
5, 13558, Note_off_c, 1, 67, 0
5, 13560, Note_on_c, 1, 68, 88
5, 13676, Note_off_c, 1, 68, 0
5, 16980, Note_on_c, 1, 75, 88
5, 17033, Note_off_c, 1, 75, 0
5, 17040, Note_on_c, 1, 75, 88
5, 17338, Note_off_c, 1, 75, 0
5, 18420, Note_on_c, 1, 73, 88
5, 18473, Note_off_c, 1, 73, 0
5, 18480, Note_on_c, 1, 73, 88
5, 18778, Note_off_c, 1, 73, 0
5, 19860, Note_on_c, 1, 72, 88
5, 19913, Note_off_c, 1, 72, 0
5, 19920, Note_on_c, 1, 72, 88
5, 20218, Note_off_c, 1, 72, 0
5, 23640, Note_on_c, 1, 65, 88
5, 23698, Note_off_c, 1, 65, 0
5, 23700, Note_on_c, 1, 64, 88
5, 23758, Note_off_c, 1, 64, 0
5, 23760, Note_on_c, 1, 65, 88
5, 23873, Note_off_c, 1, 65, 0
5, 23880, Note_on_c, 1, 65, 88
5, 24055, Note_off_c, 1, 65, 0
5, 24060, Note_on_c, 1, 64, 88
5, 24118, Note_off_c, 1, 64, 0
5, 24120, Note_on_c, 1, 65, 88
5, 24295, Note_off_c, 1, 65, 0
5, 24300, Note_on_c, 1, 64, 88
5, 24358, Note_off_c, 1, 64, 0
5, 24360, Note_on_c, 1, 65, 88
5, 24476, Note_off_c, 1, 65, 0
5, 25260, Note_on_c, 1, 65, 88
5, 25553, Note_off_c, 1, 65, 0
5, 25560, Note_on_c, 1, 65, 88
5, 25793, Note_off_c, 1, 65, 0
5, 25800, Note_on_c, 1, 65, 88
5, 25916, Note_off_c, 1, 65, 0
5, 35340, Note_on_c, 1, 68, 88
5, 35633, Note_off_c, 1, 68, 0
5, 35640, Note_on_c, 1, 68, 88
5, 35873, Note_off_c, 1, 68, 0
5, 35880, Note_on_c, 1, 68, 88
5, 35996, Note_off_c, 1, 68, 0
5, 36780, Note_on_c, 1, 77, 88
5, 37073, Note_off_c, 1, 77, 0
5, 37080, Note_on_c, 1, 77, 88
5, 37313, Note_off_c, 1, 77, 0
5, 37320, Note_on_c, 1, 77, 88
5, 37436, Note_off_c, 1, 77, 0
5, 38280, Note_on_c, 1, 72, 88
5, 38513, Note_off_c, 1, 72, 0
5, 38520, Note_on_c, 1, 72, 88
5, 38753, Note_off_c, 1, 72, 0
5, 38760, Note_on_c, 1, 72, 88
5, 38876, Note_off_c, 1, 72, 0
5, 39720, Note_on_c, 1, 67, 88
5, 39833, Note_off_c, 1, 67, 0
5, 39840, Note_on_c, 1, 67, 88
5, 39953, Note_off_c, 1, 67, 0
5, 39960, Note_on_c, 1, 67, 88
5, 40193, Note_off_c, 1, 67, 0
5, 40200, Note_on_c, 1, 67, 88
5, 40316, Note_off_c, 1, 67, 0
5, 41100, Note_on_c, 1, 70, 88
5, 41393, Note_off_c, 1, 70, 0
5, 41400, Note_on_c, 1, 70, 88
5, 41633, Note_off_c, 1, 70, 0
5, 41640, Note_on_c, 1, 70, 88
5, 41818, Note_off_c, 1, 70, 0
5, 41880, Note_on_c, 1, 75, 88
5, 42113, Note_off_c, 1, 75, 0
5, 42120, Note_on_c, 1, 75, 88
5, 42353, Note_off_c, 1, 75, 0
5, 42360, Note_on_c, 1, 75, 88
5, 42476, Note_off_c, 1, 75, 0
5, 49380, Note_on_c, 1, 68, 88
5, 49440, Note_on_c, 1, 72, 88
5, 49440, Note_on_c, 1, 75, 88
5, 49738, Note_off_c, 1, 68, 0
5, 49738, Note_off_c, 1, 72, 0
5, 49738, Note_off_c, 1, 75, 0
5, 53280, Note_on_c, 1, 63, 88
5, 53514, Note_off_c, 1, 63, 0
5, 53700, Note_on_c, 1, 73, 88
5, 53758, Note_off_c, 1, 73, 0
5, 53760, Note_on_c, 1, 72, 88
5, 53994, Note_off_c, 1, 72, 0
5, 54180, Note_on_c, 1, 65, 88
5, 54238, Note_off_c, 1, 65, 0
5, 54240, Note_on_c, 1, 63, 88
5, 54710, Note_off_c, 1, 63, 0
5, 54720, Note_on_c, 1, 63, 88
5, 54954, Note_off_c, 1, 63, 0
5, 54954, End_track
6, 0, Start_track
6, 0, Title_t, "Track 3"
6, 0, Program_c, 2, 6
6, 60, Note_on_c, 2, 63, 88
6, 353, Note_off_c, 2, 63, 0
6, 360, Note_on_c, 2, 63, 88
6, 593, Note_off_c, 2, 63, 0
6, 600, Note_on_c, 2, 63, 88
6, 716, Note_off_c, 2, 63, 0
6, 1440, Note_on_c, 2, 65, 88
6, 1553, Note_off_c, 2, 65, 0
6, 1560, Note_on_c, 2, 65, 88
6, 1793, Note_off_c, 2, 65, 0
6, 1800, Note_on_c, 2, 65, 88
6, 2033, Note_off_c, 2, 65, 0
6, 2040, Note_on_c, 2, 65, 88
6, 2156, Note_off_c, 2, 65, 0
6, 6480, Note_on_c, 2, 62, 88
6, 6833, Note_off_c, 2, 62, 0
6, 6840, Note_on_c, 2, 62, 88
6, 7015, Note_off_c, 2, 62, 0
6, 11520, Note_on_c, 2, 67, 88
6, 11633, Note_off_c, 2, 67, 0
6, 11640, Note_on_c, 2, 67, 88
6, 11873, Note_off_c, 2, 67, 0
6, 11880, Note_on_c, 2, 67, 88
6, 12113, Note_off_c, 2, 67, 0
6, 12120, Note_on_c, 2, 67, 88
6, 12236, Note_off_c, 2, 67, 0
6, 13020, Note_on_c, 2, 63, 88
6, 13313, Note_off_c, 2, 63, 0
6, 13320, Note_on_c, 2, 63, 88
6, 13553, Note_off_c, 2, 63, 0
6, 13560, Note_on_c, 2, 63, 88
6, 13676, Note_off_c, 2, 63, 0
6, 16740, Note_on_c, 2, 72, 88
6, 16793, Note_off_c, 2, 72, 0
6, 16800, Note_on_c, 2, 72, 88
6, 16973, Note_off_c, 2, 72, 0
6, 16980, Note_on_c, 2, 72, 88
6, 17033, Note_off_c, 2, 72, 0
6, 17040, Note_on_c, 2, 72, 88
6, 17338, Note_off_c, 2, 72, 0
6, 18180, Note_on_c, 2, 70, 88
6, 18233, Note_off_c, 2, 70, 0
6, 18240, Note_on_c, 2, 70, 88
6, 18413, Note_off_c, 2, 70, 0
6, 18420, Note_on_c, 2, 70, 88
6, 18473, Note_off_c, 2, 70, 0
6, 18480, Note_on_c, 2, 70, 88
6, 18778, Note_off_c, 2, 70, 0
6, 19620, Note_on_c, 2, 68, 88
6, 19673, Note_off_c, 2, 68, 0
6, 19680, Note_on_c, 2, 68, 88
6, 19853, Note_off_c, 2, 68, 0
6, 19860, Note_on_c, 2, 68, 88
6, 19913, Note_off_c, 2, 68, 0
6, 19920, Note_on_c, 2, 68, 88
6, 20218, Note_off_c, 2, 68, 0
6, 23820, Note_on_c, 2, 60, 88
6, 24113, Note_off_c, 2, 60, 0
6, 24120, Note_on_c, 2, 60, 88
6, 24353, Note_off_c, 2, 60, 0
6, 24360, Note_on_c, 2, 60, 88
6, 24476, Note_off_c, 2, 60, 0
6, 25200, Note_on_c, 2, 61, 88
6, 25313, Note_off_c, 2, 61, 0
6, 25320, Note_on_c, 2, 61, 88
6, 25553, Note_off_c, 2, 61, 0
6, 25560, Note_on_c, 2, 61, 88
6, 25793, Note_off_c, 2, 61, 0
6, 25800, Note_on_c, 2, 61, 88
6, 25916, Note_off_c, 2, 61, 0
6, 35280, Note_on_c, 2, 65, 88
6, 35393, Note_off_c, 2, 65, 0
6, 35400, Note_on_c, 2, 65, 88
6, 35633, Note_off_c, 2, 65, 0
6, 35640, Note_on_c, 2, 65, 88
6, 35873, Note_off_c, 2, 65, 0
6, 35880, Note_on_c, 2, 65, 88
6, 35996, Note_off_c, 2, 65, 0
6, 36720, Note_on_c, 2, 70, 88
6, 37073, Note_off_c, 2, 70, 0
6, 37080, Note_on_c, 2, 74, 88
6, 37313, Note_off_c, 2, 74, 0
6, 37320, Note_on_c, 2, 74, 88
6, 37436, Note_off_c, 2, 74, 0
6, 38520, Note_on_c, 2, 69, 88
6, 38753, Note_off_c, 2, 69, 0
6, 38760, Note_on_c, 2, 69, 88
6, 38876, Note_off_c, 2, 69, 0
6, 39960, Note_on_c, 2, 64, 88
6, 40193, Note_off_c, 2, 64, 0
6, 40200, Note_on_c, 2, 64, 88
6, 40316, Note_off_c, 2, 64, 0
6, 41040, Note_on_c, 2, 63, 88
6, 41393, Note_off_c, 2, 63, 0
6, 41400, Note_on_c, 2, 67, 88
6, 41633, Note_off_c, 2, 67, 0
6, 41640, Note_on_c, 2, 67, 88
6, 41818, Note_off_c, 2, 67, 0
6, 41850, Note_on_c, 2, 68, 88
6, 42055, Note_off_c, 2, 68, 0
6, 42060, Note_on_c, 2, 70, 88
6, 42118, Note_off_c, 2, 70, 0
6, 42120, Note_on_c, 2, 72, 88
6, 42295, Note_off_c, 2, 72, 0
6, 42300, Note_on_c, 2, 70, 88
6, 42358, Note_off_c, 2, 70, 0
6, 42360, Note_on_c, 2, 72, 88
6, 42476, Note_off_c, 2, 72, 0
6, 53280, Note_on_c, 2, 58, 88
6, 53514, Note_off_c, 2, 58, 0
6, 53700, Note_on_c, 2, 67, 88
6, 53758, Note_off_c, 2, 67, 0
6, 53760, Note_on_c, 2, 68, 88
6, 53994, Note_off_c, 2, 68, 0
6, 54180, Note_on_c, 2, 59, 88
6, 54238, Note_off_c, 2, 59, 0
6, 54240, Note_on_c, 2, 58, 88
6, 54415, Note_off_c, 2, 58, 0
6, 54420, Note_on_c, 2, 61, 88
6, 54449, Note_off_c, 2, 61, 0
6, 54450, Note_on_c, 2, 60, 88
6, 54479, Note_off_c, 2, 60, 0
6, 54480, Note_on_c, 2, 61, 88
6, 54714, Note_off_c, 2, 61, 0
6, 54720, Note_on_c, 2, 60, 88
6, 54954, Note_off_c, 2, 60, 0
6, 54954, End_track
7, 0, Start_track
7, 0, Title_t, "Track 4"
7, 0, Program_c, 3, 6
7, 0, Note_on_c, 3, 56, 88
7, 175, Note_off_c, 3, 56, 0
7, 180, Note_on_c, 3, 58, 88
7, 209, Note_off_c, 3, 58, 0
7, 210, Note_on_c, 3, 60, 88
7, 239, Note_off_c, 3, 60, 0
7, 240, Note_on_c, 3, 51, 88
7, 415, Note_off_c, 3, 51, 0
7, 420, Note_on_c, 3, 55, 88
7, 449, Note_off_c, 3, 55, 0
7, 450, Note_on_c, 3, 56, 88
7, 479, Note_off_c, 3, 56, 0
7, 480, Note_on_c, 3, 48, 88
7, 655, Note_off_c, 3, 48, 0
7, 660, Note_on_c, 3, 49, 88
7, 689, Note_off_c, 3, 49, 0
7, 690, Note_on_c, 3, 51, 88
7, 719, Note_off_c, 3, 51, 0
7, 720, Note_on_c, 3, 44, 88
7, 836, Note_off_c, 3, 44, 0
7, 1440, Note_on_c, 3, 56, 88
7, 1615, Note_off_c, 3, 56, 0
7, 1620, Note_on_c, 3, 60, 88
7, 1649, Note_off_c, 3, 60, 0
7, 1650, Note_on_c, 3, 61, 88
7, 1679, Note_off_c, 3, 61, 0
7, 1680, Note_on_c, 3, 53, 88
7, 1855, Note_off_c, 3, 53, 0
7, 1860, Note_on_c, 3, 54, 88
7, 1889, Note_off_c, 3, 54, 0
7, 1890, Note_on_c, 3, 56, 88
7, 1919, Note_off_c, 3, 56, 0
7, 1920, Note_on_c, 3, 49, 88
7, 2095, Note_off_c, 3, 49, 0
7, 2100, Note_on_c, 3, 51, 88
7, 2129, Note_off_c, 3, 51, 0
7, 2130, Note_on_c, 3, 53, 88
7, 2159, Note_off_c, 3, 53, 0
7, 2160, Note_on_c, 3, 44, 88
7, 2276, Note_off_c, 3, 44, 0
7, 2940, Note_on_c, 3, 56, 88
7, 2998, Note_off_c, 3, 56, 0
7, 3000, Note_on_c, 3, 55, 88
7, 3058, Note_off_c, 3, 55, 0
7, 3060, Note_on_c, 3, 53, 88
7, 3118, Note_off_c, 3, 53, 0
7, 3120, Note_on_c, 3, 55, 88
7, 3178, Note_off_c, 3, 55, 0
7, 3180, Note_on_c, 3, 58, 88
7, 3238, Note_off_c, 3, 58, 0
7, 3240, Note_on_c, 3, 51, 88
7, 3298, Note_off_c, 3, 51, 0
7, 3300, Note_on_c, 3, 53, 88
7, 3358, Note_off_c, 3, 53, 0
7, 3360, Note_on_c, 3, 55, 88
7, 3418, Note_off_c, 3, 55, 0
7, 3420, Note_on_c, 3, 56, 88
7, 3478, Note_off_c, 3, 56, 0
7, 3480, Note_on_c, 3, 58, 88
7, 3538, Note_off_c, 3, 58, 0
7, 3540, Note_on_c, 3, 60, 88
7, 3598, Note_off_c, 3, 60, 0
7, 3600, Note_on_c, 3, 61, 88
7, 3658, Note_off_c, 3, 61, 0
7, 3660, Note_on_c, 3, 63, 88
7, 3718, Note_off_c, 3, 63, 0
7, 3720, Note_on_c, 3, 61, 88
7, 3778, Note_off_c, 3, 61, 0
7, 3780, Note_on_c, 3, 60, 88
7, 3838, Note_off_c, 3, 60, 0
7, 3840, Note_on_c, 3, 61, 88
7, 3898, Note_off_c, 3, 61, 0
7, 3900, Note_on_c, 3, 65, 88
7, 3958, Note_off_c, 3, 65, 0
7, 3960, Note_on_c, 3, 58, 88
7, 4018, Note_off_c, 3, 58, 0
7, 4020, Note_on_c, 3, 60, 88
7, 4078, Note_off_c, 3, 60, 0
7, 4080, Note_on_c, 3, 61, 88
7, 4138, Note_off_c, 3, 61, 0
7, 4140, Note_on_c, 3, 63, 88
7, 4198, Note_off_c, 3, 63, 0
7, 4200, Note_on_c, 3, 65, 88
7, 4258, Note_off_c, 3, 65, 0
7, 4260, Note_on_c, 3, 67, 88
7, 4318, Note_off_c, 3, 67, 0
7, 4320, Note_on_c, 3, 68, 88
7, 4466, Note_off_c, 3, 68, 0
7, 4470, Note_on_c, 3, 67, 88
7, 4499, Note_off_c, 3, 67, 0
7, 4500, Note_on_c, 3, 68, 88
7, 4529, Note_off_c, 3, 68, 0
7, 4530, Note_on_c, 3, 70, 88
7, 4559, Note_off_c, 3, 70, 0
7, 4560, Note_on_c, 3, 72, 88
7, 4735, Note_off_c, 3, 72, 0
7, 4740, Note_on_c, 3, 70, 88
7, 4798, Note_off_c, 3, 70, 0
7, 4800, Note_on_c, 3, 68, 88
7, 4975, Note_off_c, 3, 68, 0
7, 4980, Note_on_c, 3, 67, 88
7, 5038, Note_off_c, 3, 67, 0
7, 5040, Note_on_c, 3, 65, 88
7, 5186, Note_off_c, 3, 65, 0
7, 5190, Note_on_c, 3, 64, 88
7, 5219, Note_off_c, 3, 64, 0
7, 5220, Note_on_c, 3, 65, 88
7, 5249, Note_off_c, 3, 65, 0
7, 5250, Note_on_c, 3, 67, 88
7, 5279, Note_off_c, 3, 67, 0
7, 5280, Note_on_c, 3, 68, 88
7, 5455, Note_off_c, 3, 68, 0
7, 5460, Note_on_c, 3, 67, 88
7, 5518, Note_off_c, 3, 67, 0
7, 5520, Note_on_c, 3, 65, 88
7, 5695, Note_off_c, 3, 65, 0
7, 5700, Note_on_c, 3, 63, 88
7, 5758, Note_off_c, 3, 63, 0
7, 5760, Note_on_c, 3, 62, 88
7, 5906, Note_off_c, 3, 62, 0
7, 5910, Note_on_c, 3, 60, 88
7, 5939, Note_off_c, 3, 60, 0
7, 5940, Note_on_c, 3, 62, 88
7, 5969, Note_off_c, 3, 62, 0
7, 5970, Note_on_c, 3, 63, 88
7, 5999, Note_off_c, 3, 63, 0
7, 6000, Note_on_c, 3, 65, 88
7, 6175, Note_off_c, 3, 65, 0
7, 6180, Note_on_c, 3, 63, 88
7, 6238, Note_off_c, 3, 63, 0
7, 6240, Note_on_c, 3, 62, 88
7, 6415, Note_off_c, 3, 62, 0
7, 6420, Note_on_c, 3, 60, 88
7, 6478, Note_off_c, 3, 60, 0
7, 6480, Note_on_c, 3, 58, 88
7, 6626, Note_off_c, 3, 58, 0
7, 6630, Note_on_c, 3, 55, 88
7, 6659, Note_off_c, 3, 55, 0
7, 6660, Note_on_c, 3, 53, 88
7, 6689, Note_off_c, 3, 53, 0
7, 6690, Note_on_c, 3, 51, 88
7, 6719, Note_off_c, 3, 51, 0
7, 6720, Note_on_c, 3, 50, 88
7, 6895, Note_off_c, 3, 50, 0
7, 6900, Note_on_c, 3, 51, 88
7, 6929, Note_off_c, 3, 51, 0
7, 6930, Note_on_c, 3, 53, 88
7, 6959, Note_off_c, 3, 53, 0
7, 6960, Note_on_c, 3, 46, 88
7, 7135, Note_off_c, 3, 46, 0
7, 7140, Note_on_c, 3, 48, 88
7, 7169, Note_off_c, 3, 48, 0
7, 7170, Note_on_c, 3, 50, 88
7, 7199, Note_off_c, 3, 50, 0
7, 7200, Note_on_c, 3, 51, 88
7, 7346, Note_off_c, 3, 51, 0
7, 7350, Note_on_c, 3, 50, 88
7, 7379, Note_off_c, 3, 50, 0
7, 7380, Note_on_c, 3, 48, 88
7, 7409, Note_off_c, 3, 48, 0
7, 7410, Note_on_c, 3, 46, 88
7, 7439, Note_off_c, 3, 46, 0
7, 7440, Note_on_c, 3, 44, 88
7, 7615, Note_off_c, 3, 44, 0
7, 7620, Note_on_c, 3, 41, 88
7, 7678, Note_off_c, 3, 41, 0
7, 7680, Note_on_c, 3, 46, 88
7, 7855, Note_off_c, 3, 46, 0
7, 7860, Note_on_c, 3, 47, 88
7, 7918, Note_off_c, 3, 47, 0
7, 7920, Note_on_c, 3, 48, 88
7, 8066, Note_off_c, 3, 48, 0
7, 8070, Note_on_c, 3, 51, 88
7, 8099, Note_off_c, 3, 51, 0
7, 8100, Note_on_c, 3, 53, 88
7, 8129, Note_off_c, 3, 53, 0
7, 8130, Note_on_c, 3, 55, 88
7, 8159, Note_off_c, 3, 55, 0
7, 8160, Note_on_c, 3, 56, 88
7, 8335, Note_off_c, 3, 56, 0
7, 8340, Note_on_c, 3, 53, 88
7, 8398, Note_off_c, 3, 53, 0
7, 8400, Note_on_c, 3, 50, 88
7, 8575, Note_off_c, 3, 50, 0
7, 8580, Note_on_c, 3, 58, 88
7, 8638, Note_off_c, 3, 58, 0
7, 8640, Note_on_c, 3, 51, 88
7, 8786, Note_off_c, 3, 51, 0
7, 8790, Note_on_c, 3, 55, 88
7, 8819, Note_off_c, 3, 55, 0
7, 8820, Note_on_c, 3, 56, 88
7, 8849, Note_off_c, 3, 56, 0
7, 8850, Note_on_c, 3, 58, 88
7, 8879, Note_off_c, 3, 58, 0
7, 8880, Note_on_c, 3, 60, 88
7, 9055, Note_off_c, 3, 60, 0
7, 9060, Note_on_c, 3, 56, 88
7, 9118, Note_off_c, 3, 56, 0
7, 9120, Note_on_c, 3, 53, 88
7, 9295, Note_off_c, 3, 53, 0
7, 9300, Note_on_c, 3, 62, 88
7, 9358, Note_off_c, 3, 62, 0
7, 9360, Note_on_c, 3, 55, 88
7, 9506, Note_off_c, 3, 55, 0
7, 9510, Note_on_c, 3, 58, 88
7, 9539, Note_off_c, 3, 58, 0
7, 9540, Note_on_c, 3, 60, 88
7, 9569, Note_off_c, 3, 60, 0
7, 9570, Note_on_c, 3, 62, 88
7, 9599, Note_off_c, 3, 62, 0
7, 9600, Note_on_c, 3, 63, 88
7, 9775, Note_off_c, 3, 63, 0
7, 9780, Note_on_c, 3, 60, 88
7, 9838, Note_off_c, 3, 60, 0
7, 9840, Note_on_c, 3, 56, 88
7, 10015, Note_off_c, 3, 56, 0
7, 10020, Note_on_c, 3, 65, 88
7, 10078, Note_off_c, 3, 65, 0
7, 10080, Note_on_c, 3, 56, 88
7, 10080, Note_on_c, 3, 58, 88
7, 10080, Note_on_c, 3, 65, 88
7, 10314, Note_off_c, 3, 56, 0
7, 10314, Note_off_c, 3, 58, 0
7, 10314, Note_off_c, 3, 65, 0
7, 10470, Note_on_c, 3, 63, 88
7, 10499, Note_off_c, 3, 63, 0
7, 10500, Note_on_c, 3, 62, 88
7, 10529, Note_off_c, 3, 62, 0
7, 10530, Note_on_c, 3, 60, 88
7, 10559, Note_off_c, 3, 60, 0
7, 10560, Note_on_c, 3, 58, 88
7, 10706, Note_off_c, 3, 58, 0
7, 10710, Note_on_c, 3, 60, 88
7, 10739, Note_off_c, 3, 60, 0
7, 10740, Note_on_c, 3, 58, 88
7, 10769, Note_off_c, 3, 58, 0
7, 10770, Note_on_c, 3, 56, 88
7, 10799, Note_off_c, 3, 56, 0
7, 10800, Note_on_c, 3, 55, 88
7, 10975, Note_off_c, 3, 55, 0
7, 10980, Note_on_c, 3, 51, 88
7, 11038, Note_off_c, 3, 51, 0
7, 11040, Note_on_c, 3, 60, 88
7, 11215, Note_off_c, 3, 60, 0
7, 11220, Note_on_c, 3, 56, 88
7, 11278, Note_off_c, 3, 56, 0
7, 11280, Note_on_c, 3, 58, 88
7, 11455, Note_off_c, 3, 58, 0
7, 11460, Note_on_c, 3, 46, 88
7, 11518, Note_off_c, 3, 46, 0
7, 11520, Note_on_c, 3, 51, 88
7, 11695, Note_off_c, 3, 51, 0
7, 11700, Note_on_c, 3, 53, 88
7, 11729, Note_off_c, 3, 53, 0
7, 11730, Note_on_c, 3, 55, 88
7, 11759, Note_off_c, 3, 55, 0
7, 11760, Note_on_c, 3, 46, 88
7, 11935, Note_off_c, 3, 46, 0
7, 11940, Note_on_c, 3, 50, 88
7, 11969, Note_off_c, 3, 50, 0
7, 11970, Note_on_c, 3, 51, 88
7, 11999, Note_off_c, 3, 51, 0
7, 12000, Note_on_c, 3, 43, 88
7, 12175, Note_off_c, 3, 43, 0
7, 12180, Note_on_c, 3, 44, 88
7, 12209, Note_off_c, 3, 44, 0
7, 12210, Note_on_c, 3, 46, 88
7, 12239, Note_off_c, 3, 46, 0
7, 12240, Note_on_c, 3, 39, 88
7, 12356, Note_off_c, 3, 39, 0
7, 12960, Note_on_c, 3, 51, 88
7, 13135, Note_off_c, 3, 51, 0
7, 13140, Note_on_c, 3, 55, 88
7, 13169, Note_off_c, 3, 55, 0
7, 13170, Note_on_c, 3, 56, 88
7, 13199, Note_off_c, 3, 56, 0
7, 13200, Note_on_c, 3, 48, 88
7, 13375, Note_off_c, 3, 48, 0
7, 13380, Note_on_c, 3, 49, 88
7, 13409, Note_off_c, 3, 49, 0
7, 13410, Note_on_c, 3, 51, 88
7, 13439, Note_off_c, 3, 51, 0
7, 13440, Note_on_c, 3, 44, 88
7, 13615, Note_off_c, 3, 44, 0
7, 13620, Note_on_c, 3, 46, 88
7, 13649, Note_off_c, 3, 46, 0
7, 13650, Note_on_c, 3, 48, 88
7, 13679, Note_off_c, 3, 48, 0
7, 13680, Note_on_c, 3, 39, 88
7, 13796, Note_off_c, 3, 39, 0
7, 14460, Note_on_c, 3, 55, 88
7, 14518, Note_off_c, 3, 55, 0
7, 14520, Note_on_c, 3, 53, 88
7, 14578, Note_off_c, 3, 53, 0
7, 14580, Note_on_c, 3, 51, 88
7, 14638, Note_off_c, 3, 51, 0
7, 14640, Note_on_c, 3, 53, 88
7, 14815, Note_off_c, 3, 53, 0
7, 14820, Note_on_c, 3, 56, 88
7, 14849, Note_off_c, 3, 56, 0
7, 14850, Note_on_c, 3, 55, 88
7, 14879, Note_off_c, 3, 55, 0
7, 14880, Note_on_c, 3, 56, 88
7, 15055, Note_off_c, 3, 56, 0
7, 15060, Note_on_c, 3, 51, 88
7, 15118, Note_off_c, 3, 51, 0
7, 15120, Note_on_c, 3, 50, 88
7, 15266, Note_off_c, 3, 50, 0
7, 15270, Note_on_c, 3, 48, 88
7, 15299, Note_off_c, 3, 48, 0
7, 15300, Note_on_c, 3, 50, 88
7, 15329, Note_off_c, 3, 50, 0
7, 15330, Note_on_c, 3, 51, 88
7, 15359, Note_off_c, 3, 51, 0
7, 15360, Note_on_c, 3, 53, 88
7, 15418, Note_off_c, 3, 53, 0
7, 15420, Note_on_c, 3, 51, 88
7, 15478, Note_off_c, 3, 51, 0
7, 15480, Note_on_c, 3, 50, 88
7, 15538, Note_off_c, 3, 50, 0
7, 15540, Note_on_c, 3, 48, 88
7, 15598, Note_off_c, 3, 48, 0
7, 15600, Note_on_c, 3, 46, 88
7, 15658, Note_off_c, 3, 46, 0
7, 15660, Note_on_c, 3, 44, 88
7, 15718, Note_off_c, 3, 44, 0
7, 15720, Note_on_c, 3, 43, 88
7, 15778, Note_off_c, 3, 43, 0
7, 15780, Note_on_c, 3, 41, 88
7, 15838, Note_off_c, 3, 41, 0
7, 15840, Note_on_c, 3, 39, 88
7, 15986, Note_off_c, 3, 39, 0
7, 15990, Note_on_c, 3, 46, 88
7, 16019, Note_off_c, 3, 46, 0
7, 16020, Note_on_c, 3, 48, 88
7, 16049, Note_off_c, 3, 48, 0
7, 16050, Note_on_c, 3, 50, 88
7, 16079, Note_off_c, 3, 50, 0
7, 16080, Note_on_c, 3, 51, 88
7, 16226, Note_off_c, 3, 51, 0
7, 16230, Note_on_c, 3, 50, 88
7, 16259, Note_off_c, 3, 50, 0
7, 16260, Note_on_c, 3, 51, 88
7, 16289, Note_off_c, 3, 51, 0
7, 16290, Note_on_c, 3, 53, 88
7, 16319, Note_off_c, 3, 53, 0
7, 16320, Note_on_c, 3, 55, 88
7, 16466, Note_off_c, 3, 55, 0
7, 16470, Note_on_c, 3, 51, 88
7, 16499, Note_off_c, 3, 51, 0
7, 16500, Note_on_c, 3, 53, 88
7, 16529, Note_off_c, 3, 53, 0
7, 16530, Note_on_c, 3, 55, 88
7, 16559, Note_off_c, 3, 55, 0
7, 16560, Note_on_c, 3, 44, 88
7, 16618, Note_off_c, 3, 44, 0
7, 16620, Note_on_c, 3, 61, 88
7, 16678, Note_off_c, 3, 61, 0
7, 16680, Note_on_c, 3, 60, 88
7, 16738, Note_off_c, 3, 60, 0
7, 16740, Note_on_c, 3, 58, 88
7, 16798, Note_off_c, 3, 58, 0
7, 16800, Note_on_c, 3, 56, 88
7, 16858, Note_off_c, 3, 56, 0
7, 16860, Note_on_c, 3, 60, 88
7, 16918, Note_off_c, 3, 60, 0
7, 16920, Note_on_c, 3, 56, 88
7, 16978, Note_off_c, 3, 56, 0
7, 16980, Note_on_c, 3, 55, 88
7, 17038, Note_off_c, 3, 55, 0
7, 17040, Note_on_c, 3, 53, 88
7, 17098, Note_off_c, 3, 53, 0
7, 17100, Note_on_c, 3, 56, 88
7, 17158, Note_off_c, 3, 56, 0
7, 17160, Note_on_c, 3, 53, 88
7, 17218, Note_off_c, 3, 53, 0
7, 17220, Note_on_c, 3, 51, 88
7, 17278, Note_off_c, 3, 51, 0
7, 17280, Note_on_c, 3, 49, 88
7, 17426, Note_off_c, 3, 49, 0
7, 17430, Note_on_c, 3, 44, 88
7, 17459, Note_off_c, 3, 44, 0
7, 17460, Note_on_c, 3, 46, 88
7, 17489, Note_off_c, 3, 46, 0
7, 17490, Note_on_c, 3, 48, 88
7, 17519, Note_off_c, 3, 48, 0
7, 17520, Note_on_c, 3, 49, 88
7, 17666, Note_off_c, 3, 49, 0
7, 17670, Note_on_c, 3, 48, 88
7, 17699, Note_off_c, 3, 48, 0
7, 17700, Note_on_c, 3, 49, 88
7, 17729, Note_off_c, 3, 49, 0
7, 17730, Note_on_c, 3, 51, 88
7, 17759, Note_off_c, 3, 51, 0
7, 17760, Note_on_c, 3, 53, 88
7, 17906, Note_off_c, 3, 53, 0
7, 17910, Note_on_c, 3, 49, 88
7, 17939, Note_off_c, 3, 49, 0
7, 17940, Note_on_c, 3, 51, 88
7, 17969, Note_off_c, 3, 51, 0
7, 17970, Note_on_c, 3, 53, 88
7, 17999, Note_off_c, 3, 53, 0
7, 18000, Note_on_c, 3, 43, 88
7, 18058, Note_off_c, 3, 43, 0
7, 18060, Note_on_c, 3, 60, 88
7, 18118, Note_off_c, 3, 60, 0
7, 18120, Note_on_c, 3, 58, 88
7, 18178, Note_off_c, 3, 58, 0
7, 18180, Note_on_c, 3, 56, 88
7, 18238, Note_off_c, 3, 56, 0
7, 18240, Note_on_c, 3, 55, 88
7, 18298, Note_off_c, 3, 55, 0
7, 18300, Note_on_c, 3, 58, 88
7, 18358, Note_off_c, 3, 58, 0
7, 18360, Note_on_c, 3, 55, 88
7, 18418, Note_off_c, 3, 55, 0
7, 18420, Note_on_c, 3, 53, 88
7, 18478, Note_off_c, 3, 53, 0
7, 18480, Note_on_c, 3, 52, 88
7, 18538, Note_off_c, 3, 52, 0
7, 18540, Note_on_c, 3, 55, 88
7, 18598, Note_off_c, 3, 55, 0
7, 18600, Note_on_c, 3, 52, 88
7, 18658, Note_off_c, 3, 52, 0
7, 18660, Note_on_c, 3, 50, 88
7, 18718, Note_off_c, 3, 50, 0
7, 18720, Note_on_c, 3, 48, 88
7, 18866, Note_off_c, 3, 48, 0
7, 18870, Note_on_c, 3, 43, 88
7, 18899, Note_off_c, 3, 43, 0
7, 18900, Note_on_c, 3, 44, 88
7, 18929, Note_off_c, 3, 44, 0
7, 18930, Note_on_c, 3, 46, 88
7, 18959, Note_off_c, 3, 46, 0
7, 18960, Note_on_c, 3, 48, 88
7, 19106, Note_off_c, 3, 48, 0
7, 19110, Note_on_c, 3, 47, 88
7, 19139, Note_off_c, 3, 47, 0
7, 19140, Note_on_c, 3, 48, 88
7, 19169, Note_off_c, 3, 48, 0
7, 19170, Note_on_c, 3, 50, 88
7, 19199, Note_off_c, 3, 50, 0
7, 19200, Note_on_c, 3, 52, 88
7, 19346, Note_off_c, 3, 52, 0
7, 19350, Note_on_c, 3, 48, 88
7, 19379, Note_off_c, 3, 48, 0
7, 19380, Note_on_c, 3, 50, 88
7, 19409, Note_off_c, 3, 50, 0
7, 19410, Note_on_c, 3, 52, 88
7, 19439, Note_off_c, 3, 52, 0
7, 19440, Note_on_c, 3, 41, 88
7, 19498, Note_off_c, 3, 41, 0
7, 19500, Note_on_c, 3, 58, 88
7, 19558, Note_off_c, 3, 58, 0
7, 19560, Note_on_c, 3, 56, 88
7, 19618, Note_off_c, 3, 56, 0
7, 19620, Note_on_c, 3, 55, 88
7, 19678, Note_off_c, 3, 55, 0
7, 19680, Note_on_c, 3, 53, 88
7, 19738, Note_off_c, 3, 53, 0
7, 19740, Note_on_c, 3, 56, 88
7, 19798, Note_off_c, 3, 56, 0
7, 19800, Note_on_c, 3, 53, 88
7, 19858, Note_off_c, 3, 53, 0
7, 19860, Note_on_c, 3, 51, 88
7, 19918, Note_off_c, 3, 51, 0
7, 19920, Note_on_c, 3, 49, 88
7, 19978, Note_off_c, 3, 49, 0
7, 19980, Note_on_c, 3, 53, 88
7, 20038, Note_off_c, 3, 53, 0
7, 20040, Note_on_c, 3, 49, 88
7, 20098, Note_off_c, 3, 49, 0
7, 20100, Note_on_c, 3, 48, 88
7, 20158, Note_off_c, 3, 48, 0
7, 20160, Note_on_c, 3, 46, 88
7, 20306, Note_off_c, 3, 46, 0
7, 20310, Note_on_c, 3, 57, 88
7, 20339, Note_off_c, 3, 57, 0
7, 20340, Note_on_c, 3, 58, 88
7, 20369, Note_off_c, 3, 58, 0
7, 20370, Note_on_c, 3, 60, 88
7, 20399, Note_off_c, 3, 60, 0
7, 20400, Note_on_c, 3, 61, 88
7, 20546, Note_off_c, 3, 61, 0
7, 20550, Note_on_c, 3, 60, 88
7, 20579, Note_off_c, 3, 60, 0
7, 20580, Note_on_c, 3, 61, 88
7, 20609, Note_off_c, 3, 61, 0
7, 20610, Note_on_c, 3, 63, 88
7, 20639, Note_off_c, 3, 63, 0
7, 20640, Note_on_c, 3, 65, 88
7, 20756, Note_off_c, 3, 65, 0
7, 21030, Note_on_c, 3, 53, 88
7, 21059, Note_off_c, 3, 53, 0
7, 21060, Note_on_c, 3, 55, 88
7, 21089, Note_off_c, 3, 55, 0
7, 21090, Note_on_c, 3, 57, 88
7, 21119, Note_off_c, 3, 57, 0
7, 21120, Note_on_c, 3, 58, 88
7, 21266, Note_off_c, 3, 58, 0
7, 21270, Note_on_c, 3, 57, 88
7, 21299, Note_off_c, 3, 57, 0
7, 21300, Note_on_c, 3, 58, 88
7, 21329, Note_off_c, 3, 58, 0
7, 21330, Note_on_c, 3, 60, 88
7, 21359, Note_off_c, 3, 60, 0
7, 21360, Note_on_c, 3, 61, 88
7, 21476, Note_off_c, 3, 61, 0
7, 21750, Note_on_c, 3, 49, 88
7, 21779, Note_off_c, 3, 49, 0
7, 21780, Note_on_c, 3, 51, 88
7, 21809, Note_off_c, 3, 51, 0
7, 21810, Note_on_c, 3, 53, 88
7, 21839, Note_off_c, 3, 53, 0
7, 21840, Note_on_c, 3, 54, 88
7, 21986, Note_off_c, 3, 54, 0
7, 21990, Note_on_c, 3, 53, 88
7, 22019, Note_off_c, 3, 53, 0
7, 22020, Note_on_c, 3, 54, 88
7, 22049, Note_off_c, 3, 54, 0
7, 22050, Note_on_c, 3, 56, 88
7, 22079, Note_off_c, 3, 56, 0
7, 22080, Note_on_c, 3, 58, 88
7, 22196, Note_off_c, 3, 58, 0
7, 22380, Note_on_c, 3, 56, 88
7, 22438, Note_off_c, 3, 56, 0
7, 22440, Note_on_c, 3, 55, 88
7, 22498, Note_off_c, 3, 55, 0
7, 22500, Note_on_c, 3, 53, 88
7, 22558, Note_off_c, 3, 53, 0
7, 22560, Note_on_c, 3, 52, 88
7, 22618, Note_off_c, 3, 52, 0
7, 22620, Note_on_c, 3, 58, 88
7, 22678, Note_off_c, 3, 58, 0
7, 22680, Note_on_c, 3, 52, 88
7, 22738, Note_off_c, 3, 52, 0
7, 22740, Note_on_c, 3, 50, 88
7, 22798, Note_off_c, 3, 50, 0
7, 22800, Note_on_c, 3, 48, 88
7, 22858, Note_off_c, 3, 48, 0
7, 22860, Note_on_c, 3, 55, 88
7, 22918, Note_off_c, 3, 55, 0
7, 22920, Note_on_c, 3, 48, 88
7, 22978, Note_off_c, 3, 48, 0
7, 22980, Note_on_c, 3, 46, 88
7, 23038, Note_off_c, 3, 46, 0
7, 23040, Note_on_c, 3, 44, 88
7, 23186, Note_off_c, 3, 44, 0
7, 23190, Note_on_c, 3, 56, 88
7, 23219, Note_off_c, 3, 56, 0
7, 23220, Note_on_c, 3, 58, 88
7, 23249, Note_off_c, 3, 58, 0
7, 23250, Note_on_c, 3, 60, 88
7, 23279, Note_off_c, 3, 60, 0
7, 23280, Note_on_c, 3, 61, 88
7, 23455, Note_off_c, 3, 61, 0
7, 23460, Note_on_c, 3, 58, 88
7, 23518, Note_off_c, 3, 58, 0
7, 23520, Note_on_c, 3, 60, 88
7, 23695, Note_off_c, 3, 60, 0
7, 23700, Note_on_c, 3, 48, 88
7, 23758, Note_off_c, 3, 48, 0
7, 23760, Note_on_c, 3, 53, 88
7, 23935, Note_off_c, 3, 53, 0
7, 23940, Note_on_c, 3, 55, 88
7, 23969, Note_off_c, 3, 55, 0
7, 23970, Note_on_c, 3, 56, 88
7, 23999, Note_off_c, 3, 56, 0
7, 24000, Note_on_c, 3, 48, 88
7, 24175, Note_off_c, 3, 48, 0
7, 24180, Note_on_c, 3, 52, 88
7, 24209, Note_off_c, 3, 52, 0
7, 24210, Note_on_c, 3, 53, 88
7, 24239, Note_off_c, 3, 53, 0
7, 24240, Note_on_c, 3, 44, 88
7, 24415, Note_off_c, 3, 44, 0
7, 24420, Note_on_c, 3, 46, 88
7, 24449, Note_off_c, 3, 46, 0
7, 24450, Note_on_c, 3, 48, 88
7, 24479, Note_off_c, 3, 48, 0
7, 24480, Note_on_c, 3, 41, 88
7, 24596, Note_off_c, 3, 41, 0
7, 25200, Note_on_c, 3, 53, 88
7, 25375, Note_off_c, 3, 53, 0
7, 25380, Note_on_c, 3, 57, 88
7, 25409, Note_off_c, 3, 57, 0
7, 25410, Note_on_c, 3, 58, 88
7, 25439, Note_off_c, 3, 58, 0
7, 25440, Note_on_c, 3, 49, 88
7, 25615, Note_off_c, 3, 49, 0
7, 25620, Note_on_c, 3, 51, 88
7, 25649, Note_off_c, 3, 51, 0
7, 25650, Note_on_c, 3, 53, 88
7, 25679, Note_off_c, 3, 53, 0
7, 25680, Note_on_c, 3, 46, 88
7, 25855, Note_off_c, 3, 46, 0
7, 25860, Note_on_c, 3, 48, 88
7, 25889, Note_off_c, 3, 48, 0
7, 25890, Note_on_c, 3, 49, 88
7, 25919, Note_off_c, 3, 49, 0
7, 25920, Note_on_c, 3, 41, 88
7, 26036, Note_off_c, 3, 41, 0
7, 26700, Note_on_c, 3, 53, 88
7, 26758, Note_off_c, 3, 53, 0
7, 26760, Note_on_c, 3, 52, 88
7, 26818, Note_off_c, 3, 52, 0
7, 26820, Note_on_c, 3, 50, 88
7, 26878, Note_off_c, 3, 50, 0
7, 26880, Note_on_c, 3, 52, 88
7, 26938, Note_off_c, 3, 52, 0
7, 26940, Note_on_c, 3, 55, 88
7, 26998, Note_off_c, 3, 55, 0
7, 27000, Note_on_c, 3, 48, 88
7, 27058, Note_off_c, 3, 48, 0
7, 27060, Note_on_c, 3, 50, 88
7, 27118, Note_off_c, 3, 50, 0
7, 27120, Note_on_c, 3, 52, 88
7, 27178, Note_off_c, 3, 52, 0
7, 27180, Note_on_c, 3, 53, 88
7, 27238, Note_off_c, 3, 53, 0
7, 27240, Note_on_c, 3, 55, 88
7, 27298, Note_off_c, 3, 55, 0
7, 27300, Note_on_c, 3, 56, 88
7, 27358, Note_off_c, 3, 56, 0
7, 27360, Note_on_c, 3, 58, 88
7, 27418, Note_off_c, 3, 58, 0
7, 27420, Note_on_c, 3, 60, 88
7, 27478, Note_off_c, 3, 60, 0
7, 27480, Note_on_c, 3, 58, 88
7, 27538, Note_off_c, 3, 58, 0
7, 27540, Note_on_c, 3, 56, 88
7, 27598, Note_off_c, 3, 56, 0
7, 27600, Note_on_c, 3, 58, 88
7, 27658, Note_off_c, 3, 58, 0
7, 27660, Note_on_c, 3, 61, 88
7, 27718, Note_off_c, 3, 61, 0
7, 27720, Note_on_c, 3, 55, 88
7, 27778, Note_off_c, 3, 55, 0
7, 27780, Note_on_c, 3, 56, 88
7, 27838, Note_off_c, 3, 56, 0
7, 27840, Note_on_c, 3, 58, 88
7, 27898, Note_off_c, 3, 58, 0
7, 27900, Note_on_c, 3, 60, 88
7, 27958, Note_off_c, 3, 60, 0
7, 27960, Note_on_c, 3, 62, 88
7, 28018, Note_off_c, 3, 62, 0
7, 28020, Note_on_c, 3, 64, 88
7, 28078, Note_off_c, 3, 64, 0
7, 28080, Note_on_c, 3, 65, 88
7, 28226, Note_off_c, 3, 65, 0
7, 28230, Note_on_c, 3, 64, 88
7, 28259, Note_off_c, 3, 64, 0
7, 28260, Note_on_c, 3, 65, 88
7, 28289, Note_off_c, 3, 65, 0
7, 28290, Note_on_c, 3, 67, 88
7, 28319, Note_off_c, 3, 67, 0
7, 28320, Note_on_c, 3, 68, 88
7, 28495, Note_off_c, 3, 68, 0
7, 28500, Note_on_c, 3, 67, 88
7, 28558, Note_off_c, 3, 67, 0
7, 28560, Note_on_c, 3, 65, 88
7, 28735, Note_off_c, 3, 65, 0
7, 28740, Note_on_c, 3, 63, 88
7, 28798, Note_off_c, 3, 63, 0
7, 28800, Note_on_c, 3, 61, 88
7, 28946, Note_off_c, 3, 61, 0
7, 28950, Note_on_c, 3, 60, 88
7, 28979, Note_off_c, 3, 60, 0
7, 28980, Note_on_c, 3, 61, 88
7, 29009, Note_off_c, 3, 61, 0
7, 29010, Note_on_c, 3, 63, 88
7, 29039, Note_off_c, 3, 63, 0
7, 29040, Note_on_c, 3, 65, 88
7, 29215, Note_off_c, 3, 65, 0
7, 29220, Note_on_c, 3, 63, 88
7, 29278, Note_off_c, 3, 63, 0
7, 29280, Note_on_c, 3, 61, 88
7, 29455, Note_off_c, 3, 61, 0
7, 29460, Note_on_c, 3, 60, 88
7, 29518, Note_off_c, 3, 60, 0
7, 29520, Note_on_c, 3, 58, 88
7, 29666, Note_off_c, 3, 58, 0
7, 29670, Note_on_c, 3, 57, 88
7, 29699, Note_off_c, 3, 57, 0
7, 29700, Note_on_c, 3, 58, 88
7, 29729, Note_off_c, 3, 58, 0
7, 29730, Note_on_c, 3, 60, 88
7, 29759, Note_off_c, 3, 60, 0
7, 29760, Note_on_c, 3, 61, 88
7, 29935, Note_off_c, 3, 61, 0
7, 29940, Note_on_c, 3, 60, 88
7, 29998, Note_off_c, 3, 60, 0
7, 30000, Note_on_c, 3, 58, 88
7, 30175, Note_off_c, 3, 58, 0
7, 30180, Note_on_c, 3, 56, 88
7, 30238, Note_off_c, 3, 56, 0
7, 30240, Note_on_c, 3, 54, 88
7, 30386, Note_off_c, 3, 54, 0
7, 30390, Note_on_c, 3, 53, 88
7, 30419, Note_off_c, 3, 53, 0
7, 30420, Note_on_c, 3, 54, 88
7, 30449, Note_off_c, 3, 54, 0
7, 30450, Note_on_c, 3, 56, 88
7, 30479, Note_off_c, 3, 56, 0
7, 30480, Note_on_c, 3, 58, 88
7, 30655, Note_off_c, 3, 58, 0
7, 30660, Note_on_c, 3, 56, 88
7, 30718, Note_off_c, 3, 56, 0
7, 30720, Note_on_c, 3, 54, 88
7, 30895, Note_off_c, 3, 54, 0
7, 30900, Note_on_c, 3, 53, 88
7, 30958, Note_off_c, 3, 53, 0
7, 30960, Note_on_c, 3, 51, 88
7, 31106, Note_off_c, 3, 51, 0
7, 31110, Note_on_c, 3, 53, 88
7, 31139, Note_off_c, 3, 53, 0
7, 31140, Note_on_c, 3, 51, 88
7, 31169, Note_off_c, 3, 51, 0
7, 31170, Note_on_c, 3, 49, 88
7, 31199, Note_off_c, 3, 49, 0
7, 31200, Note_on_c, 3, 48, 88
7, 31346, Note_off_c, 3, 48, 0
7, 31350, Note_on_c, 3, 49, 88
7, 31379, Note_off_c, 3, 49, 0
7, 31380, Note_on_c, 3, 48, 88
7, 31409, Note_off_c, 3, 48, 0
7, 31410, Note_on_c, 3, 46, 88
7, 31439, Note_off_c, 3, 46, 0
7, 31440, Note_on_c, 3, 45, 88
7, 31615, Note_off_c, 3, 45, 0
7, 31620, Note_on_c, 3, 53, 88
7, 31678, Note_off_c, 3, 53, 0
7, 31680, Note_on_c, 3, 46, 88
7, 31826, Note_off_c, 3, 46, 0
7, 31830, Note_on_c, 3, 49, 88
7, 31859, Note_off_c, 3, 49, 0
7, 31860, Note_on_c, 3, 51, 88
7, 31889, Note_off_c, 3, 51, 0
7, 31890, Note_on_c, 3, 53, 88
7, 31919, Note_off_c, 3, 53, 0
7, 31920, Note_on_c, 3, 54, 88
7, 32066, Note_off_c, 3, 54, 0
7, 32070, Note_on_c, 3, 53, 88
7, 32099, Note_off_c, 3, 53, 0
7, 32100, Note_on_c, 3, 51, 88
7, 32129, Note_off_c, 3, 51, 0
7, 32130, Note_on_c, 3, 49, 88
7, 32159, Note_off_c, 3, 49, 0
7, 32160, Note_on_c, 3, 48, 88
7, 32335, Note_off_c, 3, 48, 0
7, 32340, Note_on_c, 3, 56, 88
7, 32398, Note_off_c, 3, 56, 0
7, 32400, Note_on_c, 3, 49, 88
7, 32546, Note_off_c, 3, 49, 0
7, 32550, Note_on_c, 3, 53, 88
7, 32579, Note_off_c, 3, 53, 0
7, 32580, Note_on_c, 3, 54, 88
7, 32609, Note_off_c, 3, 54, 0
7, 32610, Note_on_c, 3, 56, 88
7, 32639, Note_off_c, 3, 56, 0
7, 32640, Note_on_c, 3, 58, 88
7, 32786, Note_off_c, 3, 58, 0
7, 32790, Note_on_c, 3, 56, 88
7, 32819, Note_off_c, 3, 56, 0
7, 32820, Note_on_c, 3, 54, 88
7, 32849, Note_off_c, 3, 54, 0
7, 32850, Note_on_c, 3, 53, 88
7, 32879, Note_off_c, 3, 53, 0
7, 32880, Note_on_c, 3, 51, 88
7, 33055, Note_off_c, 3, 51, 0
7, 33060, Note_on_c, 3, 60, 88
7, 33118, Note_off_c, 3, 60, 0
7, 33120, Note_on_c, 3, 53, 88
7, 33266, Note_off_c, 3, 53, 0
7, 33270, Note_on_c, 3, 56, 88
7, 33299, Note_off_c, 3, 56, 0
7, 33300, Note_on_c, 3, 58, 88
7, 33329, Note_off_c, 3, 58, 0
7, 33330, Note_on_c, 3, 60, 88
7, 33359, Note_off_c, 3, 60, 0
7, 33360, Note_on_c, 3, 61, 88
7, 33506, Note_off_c, 3, 61, 0
7, 33510, Note_on_c, 3, 60, 88
7, 33539, Note_off_c, 3, 60, 0
7, 33540, Note_on_c, 3, 58, 88
7, 33569, Note_off_c, 3, 58, 0
7, 33570, Note_on_c, 3, 56, 88
7, 33599, Note_off_c, 3, 56, 0
7, 33600, Note_on_c, 3, 54, 88
7, 33775, Note_off_c, 3, 54, 0
7, 33780, Note_on_c, 3, 63, 88
7, 33838, Note_off_c, 3, 63, 0
7, 33840, Note_on_c, 3, 54, 88
7, 33840, Note_on_c, 3, 56, 88
7, 33840, Note_on_c, 3, 63, 88
7, 34074, Note_off_c, 3, 54, 0
7, 34074, Note_off_c, 3, 56, 0
7, 34074, Note_off_c, 3, 63, 0
7, 34230, Note_on_c, 3, 61, 88
7, 34259, Note_off_c, 3, 61, 0
7, 34260, Note_on_c, 3, 60, 88
7, 34289, Note_off_c, 3, 60, 0
7, 34290, Note_on_c, 3, 58, 88
7, 34319, Note_off_c, 3, 58, 0
7, 34320, Note_on_c, 3, 56, 88
7, 34466, Note_off_c, 3, 56, 0
7, 34470, Note_on_c, 3, 58, 88
7, 34499, Note_off_c, 3, 58, 0
7, 34500, Note_on_c, 3, 56, 88
7, 34529, Note_off_c, 3, 56, 0
7, 34530, Note_on_c, 3, 54, 88
7, 34559, Note_off_c, 3, 54, 0
7, 34560, Note_on_c, 3, 53, 88
7, 34735, Note_off_c, 3, 53, 0
7, 34740, Note_on_c, 3, 49, 88
7, 34798, Note_off_c, 3, 49, 0
7, 34800, Note_on_c, 3, 58, 88
7, 34975, Note_off_c, 3, 58, 0
7, 34980, Note_on_c, 3, 54, 88
7, 35038, Note_off_c, 3, 54, 0
7, 35040, Note_on_c, 3, 56, 88
7, 35215, Note_off_c, 3, 56, 0
7, 35220, Note_on_c, 3, 44, 88
7, 35278, Note_off_c, 3, 44, 0
7, 35280, Note_on_c, 3, 49, 88
7, 35455, Note_off_c, 3, 49, 0
7, 35460, Note_on_c, 3, 51, 88
7, 35489, Note_off_c, 3, 51, 0
7, 35490, Note_on_c, 3, 53, 88
7, 35519, Note_off_c, 3, 53, 0
7, 35520, Note_on_c, 3, 44, 88
7, 35695, Note_off_c, 3, 44, 0
7, 35700, Note_on_c, 3, 48, 88
7, 35729, Note_off_c, 3, 48, 0
7, 35730, Note_on_c, 3, 49, 88
7, 35759, Note_off_c, 3, 49, 0
7, 35760, Note_on_c, 3, 41, 88
7, 35935, Note_off_c, 3, 41, 0
7, 35940, Note_on_c, 3, 42, 88
7, 35969, Note_off_c, 3, 42, 0
7, 35970, Note_on_c, 3, 44, 88
7, 35999, Note_off_c, 3, 44, 0
7, 36000, Note_on_c, 3, 37, 88
7, 36116, Note_off_c, 3, 37, 0
7, 36720, Note_on_c, 3, 50, 88
7, 36866, Note_off_c, 3, 50, 0
7, 36870, Note_on_c, 3, 53, 88
7, 36899, Note_off_c, 3, 53, 0
7, 36900, Note_on_c, 3, 54, 88
7, 36929, Note_off_c, 3, 54, 0
7, 36930, Note_on_c, 3, 56, 88
7, 36959, Note_off_c, 3, 56, 0
7, 36960, Note_on_c, 3, 58, 88
7, 37135, Note_off_c, 3, 58, 0
7, 37140, Note_on_c, 3, 56, 88
7, 37193, Note_off_c, 3, 56, 0
7, 37200, Note_on_c, 3, 56, 88
7, 37218, Note_off_c, 3, 56, 0
7, 37219, Note_on_c, 3, 54, 88
7, 37237, Note_off_c, 3, 54, 0
7, 37238, Note_on_c, 3, 56, 88
7, 37256, Note_on_c, 3, 54, 88
7, 37256, Note_off_c, 3, 56, 0
7, 37274, Note_off_c, 3, 54, 0
7, 37275, Note_on_c, 3, 56, 88
7, 37290, Note_on_c, 3, 54, 88
7, 37290, Note_off_c, 3, 56, 0
7, 37305, Note_off_c, 3, 54, 0
7, 37305, Note_on_c, 3, 56, 88
7, 37320, Note_on_c, 3, 54, 88
7, 37320, Note_off_c, 3, 56, 0
7, 37378, Note_off_c, 3, 54, 0
7, 37380, Note_on_c, 3, 53, 88
7, 37438, Note_off_c, 3, 53, 0
7, 37440, Note_on_c, 3, 51, 88
7, 37586, Note_off_c, 3, 51, 0
7, 37590, Note_on_c, 3, 58, 88
7, 37619, Note_off_c, 3, 58, 0
7, 37620, Note_on_c, 3, 60, 88
7, 37649, Note_off_c, 3, 60, 0
7, 37650, Note_on_c, 3, 62, 88
7, 37679, Note_off_c, 3, 62, 0
7, 37680, Note_on_c, 3, 63, 88
7, 37855, Note_off_c, 3, 63, 0
7, 37860, Note_on_c, 3, 61, 88
7, 37913, Note_off_c, 3, 61, 0
7, 37920, Note_on_c, 3, 61, 88
7, 37938, Note_off_c, 3, 61, 0
7, 37939, Note_on_c, 3, 60, 88
7, 37957, Note_off_c, 3, 60, 0
7, 37958, Note_on_c, 3, 61, 88
7, 37976, Note_on_c, 3, 60, 88
7, 37976, Note_off_c, 3, 61, 0
7, 37994, Note_off_c, 3, 60, 0
7, 37995, Note_on_c, 3, 61, 88
7, 38010, Note_on_c, 3, 60, 88
7, 38010, Note_off_c, 3, 61, 0
7, 38025, Note_off_c, 3, 60, 0
7, 38025, Note_on_c, 3, 61, 88
7, 38040, Note_on_c, 3, 60, 88
7, 38040, Note_off_c, 3, 61, 0
7, 38098, Note_off_c, 3, 60, 0
7, 38100, Note_on_c, 3, 58, 88
7, 38158, Note_off_c, 3, 58, 0
7, 38160, Note_on_c, 3, 57, 88
7, 38306, Note_off_c, 3, 57, 0
7, 38310, Note_on_c, 3, 48, 88
7, 38339, Note_off_c, 3, 48, 0
7, 38340, Note_on_c, 3, 49, 88
7, 38369, Note_off_c, 3, 49, 0
7, 38370, Note_on_c, 3, 51, 88
7, 38399, Note_off_c, 3, 51, 0
7, 38400, Note_on_c, 3, 53, 88
7, 38575, Note_off_c, 3, 53, 0
7, 38580, Note_on_c, 3, 51, 88
7, 38633, Note_off_c, 3, 51, 0
7, 38640, Note_on_c, 3, 51, 88
7, 38658, Note_off_c, 3, 51, 0
7, 38659, Note_on_c, 3, 49, 88
7, 38677, Note_off_c, 3, 49, 0
7, 38678, Note_on_c, 3, 51, 88
7, 38696, Note_on_c, 3, 49, 88
7, 38696, Note_off_c, 3, 51, 0
7, 38714, Note_off_c, 3, 49, 0
7, 38715, Note_on_c, 3, 51, 88
7, 38730, Note_on_c, 3, 49, 88
7, 38730, Note_off_c, 3, 51, 0
7, 38745, Note_off_c, 3, 49, 0
7, 38745, Note_on_c, 3, 51, 88
7, 38760, Note_on_c, 3, 49, 88
7, 38760, Note_off_c, 3, 51, 0
7, 38818, Note_off_c, 3, 49, 0
7, 38820, Note_on_c, 3, 48, 88
7, 38878, Note_off_c, 3, 48, 0
7, 38880, Note_on_c, 3, 46, 88
7, 39026, Note_off_c, 3, 46, 0
7, 39030, Note_on_c, 3, 53, 88
7, 39059, Note_off_c, 3, 53, 0
7, 39060, Note_on_c, 3, 55, 88
7, 39089, Note_off_c, 3, 55, 0
7, 39090, Note_on_c, 3, 57, 88
7, 39119, Note_off_c, 3, 57, 0
7, 39120, Note_on_c, 3, 58, 88
7, 39295, Note_off_c, 3, 58, 0
7, 39300, Note_on_c, 3, 56, 88
7, 39353, Note_off_c, 3, 56, 0
7, 39360, Note_on_c, 3, 56, 88
7, 39378, Note_off_c, 3, 56, 0
7, 39379, Note_on_c, 3, 55, 88
7, 39397, Note_off_c, 3, 55, 0
7, 39398, Note_on_c, 3, 56, 88
7, 39416, Note_on_c, 3, 55, 88
7, 39416, Note_off_c, 3, 56, 0
7, 39434, Note_off_c, 3, 55, 0
7, 39435, Note_on_c, 3, 56, 88
7, 39450, Note_on_c, 3, 55, 88
7, 39450, Note_off_c, 3, 56, 0
7, 39465, Note_off_c, 3, 55, 0
7, 39465, Note_on_c, 3, 56, 88
7, 39480, Note_on_c, 3, 55, 88
7, 39480, Note_off_c, 3, 56, 0
7, 39538, Note_off_c, 3, 55, 0
7, 39540, Note_on_c, 3, 53, 88
7, 39598, Note_off_c, 3, 53, 0
7, 39600, Note_on_c, 3, 52, 88
7, 39746, Note_off_c, 3, 52, 0
7, 39750, Note_on_c, 3, 43, 88
7, 39779, Note_off_c, 3, 43, 0
7, 39780, Note_on_c, 3, 44, 88
7, 39809, Note_off_c, 3, 44, 0
7, 39810, Note_on_c, 3, 46, 88
7, 39839, Note_off_c, 3, 46, 0
7, 39840, Note_on_c, 3, 48, 88
7, 40015, Note_off_c, 3, 48, 0
7, 40020, Note_on_c, 3, 46, 88
7, 40073, Note_off_c, 3, 46, 0
7, 40080, Note_on_c, 3, 46, 88
7, 40098, Note_off_c, 3, 46, 0
7, 40099, Note_on_c, 3, 44, 88
7, 40117, Note_off_c, 3, 44, 0
7, 40118, Note_on_c, 3, 46, 88
7, 40136, Note_on_c, 3, 44, 88
7, 40136, Note_off_c, 3, 46, 0
7, 40154, Note_off_c, 3, 44, 0
7, 40155, Note_on_c, 3, 46, 88
7, 40170, Note_on_c, 3, 44, 88
7, 40170, Note_off_c, 3, 46, 0
7, 40185, Note_off_c, 3, 44, 0
7, 40185, Note_on_c, 3, 46, 88
7, 40200, Note_on_c, 3, 44, 88
7, 40200, Note_off_c, 3, 46, 0
7, 40258, Note_off_c, 3, 44, 0
7, 40260, Note_on_c, 3, 43, 88
7, 40318, Note_off_c, 3, 43, 0
7, 40320, Note_on_c, 3, 41, 88
7, 40466, Note_off_c, 3, 41, 0
7, 40470, Note_on_c, 3, 44, 88
7, 40499, Note_off_c, 3, 44, 0
7, 40500, Note_on_c, 3, 46, 88
7, 40529, Note_off_c, 3, 46, 0
7, 40530, Note_on_c, 3, 48, 88
7, 40559, Note_off_c, 3, 48, 0
7, 40560, Note_on_c, 3, 49, 88
7, 40735, Note_off_c, 3, 49, 0
7, 40740, Note_on_c, 3, 48, 88
7, 40793, Note_off_c, 3, 48, 0
7, 40800, Note_on_c, 3, 48, 88
7, 40818, Note_off_c, 3, 48, 0
7, 40819, Note_on_c, 3, 46, 88
7, 40837, Note_off_c, 3, 46, 0
7, 40838, Note_on_c, 3, 48, 88
7, 40856, Note_on_c, 3, 46, 88
7, 40856, Note_off_c, 3, 48, 0
7, 40874, Note_off_c, 3, 46, 0
7, 40875, Note_on_c, 3, 48, 88
7, 40890, Note_on_c, 3, 46, 88
7, 40890, Note_off_c, 3, 48, 0
7, 40905, Note_off_c, 3, 46, 0
7, 40905, Note_on_c, 3, 48, 88
7, 40920, Note_on_c, 3, 46, 88
7, 40920, Note_off_c, 3, 48, 0
7, 40978, Note_off_c, 3, 46, 0
7, 40980, Note_on_c, 3, 44, 88
7, 41038, Note_off_c, 3, 44, 0
7, 41040, Note_on_c, 3, 43, 88
7, 41186, Note_off_c, 3, 43, 0
7, 41190, Note_on_c, 3, 46, 88
7, 41219, Note_off_c, 3, 46, 0
7, 41220, Note_on_c, 3, 48, 88
7, 41249, Note_off_c, 3, 48, 0
7, 41250, Note_on_c, 3, 49, 88
7, 41279, Note_off_c, 3, 49, 0
7, 41280, Note_on_c, 3, 51, 88
7, 41455, Note_off_c, 3, 51, 0
7, 41460, Note_on_c, 3, 49, 88
7, 41513, Note_off_c, 3, 49, 0
7, 41520, Note_on_c, 3, 49, 88
7, 41538, Note_off_c, 3, 49, 0
7, 41539, Note_on_c, 3, 48, 88
7, 41557, Note_off_c, 3, 48, 0
7, 41558, Note_on_c, 3, 49, 88
7, 41576, Note_on_c, 3, 48, 88
7, 41576, Note_off_c, 3, 49, 0
7, 41594, Note_off_c, 3, 48, 0
7, 41595, Note_on_c, 3, 49, 88
7, 41610, Note_on_c, 3, 48, 88
7, 41610, Note_off_c, 3, 49, 0
7, 41625, Note_off_c, 3, 48, 0
7, 41625, Note_on_c, 3, 49, 88
7, 41640, Note_on_c, 3, 48, 88
7, 41640, Note_off_c, 3, 49, 0
7, 41698, Note_off_c, 3, 48, 0
7, 41700, Note_on_c, 3, 46, 88
7, 41758, Note_off_c, 3, 46, 0
7, 41760, Note_on_c, 3, 44, 88
7, 41906, Note_off_c, 3, 44, 0
7, 41910, Note_on_c, 3, 51, 88
7, 41939, Note_off_c, 3, 51, 0
7, 41940, Note_on_c, 3, 53, 88
7, 41969, Note_off_c, 3, 53, 0
7, 41970, Note_on_c, 3, 54, 88
7, 41999, Note_off_c, 3, 54, 0
7, 42000, Note_on_c, 3, 56, 88
7, 42175, Note_off_c, 3, 56, 0
7, 42180, Note_on_c, 3, 54, 88
7, 42233, Note_off_c, 3, 54, 0
7, 42240, Note_on_c, 3, 54, 88
7, 42258, Note_off_c, 3, 54, 0
7, 42259, Note_on_c, 3, 53, 88
7, 42277, Note_off_c, 3, 53, 0
7, 42278, Note_on_c, 3, 54, 88
7, 42296, Note_on_c, 3, 53, 88
7, 42296, Note_off_c, 3, 54, 0
7, 42314, Note_off_c, 3, 53, 0
7, 42315, Note_on_c, 3, 54, 88
7, 42330, Note_on_c, 3, 53, 88
7, 42330, Note_off_c, 3, 54, 0
7, 42345, Note_off_c, 3, 53, 0
7, 42345, Note_on_c, 3, 54, 88
7, 42360, Note_on_c, 3, 53, 88
7, 42360, Note_off_c, 3, 54, 0
7, 42418, Note_off_c, 3, 53, 0
7, 42420, Note_on_c, 3, 51, 88
7, 42478, Note_off_c, 3, 51, 0
7, 42480, Note_on_c, 3, 49, 88
7, 42626, Note_off_c, 3, 49, 0
7, 42630, Note_on_c, 3, 56, 88
7, 42659, Note_off_c, 3, 56, 0
7, 42660, Note_on_c, 3, 58, 88
7, 42689, Note_off_c, 3, 58, 0
7, 42690, Note_on_c, 3, 60, 88
7, 42719, Note_off_c, 3, 60, 0
7, 42720, Note_on_c, 3, 61, 88
7, 42866, Note_off_c, 3, 61, 0
7, 42870, Note_on_c, 3, 63, 88
7, 42899, Note_off_c, 3, 63, 0
7, 42900, Note_on_c, 3, 61, 88
7, 42929, Note_off_c, 3, 61, 0
7, 42930, Note_on_c, 3, 60, 88
7, 42959, Note_off_c, 3, 60, 0
7, 42960, Note_on_c, 3, 58, 88
7, 43106, Note_off_c, 3, 58, 0
7, 43110, Note_on_c, 3, 60, 88
7, 43139, Note_off_c, 3, 60, 0
7, 43140, Note_on_c, 3, 58, 88
7, 43169, Note_off_c, 3, 58, 0
7, 43170, Note_on_c, 3, 56, 88
7, 43199, Note_off_c, 3, 56, 0
7, 43200, Note_on_c, 3, 55, 88
7, 43346, Note_off_c, 3, 55, 0
7, 43350, Note_on_c, 3, 56, 88
7, 43379, Note_off_c, 3, 56, 0
7, 43380, Note_on_c, 3, 55, 88
7, 43409, Note_off_c, 3, 55, 0
7, 43410, Note_on_c, 3, 53, 88
7, 43439, Note_off_c, 3, 53, 0
7, 43440, Note_on_c, 3, 51, 88
7, 43556, Note_off_c, 3, 51, 0
7, 43830, Note_on_c, 3, 51, 88
7, 43859, Note_off_c, 3, 51, 0
7, 43860, Note_on_c, 3, 53, 88
7, 43889, Note_off_c, 3, 53, 0
7, 43890, Note_on_c, 3, 55, 88
7, 43919, Note_off_c, 3, 55, 0
7, 43920, Note_on_c, 3, 56, 88
7, 44066, Note_off_c, 3, 56, 0
7, 44070, Note_on_c, 3, 53, 88
7, 44099, Note_off_c, 3, 53, 0
7, 44100, Note_on_c, 3, 55, 88
7, 44129, Note_off_c, 3, 55, 0
7, 44130, Note_on_c, 3, 56, 88
7, 44159, Note_off_c, 3, 56, 0
7, 44160, Note_on_c, 3, 58, 88
7, 44335, Note_off_c, 3, 58, 0
7, 44340, Note_on_c, 3, 56, 88
7, 44398, Note_off_c, 3, 56, 0
7, 44400, Note_on_c, 3, 58, 88
7, 44575, Note_off_c, 3, 58, 0
7, 44580, Note_on_c, 3, 46, 88
7, 44638, Note_off_c, 3, 46, 0
7, 44640, Note_on_c, 3, 51, 88
7, 44815, Note_off_c, 3, 51, 0
7, 44820, Note_on_c, 3, 53, 88
7, 44878, Note_off_c, 3, 53, 0
7, 44880, Note_on_c, 3, 55, 88
7, 44909, Note_off_c, 3, 55, 0
7, 44910, Note_on_c, 3, 56, 88
7, 44939, Note_off_c, 3, 56, 0
7, 44940, Note_on_c, 3, 55, 88
7, 44969, Note_off_c, 3, 55, 0
7, 44970, Note_on_c, 3, 53, 88
7, 44999, Note_off_c, 3, 53, 0
7, 45000, Note_on_c, 3, 55, 88
7, 45058, Note_off_c, 3, 55, 0
7, 45060, Note_on_c, 3, 58, 88
7, 45118, Note_off_c, 3, 58, 0
7, 45120, Note_on_c, 3, 51, 88
7, 45178, Note_off_c, 3, 51, 0
7, 45180, Note_on_c, 3, 49, 88
7, 45238, Note_off_c, 3, 49, 0
7, 45240, Note_on_c, 3, 48, 88
7, 45298, Note_off_c, 3, 48, 0
7, 45300, Note_on_c, 3, 46, 88
7, 45358, Note_off_c, 3, 46, 0
7, 45360, Note_on_c, 3, 44, 88
7, 45506, Note_off_c, 3, 44, 0
7, 45510, Note_on_c, 3, 51, 88
7, 45539, Note_off_c, 3, 51, 0
7, 45540, Note_on_c, 3, 53, 88
7, 45569, Note_off_c, 3, 53, 0
7, 45570, Note_on_c, 3, 55, 88
7, 45599, Note_off_c, 3, 55, 0
7, 45600, Note_on_c, 3, 56, 88
7, 45775, Note_off_c, 3, 56, 0
7, 45780, Note_on_c, 3, 51, 88
7, 45838, Note_off_c, 3, 51, 0
7, 45840, Note_on_c, 3, 48, 88
7, 46015, Note_off_c, 3, 48, 0
7, 46020, Note_on_c, 3, 56, 88
7, 46078, Note_off_c, 3, 56, 0
7, 46080, Note_on_c, 3, 49, 88
7, 46138, Note_off_c, 3, 49, 0
7, 46140, Note_on_c, 3, 58, 88
7, 46198, Note_off_c, 3, 58, 0
7, 46200, Note_on_c, 3, 56, 88
7, 46258, Note_off_c, 3, 56, 0
7, 46260, Note_on_c, 3, 54, 88
7, 46318, Note_off_c, 3, 54, 0
7, 46320, Note_on_c, 3, 53, 88
7, 46378, Note_off_c, 3, 53, 0
7, 46380, Note_on_c, 3, 56, 88
7, 46438, Note_off_c, 3, 56, 0
7, 46440, Note_on_c, 3, 53, 88
7, 46498, Note_off_c, 3, 53, 0
7, 46500, Note_on_c, 3, 51, 88
7, 46558, Note_off_c, 3, 51, 0
7, 46560, Note_on_c, 3, 49, 88
7, 46618, Note_off_c, 3, 49, 0
7, 46620, Note_on_c, 3, 53, 88
7, 46678, Note_off_c, 3, 53, 0
7, 46680, Note_on_c, 3, 49, 88
7, 46738, Note_off_c, 3, 49, 0
7, 46740, Note_on_c, 3, 48, 88
7, 46798, Note_off_c, 3, 48, 0
7, 46800, Note_on_c, 3, 46, 88
7, 46946, Note_off_c, 3, 46, 0
7, 46950, Note_on_c, 3, 53, 88
7, 46979, Note_off_c, 3, 53, 0
7, 46980, Note_on_c, 3, 55, 88
7, 47009, Note_off_c, 3, 55, 0
7, 47010, Note_on_c, 3, 56, 88
7, 47039, Note_off_c, 3, 56, 0
7, 47040, Note_on_c, 3, 58, 88
7, 47215, Note_off_c, 3, 58, 0
7, 47220, Note_on_c, 3, 53, 88
7, 47278, Note_off_c, 3, 53, 0
7, 47280, Note_on_c, 3, 50, 88
7, 47455, Note_off_c, 3, 50, 0
7, 47460, Note_on_c, 3, 58, 88
7, 47518, Note_off_c, 3, 58, 0
7, 47520, Note_on_c, 3, 51, 88
7, 47578, Note_off_c, 3, 51, 0
7, 47580, Note_on_c, 3, 63, 88
7, 47638, Note_off_c, 3, 63, 0
7, 47640, Note_on_c, 3, 61, 88
7, 47698, Note_off_c, 3, 61, 0
7, 47700, Note_on_c, 3, 60, 88
7, 47758, Note_off_c, 3, 60, 0
7, 47760, Note_on_c, 3, 58, 88
7, 47818, Note_off_c, 3, 58, 0
7, 47820, Note_on_c, 3, 61, 88
7, 47878, Note_off_c, 3, 61, 0
7, 47880, Note_on_c, 3, 58, 88
7, 47938, Note_off_c, 3, 58, 0
7, 47940, Note_on_c, 3, 56, 88
7, 47998, Note_off_c, 3, 56, 0
7, 48000, Note_on_c, 3, 55, 88
7, 48058, Note_off_c, 3, 55, 0
7, 48060, Note_on_c, 3, 58, 88
7, 48118, Note_off_c, 3, 58, 0
7, 48120, Note_on_c, 3, 55, 88
7, 48178, Note_off_c, 3, 55, 0
7, 48180, Note_on_c, 3, 53, 88
7, 48238, Note_off_c, 3, 53, 0
7, 48240, Note_on_c, 3, 51, 88
7, 48386, Note_off_c, 3, 51, 0
7, 48390, Note_on_c, 3, 58, 88
7, 48419, Note_off_c, 3, 58, 0
7, 48420, Note_on_c, 3, 60, 88
7, 48449, Note_off_c, 3, 60, 0
7, 48450, Note_on_c, 3, 61, 88
7, 48479, Note_off_c, 3, 61, 0
7, 48480, Note_on_c, 3, 63, 88
7, 48626, Note_off_c, 3, 63, 0
7, 48630, Note_on_c, 3, 62, 88
7, 48659, Note_off_c, 3, 62, 0
7, 48660, Note_on_c, 3, 63, 88
7, 48689, Note_off_c, 3, 63, 0
7, 48690, Note_on_c, 3, 65, 88
7, 48719, Note_off_c, 3, 65, 0
7, 48720, Note_on_c, 3, 67, 88
7, 48866, Note_off_c, 3, 67, 0
7, 48870, Note_on_c, 3, 63, 88
7, 48899, Note_off_c, 3, 63, 0
7, 48900, Note_on_c, 3, 65, 88
7, 48929, Note_off_c, 3, 65, 0
7, 48930, Note_on_c, 3, 67, 88
7, 48959, Note_off_c, 3, 67, 0
7, 48960, Note_on_c, 3, 68, 88
7, 49018, Note_off_c, 3, 68, 0
7, 49020, Note_on_c, 3, 65, 88
7, 49078, Note_off_c, 3, 65, 0
7, 49080, Note_on_c, 3, 63, 88
7, 49138, Note_off_c, 3, 63, 0
7, 49140, Note_on_c, 3, 61, 88
7, 49198, Note_off_c, 3, 61, 0
7, 49200, Note_on_c, 3, 60, 88
7, 49258, Note_off_c, 3, 60, 0
7, 49260, Note_on_c, 3, 63, 88
7, 49318, Note_off_c, 3, 63, 0
7, 49320, Note_on_c, 3, 60, 88
7, 49378, Note_off_c, 3, 60, 0
7, 49380, Note_on_c, 3, 58, 88
7, 49438, Note_off_c, 3, 58, 0
7, 49440, Note_on_c, 3, 56, 88
7, 49469, Note_off_c, 3, 56, 0
7, 49470, Note_on_c, 3, 58, 88
7, 49499, Note_off_c, 3, 58, 0
7, 49500, Note_on_c, 3, 60, 88
7, 49529, Note_off_c, 3, 60, 0
7, 49530, Note_on_c, 3, 58, 88
7, 49559, Note_off_c, 3, 58, 0
7, 49560, Note_on_c, 3, 56, 88
7, 49589, Note_off_c, 3, 56, 0
7, 49590, Note_on_c, 3, 54, 88
7, 49619, Note_off_c, 3, 54, 0
7, 49620, Note_on_c, 3, 53, 88
7, 49649, Note_off_c, 3, 53, 0
7, 49650, Note_on_c, 3, 51, 88
7, 49679, Note_off_c, 3, 51, 0
7, 49680, Note_on_c, 3, 49, 88
7, 49826, Note_off_c, 3, 49, 0
7, 49830, Note_on_c, 3, 53, 88
7, 49859, Note_off_c, 3, 53, 0
7, 49860, Note_on_c, 3, 54, 88
7, 49889, Note_off_c, 3, 54, 0
7, 49890, Note_on_c, 3, 56, 88
7, 49919, Note_off_c, 3, 56, 0
7, 49920, Note_on_c, 3, 58, 88
7, 50066, Note_off_c, 3, 58, 0
7, 50070, Note_on_c, 3, 56, 88
7, 50099, Note_off_c, 3, 56, 0
7, 50100, Note_on_c, 3, 58, 88
7, 50129, Note_off_c, 3, 58, 0
7, 50130, Note_on_c, 3, 60, 88
7, 50159, Note_off_c, 3, 60, 0
7, 50160, Note_on_c, 3, 61, 88
7, 50335, Note_off_c, 3, 61, 0
7, 50340, Note_on_c, 3, 60, 88
7, 50398, Note_off_c, 3, 60, 0
7, 50400, Note_on_c, 3, 58, 88
7, 50546, Note_off_c, 3, 58, 0
7, 50550, Note_on_c, 3, 51, 88
7, 50579, Note_off_c, 3, 51, 0
7, 50580, Note_on_c, 3, 53, 88
7, 50609, Note_off_c, 3, 53, 0
7, 50610, Note_on_c, 3, 55, 88
7, 50639, Note_off_c, 3, 55, 0
7, 50640, Note_on_c, 3, 56, 88
7, 50786, Note_off_c, 3, 56, 0
7, 50790, Note_on_c, 3, 55, 88
7, 50819, Note_off_c, 3, 55, 0
7, 50820, Note_on_c, 3, 56, 88
7, 50849, Note_off_c, 3, 56, 0
7, 50850, Note_on_c, 3, 58, 88
7, 50879, Note_off_c, 3, 58, 0
7, 50880, Note_on_c, 3, 60, 88
7, 51055, Note_off_c, 3, 60, 0
7, 51060, Note_on_c, 3, 58, 88
7, 51118, Note_off_c, 3, 58, 0
7, 51120, Note_on_c, 3, 56, 88
7, 51266, Note_off_c, 3, 56, 0
7, 51270, Note_on_c, 3, 44, 88
7, 51299, Note_off_c, 3, 44, 0
7, 51300, Note_on_c, 3, 46, 88
7, 51329, Note_off_c, 3, 46, 0
7, 51330, Note_on_c, 3, 48, 88
7, 51359, Note_off_c, 3, 48, 0
7, 51360, Note_on_c, 3, 49, 88
7, 51506, Note_off_c, 3, 49, 0
7, 51510, Note_on_c, 3, 48, 88
7, 51539, Note_off_c, 3, 48, 0
7, 51540, Note_on_c, 3, 49, 88
7, 51569, Note_off_c, 3, 49, 0
7, 51570, Note_on_c, 3, 51, 88
7, 51599, Note_off_c, 3, 51, 0
7, 51600, Note_on_c, 3, 52, 88
7, 51775, Note_off_c, 3, 52, 0
7, 51780, Note_on_c, 3, 44, 88
7, 51838, Note_off_c, 3, 44, 0
7, 51840, Note_on_c, 3, 43, 88
7, 51986, Note_off_c, 3, 43, 0
7, 51990, Note_on_c, 3, 39, 88
7, 52019, Note_off_c, 3, 39, 0
7, 52020, Note_on_c, 3, 44, 88
7, 52049, Note_off_c, 3, 44, 0
7, 52050, Note_on_c, 3, 46, 88
7, 52079, Note_off_c, 3, 46, 0
7, 52080, Note_on_c, 3, 47, 88
7, 52226, Note_off_c, 3, 47, 0
7, 52230, Note_on_c, 3, 46, 88
7, 52259, Note_off_c, 3, 46, 0
7, 52260, Note_on_c, 3, 44, 88
7, 52289, Note_off_c, 3, 44, 0
7, 52290, Note_on_c, 3, 42, 88
7, 52319, Note_off_c, 3, 42, 0
7, 52320, Note_on_c, 3, 44, 88
7, 52466, Note_off_c, 3, 44, 0
7, 52470, Note_on_c, 3, 42, 88
7, 52499, Note_off_c, 3, 42, 0
7, 52500, Note_on_c, 3, 40, 88
7, 52529, Note_off_c, 3, 40, 0
7, 52530, Note_on_c, 3, 39, 88
7, 52559, Note_off_c, 3, 39, 0
7, 52560, Note_on_c, 3, 40, 88
7, 52706, Note_off_c, 3, 40, 0
7, 52710, Note_on_c, 3, 44, 88
7, 52739, Note_off_c, 3, 44, 0
7, 52740, Note_on_c, 3, 45, 88
7, 52769, Note_off_c, 3, 45, 0
7, 52770, Note_on_c, 3, 47, 88
7, 52799, Note_off_c, 3, 47, 0
7, 52800, Note_on_c, 3, 49, 88
7, 52975, Note_off_c, 3, 49, 0
7, 52980, Note_on_c, 3, 37, 88
7, 53038, Note_off_c, 3, 37, 0
7, 53040, Note_on_c, 3, 51, 88
7, 53058, Note_off_c, 3, 51, 0
7, 53059, Note_on_c, 3, 49, 88
7, 53077, Note_off_c, 3, 49, 0
7, 53078, Note_on_c, 3, 51, 88
7, 53096, Note_on_c, 3, 49, 88
7, 53096, Note_off_c, 3, 51, 0
7, 53114, Note_off_c, 3, 49, 0
7, 53115, Note_on_c, 3, 51, 88
7, 53130, Note_on_c, 3, 49, 88
7, 53130, Note_off_c, 3, 51, 0
7, 53145, Note_off_c, 3, 49, 0
7, 53145, Note_on_c, 3, 51, 88
7, 53160, Note_on_c, 3, 49, 88
7, 53160, Note_off_c, 3, 51, 0
7, 53213, Note_off_c, 3, 49, 0
7, 53220, Note_on_c, 3, 49, 88
7, 53278, Note_off_c, 3, 49, 0
7, 53280, Note_on_c, 3, 49, 88
7, 53514, Note_off_c, 3, 49, 0
7, 53700, Note_on_c, 3, 46, 88
7, 53758, Note_off_c, 3, 46, 0
7, 53760, Note_on_c, 3, 48, 88
7, 53994, Note_off_c, 3, 48, 0
7, 54180, Note_on_c, 3, 50, 88
7, 54238, Note_off_c, 3, 50, 0
7, 54240, Note_on_c, 3, 51, 88
7, 54710, Note_off_c, 3, 51, 0
7, 54720, Note_on_c, 3, 44, 88
7, 54954, Note_off_c, 3, 44, 0
7, 54954, End_track
0, 0, End_of_file
