0, 0, Header, 1, 7, 240
1, 0, Start_track
1, 0, Time_signature, 4, 2, 24, 8
1, 0, Tempo, 833333
1, 0, SMPTE_offset, 64, 0, 0, 0, 103
1, 23040, Time_signature, 4, 2, 24, 8
1, 23040, End_track
2, 0, Start_track
2, 0, Title_t, "(C) & (P) 1993"
2, 127, End_track
3, 0, Start_track
3, 0, Title_t, "CCARH,Stanford"
3, 0, End_track
4, 0, Start_track
4, 0, Title_t, "Track 1"
4, 0, Program_c, 0, 6
4, 0, Note_on_c, 0, 68, 88
4, 58, Note_off_c, 0, 68, 0
4, 60, Note_on_c, 0, 70, 88
4, 118, Note_off_c, 0, 70, 0
4, 120, Note_on_c, 0, 71, 88
4, 178, Note_off_c, 0, 71, 0
4, 180, Note_on_c, 0, 73, 88
4, 238, Note_off_c, 0, 73, 0
4, 240, Note_on_c, 0, 75, 88
4, 298, Note_off_c, 0, 75, 0
4, 300, Note_on_c, 0, 71, 88
4, 358, Note_off_c, 0, 71, 0
4, 360, Note_on_c, 0, 70, 88
4, 418, Note_off_c, 0, 70, 0
4, 420, Note_on_c, 0, 68, 88
4, 478, Note_off_c, 0, 68, 0
4, 480, Note_on_c, 0, 67, 88
4, 538, Note_off_c, 0, 67, 0
4, 540, Note_on_c, 0, 68, 88
4, 598, Note_off_c, 0, 68, 0
4, 600, Note_on_c, 0, 70, 88
4, 658, Note_off_c, 0, 70, 0
4, 660, Note_on_c, 0, 64, 88
4, 718, Note_off_c, 0, 64, 0
4, 720, Note_on_c, 0, 63, 88
4, 778, Note_off_c, 0, 63, 0
4, 1080, Note_on_c, 0, 71, 88
4, 1193, Note_off_c, 0, 71, 0
4, 1200, Note_on_c, 0, 71, 88
4, 1316, Note_off_c, 0, 71, 0
4, 1320, Note_on_c, 0, 73, 88
4, 1436, Note_off_c, 0, 73, 0
4, 1560, Note_on_c, 0, 71, 88
4, 1673, Note_off_c, 0, 71, 0
4, 1680, Note_on_c, 0, 71, 88
4, 1796, Note_off_c, 0, 71, 0
4, 1800, Note_on_c, 0, 70, 88
4, 1916, Note_off_c, 0, 70, 0
4, 1920, Note_on_c, 0, 68, 88
4, 1978, Note_off_c, 0, 68, 0
4, 1980, Note_on_c, 0, 70, 88
4, 2038, Note_off_c, 0, 70, 0
4, 2040, Note_on_c, 0, 71, 88
4, 2098, Note_off_c, 0, 71, 0
4, 2100, Note_on_c, 0, 73, 88
4, 2158, Note_off_c, 0, 73, 0
4, 2160, Note_on_c, 0, 75, 88
4, 2218, Note_off_c, 0, 75, 0
4, 2220, Note_on_c, 0, 71, 88
4, 2278, Note_off_c, 0, 71, 0
4, 2280, Note_on_c, 0, 70, 88
4, 2338, Note_off_c, 0, 70, 0
4, 2340, Note_on_c, 0, 68, 88
4, 2398, Note_off_c, 0, 68, 0
4, 2400, Note_on_c, 0, 67, 88
4, 2458, Note_off_c, 0, 67, 0
4, 2460, Note_on_c, 0, 68, 88
4, 2518, Note_off_c, 0, 68, 0
4, 2520, Note_on_c, 0, 70, 88
4, 2578, Note_off_c, 0, 70, 0
4, 2580, Note_on_c, 0, 64, 88
4, 2638, Note_off_c, 0, 64, 0
4, 2640, Note_on_c, 0, 63, 88
4, 2698, Note_off_c, 0, 63, 0
4, 3000, Note_on_c, 0, 80, 88
4, 3113, Note_off_c, 0, 80, 0
4, 3120, Note_on_c, 0, 80, 88
4, 3236, Note_off_c, 0, 80, 0
4, 3240, Note_on_c, 0, 82, 88
4, 3356, Note_off_c, 0, 82, 0
4, 3480, Note_on_c, 0, 80, 88
4, 3593, Note_off_c, 0, 80, 0
4, 3600, Note_on_c, 0, 80, 88
4, 3716, Note_off_c, 0, 80, 0
4, 3720, Note_on_c, 0, 79, 88
4, 3836, Note_off_c, 0, 79, 0
4, 3960, Note_on_c, 0, 71, 88
4, 4018, Note_off_c, 0, 71, 0
4, 4020, Note_on_c, 0, 70, 88
4, 4078, Note_off_c, 0, 70, 0
4, 4080, Note_on_c, 0, 71, 88
4, 4196, Note_off_c, 0, 71, 0
4, 4200, Note_on_c, 0, 80, 88
4, 4316, Note_off_c, 0, 80, 0
4, 4440, Note_on_c, 0, 71, 88
4, 4556, Note_off_c, 0, 71, 0
4, 4680, Note_on_c, 0, 70, 88
4, 4738, Note_off_c, 0, 70, 0
4, 4740, Note_on_c, 0, 68, 88
4, 4798, Note_off_c, 0, 68, 0
4, 4920, Note_on_c, 0, 70, 88
4, 4978, Note_off_c, 0, 70, 0
4, 4980, Note_on_c, 0, 68, 88
4, 5038, Note_off_c, 0, 68, 0
4, 5040, Note_on_c, 0, 70, 88
4, 5156, Note_off_c, 0, 70, 0
4, 5160, Note_on_c, 0, 78, 88
4, 5276, Note_off_c, 0, 78, 0
4, 5400, Note_on_c, 0, 70, 88
4, 5516, Note_off_c, 0, 70, 0
4, 5640, Note_on_c, 0, 68, 88
4, 5698, Note_off_c, 0, 68, 0
4, 5700, Note_on_c, 0, 66, 88
4, 5758, Note_off_c, 0, 66, 0
4, 5880, Note_on_c, 0, 68, 88
4, 5938, Note_off_c, 0, 68, 0
4, 5940, Note_on_c, 0, 66, 88
4, 5998, Note_off_c, 0, 66, 0
4, 6000, Note_on_c, 0, 68, 88
4, 6116, Note_off_c, 0, 68, 0
4, 6120, Note_on_c, 0, 77, 88
4, 6236, Note_off_c, 0, 77, 0
4, 6360, Note_on_c, 0, 68, 88
4, 6476, Note_off_c, 0, 68, 0
4, 6600, Note_on_c, 0, 66, 88
4, 6658, Note_off_c, 0, 66, 0
4, 6660, Note_on_c, 0, 65, 88
4, 6718, Note_off_c, 0, 65, 0
4, 6720, Note_on_c, 0, 66, 88
4, 6954, Note_off_c, 0, 66, 0
4, 7020, Note_on_c, 0, 70, 88
4, 7078, Note_off_c, 0, 70, 0
4, 7080, Note_on_c, 0, 68, 88
4, 7138, Note_off_c, 0, 68, 0
4, 7140, Note_on_c, 0, 66, 88
4, 7198, Note_off_c, 0, 66, 0
4, 7200, Note_on_c, 0, 65, 88
4, 7258, Note_off_c, 0, 65, 0
4, 7260, Note_on_c, 0, 63, 88
4, 7318, Note_off_c, 0, 63, 0
4, 7320, Note_on_c, 0, 65, 88
4, 7378, Note_off_c, 0, 65, 0
4, 7380, Note_on_c, 0, 68, 88
4, 7438, Note_off_c, 0, 68, 0
4, 7440, Note_on_c, 0, 67, 88
4, 7498, Note_off_c, 0, 67, 0
4, 7500, Note_on_c, 0, 65, 88
4, 7558, Note_off_c, 0, 65, 0
4, 7560, Note_on_c, 0, 67, 88
4, 7618, Note_off_c, 0, 67, 0
4, 7620, Note_on_c, 0, 70, 88
4, 7678, Note_off_c, 0, 70, 0
4, 7680, Note_on_c, 0, 70, 88
4, 7796, Note_off_c, 0, 70, 0
4, 7800, Note_on_c, 0, 68, 88
4, 7916, Note_off_c, 0, 68, 0
4, 7980, Note_on_c, 0, 66, 88
4, 8038, Note_off_c, 0, 66, 0
4, 8040, Note_on_c, 0, 64, 88
4, 8098, Note_off_c, 0, 64, 0
4, 8100, Note_on_c, 0, 63, 88
4, 8158, Note_off_c, 0, 63, 0
4, 8160, Note_on_c, 0, 61, 88
4, 8218, Note_off_c, 0, 61, 0
4, 8220, Note_on_c, 0, 60, 88
4, 8278, Note_off_c, 0, 60, 0
4, 8280, Note_on_c, 0, 61, 88
4, 8338, Note_off_c, 0, 61, 0
4, 8340, Note_on_c, 0, 64, 88
4, 8398, Note_off_c, 0, 64, 0
4, 8400, Note_on_c, 0, 63, 88
4, 8458, Note_off_c, 0, 63, 0
4, 8460, Note_on_c, 0, 61, 88
4, 8518, Note_off_c, 0, 61, 0
4, 8520, Note_on_c, 0, 63, 88
4, 8578, Note_off_c, 0, 63, 0
4, 8580, Note_on_c, 0, 66, 88
4, 8638, Note_off_c, 0, 66, 0
4, 8640, Note_on_c, 0, 66, 88
4, 8756, Note_off_c, 0, 66, 0
4, 8760, Note_on_c, 0, 64, 88
4, 8876, Note_off_c, 0, 64, 0
4, 8940, Note_on_c, 0, 63, 88
4, 8998, Note_off_c, 0, 63, 0
4, 9000, Note_on_c, 0, 61, 88
4, 9058, Note_off_c, 0, 61, 0
4, 9060, Note_on_c, 0, 59, 88
4, 9118, Note_off_c, 0, 59, 0
4, 9120, Note_on_c, 0, 58, 88
4, 9178, Note_off_c, 0, 58, 0
4, 9180, Note_on_c, 0, 56, 88
4, 9238, Note_off_c, 0, 56, 0
4, 9240, Note_on_c, 0, 58, 88
4, 9298, Note_off_c, 0, 58, 0
4, 9300, Note_on_c, 0, 61, 88
4, 9358, Note_off_c, 0, 61, 0
4, 9360, Note_on_c, 0, 60, 88
4, 9418, Note_off_c, 0, 60, 0
4, 9420, Note_on_c, 0, 58, 88
4, 9478, Note_off_c, 0, 58, 0
4, 9480, Note_on_c, 0, 60, 88
4, 9538, Note_off_c, 0, 60, 0
4, 9540, Note_on_c, 0, 63, 88
4, 9598, Note_off_c, 0, 63, 0
4, 9600, Note_on_c, 0, 56, 88
4, 9658, Note_off_c, 0, 56, 0
4, 9660, Note_on_c, 0, 55, 88
4, 9718, Note_off_c, 0, 55, 0
4, 9720, Note_on_c, 0, 56, 88
4, 9778, Note_off_c, 0, 56, 0
4, 9780, Note_on_c, 0, 59, 88
4, 9838, Note_off_c, 0, 59, 0
4, 9840, Note_on_c, 0, 58, 88
4, 9898, Note_off_c, 0, 58, 0
4, 9900, Note_on_c, 0, 56, 88
4, 9958, Note_off_c, 0, 56, 0
4, 9960, Note_on_c, 0, 58, 88
4, 10018, Note_off_c, 0, 58, 0
4, 10020, Note_on_c, 0, 61, 88
4, 10078, Note_off_c, 0, 61, 0
4, 10080, Note_on_c, 0, 55, 88
4, 10138, Note_off_c, 0, 55, 0
4, 10140, Note_on_c, 0, 64, 88
4, 10198, Note_off_c, 0, 64, 0
4, 10200, Note_on_c, 0, 63, 88
4, 10258, Note_off_c, 0, 63, 0
4, 10260, Note_on_c, 0, 61, 88
4, 10318, Note_off_c, 0, 61, 0
4, 10320, Note_on_c, 0, 70, 88
4, 10378, Note_off_c, 0, 70, 0
4, 10380, Note_on_c, 0, 61, 88
4, 10438, Note_off_c, 0, 61, 0
4, 10440, Note_on_c, 0, 70, 88
4, 10498, Note_off_c, 0, 70, 0
4, 10500, Note_on_c, 0, 61, 88
4, 10558, Note_off_c, 0, 61, 0
4, 10560, Note_on_c, 0, 60, 88
4, 10618, Note_off_c, 0, 60, 0
4, 10620, Note_on_c, 0, 69, 88
4, 10678, Note_off_c, 0, 69, 0
4, 10680, Note_on_c, 0, 68, 88
4, 10738, Note_off_c, 0, 68, 0
4, 10740, Note_on_c, 0, 66, 88
4, 10798, Note_off_c, 0, 66, 0
4, 10800, Note_on_c, 0, 75, 88
4, 10858, Note_off_c, 0, 75, 0
4, 10860, Note_on_c, 0, 66, 88
4, 10918, Note_off_c, 0, 66, 0
4, 10920, Note_on_c, 0, 75, 88
4, 10978, Note_off_c, 0, 75, 0
4, 10980, Note_on_c, 0, 66, 88
4, 11038, Note_off_c, 0, 66, 0
4, 11040, Note_on_c, 0, 65, 88
4, 11098, Note_off_c, 0, 65, 0
4, 11100, Note_on_c, 0, 62, 88
4, 11158, Note_off_c, 0, 62, 0
4, 11160, Note_on_c, 0, 61, 88
4, 11218, Note_off_c, 0, 61, 0
4, 11220, Note_on_c, 0, 59, 88
4, 11278, Note_off_c, 0, 59, 0
4, 11280, Note_on_c, 0, 68, 88
4, 11338, Note_off_c, 0, 68, 0
4, 11340, Note_on_c, 0, 59, 88
4, 11398, Note_off_c, 0, 59, 0
4, 11400, Note_on_c, 0, 68, 88
4, 11458, Note_off_c, 0, 68, 0
4, 11460, Note_on_c, 0, 59, 88
4, 11518, Note_off_c, 0, 59, 0
4, 11520, Note_on_c, 0, 58, 88
4, 11578, Note_off_c, 0, 58, 0
4, 11580, Note_on_c, 0, 67, 88
4, 11638, Note_off_c, 0, 67, 0
4, 11640, Note_on_c, 0, 66, 88
4, 11698, Note_off_c, 0, 66, 0
4, 11700, Note_on_c, 0, 64, 88
4, 11758, Note_off_c, 0, 64, 0
4, 11760, Note_on_c, 0, 73, 88
4, 11818, Note_off_c, 0, 73, 0
4, 11820, Note_on_c, 0, 64, 88
4, 11878, Note_off_c, 0, 64, 0
4, 11880, Note_on_c, 0, 73, 88
4, 11938, Note_off_c, 0, 73, 0
4, 11940, Note_on_c, 0, 64, 88
4, 11998, Note_off_c, 0, 64, 0
4, 12000, Note_on_c, 0, 63, 88
4, 12058, Note_off_c, 0, 63, 0
4, 12060, Note_on_c, 0, 66, 88
4, 12118, Note_off_c, 0, 66, 0
4, 12120, Note_on_c, 0, 68, 88
4, 12178, Note_off_c, 0, 68, 0
4, 12180, Note_on_c, 0, 70, 88
4, 12238, Note_off_c, 0, 70, 0
4, 12240, Note_on_c, 0, 71, 88
4, 12298, Note_off_c, 0, 71, 0
4, 12300, Note_on_c, 0, 66, 88
4, 12358, Note_off_c, 0, 66, 0
4, 12360, Note_on_c, 0, 65, 88
4, 12418, Note_off_c, 0, 65, 0
4, 12420, Note_on_c, 0, 63, 88
4, 12478, Note_off_c, 0, 63, 0
4, 12480, Note_on_c, 0, 62, 88
4, 12538, Note_off_c, 0, 62, 0
4, 12540, Note_on_c, 0, 71, 88
4, 12598, Note_off_c, 0, 71, 0
4, 12600, Note_on_c, 0, 70, 88
4, 12658, Note_off_c, 0, 70, 0
4, 12660, Note_on_c, 0, 68, 88
4, 12718, Note_off_c, 0, 68, 0
4, 12720, Note_on_c, 0, 77, 88
4, 12778, Note_off_c, 0, 77, 0
4, 12780, Note_on_c, 0, 68, 88
4, 12838, Note_off_c, 0, 68, 0
4, 12840, Note_on_c, 0, 77, 88
4, 12898, Note_off_c, 0, 77, 0
4, 12900, Note_on_c, 0, 68, 88
4, 12958, Note_off_c, 0, 68, 0
4, 12960, Note_on_c, 0, 66, 88
4, 13018, Note_off_c, 0, 66, 0
4, 13020, Note_on_c, 0, 70, 88
4, 13078, Note_off_c, 0, 70, 0
4, 13080, Note_on_c, 0, 75, 88
4, 13138, Note_off_c, 0, 75, 0
4, 13140, Note_on_c, 0, 77, 88
4, 13198, Note_off_c, 0, 77, 0
4, 13200, Note_on_c, 0, 78, 88
4, 13258, Note_off_c, 0, 78, 0
4, 13260, Note_on_c, 0, 75, 88
4, 13318, Note_off_c, 0, 75, 0
4, 13320, Note_on_c, 0, 72, 88
4, 13378, Note_off_c, 0, 72, 0
4, 13380, Note_on_c, 0, 75, 88
4, 13438, Note_off_c, 0, 75, 0
4, 13440, Note_on_c, 0, 69, 88
4, 13498, Note_off_c, 0, 69, 0
4, 13500, Note_on_c, 0, 78, 88
4, 13558, Note_off_c, 0, 78, 0
4, 13560, Note_on_c, 0, 77, 88
4, 13618, Note_off_c, 0, 77, 0
4, 13620, Note_on_c, 0, 75, 88
4, 13678, Note_off_c, 0, 75, 0
4, 13680, Note_on_c, 0, 84, 88
4, 13738, Note_off_c, 0, 84, 0
4, 13740, Note_on_c, 0, 75, 88
4, 13798, Note_off_c, 0, 75, 0
4, 13800, Note_on_c, 0, 84, 88
4, 13858, Note_off_c, 0, 84, 0
4, 13860, Note_on_c, 0, 75, 88
4, 13918, Note_off_c, 0, 75, 0
4, 13920, Note_on_c, 0, 74, 88
4, 13978, Note_off_c, 0, 74, 0
4, 13980, Note_on_c, 0, 75, 88
4, 14038, Note_off_c, 0, 75, 0
4, 14040, Note_on_c, 0, 77, 88
4, 14098, Note_off_c, 0, 77, 0
4, 14100, Note_on_c, 0, 82, 88
4, 14158, Note_off_c, 0, 82, 0
4, 14160, Note_on_c, 0, 70, 88
4, 14218, Note_off_c, 0, 70, 0
4, 14460, Note_on_c, 0, 74, 88
4, 14518, Note_off_c, 0, 74, 0
4, 14520, Note_on_c, 0, 75, 88
4, 14578, Note_off_c, 0, 75, 0
4, 14580, Note_on_c, 0, 77, 88
4, 14638, Note_off_c, 0, 77, 0
4, 14640, Note_on_c, 0, 78, 88
4, 14669, Note_off_c, 0, 78, 0
4, 14670, Note_on_c, 0, 77, 88
4, 14699, Note_off_c, 0, 77, 0
4, 14700, Note_on_c, 0, 75, 88
4, 14758, Note_off_c, 0, 75, 0
4, 14760, Note_on_c, 0, 83, 88
4, 14873, Note_off_c, 0, 83, 0
4, 14880, Note_on_c, 0, 83, 88
4, 14996, Note_off_c, 0, 83, 0
4, 15000, Note_on_c, 0, 82, 88
4, 15116, Note_off_c, 0, 82, 0
4, 15480, Note_on_c, 0, 78, 88
4, 15593, Note_off_c, 0, 78, 0
4, 15600, Note_on_c, 0, 78, 88
4, 15716, Note_off_c, 0, 78, 0
4, 15720, Note_on_c, 0, 80, 88
4, 15836, Note_off_c, 0, 80, 0
4, 15960, Note_on_c, 0, 78, 88
4, 16073, Note_off_c, 0, 78, 0
4, 16080, Note_on_c, 0, 78, 88
4, 16196, Note_off_c, 0, 78, 0
4, 16200, Note_on_c, 0, 77, 88
4, 16316, Note_off_c, 0, 77, 0
4, 16440, Note_on_c, 0, 75, 88
4, 16556, Note_off_c, 0, 75, 0
4, 16560, Note_on_c, 0, 76, 88
4, 16575, Note_on_c, 0, 75, 88
4, 16575, Note_off_c, 0, 76, 0
4, 16590, Note_off_c, 0, 75, 0
4, 16590, Note_on_c, 0, 76, 88
4, 16605, Note_on_c, 0, 75, 88
4, 16605, Note_off_c, 0, 76, 0
4, 16620, Note_on_c, 0, 74, 88
4, 16620, Note_off_c, 0, 75, 0
4, 16678, Note_off_c, 0, 74, 0
4, 16680, Note_on_c, 0, 75, 88
4, 16796, Note_off_c, 0, 75, 0
4, 16920, Note_on_c, 0, 75, 88
4, 17036, Note_off_c, 0, 75, 0
4, 17040, Note_on_c, 0, 73, 88
4, 17098, Note_off_c, 0, 73, 0
4, 17100, Note_on_c, 0, 71, 88
4, 17158, Note_off_c, 0, 71, 0
4, 17160, Note_on_c, 0, 73, 88
4, 17218, Note_off_c, 0, 73, 0
4, 17220, Note_on_c, 0, 82, 88
4, 17278, Note_off_c, 0, 82, 0
4, 17280, Note_on_c, 0, 71, 88
4, 17396, Note_off_c, 0, 71, 0
4, 17520, Note_on_c, 0, 73, 88
4, 17636, Note_off_c, 0, 73, 0
4, 17760, Note_on_c, 0, 71, 88
4, 17876, Note_off_c, 0, 71, 0
4, 18000, Note_on_c, 0, 70, 88
4, 18116, Note_off_c, 0, 70, 0
4, 18360, Note_on_c, 0, 77, 88
4, 18418, Note_off_c, 0, 77, 0
4, 18420, Note_on_c, 0, 75, 88
4, 18478, Note_off_c, 0, 75, 0
4, 18480, Note_on_c, 0, 77, 88
4, 18596, Note_off_c, 0, 77, 0
4, 18600, Note_on_c, 0, 80, 88
4, 18716, Note_off_c, 0, 80, 0
4, 18720, Note_on_c, 0, 74, 88
4, 18836, Note_off_c, 0, 74, 0
4, 18840, Note_on_c, 0, 77, 88
4, 18956, Note_off_c, 0, 77, 0
4, 18960, Note_on_c, 0, 70, 88
4, 19313, Note_off_c, 0, 70, 0
4, 19320, Note_on_c, 0, 70, 88
4, 19378, Note_off_c, 0, 70, 0
4, 19380, Note_on_c, 0, 68, 88
4, 19438, Note_off_c, 0, 68, 0
4, 19440, Note_on_c, 0, 70, 88
4, 19556, Note_off_c, 0, 70, 0
4, 19560, Note_on_c, 0, 78, 88
4, 19676, Note_off_c, 0, 78, 0
4, 19800, Note_on_c, 0, 75, 88
4, 19916, Note_off_c, 0, 75, 0
4, 20040, Note_on_c, 0, 72, 88
4, 20156, Note_off_c, 0, 72, 0
4, 20280, Note_on_c, 0, 68, 88
4, 20338, Note_off_c, 0, 68, 0
4, 20340, Note_on_c, 0, 66, 88
4, 20398, Note_off_c, 0, 66, 0
4, 20400, Note_on_c, 0, 68, 88
4, 20516, Note_off_c, 0, 68, 0
4, 20520, Note_on_c, 0, 77, 88
4, 20636, Note_off_c, 0, 77, 0
4, 20760, Note_on_c, 0, 73, 88
4, 20876, Note_off_c, 0, 73, 0
4, 21000, Note_on_c, 0, 70, 88
4, 21116, Note_off_c, 0, 70, 0
4, 21240, Note_on_c, 0, 69, 88
4, 21356, Note_off_c, 0, 69, 0
4, 21360, Note_on_c, 0, 70, 88
4, 21476, Note_off_c, 0, 70, 0
4, 21480, Note_on_c, 0, 75, 88
4, 21596, Note_off_c, 0, 75, 0
4, 21720, Note_on_c, 0, 75, 88
4, 21836, Note_off_c, 0, 75, 0
4, 21840, Note_on_c, 0, 74, 88
4, 21956, Note_off_c, 0, 74, 0
4, 21960, Note_on_c, 0, 83, 88
4, 22076, Note_off_c, 0, 83, 0
4, 22080, Note_on_c, 0, 82, 88
4, 22314, Note_off_c, 0, 82, 0
4, 22380, Note_on_c, 0, 82, 88
4, 22438, Note_off_c, 0, 82, 0
4, 22440, Note_on_c, 0, 77, 88
4, 22498, Note_off_c, 0, 77, 0
4, 22500, Note_on_c, 0, 80, 88
4, 22553, Note_off_c, 0, 80, 0
4, 22560, Note_on_c, 0, 80, 88
4, 22676, Note_off_c, 0, 80, 0
4, 22680, Note_on_c, 0, 79, 88
4, 22796, Note_off_c, 0, 79, 0
4, 23040, Note_on_c, 0, 68, 88
4, 23098, Note_off_c, 0, 68, 0
4, 23100, Note_on_c, 0, 70, 88
4, 23158, Note_off_c, 0, 70, 0
4, 23160, Note_on_c, 0, 71, 88
4, 23218, Note_off_c, 0, 71, 0
4, 23220, Note_on_c, 0, 73, 88
4, 23278, Note_off_c, 0, 73, 0
4, 23280, Note_on_c, 0, 75, 88
4, 23338, Note_off_c, 0, 75, 0
4, 23340, Note_on_c, 0, 71, 88
4, 23398, Note_off_c, 0, 71, 0
4, 23400, Note_on_c, 0, 70, 88
4, 23458, Note_off_c, 0, 70, 0
4, 23460, Note_on_c, 0, 68, 88
4, 23518, Note_off_c, 0, 68, 0
4, 23520, Note_on_c, 0, 67, 88
4, 23578, Note_off_c, 0, 67, 0
4, 23580, Note_on_c, 0, 68, 88
4, 23638, Note_off_c, 0, 68, 0
4, 23640, Note_on_c, 0, 70, 88
4, 23698, Note_off_c, 0, 70, 0
4, 23700, Note_on_c, 0, 64, 88
4, 23758, Note_off_c, 0, 64, 0
4, 23760, Note_on_c, 0, 63, 88
4, 23818, Note_off_c, 0, 63, 0
4, 24120, Note_on_c, 0, 71, 88
4, 24233, Note_off_c, 0, 71, 0
4, 24240, Note_on_c, 0, 71, 88
4, 24356, Note_off_c, 0, 71, 0
4, 24360, Note_on_c, 0, 73, 88
4, 24476, Note_off_c, 0, 73, 0
4, 24600, Note_on_c, 0, 71, 88
4, 24713, Note_off_c, 0, 71, 0
4, 24720, Note_on_c, 0, 71, 88
4, 24836, Note_off_c, 0, 71, 0
4, 24840, Note_on_c, 0, 70, 88
4, 24956, Note_off_c, 0, 70, 0
4, 24960, Note_on_c, 0, 68, 88
4, 25018, Note_off_c, 0, 68, 0
4, 25020, Note_on_c, 0, 70, 88
4, 25078, Note_off_c, 0, 70, 0
4, 25080, Note_on_c, 0, 71, 88
4, 25138, Note_off_c, 0, 71, 0
4, 25140, Note_on_c, 0, 73, 88
4, 25198, Note_off_c, 0, 73, 0
4, 25200, Note_on_c, 0, 75, 88
4, 25258, Note_off_c, 0, 75, 0
4, 25260, Note_on_c, 0, 71, 88
4, 25318, Note_off_c, 0, 71, 0
4, 25320, Note_on_c, 0, 70, 88
4, 25378, Note_off_c, 0, 70, 0
4, 25380, Note_on_c, 0, 68, 88
4, 25438, Note_off_c, 0, 68, 0
4, 25440, Note_on_c, 0, 67, 88
4, 25498, Note_off_c, 0, 67, 0
4, 25500, Note_on_c, 0, 68, 88
4, 25558, Note_off_c, 0, 68, 0
4, 25560, Note_on_c, 0, 70, 88
4, 25618, Note_off_c, 0, 70, 0
4, 25620, Note_on_c, 0, 64, 88
4, 25678, Note_off_c, 0, 64, 0
4, 25680, Note_on_c, 0, 63, 88
4, 25738, Note_off_c, 0, 63, 0
4, 26040, Note_on_c, 0, 80, 88
4, 26153, Note_off_c, 0, 80, 0
4, 26160, Note_on_c, 0, 80, 88
4, 26276, Note_off_c, 0, 80, 0
4, 26280, Note_on_c, 0, 82, 88
4, 26396, Note_off_c, 0, 82, 0
4, 26520, Note_on_c, 0, 80, 88
4, 26633, Note_off_c, 0, 80, 0
4, 26640, Note_on_c, 0, 80, 88
4, 26756, Note_off_c, 0, 80, 0
4, 26760, Note_on_c, 0, 79, 88
4, 26876, Note_off_c, 0, 79, 0
4, 27000, Note_on_c, 0, 71, 88
4, 27058, Note_off_c, 0, 71, 0
4, 27060, Note_on_c, 0, 70, 88
4, 27118, Note_off_c, 0, 70, 0
4, 27120, Note_on_c, 0, 71, 88
4, 27236, Note_off_c, 0, 71, 0
4, 27240, Note_on_c, 0, 80, 88
4, 27356, Note_off_c, 0, 80, 0
4, 27480, Note_on_c, 0, 71, 88
4, 27596, Note_off_c, 0, 71, 0
4, 27720, Note_on_c, 0, 70, 88
4, 27778, Note_off_c, 0, 70, 0
4, 27780, Note_on_c, 0, 68, 88
4, 27838, Note_off_c, 0, 68, 0
4, 27960, Note_on_c, 0, 70, 88
4, 28018, Note_off_c, 0, 70, 0
4, 28020, Note_on_c, 0, 68, 88
4, 28078, Note_off_c, 0, 68, 0
4, 28080, Note_on_c, 0, 70, 88
4, 28196, Note_off_c, 0, 70, 0
4, 28200, Note_on_c, 0, 78, 88
4, 28316, Note_off_c, 0, 78, 0
4, 28440, Note_on_c, 0, 70, 88
4, 28556, Note_off_c, 0, 70, 0
4, 28680, Note_on_c, 0, 68, 88
4, 28738, Note_off_c, 0, 68, 0
4, 28740, Note_on_c, 0, 66, 88
4, 28798, Note_off_c, 0, 66, 0
4, 28920, Note_on_c, 0, 68, 88
4, 28978, Note_off_c, 0, 68, 0
4, 28980, Note_on_c, 0, 66, 88
4, 29038, Note_off_c, 0, 66, 0
4, 29040, Note_on_c, 0, 68, 88
4, 29156, Note_off_c, 0, 68, 0
4, 29160, Note_on_c, 0, 77, 88
4, 29276, Note_off_c, 0, 77, 0
4, 29400, Note_on_c, 0, 68, 88
4, 29516, Note_off_c, 0, 68, 0
4, 29640, Note_on_c, 0, 66, 88
4, 29698, Note_off_c, 0, 66, 0
4, 29700, Note_on_c, 0, 65, 88
4, 29758, Note_off_c, 0, 65, 0
4, 29760, Note_on_c, 0, 66, 88
4, 29994, Note_off_c, 0, 66, 0
4, 30060, Note_on_c, 0, 70, 88
4, 30118, Note_off_c, 0, 70, 0
4, 30120, Note_on_c, 0, 68, 88
4, 30178, Note_off_c, 0, 68, 0
4, 30180, Note_on_c, 0, 66, 88
4, 30238, Note_off_c, 0, 66, 0
4, 30240, Note_on_c, 0, 65, 88
4, 30298, Note_off_c, 0, 65, 0
4, 30300, Note_on_c, 0, 63, 88
4, 30358, Note_off_c, 0, 63, 0
4, 30360, Note_on_c, 0, 65, 88
4, 30418, Note_off_c, 0, 65, 0
4, 30420, Note_on_c, 0, 68, 88
4, 30478, Note_off_c, 0, 68, 0
4, 30480, Note_on_c, 0, 67, 88
4, 30538, Note_off_c, 0, 67, 0
4, 30540, Note_on_c, 0, 65, 88
4, 30598, Note_off_c, 0, 65, 0
4, 30600, Note_on_c, 0, 67, 88
4, 30658, Note_off_c, 0, 67, 0
4, 30660, Note_on_c, 0, 70, 88
4, 30718, Note_off_c, 0, 70, 0
4, 30720, Note_on_c, 0, 70, 88
4, 30836, Note_off_c, 0, 70, 0
4, 30840, Note_on_c, 0, 68, 88
4, 30956, Note_off_c, 0, 68, 0
4, 31020, Note_on_c, 0, 66, 88
4, 31078, Note_off_c, 0, 66, 0
4, 31080, Note_on_c, 0, 64, 88
4, 31138, Note_off_c, 0, 64, 0
4, 31140, Note_on_c, 0, 63, 88
4, 31198, Note_off_c, 0, 63, 0
4, 31200, Note_on_c, 0, 61, 88
4, 31258, Note_off_c, 0, 61, 0
4, 31260, Note_on_c, 0, 60, 88
4, 31318, Note_off_c, 0, 60, 0
4, 31320, Note_on_c, 0, 61, 88
4, 31378, Note_off_c, 0, 61, 0
4, 31380, Note_on_c, 0, 64, 88
4, 31438, Note_off_c, 0, 64, 0
4, 31440, Note_on_c, 0, 63, 88
4, 31498, Note_off_c, 0, 63, 0
4, 31500, Note_on_c, 0, 61, 88
4, 31558, Note_off_c, 0, 61, 0
4, 31560, Note_on_c, 0, 63, 88
4, 31618, Note_off_c, 0, 63, 0
4, 31620, Note_on_c, 0, 66, 88
4, 31678, Note_off_c, 0, 66, 0
4, 31680, Note_on_c, 0, 66, 88
4, 31796, Note_off_c, 0, 66, 0
4, 31800, Note_on_c, 0, 64, 88
4, 31916, Note_off_c, 0, 64, 0
4, 31980, Note_on_c, 0, 63, 88
4, 32038, Note_off_c, 0, 63, 0
4, 32040, Note_on_c, 0, 61, 88
4, 32098, Note_off_c, 0, 61, 0
4, 32100, Note_on_c, 0, 59, 88
4, 32158, Note_off_c, 0, 59, 0
4, 32160, Note_on_c, 0, 58, 88
4, 32218, Note_off_c, 0, 58, 0
4, 32220, Note_on_c, 0, 56, 88
4, 32278, Note_off_c, 0, 56, 0
4, 32280, Note_on_c, 0, 58, 88
4, 32338, Note_off_c, 0, 58, 0
4, 32340, Note_on_c, 0, 61, 88
4, 32398, Note_off_c, 0, 61, 0
4, 32400, Note_on_c, 0, 60, 88
4, 32458, Note_off_c, 0, 60, 0
4, 32460, Note_on_c, 0, 58, 88
4, 32518, Note_off_c, 0, 58, 0
4, 32520, Note_on_c, 0, 60, 88
4, 32578, Note_off_c, 0, 60, 0
4, 32580, Note_on_c, 0, 63, 88
4, 32638, Note_off_c, 0, 63, 0
4, 32640, Note_on_c, 0, 56, 88
4, 32698, Note_off_c, 0, 56, 0
4, 32700, Note_on_c, 0, 55, 88
4, 32758, Note_off_c, 0, 55, 0
4, 32760, Note_on_c, 0, 56, 88
4, 32818, Note_off_c, 0, 56, 0
4, 32820, Note_on_c, 0, 59, 88
4, 32878, Note_off_c, 0, 59, 0
4, 32880, Note_on_c, 0, 58, 88
4, 32938, Note_off_c, 0, 58, 0
4, 32940, Note_on_c, 0, 56, 88
4, 32998, Note_off_c, 0, 56, 0
4, 33000, Note_on_c, 0, 58, 88
4, 33058, Note_off_c, 0, 58, 0
4, 33060, Note_on_c, 0, 61, 88
4, 33118, Note_off_c, 0, 61, 0
4, 33120, Note_on_c, 0, 55, 88
4, 33178, Note_off_c, 0, 55, 0
4, 33180, Note_on_c, 0, 64, 88
4, 33238, Note_off_c, 0, 64, 0
4, 33240, Note_on_c, 0, 63, 88
4, 33298, Note_off_c, 0, 63, 0
4, 33300, Note_on_c, 0, 61, 88
4, 33358, Note_off_c, 0, 61, 0
4, 33360, Note_on_c, 0, 70, 88
4, 33418, Note_off_c, 0, 70, 0
4, 33420, Note_on_c, 0, 61, 88
4, 33478, Note_off_c, 0, 61, 0
4, 33480, Note_on_c, 0, 70, 88
4, 33538, Note_off_c, 0, 70, 0
4, 33540, Note_on_c, 0, 61, 88
4, 33598, Note_off_c, 0, 61, 0
4, 33600, Note_on_c, 0, 60, 88
4, 33658, Note_off_c, 0, 60, 0
4, 33660, Note_on_c, 0, 69, 88
4, 33718, Note_off_c, 0, 69, 0
4, 33720, Note_on_c, 0, 68, 88
4, 33778, Note_off_c, 0, 68, 0
4, 33780, Note_on_c, 0, 66, 88
4, 33838, Note_off_c, 0, 66, 0
4, 33840, Note_on_c, 0, 75, 88
4, 33898, Note_off_c, 0, 75, 0
4, 33900, Note_on_c, 0, 66, 88
4, 33958, Note_off_c, 0, 66, 0
4, 33960, Note_on_c, 0, 75, 88
4, 34018, Note_off_c, 0, 75, 0
4, 34020, Note_on_c, 0, 66, 88
4, 34078, Note_off_c, 0, 66, 0
4, 34080, Note_on_c, 0, 65, 88
4, 34138, Note_off_c, 0, 65, 0
4, 34140, Note_on_c, 0, 62, 88
4, 34198, Note_off_c, 0, 62, 0
4, 34200, Note_on_c, 0, 61, 88
4, 34258, Note_off_c, 0, 61, 0
4, 34260, Note_on_c, 0, 59, 88
4, 34318, Note_off_c, 0, 59, 0
4, 34320, Note_on_c, 0, 68, 88
4, 34378, Note_off_c, 0, 68, 0
4, 34380, Note_on_c, 0, 59, 88
4, 34438, Note_off_c, 0, 59, 0
4, 34440, Note_on_c, 0, 68, 88
4, 34498, Note_off_c, 0, 68, 0
4, 34500, Note_on_c, 0, 59, 88
4, 34558, Note_off_c, 0, 59, 0
4, 34560, Note_on_c, 0, 58, 88
4, 34618, Note_off_c, 0, 58, 0
4, 34620, Note_on_c, 0, 67, 88
4, 34678, Note_off_c, 0, 67, 0
4, 34680, Note_on_c, 0, 66, 88
4, 34738, Note_off_c, 0, 66, 0
4, 34740, Note_on_c, 0, 64, 88
4, 34798, Note_off_c, 0, 64, 0
4, 34800, Note_on_c, 0, 73, 88
4, 34858, Note_off_c, 0, 73, 0
4, 34860, Note_on_c, 0, 64, 88
4, 34918, Note_off_c, 0, 64, 0
4, 34920, Note_on_c, 0, 73, 88
4, 34978, Note_off_c, 0, 73, 0
4, 34980, Note_on_c, 0, 64, 88
4, 35038, Note_off_c, 0, 64, 0
4, 35040, Note_on_c, 0, 63, 88
4, 35098, Note_off_c, 0, 63, 0
4, 35100, Note_on_c, 0, 66, 88
4, 35158, Note_off_c, 0, 66, 0
4, 35160, Note_on_c, 0, 68, 88
4, 35218, Note_off_c, 0, 68, 0
4, 35220, Note_on_c, 0, 70, 88
4, 35278, Note_off_c, 0, 70, 0
4, 35280, Note_on_c, 0, 71, 88
4, 35338, Note_off_c, 0, 71, 0
4, 35340, Note_on_c, 0, 66, 88
4, 35398, Note_off_c, 0, 66, 0
4, 35400, Note_on_c, 0, 65, 88
4, 35458, Note_off_c, 0, 65, 0
4, 35460, Note_on_c, 0, 63, 88
4, 35518, Note_off_c, 0, 63, 0
4, 35520, Note_on_c, 0, 62, 88
4, 35578, Note_off_c, 0, 62, 0
4, 35580, Note_on_c, 0, 71, 88
4, 35638, Note_off_c, 0, 71, 0
4, 35640, Note_on_c, 0, 70, 88
4, 35698, Note_off_c, 0, 70, 0
4, 35700, Note_on_c, 0, 68, 88
4, 35758, Note_off_c, 0, 68, 0
4, 35760, Note_on_c, 0, 77, 88
4, 35818, Note_off_c, 0, 77, 0
4, 35820, Note_on_c, 0, 68, 88
4, 35878, Note_off_c, 0, 68, 0
4, 35880, Note_on_c, 0, 77, 88
4, 35938, Note_off_c, 0, 77, 0
4, 35940, Note_on_c, 0, 68, 88
4, 35998, Note_off_c, 0, 68, 0
4, 36000, Note_on_c, 0, 66, 88
4, 36058, Note_off_c, 0, 66, 0
4, 36060, Note_on_c, 0, 70, 88
4, 36118, Note_off_c, 0, 70, 0
4, 36120, Note_on_c, 0, 75, 88
4, 36178, Note_off_c, 0, 75, 0
4, 36180, Note_on_c, 0, 77, 88
4, 36238, Note_off_c, 0, 77, 0
4, 36240, Note_on_c, 0, 78, 88
4, 36298, Note_off_c, 0, 78, 0
4, 36300, Note_on_c, 0, 75, 88
4, 36358, Note_off_c, 0, 75, 0
4, 36360, Note_on_c, 0, 72, 88
4, 36418, Note_off_c, 0, 72, 0
4, 36420, Note_on_c, 0, 75, 88
4, 36478, Note_off_c, 0, 75, 0
4, 36480, Note_on_c, 0, 69, 88
4, 36538, Note_off_c, 0, 69, 0
4, 36540, Note_on_c, 0, 78, 88
4, 36598, Note_off_c, 0, 78, 0
4, 36600, Note_on_c, 0, 77, 88
4, 36658, Note_off_c, 0, 77, 0
4, 36660, Note_on_c, 0, 75, 88
4, 36718, Note_off_c, 0, 75, 0
4, 36720, Note_on_c, 0, 84, 88
4, 36778, Note_off_c, 0, 84, 0
4, 36780, Note_on_c, 0, 75, 88
4, 36838, Note_off_c, 0, 75, 0
4, 36840, Note_on_c, 0, 84, 88
4, 36898, Note_off_c, 0, 84, 0
4, 36900, Note_on_c, 0, 75, 88
4, 36958, Note_off_c, 0, 75, 0
4, 36960, Note_on_c, 0, 74, 88
4, 37018, Note_off_c, 0, 74, 0
4, 37020, Note_on_c, 0, 75, 88
4, 37078, Note_off_c, 0, 75, 0
4, 37080, Note_on_c, 0, 77, 88
4, 37138, Note_off_c, 0, 77, 0
4, 37140, Note_on_c, 0, 82, 88
4, 37198, Note_off_c, 0, 82, 0
4, 37200, Note_on_c, 0, 70, 88
4, 37258, Note_off_c, 0, 70, 0
4, 37500, Note_on_c, 0, 74, 88
4, 37558, Note_off_c, 0, 74, 0
4, 37560, Note_on_c, 0, 75, 88
4, 37618, Note_off_c, 0, 75, 0
4, 37620, Note_on_c, 0, 77, 88
4, 37678, Note_off_c, 0, 77, 0
4, 37680, Note_on_c, 0, 78, 88
4, 37709, Note_off_c, 0, 78, 0
4, 37710, Note_on_c, 0, 77, 88
4, 37739, Note_off_c, 0, 77, 0
4, 37740, Note_on_c, 0, 75, 88
4, 37798, Note_off_c, 0, 75, 0
4, 37800, Note_on_c, 0, 83, 88
4, 37913, Note_off_c, 0, 83, 0
4, 37920, Note_on_c, 0, 83, 88
4, 38036, Note_off_c, 0, 83, 0
4, 38040, Note_on_c, 0, 82, 88
4, 38156, Note_off_c, 0, 82, 0
4, 38520, Note_on_c, 0, 78, 88
4, 38633, Note_off_c, 0, 78, 0
4, 38640, Note_on_c, 0, 78, 88
4, 38756, Note_off_c, 0, 78, 0
4, 38760, Note_on_c, 0, 80, 88
4, 38876, Note_off_c, 0, 80, 0
4, 39000, Note_on_c, 0, 78, 88
4, 39113, Note_off_c, 0, 78, 0
4, 39120, Note_on_c, 0, 78, 88
4, 39236, Note_off_c, 0, 78, 0
4, 39240, Note_on_c, 0, 77, 88
4, 39356, Note_off_c, 0, 77, 0
4, 39480, Note_on_c, 0, 75, 88
4, 39596, Note_off_c, 0, 75, 0
4, 39600, Note_on_c, 0, 76, 88
4, 39615, Note_on_c, 0, 75, 88
4, 39615, Note_off_c, 0, 76, 0
4, 39630, Note_off_c, 0, 75, 0
4, 39630, Note_on_c, 0, 76, 88
4, 39645, Note_on_c, 0, 75, 88
4, 39645, Note_off_c, 0, 76, 0
4, 39660, Note_on_c, 0, 74, 88
4, 39660, Note_off_c, 0, 75, 0
4, 39718, Note_off_c, 0, 74, 0
4, 39720, Note_on_c, 0, 75, 88
4, 39836, Note_off_c, 0, 75, 0
4, 39960, Note_on_c, 0, 75, 88
4, 40076, Note_off_c, 0, 75, 0
4, 40080, Note_on_c, 0, 73, 88
4, 40138, Note_off_c, 0, 73, 0
4, 40140, Note_on_c, 0, 71, 88
4, 40198, Note_off_c, 0, 71, 0
4, 40200, Note_on_c, 0, 73, 88
4, 40258, Note_off_c, 0, 73, 0
4, 40260, Note_on_c, 0, 82, 88
4, 40318, Note_off_c, 0, 82, 0
4, 40320, Note_on_c, 0, 71, 88
4, 40436, Note_off_c, 0, 71, 0
4, 40560, Note_on_c, 0, 73, 88
4, 40676, Note_off_c, 0, 73, 0
4, 40800, Note_on_c, 0, 71, 88
4, 40916, Note_off_c, 0, 71, 0
4, 41040, Note_on_c, 0, 70, 88
4, 41156, Note_off_c, 0, 70, 0
4, 41400, Note_on_c, 0, 77, 88
4, 41458, Note_off_c, 0, 77, 0
4, 41460, Note_on_c, 0, 75, 88
4, 41518, Note_off_c, 0, 75, 0
4, 41520, Note_on_c, 0, 77, 88
4, 41636, Note_off_c, 0, 77, 0
4, 41640, Note_on_c, 0, 80, 88
4, 41756, Note_off_c, 0, 80, 0
4, 41760, Note_on_c, 0, 74, 88
4, 41876, Note_off_c, 0, 74, 0
4, 41880, Note_on_c, 0, 77, 88
4, 41996, Note_off_c, 0, 77, 0
4, 42000, Note_on_c, 0, 70, 88
4, 42353, Note_off_c, 0, 70, 0
4, 42360, Note_on_c, 0, 70, 88
4, 42418, Note_off_c, 0, 70, 0
4, 42420, Note_on_c, 0, 68, 88
4, 42478, Note_off_c, 0, 68, 0
4, 42480, Note_on_c, 0, 70, 88
4, 42596, Note_off_c, 0, 70, 0
4, 42600, Note_on_c, 0, 78, 88
4, 42716, Note_off_c, 0, 78, 0
4, 42840, Note_on_c, 0, 75, 88
4, 42956, Note_off_c, 0, 75, 0
4, 43080, Note_on_c, 0, 72, 88
4, 43196, Note_off_c, 0, 72, 0
4, 43320, Note_on_c, 0, 68, 88
4, 43378, Note_off_c, 0, 68, 0
4, 43380, Note_on_c, 0, 66, 88
4, 43438, Note_off_c, 0, 66, 0
4, 43440, Note_on_c, 0, 68, 88
4, 43556, Note_off_c, 0, 68, 0
4, 43560, Note_on_c, 0, 77, 88
4, 43676, Note_off_c, 0, 77, 0
4, 43800, Note_on_c, 0, 73, 88
4, 43916, Note_off_c, 0, 73, 0
4, 44040, Note_on_c, 0, 70, 88
4, 44156, Note_off_c, 0, 70, 0
4, 44280, Note_on_c, 0, 69, 88
4, 44396, Note_off_c, 0, 69, 0
4, 44400, Note_on_c, 0, 70, 88
4, 44516, Note_off_c, 0, 70, 0
4, 44520, Note_on_c, 0, 75, 88
4, 44636, Note_off_c, 0, 75, 0
4, 44760, Note_on_c, 0, 75, 88
4, 44876, Note_off_c, 0, 75, 0
4, 44880, Note_on_c, 0, 74, 88
4, 44996, Note_off_c, 0, 74, 0
4, 45000, Note_on_c, 0, 83, 88
4, 45116, Note_off_c, 0, 83, 0
4, 45120, Note_on_c, 0, 82, 88
4, 45354, Note_off_c, 0, 82, 0
4, 45420, Note_on_c, 0, 82, 88
4, 45478, Note_off_c, 0, 82, 0
4, 45480, Note_on_c, 0, 77, 88
4, 45538, Note_off_c, 0, 77, 0
4, 45540, Note_on_c, 0, 80, 88
4, 45593, Note_off_c, 0, 80, 0
4, 45600, Note_on_c, 0, 80, 88
4, 45716, Note_off_c, 0, 80, 0
4, 45720, Note_on_c, 0, 79, 88
4, 45836, Note_off_c, 0, 79, 0
4, 46080, Note_on_c, 0, 75, 88
4, 46138, Note_off_c, 0, 75, 0
4, 46140, Note_on_c, 0, 77, 88
4, 46198, Note_off_c, 0, 77, 0
4, 46200, Note_on_c, 0, 79, 88
4, 46258, Note_off_c, 0, 79, 0
4, 46260, Note_on_c, 0, 80, 88
4, 46318, Note_off_c, 0, 80, 0
4, 46320, Note_on_c, 0, 82, 88
4, 46378, Note_off_c, 0, 82, 0
4, 46380, Note_on_c, 0, 76, 88
4, 46438, Note_off_c, 0, 76, 0
4, 46440, Note_on_c, 0, 75, 88
4, 46498, Note_off_c, 0, 75, 0
4, 46500, Note_on_c, 0, 73, 88
4, 46558, Note_off_c, 0, 73, 0
4, 46560, Note_on_c, 0, 72, 88
4, 46618, Note_off_c, 0, 72, 0
4, 46620, Note_on_c, 0, 73, 88
4, 46678, Note_off_c, 0, 73, 0
4, 46680, Note_on_c, 0, 75, 88
4, 46738, Note_off_c, 0, 75, 0
4, 46740, Note_on_c, 0, 69, 88
4, 46798, Note_off_c, 0, 69, 0
4, 46800, Note_on_c, 0, 68, 88
4, 46858, Note_off_c, 0, 68, 0
4, 46860, Note_on_c, 0, 66, 88
4, 46918, Note_off_c, 0, 66, 0
4, 46920, Note_on_c, 0, 64, 88
4, 46978, Note_off_c, 0, 64, 0
4, 46980, Note_on_c, 0, 63, 88
4, 47038, Note_off_c, 0, 63, 0
4, 47040, Note_on_c, 0, 64, 88
4, 47098, Note_off_c, 0, 64, 0
4, 47100, Note_on_c, 0, 73, 88
4, 47158, Note_off_c, 0, 73, 0
4, 47160, Note_on_c, 0, 64, 88
4, 47218, Note_off_c, 0, 64, 0
4, 47220, Note_on_c, 0, 73, 88
4, 47278, Note_off_c, 0, 73, 0
4, 47280, Note_on_c, 0, 65, 88
4, 47338, Note_off_c, 0, 65, 0
4, 47340, Note_on_c, 0, 74, 88
4, 47398, Note_off_c, 0, 74, 0
4, 47400, Note_on_c, 0, 65, 88
4, 47458, Note_off_c, 0, 65, 0
4, 47460, Note_on_c, 0, 74, 88
4, 47518, Note_off_c, 0, 74, 0
4, 47520, Note_on_c, 0, 73, 88
4, 47578, Note_off_c, 0, 73, 0
4, 47580, Note_on_c, 0, 69, 88
4, 47638, Note_off_c, 0, 69, 0
4, 47640, Note_on_c, 0, 68, 88
4, 47698, Note_off_c, 0, 68, 0
4, 47700, Note_on_c, 0, 66, 88
4, 47758, Note_off_c, 0, 66, 0
4, 47760, Note_on_c, 0, 65, 88
4, 47818, Note_off_c, 0, 65, 0
4, 47820, Note_on_c, 0, 74, 88
4, 47878, Note_off_c, 0, 74, 0
4, 47880, Note_on_c, 0, 73, 88
4, 47938, Note_off_c, 0, 73, 0
4, 47940, Note_on_c, 0, 71, 88
4, 47998, Note_off_c, 0, 71, 0
4, 48000, Note_on_c, 0, 70, 88
4, 48058, Note_off_c, 0, 70, 0
4, 48060, Note_on_c, 0, 71, 88
4, 48118, Note_off_c, 0, 71, 0
4, 48120, Note_on_c, 0, 73, 88
4, 48178, Note_off_c, 0, 73, 0
4, 48180, Note_on_c, 0, 75, 88
4, 48238, Note_off_c, 0, 75, 0
4, 48240, Note_on_c, 0, 76, 88
4, 48298, Note_off_c, 0, 76, 0
4, 48300, Note_on_c, 0, 71, 88
4, 48358, Note_off_c, 0, 71, 0
4, 48360, Note_on_c, 0, 69, 88
4, 48418, Note_off_c, 0, 69, 0
4, 48420, Note_on_c, 0, 68, 88
4, 48478, Note_off_c, 0, 68, 0
4, 48480, Note_on_c, 0, 67, 88
4, 48538, Note_off_c, 0, 67, 0
4, 48540, Note_on_c, 0, 68, 88
4, 48598, Note_off_c, 0, 68, 0
4, 48600, Note_on_c, 0, 70, 88
4, 48658, Note_off_c, 0, 70, 0
4, 48660, Note_on_c, 0, 64, 88
4, 48718, Note_off_c, 0, 64, 0
4, 48720, Note_on_c, 0, 63, 88
4, 48778, Note_off_c, 0, 63, 0
4, 48780, Note_on_c, 0, 61, 88
4, 48838, Note_off_c, 0, 61, 0
4, 48840, Note_on_c, 0, 59, 88
4, 48898, Note_off_c, 0, 59, 0
4, 48900, Note_on_c, 0, 58, 88
4, 48958, Note_off_c, 0, 58, 0
4, 48960, Note_on_c, 0, 59, 88
4, 49018, Note_off_c, 0, 59, 0
4, 49020, Note_on_c, 0, 68, 88
4, 49078, Note_off_c, 0, 68, 0
4, 49080, Note_on_c, 0, 59, 88
4, 49138, Note_off_c, 0, 59, 0
4, 49140, Note_on_c, 0, 68, 88
4, 49198, Note_off_c, 0, 68, 0
4, 49200, Note_on_c, 0, 60, 88
4, 49258, Note_off_c, 0, 60, 0
4, 49260, Note_on_c, 0, 69, 88
4, 49318, Note_off_c, 0, 69, 0
4, 49320, Note_on_c, 0, 60, 88
4, 49378, Note_off_c, 0, 60, 0
4, 49380, Note_on_c, 0, 69, 88
4, 49438, Note_off_c, 0, 69, 0
4, 49440, Note_on_c, 0, 68, 88
4, 49498, Note_off_c, 0, 68, 0
4, 49500, Note_on_c, 0, 64, 88
4, 49558, Note_off_c, 0, 64, 0
4, 49560, Note_on_c, 0, 63, 88
4, 49618, Note_off_c, 0, 63, 0
4, 49620, Note_on_c, 0, 61, 88
4, 49678, Note_off_c, 0, 61, 0
4, 49680, Note_on_c, 0, 60, 88
4, 49738, Note_off_c, 0, 60, 0
4, 49740, Note_on_c, 0, 69, 88
4, 49798, Note_off_c, 0, 69, 0
4, 49800, Note_on_c, 0, 68, 88
4, 49858, Note_off_c, 0, 68, 0
4, 49860, Note_on_c, 0, 66, 88
4, 49918, Note_off_c, 0, 66, 0
4, 49920, Note_on_c, 0, 65, 88
4, 49978, Note_off_c, 0, 65, 0
4, 49980, Note_on_c, 0, 66, 88
4, 50038, Note_off_c, 0, 66, 0
4, 50040, Note_on_c, 0, 68, 88
4, 50098, Note_off_c, 0, 68, 0
4, 50100, Note_on_c, 0, 70, 88
4, 50158, Note_off_c, 0, 70, 0
4, 50160, Note_on_c, 0, 71, 88
4, 50218, Note_off_c, 0, 71, 0
4, 50220, Note_on_c, 0, 74, 88
4, 50278, Note_off_c, 0, 74, 0
4, 50280, Note_on_c, 0, 73, 88
4, 50338, Note_off_c, 0, 73, 0
4, 50340, Note_on_c, 0, 71, 88
4, 50398, Note_off_c, 0, 71, 0
4, 50400, Note_on_c, 0, 70, 88
4, 50458, Note_off_c, 0, 70, 0
4, 50460, Note_on_c, 0, 71, 88
4, 50518, Note_off_c, 0, 71, 0
4, 50520, Note_on_c, 0, 73, 88
4, 50578, Note_off_c, 0, 73, 0
4, 50580, Note_on_c, 0, 68, 88
4, 50638, Note_off_c, 0, 68, 0
4, 50640, Note_on_c, 0, 66, 88
4, 50698, Note_off_c, 0, 66, 0
4, 50700, Note_on_c, 0, 64, 88
4, 50758, Note_off_c, 0, 64, 0
4, 50760, Note_on_c, 0, 63, 88
4, 50818, Note_off_c, 0, 63, 0
4, 50820, Note_on_c, 0, 61, 88
4, 50878, Note_off_c, 0, 61, 0
4, 50880, Note_on_c, 0, 63, 88
4, 50938, Note_off_c, 0, 63, 0
4, 50940, Note_on_c, 0, 64, 88
4, 50998, Note_off_c, 0, 64, 0
4, 51000, Note_on_c, 0, 66, 88
4, 51058, Note_off_c, 0, 66, 0
4, 51060, Note_on_c, 0, 68, 88
4, 51118, Note_off_c, 0, 68, 0
4, 51120, Note_on_c, 0, 69, 88
4, 51178, Note_off_c, 0, 69, 0
4, 51180, Note_on_c, 0, 73, 88
4, 51238, Note_off_c, 0, 73, 0
4, 51240, Note_on_c, 0, 71, 88
4, 51298, Note_off_c, 0, 71, 0
4, 51300, Note_on_c, 0, 69, 88
4, 51358, Note_off_c, 0, 69, 0
4, 51360, Note_on_c, 0, 68, 88
4, 51418, Note_off_c, 0, 68, 0
4, 51420, Note_on_c, 0, 69, 88
4, 51478, Note_off_c, 0, 69, 0
4, 51480, Note_on_c, 0, 71, 88
4, 51538, Note_off_c, 0, 71, 0
4, 51540, Note_on_c, 0, 66, 88
4, 51598, Note_off_c, 0, 66, 0
4, 51600, Note_on_c, 0, 64, 88
4, 51658, Note_off_c, 0, 64, 0
4, 51660, Note_on_c, 0, 62, 88
4, 51718, Note_off_c, 0, 62, 0
4, 51720, Note_on_c, 0, 61, 88
4, 51778, Note_off_c, 0, 61, 0
4, 51780, Note_on_c, 0, 59, 88
4, 51838, Note_off_c, 0, 59, 0
4, 51840, Note_on_c, 0, 61, 88
4, 51956, Note_off_c, 0, 61, 0
4, 51960, Note_on_c, 0, 69, 88
4, 52073, Note_off_c, 0, 69, 0
4, 52080, Note_on_c, 0, 69, 88
4, 52196, Note_off_c, 0, 69, 0
4, 52200, Note_on_c, 0, 71, 88
4, 52316, Note_off_c, 0, 71, 0
4, 52440, Note_on_c, 0, 69, 88
4, 52556, Note_off_c, 0, 69, 0
4, 52560, Note_on_c, 0, 68, 88
4, 52794, Note_off_c, 0, 68, 0
4, 52920, Note_on_c, 0, 66, 88
4, 52978, Note_off_c, 0, 66, 0
4, 52980, Note_on_c, 0, 68, 88
4, 53038, Note_off_c, 0, 68, 0
4, 53040, Note_on_c, 0, 69, 88
4, 53156, Note_off_c, 0, 69, 0
4, 53160, Note_on_c, 0, 73, 88
4, 53276, Note_off_c, 0, 73, 0
4, 53400, Note_on_c, 0, 76, 88
4, 53516, Note_off_c, 0, 76, 0
4, 53520, Note_on_c, 0, 75, 88
4, 53636, Note_off_c, 0, 75, 0
4, 53640, Note_on_c, 0, 73, 88
4, 53756, Note_off_c, 0, 73, 0
4, 53880, Note_on_c, 0, 71, 88
4, 53938, Note_off_c, 0, 71, 0
4, 53940, Note_on_c, 0, 70, 88
4, 53998, Note_off_c, 0, 70, 0
4, 54000, Note_on_c, 0, 71, 88
4, 54116, Note_off_c, 0, 71, 0
4, 54120, Note_on_c, 0, 75, 88
4, 54236, Note_off_c, 0, 75, 0
4, 54360, Note_on_c, 0, 78, 88
4, 54476, Note_off_c, 0, 78, 0
4, 54480, Note_on_c, 0, 77, 88
4, 54596, Note_off_c, 0, 77, 0
4, 54600, Note_on_c, 0, 75, 88
4, 54716, Note_off_c, 0, 75, 0
4, 54720, Note_on_c, 0, 65, 88
4, 54778, Note_off_c, 0, 65, 0
4, 54780, Note_on_c, 0, 71, 88
4, 54838, Note_off_c, 0, 71, 0
4, 54840, Note_on_c, 0, 70, 88
4, 54898, Note_off_c, 0, 70, 0
4, 54900, Note_on_c, 0, 68, 88
4, 54958, Note_off_c, 0, 68, 0
4, 54960, Note_on_c, 0, 77, 88
4, 55018, Note_off_c, 0, 77, 0
4, 55020, Note_on_c, 0, 68, 88
4, 55078, Note_off_c, 0, 68, 0
4, 55080, Note_on_c, 0, 77, 88
4, 55138, Note_off_c, 0, 77, 0
4, 55140, Note_on_c, 0, 68, 88
4, 55198, Note_off_c, 0, 68, 0
4, 55200, Note_on_c, 0, 67, 88
4, 55258, Note_off_c, 0, 67, 0
4, 55260, Note_on_c, 0, 76, 88
4, 55318, Note_off_c, 0, 76, 0
4, 55320, Note_on_c, 0, 75, 88
4, 55378, Note_off_c, 0, 75, 0
4, 55380, Note_on_c, 0, 73, 88
4, 55438, Note_off_c, 0, 73, 0
4, 55440, Note_on_c, 0, 82, 88
4, 55498, Note_off_c, 0, 82, 0
4, 55500, Note_on_c, 0, 73, 88
4, 55558, Note_off_c, 0, 73, 0
4, 55560, Note_on_c, 0, 82, 88
4, 55618, Note_off_c, 0, 82, 0
4, 55620, Note_on_c, 0, 73, 88
4, 55678, Note_off_c, 0, 73, 0
4, 55680, Note_on_c, 0, 72, 88
4, 55738, Note_off_c, 0, 72, 0
4, 55740, Note_on_c, 0, 69, 88
4, 55798, Note_off_c, 0, 69, 0
4, 55800, Note_on_c, 0, 68, 88
4, 55858, Note_off_c, 0, 68, 0
4, 55860, Note_on_c, 0, 66, 88
4, 55918, Note_off_c, 0, 66, 0
4, 55920, Note_on_c, 0, 75, 88
4, 55978, Note_off_c, 0, 75, 0
4, 55980, Note_on_c, 0, 66, 88
4, 56038, Note_off_c, 0, 66, 0
4, 56040, Note_on_c, 0, 75, 88
4, 56098, Note_off_c, 0, 75, 0
4, 56100, Note_on_c, 0, 66, 88
4, 56158, Note_off_c, 0, 66, 0
4, 56160, Note_on_c, 0, 65, 88
4, 56218, Note_off_c, 0, 65, 0
4, 56220, Note_on_c, 0, 74, 88
4, 56278, Note_off_c, 0, 74, 0
4, 56280, Note_on_c, 0, 73, 88
4, 56338, Note_off_c, 0, 73, 0
4, 56340, Note_on_c, 0, 71, 88
4, 56398, Note_off_c, 0, 71, 0
4, 56400, Note_on_c, 0, 80, 88
4, 56458, Note_off_c, 0, 80, 0
4, 56460, Note_on_c, 0, 71, 88
4, 56518, Note_off_c, 0, 71, 0
4, 56520, Note_on_c, 0, 80, 88
4, 56578, Note_off_c, 0, 80, 0
4, 56580, Note_on_c, 0, 71, 88
4, 56638, Note_off_c, 0, 71, 0
4, 56640, Note_on_c, 0, 70, 88
4, 56698, Note_off_c, 0, 70, 0
4, 56700, Note_on_c, 0, 73, 88
4, 56758, Note_off_c, 0, 73, 0
4, 56760, Note_on_c, 0, 75, 88
4, 56818, Note_off_c, 0, 75, 0
4, 56820, Note_on_c, 0, 77, 88
4, 56878, Note_off_c, 0, 77, 0
4, 56880, Note_on_c, 0, 78, 88
4, 56996, Note_off_c, 0, 78, 0
4, 57000, Note_on_c, 0, 70, 88
4, 57116, Note_off_c, 0, 70, 0
4, 57120, Note_on_c, 0, 69, 88
4, 57236, Note_off_c, 0, 69, 0
4, 57240, Note_on_c, 0, 78, 88
4, 57356, Note_off_c, 0, 78, 0
4, 57360, Note_on_c, 0, 77, 88
4, 57476, Note_off_c, 0, 77, 0
4, 57480, Note_on_c, 0, 68, 88
4, 57596, Note_off_c, 0, 68, 0
4, 57600, Note_on_c, 0, 67, 88
4, 57658, Note_off_c, 0, 67, 0
4, 57660, Note_on_c, 0, 70, 88
4, 57718, Note_off_c, 0, 70, 0
4, 57720, Note_on_c, 0, 72, 88
4, 57778, Note_off_c, 0, 72, 0
4, 57780, Note_on_c, 0, 74, 88
4, 57838, Note_off_c, 0, 74, 0
4, 57840, Note_on_c, 0, 75, 88
4, 57956, Note_off_c, 0, 75, 0
4, 57960, Note_on_c, 0, 66, 88
4, 58076, Note_off_c, 0, 66, 0
4, 58080, Note_on_c, 0, 65, 88
4, 58196, Note_off_c, 0, 65, 0
4, 58200, Note_on_c, 0, 74, 88
4, 58316, Note_off_c, 0, 74, 0
4, 58320, Note_on_c, 0, 73, 88
4, 58436, Note_off_c, 0, 73, 0
4, 58440, Note_on_c, 0, 64, 88
4, 58556, Note_off_c, 0, 64, 0
4, 58560, Note_on_c, 0, 63, 88
4, 58618, Note_off_c, 0, 63, 0
4, 58620, Note_on_c, 0, 67, 88
4, 58678, Note_off_c, 0, 67, 0
4, 58680, Note_on_c, 0, 68, 88
4, 58738, Note_off_c, 0, 68, 0
4, 58740, Note_on_c, 0, 70, 88
4, 58798, Note_off_c, 0, 70, 0
4, 58800, Note_on_c, 0, 71, 88
4, 58916, Note_off_c, 0, 71, 0
4, 58920, Note_on_c, 0, 63, 88
4, 59036, Note_off_c, 0, 63, 0
4, 59040, Note_on_c, 0, 62, 88
4, 59156, Note_off_c, 0, 62, 0
4, 59160, Note_on_c, 0, 71, 88
4, 59276, Note_off_c, 0, 71, 0
4, 59280, Note_on_c, 0, 70, 88
4, 59396, Note_off_c, 0, 70, 0
4, 59400, Note_on_c, 0, 61, 88
4, 59516, Note_off_c, 0, 61, 0
4, 59520, Note_on_c, 0, 60, 88
4, 59636, Note_off_c, 0, 60, 0
4, 59640, Note_on_c, 0, 69, 88
4, 59756, Note_off_c, 0, 69, 0
4, 59760, Note_on_c, 0, 68, 88
4, 59876, Note_off_c, 0, 68, 0
4, 59880, Note_on_c, 0, 59, 88
4, 59996, Note_off_c, 0, 59, 0
4, 60000, Note_on_c, 0, 58, 88
4, 60116, Note_off_c, 0, 58, 0
4, 60120, Note_on_c, 0, 68, 88
4, 60236, Note_off_c, 0, 68, 0
4, 60240, Note_on_c, 0, 67, 88
4, 60356, Note_off_c, 0, 67, 0
4, 60360, Note_on_c, 0, 57, 88
4, 60476, Note_off_c, 0, 57, 0
4, 60480, Note_on_c, 0, 56, 88
4, 60596, Note_off_c, 0, 56, 0
4, 60600, Note_on_c, 0, 66, 88
4, 60716, Note_off_c, 0, 66, 0
4, 60720, Note_on_c, 0, 65, 88
4, 60836, Note_off_c, 0, 65, 0
4, 60840, Note_on_c, 0, 64, 88
4, 60953, Note_off_c, 0, 64, 0
4, 60960, Note_on_c, 0, 64, 88
4, 61076, Note_off_c, 0, 64, 0
4, 61080, Note_on_c, 0, 63, 88
4, 61196, Note_off_c, 0, 63, 0
4, 61440, Note_on_c, 0, 68, 88
4, 61498, Note_off_c, 0, 68, 0
4, 61500, Note_on_c, 0, 70, 88
4, 61558, Note_off_c, 0, 70, 0
4, 61560, Note_on_c, 0, 71, 88
4, 61618, Note_off_c, 0, 71, 0
4, 61620, Note_on_c, 0, 73, 88
4, 61678, Note_off_c, 0, 73, 0
4, 61680, Note_on_c, 0, 75, 88
4, 61738, Note_off_c, 0, 75, 0
4, 61740, Note_on_c, 0, 71, 88
4, 61798, Note_off_c, 0, 71, 0
4, 61800, Note_on_c, 0, 70, 88
4, 61858, Note_off_c, 0, 70, 0
4, 61860, Note_on_c, 0, 68, 88
4, 61918, Note_off_c, 0, 68, 0
4, 61920, Note_on_c, 0, 67, 88
4, 61978, Note_off_c, 0, 67, 0
4, 61980, Note_on_c, 0, 68, 88
4, 62038, Note_off_c, 0, 68, 0
4, 62040, Note_on_c, 0, 70, 88
4, 62098, Note_off_c, 0, 70, 0
4, 62100, Note_on_c, 0, 64, 88
4, 62158, Note_off_c, 0, 64, 0
4, 62160, Note_on_c, 0, 63, 88
4, 62218, Note_off_c, 0, 63, 0
4, 62520, Note_on_c, 0, 80, 88
4, 62633, Note_off_c, 0, 80, 0
4, 62640, Note_on_c, 0, 80, 88
4, 62756, Note_off_c, 0, 80, 0
4, 62760, Note_on_c, 0, 82, 88
4, 62876, Note_off_c, 0, 82, 0
4, 63000, Note_on_c, 0, 80, 88
4, 63113, Note_off_c, 0, 80, 0
4, 63120, Note_on_c, 0, 80, 88
4, 63236, Note_off_c, 0, 80, 0
4, 63240, Note_on_c, 0, 79, 88
4, 63356, Note_off_c, 0, 79, 0
4, 63420, Note_on_c, 0, 67, 88
4, 63478, Note_off_c, 0, 67, 0
4, 63480, Note_on_c, 0, 68, 88
4, 63538, Note_off_c, 0, 68, 0
4, 63540, Note_on_c, 0, 70, 88
4, 63598, Note_off_c, 0, 70, 0
4, 63600, Note_on_c, 0, 71, 88
4, 63629, Note_off_c, 0, 71, 0
4, 63630, Note_on_c, 0, 70, 88
4, 63659, Note_off_c, 0, 70, 0
4, 63660, Note_on_c, 0, 68, 88
4, 63718, Note_off_c, 0, 68, 0
4, 63720, Note_on_c, 0, 76, 88
4, 63833, Note_off_c, 0, 76, 0
4, 63840, Note_on_c, 0, 76, 88
4, 63956, Note_off_c, 0, 76, 0
4, 63960, Note_on_c, 0, 75, 88
4, 64076, Note_off_c, 0, 75, 0
4, 64440, Note_on_c, 0, 71, 88
4, 64556, Note_off_c, 0, 71, 0
4, 64560, Note_on_c, 0, 73, 88
4, 64676, Note_off_c, 0, 73, 0
4, 64680, Note_on_c, 0, 72, 88
4, 64796, Note_off_c, 0, 72, 0
4, 64920, Note_on_c, 0, 73, 88
4, 65036, Note_off_c, 0, 73, 0
4, 65040, Note_on_c, 0, 78, 88
4, 65156, Note_off_c, 0, 78, 0
4, 65160, Note_on_c, 0, 75, 88
4, 65276, Note_off_c, 0, 75, 0
4, 65400, Note_on_c, 0, 76, 88
4, 65516, Note_off_c, 0, 76, 0
4, 65520, Note_on_c, 0, 78, 88
4, 65636, Note_off_c, 0, 78, 0
4, 65640, Note_on_c, 0, 77, 88
4, 65756, Note_off_c, 0, 77, 0
4, 65880, Note_on_c, 0, 82, 88
4, 65993, Note_off_c, 0, 82, 0
4, 66000, Note_on_c, 0, 82, 88
4, 66113, Note_off_c, 0, 82, 0
4, 66120, Note_on_c, 0, 82, 88
4, 66236, Note_off_c, 0, 82, 0
4, 66240, Note_on_c, 0, 82, 88
4, 66474, Note_off_c, 0, 82, 0
4, 66540, Note_on_c, 0, 76, 88
4, 66598, Note_off_c, 0, 76, 0
4, 66600, Note_on_c, 0, 75, 88
4, 66658, Note_off_c, 0, 75, 0
4, 66660, Note_on_c, 0, 73, 88
4, 66718, Note_off_c, 0, 73, 0
4, 66720, Note_on_c, 0, 71, 88
4, 66778, Note_off_c, 0, 71, 0
4, 66780, Note_on_c, 0, 73, 88
4, 66838, Note_off_c, 0, 73, 0
4, 66840, Note_on_c, 0, 75, 88
4, 66898, Note_off_c, 0, 75, 0
4, 66900, Note_on_c, 0, 68, 88
4, 66958, Note_off_c, 0, 68, 0
4, 66960, Note_on_c, 0, 71, 88
4, 67018, Note_off_c, 0, 71, 0
4, 67020, Note_on_c, 0, 70, 88
4, 67078, Note_off_c, 0, 70, 0
4, 67080, Note_on_c, 0, 68, 88
4, 67138, Note_off_c, 0, 68, 0
4, 67140, Note_on_c, 0, 67, 88
4, 67198, Note_off_c, 0, 67, 0
4, 67200, Note_on_c, 0, 68, 88
4, 67258, Note_off_c, 0, 68, 0
4, 67260, Note_on_c, 0, 71, 88
4, 67318, Note_off_c, 0, 71, 0
4, 67320, Note_on_c, 0, 68, 88
4, 67378, Note_off_c, 0, 68, 0
4, 67380, Note_on_c, 0, 71, 88
4, 67438, Note_off_c, 0, 71, 0
4, 67440, Note_on_c, 0, 66, 88
4, 67498, Note_off_c, 0, 66, 0
4, 67500, Note_on_c, 0, 75, 88
4, 67558, Note_off_c, 0, 75, 0
4, 67560, Note_on_c, 0, 66, 88
4, 67618, Note_off_c, 0, 66, 0
4, 67620, Note_on_c, 0, 75, 88
4, 67678, Note_off_c, 0, 75, 0
4, 67680, Note_on_c, 0, 65, 88
4, 67738, Note_off_c, 0, 65, 0
4, 67740, Note_on_c, 0, 73, 88
4, 67798, Note_off_c, 0, 73, 0
4, 67800, Note_on_c, 0, 65, 88
4, 67858, Note_off_c, 0, 65, 0
4, 67860, Note_on_c, 0, 73, 88
4, 67918, Note_off_c, 0, 73, 0
4, 67920, Note_on_c, 0, 61, 88
4, 67978, Note_off_c, 0, 61, 0
4, 67980, Note_on_c, 0, 71, 88
4, 68038, Note_off_c, 0, 71, 0
4, 68040, Note_on_c, 0, 61, 88
4, 68098, Note_off_c, 0, 61, 0
4, 68100, Note_on_c, 0, 71, 88
4, 68158, Note_off_c, 0, 71, 0
4, 68160, Note_on_c, 0, 66, 88
4, 68218, Note_off_c, 0, 66, 0
4, 68220, Note_on_c, 0, 70, 88
4, 68278, Note_off_c, 0, 70, 0
4, 68280, Note_on_c, 0, 66, 88
4, 68338, Note_off_c, 0, 66, 0
4, 68340, Note_on_c, 0, 70, 88
4, 68398, Note_off_c, 0, 70, 0
4, 68400, Note_on_c, 0, 64, 88
4, 68458, Note_off_c, 0, 64, 0
4, 68460, Note_on_c, 0, 73, 88
4, 68518, Note_off_c, 0, 73, 0
4, 68520, Note_on_c, 0, 64, 88
4, 68578, Note_off_c, 0, 64, 0
4, 68580, Note_on_c, 0, 73, 88
4, 68638, Note_off_c, 0, 73, 0
4, 68640, Note_on_c, 0, 63, 88
4, 68698, Note_off_c, 0, 63, 0
4, 68700, Note_on_c, 0, 71, 88
4, 68758, Note_off_c, 0, 71, 0
4, 68760, Note_on_c, 0, 63, 88
4, 68818, Note_off_c, 0, 63, 0
4, 68820, Note_on_c, 0, 71, 88
4, 68878, Note_off_c, 0, 71, 0
4, 68880, Note_on_c, 0, 59, 88
4, 68938, Note_off_c, 0, 59, 0
4, 68940, Note_on_c, 0, 70, 88
4, 68998, Note_off_c, 0, 70, 0
4, 69000, Note_on_c, 0, 59, 88
4, 69058, Note_off_c, 0, 59, 0
4, 69060, Note_on_c, 0, 70, 88
4, 69118, Note_off_c, 0, 70, 0
4, 69120, Note_on_c, 0, 64, 88
4, 69178, Note_off_c, 0, 64, 0
4, 69180, Note_on_c, 0, 68, 88
4, 69238, Note_off_c, 0, 68, 0
4, 69240, Note_on_c, 0, 64, 88
4, 69298, Note_off_c, 0, 64, 0
4, 69300, Note_on_c, 0, 68, 88
4, 69358, Note_off_c, 0, 68, 0
4, 69360, Note_on_c, 0, 63, 88
4, 69418, Note_off_c, 0, 63, 0
4, 69420, Note_on_c, 0, 71, 88
4, 69478, Note_off_c, 0, 71, 0
4, 69480, Note_on_c, 0, 63, 88
4, 69538, Note_off_c, 0, 63, 0
4, 69540, Note_on_c, 0, 71, 88
4, 69598, Note_off_c, 0, 71, 0
4, 69600, Note_on_c, 0, 62, 88
4, 69658, Note_off_c, 0, 62, 0
4, 69660, Note_on_c, 0, 70, 88
4, 69718, Note_off_c, 0, 70, 0
4, 69720, Note_on_c, 0, 62, 88
4, 69778, Note_off_c, 0, 62, 0
4, 69780, Note_on_c, 0, 70, 88
4, 69838, Note_off_c, 0, 70, 0
4, 69840, Note_on_c, 0, 58, 88
4, 69898, Note_off_c, 0, 58, 0
4, 69900, Note_on_c, 0, 68, 88
4, 69958, Note_off_c, 0, 68, 0
4, 69960, Note_on_c, 0, 58, 88
4, 70018, Note_off_c, 0, 58, 0
4, 70020, Note_on_c, 0, 68, 88
4, 70078, Note_off_c, 0, 68, 0
4, 70080, Note_on_c, 0, 67, 88
4, 70138, Note_off_c, 0, 67, 0
4, 70140, Note_on_c, 0, 63, 88
4, 70198, Note_off_c, 0, 63, 0
4, 70200, Note_on_c, 0, 68, 88
4, 70258, Note_off_c, 0, 68, 0
4, 70260, Note_on_c, 0, 70, 88
4, 70318, Note_off_c, 0, 70, 0
4, 70320, Note_on_c, 0, 71, 88
4, 70436, Note_off_c, 0, 71, 0
4, 70440, Note_on_c, 0, 70, 88
4, 70674, Note_off_c, 0, 70, 0
4, 70680, Note_on_c, 0, 68, 88
4, 70796, Note_off_c, 0, 68, 0
4, 71040, Note_on_c, 0, 75, 88
4, 71098, Note_off_c, 0, 75, 0
4, 71100, Note_on_c, 0, 77, 88
4, 71158, Note_off_c, 0, 77, 0
4, 71160, Note_on_c, 0, 79, 88
4, 71218, Note_off_c, 0, 79, 0
4, 71220, Note_on_c, 0, 80, 88
4, 71278, Note_off_c, 0, 80, 0
4, 71280, Note_on_c, 0, 82, 88
4, 71338, Note_off_c, 0, 82, 0
4, 71340, Note_on_c, 0, 76, 88
4, 71398, Note_off_c, 0, 76, 0
4, 71400, Note_on_c, 0, 75, 88
4, 71458, Note_off_c, 0, 75, 0
4, 71460, Note_on_c, 0, 73, 88
4, 71518, Note_off_c, 0, 73, 0
4, 71520, Note_on_c, 0, 72, 88
4, 71578, Note_off_c, 0, 72, 0
4, 71580, Note_on_c, 0, 73, 88
4, 71638, Note_off_c, 0, 73, 0
4, 71640, Note_on_c, 0, 75, 88
4, 71698, Note_off_c, 0, 75, 0
4, 71700, Note_on_c, 0, 69, 88
4, 71758, Note_off_c, 0, 69, 0
4, 71760, Note_on_c, 0, 68, 88
4, 71818, Note_off_c, 0, 68, 0
4, 71820, Note_on_c, 0, 66, 88
4, 71878, Note_off_c, 0, 66, 0
4, 71880, Note_on_c, 0, 64, 88
4, 71938, Note_off_c, 0, 64, 0
4, 71940, Note_on_c, 0, 63, 88
4, 71998, Note_off_c, 0, 63, 0
4, 72000, Note_on_c, 0, 64, 88
4, 72058, Note_off_c, 0, 64, 0
4, 72060, Note_on_c, 0, 73, 88
4, 72118, Note_off_c, 0, 73, 0
4, 72120, Note_on_c, 0, 64, 88
4, 72178, Note_off_c, 0, 64, 0
4, 72180, Note_on_c, 0, 73, 88
4, 72238, Note_off_c, 0, 73, 0
4, 72240, Note_on_c, 0, 65, 88
4, 72298, Note_off_c, 0, 65, 0
4, 72300, Note_on_c, 0, 74, 88
4, 72358, Note_off_c, 0, 74, 0
4, 72360, Note_on_c, 0, 65, 88
4, 72418, Note_off_c, 0, 65, 0
4, 72420, Note_on_c, 0, 74, 88
4, 72478, Note_off_c, 0, 74, 0
4, 72480, Note_on_c, 0, 73, 88
4, 72538, Note_off_c, 0, 73, 0
4, 72540, Note_on_c, 0, 69, 88
4, 72598, Note_off_c, 0, 69, 0
4, 72600, Note_on_c, 0, 68, 88
4, 72658, Note_off_c, 0, 68, 0
4, 72660, Note_on_c, 0, 66, 88
4, 72718, Note_off_c, 0, 66, 0
4, 72720, Note_on_c, 0, 65, 88
4, 72778, Note_off_c, 0, 65, 0
4, 72780, Note_on_c, 0, 74, 88
4, 72838, Note_off_c, 0, 74, 0
4, 72840, Note_on_c, 0, 73, 88
4, 72898, Note_off_c, 0, 73, 0
4, 72900, Note_on_c, 0, 71, 88
4, 72958, Note_off_c, 0, 71, 0
4, 72960, Note_on_c, 0, 70, 88
4, 73018, Note_off_c, 0, 70, 0
4, 73020, Note_on_c, 0, 71, 88
4, 73078, Note_off_c, 0, 71, 0
4, 73080, Note_on_c, 0, 73, 88
4, 73138, Note_off_c, 0, 73, 0
4, 73140, Note_on_c, 0, 75, 88
4, 73198, Note_off_c, 0, 75, 0
4, 73200, Note_on_c, 0, 76, 88
4, 73258, Note_off_c, 0, 76, 0
4, 73260, Note_on_c, 0, 71, 88
4, 73318, Note_off_c, 0, 71, 0
4, 73320, Note_on_c, 0, 69, 88
4, 73378, Note_off_c, 0, 69, 0
4, 73380, Note_on_c, 0, 68, 88
4, 73438, Note_off_c, 0, 68, 0
4, 73440, Note_on_c, 0, 67, 88
4, 73498, Note_off_c, 0, 67, 0
4, 73500, Note_on_c, 0, 68, 88
4, 73558, Note_off_c, 0, 68, 0
4, 73560, Note_on_c, 0, 70, 88
4, 73618, Note_off_c, 0, 70, 0
4, 73620, Note_on_c, 0, 64, 88
4, 73678, Note_off_c, 0, 64, 0
4, 73680, Note_on_c, 0, 63, 88
4, 73738, Note_off_c, 0, 63, 0
4, 73740, Note_on_c, 0, 61, 88
4, 73798, Note_off_c, 0, 61, 0
4, 73800, Note_on_c, 0, 59, 88
4, 73858, Note_off_c, 0, 59, 0
4, 73860, Note_on_c, 0, 58, 88
4, 73918, Note_off_c, 0, 58, 0
4, 73920, Note_on_c, 0, 59, 88
4, 73978, Note_off_c, 0, 59, 0
4, 73980, Note_on_c, 0, 68, 88
4, 74038, Note_off_c, 0, 68, 0
4, 74040, Note_on_c, 0, 59, 88
4, 74098, Note_off_c, 0, 59, 0
4, 74100, Note_on_c, 0, 68, 88
4, 74158, Note_off_c, 0, 68, 0
4, 74160, Note_on_c, 0, 60, 88
4, 74218, Note_off_c, 0, 60, 0
4, 74220, Note_on_c, 0, 69, 88
4, 74278, Note_off_c, 0, 69, 0
4, 74280, Note_on_c, 0, 60, 88
4, 74338, Note_off_c, 0, 60, 0
4, 74340, Note_on_c, 0, 69, 88
4, 74398, Note_off_c, 0, 69, 0
4, 74400, Note_on_c, 0, 68, 88
4, 74458, Note_off_c, 0, 68, 0
4, 74460, Note_on_c, 0, 64, 88
4, 74518, Note_off_c, 0, 64, 0
4, 74520, Note_on_c, 0, 63, 88
4, 74578, Note_off_c, 0, 63, 0
4, 74580, Note_on_c, 0, 61, 88
4, 74638, Note_off_c, 0, 61, 0
4, 74640, Note_on_c, 0, 60, 88
4, 74698, Note_off_c, 0, 60, 0
4, 74700, Note_on_c, 0, 69, 88
4, 74758, Note_off_c, 0, 69, 0
4, 74760, Note_on_c, 0, 68, 88
4, 74818, Note_off_c, 0, 68, 0
4, 74820, Note_on_c, 0, 66, 88
4, 74878, Note_off_c, 0, 66, 0
4, 74880, Note_on_c, 0, 65, 88
4, 74938, Note_off_c, 0, 65, 0
4, 74940, Note_on_c, 0, 66, 88
4, 74998, Note_off_c, 0, 66, 0
4, 75000, Note_on_c, 0, 68, 88
4, 75058, Note_off_c, 0, 68, 0
4, 75060, Note_on_c, 0, 70, 88
4, 75118, Note_off_c, 0, 70, 0
4, 75120, Note_on_c, 0, 71, 88
4, 75178, Note_off_c, 0, 71, 0
4, 75180, Note_on_c, 0, 74, 88
4, 75238, Note_off_c, 0, 74, 0
4, 75240, Note_on_c, 0, 73, 88
4, 75298, Note_off_c, 0, 73, 0
4, 75300, Note_on_c, 0, 71, 88
4, 75358, Note_off_c, 0, 71, 0
4, 75360, Note_on_c, 0, 70, 88
4, 75418, Note_off_c, 0, 70, 0
4, 75420, Note_on_c, 0, 71, 88
4, 75478, Note_off_c, 0, 71, 0
4, 75480, Note_on_c, 0, 73, 88
4, 75538, Note_off_c, 0, 73, 0
4, 75540, Note_on_c, 0, 68, 88
4, 75598, Note_off_c, 0, 68, 0
4, 75600, Note_on_c, 0, 66, 88
4, 75658, Note_off_c, 0, 66, 0
4, 75660, Note_on_c, 0, 64, 88
4, 75718, Note_off_c, 0, 64, 0
4, 75720, Note_on_c, 0, 63, 88
4, 75778, Note_off_c, 0, 63, 0
4, 75780, Note_on_c, 0, 61, 88
4, 75838, Note_off_c, 0, 61, 0
4, 75840, Note_on_c, 0, 63, 88
4, 75898, Note_off_c, 0, 63, 0
4, 75900, Note_on_c, 0, 64, 88
4, 75958, Note_off_c, 0, 64, 0
4, 75960, Note_on_c, 0, 66, 88
4, 76018, Note_off_c, 0, 66, 0
4, 76020, Note_on_c, 0, 68, 88
4, 76078, Note_off_c, 0, 68, 0
4, 76080, Note_on_c, 0, 69, 88
4, 76138, Note_off_c, 0, 69, 0
4, 76140, Note_on_c, 0, 73, 88
4, 76198, Note_off_c, 0, 73, 0
4, 76200, Note_on_c, 0, 71, 88
4, 76258, Note_off_c, 0, 71, 0
4, 76260, Note_on_c, 0, 69, 88
4, 76318, Note_off_c, 0, 69, 0
4, 76320, Note_on_c, 0, 68, 88
4, 76378, Note_off_c, 0, 68, 0
4, 76380, Note_on_c, 0, 69, 88
4, 76438, Note_off_c, 0, 69, 0
4, 76440, Note_on_c, 0, 71, 88
4, 76498, Note_off_c, 0, 71, 0
4, 76500, Note_on_c, 0, 66, 88
4, 76558, Note_off_c, 0, 66, 0
4, 76560, Note_on_c, 0, 64, 88
4, 76618, Note_off_c, 0, 64, 0
4, 76620, Note_on_c, 0, 62, 88
4, 76678, Note_off_c, 0, 62, 0
4, 76680, Note_on_c, 0, 61, 88
4, 76738, Note_off_c, 0, 61, 0
4, 76740, Note_on_c, 0, 59, 88
4, 76798, Note_off_c, 0, 59, 0
4, 76800, Note_on_c, 0, 61, 88
4, 76916, Note_off_c, 0, 61, 0
4, 76920, Note_on_c, 0, 69, 88
4, 77033, Note_off_c, 0, 69, 0
4, 77040, Note_on_c, 0, 69, 88
4, 77156, Note_off_c, 0, 69, 0
4, 77160, Note_on_c, 0, 71, 88
4, 77276, Note_off_c, 0, 71, 0
4, 77400, Note_on_c, 0, 69, 88
4, 77516, Note_off_c, 0, 69, 0
4, 77520, Note_on_c, 0, 68, 88
4, 77754, Note_off_c, 0, 68, 0
4, 77880, Note_on_c, 0, 66, 88
4, 77938, Note_off_c, 0, 66, 0
4, 77940, Note_on_c, 0, 68, 88
4, 77998, Note_off_c, 0, 68, 0
4, 78000, Note_on_c, 0, 69, 88
4, 78116, Note_off_c, 0, 69, 0
4, 78120, Note_on_c, 0, 73, 88
4, 78236, Note_off_c, 0, 73, 0
4, 78360, Note_on_c, 0, 76, 88
4, 78476, Note_off_c, 0, 76, 0
4, 78480, Note_on_c, 0, 75, 88
4, 78596, Note_off_c, 0, 75, 0
4, 78600, Note_on_c, 0, 73, 88
4, 78716, Note_off_c, 0, 73, 0
4, 78840, Note_on_c, 0, 71, 88
4, 78898, Note_off_c, 0, 71, 0
4, 78900, Note_on_c, 0, 70, 88
4, 78958, Note_off_c, 0, 70, 0
4, 78960, Note_on_c, 0, 71, 88
4, 79076, Note_off_c, 0, 71, 0
4, 79080, Note_on_c, 0, 75, 88
4, 79196, Note_off_c, 0, 75, 0
4, 79320, Note_on_c, 0, 78, 88
4, 79436, Note_off_c, 0, 78, 0
4, 79440, Note_on_c, 0, 77, 88
4, 79556, Note_off_c, 0, 77, 0
4, 79560, Note_on_c, 0, 75, 88
4, 79676, Note_off_c, 0, 75, 0
4, 79680, Note_on_c, 0, 65, 88
4, 79738, Note_off_c, 0, 65, 0
4, 79740, Note_on_c, 0, 71, 88
4, 79798, Note_off_c, 0, 71, 0
4, 79800, Note_on_c, 0, 70, 88
4, 79858, Note_off_c, 0, 70, 0
4, 79860, Note_on_c, 0, 68, 88
4, 79918, Note_off_c, 0, 68, 0
4, 79920, Note_on_c, 0, 77, 88
4, 79978, Note_off_c, 0, 77, 0
4, 79980, Note_on_c, 0, 68, 88
4, 80038, Note_off_c, 0, 68, 0
4, 80040, Note_on_c, 0, 77, 88
4, 80098, Note_off_c, 0, 77, 0
4, 80100, Note_on_c, 0, 68, 88
4, 80158, Note_off_c, 0, 68, 0
4, 80160, Note_on_c, 0, 67, 88
4, 80218, Note_off_c, 0, 67, 0
4, 80220, Note_on_c, 0, 76, 88
4, 80278, Note_off_c, 0, 76, 0
4, 80280, Note_on_c, 0, 75, 88
4, 80338, Note_off_c, 0, 75, 0
4, 80340, Note_on_c, 0, 73, 88
4, 80398, Note_off_c, 0, 73, 0
4, 80400, Note_on_c, 0, 82, 88
4, 80458, Note_off_c, 0, 82, 0
4, 80460, Note_on_c, 0, 73, 88
4, 80518, Note_off_c, 0, 73, 0
4, 80520, Note_on_c, 0, 82, 88
4, 80578, Note_off_c, 0, 82, 0
4, 80580, Note_on_c, 0, 73, 88
4, 80638, Note_off_c, 0, 73, 0
4, 80640, Note_on_c, 0, 72, 88
4, 80698, Note_off_c, 0, 72, 0
4, 80700, Note_on_c, 0, 69, 88
4, 80758, Note_off_c, 0, 69, 0
4, 80760, Note_on_c, 0, 68, 88
4, 80818, Note_off_c, 0, 68, 0
4, 80820, Note_on_c, 0, 66, 88
4, 80878, Note_off_c, 0, 66, 0
4, 80880, Note_on_c, 0, 75, 88
4, 80938, Note_off_c, 0, 75, 0
4, 80940, Note_on_c, 0, 66, 88
4, 80998, Note_off_c, 0, 66, 0
4, 81000, Note_on_c, 0, 75, 88
4, 81058, Note_off_c, 0, 75, 0
4, 81060, Note_on_c, 0, 66, 88
4, 81118, Note_off_c, 0, 66, 0
4, 81120, Note_on_c, 0, 65, 88
4, 81178, Note_off_c, 0, 65, 0
4, 81180, Note_on_c, 0, 74, 88
4, 81238, Note_off_c, 0, 74, 0
4, 81240, Note_on_c, 0, 73, 88
4, 81298, Note_off_c, 0, 73, 0
4, 81300, Note_on_c, 0, 71, 88
4, 81358, Note_off_c, 0, 71, 0
4, 81360, Note_on_c, 0, 80, 88
4, 81418, Note_off_c, 0, 80, 0
4, 81420, Note_on_c, 0, 71, 88
4, 81478, Note_off_c, 0, 71, 0
4, 81480, Note_on_c, 0, 80, 88
4, 81538, Note_off_c, 0, 80, 0
4, 81540, Note_on_c, 0, 71, 88
4, 81598, Note_off_c, 0, 71, 0
4, 81600, Note_on_c, 0, 70, 88
4, 81658, Note_off_c, 0, 70, 0
4, 81660, Note_on_c, 0, 73, 88
4, 81718, Note_off_c, 0, 73, 0
4, 81720, Note_on_c, 0, 75, 88
4, 81778, Note_off_c, 0, 75, 0
4, 81780, Note_on_c, 0, 77, 88
4, 81838, Note_off_c, 0, 77, 0
4, 81840, Note_on_c, 0, 78, 88
4, 81956, Note_off_c, 0, 78, 0
4, 81960, Note_on_c, 0, 70, 88
4, 82076, Note_off_c, 0, 70, 0
4, 82080, Note_on_c, 0, 69, 88
4, 82196, Note_off_c, 0, 69, 0
4, 82200, Note_on_c, 0, 78, 88
4, 82316, Note_off_c, 0, 78, 0
4, 82320, Note_on_c, 0, 77, 88
4, 82436, Note_off_c, 0, 77, 0
4, 82440, Note_on_c, 0, 68, 88
4, 82556, Note_off_c, 0, 68, 0
4, 82560, Note_on_c, 0, 67, 88
4, 82618, Note_off_c, 0, 67, 0
4, 82620, Note_on_c, 0, 70, 88
4, 82678, Note_off_c, 0, 70, 0
4, 82680, Note_on_c, 0, 72, 88
4, 82738, Note_off_c, 0, 72, 0
4, 82740, Note_on_c, 0, 74, 88
4, 82798, Note_off_c, 0, 74, 0
4, 82800, Note_on_c, 0, 75, 88
4, 82916, Note_off_c, 0, 75, 0
4, 82920, Note_on_c, 0, 66, 88
4, 83036, Note_off_c, 0, 66, 0
4, 83040, Note_on_c, 0, 65, 88
4, 83156, Note_off_c, 0, 65, 0
4, 83160, Note_on_c, 0, 74, 88
4, 83276, Note_off_c, 0, 74, 0
4, 83280, Note_on_c, 0, 73, 88
4, 83396, Note_off_c, 0, 73, 0
4, 83400, Note_on_c, 0, 64, 88
4, 83516, Note_off_c, 0, 64, 0
4, 83520, Note_on_c, 0, 63, 88
4, 83578, Note_off_c, 0, 63, 0
4, 83580, Note_on_c, 0, 67, 88
4, 83638, Note_off_c, 0, 67, 0
4, 83640, Note_on_c, 0, 68, 88
4, 83698, Note_off_c, 0, 68, 0
4, 83700, Note_on_c, 0, 70, 88
4, 83758, Note_off_c, 0, 70, 0
4, 83760, Note_on_c, 0, 71, 88
4, 83876, Note_off_c, 0, 71, 0
4, 83880, Note_on_c, 0, 63, 88
4, 83996, Note_off_c, 0, 63, 0
4, 84000, Note_on_c, 0, 62, 88
4, 84116, Note_off_c, 0, 62, 0
4, 84120, Note_on_c, 0, 71, 88
4, 84236, Note_off_c, 0, 71, 0
4, 84240, Note_on_c, 0, 70, 88
4, 84356, Note_off_c, 0, 70, 0
4, 84360, Note_on_c, 0, 61, 88
4, 84476, Note_off_c, 0, 61, 0
4, 84480, Note_on_c, 0, 60, 88
4, 84596, Note_off_c, 0, 60, 0
4, 84600, Note_on_c, 0, 69, 88
4, 84716, Note_off_c, 0, 69, 0
4, 84720, Note_on_c, 0, 68, 88
4, 84836, Note_off_c, 0, 68, 0
4, 84840, Note_on_c, 0, 59, 88
4, 84956, Note_off_c, 0, 59, 0
4, 84960, Note_on_c, 0, 58, 88
4, 85076, Note_off_c, 0, 58, 0
4, 85080, Note_on_c, 0, 68, 88
4, 85196, Note_off_c, 0, 68, 0
4, 85200, Note_on_c, 0, 67, 88
4, 85316, Note_off_c, 0, 67, 0
4, 85320, Note_on_c, 0, 57, 88
4, 85436, Note_off_c, 0, 57, 0
4, 85440, Note_on_c, 0, 56, 88
4, 85556, Note_off_c, 0, 56, 0
4, 85560, Note_on_c, 0, 66, 88
4, 85676, Note_off_c, 0, 66, 0
4, 85680, Note_on_c, 0, 65, 88
4, 85796, Note_off_c, 0, 65, 0
4, 85800, Note_on_c, 0, 64, 88
4, 85913, Note_off_c, 0, 64, 0
4, 85920, Note_on_c, 0, 64, 88
4, 86036, Note_off_c, 0, 64, 0
4, 86040, Note_on_c, 0, 63, 88
4, 86156, Note_off_c, 0, 63, 0
4, 86400, Note_on_c, 0, 68, 88
4, 86458, Note_off_c, 0, 68, 0
4, 86460, Note_on_c, 0, 70, 88
4, 86518, Note_off_c, 0, 70, 0
4, 86520, Note_on_c, 0, 71, 88
4, 86578, Note_off_c, 0, 71, 0
4, 86580, Note_on_c, 0, 73, 88
4, 86638, Note_off_c, 0, 73, 0
4, 86640, Note_on_c, 0, 75, 88
4, 86698, Note_off_c, 0, 75, 0
4, 86700, Note_on_c, 0, 71, 88
4, 86758, Note_off_c, 0, 71, 0
4, 86760, Note_on_c, 0, 70, 88
4, 86818, Note_off_c, 0, 70, 0
4, 86820, Note_on_c, 0, 68, 88
4, 86878, Note_off_c, 0, 68, 0
4, 86880, Note_on_c, 0, 67, 88
4, 86938, Note_off_c, 0, 67, 0
4, 86940, Note_on_c, 0, 68, 88
4, 86998, Note_off_c, 0, 68, 0
4, 87000, Note_on_c, 0, 70, 88
4, 87058, Note_off_c, 0, 70, 0
4, 87060, Note_on_c, 0, 64, 88
4, 87118, Note_off_c, 0, 64, 0
4, 87120, Note_on_c, 0, 63, 88
4, 87178, Note_off_c, 0, 63, 0
4, 87480, Note_on_c, 0, 80, 88
4, 87593, Note_off_c, 0, 80, 0
4, 87600, Note_on_c, 0, 80, 88
4, 87716, Note_off_c, 0, 80, 0
4, 87720, Note_on_c, 0, 82, 88
4, 87836, Note_off_c, 0, 82, 0
4, 87960, Note_on_c, 0, 80, 88
4, 88073, Note_off_c, 0, 80, 0
4, 88080, Note_on_c, 0, 80, 88
4, 88196, Note_off_c, 0, 80, 0
4, 88200, Note_on_c, 0, 79, 88
4, 88316, Note_off_c, 0, 79, 0
4, 88380, Note_on_c, 0, 67, 88
4, 88438, Note_off_c, 0, 67, 0
4, 88440, Note_on_c, 0, 68, 88
4, 88498, Note_off_c, 0, 68, 0
4, 88500, Note_on_c, 0, 70, 88
4, 88558, Note_off_c, 0, 70, 0
4, 88560, Note_on_c, 0, 71, 88
4, 88589, Note_off_c, 0, 71, 0
4, 88590, Note_on_c, 0, 70, 88
4, 88619, Note_off_c, 0, 70, 0
4, 88620, Note_on_c, 0, 68, 88
4, 88678, Note_off_c, 0, 68, 0
4, 88680, Note_on_c, 0, 76, 88
4, 88793, Note_off_c, 0, 76, 0
4, 88800, Note_on_c, 0, 76, 88
4, 88916, Note_off_c, 0, 76, 0
4, 88920, Note_on_c, 0, 75, 88
4, 89036, Note_off_c, 0, 75, 0
4, 89400, Note_on_c, 0, 71, 88
4, 89516, Note_off_c, 0, 71, 0
4, 89520, Note_on_c, 0, 73, 88
4, 89636, Note_off_c, 0, 73, 0
4, 89640, Note_on_c, 0, 72, 88
4, 89756, Note_off_c, 0, 72, 0
4, 89880, Note_on_c, 0, 73, 88
4, 89996, Note_off_c, 0, 73, 0
4, 90000, Note_on_c, 0, 78, 88
4, 90116, Note_off_c, 0, 78, 0
4, 90120, Note_on_c, 0, 75, 88
4, 90236, Note_off_c, 0, 75, 0
4, 90360, Note_on_c, 0, 76, 88
4, 90476, Note_off_c, 0, 76, 0
4, 90480, Note_on_c, 0, 78, 88
4, 90596, Note_off_c, 0, 78, 0
4, 90600, Note_on_c, 0, 77, 88
4, 90716, Note_off_c, 0, 77, 0
4, 90840, Note_on_c, 0, 82, 88
4, 90953, Note_off_c, 0, 82, 0
4, 90960, Note_on_c, 0, 82, 88
4, 91073, Note_off_c, 0, 82, 0
4, 91080, Note_on_c, 0, 82, 88
4, 91196, Note_off_c, 0, 82, 0
4, 91200, Note_on_c, 0, 82, 88
4, 91434, Note_off_c, 0, 82, 0
4, 91500, Note_on_c, 0, 76, 88
4, 91558, Note_off_c, 0, 76, 0
4, 91560, Note_on_c, 0, 75, 88
4, 91618, Note_off_c, 0, 75, 0
4, 91620, Note_on_c, 0, 73, 88
4, 91678, Note_off_c, 0, 73, 0
4, 91680, Note_on_c, 0, 71, 88
4, 91738, Note_off_c, 0, 71, 0
4, 91740, Note_on_c, 0, 73, 88
4, 91798, Note_off_c, 0, 73, 0
4, 91800, Note_on_c, 0, 75, 88
4, 91858, Note_off_c, 0, 75, 0
4, 91860, Note_on_c, 0, 68, 88
4, 91918, Note_off_c, 0, 68, 0
4, 91920, Note_on_c, 0, 71, 88
4, 91978, Note_off_c, 0, 71, 0
4, 91980, Note_on_c, 0, 70, 88
4, 92038, Note_off_c, 0, 70, 0
4, 92040, Note_on_c, 0, 68, 88
4, 92098, Note_off_c, 0, 68, 0
4, 92100, Note_on_c, 0, 67, 88
4, 92158, Note_off_c, 0, 67, 0
4, 92160, Note_on_c, 0, 68, 88
4, 92218, Note_off_c, 0, 68, 0
4, 92220, Note_on_c, 0, 71, 88
4, 92278, Note_off_c, 0, 71, 0
4, 92280, Note_on_c, 0, 68, 88
4, 92338, Note_off_c, 0, 68, 0
4, 92340, Note_on_c, 0, 71, 88
4, 92398, Note_off_c, 0, 71, 0
4, 92400, Note_on_c, 0, 66, 88
4, 92458, Note_off_c, 0, 66, 0
4, 92460, Note_on_c, 0, 75, 88
4, 92518, Note_off_c, 0, 75, 0
4, 92520, Note_on_c, 0, 66, 88
4, 92578, Note_off_c, 0, 66, 0
4, 92580, Note_on_c, 0, 75, 88
4, 92638, Note_off_c, 0, 75, 0
4, 92640, Note_on_c, 0, 65, 88
4, 92698, Note_off_c, 0, 65, 0
4, 92700, Note_on_c, 0, 73, 88
4, 92758, Note_off_c, 0, 73, 0
4, 92760, Note_on_c, 0, 65, 88
4, 92818, Note_off_c, 0, 65, 0
4, 92820, Note_on_c, 0, 73, 88
4, 92878, Note_off_c, 0, 73, 0
4, 92880, Note_on_c, 0, 61, 88
4, 92938, Note_off_c, 0, 61, 0
4, 92940, Note_on_c, 0, 71, 88
4, 92998, Note_off_c, 0, 71, 0
4, 93000, Note_on_c, 0, 61, 88
4, 93058, Note_off_c, 0, 61, 0
4, 93060, Note_on_c, 0, 71, 88
4, 93118, Note_off_c, 0, 71, 0
4, 93120, Note_on_c, 0, 66, 88
4, 93178, Note_off_c, 0, 66, 0
4, 93180, Note_on_c, 0, 70, 88
4, 93238, Note_off_c, 0, 70, 0
4, 93240, Note_on_c, 0, 66, 88
4, 93298, Note_off_c, 0, 66, 0
4, 93300, Note_on_c, 0, 70, 88
4, 93358, Note_off_c, 0, 70, 0
4, 93360, Note_on_c, 0, 64, 88
4, 93418, Note_off_c, 0, 64, 0
4, 93420, Note_on_c, 0, 73, 88
4, 93478, Note_off_c, 0, 73, 0
4, 93480, Note_on_c, 0, 64, 88
4, 93538, Note_off_c, 0, 64, 0
4, 93540, Note_on_c, 0, 73, 88
4, 93598, Note_off_c, 0, 73, 0
4, 93600, Note_on_c, 0, 63, 88
4, 93658, Note_off_c, 0, 63, 0
4, 93660, Note_on_c, 0, 71, 88
4, 93718, Note_off_c, 0, 71, 0
4, 93720, Note_on_c, 0, 63, 88
4, 93778, Note_off_c, 0, 63, 0
4, 93780, Note_on_c, 0, 71, 88
4, 93838, Note_off_c, 0, 71, 0
4, 93840, Note_on_c, 0, 59, 88
4, 93898, Note_off_c, 0, 59, 0
4, 93900, Note_on_c, 0, 70, 88
4, 93958, Note_off_c, 0, 70, 0
4, 93960, Note_on_c, 0, 59, 88
4, 94018, Note_off_c, 0, 59, 0
4, 94020, Note_on_c, 0, 70, 88
4, 94078, Note_off_c, 0, 70, 0
4, 94080, Note_on_c, 0, 64, 88
4, 94138, Note_off_c, 0, 64, 0
4, 94140, Note_on_c, 0, 68, 88
4, 94198, Note_off_c, 0, 68, 0
4, 94200, Note_on_c, 0, 64, 88
4, 94258, Note_off_c, 0, 64, 0
4, 94260, Note_on_c, 0, 68, 88
4, 94318, Note_off_c, 0, 68, 0
4, 94320, Note_on_c, 0, 63, 88
4, 94378, Note_off_c, 0, 63, 0
4, 94380, Note_on_c, 0, 71, 88
4, 94438, Note_off_c, 0, 71, 0
4, 94440, Note_on_c, 0, 63, 88
4, 94498, Note_off_c, 0, 63, 0
4, 94500, Note_on_c, 0, 71, 88
4, 94558, Note_off_c, 0, 71, 0
4, 94560, Note_on_c, 0, 62, 88
4, 94618, Note_off_c, 0, 62, 0
4, 94620, Note_on_c, 0, 70, 88
4, 94678, Note_off_c, 0, 70, 0
4, 94680, Note_on_c, 0, 62, 88
4, 94738, Note_off_c, 0, 62, 0
4, 94740, Note_on_c, 0, 70, 88
4, 94798, Note_off_c, 0, 70, 0
4, 94800, Note_on_c, 0, 58, 88
4, 94858, Note_off_c, 0, 58, 0
4, 94860, Note_on_c, 0, 68, 88
4, 94918, Note_off_c, 0, 68, 0
4, 94920, Note_on_c, 0, 58, 88
4, 94978, Note_off_c, 0, 58, 0
4, 94980, Note_on_c, 0, 68, 88
4, 95038, Note_off_c, 0, 68, 0
4, 95040, Note_on_c, 0, 67, 88
4, 95098, Note_off_c, 0, 67, 0
4, 95100, Note_on_c, 0, 63, 88
4, 95158, Note_off_c, 0, 63, 0
4, 95160, Note_on_c, 0, 68, 88
4, 95218, Note_off_c, 0, 68, 0
4, 95220, Note_on_c, 0, 70, 88
4, 95278, Note_off_c, 0, 70, 0
4, 95280, Note_on_c, 0, 71, 88
4, 95396, Note_off_c, 0, 71, 0
4, 95400, Note_on_c, 0, 70, 88
4, 95634, Note_off_c, 0, 70, 0
4, 95640, Note_on_c, 0, 68, 88
4, 95756, Note_off_c, 0, 68, 0
4, 95756, End_track
5, 0, Start_track
5, 0, Title_t, "Track 2"
5, 0, Program_c, 1, 6
5, 1080, Note_on_c, 1, 68, 88
5, 1193, Note_off_c, 1, 68, 0
5, 1200, Note_on_c, 1, 68, 88
5, 1316, Note_off_c, 1, 68, 0
5, 1320, Note_on_c, 1, 70, 88
5, 1436, Note_off_c, 1, 70, 0
5, 1560, Note_on_c, 1, 68, 88
5, 1673, Note_off_c, 1, 68, 0
5, 1680, Note_on_c, 1, 68, 88
5, 1796, Note_off_c, 1, 68, 0
5, 1800, Note_on_c, 1, 67, 88
5, 1916, Note_off_c, 1, 67, 0
5, 3000, Note_on_c, 1, 71, 88
5, 3113, Note_off_c, 1, 71, 0
5, 3120, Note_on_c, 1, 71, 88
5, 3236, Note_off_c, 1, 71, 0
5, 3240, Note_on_c, 1, 73, 88
5, 3356, Note_off_c, 1, 73, 0
5, 3480, Note_on_c, 1, 71, 88
5, 3593, Note_off_c, 1, 71, 0
5, 3600, Note_on_c, 1, 71, 88
5, 3716, Note_off_c, 1, 71, 0
5, 3720, Note_on_c, 1, 70, 88
5, 3836, Note_off_c, 1, 70, 0
5, 3960, Note_on_c, 1, 68, 88
5, 4018, Note_off_c, 1, 68, 0
5, 4020, Note_on_c, 1, 67, 88
5, 4078, Note_off_c, 1, 67, 0
5, 4080, Note_on_c, 1, 68, 88
5, 4196, Note_off_c, 1, 68, 0
5, 4200, Note_on_c, 1, 71, 88
5, 4316, Note_off_c, 1, 71, 0
5, 4440, Note_on_c, 1, 68, 88
5, 4556, Note_off_c, 1, 68, 0
5, 4680, Note_on_c, 1, 65, 88
5, 4796, Note_off_c, 1, 65, 0
5, 4920, Note_on_c, 1, 66, 88
5, 4978, Note_off_c, 1, 66, 0
5, 4980, Note_on_c, 1, 65, 88
5, 5038, Note_off_c, 1, 65, 0
5, 5040, Note_on_c, 1, 66, 88
5, 5156, Note_off_c, 1, 66, 0
5, 5160, Note_on_c, 1, 70, 88
5, 5276, Note_off_c, 1, 70, 0
5, 5400, Note_on_c, 1, 66, 88
5, 5516, Note_off_c, 1, 66, 0
5, 5640, Note_on_c, 1, 63, 88
5, 5756, Note_off_c, 1, 63, 0
5, 5880, Note_on_c, 1, 62, 88
5, 5938, Note_off_c, 1, 62, 0
5, 5940, Note_on_c, 1, 63, 88
5, 5998, Note_off_c, 1, 63, 0
5, 6000, Note_on_c, 1, 65, 88
5, 6116, Note_off_c, 1, 65, 0
5, 6120, Note_on_c, 1, 68, 88
5, 6236, Note_off_c, 1, 68, 0
5, 6360, Note_on_c, 1, 65, 88
5, 6476, Note_off_c, 1, 65, 0
5, 6600, Note_on_c, 1, 62, 88
5, 6716, Note_off_c, 1, 62, 0
5, 6720, Note_on_c, 1, 63, 88
5, 6954, Note_off_c, 1, 63, 0
5, 14760, Note_on_c, 1, 80, 88
5, 14873, Note_off_c, 1, 80, 0
5, 14880, Note_on_c, 1, 80, 88
5, 14996, Note_off_c, 1, 80, 0
5, 15000, Note_on_c, 1, 74, 88
5, 15116, Note_off_c, 1, 74, 0
5, 15480, Note_on_c, 1, 75, 88
5, 15593, Note_off_c, 1, 75, 0
5, 15600, Note_on_c, 1, 75, 88
5, 15716, Note_off_c, 1, 75, 0
5, 15720, Note_on_c, 1, 77, 88
5, 15836, Note_off_c, 1, 77, 0
5, 15960, Note_on_c, 1, 75, 88
5, 16073, Note_off_c, 1, 75, 0
5, 16080, Note_on_c, 1, 75, 88
5, 16196, Note_off_c, 1, 75, 0
5, 16200, Note_on_c, 1, 74, 88
5, 16316, Note_off_c, 1, 74, 0
5, 17400, Note_on_c, 1, 63, 88
5, 17516, Note_off_c, 1, 63, 0
5, 17520, Note_on_c, 1, 64, 88
5, 17535, Note_on_c, 1, 63, 88
5, 17535, Note_off_c, 1, 64, 0
5, 17550, Note_off_c, 1, 63, 0
5, 17550, Note_on_c, 1, 64, 88
5, 17565, Note_on_c, 1, 63, 88
5, 17565, Note_off_c, 1, 64, 0
5, 17580, Note_on_c, 1, 62, 88
5, 17580, Note_off_c, 1, 63, 0
5, 17638, Note_off_c, 1, 62, 0
5, 17640, Note_on_c, 1, 63, 88
5, 17756, Note_off_c, 1, 63, 0
5, 17880, Note_on_c, 1, 64, 88
5, 17909, Note_off_c, 1, 64, 0
5, 17910, Note_on_c, 1, 63, 88
5, 17939, Note_off_c, 1, 63, 0
5, 17940, Note_on_c, 1, 62, 88
5, 17998, Note_off_c, 1, 62, 0
5, 18000, Note_on_c, 1, 63, 88
5, 18116, Note_off_c, 1, 63, 0
5, 18120, Note_on_c, 1, 75, 88
5, 18236, Note_off_c, 1, 75, 0
5, 18240, Note_on_c, 1, 68, 88
5, 18889, Note_off_c, 1, 68, 0
5, 18900, Note_on_c, 1, 66, 88
5, 18958, Note_off_c, 1, 66, 0
5, 18960, Note_on_c, 1, 65, 88
5, 19018, Note_off_c, 1, 65, 0
5, 19020, Note_on_c, 1, 63, 88
5, 19078, Note_off_c, 1, 63, 0
5, 19080, Note_on_c, 1, 65, 88
5, 19138, Note_off_c, 1, 65, 0
5, 19140, Note_on_c, 1, 62, 88
5, 19198, Note_off_c, 1, 62, 0
5, 19200, Note_on_c, 1, 63, 88
5, 19316, Note_off_c, 1, 63, 0
5, 19320, Note_on_c, 1, 66, 88
5, 19378, Note_off_c, 1, 66, 0
5, 19380, Note_on_c, 1, 65, 88
5, 19438, Note_off_c, 1, 65, 0
5, 19440, Note_on_c, 1, 66, 88
5, 19556, Note_off_c, 1, 66, 0
5, 19560, Note_on_c, 1, 70, 88
5, 19676, Note_off_c, 1, 70, 0
5, 19800, Note_on_c, 1, 66, 88
5, 19916, Note_off_c, 1, 66, 0
5, 20040, Note_on_c, 1, 65, 88
5, 20098, Note_off_c, 1, 65, 0
5, 20100, Note_on_c, 1, 63, 88
5, 20158, Note_off_c, 1, 63, 0
5, 20280, Note_on_c, 1, 65, 88
5, 20338, Note_off_c, 1, 65, 0
5, 20340, Note_on_c, 1, 63, 88
5, 20398, Note_off_c, 1, 63, 0
5, 20400, Note_on_c, 1, 65, 88
5, 20516, Note_off_c, 1, 65, 0
5, 20520, Note_on_c, 1, 68, 88
5, 20636, Note_off_c, 1, 68, 0
5, 20760, Note_on_c, 1, 65, 88
5, 20876, Note_off_c, 1, 65, 0
5, 21000, Note_on_c, 1, 63, 88
5, 21058, Note_off_c, 1, 63, 0
5, 21060, Note_on_c, 1, 62, 88
5, 21118, Note_off_c, 1, 62, 0
5, 21240, Note_on_c, 1, 66, 88
5, 21298, Note_off_c, 1, 66, 0
5, 21300, Note_on_c, 1, 65, 88
5, 21358, Note_off_c, 1, 65, 0
5, 21360, Note_on_c, 1, 66, 88
5, 21418, Note_off_c, 1, 66, 0
5, 21420, Note_on_c, 1, 63, 88
5, 21478, Note_off_c, 1, 63, 0
5, 21480, Note_on_c, 1, 72, 88
5, 21596, Note_off_c, 1, 72, 0
5, 21720, Note_on_c, 1, 72, 88
5, 21778, Note_off_c, 1, 72, 0
5, 21780, Note_on_c, 1, 70, 88
5, 21838, Note_off_c, 1, 70, 0
5, 21840, Note_on_c, 1, 71, 88
5, 21898, Note_off_c, 1, 71, 0
5, 21900, Note_on_c, 1, 68, 88
5, 21958, Note_off_c, 1, 68, 0
5, 21960, Note_on_c, 1, 80, 88
5, 22138, Note_off_c, 1, 80, 0
5, 22140, Note_on_c, 1, 78, 88
5, 22169, Note_off_c, 1, 78, 0
5, 22170, Note_on_c, 1, 77, 88
5, 22199, Note_off_c, 1, 77, 0
5, 22200, Note_on_c, 1, 75, 88
5, 22316, Note_off_c, 1, 75, 0
5, 22320, Note_on_c, 1, 74, 88
5, 22673, Note_off_c, 1, 74, 0
5, 22680, Note_on_c, 1, 75, 88
5, 22796, Note_off_c, 1, 75, 0
5, 24120, Note_on_c, 1, 68, 88
5, 24233, Note_off_c, 1, 68, 0
5, 24240, Note_on_c, 1, 68, 88
5, 24356, Note_off_c, 1, 68, 0
5, 24360, Note_on_c, 1, 70, 88
5, 24476, Note_off_c, 1, 70, 0
5, 24600, Note_on_c, 1, 68, 88
5, 24713, Note_off_c, 1, 68, 0
5, 24720, Note_on_c, 1, 68, 88
5, 24836, Note_off_c, 1, 68, 0
5, 24840, Note_on_c, 1, 67, 88
5, 24956, Note_off_c, 1, 67, 0
5, 26040, Note_on_c, 1, 71, 88
5, 26153, Note_off_c, 1, 71, 0
5, 26160, Note_on_c, 1, 71, 88
5, 26276, Note_off_c, 1, 71, 0
5, 26280, Note_on_c, 1, 73, 88
5, 26396, Note_off_c, 1, 73, 0
5, 26520, Note_on_c, 1, 71, 88
5, 26633, Note_off_c, 1, 71, 0
5, 26640, Note_on_c, 1, 71, 88
5, 26756, Note_off_c, 1, 71, 0
5, 26760, Note_on_c, 1, 70, 88
5, 26876, Note_off_c, 1, 70, 0
5, 27000, Note_on_c, 1, 68, 88
5, 27058, Note_off_c, 1, 68, 0
5, 27060, Note_on_c, 1, 67, 88
5, 27118, Note_off_c, 1, 67, 0
5, 27120, Note_on_c, 1, 68, 88
5, 27236, Note_off_c, 1, 68, 0
5, 27240, Note_on_c, 1, 71, 88
5, 27356, Note_off_c, 1, 71, 0
5, 27480, Note_on_c, 1, 68, 88
5, 27596, Note_off_c, 1, 68, 0
5, 27720, Note_on_c, 1, 65, 88
5, 27836, Note_off_c, 1, 65, 0
5, 27960, Note_on_c, 1, 66, 88
5, 28018, Note_off_c, 1, 66, 0
5, 28020, Note_on_c, 1, 65, 88
5, 28078, Note_off_c, 1, 65, 0
5, 28080, Note_on_c, 1, 66, 88
5, 28196, Note_off_c, 1, 66, 0
5, 28200, Note_on_c, 1, 70, 88
5, 28316, Note_off_c, 1, 70, 0
5, 28440, Note_on_c, 1, 66, 88
5, 28556, Note_off_c, 1, 66, 0
5, 28680, Note_on_c, 1, 63, 88
5, 28796, Note_off_c, 1, 63, 0
5, 28920, Note_on_c, 1, 62, 88
5, 28978, Note_off_c, 1, 62, 0
5, 28980, Note_on_c, 1, 63, 88
5, 29038, Note_off_c, 1, 63, 0
5, 29040, Note_on_c, 1, 65, 88
5, 29156, Note_off_c, 1, 65, 0
5, 29160, Note_on_c, 1, 68, 88
5, 29276, Note_off_c, 1, 68, 0
5, 29400, Note_on_c, 1, 65, 88
5, 29516, Note_off_c, 1, 65, 0
5, 29640, Note_on_c, 1, 62, 88
5, 29756, Note_off_c, 1, 62, 0
5, 29760, Note_on_c, 1, 63, 88
5, 29994, Note_off_c, 1, 63, 0
5, 37800, Note_on_c, 1, 80, 88
5, 37913, Note_off_c, 1, 80, 0
5, 37920, Note_on_c, 1, 80, 88
5, 38036, Note_off_c, 1, 80, 0
5, 38040, Note_on_c, 1, 74, 88
5, 38156, Note_off_c, 1, 74, 0
5, 38520, Note_on_c, 1, 75, 88
5, 38633, Note_off_c, 1, 75, 0
5, 38640, Note_on_c, 1, 75, 88
5, 38756, Note_off_c, 1, 75, 0
5, 38760, Note_on_c, 1, 77, 88
5, 38876, Note_off_c, 1, 77, 0
5, 39000, Note_on_c, 1, 75, 88
5, 39113, Note_off_c, 1, 75, 0
5, 39120, Note_on_c, 1, 75, 88
5, 39236, Note_off_c, 1, 75, 0
5, 39240, Note_on_c, 1, 74, 88
5, 39356, Note_off_c, 1, 74, 0
5, 40440, Note_on_c, 1, 63, 88
5, 40556, Note_off_c, 1, 63, 0
5, 40560, Note_on_c, 1, 64, 88
5, 40575, Note_on_c, 1, 63, 88
5, 40575, Note_off_c, 1, 64, 0
5, 40590, Note_off_c, 1, 63, 0
5, 40590, Note_on_c, 1, 64, 88
5, 40605, Note_on_c, 1, 63, 88
5, 40605, Note_off_c, 1, 64, 0
5, 40620, Note_on_c, 1, 62, 88
5, 40620, Note_off_c, 1, 63, 0
5, 40678, Note_off_c, 1, 62, 0
5, 40680, Note_on_c, 1, 63, 88
5, 40796, Note_off_c, 1, 63, 0
5, 40920, Note_on_c, 1, 64, 88
5, 40949, Note_off_c, 1, 64, 0
5, 40950, Note_on_c, 1, 63, 88
5, 40979, Note_off_c, 1, 63, 0
5, 40980, Note_on_c, 1, 62, 88
5, 41038, Note_off_c, 1, 62, 0
5, 41040, Note_on_c, 1, 63, 88
5, 41156, Note_off_c, 1, 63, 0
5, 41160, Note_on_c, 1, 75, 88
5, 41276, Note_off_c, 1, 75, 0
5, 41280, Note_on_c, 1, 68, 88
5, 41929, Note_off_c, 1, 68, 0
5, 41940, Note_on_c, 1, 66, 88
5, 41998, Note_off_c, 1, 66, 0
5, 42000, Note_on_c, 1, 65, 88
5, 42058, Note_off_c, 1, 65, 0
5, 42060, Note_on_c, 1, 63, 88
5, 42118, Note_off_c, 1, 63, 0
5, 42120, Note_on_c, 1, 65, 88
5, 42178, Note_off_c, 1, 65, 0
5, 42180, Note_on_c, 1, 62, 88
5, 42238, Note_off_c, 1, 62, 0
5, 42240, Note_on_c, 1, 63, 88
5, 42356, Note_off_c, 1, 63, 0
5, 42360, Note_on_c, 1, 66, 88
5, 42418, Note_off_c, 1, 66, 0
5, 42420, Note_on_c, 1, 65, 88
5, 42478, Note_off_c, 1, 65, 0
5, 42480, Note_on_c, 1, 66, 88
5, 42596, Note_off_c, 1, 66, 0
5, 42600, Note_on_c, 1, 70, 88
5, 42716, Note_off_c, 1, 70, 0
5, 42840, Note_on_c, 1, 66, 88
5, 42956, Note_off_c, 1, 66, 0
5, 43080, Note_on_c, 1, 65, 88
5, 43138, Note_off_c, 1, 65, 0
5, 43140, Note_on_c, 1, 63, 88
5, 43198, Note_off_c, 1, 63, 0
5, 43320, Note_on_c, 1, 65, 88
5, 43378, Note_off_c, 1, 65, 0
5, 43380, Note_on_c, 1, 63, 88
5, 43438, Note_off_c, 1, 63, 0
5, 43440, Note_on_c, 1, 65, 88
5, 43556, Note_off_c, 1, 65, 0
5, 43560, Note_on_c, 1, 68, 88
5, 43676, Note_off_c, 1, 68, 0
5, 43800, Note_on_c, 1, 65, 88
5, 43916, Note_off_c, 1, 65, 0
5, 44040, Note_on_c, 1, 63, 88
5, 44098, Note_off_c, 1, 63, 0
5, 44100, Note_on_c, 1, 62, 88
5, 44158, Note_off_c, 1, 62, 0
5, 44280, Note_on_c, 1, 66, 88
5, 44338, Note_off_c, 1, 66, 0
5, 44340, Note_on_c, 1, 65, 88
5, 44398, Note_off_c, 1, 65, 0
5, 44400, Note_on_c, 1, 66, 88
5, 44458, Note_off_c, 1, 66, 0
5, 44460, Note_on_c, 1, 63, 88
5, 44518, Note_off_c, 1, 63, 0
5, 44520, Note_on_c, 1, 72, 88
5, 44636, Note_off_c, 1, 72, 0
5, 44760, Note_on_c, 1, 72, 88
5, 44818, Note_off_c, 1, 72, 0
5, 44820, Note_on_c, 1, 70, 88
5, 44878, Note_off_c, 1, 70, 0
5, 44880, Note_on_c, 1, 71, 88
5, 44938, Note_off_c, 1, 71, 0
5, 44940, Note_on_c, 1, 68, 88
5, 44998, Note_off_c, 1, 68, 0
5, 45000, Note_on_c, 1, 80, 88
5, 45178, Note_off_c, 1, 80, 0
5, 45180, Note_on_c, 1, 78, 88
5, 45209, Note_off_c, 1, 78, 0
5, 45210, Note_on_c, 1, 77, 88
5, 45239, Note_off_c, 1, 77, 0
5, 45240, Note_on_c, 1, 75, 88
5, 45356, Note_off_c, 1, 75, 0
5, 45360, Note_on_c, 1, 74, 88
5, 45713, Note_off_c, 1, 74, 0
5, 45720, Note_on_c, 1, 75, 88
5, 45836, Note_off_c, 1, 75, 0
5, 51960, Note_on_c, 1, 61, 88
5, 52073, Note_off_c, 1, 61, 0
5, 52080, Note_on_c, 1, 61, 88
5, 52196, Note_off_c, 1, 61, 0
5, 52200, Note_on_c, 1, 62, 88
5, 52316, Note_off_c, 1, 62, 0
5, 52440, Note_on_c, 1, 61, 88
5, 52556, Note_off_c, 1, 61, 0
5, 52560, Note_on_c, 1, 59, 88
5, 52794, Note_off_c, 1, 59, 0
5, 52920, Note_on_c, 1, 57, 88
5, 52978, Note_off_c, 1, 57, 0
5, 52980, Note_on_c, 1, 59, 88
5, 53038, Note_off_c, 1, 59, 0
5, 53040, Note_on_c, 1, 61, 88
5, 53156, Note_off_c, 1, 61, 0
5, 53160, Note_on_c, 1, 68, 88
5, 53276, Note_off_c, 1, 68, 0
5, 53400, Note_on_c, 1, 67, 88
5, 53516, Note_off_c, 1, 67, 0
5, 53520, Note_on_c, 1, 68, 88
5, 53636, Note_off_c, 1, 68, 0
5, 53640, Note_on_c, 1, 70, 88
5, 53756, Note_off_c, 1, 70, 0
5, 53880, Note_on_c, 1, 68, 88
5, 53938, Note_off_c, 1, 68, 0
5, 53940, Note_on_c, 1, 67, 88
5, 53998, Note_off_c, 1, 67, 0
5, 54000, Note_on_c, 1, 68, 88
5, 54116, Note_off_c, 1, 68, 0
5, 54120, Note_on_c, 1, 70, 88
5, 54236, Note_off_c, 1, 70, 0
5, 54360, Note_on_c, 1, 69, 88
5, 54476, Note_off_c, 1, 69, 0
5, 54480, Note_on_c, 1, 70, 88
5, 54596, Note_off_c, 1, 70, 0
5, 54600, Note_on_c, 1, 72, 88
5, 54716, Note_off_c, 1, 72, 0
5, 54720, Note_on_c, 1, 74, 88
5, 54778, Note_off_c, 1, 74, 0
5, 60840, Note_on_c, 1, 56, 88
5, 60953, Note_off_c, 1, 56, 0
5, 60960, Note_on_c, 1, 56, 88
5, 61076, Note_off_c, 1, 56, 0
5, 61080, Note_on_c, 1, 55, 88
5, 61196, Note_off_c, 1, 55, 0
5, 62520, Note_on_c, 1, 71, 88
5, 62633, Note_off_c, 1, 71, 0
5, 62640, Note_on_c, 1, 71, 88
5, 62756, Note_off_c, 1, 71, 0
5, 62760, Note_on_c, 1, 73, 88
5, 62876, Note_off_c, 1, 73, 0
5, 63000, Note_on_c, 1, 71, 88
5, 63113, Note_off_c, 1, 71, 0
5, 63120, Note_on_c, 1, 71, 88
5, 63236, Note_off_c, 1, 71, 0
5, 63240, Note_on_c, 1, 70, 88
5, 63356, Note_off_c, 1, 70, 0
5, 63720, Note_on_c, 1, 73, 88
5, 63833, Note_off_c, 1, 73, 0
5, 63840, Note_on_c, 1, 73, 88
5, 63956, Note_off_c, 1, 73, 0
5, 63960, Note_on_c, 1, 67, 88
5, 64076, Note_off_c, 1, 67, 0
5, 64440, Note_on_c, 1, 68, 88
5, 64556, Note_off_c, 1, 68, 0
5, 64560, Note_on_c, 1, 69, 88
5, 64676, Note_off_c, 1, 69, 0
5, 64680, Note_on_c, 1, 68, 88
5, 64796, Note_off_c, 1, 68, 0
5, 64920, Note_on_c, 1, 68, 88
5, 65036, Note_off_c, 1, 68, 0
5, 65040, Note_on_c, 1, 69, 88
5, 65156, Note_off_c, 1, 69, 0
5, 65160, Note_on_c, 1, 66, 88
5, 65276, Note_off_c, 1, 66, 0
5, 65400, Note_on_c, 1, 68, 88
5, 65516, Note_off_c, 1, 68, 0
5, 65520, Note_on_c, 1, 74, 88
5, 65636, Note_off_c, 1, 74, 0
5, 65640, Note_on_c, 1, 73, 88
5, 65756, Note_off_c, 1, 73, 0
5, 65880, Note_on_c, 1, 76, 88
5, 65938, Note_off_c, 1, 76, 0
5, 65940, Note_on_c, 1, 75, 88
5, 65998, Note_off_c, 1, 75, 0
5, 66000, Note_on_c, 1, 76, 88
5, 66113, Note_off_c, 1, 76, 0
5, 66120, Note_on_c, 1, 76, 88
5, 66236, Note_off_c, 1, 76, 0
5, 66240, Note_on_c, 1, 76, 88
5, 66474, Note_off_c, 1, 76, 0
5, 67560, Note_on_c, 1, 57, 88
5, 67676, Note_off_c, 1, 57, 0
5, 67800, Note_on_c, 1, 56, 88
5, 67913, Note_off_c, 1, 56, 0
5, 67920, Note_on_c, 1, 56, 88
5, 68033, Note_off_c, 1, 56, 0
5, 68040, Note_on_c, 1, 56, 88
5, 68156, Note_off_c, 1, 56, 0
5, 68160, Note_on_c, 1, 54, 88
5, 68394, Note_off_c, 1, 54, 0
5, 68520, Note_on_c, 1, 55, 88
5, 68636, Note_off_c, 1, 55, 0
5, 68760, Note_on_c, 1, 54, 88
5, 68873, Note_off_c, 1, 54, 0
5, 68880, Note_on_c, 1, 54, 88
5, 68993, Note_off_c, 1, 54, 0
5, 69000, Note_on_c, 1, 54, 88
5, 69116, Note_off_c, 1, 54, 0
5, 69120, Note_on_c, 1, 52, 88
5, 69354, Note_off_c, 1, 52, 0
5, 69480, Note_on_c, 1, 54, 88
5, 69596, Note_off_c, 1, 54, 0
5, 69720, Note_on_c, 1, 53, 88
5, 69833, Note_off_c, 1, 53, 0
5, 69840, Note_on_c, 1, 53, 88
5, 69956, Note_off_c, 1, 53, 0
5, 69960, Note_on_c, 1, 52, 88
5, 70076, Note_off_c, 1, 52, 0
5, 70080, Note_on_c, 1, 51, 88
5, 70196, Note_off_c, 1, 51, 0
5, 70200, Note_on_c, 1, 68, 88
5, 70434, Note_off_c, 1, 68, 0
5, 70440, Note_on_c, 1, 67, 88
5, 70674, Note_off_c, 1, 67, 0
5, 70680, Note_on_c, 1, 63, 88
5, 70796, Note_off_c, 1, 63, 0
5, 76920, Note_on_c, 1, 61, 88
5, 77033, Note_off_c, 1, 61, 0
5, 77040, Note_on_c, 1, 61, 88
5, 77156, Note_off_c, 1, 61, 0
5, 77160, Note_on_c, 1, 62, 88
5, 77276, Note_off_c, 1, 62, 0
5, 77400, Note_on_c, 1, 61, 88
5, 77516, Note_off_c, 1, 61, 0
5, 77520, Note_on_c, 1, 59, 88
5, 77754, Note_off_c, 1, 59, 0
5, 77880, Note_on_c, 1, 57, 88
5, 77938, Note_off_c, 1, 57, 0
5, 77940, Note_on_c, 1, 59, 88
5, 77998, Note_off_c, 1, 59, 0
5, 78000, Note_on_c, 1, 61, 88
5, 78116, Note_off_c, 1, 61, 0
5, 78120, Note_on_c, 1, 68, 88
5, 78236, Note_off_c, 1, 68, 0
5, 78360, Note_on_c, 1, 67, 88
5, 78476, Note_off_c, 1, 67, 0
5, 78480, Note_on_c, 1, 68, 88
5, 78596, Note_off_c, 1, 68, 0
5, 78600, Note_on_c, 1, 70, 88
5, 78716, Note_off_c, 1, 70, 0
5, 78840, Note_on_c, 1, 68, 88
5, 78898, Note_off_c, 1, 68, 0
5, 78900, Note_on_c, 1, 67, 88
5, 78958, Note_off_c, 1, 67, 0
5, 78960, Note_on_c, 1, 68, 88
5, 79076, Note_off_c, 1, 68, 0
5, 79080, Note_on_c, 1, 70, 88
5, 79196, Note_off_c, 1, 70, 0
5, 79320, Note_on_c, 1, 69, 88
5, 79436, Note_off_c, 1, 69, 0
5, 79440, Note_on_c, 1, 70, 88
5, 79556, Note_off_c, 1, 70, 0
5, 79560, Note_on_c, 1, 72, 88
5, 79676, Note_off_c, 1, 72, 0
5, 79680, Note_on_c, 1, 74, 88
5, 79738, Note_off_c, 1, 74, 0
5, 85800, Note_on_c, 1, 56, 88
5, 85913, Note_off_c, 1, 56, 0
5, 85920, Note_on_c, 1, 56, 88
5, 86036, Note_off_c, 1, 56, 0
5, 86040, Note_on_c, 1, 55, 88
5, 86156, Note_off_c, 1, 55, 0
5, 87480, Note_on_c, 1, 71, 88
5, 87593, Note_off_c, 1, 71, 0
5, 87600, Note_on_c, 1, 71, 88
5, 87716, Note_off_c, 1, 71, 0
5, 87720, Note_on_c, 1, 73, 88
5, 87836, Note_off_c, 1, 73, 0
5, 87960, Note_on_c, 1, 71, 88
5, 88073, Note_off_c, 1, 71, 0
5, 88080, Note_on_c, 1, 71, 88
5, 88196, Note_off_c, 1, 71, 0
5, 88200, Note_on_c, 1, 70, 88
5, 88316, Note_off_c, 1, 70, 0
5, 88680, Note_on_c, 1, 73, 88
5, 88793, Note_off_c, 1, 73, 0
5, 88800, Note_on_c, 1, 73, 88
5, 88916, Note_off_c, 1, 73, 0
5, 88920, Note_on_c, 1, 67, 88
5, 89036, Note_off_c, 1, 67, 0
5, 89400, Note_on_c, 1, 68, 88
5, 89516, Note_off_c, 1, 68, 0
5, 89520, Note_on_c, 1, 69, 88
5, 89636, Note_off_c, 1, 69, 0
5, 89640, Note_on_c, 1, 68, 88
5, 89756, Note_off_c, 1, 68, 0
5, 89880, Note_on_c, 1, 68, 88
5, 89996, Note_off_c, 1, 68, 0
5, 90000, Note_on_c, 1, 69, 88
5, 90116, Note_off_c, 1, 69, 0
5, 90120, Note_on_c, 1, 66, 88
5, 90236, Note_off_c, 1, 66, 0
5, 90360, Note_on_c, 1, 68, 88
5, 90476, Note_off_c, 1, 68, 0
5, 90480, Note_on_c, 1, 74, 88
5, 90596, Note_off_c, 1, 74, 0
5, 90600, Note_on_c, 1, 73, 88
5, 90716, Note_off_c, 1, 73, 0
5, 90840, Note_on_c, 1, 76, 88
5, 90898, Note_off_c, 1, 76, 0
5, 90900, Note_on_c, 1, 75, 88
5, 90958, Note_off_c, 1, 75, 0
5, 90960, Note_on_c, 1, 76, 88
5, 91073, Note_off_c, 1, 76, 0
5, 91080, Note_on_c, 1, 76, 88
5, 91196, Note_off_c, 1, 76, 0
5, 91200, Note_on_c, 1, 76, 88
5, 91434, Note_off_c, 1, 76, 0
5, 92520, Note_on_c, 1, 57, 88
5, 92636, Note_off_c, 1, 57, 0
5, 92760, Note_on_c, 1, 56, 88
5, 92873, Note_off_c, 1, 56, 0
5, 92880, Note_on_c, 1, 56, 88
5, 92993, Note_off_c, 1, 56, 0
5, 93000, Note_on_c, 1, 56, 88
5, 93116, Note_off_c, 1, 56, 0
5, 93120, Note_on_c, 1, 54, 88
5, 93354, Note_off_c, 1, 54, 0
5, 93480, Note_on_c, 1, 55, 88
5, 93596, Note_off_c, 1, 55, 0
5, 93720, Note_on_c, 1, 54, 88
5, 93833, Note_off_c, 1, 54, 0
5, 93840, Note_on_c, 1, 54, 88
5, 93953, Note_off_c, 1, 54, 0
5, 93960, Note_on_c, 1, 54, 88
5, 94076, Note_off_c, 1, 54, 0
5, 94080, Note_on_c, 1, 52, 88
5, 94314, Note_off_c, 1, 52, 0
5, 94440, Note_on_c, 1, 54, 88
5, 94556, Note_off_c, 1, 54, 0
5, 94680, Note_on_c, 1, 53, 88
5, 94793, Note_off_c, 1, 53, 0
5, 94800, Note_on_c, 1, 53, 88
5, 94916, Note_off_c, 1, 53, 0
5, 94920, Note_on_c, 1, 52, 88
5, 95036, Note_off_c, 1, 52, 0
5, 95040, Note_on_c, 1, 51, 88
5, 95156, Note_off_c, 1, 51, 0
5, 95160, Note_on_c, 1, 68, 88
5, 95394, Note_off_c, 1, 68, 0
5, 95400, Note_on_c, 1, 67, 88
5, 95634, Note_off_c, 1, 67, 0
5, 95640, Note_on_c, 1, 63, 88
5, 95756, Note_off_c, 1, 63, 0
5, 95756, End_track
6, 0, Start_track
6, 0, Title_t, "Track 3"
6, 0, Program_c, 2, 6
6, 65880, Note_on_c, 2, 73, 88
6, 65993, Note_off_c, 2, 73, 0
6, 66000, Note_on_c, 2, 73, 88
6, 66113, Note_off_c, 2, 73, 0
6, 66120, Note_on_c, 2, 73, 88
6, 66236, Note_off_c, 2, 73, 0
6, 66240, Note_on_c, 2, 73, 88
6, 66474, Note_off_c, 2, 73, 0
6, 70140, Note_on_c, 2, 63, 88
6, 70373, Note_off_c, 2, 63, 0
6, 70380, Note_on_c, 2, 63, 88
6, 70496, Note_off_c, 2, 63, 0
6, 70500, Note_on_c, 2, 61, 88
6, 70675, Note_off_c, 2, 61, 0
6, 70680, Note_on_c, 2, 59, 88
6, 70796, Note_off_c, 2, 59, 0
6, 90840, Note_on_c, 2, 73, 88
6, 90953, Note_off_c, 2, 73, 0
6, 90960, Note_on_c, 2, 73, 88
6, 91073, Note_off_c, 2, 73, 0
6, 91080, Note_on_c, 2, 73, 88
6, 91196, Note_off_c, 2, 73, 0
6, 91200, Note_on_c, 2, 73, 88
6, 91434, Note_off_c, 2, 73, 0
6, 95100, Note_on_c, 2, 63, 88
6, 95333, Note_off_c, 2, 63, 0
6, 95340, Note_on_c, 2, 63, 88
6, 95456, Note_off_c, 2, 63, 0
6, 95460, Note_on_c, 2, 61, 88
6, 95635, Note_off_c, 2, 61, 0
6, 95640, Note_on_c, 2, 59, 88
6, 95756, Note_off_c, 2, 59, 0
6, 95756, End_track
7, 0, Start_track
7, 0, Title_t, "Track 4"
7, 0, Program_c, 3, 6
7, 0, Note_on_c, 3, 56, 88
7, 0, Note_on_c, 3, 59, 88
7, 0, Note_on_c, 3, 63, 88
7, 234, Note_off_c, 3, 56, 0
7, 234, Note_off_c, 3, 59, 0
7, 234, Note_off_c, 3, 63, 0
7, 480, Note_on_c, 3, 56, 88
7, 480, Note_on_c, 3, 58, 88
7, 480, Note_on_c, 3, 61, 88
7, 714, Note_off_c, 3, 56, 0
7, 714, Note_off_c, 3, 58, 0
7, 714, Note_off_c, 3, 61, 0
7, 780, Note_on_c, 3, 61, 88
7, 838, Note_off_c, 3, 61, 0
7, 840, Note_on_c, 3, 59, 88
7, 898, Note_off_c, 3, 59, 0
7, 900, Note_on_c, 3, 58, 88
7, 958, Note_off_c, 3, 58, 0
7, 960, Note_on_c, 3, 56, 88
7, 1018, Note_off_c, 3, 56, 0
7, 1020, Note_on_c, 3, 63, 88
7, 1078, Note_off_c, 3, 63, 0
7, 1080, Note_on_c, 3, 56, 88
7, 1138, Note_off_c, 3, 56, 0
7, 1140, Note_on_c, 3, 63, 88
7, 1198, Note_off_c, 3, 63, 0
7, 1200, Note_on_c, 3, 55, 88
7, 1258, Note_off_c, 3, 55, 0
7, 1260, Note_on_c, 3, 63, 88
7, 1318, Note_off_c, 3, 63, 0
7, 1320, Note_on_c, 3, 55, 88
7, 1378, Note_off_c, 3, 55, 0
7, 1380, Note_on_c, 3, 63, 88
7, 1438, Note_off_c, 3, 63, 0
7, 1440, Note_on_c, 3, 56, 88
7, 1498, Note_off_c, 3, 56, 0
7, 1500, Note_on_c, 3, 63, 88
7, 1558, Note_off_c, 3, 63, 0
7, 1560, Note_on_c, 3, 56, 88
7, 1618, Note_off_c, 3, 56, 0
7, 1620, Note_on_c, 3, 63, 88
7, 1678, Note_off_c, 3, 63, 0
7, 1680, Note_on_c, 3, 51, 88
7, 1738, Note_off_c, 3, 51, 0
7, 1740, Note_on_c, 3, 63, 88
7, 1798, Note_off_c, 3, 63, 0
7, 1800, Note_on_c, 3, 51, 88
7, 1858, Note_off_c, 3, 51, 0
7, 1860, Note_on_c, 3, 63, 88
7, 1918, Note_off_c, 3, 63, 0
7, 1920, Note_on_c, 3, 56, 88
7, 1920, Note_on_c, 3, 59, 88
7, 1920, Note_on_c, 3, 63, 88
7, 2154, Note_off_c, 3, 56, 0
7, 2154, Note_off_c, 3, 59, 0
7, 2154, Note_off_c, 3, 63, 0
7, 2400, Note_on_c, 3, 56, 88
7, 2400, Note_on_c, 3, 58, 88
7, 2400, Note_on_c, 3, 61, 88
7, 2634, Note_off_c, 3, 56, 0
7, 2634, Note_off_c, 3, 58, 0
7, 2634, Note_off_c, 3, 61, 0
7, 2700, Note_on_c, 3, 61, 88
7, 2758, Note_off_c, 3, 61, 0
7, 2760, Note_on_c, 3, 59, 88
7, 2818, Note_off_c, 3, 59, 0
7, 2820, Note_on_c, 3, 58, 88
7, 2878, Note_off_c, 3, 58, 0
7, 2880, Note_on_c, 3, 56, 88
7, 2938, Note_off_c, 3, 56, 0
7, 2940, Note_on_c, 3, 63, 88
7, 2998, Note_off_c, 3, 63, 0
7, 3000, Note_on_c, 3, 56, 88
7, 3058, Note_off_c, 3, 56, 0
7, 3060, Note_on_c, 3, 63, 88
7, 3118, Note_off_c, 3, 63, 0
7, 3120, Note_on_c, 3, 55, 88
7, 3178, Note_off_c, 3, 55, 0
7, 3180, Note_on_c, 3, 63, 88
7, 3238, Note_off_c, 3, 63, 0
7, 3240, Note_on_c, 3, 55, 88
7, 3298, Note_off_c, 3, 55, 0
7, 3300, Note_on_c, 3, 63, 88
7, 3358, Note_off_c, 3, 63, 0
7, 3360, Note_on_c, 3, 56, 88
7, 3418, Note_off_c, 3, 56, 0
7, 3420, Note_on_c, 3, 63, 88
7, 3478, Note_off_c, 3, 63, 0
7, 3480, Note_on_c, 3, 56, 88
7, 3538, Note_off_c, 3, 56, 0
7, 3540, Note_on_c, 3, 63, 88
7, 3598, Note_off_c, 3, 63, 0
7, 3600, Note_on_c, 3, 51, 88
7, 3658, Note_off_c, 3, 51, 0
7, 3660, Note_on_c, 3, 63, 88
7, 3718, Note_off_c, 3, 63, 0
7, 3720, Note_on_c, 3, 51, 88
7, 3778, Note_off_c, 3, 51, 0
7, 3780, Note_on_c, 3, 63, 88
7, 3838, Note_off_c, 3, 63, 0
7, 3840, Note_on_c, 3, 56, 88
7, 3898, Note_off_c, 3, 56, 0
7, 3900, Note_on_c, 3, 63, 88
7, 3958, Note_off_c, 3, 63, 0
7, 3960, Note_on_c, 3, 56, 88
7, 4018, Note_off_c, 3, 56, 0
7, 4020, Note_on_c, 3, 63, 88
7, 4078, Note_off_c, 3, 63, 0
7, 4080, Note_on_c, 3, 54, 88
7, 4138, Note_off_c, 3, 54, 0
7, 4140, Note_on_c, 3, 63, 88
7, 4198, Note_off_c, 3, 63, 0
7, 4200, Note_on_c, 3, 54, 88
7, 4258, Note_off_c, 3, 54, 0
7, 4260, Note_on_c, 3, 63, 88
7, 4318, Note_off_c, 3, 63, 0
7, 4320, Note_on_c, 3, 53, 88
7, 4378, Note_off_c, 3, 53, 0
7, 4380, Note_on_c, 3, 61, 88
7, 4438, Note_off_c, 3, 61, 0
7, 4440, Note_on_c, 3, 53, 88
7, 4498, Note_off_c, 3, 53, 0
7, 4500, Note_on_c, 3, 61, 88
7, 4558, Note_off_c, 3, 61, 0
7, 4560, Note_on_c, 3, 49, 88
7, 4618, Note_off_c, 3, 49, 0
7, 4620, Note_on_c, 3, 61, 88
7, 4678, Note_off_c, 3, 61, 0
7, 4680, Note_on_c, 3, 49, 88
7, 4738, Note_off_c, 3, 49, 0
7, 4740, Note_on_c, 3, 61, 88
7, 4798, Note_off_c, 3, 61, 0
7, 4800, Note_on_c, 3, 54, 88
7, 4858, Note_off_c, 3, 54, 0
7, 4860, Note_on_c, 3, 61, 88
7, 4918, Note_off_c, 3, 61, 0
7, 4920, Note_on_c, 3, 54, 88
7, 4978, Note_off_c, 3, 54, 0
7, 4980, Note_on_c, 3, 61, 88
7, 5038, Note_off_c, 3, 61, 0
7, 5040, Note_on_c, 3, 53, 88
7, 5098, Note_off_c, 3, 53, 0
7, 5100, Note_on_c, 3, 61, 88
7, 5158, Note_off_c, 3, 61, 0
7, 5160, Note_on_c, 3, 53, 88
7, 5218, Note_off_c, 3, 53, 0
7, 5220, Note_on_c, 3, 61, 88
7, 5278, Note_off_c, 3, 61, 0
7, 5280, Note_on_c, 3, 51, 88
7, 5338, Note_off_c, 3, 51, 0
7, 5340, Note_on_c, 3, 59, 88
7, 5398, Note_off_c, 3, 59, 0
7, 5400, Note_on_c, 3, 51, 88
7, 5458, Note_off_c, 3, 51, 0
7, 5460, Note_on_c, 3, 59, 88
7, 5518, Note_off_c, 3, 59, 0
7, 5520, Note_on_c, 3, 47, 88
7, 5578, Note_off_c, 3, 47, 0
7, 5580, Note_on_c, 3, 59, 88
7, 5638, Note_off_c, 3, 59, 0
7, 5640, Note_on_c, 3, 47, 88
7, 5698, Note_off_c, 3, 47, 0
7, 5700, Note_on_c, 3, 59, 88
7, 5758, Note_off_c, 3, 59, 0
7, 5760, Note_on_c, 3, 53, 88
7, 5818, Note_off_c, 3, 53, 0
7, 5820, Note_on_c, 3, 59, 88
7, 5878, Note_off_c, 3, 59, 0
7, 5880, Note_on_c, 3, 53, 88
7, 5938, Note_off_c, 3, 53, 0
7, 5940, Note_on_c, 3, 59, 88
7, 5998, Note_off_c, 3, 59, 0
7, 6000, Note_on_c, 3, 51, 88
7, 6058, Note_off_c, 3, 51, 0
7, 6060, Note_on_c, 3, 59, 88
7, 6118, Note_off_c, 3, 59, 0
7, 6120, Note_on_c, 3, 51, 88
7, 6178, Note_off_c, 3, 51, 0
7, 6180, Note_on_c, 3, 59, 88
7, 6238, Note_off_c, 3, 59, 0
7, 6240, Note_on_c, 3, 50, 88
7, 6298, Note_off_c, 3, 50, 0
7, 6300, Note_on_c, 3, 58, 88
7, 6358, Note_off_c, 3, 58, 0
7, 6360, Note_on_c, 3, 50, 88
7, 6418, Note_off_c, 3, 50, 0
7, 6420, Note_on_c, 3, 58, 88
7, 6478, Note_off_c, 3, 58, 0
7, 6480, Note_on_c, 3, 46, 88
7, 6538, Note_off_c, 3, 46, 0
7, 6540, Note_on_c, 3, 58, 88
7, 6598, Note_off_c, 3, 58, 0
7, 6600, Note_on_c, 3, 46, 88
7, 6658, Note_off_c, 3, 46, 0
7, 6660, Note_on_c, 3, 58, 88
7, 6718, Note_off_c, 3, 58, 0
7, 6720, Note_on_c, 3, 51, 88
7, 6778, Note_off_c, 3, 51, 0
7, 6780, Note_on_c, 3, 54, 88
7, 6838, Note_off_c, 3, 54, 0
7, 6840, Note_on_c, 3, 56, 88
7, 6898, Note_off_c, 3, 56, 0
7, 6900, Note_on_c, 3, 58, 88
7, 6958, Note_off_c, 3, 58, 0
7, 6960, Note_on_c, 3, 59, 88
7, 7076, Note_off_c, 3, 59, 0
7, 7080, Note_on_c, 3, 51, 88
7, 7196, Note_off_c, 3, 51, 0
7, 7200, Note_on_c, 3, 50, 88
7, 7316, Note_off_c, 3, 50, 0
7, 7320, Note_on_c, 3, 59, 88
7, 7436, Note_off_c, 3, 59, 0
7, 7440, Note_on_c, 3, 58, 88
7, 7556, Note_off_c, 3, 58, 0
7, 7560, Note_on_c, 3, 49, 88
7, 7676, Note_off_c, 3, 49, 0
7, 7680, Note_on_c, 3, 48, 88
7, 7738, Note_off_c, 3, 48, 0
7, 7740, Note_on_c, 3, 51, 88
7, 7798, Note_off_c, 3, 51, 0
7, 7800, Note_on_c, 3, 53, 88
7, 7858, Note_off_c, 3, 53, 0
7, 7860, Note_on_c, 3, 55, 88
7, 7918, Note_off_c, 3, 55, 0
7, 7920, Note_on_c, 3, 56, 88
7, 8036, Note_off_c, 3, 56, 0
7, 8040, Note_on_c, 3, 47, 88
7, 8156, Note_off_c, 3, 47, 0
7, 8160, Note_on_c, 3, 46, 88
7, 8276, Note_off_c, 3, 46, 0
7, 8280, Note_on_c, 3, 55, 88
7, 8396, Note_off_c, 3, 55, 0
7, 8400, Note_on_c, 3, 54, 88
7, 8516, Note_off_c, 3, 54, 0
7, 8520, Note_on_c, 3, 45, 88
7, 8636, Note_off_c, 3, 45, 0
7, 8640, Note_on_c, 3, 44, 88
7, 8698, Note_off_c, 3, 44, 0
7, 8700, Note_on_c, 3, 48, 88
7, 8758, Note_off_c, 3, 48, 0
7, 8760, Note_on_c, 3, 49, 88
7, 8818, Note_off_c, 3, 49, 0
7, 8820, Note_on_c, 3, 51, 88
7, 8878, Note_off_c, 3, 51, 0
7, 8880, Note_on_c, 3, 52, 88
7, 8996, Note_off_c, 3, 52, 0
7, 9000, Note_on_c, 3, 44, 88
7, 9116, Note_off_c, 3, 44, 0
7, 9120, Note_on_c, 3, 43, 88
7, 9236, Note_off_c, 3, 43, 0
7, 9240, Note_on_c, 3, 52, 88
7, 9356, Note_off_c, 3, 52, 0
7, 9360, Note_on_c, 3, 51, 88
7, 9476, Note_off_c, 3, 51, 0
7, 9480, Note_on_c, 3, 42, 88
7, 9596, Note_off_c, 3, 42, 0
7, 9600, Note_on_c, 3, 41, 88
7, 9716, Note_off_c, 3, 41, 0
7, 9720, Note_on_c, 3, 50, 88
7, 9836, Note_off_c, 3, 50, 0
7, 9840, Note_on_c, 3, 49, 88
7, 9956, Note_off_c, 3, 49, 0
7, 9960, Note_on_c, 3, 40, 88
7, 10076, Note_off_c, 3, 40, 0
7, 10080, Note_on_c, 3, 39, 88
7, 10196, Note_off_c, 3, 39, 0
7, 10200, Note_on_c, 3, 41, 88
7, 10316, Note_off_c, 3, 41, 0
7, 10320, Note_on_c, 3, 43, 88
7, 10436, Note_off_c, 3, 43, 0
7, 10440, Note_on_c, 3, 39, 88
7, 10556, Note_off_c, 3, 39, 0
7, 10560, Note_on_c, 3, 44, 88
7, 10676, Note_off_c, 3, 44, 0
7, 10680, Note_on_c, 3, 46, 88
7, 10796, Note_off_c, 3, 46, 0
7, 10800, Note_on_c, 3, 48, 88
7, 10916, Note_off_c, 3, 48, 0
7, 10920, Note_on_c, 3, 44, 88
7, 11036, Note_off_c, 3, 44, 0
7, 11040, Note_on_c, 3, 49, 88
7, 11156, Note_off_c, 3, 49, 0
7, 11160, Note_on_c, 3, 51, 88
7, 11276, Note_off_c, 3, 51, 0
7, 11280, Note_on_c, 3, 53, 88
7, 11396, Note_off_c, 3, 53, 0
7, 11400, Note_on_c, 3, 49, 88
7, 11516, Note_off_c, 3, 49, 0
7, 11520, Note_on_c, 3, 54, 88
7, 11636, Note_off_c, 3, 54, 0
7, 11640, Note_on_c, 3, 56, 88
7, 11756, Note_off_c, 3, 56, 0
7, 11760, Note_on_c, 3, 58, 88
7, 11876, Note_off_c, 3, 58, 0
7, 11880, Note_on_c, 3, 54, 88
7, 11996, Note_off_c, 3, 54, 0
7, 12000, Note_on_c, 3, 59, 88
7, 12116, Note_off_c, 3, 59, 0
7, 12120, Note_on_c, 3, 58, 88
7, 12236, Note_off_c, 3, 58, 0
7, 12240, Note_on_c, 3, 56, 88
7, 12356, Note_off_c, 3, 56, 0
7, 12360, Note_on_c, 3, 54, 88
7, 12476, Note_off_c, 3, 54, 0
7, 12480, Note_on_c, 3, 53, 88
7, 12596, Note_off_c, 3, 53, 0
7, 12600, Note_on_c, 3, 56, 88
7, 12716, Note_off_c, 3, 56, 0
7, 12720, Note_on_c, 3, 50, 88
7, 12836, Note_off_c, 3, 50, 0
7, 12840, Note_on_c, 3, 46, 88
7, 12956, Note_off_c, 3, 46, 0
7, 12960, Note_on_c, 3, 51, 88
7, 13076, Note_off_c, 3, 51, 0
7, 13080, Note_on_c, 3, 49, 88
7, 13196, Note_off_c, 3, 49, 0
7, 13200, Note_on_c, 3, 48, 88
7, 13316, Note_off_c, 3, 48, 0
7, 13320, Note_on_c, 3, 46, 88
7, 13436, Note_off_c, 3, 46, 0
7, 13440, Note_on_c, 3, 48, 88
7, 13556, Note_off_c, 3, 48, 0
7, 13560, Note_on_c, 3, 51, 88
7, 13676, Note_off_c, 3, 51, 0
7, 13680, Note_on_c, 3, 45, 88
7, 13796, Note_off_c, 3, 45, 0
7, 13800, Note_on_c, 3, 41, 88
7, 13916, Note_off_c, 3, 41, 0
7, 13920, Note_on_c, 3, 46, 88
7, 14036, Note_off_c, 3, 46, 0
7, 14220, Note_on_c, 3, 68, 88
7, 14278, Note_off_c, 3, 68, 0
7, 14280, Note_on_c, 3, 66, 88
7, 14338, Note_off_c, 3, 66, 0
7, 14340, Note_on_c, 3, 65, 88
7, 14398, Note_off_c, 3, 65, 0
7, 14400, Note_on_c, 3, 63, 88
7, 14458, Note_off_c, 3, 63, 0
7, 14460, Note_on_c, 3, 65, 88
7, 14518, Note_off_c, 3, 65, 0
7, 14520, Note_on_c, 3, 66, 88
7, 14578, Note_off_c, 3, 66, 0
7, 14580, Note_on_c, 3, 68, 88
7, 14638, Note_off_c, 3, 68, 0
7, 14640, Note_on_c, 3, 70, 88
7, 14698, Note_off_c, 3, 70, 0
7, 14700, Note_on_c, 3, 66, 88
7, 14758, Note_off_c, 3, 66, 0
7, 14760, Note_on_c, 3, 65, 88
7, 14818, Note_off_c, 3, 65, 0
7, 14820, Note_on_c, 3, 63, 88
7, 14878, Note_off_c, 3, 63, 0
7, 14880, Note_on_c, 3, 62, 88
7, 14938, Note_off_c, 3, 62, 0
7, 14940, Note_on_c, 3, 63, 88
7, 14998, Note_off_c, 3, 63, 0
7, 15000, Note_on_c, 3, 65, 88
7, 15058, Note_off_c, 3, 65, 0
7, 15060, Note_on_c, 3, 59, 88
7, 15118, Note_off_c, 3, 59, 0
7, 15120, Note_on_c, 3, 58, 88
7, 15178, Note_off_c, 3, 58, 0
7, 15180, Note_on_c, 3, 56, 88
7, 15238, Note_off_c, 3, 56, 0
7, 15240, Note_on_c, 3, 54, 88
7, 15298, Note_off_c, 3, 54, 0
7, 15300, Note_on_c, 3, 53, 88
7, 15358, Note_off_c, 3, 53, 0
7, 15360, Note_on_c, 3, 51, 88
7, 15418, Note_off_c, 3, 51, 0
7, 15420, Note_on_c, 3, 58, 88
7, 15478, Note_off_c, 3, 58, 0
7, 15480, Note_on_c, 3, 51, 88
7, 15538, Note_off_c, 3, 51, 0
7, 15540, Note_on_c, 3, 58, 88
7, 15598, Note_off_c, 3, 58, 0
7, 15600, Note_on_c, 3, 50, 88
7, 15658, Note_off_c, 3, 50, 0
7, 15660, Note_on_c, 3, 58, 88
7, 15718, Note_off_c, 3, 58, 0
7, 15720, Note_on_c, 3, 50, 88
7, 15778, Note_off_c, 3, 50, 0
7, 15780, Note_on_c, 3, 58, 88
7, 15838, Note_off_c, 3, 58, 0
7, 15840, Note_on_c, 3, 51, 88
7, 15898, Note_off_c, 3, 51, 0
7, 15900, Note_on_c, 3, 58, 88
7, 15958, Note_off_c, 3, 58, 0
7, 15960, Note_on_c, 3, 51, 88
7, 16018, Note_off_c, 3, 51, 0
7, 16020, Note_on_c, 3, 58, 88
7, 16078, Note_off_c, 3, 58, 0
7, 16080, Note_on_c, 3, 46, 88
7, 16138, Note_off_c, 3, 46, 0
7, 16140, Note_on_c, 3, 56, 88
7, 16198, Note_off_c, 3, 56, 0
7, 16200, Note_on_c, 3, 46, 88
7, 16258, Note_off_c, 3, 46, 0
7, 16260, Note_on_c, 3, 56, 88
7, 16318, Note_off_c, 3, 56, 0
7, 16320, Note_on_c, 3, 47, 88
7, 16378, Note_off_c, 3, 47, 0
7, 16380, Note_on_c, 3, 54, 88
7, 16438, Note_off_c, 3, 54, 0
7, 16440, Note_on_c, 3, 47, 88
7, 16498, Note_off_c, 3, 47, 0
7, 16500, Note_on_c, 3, 54, 88
7, 16558, Note_off_c, 3, 54, 0
7, 16560, Note_on_c, 3, 46, 88
7, 16618, Note_off_c, 3, 46, 0
7, 16620, Note_on_c, 3, 54, 88
7, 16678, Note_off_c, 3, 54, 0
7, 16680, Note_on_c, 3, 46, 88
7, 16738, Note_off_c, 3, 46, 0
7, 16740, Note_on_c, 3, 54, 88
7, 16798, Note_off_c, 3, 54, 0
7, 16800, Note_on_c, 3, 47, 88
7, 16858, Note_off_c, 3, 47, 0
7, 16860, Note_on_c, 3, 54, 88
7, 16918, Note_off_c, 3, 54, 0
7, 16920, Note_on_c, 3, 47, 88
7, 16978, Note_off_c, 3, 47, 0
7, 16980, Note_on_c, 3, 54, 88
7, 17038, Note_off_c, 3, 54, 0
7, 17040, Note_on_c, 3, 43, 88
7, 17098, Note_off_c, 3, 43, 0
7, 17100, Note_on_c, 3, 52, 88
7, 17158, Note_off_c, 3, 52, 0
7, 17160, Note_on_c, 3, 43, 88
7, 17218, Note_off_c, 3, 43, 0
7, 17220, Note_on_c, 3, 52, 88
7, 17278, Note_off_c, 3, 52, 0
7, 17280, Note_on_c, 3, 44, 88
7, 17338, Note_off_c, 3, 44, 0
7, 17340, Note_on_c, 3, 51, 88
7, 17398, Note_off_c, 3, 51, 0
7, 17400, Note_on_c, 3, 44, 88
7, 17458, Note_off_c, 3, 44, 0
7, 17460, Note_on_c, 3, 51, 88
7, 17518, Note_off_c, 3, 51, 0
7, 17520, Note_on_c, 3, 43, 88
7, 17578, Note_off_c, 3, 43, 0
7, 17580, Note_on_c, 3, 51, 88
7, 17638, Note_off_c, 3, 51, 0
7, 17640, Note_on_c, 3, 43, 88
7, 17698, Note_off_c, 3, 43, 0
7, 17700, Note_on_c, 3, 51, 88
7, 17758, Note_off_c, 3, 51, 0
7, 17760, Note_on_c, 3, 44, 88
7, 17818, Note_off_c, 3, 44, 0
7, 17820, Note_on_c, 3, 51, 88
7, 17878, Note_off_c, 3, 51, 0
7, 17880, Note_on_c, 3, 44, 88
7, 17938, Note_off_c, 3, 44, 0
7, 17940, Note_on_c, 3, 51, 88
7, 17998, Note_off_c, 3, 51, 0
7, 18000, Note_on_c, 3, 42, 88
7, 18058, Note_off_c, 3, 42, 0
7, 18060, Note_on_c, 3, 51, 88
7, 18118, Note_off_c, 3, 51, 0
7, 18120, Note_on_c, 3, 42, 88
7, 18178, Note_off_c, 3, 42, 0
7, 18180, Note_on_c, 3, 51, 88
7, 18238, Note_off_c, 3, 51, 0
7, 18240, Note_on_c, 3, 41, 88
7, 18298, Note_off_c, 3, 41, 0
7, 18300, Note_on_c, 3, 51, 88
7, 18358, Note_off_c, 3, 51, 0
7, 18360, Note_on_c, 3, 50, 88
7, 18418, Note_off_c, 3, 50, 0
7, 18420, Note_on_c, 3, 48, 88
7, 18478, Note_off_c, 3, 48, 0
7, 18480, Note_on_c, 3, 50, 88
7, 18538, Note_off_c, 3, 50, 0
7, 18540, Note_on_c, 3, 56, 88
7, 18598, Note_off_c, 3, 56, 0
7, 18600, Note_on_c, 3, 53, 88
7, 18658, Note_off_c, 3, 53, 0
7, 18660, Note_on_c, 3, 56, 88
7, 18718, Note_off_c, 3, 56, 0
7, 18720, Note_on_c, 3, 46, 88
7, 18778, Note_off_c, 3, 46, 0
7, 18780, Note_on_c, 3, 58, 88
7, 18838, Note_off_c, 3, 58, 0
7, 18840, Note_on_c, 3, 48, 88
7, 18898, Note_off_c, 3, 48, 0
7, 18900, Note_on_c, 3, 58, 88
7, 18958, Note_off_c, 3, 58, 0
7, 18960, Note_on_c, 3, 50, 88
7, 19018, Note_off_c, 3, 50, 0
7, 19020, Note_on_c, 3, 58, 88
7, 19078, Note_off_c, 3, 58, 0
7, 19080, Note_on_c, 3, 46, 88
7, 19138, Note_off_c, 3, 46, 0
7, 19140, Note_on_c, 3, 56, 88
7, 19198, Note_off_c, 3, 56, 0
7, 19200, Note_on_c, 3, 51, 88
7, 19258, Note_off_c, 3, 51, 0
7, 19260, Note_on_c, 3, 54, 88
7, 19318, Note_off_c, 3, 54, 0
7, 19320, Note_on_c, 3, 51, 88
7, 19378, Note_off_c, 3, 51, 0
7, 19380, Note_on_c, 3, 54, 88
7, 19438, Note_off_c, 3, 54, 0
7, 19440, Note_on_c, 3, 49, 88
7, 19498, Note_off_c, 3, 49, 0
7, 19500, Note_on_c, 3, 58, 88
7, 19558, Note_off_c, 3, 58, 0
7, 19560, Note_on_c, 3, 49, 88
7, 19618, Note_off_c, 3, 49, 0
7, 19620, Note_on_c, 3, 58, 88
7, 19678, Note_off_c, 3, 58, 0
7, 19680, Note_on_c, 3, 48, 88
7, 19738, Note_off_c, 3, 48, 0
7, 19740, Note_on_c, 3, 56, 88
7, 19798, Note_off_c, 3, 56, 0
7, 19800, Note_on_c, 3, 48, 88
7, 19858, Note_off_c, 3, 48, 0
7, 19860, Note_on_c, 3, 56, 88
7, 19918, Note_off_c, 3, 56, 0
7, 19920, Note_on_c, 3, 44, 88
7, 19978, Note_off_c, 3, 44, 0
7, 19980, Note_on_c, 3, 56, 88
7, 20038, Note_off_c, 3, 56, 0
7, 20040, Note_on_c, 3, 44, 88
7, 20098, Note_off_c, 3, 44, 0
7, 20100, Note_on_c, 3, 54, 88
7, 20158, Note_off_c, 3, 54, 0
7, 20160, Note_on_c, 3, 49, 88
7, 20218, Note_off_c, 3, 49, 0
7, 20220, Note_on_c, 3, 53, 88
7, 20278, Note_off_c, 3, 53, 0
7, 20280, Note_on_c, 3, 49, 88
7, 20338, Note_off_c, 3, 49, 0
7, 20340, Note_on_c, 3, 53, 88
7, 20398, Note_off_c, 3, 53, 0
7, 20400, Note_on_c, 3, 48, 88
7, 20458, Note_off_c, 3, 48, 0
7, 20460, Note_on_c, 3, 56, 88
7, 20518, Note_off_c, 3, 56, 0
7, 20520, Note_on_c, 3, 48, 88
7, 20578, Note_off_c, 3, 48, 0
7, 20580, Note_on_c, 3, 56, 88
7, 20638, Note_off_c, 3, 56, 0
7, 20640, Note_on_c, 3, 46, 88
7, 20698, Note_off_c, 3, 46, 0
7, 20700, Note_on_c, 3, 54, 88
7, 20758, Note_off_c, 3, 54, 0
7, 20760, Note_on_c, 3, 46, 88
7, 20818, Note_off_c, 3, 46, 0
7, 20820, Note_on_c, 3, 54, 88
7, 20878, Note_off_c, 3, 54, 0
7, 20880, Note_on_c, 3, 42, 88
7, 20938, Note_off_c, 3, 42, 0
7, 20940, Note_on_c, 3, 54, 88
7, 20998, Note_off_c, 3, 54, 0
7, 21000, Note_on_c, 3, 42, 88
7, 21058, Note_off_c, 3, 42, 0
7, 21060, Note_on_c, 3, 53, 88
7, 21118, Note_off_c, 3, 53, 0
7, 21120, Note_on_c, 3, 48, 88
7, 21178, Note_off_c, 3, 48, 0
7, 21180, Note_on_c, 3, 51, 88
7, 21238, Note_off_c, 3, 51, 0
7, 21240, Note_on_c, 3, 48, 88
7, 21298, Note_off_c, 3, 48, 0
7, 21300, Note_on_c, 3, 51, 88
7, 21358, Note_off_c, 3, 51, 0
7, 21360, Note_on_c, 3, 46, 88
7, 21418, Note_off_c, 3, 46, 0
7, 21420, Note_on_c, 3, 54, 88
7, 21478, Note_off_c, 3, 54, 0
7, 21480, Note_on_c, 3, 46, 88
7, 21538, Note_off_c, 3, 46, 0
7, 21540, Note_on_c, 3, 54, 88
7, 21598, Note_off_c, 3, 54, 0
7, 21600, Note_on_c, 3, 45, 88
7, 21658, Note_off_c, 3, 45, 0
7, 21660, Note_on_c, 3, 53, 88
7, 21718, Note_off_c, 3, 53, 0
7, 21720, Note_on_c, 3, 45, 88
7, 21778, Note_off_c, 3, 45, 0
7, 21780, Note_on_c, 3, 53, 88
7, 21838, Note_off_c, 3, 53, 0
7, 21840, Note_on_c, 3, 41, 88
7, 21898, Note_off_c, 3, 41, 0
7, 21900, Note_on_c, 3, 53, 88
7, 21958, Note_off_c, 3, 53, 0
7, 21960, Note_on_c, 3, 41, 88
7, 22018, Note_off_c, 3, 41, 0
7, 22020, Note_on_c, 3, 51, 88
7, 22078, Note_off_c, 3, 51, 0
7, 22080, Note_on_c, 3, 50, 88
7, 22138, Note_off_c, 3, 50, 0
7, 22140, Note_on_c, 3, 46, 88
7, 22198, Note_off_c, 3, 46, 0
7, 22200, Note_on_c, 3, 51, 88
7, 22258, Note_off_c, 3, 51, 0
7, 22260, Note_on_c, 3, 54, 88
7, 22318, Note_off_c, 3, 54, 0
7, 22320, Note_on_c, 3, 58, 88
7, 22436, Note_off_c, 3, 58, 0
7, 22440, Note_on_c, 3, 46, 88
7, 22556, Note_off_c, 3, 46, 0
7, 22560, Note_on_c, 3, 39, 88
7, 22735, Note_off_c, 3, 39, 0
7, 22740, Note_on_c, 3, 43, 88
7, 22769, Note_off_c, 3, 43, 0
7, 22770, Note_on_c, 3, 46, 88
7, 22799, Note_off_c, 3, 46, 0
7, 22800, Note_on_c, 3, 51, 88
7, 23034, Note_off_c, 3, 51, 0
7, 23040, Note_on_c, 3, 56, 88
7, 23040, Note_on_c, 3, 59, 88
7, 23040, Note_on_c, 3, 63, 88
7, 23274, Note_off_c, 3, 56, 0
7, 23274, Note_off_c, 3, 59, 0
7, 23274, Note_off_c, 3, 63, 0
7, 23520, Note_on_c, 3, 56, 88
7, 23520, Note_on_c, 3, 58, 88
7, 23520, Note_on_c, 3, 61, 88
7, 23754, Note_off_c, 3, 56, 0
7, 23754, Note_off_c, 3, 58, 0
7, 23754, Note_off_c, 3, 61, 0
7, 23820, Note_on_c, 3, 61, 88
7, 23878, Note_off_c, 3, 61, 0
7, 23880, Note_on_c, 3, 59, 88
7, 23938, Note_off_c, 3, 59, 0
7, 23940, Note_on_c, 3, 58, 88
7, 23998, Note_off_c, 3, 58, 0
7, 24000, Note_on_c, 3, 56, 88
7, 24058, Note_off_c, 3, 56, 0
7, 24060, Note_on_c, 3, 63, 88
7, 24118, Note_off_c, 3, 63, 0
7, 24120, Note_on_c, 3, 56, 88
7, 24178, Note_off_c, 3, 56, 0
7, 24180, Note_on_c, 3, 63, 88
7, 24238, Note_off_c, 3, 63, 0
7, 24240, Note_on_c, 3, 55, 88
7, 24298, Note_off_c, 3, 55, 0
7, 24300, Note_on_c, 3, 63, 88
7, 24358, Note_off_c, 3, 63, 0
7, 24360, Note_on_c, 3, 55, 88
7, 24418, Note_off_c, 3, 55, 0
7, 24420, Note_on_c, 3, 63, 88
7, 24478, Note_off_c, 3, 63, 0
7, 24480, Note_on_c, 3, 56, 88
7, 24538, Note_off_c, 3, 56, 0
7, 24540, Note_on_c, 3, 63, 88
7, 24598, Note_off_c, 3, 63, 0
7, 24600, Note_on_c, 3, 56, 88
7, 24658, Note_off_c, 3, 56, 0
7, 24660, Note_on_c, 3, 63, 88
7, 24718, Note_off_c, 3, 63, 0
7, 24720, Note_on_c, 3, 51, 88
7, 24778, Note_off_c, 3, 51, 0
7, 24780, Note_on_c, 3, 63, 88
7, 24838, Note_off_c, 3, 63, 0
7, 24840, Note_on_c, 3, 51, 88
7, 24898, Note_off_c, 3, 51, 0
7, 24900, Note_on_c, 3, 63, 88
7, 24958, Note_off_c, 3, 63, 0
7, 24960, Note_on_c, 3, 56, 88
7, 24960, Note_on_c, 3, 59, 88
7, 24960, Note_on_c, 3, 63, 88
7, 25194, Note_off_c, 3, 56, 0
7, 25194, Note_off_c, 3, 59, 0
7, 25194, Note_off_c, 3, 63, 0
7, 25440, Note_on_c, 3, 56, 88
7, 25440, Note_on_c, 3, 58, 88
7, 25440, Note_on_c, 3, 61, 88
7, 25674, Note_off_c, 3, 56, 0
7, 25674, Note_off_c, 3, 58, 0
7, 25674, Note_off_c, 3, 61, 0
7, 25740, Note_on_c, 3, 61, 88
7, 25798, Note_off_c, 3, 61, 0
7, 25800, Note_on_c, 3, 59, 88
7, 25858, Note_off_c, 3, 59, 0
7, 25860, Note_on_c, 3, 58, 88
7, 25918, Note_off_c, 3, 58, 0
7, 25920, Note_on_c, 3, 56, 88
7, 25978, Note_off_c, 3, 56, 0
7, 25980, Note_on_c, 3, 63, 88
7, 26038, Note_off_c, 3, 63, 0
7, 26040, Note_on_c, 3, 56, 88
7, 26098, Note_off_c, 3, 56, 0
7, 26100, Note_on_c, 3, 63, 88
7, 26158, Note_off_c, 3, 63, 0
7, 26160, Note_on_c, 3, 55, 88
7, 26218, Note_off_c, 3, 55, 0
7, 26220, Note_on_c, 3, 63, 88
7, 26278, Note_off_c, 3, 63, 0
7, 26280, Note_on_c, 3, 55, 88
7, 26338, Note_off_c, 3, 55, 0
7, 26340, Note_on_c, 3, 63, 88
7, 26398, Note_off_c, 3, 63, 0
7, 26400, Note_on_c, 3, 56, 88
7, 26458, Note_off_c, 3, 56, 0
7, 26460, Note_on_c, 3, 63, 88
7, 26518, Note_off_c, 3, 63, 0
7, 26520, Note_on_c, 3, 56, 88
7, 26578, Note_off_c, 3, 56, 0
7, 26580, Note_on_c, 3, 63, 88
7, 26638, Note_off_c, 3, 63, 0
7, 26640, Note_on_c, 3, 51, 88
7, 26698, Note_off_c, 3, 51, 0
7, 26700, Note_on_c, 3, 63, 88
7, 26758, Note_off_c, 3, 63, 0
7, 26760, Note_on_c, 3, 51, 88
7, 26818, Note_off_c, 3, 51, 0
7, 26820, Note_on_c, 3, 63, 88
7, 26878, Note_off_c, 3, 63, 0
7, 26880, Note_on_c, 3, 56, 88
7, 26938, Note_off_c, 3, 56, 0
7, 26940, Note_on_c, 3, 63, 88
7, 26998, Note_off_c, 3, 63, 0
7, 27000, Note_on_c, 3, 56, 88
7, 27058, Note_off_c, 3, 56, 0
7, 27060, Note_on_c, 3, 63, 88
7, 27118, Note_off_c, 3, 63, 0
7, 27120, Note_on_c, 3, 54, 88
7, 27178, Note_off_c, 3, 54, 0
7, 27180, Note_on_c, 3, 63, 88
7, 27238, Note_off_c, 3, 63, 0
7, 27240, Note_on_c, 3, 54, 88
7, 27298, Note_off_c, 3, 54, 0
7, 27300, Note_on_c, 3, 63, 88
7, 27358, Note_off_c, 3, 63, 0
7, 27360, Note_on_c, 3, 53, 88
7, 27418, Note_off_c, 3, 53, 0
7, 27420, Note_on_c, 3, 61, 88
7, 27478, Note_off_c, 3, 61, 0
7, 27480, Note_on_c, 3, 53, 88
7, 27538, Note_off_c, 3, 53, 0
7, 27540, Note_on_c, 3, 61, 88
7, 27598, Note_off_c, 3, 61, 0
7, 27600, Note_on_c, 3, 49, 88
7, 27658, Note_off_c, 3, 49, 0
7, 27660, Note_on_c, 3, 61, 88
7, 27718, Note_off_c, 3, 61, 0
7, 27720, Note_on_c, 3, 49, 88
7, 27778, Note_off_c, 3, 49, 0
7, 27780, Note_on_c, 3, 61, 88
7, 27838, Note_off_c, 3, 61, 0
7, 27840, Note_on_c, 3, 54, 88
7, 27898, Note_off_c, 3, 54, 0
7, 27900, Note_on_c, 3, 61, 88
7, 27958, Note_off_c, 3, 61, 0
7, 27960, Note_on_c, 3, 54, 88
7, 28018, Note_off_c, 3, 54, 0
7, 28020, Note_on_c, 3, 61, 88
7, 28078, Note_off_c, 3, 61, 0
7, 28080, Note_on_c, 3, 53, 88
7, 28138, Note_off_c, 3, 53, 0
7, 28140, Note_on_c, 3, 61, 88
7, 28198, Note_off_c, 3, 61, 0
7, 28200, Note_on_c, 3, 53, 88
7, 28258, Note_off_c, 3, 53, 0
7, 28260, Note_on_c, 3, 61, 88
7, 28318, Note_off_c, 3, 61, 0
7, 28320, Note_on_c, 3, 51, 88
7, 28378, Note_off_c, 3, 51, 0
7, 28380, Note_on_c, 3, 59, 88
7, 28438, Note_off_c, 3, 59, 0
7, 28440, Note_on_c, 3, 51, 88
7, 28498, Note_off_c, 3, 51, 0
7, 28500, Note_on_c, 3, 59, 88
7, 28558, Note_off_c, 3, 59, 0
7, 28560, Note_on_c, 3, 47, 88
7, 28618, Note_off_c, 3, 47, 0
7, 28620, Note_on_c, 3, 59, 88
7, 28678, Note_off_c, 3, 59, 0
7, 28680, Note_on_c, 3, 47, 88
7, 28738, Note_off_c, 3, 47, 0
7, 28740, Note_on_c, 3, 59, 88
7, 28798, Note_off_c, 3, 59, 0
7, 28800, Note_on_c, 3, 53, 88
7, 28858, Note_off_c, 3, 53, 0
7, 28860, Note_on_c, 3, 59, 88
7, 28918, Note_off_c, 3, 59, 0
7, 28920, Note_on_c, 3, 53, 88
7, 28978, Note_off_c, 3, 53, 0
7, 28980, Note_on_c, 3, 59, 88
7, 29038, Note_off_c, 3, 59, 0
7, 29040, Note_on_c, 3, 51, 88
7, 29098, Note_off_c, 3, 51, 0
7, 29100, Note_on_c, 3, 59, 88
7, 29158, Note_off_c, 3, 59, 0
7, 29160, Note_on_c, 3, 51, 88
7, 29218, Note_off_c, 3, 51, 0
7, 29220, Note_on_c, 3, 59, 88
7, 29278, Note_off_c, 3, 59, 0
7, 29280, Note_on_c, 3, 50, 88
7, 29338, Note_off_c, 3, 50, 0
7, 29340, Note_on_c, 3, 58, 88
7, 29398, Note_off_c, 3, 58, 0
7, 29400, Note_on_c, 3, 50, 88
7, 29458, Note_off_c, 3, 50, 0
7, 29460, Note_on_c, 3, 58, 88
7, 29518, Note_off_c, 3, 58, 0
7, 29520, Note_on_c, 3, 46, 88
7, 29578, Note_off_c, 3, 46, 0
7, 29580, Note_on_c, 3, 58, 88
7, 29638, Note_off_c, 3, 58, 0
7, 29640, Note_on_c, 3, 46, 88
7, 29698, Note_off_c, 3, 46, 0
7, 29700, Note_on_c, 3, 58, 88
7, 29758, Note_off_c, 3, 58, 0
7, 29760, Note_on_c, 3, 51, 88
7, 29818, Note_off_c, 3, 51, 0
7, 29820, Note_on_c, 3, 54, 88
7, 29878, Note_off_c, 3, 54, 0
7, 29880, Note_on_c, 3, 56, 88
7, 29938, Note_off_c, 3, 56, 0
7, 29940, Note_on_c, 3, 58, 88
7, 29998, Note_off_c, 3, 58, 0
7, 30000, Note_on_c, 3, 59, 88
7, 30116, Note_off_c, 3, 59, 0
7, 30120, Note_on_c, 3, 51, 88
7, 30236, Note_off_c, 3, 51, 0
7, 30240, Note_on_c, 3, 50, 88
7, 30356, Note_off_c, 3, 50, 0
7, 30360, Note_on_c, 3, 59, 88
7, 30476, Note_off_c, 3, 59, 0
7, 30480, Note_on_c, 3, 58, 88
7, 30596, Note_off_c, 3, 58, 0
7, 30600, Note_on_c, 3, 49, 88
7, 30716, Note_off_c, 3, 49, 0
7, 30720, Note_on_c, 3, 48, 88
7, 30778, Note_off_c, 3, 48, 0
7, 30780, Note_on_c, 3, 51, 88
7, 30838, Note_off_c, 3, 51, 0
7, 30840, Note_on_c, 3, 53, 88
7, 30898, Note_off_c, 3, 53, 0
7, 30900, Note_on_c, 3, 55, 88
7, 30958, Note_off_c, 3, 55, 0
7, 30960, Note_on_c, 3, 56, 88
7, 31076, Note_off_c, 3, 56, 0
7, 31080, Note_on_c, 3, 47, 88
7, 31196, Note_off_c, 3, 47, 0
7, 31200, Note_on_c, 3, 46, 88
7, 31316, Note_off_c, 3, 46, 0
7, 31320, Note_on_c, 3, 55, 88
7, 31436, Note_off_c, 3, 55, 0
7, 31440, Note_on_c, 3, 54, 88
7, 31556, Note_off_c, 3, 54, 0
7, 31560, Note_on_c, 3, 45, 88
7, 31676, Note_off_c, 3, 45, 0
7, 31680, Note_on_c, 3, 44, 88
7, 31738, Note_off_c, 3, 44, 0
7, 31740, Note_on_c, 3, 48, 88
7, 31798, Note_off_c, 3, 48, 0
7, 31800, Note_on_c, 3, 49, 88
7, 31858, Note_off_c, 3, 49, 0
7, 31860, Note_on_c, 3, 51, 88
7, 31918, Note_off_c, 3, 51, 0
7, 31920, Note_on_c, 3, 52, 88
7, 32036, Note_off_c, 3, 52, 0
7, 32040, Note_on_c, 3, 44, 88
7, 32156, Note_off_c, 3, 44, 0
7, 32160, Note_on_c, 3, 43, 88
7, 32276, Note_off_c, 3, 43, 0
7, 32280, Note_on_c, 3, 52, 88
7, 32396, Note_off_c, 3, 52, 0
7, 32400, Note_on_c, 3, 51, 88
7, 32516, Note_off_c, 3, 51, 0
7, 32520, Note_on_c, 3, 42, 88
7, 32636, Note_off_c, 3, 42, 0
7, 32640, Note_on_c, 3, 41, 88
7, 32756, Note_off_c, 3, 41, 0
7, 32760, Note_on_c, 3, 50, 88
7, 32876, Note_off_c, 3, 50, 0
7, 32880, Note_on_c, 3, 49, 88
7, 32996, Note_off_c, 3, 49, 0
7, 33000, Note_on_c, 3, 40, 88
7, 33116, Note_off_c, 3, 40, 0
7, 33120, Note_on_c, 3, 39, 88
7, 33236, Note_off_c, 3, 39, 0
7, 33240, Note_on_c, 3, 41, 88
7, 33356, Note_off_c, 3, 41, 0
7, 33360, Note_on_c, 3, 43, 88
7, 33476, Note_off_c, 3, 43, 0
7, 33480, Note_on_c, 3, 39, 88
7, 33596, Note_off_c, 3, 39, 0
7, 33600, Note_on_c, 3, 44, 88
7, 33716, Note_off_c, 3, 44, 0
7, 33720, Note_on_c, 3, 46, 88
7, 33836, Note_off_c, 3, 46, 0
7, 33840, Note_on_c, 3, 48, 88
7, 33956, Note_off_c, 3, 48, 0
7, 33960, Note_on_c, 3, 44, 88
7, 34076, Note_off_c, 3, 44, 0
7, 34080, Note_on_c, 3, 49, 88
7, 34196, Note_off_c, 3, 49, 0
7, 34200, Note_on_c, 3, 51, 88
7, 34316, Note_off_c, 3, 51, 0
7, 34320, Note_on_c, 3, 53, 88
7, 34436, Note_off_c, 3, 53, 0
7, 34440, Note_on_c, 3, 49, 88
7, 34556, Note_off_c, 3, 49, 0
7, 34560, Note_on_c, 3, 54, 88
7, 34676, Note_off_c, 3, 54, 0
7, 34680, Note_on_c, 3, 56, 88
7, 34796, Note_off_c, 3, 56, 0
7, 34800, Note_on_c, 3, 58, 88
7, 34916, Note_off_c, 3, 58, 0
7, 34920, Note_on_c, 3, 54, 88
7, 35036, Note_off_c, 3, 54, 0
7, 35040, Note_on_c, 3, 59, 88
7, 35156, Note_off_c, 3, 59, 0
7, 35160, Note_on_c, 3, 58, 88
7, 35276, Note_off_c, 3, 58, 0
7, 35280, Note_on_c, 3, 56, 88
7, 35396, Note_off_c, 3, 56, 0
7, 35400, Note_on_c, 3, 54, 88
7, 35516, Note_off_c, 3, 54, 0
7, 35520, Note_on_c, 3, 53, 88
7, 35636, Note_off_c, 3, 53, 0
7, 35640, Note_on_c, 3, 56, 88
7, 35756, Note_off_c, 3, 56, 0
7, 35760, Note_on_c, 3, 50, 88
7, 35876, Note_off_c, 3, 50, 0
7, 35880, Note_on_c, 3, 46, 88
7, 35996, Note_off_c, 3, 46, 0
7, 36000, Note_on_c, 3, 51, 88
7, 36116, Note_off_c, 3, 51, 0
7, 36120, Note_on_c, 3, 49, 88
7, 36236, Note_off_c, 3, 49, 0
7, 36240, Note_on_c, 3, 48, 88
7, 36356, Note_off_c, 3, 48, 0
7, 36360, Note_on_c, 3, 46, 88
7, 36476, Note_off_c, 3, 46, 0
7, 36480, Note_on_c, 3, 48, 88
7, 36596, Note_off_c, 3, 48, 0
7, 36600, Note_on_c, 3, 51, 88
7, 36716, Note_off_c, 3, 51, 0
7, 36720, Note_on_c, 3, 45, 88
7, 36836, Note_off_c, 3, 45, 0
7, 36840, Note_on_c, 3, 41, 88
7, 36956, Note_off_c, 3, 41, 0
7, 36960, Note_on_c, 3, 46, 88
7, 37076, Note_off_c, 3, 46, 0
7, 37260, Note_on_c, 3, 68, 88
7, 37318, Note_off_c, 3, 68, 0
7, 37320, Note_on_c, 3, 66, 88
7, 37378, Note_off_c, 3, 66, 0
7, 37380, Note_on_c, 3, 65, 88
7, 37438, Note_off_c, 3, 65, 0
7, 37440, Note_on_c, 3, 63, 88
7, 37498, Note_off_c, 3, 63, 0
7, 37500, Note_on_c, 3, 65, 88
7, 37558, Note_off_c, 3, 65, 0
7, 37560, Note_on_c, 3, 66, 88
7, 37618, Note_off_c, 3, 66, 0
7, 37620, Note_on_c, 3, 68, 88
7, 37678, Note_off_c, 3, 68, 0
7, 37680, Note_on_c, 3, 70, 88
7, 37738, Note_off_c, 3, 70, 0
7, 37740, Note_on_c, 3, 66, 88
7, 37798, Note_off_c, 3, 66, 0
7, 37800, Note_on_c, 3, 65, 88
7, 37858, Note_off_c, 3, 65, 0
7, 37860, Note_on_c, 3, 63, 88
7, 37918, Note_off_c, 3, 63, 0
7, 37920, Note_on_c, 3, 62, 88
7, 37978, Note_off_c, 3, 62, 0
7, 37980, Note_on_c, 3, 63, 88
7, 38038, Note_off_c, 3, 63, 0
7, 38040, Note_on_c, 3, 65, 88
7, 38098, Note_off_c, 3, 65, 0
7, 38100, Note_on_c, 3, 59, 88
7, 38158, Note_off_c, 3, 59, 0
7, 38160, Note_on_c, 3, 58, 88
7, 38218, Note_off_c, 3, 58, 0
7, 38220, Note_on_c, 3, 56, 88
7, 38278, Note_off_c, 3, 56, 0
7, 38280, Note_on_c, 3, 54, 88
7, 38338, Note_off_c, 3, 54, 0
7, 38340, Note_on_c, 3, 53, 88
7, 38398, Note_off_c, 3, 53, 0
7, 38400, Note_on_c, 3, 51, 88
7, 38458, Note_off_c, 3, 51, 0
7, 38460, Note_on_c, 3, 58, 88
7, 38518, Note_off_c, 3, 58, 0
7, 38520, Note_on_c, 3, 51, 88
7, 38578, Note_off_c, 3, 51, 0
7, 38580, Note_on_c, 3, 58, 88
7, 38638, Note_off_c, 3, 58, 0
7, 38640, Note_on_c, 3, 50, 88
7, 38698, Note_off_c, 3, 50, 0
7, 38700, Note_on_c, 3, 58, 88
7, 38758, Note_off_c, 3, 58, 0
7, 38760, Note_on_c, 3, 50, 88
7, 38818, Note_off_c, 3, 50, 0
7, 38820, Note_on_c, 3, 58, 88
7, 38878, Note_off_c, 3, 58, 0
7, 38880, Note_on_c, 3, 51, 88
7, 38938, Note_off_c, 3, 51, 0
7, 38940, Note_on_c, 3, 58, 88
7, 38998, Note_off_c, 3, 58, 0
7, 39000, Note_on_c, 3, 51, 88
7, 39058, Note_off_c, 3, 51, 0
7, 39060, Note_on_c, 3, 58, 88
7, 39118, Note_off_c, 3, 58, 0
7, 39120, Note_on_c, 3, 46, 88
7, 39178, Note_off_c, 3, 46, 0
7, 39180, Note_on_c, 3, 56, 88
7, 39238, Note_off_c, 3, 56, 0
7, 39240, Note_on_c, 3, 46, 88
7, 39298, Note_off_c, 3, 46, 0
7, 39300, Note_on_c, 3, 56, 88
7, 39358, Note_off_c, 3, 56, 0
7, 39360, Note_on_c, 3, 47, 88
7, 39418, Note_off_c, 3, 47, 0
7, 39420, Note_on_c, 3, 54, 88
7, 39478, Note_off_c, 3, 54, 0
7, 39480, Note_on_c, 3, 47, 88
7, 39538, Note_off_c, 3, 47, 0
7, 39540, Note_on_c, 3, 54, 88
7, 39598, Note_off_c, 3, 54, 0
7, 39600, Note_on_c, 3, 46, 88
7, 39658, Note_off_c, 3, 46, 0
7, 39660, Note_on_c, 3, 54, 88
7, 39718, Note_off_c, 3, 54, 0
7, 39720, Note_on_c, 3, 46, 88
7, 39778, Note_off_c, 3, 46, 0
7, 39780, Note_on_c, 3, 54, 88
7, 39838, Note_off_c, 3, 54, 0
7, 39840, Note_on_c, 3, 47, 88
7, 39898, Note_off_c, 3, 47, 0
7, 39900, Note_on_c, 3, 54, 88
7, 39958, Note_off_c, 3, 54, 0
7, 39960, Note_on_c, 3, 47, 88
7, 40018, Note_off_c, 3, 47, 0
7, 40020, Note_on_c, 3, 54, 88
7, 40078, Note_off_c, 3, 54, 0
7, 40080, Note_on_c, 3, 43, 88
7, 40138, Note_off_c, 3, 43, 0
7, 40140, Note_on_c, 3, 52, 88
7, 40198, Note_off_c, 3, 52, 0
7, 40200, Note_on_c, 3, 43, 88
7, 40258, Note_off_c, 3, 43, 0
7, 40260, Note_on_c, 3, 52, 88
7, 40318, Note_off_c, 3, 52, 0
7, 40320, Note_on_c, 3, 44, 88
7, 40378, Note_off_c, 3, 44, 0
7, 40380, Note_on_c, 3, 51, 88
7, 40438, Note_off_c, 3, 51, 0
7, 40440, Note_on_c, 3, 44, 88
7, 40498, Note_off_c, 3, 44, 0
7, 40500, Note_on_c, 3, 51, 88
7, 40558, Note_off_c, 3, 51, 0
7, 40560, Note_on_c, 3, 43, 88
7, 40618, Note_off_c, 3, 43, 0
7, 40620, Note_on_c, 3, 51, 88
7, 40678, Note_off_c, 3, 51, 0
7, 40680, Note_on_c, 3, 43, 88
7, 40738, Note_off_c, 3, 43, 0
7, 40740, Note_on_c, 3, 51, 88
7, 40798, Note_off_c, 3, 51, 0
7, 40800, Note_on_c, 3, 44, 88
7, 40858, Note_off_c, 3, 44, 0
7, 40860, Note_on_c, 3, 51, 88
7, 40918, Note_off_c, 3, 51, 0
7, 40920, Note_on_c, 3, 44, 88
7, 40978, Note_off_c, 3, 44, 0
7, 40980, Note_on_c, 3, 51, 88
7, 41038, Note_off_c, 3, 51, 0
7, 41040, Note_on_c, 3, 42, 88
7, 41098, Note_off_c, 3, 42, 0
7, 41100, Note_on_c, 3, 51, 88
7, 41158, Note_off_c, 3, 51, 0
7, 41160, Note_on_c, 3, 42, 88
7, 41218, Note_off_c, 3, 42, 0
7, 41220, Note_on_c, 3, 51, 88
7, 41278, Note_off_c, 3, 51, 0
7, 41280, Note_on_c, 3, 41, 88
7, 41338, Note_off_c, 3, 41, 0
7, 41340, Note_on_c, 3, 51, 88
7, 41398, Note_off_c, 3, 51, 0
7, 41400, Note_on_c, 3, 50, 88
7, 41458, Note_off_c, 3, 50, 0
7, 41460, Note_on_c, 3, 48, 88
7, 41518, Note_off_c, 3, 48, 0
7, 41520, Note_on_c, 3, 50, 88
7, 41578, Note_off_c, 3, 50, 0
7, 41580, Note_on_c, 3, 56, 88
7, 41638, Note_off_c, 3, 56, 0
7, 41640, Note_on_c, 3, 53, 88
7, 41698, Note_off_c, 3, 53, 0
7, 41700, Note_on_c, 3, 56, 88
7, 41758, Note_off_c, 3, 56, 0
7, 41760, Note_on_c, 3, 46, 88
7, 41818, Note_off_c, 3, 46, 0
7, 41820, Note_on_c, 3, 58, 88
7, 41878, Note_off_c, 3, 58, 0
7, 41880, Note_on_c, 3, 48, 88
7, 41938, Note_off_c, 3, 48, 0
7, 41940, Note_on_c, 3, 58, 88
7, 41998, Note_off_c, 3, 58, 0
7, 42000, Note_on_c, 3, 50, 88
7, 42058, Note_off_c, 3, 50, 0
7, 42060, Note_on_c, 3, 58, 88
7, 42118, Note_off_c, 3, 58, 0
7, 42120, Note_on_c, 3, 46, 88
7, 42178, Note_off_c, 3, 46, 0
7, 42180, Note_on_c, 3, 56, 88
7, 42238, Note_off_c, 3, 56, 0
7, 42240, Note_on_c, 3, 51, 88
7, 42298, Note_off_c, 3, 51, 0
7, 42300, Note_on_c, 3, 54, 88
7, 42358, Note_off_c, 3, 54, 0
7, 42360, Note_on_c, 3, 51, 88
7, 42418, Note_off_c, 3, 51, 0
7, 42420, Note_on_c, 3, 54, 88
7, 42478, Note_off_c, 3, 54, 0
7, 42480, Note_on_c, 3, 49, 88
7, 42538, Note_off_c, 3, 49, 0
7, 42540, Note_on_c, 3, 58, 88
7, 42598, Note_off_c, 3, 58, 0
7, 42600, Note_on_c, 3, 49, 88
7, 42658, Note_off_c, 3, 49, 0
7, 42660, Note_on_c, 3, 58, 88
7, 42718, Note_off_c, 3, 58, 0
7, 42720, Note_on_c, 3, 48, 88
7, 42778, Note_off_c, 3, 48, 0
7, 42780, Note_on_c, 3, 56, 88
7, 42838, Note_off_c, 3, 56, 0
7, 42840, Note_on_c, 3, 48, 88
7, 42898, Note_off_c, 3, 48, 0
7, 42900, Note_on_c, 3, 56, 88
7, 42958, Note_off_c, 3, 56, 0
7, 42960, Note_on_c, 3, 44, 88
7, 43018, Note_off_c, 3, 44, 0
7, 43020, Note_on_c, 3, 56, 88
7, 43078, Note_off_c, 3, 56, 0
7, 43080, Note_on_c, 3, 44, 88
7, 43138, Note_off_c, 3, 44, 0
7, 43140, Note_on_c, 3, 54, 88
7, 43198, Note_off_c, 3, 54, 0
7, 43200, Note_on_c, 3, 49, 88
7, 43258, Note_off_c, 3, 49, 0
7, 43260, Note_on_c, 3, 53, 88
7, 43318, Note_off_c, 3, 53, 0
7, 43320, Note_on_c, 3, 49, 88
7, 43378, Note_off_c, 3, 49, 0
7, 43380, Note_on_c, 3, 53, 88
7, 43438, Note_off_c, 3, 53, 0
7, 43440, Note_on_c, 3, 48, 88
7, 43498, Note_off_c, 3, 48, 0
7, 43500, Note_on_c, 3, 56, 88
7, 43558, Note_off_c, 3, 56, 0
7, 43560, Note_on_c, 3, 48, 88
7, 43618, Note_off_c, 3, 48, 0
7, 43620, Note_on_c, 3, 56, 88
7, 43678, Note_off_c, 3, 56, 0
7, 43680, Note_on_c, 3, 46, 88
7, 43738, Note_off_c, 3, 46, 0
7, 43740, Note_on_c, 3, 54, 88
7, 43798, Note_off_c, 3, 54, 0
7, 43800, Note_on_c, 3, 46, 88
7, 43858, Note_off_c, 3, 46, 0
7, 43860, Note_on_c, 3, 54, 88
7, 43918, Note_off_c, 3, 54, 0
7, 43920, Note_on_c, 3, 42, 88
7, 43978, Note_off_c, 3, 42, 0
7, 43980, Note_on_c, 3, 54, 88
7, 44038, Note_off_c, 3, 54, 0
7, 44040, Note_on_c, 3, 42, 88
7, 44098, Note_off_c, 3, 42, 0
7, 44100, Note_on_c, 3, 53, 88
7, 44158, Note_off_c, 3, 53, 0
7, 44160, Note_on_c, 3, 48, 88
7, 44218, Note_off_c, 3, 48, 0
7, 44220, Note_on_c, 3, 51, 88
7, 44278, Note_off_c, 3, 51, 0
7, 44280, Note_on_c, 3, 48, 88
7, 44338, Note_off_c, 3, 48, 0
7, 44340, Note_on_c, 3, 51, 88
7, 44398, Note_off_c, 3, 51, 0
7, 44400, Note_on_c, 3, 46, 88
7, 44458, Note_off_c, 3, 46, 0
7, 44460, Note_on_c, 3, 54, 88
7, 44518, Note_off_c, 3, 54, 0
7, 44520, Note_on_c, 3, 46, 88
7, 44578, Note_off_c, 3, 46, 0
7, 44580, Note_on_c, 3, 54, 88
7, 44638, Note_off_c, 3, 54, 0
7, 44640, Note_on_c, 3, 45, 88
7, 44698, Note_off_c, 3, 45, 0
7, 44700, Note_on_c, 3, 53, 88
7, 44758, Note_off_c, 3, 53, 0
7, 44760, Note_on_c, 3, 45, 88
7, 44818, Note_off_c, 3, 45, 0
7, 44820, Note_on_c, 3, 53, 88
7, 44878, Note_off_c, 3, 53, 0
7, 44880, Note_on_c, 3, 41, 88
7, 44938, Note_off_c, 3, 41, 0
7, 44940, Note_on_c, 3, 53, 88
7, 44998, Note_off_c, 3, 53, 0
7, 45000, Note_on_c, 3, 41, 88
7, 45058, Note_off_c, 3, 41, 0
7, 45060, Note_on_c, 3, 51, 88
7, 45118, Note_off_c, 3, 51, 0
7, 45120, Note_on_c, 3, 50, 88
7, 45178, Note_off_c, 3, 50, 0
7, 45180, Note_on_c, 3, 46, 88
7, 45238, Note_off_c, 3, 46, 0
7, 45240, Note_on_c, 3, 51, 88
7, 45298, Note_off_c, 3, 51, 0
7, 45300, Note_on_c, 3, 54, 88
7, 45358, Note_off_c, 3, 54, 0
7, 45360, Note_on_c, 3, 58, 88
7, 45476, Note_off_c, 3, 58, 0
7, 45480, Note_on_c, 3, 46, 88
7, 45596, Note_off_c, 3, 46, 0
7, 45600, Note_on_c, 3, 39, 88
7, 45775, Note_off_c, 3, 39, 0
7, 45780, Note_on_c, 3, 43, 88
7, 45809, Note_off_c, 3, 43, 0
7, 45810, Note_on_c, 3, 46, 88
7, 45839, Note_off_c, 3, 46, 0
7, 45840, Note_on_c, 3, 51, 88
7, 46074, Note_off_c, 3, 51, 0
7, 46200, Note_on_c, 3, 51, 88
7, 46258, Note_off_c, 3, 51, 0
7, 46260, Note_on_c, 3, 53, 88
7, 46318, Note_off_c, 3, 53, 0
7, 46320, Note_on_c, 3, 55, 88
7, 46436, Note_off_c, 3, 55, 0
7, 46440, Note_on_c, 3, 58, 88
7, 46556, Note_off_c, 3, 58, 0
7, 46560, Note_on_c, 3, 63, 88
7, 46676, Note_off_c, 3, 63, 0
7, 46680, Note_on_c, 3, 61, 88
7, 46796, Note_off_c, 3, 61, 0
7, 46800, Note_on_c, 3, 60, 88
7, 46916, Note_off_c, 3, 60, 0
7, 46920, Note_on_c, 3, 56, 88
7, 47036, Note_off_c, 3, 56, 0
7, 47040, Note_on_c, 3, 61, 88
7, 47156, Note_off_c, 3, 61, 0
7, 47160, Note_on_c, 3, 49, 88
7, 47276, Note_off_c, 3, 49, 0
7, 47280, Note_on_c, 3, 47, 88
7, 47396, Note_off_c, 3, 47, 0
7, 47400, Note_on_c, 3, 59, 88
7, 47516, Note_off_c, 3, 59, 0
7, 47520, Note_on_c, 3, 57, 88
7, 47636, Note_off_c, 3, 57, 0
7, 47640, Note_on_c, 3, 45, 88
7, 47756, Note_off_c, 3, 45, 0
7, 47760, Note_on_c, 3, 44, 88
7, 47876, Note_off_c, 3, 44, 0
7, 47880, Note_on_c, 3, 56, 88
7, 47996, Note_off_c, 3, 56, 0
7, 48000, Note_on_c, 3, 54, 88
7, 48116, Note_off_c, 3, 54, 0
7, 48120, Note_on_c, 3, 42, 88
7, 48236, Note_off_c, 3, 42, 0
7, 48240, Note_on_c, 3, 49, 88
7, 48356, Note_off_c, 3, 49, 0
7, 48360, Note_on_c, 3, 52, 88
7, 48476, Note_off_c, 3, 52, 0
7, 48480, Note_on_c, 3, 46, 88
7, 48596, Note_off_c, 3, 46, 0
7, 48600, Note_on_c, 3, 49, 88
7, 48716, Note_off_c, 3, 49, 0
7, 48720, Note_on_c, 3, 43, 88
7, 48836, Note_off_c, 3, 43, 0
7, 48840, Note_on_c, 3, 51, 88
7, 48956, Note_off_c, 3, 51, 0
7, 48960, Note_on_c, 3, 56, 88
7, 49076, Note_off_c, 3, 56, 0
7, 49080, Note_on_c, 3, 44, 88
7, 49196, Note_off_c, 3, 44, 0
7, 49200, Note_on_c, 3, 42, 88
7, 49316, Note_off_c, 3, 42, 0
7, 49320, Note_on_c, 3, 54, 88
7, 49436, Note_off_c, 3, 54, 0
7, 49440, Note_on_c, 3, 52, 88
7, 49556, Note_off_c, 3, 52, 0
7, 49560, Note_on_c, 3, 40, 88
7, 49676, Note_off_c, 3, 40, 0
7, 49680, Note_on_c, 3, 39, 88
7, 49796, Note_off_c, 3, 39, 0
7, 49800, Note_on_c, 3, 51, 88
7, 49916, Note_off_c, 3, 51, 0
7, 49920, Note_on_c, 3, 49, 88
7, 50036, Note_off_c, 3, 49, 0
7, 50040, Note_on_c, 3, 37, 88
7, 50156, Note_off_c, 3, 37, 0
7, 50220, Note_on_c, 3, 61, 88
7, 50278, Note_off_c, 3, 61, 0
7, 50280, Note_on_c, 3, 63, 88
7, 50338, Note_off_c, 3, 63, 0
7, 50340, Note_on_c, 3, 65, 88
7, 50398, Note_off_c, 3, 65, 0
7, 50400, Note_on_c, 3, 66, 88
7, 50516, Note_off_c, 3, 66, 0
7, 50520, Note_on_c, 3, 54, 88
7, 50636, Note_off_c, 3, 54, 0
7, 50700, Note_on_c, 3, 54, 88
7, 50758, Note_off_c, 3, 54, 0
7, 50760, Note_on_c, 3, 56, 88
7, 50818, Note_off_c, 3, 56, 0
7, 50820, Note_on_c, 3, 58, 88
7, 50878, Note_off_c, 3, 58, 0
7, 50880, Note_on_c, 3, 59, 88
7, 50996, Note_off_c, 3, 59, 0
7, 51000, Note_on_c, 3, 47, 88
7, 51116, Note_off_c, 3, 47, 0
7, 51180, Note_on_c, 3, 47, 88
7, 51238, Note_off_c, 3, 47, 0
7, 51240, Note_on_c, 3, 49, 88
7, 51298, Note_off_c, 3, 49, 0
7, 51300, Note_on_c, 3, 51, 88
7, 51358, Note_off_c, 3, 51, 0
7, 51360, Note_on_c, 3, 52, 88
7, 51476, Note_off_c, 3, 52, 0
7, 51480, Note_on_c, 3, 40, 88
7, 51596, Note_off_c, 3, 40, 0
7, 51660, Note_on_c, 3, 40, 88
7, 51718, Note_off_c, 3, 40, 0
7, 51720, Note_on_c, 3, 42, 88
7, 51778, Note_off_c, 3, 42, 0
7, 51780, Note_on_c, 3, 44, 88
7, 51838, Note_off_c, 3, 44, 0
7, 51840, Note_on_c, 3, 45, 88
7, 51898, Note_off_c, 3, 45, 0
7, 51900, Note_on_c, 3, 52, 88
7, 51958, Note_off_c, 3, 52, 0
7, 51960, Note_on_c, 3, 45, 88
7, 52018, Note_off_c, 3, 45, 0
7, 52020, Note_on_c, 3, 52, 88
7, 52078, Note_off_c, 3, 52, 0
7, 52080, Note_on_c, 3, 44, 88
7, 52138, Note_off_c, 3, 44, 0
7, 52140, Note_on_c, 3, 52, 88
7, 52198, Note_off_c, 3, 52, 0
7, 52200, Note_on_c, 3, 44, 88
7, 52258, Note_off_c, 3, 44, 0
7, 52260, Note_on_c, 3, 52, 88
7, 52318, Note_off_c, 3, 52, 0
7, 52320, Note_on_c, 3, 45, 88
7, 52378, Note_off_c, 3, 45, 0
7, 52380, Note_on_c, 3, 52, 88
7, 52438, Note_off_c, 3, 52, 0
7, 52440, Note_on_c, 3, 45, 88
7, 52498, Note_off_c, 3, 45, 0
7, 52500, Note_on_c, 3, 52, 88
7, 52558, Note_off_c, 3, 52, 0
7, 52560, Note_on_c, 3, 41, 88
7, 52618, Note_off_c, 3, 41, 0
7, 52620, Note_on_c, 3, 50, 88
7, 52678, Note_off_c, 3, 50, 0
7, 52680, Note_on_c, 3, 41, 88
7, 52738, Note_off_c, 3, 41, 0
7, 52740, Note_on_c, 3, 50, 88
7, 52798, Note_off_c, 3, 50, 0
7, 52800, Note_on_c, 3, 42, 88
7, 52858, Note_off_c, 3, 42, 0
7, 52860, Note_on_c, 3, 49, 88
7, 52918, Note_off_c, 3, 49, 0
7, 52920, Note_on_c, 3, 42, 88
7, 52978, Note_off_c, 3, 42, 0
7, 52980, Note_on_c, 3, 49, 88
7, 53038, Note_off_c, 3, 49, 0
7, 53040, Note_on_c, 3, 40, 88
7, 53098, Note_off_c, 3, 40, 0
7, 53100, Note_on_c, 3, 49, 88
7, 53158, Note_off_c, 3, 49, 0
7, 53160, Note_on_c, 3, 40, 88
7, 53218, Note_off_c, 3, 40, 0
7, 53220, Note_on_c, 3, 49, 88
7, 53278, Note_off_c, 3, 49, 0
7, 53280, Note_on_c, 3, 39, 88
7, 53338, Note_off_c, 3, 39, 0
7, 53340, Note_on_c, 3, 43, 88
7, 53398, Note_off_c, 3, 43, 0
7, 53400, Note_on_c, 3, 46, 88
7, 53458, Note_off_c, 3, 46, 0
7, 53460, Note_on_c, 3, 49, 88
7, 53518, Note_off_c, 3, 49, 0
7, 53520, Note_on_c, 3, 47, 88
7, 53578, Note_off_c, 3, 47, 0
7, 53580, Note_on_c, 3, 46, 88
7, 53638, Note_off_c, 3, 46, 0
7, 53640, Note_on_c, 3, 44, 88
7, 53698, Note_off_c, 3, 44, 0
7, 53700, Note_on_c, 3, 43, 88
7, 53758, Note_off_c, 3, 43, 0
7, 53760, Note_on_c, 3, 44, 88
7, 53818, Note_off_c, 3, 44, 0
7, 53820, Note_on_c, 3, 51, 88
7, 53878, Note_off_c, 3, 51, 0
7, 53880, Note_on_c, 3, 44, 88
7, 53938, Note_off_c, 3, 44, 0
7, 53940, Note_on_c, 3, 51, 88
7, 53998, Note_off_c, 3, 51, 0
7, 54000, Note_on_c, 3, 42, 88
7, 54058, Note_off_c, 3, 42, 0
7, 54060, Note_on_c, 3, 51, 88
7, 54118, Note_off_c, 3, 51, 0
7, 54120, Note_on_c, 3, 42, 88
7, 54178, Note_off_c, 3, 42, 0
7, 54180, Note_on_c, 3, 51, 88
7, 54238, Note_off_c, 3, 51, 0
7, 54240, Note_on_c, 3, 41, 88
7, 54298, Note_off_c, 3, 41, 0
7, 54300, Note_on_c, 3, 45, 88
7, 54358, Note_off_c, 3, 45, 0
7, 54360, Note_on_c, 3, 48, 88
7, 54418, Note_off_c, 3, 48, 0
7, 54420, Note_on_c, 3, 51, 88
7, 54478, Note_off_c, 3, 51, 0
7, 54480, Note_on_c, 3, 49, 88
7, 54538, Note_off_c, 3, 49, 0
7, 54540, Note_on_c, 3, 48, 88
7, 54598, Note_off_c, 3, 48, 0
7, 54600, Note_on_c, 3, 46, 88
7, 54658, Note_off_c, 3, 46, 0
7, 54660, Note_on_c, 3, 45, 88
7, 54718, Note_off_c, 3, 45, 0
7, 54720, Note_on_c, 3, 46, 88
7, 54836, Note_off_c, 3, 46, 0
7, 54840, Note_on_c, 3, 48, 88
7, 54956, Note_off_c, 3, 48, 0
7, 54960, Note_on_c, 3, 50, 88
7, 55076, Note_off_c, 3, 50, 0
7, 55080, Note_on_c, 3, 46, 88
7, 55196, Note_off_c, 3, 46, 0
7, 55200, Note_on_c, 3, 51, 88
7, 55316, Note_off_c, 3, 51, 0
7, 55320, Note_on_c, 3, 53, 88
7, 55436, Note_off_c, 3, 53, 0
7, 55440, Note_on_c, 3, 55, 88
7, 55556, Note_off_c, 3, 55, 0
7, 55560, Note_on_c, 3, 51, 88
7, 55676, Note_off_c, 3, 51, 0
7, 55680, Note_on_c, 3, 56, 88
7, 55796, Note_off_c, 3, 56, 0
7, 55800, Note_on_c, 3, 58, 88
7, 55916, Note_off_c, 3, 58, 0
7, 55920, Note_on_c, 3, 60, 88
7, 56036, Note_off_c, 3, 60, 0
7, 56040, Note_on_c, 3, 56, 88
7, 56156, Note_off_c, 3, 56, 0
7, 56160, Note_on_c, 3, 61, 88
7, 56276, Note_off_c, 3, 61, 0
7, 56280, Note_on_c, 3, 63, 88
7, 56396, Note_off_c, 3, 63, 0
7, 56400, Note_on_c, 3, 65, 88
7, 56516, Note_off_c, 3, 65, 0
7, 56520, Note_on_c, 3, 61, 88
7, 56636, Note_off_c, 3, 61, 0
7, 56640, Note_on_c, 3, 66, 88
7, 56874, Note_off_c, 3, 66, 0
7, 56940, Note_on_c, 3, 65, 88
7, 56998, Note_off_c, 3, 65, 0
7, 57000, Note_on_c, 3, 63, 88
7, 57058, Note_off_c, 3, 63, 0
7, 57060, Note_on_c, 3, 61, 88
7, 57118, Note_off_c, 3, 61, 0
7, 57120, Note_on_c, 3, 60, 88
7, 57178, Note_off_c, 3, 60, 0
7, 57180, Note_on_c, 3, 58, 88
7, 57238, Note_off_c, 3, 58, 0
7, 57240, Note_on_c, 3, 60, 88
7, 57298, Note_off_c, 3, 60, 0
7, 57300, Note_on_c, 3, 63, 88
7, 57358, Note_off_c, 3, 63, 0
7, 57360, Note_on_c, 3, 62, 88
7, 57418, Note_off_c, 3, 62, 0
7, 57420, Note_on_c, 3, 60, 88
7, 57478, Note_off_c, 3, 60, 0
7, 57480, Note_on_c, 3, 62, 88
7, 57538, Note_off_c, 3, 62, 0
7, 57540, Note_on_c, 3, 65, 88
7, 57598, Note_off_c, 3, 65, 0
7, 57600, Note_on_c, 3, 65, 88
7, 57716, Note_off_c, 3, 65, 0
7, 57720, Note_on_c, 3, 63, 88
7, 57836, Note_off_c, 3, 63, 0
7, 57900, Note_on_c, 3, 61, 88
7, 57958, Note_off_c, 3, 61, 0
7, 57960, Note_on_c, 3, 59, 88
7, 58018, Note_off_c, 3, 59, 0
7, 58020, Note_on_c, 3, 58, 88
7, 58078, Note_off_c, 3, 58, 0
7, 58080, Note_on_c, 3, 56, 88
7, 58138, Note_off_c, 3, 56, 0
7, 58140, Note_on_c, 3, 55, 88
7, 58198, Note_off_c, 3, 55, 0
7, 58200, Note_on_c, 3, 56, 88
7, 58258, Note_off_c, 3, 56, 0
7, 58260, Note_on_c, 3, 59, 88
7, 58318, Note_off_c, 3, 59, 0
7, 58320, Note_on_c, 3, 58, 88
7, 58378, Note_off_c, 3, 58, 0
7, 58380, Note_on_c, 3, 56, 88
7, 58438, Note_off_c, 3, 56, 0
7, 58440, Note_on_c, 3, 58, 88
7, 58498, Note_off_c, 3, 58, 0
7, 58500, Note_on_c, 3, 61, 88
7, 58558, Note_off_c, 3, 61, 0
7, 58560, Note_on_c, 3, 61, 88
7, 58676, Note_off_c, 3, 61, 0
7, 58680, Note_on_c, 3, 59, 88
7, 58796, Note_off_c, 3, 59, 0
7, 58860, Note_on_c, 3, 58, 88
7, 58918, Note_off_c, 3, 58, 0
7, 58920, Note_on_c, 3, 56, 88
7, 58978, Note_off_c, 3, 56, 0
7, 58980, Note_on_c, 3, 54, 88
7, 59038, Note_off_c, 3, 54, 0
7, 59040, Note_on_c, 3, 53, 88
7, 59098, Note_off_c, 3, 53, 0
7, 59100, Note_on_c, 3, 51, 88
7, 59158, Note_off_c, 3, 51, 0
7, 59160, Note_on_c, 3, 53, 88
7, 59218, Note_off_c, 3, 53, 0
7, 59220, Note_on_c, 3, 56, 88
7, 59278, Note_off_c, 3, 56, 0
7, 59280, Note_on_c, 3, 55, 88
7, 59338, Note_off_c, 3, 55, 0
7, 59340, Note_on_c, 3, 53, 88
7, 59398, Note_off_c, 3, 53, 0
7, 59400, Note_on_c, 3, 55, 88
7, 59458, Note_off_c, 3, 55, 0
7, 59460, Note_on_c, 3, 58, 88
7, 59518, Note_off_c, 3, 58, 0
7, 59520, Note_on_c, 3, 51, 88
7, 59578, Note_off_c, 3, 51, 0
7, 59580, Note_on_c, 3, 50, 88
7, 59638, Note_off_c, 3, 50, 0
7, 59640, Note_on_c, 3, 51, 88
7, 59698, Note_off_c, 3, 51, 0
7, 59700, Note_on_c, 3, 54, 88
7, 59758, Note_off_c, 3, 54, 0
7, 59760, Note_on_c, 3, 52, 88
7, 59818, Note_off_c, 3, 52, 0
7, 59820, Note_on_c, 3, 51, 88
7, 59878, Note_off_c, 3, 51, 0
7, 59880, Note_on_c, 3, 52, 88
7, 59938, Note_off_c, 3, 52, 0
7, 59940, Note_on_c, 3, 56, 88
7, 59998, Note_off_c, 3, 56, 0
7, 60000, Note_on_c, 3, 50, 88
7, 60058, Note_off_c, 3, 50, 0
7, 60060, Note_on_c, 3, 48, 88
7, 60118, Note_off_c, 3, 48, 0
7, 60120, Note_on_c, 3, 50, 88
7, 60178, Note_off_c, 3, 50, 0
7, 60180, Note_on_c, 3, 53, 88
7, 60238, Note_off_c, 3, 53, 0
7, 60240, Note_on_c, 3, 51, 88
7, 60298, Note_off_c, 3, 51, 0
7, 60300, Note_on_c, 3, 50, 88
7, 60358, Note_off_c, 3, 50, 0
7, 60360, Note_on_c, 3, 51, 88
7, 60418, Note_off_c, 3, 51, 0
7, 60420, Note_on_c, 3, 54, 88
7, 60478, Note_off_c, 3, 54, 0
7, 60480, Note_on_c, 3, 48, 88
7, 60538, Note_off_c, 3, 48, 0
7, 60540, Note_on_c, 3, 46, 88
7, 60598, Note_off_c, 3, 46, 0
7, 60600, Note_on_c, 3, 48, 88
7, 60658, Note_off_c, 3, 48, 0
7, 60660, Note_on_c, 3, 51, 88
7, 60718, Note_off_c, 3, 51, 0
7, 60720, Note_on_c, 3, 49, 88
7, 60778, Note_off_c, 3, 49, 0
7, 60780, Note_on_c, 3, 48, 88
7, 60838, Note_off_c, 3, 48, 0
7, 60840, Note_on_c, 3, 49, 88
7, 60898, Note_off_c, 3, 49, 0
7, 60900, Note_on_c, 3, 52, 88
7, 60958, Note_off_c, 3, 52, 0
7, 60960, Note_on_c, 3, 46, 88
7, 61018, Note_off_c, 3, 46, 0
7, 61020, Note_on_c, 3, 47, 88
7, 61078, Note_off_c, 3, 47, 0
7, 61080, Note_on_c, 3, 49, 88
7, 61138, Note_off_c, 3, 49, 0
7, 61140, Note_on_c, 3, 47, 88
7, 61198, Note_off_c, 3, 47, 0
7, 61200, Note_on_c, 3, 49, 88
7, 61258, Note_off_c, 3, 49, 0
7, 61260, Note_on_c, 3, 55, 88
7, 61318, Note_off_c, 3, 55, 0
7, 61320, Note_on_c, 3, 58, 88
7, 61378, Note_off_c, 3, 58, 0
7, 61380, Note_on_c, 3, 49, 88
7, 61438, Note_off_c, 3, 49, 0
7, 61440, Note_on_c, 3, 47, 88
7, 61498, Note_off_c, 3, 47, 0
7, 61500, Note_on_c, 3, 46, 88
7, 61558, Note_off_c, 3, 46, 0
7, 61560, Note_on_c, 3, 44, 88
7, 61618, Note_off_c, 3, 44, 0
7, 61620, Note_on_c, 3, 46, 88
7, 61678, Note_off_c, 3, 46, 0
7, 61680, Note_on_c, 3, 47, 88
7, 61738, Note_off_c, 3, 47, 0
7, 61740, Note_on_c, 3, 49, 88
7, 61798, Note_off_c, 3, 49, 0
7, 61800, Note_on_c, 3, 51, 88
7, 61858, Note_off_c, 3, 51, 0
7, 61860, Note_on_c, 3, 52, 88
7, 61913, Note_off_c, 3, 52, 0
7, 61920, Note_on_c, 3, 52, 88
7, 62036, Note_off_c, 3, 52, 0
7, 62040, Note_on_c, 3, 43, 88
7, 62156, Note_off_c, 3, 43, 0
7, 62220, Note_on_c, 3, 61, 88
7, 62278, Note_off_c, 3, 61, 0
7, 62280, Note_on_c, 3, 59, 88
7, 62338, Note_off_c, 3, 59, 0
7, 62340, Note_on_c, 3, 58, 88
7, 62398, Note_off_c, 3, 58, 0
7, 62400, Note_on_c, 3, 56, 88
7, 62458, Note_off_c, 3, 56, 0
7, 62460, Note_on_c, 3, 63, 88
7, 62518, Note_off_c, 3, 63, 0
7, 62520, Note_on_c, 3, 56, 88
7, 62578, Note_off_c, 3, 56, 0
7, 62580, Note_on_c, 3, 63, 88
7, 62638, Note_off_c, 3, 63, 0
7, 62640, Note_on_c, 3, 55, 88
7, 62698, Note_off_c, 3, 55, 0
7, 62700, Note_on_c, 3, 63, 88
7, 62758, Note_off_c, 3, 63, 0
7, 62760, Note_on_c, 3, 55, 88
7, 62818, Note_off_c, 3, 55, 0
7, 62820, Note_on_c, 3, 63, 88
7, 62878, Note_off_c, 3, 63, 0
7, 62880, Note_on_c, 3, 56, 88
7, 62938, Note_off_c, 3, 56, 0
7, 62940, Note_on_c, 3, 63, 88
7, 62998, Note_off_c, 3, 63, 0
7, 63000, Note_on_c, 3, 56, 88
7, 63058, Note_off_c, 3, 56, 0
7, 63060, Note_on_c, 3, 63, 88
7, 63118, Note_off_c, 3, 63, 0
7, 63120, Note_on_c, 3, 51, 88
7, 63178, Note_off_c, 3, 51, 0
7, 63180, Note_on_c, 3, 63, 88
7, 63238, Note_off_c, 3, 63, 0
7, 63240, Note_on_c, 3, 51, 88
7, 63298, Note_off_c, 3, 51, 0
7, 63300, Note_on_c, 3, 63, 88
7, 63358, Note_off_c, 3, 63, 0
7, 63360, Note_on_c, 3, 56, 88
7, 63418, Note_off_c, 3, 56, 0
7, 63420, Note_on_c, 3, 58, 88
7, 63478, Note_off_c, 3, 58, 0
7, 63480, Note_on_c, 3, 59, 88
7, 63538, Note_off_c, 3, 59, 0
7, 63540, Note_on_c, 3, 61, 88
7, 63598, Note_off_c, 3, 61, 0
7, 63600, Note_on_c, 3, 63, 88
7, 63658, Note_off_c, 3, 63, 0
7, 63660, Note_on_c, 3, 59, 88
7, 63718, Note_off_c, 3, 59, 0
7, 63720, Note_on_c, 3, 58, 88
7, 63778, Note_off_c, 3, 58, 0
7, 63780, Note_on_c, 3, 56, 88
7, 63838, Note_off_c, 3, 56, 0
7, 63840, Note_on_c, 3, 55, 88
7, 63898, Note_off_c, 3, 55, 0
7, 63900, Note_on_c, 3, 56, 88
7, 63958, Note_off_c, 3, 56, 0
7, 63960, Note_on_c, 3, 58, 88
7, 64018, Note_off_c, 3, 58, 0
7, 64020, Note_on_c, 3, 52, 88
7, 64078, Note_off_c, 3, 52, 0
7, 64080, Note_on_c, 3, 51, 88
7, 64138, Note_off_c, 3, 51, 0
7, 64140, Note_on_c, 3, 49, 88
7, 64198, Note_off_c, 3, 49, 0
7, 64200, Note_on_c, 3, 47, 88
7, 64258, Note_off_c, 3, 47, 0
7, 64260, Note_on_c, 3, 46, 88
7, 64318, Note_off_c, 3, 46, 0
7, 64320, Note_on_c, 3, 44, 88
7, 64378, Note_off_c, 3, 44, 0
7, 64380, Note_on_c, 3, 56, 88
7, 64438, Note_off_c, 3, 56, 0
7, 64440, Note_on_c, 3, 44, 88
7, 64498, Note_off_c, 3, 44, 0
7, 64500, Note_on_c, 3, 56, 88
7, 64558, Note_off_c, 3, 56, 0
7, 64560, Note_on_c, 3, 54, 88
7, 64618, Note_off_c, 3, 54, 0
7, 64620, Note_on_c, 3, 63, 88
7, 64678, Note_off_c, 3, 63, 0
7, 64680, Note_on_c, 3, 54, 88
7, 64738, Note_off_c, 3, 54, 0
7, 64740, Note_on_c, 3, 63, 88
7, 64798, Note_off_c, 3, 63, 0
7, 64800, Note_on_c, 3, 52, 88
7, 64858, Note_off_c, 3, 52, 0
7, 64860, Note_on_c, 3, 61, 88
7, 64918, Note_off_c, 3, 61, 0
7, 64920, Note_on_c, 3, 52, 88
7, 64978, Note_off_c, 3, 52, 0
7, 64980, Note_on_c, 3, 61, 88
7, 65038, Note_off_c, 3, 61, 0
7, 65040, Note_on_c, 3, 51, 88
7, 65098, Note_off_c, 3, 51, 0
7, 65100, Note_on_c, 3, 60, 88
7, 65158, Note_off_c, 3, 60, 0
7, 65160, Note_on_c, 3, 51, 88
7, 65218, Note_off_c, 3, 51, 0
7, 65220, Note_on_c, 3, 60, 88
7, 65278, Note_off_c, 3, 60, 0
7, 65280, Note_on_c, 3, 49, 88
7, 65338, Note_off_c, 3, 49, 0
7, 65340, Note_on_c, 3, 61, 88
7, 65398, Note_off_c, 3, 61, 0
7, 65400, Note_on_c, 3, 49, 88
7, 65458, Note_off_c, 3, 49, 0
7, 65460, Note_on_c, 3, 61, 88
7, 65518, Note_off_c, 3, 61, 0
7, 65520, Note_on_c, 3, 59, 88
7, 65578, Note_off_c, 3, 59, 0
7, 65580, Note_on_c, 3, 68, 88
7, 65638, Note_off_c, 3, 68, 0
7, 65640, Note_on_c, 3, 59, 88
7, 65698, Note_off_c, 3, 59, 0
7, 65700, Note_on_c, 3, 68, 88
7, 65758, Note_off_c, 3, 68, 0
7, 65760, Note_on_c, 3, 58, 88
7, 65818, Note_off_c, 3, 58, 0
7, 65820, Note_on_c, 3, 67, 88
7, 65878, Note_off_c, 3, 67, 0
7, 65880, Note_on_c, 3, 58, 88
7, 65938, Note_off_c, 3, 58, 0
7, 65940, Note_on_c, 3, 67, 88
7, 65998, Note_off_c, 3, 67, 0
7, 66000, Note_on_c, 3, 56, 88
7, 66058, Note_off_c, 3, 56, 0
7, 66060, Note_on_c, 3, 68, 88
7, 66118, Note_off_c, 3, 68, 0
7, 66120, Note_on_c, 3, 56, 88
7, 66178, Note_off_c, 3, 56, 0
7, 66180, Note_on_c, 3, 68, 88
7, 66238, Note_off_c, 3, 68, 0
7, 66240, Note_on_c, 3, 67, 88
7, 66298, Note_off_c, 3, 67, 0
7, 66300, Note_on_c, 3, 68, 88
7, 66358, Note_off_c, 3, 68, 0
7, 66360, Note_on_c, 3, 70, 88
7, 66418, Note_off_c, 3, 70, 0
7, 66420, Note_on_c, 3, 64, 88
7, 66478, Note_off_c, 3, 64, 0
7, 66480, Note_on_c, 3, 63, 88
7, 66538, Note_off_c, 3, 63, 0
7, 66540, Note_on_c, 3, 61, 88
7, 66598, Note_off_c, 3, 61, 0
7, 66600, Note_on_c, 3, 59, 88
7, 66658, Note_off_c, 3, 59, 0
7, 66660, Note_on_c, 3, 58, 88
7, 66718, Note_off_c, 3, 58, 0
7, 66720, Note_on_c, 3, 56, 88
7, 66836, Note_off_c, 3, 56, 0
7, 66840, Note_on_c, 3, 59, 88
7, 66956, Note_off_c, 3, 59, 0
7, 66960, Note_on_c, 3, 61, 88
7, 67076, Note_off_c, 3, 61, 0
7, 67080, Note_on_c, 3, 63, 88
7, 67196, Note_off_c, 3, 63, 0
7, 67200, Note_on_c, 3, 64, 88
7, 67316, Note_off_c, 3, 64, 0
7, 67320, Note_on_c, 3, 52, 88
7, 67436, Note_off_c, 3, 52, 0
7, 67560, Note_on_c, 3, 48, 88
7, 67560, Note_on_c, 3, 51, 88
7, 67676, Note_off_c, 3, 48, 0
7, 67676, Note_off_c, 3, 51, 0
7, 67800, Note_on_c, 3, 49, 88
7, 67858, Note_off_c, 3, 49, 0
7, 67860, Note_on_c, 3, 51, 88
7, 67918, Note_off_c, 3, 51, 0
7, 67920, Note_on_c, 3, 53, 88
7, 68033, Note_off_c, 3, 53, 0
7, 68040, Note_on_c, 3, 53, 88
7, 68156, Note_off_c, 3, 53, 0
7, 68160, Note_on_c, 3, 52, 88
7, 68276, Note_off_c, 3, 52, 0
7, 68280, Note_on_c, 3, 42, 88
7, 68396, Note_off_c, 3, 42, 0
7, 68520, Note_on_c, 3, 46, 88
7, 68520, Note_on_c, 3, 49, 88
7, 68636, Note_off_c, 3, 46, 0
7, 68636, Note_off_c, 3, 49, 0
7, 68760, Note_on_c, 3, 47, 88
7, 68818, Note_off_c, 3, 47, 0
7, 68820, Note_on_c, 3, 49, 88
7, 68878, Note_off_c, 3, 49, 0
7, 68880, Note_on_c, 3, 51, 88
7, 68993, Note_off_c, 3, 51, 0
7, 69000, Note_on_c, 3, 51, 88
7, 69116, Note_off_c, 3, 51, 0
7, 69120, Note_on_c, 3, 51, 88
7, 69236, Note_off_c, 3, 51, 0
7, 69240, Note_on_c, 3, 40, 88
7, 69356, Note_off_c, 3, 40, 0
7, 69480, Note_on_c, 3, 44, 88
7, 69480, Note_on_c, 3, 47, 88
7, 69596, Note_off_c, 3, 44, 0
7, 69596, Note_off_c, 3, 47, 0
7, 69720, Note_on_c, 3, 46, 88
7, 69778, Note_off_c, 3, 46, 0
7, 69780, Note_on_c, 3, 48, 88
7, 69838, Note_off_c, 3, 48, 0
7, 69840, Note_on_c, 3, 50, 88
7, 69956, Note_off_c, 3, 50, 0
7, 69960, Note_on_c, 3, 49, 88
7, 70196, Note_off_c, 3, 49, 0
7, 70200, Note_on_c, 3, 47, 88
7, 70258, Note_off_c, 3, 47, 0
7, 70260, Note_on_c, 3, 49, 88
7, 70318, Note_off_c, 3, 49, 0
7, 70320, Note_on_c, 3, 51, 88
7, 70436, Note_off_c, 3, 51, 0
7, 70440, Note_on_c, 3, 39, 88
7, 70556, Note_off_c, 3, 39, 0
7, 70560, Note_on_c, 3, 44, 88
7, 70735, Note_off_c, 3, 44, 0
7, 70740, Note_on_c, 3, 47, 88
7, 70769, Note_off_c, 3, 47, 0
7, 70770, Note_on_c, 3, 51, 88
7, 70799, Note_off_c, 3, 51, 0
7, 70800, Note_on_c, 3, 56, 88
7, 71034, Note_off_c, 3, 56, 0
7, 71160, Note_on_c, 3, 51, 88
7, 71218, Note_off_c, 3, 51, 0
7, 71220, Note_on_c, 3, 53, 88
7, 71278, Note_off_c, 3, 53, 0
7, 71280, Note_on_c, 3, 55, 88
7, 71396, Note_off_c, 3, 55, 0
7, 71400, Note_on_c, 3, 58, 88
7, 71516, Note_off_c, 3, 58, 0
7, 71520, Note_on_c, 3, 63, 88
7, 71636, Note_off_c, 3, 63, 0
7, 71640, Note_on_c, 3, 61, 88
7, 71756, Note_off_c, 3, 61, 0
7, 71760, Note_on_c, 3, 60, 88
7, 71876, Note_off_c, 3, 60, 0
7, 71880, Note_on_c, 3, 56, 88
7, 71996, Note_off_c, 3, 56, 0
7, 72000, Note_on_c, 3, 61, 88
7, 72116, Note_off_c, 3, 61, 0
7, 72120, Note_on_c, 3, 49, 88
7, 72236, Note_off_c, 3, 49, 0
7, 72240, Note_on_c, 3, 47, 88
7, 72356, Note_off_c, 3, 47, 0
7, 72360, Note_on_c, 3, 59, 88
7, 72476, Note_off_c, 3, 59, 0
7, 72480, Note_on_c, 3, 57, 88
7, 72596, Note_off_c, 3, 57, 0
7, 72600, Note_on_c, 3, 45, 88
7, 72716, Note_off_c, 3, 45, 0
7, 72720, Note_on_c, 3, 44, 88
7, 72836, Note_off_c, 3, 44, 0
7, 72840, Note_on_c, 3, 56, 88
7, 72956, Note_off_c, 3, 56, 0
7, 72960, Note_on_c, 3, 54, 88
7, 73076, Note_off_c, 3, 54, 0
7, 73080, Note_on_c, 3, 42, 88
7, 73196, Note_off_c, 3, 42, 0
7, 73200, Note_on_c, 3, 49, 88
7, 73316, Note_off_c, 3, 49, 0
7, 73320, Note_on_c, 3, 52, 88
7, 73436, Note_off_c, 3, 52, 0
7, 73440, Note_on_c, 3, 46, 88
7, 73556, Note_off_c, 3, 46, 0
7, 73560, Note_on_c, 3, 49, 88
7, 73676, Note_off_c, 3, 49, 0
7, 73680, Note_on_c, 3, 43, 88
7, 73796, Note_off_c, 3, 43, 0
7, 73800, Note_on_c, 3, 51, 88
7, 73916, Note_off_c, 3, 51, 0
7, 73920, Note_on_c, 3, 56, 88
7, 74036, Note_off_c, 3, 56, 0
7, 74040, Note_on_c, 3, 44, 88
7, 74156, Note_off_c, 3, 44, 0
7, 74160, Note_on_c, 3, 42, 88
7, 74276, Note_off_c, 3, 42, 0
7, 74280, Note_on_c, 3, 54, 88
7, 74396, Note_off_c, 3, 54, 0
7, 74400, Note_on_c, 3, 52, 88
7, 74516, Note_off_c, 3, 52, 0
7, 74520, Note_on_c, 3, 40, 88
7, 74636, Note_off_c, 3, 40, 0
7, 74640, Note_on_c, 3, 39, 88
7, 74756, Note_off_c, 3, 39, 0
7, 74760, Note_on_c, 3, 51, 88
7, 74876, Note_off_c, 3, 51, 0
7, 74880, Note_on_c, 3, 49, 88
7, 74996, Note_off_c, 3, 49, 0
7, 75000, Note_on_c, 3, 37, 88
7, 75116, Note_off_c, 3, 37, 0
7, 75180, Note_on_c, 3, 61, 88
7, 75238, Note_off_c, 3, 61, 0
7, 75240, Note_on_c, 3, 63, 88
7, 75298, Note_off_c, 3, 63, 0
7, 75300, Note_on_c, 3, 65, 88
7, 75358, Note_off_c, 3, 65, 0
7, 75360, Note_on_c, 3, 66, 88
7, 75476, Note_off_c, 3, 66, 0
7, 75480, Note_on_c, 3, 54, 88
7, 75596, Note_off_c, 3, 54, 0
7, 75660, Note_on_c, 3, 54, 88
7, 75718, Note_off_c, 3, 54, 0
7, 75720, Note_on_c, 3, 56, 88
7, 75778, Note_off_c, 3, 56, 0
7, 75780, Note_on_c, 3, 58, 88
7, 75838, Note_off_c, 3, 58, 0
7, 75840, Note_on_c, 3, 59, 88
7, 75956, Note_off_c, 3, 59, 0
7, 75960, Note_on_c, 3, 47, 88
7, 76076, Note_off_c, 3, 47, 0
7, 76140, Note_on_c, 3, 47, 88
7, 76198, Note_off_c, 3, 47, 0
7, 76200, Note_on_c, 3, 49, 88
7, 76258, Note_off_c, 3, 49, 0
7, 76260, Note_on_c, 3, 51, 88
7, 76318, Note_off_c, 3, 51, 0
7, 76320, Note_on_c, 3, 52, 88
7, 76436, Note_off_c, 3, 52, 0
7, 76440, Note_on_c, 3, 40, 88
7, 76556, Note_off_c, 3, 40, 0
7, 76620, Note_on_c, 3, 40, 88
7, 76678, Note_off_c, 3, 40, 0
7, 76680, Note_on_c, 3, 42, 88
7, 76738, Note_off_c, 3, 42, 0
7, 76740, Note_on_c, 3, 44, 88
7, 76798, Note_off_c, 3, 44, 0
7, 76800, Note_on_c, 3, 45, 88
7, 76858, Note_off_c, 3, 45, 0
7, 76860, Note_on_c, 3, 52, 88
7, 76918, Note_off_c, 3, 52, 0
7, 76920, Note_on_c, 3, 45, 88
7, 76978, Note_off_c, 3, 45, 0
7, 76980, Note_on_c, 3, 52, 88
7, 77038, Note_off_c, 3, 52, 0
7, 77040, Note_on_c, 3, 44, 88
7, 77098, Note_off_c, 3, 44, 0
7, 77100, Note_on_c, 3, 52, 88
7, 77158, Note_off_c, 3, 52, 0
7, 77160, Note_on_c, 3, 44, 88
7, 77218, Note_off_c, 3, 44, 0
7, 77220, Note_on_c, 3, 52, 88
7, 77278, Note_off_c, 3, 52, 0
7, 77280, Note_on_c, 3, 45, 88
7, 77338, Note_off_c, 3, 45, 0
7, 77340, Note_on_c, 3, 52, 88
7, 77398, Note_off_c, 3, 52, 0
7, 77400, Note_on_c, 3, 45, 88
7, 77458, Note_off_c, 3, 45, 0
7, 77460, Note_on_c, 3, 52, 88
7, 77518, Note_off_c, 3, 52, 0
7, 77520, Note_on_c, 3, 41, 88
7, 77578, Note_off_c, 3, 41, 0
7, 77580, Note_on_c, 3, 50, 88
7, 77638, Note_off_c, 3, 50, 0
7, 77640, Note_on_c, 3, 41, 88
7, 77698, Note_off_c, 3, 41, 0
7, 77700, Note_on_c, 3, 50, 88
7, 77758, Note_off_c, 3, 50, 0
7, 77760, Note_on_c, 3, 42, 88
7, 77818, Note_off_c, 3, 42, 0
7, 77820, Note_on_c, 3, 49, 88
7, 77878, Note_off_c, 3, 49, 0
7, 77880, Note_on_c, 3, 42, 88
7, 77938, Note_off_c, 3, 42, 0
7, 77940, Note_on_c, 3, 49, 88
7, 77998, Note_off_c, 3, 49, 0
7, 78000, Note_on_c, 3, 40, 88
7, 78058, Note_off_c, 3, 40, 0
7, 78060, Note_on_c, 3, 49, 88
7, 78118, Note_off_c, 3, 49, 0
7, 78120, Note_on_c, 3, 40, 88
7, 78178, Note_off_c, 3, 40, 0
7, 78180, Note_on_c, 3, 49, 88
7, 78238, Note_off_c, 3, 49, 0
7, 78240, Note_on_c, 3, 39, 88
7, 78298, Note_off_c, 3, 39, 0
7, 78300, Note_on_c, 3, 43, 88
7, 78358, Note_off_c, 3, 43, 0
7, 78360, Note_on_c, 3, 46, 88
7, 78418, Note_off_c, 3, 46, 0
7, 78420, Note_on_c, 3, 49, 88
7, 78478, Note_off_c, 3, 49, 0
7, 78480, Note_on_c, 3, 47, 88
7, 78538, Note_off_c, 3, 47, 0
7, 78540, Note_on_c, 3, 46, 88
7, 78598, Note_off_c, 3, 46, 0
7, 78600, Note_on_c, 3, 44, 88
7, 78658, Note_off_c, 3, 44, 0
7, 78660, Note_on_c, 3, 43, 88
7, 78718, Note_off_c, 3, 43, 0
7, 78720, Note_on_c, 3, 44, 88
7, 78778, Note_off_c, 3, 44, 0
7, 78780, Note_on_c, 3, 51, 88
7, 78838, Note_off_c, 3, 51, 0
7, 78840, Note_on_c, 3, 44, 88
7, 78898, Note_off_c, 3, 44, 0
7, 78900, Note_on_c, 3, 51, 88
7, 78958, Note_off_c, 3, 51, 0
7, 78960, Note_on_c, 3, 42, 88
7, 79018, Note_off_c, 3, 42, 0
7, 79020, Note_on_c, 3, 51, 88
7, 79078, Note_off_c, 3, 51, 0
7, 79080, Note_on_c, 3, 42, 88
7, 79138, Note_off_c, 3, 42, 0
7, 79140, Note_on_c, 3, 51, 88
7, 79198, Note_off_c, 3, 51, 0
7, 79200, Note_on_c, 3, 41, 88
7, 79258, Note_off_c, 3, 41, 0
7, 79260, Note_on_c, 3, 45, 88
7, 79318, Note_off_c, 3, 45, 0
7, 79320, Note_on_c, 3, 48, 88
7, 79378, Note_off_c, 3, 48, 0
7, 79380, Note_on_c, 3, 51, 88
7, 79438, Note_off_c, 3, 51, 0
7, 79440, Note_on_c, 3, 49, 88
7, 79498, Note_off_c, 3, 49, 0
7, 79500, Note_on_c, 3, 48, 88
7, 79558, Note_off_c, 3, 48, 0
7, 79560, Note_on_c, 3, 46, 88
7, 79618, Note_off_c, 3, 46, 0
7, 79620, Note_on_c, 3, 45, 88
7, 79678, Note_off_c, 3, 45, 0
7, 79680, Note_on_c, 3, 46, 88
7, 79796, Note_off_c, 3, 46, 0
7, 79800, Note_on_c, 3, 48, 88
7, 79916, Note_off_c, 3, 48, 0
7, 79920, Note_on_c, 3, 50, 88
7, 80036, Note_off_c, 3, 50, 0
7, 80040, Note_on_c, 3, 46, 88
7, 80156, Note_off_c, 3, 46, 0
7, 80160, Note_on_c, 3, 51, 88
7, 80276, Note_off_c, 3, 51, 0
7, 80280, Note_on_c, 3, 53, 88
7, 80396, Note_off_c, 3, 53, 0
7, 80400, Note_on_c, 3, 55, 88
7, 80516, Note_off_c, 3, 55, 0
7, 80520, Note_on_c, 3, 51, 88
7, 80636, Note_off_c, 3, 51, 0
7, 80640, Note_on_c, 3, 56, 88
7, 80756, Note_off_c, 3, 56, 0
7, 80760, Note_on_c, 3, 58, 88
7, 80876, Note_off_c, 3, 58, 0
7, 80880, Note_on_c, 3, 60, 88
7, 80996, Note_off_c, 3, 60, 0
7, 81000, Note_on_c, 3, 56, 88
7, 81116, Note_off_c, 3, 56, 0
7, 81120, Note_on_c, 3, 61, 88
7, 81236, Note_off_c, 3, 61, 0
7, 81240, Note_on_c, 3, 63, 88
7, 81356, Note_off_c, 3, 63, 0
7, 81360, Note_on_c, 3, 65, 88
7, 81476, Note_off_c, 3, 65, 0
7, 81480, Note_on_c, 3, 61, 88
7, 81596, Note_off_c, 3, 61, 0
7, 81600, Note_on_c, 3, 66, 88
7, 81834, Note_off_c, 3, 66, 0
7, 81900, Note_on_c, 3, 65, 88
7, 81958, Note_off_c, 3, 65, 0
7, 81960, Note_on_c, 3, 63, 88
7, 82018, Note_off_c, 3, 63, 0
7, 82020, Note_on_c, 3, 61, 88
7, 82078, Note_off_c, 3, 61, 0
7, 82080, Note_on_c, 3, 60, 88
7, 82138, Note_off_c, 3, 60, 0
7, 82140, Note_on_c, 3, 58, 88
7, 82198, Note_off_c, 3, 58, 0
7, 82200, Note_on_c, 3, 60, 88
7, 82258, Note_off_c, 3, 60, 0
7, 82260, Note_on_c, 3, 63, 88
7, 82318, Note_off_c, 3, 63, 0
7, 82320, Note_on_c, 3, 62, 88
7, 82378, Note_off_c, 3, 62, 0
7, 82380, Note_on_c, 3, 60, 88
7, 82438, Note_off_c, 3, 60, 0
7, 82440, Note_on_c, 3, 62, 88
7, 82498, Note_off_c, 3, 62, 0
7, 82500, Note_on_c, 3, 65, 88
7, 82558, Note_off_c, 3, 65, 0
7, 82560, Note_on_c, 3, 65, 88
7, 82676, Note_off_c, 3, 65, 0
7, 82680, Note_on_c, 3, 63, 88
7, 82796, Note_off_c, 3, 63, 0
7, 82860, Note_on_c, 3, 61, 88
7, 82918, Note_off_c, 3, 61, 0
7, 82920, Note_on_c, 3, 59, 88
7, 82978, Note_off_c, 3, 59, 0
7, 82980, Note_on_c, 3, 58, 88
7, 83038, Note_off_c, 3, 58, 0
7, 83040, Note_on_c, 3, 56, 88
7, 83098, Note_off_c, 3, 56, 0
7, 83100, Note_on_c, 3, 55, 88
7, 83158, Note_off_c, 3, 55, 0
7, 83160, Note_on_c, 3, 56, 88
7, 83218, Note_off_c, 3, 56, 0
7, 83220, Note_on_c, 3, 59, 88
7, 83278, Note_off_c, 3, 59, 0
7, 83280, Note_on_c, 3, 58, 88
7, 83338, Note_off_c, 3, 58, 0
7, 83340, Note_on_c, 3, 56, 88
7, 83398, Note_off_c, 3, 56, 0
7, 83400, Note_on_c, 3, 58, 88
7, 83458, Note_off_c, 3, 58, 0
7, 83460, Note_on_c, 3, 61, 88
7, 83518, Note_off_c, 3, 61, 0
7, 83520, Note_on_c, 3, 61, 88
7, 83636, Note_off_c, 3, 61, 0
7, 83640, Note_on_c, 3, 59, 88
7, 83756, Note_off_c, 3, 59, 0
7, 83820, Note_on_c, 3, 58, 88
7, 83878, Note_off_c, 3, 58, 0
7, 83880, Note_on_c, 3, 56, 88
7, 83938, Note_off_c, 3, 56, 0
7, 83940, Note_on_c, 3, 54, 88
7, 83998, Note_off_c, 3, 54, 0
7, 84000, Note_on_c, 3, 53, 88
7, 84058, Note_off_c, 3, 53, 0
7, 84060, Note_on_c, 3, 51, 88
7, 84118, Note_off_c, 3, 51, 0
7, 84120, Note_on_c, 3, 53, 88
7, 84178, Note_off_c, 3, 53, 0
7, 84180, Note_on_c, 3, 56, 88
7, 84238, Note_off_c, 3, 56, 0
7, 84240, Note_on_c, 3, 55, 88
7, 84298, Note_off_c, 3, 55, 0
7, 84300, Note_on_c, 3, 53, 88
7, 84358, Note_off_c, 3, 53, 0
7, 84360, Note_on_c, 3, 55, 88
7, 84418, Note_off_c, 3, 55, 0
7, 84420, Note_on_c, 3, 58, 88
7, 84478, Note_off_c, 3, 58, 0
7, 84480, Note_on_c, 3, 51, 88
7, 84538, Note_off_c, 3, 51, 0
7, 84540, Note_on_c, 3, 50, 88
7, 84598, Note_off_c, 3, 50, 0
7, 84600, Note_on_c, 3, 51, 88
7, 84658, Note_off_c, 3, 51, 0
7, 84660, Note_on_c, 3, 54, 88
7, 84718, Note_off_c, 3, 54, 0
7, 84720, Note_on_c, 3, 52, 88
7, 84778, Note_off_c, 3, 52, 0
7, 84780, Note_on_c, 3, 51, 88
7, 84838, Note_off_c, 3, 51, 0
7, 84840, Note_on_c, 3, 52, 88
7, 84898, Note_off_c, 3, 52, 0
7, 84900, Note_on_c, 3, 56, 88
7, 84958, Note_off_c, 3, 56, 0
7, 84960, Note_on_c, 3, 50, 88
7, 85018, Note_off_c, 3, 50, 0
7, 85020, Note_on_c, 3, 48, 88
7, 85078, Note_off_c, 3, 48, 0
7, 85080, Note_on_c, 3, 50, 88
7, 85138, Note_off_c, 3, 50, 0
7, 85140, Note_on_c, 3, 53, 88
7, 85198, Note_off_c, 3, 53, 0
7, 85200, Note_on_c, 3, 51, 88
7, 85258, Note_off_c, 3, 51, 0
7, 85260, Note_on_c, 3, 50, 88
7, 85318, Note_off_c, 3, 50, 0
7, 85320, Note_on_c, 3, 51, 88
7, 85378, Note_off_c, 3, 51, 0
7, 85380, Note_on_c, 3, 54, 88
7, 85438, Note_off_c, 3, 54, 0
7, 85440, Note_on_c, 3, 48, 88
7, 85498, Note_off_c, 3, 48, 0
7, 85500, Note_on_c, 3, 46, 88
7, 85558, Note_off_c, 3, 46, 0
7, 85560, Note_on_c, 3, 48, 88
7, 85618, Note_off_c, 3, 48, 0
7, 85620, Note_on_c, 3, 51, 88
7, 85678, Note_off_c, 3, 51, 0
7, 85680, Note_on_c, 3, 49, 88
7, 85738, Note_off_c, 3, 49, 0
7, 85740, Note_on_c, 3, 48, 88
7, 85798, Note_off_c, 3, 48, 0
7, 85800, Note_on_c, 3, 49, 88
7, 85858, Note_off_c, 3, 49, 0
7, 85860, Note_on_c, 3, 52, 88
7, 85918, Note_off_c, 3, 52, 0
7, 85920, Note_on_c, 3, 46, 88
7, 85978, Note_off_c, 3, 46, 0
7, 85980, Note_on_c, 3, 47, 88
7, 86038, Note_off_c, 3, 47, 0
7, 86040, Note_on_c, 3, 49, 88
7, 86098, Note_off_c, 3, 49, 0
7, 86100, Note_on_c, 3, 47, 88
7, 86158, Note_off_c, 3, 47, 0
7, 86160, Note_on_c, 3, 49, 88
7, 86218, Note_off_c, 3, 49, 0
7, 86220, Note_on_c, 3, 55, 88
7, 86278, Note_off_c, 3, 55, 0
7, 86280, Note_on_c, 3, 58, 88
7, 86338, Note_off_c, 3, 58, 0
7, 86340, Note_on_c, 3, 49, 88
7, 86398, Note_off_c, 3, 49, 0
7, 86400, Note_on_c, 3, 47, 88
7, 86458, Note_off_c, 3, 47, 0
7, 86460, Note_on_c, 3, 46, 88
7, 86518, Note_off_c, 3, 46, 0
7, 86520, Note_on_c, 3, 44, 88
7, 86578, Note_off_c, 3, 44, 0
7, 86580, Note_on_c, 3, 46, 88
7, 86638, Note_off_c, 3, 46, 0
7, 86640, Note_on_c, 3, 47, 88
7, 86698, Note_off_c, 3, 47, 0
7, 86700, Note_on_c, 3, 49, 88
7, 86758, Note_off_c, 3, 49, 0
7, 86760, Note_on_c, 3, 51, 88
7, 86818, Note_off_c, 3, 51, 0
7, 86820, Note_on_c, 3, 52, 88
7, 86873, Note_off_c, 3, 52, 0
7, 86880, Note_on_c, 3, 52, 88
7, 86996, Note_off_c, 3, 52, 0
7, 87000, Note_on_c, 3, 43, 88
7, 87116, Note_off_c, 3, 43, 0
7, 87180, Note_on_c, 3, 61, 88
7, 87238, Note_off_c, 3, 61, 0
7, 87240, Note_on_c, 3, 59, 88
7, 87298, Note_off_c, 3, 59, 0
7, 87300, Note_on_c, 3, 58, 88
7, 87358, Note_off_c, 3, 58, 0
7, 87360, Note_on_c, 3, 56, 88
7, 87418, Note_off_c, 3, 56, 0
7, 87420, Note_on_c, 3, 63, 88
7, 87478, Note_off_c, 3, 63, 0
7, 87480, Note_on_c, 3, 56, 88
7, 87538, Note_off_c, 3, 56, 0
7, 87540, Note_on_c, 3, 63, 88
7, 87598, Note_off_c, 3, 63, 0
7, 87600, Note_on_c, 3, 55, 88
7, 87658, Note_off_c, 3, 55, 0
7, 87660, Note_on_c, 3, 63, 88
7, 87718, Note_off_c, 3, 63, 0
7, 87720, Note_on_c, 3, 55, 88
7, 87778, Note_off_c, 3, 55, 0
7, 87780, Note_on_c, 3, 63, 88
7, 87838, Note_off_c, 3, 63, 0
7, 87840, Note_on_c, 3, 56, 88
7, 87898, Note_off_c, 3, 56, 0
7, 87900, Note_on_c, 3, 63, 88
7, 87958, Note_off_c, 3, 63, 0
7, 87960, Note_on_c, 3, 56, 88
7, 88018, Note_off_c, 3, 56, 0
7, 88020, Note_on_c, 3, 63, 88
7, 88078, Note_off_c, 3, 63, 0
7, 88080, Note_on_c, 3, 51, 88
7, 88138, Note_off_c, 3, 51, 0
7, 88140, Note_on_c, 3, 63, 88
7, 88198, Note_off_c, 3, 63, 0
7, 88200, Note_on_c, 3, 51, 88
7, 88258, Note_off_c, 3, 51, 0
7, 88260, Note_on_c, 3, 63, 88
7, 88318, Note_off_c, 3, 63, 0
7, 88320, Note_on_c, 3, 56, 88
7, 88378, Note_off_c, 3, 56, 0
7, 88380, Note_on_c, 3, 58, 88
7, 88438, Note_off_c, 3, 58, 0
7, 88440, Note_on_c, 3, 59, 88
7, 88498, Note_off_c, 3, 59, 0
7, 88500, Note_on_c, 3, 61, 88
7, 88558, Note_off_c, 3, 61, 0
7, 88560, Note_on_c, 3, 63, 88
7, 88618, Note_off_c, 3, 63, 0
7, 88620, Note_on_c, 3, 59, 88
7, 88678, Note_off_c, 3, 59, 0
7, 88680, Note_on_c, 3, 58, 88
7, 88738, Note_off_c, 3, 58, 0
7, 88740, Note_on_c, 3, 56, 88
7, 88798, Note_off_c, 3, 56, 0
7, 88800, Note_on_c, 3, 55, 88
7, 88858, Note_off_c, 3, 55, 0
7, 88860, Note_on_c, 3, 56, 88
7, 88918, Note_off_c, 3, 56, 0
7, 88920, Note_on_c, 3, 58, 88
7, 88978, Note_off_c, 3, 58, 0
7, 88980, Note_on_c, 3, 52, 88
7, 89038, Note_off_c, 3, 52, 0
7, 89040, Note_on_c, 3, 51, 88
7, 89098, Note_off_c, 3, 51, 0
7, 89100, Note_on_c, 3, 49, 88
7, 89158, Note_off_c, 3, 49, 0
7, 89160, Note_on_c, 3, 47, 88
7, 89218, Note_off_c, 3, 47, 0
7, 89220, Note_on_c, 3, 46, 88
7, 89278, Note_off_c, 3, 46, 0
7, 89280, Note_on_c, 3, 44, 88
7, 89338, Note_off_c, 3, 44, 0
7, 89340, Note_on_c, 3, 56, 88
7, 89398, Note_off_c, 3, 56, 0
7, 89400, Note_on_c, 3, 44, 88
7, 89458, Note_off_c, 3, 44, 0
7, 89460, Note_on_c, 3, 56, 88
7, 89518, Note_off_c, 3, 56, 0
7, 89520, Note_on_c, 3, 54, 88
7, 89578, Note_off_c, 3, 54, 0
7, 89580, Note_on_c, 3, 63, 88
7, 89638, Note_off_c, 3, 63, 0
7, 89640, Note_on_c, 3, 54, 88
7, 89698, Note_off_c, 3, 54, 0
7, 89700, Note_on_c, 3, 63, 88
7, 89758, Note_off_c, 3, 63, 0
7, 89760, Note_on_c, 3, 52, 88
7, 89818, Note_off_c, 3, 52, 0
7, 89820, Note_on_c, 3, 61, 88
7, 89878, Note_off_c, 3, 61, 0
7, 89880, Note_on_c, 3, 52, 88
7, 89938, Note_off_c, 3, 52, 0
7, 89940, Note_on_c, 3, 61, 88
7, 89998, Note_off_c, 3, 61, 0
7, 90000, Note_on_c, 3, 51, 88
7, 90058, Note_off_c, 3, 51, 0
7, 90060, Note_on_c, 3, 60, 88
7, 90118, Note_off_c, 3, 60, 0
7, 90120, Note_on_c, 3, 51, 88
7, 90178, Note_off_c, 3, 51, 0
7, 90180, Note_on_c, 3, 60, 88
7, 90238, Note_off_c, 3, 60, 0
7, 90240, Note_on_c, 3, 49, 88
7, 90298, Note_off_c, 3, 49, 0
7, 90300, Note_on_c, 3, 61, 88
7, 90358, Note_off_c, 3, 61, 0
7, 90360, Note_on_c, 3, 49, 88
7, 90418, Note_off_c, 3, 49, 0
7, 90420, Note_on_c, 3, 61, 88
7, 90478, Note_off_c, 3, 61, 0
7, 90480, Note_on_c, 3, 59, 88
7, 90538, Note_off_c, 3, 59, 0
7, 90540, Note_on_c, 3, 68, 88
7, 90598, Note_off_c, 3, 68, 0
7, 90600, Note_on_c, 3, 59, 88
7, 90658, Note_off_c, 3, 59, 0
7, 90660, Note_on_c, 3, 68, 88
7, 90718, Note_off_c, 3, 68, 0
7, 90720, Note_on_c, 3, 58, 88
7, 90778, Note_off_c, 3, 58, 0
7, 90780, Note_on_c, 3, 67, 88
7, 90838, Note_off_c, 3, 67, 0
7, 90840, Note_on_c, 3, 58, 88
7, 90898, Note_off_c, 3, 58, 0
7, 90900, Note_on_c, 3, 67, 88
7, 90958, Note_off_c, 3, 67, 0
7, 90960, Note_on_c, 3, 56, 88
7, 91018, Note_off_c, 3, 56, 0
7, 91020, Note_on_c, 3, 68, 88
7, 91078, Note_off_c, 3, 68, 0
7, 91080, Note_on_c, 3, 56, 88
7, 91138, Note_off_c, 3, 56, 0
7, 91140, Note_on_c, 3, 68, 88
7, 91198, Note_off_c, 3, 68, 0
7, 91200, Note_on_c, 3, 67, 88
7, 91258, Note_off_c, 3, 67, 0
7, 91260, Note_on_c, 3, 68, 88
7, 91318, Note_off_c, 3, 68, 0
7, 91320, Note_on_c, 3, 70, 88
7, 91378, Note_off_c, 3, 70, 0
7, 91380, Note_on_c, 3, 64, 88
7, 91438, Note_off_c, 3, 64, 0
7, 91440, Note_on_c, 3, 63, 88
7, 91498, Note_off_c, 3, 63, 0
7, 91500, Note_on_c, 3, 61, 88
7, 91558, Note_off_c, 3, 61, 0
7, 91560, Note_on_c, 3, 59, 88
7, 91618, Note_off_c, 3, 59, 0
7, 91620, Note_on_c, 3, 58, 88
7, 91678, Note_off_c, 3, 58, 0
7, 91680, Note_on_c, 3, 56, 88
7, 91796, Note_off_c, 3, 56, 0
7, 91800, Note_on_c, 3, 59, 88
7, 91916, Note_off_c, 3, 59, 0
7, 91920, Note_on_c, 3, 61, 88
7, 92036, Note_off_c, 3, 61, 0
7, 92040, Note_on_c, 3, 63, 88
7, 92156, Note_off_c, 3, 63, 0
7, 92160, Note_on_c, 3, 64, 88
7, 92276, Note_off_c, 3, 64, 0
7, 92280, Note_on_c, 3, 52, 88
7, 92396, Note_off_c, 3, 52, 0
7, 92520, Note_on_c, 3, 48, 88
7, 92520, Note_on_c, 3, 51, 88
7, 92636, Note_off_c, 3, 48, 0
7, 92636, Note_off_c, 3, 51, 0
7, 92760, Note_on_c, 3, 49, 88
7, 92818, Note_off_c, 3, 49, 0
7, 92820, Note_on_c, 3, 51, 88
7, 92878, Note_off_c, 3, 51, 0
7, 92880, Note_on_c, 3, 53, 88
7, 92993, Note_off_c, 3, 53, 0
7, 93000, Note_on_c, 3, 53, 88
7, 93116, Note_off_c, 3, 53, 0
7, 93120, Note_on_c, 3, 52, 88
7, 93236, Note_off_c, 3, 52, 0
7, 93240, Note_on_c, 3, 42, 88
7, 93356, Note_off_c, 3, 42, 0
7, 93480, Note_on_c, 3, 46, 88
7, 93480, Note_on_c, 3, 49, 88
7, 93596, Note_off_c, 3, 46, 0
7, 93596, Note_off_c, 3, 49, 0
7, 93720, Note_on_c, 3, 47, 88
7, 93778, Note_off_c, 3, 47, 0
7, 93780, Note_on_c, 3, 49, 88
7, 93838, Note_off_c, 3, 49, 0
7, 93840, Note_on_c, 3, 51, 88
7, 93953, Note_off_c, 3, 51, 0
7, 93960, Note_on_c, 3, 51, 88
7, 94076, Note_off_c, 3, 51, 0
7, 94080, Note_on_c, 3, 51, 88
7, 94196, Note_off_c, 3, 51, 0
7, 94200, Note_on_c, 3, 40, 88
7, 94316, Note_off_c, 3, 40, 0
7, 94440, Note_on_c, 3, 44, 88
7, 94440, Note_on_c, 3, 47, 88
7, 94556, Note_off_c, 3, 44, 0
7, 94556, Note_off_c, 3, 47, 0
7, 94680, Note_on_c, 3, 46, 88
7, 94738, Note_off_c, 3, 46, 0
7, 94740, Note_on_c, 3, 48, 88
7, 94798, Note_off_c, 3, 48, 0
7, 94800, Note_on_c, 3, 50, 88
7, 94916, Note_off_c, 3, 50, 0
7, 94920, Note_on_c, 3, 49, 88
7, 95156, Note_off_c, 3, 49, 0
7, 95160, Note_on_c, 3, 47, 88
7, 95218, Note_off_c, 3, 47, 0
7, 95220, Note_on_c, 3, 49, 88
7, 95278, Note_off_c, 3, 49, 0
7, 95280, Note_on_c, 3, 51, 88
7, 95396, Note_off_c, 3, 51, 0
7, 95400, Note_on_c, 3, 39, 88
7, 95516, Note_off_c, 3, 39, 0
7, 95520, Note_on_c, 3, 44, 88
7, 95695, Note_off_c, 3, 44, 0
7, 95700, Note_on_c, 3, 47, 88
7, 95729, Note_off_c, 3, 47, 0
7, 95730, Note_on_c, 3, 51, 88
7, 95759, Note_off_c, 3, 51, 0
7, 95760, Note_on_c, 3, 56, 88
7, 95994, Note_off_c, 3, 56, 0
7, 95994, End_track
0, 0, End_of_file
