0, 0, Header, 1, 6, 240
1, 0, Start_track
1, 0, Time_signature, 4, 2, 24, 8
1, 0, Tempo, 1304347
1, 0, SMPTE_offset, 64, 0, 0, 0, 102
1, 15360, Time_signature, 4, 2, 24, 8
1, 15360, End_track
2, 0, Start_track
2, 0, Title_t, "(C) & (P) 1993"
2, 127, End_track
3, 0, Start_track
3, 0, Title_t, "CCARH,Stanford"
3, 0, End_track
4, 0, Start_track
4, 0, Title_t, "Track 1"
4, 0, Program_c, 0, 6
4, 30, Note_on_c, 0, 72, 88
4, 59, Note_off_c, 0, 72, 0
4, 60, Note_on_c, 0, 74, 88
4, 89, Note_off_c, 0, 74, 0
4, 90, Note_on_c, 0, 76, 88
4, 119, Note_off_c, 0, 76, 0
4, 120, Note_on_c, 0, 77, 88
4, 178, Note_off_c, 0, 77, 0
4, 180, Note_on_c, 0, 72, 88
4, 238, Note_off_c, 0, 72, 0
4, 240, Note_on_c, 0, 71, 88
4, 298, Note_off_c, 0, 71, 0
4, 300, Note_on_c, 0, 75, 88
4, 358, Note_off_c, 0, 75, 0
4, 360, Note_on_c, 0, 76, 88
4, 418, Note_off_c, 0, 76, 0
4, 420, Note_on_c, 0, 70, 88
4, 478, Note_off_c, 0, 70, 0
4, 480, Note_on_c, 0, 69, 88
4, 538, Note_off_c, 0, 69, 0
4, 540, Note_on_c, 0, 73, 88
4, 598, Note_off_c, 0, 73, 0
4, 600, Note_on_c, 0, 74, 88
4, 658, Note_off_c, 0, 74, 0
4, 660, Note_on_c, 0, 68, 88
4, 776, Note_off_c, 0, 68, 0
4, 780, Note_on_c, 0, 69, 88
4, 896, Note_off_c, 0, 69, 0
4, 900, Note_on_c, 0, 71, 88
4, 958, Note_off_c, 0, 71, 0
4, 960, Note_on_c, 0, 64, 88
4, 1076, Note_off_c, 0, 64, 0
4, 1080, Note_on_c, 0, 69, 88
4, 1196, Note_off_c, 0, 69, 0
4, 1200, Note_on_c, 0, 68, 88
4, 1316, Note_off_c, 0, 68, 0
4, 1320, Note_on_c, 0, 67, 88
4, 1436, Note_off_c, 0, 67, 0
4, 1440, Note_on_c, 0, 66, 88
4, 1556, Note_off_c, 0, 66, 0
4, 1560, Note_on_c, 0, 65, 88
4, 1676, Note_off_c, 0, 65, 0
4, 1680, Note_on_c, 0, 64, 88
4, 1796, Note_off_c, 0, 64, 0
4, 1800, Note_on_c, 0, 62, 88
4, 1978, Note_off_c, 0, 62, 0
4, 1980, Note_on_c, 0, 60, 88
4, 2009, Note_off_c, 0, 60, 0
4, 2010, Note_on_c, 0, 59, 88
4, 2039, Note_off_c, 0, 59, 0
4, 2040, Note_on_c, 0, 60, 88
4, 2098, Note_off_c, 0, 60, 0
4, 2100, Note_on_c, 0, 69, 88
4, 2216, Note_off_c, 0, 69, 0
4, 2220, Note_on_c, 0, 68, 88
4, 2278, Note_off_c, 0, 68, 0
4, 2280, Note_on_c, 0, 76, 88
4, 2338, Note_off_c, 0, 76, 0
4, 2340, Note_on_c, 0, 67, 88
4, 2456, Note_off_c, 0, 67, 0
4, 2460, Note_on_c, 0, 65, 88
4, 2489, Note_off_c, 0, 65, 0
4, 2490, Note_on_c, 0, 64, 88
4, 2519, Note_off_c, 0, 64, 0
4, 2520, Note_on_c, 0, 63, 88
4, 2578, Note_off_c, 0, 63, 0
4, 2580, Note_on_c, 0, 71, 88
4, 2696, Note_off_c, 0, 71, 0
4, 2700, Note_on_c, 0, 70, 88
4, 2758, Note_off_c, 0, 70, 0
4, 2760, Note_on_c, 0, 78, 88
4, 2818, Note_off_c, 0, 78, 0
4, 2820, Note_on_c, 0, 69, 88
4, 2909, Note_off_c, 0, 69, 0
4, 2910, Note_on_c, 0, 67, 88
4, 2939, Note_off_c, 0, 67, 0
4, 2940, Note_on_c, 0, 69, 88
4, 2969, Note_off_c, 0, 69, 0
4, 2970, Note_on_c, 0, 71, 88
4, 2999, Note_off_c, 0, 71, 0
4, 3000, Note_on_c, 0, 72, 88
4, 3058, Note_off_c, 0, 72, 0
4, 3060, Note_on_c, 0, 67, 88
4, 3118, Note_off_c, 0, 67, 0
4, 3120, Note_on_c, 0, 66, 88
4, 3178, Note_off_c, 0, 66, 0
4, 3180, Note_on_c, 0, 70, 88
4, 3238, Note_off_c, 0, 70, 0
4, 3240, Note_on_c, 0, 71, 88
4, 3298, Note_off_c, 0, 71, 0
4, 3300, Note_on_c, 0, 65, 88
4, 3358, Note_off_c, 0, 65, 0
4, 3360, Note_on_c, 0, 64, 88
4, 3418, Note_off_c, 0, 64, 0
4, 3420, Note_on_c, 0, 68, 88
4, 3478, Note_off_c, 0, 68, 0
4, 3480, Note_on_c, 0, 69, 88
4, 3538, Note_off_c, 0, 69, 0
4, 3540, Note_on_c, 0, 63, 88
4, 3656, Note_off_c, 0, 63, 0
4, 3660, Note_on_c, 0, 64, 88
4, 3776, Note_off_c, 0, 64, 0
4, 3780, Note_on_c, 0, 66, 88
4, 3838, Note_off_c, 0, 66, 0
4, 3840, Note_on_c, 0, 59, 88
4, 3956, Note_off_c, 0, 59, 0
4, 3960, Note_on_c, 0, 76, 88
4, 4076, Note_off_c, 0, 76, 0
4, 4080, Note_on_c, 0, 75, 88
4, 4196, Note_off_c, 0, 75, 0
4, 4200, Note_on_c, 0, 74, 88
4, 4316, Note_off_c, 0, 74, 0
4, 4320, Note_on_c, 0, 73, 88
4, 4436, Note_off_c, 0, 73, 0
4, 4440, Note_on_c, 0, 72, 88
4, 4556, Note_off_c, 0, 72, 0
4, 4560, Note_on_c, 0, 71, 88
4, 4676, Note_off_c, 0, 71, 0
4, 4680, Note_on_c, 0, 69, 88
4, 4858, Note_off_c, 0, 69, 0
4, 4860, Note_on_c, 0, 67, 88
4, 4889, Note_off_c, 0, 67, 0
4, 4890, Note_on_c, 0, 66, 88
4, 4919, Note_off_c, 0, 66, 0
4, 4920, Note_on_c, 0, 67, 88
4, 4978, Note_off_c, 0, 67, 0
4, 4980, Note_on_c, 0, 76, 88
4, 5096, Note_off_c, 0, 76, 0
4, 5100, Note_on_c, 0, 75, 88
4, 5158, Note_off_c, 0, 75, 0
4, 5160, Note_on_c, 0, 83, 88
4, 5218, Note_off_c, 0, 83, 0
4, 5220, Note_on_c, 0, 74, 88
4, 5336, Note_off_c, 0, 74, 0
4, 5340, Note_on_c, 0, 72, 88
4, 5369, Note_off_c, 0, 72, 0
4, 5370, Note_on_c, 0, 71, 88
4, 5399, Note_off_c, 0, 71, 0
4, 5400, Note_on_c, 0, 72, 88
4, 5458, Note_off_c, 0, 72, 0
4, 5460, Note_on_c, 0, 69, 88
4, 5518, Note_off_c, 0, 69, 0
4, 5520, Note_on_c, 0, 71, 88
4, 5636, Note_off_c, 0, 71, 0
4, 5640, Note_on_c, 0, 73, 88
4, 5756, Note_off_c, 0, 73, 0
4, 5760, Note_on_c, 0, 74, 88
4, 5818, Note_off_c, 0, 74, 0
4, 5820, Note_on_c, 0, 62, 88
4, 5878, Note_off_c, 0, 62, 0
4, 5880, Note_on_c, 0, 74, 88
4, 6055, Note_off_c, 0, 74, 0
4, 6060, Note_on_c, 0, 73, 88
4, 6118, Note_off_c, 0, 73, 0
4, 6120, Note_on_c, 0, 81, 88
4, 6178, Note_off_c, 0, 81, 0
4, 6180, Note_on_c, 0, 72, 88
4, 6296, Note_off_c, 0, 72, 0
4, 6300, Note_on_c, 0, 71, 88
4, 6329, Note_off_c, 0, 71, 0
4, 6330, Note_on_c, 0, 69, 88
4, 6359, Note_off_c, 0, 69, 0
4, 6360, Note_on_c, 0, 71, 88
4, 6418, Note_off_c, 0, 71, 0
4, 6420, Note_on_c, 0, 67, 88
4, 6478, Note_off_c, 0, 67, 0
4, 6480, Note_on_c, 0, 69, 88
4, 6596, Note_off_c, 0, 69, 0
4, 6600, Note_on_c, 0, 71, 88
4, 6716, Note_off_c, 0, 71, 0
4, 6720, Note_on_c, 0, 72, 88
4, 6836, Note_off_c, 0, 72, 0
4, 6840, Note_on_c, 0, 84, 88
4, 6956, Note_off_c, 0, 84, 0
4, 6960, Note_on_c, 0, 83, 88
4, 7076, Note_off_c, 0, 83, 0
4, 7080, Note_on_c, 0, 82, 88
4, 7196, Note_off_c, 0, 82, 0
4, 7200, Note_on_c, 0, 81, 88
4, 7316, Note_off_c, 0, 81, 0
4, 7320, Note_on_c, 0, 80, 88
4, 7436, Note_off_c, 0, 80, 0
4, 7440, Note_on_c, 0, 79, 88
4, 7556, Note_off_c, 0, 79, 0
4, 7560, Note_on_c, 0, 77, 88
4, 7709, Note_off_c, 0, 77, 0
4, 7710, Note_on_c, 0, 71, 88
4, 7739, Note_off_c, 0, 71, 0
4, 7740, Note_on_c, 0, 72, 88
4, 7769, Note_off_c, 0, 72, 0
4, 7770, Note_on_c, 0, 74, 88
4, 7799, Note_off_c, 0, 74, 0
4, 7800, Note_on_c, 0, 76, 88
4, 7858, Note_off_c, 0, 76, 0
4, 7860, Note_on_c, 0, 71, 88
4, 7918, Note_off_c, 0, 71, 0
4, 7920, Note_on_c, 0, 70, 88
4, 7978, Note_off_c, 0, 70, 0
4, 7980, Note_on_c, 0, 73, 88
4, 8038, Note_off_c, 0, 73, 0
4, 8040, Note_on_c, 0, 74, 88
4, 8098, Note_off_c, 0, 74, 0
4, 8100, Note_on_c, 0, 69, 88
4, 8158, Note_off_c, 0, 69, 0
4, 8160, Note_on_c, 0, 68, 88
4, 8218, Note_off_c, 0, 68, 0
4, 8220, Note_on_c, 0, 71, 88
4, 8278, Note_off_c, 0, 71, 0
4, 8280, Note_on_c, 0, 72, 88
4, 8338, Note_off_c, 0, 72, 0
4, 8340, Note_on_c, 0, 67, 88
4, 8456, Note_off_c, 0, 67, 0
4, 8460, Note_on_c, 0, 66, 88
4, 8576, Note_off_c, 0, 66, 0
4, 8580, Note_on_c, 0, 67, 88
4, 8609, Note_off_c, 0, 67, 0
4, 8610, Note_on_c, 0, 69, 88
4, 8639, Note_off_c, 0, 69, 0
4, 8640, Note_on_c, 0, 62, 88
4, 8756, Note_off_c, 0, 62, 0
4, 8760, Note_on_c, 0, 67, 88
4, 8876, Note_off_c, 0, 67, 0
4, 8880, Note_on_c, 0, 69, 88
4, 8996, Note_off_c, 0, 69, 0
4, 9000, Note_on_c, 0, 71, 88
4, 9116, Note_off_c, 0, 71, 0
4, 9120, Note_on_c, 0, 72, 88
4, 9236, Note_off_c, 0, 72, 0
4, 9240, Note_on_c, 0, 69, 88
4, 9356, Note_off_c, 0, 69, 0
4, 9360, Note_on_c, 0, 71, 88
4, 9476, Note_off_c, 0, 71, 0
4, 9480, Note_on_c, 0, 73, 88
4, 9596, Note_off_c, 0, 73, 0
4, 9600, Note_on_c, 0, 74, 88
4, 9716, Note_off_c, 0, 74, 0
4, 9720, Note_on_c, 0, 62, 88
4, 9836, Note_off_c, 0, 62, 0
4, 9840, Note_on_c, 0, 61, 88
4, 9956, Note_off_c, 0, 61, 0
4, 9960, Note_on_c, 0, 60, 88
4, 10076, Note_off_c, 0, 60, 0
4, 10080, Note_on_c, 0, 59, 88
4, 10196, Note_off_c, 0, 59, 0
4, 10200, Note_on_c, 0, 58, 88
4, 10316, Note_off_c, 0, 58, 0
4, 10320, Note_on_c, 0, 57, 88
4, 10436, Note_off_c, 0, 57, 0
4, 10440, Note_on_c, 0, 55, 88
4, 10618, Note_off_c, 0, 55, 0
4, 10620, Note_on_c, 0, 53, 88
4, 10649, Note_off_c, 0, 53, 0
4, 10650, Note_on_c, 0, 52, 88
4, 10679, Note_off_c, 0, 52, 0
4, 10680, Note_on_c, 0, 53, 88
4, 10738, Note_off_c, 0, 53, 0
4, 10740, Note_on_c, 0, 62, 88
4, 10856, Note_off_c, 0, 62, 0
4, 10860, Note_on_c, 0, 61, 88
4, 10918, Note_off_c, 0, 61, 0
4, 10920, Note_on_c, 0, 69, 88
4, 10978, Note_off_c, 0, 69, 0
4, 10980, Note_on_c, 0, 60, 88
4, 11096, Note_off_c, 0, 60, 0
4, 11100, Note_on_c, 0, 59, 88
4, 11129, Note_off_c, 0, 59, 0
4, 11130, Note_on_c, 0, 57, 88
4, 11159, Note_off_c, 0, 57, 0
4, 11160, Note_on_c, 0, 56, 88
4, 11218, Note_off_c, 0, 56, 0
4, 11220, Note_on_c, 0, 64, 88
4, 11336, Note_off_c, 0, 64, 0
4, 11340, Note_on_c, 0, 63, 88
4, 11398, Note_off_c, 0, 63, 0
4, 11400, Note_on_c, 0, 71, 88
4, 11458, Note_off_c, 0, 71, 0
4, 11460, Note_on_c, 0, 62, 88
4, 11549, Note_off_c, 0, 62, 0
4, 11550, Note_on_c, 0, 60, 88
4, 11579, Note_off_c, 0, 60, 0
4, 11580, Note_on_c, 0, 62, 88
4, 11609, Note_off_c, 0, 62, 0
4, 11610, Note_on_c, 0, 64, 88
4, 11639, Note_off_c, 0, 64, 0
4, 11640, Note_on_c, 0, 65, 88
4, 11698, Note_off_c, 0, 65, 0
4, 11700, Note_on_c, 0, 60, 88
4, 11758, Note_off_c, 0, 60, 0
4, 11760, Note_on_c, 0, 59, 88
4, 11818, Note_off_c, 0, 59, 0
4, 11820, Note_on_c, 0, 63, 88
4, 11878, Note_off_c, 0, 63, 0
4, 11880, Note_on_c, 0, 64, 88
4, 11938, Note_off_c, 0, 64, 0
4, 11940, Note_on_c, 0, 58, 88
4, 11998, Note_off_c, 0, 58, 0
4, 12000, Note_on_c, 0, 57, 88
4, 12058, Note_off_c, 0, 57, 0
4, 12060, Note_on_c, 0, 61, 88
4, 12118, Note_off_c, 0, 61, 0
4, 12120, Note_on_c, 0, 62, 88
4, 12178, Note_off_c, 0, 62, 0
4, 12180, Note_on_c, 0, 56, 88
4, 12296, Note_off_c, 0, 56, 0
4, 12300, Note_on_c, 0, 57, 88
4, 12416, Note_off_c, 0, 57, 0
4, 12420, Note_on_c, 0, 59, 88
4, 12478, Note_off_c, 0, 59, 0
4, 12480, Note_on_c, 0, 52, 88
4, 12596, Note_off_c, 0, 52, 0
4, 12600, Note_on_c, 0, 64, 88
4, 12716, Note_off_c, 0, 64, 0
4, 12720, Note_on_c, 0, 66, 88
4, 12836, Note_off_c, 0, 66, 0
4, 12840, Note_on_c, 0, 68, 88
4, 12956, Note_off_c, 0, 68, 0
4, 12960, Note_on_c, 0, 69, 88
4, 13018, Note_off_c, 0, 69, 0
4, 13020, Note_on_c, 0, 57, 88
4, 13078, Note_off_c, 0, 57, 0
4, 13080, Note_on_c, 0, 69, 88
4, 13255, Note_off_c, 0, 69, 0
4, 13260, Note_on_c, 0, 68, 88
4, 13318, Note_off_c, 0, 68, 0
4, 13320, Note_on_c, 0, 76, 88
4, 13378, Note_off_c, 0, 76, 0
4, 13380, Note_on_c, 0, 67, 88
4, 13498, Note_off_c, 0, 67, 0
4, 13500, Note_on_c, 0, 66, 88
4, 13529, Note_off_c, 0, 66, 0
4, 13530, Note_on_c, 0, 64, 88
4, 13559, Note_off_c, 0, 64, 0
4, 13560, Note_on_c, 0, 66, 88
4, 13618, Note_off_c, 0, 66, 0
4, 13620, Note_on_c, 0, 62, 88
4, 13678, Note_off_c, 0, 62, 0
4, 13680, Note_on_c, 0, 64, 88
4, 13796, Note_off_c, 0, 64, 0
4, 13800, Note_on_c, 0, 66, 88
4, 13916, Note_off_c, 0, 66, 0
4, 13920, Note_on_c, 0, 67, 88
4, 13978, Note_off_c, 0, 67, 0
4, 13980, Note_on_c, 0, 55, 88
4, 14038, Note_off_c, 0, 55, 0
4, 14040, Note_on_c, 0, 67, 88
4, 14215, Note_off_c, 0, 67, 0
4, 14220, Note_on_c, 0, 66, 88
4, 14278, Note_off_c, 0, 66, 0
4, 14280, Note_on_c, 0, 74, 88
4, 14338, Note_off_c, 0, 74, 0
4, 14340, Note_on_c, 0, 65, 88
4, 14458, Note_off_c, 0, 65, 0
4, 14460, Note_on_c, 0, 64, 88
4, 14489, Note_off_c, 0, 64, 0
4, 14490, Note_on_c, 0, 62, 88
4, 14519, Note_off_c, 0, 62, 0
4, 14520, Note_on_c, 0, 64, 88
4, 14578, Note_off_c, 0, 64, 0
4, 14580, Note_on_c, 0, 76, 88
4, 14696, Note_off_c, 0, 76, 0
4, 14700, Note_on_c, 0, 77, 88
4, 14729, Note_off_c, 0, 77, 0
4, 14730, Note_on_c, 0, 76, 88
4, 14759, Note_off_c, 0, 76, 0
4, 14760, Note_on_c, 0, 74, 88
4, 14789, Note_off_c, 0, 74, 0
4, 14790, Note_on_c, 0, 72, 88
4, 14819, Note_off_c, 0, 72, 0
4, 14820, Note_on_c, 0, 71, 88
4, 14849, Note_off_c, 0, 71, 0
4, 14850, Note_on_c, 0, 69, 88
4, 14879, Note_off_c, 0, 69, 0
4, 14880, Note_on_c, 0, 68, 88
4, 15350, Note_off_c, 0, 68, 0
4, 15390, Note_on_c, 0, 72, 88
4, 15419, Note_off_c, 0, 72, 0
4, 15420, Note_on_c, 0, 74, 88
4, 15449, Note_off_c, 0, 74, 0
4, 15450, Note_on_c, 0, 76, 88
4, 15479, Note_off_c, 0, 76, 0
4, 15480, Note_on_c, 0, 77, 88
4, 15538, Note_off_c, 0, 77, 0
4, 15540, Note_on_c, 0, 72, 88
4, 15598, Note_off_c, 0, 72, 0
4, 15600, Note_on_c, 0, 71, 88
4, 15658, Note_off_c, 0, 71, 0
4, 15660, Note_on_c, 0, 75, 88
4, 15718, Note_off_c, 0, 75, 0
4, 15720, Note_on_c, 0, 76, 88
4, 15778, Note_off_c, 0, 76, 0
4, 15780, Note_on_c, 0, 70, 88
4, 15838, Note_off_c, 0, 70, 0
4, 15840, Note_on_c, 0, 69, 88
4, 15898, Note_off_c, 0, 69, 0
4, 15900, Note_on_c, 0, 73, 88
4, 15958, Note_off_c, 0, 73, 0
4, 15960, Note_on_c, 0, 74, 88
4, 16018, Note_off_c, 0, 74, 0
4, 16020, Note_on_c, 0, 68, 88
4, 16136, Note_off_c, 0, 68, 0
4, 16140, Note_on_c, 0, 69, 88
4, 16256, Note_off_c, 0, 69, 0
4, 16260, Note_on_c, 0, 71, 88
4, 16318, Note_off_c, 0, 71, 0
4, 16320, Note_on_c, 0, 64, 88
4, 16436, Note_off_c, 0, 64, 0
4, 16440, Note_on_c, 0, 69, 88
4, 16556, Note_off_c, 0, 69, 0
4, 16560, Note_on_c, 0, 68, 88
4, 16676, Note_off_c, 0, 68, 0
4, 16680, Note_on_c, 0, 67, 88
4, 16796, Note_off_c, 0, 67, 0
4, 16800, Note_on_c, 0, 66, 88
4, 16916, Note_off_c, 0, 66, 0
4, 16920, Note_on_c, 0, 65, 88
4, 17036, Note_off_c, 0, 65, 0
4, 17040, Note_on_c, 0, 64, 88
4, 17156, Note_off_c, 0, 64, 0
4, 17160, Note_on_c, 0, 62, 88
4, 17338, Note_off_c, 0, 62, 0
4, 17340, Note_on_c, 0, 60, 88
4, 17369, Note_off_c, 0, 60, 0
4, 17370, Note_on_c, 0, 59, 88
4, 17399, Note_off_c, 0, 59, 0
4, 17400, Note_on_c, 0, 60, 88
4, 17458, Note_off_c, 0, 60, 0
4, 17460, Note_on_c, 0, 69, 88
4, 17576, Note_off_c, 0, 69, 0
4, 17580, Note_on_c, 0, 68, 88
4, 17638, Note_off_c, 0, 68, 0
4, 17640, Note_on_c, 0, 76, 88
4, 17698, Note_off_c, 0, 76, 0
4, 17700, Note_on_c, 0, 67, 88
4, 17816, Note_off_c, 0, 67, 0
4, 17820, Note_on_c, 0, 65, 88
4, 17849, Note_off_c, 0, 65, 0
4, 17850, Note_on_c, 0, 64, 88
4, 17879, Note_off_c, 0, 64, 0
4, 17880, Note_on_c, 0, 63, 88
4, 17938, Note_off_c, 0, 63, 0
4, 17940, Note_on_c, 0, 71, 88
4, 18056, Note_off_c, 0, 71, 0
4, 18060, Note_on_c, 0, 70, 88
4, 18118, Note_off_c, 0, 70, 0
4, 18120, Note_on_c, 0, 78, 88
4, 18178, Note_off_c, 0, 78, 0
4, 18180, Note_on_c, 0, 69, 88
4, 18269, Note_off_c, 0, 69, 0
4, 18270, Note_on_c, 0, 67, 88
4, 18299, Note_off_c, 0, 67, 0
4, 18300, Note_on_c, 0, 69, 88
4, 18329, Note_off_c, 0, 69, 0
4, 18330, Note_on_c, 0, 71, 88
4, 18359, Note_off_c, 0, 71, 0
4, 18360, Note_on_c, 0, 72, 88
4, 18418, Note_off_c, 0, 72, 0
4, 18420, Note_on_c, 0, 67, 88
4, 18478, Note_off_c, 0, 67, 0
4, 18480, Note_on_c, 0, 66, 88
4, 18538, Note_off_c, 0, 66, 0
4, 18540, Note_on_c, 0, 70, 88
4, 18598, Note_off_c, 0, 70, 0
4, 18600, Note_on_c, 0, 71, 88
4, 18658, Note_off_c, 0, 71, 0
4, 18660, Note_on_c, 0, 65, 88
4, 18718, Note_off_c, 0, 65, 0
4, 18720, Note_on_c, 0, 64, 88
4, 18778, Note_off_c, 0, 64, 0
4, 18780, Note_on_c, 0, 68, 88
4, 18838, Note_off_c, 0, 68, 0
4, 18840, Note_on_c, 0, 69, 88
4, 18898, Note_off_c, 0, 69, 0
4, 18900, Note_on_c, 0, 63, 88
4, 19016, Note_off_c, 0, 63, 0
4, 19020, Note_on_c, 0, 64, 88
4, 19136, Note_off_c, 0, 64, 0
4, 19140, Note_on_c, 0, 66, 88
4, 19198, Note_off_c, 0, 66, 0
4, 19200, Note_on_c, 0, 59, 88
4, 19316, Note_off_c, 0, 59, 0
4, 19320, Note_on_c, 0, 76, 88
4, 19436, Note_off_c, 0, 76, 0
4, 19440, Note_on_c, 0, 75, 88
4, 19556, Note_off_c, 0, 75, 0
4, 19560, Note_on_c, 0, 74, 88
4, 19676, Note_off_c, 0, 74, 0
4, 19680, Note_on_c, 0, 73, 88
4, 19796, Note_off_c, 0, 73, 0
4, 19800, Note_on_c, 0, 72, 88
4, 19916, Note_off_c, 0, 72, 0
4, 19920, Note_on_c, 0, 71, 88
4, 20036, Note_off_c, 0, 71, 0
4, 20040, Note_on_c, 0, 69, 88
4, 20218, Note_off_c, 0, 69, 0
4, 20220, Note_on_c, 0, 67, 88
4, 20249, Note_off_c, 0, 67, 0
4, 20250, Note_on_c, 0, 66, 88
4, 20279, Note_off_c, 0, 66, 0
4, 20280, Note_on_c, 0, 67, 88
4, 20338, Note_off_c, 0, 67, 0
4, 20340, Note_on_c, 0, 76, 88
4, 20456, Note_off_c, 0, 76, 0
4, 20460, Note_on_c, 0, 75, 88
4, 20518, Note_off_c, 0, 75, 0
4, 20520, Note_on_c, 0, 83, 88
4, 20578, Note_off_c, 0, 83, 0
4, 20580, Note_on_c, 0, 74, 88
4, 20696, Note_off_c, 0, 74, 0
4, 20700, Note_on_c, 0, 72, 88
4, 20729, Note_off_c, 0, 72, 0
4, 20730, Note_on_c, 0, 71, 88
4, 20759, Note_off_c, 0, 71, 0
4, 20760, Note_on_c, 0, 72, 88
4, 20818, Note_off_c, 0, 72, 0
4, 20820, Note_on_c, 0, 69, 88
4, 20878, Note_off_c, 0, 69, 0
4, 20880, Note_on_c, 0, 71, 88
4, 20996, Note_off_c, 0, 71, 0
4, 21000, Note_on_c, 0, 73, 88
4, 21116, Note_off_c, 0, 73, 0
4, 21120, Note_on_c, 0, 74, 88
4, 21178, Note_off_c, 0, 74, 0
4, 21180, Note_on_c, 0, 62, 88
4, 21238, Note_off_c, 0, 62, 0
4, 21240, Note_on_c, 0, 74, 88
4, 21415, Note_off_c, 0, 74, 0
4, 21420, Note_on_c, 0, 73, 88
4, 21478, Note_off_c, 0, 73, 0
4, 21480, Note_on_c, 0, 81, 88
4, 21538, Note_off_c, 0, 81, 0
4, 21540, Note_on_c, 0, 72, 88
4, 21656, Note_off_c, 0, 72, 0
4, 21660, Note_on_c, 0, 71, 88
4, 21689, Note_off_c, 0, 71, 0
4, 21690, Note_on_c, 0, 69, 88
4, 21719, Note_off_c, 0, 69, 0
4, 21720, Note_on_c, 0, 71, 88
4, 21778, Note_off_c, 0, 71, 0
4, 21780, Note_on_c, 0, 67, 88
4, 21838, Note_off_c, 0, 67, 0
4, 21840, Note_on_c, 0, 69, 88
4, 21956, Note_off_c, 0, 69, 0
4, 21960, Note_on_c, 0, 71, 88
4, 22076, Note_off_c, 0, 71, 0
4, 22080, Note_on_c, 0, 72, 88
4, 22196, Note_off_c, 0, 72, 0
4, 22200, Note_on_c, 0, 84, 88
4, 22316, Note_off_c, 0, 84, 0
4, 22320, Note_on_c, 0, 83, 88
4, 22436, Note_off_c, 0, 83, 0
4, 22440, Note_on_c, 0, 82, 88
4, 22556, Note_off_c, 0, 82, 0
4, 22560, Note_on_c, 0, 81, 88
4, 22676, Note_off_c, 0, 81, 0
4, 22680, Note_on_c, 0, 80, 88
4, 22796, Note_off_c, 0, 80, 0
4, 22800, Note_on_c, 0, 79, 88
4, 22916, Note_off_c, 0, 79, 0
4, 22920, Note_on_c, 0, 77, 88
4, 23069, Note_off_c, 0, 77, 0
4, 23070, Note_on_c, 0, 71, 88
4, 23099, Note_off_c, 0, 71, 0
4, 23100, Note_on_c, 0, 72, 88
4, 23129, Note_off_c, 0, 72, 0
4, 23130, Note_on_c, 0, 74, 88
4, 23159, Note_off_c, 0, 74, 0
4, 23160, Note_on_c, 0, 76, 88
4, 23218, Note_off_c, 0, 76, 0
4, 23220, Note_on_c, 0, 71, 88
4, 23278, Note_off_c, 0, 71, 0
4, 23280, Note_on_c, 0, 70, 88
4, 23338, Note_off_c, 0, 70, 0
4, 23340, Note_on_c, 0, 73, 88
4, 23398, Note_off_c, 0, 73, 0
4, 23400, Note_on_c, 0, 74, 88
4, 23458, Note_off_c, 0, 74, 0
4, 23460, Note_on_c, 0, 69, 88
4, 23518, Note_off_c, 0, 69, 0
4, 23520, Note_on_c, 0, 68, 88
4, 23578, Note_off_c, 0, 68, 0
4, 23580, Note_on_c, 0, 71, 88
4, 23638, Note_off_c, 0, 71, 0
4, 23640, Note_on_c, 0, 72, 88
4, 23698, Note_off_c, 0, 72, 0
4, 23700, Note_on_c, 0, 67, 88
4, 23816, Note_off_c, 0, 67, 0
4, 23820, Note_on_c, 0, 66, 88
4, 23936, Note_off_c, 0, 66, 0
4, 23940, Note_on_c, 0, 67, 88
4, 23969, Note_off_c, 0, 67, 0
4, 23970, Note_on_c, 0, 69, 88
4, 23999, Note_off_c, 0, 69, 0
4, 24000, Note_on_c, 0, 62, 88
4, 24116, Note_off_c, 0, 62, 0
4, 24120, Note_on_c, 0, 67, 88
4, 24236, Note_off_c, 0, 67, 0
4, 24240, Note_on_c, 0, 69, 88
4, 24356, Note_off_c, 0, 69, 0
4, 24360, Note_on_c, 0, 71, 88
4, 24476, Note_off_c, 0, 71, 0
4, 24480, Note_on_c, 0, 72, 88
4, 24596, Note_off_c, 0, 72, 0
4, 24600, Note_on_c, 0, 69, 88
4, 24716, Note_off_c, 0, 69, 0
4, 24720, Note_on_c, 0, 71, 88
4, 24836, Note_off_c, 0, 71, 0
4, 24840, Note_on_c, 0, 73, 88
4, 24956, Note_off_c, 0, 73, 0
4, 24960, Note_on_c, 0, 74, 88
4, 25076, Note_off_c, 0, 74, 0
4, 25080, Note_on_c, 0, 62, 88
4, 25196, Note_off_c, 0, 62, 0
4, 25200, Note_on_c, 0, 61, 88
4, 25316, Note_off_c, 0, 61, 0
4, 25320, Note_on_c, 0, 60, 88
4, 25436, Note_off_c, 0, 60, 0
4, 25440, Note_on_c, 0, 59, 88
4, 25556, Note_off_c, 0, 59, 0
4, 25560, Note_on_c, 0, 58, 88
4, 25676, Note_off_c, 0, 58, 0
4, 25680, Note_on_c, 0, 57, 88
4, 25796, Note_off_c, 0, 57, 0
4, 25800, Note_on_c, 0, 55, 88
4, 25978, Note_off_c, 0, 55, 0
4, 25980, Note_on_c, 0, 53, 88
4, 26009, Note_off_c, 0, 53, 0
4, 26010, Note_on_c, 0, 52, 88
4, 26039, Note_off_c, 0, 52, 0
4, 26040, Note_on_c, 0, 53, 88
4, 26098, Note_off_c, 0, 53, 0
4, 26100, Note_on_c, 0, 62, 88
4, 26216, Note_off_c, 0, 62, 0
4, 26220, Note_on_c, 0, 61, 88
4, 26278, Note_off_c, 0, 61, 0
4, 26280, Note_on_c, 0, 69, 88
4, 26338, Note_off_c, 0, 69, 0
4, 26340, Note_on_c, 0, 60, 88
4, 26456, Note_off_c, 0, 60, 0
4, 26460, Note_on_c, 0, 59, 88
4, 26489, Note_off_c, 0, 59, 0
4, 26490, Note_on_c, 0, 57, 88
4, 26519, Note_off_c, 0, 57, 0
4, 26520, Note_on_c, 0, 56, 88
4, 26578, Note_off_c, 0, 56, 0
4, 26580, Note_on_c, 0, 64, 88
4, 26696, Note_off_c, 0, 64, 0
4, 26700, Note_on_c, 0, 63, 88
4, 26758, Note_off_c, 0, 63, 0
4, 26760, Note_on_c, 0, 71, 88
4, 26818, Note_off_c, 0, 71, 0
4, 26820, Note_on_c, 0, 62, 88
4, 26909, Note_off_c, 0, 62, 0
4, 26910, Note_on_c, 0, 60, 88
4, 26939, Note_off_c, 0, 60, 0
4, 26940, Note_on_c, 0, 62, 88
4, 26969, Note_off_c, 0, 62, 0
4, 26970, Note_on_c, 0, 64, 88
4, 26999, Note_off_c, 0, 64, 0
4, 27000, Note_on_c, 0, 65, 88
4, 27058, Note_off_c, 0, 65, 0
4, 27060, Note_on_c, 0, 60, 88
4, 27118, Note_off_c, 0, 60, 0
4, 27120, Note_on_c, 0, 59, 88
4, 27178, Note_off_c, 0, 59, 0
4, 27180, Note_on_c, 0, 63, 88
4, 27238, Note_off_c, 0, 63, 0
4, 27240, Note_on_c, 0, 64, 88
4, 27298, Note_off_c, 0, 64, 0
4, 27300, Note_on_c, 0, 58, 88
4, 27358, Note_off_c, 0, 58, 0
4, 27360, Note_on_c, 0, 57, 88
4, 27418, Note_off_c, 0, 57, 0
4, 27420, Note_on_c, 0, 61, 88
4, 27478, Note_off_c, 0, 61, 0
4, 27480, Note_on_c, 0, 62, 88
4, 27538, Note_off_c, 0, 62, 0
4, 27540, Note_on_c, 0, 56, 88
4, 27656, Note_off_c, 0, 56, 0
4, 27660, Note_on_c, 0, 57, 88
4, 27776, Note_off_c, 0, 57, 0
4, 27780, Note_on_c, 0, 59, 88
4, 27838, Note_off_c, 0, 59, 0
4, 27840, Note_on_c, 0, 52, 88
4, 27956, Note_off_c, 0, 52, 0
4, 27960, Note_on_c, 0, 64, 88
4, 28076, Note_off_c, 0, 64, 0
4, 28080, Note_on_c, 0, 66, 88
4, 28196, Note_off_c, 0, 66, 0
4, 28200, Note_on_c, 0, 68, 88
4, 28316, Note_off_c, 0, 68, 0
4, 28320, Note_on_c, 0, 69, 88
4, 28378, Note_off_c, 0, 69, 0
4, 28380, Note_on_c, 0, 57, 88
4, 28438, Note_off_c, 0, 57, 0
4, 28440, Note_on_c, 0, 69, 88
4, 28615, Note_off_c, 0, 69, 0
4, 28620, Note_on_c, 0, 68, 88
4, 28678, Note_off_c, 0, 68, 0
4, 28680, Note_on_c, 0, 76, 88
4, 28738, Note_off_c, 0, 76, 0
4, 28740, Note_on_c, 0, 67, 88
4, 28858, Note_off_c, 0, 67, 0
4, 28860, Note_on_c, 0, 66, 88
4, 28889, Note_off_c, 0, 66, 0
4, 28890, Note_on_c, 0, 64, 88
4, 28919, Note_off_c, 0, 64, 0
4, 28920, Note_on_c, 0, 66, 88
4, 28978, Note_off_c, 0, 66, 0
4, 28980, Note_on_c, 0, 62, 88
4, 29038, Note_off_c, 0, 62, 0
4, 29040, Note_on_c, 0, 64, 88
4, 29156, Note_off_c, 0, 64, 0
4, 29160, Note_on_c, 0, 66, 88
4, 29276, Note_off_c, 0, 66, 0
4, 29280, Note_on_c, 0, 67, 88
4, 29338, Note_off_c, 0, 67, 0
4, 29340, Note_on_c, 0, 55, 88
4, 29398, Note_off_c, 0, 55, 0
4, 29400, Note_on_c, 0, 67, 88
4, 29575, Note_off_c, 0, 67, 0
4, 29580, Note_on_c, 0, 66, 88
4, 29638, Note_off_c, 0, 66, 0
4, 29640, Note_on_c, 0, 74, 88
4, 29698, Note_off_c, 0, 74, 0
4, 29700, Note_on_c, 0, 65, 88
4, 29818, Note_off_c, 0, 65, 0
4, 29820, Note_on_c, 0, 64, 88
4, 29849, Note_off_c, 0, 64, 0
4, 29850, Note_on_c, 0, 62, 88
4, 29879, Note_off_c, 0, 62, 0
4, 29880, Note_on_c, 0, 64, 88
4, 29938, Note_off_c, 0, 64, 0
4, 29940, Note_on_c, 0, 76, 88
4, 30056, Note_off_c, 0, 76, 0
4, 30060, Note_on_c, 0, 77, 88
4, 30089, Note_off_c, 0, 77, 0
4, 30090, Note_on_c, 0, 76, 88
4, 30119, Note_off_c, 0, 76, 0
4, 30120, Note_on_c, 0, 74, 88
4, 30149, Note_off_c, 0, 74, 0
4, 30150, Note_on_c, 0, 72, 88
4, 30179, Note_off_c, 0, 72, 0
4, 30180, Note_on_c, 0, 71, 88
4, 30209, Note_off_c, 0, 71, 0
4, 30210, Note_on_c, 0, 69, 88
4, 30239, Note_off_c, 0, 69, 0
4, 30240, Note_on_c, 0, 68, 88
4, 30710, Note_off_c, 0, 68, 0
4, 30720, Note_on_c, 0, 76, 88
4, 30836, Note_off_c, 0, 76, 0
4, 30840, Note_on_c, 0, 64, 88
4, 30956, Note_off_c, 0, 64, 0
4, 30960, Note_on_c, 0, 65, 88
4, 31076, Note_off_c, 0, 65, 0
4, 31080, Note_on_c, 0, 66, 88
4, 31196, Note_off_c, 0, 66, 0
4, 31200, Note_on_c, 0, 67, 88
4, 31316, Note_off_c, 0, 67, 0
4, 31320, Note_on_c, 0, 68, 88
4, 31436, Note_off_c, 0, 68, 0
4, 31440, Note_on_c, 0, 69, 88
4, 31556, Note_off_c, 0, 69, 0
4, 31560, Note_on_c, 0, 71, 88
4, 31676, Note_off_c, 0, 71, 0
4, 31680, Note_on_c, 0, 72, 88
4, 31709, Note_off_c, 0, 72, 0
4, 31710, Note_on_c, 0, 77, 88
4, 31739, Note_off_c, 0, 77, 0
4, 31740, Note_on_c, 0, 76, 88
4, 31769, Note_off_c, 0, 76, 0
4, 31770, Note_on_c, 0, 74, 88
4, 31799, Note_off_c, 0, 74, 0
4, 31800, Note_on_c, 0, 73, 88
4, 31858, Note_off_c, 0, 73, 0
4, 31860, Note_on_c, 0, 78, 88
4, 31918, Note_off_c, 0, 78, 0
4, 31920, Note_on_c, 0, 79, 88
4, 31978, Note_off_c, 0, 79, 0
4, 31980, Note_on_c, 0, 75, 88
4, 32038, Note_off_c, 0, 75, 0
4, 32040, Note_on_c, 0, 74, 88
4, 32098, Note_off_c, 0, 74, 0
4, 32100, Note_on_c, 0, 80, 88
4, 32158, Note_off_c, 0, 80, 0
4, 32160, Note_on_c, 0, 81, 88
4, 32218, Note_off_c, 0, 81, 0
4, 32220, Note_on_c, 0, 77, 88
4, 32278, Note_off_c, 0, 77, 0
4, 32280, Note_on_c, 0, 76, 88
4, 32338, Note_off_c, 0, 76, 0
4, 32340, Note_on_c, 0, 82, 88
4, 32456, Note_off_c, 0, 82, 0
4, 32460, Note_on_c, 0, 81, 88
4, 32576, Note_off_c, 0, 81, 0
4, 32580, Note_on_c, 0, 80, 88
4, 32638, Note_off_c, 0, 80, 0
4, 32640, Note_on_c, 0, 81, 88
4, 32669, Note_off_c, 0, 81, 0
4, 32670, Note_on_c, 0, 79, 88
4, 32699, Note_off_c, 0, 79, 0
4, 32700, Note_on_c, 0, 77, 88
4, 32729, Note_off_c, 0, 77, 0
4, 32730, Note_on_c, 0, 76, 88
4, 32759, Note_off_c, 0, 76, 0
4, 32760, Note_on_c, 0, 77, 88
4, 32818, Note_off_c, 0, 77, 0
4, 32820, Note_on_c, 0, 70, 88
4, 32878, Note_off_c, 0, 70, 0
4, 32880, Note_on_c, 0, 69, 88
4, 32938, Note_off_c, 0, 69, 0
4, 32940, Note_on_c, 0, 76, 88
4, 32998, Note_off_c, 0, 76, 0
4, 33000, Note_on_c, 0, 74, 88
4, 33058, Note_off_c, 0, 74, 0
4, 33060, Note_on_c, 0, 68, 88
4, 33147, Note_off_c, 0, 68, 0
4, 33150, Note_on_c, 0, 74, 88
4, 33179, Note_off_c, 0, 74, 0
4, 33180, Note_on_c, 0, 72, 88
4, 33209, Note_off_c, 0, 72, 0
4, 33210, Note_on_c, 0, 71, 88
4, 33239, Note_off_c, 0, 71, 0
4, 33240, Note_on_c, 0, 69, 88
4, 33298, Note_off_c, 0, 69, 0
4, 33300, Note_on_c, 0, 76, 88
4, 33358, Note_off_c, 0, 76, 0
4, 33360, Note_on_c, 0, 74, 88
4, 33418, Note_off_c, 0, 74, 0
4, 33420, Note_on_c, 0, 67, 88
4, 33478, Note_off_c, 0, 67, 0
4, 33480, Note_on_c, 0, 66, 88
4, 33538, Note_off_c, 0, 66, 0
4, 33540, Note_on_c, 0, 72, 88
4, 33598, Note_off_c, 0, 72, 0
4, 33600, Note_on_c, 0, 71, 88
4, 33716, Note_off_c, 0, 71, 0
4, 33720, Note_on_c, 0, 79, 88
4, 33836, Note_off_c, 0, 79, 0
4, 33840, Note_on_c, 0, 77, 88
4, 33956, Note_off_c, 0, 77, 0
4, 33960, Note_on_c, 0, 76, 88
4, 34076, Note_off_c, 0, 76, 0
4, 34080, Note_on_c, 0, 74, 88
4, 34196, Note_off_c, 0, 74, 0
4, 34200, Note_on_c, 0, 77, 88
4, 34316, Note_off_c, 0, 77, 0
4, 34320, Note_on_c, 0, 76, 88
4, 34436, Note_off_c, 0, 76, 0
4, 34440, Note_on_c, 0, 74, 88
4, 34676, Note_off_c, 0, 74, 0
4, 34680, Note_on_c, 0, 72, 88
4, 34738, Note_off_c, 0, 72, 0
4, 34740, Note_on_c, 0, 71, 88
4, 34798, Note_off_c, 0, 71, 0
4, 34800, Note_on_c, 0, 72, 88
4, 34916, Note_off_c, 0, 72, 0
4, 34920, Note_on_c, 0, 73, 88
4, 35036, Note_off_c, 0, 73, 0
4, 35040, Note_on_c, 0, 74, 88
4, 35156, Note_off_c, 0, 74, 0
4, 35160, Note_on_c, 0, 75, 88
4, 35276, Note_off_c, 0, 75, 0
4, 35280, Note_on_c, 0, 76, 88
4, 35396, Note_off_c, 0, 76, 0
4, 35400, Note_on_c, 0, 78, 88
4, 35516, Note_off_c, 0, 78, 0
4, 35520, Note_on_c, 0, 79, 88
4, 35549, Note_off_c, 0, 79, 0
4, 35550, Note_on_c, 0, 77, 88
4, 35579, Note_off_c, 0, 77, 0
4, 35580, Note_on_c, 0, 76, 88
4, 35609, Note_off_c, 0, 76, 0
4, 35610, Note_on_c, 0, 74, 88
4, 35639, Note_off_c, 0, 74, 0
4, 35640, Note_on_c, 0, 73, 88
4, 35698, Note_off_c, 0, 73, 0
4, 35700, Note_on_c, 0, 80, 88
4, 35758, Note_off_c, 0, 80, 0
4, 35760, Note_on_c, 0, 81, 88
4, 35818, Note_off_c, 0, 81, 0
4, 35820, Note_on_c, 0, 75, 88
4, 35878, Note_off_c, 0, 75, 0
4, 35880, Note_on_c, 0, 74, 88
4, 35938, Note_off_c, 0, 74, 0
4, 35940, Note_on_c, 0, 82, 88
4, 35998, Note_off_c, 0, 82, 0
4, 36000, Note_on_c, 0, 83, 88
4, 36058, Note_off_c, 0, 83, 0
4, 36060, Note_on_c, 0, 77, 88
4, 36118, Note_off_c, 0, 77, 0
4, 36120, Note_on_c, 0, 76, 88
4, 36178, Note_off_c, 0, 76, 0
4, 36180, Note_on_c, 0, 74, 88
4, 36296, Note_off_c, 0, 74, 0
4, 36300, Note_on_c, 0, 72, 88
4, 36416, Note_off_c, 0, 72, 0
4, 36420, Note_on_c, 0, 71, 88
4, 36538, Note_off_c, 0, 71, 0
4, 36540, Note_on_c, 0, 69, 88
4, 36569, Note_off_c, 0, 69, 0
4, 36570, Note_on_c, 0, 71, 88
4, 36599, Note_off_c, 0, 71, 0
4, 36600, Note_on_c, 0, 72, 88
4, 36658, Note_off_c, 0, 72, 0
4, 36660, Note_on_c, 0, 63, 88
4, 36718, Note_off_c, 0, 63, 0
4, 36720, Note_on_c, 0, 64, 88
4, 36778, Note_off_c, 0, 64, 0
4, 36780, Note_on_c, 0, 73, 88
4, 36838, Note_off_c, 0, 73, 0
4, 36840, Note_on_c, 0, 74, 88
4, 36898, Note_off_c, 0, 74, 0
4, 36900, Note_on_c, 0, 65, 88
4, 36958, Note_off_c, 0, 65, 0
4, 36960, Note_on_c, 0, 67, 88
4, 37076, Note_off_c, 0, 67, 0
4, 37080, Note_on_c, 0, 74, 88
4, 37196, Note_off_c, 0, 74, 0
4, 37200, Note_on_c, 0, 73, 88
4, 37316, Note_off_c, 0, 73, 0
4, 37320, Note_on_c, 0, 70, 88
4, 37469, Note_off_c, 0, 70, 0
4, 37470, Note_on_c, 0, 69, 88
4, 37499, Note_off_c, 0, 69, 0
4, 37500, Note_on_c, 0, 67, 88
4, 37529, Note_off_c, 0, 67, 0
4, 37530, Note_on_c, 0, 69, 88
4, 37559, Note_off_c, 0, 69, 0
4, 37560, Note_on_c, 0, 70, 88
4, 37618, Note_off_c, 0, 70, 0
4, 37620, Note_on_c, 0, 61, 88
4, 37678, Note_off_c, 0, 61, 0
4, 37680, Note_on_c, 0, 62, 88
4, 37738, Note_off_c, 0, 62, 0
4, 37740, Note_on_c, 0, 71, 88
4, 37798, Note_off_c, 0, 71, 0
4, 37800, Note_on_c, 0, 72, 88
4, 37858, Note_off_c, 0, 72, 0
4, 37860, Note_on_c, 0, 64, 88
4, 37918, Note_off_c, 0, 64, 0
4, 37920, Note_on_c, 0, 66, 88
4, 38036, Note_off_c, 0, 66, 0
4, 38040, Note_on_c, 0, 72, 88
4, 38156, Note_off_c, 0, 72, 0
4, 38160, Note_on_c, 0, 71, 88
4, 38276, Note_off_c, 0, 71, 0
4, 38280, Note_on_c, 0, 68, 88
4, 38429, Note_off_c, 0, 68, 0
4, 38430, Note_on_c, 0, 67, 88
4, 38459, Note_off_c, 0, 67, 0
4, 38460, Note_on_c, 0, 69, 88
4, 38489, Note_off_c, 0, 69, 0
4, 38490, Note_on_c, 0, 71, 88
4, 38519, Note_off_c, 0, 71, 0
4, 38520, Note_on_c, 0, 72, 88
4, 38578, Note_off_c, 0, 72, 0
4, 38580, Note_on_c, 0, 67, 88
4, 38638, Note_off_c, 0, 67, 0
4, 38640, Note_on_c, 0, 66, 88
4, 38698, Note_off_c, 0, 66, 0
4, 38700, Note_on_c, 0, 70, 88
4, 38758, Note_off_c, 0, 70, 0
4, 38760, Note_on_c, 0, 71, 88
4, 38818, Note_off_c, 0, 71, 0
4, 38820, Note_on_c, 0, 65, 88
4, 38878, Note_off_c, 0, 65, 0
4, 38880, Note_on_c, 0, 64, 88
4, 38938, Note_off_c, 0, 64, 0
4, 38940, Note_on_c, 0, 68, 88
4, 38998, Note_off_c, 0, 68, 0
4, 39000, Note_on_c, 0, 69, 88
4, 39058, Note_off_c, 0, 69, 0
4, 39060, Note_on_c, 0, 63, 88
4, 39176, Note_off_c, 0, 63, 0
4, 39180, Note_on_c, 0, 64, 88
4, 39296, Note_off_c, 0, 64, 0
4, 39300, Note_on_c, 0, 65, 88
4, 39358, Note_off_c, 0, 65, 0
4, 39360, Note_on_c, 0, 59, 88
4, 39476, Note_off_c, 0, 59, 0
4, 39480, Note_on_c, 0, 76, 88
4, 39596, Note_off_c, 0, 76, 0
4, 39600, Note_on_c, 0, 77, 88
4, 39716, Note_off_c, 0, 77, 0
4, 39720, Note_on_c, 0, 78, 88
4, 39836, Note_off_c, 0, 78, 0
4, 39840, Note_on_c, 0, 79, 88
4, 39956, Note_off_c, 0, 79, 0
4, 39960, Note_on_c, 0, 80, 88
4, 40076, Note_off_c, 0, 80, 0
4, 40080, Note_on_c, 0, 81, 88
4, 40196, Note_off_c, 0, 81, 0
4, 40200, Note_on_c, 0, 83, 88
4, 40378, Note_off_c, 0, 83, 0
4, 40380, Note_on_c, 0, 81, 88
4, 40409, Note_off_c, 0, 81, 0
4, 40410, Note_on_c, 0, 83, 88
4, 40439, Note_off_c, 0, 83, 0
4, 40440, Note_on_c, 0, 84, 88
4, 40498, Note_off_c, 0, 84, 0
4, 40500, Note_on_c, 0, 76, 88
4, 40616, Note_off_c, 0, 76, 0
4, 40620, Note_on_c, 0, 75, 88
4, 40678, Note_off_c, 0, 75, 0
4, 40680, Note_on_c, 0, 83, 88
4, 40738, Note_off_c, 0, 83, 0
4, 40740, Note_on_c, 0, 74, 88
4, 40827, Note_off_c, 0, 74, 0
4, 40830, Note_on_c, 0, 72, 88
4, 40859, Note_off_c, 0, 72, 0
4, 40860, Note_on_c, 0, 74, 88
4, 40889, Note_off_c, 0, 74, 0
4, 40890, Note_on_c, 0, 76, 88
4, 40919, Note_off_c, 0, 76, 0
4, 40920, Note_on_c, 0, 77, 88
4, 40978, Note_off_c, 0, 77, 0
4, 40980, Note_on_c, 0, 69, 88
4, 41096, Note_off_c, 0, 69, 0
4, 41100, Note_on_c, 0, 68, 88
4, 41158, Note_off_c, 0, 68, 0
4, 41160, Note_on_c, 0, 76, 88
4, 41218, Note_off_c, 0, 76, 0
4, 41220, Note_on_c, 0, 67, 88
4, 41309, Note_off_c, 0, 67, 0
4, 41310, Note_on_c, 0, 65, 88
4, 41339, Note_off_c, 0, 65, 0
4, 41340, Note_on_c, 0, 67, 88
4, 41369, Note_off_c, 0, 67, 0
4, 41370, Note_on_c, 0, 69, 88
4, 41399, Note_off_c, 0, 69, 0
4, 41400, Note_on_c, 0, 70, 88
4, 41458, Note_off_c, 0, 70, 0
4, 41460, Note_on_c, 0, 62, 88
4, 41576, Note_off_c, 0, 62, 0
4, 41580, Note_on_c, 0, 61, 88
4, 41638, Note_off_c, 0, 61, 0
4, 41640, Note_on_c, 0, 69, 88
4, 41698, Note_off_c, 0, 69, 0
4, 41700, Note_on_c, 0, 60, 88
4, 41816, Note_off_c, 0, 60, 0
4, 41820, Note_on_c, 0, 59, 88
4, 41878, Note_off_c, 0, 59, 0
4, 41880, Note_on_c, 0, 68, 88
4, 41938, Note_off_c, 0, 68, 0
4, 41940, Note_on_c, 0, 59, 88
4, 42056, Note_off_c, 0, 59, 0
4, 42060, Note_on_c, 0, 57, 88
4, 42118, Note_off_c, 0, 57, 0
4, 42120, Note_on_c, 0, 65, 88
4, 42178, Note_off_c, 0, 65, 0
4, 42180, Note_on_c, 0, 57, 88
4, 42298, Note_off_c, 0, 57, 0
4, 42300, Note_on_c, 0, 56, 88
4, 42329, Note_off_c, 0, 56, 0
4, 42330, Note_on_c, 0, 54, 88
4, 42359, Note_off_c, 0, 54, 0
4, 42360, Note_on_c, 0, 56, 88
4, 42418, Note_off_c, 0, 56, 0
4, 42420, Note_on_c, 0, 62, 88
4, 42507, Note_off_c, 0, 62, 0
4, 42510, Note_on_c, 0, 60, 88
4, 42539, Note_off_c, 0, 60, 0
4, 42540, Note_on_c, 0, 59, 88
4, 42569, Note_off_c, 0, 59, 0
4, 42570, Note_on_c, 0, 57, 88
4, 42599, Note_off_c, 0, 57, 0
4, 42600, Note_on_c, 0, 59, 88
4, 42658, Note_off_c, 0, 59, 0
4, 42660, Note_on_c, 0, 65, 88
4, 42747, Note_off_c, 0, 65, 0
4, 42750, Note_on_c, 0, 64, 88
4, 42779, Note_off_c, 0, 64, 0
4, 42780, Note_on_c, 0, 62, 88
4, 42809, Note_off_c, 0, 62, 0
4, 42810, Note_on_c, 0, 61, 88
4, 42839, Note_off_c, 0, 61, 0
4, 42840, Note_on_c, 0, 62, 88
4, 42898, Note_off_c, 0, 62, 0
4, 42900, Note_on_c, 0, 71, 88
4, 42987, Note_off_c, 0, 71, 0
4, 42990, Note_on_c, 0, 69, 88
4, 43019, Note_off_c, 0, 69, 0
4, 43020, Note_on_c, 0, 68, 88
4, 43049, Note_off_c, 0, 68, 0
4, 43050, Note_on_c, 0, 66, 88
4, 43079, Note_off_c, 0, 66, 0
4, 43080, Note_on_c, 0, 68, 88
4, 43138, Note_off_c, 0, 68, 0
4, 43140, Note_on_c, 0, 74, 88
4, 43258, Note_off_c, 0, 74, 0
4, 43260, Note_on_c, 0, 72, 88
4, 43289, Note_off_c, 0, 72, 0
4, 43290, Note_on_c, 0, 71, 88
4, 43319, Note_off_c, 0, 71, 0
4, 43320, Note_on_c, 0, 72, 88
4, 43378, Note_off_c, 0, 72, 0
4, 43380, Note_on_c, 0, 69, 88
4, 43438, Note_off_c, 0, 69, 0
4, 43440, Note_on_c, 0, 70, 88
4, 43556, Note_off_c, 0, 70, 0
4, 43560, Note_on_c, 0, 71, 88
4, 43676, Note_off_c, 0, 71, 0
4, 43680, Note_on_c, 0, 72, 88
4, 43796, Note_off_c, 0, 72, 0
4, 43800, Note_on_c, 0, 73, 88
4, 43916, Note_off_c, 0, 73, 0
4, 43920, Note_on_c, 0, 74, 88
4, 44036, Note_off_c, 0, 74, 0
4, 44040, Note_on_c, 0, 76, 88
4, 44189, Note_off_c, 0, 76, 0
4, 44190, Note_on_c, 0, 73, 88
4, 44219, Note_off_c, 0, 73, 0
4, 44220, Note_on_c, 0, 74, 88
4, 44249, Note_off_c, 0, 74, 0
4, 44250, Note_on_c, 0, 76, 88
4, 44279, Note_off_c, 0, 76, 0
4, 44280, Note_on_c, 0, 77, 88
4, 44338, Note_off_c, 0, 77, 0
4, 44340, Note_on_c, 0, 72, 88
4, 44398, Note_off_c, 0, 72, 0
4, 44400, Note_on_c, 0, 71, 88
4, 44458, Note_off_c, 0, 71, 0
4, 44460, Note_on_c, 0, 75, 88
4, 44518, Note_off_c, 0, 75, 0
4, 44520, Note_on_c, 0, 76, 88
4, 44578, Note_off_c, 0, 76, 0
4, 44580, Note_on_c, 0, 70, 88
4, 44638, Note_off_c, 0, 70, 0
4, 44640, Note_on_c, 0, 69, 88
4, 44698, Note_off_c, 0, 69, 0
4, 44700, Note_on_c, 0, 73, 88
4, 44758, Note_off_c, 0, 73, 0
4, 44760, Note_on_c, 0, 74, 88
4, 44818, Note_off_c, 0, 74, 0
4, 44820, Note_on_c, 0, 68, 88
4, 44936, Note_off_c, 0, 68, 0
4, 44940, Note_on_c, 0, 69, 88
4, 45056, Note_off_c, 0, 69, 0
4, 45060, Note_on_c, 0, 71, 88
4, 45118, Note_off_c, 0, 71, 0
4, 45120, Note_on_c, 0, 64, 88
4, 45178, Note_off_c, 0, 64, 0
4, 45180, Note_on_c, 0, 76, 88
4, 45267, Note_off_c, 0, 76, 0
4, 45270, Note_on_c, 0, 74, 88
4, 45299, Note_off_c, 0, 74, 0
4, 45300, Note_on_c, 0, 72, 88
4, 45329, Note_off_c, 0, 72, 0
4, 45330, Note_on_c, 0, 71, 88
4, 45359, Note_off_c, 0, 71, 0
4, 45360, Note_on_c, 0, 74, 88
4, 45389, Note_off_c, 0, 74, 0
4, 45390, Note_on_c, 0, 72, 88
4, 45419, Note_off_c, 0, 72, 0
4, 45420, Note_on_c, 0, 71, 88
4, 45449, Note_off_c, 0, 71, 0
4, 45450, Note_on_c, 0, 69, 88
4, 45479, Note_off_c, 0, 69, 0
4, 45480, Note_on_c, 0, 72, 88
4, 45509, Note_off_c, 0, 72, 0
4, 45510, Note_on_c, 0, 71, 88
4, 45539, Note_off_c, 0, 71, 0
4, 45540, Note_on_c, 0, 69, 88
4, 45569, Note_off_c, 0, 69, 0
4, 45570, Note_on_c, 0, 68, 88
4, 45599, Note_off_c, 0, 68, 0
4, 45600, Note_on_c, 0, 69, 88
4, 46070, Note_off_c, 0, 69, 0
4, 46080, Note_on_c, 0, 76, 88
4, 46196, Note_off_c, 0, 76, 0
4, 46200, Note_on_c, 0, 64, 88
4, 46316, Note_off_c, 0, 64, 0
4, 46320, Note_on_c, 0, 65, 88
4, 46436, Note_off_c, 0, 65, 0
4, 46440, Note_on_c, 0, 66, 88
4, 46556, Note_off_c, 0, 66, 0
4, 46560, Note_on_c, 0, 67, 88
4, 46676, Note_off_c, 0, 67, 0
4, 46680, Note_on_c, 0, 68, 88
4, 46796, Note_off_c, 0, 68, 0
4, 46800, Note_on_c, 0, 69, 88
4, 46916, Note_off_c, 0, 69, 0
4, 46920, Note_on_c, 0, 71, 88
4, 47036, Note_off_c, 0, 71, 0
4, 47040, Note_on_c, 0, 72, 88
4, 47069, Note_off_c, 0, 72, 0
4, 47070, Note_on_c, 0, 77, 88
4, 47099, Note_off_c, 0, 77, 0
4, 47100, Note_on_c, 0, 76, 88
4, 47129, Note_off_c, 0, 76, 0
4, 47130, Note_on_c, 0, 74, 88
4, 47159, Note_off_c, 0, 74, 0
4, 47160, Note_on_c, 0, 73, 88
4, 47218, Note_off_c, 0, 73, 0
4, 47220, Note_on_c, 0, 78, 88
4, 47278, Note_off_c, 0, 78, 0
4, 47280, Note_on_c, 0, 79, 88
4, 47338, Note_off_c, 0, 79, 0
4, 47340, Note_on_c, 0, 75, 88
4, 47398, Note_off_c, 0, 75, 0
4, 47400, Note_on_c, 0, 74, 88
4, 47458, Note_off_c, 0, 74, 0
4, 47460, Note_on_c, 0, 80, 88
4, 47518, Note_off_c, 0, 80, 0
4, 47520, Note_on_c, 0, 81, 88
4, 47578, Note_off_c, 0, 81, 0
4, 47580, Note_on_c, 0, 77, 88
4, 47638, Note_off_c, 0, 77, 0
4, 47640, Note_on_c, 0, 76, 88
4, 47698, Note_off_c, 0, 76, 0
4, 47700, Note_on_c, 0, 82, 88
4, 47816, Note_off_c, 0, 82, 0
4, 47820, Note_on_c, 0, 81, 88
4, 47936, Note_off_c, 0, 81, 0
4, 47940, Note_on_c, 0, 80, 88
4, 47998, Note_off_c, 0, 80, 0
4, 48000, Note_on_c, 0, 81, 88
4, 48029, Note_off_c, 0, 81, 0
4, 48030, Note_on_c, 0, 79, 88
4, 48059, Note_off_c, 0, 79, 0
4, 48060, Note_on_c, 0, 77, 88
4, 48089, Note_off_c, 0, 77, 0
4, 48090, Note_on_c, 0, 76, 88
4, 48119, Note_off_c, 0, 76, 0
4, 48120, Note_on_c, 0, 77, 88
4, 48178, Note_off_c, 0, 77, 0
4, 48180, Note_on_c, 0, 70, 88
4, 48238, Note_off_c, 0, 70, 0
4, 48240, Note_on_c, 0, 69, 88
4, 48298, Note_off_c, 0, 69, 0
4, 48300, Note_on_c, 0, 76, 88
4, 48358, Note_off_c, 0, 76, 0
4, 48360, Note_on_c, 0, 74, 88
4, 48418, Note_off_c, 0, 74, 0
4, 48420, Note_on_c, 0, 68, 88
4, 48507, Note_off_c, 0, 68, 0
4, 48510, Note_on_c, 0, 74, 88
4, 48539, Note_off_c, 0, 74, 0
4, 48540, Note_on_c, 0, 72, 88
4, 48569, Note_off_c, 0, 72, 0
4, 48570, Note_on_c, 0, 71, 88
4, 48599, Note_off_c, 0, 71, 0
4, 48600, Note_on_c, 0, 69, 88
4, 48658, Note_off_c, 0, 69, 0
4, 48660, Note_on_c, 0, 76, 88
4, 48718, Note_off_c, 0, 76, 0
4, 48720, Note_on_c, 0, 74, 88
4, 48778, Note_off_c, 0, 74, 0
4, 48780, Note_on_c, 0, 67, 88
4, 48838, Note_off_c, 0, 67, 0
4, 48840, Note_on_c, 0, 66, 88
4, 48898, Note_off_c, 0, 66, 0
4, 48900, Note_on_c, 0, 72, 88
4, 48958, Note_off_c, 0, 72, 0
4, 48960, Note_on_c, 0, 71, 88
4, 49076, Note_off_c, 0, 71, 0
4, 49080, Note_on_c, 0, 79, 88
4, 49196, Note_off_c, 0, 79, 0
4, 49200, Note_on_c, 0, 77, 88
4, 49316, Note_off_c, 0, 77, 0
4, 49320, Note_on_c, 0, 76, 88
4, 49436, Note_off_c, 0, 76, 0
4, 49440, Note_on_c, 0, 74, 88
4, 49556, Note_off_c, 0, 74, 0
4, 49560, Note_on_c, 0, 77, 88
4, 49676, Note_off_c, 0, 77, 0
4, 49680, Note_on_c, 0, 76, 88
4, 49796, Note_off_c, 0, 76, 0
4, 49800, Note_on_c, 0, 74, 88
4, 50036, Note_off_c, 0, 74, 0
4, 50040, Note_on_c, 0, 72, 88
4, 50098, Note_off_c, 0, 72, 0
4, 50100, Note_on_c, 0, 71, 88
4, 50158, Note_off_c, 0, 71, 0
4, 50160, Note_on_c, 0, 72, 88
4, 50276, Note_off_c, 0, 72, 0
4, 50280, Note_on_c, 0, 73, 88
4, 50396, Note_off_c, 0, 73, 0
4, 50400, Note_on_c, 0, 74, 88
4, 50516, Note_off_c, 0, 74, 0
4, 50520, Note_on_c, 0, 75, 88
4, 50636, Note_off_c, 0, 75, 0
4, 50640, Note_on_c, 0, 76, 88
4, 50756, Note_off_c, 0, 76, 0
4, 50760, Note_on_c, 0, 78, 88
4, 50876, Note_off_c, 0, 78, 0
4, 50880, Note_on_c, 0, 79, 88
4, 50909, Note_off_c, 0, 79, 0
4, 50910, Note_on_c, 0, 77, 88
4, 50939, Note_off_c, 0, 77, 0
4, 50940, Note_on_c, 0, 76, 88
4, 50969, Note_off_c, 0, 76, 0
4, 50970, Note_on_c, 0, 74, 88
4, 50999, Note_off_c, 0, 74, 0
4, 51000, Note_on_c, 0, 73, 88
4, 51058, Note_off_c, 0, 73, 0
4, 51060, Note_on_c, 0, 80, 88
4, 51118, Note_off_c, 0, 80, 0
4, 51120, Note_on_c, 0, 81, 88
4, 51178, Note_off_c, 0, 81, 0
4, 51180, Note_on_c, 0, 75, 88
4, 51238, Note_off_c, 0, 75, 0
4, 51240, Note_on_c, 0, 74, 88
4, 51298, Note_off_c, 0, 74, 0
4, 51300, Note_on_c, 0, 82, 88
4, 51358, Note_off_c, 0, 82, 0
4, 51360, Note_on_c, 0, 83, 88
4, 51418, Note_off_c, 0, 83, 0
4, 51420, Note_on_c, 0, 77, 88
4, 51478, Note_off_c, 0, 77, 0
4, 51480, Note_on_c, 0, 76, 88
4, 51538, Note_off_c, 0, 76, 0
4, 51540, Note_on_c, 0, 74, 88
4, 51656, Note_off_c, 0, 74, 0
4, 51660, Note_on_c, 0, 72, 88
4, 51776, Note_off_c, 0, 72, 0
4, 51780, Note_on_c, 0, 71, 88
4, 51898, Note_off_c, 0, 71, 0
4, 51900, Note_on_c, 0, 69, 88
4, 51929, Note_off_c, 0, 69, 0
4, 51930, Note_on_c, 0, 71, 88
4, 51959, Note_off_c, 0, 71, 0
4, 51960, Note_on_c, 0, 72, 88
4, 52018, Note_off_c, 0, 72, 0
4, 52020, Note_on_c, 0, 63, 88
4, 52078, Note_off_c, 0, 63, 0
4, 52080, Note_on_c, 0, 64, 88
4, 52138, Note_off_c, 0, 64, 0
4, 52140, Note_on_c, 0, 73, 88
4, 52198, Note_off_c, 0, 73, 0
4, 52200, Note_on_c, 0, 74, 88
4, 52258, Note_off_c, 0, 74, 0
4, 52260, Note_on_c, 0, 65, 88
4, 52318, Note_off_c, 0, 65, 0
4, 52320, Note_on_c, 0, 67, 88
4, 52436, Note_off_c, 0, 67, 0
4, 52440, Note_on_c, 0, 74, 88
4, 52556, Note_off_c, 0, 74, 0
4, 52560, Note_on_c, 0, 73, 88
4, 52676, Note_off_c, 0, 73, 0
4, 52680, Note_on_c, 0, 70, 88
4, 52829, Note_off_c, 0, 70, 0
4, 52830, Note_on_c, 0, 69, 88
4, 52859, Note_off_c, 0, 69, 0
4, 52860, Note_on_c, 0, 67, 88
4, 52889, Note_off_c, 0, 67, 0
4, 52890, Note_on_c, 0, 69, 88
4, 52919, Note_off_c, 0, 69, 0
4, 52920, Note_on_c, 0, 70, 88
4, 52978, Note_off_c, 0, 70, 0
4, 52980, Note_on_c, 0, 61, 88
4, 53038, Note_off_c, 0, 61, 0
4, 53040, Note_on_c, 0, 62, 88
4, 53098, Note_off_c, 0, 62, 0
4, 53100, Note_on_c, 0, 71, 88
4, 53158, Note_off_c, 0, 71, 0
4, 53160, Note_on_c, 0, 72, 88
4, 53218, Note_off_c, 0, 72, 0
4, 53220, Note_on_c, 0, 64, 88
4, 53278, Note_off_c, 0, 64, 0
4, 53280, Note_on_c, 0, 66, 88
4, 53396, Note_off_c, 0, 66, 0
4, 53400, Note_on_c, 0, 72, 88
4, 53516, Note_off_c, 0, 72, 0
4, 53520, Note_on_c, 0, 71, 88
4, 53636, Note_off_c, 0, 71, 0
4, 53640, Note_on_c, 0, 68, 88
4, 53789, Note_off_c, 0, 68, 0
4, 53790, Note_on_c, 0, 67, 88
4, 53819, Note_off_c, 0, 67, 0
4, 53820, Note_on_c, 0, 69, 88
4, 53849, Note_off_c, 0, 69, 0
4, 53850, Note_on_c, 0, 71, 88
4, 53879, Note_off_c, 0, 71, 0
4, 53880, Note_on_c, 0, 72, 88
4, 53938, Note_off_c, 0, 72, 0
4, 53940, Note_on_c, 0, 67, 88
4, 53998, Note_off_c, 0, 67, 0
4, 54000, Note_on_c, 0, 66, 88
4, 54058, Note_off_c, 0, 66, 0
4, 54060, Note_on_c, 0, 70, 88
4, 54118, Note_off_c, 0, 70, 0
4, 54120, Note_on_c, 0, 71, 88
4, 54178, Note_off_c, 0, 71, 0
4, 54180, Note_on_c, 0, 65, 88
4, 54238, Note_off_c, 0, 65, 0
4, 54240, Note_on_c, 0, 64, 88
4, 54298, Note_off_c, 0, 64, 0
4, 54300, Note_on_c, 0, 68, 88
4, 54358, Note_off_c, 0, 68, 0
4, 54360, Note_on_c, 0, 69, 88
4, 54418, Note_off_c, 0, 69, 0
4, 54420, Note_on_c, 0, 63, 88
4, 54536, Note_off_c, 0, 63, 0
4, 54540, Note_on_c, 0, 64, 88
4, 54656, Note_off_c, 0, 64, 0
4, 54660, Note_on_c, 0, 65, 88
4, 54718, Note_off_c, 0, 65, 0
4, 54720, Note_on_c, 0, 59, 88
4, 54836, Note_off_c, 0, 59, 0
4, 54840, Note_on_c, 0, 76, 88
4, 54956, Note_off_c, 0, 76, 0
4, 54960, Note_on_c, 0, 77, 88
4, 55076, Note_off_c, 0, 77, 0
4, 55080, Note_on_c, 0, 78, 88
4, 55196, Note_off_c, 0, 78, 0
4, 55200, Note_on_c, 0, 79, 88
4, 55316, Note_off_c, 0, 79, 0
4, 55320, Note_on_c, 0, 80, 88
4, 55436, Note_off_c, 0, 80, 0
4, 55440, Note_on_c, 0, 81, 88
4, 55556, Note_off_c, 0, 81, 0
4, 55560, Note_on_c, 0, 83, 88
4, 55738, Note_off_c, 0, 83, 0
4, 55740, Note_on_c, 0, 81, 88
4, 55769, Note_off_c, 0, 81, 0
4, 55770, Note_on_c, 0, 83, 88
4, 55799, Note_off_c, 0, 83, 0
4, 55800, Note_on_c, 0, 84, 88
4, 55858, Note_off_c, 0, 84, 0
4, 55860, Note_on_c, 0, 76, 88
4, 55976, Note_off_c, 0, 76, 0
4, 55980, Note_on_c, 0, 75, 88
4, 56038, Note_off_c, 0, 75, 0
4, 56040, Note_on_c, 0, 83, 88
4, 56098, Note_off_c, 0, 83, 0
4, 56100, Note_on_c, 0, 74, 88
4, 56187, Note_off_c, 0, 74, 0
4, 56190, Note_on_c, 0, 72, 88
4, 56219, Note_off_c, 0, 72, 0
4, 56220, Note_on_c, 0, 74, 88
4, 56249, Note_off_c, 0, 74, 0
4, 56250, Note_on_c, 0, 76, 88
4, 56279, Note_off_c, 0, 76, 0
4, 56280, Note_on_c, 0, 77, 88
4, 56338, Note_off_c, 0, 77, 0
4, 56340, Note_on_c, 0, 69, 88
4, 56456, Note_off_c, 0, 69, 0
4, 56460, Note_on_c, 0, 68, 88
4, 56518, Note_off_c, 0, 68, 0
4, 56520, Note_on_c, 0, 76, 88
4, 56578, Note_off_c, 0, 76, 0
4, 56580, Note_on_c, 0, 67, 88
4, 56669, Note_off_c, 0, 67, 0
4, 56670, Note_on_c, 0, 65, 88
4, 56699, Note_off_c, 0, 65, 0
4, 56700, Note_on_c, 0, 67, 88
4, 56729, Note_off_c, 0, 67, 0
4, 56730, Note_on_c, 0, 69, 88
4, 56759, Note_off_c, 0, 69, 0
4, 56760, Note_on_c, 0, 70, 88
4, 56818, Note_off_c, 0, 70, 0
4, 56820, Note_on_c, 0, 62, 88
4, 56936, Note_off_c, 0, 62, 0
4, 56940, Note_on_c, 0, 61, 88
4, 56998, Note_off_c, 0, 61, 0
4, 57000, Note_on_c, 0, 69, 88
4, 57058, Note_off_c, 0, 69, 0
4, 57060, Note_on_c, 0, 60, 88
4, 57176, Note_off_c, 0, 60, 0
4, 57180, Note_on_c, 0, 59, 88
4, 57238, Note_off_c, 0, 59, 0
4, 57240, Note_on_c, 0, 68, 88
4, 57298, Note_off_c, 0, 68, 0
4, 57300, Note_on_c, 0, 59, 88
4, 57416, Note_off_c, 0, 59, 0
4, 57420, Note_on_c, 0, 57, 88
4, 57478, Note_off_c, 0, 57, 0
4, 57480, Note_on_c, 0, 65, 88
4, 57538, Note_off_c, 0, 65, 0
4, 57540, Note_on_c, 0, 57, 88
4, 57658, Note_off_c, 0, 57, 0
4, 57660, Note_on_c, 0, 56, 88
4, 57689, Note_off_c, 0, 56, 0
4, 57690, Note_on_c, 0, 54, 88
4, 57719, Note_off_c, 0, 54, 0
4, 57720, Note_on_c, 0, 56, 88
4, 57778, Note_off_c, 0, 56, 0
4, 57780, Note_on_c, 0, 62, 88
4, 57867, Note_off_c, 0, 62, 0
4, 57870, Note_on_c, 0, 60, 88
4, 57899, Note_off_c, 0, 60, 0
4, 57900, Note_on_c, 0, 59, 88
4, 57929, Note_off_c, 0, 59, 0
4, 57930, Note_on_c, 0, 57, 88
4, 57959, Note_off_c, 0, 57, 0
4, 57960, Note_on_c, 0, 59, 88
4, 58018, Note_off_c, 0, 59, 0
4, 58020, Note_on_c, 0, 65, 88
4, 58107, Note_off_c, 0, 65, 0
4, 58110, Note_on_c, 0, 64, 88
4, 58139, Note_off_c, 0, 64, 0
4, 58140, Note_on_c, 0, 62, 88
4, 58169, Note_off_c, 0, 62, 0
4, 58170, Note_on_c, 0, 61, 88
4, 58199, Note_off_c, 0, 61, 0
4, 58200, Note_on_c, 0, 62, 88
4, 58258, Note_off_c, 0, 62, 0
4, 58260, Note_on_c, 0, 71, 88
4, 58347, Note_off_c, 0, 71, 0
4, 58350, Note_on_c, 0, 69, 88
4, 58379, Note_off_c, 0, 69, 0
4, 58380, Note_on_c, 0, 68, 88
4, 58409, Note_off_c, 0, 68, 0
4, 58410, Note_on_c, 0, 66, 88
4, 58439, Note_off_c, 0, 66, 0
4, 58440, Note_on_c, 0, 68, 88
4, 58498, Note_off_c, 0, 68, 0
4, 58500, Note_on_c, 0, 74, 88
4, 58618, Note_off_c, 0, 74, 0
4, 58620, Note_on_c, 0, 72, 88
4, 58649, Note_off_c, 0, 72, 0
4, 58650, Note_on_c, 0, 71, 88
4, 58679, Note_off_c, 0, 71, 0
4, 58680, Note_on_c, 0, 72, 88
4, 58738, Note_off_c, 0, 72, 0
4, 58740, Note_on_c, 0, 69, 88
4, 58798, Note_off_c, 0, 69, 0
4, 58800, Note_on_c, 0, 70, 88
4, 58916, Note_off_c, 0, 70, 0
4, 58920, Note_on_c, 0, 71, 88
4, 59036, Note_off_c, 0, 71, 0
4, 59040, Note_on_c, 0, 72, 88
4, 59156, Note_off_c, 0, 72, 0
4, 59160, Note_on_c, 0, 73, 88
4, 59276, Note_off_c, 0, 73, 0
4, 59280, Note_on_c, 0, 74, 88
4, 59396, Note_off_c, 0, 74, 0
4, 59400, Note_on_c, 0, 76, 88
4, 59549, Note_off_c, 0, 76, 0
4, 59550, Note_on_c, 0, 73, 88
4, 59579, Note_off_c, 0, 73, 0
4, 59580, Note_on_c, 0, 74, 88
4, 59609, Note_off_c, 0, 74, 0
4, 59610, Note_on_c, 0, 76, 88
4, 59639, Note_off_c, 0, 76, 0
4, 59640, Note_on_c, 0, 77, 88
4, 59698, Note_off_c, 0, 77, 0
4, 59700, Note_on_c, 0, 72, 88
4, 59758, Note_off_c, 0, 72, 0
4, 59760, Note_on_c, 0, 71, 88
4, 59818, Note_off_c, 0, 71, 0
4, 59820, Note_on_c, 0, 75, 88
4, 59878, Note_off_c, 0, 75, 0
4, 59880, Note_on_c, 0, 76, 88
4, 59938, Note_off_c, 0, 76, 0
4, 59940, Note_on_c, 0, 70, 88
4, 59998, Note_off_c, 0, 70, 0
4, 60000, Note_on_c, 0, 69, 88
4, 60058, Note_off_c, 0, 69, 0
4, 60060, Note_on_c, 0, 73, 88
4, 60118, Note_off_c, 0, 73, 0
4, 60120, Note_on_c, 0, 74, 88
4, 60178, Note_off_c, 0, 74, 0
4, 60180, Note_on_c, 0, 68, 88
4, 60296, Note_off_c, 0, 68, 0
4, 60300, Note_on_c, 0, 69, 88
4, 60416, Note_off_c, 0, 69, 0
4, 60420, Note_on_c, 0, 71, 88
4, 60478, Note_off_c, 0, 71, 0
4, 60480, Note_on_c, 0, 64, 88
4, 60538, Note_off_c, 0, 64, 0
4, 60540, Note_on_c, 0, 76, 88
4, 60627, Note_off_c, 0, 76, 0
4, 60630, Note_on_c, 0, 74, 88
4, 60659, Note_off_c, 0, 74, 0
4, 60660, Note_on_c, 0, 72, 88
4, 60689, Note_off_c, 0, 72, 0
4, 60690, Note_on_c, 0, 71, 88
4, 60719, Note_off_c, 0, 71, 0
4, 60720, Note_on_c, 0, 74, 88
4, 60749, Note_off_c, 0, 74, 0
4, 60750, Note_on_c, 0, 72, 88
4, 60779, Note_off_c, 0, 72, 0
4, 60780, Note_on_c, 0, 71, 88
4, 60809, Note_off_c, 0, 71, 0
4, 60810, Note_on_c, 0, 69, 88
4, 60839, Note_off_c, 0, 69, 0
4, 60840, Note_on_c, 0, 72, 88
4, 60869, Note_off_c, 0, 72, 0
4, 60870, Note_on_c, 0, 71, 88
4, 60899, Note_off_c, 0, 71, 0
4, 60900, Note_on_c, 0, 69, 88
4, 60929, Note_off_c, 0, 69, 0
4, 60930, Note_on_c, 0, 68, 88
4, 60959, Note_off_c, 0, 68, 0
4, 60960, Note_on_c, 0, 69, 88
4, 61430, Note_off_c, 0, 69, 0
4, 61430, End_track
5, 0, Start_track
5, 0, Title_t, "Track 2"
5, 0, Program_c, 1, 6
5, 14910, Note_on_c, 1, 64, 88
5, 14939, Note_off_c, 1, 64, 0
5, 14940, Note_on_c, 1, 62, 88
5, 14969, Note_off_c, 1, 62, 0
5, 14970, Note_on_c, 1, 60, 88
5, 14999, Note_off_c, 1, 60, 0
5, 15000, Note_on_c, 1, 59, 88
5, 15029, Note_off_c, 1, 59, 0
5, 15030, Note_on_c, 1, 57, 88
5, 15059, Note_off_c, 1, 57, 0
5, 15060, Note_on_c, 1, 56, 88
5, 15089, Note_off_c, 1, 56, 0
5, 15090, Note_on_c, 1, 54, 88
5, 15119, Note_off_c, 1, 54, 0
5, 15120, Note_on_c, 1, 52, 88
5, 15236, Note_off_c, 1, 52, 0
5, 15240, Note_on_c, 1, 40, 88
5, 15356, Note_off_c, 1, 40, 0
5, 30270, Note_on_c, 1, 64, 88
5, 30299, Note_off_c, 1, 64, 0
5, 30300, Note_on_c, 1, 62, 88
5, 30329, Note_off_c, 1, 62, 0
5, 30330, Note_on_c, 1, 60, 88
5, 30359, Note_off_c, 1, 60, 0
5, 30360, Note_on_c, 1, 59, 88
5, 30389, Note_off_c, 1, 59, 0
5, 30390, Note_on_c, 1, 57, 88
5, 30419, Note_off_c, 1, 57, 0
5, 30420, Note_on_c, 1, 56, 88
5, 30449, Note_off_c, 1, 56, 0
5, 30450, Note_on_c, 1, 54, 88
5, 30479, Note_off_c, 1, 54, 0
5, 30480, Note_on_c, 1, 52, 88
5, 30596, Note_off_c, 1, 52, 0
5, 30600, Note_on_c, 1, 40, 88
5, 30716, Note_off_c, 1, 40, 0
5, 30716, End_track
6, 0, Start_track
6, 0, Title_t, "Track 3"
6, 0, Program_c, 2, 6
6, 0, Note_on_c, 2, 45, 88
6, 116, Note_off_c, 2, 45, 0
6, 120, Note_on_c, 2, 57, 88
6, 236, Note_off_c, 2, 57, 0
6, 240, Note_on_c, 2, 56, 88
6, 356, Note_off_c, 2, 56, 0
6, 360, Note_on_c, 2, 55, 88
6, 476, Note_off_c, 2, 55, 0
6, 480, Note_on_c, 2, 54, 88
6, 596, Note_off_c, 2, 54, 0
6, 600, Note_on_c, 2, 53, 88
6, 716, Note_off_c, 2, 53, 0
6, 720, Note_on_c, 2, 52, 88
6, 836, Note_off_c, 2, 52, 0
6, 840, Note_on_c, 2, 50, 88
6, 989, Note_off_c, 2, 50, 0
6, 990, Note_on_c, 2, 48, 88
6, 1019, Note_off_c, 2, 48, 0
6, 1020, Note_on_c, 2, 50, 88
6, 1049, Note_off_c, 2, 50, 0
6, 1050, Note_on_c, 2, 52, 88
6, 1079, Note_off_c, 2, 52, 0
6, 1080, Note_on_c, 2, 53, 88
6, 1138, Note_off_c, 2, 53, 0
6, 1140, Note_on_c, 2, 48, 88
6, 1198, Note_off_c, 2, 48, 0
6, 1200, Note_on_c, 2, 47, 88
6, 1258, Note_off_c, 2, 47, 0
6, 1260, Note_on_c, 2, 51, 88
6, 1318, Note_off_c, 2, 51, 0
6, 1320, Note_on_c, 2, 52, 88
6, 1378, Note_off_c, 2, 52, 0
6, 1380, Note_on_c, 2, 46, 88
6, 1438, Note_off_c, 2, 46, 0
6, 1440, Note_on_c, 2, 45, 88
6, 1498, Note_off_c, 2, 45, 0
6, 1500, Note_on_c, 2, 49, 88
6, 1558, Note_off_c, 2, 49, 0
6, 1560, Note_on_c, 2, 50, 88
6, 1618, Note_off_c, 2, 50, 0
6, 1620, Note_on_c, 2, 44, 88
6, 1736, Note_off_c, 2, 44, 0
6, 1740, Note_on_c, 2, 45, 88
6, 1856, Note_off_c, 2, 45, 0
6, 1860, Note_on_c, 2, 47, 88
6, 1918, Note_off_c, 2, 47, 0
6, 1920, Note_on_c, 2, 40, 88
6, 2036, Note_off_c, 2, 40, 0
6, 2040, Note_on_c, 2, 45, 88
6, 2156, Note_off_c, 2, 45, 0
6, 2160, Note_on_c, 2, 47, 88
6, 2276, Note_off_c, 2, 47, 0
6, 2280, Note_on_c, 2, 49, 88
6, 2396, Note_off_c, 2, 49, 0
6, 2400, Note_on_c, 2, 50, 88
6, 2516, Note_off_c, 2, 50, 0
6, 2520, Note_on_c, 2, 47, 88
6, 2636, Note_off_c, 2, 47, 0
6, 2640, Note_on_c, 2, 49, 88
6, 2756, Note_off_c, 2, 49, 0
6, 2760, Note_on_c, 2, 51, 88
6, 2876, Note_off_c, 2, 51, 0
6, 2880, Note_on_c, 2, 52, 88
6, 2996, Note_off_c, 2, 52, 0
6, 3000, Note_on_c, 2, 64, 88
6, 3116, Note_off_c, 2, 64, 0
6, 3120, Note_on_c, 2, 63, 88
6, 3236, Note_off_c, 2, 63, 0
6, 3240, Note_on_c, 2, 62, 88
6, 3356, Note_off_c, 2, 62, 0
6, 3360, Note_on_c, 2, 61, 88
6, 3476, Note_off_c, 2, 61, 0
6, 3480, Note_on_c, 2, 60, 88
6, 3596, Note_off_c, 2, 60, 0
6, 3600, Note_on_c, 2, 59, 88
6, 3716, Note_off_c, 2, 59, 0
6, 3720, Note_on_c, 2, 57, 88
6, 3869, Note_off_c, 2, 57, 0
6, 3870, Note_on_c, 2, 55, 88
6, 3899, Note_off_c, 2, 55, 0
6, 3900, Note_on_c, 2, 57, 88
6, 3929, Note_off_c, 2, 57, 0
6, 3930, Note_on_c, 2, 59, 88
6, 3959, Note_off_c, 2, 59, 0
6, 3960, Note_on_c, 2, 60, 88
6, 4018, Note_off_c, 2, 60, 0
6, 4020, Note_on_c, 2, 55, 88
6, 4078, Note_off_c, 2, 55, 0
6, 4080, Note_on_c, 2, 54, 88
6, 4138, Note_off_c, 2, 54, 0
6, 4140, Note_on_c, 2, 58, 88
6, 4198, Note_off_c, 2, 58, 0
6, 4200, Note_on_c, 2, 59, 88
6, 4258, Note_off_c, 2, 59, 0
6, 4260, Note_on_c, 2, 53, 88
6, 4318, Note_off_c, 2, 53, 0
6, 4320, Note_on_c, 2, 52, 88
6, 4378, Note_off_c, 2, 52, 0
6, 4380, Note_on_c, 2, 56, 88
6, 4438, Note_off_c, 2, 56, 0
6, 4440, Note_on_c, 2, 57, 88
6, 4498, Note_off_c, 2, 57, 0
6, 4500, Note_on_c, 2, 51, 88
6, 4616, Note_off_c, 2, 51, 0
6, 4620, Note_on_c, 2, 52, 88
6, 4736, Note_off_c, 2, 52, 0
6, 4740, Note_on_c, 2, 54, 88
6, 4798, Note_off_c, 2, 54, 0
6, 4800, Note_on_c, 2, 47, 88
6, 4916, Note_off_c, 2, 47, 0
6, 4920, Note_on_c, 2, 52, 88
6, 5036, Note_off_c, 2, 52, 0
6, 5040, Note_on_c, 2, 54, 88
6, 5156, Note_off_c, 2, 54, 0
6, 5160, Note_on_c, 2, 56, 88
6, 5276, Note_off_c, 2, 56, 0
6, 5280, Note_on_c, 2, 57, 88
6, 5338, Note_off_c, 2, 57, 0
6, 5340, Note_on_c, 2, 45, 88
6, 5398, Note_off_c, 2, 45, 0
6, 5400, Note_on_c, 2, 57, 88
6, 5575, Note_off_c, 2, 57, 0
6, 5580, Note_on_c, 2, 56, 88
6, 5638, Note_off_c, 2, 56, 0
6, 5640, Note_on_c, 2, 64, 88
6, 5698, Note_off_c, 2, 64, 0
6, 5700, Note_on_c, 2, 55, 88
6, 5818, Note_off_c, 2, 55, 0
6, 5820, Note_on_c, 2, 54, 88
6, 5849, Note_off_c, 2, 54, 0
6, 5850, Note_on_c, 2, 52, 88
6, 5879, Note_off_c, 2, 52, 0
6, 5880, Note_on_c, 2, 54, 88
6, 5938, Note_off_c, 2, 54, 0
6, 5940, Note_on_c, 2, 50, 88
6, 5998, Note_off_c, 2, 50, 0
6, 6000, Note_on_c, 2, 52, 88
6, 6116, Note_off_c, 2, 52, 0
6, 6120, Note_on_c, 2, 54, 88
6, 6236, Note_off_c, 2, 54, 0
6, 6240, Note_on_c, 2, 55, 88
6, 6298, Note_off_c, 2, 55, 0
6, 6300, Note_on_c, 2, 43, 88
6, 6358, Note_off_c, 2, 43, 0
6, 6360, Note_on_c, 2, 55, 88
6, 6535, Note_off_c, 2, 55, 0
6, 6540, Note_on_c, 2, 54, 88
6, 6598, Note_off_c, 2, 54, 0
6, 6600, Note_on_c, 2, 62, 88
6, 6658, Note_off_c, 2, 62, 0
6, 6660, Note_on_c, 2, 53, 88
6, 6749, Note_off_c, 2, 53, 0
6, 6750, Note_on_c, 2, 52, 88
6, 6779, Note_off_c, 2, 52, 0
6, 6780, Note_on_c, 2, 53, 88
6, 6809, Note_off_c, 2, 53, 0
6, 6810, Note_on_c, 2, 55, 88
6, 6839, Note_off_c, 2, 55, 0
6, 6840, Note_on_c, 2, 57, 88
6, 6898, Note_off_c, 2, 57, 0
6, 6900, Note_on_c, 2, 52, 88
6, 6958, Note_off_c, 2, 52, 0
6, 6960, Note_on_c, 2, 51, 88
6, 7018, Note_off_c, 2, 51, 0
6, 7020, Note_on_c, 2, 54, 88
6, 7078, Note_off_c, 2, 54, 0
6, 7080, Note_on_c, 2, 55, 88
6, 7138, Note_off_c, 2, 55, 0
6, 7140, Note_on_c, 2, 50, 88
6, 7198, Note_off_c, 2, 50, 0
6, 7200, Note_on_c, 2, 49, 88
6, 7258, Note_off_c, 2, 49, 0
6, 7260, Note_on_c, 2, 52, 88
6, 7318, Note_off_c, 2, 52, 0
6, 7320, Note_on_c, 2, 53, 88
6, 7378, Note_off_c, 2, 53, 0
6, 7380, Note_on_c, 2, 48, 88
6, 7496, Note_off_c, 2, 48, 0
6, 7500, Note_on_c, 2, 47, 88
6, 7616, Note_off_c, 2, 47, 0
6, 7620, Note_on_c, 2, 48, 88
6, 7649, Note_off_c, 2, 48, 0
6, 7650, Note_on_c, 2, 50, 88
6, 7679, Note_off_c, 2, 50, 0
6, 7680, Note_on_c, 2, 43, 88
6, 7796, Note_off_c, 2, 43, 0
6, 7800, Note_on_c, 2, 55, 88
6, 7916, Note_off_c, 2, 55, 0
6, 7920, Note_on_c, 2, 54, 88
6, 8036, Note_off_c, 2, 54, 0
6, 8040, Note_on_c, 2, 53, 88
6, 8156, Note_off_c, 2, 53, 0
6, 8160, Note_on_c, 2, 52, 88
6, 8276, Note_off_c, 2, 52, 0
6, 8280, Note_on_c, 2, 51, 88
6, 8396, Note_off_c, 2, 51, 0
6, 8400, Note_on_c, 2, 50, 88
6, 8516, Note_off_c, 2, 50, 0
6, 8520, Note_on_c, 2, 48, 88
6, 8698, Note_off_c, 2, 48, 0
6, 8700, Note_on_c, 2, 47, 88
6, 8729, Note_off_c, 2, 47, 0
6, 8730, Note_on_c, 2, 45, 88
6, 8759, Note_off_c, 2, 45, 0
6, 8760, Note_on_c, 2, 47, 88
6, 8818, Note_off_c, 2, 47, 0
6, 8820, Note_on_c, 2, 55, 88
6, 8936, Note_off_c, 2, 55, 0
6, 8940, Note_on_c, 2, 54, 88
6, 8998, Note_off_c, 2, 54, 0
6, 9000, Note_on_c, 2, 62, 88
6, 9058, Note_off_c, 2, 62, 0
6, 9060, Note_on_c, 2, 53, 88
6, 9176, Note_off_c, 2, 53, 0
6, 9180, Note_on_c, 2, 52, 88
6, 9209, Note_off_c, 2, 52, 0
6, 9210, Note_on_c, 2, 50, 88
6, 9239, Note_off_c, 2, 50, 0
6, 9240, Note_on_c, 2, 49, 88
6, 9298, Note_off_c, 2, 49, 0
6, 9300, Note_on_c, 2, 57, 88
6, 9416, Note_off_c, 2, 57, 0
6, 9420, Note_on_c, 2, 56, 88
6, 9478, Note_off_c, 2, 56, 0
6, 9480, Note_on_c, 2, 64, 88
6, 9538, Note_off_c, 2, 64, 0
6, 9540, Note_on_c, 2, 55, 88
6, 9629, Note_off_c, 2, 55, 0
6, 9630, Note_on_c, 2, 54, 88
6, 9659, Note_off_c, 2, 54, 0
6, 9660, Note_on_c, 2, 55, 88
6, 9689, Note_off_c, 2, 55, 0
6, 9690, Note_on_c, 2, 57, 88
6, 9719, Note_off_c, 2, 57, 0
6, 9720, Note_on_c, 2, 58, 88
6, 9778, Note_off_c, 2, 58, 0
6, 9780, Note_on_c, 2, 53, 88
6, 9838, Note_off_c, 2, 53, 0
6, 9840, Note_on_c, 2, 52, 88
6, 9898, Note_off_c, 2, 52, 0
6, 9900, Note_on_c, 2, 56, 88
6, 9958, Note_off_c, 2, 56, 0
6, 9960, Note_on_c, 2, 57, 88
6, 10018, Note_off_c, 2, 57, 0
6, 10020, Note_on_c, 2, 51, 88
6, 10078, Note_off_c, 2, 51, 0
6, 10080, Note_on_c, 2, 50, 88
6, 10138, Note_off_c, 2, 50, 0
6, 10140, Note_on_c, 2, 54, 88
6, 10198, Note_off_c, 2, 54, 0
6, 10200, Note_on_c, 2, 55, 88
6, 10258, Note_off_c, 2, 55, 0
6, 10260, Note_on_c, 2, 49, 88
6, 10376, Note_off_c, 2, 49, 0
6, 10380, Note_on_c, 2, 50, 88
6, 10496, Note_off_c, 2, 50, 0
6, 10500, Note_on_c, 2, 52, 88
6, 10558, Note_off_c, 2, 52, 0
6, 10560, Note_on_c, 2, 45, 88
6, 10676, Note_off_c, 2, 45, 0
6, 10680, Note_on_c, 2, 50, 88
6, 10796, Note_off_c, 2, 50, 0
6, 10800, Note_on_c, 2, 52, 88
6, 10916, Note_off_c, 2, 52, 0
6, 10920, Note_on_c, 2, 54, 88
6, 11036, Note_off_c, 2, 54, 0
6, 11040, Note_on_c, 2, 55, 88
6, 11156, Note_off_c, 2, 55, 0
6, 11160, Note_on_c, 2, 52, 88
6, 11276, Note_off_c, 2, 52, 0
6, 11280, Note_on_c, 2, 54, 88
6, 11396, Note_off_c, 2, 54, 0
6, 11400, Note_on_c, 2, 56, 88
6, 11516, Note_off_c, 2, 56, 0
6, 11520, Note_on_c, 2, 57, 88
6, 11578, Note_off_c, 2, 57, 0
6, 11580, Note_on_c, 2, 45, 88
6, 11638, Note_off_c, 2, 45, 0
6, 11640, Note_on_c, 2, 57, 88
6, 11756, Note_off_c, 2, 57, 0
6, 11760, Note_on_c, 2, 56, 88
6, 11876, Note_off_c, 2, 56, 0
6, 11880, Note_on_c, 2, 55, 88
6, 11996, Note_off_c, 2, 55, 0
6, 12000, Note_on_c, 2, 54, 88
6, 12116, Note_off_c, 2, 54, 0
6, 12120, Note_on_c, 2, 53, 88
6, 12236, Note_off_c, 2, 53, 0
6, 12240, Note_on_c, 2, 52, 88
6, 12356, Note_off_c, 2, 52, 0
6, 12360, Note_on_c, 2, 50, 88
6, 12538, Note_off_c, 2, 50, 0
6, 12540, Note_on_c, 2, 48, 88
6, 12569, Note_off_c, 2, 48, 0
6, 12570, Note_on_c, 2, 47, 88
6, 12599, Note_off_c, 2, 47, 0
6, 12600, Note_on_c, 2, 48, 88
6, 12658, Note_off_c, 2, 48, 0
6, 12660, Note_on_c, 2, 52, 88
6, 12776, Note_off_c, 2, 52, 0
6, 12780, Note_on_c, 2, 51, 88
6, 12838, Note_off_c, 2, 51, 0
6, 12840, Note_on_c, 2, 59, 88
6, 12898, Note_off_c, 2, 59, 0
6, 12900, Note_on_c, 2, 50, 88
6, 13016, Note_off_c, 2, 50, 0
6, 13020, Note_on_c, 2, 49, 88
6, 13049, Note_off_c, 2, 49, 0
6, 13050, Note_on_c, 2, 47, 88
6, 13079, Note_off_c, 2, 47, 0
6, 13080, Note_on_c, 2, 49, 88
6, 13138, Note_off_c, 2, 49, 0
6, 13140, Note_on_c, 2, 45, 88
6, 13198, Note_off_c, 2, 45, 0
6, 13200, Note_on_c, 2, 47, 88
6, 13316, Note_off_c, 2, 47, 0
6, 13320, Note_on_c, 2, 49, 88
6, 13436, Note_off_c, 2, 49, 0
6, 13440, Note_on_c, 2, 50, 88
6, 13498, Note_off_c, 2, 50, 0
6, 13500, Note_on_c, 2, 38, 88
6, 13558, Note_off_c, 2, 38, 0
6, 13560, Note_on_c, 2, 50, 88
6, 13735, Note_off_c, 2, 50, 0
6, 13740, Note_on_c, 2, 49, 88
6, 13798, Note_off_c, 2, 49, 0
6, 13800, Note_on_c, 2, 57, 88
6, 13858, Note_off_c, 2, 57, 0
6, 13860, Note_on_c, 2, 48, 88
6, 13976, Note_off_c, 2, 48, 0
6, 13980, Note_on_c, 2, 47, 88
6, 14009, Note_off_c, 2, 47, 0
6, 14010, Note_on_c, 2, 45, 88
6, 14039, Note_off_c, 2, 45, 0
6, 14040, Note_on_c, 2, 47, 88
6, 14098, Note_off_c, 2, 47, 0
6, 14100, Note_on_c, 2, 43, 88
6, 14158, Note_off_c, 2, 43, 0
6, 14160, Note_on_c, 2, 45, 88
6, 14276, Note_off_c, 2, 45, 0
6, 14280, Note_on_c, 2, 47, 88
6, 14396, Note_off_c, 2, 47, 0
6, 14400, Note_on_c, 2, 48, 88
6, 14575, Note_off_c, 2, 48, 0
6, 14580, Note_on_c, 2, 47, 88
6, 14609, Note_off_c, 2, 47, 0
6, 14610, Note_on_c, 2, 45, 88
6, 14639, Note_off_c, 2, 45, 0
6, 14640, Note_on_c, 2, 55, 88
6, 14658, Note_off_c, 2, 55, 0
6, 14659, Note_on_c, 2, 53, 88
6, 14677, Note_off_c, 2, 53, 0
6, 14678, Note_on_c, 2, 55, 88
6, 14696, Note_on_c, 2, 53, 88
6, 14696, Note_off_c, 2, 55, 0
6, 14714, Note_off_c, 2, 53, 0
6, 14715, Note_on_c, 2, 55, 88
6, 14733, Note_off_c, 2, 55, 0
6, 14734, Note_on_c, 2, 53, 88
6, 14748, Note_off_c, 2, 53, 0
6, 14749, Note_on_c, 2, 55, 88
6, 14763, Note_off_c, 2, 55, 0
6, 14764, Note_on_c, 2, 53, 88
6, 14778, Note_off_c, 2, 53, 0
6, 14779, Note_on_c, 2, 55, 88
6, 14793, Note_off_c, 2, 55, 0
6, 14794, Note_on_c, 2, 53, 88
6, 14808, Note_off_c, 2, 53, 0
6, 14809, Note_on_c, 2, 55, 88
6, 14823, Note_off_c, 2, 55, 0
6, 14824, Note_on_c, 2, 53, 88
6, 14838, Note_off_c, 2, 53, 0
6, 14839, Note_on_c, 2, 55, 88
6, 14853, Note_off_c, 2, 55, 0
6, 14854, Note_on_c, 2, 53, 88
6, 14879, Note_off_c, 2, 53, 0
6, 14880, Note_on_c, 2, 52, 88
6, 14909, Note_off_c, 2, 52, 0
6, 15360, Note_on_c, 2, 45, 88
6, 15476, Note_off_c, 2, 45, 0
6, 15480, Note_on_c, 2, 57, 88
6, 15596, Note_off_c, 2, 57, 0
6, 15600, Note_on_c, 2, 56, 88
6, 15716, Note_off_c, 2, 56, 0
6, 15720, Note_on_c, 2, 55, 88
6, 15836, Note_off_c, 2, 55, 0
6, 15840, Note_on_c, 2, 54, 88
6, 15956, Note_off_c, 2, 54, 0
6, 15960, Note_on_c, 2, 53, 88
6, 16076, Note_off_c, 2, 53, 0
6, 16080, Note_on_c, 2, 52, 88
6, 16196, Note_off_c, 2, 52, 0
6, 16200, Note_on_c, 2, 50, 88
6, 16349, Note_off_c, 2, 50, 0
6, 16350, Note_on_c, 2, 48, 88
6, 16379, Note_off_c, 2, 48, 0
6, 16380, Note_on_c, 2, 50, 88
6, 16409, Note_off_c, 2, 50, 0
6, 16410, Note_on_c, 2, 52, 88
6, 16439, Note_off_c, 2, 52, 0
6, 16440, Note_on_c, 2, 53, 88
6, 16498, Note_off_c, 2, 53, 0
6, 16500, Note_on_c, 2, 48, 88
6, 16558, Note_off_c, 2, 48, 0
6, 16560, Note_on_c, 2, 47, 88
6, 16618, Note_off_c, 2, 47, 0
6, 16620, Note_on_c, 2, 51, 88
6, 16678, Note_off_c, 2, 51, 0
6, 16680, Note_on_c, 2, 52, 88
6, 16738, Note_off_c, 2, 52, 0
6, 16740, Note_on_c, 2, 46, 88
6, 16798, Note_off_c, 2, 46, 0
6, 16800, Note_on_c, 2, 45, 88
6, 16858, Note_off_c, 2, 45, 0
6, 16860, Note_on_c, 2, 49, 88
6, 16918, Note_off_c, 2, 49, 0
6, 16920, Note_on_c, 2, 50, 88
6, 16978, Note_off_c, 2, 50, 0
6, 16980, Note_on_c, 2, 44, 88
6, 17096, Note_off_c, 2, 44, 0
6, 17100, Note_on_c, 2, 45, 88
6, 17216, Note_off_c, 2, 45, 0
6, 17220, Note_on_c, 2, 47, 88
6, 17278, Note_off_c, 2, 47, 0
6, 17280, Note_on_c, 2, 40, 88
6, 17396, Note_off_c, 2, 40, 0
6, 17400, Note_on_c, 2, 45, 88
6, 17516, Note_off_c, 2, 45, 0
6, 17520, Note_on_c, 2, 47, 88
6, 17636, Note_off_c, 2, 47, 0
6, 17640, Note_on_c, 2, 49, 88
6, 17756, Note_off_c, 2, 49, 0
6, 17760, Note_on_c, 2, 50, 88
6, 17876, Note_off_c, 2, 50, 0
6, 17880, Note_on_c, 2, 47, 88
6, 17996, Note_off_c, 2, 47, 0
6, 18000, Note_on_c, 2, 49, 88
6, 18116, Note_off_c, 2, 49, 0
6, 18120, Note_on_c, 2, 51, 88
6, 18236, Note_off_c, 2, 51, 0
6, 18240, Note_on_c, 2, 52, 88
6, 18356, Note_off_c, 2, 52, 0
6, 18360, Note_on_c, 2, 64, 88
6, 18476, Note_off_c, 2, 64, 0
6, 18480, Note_on_c, 2, 63, 88
6, 18596, Note_off_c, 2, 63, 0
6, 18600, Note_on_c, 2, 62, 88
6, 18716, Note_off_c, 2, 62, 0
6, 18720, Note_on_c, 2, 61, 88
6, 18836, Note_off_c, 2, 61, 0
6, 18840, Note_on_c, 2, 60, 88
6, 18956, Note_off_c, 2, 60, 0
6, 18960, Note_on_c, 2, 59, 88
6, 19076, Note_off_c, 2, 59, 0
6, 19080, Note_on_c, 2, 57, 88
6, 19229, Note_off_c, 2, 57, 0
6, 19230, Note_on_c, 2, 55, 88
6, 19259, Note_off_c, 2, 55, 0
6, 19260, Note_on_c, 2, 57, 88
6, 19289, Note_off_c, 2, 57, 0
6, 19290, Note_on_c, 2, 59, 88
6, 19319, Note_off_c, 2, 59, 0
6, 19320, Note_on_c, 2, 60, 88
6, 19378, Note_off_c, 2, 60, 0
6, 19380, Note_on_c, 2, 55, 88
6, 19438, Note_off_c, 2, 55, 0
6, 19440, Note_on_c, 2, 54, 88
6, 19498, Note_off_c, 2, 54, 0
6, 19500, Note_on_c, 2, 58, 88
6, 19558, Note_off_c, 2, 58, 0
6, 19560, Note_on_c, 2, 59, 88
6, 19618, Note_off_c, 2, 59, 0
6, 19620, Note_on_c, 2, 53, 88
6, 19678, Note_off_c, 2, 53, 0
6, 19680, Note_on_c, 2, 52, 88
6, 19738, Note_off_c, 2, 52, 0
6, 19740, Note_on_c, 2, 56, 88
6, 19798, Note_off_c, 2, 56, 0
6, 19800, Note_on_c, 2, 57, 88
6, 19858, Note_off_c, 2, 57, 0
6, 19860, Note_on_c, 2, 51, 88
6, 19976, Note_off_c, 2, 51, 0
6, 19980, Note_on_c, 2, 52, 88
6, 20096, Note_off_c, 2, 52, 0
6, 20100, Note_on_c, 2, 54, 88
6, 20158, Note_off_c, 2, 54, 0
6, 20160, Note_on_c, 2, 47, 88
6, 20276, Note_off_c, 2, 47, 0
6, 20280, Note_on_c, 2, 52, 88
6, 20396, Note_off_c, 2, 52, 0
6, 20400, Note_on_c, 2, 54, 88
6, 20516, Note_off_c, 2, 54, 0
6, 20520, Note_on_c, 2, 56, 88
6, 20636, Note_off_c, 2, 56, 0
6, 20640, Note_on_c, 2, 57, 88
6, 20698, Note_off_c, 2, 57, 0
6, 20700, Note_on_c, 2, 45, 88
6, 20758, Note_off_c, 2, 45, 0
6, 20760, Note_on_c, 2, 57, 88
6, 20935, Note_off_c, 2, 57, 0
6, 20940, Note_on_c, 2, 56, 88
6, 20998, Note_off_c, 2, 56, 0
6, 21000, Note_on_c, 2, 64, 88
6, 21058, Note_off_c, 2, 64, 0
6, 21060, Note_on_c, 2, 55, 88
6, 21178, Note_off_c, 2, 55, 0
6, 21180, Note_on_c, 2, 54, 88
6, 21209, Note_off_c, 2, 54, 0
6, 21210, Note_on_c, 2, 52, 88
6, 21239, Note_off_c, 2, 52, 0
6, 21240, Note_on_c, 2, 54, 88
6, 21298, Note_off_c, 2, 54, 0
6, 21300, Note_on_c, 2, 50, 88
6, 21358, Note_off_c, 2, 50, 0
6, 21360, Note_on_c, 2, 52, 88
6, 21476, Note_off_c, 2, 52, 0
6, 21480, Note_on_c, 2, 54, 88
6, 21596, Note_off_c, 2, 54, 0
6, 21600, Note_on_c, 2, 55, 88
6, 21658, Note_off_c, 2, 55, 0
6, 21660, Note_on_c, 2, 43, 88
6, 21718, Note_off_c, 2, 43, 0
6, 21720, Note_on_c, 2, 55, 88
6, 21895, Note_off_c, 2, 55, 0
6, 21900, Note_on_c, 2, 54, 88
6, 21958, Note_off_c, 2, 54, 0
6, 21960, Note_on_c, 2, 62, 88
6, 22018, Note_off_c, 2, 62, 0
6, 22020, Note_on_c, 2, 53, 88
6, 22109, Note_off_c, 2, 53, 0
6, 22110, Note_on_c, 2, 52, 88
6, 22139, Note_off_c, 2, 52, 0
6, 22140, Note_on_c, 2, 53, 88
6, 22169, Note_off_c, 2, 53, 0
6, 22170, Note_on_c, 2, 55, 88
6, 22199, Note_off_c, 2, 55, 0
6, 22200, Note_on_c, 2, 57, 88
6, 22258, Note_off_c, 2, 57, 0
6, 22260, Note_on_c, 2, 52, 88
6, 22318, Note_off_c, 2, 52, 0
6, 22320, Note_on_c, 2, 51, 88
6, 22378, Note_off_c, 2, 51, 0
6, 22380, Note_on_c, 2, 54, 88
6, 22438, Note_off_c, 2, 54, 0
6, 22440, Note_on_c, 2, 55, 88
6, 22498, Note_off_c, 2, 55, 0
6, 22500, Note_on_c, 2, 50, 88
6, 22558, Note_off_c, 2, 50, 0
6, 22560, Note_on_c, 2, 49, 88
6, 22618, Note_off_c, 2, 49, 0
6, 22620, Note_on_c, 2, 52, 88
6, 22678, Note_off_c, 2, 52, 0
6, 22680, Note_on_c, 2, 53, 88
6, 22738, Note_off_c, 2, 53, 0
6, 22740, Note_on_c, 2, 48, 88
6, 22856, Note_off_c, 2, 48, 0
6, 22860, Note_on_c, 2, 47, 88
6, 22976, Note_off_c, 2, 47, 0
6, 22980, Note_on_c, 2, 48, 88
6, 23009, Note_off_c, 2, 48, 0
6, 23010, Note_on_c, 2, 50, 88
6, 23039, Note_off_c, 2, 50, 0
6, 23040, Note_on_c, 2, 43, 88
6, 23156, Note_off_c, 2, 43, 0
6, 23160, Note_on_c, 2, 55, 88
6, 23276, Note_off_c, 2, 55, 0
6, 23280, Note_on_c, 2, 54, 88
6, 23396, Note_off_c, 2, 54, 0
6, 23400, Note_on_c, 2, 53, 88
6, 23516, Note_off_c, 2, 53, 0
6, 23520, Note_on_c, 2, 52, 88
6, 23636, Note_off_c, 2, 52, 0
6, 23640, Note_on_c, 2, 51, 88
6, 23756, Note_off_c, 2, 51, 0
6, 23760, Note_on_c, 2, 50, 88
6, 23876, Note_off_c, 2, 50, 0
6, 23880, Note_on_c, 2, 48, 88
6, 24058, Note_off_c, 2, 48, 0
6, 24060, Note_on_c, 2, 47, 88
6, 24089, Note_off_c, 2, 47, 0
6, 24090, Note_on_c, 2, 45, 88
6, 24119, Note_off_c, 2, 45, 0
6, 24120, Note_on_c, 2, 47, 88
6, 24178, Note_off_c, 2, 47, 0
6, 24180, Note_on_c, 2, 55, 88
6, 24296, Note_off_c, 2, 55, 0
6, 24300, Note_on_c, 2, 54, 88
6, 24358, Note_off_c, 2, 54, 0
6, 24360, Note_on_c, 2, 62, 88
6, 24418, Note_off_c, 2, 62, 0
6, 24420, Note_on_c, 2, 53, 88
6, 24536, Note_off_c, 2, 53, 0
6, 24540, Note_on_c, 2, 52, 88
6, 24569, Note_off_c, 2, 52, 0
6, 24570, Note_on_c, 2, 50, 88
6, 24599, Note_off_c, 2, 50, 0
6, 24600, Note_on_c, 2, 49, 88
6, 24658, Note_off_c, 2, 49, 0
6, 24660, Note_on_c, 2, 57, 88
6, 24776, Note_off_c, 2, 57, 0
6, 24780, Note_on_c, 2, 56, 88
6, 24838, Note_off_c, 2, 56, 0
6, 24840, Note_on_c, 2, 64, 88
6, 24898, Note_off_c, 2, 64, 0
6, 24900, Note_on_c, 2, 55, 88
6, 24989, Note_off_c, 2, 55, 0
6, 24990, Note_on_c, 2, 54, 88
6, 25019, Note_off_c, 2, 54, 0
6, 25020, Note_on_c, 2, 55, 88
6, 25049, Note_off_c, 2, 55, 0
6, 25050, Note_on_c, 2, 57, 88
6, 25079, Note_off_c, 2, 57, 0
6, 25080, Note_on_c, 2, 58, 88
6, 25138, Note_off_c, 2, 58, 0
6, 25140, Note_on_c, 2, 53, 88
6, 25198, Note_off_c, 2, 53, 0
6, 25200, Note_on_c, 2, 52, 88
6, 25258, Note_off_c, 2, 52, 0
6, 25260, Note_on_c, 2, 56, 88
6, 25318, Note_off_c, 2, 56, 0
6, 25320, Note_on_c, 2, 57, 88
6, 25378, Note_off_c, 2, 57, 0
6, 25380, Note_on_c, 2, 51, 88
6, 25438, Note_off_c, 2, 51, 0
6, 25440, Note_on_c, 2, 50, 88
6, 25498, Note_off_c, 2, 50, 0
6, 25500, Note_on_c, 2, 54, 88
6, 25558, Note_off_c, 2, 54, 0
6, 25560, Note_on_c, 2, 55, 88
6, 25618, Note_off_c, 2, 55, 0
6, 25620, Note_on_c, 2, 49, 88
6, 25736, Note_off_c, 2, 49, 0
6, 25740, Note_on_c, 2, 50, 88
6, 25856, Note_off_c, 2, 50, 0
6, 25860, Note_on_c, 2, 52, 88
6, 25918, Note_off_c, 2, 52, 0
6, 25920, Note_on_c, 2, 45, 88
6, 26036, Note_off_c, 2, 45, 0
6, 26040, Note_on_c, 2, 50, 88
6, 26156, Note_off_c, 2, 50, 0
6, 26160, Note_on_c, 2, 52, 88
6, 26276, Note_off_c, 2, 52, 0
6, 26280, Note_on_c, 2, 54, 88
6, 26396, Note_off_c, 2, 54, 0
6, 26400, Note_on_c, 2, 55, 88
6, 26516, Note_off_c, 2, 55, 0
6, 26520, Note_on_c, 2, 52, 88
6, 26636, Note_off_c, 2, 52, 0
6, 26640, Note_on_c, 2, 54, 88
6, 26756, Note_off_c, 2, 54, 0
6, 26760, Note_on_c, 2, 56, 88
6, 26876, Note_off_c, 2, 56, 0
6, 26880, Note_on_c, 2, 57, 88
6, 26938, Note_off_c, 2, 57, 0
6, 26940, Note_on_c, 2, 45, 88
6, 26998, Note_off_c, 2, 45, 0
6, 27000, Note_on_c, 2, 57, 88
6, 27116, Note_off_c, 2, 57, 0
6, 27120, Note_on_c, 2, 56, 88
6, 27236, Note_off_c, 2, 56, 0
6, 27240, Note_on_c, 2, 55, 88
6, 27356, Note_off_c, 2, 55, 0
6, 27360, Note_on_c, 2, 54, 88
6, 27476, Note_off_c, 2, 54, 0
6, 27480, Note_on_c, 2, 53, 88
6, 27596, Note_off_c, 2, 53, 0
6, 27600, Note_on_c, 2, 52, 88
6, 27716, Note_off_c, 2, 52, 0
6, 27720, Note_on_c, 2, 50, 88
6, 27898, Note_off_c, 2, 50, 0
6, 27900, Note_on_c, 2, 48, 88
6, 27929, Note_off_c, 2, 48, 0
6, 27930, Note_on_c, 2, 47, 88
6, 27959, Note_off_c, 2, 47, 0
6, 27960, Note_on_c, 2, 48, 88
6, 28018, Note_off_c, 2, 48, 0
6, 28020, Note_on_c, 2, 52, 88
6, 28136, Note_off_c, 2, 52, 0
6, 28140, Note_on_c, 2, 51, 88
6, 28198, Note_off_c, 2, 51, 0
6, 28200, Note_on_c, 2, 59, 88
6, 28258, Note_off_c, 2, 59, 0
6, 28260, Note_on_c, 2, 50, 88
6, 28376, Note_off_c, 2, 50, 0
6, 28380, Note_on_c, 2, 49, 88
6, 28409, Note_off_c, 2, 49, 0
6, 28410, Note_on_c, 2, 47, 88
6, 28439, Note_off_c, 2, 47, 0
6, 28440, Note_on_c, 2, 49, 88
6, 28498, Note_off_c, 2, 49, 0
6, 28500, Note_on_c, 2, 45, 88
6, 28558, Note_off_c, 2, 45, 0
6, 28560, Note_on_c, 2, 47, 88
6, 28676, Note_off_c, 2, 47, 0
6, 28680, Note_on_c, 2, 49, 88
6, 28796, Note_off_c, 2, 49, 0
6, 28800, Note_on_c, 2, 50, 88
6, 28858, Note_off_c, 2, 50, 0
6, 28860, Note_on_c, 2, 38, 88
6, 28918, Note_off_c, 2, 38, 0
6, 28920, Note_on_c, 2, 50, 88
6, 29095, Note_off_c, 2, 50, 0
6, 29100, Note_on_c, 2, 49, 88
6, 29158, Note_off_c, 2, 49, 0
6, 29160, Note_on_c, 2, 57, 88
6, 29218, Note_off_c, 2, 57, 0
6, 29220, Note_on_c, 2, 48, 88
6, 29336, Note_off_c, 2, 48, 0
6, 29340, Note_on_c, 2, 47, 88
6, 29369, Note_off_c, 2, 47, 0
6, 29370, Note_on_c, 2, 45, 88
6, 29399, Note_off_c, 2, 45, 0
6, 29400, Note_on_c, 2, 47, 88
6, 29458, Note_off_c, 2, 47, 0
6, 29460, Note_on_c, 2, 43, 88
6, 29518, Note_off_c, 2, 43, 0
6, 29520, Note_on_c, 2, 45, 88
6, 29636, Note_off_c, 2, 45, 0
6, 29640, Note_on_c, 2, 47, 88
6, 29756, Note_off_c, 2, 47, 0
6, 29760, Note_on_c, 2, 48, 88
6, 29935, Note_off_c, 2, 48, 0
6, 29940, Note_on_c, 2, 47, 88
6, 29969, Note_off_c, 2, 47, 0
6, 29970, Note_on_c, 2, 45, 88
6, 29999, Note_off_c, 2, 45, 0
6, 30000, Note_on_c, 2, 55, 88
6, 30018, Note_off_c, 2, 55, 0
6, 30019, Note_on_c, 2, 53, 88
6, 30037, Note_off_c, 2, 53, 0
6, 30038, Note_on_c, 2, 55, 88
6, 30056, Note_on_c, 2, 53, 88
6, 30056, Note_off_c, 2, 55, 0
6, 30074, Note_off_c, 2, 53, 0
6, 30075, Note_on_c, 2, 55, 88
6, 30093, Note_off_c, 2, 55, 0
6, 30094, Note_on_c, 2, 53, 88
6, 30108, Note_off_c, 2, 53, 0
6, 30109, Note_on_c, 2, 55, 88
6, 30123, Note_off_c, 2, 55, 0
6, 30124, Note_on_c, 2, 53, 88
6, 30138, Note_off_c, 2, 53, 0
6, 30139, Note_on_c, 2, 55, 88
6, 30153, Note_off_c, 2, 55, 0
6, 30154, Note_on_c, 2, 53, 88
6, 30168, Note_off_c, 2, 53, 0
6, 30169, Note_on_c, 2, 55, 88
6, 30183, Note_off_c, 2, 55, 0
6, 30184, Note_on_c, 2, 53, 88
6, 30198, Note_off_c, 2, 53, 0
6, 30199, Note_on_c, 2, 55, 88
6, 30213, Note_off_c, 2, 55, 0
6, 30214, Note_on_c, 2, 53, 88
6, 30239, Note_off_c, 2, 53, 0
6, 30240, Note_on_c, 2, 52, 88
6, 30269, Note_off_c, 2, 52, 0
6, 30750, Note_on_c, 2, 60, 88
6, 30779, Note_off_c, 2, 60, 0
6, 30780, Note_on_c, 2, 59, 88
6, 30809, Note_off_c, 2, 59, 0
6, 30810, Note_on_c, 2, 57, 88
6, 30839, Note_off_c, 2, 57, 0
6, 30840, Note_on_c, 2, 56, 88
6, 30898, Note_off_c, 2, 56, 0
6, 30900, Note_on_c, 2, 61, 88
6, 30958, Note_off_c, 2, 61, 0
6, 30960, Note_on_c, 2, 62, 88
6, 31018, Note_off_c, 2, 62, 0
6, 31020, Note_on_c, 2, 58, 88
6, 31078, Note_off_c, 2, 58, 0
6, 31080, Note_on_c, 2, 57, 88
6, 31138, Note_off_c, 2, 57, 0
6, 31140, Note_on_c, 2, 63, 88
6, 31198, Note_off_c, 2, 63, 0
6, 31200, Note_on_c, 2, 64, 88
6, 31258, Note_off_c, 2, 64, 0
6, 31260, Note_on_c, 2, 60, 88
6, 31318, Note_off_c, 2, 60, 0
6, 31320, Note_on_c, 2, 59, 88
6, 31378, Note_off_c, 2, 59, 0
6, 31380, Note_on_c, 2, 65, 88
6, 31496, Note_off_c, 2, 65, 0
6, 31500, Note_on_c, 2, 64, 88
6, 31616, Note_off_c, 2, 64, 0
6, 31620, Note_on_c, 2, 62, 88
6, 31678, Note_off_c, 2, 62, 0
6, 31680, Note_on_c, 2, 69, 88
6, 31796, Note_off_c, 2, 69, 0
6, 31800, Note_on_c, 2, 57, 88
6, 31916, Note_off_c, 2, 57, 0
6, 31920, Note_on_c, 2, 58, 88
6, 32036, Note_off_c, 2, 58, 0
6, 32040, Note_on_c, 2, 59, 88
6, 32156, Note_off_c, 2, 59, 0
6, 32160, Note_on_c, 2, 60, 88
6, 32276, Note_off_c, 2, 60, 0
6, 32280, Note_on_c, 2, 61, 88
6, 32396, Note_off_c, 2, 61, 0
6, 32400, Note_on_c, 2, 62, 88
6, 32516, Note_off_c, 2, 62, 0
6, 32520, Note_on_c, 2, 64, 88
6, 32636, Note_off_c, 2, 64, 0
6, 32640, Note_on_c, 2, 65, 88
6, 32756, Note_off_c, 2, 65, 0
6, 32760, Note_on_c, 2, 62, 88
6, 32876, Note_off_c, 2, 62, 0
6, 32880, Note_on_c, 2, 60, 88
6, 32996, Note_off_c, 2, 60, 0
6, 33000, Note_on_c, 2, 59, 88
6, 33116, Note_off_c, 2, 59, 0
6, 33120, Note_on_c, 2, 57, 88
6, 33236, Note_off_c, 2, 57, 0
6, 33240, Note_on_c, 2, 60, 88
6, 33356, Note_off_c, 2, 60, 0
6, 33360, Note_on_c, 2, 59, 88
6, 33476, Note_off_c, 2, 59, 0
6, 33480, Note_on_c, 2, 57, 88
6, 33596, Note_off_c, 2, 57, 0
6, 33600, Note_on_c, 2, 55, 88
6, 33629, Note_off_c, 2, 55, 0
6, 33630, Note_on_c, 2, 59, 88
6, 33659, Note_off_c, 2, 59, 0
6, 33660, Note_on_c, 2, 60, 88
6, 33689, Note_off_c, 2, 60, 0
6, 33690, Note_on_c, 2, 62, 88
6, 33719, Note_off_c, 2, 62, 0
6, 33720, Note_on_c, 2, 64, 88
6, 33778, Note_off_c, 2, 64, 0
6, 33780, Note_on_c, 2, 58, 88
6, 33838, Note_off_c, 2, 58, 0
6, 33840, Note_on_c, 2, 57, 88
6, 33898, Note_off_c, 2, 57, 0
6, 33900, Note_on_c, 2, 62, 88
6, 33958, Note_off_c, 2, 62, 0
6, 33960, Note_on_c, 2, 61, 88
6, 34018, Note_off_c, 2, 61, 0
6, 34020, Note_on_c, 2, 55, 88
6, 34107, Note_off_c, 2, 55, 0
6, 34110, Note_on_c, 2, 67, 88
6, 34139, Note_off_c, 2, 67, 0
6, 34140, Note_on_c, 2, 65, 88
6, 34169, Note_off_c, 2, 65, 0
6, 34170, Note_on_c, 2, 64, 88
6, 34199, Note_off_c, 2, 64, 0
6, 34200, Note_on_c, 2, 62, 88
6, 34258, Note_off_c, 2, 62, 0
6, 34260, Note_on_c, 2, 68, 88
6, 34318, Note_off_c, 2, 68, 0
6, 34320, Note_on_c, 2, 69, 88
6, 34378, Note_off_c, 2, 69, 0
6, 34380, Note_on_c, 2, 60, 88
6, 34438, Note_off_c, 2, 60, 0
6, 34440, Note_on_c, 2, 59, 88
6, 34498, Note_off_c, 2, 59, 0
6, 34500, Note_on_c, 2, 65, 88
6, 34558, Note_off_c, 2, 65, 0
6, 34560, Note_on_c, 2, 64, 88
6, 34589, Note_off_c, 2, 64, 0
6, 34590, Note_on_c, 2, 62, 88
6, 34619, Note_off_c, 2, 62, 0
6, 34620, Note_on_c, 2, 60, 88
6, 34649, Note_off_c, 2, 60, 0
6, 34650, Note_on_c, 2, 59, 88
6, 34679, Note_off_c, 2, 59, 0
6, 34680, Note_on_c, 2, 57, 88
6, 34738, Note_off_c, 2, 57, 0
6, 34740, Note_on_c, 2, 56, 88
6, 34798, Note_off_c, 2, 56, 0
6, 34800, Note_on_c, 2, 57, 88
6, 34858, Note_off_c, 2, 57, 0
6, 34860, Note_on_c, 2, 53, 88
6, 34918, Note_off_c, 2, 53, 0
6, 34920, Note_on_c, 2, 52, 88
6, 34978, Note_off_c, 2, 52, 0
6, 34980, Note_on_c, 2, 58, 88
6, 35038, Note_off_c, 2, 58, 0
6, 35040, Note_on_c, 2, 59, 88
6, 35098, Note_off_c, 2, 59, 0
6, 35100, Note_on_c, 2, 55, 88
6, 35158, Note_off_c, 2, 55, 0
6, 35160, Note_on_c, 2, 54, 88
6, 35218, Note_off_c, 2, 54, 0
6, 35220, Note_on_c, 2, 60, 88
6, 35336, Note_off_c, 2, 60, 0
6, 35340, Note_on_c, 2, 59, 88
6, 35456, Note_off_c, 2, 59, 0
6, 35460, Note_on_c, 2, 57, 88
6, 35518, Note_off_c, 2, 57, 0
6, 35520, Note_on_c, 2, 64, 88
6, 35636, Note_off_c, 2, 64, 0
6, 35640, Note_on_c, 2, 52, 88
6, 35756, Note_off_c, 2, 52, 0
6, 35760, Note_on_c, 2, 53, 88
6, 35876, Note_off_c, 2, 53, 0
6, 35880, Note_on_c, 2, 54, 88
6, 35996, Note_off_c, 2, 54, 0
6, 36000, Note_on_c, 2, 55, 88
6, 36116, Note_off_c, 2, 55, 0
6, 36120, Note_on_c, 2, 56, 88
6, 36236, Note_off_c, 2, 56, 0
6, 36240, Note_on_c, 2, 57, 88
6, 36356, Note_off_c, 2, 57, 0
6, 36360, Note_on_c, 2, 59, 88
6, 36476, Note_off_c, 2, 59, 0
6, 36480, Note_on_c, 2, 60, 88
6, 36596, Note_off_c, 2, 60, 0
6, 36600, Note_on_c, 2, 57, 88
6, 36716, Note_off_c, 2, 57, 0
6, 36720, Note_on_c, 2, 55, 88
6, 36836, Note_off_c, 2, 55, 0
6, 36840, Note_on_c, 2, 53, 88
6, 36956, Note_off_c, 2, 53, 0
6, 36960, Note_on_c, 2, 52, 88
6, 36989, Note_off_c, 2, 52, 0
6, 36990, Note_on_c, 2, 53, 88
6, 37019, Note_off_c, 2, 53, 0
6, 37020, Note_on_c, 2, 55, 88
6, 37049, Note_off_c, 2, 55, 0
6, 37050, Note_on_c, 2, 57, 88
6, 37079, Note_off_c, 2, 57, 0
6, 37080, Note_on_c, 2, 58, 88
6, 37138, Note_off_c, 2, 58, 0
6, 37140, Note_on_c, 2, 53, 88
6, 37198, Note_off_c, 2, 53, 0
6, 37200, Note_on_c, 2, 52, 88
6, 37258, Note_off_c, 2, 52, 0
6, 37260, Note_on_c, 2, 57, 88
6, 37318, Note_off_c, 2, 57, 0
6, 37320, Note_on_c, 2, 55, 88
6, 37378, Note_off_c, 2, 55, 0
6, 37380, Note_on_c, 2, 50, 88
6, 37438, Note_off_c, 2, 50, 0
6, 37440, Note_on_c, 2, 49, 88
6, 37556, Note_off_c, 2, 49, 0
6, 37560, Note_on_c, 2, 55, 88
6, 37676, Note_off_c, 2, 55, 0
6, 37680, Note_on_c, 2, 53, 88
6, 37796, Note_off_c, 2, 53, 0
6, 37800, Note_on_c, 2, 52, 88
6, 37916, Note_off_c, 2, 52, 0
6, 37920, Note_on_c, 2, 50, 88
6, 37949, Note_off_c, 2, 50, 0
6, 37950, Note_on_c, 2, 52, 88
6, 37979, Note_off_c, 2, 52, 0
6, 37980, Note_on_c, 2, 54, 88
6, 38009, Note_off_c, 2, 54, 0
6, 38010, Note_on_c, 2, 55, 88
6, 38039, Note_off_c, 2, 55, 0
6, 38040, Note_on_c, 2, 57, 88
6, 38098, Note_off_c, 2, 57, 0
6, 38100, Note_on_c, 2, 51, 88
6, 38158, Note_off_c, 2, 51, 0
6, 38160, Note_on_c, 2, 50, 88
6, 38218, Note_off_c, 2, 50, 0
6, 38220, Note_on_c, 2, 55, 88
6, 38278, Note_off_c, 2, 55, 0
6, 38280, Note_on_c, 2, 53, 88
6, 38338, Note_off_c, 2, 53, 0
6, 38340, Note_on_c, 2, 48, 88
6, 38398, Note_off_c, 2, 48, 0
6, 38400, Note_on_c, 2, 47, 88
6, 38516, Note_off_c, 2, 47, 0
6, 38520, Note_on_c, 2, 52, 88
6, 38636, Note_off_c, 2, 52, 0
6, 38640, Note_on_c, 2, 51, 88
6, 38756, Note_off_c, 2, 51, 0
6, 38760, Note_on_c, 2, 50, 88
6, 38876, Note_off_c, 2, 50, 0
6, 38880, Note_on_c, 2, 49, 88
6, 38996, Note_off_c, 2, 49, 0
6, 39000, Note_on_c, 2, 48, 88
6, 39116, Note_off_c, 2, 48, 0
6, 39120, Note_on_c, 2, 47, 88
6, 39236, Note_off_c, 2, 47, 0
6, 39240, Note_on_c, 2, 45, 88
6, 39389, Note_off_c, 2, 45, 0
6, 39390, Note_on_c, 2, 48, 88
6, 39419, Note_off_c, 2, 48, 0
6, 39420, Note_on_c, 2, 47, 88
6, 39449, Note_off_c, 2, 47, 0
6, 39450, Note_on_c, 2, 45, 88
6, 39479, Note_off_c, 2, 45, 0
6, 39480, Note_on_c, 2, 44, 88
6, 39538, Note_off_c, 2, 44, 0
6, 39540, Note_on_c, 2, 49, 88
6, 39598, Note_off_c, 2, 49, 0
6, 39600, Note_on_c, 2, 50, 88
6, 39658, Note_off_c, 2, 50, 0
6, 39660, Note_on_c, 2, 46, 88
6, 39718, Note_off_c, 2, 46, 0
6, 39720, Note_on_c, 2, 45, 88
6, 39778, Note_off_c, 2, 45, 0
6, 39780, Note_on_c, 2, 51, 88
6, 39838, Note_off_c, 2, 51, 0
6, 39840, Note_on_c, 2, 52, 88
6, 39898, Note_off_c, 2, 52, 0
6, 39900, Note_on_c, 2, 48, 88
6, 39958, Note_off_c, 2, 48, 0
6, 39960, Note_on_c, 2, 47, 88
6, 40018, Note_off_c, 2, 47, 0
6, 40020, Note_on_c, 2, 53, 88
6, 40136, Note_off_c, 2, 53, 0
6, 40140, Note_on_c, 2, 52, 88
6, 40256, Note_off_c, 2, 52, 0
6, 40260, Note_on_c, 2, 50, 88
6, 40318, Note_off_c, 2, 50, 0
6, 40320, Note_on_c, 2, 48, 88
6, 40436, Note_off_c, 2, 48, 0
6, 40440, Note_on_c, 2, 52, 88
6, 40556, Note_off_c, 2, 52, 0
6, 40560, Note_on_c, 2, 54, 88
6, 40676, Note_off_c, 2, 54, 0
6, 40680, Note_on_c, 2, 56, 88
6, 40796, Note_off_c, 2, 56, 0
6, 40800, Note_on_c, 2, 57, 88
6, 40916, Note_off_c, 2, 57, 0
6, 40920, Note_on_c, 2, 45, 88
6, 41036, Note_off_c, 2, 45, 0
6, 41040, Note_on_c, 2, 47, 88
6, 41156, Note_off_c, 2, 47, 0
6, 41160, Note_on_c, 2, 49, 88
6, 41276, Note_off_c, 2, 49, 0
6, 41280, Note_on_c, 2, 50, 88
6, 41396, Note_off_c, 2, 50, 0
6, 41400, Note_on_c, 2, 38, 88
6, 41516, Note_off_c, 2, 38, 0
6, 41520, Note_on_c, 2, 40, 88
6, 41636, Note_off_c, 2, 40, 0
6, 41640, Note_on_c, 2, 52, 88
6, 41756, Note_off_c, 2, 52, 0
6, 41760, Note_on_c, 2, 51, 88
6, 41876, Note_off_c, 2, 51, 0
6, 41880, Note_on_c, 2, 50, 88
6, 41996, Note_off_c, 2, 50, 0
6, 42000, Note_on_c, 2, 49, 88
6, 42116, Note_off_c, 2, 49, 0
6, 42120, Note_on_c, 2, 48, 88
6, 42236, Note_off_c, 2, 48, 0
6, 42240, Note_on_c, 2, 47, 88
6, 42346, Note_off_c, 2, 47, 0
6, 42360, Note_on_c, 2, 47, 88
6, 42476, Note_off_c, 2, 47, 0
6, 42480, Note_on_c, 2, 45, 88
6, 42586, Note_off_c, 2, 45, 0
6, 42600, Note_on_c, 2, 45, 88
6, 42716, Note_off_c, 2, 45, 0
6, 42720, Note_on_c, 2, 44, 88
6, 42826, Note_off_c, 2, 44, 0
6, 42840, Note_on_c, 2, 44, 88
6, 42956, Note_off_c, 2, 44, 0
6, 42960, Note_on_c, 2, 40, 88
6, 43066, Note_off_c, 2, 40, 0
6, 43080, Note_on_c, 2, 40, 88
6, 43196, Note_off_c, 2, 40, 0
6, 43200, Note_on_c, 2, 45, 88
6, 43346, Note_off_c, 2, 45, 0
6, 43350, Note_on_c, 2, 50, 88
6, 43379, Note_off_c, 2, 50, 0
6, 43380, Note_on_c, 2, 52, 88
6, 43409, Note_off_c, 2, 52, 0
6, 43410, Note_on_c, 2, 54, 88
6, 43439, Note_off_c, 2, 54, 0
6, 43440, Note_on_c, 2, 55, 88
6, 43498, Note_off_c, 2, 55, 0
6, 43500, Note_on_c, 2, 52, 88
6, 43558, Note_off_c, 2, 52, 0
6, 43560, Note_on_c, 2, 51, 88
6, 43618, Note_off_c, 2, 51, 0
6, 43620, Note_on_c, 2, 56, 88
6, 43678, Note_off_c, 2, 56, 0
6, 43680, Note_on_c, 2, 57, 88
6, 43738, Note_off_c, 2, 57, 0
6, 43740, Note_on_c, 2, 53, 88
6, 43798, Note_off_c, 2, 53, 0
6, 43800, Note_on_c, 2, 52, 88
6, 43858, Note_off_c, 2, 52, 0
6, 43860, Note_on_c, 2, 58, 88
6, 43976, Note_off_c, 2, 58, 0
6, 43980, Note_on_c, 2, 57, 88
6, 44096, Note_off_c, 2, 57, 0
6, 44100, Note_on_c, 2, 55, 88
6, 44158, Note_off_c, 2, 55, 0
6, 44160, Note_on_c, 2, 53, 88
6, 44189, Note_off_c, 2, 53, 0
6, 44190, Note_on_c, 2, 52, 88
6, 44219, Note_off_c, 2, 52, 0
6, 44220, Note_on_c, 2, 53, 88
6, 44249, Note_off_c, 2, 53, 0
6, 44250, Note_on_c, 2, 55, 88
6, 44279, Note_off_c, 2, 55, 0
6, 44280, Note_on_c, 2, 57, 88
6, 44396, Note_off_c, 2, 57, 0
6, 44400, Note_on_c, 2, 56, 88
6, 44516, Note_off_c, 2, 56, 0
6, 44520, Note_on_c, 2, 55, 88
6, 44636, Note_off_c, 2, 55, 0
6, 44640, Note_on_c, 2, 54, 88
6, 44756, Note_off_c, 2, 54, 0
6, 44760, Note_on_c, 2, 53, 88
6, 44876, Note_off_c, 2, 53, 0
6, 44880, Note_on_c, 2, 52, 88
6, 44996, Note_off_c, 2, 52, 0
6, 45000, Note_on_c, 2, 50, 88
6, 45178, Note_off_c, 2, 50, 0
6, 45180, Note_on_c, 2, 48, 88
6, 45209, Note_off_c, 2, 48, 0
6, 45210, Note_on_c, 2, 47, 88
6, 45239, Note_off_c, 2, 47, 0
6, 45240, Note_on_c, 2, 48, 88
6, 45298, Note_off_c, 2, 48, 0
6, 45300, Note_on_c, 2, 45, 88
6, 45358, Note_off_c, 2, 45, 0
6, 45360, Note_on_c, 2, 52, 88
6, 45375, Note_on_c, 2, 50, 88
6, 45375, Note_off_c, 2, 52, 0
6, 45397, Note_off_c, 2, 50, 0
6, 45398, Note_on_c, 2, 52, 88
6, 45477, Note_off_c, 2, 52, 0
6, 45480, Note_on_c, 2, 40, 88
6, 45596, Note_off_c, 2, 40, 0
6, 45600, Note_on_c, 2, 45, 88
6, 45658, Note_off_c, 2, 45, 0
6, 45660, Note_on_c, 2, 47, 88
6, 45689, Note_off_c, 2, 47, 0
6, 45690, Note_on_c, 2, 48, 88
6, 45719, Note_off_c, 2, 48, 0
6, 45720, Note_on_c, 2, 50, 88
6, 45749, Note_off_c, 2, 50, 0
6, 45750, Note_on_c, 2, 52, 88
6, 45779, Note_off_c, 2, 52, 0
6, 45780, Note_on_c, 2, 54, 88
6, 45809, Note_off_c, 2, 54, 0
6, 45810, Note_on_c, 2, 56, 88
6, 45839, Note_off_c, 2, 56, 0
6, 45840, Note_on_c, 2, 57, 88
6, 45956, Note_off_c, 2, 57, 0
6, 45960, Note_on_c, 2, 45, 88
6, 46076, Note_off_c, 2, 45, 0
6, 46110, Note_on_c, 2, 60, 88
6, 46139, Note_off_c, 2, 60, 0
6, 46140, Note_on_c, 2, 59, 88
6, 46169, Note_off_c, 2, 59, 0
6, 46170, Note_on_c, 2, 57, 88
6, 46199, Note_off_c, 2, 57, 0
6, 46200, Note_on_c, 2, 56, 88
6, 46258, Note_off_c, 2, 56, 0
6, 46260, Note_on_c, 2, 61, 88
6, 46318, Note_off_c, 2, 61, 0
6, 46320, Note_on_c, 2, 62, 88
6, 46378, Note_off_c, 2, 62, 0
6, 46380, Note_on_c, 2, 58, 88
6, 46438, Note_off_c, 2, 58, 0
6, 46440, Note_on_c, 2, 57, 88
6, 46498, Note_off_c, 2, 57, 0
6, 46500, Note_on_c, 2, 63, 88
6, 46558, Note_off_c, 2, 63, 0
6, 46560, Note_on_c, 2, 64, 88
6, 46618, Note_off_c, 2, 64, 0
6, 46620, Note_on_c, 2, 60, 88
6, 46678, Note_off_c, 2, 60, 0
6, 46680, Note_on_c, 2, 59, 88
6, 46738, Note_off_c, 2, 59, 0
6, 46740, Note_on_c, 2, 65, 88
6, 46856, Note_off_c, 2, 65, 0
6, 46860, Note_on_c, 2, 64, 88
6, 46976, Note_off_c, 2, 64, 0
6, 46980, Note_on_c, 2, 62, 88
6, 47038, Note_off_c, 2, 62, 0
6, 47040, Note_on_c, 2, 69, 88
6, 47156, Note_off_c, 2, 69, 0
6, 47160, Note_on_c, 2, 57, 88
6, 47276, Note_off_c, 2, 57, 0
6, 47280, Note_on_c, 2, 58, 88
6, 47396, Note_off_c, 2, 58, 0
6, 47400, Note_on_c, 2, 59, 88
6, 47516, Note_off_c, 2, 59, 0
6, 47520, Note_on_c, 2, 60, 88
6, 47636, Note_off_c, 2, 60, 0
6, 47640, Note_on_c, 2, 61, 88
6, 47756, Note_off_c, 2, 61, 0
6, 47760, Note_on_c, 2, 62, 88
6, 47876, Note_off_c, 2, 62, 0
6, 47880, Note_on_c, 2, 64, 88
6, 47996, Note_off_c, 2, 64, 0
6, 48000, Note_on_c, 2, 65, 88
6, 48116, Note_off_c, 2, 65, 0
6, 48120, Note_on_c, 2, 62, 88
6, 48236, Note_off_c, 2, 62, 0
6, 48240, Note_on_c, 2, 60, 88
6, 48356, Note_off_c, 2, 60, 0
6, 48360, Note_on_c, 2, 59, 88
6, 48476, Note_off_c, 2, 59, 0
6, 48480, Note_on_c, 2, 57, 88
6, 48596, Note_off_c, 2, 57, 0
6, 48600, Note_on_c, 2, 60, 88
6, 48716, Note_off_c, 2, 60, 0
6, 48720, Note_on_c, 2, 59, 88
6, 48836, Note_off_c, 2, 59, 0
6, 48840, Note_on_c, 2, 57, 88
6, 48956, Note_off_c, 2, 57, 0
6, 48960, Note_on_c, 2, 55, 88
6, 48989, Note_off_c, 2, 55, 0
6, 48990, Note_on_c, 2, 59, 88
6, 49019, Note_off_c, 2, 59, 0
6, 49020, Note_on_c, 2, 60, 88
6, 49049, Note_off_c, 2, 60, 0
6, 49050, Note_on_c, 2, 62, 88
6, 49079, Note_off_c, 2, 62, 0
6, 49080, Note_on_c, 2, 64, 88
6, 49138, Note_off_c, 2, 64, 0
6, 49140, Note_on_c, 2, 58, 88
6, 49198, Note_off_c, 2, 58, 0
6, 49200, Note_on_c, 2, 57, 88
6, 49258, Note_off_c, 2, 57, 0
6, 49260, Note_on_c, 2, 62, 88
6, 49318, Note_off_c, 2, 62, 0
6, 49320, Note_on_c, 2, 61, 88
6, 49378, Note_off_c, 2, 61, 0
6, 49380, Note_on_c, 2, 55, 88
6, 49467, Note_off_c, 2, 55, 0
6, 49470, Note_on_c, 2, 67, 88
6, 49499, Note_off_c, 2, 67, 0
6, 49500, Note_on_c, 2, 65, 88
6, 49529, Note_off_c, 2, 65, 0
6, 49530, Note_on_c, 2, 64, 88
6, 49559, Note_off_c, 2, 64, 0
6, 49560, Note_on_c, 2, 62, 88
6, 49618, Note_off_c, 2, 62, 0
6, 49620, Note_on_c, 2, 68, 88
6, 49678, Note_off_c, 2, 68, 0
6, 49680, Note_on_c, 2, 69, 88
6, 49738, Note_off_c, 2, 69, 0
6, 49740, Note_on_c, 2, 60, 88
6, 49798, Note_off_c, 2, 60, 0
6, 49800, Note_on_c, 2, 59, 88
6, 49858, Note_off_c, 2, 59, 0
6, 49860, Note_on_c, 2, 65, 88
6, 49918, Note_off_c, 2, 65, 0
6, 49920, Note_on_c, 2, 64, 88
6, 49949, Note_off_c, 2, 64, 0
6, 49950, Note_on_c, 2, 62, 88
6, 49979, Note_off_c, 2, 62, 0
6, 49980, Note_on_c, 2, 60, 88
6, 50009, Note_off_c, 2, 60, 0
6, 50010, Note_on_c, 2, 59, 88
6, 50039, Note_off_c, 2, 59, 0
6, 50040, Note_on_c, 2, 57, 88
6, 50098, Note_off_c, 2, 57, 0
6, 50100, Note_on_c, 2, 56, 88
6, 50158, Note_off_c, 2, 56, 0
6, 50160, Note_on_c, 2, 57, 88
6, 50218, Note_off_c, 2, 57, 0
6, 50220, Note_on_c, 2, 53, 88
6, 50278, Note_off_c, 2, 53, 0
6, 50280, Note_on_c, 2, 52, 88
6, 50338, Note_off_c, 2, 52, 0
6, 50340, Note_on_c, 2, 58, 88
6, 50398, Note_off_c, 2, 58, 0
6, 50400, Note_on_c, 2, 59, 88
6, 50458, Note_off_c, 2, 59, 0
6, 50460, Note_on_c, 2, 55, 88
6, 50518, Note_off_c, 2, 55, 0
6, 50520, Note_on_c, 2, 54, 88
6, 50578, Note_off_c, 2, 54, 0
6, 50580, Note_on_c, 2, 60, 88
6, 50696, Note_off_c, 2, 60, 0
6, 50700, Note_on_c, 2, 59, 88
6, 50816, Note_off_c, 2, 59, 0
6, 50820, Note_on_c, 2, 57, 88
6, 50878, Note_off_c, 2, 57, 0
6, 50880, Note_on_c, 2, 64, 88
6, 50996, Note_off_c, 2, 64, 0
6, 51000, Note_on_c, 2, 52, 88
6, 51116, Note_off_c, 2, 52, 0
6, 51120, Note_on_c, 2, 53, 88
6, 51236, Note_off_c, 2, 53, 0
6, 51240, Note_on_c, 2, 54, 88
6, 51356, Note_off_c, 2, 54, 0
6, 51360, Note_on_c, 2, 55, 88
6, 51476, Note_off_c, 2, 55, 0
6, 51480, Note_on_c, 2, 56, 88
6, 51596, Note_off_c, 2, 56, 0
6, 51600, Note_on_c, 2, 57, 88
6, 51716, Note_off_c, 2, 57, 0
6, 51720, Note_on_c, 2, 59, 88
6, 51836, Note_off_c, 2, 59, 0
6, 51840, Note_on_c, 2, 60, 88
6, 51956, Note_off_c, 2, 60, 0
6, 51960, Note_on_c, 2, 57, 88
6, 52076, Note_off_c, 2, 57, 0
6, 52080, Note_on_c, 2, 55, 88
6, 52196, Note_off_c, 2, 55, 0
6, 52200, Note_on_c, 2, 53, 88
6, 52316, Note_off_c, 2, 53, 0
6, 52320, Note_on_c, 2, 52, 88
6, 52349, Note_off_c, 2, 52, 0
6, 52350, Note_on_c, 2, 53, 88
6, 52379, Note_off_c, 2, 53, 0
6, 52380, Note_on_c, 2, 55, 88
6, 52409, Note_off_c, 2, 55, 0
6, 52410, Note_on_c, 2, 57, 88
6, 52439, Note_off_c, 2, 57, 0
6, 52440, Note_on_c, 2, 58, 88
6, 52498, Note_off_c, 2, 58, 0
6, 52500, Note_on_c, 2, 53, 88
6, 52558, Note_off_c, 2, 53, 0
6, 52560, Note_on_c, 2, 52, 88
6, 52618, Note_off_c, 2, 52, 0
6, 52620, Note_on_c, 2, 57, 88
6, 52678, Note_off_c, 2, 57, 0
6, 52680, Note_on_c, 2, 55, 88
6, 52738, Note_off_c, 2, 55, 0
6, 52740, Note_on_c, 2, 50, 88
6, 52798, Note_off_c, 2, 50, 0
6, 52800, Note_on_c, 2, 49, 88
6, 52916, Note_off_c, 2, 49, 0
6, 52920, Note_on_c, 2, 55, 88
6, 53036, Note_off_c, 2, 55, 0
6, 53040, Note_on_c, 2, 53, 88
6, 53156, Note_off_c, 2, 53, 0
6, 53160, Note_on_c, 2, 52, 88
6, 53276, Note_off_c, 2, 52, 0
6, 53280, Note_on_c, 2, 50, 88
6, 53309, Note_off_c, 2, 50, 0
6, 53310, Note_on_c, 2, 52, 88
6, 53339, Note_off_c, 2, 52, 0
6, 53340, Note_on_c, 2, 54, 88
6, 53369, Note_off_c, 2, 54, 0
6, 53370, Note_on_c, 2, 55, 88
6, 53399, Note_off_c, 2, 55, 0
6, 53400, Note_on_c, 2, 57, 88
6, 53458, Note_off_c, 2, 57, 0
6, 53460, Note_on_c, 2, 51, 88
6, 53518, Note_off_c, 2, 51, 0
6, 53520, Note_on_c, 2, 50, 88
6, 53578, Note_off_c, 2, 50, 0
6, 53580, Note_on_c, 2, 55, 88
6, 53638, Note_off_c, 2, 55, 0
6, 53640, Note_on_c, 2, 53, 88
6, 53698, Note_off_c, 2, 53, 0
6, 53700, Note_on_c, 2, 48, 88
6, 53758, Note_off_c, 2, 48, 0
6, 53760, Note_on_c, 2, 47, 88
6, 53876, Note_off_c, 2, 47, 0
6, 53880, Note_on_c, 2, 52, 88
6, 53996, Note_off_c, 2, 52, 0
6, 54000, Note_on_c, 2, 51, 88
6, 54116, Note_off_c, 2, 51, 0
6, 54120, Note_on_c, 2, 50, 88
6, 54236, Note_off_c, 2, 50, 0
6, 54240, Note_on_c, 2, 49, 88
6, 54356, Note_off_c, 2, 49, 0
6, 54360, Note_on_c, 2, 48, 88
6, 54476, Note_off_c, 2, 48, 0
6, 54480, Note_on_c, 2, 47, 88
6, 54596, Note_off_c, 2, 47, 0
6, 54600, Note_on_c, 2, 45, 88
6, 54749, Note_off_c, 2, 45, 0
6, 54750, Note_on_c, 2, 48, 88
6, 54779, Note_off_c, 2, 48, 0
6, 54780, Note_on_c, 2, 47, 88
6, 54809, Note_off_c, 2, 47, 0
6, 54810, Note_on_c, 2, 45, 88
6, 54839, Note_off_c, 2, 45, 0
6, 54840, Note_on_c, 2, 44, 88
6, 54898, Note_off_c, 2, 44, 0
6, 54900, Note_on_c, 2, 49, 88
6, 54958, Note_off_c, 2, 49, 0
6, 54960, Note_on_c, 2, 50, 88
6, 55018, Note_off_c, 2, 50, 0
6, 55020, Note_on_c, 2, 46, 88
6, 55078, Note_off_c, 2, 46, 0
6, 55080, Note_on_c, 2, 45, 88
6, 55138, Note_off_c, 2, 45, 0
6, 55140, Note_on_c, 2, 51, 88
6, 55198, Note_off_c, 2, 51, 0
6, 55200, Note_on_c, 2, 52, 88
6, 55258, Note_off_c, 2, 52, 0
6, 55260, Note_on_c, 2, 48, 88
6, 55318, Note_off_c, 2, 48, 0
6, 55320, Note_on_c, 2, 47, 88
6, 55378, Note_off_c, 2, 47, 0
6, 55380, Note_on_c, 2, 53, 88
6, 55496, Note_off_c, 2, 53, 0
6, 55500, Note_on_c, 2, 52, 88
6, 55616, Note_off_c, 2, 52, 0
6, 55620, Note_on_c, 2, 50, 88
6, 55678, Note_off_c, 2, 50, 0
6, 55680, Note_on_c, 2, 48, 88
6, 55796, Note_off_c, 2, 48, 0
6, 55800, Note_on_c, 2, 52, 88
6, 55916, Note_off_c, 2, 52, 0
6, 55920, Note_on_c, 2, 54, 88
6, 56036, Note_off_c, 2, 54, 0
6, 56040, Note_on_c, 2, 56, 88
6, 56156, Note_off_c, 2, 56, 0
6, 56160, Note_on_c, 2, 57, 88
6, 56276, Note_off_c, 2, 57, 0
6, 56280, Note_on_c, 2, 45, 88
6, 56396, Note_off_c, 2, 45, 0
6, 56400, Note_on_c, 2, 47, 88
6, 56516, Note_off_c, 2, 47, 0
6, 56520, Note_on_c, 2, 49, 88
6, 56636, Note_off_c, 2, 49, 0
6, 56640, Note_on_c, 2, 50, 88
6, 56756, Note_off_c, 2, 50, 0
6, 56760, Note_on_c, 2, 38, 88
6, 56876, Note_off_c, 2, 38, 0
6, 56880, Note_on_c, 2, 40, 88
6, 56996, Note_off_c, 2, 40, 0
6, 57000, Note_on_c, 2, 52, 88
6, 57116, Note_off_c, 2, 52, 0
6, 57120, Note_on_c, 2, 51, 88
6, 57236, Note_off_c, 2, 51, 0
6, 57240, Note_on_c, 2, 50, 88
6, 57356, Note_off_c, 2, 50, 0
6, 57360, Note_on_c, 2, 49, 88
6, 57476, Note_off_c, 2, 49, 0
6, 57480, Note_on_c, 2, 48, 88
6, 57596, Note_off_c, 2, 48, 0
6, 57600, Note_on_c, 2, 47, 88
6, 57706, Note_off_c, 2, 47, 0
6, 57720, Note_on_c, 2, 47, 88
6, 57836, Note_off_c, 2, 47, 0
6, 57840, Note_on_c, 2, 45, 88
6, 57946, Note_off_c, 2, 45, 0
6, 57960, Note_on_c, 2, 45, 88
6, 58076, Note_off_c, 2, 45, 0
6, 58080, Note_on_c, 2, 44, 88
6, 58186, Note_off_c, 2, 44, 0
6, 58200, Note_on_c, 2, 44, 88
6, 58316, Note_off_c, 2, 44, 0
6, 58320, Note_on_c, 2, 40, 88
6, 58426, Note_off_c, 2, 40, 0
6, 58440, Note_on_c, 2, 40, 88
6, 58556, Note_off_c, 2, 40, 0
6, 58560, Note_on_c, 2, 45, 88
6, 58706, Note_off_c, 2, 45, 0
6, 58710, Note_on_c, 2, 50, 88
6, 58739, Note_off_c, 2, 50, 0
6, 58740, Note_on_c, 2, 52, 88
6, 58769, Note_off_c, 2, 52, 0
6, 58770, Note_on_c, 2, 54, 88
6, 58799, Note_off_c, 2, 54, 0
6, 58800, Note_on_c, 2, 55, 88
6, 58858, Note_off_c, 2, 55, 0
6, 58860, Note_on_c, 2, 52, 88
6, 58918, Note_off_c, 2, 52, 0
6, 58920, Note_on_c, 2, 51, 88
6, 58978, Note_off_c, 2, 51, 0
6, 58980, Note_on_c, 2, 56, 88
6, 59038, Note_off_c, 2, 56, 0
6, 59040, Note_on_c, 2, 57, 88
6, 59098, Note_off_c, 2, 57, 0
6, 59100, Note_on_c, 2, 53, 88
6, 59158, Note_off_c, 2, 53, 0
6, 59160, Note_on_c, 2, 52, 88
6, 59218, Note_off_c, 2, 52, 0
6, 59220, Note_on_c, 2, 58, 88
6, 59336, Note_off_c, 2, 58, 0
6, 59340, Note_on_c, 2, 57, 88
6, 59456, Note_off_c, 2, 57, 0
6, 59460, Note_on_c, 2, 55, 88
6, 59518, Note_off_c, 2, 55, 0
6, 59520, Note_on_c, 2, 53, 88
6, 59549, Note_off_c, 2, 53, 0
6, 59550, Note_on_c, 2, 52, 88
6, 59579, Note_off_c, 2, 52, 0
6, 59580, Note_on_c, 2, 53, 88
6, 59609, Note_off_c, 2, 53, 0
6, 59610, Note_on_c, 2, 55, 88
6, 59639, Note_off_c, 2, 55, 0
6, 59640, Note_on_c, 2, 57, 88
6, 59756, Note_off_c, 2, 57, 0
6, 59760, Note_on_c, 2, 56, 88
6, 59876, Note_off_c, 2, 56, 0
6, 59880, Note_on_c, 2, 55, 88
6, 59996, Note_off_c, 2, 55, 0
6, 60000, Note_on_c, 2, 54, 88
6, 60116, Note_off_c, 2, 54, 0
6, 60120, Note_on_c, 2, 53, 88
6, 60236, Note_off_c, 2, 53, 0
6, 60240, Note_on_c, 2, 52, 88
6, 60356, Note_off_c, 2, 52, 0
6, 60360, Note_on_c, 2, 50, 88
6, 60538, Note_off_c, 2, 50, 0
6, 60540, Note_on_c, 2, 48, 88
6, 60569, Note_off_c, 2, 48, 0
6, 60570, Note_on_c, 2, 47, 88
6, 60599, Note_off_c, 2, 47, 0
6, 60600, Note_on_c, 2, 48, 88
6, 60658, Note_off_c, 2, 48, 0
6, 60660, Note_on_c, 2, 45, 88
6, 60718, Note_off_c, 2, 45, 0
6, 60720, Note_on_c, 2, 52, 88
6, 60735, Note_on_c, 2, 50, 88
6, 60735, Note_off_c, 2, 52, 0
6, 60757, Note_off_c, 2, 50, 0
6, 60758, Note_on_c, 2, 52, 88
6, 60837, Note_off_c, 2, 52, 0
6, 60840, Note_on_c, 2, 40, 88
6, 60956, Note_off_c, 2, 40, 0
6, 60960, Note_on_c, 2, 45, 88
6, 61018, Note_off_c, 2, 45, 0
6, 61020, Note_on_c, 2, 47, 88
6, 61049, Note_off_c, 2, 47, 0
6, 61050, Note_on_c, 2, 48, 88
6, 61079, Note_off_c, 2, 48, 0
6, 61080, Note_on_c, 2, 50, 88
6, 61109, Note_off_c, 2, 50, 0
6, 61110, Note_on_c, 2, 52, 88
6, 61139, Note_off_c, 2, 52, 0
6, 61140, Note_on_c, 2, 54, 88
6, 61169, Note_off_c, 2, 54, 0
6, 61170, Note_on_c, 2, 56, 88
6, 61199, Note_off_c, 2, 56, 0
6, 61200, Note_on_c, 2, 57, 88
6, 61316, Note_off_c, 2, 57, 0
6, 61320, Note_on_c, 2, 45, 88
6, 61436, Note_off_c, 2, 45, 0
6, 61436, End_track
0, 0, End_of_file
