0, 0, Header, 1, 8, 240
1, 0, Start_track
1, 0, Time_signature, 12, 4, 24, 8
1, 0, Tempo, 937500
1, 0, SMPTE_offset, 64, 0, 0, 0, 103
1, 23040, Time_signature, 12, 4, 24, 8
1, 23040, End_track
2, 0, Start_track
2, 0, Title_t, "(C) & (P) 1993"
2, 127, End_track
3, 0, Start_track
3, 0, Title_t, "CCARH,Stanford"
3, 0, End_track
4, 0, Start_track
4, 0, Title_t, "Track 1"
4, 0, Program_c, 0, 6
4, 60, Note_on_c, 0, 82, 88
4, 118, Note_off_c, 0, 82, 0
4, 120, Note_on_c, 0, 81, 88
4, 178, Note_off_c, 0, 81, 0
4, 180, Note_on_c, 0, 79, 88
4, 238, Note_off_c, 0, 79, 0
4, 240, Note_on_c, 0, 77, 88
4, 298, Note_off_c, 0, 77, 0
4, 300, Note_on_c, 0, 75, 88
4, 358, Note_off_c, 0, 75, 0
4, 360, Note_on_c, 0, 74, 88
4, 535, Note_off_c, 0, 74, 0
4, 540, Note_on_c, 0, 75, 88
4, 715, Note_off_c, 0, 75, 0
4, 720, Note_on_c, 0, 77, 88
4, 836, Note_off_c, 0, 77, 0
4, 840, Note_on_c, 0, 74, 88
4, 898, Note_off_c, 0, 74, 0
4, 900, Note_on_c, 0, 75, 88
4, 1016, Note_off_c, 0, 75, 0
4, 1020, Note_on_c, 0, 79, 88
4, 1078, Note_off_c, 0, 79, 0
4, 1080, Note_on_c, 0, 81, 88
4, 1095, Note_on_c, 0, 79, 88
4, 1095, Note_off_c, 0, 81, 0
4, 1110, Note_off_c, 0, 79, 0
4, 1110, Note_on_c, 0, 81, 88
4, 1125, Note_on_c, 0, 79, 88
4, 1125, Note_off_c, 0, 81, 0
4, 1140, Note_on_c, 0, 77, 88
4, 1140, Note_off_c, 0, 79, 0
4, 1198, Note_off_c, 0, 77, 0
4, 1200, Note_on_c, 0, 79, 88
4, 1258, Note_off_c, 0, 79, 0
4, 1260, Note_on_c, 0, 77, 88
4, 1556, Note_off_c, 0, 77, 0
4, 1560, Note_on_c, 0, 70, 88
4, 1618, Note_off_c, 0, 70, 0
4, 1620, Note_on_c, 0, 69, 88
4, 1736, Note_off_c, 0, 69, 0
4, 1740, Note_on_c, 0, 75, 88
4, 1798, Note_off_c, 0, 75, 0
4, 1800, Note_on_c, 0, 74, 88
4, 1975, Note_off_c, 0, 74, 0
4, 1980, Note_on_c, 0, 72, 88
4, 2155, Note_off_c, 0, 72, 0
4, 2160, Note_on_c, 0, 70, 88
4, 2218, Note_off_c, 0, 70, 0
4, 2220, Note_on_c, 0, 72, 88
4, 2278, Note_off_c, 0, 72, 0
4, 2280, Note_on_c, 0, 74, 88
4, 2338, Note_off_c, 0, 74, 0
4, 2340, Note_on_c, 0, 75, 88
4, 2398, Note_off_c, 0, 75, 0
4, 2400, Note_on_c, 0, 77, 88
4, 2458, Note_off_c, 0, 77, 0
4, 2460, Note_on_c, 0, 79, 88
4, 2518, Note_off_c, 0, 79, 0
4, 2520, Note_on_c, 0, 72, 88
4, 2938, Note_off_c, 0, 72, 0
4, 2940, Note_on_c, 0, 69, 88
4, 2998, Note_off_c, 0, 69, 0
4, 3000, Note_on_c, 0, 70, 88
4, 3058, Note_off_c, 0, 70, 0
4, 3060, Note_on_c, 0, 72, 88
4, 3118, Note_off_c, 0, 72, 0
4, 3120, Note_on_c, 0, 74, 88
4, 3178, Note_off_c, 0, 74, 0
4, 3180, Note_on_c, 0, 75, 88
4, 3238, Note_off_c, 0, 75, 0
4, 3240, Note_on_c, 0, 77, 88
4, 3415, Note_off_c, 0, 77, 0
4, 3420, Note_on_c, 0, 75, 88
4, 3595, Note_off_c, 0, 75, 0
4, 3600, Note_on_c, 0, 74, 88
4, 3894, Note_off_c, 0, 74, 0
4, 3900, Note_on_c, 0, 72, 88
4, 3958, Note_off_c, 0, 72, 0
4, 3960, Note_on_c, 0, 70, 88
4, 4378, Note_off_c, 0, 70, 0
4, 4380, Note_on_c, 0, 72, 88
4, 4438, Note_off_c, 0, 72, 0
4, 4440, Note_on_c, 0, 67, 88
4, 4498, Note_off_c, 0, 67, 0
4, 4500, Note_on_c, 0, 69, 88
4, 4853, Note_off_c, 0, 69, 0
4, 4860, Note_on_c, 0, 72, 88
4, 4878, Note_off_c, 0, 72, 0
4, 4879, Note_on_c, 0, 70, 88
4, 4897, Note_off_c, 0, 70, 0
4, 4898, Note_on_c, 0, 72, 88
4, 4916, Note_on_c, 0, 70, 88
4, 4916, Note_off_c, 0, 72, 0
4, 4934, Note_off_c, 0, 70, 0
4, 4935, Note_on_c, 0, 72, 88
4, 4953, Note_off_c, 0, 72, 0
4, 4954, Note_on_c, 0, 70, 88
4, 4972, Note_off_c, 0, 70, 0
4, 4973, Note_on_c, 0, 72, 88
4, 4991, Note_on_c, 0, 70, 88
4, 4991, Note_off_c, 0, 72, 0
4, 5009, Note_off_c, 0, 70, 0
4, 5010, Note_on_c, 0, 69, 88
4, 5025, Note_off_c, 0, 69, 0
4, 5025, Note_on_c, 0, 70, 88
4, 5040, Note_off_c, 0, 70, 0
4, 5040, Note_on_c, 0, 72, 88
4, 5098, Note_off_c, 0, 72, 0
4, 5100, Note_on_c, 0, 77, 88
4, 5158, Note_off_c, 0, 77, 0
4, 5160, Note_on_c, 0, 76, 88
4, 5218, Note_off_c, 0, 76, 0
4, 5220, Note_on_c, 0, 74, 88
4, 5278, Note_off_c, 0, 74, 0
4, 5280, Note_on_c, 0, 72, 88
4, 5338, Note_off_c, 0, 72, 0
4, 5340, Note_on_c, 0, 70, 88
4, 5385, Note_off_c, 0, 70, 0
4, 5400, Note_on_c, 0, 70, 88
4, 5415, Note_on_c, 0, 69, 88
4, 5415, Note_off_c, 0, 70, 0
4, 5430, Note_off_c, 0, 69, 0
4, 5430, Note_on_c, 0, 70, 88
4, 5445, Note_on_c, 0, 69, 88
4, 5445, Note_off_c, 0, 70, 0
4, 5460, Note_on_c, 0, 67, 88
4, 5460, Note_off_c, 0, 69, 0
4, 5518, Note_off_c, 0, 67, 0
4, 5520, Note_on_c, 0, 69, 88
4, 5578, Note_off_c, 0, 69, 0
4, 5580, Note_on_c, 0, 67, 88
4, 5755, Note_off_c, 0, 67, 0
4, 5760, Note_on_c, 0, 60, 88
4, 5818, Note_off_c, 0, 60, 0
4, 5820, Note_on_c, 0, 64, 88
4, 5878, Note_off_c, 0, 64, 0
4, 5880, Note_on_c, 0, 67, 88
4, 5938, Note_off_c, 0, 67, 0
4, 5940, Note_on_c, 0, 70, 88
4, 5998, Note_off_c, 0, 70, 0
4, 6000, Note_on_c, 0, 69, 88
4, 6058, Note_off_c, 0, 69, 0
4, 6060, Note_on_c, 0, 70, 88
4, 6118, Note_off_c, 0, 70, 0
4, 6120, Note_on_c, 0, 60, 88
4, 6178, Note_off_c, 0, 60, 0
4, 6180, Note_on_c, 0, 64, 88
4, 6238, Note_off_c, 0, 64, 0
4, 6240, Note_on_c, 0, 65, 88
4, 6298, Note_off_c, 0, 65, 0
4, 6300, Note_on_c, 0, 69, 88
4, 6358, Note_off_c, 0, 69, 0
4, 6360, Note_on_c, 0, 67, 88
4, 6418, Note_off_c, 0, 67, 0
4, 6420, Note_on_c, 0, 69, 88
4, 6478, Note_off_c, 0, 69, 0
4, 6480, Note_on_c, 0, 58, 88
4, 6538, Note_off_c, 0, 58, 0
4, 6540, Note_on_c, 0, 62, 88
4, 6598, Note_off_c, 0, 62, 0
4, 6600, Note_on_c, 0, 64, 88
4, 6658, Note_off_c, 0, 64, 0
4, 6660, Note_on_c, 0, 67, 88
4, 6718, Note_off_c, 0, 67, 0
4, 6720, Note_on_c, 0, 65, 88
4, 6778, Note_off_c, 0, 65, 0
4, 6780, Note_on_c, 0, 67, 88
4, 6838, Note_off_c, 0, 67, 0
4, 6840, Note_on_c, 0, 58, 88
4, 6898, Note_off_c, 0, 58, 0
4, 6900, Note_on_c, 0, 57, 88
4, 6958, Note_off_c, 0, 57, 0
4, 6960, Note_on_c, 0, 60, 88
4, 7018, Note_off_c, 0, 60, 0
4, 7020, Note_on_c, 0, 65, 88
4, 7078, Note_off_c, 0, 65, 0
4, 7080, Note_on_c, 0, 69, 88
4, 7138, Note_off_c, 0, 69, 0
4, 7140, Note_on_c, 0, 72, 88
4, 7198, Note_off_c, 0, 72, 0
4, 7200, Note_on_c, 0, 75, 88
4, 7258, Note_off_c, 0, 75, 0
4, 7260, Note_on_c, 0, 74, 88
4, 7318, Note_off_c, 0, 74, 0
4, 7320, Note_on_c, 0, 75, 88
4, 7378, Note_off_c, 0, 75, 0
4, 7380, Note_on_c, 0, 65, 88
4, 7438, Note_off_c, 0, 65, 0
4, 7440, Note_on_c, 0, 69, 88
4, 7498, Note_off_c, 0, 69, 0
4, 7500, Note_on_c, 0, 72, 88
4, 7558, Note_off_c, 0, 72, 0
4, 7560, Note_on_c, 0, 74, 88
4, 7618, Note_off_c, 0, 74, 0
4, 7620, Note_on_c, 0, 72, 88
4, 7678, Note_off_c, 0, 72, 0
4, 7680, Note_on_c, 0, 74, 88
4, 7738, Note_off_c, 0, 74, 0
4, 7740, Note_on_c, 0, 65, 88
4, 7798, Note_off_c, 0, 65, 0
4, 7800, Note_on_c, 0, 69, 88
4, 7858, Note_off_c, 0, 69, 0
4, 7860, Note_on_c, 0, 70, 88
4, 7918, Note_off_c, 0, 70, 0
4, 7920, Note_on_c, 0, 72, 88
4, 7978, Note_off_c, 0, 72, 0
4, 7980, Note_on_c, 0, 70, 88
4, 8038, Note_off_c, 0, 70, 0
4, 8040, Note_on_c, 0, 72, 88
4, 8098, Note_off_c, 0, 72, 0
4, 8100, Note_on_c, 0, 63, 88
4, 8158, Note_off_c, 0, 63, 0
4, 8160, Note_on_c, 0, 67, 88
4, 8218, Note_off_c, 0, 67, 0
4, 8220, Note_on_c, 0, 69, 88
4, 8265, Note_off_c, 0, 69, 0
4, 8280, Note_on_c, 0, 69, 88
4, 8338, Note_off_c, 0, 69, 0
4, 8340, Note_on_c, 0, 70, 88
4, 8398, Note_off_c, 0, 70, 0
4, 8400, Note_on_c, 0, 65, 88
4, 8458, Note_off_c, 0, 65, 0
4, 8460, Note_on_c, 0, 62, 88
4, 8698, Note_off_c, 0, 62, 0
4, 8700, Note_on_c, 0, 60, 88
4, 8758, Note_off_c, 0, 60, 0
4, 8760, Note_on_c, 0, 62, 88
4, 8818, Note_off_c, 0, 62, 0
4, 8820, Note_on_c, 0, 57, 88
4, 8878, Note_off_c, 0, 57, 0
4, 8880, Note_on_c, 0, 62, 88
4, 8938, Note_off_c, 0, 62, 0
4, 8940, Note_on_c, 0, 58, 88
4, 8998, Note_off_c, 0, 58, 0
4, 9000, Note_on_c, 0, 55, 88
4, 9058, Note_off_c, 0, 55, 0
4, 9060, Note_on_c, 0, 62, 88
4, 9118, Note_off_c, 0, 62, 0
4, 9120, Note_on_c, 0, 58, 88
4, 9178, Note_off_c, 0, 58, 0
4, 9180, Note_on_c, 0, 55, 88
4, 9238, Note_off_c, 0, 55, 0
4, 9240, Note_on_c, 0, 62, 88
4, 9298, Note_off_c, 0, 62, 0
4, 9300, Note_on_c, 0, 70, 88
4, 9358, Note_off_c, 0, 70, 0
4, 9360, Note_on_c, 0, 60, 88
4, 9418, Note_off_c, 0, 60, 0
4, 9420, Note_on_c, 0, 58, 88
4, 9478, Note_off_c, 0, 58, 0
4, 9480, Note_on_c, 0, 60, 88
4, 9538, Note_off_c, 0, 60, 0
4, 9540, Note_on_c, 0, 55, 88
4, 9598, Note_off_c, 0, 55, 0
4, 9600, Note_on_c, 0, 60, 88
4, 9658, Note_off_c, 0, 60, 0
4, 9660, Note_on_c, 0, 57, 88
4, 9718, Note_off_c, 0, 57, 0
4, 9720, Note_on_c, 0, 54, 88
4, 9778, Note_off_c, 0, 54, 0
4, 9780, Note_on_c, 0, 60, 88
4, 9838, Note_off_c, 0, 60, 0
4, 9840, Note_on_c, 0, 57, 88
4, 9898, Note_off_c, 0, 57, 0
4, 9900, Note_on_c, 0, 54, 88
4, 9958, Note_off_c, 0, 54, 0
4, 9960, Note_on_c, 0, 60, 88
4, 10018, Note_off_c, 0, 60, 0
4, 10020, Note_on_c, 0, 69, 88
4, 10078, Note_off_c, 0, 69, 0
4, 10080, Note_on_c, 0, 58, 88
4, 10138, Note_off_c, 0, 58, 0
4, 10140, Note_on_c, 0, 57, 88
4, 10198, Note_off_c, 0, 57, 0
4, 10200, Note_on_c, 0, 58, 88
4, 10258, Note_off_c, 0, 58, 0
4, 10260, Note_on_c, 0, 62, 88
4, 10435, Note_off_c, 0, 62, 0
4, 10440, Note_on_c, 0, 67, 88
4, 10615, Note_off_c, 0, 67, 0
4, 10620, Note_on_c, 0, 48, 88
4, 10795, Note_off_c, 0, 48, 0
4, 10800, Note_on_c, 0, 41, 88
4, 10975, Note_off_c, 0, 41, 0
4, 10980, Note_on_c, 0, 60, 88
4, 11155, Note_off_c, 0, 60, 0
4, 11160, Note_on_c, 0, 65, 88
4, 11335, Note_off_c, 0, 65, 0
4, 11340, Note_on_c, 0, 46, 88
4, 11515, Note_off_c, 0, 46, 0
4, 11520, Note_on_c, 0, 39, 88
4, 11695, Note_off_c, 0, 39, 0
4, 11700, Note_on_c, 0, 63, 88
4, 11934, Note_off_c, 0, 63, 0
4, 11940, Note_on_c, 0, 72, 88
4, 11998, Note_off_c, 0, 72, 0
4, 12000, Note_on_c, 0, 70, 88
4, 12058, Note_off_c, 0, 70, 0
4, 12060, Note_on_c, 0, 69, 88
4, 12118, Note_off_c, 0, 69, 0
4, 12120, Note_on_c, 0, 67, 88
4, 12178, Note_off_c, 0, 67, 0
4, 12180, Note_on_c, 0, 65, 88
4, 12238, Note_off_c, 0, 65, 0
4, 12240, Note_on_c, 0, 63, 88
4, 12356, Note_off_c, 0, 63, 0
4, 12360, Note_on_c, 0, 62, 88
4, 12418, Note_off_c, 0, 62, 0
4, 12420, Note_on_c, 0, 70, 88
4, 12654, Note_off_c, 0, 70, 0
4, 12660, Note_on_c, 0, 74, 88
4, 12718, Note_off_c, 0, 74, 0
4, 12720, Note_on_c, 0, 72, 88
4, 12778, Note_off_c, 0, 72, 0
4, 12780, Note_on_c, 0, 70, 88
4, 12838, Note_off_c, 0, 70, 0
4, 12840, Note_on_c, 0, 69, 88
4, 12898, Note_off_c, 0, 69, 0
4, 12900, Note_on_c, 0, 67, 88
4, 12958, Note_off_c, 0, 67, 0
4, 12960, Note_on_c, 0, 65, 88
4, 13018, Note_off_c, 0, 65, 0
4, 13020, Note_on_c, 0, 67, 88
4, 13078, Note_off_c, 0, 67, 0
4, 13080, Note_on_c, 0, 69, 88
4, 13138, Note_off_c, 0, 69, 0
4, 13140, Note_on_c, 0, 70, 88
4, 13198, Note_off_c, 0, 70, 0
4, 13200, Note_on_c, 0, 72, 88
4, 13258, Note_off_c, 0, 72, 0
4, 13260, Note_on_c, 0, 74, 88
4, 13494, Note_off_c, 0, 74, 0
4, 13500, Note_on_c, 0, 72, 88
4, 13616, Note_off_c, 0, 72, 0
4, 13620, Note_on_c, 0, 70, 88
4, 13678, Note_off_c, 0, 70, 0
4, 13680, Note_on_c, 0, 69, 88
4, 13738, Note_off_c, 0, 69, 0
4, 13740, Note_on_c, 0, 70, 88
4, 13798, Note_off_c, 0, 70, 0
4, 13800, Note_on_c, 0, 72, 88
4, 13858, Note_off_c, 0, 72, 0
4, 13860, Note_on_c, 0, 74, 88
4, 13918, Note_off_c, 0, 74, 0
4, 13920, Note_on_c, 0, 76, 88
4, 13978, Note_off_c, 0, 76, 0
4, 13980, Note_on_c, 0, 77, 88
4, 14214, Note_off_c, 0, 77, 0
4, 14220, Note_on_c, 0, 76, 88
4, 14336, Note_off_c, 0, 76, 0
4, 14340, Note_on_c, 0, 74, 88
4, 14398, Note_off_c, 0, 74, 0
4, 14400, Note_on_c, 0, 72, 88
4, 14458, Note_off_c, 0, 72, 0
4, 14460, Note_on_c, 0, 77, 88
4, 14518, Note_off_c, 0, 77, 0
4, 14520, Note_on_c, 0, 76, 88
4, 14578, Note_off_c, 0, 76, 0
4, 14580, Note_on_c, 0, 74, 88
4, 14638, Note_off_c, 0, 74, 0
4, 14640, Note_on_c, 0, 72, 88
4, 14698, Note_off_c, 0, 72, 0
4, 14700, Note_on_c, 0, 70, 88
4, 14758, Note_off_c, 0, 70, 0
4, 14760, Note_on_c, 0, 69, 88
4, 14818, Note_off_c, 0, 69, 0
4, 14820, Note_on_c, 0, 67, 88
4, 14878, Note_off_c, 0, 67, 0
4, 14880, Note_on_c, 0, 69, 88
4, 14938, Note_off_c, 0, 69, 0
4, 14940, Note_on_c, 0, 70, 88
4, 14998, Note_off_c, 0, 70, 0
4, 15000, Note_on_c, 0, 69, 88
4, 15058, Note_off_c, 0, 69, 0
4, 15060, Note_on_c, 0, 67, 88
4, 15118, Note_off_c, 0, 67, 0
4, 15120, Note_on_c, 0, 65, 88
4, 15178, Note_off_c, 0, 65, 0
4, 15180, Note_on_c, 0, 67, 88
4, 15238, Note_off_c, 0, 67, 0
4, 15240, Note_on_c, 0, 69, 88
4, 15298, Note_off_c, 0, 69, 0
4, 15300, Note_on_c, 0, 70, 88
4, 15358, Note_off_c, 0, 70, 0
4, 15360, Note_on_c, 0, 72, 88
4, 15418, Note_off_c, 0, 72, 0
4, 15420, Note_on_c, 0, 74, 88
4, 15465, Note_off_c, 0, 74, 0
4, 15480, Note_on_c, 0, 74, 88
4, 15596, Note_off_c, 0, 74, 0
4, 15600, Note_on_c, 0, 67, 88
4, 15658, Note_off_c, 0, 67, 0
4, 15660, Note_on_c, 0, 69, 88
4, 15718, Note_off_c, 0, 69, 0
4, 15720, Note_on_c, 0, 70, 88
4, 15778, Note_off_c, 0, 70, 0
4, 15780, Note_on_c, 0, 72, 88
4, 15838, Note_off_c, 0, 72, 0
4, 15840, Note_on_c, 0, 72, 88
4, 15956, Note_off_c, 0, 72, 0
4, 15960, Note_on_c, 0, 65, 88
4, 16018, Note_off_c, 0, 65, 0
4, 16020, Note_on_c, 0, 67, 88
4, 16078, Note_off_c, 0, 67, 0
4, 16080, Note_on_c, 0, 69, 88
4, 16138, Note_off_c, 0, 69, 0
4, 16140, Note_on_c, 0, 70, 88
4, 16185, Note_off_c, 0, 70, 0
4, 16200, Note_on_c, 0, 70, 88
4, 16316, Note_off_c, 0, 70, 0
4, 16620, Note_on_c, 0, 65, 88
4, 16678, Note_off_c, 0, 65, 0
4, 16680, Note_on_c, 0, 67, 88
4, 16738, Note_off_c, 0, 67, 0
4, 16740, Note_on_c, 0, 69, 88
4, 16798, Note_off_c, 0, 69, 0
4, 16800, Note_on_c, 0, 70, 88
4, 16858, Note_off_c, 0, 70, 0
4, 16860, Note_on_c, 0, 72, 88
4, 16918, Note_off_c, 0, 72, 0
4, 16920, Note_on_c, 0, 74, 88
4, 16978, Note_off_c, 0, 74, 0
4, 16980, Note_on_c, 0, 70, 88
4, 17038, Note_off_c, 0, 70, 0
4, 17040, Note_on_c, 0, 72, 88
4, 17098, Note_off_c, 0, 72, 0
4, 17100, Note_on_c, 0, 74, 88
4, 17158, Note_off_c, 0, 74, 0
4, 17160, Note_on_c, 0, 76, 88
4, 17218, Note_off_c, 0, 76, 0
4, 17220, Note_on_c, 0, 77, 88
4, 17278, Note_off_c, 0, 77, 0
4, 17280, Note_on_c, 0, 79, 88
4, 17750, Note_off_c, 0, 79, 0
4, 17760, Note_on_c, 0, 72, 88
4, 17818, Note_off_c, 0, 72, 0
4, 17820, Note_on_c, 0, 77, 88
4, 17936, Note_off_c, 0, 77, 0
4, 17940, Note_on_c, 0, 75, 88
4, 17998, Note_off_c, 0, 75, 0
4, 18000, Note_on_c, 0, 74, 88
4, 18470, Note_off_c, 0, 74, 0
4, 18480, Note_on_c, 0, 67, 88
4, 18538, Note_off_c, 0, 67, 0
4, 18540, Note_on_c, 0, 72, 88
4, 18656, Note_off_c, 0, 72, 0
4, 18660, Note_on_c, 0, 70, 88
4, 18718, Note_off_c, 0, 70, 0
4, 18720, Note_on_c, 0, 69, 88
4, 18954, Note_off_c, 0, 69, 0
4, 18960, Note_on_c, 0, 71, 88
4, 19018, Note_off_c, 0, 71, 0
4, 19020, Note_on_c, 0, 72, 88
4, 19078, Note_off_c, 0, 72, 0
4, 19080, Note_on_c, 0, 74, 88
4, 19138, Note_off_c, 0, 74, 0
4, 19140, Note_on_c, 0, 65, 88
4, 19198, Note_off_c, 0, 65, 0
4, 19200, Note_on_c, 0, 67, 88
4, 19258, Note_off_c, 0, 67, 0
4, 19260, Note_on_c, 0, 68, 88
4, 19318, Note_off_c, 0, 68, 0
4, 19320, Note_on_c, 0, 67, 88
4, 19378, Note_off_c, 0, 67, 0
4, 19380, Note_on_c, 0, 65, 88
4, 19438, Note_off_c, 0, 65, 0
4, 19440, Note_on_c, 0, 64, 88
4, 19498, Note_off_c, 0, 64, 0
4, 19500, Note_on_c, 0, 60, 88
4, 19558, Note_off_c, 0, 60, 0
4, 19560, Note_on_c, 0, 59, 88
4, 19618, Note_off_c, 0, 59, 0
4, 19620, Note_on_c, 0, 60, 88
4, 19678, Note_off_c, 0, 60, 0
4, 19680, Note_on_c, 0, 62, 88
4, 19738, Note_off_c, 0, 62, 0
4, 19740, Note_on_c, 0, 64, 88
4, 19798, Note_off_c, 0, 64, 0
4, 19800, Note_on_c, 0, 65, 88
4, 19858, Note_off_c, 0, 65, 0
4, 19860, Note_on_c, 0, 60, 88
4, 19918, Note_off_c, 0, 60, 0
4, 19920, Note_on_c, 0, 59, 88
4, 19978, Note_off_c, 0, 59, 0
4, 19980, Note_on_c, 0, 60, 88
4, 20038, Note_off_c, 0, 60, 0
4, 20040, Note_on_c, 0, 64, 88
4, 20098, Note_off_c, 0, 64, 0
4, 20100, Note_on_c, 0, 65, 88
4, 20158, Note_off_c, 0, 65, 0
4, 20160, Note_on_c, 0, 67, 88
4, 20218, Note_off_c, 0, 67, 0
4, 20220, Note_on_c, 0, 60, 88
4, 20278, Note_off_c, 0, 60, 0
4, 20280, Note_on_c, 0, 59, 88
4, 20338, Note_off_c, 0, 59, 0
4, 20340, Note_on_c, 0, 60, 88
4, 20398, Note_off_c, 0, 60, 0
4, 20400, Note_on_c, 0, 65, 88
4, 20458, Note_off_c, 0, 65, 0
4, 20460, Note_on_c, 0, 67, 88
4, 20518, Note_off_c, 0, 67, 0
4, 20520, Note_on_c, 0, 68, 88
4, 20578, Note_off_c, 0, 68, 0
4, 20580, Note_on_c, 0, 65, 88
4, 20638, Note_off_c, 0, 65, 0
4, 20640, Note_on_c, 0, 67, 88
4, 20698, Note_off_c, 0, 67, 0
4, 20700, Note_on_c, 0, 68, 88
4, 20758, Note_off_c, 0, 68, 0
4, 20760, Note_on_c, 0, 70, 88
4, 20818, Note_off_c, 0, 70, 0
4, 20820, Note_on_c, 0, 72, 88
4, 20878, Note_off_c, 0, 72, 0
4, 20880, Note_on_c, 0, 73, 88
4, 20938, Note_off_c, 0, 73, 0
4, 20940, Note_on_c, 0, 70, 88
4, 20998, Note_off_c, 0, 70, 0
4, 21000, Note_on_c, 0, 72, 88
4, 21058, Note_off_c, 0, 72, 0
4, 21060, Note_on_c, 0, 73, 88
4, 21118, Note_off_c, 0, 73, 0
4, 21120, Note_on_c, 0, 75, 88
4, 21178, Note_off_c, 0, 75, 0
4, 21180, Note_on_c, 0, 77, 88
4, 21238, Note_off_c, 0, 77, 0
4, 21240, Note_on_c, 0, 78, 88
4, 21298, Note_off_c, 0, 78, 0
4, 21300, Note_on_c, 0, 80, 88
4, 21358, Note_off_c, 0, 80, 0
4, 21360, Note_on_c, 0, 82, 88
4, 21418, Note_off_c, 0, 82, 0
4, 21420, Note_on_c, 0, 80, 88
4, 21478, Note_off_c, 0, 80, 0
4, 21480, Note_on_c, 0, 78, 88
4, 21538, Note_off_c, 0, 78, 0
4, 21540, Note_on_c, 0, 77, 88
4, 21598, Note_off_c, 0, 77, 0
4, 21600, Note_on_c, 0, 76, 88
4, 21658, Note_off_c, 0, 76, 0
4, 21660, Note_on_c, 0, 79, 88
4, 21718, Note_off_c, 0, 79, 0
4, 21720, Note_on_c, 0, 70, 88
4, 21778, Note_off_c, 0, 70, 0
4, 21780, Note_on_c, 0, 73, 88
4, 21838, Note_off_c, 0, 73, 0
4, 21840, Note_on_c, 0, 72, 88
4, 21898, Note_off_c, 0, 72, 0
4, 21900, Note_on_c, 0, 70, 88
4, 21958, Note_off_c, 0, 70, 0
4, 21960, Note_on_c, 0, 72, 88
4, 22018, Note_off_c, 0, 72, 0
4, 22020, Note_on_c, 0, 77, 88
4, 22078, Note_off_c, 0, 77, 0
4, 22080, Note_on_c, 0, 69, 88
4, 22138, Note_off_c, 0, 69, 0
4, 22140, Note_on_c, 0, 70, 88
4, 22198, Note_off_c, 0, 70, 0
4, 22200, Note_on_c, 0, 72, 88
4, 22258, Note_off_c, 0, 72, 0
4, 22260, Note_on_c, 0, 74, 88
4, 22318, Note_off_c, 0, 74, 0
4, 22320, Note_on_c, 0, 72, 88
4, 22378, Note_off_c, 0, 72, 0
4, 22380, Note_on_c, 0, 70, 88
4, 22438, Note_off_c, 0, 70, 0
4, 22440, Note_on_c, 0, 69, 88
4, 22498, Note_off_c, 0, 69, 0
4, 22500, Note_on_c, 0, 67, 88
4, 22558, Note_off_c, 0, 67, 0
4, 22560, Note_on_c, 0, 77, 88
4, 22618, Note_off_c, 0, 77, 0
4, 22620, Note_on_c, 0, 76, 88
4, 22678, Note_off_c, 0, 76, 0
4, 22680, Note_on_c, 0, 77, 88
4, 22738, Note_off_c, 0, 77, 0
4, 22740, Note_on_c, 0, 72, 88
4, 22798, Note_off_c, 0, 72, 0
4, 22800, Note_on_c, 0, 69, 88
4, 22858, Note_off_c, 0, 69, 0
4, 22860, Note_on_c, 0, 65, 88
4, 23035, Note_off_c, 0, 65, 0
4, 23100, Note_on_c, 0, 82, 88
4, 23158, Note_off_c, 0, 82, 0
4, 23160, Note_on_c, 0, 81, 88
4, 23218, Note_off_c, 0, 81, 0
4, 23220, Note_on_c, 0, 79, 88
4, 23278, Note_off_c, 0, 79, 0
4, 23280, Note_on_c, 0, 77, 88
4, 23338, Note_off_c, 0, 77, 0
4, 23340, Note_on_c, 0, 75, 88
4, 23398, Note_off_c, 0, 75, 0
4, 23400, Note_on_c, 0, 74, 88
4, 23575, Note_off_c, 0, 74, 0
4, 23580, Note_on_c, 0, 75, 88
4, 23755, Note_off_c, 0, 75, 0
4, 23760, Note_on_c, 0, 77, 88
4, 23876, Note_off_c, 0, 77, 0
4, 23880, Note_on_c, 0, 74, 88
4, 23938, Note_off_c, 0, 74, 0
4, 23940, Note_on_c, 0, 75, 88
4, 24056, Note_off_c, 0, 75, 0
4, 24060, Note_on_c, 0, 79, 88
4, 24118, Note_off_c, 0, 79, 0
4, 24120, Note_on_c, 0, 81, 88
4, 24135, Note_on_c, 0, 79, 88
4, 24135, Note_off_c, 0, 81, 0
4, 24150, Note_off_c, 0, 79, 0
4, 24150, Note_on_c, 0, 81, 88
4, 24165, Note_on_c, 0, 79, 88
4, 24165, Note_off_c, 0, 81, 0
4, 24180, Note_on_c, 0, 77, 88
4, 24180, Note_off_c, 0, 79, 0
4, 24238, Note_off_c, 0, 77, 0
4, 24240, Note_on_c, 0, 79, 88
4, 24298, Note_off_c, 0, 79, 0
4, 24300, Note_on_c, 0, 77, 88
4, 24596, Note_off_c, 0, 77, 0
4, 24600, Note_on_c, 0, 70, 88
4, 24658, Note_off_c, 0, 70, 0
4, 24660, Note_on_c, 0, 69, 88
4, 24776, Note_off_c, 0, 69, 0
4, 24780, Note_on_c, 0, 75, 88
4, 24838, Note_off_c, 0, 75, 0
4, 24840, Note_on_c, 0, 74, 88
4, 25015, Note_off_c, 0, 74, 0
4, 25020, Note_on_c, 0, 72, 88
4, 25195, Note_off_c, 0, 72, 0
4, 25200, Note_on_c, 0, 70, 88
4, 25258, Note_off_c, 0, 70, 0
4, 25260, Note_on_c, 0, 72, 88
4, 25318, Note_off_c, 0, 72, 0
4, 25320, Note_on_c, 0, 74, 88
4, 25378, Note_off_c, 0, 74, 0
4, 25380, Note_on_c, 0, 75, 88
4, 25438, Note_off_c, 0, 75, 0
4, 25440, Note_on_c, 0, 77, 88
4, 25498, Note_off_c, 0, 77, 0
4, 25500, Note_on_c, 0, 79, 88
4, 25558, Note_off_c, 0, 79, 0
4, 25560, Note_on_c, 0, 72, 88
4, 25978, Note_off_c, 0, 72, 0
4, 25980, Note_on_c, 0, 69, 88
4, 26038, Note_off_c, 0, 69, 0
4, 26040, Note_on_c, 0, 70, 88
4, 26098, Note_off_c, 0, 70, 0
4, 26100, Note_on_c, 0, 72, 88
4, 26158, Note_off_c, 0, 72, 0
4, 26160, Note_on_c, 0, 74, 88
4, 26218, Note_off_c, 0, 74, 0
4, 26220, Note_on_c, 0, 75, 88
4, 26278, Note_off_c, 0, 75, 0
4, 26280, Note_on_c, 0, 77, 88
4, 26455, Note_off_c, 0, 77, 0
4, 26460, Note_on_c, 0, 75, 88
4, 26635, Note_off_c, 0, 75, 0
4, 26640, Note_on_c, 0, 74, 88
4, 26934, Note_off_c, 0, 74, 0
4, 26940, Note_on_c, 0, 72, 88
4, 26998, Note_off_c, 0, 72, 0
4, 27000, Note_on_c, 0, 70, 88
4, 27418, Note_off_c, 0, 70, 0
4, 27420, Note_on_c, 0, 72, 88
4, 27478, Note_off_c, 0, 72, 0
4, 27480, Note_on_c, 0, 67, 88
4, 27538, Note_off_c, 0, 67, 0
4, 27540, Note_on_c, 0, 69, 88
4, 27893, Note_off_c, 0, 69, 0
4, 27900, Note_on_c, 0, 72, 88
4, 27918, Note_off_c, 0, 72, 0
4, 27919, Note_on_c, 0, 70, 88
4, 27937, Note_off_c, 0, 70, 0
4, 27938, Note_on_c, 0, 72, 88
4, 27956, Note_on_c, 0, 70, 88
4, 27956, Note_off_c, 0, 72, 0
4, 27974, Note_off_c, 0, 70, 0
4, 27975, Note_on_c, 0, 72, 88
4, 27993, Note_off_c, 0, 72, 0
4, 27994, Note_on_c, 0, 70, 88
4, 28012, Note_off_c, 0, 70, 0
4, 28013, Note_on_c, 0, 72, 88
4, 28031, Note_on_c, 0, 70, 88
4, 28031, Note_off_c, 0, 72, 0
4, 28049, Note_off_c, 0, 70, 0
4, 28050, Note_on_c, 0, 69, 88
4, 28065, Note_off_c, 0, 69, 0
4, 28065, Note_on_c, 0, 70, 88
4, 28080, Note_off_c, 0, 70, 0
4, 28080, Note_on_c, 0, 72, 88
4, 28138, Note_off_c, 0, 72, 0
4, 28140, Note_on_c, 0, 77, 88
4, 28198, Note_off_c, 0, 77, 0
4, 28200, Note_on_c, 0, 76, 88
4, 28258, Note_off_c, 0, 76, 0
4, 28260, Note_on_c, 0, 74, 88
4, 28318, Note_off_c, 0, 74, 0
4, 28320, Note_on_c, 0, 72, 88
4, 28378, Note_off_c, 0, 72, 0
4, 28380, Note_on_c, 0, 70, 88
4, 28425, Note_off_c, 0, 70, 0
4, 28440, Note_on_c, 0, 70, 88
4, 28455, Note_on_c, 0, 69, 88
4, 28455, Note_off_c, 0, 70, 0
4, 28470, Note_off_c, 0, 69, 0
4, 28470, Note_on_c, 0, 70, 88
4, 28485, Note_on_c, 0, 69, 88
4, 28485, Note_off_c, 0, 70, 0
4, 28500, Note_on_c, 0, 67, 88
4, 28500, Note_off_c, 0, 69, 0
4, 28558, Note_off_c, 0, 67, 0
4, 28560, Note_on_c, 0, 69, 88
4, 28618, Note_off_c, 0, 69, 0
4, 28620, Note_on_c, 0, 67, 88
4, 28795, Note_off_c, 0, 67, 0
4, 28800, Note_on_c, 0, 60, 88
4, 28858, Note_off_c, 0, 60, 0
4, 28860, Note_on_c, 0, 64, 88
4, 28918, Note_off_c, 0, 64, 0
4, 28920, Note_on_c, 0, 67, 88
4, 28978, Note_off_c, 0, 67, 0
4, 28980, Note_on_c, 0, 70, 88
4, 29038, Note_off_c, 0, 70, 0
4, 29040, Note_on_c, 0, 69, 88
4, 29098, Note_off_c, 0, 69, 0
4, 29100, Note_on_c, 0, 70, 88
4, 29158, Note_off_c, 0, 70, 0
4, 29160, Note_on_c, 0, 60, 88
4, 29218, Note_off_c, 0, 60, 0
4, 29220, Note_on_c, 0, 64, 88
4, 29278, Note_off_c, 0, 64, 0
4, 29280, Note_on_c, 0, 65, 88
4, 29338, Note_off_c, 0, 65, 0
4, 29340, Note_on_c, 0, 69, 88
4, 29398, Note_off_c, 0, 69, 0
4, 29400, Note_on_c, 0, 67, 88
4, 29458, Note_off_c, 0, 67, 0
4, 29460, Note_on_c, 0, 69, 88
4, 29518, Note_off_c, 0, 69, 0
4, 29520, Note_on_c, 0, 58, 88
4, 29578, Note_off_c, 0, 58, 0
4, 29580, Note_on_c, 0, 62, 88
4, 29638, Note_off_c, 0, 62, 0
4, 29640, Note_on_c, 0, 64, 88
4, 29698, Note_off_c, 0, 64, 0
4, 29700, Note_on_c, 0, 67, 88
4, 29758, Note_off_c, 0, 67, 0
4, 29760, Note_on_c, 0, 65, 88
4, 29818, Note_off_c, 0, 65, 0
4, 29820, Note_on_c, 0, 67, 88
4, 29878, Note_off_c, 0, 67, 0
4, 29880, Note_on_c, 0, 58, 88
4, 29938, Note_off_c, 0, 58, 0
4, 29940, Note_on_c, 0, 57, 88
4, 29998, Note_off_c, 0, 57, 0
4, 30000, Note_on_c, 0, 60, 88
4, 30058, Note_off_c, 0, 60, 0
4, 30060, Note_on_c, 0, 65, 88
4, 30118, Note_off_c, 0, 65, 0
4, 30120, Note_on_c, 0, 69, 88
4, 30178, Note_off_c, 0, 69, 0
4, 30180, Note_on_c, 0, 72, 88
4, 30238, Note_off_c, 0, 72, 0
4, 30240, Note_on_c, 0, 75, 88
4, 30298, Note_off_c, 0, 75, 0
4, 30300, Note_on_c, 0, 74, 88
4, 30358, Note_off_c, 0, 74, 0
4, 30360, Note_on_c, 0, 75, 88
4, 30418, Note_off_c, 0, 75, 0
4, 30420, Note_on_c, 0, 65, 88
4, 30478, Note_off_c, 0, 65, 0
4, 30480, Note_on_c, 0, 69, 88
4, 30538, Note_off_c, 0, 69, 0
4, 30540, Note_on_c, 0, 72, 88
4, 30598, Note_off_c, 0, 72, 0
4, 30600, Note_on_c, 0, 74, 88
4, 30658, Note_off_c, 0, 74, 0
4, 30660, Note_on_c, 0, 72, 88
4, 30718, Note_off_c, 0, 72, 0
4, 30720, Note_on_c, 0, 74, 88
4, 30778, Note_off_c, 0, 74, 0
4, 30780, Note_on_c, 0, 65, 88
4, 30838, Note_off_c, 0, 65, 0
4, 30840, Note_on_c, 0, 69, 88
4, 30898, Note_off_c, 0, 69, 0
4, 30900, Note_on_c, 0, 70, 88
4, 30958, Note_off_c, 0, 70, 0
4, 30960, Note_on_c, 0, 72, 88
4, 31018, Note_off_c, 0, 72, 0
4, 31020, Note_on_c, 0, 70, 88
4, 31078, Note_off_c, 0, 70, 0
4, 31080, Note_on_c, 0, 72, 88
4, 31138, Note_off_c, 0, 72, 0
4, 31140, Note_on_c, 0, 63, 88
4, 31198, Note_off_c, 0, 63, 0
4, 31200, Note_on_c, 0, 67, 88
4, 31258, Note_off_c, 0, 67, 0
4, 31260, Note_on_c, 0, 69, 88
4, 31305, Note_off_c, 0, 69, 0
4, 31320, Note_on_c, 0, 69, 88
4, 31378, Note_off_c, 0, 69, 0
4, 31380, Note_on_c, 0, 70, 88
4, 31438, Note_off_c, 0, 70, 0
4, 31440, Note_on_c, 0, 65, 88
4, 31498, Note_off_c, 0, 65, 0
4, 31500, Note_on_c, 0, 62, 88
4, 31738, Note_off_c, 0, 62, 0
4, 31740, Note_on_c, 0, 60, 88
4, 31798, Note_off_c, 0, 60, 0
4, 31800, Note_on_c, 0, 62, 88
4, 31858, Note_off_c, 0, 62, 0
4, 31860, Note_on_c, 0, 57, 88
4, 31918, Note_off_c, 0, 57, 0
4, 31920, Note_on_c, 0, 62, 88
4, 31978, Note_off_c, 0, 62, 0
4, 31980, Note_on_c, 0, 58, 88
4, 32038, Note_off_c, 0, 58, 0
4, 32040, Note_on_c, 0, 55, 88
4, 32098, Note_off_c, 0, 55, 0
4, 32100, Note_on_c, 0, 62, 88
4, 32158, Note_off_c, 0, 62, 0
4, 32160, Note_on_c, 0, 58, 88
4, 32218, Note_off_c, 0, 58, 0
4, 32220, Note_on_c, 0, 55, 88
4, 32278, Note_off_c, 0, 55, 0
4, 32280, Note_on_c, 0, 62, 88
4, 32338, Note_off_c, 0, 62, 0
4, 32340, Note_on_c, 0, 70, 88
4, 32398, Note_off_c, 0, 70, 0
4, 32400, Note_on_c, 0, 60, 88
4, 32458, Note_off_c, 0, 60, 0
4, 32460, Note_on_c, 0, 58, 88
4, 32518, Note_off_c, 0, 58, 0
4, 32520, Note_on_c, 0, 60, 88
4, 32578, Note_off_c, 0, 60, 0
4, 32580, Note_on_c, 0, 55, 88
4, 32638, Note_off_c, 0, 55, 0
4, 32640, Note_on_c, 0, 60, 88
4, 32698, Note_off_c, 0, 60, 0
4, 32700, Note_on_c, 0, 57, 88
4, 32758, Note_off_c, 0, 57, 0
4, 32760, Note_on_c, 0, 54, 88
4, 32818, Note_off_c, 0, 54, 0
4, 32820, Note_on_c, 0, 60, 88
4, 32878, Note_off_c, 0, 60, 0
4, 32880, Note_on_c, 0, 57, 88
4, 32938, Note_off_c, 0, 57, 0
4, 32940, Note_on_c, 0, 54, 88
4, 32998, Note_off_c, 0, 54, 0
4, 33000, Note_on_c, 0, 60, 88
4, 33058, Note_off_c, 0, 60, 0
4, 33060, Note_on_c, 0, 69, 88
4, 33118, Note_off_c, 0, 69, 0
4, 33120, Note_on_c, 0, 58, 88
4, 33178, Note_off_c, 0, 58, 0
4, 33180, Note_on_c, 0, 57, 88
4, 33238, Note_off_c, 0, 57, 0
4, 33240, Note_on_c, 0, 58, 88
4, 33298, Note_off_c, 0, 58, 0
4, 33300, Note_on_c, 0, 62, 88
4, 33475, Note_off_c, 0, 62, 0
4, 33480, Note_on_c, 0, 67, 88
4, 33655, Note_off_c, 0, 67, 0
4, 33660, Note_on_c, 0, 48, 88
4, 33835, Note_off_c, 0, 48, 0
4, 33840, Note_on_c, 0, 41, 88
4, 34015, Note_off_c, 0, 41, 0
4, 34020, Note_on_c, 0, 60, 88
4, 34195, Note_off_c, 0, 60, 0
4, 34200, Note_on_c, 0, 65, 88
4, 34375, Note_off_c, 0, 65, 0
4, 34380, Note_on_c, 0, 46, 88
4, 34555, Note_off_c, 0, 46, 0
4, 34560, Note_on_c, 0, 39, 88
4, 34735, Note_off_c, 0, 39, 0
4, 34740, Note_on_c, 0, 63, 88
4, 34974, Note_off_c, 0, 63, 0
4, 34980, Note_on_c, 0, 72, 88
4, 35038, Note_off_c, 0, 72, 0
4, 35040, Note_on_c, 0, 70, 88
4, 35098, Note_off_c, 0, 70, 0
4, 35100, Note_on_c, 0, 69, 88
4, 35158, Note_off_c, 0, 69, 0
4, 35160, Note_on_c, 0, 67, 88
4, 35218, Note_off_c, 0, 67, 0
4, 35220, Note_on_c, 0, 65, 88
4, 35278, Note_off_c, 0, 65, 0
4, 35280, Note_on_c, 0, 63, 88
4, 35396, Note_off_c, 0, 63, 0
4, 35400, Note_on_c, 0, 62, 88
4, 35458, Note_off_c, 0, 62, 0
4, 35460, Note_on_c, 0, 70, 88
4, 35694, Note_off_c, 0, 70, 0
4, 35700, Note_on_c, 0, 74, 88
4, 35758, Note_off_c, 0, 74, 0
4, 35760, Note_on_c, 0, 72, 88
4, 35818, Note_off_c, 0, 72, 0
4, 35820, Note_on_c, 0, 70, 88
4, 35878, Note_off_c, 0, 70, 0
4, 35880, Note_on_c, 0, 69, 88
4, 35938, Note_off_c, 0, 69, 0
4, 35940, Note_on_c, 0, 67, 88
4, 35998, Note_off_c, 0, 67, 0
4, 36000, Note_on_c, 0, 65, 88
4, 36058, Note_off_c, 0, 65, 0
4, 36060, Note_on_c, 0, 67, 88
4, 36118, Note_off_c, 0, 67, 0
4, 36120, Note_on_c, 0, 69, 88
4, 36178, Note_off_c, 0, 69, 0
4, 36180, Note_on_c, 0, 70, 88
4, 36238, Note_off_c, 0, 70, 0
4, 36240, Note_on_c, 0, 72, 88
4, 36298, Note_off_c, 0, 72, 0
4, 36300, Note_on_c, 0, 74, 88
4, 36534, Note_off_c, 0, 74, 0
4, 36540, Note_on_c, 0, 72, 88
4, 36656, Note_off_c, 0, 72, 0
4, 36660, Note_on_c, 0, 70, 88
4, 36718, Note_off_c, 0, 70, 0
4, 36720, Note_on_c, 0, 69, 88
4, 36778, Note_off_c, 0, 69, 0
4, 36780, Note_on_c, 0, 70, 88
4, 36838, Note_off_c, 0, 70, 0
4, 36840, Note_on_c, 0, 72, 88
4, 36898, Note_off_c, 0, 72, 0
4, 36900, Note_on_c, 0, 74, 88
4, 36958, Note_off_c, 0, 74, 0
4, 36960, Note_on_c, 0, 76, 88
4, 37018, Note_off_c, 0, 76, 0
4, 37020, Note_on_c, 0, 77, 88
4, 37254, Note_off_c, 0, 77, 0
4, 37260, Note_on_c, 0, 76, 88
4, 37376, Note_off_c, 0, 76, 0
4, 37380, Note_on_c, 0, 74, 88
4, 37438, Note_off_c, 0, 74, 0
4, 37440, Note_on_c, 0, 72, 88
4, 37498, Note_off_c, 0, 72, 0
4, 37500, Note_on_c, 0, 77, 88
4, 37558, Note_off_c, 0, 77, 0
4, 37560, Note_on_c, 0, 76, 88
4, 37618, Note_off_c, 0, 76, 0
4, 37620, Note_on_c, 0, 74, 88
4, 37678, Note_off_c, 0, 74, 0
4, 37680, Note_on_c, 0, 72, 88
4, 37738, Note_off_c, 0, 72, 0
4, 37740, Note_on_c, 0, 70, 88
4, 37798, Note_off_c, 0, 70, 0
4, 37800, Note_on_c, 0, 69, 88
4, 37858, Note_off_c, 0, 69, 0
4, 37860, Note_on_c, 0, 67, 88
4, 37918, Note_off_c, 0, 67, 0
4, 37920, Note_on_c, 0, 69, 88
4, 37978, Note_off_c, 0, 69, 0
4, 37980, Note_on_c, 0, 70, 88
4, 38038, Note_off_c, 0, 70, 0
4, 38040, Note_on_c, 0, 69, 88
4, 38098, Note_off_c, 0, 69, 0
4, 38100, Note_on_c, 0, 67, 88
4, 38158, Note_off_c, 0, 67, 0
4, 38160, Note_on_c, 0, 65, 88
4, 38218, Note_off_c, 0, 65, 0
4, 38220, Note_on_c, 0, 67, 88
4, 38278, Note_off_c, 0, 67, 0
4, 38280, Note_on_c, 0, 69, 88
4, 38338, Note_off_c, 0, 69, 0
4, 38340, Note_on_c, 0, 70, 88
4, 38398, Note_off_c, 0, 70, 0
4, 38400, Note_on_c, 0, 72, 88
4, 38458, Note_off_c, 0, 72, 0
4, 38460, Note_on_c, 0, 74, 88
4, 38505, Note_off_c, 0, 74, 0
4, 38520, Note_on_c, 0, 74, 88
4, 38636, Note_off_c, 0, 74, 0
4, 38640, Note_on_c, 0, 67, 88
4, 38698, Note_off_c, 0, 67, 0
4, 38700, Note_on_c, 0, 69, 88
4, 38758, Note_off_c, 0, 69, 0
4, 38760, Note_on_c, 0, 70, 88
4, 38818, Note_off_c, 0, 70, 0
4, 38820, Note_on_c, 0, 72, 88
4, 38878, Note_off_c, 0, 72, 0
4, 38880, Note_on_c, 0, 72, 88
4, 38996, Note_off_c, 0, 72, 0
4, 39000, Note_on_c, 0, 65, 88
4, 39058, Note_off_c, 0, 65, 0
4, 39060, Note_on_c, 0, 67, 88
4, 39118, Note_off_c, 0, 67, 0
4, 39120, Note_on_c, 0, 69, 88
4, 39178, Note_off_c, 0, 69, 0
4, 39180, Note_on_c, 0, 70, 88
4, 39225, Note_off_c, 0, 70, 0
4, 39240, Note_on_c, 0, 70, 88
4, 39356, Note_off_c, 0, 70, 0
4, 39660, Note_on_c, 0, 65, 88
4, 39718, Note_off_c, 0, 65, 0
4, 39720, Note_on_c, 0, 67, 88
4, 39778, Note_off_c, 0, 67, 0
4, 39780, Note_on_c, 0, 69, 88
4, 39838, Note_off_c, 0, 69, 0
4, 39840, Note_on_c, 0, 70, 88
4, 39898, Note_off_c, 0, 70, 0
4, 39900, Note_on_c, 0, 72, 88
4, 39958, Note_off_c, 0, 72, 0
4, 39960, Note_on_c, 0, 74, 88
4, 40018, Note_off_c, 0, 74, 0
4, 40020, Note_on_c, 0, 70, 88
4, 40078, Note_off_c, 0, 70, 0
4, 40080, Note_on_c, 0, 72, 88
4, 40138, Note_off_c, 0, 72, 0
4, 40140, Note_on_c, 0, 74, 88
4, 40198, Note_off_c, 0, 74, 0
4, 40200, Note_on_c, 0, 76, 88
4, 40258, Note_off_c, 0, 76, 0
4, 40260, Note_on_c, 0, 77, 88
4, 40318, Note_off_c, 0, 77, 0
4, 40320, Note_on_c, 0, 79, 88
4, 40790, Note_off_c, 0, 79, 0
4, 40800, Note_on_c, 0, 72, 88
4, 40858, Note_off_c, 0, 72, 0
4, 40860, Note_on_c, 0, 77, 88
4, 40976, Note_off_c, 0, 77, 0
4, 40980, Note_on_c, 0, 75, 88
4, 41038, Note_off_c, 0, 75, 0
4, 41040, Note_on_c, 0, 74, 88
4, 41510, Note_off_c, 0, 74, 0
4, 41520, Note_on_c, 0, 67, 88
4, 41578, Note_off_c, 0, 67, 0
4, 41580, Note_on_c, 0, 72, 88
4, 41696, Note_off_c, 0, 72, 0
4, 41700, Note_on_c, 0, 70, 88
4, 41758, Note_off_c, 0, 70, 0
4, 41760, Note_on_c, 0, 69, 88
4, 41994, Note_off_c, 0, 69, 0
4, 42000, Note_on_c, 0, 71, 88
4, 42058, Note_off_c, 0, 71, 0
4, 42060, Note_on_c, 0, 72, 88
4, 42118, Note_off_c, 0, 72, 0
4, 42120, Note_on_c, 0, 74, 88
4, 42178, Note_off_c, 0, 74, 0
4, 42180, Note_on_c, 0, 65, 88
4, 42238, Note_off_c, 0, 65, 0
4, 42240, Note_on_c, 0, 67, 88
4, 42298, Note_off_c, 0, 67, 0
4, 42300, Note_on_c, 0, 68, 88
4, 42358, Note_off_c, 0, 68, 0
4, 42360, Note_on_c, 0, 67, 88
4, 42418, Note_off_c, 0, 67, 0
4, 42420, Note_on_c, 0, 65, 88
4, 42478, Note_off_c, 0, 65, 0
4, 42480, Note_on_c, 0, 64, 88
4, 42538, Note_off_c, 0, 64, 0
4, 42540, Note_on_c, 0, 60, 88
4, 42598, Note_off_c, 0, 60, 0
4, 42600, Note_on_c, 0, 59, 88
4, 42658, Note_off_c, 0, 59, 0
4, 42660, Note_on_c, 0, 60, 88
4, 42718, Note_off_c, 0, 60, 0
4, 42720, Note_on_c, 0, 62, 88
4, 42778, Note_off_c, 0, 62, 0
4, 42780, Note_on_c, 0, 64, 88
4, 42838, Note_off_c, 0, 64, 0
4, 42840, Note_on_c, 0, 65, 88
4, 42898, Note_off_c, 0, 65, 0
4, 42900, Note_on_c, 0, 60, 88
4, 42958, Note_off_c, 0, 60, 0
4, 42960, Note_on_c, 0, 59, 88
4, 43018, Note_off_c, 0, 59, 0
4, 43020, Note_on_c, 0, 60, 88
4, 43078, Note_off_c, 0, 60, 0
4, 43080, Note_on_c, 0, 64, 88
4, 43138, Note_off_c, 0, 64, 0
4, 43140, Note_on_c, 0, 65, 88
4, 43198, Note_off_c, 0, 65, 0
4, 43200, Note_on_c, 0, 67, 88
4, 43258, Note_off_c, 0, 67, 0
4, 43260, Note_on_c, 0, 60, 88
4, 43318, Note_off_c, 0, 60, 0
4, 43320, Note_on_c, 0, 59, 88
4, 43378, Note_off_c, 0, 59, 0
4, 43380, Note_on_c, 0, 60, 88
4, 43438, Note_off_c, 0, 60, 0
4, 43440, Note_on_c, 0, 65, 88
4, 43498, Note_off_c, 0, 65, 0
4, 43500, Note_on_c, 0, 67, 88
4, 43558, Note_off_c, 0, 67, 0
4, 43560, Note_on_c, 0, 68, 88
4, 43618, Note_off_c, 0, 68, 0
4, 43620, Note_on_c, 0, 65, 88
4, 43678, Note_off_c, 0, 65, 0
4, 43680, Note_on_c, 0, 67, 88
4, 43738, Note_off_c, 0, 67, 0
4, 43740, Note_on_c, 0, 68, 88
4, 43798, Note_off_c, 0, 68, 0
4, 43800, Note_on_c, 0, 70, 88
4, 43858, Note_off_c, 0, 70, 0
4, 43860, Note_on_c, 0, 72, 88
4, 43918, Note_off_c, 0, 72, 0
4, 43920, Note_on_c, 0, 73, 88
4, 43978, Note_off_c, 0, 73, 0
4, 43980, Note_on_c, 0, 70, 88
4, 44038, Note_off_c, 0, 70, 0
4, 44040, Note_on_c, 0, 72, 88
4, 44098, Note_off_c, 0, 72, 0
4, 44100, Note_on_c, 0, 73, 88
4, 44158, Note_off_c, 0, 73, 0
4, 44160, Note_on_c, 0, 75, 88
4, 44218, Note_off_c, 0, 75, 0
4, 44220, Note_on_c, 0, 77, 88
4, 44278, Note_off_c, 0, 77, 0
4, 44280, Note_on_c, 0, 78, 88
4, 44338, Note_off_c, 0, 78, 0
4, 44340, Note_on_c, 0, 80, 88
4, 44398, Note_off_c, 0, 80, 0
4, 44400, Note_on_c, 0, 82, 88
4, 44458, Note_off_c, 0, 82, 0
4, 44460, Note_on_c, 0, 80, 88
4, 44518, Note_off_c, 0, 80, 0
4, 44520, Note_on_c, 0, 78, 88
4, 44578, Note_off_c, 0, 78, 0
4, 44580, Note_on_c, 0, 77, 88
4, 44638, Note_off_c, 0, 77, 0
4, 44640, Note_on_c, 0, 76, 88
4, 44698, Note_off_c, 0, 76, 0
4, 44700, Note_on_c, 0, 79, 88
4, 44758, Note_off_c, 0, 79, 0
4, 44760, Note_on_c, 0, 70, 88
4, 44818, Note_off_c, 0, 70, 0
4, 44820, Note_on_c, 0, 73, 88
4, 44878, Note_off_c, 0, 73, 0
4, 44880, Note_on_c, 0, 72, 88
4, 44938, Note_off_c, 0, 72, 0
4, 44940, Note_on_c, 0, 70, 88
4, 44998, Note_off_c, 0, 70, 0
4, 45000, Note_on_c, 0, 72, 88
4, 45058, Note_off_c, 0, 72, 0
4, 45060, Note_on_c, 0, 77, 88
4, 45118, Note_off_c, 0, 77, 0
4, 45120, Note_on_c, 0, 69, 88
4, 45178, Note_off_c, 0, 69, 0
4, 45180, Note_on_c, 0, 70, 88
4, 45238, Note_off_c, 0, 70, 0
4, 45240, Note_on_c, 0, 72, 88
4, 45298, Note_off_c, 0, 72, 0
4, 45300, Note_on_c, 0, 74, 88
4, 45358, Note_off_c, 0, 74, 0
4, 45360, Note_on_c, 0, 72, 88
4, 45418, Note_off_c, 0, 72, 0
4, 45420, Note_on_c, 0, 70, 88
4, 45478, Note_off_c, 0, 70, 0
4, 45480, Note_on_c, 0, 69, 88
4, 45538, Note_off_c, 0, 69, 0
4, 45540, Note_on_c, 0, 67, 88
4, 45598, Note_off_c, 0, 67, 0
4, 45600, Note_on_c, 0, 77, 88
4, 45658, Note_off_c, 0, 77, 0
4, 45660, Note_on_c, 0, 76, 88
4, 45718, Note_off_c, 0, 76, 0
4, 45720, Note_on_c, 0, 77, 88
4, 45778, Note_off_c, 0, 77, 0
4, 45780, Note_on_c, 0, 72, 88
4, 45838, Note_off_c, 0, 72, 0
4, 45840, Note_on_c, 0, 69, 88
4, 45898, Note_off_c, 0, 69, 0
4, 45900, Note_on_c, 0, 65, 88
4, 46075, Note_off_c, 0, 65, 0
4, 46080, Note_on_c, 0, 69, 88
4, 46138, Note_off_c, 0, 69, 0
4, 46140, Note_on_c, 0, 65, 88
4, 46198, Note_off_c, 0, 65, 0
4, 46200, Note_on_c, 0, 64, 88
4, 46258, Note_off_c, 0, 64, 0
4, 46260, Note_on_c, 0, 65, 88
4, 46318, Note_off_c, 0, 65, 0
4, 46320, Note_on_c, 0, 67, 88
4, 46378, Note_off_c, 0, 67, 0
4, 46380, Note_on_c, 0, 69, 88
4, 46438, Note_off_c, 0, 69, 0
4, 46440, Note_on_c, 0, 70, 88
4, 46498, Note_off_c, 0, 70, 0
4, 46500, Note_on_c, 0, 65, 88
4, 46558, Note_off_c, 0, 65, 0
4, 46560, Note_on_c, 0, 64, 88
4, 46618, Note_off_c, 0, 64, 0
4, 46620, Note_on_c, 0, 65, 88
4, 46678, Note_off_c, 0, 65, 0
4, 46680, Note_on_c, 0, 69, 88
4, 46738, Note_off_c, 0, 69, 0
4, 46740, Note_on_c, 0, 70, 88
4, 46798, Note_off_c, 0, 70, 0
4, 46800, Note_on_c, 0, 72, 88
4, 46858, Note_off_c, 0, 72, 0
4, 46860, Note_on_c, 0, 65, 88
4, 46918, Note_off_c, 0, 65, 0
4, 46920, Note_on_c, 0, 64, 88
4, 46978, Note_off_c, 0, 64, 0
4, 46980, Note_on_c, 0, 65, 88
4, 47038, Note_off_c, 0, 65, 0
4, 47040, Note_on_c, 0, 70, 88
4, 47098, Note_off_c, 0, 70, 0
4, 47100, Note_on_c, 0, 72, 88
4, 47158, Note_off_c, 0, 72, 0
4, 47160, Note_on_c, 0, 74, 88
4, 47454, Note_off_c, 0, 74, 0
4, 47460, Note_on_c, 0, 72, 88
4, 47518, Note_off_c, 0, 72, 0
4, 47520, Note_on_c, 0, 71, 88
4, 47578, Note_off_c, 0, 71, 0
4, 47580, Note_on_c, 0, 67, 88
4, 47638, Note_off_c, 0, 67, 0
4, 47640, Note_on_c, 0, 66, 88
4, 47698, Note_off_c, 0, 66, 0
4, 47700, Note_on_c, 0, 67, 88
4, 47758, Note_off_c, 0, 67, 0
4, 47760, Note_on_c, 0, 69, 88
4, 47818, Note_off_c, 0, 69, 0
4, 47820, Note_on_c, 0, 71, 88
4, 47878, Note_off_c, 0, 71, 0
4, 47880, Note_on_c, 0, 72, 88
4, 47938, Note_off_c, 0, 72, 0
4, 47940, Note_on_c, 0, 67, 88
4, 47998, Note_off_c, 0, 67, 0
4, 48000, Note_on_c, 0, 66, 88
4, 48058, Note_off_c, 0, 66, 0
4, 48060, Note_on_c, 0, 67, 88
4, 48118, Note_off_c, 0, 67, 0
4, 48120, Note_on_c, 0, 71, 88
4, 48178, Note_off_c, 0, 71, 0
4, 48180, Note_on_c, 0, 72, 88
4, 48238, Note_off_c, 0, 72, 0
4, 48240, Note_on_c, 0, 74, 88
4, 48298, Note_off_c, 0, 74, 0
4, 48300, Note_on_c, 0, 67, 88
4, 48358, Note_off_c, 0, 67, 0
4, 48360, Note_on_c, 0, 66, 88
4, 48418, Note_off_c, 0, 66, 0
4, 48420, Note_on_c, 0, 67, 88
4, 48478, Note_off_c, 0, 67, 0
4, 48480, Note_on_c, 0, 72, 88
4, 48538, Note_off_c, 0, 72, 0
4, 48540, Note_on_c, 0, 74, 88
4, 48598, Note_off_c, 0, 74, 0
4, 48600, Note_on_c, 0, 75, 88
4, 48658, Note_off_c, 0, 75, 0
4, 48660, Note_on_c, 0, 72, 88
4, 48718, Note_off_c, 0, 72, 0
4, 48720, Note_on_c, 0, 67, 88
4, 48836, Note_off_c, 0, 67, 0
4, 48840, Note_on_c, 0, 79, 88
4, 48898, Note_off_c, 0, 79, 0
4, 48900, Note_on_c, 0, 77, 88
4, 48958, Note_off_c, 0, 77, 0
4, 48960, Note_on_c, 0, 75, 88
4, 49018, Note_off_c, 0, 75, 0
4, 49020, Note_on_c, 0, 74, 88
4, 49078, Note_off_c, 0, 74, 0
4, 49080, Note_on_c, 0, 72, 88
4, 49138, Note_off_c, 0, 72, 0
4, 49140, Note_on_c, 0, 70, 88
4, 49198, Note_off_c, 0, 70, 0
4, 49200, Note_on_c, 0, 75, 88
4, 49258, Note_off_c, 0, 75, 0
4, 49260, Note_on_c, 0, 72, 88
4, 49318, Note_off_c, 0, 72, 0
4, 49320, Note_on_c, 0, 68, 88
4, 49378, Note_off_c, 0, 68, 0
4, 49380, Note_on_c, 0, 75, 88
4, 49438, Note_off_c, 0, 75, 0
4, 49440, Note_on_c, 0, 72, 88
4, 49498, Note_off_c, 0, 72, 0
4, 49500, Note_on_c, 0, 65, 88
4, 49558, Note_off_c, 0, 65, 0
4, 49560, Note_on_c, 0, 72, 88
4, 49618, Note_off_c, 0, 72, 0
4, 49620, Note_on_c, 0, 75, 88
4, 49678, Note_off_c, 0, 75, 0
4, 49680, Note_on_c, 0, 74, 88
4, 49738, Note_off_c, 0, 74, 0
4, 49740, Note_on_c, 0, 72, 88
4, 49798, Note_off_c, 0, 72, 0
4, 49800, Note_on_c, 0, 70, 88
4, 49858, Note_off_c, 0, 70, 0
4, 49860, Note_on_c, 0, 68, 88
4, 49918, Note_off_c, 0, 68, 0
4, 49920, Note_on_c, 0, 74, 88
4, 49978, Note_off_c, 0, 74, 0
4, 49980, Note_on_c, 0, 70, 88
4, 50038, Note_off_c, 0, 70, 0
4, 50040, Note_on_c, 0, 67, 88
4, 50098, Note_off_c, 0, 67, 0
4, 50100, Note_on_c, 0, 73, 88
4, 50158, Note_off_c, 0, 73, 0
4, 50160, Note_on_c, 0, 70, 88
4, 50218, Note_off_c, 0, 70, 0
4, 50220, Note_on_c, 0, 63, 88
4, 50278, Note_off_c, 0, 63, 0
4, 50280, Note_on_c, 0, 70, 88
4, 50338, Note_off_c, 0, 70, 0
4, 50340, Note_on_c, 0, 73, 88
4, 50398, Note_off_c, 0, 73, 0
4, 50400, Note_on_c, 0, 72, 88
4, 50458, Note_off_c, 0, 72, 0
4, 50460, Note_on_c, 0, 71, 88
4, 50518, Note_off_c, 0, 71, 0
4, 50520, Note_on_c, 0, 72, 88
4, 50578, Note_off_c, 0, 72, 0
4, 50580, Note_on_c, 0, 75, 88
4, 50755, Note_off_c, 0, 75, 0
4, 50760, Note_on_c, 0, 80, 88
4, 50935, Note_off_c, 0, 80, 0
4, 50940, Note_on_c, 0, 53, 88
4, 51115, Note_off_c, 0, 53, 0
4, 51120, Note_on_c, 0, 55, 88
4, 51295, Note_off_c, 0, 55, 0
4, 51300, Note_on_c, 0, 74, 88
4, 51475, Note_off_c, 0, 74, 0
4, 51480, Note_on_c, 0, 79, 88
4, 51655, Note_off_c, 0, 79, 0
4, 51660, Note_on_c, 0, 52, 88
4, 51835, Note_off_c, 0, 52, 0
4, 51840, Note_on_c, 0, 53, 88
4, 52015, Note_off_c, 0, 53, 0
4, 52020, Note_on_c, 0, 77, 88
4, 52254, Note_off_c, 0, 77, 0
4, 52260, Note_on_c, 0, 67, 88
4, 52318, Note_off_c, 0, 67, 0
4, 52320, Note_on_c, 0, 69, 88
4, 52378, Note_off_c, 0, 69, 0
4, 52380, Note_on_c, 0, 71, 88
4, 52438, Note_off_c, 0, 71, 0
4, 52440, Note_on_c, 0, 72, 88
4, 52498, Note_off_c, 0, 72, 0
4, 52500, Note_on_c, 0, 74, 88
4, 52558, Note_off_c, 0, 74, 0
4, 52560, Note_on_c, 0, 75, 88
4, 52618, Note_off_c, 0, 75, 0
4, 52620, Note_on_c, 0, 74, 88
4, 52678, Note_off_c, 0, 74, 0
4, 52680, Note_on_c, 0, 72, 88
4, 52738, Note_off_c, 0, 72, 0
4, 52740, Note_on_c, 0, 70, 88
4, 52798, Note_off_c, 0, 70, 0
4, 52800, Note_on_c, 0, 69, 88
4, 52858, Note_off_c, 0, 69, 0
4, 52860, Note_on_c, 0, 67, 88
4, 52918, Note_off_c, 0, 67, 0
4, 52920, Note_on_c, 0, 66, 88
4, 52978, Note_off_c, 0, 66, 0
4, 52980, Note_on_c, 0, 74, 88
4, 53038, Note_off_c, 0, 74, 0
4, 53040, Note_on_c, 0, 76, 88
4, 53098, Note_off_c, 0, 76, 0
4, 53100, Note_on_c, 0, 78, 88
4, 53158, Note_off_c, 0, 78, 0
4, 53160, Note_on_c, 0, 79, 88
4, 53218, Note_off_c, 0, 79, 0
4, 53220, Note_on_c, 0, 81, 88
4, 53278, Note_off_c, 0, 81, 0
4, 53280, Note_on_c, 0, 79, 88
4, 53396, Note_off_c, 0, 79, 0
4, 53400, Note_on_c, 0, 67, 88
4, 53458, Note_off_c, 0, 67, 0
4, 53460, Note_on_c, 0, 72, 88
4, 53754, Note_off_c, 0, 72, 0
4, 53760, Note_on_c, 0, 69, 88
4, 53818, Note_off_c, 0, 69, 0
4, 53820, Note_on_c, 0, 74, 88
4, 53936, Note_off_c, 0, 74, 0
4, 53940, Note_on_c, 0, 72, 88
4, 53998, Note_off_c, 0, 72, 0
4, 54000, Note_on_c, 0, 70, 88
4, 54175, Note_off_c, 0, 70, 0
4, 54180, Note_on_c, 0, 75, 88
4, 54414, Note_off_c, 0, 75, 0
4, 54420, Note_on_c, 0, 69, 88
4, 54478, Note_off_c, 0, 69, 0
4, 54480, Note_on_c, 0, 70, 88
4, 54538, Note_off_c, 0, 70, 0
4, 54540, Note_on_c, 0, 72, 88
4, 54598, Note_off_c, 0, 72, 0
4, 54600, Note_on_c, 0, 74, 88
4, 54658, Note_off_c, 0, 74, 0
4, 54660, Note_on_c, 0, 75, 88
4, 54718, Note_off_c, 0, 75, 0
4, 54720, Note_on_c, 0, 74, 88
4, 54778, Note_off_c, 0, 74, 0
4, 54780, Note_on_c, 0, 79, 88
4, 54838, Note_off_c, 0, 79, 0
4, 54840, Note_on_c, 0, 77, 88
4, 54898, Note_off_c, 0, 77, 0
4, 54900, Note_on_c, 0, 75, 88
4, 54958, Note_off_c, 0, 75, 0
4, 54960, Note_on_c, 0, 74, 88
4, 55018, Note_off_c, 0, 74, 0
4, 55020, Note_on_c, 0, 72, 88
4, 55078, Note_off_c, 0, 72, 0
4, 55080, Note_on_c, 0, 70, 88
4, 55138, Note_off_c, 0, 70, 0
4, 55140, Note_on_c, 0, 69, 88
4, 55198, Note_off_c, 0, 69, 0
4, 55200, Note_on_c, 0, 70, 88
4, 55258, Note_off_c, 0, 70, 0
4, 55260, Note_on_c, 0, 72, 88
4, 55318, Note_off_c, 0, 72, 0
4, 55320, Note_on_c, 0, 78, 88
4, 55378, Note_off_c, 0, 78, 0
4, 55380, Note_on_c, 0, 81, 88
4, 55438, Note_off_c, 0, 81, 0
4, 55440, Note_on_c, 0, 74, 88
4, 55556, Note_off_c, 0, 74, 0
4, 55560, Note_on_c, 0, 70, 88
4, 55618, Note_off_c, 0, 70, 0
4, 55620, Note_on_c, 0, 72, 88
4, 55678, Note_off_c, 0, 72, 0
4, 55680, Note_on_c, 0, 74, 88
4, 55738, Note_off_c, 0, 74, 0
4, 55740, Note_on_c, 0, 75, 88
4, 55785, Note_off_c, 0, 75, 0
4, 55800, Note_on_c, 0, 75, 88
4, 55916, Note_off_c, 0, 75, 0
4, 55920, Note_on_c, 0, 69, 88
4, 55978, Note_off_c, 0, 69, 0
4, 55980, Note_on_c, 0, 70, 88
4, 56038, Note_off_c, 0, 70, 0
4, 56040, Note_on_c, 0, 72, 88
4, 56098, Note_off_c, 0, 72, 0
4, 56100, Note_on_c, 0, 74, 88
4, 56158, Note_off_c, 0, 74, 0
4, 56160, Note_on_c, 0, 74, 88
4, 56276, Note_off_c, 0, 74, 0
4, 56280, Note_on_c, 0, 67, 88
4, 56338, Note_off_c, 0, 67, 0
4, 56340, Note_on_c, 0, 69, 88
4, 56398, Note_off_c, 0, 69, 0
4, 56400, Note_on_c, 0, 70, 88
4, 56458, Note_off_c, 0, 70, 0
4, 56460, Note_on_c, 0, 72, 88
4, 56505, Note_off_c, 0, 72, 0
4, 56520, Note_on_c, 0, 72, 88
4, 56578, Note_off_c, 0, 72, 0
4, 56580, Note_on_c, 0, 66, 88
4, 56755, Note_off_c, 0, 66, 0
4, 56760, Note_on_c, 0, 67, 88
4, 56818, Note_off_c, 0, 67, 0
4, 56820, Note_on_c, 0, 69, 88
4, 56878, Note_off_c, 0, 69, 0
4, 56880, Note_on_c, 0, 70, 88
4, 56938, Note_off_c, 0, 70, 0
4, 56940, Note_on_c, 0, 75, 88
4, 56998, Note_off_c, 0, 75, 0
4, 57000, Note_on_c, 0, 74, 88
4, 57058, Note_off_c, 0, 74, 0
4, 57060, Note_on_c, 0, 72, 88
4, 57118, Note_off_c, 0, 72, 0
4, 57120, Note_on_c, 0, 70, 88
4, 57178, Note_off_c, 0, 70, 0
4, 57180, Note_on_c, 0, 69, 88
4, 57238, Note_off_c, 0, 69, 0
4, 57240, Note_on_c, 0, 67, 88
4, 57415, Note_off_c, 0, 67, 0
4, 57660, Note_on_c, 0, 82, 88
4, 57718, Note_off_c, 0, 82, 0
4, 57720, Note_on_c, 0, 81, 88
4, 57778, Note_off_c, 0, 81, 0
4, 57780, Note_on_c, 0, 79, 88
4, 57838, Note_off_c, 0, 79, 0
4, 57840, Note_on_c, 0, 77, 88
4, 57898, Note_off_c, 0, 77, 0
4, 57900, Note_on_c, 0, 75, 88
4, 57958, Note_off_c, 0, 75, 0
4, 57960, Note_on_c, 0, 74, 88
4, 58135, Note_off_c, 0, 74, 0
4, 58140, Note_on_c, 0, 75, 88
4, 58315, Note_off_c, 0, 75, 0
4, 58320, Note_on_c, 0, 77, 88
4, 58436, Note_off_c, 0, 77, 0
4, 58440, Note_on_c, 0, 74, 88
4, 58498, Note_off_c, 0, 74, 0
4, 58500, Note_on_c, 0, 75, 88
4, 58616, Note_off_c, 0, 75, 0
4, 58620, Note_on_c, 0, 79, 88
4, 58678, Note_off_c, 0, 79, 0
4, 58680, Note_on_c, 0, 72, 88
4, 58855, Note_off_c, 0, 72, 0
4, 58860, Note_on_c, 0, 77, 88
4, 59098, Note_off_c, 0, 77, 0
4, 59100, Note_on_c, 0, 75, 88
4, 59158, Note_off_c, 0, 75, 0
4, 59160, Note_on_c, 0, 74, 88
4, 59218, Note_off_c, 0, 74, 0
4, 59220, Note_on_c, 0, 75, 88
4, 59454, Note_off_c, 0, 75, 0
4, 59460, Note_on_c, 0, 74, 88
4, 59518, Note_off_c, 0, 74, 0
4, 59520, Note_on_c, 0, 72, 88
4, 59578, Note_off_c, 0, 72, 0
4, 59580, Note_on_c, 0, 74, 88
4, 59818, Note_off_c, 0, 74, 0
4, 59820, Note_on_c, 0, 75, 88
4, 59878, Note_off_c, 0, 75, 0
4, 59880, Note_on_c, 0, 77, 88
4, 59938, Note_off_c, 0, 77, 0
4, 59940, Note_on_c, 0, 79, 88
4, 59998, Note_off_c, 0, 79, 0
4, 60000, Note_on_c, 0, 81, 88
4, 60058, Note_off_c, 0, 81, 0
4, 60060, Note_on_c, 0, 82, 88
4, 60118, Note_off_c, 0, 82, 0
4, 60120, Note_on_c, 0, 70, 88
4, 60295, Note_off_c, 0, 70, 0
4, 60300, Note_on_c, 0, 69, 88
4, 60475, Note_off_c, 0, 69, 0
4, 60480, Note_on_c, 0, 65, 88
4, 60538, Note_off_c, 0, 65, 0
4, 60540, Note_on_c, 0, 69, 88
4, 60598, Note_off_c, 0, 69, 0
4, 60600, Note_on_c, 0, 72, 88
4, 60658, Note_off_c, 0, 72, 0
4, 60660, Note_on_c, 0, 75, 88
4, 60718, Note_off_c, 0, 75, 0
4, 60720, Note_on_c, 0, 74, 88
4, 60778, Note_off_c, 0, 74, 0
4, 60780, Note_on_c, 0, 75, 88
4, 60838, Note_off_c, 0, 75, 0
4, 60840, Note_on_c, 0, 65, 88
4, 60898, Note_off_c, 0, 65, 0
4, 60900, Note_on_c, 0, 69, 88
4, 60958, Note_off_c, 0, 69, 0
4, 60960, Note_on_c, 0, 70, 88
4, 61018, Note_off_c, 0, 70, 0
4, 61020, Note_on_c, 0, 74, 88
4, 61078, Note_off_c, 0, 74, 0
4, 61080, Note_on_c, 0, 72, 88
4, 61138, Note_off_c, 0, 72, 0
4, 61140, Note_on_c, 0, 74, 88
4, 61198, Note_off_c, 0, 74, 0
4, 61200, Note_on_c, 0, 63, 88
4, 61258, Note_off_c, 0, 63, 0
4, 61260, Note_on_c, 0, 67, 88
4, 61318, Note_off_c, 0, 67, 0
4, 61320, Note_on_c, 0, 69, 88
4, 61378, Note_off_c, 0, 69, 0
4, 61380, Note_on_c, 0, 72, 88
4, 61438, Note_off_c, 0, 72, 0
4, 61440, Note_on_c, 0, 70, 88
4, 61498, Note_off_c, 0, 70, 0
4, 61500, Note_on_c, 0, 72, 88
4, 61558, Note_off_c, 0, 72, 0
4, 61560, Note_on_c, 0, 63, 88
4, 61618, Note_off_c, 0, 63, 0
4, 61620, Note_on_c, 0, 62, 88
4, 61678, Note_off_c, 0, 62, 0
4, 61680, Note_on_c, 0, 65, 88
4, 61738, Note_off_c, 0, 65, 0
4, 61740, Note_on_c, 0, 70, 88
4, 61798, Note_off_c, 0, 70, 0
4, 61800, Note_on_c, 0, 74, 88
4, 61858, Note_off_c, 0, 74, 0
4, 61860, Note_on_c, 0, 75, 88
4, 61918, Note_off_c, 0, 75, 0
4, 61920, Note_on_c, 0, 77, 88
4, 61978, Note_off_c, 0, 77, 0
4, 61980, Note_on_c, 0, 75, 88
4, 62038, Note_off_c, 0, 75, 0
4, 62040, Note_on_c, 0, 77, 88
4, 62098, Note_off_c, 0, 77, 0
4, 62100, Note_on_c, 0, 67, 88
4, 62158, Note_off_c, 0, 67, 0
4, 62160, Note_on_c, 0, 71, 88
4, 62218, Note_off_c, 0, 71, 0
4, 62220, Note_on_c, 0, 74, 88
4, 62278, Note_off_c, 0, 74, 0
4, 62280, Note_on_c, 0, 75, 88
4, 62338, Note_off_c, 0, 75, 0
4, 62340, Note_on_c, 0, 74, 88
4, 62398, Note_off_c, 0, 74, 0
4, 62400, Note_on_c, 0, 75, 88
4, 62458, Note_off_c, 0, 75, 0
4, 62460, Note_on_c, 0, 67, 88
4, 62518, Note_off_c, 0, 67, 0
4, 62520, Note_on_c, 0, 71, 88
4, 62578, Note_off_c, 0, 71, 0
4, 62580, Note_on_c, 0, 72, 88
4, 62638, Note_off_c, 0, 72, 0
4, 62640, Note_on_c, 0, 74, 88
4, 62698, Note_off_c, 0, 74, 0
4, 62700, Note_on_c, 0, 72, 88
4, 62758, Note_off_c, 0, 72, 0
4, 62760, Note_on_c, 0, 74, 88
4, 62818, Note_off_c, 0, 74, 0
4, 62820, Note_on_c, 0, 65, 88
4, 62878, Note_off_c, 0, 65, 0
4, 62880, Note_on_c, 0, 68, 88
4, 62938, Note_off_c, 0, 68, 0
4, 62940, Note_on_c, 0, 71, 88
4, 62985, Note_off_c, 0, 71, 0
4, 63000, Note_on_c, 0, 71, 88
4, 63058, Note_off_c, 0, 71, 0
4, 63060, Note_on_c, 0, 72, 88
4, 63118, Note_off_c, 0, 72, 0
4, 63120, Note_on_c, 0, 67, 88
4, 63178, Note_off_c, 0, 67, 0
4, 63180, Note_on_c, 0, 63, 88
4, 63418, Note_off_c, 0, 63, 0
4, 63420, Note_on_c, 0, 75, 88
4, 63478, Note_off_c, 0, 75, 0
4, 63480, Note_on_c, 0, 74, 88
4, 63538, Note_off_c, 0, 74, 0
4, 63540, Note_on_c, 0, 72, 88
4, 63598, Note_off_c, 0, 72, 0
4, 63600, Note_on_c, 0, 70, 88
4, 63658, Note_off_c, 0, 70, 0
4, 63660, Note_on_c, 0, 68, 88
4, 63718, Note_off_c, 0, 68, 0
4, 63720, Note_on_c, 0, 77, 88
4, 64138, Note_off_c, 0, 77, 0
4, 64140, Note_on_c, 0, 70, 88
4, 64198, Note_off_c, 0, 70, 0
4, 64200, Note_on_c, 0, 74, 88
4, 64258, Note_off_c, 0, 74, 0
4, 64260, Note_on_c, 0, 75, 88
4, 64318, Note_off_c, 0, 75, 0
4, 64320, Note_on_c, 0, 77, 88
4, 64378, Note_off_c, 0, 77, 0
4, 64380, Note_on_c, 0, 74, 88
4, 64438, Note_off_c, 0, 74, 0
4, 64440, Note_on_c, 0, 75, 88
4, 64975, Note_off_c, 0, 75, 0
4, 64980, Note_on_c, 0, 74, 88
4, 65155, Note_off_c, 0, 74, 0
4, 65160, Note_on_c, 0, 79, 88
4, 65578, Note_off_c, 0, 79, 0
4, 65580, Note_on_c, 0, 72, 88
4, 65638, Note_off_c, 0, 72, 0
4, 65640, Note_on_c, 0, 76, 88
4, 65698, Note_off_c, 0, 76, 0
4, 65700, Note_on_c, 0, 77, 88
4, 65758, Note_off_c, 0, 77, 0
4, 65760, Note_on_c, 0, 79, 88
4, 65818, Note_off_c, 0, 79, 0
4, 65820, Note_on_c, 0, 76, 88
4, 65878, Note_off_c, 0, 76, 0
4, 65880, Note_on_c, 0, 77, 88
4, 66415, Note_off_c, 0, 77, 0
4, 66420, Note_on_c, 0, 75, 88
4, 66595, Note_off_c, 0, 75, 0
4, 66600, Note_on_c, 0, 74, 88
4, 67372, Note_off_c, 0, 74, 0
4, 67380, Note_on_c, 0, 75, 88
4, 67438, Note_off_c, 0, 75, 0
4, 67440, Note_on_c, 0, 74, 88
4, 67498, Note_off_c, 0, 74, 0
4, 67500, Note_on_c, 0, 72, 88
4, 67558, Note_off_c, 0, 72, 0
4, 67560, Note_on_c, 0, 74, 88
4, 67618, Note_off_c, 0, 74, 0
4, 67620, Note_on_c, 0, 70, 88
4, 67678, Note_off_c, 0, 70, 0
4, 67680, Note_on_c, 0, 72, 88
4, 68092, Note_off_c, 0, 72, 0
4, 68100, Note_on_c, 0, 73, 88
4, 68158, Note_off_c, 0, 73, 0
4, 68160, Note_on_c, 0, 72, 88
4, 68218, Note_off_c, 0, 72, 0
4, 68220, Note_on_c, 0, 70, 88
4, 68278, Note_off_c, 0, 70, 0
4, 68280, Note_on_c, 0, 72, 88
4, 68338, Note_off_c, 0, 72, 0
4, 68340, Note_on_c, 0, 69, 88
4, 68398, Note_off_c, 0, 69, 0
4, 68400, Note_on_c, 0, 70, 88
4, 68458, Note_off_c, 0, 70, 0
4, 68460, Note_on_c, 0, 72, 88
4, 68518, Note_off_c, 0, 72, 0
4, 68520, Note_on_c, 0, 73, 88
4, 68636, Note_off_c, 0, 73, 0
4, 68640, Note_on_c, 0, 72, 88
4, 68698, Note_off_c, 0, 72, 0
4, 68700, Note_on_c, 0, 70, 88
4, 68816, Note_off_c, 0, 70, 0
4, 68820, Note_on_c, 0, 69, 88
4, 68878, Note_off_c, 0, 69, 0
4, 68880, Note_on_c, 0, 67, 88
4, 68938, Note_off_c, 0, 67, 0
4, 68940, Note_on_c, 0, 69, 88
4, 69056, Note_off_c, 0, 69, 0
4, 69180, Note_on_c, 0, 57, 88
4, 69238, Note_off_c, 0, 57, 0
4, 69240, Note_on_c, 0, 58, 88
4, 69298, Note_off_c, 0, 58, 0
4, 69300, Note_on_c, 0, 60, 88
4, 69358, Note_off_c, 0, 60, 0
4, 69360, Note_on_c, 0, 62, 88
4, 69418, Note_off_c, 0, 62, 0
4, 69420, Note_on_c, 0, 63, 88
4, 69478, Note_off_c, 0, 63, 0
4, 69480, Note_on_c, 0, 65, 88
4, 69655, Note_off_c, 0, 65, 0
4, 69660, Note_on_c, 0, 63, 88
4, 69835, Note_off_c, 0, 63, 0
4, 69840, Note_on_c, 0, 62, 88
4, 69956, Note_off_c, 0, 62, 0
4, 69960, Note_on_c, 0, 67, 88
4, 70018, Note_off_c, 0, 67, 0
4, 70020, Note_on_c, 0, 66, 88
4, 70136, Note_off_c, 0, 66, 0
4, 70140, Note_on_c, 0, 72, 88
4, 70198, Note_off_c, 0, 72, 0
4, 70200, Note_on_c, 0, 70, 88
4, 70375, Note_off_c, 0, 70, 0
4, 70380, Note_on_c, 0, 68, 88
4, 70618, Note_off_c, 0, 68, 0
4, 70620, Note_on_c, 0, 67, 88
4, 70678, Note_off_c, 0, 67, 0
4, 70680, Note_on_c, 0, 69, 88
4, 70738, Note_off_c, 0, 69, 0
4, 70740, Note_on_c, 0, 70, 88
4, 70798, Note_off_c, 0, 70, 0
4, 70800, Note_on_c, 0, 72, 88
4, 70858, Note_off_c, 0, 72, 0
4, 70860, Note_on_c, 0, 74, 88
4, 70918, Note_off_c, 0, 74, 0
4, 70920, Note_on_c, 0, 75, 88
4, 71095, Note_off_c, 0, 75, 0
4, 71100, Note_on_c, 0, 74, 88
4, 71275, Note_off_c, 0, 74, 0
4, 71280, Note_on_c, 0, 72, 88
4, 72058, Note_off_c, 0, 72, 0
4, 72060, Note_on_c, 0, 69, 88
4, 72118, Note_off_c, 0, 69, 0
4, 72120, Note_on_c, 0, 70, 88
4, 72236, Note_off_c, 0, 70, 0
4, 72240, Note_on_c, 0, 69, 88
4, 72298, Note_off_c, 0, 69, 0
4, 72300, Note_on_c, 0, 75, 88
4, 72358, Note_off_c, 0, 75, 0
4, 72360, Note_on_c, 0, 74, 88
4, 72895, Note_off_c, 0, 74, 0
4, 72900, Note_on_c, 0, 80, 88
4, 73075, Note_off_c, 0, 80, 0
4, 73080, Note_on_c, 0, 79, 88
4, 73255, Note_off_c, 0, 79, 0
4, 73260, Note_on_c, 0, 77, 88
4, 73435, Note_off_c, 0, 77, 0
4, 73440, Note_on_c, 0, 75, 88
4, 73615, Note_off_c, 0, 75, 0
4, 73620, Note_on_c, 0, 76, 88
4, 73795, Note_off_c, 0, 76, 0
4, 73800, Note_on_c, 0, 77, 88
4, 73916, Note_off_c, 0, 77, 0
4, 73920, Note_on_c, 0, 74, 88
4, 73978, Note_off_c, 0, 74, 0
4, 73980, Note_on_c, 0, 76, 88
4, 74096, Note_off_c, 0, 76, 0
4, 74100, Note_on_c, 0, 79, 88
4, 74158, Note_off_c, 0, 79, 0
4, 74160, Note_on_c, 0, 72, 88
4, 74630, Note_off_c, 0, 72, 0
4, 74640, Note_on_c, 0, 70, 88
4, 74698, Note_off_c, 0, 70, 0
4, 74700, Note_on_c, 0, 69, 88
4, 74816, Note_off_c, 0, 69, 0
4, 74820, Note_on_c, 0, 75, 88
4, 74878, Note_off_c, 0, 75, 0
4, 74880, Note_on_c, 0, 74, 88
4, 75350, Note_off_c, 0, 74, 0
4, 75360, Note_on_c, 0, 75, 88
4, 75418, Note_off_c, 0, 75, 0
4, 75420, Note_on_c, 0, 74, 88
4, 75536, Note_off_c, 0, 74, 0
4, 75540, Note_on_c, 0, 80, 88
4, 75598, Note_off_c, 0, 80, 0
4, 75600, Note_on_c, 0, 79, 88
4, 75775, Note_off_c, 0, 79, 0
4, 75780, Note_on_c, 0, 77, 88
4, 75955, Note_off_c, 0, 77, 0
4, 75960, Note_on_c, 0, 75, 88
4, 76135, Note_off_c, 0, 75, 0
4, 76140, Note_on_c, 0, 74, 88
4, 76365, Note_off_c, 0, 74, 0
4, 76380, Note_on_c, 0, 74, 88
4, 76438, Note_off_c, 0, 74, 0
4, 76440, Note_on_c, 0, 72, 88
4, 76556, Note_off_c, 0, 72, 0
4, 76560, Note_on_c, 0, 69, 88
4, 76618, Note_off_c, 0, 69, 0
4, 76620, Note_on_c, 0, 70, 88
4, 76725, Note_off_c, 0, 70, 0
4, 76740, Note_on_c, 0, 70, 88
4, 76798, Note_off_c, 0, 70, 0
4, 76800, Note_on_c, 0, 69, 88
4, 76916, Note_off_c, 0, 69, 0
4, 76920, Note_on_c, 0, 65, 88
4, 76978, Note_off_c, 0, 65, 0
4, 76980, Note_on_c, 0, 67, 88
4, 77038, Note_off_c, 0, 67, 0
4, 77040, Note_on_c, 0, 65, 88
4, 77215, Note_off_c, 0, 65, 0
4, 77460, Note_on_c, 0, 53, 88
4, 77518, Note_off_c, 0, 53, 0
4, 77520, Note_on_c, 0, 55, 88
4, 77578, Note_off_c, 0, 55, 0
4, 77580, Note_on_c, 0, 57, 88
4, 77638, Note_off_c, 0, 57, 0
4, 77640, Note_on_c, 0, 58, 88
4, 77698, Note_off_c, 0, 58, 0
4, 77700, Note_on_c, 0, 60, 88
4, 77758, Note_off_c, 0, 60, 0
4, 77760, Note_on_c, 0, 62, 88
4, 77818, Note_off_c, 0, 62, 0
4, 77820, Note_on_c, 0, 63, 88
4, 77878, Note_off_c, 0, 63, 0
4, 77880, Note_on_c, 0, 62, 88
4, 77938, Note_off_c, 0, 62, 0
4, 77940, Note_on_c, 0, 60, 88
4, 77998, Note_off_c, 0, 60, 0
4, 78000, Note_on_c, 0, 58, 88
4, 78058, Note_off_c, 0, 58, 0
4, 78060, Note_on_c, 0, 57, 88
4, 78118, Note_off_c, 0, 57, 0
4, 78120, Note_on_c, 0, 58, 88
4, 78178, Note_off_c, 0, 58, 0
4, 78180, Note_on_c, 0, 68, 88
4, 78238, Note_off_c, 0, 68, 0
4, 78240, Note_on_c, 0, 67, 88
4, 78298, Note_off_c, 0, 67, 0
4, 78300, Note_on_c, 0, 65, 88
4, 78358, Note_off_c, 0, 65, 0
4, 78360, Note_on_c, 0, 63, 88
4, 78418, Note_off_c, 0, 63, 0
4, 78420, Note_on_c, 0, 62, 88
4, 78478, Note_off_c, 0, 62, 0
4, 78480, Note_on_c, 0, 63, 88
4, 78538, Note_off_c, 0, 63, 0
4, 78540, Note_on_c, 0, 58, 88
4, 78598, Note_off_c, 0, 58, 0
4, 78600, Note_on_c, 0, 60, 88
4, 78658, Note_off_c, 0, 60, 0
4, 78660, Note_on_c, 0, 62, 88
4, 78718, Note_off_c, 0, 62, 0
4, 78720, Note_on_c, 0, 63, 88
4, 78778, Note_off_c, 0, 63, 0
4, 78780, Note_on_c, 0, 65, 88
4, 78838, Note_off_c, 0, 65, 0
4, 78840, Note_on_c, 0, 67, 88
4, 78898, Note_off_c, 0, 67, 0
4, 78900, Note_on_c, 0, 63, 88
4, 78958, Note_off_c, 0, 63, 0
4, 78960, Note_on_c, 0, 65, 88
4, 79018, Note_off_c, 0, 65, 0
4, 79020, Note_on_c, 0, 67, 88
4, 79078, Note_off_c, 0, 67, 0
4, 79080, Note_on_c, 0, 69, 88
4, 79138, Note_off_c, 0, 69, 0
4, 79140, Note_on_c, 0, 70, 88
4, 79198, Note_off_c, 0, 70, 0
4, 79200, Note_on_c, 0, 72, 88
4, 79258, Note_off_c, 0, 72, 0
4, 79260, Note_on_c, 0, 74, 88
4, 79318, Note_off_c, 0, 74, 0
4, 79320, Note_on_c, 0, 72, 88
4, 79378, Note_off_c, 0, 72, 0
4, 79380, Note_on_c, 0, 70, 88
4, 79438, Note_off_c, 0, 70, 0
4, 79440, Note_on_c, 0, 69, 88
4, 79498, Note_off_c, 0, 69, 0
4, 79500, Note_on_c, 0, 67, 88
4, 79558, Note_off_c, 0, 67, 0
4, 79560, Note_on_c, 0, 69, 88
4, 79618, Note_off_c, 0, 69, 0
4, 79620, Note_on_c, 0, 79, 88
4, 79678, Note_off_c, 0, 79, 0
4, 79680, Note_on_c, 0, 77, 88
4, 79738, Note_off_c, 0, 77, 0
4, 79740, Note_on_c, 0, 75, 88
4, 79798, Note_off_c, 0, 75, 0
4, 79800, Note_on_c, 0, 74, 88
4, 79858, Note_off_c, 0, 74, 0
4, 79860, Note_on_c, 0, 72, 88
4, 79918, Note_off_c, 0, 72, 0
4, 79920, Note_on_c, 0, 74, 88
4, 79978, Note_off_c, 0, 74, 0
4, 79980, Note_on_c, 0, 69, 88
4, 80038, Note_off_c, 0, 69, 0
4, 80040, Note_on_c, 0, 70, 88
4, 80098, Note_off_c, 0, 70, 0
4, 80100, Note_on_c, 0, 72, 88
4, 80158, Note_off_c, 0, 72, 0
4, 80160, Note_on_c, 0, 74, 88
4, 80218, Note_off_c, 0, 74, 0
4, 80220, Note_on_c, 0, 75, 88
4, 80278, Note_off_c, 0, 75, 0
4, 80280, Note_on_c, 0, 77, 88
4, 80338, Note_off_c, 0, 77, 0
4, 80340, Note_on_c, 0, 74, 88
4, 80398, Note_off_c, 0, 74, 0
4, 80400, Note_on_c, 0, 75, 88
4, 80458, Note_off_c, 0, 75, 0
4, 80460, Note_on_c, 0, 77, 88
4, 80518, Note_off_c, 0, 77, 0
4, 80520, Note_on_c, 0, 79, 88
4, 80578, Note_off_c, 0, 79, 0
4, 80580, Note_on_c, 0, 80, 88
4, 80638, Note_off_c, 0, 80, 0
4, 80640, Note_on_c, 0, 82, 88
4, 80698, Note_off_c, 0, 82, 0
4, 80700, Note_on_c, 0, 84, 88
4, 80758, Note_off_c, 0, 84, 0
4, 80760, Note_on_c, 0, 82, 88
4, 80818, Note_off_c, 0, 82, 0
4, 80820, Note_on_c, 0, 80, 88
4, 80878, Note_off_c, 0, 80, 0
4, 80880, Note_on_c, 0, 79, 88
4, 80938, Note_off_c, 0, 79, 0
4, 80940, Note_on_c, 0, 77, 88
4, 80998, Note_off_c, 0, 77, 0
4, 81000, Note_on_c, 0, 79, 88
4, 81058, Note_off_c, 0, 79, 0
4, 81060, Note_on_c, 0, 80, 88
4, 81118, Note_off_c, 0, 80, 0
4, 81120, Note_on_c, 0, 79, 88
4, 81178, Note_off_c, 0, 79, 0
4, 81180, Note_on_c, 0, 77, 88
4, 81238, Note_off_c, 0, 77, 0
4, 81240, Note_on_c, 0, 75, 88
4, 81298, Note_off_c, 0, 75, 0
4, 81300, Note_on_c, 0, 74, 88
4, 81358, Note_off_c, 0, 74, 0
4, 81360, Note_on_c, 0, 75, 88
4, 82138, Note_off_c, 0, 75, 0
4, 82140, Note_on_c, 0, 65, 88
4, 82198, Note_off_c, 0, 65, 0
4, 82200, Note_on_c, 0, 64, 88
4, 82258, Note_off_c, 0, 64, 0
4, 82260, Note_on_c, 0, 65, 88
4, 82318, Note_off_c, 0, 65, 0
4, 82320, Note_on_c, 0, 67, 88
4, 82378, Note_off_c, 0, 67, 0
4, 82380, Note_on_c, 0, 69, 88
4, 82438, Note_off_c, 0, 69, 0
4, 82440, Note_on_c, 0, 70, 88
4, 82498, Note_off_c, 0, 70, 0
4, 82500, Note_on_c, 0, 65, 88
4, 82558, Note_off_c, 0, 65, 0
4, 82560, Note_on_c, 0, 64, 88
4, 82618, Note_off_c, 0, 64, 0
4, 82620, Note_on_c, 0, 65, 88
4, 82678, Note_off_c, 0, 65, 0
4, 82680, Note_on_c, 0, 69, 88
4, 82738, Note_off_c, 0, 69, 0
4, 82740, Note_on_c, 0, 70, 88
4, 82798, Note_off_c, 0, 70, 0
4, 82800, Note_on_c, 0, 72, 88
4, 82858, Note_off_c, 0, 72, 0
4, 82860, Note_on_c, 0, 65, 88
4, 82918, Note_off_c, 0, 65, 0
4, 82920, Note_on_c, 0, 64, 88
4, 82978, Note_off_c, 0, 64, 0
4, 82980, Note_on_c, 0, 65, 88
4, 83038, Note_off_c, 0, 65, 0
4, 83040, Note_on_c, 0, 70, 88
4, 83098, Note_off_c, 0, 70, 0
4, 83100, Note_on_c, 0, 72, 88
4, 83158, Note_off_c, 0, 72, 0
4, 83160, Note_on_c, 0, 73, 88
4, 83218, Note_off_c, 0, 73, 0
4, 83220, Note_on_c, 0, 70, 88
4, 83278, Note_off_c, 0, 70, 0
4, 83280, Note_on_c, 0, 72, 88
4, 83338, Note_off_c, 0, 72, 0
4, 83340, Note_on_c, 0, 73, 88
4, 83398, Note_off_c, 0, 73, 0
4, 83400, Note_on_c, 0, 75, 88
4, 83458, Note_off_c, 0, 75, 0
4, 83460, Note_on_c, 0, 77, 88
4, 83518, Note_off_c, 0, 77, 0
4, 83520, Note_on_c, 0, 78, 88
4, 83578, Note_off_c, 0, 78, 0
4, 83580, Note_on_c, 0, 75, 88
4, 83638, Note_off_c, 0, 75, 0
4, 83640, Note_on_c, 0, 77, 88
4, 83698, Note_off_c, 0, 77, 0
4, 83700, Note_on_c, 0, 78, 88
4, 83758, Note_off_c, 0, 78, 0
4, 83760, Note_on_c, 0, 80, 88
4, 83818, Note_off_c, 0, 80, 0
4, 83820, Note_on_c, 0, 82, 88
4, 83878, Note_off_c, 0, 82, 0
4, 83880, Note_on_c, 0, 83, 88
4, 83938, Note_off_c, 0, 83, 0
4, 83940, Note_on_c, 0, 82, 88
4, 83998, Note_off_c, 0, 82, 0
4, 84000, Note_on_c, 0, 80, 88
4, 84058, Note_off_c, 0, 80, 0
4, 84060, Note_on_c, 0, 78, 88
4, 84118, Note_off_c, 0, 78, 0
4, 84120, Note_on_c, 0, 77, 88
4, 84178, Note_off_c, 0, 77, 0
4, 84180, Note_on_c, 0, 75, 88
4, 84238, Note_off_c, 0, 75, 0
4, 84240, Note_on_c, 0, 81, 88
4, 84298, Note_off_c, 0, 81, 0
4, 84300, Note_on_c, 0, 84, 88
4, 84358, Note_off_c, 0, 84, 0
4, 84360, Note_on_c, 0, 75, 88
4, 84418, Note_off_c, 0, 75, 0
4, 84420, Note_on_c, 0, 78, 88
4, 84478, Note_off_c, 0, 78, 0
4, 84480, Note_on_c, 0, 77, 88
4, 84538, Note_off_c, 0, 77, 0
4, 84540, Note_on_c, 0, 75, 88
4, 84598, Note_off_c, 0, 75, 0
4, 84600, Note_on_c, 0, 77, 88
4, 84658, Note_off_c, 0, 77, 0
4, 84660, Note_on_c, 0, 82, 88
4, 84718, Note_off_c, 0, 82, 0
4, 84720, Note_on_c, 0, 74, 88
4, 84778, Note_off_c, 0, 74, 0
4, 84780, Note_on_c, 0, 75, 88
4, 84838, Note_off_c, 0, 75, 0
4, 84840, Note_on_c, 0, 77, 88
4, 84898, Note_off_c, 0, 77, 0
4, 84900, Note_on_c, 0, 79, 88
4, 84958, Note_off_c, 0, 79, 0
4, 84960, Note_on_c, 0, 77, 88
4, 85018, Note_off_c, 0, 77, 0
4, 85020, Note_on_c, 0, 75, 88
4, 85078, Note_off_c, 0, 75, 0
4, 85080, Note_on_c, 0, 74, 88
4, 85138, Note_off_c, 0, 74, 0
4, 85140, Note_on_c, 0, 72, 88
4, 85198, Note_off_c, 0, 72, 0
4, 85200, Note_on_c, 0, 82, 88
4, 85258, Note_off_c, 0, 82, 0
4, 85260, Note_on_c, 0, 81, 88
4, 85318, Note_off_c, 0, 81, 0
4, 85320, Note_on_c, 0, 82, 88
4, 85378, Note_off_c, 0, 82, 0
4, 85380, Note_on_c, 0, 77, 88
4, 85438, Note_off_c, 0, 77, 0
4, 85440, Note_on_c, 0, 74, 88
4, 85498, Note_off_c, 0, 74, 0
4, 85500, Note_on_c, 0, 70, 88
4, 85675, Note_off_c, 0, 70, 0
4, 85680, Note_on_c, 0, 69, 88
4, 85738, Note_off_c, 0, 69, 0
4, 85740, Note_on_c, 0, 65, 88
4, 85798, Note_off_c, 0, 65, 0
4, 85800, Note_on_c, 0, 64, 88
4, 85858, Note_off_c, 0, 64, 0
4, 85860, Note_on_c, 0, 65, 88
4, 85918, Note_off_c, 0, 65, 0
4, 85920, Note_on_c, 0, 67, 88
4, 85978, Note_off_c, 0, 67, 0
4, 85980, Note_on_c, 0, 69, 88
4, 86038, Note_off_c, 0, 69, 0
4, 86040, Note_on_c, 0, 70, 88
4, 86098, Note_off_c, 0, 70, 0
4, 86100, Note_on_c, 0, 65, 88
4, 86158, Note_off_c, 0, 65, 0
4, 86160, Note_on_c, 0, 64, 88
4, 86218, Note_off_c, 0, 64, 0
4, 86220, Note_on_c, 0, 65, 88
4, 86278, Note_off_c, 0, 65, 0
4, 86280, Note_on_c, 0, 69, 88
4, 86338, Note_off_c, 0, 69, 0
4, 86340, Note_on_c, 0, 70, 88
4, 86398, Note_off_c, 0, 70, 0
4, 86400, Note_on_c, 0, 72, 88
4, 86458, Note_off_c, 0, 72, 0
4, 86460, Note_on_c, 0, 65, 88
4, 86518, Note_off_c, 0, 65, 0
4, 86520, Note_on_c, 0, 64, 88
4, 86578, Note_off_c, 0, 64, 0
4, 86580, Note_on_c, 0, 65, 88
4, 86638, Note_off_c, 0, 65, 0
4, 86640, Note_on_c, 0, 70, 88
4, 86698, Note_off_c, 0, 70, 0
4, 86700, Note_on_c, 0, 72, 88
4, 86758, Note_off_c, 0, 72, 0
4, 86760, Note_on_c, 0, 74, 88
4, 87054, Note_off_c, 0, 74, 0
4, 87060, Note_on_c, 0, 72, 88
4, 87118, Note_off_c, 0, 72, 0
4, 87120, Note_on_c, 0, 71, 88
4, 87178, Note_off_c, 0, 71, 0
4, 87180, Note_on_c, 0, 67, 88
4, 87238, Note_off_c, 0, 67, 0
4, 87240, Note_on_c, 0, 66, 88
4, 87298, Note_off_c, 0, 66, 0
4, 87300, Note_on_c, 0, 67, 88
4, 87358, Note_off_c, 0, 67, 0
4, 87360, Note_on_c, 0, 69, 88
4, 87418, Note_off_c, 0, 69, 0
4, 87420, Note_on_c, 0, 71, 88
4, 87478, Note_off_c, 0, 71, 0
4, 87480, Note_on_c, 0, 72, 88
4, 87538, Note_off_c, 0, 72, 0
4, 87540, Note_on_c, 0, 67, 88
4, 87598, Note_off_c, 0, 67, 0
4, 87600, Note_on_c, 0, 66, 88
4, 87658, Note_off_c, 0, 66, 0
4, 87660, Note_on_c, 0, 67, 88
4, 87718, Note_off_c, 0, 67, 0
4, 87720, Note_on_c, 0, 71, 88
4, 87778, Note_off_c, 0, 71, 0
4, 87780, Note_on_c, 0, 72, 88
4, 87838, Note_off_c, 0, 72, 0
4, 87840, Note_on_c, 0, 74, 88
4, 87898, Note_off_c, 0, 74, 0
4, 87900, Note_on_c, 0, 67, 88
4, 87958, Note_off_c, 0, 67, 0
4, 87960, Note_on_c, 0, 66, 88
4, 88018, Note_off_c, 0, 66, 0
4, 88020, Note_on_c, 0, 67, 88
4, 88078, Note_off_c, 0, 67, 0
4, 88080, Note_on_c, 0, 72, 88
4, 88138, Note_off_c, 0, 72, 0
4, 88140, Note_on_c, 0, 74, 88
4, 88198, Note_off_c, 0, 74, 0
4, 88200, Note_on_c, 0, 75, 88
4, 88258, Note_off_c, 0, 75, 0
4, 88260, Note_on_c, 0, 72, 88
4, 88318, Note_off_c, 0, 72, 0
4, 88320, Note_on_c, 0, 67, 88
4, 88436, Note_off_c, 0, 67, 0
4, 88440, Note_on_c, 0, 79, 88
4, 88498, Note_off_c, 0, 79, 0
4, 88500, Note_on_c, 0, 77, 88
4, 88558, Note_off_c, 0, 77, 0
4, 88560, Note_on_c, 0, 75, 88
4, 88618, Note_off_c, 0, 75, 0
4, 88620, Note_on_c, 0, 74, 88
4, 88678, Note_off_c, 0, 74, 0
4, 88680, Note_on_c, 0, 72, 88
4, 88738, Note_off_c, 0, 72, 0
4, 88740, Note_on_c, 0, 70, 88
4, 88798, Note_off_c, 0, 70, 0
4, 88800, Note_on_c, 0, 75, 88
4, 88858, Note_off_c, 0, 75, 0
4, 88860, Note_on_c, 0, 72, 88
4, 88918, Note_off_c, 0, 72, 0
4, 88920, Note_on_c, 0, 68, 88
4, 88978, Note_off_c, 0, 68, 0
4, 88980, Note_on_c, 0, 75, 88
4, 89038, Note_off_c, 0, 75, 0
4, 89040, Note_on_c, 0, 72, 88
4, 89098, Note_off_c, 0, 72, 0
4, 89100, Note_on_c, 0, 65, 88
4, 89158, Note_off_c, 0, 65, 0
4, 89160, Note_on_c, 0, 72, 88
4, 89218, Note_off_c, 0, 72, 0
4, 89220, Note_on_c, 0, 75, 88
4, 89278, Note_off_c, 0, 75, 0
4, 89280, Note_on_c, 0, 74, 88
4, 89338, Note_off_c, 0, 74, 0
4, 89340, Note_on_c, 0, 72, 88
4, 89398, Note_off_c, 0, 72, 0
4, 89400, Note_on_c, 0, 70, 88
4, 89458, Note_off_c, 0, 70, 0
4, 89460, Note_on_c, 0, 68, 88
4, 89518, Note_off_c, 0, 68, 0
4, 89520, Note_on_c, 0, 74, 88
4, 89578, Note_off_c, 0, 74, 0
4, 89580, Note_on_c, 0, 70, 88
4, 89638, Note_off_c, 0, 70, 0
4, 89640, Note_on_c, 0, 67, 88
4, 89698, Note_off_c, 0, 67, 0
4, 89700, Note_on_c, 0, 73, 88
4, 89758, Note_off_c, 0, 73, 0
4, 89760, Note_on_c, 0, 70, 88
4, 89818, Note_off_c, 0, 70, 0
4, 89820, Note_on_c, 0, 63, 88
4, 89878, Note_off_c, 0, 63, 0
4, 89880, Note_on_c, 0, 70, 88
4, 89938, Note_off_c, 0, 70, 0
4, 89940, Note_on_c, 0, 73, 88
4, 89998, Note_off_c, 0, 73, 0
4, 90000, Note_on_c, 0, 72, 88
4, 90058, Note_off_c, 0, 72, 0
4, 90060, Note_on_c, 0, 71, 88
4, 90118, Note_off_c, 0, 71, 0
4, 90120, Note_on_c, 0, 72, 88
4, 90178, Note_off_c, 0, 72, 0
4, 90180, Note_on_c, 0, 75, 88
4, 90355, Note_off_c, 0, 75, 0
4, 90360, Note_on_c, 0, 80, 88
4, 90535, Note_off_c, 0, 80, 0
4, 90540, Note_on_c, 0, 53, 88
4, 90715, Note_off_c, 0, 53, 0
4, 90720, Note_on_c, 0, 55, 88
4, 90895, Note_off_c, 0, 55, 0
4, 90900, Note_on_c, 0, 74, 88
4, 91075, Note_off_c, 0, 74, 0
4, 91080, Note_on_c, 0, 79, 88
4, 91255, Note_off_c, 0, 79, 0
4, 91260, Note_on_c, 0, 52, 88
4, 91435, Note_off_c, 0, 52, 0
4, 91440, Note_on_c, 0, 53, 88
4, 91615, Note_off_c, 0, 53, 0
4, 91620, Note_on_c, 0, 77, 88
4, 91854, Note_off_c, 0, 77, 0
4, 91860, Note_on_c, 0, 67, 88
4, 91918, Note_off_c, 0, 67, 0
4, 91920, Note_on_c, 0, 69, 88
4, 91978, Note_off_c, 0, 69, 0
4, 91980, Note_on_c, 0, 71, 88
4, 92038, Note_off_c, 0, 71, 0
4, 92040, Note_on_c, 0, 72, 88
4, 92098, Note_off_c, 0, 72, 0
4, 92100, Note_on_c, 0, 74, 88
4, 92158, Note_off_c, 0, 74, 0
4, 92160, Note_on_c, 0, 75, 88
4, 92218, Note_off_c, 0, 75, 0
4, 92220, Note_on_c, 0, 74, 88
4, 92278, Note_off_c, 0, 74, 0
4, 92280, Note_on_c, 0, 72, 88
4, 92338, Note_off_c, 0, 72, 0
4, 92340, Note_on_c, 0, 70, 88
4, 92398, Note_off_c, 0, 70, 0
4, 92400, Note_on_c, 0, 69, 88
4, 92458, Note_off_c, 0, 69, 0
4, 92460, Note_on_c, 0, 67, 88
4, 92518, Note_off_c, 0, 67, 0
4, 92520, Note_on_c, 0, 66, 88
4, 92578, Note_off_c, 0, 66, 0
4, 92580, Note_on_c, 0, 74, 88
4, 92638, Note_off_c, 0, 74, 0
4, 92640, Note_on_c, 0, 76, 88
4, 92698, Note_off_c, 0, 76, 0
4, 92700, Note_on_c, 0, 78, 88
4, 92758, Note_off_c, 0, 78, 0
4, 92760, Note_on_c, 0, 79, 88
4, 92818, Note_off_c, 0, 79, 0
4, 92820, Note_on_c, 0, 81, 88
4, 92878, Note_off_c, 0, 81, 0
4, 92880, Note_on_c, 0, 79, 88
4, 92996, Note_off_c, 0, 79, 0
4, 93000, Note_on_c, 0, 67, 88
4, 93058, Note_off_c, 0, 67, 0
4, 93060, Note_on_c, 0, 72, 88
4, 93354, Note_off_c, 0, 72, 0
4, 93360, Note_on_c, 0, 69, 88
4, 93418, Note_off_c, 0, 69, 0
4, 93420, Note_on_c, 0, 74, 88
4, 93536, Note_off_c, 0, 74, 0
4, 93540, Note_on_c, 0, 72, 88
4, 93598, Note_off_c, 0, 72, 0
4, 93600, Note_on_c, 0, 70, 88
4, 93775, Note_off_c, 0, 70, 0
4, 93780, Note_on_c, 0, 75, 88
4, 94014, Note_off_c, 0, 75, 0
4, 94020, Note_on_c, 0, 69, 88
4, 94078, Note_off_c, 0, 69, 0
4, 94080, Note_on_c, 0, 70, 88
4, 94138, Note_off_c, 0, 70, 0
4, 94140, Note_on_c, 0, 72, 88
4, 94198, Note_off_c, 0, 72, 0
4, 94200, Note_on_c, 0, 74, 88
4, 94258, Note_off_c, 0, 74, 0
4, 94260, Note_on_c, 0, 75, 88
4, 94318, Note_off_c, 0, 75, 0
4, 94320, Note_on_c, 0, 74, 88
4, 94378, Note_off_c, 0, 74, 0
4, 94380, Note_on_c, 0, 79, 88
4, 94438, Note_off_c, 0, 79, 0
4, 94440, Note_on_c, 0, 77, 88
4, 94498, Note_off_c, 0, 77, 0
4, 94500, Note_on_c, 0, 75, 88
4, 94558, Note_off_c, 0, 75, 0
4, 94560, Note_on_c, 0, 74, 88
4, 94618, Note_off_c, 0, 74, 0
4, 94620, Note_on_c, 0, 72, 88
4, 94678, Note_off_c, 0, 72, 0
4, 94680, Note_on_c, 0, 70, 88
4, 94738, Note_off_c, 0, 70, 0
4, 94740, Note_on_c, 0, 69, 88
4, 94798, Note_off_c, 0, 69, 0
4, 94800, Note_on_c, 0, 70, 88
4, 94858, Note_off_c, 0, 70, 0
4, 94860, Note_on_c, 0, 72, 88
4, 94918, Note_off_c, 0, 72, 0
4, 94920, Note_on_c, 0, 78, 88
4, 94978, Note_off_c, 0, 78, 0
4, 94980, Note_on_c, 0, 81, 88
4, 95038, Note_off_c, 0, 81, 0
4, 95040, Note_on_c, 0, 74, 88
4, 95156, Note_off_c, 0, 74, 0
4, 95160, Note_on_c, 0, 70, 88
4, 95218, Note_off_c, 0, 70, 0
4, 95220, Note_on_c, 0, 72, 88
4, 95278, Note_off_c, 0, 72, 0
4, 95280, Note_on_c, 0, 74, 88
4, 95338, Note_off_c, 0, 74, 0
4, 95340, Note_on_c, 0, 75, 88
4, 95385, Note_off_c, 0, 75, 0
4, 95400, Note_on_c, 0, 75, 88
4, 95516, Note_off_c, 0, 75, 0
4, 95520, Note_on_c, 0, 69, 88
4, 95578, Note_off_c, 0, 69, 0
4, 95580, Note_on_c, 0, 70, 88
4, 95638, Note_off_c, 0, 70, 0
4, 95640, Note_on_c, 0, 72, 88
4, 95698, Note_off_c, 0, 72, 0
4, 95700, Note_on_c, 0, 74, 88
4, 95758, Note_off_c, 0, 74, 0
4, 95760, Note_on_c, 0, 74, 88
4, 95876, Note_off_c, 0, 74, 0
4, 95880, Note_on_c, 0, 67, 88
4, 95938, Note_off_c, 0, 67, 0
4, 95940, Note_on_c, 0, 69, 88
4, 95998, Note_off_c, 0, 69, 0
4, 96000, Note_on_c, 0, 70, 88
4, 96058, Note_off_c, 0, 70, 0
4, 96060, Note_on_c, 0, 72, 88
4, 96105, Note_off_c, 0, 72, 0
4, 96120, Note_on_c, 0, 72, 88
4, 96178, Note_off_c, 0, 72, 0
4, 96180, Note_on_c, 0, 66, 88
4, 96355, Note_off_c, 0, 66, 0
4, 96360, Note_on_c, 0, 67, 88
4, 96418, Note_off_c, 0, 67, 0
4, 96420, Note_on_c, 0, 69, 88
4, 96478, Note_off_c, 0, 69, 0
4, 96480, Note_on_c, 0, 70, 88
4, 96538, Note_off_c, 0, 70, 0
4, 96540, Note_on_c, 0, 75, 88
4, 96598, Note_off_c, 0, 75, 0
4, 96600, Note_on_c, 0, 74, 88
4, 96658, Note_off_c, 0, 74, 0
4, 96660, Note_on_c, 0, 72, 88
4, 96718, Note_off_c, 0, 72, 0
4, 96720, Note_on_c, 0, 70, 88
4, 96778, Note_off_c, 0, 70, 0
4, 96780, Note_on_c, 0, 69, 88
4, 96838, Note_off_c, 0, 69, 0
4, 96840, Note_on_c, 0, 67, 88
4, 97015, Note_off_c, 0, 67, 0
4, 97260, Note_on_c, 0, 82, 88
4, 97318, Note_off_c, 0, 82, 0
4, 97320, Note_on_c, 0, 81, 88
4, 97378, Note_off_c, 0, 81, 0
4, 97380, Note_on_c, 0, 79, 88
4, 97438, Note_off_c, 0, 79, 0
4, 97440, Note_on_c, 0, 77, 88
4, 97498, Note_off_c, 0, 77, 0
4, 97500, Note_on_c, 0, 75, 88
4, 97558, Note_off_c, 0, 75, 0
4, 97560, Note_on_c, 0, 74, 88
4, 97735, Note_off_c, 0, 74, 0
4, 97740, Note_on_c, 0, 75, 88
4, 97915, Note_off_c, 0, 75, 0
4, 97920, Note_on_c, 0, 77, 88
4, 98036, Note_off_c, 0, 77, 0
4, 98040, Note_on_c, 0, 74, 88
4, 98098, Note_off_c, 0, 74, 0
4, 98100, Note_on_c, 0, 75, 88
4, 98216, Note_off_c, 0, 75, 0
4, 98220, Note_on_c, 0, 79, 88
4, 98278, Note_off_c, 0, 79, 0
4, 98280, Note_on_c, 0, 72, 88
4, 98455, Note_off_c, 0, 72, 0
4, 98460, Note_on_c, 0, 77, 88
4, 98698, Note_off_c, 0, 77, 0
4, 98700, Note_on_c, 0, 75, 88
4, 98758, Note_off_c, 0, 75, 0
4, 98760, Note_on_c, 0, 74, 88
4, 98818, Note_off_c, 0, 74, 0
4, 98820, Note_on_c, 0, 75, 88
4, 99054, Note_off_c, 0, 75, 0
4, 99060, Note_on_c, 0, 74, 88
4, 99118, Note_off_c, 0, 74, 0
4, 99120, Note_on_c, 0, 72, 88
4, 99178, Note_off_c, 0, 72, 0
4, 99180, Note_on_c, 0, 74, 88
4, 99418, Note_off_c, 0, 74, 0
4, 99420, Note_on_c, 0, 75, 88
4, 99478, Note_off_c, 0, 75, 0
4, 99480, Note_on_c, 0, 77, 88
4, 99538, Note_off_c, 0, 77, 0
4, 99540, Note_on_c, 0, 79, 88
4, 99598, Note_off_c, 0, 79, 0
4, 99600, Note_on_c, 0, 81, 88
4, 99658, Note_off_c, 0, 81, 0
4, 99660, Note_on_c, 0, 82, 88
4, 99718, Note_off_c, 0, 82, 0
4, 99720, Note_on_c, 0, 70, 88
4, 99895, Note_off_c, 0, 70, 0
4, 99900, Note_on_c, 0, 69, 88
4, 100075, Note_off_c, 0, 69, 0
4, 100080, Note_on_c, 0, 65, 88
4, 100138, Note_off_c, 0, 65, 0
4, 100140, Note_on_c, 0, 69, 88
4, 100198, Note_off_c, 0, 69, 0
4, 100200, Note_on_c, 0, 72, 88
4, 100258, Note_off_c, 0, 72, 0
4, 100260, Note_on_c, 0, 75, 88
4, 100318, Note_off_c, 0, 75, 0
4, 100320, Note_on_c, 0, 74, 88
4, 100378, Note_off_c, 0, 74, 0
4, 100380, Note_on_c, 0, 75, 88
4, 100438, Note_off_c, 0, 75, 0
4, 100440, Note_on_c, 0, 65, 88
4, 100498, Note_off_c, 0, 65, 0
4, 100500, Note_on_c, 0, 69, 88
4, 100558, Note_off_c, 0, 69, 0
4, 100560, Note_on_c, 0, 70, 88
4, 100618, Note_off_c, 0, 70, 0
4, 100620, Note_on_c, 0, 74, 88
4, 100678, Note_off_c, 0, 74, 0
4, 100680, Note_on_c, 0, 72, 88
4, 100738, Note_off_c, 0, 72, 0
4, 100740, Note_on_c, 0, 74, 88
4, 100798, Note_off_c, 0, 74, 0
4, 100800, Note_on_c, 0, 63, 88
4, 100858, Note_off_c, 0, 63, 0
4, 100860, Note_on_c, 0, 67, 88
4, 100918, Note_off_c, 0, 67, 0
4, 100920, Note_on_c, 0, 69, 88
4, 100978, Note_off_c, 0, 69, 0
4, 100980, Note_on_c, 0, 72, 88
4, 101038, Note_off_c, 0, 72, 0
4, 101040, Note_on_c, 0, 70, 88
4, 101098, Note_off_c, 0, 70, 0
4, 101100, Note_on_c, 0, 72, 88
4, 101158, Note_off_c, 0, 72, 0
4, 101160, Note_on_c, 0, 63, 88
4, 101218, Note_off_c, 0, 63, 0
4, 101220, Note_on_c, 0, 62, 88
4, 101278, Note_off_c, 0, 62, 0
4, 101280, Note_on_c, 0, 65, 88
4, 101338, Note_off_c, 0, 65, 0
4, 101340, Note_on_c, 0, 70, 88
4, 101398, Note_off_c, 0, 70, 0
4, 101400, Note_on_c, 0, 74, 88
4, 101458, Note_off_c, 0, 74, 0
4, 101460, Note_on_c, 0, 75, 88
4, 101518, Note_off_c, 0, 75, 0
4, 101520, Note_on_c, 0, 77, 88
4, 101578, Note_off_c, 0, 77, 0
4, 101580, Note_on_c, 0, 75, 88
4, 101638, Note_off_c, 0, 75, 0
4, 101640, Note_on_c, 0, 77, 88
4, 101698, Note_off_c, 0, 77, 0
4, 101700, Note_on_c, 0, 67, 88
4, 101758, Note_off_c, 0, 67, 0
4, 101760, Note_on_c, 0, 71, 88
4, 101818, Note_off_c, 0, 71, 0
4, 101820, Note_on_c, 0, 74, 88
4, 101878, Note_off_c, 0, 74, 0
4, 101880, Note_on_c, 0, 75, 88
4, 101938, Note_off_c, 0, 75, 0
4, 101940, Note_on_c, 0, 74, 88
4, 101998, Note_off_c, 0, 74, 0
4, 102000, Note_on_c, 0, 75, 88
4, 102058, Note_off_c, 0, 75, 0
4, 102060, Note_on_c, 0, 67, 88
4, 102118, Note_off_c, 0, 67, 0
4, 102120, Note_on_c, 0, 71, 88
4, 102178, Note_off_c, 0, 71, 0
4, 102180, Note_on_c, 0, 72, 88
4, 102238, Note_off_c, 0, 72, 0
4, 102240, Note_on_c, 0, 74, 88
4, 102298, Note_off_c, 0, 74, 0
4, 102300, Note_on_c, 0, 72, 88
4, 102358, Note_off_c, 0, 72, 0
4, 102360, Note_on_c, 0, 74, 88
4, 102418, Note_off_c, 0, 74, 0
4, 102420, Note_on_c, 0, 65, 88
4, 102478, Note_off_c, 0, 65, 0
4, 102480, Note_on_c, 0, 68, 88
4, 102538, Note_off_c, 0, 68, 0
4, 102540, Note_on_c, 0, 71, 88
4, 102585, Note_off_c, 0, 71, 0
4, 102600, Note_on_c, 0, 71, 88
4, 102658, Note_off_c, 0, 71, 0
4, 102660, Note_on_c, 0, 72, 88
4, 102718, Note_off_c, 0, 72, 0
4, 102720, Note_on_c, 0, 67, 88
4, 102778, Note_off_c, 0, 67, 0
4, 102780, Note_on_c, 0, 63, 88
4, 103018, Note_off_c, 0, 63, 0
4, 103020, Note_on_c, 0, 75, 88
4, 103078, Note_off_c, 0, 75, 0
4, 103080, Note_on_c, 0, 74, 88
4, 103138, Note_off_c, 0, 74, 0
4, 103140, Note_on_c, 0, 72, 88
4, 103198, Note_off_c, 0, 72, 0
4, 103200, Note_on_c, 0, 70, 88
4, 103258, Note_off_c, 0, 70, 0
4, 103260, Note_on_c, 0, 68, 88
4, 103318, Note_off_c, 0, 68, 0
4, 103320, Note_on_c, 0, 77, 88
4, 103738, Note_off_c, 0, 77, 0
4, 103740, Note_on_c, 0, 70, 88
4, 103798, Note_off_c, 0, 70, 0
4, 103800, Note_on_c, 0, 74, 88
4, 103858, Note_off_c, 0, 74, 0
4, 103860, Note_on_c, 0, 75, 88
4, 103918, Note_off_c, 0, 75, 0
4, 103920, Note_on_c, 0, 77, 88
4, 103978, Note_off_c, 0, 77, 0
4, 103980, Note_on_c, 0, 74, 88
4, 104038, Note_off_c, 0, 74, 0
4, 104040, Note_on_c, 0, 75, 88
4, 104575, Note_off_c, 0, 75, 0
4, 104580, Note_on_c, 0, 74, 88
4, 104755, Note_off_c, 0, 74, 0
4, 104760, Note_on_c, 0, 79, 88
4, 105178, Note_off_c, 0, 79, 0
4, 105180, Note_on_c, 0, 72, 88
4, 105238, Note_off_c, 0, 72, 0
4, 105240, Note_on_c, 0, 76, 88
4, 105298, Note_off_c, 0, 76, 0
4, 105300, Note_on_c, 0, 77, 88
4, 105358, Note_off_c, 0, 77, 0
4, 105360, Note_on_c, 0, 79, 88
4, 105418, Note_off_c, 0, 79, 0
4, 105420, Note_on_c, 0, 76, 88
4, 105478, Note_off_c, 0, 76, 0
4, 105480, Note_on_c, 0, 77, 88
4, 106015, Note_off_c, 0, 77, 0
4, 106020, Note_on_c, 0, 75, 88
4, 106195, Note_off_c, 0, 75, 0
4, 106200, Note_on_c, 0, 74, 88
4, 106972, Note_off_c, 0, 74, 0
4, 106980, Note_on_c, 0, 75, 88
4, 107038, Note_off_c, 0, 75, 0
4, 107040, Note_on_c, 0, 74, 88
4, 107098, Note_off_c, 0, 74, 0
4, 107100, Note_on_c, 0, 72, 88
4, 107158, Note_off_c, 0, 72, 0
4, 107160, Note_on_c, 0, 74, 88
4, 107218, Note_off_c, 0, 74, 0
4, 107220, Note_on_c, 0, 70, 88
4, 107278, Note_off_c, 0, 70, 0
4, 107280, Note_on_c, 0, 72, 88
4, 107692, Note_off_c, 0, 72, 0
4, 107700, Note_on_c, 0, 73, 88
4, 107758, Note_off_c, 0, 73, 0
4, 107760, Note_on_c, 0, 72, 88
4, 107818, Note_off_c, 0, 72, 0
4, 107820, Note_on_c, 0, 70, 88
4, 107878, Note_off_c, 0, 70, 0
4, 107880, Note_on_c, 0, 72, 88
4, 107938, Note_off_c, 0, 72, 0
4, 107940, Note_on_c, 0, 69, 88
4, 107998, Note_off_c, 0, 69, 0
4, 108000, Note_on_c, 0, 70, 88
4, 108058, Note_off_c, 0, 70, 0
4, 108060, Note_on_c, 0, 72, 88
4, 108118, Note_off_c, 0, 72, 0
4, 108120, Note_on_c, 0, 73, 88
4, 108236, Note_off_c, 0, 73, 0
4, 108240, Note_on_c, 0, 72, 88
4, 108298, Note_off_c, 0, 72, 0
4, 108300, Note_on_c, 0, 70, 88
4, 108416, Note_off_c, 0, 70, 0
4, 108420, Note_on_c, 0, 69, 88
4, 108478, Note_off_c, 0, 69, 0
4, 108480, Note_on_c, 0, 67, 88
4, 108538, Note_off_c, 0, 67, 0
4, 108540, Note_on_c, 0, 69, 88
4, 108656, Note_off_c, 0, 69, 0
4, 108780, Note_on_c, 0, 57, 88
4, 108838, Note_off_c, 0, 57, 0
4, 108840, Note_on_c, 0, 58, 88
4, 108898, Note_off_c, 0, 58, 0
4, 108900, Note_on_c, 0, 60, 88
4, 108958, Note_off_c, 0, 60, 0
4, 108960, Note_on_c, 0, 62, 88
4, 109018, Note_off_c, 0, 62, 0
4, 109020, Note_on_c, 0, 63, 88
4, 109078, Note_off_c, 0, 63, 0
4, 109080, Note_on_c, 0, 65, 88
4, 109255, Note_off_c, 0, 65, 0
4, 109260, Note_on_c, 0, 63, 88
4, 109435, Note_off_c, 0, 63, 0
4, 109440, Note_on_c, 0, 62, 88
4, 109556, Note_off_c, 0, 62, 0
4, 109560, Note_on_c, 0, 67, 88
4, 109618, Note_off_c, 0, 67, 0
4, 109620, Note_on_c, 0, 66, 88
4, 109736, Note_off_c, 0, 66, 0
4, 109740, Note_on_c, 0, 72, 88
4, 109798, Note_off_c, 0, 72, 0
4, 109800, Note_on_c, 0, 70, 88
4, 109975, Note_off_c, 0, 70, 0
4, 109980, Note_on_c, 0, 68, 88
4, 110218, Note_off_c, 0, 68, 0
4, 110220, Note_on_c, 0, 67, 88
4, 110278, Note_off_c, 0, 67, 0
4, 110280, Note_on_c, 0, 69, 88
4, 110338, Note_off_c, 0, 69, 0
4, 110340, Note_on_c, 0, 70, 88
4, 110398, Note_off_c, 0, 70, 0
4, 110400, Note_on_c, 0, 72, 88
4, 110458, Note_off_c, 0, 72, 0
4, 110460, Note_on_c, 0, 74, 88
4, 110518, Note_off_c, 0, 74, 0
4, 110520, Note_on_c, 0, 75, 88
4, 110695, Note_off_c, 0, 75, 0
4, 110700, Note_on_c, 0, 74, 88
4, 110875, Note_off_c, 0, 74, 0
4, 110880, Note_on_c, 0, 72, 88
4, 111658, Note_off_c, 0, 72, 0
4, 111660, Note_on_c, 0, 69, 88
4, 111718, Note_off_c, 0, 69, 0
4, 111720, Note_on_c, 0, 70, 88
4, 111836, Note_off_c, 0, 70, 0
4, 111840, Note_on_c, 0, 69, 88
4, 111898, Note_off_c, 0, 69, 0
4, 111900, Note_on_c, 0, 75, 88
4, 111958, Note_off_c, 0, 75, 0
4, 111960, Note_on_c, 0, 74, 88
4, 112495, Note_off_c, 0, 74, 0
4, 112500, Note_on_c, 0, 80, 88
4, 112675, Note_off_c, 0, 80, 0
4, 112680, Note_on_c, 0, 79, 88
4, 112855, Note_off_c, 0, 79, 0
4, 112860, Note_on_c, 0, 77, 88
4, 113035, Note_off_c, 0, 77, 0
4, 113040, Note_on_c, 0, 75, 88
4, 113215, Note_off_c, 0, 75, 0
4, 113220, Note_on_c, 0, 76, 88
4, 113395, Note_off_c, 0, 76, 0
4, 113400, Note_on_c, 0, 77, 88
4, 113516, Note_off_c, 0, 77, 0
4, 113520, Note_on_c, 0, 74, 88
4, 113578, Note_off_c, 0, 74, 0
4, 113580, Note_on_c, 0, 76, 88
4, 113696, Note_off_c, 0, 76, 0
4, 113700, Note_on_c, 0, 79, 88
4, 113758, Note_off_c, 0, 79, 0
4, 113760, Note_on_c, 0, 72, 88
4, 114230, Note_off_c, 0, 72, 0
4, 114240, Note_on_c, 0, 70, 88
4, 114298, Note_off_c, 0, 70, 0
4, 114300, Note_on_c, 0, 69, 88
4, 114416, Note_off_c, 0, 69, 0
4, 114420, Note_on_c, 0, 75, 88
4, 114478, Note_off_c, 0, 75, 0
4, 114480, Note_on_c, 0, 74, 88
4, 114950, Note_off_c, 0, 74, 0
4, 114960, Note_on_c, 0, 75, 88
4, 115018, Note_off_c, 0, 75, 0
4, 115020, Note_on_c, 0, 74, 88
4, 115136, Note_off_c, 0, 74, 0
4, 115140, Note_on_c, 0, 80, 88
4, 115198, Note_off_c, 0, 80, 0
4, 115200, Note_on_c, 0, 79, 88
4, 115375, Note_off_c, 0, 79, 0
4, 115380, Note_on_c, 0, 77, 88
4, 115555, Note_off_c, 0, 77, 0
4, 115560, Note_on_c, 0, 75, 88
4, 115735, Note_off_c, 0, 75, 0
4, 115740, Note_on_c, 0, 74, 88
4, 115965, Note_off_c, 0, 74, 0
4, 115980, Note_on_c, 0, 74, 88
4, 116038, Note_off_c, 0, 74, 0
4, 116040, Note_on_c, 0, 72, 88
4, 116156, Note_off_c, 0, 72, 0
4, 116160, Note_on_c, 0, 69, 88
4, 116218, Note_off_c, 0, 69, 0
4, 116220, Note_on_c, 0, 70, 88
4, 116325, Note_off_c, 0, 70, 0
4, 116340, Note_on_c, 0, 70, 88
4, 116398, Note_off_c, 0, 70, 0
4, 116400, Note_on_c, 0, 69, 88
4, 116516, Note_off_c, 0, 69, 0
4, 116520, Note_on_c, 0, 65, 88
4, 116578, Note_off_c, 0, 65, 0
4, 116580, Note_on_c, 0, 67, 88
4, 116638, Note_off_c, 0, 67, 0
4, 116640, Note_on_c, 0, 65, 88
4, 116815, Note_off_c, 0, 65, 0
4, 117060, Note_on_c, 0, 53, 88
4, 117118, Note_off_c, 0, 53, 0
4, 117120, Note_on_c, 0, 55, 88
4, 117178, Note_off_c, 0, 55, 0
4, 117180, Note_on_c, 0, 57, 88
4, 117238, Note_off_c, 0, 57, 0
4, 117240, Note_on_c, 0, 58, 88
4, 117298, Note_off_c, 0, 58, 0
4, 117300, Note_on_c, 0, 60, 88
4, 117358, Note_off_c, 0, 60, 0
4, 117360, Note_on_c, 0, 62, 88
4, 117418, Note_off_c, 0, 62, 0
4, 117420, Note_on_c, 0, 63, 88
4, 117478, Note_off_c, 0, 63, 0
4, 117480, Note_on_c, 0, 62, 88
4, 117538, Note_off_c, 0, 62, 0
4, 117540, Note_on_c, 0, 60, 88
4, 117598, Note_off_c, 0, 60, 0
4, 117600, Note_on_c, 0, 58, 88
4, 117658, Note_off_c, 0, 58, 0
4, 117660, Note_on_c, 0, 57, 88
4, 117718, Note_off_c, 0, 57, 0
4, 117720, Note_on_c, 0, 58, 88
4, 117778, Note_off_c, 0, 58, 0
4, 117780, Note_on_c, 0, 68, 88
4, 117838, Note_off_c, 0, 68, 0
4, 117840, Note_on_c, 0, 67, 88
4, 117898, Note_off_c, 0, 67, 0
4, 117900, Note_on_c, 0, 65, 88
4, 117958, Note_off_c, 0, 65, 0
4, 117960, Note_on_c, 0, 63, 88
4, 118018, Note_off_c, 0, 63, 0
4, 118020, Note_on_c, 0, 62, 88
4, 118078, Note_off_c, 0, 62, 0
4, 118080, Note_on_c, 0, 63, 88
4, 118138, Note_off_c, 0, 63, 0
4, 118140, Note_on_c, 0, 58, 88
4, 118198, Note_off_c, 0, 58, 0
4, 118200, Note_on_c, 0, 60, 88
4, 118258, Note_off_c, 0, 60, 0
4, 118260, Note_on_c, 0, 62, 88
4, 118318, Note_off_c, 0, 62, 0
4, 118320, Note_on_c, 0, 63, 88
4, 118378, Note_off_c, 0, 63, 0
4, 118380, Note_on_c, 0, 65, 88
4, 118438, Note_off_c, 0, 65, 0
4, 118440, Note_on_c, 0, 67, 88
4, 118498, Note_off_c, 0, 67, 0
4, 118500, Note_on_c, 0, 63, 88
4, 118558, Note_off_c, 0, 63, 0
4, 118560, Note_on_c, 0, 65, 88
4, 118618, Note_off_c, 0, 65, 0
4, 118620, Note_on_c, 0, 67, 88
4, 118678, Note_off_c, 0, 67, 0
4, 118680, Note_on_c, 0, 69, 88
4, 118738, Note_off_c, 0, 69, 0
4, 118740, Note_on_c, 0, 70, 88
4, 118798, Note_off_c, 0, 70, 0
4, 118800, Note_on_c, 0, 72, 88
4, 118858, Note_off_c, 0, 72, 0
4, 118860, Note_on_c, 0, 74, 88
4, 118918, Note_off_c, 0, 74, 0
4, 118920, Note_on_c, 0, 72, 88
4, 118978, Note_off_c, 0, 72, 0
4, 118980, Note_on_c, 0, 70, 88
4, 119038, Note_off_c, 0, 70, 0
4, 119040, Note_on_c, 0, 69, 88
4, 119098, Note_off_c, 0, 69, 0
4, 119100, Note_on_c, 0, 67, 88
4, 119158, Note_off_c, 0, 67, 0
4, 119160, Note_on_c, 0, 69, 88
4, 119218, Note_off_c, 0, 69, 0
4, 119220, Note_on_c, 0, 79, 88
4, 119278, Note_off_c, 0, 79, 0
4, 119280, Note_on_c, 0, 77, 88
4, 119338, Note_off_c, 0, 77, 0
4, 119340, Note_on_c, 0, 75, 88
4, 119398, Note_off_c, 0, 75, 0
4, 119400, Note_on_c, 0, 74, 88
4, 119458, Note_off_c, 0, 74, 0
4, 119460, Note_on_c, 0, 72, 88
4, 119518, Note_off_c, 0, 72, 0
4, 119520, Note_on_c, 0, 74, 88
4, 119578, Note_off_c, 0, 74, 0
4, 119580, Note_on_c, 0, 69, 88
4, 119638, Note_off_c, 0, 69, 0
4, 119640, Note_on_c, 0, 70, 88
4, 119698, Note_off_c, 0, 70, 0
4, 119700, Note_on_c, 0, 72, 88
4, 119758, Note_off_c, 0, 72, 0
4, 119760, Note_on_c, 0, 74, 88
4, 119818, Note_off_c, 0, 74, 0
4, 119820, Note_on_c, 0, 75, 88
4, 119878, Note_off_c, 0, 75, 0
4, 119880, Note_on_c, 0, 77, 88
4, 119938, Note_off_c, 0, 77, 0
4, 119940, Note_on_c, 0, 74, 88
4, 119998, Note_off_c, 0, 74, 0
4, 120000, Note_on_c, 0, 75, 88
4, 120058, Note_off_c, 0, 75, 0
4, 120060, Note_on_c, 0, 77, 88
4, 120118, Note_off_c, 0, 77, 0
4, 120120, Note_on_c, 0, 79, 88
4, 120178, Note_off_c, 0, 79, 0
4, 120180, Note_on_c, 0, 80, 88
4, 120238, Note_off_c, 0, 80, 0
4, 120240, Note_on_c, 0, 82, 88
4, 120298, Note_off_c, 0, 82, 0
4, 120300, Note_on_c, 0, 84, 88
4, 120358, Note_off_c, 0, 84, 0
4, 120360, Note_on_c, 0, 82, 88
4, 120418, Note_off_c, 0, 82, 0
4, 120420, Note_on_c, 0, 80, 88
4, 120478, Note_off_c, 0, 80, 0
4, 120480, Note_on_c, 0, 79, 88
4, 120538, Note_off_c, 0, 79, 0
4, 120540, Note_on_c, 0, 77, 88
4, 120598, Note_off_c, 0, 77, 0
4, 120600, Note_on_c, 0, 79, 88
4, 120658, Note_off_c, 0, 79, 0
4, 120660, Note_on_c, 0, 80, 88
4, 120718, Note_off_c, 0, 80, 0
4, 120720, Note_on_c, 0, 79, 88
4, 120778, Note_off_c, 0, 79, 0
4, 120780, Note_on_c, 0, 77, 88
4, 120838, Note_off_c, 0, 77, 0
4, 120840, Note_on_c, 0, 75, 88
4, 120898, Note_off_c, 0, 75, 0
4, 120900, Note_on_c, 0, 74, 88
4, 120958, Note_off_c, 0, 74, 0
4, 120960, Note_on_c, 0, 75, 88
4, 121738, Note_off_c, 0, 75, 0
4, 121740, Note_on_c, 0, 65, 88
4, 121798, Note_off_c, 0, 65, 0
4, 121800, Note_on_c, 0, 64, 88
4, 121858, Note_off_c, 0, 64, 0
4, 121860, Note_on_c, 0, 65, 88
4, 121918, Note_off_c, 0, 65, 0
4, 121920, Note_on_c, 0, 67, 88
4, 121978, Note_off_c, 0, 67, 0
4, 121980, Note_on_c, 0, 69, 88
4, 122038, Note_off_c, 0, 69, 0
4, 122040, Note_on_c, 0, 70, 88
4, 122098, Note_off_c, 0, 70, 0
4, 122100, Note_on_c, 0, 65, 88
4, 122158, Note_off_c, 0, 65, 0
4, 122160, Note_on_c, 0, 64, 88
4, 122218, Note_off_c, 0, 64, 0
4, 122220, Note_on_c, 0, 65, 88
4, 122278, Note_off_c, 0, 65, 0
4, 122280, Note_on_c, 0, 69, 88
4, 122338, Note_off_c, 0, 69, 0
4, 122340, Note_on_c, 0, 70, 88
4, 122398, Note_off_c, 0, 70, 0
4, 122400, Note_on_c, 0, 72, 88
4, 122458, Note_off_c, 0, 72, 0
4, 122460, Note_on_c, 0, 65, 88
4, 122518, Note_off_c, 0, 65, 0
4, 122520, Note_on_c, 0, 64, 88
4, 122578, Note_off_c, 0, 64, 0
4, 122580, Note_on_c, 0, 65, 88
4, 122638, Note_off_c, 0, 65, 0
4, 122640, Note_on_c, 0, 70, 88
4, 122698, Note_off_c, 0, 70, 0
4, 122700, Note_on_c, 0, 72, 88
4, 122758, Note_off_c, 0, 72, 0
4, 122760, Note_on_c, 0, 73, 88
4, 122818, Note_off_c, 0, 73, 0
4, 122820, Note_on_c, 0, 70, 88
4, 122878, Note_off_c, 0, 70, 0
4, 122880, Note_on_c, 0, 72, 88
4, 122938, Note_off_c, 0, 72, 0
4, 122940, Note_on_c, 0, 73, 88
4, 122998, Note_off_c, 0, 73, 0
4, 123000, Note_on_c, 0, 75, 88
4, 123058, Note_off_c, 0, 75, 0
4, 123060, Note_on_c, 0, 77, 88
4, 123118, Note_off_c, 0, 77, 0
4, 123120, Note_on_c, 0, 78, 88
4, 123178, Note_off_c, 0, 78, 0
4, 123180, Note_on_c, 0, 75, 88
4, 123238, Note_off_c, 0, 75, 0
4, 123240, Note_on_c, 0, 77, 88
4, 123298, Note_off_c, 0, 77, 0
4, 123300, Note_on_c, 0, 78, 88
4, 123358, Note_off_c, 0, 78, 0
4, 123360, Note_on_c, 0, 80, 88
4, 123418, Note_off_c, 0, 80, 0
4, 123420, Note_on_c, 0, 82, 88
4, 123478, Note_off_c, 0, 82, 0
4, 123480, Note_on_c, 0, 83, 88
4, 123538, Note_off_c, 0, 83, 0
4, 123540, Note_on_c, 0, 82, 88
4, 123598, Note_off_c, 0, 82, 0
4, 123600, Note_on_c, 0, 80, 88
4, 123658, Note_off_c, 0, 80, 0
4, 123660, Note_on_c, 0, 78, 88
4, 123718, Note_off_c, 0, 78, 0
4, 123720, Note_on_c, 0, 77, 88
4, 123778, Note_off_c, 0, 77, 0
4, 123780, Note_on_c, 0, 75, 88
4, 123838, Note_off_c, 0, 75, 0
4, 123840, Note_on_c, 0, 81, 88
4, 123898, Note_off_c, 0, 81, 0
4, 123900, Note_on_c, 0, 84, 88
4, 123958, Note_off_c, 0, 84, 0
4, 123960, Note_on_c, 0, 75, 88
4, 124018, Note_off_c, 0, 75, 0
4, 124020, Note_on_c, 0, 78, 88
4, 124078, Note_off_c, 0, 78, 0
4, 124080, Note_on_c, 0, 77, 88
4, 124138, Note_off_c, 0, 77, 0
4, 124140, Note_on_c, 0, 75, 88
4, 124198, Note_off_c, 0, 75, 0
4, 124200, Note_on_c, 0, 77, 88
4, 124258, Note_off_c, 0, 77, 0
4, 124260, Note_on_c, 0, 82, 88
4, 124318, Note_off_c, 0, 82, 0
4, 124320, Note_on_c, 0, 74, 88
4, 124378, Note_off_c, 0, 74, 0
4, 124380, Note_on_c, 0, 75, 88
4, 124438, Note_off_c, 0, 75, 0
4, 124440, Note_on_c, 0, 77, 88
4, 124498, Note_off_c, 0, 77, 0
4, 124500, Note_on_c, 0, 79, 88
4, 124558, Note_off_c, 0, 79, 0
4, 124560, Note_on_c, 0, 77, 88
4, 124618, Note_off_c, 0, 77, 0
4, 124620, Note_on_c, 0, 75, 88
4, 124678, Note_off_c, 0, 75, 0
4, 124680, Note_on_c, 0, 74, 88
4, 124738, Note_off_c, 0, 74, 0
4, 124740, Note_on_c, 0, 72, 88
4, 124798, Note_off_c, 0, 72, 0
4, 124800, Note_on_c, 0, 82, 88
4, 124858, Note_off_c, 0, 82, 0
4, 124860, Note_on_c, 0, 81, 88
4, 124918, Note_off_c, 0, 81, 0
4, 124920, Note_on_c, 0, 82, 88
4, 124978, Note_off_c, 0, 82, 0
4, 124980, Note_on_c, 0, 77, 88
4, 125038, Note_off_c, 0, 77, 0
4, 125040, Note_on_c, 0, 74, 88
4, 125098, Note_off_c, 0, 74, 0
4, 125100, Note_on_c, 0, 70, 88
4, 125275, Note_off_c, 0, 70, 0
4, 125275, End_track
5, 0, Start_track
5, 0, Title_t, "Track 2"
5, 0, Program_c, 1, 6
5, 47220, Note_on_c, 1, 70, 88
5, 47454, Note_off_c, 1, 70, 0
5, 56940, Note_on_c, 1, 72, 88
5, 56998, Note_off_c, 1, 72, 0
5, 57000, Note_on_c, 1, 70, 88
5, 57058, Note_off_c, 1, 70, 0
5, 57060, Note_on_c, 1, 69, 88
5, 57118, Note_off_c, 1, 69, 0
5, 57120, Note_on_c, 1, 67, 88
5, 57178, Note_off_c, 1, 67, 0
5, 57180, Note_on_c, 1, 66, 88
5, 57238, Note_off_c, 1, 66, 0
5, 57240, Note_on_c, 1, 67, 88
5, 57415, Note_off_c, 1, 67, 0
5, 75660, Note_on_c, 1, 77, 88
5, 75718, Note_off_c, 1, 77, 0
5, 75720, Note_on_c, 1, 75, 88
5, 75836, Note_off_c, 1, 75, 0
5, 75840, Note_on_c, 1, 72, 88
5, 75898, Note_off_c, 1, 72, 0
5, 75900, Note_on_c, 1, 74, 88
5, 76005, Note_off_c, 1, 74, 0
5, 76020, Note_on_c, 1, 74, 88
5, 76078, Note_off_c, 1, 74, 0
5, 76080, Note_on_c, 1, 72, 88
5, 76196, Note_off_c, 1, 72, 0
5, 76200, Note_on_c, 1, 69, 88
5, 76258, Note_off_c, 1, 69, 0
5, 76260, Note_on_c, 1, 70, 88
5, 76318, Note_off_c, 1, 70, 0
5, 76320, Note_on_c, 1, 67, 88
5, 76495, Note_off_c, 1, 67, 0
5, 76500, Note_on_c, 1, 65, 88
5, 76675, Note_off_c, 1, 65, 0
5, 76680, Note_on_c, 1, 63, 88
5, 76855, Note_off_c, 1, 63, 0
5, 76860, Note_on_c, 1, 61, 88
5, 77035, Note_off_c, 1, 61, 0
5, 77040, Note_on_c, 1, 60, 88
5, 77215, Note_off_c, 1, 60, 0
5, 86820, Note_on_c, 1, 70, 88
5, 87054, Note_off_c, 1, 70, 0
5, 96540, Note_on_c, 1, 72, 88
5, 96598, Note_off_c, 1, 72, 0
5, 96600, Note_on_c, 1, 70, 88
5, 96658, Note_off_c, 1, 70, 0
5, 96660, Note_on_c, 1, 69, 88
5, 96718, Note_off_c, 1, 69, 0
5, 96720, Note_on_c, 1, 67, 88
5, 96778, Note_off_c, 1, 67, 0
5, 96780, Note_on_c, 1, 66, 88
5, 96838, Note_off_c, 1, 66, 0
5, 96840, Note_on_c, 1, 67, 88
5, 97015, Note_off_c, 1, 67, 0
5, 115260, Note_on_c, 1, 77, 88
5, 115318, Note_off_c, 1, 77, 0
5, 115320, Note_on_c, 1, 75, 88
5, 115436, Note_off_c, 1, 75, 0
5, 115440, Note_on_c, 1, 72, 88
5, 115498, Note_off_c, 1, 72, 0
5, 115500, Note_on_c, 1, 74, 88
5, 115605, Note_off_c, 1, 74, 0
5, 115620, Note_on_c, 1, 74, 88
5, 115678, Note_off_c, 1, 74, 0
5, 115680, Note_on_c, 1, 72, 88
5, 115796, Note_off_c, 1, 72, 0
5, 115800, Note_on_c, 1, 69, 88
5, 115858, Note_off_c, 1, 69, 0
5, 115860, Note_on_c, 1, 70, 88
5, 115918, Note_off_c, 1, 70, 0
5, 115920, Note_on_c, 1, 67, 88
5, 116095, Note_off_c, 1, 67, 0
5, 116100, Note_on_c, 1, 65, 88
5, 116275, Note_off_c, 1, 65, 0
5, 116280, Note_on_c, 1, 63, 88
5, 116455, Note_off_c, 1, 63, 0
5, 116460, Note_on_c, 1, 61, 88
5, 116635, Note_off_c, 1, 61, 0
5, 116640, Note_on_c, 1, 60, 88
5, 116815, Note_off_c, 1, 60, 0
5, 116815, End_track
6, 0, Start_track
6, 0, Title_t, "Track 3"
6, 0, Program_c, 2, 6
6, 47280, Note_on_c, 2, 65, 88
6, 47455, Note_off_c, 2, 65, 0
6, 86880, Note_on_c, 2, 65, 88
6, 87055, Note_off_c, 2, 65, 0
6, 87055, End_track
7, 0, Start_track
7, 0, Title_t, "Track 4"
7, 0, Program_c, 3, 6
7, 420, Note_on_c, 3, 70, 88
7, 478, Note_off_c, 3, 70, 0
7, 480, Note_on_c, 3, 69, 88
7, 538, Note_off_c, 3, 69, 0
7, 540, Note_on_c, 3, 67, 88
7, 598, Note_off_c, 3, 67, 0
7, 600, Note_on_c, 3, 65, 88
7, 658, Note_off_c, 3, 65, 0
7, 660, Note_on_c, 3, 63, 88
7, 718, Note_off_c, 3, 63, 0
7, 720, Note_on_c, 3, 62, 88
7, 836, Note_off_c, 3, 62, 0
7, 840, Note_on_c, 3, 65, 88
7, 898, Note_off_c, 3, 65, 0
7, 900, Note_on_c, 3, 70, 88
7, 1016, Note_off_c, 3, 70, 0
7, 1020, Note_on_c, 3, 75, 88
7, 1065, Note_off_c, 3, 75, 0
7, 1080, Note_on_c, 3, 75, 88
7, 1314, Note_off_c, 3, 75, 0
7, 1320, Note_on_c, 3, 74, 88
7, 1378, Note_off_c, 3, 74, 0
7, 1380, Note_on_c, 3, 72, 88
7, 1438, Note_off_c, 3, 72, 0
7, 1440, Note_on_c, 3, 74, 88
7, 1615, Note_off_c, 3, 74, 0
7, 1620, Note_on_c, 3, 72, 88
7, 1795, Note_off_c, 3, 72, 0
7, 1800, Note_on_c, 3, 70, 88
7, 1858, Note_off_c, 3, 70, 0
7, 1860, Note_on_c, 3, 62, 88
7, 1918, Note_off_c, 3, 62, 0
7, 1920, Note_on_c, 3, 63, 88
7, 1978, Note_off_c, 3, 63, 0
7, 1980, Note_on_c, 3, 65, 88
7, 2038, Note_off_c, 3, 65, 0
7, 2040, Note_on_c, 3, 67, 88
7, 2098, Note_off_c, 3, 67, 0
7, 2100, Note_on_c, 3, 69, 88
7, 2158, Note_off_c, 3, 69, 0
7, 2160, Note_on_c, 3, 70, 88
7, 2572, Note_off_c, 3, 70, 0
7, 2580, Note_on_c, 3, 69, 88
7, 2638, Note_off_c, 3, 69, 0
7, 2640, Note_on_c, 3, 67, 88
7, 2698, Note_off_c, 3, 67, 0
7, 2700, Note_on_c, 3, 69, 88
7, 2938, Note_off_c, 3, 69, 0
7, 3300, Note_on_c, 3, 65, 88
7, 3358, Note_off_c, 3, 65, 0
7, 3360, Note_on_c, 3, 67, 88
7, 3418, Note_off_c, 3, 67, 0
7, 3420, Note_on_c, 3, 69, 88
7, 3478, Note_off_c, 3, 69, 0
7, 3480, Note_on_c, 3, 70, 88
7, 3538, Note_off_c, 3, 70, 0
7, 3540, Note_on_c, 3, 72, 88
7, 3598, Note_off_c, 3, 72, 0
7, 3600, Note_on_c, 3, 74, 88
7, 3716, Note_off_c, 3, 74, 0
7, 3720, Note_on_c, 3, 67, 88
7, 3778, Note_off_c, 3, 67, 0
7, 3780, Note_on_c, 3, 66, 88
7, 3896, Note_off_c, 3, 66, 0
7, 3900, Note_on_c, 3, 69, 88
7, 4016, Note_off_c, 3, 69, 0
7, 4020, Note_on_c, 3, 62, 88
7, 4078, Note_off_c, 3, 62, 0
7, 4080, Note_on_c, 3, 66, 88
7, 4138, Note_off_c, 3, 66, 0
7, 4140, Note_on_c, 3, 67, 88
7, 4554, Note_off_c, 3, 67, 0
7, 4560, Note_on_c, 3, 60, 88
7, 4618, Note_off_c, 3, 60, 0
7, 4620, Note_on_c, 3, 64, 88
7, 4678, Note_off_c, 3, 64, 0
7, 4680, Note_on_c, 3, 65, 88
7, 5571, Note_off_c, 3, 65, 0
7, 5580, Note_on_c, 3, 64, 88
7, 5755, Note_off_c, 3, 64, 0
7, 12300, Note_on_c, 3, 60, 88
7, 12358, Note_off_c, 3, 60, 0
7, 12360, Note_on_c, 3, 58, 88
7, 12418, Note_off_c, 3, 58, 0
7, 12420, Note_on_c, 3, 57, 88
7, 12478, Note_off_c, 3, 57, 0
7, 12480, Note_on_c, 3, 55, 88
7, 12538, Note_off_c, 3, 55, 0
7, 12540, Note_on_c, 3, 53, 88
7, 12598, Note_off_c, 3, 53, 0
7, 12600, Note_on_c, 3, 52, 88
7, 12716, Note_off_c, 3, 52, 0
7, 12720, Note_on_c, 3, 55, 88
7, 12778, Note_off_c, 3, 55, 0
7, 12780, Note_on_c, 3, 60, 88
7, 13135, Note_off_c, 3, 60, 0
7, 13140, Note_on_c, 3, 53, 88
7, 13256, Note_off_c, 3, 53, 0
7, 13260, Note_on_c, 3, 58, 88
7, 13318, Note_off_c, 3, 58, 0
7, 13320, Note_on_c, 3, 67, 88
7, 13855, Note_off_c, 3, 67, 0
7, 13860, Note_on_c, 3, 65, 88
7, 13976, Note_off_c, 3, 65, 0
7, 13980, Note_on_c, 3, 62, 88
7, 14038, Note_off_c, 3, 62, 0
7, 14040, Note_on_c, 3, 70, 88
7, 14393, Note_off_c, 3, 70, 0
7, 14400, Note_on_c, 3, 72, 88
7, 14516, Note_off_c, 3, 72, 0
7, 14820, Note_on_c, 3, 65, 88
7, 14878, Note_off_c, 3, 65, 0
7, 14880, Note_on_c, 3, 64, 88
7, 14938, Note_off_c, 3, 64, 0
7, 14940, Note_on_c, 3, 62, 88
7, 14998, Note_off_c, 3, 62, 0
7, 15000, Note_on_c, 3, 60, 88
7, 15058, Note_off_c, 3, 60, 0
7, 15060, Note_on_c, 3, 58, 88
7, 15118, Note_off_c, 3, 58, 0
7, 15120, Note_on_c, 3, 57, 88
7, 15236, Note_off_c, 3, 57, 0
7, 15300, Note_on_c, 3, 65, 88
7, 15534, Note_off_c, 3, 65, 0
7, 15540, Note_on_c, 3, 64, 88
7, 15598, Note_off_c, 3, 64, 0
7, 15600, Note_on_c, 3, 62, 88
7, 15658, Note_off_c, 3, 62, 0
7, 15660, Note_on_c, 3, 60, 88
7, 15718, Note_off_c, 3, 60, 0
7, 15720, Note_on_c, 3, 58, 88
7, 15778, Note_off_c, 3, 58, 0
7, 15780, Note_on_c, 3, 57, 88
7, 15838, Note_off_c, 3, 57, 0
7, 15840, Note_on_c, 3, 62, 88
7, 16252, Note_off_c, 3, 62, 0
7, 16260, Note_on_c, 3, 60, 88
7, 16318, Note_off_c, 3, 60, 0
7, 16320, Note_on_c, 3, 62, 88
7, 16378, Note_off_c, 3, 62, 0
7, 16380, Note_on_c, 3, 64, 88
7, 16438, Note_off_c, 3, 64, 0
7, 16440, Note_on_c, 3, 65, 88
7, 16498, Note_off_c, 3, 65, 0
7, 16500, Note_on_c, 3, 67, 88
7, 16558, Note_off_c, 3, 67, 0
7, 16560, Note_on_c, 3, 69, 88
7, 16676, Note_off_c, 3, 69, 0
7, 17340, Note_on_c, 3, 77, 88
7, 17398, Note_off_c, 3, 77, 0
7, 17400, Note_on_c, 3, 76, 88
7, 17458, Note_off_c, 3, 76, 0
7, 17460, Note_on_c, 3, 74, 88
7, 17518, Note_off_c, 3, 74, 0
7, 17520, Note_on_c, 3, 72, 88
7, 17578, Note_off_c, 3, 72, 0
7, 17580, Note_on_c, 3, 70, 88
7, 17638, Note_off_c, 3, 70, 0
7, 17640, Note_on_c, 3, 69, 88
7, 18058, Note_off_c, 3, 69, 0
7, 18060, Note_on_c, 3, 72, 88
7, 18118, Note_off_c, 3, 72, 0
7, 18120, Note_on_c, 3, 70, 88
7, 18178, Note_off_c, 3, 70, 0
7, 18180, Note_on_c, 3, 69, 88
7, 18238, Note_off_c, 3, 69, 0
7, 18240, Note_on_c, 3, 67, 88
7, 18298, Note_off_c, 3, 67, 0
7, 18300, Note_on_c, 3, 65, 88
7, 18358, Note_off_c, 3, 65, 0
7, 18360, Note_on_c, 3, 64, 88
7, 18713, Note_off_c, 3, 64, 0
7, 18840, Note_on_c, 3, 60, 88
7, 18898, Note_off_c, 3, 60, 0
7, 18900, Note_on_c, 3, 65, 88
7, 19075, Note_off_c, 3, 65, 0
7, 19200, Note_on_c, 3, 50, 88
7, 19258, Note_off_c, 3, 50, 0
7, 19260, Note_on_c, 3, 53, 88
7, 19376, Note_off_c, 3, 53, 0
7, 19380, Note_on_c, 3, 56, 88
7, 19438, Note_off_c, 3, 56, 0
7, 19440, Note_on_c, 3, 55, 88
7, 19734, Note_off_c, 3, 55, 0
7, 23460, Note_on_c, 3, 70, 88
7, 23518, Note_off_c, 3, 70, 0
7, 23520, Note_on_c, 3, 69, 88
7, 23578, Note_off_c, 3, 69, 0
7, 23580, Note_on_c, 3, 67, 88
7, 23638, Note_off_c, 3, 67, 0
7, 23640, Note_on_c, 3, 65, 88
7, 23698, Note_off_c, 3, 65, 0
7, 23700, Note_on_c, 3, 63, 88
7, 23758, Note_off_c, 3, 63, 0
7, 23760, Note_on_c, 3, 62, 88
7, 23876, Note_off_c, 3, 62, 0
7, 23880, Note_on_c, 3, 65, 88
7, 23938, Note_off_c, 3, 65, 0
7, 23940, Note_on_c, 3, 70, 88
7, 24056, Note_off_c, 3, 70, 0
7, 24060, Note_on_c, 3, 75, 88
7, 24105, Note_off_c, 3, 75, 0
7, 24120, Note_on_c, 3, 75, 88
7, 24354, Note_off_c, 3, 75, 0
7, 24360, Note_on_c, 3, 74, 88
7, 24418, Note_off_c, 3, 74, 0
7, 24420, Note_on_c, 3, 72, 88
7, 24478, Note_off_c, 3, 72, 0
7, 24480, Note_on_c, 3, 74, 88
7, 24655, Note_off_c, 3, 74, 0
7, 24660, Note_on_c, 3, 72, 88
7, 24835, Note_off_c, 3, 72, 0
7, 24840, Note_on_c, 3, 70, 88
7, 24898, Note_off_c, 3, 70, 0
7, 24900, Note_on_c, 3, 62, 88
7, 24958, Note_off_c, 3, 62, 0
7, 24960, Note_on_c, 3, 63, 88
7, 25018, Note_off_c, 3, 63, 0
7, 25020, Note_on_c, 3, 65, 88
7, 25078, Note_off_c, 3, 65, 0
7, 25080, Note_on_c, 3, 67, 88
7, 25138, Note_off_c, 3, 67, 0
7, 25140, Note_on_c, 3, 69, 88
7, 25198, Note_off_c, 3, 69, 0
7, 25200, Note_on_c, 3, 70, 88
7, 25612, Note_off_c, 3, 70, 0
7, 25620, Note_on_c, 3, 69, 88
7, 25678, Note_off_c, 3, 69, 0
7, 25680, Note_on_c, 3, 67, 88
7, 25738, Note_off_c, 3, 67, 0
7, 25740, Note_on_c, 3, 69, 88
7, 25978, Note_off_c, 3, 69, 0
7, 26340, Note_on_c, 3, 65, 88
7, 26398, Note_off_c, 3, 65, 0
7, 26400, Note_on_c, 3, 67, 88
7, 26458, Note_off_c, 3, 67, 0
7, 26460, Note_on_c, 3, 69, 88
7, 26518, Note_off_c, 3, 69, 0
7, 26520, Note_on_c, 3, 70, 88
7, 26578, Note_off_c, 3, 70, 0
7, 26580, Note_on_c, 3, 72, 88
7, 26638, Note_off_c, 3, 72, 0
7, 26640, Note_on_c, 3, 74, 88
7, 26756, Note_off_c, 3, 74, 0
7, 26760, Note_on_c, 3, 67, 88
7, 26818, Note_off_c, 3, 67, 0
7, 26820, Note_on_c, 3, 66, 88
7, 26936, Note_off_c, 3, 66, 0
7, 26940, Note_on_c, 3, 69, 88
7, 27056, Note_off_c, 3, 69, 0
7, 27060, Note_on_c, 3, 62, 88
7, 27118, Note_off_c, 3, 62, 0
7, 27120, Note_on_c, 3, 66, 88
7, 27178, Note_off_c, 3, 66, 0
7, 27180, Note_on_c, 3, 67, 88
7, 27594, Note_off_c, 3, 67, 0
7, 27600, Note_on_c, 3, 60, 88
7, 27658, Note_off_c, 3, 60, 0
7, 27660, Note_on_c, 3, 64, 88
7, 27718, Note_off_c, 3, 64, 0
7, 27720, Note_on_c, 3, 65, 88
7, 28611, Note_off_c, 3, 65, 0
7, 28620, Note_on_c, 3, 64, 88
7, 28795, Note_off_c, 3, 64, 0
7, 35340, Note_on_c, 3, 60, 88
7, 35398, Note_off_c, 3, 60, 0
7, 35400, Note_on_c, 3, 58, 88
7, 35458, Note_off_c, 3, 58, 0
7, 35460, Note_on_c, 3, 57, 88
7, 35518, Note_off_c, 3, 57, 0
7, 35520, Note_on_c, 3, 55, 88
7, 35578, Note_off_c, 3, 55, 0
7, 35580, Note_on_c, 3, 53, 88
7, 35638, Note_off_c, 3, 53, 0
7, 35640, Note_on_c, 3, 52, 88
7, 35756, Note_off_c, 3, 52, 0
7, 35760, Note_on_c, 3, 55, 88
7, 35818, Note_off_c, 3, 55, 0
7, 35820, Note_on_c, 3, 60, 88
7, 36175, Note_off_c, 3, 60, 0
7, 36180, Note_on_c, 3, 53, 88
7, 36296, Note_off_c, 3, 53, 0
7, 36300, Note_on_c, 3, 58, 88
7, 36358, Note_off_c, 3, 58, 0
7, 36360, Note_on_c, 3, 67, 88
7, 36895, Note_off_c, 3, 67, 0
7, 36900, Note_on_c, 3, 65, 88
7, 37016, Note_off_c, 3, 65, 0
7, 37020, Note_on_c, 3, 62, 88
7, 37078, Note_off_c, 3, 62, 0
7, 37080, Note_on_c, 3, 70, 88
7, 37433, Note_off_c, 3, 70, 0
7, 37440, Note_on_c, 3, 72, 88
7, 37556, Note_off_c, 3, 72, 0
7, 37860, Note_on_c, 3, 65, 88
7, 37918, Note_off_c, 3, 65, 0
7, 37920, Note_on_c, 3, 64, 88
7, 37978, Note_off_c, 3, 64, 0
7, 37980, Note_on_c, 3, 62, 88
7, 38038, Note_off_c, 3, 62, 0
7, 38040, Note_on_c, 3, 60, 88
7, 38098, Note_off_c, 3, 60, 0
7, 38100, Note_on_c, 3, 58, 88
7, 38158, Note_off_c, 3, 58, 0
7, 38160, Note_on_c, 3, 57, 88
7, 38276, Note_off_c, 3, 57, 0
7, 38340, Note_on_c, 3, 65, 88
7, 38574, Note_off_c, 3, 65, 0
7, 38580, Note_on_c, 3, 64, 88
7, 38638, Note_off_c, 3, 64, 0
7, 38640, Note_on_c, 3, 62, 88
7, 38698, Note_off_c, 3, 62, 0
7, 38700, Note_on_c, 3, 60, 88
7, 38758, Note_off_c, 3, 60, 0
7, 38760, Note_on_c, 3, 58, 88
7, 38818, Note_off_c, 3, 58, 0
7, 38820, Note_on_c, 3, 57, 88
7, 38878, Note_off_c, 3, 57, 0
7, 38880, Note_on_c, 3, 62, 88
7, 39292, Note_off_c, 3, 62, 0
7, 39300, Note_on_c, 3, 60, 88
7, 39358, Note_off_c, 3, 60, 0
7, 39360, Note_on_c, 3, 62, 88
7, 39418, Note_off_c, 3, 62, 0
7, 39420, Note_on_c, 3, 64, 88
7, 39478, Note_off_c, 3, 64, 0
7, 39480, Note_on_c, 3, 65, 88
7, 39538, Note_off_c, 3, 65, 0
7, 39540, Note_on_c, 3, 67, 88
7, 39598, Note_off_c, 3, 67, 0
7, 39600, Note_on_c, 3, 69, 88
7, 39716, Note_off_c, 3, 69, 0
7, 40380, Note_on_c, 3, 77, 88
7, 40438, Note_off_c, 3, 77, 0
7, 40440, Note_on_c, 3, 76, 88
7, 40498, Note_off_c, 3, 76, 0
7, 40500, Note_on_c, 3, 74, 88
7, 40558, Note_off_c, 3, 74, 0
7, 40560, Note_on_c, 3, 72, 88
7, 40618, Note_off_c, 3, 72, 0
7, 40620, Note_on_c, 3, 70, 88
7, 40678, Note_off_c, 3, 70, 0
7, 40680, Note_on_c, 3, 69, 88
7, 41098, Note_off_c, 3, 69, 0
7, 41100, Note_on_c, 3, 72, 88
7, 41158, Note_off_c, 3, 72, 0
7, 41160, Note_on_c, 3, 70, 88
7, 41218, Note_off_c, 3, 70, 0
7, 41220, Note_on_c, 3, 69, 88
7, 41278, Note_off_c, 3, 69, 0
7, 41280, Note_on_c, 3, 67, 88
7, 41338, Note_off_c, 3, 67, 0
7, 41340, Note_on_c, 3, 65, 88
7, 41398, Note_off_c, 3, 65, 0
7, 41400, Note_on_c, 3, 64, 88
7, 41753, Note_off_c, 3, 64, 0
7, 41880, Note_on_c, 3, 60, 88
7, 41938, Note_off_c, 3, 60, 0
7, 41940, Note_on_c, 3, 65, 88
7, 42115, Note_off_c, 3, 65, 0
7, 42240, Note_on_c, 3, 50, 88
7, 42298, Note_off_c, 3, 50, 0
7, 42300, Note_on_c, 3, 53, 88
7, 42416, Note_off_c, 3, 53, 0
7, 42420, Note_on_c, 3, 56, 88
7, 42478, Note_off_c, 3, 56, 0
7, 42480, Note_on_c, 3, 55, 88
7, 42774, Note_off_c, 3, 55, 0
7, 47160, Note_on_c, 3, 74, 88
7, 47218, Note_off_c, 3, 74, 0
7, 47220, Note_on_c, 3, 70, 88
7, 47278, Note_off_c, 3, 70, 0
7, 47280, Note_on_c, 3, 65, 88
7, 47338, Note_off_c, 3, 65, 0
7, 47340, Note_on_c, 3, 62, 88
7, 47578, Note_off_c, 3, 62, 0
7, 53580, Note_on_c, 3, 63, 88
7, 53638, Note_off_c, 3, 63, 0
7, 53640, Note_on_c, 3, 62, 88
7, 54058, Note_off_c, 3, 62, 0
7, 54060, Note_on_c, 3, 74, 88
7, 54118, Note_off_c, 3, 74, 0
7, 54120, Note_on_c, 3, 72, 88
7, 54178, Note_off_c, 3, 72, 0
7, 54180, Note_on_c, 3, 70, 88
7, 54238, Note_off_c, 3, 70, 0
7, 54240, Note_on_c, 3, 69, 88
7, 54298, Note_off_c, 3, 69, 0
7, 54300, Note_on_c, 3, 67, 88
7, 54358, Note_off_c, 3, 67, 0
7, 54360, Note_on_c, 3, 65, 88
7, 54654, Note_off_c, 3, 65, 0
7, 55140, Note_on_c, 3, 67, 88
7, 55198, Note_off_c, 3, 67, 0
7, 55200, Note_on_c, 3, 65, 88
7, 55258, Note_off_c, 3, 65, 0
7, 55260, Note_on_c, 3, 63, 88
7, 55318, Note_off_c, 3, 63, 0
7, 55320, Note_on_c, 3, 62, 88
7, 55378, Note_off_c, 3, 62, 0
7, 55380, Note_on_c, 3, 60, 88
7, 55438, Note_off_c, 3, 60, 0
7, 55440, Note_on_c, 3, 58, 88
7, 55556, Note_off_c, 3, 58, 0
7, 55560, Note_on_c, 3, 62, 88
7, 55618, Note_off_c, 3, 62, 0
7, 55620, Note_on_c, 3, 67, 88
7, 55854, Note_off_c, 3, 67, 0
7, 55860, Note_on_c, 3, 65, 88
7, 55918, Note_off_c, 3, 65, 0
7, 55920, Note_on_c, 3, 63, 88
7, 55978, Note_off_c, 3, 63, 0
7, 55980, Note_on_c, 3, 62, 88
7, 56038, Note_off_c, 3, 62, 0
7, 56040, Note_on_c, 3, 60, 88
7, 56098, Note_off_c, 3, 60, 0
7, 56100, Note_on_c, 3, 58, 88
7, 56158, Note_off_c, 3, 58, 0
7, 56160, Note_on_c, 3, 63, 88
7, 56565, Note_off_c, 3, 63, 0
7, 56580, Note_on_c, 3, 63, 88
7, 56638, Note_off_c, 3, 63, 0
7, 56640, Note_on_c, 3, 62, 88
7, 56698, Note_off_c, 3, 62, 0
7, 56700, Note_on_c, 3, 60, 88
7, 56758, Note_off_c, 3, 60, 0
7, 56760, Note_on_c, 3, 58, 88
7, 56818, Note_off_c, 3, 58, 0
7, 56820, Note_on_c, 3, 57, 88
7, 56878, Note_off_c, 3, 57, 0
7, 56880, Note_on_c, 3, 55, 88
7, 56938, Note_off_c, 3, 55, 0
7, 56940, Note_on_c, 3, 54, 88
7, 56998, Note_off_c, 3, 54, 0
7, 57000, Note_on_c, 3, 55, 88
7, 57058, Note_off_c, 3, 55, 0
7, 57060, Note_on_c, 3, 57, 88
7, 57118, Note_off_c, 3, 57, 0
7, 57120, Note_on_c, 3, 58, 88
7, 57178, Note_off_c, 3, 58, 0
7, 57180, Note_on_c, 3, 60, 88
7, 57296, Note_off_c, 3, 60, 0
7, 57300, Note_on_c, 3, 58, 88
7, 57358, Note_off_c, 3, 58, 0
7, 57360, Note_on_c, 3, 57, 88
7, 57418, Note_off_c, 3, 57, 0
7, 57420, Note_on_c, 3, 58, 88
7, 57536, Note_off_c, 3, 58, 0
7, 58020, Note_on_c, 3, 70, 88
7, 58078, Note_off_c, 3, 70, 0
7, 58080, Note_on_c, 3, 68, 88
7, 58138, Note_off_c, 3, 68, 0
7, 58140, Note_on_c, 3, 67, 88
7, 58198, Note_off_c, 3, 67, 0
7, 58200, Note_on_c, 3, 65, 88
7, 58258, Note_off_c, 3, 65, 0
7, 58260, Note_on_c, 3, 63, 88
7, 58318, Note_off_c, 3, 63, 0
7, 58320, Note_on_c, 3, 62, 88
7, 58436, Note_off_c, 3, 62, 0
7, 58440, Note_on_c, 3, 65, 88
7, 58498, Note_off_c, 3, 65, 0
7, 58500, Note_on_c, 3, 70, 88
7, 58794, Note_off_c, 3, 70, 0
7, 58800, Note_on_c, 3, 69, 88
7, 58975, Note_off_c, 3, 69, 0
7, 58980, Note_on_c, 3, 68, 88
7, 59038, Note_off_c, 3, 68, 0
7, 59040, Note_on_c, 3, 67, 88
7, 59274, Note_off_c, 3, 67, 0
7, 59280, Note_on_c, 3, 72, 88
7, 59338, Note_off_c, 3, 72, 0
7, 59340, Note_on_c, 3, 69, 88
7, 59398, Note_off_c, 3, 69, 0
7, 59400, Note_on_c, 3, 65, 88
7, 59634, Note_off_c, 3, 65, 0
7, 59640, Note_on_c, 3, 67, 88
7, 59698, Note_off_c, 3, 67, 0
7, 59700, Note_on_c, 3, 69, 88
7, 59758, Note_off_c, 3, 69, 0
7, 59760, Note_on_c, 3, 70, 88
7, 59994, Note_off_c, 3, 70, 0
7, 60000, Note_on_c, 3, 72, 88
7, 60058, Note_off_c, 3, 72, 0
7, 60060, Note_on_c, 3, 74, 88
7, 60105, Note_off_c, 3, 74, 0
7, 60120, Note_on_c, 3, 74, 88
7, 60178, Note_off_c, 3, 74, 0
7, 60180, Note_on_c, 3, 72, 88
7, 60238, Note_off_c, 3, 72, 0
7, 60240, Note_on_c, 3, 74, 88
7, 60298, Note_off_c, 3, 74, 0
7, 60300, Note_on_c, 3, 72, 88
7, 60475, Note_off_c, 3, 72, 0
7, 63660, Note_on_c, 3, 68, 88
7, 64255, Note_off_c, 3, 68, 0
7, 64260, Note_on_c, 3, 67, 88
7, 64435, Note_off_c, 3, 67, 0
7, 64440, Note_on_c, 3, 65, 88
7, 64845, Note_off_c, 3, 65, 0
7, 64860, Note_on_c, 3, 65, 88
7, 64918, Note_off_c, 3, 65, 0
7, 64920, Note_on_c, 3, 69, 88
7, 64978, Note_off_c, 3, 69, 0
7, 64980, Note_on_c, 3, 70, 88
7, 65038, Note_off_c, 3, 70, 0
7, 65040, Note_on_c, 3, 72, 88
7, 65098, Note_off_c, 3, 72, 0
7, 65100, Note_on_c, 3, 69, 88
7, 65158, Note_off_c, 3, 69, 0
7, 65160, Note_on_c, 3, 70, 88
7, 65695, Note_off_c, 3, 70, 0
7, 65700, Note_on_c, 3, 68, 88
7, 65875, Note_off_c, 3, 68, 0
7, 65880, Note_on_c, 3, 67, 88
7, 66285, Note_off_c, 3, 67, 0
7, 66300, Note_on_c, 3, 67, 88
7, 66358, Note_off_c, 3, 67, 0
7, 66360, Note_on_c, 3, 71, 88
7, 66418, Note_off_c, 3, 71, 0
7, 66420, Note_on_c, 3, 72, 88
7, 66478, Note_off_c, 3, 72, 0
7, 66480, Note_on_c, 3, 74, 88
7, 66538, Note_off_c, 3, 74, 0
7, 66540, Note_on_c, 3, 71, 88
7, 66598, Note_off_c, 3, 71, 0
7, 66600, Note_on_c, 3, 72, 88
7, 67018, Note_off_c, 3, 72, 0
7, 67020, Note_on_c, 3, 70, 88
7, 67078, Note_off_c, 3, 70, 0
7, 67080, Note_on_c, 3, 69, 88
7, 67138, Note_off_c, 3, 69, 0
7, 67140, Note_on_c, 3, 67, 88
7, 67198, Note_off_c, 3, 67, 0
7, 67200, Note_on_c, 3, 69, 88
7, 67258, Note_off_c, 3, 69, 0
7, 67260, Note_on_c, 3, 66, 88
7, 67318, Note_off_c, 3, 66, 0
7, 67320, Note_on_c, 3, 67, 88
7, 67738, Note_off_c, 3, 67, 0
7, 67740, Note_on_c, 3, 69, 88
7, 67798, Note_off_c, 3, 69, 0
7, 67800, Note_on_c, 3, 67, 88
7, 67858, Note_off_c, 3, 67, 0
7, 67860, Note_on_c, 3, 65, 88
7, 67918, Note_off_c, 3, 65, 0
7, 67920, Note_on_c, 3, 66, 88
7, 67978, Note_off_c, 3, 66, 0
7, 67980, Note_on_c, 3, 63, 88
7, 68038, Note_off_c, 3, 63, 0
7, 68040, Note_on_c, 3, 65, 88
7, 68575, Note_off_c, 3, 65, 0
7, 68580, Note_on_c, 3, 64, 88
7, 68755, Note_off_c, 3, 64, 0
7, 68760, Note_on_c, 3, 65, 88
7, 69054, Note_off_c, 3, 65, 0
7, 69540, Note_on_c, 3, 53, 88
7, 69598, Note_off_c, 3, 53, 0
7, 69600, Note_on_c, 3, 55, 88
7, 69658, Note_off_c, 3, 55, 0
7, 69660, Note_on_c, 3, 57, 88
7, 69718, Note_off_c, 3, 57, 0
7, 69720, Note_on_c, 3, 58, 88
7, 69778, Note_off_c, 3, 58, 0
7, 69780, Note_on_c, 3, 60, 88
7, 69838, Note_off_c, 3, 60, 0
7, 69840, Note_on_c, 3, 62, 88
7, 70252, Note_off_c, 3, 62, 0
7, 70260, Note_on_c, 3, 69, 88
7, 70318, Note_off_c, 3, 69, 0
7, 70320, Note_on_c, 3, 67, 88
7, 70378, Note_off_c, 3, 67, 0
7, 70380, Note_on_c, 3, 65, 88
7, 70438, Note_off_c, 3, 65, 0
7, 70440, Note_on_c, 3, 63, 88
7, 70498, Note_off_c, 3, 63, 0
7, 70500, Note_on_c, 3, 62, 88
7, 70558, Note_off_c, 3, 62, 0
7, 70560, Note_on_c, 3, 63, 88
7, 70676, Note_off_c, 3, 63, 0
7, 70980, Note_on_c, 3, 63, 88
7, 71038, Note_off_c, 3, 63, 0
7, 71040, Note_on_c, 3, 65, 88
7, 71098, Note_off_c, 3, 65, 0
7, 71100, Note_on_c, 3, 67, 88
7, 71158, Note_off_c, 3, 67, 0
7, 71160, Note_on_c, 3, 69, 88
7, 71218, Note_off_c, 3, 69, 0
7, 71220, Note_on_c, 3, 70, 88
7, 71278, Note_off_c, 3, 70, 0
7, 71280, Note_on_c, 3, 72, 88
7, 71396, Note_off_c, 3, 72, 0
7, 71400, Note_on_c, 3, 65, 88
7, 71458, Note_off_c, 3, 65, 0
7, 71460, Note_on_c, 3, 64, 88
7, 71576, Note_off_c, 3, 64, 0
7, 71580, Note_on_c, 3, 70, 88
7, 71638, Note_off_c, 3, 70, 0
7, 71640, Note_on_c, 3, 69, 88
7, 71698, Note_off_c, 3, 69, 0
7, 71700, Note_on_c, 3, 70, 88
7, 71758, Note_off_c, 3, 70, 0
7, 71760, Note_on_c, 3, 69, 88
7, 71818, Note_off_c, 3, 69, 0
7, 71820, Note_on_c, 3, 67, 88
7, 71878, Note_off_c, 3, 67, 0
7, 71880, Note_on_c, 3, 65, 88
7, 71938, Note_off_c, 3, 65, 0
7, 71940, Note_on_c, 3, 63, 88
7, 71998, Note_off_c, 3, 63, 0
7, 72000, Note_on_c, 3, 65, 88
7, 72175, Note_off_c, 3, 65, 0
7, 72180, Note_on_c, 3, 63, 88
7, 72296, Note_off_c, 3, 63, 0
7, 72420, Note_on_c, 3, 62, 88
7, 72478, Note_off_c, 3, 62, 0
7, 72480, Note_on_c, 3, 67, 88
7, 72596, Note_off_c, 3, 67, 0
7, 72600, Note_on_c, 3, 66, 88
7, 72658, Note_off_c, 3, 66, 0
7, 72660, Note_on_c, 3, 72, 88
7, 72718, Note_off_c, 3, 72, 0
7, 72720, Note_on_c, 3, 70, 88
7, 72895, Note_off_c, 3, 70, 0
7, 72900, Note_on_c, 3, 71, 88
7, 73075, Note_off_c, 3, 71, 0
7, 73080, Note_on_c, 3, 72, 88
7, 73196, Note_off_c, 3, 72, 0
7, 73200, Note_on_c, 3, 69, 88
7, 73258, Note_off_c, 3, 69, 0
7, 73260, Note_on_c, 3, 71, 88
7, 73376, Note_off_c, 3, 71, 0
7, 73380, Note_on_c, 3, 74, 88
7, 73438, Note_off_c, 3, 74, 0
7, 73440, Note_on_c, 3, 67, 88
7, 73615, Note_off_c, 3, 67, 0
7, 73620, Note_on_c, 3, 73, 88
7, 73795, Note_off_c, 3, 73, 0
7, 73800, Note_on_c, 3, 72, 88
7, 73975, Note_off_c, 3, 72, 0
7, 73980, Note_on_c, 3, 70, 88
7, 74276, Note_off_c, 3, 70, 0
7, 74280, Note_on_c, 3, 69, 88
7, 74338, Note_off_c, 3, 69, 0
7, 74340, Note_on_c, 3, 67, 88
7, 74456, Note_off_c, 3, 67, 0
7, 74460, Note_on_c, 3, 72, 88
7, 74518, Note_off_c, 3, 72, 0
7, 74520, Note_on_c, 3, 65, 88
7, 74996, Note_off_c, 3, 65, 0
7, 75000, Note_on_c, 3, 67, 88
7, 75058, Note_off_c, 3, 67, 0
7, 75060, Note_on_c, 3, 66, 88
7, 75176, Note_off_c, 3, 66, 0
7, 75180, Note_on_c, 3, 72, 88
7, 75238, Note_off_c, 3, 72, 0
7, 75240, Note_on_c, 3, 70, 88
7, 75775, Note_off_c, 3, 70, 0
7, 75780, Note_on_c, 3, 68, 88
7, 75955, Note_off_c, 3, 68, 0
7, 75960, Note_on_c, 3, 67, 88
7, 76135, Note_off_c, 3, 67, 0
7, 76140, Note_on_c, 3, 65, 88
7, 76315, Note_off_c, 3, 65, 0
7, 76320, Note_on_c, 3, 63, 88
7, 76495, Note_off_c, 3, 63, 0
7, 76500, Note_on_c, 3, 61, 88
7, 76675, Note_off_c, 3, 61, 0
7, 76680, Note_on_c, 3, 60, 88
7, 76855, Note_off_c, 3, 60, 0
7, 76860, Note_on_c, 3, 58, 88
7, 77035, Note_off_c, 3, 58, 0
7, 77040, Note_on_c, 3, 57, 88
7, 77215, Note_off_c, 3, 57, 0
7, 81540, Note_on_c, 3, 74, 88
7, 81715, Note_off_c, 3, 74, 0
7, 81720, Note_on_c, 3, 72, 88
7, 81895, Note_off_c, 3, 72, 0
7, 81900, Note_on_c, 3, 70, 88
7, 82075, Note_off_c, 3, 70, 0
7, 82080, Note_on_c, 3, 69, 88
7, 82196, Note_off_c, 3, 69, 0
7, 86760, Note_on_c, 3, 74, 88
7, 86818, Note_off_c, 3, 74, 0
7, 86820, Note_on_c, 3, 70, 88
7, 86878, Note_off_c, 3, 70, 0
7, 86880, Note_on_c, 3, 65, 88
7, 86938, Note_off_c, 3, 65, 0
7, 86940, Note_on_c, 3, 62, 88
7, 87178, Note_off_c, 3, 62, 0
7, 93180, Note_on_c, 3, 63, 88
7, 93238, Note_off_c, 3, 63, 0
7, 93240, Note_on_c, 3, 62, 88
7, 93658, Note_off_c, 3, 62, 0
7, 93660, Note_on_c, 3, 74, 88
7, 93718, Note_off_c, 3, 74, 0
7, 93720, Note_on_c, 3, 72, 88
7, 93778, Note_off_c, 3, 72, 0
7, 93780, Note_on_c, 3, 70, 88
7, 93838, Note_off_c, 3, 70, 0
7, 93840, Note_on_c, 3, 69, 88
7, 93898, Note_off_c, 3, 69, 0
7, 93900, Note_on_c, 3, 67, 88
7, 93958, Note_off_c, 3, 67, 0
7, 93960, Note_on_c, 3, 65, 88
7, 94254, Note_off_c, 3, 65, 0
7, 94740, Note_on_c, 3, 67, 88
7, 94798, Note_off_c, 3, 67, 0
7, 94800, Note_on_c, 3, 65, 88
7, 94858, Note_off_c, 3, 65, 0
7, 94860, Note_on_c, 3, 63, 88
7, 94918, Note_off_c, 3, 63, 0
7, 94920, Note_on_c, 3, 62, 88
7, 94978, Note_off_c, 3, 62, 0
7, 94980, Note_on_c, 3, 60, 88
7, 95038, Note_off_c, 3, 60, 0
7, 95040, Note_on_c, 3, 58, 88
7, 95156, Note_off_c, 3, 58, 0
7, 95160, Note_on_c, 3, 62, 88
7, 95218, Note_off_c, 3, 62, 0
7, 95220, Note_on_c, 3, 67, 88
7, 95454, Note_off_c, 3, 67, 0
7, 95460, Note_on_c, 3, 65, 88
7, 95518, Note_off_c, 3, 65, 0
7, 95520, Note_on_c, 3, 63, 88
7, 95578, Note_off_c, 3, 63, 0
7, 95580, Note_on_c, 3, 62, 88
7, 95638, Note_off_c, 3, 62, 0
7, 95640, Note_on_c, 3, 60, 88
7, 95698, Note_off_c, 3, 60, 0
7, 95700, Note_on_c, 3, 58, 88
7, 95758, Note_off_c, 3, 58, 0
7, 95760, Note_on_c, 3, 63, 88
7, 96165, Note_off_c, 3, 63, 0
7, 96180, Note_on_c, 3, 63, 88
7, 96238, Note_off_c, 3, 63, 0
7, 96240, Note_on_c, 3, 62, 88
7, 96298, Note_off_c, 3, 62, 0
7, 96300, Note_on_c, 3, 60, 88
7, 96358, Note_off_c, 3, 60, 0
7, 96360, Note_on_c, 3, 58, 88
7, 96418, Note_off_c, 3, 58, 0
7, 96420, Note_on_c, 3, 57, 88
7, 96478, Note_off_c, 3, 57, 0
7, 96480, Note_on_c, 3, 55, 88
7, 96538, Note_off_c, 3, 55, 0
7, 96540, Note_on_c, 3, 54, 88
7, 96598, Note_off_c, 3, 54, 0
7, 96600, Note_on_c, 3, 55, 88
7, 96658, Note_off_c, 3, 55, 0
7, 96660, Note_on_c, 3, 57, 88
7, 96718, Note_off_c, 3, 57, 0
7, 96720, Note_on_c, 3, 58, 88
7, 96778, Note_off_c, 3, 58, 0
7, 96780, Note_on_c, 3, 60, 88
7, 96896, Note_off_c, 3, 60, 0
7, 96900, Note_on_c, 3, 58, 88
7, 96958, Note_off_c, 3, 58, 0
7, 96960, Note_on_c, 3, 57, 88
7, 97018, Note_off_c, 3, 57, 0
7, 97020, Note_on_c, 3, 58, 88
7, 97136, Note_off_c, 3, 58, 0
7, 97620, Note_on_c, 3, 70, 88
7, 97678, Note_off_c, 3, 70, 0
7, 97680, Note_on_c, 3, 68, 88
7, 97738, Note_off_c, 3, 68, 0
7, 97740, Note_on_c, 3, 67, 88
7, 97798, Note_off_c, 3, 67, 0
7, 97800, Note_on_c, 3, 65, 88
7, 97858, Note_off_c, 3, 65, 0
7, 97860, Note_on_c, 3, 63, 88
7, 97918, Note_off_c, 3, 63, 0
7, 97920, Note_on_c, 3, 62, 88
7, 98036, Note_off_c, 3, 62, 0
7, 98040, Note_on_c, 3, 65, 88
7, 98098, Note_off_c, 3, 65, 0
7, 98100, Note_on_c, 3, 70, 88
7, 98394, Note_off_c, 3, 70, 0
7, 98400, Note_on_c, 3, 69, 88
7, 98575, Note_off_c, 3, 69, 0
7, 98580, Note_on_c, 3, 68, 88
7, 98638, Note_off_c, 3, 68, 0
7, 98640, Note_on_c, 3, 67, 88
7, 98874, Note_off_c, 3, 67, 0
7, 98880, Note_on_c, 3, 72, 88
7, 98938, Note_off_c, 3, 72, 0
7, 98940, Note_on_c, 3, 69, 88
7, 98998, Note_off_c, 3, 69, 0
7, 99000, Note_on_c, 3, 65, 88
7, 99234, Note_off_c, 3, 65, 0
7, 99240, Note_on_c, 3, 67, 88
7, 99298, Note_off_c, 3, 67, 0
7, 99300, Note_on_c, 3, 69, 88
7, 99358, Note_off_c, 3, 69, 0
7, 99360, Note_on_c, 3, 70, 88
7, 99594, Note_off_c, 3, 70, 0
7, 99600, Note_on_c, 3, 72, 88
7, 99658, Note_off_c, 3, 72, 0
7, 99660, Note_on_c, 3, 74, 88
7, 99705, Note_off_c, 3, 74, 0
7, 99720, Note_on_c, 3, 74, 88
7, 99778, Note_off_c, 3, 74, 0
7, 99780, Note_on_c, 3, 72, 88
7, 99838, Note_off_c, 3, 72, 0
7, 99840, Note_on_c, 3, 74, 88
7, 99898, Note_off_c, 3, 74, 0
7, 99900, Note_on_c, 3, 72, 88
7, 100075, Note_off_c, 3, 72, 0
7, 103260, Note_on_c, 3, 68, 88
7, 103855, Note_off_c, 3, 68, 0
7, 103860, Note_on_c, 3, 67, 88
7, 104035, Note_off_c, 3, 67, 0
7, 104040, Note_on_c, 3, 65, 88
7, 104445, Note_off_c, 3, 65, 0
7, 104460, Note_on_c, 3, 65, 88
7, 104518, Note_off_c, 3, 65, 0
7, 104520, Note_on_c, 3, 69, 88
7, 104578, Note_off_c, 3, 69, 0
7, 104580, Note_on_c, 3, 70, 88
7, 104638, Note_off_c, 3, 70, 0
7, 104640, Note_on_c, 3, 72, 88
7, 104698, Note_off_c, 3, 72, 0
7, 104700, Note_on_c, 3, 69, 88
7, 104758, Note_off_c, 3, 69, 0
7, 104760, Note_on_c, 3, 70, 88
7, 105295, Note_off_c, 3, 70, 0
7, 105300, Note_on_c, 3, 68, 88
7, 105475, Note_off_c, 3, 68, 0
7, 105480, Note_on_c, 3, 67, 88
7, 105885, Note_off_c, 3, 67, 0
7, 105900, Note_on_c, 3, 67, 88
7, 105958, Note_off_c, 3, 67, 0
7, 105960, Note_on_c, 3, 71, 88
7, 106018, Note_off_c, 3, 71, 0
7, 106020, Note_on_c, 3, 72, 88
7, 106078, Note_off_c, 3, 72, 0
7, 106080, Note_on_c, 3, 74, 88
7, 106138, Note_off_c, 3, 74, 0
7, 106140, Note_on_c, 3, 71, 88
7, 106198, Note_off_c, 3, 71, 0
7, 106200, Note_on_c, 3, 72, 88
7, 106618, Note_off_c, 3, 72, 0
7, 106620, Note_on_c, 3, 70, 88
7, 106678, Note_off_c, 3, 70, 0
7, 106680, Note_on_c, 3, 69, 88
7, 106738, Note_off_c, 3, 69, 0
7, 106740, Note_on_c, 3, 67, 88
7, 106798, Note_off_c, 3, 67, 0
7, 106800, Note_on_c, 3, 69, 88
7, 106858, Note_off_c, 3, 69, 0
7, 106860, Note_on_c, 3, 66, 88
7, 106918, Note_off_c, 3, 66, 0
7, 106920, Note_on_c, 3, 67, 88
7, 107338, Note_off_c, 3, 67, 0
7, 107340, Note_on_c, 3, 69, 88
7, 107398, Note_off_c, 3, 69, 0
7, 107400, Note_on_c, 3, 67, 88
7, 107458, Note_off_c, 3, 67, 0
7, 107460, Note_on_c, 3, 65, 88
7, 107518, Note_off_c, 3, 65, 0
7, 107520, Note_on_c, 3, 66, 88
7, 107578, Note_off_c, 3, 66, 0
7, 107580, Note_on_c, 3, 63, 88
7, 107638, Note_off_c, 3, 63, 0
7, 107640, Note_on_c, 3, 65, 88
7, 108175, Note_off_c, 3, 65, 0
7, 108180, Note_on_c, 3, 64, 88
7, 108355, Note_off_c, 3, 64, 0
7, 108360, Note_on_c, 3, 65, 88
7, 108654, Note_off_c, 3, 65, 0
7, 109140, Note_on_c, 3, 53, 88
7, 109198, Note_off_c, 3, 53, 0
7, 109200, Note_on_c, 3, 55, 88
7, 109258, Note_off_c, 3, 55, 0
7, 109260, Note_on_c, 3, 57, 88
7, 109318, Note_off_c, 3, 57, 0
7, 109320, Note_on_c, 3, 58, 88
7, 109378, Note_off_c, 3, 58, 0
7, 109380, Note_on_c, 3, 60, 88
7, 109438, Note_off_c, 3, 60, 0
7, 109440, Note_on_c, 3, 62, 88
7, 109852, Note_off_c, 3, 62, 0
7, 109860, Note_on_c, 3, 69, 88
7, 109918, Note_off_c, 3, 69, 0
7, 109920, Note_on_c, 3, 67, 88
7, 109978, Note_off_c, 3, 67, 0
7, 109980, Note_on_c, 3, 65, 88
7, 110038, Note_off_c, 3, 65, 0
7, 110040, Note_on_c, 3, 63, 88
7, 110098, Note_off_c, 3, 63, 0
7, 110100, Note_on_c, 3, 62, 88
7, 110158, Note_off_c, 3, 62, 0
7, 110160, Note_on_c, 3, 63, 88
7, 110276, Note_off_c, 3, 63, 0
7, 110580, Note_on_c, 3, 63, 88
7, 110638, Note_off_c, 3, 63, 0
7, 110640, Note_on_c, 3, 65, 88
7, 110698, Note_off_c, 3, 65, 0
7, 110700, Note_on_c, 3, 67, 88
7, 110758, Note_off_c, 3, 67, 0
7, 110760, Note_on_c, 3, 69, 88
7, 110818, Note_off_c, 3, 69, 0
7, 110820, Note_on_c, 3, 70, 88
7, 110878, Note_off_c, 3, 70, 0
7, 110880, Note_on_c, 3, 72, 88
7, 110996, Note_off_c, 3, 72, 0
7, 111000, Note_on_c, 3, 65, 88
7, 111058, Note_off_c, 3, 65, 0
7, 111060, Note_on_c, 3, 64, 88
7, 111176, Note_off_c, 3, 64, 0
7, 111180, Note_on_c, 3, 70, 88
7, 111238, Note_off_c, 3, 70, 0
7, 111240, Note_on_c, 3, 69, 88
7, 111298, Note_off_c, 3, 69, 0
7, 111300, Note_on_c, 3, 70, 88
7, 111358, Note_off_c, 3, 70, 0
7, 111360, Note_on_c, 3, 69, 88
7, 111418, Note_off_c, 3, 69, 0
7, 111420, Note_on_c, 3, 67, 88
7, 111478, Note_off_c, 3, 67, 0
7, 111480, Note_on_c, 3, 65, 88
7, 111538, Note_off_c, 3, 65, 0
7, 111540, Note_on_c, 3, 63, 88
7, 111598, Note_off_c, 3, 63, 0
7, 111600, Note_on_c, 3, 65, 88
7, 111775, Note_off_c, 3, 65, 0
7, 111780, Note_on_c, 3, 63, 88
7, 111896, Note_off_c, 3, 63, 0
7, 112020, Note_on_c, 3, 62, 88
7, 112078, Note_off_c, 3, 62, 0
7, 112080, Note_on_c, 3, 67, 88
7, 112196, Note_off_c, 3, 67, 0
7, 112200, Note_on_c, 3, 66, 88
7, 112258, Note_off_c, 3, 66, 0
7, 112260, Note_on_c, 3, 72, 88
7, 112318, Note_off_c, 3, 72, 0
7, 112320, Note_on_c, 3, 70, 88
7, 112495, Note_off_c, 3, 70, 0
7, 112500, Note_on_c, 3, 71, 88
7, 112675, Note_off_c, 3, 71, 0
7, 112680, Note_on_c, 3, 72, 88
7, 112796, Note_off_c, 3, 72, 0
7, 112800, Note_on_c, 3, 69, 88
7, 112858, Note_off_c, 3, 69, 0
7, 112860, Note_on_c, 3, 71, 88
7, 112976, Note_off_c, 3, 71, 0
7, 112980, Note_on_c, 3, 74, 88
7, 113038, Note_off_c, 3, 74, 0
7, 113040, Note_on_c, 3, 67, 88
7, 113215, Note_off_c, 3, 67, 0
7, 113220, Note_on_c, 3, 73, 88
7, 113395, Note_off_c, 3, 73, 0
7, 113400, Note_on_c, 3, 72, 88
7, 113575, Note_off_c, 3, 72, 0
7, 113580, Note_on_c, 3, 70, 88
7, 113876, Note_off_c, 3, 70, 0
7, 113880, Note_on_c, 3, 69, 88
7, 113938, Note_off_c, 3, 69, 0
7, 113940, Note_on_c, 3, 67, 88
7, 114056, Note_off_c, 3, 67, 0
7, 114060, Note_on_c, 3, 72, 88
7, 114118, Note_off_c, 3, 72, 0
7, 114120, Note_on_c, 3, 65, 88
7, 114596, Note_off_c, 3, 65, 0
7, 114600, Note_on_c, 3, 67, 88
7, 114658, Note_off_c, 3, 67, 0
7, 114660, Note_on_c, 3, 66, 88
7, 114776, Note_off_c, 3, 66, 0
7, 114780, Note_on_c, 3, 72, 88
7, 114838, Note_off_c, 3, 72, 0
7, 114840, Note_on_c, 3, 70, 88
7, 115375, Note_off_c, 3, 70, 0
7, 115380, Note_on_c, 3, 68, 88
7, 115555, Note_off_c, 3, 68, 0
7, 115560, Note_on_c, 3, 67, 88
7, 115735, Note_off_c, 3, 67, 0
7, 115740, Note_on_c, 3, 65, 88
7, 115915, Note_off_c, 3, 65, 0
7, 115920, Note_on_c, 3, 63, 88
7, 116095, Note_off_c, 3, 63, 0
7, 116100, Note_on_c, 3, 61, 88
7, 116275, Note_off_c, 3, 61, 0
7, 116280, Note_on_c, 3, 60, 88
7, 116455, Note_off_c, 3, 60, 0
7, 116460, Note_on_c, 3, 58, 88
7, 116635, Note_off_c, 3, 58, 0
7, 116640, Note_on_c, 3, 57, 88
7, 116815, Note_off_c, 3, 57, 0
7, 121140, Note_on_c, 3, 74, 88
7, 121315, Note_off_c, 3, 74, 0
7, 121320, Note_on_c, 3, 72, 88
7, 121495, Note_off_c, 3, 72, 0
7, 121500, Note_on_c, 3, 70, 88
7, 121675, Note_off_c, 3, 70, 0
7, 121680, Note_on_c, 3, 69, 88
7, 121796, Note_off_c, 3, 69, 0
7, 121796, End_track
8, 0, Start_track
8, 0, Title_t, "Track 5"
8, 0, Program_c, 4, 6
8, 0, Note_on_c, 4, 58, 88
8, 765, Note_off_c, 4, 58, 0
8, 780, Note_on_c, 4, 58, 88
8, 838, Note_off_c, 4, 58, 0
8, 840, Note_on_c, 4, 56, 88
8, 898, Note_off_c, 4, 56, 0
8, 900, Note_on_c, 4, 55, 88
8, 958, Note_off_c, 4, 55, 0
8, 960, Note_on_c, 4, 53, 88
8, 1018, Note_off_c, 4, 53, 0
8, 1020, Note_on_c, 4, 51, 88
8, 1078, Note_off_c, 4, 51, 0
8, 1080, Note_on_c, 4, 58, 88
8, 1138, Note_off_c, 4, 58, 0
8, 1140, Note_on_c, 4, 57, 88
8, 1198, Note_off_c, 4, 57, 0
8, 1200, Note_on_c, 4, 58, 88
8, 1258, Note_off_c, 4, 58, 0
8, 1260, Note_on_c, 4, 46, 88
8, 1498, Note_off_c, 4, 46, 0
8, 1500, Note_on_c, 4, 50, 88
8, 1558, Note_off_c, 4, 50, 0
8, 1560, Note_on_c, 4, 51, 88
8, 1618, Note_off_c, 4, 51, 0
8, 1620, Note_on_c, 4, 53, 88
8, 1678, Note_off_c, 4, 53, 0
8, 1680, Note_on_c, 4, 55, 88
8, 1738, Note_off_c, 4, 55, 0
8, 1740, Note_on_c, 4, 57, 88
8, 1798, Note_off_c, 4, 57, 0
8, 1800, Note_on_c, 4, 58, 88
8, 1975, Note_off_c, 4, 58, 0
8, 1980, Note_on_c, 4, 57, 88
8, 2155, Note_off_c, 4, 57, 0
8, 2160, Note_on_c, 4, 55, 88
8, 2276, Note_off_c, 4, 55, 0
8, 2280, Note_on_c, 4, 53, 88
8, 2338, Note_off_c, 4, 53, 0
8, 2340, Note_on_c, 4, 55, 88
8, 2456, Note_off_c, 4, 55, 0
8, 2460, Note_on_c, 4, 51, 88
8, 2518, Note_off_c, 4, 51, 0
8, 2520, Note_on_c, 4, 53, 88
8, 2754, Note_off_c, 4, 53, 0
8, 2760, Note_on_c, 4, 57, 88
8, 2818, Note_off_c, 4, 57, 0
8, 2820, Note_on_c, 4, 60, 88
8, 2878, Note_off_c, 4, 60, 0
8, 2880, Note_on_c, 4, 65, 88
8, 3055, Note_off_c, 4, 65, 0
8, 3060, Note_on_c, 4, 63, 88
8, 3235, Note_off_c, 4, 63, 0
8, 3240, Note_on_c, 4, 62, 88
8, 3415, Note_off_c, 4, 62, 0
8, 3420, Note_on_c, 4, 60, 88
8, 3595, Note_off_c, 4, 60, 0
8, 3600, Note_on_c, 4, 58, 88
8, 3658, Note_off_c, 4, 58, 0
8, 3660, Note_on_c, 4, 46, 88
8, 3718, Note_off_c, 4, 46, 0
8, 3720, Note_on_c, 4, 48, 88
8, 3778, Note_off_c, 4, 48, 0
8, 3780, Note_on_c, 4, 50, 88
8, 3838, Note_off_c, 4, 50, 0
8, 3840, Note_on_c, 4, 52, 88
8, 3898, Note_off_c, 4, 52, 0
8, 3900, Note_on_c, 4, 54, 88
8, 3958, Note_off_c, 4, 54, 0
8, 3960, Note_on_c, 4, 55, 88
8, 4194, Note_off_c, 4, 55, 0
8, 4200, Note_on_c, 4, 58, 88
8, 4258, Note_off_c, 4, 58, 0
8, 4260, Note_on_c, 4, 50, 88
8, 4318, Note_off_c, 4, 50, 0
8, 4320, Note_on_c, 4, 52, 88
8, 4495, Note_off_c, 4, 52, 0
8, 4500, Note_on_c, 4, 53, 88
8, 4725, Note_off_c, 4, 53, 0
8, 4740, Note_on_c, 4, 53, 88
8, 4798, Note_off_c, 4, 53, 0
8, 4800, Note_on_c, 4, 52, 88
8, 4858, Note_off_c, 4, 52, 0
8, 4860, Note_on_c, 4, 50, 88
8, 4918, Note_off_c, 4, 50, 0
8, 4920, Note_on_c, 4, 48, 88
8, 4978, Note_off_c, 4, 48, 0
8, 4980, Note_on_c, 4, 46, 88
8, 5038, Note_off_c, 4, 46, 0
8, 5040, Note_on_c, 4, 45, 88
8, 5215, Note_off_c, 4, 45, 0
8, 5220, Note_on_c, 4, 46, 88
8, 5395, Note_off_c, 4, 46, 0
8, 5400, Note_on_c, 4, 48, 88
8, 5634, Note_off_c, 4, 48, 0
8, 5640, Note_on_c, 4, 52, 88
8, 5698, Note_off_c, 4, 52, 0
8, 5700, Note_on_c, 4, 55, 88
8, 5758, Note_off_c, 4, 55, 0
8, 5760, Note_on_c, 4, 58, 88
8, 5818, Note_off_c, 4, 58, 0
8, 5820, Note_on_c, 4, 57, 88
8, 5878, Note_off_c, 4, 57, 0
8, 5880, Note_on_c, 4, 58, 88
8, 5938, Note_off_c, 4, 58, 0
8, 5940, Note_on_c, 4, 48, 88
8, 5998, Note_off_c, 4, 48, 0
8, 6000, Note_on_c, 4, 52, 88
8, 6058, Note_off_c, 4, 52, 0
8, 6060, Note_on_c, 4, 55, 88
8, 6118, Note_off_c, 4, 55, 0
8, 6120, Note_on_c, 4, 57, 88
8, 6178, Note_off_c, 4, 57, 0
8, 6180, Note_on_c, 4, 55, 88
8, 6238, Note_off_c, 4, 55, 0
8, 6240, Note_on_c, 4, 57, 88
8, 6298, Note_off_c, 4, 57, 0
8, 6300, Note_on_c, 4, 48, 88
8, 6358, Note_off_c, 4, 48, 0
8, 6360, Note_on_c, 4, 52, 88
8, 6418, Note_off_c, 4, 52, 0
8, 6420, Note_on_c, 4, 53, 88
8, 6478, Note_off_c, 4, 53, 0
8, 6480, Note_on_c, 4, 55, 88
8, 6538, Note_off_c, 4, 55, 0
8, 6540, Note_on_c, 4, 53, 88
8, 6598, Note_off_c, 4, 53, 0
8, 6600, Note_on_c, 4, 55, 88
8, 6658, Note_off_c, 4, 55, 0
8, 6660, Note_on_c, 4, 48, 88
8, 6718, Note_off_c, 4, 48, 0
8, 6720, Note_on_c, 4, 50, 88
8, 6778, Note_off_c, 4, 50, 0
8, 6780, Note_on_c, 4, 52, 88
8, 6838, Note_off_c, 4, 52, 0
8, 6840, Note_on_c, 4, 53, 88
8, 7074, Note_off_c, 4, 53, 0
8, 7080, Note_on_c, 4, 48, 88
8, 7138, Note_off_c, 4, 48, 0
8, 7140, Note_on_c, 4, 45, 88
8, 7198, Note_off_c, 4, 45, 0
8, 7200, Note_on_c, 4, 41, 88
8, 7258, Note_off_c, 4, 41, 0
8, 7260, Note_on_c, 4, 45, 88
8, 7318, Note_off_c, 4, 45, 0
8, 7320, Note_on_c, 4, 48, 88
8, 7378, Note_off_c, 4, 48, 0
8, 7380, Note_on_c, 4, 51, 88
8, 7438, Note_off_c, 4, 51, 0
8, 7440, Note_on_c, 4, 50, 88
8, 7498, Note_off_c, 4, 50, 0
8, 7500, Note_on_c, 4, 51, 88
8, 7558, Note_off_c, 4, 51, 0
8, 7560, Note_on_c, 4, 41, 88
8, 7618, Note_off_c, 4, 41, 0
8, 7620, Note_on_c, 4, 45, 88
8, 7678, Note_off_c, 4, 45, 0
8, 7680, Note_on_c, 4, 46, 88
8, 7738, Note_off_c, 4, 46, 0
8, 7740, Note_on_c, 4, 50, 88
8, 7798, Note_off_c, 4, 50, 0
8, 7800, Note_on_c, 4, 48, 88
8, 7858, Note_off_c, 4, 48, 0
8, 7860, Note_on_c, 4, 50, 88
8, 7918, Note_off_c, 4, 50, 0
8, 7920, Note_on_c, 4, 39, 88
8, 7978, Note_off_c, 4, 39, 0
8, 7980, Note_on_c, 4, 43, 88
8, 8038, Note_off_c, 4, 43, 0
8, 8040, Note_on_c, 4, 45, 88
8, 8098, Note_off_c, 4, 45, 0
8, 8100, Note_on_c, 4, 48, 88
8, 8158, Note_off_c, 4, 48, 0
8, 8160, Note_on_c, 4, 46, 88
8, 8218, Note_off_c, 4, 46, 0
8, 8220, Note_on_c, 4, 48, 88
8, 8278, Note_off_c, 4, 48, 0
8, 8280, Note_on_c, 4, 39, 88
8, 8338, Note_off_c, 4, 39, 0
8, 8340, Note_on_c, 4, 38, 88
8, 8398, Note_off_c, 4, 38, 0
8, 8400, Note_on_c, 4, 41, 88
8, 8458, Note_off_c, 4, 41, 0
8, 8460, Note_on_c, 4, 46, 88
8, 8518, Note_off_c, 4, 46, 0
8, 8520, Note_on_c, 4, 50, 88
8, 8578, Note_off_c, 4, 50, 0
8, 8580, Note_on_c, 4, 53, 88
8, 8638, Note_off_c, 4, 53, 0
8, 8640, Note_on_c, 4, 58, 88
8, 8815, Note_off_c, 4, 58, 0
8, 8820, Note_on_c, 4, 65, 88
8, 8995, Note_off_c, 4, 65, 0
8, 9000, Note_on_c, 4, 70, 88
8, 9175, Note_off_c, 4, 70, 0
8, 9180, Note_on_c, 4, 51, 88
8, 9355, Note_off_c, 4, 51, 0
8, 9360, Note_on_c, 4, 45, 88
8, 9535, Note_off_c, 4, 45, 0
8, 9540, Note_on_c, 4, 63, 88
8, 9715, Note_off_c, 4, 63, 0
8, 9720, Note_on_c, 4, 69, 88
8, 9895, Note_off_c, 4, 69, 0
8, 9900, Note_on_c, 4, 50, 88
8, 10075, Note_off_c, 4, 50, 0
8, 10080, Note_on_c, 4, 43, 88
8, 10255, Note_off_c, 4, 43, 0
8, 10260, Note_on_c, 4, 53, 88
8, 10318, Note_off_c, 4, 53, 0
8, 10320, Note_on_c, 4, 58, 88
8, 10378, Note_off_c, 4, 58, 0
8, 10380, Note_on_c, 4, 55, 88
8, 10438, Note_off_c, 4, 55, 0
8, 10440, Note_on_c, 4, 52, 88
8, 10498, Note_off_c, 4, 52, 0
8, 10500, Note_on_c, 4, 58, 88
8, 10558, Note_off_c, 4, 58, 0
8, 10560, Note_on_c, 4, 55, 88
8, 10618, Note_off_c, 4, 55, 0
8, 10620, Note_on_c, 4, 52, 88
8, 10678, Note_off_c, 4, 52, 0
8, 10680, Note_on_c, 4, 58, 88
8, 10738, Note_off_c, 4, 58, 0
8, 10740, Note_on_c, 4, 67, 88
8, 10798, Note_off_c, 4, 67, 0
8, 10800, Note_on_c, 4, 56, 88
8, 10858, Note_off_c, 4, 56, 0
8, 10860, Note_on_c, 4, 55, 88
8, 10918, Note_off_c, 4, 55, 0
8, 10920, Note_on_c, 4, 56, 88
8, 10978, Note_off_c, 4, 56, 0
8, 10980, Note_on_c, 4, 51, 88
8, 11038, Note_off_c, 4, 51, 0
8, 11040, Note_on_c, 4, 56, 88
8, 11098, Note_off_c, 4, 56, 0
8, 11100, Note_on_c, 4, 53, 88
8, 11158, Note_off_c, 4, 53, 0
8, 11160, Note_on_c, 4, 50, 88
8, 11218, Note_off_c, 4, 50, 0
8, 11220, Note_on_c, 4, 56, 88
8, 11278, Note_off_c, 4, 56, 0
8, 11280, Note_on_c, 4, 53, 88
8, 11338, Note_off_c, 4, 53, 0
8, 11340, Note_on_c, 4, 50, 88
8, 11398, Note_off_c, 4, 50, 0
8, 11400, Note_on_c, 4, 56, 88
8, 11458, Note_off_c, 4, 56, 0
8, 11460, Note_on_c, 4, 65, 88
8, 11518, Note_off_c, 4, 65, 0
8, 11520, Note_on_c, 4, 55, 88
8, 11578, Note_off_c, 4, 55, 0
8, 11580, Note_on_c, 4, 65, 88
8, 11638, Note_off_c, 4, 65, 0
8, 11640, Note_on_c, 4, 63, 88
8, 11698, Note_off_c, 4, 63, 0
8, 11700, Note_on_c, 4, 62, 88
8, 11758, Note_off_c, 4, 62, 0
8, 11760, Note_on_c, 4, 60, 88
8, 11818, Note_off_c, 4, 60, 0
8, 11820, Note_on_c, 4, 58, 88
8, 11878, Note_off_c, 4, 58, 0
8, 11880, Note_on_c, 4, 57, 88
8, 12055, Note_off_c, 4, 57, 0
8, 12060, Note_on_c, 4, 53, 88
8, 12235, Note_off_c, 4, 53, 0
8, 12240, Note_on_c, 4, 46, 88
8, 12593, Note_off_c, 4, 46, 0
8, 12600, Note_on_c, 4, 48, 88
8, 12953, Note_off_c, 4, 48, 0
8, 12960, Note_on_c, 4, 50, 88
8, 13313, Note_off_c, 4, 50, 0
8, 13320, Note_on_c, 4, 52, 88
8, 13378, Note_off_c, 4, 52, 0
8, 13380, Note_on_c, 4, 55, 88
8, 13438, Note_off_c, 4, 55, 0
8, 13440, Note_on_c, 4, 53, 88
8, 13498, Note_off_c, 4, 53, 0
8, 13500, Note_on_c, 4, 52, 88
8, 13558, Note_off_c, 4, 52, 0
8, 13560, Note_on_c, 4, 50, 88
8, 13618, Note_off_c, 4, 50, 0
8, 13620, Note_on_c, 4, 48, 88
8, 13678, Note_off_c, 4, 48, 0
8, 13680, Note_on_c, 4, 53, 88
8, 14033, Note_off_c, 4, 53, 0
8, 14040, Note_on_c, 4, 55, 88
8, 14098, Note_off_c, 4, 55, 0
8, 14100, Note_on_c, 4, 58, 88
8, 14158, Note_off_c, 4, 58, 0
8, 14160, Note_on_c, 4, 57, 88
8, 14218, Note_off_c, 4, 57, 0
8, 14220, Note_on_c, 4, 55, 88
8, 14278, Note_off_c, 4, 55, 0
8, 14280, Note_on_c, 4, 53, 88
8, 14338, Note_off_c, 4, 53, 0
8, 14340, Note_on_c, 4, 52, 88
8, 14398, Note_off_c, 4, 52, 0
8, 14400, Note_on_c, 4, 57, 88
8, 14458, Note_off_c, 4, 57, 0
8, 14460, Note_on_c, 4, 55, 88
8, 14518, Note_off_c, 4, 55, 0
8, 14520, Note_on_c, 4, 57, 88
8, 14578, Note_off_c, 4, 57, 0
8, 14580, Note_on_c, 4, 58, 88
8, 14638, Note_off_c, 4, 58, 0
8, 14640, Note_on_c, 4, 57, 88
8, 14698, Note_off_c, 4, 57, 0
8, 14700, Note_on_c, 4, 55, 88
8, 14758, Note_off_c, 4, 55, 0
8, 14760, Note_on_c, 4, 53, 88
8, 15165, Note_off_c, 4, 53, 0
8, 15180, Note_on_c, 4, 53, 88
8, 15238, Note_off_c, 4, 53, 0
8, 15240, Note_on_c, 4, 51, 88
8, 15298, Note_off_c, 4, 51, 0
8, 15300, Note_on_c, 4, 50, 88
8, 15358, Note_off_c, 4, 50, 0
8, 15360, Note_on_c, 4, 48, 88
8, 15418, Note_off_c, 4, 48, 0
8, 15420, Note_on_c, 4, 46, 88
8, 15478, Note_off_c, 4, 46, 0
8, 15480, Note_on_c, 4, 48, 88
8, 15596, Note_off_c, 4, 48, 0
8, 15900, Note_on_c, 4, 50, 88
8, 15958, Note_off_c, 4, 50, 0
8, 15960, Note_on_c, 4, 48, 88
8, 16018, Note_off_c, 4, 48, 0
8, 16020, Note_on_c, 4, 46, 88
8, 16078, Note_off_c, 4, 46, 0
8, 16080, Note_on_c, 4, 45, 88
8, 16138, Note_off_c, 4, 45, 0
8, 16140, Note_on_c, 4, 43, 88
8, 16198, Note_off_c, 4, 43, 0
8, 16200, Note_on_c, 4, 48, 88
8, 16316, Note_off_c, 4, 48, 0
8, 16320, Note_on_c, 4, 46, 88
8, 16378, Note_off_c, 4, 46, 0
8, 16380, Note_on_c, 4, 45, 88
8, 16496, Note_off_c, 4, 45, 0
8, 16500, Note_on_c, 4, 43, 88
8, 16558, Note_off_c, 4, 43, 0
8, 16560, Note_on_c, 4, 41, 88
8, 16676, Note_off_c, 4, 41, 0
8, 16680, Note_on_c, 4, 51, 88
8, 16738, Note_off_c, 4, 51, 0
8, 16740, Note_on_c, 4, 50, 88
8, 16856, Note_off_c, 4, 50, 0
8, 16860, Note_on_c, 4, 48, 88
8, 16918, Note_off_c, 4, 48, 0
8, 16920, Note_on_c, 4, 46, 88
8, 17036, Note_off_c, 4, 46, 0
8, 17040, Note_on_c, 4, 57, 88
8, 17098, Note_off_c, 4, 57, 0
8, 17100, Note_on_c, 4, 55, 88
8, 17216, Note_off_c, 4, 55, 0
8, 17220, Note_on_c, 4, 53, 88
8, 17278, Note_off_c, 4, 53, 0
8, 17280, Note_on_c, 4, 52, 88
8, 17396, Note_off_c, 4, 52, 0
8, 17400, Note_on_c, 4, 55, 88
8, 17458, Note_off_c, 4, 55, 0
8, 17460, Note_on_c, 4, 52, 88
8, 17576, Note_off_c, 4, 52, 0
8, 17580, Note_on_c, 4, 48, 88
8, 17638, Note_off_c, 4, 48, 0
8, 17640, Note_on_c, 4, 53, 88
8, 17698, Note_off_c, 4, 53, 0
8, 17700, Note_on_c, 4, 67, 88
8, 17758, Note_off_c, 4, 67, 0
8, 17760, Note_on_c, 4, 65, 88
8, 17818, Note_off_c, 4, 65, 0
8, 17820, Note_on_c, 4, 63, 88
8, 17878, Note_off_c, 4, 63, 0
8, 17880, Note_on_c, 4, 62, 88
8, 17938, Note_off_c, 4, 62, 0
8, 17940, Note_on_c, 4, 60, 88
8, 17998, Note_off_c, 4, 60, 0
8, 18000, Note_on_c, 4, 58, 88
8, 18175, Note_off_c, 4, 58, 0
8, 18180, Note_on_c, 4, 60, 88
8, 18202, Note_off_c, 4, 60, 0
8, 18203, Note_on_c, 4, 59, 88
8, 18224, Note_off_c, 4, 59, 0
8, 18225, Note_on_c, 4, 60, 88
8, 18247, Note_off_c, 4, 60, 0
8, 18248, Note_on_c, 4, 59, 88
8, 18269, Note_off_c, 4, 59, 0
8, 18270, Note_on_c, 4, 60, 88
8, 18292, Note_off_c, 4, 60, 0
8, 18293, Note_on_c, 4, 59, 88
8, 18314, Note_off_c, 4, 59, 0
8, 18315, Note_on_c, 4, 57, 88
8, 18337, Note_off_c, 4, 57, 0
8, 18338, Note_on_c, 4, 59, 88
8, 18359, Note_off_c, 4, 59, 0
8, 18360, Note_on_c, 4, 60, 88
8, 18418, Note_off_c, 4, 60, 0
8, 18420, Note_on_c, 4, 62, 88
8, 18478, Note_off_c, 4, 62, 0
8, 18480, Note_on_c, 4, 60, 88
8, 18538, Note_off_c, 4, 60, 0
8, 18540, Note_on_c, 4, 58, 88
8, 18598, Note_off_c, 4, 58, 0
8, 18600, Note_on_c, 4, 57, 88
8, 18658, Note_off_c, 4, 57, 0
8, 18660, Note_on_c, 4, 55, 88
8, 18718, Note_off_c, 4, 55, 0
8, 18720, Note_on_c, 4, 53, 88
8, 18778, Note_off_c, 4, 53, 0
8, 18780, Note_on_c, 4, 55, 88
8, 18838, Note_off_c, 4, 55, 0
8, 18840, Note_on_c, 4, 53, 88
8, 18898, Note_off_c, 4, 53, 0
8, 18900, Note_on_c, 4, 51, 88
8, 18958, Note_off_c, 4, 51, 0
8, 18960, Note_on_c, 4, 50, 88
8, 19018, Note_off_c, 4, 50, 0
8, 19020, Note_on_c, 4, 48, 88
8, 19078, Note_off_c, 4, 48, 0
8, 19080, Note_on_c, 4, 47, 88
8, 19433, Note_off_c, 4, 47, 0
8, 19440, Note_on_c, 4, 48, 88
8, 19734, Note_off_c, 4, 48, 0
8, 19740, Note_on_c, 4, 58, 88
8, 19798, Note_off_c, 4, 58, 0
8, 19800, Note_on_c, 4, 56, 88
8, 19916, Note_off_c, 4, 56, 0
8, 19920, Note_on_c, 4, 55, 88
8, 19978, Note_off_c, 4, 55, 0
8, 19980, Note_on_c, 4, 56, 88
8, 20038, Note_off_c, 4, 56, 0
8, 20040, Note_on_c, 4, 60, 88
8, 20098, Note_off_c, 4, 60, 0
8, 20100, Note_on_c, 4, 53, 88
8, 20158, Note_off_c, 4, 53, 0
8, 20160, Note_on_c, 4, 52, 88
8, 20276, Note_off_c, 4, 52, 0
8, 20280, Note_on_c, 4, 50, 88
8, 20338, Note_off_c, 4, 50, 0
8, 20340, Note_on_c, 4, 52, 88
8, 20398, Note_off_c, 4, 52, 0
8, 20400, Note_on_c, 4, 55, 88
8, 20458, Note_off_c, 4, 55, 0
8, 20460, Note_on_c, 4, 48, 88
8, 20518, Note_off_c, 4, 48, 0
8, 20520, Note_on_c, 4, 53, 88
8, 20578, Note_off_c, 4, 53, 0
8, 20580, Note_on_c, 4, 56, 88
8, 20638, Note_off_c, 4, 56, 0
8, 20640, Note_on_c, 4, 51, 88
8, 20698, Note_off_c, 4, 51, 0
8, 20700, Note_on_c, 4, 49, 88
8, 20758, Note_off_c, 4, 49, 0
8, 20760, Note_on_c, 4, 53, 88
8, 20818, Note_off_c, 4, 53, 0
8, 20820, Note_on_c, 4, 48, 88
8, 20878, Note_off_c, 4, 48, 0
8, 20880, Note_on_c, 4, 46, 88
8, 20938, Note_off_c, 4, 46, 0
8, 20940, Note_on_c, 4, 49, 88
8, 20998, Note_off_c, 4, 49, 0
8, 21000, Note_on_c, 4, 53, 88
8, 21058, Note_off_c, 4, 53, 0
8, 21060, Note_on_c, 4, 58, 88
8, 21354, Note_off_c, 4, 58, 0
8, 21360, Note_on_c, 4, 46, 88
8, 21418, Note_off_c, 4, 46, 0
8, 21420, Note_on_c, 4, 58, 88
8, 21536, Note_off_c, 4, 58, 0
8, 21540, Note_on_c, 4, 59, 88
8, 21598, Note_off_c, 4, 59, 0
8, 21600, Note_on_c, 4, 60, 88
8, 21658, Note_off_c, 4, 60, 0
8, 21660, Note_on_c, 4, 48, 88
8, 21718, Note_off_c, 4, 48, 0
8, 21720, Note_on_c, 4, 50, 88
8, 21778, Note_off_c, 4, 50, 0
8, 21780, Note_on_c, 4, 52, 88
8, 21838, Note_off_c, 4, 52, 0
8, 21840, Note_on_c, 4, 53, 88
8, 21898, Note_off_c, 4, 53, 0
8, 21900, Note_on_c, 4, 55, 88
8, 21958, Note_off_c, 4, 55, 0
8, 21960, Note_on_c, 4, 57, 88
8, 22018, Note_off_c, 4, 57, 0
8, 22020, Note_on_c, 4, 58, 88
8, 22078, Note_off_c, 4, 58, 0
8, 22080, Note_on_c, 4, 60, 88
8, 22138, Note_off_c, 4, 60, 0
8, 22140, Note_on_c, 4, 62, 88
8, 22198, Note_off_c, 4, 62, 0
8, 22200, Note_on_c, 4, 60, 88
8, 22258, Note_off_c, 4, 60, 0
8, 22260, Note_on_c, 4, 58, 88
8, 22318, Note_off_c, 4, 58, 0
8, 22320, Note_on_c, 4, 57, 88
8, 22378, Note_off_c, 4, 57, 0
8, 22380, Note_on_c, 4, 55, 88
8, 22438, Note_off_c, 4, 55, 0
8, 22440, Note_on_c, 4, 53, 88
8, 22498, Note_off_c, 4, 53, 0
8, 22500, Note_on_c, 4, 60, 88
8, 22616, Note_off_c, 4, 60, 0
8, 22620, Note_on_c, 4, 48, 88
8, 22678, Note_off_c, 4, 48, 0
8, 22680, Note_on_c, 4, 41, 88
8, 22738, Note_off_c, 4, 41, 0
8, 22740, Note_on_c, 4, 45, 88
8, 22798, Note_off_c, 4, 45, 0
8, 22800, Note_on_c, 4, 48, 88
8, 22858, Note_off_c, 4, 48, 0
8, 22860, Note_on_c, 4, 53, 88
8, 23035, Note_off_c, 4, 53, 0
8, 23040, Note_on_c, 4, 58, 88
8, 23805, Note_off_c, 4, 58, 0
8, 23820, Note_on_c, 4, 58, 88
8, 23878, Note_off_c, 4, 58, 0
8, 23880, Note_on_c, 4, 56, 88
8, 23938, Note_off_c, 4, 56, 0
8, 23940, Note_on_c, 4, 55, 88
8, 23998, Note_off_c, 4, 55, 0
8, 24000, Note_on_c, 4, 53, 88
8, 24058, Note_off_c, 4, 53, 0
8, 24060, Note_on_c, 4, 51, 88
8, 24118, Note_off_c, 4, 51, 0
8, 24120, Note_on_c, 4, 58, 88
8, 24178, Note_off_c, 4, 58, 0
8, 24180, Note_on_c, 4, 57, 88
8, 24238, Note_off_c, 4, 57, 0
8, 24240, Note_on_c, 4, 58, 88
8, 24298, Note_off_c, 4, 58, 0
8, 24300, Note_on_c, 4, 46, 88
8, 24538, Note_off_c, 4, 46, 0
8, 24540, Note_on_c, 4, 50, 88
8, 24598, Note_off_c, 4, 50, 0
8, 24600, Note_on_c, 4, 51, 88
8, 24658, Note_off_c, 4, 51, 0
8, 24660, Note_on_c, 4, 53, 88
8, 24718, Note_off_c, 4, 53, 0
8, 24720, Note_on_c, 4, 55, 88
8, 24778, Note_off_c, 4, 55, 0
8, 24780, Note_on_c, 4, 57, 88
8, 24838, Note_off_c, 4, 57, 0
8, 24840, Note_on_c, 4, 58, 88
8, 25015, Note_off_c, 4, 58, 0
8, 25020, Note_on_c, 4, 57, 88
8, 25195, Note_off_c, 4, 57, 0
8, 25200, Note_on_c, 4, 55, 88
8, 25316, Note_off_c, 4, 55, 0
8, 25320, Note_on_c, 4, 53, 88
8, 25378, Note_off_c, 4, 53, 0
8, 25380, Note_on_c, 4, 55, 88
8, 25496, Note_off_c, 4, 55, 0
8, 25500, Note_on_c, 4, 51, 88
8, 25558, Note_off_c, 4, 51, 0
8, 25560, Note_on_c, 4, 53, 88
8, 25794, Note_off_c, 4, 53, 0
8, 25800, Note_on_c, 4, 57, 88
8, 25858, Note_off_c, 4, 57, 0
8, 25860, Note_on_c, 4, 60, 88
8, 25918, Note_off_c, 4, 60, 0
8, 25920, Note_on_c, 4, 65, 88
8, 26095, Note_off_c, 4, 65, 0
8, 26100, Note_on_c, 4, 63, 88
8, 26275, Note_off_c, 4, 63, 0
8, 26280, Note_on_c, 4, 62, 88
8, 26455, Note_off_c, 4, 62, 0
8, 26460, Note_on_c, 4, 60, 88
8, 26635, Note_off_c, 4, 60, 0
8, 26640, Note_on_c, 4, 58, 88
8, 26698, Note_off_c, 4, 58, 0
8, 26700, Note_on_c, 4, 46, 88
8, 26758, Note_off_c, 4, 46, 0
8, 26760, Note_on_c, 4, 48, 88
8, 26818, Note_off_c, 4, 48, 0
8, 26820, Note_on_c, 4, 50, 88
8, 26878, Note_off_c, 4, 50, 0
8, 26880, Note_on_c, 4, 52, 88
8, 26938, Note_off_c, 4, 52, 0
8, 26940, Note_on_c, 4, 54, 88
8, 26998, Note_off_c, 4, 54, 0
8, 27000, Note_on_c, 4, 55, 88
8, 27234, Note_off_c, 4, 55, 0
8, 27240, Note_on_c, 4, 58, 88
8, 27298, Note_off_c, 4, 58, 0
8, 27300, Note_on_c, 4, 50, 88
8, 27358, Note_off_c, 4, 50, 0
8, 27360, Note_on_c, 4, 52, 88
8, 27535, Note_off_c, 4, 52, 0
8, 27540, Note_on_c, 4, 53, 88
8, 27765, Note_off_c, 4, 53, 0
8, 27780, Note_on_c, 4, 53, 88
8, 27838, Note_off_c, 4, 53, 0
8, 27840, Note_on_c, 4, 52, 88
8, 27898, Note_off_c, 4, 52, 0
8, 27900, Note_on_c, 4, 50, 88
8, 27958, Note_off_c, 4, 50, 0
8, 27960, Note_on_c, 4, 48, 88
8, 28018, Note_off_c, 4, 48, 0
8, 28020, Note_on_c, 4, 46, 88
8, 28078, Note_off_c, 4, 46, 0
8, 28080, Note_on_c, 4, 45, 88
8, 28255, Note_off_c, 4, 45, 0
8, 28260, Note_on_c, 4, 46, 88
8, 28435, Note_off_c, 4, 46, 0
8, 28440, Note_on_c, 4, 48, 88
8, 28674, Note_off_c, 4, 48, 0
8, 28680, Note_on_c, 4, 52, 88
8, 28738, Note_off_c, 4, 52, 0
8, 28740, Note_on_c, 4, 55, 88
8, 28798, Note_off_c, 4, 55, 0
8, 28800, Note_on_c, 4, 58, 88
8, 28858, Note_off_c, 4, 58, 0
8, 28860, Note_on_c, 4, 57, 88
8, 28918, Note_off_c, 4, 57, 0
8, 28920, Note_on_c, 4, 58, 88
8, 28978, Note_off_c, 4, 58, 0
8, 28980, Note_on_c, 4, 48, 88
8, 29038, Note_off_c, 4, 48, 0
8, 29040, Note_on_c, 4, 52, 88
8, 29098, Note_off_c, 4, 52, 0
8, 29100, Note_on_c, 4, 55, 88
8, 29158, Note_off_c, 4, 55, 0
8, 29160, Note_on_c, 4, 57, 88
8, 29218, Note_off_c, 4, 57, 0
8, 29220, Note_on_c, 4, 55, 88
8, 29278, Note_off_c, 4, 55, 0
8, 29280, Note_on_c, 4, 57, 88
8, 29338, Note_off_c, 4, 57, 0
8, 29340, Note_on_c, 4, 48, 88
8, 29398, Note_off_c, 4, 48, 0
8, 29400, Note_on_c, 4, 52, 88
8, 29458, Note_off_c, 4, 52, 0
8, 29460, Note_on_c, 4, 53, 88
8, 29518, Note_off_c, 4, 53, 0
8, 29520, Note_on_c, 4, 55, 88
8, 29578, Note_off_c, 4, 55, 0
8, 29580, Note_on_c, 4, 53, 88
8, 29638, Note_off_c, 4, 53, 0
8, 29640, Note_on_c, 4, 55, 88
8, 29698, Note_off_c, 4, 55, 0
8, 29700, Note_on_c, 4, 48, 88
8, 29758, Note_off_c, 4, 48, 0
8, 29760, Note_on_c, 4, 50, 88
8, 29818, Note_off_c, 4, 50, 0
8, 29820, Note_on_c, 4, 52, 88
8, 29878, Note_off_c, 4, 52, 0
8, 29880, Note_on_c, 4, 53, 88
8, 30114, Note_off_c, 4, 53, 0
8, 30120, Note_on_c, 4, 48, 88
8, 30178, Note_off_c, 4, 48, 0
8, 30180, Note_on_c, 4, 45, 88
8, 30238, Note_off_c, 4, 45, 0
8, 30240, Note_on_c, 4, 41, 88
8, 30298, Note_off_c, 4, 41, 0
8, 30300, Note_on_c, 4, 45, 88
8, 30358, Note_off_c, 4, 45, 0
8, 30360, Note_on_c, 4, 48, 88
8, 30418, Note_off_c, 4, 48, 0
8, 30420, Note_on_c, 4, 51, 88
8, 30478, Note_off_c, 4, 51, 0
8, 30480, Note_on_c, 4, 50, 88
8, 30538, Note_off_c, 4, 50, 0
8, 30540, Note_on_c, 4, 51, 88
8, 30598, Note_off_c, 4, 51, 0
8, 30600, Note_on_c, 4, 41, 88
8, 30658, Note_off_c, 4, 41, 0
8, 30660, Note_on_c, 4, 45, 88
8, 30718, Note_off_c, 4, 45, 0
8, 30720, Note_on_c, 4, 46, 88
8, 30778, Note_off_c, 4, 46, 0
8, 30780, Note_on_c, 4, 50, 88
8, 30838, Note_off_c, 4, 50, 0
8, 30840, Note_on_c, 4, 48, 88
8, 30898, Note_off_c, 4, 48, 0
8, 30900, Note_on_c, 4, 50, 88
8, 30958, Note_off_c, 4, 50, 0
8, 30960, Note_on_c, 4, 39, 88
8, 31018, Note_off_c, 4, 39, 0
8, 31020, Note_on_c, 4, 43, 88
8, 31078, Note_off_c, 4, 43, 0
8, 31080, Note_on_c, 4, 45, 88
8, 31138, Note_off_c, 4, 45, 0
8, 31140, Note_on_c, 4, 48, 88
8, 31198, Note_off_c, 4, 48, 0
8, 31200, Note_on_c, 4, 46, 88
8, 31258, Note_off_c, 4, 46, 0
8, 31260, Note_on_c, 4, 48, 88
8, 31318, Note_off_c, 4, 48, 0
8, 31320, Note_on_c, 4, 39, 88
8, 31378, Note_off_c, 4, 39, 0
8, 31380, Note_on_c, 4, 38, 88
8, 31438, Note_off_c, 4, 38, 0
8, 31440, Note_on_c, 4, 41, 88
8, 31498, Note_off_c, 4, 41, 0
8, 31500, Note_on_c, 4, 46, 88
8, 31558, Note_off_c, 4, 46, 0
8, 31560, Note_on_c, 4, 50, 88
8, 31618, Note_off_c, 4, 50, 0
8, 31620, Note_on_c, 4, 53, 88
8, 31678, Note_off_c, 4, 53, 0
8, 31680, Note_on_c, 4, 58, 88
8, 31855, Note_off_c, 4, 58, 0
8, 31860, Note_on_c, 4, 65, 88
8, 32035, Note_off_c, 4, 65, 0
8, 32040, Note_on_c, 4, 70, 88
8, 32215, Note_off_c, 4, 70, 0
8, 32220, Note_on_c, 4, 51, 88
8, 32395, Note_off_c, 4, 51, 0
8, 32400, Note_on_c, 4, 45, 88
8, 32575, Note_off_c, 4, 45, 0
8, 32580, Note_on_c, 4, 63, 88
8, 32755, Note_off_c, 4, 63, 0
8, 32760, Note_on_c, 4, 69, 88
8, 32935, Note_off_c, 4, 69, 0
8, 32940, Note_on_c, 4, 50, 88
8, 33115, Note_off_c, 4, 50, 0
8, 33120, Note_on_c, 4, 43, 88
8, 33295, Note_off_c, 4, 43, 0
8, 33300, Note_on_c, 4, 53, 88
8, 33358, Note_off_c, 4, 53, 0
8, 33360, Note_on_c, 4, 58, 88
8, 33418, Note_off_c, 4, 58, 0
8, 33420, Note_on_c, 4, 55, 88
8, 33478, Note_off_c, 4, 55, 0
8, 33480, Note_on_c, 4, 52, 88
8, 33538, Note_off_c, 4, 52, 0
8, 33540, Note_on_c, 4, 58, 88
8, 33598, Note_off_c, 4, 58, 0
8, 33600, Note_on_c, 4, 55, 88
8, 33658, Note_off_c, 4, 55, 0
8, 33660, Note_on_c, 4, 52, 88
8, 33718, Note_off_c, 4, 52, 0
8, 33720, Note_on_c, 4, 58, 88
8, 33778, Note_off_c, 4, 58, 0
8, 33780, Note_on_c, 4, 67, 88
8, 33838, Note_off_c, 4, 67, 0
8, 33840, Note_on_c, 4, 56, 88
8, 33898, Note_off_c, 4, 56, 0
8, 33900, Note_on_c, 4, 55, 88
8, 33958, Note_off_c, 4, 55, 0
8, 33960, Note_on_c, 4, 56, 88
8, 34018, Note_off_c, 4, 56, 0
8, 34020, Note_on_c, 4, 51, 88
8, 34078, Note_off_c, 4, 51, 0
8, 34080, Note_on_c, 4, 56, 88
8, 34138, Note_off_c, 4, 56, 0
8, 34140, Note_on_c, 4, 53, 88
8, 34198, Note_off_c, 4, 53, 0
8, 34200, Note_on_c, 4, 50, 88
8, 34258, Note_off_c, 4, 50, 0
8, 34260, Note_on_c, 4, 56, 88
8, 34318, Note_off_c, 4, 56, 0
8, 34320, Note_on_c, 4, 53, 88
8, 34378, Note_off_c, 4, 53, 0
8, 34380, Note_on_c, 4, 50, 88
8, 34438, Note_off_c, 4, 50, 0
8, 34440, Note_on_c, 4, 56, 88
8, 34498, Note_off_c, 4, 56, 0
8, 34500, Note_on_c, 4, 65, 88
8, 34558, Note_off_c, 4, 65, 0
8, 34560, Note_on_c, 4, 55, 88
8, 34618, Note_off_c, 4, 55, 0
8, 34620, Note_on_c, 4, 65, 88
8, 34678, Note_off_c, 4, 65, 0
8, 34680, Note_on_c, 4, 63, 88
8, 34738, Note_off_c, 4, 63, 0
8, 34740, Note_on_c, 4, 62, 88
8, 34798, Note_off_c, 4, 62, 0
8, 34800, Note_on_c, 4, 60, 88
8, 34858, Note_off_c, 4, 60, 0
8, 34860, Note_on_c, 4, 58, 88
8, 34918, Note_off_c, 4, 58, 0
8, 34920, Note_on_c, 4, 57, 88
8, 35095, Note_off_c, 4, 57, 0
8, 35100, Note_on_c, 4, 53, 88
8, 35275, Note_off_c, 4, 53, 0
8, 35280, Note_on_c, 4, 46, 88
8, 35633, Note_off_c, 4, 46, 0
8, 35640, Note_on_c, 4, 48, 88
8, 35993, Note_off_c, 4, 48, 0
8, 36000, Note_on_c, 4, 50, 88
8, 36353, Note_off_c, 4, 50, 0
8, 36360, Note_on_c, 4, 52, 88
8, 36418, Note_off_c, 4, 52, 0
8, 36420, Note_on_c, 4, 55, 88
8, 36478, Note_off_c, 4, 55, 0
8, 36480, Note_on_c, 4, 53, 88
8, 36538, Note_off_c, 4, 53, 0
8, 36540, Note_on_c, 4, 52, 88
8, 36598, Note_off_c, 4, 52, 0
8, 36600, Note_on_c, 4, 50, 88
8, 36658, Note_off_c, 4, 50, 0
8, 36660, Note_on_c, 4, 48, 88
8, 36718, Note_off_c, 4, 48, 0
8, 36720, Note_on_c, 4, 53, 88
8, 37073, Note_off_c, 4, 53, 0
8, 37080, Note_on_c, 4, 55, 88
8, 37138, Note_off_c, 4, 55, 0
8, 37140, Note_on_c, 4, 58, 88
8, 37198, Note_off_c, 4, 58, 0
8, 37200, Note_on_c, 4, 57, 88
8, 37258, Note_off_c, 4, 57, 0
8, 37260, Note_on_c, 4, 55, 88
8, 37318, Note_off_c, 4, 55, 0
8, 37320, Note_on_c, 4, 53, 88
8, 37378, Note_off_c, 4, 53, 0
8, 37380, Note_on_c, 4, 52, 88
8, 37438, Note_off_c, 4, 52, 0
8, 37440, Note_on_c, 4, 57, 88
8, 37498, Note_off_c, 4, 57, 0
8, 37500, Note_on_c, 4, 55, 88
8, 37558, Note_off_c, 4, 55, 0
8, 37560, Note_on_c, 4, 57, 88
8, 37618, Note_off_c, 4, 57, 0
8, 37620, Note_on_c, 4, 58, 88
8, 37678, Note_off_c, 4, 58, 0
8, 37680, Note_on_c, 4, 57, 88
8, 37738, Note_off_c, 4, 57, 0
8, 37740, Note_on_c, 4, 55, 88
8, 37798, Note_off_c, 4, 55, 0
8, 37800, Note_on_c, 4, 53, 88
8, 38205, Note_off_c, 4, 53, 0
8, 38220, Note_on_c, 4, 53, 88
8, 38278, Note_off_c, 4, 53, 0
8, 38280, Note_on_c, 4, 51, 88
8, 38338, Note_off_c, 4, 51, 0
8, 38340, Note_on_c, 4, 50, 88
8, 38398, Note_off_c, 4, 50, 0
8, 38400, Note_on_c, 4, 48, 88
8, 38458, Note_off_c, 4, 48, 0
8, 38460, Note_on_c, 4, 46, 88
8, 38518, Note_off_c, 4, 46, 0
8, 38520, Note_on_c, 4, 48, 88
8, 38636, Note_off_c, 4, 48, 0
8, 38940, Note_on_c, 4, 50, 88
8, 38998, Note_off_c, 4, 50, 0
8, 39000, Note_on_c, 4, 48, 88
8, 39058, Note_off_c, 4, 48, 0
8, 39060, Note_on_c, 4, 46, 88
8, 39118, Note_off_c, 4, 46, 0
8, 39120, Note_on_c, 4, 45, 88
8, 39178, Note_off_c, 4, 45, 0
8, 39180, Note_on_c, 4, 43, 88
8, 39238, Note_off_c, 4, 43, 0
8, 39240, Note_on_c, 4, 48, 88
8, 39356, Note_off_c, 4, 48, 0
8, 39360, Note_on_c, 4, 46, 88
8, 39418, Note_off_c, 4, 46, 0
8, 39420, Note_on_c, 4, 45, 88
8, 39536, Note_off_c, 4, 45, 0
8, 39540, Note_on_c, 4, 43, 88
8, 39598, Note_off_c, 4, 43, 0
8, 39600, Note_on_c, 4, 41, 88
8, 39716, Note_off_c, 4, 41, 0
8, 39720, Note_on_c, 4, 51, 88
8, 39778, Note_off_c, 4, 51, 0
8, 39780, Note_on_c, 4, 50, 88
8, 39896, Note_off_c, 4, 50, 0
8, 39900, Note_on_c, 4, 48, 88
8, 39958, Note_off_c, 4, 48, 0
8, 39960, Note_on_c, 4, 46, 88
8, 40076, Note_off_c, 4, 46, 0
8, 40080, Note_on_c, 4, 57, 88
8, 40138, Note_off_c, 4, 57, 0
8, 40140, Note_on_c, 4, 55, 88
8, 40256, Note_off_c, 4, 55, 0
8, 40260, Note_on_c, 4, 53, 88
8, 40318, Note_off_c, 4, 53, 0
8, 40320, Note_on_c, 4, 52, 88
8, 40436, Note_off_c, 4, 52, 0
8, 40440, Note_on_c, 4, 55, 88
8, 40498, Note_off_c, 4, 55, 0
8, 40500, Note_on_c, 4, 52, 88
8, 40616, Note_off_c, 4, 52, 0
8, 40620, Note_on_c, 4, 48, 88
8, 40678, Note_off_c, 4, 48, 0
8, 40680, Note_on_c, 4, 53, 88
8, 40738, Note_off_c, 4, 53, 0
8, 40740, Note_on_c, 4, 67, 88
8, 40798, Note_off_c, 4, 67, 0
8, 40800, Note_on_c, 4, 65, 88
8, 40858, Note_off_c, 4, 65, 0
8, 40860, Note_on_c, 4, 63, 88
8, 40918, Note_off_c, 4, 63, 0
8, 40920, Note_on_c, 4, 62, 88
8, 40978, Note_off_c, 4, 62, 0
8, 40980, Note_on_c, 4, 60, 88
8, 41038, Note_off_c, 4, 60, 0
8, 41040, Note_on_c, 4, 58, 88
8, 41215, Note_off_c, 4, 58, 0
8, 41220, Note_on_c, 4, 60, 88
8, 41242, Note_off_c, 4, 60, 0
8, 41243, Note_on_c, 4, 59, 88
8, 41264, Note_off_c, 4, 59, 0
8, 41265, Note_on_c, 4, 60, 88
8, 41287, Note_off_c, 4, 60, 0
8, 41288, Note_on_c, 4, 59, 88
8, 41309, Note_off_c, 4, 59, 0
8, 41310, Note_on_c, 4, 60, 88
8, 41332, Note_off_c, 4, 60, 0
8, 41333, Note_on_c, 4, 59, 88
8, 41354, Note_off_c, 4, 59, 0
8, 41355, Note_on_c, 4, 57, 88
8, 41377, Note_off_c, 4, 57, 0
8, 41378, Note_on_c, 4, 59, 88
8, 41399, Note_off_c, 4, 59, 0
8, 41400, Note_on_c, 4, 60, 88
8, 41458, Note_off_c, 4, 60, 0
8, 41460, Note_on_c, 4, 62, 88
8, 41518, Note_off_c, 4, 62, 0
8, 41520, Note_on_c, 4, 60, 88
8, 41578, Note_off_c, 4, 60, 0
8, 41580, Note_on_c, 4, 58, 88
8, 41638, Note_off_c, 4, 58, 0
8, 41640, Note_on_c, 4, 57, 88
8, 41698, Note_off_c, 4, 57, 0
8, 41700, Note_on_c, 4, 55, 88
8, 41758, Note_off_c, 4, 55, 0
8, 41760, Note_on_c, 4, 53, 88
8, 41818, Note_off_c, 4, 53, 0
8, 41820, Note_on_c, 4, 55, 88
8, 41878, Note_off_c, 4, 55, 0
8, 41880, Note_on_c, 4, 53, 88
8, 41938, Note_off_c, 4, 53, 0
8, 41940, Note_on_c, 4, 51, 88
8, 41998, Note_off_c, 4, 51, 0
8, 42000, Note_on_c, 4, 50, 88
8, 42058, Note_off_c, 4, 50, 0
8, 42060, Note_on_c, 4, 48, 88
8, 42118, Note_off_c, 4, 48, 0
8, 42120, Note_on_c, 4, 47, 88
8, 42473, Note_off_c, 4, 47, 0
8, 42480, Note_on_c, 4, 48, 88
8, 42774, Note_off_c, 4, 48, 0
8, 42780, Note_on_c, 4, 58, 88
8, 42838, Note_off_c, 4, 58, 0
8, 42840, Note_on_c, 4, 56, 88
8, 42956, Note_off_c, 4, 56, 0
8, 42960, Note_on_c, 4, 55, 88
8, 43018, Note_off_c, 4, 55, 0
8, 43020, Note_on_c, 4, 56, 88
8, 43078, Note_off_c, 4, 56, 0
8, 43080, Note_on_c, 4, 60, 88
8, 43138, Note_off_c, 4, 60, 0
8, 43140, Note_on_c, 4, 53, 88
8, 43198, Note_off_c, 4, 53, 0
8, 43200, Note_on_c, 4, 52, 88
8, 43316, Note_off_c, 4, 52, 0
8, 43320, Note_on_c, 4, 50, 88
8, 43378, Note_off_c, 4, 50, 0
8, 43380, Note_on_c, 4, 52, 88
8, 43438, Note_off_c, 4, 52, 0
8, 43440, Note_on_c, 4, 55, 88
8, 43498, Note_off_c, 4, 55, 0
8, 43500, Note_on_c, 4, 48, 88
8, 43558, Note_off_c, 4, 48, 0
8, 43560, Note_on_c, 4, 53, 88
8, 43618, Note_off_c, 4, 53, 0
8, 43620, Note_on_c, 4, 56, 88
8, 43678, Note_off_c, 4, 56, 0
8, 43680, Note_on_c, 4, 51, 88
8, 43738, Note_off_c, 4, 51, 0
8, 43740, Note_on_c, 4, 49, 88
8, 43798, Note_off_c, 4, 49, 0
8, 43800, Note_on_c, 4, 53, 88
8, 43858, Note_off_c, 4, 53, 0
8, 43860, Note_on_c, 4, 48, 88
8, 43918, Note_off_c, 4, 48, 0
8, 43920, Note_on_c, 4, 46, 88
8, 43978, Note_off_c, 4, 46, 0
8, 43980, Note_on_c, 4, 49, 88
8, 44038, Note_off_c, 4, 49, 0
8, 44040, Note_on_c, 4, 53, 88
8, 44098, Note_off_c, 4, 53, 0
8, 44100, Note_on_c, 4, 58, 88
8, 44394, Note_off_c, 4, 58, 0
8, 44400, Note_on_c, 4, 46, 88
8, 44458, Note_off_c, 4, 46, 0
8, 44460, Note_on_c, 4, 58, 88
8, 44576, Note_off_c, 4, 58, 0
8, 44580, Note_on_c, 4, 59, 88
8, 44638, Note_off_c, 4, 59, 0
8, 44640, Note_on_c, 4, 60, 88
8, 44698, Note_off_c, 4, 60, 0
8, 44700, Note_on_c, 4, 48, 88
8, 44758, Note_off_c, 4, 48, 0
8, 44760, Note_on_c, 4, 50, 88
8, 44818, Note_off_c, 4, 50, 0
8, 44820, Note_on_c, 4, 52, 88
8, 44878, Note_off_c, 4, 52, 0
8, 44880, Note_on_c, 4, 53, 88
8, 44938, Note_off_c, 4, 53, 0
8, 44940, Note_on_c, 4, 55, 88
8, 44998, Note_off_c, 4, 55, 0
8, 45000, Note_on_c, 4, 57, 88
8, 45058, Note_off_c, 4, 57, 0
8, 45060, Note_on_c, 4, 58, 88
8, 45118, Note_off_c, 4, 58, 0
8, 45120, Note_on_c, 4, 60, 88
8, 45178, Note_off_c, 4, 60, 0
8, 45180, Note_on_c, 4, 62, 88
8, 45238, Note_off_c, 4, 62, 0
8, 45240, Note_on_c, 4, 60, 88
8, 45298, Note_off_c, 4, 60, 0
8, 45300, Note_on_c, 4, 58, 88
8, 45358, Note_off_c, 4, 58, 0
8, 45360, Note_on_c, 4, 57, 88
8, 45418, Note_off_c, 4, 57, 0
8, 45420, Note_on_c, 4, 55, 88
8, 45478, Note_off_c, 4, 55, 0
8, 45480, Note_on_c, 4, 53, 88
8, 45538, Note_off_c, 4, 53, 0
8, 45540, Note_on_c, 4, 60, 88
8, 45656, Note_off_c, 4, 60, 0
8, 45660, Note_on_c, 4, 48, 88
8, 45718, Note_off_c, 4, 48, 0
8, 45720, Note_on_c, 4, 41, 88
8, 45778, Note_off_c, 4, 41, 0
8, 45780, Note_on_c, 4, 45, 88
8, 45838, Note_off_c, 4, 45, 0
8, 45840, Note_on_c, 4, 48, 88
8, 45898, Note_off_c, 4, 48, 0
8, 45900, Note_on_c, 4, 53, 88
8, 46075, Note_off_c, 4, 53, 0
8, 46080, Note_on_c, 4, 41, 88
8, 46138, Note_off_c, 4, 41, 0
8, 46140, Note_on_c, 4, 57, 88
8, 46198, Note_off_c, 4, 57, 0
8, 46200, Note_on_c, 4, 55, 88
8, 46258, Note_off_c, 4, 55, 0
8, 46260, Note_on_c, 4, 57, 88
8, 46318, Note_off_c, 4, 57, 0
8, 46320, Note_on_c, 4, 58, 88
8, 46378, Note_off_c, 4, 58, 0
8, 46380, Note_on_c, 4, 60, 88
8, 46438, Note_off_c, 4, 60, 0
8, 46440, Note_on_c, 4, 43, 88
8, 46498, Note_off_c, 4, 43, 0
8, 46500, Note_on_c, 4, 62, 88
8, 46558, Note_off_c, 4, 62, 0
8, 46560, Note_on_c, 4, 60, 88
8, 46618, Note_off_c, 4, 60, 0
8, 46620, Note_on_c, 4, 58, 88
8, 46678, Note_off_c, 4, 58, 0
8, 46680, Note_on_c, 4, 57, 88
8, 46738, Note_off_c, 4, 57, 0
8, 46740, Note_on_c, 4, 55, 88
8, 46798, Note_off_c, 4, 55, 0
8, 46800, Note_on_c, 4, 45, 88
8, 46858, Note_off_c, 4, 45, 0
8, 46860, Note_on_c, 4, 57, 88
8, 46918, Note_off_c, 4, 57, 0
8, 46920, Note_on_c, 4, 58, 88
8, 46978, Note_off_c, 4, 58, 0
8, 46980, Note_on_c, 4, 57, 88
8, 47038, Note_off_c, 4, 57, 0
8, 47040, Note_on_c, 4, 55, 88
8, 47098, Note_off_c, 4, 55, 0
8, 47100, Note_on_c, 4, 53, 88
8, 47158, Note_off_c, 4, 53, 0
8, 47160, Note_on_c, 4, 46, 88
8, 47218, Note_off_c, 4, 46, 0
8, 47220, Note_on_c, 4, 50, 88
8, 47278, Note_off_c, 4, 50, 0
8, 47280, Note_on_c, 4, 51, 88
8, 47338, Note_off_c, 4, 51, 0
8, 47340, Note_on_c, 4, 53, 88
8, 47398, Note_off_c, 4, 53, 0
8, 47400, Note_on_c, 4, 55, 88
8, 47458, Note_off_c, 4, 55, 0
8, 47460, Note_on_c, 4, 56, 88
8, 47518, Note_off_c, 4, 56, 0
8, 47520, Note_on_c, 4, 43, 88
8, 47578, Note_off_c, 4, 43, 0
8, 47580, Note_on_c, 4, 59, 88
8, 47638, Note_off_c, 4, 59, 0
8, 47640, Note_on_c, 4, 57, 88
8, 47698, Note_off_c, 4, 57, 0
8, 47700, Note_on_c, 4, 59, 88
8, 47758, Note_off_c, 4, 59, 0
8, 47760, Note_on_c, 4, 60, 88
8, 47818, Note_off_c, 4, 60, 0
8, 47820, Note_on_c, 4, 62, 88
8, 47878, Note_off_c, 4, 62, 0
8, 47880, Note_on_c, 4, 45, 88
8, 47938, Note_off_c, 4, 45, 0
8, 47940, Note_on_c, 4, 63, 88
8, 47998, Note_off_c, 4, 63, 0
8, 48000, Note_on_c, 4, 62, 88
8, 48058, Note_off_c, 4, 62, 0
8, 48060, Note_on_c, 4, 60, 88
8, 48118, Note_off_c, 4, 60, 0
8, 48120, Note_on_c, 4, 59, 88
8, 48178, Note_off_c, 4, 59, 0
8, 48180, Note_on_c, 4, 57, 88
8, 48238, Note_off_c, 4, 57, 0
8, 48240, Note_on_c, 4, 47, 88
8, 48298, Note_off_c, 4, 47, 0
8, 48300, Note_on_c, 4, 59, 88
8, 48358, Note_off_c, 4, 59, 0
8, 48360, Note_on_c, 4, 57, 88
8, 48418, Note_off_c, 4, 57, 0
8, 48420, Note_on_c, 4, 59, 88
8, 48478, Note_off_c, 4, 59, 0
8, 48480, Note_on_c, 4, 57, 88
8, 48538, Note_off_c, 4, 57, 0
8, 48540, Note_on_c, 4, 55, 88
8, 48598, Note_off_c, 4, 55, 0
8, 48600, Note_on_c, 4, 48, 88
8, 48658, Note_off_c, 4, 48, 0
8, 48660, Note_on_c, 4, 51, 88
8, 48718, Note_off_c, 4, 51, 0
8, 48720, Note_on_c, 4, 53, 88
8, 48778, Note_off_c, 4, 53, 0
8, 48780, Note_on_c, 4, 55, 88
8, 48838, Note_off_c, 4, 55, 0
8, 48840, Note_on_c, 4, 57, 88
8, 48898, Note_off_c, 4, 57, 0
8, 48900, Note_on_c, 4, 59, 88
8, 48958, Note_off_c, 4, 59, 0
8, 48960, Note_on_c, 4, 60, 88
8, 49135, Note_off_c, 4, 60, 0
8, 49140, Note_on_c, 4, 79, 88
8, 49315, Note_off_c, 4, 79, 0
8, 49320, Note_on_c, 4, 84, 88
8, 49495, Note_off_c, 4, 84, 0
8, 49500, Note_on_c, 4, 56, 88
8, 49675, Note_off_c, 4, 56, 0
8, 49680, Note_on_c, 4, 58, 88
8, 49855, Note_off_c, 4, 58, 0
8, 49860, Note_on_c, 4, 77, 88
8, 50035, Note_off_c, 4, 77, 0
8, 50040, Note_on_c, 4, 82, 88
8, 50215, Note_off_c, 4, 82, 0
8, 50220, Note_on_c, 4, 55, 88
8, 50395, Note_off_c, 4, 55, 0
8, 50400, Note_on_c, 4, 56, 88
8, 50575, Note_off_c, 4, 56, 0
8, 50580, Note_on_c, 4, 67, 88
8, 50638, Note_off_c, 4, 67, 0
8, 50640, Note_on_c, 4, 72, 88
8, 50698, Note_off_c, 4, 72, 0
8, 50700, Note_on_c, 4, 68, 88
8, 50758, Note_off_c, 4, 68, 0
8, 50760, Note_on_c, 4, 65, 88
8, 50818, Note_off_c, 4, 65, 0
8, 50820, Note_on_c, 4, 72, 88
8, 50878, Note_off_c, 4, 72, 0
8, 50880, Note_on_c, 4, 68, 88
8, 50938, Note_off_c, 4, 68, 0
8, 50940, Note_on_c, 4, 62, 88
8, 50998, Note_off_c, 4, 62, 0
8, 51000, Note_on_c, 4, 68, 88
8, 51058, Note_off_c, 4, 68, 0
8, 51060, Note_on_c, 4, 72, 88
8, 51118, Note_off_c, 4, 72, 0
8, 51120, Note_on_c, 4, 71, 88
8, 51178, Note_off_c, 4, 71, 0
8, 51180, Note_on_c, 4, 69, 88
8, 51238, Note_off_c, 4, 69, 0
8, 51240, Note_on_c, 4, 67, 88
8, 51298, Note_off_c, 4, 67, 0
8, 51300, Note_on_c, 4, 65, 88
8, 51358, Note_off_c, 4, 65, 0
8, 51360, Note_on_c, 4, 71, 88
8, 51418, Note_off_c, 4, 71, 0
8, 51420, Note_on_c, 4, 67, 88
8, 51478, Note_off_c, 4, 67, 0
8, 51480, Note_on_c, 4, 64, 88
8, 51538, Note_off_c, 4, 64, 0
8, 51540, Note_on_c, 4, 70, 88
8, 51598, Note_off_c, 4, 70, 0
8, 51600, Note_on_c, 4, 67, 88
8, 51658, Note_off_c, 4, 67, 0
8, 51660, Note_on_c, 4, 60, 88
8, 51718, Note_off_c, 4, 60, 0
8, 51720, Note_on_c, 4, 67, 88
8, 51778, Note_off_c, 4, 67, 0
8, 51780, Note_on_c, 4, 70, 88
8, 51838, Note_off_c, 4, 70, 0
8, 51840, Note_on_c, 4, 68, 88
8, 51898, Note_off_c, 4, 68, 0
8, 51900, Note_on_c, 4, 67, 88
8, 51958, Note_off_c, 4, 67, 0
8, 51960, Note_on_c, 4, 65, 88
8, 52018, Note_off_c, 4, 65, 0
8, 52020, Note_on_c, 4, 63, 88
8, 52078, Note_off_c, 4, 63, 0
8, 52080, Note_on_c, 4, 62, 88
8, 52138, Note_off_c, 4, 62, 0
8, 52140, Note_on_c, 4, 60, 88
8, 52198, Note_off_c, 4, 60, 0
8, 52200, Note_on_c, 4, 59, 88
8, 52375, Note_off_c, 4, 59, 0
8, 52380, Note_on_c, 4, 55, 88
8, 52555, Note_off_c, 4, 55, 0
8, 52560, Note_on_c, 4, 60, 88
8, 52735, Note_off_c, 4, 60, 0
8, 52740, Note_on_c, 4, 61, 88
8, 52915, Note_off_c, 4, 61, 0
8, 52920, Note_on_c, 4, 62, 88
8, 53154, Note_off_c, 4, 62, 0
8, 53160, Note_on_c, 4, 60, 88
8, 53218, Note_off_c, 4, 60, 0
8, 53220, Note_on_c, 4, 58, 88
8, 53278, Note_off_c, 4, 58, 0
8, 53280, Note_on_c, 4, 63, 88
8, 53338, Note_off_c, 4, 63, 0
8, 53340, Note_on_c, 4, 62, 88
8, 53398, Note_off_c, 4, 62, 0
8, 53400, Note_on_c, 4, 60, 88
8, 53458, Note_off_c, 4, 60, 0
8, 53460, Note_on_c, 4, 58, 88
8, 53518, Note_off_c, 4, 58, 0
8, 53520, Note_on_c, 4, 57, 88
8, 53578, Note_off_c, 4, 57, 0
8, 53580, Note_on_c, 4, 55, 88
8, 53638, Note_off_c, 4, 55, 0
8, 53640, Note_on_c, 4, 54, 88
8, 53698, Note_off_c, 4, 54, 0
8, 53700, Note_on_c, 4, 57, 88
8, 53758, Note_off_c, 4, 57, 0
8, 53760, Note_on_c, 4, 55, 88
8, 53818, Note_off_c, 4, 55, 0
8, 53820, Note_on_c, 4, 54, 88
8, 53878, Note_off_c, 4, 54, 0
8, 53880, Note_on_c, 4, 52, 88
8, 53938, Note_off_c, 4, 52, 0
8, 53940, Note_on_c, 4, 50, 88
8, 53998, Note_off_c, 4, 50, 0
8, 54000, Note_on_c, 4, 55, 88
8, 54234, Note_off_c, 4, 55, 0
8, 54240, Note_on_c, 4, 57, 88
8, 54298, Note_off_c, 4, 57, 0
8, 54300, Note_on_c, 4, 58, 88
8, 54358, Note_off_c, 4, 58, 0
8, 54360, Note_on_c, 4, 57, 88
8, 54418, Note_off_c, 4, 57, 0
8, 54420, Note_on_c, 4, 60, 88
8, 54478, Note_off_c, 4, 60, 0
8, 54480, Note_on_c, 4, 58, 88
8, 54538, Note_off_c, 4, 58, 0
8, 54540, Note_on_c, 4, 57, 88
8, 54598, Note_off_c, 4, 57, 0
8, 54600, Note_on_c, 4, 55, 88
8, 54658, Note_off_c, 4, 55, 0
8, 54660, Note_on_c, 4, 53, 88
8, 54718, Note_off_c, 4, 53, 0
8, 54720, Note_on_c, 4, 58, 88
8, 54778, Note_off_c, 4, 58, 0
8, 54780, Note_on_c, 4, 57, 88
8, 54838, Note_off_c, 4, 57, 0
8, 54840, Note_on_c, 4, 58, 88
8, 54898, Note_off_c, 4, 58, 0
8, 54900, Note_on_c, 4, 60, 88
8, 54958, Note_off_c, 4, 60, 0
8, 54960, Note_on_c, 4, 66, 88
8, 55018, Note_off_c, 4, 66, 0
8, 55020, Note_on_c, 4, 69, 88
8, 55078, Note_off_c, 4, 69, 0
8, 55080, Note_on_c, 4, 62, 88
8, 55138, Note_off_c, 4, 62, 0
8, 55500, Note_on_c, 4, 55, 88
8, 55558, Note_off_c, 4, 55, 0
8, 55560, Note_on_c, 4, 53, 88
8, 55618, Note_off_c, 4, 53, 0
8, 55620, Note_on_c, 4, 51, 88
8, 55678, Note_off_c, 4, 51, 0
8, 55680, Note_on_c, 4, 50, 88
8, 55738, Note_off_c, 4, 50, 0
8, 55740, Note_on_c, 4, 48, 88
8, 55798, Note_off_c, 4, 48, 0
8, 55800, Note_on_c, 4, 53, 88
8, 55916, Note_off_c, 4, 53, 0
8, 56220, Note_on_c, 4, 51, 88
8, 56278, Note_off_c, 4, 51, 0
8, 56280, Note_on_c, 4, 50, 88
8, 56338, Note_off_c, 4, 50, 0
8, 56340, Note_on_c, 4, 48, 88
8, 56398, Note_off_c, 4, 48, 0
8, 56400, Note_on_c, 4, 46, 88
8, 56458, Note_off_c, 4, 46, 0
8, 56460, Note_on_c, 4, 45, 88
8, 56518, Note_off_c, 4, 45, 0
8, 56520, Note_on_c, 4, 50, 88
8, 56695, Note_off_c, 4, 50, 0
8, 56700, Note_on_c, 4, 51, 88
8, 56996, Note_off_c, 4, 51, 0
8, 57000, Note_on_c, 4, 46, 88
8, 57058, Note_off_c, 4, 46, 0
8, 57060, Note_on_c, 4, 48, 88
8, 57176, Note_off_c, 4, 48, 0
8, 57180, Note_on_c, 4, 50, 88
8, 57238, Note_off_c, 4, 50, 0
8, 57240, Note_on_c, 4, 55, 88
8, 57474, Note_off_c, 4, 55, 0
8, 57480, Note_on_c, 4, 53, 88
8, 57538, Note_off_c, 4, 53, 0
8, 57540, Note_on_c, 4, 51, 88
8, 57598, Note_off_c, 4, 51, 0
8, 57600, Note_on_c, 4, 50, 88
8, 57775, Note_off_c, 4, 50, 0
8, 57780, Note_on_c, 4, 51, 88
8, 57955, Note_off_c, 4, 51, 0
8, 57960, Note_on_c, 4, 53, 88
8, 58135, Note_off_c, 4, 53, 0
8, 58140, Note_on_c, 4, 55, 88
8, 58315, Note_off_c, 4, 55, 0
8, 58320, Note_on_c, 4, 56, 88
8, 58378, Note_off_c, 4, 56, 0
8, 58380, Note_on_c, 4, 58, 88
8, 58438, Note_off_c, 4, 58, 0
8, 58440, Note_on_c, 4, 56, 88
8, 58498, Note_off_c, 4, 56, 0
8, 58500, Note_on_c, 4, 55, 88
8, 58558, Note_off_c, 4, 55, 0
8, 58560, Note_on_c, 4, 53, 88
8, 58618, Note_off_c, 4, 53, 0
8, 58620, Note_on_c, 4, 51, 88
8, 58678, Note_off_c, 4, 51, 0
8, 58680, Note_on_c, 4, 53, 88
8, 58738, Note_off_c, 4, 53, 0
8, 58740, Note_on_c, 4, 55, 88
8, 58798, Note_off_c, 4, 55, 0
8, 58800, Note_on_c, 4, 53, 88
8, 58858, Note_off_c, 4, 53, 0
8, 58860, Note_on_c, 4, 51, 88
8, 58918, Note_off_c, 4, 51, 0
8, 58920, Note_on_c, 4, 50, 88
8, 58978, Note_off_c, 4, 50, 0
8, 58980, Note_on_c, 4, 48, 88
8, 59038, Note_off_c, 4, 48, 0
8, 59040, Note_on_c, 4, 47, 88
8, 59156, Note_off_c, 4, 47, 0
8, 59220, Note_on_c, 4, 48, 88
8, 59336, Note_off_c, 4, 48, 0
8, 59400, Note_on_c, 4, 45, 88
8, 59516, Note_off_c, 4, 45, 0
8, 59580, Note_on_c, 4, 46, 88
8, 59638, Note_off_c, 4, 46, 0
8, 59640, Note_on_c, 4, 58, 88
8, 59698, Note_off_c, 4, 58, 0
8, 59700, Note_on_c, 4, 57, 88
8, 59758, Note_off_c, 4, 57, 0
8, 59760, Note_on_c, 4, 55, 88
8, 59818, Note_off_c, 4, 55, 0
8, 59820, Note_on_c, 4, 53, 88
8, 59878, Note_off_c, 4, 53, 0
8, 59880, Note_on_c, 4, 51, 88
8, 59938, Note_off_c, 4, 51, 0
8, 59940, Note_on_c, 4, 50, 88
8, 59998, Note_off_c, 4, 50, 0
8, 60000, Note_on_c, 4, 48, 88
8, 60058, Note_off_c, 4, 48, 0
8, 60060, Note_on_c, 4, 46, 88
8, 60118, Note_off_c, 4, 46, 0
8, 60120, Note_on_c, 4, 53, 88
8, 60354, Note_off_c, 4, 53, 0
8, 60360, Note_on_c, 4, 57, 88
8, 60418, Note_off_c, 4, 57, 0
8, 60420, Note_on_c, 4, 60, 88
8, 60478, Note_off_c, 4, 60, 0
8, 60480, Note_on_c, 4, 63, 88
8, 60538, Note_off_c, 4, 63, 0
8, 60540, Note_on_c, 4, 62, 88
8, 60598, Note_off_c, 4, 62, 0
8, 60600, Note_on_c, 4, 63, 88
8, 60658, Note_off_c, 4, 63, 0
8, 60660, Note_on_c, 4, 53, 88
8, 60718, Note_off_c, 4, 53, 0
8, 60720, Note_on_c, 4, 57, 88
8, 60778, Note_off_c, 4, 57, 0
8, 60780, Note_on_c, 4, 60, 88
8, 60838, Note_off_c, 4, 60, 0
8, 60840, Note_on_c, 4, 62, 88
8, 60898, Note_off_c, 4, 62, 0
8, 60900, Note_on_c, 4, 60, 88
8, 60958, Note_off_c, 4, 60, 0
8, 60960, Note_on_c, 4, 62, 88
8, 61018, Note_off_c, 4, 62, 0
8, 61020, Note_on_c, 4, 53, 88
8, 61078, Note_off_c, 4, 53, 0
8, 61080, Note_on_c, 4, 57, 88
8, 61138, Note_off_c, 4, 57, 0
8, 61140, Note_on_c, 4, 58, 88
8, 61198, Note_off_c, 4, 58, 0
8, 61200, Note_on_c, 4, 60, 88
8, 61258, Note_off_c, 4, 60, 0
8, 61260, Note_on_c, 4, 58, 88
8, 61318, Note_off_c, 4, 58, 0
8, 61320, Note_on_c, 4, 60, 88
8, 61378, Note_off_c, 4, 60, 0
8, 61380, Note_on_c, 4, 53, 88
8, 61438, Note_off_c, 4, 53, 0
8, 61440, Note_on_c, 4, 55, 88
8, 61498, Note_off_c, 4, 55, 0
8, 61500, Note_on_c, 4, 57, 88
8, 61558, Note_off_c, 4, 57, 0
8, 61560, Note_on_c, 4, 58, 88
8, 61618, Note_off_c, 4, 58, 0
8, 61620, Note_on_c, 4, 53, 88
8, 61678, Note_off_c, 4, 53, 0
8, 61680, Note_on_c, 4, 50, 88
8, 61738, Note_off_c, 4, 50, 0
8, 61740, Note_on_c, 4, 46, 88
8, 61798, Note_off_c, 4, 46, 0
8, 61800, Note_on_c, 4, 53, 88
8, 61858, Note_off_c, 4, 53, 0
8, 61860, Note_on_c, 4, 44, 88
8, 61918, Note_off_c, 4, 44, 0
8, 61920, Note_on_c, 4, 43, 88
8, 61978, Note_off_c, 4, 43, 0
8, 61980, Note_on_c, 4, 47, 88
8, 62038, Note_off_c, 4, 47, 0
8, 62040, Note_on_c, 4, 50, 88
8, 62098, Note_off_c, 4, 50, 0
8, 62100, Note_on_c, 4, 53, 88
8, 62158, Note_off_c, 4, 53, 0
8, 62160, Note_on_c, 4, 51, 88
8, 62218, Note_off_c, 4, 51, 0
8, 62220, Note_on_c, 4, 53, 88
8, 62278, Note_off_c, 4, 53, 0
8, 62280, Note_on_c, 4, 43, 88
8, 62338, Note_off_c, 4, 43, 0
8, 62340, Note_on_c, 4, 47, 88
8, 62398, Note_off_c, 4, 47, 0
8, 62400, Note_on_c, 4, 48, 88
8, 62458, Note_off_c, 4, 48, 0
8, 62460, Note_on_c, 4, 51, 88
8, 62518, Note_off_c, 4, 51, 0
8, 62520, Note_on_c, 4, 50, 88
8, 62578, Note_off_c, 4, 50, 0
8, 62580, Note_on_c, 4, 51, 88
8, 62638, Note_off_c, 4, 51, 0
8, 62640, Note_on_c, 4, 41, 88
8, 62698, Note_off_c, 4, 41, 0
8, 62700, Note_on_c, 4, 44, 88
8, 62758, Note_off_c, 4, 44, 0
8, 62760, Note_on_c, 4, 47, 88
8, 62818, Note_off_c, 4, 47, 0
8, 62820, Note_on_c, 4, 50, 88
8, 62878, Note_off_c, 4, 50, 0
8, 62880, Note_on_c, 4, 48, 88
8, 62938, Note_off_c, 4, 48, 0
8, 62940, Note_on_c, 4, 50, 88
8, 62998, Note_off_c, 4, 50, 0
8, 63000, Note_on_c, 4, 41, 88
8, 63058, Note_off_c, 4, 41, 0
8, 63060, Note_on_c, 4, 39, 88
8, 63118, Note_off_c, 4, 39, 0
8, 63120, Note_on_c, 4, 43, 88
8, 63178, Note_off_c, 4, 43, 0
8, 63180, Note_on_c, 4, 48, 88
8, 63238, Note_off_c, 4, 48, 0
8, 63240, Note_on_c, 4, 51, 88
8, 63298, Note_off_c, 4, 51, 0
8, 63300, Note_on_c, 4, 55, 88
8, 63358, Note_off_c, 4, 55, 0
8, 63360, Note_on_c, 4, 60, 88
8, 63594, Note_off_c, 4, 60, 0
8, 63600, Note_on_c, 4, 62, 88
8, 63658, Note_off_c, 4, 62, 0
8, 63660, Note_on_c, 4, 63, 88
8, 63718, Note_off_c, 4, 63, 0
8, 63720, Note_on_c, 4, 62, 88
8, 63778, Note_off_c, 4, 62, 0
8, 63780, Note_on_c, 4, 58, 88
8, 63838, Note_off_c, 4, 58, 0
8, 63840, Note_on_c, 4, 60, 88
8, 63898, Note_off_c, 4, 60, 0
8, 63900, Note_on_c, 4, 62, 88
8, 63958, Note_off_c, 4, 62, 0
8, 63960, Note_on_c, 4, 63, 88
8, 64018, Note_off_c, 4, 63, 0
8, 64020, Note_on_c, 4, 65, 88
8, 64078, Note_off_c, 4, 65, 0
8, 64080, Note_on_c, 4, 55, 88
8, 64314, Note_off_c, 4, 55, 0
8, 64320, Note_on_c, 4, 57, 88
8, 64378, Note_off_c, 4, 57, 0
8, 64380, Note_on_c, 4, 58, 88
8, 64438, Note_off_c, 4, 58, 0
8, 64440, Note_on_c, 4, 57, 88
8, 64498, Note_off_c, 4, 57, 0
8, 64500, Note_on_c, 4, 53, 88
8, 64558, Note_off_c, 4, 53, 0
8, 64560, Note_on_c, 4, 55, 88
8, 64618, Note_off_c, 4, 55, 0
8, 64620, Note_on_c, 4, 57, 88
8, 64678, Note_off_c, 4, 57, 0
8, 64680, Note_on_c, 4, 58, 88
8, 64738, Note_off_c, 4, 58, 0
8, 64740, Note_on_c, 4, 60, 88
8, 64798, Note_off_c, 4, 60, 0
8, 64800, Note_on_c, 4, 50, 88
8, 65034, Note_off_c, 4, 50, 0
8, 65040, Note_on_c, 4, 52, 88
8, 65098, Note_off_c, 4, 52, 0
8, 65100, Note_on_c, 4, 53, 88
8, 65158, Note_off_c, 4, 53, 0
8, 65160, Note_on_c, 4, 52, 88
8, 65218, Note_off_c, 4, 52, 0
8, 65220, Note_on_c, 4, 48, 88
8, 65278, Note_off_c, 4, 48, 0
8, 65280, Note_on_c, 4, 50, 88
8, 65338, Note_off_c, 4, 50, 0
8, 65340, Note_on_c, 4, 52, 88
8, 65398, Note_off_c, 4, 52, 0
8, 65400, Note_on_c, 4, 53, 88
8, 65458, Note_off_c, 4, 53, 0
8, 65460, Note_on_c, 4, 55, 88
8, 65518, Note_off_c, 4, 55, 0
8, 65520, Note_on_c, 4, 44, 88
8, 65754, Note_off_c, 4, 44, 0
8, 65760, Note_on_c, 4, 46, 88
8, 65818, Note_off_c, 4, 46, 0
8, 65820, Note_on_c, 4, 48, 88
8, 65878, Note_off_c, 4, 48, 0
8, 65880, Note_on_c, 4, 47, 88
8, 65938, Note_off_c, 4, 47, 0
8, 65940, Note_on_c, 4, 43, 88
8, 65998, Note_off_c, 4, 43, 0
8, 66000, Note_on_c, 4, 45, 88
8, 66058, Note_off_c, 4, 45, 0
8, 66060, Note_on_c, 4, 47, 88
8, 66118, Note_off_c, 4, 47, 0
8, 66120, Note_on_c, 4, 48, 88
8, 66178, Note_off_c, 4, 48, 0
8, 66180, Note_on_c, 4, 50, 88
8, 66238, Note_off_c, 4, 50, 0
8, 66240, Note_on_c, 4, 39, 88
8, 66474, Note_off_c, 4, 39, 0
8, 66480, Note_on_c, 4, 41, 88
8, 66538, Note_off_c, 4, 41, 0
8, 66540, Note_on_c, 4, 43, 88
8, 66598, Note_off_c, 4, 43, 0
8, 66600, Note_on_c, 4, 42, 88
8, 66658, Note_off_c, 4, 42, 0
8, 66660, Note_on_c, 4, 38, 88
8, 66718, Note_off_c, 4, 38, 0
8, 66720, Note_on_c, 4, 40, 88
8, 66778, Note_off_c, 4, 40, 0
8, 66780, Note_on_c, 4, 42, 88
8, 66838, Note_off_c, 4, 42, 0
8, 66840, Note_on_c, 4, 43, 88
8, 66898, Note_off_c, 4, 43, 0
8, 66900, Note_on_c, 4, 45, 88
8, 66958, Note_off_c, 4, 45, 0
8, 66960, Note_on_c, 4, 46, 88
8, 67018, Note_off_c, 4, 46, 0
8, 67020, Note_on_c, 4, 43, 88
8, 67078, Note_off_c, 4, 43, 0
8, 67080, Note_on_c, 4, 45, 88
8, 67138, Note_off_c, 4, 45, 0
8, 67140, Note_on_c, 4, 46, 88
8, 67198, Note_off_c, 4, 46, 0
8, 67200, Note_on_c, 4, 48, 88
8, 67258, Note_off_c, 4, 48, 0
8, 67260, Note_on_c, 4, 50, 88
8, 67318, Note_off_c, 4, 50, 0
8, 67320, Note_on_c, 4, 51, 88
8, 67378, Note_off_c, 4, 51, 0
8, 67380, Note_on_c, 4, 48, 88
8, 67438, Note_off_c, 4, 48, 0
8, 67440, Note_on_c, 4, 50, 88
8, 67498, Note_off_c, 4, 50, 0
8, 67500, Note_on_c, 4, 51, 88
8, 67558, Note_off_c, 4, 51, 0
8, 67560, Note_on_c, 4, 53, 88
8, 67618, Note_off_c, 4, 53, 0
8, 67620, Note_on_c, 4, 55, 88
8, 67678, Note_off_c, 4, 55, 0
8, 67680, Note_on_c, 4, 45, 88
8, 67738, Note_off_c, 4, 45, 0
8, 67740, Note_on_c, 4, 41, 88
8, 67798, Note_off_c, 4, 41, 0
8, 67800, Note_on_c, 4, 43, 88
8, 67858, Note_off_c, 4, 43, 0
8, 67860, Note_on_c, 4, 45, 88
8, 67918, Note_off_c, 4, 45, 0
8, 67920, Note_on_c, 4, 46, 88
8, 67978, Note_off_c, 4, 46, 0
8, 67980, Note_on_c, 4, 48, 88
8, 68038, Note_off_c, 4, 48, 0
8, 68040, Note_on_c, 4, 49, 88
8, 68098, Note_off_c, 4, 49, 0
8, 68100, Note_on_c, 4, 46, 88
8, 68158, Note_off_c, 4, 46, 0
8, 68160, Note_on_c, 4, 48, 88
8, 68218, Note_off_c, 4, 48, 0
8, 68220, Note_on_c, 4, 49, 88
8, 68278, Note_off_c, 4, 49, 0
8, 68280, Note_on_c, 4, 51, 88
8, 68338, Note_off_c, 4, 51, 0
8, 68340, Note_on_c, 4, 53, 88
8, 68398, Note_off_c, 4, 53, 0
8, 68400, Note_on_c, 4, 42, 88
8, 68575, Note_off_c, 4, 42, 0
8, 68580, Note_on_c, 4, 43, 88
8, 68755, Note_off_c, 4, 43, 0
8, 68760, Note_on_c, 4, 41, 88
8, 68818, Note_off_c, 4, 41, 0
8, 68820, Note_on_c, 4, 45, 88
8, 68878, Note_off_c, 4, 45, 0
8, 68880, Note_on_c, 4, 46, 88
8, 68938, Note_off_c, 4, 46, 0
8, 68940, Note_on_c, 4, 48, 88
8, 68998, Note_off_c, 4, 48, 0
8, 69000, Note_on_c, 4, 50, 88
8, 69058, Note_off_c, 4, 50, 0
8, 69060, Note_on_c, 4, 51, 88
8, 69118, Note_off_c, 4, 51, 0
8, 69120, Note_on_c, 4, 53, 88
8, 69295, Note_off_c, 4, 53, 0
8, 69300, Note_on_c, 4, 51, 88
8, 69475, Note_off_c, 4, 51, 0
8, 69480, Note_on_c, 4, 50, 88
8, 69655, Note_off_c, 4, 50, 0
8, 69660, Note_on_c, 4, 48, 88
8, 69835, Note_off_c, 4, 48, 0
8, 69840, Note_on_c, 4, 46, 88
8, 69898, Note_off_c, 4, 46, 0
8, 69900, Note_on_c, 4, 60, 88
8, 69958, Note_off_c, 4, 60, 0
8, 69960, Note_on_c, 4, 58, 88
8, 70018, Note_off_c, 4, 58, 0
8, 70020, Note_on_c, 4, 57, 88
8, 70078, Note_off_c, 4, 57, 0
8, 70080, Note_on_c, 4, 55, 88
8, 70138, Note_off_c, 4, 55, 0
8, 70140, Note_on_c, 4, 54, 88
8, 70198, Note_off_c, 4, 54, 0
8, 70200, Note_on_c, 4, 55, 88
8, 70375, Note_off_c, 4, 55, 0
8, 70380, Note_on_c, 4, 58, 88
8, 70555, Note_off_c, 4, 58, 0
8, 70560, Note_on_c, 4, 51, 88
8, 70735, Note_off_c, 4, 51, 0
8, 70740, Note_on_c, 4, 50, 88
8, 70915, Note_off_c, 4, 50, 0
8, 70920, Note_on_c, 4, 48, 88
8, 71095, Note_off_c, 4, 48, 0
8, 71100, Note_on_c, 4, 46, 88
8, 71275, Note_off_c, 4, 46, 0
8, 71280, Note_on_c, 4, 45, 88
8, 71338, Note_off_c, 4, 45, 0
8, 71340, Note_on_c, 4, 58, 88
8, 71398, Note_off_c, 4, 58, 0
8, 71400, Note_on_c, 4, 57, 88
8, 71458, Note_off_c, 4, 57, 0
8, 71460, Note_on_c, 4, 55, 88
8, 71518, Note_off_c, 4, 55, 0
8, 71520, Note_on_c, 4, 53, 88
8, 71578, Note_off_c, 4, 53, 0
8, 71580, Note_on_c, 4, 52, 88
8, 71638, Note_off_c, 4, 52, 0
8, 71640, Note_on_c, 4, 53, 88
8, 71698, Note_off_c, 4, 53, 0
8, 71700, Note_on_c, 4, 41, 88
8, 71758, Note_off_c, 4, 41, 0
8, 71760, Note_on_c, 4, 43, 88
8, 71818, Note_off_c, 4, 43, 0
8, 71820, Note_on_c, 4, 45, 88
8, 71878, Note_off_c, 4, 45, 0
8, 71880, Note_on_c, 4, 46, 88
8, 71938, Note_off_c, 4, 46, 0
8, 71940, Note_on_c, 4, 48, 88
8, 71998, Note_off_c, 4, 48, 0
8, 72000, Note_on_c, 4, 50, 88
8, 72175, Note_off_c, 4, 50, 0
8, 72180, Note_on_c, 4, 48, 88
8, 72355, Note_off_c, 4, 48, 0
8, 72360, Note_on_c, 4, 46, 88
8, 72535, Note_off_c, 4, 46, 0
8, 72540, Note_on_c, 4, 45, 88
8, 72715, Note_off_c, 4, 45, 0
8, 72720, Note_on_c, 4, 43, 88
8, 72778, Note_off_c, 4, 43, 0
8, 72780, Note_on_c, 4, 68, 88
8, 72838, Note_off_c, 4, 68, 0
8, 72840, Note_on_c, 4, 67, 88
8, 72898, Note_off_c, 4, 67, 0
8, 72900, Note_on_c, 4, 65, 88
8, 72958, Note_off_c, 4, 65, 0
8, 72960, Note_on_c, 4, 63, 88
8, 73018, Note_off_c, 4, 63, 0
8, 73020, Note_on_c, 4, 62, 88
8, 73078, Note_off_c, 4, 62, 0
8, 73080, Note_on_c, 4, 63, 88
8, 73138, Note_off_c, 4, 63, 0
8, 73140, Note_on_c, 4, 65, 88
8, 73198, Note_off_c, 4, 65, 0
8, 73200, Note_on_c, 4, 63, 88
8, 73258, Note_off_c, 4, 63, 0
8, 73260, Note_on_c, 4, 62, 88
8, 73318, Note_off_c, 4, 62, 0
8, 73320, Note_on_c, 4, 60, 88
8, 73378, Note_off_c, 4, 60, 0
8, 73380, Note_on_c, 4, 59, 88
8, 73438, Note_off_c, 4, 59, 0
8, 73440, Note_on_c, 4, 60, 88
8, 73498, Note_off_c, 4, 60, 0
8, 73500, Note_on_c, 4, 62, 88
8, 73558, Note_off_c, 4, 62, 0
8, 73560, Note_on_c, 4, 60, 88
8, 73618, Note_off_c, 4, 60, 0
8, 73620, Note_on_c, 4, 58, 88
8, 73678, Note_off_c, 4, 58, 0
8, 73680, Note_on_c, 4, 57, 88
8, 73738, Note_off_c, 4, 57, 0
8, 73740, Note_on_c, 4, 55, 88
8, 73798, Note_off_c, 4, 55, 0
8, 73800, Note_on_c, 4, 57, 88
8, 73858, Note_off_c, 4, 57, 0
8, 73860, Note_on_c, 4, 58, 88
8, 73918, Note_off_c, 4, 58, 0
8, 73920, Note_on_c, 4, 57, 88
8, 73978, Note_off_c, 4, 57, 0
8, 73980, Note_on_c, 4, 55, 88
8, 74038, Note_off_c, 4, 55, 0
8, 74040, Note_on_c, 4, 53, 88
8, 74098, Note_off_c, 4, 53, 0
8, 74100, Note_on_c, 4, 52, 88
8, 74158, Note_off_c, 4, 52, 0
8, 74160, Note_on_c, 4, 53, 88
8, 74218, Note_off_c, 4, 53, 0
8, 74220, Note_on_c, 4, 55, 88
8, 74278, Note_off_c, 4, 55, 0
8, 74280, Note_on_c, 4, 53, 88
8, 74338, Note_off_c, 4, 53, 0
8, 74340, Note_on_c, 4, 51, 88
8, 74398, Note_off_c, 4, 51, 0
8, 74400, Note_on_c, 4, 50, 88
8, 74458, Note_off_c, 4, 50, 0
8, 74460, Note_on_c, 4, 48, 88
8, 74518, Note_off_c, 4, 48, 0
8, 74520, Note_on_c, 4, 50, 88
8, 74578, Note_off_c, 4, 50, 0
8, 74580, Note_on_c, 4, 51, 88
8, 74638, Note_off_c, 4, 51, 0
8, 74640, Note_on_c, 4, 50, 88
8, 74698, Note_off_c, 4, 50, 0
8, 74700, Note_on_c, 4, 48, 88
8, 74758, Note_off_c, 4, 48, 0
8, 74760, Note_on_c, 4, 46, 88
8, 74818, Note_off_c, 4, 46, 0
8, 74820, Note_on_c, 4, 45, 88
8, 74878, Note_off_c, 4, 45, 0
8, 74880, Note_on_c, 4, 46, 88
8, 74938, Note_off_c, 4, 46, 0
8, 74940, Note_on_c, 4, 48, 88
8, 74998, Note_off_c, 4, 48, 0
8, 75000, Note_on_c, 4, 46, 88
8, 75058, Note_off_c, 4, 46, 0
8, 75060, Note_on_c, 4, 45, 88
8, 75118, Note_off_c, 4, 45, 0
8, 75120, Note_on_c, 4, 43, 88
8, 75178, Note_off_c, 4, 43, 0
8, 75180, Note_on_c, 4, 42, 88
8, 75238, Note_off_c, 4, 42, 0
8, 75240, Note_on_c, 4, 43, 88
8, 75298, Note_off_c, 4, 43, 0
8, 75300, Note_on_c, 4, 45, 88
8, 75358, Note_off_c, 4, 45, 0
8, 75360, Note_on_c, 4, 43, 88
8, 75418, Note_off_c, 4, 43, 0
8, 75420, Note_on_c, 4, 41, 88
8, 75478, Note_off_c, 4, 41, 0
8, 75480, Note_on_c, 4, 39, 88
8, 75538, Note_off_c, 4, 39, 0
8, 75540, Note_on_c, 4, 38, 88
8, 75598, Note_off_c, 4, 38, 0
8, 75600, Note_on_c, 4, 39, 88
8, 75716, Note_off_c, 4, 39, 0
8, 76320, Note_on_c, 4, 51, 88
8, 76495, Note_off_c, 4, 51, 0
8, 77040, Note_on_c, 4, 51, 88
8, 77215, Note_off_c, 4, 51, 0
8, 77460, Note_on_c, 4, 51, 88
8, 77518, Note_off_c, 4, 51, 0
8, 77520, Note_on_c, 4, 50, 88
8, 77578, Note_off_c, 4, 50, 0
8, 77580, Note_on_c, 4, 48, 88
8, 77638, Note_off_c, 4, 48, 0
8, 77640, Note_on_c, 4, 46, 88
8, 77698, Note_off_c, 4, 46, 0
8, 77700, Note_on_c, 4, 45, 88
8, 77758, Note_off_c, 4, 45, 0
8, 77760, Note_on_c, 4, 46, 88
8, 77818, Note_off_c, 4, 46, 0
8, 77820, Note_on_c, 4, 41, 88
8, 77878, Note_off_c, 4, 41, 0
8, 77880, Note_on_c, 4, 43, 88
8, 77938, Note_off_c, 4, 43, 0
8, 77940, Note_on_c, 4, 45, 88
8, 77998, Note_off_c, 4, 45, 0
8, 78000, Note_on_c, 4, 46, 88
8, 78058, Note_off_c, 4, 46, 0
8, 78060, Note_on_c, 4, 48, 88
8, 78118, Note_off_c, 4, 48, 0
8, 78120, Note_on_c, 4, 50, 88
8, 78178, Note_off_c, 4, 50, 0
8, 78180, Note_on_c, 4, 46, 88
8, 78238, Note_off_c, 4, 46, 0
8, 78240, Note_on_c, 4, 48, 88
8, 78298, Note_off_c, 4, 48, 0
8, 78300, Note_on_c, 4, 50, 88
8, 78358, Note_off_c, 4, 50, 0
8, 78360, Note_on_c, 4, 51, 88
8, 78418, Note_off_c, 4, 51, 0
8, 78420, Note_on_c, 4, 53, 88
8, 78478, Note_off_c, 4, 53, 0
8, 78480, Note_on_c, 4, 55, 88
8, 78538, Note_off_c, 4, 55, 0
8, 78540, Note_on_c, 4, 56, 88
8, 78598, Note_off_c, 4, 56, 0
8, 78600, Note_on_c, 4, 55, 88
8, 78658, Note_off_c, 4, 55, 0
8, 78660, Note_on_c, 4, 53, 88
8, 78718, Note_off_c, 4, 53, 0
8, 78720, Note_on_c, 4, 51, 88
8, 78778, Note_off_c, 4, 51, 0
8, 78780, Note_on_c, 4, 50, 88
8, 78838, Note_off_c, 4, 50, 0
8, 78840, Note_on_c, 4, 51, 88
8, 78898, Note_off_c, 4, 51, 0
8, 78900, Note_on_c, 4, 62, 88
8, 78958, Note_off_c, 4, 62, 0
8, 78960, Note_on_c, 4, 60, 88
8, 79018, Note_off_c, 4, 60, 0
8, 79020, Note_on_c, 4, 58, 88
8, 79078, Note_off_c, 4, 58, 0
8, 79080, Note_on_c, 4, 57, 88
8, 79138, Note_off_c, 4, 57, 0
8, 79140, Note_on_c, 4, 55, 88
8, 79198, Note_off_c, 4, 55, 0
8, 79200, Note_on_c, 4, 57, 88
8, 79258, Note_off_c, 4, 57, 0
8, 79260, Note_on_c, 4, 52, 88
8, 79318, Note_off_c, 4, 52, 0
8, 79320, Note_on_c, 4, 53, 88
8, 79378, Note_off_c, 4, 53, 0
8, 79380, Note_on_c, 4, 55, 88
8, 79438, Note_off_c, 4, 55, 0
8, 79440, Note_on_c, 4, 57, 88
8, 79498, Note_off_c, 4, 57, 0
8, 79500, Note_on_c, 4, 58, 88
8, 79558, Note_off_c, 4, 58, 0
8, 79560, Note_on_c, 4, 60, 88
8, 79618, Note_off_c, 4, 60, 0
8, 79620, Note_on_c, 4, 57, 88
8, 79678, Note_off_c, 4, 57, 0
8, 79680, Note_on_c, 4, 58, 88
8, 79738, Note_off_c, 4, 58, 0
8, 79740, Note_on_c, 4, 60, 88
8, 79798, Note_off_c, 4, 60, 0
8, 79800, Note_on_c, 4, 62, 88
8, 79858, Note_off_c, 4, 62, 0
8, 79860, Note_on_c, 4, 63, 88
8, 79918, Note_off_c, 4, 63, 0
8, 79920, Note_on_c, 4, 65, 88
8, 79978, Note_off_c, 4, 65, 0
8, 79980, Note_on_c, 4, 67, 88
8, 80038, Note_off_c, 4, 67, 0
8, 80040, Note_on_c, 4, 65, 88
8, 80098, Note_off_c, 4, 65, 0
8, 80100, Note_on_c, 4, 63, 88
8, 80158, Note_off_c, 4, 63, 0
8, 80160, Note_on_c, 4, 62, 88
8, 80218, Note_off_c, 4, 62, 0
8, 80220, Note_on_c, 4, 60, 88
8, 80278, Note_off_c, 4, 60, 0
8, 80280, Note_on_c, 4, 62, 88
8, 80338, Note_off_c, 4, 62, 0
8, 80340, Note_on_c, 4, 72, 88
8, 80398, Note_off_c, 4, 72, 0
8, 80400, Note_on_c, 4, 70, 88
8, 80458, Note_off_c, 4, 70, 0
8, 80460, Note_on_c, 4, 68, 88
8, 80518, Note_off_c, 4, 68, 0
8, 80520, Note_on_c, 4, 67, 88
8, 80578, Note_off_c, 4, 67, 0
8, 80580, Note_on_c, 4, 65, 88
8, 80638, Note_off_c, 4, 65, 0
8, 80640, Note_on_c, 4, 67, 88
8, 80698, Note_off_c, 4, 67, 0
8, 80700, Note_on_c, 4, 68, 88
8, 80758, Note_off_c, 4, 68, 0
8, 80760, Note_on_c, 4, 67, 88
8, 80818, Note_off_c, 4, 67, 0
8, 80820, Note_on_c, 4, 65, 88
8, 80878, Note_off_c, 4, 65, 0
8, 80880, Note_on_c, 4, 63, 88
8, 80938, Note_off_c, 4, 63, 0
8, 80940, Note_on_c, 4, 62, 88
8, 80998, Note_off_c, 4, 62, 0
8, 81000, Note_on_c, 4, 63, 88
8, 81058, Note_off_c, 4, 63, 0
8, 81060, Note_on_c, 4, 65, 88
8, 81118, Note_off_c, 4, 65, 0
8, 81120, Note_on_c, 4, 63, 88
8, 81178, Note_off_c, 4, 63, 0
8, 81180, Note_on_c, 4, 62, 88
8, 81238, Note_off_c, 4, 62, 0
8, 81240, Note_on_c, 4, 60, 88
8, 81298, Note_off_c, 4, 60, 0
8, 81300, Note_on_c, 4, 59, 88
8, 81358, Note_off_c, 4, 59, 0
8, 81360, Note_on_c, 4, 60, 88
8, 81418, Note_off_c, 4, 60, 0
8, 81420, Note_on_c, 4, 62, 88
8, 81478, Note_off_c, 4, 62, 0
8, 81480, Note_on_c, 4, 60, 88
8, 81538, Note_off_c, 4, 60, 0
8, 81540, Note_on_c, 4, 58, 88
8, 81598, Note_off_c, 4, 58, 0
8, 81600, Note_on_c, 4, 57, 88
8, 81658, Note_off_c, 4, 57, 0
8, 81660, Note_on_c, 4, 55, 88
8, 81718, Note_off_c, 4, 55, 0
8, 81720, Note_on_c, 4, 57, 88
8, 81778, Note_off_c, 4, 57, 0
8, 81780, Note_on_c, 4, 45, 88
8, 81838, Note_off_c, 4, 45, 0
8, 81840, Note_on_c, 4, 46, 88
8, 81898, Note_off_c, 4, 46, 0
8, 81900, Note_on_c, 4, 48, 88
8, 81958, Note_off_c, 4, 48, 0
8, 81960, Note_on_c, 4, 50, 88
8, 82018, Note_off_c, 4, 50, 0
8, 82020, Note_on_c, 4, 51, 88
8, 82078, Note_off_c, 4, 51, 0
8, 82080, Note_on_c, 4, 41, 88
8, 82374, Note_off_c, 4, 41, 0
8, 82380, Note_on_c, 4, 63, 88
8, 82438, Note_off_c, 4, 63, 0
8, 82440, Note_on_c, 4, 61, 88
8, 82556, Note_off_c, 4, 61, 0
8, 82560, Note_on_c, 4, 60, 88
8, 82618, Note_off_c, 4, 60, 0
8, 82620, Note_on_c, 4, 61, 88
8, 82678, Note_off_c, 4, 61, 0
8, 82680, Note_on_c, 4, 65, 88
8, 82738, Note_off_c, 4, 65, 0
8, 82740, Note_on_c, 4, 58, 88
8, 82798, Note_off_c, 4, 58, 0
8, 82800, Note_on_c, 4, 57, 88
8, 82916, Note_off_c, 4, 57, 0
8, 82920, Note_on_c, 4, 55, 88
8, 82978, Note_off_c, 4, 55, 0
8, 82980, Note_on_c, 4, 57, 88
8, 83038, Note_off_c, 4, 57, 0
8, 83040, Note_on_c, 4, 60, 88
8, 83098, Note_off_c, 4, 60, 0
8, 83100, Note_on_c, 4, 53, 88
8, 83158, Note_off_c, 4, 53, 0
8, 83160, Note_on_c, 4, 58, 88
8, 83218, Note_off_c, 4, 58, 0
8, 83220, Note_on_c, 4, 61, 88
8, 83278, Note_off_c, 4, 61, 0
8, 83280, Note_on_c, 4, 56, 88
8, 83338, Note_off_c, 4, 56, 0
8, 83340, Note_on_c, 4, 54, 88
8, 83398, Note_off_c, 4, 54, 0
8, 83400, Note_on_c, 4, 58, 88
8, 83458, Note_off_c, 4, 58, 0
8, 83460, Note_on_c, 4, 53, 88
8, 83518, Note_off_c, 4, 53, 0
8, 83520, Note_on_c, 4, 51, 88
8, 83754, Note_off_c, 4, 51, 0
8, 83760, Note_on_c, 4, 46, 88
8, 83818, Note_off_c, 4, 46, 0
8, 83820, Note_on_c, 4, 42, 88
8, 83878, Note_off_c, 4, 42, 0
8, 83880, Note_on_c, 4, 39, 88
8, 83938, Note_off_c, 4, 39, 0
8, 83940, Note_on_c, 4, 42, 88
8, 83998, Note_off_c, 4, 42, 0
8, 84000, Note_on_c, 4, 46, 88
8, 84058, Note_off_c, 4, 46, 0
8, 84060, Note_on_c, 4, 51, 88
8, 84118, Note_off_c, 4, 51, 0
8, 84120, Note_on_c, 4, 53, 88
8, 84178, Note_off_c, 4, 53, 0
8, 84180, Note_on_c, 4, 54, 88
8, 84298, Note_off_c, 4, 54, 0
8, 84300, Note_on_c, 4, 53, 88
8, 84358, Note_off_c, 4, 53, 0
8, 84360, Note_on_c, 4, 55, 88
8, 84418, Note_off_c, 4, 55, 0
8, 84420, Note_on_c, 4, 57, 88
8, 84478, Note_off_c, 4, 57, 0
8, 84480, Note_on_c, 4, 58, 88
8, 84538, Note_off_c, 4, 58, 0
8, 84540, Note_on_c, 4, 60, 88
8, 84598, Note_off_c, 4, 60, 0
8, 84600, Note_on_c, 4, 62, 88
8, 84658, Note_off_c, 4, 62, 0
8, 84660, Note_on_c, 4, 63, 88
8, 84718, Note_off_c, 4, 63, 0
8, 84720, Note_on_c, 4, 65, 88
8, 84778, Note_off_c, 4, 65, 0
8, 84780, Note_on_c, 4, 67, 88
8, 84838, Note_off_c, 4, 67, 0
8, 84840, Note_on_c, 4, 65, 88
8, 84898, Note_off_c, 4, 65, 0
8, 84900, Note_on_c, 4, 63, 88
8, 84958, Note_off_c, 4, 63, 0
8, 84960, Note_on_c, 4, 62, 88
8, 85018, Note_off_c, 4, 62, 0
8, 85020, Note_on_c, 4, 60, 88
8, 85078, Note_off_c, 4, 60, 0
8, 85080, Note_on_c, 4, 58, 88
8, 85138, Note_off_c, 4, 58, 0
8, 85140, Note_on_c, 4, 65, 88
8, 85256, Note_off_c, 4, 65, 0
8, 85260, Note_on_c, 4, 53, 88
8, 85318, Note_off_c, 4, 53, 0
8, 85320, Note_on_c, 4, 46, 88
8, 85378, Note_off_c, 4, 46, 0
8, 85380, Note_on_c, 4, 50, 88
8, 85438, Note_off_c, 4, 50, 0
8, 85440, Note_on_c, 4, 53, 88
8, 85498, Note_off_c, 4, 53, 0
8, 85500, Note_on_c, 4, 58, 88
8, 85675, Note_off_c, 4, 58, 0
8, 85680, Note_on_c, 4, 41, 88
8, 85738, Note_off_c, 4, 41, 0
8, 85740, Note_on_c, 4, 57, 88
8, 85798, Note_off_c, 4, 57, 0
8, 85800, Note_on_c, 4, 55, 88
8, 85858, Note_off_c, 4, 55, 0
8, 85860, Note_on_c, 4, 57, 88
8, 85918, Note_off_c, 4, 57, 0
8, 85920, Note_on_c, 4, 58, 88
8, 85978, Note_off_c, 4, 58, 0
8, 85980, Note_on_c, 4, 60, 88
8, 86038, Note_off_c, 4, 60, 0
8, 86040, Note_on_c, 4, 43, 88
8, 86098, Note_off_c, 4, 43, 0
8, 86100, Note_on_c, 4, 62, 88
8, 86158, Note_off_c, 4, 62, 0
8, 86160, Note_on_c, 4, 60, 88
8, 86218, Note_off_c, 4, 60, 0
8, 86220, Note_on_c, 4, 58, 88
8, 86278, Note_off_c, 4, 58, 0
8, 86280, Note_on_c, 4, 57, 88
8, 86338, Note_off_c, 4, 57, 0
8, 86340, Note_on_c, 4, 55, 88
8, 86398, Note_off_c, 4, 55, 0
8, 86400, Note_on_c, 4, 45, 88
8, 86458, Note_off_c, 4, 45, 0
8, 86460, Note_on_c, 4, 57, 88
8, 86518, Note_off_c, 4, 57, 0
8, 86520, Note_on_c, 4, 58, 88
8, 86578, Note_off_c, 4, 58, 0
8, 86580, Note_on_c, 4, 57, 88
8, 86638, Note_off_c, 4, 57, 0
8, 86640, Note_on_c, 4, 55, 88
8, 86698, Note_off_c, 4, 55, 0
8, 86700, Note_on_c, 4, 53, 88
8, 86758, Note_off_c, 4, 53, 0
8, 86760, Note_on_c, 4, 46, 88
8, 86818, Note_off_c, 4, 46, 0
8, 86820, Note_on_c, 4, 50, 88
8, 86878, Note_off_c, 4, 50, 0
8, 86880, Note_on_c, 4, 51, 88
8, 86938, Note_off_c, 4, 51, 0
8, 86940, Note_on_c, 4, 53, 88
8, 86998, Note_off_c, 4, 53, 0
8, 87000, Note_on_c, 4, 55, 88
8, 87058, Note_off_c, 4, 55, 0
8, 87060, Note_on_c, 4, 56, 88
8, 87118, Note_off_c, 4, 56, 0
8, 87120, Note_on_c, 4, 43, 88
8, 87178, Note_off_c, 4, 43, 0
8, 87180, Note_on_c, 4, 59, 88
8, 87238, Note_off_c, 4, 59, 0
8, 87240, Note_on_c, 4, 57, 88
8, 87298, Note_off_c, 4, 57, 0
8, 87300, Note_on_c, 4, 59, 88
8, 87358, Note_off_c, 4, 59, 0
8, 87360, Note_on_c, 4, 60, 88
8, 87418, Note_off_c, 4, 60, 0
8, 87420, Note_on_c, 4, 62, 88
8, 87478, Note_off_c, 4, 62, 0
8, 87480, Note_on_c, 4, 45, 88
8, 87538, Note_off_c, 4, 45, 0
8, 87540, Note_on_c, 4, 63, 88
8, 87598, Note_off_c, 4, 63, 0
8, 87600, Note_on_c, 4, 62, 88
8, 87658, Note_off_c, 4, 62, 0
8, 87660, Note_on_c, 4, 60, 88
8, 87718, Note_off_c, 4, 60, 0
8, 87720, Note_on_c, 4, 59, 88
8, 87778, Note_off_c, 4, 59, 0
8, 87780, Note_on_c, 4, 57, 88
8, 87838, Note_off_c, 4, 57, 0
8, 87840, Note_on_c, 4, 47, 88
8, 87898, Note_off_c, 4, 47, 0
8, 87900, Note_on_c, 4, 59, 88
8, 87958, Note_off_c, 4, 59, 0
8, 87960, Note_on_c, 4, 57, 88
8, 88018, Note_off_c, 4, 57, 0
8, 88020, Note_on_c, 4, 59, 88
8, 88078, Note_off_c, 4, 59, 0
8, 88080, Note_on_c, 4, 57, 88
8, 88138, Note_off_c, 4, 57, 0
8, 88140, Note_on_c, 4, 55, 88
8, 88198, Note_off_c, 4, 55, 0
8, 88200, Note_on_c, 4, 48, 88
8, 88258, Note_off_c, 4, 48, 0
8, 88260, Note_on_c, 4, 51, 88
8, 88318, Note_off_c, 4, 51, 0
8, 88320, Note_on_c, 4, 53, 88
8, 88378, Note_off_c, 4, 53, 0
8, 88380, Note_on_c, 4, 55, 88
8, 88438, Note_off_c, 4, 55, 0
8, 88440, Note_on_c, 4, 57, 88
8, 88498, Note_off_c, 4, 57, 0
8, 88500, Note_on_c, 4, 59, 88
8, 88558, Note_off_c, 4, 59, 0
8, 88560, Note_on_c, 4, 60, 88
8, 88735, Note_off_c, 4, 60, 0
8, 88740, Note_on_c, 4, 79, 88
8, 88915, Note_off_c, 4, 79, 0
8, 88920, Note_on_c, 4, 84, 88
8, 89095, Note_off_c, 4, 84, 0
8, 89100, Note_on_c, 4, 56, 88
8, 89275, Note_off_c, 4, 56, 0
8, 89280, Note_on_c, 4, 58, 88
8, 89455, Note_off_c, 4, 58, 0
8, 89460, Note_on_c, 4, 77, 88
8, 89635, Note_off_c, 4, 77, 0
8, 89640, Note_on_c, 4, 82, 88
8, 89815, Note_off_c, 4, 82, 0
8, 89820, Note_on_c, 4, 55, 88
8, 89995, Note_off_c, 4, 55, 0
8, 90000, Note_on_c, 4, 56, 88
8, 90175, Note_off_c, 4, 56, 0
8, 90180, Note_on_c, 4, 67, 88
8, 90238, Note_off_c, 4, 67, 0
8, 90240, Note_on_c, 4, 72, 88
8, 90298, Note_off_c, 4, 72, 0
8, 90300, Note_on_c, 4, 68, 88
8, 90358, Note_off_c, 4, 68, 0
8, 90360, Note_on_c, 4, 65, 88
8, 90418, Note_off_c, 4, 65, 0
8, 90420, Note_on_c, 4, 72, 88
8, 90478, Note_off_c, 4, 72, 0
8, 90480, Note_on_c, 4, 68, 88
8, 90538, Note_off_c, 4, 68, 0
8, 90540, Note_on_c, 4, 62, 88
8, 90598, Note_off_c, 4, 62, 0
8, 90600, Note_on_c, 4, 68, 88
8, 90658, Note_off_c, 4, 68, 0
8, 90660, Note_on_c, 4, 72, 88
8, 90718, Note_off_c, 4, 72, 0
8, 90720, Note_on_c, 4, 71, 88
8, 90778, Note_off_c, 4, 71, 0
8, 90780, Note_on_c, 4, 69, 88
8, 90838, Note_off_c, 4, 69, 0
8, 90840, Note_on_c, 4, 67, 88
8, 90898, Note_off_c, 4, 67, 0
8, 90900, Note_on_c, 4, 65, 88
8, 90958, Note_off_c, 4, 65, 0
8, 90960, Note_on_c, 4, 71, 88
8, 91018, Note_off_c, 4, 71, 0
8, 91020, Note_on_c, 4, 67, 88
8, 91078, Note_off_c, 4, 67, 0
8, 91080, Note_on_c, 4, 64, 88
8, 91138, Note_off_c, 4, 64, 0
8, 91140, Note_on_c, 4, 70, 88
8, 91198, Note_off_c, 4, 70, 0
8, 91200, Note_on_c, 4, 67, 88
8, 91258, Note_off_c, 4, 67, 0
8, 91260, Note_on_c, 4, 60, 88
8, 91318, Note_off_c, 4, 60, 0
8, 91320, Note_on_c, 4, 67, 88
8, 91378, Note_off_c, 4, 67, 0
8, 91380, Note_on_c, 4, 70, 88
8, 91438, Note_off_c, 4, 70, 0
8, 91440, Note_on_c, 4, 68, 88
8, 91498, Note_off_c, 4, 68, 0
8, 91500, Note_on_c, 4, 67, 88
8, 91558, Note_off_c, 4, 67, 0
8, 91560, Note_on_c, 4, 65, 88
8, 91618, Note_off_c, 4, 65, 0
8, 91620, Note_on_c, 4, 63, 88
8, 91678, Note_off_c, 4, 63, 0
8, 91680, Note_on_c, 4, 62, 88
8, 91738, Note_off_c, 4, 62, 0
8, 91740, Note_on_c, 4, 60, 88
8, 91798, Note_off_c, 4, 60, 0
8, 91800, Note_on_c, 4, 59, 88
8, 91975, Note_off_c, 4, 59, 0
8, 91980, Note_on_c, 4, 55, 88
8, 92155, Note_off_c, 4, 55, 0
8, 92160, Note_on_c, 4, 60, 88
8, 92335, Note_off_c, 4, 60, 0
8, 92340, Note_on_c, 4, 61, 88
8, 92515, Note_off_c, 4, 61, 0
8, 92520, Note_on_c, 4, 62, 88
8, 92754, Note_off_c, 4, 62, 0
8, 92760, Note_on_c, 4, 60, 88
8, 92818, Note_off_c, 4, 60, 0
8, 92820, Note_on_c, 4, 58, 88
8, 92878, Note_off_c, 4, 58, 0
8, 92880, Note_on_c, 4, 63, 88
8, 92938, Note_off_c, 4, 63, 0
8, 92940, Note_on_c, 4, 62, 88
8, 92998, Note_off_c, 4, 62, 0
8, 93000, Note_on_c, 4, 60, 88
8, 93058, Note_off_c, 4, 60, 0
8, 93060, Note_on_c, 4, 58, 88
8, 93118, Note_off_c, 4, 58, 0
8, 93120, Note_on_c, 4, 57, 88
8, 93178, Note_off_c, 4, 57, 0
8, 93180, Note_on_c, 4, 55, 88
8, 93238, Note_off_c, 4, 55, 0
8, 93240, Note_on_c, 4, 54, 88
8, 93298, Note_off_c, 4, 54, 0
8, 93300, Note_on_c, 4, 57, 88
8, 93358, Note_off_c, 4, 57, 0
8, 93360, Note_on_c, 4, 55, 88
8, 93418, Note_off_c, 4, 55, 0
8, 93420, Note_on_c, 4, 54, 88
8, 93478, Note_off_c, 4, 54, 0
8, 93480, Note_on_c, 4, 52, 88
8, 93538, Note_off_c, 4, 52, 0
8, 93540, Note_on_c, 4, 50, 88
8, 93598, Note_off_c, 4, 50, 0
8, 93600, Note_on_c, 4, 55, 88
8, 93834, Note_off_c, 4, 55, 0
8, 93840, Note_on_c, 4, 57, 88
8, 93898, Note_off_c, 4, 57, 0
8, 93900, Note_on_c, 4, 58, 88
8, 93958, Note_off_c, 4, 58, 0
8, 93960, Note_on_c, 4, 57, 88
8, 94018, Note_off_c, 4, 57, 0
8, 94020, Note_on_c, 4, 60, 88
8, 94078, Note_off_c, 4, 60, 0
8, 94080, Note_on_c, 4, 58, 88
8, 94138, Note_off_c, 4, 58, 0
8, 94140, Note_on_c, 4, 57, 88
8, 94198, Note_off_c, 4, 57, 0
8, 94200, Note_on_c, 4, 55, 88
8, 94258, Note_off_c, 4, 55, 0
8, 94260, Note_on_c, 4, 53, 88
8, 94318, Note_off_c, 4, 53, 0
8, 94320, Note_on_c, 4, 58, 88
8, 94378, Note_off_c, 4, 58, 0
8, 94380, Note_on_c, 4, 57, 88
8, 94438, Note_off_c, 4, 57, 0
8, 94440, Note_on_c, 4, 58, 88
8, 94498, Note_off_c, 4, 58, 0
8, 94500, Note_on_c, 4, 60, 88
8, 94558, Note_off_c, 4, 60, 0
8, 94560, Note_on_c, 4, 66, 88
8, 94618, Note_off_c, 4, 66, 0
8, 94620, Note_on_c, 4, 69, 88
8, 94678, Note_off_c, 4, 69, 0
8, 94680, Note_on_c, 4, 62, 88
8, 94738, Note_off_c, 4, 62, 0
8, 95100, Note_on_c, 4, 55, 88
8, 95158, Note_off_c, 4, 55, 0
8, 95160, Note_on_c, 4, 53, 88
8, 95218, Note_off_c, 4, 53, 0
8, 95220, Note_on_c, 4, 51, 88
8, 95278, Note_off_c, 4, 51, 0
8, 95280, Note_on_c, 4, 50, 88
8, 95338, Note_off_c, 4, 50, 0
8, 95340, Note_on_c, 4, 48, 88
8, 95398, Note_off_c, 4, 48, 0
8, 95400, Note_on_c, 4, 53, 88
8, 95516, Note_off_c, 4, 53, 0
8, 95820, Note_on_c, 4, 51, 88
8, 95878, Note_off_c, 4, 51, 0
8, 95880, Note_on_c, 4, 50, 88
8, 95938, Note_off_c, 4, 50, 0
8, 95940, Note_on_c, 4, 48, 88
8, 95998, Note_off_c, 4, 48, 0
8, 96000, Note_on_c, 4, 46, 88
8, 96058, Note_off_c, 4, 46, 0
8, 96060, Note_on_c, 4, 45, 88
8, 96118, Note_off_c, 4, 45, 0
8, 96120, Note_on_c, 4, 50, 88
8, 96295, Note_off_c, 4, 50, 0
8, 96300, Note_on_c, 4, 51, 88
8, 96596, Note_off_c, 4, 51, 0
8, 96600, Note_on_c, 4, 46, 88
8, 96658, Note_off_c, 4, 46, 0
8, 96660, Note_on_c, 4, 48, 88
8, 96776, Note_off_c, 4, 48, 0
8, 96780, Note_on_c, 4, 50, 88
8, 96838, Note_off_c, 4, 50, 0
8, 96840, Note_on_c, 4, 55, 88
8, 97074, Note_off_c, 4, 55, 0
8, 97080, Note_on_c, 4, 53, 88
8, 97138, Note_off_c, 4, 53, 0
8, 97140, Note_on_c, 4, 51, 88
8, 97198, Note_off_c, 4, 51, 0
8, 97200, Note_on_c, 4, 50, 88
8, 97375, Note_off_c, 4, 50, 0
8, 97380, Note_on_c, 4, 51, 88
8, 97555, Note_off_c, 4, 51, 0
8, 97560, Note_on_c, 4, 53, 88
8, 97735, Note_off_c, 4, 53, 0
8, 97740, Note_on_c, 4, 55, 88
8, 97915, Note_off_c, 4, 55, 0
8, 97920, Note_on_c, 4, 56, 88
8, 97978, Note_off_c, 4, 56, 0
8, 97980, Note_on_c, 4, 58, 88
8, 98038, Note_off_c, 4, 58, 0
8, 98040, Note_on_c, 4, 56, 88
8, 98098, Note_off_c, 4, 56, 0
8, 98100, Note_on_c, 4, 55, 88
8, 98158, Note_off_c, 4, 55, 0
8, 98160, Note_on_c, 4, 53, 88
8, 98218, Note_off_c, 4, 53, 0
8, 98220, Note_on_c, 4, 51, 88
8, 98278, Note_off_c, 4, 51, 0
8, 98280, Note_on_c, 4, 53, 88
8, 98338, Note_off_c, 4, 53, 0
8, 98340, Note_on_c, 4, 55, 88
8, 98398, Note_off_c, 4, 55, 0
8, 98400, Note_on_c, 4, 53, 88
8, 98458, Note_off_c, 4, 53, 0
8, 98460, Note_on_c, 4, 51, 88
8, 98518, Note_off_c, 4, 51, 0
8, 98520, Note_on_c, 4, 50, 88
8, 98578, Note_off_c, 4, 50, 0
8, 98580, Note_on_c, 4, 48, 88
8, 98638, Note_off_c, 4, 48, 0
8, 98640, Note_on_c, 4, 47, 88
8, 98756, Note_off_c, 4, 47, 0
8, 98820, Note_on_c, 4, 48, 88
8, 98936, Note_off_c, 4, 48, 0
8, 99000, Note_on_c, 4, 45, 88
8, 99116, Note_off_c, 4, 45, 0
8, 99180, Note_on_c, 4, 46, 88
8, 99238, Note_off_c, 4, 46, 0
8, 99240, Note_on_c, 4, 58, 88
8, 99298, Note_off_c, 4, 58, 0
8, 99300, Note_on_c, 4, 57, 88
8, 99358, Note_off_c, 4, 57, 0
8, 99360, Note_on_c, 4, 55, 88
8, 99418, Note_off_c, 4, 55, 0
8, 99420, Note_on_c, 4, 53, 88
8, 99478, Note_off_c, 4, 53, 0
8, 99480, Note_on_c, 4, 51, 88
8, 99538, Note_off_c, 4, 51, 0
8, 99540, Note_on_c, 4, 50, 88
8, 99598, Note_off_c, 4, 50, 0
8, 99600, Note_on_c, 4, 48, 88
8, 99658, Note_off_c, 4, 48, 0
8, 99660, Note_on_c, 4, 46, 88
8, 99718, Note_off_c, 4, 46, 0
8, 99720, Note_on_c, 4, 53, 88
8, 99954, Note_off_c, 4, 53, 0
8, 99960, Note_on_c, 4, 57, 88
8, 100018, Note_off_c, 4, 57, 0
8, 100020, Note_on_c, 4, 60, 88
8, 100078, Note_off_c, 4, 60, 0
8, 100080, Note_on_c, 4, 63, 88
8, 100138, Note_off_c, 4, 63, 0
8, 100140, Note_on_c, 4, 62, 88
8, 100198, Note_off_c, 4, 62, 0
8, 100200, Note_on_c, 4, 63, 88
8, 100258, Note_off_c, 4, 63, 0
8, 100260, Note_on_c, 4, 53, 88
8, 100318, Note_off_c, 4, 53, 0
8, 100320, Note_on_c, 4, 57, 88
8, 100378, Note_off_c, 4, 57, 0
8, 100380, Note_on_c, 4, 60, 88
8, 100438, Note_off_c, 4, 60, 0
8, 100440, Note_on_c, 4, 62, 88
8, 100498, Note_off_c, 4, 62, 0
8, 100500, Note_on_c, 4, 60, 88
8, 100558, Note_off_c, 4, 60, 0
8, 100560, Note_on_c, 4, 62, 88
8, 100618, Note_off_c, 4, 62, 0
8, 100620, Note_on_c, 4, 53, 88
8, 100678, Note_off_c, 4, 53, 0
8, 100680, Note_on_c, 4, 57, 88
8, 100738, Note_off_c, 4, 57, 0
8, 100740, Note_on_c, 4, 58, 88
8, 100798, Note_off_c, 4, 58, 0
8, 100800, Note_on_c, 4, 60, 88
8, 100858, Note_off_c, 4, 60, 0
8, 100860, Note_on_c, 4, 58, 88
8, 100918, Note_off_c, 4, 58, 0
8, 100920, Note_on_c, 4, 60, 88
8, 100978, Note_off_c, 4, 60, 0
8, 100980, Note_on_c, 4, 53, 88
8, 101038, Note_off_c, 4, 53, 0
8, 101040, Note_on_c, 4, 55, 88
8, 101098, Note_off_c, 4, 55, 0
8, 101100, Note_on_c, 4, 57, 88
8, 101158, Note_off_c, 4, 57, 0
8, 101160, Note_on_c, 4, 58, 88
8, 101218, Note_off_c, 4, 58, 0
8, 101220, Note_on_c, 4, 53, 88
8, 101278, Note_off_c, 4, 53, 0
8, 101280, Note_on_c, 4, 50, 88
8, 101338, Note_off_c, 4, 50, 0
8, 101340, Note_on_c, 4, 46, 88
8, 101398, Note_off_c, 4, 46, 0
8, 101400, Note_on_c, 4, 53, 88
8, 101458, Note_off_c, 4, 53, 0
8, 101460, Note_on_c, 4, 44, 88
8, 101518, Note_off_c, 4, 44, 0
8, 101520, Note_on_c, 4, 43, 88
8, 101578, Note_off_c, 4, 43, 0
8, 101580, Note_on_c, 4, 47, 88
8, 101638, Note_off_c, 4, 47, 0
8, 101640, Note_on_c, 4, 50, 88
8, 101698, Note_off_c, 4, 50, 0
8, 101700, Note_on_c, 4, 53, 88
8, 101758, Note_off_c, 4, 53, 0
8, 101760, Note_on_c, 4, 51, 88
8, 101818, Note_off_c, 4, 51, 0
8, 101820, Note_on_c, 4, 53, 88
8, 101878, Note_off_c, 4, 53, 0
8, 101880, Note_on_c, 4, 43, 88
8, 101938, Note_off_c, 4, 43, 0
8, 101940, Note_on_c, 4, 47, 88
8, 101998, Note_off_c, 4, 47, 0
8, 102000, Note_on_c, 4, 48, 88
8, 102058, Note_off_c, 4, 48, 0
8, 102060, Note_on_c, 4, 51, 88
8, 102118, Note_off_c, 4, 51, 0
8, 102120, Note_on_c, 4, 50, 88
8, 102178, Note_off_c, 4, 50, 0
8, 102180, Note_on_c, 4, 51, 88
8, 102238, Note_off_c, 4, 51, 0
8, 102240, Note_on_c, 4, 41, 88
8, 102298, Note_off_c, 4, 41, 0
8, 102300, Note_on_c, 4, 44, 88
8, 102358, Note_off_c, 4, 44, 0
8, 102360, Note_on_c, 4, 47, 88
8, 102418, Note_off_c, 4, 47, 0
8, 102420, Note_on_c, 4, 50, 88
8, 102478, Note_off_c, 4, 50, 0
8, 102480, Note_on_c, 4, 48, 88
8, 102538, Note_off_c, 4, 48, 0
8, 102540, Note_on_c, 4, 50, 88
8, 102598, Note_off_c, 4, 50, 0
8, 102600, Note_on_c, 4, 41, 88
8, 102658, Note_off_c, 4, 41, 0
8, 102660, Note_on_c, 4, 39, 88
8, 102718, Note_off_c, 4, 39, 0
8, 102720, Note_on_c, 4, 43, 88
8, 102778, Note_off_c, 4, 43, 0
8, 102780, Note_on_c, 4, 48, 88
8, 102838, Note_off_c, 4, 48, 0
8, 102840, Note_on_c, 4, 51, 88
8, 102898, Note_off_c, 4, 51, 0
8, 102900, Note_on_c, 4, 55, 88
8, 102958, Note_off_c, 4, 55, 0
8, 102960, Note_on_c, 4, 60, 88
8, 103194, Note_off_c, 4, 60, 0
8, 103200, Note_on_c, 4, 62, 88
8, 103258, Note_off_c, 4, 62, 0
8, 103260, Note_on_c, 4, 63, 88
8, 103318, Note_off_c, 4, 63, 0
8, 103320, Note_on_c, 4, 62, 88
8, 103378, Note_off_c, 4, 62, 0
8, 103380, Note_on_c, 4, 58, 88
8, 103438, Note_off_c, 4, 58, 0
8, 103440, Note_on_c, 4, 60, 88
8, 103498, Note_off_c, 4, 60, 0
8, 103500, Note_on_c, 4, 62, 88
8, 103558, Note_off_c, 4, 62, 0
8, 103560, Note_on_c, 4, 63, 88
8, 103618, Note_off_c, 4, 63, 0
8, 103620, Note_on_c, 4, 65, 88
8, 103678, Note_off_c, 4, 65, 0
8, 103680, Note_on_c, 4, 55, 88
8, 103914, Note_off_c, 4, 55, 0
8, 103920, Note_on_c, 4, 57, 88
8, 103978, Note_off_c, 4, 57, 0
8, 103980, Note_on_c, 4, 58, 88
8, 104038, Note_off_c, 4, 58, 0
8, 104040, Note_on_c, 4, 57, 88
8, 104098, Note_off_c, 4, 57, 0
8, 104100, Note_on_c, 4, 53, 88
8, 104158, Note_off_c, 4, 53, 0
8, 104160, Note_on_c, 4, 55, 88
8, 104218, Note_off_c, 4, 55, 0
8, 104220, Note_on_c, 4, 57, 88
8, 104278, Note_off_c, 4, 57, 0
8, 104280, Note_on_c, 4, 58, 88
8, 104338, Note_off_c, 4, 58, 0
8, 104340, Note_on_c, 4, 60, 88
8, 104398, Note_off_c, 4, 60, 0
8, 104400, Note_on_c, 4, 50, 88
8, 104634, Note_off_c, 4, 50, 0
8, 104640, Note_on_c, 4, 52, 88
8, 104698, Note_off_c, 4, 52, 0
8, 104700, Note_on_c, 4, 53, 88
8, 104758, Note_off_c, 4, 53, 0
8, 104760, Note_on_c, 4, 52, 88
8, 104818, Note_off_c, 4, 52, 0
8, 104820, Note_on_c, 4, 48, 88
8, 104878, Note_off_c, 4, 48, 0
8, 104880, Note_on_c, 4, 50, 88
8, 104938, Note_off_c, 4, 50, 0
8, 104940, Note_on_c, 4, 52, 88
8, 104998, Note_off_c, 4, 52, 0
8, 105000, Note_on_c, 4, 53, 88
8, 105058, Note_off_c, 4, 53, 0
8, 105060, Note_on_c, 4, 55, 88
8, 105118, Note_off_c, 4, 55, 0
8, 105120, Note_on_c, 4, 44, 88
8, 105354, Note_off_c, 4, 44, 0
8, 105360, Note_on_c, 4, 46, 88
8, 105418, Note_off_c, 4, 46, 0
8, 105420, Note_on_c, 4, 48, 88
8, 105478, Note_off_c, 4, 48, 0
8, 105480, Note_on_c, 4, 47, 88
8, 105538, Note_off_c, 4, 47, 0
8, 105540, Note_on_c, 4, 43, 88
8, 105598, Note_off_c, 4, 43, 0
8, 105600, Note_on_c, 4, 45, 88
8, 105658, Note_off_c, 4, 45, 0
8, 105660, Note_on_c, 4, 47, 88
8, 105718, Note_off_c, 4, 47, 0
8, 105720, Note_on_c, 4, 48, 88
8, 105778, Note_off_c, 4, 48, 0
8, 105780, Note_on_c, 4, 50, 88
8, 105838, Note_off_c, 4, 50, 0
8, 105840, Note_on_c, 4, 39, 88
8, 106074, Note_off_c, 4, 39, 0
8, 106080, Note_on_c, 4, 41, 88
8, 106138, Note_off_c, 4, 41, 0
8, 106140, Note_on_c, 4, 43, 88
8, 106198, Note_off_c, 4, 43, 0
8, 106200, Note_on_c, 4, 42, 88
8, 106258, Note_off_c, 4, 42, 0
8, 106260, Note_on_c, 4, 38, 88
8, 106318, Note_off_c, 4, 38, 0
8, 106320, Note_on_c, 4, 40, 88
8, 106378, Note_off_c, 4, 40, 0
8, 106380, Note_on_c, 4, 42, 88
8, 106438, Note_off_c, 4, 42, 0
8, 106440, Note_on_c, 4, 43, 88
8, 106498, Note_off_c, 4, 43, 0
8, 106500, Note_on_c, 4, 45, 88
8, 106558, Note_off_c, 4, 45, 0
8, 106560, Note_on_c, 4, 46, 88
8, 106618, Note_off_c, 4, 46, 0
8, 106620, Note_on_c, 4, 43, 88
8, 106678, Note_off_c, 4, 43, 0
8, 106680, Note_on_c, 4, 45, 88
8, 106738, Note_off_c, 4, 45, 0
8, 106740, Note_on_c, 4, 46, 88
8, 106798, Note_off_c, 4, 46, 0
8, 106800, Note_on_c, 4, 48, 88
8, 106858, Note_off_c, 4, 48, 0
8, 106860, Note_on_c, 4, 50, 88
8, 106918, Note_off_c, 4, 50, 0
8, 106920, Note_on_c, 4, 51, 88
8, 106978, Note_off_c, 4, 51, 0
8, 106980, Note_on_c, 4, 48, 88
8, 107038, Note_off_c, 4, 48, 0
8, 107040, Note_on_c, 4, 50, 88
8, 107098, Note_off_c, 4, 50, 0
8, 107100, Note_on_c, 4, 51, 88
8, 107158, Note_off_c, 4, 51, 0
8, 107160, Note_on_c, 4, 53, 88
8, 107218, Note_off_c, 4, 53, 0
8, 107220, Note_on_c, 4, 55, 88
8, 107278, Note_off_c, 4, 55, 0
8, 107280, Note_on_c, 4, 45, 88
8, 107338, Note_off_c, 4, 45, 0
8, 107340, Note_on_c, 4, 41, 88
8, 107398, Note_off_c, 4, 41, 0
8, 107400, Note_on_c, 4, 43, 88
8, 107458, Note_off_c, 4, 43, 0
8, 107460, Note_on_c, 4, 45, 88
8, 107518, Note_off_c, 4, 45, 0
8, 107520, Note_on_c, 4, 46, 88
8, 107578, Note_off_c, 4, 46, 0
8, 107580, Note_on_c, 4, 48, 88
8, 107638, Note_off_c, 4, 48, 0
8, 107640, Note_on_c, 4, 49, 88
8, 107698, Note_off_c, 4, 49, 0
8, 107700, Note_on_c, 4, 46, 88
8, 107758, Note_off_c, 4, 46, 0
8, 107760, Note_on_c, 4, 48, 88
8, 107818, Note_off_c, 4, 48, 0
8, 107820, Note_on_c, 4, 49, 88
8, 107878, Note_off_c, 4, 49, 0
8, 107880, Note_on_c, 4, 51, 88
8, 107938, Note_off_c, 4, 51, 0
8, 107940, Note_on_c, 4, 53, 88
8, 107998, Note_off_c, 4, 53, 0
8, 108000, Note_on_c, 4, 42, 88
8, 108175, Note_off_c, 4, 42, 0
8, 108180, Note_on_c, 4, 43, 88
8, 108355, Note_off_c, 4, 43, 0
8, 108360, Note_on_c, 4, 41, 88
8, 108418, Note_off_c, 4, 41, 0
8, 108420, Note_on_c, 4, 45, 88
8, 108478, Note_off_c, 4, 45, 0
8, 108480, Note_on_c, 4, 46, 88
8, 108538, Note_off_c, 4, 46, 0
8, 108540, Note_on_c, 4, 48, 88
8, 108598, Note_off_c, 4, 48, 0
8, 108600, Note_on_c, 4, 50, 88
8, 108658, Note_off_c, 4, 50, 0
8, 108660, Note_on_c, 4, 51, 88
8, 108718, Note_off_c, 4, 51, 0
8, 108720, Note_on_c, 4, 53, 88
8, 108895, Note_off_c, 4, 53, 0
8, 108900, Note_on_c, 4, 51, 88
8, 109075, Note_off_c, 4, 51, 0
8, 109080, Note_on_c, 4, 50, 88
8, 109255, Note_off_c, 4, 50, 0
8, 109260, Note_on_c, 4, 48, 88
8, 109435, Note_off_c, 4, 48, 0
8, 109440, Note_on_c, 4, 46, 88
8, 109498, Note_off_c, 4, 46, 0
8, 109500, Note_on_c, 4, 60, 88
8, 109558, Note_off_c, 4, 60, 0
8, 109560, Note_on_c, 4, 58, 88
8, 109618, Note_off_c, 4, 58, 0
8, 109620, Note_on_c, 4, 57, 88
8, 109678, Note_off_c, 4, 57, 0
8, 109680, Note_on_c, 4, 55, 88
8, 109738, Note_off_c, 4, 55, 0
8, 109740, Note_on_c, 4, 54, 88
8, 109798, Note_off_c, 4, 54, 0
8, 109800, Note_on_c, 4, 55, 88
8, 109975, Note_off_c, 4, 55, 0
8, 109980, Note_on_c, 4, 58, 88
8, 110155, Note_off_c, 4, 58, 0
8, 110160, Note_on_c, 4, 51, 88
8, 110335, Note_off_c, 4, 51, 0
8, 110340, Note_on_c, 4, 50, 88
8, 110515, Note_off_c, 4, 50, 0
8, 110520, Note_on_c, 4, 48, 88
8, 110695, Note_off_c, 4, 48, 0
8, 110700, Note_on_c, 4, 46, 88
8, 110875, Note_off_c, 4, 46, 0
8, 110880, Note_on_c, 4, 45, 88
8, 110938, Note_off_c, 4, 45, 0
8, 110940, Note_on_c, 4, 58, 88
8, 110998, Note_off_c, 4, 58, 0
8, 111000, Note_on_c, 4, 57, 88
8, 111058, Note_off_c, 4, 57, 0
8, 111060, Note_on_c, 4, 55, 88
8, 111118, Note_off_c, 4, 55, 0
8, 111120, Note_on_c, 4, 53, 88
8, 111178, Note_off_c, 4, 53, 0
8, 111180, Note_on_c, 4, 52, 88
8, 111238, Note_off_c, 4, 52, 0
8, 111240, Note_on_c, 4, 53, 88
8, 111298, Note_off_c, 4, 53, 0
8, 111300, Note_on_c, 4, 41, 88
8, 111358, Note_off_c, 4, 41, 0
8, 111360, Note_on_c, 4, 43, 88
8, 111418, Note_off_c, 4, 43, 0
8, 111420, Note_on_c, 4, 45, 88
8, 111478, Note_off_c, 4, 45, 0
8, 111480, Note_on_c, 4, 46, 88
8, 111538, Note_off_c, 4, 46, 0
8, 111540, Note_on_c, 4, 48, 88
8, 111598, Note_off_c, 4, 48, 0
8, 111600, Note_on_c, 4, 50, 88
8, 111775, Note_off_c, 4, 50, 0
8, 111780, Note_on_c, 4, 48, 88
8, 111955, Note_off_c, 4, 48, 0
8, 111960, Note_on_c, 4, 46, 88
8, 112135, Note_off_c, 4, 46, 0
8, 112140, Note_on_c, 4, 45, 88
8, 112315, Note_off_c, 4, 45, 0
8, 112320, Note_on_c, 4, 43, 88
8, 112378, Note_off_c, 4, 43, 0
8, 112380, Note_on_c, 4, 68, 88
8, 112438, Note_off_c, 4, 68, 0
8, 112440, Note_on_c, 4, 67, 88
8, 112498, Note_off_c, 4, 67, 0
8, 112500, Note_on_c, 4, 65, 88
8, 112558, Note_off_c, 4, 65, 0
8, 112560, Note_on_c, 4, 63, 88
8, 112618, Note_off_c, 4, 63, 0
8, 112620, Note_on_c, 4, 62, 88
8, 112678, Note_off_c, 4, 62, 0
8, 112680, Note_on_c, 4, 63, 88
8, 112738, Note_off_c, 4, 63, 0
8, 112740, Note_on_c, 4, 65, 88
8, 112798, Note_off_c, 4, 65, 0
8, 112800, Note_on_c, 4, 63, 88
8, 112858, Note_off_c, 4, 63, 0
8, 112860, Note_on_c, 4, 62, 88
8, 112918, Note_off_c, 4, 62, 0
8, 112920, Note_on_c, 4, 60, 88
8, 112978, Note_off_c, 4, 60, 0
8, 112980, Note_on_c, 4, 59, 88
8, 113038, Note_off_c, 4, 59, 0
8, 113040, Note_on_c, 4, 60, 88
8, 113098, Note_off_c, 4, 60, 0
8, 113100, Note_on_c, 4, 62, 88
8, 113158, Note_off_c, 4, 62, 0
8, 113160, Note_on_c, 4, 60, 88
8, 113218, Note_off_c, 4, 60, 0
8, 113220, Note_on_c, 4, 58, 88
8, 113278, Note_off_c, 4, 58, 0
8, 113280, Note_on_c, 4, 57, 88
8, 113338, Note_off_c, 4, 57, 0
8, 113340, Note_on_c, 4, 55, 88
8, 113398, Note_off_c, 4, 55, 0
8, 113400, Note_on_c, 4, 57, 88
8, 113458, Note_off_c, 4, 57, 0
8, 113460, Note_on_c, 4, 58, 88
8, 113518, Note_off_c, 4, 58, 0
8, 113520, Note_on_c, 4, 57, 88
8, 113578, Note_off_c, 4, 57, 0
8, 113580, Note_on_c, 4, 55, 88
8, 113638, Note_off_c, 4, 55, 0
8, 113640, Note_on_c, 4, 53, 88
8, 113698, Note_off_c, 4, 53, 0
8, 113700, Note_on_c, 4, 52, 88
8, 113758, Note_off_c, 4, 52, 0
8, 113760, Note_on_c, 4, 53, 88
8, 113818, Note_off_c, 4, 53, 0
8, 113820, Note_on_c, 4, 55, 88
8, 113878, Note_off_c, 4, 55, 0
8, 113880, Note_on_c, 4, 53, 88
8, 113938, Note_off_c, 4, 53, 0
8, 113940, Note_on_c, 4, 51, 88
8, 113998, Note_off_c, 4, 51, 0
8, 114000, Note_on_c, 4, 50, 88
8, 114058, Note_off_c, 4, 50, 0
8, 114060, Note_on_c, 4, 48, 88
8, 114118, Note_off_c, 4, 48, 0
8, 114120, Note_on_c, 4, 50, 88
8, 114178, Note_off_c, 4, 50, 0
8, 114180, Note_on_c, 4, 51, 88
8, 114238, Note_off_c, 4, 51, 0
8, 114240, Note_on_c, 4, 50, 88
8, 114298, Note_off_c, 4, 50, 0
8, 114300, Note_on_c, 4, 48, 88
8, 114358, Note_off_c, 4, 48, 0
8, 114360, Note_on_c, 4, 46, 88
8, 114418, Note_off_c, 4, 46, 0
8, 114420, Note_on_c, 4, 45, 88
8, 114478, Note_off_c, 4, 45, 0
8, 114480, Note_on_c, 4, 46, 88
8, 114538, Note_off_c, 4, 46, 0
8, 114540, Note_on_c, 4, 48, 88
8, 114598, Note_off_c, 4, 48, 0
8, 114600, Note_on_c, 4, 46, 88
8, 114658, Note_off_c, 4, 46, 0
8, 114660, Note_on_c, 4, 45, 88
8, 114718, Note_off_c, 4, 45, 0
8, 114720, Note_on_c, 4, 43, 88
8, 114778, Note_off_c, 4, 43, 0
8, 114780, Note_on_c, 4, 42, 88
8, 114838, Note_off_c, 4, 42, 0
8, 114840, Note_on_c, 4, 43, 88
8, 114898, Note_off_c, 4, 43, 0
8, 114900, Note_on_c, 4, 45, 88
8, 114958, Note_off_c, 4, 45, 0
8, 114960, Note_on_c, 4, 43, 88
8, 115018, Note_off_c, 4, 43, 0
8, 115020, Note_on_c, 4, 41, 88
8, 115078, Note_off_c, 4, 41, 0
8, 115080, Note_on_c, 4, 39, 88
8, 115138, Note_off_c, 4, 39, 0
8, 115140, Note_on_c, 4, 38, 88
8, 115198, Note_off_c, 4, 38, 0
8, 115200, Note_on_c, 4, 39, 88
8, 115316, Note_off_c, 4, 39, 0
8, 115920, Note_on_c, 4, 51, 88
8, 116095, Note_off_c, 4, 51, 0
8, 116640, Note_on_c, 4, 51, 88
8, 116815, Note_off_c, 4, 51, 0
8, 117060, Note_on_c, 4, 51, 88
8, 117118, Note_off_c, 4, 51, 0
8, 117120, Note_on_c, 4, 50, 88
8, 117178, Note_off_c, 4, 50, 0
8, 117180, Note_on_c, 4, 48, 88
8, 117238, Note_off_c, 4, 48, 0
8, 117240, Note_on_c, 4, 46, 88
8, 117298, Note_off_c, 4, 46, 0
8, 117300, Note_on_c, 4, 45, 88
8, 117358, Note_off_c, 4, 45, 0
8, 117360, Note_on_c, 4, 46, 88
8, 117418, Note_off_c, 4, 46, 0
8, 117420, Note_on_c, 4, 41, 88
8, 117478, Note_off_c, 4, 41, 0
8, 117480, Note_on_c, 4, 43, 88
8, 117538, Note_off_c, 4, 43, 0
8, 117540, Note_on_c, 4, 45, 88
8, 117598, Note_off_c, 4, 45, 0
8, 117600, Note_on_c, 4, 46, 88
8, 117658, Note_off_c, 4, 46, 0
8, 117660, Note_on_c, 4, 48, 88
8, 117718, Note_off_c, 4, 48, 0
8, 117720, Note_on_c, 4, 50, 88
8, 117778, Note_off_c, 4, 50, 0
8, 117780, Note_on_c, 4, 46, 88
8, 117838, Note_off_c, 4, 46, 0
8, 117840, Note_on_c, 4, 48, 88
8, 117898, Note_off_c, 4, 48, 0
8, 117900, Note_on_c, 4, 50, 88
8, 117958, Note_off_c, 4, 50, 0
8, 117960, Note_on_c, 4, 51, 88
8, 118018, Note_off_c, 4, 51, 0
8, 118020, Note_on_c, 4, 53, 88
8, 118078, Note_off_c, 4, 53, 0
8, 118080, Note_on_c, 4, 55, 88
8, 118138, Note_off_c, 4, 55, 0
8, 118140, Note_on_c, 4, 56, 88
8, 118198, Note_off_c, 4, 56, 0
8, 118200, Note_on_c, 4, 55, 88
8, 118258, Note_off_c, 4, 55, 0
8, 118260, Note_on_c, 4, 53, 88
8, 118318, Note_off_c, 4, 53, 0
8, 118320, Note_on_c, 4, 51, 88
8, 118378, Note_off_c, 4, 51, 0
8, 118380, Note_on_c, 4, 50, 88
8, 118438, Note_off_c, 4, 50, 0
8, 118440, Note_on_c, 4, 51, 88
8, 118498, Note_off_c, 4, 51, 0
8, 118500, Note_on_c, 4, 62, 88
8, 118558, Note_off_c, 4, 62, 0
8, 118560, Note_on_c, 4, 60, 88
8, 118618, Note_off_c, 4, 60, 0
8, 118620, Note_on_c, 4, 58, 88
8, 118678, Note_off_c, 4, 58, 0
8, 118680, Note_on_c, 4, 57, 88
8, 118738, Note_off_c, 4, 57, 0
8, 118740, Note_on_c, 4, 55, 88
8, 118798, Note_off_c, 4, 55, 0
8, 118800, Note_on_c, 4, 57, 88
8, 118858, Note_off_c, 4, 57, 0
8, 118860, Note_on_c, 4, 52, 88
8, 118918, Note_off_c, 4, 52, 0
8, 118920, Note_on_c, 4, 53, 88
8, 118978, Note_off_c, 4, 53, 0
8, 118980, Note_on_c, 4, 55, 88
8, 119038, Note_off_c, 4, 55, 0
8, 119040, Note_on_c, 4, 57, 88
8, 119098, Note_off_c, 4, 57, 0
8, 119100, Note_on_c, 4, 58, 88
8, 119158, Note_off_c, 4, 58, 0
8, 119160, Note_on_c, 4, 60, 88
8, 119218, Note_off_c, 4, 60, 0
8, 119220, Note_on_c, 4, 57, 88
8, 119278, Note_off_c, 4, 57, 0
8, 119280, Note_on_c, 4, 58, 88
8, 119338, Note_off_c, 4, 58, 0
8, 119340, Note_on_c, 4, 60, 88
8, 119398, Note_off_c, 4, 60, 0
8, 119400, Note_on_c, 4, 62, 88
8, 119458, Note_off_c, 4, 62, 0
8, 119460, Note_on_c, 4, 63, 88
8, 119518, Note_off_c, 4, 63, 0
8, 119520, Note_on_c, 4, 65, 88
8, 119578, Note_off_c, 4, 65, 0
8, 119580, Note_on_c, 4, 67, 88
8, 119638, Note_off_c, 4, 67, 0
8, 119640, Note_on_c, 4, 65, 88
8, 119698, Note_off_c, 4, 65, 0
8, 119700, Note_on_c, 4, 63, 88
8, 119758, Note_off_c, 4, 63, 0
8, 119760, Note_on_c, 4, 62, 88
8, 119818, Note_off_c, 4, 62, 0
8, 119820, Note_on_c, 4, 60, 88
8, 119878, Note_off_c, 4, 60, 0
8, 119880, Note_on_c, 4, 62, 88
8, 119938, Note_off_c, 4, 62, 0
8, 119940, Note_on_c, 4, 72, 88
8, 119998, Note_off_c, 4, 72, 0
8, 120000, Note_on_c, 4, 70, 88
8, 120058, Note_off_c, 4, 70, 0
8, 120060, Note_on_c, 4, 68, 88
8, 120118, Note_off_c, 4, 68, 0
8, 120120, Note_on_c, 4, 67, 88
8, 120178, Note_off_c, 4, 67, 0
8, 120180, Note_on_c, 4, 65, 88
8, 120238, Note_off_c, 4, 65, 0
8, 120240, Note_on_c, 4, 67, 88
8, 120298, Note_off_c, 4, 67, 0
8, 120300, Note_on_c, 4, 68, 88
8, 120358, Note_off_c, 4, 68, 0
8, 120360, Note_on_c, 4, 67, 88
8, 120418, Note_off_c, 4, 67, 0
8, 120420, Note_on_c, 4, 65, 88
8, 120478, Note_off_c, 4, 65, 0
8, 120480, Note_on_c, 4, 63, 88
8, 120538, Note_off_c, 4, 63, 0
8, 120540, Note_on_c, 4, 62, 88
8, 120598, Note_off_c, 4, 62, 0
8, 120600, Note_on_c, 4, 63, 88
8, 120658, Note_off_c, 4, 63, 0
8, 120660, Note_on_c, 4, 65, 88
8, 120718, Note_off_c, 4, 65, 0
8, 120720, Note_on_c, 4, 63, 88
8, 120778, Note_off_c, 4, 63, 0
8, 120780, Note_on_c, 4, 62, 88
8, 120838, Note_off_c, 4, 62, 0
8, 120840, Note_on_c, 4, 60, 88
8, 120898, Note_off_c, 4, 60, 0
8, 120900, Note_on_c, 4, 59, 88
8, 120958, Note_off_c, 4, 59, 0
8, 120960, Note_on_c, 4, 60, 88
8, 121018, Note_off_c, 4, 60, 0
8, 121020, Note_on_c, 4, 62, 88
8, 121078, Note_off_c, 4, 62, 0
8, 121080, Note_on_c, 4, 60, 88
8, 121138, Note_off_c, 4, 60, 0
8, 121140, Note_on_c, 4, 58, 88
8, 121198, Note_off_c, 4, 58, 0
8, 121200, Note_on_c, 4, 57, 88
8, 121258, Note_off_c, 4, 57, 0
8, 121260, Note_on_c, 4, 55, 88
8, 121318, Note_off_c, 4, 55, 0
8, 121320, Note_on_c, 4, 57, 88
8, 121378, Note_off_c, 4, 57, 0
8, 121380, Note_on_c, 4, 45, 88
8, 121438, Note_off_c, 4, 45, 0
8, 121440, Note_on_c, 4, 46, 88
8, 121498, Note_off_c, 4, 46, 0
8, 121500, Note_on_c, 4, 48, 88
8, 121558, Note_off_c, 4, 48, 0
8, 121560, Note_on_c, 4, 50, 88
8, 121618, Note_off_c, 4, 50, 0
8, 121620, Note_on_c, 4, 51, 88
8, 121678, Note_off_c, 4, 51, 0
8, 121680, Note_on_c, 4, 41, 88
8, 121974, Note_off_c, 4, 41, 0
8, 121980, Note_on_c, 4, 63, 88
8, 122038, Note_off_c, 4, 63, 0
8, 122040, Note_on_c, 4, 61, 88
8, 122156, Note_off_c, 4, 61, 0
8, 122160, Note_on_c, 4, 60, 88
8, 122218, Note_off_c, 4, 60, 0
8, 122220, Note_on_c, 4, 61, 88
8, 122278, Note_off_c, 4, 61, 0
8, 122280, Note_on_c, 4, 65, 88
8, 122338, Note_off_c, 4, 65, 0
8, 122340, Note_on_c, 4, 58, 88
8, 122398, Note_off_c, 4, 58, 0
8, 122400, Note_on_c, 4, 57, 88
8, 122516, Note_off_c, 4, 57, 0
8, 122520, Note_on_c, 4, 55, 88
8, 122578, Note_off_c, 4, 55, 0
8, 122580, Note_on_c, 4, 57, 88
8, 122638, Note_off_c, 4, 57, 0
8, 122640, Note_on_c, 4, 60, 88
8, 122698, Note_off_c, 4, 60, 0
8, 122700, Note_on_c, 4, 53, 88
8, 122758, Note_off_c, 4, 53, 0
8, 122760, Note_on_c, 4, 58, 88
8, 122818, Note_off_c, 4, 58, 0
8, 122820, Note_on_c, 4, 61, 88
8, 122878, Note_off_c, 4, 61, 0
8, 122880, Note_on_c, 4, 56, 88
8, 122938, Note_off_c, 4, 56, 0
8, 122940, Note_on_c, 4, 54, 88
8, 122998, Note_off_c, 4, 54, 0
8, 123000, Note_on_c, 4, 58, 88
8, 123058, Note_off_c, 4, 58, 0
8, 123060, Note_on_c, 4, 53, 88
8, 123118, Note_off_c, 4, 53, 0
8, 123120, Note_on_c, 4, 51, 88
8, 123354, Note_off_c, 4, 51, 0
8, 123360, Note_on_c, 4, 46, 88
8, 123418, Note_off_c, 4, 46, 0
8, 123420, Note_on_c, 4, 42, 88
8, 123478, Note_off_c, 4, 42, 0
8, 123480, Note_on_c, 4, 39, 88
8, 123538, Note_off_c, 4, 39, 0
8, 123540, Note_on_c, 4, 42, 88
8, 123598, Note_off_c, 4, 42, 0
8, 123600, Note_on_c, 4, 46, 88
8, 123658, Note_off_c, 4, 46, 0
8, 123660, Note_on_c, 4, 51, 88
8, 123718, Note_off_c, 4, 51, 0
8, 123720, Note_on_c, 4, 53, 88
8, 123778, Note_off_c, 4, 53, 0
8, 123780, Note_on_c, 4, 54, 88
8, 123898, Note_off_c, 4, 54, 0
8, 123900, Note_on_c, 4, 53, 88
8, 123958, Note_off_c, 4, 53, 0
8, 123960, Note_on_c, 4, 55, 88
8, 124018, Note_off_c, 4, 55, 0
8, 124020, Note_on_c, 4, 57, 88
8, 124078, Note_off_c, 4, 57, 0
8, 124080, Note_on_c, 4, 58, 88
8, 124138, Note_off_c, 4, 58, 0
8, 124140, Note_on_c, 4, 60, 88
8, 124198, Note_off_c, 4, 60, 0
8, 124200, Note_on_c, 4, 62, 88
8, 124258, Note_off_c, 4, 62, 0
8, 124260, Note_on_c, 4, 63, 88
8, 124318, Note_off_c, 4, 63, 0
8, 124320, Note_on_c, 4, 65, 88
8, 124378, Note_off_c, 4, 65, 0
8, 124380, Note_on_c, 4, 67, 88
8, 124438, Note_off_c, 4, 67, 0
8, 124440, Note_on_c, 4, 65, 88
8, 124498, Note_off_c, 4, 65, 0
8, 124500, Note_on_c, 4, 63, 88
8, 124558, Note_off_c, 4, 63, 0
8, 124560, Note_on_c, 4, 62, 88
8, 124618, Note_off_c, 4, 62, 0
8, 124620, Note_on_c, 4, 60, 88
8, 124678, Note_off_c, 4, 60, 0
8, 124680, Note_on_c, 4, 58, 88
8, 124738, Note_off_c, 4, 58, 0
8, 124740, Note_on_c, 4, 65, 88
8, 124856, Note_off_c, 4, 65, 0
8, 124860, Note_on_c, 4, 53, 88
8, 124918, Note_off_c, 4, 53, 0
8, 124920, Note_on_c, 4, 46, 88
8, 124978, Note_off_c, 4, 46, 0
8, 124980, Note_on_c, 4, 50, 88
8, 125038, Note_off_c, 4, 50, 0
8, 125040, Note_on_c, 4, 53, 88
8, 125098, Note_off_c, 4, 53, 0
8, 125100, Note_on_c, 4, 58, 88
8, 125275, Note_off_c, 4, 58, 0
8, 125275, End_track
0, 0, End_of_file
