0, 0, Header, 1, 6, 240
1, 0, Start_track
1, 0, Time_signature, 2, 1, 24, 8
1, 0, Tempo, 789473
1, 0, SMPTE_offset, 64, 0, 0, 0, 93
1, 0, End_track
2, 0, Start_track
2, 0, Title_t, "(C) & (P) 1993"
2, 127, End_track
3, 0, Start_track
3, 0, Title_t, "CCARH,Stanford"
3, 0, End_track
4, 0, Start_track
4, 0, Title_t, "Track 1"
4, 0, Program_c, 0, 6
4, 2400, Note_on_c, 0, 82, 88
4, 2516, Note_off_c, 0, 82, 0
4, 2520, Note_on_c, 0, 80, 88
4, 2636, Note_off_c, 0, 80, 0
4, 2640, Note_on_c, 0, 78, 88
4, 2756, Note_off_c, 0, 78, 0
4, 2760, Note_on_c, 0, 77, 88
4, 2876, Note_off_c, 0, 77, 0
4, 2880, Note_on_c, 0, 78, 88
4, 2996, Note_off_c, 0, 78, 0
4, 3000, Note_on_c, 0, 77, 88
4, 3116, Note_off_c, 0, 77, 0
4, 3120, Note_on_c, 0, 75, 88
4, 3236, Note_off_c, 0, 75, 0
4, 3240, Note_on_c, 0, 73, 88
4, 3356, Note_off_c, 0, 73, 0
4, 3360, Note_on_c, 0, 72, 88
4, 3476, Note_off_c, 0, 72, 0
4, 3480, Note_on_c, 0, 77, 88
4, 3596, Note_off_c, 0, 77, 0
4, 3600, Note_on_c, 0, 75, 88
4, 3716, Note_off_c, 0, 75, 0
4, 3720, Note_on_c, 0, 77, 88
4, 3836, Note_off_c, 0, 77, 0
4, 3840, Note_on_c, 0, 73, 88
4, 4074, Note_off_c, 0, 73, 0
4, 4080, Note_on_c, 0, 65, 88
4, 4314, Note_off_c, 0, 65, 0
4, 4440, Note_on_c, 0, 73, 88
4, 4556, Note_off_c, 0, 73, 0
4, 4560, Note_on_c, 0, 72, 88
4, 4676, Note_off_c, 0, 72, 0
4, 4680, Note_on_c, 0, 73, 88
4, 4796, Note_off_c, 0, 73, 0
4, 4800, Note_on_c, 0, 75, 88
4, 5034, Note_off_c, 0, 75, 0
4, 5040, Note_on_c, 0, 70, 88
4, 5274, Note_off_c, 0, 70, 0
4, 5280, Note_on_c, 0, 73, 88
4, 5309, Note_off_c, 0, 73, 0
4, 5310, Note_on_c, 0, 72, 88
4, 5339, Note_off_c, 0, 72, 0
4, 5340, Note_on_c, 0, 73, 88
4, 5369, Note_off_c, 0, 73, 0
4, 5370, Note_on_c, 0, 72, 88
4, 5399, Note_off_c, 0, 72, 0
4, 5400, Note_on_c, 0, 73, 88
4, 5429, Note_off_c, 0, 73, 0
4, 5430, Note_on_c, 0, 72, 88
4, 5459, Note_off_c, 0, 72, 0
4, 5460, Note_on_c, 0, 73, 88
4, 5489, Note_off_c, 0, 73, 0
4, 5490, Note_on_c, 0, 72, 88
4, 5519, Note_off_c, 0, 72, 0
4, 5520, Note_on_c, 0, 73, 88
4, 5549, Note_off_c, 0, 73, 0
4, 5550, Note_on_c, 0, 72, 88
4, 5579, Note_off_c, 0, 72, 0
4, 5580, Note_on_c, 0, 73, 88
4, 5609, Note_off_c, 0, 73, 0
4, 5610, Note_on_c, 0, 72, 88
4, 5639, Note_off_c, 0, 72, 0
4, 5640, Note_on_c, 0, 73, 88
4, 5669, Note_off_c, 0, 73, 0
4, 5670, Note_on_c, 0, 72, 88
4, 5699, Note_off_c, 0, 72, 0
4, 5700, Note_on_c, 0, 70, 88
4, 5729, Note_off_c, 0, 70, 0
4, 5730, Note_on_c, 0, 72, 88
4, 5759, Note_off_c, 0, 72, 0
4, 5760, Note_on_c, 0, 73, 88
4, 5994, Note_off_c, 0, 73, 0
4, 6720, Note_on_c, 0, 80, 88
4, 6836, Note_off_c, 0, 80, 0
4, 6840, Note_on_c, 0, 79, 88
4, 6956, Note_off_c, 0, 79, 0
4, 6960, Note_on_c, 0, 77, 88
4, 7076, Note_off_c, 0, 77, 0
4, 7080, Note_on_c, 0, 76, 88
4, 7196, Note_off_c, 0, 76, 0
4, 7200, Note_on_c, 0, 77, 88
4, 7229, Note_off_c, 0, 77, 0
4, 7230, Note_on_c, 0, 76, 88
4, 7274, Note_off_c, 0, 76, 0
4, 7275, Note_on_c, 0, 77, 88
4, 7436, Note_off_c, 0, 77, 0
4, 7440, Note_on_c, 0, 72, 88
4, 7674, Note_off_c, 0, 72, 0
4, 7680, Note_on_c, 0, 73, 88
4, 7914, Note_off_c, 0, 73, 0
4, 7920, Note_on_c, 0, 70, 88
4, 8154, Note_off_c, 0, 70, 0
4, 8160, Note_on_c, 0, 68, 88
4, 8189, Note_off_c, 0, 68, 0
4, 8190, Note_on_c, 0, 67, 88
4, 8219, Note_off_c, 0, 67, 0
4, 8220, Note_on_c, 0, 68, 88
4, 8249, Note_off_c, 0, 68, 0
4, 8250, Note_on_c, 0, 67, 88
4, 8279, Note_off_c, 0, 67, 0
4, 8280, Note_on_c, 0, 68, 88
4, 8309, Note_off_c, 0, 68, 0
4, 8310, Note_on_c, 0, 67, 88
4, 8397, Note_off_c, 0, 67, 0
4, 8400, Note_on_c, 0, 72, 88
4, 8634, Note_off_c, 0, 72, 0
4, 8640, Note_on_c, 0, 68, 88
4, 8874, Note_off_c, 0, 68, 0
4, 8880, Note_on_c, 0, 65, 88
4, 9114, Note_off_c, 0, 65, 0
4, 9120, Note_on_c, 0, 77, 88
4, 9345, Note_off_c, 0, 77, 0
4, 9360, Note_on_c, 0, 77, 88
4, 9594, Note_off_c, 0, 77, 0
4, 9600, Note_on_c, 0, 77, 88
4, 9629, Note_off_c, 0, 77, 0
4, 9630, Note_on_c, 0, 76, 88
4, 9674, Note_off_c, 0, 76, 0
4, 9675, Note_on_c, 0, 77, 88
4, 9836, Note_off_c, 0, 77, 0
4, 9840, Note_on_c, 0, 76, 88
4, 9956, Note_off_c, 0, 76, 0
4, 9960, Note_on_c, 0, 77, 88
4, 10076, Note_off_c, 0, 77, 0
4, 10080, Note_on_c, 0, 79, 88
4, 10305, Note_off_c, 0, 79, 0
4, 10320, Note_on_c, 0, 79, 88
4, 10554, Note_off_c, 0, 79, 0
4, 10560, Note_on_c, 0, 79, 88
4, 10589, Note_off_c, 0, 79, 0
4, 10590, Note_on_c, 0, 77, 88
4, 10634, Note_off_c, 0, 77, 0
4, 10635, Note_on_c, 0, 79, 88
4, 10796, Note_off_c, 0, 79, 0
4, 10800, Note_on_c, 0, 77, 88
4, 10916, Note_off_c, 0, 77, 0
4, 10920, Note_on_c, 0, 79, 88
4, 11036, Note_off_c, 0, 79, 0
4, 11040, Note_on_c, 0, 80, 88
4, 11265, Note_off_c, 0, 80, 0
4, 11280, Note_on_c, 0, 80, 88
4, 11514, Note_off_c, 0, 80, 0
4, 11520, Note_on_c, 0, 80, 88
4, 11549, Note_off_c, 0, 80, 0
4, 11550, Note_on_c, 0, 79, 88
4, 11594, Note_off_c, 0, 79, 0
4, 11595, Note_on_c, 0, 80, 88
4, 11756, Note_off_c, 0, 80, 0
4, 11760, Note_on_c, 0, 77, 88
4, 11994, Note_off_c, 0, 77, 0
4, 12000, Note_on_c, 0, 79, 88
4, 12234, Note_off_c, 0, 79, 0
4, 12240, Note_on_c, 0, 82, 88
4, 12474, Note_off_c, 0, 82, 0
4, 12480, Note_on_c, 0, 82, 88
4, 12714, Note_off_c, 0, 82, 0
4, 12720, Note_on_c, 0, 77, 88
4, 12749, Note_off_c, 0, 77, 0
4, 12750, Note_on_c, 0, 76, 88
4, 12794, Note_off_c, 0, 76, 0
4, 12795, Note_on_c, 0, 77, 88
4, 12824, Note_off_c, 0, 77, 0
4, 12825, Note_on_c, 0, 76, 88
4, 12854, Note_off_c, 0, 76, 0
4, 12855, Note_on_c, 0, 77, 88
4, 12884, Note_off_c, 0, 77, 0
4, 12885, Note_on_c, 0, 76, 88
4, 12914, Note_off_c, 0, 76, 0
4, 12915, Note_on_c, 0, 74, 88
4, 12944, Note_off_c, 0, 74, 0
4, 12945, Note_on_c, 0, 76, 88
4, 12960, Note_off_c, 0, 76, 0
4, 12960, Note_on_c, 0, 77, 88
4, 13905, Note_off_c, 0, 77, 0
4, 13920, Note_on_c, 0, 77, 88
4, 13949, Note_off_c, 0, 77, 0
4, 13950, Note_on_c, 0, 76, 88
4, 13979, Note_off_c, 0, 76, 0
4, 13980, Note_on_c, 0, 77, 88
4, 14009, Note_off_c, 0, 77, 0
4, 14010, Note_on_c, 0, 76, 88
4, 14039, Note_off_c, 0, 76, 0
4, 14040, Note_on_c, 0, 77, 88
4, 14069, Note_off_c, 0, 77, 0
4, 14070, Note_on_c, 0, 76, 88
4, 14099, Note_off_c, 0, 76, 0
4, 14100, Note_on_c, 0, 77, 88
4, 14129, Note_off_c, 0, 77, 0
4, 14130, Note_on_c, 0, 76, 88
4, 14145, Note_off_c, 0, 76, 0
4, 14145, Note_on_c, 0, 77, 88
4, 14160, Note_on_c, 0, 76, 88
4, 14160, Note_off_c, 0, 77, 0
4, 14394, Note_off_c, 0, 76, 0
4, 14400, Note_on_c, 0, 77, 88
4, 14634, Note_off_c, 0, 77, 0
4, 14640, Note_on_c, 0, 72, 88
4, 14874, Note_off_c, 0, 72, 0
4, 14880, Note_on_c, 0, 68, 88
4, 14996, Note_off_c, 0, 68, 0
4, 15000, Note_on_c, 0, 75, 88
4, 15116, Note_off_c, 0, 75, 0
4, 15120, Note_on_c, 0, 74, 88
4, 15236, Note_off_c, 0, 74, 0
4, 15240, Note_on_c, 0, 75, 88
4, 15356, Note_off_c, 0, 75, 0
4, 15360, Note_on_c, 0, 77, 88
4, 15594, Note_off_c, 0, 77, 0
4, 15600, Note_on_c, 0, 70, 88
4, 15834, Note_off_c, 0, 70, 0
4, 15840, Note_on_c, 0, 68, 88
4, 16074, Note_off_c, 0, 68, 0
4, 16080, Note_on_c, 0, 77, 88
4, 16554, Note_off_c, 0, 77, 0
4, 16560, Note_on_c, 0, 75, 88
4, 16676, Note_off_c, 0, 75, 0
4, 16680, Note_on_c, 0, 77, 88
4, 16796, Note_off_c, 0, 77, 0
4, 16800, Note_on_c, 0, 78, 88
4, 16829, Note_off_c, 0, 78, 0
4, 16830, Note_on_c, 0, 77, 88
4, 16874, Note_off_c, 0, 77, 0
4, 16875, Note_on_c, 0, 78, 88
4, 17036, Note_off_c, 0, 78, 0
4, 17040, Note_on_c, 0, 70, 88
4, 17274, Note_off_c, 0, 70, 0
4, 17280, Note_on_c, 0, 68, 88
4, 17396, Note_off_c, 0, 68, 0
4, 17400, Note_on_c, 0, 70, 88
4, 17516, Note_off_c, 0, 70, 0
4, 17520, Note_on_c, 0, 72, 88
4, 17636, Note_off_c, 0, 72, 0
4, 17640, Note_on_c, 0, 73, 88
4, 17756, Note_off_c, 0, 73, 0
4, 17760, Note_on_c, 0, 75, 88
4, 17876, Note_off_c, 0, 75, 0
4, 17880, Note_on_c, 0, 77, 88
4, 17996, Note_off_c, 0, 77, 0
4, 18000, Note_on_c, 0, 78, 88
4, 18116, Note_off_c, 0, 78, 0
4, 18120, Note_on_c, 0, 75, 88
4, 18236, Note_off_c, 0, 75, 0
4, 18240, Note_on_c, 0, 77, 88
4, 18474, Note_off_c, 0, 77, 0
4, 18480, Note_on_c, 0, 68, 88
4, 18509, Note_off_c, 0, 68, 0
4, 18510, Note_on_c, 0, 66, 88
4, 18554, Note_off_c, 0, 66, 0
4, 18555, Note_on_c, 0, 65, 88
4, 18584, Note_off_c, 0, 65, 0
4, 18585, Note_on_c, 0, 66, 88
4, 18716, Note_off_c, 0, 66, 0
4, 18720, Note_on_c, 0, 65, 88
4, 18954, Note_off_c, 0, 65, 0
4, 18960, Note_on_c, 0, 73, 88
4, 19194, Note_off_c, 0, 73, 0
4, 19200, Note_on_c, 0, 70, 88
4, 19908, Note_off_c, 0, 70, 0
4, 19920, Note_on_c, 0, 75, 88
4, 20036, Note_off_c, 0, 75, 0
4, 20040, Note_on_c, 0, 73, 88
4, 20156, Note_off_c, 0, 73, 0
4, 20160, Note_on_c, 0, 72, 88
4, 20189, Note_off_c, 0, 72, 0
4, 20190, Note_on_c, 0, 70, 88
4, 20234, Note_off_c, 0, 70, 0
4, 20235, Note_on_c, 0, 72, 88
4, 20870, Note_off_c, 0, 72, 0
4, 20880, Note_on_c, 0, 70, 88
4, 21236, Note_off_c, 0, 70, 0
4, 21240, Note_on_c, 0, 72, 88
4, 21356, Note_off_c, 0, 72, 0
4, 21360, Note_on_c, 0, 73, 88
4, 21476, Note_off_c, 0, 73, 0
4, 21480, Note_on_c, 0, 75, 88
4, 21596, Note_off_c, 0, 75, 0
4, 21600, Note_on_c, 0, 69, 88
4, 21716, Note_off_c, 0, 69, 0
4, 21720, Note_on_c, 0, 78, 88
4, 21836, Note_off_c, 0, 78, 0
4, 21840, Note_on_c, 0, 77, 88
4, 21956, Note_off_c, 0, 77, 0
4, 21960, Note_on_c, 0, 75, 88
4, 22076, Note_off_c, 0, 75, 0
4, 22080, Note_on_c, 0, 73, 88
4, 22196, Note_off_c, 0, 73, 0
4, 22200, Note_on_c, 0, 77, 88
4, 22316, Note_off_c, 0, 77, 0
4, 22320, Note_on_c, 0, 75, 88
4, 22436, Note_off_c, 0, 75, 0
4, 22440, Note_on_c, 0, 73, 88
4, 22556, Note_off_c, 0, 73, 0
4, 22560, Note_on_c, 0, 72, 88
4, 22676, Note_off_c, 0, 72, 0
4, 22680, Note_on_c, 0, 70, 88
4, 22796, Note_off_c, 0, 70, 0
4, 22800, Note_on_c, 0, 69, 88
4, 22916, Note_off_c, 0, 69, 0
4, 22920, Note_on_c, 0, 72, 88
4, 23036, Note_off_c, 0, 72, 0
4, 23040, Note_on_c, 0, 70, 88
4, 23274, Note_off_c, 0, 70, 0
4, 23280, Note_on_c, 0, 73, 88
4, 23396, Note_off_c, 0, 73, 0
4, 23400, Note_on_c, 0, 72, 88
4, 23516, Note_off_c, 0, 72, 0
4, 23520, Note_on_c, 0, 73, 88
4, 23745, Note_off_c, 0, 73, 0
4, 23760, Note_on_c, 0, 73, 88
4, 23994, Note_off_c, 0, 73, 0
4, 24000, Note_on_c, 0, 73, 88
4, 24234, Note_off_c, 0, 73, 0
4, 24240, Note_on_c, 0, 72, 88
4, 24356, Note_off_c, 0, 72, 0
4, 24360, Note_on_c, 0, 73, 88
4, 24476, Note_off_c, 0, 73, 0
4, 24480, Note_on_c, 0, 75, 88
4, 24705, Note_off_c, 0, 75, 0
4, 24720, Note_on_c, 0, 75, 88
4, 24954, Note_off_c, 0, 75, 0
4, 24960, Note_on_c, 0, 75, 88
4, 25194, Note_off_c, 0, 75, 0
4, 25200, Note_on_c, 0, 73, 88
4, 25316, Note_off_c, 0, 73, 0
4, 25320, Note_on_c, 0, 75, 88
4, 25436, Note_off_c, 0, 75, 0
4, 25440, Note_on_c, 0, 77, 88
4, 25556, Note_off_c, 0, 77, 0
4, 25560, Note_on_c, 0, 80, 88
4, 25676, Note_off_c, 0, 80, 0
4, 25680, Note_on_c, 0, 78, 88
4, 25796, Note_off_c, 0, 78, 0
4, 25800, Note_on_c, 0, 77, 88
4, 25916, Note_off_c, 0, 77, 0
4, 25920, Note_on_c, 0, 75, 88
4, 26036, Note_off_c, 0, 75, 0
4, 26040, Note_on_c, 0, 73, 88
4, 26156, Note_off_c, 0, 73, 0
4, 26160, Note_on_c, 0, 72, 88
4, 26276, Note_off_c, 0, 72, 0
4, 26280, Note_on_c, 0, 75, 88
4, 26396, Note_off_c, 0, 75, 0
4, 26400, Note_on_c, 0, 68, 88
4, 26870, Note_off_c, 0, 68, 0
4, 26880, Note_on_c, 0, 73, 88
4, 27350, Note_off_c, 0, 73, 0
4, 27960, Note_on_c, 0, 70, 88
4, 28076, Note_off_c, 0, 70, 0
4, 28080, Note_on_c, 0, 72, 88
4, 28196, Note_off_c, 0, 72, 0
4, 28200, Note_on_c, 0, 73, 88
4, 28316, Note_off_c, 0, 73, 0
4, 28320, Note_on_c, 0, 75, 88
4, 28436, Note_off_c, 0, 75, 0
4, 28440, Note_on_c, 0, 77, 88
4, 28556, Note_off_c, 0, 77, 0
4, 28560, Note_on_c, 0, 78, 88
4, 28676, Note_off_c, 0, 78, 0
4, 28680, Note_on_c, 0, 75, 88
4, 28796, Note_off_c, 0, 75, 0
4, 28800, Note_on_c, 0, 77, 88
4, 28916, Note_off_c, 0, 77, 0
4, 28920, Note_on_c, 0, 75, 88
4, 29036, Note_off_c, 0, 75, 0
4, 29040, Note_on_c, 0, 73, 88
4, 29156, Note_off_c, 0, 73, 0
4, 29160, Note_on_c, 0, 72, 88
4, 29276, Note_off_c, 0, 72, 0
4, 29280, Note_on_c, 0, 73, 88
4, 29309, Note_off_c, 0, 73, 0
4, 29310, Note_on_c, 0, 72, 88
4, 29354, Note_off_c, 0, 72, 0
4, 29355, Note_on_c, 0, 73, 88
4, 29516, Note_off_c, 0, 73, 0
4, 29520, Note_on_c, 0, 68, 88
4, 29754, Note_off_c, 0, 68, 0
4, 29760, Note_on_c, 0, 70, 88
4, 29994, Note_off_c, 0, 70, 0
4, 30000, Note_on_c, 0, 66, 88
4, 30234, Note_off_c, 0, 66, 0
4, 30240, Note_on_c, 0, 65, 88
4, 30269, Note_off_c, 0, 65, 0
4, 30270, Note_on_c, 0, 63, 88
4, 30299, Note_off_c, 0, 63, 0
4, 30300, Note_on_c, 0, 65, 88
4, 30329, Note_off_c, 0, 65, 0
4, 30330, Note_on_c, 0, 63, 88
4, 30359, Note_off_c, 0, 63, 0
4, 30360, Note_on_c, 0, 65, 88
4, 30389, Note_off_c, 0, 65, 0
4, 30390, Note_on_c, 0, 63, 88
4, 30477, Note_off_c, 0, 63, 0
4, 30480, Note_on_c, 0, 68, 88
4, 30714, Note_off_c, 0, 68, 0
4, 30720, Note_on_c, 0, 65, 88
4, 30954, Note_off_c, 0, 65, 0
4, 30960, Note_on_c, 0, 61, 88
4, 31194, Note_off_c, 0, 61, 0
4, 31200, Note_on_c, 0, 73, 88
4, 31425, Note_off_c, 0, 73, 0
4, 31440, Note_on_c, 0, 73, 88
4, 31674, Note_off_c, 0, 73, 0
4, 31680, Note_on_c, 0, 73, 88
4, 31709, Note_off_c, 0, 73, 0
4, 31710, Note_on_c, 0, 72, 88
4, 31754, Note_off_c, 0, 72, 0
4, 31755, Note_on_c, 0, 73, 88
4, 31916, Note_off_c, 0, 73, 0
4, 31920, Note_on_c, 0, 72, 88
4, 32036, Note_off_c, 0, 72, 0
4, 32040, Note_on_c, 0, 73, 88
4, 32156, Note_off_c, 0, 73, 0
4, 32160, Note_on_c, 0, 75, 88
4, 32385, Note_off_c, 0, 75, 0
4, 32400, Note_on_c, 0, 75, 88
4, 32634, Note_off_c, 0, 75, 0
4, 32640, Note_on_c, 0, 75, 88
4, 32669, Note_off_c, 0, 75, 0
4, 32670, Note_on_c, 0, 73, 88
4, 32728, Note_off_c, 0, 73, 0
4, 32730, Note_on_c, 0, 75, 88
4, 32876, Note_off_c, 0, 75, 0
4, 32880, Note_on_c, 0, 73, 88
4, 32996, Note_off_c, 0, 73, 0
4, 33000, Note_on_c, 0, 75, 88
4, 33116, Note_off_c, 0, 75, 0
4, 33120, Note_on_c, 0, 77, 88
4, 33345, Note_off_c, 0, 77, 0
4, 33360, Note_on_c, 0, 77, 88
4, 33594, Note_off_c, 0, 77, 0
4, 33600, Note_on_c, 0, 77, 88
4, 33834, Note_off_c, 0, 77, 0
4, 33840, Note_on_c, 0, 75, 88
4, 33956, Note_off_c, 0, 75, 0
4, 33960, Note_on_c, 0, 77, 88
4, 34076, Note_off_c, 0, 77, 0
4, 34080, Note_on_c, 0, 79, 88
4, 34196, Note_off_c, 0, 79, 0
4, 34200, Note_on_c, 0, 80, 88
4, 34316, Note_off_c, 0, 80, 0
4, 34320, Note_on_c, 0, 82, 88
4, 34436, Note_off_c, 0, 82, 0
4, 34440, Note_on_c, 0, 79, 88
4, 34556, Note_off_c, 0, 79, 0
4, 34560, Note_on_c, 0, 80, 88
4, 36714, Note_off_c, 0, 80, 0
4, 36720, Note_on_c, 0, 79, 88
4, 36836, Note_off_c, 0, 79, 0
4, 36840, Note_on_c, 0, 80, 88
4, 36956, Note_off_c, 0, 80, 0
4, 36960, Note_on_c, 0, 82, 88
4, 37194, Note_off_c, 0, 82, 0
4, 37200, Note_on_c, 0, 73, 88
4, 37229, Note_off_c, 0, 73, 0
4, 37230, Note_on_c, 0, 72, 88
4, 37274, Note_off_c, 0, 72, 0
4, 37275, Note_on_c, 0, 73, 88
4, 37436, Note_off_c, 0, 73, 0
4, 37440, Note_on_c, 0, 73, 88
4, 37674, Note_off_c, 0, 73, 0
4, 37680, Note_on_c, 0, 72, 88
4, 37796, Note_off_c, 0, 72, 0
4, 37800, Note_on_c, 0, 73, 88
4, 37916, Note_off_c, 0, 73, 0
4, 37920, Note_on_c, 0, 75, 88
4, 38154, Note_off_c, 0, 75, 0
4, 38160, Note_on_c, 0, 66, 88
4, 38189, Note_off_c, 0, 66, 0
4, 38190, Note_on_c, 0, 65, 88
4, 38234, Note_off_c, 0, 65, 0
4, 38235, Note_on_c, 0, 66, 88
4, 38396, Note_off_c, 0, 66, 0
4, 38400, Note_on_c, 0, 66, 88
4, 38516, Note_off_c, 0, 66, 0
4, 38520, Note_on_c, 0, 65, 88
4, 38636, Note_off_c, 0, 65, 0
4, 38640, Note_on_c, 0, 67, 88
4, 38756, Note_off_c, 0, 67, 0
4, 38760, Note_on_c, 0, 68, 88
4, 38876, Note_off_c, 0, 68, 0
4, 38880, Note_on_c, 0, 70, 88
4, 38996, Note_off_c, 0, 70, 0
4, 39000, Note_on_c, 0, 72, 88
4, 39116, Note_off_c, 0, 72, 0
4, 39120, Note_on_c, 0, 73, 88
4, 39236, Note_off_c, 0, 73, 0
4, 39240, Note_on_c, 0, 70, 88
4, 39356, Note_off_c, 0, 70, 0
4, 39360, Note_on_c, 0, 72, 88
4, 39830, Note_off_c, 0, 72, 0
4, 40440, Note_on_c, 0, 75, 88
4, 40556, Note_off_c, 0, 75, 0
4, 40560, Note_on_c, 0, 73, 88
4, 40676, Note_off_c, 0, 73, 0
4, 40680, Note_on_c, 0, 72, 88
4, 40796, Note_off_c, 0, 72, 0
4, 40800, Note_on_c, 0, 70, 88
4, 40916, Note_off_c, 0, 70, 0
4, 40920, Note_on_c, 0, 68, 88
4, 41036, Note_off_c, 0, 68, 0
4, 41040, Note_on_c, 0, 67, 88
4, 41156, Note_off_c, 0, 67, 0
4, 41160, Note_on_c, 0, 70, 88
4, 41276, Note_off_c, 0, 70, 0
4, 41280, Note_on_c, 0, 63, 88
4, 41750, Note_off_c, 0, 63, 0
4, 42000, Note_on_c, 0, 66, 88
4, 42234, Note_off_c, 0, 66, 0
4, 42240, Note_on_c, 0, 65, 88
4, 42474, Note_off_c, 0, 65, 0
4, 42480, Note_on_c, 0, 70, 88
4, 42714, Note_off_c, 0, 70, 0
4, 42960, Note_on_c, 0, 68, 88
4, 43194, Note_off_c, 0, 68, 0
4, 43200, Note_on_c, 0, 66, 88
4, 43434, Note_off_c, 0, 66, 0
4, 43440, Note_on_c, 0, 71, 88
4, 43674, Note_off_c, 0, 71, 0
4, 43920, Note_on_c, 0, 70, 88
4, 44154, Note_off_c, 0, 70, 0
4, 44160, Note_on_c, 0, 68, 88
4, 44394, Note_off_c, 0, 68, 0
4, 44400, Note_on_c, 0, 73, 88
4, 44634, Note_off_c, 0, 73, 0
4, 44880, Note_on_c, 0, 71, 88
4, 45114, Note_off_c, 0, 71, 0
4, 45120, Note_on_c, 0, 70, 88
4, 45590, Note_off_c, 0, 70, 0
4, 47280, Note_on_c, 0, 73, 88
4, 47514, Note_off_c, 0, 73, 0
4, 47520, Note_on_c, 0, 78, 88
4, 47745, Note_off_c, 0, 78, 0
4, 47760, Note_on_c, 0, 78, 88
4, 47994, Note_off_c, 0, 78, 0
4, 48000, Note_on_c, 0, 78, 88
4, 48029, Note_off_c, 0, 78, 0
4, 48030, Note_on_c, 0, 77, 88
4, 48074, Note_off_c, 0, 77, 0
4, 48075, Note_on_c, 0, 78, 88
4, 48236, Note_off_c, 0, 78, 0
4, 48240, Note_on_c, 0, 77, 88
4, 48356, Note_off_c, 0, 77, 0
4, 48360, Note_on_c, 0, 78, 88
4, 48476, Note_off_c, 0, 78, 0
4, 48480, Note_on_c, 0, 80, 88
4, 48705, Note_off_c, 0, 80, 0
4, 48720, Note_on_c, 0, 80, 88
4, 48954, Note_off_c, 0, 80, 0
4, 48960, Note_on_c, 0, 80, 88
4, 48989, Note_off_c, 0, 80, 0
4, 48990, Note_on_c, 0, 78, 88
4, 49034, Note_off_c, 0, 78, 0
4, 49035, Note_on_c, 0, 80, 88
4, 49196, Note_off_c, 0, 80, 0
4, 49200, Note_on_c, 0, 78, 88
4, 49316, Note_off_c, 0, 78, 0
4, 49320, Note_on_c, 0, 77, 88
4, 49436, Note_off_c, 0, 77, 0
4, 49440, Note_on_c, 0, 78, 88
4, 50154, Note_off_c, 0, 78, 0
4, 50160, Note_on_c, 0, 83, 88
4, 50276, Note_off_c, 0, 83, 0
4, 50280, Note_on_c, 0, 82, 88
4, 50396, Note_off_c, 0, 82, 0
4, 50400, Note_on_c, 0, 80, 88
4, 50516, Note_off_c, 0, 80, 0
4, 50520, Note_on_c, 0, 78, 88
4, 50636, Note_off_c, 0, 78, 0
4, 50640, Note_on_c, 0, 77, 88
4, 50756, Note_off_c, 0, 77, 0
4, 50760, Note_on_c, 0, 80, 88
4, 50876, Note_off_c, 0, 80, 0
4, 50880, Note_on_c, 0, 74, 88
4, 50996, Note_off_c, 0, 74, 0
4, 51000, Note_on_c, 0, 72, 88
4, 51116, Note_off_c, 0, 72, 0
4, 51120, Note_on_c, 0, 74, 88
4, 51236, Note_off_c, 0, 74, 0
4, 51240, Note_on_c, 0, 75, 88
4, 51356, Note_off_c, 0, 75, 0
4, 51360, Note_on_c, 0, 77, 88
4, 51476, Note_off_c, 0, 77, 0
4, 51480, Note_on_c, 0, 78, 88
4, 51596, Note_off_c, 0, 78, 0
4, 51600, Note_on_c, 0, 80, 88
4, 51716, Note_off_c, 0, 80, 0
4, 51720, Note_on_c, 0, 77, 88
4, 51836, Note_off_c, 0, 77, 0
4, 51840, Note_on_c, 0, 78, 88
4, 51956, Note_off_c, 0, 78, 0
4, 51960, Note_on_c, 0, 77, 88
4, 52076, Note_off_c, 0, 77, 0
4, 52080, Note_on_c, 0, 75, 88
4, 52196, Note_off_c, 0, 75, 0
4, 52200, Note_on_c, 0, 74, 88
4, 52316, Note_off_c, 0, 74, 0
4, 52320, Note_on_c, 0, 75, 88
4, 52349, Note_off_c, 0, 75, 0
4, 52350, Note_on_c, 0, 74, 88
4, 52394, Note_off_c, 0, 74, 0
4, 52395, Note_on_c, 0, 75, 88
4, 52556, Note_off_c, 0, 75, 0
4, 52560, Note_on_c, 0, 70, 88
4, 52794, Note_off_c, 0, 70, 0
4, 52800, Note_on_c, 0, 71, 88
4, 53034, Note_off_c, 0, 71, 0
4, 53040, Note_on_c, 0, 68, 88
4, 53274, Note_off_c, 0, 68, 0
4, 53280, Note_on_c, 0, 66, 88
4, 53309, Note_off_c, 0, 66, 0
4, 53310, Note_on_c, 0, 65, 88
4, 53339, Note_off_c, 0, 65, 0
4, 53340, Note_on_c, 0, 66, 88
4, 53369, Note_off_c, 0, 66, 0
4, 53370, Note_on_c, 0, 65, 88
4, 53399, Note_off_c, 0, 65, 0
4, 53400, Note_on_c, 0, 66, 88
4, 53429, Note_off_c, 0, 66, 0
4, 53430, Note_on_c, 0, 65, 88
4, 53517, Note_off_c, 0, 65, 0
4, 53520, Note_on_c, 0, 70, 88
4, 53754, Note_off_c, 0, 70, 0
4, 53760, Note_on_c, 0, 66, 88
4, 53994, Note_off_c, 0, 66, 0
4, 54000, Note_on_c, 0, 63, 88
4, 54234, Note_off_c, 0, 63, 0
4, 54240, Note_on_c, 0, 75, 88
4, 54465, Note_off_c, 0, 75, 0
4, 54480, Note_on_c, 0, 75, 88
4, 54714, Note_off_c, 0, 75, 0
4, 54720, Note_on_c, 0, 75, 88
4, 54749, Note_off_c, 0, 75, 0
4, 54750, Note_on_c, 0, 74, 88
4, 54794, Note_off_c, 0, 74, 0
4, 54795, Note_on_c, 0, 75, 88
4, 54956, Note_off_c, 0, 75, 0
4, 54960, Note_on_c, 0, 74, 88
4, 55076, Note_off_c, 0, 74, 0
4, 55080, Note_on_c, 0, 75, 88
4, 55196, Note_off_c, 0, 75, 0
4, 55200, Note_on_c, 0, 77, 88
4, 55425, Note_off_c, 0, 77, 0
4, 55440, Note_on_c, 0, 77, 88
4, 55674, Note_off_c, 0, 77, 0
4, 55680, Note_on_c, 0, 77, 88
4, 55709, Note_off_c, 0, 77, 0
4, 55710, Note_on_c, 0, 75, 88
4, 55754, Note_off_c, 0, 75, 0
4, 55755, Note_on_c, 0, 77, 88
4, 55916, Note_off_c, 0, 77, 0
4, 55920, Note_on_c, 0, 75, 88
4, 56036, Note_off_c, 0, 75, 0
4, 56040, Note_on_c, 0, 74, 88
4, 56156, Note_off_c, 0, 74, 0
4, 56160, Note_on_c, 0, 75, 88
4, 56756, Note_off_c, 0, 75, 0
4, 56760, Note_on_c, 0, 73, 88
4, 56876, Note_off_c, 0, 73, 0
4, 56880, Note_on_c, 0, 71, 88
4, 56996, Note_off_c, 0, 71, 0
4, 57000, Note_on_c, 0, 70, 88
4, 57116, Note_off_c, 0, 70, 0
4, 57120, Note_on_c, 0, 71, 88
4, 57236, Note_off_c, 0, 71, 0
4, 57240, Note_on_c, 0, 68, 88
4, 57356, Note_off_c, 0, 68, 0
4, 57360, Note_on_c, 0, 70, 88
4, 57476, Note_off_c, 0, 70, 0
4, 57480, Note_on_c, 0, 71, 88
4, 57716, Note_off_c, 0, 71, 0
4, 57720, Note_on_c, 0, 70, 88
4, 57836, Note_off_c, 0, 70, 0
4, 57840, Note_on_c, 0, 72, 88
4, 57956, Note_off_c, 0, 72, 0
4, 57960, Note_on_c, 0, 74, 88
4, 58076, Note_off_c, 0, 74, 0
4, 58080, Note_on_c, 0, 75, 88
4, 58196, Note_off_c, 0, 75, 0
4, 58200, Note_on_c, 0, 77, 88
4, 58316, Note_off_c, 0, 77, 0
4, 58320, Note_on_c, 0, 78, 88
4, 58436, Note_off_c, 0, 78, 0
4, 58440, Note_on_c, 0, 75, 88
4, 58556, Note_off_c, 0, 75, 0
4, 58560, Note_on_c, 0, 77, 88
4, 58794, Note_off_c, 0, 77, 0
4, 58800, Note_on_c, 0, 65, 88
4, 59034, Note_off_c, 0, 65, 0
4, 59040, Note_on_c, 0, 70, 88
4, 59985, Note_off_c, 0, 70, 0
4, 60000, Note_on_c, 0, 70, 88
4, 60029, Note_off_c, 0, 70, 0
4, 60030, Note_on_c, 0, 69, 88
4, 60059, Note_off_c, 0, 69, 0
4, 60060, Note_on_c, 0, 70, 88
4, 60089, Note_off_c, 0, 70, 0
4, 60090, Note_on_c, 0, 69, 88
4, 60119, Note_off_c, 0, 69, 0
4, 60120, Note_on_c, 0, 70, 88
4, 60149, Note_off_c, 0, 70, 0
4, 60150, Note_on_c, 0, 69, 88
4, 60179, Note_off_c, 0, 69, 0
4, 60180, Note_on_c, 0, 70, 88
4, 60209, Note_off_c, 0, 70, 0
4, 60210, Note_on_c, 0, 69, 88
4, 60239, Note_off_c, 0, 69, 0
4, 60240, Note_on_c, 0, 70, 88
4, 60269, Note_off_c, 0, 70, 0
4, 60270, Note_on_c, 0, 69, 88
4, 60299, Note_off_c, 0, 69, 0
4, 60300, Note_on_c, 0, 70, 88
4, 60329, Note_off_c, 0, 70, 0
4, 60330, Note_on_c, 0, 69, 88
4, 60359, Note_off_c, 0, 69, 0
4, 60360, Note_on_c, 0, 70, 88
4, 60389, Note_off_c, 0, 70, 0
4, 60390, Note_on_c, 0, 69, 88
4, 60419, Note_off_c, 0, 69, 0
4, 60420, Note_on_c, 0, 67, 88
4, 60449, Note_off_c, 0, 67, 0
4, 60450, Note_on_c, 0, 69, 88
4, 60479, Note_off_c, 0, 69, 0
4, 60480, Note_on_c, 0, 70, 88
4, 60596, Note_off_c, 0, 70, 0
4, 60600, Note_on_c, 0, 69, 88
4, 60716, Note_off_c, 0, 69, 0
4, 60720, Note_on_c, 0, 70, 88
4, 60836, Note_off_c, 0, 70, 0
4, 60840, Note_on_c, 0, 72, 88
4, 60956, Note_off_c, 0, 72, 0
4, 60960, Note_on_c, 0, 73, 88
4, 61076, Note_off_c, 0, 73, 0
4, 61080, Note_on_c, 0, 75, 88
4, 61196, Note_off_c, 0, 75, 0
4, 61200, Note_on_c, 0, 77, 88
4, 61316, Note_off_c, 0, 77, 0
4, 61320, Note_on_c, 0, 73, 88
4, 61436, Note_off_c, 0, 73, 0
4, 61440, Note_on_c, 0, 75, 88
4, 61556, Note_off_c, 0, 75, 0
4, 61560, Note_on_c, 0, 73, 88
4, 61676, Note_off_c, 0, 73, 0
4, 61680, Note_on_c, 0, 72, 88
4, 61796, Note_off_c, 0, 72, 0
4, 61800, Note_on_c, 0, 73, 88
4, 61916, Note_off_c, 0, 73, 0
4, 61920, Note_on_c, 0, 75, 88
4, 62036, Note_off_c, 0, 75, 0
4, 62040, Note_on_c, 0, 77, 88
4, 62156, Note_off_c, 0, 77, 0
4, 62160, Note_on_c, 0, 78, 88
4, 62276, Note_off_c, 0, 78, 0
4, 62280, Note_on_c, 0, 75, 88
4, 62396, Note_off_c, 0, 75, 0
4, 62400, Note_on_c, 0, 77, 88
4, 62870, Note_off_c, 0, 77, 0
4, 63120, Note_on_c, 0, 82, 88
4, 63236, Note_off_c, 0, 82, 0
4, 63240, Note_on_c, 0, 77, 88
4, 63356, Note_off_c, 0, 77, 0
4, 63360, Note_on_c, 0, 78, 88
4, 63476, Note_off_c, 0, 78, 0
4, 63480, Note_on_c, 0, 80, 88
4, 63596, Note_off_c, 0, 80, 0
4, 63600, Note_on_c, 0, 78, 88
4, 63716, Note_off_c, 0, 78, 0
4, 63720, Note_on_c, 0, 77, 88
4, 63836, Note_off_c, 0, 77, 0
4, 63840, Note_on_c, 0, 75, 88
4, 63956, Note_off_c, 0, 75, 0
4, 63960, Note_on_c, 0, 73, 88
4, 64076, Note_off_c, 0, 73, 0
4, 64080, Note_on_c, 0, 72, 88
4, 64196, Note_off_c, 0, 72, 0
4, 64200, Note_on_c, 0, 75, 88
4, 64316, Note_off_c, 0, 75, 0
4, 64320, Note_on_c, 0, 69, 88
4, 64554, Note_off_c, 0, 69, 0
4, 64560, Note_on_c, 0, 72, 88
4, 64794, Note_off_c, 0, 72, 0
4, 64800, Note_on_c, 0, 77, 88
4, 65034, Note_off_c, 0, 77, 0
4, 65040, Note_on_c, 0, 73, 88
4, 65274, Note_off_c, 0, 73, 0
4, 65280, Note_on_c, 0, 75, 88
4, 65396, Note_off_c, 0, 75, 0
4, 65400, Note_on_c, 0, 77, 88
4, 65516, Note_off_c, 0, 77, 0
4, 65520, Note_on_c, 0, 78, 88
4, 65636, Note_off_c, 0, 78, 0
4, 65640, Note_on_c, 0, 75, 88
4, 65756, Note_off_c, 0, 75, 0
4, 65760, Note_on_c, 0, 72, 88
4, 65876, Note_off_c, 0, 72, 0
4, 65880, Note_on_c, 0, 78, 88
4, 65996, Note_off_c, 0, 78, 0
4, 66000, Note_on_c, 0, 77, 88
4, 66116, Note_off_c, 0, 77, 0
4, 66120, Note_on_c, 0, 75, 88
4, 66236, Note_off_c, 0, 75, 0
4, 66240, Note_on_c, 0, 73, 88
4, 66710, Note_off_c, 0, 73, 0
4, 66720, Note_on_c, 0, 72, 88
4, 66954, Note_off_c, 0, 72, 0
4, 66960, Note_on_c, 0, 77, 88
4, 67194, Note_off_c, 0, 77, 0
4, 67200, Note_on_c, 0, 70, 88
4, 67670, Note_off_c, 0, 70, 0
4, 67680, Note_on_c, 0, 68, 88
4, 67914, Note_off_c, 0, 68, 0
4, 67920, Note_on_c, 0, 73, 88
4, 68154, Note_off_c, 0, 73, 0
4, 68160, Note_on_c, 0, 66, 88
4, 69236, Note_off_c, 0, 66, 0
4, 69240, Note_on_c, 0, 65, 88
4, 69356, Note_off_c, 0, 65, 0
4, 69360, Note_on_c, 0, 63, 88
4, 69476, Note_off_c, 0, 63, 0
4, 69480, Note_on_c, 0, 61, 88
4, 69596, Note_off_c, 0, 61, 0
4, 69600, Note_on_c, 0, 60, 88
4, 69716, Note_off_c, 0, 60, 0
4, 69720, Note_on_c, 0, 61, 88
4, 69836, Note_off_c, 0, 61, 0
4, 69840, Note_on_c, 0, 63, 88
4, 69956, Note_off_c, 0, 63, 0
4, 69960, Note_on_c, 0, 60, 88
4, 70076, Note_off_c, 0, 60, 0
4, 70080, Note_on_c, 0, 61, 88
4, 70196, Note_off_c, 0, 61, 0
4, 70200, Note_on_c, 0, 63, 88
4, 70316, Note_off_c, 0, 63, 0
4, 70320, Note_on_c, 0, 65, 88
4, 70436, Note_off_c, 0, 65, 0
4, 70440, Note_on_c, 0, 67, 88
4, 70556, Note_off_c, 0, 67, 0
4, 70560, Note_on_c, 0, 69, 88
4, 70676, Note_off_c, 0, 69, 0
4, 70680, Note_on_c, 0, 70, 88
4, 70796, Note_off_c, 0, 70, 0
4, 70800, Note_on_c, 0, 72, 88
4, 70916, Note_off_c, 0, 72, 0
4, 70920, Note_on_c, 0, 69, 88
4, 71036, Note_off_c, 0, 69, 0
4, 71040, Note_on_c, 0, 70, 88
4, 71156, Note_off_c, 0, 70, 0
4, 71160, Note_on_c, 0, 72, 88
4, 71276, Note_off_c, 0, 72, 0
4, 71280, Note_on_c, 0, 73, 88
4, 71396, Note_off_c, 0, 73, 0
4, 71400, Note_on_c, 0, 70, 88
4, 71516, Note_off_c, 0, 70, 0
4, 71520, Note_on_c, 0, 72, 88
4, 71636, Note_off_c, 0, 72, 0
4, 71640, Note_on_c, 0, 73, 88
4, 71756, Note_off_c, 0, 73, 0
4, 71760, Note_on_c, 0, 75, 88
4, 71876, Note_off_c, 0, 75, 0
4, 71880, Note_on_c, 0, 72, 88
4, 71996, Note_off_c, 0, 72, 0
4, 72000, Note_on_c, 0, 73, 88
4, 72116, Note_off_c, 0, 73, 0
4, 72120, Note_on_c, 0, 75, 88
4, 72236, Note_off_c, 0, 75, 0
4, 72240, Note_on_c, 0, 77, 88
4, 72356, Note_off_c, 0, 77, 0
4, 72360, Note_on_c, 0, 79, 88
4, 72476, Note_off_c, 0, 79, 0
4, 72480, Note_on_c, 0, 81, 88
4, 72596, Note_off_c, 0, 81, 0
4, 72600, Note_on_c, 0, 82, 88
4, 72716, Note_off_c, 0, 82, 0
4, 72720, Note_on_c, 0, 84, 88
4, 72836, Note_off_c, 0, 84, 0
4, 72840, Note_on_c, 0, 81, 88
4, 72956, Note_off_c, 0, 81, 0
4, 72960, Note_on_c, 0, 82, 88
4, 76074, Note_off_c, 0, 82, 0
4, 76080, Note_on_c, 0, 81, 88
4, 76196, Note_off_c, 0, 81, 0
4, 76200, Note_on_c, 0, 82, 88
4, 76316, Note_off_c, 0, 82, 0
4, 76320, Note_on_c, 0, 84, 88
4, 76554, Note_off_c, 0, 84, 0
4, 76560, Note_on_c, 0, 75, 88
4, 77034, Note_off_c, 0, 75, 0
4, 77040, Note_on_c, 0, 73, 88
4, 77156, Note_off_c, 0, 73, 0
4, 77160, Note_on_c, 0, 75, 88
4, 77276, Note_off_c, 0, 75, 0
4, 77280, Note_on_c, 0, 77, 88
4, 77514, Note_off_c, 0, 77, 0
4, 77520, Note_on_c, 0, 75, 88
4, 77636, Note_off_c, 0, 75, 0
4, 77640, Note_on_c, 0, 69, 88
4, 77756, Note_off_c, 0, 69, 0
4, 77760, Note_on_c, 0, 70, 88
4, 78113, Note_off_c, 0, 70, 0
4, 78120, Note_on_c, 0, 72, 88
4, 78236, Note_off_c, 0, 72, 0
4, 78240, Note_on_c, 0, 70, 88
4, 78269, Note_off_c, 0, 70, 0
4, 78270, Note_on_c, 0, 69, 88
4, 78299, Note_off_c, 0, 69, 0
4, 78300, Note_on_c, 0, 70, 88
4, 78329, Note_off_c, 0, 70, 0
4, 78330, Note_on_c, 0, 69, 88
4, 78359, Note_off_c, 0, 69, 0
4, 78360, Note_on_c, 0, 70, 88
4, 78389, Note_off_c, 0, 70, 0
4, 78390, Note_on_c, 0, 69, 88
4, 78419, Note_off_c, 0, 69, 0
4, 78420, Note_on_c, 0, 70, 88
4, 78449, Note_off_c, 0, 70, 0
4, 78450, Note_on_c, 0, 69, 88
4, 78465, Note_off_c, 0, 69, 0
4, 78465, Note_on_c, 0, 70, 88
4, 78480, Note_on_c, 0, 69, 88
4, 78480, Note_off_c, 0, 70, 0
4, 78596, Note_off_c, 0, 69, 0
4, 78600, Note_on_c, 0, 70, 88
4, 78716, Note_off_c, 0, 70, 0
4, 78720, Note_on_c, 0, 70, 88
4, 79665, Note_off_c, 0, 70, 0
4, 79665, End_track
5, 0, Start_track
5, 0, Title_t, "Track 2"
5, 0, Program_c, 1, 6
5, 0, Note_on_c, 1, 73, 88
5, 116, Note_off_c, 1, 73, 0
5, 120, Note_on_c, 1, 72, 88
5, 236, Note_off_c, 1, 72, 0
5, 240, Note_on_c, 1, 70, 88
5, 356, Note_off_c, 1, 70, 0
5, 360, Note_on_c, 1, 69, 88
5, 476, Note_off_c, 1, 69, 0
5, 480, Note_on_c, 1, 70, 88
5, 509, Note_off_c, 1, 70, 0
5, 510, Note_on_c, 1, 69, 88
5, 554, Note_off_c, 1, 69, 0
5, 555, Note_on_c, 1, 70, 88
5, 716, Note_off_c, 1, 70, 0
5, 720, Note_on_c, 1, 65, 88
5, 954, Note_off_c, 1, 65, 0
5, 960, Note_on_c, 1, 66, 88
5, 1194, Note_off_c, 1, 66, 0
5, 1200, Note_on_c, 1, 63, 88
5, 1434, Note_off_c, 1, 63, 0
5, 1440, Note_on_c, 1, 61, 88
5, 1469, Note_off_c, 1, 61, 0
5, 1470, Note_on_c, 1, 60, 88
5, 1499, Note_off_c, 1, 60, 0
5, 1500, Note_on_c, 1, 61, 88
5, 1529, Note_off_c, 1, 61, 0
5, 1530, Note_on_c, 1, 60, 88
5, 1559, Note_off_c, 1, 60, 0
5, 1560, Note_on_c, 1, 61, 88
5, 1589, Note_off_c, 1, 61, 0
5, 1590, Note_on_c, 1, 60, 88
5, 1677, Note_off_c, 1, 60, 0
5, 1680, Note_on_c, 1, 65, 88
5, 1914, Note_off_c, 1, 65, 0
5, 1920, Note_on_c, 1, 61, 88
5, 2154, Note_off_c, 1, 61, 0
5, 2160, Note_on_c, 1, 58, 88
5, 2394, Note_off_c, 1, 58, 0
5, 2400, Note_on_c, 1, 70, 88
5, 2625, Note_off_c, 1, 70, 0
5, 2640, Note_on_c, 1, 70, 88
5, 2874, Note_off_c, 1, 70, 0
5, 2880, Note_on_c, 1, 70, 88
5, 3114, Note_off_c, 1, 70, 0
5, 3120, Note_on_c, 1, 69, 88
5, 3236, Note_off_c, 1, 69, 0
5, 3240, Note_on_c, 1, 70, 88
5, 3356, Note_off_c, 1, 70, 0
5, 3360, Note_on_c, 1, 72, 88
5, 3585, Note_off_c, 1, 72, 0
5, 3600, Note_on_c, 1, 72, 88
5, 3834, Note_off_c, 1, 72, 0
5, 3840, Note_on_c, 1, 72, 88
5, 4074, Note_off_c, 1, 72, 0
5, 4080, Note_on_c, 1, 70, 88
5, 4196, Note_off_c, 1, 70, 0
5, 4200, Note_on_c, 1, 69, 88
5, 4316, Note_off_c, 1, 69, 0
5, 4320, Note_on_c, 1, 70, 88
5, 4916, Note_off_c, 1, 70, 0
5, 4920, Note_on_c, 1, 68, 88
5, 5036, Note_off_c, 1, 68, 0
5, 5040, Note_on_c, 1, 66, 88
5, 5156, Note_off_c, 1, 66, 0
5, 5160, Note_on_c, 1, 65, 88
5, 5276, Note_off_c, 1, 65, 0
5, 5280, Note_on_c, 1, 66, 88
5, 5396, Note_off_c, 1, 66, 0
5, 5400, Note_on_c, 1, 63, 88
5, 5516, Note_off_c, 1, 63, 0
5, 5520, Note_on_c, 1, 65, 88
5, 5636, Note_off_c, 1, 65, 0
5, 5640, Note_on_c, 1, 66, 88
5, 5876, Note_off_c, 1, 66, 0
5, 5880, Note_on_c, 1, 65, 88
5, 5996, Note_off_c, 1, 65, 0
5, 6000, Note_on_c, 1, 67, 88
5, 6116, Note_off_c, 1, 67, 0
5, 6120, Note_on_c, 1, 69, 88
5, 6236, Note_off_c, 1, 69, 0
5, 6240, Note_on_c, 1, 70, 88
5, 6356, Note_off_c, 1, 70, 0
5, 6360, Note_on_c, 1, 72, 88
5, 6476, Note_off_c, 1, 72, 0
5, 6480, Note_on_c, 1, 73, 88
5, 6596, Note_off_c, 1, 73, 0
5, 6600, Note_on_c, 1, 70, 88
5, 6716, Note_off_c, 1, 70, 0
5, 6720, Note_on_c, 1, 72, 88
5, 6954, Note_off_c, 1, 72, 0
5, 6960, Note_on_c, 1, 60, 88
5, 7194, Note_off_c, 1, 60, 0
5, 7200, Note_on_c, 1, 65, 88
5, 8150, Note_off_c, 1, 65, 0
5, 8160, Note_on_c, 1, 64, 88
5, 8630, Note_off_c, 1, 64, 0
5, 8640, Note_on_c, 1, 65, 88
5, 8756, Note_off_c, 1, 65, 0
5, 8760, Note_on_c, 1, 64, 88
5, 8876, Note_off_c, 1, 64, 0
5, 8880, Note_on_c, 1, 65, 88
5, 8996, Note_off_c, 1, 65, 0
5, 9000, Note_on_c, 1, 67, 88
5, 9116, Note_off_c, 1, 67, 0
5, 9120, Note_on_c, 1, 68, 88
5, 9236, Note_off_c, 1, 68, 0
5, 9240, Note_on_c, 1, 70, 88
5, 9356, Note_off_c, 1, 70, 0
5, 9360, Note_on_c, 1, 72, 88
5, 9476, Note_off_c, 1, 72, 0
5, 9480, Note_on_c, 1, 68, 88
5, 9596, Note_off_c, 1, 68, 0
5, 9600, Note_on_c, 1, 70, 88
5, 9716, Note_off_c, 1, 70, 0
5, 9720, Note_on_c, 1, 68, 88
5, 9836, Note_off_c, 1, 68, 0
5, 9840, Note_on_c, 1, 67, 88
5, 9956, Note_off_c, 1, 67, 0
5, 9960, Note_on_c, 1, 68, 88
5, 10076, Note_off_c, 1, 68, 0
5, 10080, Note_on_c, 1, 70, 88
5, 10196, Note_off_c, 1, 70, 0
5, 10200, Note_on_c, 1, 72, 88
5, 10316, Note_off_c, 1, 72, 0
5, 10320, Note_on_c, 1, 73, 88
5, 10436, Note_off_c, 1, 73, 0
5, 10440, Note_on_c, 1, 70, 88
5, 10556, Note_off_c, 1, 70, 0
5, 10560, Note_on_c, 1, 72, 88
5, 11030, Note_off_c, 1, 72, 0
5, 11280, Note_on_c, 1, 77, 88
5, 11396, Note_off_c, 1, 77, 0
5, 11400, Note_on_c, 1, 72, 88
5, 11516, Note_off_c, 1, 72, 0
5, 11520, Note_on_c, 1, 73, 88
5, 11636, Note_off_c, 1, 73, 0
5, 11640, Note_on_c, 1, 75, 88
5, 11756, Note_off_c, 1, 75, 0
5, 11760, Note_on_c, 1, 73, 88
5, 11876, Note_off_c, 1, 73, 0
5, 11880, Note_on_c, 1, 72, 88
5, 11996, Note_off_c, 1, 72, 0
5, 12000, Note_on_c, 1, 70, 88
5, 12116, Note_off_c, 1, 70, 0
5, 12120, Note_on_c, 1, 68, 88
5, 12236, Note_off_c, 1, 68, 0
5, 12240, Note_on_c, 1, 67, 88
5, 12356, Note_off_c, 1, 67, 0
5, 12360, Note_on_c, 1, 70, 88
5, 12476, Note_off_c, 1, 70, 0
5, 12480, Note_on_c, 1, 64, 88
5, 12714, Note_off_c, 1, 64, 0
5, 12720, Note_on_c, 1, 67, 88
5, 12954, Note_off_c, 1, 67, 0
5, 12960, Note_on_c, 1, 60, 88
5, 13194, Note_off_c, 1, 60, 0
5, 13200, Note_on_c, 1, 72, 88
5, 13434, Note_off_c, 1, 72, 0
5, 13440, Note_on_c, 1, 70, 88
5, 13556, Note_off_c, 1, 70, 0
5, 13560, Note_on_c, 1, 72, 88
5, 13676, Note_off_c, 1, 72, 0
5, 13680, Note_on_c, 1, 73, 88
5, 13796, Note_off_c, 1, 73, 0
5, 13800, Note_on_c, 1, 70, 88
5, 13916, Note_off_c, 1, 70, 0
5, 13920, Note_on_c, 1, 67, 88
5, 14036, Note_off_c, 1, 67, 0
5, 14040, Note_on_c, 1, 73, 88
5, 14156, Note_off_c, 1, 73, 0
5, 14160, Note_on_c, 1, 72, 88
5, 14276, Note_off_c, 1, 72, 0
5, 14280, Note_on_c, 1, 70, 88
5, 14396, Note_off_c, 1, 70, 0
5, 14400, Note_on_c, 1, 68, 88
5, 14870, Note_off_c, 1, 68, 0
5, 15120, Note_on_c, 1, 59, 88
5, 15354, Note_off_c, 1, 59, 0
5, 15360, Note_on_c, 1, 58, 88
5, 15476, Note_off_c, 1, 58, 0
5, 15480, Note_on_c, 1, 60, 88
5, 15596, Note_off_c, 1, 60, 0
5, 15600, Note_on_c, 1, 62, 88
5, 15716, Note_off_c, 1, 62, 0
5, 15720, Note_on_c, 1, 63, 88
5, 15836, Note_off_c, 1, 63, 0
5, 15840, Note_on_c, 1, 65, 88
5, 15956, Note_off_c, 1, 65, 0
5, 15960, Note_on_c, 1, 66, 88
5, 16076, Note_off_c, 1, 66, 0
5, 16080, Note_on_c, 1, 68, 88
5, 16196, Note_off_c, 1, 68, 0
5, 16200, Note_on_c, 1, 65, 88
5, 16316, Note_off_c, 1, 65, 0
5, 16320, Note_on_c, 1, 66, 88
5, 16790, Note_off_c, 1, 66, 0
5, 17040, Note_on_c, 1, 66, 88
5, 17514, Note_off_c, 1, 66, 0
5, 17520, Note_on_c, 1, 57, 88
5, 17754, Note_off_c, 1, 57, 0
5, 17760, Note_on_c, 1, 56, 88
5, 17994, Note_off_c, 1, 56, 0
5, 18000, Note_on_c, 1, 72, 88
5, 18234, Note_off_c, 1, 72, 0
5, 18240, Note_on_c, 1, 73, 88
5, 18474, Note_off_c, 1, 73, 0
5, 18480, Note_on_c, 1, 63, 88
5, 18714, Note_off_c, 1, 63, 0
5, 18720, Note_on_c, 1, 61, 88
5, 18954, Note_off_c, 1, 61, 0
5, 19440, Note_on_c, 1, 61, 88
5, 19674, Note_off_c, 1, 61, 0
5, 19680, Note_on_c, 1, 66, 88
5, 20394, Note_off_c, 1, 66, 0
5, 20400, Note_on_c, 1, 65, 88
5, 20516, Note_off_c, 1, 65, 0
5, 20520, Note_on_c, 1, 63, 88
5, 20636, Note_off_c, 1, 63, 0
5, 20640, Note_on_c, 1, 61, 88
5, 21110, Note_off_c, 1, 61, 0
5, 21120, Note_on_c, 1, 60, 88
5, 21590, Note_off_c, 1, 60, 0
5, 22200, Note_on_c, 1, 58, 88
5, 22316, Note_off_c, 1, 58, 0
5, 22320, Note_on_c, 1, 60, 88
5, 22436, Note_off_c, 1, 60, 0
5, 22440, Note_on_c, 1, 61, 88
5, 22556, Note_off_c, 1, 61, 0
5, 22560, Note_on_c, 1, 63, 88
5, 22676, Note_off_c, 1, 63, 0
5, 22680, Note_on_c, 1, 65, 88
5, 22796, Note_off_c, 1, 65, 0
5, 22800, Note_on_c, 1, 66, 88
5, 22916, Note_off_c, 1, 66, 0
5, 22920, Note_on_c, 1, 63, 88
5, 23036, Note_off_c, 1, 63, 0
5, 23040, Note_on_c, 1, 65, 88
5, 23274, Note_off_c, 1, 65, 0
5, 23520, Note_on_c, 1, 73, 88
5, 23636, Note_off_c, 1, 73, 0
5, 23640, Note_on_c, 1, 72, 88
5, 23756, Note_off_c, 1, 72, 0
5, 23760, Note_on_c, 1, 70, 88
5, 23876, Note_off_c, 1, 70, 0
5, 23880, Note_on_c, 1, 69, 88
5, 23996, Note_off_c, 1, 69, 0
5, 24000, Note_on_c, 1, 70, 88
5, 24590, Note_off_c, 1, 70, 0
5, 24600, Note_on_c, 1, 69, 88
5, 24716, Note_off_c, 1, 69, 0
5, 24720, Note_on_c, 1, 67, 88
5, 24836, Note_off_c, 1, 67, 0
5, 24840, Note_on_c, 1, 69, 88
5, 24956, Note_off_c, 1, 69, 0
5, 24960, Note_on_c, 1, 70, 88
5, 25194, Note_off_c, 1, 70, 0
5, 25200, Note_on_c, 1, 65, 88
5, 25434, Note_off_c, 1, 65, 0
5, 25440, Note_on_c, 1, 61, 88
5, 25674, Note_off_c, 1, 61, 0
5, 25680, Note_on_c, 1, 63, 88
5, 25796, Note_off_c, 1, 63, 0
5, 25800, Note_on_c, 1, 65, 88
5, 25916, Note_off_c, 1, 65, 0
5, 25920, Note_on_c, 1, 66, 88
5, 26510, Note_off_c, 1, 66, 0
5, 26520, Note_on_c, 1, 65, 88
5, 26636, Note_off_c, 1, 65, 0
5, 26640, Note_on_c, 1, 63, 88
5, 26756, Note_off_c, 1, 63, 0
5, 26760, Note_on_c, 1, 66, 88
5, 26876, Note_off_c, 1, 66, 0
5, 26880, Note_on_c, 1, 65, 88
5, 26996, Note_off_c, 1, 65, 0
5, 27000, Note_on_c, 1, 63, 88
5, 27116, Note_off_c, 1, 63, 0
5, 27120, Note_on_c, 1, 61, 88
5, 27236, Note_off_c, 1, 61, 0
5, 27240, Note_on_c, 1, 63, 88
5, 27356, Note_off_c, 1, 63, 0
5, 27360, Note_on_c, 1, 65, 88
5, 27476, Note_off_c, 1, 65, 0
5, 27480, Note_on_c, 1, 66, 88
5, 27596, Note_off_c, 1, 66, 0
5, 27600, Note_on_c, 1, 68, 88
5, 27716, Note_off_c, 1, 68, 0
5, 27720, Note_on_c, 1, 65, 88
5, 27836, Note_off_c, 1, 65, 0
5, 27840, Note_on_c, 1, 66, 88
5, 28310, Note_off_c, 1, 66, 0
5, 28560, Note_on_c, 1, 61, 88
5, 28794, Note_off_c, 1, 61, 0
5, 28800, Note_on_c, 1, 60, 88
5, 28916, Note_off_c, 1, 60, 0
5, 28920, Note_on_c, 1, 66, 88
5, 29036, Note_off_c, 1, 66, 0
5, 29040, Note_on_c, 1, 65, 88
5, 29156, Note_off_c, 1, 65, 0
5, 29160, Note_on_c, 1, 63, 88
5, 29276, Note_off_c, 1, 63, 0
5, 29280, Note_on_c, 1, 65, 88
5, 29994, Note_off_c, 1, 65, 0
5, 30000, Note_on_c, 1, 63, 88
5, 30116, Note_off_c, 1, 63, 0
5, 30120, Note_on_c, 1, 61, 88
5, 30236, Note_off_c, 1, 61, 0
5, 30240, Note_on_c, 1, 60, 88
5, 30356, Note_off_c, 1, 60, 0
5, 30360, Note_on_c, 1, 61, 88
5, 30476, Note_off_c, 1, 61, 0
5, 30480, Note_on_c, 1, 58, 88
5, 30596, Note_off_c, 1, 58, 0
5, 30600, Note_on_c, 1, 60, 88
5, 30716, Note_off_c, 1, 60, 0
5, 30720, Note_on_c, 1, 61, 88
5, 30954, Note_off_c, 1, 61, 0
5, 31200, Note_on_c, 1, 70, 88
5, 31316, Note_off_c, 1, 70, 0
5, 31320, Note_on_c, 1, 68, 88
5, 31436, Note_off_c, 1, 68, 0
5, 31440, Note_on_c, 1, 66, 88
5, 31556, Note_off_c, 1, 66, 0
5, 31560, Note_on_c, 1, 65, 88
5, 31676, Note_off_c, 1, 65, 0
5, 31680, Note_on_c, 1, 66, 88
5, 31914, Note_off_c, 1, 66, 0
5, 31920, Note_on_c, 1, 63, 88
5, 32154, Note_off_c, 1, 63, 0
5, 32160, Note_on_c, 1, 68, 88
5, 32276, Note_off_c, 1, 68, 0
5, 32280, Note_on_c, 1, 66, 88
5, 32396, Note_off_c, 1, 66, 0
5, 32400, Note_on_c, 1, 65, 88
5, 32516, Note_off_c, 1, 65, 0
5, 32520, Note_on_c, 1, 63, 88
5, 32636, Note_off_c, 1, 63, 0
5, 32640, Note_on_c, 1, 65, 88
5, 32756, Note_off_c, 1, 65, 0
5, 32760, Note_on_c, 1, 63, 88
5, 32876, Note_off_c, 1, 63, 0
5, 32880, Note_on_c, 1, 65, 88
5, 32996, Note_off_c, 1, 65, 0
5, 33000, Note_on_c, 1, 66, 88
5, 33116, Note_off_c, 1, 66, 0
5, 33120, Note_on_c, 1, 68, 88
5, 33236, Note_off_c, 1, 68, 0
5, 33240, Note_on_c, 1, 70, 88
5, 33356, Note_off_c, 1, 70, 0
5, 33360, Note_on_c, 1, 72, 88
5, 33476, Note_off_c, 1, 72, 0
5, 33480, Note_on_c, 1, 68, 88
5, 33596, Note_off_c, 1, 68, 0
5, 33600, Note_on_c, 1, 73, 88
5, 34794, Note_off_c, 1, 73, 0
5, 34800, Note_on_c, 1, 75, 88
5, 34916, Note_off_c, 1, 75, 0
5, 34920, Note_on_c, 1, 73, 88
5, 35036, Note_off_c, 1, 73, 0
5, 35040, Note_on_c, 1, 72, 88
5, 35274, Note_off_c, 1, 72, 0
5, 35280, Note_on_c, 1, 75, 88
5, 35514, Note_off_c, 1, 75, 0
5, 35520, Note_on_c, 1, 68, 88
5, 35754, Note_off_c, 1, 68, 0
5, 35760, Note_on_c, 1, 77, 88
5, 35876, Note_off_c, 1, 77, 0
5, 35880, Note_on_c, 1, 75, 88
5, 35996, Note_off_c, 1, 75, 0
5, 36000, Note_on_c, 1, 73, 88
5, 36234, Note_off_c, 1, 73, 0
5, 36240, Note_on_c, 1, 72, 88
5, 36474, Note_off_c, 1, 72, 0
5, 36480, Note_on_c, 1, 70, 88
5, 36950, Note_off_c, 1, 70, 0
5, 37200, Note_on_c, 1, 70, 88
5, 37674, Note_off_c, 1, 70, 0
5, 37680, Note_on_c, 1, 68, 88
5, 37914, Note_off_c, 1, 68, 0
5, 38160, Note_on_c, 1, 63, 88
5, 38634, Note_off_c, 1, 63, 0
5, 38640, Note_on_c, 1, 61, 88
5, 38756, Note_off_c, 1, 61, 0
5, 38760, Note_on_c, 1, 60, 88
5, 38876, Note_off_c, 1, 60, 0
5, 38880, Note_on_c, 1, 58, 88
5, 38996, Note_off_c, 1, 58, 0
5, 39000, Note_on_c, 1, 56, 88
5, 39116, Note_off_c, 1, 56, 0
5, 39120, Note_on_c, 1, 55, 88
5, 39236, Note_off_c, 1, 55, 0
5, 39240, Note_on_c, 1, 58, 88
5, 39356, Note_off_c, 1, 58, 0
5, 39360, Note_on_c, 1, 56, 88
5, 39476, Note_off_c, 1, 56, 0
5, 39480, Note_on_c, 1, 63, 88
5, 39596, Note_off_c, 1, 63, 0
5, 39600, Note_on_c, 1, 65, 88
5, 39716, Note_off_c, 1, 65, 0
5, 39720, Note_on_c, 1, 67, 88
5, 39836, Note_off_c, 1, 67, 0
5, 39840, Note_on_c, 1, 68, 88
5, 39956, Note_off_c, 1, 68, 0
5, 39960, Note_on_c, 1, 70, 88
5, 40076, Note_off_c, 1, 70, 0
5, 40080, Note_on_c, 1, 72, 88
5, 40196, Note_off_c, 1, 72, 0
5, 40200, Note_on_c, 1, 68, 88
5, 40316, Note_off_c, 1, 68, 0
5, 40320, Note_on_c, 1, 77, 88
5, 40554, Note_off_c, 1, 77, 0
5, 41520, Note_on_c, 1, 56, 88
5, 41754, Note_off_c, 1, 56, 0
5, 41760, Note_on_c, 1, 63, 88
5, 41985, Note_off_c, 1, 63, 0
5, 42000, Note_on_c, 1, 63, 88
5, 42234, Note_off_c, 1, 63, 0
5, 42240, Note_on_c, 1, 63, 88
5, 42474, Note_off_c, 1, 63, 0
5, 42480, Note_on_c, 1, 62, 88
5, 42596, Note_off_c, 1, 62, 0
5, 42600, Note_on_c, 1, 63, 88
5, 42716, Note_off_c, 1, 63, 0
5, 42720, Note_on_c, 1, 65, 88
5, 42945, Note_off_c, 1, 65, 0
5, 42960, Note_on_c, 1, 65, 88
5, 43194, Note_off_c, 1, 65, 0
5, 43200, Note_on_c, 1, 65, 88
5, 43434, Note_off_c, 1, 65, 0
5, 43440, Note_on_c, 1, 63, 88
5, 43556, Note_off_c, 1, 63, 0
5, 43560, Note_on_c, 1, 65, 88
5, 43676, Note_off_c, 1, 65, 0
5, 43680, Note_on_c, 1, 66, 88
5, 43905, Note_off_c, 1, 66, 0
5, 43920, Note_on_c, 1, 66, 88
5, 44154, Note_off_c, 1, 66, 0
5, 44160, Note_on_c, 1, 66, 88
5, 44394, Note_off_c, 1, 66, 0
5, 44400, Note_on_c, 1, 65, 88
5, 44516, Note_off_c, 1, 65, 0
5, 44520, Note_on_c, 1, 66, 88
5, 44636, Note_off_c, 1, 66, 0
5, 44640, Note_on_c, 1, 68, 88
5, 44865, Note_off_c, 1, 68, 0
5, 44880, Note_on_c, 1, 68, 88
5, 45225, Note_off_c, 1, 68, 0
5, 45240, Note_on_c, 1, 68, 88
5, 45356, Note_off_c, 1, 68, 0
5, 45360, Note_on_c, 1, 66, 88
5, 45476, Note_off_c, 1, 66, 0
5, 45480, Note_on_c, 1, 65, 88
5, 45596, Note_off_c, 1, 65, 0
5, 45600, Note_on_c, 1, 66, 88
5, 45629, Note_off_c, 1, 66, 0
5, 45630, Note_on_c, 1, 65, 88
5, 45674, Note_off_c, 1, 65, 0
5, 45675, Note_on_c, 1, 66, 88
5, 45836, Note_off_c, 1, 66, 0
5, 45840, Note_on_c, 1, 61, 88
5, 46074, Note_off_c, 1, 61, 0
5, 46080, Note_on_c, 1, 63, 88
5, 46314, Note_off_c, 1, 63, 0
5, 46320, Note_on_c, 1, 59, 88
5, 46554, Note_off_c, 1, 59, 0
5, 46560, Note_on_c, 1, 58, 88
5, 46589, Note_off_c, 1, 58, 0
5, 46590, Note_on_c, 1, 56, 88
5, 46619, Note_off_c, 1, 56, 0
5, 46620, Note_on_c, 1, 58, 88
5, 46649, Note_off_c, 1, 58, 0
5, 46650, Note_on_c, 1, 56, 88
5, 46679, Note_off_c, 1, 56, 0
5, 46680, Note_on_c, 1, 58, 88
5, 46709, Note_off_c, 1, 58, 0
5, 46710, Note_on_c, 1, 56, 88
5, 46797, Note_off_c, 1, 56, 0
5, 46800, Note_on_c, 1, 61, 88
5, 47034, Note_off_c, 1, 61, 0
5, 47040, Note_on_c, 1, 58, 88
5, 47510, Note_off_c, 1, 58, 0
5, 47760, Note_on_c, 1, 70, 88
5, 47994, Note_off_c, 1, 70, 0
5, 48000, Note_on_c, 1, 71, 88
5, 48705, Note_off_c, 1, 71, 0
5, 48720, Note_on_c, 1, 71, 88
5, 48954, Note_off_c, 1, 71, 0
5, 48960, Note_on_c, 1, 70, 88
5, 49668, Note_off_c, 1, 70, 0
5, 49680, Note_on_c, 1, 75, 88
5, 49914, Note_off_c, 1, 75, 0
5, 49920, Note_on_c, 1, 68, 88
5, 50154, Note_off_c, 1, 68, 0
5, 50640, Note_on_c, 1, 68, 88
5, 50996, Note_off_c, 1, 68, 0
5, 51000, Note_on_c, 1, 70, 88
5, 51116, Note_off_c, 1, 70, 0
5, 51120, Note_on_c, 1, 68, 88
5, 51236, Note_off_c, 1, 68, 0
5, 51240, Note_on_c, 1, 66, 88
5, 51356, Note_off_c, 1, 66, 0
5, 51360, Note_on_c, 1, 65, 88
5, 51476, Note_off_c, 1, 65, 0
5, 51480, Note_on_c, 1, 63, 88
5, 51596, Note_off_c, 1, 63, 0
5, 51600, Note_on_c, 1, 62, 88
5, 51716, Note_off_c, 1, 62, 0
5, 51720, Note_on_c, 1, 65, 88
5, 51836, Note_off_c, 1, 65, 0
5, 51840, Note_on_c, 1, 63, 88
5, 52074, Note_off_c, 1, 63, 0
5, 54240, Note_on_c, 1, 75, 88
5, 54356, Note_off_c, 1, 75, 0
5, 54360, Note_on_c, 1, 73, 88
5, 54476, Note_off_c, 1, 73, 0
5, 54480, Note_on_c, 1, 71, 88
5, 54596, Note_off_c, 1, 71, 0
5, 54600, Note_on_c, 1, 70, 88
5, 54716, Note_off_c, 1, 70, 0
5, 54720, Note_on_c, 1, 71, 88
5, 54836, Note_off_c, 1, 71, 0
5, 54840, Note_on_c, 1, 70, 88
5, 54956, Note_off_c, 1, 70, 0
5, 54960, Note_on_c, 1, 68, 88
5, 55076, Note_off_c, 1, 68, 0
5, 55080, Note_on_c, 1, 66, 88
5, 55196, Note_off_c, 1, 66, 0
5, 55200, Note_on_c, 1, 65, 88
5, 55434, Note_off_c, 1, 65, 0
5, 55440, Note_on_c, 1, 70, 88
5, 55674, Note_off_c, 1, 70, 0
5, 55680, Note_on_c, 1, 66, 88
5, 55914, Note_off_c, 1, 66, 0
5, 55920, Note_on_c, 1, 70, 88
5, 56154, Note_off_c, 1, 70, 0
5, 56280, Note_on_c, 1, 66, 88
5, 56396, Note_off_c, 1, 66, 0
5, 56400, Note_on_c, 1, 65, 88
5, 56516, Note_off_c, 1, 65, 0
5, 56520, Note_on_c, 1, 66, 88
5, 56636, Note_off_c, 1, 66, 0
5, 56640, Note_on_c, 1, 68, 88
5, 56874, Note_off_c, 1, 68, 0
5, 56880, Note_on_c, 1, 63, 88
5, 57114, Note_off_c, 1, 63, 0
5, 57120, Note_on_c, 1, 65, 88
5, 57590, Note_off_c, 1, 65, 0
5, 57600, Note_on_c, 1, 66, 88
5, 58070, Note_off_c, 1, 66, 0
5, 58320, Note_on_c, 1, 72, 88
5, 58554, Note_off_c, 1, 72, 0
5, 58560, Note_on_c, 1, 73, 88
5, 58676, Note_off_c, 1, 73, 0
5, 58680, Note_on_c, 1, 72, 88
5, 58796, Note_off_c, 1, 72, 0
5, 58800, Note_on_c, 1, 70, 88
5, 58916, Note_off_c, 1, 70, 0
5, 58920, Note_on_c, 1, 69, 88
5, 59036, Note_off_c, 1, 69, 0
5, 59040, Note_on_c, 1, 70, 88
5, 59274, Note_off_c, 1, 70, 0
5, 59280, Note_on_c, 1, 65, 88
5, 59514, Note_off_c, 1, 65, 0
5, 59520, Note_on_c, 1, 66, 88
5, 59754, Note_off_c, 1, 66, 0
5, 59760, Note_on_c, 1, 63, 88
5, 59994, Note_off_c, 1, 63, 0
5, 60000, Note_on_c, 1, 60, 88
5, 60234, Note_off_c, 1, 60, 0
5, 60240, Note_on_c, 1, 65, 88
5, 60474, Note_off_c, 1, 65, 0
5, 60480, Note_on_c, 1, 61, 88
5, 60714, Note_off_c, 1, 61, 0
5, 60720, Note_on_c, 1, 58, 88
5, 60954, Note_off_c, 1, 58, 0
5, 60960, Note_on_c, 1, 70, 88
5, 61185, Note_off_c, 1, 70, 0
5, 61200, Note_on_c, 1, 70, 88
5, 61434, Note_off_c, 1, 70, 0
5, 61440, Note_on_c, 1, 70, 88
5, 61674, Note_off_c, 1, 70, 0
5, 61680, Note_on_c, 1, 69, 88
5, 61796, Note_off_c, 1, 69, 0
5, 61800, Note_on_c, 1, 70, 88
5, 61916, Note_off_c, 1, 70, 0
5, 61920, Note_on_c, 1, 72, 88
5, 62145, Note_off_c, 1, 72, 0
5, 62160, Note_on_c, 1, 72, 88
5, 62394, Note_off_c, 1, 72, 0
5, 62400, Note_on_c, 1, 72, 88
5, 62634, Note_off_c, 1, 72, 0
5, 62640, Note_on_c, 1, 70, 88
5, 62756, Note_off_c, 1, 70, 0
5, 62760, Note_on_c, 1, 72, 88
5, 62876, Note_off_c, 1, 72, 0
5, 62880, Note_on_c, 1, 73, 88
5, 63105, Note_off_c, 1, 73, 0
5, 63120, Note_on_c, 1, 73, 88
5, 63354, Note_off_c, 1, 73, 0
5, 63360, Note_on_c, 1, 73, 88
5, 63594, Note_off_c, 1, 73, 0
5, 63600, Note_on_c, 1, 58, 88
5, 63834, Note_off_c, 1, 58, 0
5, 63840, Note_on_c, 1, 60, 88
5, 64074, Note_off_c, 1, 60, 0
5, 64080, Note_on_c, 1, 63, 88
5, 64314, Note_off_c, 1, 63, 0
5, 64320, Note_on_c, 1, 63, 88
5, 64554, Note_off_c, 1, 63, 0
5, 64560, Note_on_c, 1, 57, 88
5, 64794, Note_off_c, 1, 57, 0
5, 64800, Note_on_c, 1, 58, 88
5, 65034, Note_off_c, 1, 58, 0
5, 65040, Note_on_c, 1, 70, 88
5, 65274, Note_off_c, 1, 70, 0
5, 65280, Note_on_c, 1, 70, 88
5, 65745, Note_off_c, 1, 70, 0
5, 65760, Note_on_c, 1, 70, 88
5, 65789, Note_off_c, 1, 70, 0
5, 65790, Note_on_c, 1, 69, 88
5, 65819, Note_off_c, 1, 69, 0
5, 65820, Note_on_c, 1, 70, 88
5, 65849, Note_off_c, 1, 70, 0
5, 65850, Note_on_c, 1, 69, 88
5, 65879, Note_off_c, 1, 69, 0
5, 65880, Note_on_c, 1, 70, 88
5, 65909, Note_off_c, 1, 70, 0
5, 65910, Note_on_c, 1, 69, 88
5, 65939, Note_off_c, 1, 69, 0
5, 65940, Note_on_c, 1, 70, 88
5, 65969, Note_off_c, 1, 70, 0
5, 65970, Note_on_c, 1, 69, 88
5, 65985, Note_off_c, 1, 69, 0
5, 65985, Note_on_c, 1, 70, 88
5, 66000, Note_on_c, 1, 69, 88
5, 66000, Note_off_c, 1, 70, 0
5, 66234, Note_off_c, 1, 69, 0
5, 66240, Note_on_c, 1, 70, 88
5, 66356, Note_off_c, 1, 70, 0
5, 66360, Note_on_c, 1, 65, 88
5, 66476, Note_off_c, 1, 65, 0
5, 66480, Note_on_c, 1, 70, 88
5, 66950, Note_off_c, 1, 70, 0
5, 66960, Note_on_c, 1, 68, 88
5, 67316, Note_off_c, 1, 68, 0
5, 67320, Note_on_c, 1, 61, 88
5, 67436, Note_off_c, 1, 61, 0
5, 67440, Note_on_c, 1, 66, 88
5, 67910, Note_off_c, 1, 66, 0
5, 67920, Note_on_c, 1, 65, 88
5, 68394, Note_off_c, 1, 65, 0
5, 68400, Note_on_c, 1, 63, 88
5, 68516, Note_off_c, 1, 63, 0
5, 68520, Note_on_c, 1, 61, 88
5, 68636, Note_off_c, 1, 61, 0
5, 68640, Note_on_c, 1, 60, 88
5, 68874, Note_off_c, 1, 60, 0
5, 68880, Note_on_c, 1, 58, 88
5, 69114, Note_off_c, 1, 58, 0
5, 69120, Note_on_c, 1, 57, 88
5, 69354, Note_off_c, 1, 57, 0
5, 69360, Note_on_c, 1, 58, 88
5, 69830, Note_off_c, 1, 58, 0
5, 69840, Note_on_c, 1, 57, 88
5, 70074, Note_off_c, 1, 57, 0
5, 70080, Note_on_c, 1, 58, 88
5, 70196, Note_off_c, 1, 58, 0
5, 70200, Note_on_c, 1, 60, 88
5, 70316, Note_off_c, 1, 60, 0
5, 70320, Note_on_c, 1, 61, 88
5, 70436, Note_off_c, 1, 61, 0
5, 70440, Note_on_c, 1, 58, 88
5, 70556, Note_off_c, 1, 58, 0
5, 70560, Note_on_c, 1, 60, 88
5, 70676, Note_off_c, 1, 60, 0
5, 70680, Note_on_c, 1, 61, 88
5, 70796, Note_off_c, 1, 61, 0
5, 70800, Note_on_c, 1, 63, 88
5, 70916, Note_off_c, 1, 63, 0
5, 70920, Note_on_c, 1, 60, 88
5, 71036, Note_off_c, 1, 60, 0
5, 71040, Note_on_c, 1, 61, 88
5, 71156, Note_off_c, 1, 61, 0
5, 71160, Note_on_c, 1, 63, 88
5, 71276, Note_off_c, 1, 63, 0
5, 71280, Note_on_c, 1, 65, 88
5, 71396, Note_off_c, 1, 65, 0
5, 71400, Note_on_c, 1, 67, 88
5, 71516, Note_off_c, 1, 67, 0
5, 71520, Note_on_c, 1, 69, 88
5, 71636, Note_off_c, 1, 69, 0
5, 71640, Note_on_c, 1, 70, 88
5, 71756, Note_off_c, 1, 70, 0
5, 71760, Note_on_c, 1, 72, 88
5, 71876, Note_off_c, 1, 72, 0
5, 71880, Note_on_c, 1, 69, 88
5, 71996, Note_off_c, 1, 69, 0
5, 72000, Note_on_c, 1, 70, 88
5, 72116, Note_off_c, 1, 70, 0
5, 72120, Note_on_c, 1, 72, 88
5, 72236, Note_off_c, 1, 72, 0
5, 72240, Note_on_c, 1, 73, 88
5, 72356, Note_off_c, 1, 73, 0
5, 72360, Note_on_c, 1, 70, 88
5, 72476, Note_off_c, 1, 70, 0
5, 72480, Note_on_c, 1, 72, 88
5, 72596, Note_off_c, 1, 72, 0
5, 72600, Note_on_c, 1, 73, 88
5, 72716, Note_off_c, 1, 73, 0
5, 72720, Note_on_c, 1, 75, 88
5, 72836, Note_off_c, 1, 75, 0
5, 72840, Note_on_c, 1, 72, 88
5, 72956, Note_off_c, 1, 72, 0
5, 72960, Note_on_c, 1, 74, 88
5, 73076, Note_off_c, 1, 74, 0
5, 73080, Note_on_c, 1, 72, 88
5, 73196, Note_off_c, 1, 72, 0
5, 73200, Note_on_c, 1, 74, 88
5, 73316, Note_off_c, 1, 74, 0
5, 73320, Note_on_c, 1, 75, 88
5, 73436, Note_off_c, 1, 75, 0
5, 73440, Note_on_c, 1, 77, 88
5, 73556, Note_off_c, 1, 77, 0
5, 73560, Note_on_c, 1, 78, 88
5, 73676, Note_off_c, 1, 78, 0
5, 73680, Note_on_c, 1, 80, 88
5, 73796, Note_off_c, 1, 80, 0
5, 73800, Note_on_c, 1, 77, 88
5, 73916, Note_off_c, 1, 77, 0
5, 73920, Note_on_c, 1, 78, 88
5, 74154, Note_off_c, 1, 78, 0
5, 74160, Note_on_c, 1, 77, 88
5, 74276, Note_off_c, 1, 77, 0
5, 74280, Note_on_c, 1, 75, 88
5, 74396, Note_off_c, 1, 75, 0
5, 74400, Note_on_c, 1, 74, 88
5, 74634, Note_off_c, 1, 74, 0
5, 74640, Note_on_c, 1, 77, 88
5, 74874, Note_off_c, 1, 77, 0
5, 74880, Note_on_c, 1, 70, 88
5, 75114, Note_off_c, 1, 70, 0
5, 75120, Note_on_c, 1, 78, 88
5, 75236, Note_off_c, 1, 78, 0
5, 75240, Note_on_c, 1, 77, 88
5, 75356, Note_off_c, 1, 77, 0
5, 75360, Note_on_c, 1, 75, 88
5, 75594, Note_off_c, 1, 75, 0
5, 75600, Note_on_c, 1, 73, 88
5, 75834, Note_off_c, 1, 73, 0
5, 75840, Note_on_c, 1, 72, 88
5, 76310, Note_off_c, 1, 72, 0
5, 76560, Note_on_c, 1, 72, 88
5, 77034, Note_off_c, 1, 72, 0
5, 77040, Note_on_c, 1, 70, 88
5, 77274, Note_off_c, 1, 70, 0
5, 77520, Note_on_c, 1, 66, 88
5, 77754, Note_off_c, 1, 66, 0
5, 77760, Note_on_c, 1, 65, 88
5, 78113, Note_off_c, 1, 65, 0
5, 78120, Note_on_c, 1, 66, 88
5, 78236, Note_off_c, 1, 66, 0
5, 78240, Note_on_c, 1, 60, 88
5, 78710, Note_off_c, 1, 60, 0
5, 78720, Note_on_c, 1, 62, 88
5, 79665, Note_off_c, 1, 62, 0
5, 79665, End_track
6, 0, Start_track
6, 0, Title_t, "Track 3"
6, 0, Program_c, 2, 6
6, 0, Note_on_c, 2, 46, 88
6, 470, Note_off_c, 2, 46, 0
6, 480, Note_on_c, 2, 58, 88
6, 1430, Note_off_c, 2, 58, 0
6, 1440, Note_on_c, 2, 57, 88
6, 1910, Note_off_c, 2, 57, 0
6, 1920, Note_on_c, 2, 58, 88
6, 2036, Note_off_c, 2, 58, 0
6, 2040, Note_on_c, 2, 56, 88
6, 2156, Note_off_c, 2, 56, 0
6, 2160, Note_on_c, 2, 54, 88
6, 2276, Note_off_c, 2, 54, 0
6, 2280, Note_on_c, 2, 53, 88
6, 2396, Note_off_c, 2, 53, 0
6, 2400, Note_on_c, 2, 54, 88
6, 2516, Note_off_c, 2, 54, 0
6, 2520, Note_on_c, 2, 53, 88
6, 2636, Note_off_c, 2, 53, 0
6, 2640, Note_on_c, 2, 51, 88
6, 2756, Note_off_c, 2, 51, 0
6, 2760, Note_on_c, 2, 49, 88
6, 2876, Note_off_c, 2, 49, 0
6, 2880, Note_on_c, 2, 51, 88
6, 2996, Note_off_c, 2, 51, 0
6, 3000, Note_on_c, 2, 49, 88
6, 3116, Note_off_c, 2, 49, 0
6, 3120, Note_on_c, 2, 48, 88
6, 3236, Note_off_c, 2, 48, 0
6, 3240, Note_on_c, 2, 46, 88
6, 3356, Note_off_c, 2, 46, 0
6, 3360, Note_on_c, 2, 45, 88
6, 3476, Note_off_c, 2, 45, 0
6, 3480, Note_on_c, 2, 41, 88
6, 3596, Note_off_c, 2, 41, 0
6, 3600, Note_on_c, 2, 43, 88
6, 3716, Note_off_c, 2, 43, 0
6, 3720, Note_on_c, 2, 45, 88
6, 3836, Note_off_c, 2, 45, 0
6, 3840, Note_on_c, 2, 46, 88
6, 3956, Note_off_c, 2, 46, 0
6, 3960, Note_on_c, 2, 48, 88
6, 4076, Note_off_c, 2, 48, 0
6, 4080, Note_on_c, 2, 49, 88
6, 4196, Note_off_c, 2, 49, 0
6, 4200, Note_on_c, 2, 51, 88
6, 4316, Note_off_c, 2, 51, 0
6, 4320, Note_on_c, 2, 49, 88
6, 4554, Note_off_c, 2, 49, 0
6, 4560, Note_on_c, 2, 54, 88
6, 4794, Note_off_c, 2, 54, 0
6, 4800, Note_on_c, 2, 48, 88
6, 4916, Note_off_c, 2, 48, 0
6, 4920, Note_on_c, 2, 49, 88
6, 5036, Note_off_c, 2, 49, 0
6, 5040, Note_on_c, 2, 51, 88
6, 5156, Note_off_c, 2, 51, 0
6, 5160, Note_on_c, 2, 53, 88
6, 5276, Note_off_c, 2, 53, 0
6, 5280, Note_on_c, 2, 51, 88
6, 5514, Note_off_c, 2, 51, 0
6, 5520, Note_on_c, 2, 56, 88
6, 5754, Note_off_c, 2, 56, 0
6, 5760, Note_on_c, 2, 49, 88
6, 5994, Note_off_c, 2, 49, 0
6, 6000, Note_on_c, 2, 48, 88
6, 6234, Note_off_c, 2, 48, 0
6, 6240, Note_on_c, 2, 49, 88
6, 6474, Note_off_c, 2, 49, 0
6, 6480, Note_on_c, 2, 46, 88
6, 6714, Note_off_c, 2, 46, 0
6, 6720, Note_on_c, 2, 53, 88
6, 6954, Note_off_c, 2, 53, 0
6, 6960, Note_on_c, 2, 56, 88
6, 7194, Note_off_c, 2, 56, 0
6, 7200, Note_on_c, 2, 61, 88
6, 7316, Note_off_c, 2, 61, 0
6, 7320, Note_on_c, 2, 60, 88
6, 7436, Note_off_c, 2, 60, 0
6, 7440, Note_on_c, 2, 58, 88
6, 7556, Note_off_c, 2, 58, 0
6, 7560, Note_on_c, 2, 56, 88
6, 7676, Note_off_c, 2, 56, 0
6, 7680, Note_on_c, 2, 58, 88
6, 7796, Note_off_c, 2, 58, 0
6, 7800, Note_on_c, 2, 55, 88
6, 7916, Note_off_c, 2, 55, 0
6, 7920, Note_on_c, 2, 56, 88
6, 8036, Note_off_c, 2, 56, 0
6, 8040, Note_on_c, 2, 58, 88
6, 8156, Note_off_c, 2, 58, 0
6, 8160, Note_on_c, 2, 60, 88
6, 8276, Note_off_c, 2, 60, 0
6, 8280, Note_on_c, 2, 58, 88
6, 8396, Note_off_c, 2, 58, 0
6, 8400, Note_on_c, 2, 56, 88
6, 8516, Note_off_c, 2, 56, 0
6, 8520, Note_on_c, 2, 55, 88
6, 8636, Note_off_c, 2, 55, 0
6, 8640, Note_on_c, 2, 53, 88
6, 9230, Note_off_c, 2, 53, 0
6, 9240, Note_on_c, 2, 55, 88
6, 9356, Note_off_c, 2, 55, 0
6, 9360, Note_on_c, 2, 56, 88
6, 9476, Note_off_c, 2, 56, 0
6, 9480, Note_on_c, 2, 53, 88
6, 9596, Note_off_c, 2, 53, 0
6, 9600, Note_on_c, 2, 55, 88
6, 9716, Note_off_c, 2, 55, 0
6, 9720, Note_on_c, 2, 56, 88
6, 9836, Note_off_c, 2, 56, 0
6, 9840, Note_on_c, 2, 58, 88
6, 10074, Note_off_c, 2, 58, 0
6, 10080, Note_on_c, 2, 52, 88
6, 10314, Note_off_c, 2, 52, 0
6, 10320, Note_on_c, 2, 53, 88
6, 10436, Note_off_c, 2, 53, 0
6, 10440, Note_on_c, 2, 55, 88
6, 10556, Note_off_c, 2, 55, 0
6, 10560, Note_on_c, 2, 56, 88
6, 10676, Note_off_c, 2, 56, 0
6, 10680, Note_on_c, 2, 58, 88
6, 10796, Note_off_c, 2, 58, 0
6, 10800, Note_on_c, 2, 56, 88
6, 10916, Note_off_c, 2, 56, 0
6, 10920, Note_on_c, 2, 55, 88
6, 11036, Note_off_c, 2, 55, 0
6, 11040, Note_on_c, 2, 53, 88
6, 11156, Note_off_c, 2, 53, 0
6, 11160, Note_on_c, 2, 51, 88
6, 11276, Note_off_c, 2, 51, 0
6, 11280, Note_on_c, 2, 49, 88
6, 11396, Note_off_c, 2, 49, 0
6, 11400, Note_on_c, 2, 53, 88
6, 11516, Note_off_c, 2, 53, 0
6, 11520, Note_on_c, 2, 46, 88
6, 11990, Note_off_c, 2, 46, 0
6, 12600, Note_on_c, 2, 61, 88
6, 12716, Note_off_c, 2, 61, 0
6, 12720, Note_on_c, 2, 60, 88
6, 12836, Note_off_c, 2, 60, 0
6, 12840, Note_on_c, 2, 58, 88
6, 12956, Note_off_c, 2, 58, 0
6, 12960, Note_on_c, 2, 56, 88
6, 13076, Note_off_c, 2, 56, 0
6, 13080, Note_on_c, 2, 55, 88
6, 13196, Note_off_c, 2, 55, 0
6, 13200, Note_on_c, 2, 53, 88
6, 13316, Note_off_c, 2, 53, 0
6, 13320, Note_on_c, 2, 56, 88
6, 13436, Note_off_c, 2, 56, 0
6, 13440, Note_on_c, 2, 49, 88
6, 13674, Note_off_c, 2, 49, 0
6, 13680, Note_on_c, 2, 46, 88
6, 13914, Note_off_c, 2, 46, 0
6, 13920, Note_on_c, 2, 48, 88
6, 14154, Note_off_c, 2, 48, 0
6, 14160, Note_on_c, 2, 36, 88
6, 14394, Note_off_c, 2, 36, 0
6, 14400, Note_on_c, 2, 41, 88
6, 14516, Note_off_c, 2, 41, 0
6, 14520, Note_on_c, 2, 48, 88
6, 14636, Note_off_c, 2, 48, 0
6, 14640, Note_on_c, 2, 50, 88
6, 14756, Note_off_c, 2, 50, 0
6, 14760, Note_on_c, 2, 52, 88
6, 14876, Note_off_c, 2, 52, 0
6, 14880, Note_on_c, 2, 53, 88
6, 14996, Note_off_c, 2, 53, 0
6, 15000, Note_on_c, 2, 54, 88
6, 15116, Note_off_c, 2, 54, 0
6, 15120, Note_on_c, 2, 56, 88
6, 15236, Note_off_c, 2, 56, 0
6, 15240, Note_on_c, 2, 53, 88
6, 15356, Note_off_c, 2, 53, 0
6, 15360, Note_on_c, 2, 50, 88
6, 15830, Note_off_c, 2, 50, 0
6, 16080, Note_on_c, 2, 46, 88
6, 16314, Note_off_c, 2, 46, 0
6, 16320, Note_on_c, 2, 39, 88
6, 16436, Note_off_c, 2, 39, 0
6, 16440, Note_on_c, 2, 46, 88
6, 16556, Note_off_c, 2, 46, 0
6, 16560, Note_on_c, 2, 48, 88
6, 16676, Note_off_c, 2, 48, 0
6, 16680, Note_on_c, 2, 50, 88
6, 16796, Note_off_c, 2, 50, 0
6, 16800, Note_on_c, 2, 51, 88
6, 16916, Note_off_c, 2, 51, 0
6, 16920, Note_on_c, 2, 53, 88
6, 17036, Note_off_c, 2, 53, 0
6, 17040, Note_on_c, 2, 54, 88
6, 17156, Note_off_c, 2, 54, 0
6, 17160, Note_on_c, 2, 51, 88
6, 17276, Note_off_c, 2, 51, 0
6, 17280, Note_on_c, 2, 48, 88
6, 17514, Note_off_c, 2, 48, 0
6, 17520, Note_on_c, 2, 51, 88
6, 17754, Note_off_c, 2, 51, 0
6, 17760, Note_on_c, 2, 48, 88
6, 17994, Note_off_c, 2, 48, 0
6, 18000, Note_on_c, 2, 44, 88
6, 18234, Note_off_c, 2, 44, 0
6, 18240, Note_on_c, 2, 37, 88
6, 18356, Note_off_c, 2, 37, 0
6, 18360, Note_on_c, 2, 44, 88
6, 18476, Note_off_c, 2, 44, 0
6, 18480, Note_on_c, 2, 46, 88
6, 18596, Note_off_c, 2, 46, 0
6, 18600, Note_on_c, 2, 48, 88
6, 18716, Note_off_c, 2, 48, 0
6, 18720, Note_on_c, 2, 49, 88
6, 18836, Note_off_c, 2, 49, 0
6, 18840, Note_on_c, 2, 51, 88
6, 18956, Note_off_c, 2, 51, 0
6, 18960, Note_on_c, 2, 53, 88
6, 19076, Note_off_c, 2, 53, 0
6, 19080, Note_on_c, 2, 49, 88
6, 19196, Note_off_c, 2, 49, 0
6, 19200, Note_on_c, 2, 54, 88
6, 19316, Note_off_c, 2, 54, 0
6, 19320, Note_on_c, 2, 56, 88
6, 19436, Note_off_c, 2, 56, 0
6, 19440, Note_on_c, 2, 54, 88
6, 19556, Note_off_c, 2, 54, 0
6, 19560, Note_on_c, 2, 53, 88
6, 19676, Note_off_c, 2, 53, 0
6, 19680, Note_on_c, 2, 51, 88
6, 19796, Note_off_c, 2, 51, 0
6, 19800, Note_on_c, 2, 49, 88
6, 19916, Note_off_c, 2, 49, 0
6, 19920, Note_on_c, 2, 48, 88
6, 20036, Note_off_c, 2, 48, 0
6, 20040, Note_on_c, 2, 51, 88
6, 20156, Note_off_c, 2, 51, 0
6, 20160, Note_on_c, 2, 45, 88
6, 20276, Note_off_c, 2, 45, 0
6, 20280, Note_on_c, 2, 41, 88
6, 20396, Note_off_c, 2, 41, 0
6, 20400, Note_on_c, 2, 43, 88
6, 20516, Note_off_c, 2, 43, 0
6, 20520, Note_on_c, 2, 45, 88
6, 20636, Note_off_c, 2, 45, 0
6, 20640, Note_on_c, 2, 46, 88
6, 20756, Note_off_c, 2, 46, 0
6, 20760, Note_on_c, 2, 48, 88
6, 20876, Note_off_c, 2, 48, 0
6, 20880, Note_on_c, 2, 49, 88
6, 20996, Note_off_c, 2, 49, 0
6, 21000, Note_on_c, 2, 46, 88
6, 21116, Note_off_c, 2, 46, 0
6, 21120, Note_on_c, 2, 51, 88
6, 21354, Note_off_c, 2, 51, 0
6, 21360, Note_on_c, 2, 48, 88
6, 21594, Note_off_c, 2, 48, 0
6, 21600, Note_on_c, 2, 53, 88
6, 21834, Note_off_c, 2, 53, 0
6, 21840, Note_on_c, 2, 41, 88
6, 22074, Note_off_c, 2, 41, 0
6, 22080, Note_on_c, 2, 46, 88
6, 22314, Note_off_c, 2, 46, 0
6, 22800, Note_on_c, 2, 60, 88
6, 23034, Note_off_c, 2, 60, 0
6, 23040, Note_on_c, 2, 61, 88
6, 23156, Note_off_c, 2, 61, 0
6, 23160, Note_on_c, 2, 60, 88
6, 23276, Note_off_c, 2, 60, 0
6, 23280, Note_on_c, 2, 58, 88
6, 23396, Note_off_c, 2, 58, 0
6, 23400, Note_on_c, 2, 57, 88
6, 23516, Note_off_c, 2, 57, 0
6, 23520, Note_on_c, 2, 58, 88
6, 23549, Note_off_c, 2, 58, 0
6, 23550, Note_on_c, 2, 57, 88
6, 23594, Note_off_c, 2, 57, 0
6, 23595, Note_on_c, 2, 58, 88
6, 23756, Note_off_c, 2, 58, 0
6, 23760, Note_on_c, 2, 53, 88
6, 23994, Note_off_c, 2, 53, 0
6, 24000, Note_on_c, 2, 54, 88
6, 24234, Note_off_c, 2, 54, 0
6, 24240, Note_on_c, 2, 51, 88
6, 24474, Note_off_c, 2, 51, 0
6, 24480, Note_on_c, 2, 49, 88
6, 24509, Note_off_c, 2, 49, 0
6, 24510, Note_on_c, 2, 48, 88
6, 24539, Note_off_c, 2, 48, 0
6, 24540, Note_on_c, 2, 49, 88
6, 24569, Note_off_c, 2, 49, 0
6, 24570, Note_on_c, 2, 48, 88
6, 24599, Note_off_c, 2, 48, 0
6, 24600, Note_on_c, 2, 49, 88
6, 24629, Note_off_c, 2, 49, 0
6, 24630, Note_on_c, 2, 48, 88
6, 24717, Note_off_c, 2, 48, 0
6, 24720, Note_on_c, 2, 53, 88
6, 24954, Note_off_c, 2, 53, 0
6, 24960, Note_on_c, 2, 49, 88
6, 25194, Note_off_c, 2, 49, 0
6, 25200, Note_on_c, 2, 46, 88
6, 25434, Note_off_c, 2, 46, 0
6, 25440, Note_on_c, 2, 58, 88
6, 25665, Note_off_c, 2, 58, 0
6, 25680, Note_on_c, 2, 58, 88
6, 25914, Note_off_c, 2, 58, 0
6, 25920, Note_on_c, 2, 58, 88
6, 26154, Note_off_c, 2, 58, 0
6, 26160, Note_on_c, 2, 56, 88
6, 26276, Note_off_c, 2, 56, 0
6, 26280, Note_on_c, 2, 58, 88
6, 26396, Note_off_c, 2, 58, 0
6, 26400, Note_on_c, 2, 60, 88
6, 26625, Note_off_c, 2, 60, 0
6, 26640, Note_on_c, 2, 60, 88
6, 26874, Note_off_c, 2, 60, 0
6, 26880, Note_on_c, 2, 60, 88
6, 27114, Note_off_c, 2, 60, 0
6, 27120, Note_on_c, 2, 58, 88
6, 27236, Note_off_c, 2, 58, 0
6, 27240, Note_on_c, 2, 60, 88
6, 27356, Note_off_c, 2, 60, 0
6, 27360, Note_on_c, 2, 61, 88
6, 27585, Note_off_c, 2, 61, 0
6, 27600, Note_on_c, 2, 61, 88
6, 27834, Note_off_c, 2, 61, 0
6, 27840, Note_on_c, 2, 61, 88
6, 28074, Note_off_c, 2, 61, 0
6, 28080, Note_on_c, 2, 60, 88
6, 28196, Note_off_c, 2, 60, 0
6, 28200, Note_on_c, 2, 58, 88
6, 28316, Note_off_c, 2, 58, 0
6, 28320, Note_on_c, 2, 60, 88
6, 28554, Note_off_c, 2, 60, 0
6, 28560, Note_on_c, 2, 63, 88
6, 28794, Note_off_c, 2, 63, 0
6, 28800, Note_on_c, 2, 56, 88
6, 29270, Note_off_c, 2, 56, 0
6, 29400, Note_on_c, 2, 49, 88
6, 29516, Note_off_c, 2, 49, 0
6, 29520, Note_on_c, 2, 51, 88
6, 29636, Note_off_c, 2, 51, 0
6, 29640, Note_on_c, 2, 53, 88
6, 29756, Note_off_c, 2, 53, 0
6, 29760, Note_on_c, 2, 54, 88
6, 29876, Note_off_c, 2, 54, 0
6, 29880, Note_on_c, 2, 56, 88
6, 29996, Note_off_c, 2, 56, 0
6, 30000, Note_on_c, 2, 58, 88
6, 30116, Note_off_c, 2, 58, 0
6, 30120, Note_on_c, 2, 54, 88
6, 30236, Note_off_c, 2, 54, 0
6, 30240, Note_on_c, 2, 56, 88
6, 30710, Note_off_c, 2, 56, 0
6, 30720, Note_on_c, 2, 49, 88
6, 30836, Note_off_c, 2, 49, 0
6, 30840, Note_on_c, 2, 53, 88
6, 30956, Note_off_c, 2, 53, 0
6, 30960, Note_on_c, 2, 54, 88
6, 31076, Note_off_c, 2, 54, 0
6, 31080, Note_on_c, 2, 56, 88
6, 31196, Note_off_c, 2, 56, 0
6, 31200, Note_on_c, 2, 58, 88
6, 31316, Note_off_c, 2, 58, 0
6, 31320, Note_on_c, 2, 60, 88
6, 31436, Note_off_c, 2, 60, 0
6, 31440, Note_on_c, 2, 61, 88
6, 31556, Note_off_c, 2, 61, 0
6, 31560, Note_on_c, 2, 58, 88
6, 31676, Note_off_c, 2, 58, 0
6, 31680, Note_on_c, 2, 63, 88
6, 31796, Note_off_c, 2, 63, 0
6, 31800, Note_on_c, 2, 65, 88
6, 31916, Note_off_c, 2, 65, 0
6, 31920, Note_on_c, 2, 63, 88
6, 32036, Note_off_c, 2, 63, 0
6, 32040, Note_on_c, 2, 61, 88
6, 32156, Note_off_c, 2, 61, 0
6, 32160, Note_on_c, 2, 60, 88
6, 32394, Note_off_c, 2, 60, 0
6, 32400, Note_on_c, 2, 56, 88
6, 32634, Note_off_c, 2, 56, 0
6, 32640, Note_on_c, 2, 61, 88
6, 33110, Note_off_c, 2, 61, 0
6, 33360, Note_on_c, 2, 56, 88
6, 33594, Note_off_c, 2, 56, 0
6, 33600, Note_on_c, 2, 58, 88
6, 33716, Note_off_c, 2, 58, 0
6, 33720, Note_on_c, 2, 56, 88
6, 33836, Note_off_c, 2, 56, 0
6, 33840, Note_on_c, 2, 55, 88
6, 33956, Note_off_c, 2, 55, 0
6, 33960, Note_on_c, 2, 53, 88
6, 34076, Note_off_c, 2, 53, 0
6, 34080, Note_on_c, 2, 51, 88
6, 34196, Note_off_c, 2, 51, 0
6, 34200, Note_on_c, 2, 49, 88
6, 34316, Note_off_c, 2, 49, 0
6, 34320, Note_on_c, 2, 48, 88
6, 34436, Note_off_c, 2, 48, 0
6, 34440, Note_on_c, 2, 46, 88
6, 34556, Note_off_c, 2, 46, 0
6, 34560, Note_on_c, 2, 44, 88
6, 34676, Note_off_c, 2, 44, 0
6, 34680, Note_on_c, 2, 46, 88
6, 34796, Note_off_c, 2, 46, 0
6, 34800, Note_on_c, 2, 48, 88
6, 34916, Note_off_c, 2, 48, 0
6, 34920, Note_on_c, 2, 49, 88
6, 35036, Note_off_c, 2, 49, 0
6, 35040, Note_on_c, 2, 51, 88
6, 35156, Note_off_c, 2, 51, 0
6, 35160, Note_on_c, 2, 53, 88
6, 35276, Note_off_c, 2, 53, 0
6, 35280, Note_on_c, 2, 54, 88
6, 35396, Note_off_c, 2, 54, 0
6, 35400, Note_on_c, 2, 51, 88
6, 35516, Note_off_c, 2, 51, 0
6, 35520, Note_on_c, 2, 53, 88
6, 35636, Note_off_c, 2, 53, 0
6, 35640, Note_on_c, 2, 51, 88
6, 35756, Note_off_c, 2, 51, 0
6, 35760, Note_on_c, 2, 49, 88
6, 35876, Note_off_c, 2, 49, 0
6, 35880, Note_on_c, 2, 51, 88
6, 35996, Note_off_c, 2, 51, 0
6, 36000, Note_on_c, 2, 53, 88
6, 36116, Note_off_c, 2, 53, 0
6, 36120, Note_on_c, 2, 55, 88
6, 36236, Note_off_c, 2, 55, 0
6, 36240, Note_on_c, 2, 56, 88
6, 36356, Note_off_c, 2, 56, 0
6, 36360, Note_on_c, 2, 53, 88
6, 36476, Note_off_c, 2, 53, 0
6, 36480, Note_on_c, 2, 61, 88
6, 36596, Note_off_c, 2, 61, 0
6, 36600, Note_on_c, 2, 60, 88
6, 36716, Note_off_c, 2, 60, 0
6, 36720, Note_on_c, 2, 58, 88
6, 36836, Note_off_c, 2, 58, 0
6, 36840, Note_on_c, 2, 56, 88
6, 36956, Note_off_c, 2, 56, 0
6, 36960, Note_on_c, 2, 55, 88
6, 37076, Note_off_c, 2, 55, 0
6, 37080, Note_on_c, 2, 53, 88
6, 37196, Note_off_c, 2, 53, 0
6, 37200, Note_on_c, 2, 51, 88
6, 37316, Note_off_c, 2, 51, 0
6, 37320, Note_on_c, 2, 55, 88
6, 37436, Note_off_c, 2, 55, 0
6, 37440, Note_on_c, 2, 48, 88
6, 37556, Note_off_c, 2, 48, 0
6, 37560, Note_on_c, 2, 53, 88
6, 37676, Note_off_c, 2, 53, 0
6, 37680, Note_on_c, 2, 51, 88
6, 37796, Note_off_c, 2, 51, 0
6, 37800, Note_on_c, 2, 49, 88
6, 37916, Note_off_c, 2, 49, 0
6, 37920, Note_on_c, 2, 48, 88
6, 38036, Note_off_c, 2, 48, 0
6, 38040, Note_on_c, 2, 46, 88
6, 38156, Note_off_c, 2, 46, 0
6, 38160, Note_on_c, 2, 44, 88
6, 38276, Note_off_c, 2, 44, 0
6, 38280, Note_on_c, 2, 48, 88
6, 38396, Note_off_c, 2, 48, 0
6, 38400, Note_on_c, 2, 37, 88
6, 38634, Note_off_c, 2, 37, 0
6, 38640, Note_on_c, 2, 53, 88
6, 38874, Note_off_c, 2, 53, 0
6, 38880, Note_on_c, 2, 49, 88
6, 39114, Note_off_c, 2, 49, 0
6, 39120, Note_on_c, 2, 51, 88
6, 39354, Note_off_c, 2, 51, 0
6, 39360, Note_on_c, 2, 56, 88
6, 39476, Note_off_c, 2, 56, 0
6, 39480, Note_on_c, 2, 55, 88
6, 39596, Note_off_c, 2, 55, 0
6, 39600, Note_on_c, 2, 53, 88
6, 39716, Note_off_c, 2, 53, 0
6, 39720, Note_on_c, 2, 51, 88
6, 39836, Note_off_c, 2, 51, 0
6, 39840, Note_on_c, 2, 53, 88
6, 40074, Note_off_c, 2, 53, 0
6, 40080, Note_on_c, 2, 48, 88
6, 40314, Note_off_c, 2, 48, 0
6, 40320, Note_on_c, 2, 49, 88
6, 40554, Note_off_c, 2, 49, 0
6, 40560, Note_on_c, 2, 46, 88
6, 40794, Note_off_c, 2, 46, 0
6, 40800, Note_on_c, 2, 43, 88
6, 41034, Note_off_c, 2, 43, 0
6, 41040, Note_on_c, 2, 51, 88
6, 41274, Note_off_c, 2, 51, 0
6, 41280, Note_on_c, 2, 48, 88
6, 41396, Note_off_c, 2, 48, 0
6, 41400, Note_on_c, 2, 46, 88
6, 41516, Note_off_c, 2, 46, 0
6, 41520, Note_on_c, 2, 44, 88
6, 41636, Note_off_c, 2, 44, 0
6, 41640, Note_on_c, 2, 46, 88
6, 41756, Note_off_c, 2, 46, 0
6, 41760, Note_on_c, 2, 48, 88
6, 41876, Note_off_c, 2, 48, 0
6, 41880, Note_on_c, 2, 50, 88
6, 41996, Note_off_c, 2, 50, 0
6, 42000, Note_on_c, 2, 51, 88
6, 42116, Note_off_c, 2, 51, 0
6, 42120, Note_on_c, 2, 48, 88
6, 42236, Note_off_c, 2, 48, 0
6, 42240, Note_on_c, 2, 50, 88
6, 42356, Note_off_c, 2, 50, 0
6, 42360, Note_on_c, 2, 48, 88
6, 42476, Note_off_c, 2, 48, 0
6, 42480, Note_on_c, 2, 46, 88
6, 42596, Note_off_c, 2, 46, 0
6, 42600, Note_on_c, 2, 48, 88
6, 42716, Note_off_c, 2, 48, 0
6, 42720, Note_on_c, 2, 50, 88
6, 42836, Note_off_c, 2, 50, 0
6, 42840, Note_on_c, 2, 51, 88
6, 42956, Note_off_c, 2, 51, 0
6, 42960, Note_on_c, 2, 53, 88
6, 43076, Note_off_c, 2, 53, 0
6, 43080, Note_on_c, 2, 50, 88
6, 43196, Note_off_c, 2, 50, 0
6, 43200, Note_on_c, 2, 51, 88
6, 43316, Note_off_c, 2, 51, 0
6, 43320, Note_on_c, 2, 53, 88
6, 43436, Note_off_c, 2, 53, 0
6, 43440, Note_on_c, 2, 54, 88
6, 43556, Note_off_c, 2, 54, 0
6, 43560, Note_on_c, 2, 53, 88
6, 43676, Note_off_c, 2, 53, 0
6, 43680, Note_on_c, 2, 51, 88
6, 43796, Note_off_c, 2, 51, 0
6, 43800, Note_on_c, 2, 49, 88
6, 43916, Note_off_c, 2, 49, 0
6, 43920, Note_on_c, 2, 47, 88
6, 44036, Note_off_c, 2, 47, 0
6, 44040, Note_on_c, 2, 46, 88
6, 44156, Note_off_c, 2, 46, 0
6, 44160, Note_on_c, 2, 47, 88
6, 44276, Note_off_c, 2, 47, 0
6, 44280, Note_on_c, 2, 51, 88
6, 44396, Note_off_c, 2, 51, 0
6, 44400, Note_on_c, 2, 49, 88
6, 44516, Note_off_c, 2, 49, 0
6, 44520, Note_on_c, 2, 47, 88
6, 44636, Note_off_c, 2, 47, 0
6, 44640, Note_on_c, 2, 46, 88
6, 44756, Note_off_c, 2, 46, 0
6, 44760, Note_on_c, 2, 44, 88
6, 44876, Note_off_c, 2, 44, 0
6, 44880, Note_on_c, 2, 42, 88
6, 44996, Note_off_c, 2, 42, 0
6, 45000, Note_on_c, 2, 41, 88
6, 45116, Note_off_c, 2, 41, 0
6, 45120, Note_on_c, 2, 42, 88
6, 45354, Note_off_c, 2, 42, 0
6, 45360, Note_on_c, 2, 44, 88
6, 45594, Note_off_c, 2, 44, 0
6, 45600, Note_on_c, 2, 46, 88
6, 45716, Note_off_c, 2, 46, 0
6, 45720, Note_on_c, 2, 42, 88
6, 45836, Note_off_c, 2, 42, 0
6, 45840, Note_on_c, 2, 44, 88
6, 45956, Note_off_c, 2, 44, 0
6, 45960, Note_on_c, 2, 46, 88
6, 46076, Note_off_c, 2, 46, 0
6, 46080, Note_on_c, 2, 47, 88
6, 46196, Note_off_c, 2, 47, 0
6, 46200, Note_on_c, 2, 49, 88
6, 46316, Note_off_c, 2, 49, 0
6, 46320, Note_on_c, 2, 51, 88
6, 46436, Note_off_c, 2, 51, 0
6, 46440, Note_on_c, 2, 47, 88
6, 46556, Note_off_c, 2, 47, 0
6, 46560, Note_on_c, 2, 49, 88
6, 46676, Note_off_c, 2, 49, 0
6, 46680, Note_on_c, 2, 51, 88
6, 46796, Note_off_c, 2, 51, 0
6, 46800, Note_on_c, 2, 53, 88
6, 46916, Note_off_c, 2, 53, 0
6, 46920, Note_on_c, 2, 49, 88
6, 47036, Note_off_c, 2, 49, 0
6, 47040, Note_on_c, 2, 54, 88
6, 47156, Note_off_c, 2, 54, 0
6, 47160, Note_on_c, 2, 56, 88
6, 47276, Note_off_c, 2, 56, 0
6, 47280, Note_on_c, 2, 54, 88
6, 47396, Note_off_c, 2, 54, 0
6, 47400, Note_on_c, 2, 53, 88
6, 47516, Note_off_c, 2, 53, 0
6, 47520, Note_on_c, 2, 51, 88
6, 47636, Note_off_c, 2, 51, 0
6, 47640, Note_on_c, 2, 53, 88
6, 47756, Note_off_c, 2, 53, 0
6, 47760, Note_on_c, 2, 54, 88
6, 47876, Note_off_c, 2, 54, 0
6, 47880, Note_on_c, 2, 51, 88
6, 47996, Note_off_c, 2, 51, 0
6, 48000, Note_on_c, 2, 56, 88
6, 48116, Note_off_c, 2, 56, 0
6, 48120, Note_on_c, 2, 58, 88
6, 48236, Note_off_c, 2, 58, 0
6, 48240, Note_on_c, 2, 56, 88
6, 48356, Note_off_c, 2, 56, 0
6, 48360, Note_on_c, 2, 54, 88
6, 48476, Note_off_c, 2, 54, 0
6, 48480, Note_on_c, 2, 53, 88
6, 48596, Note_off_c, 2, 53, 0
6, 48600, Note_on_c, 2, 54, 88
6, 48716, Note_off_c, 2, 54, 0
6, 48720, Note_on_c, 2, 56, 88
6, 48836, Note_off_c, 2, 56, 0
6, 48840, Note_on_c, 2, 53, 88
6, 48956, Note_off_c, 2, 53, 0
6, 48960, Note_on_c, 2, 50, 88
6, 49076, Note_off_c, 2, 50, 0
6, 49080, Note_on_c, 2, 46, 88
6, 49196, Note_off_c, 2, 46, 0
6, 49200, Note_on_c, 2, 48, 88
6, 49316, Note_off_c, 2, 48, 0
6, 49320, Note_on_c, 2, 50, 88
6, 49436, Note_off_c, 2, 50, 0
6, 49440, Note_on_c, 2, 51, 88
6, 49556, Note_off_c, 2, 51, 0
6, 49560, Note_on_c, 2, 53, 88
6, 49676, Note_off_c, 2, 53, 0
6, 49680, Note_on_c, 2, 54, 88
6, 49796, Note_off_c, 2, 54, 0
6, 49800, Note_on_c, 2, 51, 88
6, 49916, Note_off_c, 2, 51, 0
6, 49920, Note_on_c, 2, 59, 88
6, 50036, Note_off_c, 2, 59, 0
6, 50040, Note_on_c, 2, 58, 88
6, 50156, Note_off_c, 2, 58, 0
6, 50160, Note_on_c, 2, 56, 88
6, 50276, Note_off_c, 2, 56, 0
6, 50280, Note_on_c, 2, 58, 88
6, 50396, Note_off_c, 2, 58, 0
6, 50400, Note_on_c, 2, 59, 88
6, 50870, Note_off_c, 2, 59, 0
6, 50880, Note_on_c, 2, 58, 88
6, 51825, Note_off_c, 2, 58, 0
6, 52080, Note_on_c, 2, 51, 88
6, 52196, Note_off_c, 2, 51, 0
6, 52200, Note_on_c, 2, 53, 88
6, 52316, Note_off_c, 2, 53, 0
6, 52320, Note_on_c, 2, 54, 88
6, 52436, Note_off_c, 2, 54, 0
6, 52440, Note_on_c, 2, 51, 88
6, 52556, Note_off_c, 2, 51, 0
6, 52560, Note_on_c, 2, 54, 88
6, 52676, Note_off_c, 2, 54, 0
6, 52680, Note_on_c, 2, 58, 88
6, 52796, Note_off_c, 2, 58, 0
6, 52800, Note_on_c, 2, 63, 88
6, 52916, Note_off_c, 2, 63, 0
6, 52920, Note_on_c, 2, 62, 88
6, 53036, Note_off_c, 2, 62, 0
6, 53040, Note_on_c, 2, 63, 88
6, 53510, Note_off_c, 2, 63, 0
6, 53520, Note_on_c, 2, 62, 88
6, 53754, Note_off_c, 2, 62, 0
6, 53760, Note_on_c, 2, 63, 88
6, 53876, Note_off_c, 2, 63, 0
6, 53880, Note_on_c, 2, 61, 88
6, 53996, Note_off_c, 2, 61, 0
6, 54000, Note_on_c, 2, 59, 88
6, 54116, Note_off_c, 2, 59, 0
6, 54120, Note_on_c, 2, 58, 88
6, 54236, Note_off_c, 2, 58, 0
6, 54240, Note_on_c, 2, 59, 88
6, 54356, Note_off_c, 2, 59, 0
6, 54360, Note_on_c, 2, 58, 88
6, 54476, Note_off_c, 2, 58, 0
6, 54480, Note_on_c, 2, 56, 88
6, 54596, Note_off_c, 2, 56, 0
6, 54600, Note_on_c, 2, 54, 88
6, 54716, Note_off_c, 2, 54, 0
6, 54720, Note_on_c, 2, 56, 88
6, 54836, Note_off_c, 2, 56, 0
6, 54840, Note_on_c, 2, 54, 88
6, 54956, Note_off_c, 2, 54, 0
6, 54960, Note_on_c, 2, 53, 88
6, 55076, Note_off_c, 2, 53, 0
6, 55080, Note_on_c, 2, 51, 88
6, 55196, Note_off_c, 2, 51, 0
6, 55200, Note_on_c, 2, 50, 88
6, 55316, Note_off_c, 2, 50, 0
6, 55320, Note_on_c, 2, 46, 88
6, 55436, Note_off_c, 2, 46, 0
6, 55440, Note_on_c, 2, 48, 88
6, 55556, Note_off_c, 2, 48, 0
6, 55560, Note_on_c, 2, 50, 88
6, 55676, Note_off_c, 2, 50, 0
6, 55680, Note_on_c, 2, 51, 88
6, 55796, Note_off_c, 2, 51, 0
6, 55800, Note_on_c, 2, 53, 88
6, 55916, Note_off_c, 2, 53, 0
6, 55920, Note_on_c, 2, 54, 88
6, 56036, Note_off_c, 2, 54, 0
6, 56040, Note_on_c, 2, 56, 88
6, 56156, Note_off_c, 2, 56, 0
6, 56160, Note_on_c, 2, 54, 88
6, 56394, Note_off_c, 2, 54, 0
6, 56400, Note_on_c, 2, 59, 88
6, 56634, Note_off_c, 2, 59, 0
6, 56640, Note_on_c, 2, 53, 88
6, 56756, Note_off_c, 2, 53, 0
6, 56760, Note_on_c, 2, 54, 88
6, 56876, Note_off_c, 2, 54, 0
6, 56880, Note_on_c, 2, 56, 88
6, 56996, Note_off_c, 2, 56, 0
6, 57000, Note_on_c, 2, 58, 88
6, 57116, Note_off_c, 2, 58, 0
6, 57120, Note_on_c, 2, 56, 88
6, 57354, Note_off_c, 2, 56, 0
6, 57360, Note_on_c, 2, 61, 88
6, 57594, Note_off_c, 2, 61, 0
6, 57600, Note_on_c, 2, 54, 88
6, 57834, Note_off_c, 2, 54, 0
6, 57840, Note_on_c, 2, 53, 88
6, 58074, Note_off_c, 2, 53, 0
6, 58080, Note_on_c, 2, 54, 88
6, 58314, Note_off_c, 2, 54, 0
6, 58320, Note_on_c, 2, 51, 88
6, 58554, Note_off_c, 2, 51, 0
6, 58560, Note_on_c, 2, 58, 88
6, 58794, Note_off_c, 2, 58, 0
6, 58800, Note_on_c, 2, 61, 88
6, 59034, Note_off_c, 2, 61, 0
6, 59040, Note_on_c, 2, 54, 88
6, 59156, Note_off_c, 2, 54, 0
6, 59160, Note_on_c, 2, 53, 88
6, 59276, Note_off_c, 2, 53, 0
6, 59280, Note_on_c, 2, 51, 88
6, 59396, Note_off_c, 2, 51, 0
6, 59400, Note_on_c, 2, 49, 88
6, 59516, Note_off_c, 2, 49, 0
6, 59520, Note_on_c, 2, 51, 88
6, 59636, Note_off_c, 2, 51, 0
6, 59640, Note_on_c, 2, 48, 88
6, 59756, Note_off_c, 2, 48, 0
6, 59760, Note_on_c, 2, 49, 88
6, 59876, Note_off_c, 2, 49, 0
6, 59880, Note_on_c, 2, 51, 88
6, 59996, Note_off_c, 2, 51, 0
6, 60000, Note_on_c, 2, 53, 88
6, 60116, Note_off_c, 2, 53, 0
6, 60120, Note_on_c, 2, 51, 88
6, 60236, Note_off_c, 2, 51, 0
6, 60240, Note_on_c, 2, 49, 88
6, 60356, Note_off_c, 2, 49, 0
6, 60360, Note_on_c, 2, 48, 88
6, 60476, Note_off_c, 2, 48, 0
6, 60480, Note_on_c, 2, 46, 88
6, 61070, Note_off_c, 2, 46, 0
6, 61080, Note_on_c, 2, 48, 88
6, 61196, Note_off_c, 2, 48, 0
6, 61200, Note_on_c, 2, 49, 88
6, 61316, Note_off_c, 2, 49, 0
6, 61320, Note_on_c, 2, 46, 88
6, 61436, Note_off_c, 2, 46, 0
6, 61440, Note_on_c, 2, 48, 88
6, 61556, Note_off_c, 2, 48, 0
6, 61560, Note_on_c, 2, 49, 88
6, 61676, Note_off_c, 2, 49, 0
6, 61680, Note_on_c, 2, 51, 88
6, 61914, Note_off_c, 2, 51, 0
6, 61920, Note_on_c, 2, 45, 88
6, 62154, Note_off_c, 2, 45, 0
6, 62160, Note_on_c, 2, 46, 88
6, 62276, Note_off_c, 2, 46, 0
6, 62280, Note_on_c, 2, 48, 88
6, 62396, Note_off_c, 2, 48, 0
6, 62400, Note_on_c, 2, 49, 88
6, 62516, Note_off_c, 2, 49, 0
6, 62520, Note_on_c, 2, 51, 88
6, 62636, Note_off_c, 2, 51, 0
6, 62640, Note_on_c, 2, 49, 88
6, 62756, Note_off_c, 2, 49, 0
6, 62760, Note_on_c, 2, 48, 88
6, 62876, Note_off_c, 2, 48, 0
6, 62880, Note_on_c, 2, 46, 88
6, 62996, Note_off_c, 2, 46, 0
6, 63000, Note_on_c, 2, 44, 88
6, 63116, Note_off_c, 2, 44, 0
6, 63120, Note_on_c, 2, 42, 88
6, 63236, Note_off_c, 2, 42, 0
6, 63240, Note_on_c, 2, 46, 88
6, 63356, Note_off_c, 2, 46, 0
6, 63360, Note_on_c, 2, 39, 88
6, 63594, Note_off_c, 2, 39, 0
6, 64440, Note_on_c, 2, 54, 88
6, 64556, Note_off_c, 2, 54, 0
6, 64560, Note_on_c, 2, 53, 88
6, 64676, Note_off_c, 2, 53, 0
6, 64680, Note_on_c, 2, 51, 88
6, 64796, Note_off_c, 2, 51, 0
6, 64800, Note_on_c, 2, 49, 88
6, 64916, Note_off_c, 2, 49, 0
6, 64920, Note_on_c, 2, 48, 88
6, 65036, Note_off_c, 2, 48, 0
6, 65040, Note_on_c, 2, 46, 88
6, 65156, Note_off_c, 2, 46, 0
6, 65160, Note_on_c, 2, 49, 88
6, 65276, Note_off_c, 2, 49, 0
6, 65280, Note_on_c, 2, 42, 88
6, 65514, Note_off_c, 2, 42, 0
6, 65520, Note_on_c, 2, 39, 88
6, 65754, Note_off_c, 2, 39, 0
6, 65760, Note_on_c, 2, 41, 88
6, 65994, Note_off_c, 2, 41, 0
6, 66000, Note_on_c, 2, 53, 88
6, 66234, Note_off_c, 2, 53, 0
6, 66240, Note_on_c, 2, 46, 88
6, 66356, Note_off_c, 2, 46, 0
6, 66360, Note_on_c, 2, 48, 88
6, 66476, Note_off_c, 2, 48, 0
6, 66480, Note_on_c, 2, 49, 88
6, 66596, Note_off_c, 2, 49, 0
6, 66600, Note_on_c, 2, 51, 88
6, 66716, Note_off_c, 2, 51, 0
6, 66720, Note_on_c, 2, 53, 88
6, 66836, Note_off_c, 2, 53, 0
6, 66840, Note_on_c, 2, 54, 88
6, 66956, Note_off_c, 2, 54, 0
6, 66960, Note_on_c, 2, 56, 88
6, 67076, Note_off_c, 2, 56, 0
6, 67080, Note_on_c, 2, 53, 88
6, 67196, Note_off_c, 2, 53, 0
6, 67200, Note_on_c, 2, 54, 88
6, 67316, Note_off_c, 2, 54, 0
6, 67320, Note_on_c, 2, 56, 88
6, 67436, Note_off_c, 2, 56, 0
6, 67440, Note_on_c, 2, 58, 88
6, 67556, Note_off_c, 2, 58, 0
6, 67560, Note_on_c, 2, 60, 88
6, 67676, Note_off_c, 2, 60, 0
6, 67680, Note_on_c, 2, 61, 88
6, 67796, Note_off_c, 2, 61, 0
6, 67800, Note_on_c, 2, 63, 88
6, 67916, Note_off_c, 2, 63, 0
6, 67920, Note_on_c, 2, 61, 88
6, 68036, Note_off_c, 2, 61, 0
6, 68040, Note_on_c, 2, 60, 88
6, 68156, Note_off_c, 2, 60, 0
6, 68160, Note_on_c, 2, 58, 88
6, 68276, Note_off_c, 2, 58, 0
6, 68280, Note_on_c, 2, 56, 88
6, 68396, Note_off_c, 2, 56, 0
6, 68400, Note_on_c, 2, 54, 88
6, 68516, Note_off_c, 2, 54, 0
6, 68520, Note_on_c, 2, 53, 88
6, 68636, Note_off_c, 2, 53, 0
6, 68640, Note_on_c, 2, 51, 88
6, 68756, Note_off_c, 2, 51, 0
6, 68760, Note_on_c, 2, 53, 88
6, 68876, Note_off_c, 2, 53, 0
6, 68880, Note_on_c, 2, 54, 88
6, 68996, Note_off_c, 2, 54, 0
6, 69000, Note_on_c, 2, 51, 88
6, 69116, Note_off_c, 2, 51, 0
6, 69120, Note_on_c, 2, 53, 88
6, 71510, Note_off_c, 2, 53, 0
6, 71520, Note_on_c, 2, 65, 88
6, 73076, Note_off_c, 2, 65, 0
6, 73080, Note_on_c, 2, 66, 88
6, 73196, Note_off_c, 2, 66, 0
6, 73200, Note_on_c, 2, 65, 88
6, 73316, Note_off_c, 2, 65, 0
6, 73320, Note_on_c, 2, 63, 88
6, 73436, Note_off_c, 2, 63, 0
6, 73440, Note_on_c, 2, 62, 88
6, 73556, Note_off_c, 2, 62, 0
6, 73560, Note_on_c, 2, 60, 88
6, 73676, Note_off_c, 2, 60, 0
6, 73680, Note_on_c, 2, 58, 88
6, 73796, Note_off_c, 2, 58, 0
6, 73800, Note_on_c, 2, 62, 88
6, 73916, Note_off_c, 2, 62, 0
6, 73920, Note_on_c, 2, 51, 88
6, 74036, Note_off_c, 2, 51, 0
6, 74040, Note_on_c, 2, 53, 88
6, 74156, Note_off_c, 2, 53, 0
6, 74160, Note_on_c, 2, 54, 88
6, 74276, Note_off_c, 2, 54, 0
6, 74280, Note_on_c, 2, 56, 88
6, 74396, Note_off_c, 2, 56, 0
6, 74400, Note_on_c, 2, 58, 88
6, 74516, Note_off_c, 2, 58, 0
6, 74520, Note_on_c, 2, 60, 88
6, 74636, Note_off_c, 2, 60, 0
6, 74640, Note_on_c, 2, 62, 88
6, 74756, Note_off_c, 2, 62, 0
6, 74760, Note_on_c, 2, 58, 88
6, 74876, Note_off_c, 2, 58, 0
6, 74880, Note_on_c, 2, 66, 88
6, 74996, Note_off_c, 2, 66, 0
6, 75000, Note_on_c, 2, 65, 88
6, 75116, Note_off_c, 2, 65, 0
6, 75120, Note_on_c, 2, 63, 88
6, 75236, Note_off_c, 2, 63, 0
6, 75240, Note_on_c, 2, 65, 88
6, 75356, Note_off_c, 2, 65, 0
6, 75360, Note_on_c, 2, 66, 88
6, 75476, Note_off_c, 2, 66, 0
6, 75480, Note_on_c, 2, 68, 88
6, 75596, Note_off_c, 2, 68, 0
6, 75600, Note_on_c, 2, 70, 88
6, 75716, Note_off_c, 2, 70, 0
6, 75720, Note_on_c, 2, 66, 88
6, 75836, Note_off_c, 2, 66, 0
6, 75840, Note_on_c, 2, 63, 88
6, 75956, Note_off_c, 2, 63, 0
6, 75960, Note_on_c, 2, 61, 88
6, 76076, Note_off_c, 2, 61, 0
6, 76080, Note_on_c, 2, 60, 88
6, 76196, Note_off_c, 2, 60, 0
6, 76200, Note_on_c, 2, 58, 88
6, 76316, Note_off_c, 2, 58, 0
6, 76320, Note_on_c, 2, 57, 88
6, 76436, Note_off_c, 2, 57, 0
6, 76440, Note_on_c, 2, 55, 88
6, 76556, Note_off_c, 2, 55, 0
6, 76560, Note_on_c, 2, 53, 88
6, 76676, Note_off_c, 2, 53, 0
6, 76680, Note_on_c, 2, 57, 88
6, 76796, Note_off_c, 2, 57, 0
6, 76800, Note_on_c, 2, 49, 88
6, 76916, Note_off_c, 2, 49, 0
6, 76920, Note_on_c, 2, 54, 88
6, 77036, Note_off_c, 2, 54, 0
6, 77040, Note_on_c, 2, 53, 88
6, 77156, Note_off_c, 2, 53, 0
6, 77160, Note_on_c, 2, 51, 88
6, 77276, Note_off_c, 2, 51, 0
6, 77280, Note_on_c, 2, 49, 88
6, 77396, Note_off_c, 2, 49, 0
6, 77400, Note_on_c, 2, 48, 88
6, 77516, Note_off_c, 2, 48, 0
6, 77520, Note_on_c, 2, 46, 88
6, 77636, Note_off_c, 2, 46, 0
6, 77640, Note_on_c, 2, 48, 88
6, 77756, Note_off_c, 2, 48, 0
6, 77760, Note_on_c, 2, 49, 88
6, 77876, Note_off_c, 2, 49, 0
6, 77880, Note_on_c, 2, 48, 88
6, 77996, Note_off_c, 2, 48, 0
6, 78000, Note_on_c, 2, 49, 88
6, 78116, Note_off_c, 2, 49, 0
6, 78120, Note_on_c, 2, 51, 88
6, 78236, Note_off_c, 2, 51, 0
6, 78240, Note_on_c, 2, 53, 88
6, 78356, Note_off_c, 2, 53, 0
6, 78360, Note_on_c, 2, 51, 88
6, 78476, Note_off_c, 2, 51, 0
6, 78480, Note_on_c, 2, 53, 88
6, 78596, Note_off_c, 2, 53, 0
6, 78600, Note_on_c, 2, 41, 88
6, 78716, Note_off_c, 2, 41, 0
6, 78720, Note_on_c, 2, 46, 88
6, 79665, Note_off_c, 2, 46, 0
6, 79665, End_track
0, 0, End_of_file
