0, 0, Header, 1, 7, 240
1, 0, Start_track
1, 0, Time_signature, 4, 2, 24, 8
1, 0, Tempo, 681818
1, 0, SMPTE_offset, 64, 0, 0, 0, 93
1, 0, End_track
2, 0, Start_track
2, 0, Title_t, "(C) & (P) 1993"
2, 127, End_track
3, 0, Start_track
3, 0, Title_t, "CCARH,Stanford"
3, 0, End_track
4, 0, Start_track
4, 0, Title_t, "Track 1"
4, 0, Program_c, 0, 6
4, 60, Note_on_c, 0, 59, 88
4, 118, Note_off_c, 0, 59, 0
4, 120, Note_on_c, 0, 61, 88
4, 178, Note_off_c, 0, 61, 0
4, 180, Note_on_c, 0, 63, 88
4, 238, Note_off_c, 0, 63, 0
4, 240, Note_on_c, 0, 64, 88
4, 298, Note_off_c, 0, 64, 0
4, 300, Note_on_c, 0, 66, 88
4, 358, Note_off_c, 0, 66, 0
4, 360, Note_on_c, 0, 68, 88
4, 418, Note_off_c, 0, 68, 0
4, 420, Note_on_c, 0, 70, 88
4, 469, Note_off_c, 0, 70, 0
4, 480, Note_on_c, 0, 71, 88
4, 491, Note_on_c, 0, 70, 88
4, 491, Note_off_c, 0, 71, 0
4, 509, Note_off_c, 0, 70, 0
4, 510, Note_on_c, 0, 71, 88
4, 656, Note_off_c, 0, 71, 0
4, 660, Note_on_c, 0, 73, 88
4, 718, Note_off_c, 0, 73, 0
4, 720, Note_on_c, 0, 75, 88
4, 749, Note_off_c, 0, 75, 0
4, 750, Note_on_c, 0, 73, 88
4, 779, Note_off_c, 0, 73, 0
4, 780, Note_on_c, 0, 75, 88
4, 809, Note_off_c, 0, 75, 0
4, 810, Note_on_c, 0, 73, 88
4, 839, Note_off_c, 0, 73, 0
4, 840, Note_on_c, 0, 75, 88
4, 869, Note_off_c, 0, 75, 0
4, 870, Note_on_c, 0, 73, 88
4, 899, Note_off_c, 0, 73, 0
4, 900, Note_on_c, 0, 71, 88
4, 929, Note_off_c, 0, 71, 0
4, 930, Note_on_c, 0, 73, 88
4, 959, Note_off_c, 0, 73, 0
4, 960, Note_on_c, 0, 75, 88
4, 1018, Note_off_c, 0, 75, 0
4, 1020, Note_on_c, 0, 70, 88
4, 1078, Note_off_c, 0, 70, 0
4, 1080, Note_on_c, 0, 71, 88
4, 1138, Note_off_c, 0, 71, 0
4, 1140, Note_on_c, 0, 75, 88
4, 1198, Note_off_c, 0, 75, 0
4, 1200, Note_on_c, 0, 76, 88
4, 1258, Note_off_c, 0, 76, 0
4, 1260, Note_on_c, 0, 70, 88
4, 1318, Note_off_c, 0, 70, 0
4, 1320, Note_on_c, 0, 71, 88
4, 1378, Note_off_c, 0, 71, 0
4, 1380, Note_on_c, 0, 76, 88
4, 1438, Note_off_c, 0, 76, 0
4, 1440, Note_on_c, 0, 78, 88
4, 1498, Note_off_c, 0, 78, 0
4, 1500, Note_on_c, 0, 71, 88
4, 1558, Note_off_c, 0, 71, 0
4, 1560, Note_on_c, 0, 80, 88
4, 1618, Note_off_c, 0, 80, 0
4, 1620, Note_on_c, 0, 78, 88
4, 1678, Note_off_c, 0, 78, 0
4, 1680, Note_on_c, 0, 76, 88
4, 1738, Note_off_c, 0, 76, 0
4, 1740, Note_on_c, 0, 75, 88
4, 1798, Note_off_c, 0, 75, 0
4, 1800, Note_on_c, 0, 73, 88
4, 1858, Note_off_c, 0, 73, 0
4, 1860, Note_on_c, 0, 71, 88
4, 1918, Note_off_c, 0, 71, 0
4, 1920, Note_on_c, 0, 70, 88
4, 1978, Note_off_c, 0, 70, 0
4, 1980, Note_on_c, 0, 65, 88
4, 2038, Note_off_c, 0, 65, 0
4, 2040, Note_on_c, 0, 66, 88
4, 2098, Note_off_c, 0, 66, 0
4, 2100, Note_on_c, 0, 73, 88
4, 2158, Note_off_c, 0, 73, 0
4, 2160, Note_on_c, 0, 70, 88
4, 2218, Note_off_c, 0, 70, 0
4, 2220, Note_on_c, 0, 73, 88
4, 2278, Note_off_c, 0, 73, 0
4, 2280, Note_on_c, 0, 66, 88
4, 2338, Note_off_c, 0, 66, 0
4, 2340, Note_on_c, 0, 73, 88
4, 2398, Note_off_c, 0, 73, 0
4, 2400, Note_on_c, 0, 70, 88
4, 2458, Note_off_c, 0, 70, 0
4, 2460, Note_on_c, 0, 65, 88
4, 2518, Note_off_c, 0, 65, 0
4, 2520, Note_on_c, 0, 66, 88
4, 2578, Note_off_c, 0, 66, 0
4, 2580, Note_on_c, 0, 73, 88
4, 2638, Note_off_c, 0, 73, 0
4, 2640, Note_on_c, 0, 70, 88
4, 2698, Note_off_c, 0, 70, 0
4, 2700, Note_on_c, 0, 73, 88
4, 2758, Note_off_c, 0, 73, 0
4, 2760, Note_on_c, 0, 66, 88
4, 2818, Note_off_c, 0, 66, 0
4, 2820, Note_on_c, 0, 73, 88
4, 2878, Note_off_c, 0, 73, 0
4, 2880, Note_on_c, 0, 71, 88
4, 2938, Note_off_c, 0, 71, 0
4, 2940, Note_on_c, 0, 65, 88
4, 2998, Note_off_c, 0, 65, 0
4, 3000, Note_on_c, 0, 66, 88
4, 3058, Note_off_c, 0, 66, 0
4, 3060, Note_on_c, 0, 75, 88
4, 3118, Note_off_c, 0, 75, 0
4, 3120, Note_on_c, 0, 71, 88
4, 3178, Note_off_c, 0, 71, 0
4, 3180, Note_on_c, 0, 75, 88
4, 3238, Note_off_c, 0, 75, 0
4, 3240, Note_on_c, 0, 66, 88
4, 3298, Note_off_c, 0, 66, 0
4, 3300, Note_on_c, 0, 75, 88
4, 3358, Note_off_c, 0, 75, 0
4, 3360, Note_on_c, 0, 71, 88
4, 3418, Note_off_c, 0, 71, 0
4, 3420, Note_on_c, 0, 65, 88
4, 3478, Note_off_c, 0, 65, 0
4, 3480, Note_on_c, 0, 66, 88
4, 3538, Note_off_c, 0, 66, 0
4, 3540, Note_on_c, 0, 75, 88
4, 3598, Note_off_c, 0, 75, 0
4, 3600, Note_on_c, 0, 71, 88
4, 3658, Note_off_c, 0, 71, 0
4, 3660, Note_on_c, 0, 75, 88
4, 3718, Note_off_c, 0, 75, 0
4, 3720, Note_on_c, 0, 66, 88
4, 3778, Note_off_c, 0, 66, 0
4, 3780, Note_on_c, 0, 75, 88
4, 3838, Note_off_c, 0, 75, 0
4, 3840, Note_on_c, 0, 73, 88
4, 3898, Note_off_c, 0, 73, 0
4, 3900, Note_on_c, 0, 65, 88
4, 3958, Note_off_c, 0, 65, 0
4, 3960, Note_on_c, 0, 66, 88
4, 4018, Note_off_c, 0, 66, 0
4, 4020, Note_on_c, 0, 76, 88
4, 4078, Note_off_c, 0, 76, 0
4, 4080, Note_on_c, 0, 73, 88
4, 4138, Note_off_c, 0, 73, 0
4, 4140, Note_on_c, 0, 76, 88
4, 4198, Note_off_c, 0, 76, 0
4, 4200, Note_on_c, 0, 70, 88
4, 4258, Note_off_c, 0, 70, 0
4, 4260, Note_on_c, 0, 76, 88
4, 4318, Note_off_c, 0, 76, 0
4, 4320, Note_on_c, 0, 73, 88
4, 4378, Note_off_c, 0, 73, 0
4, 4380, Note_on_c, 0, 65, 88
4, 4438, Note_off_c, 0, 65, 0
4, 4440, Note_on_c, 0, 66, 88
4, 4498, Note_off_c, 0, 66, 0
4, 4500, Note_on_c, 0, 76, 88
4, 4558, Note_off_c, 0, 76, 0
4, 4560, Note_on_c, 0, 73, 88
4, 4618, Note_off_c, 0, 73, 0
4, 4620, Note_on_c, 0, 76, 88
4, 4678, Note_off_c, 0, 76, 0
4, 4680, Note_on_c, 0, 70, 88
4, 4738, Note_off_c, 0, 70, 0
4, 4740, Note_on_c, 0, 76, 88
4, 4798, Note_off_c, 0, 76, 0
4, 4800, Note_on_c, 0, 75, 88
4, 4858, Note_off_c, 0, 75, 0
4, 4860, Note_on_c, 0, 70, 88
4, 4918, Note_off_c, 0, 70, 0
4, 4920, Note_on_c, 0, 71, 88
4, 4978, Note_off_c, 0, 71, 0
4, 4980, Note_on_c, 0, 78, 88
4, 5038, Note_off_c, 0, 78, 0
4, 5040, Note_on_c, 0, 75, 88
4, 5098, Note_off_c, 0, 75, 0
4, 5100, Note_on_c, 0, 78, 88
4, 5158, Note_off_c, 0, 78, 0
4, 5160, Note_on_c, 0, 71, 88
4, 5218, Note_off_c, 0, 71, 0
4, 5220, Note_on_c, 0, 78, 88
4, 5278, Note_off_c, 0, 78, 0
4, 5280, Note_on_c, 0, 75, 88
4, 5338, Note_off_c, 0, 75, 0
4, 5340, Note_on_c, 0, 70, 88
4, 5398, Note_off_c, 0, 70, 0
4, 5400, Note_on_c, 0, 71, 88
4, 5458, Note_off_c, 0, 71, 0
4, 5460, Note_on_c, 0, 78, 88
4, 5518, Note_off_c, 0, 78, 0
4, 5520, Note_on_c, 0, 75, 88
4, 5578, Note_off_c, 0, 75, 0
4, 5580, Note_on_c, 0, 78, 88
4, 5638, Note_off_c, 0, 78, 0
4, 5640, Note_on_c, 0, 71, 88
4, 5698, Note_off_c, 0, 71, 0
4, 5700, Note_on_c, 0, 78, 88
4, 5758, Note_off_c, 0, 78, 0
4, 5760, Note_on_c, 0, 81, 88
4, 5818, Note_off_c, 0, 81, 0
4, 5820, Note_on_c, 0, 76, 88
4, 5878, Note_off_c, 0, 76, 0
4, 5880, Note_on_c, 0, 78, 88
4, 5938, Note_off_c, 0, 78, 0
4, 5940, Note_on_c, 0, 81, 88
4, 5998, Note_off_c, 0, 81, 0
4, 6000, Note_on_c, 0, 75, 88
4, 6058, Note_off_c, 0, 75, 0
4, 6060, Note_on_c, 0, 78, 88
4, 6118, Note_off_c, 0, 78, 0
4, 6120, Note_on_c, 0, 71, 88
4, 6178, Note_off_c, 0, 71, 0
4, 6180, Note_on_c, 0, 78, 88
4, 6238, Note_off_c, 0, 78, 0
4, 6240, Note_on_c, 0, 81, 88
4, 6298, Note_off_c, 0, 81, 0
4, 6300, Note_on_c, 0, 78, 88
4, 6358, Note_off_c, 0, 78, 0
4, 6360, Note_on_c, 0, 76, 88
4, 6418, Note_off_c, 0, 76, 0
4, 6420, Note_on_c, 0, 75, 88
4, 6478, Note_off_c, 0, 75, 0
4, 6480, Note_on_c, 0, 76, 88
4, 6538, Note_off_c, 0, 76, 0
4, 6540, Note_on_c, 0, 75, 88
4, 6598, Note_off_c, 0, 75, 0
4, 6600, Note_on_c, 0, 73, 88
4, 6658, Note_off_c, 0, 73, 0
4, 6660, Note_on_c, 0, 71, 88
4, 6718, Note_off_c, 0, 71, 0
4, 6720, Note_on_c, 0, 80, 88
4, 6778, Note_off_c, 0, 80, 0
4, 6780, Note_on_c, 0, 76, 88
4, 6838, Note_off_c, 0, 76, 0
4, 6840, Note_on_c, 0, 75, 88
4, 6898, Note_off_c, 0, 75, 0
4, 6900, Note_on_c, 0, 73, 88
4, 6958, Note_off_c, 0, 73, 0
4, 6960, Note_on_c, 0, 75, 88
4, 7018, Note_off_c, 0, 75, 0
4, 7020, Note_on_c, 0, 73, 88
4, 7078, Note_off_c, 0, 73, 0
4, 7080, Note_on_c, 0, 71, 88
4, 7138, Note_off_c, 0, 71, 0
4, 7140, Note_on_c, 0, 70, 88
4, 7198, Note_off_c, 0, 70, 0
4, 7200, Note_on_c, 0, 78, 88
4, 7258, Note_off_c, 0, 78, 0
4, 7260, Note_on_c, 0, 75, 88
4, 7318, Note_off_c, 0, 75, 0
4, 7320, Note_on_c, 0, 73, 88
4, 7378, Note_off_c, 0, 73, 0
4, 7380, Note_on_c, 0, 71, 88
4, 7438, Note_off_c, 0, 71, 0
4, 7440, Note_on_c, 0, 73, 88
4, 7498, Note_off_c, 0, 73, 0
4, 7500, Note_on_c, 0, 71, 88
4, 7558, Note_off_c, 0, 71, 0
4, 7560, Note_on_c, 0, 70, 88
4, 7618, Note_off_c, 0, 70, 0
4, 7620, Note_on_c, 0, 68, 88
4, 7678, Note_off_c, 0, 68, 0
4, 7680, Note_on_c, 0, 76, 88
4, 7738, Note_off_c, 0, 76, 0
4, 7740, Note_on_c, 0, 75, 88
4, 7798, Note_off_c, 0, 75, 0
4, 7800, Note_on_c, 0, 73, 88
4, 7858, Note_off_c, 0, 73, 0
4, 7860, Note_on_c, 0, 75, 88
4, 7918, Note_off_c, 0, 75, 0
4, 7920, Note_on_c, 0, 76, 88
4, 8036, Note_off_c, 0, 76, 0
4, 8040, Note_on_c, 0, 68, 88
4, 8156, Note_off_c, 0, 68, 0
4, 8160, Note_on_c, 0, 66, 88
4, 8218, Note_off_c, 0, 66, 0
4, 8220, Note_on_c, 0, 68, 88
4, 8278, Note_off_c, 0, 68, 0
4, 8280, Note_on_c, 0, 70, 88
4, 8338, Note_off_c, 0, 70, 0
4, 8340, Note_on_c, 0, 71, 88
4, 8398, Note_off_c, 0, 71, 0
4, 8400, Note_on_c, 0, 73, 88
4, 8458, Note_off_c, 0, 73, 0
4, 8460, Note_on_c, 0, 75, 88
4, 8518, Note_off_c, 0, 75, 0
4, 8520, Note_on_c, 0, 76, 88
4, 8578, Note_off_c, 0, 76, 0
4, 8580, Note_on_c, 0, 73, 88
4, 8638, Note_off_c, 0, 73, 0
4, 8640, Note_on_c, 0, 75, 88
4, 8698, Note_off_c, 0, 75, 0
4, 8700, Note_on_c, 0, 76, 88
4, 8758, Note_off_c, 0, 76, 0
4, 8760, Note_on_c, 0, 75, 88
4, 8818, Note_off_c, 0, 75, 0
4, 8820, Note_on_c, 0, 73, 88
4, 8878, Note_off_c, 0, 73, 0
4, 8880, Note_on_c, 0, 71, 88
4, 8938, Note_off_c, 0, 71, 0
4, 8940, Note_on_c, 0, 70, 88
4, 8998, Note_off_c, 0, 70, 0
4, 9000, Note_on_c, 0, 68, 88
4, 9058, Note_off_c, 0, 68, 0
4, 9060, Note_on_c, 0, 66, 88
4, 9118, Note_off_c, 0, 66, 0
4, 9120, Note_on_c, 0, 65, 88
4, 9178, Note_off_c, 0, 65, 0
4, 9180, Note_on_c, 0, 61, 88
4, 9238, Note_off_c, 0, 61, 0
4, 9240, Note_on_c, 0, 65, 88
4, 9298, Note_off_c, 0, 65, 0
4, 9300, Note_on_c, 0, 68, 88
4, 9358, Note_off_c, 0, 68, 0
4, 9360, Note_on_c, 0, 73, 88
4, 9658, Note_off_c, 0, 73, 0
4, 9660, Note_on_c, 0, 71, 88
4, 9718, Note_off_c, 0, 71, 0
4, 9720, Note_on_c, 0, 70, 88
4, 9778, Note_off_c, 0, 70, 0
4, 9780, Note_on_c, 0, 68, 88
4, 9838, Note_off_c, 0, 68, 0
4, 9840, Note_on_c, 0, 66, 88
4, 9898, Note_off_c, 0, 66, 0
4, 9900, Note_on_c, 0, 65, 88
4, 9958, Note_off_c, 0, 65, 0
4, 9960, Note_on_c, 0, 63, 88
4, 10018, Note_off_c, 0, 63, 0
4, 10020, Note_on_c, 0, 73, 88
4, 10078, Note_off_c, 0, 73, 0
4, 10080, Note_on_c, 0, 71, 88
4, 10138, Note_off_c, 0, 71, 0
4, 10140, Note_on_c, 0, 70, 88
4, 10198, Note_off_c, 0, 70, 0
4, 10200, Note_on_c, 0, 68, 88
4, 10258, Note_off_c, 0, 68, 0
4, 10260, Note_on_c, 0, 66, 88
4, 10318, Note_off_c, 0, 66, 0
4, 10320, Note_on_c, 0, 65, 88
4, 10378, Note_off_c, 0, 65, 0
4, 10380, Note_on_c, 0, 63, 88
4, 10438, Note_off_c, 0, 63, 0
4, 10440, Note_on_c, 0, 61, 88
4, 10498, Note_off_c, 0, 61, 0
4, 10500, Note_on_c, 0, 71, 88
4, 10558, Note_off_c, 0, 71, 0
4, 10560, Note_on_c, 0, 66, 88
4, 10560, Note_on_c, 0, 70, 88
4, 10794, Note_off_c, 0, 66, 0
4, 10794, Note_off_c, 0, 70, 0
4, 11160, Note_on_c, 0, 73, 88
4, 11276, Note_off_c, 0, 73, 0
4, 11280, Note_on_c, 0, 78, 88
4, 11396, Note_off_c, 0, 78, 0
4, 11400, Note_on_c, 0, 75, 88
4, 11516, Note_off_c, 0, 75, 0
4, 11520, Note_on_c, 0, 76, 88
4, 12110, Note_off_c, 0, 76, 0
4, 12120, Note_on_c, 0, 75, 88
4, 12236, Note_off_c, 0, 75, 0
4, 12240, Note_on_c, 0, 76, 88
4, 12356, Note_off_c, 0, 76, 0
4, 12360, Note_on_c, 0, 77, 88
4, 12476, Note_off_c, 0, 77, 0
4, 12480, Note_on_c, 0, 78, 88
4, 13070, Note_off_c, 0, 78, 0
4, 13080, Note_on_c, 0, 77, 88
4, 13196, Note_off_c, 0, 77, 0
4, 13200, Note_on_c, 0, 78, 88
4, 13316, Note_off_c, 0, 78, 0
4, 13320, Note_on_c, 0, 79, 88
4, 13436, Note_off_c, 0, 79, 0
4, 13440, Note_on_c, 0, 80, 88
4, 13734, Note_off_c, 0, 80, 0
4, 13740, Note_on_c, 0, 75, 88
4, 13798, Note_off_c, 0, 75, 0
4, 13800, Note_on_c, 0, 80, 88
4, 13858, Note_off_c, 0, 80, 0
4, 13860, Note_on_c, 0, 78, 88
4, 13918, Note_off_c, 0, 78, 0
4, 13920, Note_on_c, 0, 76, 88
4, 13978, Note_off_c, 0, 76, 0
4, 13980, Note_on_c, 0, 75, 88
4, 14038, Note_off_c, 0, 75, 0
4, 14040, Note_on_c, 0, 73, 88
4, 14098, Note_off_c, 0, 73, 0
4, 14100, Note_on_c, 0, 71, 88
4, 14158, Note_off_c, 0, 71, 0
4, 14160, Note_on_c, 0, 70, 88
4, 14218, Note_off_c, 0, 70, 0
4, 14220, Note_on_c, 0, 71, 88
4, 14278, Note_off_c, 0, 71, 0
4, 14280, Note_on_c, 0, 73, 88
4, 14338, Note_off_c, 0, 73, 0
4, 14340, Note_on_c, 0, 68, 88
4, 14398, Note_off_c, 0, 68, 0
4, 14400, Note_on_c, 0, 67, 88
4, 14458, Note_off_c, 0, 67, 0
4, 14460, Note_on_c, 0, 68, 88
4, 14518, Note_off_c, 0, 68, 0
4, 14520, Note_on_c, 0, 70, 88
4, 14578, Note_off_c, 0, 70, 0
4, 14580, Note_on_c, 0, 64, 88
4, 14638, Note_off_c, 0, 64, 0
4, 14640, Note_on_c, 0, 63, 88
4, 14698, Note_off_c, 0, 63, 0
4, 14700, Note_on_c, 0, 61, 88
4, 14758, Note_off_c, 0, 61, 0
4, 14760, Note_on_c, 0, 59, 88
4, 14818, Note_off_c, 0, 59, 0
4, 14820, Note_on_c, 0, 58, 88
4, 14878, Note_off_c, 0, 58, 0
4, 14880, Note_on_c, 0, 59, 88
4, 14938, Note_off_c, 0, 59, 0
4, 14940, Note_on_c, 0, 63, 88
4, 14998, Note_off_c, 0, 63, 0
4, 15000, Note_on_c, 0, 68, 88
4, 15058, Note_off_c, 0, 68, 0
4, 15060, Note_on_c, 0, 59, 88
4, 15118, Note_off_c, 0, 59, 0
4, 15120, Note_on_c, 0, 58, 88
4, 15178, Note_off_c, 0, 58, 0
4, 15180, Note_on_c, 0, 68, 88
4, 15238, Note_off_c, 0, 68, 0
4, 15240, Note_on_c, 0, 58, 88
4, 15298, Note_off_c, 0, 58, 0
4, 15300, Note_on_c, 0, 67, 88
4, 15358, Note_off_c, 0, 67, 0
4, 15360, Note_on_c, 0, 68, 88
4, 15418, Note_off_c, 0, 68, 0
4, 15420, Note_on_c, 0, 59, 88
4, 15478, Note_off_c, 0, 59, 0
4, 15480, Note_on_c, 0, 61, 88
4, 15538, Note_off_c, 0, 61, 0
4, 15540, Note_on_c, 0, 63, 88
4, 15598, Note_off_c, 0, 63, 0
4, 15600, Note_on_c, 0, 56, 88
4, 15658, Note_off_c, 0, 56, 0
4, 15900, Note_on_c, 0, 58, 88
4, 15958, Note_off_c, 0, 58, 0
4, 15960, Note_on_c, 0, 59, 88
4, 16018, Note_off_c, 0, 59, 0
4, 16020, Note_on_c, 0, 61, 88
4, 16078, Note_off_c, 0, 61, 0
4, 16080, Note_on_c, 0, 59, 88
4, 16138, Note_off_c, 0, 59, 0
4, 16140, Note_on_c, 0, 58, 88
4, 16198, Note_off_c, 0, 58, 0
4, 16200, Note_on_c, 0, 56, 88
4, 16258, Note_off_c, 0, 56, 0
4, 16260, Note_on_c, 0, 54, 88
4, 16318, Note_off_c, 0, 54, 0
4, 16320, Note_on_c, 0, 53, 88
4, 16378, Note_off_c, 0, 53, 0
4, 16380, Note_on_c, 0, 56, 88
4, 16438, Note_off_c, 0, 56, 0
4, 16440, Note_on_c, 0, 58, 88
4, 16498, Note_off_c, 0, 58, 0
4, 16500, Note_on_c, 0, 59, 88
4, 16558, Note_off_c, 0, 59, 0
4, 16560, Note_on_c, 0, 49, 88
4, 16618, Note_off_c, 0, 49, 0
4, 16620, Note_on_c, 0, 51, 88
4, 16678, Note_off_c, 0, 51, 0
4, 16680, Note_on_c, 0, 53, 88
4, 16738, Note_off_c, 0, 53, 0
4, 16740, Note_on_c, 0, 54, 88
4, 16798, Note_off_c, 0, 54, 0
4, 16800, Note_on_c, 0, 56, 88
4, 16858, Note_off_c, 0, 56, 0
4, 16860, Note_on_c, 0, 58, 88
4, 16918, Note_off_c, 0, 58, 0
4, 16920, Note_on_c, 0, 59, 88
4, 16978, Note_off_c, 0, 59, 0
4, 16980, Note_on_c, 0, 61, 88
4, 17038, Note_off_c, 0, 61, 0
4, 17040, Note_on_c, 0, 63, 88
4, 17098, Note_off_c, 0, 63, 0
4, 17100, Note_on_c, 0, 65, 88
4, 17158, Note_off_c, 0, 65, 0
4, 17160, Note_on_c, 0, 66, 88
4, 17218, Note_off_c, 0, 66, 0
4, 17220, Note_on_c, 0, 68, 88
4, 17278, Note_off_c, 0, 68, 0
4, 17280, Note_on_c, 0, 70, 88
4, 17338, Note_off_c, 0, 70, 0
4, 17340, Note_on_c, 0, 66, 88
4, 17398, Note_off_c, 0, 66, 0
4, 17400, Note_on_c, 0, 65, 88
4, 17458, Note_off_c, 0, 65, 0
4, 17460, Note_on_c, 0, 63, 88
4, 17518, Note_off_c, 0, 63, 0
4, 17520, Note_on_c, 0, 61, 88
4, 17578, Note_off_c, 0, 61, 0
4, 17820, Note_on_c, 0, 56, 88
4, 17878, Note_off_c, 0, 56, 0
4, 17880, Note_on_c, 0, 58, 88
4, 17938, Note_off_c, 0, 58, 0
4, 17940, Note_on_c, 0, 59, 88
4, 17998, Note_off_c, 0, 59, 0
4, 18000, Note_on_c, 0, 58, 88
4, 18058, Note_off_c, 0, 58, 0
4, 18060, Note_on_c, 0, 56, 88
4, 18118, Note_off_c, 0, 56, 0
4, 18120, Note_on_c, 0, 54, 88
4, 18178, Note_off_c, 0, 54, 0
4, 18180, Note_on_c, 0, 52, 88
4, 18238, Note_off_c, 0, 52, 0
4, 18240, Note_on_c, 0, 51, 88
4, 18298, Note_off_c, 0, 51, 0
4, 18300, Note_on_c, 0, 54, 88
4, 18358, Note_off_c, 0, 54, 0
4, 18360, Note_on_c, 0, 56, 88
4, 18418, Note_off_c, 0, 56, 0
4, 18420, Note_on_c, 0, 57, 88
4, 18478, Note_off_c, 0, 57, 0
4, 18480, Note_on_c, 0, 47, 88
4, 18538, Note_off_c, 0, 47, 0
4, 18540, Note_on_c, 0, 49, 88
4, 18598, Note_off_c, 0, 49, 0
4, 18600, Note_on_c, 0, 51, 88
4, 18658, Note_off_c, 0, 51, 0
4, 18660, Note_on_c, 0, 52, 88
4, 18718, Note_off_c, 0, 52, 0
4, 18720, Note_on_c, 0, 54, 88
4, 18778, Note_off_c, 0, 54, 0
4, 18780, Note_on_c, 0, 56, 88
4, 18838, Note_off_c, 0, 56, 0
4, 18840, Note_on_c, 0, 57, 88
4, 18898, Note_off_c, 0, 57, 0
4, 18900, Note_on_c, 0, 59, 88
4, 18958, Note_off_c, 0, 59, 0
4, 18960, Note_on_c, 0, 61, 88
4, 19018, Note_off_c, 0, 61, 0
4, 19020, Note_on_c, 0, 63, 88
4, 19078, Note_off_c, 0, 63, 0
4, 19080, Note_on_c, 0, 64, 88
4, 19138, Note_off_c, 0, 64, 0
4, 19140, Note_on_c, 0, 66, 88
4, 19198, Note_off_c, 0, 66, 0
4, 19200, Note_on_c, 0, 68, 88
4, 19258, Note_off_c, 0, 68, 0
4, 19260, Note_on_c, 0, 64, 88
4, 19318, Note_off_c, 0, 64, 0
4, 19320, Note_on_c, 0, 63, 88
4, 19378, Note_off_c, 0, 63, 0
4, 19380, Note_on_c, 0, 61, 88
4, 19438, Note_off_c, 0, 61, 0
4, 19440, Note_on_c, 0, 59, 88
4, 19498, Note_off_c, 0, 59, 0
4, 19740, Note_on_c, 0, 63, 88
4, 19798, Note_off_c, 0, 63, 0
4, 19800, Note_on_c, 0, 64, 88
4, 19858, Note_off_c, 0, 64, 0
4, 19860, Note_on_c, 0, 66, 88
4, 19918, Note_off_c, 0, 66, 0
4, 19920, Note_on_c, 0, 64, 88
4, 19978, Note_off_c, 0, 64, 0
4, 19980, Note_on_c, 0, 63, 88
4, 20038, Note_off_c, 0, 63, 0
4, 20040, Note_on_c, 0, 61, 88
4, 20098, Note_off_c, 0, 61, 0
4, 20100, Note_on_c, 0, 59, 88
4, 20158, Note_off_c, 0, 59, 0
4, 20160, Note_on_c, 0, 58, 88
4, 20218, Note_off_c, 0, 58, 0
4, 20220, Note_on_c, 0, 61, 88
4, 20278, Note_off_c, 0, 61, 0
4, 20280, Note_on_c, 0, 63, 88
4, 20338, Note_off_c, 0, 63, 0
4, 20340, Note_on_c, 0, 64, 88
4, 20398, Note_off_c, 0, 64, 0
4, 20400, Note_on_c, 0, 54, 88
4, 20458, Note_off_c, 0, 54, 0
4, 20460, Note_on_c, 0, 56, 88
4, 20518, Note_off_c, 0, 56, 0
4, 20520, Note_on_c, 0, 58, 88
4, 20578, Note_off_c, 0, 58, 0
4, 20580, Note_on_c, 0, 59, 88
4, 20638, Note_off_c, 0, 59, 0
4, 20640, Note_on_c, 0, 61, 88
4, 20698, Note_off_c, 0, 61, 0
4, 20700, Note_on_c, 0, 63, 88
4, 20758, Note_off_c, 0, 63, 0
4, 20760, Note_on_c, 0, 64, 88
4, 20818, Note_off_c, 0, 64, 0
4, 20820, Note_on_c, 0, 66, 88
4, 20878, Note_off_c, 0, 66, 0
4, 20880, Note_on_c, 0, 68, 88
4, 20938, Note_off_c, 0, 68, 0
4, 20940, Note_on_c, 0, 70, 88
4, 20998, Note_off_c, 0, 70, 0
4, 21000, Note_on_c, 0, 71, 88
4, 21058, Note_off_c, 0, 71, 0
4, 21060, Note_on_c, 0, 73, 88
4, 21118, Note_off_c, 0, 73, 0
4, 21120, Note_on_c, 0, 75, 88
4, 21178, Note_off_c, 0, 75, 0
4, 21180, Note_on_c, 0, 71, 88
4, 21238, Note_off_c, 0, 71, 0
4, 21240, Note_on_c, 0, 70, 88
4, 21298, Note_off_c, 0, 70, 0
4, 21300, Note_on_c, 0, 68, 88
4, 21358, Note_off_c, 0, 68, 0
4, 21360, Note_on_c, 0, 66, 88
4, 21418, Note_off_c, 0, 66, 0
4, 21720, Note_on_c, 0, 78, 88
4, 21836, Note_off_c, 0, 78, 0
4, 21840, Note_on_c, 0, 76, 88
4, 21876, Note_off_c, 0, 76, 0
4, 21878, Note_on_c, 0, 75, 88
4, 21957, Note_off_c, 0, 75, 0
4, 21960, Note_on_c, 0, 73, 88
4, 21996, Note_off_c, 0, 73, 0
4, 21998, Note_on_c, 0, 71, 88
4, 22077, Note_off_c, 0, 71, 0
4, 22080, Note_on_c, 0, 83, 88
4, 22670, Note_off_c, 0, 83, 0
4, 22680, Note_on_c, 0, 80, 88
4, 22796, Note_off_c, 0, 80, 0
4, 22800, Note_on_c, 0, 78, 88
4, 22836, Note_off_c, 0, 78, 0
4, 22838, Note_on_c, 0, 77, 88
4, 22917, Note_off_c, 0, 77, 0
4, 22920, Note_on_c, 0, 75, 88
4, 22956, Note_off_c, 0, 75, 0
4, 22958, Note_on_c, 0, 73, 88
4, 23037, Note_off_c, 0, 73, 0
4, 23040, Note_on_c, 0, 82, 88
4, 23630, Note_off_c, 0, 82, 0
4, 23640, Note_on_c, 0, 78, 88
4, 23756, Note_off_c, 0, 78, 0
4, 23760, Note_on_c, 0, 76, 88
4, 23796, Note_off_c, 0, 76, 0
4, 23798, Note_on_c, 0, 75, 88
4, 23877, Note_off_c, 0, 75, 0
4, 23880, Note_on_c, 0, 73, 88
4, 23916, Note_off_c, 0, 73, 0
4, 23918, Note_on_c, 0, 71, 88
4, 23997, Note_off_c, 0, 71, 0
4, 24000, Note_on_c, 0, 77, 88
4, 24058, Note_off_c, 0, 77, 0
4, 24060, Note_on_c, 0, 78, 88
4, 24118, Note_off_c, 0, 78, 0
4, 24120, Note_on_c, 0, 80, 88
4, 24354, Note_off_c, 0, 80, 0
4, 24360, Note_on_c, 0, 73, 88
4, 24476, Note_off_c, 0, 73, 0
4, 24480, Note_on_c, 0, 79, 88
4, 24509, Note_off_c, 0, 79, 0
4, 24510, Note_on_c, 0, 80, 88
4, 24539, Note_off_c, 0, 80, 0
4, 24540, Note_on_c, 0, 82, 88
4, 24598, Note_off_c, 0, 82, 0
4, 24600, Note_on_c, 0, 73, 88
4, 24834, Note_off_c, 0, 73, 0
4, 24840, Note_on_c, 0, 82, 88
4, 24956, Note_off_c, 0, 82, 0
4, 24960, Note_on_c, 0, 82, 88
4, 25076, Note_off_c, 0, 82, 0
4, 25080, Note_on_c, 0, 80, 88
4, 25178, Note_off_c, 0, 80, 0
4, 25200, Note_on_c, 0, 80, 88
4, 25316, Note_off_c, 0, 80, 0
4, 25320, Note_on_c, 0, 78, 88
4, 25436, Note_off_c, 0, 78, 0
4, 25440, Note_on_c, 0, 80, 88
4, 25465, Note_off_c, 0, 80, 0
4, 25466, Note_on_c, 0, 78, 88
4, 25499, Note_off_c, 0, 78, 0
4, 25500, Note_on_c, 0, 80, 88
4, 25533, Note_off_c, 0, 80, 0
4, 25534, Note_on_c, 0, 78, 88
4, 25563, Note_off_c, 0, 78, 0
4, 25564, Note_on_c, 0, 80, 88
4, 25593, Note_off_c, 0, 80, 0
4, 25594, Note_on_c, 0, 78, 88
4, 25623, Note_off_c, 0, 78, 0
4, 25624, Note_on_c, 0, 80, 88
4, 25653, Note_off_c, 0, 80, 0
4, 25654, Note_on_c, 0, 78, 88
4, 25683, Note_off_c, 0, 78, 0
4, 25684, Note_on_c, 0, 80, 88
4, 25713, Note_off_c, 0, 80, 0
4, 25714, Note_on_c, 0, 78, 88
4, 25743, Note_off_c, 0, 78, 0
4, 25744, Note_on_c, 0, 80, 88
4, 25773, Note_off_c, 0, 80, 0
4, 25774, Note_on_c, 0, 78, 88
4, 25799, Note_off_c, 0, 78, 0
4, 25800, Note_on_c, 0, 77, 88
4, 25858, Note_off_c, 0, 77, 0
4, 25860, Note_on_c, 0, 78, 88
4, 25918, Note_off_c, 0, 78, 0
4, 25920, Note_on_c, 0, 77, 88
4, 26390, Note_off_c, 0, 77, 0
4, 27120, Note_on_c, 0, 58, 88
4, 27178, Note_off_c, 0, 58, 0
4, 27180, Note_on_c, 0, 60, 88
4, 27238, Note_off_c, 0, 60, 0
4, 27240, Note_on_c, 0, 62, 88
4, 27298, Note_off_c, 0, 62, 0
4, 27300, Note_on_c, 0, 63, 88
4, 27358, Note_off_c, 0, 63, 0
4, 27360, Note_on_c, 0, 65, 88
4, 27418, Note_off_c, 0, 65, 0
4, 27420, Note_on_c, 0, 66, 88
4, 27478, Note_off_c, 0, 66, 0
4, 27480, Note_on_c, 0, 68, 88
4, 27538, Note_off_c, 0, 68, 0
4, 27540, Note_on_c, 0, 70, 88
4, 27598, Note_off_c, 0, 70, 0
4, 27600, Note_on_c, 0, 72, 88
4, 27658, Note_off_c, 0, 72, 0
4, 27660, Note_on_c, 0, 74, 88
4, 27718, Note_off_c, 0, 74, 0
4, 27720, Note_on_c, 0, 75, 88
4, 27778, Note_off_c, 0, 75, 0
4, 27780, Note_on_c, 0, 77, 88
4, 27838, Note_off_c, 0, 77, 0
4, 27840, Note_on_c, 0, 78, 88
4, 27898, Note_off_c, 0, 78, 0
4, 27900, Note_on_c, 0, 75, 88
4, 27958, Note_off_c, 0, 75, 0
4, 27960, Note_on_c, 0, 70, 88
4, 28018, Note_off_c, 0, 70, 0
4, 28020, Note_on_c, 0, 66, 88
4, 28078, Note_off_c, 0, 66, 0
4, 28080, Note_on_c, 0, 63, 88
4, 28138, Note_off_c, 0, 63, 0
4, 28140, Note_on_c, 0, 61, 88
4, 28198, Note_off_c, 0, 61, 0
4, 28200, Note_on_c, 0, 60, 88
4, 28258, Note_off_c, 0, 60, 0
4, 28260, Note_on_c, 0, 58, 88
4, 28318, Note_off_c, 0, 58, 0
4, 28320, Note_on_c, 0, 60, 88
4, 28378, Note_off_c, 0, 60, 0
4, 28380, Note_on_c, 0, 63, 88
4, 28438, Note_off_c, 0, 63, 0
4, 28440, Note_on_c, 0, 68, 88
4, 28498, Note_off_c, 0, 68, 0
4, 28500, Note_on_c, 0, 72, 88
4, 28558, Note_off_c, 0, 72, 0
4, 28560, Note_on_c, 0, 75, 88
4, 28618, Note_off_c, 0, 75, 0
4, 28620, Note_on_c, 0, 78, 88
4, 28678, Note_off_c, 0, 78, 0
4, 28680, Note_on_c, 0, 76, 88
4, 28738, Note_off_c, 0, 76, 0
4, 28740, Note_on_c, 0, 75, 88
4, 28798, Note_off_c, 0, 75, 0
4, 28800, Note_on_c, 0, 76, 88
4, 28858, Note_off_c, 0, 76, 0
4, 28860, Note_on_c, 0, 73, 88
4, 28918, Note_off_c, 0, 73, 0
4, 28920, Note_on_c, 0, 68, 88
4, 28978, Note_off_c, 0, 68, 0
4, 28980, Note_on_c, 0, 64, 88
4, 29038, Note_off_c, 0, 64, 0
4, 29040, Note_on_c, 0, 61, 88
4, 29098, Note_off_c, 0, 61, 0
4, 29100, Note_on_c, 0, 59, 88
4, 29158, Note_off_c, 0, 59, 0
4, 29160, Note_on_c, 0, 58, 88
4, 29218, Note_off_c, 0, 58, 0
4, 29220, Note_on_c, 0, 56, 88
4, 29278, Note_off_c, 0, 56, 0
4, 29280, Note_on_c, 0, 58, 88
4, 29338, Note_off_c, 0, 58, 0
4, 29340, Note_on_c, 0, 61, 88
4, 29398, Note_off_c, 0, 61, 0
4, 29400, Note_on_c, 0, 66, 88
4, 29458, Note_off_c, 0, 66, 0
4, 29460, Note_on_c, 0, 70, 88
4, 29518, Note_off_c, 0, 70, 0
4, 29520, Note_on_c, 0, 73, 88
4, 29578, Note_off_c, 0, 73, 0
4, 29580, Note_on_c, 0, 76, 88
4, 29638, Note_off_c, 0, 76, 0
4, 29640, Note_on_c, 0, 75, 88
4, 29698, Note_off_c, 0, 75, 0
4, 29700, Note_on_c, 0, 73, 88
4, 29758, Note_off_c, 0, 73, 0
4, 29760, Note_on_c, 0, 75, 88
4, 29818, Note_off_c, 0, 75, 0
4, 29820, Note_on_c, 0, 71, 88
4, 29878, Note_off_c, 0, 71, 0
4, 29880, Note_on_c, 0, 66, 88
4, 29938, Note_off_c, 0, 66, 0
4, 29940, Note_on_c, 0, 63, 88
4, 29998, Note_off_c, 0, 63, 0
4, 30000, Note_on_c, 0, 59, 88
4, 30058, Note_off_c, 0, 59, 0
4, 30060, Note_on_c, 0, 57, 88
4, 30118, Note_off_c, 0, 57, 0
4, 30120, Note_on_c, 0, 56, 88
4, 30178, Note_off_c, 0, 56, 0
4, 30180, Note_on_c, 0, 54, 88
4, 30238, Note_off_c, 0, 54, 0
4, 30240, Note_on_c, 0, 56, 88
4, 30298, Note_off_c, 0, 56, 0
4, 30300, Note_on_c, 0, 59, 88
4, 30358, Note_off_c, 0, 59, 0
4, 30360, Note_on_c, 0, 62, 88
4, 30418, Note_off_c, 0, 62, 0
4, 30420, Note_on_c, 0, 65, 88
4, 30478, Note_off_c, 0, 65, 0
4, 30480, Note_on_c, 0, 68, 88
4, 30538, Note_off_c, 0, 68, 0
4, 30540, Note_on_c, 0, 71, 88
4, 30598, Note_off_c, 0, 71, 0
4, 30600, Note_on_c, 0, 70, 88
4, 30658, Note_off_c, 0, 70, 0
4, 30660, Note_on_c, 0, 68, 88
4, 30718, Note_off_c, 0, 68, 0
4, 30720, Note_on_c, 0, 70, 88
4, 30778, Note_off_c, 0, 70, 0
4, 30780, Note_on_c, 0, 63, 88
4, 30838, Note_off_c, 0, 63, 0
4, 30840, Note_on_c, 0, 64, 88
4, 30898, Note_off_c, 0, 64, 0
4, 30900, Note_on_c, 0, 73, 88
4, 30958, Note_off_c, 0, 73, 0
4, 30960, Note_on_c, 0, 70, 88
4, 31018, Note_off_c, 0, 70, 0
4, 31020, Note_on_c, 0, 73, 88
4, 31078, Note_off_c, 0, 73, 0
4, 31080, Note_on_c, 0, 64, 88
4, 31138, Note_off_c, 0, 64, 0
4, 31140, Note_on_c, 0, 73, 88
4, 31198, Note_off_c, 0, 73, 0
4, 31200, Note_on_c, 0, 70, 88
4, 31258, Note_off_c, 0, 70, 0
4, 31260, Note_on_c, 0, 63, 88
4, 31318, Note_off_c, 0, 63, 0
4, 31320, Note_on_c, 0, 64, 88
4, 31378, Note_off_c, 0, 64, 0
4, 31380, Note_on_c, 0, 73, 88
4, 31438, Note_off_c, 0, 73, 0
4, 31440, Note_on_c, 0, 70, 88
4, 31498, Note_off_c, 0, 70, 0
4, 31500, Note_on_c, 0, 73, 88
4, 31558, Note_off_c, 0, 73, 0
4, 31560, Note_on_c, 0, 64, 88
4, 31618, Note_off_c, 0, 64, 0
4, 31620, Note_on_c, 0, 73, 88
4, 31678, Note_off_c, 0, 73, 0
4, 31680, Note_on_c, 0, 66, 88
4, 31738, Note_off_c, 0, 66, 0
4, 31740, Note_on_c, 0, 61, 88
4, 31798, Note_off_c, 0, 61, 0
4, 31800, Note_on_c, 0, 62, 88
4, 31858, Note_off_c, 0, 62, 0
4, 31860, Note_on_c, 0, 73, 88
4, 31918, Note_off_c, 0, 73, 0
4, 31920, Note_on_c, 0, 66, 88
4, 31978, Note_off_c, 0, 66, 0
4, 31980, Note_on_c, 0, 73, 88
4, 32038, Note_off_c, 0, 73, 0
4, 32040, Note_on_c, 0, 62, 88
4, 32098, Note_off_c, 0, 62, 0
4, 32100, Note_on_c, 0, 73, 88
4, 32158, Note_off_c, 0, 73, 0
4, 32160, Note_on_c, 0, 66, 88
4, 32218, Note_off_c, 0, 66, 0
4, 32220, Note_on_c, 0, 61, 88
4, 32278, Note_off_c, 0, 61, 0
4, 32280, Note_on_c, 0, 62, 88
4, 32338, Note_off_c, 0, 62, 0
4, 32340, Note_on_c, 0, 71, 88
4, 32398, Note_off_c, 0, 71, 0
4, 32400, Note_on_c, 0, 66, 88
4, 32458, Note_off_c, 0, 66, 0
4, 32460, Note_on_c, 0, 71, 88
4, 32518, Note_off_c, 0, 71, 0
4, 32520, Note_on_c, 0, 62, 88
4, 32578, Note_off_c, 0, 62, 0
4, 32580, Note_on_c, 0, 71, 88
4, 32638, Note_off_c, 0, 71, 0
4, 32640, Note_on_c, 0, 62, 88
4, 32698, Note_off_c, 0, 62, 0
4, 32700, Note_on_c, 0, 58, 88
4, 32758, Note_off_c, 0, 58, 0
4, 32760, Note_on_c, 0, 59, 88
4, 32818, Note_off_c, 0, 59, 0
4, 32820, Note_on_c, 0, 65, 88
4, 32878, Note_off_c, 0, 65, 0
4, 32880, Note_on_c, 0, 62, 88
4, 32938, Note_off_c, 0, 62, 0
4, 32940, Note_on_c, 0, 65, 88
4, 32998, Note_off_c, 0, 65, 0
4, 33000, Note_on_c, 0, 59, 88
4, 33058, Note_off_c, 0, 59, 0
4, 33060, Note_on_c, 0, 65, 88
4, 33118, Note_off_c, 0, 65, 0
4, 33120, Note_on_c, 0, 62, 88
4, 33178, Note_off_c, 0, 62, 0
4, 33180, Note_on_c, 0, 58, 88
4, 33238, Note_off_c, 0, 58, 0
4, 33240, Note_on_c, 0, 59, 88
4, 33298, Note_off_c, 0, 59, 0
4, 33300, Note_on_c, 0, 65, 88
4, 33358, Note_off_c, 0, 65, 0
4, 33360, Note_on_c, 0, 62, 88
4, 33418, Note_off_c, 0, 62, 0
4, 33420, Note_on_c, 0, 65, 88
4, 33478, Note_off_c, 0, 65, 0
4, 33480, Note_on_c, 0, 59, 88
4, 33538, Note_off_c, 0, 59, 0
4, 33540, Note_on_c, 0, 65, 88
4, 33598, Note_off_c, 0, 65, 0
4, 33600, Note_on_c, 0, 62, 88
4, 33658, Note_off_c, 0, 62, 0
4, 33660, Note_on_c, 0, 58, 88
4, 33718, Note_off_c, 0, 58, 0
4, 33720, Note_on_c, 0, 59, 88
4, 33778, Note_off_c, 0, 59, 0
4, 33780, Note_on_c, 0, 66, 88
4, 33838, Note_off_c, 0, 66, 0
4, 33840, Note_on_c, 0, 61, 88
4, 33898, Note_off_c, 0, 61, 0
4, 33900, Note_on_c, 0, 66, 88
4, 33958, Note_off_c, 0, 66, 0
4, 33960, Note_on_c, 0, 59, 88
4, 34018, Note_off_c, 0, 59, 0
4, 34020, Note_on_c, 0, 65, 88
4, 34078, Note_off_c, 0, 65, 0
4, 34080, Note_on_c, 0, 66, 88
4, 34196, Note_off_c, 0, 66, 0
4, 34620, Note_on_c, 0, 71, 88
4, 34678, Note_off_c, 0, 71, 0
4, 34680, Note_on_c, 0, 70, 88
4, 34738, Note_off_c, 0, 70, 0
4, 34740, Note_on_c, 0, 68, 88
4, 34798, Note_off_c, 0, 68, 0
4, 34800, Note_on_c, 0, 66, 88
4, 34858, Note_off_c, 0, 66, 0
4, 34860, Note_on_c, 0, 64, 88
4, 34918, Note_off_c, 0, 64, 0
4, 34920, Note_on_c, 0, 63, 88
4, 34978, Note_off_c, 0, 63, 0
4, 34980, Note_on_c, 0, 61, 88
4, 35038, Note_off_c, 0, 61, 0
4, 35040, Note_on_c, 0, 63, 88
4, 35098, Note_off_c, 0, 63, 0
4, 35100, Note_on_c, 0, 71, 88
4, 35158, Note_off_c, 0, 71, 0
4, 35160, Note_on_c, 0, 73, 88
4, 35218, Note_off_c, 0, 73, 0
4, 35220, Note_on_c, 0, 75, 88
4, 35278, Note_off_c, 0, 75, 0
4, 35280, Note_on_c, 0, 76, 88
4, 35338, Note_off_c, 0, 76, 0
4, 35340, Note_on_c, 0, 78, 88
4, 35398, Note_off_c, 0, 78, 0
4, 35400, Note_on_c, 0, 80, 88
4, 35458, Note_off_c, 0, 80, 0
4, 35460, Note_on_c, 0, 82, 88
4, 35518, Note_off_c, 0, 82, 0
4, 35520, Note_on_c, 0, 83, 88
4, 35578, Note_off_c, 0, 83, 0
4, 35580, Note_on_c, 0, 78, 88
4, 35638, Note_off_c, 0, 78, 0
4, 35640, Note_on_c, 0, 75, 88
4, 35698, Note_off_c, 0, 75, 0
4, 35700, Note_on_c, 0, 71, 88
4, 35758, Note_off_c, 0, 71, 0
4, 35760, Note_on_c, 0, 73, 88
4, 35818, Note_off_c, 0, 73, 0
4, 35820, Note_on_c, 0, 83, 88
4, 35878, Note_off_c, 0, 83, 0
4, 35880, Note_on_c, 0, 81, 88
4, 35938, Note_off_c, 0, 81, 0
4, 35940, Note_on_c, 0, 80, 88
4, 35998, Note_off_c, 0, 80, 0
4, 36000, Note_on_c, 0, 81, 88
4, 36116, Note_off_c, 0, 81, 0
4, 36120, Note_on_c, 0, 78, 88
4, 36236, Note_off_c, 0, 78, 0
4, 36240, Note_on_c, 0, 75, 88
4, 36356, Note_off_c, 0, 75, 0
4, 36360, Note_on_c, 0, 81, 88
4, 36476, Note_off_c, 0, 81, 0
4, 36480, Note_on_c, 0, 80, 88
4, 36538, Note_off_c, 0, 80, 0
4, 36540, Note_on_c, 0, 76, 88
4, 36598, Note_off_c, 0, 76, 0
4, 36600, Note_on_c, 0, 71, 88
4, 36658, Note_off_c, 0, 71, 0
4, 36660, Note_on_c, 0, 68, 88
4, 36718, Note_off_c, 0, 68, 0
4, 36720, Note_on_c, 0, 70, 88
4, 36778, Note_off_c, 0, 70, 0
4, 36780, Note_on_c, 0, 80, 88
4, 36838, Note_off_c, 0, 80, 0
4, 36840, Note_on_c, 0, 78, 88
4, 36898, Note_off_c, 0, 78, 0
4, 36900, Note_on_c, 0, 76, 88
4, 36958, Note_off_c, 0, 76, 0
4, 36960, Note_on_c, 0, 78, 88
4, 37076, Note_off_c, 0, 78, 0
4, 37080, Note_on_c, 0, 75, 88
4, 37196, Note_off_c, 0, 75, 0
4, 37200, Note_on_c, 0, 72, 88
4, 37316, Note_off_c, 0, 72, 0
4, 37320, Note_on_c, 0, 78, 88
4, 37436, Note_off_c, 0, 78, 0
4, 37440, Note_on_c, 0, 76, 88
4, 37498, Note_off_c, 0, 76, 0
4, 37500, Note_on_c, 0, 73, 88
4, 37558, Note_off_c, 0, 73, 0
4, 37560, Note_on_c, 0, 68, 88
4, 37618, Note_off_c, 0, 68, 0
4, 37620, Note_on_c, 0, 64, 88
4, 37678, Note_off_c, 0, 64, 0
4, 37680, Note_on_c, 0, 66, 88
4, 37738, Note_off_c, 0, 66, 0
4, 37740, Note_on_c, 0, 76, 88
4, 37798, Note_off_c, 0, 76, 0
4, 37800, Note_on_c, 0, 75, 88
4, 37858, Note_off_c, 0, 75, 0
4, 37860, Note_on_c, 0, 73, 88
4, 37918, Note_off_c, 0, 73, 0
4, 37920, Note_on_c, 0, 75, 88
4, 37978, Note_off_c, 0, 75, 0
4, 37980, Note_on_c, 0, 71, 88
4, 38038, Note_off_c, 0, 71, 0
4, 38040, Note_on_c, 0, 70, 88
4, 38098, Note_off_c, 0, 70, 0
4, 38100, Note_on_c, 0, 68, 88
4, 38158, Note_off_c, 0, 68, 0
4, 38160, Note_on_c, 0, 70, 88
4, 38218, Note_off_c, 0, 70, 0
4, 38220, Note_on_c, 0, 68, 88
4, 38278, Note_off_c, 0, 68, 0
4, 38280, Note_on_c, 0, 66, 88
4, 38338, Note_off_c, 0, 66, 0
4, 38340, Note_on_c, 0, 65, 88
4, 38398, Note_off_c, 0, 65, 0
4, 38400, Note_on_c, 0, 73, 88
4, 38458, Note_off_c, 0, 73, 0
4, 38460, Note_on_c, 0, 70, 88
4, 38518, Note_off_c, 0, 70, 0
4, 38520, Note_on_c, 0, 68, 88
4, 38578, Note_off_c, 0, 68, 0
4, 38580, Note_on_c, 0, 66, 88
4, 38638, Note_off_c, 0, 66, 0
4, 38640, Note_on_c, 0, 68, 88
4, 38698, Note_off_c, 0, 68, 0
4, 38700, Note_on_c, 0, 66, 88
4, 38758, Note_off_c, 0, 66, 0
4, 38760, Note_on_c, 0, 65, 88
4, 38818, Note_off_c, 0, 65, 0
4, 38820, Note_on_c, 0, 63, 88
4, 38878, Note_off_c, 0, 63, 0
4, 38880, Note_on_c, 0, 71, 88
4, 38938, Note_off_c, 0, 71, 0
4, 38940, Note_on_c, 0, 68, 88
4, 38998, Note_off_c, 0, 68, 0
4, 39000, Note_on_c, 0, 66, 88
4, 39058, Note_off_c, 0, 66, 0
4, 39060, Note_on_c, 0, 65, 88
4, 39118, Note_off_c, 0, 65, 0
4, 39120, Note_on_c, 0, 66, 88
4, 39178, Note_off_c, 0, 66, 0
4, 39180, Note_on_c, 0, 65, 88
4, 39238, Note_off_c, 0, 65, 0
4, 39240, Note_on_c, 0, 63, 88
4, 39298, Note_off_c, 0, 63, 0
4, 39300, Note_on_c, 0, 61, 88
4, 39358, Note_off_c, 0, 61, 0
4, 39360, Note_on_c, 0, 70, 88
4, 39418, Note_off_c, 0, 70, 0
4, 39420, Note_on_c, 0, 68, 88
4, 39478, Note_off_c, 0, 68, 0
4, 39480, Note_on_c, 0, 66, 88
4, 39538, Note_off_c, 0, 66, 0
4, 39540, Note_on_c, 0, 68, 88
4, 39598, Note_off_c, 0, 68, 0
4, 39600, Note_on_c, 0, 70, 88
4, 39716, Note_off_c, 0, 70, 0
4, 39720, Note_on_c, 0, 61, 88
4, 39836, Note_off_c, 0, 61, 0
4, 39840, Note_on_c, 0, 59, 88
4, 39898, Note_off_c, 0, 59, 0
4, 39900, Note_on_c, 0, 61, 88
4, 39958, Note_off_c, 0, 61, 0
4, 39960, Note_on_c, 0, 63, 88
4, 40018, Note_off_c, 0, 63, 0
4, 40020, Note_on_c, 0, 64, 88
4, 40078, Note_off_c, 0, 64, 0
4, 40080, Note_on_c, 0, 66, 88
4, 40138, Note_off_c, 0, 66, 0
4, 40140, Note_on_c, 0, 68, 88
4, 40198, Note_off_c, 0, 68, 0
4, 40200, Note_on_c, 0, 69, 88
4, 40258, Note_off_c, 0, 69, 0
4, 40260, Note_on_c, 0, 66, 88
4, 40318, Note_off_c, 0, 66, 0
4, 40320, Note_on_c, 0, 68, 88
4, 40378, Note_off_c, 0, 68, 0
4, 40380, Note_on_c, 0, 69, 88
4, 40438, Note_off_c, 0, 69, 0
4, 40440, Note_on_c, 0, 68, 88
4, 40498, Note_off_c, 0, 68, 0
4, 40500, Note_on_c, 0, 66, 88
4, 40558, Note_off_c, 0, 66, 0
4, 40560, Note_on_c, 0, 64, 88
4, 40618, Note_off_c, 0, 64, 0
4, 40620, Note_on_c, 0, 63, 88
4, 40678, Note_off_c, 0, 63, 0
4, 40680, Note_on_c, 0, 61, 88
4, 40738, Note_off_c, 0, 61, 0
4, 40740, Note_on_c, 0, 59, 88
4, 40798, Note_off_c, 0, 59, 0
4, 40800, Note_on_c, 0, 58, 88
4, 40858, Note_off_c, 0, 58, 0
4, 40860, Note_on_c, 0, 66, 88
4, 40918, Note_off_c, 0, 66, 0
4, 40920, Note_on_c, 0, 59, 88
4, 40978, Note_off_c, 0, 59, 0
4, 40980, Note_on_c, 0, 66, 88
4, 41038, Note_off_c, 0, 66, 0
4, 41040, Note_on_c, 0, 64, 88
4, 41098, Note_off_c, 0, 64, 0
4, 41100, Note_on_c, 0, 59, 88
4, 41158, Note_off_c, 0, 59, 0
4, 41160, Note_on_c, 0, 58, 88
4, 41218, Note_off_c, 0, 58, 0
4, 41220, Note_on_c, 0, 64, 88
4, 41278, Note_off_c, 0, 64, 0
4, 41280, Note_on_c, 0, 63, 88
4, 41338, Note_off_c, 0, 63, 0
4, 41340, Note_on_c, 0, 61, 88
4, 41398, Note_off_c, 0, 61, 0
4, 41400, Note_on_c, 0, 59, 88
4, 41458, Note_off_c, 0, 59, 0
4, 41460, Note_on_c, 0, 58, 88
4, 41518, Note_off_c, 0, 58, 0
4, 41520, Note_on_c, 0, 59, 88
4, 41578, Note_off_c, 0, 59, 0
4, 41580, Note_on_c, 0, 63, 88
4, 41638, Note_off_c, 0, 63, 0
4, 41640, Note_on_c, 0, 66, 88
4, 41698, Note_off_c, 0, 66, 0
4, 41700, Note_on_c, 0, 57, 88
4, 41758, Note_off_c, 0, 57, 0
4, 41760, Note_on_c, 0, 56, 88
4, 41818, Note_off_c, 0, 56, 0
4, 41820, Note_on_c, 0, 66, 88
4, 41878, Note_off_c, 0, 66, 0
4, 41880, Note_on_c, 0, 64, 88
4, 41938, Note_off_c, 0, 64, 0
4, 41940, Note_on_c, 0, 63, 88
4, 41998, Note_off_c, 0, 63, 0
4, 42000, Note_on_c, 0, 61, 88
4, 42058, Note_off_c, 0, 61, 0
4, 42060, Note_on_c, 0, 63, 88
4, 42118, Note_off_c, 0, 63, 0
4, 42120, Note_on_c, 0, 64, 88
4, 42178, Note_off_c, 0, 64, 0
4, 42180, Note_on_c, 0, 59, 88
4, 42238, Note_off_c, 0, 59, 0
4, 42240, Note_on_c, 0, 58, 88
4, 42298, Note_off_c, 0, 58, 0
4, 42300, Note_on_c, 0, 59, 88
4, 42358, Note_off_c, 0, 59, 0
4, 42360, Note_on_c, 0, 61, 88
4, 42418, Note_off_c, 0, 61, 0
4, 42420, Note_on_c, 0, 56, 88
4, 42478, Note_off_c, 0, 56, 0
4, 42480, Note_on_c, 0, 54, 88
4, 42538, Note_off_c, 0, 54, 0
4, 42540, Note_on_c, 0, 52, 88
4, 42598, Note_off_c, 0, 52, 0
4, 42600, Note_on_c, 0, 51, 88
4, 42658, Note_off_c, 0, 51, 0
4, 42660, Note_on_c, 0, 49, 88
4, 42718, Note_off_c, 0, 49, 0
4, 42720, Note_on_c, 0, 51, 88
4, 42778, Note_off_c, 0, 51, 0
4, 42780, Note_on_c, 0, 54, 88
4, 42838, Note_off_c, 0, 54, 0
4, 42840, Note_on_c, 0, 59, 88
4, 42898, Note_off_c, 0, 59, 0
4, 42900, Note_on_c, 0, 51, 88
4, 42958, Note_off_c, 0, 51, 0
4, 42960, Note_on_c, 0, 49, 88
4, 43018, Note_off_c, 0, 49, 0
4, 43020, Note_on_c, 0, 59, 88
4, 43078, Note_off_c, 0, 59, 0
4, 43080, Note_on_c, 0, 52, 88
4, 43138, Note_off_c, 0, 52, 0
4, 43140, Note_on_c, 0, 58, 88
4, 43198, Note_off_c, 0, 58, 0
4, 43200, Note_on_c, 0, 59, 88
4, 43316, Note_off_c, 0, 59, 0
4, 43316, End_track
5, 0, Start_track
5, 0, Title_t, "Track 2"
5, 0, Program_c, 1, 6
5, 10440, Note_on_c, 1, 61, 88
5, 10794, Note_off_c, 1, 61, 0
5, 11160, Note_on_c, 1, 70, 88
5, 11276, Note_off_c, 1, 70, 0
5, 11280, Note_on_c, 1, 72, 88
5, 11514, Note_off_c, 1, 72, 0
5, 11520, Note_on_c, 1, 73, 88
5, 11636, Note_off_c, 1, 73, 0
5, 11640, Note_on_c, 1, 68, 88
5, 11756, Note_off_c, 1, 68, 0
5, 11760, Note_on_c, 1, 69, 88
5, 11876, Note_off_c, 1, 69, 0
5, 11880, Note_on_c, 1, 70, 88
5, 11996, Note_off_c, 1, 70, 0
5, 12000, Note_on_c, 1, 71, 88
5, 12596, Note_off_c, 1, 71, 0
5, 12600, Note_on_c, 1, 70, 88
5, 12716, Note_off_c, 1, 70, 0
5, 12720, Note_on_c, 1, 71, 88
5, 12836, Note_off_c, 1, 71, 0
5, 12840, Note_on_c, 1, 72, 88
5, 12956, Note_off_c, 1, 72, 0
5, 12960, Note_on_c, 1, 73, 88
5, 13478, Note_off_c, 1, 73, 0
5, 13500, Note_on_c, 1, 73, 88
5, 13558, Note_off_c, 1, 73, 0
5, 13560, Note_on_c, 1, 71, 88
5, 13618, Note_off_c, 1, 71, 0
5, 13620, Note_on_c, 1, 70, 88
5, 13678, Note_off_c, 1, 70, 0
5, 13680, Note_on_c, 1, 71, 88
5, 13738, Note_off_c, 1, 71, 0
5, 22200, Note_on_c, 1, 80, 88
5, 22316, Note_off_c, 1, 80, 0
5, 22320, Note_on_c, 1, 75, 88
5, 22436, Note_off_c, 1, 75, 0
5, 22440, Note_on_c, 1, 78, 88
5, 22556, Note_off_c, 1, 78, 0
5, 22560, Note_on_c, 1, 77, 88
5, 22676, Note_off_c, 1, 77, 0
5, 23160, Note_on_c, 1, 78, 88
5, 23276, Note_off_c, 1, 78, 0
5, 23280, Note_on_c, 1, 73, 88
5, 23396, Note_off_c, 1, 73, 0
5, 23400, Note_on_c, 1, 76, 88
5, 23516, Note_off_c, 1, 76, 0
5, 23520, Note_on_c, 1, 75, 88
5, 23636, Note_off_c, 1, 75, 0
5, 24120, Note_on_c, 1, 71, 88
5, 24178, Note_off_c, 1, 71, 0
5, 24180, Note_on_c, 1, 70, 88
5, 24238, Note_off_c, 1, 70, 0
5, 24240, Note_on_c, 1, 71, 88
5, 24474, Note_off_c, 1, 71, 0
5, 24600, Note_on_c, 1, 70, 88
5, 24658, Note_off_c, 1, 70, 0
5, 24660, Note_on_c, 1, 68, 88
5, 24718, Note_off_c, 1, 68, 0
5, 24720, Note_on_c, 1, 70, 88
5, 24836, Note_off_c, 1, 70, 0
5, 24840, Note_on_c, 1, 73, 88
5, 24956, Note_off_c, 1, 73, 0
5, 24960, Note_on_c, 1, 73, 88
5, 25076, Note_off_c, 1, 73, 0
5, 25080, Note_on_c, 1, 71, 88
5, 25196, Note_off_c, 1, 71, 0
5, 25200, Note_on_c, 1, 75, 88
5, 25298, Note_off_c, 1, 75, 0
5, 25320, Note_on_c, 1, 75, 88
5, 25418, Note_off_c, 1, 75, 0
5, 25440, Note_on_c, 1, 75, 88
5, 25958, Note_off_c, 1, 75, 0
5, 25980, Note_on_c, 1, 75, 88
5, 26038, Note_off_c, 1, 75, 0
5, 26040, Note_on_c, 1, 74, 88
5, 26098, Note_off_c, 1, 74, 0
5, 26100, Note_on_c, 1, 72, 88
5, 26158, Note_off_c, 1, 72, 0
5, 26160, Note_on_c, 1, 74, 88
5, 26218, Note_off_c, 1, 74, 0
5, 26220, Note_on_c, 1, 70, 88
5, 26278, Note_off_c, 1, 70, 0
5, 26280, Note_on_c, 1, 71, 88
5, 26338, Note_off_c, 1, 71, 0
5, 26340, Note_on_c, 1, 68, 88
5, 26398, Note_off_c, 1, 68, 0
5, 26400, Note_on_c, 1, 65, 88
5, 26458, Note_off_c, 1, 65, 0
5, 26460, Note_on_c, 1, 66, 88
5, 26518, Note_off_c, 1, 66, 0
5, 26520, Note_on_c, 1, 68, 88
5, 26578, Note_off_c, 1, 68, 0
5, 26580, Note_on_c, 1, 70, 88
5, 26638, Note_off_c, 1, 70, 0
5, 26640, Note_on_c, 1, 68, 88
5, 26698, Note_off_c, 1, 68, 0
5, 26700, Note_on_c, 1, 66, 88
5, 26758, Note_off_c, 1, 66, 0
5, 26760, Note_on_c, 1, 65, 88
5, 26818, Note_off_c, 1, 65, 0
5, 26820, Note_on_c, 1, 63, 88
5, 26878, Note_off_c, 1, 63, 0
5, 26880, Note_on_c, 1, 62, 88
5, 26938, Note_off_c, 1, 62, 0
5, 26940, Note_on_c, 1, 65, 88
5, 26998, Note_off_c, 1, 65, 0
5, 27000, Note_on_c, 1, 66, 88
5, 27058, Note_off_c, 1, 66, 0
5, 27060, Note_on_c, 1, 68, 88
5, 27118, Note_off_c, 1, 68, 0
5, 33600, Note_on_c, 1, 62, 88
5, 33834, Note_off_c, 1, 62, 0
5, 33840, Note_on_c, 1, 58, 88
5, 33956, Note_off_c, 1, 58, 0
5, 33960, Note_on_c, 1, 56, 88
5, 34076, Note_off_c, 1, 56, 0
5, 34080, Note_on_c, 1, 58, 88
5, 34080, Note_on_c, 1, 61, 88
5, 34196, Note_off_c, 1, 58, 0
5, 34196, Note_off_c, 1, 61, 0
5, 43200, Note_on_c, 1, 54, 88
5, 43316, Note_off_c, 1, 54, 0
5, 43316, End_track
6, 0, Start_track
6, 0, Title_t, "Track 3"
6, 0, Program_c, 2, 6
6, 19500, Note_on_c, 2, 57, 88
6, 19558, Note_off_c, 2, 57, 0
6, 19560, Note_on_c, 2, 56, 88
6, 19618, Note_off_c, 2, 56, 0
6, 19620, Note_on_c, 2, 54, 88
6, 19678, Note_off_c, 2, 54, 0
6, 19680, Note_on_c, 2, 52, 88
6, 19738, Note_off_c, 2, 52, 0
6, 19740, Note_on_c, 2, 54, 88
6, 19798, Note_off_c, 2, 54, 0
6, 19800, Note_on_c, 2, 56, 88
6, 19858, Note_off_c, 2, 56, 0
6, 19860, Note_on_c, 2, 57, 88
6, 19918, Note_off_c, 2, 57, 0
6, 19920, Note_on_c, 2, 56, 88
6, 19978, Note_off_c, 2, 56, 0
6, 19980, Note_on_c, 2, 54, 88
6, 20038, Note_off_c, 2, 54, 0
6, 20040, Note_on_c, 2, 52, 88
6, 20098, Note_off_c, 2, 52, 0
6, 20100, Note_on_c, 2, 51, 88
6, 20158, Note_off_c, 2, 51, 0
6, 20160, Note_on_c, 2, 49, 88
6, 20276, Note_off_c, 2, 49, 0
6, 26880, Note_on_c, 2, 53, 88
6, 26996, Note_off_c, 2, 53, 0
6, 28800, Note_on_c, 2, 56, 88
6, 28916, Note_off_c, 2, 56, 0
6, 29760, Note_on_c, 2, 54, 88
6, 29876, Note_off_c, 2, 54, 0
6, 32640, Note_on_c, 2, 56, 88
6, 32738, Note_off_c, 2, 56, 0
6, 32760, Note_on_c, 2, 56, 88
6, 32858, Note_off_c, 2, 56, 0
6, 32880, Note_on_c, 2, 56, 88
6, 32978, Note_off_c, 2, 56, 0
6, 33000, Note_on_c, 2, 56, 88
6, 33098, Note_off_c, 2, 56, 0
6, 33120, Note_on_c, 2, 56, 88
6, 33218, Note_off_c, 2, 56, 0
6, 33240, Note_on_c, 2, 56, 88
6, 33338, Note_off_c, 2, 56, 0
6, 33360, Note_on_c, 2, 56, 88
6, 33458, Note_off_c, 2, 56, 0
6, 33480, Note_on_c, 2, 56, 88
6, 33596, Note_off_c, 2, 56, 0
6, 33600, Note_on_c, 2, 54, 88
6, 34190, Note_off_c, 2, 54, 0
6, 43200, Note_on_c, 2, 51, 88
6, 43316, Note_off_c, 2, 51, 0
6, 43316, End_track
7, 0, Start_track
7, 0, Title_t, "Track 4"
7, 0, Program_c, 3, 6
7, 0, Note_on_c, 3, 47, 88
7, 116, Note_off_c, 3, 47, 0
7, 540, Note_on_c, 3, 59, 88
7, 598, Note_off_c, 3, 59, 0
7, 600, Note_on_c, 3, 58, 88
7, 658, Note_off_c, 3, 58, 0
7, 660, Note_on_c, 3, 56, 88
7, 718, Note_off_c, 3, 56, 0
7, 720, Note_on_c, 3, 54, 88
7, 778, Note_off_c, 3, 54, 0
7, 780, Note_on_c, 3, 52, 88
7, 838, Note_off_c, 3, 52, 0
7, 840, Note_on_c, 3, 51, 88
7, 898, Note_off_c, 3, 51, 0
7, 900, Note_on_c, 3, 49, 88
7, 958, Note_off_c, 3, 49, 0
7, 960, Note_on_c, 3, 47, 88
7, 1076, Note_off_c, 3, 47, 0
7, 1200, Note_on_c, 3, 51, 88
7, 1229, Note_off_c, 3, 51, 0
7, 1230, Note_on_c, 3, 49, 88
7, 1259, Note_off_c, 3, 49, 0
7, 1260, Note_on_c, 3, 51, 88
7, 1289, Note_off_c, 3, 51, 0
7, 1290, Note_on_c, 3, 49, 88
7, 1319, Note_off_c, 3, 49, 0
7, 1320, Note_on_c, 3, 51, 88
7, 1349, Note_off_c, 3, 51, 0
7, 1350, Note_on_c, 3, 49, 88
7, 1379, Note_off_c, 3, 49, 0
7, 1380, Note_on_c, 3, 47, 88
7, 1409, Note_off_c, 3, 47, 0
7, 1410, Note_on_c, 3, 49, 88
7, 1439, Note_off_c, 3, 49, 0
7, 1440, Note_on_c, 3, 51, 88
7, 1556, Note_off_c, 3, 51, 0
7, 1620, Note_on_c, 3, 52, 88
7, 1678, Note_off_c, 3, 52, 0
7, 1680, Note_on_c, 3, 54, 88
7, 1709, Note_off_c, 3, 54, 0
7, 1710, Note_on_c, 3, 52, 88
7, 1739, Note_off_c, 3, 52, 0
7, 1740, Note_on_c, 3, 54, 88
7, 1769, Note_off_c, 3, 54, 0
7, 1770, Note_on_c, 3, 52, 88
7, 1799, Note_off_c, 3, 52, 0
7, 1800, Note_on_c, 3, 54, 88
7, 1829, Note_off_c, 3, 54, 0
7, 1830, Note_on_c, 3, 52, 88
7, 1859, Note_off_c, 3, 52, 0
7, 1860, Note_on_c, 3, 51, 88
7, 1889, Note_off_c, 3, 51, 0
7, 1890, Note_on_c, 3, 52, 88
7, 1919, Note_off_c, 3, 52, 0
7, 1920, Note_on_c, 3, 54, 88
7, 2036, Note_off_c, 3, 54, 0
7, 2040, Note_on_c, 3, 58, 88
7, 2156, Note_off_c, 3, 58, 0
7, 2160, Note_on_c, 3, 61, 88
7, 2276, Note_off_c, 3, 61, 0
7, 2280, Note_on_c, 3, 58, 88
7, 2396, Note_off_c, 3, 58, 0
7, 2400, Note_on_c, 3, 54, 88
7, 2516, Note_off_c, 3, 54, 0
7, 2520, Note_on_c, 3, 58, 88
7, 2636, Note_off_c, 3, 58, 0
7, 2640, Note_on_c, 3, 61, 88
7, 2756, Note_off_c, 3, 61, 0
7, 2760, Note_on_c, 3, 52, 88
7, 2876, Note_off_c, 3, 52, 0
7, 2880, Note_on_c, 3, 51, 88
7, 2996, Note_off_c, 3, 51, 0
7, 3000, Note_on_c, 3, 59, 88
7, 3116, Note_off_c, 3, 59, 0
7, 3120, Note_on_c, 3, 63, 88
7, 3236, Note_off_c, 3, 63, 0
7, 3240, Note_on_c, 3, 59, 88
7, 3356, Note_off_c, 3, 59, 0
7, 3360, Note_on_c, 3, 54, 88
7, 3476, Note_off_c, 3, 54, 0
7, 3480, Note_on_c, 3, 59, 88
7, 3596, Note_off_c, 3, 59, 0
7, 3600, Note_on_c, 3, 63, 88
7, 3716, Note_off_c, 3, 63, 0
7, 3720, Note_on_c, 3, 59, 88
7, 3836, Note_off_c, 3, 59, 0
7, 3840, Note_on_c, 3, 46, 88
7, 3956, Note_off_c, 3, 46, 0
7, 3960, Note_on_c, 3, 61, 88
7, 4076, Note_off_c, 3, 61, 0
7, 4080, Note_on_c, 3, 64, 88
7, 4196, Note_off_c, 3, 64, 0
7, 4200, Note_on_c, 3, 61, 88
7, 4316, Note_off_c, 3, 61, 0
7, 4320, Note_on_c, 3, 58, 88
7, 4436, Note_off_c, 3, 58, 0
7, 4440, Note_on_c, 3, 61, 88
7, 4556, Note_off_c, 3, 61, 0
7, 4560, Note_on_c, 3, 58, 88
7, 4676, Note_off_c, 3, 58, 0
7, 4680, Note_on_c, 3, 54, 88
7, 4796, Note_off_c, 3, 54, 0
7, 4800, Note_on_c, 3, 47, 88
7, 4916, Note_off_c, 3, 47, 0
7, 4920, Note_on_c, 3, 63, 88
7, 5036, Note_off_c, 3, 63, 0
7, 5040, Note_on_c, 3, 66, 88
7, 5156, Note_off_c, 3, 66, 0
7, 5160, Note_on_c, 3, 63, 88
7, 5276, Note_off_c, 3, 63, 0
7, 5280, Note_on_c, 3, 59, 88
7, 5396, Note_off_c, 3, 59, 0
7, 5400, Note_on_c, 3, 63, 88
7, 5516, Note_off_c, 3, 63, 0
7, 5520, Note_on_c, 3, 59, 88
7, 5636, Note_off_c, 3, 59, 0
7, 5640, Note_on_c, 3, 54, 88
7, 5756, Note_off_c, 3, 54, 0
7, 5760, Note_on_c, 3, 51, 88
7, 5876, Note_off_c, 3, 51, 0
7, 5880, Note_on_c, 3, 59, 88
7, 5996, Note_off_c, 3, 59, 0
7, 6000, Note_on_c, 3, 54, 88
7, 6116, Note_off_c, 3, 54, 0
7, 6120, Note_on_c, 3, 51, 88
7, 6236, Note_off_c, 3, 51, 0
7, 6240, Note_on_c, 3, 47, 88
7, 6356, Note_off_c, 3, 47, 0
7, 6360, Note_on_c, 3, 54, 88
7, 6476, Note_off_c, 3, 54, 0
7, 6480, Note_on_c, 3, 59, 88
7, 6596, Note_off_c, 3, 59, 0
7, 6600, Note_on_c, 3, 51, 88
7, 6716, Note_off_c, 3, 51, 0
7, 6720, Note_on_c, 3, 52, 88
7, 6836, Note_off_c, 3, 52, 0
7, 6840, Note_on_c, 3, 56, 88
7, 6956, Note_off_c, 3, 56, 0
7, 6960, Note_on_c, 3, 46, 88
7, 7076, Note_off_c, 3, 46, 0
7, 7080, Note_on_c, 3, 56, 88
7, 7196, Note_off_c, 3, 56, 0
7, 7200, Note_on_c, 3, 51, 88
7, 7316, Note_off_c, 3, 51, 0
7, 7320, Note_on_c, 3, 54, 88
7, 7436, Note_off_c, 3, 54, 0
7, 7440, Note_on_c, 3, 44, 88
7, 7556, Note_off_c, 3, 44, 0
7, 7560, Note_on_c, 3, 54, 88
7, 7676, Note_off_c, 3, 54, 0
7, 7680, Note_on_c, 3, 49, 88
7, 7738, Note_off_c, 3, 49, 0
7, 7740, Note_on_c, 3, 51, 88
7, 7798, Note_off_c, 3, 51, 0
7, 7800, Note_on_c, 3, 52, 88
7, 7858, Note_off_c, 3, 52, 0
7, 7860, Note_on_c, 3, 54, 88
7, 7918, Note_off_c, 3, 54, 0
7, 7920, Note_on_c, 3, 56, 88
7, 7978, Note_off_c, 3, 56, 0
7, 7980, Note_on_c, 3, 58, 88
7, 8038, Note_off_c, 3, 58, 0
7, 8040, Note_on_c, 3, 59, 88
7, 8098, Note_off_c, 3, 59, 0
7, 8100, Note_on_c, 3, 56, 88
7, 8158, Note_off_c, 3, 56, 0
7, 8160, Note_on_c, 3, 58, 88
7, 8276, Note_off_c, 3, 58, 0
7, 8280, Note_on_c, 3, 61, 88
7, 8396, Note_off_c, 3, 61, 0
7, 8400, Note_on_c, 3, 58, 88
7, 8516, Note_off_c, 3, 58, 0
7, 8520, Note_on_c, 3, 54, 88
7, 8636, Note_off_c, 3, 54, 0
7, 8640, Note_on_c, 3, 59, 88
7, 8756, Note_off_c, 3, 59, 0
7, 8760, Note_on_c, 3, 47, 88
7, 8876, Note_off_c, 3, 47, 0
7, 8880, Note_on_c, 3, 61, 88
7, 8905, Note_off_c, 3, 61, 0
7, 8906, Note_on_c, 3, 59, 88
7, 8935, Note_off_c, 3, 59, 0
7, 8936, Note_on_c, 3, 61, 88
7, 8962, Note_off_c, 3, 61, 0
7, 8963, Note_on_c, 3, 59, 88
7, 8988, Note_off_c, 3, 59, 0
7, 8989, Note_on_c, 3, 61, 88
7, 9014, Note_off_c, 3, 61, 0
7, 9015, Note_on_c, 3, 59, 88
7, 9040, Note_off_c, 3, 59, 0
7, 9041, Note_on_c, 3, 61, 88
7, 9067, Note_off_c, 3, 61, 0
7, 9068, Note_on_c, 3, 59, 88
7, 9093, Note_off_c, 3, 59, 0
7, 9094, Note_on_c, 3, 61, 88
7, 9119, Note_off_c, 3, 61, 0
7, 9120, Note_on_c, 3, 59, 88
7, 9178, Note_off_c, 3, 59, 0
7, 9180, Note_on_c, 3, 58, 88
7, 9238, Note_off_c, 3, 58, 0
7, 9240, Note_on_c, 3, 56, 88
7, 9298, Note_off_c, 3, 56, 0
7, 9300, Note_on_c, 3, 54, 88
7, 9358, Note_off_c, 3, 54, 0
7, 9360, Note_on_c, 3, 53, 88
7, 9418, Note_off_c, 3, 53, 0
7, 9420, Note_on_c, 3, 49, 88
7, 9478, Note_off_c, 3, 49, 0
7, 9480, Note_on_c, 3, 53, 88
7, 9538, Note_off_c, 3, 53, 0
7, 9540, Note_on_c, 3, 56, 88
7, 9598, Note_off_c, 3, 56, 0
7, 9600, Note_on_c, 3, 58, 88
7, 9716, Note_off_c, 3, 58, 0
7, 9720, Note_on_c, 3, 61, 88
7, 9836, Note_off_c, 3, 61, 0
7, 9840, Note_on_c, 3, 51, 88
7, 9956, Note_off_c, 3, 51, 0
7, 9960, Note_on_c, 3, 54, 88
7, 10076, Note_off_c, 3, 54, 0
7, 10080, Note_on_c, 3, 56, 88
7, 10196, Note_off_c, 3, 56, 0
7, 10200, Note_on_c, 3, 59, 88
7, 10316, Note_off_c, 3, 59, 0
7, 10320, Note_on_c, 3, 49, 88
7, 10436, Note_off_c, 3, 49, 0
7, 10440, Note_on_c, 3, 53, 88
7, 10556, Note_off_c, 3, 53, 0
7, 10560, Note_on_c, 3, 54, 88
7, 10618, Note_off_c, 3, 54, 0
7, 10620, Note_on_c, 3, 42, 88
7, 10678, Note_off_c, 3, 42, 0
7, 10680, Note_on_c, 3, 44, 88
7, 10738, Note_off_c, 3, 44, 0
7, 10740, Note_on_c, 3, 46, 88
7, 10798, Note_off_c, 3, 46, 0
7, 10800, Note_on_c, 3, 47, 88
7, 10858, Note_off_c, 3, 47, 0
7, 10860, Note_on_c, 3, 49, 88
7, 10918, Note_off_c, 3, 49, 0
7, 10920, Note_on_c, 3, 51, 88
7, 10978, Note_off_c, 3, 51, 0
7, 10980, Note_on_c, 3, 53, 88
7, 11038, Note_off_c, 3, 53, 0
7, 11040, Note_on_c, 3, 54, 88
7, 11098, Note_off_c, 3, 54, 0
7, 11100, Note_on_c, 3, 56, 88
7, 11158, Note_off_c, 3, 56, 0
7, 11160, Note_on_c, 3, 54, 88
7, 11218, Note_off_c, 3, 54, 0
7, 11220, Note_on_c, 3, 52, 88
7, 11278, Note_off_c, 3, 52, 0
7, 11280, Note_on_c, 3, 51, 88
7, 11338, Note_off_c, 3, 51, 0
7, 11340, Note_on_c, 3, 56, 88
7, 11398, Note_off_c, 3, 56, 0
7, 11400, Note_on_c, 3, 54, 88
7, 11458, Note_off_c, 3, 54, 0
7, 11460, Note_on_c, 3, 56, 88
7, 11518, Note_off_c, 3, 56, 0
7, 11520, Note_on_c, 3, 49, 88
7, 11578, Note_off_c, 3, 49, 0
7, 11580, Note_on_c, 3, 51, 88
7, 11638, Note_off_c, 3, 51, 0
7, 11640, Note_on_c, 3, 52, 88
7, 11698, Note_off_c, 3, 52, 0
7, 11700, Note_on_c, 3, 49, 88
7, 11758, Note_off_c, 3, 49, 0
7, 11760, Note_on_c, 3, 54, 88
7, 11818, Note_off_c, 3, 54, 0
7, 11820, Note_on_c, 3, 52, 88
7, 11878, Note_off_c, 3, 52, 0
7, 11880, Note_on_c, 3, 51, 88
7, 11938, Note_off_c, 3, 51, 0
7, 11940, Note_on_c, 3, 49, 88
7, 11998, Note_off_c, 3, 49, 0
7, 12000, Note_on_c, 3, 47, 88
7, 12058, Note_off_c, 3, 47, 0
7, 12060, Note_on_c, 3, 49, 88
7, 12118, Note_off_c, 3, 49, 0
7, 12120, Note_on_c, 3, 47, 88
7, 12178, Note_off_c, 3, 47, 0
7, 12180, Note_on_c, 3, 46, 88
7, 12238, Note_off_c, 3, 46, 0
7, 12240, Note_on_c, 3, 44, 88
7, 12298, Note_off_c, 3, 44, 0
7, 12300, Note_on_c, 3, 49, 88
7, 12358, Note_off_c, 3, 49, 0
7, 12360, Note_on_c, 3, 47, 88
7, 12418, Note_off_c, 3, 47, 0
7, 12420, Note_on_c, 3, 49, 88
7, 12478, Note_off_c, 3, 49, 0
7, 12480, Note_on_c, 3, 42, 88
7, 12538, Note_off_c, 3, 42, 0
7, 12540, Note_on_c, 3, 49, 88
7, 12598, Note_off_c, 3, 49, 0
7, 12600, Note_on_c, 3, 54, 88
7, 12658, Note_off_c, 3, 54, 0
7, 12660, Note_on_c, 3, 52, 88
7, 12718, Note_off_c, 3, 52, 0
7, 12720, Note_on_c, 3, 51, 88
7, 12778, Note_off_c, 3, 51, 0
7, 12780, Note_on_c, 3, 56, 88
7, 12838, Note_off_c, 3, 56, 0
7, 12840, Note_on_c, 3, 54, 88
7, 12898, Note_off_c, 3, 54, 0
7, 12900, Note_on_c, 3, 56, 88
7, 12958, Note_off_c, 3, 56, 0
7, 12960, Note_on_c, 3, 49, 88
7, 13018, Note_off_c, 3, 49, 0
7, 13020, Note_on_c, 3, 51, 88
7, 13078, Note_off_c, 3, 51, 0
7, 13080, Note_on_c, 3, 49, 88
7, 13138, Note_off_c, 3, 49, 0
7, 13140, Note_on_c, 3, 47, 88
7, 13198, Note_off_c, 3, 47, 0
7, 13200, Note_on_c, 3, 46, 88
7, 13258, Note_off_c, 3, 46, 0
7, 13260, Note_on_c, 3, 51, 88
7, 13318, Note_off_c, 3, 51, 0
7, 13320, Note_on_c, 3, 49, 88
7, 13378, Note_off_c, 3, 49, 0
7, 13380, Note_on_c, 3, 51, 88
7, 13438, Note_off_c, 3, 51, 0
7, 13440, Note_on_c, 3, 44, 88
7, 13556, Note_off_c, 3, 44, 0
7, 13560, Note_on_c, 3, 51, 88
7, 13676, Note_off_c, 3, 51, 0
7, 13680, Note_on_c, 3, 56, 88
7, 13796, Note_off_c, 3, 56, 0
7, 13800, Note_on_c, 3, 47, 88
7, 13916, Note_off_c, 3, 47, 0
7, 13920, Note_on_c, 3, 49, 88
7, 14036, Note_off_c, 3, 49, 0
7, 14040, Note_on_c, 3, 51, 88
7, 14156, Note_off_c, 3, 51, 0
7, 14160, Note_on_c, 3, 52, 88
7, 14276, Note_off_c, 3, 52, 0
7, 14280, Note_on_c, 3, 46, 88
7, 14396, Note_off_c, 3, 46, 0
7, 14400, Note_on_c, 3, 51, 88
7, 14516, Note_off_c, 3, 51, 0
7, 14520, Note_on_c, 3, 49, 88
7, 14636, Note_off_c, 3, 49, 0
7, 14640, Note_on_c, 3, 47, 88
7, 14756, Note_off_c, 3, 47, 0
7, 14760, Note_on_c, 3, 43, 88
7, 14876, Note_off_c, 3, 43, 0
7, 14880, Note_on_c, 3, 44, 88
7, 14996, Note_off_c, 3, 44, 0
7, 15000, Note_on_c, 3, 40, 88
7, 15116, Note_off_c, 3, 40, 0
7, 15120, Note_on_c, 3, 37, 88
7, 15236, Note_off_c, 3, 37, 0
7, 15240, Note_on_c, 3, 39, 88
7, 15356, Note_off_c, 3, 39, 0
7, 15360, Note_on_c, 3, 44, 88
7, 15594, Note_off_c, 3, 44, 0
7, 15660, Note_on_c, 3, 51, 88
7, 15718, Note_off_c, 3, 51, 0
7, 15720, Note_on_c, 3, 53, 88
7, 15778, Note_off_c, 3, 53, 0
7, 15780, Note_on_c, 3, 55, 88
7, 15838, Note_off_c, 3, 55, 0
7, 15840, Note_on_c, 3, 56, 88
7, 15898, Note_off_c, 3, 56, 0
7, 16320, Note_on_c, 3, 37, 88
7, 16436, Note_off_c, 3, 37, 0
7, 17280, Note_on_c, 3, 42, 88
7, 17396, Note_off_c, 3, 42, 0
7, 17580, Note_on_c, 3, 59, 88
7, 17638, Note_off_c, 3, 59, 0
7, 17640, Note_on_c, 3, 58, 88
7, 17698, Note_off_c, 3, 58, 0
7, 17700, Note_on_c, 3, 56, 88
7, 17758, Note_off_c, 3, 56, 0
7, 17760, Note_on_c, 3, 54, 88
7, 17818, Note_off_c, 3, 54, 0
7, 18240, Note_on_c, 3, 35, 88
7, 18356, Note_off_c, 3, 35, 0
7, 19200, Note_on_c, 3, 40, 88
7, 19316, Note_off_c, 3, 40, 0
7, 20160, Note_on_c, 3, 42, 88
7, 20276, Note_off_c, 3, 42, 0
7, 21120, Note_on_c, 3, 47, 88
7, 21236, Note_off_c, 3, 47, 0
7, 21420, Note_on_c, 3, 64, 88
7, 21478, Note_off_c, 3, 64, 0
7, 21480, Note_on_c, 3, 63, 88
7, 21538, Note_off_c, 3, 63, 0
7, 21540, Note_on_c, 3, 61, 88
7, 21598, Note_off_c, 3, 61, 0
7, 21600, Note_on_c, 3, 59, 88
7, 21658, Note_off_c, 3, 59, 0
7, 21660, Note_on_c, 3, 63, 88
7, 21718, Note_off_c, 3, 63, 0
7, 21720, Note_on_c, 3, 54, 88
7, 21778, Note_off_c, 3, 54, 0
7, 21780, Note_on_c, 3, 63, 88
7, 21838, Note_off_c, 3, 63, 0
7, 21840, Note_on_c, 3, 59, 88
7, 21898, Note_off_c, 3, 59, 0
7, 21900, Note_on_c, 3, 63, 88
7, 21958, Note_off_c, 3, 63, 0
7, 21960, Note_on_c, 3, 54, 88
7, 22018, Note_off_c, 3, 54, 0
7, 22020, Note_on_c, 3, 63, 88
7, 22078, Note_off_c, 3, 63, 0
7, 22080, Note_on_c, 3, 56, 88
7, 22138, Note_off_c, 3, 56, 0
7, 22140, Note_on_c, 3, 59, 88
7, 22198, Note_off_c, 3, 59, 0
7, 22200, Note_on_c, 3, 51, 88
7, 22258, Note_off_c, 3, 51, 0
7, 22260, Note_on_c, 3, 59, 88
7, 22318, Note_off_c, 3, 59, 0
7, 22320, Note_on_c, 3, 56, 88
7, 22378, Note_off_c, 3, 56, 0
7, 22380, Note_on_c, 3, 59, 88
7, 22438, Note_off_c, 3, 59, 0
7, 22440, Note_on_c, 3, 51, 88
7, 22498, Note_off_c, 3, 51, 0
7, 22500, Note_on_c, 3, 59, 88
7, 22558, Note_off_c, 3, 59, 0
7, 22560, Note_on_c, 3, 56, 88
7, 22618, Note_off_c, 3, 56, 0
7, 22620, Note_on_c, 3, 61, 88
7, 22678, Note_off_c, 3, 61, 0
7, 22680, Note_on_c, 3, 53, 88
7, 22738, Note_off_c, 3, 53, 0
7, 22740, Note_on_c, 3, 61, 88
7, 22798, Note_off_c, 3, 61, 0
7, 22800, Note_on_c, 3, 56, 88
7, 22858, Note_off_c, 3, 56, 0
7, 22860, Note_on_c, 3, 61, 88
7, 22918, Note_off_c, 3, 61, 0
7, 22920, Note_on_c, 3, 53, 88
7, 22978, Note_off_c, 3, 53, 0
7, 22980, Note_on_c, 3, 61, 88
7, 23038, Note_off_c, 3, 61, 0
7, 23040, Note_on_c, 3, 54, 88
7, 23098, Note_off_c, 3, 54, 0
7, 23100, Note_on_c, 3, 58, 88
7, 23158, Note_off_c, 3, 58, 0
7, 23160, Note_on_c, 3, 49, 88
7, 23218, Note_off_c, 3, 49, 0
7, 23220, Note_on_c, 3, 58, 88
7, 23278, Note_off_c, 3, 58, 0
7, 23280, Note_on_c, 3, 54, 88
7, 23338, Note_off_c, 3, 54, 0
7, 23340, Note_on_c, 3, 58, 88
7, 23398, Note_off_c, 3, 58, 0
7, 23400, Note_on_c, 3, 49, 88
7, 23458, Note_off_c, 3, 49, 0
7, 23460, Note_on_c, 3, 58, 88
7, 23518, Note_off_c, 3, 58, 0
7, 23520, Note_on_c, 3, 54, 88
7, 23578, Note_off_c, 3, 54, 0
7, 23580, Note_on_c, 3, 59, 88
7, 23638, Note_off_c, 3, 59, 0
7, 23640, Note_on_c, 3, 51, 88
7, 23698, Note_off_c, 3, 51, 0
7, 23700, Note_on_c, 3, 59, 88
7, 23758, Note_off_c, 3, 59, 0
7, 23760, Note_on_c, 3, 54, 88
7, 23818, Note_off_c, 3, 54, 0
7, 23820, Note_on_c, 3, 59, 88
7, 23878, Note_off_c, 3, 59, 0
7, 23880, Note_on_c, 3, 51, 88
7, 23938, Note_off_c, 3, 51, 0
7, 23940, Note_on_c, 3, 59, 88
7, 23998, Note_off_c, 3, 59, 0
7, 24000, Note_on_c, 3, 56, 88
7, 24058, Note_off_c, 3, 56, 0
7, 24060, Note_on_c, 3, 61, 88
7, 24118, Note_off_c, 3, 61, 0
7, 24120, Note_on_c, 3, 53, 88
7, 24178, Note_off_c, 3, 53, 0
7, 24180, Note_on_c, 3, 61, 88
7, 24238, Note_off_c, 3, 61, 0
7, 24240, Note_on_c, 3, 56, 88
7, 24298, Note_off_c, 3, 56, 0
7, 24300, Note_on_c, 3, 61, 88
7, 24358, Note_off_c, 3, 61, 0
7, 24360, Note_on_c, 3, 53, 88
7, 24418, Note_off_c, 3, 53, 0
7, 24420, Note_on_c, 3, 61, 88
7, 24478, Note_off_c, 3, 61, 0
7, 24480, Note_on_c, 3, 58, 88
7, 24538, Note_off_c, 3, 58, 0
7, 24540, Note_on_c, 3, 63, 88
7, 24598, Note_off_c, 3, 63, 0
7, 24600, Note_on_c, 3, 55, 88
7, 24658, Note_off_c, 3, 55, 0
7, 24660, Note_on_c, 3, 63, 88
7, 24718, Note_off_c, 3, 63, 0
7, 24720, Note_on_c, 3, 58, 88
7, 24778, Note_off_c, 3, 58, 0
7, 24780, Note_on_c, 3, 63, 88
7, 24838, Note_off_c, 3, 63, 0
7, 24840, Note_on_c, 3, 55, 88
7, 24898, Note_off_c, 3, 55, 0
7, 24900, Note_on_c, 3, 63, 88
7, 24958, Note_off_c, 3, 63, 0
7, 24960, Note_on_c, 3, 59, 88
7, 25018, Note_off_c, 3, 59, 0
7, 25020, Note_on_c, 3, 63, 88
7, 25078, Note_off_c, 3, 63, 0
7, 25080, Note_on_c, 3, 56, 88
7, 25138, Note_off_c, 3, 56, 0
7, 25140, Note_on_c, 3, 63, 88
7, 25198, Note_off_c, 3, 63, 0
7, 25200, Note_on_c, 3, 59, 88
7, 25258, Note_off_c, 3, 59, 0
7, 25260, Note_on_c, 3, 63, 88
7, 25318, Note_off_c, 3, 63, 0
7, 25320, Note_on_c, 3, 56, 88
7, 25378, Note_off_c, 3, 56, 0
7, 25380, Note_on_c, 3, 63, 88
7, 25438, Note_off_c, 3, 63, 0
7, 25440, Note_on_c, 3, 60, 88
7, 25498, Note_off_c, 3, 60, 0
7, 25500, Note_on_c, 3, 63, 88
7, 25558, Note_off_c, 3, 63, 0
7, 25560, Note_on_c, 3, 57, 88
7, 25618, Note_off_c, 3, 57, 0
7, 25620, Note_on_c, 3, 63, 88
7, 25678, Note_off_c, 3, 63, 0
7, 25680, Note_on_c, 3, 60, 88
7, 25738, Note_off_c, 3, 60, 0
7, 25740, Note_on_c, 3, 63, 88
7, 25798, Note_off_c, 3, 63, 0
7, 25800, Note_on_c, 3, 57, 88
7, 25858, Note_off_c, 3, 57, 0
7, 25860, Note_on_c, 3, 63, 88
7, 25918, Note_off_c, 3, 63, 0
7, 25920, Note_on_c, 3, 58, 88
7, 26390, Note_off_c, 3, 58, 0
7, 26460, Note_on_c, 3, 51, 88
7, 26518, Note_off_c, 3, 51, 0
7, 26520, Note_on_c, 3, 53, 88
7, 26578, Note_off_c, 3, 53, 0
7, 26580, Note_on_c, 3, 54, 88
7, 26638, Note_off_c, 3, 54, 0
7, 26640, Note_on_c, 3, 53, 88
7, 26698, Note_off_c, 3, 53, 0
7, 26700, Note_on_c, 3, 51, 88
7, 26758, Note_off_c, 3, 51, 0
7, 26760, Note_on_c, 3, 50, 88
7, 26818, Note_off_c, 3, 50, 0
7, 26820, Note_on_c, 3, 48, 88
7, 26878, Note_off_c, 3, 48, 0
7, 26880, Note_on_c, 3, 46, 88
7, 26996, Note_off_c, 3, 46, 0
7, 27840, Note_on_c, 3, 51, 88
7, 27956, Note_off_c, 3, 51, 0
7, 28320, Note_on_c, 3, 56, 88
7, 28436, Note_off_c, 3, 56, 0
7, 28800, Note_on_c, 3, 49, 88
7, 28916, Note_off_c, 3, 49, 0
7, 29280, Note_on_c, 3, 54, 88
7, 29396, Note_off_c, 3, 54, 0
7, 29760, Note_on_c, 3, 47, 88
7, 29876, Note_off_c, 3, 47, 0
7, 30240, Note_on_c, 3, 53, 88
7, 30356, Note_off_c, 3, 53, 0
7, 30720, Note_on_c, 3, 54, 88
7, 30836, Note_off_c, 3, 54, 0
7, 30840, Note_on_c, 3, 42, 88
7, 30956, Note_off_c, 3, 42, 0
7, 30960, Note_on_c, 3, 46, 88
7, 31076, Note_off_c, 3, 46, 0
7, 31080, Note_on_c, 3, 49, 88
7, 31196, Note_off_c, 3, 49, 0
7, 31200, Note_on_c, 3, 54, 88
7, 31316, Note_off_c, 3, 54, 0
7, 31320, Note_on_c, 3, 58, 88
7, 31436, Note_off_c, 3, 58, 0
7, 31440, Note_on_c, 3, 61, 88
7, 31556, Note_off_c, 3, 61, 0
7, 31560, Note_on_c, 3, 58, 88
7, 31676, Note_off_c, 3, 58, 0
7, 31680, Note_on_c, 3, 59, 88
7, 31796, Note_off_c, 3, 59, 0
7, 31800, Note_on_c, 3, 54, 88
7, 31916, Note_off_c, 3, 54, 0
7, 31920, Note_on_c, 3, 50, 88
7, 32036, Note_off_c, 3, 50, 0
7, 32040, Note_on_c, 3, 54, 88
7, 32156, Note_off_c, 3, 54, 0
7, 32160, Note_on_c, 3, 50, 88
7, 32276, Note_off_c, 3, 50, 0
7, 32280, Note_on_c, 3, 47, 88
7, 32396, Note_off_c, 3, 47, 0
7, 32400, Note_on_c, 3, 50, 88
7, 32516, Note_off_c, 3, 50, 0
7, 32520, Note_on_c, 3, 54, 88
7, 32636, Note_off_c, 3, 54, 0
7, 32640, Note_on_c, 3, 42, 88
7, 32738, Note_off_c, 3, 42, 0
7, 32760, Note_on_c, 3, 42, 88
7, 32858, Note_off_c, 3, 42, 0
7, 32880, Note_on_c, 3, 42, 88
7, 32978, Note_off_c, 3, 42, 0
7, 33000, Note_on_c, 3, 42, 88
7, 33098, Note_off_c, 3, 42, 0
7, 33120, Note_on_c, 3, 42, 88
7, 33218, Note_off_c, 3, 42, 0
7, 33240, Note_on_c, 3, 42, 88
7, 33338, Note_off_c, 3, 42, 0
7, 33360, Note_on_c, 3, 42, 88
7, 33458, Note_off_c, 3, 42, 0
7, 33480, Note_on_c, 3, 42, 88
7, 33596, Note_off_c, 3, 42, 0
7, 33600, Note_on_c, 3, 42, 88
7, 34131, Note_off_c, 3, 42, 0
7, 34140, Note_on_c, 3, 44, 88
7, 34198, Note_off_c, 3, 44, 0
7, 34200, Note_on_c, 3, 46, 88
7, 34258, Note_off_c, 3, 46, 0
7, 34260, Note_on_c, 3, 47, 88
7, 34318, Note_off_c, 3, 47, 0
7, 34320, Note_on_c, 3, 49, 88
7, 34378, Note_off_c, 3, 49, 0
7, 34380, Note_on_c, 3, 51, 88
7, 34438, Note_off_c, 3, 51, 0
7, 34440, Note_on_c, 3, 52, 88
7, 34498, Note_off_c, 3, 52, 0
7, 34500, Note_on_c, 3, 49, 88
7, 34558, Note_off_c, 3, 49, 0
7, 34560, Note_on_c, 3, 51, 88
7, 34618, Note_off_c, 3, 51, 0
7, 34620, Note_on_c, 3, 47, 88
7, 34678, Note_off_c, 3, 47, 0
7, 34680, Note_on_c, 3, 49, 88
7, 34738, Note_off_c, 3, 49, 0
7, 34740, Note_on_c, 3, 51, 88
7, 34798, Note_off_c, 3, 51, 0
7, 34800, Note_on_c, 3, 52, 88
7, 34858, Note_off_c, 3, 52, 0
7, 34860, Note_on_c, 3, 54, 88
7, 34918, Note_off_c, 3, 54, 0
7, 34920, Note_on_c, 3, 56, 88
7, 34978, Note_off_c, 3, 56, 0
7, 34980, Note_on_c, 3, 58, 88
7, 35038, Note_off_c, 3, 58, 0
7, 35040, Note_on_c, 3, 59, 88
7, 35156, Note_off_c, 3, 59, 0
7, 35280, Note_on_c, 3, 63, 88
7, 35309, Note_off_c, 3, 63, 0
7, 35310, Note_on_c, 3, 61, 88
7, 35339, Note_off_c, 3, 61, 0
7, 35340, Note_on_c, 3, 63, 88
7, 35369, Note_off_c, 3, 63, 0
7, 35370, Note_on_c, 3, 61, 88
7, 35399, Note_off_c, 3, 61, 0
7, 35400, Note_on_c, 3, 63, 88
7, 35429, Note_off_c, 3, 63, 0
7, 35430, Note_on_c, 3, 61, 88
7, 35459, Note_off_c, 3, 61, 0
7, 35460, Note_on_c, 3, 59, 88
7, 35489, Note_off_c, 3, 59, 0
7, 35490, Note_on_c, 3, 61, 88
7, 35519, Note_off_c, 3, 61, 0
7, 35520, Note_on_c, 3, 63, 88
7, 35636, Note_off_c, 3, 63, 0
7, 35760, Note_on_c, 3, 66, 88
7, 35789, Note_off_c, 3, 66, 0
7, 35790, Note_on_c, 3, 65, 88
7, 35819, Note_off_c, 3, 65, 0
7, 35820, Note_on_c, 3, 66, 88
7, 35849, Note_off_c, 3, 66, 0
7, 35850, Note_on_c, 3, 65, 88
7, 35879, Note_off_c, 3, 65, 0
7, 35880, Note_on_c, 3, 66, 88
7, 35909, Note_off_c, 3, 66, 0
7, 35910, Note_on_c, 3, 65, 88
7, 35939, Note_off_c, 3, 65, 0
7, 35940, Note_on_c, 3, 63, 88
7, 35969, Note_off_c, 3, 63, 0
7, 35970, Note_on_c, 3, 65, 88
7, 35999, Note_off_c, 3, 65, 0
7, 36000, Note_on_c, 3, 66, 88
7, 36058, Note_off_c, 3, 66, 0
7, 36060, Note_on_c, 3, 64, 88
7, 36118, Note_off_c, 3, 64, 0
7, 36120, Note_on_c, 3, 63, 88
7, 36178, Note_off_c, 3, 63, 0
7, 36180, Note_on_c, 3, 61, 88
7, 36238, Note_off_c, 3, 61, 0
7, 36240, Note_on_c, 3, 59, 88
7, 36298, Note_off_c, 3, 59, 0
7, 36300, Note_on_c, 3, 57, 88
7, 36358, Note_off_c, 3, 57, 0
7, 36360, Note_on_c, 3, 56, 88
7, 36418, Note_off_c, 3, 56, 0
7, 36420, Note_on_c, 3, 54, 88
7, 36478, Note_off_c, 3, 54, 0
7, 36480, Note_on_c, 3, 52, 88
7, 36596, Note_off_c, 3, 52, 0
7, 36600, Note_on_c, 3, 63, 88
7, 36716, Note_off_c, 3, 63, 0
7, 36720, Note_on_c, 3, 61, 88
7, 36836, Note_off_c, 3, 61, 0
7, 36840, Note_on_c, 3, 58, 88
7, 36956, Note_off_c, 3, 58, 0
7, 36960, Note_on_c, 3, 63, 88
7, 37018, Note_off_c, 3, 63, 0
7, 37020, Note_on_c, 3, 61, 88
7, 37078, Note_off_c, 3, 61, 0
7, 37080, Note_on_c, 3, 60, 88
7, 37138, Note_off_c, 3, 60, 0
7, 37140, Note_on_c, 3, 58, 88
7, 37198, Note_off_c, 3, 58, 0
7, 37200, Note_on_c, 3, 56, 88
7, 37258, Note_off_c, 3, 56, 0
7, 37260, Note_on_c, 3, 54, 88
7, 37318, Note_off_c, 3, 54, 0
7, 37320, Note_on_c, 3, 52, 88
7, 37378, Note_off_c, 3, 52, 0
7, 37380, Note_on_c, 3, 51, 88
7, 37438, Note_off_c, 3, 51, 0
7, 37440, Note_on_c, 3, 49, 88
7, 37556, Note_off_c, 3, 49, 0
7, 37560, Note_on_c, 3, 59, 88
7, 37676, Note_off_c, 3, 59, 0
7, 37680, Note_on_c, 3, 58, 88
7, 37796, Note_off_c, 3, 58, 0
7, 37800, Note_on_c, 3, 54, 88
7, 37916, Note_off_c, 3, 54, 0
7, 37920, Note_on_c, 3, 47, 88
7, 38036, Note_off_c, 3, 47, 0
7, 38040, Note_on_c, 3, 51, 88
7, 38156, Note_off_c, 3, 51, 0
7, 38160, Note_on_c, 3, 53, 88
7, 38276, Note_off_c, 3, 53, 0
7, 38280, Note_on_c, 3, 56, 88
7, 38396, Note_off_c, 3, 56, 0
7, 38400, Note_on_c, 3, 46, 88
7, 38516, Note_off_c, 3, 46, 0
7, 38520, Note_on_c, 3, 49, 88
7, 38636, Note_off_c, 3, 49, 0
7, 38640, Note_on_c, 3, 51, 88
7, 38756, Note_off_c, 3, 51, 0
7, 38760, Note_on_c, 3, 54, 88
7, 38876, Note_off_c, 3, 54, 0
7, 38880, Note_on_c, 3, 44, 88
7, 38996, Note_off_c, 3, 44, 0
7, 39000, Note_on_c, 3, 47, 88
7, 39116, Note_off_c, 3, 47, 0
7, 39120, Note_on_c, 3, 49, 88
7, 39236, Note_off_c, 3, 49, 0
7, 39240, Note_on_c, 3, 53, 88
7, 39356, Note_off_c, 3, 53, 0
7, 39360, Note_on_c, 3, 42, 88
7, 39418, Note_off_c, 3, 42, 0
7, 39420, Note_on_c, 3, 44, 88
7, 39478, Note_off_c, 3, 44, 0
7, 39480, Note_on_c, 3, 46, 88
7, 39538, Note_off_c, 3, 46, 0
7, 39540, Note_on_c, 3, 47, 88
7, 39598, Note_off_c, 3, 47, 0
7, 39600, Note_on_c, 3, 49, 88
7, 39658, Note_off_c, 3, 49, 0
7, 39660, Note_on_c, 3, 51, 88
7, 39718, Note_off_c, 3, 51, 0
7, 39720, Note_on_c, 3, 52, 88
7, 39778, Note_off_c, 3, 52, 0
7, 39780, Note_on_c, 3, 49, 88
7, 39838, Note_off_c, 3, 49, 0
7, 39840, Note_on_c, 3, 51, 88
7, 39956, Note_off_c, 3, 51, 0
7, 39960, Note_on_c, 3, 54, 88
7, 40076, Note_off_c, 3, 54, 0
7, 40080, Note_on_c, 3, 51, 88
7, 40196, Note_off_c, 3, 51, 0
7, 40200, Note_on_c, 3, 47, 88
7, 40316, Note_off_c, 3, 47, 0
7, 40320, Note_on_c, 3, 52, 88
7, 40436, Note_off_c, 3, 52, 0
7, 40440, Note_on_c, 3, 40, 88
7, 40556, Note_off_c, 3, 40, 0
7, 40560, Note_on_c, 3, 52, 88
7, 40913, Note_off_c, 3, 52, 0
7, 40920, Note_on_c, 3, 51, 88
7, 41036, Note_off_c, 3, 51, 0
7, 41040, Note_on_c, 3, 49, 88
7, 41156, Note_off_c, 3, 49, 0
7, 41160, Note_on_c, 3, 54, 88
7, 41276, Note_off_c, 3, 54, 0
7, 41280, Note_on_c, 3, 47, 88
7, 41396, Note_off_c, 3, 47, 0
7, 41400, Note_on_c, 3, 49, 88
7, 41516, Note_off_c, 3, 49, 0
7, 41520, Note_on_c, 3, 51, 88
7, 41636, Note_off_c, 3, 51, 0
7, 41640, Note_on_c, 3, 47, 88
7, 41756, Note_off_c, 3, 47, 0
7, 41760, Note_on_c, 3, 40, 88
7, 41876, Note_off_c, 3, 40, 0
7, 41880, Note_on_c, 3, 44, 88
7, 41996, Note_off_c, 3, 44, 0
7, 42000, Note_on_c, 3, 40, 88
7, 42116, Note_off_c, 3, 40, 0
7, 42120, Note_on_c, 3, 37, 88
7, 42236, Note_off_c, 3, 37, 0
7, 42240, Note_on_c, 3, 42, 88
7, 42356, Note_off_c, 3, 42, 0
7, 42360, Note_on_c, 3, 40, 88
7, 42476, Note_off_c, 3, 40, 0
7, 42480, Note_on_c, 3, 39, 88
7, 42596, Note_off_c, 3, 39, 0
7, 42600, Note_on_c, 3, 46, 88
7, 42716, Note_off_c, 3, 46, 0
7, 42720, Note_on_c, 3, 47, 88
7, 42836, Note_off_c, 3, 47, 0
7, 42840, Note_on_c, 3, 44, 88
7, 42956, Note_off_c, 3, 44, 0
7, 42960, Note_on_c, 3, 40, 88
7, 43076, Note_off_c, 3, 40, 0
7, 43080, Note_on_c, 3, 42, 88
7, 43196, Note_off_c, 3, 42, 0
7, 43200, Note_on_c, 3, 35, 88
7, 43200, Note_on_c, 3, 47, 88
7, 43316, Note_off_c, 3, 35, 0
7, 43316, Note_off_c, 3, 47, 0
7, 43316, End_track
0, 0, End_of_file
