0, 0, Header, 1, 5, 240
1, 0, Start_track
1, 0, Time_signature, 24, 4, 24, 8
1, 0, Tempo, 857142
1, 0, SMPTE_offset, 64, 0, 0, 0, 93
1, 0, End_track
2, 0, Start_track
2, 0, Title_t, "(C) & (P) 1993"
2, 127, End_track
3, 0, Start_track
3, 0, Title_t, "CCARH,Stanford"
3, 0, End_track
4, 0, Start_track
4, 0, Title_t, "Track 1"
4, 0, Program_c, 0, 6
4, 0, Note_on_c, 0, 67, 88
4, 39, Note_off_c, 0, 67, 0
4, 40, Note_on_c, 0, 71, 88
4, 79, Note_off_c, 0, 71, 0
4, 80, Note_on_c, 0, 74, 88
4, 119, Note_off_c, 0, 74, 0
4, 120, Note_on_c, 0, 79, 88
4, 159, Note_off_c, 0, 79, 0
4, 160, Note_on_c, 0, 74, 88
4, 199, Note_off_c, 0, 74, 0
4, 200, Note_on_c, 0, 71, 88
4, 239, Note_off_c, 0, 71, 0
4, 240, Note_on_c, 0, 74, 88
4, 279, Note_off_c, 0, 74, 0
4, 280, Note_on_c, 0, 71, 88
4, 319, Note_off_c, 0, 71, 0
4, 320, Note_on_c, 0, 67, 88
4, 359, Note_off_c, 0, 67, 0
4, 360, Note_on_c, 0, 71, 88
4, 399, Note_off_c, 0, 71, 0
4, 400, Note_on_c, 0, 67, 88
4, 439, Note_off_c, 0, 67, 0
4, 440, Note_on_c, 0, 62, 88
4, 479, Note_off_c, 0, 62, 0
4, 480, Note_on_c, 0, 64, 88
4, 519, Note_off_c, 0, 64, 0
4, 520, Note_on_c, 0, 67, 88
4, 559, Note_off_c, 0, 67, 0
4, 560, Note_on_c, 0, 72, 88
4, 599, Note_off_c, 0, 72, 0
4, 600, Note_on_c, 0, 76, 88
4, 639, Note_off_c, 0, 76, 0
4, 640, Note_on_c, 0, 72, 88
4, 679, Note_off_c, 0, 72, 0
4, 680, Note_on_c, 0, 67, 88
4, 719, Note_off_c, 0, 67, 0
4, 720, Note_on_c, 0, 72, 88
4, 759, Note_off_c, 0, 72, 0
4, 760, Note_on_c, 0, 67, 88
4, 799, Note_off_c, 0, 67, 0
4, 800, Note_on_c, 0, 64, 88
4, 839, Note_off_c, 0, 64, 0
4, 840, Note_on_c, 0, 67, 88
4, 879, Note_off_c, 0, 67, 0
4, 880, Note_on_c, 0, 64, 88
4, 919, Note_off_c, 0, 64, 0
4, 920, Note_on_c, 0, 60, 88
4, 959, Note_off_c, 0, 60, 0
4, 960, Note_on_c, 0, 57, 88
4, 999, Note_off_c, 0, 57, 0
4, 1000, Note_on_c, 0, 60, 88
4, 1039, Note_off_c, 0, 60, 0
4, 1040, Note_on_c, 0, 66, 88
4, 1079, Note_off_c, 0, 66, 0
4, 1080, Note_on_c, 0, 69, 88
4, 1119, Note_off_c, 0, 69, 0
4, 1120, Note_on_c, 0, 66, 88
4, 1159, Note_off_c, 0, 66, 0
4, 1160, Note_on_c, 0, 60, 88
4, 1199, Note_off_c, 0, 60, 0
4, 1200, Note_on_c, 0, 66, 88
4, 1239, Note_off_c, 0, 66, 0
4, 1240, Note_on_c, 0, 60, 88
4, 1279, Note_off_c, 0, 60, 0
4, 1280, Note_on_c, 0, 57, 88
4, 1319, Note_off_c, 0, 57, 0
4, 1320, Note_on_c, 0, 60, 88
4, 1359, Note_off_c, 0, 60, 0
4, 1360, Note_on_c, 0, 57, 88
4, 1399, Note_off_c, 0, 57, 0
4, 1400, Note_on_c, 0, 54, 88
4, 1439, Note_off_c, 0, 54, 0
4, 1440, Note_on_c, 0, 55, 88
4, 1479, Note_off_c, 0, 55, 0
4, 1480, Note_on_c, 0, 59, 88
4, 1519, Note_off_c, 0, 59, 0
4, 1520, Note_on_c, 0, 62, 88
4, 1559, Note_off_c, 0, 62, 0
4, 1560, Note_on_c, 0, 67, 88
4, 1599, Note_off_c, 0, 67, 0
4, 1600, Note_on_c, 0, 62, 88
4, 1639, Note_off_c, 0, 62, 0
4, 1640, Note_on_c, 0, 59, 88
4, 1679, Note_off_c, 0, 59, 0
4, 1680, Note_on_c, 0, 62, 88
4, 1719, Note_off_c, 0, 62, 0
4, 1720, Note_on_c, 0, 59, 88
4, 1759, Note_off_c, 0, 59, 0
4, 1760, Note_on_c, 0, 55, 88
4, 1799, Note_off_c, 0, 55, 0
4, 1800, Note_on_c, 0, 59, 88
4, 1839, Note_off_c, 0, 59, 0
4, 1840, Note_on_c, 0, 55, 88
4, 1879, Note_off_c, 0, 55, 0
4, 1880, Note_on_c, 0, 52, 88
4, 1919, Note_off_c, 0, 52, 0
4, 1920, Note_on_c, 0, 57, 88
4, 1959, Note_off_c, 0, 57, 0
4, 1960, Note_on_c, 0, 61, 88
4, 1999, Note_off_c, 0, 61, 0
4, 2000, Note_on_c, 0, 64, 88
4, 2039, Note_off_c, 0, 64, 0
4, 2040, Note_on_c, 0, 69, 88
4, 2079, Note_off_c, 0, 69, 0
4, 2080, Note_on_c, 0, 64, 88
4, 2119, Note_off_c, 0, 64, 0
4, 2120, Note_on_c, 0, 61, 88
4, 2159, Note_off_c, 0, 61, 0
4, 2160, Note_on_c, 0, 64, 88
4, 2199, Note_off_c, 0, 64, 0
4, 2200, Note_on_c, 0, 61, 88
4, 2239, Note_off_c, 0, 61, 0
4, 2240, Note_on_c, 0, 57, 88
4, 2279, Note_off_c, 0, 57, 0
4, 2280, Note_on_c, 0, 61, 88
4, 2319, Note_off_c, 0, 61, 0
4, 2320, Note_on_c, 0, 57, 88
4, 2359, Note_off_c, 0, 57, 0
4, 2360, Note_on_c, 0, 52, 88
4, 2399, Note_off_c, 0, 52, 0
4, 2400, Note_on_c, 0, 62, 88
4, 2516, Note_off_c, 0, 62, 0
4, 2760, Note_on_c, 0, 62, 88
4, 2876, Note_off_c, 0, 62, 0
4, 2880, Note_on_c, 0, 62, 88
4, 2919, Note_off_c, 0, 62, 0
4, 2920, Note_on_c, 0, 61, 88
4, 2959, Note_off_c, 0, 61, 0
4, 2960, Note_on_c, 0, 62, 88
4, 2999, Note_off_c, 0, 62, 0
4, 3000, Note_on_c, 0, 64, 88
4, 3039, Note_off_c, 0, 64, 0
4, 3040, Note_on_c, 0, 61, 88
4, 3079, Note_off_c, 0, 61, 0
4, 3080, Note_on_c, 0, 62, 88
4, 3119, Note_off_c, 0, 62, 0
4, 3120, Note_on_c, 0, 66, 88
4, 3159, Note_off_c, 0, 66, 0
4, 3160, Note_on_c, 0, 61, 88
4, 3199, Note_off_c, 0, 61, 0
4, 3200, Note_on_c, 0, 62, 88
4, 3239, Note_off_c, 0, 62, 0
4, 3240, Note_on_c, 0, 67, 88
4, 3279, Note_off_c, 0, 67, 0
4, 3280, Note_on_c, 0, 61, 88
4, 3319, Note_off_c, 0, 61, 0
4, 3320, Note_on_c, 0, 62, 88
4, 3359, Note_off_c, 0, 62, 0
4, 3360, Note_on_c, 0, 69, 88
4, 3399, Note_off_c, 0, 69, 0
4, 3400, Note_on_c, 0, 61, 88
4, 3439, Note_off_c, 0, 61, 0
4, 3440, Note_on_c, 0, 62, 88
4, 3479, Note_off_c, 0, 62, 0
4, 3480, Note_on_c, 0, 71, 88
4, 3519, Note_off_c, 0, 71, 0
4, 3520, Note_on_c, 0, 61, 88
4, 3559, Note_off_c, 0, 61, 0
4, 3560, Note_on_c, 0, 62, 88
4, 3599, Note_off_c, 0, 62, 0
4, 3600, Note_on_c, 0, 69, 88
4, 3639, Note_off_c, 0, 69, 0
4, 3640, Note_on_c, 0, 61, 88
4, 3679, Note_off_c, 0, 61, 0
4, 3680, Note_on_c, 0, 62, 88
4, 3719, Note_off_c, 0, 62, 0
4, 3720, Note_on_c, 0, 67, 88
4, 3759, Note_off_c, 0, 67, 0
4, 3760, Note_on_c, 0, 61, 88
4, 3799, Note_off_c, 0, 61, 0
4, 3800, Note_on_c, 0, 62, 88
4, 3839, Note_off_c, 0, 62, 0
4, 3840, Note_on_c, 0, 66, 88
4, 3956, Note_off_c, 0, 66, 0
4, 3960, Note_on_c, 0, 67, 88
4, 4076, Note_off_c, 0, 67, 0
4, 4080, Note_on_c, 0, 69, 88
4, 4196, Note_off_c, 0, 69, 0
4, 4200, Note_on_c, 0, 71, 88
4, 4316, Note_off_c, 0, 71, 0
4, 4320, Note_on_c, 0, 69, 88
4, 4436, Note_off_c, 0, 69, 0
4, 4440, Note_on_c, 0, 67, 88
4, 4556, Note_off_c, 0, 67, 0
4, 4560, Note_on_c, 0, 66, 88
4, 4676, Note_off_c, 0, 66, 0
4, 4680, Note_on_c, 0, 69, 88
4, 4796, Note_off_c, 0, 69, 0
4, 4800, Note_on_c, 0, 68, 88
4, 4839, Note_off_c, 0, 68, 0
4, 4840, Note_on_c, 0, 71, 88
4, 4879, Note_off_c, 0, 71, 0
4, 4880, Note_on_c, 0, 74, 88
4, 4919, Note_off_c, 0, 74, 0
4, 4920, Note_on_c, 0, 77, 88
4, 4959, Note_off_c, 0, 77, 0
4, 4960, Note_on_c, 0, 74, 88
4, 4999, Note_off_c, 0, 74, 0
4, 5000, Note_on_c, 0, 71, 88
4, 5039, Note_off_c, 0, 71, 0
4, 5040, Note_on_c, 0, 74, 88
4, 5079, Note_off_c, 0, 74, 0
4, 5080, Note_on_c, 0, 71, 88
4, 5119, Note_off_c, 0, 71, 0
4, 5120, Note_on_c, 0, 68, 88
4, 5159, Note_off_c, 0, 68, 0
4, 5160, Note_on_c, 0, 71, 88
4, 5199, Note_off_c, 0, 71, 0
4, 5200, Note_on_c, 0, 68, 88
4, 5239, Note_off_c, 0, 68, 0
4, 5240, Note_on_c, 0, 64, 88
4, 5279, Note_off_c, 0, 64, 0
4, 5280, Note_on_c, 0, 62, 88
4, 5319, Note_off_c, 0, 62, 0
4, 5320, Note_on_c, 0, 65, 88
4, 5359, Note_off_c, 0, 65, 0
4, 5360, Note_on_c, 0, 68, 88
4, 5399, Note_off_c, 0, 68, 0
4, 5400, Note_on_c, 0, 71, 88
4, 5439, Note_off_c, 0, 71, 0
4, 5440, Note_on_c, 0, 68, 88
4, 5479, Note_off_c, 0, 68, 0
4, 5480, Note_on_c, 0, 65, 88
4, 5519, Note_off_c, 0, 65, 0
4, 5520, Note_on_c, 0, 68, 88
4, 5559, Note_off_c, 0, 68, 0
4, 5560, Note_on_c, 0, 65, 88
4, 5599, Note_off_c, 0, 65, 0
4, 5600, Note_on_c, 0, 62, 88
4, 5639, Note_off_c, 0, 62, 0
4, 5640, Note_on_c, 0, 65, 88
4, 5679, Note_off_c, 0, 65, 0
4, 5680, Note_on_c, 0, 62, 88
4, 5719, Note_off_c, 0, 62, 0
4, 5720, Note_on_c, 0, 59, 88
4, 5759, Note_off_c, 0, 59, 0
4, 5760, Note_on_c, 0, 60, 88
4, 5876, Note_off_c, 0, 60, 0
4, 5880, Note_on_c, 0, 76, 88
4, 5996, Note_off_c, 0, 76, 0
4, 6000, Note_on_c, 0, 72, 88
4, 6116, Note_off_c, 0, 72, 0
4, 6120, Note_on_c, 0, 69, 88
4, 6236, Note_off_c, 0, 69, 0
4, 6240, Note_on_c, 0, 64, 88
4, 6356, Note_off_c, 0, 64, 0
4, 6360, Note_on_c, 0, 76, 88
4, 6476, Note_off_c, 0, 76, 0
4, 6480, Note_on_c, 0, 72, 88
4, 6596, Note_off_c, 0, 72, 0
4, 6600, Note_on_c, 0, 69, 88
4, 6716, Note_off_c, 0, 69, 0
4, 6720, Note_on_c, 0, 75, 88
4, 6759, Note_off_c, 0, 75, 0
4, 6760, Note_on_c, 0, 78, 88
4, 6799, Note_off_c, 0, 78, 0
4, 6800, Note_on_c, 0, 81, 88
4, 6839, Note_off_c, 0, 81, 0
4, 6840, Note_on_c, 0, 84, 88
4, 6879, Note_off_c, 0, 84, 0
4, 6880, Note_on_c, 0, 81, 88
4, 6919, Note_off_c, 0, 81, 0
4, 6920, Note_on_c, 0, 78, 88
4, 6959, Note_off_c, 0, 78, 0
4, 6960, Note_on_c, 0, 81, 88
4, 6999, Note_off_c, 0, 81, 0
4, 7000, Note_on_c, 0, 78, 88
4, 7039, Note_off_c, 0, 78, 0
4, 7040, Note_on_c, 0, 75, 88
4, 7079, Note_off_c, 0, 75, 0
4, 7080, Note_on_c, 0, 78, 88
4, 7119, Note_off_c, 0, 78, 0
4, 7120, Note_on_c, 0, 75, 88
4, 7159, Note_off_c, 0, 75, 0
4, 7160, Note_on_c, 0, 71, 88
4, 7199, Note_off_c, 0, 71, 0
4, 7200, Note_on_c, 0, 69, 88
4, 7239, Note_off_c, 0, 69, 0
4, 7240, Note_on_c, 0, 72, 88
4, 7279, Note_off_c, 0, 72, 0
4, 7280, Note_on_c, 0, 75, 88
4, 7319, Note_off_c, 0, 75, 0
4, 7320, Note_on_c, 0, 78, 88
4, 7359, Note_off_c, 0, 78, 0
4, 7360, Note_on_c, 0, 75, 88
4, 7399, Note_off_c, 0, 75, 0
4, 7400, Note_on_c, 0, 72, 88
4, 7439, Note_off_c, 0, 72, 0
4, 7440, Note_on_c, 0, 75, 88
4, 7479, Note_off_c, 0, 75, 0
4, 7480, Note_on_c, 0, 72, 88
4, 7519, Note_off_c, 0, 72, 0
4, 7520, Note_on_c, 0, 69, 88
4, 7559, Note_off_c, 0, 69, 0
4, 7560, Note_on_c, 0, 72, 88
4, 7599, Note_off_c, 0, 72, 0
4, 7600, Note_on_c, 0, 69, 88
4, 7639, Note_off_c, 0, 69, 0
4, 7640, Note_on_c, 0, 66, 88
4, 7679, Note_off_c, 0, 66, 0
4, 7680, Note_on_c, 0, 67, 88
4, 7796, Note_off_c, 0, 67, 0
4, 7800, Note_on_c, 0, 69, 88
4, 7916, Note_off_c, 0, 69, 0
4, 7920, Note_on_c, 0, 71, 88
4, 8036, Note_off_c, 0, 71, 0
4, 8040, Note_on_c, 0, 72, 88
4, 8156, Note_off_c, 0, 72, 0
4, 8160, Note_on_c, 0, 71, 88
4, 8276, Note_off_c, 0, 71, 0
4, 8280, Note_on_c, 0, 69, 88
4, 8396, Note_off_c, 0, 69, 0
4, 8400, Note_on_c, 0, 67, 88
4, 8516, Note_off_c, 0, 67, 0
4, 8520, Note_on_c, 0, 71, 88
4, 8636, Note_off_c, 0, 71, 0
4, 8640, Note_on_c, 0, 69, 88
4, 8679, Note_off_c, 0, 69, 0
4, 8680, Note_on_c, 0, 68, 88
4, 8719, Note_off_c, 0, 68, 0
4, 8720, Note_on_c, 0, 69, 88
4, 8759, Note_off_c, 0, 69, 0
4, 8760, Note_on_c, 0, 71, 88
4, 8799, Note_off_c, 0, 71, 0
4, 8800, Note_on_c, 0, 68, 88
4, 8839, Note_off_c, 0, 68, 0
4, 8840, Note_on_c, 0, 69, 88
4, 8879, Note_off_c, 0, 69, 0
4, 8880, Note_on_c, 0, 73, 88
4, 8919, Note_off_c, 0, 73, 0
4, 8920, Note_on_c, 0, 68, 88
4, 8959, Note_off_c, 0, 68, 0
4, 8960, Note_on_c, 0, 69, 88
4, 8999, Note_off_c, 0, 69, 0
4, 9000, Note_on_c, 0, 74, 88
4, 9039, Note_off_c, 0, 74, 0
4, 9040, Note_on_c, 0, 68, 88
4, 9079, Note_off_c, 0, 68, 0
4, 9080, Note_on_c, 0, 69, 88
4, 9119, Note_off_c, 0, 69, 0
4, 9120, Note_on_c, 0, 76, 88
4, 9159, Note_off_c, 0, 76, 0
4, 9160, Note_on_c, 0, 68, 88
4, 9199, Note_off_c, 0, 68, 0
4, 9200, Note_on_c, 0, 69, 88
4, 9239, Note_off_c, 0, 69, 0
4, 9240, Note_on_c, 0, 78, 88
4, 9279, Note_off_c, 0, 78, 0
4, 9280, Note_on_c, 0, 68, 88
4, 9319, Note_off_c, 0, 68, 0
4, 9320, Note_on_c, 0, 69, 88
4, 9359, Note_off_c, 0, 69, 0
4, 9360, Note_on_c, 0, 79, 88
4, 9399, Note_off_c, 0, 79, 0
4, 9400, Note_on_c, 0, 76, 88
4, 9439, Note_off_c, 0, 76, 0
4, 9440, Note_on_c, 0, 73, 88
4, 9479, Note_off_c, 0, 73, 0
4, 9480, Note_on_c, 0, 69, 88
4, 9519, Note_off_c, 0, 69, 0
4, 9520, Note_on_c, 0, 73, 88
4, 9559, Note_off_c, 0, 73, 0
4, 9560, Note_on_c, 0, 76, 88
4, 9599, Note_off_c, 0, 76, 0
4, 9600, Note_on_c, 0, 78, 88
4, 9716, Note_off_c, 0, 78, 0
4, 9840, Note_on_c, 0, 81, 88
4, 9879, Note_off_c, 0, 81, 0
4, 9880, Note_on_c, 0, 78, 88
4, 9919, Note_off_c, 0, 78, 0
4, 9920, Note_on_c, 0, 74, 88
4, 9959, Note_off_c, 0, 74, 0
4, 9960, Note_on_c, 0, 72, 88
4, 9999, Note_off_c, 0, 72, 0
4, 10000, Note_on_c, 0, 74, 88
4, 10039, Note_off_c, 0, 74, 0
4, 10040, Note_on_c, 0, 78, 88
4, 10079, Note_off_c, 0, 78, 0
4, 10080, Note_on_c, 0, 81, 88
4, 10196, Note_off_c, 0, 81, 0
4, 10200, Note_on_c, 0, 79, 88
4, 10302, Note_off_c, 0, 79, 0
4, 10320, Note_on_c, 0, 79, 88
4, 10359, Note_off_c, 0, 79, 0
4, 10360, Note_on_c, 0, 76, 88
4, 10399, Note_off_c, 0, 76, 0
4, 10400, Note_on_c, 0, 73, 88
4, 10439, Note_off_c, 0, 73, 0
4, 10440, Note_on_c, 0, 69, 88
4, 10479, Note_off_c, 0, 69, 0
4, 10480, Note_on_c, 0, 73, 88
4, 10519, Note_off_c, 0, 73, 0
4, 10520, Note_on_c, 0, 76, 88
4, 10559, Note_off_c, 0, 76, 0
4, 10560, Note_on_c, 0, 79, 88
4, 10676, Note_off_c, 0, 79, 0
4, 10680, Note_on_c, 0, 78, 88
4, 10782, Note_off_c, 0, 78, 0
4, 10800, Note_on_c, 0, 78, 88
4, 10839, Note_off_c, 0, 78, 0
4, 10840, Note_on_c, 0, 74, 88
4, 10879, Note_off_c, 0, 74, 0
4, 10880, Note_on_c, 0, 71, 88
4, 10919, Note_off_c, 0, 71, 0
4, 10920, Note_on_c, 0, 67, 88
4, 10959, Note_off_c, 0, 67, 0
4, 10960, Note_on_c, 0, 71, 88
4, 10999, Note_off_c, 0, 71, 0
4, 11000, Note_on_c, 0, 74, 88
4, 11039, Note_off_c, 0, 74, 0
4, 11040, Note_on_c, 0, 78, 88
4, 11156, Note_off_c, 0, 78, 0
4, 11160, Note_on_c, 0, 76, 88
4, 11262, Note_off_c, 0, 76, 0
4, 11280, Note_on_c, 0, 76, 88
4, 11319, Note_off_c, 0, 76, 0
4, 11320, Note_on_c, 0, 73, 88
4, 11359, Note_off_c, 0, 73, 0
4, 11360, Note_on_c, 0, 69, 88
4, 11399, Note_off_c, 0, 69, 0
4, 11400, Note_on_c, 0, 67, 88
4, 11439, Note_off_c, 0, 67, 0
4, 11440, Note_on_c, 0, 69, 88
4, 11479, Note_off_c, 0, 69, 0
4, 11480, Note_on_c, 0, 73, 88
4, 11519, Note_off_c, 0, 73, 0
4, 11520, Note_on_c, 0, 76, 88
4, 11636, Note_off_c, 0, 76, 0
4, 11640, Note_on_c, 0, 74, 88
4, 11756, Note_off_c, 0, 74, 0
4, 11880, Note_on_c, 0, 74, 88
4, 11982, Note_off_c, 0, 74, 0
4, 12000, Note_on_c, 0, 74, 88
4, 12039, Note_off_c, 0, 74, 0
4, 12040, Note_on_c, 0, 72, 88
4, 12079, Note_off_c, 0, 72, 0
4, 12080, Note_on_c, 0, 71, 88
4, 12102, Note_off_c, 0, 71, 0
4, 12120, Note_on_c, 0, 71, 88
4, 12159, Note_off_c, 0, 71, 0
4, 12160, Note_on_c, 0, 69, 88
4, 12199, Note_off_c, 0, 69, 0
4, 12200, Note_on_c, 0, 67, 88
4, 12222, Note_off_c, 0, 67, 0
4, 12240, Note_on_c, 0, 67, 88
4, 12279, Note_off_c, 0, 67, 0
4, 12280, Note_on_c, 0, 71, 88
4, 12319, Note_off_c, 0, 71, 0
4, 12320, Note_on_c, 0, 74, 88
4, 12359, Note_off_c, 0, 74, 0
4, 12360, Note_on_c, 0, 77, 88
4, 12399, Note_off_c, 0, 77, 0
4, 12400, Note_on_c, 0, 76, 88
4, 12439, Note_off_c, 0, 76, 0
4, 12440, Note_on_c, 0, 74, 88
4, 12479, Note_off_c, 0, 74, 0
4, 12480, Note_on_c, 0, 74, 88
4, 12519, Note_off_c, 0, 74, 0
4, 12520, Note_on_c, 0, 76, 88
4, 12559, Note_off_c, 0, 76, 0
4, 12560, Note_on_c, 0, 77, 88
4, 12599, Note_off_c, 0, 77, 0
4, 12600, Note_on_c, 0, 76, 88
4, 12716, Note_off_c, 0, 76, 0
4, 12840, Note_on_c, 0, 76, 88
4, 12942, Note_off_c, 0, 76, 0
4, 12960, Note_on_c, 0, 76, 88
4, 12999, Note_off_c, 0, 76, 0
4, 13000, Note_on_c, 0, 74, 88
4, 13039, Note_off_c, 0, 74, 0
4, 13040, Note_on_c, 0, 73, 88
4, 13062, Note_off_c, 0, 73, 0
4, 13080, Note_on_c, 0, 73, 88
4, 13119, Note_off_c, 0, 73, 0
4, 13120, Note_on_c, 0, 71, 88
4, 13159, Note_off_c, 0, 71, 0
4, 13160, Note_on_c, 0, 69, 88
4, 13182, Note_off_c, 0, 69, 0
4, 13200, Note_on_c, 0, 69, 88
4, 13239, Note_off_c, 0, 69, 0
4, 13240, Note_on_c, 0, 73, 88
4, 13279, Note_off_c, 0, 73, 0
4, 13280, Note_on_c, 0, 76, 88
4, 13319, Note_off_c, 0, 76, 0
4, 13320, Note_on_c, 0, 79, 88
4, 13359, Note_off_c, 0, 79, 0
4, 13360, Note_on_c, 0, 78, 88
4, 13399, Note_off_c, 0, 78, 0
4, 13400, Note_on_c, 0, 76, 88
4, 13439, Note_off_c, 0, 76, 0
4, 13440, Note_on_c, 0, 76, 88
4, 13479, Note_off_c, 0, 76, 0
4, 13480, Note_on_c, 0, 78, 88
4, 13519, Note_off_c, 0, 78, 0
4, 13520, Note_on_c, 0, 79, 88
4, 13559, Note_off_c, 0, 79, 0
4, 13560, Note_on_c, 0, 78, 88
4, 13676, Note_off_c, 0, 78, 0
4, 13800, Note_on_c, 0, 81, 88
4, 13902, Note_off_c, 0, 81, 0
4, 13920, Note_on_c, 0, 81, 88
4, 13959, Note_off_c, 0, 81, 0
4, 13960, Note_on_c, 0, 79, 88
4, 13999, Note_off_c, 0, 79, 0
4, 14000, Note_on_c, 0, 78, 88
4, 14022, Note_off_c, 0, 78, 0
4, 14040, Note_on_c, 0, 78, 88
4, 14079, Note_off_c, 0, 78, 0
4, 14080, Note_on_c, 0, 76, 88
4, 14119, Note_off_c, 0, 76, 0
4, 14120, Note_on_c, 0, 74, 88
4, 14142, Note_off_c, 0, 74, 0
4, 14160, Note_on_c, 0, 74, 88
4, 14199, Note_off_c, 0, 74, 0
4, 14200, Note_on_c, 0, 78, 88
4, 14239, Note_off_c, 0, 78, 0
4, 14240, Note_on_c, 0, 81, 88
4, 14279, Note_off_c, 0, 81, 0
4, 14280, Note_on_c, 0, 84, 88
4, 14319, Note_off_c, 0, 84, 0
4, 14320, Note_on_c, 0, 83, 88
4, 14359, Note_off_c, 0, 83, 0
4, 14360, Note_on_c, 0, 81, 88
4, 14399, Note_off_c, 0, 81, 0
4, 14400, Note_on_c, 0, 81, 88
4, 14439, Note_off_c, 0, 81, 0
4, 14440, Note_on_c, 0, 83, 88
4, 14479, Note_off_c, 0, 83, 0
4, 14480, Note_on_c, 0, 84, 88
4, 14519, Note_off_c, 0, 84, 0
4, 14520, Note_on_c, 0, 83, 88
4, 14676, Note_off_c, 0, 83, 0
4, 14680, Note_on_c, 0, 81, 88
4, 14719, Note_off_c, 0, 81, 0
4, 14720, Note_on_c, 0, 79, 88
4, 14759, Note_off_c, 0, 79, 0
4, 14760, Note_on_c, 0, 77, 88
4, 14799, Note_off_c, 0, 77, 0
4, 14800, Note_on_c, 0, 76, 88
4, 14839, Note_off_c, 0, 76, 0
4, 14840, Note_on_c, 0, 74, 88
4, 14879, Note_off_c, 0, 74, 0
4, 14880, Note_on_c, 0, 72, 88
4, 14919, Note_off_c, 0, 72, 0
4, 14920, Note_on_c, 0, 76, 88
4, 14959, Note_off_c, 0, 76, 0
4, 14960, Note_on_c, 0, 79, 88
4, 14999, Note_off_c, 0, 79, 0
4, 15000, Note_on_c, 0, 81, 88
4, 15039, Note_off_c, 0, 81, 0
4, 15040, Note_on_c, 0, 78, 88
4, 15079, Note_off_c, 0, 78, 0
4, 15080, Note_on_c, 0, 74, 88
4, 15119, Note_off_c, 0, 74, 0
4, 15120, Note_on_c, 0, 71, 88
4, 15159, Note_off_c, 0, 71, 0
4, 15160, Note_on_c, 0, 74, 88
4, 15199, Note_off_c, 0, 74, 0
4, 15200, Note_on_c, 0, 78, 88
4, 15239, Note_off_c, 0, 78, 0
4, 15240, Note_on_c, 0, 79, 88
4, 15279, Note_off_c, 0, 79, 0
4, 15280, Note_on_c, 0, 76, 88
4, 15319, Note_off_c, 0, 76, 0
4, 15320, Note_on_c, 0, 72, 88
4, 15359, Note_off_c, 0, 72, 0
4, 15360, Note_on_c, 0, 69, 88
4, 15399, Note_off_c, 0, 69, 0
4, 15400, Note_on_c, 0, 72, 88
4, 15439, Note_off_c, 0, 72, 0
4, 15440, Note_on_c, 0, 76, 88
4, 15479, Note_off_c, 0, 76, 0
4, 15480, Note_on_c, 0, 78, 88
4, 15519, Note_off_c, 0, 78, 0
4, 15520, Note_on_c, 0, 74, 88
4, 15559, Note_off_c, 0, 74, 0
4, 15560, Note_on_c, 0, 71, 88
4, 15599, Note_off_c, 0, 71, 0
4, 15600, Note_on_c, 0, 67, 88
4, 15639, Note_off_c, 0, 67, 0
4, 15640, Note_on_c, 0, 71, 88
4, 15679, Note_off_c, 0, 71, 0
4, 15680, Note_on_c, 0, 74, 88
4, 15719, Note_off_c, 0, 74, 0
4, 15720, Note_on_c, 0, 76, 88
4, 15759, Note_off_c, 0, 76, 0
4, 15760, Note_on_c, 0, 72, 88
4, 15799, Note_off_c, 0, 72, 0
4, 15800, Note_on_c, 0, 69, 88
4, 15839, Note_off_c, 0, 69, 0
4, 15840, Note_on_c, 0, 66, 88
4, 15879, Note_off_c, 0, 66, 0
4, 15880, Note_on_c, 0, 69, 88
4, 15919, Note_off_c, 0, 69, 0
4, 15920, Note_on_c, 0, 72, 88
4, 15959, Note_off_c, 0, 72, 0
4, 15960, Note_on_c, 0, 74, 88
4, 15999, Note_off_c, 0, 74, 0
4, 16000, Note_on_c, 0, 71, 88
4, 16039, Note_off_c, 0, 71, 0
4, 16040, Note_on_c, 0, 67, 88
4, 16079, Note_off_c, 0, 67, 0
4, 16080, Note_on_c, 0, 64, 88
4, 16119, Note_off_c, 0, 64, 0
4, 16120, Note_on_c, 0, 67, 88
4, 16159, Note_off_c, 0, 67, 0
4, 16160, Note_on_c, 0, 71, 88
4, 16199, Note_off_c, 0, 71, 0
4, 16200, Note_on_c, 0, 72, 88
4, 16239, Note_off_c, 0, 72, 0
4, 16240, Note_on_c, 0, 69, 88
4, 16279, Note_off_c, 0, 69, 0
4, 16280, Note_on_c, 0, 66, 88
4, 16319, Note_off_c, 0, 66, 0
4, 16320, Note_on_c, 0, 62, 88
4, 16359, Note_off_c, 0, 62, 0
4, 16360, Note_on_c, 0, 66, 88
4, 16399, Note_off_c, 0, 66, 0
4, 16400, Note_on_c, 0, 69, 88
4, 16439, Note_off_c, 0, 69, 0
4, 16440, Note_on_c, 0, 71, 88
4, 16479, Note_off_c, 0, 71, 0
4, 16480, Note_on_c, 0, 67, 88
4, 16519, Note_off_c, 0, 67, 0
4, 16520, Note_on_c, 0, 64, 88
4, 16559, Note_off_c, 0, 64, 0
4, 16560, Note_on_c, 0, 60, 88
4, 16599, Note_off_c, 0, 60, 0
4, 16600, Note_on_c, 0, 64, 88
4, 16639, Note_off_c, 0, 64, 0
4, 16640, Note_on_c, 0, 67, 88
4, 16679, Note_off_c, 0, 67, 0
4, 16680, Note_on_c, 0, 69, 88
4, 16719, Note_off_c, 0, 69, 0
4, 16720, Note_on_c, 0, 66, 88
4, 16759, Note_off_c, 0, 66, 0
4, 16760, Note_on_c, 0, 62, 88
4, 16799, Note_off_c, 0, 62, 0
4, 16800, Note_on_c, 0, 59, 88
4, 16839, Note_off_c, 0, 59, 0
4, 16840, Note_on_c, 0, 62, 88
4, 16879, Note_off_c, 0, 62, 0
4, 16880, Note_on_c, 0, 66, 88
4, 16919, Note_off_c, 0, 66, 0
4, 16920, Note_on_c, 0, 67, 88
4, 16959, Note_off_c, 0, 67, 0
4, 16960, Note_on_c, 0, 64, 88
4, 16999, Note_off_c, 0, 64, 0
4, 17000, Note_on_c, 0, 60, 88
4, 17039, Note_off_c, 0, 60, 0
4, 17040, Note_on_c, 0, 57, 88
4, 17079, Note_off_c, 0, 57, 0
4, 17080, Note_on_c, 0, 60, 88
4, 17119, Note_off_c, 0, 60, 0
4, 17120, Note_on_c, 0, 64, 88
4, 17159, Note_off_c, 0, 64, 0
4, 17160, Note_on_c, 0, 66, 88
4, 17199, Note_off_c, 0, 66, 0
4, 17200, Note_on_c, 0, 62, 88
4, 17239, Note_off_c, 0, 62, 0
4, 17240, Note_on_c, 0, 60, 88
4, 17279, Note_off_c, 0, 60, 0
4, 17280, Note_on_c, 0, 59, 88
4, 17280, Note_on_c, 0, 62, 88
4, 17280, Note_on_c, 0, 67, 88
4, 18225, Note_off_c, 0, 59, 0
4, 18225, Note_off_c, 0, 62, 0
4, 18225, Note_off_c, 0, 67, 0
4, 18225, End_track
5, 0, Start_track
5, 0, Title_t, "Track 2"
5, 0, Program_c, 1, 6
5, 0, Note_on_c, 1, 55, 88
5, 116, Note_off_c, 1, 55, 0
5, 120, Note_on_c, 1, 43, 88
5, 236, Note_off_c, 1, 43, 0
5, 360, Note_on_c, 1, 55, 88
5, 462, Note_off_c, 1, 55, 0
5, 480, Note_on_c, 1, 55, 88
5, 596, Note_off_c, 1, 55, 0
5, 600, Note_on_c, 1, 43, 88
5, 716, Note_off_c, 1, 43, 0
5, 840, Note_on_c, 1, 55, 88
5, 956, Note_off_c, 1, 55, 0
5, 960, Note_on_c, 1, 55, 88
5, 1076, Note_off_c, 1, 55, 0
5, 1080, Note_on_c, 1, 43, 88
5, 1196, Note_off_c, 1, 43, 0
5, 1320, Note_on_c, 1, 55, 88
5, 1422, Note_off_c, 1, 55, 0
5, 1440, Note_on_c, 1, 55, 88
5, 1556, Note_off_c, 1, 55, 0
5, 1560, Note_on_c, 1, 43, 88
5, 1676, Note_off_c, 1, 43, 0
5, 1800, Note_on_c, 1, 55, 88
5, 1916, Note_off_c, 1, 55, 0
5, 1920, Note_on_c, 1, 55, 88
5, 2036, Note_off_c, 1, 55, 0
5, 2040, Note_on_c, 1, 43, 88
5, 2156, Note_off_c, 1, 43, 0
5, 2280, Note_on_c, 1, 55, 88
5, 2396, Note_off_c, 1, 55, 0
5, 2400, Note_on_c, 1, 54, 88
5, 2439, Note_off_c, 1, 54, 0
5, 2440, Note_on_c, 1, 57, 88
5, 2479, Note_off_c, 1, 57, 0
5, 2480, Note_on_c, 1, 61, 88
5, 2519, Note_off_c, 1, 61, 0
5, 2520, Note_on_c, 1, 62, 88
5, 2559, Note_off_c, 1, 62, 0
5, 2560, Note_on_c, 1, 57, 88
5, 2599, Note_off_c, 1, 57, 0
5, 2600, Note_on_c, 1, 54, 88
5, 2639, Note_off_c, 1, 54, 0
5, 2640, Note_on_c, 1, 57, 88
5, 2679, Note_off_c, 1, 57, 0
5, 2680, Note_on_c, 1, 54, 88
5, 2719, Note_off_c, 1, 54, 0
5, 2720, Note_on_c, 1, 50, 88
5, 2759, Note_off_c, 1, 50, 0
5, 2760, Note_on_c, 1, 54, 88
5, 2799, Note_off_c, 1, 54, 0
5, 2800, Note_on_c, 1, 50, 88
5, 2839, Note_off_c, 1, 50, 0
5, 2840, Note_on_c, 1, 47, 88
5, 2879, Note_off_c, 1, 47, 0
5, 2880, Note_on_c, 1, 52, 88
5, 2996, Note_off_c, 1, 52, 0
5, 3000, Note_on_c, 1, 40, 88
5, 3116, Note_off_c, 1, 40, 0
5, 3240, Note_on_c, 1, 52, 88
5, 3356, Note_off_c, 1, 52, 0
5, 3360, Note_on_c, 1, 49, 88
5, 3476, Note_off_c, 1, 49, 0
5, 3480, Note_on_c, 1, 45, 88
5, 3596, Note_off_c, 1, 45, 0
5, 3600, Note_on_c, 1, 47, 88
5, 3716, Note_off_c, 1, 47, 0
5, 3720, Note_on_c, 1, 49, 88
5, 3836, Note_off_c, 1, 49, 0
5, 3840, Note_on_c, 1, 50, 88
5, 3879, Note_off_c, 1, 50, 0
5, 3880, Note_on_c, 1, 61, 88
5, 3919, Note_off_c, 1, 61, 0
5, 3920, Note_on_c, 1, 62, 88
5, 3959, Note_off_c, 1, 62, 0
5, 3960, Note_on_c, 1, 52, 88
5, 3999, Note_off_c, 1, 52, 0
5, 4000, Note_on_c, 1, 61, 88
5, 4039, Note_off_c, 1, 61, 0
5, 4040, Note_on_c, 1, 62, 88
5, 4079, Note_off_c, 1, 62, 0
5, 4080, Note_on_c, 1, 54, 88
5, 4119, Note_off_c, 1, 54, 0
5, 4120, Note_on_c, 1, 61, 88
5, 4159, Note_off_c, 1, 61, 0
5, 4160, Note_on_c, 1, 62, 88
5, 4199, Note_off_c, 1, 62, 0
5, 4200, Note_on_c, 1, 55, 88
5, 4239, Note_off_c, 1, 55, 0
5, 4240, Note_on_c, 1, 61, 88
5, 4279, Note_off_c, 1, 61, 0
5, 4280, Note_on_c, 1, 62, 88
5, 4319, Note_off_c, 1, 62, 0
5, 4320, Note_on_c, 1, 54, 88
5, 4359, Note_off_c, 1, 54, 0
5, 4360, Note_on_c, 1, 61, 88
5, 4399, Note_off_c, 1, 61, 0
5, 4400, Note_on_c, 1, 62, 88
5, 4439, Note_off_c, 1, 62, 0
5, 4440, Note_on_c, 1, 52, 88
5, 4479, Note_off_c, 1, 52, 0
5, 4480, Note_on_c, 1, 61, 88
5, 4519, Note_off_c, 1, 61, 0
5, 4520, Note_on_c, 1, 62, 88
5, 4559, Note_off_c, 1, 62, 0
5, 4560, Note_on_c, 1, 50, 88
5, 4599, Note_off_c, 1, 50, 0
5, 4600, Note_on_c, 1, 61, 88
5, 4639, Note_off_c, 1, 61, 0
5, 4640, Note_on_c, 1, 62, 88
5, 4679, Note_off_c, 1, 62, 0
5, 4680, Note_on_c, 1, 54, 88
5, 4719, Note_off_c, 1, 54, 0
5, 4720, Note_on_c, 1, 61, 88
5, 4759, Note_off_c, 1, 61, 0
5, 4760, Note_on_c, 1, 62, 88
5, 4799, Note_off_c, 1, 62, 0
5, 4800, Note_on_c, 1, 47, 88
5, 4916, Note_off_c, 1, 47, 0
5, 4920, Note_on_c, 1, 59, 88
5, 5036, Note_off_c, 1, 59, 0
5, 5160, Note_on_c, 1, 57, 88
5, 5276, Note_off_c, 1, 57, 0
5, 5280, Note_on_c, 1, 56, 88
5, 5396, Note_off_c, 1, 56, 0
5, 5400, Note_on_c, 1, 44, 88
5, 5516, Note_off_c, 1, 44, 0
5, 5640, Note_on_c, 1, 56, 88
5, 5756, Note_off_c, 1, 56, 0
5, 5760, Note_on_c, 1, 57, 88
5, 5799, Note_off_c, 1, 57, 0
5, 5800, Note_on_c, 1, 60, 88
5, 5839, Note_off_c, 1, 60, 0
5, 5840, Note_on_c, 1, 64, 88
5, 5879, Note_off_c, 1, 64, 0
5, 5880, Note_on_c, 1, 69, 88
5, 5919, Note_off_c, 1, 69, 0
5, 5920, Note_on_c, 1, 64, 88
5, 5959, Note_off_c, 1, 64, 0
5, 5960, Note_on_c, 1, 60, 88
5, 5999, Note_off_c, 1, 60, 0
5, 6000, Note_on_c, 1, 64, 88
5, 6039, Note_off_c, 1, 64, 0
5, 6040, Note_on_c, 1, 60, 88
5, 6079, Note_off_c, 1, 60, 0
5, 6080, Note_on_c, 1, 57, 88
5, 6119, Note_off_c, 1, 57, 0
5, 6120, Note_on_c, 1, 60, 88
5, 6159, Note_off_c, 1, 60, 0
5, 6160, Note_on_c, 1, 57, 88
5, 6199, Note_off_c, 1, 57, 0
5, 6200, Note_on_c, 1, 52, 88
5, 6239, Note_off_c, 1, 52, 0
5, 6240, Note_on_c, 1, 48, 88
5, 6279, Note_off_c, 1, 48, 0
5, 6280, Note_on_c, 1, 52, 88
5, 6319, Note_off_c, 1, 52, 0
5, 6320, Note_on_c, 1, 57, 88
5, 6359, Note_off_c, 1, 57, 0
5, 6360, Note_on_c, 1, 60, 88
5, 6399, Note_off_c, 1, 60, 0
5, 6400, Note_on_c, 1, 57, 88
5, 6439, Note_off_c, 1, 57, 0
5, 6440, Note_on_c, 1, 52, 88
5, 6479, Note_off_c, 1, 52, 0
5, 6480, Note_on_c, 1, 57, 88
5, 6519, Note_off_c, 1, 57, 0
5, 6520, Note_on_c, 1, 52, 88
5, 6559, Note_off_c, 1, 52, 0
5, 6560, Note_on_c, 1, 48, 88
5, 6599, Note_off_c, 1, 48, 0
5, 6600, Note_on_c, 1, 52, 88
5, 6639, Note_off_c, 1, 52, 0
5, 6640, Note_on_c, 1, 48, 88
5, 6679, Note_off_c, 1, 48, 0
5, 6680, Note_on_c, 1, 45, 88
5, 6719, Note_off_c, 1, 45, 0
5, 6720, Note_on_c, 1, 42, 88
5, 6836, Note_off_c, 1, 42, 0
5, 6840, Note_on_c, 1, 54, 88
5, 6956, Note_off_c, 1, 54, 0
5, 7080, Note_on_c, 1, 52, 88
5, 7196, Note_off_c, 1, 52, 0
5, 7200, Note_on_c, 1, 51, 88
5, 7316, Note_off_c, 1, 51, 0
5, 7320, Note_on_c, 1, 39, 88
5, 7436, Note_off_c, 1, 39, 0
5, 7560, Note_on_c, 1, 51, 88
5, 7676, Note_off_c, 1, 51, 0
5, 7680, Note_on_c, 1, 52, 88
5, 7719, Note_off_c, 1, 52, 0
5, 7720, Note_on_c, 1, 63, 88
5, 7759, Note_off_c, 1, 63, 0
5, 7760, Note_on_c, 1, 64, 88
5, 7799, Note_off_c, 1, 64, 0
5, 7800, Note_on_c, 1, 54, 88
5, 7839, Note_off_c, 1, 54, 0
5, 7840, Note_on_c, 1, 63, 88
5, 7879, Note_off_c, 1, 63, 0
5, 7880, Note_on_c, 1, 64, 88
5, 7919, Note_off_c, 1, 64, 0
5, 7920, Note_on_c, 1, 55, 88
5, 7959, Note_off_c, 1, 55, 0
5, 7960, Note_on_c, 1, 63, 88
5, 7999, Note_off_c, 1, 63, 0
5, 8000, Note_on_c, 1, 64, 88
5, 8039, Note_off_c, 1, 64, 0
5, 8040, Note_on_c, 1, 57, 88
5, 8079, Note_off_c, 1, 57, 0
5, 8080, Note_on_c, 1, 63, 88
5, 8119, Note_off_c, 1, 63, 0
5, 8120, Note_on_c, 1, 64, 88
5, 8159, Note_off_c, 1, 64, 0
5, 8160, Note_on_c, 1, 55, 88
5, 8199, Note_off_c, 1, 55, 0
5, 8200, Note_on_c, 1, 63, 88
5, 8239, Note_off_c, 1, 63, 0
5, 8240, Note_on_c, 1, 64, 88
5, 8279, Note_off_c, 1, 64, 0
5, 8280, Note_on_c, 1, 54, 88
5, 8319, Note_off_c, 1, 54, 0
5, 8320, Note_on_c, 1, 63, 88
5, 8359, Note_off_c, 1, 63, 0
5, 8360, Note_on_c, 1, 64, 88
5, 8399, Note_off_c, 1, 64, 0
5, 8400, Note_on_c, 1, 52, 88
5, 8439, Note_off_c, 1, 52, 0
5, 8440, Note_on_c, 1, 63, 88
5, 8479, Note_off_c, 1, 63, 0
5, 8480, Note_on_c, 1, 64, 88
5, 8519, Note_off_c, 1, 64, 0
5, 8520, Note_on_c, 1, 55, 88
5, 8559, Note_off_c, 1, 55, 0
5, 8560, Note_on_c, 1, 63, 88
5, 8599, Note_off_c, 1, 63, 0
5, 8600, Note_on_c, 1, 64, 88
5, 8639, Note_off_c, 1, 64, 0
5, 8640, Note_on_c, 1, 49, 88
5, 8756, Note_off_c, 1, 49, 0
5, 8760, Note_on_c, 1, 50, 88
5, 8876, Note_off_c, 1, 50, 0
5, 8880, Note_on_c, 1, 52, 88
5, 8996, Note_off_c, 1, 52, 0
5, 9000, Note_on_c, 1, 54, 88
5, 9116, Note_off_c, 1, 54, 0
5, 9120, Note_on_c, 1, 49, 88
5, 9236, Note_off_c, 1, 49, 0
5, 9240, Note_on_c, 1, 47, 88
5, 9356, Note_off_c, 1, 47, 0
5, 9360, Note_on_c, 1, 45, 88
5, 9476, Note_off_c, 1, 45, 0
5, 9480, Note_on_c, 1, 49, 88
5, 9596, Note_off_c, 1, 49, 0
5, 9600, Note_on_c, 1, 50, 88
5, 9639, Note_off_c, 1, 50, 0
5, 9640, Note_on_c, 1, 54, 88
5, 9679, Note_off_c, 1, 54, 0
5, 9680, Note_on_c, 1, 57, 88
5, 9719, Note_off_c, 1, 57, 0
5, 9720, Note_on_c, 1, 62, 88
5, 9759, Note_off_c, 1, 62, 0
5, 9760, Note_on_c, 1, 57, 88
5, 9799, Note_off_c, 1, 57, 0
5, 9800, Note_on_c, 1, 54, 88
5, 9839, Note_off_c, 1, 54, 0
5, 9840, Note_on_c, 1, 50, 88
5, 9956, Note_off_c, 1, 50, 0
5, 9960, Note_on_c, 1, 62, 88
5, 10076, Note_off_c, 1, 62, 0
5, 10080, Note_on_c, 1, 50, 88
5, 10119, Note_off_c, 1, 50, 0
5, 10120, Note_on_c, 1, 55, 88
5, 10159, Note_off_c, 1, 55, 0
5, 10160, Note_on_c, 1, 59, 88
5, 10199, Note_off_c, 1, 59, 0
5, 10200, Note_on_c, 1, 62, 88
5, 10239, Note_off_c, 1, 62, 0
5, 10240, Note_on_c, 1, 59, 88
5, 10279, Note_off_c, 1, 59, 0
5, 10280, Note_on_c, 1, 55, 88
5, 10319, Note_off_c, 1, 55, 0
5, 10320, Note_on_c, 1, 50, 88
5, 10436, Note_off_c, 1, 50, 0
5, 10440, Note_on_c, 1, 62, 88
5, 10556, Note_off_c, 1, 62, 0
5, 10560, Note_on_c, 1, 50, 88
5, 10599, Note_off_c, 1, 50, 0
5, 10600, Note_on_c, 1, 57, 88
5, 10639, Note_off_c, 1, 57, 0
5, 10640, Note_on_c, 1, 61, 88
5, 10679, Note_off_c, 1, 61, 0
5, 10680, Note_on_c, 1, 62, 88
5, 10719, Note_off_c, 1, 62, 0
5, 10720, Note_on_c, 1, 57, 88
5, 10759, Note_off_c, 1, 57, 0
5, 10760, Note_on_c, 1, 54, 88
5, 10799, Note_off_c, 1, 54, 0
5, 10800, Note_on_c, 1, 50, 88
5, 10916, Note_off_c, 1, 50, 0
5, 10920, Note_on_c, 1, 62, 88
5, 11036, Note_off_c, 1, 62, 0
5, 11040, Note_on_c, 1, 50, 88
5, 11079, Note_off_c, 1, 50, 0
5, 11080, Note_on_c, 1, 52, 88
5, 11119, Note_off_c, 1, 52, 0
5, 11120, Note_on_c, 1, 55, 88
5, 11159, Note_off_c, 1, 55, 0
5, 11160, Note_on_c, 1, 59, 88
5, 11199, Note_off_c, 1, 59, 0
5, 11200, Note_on_c, 1, 55, 88
5, 11239, Note_off_c, 1, 55, 0
5, 11240, Note_on_c, 1, 52, 88
5, 11279, Note_off_c, 1, 52, 0
5, 11280, Note_on_c, 1, 50, 88
5, 11396, Note_off_c, 1, 50, 0
5, 11400, Note_on_c, 1, 62, 88
5, 11516, Note_off_c, 1, 62, 0
5, 11520, Note_on_c, 1, 50, 88
5, 11559, Note_off_c, 1, 50, 0
5, 11560, Note_on_c, 1, 54, 88
5, 11599, Note_off_c, 1, 54, 0
5, 11600, Note_on_c, 1, 57, 88
5, 11639, Note_off_c, 1, 57, 0
5, 11640, Note_on_c, 1, 62, 88
5, 11679, Note_off_c, 1, 62, 0
5, 11680, Note_on_c, 1, 57, 88
5, 11719, Note_off_c, 1, 57, 0
5, 11720, Note_on_c, 1, 54, 88
5, 11759, Note_off_c, 1, 54, 0
5, 11760, Note_on_c, 1, 57, 88
5, 11799, Note_off_c, 1, 57, 0
5, 11800, Note_on_c, 1, 54, 88
5, 11839, Note_off_c, 1, 54, 0
5, 11840, Note_on_c, 1, 50, 88
5, 11879, Note_off_c, 1, 50, 0
5, 11880, Note_on_c, 1, 54, 88
5, 11919, Note_off_c, 1, 54, 0
5, 11920, Note_on_c, 1, 50, 88
5, 11959, Note_off_c, 1, 50, 0
5, 11960, Note_on_c, 1, 48, 88
5, 11999, Note_off_c, 1, 48, 0
5, 12000, Note_on_c, 1, 47, 88
5, 12039, Note_off_c, 1, 47, 0
5, 12040, Note_on_c, 1, 50, 88
5, 12079, Note_off_c, 1, 50, 0
5, 12080, Note_on_c, 1, 54, 88
5, 12119, Note_off_c, 1, 54, 0
5, 12120, Note_on_c, 1, 55, 88
5, 12159, Note_off_c, 1, 55, 0
5, 12160, Note_on_c, 1, 50, 88
5, 12199, Note_off_c, 1, 50, 0
5, 12200, Note_on_c, 1, 47, 88
5, 12239, Note_off_c, 1, 47, 0
5, 12240, Note_on_c, 1, 50, 88
5, 12279, Note_off_c, 1, 50, 0
5, 12280, Note_on_c, 1, 47, 88
5, 12319, Note_off_c, 1, 47, 0
5, 12320, Note_on_c, 1, 43, 88
5, 12359, Note_off_c, 1, 43, 0
5, 12360, Note_on_c, 1, 47, 88
5, 12399, Note_off_c, 1, 47, 0
5, 12400, Note_on_c, 1, 43, 88
5, 12439, Note_off_c, 1, 43, 0
5, 12440, Note_on_c, 1, 41, 88
5, 12479, Note_off_c, 1, 41, 0
5, 12480, Note_on_c, 1, 40, 88
5, 12519, Note_off_c, 1, 40, 0
5, 12520, Note_on_c, 1, 43, 88
5, 12559, Note_off_c, 1, 43, 0
5, 12560, Note_on_c, 1, 47, 88
5, 12599, Note_off_c, 1, 47, 0
5, 12600, Note_on_c, 1, 48, 88
5, 12639, Note_off_c, 1, 48, 0
5, 12640, Note_on_c, 1, 52, 88
5, 12679, Note_off_c, 1, 52, 0
5, 12680, Note_on_c, 1, 55, 88
5, 12719, Note_off_c, 1, 55, 0
5, 12720, Note_on_c, 1, 60, 88
5, 12759, Note_off_c, 1, 60, 0
5, 12760, Note_on_c, 1, 55, 88
5, 12799, Note_off_c, 1, 55, 0
5, 12800, Note_on_c, 1, 52, 88
5, 12839, Note_off_c, 1, 52, 0
5, 12840, Note_on_c, 1, 55, 88
5, 12879, Note_off_c, 1, 55, 0
5, 12880, Note_on_c, 1, 52, 88
5, 12919, Note_off_c, 1, 52, 0
5, 12920, Note_on_c, 1, 50, 88
5, 12959, Note_off_c, 1, 50, 0
5, 12960, Note_on_c, 1, 49, 88
5, 12999, Note_off_c, 1, 49, 0
5, 13000, Note_on_c, 1, 52, 88
5, 13039, Note_off_c, 1, 52, 0
5, 13040, Note_on_c, 1, 55, 88
5, 13079, Note_off_c, 1, 55, 0
5, 13080, Note_on_c, 1, 57, 88
5, 13119, Note_off_c, 1, 57, 0
5, 13120, Note_on_c, 1, 52, 88
5, 13159, Note_off_c, 1, 52, 0
5, 13160, Note_on_c, 1, 49, 88
5, 13199, Note_off_c, 1, 49, 0
5, 13200, Note_on_c, 1, 52, 88
5, 13239, Note_off_c, 1, 52, 0
5, 13240, Note_on_c, 1, 49, 88
5, 13279, Note_off_c, 1, 49, 0
5, 13280, Note_on_c, 1, 45, 88
5, 13319, Note_off_c, 1, 45, 0
5, 13320, Note_on_c, 1, 49, 88
5, 13359, Note_off_c, 1, 49, 0
5, 13360, Note_on_c, 1, 45, 88
5, 13399, Note_off_c, 1, 45, 0
5, 13400, Note_on_c, 1, 43, 88
5, 13439, Note_off_c, 1, 43, 0
5, 13440, Note_on_c, 1, 42, 88
5, 13479, Note_off_c, 1, 42, 0
5, 13480, Note_on_c, 1, 45, 88
5, 13519, Note_off_c, 1, 45, 0
5, 13520, Note_on_c, 1, 49, 88
5, 13559, Note_off_c, 1, 49, 0
5, 13560, Note_on_c, 1, 50, 88
5, 13599, Note_off_c, 1, 50, 0
5, 13600, Note_on_c, 1, 54, 88
5, 13639, Note_off_c, 1, 54, 0
5, 13640, Note_on_c, 1, 57, 88
5, 13679, Note_off_c, 1, 57, 0
5, 13680, Note_on_c, 1, 62, 88
5, 13719, Note_off_c, 1, 62, 0
5, 13720, Note_on_c, 1, 57, 88
5, 13759, Note_off_c, 1, 57, 0
5, 13760, Note_on_c, 1, 54, 88
5, 13799, Note_off_c, 1, 54, 0
5, 13800, Note_on_c, 1, 57, 88
5, 13839, Note_off_c, 1, 57, 0
5, 13840, Note_on_c, 1, 54, 88
5, 13879, Note_off_c, 1, 54, 0
5, 13880, Note_on_c, 1, 50, 88
5, 13919, Note_off_c, 1, 50, 0
5, 13920, Note_on_c, 1, 54, 88
5, 13959, Note_off_c, 1, 54, 0
5, 13960, Note_on_c, 1, 50, 88
5, 13999, Note_off_c, 1, 50, 0
5, 14000, Note_on_c, 1, 45, 88
5, 14039, Note_off_c, 1, 45, 0
5, 14040, Note_on_c, 1, 50, 88
5, 14079, Note_off_c, 1, 50, 0
5, 14080, Note_on_c, 1, 45, 88
5, 14119, Note_off_c, 1, 45, 0
5, 14120, Note_on_c, 1, 42, 88
5, 14159, Note_off_c, 1, 42, 0
5, 14160, Note_on_c, 1, 38, 88
5, 14276, Note_off_c, 1, 38, 0
5, 14280, Note_on_c, 1, 50, 88
5, 14396, Note_off_c, 1, 50, 0
5, 14400, Note_on_c, 1, 43, 88
5, 14556, Note_off_c, 1, 43, 0
5, 14560, Note_on_c, 1, 47, 88
5, 14599, Note_off_c, 1, 47, 0
5, 14600, Note_on_c, 1, 50, 88
5, 14639, Note_off_c, 1, 50, 0
5, 14640, Note_on_c, 1, 55, 88
5, 14679, Note_off_c, 1, 55, 0
5, 14680, Note_on_c, 1, 57, 88
5, 14719, Note_off_c, 1, 57, 0
5, 14720, Note_on_c, 1, 59, 88
5, 14742, Note_off_c, 1, 59, 0
5, 14760, Note_on_c, 1, 59, 88
5, 14799, Note_off_c, 1, 59, 0
5, 14800, Note_on_c, 1, 60, 88
5, 14839, Note_off_c, 1, 60, 0
5, 14840, Note_on_c, 1, 62, 88
5, 14879, Note_off_c, 1, 62, 0
5, 14880, Note_on_c, 1, 64, 88
5, 14996, Note_off_c, 1, 64, 0
5, 15000, Note_on_c, 1, 60, 88
5, 15039, Note_off_c, 1, 60, 0
5, 15040, Note_on_c, 1, 57, 88
5, 15079, Note_off_c, 1, 57, 0
5, 15080, Note_on_c, 1, 54, 88
5, 15119, Note_off_c, 1, 54, 0
5, 15120, Note_on_c, 1, 62, 88
5, 15236, Note_off_c, 1, 62, 0
5, 15240, Note_on_c, 1, 59, 88
5, 15279, Note_off_c, 1, 59, 0
5, 15280, Note_on_c, 1, 55, 88
5, 15319, Note_off_c, 1, 55, 0
5, 15320, Note_on_c, 1, 52, 88
5, 15359, Note_off_c, 1, 52, 0
5, 15360, Note_on_c, 1, 60, 88
5, 15476, Note_off_c, 1, 60, 0
5, 15480, Note_on_c, 1, 57, 88
5, 15519, Note_off_c, 1, 57, 0
5, 15520, Note_on_c, 1, 54, 88
5, 15559, Note_off_c, 1, 54, 0
5, 15560, Note_on_c, 1, 50, 88
5, 15599, Note_off_c, 1, 50, 0
5, 15600, Note_on_c, 1, 59, 88
5, 15716, Note_off_c, 1, 59, 0
5, 15720, Note_on_c, 1, 55, 88
5, 15759, Note_off_c, 1, 55, 0
5, 15760, Note_on_c, 1, 52, 88
5, 15799, Note_off_c, 1, 52, 0
5, 15800, Note_on_c, 1, 48, 88
5, 15839, Note_off_c, 1, 48, 0
5, 15840, Note_on_c, 1, 57, 88
5, 15956, Note_off_c, 1, 57, 0
5, 15960, Note_on_c, 1, 54, 88
5, 15999, Note_off_c, 1, 54, 0
5, 16000, Note_on_c, 1, 50, 88
5, 16039, Note_off_c, 1, 50, 0
5, 16040, Note_on_c, 1, 47, 88
5, 16079, Note_off_c, 1, 47, 0
5, 16080, Note_on_c, 1, 55, 88
5, 16196, Note_off_c, 1, 55, 0
5, 16200, Note_on_c, 1, 52, 88
5, 16239, Note_off_c, 1, 52, 0
5, 16240, Note_on_c, 1, 48, 88
5, 16279, Note_off_c, 1, 48, 0
5, 16280, Note_on_c, 1, 45, 88
5, 16319, Note_off_c, 1, 45, 0
5, 16320, Note_on_c, 1, 54, 88
5, 16436, Note_off_c, 1, 54, 0
5, 16440, Note_on_c, 1, 50, 88
5, 16479, Note_off_c, 1, 50, 0
5, 16480, Note_on_c, 1, 47, 88
5, 16519, Note_off_c, 1, 47, 0
5, 16520, Note_on_c, 1, 43, 88
5, 16559, Note_off_c, 1, 43, 0
5, 16560, Note_on_c, 1, 52, 88
5, 16599, Note_off_c, 1, 52, 0
5, 16600, Note_on_c, 1, 48, 88
5, 16639, Note_off_c, 1, 48, 0
5, 16640, Note_on_c, 1, 45, 88
5, 16679, Note_off_c, 1, 45, 0
5, 16680, Note_on_c, 1, 54, 88
5, 16719, Note_off_c, 1, 54, 0
5, 16720, Note_on_c, 1, 50, 88
5, 16759, Note_off_c, 1, 50, 0
5, 16760, Note_on_c, 1, 47, 88
5, 16799, Note_off_c, 1, 47, 0
5, 16800, Note_on_c, 1, 55, 88
5, 16916, Note_off_c, 1, 55, 0
5, 16920, Note_on_c, 1, 52, 88
5, 17036, Note_off_c, 1, 52, 0
5, 17040, Note_on_c, 1, 48, 88
5, 17156, Note_off_c, 1, 48, 0
5, 17160, Note_on_c, 1, 50, 88
5, 17276, Note_off_c, 1, 50, 0
5, 17280, Note_on_c, 1, 43, 88
5, 18225, Note_off_c, 1, 43, 0
5, 18225, End_track
0, 0, End_of_file
