0, 0, Header, 1, 7, 240
1, 0, Start_track
1, 0, Time_signature, 2, 1, 24, 8
1, 0, Tempo, 500000
1, 0, SMPTE_offset, 64, 0, 0, 0, 93
1, 0, End_track
2, 0, Start_track
2, 0, Title_t, "(C) & (P) 1993"
2, 127, End_track
3, 0, Start_track
3, 0, Title_t, "CCARH,Stanford"
3, 0, End_track
4, 0, Start_track
4, 0, Title_t, "Track 1"
4, 0, Program_c, 0, 6
4, 0, Note_on_c, 0, 62, 88
4, 116, Note_off_c, 0, 62, 0
4, 120, Note_on_c, 0, 66, 88
4, 236, Note_off_c, 0, 66, 0
4, 240, Note_on_c, 0, 59, 88
4, 356, Note_off_c, 0, 59, 0
4, 360, Note_on_c, 0, 61, 88
4, 476, Note_off_c, 0, 61, 0
4, 480, Note_on_c, 0, 62, 88
4, 596, Note_off_c, 0, 62, 0
4, 600, Note_on_c, 0, 66, 88
4, 716, Note_off_c, 0, 66, 0
4, 720, Note_on_c, 0, 59, 88
4, 836, Note_off_c, 0, 59, 0
4, 840, Note_on_c, 0, 62, 88
4, 956, Note_off_c, 0, 62, 0
4, 960, Note_on_c, 0, 61, 88
4, 1076, Note_off_c, 0, 61, 0
4, 1080, Note_on_c, 0, 66, 88
4, 1196, Note_off_c, 0, 66, 0
4, 1200, Note_on_c, 0, 67, 88
4, 1258, Note_off_c, 0, 67, 0
4, 1260, Note_on_c, 0, 66, 88
4, 1318, Note_off_c, 0, 66, 0
4, 1320, Note_on_c, 0, 65, 88
4, 1378, Note_off_c, 0, 65, 0
4, 1380, Note_on_c, 0, 66, 88
4, 1438, Note_off_c, 0, 66, 0
4, 1440, Note_on_c, 0, 70, 88
4, 1556, Note_off_c, 0, 70, 0
4, 1560, Note_on_c, 0, 66, 88
4, 1676, Note_off_c, 0, 66, 0
4, 1680, Note_on_c, 0, 73, 88
4, 1796, Note_off_c, 0, 73, 0
4, 1800, Note_on_c, 0, 64, 88
4, 1916, Note_off_c, 0, 64, 0
4, 1920, Note_on_c, 0, 62, 88
4, 2036, Note_off_c, 0, 62, 0
4, 2040, Note_on_c, 0, 66, 88
4, 2156, Note_off_c, 0, 66, 0
4, 2160, Note_on_c, 0, 59, 88
4, 2276, Note_off_c, 0, 59, 0
4, 2280, Note_on_c, 0, 61, 88
4, 2396, Note_off_c, 0, 61, 0
4, 2400, Note_on_c, 0, 62, 88
4, 2516, Note_off_c, 0, 62, 0
4, 2520, Note_on_c, 0, 66, 88
4, 2636, Note_off_c, 0, 66, 0
4, 2640, Note_on_c, 0, 59, 88
4, 2756, Note_off_c, 0, 59, 0
4, 2760, Note_on_c, 0, 62, 88
4, 2876, Note_off_c, 0, 62, 0
4, 2880, Note_on_c, 0, 61, 88
4, 2996, Note_off_c, 0, 61, 0
4, 3000, Note_on_c, 0, 66, 88
4, 3116, Note_off_c, 0, 66, 0
4, 3120, Note_on_c, 0, 61, 88
4, 3236, Note_off_c, 0, 61, 0
4, 3240, Note_on_c, 0, 58, 88
4, 3356, Note_off_c, 0, 58, 0
4, 3360, Note_on_c, 0, 54, 88
4, 3476, Note_off_c, 0, 54, 0
4, 4080, Note_on_c, 0, 74, 88
4, 4314, Note_off_c, 0, 74, 0
4, 4320, Note_on_c, 0, 71, 88
4, 4554, Note_off_c, 0, 71, 0
4, 4560, Note_on_c, 0, 66, 88
4, 4794, Note_off_c, 0, 66, 0
4, 5040, Note_on_c, 0, 76, 88
4, 5274, Note_off_c, 0, 76, 0
4, 5280, Note_on_c, 0, 73, 88
4, 5514, Note_off_c, 0, 73, 0
4, 5520, Note_on_c, 0, 66, 88
4, 5754, Note_off_c, 0, 66, 0
4, 6000, Note_on_c, 0, 78, 88
4, 6353, Note_off_c, 0, 78, 0
4, 6360, Note_on_c, 0, 76, 88
4, 6418, Note_off_c, 0, 76, 0
4, 6420, Note_on_c, 0, 74, 88
4, 6478, Note_off_c, 0, 74, 0
4, 6480, Note_on_c, 0, 76, 88
4, 6538, Note_off_c, 0, 76, 0
4, 6540, Note_on_c, 0, 74, 88
4, 6598, Note_off_c, 0, 74, 0
4, 6600, Note_on_c, 0, 73, 88
4, 6658, Note_off_c, 0, 73, 0
4, 6660, Note_on_c, 0, 71, 88
4, 6718, Note_off_c, 0, 71, 0
4, 6720, Note_on_c, 0, 71, 88
4, 6954, Note_off_c, 0, 71, 0
4, 6960, Note_on_c, 0, 70, 88
4, 7194, Note_off_c, 0, 70, 0
4, 7320, Note_on_c, 0, 64, 88
4, 7378, Note_off_c, 0, 64, 0
4, 7380, Note_on_c, 0, 62, 88
4, 7438, Note_off_c, 0, 62, 0
4, 7440, Note_on_c, 0, 61, 88
4, 7498, Note_off_c, 0, 61, 0
4, 7500, Note_on_c, 0, 62, 88
4, 7558, Note_off_c, 0, 62, 0
4, 7560, Note_on_c, 0, 64, 88
4, 7676, Note_off_c, 0, 64, 0
4, 7680, Note_on_c, 0, 62, 88
4, 7796, Note_off_c, 0, 62, 0
4, 7800, Note_on_c, 0, 71, 88
4, 7858, Note_off_c, 0, 71, 0
4, 7860, Note_on_c, 0, 73, 88
4, 7918, Note_off_c, 0, 73, 0
4, 7920, Note_on_c, 0, 74, 88
4, 7978, Note_off_c, 0, 74, 0
4, 7980, Note_on_c, 0, 73, 88
4, 8038, Note_off_c, 0, 73, 0
4, 8040, Note_on_c, 0, 71, 88
4, 8274, Note_off_c, 0, 71, 0
4, 8280, Note_on_c, 0, 78, 88
4, 8514, Note_off_c, 0, 78, 0
4, 8520, Note_on_c, 0, 69, 88
4, 8756, Note_off_c, 0, 69, 0
4, 8760, Note_on_c, 0, 71, 88
4, 8818, Note_off_c, 0, 71, 0
4, 8820, Note_on_c, 0, 69, 88
4, 8878, Note_off_c, 0, 69, 0
4, 8880, Note_on_c, 0, 68, 88
4, 8938, Note_off_c, 0, 68, 0
4, 8940, Note_on_c, 0, 69, 88
4, 8998, Note_off_c, 0, 69, 0
4, 9000, Note_on_c, 0, 71, 88
4, 9234, Note_off_c, 0, 71, 0
4, 9240, Note_on_c, 0, 62, 88
4, 9474, Note_off_c, 0, 62, 0
4, 9480, Note_on_c, 0, 71, 88
4, 9596, Note_off_c, 0, 71, 0
4, 9600, Note_on_c, 0, 61, 88
4, 9716, Note_off_c, 0, 61, 0
4, 9720, Note_on_c, 0, 69, 88
4, 9778, Note_off_c, 0, 69, 0
4, 9780, Note_on_c, 0, 71, 88
4, 9838, Note_off_c, 0, 71, 0
4, 9840, Note_on_c, 0, 73, 88
4, 9898, Note_off_c, 0, 73, 0
4, 9900, Note_on_c, 0, 71, 88
4, 9958, Note_off_c, 0, 71, 0
4, 9960, Note_on_c, 0, 69, 88
4, 10194, Note_off_c, 0, 69, 0
4, 10200, Note_on_c, 0, 76, 88
4, 10434, Note_off_c, 0, 76, 0
4, 10440, Note_on_c, 0, 67, 88
4, 10676, Note_off_c, 0, 67, 0
4, 10680, Note_on_c, 0, 69, 88
4, 10738, Note_off_c, 0, 69, 0
4, 10740, Note_on_c, 0, 67, 88
4, 10798, Note_off_c, 0, 67, 0
4, 10800, Note_on_c, 0, 66, 88
4, 10858, Note_off_c, 0, 66, 0
4, 10860, Note_on_c, 0, 67, 88
4, 10918, Note_off_c, 0, 67, 0
4, 10920, Note_on_c, 0, 69, 88
4, 11154, Note_off_c, 0, 69, 0
4, 11160, Note_on_c, 0, 61, 88
4, 11394, Note_off_c, 0, 61, 0
4, 11400, Note_on_c, 0, 69, 88
4, 11516, Note_off_c, 0, 69, 0
4, 11520, Note_on_c, 0, 59, 88
4, 11636, Note_off_c, 0, 59, 0
4, 11640, Note_on_c, 0, 66, 88
4, 11874, Note_off_c, 0, 66, 0
4, 11880, Note_on_c, 0, 69, 88
4, 12114, Note_off_c, 0, 69, 0
4, 12120, Note_on_c, 0, 67, 88
4, 12178, Note_off_c, 0, 67, 0
4, 12180, Note_on_c, 0, 66, 88
4, 12238, Note_off_c, 0, 66, 0
4, 12240, Note_on_c, 0, 67, 88
4, 12298, Note_off_c, 0, 67, 0
4, 12300, Note_on_c, 0, 66, 88
4, 12358, Note_off_c, 0, 66, 0
4, 12360, Note_on_c, 0, 64, 88
4, 12418, Note_off_c, 0, 64, 0
4, 12420, Note_on_c, 0, 62, 88
4, 12478, Note_off_c, 0, 62, 0
4, 12480, Note_on_c, 0, 61, 88
4, 12596, Note_off_c, 0, 61, 0
4, 12600, Note_on_c, 0, 67, 88
4, 12834, Note_off_c, 0, 67, 0
4, 12840, Note_on_c, 0, 71, 88
4, 13074, Note_off_c, 0, 71, 0
4, 13080, Note_on_c, 0, 69, 88
4, 13138, Note_off_c, 0, 69, 0
4, 13140, Note_on_c, 0, 67, 88
4, 13198, Note_off_c, 0, 67, 0
4, 13200, Note_on_c, 0, 69, 88
4, 13258, Note_off_c, 0, 69, 0
4, 13260, Note_on_c, 0, 67, 88
4, 13318, Note_off_c, 0, 67, 0
4, 13320, Note_on_c, 0, 66, 88
4, 13378, Note_off_c, 0, 66, 0
4, 13380, Note_on_c, 0, 64, 88
4, 13438, Note_off_c, 0, 64, 0
4, 13440, Note_on_c, 0, 62, 88
4, 13556, Note_off_c, 0, 62, 0
4, 13560, Note_on_c, 0, 69, 88
4, 13794, Note_off_c, 0, 69, 0
4, 13800, Note_on_c, 0, 72, 88
4, 14034, Note_off_c, 0, 72, 0
4, 14040, Note_on_c, 0, 71, 88
4, 14098, Note_off_c, 0, 71, 0
4, 14100, Note_on_c, 0, 69, 88
4, 14158, Note_off_c, 0, 69, 0
4, 14160, Note_on_c, 0, 71, 88
4, 14218, Note_off_c, 0, 71, 0
4, 14220, Note_on_c, 0, 69, 88
4, 14278, Note_off_c, 0, 69, 0
4, 14280, Note_on_c, 0, 67, 88
4, 14338, Note_off_c, 0, 67, 0
4, 14340, Note_on_c, 0, 66, 88
4, 14398, Note_off_c, 0, 66, 0
4, 14400, Note_on_c, 0, 64, 88
4, 14516, Note_off_c, 0, 64, 0
4, 14520, Note_on_c, 0, 71, 88
4, 14754, Note_off_c, 0, 71, 0
4, 14760, Note_on_c, 0, 74, 88
4, 14994, Note_off_c, 0, 74, 0
4, 15000, Note_on_c, 0, 73, 88
4, 15058, Note_off_c, 0, 73, 0
4, 15060, Note_on_c, 0, 71, 88
4, 15118, Note_off_c, 0, 71, 0
4, 15120, Note_on_c, 0, 73, 88
4, 15178, Note_off_c, 0, 73, 0
4, 15180, Note_on_c, 0, 71, 88
4, 15238, Note_off_c, 0, 71, 0
4, 15240, Note_on_c, 0, 69, 88
4, 15298, Note_off_c, 0, 69, 0
4, 15300, Note_on_c, 0, 67, 88
4, 15358, Note_off_c, 0, 67, 0
4, 15360, Note_on_c, 0, 66, 88
4, 15476, Note_off_c, 0, 66, 0
4, 15480, Note_on_c, 0, 69, 88
4, 15596, Note_off_c, 0, 69, 0
4, 15600, Note_on_c, 0, 62, 88
4, 15716, Note_off_c, 0, 62, 0
4, 15720, Note_on_c, 0, 64, 88
4, 15836, Note_off_c, 0, 64, 0
4, 15840, Note_on_c, 0, 66, 88
4, 15956, Note_off_c, 0, 66, 0
4, 15960, Note_on_c, 0, 69, 88
4, 16076, Note_off_c, 0, 69, 0
4, 16080, Note_on_c, 0, 62, 88
4, 16196, Note_off_c, 0, 62, 0
4, 16200, Note_on_c, 0, 66, 88
4, 16316, Note_off_c, 0, 66, 0
4, 16320, Note_on_c, 0, 64, 88
4, 16436, Note_off_c, 0, 64, 0
4, 16440, Note_on_c, 0, 69, 88
4, 16556, Note_off_c, 0, 69, 0
4, 16560, Note_on_c, 0, 71, 88
4, 16618, Note_off_c, 0, 71, 0
4, 16620, Note_on_c, 0, 69, 88
4, 16678, Note_off_c, 0, 69, 0
4, 16680, Note_on_c, 0, 68, 88
4, 16738, Note_off_c, 0, 68, 0
4, 16740, Note_on_c, 0, 69, 88
4, 16798, Note_off_c, 0, 69, 0
4, 16800, Note_on_c, 0, 73, 88
4, 16916, Note_off_c, 0, 73, 0
4, 16920, Note_on_c, 0, 69, 88
4, 17036, Note_off_c, 0, 69, 0
4, 17040, Note_on_c, 0, 76, 88
4, 17156, Note_off_c, 0, 76, 0
4, 17160, Note_on_c, 0, 67, 88
4, 17276, Note_off_c, 0, 67, 0
4, 17280, Note_on_c, 0, 66, 88
4, 17396, Note_off_c, 0, 66, 0
4, 17400, Note_on_c, 0, 69, 88
4, 17516, Note_off_c, 0, 69, 0
4, 17520, Note_on_c, 0, 62, 88
4, 17636, Note_off_c, 0, 62, 0
4, 17640, Note_on_c, 0, 64, 88
4, 17756, Note_off_c, 0, 64, 0
4, 17760, Note_on_c, 0, 66, 88
4, 17876, Note_off_c, 0, 66, 0
4, 17880, Note_on_c, 0, 69, 88
4, 17996, Note_off_c, 0, 69, 0
4, 18000, Note_on_c, 0, 62, 88
4, 18116, Note_off_c, 0, 62, 0
4, 18120, Note_on_c, 0, 66, 88
4, 18236, Note_off_c, 0, 66, 0
4, 18240, Note_on_c, 0, 64, 88
4, 18356, Note_off_c, 0, 64, 0
4, 18360, Note_on_c, 0, 69, 88
4, 18476, Note_off_c, 0, 69, 0
4, 18480, Note_on_c, 0, 64, 88
4, 18596, Note_off_c, 0, 64, 0
4, 18600, Note_on_c, 0, 61, 88
4, 18716, Note_off_c, 0, 61, 0
4, 18720, Note_on_c, 0, 57, 88
4, 18836, Note_off_c, 0, 57, 0
4, 19440, Note_on_c, 0, 69, 88
4, 19674, Note_off_c, 0, 69, 0
4, 19680, Note_on_c, 0, 71, 88
4, 19738, Note_off_c, 0, 71, 0
4, 19740, Note_on_c, 0, 69, 88
4, 19798, Note_off_c, 0, 69, 0
4, 19800, Note_on_c, 0, 68, 88
4, 19858, Note_off_c, 0, 68, 0
4, 19860, Note_on_c, 0, 69, 88
4, 19918, Note_off_c, 0, 69, 0
4, 19920, Note_on_c, 0, 78, 88
4, 20154, Note_off_c, 0, 78, 0
4, 20400, Note_on_c, 0, 69, 88
4, 20634, Note_off_c, 0, 69, 0
4, 20640, Note_on_c, 0, 71, 88
4, 20698, Note_off_c, 0, 71, 0
4, 20700, Note_on_c, 0, 69, 88
4, 20758, Note_off_c, 0, 69, 0
4, 20760, Note_on_c, 0, 68, 88
4, 20818, Note_off_c, 0, 68, 0
4, 20820, Note_on_c, 0, 69, 88
4, 20878, Note_off_c, 0, 69, 0
4, 20880, Note_on_c, 0, 79, 88
4, 21114, Note_off_c, 0, 79, 0
4, 21360, Note_on_c, 0, 69, 88
4, 21594, Note_off_c, 0, 69, 0
4, 21600, Note_on_c, 0, 71, 88
4, 21658, Note_off_c, 0, 71, 0
4, 21660, Note_on_c, 0, 69, 88
4, 21718, Note_off_c, 0, 69, 0
4, 21720, Note_on_c, 0, 68, 88
4, 21778, Note_off_c, 0, 68, 0
4, 21780, Note_on_c, 0, 69, 88
4, 21838, Note_off_c, 0, 69, 0
4, 21840, Note_on_c, 0, 81, 88
4, 21956, Note_off_c, 0, 81, 0
4, 21960, Note_on_c, 0, 74, 88
4, 22076, Note_off_c, 0, 74, 0
4, 22080, Note_on_c, 0, 74, 88
4, 22314, Note_off_c, 0, 74, 0
4, 22320, Note_on_c, 0, 73, 88
4, 22614, Note_off_c, 0, 73, 0
4, 22620, Note_on_c, 0, 71, 88
4, 22678, Note_off_c, 0, 71, 0
4, 22680, Note_on_c, 0, 73, 88
4, 22738, Note_off_c, 0, 73, 0
4, 22740, Note_on_c, 0, 75, 88
4, 22798, Note_off_c, 0, 75, 0
4, 22800, Note_on_c, 0, 76, 88
4, 22858, Note_off_c, 0, 76, 0
4, 22860, Note_on_c, 0, 75, 88
4, 22918, Note_off_c, 0, 75, 0
4, 22920, Note_on_c, 0, 73, 88
4, 22978, Note_off_c, 0, 73, 0
4, 22980, Note_on_c, 0, 75, 88
4, 23038, Note_off_c, 0, 75, 0
4, 23040, Note_on_c, 0, 76, 88
4, 23156, Note_off_c, 0, 76, 0
4, 23160, Note_on_c, 0, 79, 88
4, 23276, Note_off_c, 0, 79, 0
4, 23280, Note_on_c, 0, 71, 88
4, 23396, Note_off_c, 0, 71, 0
4, 23400, Note_on_c, 0, 75, 88
4, 23516, Note_off_c, 0, 75, 0
4, 23520, Note_on_c, 0, 76, 88
4, 23636, Note_off_c, 0, 76, 0
4, 23640, Note_on_c, 0, 79, 88
4, 23756, Note_off_c, 0, 79, 0
4, 23760, Note_on_c, 0, 71, 88
4, 23876, Note_off_c, 0, 71, 0
4, 23880, Note_on_c, 0, 76, 88
4, 23996, Note_off_c, 0, 76, 0
4, 24000, Note_on_c, 0, 76, 88
4, 24234, Note_off_c, 0, 76, 0
4, 24240, Note_on_c, 0, 75, 88
4, 24356, Note_off_c, 0, 75, 0
4, 24360, Note_on_c, 0, 78, 88
4, 24476, Note_off_c, 0, 78, 0
4, 24480, Note_on_c, 0, 71, 88
4, 24714, Note_off_c, 0, 71, 0
4, 24720, Note_on_c, 0, 69, 88
4, 24836, Note_off_c, 0, 69, 0
4, 24840, Note_on_c, 0, 78, 88
4, 24956, Note_off_c, 0, 78, 0
4, 24960, Note_on_c, 0, 78, 88
4, 25018, Note_off_c, 0, 78, 0
4, 25020, Note_on_c, 0, 76, 88
4, 25078, Note_off_c, 0, 76, 0
4, 25080, Note_on_c, 0, 75, 88
4, 25196, Note_off_c, 0, 75, 0
4, 25200, Note_on_c, 0, 76, 88
4, 25316, Note_off_c, 0, 76, 0
4, 25320, Note_on_c, 0, 69, 88
4, 25425, Note_off_c, 0, 69, 0
4, 25440, Note_on_c, 0, 69, 88
4, 25674, Note_off_c, 0, 69, 0
4, 25680, Note_on_c, 0, 67, 88
4, 25796, Note_off_c, 0, 67, 0
4, 25800, Note_on_c, 0, 76, 88
4, 25916, Note_off_c, 0, 76, 0
4, 25920, Note_on_c, 0, 76, 88
4, 26036, Note_off_c, 0, 76, 0
4, 26040, Note_on_c, 0, 75, 88
4, 26156, Note_off_c, 0, 75, 0
4, 26160, Note_on_c, 0, 81, 88
4, 26454, Note_off_c, 0, 81, 0
4, 26460, Note_on_c, 0, 79, 88
4, 26518, Note_off_c, 0, 79, 0
4, 26520, Note_on_c, 0, 78, 88
4, 26578, Note_off_c, 0, 78, 0
4, 26580, Note_on_c, 0, 76, 88
4, 26638, Note_off_c, 0, 76, 0
4, 26640, Note_on_c, 0, 75, 88
4, 26698, Note_off_c, 0, 75, 0
4, 26700, Note_on_c, 0, 73, 88
4, 26758, Note_off_c, 0, 73, 0
4, 26760, Note_on_c, 0, 71, 88
4, 26818, Note_off_c, 0, 71, 0
4, 26820, Note_on_c, 0, 69, 88
4, 26878, Note_off_c, 0, 69, 0
4, 26880, Note_on_c, 0, 67, 88
4, 26996, Note_off_c, 0, 67, 0
4, 27000, Note_on_c, 0, 71, 88
4, 27116, Note_off_c, 0, 71, 0
4, 27120, Note_on_c, 0, 64, 88
4, 27236, Note_off_c, 0, 64, 0
4, 27240, Note_on_c, 0, 66, 88
4, 27356, Note_off_c, 0, 66, 0
4, 27360, Note_on_c, 0, 67, 88
4, 27476, Note_off_c, 0, 67, 0
4, 27480, Note_on_c, 0, 71, 88
4, 27596, Note_off_c, 0, 71, 0
4, 27600, Note_on_c, 0, 64, 88
4, 27716, Note_off_c, 0, 64, 0
4, 27720, Note_on_c, 0, 67, 88
4, 27836, Note_off_c, 0, 67, 0
4, 27840, Note_on_c, 0, 66, 88
4, 27956, Note_off_c, 0, 66, 0
4, 27960, Note_on_c, 0, 71, 88
4, 28076, Note_off_c, 0, 71, 0
4, 28080, Note_on_c, 0, 72, 88
4, 28138, Note_off_c, 0, 72, 0
4, 28140, Note_on_c, 0, 71, 88
4, 28198, Note_off_c, 0, 71, 0
4, 28200, Note_on_c, 0, 70, 88
4, 28258, Note_off_c, 0, 70, 0
4, 28260, Note_on_c, 0, 71, 88
4, 28318, Note_off_c, 0, 71, 0
4, 28320, Note_on_c, 0, 75, 88
4, 28436, Note_off_c, 0, 75, 0
4, 28440, Note_on_c, 0, 71, 88
4, 28556, Note_off_c, 0, 71, 0
4, 28560, Note_on_c, 0, 78, 88
4, 28676, Note_off_c, 0, 78, 0
4, 28680, Note_on_c, 0, 69, 88
4, 28796, Note_off_c, 0, 69, 0
4, 28800, Note_on_c, 0, 67, 88
4, 28916, Note_off_c, 0, 67, 0
4, 28920, Note_on_c, 0, 71, 88
4, 29036, Note_off_c, 0, 71, 0
4, 29040, Note_on_c, 0, 64, 88
4, 29156, Note_off_c, 0, 64, 0
4, 29160, Note_on_c, 0, 66, 88
4, 29276, Note_off_c, 0, 66, 0
4, 29280, Note_on_c, 0, 67, 88
4, 29396, Note_off_c, 0, 67, 0
4, 29400, Note_on_c, 0, 71, 88
4, 29516, Note_off_c, 0, 71, 0
4, 29520, Note_on_c, 0, 64, 88
4, 29636, Note_off_c, 0, 64, 0
4, 29640, Note_on_c, 0, 67, 88
4, 29756, Note_off_c, 0, 67, 0
4, 29760, Note_on_c, 0, 66, 88
4, 29876, Note_off_c, 0, 66, 0
4, 29880, Note_on_c, 0, 71, 88
4, 29996, Note_off_c, 0, 71, 0
4, 30000, Note_on_c, 0, 66, 88
4, 30116, Note_off_c, 0, 66, 0
4, 30120, Note_on_c, 0, 63, 88
4, 30236, Note_off_c, 0, 63, 0
4, 30240, Note_on_c, 0, 59, 88
4, 30474, Note_off_c, 0, 59, 0
4, 30480, Note_on_c, 0, 75, 88
4, 30714, Note_off_c, 0, 75, 0
4, 30720, Note_on_c, 0, 76, 88
4, 30954, Note_off_c, 0, 76, 0
4, 30960, Note_on_c, 0, 71, 88
4, 31194, Note_off_c, 0, 71, 0
4, 31200, Note_on_c, 0, 79, 88
4, 31258, Note_off_c, 0, 79, 0
4, 31260, Note_on_c, 0, 78, 88
4, 31318, Note_off_c, 0, 78, 0
4, 31320, Note_on_c, 0, 76, 88
4, 31378, Note_off_c, 0, 76, 0
4, 31380, Note_on_c, 0, 78, 88
4, 31438, Note_off_c, 0, 78, 0
4, 31440, Note_on_c, 0, 79, 88
4, 31556, Note_off_c, 0, 79, 0
4, 31560, Note_on_c, 0, 71, 88
4, 31676, Note_off_c, 0, 71, 0
4, 31680, Note_on_c, 0, 71, 88
4, 31709, Note_off_c, 0, 71, 0
4, 31710, Note_on_c, 0, 69, 88
4, 31739, Note_off_c, 0, 69, 0
4, 31740, Note_on_c, 0, 71, 88
4, 31769, Note_off_c, 0, 71, 0
4, 31770, Note_on_c, 0, 69, 88
4, 31799, Note_off_c, 0, 69, 0
4, 31800, Note_on_c, 0, 68, 88
4, 31916, Note_off_c, 0, 68, 0
4, 31920, Note_on_c, 0, 69, 88
4, 32036, Note_off_c, 0, 69, 0
4, 32040, Note_on_c, 0, 73, 88
4, 32145, Note_off_c, 0, 73, 0
4, 32160, Note_on_c, 0, 73, 88
4, 32276, Note_off_c, 0, 73, 0
4, 32280, Note_on_c, 0, 76, 88
4, 32396, Note_off_c, 0, 76, 0
4, 32400, Note_on_c, 0, 81, 88
4, 32516, Note_off_c, 0, 81, 0
4, 32520, Note_on_c, 0, 73, 88
4, 32636, Note_off_c, 0, 73, 0
4, 32640, Note_on_c, 0, 74, 88
4, 32874, Note_off_c, 0, 74, 0
4, 32880, Note_on_c, 0, 69, 88
4, 33114, Note_off_c, 0, 69, 0
4, 33120, Note_on_c, 0, 78, 88
4, 33178, Note_off_c, 0, 78, 0
4, 33180, Note_on_c, 0, 76, 88
4, 33238, Note_off_c, 0, 76, 0
4, 33240, Note_on_c, 0, 74, 88
4, 33298, Note_off_c, 0, 74, 0
4, 33300, Note_on_c, 0, 76, 88
4, 33358, Note_off_c, 0, 76, 0
4, 33360, Note_on_c, 0, 78, 88
4, 33476, Note_off_c, 0, 78, 0
4, 33480, Note_on_c, 0, 69, 88
4, 33596, Note_off_c, 0, 69, 0
4, 33600, Note_on_c, 0, 69, 88
4, 33629, Note_off_c, 0, 69, 0
4, 33630, Note_on_c, 0, 67, 88
4, 33659, Note_off_c, 0, 67, 0
4, 33660, Note_on_c, 0, 69, 88
4, 33689, Note_off_c, 0, 69, 0
4, 33690, Note_on_c, 0, 67, 88
4, 33719, Note_off_c, 0, 67, 0
4, 33720, Note_on_c, 0, 66, 88
4, 33836, Note_off_c, 0, 66, 0
4, 33840, Note_on_c, 0, 67, 88
4, 33956, Note_off_c, 0, 67, 0
4, 33960, Note_on_c, 0, 71, 88
4, 34065, Note_off_c, 0, 71, 0
4, 34080, Note_on_c, 0, 71, 88
4, 34196, Note_off_c, 0, 71, 0
4, 34200, Note_on_c, 0, 74, 88
4, 34316, Note_off_c, 0, 74, 0
4, 34320, Note_on_c, 0, 79, 88
4, 34436, Note_off_c, 0, 79, 0
4, 34440, Note_on_c, 0, 71, 88
4, 34556, Note_off_c, 0, 71, 0
4, 34560, Note_on_c, 0, 73, 88
4, 34676, Note_off_c, 0, 73, 0
4, 34680, Note_on_c, 0, 79, 88
4, 34914, Note_off_c, 0, 79, 0
4, 34920, Note_on_c, 0, 78, 88
4, 35036, Note_off_c, 0, 78, 0
4, 35040, Note_on_c, 0, 70, 88
4, 35156, Note_off_c, 0, 70, 0
4, 35160, Note_on_c, 0, 76, 88
4, 35394, Note_off_c, 0, 76, 0
4, 35400, Note_on_c, 0, 74, 88
4, 35516, Note_off_c, 0, 74, 0
4, 35520, Note_on_c, 0, 65, 88
4, 35754, Note_off_c, 0, 65, 0
4, 35760, Note_on_c, 0, 66, 88
4, 35994, Note_off_c, 0, 66, 0
4, 36000, Note_on_c, 0, 68, 88
4, 36234, Note_off_c, 0, 68, 0
4, 36240, Note_on_c, 0, 69, 88
4, 36474, Note_off_c, 0, 69, 0
4, 36480, Note_on_c, 0, 71, 88
4, 36714, Note_off_c, 0, 71, 0
4, 36720, Note_on_c, 0, 73, 88
4, 36954, Note_off_c, 0, 73, 0
4, 36960, Note_on_c, 0, 74, 88
4, 37076, Note_off_c, 0, 74, 0
4, 37080, Note_on_c, 0, 65, 88
4, 37314, Note_off_c, 0, 65, 0
4, 37320, Note_on_c, 0, 66, 88
4, 37436, Note_off_c, 0, 66, 0
4, 37440, Note_on_c, 0, 68, 88
4, 37556, Note_off_c, 0, 68, 0
4, 37560, Note_on_c, 0, 59, 88
4, 37794, Note_off_c, 0, 59, 0
4, 37800, Note_on_c, 0, 62, 88
4, 38034, Note_off_c, 0, 62, 0
4, 38040, Note_on_c, 0, 61, 88
4, 38274, Note_off_c, 0, 61, 0
4, 38280, Note_on_c, 0, 59, 88
4, 38396, Note_off_c, 0, 59, 0
4, 38400, Note_on_c, 0, 57, 88
4, 38516, Note_off_c, 0, 57, 0
4, 38520, Note_on_c, 0, 61, 88
4, 38636, Note_off_c, 0, 61, 0
4, 38640, Note_on_c, 0, 54, 88
4, 38756, Note_off_c, 0, 54, 0
4, 38760, Note_on_c, 0, 56, 88
4, 38876, Note_off_c, 0, 56, 0
4, 38880, Note_on_c, 0, 57, 88
4, 38996, Note_off_c, 0, 57, 0
4, 39000, Note_on_c, 0, 61, 88
4, 39116, Note_off_c, 0, 61, 0
4, 39120, Note_on_c, 0, 54, 88
4, 39236, Note_off_c, 0, 54, 0
4, 39240, Note_on_c, 0, 57, 88
4, 39356, Note_off_c, 0, 57, 0
4, 39360, Note_on_c, 0, 56, 88
4, 39476, Note_off_c, 0, 56, 0
4, 39480, Note_on_c, 0, 61, 88
4, 39596, Note_off_c, 0, 61, 0
4, 39600, Note_on_c, 0, 62, 88
4, 39658, Note_off_c, 0, 62, 0
4, 39660, Note_on_c, 0, 61, 88
4, 39718, Note_off_c, 0, 61, 0
4, 39720, Note_on_c, 0, 60, 88
4, 39778, Note_off_c, 0, 60, 0
4, 39780, Note_on_c, 0, 61, 88
4, 39838, Note_off_c, 0, 61, 0
4, 39840, Note_on_c, 0, 65, 88
4, 39956, Note_off_c, 0, 65, 0
4, 39960, Note_on_c, 0, 61, 88
4, 40076, Note_off_c, 0, 61, 0
4, 40080, Note_on_c, 0, 68, 88
4, 40196, Note_off_c, 0, 68, 0
4, 40200, Note_on_c, 0, 59, 88
4, 40316, Note_off_c, 0, 59, 0
4, 40320, Note_on_c, 0, 57, 88
4, 40554, Note_off_c, 0, 57, 0
4, 40560, Note_on_c, 0, 61, 88
4, 40794, Note_off_c, 0, 61, 0
4, 40800, Note_on_c, 0, 66, 88
4, 41034, Note_off_c, 0, 66, 0
4, 41040, Note_on_c, 0, 69, 88
4, 41274, Note_off_c, 0, 69, 0
4, 41280, Note_on_c, 0, 65, 88
4, 41514, Note_off_c, 0, 65, 0
4, 41520, Note_on_c, 0, 68, 88
4, 41754, Note_off_c, 0, 68, 0
4, 41760, Note_on_c, 0, 71, 88
4, 41994, Note_off_c, 0, 71, 0
4, 42000, Note_on_c, 0, 74, 88
4, 42234, Note_off_c, 0, 74, 0
4, 42240, Note_on_c, 0, 73, 88
4, 42356, Note_off_c, 0, 73, 0
4, 42360, Note_on_c, 0, 66, 88
4, 42418, Note_off_c, 0, 66, 0
4, 42420, Note_on_c, 0, 68, 88
4, 42478, Note_off_c, 0, 68, 0
4, 42480, Note_on_c, 0, 69, 88
4, 42538, Note_off_c, 0, 69, 0
4, 42540, Note_on_c, 0, 68, 88
4, 42598, Note_off_c, 0, 68, 0
4, 42600, Note_on_c, 0, 66, 88
4, 42834, Note_off_c, 0, 66, 0
4, 42840, Note_on_c, 0, 73, 88
4, 43074, Note_off_c, 0, 73, 0
4, 43080, Note_on_c, 0, 64, 88
4, 43316, Note_off_c, 0, 64, 0
4, 43320, Note_on_c, 0, 66, 88
4, 43378, Note_off_c, 0, 66, 0
4, 43380, Note_on_c, 0, 64, 88
4, 43438, Note_off_c, 0, 64, 0
4, 43440, Note_on_c, 0, 62, 88
4, 43498, Note_off_c, 0, 62, 0
4, 43500, Note_on_c, 0, 64, 88
4, 43558, Note_off_c, 0, 64, 0
4, 43560, Note_on_c, 0, 66, 88
4, 43794, Note_off_c, 0, 66, 0
4, 43800, Note_on_c, 0, 57, 88
4, 44034, Note_off_c, 0, 57, 0
4, 44040, Note_on_c, 0, 66, 88
4, 44156, Note_off_c, 0, 66, 0
4, 44160, Note_on_c, 0, 55, 88
4, 44276, Note_off_c, 0, 55, 0
4, 44280, Note_on_c, 0, 64, 88
4, 44338, Note_off_c, 0, 64, 0
4, 44340, Note_on_c, 0, 66, 88
4, 44398, Note_off_c, 0, 66, 0
4, 44400, Note_on_c, 0, 67, 88
4, 44458, Note_off_c, 0, 67, 0
4, 44460, Note_on_c, 0, 66, 88
4, 44518, Note_off_c, 0, 66, 0
4, 44520, Note_on_c, 0, 64, 88
4, 44754, Note_off_c, 0, 64, 0
4, 44760, Note_on_c, 0, 71, 88
4, 44994, Note_off_c, 0, 71, 0
4, 45000, Note_on_c, 0, 62, 88
4, 45236, Note_off_c, 0, 62, 0
4, 45240, Note_on_c, 0, 64, 88
4, 45298, Note_off_c, 0, 64, 0
4, 45300, Note_on_c, 0, 62, 88
4, 45358, Note_off_c, 0, 62, 0
4, 45360, Note_on_c, 0, 61, 88
4, 45418, Note_off_c, 0, 61, 0
4, 45420, Note_on_c, 0, 62, 88
4, 45478, Note_off_c, 0, 62, 0
4, 45480, Note_on_c, 0, 64, 88
4, 45714, Note_off_c, 0, 64, 0
4, 45720, Note_on_c, 0, 55, 88
4, 45954, Note_off_c, 0, 55, 0
4, 45960, Note_on_c, 0, 64, 88
4, 46076, Note_off_c, 0, 64, 0
4, 46080, Note_on_c, 0, 54, 88
4, 46196, Note_off_c, 0, 54, 0
4, 46200, Note_on_c, 0, 61, 88
4, 46434, Note_off_c, 0, 61, 0
4, 46440, Note_on_c, 0, 64, 88
4, 46674, Note_off_c, 0, 64, 0
4, 46680, Note_on_c, 0, 62, 88
4, 46738, Note_off_c, 0, 62, 0
4, 46740, Note_on_c, 0, 61, 88
4, 46798, Note_off_c, 0, 61, 0
4, 46800, Note_on_c, 0, 62, 88
4, 46858, Note_off_c, 0, 62, 0
4, 46860, Note_on_c, 0, 61, 88
4, 46918, Note_off_c, 0, 61, 0
4, 46920, Note_on_c, 0, 59, 88
4, 46978, Note_off_c, 0, 59, 0
4, 46980, Note_on_c, 0, 58, 88
4, 47038, Note_off_c, 0, 58, 0
4, 47040, Note_on_c, 0, 59, 88
4, 47156, Note_off_c, 0, 59, 0
4, 47160, Note_on_c, 0, 66, 88
4, 47394, Note_off_c, 0, 66, 0
4, 47400, Note_on_c, 0, 69, 88
4, 47634, Note_off_c, 0, 69, 0
4, 47640, Note_on_c, 0, 67, 88
4, 47698, Note_off_c, 0, 67, 0
4, 47700, Note_on_c, 0, 66, 88
4, 47758, Note_off_c, 0, 66, 0
4, 47760, Note_on_c, 0, 67, 88
4, 47818, Note_off_c, 0, 67, 0
4, 47820, Note_on_c, 0, 66, 88
4, 47878, Note_off_c, 0, 66, 0
4, 47880, Note_on_c, 0, 64, 88
4, 47938, Note_off_c, 0, 64, 0
4, 47940, Note_on_c, 0, 62, 88
4, 47998, Note_off_c, 0, 62, 0
4, 48000, Note_on_c, 0, 64, 88
4, 48116, Note_off_c, 0, 64, 0
4, 48120, Note_on_c, 0, 71, 88
4, 48354, Note_off_c, 0, 71, 0
4, 48360, Note_on_c, 0, 74, 88
4, 48594, Note_off_c, 0, 74, 0
4, 48600, Note_on_c, 0, 73, 88
4, 48658, Note_off_c, 0, 73, 0
4, 48660, Note_on_c, 0, 71, 88
4, 48718, Note_off_c, 0, 71, 0
4, 48720, Note_on_c, 0, 73, 88
4, 48778, Note_off_c, 0, 73, 0
4, 48780, Note_on_c, 0, 71, 88
4, 48838, Note_off_c, 0, 71, 0
4, 48840, Note_on_c, 0, 70, 88
4, 48898, Note_off_c, 0, 70, 0
4, 48900, Note_on_c, 0, 68, 88
4, 48958, Note_off_c, 0, 68, 0
4, 48960, Note_on_c, 0, 70, 88
4, 49076, Note_off_c, 0, 70, 0
4, 49080, Note_on_c, 0, 76, 88
4, 49314, Note_off_c, 0, 76, 0
4, 49320, Note_on_c, 0, 79, 88
4, 49554, Note_off_c, 0, 79, 0
4, 49560, Note_on_c, 0, 78, 88
4, 49618, Note_off_c, 0, 78, 0
4, 49620, Note_on_c, 0, 76, 88
4, 49678, Note_off_c, 0, 76, 0
4, 49680, Note_on_c, 0, 78, 88
4, 49738, Note_off_c, 0, 78, 0
4, 49740, Note_on_c, 0, 76, 88
4, 49798, Note_off_c, 0, 76, 0
4, 49800, Note_on_c, 0, 74, 88
4, 49858, Note_off_c, 0, 74, 0
4, 49860, Note_on_c, 0, 73, 88
4, 49918, Note_off_c, 0, 73, 0
4, 49920, Note_on_c, 0, 74, 88
4, 50036, Note_off_c, 0, 74, 0
4, 50040, Note_on_c, 0, 70, 88
4, 50274, Note_off_c, 0, 70, 0
4, 50280, Note_on_c, 0, 71, 88
4, 50396, Note_off_c, 0, 71, 0
4, 50400, Note_on_c, 0, 73, 88
4, 50516, Note_off_c, 0, 73, 0
4, 50520, Note_on_c, 0, 75, 88
4, 50636, Note_off_c, 0, 75, 0
4, 50640, Note_on_c, 0, 76, 88
4, 50698, Note_off_c, 0, 76, 0
4, 50700, Note_on_c, 0, 75, 88
4, 50758, Note_off_c, 0, 75, 0
4, 50760, Note_on_c, 0, 73, 88
4, 50818, Note_off_c, 0, 73, 0
4, 50820, Note_on_c, 0, 75, 88
4, 50878, Note_off_c, 0, 75, 0
4, 50880, Note_on_c, 0, 76, 88
4, 50996, Note_off_c, 0, 76, 0
4, 51000, Note_on_c, 0, 70, 88
4, 51234, Note_off_c, 0, 70, 0
4, 51240, Note_on_c, 0, 71, 88
4, 51356, Note_off_c, 0, 71, 0
4, 51360, Note_on_c, 0, 74, 88
4, 51476, Note_off_c, 0, 74, 0
4, 51480, Note_on_c, 0, 70, 88
4, 51714, Note_off_c, 0, 70, 0
4, 51720, Note_on_c, 0, 71, 88
4, 51836, Note_off_c, 0, 71, 0
4, 51840, Note_on_c, 0, 79, 88
4, 51898, Note_off_c, 0, 79, 0
4, 51900, Note_on_c, 0, 78, 88
4, 51958, Note_off_c, 0, 78, 0
4, 51960, Note_on_c, 0, 76, 88
4, 52185, Note_off_c, 0, 76, 0
4, 52200, Note_on_c, 0, 76, 88
4, 52375, Note_off_c, 0, 76, 0
4, 52380, Note_on_c, 0, 78, 88
4, 52438, Note_off_c, 0, 78, 0
4, 52440, Note_on_c, 0, 76, 88
4, 52498, Note_off_c, 0, 76, 0
4, 52500, Note_on_c, 0, 75, 88
4, 52558, Note_off_c, 0, 75, 0
4, 52560, Note_on_c, 0, 76, 88
4, 52665, Note_off_c, 0, 76, 0
4, 52680, Note_on_c, 0, 76, 88
4, 52858, Note_off_c, 0, 76, 0
4, 52860, Note_on_c, 0, 69, 88
4, 52918, Note_off_c, 0, 69, 0
4, 52920, Note_on_c, 0, 67, 88
4, 52978, Note_off_c, 0, 67, 0
4, 52980, Note_on_c, 0, 66, 88
4, 53038, Note_off_c, 0, 66, 0
4, 53040, Note_on_c, 0, 67, 88
4, 53156, Note_off_c, 0, 67, 0
4, 53160, Note_on_c, 0, 76, 88
4, 53394, Note_off_c, 0, 76, 0
4, 53400, Note_on_c, 0, 67, 88
4, 53625, Note_off_c, 0, 67, 0
4, 53640, Note_on_c, 0, 67, 88
4, 53876, Note_off_c, 0, 67, 0
4, 53880, Note_on_c, 0, 66, 88
4, 53938, Note_off_c, 0, 66, 0
4, 53940, Note_on_c, 0, 74, 88
4, 53985, Note_off_c, 0, 74, 0
4, 54000, Note_on_c, 0, 74, 88
4, 54094, Note_off_c, 0, 74, 0
4, 54098, Note_on_c, 0, 73, 88
4, 54236, Note_off_c, 0, 73, 0
4, 54360, Note_on_c, 0, 64, 88
4, 54418, Note_off_c, 0, 64, 0
4, 54420, Note_on_c, 0, 66, 88
4, 54478, Note_off_c, 0, 66, 0
4, 54480, Note_on_c, 0, 67, 88
4, 54538, Note_off_c, 0, 67, 0
4, 54540, Note_on_c, 0, 66, 88
4, 54598, Note_off_c, 0, 66, 0
4, 54600, Note_on_c, 0, 64, 88
4, 54716, Note_off_c, 0, 64, 0
4, 54720, Note_on_c, 0, 62, 88
4, 54836, Note_off_c, 0, 62, 0
4, 54840, Note_on_c, 0, 66, 88
4, 54956, Note_off_c, 0, 66, 0
4, 54960, Note_on_c, 0, 70, 88
4, 55076, Note_off_c, 0, 70, 0
4, 55080, Note_on_c, 0, 71, 88
4, 55196, Note_off_c, 0, 71, 0
4, 55200, Note_on_c, 0, 74, 88
4, 55316, Note_off_c, 0, 74, 0
4, 55320, Note_on_c, 0, 73, 88
4, 55436, Note_off_c, 0, 73, 0
4, 55440, Note_on_c, 0, 71, 88
4, 55556, Note_off_c, 0, 71, 0
4, 55560, Note_on_c, 0, 70, 88
4, 55676, Note_off_c, 0, 70, 0
4, 55680, Note_on_c, 0, 71, 88
4, 55914, Note_off_c, 0, 71, 0
4, 55920, Note_on_c, 0, 66, 88
4, 56154, Note_off_c, 0, 66, 0
4, 56160, Note_on_c, 0, 67, 88
4, 56218, Note_off_c, 0, 67, 0
4, 56220, Note_on_c, 0, 66, 88
4, 56278, Note_off_c, 0, 66, 0
4, 56280, Note_on_c, 0, 65, 88
4, 56338, Note_off_c, 0, 65, 0
4, 56340, Note_on_c, 0, 66, 88
4, 56398, Note_off_c, 0, 66, 0
4, 56400, Note_on_c, 0, 74, 88
4, 56634, Note_off_c, 0, 74, 0
4, 56880, Note_on_c, 0, 66, 88
4, 57114, Note_off_c, 0, 66, 0
4, 57120, Note_on_c, 0, 67, 88
4, 57178, Note_off_c, 0, 67, 0
4, 57180, Note_on_c, 0, 66, 88
4, 57238, Note_off_c, 0, 66, 0
4, 57240, Note_on_c, 0, 65, 88
4, 57298, Note_off_c, 0, 65, 0
4, 57300, Note_on_c, 0, 66, 88
4, 57358, Note_off_c, 0, 66, 0
4, 57360, Note_on_c, 0, 76, 88
4, 57594, Note_off_c, 0, 76, 0
4, 57840, Note_on_c, 0, 66, 88
4, 58074, Note_off_c, 0, 66, 0
4, 58080, Note_on_c, 0, 67, 88
4, 58138, Note_off_c, 0, 67, 0
4, 58140, Note_on_c, 0, 66, 88
4, 58198, Note_off_c, 0, 66, 0
4, 58200, Note_on_c, 0, 65, 88
4, 58258, Note_off_c, 0, 65, 0
4, 58260, Note_on_c, 0, 66, 88
4, 58318, Note_off_c, 0, 66, 0
4, 58320, Note_on_c, 0, 78, 88
4, 58436, Note_off_c, 0, 78, 0
4, 58440, Note_on_c, 0, 69, 88
4, 58556, Note_off_c, 0, 69, 0
4, 58560, Note_on_c, 0, 69, 88
4, 58794, Note_off_c, 0, 69, 0
4, 58800, Note_on_c, 0, 68, 88
4, 59034, Note_off_c, 0, 68, 0
4, 59160, Note_on_c, 0, 68, 88
4, 59218, Note_off_c, 0, 68, 0
4, 59220, Note_on_c, 0, 70, 88
4, 59278, Note_off_c, 0, 70, 0
4, 59280, Note_on_c, 0, 71, 88
4, 59338, Note_off_c, 0, 71, 0
4, 59340, Note_on_c, 0, 73, 88
4, 59398, Note_off_c, 0, 73, 0
4, 59400, Note_on_c, 0, 74, 88
4, 59458, Note_off_c, 0, 74, 0
4, 59460, Note_on_c, 0, 76, 88
4, 59518, Note_off_c, 0, 76, 0
4, 59520, Note_on_c, 0, 71, 88
4, 59754, Note_off_c, 0, 71, 0
4, 59760, Note_on_c, 0, 70, 88
4, 59994, Note_off_c, 0, 70, 0
4, 60120, Note_on_c, 0, 70, 88
4, 60178, Note_off_c, 0, 70, 0
4, 60180, Note_on_c, 0, 71, 88
4, 60238, Note_off_c, 0, 71, 0
4, 60240, Note_on_c, 0, 73, 88
4, 60298, Note_off_c, 0, 73, 0
4, 60300, Note_on_c, 0, 71, 88
4, 60358, Note_off_c, 0, 71, 0
4, 60360, Note_on_c, 0, 70, 88
4, 60476, Note_off_c, 0, 70, 0
4, 60480, Note_on_c, 0, 77, 88
4, 60714, Note_off_c, 0, 77, 0
4, 60720, Note_on_c, 0, 78, 88
4, 60954, Note_off_c, 0, 78, 0
4, 61560, Note_on_c, 0, 71, 88
4, 61618, Note_off_c, 0, 71, 0
4, 61620, Note_on_c, 0, 69, 88
4, 61678, Note_off_c, 0, 69, 0
4, 61680, Note_on_c, 0, 67, 88
4, 61738, Note_off_c, 0, 67, 0
4, 61740, Note_on_c, 0, 66, 88
4, 61798, Note_off_c, 0, 66, 0
4, 61800, Note_on_c, 0, 64, 88
4, 61916, Note_off_c, 0, 64, 0
4, 62040, Note_on_c, 0, 71, 88
4, 62274, Note_off_c, 0, 71, 0
4, 62280, Note_on_c, 0, 70, 88
4, 62396, Note_off_c, 0, 70, 0
4, 62400, Note_on_c, 0, 71, 88
4, 63345, Note_off_c, 0, 71, 0
4, 63345, End_track
5, 0, Start_track
5, 0, Title_t, "Track 2"
5, 0, Program_c, 1, 6
5, 53400, Note_on_c, 1, 64, 88
5, 53625, Note_off_c, 1, 64, 0
5, 53640, Note_on_c, 1, 64, 88
5, 54230, Note_off_c, 1, 64, 0
5, 58560, Note_on_c, 1, 64, 88
5, 59030, Note_off_c, 1, 64, 0
5, 59520, Note_on_c, 1, 67, 88
5, 59990, Note_off_c, 1, 67, 0
5, 60480, Note_on_c, 1, 71, 88
5, 60480, Note_on_c, 1, 74, 88
5, 60714, Note_off_c, 1, 71, 0
5, 60714, Note_off_c, 1, 74, 0
5, 60720, Note_on_c, 1, 66, 88
5, 60720, Note_on_c, 1, 73, 88
5, 60954, Note_off_c, 1, 66, 0
5, 60954, Note_off_c, 1, 73, 0
5, 61920, Note_on_c, 1, 62, 88
5, 62154, Note_off_c, 1, 62, 0
5, 62160, Note_on_c, 1, 64, 88
5, 62394, Note_off_c, 1, 64, 0
5, 62400, Note_on_c, 1, 62, 88
5, 62400, Note_on_c, 1, 66, 88
5, 63345, Note_off_c, 1, 62, 0
5, 63345, Note_off_c, 1, 66, 0
5, 63345, End_track
6, 0, Start_track
6, 0, Title_t, "Track 3"
6, 0, Program_c, 2, 6
6, 58560, Note_on_c, 2, 59, 88
6, 59030, Note_off_c, 2, 59, 0
6, 59520, Note_on_c, 2, 64, 88
6, 59990, Note_off_c, 2, 64, 0
6, 60480, Note_on_c, 2, 68, 88
6, 60714, Note_off_c, 2, 68, 0
6, 60720, Note_on_c, 2, 61, 88
6, 60954, Note_off_c, 2, 61, 0
6, 62160, Note_on_c, 2, 61, 88
6, 62394, Note_off_c, 2, 61, 0
6, 62400, Note_on_c, 2, 59, 88
6, 63345, Note_off_c, 2, 59, 0
6, 63345, End_track
7, 0, Start_track
7, 0, Title_t, "Track 4"
7, 0, Program_c, 3, 6
7, 0, Note_on_c, 3, 47, 88
7, 234, Note_off_c, 3, 47, 0
7, 240, Note_on_c, 3, 50, 88
7, 474, Note_off_c, 3, 50, 0
7, 480, Note_on_c, 3, 54, 88
7, 774, Note_off_c, 3, 54, 0
7, 780, Note_on_c, 3, 55, 88
7, 838, Note_off_c, 3, 55, 0
7, 840, Note_on_c, 3, 54, 88
7, 898, Note_off_c, 3, 54, 0
7, 900, Note_on_c, 3, 53, 88
7, 958, Note_off_c, 3, 53, 0
7, 960, Note_on_c, 3, 54, 88
7, 1194, Note_off_c, 3, 54, 0
7, 1200, Note_on_c, 3, 46, 88
7, 1434, Note_off_c, 3, 46, 0
7, 1440, Note_on_c, 3, 49, 88
7, 1674, Note_off_c, 3, 49, 0
7, 1680, Note_on_c, 3, 54, 88
7, 1914, Note_off_c, 3, 54, 0
7, 1920, Note_on_c, 3, 47, 88
7, 2154, Note_off_c, 3, 47, 0
7, 2160, Note_on_c, 3, 50, 88
7, 2394, Note_off_c, 3, 50, 0
7, 2400, Note_on_c, 3, 54, 88
7, 2694, Note_off_c, 3, 54, 0
7, 2700, Note_on_c, 3, 55, 88
7, 2758, Note_off_c, 3, 55, 0
7, 2760, Note_on_c, 3, 54, 88
7, 2818, Note_off_c, 3, 54, 0
7, 2820, Note_on_c, 3, 53, 88
7, 2878, Note_off_c, 3, 53, 0
7, 2880, Note_on_c, 3, 54, 88
7, 3114, Note_off_c, 3, 54, 0
7, 3120, Note_on_c, 3, 42, 88
7, 3354, Note_off_c, 3, 42, 0
7, 3480, Note_on_c, 3, 52, 88
7, 3596, Note_off_c, 3, 52, 0
7, 3600, Note_on_c, 3, 50, 88
7, 3716, Note_off_c, 3, 50, 0
7, 3720, Note_on_c, 3, 49, 88
7, 3836, Note_off_c, 3, 49, 0
7, 3840, Note_on_c, 3, 50, 88
7, 3956, Note_off_c, 3, 50, 0
7, 3960, Note_on_c, 3, 54, 88
7, 4076, Note_off_c, 3, 54, 0
7, 4080, Note_on_c, 3, 47, 88
7, 4196, Note_off_c, 3, 47, 0
7, 4200, Note_on_c, 3, 49, 88
7, 4316, Note_off_c, 3, 49, 0
7, 4320, Note_on_c, 3, 50, 88
7, 4436, Note_off_c, 3, 50, 0
7, 4440, Note_on_c, 3, 54, 88
7, 4556, Note_off_c, 3, 54, 0
7, 4560, Note_on_c, 3, 47, 88
7, 4676, Note_off_c, 3, 47, 0
7, 4680, Note_on_c, 3, 50, 88
7, 4796, Note_off_c, 3, 50, 0
7, 4800, Note_on_c, 3, 49, 88
7, 4916, Note_off_c, 3, 49, 0
7, 4920, Note_on_c, 3, 54, 88
7, 5036, Note_off_c, 3, 54, 0
7, 5040, Note_on_c, 3, 55, 88
7, 5098, Note_off_c, 3, 55, 0
7, 5100, Note_on_c, 3, 54, 88
7, 5158, Note_off_c, 3, 54, 0
7, 5160, Note_on_c, 3, 53, 88
7, 5218, Note_off_c, 3, 53, 0
7, 5220, Note_on_c, 3, 54, 88
7, 5278, Note_off_c, 3, 54, 0
7, 5280, Note_on_c, 3, 58, 88
7, 5396, Note_off_c, 3, 58, 0
7, 5400, Note_on_c, 3, 54, 88
7, 5516, Note_off_c, 3, 54, 0
7, 5520, Note_on_c, 3, 61, 88
7, 5636, Note_off_c, 3, 61, 0
7, 5640, Note_on_c, 3, 52, 88
7, 5756, Note_off_c, 3, 52, 0
7, 5760, Note_on_c, 3, 50, 88
7, 5876, Note_off_c, 3, 50, 0
7, 5880, Note_on_c, 3, 54, 88
7, 5996, Note_off_c, 3, 54, 0
7, 6000, Note_on_c, 3, 47, 88
7, 6116, Note_off_c, 3, 47, 0
7, 6120, Note_on_c, 3, 49, 88
7, 6236, Note_off_c, 3, 49, 0
7, 6240, Note_on_c, 3, 50, 88
7, 6356, Note_off_c, 3, 50, 0
7, 6360, Note_on_c, 3, 54, 88
7, 6476, Note_off_c, 3, 54, 0
7, 6480, Note_on_c, 3, 47, 88
7, 6596, Note_off_c, 3, 47, 0
7, 6600, Note_on_c, 3, 50, 88
7, 6716, Note_off_c, 3, 50, 0
7, 6720, Note_on_c, 3, 49, 88
7, 6836, Note_off_c, 3, 49, 0
7, 6840, Note_on_c, 3, 54, 88
7, 6956, Note_off_c, 3, 54, 0
7, 6960, Note_on_c, 3, 49, 88
7, 7076, Note_off_c, 3, 49, 0
7, 7080, Note_on_c, 3, 46, 88
7, 7196, Note_off_c, 3, 46, 0
7, 7200, Note_on_c, 3, 42, 88
7, 7434, Note_off_c, 3, 42, 0
7, 7440, Note_on_c, 3, 58, 88
7, 7674, Note_off_c, 3, 58, 0
7, 7680, Note_on_c, 3, 47, 88
7, 7914, Note_off_c, 3, 47, 0
7, 7920, Note_on_c, 3, 59, 88
7, 8154, Note_off_c, 3, 59, 0
7, 8160, Note_on_c, 3, 61, 88
7, 8394, Note_off_c, 3, 61, 0
7, 8400, Note_on_c, 3, 63, 88
7, 8634, Note_off_c, 3, 63, 0
7, 8640, Note_on_c, 3, 64, 88
7, 8874, Note_off_c, 3, 64, 0
7, 8880, Note_on_c, 3, 52, 88
7, 9114, Note_off_c, 3, 52, 0
7, 9120, Note_on_c, 3, 54, 88
7, 9354, Note_off_c, 3, 54, 0
7, 9360, Note_on_c, 3, 56, 88
7, 9594, Note_off_c, 3, 56, 0
7, 9600, Note_on_c, 3, 45, 88
7, 9834, Note_off_c, 3, 45, 0
7, 9840, Note_on_c, 3, 57, 88
7, 10074, Note_off_c, 3, 57, 0
7, 10080, Note_on_c, 3, 59, 88
7, 10314, Note_off_c, 3, 59, 0
7, 10320, Note_on_c, 3, 61, 88
7, 10554, Note_off_c, 3, 61, 0
7, 10560, Note_on_c, 3, 62, 88
7, 10794, Note_off_c, 3, 62, 0
7, 10800, Note_on_c, 3, 50, 88
7, 11034, Note_off_c, 3, 50, 0
7, 11040, Note_on_c, 3, 52, 88
7, 11274, Note_off_c, 3, 52, 0
7, 11280, Note_on_c, 3, 54, 88
7, 11514, Note_off_c, 3, 54, 0
7, 11520, Note_on_c, 3, 43, 88
7, 11754, Note_off_c, 3, 43, 0
7, 11760, Note_on_c, 3, 47, 88
7, 11994, Note_off_c, 3, 47, 0
7, 12000, Note_on_c, 3, 50, 88
7, 12234, Note_off_c, 3, 50, 0
7, 12240, Note_on_c, 3, 52, 88
7, 12474, Note_off_c, 3, 52, 0
7, 12480, Note_on_c, 3, 45, 88
7, 12714, Note_off_c, 3, 45, 0
7, 12720, Note_on_c, 3, 49, 88
7, 12954, Note_off_c, 3, 49, 0
7, 12960, Note_on_c, 3, 52, 88
7, 13194, Note_off_c, 3, 52, 0
7, 13200, Note_on_c, 3, 54, 88
7, 13434, Note_off_c, 3, 54, 0
7, 13440, Note_on_c, 3, 47, 88
7, 13674, Note_off_c, 3, 47, 0
7, 13680, Note_on_c, 3, 50, 88
7, 13914, Note_off_c, 3, 50, 0
7, 13920, Note_on_c, 3, 54, 88
7, 14154, Note_off_c, 3, 54, 0
7, 14160, Note_on_c, 3, 55, 88
7, 14394, Note_off_c, 3, 55, 0
7, 14400, Note_on_c, 3, 49, 88
7, 14634, Note_off_c, 3, 49, 0
7, 14640, Note_on_c, 3, 52, 88
7, 14874, Note_off_c, 3, 52, 0
7, 14880, Note_on_c, 3, 55, 88
7, 15114, Note_off_c, 3, 55, 0
7, 15120, Note_on_c, 3, 57, 88
7, 15354, Note_off_c, 3, 57, 0
7, 15360, Note_on_c, 3, 50, 88
7, 15594, Note_off_c, 3, 50, 0
7, 15600, Note_on_c, 3, 54, 88
7, 15834, Note_off_c, 3, 54, 0
7, 15840, Note_on_c, 3, 57, 88
7, 16134, Note_off_c, 3, 57, 0
7, 16140, Note_on_c, 3, 59, 88
7, 16198, Note_off_c, 3, 59, 0
7, 16200, Note_on_c, 3, 57, 88
7, 16258, Note_off_c, 3, 57, 0
7, 16260, Note_on_c, 3, 56, 88
7, 16318, Note_off_c, 3, 56, 0
7, 16320, Note_on_c, 3, 57, 88
7, 16554, Note_off_c, 3, 57, 0
7, 16560, Note_on_c, 3, 49, 88
7, 16794, Note_off_c, 3, 49, 0
7, 16800, Note_on_c, 3, 52, 88
7, 17034, Note_off_c, 3, 52, 0
7, 17040, Note_on_c, 3, 57, 88
7, 17274, Note_off_c, 3, 57, 0
7, 17280, Note_on_c, 3, 50, 88
7, 17514, Note_off_c, 3, 50, 0
7, 17520, Note_on_c, 3, 54, 88
7, 17754, Note_off_c, 3, 54, 0
7, 17760, Note_on_c, 3, 57, 88
7, 18054, Note_off_c, 3, 57, 0
7, 18060, Note_on_c, 3, 59, 88
7, 18118, Note_off_c, 3, 59, 0
7, 18120, Note_on_c, 3, 57, 88
7, 18178, Note_off_c, 3, 57, 0
7, 18180, Note_on_c, 3, 56, 88
7, 18238, Note_off_c, 3, 56, 0
7, 18240, Note_on_c, 3, 57, 88
7, 18474, Note_off_c, 3, 57, 0
7, 18480, Note_on_c, 3, 45, 88
7, 18714, Note_off_c, 3, 45, 0
7, 18840, Note_on_c, 3, 55, 88
7, 18956, Note_off_c, 3, 55, 0
7, 18960, Note_on_c, 3, 54, 88
7, 19076, Note_off_c, 3, 54, 0
7, 19080, Note_on_c, 3, 52, 88
7, 19196, Note_off_c, 3, 52, 0
7, 19200, Note_on_c, 3, 54, 88
7, 19316, Note_off_c, 3, 54, 0
7, 19320, Note_on_c, 3, 57, 88
7, 19436, Note_off_c, 3, 57, 0
7, 19440, Note_on_c, 3, 50, 88
7, 19556, Note_off_c, 3, 50, 0
7, 19560, Note_on_c, 3, 52, 88
7, 19676, Note_off_c, 3, 52, 0
7, 19680, Note_on_c, 3, 54, 88
7, 19796, Note_off_c, 3, 54, 0
7, 19800, Note_on_c, 3, 57, 88
7, 19916, Note_off_c, 3, 57, 0
7, 19920, Note_on_c, 3, 50, 88
7, 20036, Note_off_c, 3, 50, 0
7, 20040, Note_on_c, 3, 54, 88
7, 20156, Note_off_c, 3, 54, 0
7, 20160, Note_on_c, 3, 52, 88
7, 20276, Note_off_c, 3, 52, 0
7, 20280, Note_on_c, 3, 57, 88
7, 20396, Note_off_c, 3, 57, 0
7, 20400, Note_on_c, 3, 59, 88
7, 20458, Note_off_c, 3, 59, 0
7, 20460, Note_on_c, 3, 57, 88
7, 20518, Note_off_c, 3, 57, 0
7, 20520, Note_on_c, 3, 56, 88
7, 20578, Note_off_c, 3, 56, 0
7, 20580, Note_on_c, 3, 57, 88
7, 20638, Note_off_c, 3, 57, 0
7, 20640, Note_on_c, 3, 61, 88
7, 20756, Note_off_c, 3, 61, 0
7, 20760, Note_on_c, 3, 57, 88
7, 20876, Note_off_c, 3, 57, 0
7, 20880, Note_on_c, 3, 64, 88
7, 20996, Note_off_c, 3, 64, 0
7, 21000, Note_on_c, 3, 55, 88
7, 21116, Note_off_c, 3, 55, 0
7, 21120, Note_on_c, 3, 54, 88
7, 21236, Note_off_c, 3, 54, 0
7, 21240, Note_on_c, 3, 57, 88
7, 21356, Note_off_c, 3, 57, 0
7, 21360, Note_on_c, 3, 50, 88
7, 21476, Note_off_c, 3, 50, 0
7, 21480, Note_on_c, 3, 52, 88
7, 21596, Note_off_c, 3, 52, 0
7, 21600, Note_on_c, 3, 54, 88
7, 21716, Note_off_c, 3, 54, 0
7, 21720, Note_on_c, 3, 57, 88
7, 21836, Note_off_c, 3, 57, 0
7, 21840, Note_on_c, 3, 50, 88
7, 21956, Note_off_c, 3, 50, 0
7, 21960, Note_on_c, 3, 54, 88
7, 22076, Note_off_c, 3, 54, 0
7, 22080, Note_on_c, 3, 52, 88
7, 22196, Note_off_c, 3, 52, 0
7, 22200, Note_on_c, 3, 57, 88
7, 22316, Note_off_c, 3, 57, 0
7, 22320, Note_on_c, 3, 52, 88
7, 22436, Note_off_c, 3, 52, 0
7, 22440, Note_on_c, 3, 49, 88
7, 22556, Note_off_c, 3, 49, 0
7, 22560, Note_on_c, 3, 45, 88
7, 22676, Note_off_c, 3, 45, 0
7, 22680, Note_on_c, 3, 57, 88
7, 22796, Note_off_c, 3, 57, 0
7, 22800, Note_on_c, 3, 55, 88
7, 22916, Note_off_c, 3, 55, 0
7, 22920, Note_on_c, 3, 54, 88
7, 23036, Note_off_c, 3, 54, 0
7, 23040, Note_on_c, 3, 55, 88
7, 23156, Note_off_c, 3, 55, 0
7, 23160, Note_on_c, 3, 59, 88
7, 23276, Note_off_c, 3, 59, 0
7, 23280, Note_on_c, 3, 52, 88
7, 23396, Note_off_c, 3, 52, 0
7, 23400, Note_on_c, 3, 54, 88
7, 23516, Note_off_c, 3, 54, 0
7, 23520, Note_on_c, 3, 55, 88
7, 23636, Note_off_c, 3, 55, 0
7, 23640, Note_on_c, 3, 59, 88
7, 23756, Note_off_c, 3, 59, 0
7, 23760, Note_on_c, 3, 52, 88
7, 23876, Note_off_c, 3, 52, 0
7, 23880, Note_on_c, 3, 55, 88
7, 23996, Note_off_c, 3, 55, 0
7, 24000, Note_on_c, 3, 54, 88
7, 24116, Note_off_c, 3, 54, 0
7, 24120, Note_on_c, 3, 59, 88
7, 24236, Note_off_c, 3, 59, 0
7, 24240, Note_on_c, 3, 60, 88
7, 24298, Note_off_c, 3, 60, 0
7, 24300, Note_on_c, 3, 59, 88
7, 24358, Note_off_c, 3, 59, 0
7, 24360, Note_on_c, 3, 58, 88
7, 24418, Note_off_c, 3, 58, 0
7, 24420, Note_on_c, 3, 59, 88
7, 24478, Note_off_c, 3, 59, 0
7, 24480, Note_on_c, 3, 63, 88
7, 24596, Note_off_c, 3, 63, 0
7, 24600, Note_on_c, 3, 59, 88
7, 24716, Note_off_c, 3, 59, 0
7, 24720, Note_on_c, 3, 66, 88
7, 24836, Note_off_c, 3, 66, 0
7, 24840, Note_on_c, 3, 57, 88
7, 24956, Note_off_c, 3, 57, 0
7, 24960, Note_on_c, 3, 55, 88
7, 25076, Note_off_c, 3, 55, 0
7, 25080, Note_on_c, 3, 59, 88
7, 25196, Note_off_c, 3, 59, 0
7, 25200, Note_on_c, 3, 52, 88
7, 25316, Note_off_c, 3, 52, 0
7, 25320, Note_on_c, 3, 54, 88
7, 25436, Note_off_c, 3, 54, 0
7, 25440, Note_on_c, 3, 55, 88
7, 25556, Note_off_c, 3, 55, 0
7, 25560, Note_on_c, 3, 59, 88
7, 25676, Note_off_c, 3, 59, 0
7, 25680, Note_on_c, 3, 52, 88
7, 25796, Note_off_c, 3, 52, 0
7, 25800, Note_on_c, 3, 55, 88
7, 25916, Note_off_c, 3, 55, 0
7, 25920, Note_on_c, 3, 54, 88
7, 26036, Note_off_c, 3, 54, 0
7, 26040, Note_on_c, 3, 59, 88
7, 26156, Note_off_c, 3, 59, 0
7, 26160, Note_on_c, 3, 54, 88
7, 26276, Note_off_c, 3, 54, 0
7, 26280, Note_on_c, 3, 51, 88
7, 26396, Note_off_c, 3, 51, 0
7, 26400, Note_on_c, 3, 47, 88
7, 26634, Note_off_c, 3, 47, 0
7, 27120, Note_on_c, 3, 55, 88
7, 27354, Note_off_c, 3, 55, 0
7, 27360, Note_on_c, 3, 52, 88
7, 27594, Note_off_c, 3, 52, 0
7, 27600, Note_on_c, 3, 47, 88
7, 27834, Note_off_c, 3, 47, 0
7, 28080, Note_on_c, 3, 57, 88
7, 28314, Note_off_c, 3, 57, 0
7, 28320, Note_on_c, 3, 54, 88
7, 28554, Note_off_c, 3, 54, 0
7, 28560, Note_on_c, 3, 47, 88
7, 28794, Note_off_c, 3, 47, 0
7, 29040, Note_on_c, 3, 59, 88
7, 29069, Note_off_c, 3, 59, 0
7, 29070, Note_on_c, 3, 57, 88
7, 29114, Note_off_c, 3, 57, 0
7, 29115, Note_on_c, 3, 59, 88
7, 29394, Note_off_c, 3, 59, 0
7, 29400, Note_on_c, 3, 57, 88
7, 29458, Note_off_c, 3, 57, 0
7, 29460, Note_on_c, 3, 55, 88
7, 29518, Note_off_c, 3, 55, 0
7, 29520, Note_on_c, 3, 57, 88
7, 29578, Note_off_c, 3, 57, 0
7, 29580, Note_on_c, 3, 55, 88
7, 29638, Note_off_c, 3, 55, 0
7, 29640, Note_on_c, 3, 54, 88
7, 29698, Note_off_c, 3, 54, 0
7, 29700, Note_on_c, 3, 52, 88
7, 29758, Note_off_c, 3, 52, 0
7, 29760, Note_on_c, 3, 52, 88
7, 29994, Note_off_c, 3, 52, 0
7, 30000, Note_on_c, 3, 51, 88
7, 30234, Note_off_c, 3, 51, 0
7, 30360, Note_on_c, 3, 57, 88
7, 30418, Note_off_c, 3, 57, 0
7, 30420, Note_on_c, 3, 55, 88
7, 30478, Note_off_c, 3, 55, 0
7, 30480, Note_on_c, 3, 54, 88
7, 30538, Note_off_c, 3, 54, 0
7, 30540, Note_on_c, 3, 55, 88
7, 30598, Note_off_c, 3, 55, 0
7, 30600, Note_on_c, 3, 57, 88
7, 30716, Note_off_c, 3, 57, 0
7, 30720, Note_on_c, 3, 55, 88
7, 30836, Note_off_c, 3, 55, 0
7, 30840, Note_on_c, 3, 64, 88
7, 30898, Note_off_c, 3, 64, 0
7, 30900, Note_on_c, 3, 66, 88
7, 30958, Note_off_c, 3, 66, 0
7, 30960, Note_on_c, 3, 67, 88
7, 31018, Note_off_c, 3, 67, 0
7, 31020, Note_on_c, 3, 66, 88
7, 31078, Note_off_c, 3, 66, 0
7, 31080, Note_on_c, 3, 64, 88
7, 31314, Note_off_c, 3, 64, 0
7, 31320, Note_on_c, 3, 71, 88
7, 31554, Note_off_c, 3, 71, 0
7, 31560, Note_on_c, 3, 62, 88
7, 31796, Note_off_c, 3, 62, 0
7, 31800, Note_on_c, 3, 64, 88
7, 31858, Note_off_c, 3, 64, 0
7, 31860, Note_on_c, 3, 62, 88
7, 31918, Note_off_c, 3, 62, 0
7, 31920, Note_on_c, 3, 61, 88
7, 31978, Note_off_c, 3, 61, 0
7, 31980, Note_on_c, 3, 62, 88
7, 32038, Note_off_c, 3, 62, 0
7, 32040, Note_on_c, 3, 64, 88
7, 32274, Note_off_c, 3, 64, 0
7, 32280, Note_on_c, 3, 55, 88
7, 32514, Note_off_c, 3, 55, 0
7, 32520, Note_on_c, 3, 64, 88
7, 32636, Note_off_c, 3, 64, 0
7, 32640, Note_on_c, 3, 54, 88
7, 32756, Note_off_c, 3, 54, 0
7, 32760, Note_on_c, 3, 62, 88
7, 32818, Note_off_c, 3, 62, 0
7, 32820, Note_on_c, 3, 64, 88
7, 32878, Note_off_c, 3, 64, 0
7, 32880, Note_on_c, 3, 66, 88
7, 32938, Note_off_c, 3, 66, 0
7, 32940, Note_on_c, 3, 64, 88
7, 32998, Note_off_c, 3, 64, 0
7, 33000, Note_on_c, 3, 62, 88
7, 33234, Note_off_c, 3, 62, 0
7, 33240, Note_on_c, 3, 69, 88
7, 33474, Note_off_c, 3, 69, 0
7, 33480, Note_on_c, 3, 60, 88
7, 33716, Note_off_c, 3, 60, 0
7, 33720, Note_on_c, 3, 62, 88
7, 33778, Note_off_c, 3, 62, 0
7, 33780, Note_on_c, 3, 60, 88
7, 33838, Note_off_c, 3, 60, 0
7, 33840, Note_on_c, 3, 59, 88
7, 33898, Note_off_c, 3, 59, 0
7, 33900, Note_on_c, 3, 60, 88
7, 33958, Note_off_c, 3, 60, 0
7, 33960, Note_on_c, 3, 62, 88
7, 34194, Note_off_c, 3, 62, 0
7, 34200, Note_on_c, 3, 54, 88
7, 34434, Note_off_c, 3, 54, 0
7, 34440, Note_on_c, 3, 62, 88
7, 34556, Note_off_c, 3, 62, 0
7, 34560, Note_on_c, 3, 52, 88
7, 34794, Note_off_c, 3, 52, 0
7, 34800, Note_on_c, 3, 50, 88
7, 35034, Note_off_c, 3, 50, 0
7, 35040, Note_on_c, 3, 49, 88
7, 35274, Note_off_c, 3, 49, 0
7, 35280, Note_on_c, 3, 47, 88
7, 35636, Note_off_c, 3, 47, 0
7, 35640, Note_on_c, 3, 62, 88
7, 35874, Note_off_c, 3, 62, 0
7, 35880, Note_on_c, 3, 61, 88
7, 35996, Note_off_c, 3, 61, 0
7, 36000, Note_on_c, 3, 53, 88
7, 36116, Note_off_c, 3, 53, 0
7, 36120, Note_on_c, 3, 59, 88
7, 36354, Note_off_c, 3, 59, 0
7, 36360, Note_on_c, 3, 57, 88
7, 36476, Note_off_c, 3, 57, 0
7, 36480, Note_on_c, 3, 50, 88
7, 36596, Note_off_c, 3, 50, 0
7, 36600, Note_on_c, 3, 56, 88
7, 36834, Note_off_c, 3, 56, 0
7, 36840, Note_on_c, 3, 54, 88
7, 36956, Note_off_c, 3, 54, 0
7, 36960, Note_on_c, 3, 47, 88
7, 37194, Note_off_c, 3, 47, 0
7, 37200, Note_on_c, 3, 59, 88
7, 37434, Note_off_c, 3, 59, 0
7, 37440, Note_on_c, 3, 53, 88
7, 37674, Note_off_c, 3, 53, 0
7, 37680, Note_on_c, 3, 56, 88
7, 37914, Note_off_c, 3, 56, 0
7, 37920, Note_on_c, 3, 49, 88
7, 38154, Note_off_c, 3, 49, 0
7, 38160, Note_on_c, 3, 53, 88
7, 38394, Note_off_c, 3, 53, 0
7, 38400, Note_on_c, 3, 42, 88
7, 38634, Note_off_c, 3, 42, 0
7, 38640, Note_on_c, 3, 45, 88
7, 38874, Note_off_c, 3, 45, 0
7, 38880, Note_on_c, 3, 49, 88
7, 39174, Note_off_c, 3, 49, 0
7, 39180, Note_on_c, 3, 50, 88
7, 39238, Note_off_c, 3, 50, 0
7, 39240, Note_on_c, 3, 49, 88
7, 39298, Note_off_c, 3, 49, 0
7, 39300, Note_on_c, 3, 48, 88
7, 39358, Note_off_c, 3, 48, 0
7, 39360, Note_on_c, 3, 49, 88
7, 39594, Note_off_c, 3, 49, 0
7, 39600, Note_on_c, 3, 41, 88
7, 39834, Note_off_c, 3, 41, 0
7, 39840, Note_on_c, 3, 44, 88
7, 40074, Note_off_c, 3, 44, 0
7, 40080, Note_on_c, 3, 49, 88
7, 40314, Note_off_c, 3, 49, 0
7, 40320, Note_on_c, 3, 42, 88
7, 40436, Note_off_c, 3, 42, 0
7, 40440, Note_on_c, 3, 49, 88
7, 40556, Note_off_c, 3, 49, 0
7, 40560, Note_on_c, 3, 54, 88
7, 40676, Note_off_c, 3, 54, 0
7, 40680, Note_on_c, 3, 56, 88
7, 40796, Note_off_c, 3, 56, 0
7, 40800, Note_on_c, 3, 57, 88
7, 40916, Note_off_c, 3, 57, 0
7, 40920, Note_on_c, 3, 61, 88
7, 41036, Note_off_c, 3, 61, 0
7, 41040, Note_on_c, 3, 54, 88
7, 41156, Note_off_c, 3, 54, 0
7, 41160, Note_on_c, 3, 57, 88
7, 41276, Note_off_c, 3, 57, 0
7, 41280, Note_on_c, 3, 56, 88
7, 41396, Note_off_c, 3, 56, 0
7, 41400, Note_on_c, 3, 61, 88
7, 41516, Note_off_c, 3, 61, 0
7, 41520, Note_on_c, 3, 62, 88
7, 41578, Note_off_c, 3, 62, 0
7, 41580, Note_on_c, 3, 61, 88
7, 41638, Note_off_c, 3, 61, 0
7, 41640, Note_on_c, 3, 60, 88
7, 41698, Note_off_c, 3, 60, 0
7, 41700, Note_on_c, 3, 61, 88
7, 41758, Note_off_c, 3, 61, 0
7, 41760, Note_on_c, 3, 65, 88
7, 41876, Note_off_c, 3, 65, 0
7, 41880, Note_on_c, 3, 61, 88
7, 41996, Note_off_c, 3, 61, 0
7, 42000, Note_on_c, 3, 68, 88
7, 42116, Note_off_c, 3, 68, 0
7, 42120, Note_on_c, 3, 59, 88
7, 42236, Note_off_c, 3, 59, 0
7, 42240, Note_on_c, 3, 57, 88
7, 42474, Note_off_c, 3, 57, 0
7, 42480, Note_on_c, 3, 54, 88
7, 42714, Note_off_c, 3, 54, 0
7, 42720, Note_on_c, 3, 56, 88
7, 42954, Note_off_c, 3, 56, 0
7, 42960, Note_on_c, 3, 58, 88
7, 43194, Note_off_c, 3, 58, 0
7, 43200, Note_on_c, 3, 59, 88
7, 43434, Note_off_c, 3, 59, 0
7, 43440, Note_on_c, 3, 47, 88
7, 43674, Note_off_c, 3, 47, 0
7, 43680, Note_on_c, 3, 49, 88
7, 43914, Note_off_c, 3, 49, 0
7, 43920, Note_on_c, 3, 51, 88
7, 44154, Note_off_c, 3, 51, 0
7, 44160, Note_on_c, 3, 40, 88
7, 44394, Note_off_c, 3, 40, 0
7, 44400, Note_on_c, 3, 52, 88
7, 44634, Note_off_c, 3, 52, 0
7, 44640, Note_on_c, 3, 54, 88
7, 44874, Note_off_c, 3, 54, 0
7, 44880, Note_on_c, 3, 55, 88
7, 45114, Note_off_c, 3, 55, 0
7, 45120, Note_on_c, 3, 57, 88
7, 45354, Note_off_c, 3, 57, 0
7, 45360, Note_on_c, 3, 45, 88
7, 45594, Note_off_c, 3, 45, 0
7, 45600, Note_on_c, 3, 47, 88
7, 45834, Note_off_c, 3, 47, 0
7, 45840, Note_on_c, 3, 49, 88
7, 46074, Note_off_c, 3, 49, 0
7, 46080, Note_on_c, 3, 38, 88
7, 46314, Note_off_c, 3, 38, 0
7, 46320, Note_on_c, 3, 42, 88
7, 46554, Note_off_c, 3, 42, 0
7, 46560, Note_on_c, 3, 45, 88
7, 46794, Note_off_c, 3, 45, 0
7, 46800, Note_on_c, 3, 50, 88
7, 47034, Note_off_c, 3, 50, 0
7, 47040, Note_on_c, 3, 43, 88
7, 47274, Note_off_c, 3, 43, 0
7, 47280, Note_on_c, 3, 47, 88
7, 47514, Note_off_c, 3, 47, 0
7, 47520, Note_on_c, 3, 50, 88
7, 47754, Note_off_c, 3, 50, 0
7, 47760, Note_on_c, 3, 55, 88
7, 47994, Note_off_c, 3, 55, 0
7, 48000, Note_on_c, 3, 49, 88
7, 48234, Note_off_c, 3, 49, 0
7, 48240, Note_on_c, 3, 52, 88
7, 48474, Note_off_c, 3, 52, 0
7, 48480, Note_on_c, 3, 55, 88
7, 48714, Note_off_c, 3, 55, 0
7, 48720, Note_on_c, 3, 61, 88
7, 48954, Note_off_c, 3, 61, 0
7, 48960, Note_on_c, 3, 54, 88
7, 49194, Note_off_c, 3, 54, 0
7, 49200, Note_on_c, 3, 58, 88
7, 49434, Note_off_c, 3, 58, 0
7, 49440, Note_on_c, 3, 61, 88
7, 49674, Note_off_c, 3, 61, 0
7, 49680, Note_on_c, 3, 66, 88
7, 49914, Note_off_c, 3, 66, 0
7, 49920, Note_on_c, 3, 59, 88
7, 50154, Note_off_c, 3, 59, 0
7, 50160, Note_on_c, 3, 67, 88
7, 50394, Note_off_c, 3, 67, 0
7, 50400, Note_on_c, 3, 57, 88
7, 50516, Note_off_c, 3, 57, 0
7, 50520, Note_on_c, 3, 67, 88
7, 50636, Note_off_c, 3, 67, 0
7, 50640, Note_on_c, 3, 66, 88
7, 50756, Note_off_c, 3, 66, 0
7, 50760, Note_on_c, 3, 57, 88
7, 50876, Note_off_c, 3, 57, 0
7, 50880, Note_on_c, 3, 55, 88
7, 51114, Note_off_c, 3, 55, 0
7, 51120, Note_on_c, 3, 64, 88
7, 51354, Note_off_c, 3, 64, 0
7, 51360, Note_on_c, 3, 54, 88
7, 51476, Note_off_c, 3, 54, 0
7, 51480, Note_on_c, 3, 64, 88
7, 51596, Note_off_c, 3, 64, 0
7, 51600, Note_on_c, 3, 62, 88
7, 51716, Note_off_c, 3, 62, 0
7, 51720, Note_on_c, 3, 54, 88
7, 51836, Note_off_c, 3, 54, 0
7, 51840, Note_on_c, 3, 52, 88
7, 51956, Note_off_c, 3, 52, 0
7, 51960, Note_on_c, 3, 62, 88
7, 52076, Note_off_c, 3, 62, 0
7, 52080, Note_on_c, 3, 60, 88
7, 52196, Note_off_c, 3, 60, 0
7, 52200, Note_on_c, 3, 52, 88
7, 52316, Note_off_c, 3, 52, 0
7, 52320, Note_on_c, 3, 50, 88
7, 52436, Note_off_c, 3, 50, 0
7, 52440, Note_on_c, 3, 60, 88
7, 52556, Note_off_c, 3, 60, 0
7, 52560, Note_on_c, 3, 59, 88
7, 52676, Note_off_c, 3, 59, 0
7, 52680, Note_on_c, 3, 50, 88
7, 52796, Note_off_c, 3, 50, 0
7, 52800, Note_on_c, 3, 49, 88
7, 52916, Note_off_c, 3, 49, 0
7, 52920, Note_on_c, 3, 59, 88
7, 53036, Note_off_c, 3, 59, 0
7, 53040, Note_on_c, 3, 58, 88
7, 53156, Note_off_c, 3, 58, 0
7, 53160, Note_on_c, 3, 49, 88
7, 53276, Note_off_c, 3, 49, 0
7, 53280, Note_on_c, 3, 47, 88
7, 53396, Note_off_c, 3, 47, 0
7, 53400, Note_on_c, 3, 58, 88
7, 53516, Note_off_c, 3, 58, 0
7, 53520, Note_on_c, 3, 59, 88
7, 53636, Note_off_c, 3, 59, 0
7, 53640, Note_on_c, 3, 47, 88
7, 53756, Note_off_c, 3, 47, 0
7, 53760, Note_on_c, 3, 46, 88
7, 54230, Note_off_c, 3, 46, 0
7, 54480, Note_on_c, 3, 58, 88
7, 54714, Note_off_c, 3, 58, 0
7, 54720, Note_on_c, 3, 59, 88
7, 54954, Note_off_c, 3, 59, 0
7, 54960, Note_on_c, 3, 55, 88
7, 55194, Note_off_c, 3, 55, 0
7, 55200, Note_on_c, 3, 52, 88
7, 55434, Note_off_c, 3, 52, 0
7, 55440, Note_on_c, 3, 54, 88
7, 55674, Note_off_c, 3, 54, 0
7, 55680, Note_on_c, 3, 50, 88
7, 55796, Note_off_c, 3, 50, 0
7, 55800, Note_on_c, 3, 54, 88
7, 55916, Note_off_c, 3, 54, 0
7, 55920, Note_on_c, 3, 47, 88
7, 56036, Note_off_c, 3, 47, 0
7, 56040, Note_on_c, 3, 49, 88
7, 56156, Note_off_c, 3, 49, 0
7, 56160, Note_on_c, 3, 50, 88
7, 56276, Note_off_c, 3, 50, 0
7, 56280, Note_on_c, 3, 54, 88
7, 56396, Note_off_c, 3, 54, 0
7, 56400, Note_on_c, 3, 47, 88
7, 56516, Note_off_c, 3, 47, 0
7, 56520, Note_on_c, 3, 50, 88
7, 56636, Note_off_c, 3, 50, 0
7, 56640, Note_on_c, 3, 49, 88
7, 56756, Note_off_c, 3, 49, 0
7, 56760, Note_on_c, 3, 54, 88
7, 56876, Note_off_c, 3, 54, 0
7, 56880, Note_on_c, 3, 55, 88
7, 56938, Note_off_c, 3, 55, 0
7, 56940, Note_on_c, 3, 54, 88
7, 56998, Note_off_c, 3, 54, 0
7, 57000, Note_on_c, 3, 53, 88
7, 57058, Note_off_c, 3, 53, 0
7, 57060, Note_on_c, 3, 54, 88
7, 57118, Note_off_c, 3, 54, 0
7, 57120, Note_on_c, 3, 58, 88
7, 57236, Note_off_c, 3, 58, 0
7, 57240, Note_on_c, 3, 54, 88
7, 57356, Note_off_c, 3, 54, 0
7, 57360, Note_on_c, 3, 61, 88
7, 57476, Note_off_c, 3, 61, 0
7, 57480, Note_on_c, 3, 52, 88
7, 57596, Note_off_c, 3, 52, 0
7, 57600, Note_on_c, 3, 50, 88
7, 57716, Note_off_c, 3, 50, 0
7, 57720, Note_on_c, 3, 54, 88
7, 57836, Note_off_c, 3, 54, 0
7, 57840, Note_on_c, 3, 47, 88
7, 57956, Note_off_c, 3, 47, 0
7, 57960, Note_on_c, 3, 49, 88
7, 58076, Note_off_c, 3, 49, 0
7, 58080, Note_on_c, 3, 50, 88
7, 58196, Note_off_c, 3, 50, 0
7, 58200, Note_on_c, 3, 54, 88
7, 58316, Note_off_c, 3, 54, 0
7, 58320, Note_on_c, 3, 47, 88
7, 58436, Note_off_c, 3, 47, 0
7, 58440, Note_on_c, 3, 49, 88
7, 58556, Note_off_c, 3, 49, 0
7, 58560, Note_on_c, 3, 50, 88
7, 58794, Note_off_c, 3, 50, 0
7, 58800, Note_on_c, 3, 38, 88
7, 59034, Note_off_c, 3, 38, 0
7, 59280, Note_on_c, 3, 50, 88
7, 59514, Note_off_c, 3, 50, 0
7, 59520, Note_on_c, 3, 49, 88
7, 59754, Note_off_c, 3, 49, 0
7, 59760, Note_on_c, 3, 61, 88
7, 59994, Note_off_c, 3, 61, 0
7, 60120, Note_on_c, 3, 61, 88
7, 60178, Note_off_c, 3, 61, 0
7, 60180, Note_on_c, 3, 62, 88
7, 60238, Note_off_c, 3, 62, 0
7, 60240, Note_on_c, 3, 64, 88
7, 60298, Note_off_c, 3, 64, 0
7, 60300, Note_on_c, 3, 62, 88
7, 60358, Note_off_c, 3, 62, 0
7, 60360, Note_on_c, 3, 61, 88
7, 60476, Note_off_c, 3, 61, 0
7, 60480, Note_on_c, 3, 59, 88
7, 60714, Note_off_c, 3, 59, 0
7, 60720, Note_on_c, 3, 58, 88
7, 60954, Note_off_c, 3, 58, 0
7, 61080, Note_on_c, 3, 54, 88
7, 61138, Note_off_c, 3, 54, 0
7, 61140, Note_on_c, 3, 56, 88
7, 61198, Note_off_c, 3, 56, 0
7, 61200, Note_on_c, 3, 58, 88
7, 61258, Note_off_c, 3, 58, 0
7, 61260, Note_on_c, 3, 59, 88
7, 61318, Note_off_c, 3, 59, 0
7, 61320, Note_on_c, 3, 61, 88
7, 61436, Note_off_c, 3, 61, 0
7, 61440, Note_on_c, 3, 50, 88
7, 61674, Note_off_c, 3, 50, 0
7, 61680, Note_on_c, 3, 52, 88
7, 61914, Note_off_c, 3, 52, 0
7, 61920, Note_on_c, 3, 54, 88
7, 62154, Note_off_c, 3, 54, 0
7, 62160, Note_on_c, 3, 42, 88
7, 62394, Note_off_c, 3, 42, 0
7, 62400, Note_on_c, 3, 47, 88
7, 63345, Note_off_c, 3, 47, 0
7, 63345, End_track
0, 0, End_of_file
