0, 0, Header, 1, 6, 240
1, 0, Start_track
1, 0, Time_signature, 4, 2, 24, 8
1, 0, Tempo, 625000
1, 0, SMPTE_offset, 64, 0, 0, 0, 93
1, 0, End_track
2, 0, Start_track
2, 0, Title_t, "(C) & (P) 1993"
2, 127, End_track
3, 0, Start_track
3, 0, Title_t, "CCARH,Stanford"
3, 0, End_track
4, 0, Start_track
4, 0, Title_t, "Track 1"
4, 0, Program_c, 0, 6
4, 120, Note_on_c, 0, 67, 88
4, 178, Note_off_c, 0, 67, 0
4, 180, Note_on_c, 0, 72, 88
4, 238, Note_off_c, 0, 72, 0
4, 240, Note_on_c, 0, 76, 88
4, 298, Note_off_c, 0, 76, 0
4, 300, Note_on_c, 0, 67, 88
4, 358, Note_off_c, 0, 67, 0
4, 360, Note_on_c, 0, 72, 88
4, 418, Note_off_c, 0, 72, 0
4, 420, Note_on_c, 0, 76, 88
4, 478, Note_off_c, 0, 76, 0
4, 600, Note_on_c, 0, 67, 88
4, 658, Note_off_c, 0, 67, 0
4, 660, Note_on_c, 0, 72, 88
4, 718, Note_off_c, 0, 72, 0
4, 720, Note_on_c, 0, 76, 88
4, 778, Note_off_c, 0, 76, 0
4, 780, Note_on_c, 0, 67, 88
4, 838, Note_off_c, 0, 67, 0
4, 840, Note_on_c, 0, 72, 88
4, 898, Note_off_c, 0, 72, 0
4, 900, Note_on_c, 0, 76, 88
4, 958, Note_off_c, 0, 76, 0
4, 1080, Note_on_c, 0, 69, 88
4, 1138, Note_off_c, 0, 69, 0
4, 1140, Note_on_c, 0, 74, 88
4, 1198, Note_off_c, 0, 74, 0
4, 1200, Note_on_c, 0, 77, 88
4, 1258, Note_off_c, 0, 77, 0
4, 1260, Note_on_c, 0, 69, 88
4, 1318, Note_off_c, 0, 69, 0
4, 1320, Note_on_c, 0, 74, 88
4, 1378, Note_off_c, 0, 74, 0
4, 1380, Note_on_c, 0, 77, 88
4, 1438, Note_off_c, 0, 77, 0
4, 1560, Note_on_c, 0, 69, 88
4, 1618, Note_off_c, 0, 69, 0
4, 1620, Note_on_c, 0, 74, 88
4, 1678, Note_off_c, 0, 74, 0
4, 1680, Note_on_c, 0, 77, 88
4, 1738, Note_off_c, 0, 77, 0
4, 1740, Note_on_c, 0, 69, 88
4, 1798, Note_off_c, 0, 69, 0
4, 1800, Note_on_c, 0, 74, 88
4, 1858, Note_off_c, 0, 74, 0
4, 1860, Note_on_c, 0, 77, 88
4, 1918, Note_off_c, 0, 77, 0
4, 2040, Note_on_c, 0, 67, 88
4, 2098, Note_off_c, 0, 67, 0
4, 2100, Note_on_c, 0, 74, 88
4, 2158, Note_off_c, 0, 74, 0
4, 2160, Note_on_c, 0, 77, 88
4, 2218, Note_off_c, 0, 77, 0
4, 2220, Note_on_c, 0, 67, 88
4, 2278, Note_off_c, 0, 67, 0
4, 2280, Note_on_c, 0, 74, 88
4, 2338, Note_off_c, 0, 74, 0
4, 2340, Note_on_c, 0, 77, 88
4, 2398, Note_off_c, 0, 77, 0
4, 2520, Note_on_c, 0, 67, 88
4, 2578, Note_off_c, 0, 67, 0
4, 2580, Note_on_c, 0, 74, 88
4, 2638, Note_off_c, 0, 74, 0
4, 2640, Note_on_c, 0, 77, 88
4, 2698, Note_off_c, 0, 77, 0
4, 2700, Note_on_c, 0, 67, 88
4, 2758, Note_off_c, 0, 67, 0
4, 2760, Note_on_c, 0, 74, 88
4, 2818, Note_off_c, 0, 74, 0
4, 2820, Note_on_c, 0, 77, 88
4, 2878, Note_off_c, 0, 77, 0
4, 3000, Note_on_c, 0, 67, 88
4, 3058, Note_off_c, 0, 67, 0
4, 3060, Note_on_c, 0, 72, 88
4, 3118, Note_off_c, 0, 72, 0
4, 3120, Note_on_c, 0, 76, 88
4, 3178, Note_off_c, 0, 76, 0
4, 3180, Note_on_c, 0, 67, 88
4, 3238, Note_off_c, 0, 67, 0
4, 3240, Note_on_c, 0, 72, 88
4, 3298, Note_off_c, 0, 72, 0
4, 3300, Note_on_c, 0, 76, 88
4, 3358, Note_off_c, 0, 76, 0
4, 3480, Note_on_c, 0, 67, 88
4, 3538, Note_off_c, 0, 67, 0
4, 3540, Note_on_c, 0, 72, 88
4, 3598, Note_off_c, 0, 72, 0
4, 3600, Note_on_c, 0, 76, 88
4, 3658, Note_off_c, 0, 76, 0
4, 3660, Note_on_c, 0, 67, 88
4, 3718, Note_off_c, 0, 67, 0
4, 3720, Note_on_c, 0, 72, 88
4, 3778, Note_off_c, 0, 72, 0
4, 3780, Note_on_c, 0, 76, 88
4, 3838, Note_off_c, 0, 76, 0
4, 3960, Note_on_c, 0, 69, 88
4, 4018, Note_off_c, 0, 69, 0
4, 4020, Note_on_c, 0, 76, 88
4, 4078, Note_off_c, 0, 76, 0
4, 4080, Note_on_c, 0, 81, 88
4, 4138, Note_off_c, 0, 81, 0
4, 4140, Note_on_c, 0, 69, 88
4, 4198, Note_off_c, 0, 69, 0
4, 4200, Note_on_c, 0, 76, 88
4, 4258, Note_off_c, 0, 76, 0
4, 4260, Note_on_c, 0, 81, 88
4, 4318, Note_off_c, 0, 81, 0
4, 4440, Note_on_c, 0, 69, 88
4, 4498, Note_off_c, 0, 69, 0
4, 4500, Note_on_c, 0, 76, 88
4, 4558, Note_off_c, 0, 76, 0
4, 4560, Note_on_c, 0, 81, 88
4, 4618, Note_off_c, 0, 81, 0
4, 4620, Note_on_c, 0, 69, 88
4, 4678, Note_off_c, 0, 69, 0
4, 4680, Note_on_c, 0, 76, 88
4, 4738, Note_off_c, 0, 76, 0
4, 4740, Note_on_c, 0, 81, 88
4, 4798, Note_off_c, 0, 81, 0
4, 4920, Note_on_c, 0, 66, 88
4, 4978, Note_off_c, 0, 66, 0
4, 4980, Note_on_c, 0, 69, 88
4, 5038, Note_off_c, 0, 69, 0
4, 5040, Note_on_c, 0, 74, 88
4, 5098, Note_off_c, 0, 74, 0
4, 5100, Note_on_c, 0, 66, 88
4, 5158, Note_off_c, 0, 66, 0
4, 5160, Note_on_c, 0, 69, 88
4, 5218, Note_off_c, 0, 69, 0
4, 5220, Note_on_c, 0, 74, 88
4, 5278, Note_off_c, 0, 74, 0
4, 5400, Note_on_c, 0, 66, 88
4, 5458, Note_off_c, 0, 66, 0
4, 5460, Note_on_c, 0, 69, 88
4, 5518, Note_off_c, 0, 69, 0
4, 5520, Note_on_c, 0, 74, 88
4, 5578, Note_off_c, 0, 74, 0
4, 5580, Note_on_c, 0, 66, 88
4, 5638, Note_off_c, 0, 66, 0
4, 5640, Note_on_c, 0, 69, 88
4, 5698, Note_off_c, 0, 69, 0
4, 5700, Note_on_c, 0, 74, 88
4, 5758, Note_off_c, 0, 74, 0
4, 5880, Note_on_c, 0, 67, 88
4, 5938, Note_off_c, 0, 67, 0
4, 5940, Note_on_c, 0, 74, 88
4, 5998, Note_off_c, 0, 74, 0
4, 6000, Note_on_c, 0, 79, 88
4, 6058, Note_off_c, 0, 79, 0
4, 6060, Note_on_c, 0, 67, 88
4, 6118, Note_off_c, 0, 67, 0
4, 6120, Note_on_c, 0, 74, 88
4, 6178, Note_off_c, 0, 74, 0
4, 6180, Note_on_c, 0, 79, 88
4, 6238, Note_off_c, 0, 79, 0
4, 6360, Note_on_c, 0, 67, 88
4, 6418, Note_off_c, 0, 67, 0
4, 6420, Note_on_c, 0, 74, 88
4, 6478, Note_off_c, 0, 74, 0
4, 6480, Note_on_c, 0, 79, 88
4, 6538, Note_off_c, 0, 79, 0
4, 6540, Note_on_c, 0, 67, 88
4, 6598, Note_off_c, 0, 67, 0
4, 6600, Note_on_c, 0, 74, 88
4, 6658, Note_off_c, 0, 74, 0
4, 6660, Note_on_c, 0, 79, 88
4, 6718, Note_off_c, 0, 79, 0
4, 6840, Note_on_c, 0, 64, 88
4, 6898, Note_off_c, 0, 64, 0
4, 6900, Note_on_c, 0, 67, 88
4, 6958, Note_off_c, 0, 67, 0
4, 6960, Note_on_c, 0, 72, 88
4, 7018, Note_off_c, 0, 72, 0
4, 7020, Note_on_c, 0, 64, 88
4, 7078, Note_off_c, 0, 64, 0
4, 7080, Note_on_c, 0, 67, 88
4, 7138, Note_off_c, 0, 67, 0
4, 7140, Note_on_c, 0, 72, 88
4, 7198, Note_off_c, 0, 72, 0
4, 7320, Note_on_c, 0, 64, 88
4, 7378, Note_off_c, 0, 64, 0
4, 7380, Note_on_c, 0, 67, 88
4, 7438, Note_off_c, 0, 67, 0
4, 7440, Note_on_c, 0, 72, 88
4, 7498, Note_off_c, 0, 72, 0
4, 7500, Note_on_c, 0, 64, 88
4, 7558, Note_off_c, 0, 64, 0
4, 7560, Note_on_c, 0, 67, 88
4, 7618, Note_off_c, 0, 67, 0
4, 7620, Note_on_c, 0, 72, 88
4, 7678, Note_off_c, 0, 72, 0
4, 7800, Note_on_c, 0, 64, 88
4, 7858, Note_off_c, 0, 64, 0
4, 7860, Note_on_c, 0, 67, 88
4, 7918, Note_off_c, 0, 67, 0
4, 7920, Note_on_c, 0, 72, 88
4, 7978, Note_off_c, 0, 72, 0
4, 7980, Note_on_c, 0, 64, 88
4, 8038, Note_off_c, 0, 64, 0
4, 8040, Note_on_c, 0, 67, 88
4, 8098, Note_off_c, 0, 67, 0
4, 8100, Note_on_c, 0, 72, 88
4, 8158, Note_off_c, 0, 72, 0
4, 8280, Note_on_c, 0, 64, 88
4, 8338, Note_off_c, 0, 64, 0
4, 8340, Note_on_c, 0, 67, 88
4, 8398, Note_off_c, 0, 67, 0
4, 8400, Note_on_c, 0, 72, 88
4, 8458, Note_off_c, 0, 72, 0
4, 8460, Note_on_c, 0, 64, 88
4, 8518, Note_off_c, 0, 64, 0
4, 8520, Note_on_c, 0, 67, 88
4, 8578, Note_off_c, 0, 67, 0
4, 8580, Note_on_c, 0, 72, 88
4, 8638, Note_off_c, 0, 72, 0
4, 8760, Note_on_c, 0, 62, 88
4, 8818, Note_off_c, 0, 62, 0
4, 8820, Note_on_c, 0, 66, 88
4, 8878, Note_off_c, 0, 66, 0
4, 8880, Note_on_c, 0, 72, 88
4, 8938, Note_off_c, 0, 72, 0
4, 8940, Note_on_c, 0, 62, 88
4, 8998, Note_off_c, 0, 62, 0
4, 9000, Note_on_c, 0, 66, 88
4, 9058, Note_off_c, 0, 66, 0
4, 9060, Note_on_c, 0, 72, 88
4, 9118, Note_off_c, 0, 72, 0
4, 9240, Note_on_c, 0, 62, 88
4, 9298, Note_off_c, 0, 62, 0
4, 9300, Note_on_c, 0, 66, 88
4, 9358, Note_off_c, 0, 66, 0
4, 9360, Note_on_c, 0, 72, 88
4, 9418, Note_off_c, 0, 72, 0
4, 9420, Note_on_c, 0, 62, 88
4, 9478, Note_off_c, 0, 62, 0
4, 9480, Note_on_c, 0, 66, 88
4, 9538, Note_off_c, 0, 66, 0
4, 9540, Note_on_c, 0, 72, 88
4, 9598, Note_off_c, 0, 72, 0
4, 9720, Note_on_c, 0, 62, 88
4, 9778, Note_off_c, 0, 62, 0
4, 9780, Note_on_c, 0, 67, 88
4, 9838, Note_off_c, 0, 67, 0
4, 9840, Note_on_c, 0, 71, 88
4, 9898, Note_off_c, 0, 71, 0
4, 9900, Note_on_c, 0, 62, 88
4, 9958, Note_off_c, 0, 62, 0
4, 9960, Note_on_c, 0, 67, 88
4, 10018, Note_off_c, 0, 67, 0
4, 10020, Note_on_c, 0, 71, 88
4, 10078, Note_off_c, 0, 71, 0
4, 10200, Note_on_c, 0, 62, 88
4, 10258, Note_off_c, 0, 62, 0
4, 10260, Note_on_c, 0, 67, 88
4, 10318, Note_off_c, 0, 67, 0
4, 10320, Note_on_c, 0, 71, 88
4, 10378, Note_off_c, 0, 71, 0
4, 10380, Note_on_c, 0, 62, 88
4, 10438, Note_off_c, 0, 62, 0
4, 10440, Note_on_c, 0, 67, 88
4, 10498, Note_off_c, 0, 67, 0
4, 10500, Note_on_c, 0, 71, 88
4, 10558, Note_off_c, 0, 71, 0
4, 10680, Note_on_c, 0, 64, 88
4, 10738, Note_off_c, 0, 64, 0
4, 10740, Note_on_c, 0, 67, 88
4, 10798, Note_off_c, 0, 67, 0
4, 10800, Note_on_c, 0, 73, 88
4, 10858, Note_off_c, 0, 73, 0
4, 10860, Note_on_c, 0, 64, 88
4, 10918, Note_off_c, 0, 64, 0
4, 10920, Note_on_c, 0, 67, 88
4, 10978, Note_off_c, 0, 67, 0
4, 10980, Note_on_c, 0, 73, 88
4, 11038, Note_off_c, 0, 73, 0
4, 11160, Note_on_c, 0, 64, 88
4, 11218, Note_off_c, 0, 64, 0
4, 11220, Note_on_c, 0, 67, 88
4, 11278, Note_off_c, 0, 67, 0
4, 11280, Note_on_c, 0, 73, 88
4, 11338, Note_off_c, 0, 73, 0
4, 11340, Note_on_c, 0, 64, 88
4, 11398, Note_off_c, 0, 64, 0
4, 11400, Note_on_c, 0, 67, 88
4, 11458, Note_off_c, 0, 67, 0
4, 11460, Note_on_c, 0, 73, 88
4, 11518, Note_off_c, 0, 73, 0
4, 11640, Note_on_c, 0, 62, 88
4, 11698, Note_off_c, 0, 62, 0
4, 11700, Note_on_c, 0, 69, 88
4, 11758, Note_off_c, 0, 69, 0
4, 11760, Note_on_c, 0, 74, 88
4, 11818, Note_off_c, 0, 74, 0
4, 11820, Note_on_c, 0, 62, 88
4, 11878, Note_off_c, 0, 62, 0
4, 11880, Note_on_c, 0, 69, 88
4, 11938, Note_off_c, 0, 69, 0
4, 11940, Note_on_c, 0, 74, 88
4, 11998, Note_off_c, 0, 74, 0
4, 12120, Note_on_c, 0, 62, 88
4, 12178, Note_off_c, 0, 62, 0
4, 12180, Note_on_c, 0, 69, 88
4, 12238, Note_off_c, 0, 69, 0
4, 12240, Note_on_c, 0, 74, 88
4, 12298, Note_off_c, 0, 74, 0
4, 12300, Note_on_c, 0, 62, 88
4, 12358, Note_off_c, 0, 62, 0
4, 12360, Note_on_c, 0, 69, 88
4, 12418, Note_off_c, 0, 69, 0
4, 12420, Note_on_c, 0, 74, 88
4, 12478, Note_off_c, 0, 74, 0
4, 12600, Note_on_c, 0, 62, 88
4, 12658, Note_off_c, 0, 62, 0
4, 12660, Note_on_c, 0, 65, 88
4, 12718, Note_off_c, 0, 65, 0
4, 12720, Note_on_c, 0, 71, 88
4, 12778, Note_off_c, 0, 71, 0
4, 12780, Note_on_c, 0, 62, 88
4, 12838, Note_off_c, 0, 62, 0
4, 12840, Note_on_c, 0, 65, 88
4, 12898, Note_off_c, 0, 65, 0
4, 12900, Note_on_c, 0, 71, 88
4, 12958, Note_off_c, 0, 71, 0
4, 13080, Note_on_c, 0, 62, 88
4, 13138, Note_off_c, 0, 62, 0
4, 13140, Note_on_c, 0, 65, 88
4, 13198, Note_off_c, 0, 65, 0
4, 13200, Note_on_c, 0, 71, 88
4, 13258, Note_off_c, 0, 71, 0
4, 13260, Note_on_c, 0, 62, 88
4, 13318, Note_off_c, 0, 62, 0
4, 13320, Note_on_c, 0, 65, 88
4, 13378, Note_off_c, 0, 65, 0
4, 13380, Note_on_c, 0, 71, 88
4, 13438, Note_off_c, 0, 71, 0
4, 13560, Note_on_c, 0, 60, 88
4, 13618, Note_off_c, 0, 60, 0
4, 13620, Note_on_c, 0, 67, 88
4, 13678, Note_off_c, 0, 67, 0
4, 13680, Note_on_c, 0, 72, 88
4, 13738, Note_off_c, 0, 72, 0
4, 13740, Note_on_c, 0, 60, 88
4, 13798, Note_off_c, 0, 60, 0
4, 13800, Note_on_c, 0, 67, 88
4, 13858, Note_off_c, 0, 67, 0
4, 13860, Note_on_c, 0, 72, 88
4, 13918, Note_off_c, 0, 72, 0
4, 14040, Note_on_c, 0, 60, 88
4, 14098, Note_off_c, 0, 60, 0
4, 14100, Note_on_c, 0, 67, 88
4, 14158, Note_off_c, 0, 67, 0
4, 14160, Note_on_c, 0, 72, 88
4, 14218, Note_off_c, 0, 72, 0
4, 14220, Note_on_c, 0, 60, 88
4, 14278, Note_off_c, 0, 60, 0
4, 14280, Note_on_c, 0, 67, 88
4, 14338, Note_off_c, 0, 67, 0
4, 14340, Note_on_c, 0, 72, 88
4, 14398, Note_off_c, 0, 72, 0
4, 14520, Note_on_c, 0, 57, 88
4, 14578, Note_off_c, 0, 57, 0
4, 14580, Note_on_c, 0, 60, 88
4, 14638, Note_off_c, 0, 60, 0
4, 14640, Note_on_c, 0, 65, 88
4, 14698, Note_off_c, 0, 65, 0
4, 14700, Note_on_c, 0, 57, 88
4, 14758, Note_off_c, 0, 57, 0
4, 14760, Note_on_c, 0, 60, 88
4, 14818, Note_off_c, 0, 60, 0
4, 14820, Note_on_c, 0, 65, 88
4, 14878, Note_off_c, 0, 65, 0
4, 15000, Note_on_c, 0, 57, 88
4, 15058, Note_off_c, 0, 57, 0
4, 15060, Note_on_c, 0, 60, 88
4, 15118, Note_off_c, 0, 60, 0
4, 15120, Note_on_c, 0, 65, 88
4, 15178, Note_off_c, 0, 65, 0
4, 15180, Note_on_c, 0, 57, 88
4, 15238, Note_off_c, 0, 57, 0
4, 15240, Note_on_c, 0, 60, 88
4, 15298, Note_off_c, 0, 60, 0
4, 15300, Note_on_c, 0, 65, 88
4, 15358, Note_off_c, 0, 65, 0
4, 15480, Note_on_c, 0, 57, 88
4, 15538, Note_off_c, 0, 57, 0
4, 15540, Note_on_c, 0, 60, 88
4, 15598, Note_off_c, 0, 60, 0
4, 15600, Note_on_c, 0, 65, 88
4, 15658, Note_off_c, 0, 65, 0
4, 15660, Note_on_c, 0, 57, 88
4, 15718, Note_off_c, 0, 57, 0
4, 15720, Note_on_c, 0, 60, 88
4, 15778, Note_off_c, 0, 60, 0
4, 15780, Note_on_c, 0, 65, 88
4, 15838, Note_off_c, 0, 65, 0
4, 15960, Note_on_c, 0, 57, 88
4, 16018, Note_off_c, 0, 57, 0
4, 16020, Note_on_c, 0, 60, 88
4, 16078, Note_off_c, 0, 60, 0
4, 16080, Note_on_c, 0, 65, 88
4, 16138, Note_off_c, 0, 65, 0
4, 16140, Note_on_c, 0, 57, 88
4, 16198, Note_off_c, 0, 57, 0
4, 16200, Note_on_c, 0, 60, 88
4, 16258, Note_off_c, 0, 60, 0
4, 16260, Note_on_c, 0, 65, 88
4, 16318, Note_off_c, 0, 65, 0
4, 16440, Note_on_c, 0, 55, 88
4, 16498, Note_off_c, 0, 55, 0
4, 16500, Note_on_c, 0, 59, 88
4, 16558, Note_off_c, 0, 59, 0
4, 16560, Note_on_c, 0, 65, 88
4, 16618, Note_off_c, 0, 65, 0
4, 16620, Note_on_c, 0, 55, 88
4, 16678, Note_off_c, 0, 55, 0
4, 16680, Note_on_c, 0, 59, 88
4, 16738, Note_off_c, 0, 59, 0
4, 16740, Note_on_c, 0, 65, 88
4, 16798, Note_off_c, 0, 65, 0
4, 16920, Note_on_c, 0, 55, 88
4, 16978, Note_off_c, 0, 55, 0
4, 16980, Note_on_c, 0, 59, 88
4, 17038, Note_off_c, 0, 59, 0
4, 17040, Note_on_c, 0, 65, 88
4, 17098, Note_off_c, 0, 65, 0
4, 17100, Note_on_c, 0, 55, 88
4, 17158, Note_off_c, 0, 55, 0
4, 17160, Note_on_c, 0, 59, 88
4, 17218, Note_off_c, 0, 59, 0
4, 17220, Note_on_c, 0, 65, 88
4, 17278, Note_off_c, 0, 65, 0
4, 17400, Note_on_c, 0, 55, 88
4, 17458, Note_off_c, 0, 55, 0
4, 17460, Note_on_c, 0, 60, 88
4, 17518, Note_off_c, 0, 60, 0
4, 17520, Note_on_c, 0, 64, 88
4, 17578, Note_off_c, 0, 64, 0
4, 17580, Note_on_c, 0, 55, 88
4, 17638, Note_off_c, 0, 55, 0
4, 17640, Note_on_c, 0, 60, 88
4, 17698, Note_off_c, 0, 60, 0
4, 17700, Note_on_c, 0, 64, 88
4, 17758, Note_off_c, 0, 64, 0
4, 17880, Note_on_c, 0, 55, 88
4, 17938, Note_off_c, 0, 55, 0
4, 17940, Note_on_c, 0, 60, 88
4, 17998, Note_off_c, 0, 60, 0
4, 18000, Note_on_c, 0, 64, 88
4, 18058, Note_off_c, 0, 64, 0
4, 18060, Note_on_c, 0, 55, 88
4, 18118, Note_off_c, 0, 55, 0
4, 18120, Note_on_c, 0, 60, 88
4, 18178, Note_off_c, 0, 60, 0
4, 18180, Note_on_c, 0, 64, 88
4, 18238, Note_off_c, 0, 64, 0
4, 18360, Note_on_c, 0, 58, 88
4, 18418, Note_off_c, 0, 58, 0
4, 18420, Note_on_c, 0, 60, 88
4, 18478, Note_off_c, 0, 60, 0
4, 18480, Note_on_c, 0, 64, 88
4, 18538, Note_off_c, 0, 64, 0
4, 18540, Note_on_c, 0, 58, 88
4, 18598, Note_off_c, 0, 58, 0
4, 18600, Note_on_c, 0, 60, 88
4, 18658, Note_off_c, 0, 60, 0
4, 18660, Note_on_c, 0, 64, 88
4, 18718, Note_off_c, 0, 64, 0
4, 18840, Note_on_c, 0, 58, 88
4, 18898, Note_off_c, 0, 58, 0
4, 18900, Note_on_c, 0, 60, 88
4, 18958, Note_off_c, 0, 60, 0
4, 18960, Note_on_c, 0, 64, 88
4, 19018, Note_off_c, 0, 64, 0
4, 19020, Note_on_c, 0, 58, 88
4, 19078, Note_off_c, 0, 58, 0
4, 19080, Note_on_c, 0, 60, 88
4, 19138, Note_off_c, 0, 60, 0
4, 19140, Note_on_c, 0, 64, 88
4, 19198, Note_off_c, 0, 64, 0
4, 19320, Note_on_c, 0, 57, 88
4, 19378, Note_off_c, 0, 57, 0
4, 19380, Note_on_c, 0, 60, 88
4, 19438, Note_off_c, 0, 60, 0
4, 19440, Note_on_c, 0, 64, 88
4, 19498, Note_off_c, 0, 64, 0
4, 19500, Note_on_c, 0, 57, 88
4, 19558, Note_off_c, 0, 57, 0
4, 19560, Note_on_c, 0, 60, 88
4, 19618, Note_off_c, 0, 60, 0
4, 19620, Note_on_c, 0, 64, 88
4, 19678, Note_off_c, 0, 64, 0
4, 19800, Note_on_c, 0, 57, 88
4, 19858, Note_off_c, 0, 57, 0
4, 19860, Note_on_c, 0, 60, 88
4, 19918, Note_off_c, 0, 60, 0
4, 19920, Note_on_c, 0, 64, 88
4, 19978, Note_off_c, 0, 64, 0
4, 19980, Note_on_c, 0, 57, 88
4, 20038, Note_off_c, 0, 57, 0
4, 20040, Note_on_c, 0, 60, 88
4, 20098, Note_off_c, 0, 60, 0
4, 20100, Note_on_c, 0, 64, 88
4, 20158, Note_off_c, 0, 64, 0
4, 20280, Note_on_c, 0, 57, 88
4, 20338, Note_off_c, 0, 57, 0
4, 20340, Note_on_c, 0, 60, 88
4, 20398, Note_off_c, 0, 60, 0
4, 20400, Note_on_c, 0, 63, 88
4, 20458, Note_off_c, 0, 63, 0
4, 20460, Note_on_c, 0, 57, 88
4, 20518, Note_off_c, 0, 57, 0
4, 20520, Note_on_c, 0, 60, 88
4, 20578, Note_off_c, 0, 60, 0
4, 20580, Note_on_c, 0, 63, 88
4, 20638, Note_off_c, 0, 63, 0
4, 20760, Note_on_c, 0, 57, 88
4, 20818, Note_off_c, 0, 57, 0
4, 20820, Note_on_c, 0, 60, 88
4, 20878, Note_off_c, 0, 60, 0
4, 20880, Note_on_c, 0, 63, 88
4, 20938, Note_off_c, 0, 63, 0
4, 20940, Note_on_c, 0, 57, 88
4, 20998, Note_off_c, 0, 57, 0
4, 21000, Note_on_c, 0, 60, 88
4, 21058, Note_off_c, 0, 60, 0
4, 21060, Note_on_c, 0, 63, 88
4, 21118, Note_off_c, 0, 63, 0
4, 21240, Note_on_c, 0, 59, 88
4, 21298, Note_off_c, 0, 59, 0
4, 21300, Note_on_c, 0, 60, 88
4, 21358, Note_off_c, 0, 60, 0
4, 21360, Note_on_c, 0, 62, 88
4, 21418, Note_off_c, 0, 62, 0
4, 21420, Note_on_c, 0, 59, 88
4, 21478, Note_off_c, 0, 59, 0
4, 21480, Note_on_c, 0, 60, 88
4, 21538, Note_off_c, 0, 60, 0
4, 21540, Note_on_c, 0, 62, 88
4, 21598, Note_off_c, 0, 62, 0
4, 21720, Note_on_c, 0, 59, 88
4, 21778, Note_off_c, 0, 59, 0
4, 21780, Note_on_c, 0, 60, 88
4, 21838, Note_off_c, 0, 60, 0
4, 21840, Note_on_c, 0, 62, 88
4, 21898, Note_off_c, 0, 62, 0
4, 21900, Note_on_c, 0, 59, 88
4, 21958, Note_off_c, 0, 59, 0
4, 21960, Note_on_c, 0, 60, 88
4, 22018, Note_off_c, 0, 60, 0
4, 22020, Note_on_c, 0, 62, 88
4, 22078, Note_off_c, 0, 62, 0
4, 22200, Note_on_c, 0, 55, 88
4, 22258, Note_off_c, 0, 55, 0
4, 22260, Note_on_c, 0, 59, 88
4, 22318, Note_off_c, 0, 59, 0
4, 22320, Note_on_c, 0, 62, 88
4, 22378, Note_off_c, 0, 62, 0
4, 22380, Note_on_c, 0, 55, 88
4, 22438, Note_off_c, 0, 55, 0
4, 22440, Note_on_c, 0, 59, 88
4, 22498, Note_off_c, 0, 59, 0
4, 22500, Note_on_c, 0, 62, 88
4, 22558, Note_off_c, 0, 62, 0
4, 22680, Note_on_c, 0, 55, 88
4, 22738, Note_off_c, 0, 55, 0
4, 22740, Note_on_c, 0, 59, 88
4, 22798, Note_off_c, 0, 59, 0
4, 22800, Note_on_c, 0, 62, 88
4, 22858, Note_off_c, 0, 62, 0
4, 22860, Note_on_c, 0, 55, 88
4, 22918, Note_off_c, 0, 55, 0
4, 22920, Note_on_c, 0, 59, 88
4, 22978, Note_off_c, 0, 59, 0
4, 22980, Note_on_c, 0, 62, 88
4, 23038, Note_off_c, 0, 62, 0
4, 23160, Note_on_c, 0, 55, 88
4, 23218, Note_off_c, 0, 55, 0
4, 23220, Note_on_c, 0, 60, 88
4, 23278, Note_off_c, 0, 60, 0
4, 23280, Note_on_c, 0, 64, 88
4, 23338, Note_off_c, 0, 64, 0
4, 23340, Note_on_c, 0, 55, 88
4, 23398, Note_off_c, 0, 55, 0
4, 23400, Note_on_c, 0, 60, 88
4, 23458, Note_off_c, 0, 60, 0
4, 23460, Note_on_c, 0, 64, 88
4, 23518, Note_off_c, 0, 64, 0
4, 23640, Note_on_c, 0, 55, 88
4, 23698, Note_off_c, 0, 55, 0
4, 23700, Note_on_c, 0, 60, 88
4, 23758, Note_off_c, 0, 60, 0
4, 23760, Note_on_c, 0, 64, 88
4, 23818, Note_off_c, 0, 64, 0
4, 23820, Note_on_c, 0, 55, 88
4, 23878, Note_off_c, 0, 55, 0
4, 23880, Note_on_c, 0, 60, 88
4, 23938, Note_off_c, 0, 60, 0
4, 23940, Note_on_c, 0, 64, 88
4, 23998, Note_off_c, 0, 64, 0
4, 24120, Note_on_c, 0, 55, 88
4, 24178, Note_off_c, 0, 55, 0
4, 24180, Note_on_c, 0, 60, 88
4, 24238, Note_off_c, 0, 60, 0
4, 24240, Note_on_c, 0, 65, 88
4, 24298, Note_off_c, 0, 65, 0
4, 24300, Note_on_c, 0, 55, 88
4, 24358, Note_off_c, 0, 55, 0
4, 24360, Note_on_c, 0, 60, 88
4, 24418, Note_off_c, 0, 60, 0
4, 24420, Note_on_c, 0, 65, 88
4, 24478, Note_off_c, 0, 65, 0
4, 24600, Note_on_c, 0, 55, 88
4, 24658, Note_off_c, 0, 55, 0
4, 24660, Note_on_c, 0, 60, 88
4, 24718, Note_off_c, 0, 60, 0
4, 24720, Note_on_c, 0, 65, 88
4, 24778, Note_off_c, 0, 65, 0
4, 24780, Note_on_c, 0, 55, 88
4, 24838, Note_off_c, 0, 55, 0
4, 24840, Note_on_c, 0, 60, 88
4, 24898, Note_off_c, 0, 60, 0
4, 24900, Note_on_c, 0, 65, 88
4, 24958, Note_off_c, 0, 65, 0
4, 25080, Note_on_c, 0, 55, 88
4, 25138, Note_off_c, 0, 55, 0
4, 25140, Note_on_c, 0, 59, 88
4, 25198, Note_off_c, 0, 59, 0
4, 25200, Note_on_c, 0, 65, 88
4, 25258, Note_off_c, 0, 65, 0
4, 25260, Note_on_c, 0, 55, 88
4, 25318, Note_off_c, 0, 55, 0
4, 25320, Note_on_c, 0, 59, 88
4, 25378, Note_off_c, 0, 59, 0
4, 25380, Note_on_c, 0, 65, 88
4, 25438, Note_off_c, 0, 65, 0
4, 25560, Note_on_c, 0, 55, 88
4, 25618, Note_off_c, 0, 55, 0
4, 25620, Note_on_c, 0, 59, 88
4, 25678, Note_off_c, 0, 59, 0
4, 25680, Note_on_c, 0, 65, 88
4, 25738, Note_off_c, 0, 65, 0
4, 25740, Note_on_c, 0, 55, 88
4, 25798, Note_off_c, 0, 55, 0
4, 25800, Note_on_c, 0, 59, 88
4, 25858, Note_off_c, 0, 59, 0
4, 25860, Note_on_c, 0, 65, 88
4, 25918, Note_off_c, 0, 65, 0
4, 26040, Note_on_c, 0, 57, 88
4, 26098, Note_off_c, 0, 57, 0
4, 26100, Note_on_c, 0, 60, 88
4, 26158, Note_off_c, 0, 60, 0
4, 26160, Note_on_c, 0, 66, 88
4, 26218, Note_off_c, 0, 66, 0
4, 26220, Note_on_c, 0, 57, 88
4, 26278, Note_off_c, 0, 57, 0
4, 26280, Note_on_c, 0, 60, 88
4, 26338, Note_off_c, 0, 60, 0
4, 26340, Note_on_c, 0, 66, 88
4, 26398, Note_off_c, 0, 66, 0
4, 26520, Note_on_c, 0, 57, 88
4, 26578, Note_off_c, 0, 57, 0
4, 26580, Note_on_c, 0, 60, 88
4, 26638, Note_off_c, 0, 60, 0
4, 26640, Note_on_c, 0, 66, 88
4, 26698, Note_off_c, 0, 66, 0
4, 26700, Note_on_c, 0, 57, 88
4, 26758, Note_off_c, 0, 57, 0
4, 26760, Note_on_c, 0, 60, 88
4, 26818, Note_off_c, 0, 60, 0
4, 26820, Note_on_c, 0, 66, 88
4, 26878, Note_off_c, 0, 66, 0
4, 27000, Note_on_c, 0, 55, 88
4, 27058, Note_off_c, 0, 55, 0
4, 27060, Note_on_c, 0, 60, 88
4, 27118, Note_off_c, 0, 60, 0
4, 27120, Note_on_c, 0, 67, 88
4, 27178, Note_off_c, 0, 67, 0
4, 27180, Note_on_c, 0, 55, 88
4, 27238, Note_off_c, 0, 55, 0
4, 27240, Note_on_c, 0, 60, 88
4, 27298, Note_off_c, 0, 60, 0
4, 27300, Note_on_c, 0, 67, 88
4, 27358, Note_off_c, 0, 67, 0
4, 27480, Note_on_c, 0, 55, 88
4, 27538, Note_off_c, 0, 55, 0
4, 27540, Note_on_c, 0, 60, 88
4, 27598, Note_off_c, 0, 60, 0
4, 27600, Note_on_c, 0, 67, 88
4, 27658, Note_off_c, 0, 67, 0
4, 27660, Note_on_c, 0, 55, 88
4, 27718, Note_off_c, 0, 55, 0
4, 27720, Note_on_c, 0, 60, 88
4, 27778, Note_off_c, 0, 60, 0
4, 27780, Note_on_c, 0, 67, 88
4, 27838, Note_off_c, 0, 67, 0
4, 27960, Note_on_c, 0, 55, 88
4, 28018, Note_off_c, 0, 55, 0
4, 28020, Note_on_c, 0, 60, 88
4, 28078, Note_off_c, 0, 60, 0
4, 28080, Note_on_c, 0, 65, 88
4, 28138, Note_off_c, 0, 65, 0
4, 28140, Note_on_c, 0, 55, 88
4, 28198, Note_off_c, 0, 55, 0
4, 28200, Note_on_c, 0, 60, 88
4, 28258, Note_off_c, 0, 60, 0
4, 28260, Note_on_c, 0, 65, 88
4, 28318, Note_off_c, 0, 65, 0
4, 28440, Note_on_c, 0, 55, 88
4, 28498, Note_off_c, 0, 55, 0
4, 28500, Note_on_c, 0, 60, 88
4, 28558, Note_off_c, 0, 60, 0
4, 28560, Note_on_c, 0, 65, 88
4, 28618, Note_off_c, 0, 65, 0
4, 28620, Note_on_c, 0, 55, 88
4, 28678, Note_off_c, 0, 55, 0
4, 28680, Note_on_c, 0, 60, 88
4, 28738, Note_off_c, 0, 60, 0
4, 28740, Note_on_c, 0, 65, 88
4, 28798, Note_off_c, 0, 65, 0
4, 28920, Note_on_c, 0, 55, 88
4, 28978, Note_off_c, 0, 55, 0
4, 28980, Note_on_c, 0, 59, 88
4, 29038, Note_off_c, 0, 59, 0
4, 29040, Note_on_c, 0, 65, 88
4, 29098, Note_off_c, 0, 65, 0
4, 29100, Note_on_c, 0, 55, 88
4, 29158, Note_off_c, 0, 55, 0
4, 29160, Note_on_c, 0, 59, 88
4, 29218, Note_off_c, 0, 59, 0
4, 29220, Note_on_c, 0, 65, 88
4, 29278, Note_off_c, 0, 65, 0
4, 29400, Note_on_c, 0, 55, 88
4, 29458, Note_off_c, 0, 55, 0
4, 29460, Note_on_c, 0, 59, 88
4, 29518, Note_off_c, 0, 59, 0
4, 29520, Note_on_c, 0, 65, 88
4, 29578, Note_off_c, 0, 65, 0
4, 29580, Note_on_c, 0, 55, 88
4, 29638, Note_off_c, 0, 55, 0
4, 29640, Note_on_c, 0, 59, 88
4, 29698, Note_off_c, 0, 59, 0
4, 29700, Note_on_c, 0, 65, 88
4, 29758, Note_off_c, 0, 65, 0
4, 29880, Note_on_c, 0, 55, 88
4, 29938, Note_off_c, 0, 55, 0
4, 29940, Note_on_c, 0, 58, 88
4, 29998, Note_off_c, 0, 58, 0
4, 30000, Note_on_c, 0, 64, 88
4, 30058, Note_off_c, 0, 64, 0
4, 30060, Note_on_c, 0, 55, 88
4, 30118, Note_off_c, 0, 55, 0
4, 30120, Note_on_c, 0, 58, 88
4, 30178, Note_off_c, 0, 58, 0
4, 30180, Note_on_c, 0, 64, 88
4, 30238, Note_off_c, 0, 64, 0
4, 30360, Note_on_c, 0, 55, 88
4, 30418, Note_off_c, 0, 55, 0
4, 30420, Note_on_c, 0, 58, 88
4, 30478, Note_off_c, 0, 58, 0
4, 30480, Note_on_c, 0, 64, 88
4, 30538, Note_off_c, 0, 64, 0
4, 30540, Note_on_c, 0, 55, 88
4, 30598, Note_off_c, 0, 55, 0
4, 30600, Note_on_c, 0, 58, 88
4, 30658, Note_off_c, 0, 58, 0
4, 30660, Note_on_c, 0, 64, 88
4, 30718, Note_off_c, 0, 64, 0
4, 30840, Note_on_c, 0, 53, 88
4, 30898, Note_off_c, 0, 53, 0
4, 30900, Note_on_c, 0, 57, 88
4, 30958, Note_off_c, 0, 57, 0
4, 30960, Note_on_c, 0, 60, 88
4, 31018, Note_off_c, 0, 60, 0
4, 31020, Note_on_c, 0, 65, 88
4, 31078, Note_off_c, 0, 65, 0
4, 31080, Note_on_c, 0, 60, 88
4, 31138, Note_off_c, 0, 60, 0
4, 31140, Note_on_c, 0, 57, 88
4, 31198, Note_off_c, 0, 57, 0
4, 31200, Note_on_c, 0, 60, 88
4, 31258, Note_off_c, 0, 60, 0
4, 31260, Note_on_c, 0, 57, 88
4, 31318, Note_off_c, 0, 57, 0
4, 31320, Note_on_c, 0, 53, 88
4, 31378, Note_off_c, 0, 53, 0
4, 31380, Note_on_c, 0, 57, 88
4, 31438, Note_off_c, 0, 57, 0
4, 31440, Note_on_c, 0, 53, 88
4, 31498, Note_off_c, 0, 53, 0
4, 31500, Note_on_c, 0, 50, 88
4, 31558, Note_off_c, 0, 50, 0
4, 31560, Note_on_c, 0, 53, 88
4, 31618, Note_off_c, 0, 53, 0
4, 31620, Note_on_c, 0, 50, 88
4, 31678, Note_off_c, 0, 50, 0
4, 31800, Note_on_c, 0, 67, 88
4, 31858, Note_off_c, 0, 67, 0
4, 31860, Note_on_c, 0, 71, 88
4, 31918, Note_off_c, 0, 71, 0
4, 31920, Note_on_c, 0, 74, 88
4, 31978, Note_off_c, 0, 74, 0
4, 31980, Note_on_c, 0, 77, 88
4, 32038, Note_off_c, 0, 77, 0
4, 32040, Note_on_c, 0, 74, 88
4, 32098, Note_off_c, 0, 74, 0
4, 32100, Note_on_c, 0, 71, 88
4, 32158, Note_off_c, 0, 71, 0
4, 32160, Note_on_c, 0, 74, 88
4, 32218, Note_off_c, 0, 74, 0
4, 32220, Note_on_c, 0, 71, 88
4, 32278, Note_off_c, 0, 71, 0
4, 32280, Note_on_c, 0, 67, 88
4, 32338, Note_off_c, 0, 67, 0
4, 32340, Note_on_c, 0, 71, 88
4, 32398, Note_off_c, 0, 71, 0
4, 32400, Note_on_c, 0, 62, 88
4, 32458, Note_off_c, 0, 62, 0
4, 32460, Note_on_c, 0, 65, 88
4, 32518, Note_off_c, 0, 65, 0
4, 32520, Note_on_c, 0, 64, 88
4, 32578, Note_off_c, 0, 64, 0
4, 32580, Note_on_c, 0, 62, 88
4, 32638, Note_off_c, 0, 62, 0
4, 32640, Note_on_c, 0, 64, 88
4, 32640, Note_on_c, 0, 67, 88
4, 32640, Note_on_c, 0, 72, 88
4, 33585, Note_off_c, 0, 64, 0
4, 33585, Note_off_c, 0, 67, 0
4, 33585, Note_off_c, 0, 72, 0
4, 33585, End_track
5, 0, Start_track
5, 0, Title_t, "Track 2"
5, 0, Program_c, 1, 6
5, 60, Note_on_c, 1, 64, 88
5, 472, Note_off_c, 1, 64, 0
5, 540, Note_on_c, 1, 64, 88
5, 952, Note_off_c, 1, 64, 0
5, 1020, Note_on_c, 1, 62, 88
5, 1432, Note_off_c, 1, 62, 0
5, 1500, Note_on_c, 1, 62, 88
5, 1912, Note_off_c, 1, 62, 0
5, 1980, Note_on_c, 1, 62, 88
5, 2392, Note_off_c, 1, 62, 0
5, 2460, Note_on_c, 1, 62, 88
5, 2872, Note_off_c, 1, 62, 0
5, 2940, Note_on_c, 1, 64, 88
5, 3352, Note_off_c, 1, 64, 0
5, 3420, Note_on_c, 1, 64, 88
5, 3832, Note_off_c, 1, 64, 0
5, 3900, Note_on_c, 1, 64, 88
5, 4312, Note_off_c, 1, 64, 0
5, 4380, Note_on_c, 1, 64, 88
5, 4792, Note_off_c, 1, 64, 0
5, 4860, Note_on_c, 1, 62, 88
5, 5272, Note_off_c, 1, 62, 0
5, 5340, Note_on_c, 1, 62, 88
5, 5752, Note_off_c, 1, 62, 0
5, 5820, Note_on_c, 1, 62, 88
5, 6232, Note_off_c, 1, 62, 0
5, 6300, Note_on_c, 1, 62, 88
5, 6712, Note_off_c, 1, 62, 0
5, 6780, Note_on_c, 1, 60, 88
5, 7192, Note_off_c, 1, 60, 0
5, 7260, Note_on_c, 1, 60, 88
5, 7672, Note_off_c, 1, 60, 0
5, 7740, Note_on_c, 1, 60, 88
5, 8152, Note_off_c, 1, 60, 0
5, 8220, Note_on_c, 1, 60, 88
5, 8632, Note_off_c, 1, 60, 0
5, 8700, Note_on_c, 1, 57, 88
5, 9112, Note_off_c, 1, 57, 0
5, 9180, Note_on_c, 1, 57, 88
5, 9592, Note_off_c, 1, 57, 0
5, 9660, Note_on_c, 1, 59, 88
5, 10072, Note_off_c, 1, 59, 0
5, 10140, Note_on_c, 1, 59, 88
5, 10552, Note_off_c, 1, 59, 0
5, 10620, Note_on_c, 1, 58, 88
5, 11032, Note_off_c, 1, 58, 0
5, 11100, Note_on_c, 1, 58, 88
5, 11512, Note_off_c, 1, 58, 0
5, 11580, Note_on_c, 1, 57, 88
5, 11992, Note_off_c, 1, 57, 0
5, 12060, Note_on_c, 1, 57, 88
5, 12472, Note_off_c, 1, 57, 0
5, 12540, Note_on_c, 1, 56, 88
5, 12952, Note_off_c, 1, 56, 0
5, 13020, Note_on_c, 1, 56, 88
5, 13432, Note_off_c, 1, 56, 0
5, 13500, Note_on_c, 1, 55, 88
5, 13912, Note_off_c, 1, 55, 0
5, 13980, Note_on_c, 1, 55, 88
5, 14392, Note_off_c, 1, 55, 0
5, 14460, Note_on_c, 1, 53, 88
5, 14872, Note_off_c, 1, 53, 0
5, 14940, Note_on_c, 1, 53, 88
5, 15352, Note_off_c, 1, 53, 0
5, 15420, Note_on_c, 1, 53, 88
5, 15832, Note_off_c, 1, 53, 0
5, 15900, Note_on_c, 1, 53, 88
5, 16312, Note_off_c, 1, 53, 0
5, 16380, Note_on_c, 1, 50, 88
5, 16792, Note_off_c, 1, 50, 0
5, 16860, Note_on_c, 1, 50, 88
5, 17272, Note_off_c, 1, 50, 0
5, 17340, Note_on_c, 1, 52, 88
5, 17752, Note_off_c, 1, 52, 0
5, 17820, Note_on_c, 1, 52, 88
5, 18232, Note_off_c, 1, 52, 0
5, 18300, Note_on_c, 1, 55, 88
5, 18712, Note_off_c, 1, 55, 0
5, 18780, Note_on_c, 1, 55, 88
5, 19192, Note_off_c, 1, 55, 0
5, 19260, Note_on_c, 1, 53, 88
5, 19672, Note_off_c, 1, 53, 0
5, 19740, Note_on_c, 1, 53, 88
5, 20152, Note_off_c, 1, 53, 0
5, 20220, Note_on_c, 1, 48, 88
5, 20632, Note_off_c, 1, 48, 0
5, 20700, Note_on_c, 1, 48, 88
5, 21112, Note_off_c, 1, 48, 0
5, 21180, Note_on_c, 1, 53, 88
5, 21592, Note_off_c, 1, 53, 0
5, 21660, Note_on_c, 1, 53, 88
5, 22072, Note_off_c, 1, 53, 0
5, 22140, Note_on_c, 1, 53, 88
5, 22552, Note_off_c, 1, 53, 0
5, 22620, Note_on_c, 1, 53, 88
5, 23032, Note_off_c, 1, 53, 0
5, 23100, Note_on_c, 1, 52, 88
5, 23512, Note_off_c, 1, 52, 0
5, 23580, Note_on_c, 1, 52, 88
5, 23992, Note_off_c, 1, 52, 0
5, 24060, Note_on_c, 1, 50, 88
5, 24472, Note_off_c, 1, 50, 0
5, 24540, Note_on_c, 1, 50, 88
5, 24952, Note_off_c, 1, 50, 0
5, 25020, Note_on_c, 1, 50, 88
5, 25432, Note_off_c, 1, 50, 0
5, 25500, Note_on_c, 1, 50, 88
5, 25912, Note_off_c, 1, 50, 0
5, 25980, Note_on_c, 1, 51, 88
5, 26392, Note_off_c, 1, 51, 0
5, 26460, Note_on_c, 1, 51, 88
5, 26872, Note_off_c, 1, 51, 0
5, 26940, Note_on_c, 1, 52, 88
5, 27352, Note_off_c, 1, 52, 0
5, 27420, Note_on_c, 1, 52, 88
5, 27832, Note_off_c, 1, 52, 0
5, 27900, Note_on_c, 1, 50, 88
5, 28312, Note_off_c, 1, 50, 0
5, 28380, Note_on_c, 1, 50, 88
5, 28792, Note_off_c, 1, 50, 0
5, 28860, Note_on_c, 1, 50, 88
5, 29272, Note_off_c, 1, 50, 0
5, 29340, Note_on_c, 1, 50, 88
5, 29752, Note_off_c, 1, 50, 0
5, 29820, Note_on_c, 1, 48, 88
5, 30232, Note_off_c, 1, 48, 0
5, 30300, Note_on_c, 1, 48, 88
5, 30712, Note_off_c, 1, 48, 0
5, 30780, Note_on_c, 1, 48, 88
5, 31666, Note_off_c, 1, 48, 0
5, 31740, Note_on_c, 1, 47, 88
5, 32626, Note_off_c, 1, 47, 0
5, 32640, Note_on_c, 1, 48, 88
5, 33585, Note_off_c, 1, 48, 0
5, 33585, End_track
6, 0, Start_track
6, 0, Title_t, "Track 3"
6, 0, Program_c, 2, 6
6, 0, Note_on_c, 2, 60, 88
6, 458, Note_off_c, 2, 60, 0
6, 480, Note_on_c, 2, 60, 88
6, 950, Note_off_c, 2, 60, 0
6, 960, Note_on_c, 2, 60, 88
6, 1418, Note_off_c, 2, 60, 0
6, 1440, Note_on_c, 2, 60, 88
6, 1910, Note_off_c, 2, 60, 0
6, 1920, Note_on_c, 2, 59, 88
6, 2378, Note_off_c, 2, 59, 0
6, 2400, Note_on_c, 2, 59, 88
6, 2870, Note_off_c, 2, 59, 0
6, 2880, Note_on_c, 2, 60, 88
6, 3338, Note_off_c, 2, 60, 0
6, 3360, Note_on_c, 2, 60, 88
6, 3830, Note_off_c, 2, 60, 0
6, 3840, Note_on_c, 2, 60, 88
6, 4298, Note_off_c, 2, 60, 0
6, 4320, Note_on_c, 2, 60, 88
6, 4790, Note_off_c, 2, 60, 0
6, 4800, Note_on_c, 2, 60, 88
6, 5258, Note_off_c, 2, 60, 0
6, 5280, Note_on_c, 2, 60, 88
6, 5750, Note_off_c, 2, 60, 0
6, 5760, Note_on_c, 2, 59, 88
6, 6218, Note_off_c, 2, 59, 0
6, 6240, Note_on_c, 2, 59, 88
6, 6710, Note_off_c, 2, 59, 0
6, 6720, Note_on_c, 2, 59, 88
6, 7178, Note_off_c, 2, 59, 0
6, 7200, Note_on_c, 2, 59, 88
6, 7670, Note_off_c, 2, 59, 0
6, 7680, Note_on_c, 2, 57, 88
6, 8138, Note_off_c, 2, 57, 0
6, 8160, Note_on_c, 2, 57, 88
6, 8630, Note_off_c, 2, 57, 0
6, 8640, Note_on_c, 2, 50, 88
6, 9098, Note_off_c, 2, 50, 0
6, 9120, Note_on_c, 2, 50, 88
6, 9590, Note_off_c, 2, 50, 0
6, 9600, Note_on_c, 2, 55, 88
6, 10058, Note_off_c, 2, 55, 0
6, 10080, Note_on_c, 2, 55, 88
6, 10550, Note_off_c, 2, 55, 0
6, 10560, Note_on_c, 2, 55, 88
6, 11018, Note_off_c, 2, 55, 0
6, 11040, Note_on_c, 2, 55, 88
6, 11510, Note_off_c, 2, 55, 0
6, 11520, Note_on_c, 2, 53, 88
6, 11978, Note_off_c, 2, 53, 0
6, 12000, Note_on_c, 2, 53, 88
6, 12470, Note_off_c, 2, 53, 0
6, 12480, Note_on_c, 2, 53, 88
6, 12938, Note_off_c, 2, 53, 0
6, 12960, Note_on_c, 2, 53, 88
6, 13430, Note_off_c, 2, 53, 0
6, 13440, Note_on_c, 2, 52, 88
6, 13898, Note_off_c, 2, 52, 0
6, 13920, Note_on_c, 2, 52, 88
6, 14390, Note_off_c, 2, 52, 0
6, 14400, Note_on_c, 2, 52, 88
6, 14858, Note_off_c, 2, 52, 0
6, 14880, Note_on_c, 2, 52, 88
6, 15350, Note_off_c, 2, 52, 0
6, 15360, Note_on_c, 2, 50, 88
6, 15818, Note_off_c, 2, 50, 0
6, 15840, Note_on_c, 2, 50, 88
6, 16310, Note_off_c, 2, 50, 0
6, 16320, Note_on_c, 2, 43, 88
6, 16778, Note_off_c, 2, 43, 0
6, 16800, Note_on_c, 2, 43, 88
6, 17270, Note_off_c, 2, 43, 0
6, 17280, Note_on_c, 2, 48, 88
6, 17738, Note_off_c, 2, 48, 0
6, 17760, Note_on_c, 2, 48, 88
6, 18230, Note_off_c, 2, 48, 0
6, 18240, Note_on_c, 2, 48, 88
6, 18698, Note_off_c, 2, 48, 0
6, 18720, Note_on_c, 2, 48, 88
6, 19190, Note_off_c, 2, 48, 0
6, 19200, Note_on_c, 2, 41, 88
6, 19658, Note_off_c, 2, 41, 0
6, 19680, Note_on_c, 2, 41, 88
6, 20150, Note_off_c, 2, 41, 0
6, 20160, Note_on_c, 2, 42, 88
6, 20618, Note_off_c, 2, 42, 0
6, 20640, Note_on_c, 2, 42, 88
6, 21110, Note_off_c, 2, 42, 0
6, 21120, Note_on_c, 2, 44, 88
6, 21578, Note_off_c, 2, 44, 0
6, 21600, Note_on_c, 2, 44, 88
6, 22070, Note_off_c, 2, 44, 0
6, 22080, Note_on_c, 2, 43, 88
6, 22538, Note_off_c, 2, 43, 0
6, 22560, Note_on_c, 2, 43, 88
6, 23030, Note_off_c, 2, 43, 0
6, 23040, Note_on_c, 2, 43, 88
6, 23498, Note_off_c, 2, 43, 0
6, 23520, Note_on_c, 2, 43, 88
6, 23990, Note_off_c, 2, 43, 0
6, 24000, Note_on_c, 2, 43, 88
6, 24458, Note_off_c, 2, 43, 0
6, 24480, Note_on_c, 2, 43, 88
6, 24950, Note_off_c, 2, 43, 0
6, 24960, Note_on_c, 2, 43, 88
6, 25418, Note_off_c, 2, 43, 0
6, 25440, Note_on_c, 2, 43, 88
6, 25910, Note_off_c, 2, 43, 0
6, 25920, Note_on_c, 2, 43, 88
6, 26378, Note_off_c, 2, 43, 0
6, 26400, Note_on_c, 2, 43, 88
6, 26870, Note_off_c, 2, 43, 0
6, 26880, Note_on_c, 2, 43, 88
6, 27338, Note_off_c, 2, 43, 0
6, 27360, Note_on_c, 2, 43, 88
6, 27830, Note_off_c, 2, 43, 0
6, 27840, Note_on_c, 2, 43, 88
6, 28298, Note_off_c, 2, 43, 0
6, 28320, Note_on_c, 2, 43, 88
6, 28790, Note_off_c, 2, 43, 0
6, 28800, Note_on_c, 2, 43, 88
6, 29258, Note_off_c, 2, 43, 0
6, 29280, Note_on_c, 2, 43, 88
6, 29750, Note_off_c, 2, 43, 0
6, 29760, Note_on_c, 2, 36, 88
6, 30218, Note_off_c, 2, 36, 0
6, 30240, Note_on_c, 2, 36, 88
6, 30710, Note_off_c, 2, 36, 0
6, 30720, Note_on_c, 2, 36, 88
6, 31665, Note_off_c, 2, 36, 0
6, 31680, Note_on_c, 2, 36, 88
6, 32625, Note_off_c, 2, 36, 0
6, 32640, Note_on_c, 2, 36, 88
6, 33585, Note_off_c, 2, 36, 0
6, 33585, End_track
0, 0, End_of_file
