0, 0, Header, 1, 9, 240
1, 0, Start_track
1, 0, Time_signature, 4, 2, 24, 8
1, 0, Tempo, 789473
1, 0, SMPTE_offset, 64, 0, 0, 0, 93
1, 0, End_track
2, 0, Start_track
2, 0, Title_t, "(C) & (P) 1993"
2, 127, End_track
3, 0, Start_track
3, 0, Title_t, "CCARH,Stanford"
3, 0, End_track
4, 0, Start_track
4, 0, Title_t, "Track 1"
4, 0, Program_c, 0, 6
4, 200, Note_on_c, 0, 69, 88
4, 239, Note_off_c, 0, 69, 0
4, 240, Note_on_c, 0, 65, 88
4, 279, Note_off_c, 0, 65, 0
4, 280, Note_on_c, 0, 62, 88
4, 319, Note_off_c, 0, 62, 0
4, 320, Note_on_c, 0, 69, 88
4, 359, Note_off_c, 0, 69, 0
4, 360, Note_on_c, 0, 65, 88
4, 399, Note_off_c, 0, 65, 0
4, 400, Note_on_c, 0, 62, 88
4, 439, Note_off_c, 0, 62, 0
4, 440, Note_on_c, 0, 74, 88
4, 479, Note_off_c, 0, 74, 0
4, 480, Note_on_c, 0, 70, 88
4, 519, Note_off_c, 0, 70, 0
4, 520, Note_on_c, 0, 67, 88
4, 559, Note_off_c, 0, 67, 0
4, 560, Note_on_c, 0, 70, 88
4, 599, Note_off_c, 0, 70, 0
4, 600, Note_on_c, 0, 67, 88
4, 639, Note_off_c, 0, 67, 0
4, 640, Note_on_c, 0, 64, 88
4, 679, Note_off_c, 0, 64, 0
4, 680, Note_on_c, 0, 67, 88
4, 719, Note_off_c, 0, 67, 0
4, 720, Note_on_c, 0, 64, 88
4, 759, Note_off_c, 0, 64, 0
4, 760, Note_on_c, 0, 61, 88
4, 799, Note_off_c, 0, 61, 0
4, 800, Note_on_c, 0, 67, 88
4, 839, Note_off_c, 0, 67, 0
4, 840, Note_on_c, 0, 64, 88
4, 879, Note_off_c, 0, 64, 0
4, 880, Note_on_c, 0, 61, 88
4, 919, Note_off_c, 0, 61, 0
4, 920, Note_on_c, 0, 69, 88
4, 959, Note_off_c, 0, 69, 0
4, 960, Note_on_c, 0, 65, 88
4, 999, Note_off_c, 0, 65, 0
4, 1000, Note_on_c, 0, 62, 88
4, 1039, Note_off_c, 0, 62, 0
4, 1040, Note_on_c, 0, 69, 88
4, 1079, Note_off_c, 0, 69, 0
4, 1080, Note_on_c, 0, 65, 88
4, 1119, Note_off_c, 0, 65, 0
4, 1120, Note_on_c, 0, 62, 88
4, 1159, Note_off_c, 0, 62, 0
4, 1160, Note_on_c, 0, 81, 88
4, 1199, Note_off_c, 0, 81, 0
4, 1200, Note_on_c, 0, 77, 88
4, 1239, Note_off_c, 0, 77, 0
4, 1240, Note_on_c, 0, 74, 88
4, 1279, Note_off_c, 0, 74, 0
4, 1280, Note_on_c, 0, 77, 88
4, 1319, Note_off_c, 0, 77, 0
4, 1320, Note_on_c, 0, 74, 88
4, 1359, Note_off_c, 0, 74, 0
4, 1360, Note_on_c, 0, 69, 88
4, 1399, Note_off_c, 0, 69, 0
4, 1400, Note_on_c, 0, 74, 88
4, 1439, Note_off_c, 0, 74, 0
4, 1440, Note_on_c, 0, 70, 88
4, 1479, Note_off_c, 0, 70, 0
4, 1480, Note_on_c, 0, 67, 88
4, 1519, Note_off_c, 0, 67, 0
4, 1520, Note_on_c, 0, 74, 88
4, 1559, Note_off_c, 0, 74, 0
4, 1560, Note_on_c, 0, 70, 88
4, 1599, Note_off_c, 0, 70, 0
4, 1600, Note_on_c, 0, 67, 88
4, 1639, Note_off_c, 0, 67, 0
4, 1640, Note_on_c, 0, 79, 88
4, 1679, Note_off_c, 0, 79, 0
4, 1680, Note_on_c, 0, 76, 88
4, 1719, Note_off_c, 0, 76, 0
4, 1720, Note_on_c, 0, 72, 88
4, 1759, Note_off_c, 0, 72, 0
4, 1760, Note_on_c, 0, 76, 88
4, 1799, Note_off_c, 0, 76, 0
4, 1800, Note_on_c, 0, 72, 88
4, 1839, Note_off_c, 0, 72, 0
4, 1840, Note_on_c, 0, 67, 88
4, 1879, Note_off_c, 0, 67, 0
4, 1880, Note_on_c, 0, 72, 88
4, 1919, Note_off_c, 0, 72, 0
4, 1920, Note_on_c, 0, 69, 88
4, 1959, Note_off_c, 0, 69, 0
4, 1960, Note_on_c, 0, 65, 88
4, 1999, Note_off_c, 0, 65, 0
4, 2000, Note_on_c, 0, 72, 88
4, 2039, Note_off_c, 0, 72, 0
4, 2040, Note_on_c, 0, 69, 88
4, 2079, Note_off_c, 0, 69, 0
4, 2080, Note_on_c, 0, 65, 88
4, 2119, Note_off_c, 0, 65, 0
4, 2120, Note_on_c, 0, 77, 88
4, 2159, Note_off_c, 0, 77, 0
4, 2160, Note_on_c, 0, 74, 88
4, 2199, Note_off_c, 0, 74, 0
4, 2200, Note_on_c, 0, 70, 88
4, 2239, Note_off_c, 0, 70, 0
4, 2240, Note_on_c, 0, 74, 88
4, 2279, Note_off_c, 0, 74, 0
4, 2280, Note_on_c, 0, 70, 88
4, 2319, Note_off_c, 0, 70, 0
4, 2320, Note_on_c, 0, 67, 88
4, 2359, Note_off_c, 0, 67, 0
4, 2360, Note_on_c, 0, 79, 88
4, 2399, Note_off_c, 0, 79, 0
4, 2400, Note_on_c, 0, 76, 88
4, 2439, Note_off_c, 0, 76, 0
4, 2440, Note_on_c, 0, 72, 88
4, 2479, Note_off_c, 0, 72, 0
4, 2480, Note_on_c, 0, 76, 88
4, 2519, Note_off_c, 0, 76, 0
4, 2520, Note_on_c, 0, 72, 88
4, 2559, Note_off_c, 0, 72, 0
4, 2560, Note_on_c, 0, 69, 88
4, 2599, Note_off_c, 0, 69, 0
4, 2600, Note_on_c, 0, 81, 88
4, 2639, Note_off_c, 0, 81, 0
4, 2640, Note_on_c, 0, 77, 88
4, 2679, Note_off_c, 0, 77, 0
4, 2680, Note_on_c, 0, 74, 88
4, 2719, Note_off_c, 0, 74, 0
4, 2720, Note_on_c, 0, 77, 88
4, 2759, Note_off_c, 0, 77, 0
4, 2760, Note_on_c, 0, 74, 88
4, 2799, Note_off_c, 0, 74, 0
4, 2800, Note_on_c, 0, 70, 88
4, 2839, Note_off_c, 0, 70, 0
4, 2840, Note_on_c, 0, 82, 88
4, 2879, Note_off_c, 0, 82, 0
4, 2880, Note_on_c, 0, 79, 88
4, 2919, Note_off_c, 0, 79, 0
4, 2920, Note_on_c, 0, 76, 88
4, 2959, Note_off_c, 0, 76, 0
4, 2960, Note_on_c, 0, 79, 88
4, 2999, Note_off_c, 0, 79, 0
4, 3000, Note_on_c, 0, 76, 88
4, 3039, Note_off_c, 0, 76, 0
4, 3040, Note_on_c, 0, 72, 88
4, 3079, Note_off_c, 0, 72, 0
4, 3080, Note_on_c, 0, 84, 88
4, 3119, Note_off_c, 0, 84, 0
4, 3120, Note_on_c, 0, 81, 88
4, 3159, Note_off_c, 0, 81, 0
4, 3160, Note_on_c, 0, 77, 88
4, 3199, Note_off_c, 0, 77, 0
4, 3200, Note_on_c, 0, 81, 88
4, 3239, Note_off_c, 0, 81, 0
4, 3240, Note_on_c, 0, 77, 88
4, 3279, Note_off_c, 0, 77, 0
4, 3280, Note_on_c, 0, 72, 88
4, 3319, Note_off_c, 0, 72, 0
4, 3320, Note_on_c, 0, 81, 88
4, 3359, Note_off_c, 0, 81, 0
4, 3360, Note_on_c, 0, 77, 88
4, 3399, Note_off_c, 0, 77, 0
4, 3400, Note_on_c, 0, 74, 88
4, 3439, Note_off_c, 0, 74, 0
4, 3440, Note_on_c, 0, 77, 88
4, 3479, Note_off_c, 0, 77, 0
4, 3480, Note_on_c, 0, 74, 88
4, 3519, Note_off_c, 0, 74, 0
4, 3520, Note_on_c, 0, 69, 88
4, 3559, Note_off_c, 0, 69, 0
4, 3560, Note_on_c, 0, 77, 88
4, 3599, Note_off_c, 0, 77, 0
4, 3600, Note_on_c, 0, 74, 88
4, 3639, Note_off_c, 0, 74, 0
4, 3640, Note_on_c, 0, 70, 88
4, 3679, Note_off_c, 0, 70, 0
4, 3680, Note_on_c, 0, 74, 88
4, 3719, Note_off_c, 0, 74, 0
4, 3720, Note_on_c, 0, 70, 88
4, 3759, Note_off_c, 0, 70, 0
4, 3760, Note_on_c, 0, 65, 88
4, 3799, Note_off_c, 0, 65, 0
4, 3800, Note_on_c, 0, 74, 88
4, 3839, Note_off_c, 0, 74, 0
4, 3840, Note_on_c, 0, 70, 88
4, 3879, Note_off_c, 0, 70, 0
4, 3880, Note_on_c, 0, 67, 88
4, 3919, Note_off_c, 0, 67, 0
4, 3920, Note_on_c, 0, 70, 88
4, 3959, Note_off_c, 0, 70, 0
4, 3960, Note_on_c, 0, 67, 88
4, 3999, Note_off_c, 0, 67, 0
4, 4000, Note_on_c, 0, 62, 88
4, 4039, Note_off_c, 0, 62, 0
4, 4040, Note_on_c, 0, 70, 88
4, 4079, Note_off_c, 0, 70, 0
4, 4080, Note_on_c, 0, 67, 88
4, 4119, Note_off_c, 0, 67, 0
4, 4120, Note_on_c, 0, 60, 88
4, 4159, Note_off_c, 0, 60, 0
4, 4160, Note_on_c, 0, 70, 88
4, 4199, Note_off_c, 0, 70, 0
4, 4200, Note_on_c, 0, 67, 88
4, 4239, Note_off_c, 0, 67, 0
4, 4240, Note_on_c, 0, 64, 88
4, 4279, Note_off_c, 0, 64, 0
4, 4280, Note_on_c, 0, 70, 88
4, 4319, Note_off_c, 0, 70, 0
4, 4320, Note_on_c, 0, 69, 88
4, 4359, Note_off_c, 0, 69, 0
4, 4360, Note_on_c, 0, 65, 88
4, 4399, Note_off_c, 0, 65, 0
4, 4400, Note_on_c, 0, 69, 88
4, 4439, Note_off_c, 0, 69, 0
4, 4440, Note_on_c, 0, 65, 88
4, 4479, Note_off_c, 0, 65, 0
4, 4480, Note_on_c, 0, 60, 88
4, 4519, Note_off_c, 0, 60, 0
4, 4520, Note_on_c, 0, 65, 88
4, 4559, Note_off_c, 0, 65, 0
4, 4560, Note_on_c, 0, 62, 88
4, 4599, Note_off_c, 0, 62, 0
4, 4600, Note_on_c, 0, 58, 88
4, 4639, Note_off_c, 0, 58, 0
4, 4640, Note_on_c, 0, 65, 88
4, 4679, Note_off_c, 0, 65, 0
4, 4680, Note_on_c, 0, 60, 88
4, 4719, Note_off_c, 0, 60, 0
4, 4720, Note_on_c, 0, 58, 88
4, 4759, Note_off_c, 0, 58, 0
4, 4760, Note_on_c, 0, 64, 88
4, 4799, Note_off_c, 0, 64, 0
4, 4800, Note_on_c, 0, 60, 88
4, 4839, Note_off_c, 0, 60, 0
4, 4840, Note_on_c, 0, 57, 88
4, 4879, Note_off_c, 0, 57, 0
4, 4880, Note_on_c, 0, 65, 88
4, 4919, Note_off_c, 0, 65, 0
4, 4920, Note_on_c, 0, 60, 88
4, 4959, Note_off_c, 0, 60, 0
4, 4960, Note_on_c, 0, 57, 88
4, 4999, Note_off_c, 0, 57, 0
4, 5000, Note_on_c, 0, 60, 88
4, 5039, Note_off_c, 0, 60, 0
4, 5040, Note_on_c, 0, 57, 88
4, 5079, Note_off_c, 0, 57, 0
4, 5080, Note_on_c, 0, 53, 88
4, 5119, Note_off_c, 0, 53, 0
4, 5120, Note_on_c, 0, 60, 88
4, 5159, Note_off_c, 0, 60, 0
4, 5160, Note_on_c, 0, 57, 88
4, 5199, Note_off_c, 0, 57, 0
4, 5200, Note_on_c, 0, 53, 88
4, 5239, Note_off_c, 0, 53, 0
4, 5240, Note_on_c, 0, 60, 88
4, 5279, Note_off_c, 0, 60, 0
4, 5280, Note_on_c, 0, 57, 88
4, 5319, Note_off_c, 0, 57, 0
4, 5320, Note_on_c, 0, 54, 88
4, 5359, Note_off_c, 0, 54, 0
4, 5360, Note_on_c, 0, 60, 88
4, 5399, Note_off_c, 0, 60, 0
4, 5400, Note_on_c, 0, 57, 88
4, 5439, Note_off_c, 0, 57, 0
4, 5440, Note_on_c, 0, 54, 88
4, 5479, Note_off_c, 0, 54, 0
4, 5480, Note_on_c, 0, 63, 88
4, 5519, Note_off_c, 0, 63, 0
4, 5520, Note_on_c, 0, 57, 88
4, 5559, Note_off_c, 0, 57, 0
4, 5560, Note_on_c, 0, 54, 88
4, 5599, Note_off_c, 0, 54, 0
4, 5600, Note_on_c, 0, 62, 88
4, 5639, Note_off_c, 0, 62, 0
4, 5640, Note_on_c, 0, 57, 88
4, 5679, Note_off_c, 0, 57, 0
4, 5680, Note_on_c, 0, 54, 88
4, 5719, Note_off_c, 0, 54, 0
4, 5720, Note_on_c, 0, 60, 88
4, 5759, Note_off_c, 0, 60, 0
4, 5760, Note_on_c, 0, 58, 88
4, 5799, Note_off_c, 0, 58, 0
4, 5800, Note_on_c, 0, 55, 88
4, 5839, Note_off_c, 0, 55, 0
4, 5840, Note_on_c, 0, 62, 88
4, 5879, Note_off_c, 0, 62, 0
4, 5880, Note_on_c, 0, 58, 88
4, 5919, Note_off_c, 0, 58, 0
4, 5920, Note_on_c, 0, 55, 88
4, 5959, Note_off_c, 0, 55, 0
4, 5960, Note_on_c, 0, 62, 88
4, 5999, Note_off_c, 0, 62, 0
4, 6000, Note_on_c, 0, 58, 88
4, 6039, Note_off_c, 0, 58, 0
4, 6040, Note_on_c, 0, 55, 88
4, 6079, Note_off_c, 0, 55, 0
4, 6080, Note_on_c, 0, 64, 88
4, 6119, Note_off_c, 0, 64, 0
4, 6120, Note_on_c, 0, 58, 88
4, 6159, Note_off_c, 0, 58, 0
4, 6160, Note_on_c, 0, 55, 88
4, 6199, Note_off_c, 0, 55, 0
4, 6200, Note_on_c, 0, 66, 88
4, 6239, Note_off_c, 0, 66, 0
4, 6240, Note_on_c, 0, 58, 88
4, 6279, Note_off_c, 0, 58, 0
4, 6280, Note_on_c, 0, 55, 88
4, 6319, Note_off_c, 0, 55, 0
4, 6320, Note_on_c, 0, 67, 88
4, 6359, Note_off_c, 0, 67, 0
4, 6360, Note_on_c, 0, 62, 88
4, 6399, Note_off_c, 0, 62, 0
4, 6400, Note_on_c, 0, 58, 88
4, 6439, Note_off_c, 0, 58, 0
4, 6440, Note_on_c, 0, 67, 88
4, 6479, Note_off_c, 0, 67, 0
4, 6480, Note_on_c, 0, 63, 88
4, 6519, Note_off_c, 0, 63, 0
4, 6520, Note_on_c, 0, 57, 88
4, 6559, Note_off_c, 0, 57, 0
4, 6560, Note_on_c, 0, 67, 88
4, 6599, Note_off_c, 0, 67, 0
4, 6600, Note_on_c, 0, 62, 88
4, 6639, Note_off_c, 0, 62, 0
4, 6640, Note_on_c, 0, 57, 88
4, 6679, Note_off_c, 0, 57, 0
4, 6680, Note_on_c, 0, 66, 88
4, 6719, Note_off_c, 0, 66, 0
4, 6720, Note_on_c, 0, 62, 88
4, 6759, Note_off_c, 0, 62, 0
4, 6760, Note_on_c, 0, 58, 88
4, 6799, Note_off_c, 0, 58, 0
4, 6800, Note_on_c, 0, 67, 88
4, 6839, Note_off_c, 0, 67, 0
4, 6840, Note_on_c, 0, 62, 88
4, 6879, Note_off_c, 0, 62, 0
4, 6880, Note_on_c, 0, 58, 88
4, 6919, Note_off_c, 0, 58, 0
4, 6920, Note_on_c, 0, 62, 88
4, 6959, Note_off_c, 0, 62, 0
4, 6960, Note_on_c, 0, 58, 88
4, 6999, Note_off_c, 0, 58, 0
4, 7000, Note_on_c, 0, 55, 88
4, 7039, Note_off_c, 0, 55, 0
4, 7040, Note_on_c, 0, 62, 88
4, 7079, Note_off_c, 0, 62, 0
4, 7080, Note_on_c, 0, 58, 88
4, 7119, Note_off_c, 0, 58, 0
4, 7120, Note_on_c, 0, 55, 88
4, 7159, Note_off_c, 0, 55, 0
4, 7160, Note_on_c, 0, 62, 88
4, 7199, Note_off_c, 0, 62, 0
4, 7200, Note_on_c, 0, 59, 88
4, 7239, Note_off_c, 0, 59, 0
4, 7240, Note_on_c, 0, 56, 88
4, 7279, Note_off_c, 0, 56, 0
4, 7280, Note_on_c, 0, 62, 88
4, 7319, Note_off_c, 0, 62, 0
4, 7320, Note_on_c, 0, 59, 88
4, 7359, Note_off_c, 0, 59, 0
4, 7360, Note_on_c, 0, 56, 88
4, 7399, Note_off_c, 0, 56, 0
4, 7400, Note_on_c, 0, 65, 88
4, 7439, Note_off_c, 0, 65, 0
4, 7440, Note_on_c, 0, 59, 88
4, 7479, Note_off_c, 0, 59, 0
4, 7480, Note_on_c, 0, 56, 88
4, 7519, Note_off_c, 0, 56, 0
4, 7520, Note_on_c, 0, 64, 88
4, 7559, Note_off_c, 0, 64, 0
4, 7560, Note_on_c, 0, 59, 88
4, 7599, Note_off_c, 0, 59, 0
4, 7600, Note_on_c, 0, 56, 88
4, 7639, Note_off_c, 0, 56, 0
4, 7640, Note_on_c, 0, 62, 88
4, 7679, Note_off_c, 0, 62, 0
4, 7680, Note_on_c, 0, 60, 88
4, 7719, Note_off_c, 0, 60, 0
4, 7720, Note_on_c, 0, 57, 88
4, 7759, Note_off_c, 0, 57, 0
4, 7760, Note_on_c, 0, 64, 88
4, 7799, Note_off_c, 0, 64, 0
4, 7800, Note_on_c, 0, 60, 88
4, 7839, Note_off_c, 0, 60, 0
4, 7840, Note_on_c, 0, 57, 88
4, 7879, Note_off_c, 0, 57, 0
4, 7880, Note_on_c, 0, 64, 88
4, 7919, Note_off_c, 0, 64, 0
4, 7920, Note_on_c, 0, 60, 88
4, 7959, Note_off_c, 0, 60, 0
4, 7960, Note_on_c, 0, 57, 88
4, 7999, Note_off_c, 0, 57, 0
4, 8000, Note_on_c, 0, 66, 88
4, 8039, Note_off_c, 0, 66, 0
4, 8040, Note_on_c, 0, 60, 88
4, 8079, Note_off_c, 0, 60, 0
4, 8080, Note_on_c, 0, 57, 88
4, 8119, Note_off_c, 0, 57, 0
4, 8120, Note_on_c, 0, 68, 88
4, 8159, Note_off_c, 0, 68, 0
4, 8160, Note_on_c, 0, 60, 88
4, 8199, Note_off_c, 0, 60, 0
4, 8200, Note_on_c, 0, 57, 88
4, 8239, Note_off_c, 0, 57, 0
4, 8240, Note_on_c, 0, 69, 88
4, 8279, Note_off_c, 0, 69, 0
4, 8280, Note_on_c, 0, 64, 88
4, 8319, Note_off_c, 0, 64, 0
4, 8320, Note_on_c, 0, 60, 88
4, 8359, Note_off_c, 0, 60, 0
4, 8360, Note_on_c, 0, 69, 88
4, 8399, Note_off_c, 0, 69, 0
4, 8400, Note_on_c, 0, 65, 88
4, 8439, Note_off_c, 0, 65, 0
4, 8440, Note_on_c, 0, 59, 88
4, 8479, Note_off_c, 0, 59, 0
4, 8480, Note_on_c, 0, 69, 88
4, 8519, Note_off_c, 0, 69, 0
4, 8520, Note_on_c, 0, 64, 88
4, 8559, Note_off_c, 0, 64, 0
4, 8560, Note_on_c, 0, 59, 88
4, 8599, Note_off_c, 0, 59, 0
4, 8600, Note_on_c, 0, 68, 88
4, 8639, Note_off_c, 0, 68, 0
4, 8640, Note_on_c, 0, 64, 88
4, 8679, Note_off_c, 0, 64, 0
4, 8680, Note_on_c, 0, 60, 88
4, 8719, Note_off_c, 0, 60, 0
4, 8720, Note_on_c, 0, 69, 88
4, 8759, Note_off_c, 0, 69, 0
4, 8760, Note_on_c, 0, 64, 88
4, 8799, Note_off_c, 0, 64, 0
4, 8800, Note_on_c, 0, 60, 88
4, 8839, Note_off_c, 0, 60, 0
4, 8840, Note_on_c, 0, 72, 88
4, 8879, Note_off_c, 0, 72, 0
4, 8880, Note_on_c, 0, 65, 88
4, 8919, Note_off_c, 0, 65, 0
4, 8920, Note_on_c, 0, 62, 88
4, 8959, Note_off_c, 0, 62, 0
4, 8960, Note_on_c, 0, 70, 88
4, 8999, Note_off_c, 0, 70, 0
4, 9000, Note_on_c, 0, 67, 88
4, 9039, Note_off_c, 0, 67, 0
4, 9040, Note_on_c, 0, 64, 88
4, 9079, Note_off_c, 0, 64, 0
4, 9080, Note_on_c, 0, 70, 88
4, 9119, Note_off_c, 0, 70, 0
4, 9120, Note_on_c, 0, 69, 88
4, 9159, Note_off_c, 0, 69, 0
4, 9160, Note_on_c, 0, 65, 88
4, 9199, Note_off_c, 0, 65, 0
4, 9200, Note_on_c, 0, 69, 88
4, 9239, Note_off_c, 0, 69, 0
4, 9240, Note_on_c, 0, 60, 88
4, 9279, Note_off_c, 0, 60, 0
4, 9280, Note_on_c, 0, 57, 88
4, 9319, Note_off_c, 0, 57, 0
4, 9320, Note_on_c, 0, 69, 88
4, 9359, Note_off_c, 0, 69, 0
4, 9360, Note_on_c, 0, 62, 88
4, 9399, Note_off_c, 0, 62, 0
4, 9400, Note_on_c, 0, 59, 88
4, 9439, Note_off_c, 0, 59, 0
4, 9440, Note_on_c, 0, 67, 88
4, 9479, Note_off_c, 0, 67, 0
4, 9480, Note_on_c, 0, 64, 88
4, 9519, Note_off_c, 0, 64, 0
4, 9520, Note_on_c, 0, 61, 88
4, 9559, Note_off_c, 0, 61, 0
4, 9560, Note_on_c, 0, 67, 88
4, 9599, Note_off_c, 0, 67, 0
4, 9600, Note_on_c, 0, 65, 88
4, 9639, Note_off_c, 0, 65, 0
4, 9640, Note_on_c, 0, 62, 88
4, 9679, Note_off_c, 0, 62, 0
4, 9680, Note_on_c, 0, 74, 88
4, 9719, Note_off_c, 0, 74, 0
4, 9720, Note_on_c, 0, 69, 88
4, 9759, Note_off_c, 0, 69, 0
4, 9760, Note_on_c, 0, 65, 88
4, 9799, Note_off_c, 0, 65, 0
4, 9800, Note_on_c, 0, 77, 88
4, 9839, Note_off_c, 0, 77, 0
4, 9840, Note_on_c, 0, 70, 88
4, 9879, Note_off_c, 0, 70, 0
4, 9880, Note_on_c, 0, 67, 88
4, 9919, Note_off_c, 0, 67, 0
4, 9920, Note_on_c, 0, 75, 88
4, 9959, Note_off_c, 0, 75, 0
4, 9960, Note_on_c, 0, 72, 88
4, 9999, Note_off_c, 0, 72, 0
4, 10000, Note_on_c, 0, 69, 88
4, 10039, Note_off_c, 0, 69, 0
4, 10040, Note_on_c, 0, 75, 88
4, 10079, Note_off_c, 0, 75, 0
4, 10080, Note_on_c, 0, 74, 88
4, 10119, Note_off_c, 0, 74, 0
4, 10120, Note_on_c, 0, 70, 88
4, 10159, Note_off_c, 0, 70, 0
4, 10160, Note_on_c, 0, 74, 88
4, 10199, Note_off_c, 0, 74, 0
4, 10200, Note_on_c, 0, 65, 88
4, 10239, Note_off_c, 0, 65, 0
4, 10240, Note_on_c, 0, 62, 88
4, 10279, Note_off_c, 0, 62, 0
4, 10280, Note_on_c, 0, 74, 88
4, 10319, Note_off_c, 0, 74, 0
4, 10320, Note_on_c, 0, 67, 88
4, 10359, Note_off_c, 0, 67, 0
4, 10360, Note_on_c, 0, 64, 88
4, 10399, Note_off_c, 0, 64, 0
4, 10400, Note_on_c, 0, 72, 88
4, 10439, Note_off_c, 0, 72, 0
4, 10440, Note_on_c, 0, 69, 88
4, 10479, Note_off_c, 0, 69, 0
4, 10480, Note_on_c, 0, 66, 88
4, 10519, Note_off_c, 0, 66, 0
4, 10520, Note_on_c, 0, 72, 88
4, 10559, Note_off_c, 0, 72, 0
4, 10560, Note_on_c, 0, 70, 88
4, 10599, Note_off_c, 0, 70, 0
4, 10600, Note_on_c, 0, 67, 88
4, 10639, Note_off_c, 0, 67, 0
4, 10640, Note_on_c, 0, 74, 88
4, 10679, Note_off_c, 0, 74, 0
4, 10680, Note_on_c, 0, 70, 88
4, 10719, Note_off_c, 0, 70, 0
4, 10720, Note_on_c, 0, 67, 88
4, 10759, Note_off_c, 0, 67, 0
4, 10760, Note_on_c, 0, 79, 88
4, 10799, Note_off_c, 0, 79, 0
4, 10800, Note_on_c, 0, 75, 88
4, 10839, Note_off_c, 0, 75, 0
4, 10840, Note_on_c, 0, 67, 88
4, 10879, Note_off_c, 0, 67, 0
4, 10880, Note_on_c, 0, 79, 88
4, 10919, Note_off_c, 0, 79, 0
4, 10920, Note_on_c, 0, 74, 88
4, 10959, Note_off_c, 0, 74, 0
4, 10960, Note_on_c, 0, 67, 88
4, 10999, Note_off_c, 0, 67, 0
4, 11000, Note_on_c, 0, 79, 88
4, 11039, Note_off_c, 0, 79, 0
4, 11040, Note_on_c, 0, 73, 88
4, 11079, Note_off_c, 0, 73, 0
4, 11080, Note_on_c, 0, 69, 88
4, 11119, Note_off_c, 0, 69, 0
4, 11120, Note_on_c, 0, 79, 88
4, 11159, Note_off_c, 0, 79, 0
4, 11160, Note_on_c, 0, 76, 88
4, 11199, Note_off_c, 0, 76, 0
4, 11200, Note_on_c, 0, 73, 88
4, 11239, Note_off_c, 0, 73, 0
4, 11240, Note_on_c, 0, 82, 88
4, 11279, Note_off_c, 0, 82, 0
4, 11280, Note_on_c, 0, 76, 88
4, 11319, Note_off_c, 0, 76, 0
4, 11320, Note_on_c, 0, 73, 88
4, 11359, Note_off_c, 0, 73, 0
4, 11360, Note_on_c, 0, 81, 88
4, 11399, Note_off_c, 0, 81, 0
4, 11400, Note_on_c, 0, 76, 88
4, 11439, Note_off_c, 0, 76, 0
4, 11440, Note_on_c, 0, 73, 88
4, 11479, Note_off_c, 0, 73, 0
4, 11480, Note_on_c, 0, 79, 88
4, 11519, Note_off_c, 0, 79, 0
4, 11520, Note_on_c, 0, 77, 88
4, 11559, Note_off_c, 0, 77, 0
4, 11560, Note_on_c, 0, 74, 88
4, 11599, Note_off_c, 0, 74, 0
4, 11600, Note_on_c, 0, 69, 88
4, 11639, Note_off_c, 0, 69, 0
4, 11640, Note_on_c, 0, 65, 88
4, 11679, Note_off_c, 0, 65, 0
4, 11680, Note_on_c, 0, 62, 88
4, 11719, Note_off_c, 0, 62, 0
4, 11720, Note_on_c, 0, 69, 88
4, 11759, Note_off_c, 0, 69, 0
4, 11760, Note_on_c, 0, 65, 88
4, 11799, Note_off_c, 0, 65, 0
4, 11800, Note_on_c, 0, 62, 88
4, 11839, Note_off_c, 0, 62, 0
4, 11840, Note_on_c, 0, 71, 88
4, 11879, Note_off_c, 0, 71, 0
4, 11880, Note_on_c, 0, 65, 88
4, 11919, Note_off_c, 0, 65, 0
4, 11920, Note_on_c, 0, 62, 88
4, 11959, Note_off_c, 0, 62, 0
4, 11960, Note_on_c, 0, 73, 88
4, 11999, Note_off_c, 0, 73, 0
4, 12000, Note_on_c, 0, 65, 88
4, 12039, Note_off_c, 0, 65, 0
4, 12040, Note_on_c, 0, 62, 88
4, 12079, Note_off_c, 0, 62, 0
4, 12080, Note_on_c, 0, 74, 88
4, 12119, Note_off_c, 0, 74, 0
4, 12120, Note_on_c, 0, 65, 88
4, 12159, Note_off_c, 0, 65, 0
4, 12160, Note_on_c, 0, 62, 88
4, 12199, Note_off_c, 0, 62, 0
4, 12200, Note_on_c, 0, 69, 88
4, 12239, Note_off_c, 0, 69, 0
4, 12240, Note_on_c, 0, 65, 88
4, 12279, Note_off_c, 0, 65, 0
4, 12280, Note_on_c, 0, 62, 88
4, 12319, Note_off_c, 0, 62, 0
4, 12320, Note_on_c, 0, 70, 88
4, 12359, Note_off_c, 0, 70, 0
4, 12360, Note_on_c, 0, 64, 88
4, 12399, Note_off_c, 0, 64, 0
4, 12400, Note_on_c, 0, 61, 88
4, 12439, Note_off_c, 0, 61, 0
4, 12440, Note_on_c, 0, 69, 88
4, 12479, Note_off_c, 0, 69, 0
4, 12480, Note_on_c, 0, 64, 88
4, 12519, Note_off_c, 0, 64, 0
4, 12520, Note_on_c, 0, 61, 88
4, 12559, Note_off_c, 0, 61, 0
4, 12560, Note_on_c, 0, 67, 88
4, 12599, Note_off_c, 0, 67, 0
4, 12600, Note_on_c, 0, 62, 88
4, 12639, Note_off_c, 0, 62, 0
4, 12640, Note_on_c, 0, 57, 88
4, 12679, Note_off_c, 0, 57, 0
4, 12680, Note_on_c, 0, 65, 88
4, 12719, Note_off_c, 0, 65, 0
4, 12720, Note_on_c, 0, 62, 88
4, 12759, Note_off_c, 0, 62, 0
4, 12760, Note_on_c, 0, 58, 88
4, 12799, Note_off_c, 0, 58, 0
4, 12800, Note_on_c, 0, 64, 88
4, 12839, Note_off_c, 0, 64, 0
4, 12840, Note_on_c, 0, 60, 88
4, 12879, Note_off_c, 0, 60, 0
4, 12880, Note_on_c, 0, 53, 88
4, 12919, Note_off_c, 0, 53, 0
4, 12920, Note_on_c, 0, 63, 88
4, 12959, Note_off_c, 0, 63, 0
4, 12960, Note_on_c, 0, 58, 88
4, 12999, Note_off_c, 0, 58, 0
4, 13000, Note_on_c, 0, 53, 88
4, 13039, Note_off_c, 0, 53, 0
4, 13040, Note_on_c, 0, 62, 88
4, 13079, Note_off_c, 0, 62, 0
4, 13080, Note_on_c, 0, 57, 88
4, 13119, Note_off_c, 0, 57, 0
4, 13120, Note_on_c, 0, 53, 88
4, 13159, Note_off_c, 0, 53, 0
4, 13160, Note_on_c, 0, 62, 88
4, 13199, Note_off_c, 0, 62, 0
4, 13200, Note_on_c, 0, 58, 88
4, 13239, Note_off_c, 0, 58, 0
4, 13240, Note_on_c, 0, 52, 88
4, 13279, Note_off_c, 0, 52, 0
4, 13280, Note_on_c, 0, 62, 88
4, 13319, Note_off_c, 0, 62, 0
4, 13320, Note_on_c, 0, 57, 88
4, 13359, Note_off_c, 0, 57, 0
4, 13360, Note_on_c, 0, 52, 88
4, 13399, Note_off_c, 0, 52, 0
4, 13400, Note_on_c, 0, 61, 88
4, 13439, Note_off_c, 0, 61, 0
4, 13440, Note_on_c, 0, 57, 88
4, 13479, Note_off_c, 0, 57, 0
4, 13480, Note_on_c, 0, 54, 88
4, 13519, Note_off_c, 0, 54, 0
4, 13520, Note_on_c, 0, 57, 88
4, 13559, Note_off_c, 0, 57, 0
4, 13560, Note_on_c, 0, 60, 88
4, 13599, Note_off_c, 0, 60, 0
4, 13600, Note_on_c, 0, 57, 88
4, 13639, Note_off_c, 0, 57, 0
4, 13640, Note_on_c, 0, 60, 88
4, 13679, Note_off_c, 0, 60, 0
4, 13680, Note_on_c, 0, 63, 88
4, 13719, Note_off_c, 0, 63, 0
4, 13720, Note_on_c, 0, 60, 88
4, 13759, Note_off_c, 0, 60, 0
4, 13760, Note_on_c, 0, 63, 88
4, 13799, Note_off_c, 0, 63, 0
4, 13800, Note_on_c, 0, 66, 88
4, 13916, Note_off_c, 0, 66, 0
4, 13920, Note_on_c, 0, 58, 88
4, 13959, Note_off_c, 0, 58, 0
4, 13960, Note_on_c, 0, 55, 88
4, 13999, Note_off_c, 0, 55, 0
4, 14000, Note_on_c, 0, 58, 88
4, 14039, Note_off_c, 0, 58, 0
4, 14040, Note_on_c, 0, 62, 88
4, 14079, Note_off_c, 0, 62, 0
4, 14080, Note_on_c, 0, 58, 88
4, 14119, Note_off_c, 0, 58, 0
4, 14120, Note_on_c, 0, 62, 88
4, 14159, Note_off_c, 0, 62, 0
4, 14160, Note_on_c, 0, 67, 88
4, 14199, Note_off_c, 0, 67, 0
4, 14200, Note_on_c, 0, 62, 88
4, 14239, Note_off_c, 0, 62, 0
4, 14240, Note_on_c, 0, 67, 88
4, 14279, Note_off_c, 0, 67, 0
4, 14280, Note_on_c, 0, 70, 88
4, 14439, Note_off_c, 0, 70, 0
4, 14440, Note_on_c, 0, 67, 88
4, 14479, Note_off_c, 0, 67, 0
4, 14480, Note_on_c, 0, 76, 88
4, 14519, Note_off_c, 0, 76, 0
4, 14520, Note_on_c, 0, 70, 88
4, 14559, Note_off_c, 0, 70, 0
4, 14560, Note_on_c, 0, 67, 88
4, 14599, Note_off_c, 0, 67, 0
4, 14600, Note_on_c, 0, 79, 88
4, 14639, Note_off_c, 0, 79, 0
4, 14640, Note_on_c, 0, 70, 88
4, 14679, Note_off_c, 0, 70, 0
4, 14680, Note_on_c, 0, 67, 88
4, 14719, Note_off_c, 0, 67, 0
4, 14720, Note_on_c, 0, 76, 88
4, 14759, Note_off_c, 0, 76, 0
4, 14760, Note_on_c, 0, 70, 88
4, 14799, Note_off_c, 0, 70, 0
4, 14800, Note_on_c, 0, 67, 88
4, 14839, Note_off_c, 0, 67, 0
4, 14840, Note_on_c, 0, 73, 88
4, 14879, Note_off_c, 0, 73, 0
4, 14880, Note_on_c, 0, 70, 88
4, 14919, Note_off_c, 0, 70, 0
4, 14920, Note_on_c, 0, 67, 88
4, 14959, Note_off_c, 0, 67, 0
4, 14960, Note_on_c, 0, 76, 88
4, 14999, Note_off_c, 0, 76, 0
4, 15000, Note_on_c, 0, 70, 88
4, 15039, Note_off_c, 0, 70, 0
4, 15040, Note_on_c, 0, 67, 88
4, 15079, Note_off_c, 0, 67, 0
4, 15080, Note_on_c, 0, 79, 88
4, 15119, Note_off_c, 0, 79, 0
4, 15120, Note_on_c, 0, 70, 88
4, 15159, Note_off_c, 0, 70, 0
4, 15160, Note_on_c, 0, 67, 88
4, 15199, Note_off_c, 0, 67, 0
4, 15200, Note_on_c, 0, 76, 88
4, 15239, Note_off_c, 0, 76, 0
4, 15240, Note_on_c, 0, 70, 88
4, 15279, Note_off_c, 0, 70, 0
4, 15280, Note_on_c, 0, 67, 88
4, 15319, Note_off_c, 0, 67, 0
4, 15320, Note_on_c, 0, 73, 88
4, 15359, Note_off_c, 0, 73, 0
4, 15360, Note_on_c, 0, 69, 88
4, 15399, Note_off_c, 0, 69, 0
4, 15400, Note_on_c, 0, 66, 88
4, 15439, Note_off_c, 0, 66, 0
4, 15440, Note_on_c, 0, 74, 88
4, 15479, Note_off_c, 0, 74, 0
4, 15480, Note_on_c, 0, 69, 88
4, 15519, Note_off_c, 0, 69, 0
4, 15520, Note_on_c, 0, 66, 88
4, 15559, Note_off_c, 0, 66, 0
4, 15560, Note_on_c, 0, 75, 88
4, 15599, Note_off_c, 0, 75, 0
4, 15600, Note_on_c, 0, 69, 88
4, 15639, Note_off_c, 0, 69, 0
4, 15640, Note_on_c, 0, 66, 88
4, 15679, Note_off_c, 0, 66, 0
4, 15680, Note_on_c, 0, 74, 88
4, 15719, Note_off_c, 0, 74, 0
4, 15720, Note_on_c, 0, 69, 88
4, 15759, Note_off_c, 0, 69, 0
4, 15760, Note_on_c, 0, 66, 88
4, 15799, Note_off_c, 0, 66, 0
4, 15800, Note_on_c, 0, 72, 88
4, 15839, Note_off_c, 0, 72, 0
4, 15840, Note_on_c, 0, 69, 88
4, 15879, Note_off_c, 0, 69, 0
4, 15880, Note_on_c, 0, 66, 88
4, 15919, Note_off_c, 0, 66, 0
4, 15920, Note_on_c, 0, 74, 88
4, 15959, Note_off_c, 0, 74, 0
4, 15960, Note_on_c, 0, 69, 88
4, 15999, Note_off_c, 0, 69, 0
4, 16000, Note_on_c, 0, 66, 88
4, 16039, Note_off_c, 0, 66, 0
4, 16040, Note_on_c, 0, 75, 88
4, 16079, Note_off_c, 0, 75, 0
4, 16080, Note_on_c, 0, 69, 88
4, 16119, Note_off_c, 0, 69, 0
4, 16120, Note_on_c, 0, 66, 88
4, 16159, Note_off_c, 0, 66, 0
4, 16160, Note_on_c, 0, 74, 88
4, 16199, Note_off_c, 0, 74, 0
4, 16200, Note_on_c, 0, 69, 88
4, 16239, Note_off_c, 0, 69, 0
4, 16240, Note_on_c, 0, 66, 88
4, 16279, Note_off_c, 0, 66, 0
4, 16280, Note_on_c, 0, 72, 88
4, 16319, Note_off_c, 0, 72, 0
4, 16320, Note_on_c, 0, 67, 88
4, 16359, Note_off_c, 0, 67, 0
4, 16360, Note_on_c, 0, 62, 88
4, 16399, Note_off_c, 0, 62, 0
4, 16400, Note_on_c, 0, 67, 88
4, 16439, Note_off_c, 0, 67, 0
4, 16440, Note_on_c, 0, 70, 88
4, 16479, Note_off_c, 0, 70, 0
4, 16480, Note_on_c, 0, 67, 88
4, 16519, Note_off_c, 0, 67, 0
4, 16520, Note_on_c, 0, 70, 88
4, 16559, Note_off_c, 0, 70, 0
4, 16560, Note_on_c, 0, 74, 88
4, 16599, Note_off_c, 0, 74, 0
4, 16600, Note_on_c, 0, 70, 88
4, 16639, Note_off_c, 0, 70, 0
4, 16640, Note_on_c, 0, 74, 88
4, 16679, Note_off_c, 0, 74, 0
4, 16680, Note_on_c, 0, 79, 88
4, 16719, Note_off_c, 0, 79, 0
4, 16720, Note_on_c, 0, 74, 88
4, 16759, Note_off_c, 0, 74, 0
4, 16760, Note_on_c, 0, 79, 88
4, 16799, Note_off_c, 0, 79, 0
4, 16800, Note_on_c, 0, 82, 88
4, 16839, Note_off_c, 0, 82, 0
4, 16840, Note_on_c, 0, 81, 88
4, 16879, Note_off_c, 0, 81, 0
4, 16880, Note_on_c, 0, 79, 88
4, 16919, Note_off_c, 0, 79, 0
4, 16920, Note_on_c, 0, 77, 88
4, 16959, Note_off_c, 0, 77, 0
4, 16960, Note_on_c, 0, 76, 88
4, 16999, Note_off_c, 0, 76, 0
4, 17000, Note_on_c, 0, 74, 88
4, 17039, Note_off_c, 0, 74, 0
4, 17040, Note_on_c, 0, 73, 88
4, 17079, Note_off_c, 0, 73, 0
4, 17080, Note_on_c, 0, 69, 88
4, 17119, Note_off_c, 0, 69, 0
4, 17120, Note_on_c, 0, 73, 88
4, 17159, Note_off_c, 0, 73, 0
4, 17160, Note_on_c, 0, 76, 88
4, 17199, Note_off_c, 0, 76, 0
4, 17200, Note_on_c, 0, 73, 88
4, 17239, Note_off_c, 0, 73, 0
4, 17240, Note_on_c, 0, 76, 88
4, 17279, Note_off_c, 0, 76, 0
4, 17280, Note_on_c, 0, 79, 88
4, 17319, Note_off_c, 0, 79, 0
4, 17320, Note_on_c, 0, 76, 88
4, 17359, Note_off_c, 0, 76, 0
4, 17360, Note_on_c, 0, 74, 88
4, 17399, Note_off_c, 0, 74, 0
4, 17400, Note_on_c, 0, 73, 88
4, 17439, Note_off_c, 0, 73, 0
4, 17440, Note_on_c, 0, 71, 88
4, 17479, Note_off_c, 0, 71, 0
4, 17480, Note_on_c, 0, 69, 88
4, 17519, Note_off_c, 0, 69, 0
4, 17520, Note_on_c, 0, 67, 88
4, 17559, Note_off_c, 0, 67, 0
4, 17560, Note_on_c, 0, 64, 88
4, 17599, Note_off_c, 0, 64, 0
4, 17600, Note_on_c, 0, 67, 88
4, 17639, Note_off_c, 0, 67, 0
4, 17640, Note_on_c, 0, 70, 88
4, 17679, Note_off_c, 0, 70, 0
4, 17680, Note_on_c, 0, 67, 88
4, 17719, Note_off_c, 0, 67, 0
4, 17720, Note_on_c, 0, 70, 88
4, 17759, Note_off_c, 0, 70, 0
4, 17760, Note_on_c, 0, 73, 88
4, 17799, Note_off_c, 0, 73, 0
4, 17800, Note_on_c, 0, 67, 88
4, 17839, Note_off_c, 0, 67, 0
4, 17840, Note_on_c, 0, 76, 88
4, 17879, Note_off_c, 0, 76, 0
4, 17880, Note_on_c, 0, 73, 88
4, 17919, Note_off_c, 0, 73, 0
4, 17920, Note_on_c, 0, 70, 88
4, 17959, Note_off_c, 0, 70, 0
4, 17960, Note_on_c, 0, 76, 88
4, 17999, Note_off_c, 0, 76, 0
4, 18000, Note_on_c, 0, 73, 88
4, 18039, Note_off_c, 0, 73, 0
4, 18040, Note_on_c, 0, 69, 88
4, 18079, Note_off_c, 0, 69, 0
4, 18080, Note_on_c, 0, 76, 88
4, 18119, Note_off_c, 0, 76, 0
4, 18120, Note_on_c, 0, 73, 88
4, 18159, Note_off_c, 0, 73, 0
4, 18160, Note_on_c, 0, 67, 88
4, 18199, Note_off_c, 0, 67, 0
4, 18200, Note_on_c, 0, 76, 88
4, 18239, Note_off_c, 0, 76, 0
4, 18240, Note_on_c, 0, 72, 88
4, 18279, Note_off_c, 0, 72, 0
4, 18280, Note_on_c, 0, 69, 88
4, 18319, Note_off_c, 0, 69, 0
4, 18320, Note_on_c, 0, 74, 88
4, 18359, Note_off_c, 0, 74, 0
4, 18360, Note_on_c, 0, 70, 88
4, 18399, Note_off_c, 0, 70, 0
4, 18400, Note_on_c, 0, 67, 88
4, 18439, Note_off_c, 0, 67, 0
4, 18440, Note_on_c, 0, 75, 88
4, 18479, Note_off_c, 0, 75, 0
4, 18480, Note_on_c, 0, 69, 88
4, 18519, Note_off_c, 0, 69, 0
4, 18520, Note_on_c, 0, 66, 88
4, 18559, Note_off_c, 0, 66, 0
4, 18560, Note_on_c, 0, 74, 88
4, 18599, Note_off_c, 0, 74, 0
4, 18600, Note_on_c, 0, 69, 88
4, 18639, Note_off_c, 0, 69, 0
4, 18640, Note_on_c, 0, 66, 88
4, 18679, Note_off_c, 0, 66, 0
4, 18680, Note_on_c, 0, 72, 88
4, 18719, Note_off_c, 0, 72, 0
4, 18720, Note_on_c, 0, 67, 88
4, 18759, Note_off_c, 0, 67, 0
4, 18760, Note_on_c, 0, 62, 88
4, 18799, Note_off_c, 0, 62, 0
4, 18800, Note_on_c, 0, 70, 88
4, 18839, Note_off_c, 0, 70, 0
4, 18840, Note_on_c, 0, 67, 88
4, 18879, Note_off_c, 0, 67, 0
4, 18880, Note_on_c, 0, 65, 88
4, 18919, Note_off_c, 0, 65, 0
4, 18920, Note_on_c, 0, 70, 88
4, 18959, Note_off_c, 0, 70, 0
4, 18960, Note_on_c, 0, 67, 88
4, 18999, Note_off_c, 0, 67, 0
4, 19000, Note_on_c, 0, 63, 88
4, 19039, Note_off_c, 0, 63, 0
4, 19040, Note_on_c, 0, 70, 88
4, 19079, Note_off_c, 0, 70, 0
4, 19080, Note_on_c, 0, 67, 88
4, 19119, Note_off_c, 0, 67, 0
4, 19120, Note_on_c, 0, 62, 88
4, 19159, Note_off_c, 0, 62, 0
4, 19160, Note_on_c, 0, 70, 88
4, 19199, Note_off_c, 0, 70, 0
4, 19200, Note_on_c, 0, 67, 88
4, 19239, Note_off_c, 0, 67, 0
4, 19240, Note_on_c, 0, 61, 88
4, 19279, Note_off_c, 0, 61, 0
4, 19280, Note_on_c, 0, 70, 88
4, 19319, Note_off_c, 0, 70, 0
4, 19320, Note_on_c, 0, 64, 88
4, 19359, Note_off_c, 0, 64, 0
4, 19360, Note_on_c, 0, 61, 88
4, 19399, Note_off_c, 0, 61, 0
4, 19400, Note_on_c, 0, 70, 88
4, 19439, Note_off_c, 0, 70, 0
4, 19440, Note_on_c, 0, 64, 88
4, 19479, Note_off_c, 0, 64, 0
4, 19480, Note_on_c, 0, 61, 88
4, 19519, Note_off_c, 0, 61, 0
4, 19520, Note_on_c, 0, 69, 88
4, 19559, Note_off_c, 0, 69, 0
4, 19560, Note_on_c, 0, 64, 88
4, 19599, Note_off_c, 0, 64, 0
4, 19600, Note_on_c, 0, 61, 88
4, 19639, Note_off_c, 0, 61, 0
4, 19640, Note_on_c, 0, 67, 88
4, 19679, Note_off_c, 0, 67, 0
4, 19680, Note_on_c, 0, 62, 88
4, 19719, Note_off_c, 0, 62, 0
4, 19720, Note_on_c, 0, 59, 88
4, 19759, Note_off_c, 0, 59, 0
4, 19760, Note_on_c, 0, 65, 88
4, 19799, Note_off_c, 0, 65, 0
4, 19800, Note_on_c, 0, 62, 88
4, 19839, Note_off_c, 0, 62, 0
4, 19840, Note_on_c, 0, 60, 88
4, 19879, Note_off_c, 0, 60, 0
4, 19880, Note_on_c, 0, 65, 88
4, 19919, Note_off_c, 0, 65, 0
4, 19920, Note_on_c, 0, 62, 88
4, 19959, Note_off_c, 0, 62, 0
4, 19960, Note_on_c, 0, 59, 88
4, 19999, Note_off_c, 0, 59, 0
4, 20000, Note_on_c, 0, 65, 88
4, 20039, Note_off_c, 0, 65, 0
4, 20040, Note_on_c, 0, 62, 88
4, 20079, Note_off_c, 0, 62, 0
4, 20080, Note_on_c, 0, 57, 88
4, 20119, Note_off_c, 0, 57, 0
4, 20120, Note_on_c, 0, 65, 88
4, 20159, Note_off_c, 0, 65, 0
4, 20160, Note_on_c, 0, 61, 88
4, 20199, Note_off_c, 0, 61, 0
4, 20200, Note_on_c, 0, 55, 88
4, 20239, Note_off_c, 0, 55, 0
4, 20240, Note_on_c, 0, 64, 88
4, 20279, Note_off_c, 0, 64, 0
4, 20280, Note_on_c, 0, 61, 88
4, 20319, Note_off_c, 0, 61, 0
4, 20320, Note_on_c, 0, 58, 88
4, 20359, Note_off_c, 0, 58, 0
4, 20360, Note_on_c, 0, 64, 88
4, 20399, Note_off_c, 0, 64, 0
4, 20400, Note_on_c, 0, 61, 88
4, 20439, Note_off_c, 0, 61, 0
4, 20440, Note_on_c, 0, 57, 88
4, 20479, Note_off_c, 0, 57, 0
4, 20480, Note_on_c, 0, 64, 88
4, 20519, Note_off_c, 0, 64, 0
4, 20520, Note_on_c, 0, 61, 88
4, 20559, Note_off_c, 0, 61, 0
4, 20560, Note_on_c, 0, 55, 88
4, 20599, Note_off_c, 0, 55, 0
4, 20600, Note_on_c, 0, 64, 88
4, 20639, Note_off_c, 0, 64, 0
4, 20640, Note_on_c, 0, 59, 88
4, 20679, Note_off_c, 0, 59, 0
4, 20680, Note_on_c, 0, 56, 88
4, 20719, Note_off_c, 0, 56, 0
4, 20720, Note_on_c, 0, 62, 88
4, 20759, Note_off_c, 0, 62, 0
4, 20760, Note_on_c, 0, 61, 88
4, 20799, Note_off_c, 0, 61, 0
4, 20800, Note_on_c, 0, 56, 88
4, 20839, Note_off_c, 0, 56, 0
4, 20840, Note_on_c, 0, 64, 88
4, 20879, Note_off_c, 0, 64, 0
4, 20880, Note_on_c, 0, 62, 88
4, 20919, Note_off_c, 0, 62, 0
4, 20920, Note_on_c, 0, 56, 88
4, 20959, Note_off_c, 0, 56, 0
4, 20960, Note_on_c, 0, 65, 88
4, 20999, Note_off_c, 0, 65, 0
4, 21000, Note_on_c, 0, 55, 88
4, 21159, Note_off_c, 0, 55, 0
4, 21160, Note_on_c, 0, 52, 88
4, 21199, Note_off_c, 0, 52, 0
4, 21200, Note_on_c, 0, 55, 88
4, 21239, Note_off_c, 0, 55, 0
4, 21240, Note_on_c, 0, 61, 88
4, 21279, Note_off_c, 0, 61, 0
4, 21280, Note_on_c, 0, 55, 88
4, 21319, Note_off_c, 0, 55, 0
4, 21320, Note_on_c, 0, 61, 88
4, 21359, Note_off_c, 0, 61, 0
4, 21360, Note_on_c, 0, 64, 88
4, 21399, Note_off_c, 0, 64, 0
4, 21400, Note_on_c, 0, 61, 88
4, 21439, Note_off_c, 0, 61, 0
4, 21440, Note_on_c, 0, 64, 88
4, 21479, Note_off_c, 0, 64, 0
4, 21480, Note_on_c, 0, 67, 88
4, 21596, Note_off_c, 0, 67, 0
4, 21600, Note_on_c, 0, 65, 88
4, 21639, Note_off_c, 0, 65, 0
4, 21640, Note_on_c, 0, 62, 88
4, 21679, Note_off_c, 0, 62, 0
4, 21680, Note_on_c, 0, 65, 88
4, 21719, Note_off_c, 0, 65, 0
4, 21720, Note_on_c, 0, 69, 88
4, 21759, Note_off_c, 0, 69, 0
4, 21760, Note_on_c, 0, 65, 88
4, 21799, Note_off_c, 0, 65, 0
4, 21800, Note_on_c, 0, 69, 88
4, 21839, Note_off_c, 0, 69, 0
4, 21840, Note_on_c, 0, 74, 88
4, 21879, Note_off_c, 0, 74, 0
4, 21880, Note_on_c, 0, 69, 88
4, 21919, Note_off_c, 0, 69, 0
4, 21920, Note_on_c, 0, 74, 88
4, 21959, Note_off_c, 0, 74, 0
4, 21960, Note_on_c, 0, 77, 88
4, 22119, Note_off_c, 0, 77, 0
4, 22120, Note_on_c, 0, 71, 88
4, 22159, Note_off_c, 0, 71, 0
4, 22160, Note_on_c, 0, 74, 88
4, 22199, Note_off_c, 0, 74, 0
4, 22200, Note_on_c, 0, 77, 88
4, 22239, Note_off_c, 0, 77, 0
4, 22240, Note_on_c, 0, 74, 88
4, 22279, Note_off_c, 0, 74, 0
4, 22280, Note_on_c, 0, 77, 88
4, 22319, Note_off_c, 0, 77, 0
4, 22320, Note_on_c, 0, 80, 88
4, 22359, Note_off_c, 0, 80, 0
4, 22360, Note_on_c, 0, 77, 88
4, 22399, Note_off_c, 0, 77, 0
4, 22400, Note_on_c, 0, 80, 88
4, 22439, Note_off_c, 0, 80, 0
4, 22440, Note_on_c, 0, 83, 88
4, 22479, Note_off_c, 0, 83, 0
4, 22480, Note_on_c, 0, 80, 88
4, 22519, Note_off_c, 0, 80, 0
4, 22520, Note_on_c, 0, 77, 88
4, 22559, Note_off_c, 0, 77, 0
4, 22560, Note_on_c, 0, 82, 88
4, 22599, Note_off_c, 0, 82, 0
4, 22600, Note_on_c, 0, 79, 88
4, 22639, Note_off_c, 0, 79, 0
4, 22640, Note_on_c, 0, 76, 88
4, 22679, Note_off_c, 0, 76, 0
4, 22680, Note_on_c, 0, 81, 88
4, 22719, Note_off_c, 0, 81, 0
4, 22720, Note_on_c, 0, 78, 88
4, 22759, Note_off_c, 0, 78, 0
4, 22760, Note_on_c, 0, 75, 88
4, 22799, Note_off_c, 0, 75, 0
4, 22800, Note_on_c, 0, 80, 88
4, 22839, Note_off_c, 0, 80, 0
4, 22840, Note_on_c, 0, 77, 88
4, 22879, Note_off_c, 0, 77, 0
4, 22880, Note_on_c, 0, 74, 88
4, 22919, Note_off_c, 0, 74, 0
4, 22920, Note_on_c, 0, 79, 88
4, 22959, Note_off_c, 0, 79, 0
4, 22960, Note_on_c, 0, 76, 88
4, 22999, Note_off_c, 0, 76, 0
4, 23000, Note_on_c, 0, 73, 88
4, 23039, Note_off_c, 0, 73, 0
4, 23040, Note_on_c, 0, 78, 88
4, 23079, Note_off_c, 0, 78, 0
4, 23080, Note_on_c, 0, 75, 88
4, 23119, Note_off_c, 0, 75, 0
4, 23120, Note_on_c, 0, 72, 88
4, 23159, Note_off_c, 0, 72, 0
4, 23160, Note_on_c, 0, 77, 88
4, 23199, Note_off_c, 0, 77, 0
4, 23200, Note_on_c, 0, 74, 88
4, 23239, Note_off_c, 0, 74, 0
4, 23240, Note_on_c, 0, 71, 88
4, 23279, Note_off_c, 0, 71, 0
4, 23280, Note_on_c, 0, 76, 88
4, 23319, Note_off_c, 0, 76, 0
4, 23320, Note_on_c, 0, 73, 88
4, 23359, Note_off_c, 0, 73, 0
4, 23360, Note_on_c, 0, 70, 88
4, 23399, Note_off_c, 0, 70, 0
4, 23400, Note_on_c, 0, 75, 88
4, 23439, Note_off_c, 0, 75, 0
4, 23440, Note_on_c, 0, 72, 88
4, 23479, Note_off_c, 0, 72, 0
4, 23480, Note_on_c, 0, 69, 88
4, 23519, Note_off_c, 0, 69, 0
4, 23520, Note_on_c, 0, 74, 88
4, 24234, Note_off_c, 0, 74, 0
4, 24240, Note_on_c, 0, 73, 88
4, 24474, Note_off_c, 0, 73, 0
4, 24480, Note_on_c, 0, 74, 88
4, 24950, Note_off_c, 0, 74, 0
4, 24950, End_track
5, 0, Start_track
5, 0, Title_t, "Track 2"
5, 0, Program_c, 1, 6
5, 23760, Note_on_c, 1, 68, 88
5, 23760, Note_on_c, 1, 71, 88
5, 23994, Note_off_c, 1, 68, 0
5, 23994, Note_off_c, 1, 71, 0
5, 24000, Note_on_c, 1, 69, 88
5, 24462, Note_off_c, 1, 69, 0
5, 24480, Note_on_c, 1, 69, 88
5, 24950, Note_off_c, 1, 69, 0
5, 24950, End_track
6, 0, Start_track
6, 0, Title_t, "Track 3"
6, 0, Program_c, 2, 6
6, 23760, Note_on_c, 2, 62, 88
6, 23760, Note_on_c, 2, 65, 88
6, 23994, Note_off_c, 2, 62, 0
6, 23994, Note_off_c, 2, 65, 0
6, 24000, Note_on_c, 2, 62, 88
6, 24000, Note_on_c, 2, 65, 88
6, 24234, Note_off_c, 2, 62, 0
6, 24234, Note_off_c, 2, 65, 0
6, 24240, Note_on_c, 2, 64, 88
6, 24240, Note_on_c, 2, 67, 88
6, 24474, Note_off_c, 2, 64, 0
6, 24474, Note_off_c, 2, 67, 0
6, 24480, Note_on_c, 2, 62, 88
6, 24480, Note_on_c, 2, 66, 88
6, 24950, Note_off_c, 2, 62, 0
6, 24950, Note_off_c, 2, 66, 0
6, 24950, End_track
7, 0, Start_track
7, 0, Title_t, "Track 4"
7, 0, Program_c, 3, 6
7, 23760, Note_on_c, 3, 56, 88
7, 23994, Note_off_c, 3, 56, 0
7, 24000, Note_on_c, 3, 57, 88
7, 24470, Note_off_c, 3, 57, 0
7, 24470, End_track
8, 0, Start_track
8, 0, Title_t, "Track 5"
8, 0, Program_c, 4, 6
8, 18720, Note_on_c, 4, 55, 88
8, 18836, Note_off_c, 4, 55, 0
8, 18840, Note_on_c, 4, 57, 88
8, 18956, Note_off_c, 4, 57, 0
8, 18960, Note_on_c, 4, 55, 88
8, 19076, Note_off_c, 4, 55, 0
8, 19080, Note_on_c, 4, 53, 88
8, 19196, Note_off_c, 4, 53, 0
8, 19200, Note_on_c, 4, 52, 88
8, 19316, Note_off_c, 4, 52, 0
8, 19320, Note_on_c, 4, 55, 88
8, 19436, Note_off_c, 4, 55, 0
8, 19440, Note_on_c, 4, 53, 88
8, 19556, Note_off_c, 4, 53, 0
8, 19560, Note_on_c, 4, 52, 88
8, 19676, Note_off_c, 4, 52, 0
8, 19680, Note_on_c, 4, 50, 88
8, 19796, Note_off_c, 4, 50, 0
8, 19800, Note_on_c, 4, 52, 88
8, 19916, Note_off_c, 4, 52, 0
8, 19920, Note_on_c, 4, 53, 88
8, 20154, Note_off_c, 4, 53, 0
8, 20160, Note_on_c, 4, 52, 88
8, 20276, Note_off_c, 4, 52, 0
8, 20280, Note_on_c, 4, 55, 88
8, 20396, Note_off_c, 4, 55, 0
8, 20400, Note_on_c, 4, 53, 88
8, 20516, Note_off_c, 4, 53, 0
8, 20520, Note_on_c, 4, 52, 88
8, 20636, Note_off_c, 4, 52, 0
8, 20640, Note_on_c, 4, 53, 88
8, 20756, Note_off_c, 4, 53, 0
8, 20760, Note_on_c, 4, 52, 88
8, 20876, Note_off_c, 4, 52, 0
8, 20880, Note_on_c, 4, 53, 88
8, 21036, Note_off_c, 4, 53, 0
8, 21040, Note_on_c, 4, 52, 88
8, 21079, Note_off_c, 4, 52, 0
8, 21080, Note_on_c, 4, 50, 88
8, 21119, Note_off_c, 4, 50, 0
8, 21120, Note_on_c, 4, 49, 88
8, 21236, Note_off_c, 4, 49, 0
8, 21240, Note_on_c, 4, 52, 88
8, 21356, Note_off_c, 4, 52, 0
8, 21360, Note_on_c, 4, 55, 88
8, 21476, Note_off_c, 4, 55, 0
8, 21480, Note_on_c, 4, 58, 88
8, 21596, Note_off_c, 4, 58, 0
8, 21600, Note_on_c, 4, 57, 88
8, 21716, Note_off_c, 4, 57, 0
8, 21720, Note_on_c, 4, 62, 88
8, 21836, Note_off_c, 4, 62, 0
8, 21840, Note_on_c, 4, 65, 88
8, 21956, Note_off_c, 4, 65, 0
8, 21960, Note_on_c, 4, 69, 88
8, 22076, Note_off_c, 4, 69, 0
8, 23760, Note_on_c, 4, 50, 88
8, 23760, Note_on_c, 4, 53, 88
8, 23994, Note_off_c, 4, 50, 0
8, 23994, Note_off_c, 4, 53, 0
8, 24000, Note_on_c, 4, 50, 88
8, 24000, Note_on_c, 4, 53, 88
8, 24234, Note_off_c, 4, 50, 0
8, 24234, Note_off_c, 4, 53, 0
8, 24240, Note_on_c, 4, 52, 88
8, 24474, Note_off_c, 4, 52, 0
8, 24480, Note_on_c, 4, 50, 88
8, 24950, Note_off_c, 4, 50, 0
8, 24950, End_track
9, 0, Start_track
9, 0, Title_t, "Track 6"
9, 0, Program_c, 5, 6
9, 0, Note_on_c, 5, 50, 88
9, 102, Note_off_c, 5, 50, 0
9, 120, Note_on_c, 5, 50, 88
9, 222, Note_off_c, 5, 50, 0
9, 240, Note_on_c, 5, 50, 88
9, 342, Note_off_c, 5, 50, 0
9, 360, Note_on_c, 5, 50, 88
9, 462, Note_off_c, 5, 50, 0
9, 480, Note_on_c, 5, 50, 88
9, 582, Note_off_c, 5, 50, 0
9, 600, Note_on_c, 5, 50, 88
9, 702, Note_off_c, 5, 50, 0
9, 720, Note_on_c, 5, 50, 88
9, 822, Note_off_c, 5, 50, 0
9, 840, Note_on_c, 5, 50, 88
9, 956, Note_off_c, 5, 50, 0
9, 960, Note_on_c, 5, 50, 88
9, 1062, Note_off_c, 5, 50, 0
9, 1080, Note_on_c, 5, 50, 88
9, 1196, Note_off_c, 5, 50, 0
9, 1200, Note_on_c, 5, 62, 88
9, 1302, Note_off_c, 5, 62, 0
9, 1320, Note_on_c, 5, 62, 88
9, 1436, Note_off_c, 5, 62, 0
9, 1440, Note_on_c, 5, 55, 88
9, 1542, Note_off_c, 5, 55, 0
9, 1560, Note_on_c, 5, 55, 88
9, 1676, Note_off_c, 5, 55, 0
9, 1680, Note_on_c, 5, 60, 88
9, 1782, Note_off_c, 5, 60, 0
9, 1800, Note_on_c, 5, 60, 88
9, 1916, Note_off_c, 5, 60, 0
9, 1920, Note_on_c, 5, 53, 88
9, 2022, Note_off_c, 5, 53, 0
9, 2040, Note_on_c, 5, 53, 88
9, 2156, Note_off_c, 5, 53, 0
9, 2160, Note_on_c, 5, 58, 88
9, 2276, Note_off_c, 5, 58, 0
9, 2280, Note_on_c, 5, 55, 88
9, 2396, Note_off_c, 5, 55, 0
9, 2400, Note_on_c, 5, 60, 88
9, 2516, Note_off_c, 5, 60, 0
9, 2520, Note_on_c, 5, 57, 88
9, 2636, Note_off_c, 5, 57, 0
9, 2640, Note_on_c, 5, 62, 88
9, 2756, Note_off_c, 5, 62, 0
9, 2760, Note_on_c, 5, 50, 88
9, 2876, Note_off_c, 5, 50, 0
9, 2880, Note_on_c, 5, 52, 88
9, 2996, Note_off_c, 5, 52, 0
9, 3000, Note_on_c, 5, 48, 88
9, 3116, Note_off_c, 5, 48, 0
9, 3120, Note_on_c, 5, 53, 88
9, 3236, Note_off_c, 5, 53, 0
9, 3240, Note_on_c, 5, 52, 88
9, 3356, Note_off_c, 5, 52, 0
9, 3360, Note_on_c, 5, 50, 88
9, 3476, Note_off_c, 5, 50, 0
9, 3480, Note_on_c, 5, 48, 88
9, 3596, Note_off_c, 5, 48, 0
9, 3600, Note_on_c, 5, 46, 88
9, 3716, Note_off_c, 5, 46, 0
9, 3720, Note_on_c, 5, 45, 88
9, 3836, Note_off_c, 5, 45, 0
9, 3840, Note_on_c, 5, 43, 88
9, 3956, Note_off_c, 5, 43, 0
9, 3960, Note_on_c, 5, 41, 88
9, 4076, Note_off_c, 5, 41, 0
9, 4080, Note_on_c, 5, 40, 88
9, 4196, Note_off_c, 5, 40, 0
9, 4200, Note_on_c, 5, 36, 88
9, 4316, Note_off_c, 5, 36, 0
9, 4320, Note_on_c, 5, 41, 88
9, 4436, Note_off_c, 5, 41, 0
9, 4440, Note_on_c, 5, 45, 88
9, 4556, Note_off_c, 5, 45, 0
9, 4560, Note_on_c, 5, 46, 88
9, 4676, Note_off_c, 5, 46, 0
9, 4680, Note_on_c, 5, 48, 88
9, 4796, Note_off_c, 5, 48, 0
9, 4800, Note_on_c, 5, 41, 88
9, 5034, Note_off_c, 5, 41, 0
9, 5160, Note_on_c, 5, 51, 88
9, 5276, Note_off_c, 5, 51, 0
9, 5280, Note_on_c, 5, 50, 88
9, 5396, Note_off_c, 5, 50, 0
9, 5400, Note_on_c, 5, 48, 88
9, 5516, Note_off_c, 5, 48, 0
9, 5520, Note_on_c, 5, 46, 88
9, 5636, Note_off_c, 5, 46, 0
9, 5640, Note_on_c, 5, 45, 88
9, 5756, Note_off_c, 5, 45, 0
9, 5760, Note_on_c, 5, 43, 88
9, 5876, Note_off_c, 5, 43, 0
9, 5880, Note_on_c, 5, 46, 88
9, 5996, Note_off_c, 5, 46, 0
9, 6000, Note_on_c, 5, 48, 88
9, 6116, Note_off_c, 5, 48, 0
9, 6120, Note_on_c, 5, 50, 88
9, 6236, Note_off_c, 5, 50, 0
9, 6240, Note_on_c, 5, 51, 88
9, 6356, Note_off_c, 5, 51, 0
9, 6360, Note_on_c, 5, 46, 88
9, 6476, Note_off_c, 5, 46, 0
9, 6480, Note_on_c, 5, 48, 88
9, 6596, Note_off_c, 5, 48, 0
9, 6600, Note_on_c, 5, 50, 88
9, 6716, Note_off_c, 5, 50, 0
9, 6720, Note_on_c, 5, 43, 88
9, 6954, Note_off_c, 5, 43, 0
9, 7080, Note_on_c, 5, 53, 88
9, 7196, Note_off_c, 5, 53, 0
9, 7200, Note_on_c, 5, 52, 88
9, 7316, Note_off_c, 5, 52, 0
9, 7320, Note_on_c, 5, 50, 88
9, 7436, Note_off_c, 5, 50, 0
9, 7440, Note_on_c, 5, 48, 88
9, 7556, Note_off_c, 5, 48, 0
9, 7560, Note_on_c, 5, 47, 88
9, 7676, Note_off_c, 5, 47, 0
9, 7680, Note_on_c, 5, 45, 88
9, 7796, Note_off_c, 5, 45, 0
9, 7800, Note_on_c, 5, 48, 88
9, 7916, Note_off_c, 5, 48, 0
9, 7920, Note_on_c, 5, 50, 88
9, 8036, Note_off_c, 5, 50, 0
9, 8040, Note_on_c, 5, 52, 88
9, 8156, Note_off_c, 5, 52, 0
9, 8160, Note_on_c, 5, 53, 88
9, 8276, Note_off_c, 5, 53, 0
9, 8280, Note_on_c, 5, 48, 88
9, 8396, Note_off_c, 5, 48, 0
9, 8400, Note_on_c, 5, 50, 88
9, 8516, Note_off_c, 5, 50, 0
9, 8520, Note_on_c, 5, 52, 88
9, 8636, Note_off_c, 5, 52, 0
9, 8640, Note_on_c, 5, 45, 88
9, 8756, Note_off_c, 5, 45, 0
9, 8760, Note_on_c, 5, 57, 88
9, 8862, Note_off_c, 5, 57, 0
9, 8880, Note_on_c, 5, 57, 88
9, 8996, Note_off_c, 5, 57, 0
9, 9000, Note_on_c, 5, 55, 88
9, 9116, Note_off_c, 5, 55, 0
9, 9120, Note_on_c, 5, 53, 88
9, 9236, Note_off_c, 5, 53, 0
9, 9240, Note_on_c, 5, 41, 88
9, 9342, Note_off_c, 5, 41, 0
9, 9360, Note_on_c, 5, 41, 88
9, 9476, Note_off_c, 5, 41, 0
9, 9480, Note_on_c, 5, 40, 88
9, 9596, Note_off_c, 5, 40, 0
9, 9600, Note_on_c, 5, 38, 88
9, 9716, Note_off_c, 5, 38, 0
9, 9720, Note_on_c, 5, 50, 88
9, 9822, Note_off_c, 5, 50, 0
9, 9840, Note_on_c, 5, 50, 88
9, 9956, Note_off_c, 5, 50, 0
9, 9960, Note_on_c, 5, 48, 88
9, 10076, Note_off_c, 5, 48, 0
9, 10080, Note_on_c, 5, 46, 88
9, 10196, Note_off_c, 5, 46, 0
9, 10200, Note_on_c, 5, 58, 88
9, 10302, Note_off_c, 5, 58, 0
9, 10320, Note_on_c, 5, 58, 88
9, 10436, Note_off_c, 5, 58, 0
9, 10440, Note_on_c, 5, 57, 88
9, 10556, Note_off_c, 5, 57, 0
9, 10560, Note_on_c, 5, 55, 88
9, 10794, Note_off_c, 5, 55, 0
9, 10920, Note_on_c, 5, 58, 88
9, 11036, Note_off_c, 5, 58, 0
9, 11040, Note_on_c, 5, 57, 88
9, 11156, Note_off_c, 5, 57, 0
9, 11160, Note_on_c, 5, 55, 88
9, 11276, Note_off_c, 5, 55, 0
9, 11280, Note_on_c, 5, 53, 88
9, 11396, Note_off_c, 5, 53, 0
9, 11400, Note_on_c, 5, 52, 88
9, 11516, Note_off_c, 5, 52, 0
9, 11520, Note_on_c, 5, 50, 88
9, 11636, Note_off_c, 5, 50, 0
9, 11640, Note_on_c, 5, 53, 88
9, 11756, Note_off_c, 5, 53, 0
9, 11760, Note_on_c, 5, 55, 88
9, 11876, Note_off_c, 5, 55, 0
9, 11880, Note_on_c, 5, 57, 88
9, 11996, Note_off_c, 5, 57, 0
9, 12000, Note_on_c, 5, 58, 88
9, 12116, Note_off_c, 5, 58, 0
9, 12120, Note_on_c, 5, 53, 88
9, 12236, Note_off_c, 5, 53, 0
9, 12240, Note_on_c, 5, 55, 88
9, 12356, Note_off_c, 5, 55, 0
9, 12360, Note_on_c, 5, 57, 88
9, 12476, Note_off_c, 5, 57, 0
9, 12480, Note_on_c, 5, 46, 88
9, 12596, Note_off_c, 5, 46, 0
9, 12600, Note_on_c, 5, 41, 88
9, 12716, Note_off_c, 5, 41, 0
9, 12720, Note_on_c, 5, 43, 88
9, 12836, Note_off_c, 5, 43, 0
9, 12840, Note_on_c, 5, 45, 88
9, 12956, Note_off_c, 5, 45, 0
9, 12960, Note_on_c, 5, 46, 88
9, 13076, Note_off_c, 5, 46, 0
9, 13080, Note_on_c, 5, 41, 88
9, 13196, Note_off_c, 5, 41, 0
9, 13200, Note_on_c, 5, 43, 88
9, 13316, Note_off_c, 5, 43, 0
9, 13320, Note_on_c, 5, 45, 88
9, 13436, Note_off_c, 5, 45, 0
9, 13440, Note_on_c, 5, 38, 88
9, 13832, Note_off_c, 5, 38, 0
9, 13840, Note_on_c, 5, 42, 88
9, 13879, Note_off_c, 5, 42, 0
9, 13880, Note_on_c, 5, 45, 88
9, 13919, Note_off_c, 5, 45, 0
9, 13920, Note_on_c, 5, 50, 88
9, 14312, Note_off_c, 5, 50, 0
9, 14320, Note_on_c, 5, 55, 88
9, 14359, Note_off_c, 5, 55, 0
9, 14360, Note_on_c, 5, 58, 88
9, 14399, Note_off_c, 5, 58, 0
9, 14400, Note_on_c, 5, 61, 88
9, 14516, Note_off_c, 5, 61, 0
9, 14520, Note_on_c, 5, 50, 88
9, 14636, Note_off_c, 5, 50, 0
9, 14640, Note_on_c, 5, 61, 88
9, 14756, Note_off_c, 5, 61, 0
9, 14760, Note_on_c, 5, 50, 88
9, 14876, Note_off_c, 5, 50, 0
9, 14880, Note_on_c, 5, 61, 88
9, 14996, Note_off_c, 5, 61, 0
9, 15000, Note_on_c, 5, 50, 88
9, 15116, Note_off_c, 5, 50, 0
9, 15120, Note_on_c, 5, 61, 88
9, 15236, Note_off_c, 5, 61, 0
9, 15240, Note_on_c, 5, 50, 88
9, 15356, Note_off_c, 5, 50, 0
9, 15360, Note_on_c, 5, 60, 88
9, 15476, Note_off_c, 5, 60, 0
9, 15480, Note_on_c, 5, 50, 88
9, 15596, Note_off_c, 5, 50, 0
9, 15600, Note_on_c, 5, 60, 88
9, 15716, Note_off_c, 5, 60, 0
9, 15720, Note_on_c, 5, 50, 88
9, 15836, Note_off_c, 5, 50, 0
9, 15840, Note_on_c, 5, 60, 88
9, 15956, Note_off_c, 5, 60, 0
9, 15960, Note_on_c, 5, 50, 88
9, 16076, Note_off_c, 5, 50, 0
9, 16080, Note_on_c, 5, 60, 88
9, 16196, Note_off_c, 5, 60, 0
9, 16200, Note_on_c, 5, 50, 88
9, 16316, Note_off_c, 5, 50, 0
9, 16320, Note_on_c, 5, 58, 88
9, 16436, Note_off_c, 5, 58, 0
9, 16440, Note_on_c, 5, 50, 88
9, 16556, Note_off_c, 5, 50, 0
9, 16560, Note_on_c, 5, 58, 88
9, 16676, Note_off_c, 5, 58, 0
9, 16680, Note_on_c, 5, 50, 88
9, 16796, Note_off_c, 5, 50, 0
9, 16800, Note_on_c, 5, 55, 88
9, 16916, Note_off_c, 5, 55, 0
9, 16920, Note_on_c, 5, 50, 88
9, 17036, Note_off_c, 5, 50, 0
9, 17040, Note_on_c, 5, 55, 88
9, 17156, Note_off_c, 5, 55, 0
9, 17160, Note_on_c, 5, 50, 88
9, 17276, Note_off_c, 5, 50, 0
9, 17280, Note_on_c, 5, 52, 88
9, 17396, Note_off_c, 5, 52, 0
9, 17400, Note_on_c, 5, 50, 88
9, 17516, Note_off_c, 5, 50, 0
9, 17520, Note_on_c, 5, 52, 88
9, 17636, Note_off_c, 5, 52, 0
9, 17640, Note_on_c, 5, 50, 88
9, 17756, Note_off_c, 5, 50, 0
9, 17760, Note_on_c, 5, 52, 88
9, 17876, Note_off_c, 5, 52, 0
9, 17880, Note_on_c, 5, 50, 88
9, 17996, Note_off_c, 5, 50, 0
9, 18000, Note_on_c, 5, 52, 88
9, 18116, Note_off_c, 5, 52, 0
9, 18120, Note_on_c, 5, 50, 88
9, 18236, Note_off_c, 5, 50, 0
9, 18240, Note_on_c, 5, 54, 88
9, 18356, Note_off_c, 5, 54, 0
9, 18360, Note_on_c, 5, 50, 88
9, 18476, Note_off_c, 5, 50, 0
9, 18480, Note_on_c, 5, 54, 88
9, 18596, Note_off_c, 5, 54, 0
9, 18600, Note_on_c, 5, 50, 88
9, 19670, Note_off_c, 5, 50, 0
9, 19680, Note_on_c, 5, 44, 88
9, 20033, Note_off_c, 5, 44, 0
9, 20040, Note_on_c, 5, 45, 88
9, 20156, Note_off_c, 5, 45, 0
9, 20160, Note_on_c, 5, 46, 88
9, 20630, Note_off_c, 5, 46, 0
9, 20640, Note_on_c, 5, 47, 88
9, 20993, Note_off_c, 5, 47, 0
9, 21000, Note_on_c, 5, 46, 88
9, 21116, Note_off_c, 5, 46, 0
9, 21120, Note_on_c, 5, 45, 88
9, 21512, Note_off_c, 5, 45, 0
9, 21520, Note_on_c, 5, 49, 88
9, 21559, Note_off_c, 5, 49, 0
9, 21560, Note_on_c, 5, 52, 88
9, 21599, Note_off_c, 5, 52, 0
9, 21600, Note_on_c, 5, 57, 88
9, 21992, Note_off_c, 5, 57, 0
9, 22000, Note_on_c, 5, 62, 88
9, 22039, Note_off_c, 5, 62, 0
9, 22040, Note_on_c, 5, 65, 88
9, 22079, Note_off_c, 5, 65, 0
9, 22080, Note_on_c, 5, 68, 88
9, 22196, Note_off_c, 5, 68, 0
9, 23760, Note_on_c, 5, 47, 88
9, 23994, Note_off_c, 5, 47, 0
9, 24000, Note_on_c, 5, 45, 88
9, 24470, Note_off_c, 5, 45, 0
9, 24480, Note_on_c, 5, 38, 88
9, 24950, Note_off_c, 5, 38, 0
9, 24950, End_track
0, 0, End_of_file
