0, 0, Header, 1, 7, 240
1, 0, Start_track
1, 0, Time_signature, 4, 2, 24, 8
1, 0, Tempo, 681818
1, 0, SMPTE_offset, 64, 0, 0, 0, 117
1, 6720, Tempo, 869565
1, 8640, Tempo, 600000
1, 23040, Tempo, 681818
1, 23040, End_track
2, 0, Start_track
2, 0, Title_t, "(C) & (P) 1993"
2, 127, End_track
3, 0, Start_track
3, 0, Title_t, "CCARH,Stanford"
3, 0, End_track
4, 0, Start_track
4, 0, Title_t, "Track 1"
4, 0, Program_c, 0, 6
4, 60, Note_on_c, 0, 67, 88
4, 118, Note_off_c, 0, 67, 0
4, 120, Note_on_c, 0, 68, 88
4, 178, Note_off_c, 0, 68, 0
4, 180, Note_on_c, 0, 70, 88
4, 238, Note_off_c, 0, 70, 0
4, 240, Note_on_c, 0, 68, 88
4, 298, Note_off_c, 0, 68, 0
4, 300, Note_on_c, 0, 67, 88
4, 358, Note_off_c, 0, 67, 0
4, 360, Note_on_c, 0, 65, 88
4, 418, Note_off_c, 0, 65, 0
4, 420, Note_on_c, 0, 63, 88
4, 478, Note_off_c, 0, 63, 0
4, 480, Note_on_c, 0, 73, 88
4, 1018, Note_off_c, 0, 73, 0
4, 1020, Note_on_c, 0, 72, 88
4, 1078, Note_off_c, 0, 72, 0
4, 1080, Note_on_c, 0, 73, 88
4, 1138, Note_off_c, 0, 73, 0
4, 1140, Note_on_c, 0, 75, 88
4, 1198, Note_off_c, 0, 75, 0
4, 1200, Note_on_c, 0, 73, 88
4, 1258, Note_off_c, 0, 73, 0
4, 1260, Note_on_c, 0, 72, 88
4, 1318, Note_off_c, 0, 72, 0
4, 1320, Note_on_c, 0, 70, 88
4, 1378, Note_off_c, 0, 70, 0
4, 1380, Note_on_c, 0, 68, 88
4, 1438, Note_off_c, 0, 68, 0
4, 1440, Note_on_c, 0, 77, 88
4, 1978, Note_off_c, 0, 77, 0
4, 1980, Note_on_c, 0, 74, 88
4, 2038, Note_off_c, 0, 74, 0
4, 2040, Note_on_c, 0, 75, 88
4, 2098, Note_off_c, 0, 75, 0
4, 2100, Note_on_c, 0, 77, 88
4, 2158, Note_off_c, 0, 77, 0
4, 2160, Note_on_c, 0, 75, 88
4, 2218, Note_off_c, 0, 75, 0
4, 2220, Note_on_c, 0, 74, 88
4, 2278, Note_off_c, 0, 74, 0
4, 2280, Note_on_c, 0, 72, 88
4, 2338, Note_off_c, 0, 72, 0
4, 2340, Note_on_c, 0, 70, 88
4, 2398, Note_off_c, 0, 70, 0
4, 2400, Note_on_c, 0, 80, 88
4, 2938, Note_off_c, 0, 80, 0
4, 2940, Note_on_c, 0, 77, 88
4, 2998, Note_off_c, 0, 77, 0
4, 3000, Note_on_c, 0, 79, 88
4, 3058, Note_off_c, 0, 79, 0
4, 3060, Note_on_c, 0, 80, 88
4, 3118, Note_off_c, 0, 80, 0
4, 3120, Note_on_c, 0, 79, 88
4, 3178, Note_off_c, 0, 79, 0
4, 3180, Note_on_c, 0, 77, 88
4, 3238, Note_off_c, 0, 77, 0
4, 3240, Note_on_c, 0, 75, 88
4, 3298, Note_off_c, 0, 75, 0
4, 3300, Note_on_c, 0, 74, 88
4, 3358, Note_off_c, 0, 74, 0
4, 3360, Note_on_c, 0, 79, 88
4, 3898, Note_off_c, 0, 79, 0
4, 3900, Note_on_c, 0, 75, 88
4, 3958, Note_off_c, 0, 75, 0
4, 3960, Note_on_c, 0, 77, 88
4, 4018, Note_off_c, 0, 77, 0
4, 4020, Note_on_c, 0, 79, 88
4, 4078, Note_off_c, 0, 79, 0
4, 4080, Note_on_c, 0, 77, 88
4, 4138, Note_off_c, 0, 77, 0
4, 4140, Note_on_c, 0, 75, 88
4, 4198, Note_off_c, 0, 75, 0
4, 4200, Note_on_c, 0, 74, 88
4, 4258, Note_off_c, 0, 74, 0
4, 4260, Note_on_c, 0, 72, 88
4, 4318, Note_off_c, 0, 72, 0
4, 4320, Note_on_c, 0, 84, 88
4, 4858, Note_off_c, 0, 84, 0
4, 4860, Note_on_c, 0, 81, 88
4, 4918, Note_off_c, 0, 81, 0
4, 4920, Note_on_c, 0, 82, 88
4, 4978, Note_off_c, 0, 82, 0
4, 4980, Note_on_c, 0, 84, 88
4, 5038, Note_off_c, 0, 84, 0
4, 5040, Note_on_c, 0, 82, 88
4, 5098, Note_off_c, 0, 82, 0
4, 5100, Note_on_c, 0, 81, 88
4, 5158, Note_off_c, 0, 81, 0
4, 5160, Note_on_c, 0, 79, 88
4, 5218, Note_off_c, 0, 79, 0
4, 5220, Note_on_c, 0, 77, 88
4, 5278, Note_off_c, 0, 77, 0
4, 5280, Note_on_c, 0, 82, 88
4, 5338, Note_off_c, 0, 82, 0
4, 5340, Note_on_c, 0, 81, 88
4, 5398, Note_off_c, 0, 81, 0
4, 5400, Note_on_c, 0, 79, 88
4, 5458, Note_off_c, 0, 79, 0
4, 5460, Note_on_c, 0, 77, 88
4, 5518, Note_off_c, 0, 77, 0
4, 5520, Note_on_c, 0, 75, 88
4, 5578, Note_off_c, 0, 75, 0
4, 5580, Note_on_c, 0, 74, 88
4, 5638, Note_off_c, 0, 74, 0
4, 5640, Note_on_c, 0, 72, 88
4, 5698, Note_off_c, 0, 72, 0
4, 5700, Note_on_c, 0, 70, 88
4, 5758, Note_off_c, 0, 70, 0
4, 5760, Note_on_c, 0, 75, 88
4, 6282, Note_off_c, 0, 75, 0
4, 6300, Note_on_c, 0, 75, 88
4, 6358, Note_off_c, 0, 75, 0
4, 6360, Note_on_c, 0, 77, 88
4, 6418, Note_off_c, 0, 77, 0
4, 6420, Note_on_c, 0, 79, 88
4, 6478, Note_off_c, 0, 79, 0
4, 6480, Note_on_c, 0, 77, 88
4, 6538, Note_off_c, 0, 77, 0
4, 6540, Note_on_c, 0, 75, 88
4, 6598, Note_off_c, 0, 75, 0
4, 6600, Note_on_c, 0, 74, 88
4, 6658, Note_off_c, 0, 74, 0
4, 6660, Note_on_c, 0, 72, 88
4, 6718, Note_off_c, 0, 72, 0
4, 6720, Note_on_c, 0, 74, 88
4, 6749, Note_off_c, 0, 74, 0
4, 6750, Note_on_c, 0, 72, 88
4, 6779, Note_off_c, 0, 72, 0
4, 6780, Note_on_c, 0, 74, 88
4, 6809, Note_off_c, 0, 74, 0
4, 6810, Note_on_c, 0, 75, 88
4, 6839, Note_off_c, 0, 75, 0
4, 6840, Note_on_c, 0, 74, 88
4, 6869, Note_off_c, 0, 74, 0
4, 6870, Note_on_c, 0, 72, 88
4, 6899, Note_off_c, 0, 72, 0
4, 6900, Note_on_c, 0, 70, 88
4, 6929, Note_off_c, 0, 70, 0
4, 6930, Note_on_c, 0, 69, 88
4, 6959, Note_off_c, 0, 69, 0
4, 6960, Note_on_c, 0, 70, 88
4, 6989, Note_off_c, 0, 70, 0
4, 6990, Note_on_c, 0, 69, 88
4, 7019, Note_off_c, 0, 69, 0
4, 7020, Note_on_c, 0, 70, 88
4, 7049, Note_off_c, 0, 70, 0
4, 7050, Note_on_c, 0, 72, 88
4, 7079, Note_off_c, 0, 72, 0
4, 7080, Note_on_c, 0, 70, 88
4, 7109, Note_off_c, 0, 70, 0
4, 7110, Note_on_c, 0, 68, 88
4, 7139, Note_off_c, 0, 68, 0
4, 7140, Note_on_c, 0, 67, 88
4, 7169, Note_off_c, 0, 67, 0
4, 7170, Note_on_c, 0, 65, 88
4, 7199, Note_off_c, 0, 65, 0
4, 7200, Note_on_c, 0, 67, 88
4, 7229, Note_off_c, 0, 67, 0
4, 7230, Note_on_c, 0, 65, 88
4, 7259, Note_off_c, 0, 65, 0
4, 7260, Note_on_c, 0, 67, 88
4, 7289, Note_off_c, 0, 67, 0
4, 7290, Note_on_c, 0, 68, 88
4, 7319, Note_off_c, 0, 68, 0
4, 7320, Note_on_c, 0, 67, 88
4, 7349, Note_off_c, 0, 67, 0
4, 7350, Note_on_c, 0, 65, 88
4, 7379, Note_off_c, 0, 65, 0
4, 7380, Note_on_c, 0, 63, 88
4, 7409, Note_off_c, 0, 63, 0
4, 7410, Note_on_c, 0, 62, 88
4, 7439, Note_off_c, 0, 62, 0
4, 7440, Note_on_c, 0, 63, 88
4, 7469, Note_off_c, 0, 63, 0
4, 7470, Note_on_c, 0, 62, 88
4, 7499, Note_off_c, 0, 62, 0
4, 7500, Note_on_c, 0, 63, 88
4, 7529, Note_off_c, 0, 63, 0
4, 7530, Note_on_c, 0, 65, 88
4, 7559, Note_off_c, 0, 65, 0
4, 7560, Note_on_c, 0, 63, 88
4, 7589, Note_off_c, 0, 63, 0
4, 7590, Note_on_c, 0, 62, 88
4, 7619, Note_off_c, 0, 62, 0
4, 7620, Note_on_c, 0, 60, 88
4, 7649, Note_off_c, 0, 60, 0
4, 7650, Note_on_c, 0, 58, 88
4, 7679, Note_off_c, 0, 58, 0
4, 7710, Note_on_c, 0, 60, 88
4, 7739, Note_off_c, 0, 60, 0
4, 7740, Note_on_c, 0, 62, 88
4, 7769, Note_off_c, 0, 62, 0
4, 7770, Note_on_c, 0, 63, 88
4, 7799, Note_off_c, 0, 63, 0
4, 7800, Note_on_c, 0, 65, 88
4, 7829, Note_off_c, 0, 65, 0
4, 7830, Note_on_c, 0, 67, 88
4, 7859, Note_off_c, 0, 67, 0
4, 7860, Note_on_c, 0, 69, 88
4, 7889, Note_off_c, 0, 69, 0
4, 7890, Note_on_c, 0, 70, 88
4, 7919, Note_off_c, 0, 70, 0
4, 7920, Note_on_c, 0, 72, 88
4, 7949, Note_off_c, 0, 72, 0
4, 7950, Note_on_c, 0, 69, 88
4, 7979, Note_off_c, 0, 69, 0
4, 7980, Note_on_c, 0, 65, 88
4, 8009, Note_off_c, 0, 65, 0
4, 8010, Note_on_c, 0, 67, 88
4, 8039, Note_off_c, 0, 67, 0
4, 8040, Note_on_c, 0, 69, 88
4, 8069, Note_off_c, 0, 69, 0
4, 8070, Note_on_c, 0, 70, 88
4, 8099, Note_off_c, 0, 70, 0
4, 8100, Note_on_c, 0, 72, 88
4, 8129, Note_off_c, 0, 72, 0
4, 8130, Note_on_c, 0, 74, 88
4, 8159, Note_off_c, 0, 74, 0
4, 8160, Note_on_c, 0, 75, 88
4, 8306, Note_off_c, 0, 75, 0
4, 8310, Note_on_c, 0, 77, 88
4, 8325, Note_on_c, 0, 75, 88
4, 8325, Note_off_c, 0, 77, 0
4, 8340, Note_on_c, 0, 74, 88
4, 8340, Note_off_c, 0, 75, 0
4, 8369, Note_off_c, 0, 74, 0
4, 8370, Note_on_c, 0, 75, 88
4, 8385, Note_off_c, 0, 75, 0
4, 8400, Note_on_c, 0, 75, 88
4, 8575, Note_off_c, 0, 75, 0
4, 8580, Note_on_c, 0, 74, 88
4, 8638, Note_off_c, 0, 74, 0
4, 8640, Note_on_c, 0, 74, 88
4, 8874, Note_off_c, 0, 74, 0
4, 10800, Note_on_c, 0, 70, 88
4, 11034, Note_off_c, 0, 70, 0
4, 11040, Note_on_c, 0, 75, 88
4, 11510, Note_off_c, 0, 75, 0
4, 11520, Note_on_c, 0, 74, 88
4, 11754, Note_off_c, 0, 74, 0
4, 11760, Note_on_c, 0, 75, 88
4, 12230, Note_off_c, 0, 75, 0
4, 12240, Note_on_c, 0, 80, 88
4, 12714, Note_off_c, 0, 80, 0
4, 12720, Note_on_c, 0, 79, 88
4, 13190, Note_off_c, 0, 79, 0
4, 13200, Note_on_c, 0, 77, 88
4, 13316, Note_off_c, 0, 77, 0
4, 13320, Note_on_c, 0, 75, 88
4, 13436, Note_off_c, 0, 75, 0
4, 13440, Note_on_c, 0, 74, 88
4, 13674, Note_off_c, 0, 74, 0
4, 13680, Note_on_c, 0, 75, 88
4, 14150, Note_off_c, 0, 75, 0
4, 14160, Note_on_c, 0, 74, 88
4, 14394, Note_off_c, 0, 74, 0
4, 14400, Note_on_c, 0, 76, 88
4, 14634, Note_off_c, 0, 76, 0
4, 14640, Note_on_c, 0, 77, 88
4, 15110, Note_off_c, 0, 77, 0
4, 15120, Note_on_c, 0, 75, 88
4, 15354, Note_off_c, 0, 75, 0
4, 15360, Note_on_c, 0, 74, 88
4, 15594, Note_off_c, 0, 74, 0
4, 15600, Note_on_c, 0, 79, 88
4, 16070, Note_off_c, 0, 79, 0
4, 16080, Note_on_c, 0, 77, 88
4, 16554, Note_off_c, 0, 77, 0
4, 16560, Note_on_c, 0, 75, 88
4, 17030, Note_off_c, 0, 75, 0
4, 17040, Note_on_c, 0, 74, 88
4, 17514, Note_off_c, 0, 74, 0
4, 17520, Note_on_c, 0, 72, 88
4, 17636, Note_off_c, 0, 72, 0
4, 17640, Note_on_c, 0, 70, 88
4, 17756, Note_off_c, 0, 70, 0
4, 17760, Note_on_c, 0, 69, 88
4, 17994, Note_off_c, 0, 69, 0
4, 18000, Note_on_c, 0, 70, 88
4, 18474, Note_off_c, 0, 70, 0
4, 18480, Note_on_c, 0, 75, 88
4, 18950, Note_off_c, 0, 75, 0
4, 18960, Note_on_c, 0, 74, 88
4, 19194, Note_off_c, 0, 74, 0
4, 19200, Note_on_c, 0, 72, 88
4, 19670, Note_off_c, 0, 72, 0
4, 19680, Note_on_c, 0, 70, 88
4, 20150, Note_off_c, 0, 70, 0
4, 20160, Note_on_c, 0, 68, 88
4, 20630, Note_off_c, 0, 68, 0
4, 20640, Note_on_c, 0, 67, 88
4, 21354, Note_off_c, 0, 67, 0
4, 21360, Note_on_c, 0, 65, 88
4, 21476, Note_off_c, 0, 65, 0
4, 21480, Note_on_c, 0, 63, 88
4, 21596, Note_off_c, 0, 63, 0
4, 21600, Note_on_c, 0, 62, 88
4, 22070, Note_off_c, 0, 62, 0
4, 22080, Note_on_c, 0, 63, 88
4, 22788, Note_off_c, 0, 63, 0
4, 22800, Note_on_c, 0, 62, 88
4, 22916, Note_off_c, 0, 62, 0
4, 22920, Note_on_c, 0, 60, 88
4, 23036, Note_off_c, 0, 60, 0
4, 23040, Note_on_c, 0, 62, 88
4, 23274, Note_off_c, 0, 62, 0
4, 24540, Note_on_c, 0, 68, 88
4, 24598, Note_off_c, 0, 68, 0
4, 24600, Note_on_c, 0, 70, 88
4, 24658, Note_off_c, 0, 70, 0
4, 24660, Note_on_c, 0, 72, 88
4, 24718, Note_off_c, 0, 72, 0
4, 24720, Note_on_c, 0, 70, 88
4, 24778, Note_off_c, 0, 70, 0
4, 24780, Note_on_c, 0, 68, 88
4, 24838, Note_off_c, 0, 68, 0
4, 24840, Note_on_c, 0, 67, 88
4, 24898, Note_off_c, 0, 67, 0
4, 24900, Note_on_c, 0, 65, 88
4, 24958, Note_off_c, 0, 65, 0
4, 24960, Note_on_c, 0, 67, 88
4, 25018, Note_off_c, 0, 67, 0
4, 25020, Note_on_c, 0, 75, 88
4, 25078, Note_off_c, 0, 75, 0
4, 25080, Note_on_c, 0, 77, 88
4, 25138, Note_off_c, 0, 77, 0
4, 25140, Note_on_c, 0, 79, 88
4, 25198, Note_off_c, 0, 79, 0
4, 25200, Note_on_c, 0, 77, 88
4, 25258, Note_off_c, 0, 77, 0
4, 25260, Note_on_c, 0, 75, 88
4, 25318, Note_off_c, 0, 75, 0
4, 25320, Note_on_c, 0, 74, 88
4, 25378, Note_off_c, 0, 74, 0
4, 25380, Note_on_c, 0, 72, 88
4, 25438, Note_off_c, 0, 72, 0
4, 25440, Note_on_c, 0, 70, 88
4, 25556, Note_off_c, 0, 70, 0
4, 25560, Note_on_c, 0, 72, 88
4, 25618, Note_off_c, 0, 72, 0
4, 25620, Note_on_c, 0, 74, 88
4, 25678, Note_off_c, 0, 74, 0
4, 25680, Note_on_c, 0, 75, 88
4, 25738, Note_off_c, 0, 75, 0
4, 25740, Note_on_c, 0, 74, 88
4, 25798, Note_off_c, 0, 74, 0
4, 25800, Note_on_c, 0, 72, 88
4, 25858, Note_off_c, 0, 72, 0
4, 25860, Note_on_c, 0, 70, 88
4, 25918, Note_off_c, 0, 70, 0
4, 25920, Note_on_c, 0, 68, 88
4, 25978, Note_off_c, 0, 68, 0
4, 25980, Note_on_c, 0, 67, 88
4, 26038, Note_off_c, 0, 67, 0
4, 26040, Note_on_c, 0, 65, 88
4, 26098, Note_off_c, 0, 65, 0
4, 26100, Note_on_c, 0, 63, 88
4, 26158, Note_off_c, 0, 63, 0
4, 26160, Note_on_c, 0, 68, 88
4, 26262, Note_off_c, 0, 68, 0
4, 26280, Note_on_c, 0, 68, 88
4, 26382, Note_off_c, 0, 68, 0
4, 26400, Note_on_c, 0, 68, 88
4, 26634, Note_off_c, 0, 68, 0
4, 26640, Note_on_c, 0, 67, 88
4, 27114, Note_off_c, 0, 67, 0
4, 27120, Note_on_c, 0, 69, 88
4, 27354, Note_off_c, 0, 69, 0
4, 27360, Note_on_c, 0, 70, 88
4, 27476, Note_off_c, 0, 70, 0
4, 27480, Note_on_c, 0, 72, 88
4, 27596, Note_off_c, 0, 72, 0
4, 27600, Note_on_c, 0, 74, 88
4, 28122, Note_off_c, 0, 74, 0
4, 28140, Note_on_c, 0, 74, 88
4, 28198, Note_off_c, 0, 74, 0
4, 28200, Note_on_c, 0, 72, 88
4, 28258, Note_off_c, 0, 72, 0
4, 28260, Note_on_c, 0, 70, 88
4, 28318, Note_off_c, 0, 70, 0
4, 28320, Note_on_c, 0, 69, 88
4, 28436, Note_off_c, 0, 69, 0
4, 28440, Note_on_c, 0, 70, 88
4, 28498, Note_off_c, 0, 70, 0
4, 28500, Note_on_c, 0, 72, 88
4, 28558, Note_off_c, 0, 72, 0
4, 28560, Note_on_c, 0, 74, 88
4, 29094, Note_off_c, 0, 74, 0
4, 29100, Note_on_c, 0, 72, 88
4, 29158, Note_off_c, 0, 72, 0
4, 29160, Note_on_c, 0, 74, 88
4, 29218, Note_off_c, 0, 74, 0
4, 29220, Note_on_c, 0, 75, 88
4, 29278, Note_off_c, 0, 75, 0
4, 29280, Note_on_c, 0, 77, 88
4, 29514, Note_off_c, 0, 77, 0
4, 29820, Note_on_c, 0, 77, 88
4, 29878, Note_off_c, 0, 77, 0
4, 29880, Note_on_c, 0, 79, 88
4, 29938, Note_off_c, 0, 79, 0
4, 29940, Note_on_c, 0, 80, 88
4, 29998, Note_off_c, 0, 80, 0
4, 30000, Note_on_c, 0, 79, 88
4, 30058, Note_off_c, 0, 79, 0
4, 30060, Note_on_c, 0, 77, 88
4, 30118, Note_off_c, 0, 77, 0
4, 30120, Note_on_c, 0, 75, 88
4, 30178, Note_off_c, 0, 75, 0
4, 30180, Note_on_c, 0, 74, 88
4, 30238, Note_off_c, 0, 74, 0
4, 30240, Note_on_c, 0, 75, 88
4, 30762, Note_off_c, 0, 75, 0
4, 30780, Note_on_c, 0, 75, 88
4, 30838, Note_off_c, 0, 75, 0
4, 30840, Note_on_c, 0, 77, 88
4, 30898, Note_off_c, 0, 77, 0
4, 30900, Note_on_c, 0, 79, 88
4, 30958, Note_off_c, 0, 79, 0
4, 30960, Note_on_c, 0, 77, 88
4, 31018, Note_off_c, 0, 77, 0
4, 31020, Note_on_c, 0, 75, 88
4, 31078, Note_off_c, 0, 75, 0
4, 31080, Note_on_c, 0, 74, 88
4, 31138, Note_off_c, 0, 74, 0
4, 31140, Note_on_c, 0, 72, 88
4, 31198, Note_off_c, 0, 72, 0
4, 31200, Note_on_c, 0, 74, 88
4, 31914, Note_off_c, 0, 74, 0
4, 31920, Note_on_c, 0, 72, 88
4, 32273, Note_off_c, 0, 72, 0
4, 32280, Note_on_c, 0, 70, 88
4, 32396, Note_off_c, 0, 70, 0
4, 32400, Note_on_c, 0, 69, 88
4, 32634, Note_off_c, 0, 69, 0
4, 32640, Note_on_c, 0, 67, 88
4, 32874, Note_off_c, 0, 67, 0
4, 33120, Note_on_c, 0, 65, 88
4, 33354, Note_off_c, 0, 65, 0
4, 33360, Note_on_c, 0, 70, 88
4, 33834, Note_off_c, 0, 70, 0
4, 33840, Note_on_c, 0, 69, 88
4, 34074, Note_off_c, 0, 69, 0
4, 34080, Note_on_c, 0, 73, 88
4, 34618, Note_off_c, 0, 73, 0
4, 34620, Note_on_c, 0, 70, 88
4, 34678, Note_off_c, 0, 70, 0
4, 34680, Note_on_c, 0, 72, 88
4, 34738, Note_off_c, 0, 72, 0
4, 34740, Note_on_c, 0, 73, 88
4, 34798, Note_off_c, 0, 73, 0
4, 34800, Note_on_c, 0, 72, 88
4, 34858, Note_off_c, 0, 72, 0
4, 34860, Note_on_c, 0, 70, 88
4, 34918, Note_off_c, 0, 70, 0
4, 34920, Note_on_c, 0, 68, 88
4, 34978, Note_off_c, 0, 68, 0
4, 34980, Note_on_c, 0, 67, 88
4, 35038, Note_off_c, 0, 67, 0
4, 35040, Note_on_c, 0, 65, 88
4, 35754, Note_off_c, 0, 65, 0
4, 35760, Note_on_c, 0, 64, 88
4, 35994, Note_off_c, 0, 64, 0
4, 36000, Note_on_c, 0, 65, 88
4, 36234, Note_off_c, 0, 65, 0
4, 36240, Note_on_c, 0, 72, 88
4, 36714, Note_off_c, 0, 72, 0
4, 36720, Note_on_c, 0, 71, 88
4, 36954, Note_off_c, 0, 71, 0
4, 36960, Note_on_c, 0, 75, 88
4, 37482, Note_off_c, 0, 75, 0
4, 37500, Note_on_c, 0, 75, 88
4, 37558, Note_off_c, 0, 75, 0
4, 37560, Note_on_c, 0, 77, 88
4, 37618, Note_off_c, 0, 77, 0
4, 37620, Note_on_c, 0, 79, 88
4, 37678, Note_off_c, 0, 79, 0
4, 37680, Note_on_c, 0, 77, 88
4, 37738, Note_off_c, 0, 77, 0
4, 37740, Note_on_c, 0, 75, 88
4, 37798, Note_off_c, 0, 75, 0
4, 37800, Note_on_c, 0, 74, 88
4, 37858, Note_off_c, 0, 74, 0
4, 37860, Note_on_c, 0, 72, 88
4, 37918, Note_off_c, 0, 72, 0
4, 37920, Note_on_c, 0, 71, 88
4, 37978, Note_off_c, 0, 71, 0
4, 37980, Note_on_c, 0, 77, 88
4, 38038, Note_off_c, 0, 77, 0
4, 38040, Note_on_c, 0, 79, 88
4, 38098, Note_off_c, 0, 79, 0
4, 38100, Note_on_c, 0, 80, 88
4, 38158, Note_off_c, 0, 80, 0
4, 38160, Note_on_c, 0, 79, 88
4, 38218, Note_off_c, 0, 79, 0
4, 38220, Note_on_c, 0, 77, 88
4, 38278, Note_off_c, 0, 77, 0
4, 38280, Note_on_c, 0, 75, 88
4, 38338, Note_off_c, 0, 75, 0
4, 38340, Note_on_c, 0, 74, 88
4, 38398, Note_off_c, 0, 74, 0
4, 38400, Note_on_c, 0, 72, 88
4, 38458, Note_off_c, 0, 72, 0
4, 38460, Note_on_c, 0, 71, 88
4, 38518, Note_off_c, 0, 71, 0
4, 38520, Note_on_c, 0, 72, 88
4, 38578, Note_off_c, 0, 72, 0
4, 38580, Note_on_c, 0, 74, 88
4, 38622, Note_off_c, 0, 74, 0
4, 38640, Note_on_c, 0, 74, 88
4, 38815, Note_off_c, 0, 74, 0
4, 38820, Note_on_c, 0, 72, 88
4, 38862, Note_off_c, 0, 72, 0
4, 38880, Note_on_c, 0, 72, 88
4, 39114, Note_off_c, 0, 72, 0
4, 39420, Note_on_c, 0, 70, 88
4, 39478, Note_off_c, 0, 70, 0
4, 39480, Note_on_c, 0, 72, 88
4, 39538, Note_off_c, 0, 72, 0
4, 39540, Note_on_c, 0, 73, 88
4, 39598, Note_off_c, 0, 73, 0
4, 39600, Note_on_c, 0, 72, 88
4, 39658, Note_off_c, 0, 72, 0
4, 39660, Note_on_c, 0, 70, 88
4, 39718, Note_off_c, 0, 70, 0
4, 39720, Note_on_c, 0, 68, 88
4, 39778, Note_off_c, 0, 68, 0
4, 39780, Note_on_c, 0, 67, 88
4, 39838, Note_off_c, 0, 67, 0
4, 39840, Note_on_c, 0, 65, 88
4, 39956, Note_off_c, 0, 65, 0
4, 39960, Note_on_c, 0, 67, 88
4, 40018, Note_off_c, 0, 67, 0
4, 40020, Note_on_c, 0, 68, 88
4, 40078, Note_off_c, 0, 68, 0
4, 40080, Note_on_c, 0, 70, 88
4, 40138, Note_off_c, 0, 70, 0
4, 40140, Note_on_c, 0, 68, 88
4, 40198, Note_off_c, 0, 68, 0
4, 40200, Note_on_c, 0, 67, 88
4, 40258, Note_off_c, 0, 67, 0
4, 40260, Note_on_c, 0, 65, 88
4, 40318, Note_off_c, 0, 65, 0
4, 40320, Note_on_c, 0, 63, 88
4, 40378, Note_off_c, 0, 63, 0
4, 40380, Note_on_c, 0, 62, 88
4, 40438, Note_off_c, 0, 62, 0
4, 40440, Note_on_c, 0, 60, 88
4, 40498, Note_off_c, 0, 60, 0
4, 40500, Note_on_c, 0, 58, 88
4, 40558, Note_off_c, 0, 58, 0
4, 40560, Note_on_c, 0, 75, 88
4, 40662, Note_off_c, 0, 75, 0
4, 40680, Note_on_c, 0, 75, 88
4, 40782, Note_off_c, 0, 75, 0
4, 40800, Note_on_c, 0, 75, 88
4, 41034, Note_off_c, 0, 75, 0
4, 41040, Note_on_c, 0, 74, 88
4, 41274, Note_off_c, 0, 74, 0
4, 41280, Note_on_c, 0, 79, 88
4, 41988, Note_off_c, 0, 79, 0
4, 42000, Note_on_c, 0, 77, 88
4, 42234, Note_off_c, 0, 77, 0
4, 42240, Note_on_c, 0, 71, 88
4, 42474, Note_off_c, 0, 71, 0
4, 42480, Note_on_c, 0, 72, 88
4, 42596, Note_off_c, 0, 72, 0
4, 42600, Note_on_c, 0, 74, 88
4, 42716, Note_off_c, 0, 74, 0
4, 42720, Note_on_c, 0, 75, 88
4, 42836, Note_off_c, 0, 75, 0
4, 42840, Note_on_c, 0, 76, 88
4, 42956, Note_off_c, 0, 76, 0
4, 42960, Note_on_c, 0, 77, 88
4, 43076, Note_off_c, 0, 77, 0
4, 43080, Note_on_c, 0, 79, 88
4, 43196, Note_off_c, 0, 79, 0
4, 43200, Note_on_c, 0, 80, 88
4, 43722, Note_off_c, 0, 80, 0
4, 43740, Note_on_c, 0, 80, 88
4, 43798, Note_off_c, 0, 80, 0
4, 43800, Note_on_c, 0, 82, 88
4, 43858, Note_off_c, 0, 82, 0
4, 43860, Note_on_c, 0, 84, 88
4, 43918, Note_off_c, 0, 84, 0
4, 43920, Note_on_c, 0, 82, 88
4, 43978, Note_off_c, 0, 82, 0
4, 43980, Note_on_c, 0, 80, 88
4, 44038, Note_off_c, 0, 80, 0
4, 44040, Note_on_c, 0, 79, 88
4, 44098, Note_off_c, 0, 79, 0
4, 44100, Note_on_c, 0, 77, 88
4, 44158, Note_off_c, 0, 77, 0
4, 44160, Note_on_c, 0, 75, 88
4, 44630, Note_off_c, 0, 75, 0
4, 44640, Note_on_c, 0, 70, 88
4, 45414, Note_off_c, 0, 70, 0
4, 45420, Note_on_c, 0, 68, 88
4, 45478, Note_off_c, 0, 68, 0
4, 45480, Note_on_c, 0, 70, 88
4, 45538, Note_off_c, 0, 70, 0
4, 45540, Note_on_c, 0, 72, 88
4, 45598, Note_off_c, 0, 72, 0
4, 45600, Note_on_c, 0, 65, 88
4, 45822, Note_off_c, 0, 65, 0
4, 45840, Note_on_c, 0, 65, 88
4, 46074, Note_off_c, 0, 65, 0
4, 46080, Note_on_c, 0, 63, 88
4, 46550, Note_off_c, 0, 63, 0
4, 46560, Note_on_c, 0, 62, 88
4, 46794, Note_off_c, 0, 62, 0
4, 47040, Note_on_c, 0, 68, 88
4, 47571, Note_off_c, 0, 68, 0
4, 47580, Note_on_c, 0, 65, 88
4, 47638, Note_off_c, 0, 65, 0
4, 47640, Note_on_c, 0, 67, 88
4, 47698, Note_off_c, 0, 67, 0
4, 47700, Note_on_c, 0, 68, 88
4, 47758, Note_off_c, 0, 68, 0
4, 47760, Note_on_c, 0, 67, 88
4, 47818, Note_off_c, 0, 67, 0
4, 47820, Note_on_c, 0, 65, 88
4, 47878, Note_off_c, 0, 65, 0
4, 47880, Note_on_c, 0, 63, 88
4, 47938, Note_off_c, 0, 63, 0
4, 47940, Note_on_c, 0, 62, 88
4, 47998, Note_off_c, 0, 62, 0
4, 48000, Note_on_c, 0, 60, 88
4, 48282, Note_off_c, 0, 60, 0
4, 48300, Note_on_c, 0, 60, 88
4, 48358, Note_off_c, 0, 60, 0
4, 48360, Note_on_c, 0, 62, 88
4, 48418, Note_off_c, 0, 62, 0
4, 48420, Note_on_c, 0, 63, 88
4, 48478, Note_off_c, 0, 63, 0
4, 48480, Note_on_c, 0, 65, 88
4, 48774, Note_off_c, 0, 65, 0
4, 48780, Note_on_c, 0, 63, 88
4, 48838, Note_off_c, 0, 63, 0
4, 48840, Note_on_c, 0, 65, 88
4, 48898, Note_off_c, 0, 65, 0
4, 48900, Note_on_c, 0, 67, 88
4, 48958, Note_off_c, 0, 67, 0
4, 48960, Note_on_c, 0, 68, 88
4, 49550, Note_off_c, 0, 68, 0
4, 49560, Note_on_c, 0, 67, 88
4, 49676, Note_off_c, 0, 67, 0
4, 49680, Note_on_c, 0, 68, 88
4, 49796, Note_off_c, 0, 68, 0
4, 49800, Note_on_c, 0, 70, 88
4, 49916, Note_off_c, 0, 70, 0
4, 49920, Note_on_c, 0, 72, 88
4, 50214, Note_off_c, 0, 72, 0
4, 50220, Note_on_c, 0, 75, 88
4, 50278, Note_off_c, 0, 75, 0
4, 50280, Note_on_c, 0, 74, 88
4, 50338, Note_off_c, 0, 74, 0
4, 50340, Note_on_c, 0, 72, 88
4, 50398, Note_off_c, 0, 72, 0
4, 50400, Note_on_c, 0, 71, 88
4, 50516, Note_off_c, 0, 71, 0
4, 50520, Note_on_c, 0, 72, 88
4, 50578, Note_off_c, 0, 72, 0
4, 50580, Note_on_c, 0, 74, 88
4, 50638, Note_off_c, 0, 74, 0
4, 50640, Note_on_c, 0, 75, 88
4, 50698, Note_off_c, 0, 75, 0
4, 50700, Note_on_c, 0, 74, 88
4, 50758, Note_off_c, 0, 74, 0
4, 50760, Note_on_c, 0, 72, 88
4, 50818, Note_off_c, 0, 72, 0
4, 50820, Note_on_c, 0, 70, 88
4, 50878, Note_off_c, 0, 70, 0
4, 50880, Note_on_c, 0, 68, 88
4, 50938, Note_off_c, 0, 68, 0
4, 50940, Note_on_c, 0, 67, 88
4, 50998, Note_off_c, 0, 67, 0
4, 51000, Note_on_c, 0, 65, 88
4, 51058, Note_off_c, 0, 65, 0
4, 51060, Note_on_c, 0, 63, 88
4, 51118, Note_off_c, 0, 63, 0
4, 51120, Note_on_c, 0, 62, 88
4, 51178, Note_off_c, 0, 62, 0
4, 51180, Note_on_c, 0, 74, 88
4, 51238, Note_off_c, 0, 74, 0
4, 51240, Note_on_c, 0, 75, 88
4, 51298, Note_off_c, 0, 75, 0
4, 51300, Note_on_c, 0, 77, 88
4, 51358, Note_off_c, 0, 77, 0
4, 51360, Note_on_c, 0, 71, 88
4, 51476, Note_off_c, 0, 71, 0
4, 51480, Note_on_c, 0, 72, 88
4, 51538, Note_off_c, 0, 72, 0
4, 51540, Note_on_c, 0, 74, 88
4, 51598, Note_off_c, 0, 74, 0
4, 51600, Note_on_c, 0, 72, 88
4, 51658, Note_off_c, 0, 72, 0
4, 51660, Note_on_c, 0, 70, 88
4, 51718, Note_off_c, 0, 70, 0
4, 51720, Note_on_c, 0, 68, 88
4, 51778, Note_off_c, 0, 68, 0
4, 51780, Note_on_c, 0, 67, 88
4, 51838, Note_off_c, 0, 67, 0
4, 51840, Note_on_c, 0, 72, 88
4, 52430, Note_off_c, 0, 72, 0
4, 52440, Note_on_c, 0, 74, 88
4, 52556, Note_off_c, 0, 74, 0
4, 52560, Note_on_c, 0, 76, 88
4, 52794, Note_off_c, 0, 76, 0
4, 52800, Note_on_c, 0, 77, 88
4, 52858, Note_off_c, 0, 77, 0
4, 52860, Note_on_c, 0, 72, 88
4, 52918, Note_off_c, 0, 72, 0
4, 52920, Note_on_c, 0, 73, 88
4, 52978, Note_off_c, 0, 73, 0
4, 52980, Note_on_c, 0, 75, 88
4, 53038, Note_off_c, 0, 75, 0
4, 53040, Note_on_c, 0, 73, 88
4, 53098, Note_off_c, 0, 73, 0
4, 53100, Note_on_c, 0, 72, 88
4, 53158, Note_off_c, 0, 72, 0
4, 53160, Note_on_c, 0, 70, 88
4, 53218, Note_off_c, 0, 70, 0
4, 53220, Note_on_c, 0, 68, 88
4, 53278, Note_off_c, 0, 68, 0
4, 53280, Note_on_c, 0, 67, 88
4, 53514, Note_off_c, 0, 67, 0
4, 53820, Note_on_c, 0, 80, 88
4, 53878, Note_off_c, 0, 80, 0
4, 53880, Note_on_c, 0, 82, 88
4, 53938, Note_off_c, 0, 82, 0
4, 53940, Note_on_c, 0, 84, 88
4, 53998, Note_off_c, 0, 84, 0
4, 54000, Note_on_c, 0, 82, 88
4, 54058, Note_off_c, 0, 82, 0
4, 54060, Note_on_c, 0, 80, 88
4, 54118, Note_off_c, 0, 80, 0
4, 54120, Note_on_c, 0, 79, 88
4, 54178, Note_off_c, 0, 79, 0
4, 54180, Note_on_c, 0, 77, 88
4, 54238, Note_off_c, 0, 77, 0
4, 54240, Note_on_c, 0, 80, 88
4, 54298, Note_off_c, 0, 80, 0
4, 54300, Note_on_c, 0, 79, 88
4, 54358, Note_off_c, 0, 79, 0
4, 54360, Note_on_c, 0, 77, 88
4, 54418, Note_off_c, 0, 77, 0
4, 54420, Note_on_c, 0, 75, 88
4, 54478, Note_off_c, 0, 75, 0
4, 54480, Note_on_c, 0, 80, 88
4, 54954, Note_off_c, 0, 80, 0
4, 54960, Note_on_c, 0, 79, 88
4, 55194, Note_off_c, 0, 79, 0
4, 55200, Note_on_c, 0, 80, 88
4, 55316, Note_off_c, 0, 80, 0
4, 55320, Note_on_c, 0, 75, 88
4, 55436, Note_off_c, 0, 75, 0
4, 55440, Note_on_c, 0, 80, 88
4, 55914, Note_off_c, 0, 80, 0
4, 55920, Note_on_c, 0, 79, 88
4, 56154, Note_off_c, 0, 79, 0
4, 56160, Note_on_c, 0, 84, 88
4, 56630, Note_off_c, 0, 84, 0
4, 56640, Note_on_c, 0, 82, 88
4, 56922, Note_off_c, 0, 82, 0
4, 56940, Note_on_c, 0, 82, 88
4, 56998, Note_off_c, 0, 82, 0
4, 57000, Note_on_c, 0, 80, 88
4, 57058, Note_off_c, 0, 80, 0
4, 57060, Note_on_c, 0, 79, 88
4, 57118, Note_off_c, 0, 79, 0
4, 57120, Note_on_c, 0, 77, 88
4, 57236, Note_off_c, 0, 77, 0
4, 57240, Note_on_c, 0, 79, 88
4, 57298, Note_off_c, 0, 79, 0
4, 57300, Note_on_c, 0, 80, 88
4, 57358, Note_off_c, 0, 80, 0
4, 57360, Note_on_c, 0, 79, 88
4, 57418, Note_off_c, 0, 79, 0
4, 57420, Note_on_c, 0, 77, 88
4, 57478, Note_off_c, 0, 77, 0
4, 57480, Note_on_c, 0, 75, 88
4, 57538, Note_off_c, 0, 75, 0
4, 57540, Note_on_c, 0, 74, 88
4, 57598, Note_off_c, 0, 74, 0
4, 57600, Note_on_c, 0, 75, 88
4, 57716, Note_off_c, 0, 75, 0
4, 57720, Note_on_c, 0, 77, 88
4, 57778, Note_off_c, 0, 77, 0
4, 57780, Note_on_c, 0, 79, 88
4, 57838, Note_off_c, 0, 79, 0
4, 57840, Note_on_c, 0, 80, 88
4, 57942, Note_off_c, 0, 80, 0
4, 57960, Note_on_c, 0, 80, 88
4, 58135, Note_off_c, 0, 80, 0
4, 58140, Note_on_c, 0, 79, 88
4, 58198, Note_off_c, 0, 79, 0
4, 58200, Note_on_c, 0, 80, 88
4, 58258, Note_off_c, 0, 80, 0
4, 58260, Note_on_c, 0, 82, 88
4, 58318, Note_off_c, 0, 82, 0
4, 58320, Note_on_c, 0, 80, 88
4, 58378, Note_off_c, 0, 80, 0
4, 58380, Note_on_c, 0, 79, 88
4, 58438, Note_off_c, 0, 79, 0
4, 58440, Note_on_c, 0, 77, 88
4, 58498, Note_off_c, 0, 77, 0
4, 58500, Note_on_c, 0, 75, 88
4, 58558, Note_off_c, 0, 75, 0
4, 58560, Note_on_c, 0, 77, 88
4, 58676, Note_off_c, 0, 77, 0
4, 58680, Note_on_c, 0, 79, 88
4, 58738, Note_off_c, 0, 79, 0
4, 58740, Note_on_c, 0, 80, 88
4, 58798, Note_off_c, 0, 80, 0
4, 58800, Note_on_c, 0, 82, 88
4, 58858, Note_off_c, 0, 82, 0
4, 58860, Note_on_c, 0, 80, 88
4, 58918, Note_off_c, 0, 80, 0
4, 58920, Note_on_c, 0, 79, 88
4, 58978, Note_off_c, 0, 79, 0
4, 58980, Note_on_c, 0, 77, 88
4, 59038, Note_off_c, 0, 77, 0
4, 59040, Note_on_c, 0, 75, 88
4, 59098, Note_off_c, 0, 75, 0
4, 59100, Note_on_c, 0, 74, 88
4, 59158, Note_off_c, 0, 74, 0
4, 59160, Note_on_c, 0, 72, 88
4, 59218, Note_off_c, 0, 72, 0
4, 59220, Note_on_c, 0, 70, 88
4, 59278, Note_off_c, 0, 70, 0
4, 59280, Note_on_c, 0, 75, 88
4, 59382, Note_off_c, 0, 75, 0
4, 59400, Note_on_c, 0, 75, 88
4, 59516, Note_off_c, 0, 75, 0
4, 59520, Note_on_c, 0, 75, 88
4, 59754, Note_off_c, 0, 75, 0
4, 59820, Note_on_c, 0, 74, 88
4, 59878, Note_off_c, 0, 74, 0
4, 59880, Note_on_c, 0, 75, 88
4, 59938, Note_off_c, 0, 75, 0
4, 59940, Note_on_c, 0, 77, 88
4, 59998, Note_off_c, 0, 77, 0
4, 60000, Note_on_c, 0, 70, 88
4, 60714, Note_off_c, 0, 70, 0
4, 60720, Note_on_c, 0, 68, 88
4, 61190, Note_off_c, 0, 68, 0
4, 61200, Note_on_c, 0, 67, 88
4, 61434, Note_off_c, 0, 67, 0
4, 61440, Note_on_c, 0, 72, 88
4, 61910, Note_off_c, 0, 72, 0
4, 61920, Note_on_c, 0, 70, 88
4, 62154, Note_off_c, 0, 70, 0
4, 62160, Note_on_c, 0, 75, 88
4, 62634, Note_off_c, 0, 75, 0
4, 62640, Note_on_c, 0, 74, 88
4, 62874, Note_off_c, 0, 74, 0
4, 62880, Note_on_c, 0, 78, 88
4, 63350, Note_off_c, 0, 78, 0
4, 63360, Note_on_c, 0, 77, 88
4, 63594, Note_off_c, 0, 77, 0
4, 63600, Note_on_c, 0, 75, 88
4, 64070, Note_off_c, 0, 75, 0
4, 64080, Note_on_c, 0, 74, 88
4, 64314, Note_off_c, 0, 74, 0
4, 64320, Note_on_c, 0, 75, 88
4, 64790, Note_off_c, 0, 75, 0
4, 64800, Note_on_c, 0, 74, 88
4, 65034, Note_off_c, 0, 74, 0
4, 65040, Note_on_c, 0, 73, 88
4, 65338, Note_off_c, 0, 73, 0
4, 65340, Note_on_c, 0, 70, 88
4, 65398, Note_off_c, 0, 70, 0
4, 65400, Note_on_c, 0, 72, 88
4, 65458, Note_off_c, 0, 72, 0
4, 65460, Note_on_c, 0, 73, 88
4, 65518, Note_off_c, 0, 73, 0
4, 65520, Note_on_c, 0, 72, 88
4, 65578, Note_off_c, 0, 72, 0
4, 65580, Note_on_c, 0, 70, 88
4, 65638, Note_off_c, 0, 70, 0
4, 65640, Note_on_c, 0, 72, 88
4, 65698, Note_off_c, 0, 72, 0
4, 65700, Note_on_c, 0, 68, 88
4, 65758, Note_off_c, 0, 68, 0
4, 65760, Note_on_c, 0, 74, 88
4, 66230, Note_off_c, 0, 74, 0
4, 66240, Note_on_c, 0, 75, 88
4, 67185, Note_off_c, 0, 75, 0
4, 67185, End_track
5, 0, Start_track
5, 0, Title_t, "Track 2"
5, 0, Program_c, 1, 6
5, 420, Note_on_c, 1, 63, 88
5, 1076, Note_off_c, 1, 63, 0
5, 1380, Note_on_c, 1, 68, 88
5, 2036, Note_off_c, 1, 68, 0
5, 2340, Note_on_c, 1, 70, 88
5, 2996, Note_off_c, 1, 70, 0
5, 3360, Note_on_c, 1, 75, 88
5, 3898, Note_off_c, 1, 75, 0
5, 4260, Note_on_c, 1, 72, 88
5, 4791, Note_off_c, 1, 72, 0
5, 4800, Note_on_c, 1, 74, 88
5, 4916, Note_off_c, 1, 74, 0
5, 8160, Note_on_c, 1, 72, 88
5, 8630, Note_off_c, 1, 72, 0
5, 8640, Note_on_c, 1, 65, 88
5, 8874, Note_off_c, 1, 65, 0
5, 10080, Note_on_c, 1, 63, 88
5, 10314, Note_off_c, 1, 63, 0
5, 10320, Note_on_c, 1, 68, 88
5, 10794, Note_off_c, 1, 68, 0
5, 10800, Note_on_c, 1, 67, 88
5, 11270, Note_off_c, 1, 67, 0
5, 11280, Note_on_c, 1, 65, 88
5, 11754, Note_off_c, 1, 65, 0
5, 11760, Note_on_c, 1, 67, 88
5, 12230, Note_off_c, 1, 67, 0
5, 12240, Note_on_c, 1, 72, 88
5, 12474, Note_off_c, 1, 72, 0
5, 12480, Note_on_c, 1, 70, 88
5, 12950, Note_off_c, 1, 70, 0
5, 12960, Note_on_c, 1, 72, 88
5, 13430, Note_off_c, 1, 72, 0
5, 13440, Note_on_c, 1, 70, 88
5, 14267, Note_off_c, 1, 70, 0
5, 14280, Note_on_c, 1, 68, 88
5, 14396, Note_off_c, 1, 68, 0
5, 14400, Note_on_c, 1, 67, 88
5, 14634, Note_off_c, 1, 67, 0
5, 14640, Note_on_c, 1, 72, 88
5, 14874, Note_off_c, 1, 72, 0
5, 14880, Note_on_c, 1, 71, 88
5, 15114, Note_off_c, 1, 71, 0
5, 15120, Note_on_c, 1, 72, 88
5, 15236, Note_off_c, 1, 72, 0
5, 15240, Note_on_c, 1, 70, 88
5, 15356, Note_off_c, 1, 70, 0
5, 15360, Note_on_c, 1, 68, 88
5, 15594, Note_off_c, 1, 68, 0
5, 15600, Note_on_c, 1, 70, 88
5, 15834, Note_off_c, 1, 70, 0
5, 15840, Note_on_c, 1, 68, 88
5, 16554, Note_off_c, 1, 68, 0
5, 16560, Note_on_c, 1, 67, 88
5, 16794, Note_off_c, 1, 67, 0
5, 16800, Note_on_c, 1, 65, 88
5, 17034, Note_off_c, 1, 65, 0
5, 17040, Note_on_c, 1, 67, 88
5, 17156, Note_off_c, 1, 67, 0
5, 17160, Note_on_c, 1, 68, 88
5, 17276, Note_off_c, 1, 68, 0
5, 17280, Note_on_c, 1, 67, 88
5, 17750, Note_off_c, 1, 67, 0
5, 17760, Note_on_c, 1, 65, 88
5, 18474, Note_off_c, 1, 65, 0
5, 18480, Note_on_c, 1, 63, 88
5, 18538, Note_off_c, 1, 63, 0
5, 18540, Note_on_c, 1, 74, 88
5, 18598, Note_off_c, 1, 74, 0
5, 18600, Note_on_c, 1, 72, 88
5, 18658, Note_off_c, 1, 72, 0
5, 18660, Note_on_c, 1, 70, 88
5, 18718, Note_off_c, 1, 70, 0
5, 18720, Note_on_c, 1, 69, 88
5, 18954, Note_off_c, 1, 69, 0
5, 18960, Note_on_c, 1, 70, 88
5, 19434, Note_off_c, 1, 70, 0
5, 19440, Note_on_c, 1, 68, 88
5, 19910, Note_off_c, 1, 68, 0
5, 19920, Note_on_c, 1, 67, 88
5, 20394, Note_off_c, 1, 67, 0
5, 20400, Note_on_c, 1, 65, 88
5, 20870, Note_off_c, 1, 65, 0
5, 20880, Note_on_c, 1, 63, 88
5, 20996, Note_off_c, 1, 63, 0
5, 21000, Note_on_c, 1, 61, 88
5, 21116, Note_off_c, 1, 61, 0
5, 21120, Note_on_c, 1, 60, 88
5, 21828, Note_off_c, 1, 60, 0
5, 21840, Note_on_c, 1, 58, 88
5, 22314, Note_off_c, 1, 58, 0
5, 22320, Note_on_c, 1, 57, 88
5, 22554, Note_off_c, 1, 57, 0
5, 22560, Note_on_c, 1, 58, 88
5, 23098, Note_off_c, 1, 58, 0
5, 23100, Note_on_c, 1, 70, 88
5, 23158, Note_off_c, 1, 70, 0
5, 23160, Note_on_c, 1, 72, 88
5, 23218, Note_off_c, 1, 72, 0
5, 23220, Note_on_c, 1, 74, 88
5, 23278, Note_off_c, 1, 74, 0
5, 23280, Note_on_c, 1, 72, 88
5, 23338, Note_off_c, 1, 72, 0
5, 23340, Note_on_c, 1, 70, 88
5, 23398, Note_off_c, 1, 70, 0
5, 23400, Note_on_c, 1, 69, 88
5, 23458, Note_off_c, 1, 69, 0
5, 23460, Note_on_c, 1, 67, 88
5, 23518, Note_off_c, 1, 67, 0
5, 23520, Note_on_c, 1, 65, 88
5, 23636, Note_off_c, 1, 65, 0
5, 23640, Note_on_c, 1, 67, 88
5, 23698, Note_off_c, 1, 67, 0
5, 23700, Note_on_c, 1, 69, 88
5, 23758, Note_off_c, 1, 69, 0
5, 23760, Note_on_c, 1, 70, 88
5, 23818, Note_off_c, 1, 70, 0
5, 23820, Note_on_c, 1, 69, 88
5, 23878, Note_off_c, 1, 69, 0
5, 23880, Note_on_c, 1, 67, 88
5, 23938, Note_off_c, 1, 67, 0
5, 23940, Note_on_c, 1, 65, 88
5, 23998, Note_off_c, 1, 65, 0
5, 24000, Note_on_c, 1, 63, 88
5, 24058, Note_off_c, 1, 63, 0
5, 24060, Note_on_c, 1, 62, 88
5, 24118, Note_off_c, 1, 62, 0
5, 24120, Note_on_c, 1, 60, 88
5, 24178, Note_off_c, 1, 60, 0
5, 24180, Note_on_c, 1, 58, 88
5, 24238, Note_off_c, 1, 58, 0
5, 24240, Note_on_c, 1, 63, 88
5, 24342, Note_off_c, 1, 63, 0
5, 24360, Note_on_c, 1, 63, 88
5, 24462, Note_off_c, 1, 63, 0
5, 24480, Note_on_c, 1, 63, 88
5, 24714, Note_off_c, 1, 63, 0
5, 24720, Note_on_c, 1, 62, 88
5, 24954, Note_off_c, 1, 62, 0
5, 24960, Note_on_c, 1, 63, 88
5, 25194, Note_off_c, 1, 63, 0
5, 27840, Note_on_c, 1, 58, 88
5, 28074, Note_off_c, 1, 58, 0
5, 28080, Note_on_c, 1, 63, 88
5, 28550, Note_off_c, 1, 63, 0
5, 28560, Note_on_c, 1, 62, 88
5, 28794, Note_off_c, 1, 62, 0
5, 28800, Note_on_c, 1, 67, 88
5, 29270, Note_off_c, 1, 67, 0
5, 29340, Note_on_c, 1, 69, 88
5, 29398, Note_off_c, 1, 69, 0
5, 29400, Note_on_c, 1, 70, 88
5, 29458, Note_off_c, 1, 70, 0
5, 29460, Note_on_c, 1, 72, 88
5, 29518, Note_off_c, 1, 72, 0
5, 29520, Note_on_c, 1, 70, 88
5, 29578, Note_off_c, 1, 70, 0
5, 29580, Note_on_c, 1, 69, 88
5, 29638, Note_off_c, 1, 69, 0
5, 29640, Note_on_c, 1, 67, 88
5, 29698, Note_off_c, 1, 67, 0
5, 29700, Note_on_c, 1, 65, 88
5, 29758, Note_off_c, 1, 65, 0
5, 29760, Note_on_c, 1, 70, 88
5, 30282, Note_off_c, 1, 70, 0
5, 30300, Note_on_c, 1, 70, 88
5, 30358, Note_off_c, 1, 70, 0
5, 30360, Note_on_c, 1, 72, 88
5, 30418, Note_off_c, 1, 72, 0
5, 30420, Note_on_c, 1, 74, 88
5, 30478, Note_off_c, 1, 74, 0
5, 30480, Note_on_c, 1, 72, 88
5, 30538, Note_off_c, 1, 72, 0
5, 30540, Note_on_c, 1, 70, 88
5, 30598, Note_off_c, 1, 70, 0
5, 30600, Note_on_c, 1, 69, 88
5, 30658, Note_off_c, 1, 69, 0
5, 30660, Note_on_c, 1, 67, 88
5, 30718, Note_off_c, 1, 67, 0
5, 30720, Note_on_c, 1, 69, 88
5, 31310, Note_off_c, 1, 69, 0
5, 31320, Note_on_c, 1, 62, 88
5, 31436, Note_off_c, 1, 62, 0
5, 31440, Note_on_c, 1, 67, 88
5, 31556, Note_off_c, 1, 67, 0
5, 31560, Note_on_c, 1, 65, 88
5, 31676, Note_off_c, 1, 65, 0
5, 31680, Note_on_c, 1, 63, 88
5, 32150, Note_off_c, 1, 63, 0
5, 32160, Note_on_c, 1, 62, 88
5, 32394, Note_off_c, 1, 62, 0
5, 32400, Note_on_c, 1, 60, 88
5, 32634, Note_off_c, 1, 60, 0
5, 32640, Note_on_c, 1, 58, 88
5, 32874, Note_off_c, 1, 58, 0
5, 32880, Note_on_c, 1, 63, 88
5, 33350, Note_off_c, 1, 63, 0
5, 33360, Note_on_c, 1, 62, 88
5, 33594, Note_off_c, 1, 62, 0
5, 33600, Note_on_c, 1, 67, 88
5, 33834, Note_off_c, 1, 67, 0
5, 33840, Note_on_c, 1, 65, 88
5, 34122, Note_off_c, 1, 65, 0
5, 34140, Note_on_c, 1, 65, 88
5, 34198, Note_off_c, 1, 65, 0
5, 34200, Note_on_c, 1, 67, 88
5, 34258, Note_off_c, 1, 67, 0
5, 34260, Note_on_c, 1, 68, 88
5, 34318, Note_off_c, 1, 68, 0
5, 34320, Note_on_c, 1, 67, 88
5, 34378, Note_off_c, 1, 67, 0
5, 34380, Note_on_c, 1, 65, 88
5, 34438, Note_off_c, 1, 65, 0
5, 34440, Note_on_c, 1, 64, 88
5, 34498, Note_off_c, 1, 64, 0
5, 34500, Note_on_c, 1, 65, 88
5, 34558, Note_off_c, 1, 65, 0
5, 34560, Note_on_c, 1, 64, 88
5, 35030, Note_off_c, 1, 64, 0
5, 35100, Note_on_c, 1, 63, 88
5, 35158, Note_off_c, 1, 63, 0
5, 35160, Note_on_c, 1, 61, 88
5, 35218, Note_off_c, 1, 61, 0
5, 35220, Note_on_c, 1, 60, 88
5, 35278, Note_off_c, 1, 60, 0
5, 35280, Note_on_c, 1, 58, 88
5, 35562, Note_off_c, 1, 58, 0
5, 35580, Note_on_c, 1, 58, 88
5, 35638, Note_off_c, 1, 58, 0
5, 35640, Note_on_c, 1, 60, 88
5, 35698, Note_off_c, 1, 60, 0
5, 35700, Note_on_c, 1, 61, 88
5, 35758, Note_off_c, 1, 61, 0
5, 35760, Note_on_c, 1, 60, 88
5, 35818, Note_off_c, 1, 60, 0
5, 35820, Note_on_c, 1, 58, 88
5, 35878, Note_off_c, 1, 58, 0
5, 35880, Note_on_c, 1, 56, 88
5, 35938, Note_off_c, 1, 56, 0
5, 35940, Note_on_c, 1, 55, 88
5, 35998, Note_off_c, 1, 55, 0
5, 36000, Note_on_c, 1, 56, 88
5, 36234, Note_off_c, 1, 56, 0
5, 36540, Note_on_c, 1, 65, 88
5, 36598, Note_off_c, 1, 65, 0
5, 36600, Note_on_c, 1, 67, 88
5, 36658, Note_off_c, 1, 67, 0
5, 36660, Note_on_c, 1, 68, 88
5, 36718, Note_off_c, 1, 68, 0
5, 36720, Note_on_c, 1, 67, 88
5, 36778, Note_off_c, 1, 67, 0
5, 36780, Note_on_c, 1, 65, 88
5, 36838, Note_off_c, 1, 65, 0
5, 36840, Note_on_c, 1, 63, 88
5, 36898, Note_off_c, 1, 63, 0
5, 36900, Note_on_c, 1, 62, 88
5, 36958, Note_off_c, 1, 62, 0
5, 36960, Note_on_c, 1, 60, 88
5, 37018, Note_off_c, 1, 60, 0
5, 37020, Note_on_c, 1, 67, 88
5, 37078, Note_off_c, 1, 67, 0
5, 37080, Note_on_c, 1, 68, 88
5, 37138, Note_off_c, 1, 68, 0
5, 37140, Note_on_c, 1, 70, 88
5, 37198, Note_off_c, 1, 70, 0
5, 37200, Note_on_c, 1, 68, 88
5, 37258, Note_off_c, 1, 68, 0
5, 37260, Note_on_c, 1, 67, 88
5, 37318, Note_off_c, 1, 67, 0
5, 37320, Note_on_c, 1, 65, 88
5, 37378, Note_off_c, 1, 65, 0
5, 37380, Note_on_c, 1, 63, 88
5, 37438, Note_off_c, 1, 63, 0
5, 37440, Note_on_c, 1, 65, 88
5, 37910, Note_off_c, 1, 65, 0
5, 37920, Note_on_c, 1, 62, 88
5, 38154, Note_off_c, 1, 62, 0
5, 38160, Note_on_c, 1, 63, 88
5, 38516, Note_off_c, 1, 63, 0
5, 38520, Note_on_c, 1, 68, 88
5, 38636, Note_off_c, 1, 68, 0
5, 38640, Note_on_c, 1, 67, 88
5, 38756, Note_off_c, 1, 67, 0
5, 38760, Note_on_c, 1, 65, 88
5, 38876, Note_off_c, 1, 65, 0
5, 38880, Note_on_c, 1, 63, 88
5, 39114, Note_off_c, 1, 63, 0
5, 39120, Note_on_c, 1, 68, 88
5, 39594, Note_off_c, 1, 68, 0
5, 39600, Note_on_c, 1, 67, 88
5, 39834, Note_off_c, 1, 67, 0
5, 39840, Note_on_c, 1, 72, 88
5, 40074, Note_off_c, 1, 72, 0
5, 40080, Note_on_c, 1, 70, 88
5, 41802, Note_off_c, 1, 70, 0
5, 41820, Note_on_c, 1, 70, 88
5, 41878, Note_off_c, 1, 70, 0
5, 41880, Note_on_c, 1, 72, 88
5, 41938, Note_off_c, 1, 72, 0
5, 41940, Note_on_c, 1, 73, 88
5, 41998, Note_off_c, 1, 73, 0
5, 42000, Note_on_c, 1, 72, 88
5, 42058, Note_off_c, 1, 72, 0
5, 42060, Note_on_c, 1, 70, 88
5, 42118, Note_off_c, 1, 70, 0
5, 42120, Note_on_c, 1, 68, 88
5, 42178, Note_off_c, 1, 68, 0
5, 42180, Note_on_c, 1, 67, 88
5, 42238, Note_off_c, 1, 67, 0
5, 42240, Note_on_c, 1, 65, 88
5, 42474, Note_off_c, 1, 65, 0
5, 42480, Note_on_c, 1, 67, 88
5, 42596, Note_off_c, 1, 67, 0
5, 42600, Note_on_c, 1, 71, 88
5, 42716, Note_off_c, 1, 71, 0
5, 42720, Note_on_c, 1, 72, 88
5, 42954, Note_off_c, 1, 72, 0
5, 42960, Note_on_c, 1, 74, 88
5, 43076, Note_off_c, 1, 74, 0
5, 43080, Note_on_c, 1, 76, 88
5, 43196, Note_off_c, 1, 76, 0
5, 43200, Note_on_c, 1, 77, 88
5, 43258, Note_off_c, 1, 77, 0
5, 43260, Note_on_c, 1, 75, 88
5, 43318, Note_off_c, 1, 75, 0
5, 43320, Note_on_c, 1, 77, 88
5, 43378, Note_off_c, 1, 77, 0
5, 43380, Note_on_c, 1, 79, 88
5, 43438, Note_off_c, 1, 79, 0
5, 43440, Note_on_c, 1, 77, 88
5, 43498, Note_off_c, 1, 77, 0
5, 43500, Note_on_c, 1, 75, 88
5, 43558, Note_off_c, 1, 75, 0
5, 43560, Note_on_c, 1, 74, 88
5, 43618, Note_off_c, 1, 74, 0
5, 43620, Note_on_c, 1, 72, 88
5, 43678, Note_off_c, 1, 72, 0
5, 43680, Note_on_c, 1, 74, 88
5, 44218, Note_off_c, 1, 74, 0
5, 44220, Note_on_c, 1, 70, 88
5, 44278, Note_off_c, 1, 70, 0
5, 44280, Note_on_c, 1, 72, 88
5, 44338, Note_off_c, 1, 72, 0
5, 44340, Note_on_c, 1, 73, 88
5, 44398, Note_off_c, 1, 73, 0
5, 44400, Note_on_c, 1, 72, 88
5, 44458, Note_off_c, 1, 72, 0
5, 44460, Note_on_c, 1, 70, 88
5, 44518, Note_off_c, 1, 70, 0
5, 44520, Note_on_c, 1, 68, 88
5, 44578, Note_off_c, 1, 68, 0
5, 44580, Note_on_c, 1, 67, 88
5, 44638, Note_off_c, 1, 67, 0
5, 44640, Note_on_c, 1, 65, 88
5, 44756, Note_off_c, 1, 65, 0
5, 44760, Note_on_c, 1, 67, 88
5, 44818, Note_off_c, 1, 67, 0
5, 44820, Note_on_c, 1, 68, 88
5, 44878, Note_off_c, 1, 68, 0
5, 44880, Note_on_c, 1, 70, 88
5, 44938, Note_off_c, 1, 70, 0
5, 44940, Note_on_c, 1, 68, 88
5, 44998, Note_off_c, 1, 68, 0
5, 45000, Note_on_c, 1, 67, 88
5, 45058, Note_off_c, 1, 67, 0
5, 45060, Note_on_c, 1, 65, 88
5, 45118, Note_off_c, 1, 65, 0
5, 45120, Note_on_c, 1, 63, 88
5, 45178, Note_off_c, 1, 63, 0
5, 45180, Note_on_c, 1, 62, 88
5, 45238, Note_off_c, 1, 62, 0
5, 45240, Note_on_c, 1, 60, 88
5, 45298, Note_off_c, 1, 60, 0
5, 45300, Note_on_c, 1, 58, 88
5, 45358, Note_off_c, 1, 58, 0
5, 45360, Note_on_c, 1, 63, 88
5, 45462, Note_off_c, 1, 63, 0
5, 45480, Note_on_c, 1, 63, 88
5, 45582, Note_off_c, 1, 63, 0
5, 45600, Note_on_c, 1, 63, 88
5, 45834, Note_off_c, 1, 63, 0
5, 45840, Note_on_c, 1, 62, 88
5, 46074, Note_off_c, 1, 62, 0
5, 46080, Note_on_c, 1, 60, 88
5, 46550, Note_off_c, 1, 60, 0
5, 46620, Note_on_c, 1, 65, 88
5, 46678, Note_off_c, 1, 65, 0
5, 46680, Note_on_c, 1, 67, 88
5, 46738, Note_off_c, 1, 67, 0
5, 46740, Note_on_c, 1, 68, 88
5, 46798, Note_off_c, 1, 68, 0
5, 46800, Note_on_c, 1, 67, 88
5, 46858, Note_off_c, 1, 67, 0
5, 46860, Note_on_c, 1, 65, 88
5, 46918, Note_off_c, 1, 65, 0
5, 46920, Note_on_c, 1, 63, 88
5, 46978, Note_off_c, 1, 63, 0
5, 46980, Note_on_c, 1, 62, 88
5, 47038, Note_off_c, 1, 62, 0
5, 47040, Note_on_c, 1, 60, 88
5, 47156, Note_off_c, 1, 60, 0
5, 47160, Note_on_c, 1, 62, 88
5, 47218, Note_off_c, 1, 62, 0
5, 47220, Note_on_c, 1, 63, 88
5, 47278, Note_off_c, 1, 63, 0
5, 47280, Note_on_c, 1, 65, 88
5, 47338, Note_off_c, 1, 65, 0
5, 47340, Note_on_c, 1, 63, 88
5, 47398, Note_off_c, 1, 63, 0
5, 47400, Note_on_c, 1, 62, 88
5, 47458, Note_off_c, 1, 62, 0
5, 47460, Note_on_c, 1, 60, 88
5, 47518, Note_off_c, 1, 60, 0
5, 47520, Note_on_c, 1, 58, 88
5, 47578, Note_off_c, 1, 58, 0
5, 47580, Note_on_c, 1, 56, 88
5, 47638, Note_off_c, 1, 56, 0
5, 47640, Note_on_c, 1, 55, 88
5, 47698, Note_off_c, 1, 55, 0
5, 47700, Note_on_c, 1, 53, 88
5, 47758, Note_off_c, 1, 53, 0
5, 47760, Note_on_c, 1, 58, 88
5, 47862, Note_off_c, 1, 58, 0
5, 47880, Note_on_c, 1, 58, 88
5, 47996, Note_off_c, 1, 58, 0
5, 48000, Note_on_c, 1, 58, 88
5, 48058, Note_off_c, 1, 58, 0
5, 48060, Note_on_c, 1, 55, 88
5, 48118, Note_off_c, 1, 55, 0
5, 48120, Note_on_c, 1, 57, 88
5, 48178, Note_off_c, 1, 57, 0
5, 48180, Note_on_c, 1, 58, 88
5, 48238, Note_off_c, 1, 58, 0
5, 48240, Note_on_c, 1, 57, 88
5, 48522, Note_off_c, 1, 57, 0
5, 48540, Note_on_c, 1, 57, 88
5, 48598, Note_off_c, 1, 57, 0
5, 48600, Note_on_c, 1, 59, 88
5, 48658, Note_off_c, 1, 59, 0
5, 48660, Note_on_c, 1, 60, 88
5, 48718, Note_off_c, 1, 60, 0
5, 48720, Note_on_c, 1, 59, 88
5, 49062, Note_off_c, 1, 59, 0
5, 49080, Note_on_c, 1, 59, 88
5, 49196, Note_off_c, 1, 59, 0
5, 49200, Note_on_c, 1, 60, 88
5, 49316, Note_off_c, 1, 60, 0
5, 49320, Note_on_c, 1, 62, 88
5, 49436, Note_off_c, 1, 62, 0
5, 49440, Note_on_c, 1, 63, 88
5, 49962, Note_off_c, 1, 63, 0
5, 49980, Note_on_c, 1, 63, 88
5, 50038, Note_off_c, 1, 63, 0
5, 50040, Note_on_c, 1, 65, 88
5, 50098, Note_off_c, 1, 65, 0
5, 50100, Note_on_c, 1, 67, 88
5, 50158, Note_off_c, 1, 67, 0
5, 50160, Note_on_c, 1, 65, 88
5, 50394, Note_off_c, 1, 65, 0
5, 50400, Note_on_c, 1, 67, 88
5, 50870, Note_off_c, 1, 67, 0
5, 51360, Note_on_c, 1, 62, 88
5, 51594, Note_off_c, 1, 62, 0
5, 51600, Note_on_c, 1, 67, 88
5, 52074, Note_off_c, 1, 67, 0
5, 52080, Note_on_c, 1, 65, 88
5, 52314, Note_off_c, 1, 65, 0
5, 52320, Note_on_c, 1, 70, 88
5, 52916, Note_off_c, 1, 70, 0
5, 52920, Note_on_c, 1, 68, 88
5, 53036, Note_off_c, 1, 68, 0
5, 53040, Note_on_c, 1, 73, 88
5, 53510, Note_off_c, 1, 73, 0
5, 53520, Note_on_c, 1, 72, 88
5, 53754, Note_off_c, 1, 72, 0
5, 53760, Note_on_c, 1, 77, 88
5, 54230, Note_off_c, 1, 77, 0
5, 54240, Note_on_c, 1, 75, 88
5, 54522, Note_off_c, 1, 75, 0
5, 54540, Note_on_c, 1, 75, 88
5, 54598, Note_off_c, 1, 75, 0
5, 54600, Note_on_c, 1, 77, 88
5, 54658, Note_off_c, 1, 77, 0
5, 54660, Note_on_c, 1, 78, 88
5, 54718, Note_off_c, 1, 78, 0
5, 54720, Note_on_c, 1, 77, 88
5, 54778, Note_off_c, 1, 77, 0
5, 54780, Note_on_c, 1, 75, 88
5, 54838, Note_off_c, 1, 75, 0
5, 54840, Note_on_c, 1, 73, 88
5, 54898, Note_off_c, 1, 73, 0
5, 54900, Note_on_c, 1, 72, 88
5, 54958, Note_off_c, 1, 72, 0
5, 54960, Note_on_c, 1, 70, 88
5, 55194, Note_off_c, 1, 70, 0
5, 55260, Note_on_c, 1, 70, 88
5, 55318, Note_off_c, 1, 70, 0
5, 55320, Note_on_c, 1, 72, 88
5, 55378, Note_off_c, 1, 72, 0
5, 55380, Note_on_c, 1, 73, 88
5, 55438, Note_off_c, 1, 73, 0
5, 55440, Note_on_c, 1, 72, 88
5, 55498, Note_off_c, 1, 72, 0
5, 55500, Note_on_c, 1, 70, 88
5, 55558, Note_off_c, 1, 70, 0
5, 55560, Note_on_c, 1, 68, 88
5, 55618, Note_off_c, 1, 68, 0
5, 55620, Note_on_c, 1, 67, 88
5, 55678, Note_off_c, 1, 67, 0
5, 55680, Note_on_c, 1, 65, 88
5, 55796, Note_off_c, 1, 65, 0
5, 55800, Note_on_c, 1, 67, 88
5, 55858, Note_off_c, 1, 67, 0
5, 55860, Note_on_c, 1, 68, 88
5, 55918, Note_off_c, 1, 68, 0
5, 55920, Note_on_c, 1, 70, 88
5, 55978, Note_off_c, 1, 70, 0
5, 55980, Note_on_c, 1, 68, 88
5, 56038, Note_off_c, 1, 68, 0
5, 56040, Note_on_c, 1, 67, 88
5, 56098, Note_off_c, 1, 67, 0
5, 56100, Note_on_c, 1, 65, 88
5, 56158, Note_off_c, 1, 65, 0
5, 56160, Note_on_c, 1, 63, 88
5, 56276, Note_off_c, 1, 63, 0
5, 56280, Note_on_c, 1, 65, 88
5, 56338, Note_off_c, 1, 65, 0
5, 56340, Note_on_c, 1, 67, 88
5, 56398, Note_off_c, 1, 67, 0
5, 56400, Note_on_c, 1, 68, 88
5, 56502, Note_off_c, 1, 68, 0
5, 56520, Note_on_c, 1, 68, 88
5, 56636, Note_off_c, 1, 68, 0
5, 56640, Note_on_c, 1, 68, 88
5, 56698, Note_off_c, 1, 68, 0
5, 56700, Note_on_c, 1, 67, 88
5, 56758, Note_off_c, 1, 67, 0
5, 56760, Note_on_c, 1, 68, 88
5, 56818, Note_off_c, 1, 68, 0
5, 56820, Note_on_c, 1, 70, 88
5, 56878, Note_off_c, 1, 70, 0
5, 56880, Note_on_c, 1, 72, 88
5, 57350, Note_off_c, 1, 72, 0
5, 57360, Note_on_c, 1, 70, 88
5, 57594, Note_off_c, 1, 70, 0
5, 57600, Note_on_c, 1, 75, 88
5, 58070, Note_off_c, 1, 75, 0
5, 58080, Note_on_c, 1, 74, 88
5, 58314, Note_off_c, 1, 74, 0
5, 58320, Note_on_c, 1, 75, 88
5, 58554, Note_off_c, 1, 75, 0
5, 58560, Note_on_c, 1, 72, 88
5, 58794, Note_off_c, 1, 72, 0
5, 59340, Note_on_c, 1, 67, 88
5, 59398, Note_off_c, 1, 67, 0
5, 59400, Note_on_c, 1, 68, 88
5, 59458, Note_off_c, 1, 68, 0
5, 59460, Note_on_c, 1, 70, 88
5, 59518, Note_off_c, 1, 70, 0
5, 59520, Note_on_c, 1, 68, 88
5, 59578, Note_off_c, 1, 68, 0
5, 59580, Note_on_c, 1, 67, 88
5, 59638, Note_off_c, 1, 67, 0
5, 59640, Note_on_c, 1, 65, 88
5, 59698, Note_off_c, 1, 65, 0
5, 59700, Note_on_c, 1, 63, 88
5, 59758, Note_off_c, 1, 63, 0
5, 59760, Note_on_c, 1, 65, 88
5, 60042, Note_off_c, 1, 65, 0
5, 60060, Note_on_c, 1, 65, 88
5, 60118, Note_off_c, 1, 65, 0
5, 60120, Note_on_c, 1, 67, 88
5, 60178, Note_off_c, 1, 67, 0
5, 60180, Note_on_c, 1, 68, 88
5, 60238, Note_off_c, 1, 68, 0
5, 60240, Note_on_c, 1, 67, 88
5, 60298, Note_off_c, 1, 67, 0
5, 60300, Note_on_c, 1, 65, 88
5, 60358, Note_off_c, 1, 65, 0
5, 60360, Note_on_c, 1, 63, 88
5, 60418, Note_off_c, 1, 63, 0
5, 60420, Note_on_c, 1, 61, 88
5, 60478, Note_off_c, 1, 61, 0
5, 60480, Note_on_c, 1, 60, 88
5, 60714, Note_off_c, 1, 60, 0
5, 60720, Note_on_c, 1, 65, 88
5, 61190, Note_off_c, 1, 65, 0
5, 61200, Note_on_c, 1, 63, 88
5, 61434, Note_off_c, 1, 63, 0
5, 61440, Note_on_c, 1, 68, 88
5, 62148, Note_off_c, 1, 68, 0
5, 62160, Note_on_c, 1, 67, 88
5, 62394, Note_off_c, 1, 67, 0
5, 62400, Note_on_c, 1, 65, 88
5, 62634, Note_off_c, 1, 65, 0
5, 62640, Note_on_c, 1, 70, 88
5, 63110, Note_off_c, 1, 70, 0
5, 63120, Note_on_c, 1, 69, 88
5, 63354, Note_off_c, 1, 69, 0
5, 63360, Note_on_c, 1, 74, 88
5, 63594, Note_off_c, 1, 74, 0
5, 63600, Note_on_c, 1, 70, 88
5, 63822, Note_off_c, 1, 70, 0
5, 63840, Note_on_c, 1, 70, 88
5, 64193, Note_off_c, 1, 70, 0
5, 64200, Note_on_c, 1, 68, 88
5, 64316, Note_off_c, 1, 68, 0
5, 64320, Note_on_c, 1, 67, 88
5, 64378, Note_off_c, 1, 67, 0
5, 64380, Note_on_c, 1, 70, 88
5, 64438, Note_off_c, 1, 70, 0
5, 64440, Note_on_c, 1, 72, 88
5, 64498, Note_off_c, 1, 72, 0
5, 64500, Note_on_c, 1, 73, 88
5, 64558, Note_off_c, 1, 73, 0
5, 64560, Note_on_c, 1, 72, 88
5, 64618, Note_off_c, 1, 72, 0
5, 64620, Note_on_c, 1, 70, 88
5, 64678, Note_off_c, 1, 70, 0
5, 64680, Note_on_c, 1, 68, 88
5, 64738, Note_off_c, 1, 68, 0
5, 64740, Note_on_c, 1, 67, 88
5, 64798, Note_off_c, 1, 67, 0
5, 64800, Note_on_c, 1, 65, 88
5, 64916, Note_off_c, 1, 65, 0
5, 64920, Note_on_c, 1, 67, 88
5, 64978, Note_off_c, 1, 67, 0
5, 64980, Note_on_c, 1, 68, 88
5, 65038, Note_off_c, 1, 68, 0
5, 65040, Note_on_c, 1, 70, 88
5, 65098, Note_off_c, 1, 70, 0
5, 65100, Note_on_c, 1, 68, 88
5, 65158, Note_off_c, 1, 68, 0
5, 65160, Note_on_c, 1, 67, 88
5, 65218, Note_off_c, 1, 67, 0
5, 65220, Note_on_c, 1, 65, 88
5, 65278, Note_off_c, 1, 65, 0
5, 65280, Note_on_c, 1, 63, 88
5, 65514, Note_off_c, 1, 63, 0
5, 65520, Note_on_c, 1, 68, 88
5, 65802, Note_off_c, 1, 68, 0
5, 65820, Note_on_c, 1, 68, 88
5, 65878, Note_off_c, 1, 68, 0
5, 65880, Note_on_c, 1, 70, 88
5, 65938, Note_off_c, 1, 70, 0
5, 65940, Note_on_c, 1, 71, 88
5, 65998, Note_off_c, 1, 71, 0
5, 66000, Note_on_c, 1, 70, 88
5, 66058, Note_off_c, 1, 70, 0
5, 66060, Note_on_c, 1, 68, 88
5, 66118, Note_off_c, 1, 68, 0
5, 66120, Note_on_c, 1, 67, 88
5, 66178, Note_off_c, 1, 67, 0
5, 66180, Note_on_c, 1, 68, 88
5, 66209, Note_off_c, 1, 68, 0
5, 66210, Note_on_c, 1, 65, 88
5, 66239, Note_off_c, 1, 65, 0
5, 66240, Note_on_c, 1, 67, 88
5, 67185, Note_off_c, 1, 67, 0
5, 67185, End_track
6, 0, Start_track
6, 0, Title_t, "Track 3"
6, 0, Program_c, 2, 6
6, 540, Note_on_c, 2, 55, 88
6, 598, Note_off_c, 2, 55, 0
6, 600, Note_on_c, 2, 56, 88
6, 658, Note_off_c, 2, 56, 0
6, 660, Note_on_c, 2, 58, 88
6, 718, Note_off_c, 2, 58, 0
6, 720, Note_on_c, 2, 56, 88
6, 778, Note_off_c, 2, 56, 0
6, 780, Note_on_c, 2, 55, 88
6, 838, Note_off_c, 2, 55, 0
6, 840, Note_on_c, 2, 53, 88
6, 898, Note_off_c, 2, 53, 0
6, 900, Note_on_c, 2, 51, 88
6, 958, Note_off_c, 2, 51, 0
6, 960, Note_on_c, 2, 56, 88
6, 1482, Note_off_c, 2, 56, 0
6, 1500, Note_on_c, 2, 56, 88
6, 1558, Note_off_c, 2, 56, 0
6, 1560, Note_on_c, 2, 58, 88
6, 1618, Note_off_c, 2, 58, 0
6, 1620, Note_on_c, 2, 60, 88
6, 1678, Note_off_c, 2, 60, 0
6, 1680, Note_on_c, 2, 58, 88
6, 1738, Note_off_c, 2, 58, 0
6, 1740, Note_on_c, 2, 56, 88
6, 1798, Note_off_c, 2, 56, 0
6, 1800, Note_on_c, 2, 55, 88
6, 1858, Note_off_c, 2, 55, 0
6, 1860, Note_on_c, 2, 53, 88
6, 1918, Note_off_c, 2, 53, 0
6, 1920, Note_on_c, 2, 62, 88
6, 2442, Note_off_c, 2, 62, 0
6, 2460, Note_on_c, 2, 62, 88
6, 2518, Note_off_c, 2, 62, 0
6, 2520, Note_on_c, 2, 63, 88
6, 2578, Note_off_c, 2, 63, 0
6, 2580, Note_on_c, 2, 65, 88
6, 2638, Note_off_c, 2, 65, 0
6, 2640, Note_on_c, 2, 63, 88
6, 2698, Note_off_c, 2, 63, 0
6, 2700, Note_on_c, 2, 62, 88
6, 2758, Note_off_c, 2, 62, 0
6, 2760, Note_on_c, 2, 60, 88
6, 2818, Note_off_c, 2, 60, 0
6, 2820, Note_on_c, 2, 58, 88
6, 2878, Note_off_c, 2, 58, 0
6, 2880, Note_on_c, 2, 63, 88
6, 3402, Note_off_c, 2, 63, 0
6, 3420, Note_on_c, 2, 63, 88
6, 3478, Note_off_c, 2, 63, 0
6, 3480, Note_on_c, 2, 65, 88
6, 3538, Note_off_c, 2, 65, 0
6, 3540, Note_on_c, 2, 67, 88
6, 3598, Note_off_c, 2, 67, 0
6, 3600, Note_on_c, 2, 65, 88
6, 3658, Note_off_c, 2, 65, 0
6, 3660, Note_on_c, 2, 63, 88
6, 3718, Note_off_c, 2, 63, 0
6, 3720, Note_on_c, 2, 62, 88
6, 3778, Note_off_c, 2, 62, 0
6, 3780, Note_on_c, 2, 60, 88
6, 3838, Note_off_c, 2, 60, 0
6, 3840, Note_on_c, 2, 58, 88
6, 3898, Note_off_c, 2, 58, 0
6, 3900, Note_on_c, 2, 60, 88
6, 3958, Note_off_c, 2, 60, 0
6, 3960, Note_on_c, 2, 62, 88
6, 4018, Note_off_c, 2, 62, 0
6, 4020, Note_on_c, 2, 63, 88
6, 4078, Note_off_c, 2, 63, 0
6, 4080, Note_on_c, 2, 62, 88
6, 4138, Note_off_c, 2, 62, 0
6, 4140, Note_on_c, 2, 60, 88
6, 4198, Note_off_c, 2, 60, 0
6, 4200, Note_on_c, 2, 58, 88
6, 4258, Note_off_c, 2, 58, 0
6, 4260, Note_on_c, 2, 56, 88
6, 4318, Note_off_c, 2, 56, 0
6, 4320, Note_on_c, 2, 55, 88
6, 4378, Note_off_c, 2, 55, 0
6, 4380, Note_on_c, 2, 51, 88
6, 4438, Note_off_c, 2, 51, 0
6, 4440, Note_on_c, 2, 53, 88
6, 4498, Note_off_c, 2, 53, 0
6, 4500, Note_on_c, 2, 55, 88
6, 4558, Note_off_c, 2, 55, 0
6, 4560, Note_on_c, 2, 53, 88
6, 4618, Note_off_c, 2, 53, 0
6, 4620, Note_on_c, 2, 51, 88
6, 4678, Note_off_c, 2, 51, 0
6, 4680, Note_on_c, 2, 50, 88
6, 4738, Note_off_c, 2, 50, 0
6, 4740, Note_on_c, 2, 48, 88
6, 4798, Note_off_c, 2, 48, 0
6, 4800, Note_on_c, 2, 53, 88
6, 4858, Note_off_c, 2, 53, 0
6, 4860, Note_on_c, 2, 48, 88
6, 4918, Note_off_c, 2, 48, 0
6, 4920, Note_on_c, 2, 50, 88
6, 4978, Note_off_c, 2, 50, 0
6, 4980, Note_on_c, 2, 51, 88
6, 5038, Note_off_c, 2, 51, 0
6, 5040, Note_on_c, 2, 50, 88
6, 5098, Note_off_c, 2, 50, 0
6, 5100, Note_on_c, 2, 48, 88
6, 5158, Note_off_c, 2, 48, 0
6, 5160, Note_on_c, 2, 46, 88
6, 5218, Note_off_c, 2, 46, 0
6, 5220, Note_on_c, 2, 45, 88
6, 5278, Note_off_c, 2, 45, 0
6, 5280, Note_on_c, 2, 50, 88
6, 5338, Note_off_c, 2, 50, 0
6, 5340, Note_on_c, 2, 46, 88
6, 5398, Note_off_c, 2, 46, 0
6, 5400, Note_on_c, 2, 48, 88
6, 5458, Note_off_c, 2, 48, 0
6, 5460, Note_on_c, 2, 50, 88
6, 5518, Note_off_c, 2, 50, 0
6, 5520, Note_on_c, 2, 48, 88
6, 5578, Note_off_c, 2, 48, 0
6, 5580, Note_on_c, 2, 46, 88
6, 5638, Note_off_c, 2, 46, 0
6, 5640, Note_on_c, 2, 45, 88
6, 5698, Note_off_c, 2, 45, 0
6, 5700, Note_on_c, 2, 43, 88
6, 5758, Note_off_c, 2, 43, 0
6, 5820, Note_on_c, 2, 51, 88
6, 5878, Note_off_c, 2, 51, 0
6, 5880, Note_on_c, 2, 53, 88
6, 5938, Note_off_c, 2, 53, 0
6, 5940, Note_on_c, 2, 55, 88
6, 5998, Note_off_c, 2, 55, 0
6, 6000, Note_on_c, 2, 53, 88
6, 6058, Note_off_c, 2, 53, 0
6, 6060, Note_on_c, 2, 51, 88
6, 6118, Note_off_c, 2, 51, 0
6, 6120, Note_on_c, 2, 50, 88
6, 6178, Note_off_c, 2, 50, 0
6, 6180, Note_on_c, 2, 48, 88
6, 6238, Note_off_c, 2, 48, 0
6, 6240, Note_on_c, 2, 57, 88
6, 6710, Note_off_c, 2, 57, 0
6, 6720, Note_on_c, 2, 58, 88
6, 7665, Note_off_c, 2, 58, 0
6, 7680, Note_on_c, 2, 57, 88
6, 8625, Note_off_c, 2, 57, 0
6, 8640, Note_on_c, 2, 58, 88
6, 8874, Note_off_c, 2, 58, 0
6, 8880, Note_on_c, 2, 63, 88
6, 9350, Note_off_c, 2, 63, 0
6, 9360, Note_on_c, 2, 62, 88
6, 9594, Note_off_c, 2, 62, 0
6, 9600, Note_on_c, 2, 60, 88
6, 10070, Note_off_c, 2, 60, 0
6, 10080, Note_on_c, 2, 58, 88
6, 10314, Note_off_c, 2, 58, 0
6, 10320, Note_on_c, 2, 60, 88
6, 10554, Note_off_c, 2, 60, 0
6, 10560, Note_on_c, 2, 62, 88
6, 10794, Note_off_c, 2, 62, 0
6, 10800, Note_on_c, 2, 63, 88
6, 11034, Note_off_c, 2, 63, 0
6, 11040, Note_on_c, 2, 61, 88
6, 11274, Note_off_c, 2, 61, 0
6, 11280, Note_on_c, 2, 60, 88
6, 11514, Note_off_c, 2, 60, 0
6, 11520, Note_on_c, 2, 58, 88
6, 11990, Note_off_c, 2, 58, 0
6, 12000, Note_on_c, 2, 63, 88
6, 12470, Note_off_c, 2, 63, 0
6, 12480, Note_on_c, 2, 65, 88
6, 12714, Note_off_c, 2, 65, 0
6, 12720, Note_on_c, 2, 63, 88
6, 13190, Note_off_c, 2, 63, 0
6, 13200, Note_on_c, 2, 68, 88
6, 13674, Note_off_c, 2, 68, 0
6, 13680, Note_on_c, 2, 67, 88
6, 13914, Note_off_c, 2, 67, 0
6, 13920, Note_on_c, 2, 65, 88
6, 14390, Note_off_c, 2, 65, 0
6, 14400, Note_on_c, 2, 60, 88
6, 14870, Note_off_c, 2, 60, 0
6, 14880, Note_on_c, 2, 62, 88
6, 15114, Note_off_c, 2, 62, 0
6, 15120, Note_on_c, 2, 63, 88
6, 15354, Note_off_c, 2, 63, 0
6, 15360, Note_on_c, 2, 65, 88
6, 15476, Note_off_c, 2, 65, 0
6, 15480, Note_on_c, 2, 63, 88
6, 15596, Note_off_c, 2, 63, 0
6, 15600, Note_on_c, 2, 62, 88
6, 15834, Note_off_c, 2, 62, 0
6, 15840, Note_on_c, 2, 63, 88
6, 16074, Note_off_c, 2, 63, 0
6, 16080, Note_on_c, 2, 65, 88
6, 16314, Note_off_c, 2, 65, 0
6, 16320, Note_on_c, 2, 58, 88
6, 16782, Note_off_c, 2, 58, 0
6, 16800, Note_on_c, 2, 58, 88
6, 17514, Note_off_c, 2, 58, 0
6, 17520, Note_on_c, 2, 63, 88
6, 17636, Note_off_c, 2, 63, 0
6, 17640, Note_on_c, 2, 62, 88
6, 17756, Note_off_c, 2, 62, 0
6, 17760, Note_on_c, 2, 60, 88
6, 17994, Note_off_c, 2, 60, 0
6, 18000, Note_on_c, 2, 62, 88
6, 18116, Note_off_c, 2, 62, 0
6, 18120, Note_on_c, 2, 60, 88
6, 18236, Note_off_c, 2, 60, 0
6, 18240, Note_on_c, 2, 58, 88
6, 18356, Note_off_c, 2, 58, 0
6, 18360, Note_on_c, 2, 57, 88
6, 18476, Note_off_c, 2, 57, 0
6, 18480, Note_on_c, 2, 58, 88
6, 18714, Note_off_c, 2, 58, 0
6, 18720, Note_on_c, 2, 60, 88
6, 18954, Note_off_c, 2, 60, 0
6, 18960, Note_on_c, 2, 62, 88
6, 19076, Note_off_c, 2, 62, 0
6, 19080, Note_on_c, 2, 63, 88
6, 19196, Note_off_c, 2, 63, 0
6, 19200, Note_on_c, 2, 65, 88
6, 19553, Note_off_c, 2, 65, 0
6, 19560, Note_on_c, 2, 63, 88
6, 19676, Note_off_c, 2, 63, 0
6, 19680, Note_on_c, 2, 62, 88
6, 19796, Note_off_c, 2, 62, 0
6, 19800, Note_on_c, 2, 58, 88
6, 19916, Note_off_c, 2, 58, 0
6, 19920, Note_on_c, 2, 63, 88
6, 20394, Note_off_c, 2, 63, 0
6, 20400, Note_on_c, 2, 58, 88
6, 21354, Note_off_c, 2, 58, 0
6, 21360, Note_on_c, 2, 56, 88
6, 21476, Note_off_c, 2, 56, 0
6, 21480, Note_on_c, 2, 55, 88
6, 21596, Note_off_c, 2, 55, 0
6, 21600, Note_on_c, 2, 53, 88
6, 21834, Note_off_c, 2, 53, 0
6, 21840, Note_on_c, 2, 55, 88
6, 21956, Note_off_c, 2, 55, 0
6, 21960, Note_on_c, 2, 53, 88
6, 22076, Note_off_c, 2, 53, 0
6, 22080, Note_on_c, 2, 51, 88
6, 22433, Note_off_c, 2, 51, 0
6, 22440, Note_on_c, 2, 53, 88
6, 22556, Note_off_c, 2, 53, 0
6, 22560, Note_on_c, 2, 55, 88
6, 22794, Note_off_c, 2, 55, 0
6, 22800, Note_on_c, 2, 53, 88
6, 22916, Note_off_c, 2, 53, 0
6, 22920, Note_on_c, 2, 51, 88
6, 23036, Note_off_c, 2, 51, 0
6, 23040, Note_on_c, 2, 53, 88
6, 23274, Note_off_c, 2, 53, 0
6, 24960, Note_on_c, 2, 51, 88
6, 25194, Note_off_c, 2, 51, 0
6, 25200, Note_on_c, 2, 56, 88
6, 25670, Note_off_c, 2, 56, 0
6, 25680, Note_on_c, 2, 55, 88
6, 25914, Note_off_c, 2, 55, 0
6, 25920, Note_on_c, 2, 60, 88
6, 26390, Note_off_c, 2, 60, 0
6, 26400, Note_on_c, 2, 58, 88
6, 26694, Note_off_c, 2, 58, 0
6, 26700, Note_on_c, 2, 62, 88
6, 26758, Note_off_c, 2, 62, 0
6, 26760, Note_on_c, 2, 63, 88
6, 26818, Note_off_c, 2, 63, 0
6, 26820, Note_on_c, 2, 65, 88
6, 26878, Note_off_c, 2, 65, 0
6, 26880, Note_on_c, 2, 63, 88
6, 26938, Note_off_c, 2, 63, 0
6, 26940, Note_on_c, 2, 62, 88
6, 26998, Note_off_c, 2, 62, 0
6, 27000, Note_on_c, 2, 60, 88
6, 27058, Note_off_c, 2, 60, 0
6, 27060, Note_on_c, 2, 58, 88
6, 27118, Note_off_c, 2, 58, 0
6, 27120, Note_on_c, 2, 63, 88
6, 27236, Note_off_c, 2, 63, 0
6, 27240, Note_on_c, 2, 60, 88
6, 27356, Note_off_c, 2, 60, 0
6, 27360, Note_on_c, 2, 65, 88
6, 27642, Note_off_c, 2, 65, 0
6, 27660, Note_on_c, 2, 65, 88
6, 27718, Note_off_c, 2, 65, 0
6, 27720, Note_on_c, 2, 67, 88
6, 27778, Note_off_c, 2, 67, 0
6, 27780, Note_on_c, 2, 68, 88
6, 27838, Note_off_c, 2, 68, 0
6, 27840, Note_on_c, 2, 67, 88
6, 27898, Note_off_c, 2, 67, 0
6, 27900, Note_on_c, 2, 65, 88
6, 27958, Note_off_c, 2, 65, 0
6, 27960, Note_on_c, 2, 63, 88
6, 28018, Note_off_c, 2, 63, 0
6, 28020, Note_on_c, 2, 62, 88
6, 28078, Note_off_c, 2, 62, 0
6, 28080, Note_on_c, 2, 67, 88
6, 28314, Note_off_c, 2, 67, 0
6, 28320, Note_on_c, 2, 65, 88
6, 29034, Note_off_c, 2, 65, 0
6, 29040, Note_on_c, 2, 63, 88
6, 29156, Note_off_c, 2, 63, 0
6, 29160, Note_on_c, 2, 62, 88
6, 29276, Note_off_c, 2, 62, 0
6, 29280, Note_on_c, 2, 60, 88
6, 29514, Note_off_c, 2, 60, 0
6, 29520, Note_on_c, 2, 62, 88
6, 29802, Note_off_c, 2, 62, 0
6, 29820, Note_on_c, 2, 62, 88
6, 29878, Note_off_c, 2, 62, 0
6, 29880, Note_on_c, 2, 63, 88
6, 29938, Note_off_c, 2, 63, 0
6, 29940, Note_on_c, 2, 65, 88
6, 29998, Note_off_c, 2, 65, 0
6, 30000, Note_on_c, 2, 63, 88
6, 30058, Note_off_c, 2, 63, 0
6, 30060, Note_on_c, 2, 62, 88
6, 30118, Note_off_c, 2, 62, 0
6, 30120, Note_on_c, 2, 60, 88
6, 30178, Note_off_c, 2, 60, 0
6, 30180, Note_on_c, 2, 58, 88
6, 30238, Note_off_c, 2, 58, 0
6, 30240, Note_on_c, 2, 60, 88
6, 31428, Note_off_c, 2, 60, 0
6, 31440, Note_on_c, 2, 58, 88
6, 31738, Note_off_c, 2, 58, 0
6, 31740, Note_on_c, 2, 55, 88
6, 31798, Note_off_c, 2, 55, 0
6, 31800, Note_on_c, 2, 57, 88
6, 31858, Note_off_c, 2, 57, 0
6, 31860, Note_on_c, 2, 58, 88
6, 31918, Note_off_c, 2, 58, 0
6, 31920, Note_on_c, 2, 57, 88
6, 31978, Note_off_c, 2, 57, 0
6, 31980, Note_on_c, 2, 55, 88
6, 32038, Note_off_c, 2, 55, 0
6, 32040, Note_on_c, 2, 54, 88
6, 32098, Note_off_c, 2, 54, 0
6, 32100, Note_on_c, 2, 55, 88
6, 32158, Note_off_c, 2, 55, 0
6, 32160, Note_on_c, 2, 54, 88
6, 32276, Note_off_c, 2, 54, 0
6, 32280, Note_on_c, 2, 55, 88
6, 32514, Note_off_c, 2, 55, 0
6, 32520, Note_on_c, 2, 54, 88
6, 32636, Note_off_c, 2, 54, 0
6, 32700, Note_on_c, 2, 55, 88
6, 32758, Note_off_c, 2, 55, 0
6, 32760, Note_on_c, 2, 56, 88
6, 32818, Note_off_c, 2, 56, 0
6, 32820, Note_on_c, 2, 58, 88
6, 32878, Note_off_c, 2, 58, 0
6, 32880, Note_on_c, 2, 56, 88
6, 32938, Note_off_c, 2, 56, 0
6, 32940, Note_on_c, 2, 55, 88
6, 32998, Note_off_c, 2, 55, 0
6, 33000, Note_on_c, 2, 53, 88
6, 33058, Note_off_c, 2, 53, 0
6, 33060, Note_on_c, 2, 51, 88
6, 33118, Note_off_c, 2, 51, 0
6, 33120, Note_on_c, 2, 58, 88
6, 33354, Note_off_c, 2, 58, 0
6, 33660, Note_on_c, 2, 58, 88
6, 33718, Note_off_c, 2, 58, 0
6, 33720, Note_on_c, 2, 60, 88
6, 33778, Note_off_c, 2, 60, 0
6, 33780, Note_on_c, 2, 61, 88
6, 33838, Note_off_c, 2, 61, 0
6, 33840, Note_on_c, 2, 60, 88
6, 33898, Note_off_c, 2, 60, 0
6, 33900, Note_on_c, 2, 58, 88
6, 33958, Note_off_c, 2, 58, 0
6, 33960, Note_on_c, 2, 56, 88
6, 34018, Note_off_c, 2, 56, 0
6, 34020, Note_on_c, 2, 55, 88
6, 34078, Note_off_c, 2, 55, 0
6, 34080, Note_on_c, 2, 56, 88
6, 34196, Note_off_c, 2, 56, 0
6, 34200, Note_on_c, 2, 58, 88
6, 34258, Note_off_c, 2, 58, 0
6, 34260, Note_on_c, 2, 60, 88
6, 34318, Note_off_c, 2, 60, 0
6, 34320, Note_on_c, 2, 58, 88
6, 34436, Note_off_c, 2, 58, 0
6, 34440, Note_on_c, 2, 56, 88
6, 34556, Note_off_c, 2, 56, 0
6, 34560, Note_on_c, 2, 55, 88
6, 34794, Note_off_c, 2, 55, 0
6, 34800, Note_on_c, 2, 56, 88
6, 35322, Note_off_c, 2, 56, 0
6, 35340, Note_on_c, 2, 56, 88
6, 35398, Note_off_c, 2, 56, 0
6, 35400, Note_on_c, 2, 55, 88
6, 35458, Note_off_c, 2, 55, 0
6, 35460, Note_on_c, 2, 53, 88
6, 35518, Note_off_c, 2, 53, 0
6, 35520, Note_on_c, 2, 55, 88
6, 35990, Note_off_c, 2, 55, 0
6, 36000, Note_on_c, 2, 53, 88
6, 36234, Note_off_c, 2, 53, 0
6, 36480, Note_on_c, 2, 50, 88
6, 36714, Note_off_c, 2, 50, 0
6, 36720, Note_on_c, 2, 55, 88
6, 37190, Note_off_c, 2, 55, 0
6, 37200, Note_on_c, 2, 51, 88
6, 37434, Note_off_c, 2, 51, 0
6, 37440, Note_on_c, 2, 56, 88
6, 37910, Note_off_c, 2, 56, 0
6, 37920, Note_on_c, 2, 55, 88
6, 38154, Note_off_c, 2, 55, 0
6, 38160, Note_on_c, 2, 60, 88
6, 38753, Note_off_c, 2, 60, 0
6, 38760, Note_on_c, 2, 59, 88
6, 38876, Note_off_c, 2, 59, 0
6, 38880, Note_on_c, 2, 60, 88
6, 39114, Note_off_c, 2, 60, 0
6, 39360, Note_on_c, 2, 58, 88
6, 39594, Note_off_c, 2, 58, 0
6, 39600, Note_on_c, 2, 63, 88
6, 40070, Note_off_c, 2, 63, 0
6, 40080, Note_on_c, 2, 62, 88
6, 40314, Note_off_c, 2, 62, 0
6, 40320, Note_on_c, 2, 67, 88
6, 40790, Note_off_c, 2, 67, 0
6, 40800, Note_on_c, 2, 65, 88
6, 41338, Note_off_c, 2, 65, 0
6, 41340, Note_on_c, 2, 58, 88
6, 41398, Note_off_c, 2, 58, 0
6, 41400, Note_on_c, 2, 60, 88
6, 41458, Note_off_c, 2, 60, 0
6, 41460, Note_on_c, 2, 61, 88
6, 41518, Note_off_c, 2, 61, 0
6, 41520, Note_on_c, 2, 60, 88
6, 41578, Note_off_c, 2, 60, 0
6, 41580, Note_on_c, 2, 58, 88
6, 41638, Note_off_c, 2, 58, 0
6, 41640, Note_on_c, 2, 56, 88
6, 41698, Note_off_c, 2, 56, 0
6, 41700, Note_on_c, 2, 55, 88
6, 41758, Note_off_c, 2, 55, 0
6, 41760, Note_on_c, 2, 60, 88
6, 42230, Note_off_c, 2, 60, 0
6, 42240, Note_on_c, 2, 62, 88
6, 42474, Note_off_c, 2, 62, 0
6, 42480, Note_on_c, 2, 63, 88
6, 42596, Note_off_c, 2, 63, 0
6, 42600, Note_on_c, 2, 65, 88
6, 42716, Note_off_c, 2, 65, 0
6, 42720, Note_on_c, 2, 67, 88
6, 42822, Note_off_c, 2, 67, 0
6, 42840, Note_on_c, 2, 67, 88
6, 42956, Note_off_c, 2, 67, 0
6, 42960, Note_on_c, 2, 68, 88
6, 43076, Note_off_c, 2, 68, 0
6, 43080, Note_on_c, 2, 70, 88
6, 43196, Note_off_c, 2, 70, 0
6, 43200, Note_on_c, 2, 72, 88
6, 43434, Note_off_c, 2, 72, 0
6, 44160, Note_on_c, 2, 51, 88
6, 44394, Note_off_c, 2, 51, 0
6, 44400, Note_on_c, 2, 56, 88
6, 44870, Note_off_c, 2, 56, 0
6, 44880, Note_on_c, 2, 55, 88
6, 45114, Note_off_c, 2, 55, 0
6, 45120, Note_on_c, 2, 60, 88
6, 45651, Note_off_c, 2, 60, 0
6, 45660, Note_on_c, 2, 57, 88
6, 45718, Note_off_c, 2, 57, 0
6, 45720, Note_on_c, 2, 58, 88
6, 45778, Note_off_c, 2, 58, 0
6, 45780, Note_on_c, 2, 60, 88
6, 45838, Note_off_c, 2, 60, 0
6, 45840, Note_on_c, 2, 58, 88
6, 45898, Note_off_c, 2, 58, 0
6, 45900, Note_on_c, 2, 56, 88
6, 45958, Note_off_c, 2, 56, 0
6, 45960, Note_on_c, 2, 55, 88
6, 46018, Note_off_c, 2, 55, 0
6, 46020, Note_on_c, 2, 53, 88
6, 46078, Note_off_c, 2, 53, 0
6, 46080, Note_on_c, 2, 54, 88
6, 46314, Note_off_c, 2, 54, 0
6, 46320, Note_on_c, 2, 53, 88
6, 46542, Note_off_c, 2, 53, 0
6, 46560, Note_on_c, 2, 53, 88
6, 46794, Note_off_c, 2, 53, 0
6, 49920, Note_on_c, 2, 48, 88
6, 50154, Note_off_c, 2, 48, 0
6, 50160, Note_on_c, 2, 53, 88
6, 50630, Note_off_c, 2, 53, 0
6, 50640, Note_on_c, 2, 51, 88
6, 50874, Note_off_c, 2, 51, 0
6, 50880, Note_on_c, 2, 56, 88
6, 51350, Note_off_c, 2, 56, 0
6, 51360, Note_on_c, 2, 55, 88
6, 51830, Note_off_c, 2, 55, 0
6, 51900, Note_on_c, 2, 60, 88
6, 51958, Note_off_c, 2, 60, 0
6, 51960, Note_on_c, 2, 61, 88
6, 52018, Note_off_c, 2, 61, 0
6, 52020, Note_on_c, 2, 63, 88
6, 52078, Note_off_c, 2, 63, 0
6, 52080, Note_on_c, 2, 61, 88
6, 52138, Note_off_c, 2, 61, 0
6, 52140, Note_on_c, 2, 60, 88
6, 52198, Note_off_c, 2, 60, 0
6, 52200, Note_on_c, 2, 58, 88
6, 52258, Note_off_c, 2, 58, 0
6, 52260, Note_on_c, 2, 56, 88
6, 52318, Note_off_c, 2, 56, 0
6, 52320, Note_on_c, 2, 55, 88
6, 52790, Note_off_c, 2, 55, 0
6, 53100, Note_on_c, 2, 56, 88
6, 53158, Note_off_c, 2, 56, 0
6, 53160, Note_on_c, 2, 58, 88
6, 53218, Note_off_c, 2, 58, 0
6, 53220, Note_on_c, 2, 60, 88
6, 53278, Note_off_c, 2, 60, 0
6, 53280, Note_on_c, 2, 58, 88
6, 53338, Note_off_c, 2, 58, 0
6, 53340, Note_on_c, 2, 56, 88
6, 53398, Note_off_c, 2, 56, 0
6, 53400, Note_on_c, 2, 55, 88
6, 53458, Note_off_c, 2, 55, 0
6, 53460, Note_on_c, 2, 53, 88
6, 53518, Note_off_c, 2, 53, 0
6, 53520, Note_on_c, 2, 55, 88
6, 53636, Note_off_c, 2, 55, 0
6, 55020, Note_on_c, 2, 58, 88
6, 55078, Note_off_c, 2, 58, 0
6, 55080, Note_on_c, 2, 60, 88
6, 55138, Note_off_c, 2, 60, 0
6, 55140, Note_on_c, 2, 61, 88
6, 55198, Note_off_c, 2, 61, 0
6, 55200, Note_on_c, 2, 60, 88
6, 55434, Note_off_c, 2, 60, 0
6, 55740, Note_on_c, 2, 62, 88
6, 55798, Note_off_c, 2, 62, 0
6, 55800, Note_on_c, 2, 63, 88
6, 55858, Note_off_c, 2, 63, 0
6, 55860, Note_on_c, 2, 65, 88
6, 55918, Note_off_c, 2, 65, 0
6, 55920, Note_on_c, 2, 63, 88
6, 56154, Note_off_c, 2, 63, 0
6, 56220, Note_on_c, 2, 60, 88
6, 56278, Note_off_c, 2, 60, 0
6, 56280, Note_on_c, 2, 61, 88
6, 56338, Note_off_c, 2, 61, 0
6, 56340, Note_on_c, 2, 63, 88
6, 56398, Note_off_c, 2, 63, 0
6, 56400, Note_on_c, 2, 61, 88
6, 56458, Note_off_c, 2, 61, 0
6, 56460, Note_on_c, 2, 60, 88
6, 56518, Note_off_c, 2, 60, 0
6, 56520, Note_on_c, 2, 58, 88
6, 56578, Note_off_c, 2, 58, 0
6, 56580, Note_on_c, 2, 56, 88
6, 56638, Note_off_c, 2, 56, 0
6, 56640, Note_on_c, 2, 63, 88
6, 57110, Note_off_c, 2, 63, 0
6, 57120, Note_on_c, 2, 62, 88
6, 57590, Note_off_c, 2, 62, 0
6, 57660, Note_on_c, 2, 60, 88
6, 57718, Note_off_c, 2, 60, 0
6, 57720, Note_on_c, 2, 61, 88
6, 57778, Note_off_c, 2, 61, 0
6, 57780, Note_on_c, 2, 63, 88
6, 57838, Note_off_c, 2, 63, 0
6, 57840, Note_on_c, 2, 61, 88
6, 57898, Note_off_c, 2, 61, 0
6, 57900, Note_on_c, 2, 60, 88
6, 57958, Note_off_c, 2, 60, 0
6, 57960, Note_on_c, 2, 58, 88
6, 58018, Note_off_c, 2, 58, 0
6, 58020, Note_on_c, 2, 56, 88
6, 58078, Note_off_c, 2, 56, 0
6, 58080, Note_on_c, 2, 58, 88
6, 58550, Note_off_c, 2, 58, 0
6, 58560, Note_on_c, 2, 56, 88
6, 58794, Note_off_c, 2, 56, 0
6, 58860, Note_on_c, 2, 53, 88
6, 58918, Note_off_c, 2, 53, 0
6, 58920, Note_on_c, 2, 55, 88
6, 58978, Note_off_c, 2, 55, 0
6, 58980, Note_on_c, 2, 56, 88
6, 59038, Note_off_c, 2, 56, 0
6, 59040, Note_on_c, 2, 58, 88
6, 59274, Note_off_c, 2, 58, 0
6, 59340, Note_on_c, 2, 58, 88
6, 59398, Note_off_c, 2, 58, 0
6, 59400, Note_on_c, 2, 60, 88
6, 59458, Note_off_c, 2, 60, 0
6, 59460, Note_on_c, 2, 61, 88
6, 59518, Note_off_c, 2, 61, 0
6, 59520, Note_on_c, 2, 60, 88
6, 59578, Note_off_c, 2, 60, 0
6, 59580, Note_on_c, 2, 58, 88
6, 59638, Note_off_c, 2, 58, 0
6, 59640, Note_on_c, 2, 56, 88
6, 59698, Note_off_c, 2, 56, 0
6, 59700, Note_on_c, 2, 55, 88
6, 59758, Note_off_c, 2, 55, 0
6, 59760, Note_on_c, 2, 56, 88
6, 60113, Note_off_c, 2, 56, 0
6, 60120, Note_on_c, 2, 55, 88
6, 60178, Note_off_c, 2, 55, 0
6, 60180, Note_on_c, 2, 53, 88
6, 60238, Note_off_c, 2, 53, 0
6, 60240, Note_on_c, 2, 55, 88
6, 60538, Note_off_c, 2, 55, 0
6, 60540, Note_on_c, 2, 51, 88
6, 60598, Note_off_c, 2, 51, 0
6, 60600, Note_on_c, 2, 53, 88
6, 60658, Note_off_c, 2, 53, 0
6, 60660, Note_on_c, 2, 55, 88
6, 60718, Note_off_c, 2, 55, 0
6, 60720, Note_on_c, 2, 53, 88
6, 60778, Note_off_c, 2, 53, 0
6, 60780, Note_on_c, 2, 51, 88
6, 60838, Note_off_c, 2, 51, 0
6, 60840, Note_on_c, 2, 50, 88
6, 60898, Note_off_c, 2, 50, 0
6, 60900, Note_on_c, 2, 48, 88
6, 60958, Note_off_c, 2, 48, 0
6, 60960, Note_on_c, 2, 46, 88
6, 61018, Note_off_c, 2, 46, 0
6, 61020, Note_on_c, 2, 56, 88
6, 61078, Note_off_c, 2, 56, 0
6, 61080, Note_on_c, 2, 58, 88
6, 61138, Note_off_c, 2, 58, 0
6, 61140, Note_on_c, 2, 60, 88
6, 61198, Note_off_c, 2, 60, 0
6, 61200, Note_on_c, 2, 58, 88
6, 61258, Note_off_c, 2, 58, 0
6, 61260, Note_on_c, 2, 56, 88
6, 61318, Note_off_c, 2, 56, 0
6, 61320, Note_on_c, 2, 55, 88
6, 61378, Note_off_c, 2, 55, 0
6, 61380, Note_on_c, 2, 53, 88
6, 61438, Note_off_c, 2, 53, 0
6, 61440, Note_on_c, 2, 51, 88
6, 61674, Note_off_c, 2, 51, 0
6, 62460, Note_on_c, 2, 60, 88
6, 62518, Note_off_c, 2, 60, 0
6, 62520, Note_on_c, 2, 62, 88
6, 62578, Note_off_c, 2, 62, 0
6, 62580, Note_on_c, 2, 63, 88
6, 62638, Note_off_c, 2, 63, 0
6, 62640, Note_on_c, 2, 65, 88
6, 62698, Note_off_c, 2, 65, 0
6, 62700, Note_on_c, 2, 68, 88
6, 62758, Note_off_c, 2, 68, 0
6, 62760, Note_on_c, 2, 67, 88
6, 62818, Note_off_c, 2, 67, 0
6, 62820, Note_on_c, 2, 65, 88
6, 62878, Note_off_c, 2, 65, 0
6, 62880, Note_on_c, 2, 63, 88
6, 62938, Note_off_c, 2, 63, 0
6, 62940, Note_on_c, 2, 65, 88
6, 62998, Note_off_c, 2, 65, 0
6, 63000, Note_on_c, 2, 63, 88
6, 63058, Note_off_c, 2, 63, 0
6, 63060, Note_on_c, 2, 62, 88
6, 63118, Note_off_c, 2, 62, 0
6, 63120, Note_on_c, 2, 60, 88
6, 63178, Note_off_c, 2, 60, 0
6, 63180, Note_on_c, 2, 63, 88
6, 63238, Note_off_c, 2, 63, 0
6, 63240, Note_on_c, 2, 62, 88
6, 63298, Note_off_c, 2, 62, 0
6, 63300, Note_on_c, 2, 60, 88
6, 63358, Note_off_c, 2, 60, 0
6, 63360, Note_on_c, 2, 68, 88
6, 63594, Note_off_c, 2, 68, 0
6, 63600, Note_on_c, 2, 67, 88
6, 63834, Note_off_c, 2, 67, 0
6, 63840, Note_on_c, 2, 65, 88
6, 64310, Note_off_c, 2, 65, 0
6, 64320, Note_on_c, 2, 51, 88
6, 64554, Note_off_c, 2, 51, 0
6, 64560, Note_on_c, 2, 56, 88
6, 65030, Note_off_c, 2, 56, 0
6, 65040, Note_on_c, 2, 55, 88
6, 65274, Note_off_c, 2, 55, 0
6, 65280, Note_on_c, 2, 60, 88
6, 65750, Note_off_c, 2, 60, 0
6, 65760, Note_on_c, 2, 59, 88
6, 66230, Note_off_c, 2, 59, 0
6, 66240, Note_on_c, 2, 58, 88
6, 67185, Note_off_c, 2, 58, 0
6, 67185, End_track
7, 0, Start_track
7, 0, Title_t, "Track 4"
7, 0, Program_c, 3, 6
7, 0, Note_on_c, 3, 51, 88
7, 2390, Note_off_c, 3, 51, 0
7, 5760, Note_on_c, 3, 48, 88
7, 6705, Note_off_c, 3, 48, 0
7, 6720, Note_on_c, 3, 46, 88
7, 8874, Note_off_c, 3, 46, 0
7, 9120, Note_on_c, 3, 53, 88
7, 9354, Note_off_c, 3, 53, 0
7, 9360, Note_on_c, 3, 58, 88
7, 9834, Note_off_c, 3, 58, 0
7, 9840, Note_on_c, 3, 56, 88
7, 10074, Note_off_c, 3, 56, 0
7, 10080, Note_on_c, 3, 55, 88
7, 10550, Note_off_c, 3, 55, 0
7, 10560, Note_on_c, 3, 53, 88
7, 10794, Note_off_c, 3, 53, 0
7, 10800, Note_on_c, 3, 51, 88
7, 11270, Note_off_c, 3, 51, 0
7, 11280, Note_on_c, 3, 56, 88
7, 11754, Note_off_c, 3, 56, 0
7, 11760, Note_on_c, 3, 55, 88
7, 11994, Note_off_c, 3, 55, 0
7, 12000, Note_on_c, 3, 60, 88
7, 12470, Note_off_c, 3, 60, 0
7, 12480, Note_on_c, 3, 62, 88
7, 12714, Note_off_c, 3, 62, 0
7, 12720, Note_on_c, 3, 63, 88
7, 12954, Note_off_c, 3, 63, 0
7, 12960, Note_on_c, 3, 56, 88
7, 13430, Note_off_c, 3, 56, 0
7, 13440, Note_on_c, 3, 58, 88
7, 14634, Note_off_c, 3, 58, 0
7, 14640, Note_on_c, 3, 56, 88
7, 14874, Note_off_c, 3, 56, 0
7, 14880, Note_on_c, 3, 55, 88
7, 15114, Note_off_c, 3, 55, 0
7, 15120, Note_on_c, 3, 60, 88
7, 15594, Note_off_c, 3, 60, 0
7, 15600, Note_on_c, 3, 58, 88
7, 15834, Note_off_c, 3, 58, 0
7, 15840, Note_on_c, 3, 60, 88
7, 16074, Note_off_c, 3, 60, 0
7, 16080, Note_on_c, 3, 62, 88
7, 16314, Note_off_c, 3, 62, 0
7, 16320, Note_on_c, 3, 55, 88
7, 16673, Note_off_c, 3, 55, 0
7, 16680, Note_on_c, 3, 56, 88
7, 16796, Note_off_c, 3, 56, 0
7, 16800, Note_on_c, 3, 58, 88
7, 17034, Note_off_c, 3, 58, 0
7, 17040, Note_on_c, 3, 46, 88
7, 17274, Note_off_c, 3, 46, 0
7, 17280, Note_on_c, 3, 51, 88
7, 17988, Note_off_c, 3, 51, 0
7, 18000, Note_on_c, 3, 50, 88
7, 18234, Note_off_c, 3, 50, 0
7, 18240, Note_on_c, 3, 55, 88
7, 18710, Note_off_c, 3, 55, 0
7, 18720, Note_on_c, 3, 53, 88
7, 19670, Note_off_c, 3, 53, 0
7, 19680, Note_on_c, 3, 55, 88
7, 19974, Note_off_c, 3, 55, 0
7, 19980, Note_on_c, 3, 53, 88
7, 20038, Note_off_c, 3, 53, 0
7, 20040, Note_on_c, 3, 51, 88
7, 20098, Note_off_c, 3, 51, 0
7, 20100, Note_on_c, 3, 50, 88
7, 20158, Note_off_c, 3, 50, 0
7, 20160, Note_on_c, 3, 48, 88
7, 20394, Note_off_c, 3, 48, 0
7, 20400, Note_on_c, 3, 50, 88
7, 20634, Note_off_c, 3, 50, 0
7, 20640, Note_on_c, 3, 51, 88
7, 20934, Note_off_c, 3, 51, 0
7, 20940, Note_on_c, 3, 49, 88
7, 20998, Note_off_c, 3, 49, 0
7, 21000, Note_on_c, 3, 48, 88
7, 21058, Note_off_c, 3, 48, 0
7, 21060, Note_on_c, 3, 46, 88
7, 21118, Note_off_c, 3, 46, 0
7, 21120, Note_on_c, 3, 44, 88
7, 21590, Note_off_c, 3, 44, 0
7, 21600, Note_on_c, 3, 46, 88
7, 22070, Note_off_c, 3, 46, 0
7, 22080, Note_on_c, 3, 48, 88
7, 22550, Note_off_c, 3, 48, 0
7, 22560, Note_on_c, 3, 46, 88
7, 23030, Note_off_c, 3, 46, 0
7, 23040, Note_on_c, 3, 46, 88
7, 23274, Note_off_c, 3, 46, 0
7, 23280, Note_on_c, 3, 51, 88
7, 23750, Note_off_c, 3, 51, 0
7, 23760, Note_on_c, 3, 50, 88
7, 23994, Note_off_c, 3, 50, 0
7, 24000, Note_on_c, 3, 55, 88
7, 24470, Note_off_c, 3, 55, 0
7, 24480, Note_on_c, 3, 53, 88
7, 24950, Note_off_c, 3, 53, 0
7, 24960, Note_on_c, 3, 51, 88
7, 25313, Note_off_c, 3, 51, 0
7, 25320, Note_on_c, 3, 53, 88
7, 25436, Note_off_c, 3, 53, 0
7, 25440, Note_on_c, 3, 55, 88
7, 25556, Note_off_c, 3, 55, 0
7, 25560, Note_on_c, 3, 53, 88
7, 25676, Note_off_c, 3, 53, 0
7, 25680, Note_on_c, 3, 51, 88
7, 25796, Note_off_c, 3, 51, 0
7, 25800, Note_on_c, 3, 50, 88
7, 25916, Note_off_c, 3, 50, 0
7, 25920, Note_on_c, 3, 48, 88
7, 25978, Note_off_c, 3, 48, 0
7, 25980, Note_on_c, 3, 51, 88
7, 26038, Note_off_c, 3, 51, 0
7, 26040, Note_on_c, 3, 53, 88
7, 26098, Note_off_c, 3, 53, 0
7, 26100, Note_on_c, 3, 55, 88
7, 26158, Note_off_c, 3, 55, 0
7, 26160, Note_on_c, 3, 53, 88
7, 26218, Note_off_c, 3, 53, 0
7, 26220, Note_on_c, 3, 51, 88
7, 26278, Note_off_c, 3, 51, 0
7, 26280, Note_on_c, 3, 50, 88
7, 26338, Note_off_c, 3, 50, 0
7, 26340, Note_on_c, 3, 48, 88
7, 26398, Note_off_c, 3, 48, 0
7, 26400, Note_on_c, 3, 51, 88
7, 26458, Note_off_c, 3, 51, 0
7, 26460, Note_on_c, 3, 50, 88
7, 26518, Note_off_c, 3, 50, 0
7, 26520, Note_on_c, 3, 48, 88
7, 26578, Note_off_c, 3, 48, 0
7, 26580, Note_on_c, 3, 46, 88
7, 26638, Note_off_c, 3, 46, 0
7, 26640, Note_on_c, 3, 51, 88
7, 26756, Note_off_c, 3, 51, 0
7, 26760, Note_on_c, 3, 50, 88
7, 26876, Note_off_c, 3, 50, 0
7, 26880, Note_on_c, 3, 48, 88
7, 27162, Note_off_c, 3, 48, 0
7, 27180, Note_on_c, 3, 48, 88
7, 27238, Note_off_c, 3, 48, 0
7, 27240, Note_on_c, 3, 50, 88
7, 27298, Note_off_c, 3, 50, 0
7, 27300, Note_on_c, 3, 51, 88
7, 27358, Note_off_c, 3, 51, 0
7, 27360, Note_on_c, 3, 50, 88
7, 27418, Note_off_c, 3, 50, 0
7, 27420, Note_on_c, 3, 48, 88
7, 27478, Note_off_c, 3, 48, 0
7, 27480, Note_on_c, 3, 46, 88
7, 27538, Note_off_c, 3, 46, 0
7, 27540, Note_on_c, 3, 45, 88
7, 27598, Note_off_c, 3, 45, 0
7, 27600, Note_on_c, 3, 46, 88
7, 27716, Note_off_c, 3, 46, 0
7, 27720, Note_on_c, 3, 58, 88
7, 27836, Note_off_c, 3, 58, 0
7, 27840, Note_on_c, 3, 51, 88
7, 28310, Note_off_c, 3, 51, 0
7, 28380, Note_on_c, 3, 53, 88
7, 28438, Note_off_c, 3, 53, 0
7, 28440, Note_on_c, 3, 55, 88
7, 28498, Note_off_c, 3, 55, 0
7, 28500, Note_on_c, 3, 57, 88
7, 28558, Note_off_c, 3, 57, 0
7, 28560, Note_on_c, 3, 58, 88
7, 28618, Note_off_c, 3, 58, 0
7, 28620, Note_on_c, 3, 57, 88
7, 28678, Note_off_c, 3, 57, 0
7, 28680, Note_on_c, 3, 55, 88
7, 28738, Note_off_c, 3, 55, 0
7, 28740, Note_on_c, 3, 53, 88
7, 28798, Note_off_c, 3, 53, 0
7, 28800, Note_on_c, 3, 51, 88
7, 28858, Note_off_c, 3, 51, 0
7, 28860, Note_on_c, 3, 50, 88
7, 28918, Note_off_c, 3, 50, 0
7, 28920, Note_on_c, 3, 48, 88
7, 28978, Note_off_c, 3, 48, 0
7, 28980, Note_on_c, 3, 46, 88
7, 29038, Note_off_c, 3, 46, 0
7, 29040, Note_on_c, 3, 51, 88
7, 29142, Note_off_c, 3, 51, 0
7, 29160, Note_on_c, 3, 51, 88
7, 29262, Note_off_c, 3, 51, 0
7, 29280, Note_on_c, 3, 51, 88
7, 29514, Note_off_c, 3, 51, 0
7, 29520, Note_on_c, 3, 50, 88
7, 29754, Note_off_c, 3, 50, 0
7, 29760, Note_on_c, 3, 55, 88
7, 30282, Note_off_c, 3, 55, 0
7, 30300, Note_on_c, 3, 55, 88
7, 30358, Note_off_c, 3, 55, 0
7, 30360, Note_on_c, 3, 57, 88
7, 30418, Note_off_c, 3, 57, 0
7, 30420, Note_on_c, 3, 58, 88
7, 30478, Note_off_c, 3, 58, 0
7, 30480, Note_on_c, 3, 57, 88
7, 30538, Note_off_c, 3, 57, 0
7, 30540, Note_on_c, 3, 55, 88
7, 30598, Note_off_c, 3, 55, 0
7, 30600, Note_on_c, 3, 53, 88
7, 30658, Note_off_c, 3, 53, 0
7, 30660, Note_on_c, 3, 51, 88
7, 30718, Note_off_c, 3, 51, 0
7, 30720, Note_on_c, 3, 53, 88
7, 31190, Note_off_c, 3, 53, 0
7, 31260, Note_on_c, 3, 54, 88
7, 31318, Note_off_c, 3, 54, 0
7, 31320, Note_on_c, 3, 55, 88
7, 31378, Note_off_c, 3, 55, 0
7, 31380, Note_on_c, 3, 57, 88
7, 31438, Note_off_c, 3, 57, 0
7, 31440, Note_on_c, 3, 55, 88
7, 31498, Note_off_c, 3, 55, 0
7, 31500, Note_on_c, 3, 53, 88
7, 31558, Note_off_c, 3, 53, 0
7, 31560, Note_on_c, 3, 51, 88
7, 31618, Note_off_c, 3, 51, 0
7, 31620, Note_on_c, 3, 50, 88
7, 31678, Note_off_c, 3, 50, 0
7, 31680, Note_on_c, 3, 48, 88
7, 32150, Note_off_c, 3, 48, 0
7, 32160, Note_on_c, 3, 50, 88
7, 32630, Note_off_c, 3, 50, 0
7, 32640, Note_on_c, 3, 43, 88
7, 32874, Note_off_c, 3, 43, 0
7, 33180, Note_on_c, 3, 50, 88
7, 33238, Note_off_c, 3, 50, 0
7, 33240, Note_on_c, 3, 51, 88
7, 33298, Note_off_c, 3, 51, 0
7, 33300, Note_on_c, 3, 53, 88
7, 33358, Note_off_c, 3, 53, 0
7, 33360, Note_on_c, 3, 51, 88
7, 33418, Note_off_c, 3, 51, 0
7, 33420, Note_on_c, 3, 50, 88
7, 33478, Note_off_c, 3, 50, 0
7, 33480, Note_on_c, 3, 48, 88
7, 33538, Note_off_c, 3, 48, 0
7, 33540, Note_on_c, 3, 46, 88
7, 33598, Note_off_c, 3, 46, 0
7, 33600, Note_on_c, 3, 52, 88
7, 33834, Note_off_c, 3, 52, 0
7, 33840, Note_on_c, 3, 53, 88
7, 34310, Note_off_c, 3, 53, 0
7, 34320, Note_on_c, 3, 46, 88
7, 34554, Note_off_c, 3, 46, 0
7, 34560, Note_on_c, 3, 48, 88
7, 35030, Note_off_c, 3, 48, 0
7, 35040, Note_on_c, 3, 49, 88
7, 35510, Note_off_c, 3, 49, 0
7, 35520, Note_on_c, 3, 48, 88
7, 35990, Note_off_c, 3, 48, 0
7, 36060, Note_on_c, 3, 41, 88
7, 36118, Note_off_c, 3, 41, 0
7, 36120, Note_on_c, 3, 43, 88
7, 36178, Note_off_c, 3, 43, 0
7, 36180, Note_on_c, 3, 44, 88
7, 36238, Note_off_c, 3, 44, 0
7, 36240, Note_on_c, 3, 43, 88
7, 36298, Note_off_c, 3, 43, 0
7, 36300, Note_on_c, 3, 41, 88
7, 36358, Note_off_c, 3, 41, 0
7, 36360, Note_on_c, 3, 39, 88
7, 36418, Note_off_c, 3, 39, 0
7, 36420, Note_on_c, 3, 38, 88
7, 36478, Note_off_c, 3, 38, 0
7, 36480, Note_on_c, 3, 43, 88
7, 36950, Note_off_c, 3, 43, 0
7, 36960, Note_on_c, 3, 48, 88
7, 37430, Note_off_c, 3, 48, 0
7, 37440, Note_on_c, 3, 53, 88
7, 38148, Note_off_c, 3, 53, 0
7, 38160, Note_on_c, 3, 51, 88
7, 38394, Note_off_c, 3, 51, 0
7, 38400, Note_on_c, 3, 56, 88
7, 38516, Note_off_c, 3, 56, 0
7, 38520, Note_on_c, 3, 53, 88
7, 38636, Note_off_c, 3, 53, 0
7, 38640, Note_on_c, 3, 55, 88
7, 38874, Note_off_c, 3, 55, 0
7, 38940, Note_on_c, 3, 48, 88
7, 38998, Note_off_c, 3, 48, 0
7, 39000, Note_on_c, 3, 49, 88
7, 39058, Note_off_c, 3, 49, 0
7, 39060, Note_on_c, 3, 51, 88
7, 39118, Note_off_c, 3, 51, 0
7, 39120, Note_on_c, 3, 49, 88
7, 39178, Note_off_c, 3, 49, 0
7, 39180, Note_on_c, 3, 48, 88
7, 39238, Note_off_c, 3, 48, 0
7, 39240, Note_on_c, 3, 46, 88
7, 39298, Note_off_c, 3, 46, 0
7, 39300, Note_on_c, 3, 44, 88
7, 39358, Note_off_c, 3, 44, 0
7, 39360, Note_on_c, 3, 51, 88
7, 39830, Note_off_c, 3, 51, 0
7, 39840, Note_on_c, 3, 56, 88
7, 40310, Note_off_c, 3, 56, 0
7, 40320, Note_on_c, 3, 55, 88
7, 40614, Note_off_c, 3, 55, 0
7, 40620, Note_on_c, 3, 53, 88
7, 40678, Note_off_c, 3, 53, 0
7, 40680, Note_on_c, 3, 55, 88
7, 40738, Note_off_c, 3, 55, 0
7, 40740, Note_on_c, 3, 56, 88
7, 40798, Note_off_c, 3, 56, 0
7, 40800, Note_on_c, 3, 58, 88
7, 40858, Note_off_c, 3, 58, 0
7, 40860, Note_on_c, 3, 56, 88
7, 40918, Note_off_c, 3, 56, 0
7, 40920, Note_on_c, 3, 58, 88
7, 40978, Note_off_c, 3, 58, 0
7, 40980, Note_on_c, 3, 60, 88
7, 41038, Note_off_c, 3, 60, 0
7, 41040, Note_on_c, 3, 58, 88
7, 41098, Note_off_c, 3, 58, 0
7, 41100, Note_on_c, 3, 56, 88
7, 41158, Note_off_c, 3, 56, 0
7, 41160, Note_on_c, 3, 55, 88
7, 41218, Note_off_c, 3, 55, 0
7, 41220, Note_on_c, 3, 53, 88
7, 41278, Note_off_c, 3, 53, 0
7, 41280, Note_on_c, 3, 52, 88
7, 41750, Note_off_c, 3, 52, 0
7, 41760, Note_on_c, 3, 56, 88
7, 42298, Note_off_c, 3, 56, 0
7, 42300, Note_on_c, 3, 53, 88
7, 42358, Note_off_c, 3, 53, 0
7, 42360, Note_on_c, 3, 55, 88
7, 42418, Note_off_c, 3, 55, 0
7, 42420, Note_on_c, 3, 56, 88
7, 42478, Note_off_c, 3, 56, 0
7, 42480, Note_on_c, 3, 55, 88
7, 42538, Note_off_c, 3, 55, 0
7, 42540, Note_on_c, 3, 53, 88
7, 42598, Note_off_c, 3, 53, 0
7, 42600, Note_on_c, 3, 51, 88
7, 42658, Note_off_c, 3, 51, 0
7, 42660, Note_on_c, 3, 50, 88
7, 42718, Note_off_c, 3, 50, 0
7, 42720, Note_on_c, 3, 48, 88
7, 42778, Note_off_c, 3, 48, 0
7, 42780, Note_on_c, 3, 46, 88
7, 42838, Note_off_c, 3, 46, 0
7, 42840, Note_on_c, 3, 48, 88
7, 42898, Note_off_c, 3, 48, 0
7, 42900, Note_on_c, 3, 49, 88
7, 42958, Note_off_c, 3, 49, 0
7, 42960, Note_on_c, 3, 48, 88
7, 43018, Note_off_c, 3, 48, 0
7, 43020, Note_on_c, 3, 46, 88
7, 43078, Note_off_c, 3, 46, 0
7, 43080, Note_on_c, 3, 44, 88
7, 43138, Note_off_c, 3, 44, 0
7, 43140, Note_on_c, 3, 43, 88
7, 43198, Note_off_c, 3, 43, 0
7, 43200, Note_on_c, 3, 41, 88
7, 43434, Note_off_c, 3, 41, 0
7, 43440, Note_on_c, 3, 46, 88
7, 43910, Note_off_c, 3, 46, 0
7, 43920, Note_on_c, 3, 43, 88
7, 44154, Note_off_c, 3, 43, 0
7, 44160, Note_on_c, 3, 48, 88
7, 44630, Note_off_c, 3, 48, 0
7, 44640, Note_on_c, 3, 50, 88
7, 44756, Note_off_c, 3, 50, 0
7, 44760, Note_on_c, 3, 46, 88
7, 44876, Note_off_c, 3, 46, 0
7, 44880, Note_on_c, 3, 51, 88
7, 44996, Note_off_c, 3, 51, 0
7, 45000, Note_on_c, 3, 50, 88
7, 45116, Note_off_c, 3, 50, 0
7, 45120, Note_on_c, 3, 48, 88
7, 45473, Note_off_c, 3, 48, 0
7, 45480, Note_on_c, 3, 46, 88
7, 45596, Note_off_c, 3, 46, 0
7, 45600, Note_on_c, 3, 45, 88
7, 45834, Note_off_c, 3, 45, 0
7, 45840, Note_on_c, 3, 46, 88
7, 46074, Note_off_c, 3, 46, 0
7, 46080, Note_on_c, 3, 46, 88
7, 46138, Note_off_c, 3, 46, 0
7, 46140, Note_on_c, 3, 45, 88
7, 46198, Note_off_c, 3, 45, 0
7, 46200, Note_on_c, 3, 46, 88
7, 46258, Note_off_c, 3, 46, 0
7, 46260, Note_on_c, 3, 48, 88
7, 46318, Note_off_c, 3, 48, 0
7, 46320, Note_on_c, 3, 46, 88
7, 46378, Note_off_c, 3, 46, 0
7, 46380, Note_on_c, 3, 45, 88
7, 46438, Note_off_c, 3, 45, 0
7, 46440, Note_on_c, 3, 43, 88
7, 46498, Note_off_c, 3, 43, 0
7, 46500, Note_on_c, 3, 41, 88
7, 46558, Note_off_c, 3, 41, 0
7, 46560, Note_on_c, 3, 46, 88
7, 46794, Note_off_c, 3, 46, 0
7, 46800, Note_on_c, 3, 51, 88
7, 47274, Note_off_c, 3, 51, 0
7, 47280, Note_on_c, 3, 50, 88
7, 47514, Note_off_c, 3, 50, 0
7, 47520, Note_on_c, 3, 55, 88
7, 47873, Note_off_c, 3, 55, 0
7, 47880, Note_on_c, 3, 53, 88
7, 47996, Note_off_c, 3, 53, 0
7, 48000, Note_on_c, 3, 52, 88
7, 48234, Note_off_c, 3, 52, 0
7, 48240, Note_on_c, 3, 53, 88
7, 48356, Note_off_c, 3, 53, 0
7, 48360, Note_on_c, 3, 51, 88
7, 48476, Note_off_c, 3, 51, 0
7, 48480, Note_on_c, 3, 50, 88
7, 49002, Note_off_c, 3, 50, 0
7, 49020, Note_on_c, 3, 50, 88
7, 49078, Note_off_c, 3, 50, 0
7, 49080, Note_on_c, 3, 51, 88
7, 49138, Note_off_c, 3, 51, 0
7, 49140, Note_on_c, 3, 53, 88
7, 49198, Note_off_c, 3, 53, 0
7, 49200, Note_on_c, 3, 51, 88
7, 49258, Note_off_c, 3, 51, 0
7, 49260, Note_on_c, 3, 50, 88
7, 49318, Note_off_c, 3, 50, 0
7, 49320, Note_on_c, 3, 48, 88
7, 49378, Note_off_c, 3, 48, 0
7, 49380, Note_on_c, 3, 47, 88
7, 49438, Note_off_c, 3, 47, 0
7, 49440, Note_on_c, 3, 48, 88
7, 49498, Note_off_c, 3, 48, 0
7, 49500, Note_on_c, 3, 47, 88
7, 49558, Note_off_c, 3, 47, 0
7, 49560, Note_on_c, 3, 48, 88
7, 49618, Note_off_c, 3, 48, 0
7, 49620, Note_on_c, 3, 50, 88
7, 49678, Note_off_c, 3, 50, 0
7, 49680, Note_on_c, 3, 48, 88
7, 49738, Note_off_c, 3, 48, 0
7, 49740, Note_on_c, 3, 46, 88
7, 49798, Note_off_c, 3, 46, 0
7, 49800, Note_on_c, 3, 44, 88
7, 49858, Note_off_c, 3, 44, 0
7, 49860, Note_on_c, 3, 43, 88
7, 49918, Note_off_c, 3, 43, 0
7, 49920, Note_on_c, 3, 44, 88
7, 50390, Note_off_c, 3, 44, 0
7, 50460, Note_on_c, 3, 43, 88
7, 50518, Note_off_c, 3, 43, 0
7, 50520, Note_on_c, 3, 45, 88
7, 50578, Note_off_c, 3, 45, 0
7, 50580, Note_on_c, 3, 47, 88
7, 50638, Note_off_c, 3, 47, 0
7, 50640, Note_on_c, 3, 48, 88
7, 50922, Note_off_c, 3, 48, 0
7, 50940, Note_on_c, 3, 48, 88
7, 50998, Note_off_c, 3, 48, 0
7, 51000, Note_on_c, 3, 50, 88
7, 51058, Note_off_c, 3, 50, 0
7, 51060, Note_on_c, 3, 51, 88
7, 51118, Note_off_c, 3, 51, 0
7, 51120, Note_on_c, 3, 53, 88
7, 51222, Note_off_c, 3, 53, 0
7, 51240, Note_on_c, 3, 53, 88
7, 51342, Note_off_c, 3, 53, 0
7, 51360, Note_on_c, 3, 53, 88
7, 51594, Note_off_c, 3, 53, 0
7, 51600, Note_on_c, 3, 51, 88
7, 51834, Note_off_c, 3, 51, 0
7, 51840, Note_on_c, 3, 56, 88
7, 52310, Note_off_c, 3, 56, 0
7, 52380, Note_on_c, 3, 52, 88
7, 52438, Note_off_c, 3, 52, 0
7, 52440, Note_on_c, 3, 53, 88
7, 52498, Note_off_c, 3, 53, 0
7, 52500, Note_on_c, 3, 55, 88
7, 52558, Note_off_c, 3, 55, 0
7, 52560, Note_on_c, 3, 53, 88
7, 52618, Note_off_c, 3, 53, 0
7, 52620, Note_on_c, 3, 52, 88
7, 52678, Note_off_c, 3, 52, 0
7, 52680, Note_on_c, 3, 50, 88
7, 52738, Note_off_c, 3, 50, 0
7, 52740, Note_on_c, 3, 48, 88
7, 52798, Note_off_c, 3, 48, 0
7, 52800, Note_on_c, 3, 53, 88
7, 53508, Note_off_c, 3, 53, 0
7, 53520, Note_on_c, 3, 51, 88
7, 53578, Note_off_c, 3, 51, 0
7, 53580, Note_on_c, 3, 48, 88
7, 53638, Note_off_c, 3, 48, 0
7, 53640, Note_on_c, 3, 49, 88
7, 53698, Note_off_c, 3, 49, 0
7, 53700, Note_on_c, 3, 51, 88
7, 53758, Note_off_c, 3, 51, 0
7, 53760, Note_on_c, 3, 49, 88
7, 53818, Note_off_c, 3, 49, 0
7, 53820, Note_on_c, 3, 48, 88
7, 53878, Note_off_c, 3, 48, 0
7, 53880, Note_on_c, 3, 46, 88
7, 53938, Note_off_c, 3, 46, 0
7, 53940, Note_on_c, 3, 44, 88
7, 53998, Note_off_c, 3, 44, 0
7, 54000, Note_on_c, 3, 49, 88
7, 54102, Note_off_c, 3, 49, 0
7, 54120, Note_on_c, 3, 49, 88
7, 54222, Note_off_c, 3, 49, 0
7, 54240, Note_on_c, 3, 49, 88
7, 54474, Note_off_c, 3, 49, 0
7, 54480, Note_on_c, 3, 48, 88
7, 54714, Note_off_c, 3, 48, 0
7, 54720, Note_on_c, 3, 49, 88
7, 54954, Note_off_c, 3, 49, 0
7, 54960, Note_on_c, 3, 51, 88
7, 55194, Note_off_c, 3, 51, 0
7, 55200, Note_on_c, 3, 56, 88
7, 55434, Note_off_c, 3, 56, 0
7, 55440, Note_on_c, 3, 53, 88
7, 55674, Note_off_c, 3, 53, 0
7, 55680, Note_on_c, 3, 58, 88
7, 55796, Note_off_c, 3, 58, 0
7, 58080, Note_on_c, 3, 46, 88
7, 58314, Note_off_c, 3, 46, 0
7, 58320, Note_on_c, 3, 51, 88
7, 58794, Note_off_c, 3, 51, 0
7, 58800, Note_on_c, 3, 50, 88
7, 59034, Note_off_c, 3, 50, 0
7, 59040, Note_on_c, 3, 55, 88
7, 59754, Note_off_c, 3, 55, 0
7, 59820, Note_on_c, 3, 55, 88
7, 59878, Note_off_c, 3, 55, 0
7, 59880, Note_on_c, 3, 53, 88
7, 59938, Note_off_c, 3, 53, 0
7, 59940, Note_on_c, 3, 51, 88
7, 59998, Note_off_c, 3, 51, 0
7, 60000, Note_on_c, 3, 50, 88
7, 60116, Note_off_c, 3, 50, 0
7, 60120, Note_on_c, 3, 51, 88
7, 60178, Note_off_c, 3, 51, 0
7, 60180, Note_on_c, 3, 53, 88
7, 60238, Note_off_c, 3, 53, 0
7, 60240, Note_on_c, 3, 51, 88
7, 60298, Note_off_c, 3, 51, 0
7, 60300, Note_on_c, 3, 50, 88
7, 60358, Note_off_c, 3, 50, 0
7, 60360, Note_on_c, 3, 48, 88
7, 60418, Note_off_c, 3, 48, 0
7, 60420, Note_on_c, 3, 46, 88
7, 60478, Note_off_c, 3, 46, 0
7, 60480, Note_on_c, 3, 44, 88
7, 60950, Note_off_c, 3, 44, 0
7, 60960, Note_on_c, 3, 38, 88
7, 61018, Note_off_c, 3, 38, 0
7, 61200, Note_on_c, 3, 51, 88
7, 61434, Note_off_c, 3, 51, 0
7, 61500, Note_on_c, 3, 48, 88
7, 61558, Note_off_c, 3, 48, 0
7, 61560, Note_on_c, 3, 49, 88
7, 61618, Note_off_c, 3, 49, 0
7, 61620, Note_on_c, 3, 51, 88
7, 61678, Note_off_c, 3, 51, 0
7, 61680, Note_on_c, 3, 49, 88
7, 61738, Note_off_c, 3, 49, 0
7, 61740, Note_on_c, 3, 48, 88
7, 61798, Note_off_c, 3, 48, 0
7, 61800, Note_on_c, 3, 46, 88
7, 61858, Note_off_c, 3, 46, 0
7, 61860, Note_on_c, 3, 44, 88
7, 61918, Note_off_c, 3, 44, 0
7, 61920, Note_on_c, 3, 51, 88
7, 61978, Note_off_c, 3, 51, 0
7, 61980, Note_on_c, 3, 50, 88
7, 62038, Note_off_c, 3, 50, 0
7, 62040, Note_on_c, 3, 48, 88
7, 62098, Note_off_c, 3, 48, 0
7, 62100, Note_on_c, 3, 46, 88
7, 62158, Note_off_c, 3, 46, 0
7, 62160, Note_on_c, 3, 56, 88
7, 62218, Note_off_c, 3, 56, 0
7, 62220, Note_on_c, 3, 55, 88
7, 62278, Note_off_c, 3, 55, 0
7, 62280, Note_on_c, 3, 53, 88
7, 62338, Note_off_c, 3, 53, 0
7, 62340, Note_on_c, 3, 51, 88
7, 62398, Note_off_c, 3, 51, 0
7, 62400, Note_on_c, 3, 58, 88
7, 63418, Note_off_c, 3, 58, 0
7, 63420, Note_on_c, 3, 53, 88
7, 63478, Note_off_c, 3, 53, 0
7, 63480, Note_on_c, 3, 51, 88
7, 63538, Note_off_c, 3, 51, 0
7, 63540, Note_on_c, 3, 50, 88
7, 63598, Note_off_c, 3, 50, 0
7, 63600, Note_on_c, 3, 51, 88
7, 63658, Note_off_c, 3, 51, 0
7, 63660, Note_on_c, 3, 53, 88
7, 63718, Note_off_c, 3, 53, 0
7, 63720, Note_on_c, 3, 55, 88
7, 63778, Note_off_c, 3, 55, 0
7, 63780, Note_on_c, 3, 56, 88
7, 63838, Note_off_c, 3, 56, 0
7, 63840, Note_on_c, 3, 46, 88
7, 64310, Note_off_c, 3, 46, 0
7, 64320, Note_on_c, 3, 51, 88
7, 67185, Note_off_c, 3, 51, 0
7, 67185, End_track
0, 0, End_of_file
