0, 0, Header, 1, 7, 240
1, 0, Start_track
1, 0, Time_signature, 3, 1, 24, 8
1, 0, Tempo, 576923
1, 0, SMPTE_offset, 64, 0, 0, 0, 93
1, 0, End_track
2, 0, Start_track
2, 0, Title_t, "(C) & (P) 1993"
2, 127, End_track
3, 0, Start_track
3, 0, Title_t, "CCARH,Stanford"
3, 0, End_track
4, 0, Start_track
4, 0, Title_t, "Track 1"
4, 0, Program_c, 0, 6
4, 0, Note_on_c, 0, 70, 88
4, 470, Note_off_c, 0, 70, 0
4, 840, Note_on_c, 0, 70, 88
4, 956, Note_off_c, 0, 70, 0
4, 960, Note_on_c, 0, 75, 88
4, 1313, Note_off_c, 0, 75, 0
4, 1320, Note_on_c, 0, 78, 88
4, 1436, Note_off_c, 0, 78, 0
4, 1440, Note_on_c, 0, 71, 88
4, 1910, Note_off_c, 0, 71, 0
4, 2280, Note_on_c, 0, 75, 88
4, 2396, Note_off_c, 0, 75, 0
4, 2400, Note_on_c, 0, 80, 88
4, 2753, Note_off_c, 0, 80, 0
4, 2760, Note_on_c, 0, 83, 88
4, 2876, Note_off_c, 0, 83, 0
4, 2880, Note_on_c, 0, 74, 88
4, 3350, Note_off_c, 0, 74, 0
4, 3720, Note_on_c, 0, 77, 88
4, 3836, Note_off_c, 0, 77, 0
4, 3840, Note_on_c, 0, 70, 88
4, 3869, Note_off_c, 0, 70, 0
4, 3870, Note_on_c, 0, 68, 88
4, 3899, Note_off_c, 0, 68, 0
4, 3900, Note_on_c, 0, 70, 88
4, 3929, Note_off_c, 0, 70, 0
4, 3930, Note_on_c, 0, 68, 88
4, 3959, Note_off_c, 0, 68, 0
4, 3960, Note_on_c, 0, 70, 88
4, 3989, Note_off_c, 0, 70, 0
4, 3990, Note_on_c, 0, 68, 88
4, 4136, Note_off_c, 0, 68, 0
4, 4140, Note_on_c, 0, 66, 88
4, 4198, Note_off_c, 0, 66, 0
4, 4200, Note_on_c, 0, 68, 88
4, 4258, Note_off_c, 0, 68, 0
4, 4260, Note_on_c, 0, 70, 88
4, 4318, Note_off_c, 0, 70, 0
4, 4320, Note_on_c, 0, 68, 88
4, 4360, Note_off_c, 0, 68, 0
4, 4361, Note_on_c, 0, 66, 88
4, 4394, Note_off_c, 0, 66, 0
4, 4395, Note_on_c, 0, 68, 88
4, 4428, Note_off_c, 0, 68, 0
4, 4429, Note_on_c, 0, 66, 88
4, 4461, Note_off_c, 0, 66, 0
4, 4463, Note_on_c, 0, 68, 88
4, 4495, Note_off_c, 0, 68, 0
4, 4496, Note_on_c, 0, 66, 88
4, 4529, Note_off_c, 0, 66, 0
4, 4530, Note_on_c, 0, 68, 88
4, 4559, Note_off_c, 0, 68, 0
4, 4560, Note_on_c, 0, 66, 88
4, 4676, Note_off_c, 0, 66, 0
4, 4680, Note_on_c, 0, 65, 88
4, 4738, Note_off_c, 0, 65, 0
4, 4740, Note_on_c, 0, 63, 88
4, 4798, Note_off_c, 0, 63, 0
4, 4800, Note_on_c, 0, 78, 88
4, 5258, Note_off_c, 0, 78, 0
4, 5280, Note_on_c, 0, 66, 88
4, 5280, Note_on_c, 0, 70, 88
4, 5280, Note_on_c, 0, 75, 88
4, 5280, Note_on_c, 0, 78, 88
4, 5750, Note_off_c, 0, 66, 0
4, 5750, Note_off_c, 0, 70, 0
4, 5750, Note_off_c, 0, 75, 0
4, 5750, Note_off_c, 0, 78, 0
4, 5760, Note_on_c, 0, 66, 88
4, 5760, Note_on_c, 0, 70, 88
4, 5760, Note_on_c, 0, 73, 88
4, 5760, Note_on_c, 0, 78, 88
4, 6230, Note_off_c, 0, 66, 0
4, 6230, Note_off_c, 0, 70, 0
4, 6230, Note_off_c, 0, 73, 0
4, 6230, Note_off_c, 0, 78, 0
4, 6540, Note_on_c, 0, 78, 88
4, 6598, Note_off_c, 0, 78, 0
4, 6600, Note_on_c, 0, 76, 88
4, 6658, Note_off_c, 0, 76, 0
4, 6660, Note_on_c, 0, 75, 88
4, 6718, Note_off_c, 0, 75, 0
4, 6720, Note_on_c, 0, 76, 88
4, 7073, Note_off_c, 0, 76, 0
4, 7080, Note_on_c, 0, 73, 88
4, 7196, Note_off_c, 0, 73, 0
4, 7200, Note_on_c, 0, 63, 88
4, 7200, Note_on_c, 0, 66, 88
4, 7200, Note_on_c, 0, 71, 88
4, 7200, Note_on_c, 0, 75, 88
4, 7658, Note_off_c, 0, 66, 0
4, 7658, Note_off_c, 0, 71, 0
4, 7658, Note_off_c, 0, 75, 0
4, 7670, Note_off_c, 0, 63, 0
4, 7680, Note_on_c, 0, 66, 88
4, 7680, Note_on_c, 0, 71, 88
4, 7680, Note_on_c, 0, 75, 88
4, 8138, Note_off_c, 0, 66, 0
4, 8138, Note_off_c, 0, 71, 0
4, 8138, Note_off_c, 0, 75, 0
4, 8160, Note_on_c, 0, 66, 88
4, 8160, Note_on_c, 0, 71, 88
4, 8160, Note_on_c, 0, 75, 88
4, 8630, Note_off_c, 0, 66, 0
4, 8630, Note_off_c, 0, 71, 0
4, 8630, Note_off_c, 0, 75, 0
4, 8640, Note_on_c, 0, 70, 88
4, 8640, Note_on_c, 0, 75, 88
4, 8640, Note_on_c, 0, 82, 88
4, 9110, Note_off_c, 0, 70, 0
4, 9110, Note_off_c, 0, 75, 0
4, 9110, Note_off_c, 0, 82, 0
4, 9420, Note_on_c, 0, 75, 88
4, 9478, Note_off_c, 0, 75, 0
4, 9480, Note_on_c, 0, 73, 88
4, 9538, Note_off_c, 0, 73, 0
4, 9540, Note_on_c, 0, 71, 88
4, 9598, Note_off_c, 0, 71, 0
4, 9600, Note_on_c, 0, 73, 88
4, 9953, Note_off_c, 0, 73, 0
4, 9960, Note_on_c, 0, 70, 88
4, 10076, Note_off_c, 0, 70, 0
4, 10080, Note_on_c, 0, 73, 88
4, 10138, Note_off_c, 0, 73, 0
4, 10140, Note_on_c, 0, 71, 88
4, 10169, Note_off_c, 0, 71, 0
4, 10170, Note_on_c, 0, 73, 88
4, 10199, Note_off_c, 0, 73, 0
4, 10200, Note_on_c, 0, 71, 88
4, 10229, Note_off_c, 0, 71, 0
4, 10230, Note_on_c, 0, 73, 88
4, 10259, Note_off_c, 0, 73, 0
4, 10260, Note_on_c, 0, 71, 88
4, 10289, Note_off_c, 0, 71, 0
4, 10290, Note_on_c, 0, 73, 88
4, 10319, Note_off_c, 0, 73, 0
4, 10320, Note_on_c, 0, 71, 88
4, 10436, Note_off_c, 0, 71, 0
4, 10440, Note_on_c, 0, 70, 88
4, 10498, Note_off_c, 0, 70, 0
4, 10500, Note_on_c, 0, 68, 88
4, 10558, Note_off_c, 0, 68, 0
4, 10560, Note_on_c, 0, 75, 88
4, 10560, Note_on_c, 0, 80, 88
4, 10560, Note_on_c, 0, 83, 88
4, 11018, Note_off_c, 0, 75, 0
4, 11018, Note_off_c, 0, 80, 0
4, 11018, Note_off_c, 0, 83, 0
4, 11040, Note_on_c, 0, 75, 88
4, 11040, Note_on_c, 0, 80, 88
4, 11040, Note_on_c, 0, 83, 88
4, 11510, Note_off_c, 0, 75, 0
4, 11510, Note_off_c, 0, 80, 0
4, 11510, Note_off_c, 0, 83, 0
4, 11520, Note_on_c, 0, 77, 88
4, 11520, Note_on_c, 0, 80, 88
4, 11520, Note_on_c, 0, 83, 88
4, 11990, Note_off_c, 0, 77, 0
4, 11990, Note_off_c, 0, 80, 0
4, 11990, Note_off_c, 0, 83, 0
4, 12300, Note_on_c, 0, 82, 88
4, 12358, Note_off_c, 0, 82, 0
4, 12360, Note_on_c, 0, 80, 88
4, 12418, Note_off_c, 0, 80, 0
4, 12420, Note_on_c, 0, 78, 88
4, 12478, Note_off_c, 0, 78, 0
4, 12480, Note_on_c, 0, 77, 88
4, 12538, Note_off_c, 0, 77, 0
4, 12540, Note_on_c, 0, 78, 88
4, 12598, Note_off_c, 0, 78, 0
4, 12600, Note_on_c, 0, 77, 88
4, 12658, Note_off_c, 0, 77, 0
4, 12660, Note_on_c, 0, 78, 88
4, 12718, Note_off_c, 0, 78, 0
4, 12720, Note_on_c, 0, 80, 88
4, 12778, Note_off_c, 0, 80, 0
4, 12780, Note_on_c, 0, 78, 88
4, 12838, Note_off_c, 0, 78, 0
4, 12840, Note_on_c, 0, 80, 88
4, 12898, Note_off_c, 0, 80, 0
4, 12900, Note_on_c, 0, 77, 88
4, 12958, Note_off_c, 0, 77, 0
4, 12960, Note_on_c, 0, 80, 88
4, 13018, Note_off_c, 0, 80, 0
4, 13020, Note_on_c, 0, 78, 88
4, 13049, Note_off_c, 0, 78, 0
4, 13050, Note_on_c, 0, 80, 88
4, 13079, Note_off_c, 0, 80, 0
4, 13080, Note_on_c, 0, 78, 88
4, 13109, Note_off_c, 0, 78, 0
4, 13110, Note_on_c, 0, 80, 88
4, 13139, Note_off_c, 0, 80, 0
4, 13140, Note_on_c, 0, 78, 88
4, 13169, Note_off_c, 0, 78, 0
4, 13170, Note_on_c, 0, 80, 88
4, 13199, Note_off_c, 0, 80, 0
4, 13200, Note_on_c, 0, 78, 88
4, 13316, Note_off_c, 0, 78, 0
4, 13320, Note_on_c, 0, 77, 88
4, 13378, Note_off_c, 0, 77, 0
4, 13380, Note_on_c, 0, 75, 88
4, 13418, Note_off_c, 0, 75, 0
4, 13440, Note_on_c, 0, 70, 88
4, 13440, Note_on_c, 0, 75, 88
4, 13440, Note_on_c, 0, 78, 88
4, 13440, Note_on_c, 0, 82, 88
4, 13898, Note_off_c, 0, 75, 0
4, 13898, Note_off_c, 0, 78, 0
4, 13898, Note_off_c, 0, 82, 0
4, 13910, Note_off_c, 0, 70, 0
4, 13920, Note_on_c, 0, 73, 88
4, 13920, Note_on_c, 0, 75, 88
4, 13920, Note_on_c, 0, 78, 88
4, 13920, Note_on_c, 0, 82, 88
4, 14390, Note_off_c, 0, 73, 0
4, 14390, Note_off_c, 0, 75, 0
4, 14390, Note_off_c, 0, 78, 0
4, 14390, Note_off_c, 0, 82, 0
4, 14400, Note_on_c, 0, 72, 88
4, 14400, Note_on_c, 0, 75, 88
4, 14400, Note_on_c, 0, 78, 88
4, 14400, Note_on_c, 0, 84, 88
4, 14870, Note_off_c, 0, 72, 0
4, 14870, Note_off_c, 0, 75, 0
4, 14870, Note_off_c, 0, 78, 0
4, 14870, Note_off_c, 0, 84, 0
4, 15180, Note_on_c, 0, 77, 88
4, 15238, Note_off_c, 0, 77, 0
4, 15240, Note_on_c, 0, 75, 88
4, 15298, Note_off_c, 0, 75, 0
4, 15300, Note_on_c, 0, 73, 88
4, 15358, Note_off_c, 0, 73, 0
4, 15360, Note_on_c, 0, 72, 88
4, 15418, Note_off_c, 0, 72, 0
4, 15420, Note_on_c, 0, 73, 88
4, 15478, Note_off_c, 0, 73, 0
4, 15480, Note_on_c, 0, 72, 88
4, 15538, Note_off_c, 0, 72, 0
4, 15540, Note_on_c, 0, 73, 88
4, 15598, Note_off_c, 0, 73, 0
4, 15600, Note_on_c, 0, 75, 88
4, 15658, Note_off_c, 0, 75, 0
4, 15660, Note_on_c, 0, 73, 88
4, 15718, Note_off_c, 0, 73, 0
4, 15720, Note_on_c, 0, 75, 88
4, 15778, Note_off_c, 0, 75, 0
4, 15780, Note_on_c, 0, 72, 88
4, 15838, Note_off_c, 0, 72, 0
4, 15840, Note_on_c, 0, 75, 88
4, 15898, Note_off_c, 0, 75, 0
4, 15900, Note_on_c, 0, 73, 88
4, 15929, Note_off_c, 0, 73, 0
4, 15930, Note_on_c, 0, 75, 88
4, 15959, Note_off_c, 0, 75, 0
4, 15960, Note_on_c, 0, 73, 88
4, 15989, Note_off_c, 0, 73, 0
4, 15990, Note_on_c, 0, 75, 88
4, 16019, Note_off_c, 0, 75, 0
4, 16020, Note_on_c, 0, 73, 88
4, 16049, Note_off_c, 0, 73, 0
4, 16050, Note_on_c, 0, 75, 88
4, 16079, Note_off_c, 0, 75, 0
4, 16080, Note_on_c, 0, 73, 88
4, 16196, Note_off_c, 0, 73, 0
4, 16200, Note_on_c, 0, 72, 88
4, 16258, Note_off_c, 0, 72, 0
4, 16260, Note_on_c, 0, 70, 88
4, 16318, Note_off_c, 0, 70, 0
4, 16320, Note_on_c, 0, 77, 88
4, 16614, Note_off_c, 0, 77, 0
4, 16620, Note_on_c, 0, 78, 88
4, 16678, Note_off_c, 0, 78, 0
4, 16680, Note_on_c, 0, 77, 88
4, 16738, Note_off_c, 0, 77, 0
4, 16740, Note_on_c, 0, 75, 88
4, 16798, Note_off_c, 0, 75, 0
4, 16800, Note_on_c, 0, 73, 88
4, 16858, Note_off_c, 0, 73, 0
4, 16860, Note_on_c, 0, 72, 88
4, 16918, Note_off_c, 0, 72, 0
4, 16920, Note_on_c, 0, 70, 88
4, 16978, Note_off_c, 0, 70, 0
4, 16980, Note_on_c, 0, 68, 88
4, 17038, Note_off_c, 0, 68, 0
4, 17040, Note_on_c, 0, 66, 88
4, 17156, Note_off_c, 0, 66, 0
4, 17160, Note_on_c, 0, 68, 88
4, 17218, Note_off_c, 0, 68, 0
4, 17220, Note_on_c, 0, 65, 88
4, 17278, Note_off_c, 0, 65, 0
4, 17280, Note_on_c, 0, 66, 88
4, 17633, Note_off_c, 0, 66, 0
4, 17640, Note_on_c, 0, 70, 88
4, 17698, Note_off_c, 0, 70, 0
4, 17700, Note_on_c, 0, 73, 88
4, 17758, Note_off_c, 0, 73, 0
4, 17760, Note_on_c, 0, 78, 88
4, 18054, Note_off_c, 0, 78, 0
4, 18060, Note_on_c, 0, 77, 88
4, 18118, Note_off_c, 0, 77, 0
4, 18120, Note_on_c, 0, 75, 88
4, 18178, Note_off_c, 0, 75, 0
4, 18180, Note_on_c, 0, 73, 88
4, 18238, Note_off_c, 0, 73, 0
4, 18240, Note_on_c, 0, 72, 88
4, 18415, Note_off_c, 0, 72, 0
4, 18420, Note_on_c, 0, 75, 88
4, 18449, Note_off_c, 0, 75, 0
4, 18450, Note_on_c, 0, 73, 88
4, 18479, Note_off_c, 0, 73, 0
4, 18480, Note_on_c, 0, 72, 88
4, 18538, Note_off_c, 0, 72, 0
4, 18540, Note_on_c, 0, 73, 88
4, 18598, Note_off_c, 0, 73, 0
4, 18600, Note_on_c, 0, 75, 88
4, 18716, Note_off_c, 0, 75, 0
4, 18720, Note_on_c, 0, 65, 88
4, 18895, Note_off_c, 0, 65, 0
4, 18900, Note_on_c, 0, 67, 88
4, 18929, Note_off_c, 0, 67, 0
4, 18930, Note_on_c, 0, 69, 88
4, 18959, Note_off_c, 0, 69, 0
4, 18960, Note_on_c, 0, 70, 88
4, 18989, Note_off_c, 0, 70, 0
4, 18990, Note_on_c, 0, 69, 88
4, 19019, Note_off_c, 0, 69, 0
4, 19020, Note_on_c, 0, 70, 88
4, 19049, Note_off_c, 0, 70, 0
4, 19050, Note_on_c, 0, 69, 88
4, 19079, Note_off_c, 0, 69, 0
4, 19080, Note_on_c, 0, 70, 88
4, 19109, Note_off_c, 0, 70, 0
4, 19110, Note_on_c, 0, 69, 88
4, 19139, Note_off_c, 0, 69, 0
4, 19140, Note_on_c, 0, 67, 88
4, 19169, Note_off_c, 0, 67, 0
4, 19170, Note_on_c, 0, 69, 88
4, 19199, Note_off_c, 0, 69, 0
4, 19200, Note_on_c, 0, 70, 88
4, 21105, Note_off_c, 0, 70, 0
4, 21120, Note_on_c, 0, 69, 88
4, 21590, Note_off_c, 0, 69, 0
4, 21600, Note_on_c, 0, 70, 88
4, 21953, Note_off_c, 0, 70, 0
4, 21960, Note_on_c, 0, 72, 88
4, 22076, Note_off_c, 0, 72, 0
4, 22080, Note_on_c, 0, 73, 88
4, 22538, Note_off_c, 0, 73, 0
4, 22560, Note_on_c, 0, 73, 88
4, 23030, Note_off_c, 0, 73, 0
4, 23040, Note_on_c, 0, 73, 88
4, 23393, Note_off_c, 0, 73, 0
4, 23400, Note_on_c, 0, 71, 88
4, 23458, Note_off_c, 0, 71, 0
4, 23460, Note_on_c, 0, 70, 88
4, 23518, Note_off_c, 0, 70, 0
4, 23520, Note_on_c, 0, 76, 88
4, 24347, Note_off_c, 0, 76, 0
4, 24360, Note_on_c, 0, 75, 88
4, 24418, Note_off_c, 0, 75, 0
4, 24420, Note_on_c, 0, 73, 88
4, 24478, Note_off_c, 0, 73, 0
4, 24480, Note_on_c, 0, 79, 88
4, 25307, Note_off_c, 0, 79, 0
4, 25320, Note_on_c, 0, 77, 88
4, 25378, Note_off_c, 0, 77, 0
4, 25380, Note_on_c, 0, 75, 88
4, 25438, Note_off_c, 0, 75, 0
4, 25440, Note_on_c, 0, 80, 88
4, 26036, Note_off_c, 0, 80, 0
4, 26040, Note_on_c, 0, 79, 88
4, 26156, Note_off_c, 0, 79, 0
4, 26160, Note_on_c, 0, 80, 88
4, 26276, Note_off_c, 0, 80, 0
4, 26280, Note_on_c, 0, 82, 88
4, 26378, Note_off_c, 0, 82, 0
4, 26400, Note_on_c, 0, 82, 88
4, 26447, Note_off_c, 0, 82, 0
4, 26449, Note_on_c, 0, 80, 88
4, 26500, Note_off_c, 0, 80, 0
4, 26501, Note_on_c, 0, 82, 88
4, 27110, Note_off_c, 0, 82, 0
4, 27120, Note_on_c, 0, 80, 88
4, 27354, Note_off_c, 0, 80, 0
4, 27360, Note_on_c, 0, 80, 88
4, 27713, Note_off_c, 0, 80, 0
4, 27720, Note_on_c, 0, 83, 88
4, 27836, Note_off_c, 0, 83, 0
4, 27840, Note_on_c, 0, 77, 88
4, 28193, Note_off_c, 0, 77, 0
4, 28200, Note_on_c, 0, 78, 88
4, 28258, Note_off_c, 0, 78, 0
4, 28260, Note_on_c, 0, 80, 88
4, 28318, Note_off_c, 0, 80, 0
4, 28320, Note_on_c, 0, 74, 88
4, 28673, Note_off_c, 0, 74, 0
4, 28680, Note_on_c, 0, 75, 88
4, 28738, Note_off_c, 0, 75, 0
4, 28740, Note_on_c, 0, 77, 88
4, 28798, Note_off_c, 0, 77, 0
4, 28800, Note_on_c, 0, 70, 88
4, 29153, Note_off_c, 0, 70, 0
4, 29160, Note_on_c, 0, 80, 88
4, 29276, Note_off_c, 0, 80, 0
4, 29280, Note_on_c, 0, 74, 88
4, 29633, Note_off_c, 0, 74, 0
4, 29640, Note_on_c, 0, 75, 88
4, 29698, Note_off_c, 0, 75, 0
4, 29700, Note_on_c, 0, 77, 88
4, 29758, Note_off_c, 0, 77, 0
4, 29760, Note_on_c, 0, 70, 88
4, 30113, Note_off_c, 0, 70, 0
4, 30120, Note_on_c, 0, 72, 88
4, 30178, Note_off_c, 0, 72, 0
4, 30180, Note_on_c, 0, 74, 88
4, 30238, Note_off_c, 0, 74, 0
4, 30240, Note_on_c, 0, 75, 88
4, 30593, Note_off_c, 0, 75, 0
4, 30600, Note_on_c, 0, 73, 88
4, 30658, Note_off_c, 0, 73, 0
4, 30660, Note_on_c, 0, 71, 88
4, 30718, Note_off_c, 0, 71, 0
4, 30720, Note_on_c, 0, 73, 88
4, 31178, Note_off_c, 0, 73, 0
4, 31200, Note_on_c, 0, 73, 88
4, 31670, Note_off_c, 0, 73, 0
4, 31680, Note_on_c, 0, 73, 88
4, 32033, Note_off_c, 0, 73, 0
4, 32040, Note_on_c, 0, 71, 88
4, 32098, Note_off_c, 0, 71, 0
4, 32100, Note_on_c, 0, 70, 88
4, 32158, Note_off_c, 0, 70, 0
4, 32160, Note_on_c, 0, 71, 88
4, 32618, Note_off_c, 0, 71, 0
4, 32640, Note_on_c, 0, 71, 88
4, 33110, Note_off_c, 0, 71, 0
4, 33120, Note_on_c, 0, 71, 88
4, 33473, Note_off_c, 0, 71, 0
4, 33480, Note_on_c, 0, 70, 88
4, 33538, Note_off_c, 0, 70, 0
4, 33540, Note_on_c, 0, 68, 88
4, 33598, Note_off_c, 0, 68, 0
4, 33600, Note_on_c, 0, 77, 88
4, 33953, Note_off_c, 0, 77, 0
4, 33960, Note_on_c, 0, 71, 88
4, 34058, Note_off_c, 0, 71, 0
4, 34080, Note_on_c, 0, 71, 88
4, 34138, Note_off_c, 0, 71, 0
4, 34140, Note_on_c, 0, 70, 88
4, 34169, Note_off_c, 0, 70, 0
4, 34170, Note_on_c, 0, 71, 88
4, 34199, Note_off_c, 0, 71, 0
4, 34200, Note_on_c, 0, 70, 88
4, 34229, Note_off_c, 0, 70, 0
4, 34230, Note_on_c, 0, 71, 88
4, 34259, Note_off_c, 0, 71, 0
4, 34260, Note_on_c, 0, 70, 88
4, 34289, Note_off_c, 0, 70, 0
4, 34290, Note_on_c, 0, 71, 88
4, 34319, Note_off_c, 0, 71, 0
4, 34320, Note_on_c, 0, 70, 88
4, 34436, Note_off_c, 0, 70, 0
4, 34440, Note_on_c, 0, 71, 88
4, 34498, Note_off_c, 0, 71, 0
4, 34500, Note_on_c, 0, 68, 88
4, 34558, Note_off_c, 0, 68, 0
4, 34560, Note_on_c, 0, 66, 88
4, 35091, Note_off_c, 0, 66, 0
4, 35100, Note_on_c, 0, 63, 88
4, 35158, Note_off_c, 0, 63, 0
4, 35160, Note_on_c, 0, 65, 88
4, 35218, Note_off_c, 0, 65, 0
4, 35220, Note_on_c, 0, 66, 88
4, 35278, Note_off_c, 0, 66, 0
4, 35280, Note_on_c, 0, 68, 88
4, 35338, Note_off_c, 0, 68, 0
4, 35340, Note_on_c, 0, 70, 88
4, 35398, Note_off_c, 0, 70, 0
4, 35400, Note_on_c, 0, 72, 88
4, 35458, Note_off_c, 0, 72, 0
4, 35460, Note_on_c, 0, 74, 88
4, 35518, Note_off_c, 0, 74, 0
4, 35520, Note_on_c, 0, 75, 88
4, 35578, Note_off_c, 0, 75, 0
4, 35580, Note_on_c, 0, 77, 88
4, 35638, Note_off_c, 0, 77, 0
4, 35640, Note_on_c, 0, 78, 88
4, 35698, Note_off_c, 0, 78, 0
4, 35700, Note_on_c, 0, 80, 88
4, 35758, Note_off_c, 0, 80, 0
4, 35760, Note_on_c, 0, 78, 88
4, 35818, Note_off_c, 0, 78, 0
4, 35820, Note_on_c, 0, 77, 88
4, 35878, Note_off_c, 0, 77, 0
4, 35880, Note_on_c, 0, 78, 88
4, 35938, Note_off_c, 0, 78, 0
4, 35940, Note_on_c, 0, 75, 88
4, 35998, Note_off_c, 0, 75, 0
4, 36000, Note_on_c, 0, 76, 88
4, 36353, Note_off_c, 0, 76, 0
4, 36360, Note_on_c, 0, 71, 88
4, 36418, Note_off_c, 0, 71, 0
4, 36420, Note_on_c, 0, 69, 88
4, 36478, Note_off_c, 0, 69, 0
4, 36480, Note_on_c, 0, 68, 88
4, 36833, Note_off_c, 0, 68, 0
4, 36840, Note_on_c, 0, 69, 88
4, 36898, Note_off_c, 0, 69, 0
4, 36900, Note_on_c, 0, 71, 88
4, 36958, Note_off_c, 0, 71, 0
4, 36960, Note_on_c, 0, 64, 88
4, 37313, Note_off_c, 0, 64, 0
4, 37320, Note_on_c, 0, 66, 88
4, 37378, Note_off_c, 0, 66, 0
4, 37380, Note_on_c, 0, 68, 88
4, 37438, Note_off_c, 0, 68, 0
4, 37440, Note_on_c, 0, 62, 88
4, 37793, Note_off_c, 0, 62, 0
4, 37800, Note_on_c, 0, 65, 88
4, 37858, Note_off_c, 0, 65, 0
4, 37860, Note_on_c, 0, 68, 88
4, 37918, Note_off_c, 0, 68, 0
4, 37920, Note_on_c, 0, 71, 88
4, 38273, Note_off_c, 0, 71, 0
4, 38280, Note_on_c, 0, 70, 88
4, 38338, Note_off_c, 0, 70, 0
4, 38340, Note_on_c, 0, 68, 88
4, 38398, Note_off_c, 0, 68, 0
4, 38400, Note_on_c, 0, 77, 88
4, 38753, Note_off_c, 0, 77, 0
4, 38760, Note_on_c, 0, 75, 88
4, 38818, Note_off_c, 0, 75, 0
4, 38820, Note_on_c, 0, 74, 88
4, 38878, Note_off_c, 0, 74, 0
4, 38880, Note_on_c, 0, 83, 88
4, 38996, Note_off_c, 0, 83, 0
4, 39000, Note_on_c, 0, 81, 88
4, 39234, Note_off_c, 0, 81, 0
4, 39240, Note_on_c, 0, 82, 88
4, 39356, Note_off_c, 0, 82, 0
4, 39360, Note_on_c, 0, 75, 88
4, 39830, Note_off_c, 0, 75, 0
4, 39840, Note_on_c, 0, 74, 88
4, 40193, Note_off_c, 0, 74, 0
4, 40200, Note_on_c, 0, 75, 88
4, 40316, Note_off_c, 0, 75, 0
4, 40320, Note_on_c, 0, 75, 88
4, 42518, Note_off_c, 0, 75, 0
4, 42540, Note_on_c, 0, 75, 88
4, 42598, Note_off_c, 0, 75, 0
4, 42600, Note_on_c, 0, 73, 88
4, 42658, Note_off_c, 0, 73, 0
4, 42660, Note_on_c, 0, 71, 88
4, 42718, Note_off_c, 0, 71, 0
4, 42720, Note_on_c, 0, 73, 88
4, 43073, Note_off_c, 0, 73, 0
4, 43080, Note_on_c, 0, 70, 88
4, 43196, Note_off_c, 0, 70, 0
4, 43200, Note_on_c, 0, 71, 88
4, 43958, Note_off_c, 0, 71, 0
4, 43980, Note_on_c, 0, 71, 88
4, 44038, Note_off_c, 0, 71, 0
4, 44040, Note_on_c, 0, 70, 88
4, 44098, Note_off_c, 0, 70, 0
4, 44100, Note_on_c, 0, 68, 88
4, 44158, Note_off_c, 0, 68, 0
4, 44160, Note_on_c, 0, 70, 88
4, 44513, Note_off_c, 0, 70, 0
4, 44520, Note_on_c, 0, 67, 88
4, 44636, Note_off_c, 0, 67, 0
4, 44640, Note_on_c, 0, 59, 88
4, 44640, Note_on_c, 0, 62, 88
4, 44640, Note_on_c, 0, 68, 88
4, 45098, Note_off_c, 0, 59, 0
4, 45098, Note_off_c, 0, 62, 0
4, 45098, Note_off_c, 0, 68, 0
4, 45120, Note_on_c, 0, 59, 88
4, 45120, Note_on_c, 0, 62, 88
4, 45120, Note_on_c, 0, 68, 88
4, 45578, Note_off_c, 0, 59, 0
4, 45578, Note_off_c, 0, 62, 0
4, 45578, Note_off_c, 0, 68, 0
4, 45600, Note_on_c, 0, 59, 88
4, 45600, Note_on_c, 0, 62, 88
4, 45600, Note_on_c, 0, 68, 88
4, 46070, Note_off_c, 0, 59, 0
4, 46070, Note_off_c, 0, 62, 0
4, 46070, Note_off_c, 0, 68, 0
4, 46080, Note_on_c, 0, 59, 88
4, 46080, Note_on_c, 0, 65, 88
4, 46080, Note_on_c, 0, 68, 88
4, 46538, Note_off_c, 0, 59, 0
4, 46538, Note_off_c, 0, 65, 0
4, 46538, Note_off_c, 0, 68, 0
4, 46560, Note_on_c, 0, 59, 88
4, 46560, Note_on_c, 0, 65, 88
4, 46560, Note_on_c, 0, 68, 88
4, 47018, Note_off_c, 0, 59, 0
4, 47018, Note_off_c, 0, 65, 0
4, 47018, Note_off_c, 0, 68, 0
4, 47040, Note_on_c, 0, 59, 88
4, 47040, Note_on_c, 0, 65, 88
4, 47040, Note_on_c, 0, 68, 88
4, 47510, Note_off_c, 0, 59, 0
4, 47510, Note_off_c, 0, 65, 0
4, 47510, Note_off_c, 0, 68, 0
4, 47520, Note_on_c, 0, 62, 88
4, 47520, Note_on_c, 0, 65, 88
4, 47520, Note_on_c, 0, 68, 88
4, 47978, Note_off_c, 0, 62, 0
4, 47978, Note_off_c, 0, 65, 0
4, 47978, Note_off_c, 0, 68, 0
4, 48000, Note_on_c, 0, 62, 88
4, 48000, Note_on_c, 0, 65, 88
4, 48000, Note_on_c, 0, 68, 88
4, 48458, Note_off_c, 0, 62, 0
4, 48458, Note_off_c, 0, 65, 0
4, 48458, Note_off_c, 0, 68, 0
4, 48480, Note_on_c, 0, 62, 88
4, 48480, Note_on_c, 0, 65, 88
4, 48480, Note_on_c, 0, 68, 88
4, 48950, Note_off_c, 0, 62, 0
4, 48950, Note_off_c, 0, 65, 0
4, 48950, Note_off_c, 0, 68, 0
4, 48960, Note_on_c, 0, 71, 88
4, 49491, Note_off_c, 0, 71, 0
4, 49500, Note_on_c, 0, 70, 88
4, 49558, Note_off_c, 0, 70, 0
4, 49560, Note_on_c, 0, 68, 88
4, 49618, Note_off_c, 0, 68, 0
4, 49620, Note_on_c, 0, 66, 88
4, 49678, Note_off_c, 0, 66, 0
4, 49680, Note_on_c, 0, 65, 88
4, 49738, Note_off_c, 0, 65, 0
4, 49740, Note_on_c, 0, 63, 88
4, 49798, Note_off_c, 0, 63, 0
4, 49800, Note_on_c, 0, 62, 88
4, 49858, Note_off_c, 0, 62, 0
4, 49860, Note_on_c, 0, 65, 88
4, 49918, Note_off_c, 0, 65, 0
4, 49920, Note_on_c, 0, 68, 88
4, 49978, Note_off_c, 0, 68, 0
4, 49980, Note_on_c, 0, 71, 88
4, 50038, Note_off_c, 0, 71, 0
4, 50040, Note_on_c, 0, 74, 88
4, 50098, Note_off_c, 0, 74, 0
4, 50100, Note_on_c, 0, 77, 88
4, 50158, Note_off_c, 0, 77, 0
4, 50160, Note_on_c, 0, 80, 88
4, 50218, Note_off_c, 0, 80, 0
4, 50220, Note_on_c, 0, 83, 88
4, 50278, Note_off_c, 0, 83, 0
4, 50280, Note_on_c, 0, 82, 88
4, 50338, Note_off_c, 0, 82, 0
4, 50340, Note_on_c, 0, 74, 88
4, 50398, Note_off_c, 0, 74, 0
4, 50400, Note_on_c, 0, 75, 88
4, 50753, Note_off_c, 0, 75, 0
4, 50760, Note_on_c, 0, 70, 88
4, 50876, Note_off_c, 0, 70, 0
4, 50880, Note_on_c, 0, 68, 88
4, 51114, Note_off_c, 0, 68, 0
4, 51120, Note_on_c, 0, 66, 88
4, 51338, Note_off_c, 0, 66, 0
4, 51360, Note_on_c, 0, 66, 88
4, 51375, Note_on_c, 0, 65, 88
4, 51375, Note_off_c, 0, 66, 0
4, 51397, Note_off_c, 0, 65, 0
4, 51398, Note_on_c, 0, 66, 88
4, 51419, Note_off_c, 0, 66, 0
4, 51420, Note_on_c, 0, 65, 88
4, 51478, Note_off_c, 0, 65, 0
4, 51480, Note_on_c, 0, 63, 88
4, 51596, Note_off_c, 0, 63, 0
4, 51600, Note_on_c, 0, 65, 88
4, 51834, Note_off_c, 0, 65, 0
4, 51840, Note_on_c, 0, 63, 88
4, 52608, Note_off_c, 0, 63, 0
4, 52620, Note_on_c, 0, 65, 88
4, 52678, Note_off_c, 0, 65, 0
4, 52680, Note_on_c, 0, 67, 88
4, 52738, Note_off_c, 0, 67, 0
4, 52740, Note_on_c, 0, 68, 88
4, 52798, Note_off_c, 0, 68, 0
4, 52800, Note_on_c, 0, 70, 88
4, 53094, Note_off_c, 0, 70, 0
4, 53100, Note_on_c, 0, 64, 88
4, 53158, Note_off_c, 0, 64, 0
4, 53160, Note_on_c, 0, 63, 88
4, 53218, Note_off_c, 0, 63, 0
4, 53220, Note_on_c, 0, 61, 88
4, 53278, Note_off_c, 0, 61, 0
4, 53280, Note_on_c, 0, 59, 88
4, 53929, Note_off_c, 0, 59, 0
4, 53940, Note_on_c, 0, 63, 88
4, 53998, Note_off_c, 0, 63, 0
4, 54000, Note_on_c, 0, 65, 88
4, 54058, Note_off_c, 0, 65, 0
4, 54060, Note_on_c, 0, 67, 88
4, 54118, Note_off_c, 0, 67, 0
4, 54120, Note_on_c, 0, 68, 88
4, 54178, Note_off_c, 0, 68, 0
4, 54180, Note_on_c, 0, 70, 88
4, 54238, Note_off_c, 0, 70, 0
4, 54240, Note_on_c, 0, 71, 88
4, 54386, Note_off_c, 0, 71, 0
4, 54390, Note_on_c, 0, 70, 88
4, 54419, Note_off_c, 0, 70, 0
4, 54420, Note_on_c, 0, 68, 88
4, 54449, Note_off_c, 0, 68, 0
4, 54450, Note_on_c, 0, 66, 88
4, 54479, Note_off_c, 0, 66, 0
4, 54480, Note_on_c, 0, 65, 88
4, 54538, Note_off_c, 0, 65, 0
4, 54540, Note_on_c, 0, 66, 88
4, 54598, Note_off_c, 0, 66, 0
4, 54600, Note_on_c, 0, 68, 88
4, 54658, Note_off_c, 0, 68, 0
4, 54660, Note_on_c, 0, 65, 88
4, 54718, Note_off_c, 0, 65, 0
4, 54720, Note_on_c, 0, 62, 88
4, 56018, Note_off_c, 0, 62, 0
4, 56040, Note_on_c, 0, 62, 88
4, 56156, Note_off_c, 0, 62, 0
4, 56160, Note_on_c, 0, 63, 88
4, 57577, Note_off_c, 0, 63, 0
4, 57577, End_track
5, 0, Start_track
5, 0, Title_t, "Track 2"
5, 0, Program_c, 1, 6
5, 16320, Note_on_c, 1, 70, 88
5, 16320, Note_on_c, 1, 73, 88
5, 16554, Note_off_c, 1, 70, 0
5, 16554, Note_off_c, 1, 73, 0
5, 17280, Note_on_c, 1, 63, 88
5, 17514, Note_off_c, 1, 63, 0
5, 19560, Note_on_c, 1, 65, 88
5, 19676, Note_off_c, 1, 65, 0
5, 19680, Note_on_c, 1, 66, 88
5, 20033, Note_off_c, 1, 66, 0
5, 20040, Note_on_c, 1, 63, 88
5, 20156, Note_off_c, 1, 63, 0
5, 20160, Note_on_c, 1, 60, 88
5, 20454, Note_off_c, 1, 60, 0
5, 20460, Note_on_c, 1, 61, 88
5, 20518, Note_off_c, 1, 61, 0
5, 20520, Note_on_c, 1, 60, 88
5, 20578, Note_off_c, 1, 60, 0
5, 20580, Note_on_c, 1, 61, 88
5, 20638, Note_off_c, 1, 61, 0
5, 20640, Note_on_c, 1, 63, 88
5, 20698, Note_off_c, 1, 63, 0
5, 20700, Note_on_c, 1, 61, 88
5, 20758, Note_off_c, 1, 61, 0
5, 20760, Note_on_c, 1, 60, 88
5, 20818, Note_off_c, 1, 60, 0
5, 20820, Note_on_c, 1, 61, 88
5, 20878, Note_off_c, 1, 61, 0
5, 20880, Note_on_c, 1, 63, 88
5, 20938, Note_off_c, 1, 63, 0
5, 20940, Note_on_c, 1, 65, 88
5, 20998, Note_off_c, 1, 65, 0
5, 21000, Note_on_c, 1, 63, 88
5, 21058, Note_off_c, 1, 63, 0
5, 21060, Note_on_c, 1, 65, 88
5, 21118, Note_off_c, 1, 65, 0
5, 21120, Note_on_c, 1, 66, 88
5, 21338, Note_off_c, 1, 66, 0
5, 21360, Note_on_c, 1, 66, 88
5, 21396, Note_off_c, 1, 66, 0
5, 21398, Note_on_c, 1, 65, 88
5, 21441, Note_off_c, 1, 65, 0
5, 21443, Note_on_c, 1, 66, 88
5, 21479, Note_off_c, 1, 66, 0
5, 21480, Note_on_c, 1, 65, 88
5, 21538, Note_off_c, 1, 65, 0
5, 21540, Note_on_c, 1, 63, 88
5, 21598, Note_off_c, 1, 63, 0
5, 21600, Note_on_c, 1, 61, 88
5, 21953, Note_off_c, 1, 61, 0
5, 21960, Note_on_c, 1, 63, 88
5, 22076, Note_off_c, 1, 63, 0
5, 22080, Note_on_c, 1, 65, 88
5, 22080, Note_on_c, 1, 70, 88
5, 22538, Note_off_c, 1, 65, 0
5, 22538, Note_off_c, 1, 70, 0
5, 22560, Note_on_c, 1, 65, 88
5, 22560, Note_on_c, 1, 70, 88
5, 23030, Note_off_c, 1, 65, 0
5, 23030, Note_off_c, 1, 70, 0
5, 23040, Note_on_c, 1, 64, 88
5, 23040, Note_on_c, 1, 70, 88
5, 23393, Note_off_c, 1, 64, 0
5, 23393, Note_off_c, 1, 70, 0
5, 23520, Note_on_c, 1, 70, 88
5, 23520, Note_on_c, 1, 73, 88
5, 24347, Note_off_c, 1, 70, 0
5, 24347, Note_off_c, 1, 73, 0
5, 24480, Note_on_c, 1, 70, 88
5, 24480, Note_on_c, 1, 73, 88
5, 25307, Note_off_c, 1, 70, 0
5, 25307, Note_off_c, 1, 73, 0
5, 25440, Note_on_c, 1, 71, 88
5, 25440, Note_on_c, 1, 75, 88
5, 25910, Note_off_c, 1, 71, 0
5, 25910, Note_off_c, 1, 75, 0
5, 26400, Note_on_c, 1, 79, 88
5, 27345, Note_off_c, 1, 79, 0
5, 27360, Note_on_c, 1, 71, 88
5, 27360, Note_on_c, 1, 75, 88
5, 27713, Note_off_c, 1, 71, 0
5, 27713, Note_off_c, 1, 75, 0
5, 31200, Note_on_c, 1, 63, 88
5, 31200, Note_on_c, 1, 70, 88
5, 31670, Note_off_c, 1, 63, 0
5, 31670, Note_off_c, 1, 70, 0
5, 31680, Note_on_c, 1, 63, 88
5, 31680, Note_on_c, 1, 70, 88
5, 32033, Note_off_c, 1, 63, 0
5, 32033, Note_off_c, 1, 70, 0
5, 32640, Note_on_c, 1, 63, 88
5, 32640, Note_on_c, 1, 68, 88
5, 33110, Note_off_c, 1, 63, 0
5, 33110, Note_off_c, 1, 68, 0
5, 33120, Note_on_c, 1, 65, 88
5, 33120, Note_on_c, 1, 68, 88
5, 33473, Note_off_c, 1, 65, 0
5, 33473, Note_off_c, 1, 68, 0
5, 34560, Note_on_c, 1, 63, 88
5, 35030, Note_off_c, 1, 63, 0
5, 36000, Note_on_c, 1, 64, 88
5, 36000, Note_on_c, 1, 68, 88
5, 36000, Note_on_c, 1, 71, 88
5, 36353, Note_off_c, 1, 64, 0
5, 36353, Note_off_c, 1, 68, 0
5, 36353, Note_off_c, 1, 71, 0
5, 39360, Note_on_c, 1, 66, 88
5, 39360, Note_on_c, 1, 70, 88
5, 39818, Note_off_c, 1, 70, 0
5, 39830, Note_off_c, 1, 66, 0
5, 39840, Note_on_c, 1, 65, 88
5, 39840, Note_on_c, 1, 70, 88
5, 40310, Note_off_c, 1, 65, 0
5, 40310, Note_off_c, 1, 70, 0
5, 40320, Note_on_c, 1, 63, 88
5, 40320, Note_on_c, 1, 70, 88
5, 40614, Note_off_c, 1, 63, 0
5, 40614, Note_off_c, 1, 70, 0
5, 40620, Note_on_c, 1, 68, 88
5, 40678, Note_off_c, 1, 68, 0
5, 40680, Note_on_c, 1, 67, 88
5, 40738, Note_off_c, 1, 67, 0
5, 40740, Note_on_c, 1, 68, 88
5, 40798, Note_off_c, 1, 68, 0
5, 40800, Note_on_c, 1, 70, 88
5, 40858, Note_off_c, 1, 70, 0
5, 40860, Note_on_c, 1, 68, 88
5, 40896, Note_off_c, 1, 68, 0
5, 40898, Note_on_c, 1, 70, 88
5, 40934, Note_off_c, 1, 70, 0
5, 40935, Note_on_c, 1, 68, 88
5, 40971, Note_off_c, 1, 68, 0
5, 40973, Note_on_c, 1, 70, 88
5, 41009, Note_off_c, 1, 70, 0
5, 41010, Note_on_c, 1, 68, 88
5, 41046, Note_off_c, 1, 68, 0
5, 41048, Note_on_c, 1, 70, 88
5, 41084, Note_off_c, 1, 70, 0
5, 41085, Note_on_c, 1, 68, 88
5, 41121, Note_off_c, 1, 68, 0
5, 41123, Note_on_c, 1, 70, 88
5, 41159, Note_off_c, 1, 70, 0
5, 41160, Note_on_c, 1, 68, 88
5, 41196, Note_off_c, 1, 68, 0
5, 41198, Note_on_c, 1, 70, 88
5, 41234, Note_off_c, 1, 70, 0
5, 41235, Note_on_c, 1, 68, 88
5, 41271, Note_off_c, 1, 68, 0
5, 41273, Note_on_c, 1, 70, 88
5, 41309, Note_off_c, 1, 70, 0
5, 41310, Note_on_c, 1, 68, 88
5, 41346, Note_off_c, 1, 68, 0
5, 41348, Note_on_c, 1, 70, 88
5, 41384, Note_off_c, 1, 70, 0
5, 41385, Note_on_c, 1, 68, 88
5, 41421, Note_off_c, 1, 68, 0
5, 41423, Note_on_c, 1, 70, 88
5, 41459, Note_off_c, 1, 70, 0
5, 41460, Note_on_c, 1, 68, 88
5, 41496, Note_off_c, 1, 68, 0
5, 41498, Note_on_c, 1, 70, 88
5, 41534, Note_off_c, 1, 70, 0
5, 41535, Note_on_c, 1, 68, 88
5, 41564, Note_off_c, 1, 68, 0
5, 41565, Note_on_c, 1, 70, 88
5, 41594, Note_off_c, 1, 70, 0
5, 41595, Note_on_c, 1, 68, 88
5, 41639, Note_off_c, 1, 68, 0
5, 41640, Note_on_c, 1, 67, 88
5, 41698, Note_off_c, 1, 67, 0
5, 41700, Note_on_c, 1, 68, 88
5, 41758, Note_off_c, 1, 68, 0
5, 41760, Note_on_c, 1, 70, 88
5, 43177, Note_off_c, 1, 70, 0
5, 43200, Note_on_c, 1, 68, 88
5, 43670, Note_off_c, 1, 68, 0
5, 48960, Note_on_c, 1, 62, 88
5, 48960, Note_on_c, 1, 65, 88
5, 48960, Note_on_c, 1, 68, 88
5, 49430, Note_off_c, 1, 62, 0
5, 49430, Note_off_c, 1, 65, 0
5, 49430, Note_off_c, 1, 68, 0
5, 50760, Note_on_c, 1, 66, 88
5, 50876, Note_off_c, 1, 66, 0
5, 50880, Note_on_c, 1, 63, 88
5, 51350, Note_off_c, 1, 63, 0
5, 51360, Note_on_c, 1, 62, 88
5, 51830, Note_off_c, 1, 62, 0
5, 55080, Note_on_c, 1, 59, 88
5, 55138, Note_off_c, 1, 59, 0
5, 55140, Note_on_c, 1, 58, 88
5, 55198, Note_off_c, 1, 58, 0
5, 55200, Note_on_c, 1, 59, 88
5, 55553, Note_off_c, 1, 59, 0
5, 55560, Note_on_c, 1, 56, 88
5, 55676, Note_off_c, 1, 56, 0
5, 55680, Note_on_c, 1, 53, 88
5, 56150, Note_off_c, 1, 53, 0
5, 56160, Note_on_c, 1, 51, 88
5, 56160, Note_on_c, 1, 55, 88
5, 56160, Note_on_c, 1, 58, 88
5, 57577, Note_off_c, 1, 51, 0
5, 57577, Note_off_c, 1, 55, 0
5, 57577, Note_off_c, 1, 58, 0
5, 57577, End_track
6, 0, Start_track
6, 0, Title_t, "Track 3"
6, 0, Program_c, 2, 6
6, 21120, Note_on_c, 2, 60, 88
6, 21590, Note_off_c, 2, 60, 0
6, 26400, Note_on_c, 2, 75, 88
6, 26870, Note_off_c, 2, 75, 0
6, 26880, Note_on_c, 2, 73, 88
6, 27350, Note_off_c, 2, 73, 0
6, 43200, Note_on_c, 2, 63, 88
6, 43958, Note_off_c, 2, 63, 0
6, 43980, Note_on_c, 2, 63, 88
6, 44038, Note_off_c, 2, 63, 0
6, 44040, Note_on_c, 2, 61, 88
6, 44098, Note_off_c, 2, 61, 0
6, 44100, Note_on_c, 2, 59, 88
6, 44158, Note_off_c, 2, 59, 0
6, 44160, Note_on_c, 2, 61, 88
6, 44513, Note_off_c, 2, 61, 0
6, 44520, Note_on_c, 2, 58, 88
6, 44636, Note_off_c, 2, 58, 0
6, 50760, Note_on_c, 2, 51, 88
6, 50858, Note_off_c, 2, 51, 0
6, 50880, Note_on_c, 2, 51, 88
6, 50880, Note_on_c, 2, 54, 88
6, 51350, Note_off_c, 2, 51, 0
6, 51350, Note_off_c, 2, 54, 0
6, 51360, Note_on_c, 2, 53, 88
6, 51360, Note_on_c, 2, 56, 88
6, 51830, Note_off_c, 2, 53, 0
6, 51830, Note_off_c, 2, 56, 0
6, 51830, End_track
7, 0, Start_track
7, 0, Title_t, "Track 4"
7, 0, Program_c, 3, 6
7, 0, Note_on_c, 3, 63, 88
7, 0, Note_on_c, 3, 66, 88
7, 458, Note_off_c, 3, 63, 0
7, 458, Note_off_c, 3, 66, 0
7, 480, Note_on_c, 3, 63, 88
7, 480, Note_on_c, 3, 66, 88
7, 938, Note_off_c, 3, 63, 0
7, 938, Note_off_c, 3, 66, 0
7, 960, Note_on_c, 3, 63, 88
7, 960, Note_on_c, 3, 66, 88
7, 1430, Note_off_c, 3, 63, 0
7, 1430, Note_off_c, 3, 66, 0
7, 1440, Note_on_c, 3, 63, 88
7, 1440, Note_on_c, 3, 68, 88
7, 1898, Note_off_c, 3, 63, 0
7, 1898, Note_off_c, 3, 68, 0
7, 1920, Note_on_c, 3, 63, 88
7, 1920, Note_on_c, 3, 68, 88
7, 1920, Note_on_c, 3, 71, 88
7, 2378, Note_off_c, 3, 63, 0
7, 2378, Note_off_c, 3, 68, 0
7, 2378, Note_off_c, 3, 71, 0
7, 2400, Note_on_c, 3, 63, 88
7, 2400, Note_on_c, 3, 68, 88
7, 2400, Note_on_c, 3, 71, 88
7, 2870, Note_off_c, 3, 63, 0
7, 2870, Note_off_c, 3, 68, 0
7, 2870, Note_off_c, 3, 71, 0
7, 2880, Note_on_c, 3, 63, 88
7, 2880, Note_on_c, 3, 65, 88
7, 2880, Note_on_c, 3, 68, 88
7, 3338, Note_off_c, 3, 65, 0
7, 3338, Note_off_c, 3, 68, 0
7, 3350, Note_off_c, 3, 63, 0
7, 3360, Note_on_c, 3, 62, 88
7, 3360, Note_on_c, 3, 65, 88
7, 3360, Note_on_c, 3, 68, 88
7, 3818, Note_off_c, 3, 62, 0
7, 3818, Note_off_c, 3, 65, 0
7, 3830, Note_off_c, 3, 68, 0
7, 3840, Note_on_c, 3, 62, 88
7, 3840, Note_on_c, 3, 65, 88
7, 4310, Note_off_c, 3, 62, 0
7, 4310, Note_off_c, 3, 65, 0
7, 4320, Note_on_c, 3, 63, 88
7, 4790, Note_off_c, 3, 63, 0
7, 5160, Note_on_c, 3, 58, 88
7, 5276, Note_off_c, 3, 58, 0
7, 5280, Note_on_c, 3, 54, 88
7, 5633, Note_off_c, 3, 54, 0
7, 5640, Note_on_c, 3, 51, 88
7, 5756, Note_off_c, 3, 51, 0
7, 5760, Note_on_c, 3, 46, 88
7, 6218, Note_off_c, 3, 46, 0
7, 6240, Note_on_c, 3, 46, 88
7, 6240, Note_on_c, 3, 49, 88
7, 6240, Note_on_c, 3, 54, 88
7, 6240, Note_on_c, 3, 58, 88
7, 6698, Note_off_c, 3, 46, 0
7, 6698, Note_off_c, 3, 49, 0
7, 6698, Note_off_c, 3, 54, 0
7, 6698, Note_off_c, 3, 58, 0
7, 6720, Note_on_c, 3, 46, 88
7, 6720, Note_on_c, 3, 49, 88
7, 6720, Note_on_c, 3, 54, 88
7, 6720, Note_on_c, 3, 58, 88
7, 7190, Note_off_c, 3, 46, 0
7, 7190, Note_off_c, 3, 49, 0
7, 7190, Note_off_c, 3, 54, 0
7, 7190, Note_off_c, 3, 58, 0
7, 7200, Note_on_c, 3, 47, 88
7, 7200, Note_on_c, 3, 51, 88
7, 7200, Note_on_c, 3, 54, 88
7, 7200, Note_on_c, 3, 59, 88
7, 7670, Note_off_c, 3, 47, 0
7, 7670, Note_off_c, 3, 51, 0
7, 7670, Note_off_c, 3, 54, 0
7, 7670, Note_off_c, 3, 59, 0
7, 8040, Note_on_c, 3, 54, 88
7, 8156, Note_off_c, 3, 54, 0
7, 8160, Note_on_c, 3, 51, 88
7, 8513, Note_off_c, 3, 51, 0
7, 8520, Note_on_c, 3, 47, 88
7, 8636, Note_off_c, 3, 47, 0
7, 8640, Note_on_c, 3, 43, 88
7, 9098, Note_off_c, 3, 43, 0
7, 9120, Note_on_c, 3, 43, 88
7, 9120, Note_on_c, 3, 46, 88
7, 9120, Note_on_c, 3, 51, 88
7, 9120, Note_on_c, 3, 55, 88
7, 9578, Note_off_c, 3, 43, 0
7, 9578, Note_off_c, 3, 46, 0
7, 9578, Note_off_c, 3, 51, 0
7, 9578, Note_off_c, 3, 55, 0
7, 9600, Note_on_c, 3, 43, 88
7, 9600, Note_on_c, 3, 46, 88
7, 9600, Note_on_c, 3, 51, 88
7, 9600, Note_on_c, 3, 55, 88
7, 10070, Note_off_c, 3, 43, 0
7, 10070, Note_off_c, 3, 46, 0
7, 10070, Note_off_c, 3, 51, 0
7, 10070, Note_off_c, 3, 55, 0
7, 10080, Note_on_c, 3, 44, 88
7, 10080, Note_on_c, 3, 47, 88
7, 10080, Note_on_c, 3, 51, 88
7, 10080, Note_on_c, 3, 56, 88
7, 10550, Note_off_c, 3, 44, 0
7, 10550, Note_off_c, 3, 47, 0
7, 10550, Note_off_c, 3, 51, 0
7, 10550, Note_off_c, 3, 56, 0
7, 10920, Note_on_c, 3, 71, 88
7, 11036, Note_off_c, 3, 71, 0
7, 11040, Note_on_c, 3, 68, 88
7, 11393, Note_off_c, 3, 68, 0
7, 11400, Note_on_c, 3, 65, 88
7, 11516, Note_off_c, 3, 65, 0
7, 11520, Note_on_c, 3, 62, 88
7, 11978, Note_off_c, 3, 62, 0
7, 12000, Note_on_c, 3, 62, 88
7, 12000, Note_on_c, 3, 65, 88
7, 12000, Note_on_c, 3, 70, 88
7, 12458, Note_off_c, 3, 62, 0
7, 12458, Note_off_c, 3, 65, 0
7, 12458, Note_off_c, 3, 70, 0
7, 12480, Note_on_c, 3, 62, 88
7, 12480, Note_on_c, 3, 65, 88
7, 12480, Note_on_c, 3, 70, 88
7, 12950, Note_off_c, 3, 62, 0
7, 12950, Note_off_c, 3, 65, 0
7, 12950, Note_off_c, 3, 70, 0
7, 12960, Note_on_c, 3, 63, 88
7, 12960, Note_on_c, 3, 66, 88
7, 12960, Note_on_c, 3, 70, 88
7, 13430, Note_off_c, 3, 63, 0
7, 13430, Note_off_c, 3, 66, 0
7, 13430, Note_off_c, 3, 70, 0
7, 13800, Note_on_c, 3, 66, 88
7, 13916, Note_off_c, 3, 66, 0
7, 13920, Note_on_c, 3, 63, 88
7, 14273, Note_off_c, 3, 63, 0
7, 14280, Note_on_c, 3, 60, 88
7, 14396, Note_off_c, 3, 60, 0
7, 14400, Note_on_c, 3, 57, 88
7, 14858, Note_off_c, 3, 57, 0
7, 14880, Note_on_c, 3, 57, 88
7, 14880, Note_on_c, 3, 60, 88
7, 14880, Note_on_c, 3, 65, 88
7, 15338, Note_off_c, 3, 57, 0
7, 15338, Note_off_c, 3, 60, 0
7, 15338, Note_off_c, 3, 65, 0
7, 15360, Note_on_c, 3, 57, 88
7, 15360, Note_on_c, 3, 60, 88
7, 15360, Note_on_c, 3, 65, 88
7, 15830, Note_off_c, 3, 57, 0
7, 15830, Note_off_c, 3, 60, 0
7, 15830, Note_off_c, 3, 65, 0
7, 15840, Note_on_c, 3, 58, 88
7, 15840, Note_on_c, 3, 61, 88
7, 15840, Note_on_c, 3, 65, 88
7, 16298, Note_off_c, 3, 58, 0
7, 16298, Note_off_c, 3, 61, 0
7, 16298, Note_off_c, 3, 65, 0
7, 16320, Note_on_c, 3, 58, 88
7, 16320, Note_on_c, 3, 61, 88
7, 16320, Note_on_c, 3, 65, 88
7, 16778, Note_off_c, 3, 58, 0
7, 16778, Note_off_c, 3, 61, 0
7, 16778, Note_off_c, 3, 65, 0
7, 16800, Note_on_c, 3, 58, 88
7, 16800, Note_on_c, 3, 61, 88
7, 16800, Note_on_c, 3, 65, 88
7, 17270, Note_off_c, 3, 58, 0
7, 17270, Note_off_c, 3, 61, 0
7, 17270, Note_off_c, 3, 65, 0
7, 17280, Note_on_c, 3, 51, 88
7, 17280, Note_on_c, 3, 58, 88
7, 17280, Note_on_c, 3, 61, 88
7, 17738, Note_off_c, 3, 51, 0
7, 17738, Note_off_c, 3, 58, 0
7, 17750, Note_off_c, 3, 61, 0
7, 17760, Note_on_c, 3, 51, 88
7, 17760, Note_on_c, 3, 58, 88
7, 17760, Note_on_c, 3, 60, 88
7, 18218, Note_off_c, 3, 51, 0
7, 18218, Note_off_c, 3, 58, 0
7, 18218, Note_off_c, 3, 60, 0
7, 18240, Note_on_c, 3, 51, 88
7, 18240, Note_on_c, 3, 58, 88
7, 18240, Note_on_c, 3, 60, 88
7, 18710, Note_off_c, 3, 51, 0
7, 18710, Note_off_c, 3, 58, 0
7, 18710, Note_off_c, 3, 60, 0
7, 18720, Note_on_c, 3, 51, 88
7, 18720, Note_on_c, 3, 57, 88
7, 18720, Note_on_c, 3, 60, 88
7, 19190, Note_off_c, 3, 51, 0
7, 19190, Note_off_c, 3, 57, 0
7, 19190, Note_off_c, 3, 60, 0
7, 19200, Note_on_c, 3, 49, 88
7, 19200, Note_on_c, 3, 53, 88
7, 19200, Note_on_c, 3, 58, 88
7, 19658, Note_off_c, 3, 58, 0
7, 19670, Note_off_c, 3, 49, 0
7, 19670, Note_off_c, 3, 53, 0
7, 19680, Note_on_c, 3, 51, 88
7, 19680, Note_on_c, 3, 58, 88
7, 20150, Note_off_c, 3, 51, 0
7, 20150, Note_off_c, 3, 58, 0
7, 20160, Note_on_c, 3, 53, 88
7, 20618, Note_off_c, 3, 53, 0
7, 20640, Note_on_c, 3, 41, 88
7, 20640, Note_on_c, 3, 53, 88
7, 21098, Note_off_c, 3, 41, 0
7, 21098, Note_off_c, 3, 53, 0
7, 21120, Note_on_c, 3, 41, 88
7, 21120, Note_on_c, 3, 53, 88
7, 21590, Note_off_c, 3, 41, 0
7, 21590, Note_off_c, 3, 53, 0
7, 21600, Note_on_c, 3, 46, 88
7, 21600, Note_on_c, 3, 53, 88
7, 21600, Note_on_c, 3, 58, 88
7, 22070, Note_off_c, 3, 46, 0
7, 22070, Note_off_c, 3, 53, 0
7, 22070, Note_off_c, 3, 58, 0
7, 22440, Note_on_c, 3, 46, 88
7, 22556, Note_off_c, 3, 46, 0
7, 22560, Note_on_c, 3, 49, 88
7, 22913, Note_off_c, 3, 49, 0
7, 22920, Note_on_c, 3, 53, 88
7, 23036, Note_off_c, 3, 53, 0
7, 23040, Note_on_c, 3, 43, 88
7, 23808, Note_off_c, 3, 43, 0
7, 23820, Note_on_c, 3, 46, 88
7, 23878, Note_off_c, 3, 46, 0
7, 23880, Note_on_c, 3, 44, 88
7, 23938, Note_off_c, 3, 44, 0
7, 23940, Note_on_c, 3, 43, 88
7, 23998, Note_off_c, 3, 43, 0
7, 24000, Note_on_c, 3, 49, 88
7, 24833, Note_off_c, 3, 49, 0
7, 24840, Note_on_c, 3, 47, 88
7, 24898, Note_off_c, 3, 47, 0
7, 24900, Note_on_c, 3, 46, 88
7, 24958, Note_off_c, 3, 46, 0
7, 24960, Note_on_c, 3, 52, 88
7, 25076, Note_off_c, 3, 52, 0
7, 25080, Note_on_c, 3, 51, 88
7, 25196, Note_off_c, 3, 51, 0
7, 25200, Note_on_c, 3, 52, 88
7, 25316, Note_off_c, 3, 52, 0
7, 25320, Note_on_c, 3, 49, 88
7, 25436, Note_off_c, 3, 49, 0
7, 25440, Note_on_c, 3, 47, 88
7, 25498, Note_off_c, 3, 47, 0
7, 25500, Note_on_c, 3, 46, 88
7, 25558, Note_off_c, 3, 46, 0
7, 25560, Note_on_c, 3, 44, 88
7, 25618, Note_off_c, 3, 44, 0
7, 25620, Note_on_c, 3, 46, 88
7, 25678, Note_off_c, 3, 46, 0
7, 25680, Note_on_c, 3, 47, 88
7, 25738, Note_off_c, 3, 47, 0
7, 25740, Note_on_c, 3, 44, 88
7, 25798, Note_off_c, 3, 44, 0
7, 25800, Note_on_c, 3, 46, 88
7, 25858, Note_off_c, 3, 46, 0
7, 25860, Note_on_c, 3, 47, 88
7, 25918, Note_off_c, 3, 47, 0
7, 25920, Note_on_c, 3, 40, 88
7, 26214, Note_off_c, 3, 40, 0
7, 26220, Note_on_c, 3, 52, 88
7, 26278, Note_off_c, 3, 52, 0
7, 26280, Note_on_c, 3, 51, 88
7, 26338, Note_off_c, 3, 51, 0
7, 26340, Note_on_c, 3, 49, 88
7, 26398, Note_off_c, 3, 49, 0
7, 26400, Note_on_c, 3, 51, 88
7, 26753, Note_off_c, 3, 51, 0
7, 26760, Note_on_c, 3, 49, 88
7, 26876, Note_off_c, 3, 49, 0
7, 26880, Note_on_c, 3, 51, 88
7, 27233, Note_off_c, 3, 51, 0
7, 27240, Note_on_c, 3, 39, 88
7, 27356, Note_off_c, 3, 39, 0
7, 27360, Note_on_c, 3, 44, 88
7, 27830, Note_off_c, 3, 44, 0
7, 28200, Note_on_c, 3, 59, 88
7, 28316, Note_off_c, 3, 59, 0
7, 28320, Note_on_c, 3, 53, 88
7, 28673, Note_off_c, 3, 53, 0
7, 28680, Note_on_c, 3, 54, 88
7, 28738, Note_off_c, 3, 54, 0
7, 28740, Note_on_c, 3, 56, 88
7, 28798, Note_off_c, 3, 56, 0
7, 28800, Note_on_c, 3, 50, 88
7, 29153, Note_off_c, 3, 50, 0
7, 29160, Note_on_c, 3, 51, 88
7, 29218, Note_off_c, 3, 51, 0
7, 29220, Note_on_c, 3, 53, 88
7, 29278, Note_off_c, 3, 53, 0
7, 29280, Note_on_c, 3, 46, 88
7, 29633, Note_off_c, 3, 46, 0
7, 29640, Note_on_c, 3, 56, 88
7, 29756, Note_off_c, 3, 56, 0
7, 29760, Note_on_c, 3, 50, 88
7, 30113, Note_off_c, 3, 50, 0
7, 30120, Note_on_c, 3, 51, 88
7, 30178, Note_off_c, 3, 51, 0
7, 30180, Note_on_c, 3, 53, 88
7, 30238, Note_off_c, 3, 53, 0
7, 30240, Note_on_c, 3, 42, 88
7, 30710, Note_off_c, 3, 42, 0
7, 30720, Note_on_c, 3, 43, 88
7, 31073, Note_off_c, 3, 43, 0
7, 31080, Note_on_c, 3, 58, 88
7, 31196, Note_off_c, 3, 58, 0
7, 31200, Note_on_c, 3, 55, 88
7, 31553, Note_off_c, 3, 55, 0
7, 31560, Note_on_c, 3, 51, 88
7, 31676, Note_off_c, 3, 51, 0
7, 31680, Note_on_c, 3, 44, 88
7, 32150, Note_off_c, 3, 44, 0
7, 32520, Note_on_c, 3, 59, 88
7, 32636, Note_off_c, 3, 59, 0
7, 32640, Note_on_c, 3, 56, 88
7, 32993, Note_off_c, 3, 56, 0
7, 33000, Note_on_c, 3, 53, 88
7, 33116, Note_off_c, 3, 53, 0
7, 33120, Note_on_c, 3, 50, 88
7, 33120, Note_on_c, 3, 53, 88
7, 33120, Note_on_c, 3, 56, 88
7, 33578, Note_off_c, 3, 50, 0
7, 33578, Note_off_c, 3, 53, 0
7, 33590, Note_off_c, 3, 56, 0
7, 33600, Note_on_c, 3, 50, 88
7, 33600, Note_on_c, 3, 53, 88
7, 33600, Note_on_c, 3, 58, 88
7, 34058, Note_off_c, 3, 50, 0
7, 34058, Note_off_c, 3, 53, 0
7, 34058, Note_off_c, 3, 58, 0
7, 34080, Note_on_c, 3, 50, 88
7, 34080, Note_on_c, 3, 53, 88
7, 34080, Note_on_c, 3, 58, 88
7, 34550, Note_off_c, 3, 50, 0
7, 34550, Note_off_c, 3, 53, 0
7, 34550, Note_off_c, 3, 58, 0
7, 34560, Note_on_c, 3, 51, 88
7, 34560, Note_on_c, 3, 54, 88
7, 34560, Note_on_c, 3, 58, 88
7, 35018, Note_off_c, 3, 51, 0
7, 35018, Note_off_c, 3, 54, 0
7, 35018, Note_off_c, 3, 58, 0
7, 35040, Note_on_c, 3, 51, 88
7, 35040, Note_on_c, 3, 54, 88
7, 35040, Note_on_c, 3, 58, 88
7, 35498, Note_off_c, 3, 51, 0
7, 35498, Note_off_c, 3, 54, 0
7, 35498, Note_off_c, 3, 58, 0
7, 35520, Note_on_c, 3, 51, 88
7, 35520, Note_on_c, 3, 54, 88
7, 35520, Note_on_c, 3, 58, 88
7, 35990, Note_off_c, 3, 51, 0
7, 35990, Note_off_c, 3, 54, 0
7, 35990, Note_off_c, 3, 58, 0
7, 36000, Note_on_c, 3, 44, 88
7, 36000, Note_on_c, 3, 47, 88
7, 36000, Note_on_c, 3, 52, 88
7, 36000, Note_on_c, 3, 56, 88
7, 36470, Note_off_c, 3, 44, 0
7, 36470, Note_off_c, 3, 47, 0
7, 36470, Note_off_c, 3, 52, 0
7, 36470, Note_off_c, 3, 56, 0
7, 37440, Note_on_c, 3, 44, 88
7, 37440, Note_on_c, 3, 53, 88
7, 37440, Note_on_c, 3, 58, 88
7, 37910, Note_off_c, 3, 44, 0
7, 37910, Note_off_c, 3, 53, 0
7, 37910, Note_off_c, 3, 58, 0
7, 39360, Note_on_c, 3, 46, 88
7, 39360, Note_on_c, 3, 51, 88
7, 39360, Note_on_c, 3, 54, 88
7, 39360, Note_on_c, 3, 58, 88
7, 39818, Note_off_c, 3, 46, 0
7, 39818, Note_off_c, 3, 58, 0
7, 39830, Note_off_c, 3, 51, 0
7, 39830, Note_off_c, 3, 54, 0
7, 39840, Note_on_c, 3, 46, 88
7, 39840, Note_on_c, 3, 53, 88
7, 39840, Note_on_c, 3, 56, 88
7, 39840, Note_on_c, 3, 58, 88
7, 40310, Note_off_c, 3, 46, 0
7, 40310, Note_off_c, 3, 53, 0
7, 40310, Note_off_c, 3, 56, 0
7, 40310, Note_off_c, 3, 58, 0
7, 40320, Note_on_c, 3, 47, 88
7, 40320, Note_on_c, 3, 59, 88
7, 40778, Note_off_c, 3, 59, 0
7, 40790, Note_off_c, 3, 47, 0
7, 40800, Note_on_c, 3, 59, 88
7, 40800, Note_on_c, 3, 63, 88
7, 41258, Note_off_c, 3, 59, 0
7, 41258, Note_off_c, 3, 63, 0
7, 41280, Note_on_c, 3, 59, 88
7, 41280, Note_on_c, 3, 63, 88
7, 41750, Note_off_c, 3, 59, 0
7, 41750, Note_off_c, 3, 63, 0
7, 41760, Note_on_c, 3, 55, 88
7, 41760, Note_on_c, 3, 58, 88
7, 41760, Note_on_c, 3, 63, 88
7, 42218, Note_off_c, 3, 55, 0
7, 42218, Note_off_c, 3, 58, 0
7, 42218, Note_off_c, 3, 63, 0
7, 42240, Note_on_c, 3, 55, 88
7, 42240, Note_on_c, 3, 58, 88
7, 42240, Note_on_c, 3, 63, 88
7, 42698, Note_off_c, 3, 55, 0
7, 42698, Note_off_c, 3, 58, 0
7, 42698, Note_off_c, 3, 63, 0
7, 42720, Note_on_c, 3, 55, 88
7, 42720, Note_on_c, 3, 58, 88
7, 42720, Note_on_c, 3, 63, 88
7, 43190, Note_off_c, 3, 55, 0
7, 43190, Note_off_c, 3, 58, 0
7, 43190, Note_off_c, 3, 63, 0
7, 43200, Note_on_c, 3, 56, 88
7, 43200, Note_on_c, 3, 59, 88
7, 43670, Note_off_c, 3, 56, 0
7, 43670, Note_off_c, 3, 59, 0
7, 43680, Note_on_c, 3, 52, 88
7, 44138, Note_off_c, 3, 52, 0
7, 44160, Note_on_c, 3, 52, 88
7, 44630, Note_off_c, 3, 52, 0
7, 44640, Note_on_c, 3, 53, 88
7, 45408, Note_off_c, 3, 53, 0
7, 45420, Note_on_c, 3, 54, 88
7, 45478, Note_off_c, 3, 54, 0
7, 45480, Note_on_c, 3, 53, 88
7, 45538, Note_off_c, 3, 53, 0
7, 45540, Note_on_c, 3, 51, 88
7, 45598, Note_off_c, 3, 51, 0
7, 45600, Note_on_c, 3, 53, 88
7, 45775, Note_off_c, 3, 53, 0
7, 45780, Note_on_c, 3, 54, 88
7, 45838, Note_off_c, 3, 54, 0
7, 45840, Note_on_c, 3, 56, 88
7, 45898, Note_off_c, 3, 56, 0
7, 45900, Note_on_c, 3, 53, 88
7, 45958, Note_off_c, 3, 53, 0
7, 45960, Note_on_c, 3, 54, 88
7, 46018, Note_off_c, 3, 54, 0
7, 46020, Note_on_c, 3, 56, 88
7, 46078, Note_off_c, 3, 56, 0
7, 46080, Note_on_c, 3, 50, 88
7, 46848, Note_off_c, 3, 50, 0
7, 46860, Note_on_c, 3, 51, 88
7, 46918, Note_off_c, 3, 51, 0
7, 46920, Note_on_c, 3, 50, 88
7, 46978, Note_off_c, 3, 50, 0
7, 46980, Note_on_c, 3, 48, 88
7, 47038, Note_off_c, 3, 48, 0
7, 47040, Note_on_c, 3, 50, 88
7, 47215, Note_off_c, 3, 50, 0
7, 47220, Note_on_c, 3, 51, 88
7, 47278, Note_off_c, 3, 51, 0
7, 47280, Note_on_c, 3, 53, 88
7, 47338, Note_off_c, 3, 53, 0
7, 47340, Note_on_c, 3, 50, 88
7, 47398, Note_off_c, 3, 50, 0
7, 47400, Note_on_c, 3, 51, 88
7, 47458, Note_off_c, 3, 51, 0
7, 47460, Note_on_c, 3, 53, 88
7, 47518, Note_off_c, 3, 53, 0
7, 47520, Note_on_c, 3, 47, 88
7, 48288, Note_off_c, 3, 47, 0
7, 48300, Note_on_c, 3, 49, 88
7, 48358, Note_off_c, 3, 49, 0
7, 48360, Note_on_c, 3, 47, 88
7, 48418, Note_off_c, 3, 47, 0
7, 48420, Note_on_c, 3, 46, 88
7, 48478, Note_off_c, 3, 46, 0
7, 48480, Note_on_c, 3, 47, 88
7, 48538, Note_off_c, 3, 47, 0
7, 48540, Note_on_c, 3, 46, 88
7, 48598, Note_off_c, 3, 46, 0
7, 48600, Note_on_c, 3, 44, 88
7, 48658, Note_off_c, 3, 44, 0
7, 48660, Note_on_c, 3, 46, 88
7, 48718, Note_off_c, 3, 46, 0
7, 48720, Note_on_c, 3, 47, 88
7, 48778, Note_off_c, 3, 47, 0
7, 48780, Note_on_c, 3, 44, 88
7, 48838, Note_off_c, 3, 44, 0
7, 48840, Note_on_c, 3, 46, 88
7, 48898, Note_off_c, 3, 46, 0
7, 48900, Note_on_c, 3, 47, 88
7, 48958, Note_off_c, 3, 47, 0
7, 48960, Note_on_c, 3, 38, 88
7, 49430, Note_off_c, 3, 38, 0
7, 50760, Note_on_c, 3, 39, 88
7, 50876, Note_off_c, 3, 39, 0
7, 50880, Note_on_c, 3, 46, 88
7, 51338, Note_off_c, 3, 46, 0
7, 51360, Note_on_c, 3, 46, 88
7, 51830, Note_off_c, 3, 46, 0
7, 51840, Note_on_c, 3, 51, 88
7, 51840, Note_on_c, 3, 55, 88
7, 51840, Note_on_c, 3, 58, 88
7, 51840, Note_on_c, 3, 61, 88
7, 52298, Note_off_c, 3, 51, 0
7, 52298, Note_off_c, 3, 55, 0
7, 52298, Note_off_c, 3, 58, 0
7, 52298, Note_off_c, 3, 61, 0
7, 52320, Note_on_c, 3, 51, 88
7, 52320, Note_on_c, 3, 55, 88
7, 52320, Note_on_c, 3, 58, 88
7, 52320, Note_on_c, 3, 61, 88
7, 52778, Note_off_c, 3, 51, 0
7, 52778, Note_off_c, 3, 55, 0
7, 52778, Note_off_c, 3, 58, 0
7, 52778, Note_off_c, 3, 61, 0
7, 52800, Note_on_c, 3, 51, 88
7, 52800, Note_on_c, 3, 55, 88
7, 52800, Note_on_c, 3, 58, 88
7, 52800, Note_on_c, 3, 61, 88
7, 53270, Note_off_c, 3, 51, 0
7, 53270, Note_off_c, 3, 55, 0
7, 53270, Note_off_c, 3, 58, 0
7, 53270, Note_off_c, 3, 61, 0
7, 53280, Note_on_c, 3, 51, 88
7, 53280, Note_on_c, 3, 56, 88
7, 53738, Note_off_c, 3, 51, 0
7, 53738, Note_off_c, 3, 56, 0
7, 53760, Note_on_c, 3, 51, 88
7, 53760, Note_on_c, 3, 56, 88
7, 54218, Note_off_c, 3, 51, 0
7, 54218, Note_off_c, 3, 56, 0
7, 54240, Note_on_c, 3, 51, 88
7, 54240, Note_on_c, 3, 56, 88
7, 54710, Note_off_c, 3, 51, 0
7, 54710, Note_off_c, 3, 56, 0
7, 54720, Note_on_c, 3, 51, 88
7, 54720, Note_on_c, 3, 53, 88
7, 55178, Note_off_c, 3, 51, 0
7, 55178, Note_off_c, 3, 53, 0
7, 55200, Note_on_c, 3, 51, 88
7, 55200, Note_on_c, 3, 53, 88
7, 55658, Note_off_c, 3, 51, 0
7, 55670, Note_off_c, 3, 53, 0
7, 55680, Note_on_c, 3, 51, 88
7, 56150, Note_off_c, 3, 51, 0
7, 56160, Note_on_c, 3, 39, 88
7, 56160, Note_on_c, 3, 46, 88
7, 57577, Note_off_c, 3, 39, 0
7, 57577, Note_off_c, 3, 46, 0
7, 57577, End_track
0, 0, End_of_file
