0, 0, Header, 1, 7, 240
1, 0, Start_track
1, 0, Time_signature, 4, 2, 24, 8
1, 0, Tempo, 1071428
1, 0, SMPTE_offset, 64, 0, 0, 0, 149
1, 20880, Tempo, 1200000
1, 21120, Tempo, 555555
1, 38160, Tempo, 600000
1, 38400, Tempo, 666666
1, 38520, Tempo, 750000
1, 38700, Tempo, 857142
1, 38820, Tempo, 1000000
1, 38820, End_track
2, 0, Start_track
2, 0, Title_t, "(C) & (P) 1993"
2, 127, End_track
3, 0, Start_track
3, 0, Title_t, "CCARH,Stanford"
3, 0, End_track
4, 0, Start_track
4, 0, Title_t, "Track 1"
4, 0, Program_c, 0, 6
4, 0, Note_on_c, 0, 76, 88
4, 590, Note_off_c, 0, 76, 0
4, 600, Note_on_c, 0, 78, 88
4, 629, Note_off_c, 0, 78, 0
4, 630, Note_on_c, 0, 76, 88
4, 659, Note_off_c, 0, 76, 0
4, 660, Note_on_c, 0, 75, 88
4, 689, Note_off_c, 0, 75, 0
4, 690, Note_on_c, 0, 76, 88
4, 719, Note_off_c, 0, 76, 0
4, 720, Note_on_c, 0, 78, 88
4, 749, Note_off_c, 0, 78, 0
4, 750, Note_on_c, 0, 76, 88
4, 772, Note_off_c, 0, 76, 0
4, 773, Note_on_c, 0, 78, 88
4, 794, Note_off_c, 0, 78, 0
4, 795, Note_on_c, 0, 76, 88
4, 813, Note_off_c, 0, 76, 0
4, 814, Note_on_c, 0, 78, 88
4, 832, Note_off_c, 0, 78, 0
4, 833, Note_on_c, 0, 76, 88
4, 851, Note_off_c, 0, 76, 0
4, 851, Note_on_c, 0, 78, 88
4, 869, Note_off_c, 0, 78, 0
4, 870, Note_on_c, 0, 76, 88
4, 899, Note_off_c, 0, 76, 0
4, 900, Note_on_c, 0, 75, 88
4, 929, Note_off_c, 0, 75, 0
4, 930, Note_on_c, 0, 76, 88
4, 959, Note_off_c, 0, 76, 0
4, 960, Note_on_c, 0, 78, 88
4, 1978, Note_off_c, 0, 78, 0
4, 1980, Note_on_c, 0, 76, 88
4, 2038, Note_off_c, 0, 76, 0
4, 2040, Note_on_c, 0, 75, 88
4, 2098, Note_off_c, 0, 75, 0
4, 2100, Note_on_c, 0, 76, 88
4, 2158, Note_off_c, 0, 76, 0
4, 2160, Note_on_c, 0, 78, 88
4, 2218, Note_off_c, 0, 78, 0
4, 2220, Note_on_c, 0, 76, 88
4, 2278, Note_off_c, 0, 76, 0
4, 2280, Note_on_c, 0, 79, 88
4, 2338, Note_off_c, 0, 79, 0
4, 2340, Note_on_c, 0, 78, 88
4, 2398, Note_off_c, 0, 78, 0
4, 2400, Note_on_c, 0, 81, 88
4, 2665, Note_off_c, 0, 81, 0
4, 2670, Note_on_c, 0, 84, 88
4, 2699, Note_off_c, 0, 84, 0
4, 2700, Note_on_c, 0, 83, 88
4, 2729, Note_off_c, 0, 83, 0
4, 2730, Note_on_c, 0, 81, 88
4, 2759, Note_off_c, 0, 81, 0
4, 2760, Note_on_c, 0, 79, 88
4, 2818, Note_off_c, 0, 79, 0
4, 2820, Note_on_c, 0, 81, 88
4, 2849, Note_off_c, 0, 81, 0
4, 2850, Note_on_c, 0, 78, 88
4, 2879, Note_off_c, 0, 78, 0
4, 2880, Note_on_c, 0, 79, 88
4, 3470, Note_off_c, 0, 79, 0
4, 3480, Note_on_c, 0, 84, 88
4, 3538, Note_off_c, 0, 84, 0
4, 3540, Note_on_c, 0, 83, 88
4, 3598, Note_off_c, 0, 83, 0
4, 3600, Note_on_c, 0, 84, 88
4, 3716, Note_off_c, 0, 84, 0
4, 3720, Note_on_c, 0, 76, 88
4, 3836, Note_off_c, 0, 76, 0
4, 3840, Note_on_c, 0, 78, 88
4, 4430, Note_off_c, 0, 78, 0
4, 4440, Note_on_c, 0, 83, 88
4, 4586, Note_off_c, 0, 83, 0
4, 4590, Note_on_c, 0, 84, 88
4, 4619, Note_off_c, 0, 84, 0
4, 4620, Note_on_c, 0, 83, 88
4, 4649, Note_off_c, 0, 83, 0
4, 4650, Note_on_c, 0, 81, 88
4, 4679, Note_off_c, 0, 81, 0
4, 4680, Note_on_c, 0, 83, 88
4, 4709, Note_off_c, 0, 83, 0
4, 4710, Note_on_c, 0, 79, 88
4, 4739, Note_off_c, 0, 79, 0
4, 4740, Note_on_c, 0, 81, 88
4, 4769, Note_off_c, 0, 81, 0
4, 4770, Note_on_c, 0, 83, 88
4, 4799, Note_off_c, 0, 83, 0
4, 4800, Note_on_c, 0, 76, 88
4, 5331, Note_off_c, 0, 76, 0
4, 5340, Note_on_c, 0, 72, 88
4, 5398, Note_off_c, 0, 72, 0
4, 5400, Note_on_c, 0, 69, 88
4, 5458, Note_off_c, 0, 69, 0
4, 5460, Note_on_c, 0, 71, 88
4, 5518, Note_off_c, 0, 71, 0
4, 5520, Note_on_c, 0, 72, 88
4, 5578, Note_off_c, 0, 72, 0
4, 5580, Note_on_c, 0, 76, 88
4, 5638, Note_off_c, 0, 76, 0
4, 5640, Note_on_c, 0, 74, 88
4, 5698, Note_off_c, 0, 74, 0
4, 5700, Note_on_c, 0, 76, 88
4, 5729, Note_off_c, 0, 76, 0
4, 5730, Note_on_c, 0, 72, 88
4, 5759, Note_off_c, 0, 72, 0
4, 5760, Note_on_c, 0, 74, 88
4, 6350, Note_off_c, 0, 74, 0
4, 6360, Note_on_c, 0, 79, 88
4, 6506, Note_off_c, 0, 79, 0
4, 6510, Note_on_c, 0, 77, 88
4, 6539, Note_off_c, 0, 77, 0
4, 6540, Note_on_c, 0, 76, 88
4, 6569, Note_off_c, 0, 76, 0
4, 6570, Note_on_c, 0, 74, 88
4, 6599, Note_off_c, 0, 74, 0
4, 6600, Note_on_c, 0, 72, 88
4, 6658, Note_off_c, 0, 72, 0
4, 6660, Note_on_c, 0, 74, 88
4, 6689, Note_off_c, 0, 74, 0
4, 6690, Note_on_c, 0, 71, 88
4, 6719, Note_off_c, 0, 71, 0
4, 6720, Note_on_c, 0, 72, 88
4, 7251, Note_off_c, 0, 72, 0
4, 7260, Note_on_c, 0, 74, 88
4, 7318, Note_off_c, 0, 74, 0
4, 7320, Note_on_c, 0, 76, 88
4, 7378, Note_off_c, 0, 76, 0
4, 7380, Note_on_c, 0, 78, 88
4, 7438, Note_off_c, 0, 78, 0
4, 7440, Note_on_c, 0, 79, 88
4, 7498, Note_off_c, 0, 79, 0
4, 7500, Note_on_c, 0, 78, 88
4, 7558, Note_off_c, 0, 78, 0
4, 7560, Note_on_c, 0, 81, 88
4, 7618, Note_off_c, 0, 81, 0
4, 7620, Note_on_c, 0, 72, 88
4, 7678, Note_off_c, 0, 72, 0
4, 7680, Note_on_c, 0, 72, 88
4, 7796, Note_off_c, 0, 72, 0
4, 7800, Note_on_c, 0, 71, 88
4, 8270, Note_off_c, 0, 71, 0
4, 8280, Note_on_c, 0, 71, 88
4, 8396, Note_off_c, 0, 71, 0
4, 8400, Note_on_c, 0, 69, 88
4, 8429, Note_off_c, 0, 69, 0
4, 8430, Note_on_c, 0, 67, 88
4, 8459, Note_off_c, 0, 67, 0
4, 8460, Note_on_c, 0, 66, 88
4, 8518, Note_off_c, 0, 66, 0
4, 8520, Note_on_c, 0, 67, 88
4, 8549, Note_off_c, 0, 67, 0
4, 8550, Note_on_c, 0, 66, 88
4, 8579, Note_off_c, 0, 66, 0
4, 8580, Note_on_c, 0, 64, 88
4, 8638, Note_off_c, 0, 64, 0
4, 8640, Note_on_c, 0, 76, 88
4, 8786, Note_off_c, 0, 76, 0
4, 8790, Note_on_c, 0, 78, 88
4, 8819, Note_off_c, 0, 78, 0
4, 8820, Note_on_c, 0, 76, 88
4, 8849, Note_off_c, 0, 76, 0
4, 8850, Note_on_c, 0, 75, 88
4, 8879, Note_off_c, 0, 75, 0
4, 8880, Note_on_c, 0, 76, 88
4, 9055, Note_off_c, 0, 76, 0
4, 9060, Note_on_c, 0, 78, 88
4, 9118, Note_off_c, 0, 78, 0
4, 9120, Note_on_c, 0, 79, 88
4, 9142, Note_off_c, 0, 79, 0
4, 9143, Note_on_c, 0, 78, 88
4, 9164, Note_off_c, 0, 78, 0
4, 9165, Note_on_c, 0, 79, 88
4, 9187, Note_off_c, 0, 79, 0
4, 9188, Note_on_c, 0, 78, 88
4, 9209, Note_off_c, 0, 78, 0
4, 9210, Note_on_c, 0, 79, 88
4, 9232, Note_off_c, 0, 79, 0
4, 9233, Note_on_c, 0, 78, 88
4, 9254, Note_off_c, 0, 78, 0
4, 9255, Note_on_c, 0, 79, 88
4, 9277, Note_off_c, 0, 79, 0
4, 9278, Note_on_c, 0, 78, 88
4, 9299, Note_off_c, 0, 78, 0
4, 9300, Note_on_c, 0, 79, 88
4, 9322, Note_off_c, 0, 79, 0
4, 9323, Note_on_c, 0, 78, 88
4, 9341, Note_off_c, 0, 78, 0
4, 9341, Note_on_c, 0, 79, 88
4, 9359, Note_off_c, 0, 79, 0
4, 9360, Note_on_c, 0, 78, 88
4, 9476, Note_off_c, 0, 78, 0
4, 9540, Note_on_c, 0, 76, 88
4, 9569, Note_off_c, 0, 76, 0
4, 9570, Note_on_c, 0, 78, 88
4, 9599, Note_off_c, 0, 78, 0
4, 9600, Note_on_c, 0, 79, 88
4, 10131, Note_off_c, 0, 79, 0
4, 10140, Note_on_c, 0, 71, 88
4, 10198, Note_off_c, 0, 71, 0
4, 10200, Note_on_c, 0, 69, 88
4, 10258, Note_off_c, 0, 69, 0
4, 10260, Note_on_c, 0, 67, 88
4, 10376, Note_off_c, 0, 67, 0
4, 10380, Note_on_c, 0, 66, 88
4, 10409, Note_off_c, 0, 66, 0
4, 10410, Note_on_c, 0, 64, 88
4, 10439, Note_off_c, 0, 64, 0
4, 10440, Note_on_c, 0, 63, 88
4, 10498, Note_off_c, 0, 63, 0
4, 10500, Note_on_c, 0, 64, 88
4, 10558, Note_off_c, 0, 64, 0
4, 10560, Note_on_c, 0, 72, 88
4, 10706, Note_off_c, 0, 72, 0
4, 10710, Note_on_c, 0, 71, 88
4, 10739, Note_off_c, 0, 71, 0
4, 10740, Note_on_c, 0, 69, 88
4, 10769, Note_off_c, 0, 69, 0
4, 10770, Note_on_c, 0, 71, 88
4, 10799, Note_off_c, 0, 71, 0
4, 10800, Note_on_c, 0, 72, 88
4, 10829, Note_off_c, 0, 72, 0
4, 10830, Note_on_c, 0, 74, 88
4, 10859, Note_off_c, 0, 74, 0
4, 10860, Note_on_c, 0, 72, 88
4, 10889, Note_off_c, 0, 72, 0
4, 10890, Note_on_c, 0, 71, 88
4, 10919, Note_off_c, 0, 71, 0
4, 10920, Note_on_c, 0, 72, 88
4, 10978, Note_off_c, 0, 72, 0
4, 10980, Note_on_c, 0, 74, 88
4, 11038, Note_off_c, 0, 74, 0
4, 11040, Note_on_c, 0, 76, 88
4, 11062, Note_off_c, 0, 76, 0
4, 11063, Note_on_c, 0, 74, 88
4, 11084, Note_off_c, 0, 74, 0
4, 11085, Note_on_c, 0, 76, 88
4, 11107, Note_off_c, 0, 76, 0
4, 11108, Note_on_c, 0, 74, 88
4, 11129, Note_off_c, 0, 74, 0
4, 11130, Note_on_c, 0, 76, 88
4, 11152, Note_off_c, 0, 76, 0
4, 11153, Note_on_c, 0, 74, 88
4, 11174, Note_off_c, 0, 74, 0
4, 11175, Note_on_c, 0, 76, 88
4, 11197, Note_off_c, 0, 76, 0
4, 11198, Note_on_c, 0, 74, 88
4, 11219, Note_off_c, 0, 74, 0
4, 11220, Note_on_c, 0, 76, 88
4, 11242, Note_off_c, 0, 76, 0
4, 11243, Note_on_c, 0, 74, 88
4, 11261, Note_off_c, 0, 74, 0
4, 11261, Note_on_c, 0, 76, 88
4, 11279, Note_off_c, 0, 76, 0
4, 11280, Note_on_c, 0, 74, 88
4, 11396, Note_off_c, 0, 74, 0
4, 11460, Note_on_c, 0, 72, 88
4, 11489, Note_off_c, 0, 72, 0
4, 11490, Note_on_c, 0, 74, 88
4, 11519, Note_off_c, 0, 74, 0
4, 11520, Note_on_c, 0, 76, 88
4, 12110, Note_off_c, 0, 76, 0
4, 12120, Note_on_c, 0, 74, 88
4, 12178, Note_off_c, 0, 74, 0
4, 12180, Note_on_c, 0, 72, 88
4, 12238, Note_off_c, 0, 72, 0
4, 12240, Note_on_c, 0, 74, 88
4, 12298, Note_off_c, 0, 74, 0
4, 12300, Note_on_c, 0, 71, 88
4, 12358, Note_off_c, 0, 71, 0
4, 12360, Note_on_c, 0, 68, 88
4, 12418, Note_off_c, 0, 68, 0
4, 12420, Note_on_c, 0, 69, 88
4, 12478, Note_off_c, 0, 69, 0
4, 12480, Note_on_c, 0, 74, 88
4, 13011, Note_off_c, 0, 74, 0
4, 13020, Note_on_c, 0, 77, 88
4, 13078, Note_off_c, 0, 77, 0
4, 13080, Note_on_c, 0, 76, 88
4, 13138, Note_off_c, 0, 76, 0
4, 13140, Note_on_c, 0, 74, 88
4, 13193, Note_off_c, 0, 74, 0
4, 13200, Note_on_c, 0, 74, 88
4, 13218, Note_off_c, 0, 74, 0
4, 13219, Note_on_c, 0, 72, 88
4, 13237, Note_off_c, 0, 72, 0
4, 13238, Note_on_c, 0, 74, 88
4, 13256, Note_on_c, 0, 72, 88
4, 13256, Note_off_c, 0, 74, 0
4, 13274, Note_off_c, 0, 72, 0
4, 13275, Note_on_c, 0, 74, 88
4, 13290, Note_on_c, 0, 72, 88
4, 13290, Note_off_c, 0, 74, 0
4, 13377, Note_off_c, 0, 72, 0
4, 13380, Note_on_c, 0, 74, 88
4, 13409, Note_off_c, 0, 74, 0
4, 13410, Note_on_c, 0, 71, 88
4, 13439, Note_off_c, 0, 71, 0
4, 13440, Note_on_c, 0, 72, 88
4, 14694, Note_off_c, 0, 72, 0
4, 14700, Note_on_c, 0, 69, 88
4, 14758, Note_off_c, 0, 69, 0
4, 14760, Note_on_c, 0, 68, 88
4, 14818, Note_off_c, 0, 68, 0
4, 14820, Note_on_c, 0, 69, 88
4, 14878, Note_off_c, 0, 69, 0
4, 14880, Note_on_c, 0, 72, 88
4, 14938, Note_off_c, 0, 72, 0
4, 14940, Note_on_c, 0, 69, 88
4, 14998, Note_off_c, 0, 69, 0
4, 15000, Note_on_c, 0, 68, 88
4, 15058, Note_off_c, 0, 68, 0
4, 15060, Note_on_c, 0, 69, 88
4, 15118, Note_off_c, 0, 69, 0
4, 15120, Note_on_c, 0, 64, 88
4, 15178, Note_off_c, 0, 64, 0
4, 15180, Note_on_c, 0, 69, 88
4, 15238, Note_off_c, 0, 69, 0
4, 15240, Note_on_c, 0, 68, 88
4, 15298, Note_off_c, 0, 68, 0
4, 15300, Note_on_c, 0, 69, 88
4, 15358, Note_off_c, 0, 69, 0
4, 15360, Note_on_c, 0, 72, 88
4, 15950, Note_off_c, 0, 72, 0
4, 15960, Note_on_c, 0, 71, 88
4, 16076, Note_off_c, 0, 71, 0
4, 16080, Note_on_c, 0, 73, 88
4, 16196, Note_off_c, 0, 73, 0
4, 16200, Note_on_c, 0, 76, 88
4, 16258, Note_off_c, 0, 76, 0
4, 16260, Note_on_c, 0, 75, 88
4, 16318, Note_off_c, 0, 75, 0
4, 16320, Note_on_c, 0, 76, 88
4, 17396, Note_off_c, 0, 76, 0
4, 17400, Note_on_c, 0, 75, 88
4, 17458, Note_off_c, 0, 75, 0
4, 17460, Note_on_c, 0, 78, 88
4, 17518, Note_off_c, 0, 78, 0
4, 17520, Note_on_c, 0, 81, 88
4, 17578, Note_off_c, 0, 81, 0
4, 17580, Note_on_c, 0, 84, 88
4, 17638, Note_off_c, 0, 84, 0
4, 17640, Note_on_c, 0, 83, 88
4, 17698, Note_off_c, 0, 83, 0
4, 17700, Note_on_c, 0, 75, 88
4, 17758, Note_off_c, 0, 75, 0
4, 17760, Note_on_c, 0, 76, 88
4, 18505, Note_off_c, 0, 76, 0
4, 18510, Note_on_c, 0, 78, 88
4, 18539, Note_off_c, 0, 78, 0
4, 18540, Note_on_c, 0, 76, 88
4, 18569, Note_off_c, 0, 76, 0
4, 18570, Note_on_c, 0, 75, 88
4, 18599, Note_off_c, 0, 75, 0
4, 18600, Note_on_c, 0, 76, 88
4, 18629, Note_off_c, 0, 76, 0
4, 18630, Note_on_c, 0, 73, 88
4, 18659, Note_off_c, 0, 73, 0
4, 18660, Note_on_c, 0, 75, 88
4, 18718, Note_off_c, 0, 75, 0
4, 18720, Note_on_c, 0, 76, 88
4, 18753, Note_off_c, 0, 76, 0
4, 18754, Note_on_c, 0, 75, 88
4, 18776, Note_off_c, 0, 75, 0
4, 18776, Note_on_c, 0, 76, 88
4, 18798, Note_off_c, 0, 76, 0
4, 18799, Note_on_c, 0, 75, 88
4, 18821, Note_off_c, 0, 75, 0
4, 18821, Note_on_c, 0, 76, 88
4, 18843, Note_off_c, 0, 76, 0
4, 18844, Note_on_c, 0, 75, 88
4, 18866, Note_off_c, 0, 75, 0
4, 18866, Note_on_c, 0, 76, 88
4, 18884, Note_off_c, 0, 76, 0
4, 18885, Note_on_c, 0, 75, 88
4, 18903, Note_off_c, 0, 75, 0
4, 18904, Note_on_c, 0, 76, 88
4, 18922, Note_off_c, 0, 76, 0
4, 18923, Note_on_c, 0, 75, 88
4, 18941, Note_off_c, 0, 75, 0
4, 18941, Note_on_c, 0, 76, 88
4, 18959, Note_off_c, 0, 76, 0
4, 18960, Note_on_c, 0, 75, 88
4, 19076, Note_off_c, 0, 75, 0
4, 19080, Note_on_c, 0, 76, 88
4, 19196, Note_off_c, 0, 76, 0
4, 19200, Note_on_c, 0, 76, 88
4, 21178, Note_off_c, 0, 76, 0
4, 21180, Note_on_c, 0, 81, 88
4, 21238, Note_off_c, 0, 81, 0
4, 21240, Note_on_c, 0, 83, 88
4, 21298, Note_off_c, 0, 83, 0
4, 21300, Note_on_c, 0, 84, 88
4, 21358, Note_off_c, 0, 84, 0
4, 21360, Note_on_c, 0, 83, 88
4, 21418, Note_off_c, 0, 83, 0
4, 21420, Note_on_c, 0, 84, 88
4, 21478, Note_off_c, 0, 84, 0
4, 21480, Note_on_c, 0, 83, 88
4, 21538, Note_off_c, 0, 83, 0
4, 21540, Note_on_c, 0, 81, 88
4, 21598, Note_off_c, 0, 81, 0
4, 21600, Note_on_c, 0, 76, 88
4, 21658, Note_off_c, 0, 76, 0
4, 21660, Note_on_c, 0, 81, 88
4, 21718, Note_off_c, 0, 81, 0
4, 21720, Note_on_c, 0, 83, 88
4, 21778, Note_off_c, 0, 83, 0
4, 21780, Note_on_c, 0, 84, 88
4, 21838, Note_off_c, 0, 84, 0
4, 21840, Note_on_c, 0, 83, 88
4, 21898, Note_off_c, 0, 83, 0
4, 21900, Note_on_c, 0, 84, 88
4, 21958, Note_off_c, 0, 84, 0
4, 21960, Note_on_c, 0, 83, 88
4, 22018, Note_off_c, 0, 83, 0
4, 22020, Note_on_c, 0, 81, 88
4, 22078, Note_off_c, 0, 81, 0
4, 22080, Note_on_c, 0, 83, 88
4, 22138, Note_off_c, 0, 83, 0
4, 22140, Note_on_c, 0, 81, 88
4, 22198, Note_off_c, 0, 81, 0
4, 22200, Note_on_c, 0, 80, 88
4, 22258, Note_off_c, 0, 80, 0
4, 22260, Note_on_c, 0, 81, 88
4, 22318, Note_off_c, 0, 81, 0
4, 22320, Note_on_c, 0, 83, 88
4, 22378, Note_off_c, 0, 83, 0
4, 22380, Note_on_c, 0, 81, 88
4, 22438, Note_off_c, 0, 81, 0
4, 22440, Note_on_c, 0, 80, 88
4, 22498, Note_off_c, 0, 80, 0
4, 22500, Note_on_c, 0, 81, 88
4, 22558, Note_off_c, 0, 81, 0
4, 22560, Note_on_c, 0, 74, 88
4, 22676, Note_off_c, 0, 74, 0
4, 22680, Note_on_c, 0, 83, 88
4, 22855, Note_off_c, 0, 83, 0
4, 22860, Note_on_c, 0, 81, 88
4, 22918, Note_off_c, 0, 81, 0
4, 22920, Note_on_c, 0, 80, 88
4, 22978, Note_off_c, 0, 80, 0
4, 22980, Note_on_c, 0, 81, 88
4, 23038, Note_off_c, 0, 81, 0
4, 23040, Note_on_c, 0, 77, 88
4, 23098, Note_off_c, 0, 77, 0
4, 23100, Note_on_c, 0, 71, 88
4, 23158, Note_off_c, 0, 71, 0
4, 23160, Note_on_c, 0, 72, 88
4, 23218, Note_off_c, 0, 72, 0
4, 23220, Note_on_c, 0, 74, 88
4, 23278, Note_off_c, 0, 74, 0
4, 23280, Note_on_c, 0, 72, 88
4, 23338, Note_off_c, 0, 72, 0
4, 23340, Note_on_c, 0, 74, 88
4, 23398, Note_off_c, 0, 74, 0
4, 23400, Note_on_c, 0, 72, 88
4, 23458, Note_off_c, 0, 72, 0
4, 23460, Note_on_c, 0, 71, 88
4, 23518, Note_off_c, 0, 71, 0
4, 23520, Note_on_c, 0, 76, 88
4, 23578, Note_off_c, 0, 76, 0
4, 23580, Note_on_c, 0, 74, 88
4, 23638, Note_off_c, 0, 74, 0
4, 23640, Note_on_c, 0, 76, 88
4, 23698, Note_off_c, 0, 76, 0
4, 23700, Note_on_c, 0, 77, 88
4, 23758, Note_off_c, 0, 77, 0
4, 23760, Note_on_c, 0, 76, 88
4, 23818, Note_off_c, 0, 76, 0
4, 23820, Note_on_c, 0, 77, 88
4, 23878, Note_off_c, 0, 77, 0
4, 23880, Note_on_c, 0, 76, 88
4, 23938, Note_off_c, 0, 76, 0
4, 23940, Note_on_c, 0, 74, 88
4, 23998, Note_off_c, 0, 74, 0
4, 24000, Note_on_c, 0, 72, 88
4, 24058, Note_off_c, 0, 72, 0
4, 24060, Note_on_c, 0, 68, 88
4, 24118, Note_off_c, 0, 68, 0
4, 24120, Note_on_c, 0, 69, 88
4, 24178, Note_off_c, 0, 69, 0
4, 24180, Note_on_c, 0, 71, 88
4, 24238, Note_off_c, 0, 71, 0
4, 24240, Note_on_c, 0, 69, 88
4, 24298, Note_off_c, 0, 69, 0
4, 24300, Note_on_c, 0, 68, 88
4, 24358, Note_off_c, 0, 68, 0
4, 24360, Note_on_c, 0, 69, 88
4, 24418, Note_off_c, 0, 69, 0
4, 24420, Note_on_c, 0, 71, 88
4, 24478, Note_off_c, 0, 71, 0
4, 24480, Note_on_c, 0, 72, 88
4, 24538, Note_off_c, 0, 72, 0
4, 24540, Note_on_c, 0, 81, 88
4, 24598, Note_off_c, 0, 81, 0
4, 24600, Note_on_c, 0, 79, 88
4, 24658, Note_off_c, 0, 79, 0
4, 24660, Note_on_c, 0, 77, 88
4, 24718, Note_off_c, 0, 77, 0
4, 24720, Note_on_c, 0, 76, 88
4, 24778, Note_off_c, 0, 76, 0
4, 24780, Note_on_c, 0, 77, 88
4, 24838, Note_off_c, 0, 77, 0
4, 24840, Note_on_c, 0, 76, 88
4, 24898, Note_off_c, 0, 76, 0
4, 24900, Note_on_c, 0, 74, 88
4, 24958, Note_off_c, 0, 74, 0
4, 24960, Note_on_c, 0, 73, 88
4, 25018, Note_off_c, 0, 73, 0
4, 25020, Note_on_c, 0, 76, 88
4, 25078, Note_off_c, 0, 76, 0
4, 25080, Note_on_c, 0, 78, 88
4, 25138, Note_off_c, 0, 78, 0
4, 25140, Note_on_c, 0, 79, 88
4, 25198, Note_off_c, 0, 79, 0
4, 25200, Note_on_c, 0, 78, 88
4, 25258, Note_off_c, 0, 78, 0
4, 25260, Note_on_c, 0, 79, 88
4, 25318, Note_off_c, 0, 79, 0
4, 25320, Note_on_c, 0, 78, 88
4, 25378, Note_off_c, 0, 78, 0
4, 25380, Note_on_c, 0, 76, 88
4, 25438, Note_off_c, 0, 76, 0
4, 25440, Note_on_c, 0, 75, 88
4, 25498, Note_off_c, 0, 75, 0
4, 25500, Note_on_c, 0, 78, 88
4, 25558, Note_off_c, 0, 78, 0
4, 25560, Note_on_c, 0, 79, 88
4, 25618, Note_off_c, 0, 79, 0
4, 25620, Note_on_c, 0, 81, 88
4, 25678, Note_off_c, 0, 81, 0
4, 25680, Note_on_c, 0, 79, 88
4, 25738, Note_off_c, 0, 79, 0
4, 25740, Note_on_c, 0, 81, 88
4, 25798, Note_off_c, 0, 81, 0
4, 25800, Note_on_c, 0, 79, 88
4, 25858, Note_off_c, 0, 79, 0
4, 25860, Note_on_c, 0, 78, 88
4, 25918, Note_off_c, 0, 78, 0
4, 25920, Note_on_c, 0, 79, 88
4, 25978, Note_off_c, 0, 79, 0
4, 25980, Note_on_c, 0, 67, 88
4, 26038, Note_off_c, 0, 67, 0
4, 26040, Note_on_c, 0, 69, 88
4, 26098, Note_off_c, 0, 69, 0
4, 26100, Note_on_c, 0, 71, 88
4, 26158, Note_off_c, 0, 71, 0
4, 26160, Note_on_c, 0, 69, 88
4, 26218, Note_off_c, 0, 69, 0
4, 26220, Note_on_c, 0, 71, 88
4, 26278, Note_off_c, 0, 71, 0
4, 26280, Note_on_c, 0, 69, 88
4, 26338, Note_off_c, 0, 69, 0
4, 26340, Note_on_c, 0, 67, 88
4, 26398, Note_off_c, 0, 67, 0
4, 26400, Note_on_c, 0, 77, 88
4, 26458, Note_off_c, 0, 77, 0
4, 26460, Note_on_c, 0, 68, 88
4, 26518, Note_off_c, 0, 68, 0
4, 26520, Note_on_c, 0, 69, 88
4, 26578, Note_off_c, 0, 69, 0
4, 26580, Note_on_c, 0, 71, 88
4, 26638, Note_off_c, 0, 71, 0
4, 26640, Note_on_c, 0, 69, 88
4, 26698, Note_off_c, 0, 69, 0
4, 26700, Note_on_c, 0, 71, 88
4, 26758, Note_off_c, 0, 71, 0
4, 26760, Note_on_c, 0, 69, 88
4, 26818, Note_off_c, 0, 69, 0
4, 26820, Note_on_c, 0, 68, 88
4, 26878, Note_off_c, 0, 68, 0
4, 26880, Note_on_c, 0, 76, 88
4, 26938, Note_off_c, 0, 76, 0
4, 26940, Note_on_c, 0, 69, 88
4, 26998, Note_off_c, 0, 69, 0
4, 27000, Note_on_c, 0, 71, 88
4, 27058, Note_off_c, 0, 71, 0
4, 27060, Note_on_c, 0, 72, 88
4, 27118, Note_off_c, 0, 72, 0
4, 27120, Note_on_c, 0, 71, 88
4, 27178, Note_off_c, 0, 71, 0
4, 27180, Note_on_c, 0, 72, 88
4, 27238, Note_off_c, 0, 72, 0
4, 27240, Note_on_c, 0, 71, 88
4, 27298, Note_off_c, 0, 71, 0
4, 27300, Note_on_c, 0, 69, 88
4, 27358, Note_off_c, 0, 69, 0
4, 27360, Note_on_c, 0, 74, 88
4, 27418, Note_off_c, 0, 74, 0
4, 27420, Note_on_c, 0, 71, 88
4, 27478, Note_off_c, 0, 71, 0
4, 27480, Note_on_c, 0, 72, 88
4, 27538, Note_off_c, 0, 72, 0
4, 27540, Note_on_c, 0, 74, 88
4, 27598, Note_off_c, 0, 74, 0
4, 27600, Note_on_c, 0, 72, 88
4, 27658, Note_off_c, 0, 72, 0
4, 27660, Note_on_c, 0, 74, 88
4, 27718, Note_off_c, 0, 74, 0
4, 27720, Note_on_c, 0, 72, 88
4, 27778, Note_off_c, 0, 72, 0
4, 27780, Note_on_c, 0, 71, 88
4, 27838, Note_off_c, 0, 71, 0
4, 27840, Note_on_c, 0, 72, 88
4, 27898, Note_off_c, 0, 72, 0
4, 27900, Note_on_c, 0, 69, 88
4, 27958, Note_off_c, 0, 69, 0
4, 27960, Note_on_c, 0, 68, 88
4, 28018, Note_off_c, 0, 68, 0
4, 28020, Note_on_c, 0, 69, 88
4, 28078, Note_off_c, 0, 69, 0
4, 28080, Note_on_c, 0, 64, 88
4, 28138, Note_off_c, 0, 64, 0
4, 28140, Note_on_c, 0, 69, 88
4, 28198, Note_off_c, 0, 69, 0
4, 28200, Note_on_c, 0, 68, 88
4, 28258, Note_off_c, 0, 68, 0
4, 28260, Note_on_c, 0, 69, 88
4, 28318, Note_off_c, 0, 69, 0
4, 28320, Note_on_c, 0, 72, 88
4, 28858, Note_off_c, 0, 72, 0
4, 28860, Note_on_c, 0, 69, 88
4, 28918, Note_off_c, 0, 69, 0
4, 28920, Note_on_c, 0, 68, 88
4, 28978, Note_off_c, 0, 68, 0
4, 28980, Note_on_c, 0, 69, 88
4, 29038, Note_off_c, 0, 69, 0
4, 29040, Note_on_c, 0, 63, 88
4, 29098, Note_off_c, 0, 63, 0
4, 29100, Note_on_c, 0, 69, 88
4, 29158, Note_off_c, 0, 69, 0
4, 29160, Note_on_c, 0, 68, 88
4, 29218, Note_off_c, 0, 68, 0
4, 29220, Note_on_c, 0, 69, 88
4, 29278, Note_off_c, 0, 69, 0
4, 29280, Note_on_c, 0, 72, 88
4, 29338, Note_off_c, 0, 72, 0
4, 29340, Note_on_c, 0, 69, 88
4, 29398, Note_off_c, 0, 69, 0
4, 29400, Note_on_c, 0, 68, 88
4, 29458, Note_off_c, 0, 68, 0
4, 29460, Note_on_c, 0, 69, 88
4, 29518, Note_off_c, 0, 69, 0
4, 29520, Note_on_c, 0, 64, 88
4, 29578, Note_off_c, 0, 64, 0
4, 29580, Note_on_c, 0, 69, 88
4, 29638, Note_off_c, 0, 69, 0
4, 29640, Note_on_c, 0, 68, 88
4, 29698, Note_off_c, 0, 68, 0
4, 29700, Note_on_c, 0, 69, 88
4, 29758, Note_off_c, 0, 69, 0
4, 29760, Note_on_c, 0, 72, 88
4, 29818, Note_off_c, 0, 72, 0
4, 29820, Note_on_c, 0, 66, 88
4, 29878, Note_off_c, 0, 66, 0
4, 29880, Note_on_c, 0, 67, 88
4, 29938, Note_off_c, 0, 67, 0
4, 29940, Note_on_c, 0, 69, 88
4, 29998, Note_off_c, 0, 69, 0
4, 30000, Note_on_c, 0, 67, 88
4, 30058, Note_off_c, 0, 67, 0
4, 30060, Note_on_c, 0, 66, 88
4, 30118, Note_off_c, 0, 66, 0
4, 30120, Note_on_c, 0, 64, 88
4, 30178, Note_off_c, 0, 64, 0
4, 30180, Note_on_c, 0, 63, 88
4, 30238, Note_off_c, 0, 63, 0
4, 30240, Note_on_c, 0, 71, 88
4, 30298, Note_off_c, 0, 71, 0
4, 30300, Note_on_c, 0, 64, 88
4, 30358, Note_off_c, 0, 64, 0
4, 30360, Note_on_c, 0, 66, 88
4, 30418, Note_off_c, 0, 66, 0
4, 30420, Note_on_c, 0, 67, 88
4, 30478, Note_off_c, 0, 67, 0
4, 30480, Note_on_c, 0, 66, 88
4, 30538, Note_off_c, 0, 66, 0
4, 30540, Note_on_c, 0, 64, 88
4, 30598, Note_off_c, 0, 64, 0
4, 30600, Note_on_c, 0, 63, 88
4, 30658, Note_off_c, 0, 63, 0
4, 30660, Note_on_c, 0, 64, 88
4, 30718, Note_off_c, 0, 64, 0
4, 30720, Note_on_c, 0, 69, 88
4, 30778, Note_off_c, 0, 69, 0
4, 30780, Note_on_c, 0, 79, 88
4, 30838, Note_off_c, 0, 79, 0
4, 30840, Note_on_c, 0, 81, 88
4, 30898, Note_off_c, 0, 81, 0
4, 30900, Note_on_c, 0, 83, 88
4, 30958, Note_off_c, 0, 83, 0
4, 30960, Note_on_c, 0, 81, 88
4, 31018, Note_off_c, 0, 81, 0
4, 31020, Note_on_c, 0, 83, 88
4, 31078, Note_off_c, 0, 83, 0
4, 31080, Note_on_c, 0, 81, 88
4, 31138, Note_off_c, 0, 81, 0
4, 31140, Note_on_c, 0, 79, 88
4, 31198, Note_off_c, 0, 79, 0
4, 31200, Note_on_c, 0, 69, 88
4, 31258, Note_off_c, 0, 69, 0
4, 31260, Note_on_c, 0, 78, 88
4, 31318, Note_off_c, 0, 78, 0
4, 31320, Note_on_c, 0, 79, 88
4, 31378, Note_off_c, 0, 79, 0
4, 31380, Note_on_c, 0, 81, 88
4, 31438, Note_off_c, 0, 81, 0
4, 31440, Note_on_c, 0, 79, 88
4, 31498, Note_off_c, 0, 79, 0
4, 31500, Note_on_c, 0, 81, 88
4, 31558, Note_off_c, 0, 81, 0
4, 31560, Note_on_c, 0, 79, 88
4, 31618, Note_off_c, 0, 79, 0
4, 31620, Note_on_c, 0, 78, 88
4, 31678, Note_off_c, 0, 78, 0
4, 31680, Note_on_c, 0, 70, 88
4, 31738, Note_off_c, 0, 70, 0
4, 31740, Note_on_c, 0, 76, 88
4, 31798, Note_off_c, 0, 76, 0
4, 31800, Note_on_c, 0, 78, 88
4, 31858, Note_off_c, 0, 78, 0
4, 31860, Note_on_c, 0, 79, 88
4, 31918, Note_off_c, 0, 79, 0
4, 31920, Note_on_c, 0, 78, 88
4, 31978, Note_off_c, 0, 78, 0
4, 31980, Note_on_c, 0, 79, 88
4, 32038, Note_off_c, 0, 79, 0
4, 32040, Note_on_c, 0, 78, 88
4, 32098, Note_off_c, 0, 78, 0
4, 32100, Note_on_c, 0, 76, 88
4, 32158, Note_off_c, 0, 76, 0
4, 32160, Note_on_c, 0, 75, 88
4, 32630, Note_off_c, 0, 75, 0
4, 32700, Note_on_c, 0, 71, 88
4, 32758, Note_off_c, 0, 71, 0
4, 32760, Note_on_c, 0, 72, 88
4, 32818, Note_off_c, 0, 72, 0
4, 32820, Note_on_c, 0, 74, 88
4, 32878, Note_off_c, 0, 74, 0
4, 32880, Note_on_c, 0, 72, 88
4, 32938, Note_off_c, 0, 72, 0
4, 32940, Note_on_c, 0, 74, 88
4, 32998, Note_off_c, 0, 74, 0
4, 33000, Note_on_c, 0, 72, 88
4, 33058, Note_off_c, 0, 72, 0
4, 33060, Note_on_c, 0, 71, 88
4, 33118, Note_off_c, 0, 71, 0
4, 33120, Note_on_c, 0, 69, 88
4, 33590, Note_off_c, 0, 69, 0
4, 33660, Note_on_c, 0, 67, 88
4, 33718, Note_off_c, 0, 67, 0
4, 33720, Note_on_c, 0, 69, 88
4, 33778, Note_off_c, 0, 69, 0
4, 33780, Note_on_c, 0, 71, 88
4, 33838, Note_off_c, 0, 71, 0
4, 33840, Note_on_c, 0, 69, 88
4, 33898, Note_off_c, 0, 69, 0
4, 33900, Note_on_c, 0, 71, 88
4, 33958, Note_off_c, 0, 71, 0
4, 33960, Note_on_c, 0, 69, 88
4, 34018, Note_off_c, 0, 69, 0
4, 34020, Note_on_c, 0, 67, 88
4, 34078, Note_off_c, 0, 67, 0
4, 34140, Note_on_c, 0, 66, 88
4, 34198, Note_off_c, 0, 66, 0
4, 34200, Note_on_c, 0, 67, 88
4, 34258, Note_off_c, 0, 67, 0
4, 34260, Note_on_c, 0, 69, 88
4, 34318, Note_off_c, 0, 69, 0
4, 34320, Note_on_c, 0, 67, 88
4, 34378, Note_off_c, 0, 67, 0
4, 34380, Note_on_c, 0, 69, 88
4, 34438, Note_off_c, 0, 69, 0
4, 34440, Note_on_c, 0, 67, 88
4, 34498, Note_off_c, 0, 67, 0
4, 34500, Note_on_c, 0, 66, 88
4, 34558, Note_off_c, 0, 66, 0
4, 34620, Note_on_c, 0, 64, 88
4, 34678, Note_off_c, 0, 64, 0
4, 34680, Note_on_c, 0, 66, 88
4, 34738, Note_off_c, 0, 66, 0
4, 34740, Note_on_c, 0, 67, 88
4, 34798, Note_off_c, 0, 67, 0
4, 34800, Note_on_c, 0, 66, 88
4, 34858, Note_off_c, 0, 66, 0
4, 34860, Note_on_c, 0, 67, 88
4, 34918, Note_off_c, 0, 67, 0
4, 34920, Note_on_c, 0, 66, 88
4, 34978, Note_off_c, 0, 66, 0
4, 34980, Note_on_c, 0, 64, 88
4, 35038, Note_off_c, 0, 64, 0
4, 35040, Note_on_c, 0, 63, 88
4, 35510, Note_off_c, 0, 63, 0
4, 35520, Note_on_c, 0, 59, 88
4, 35578, Note_off_c, 0, 59, 0
4, 35580, Note_on_c, 0, 61, 88
4, 35638, Note_off_c, 0, 61, 0
4, 35640, Note_on_c, 0, 63, 88
4, 35698, Note_off_c, 0, 63, 0
4, 35700, Note_on_c, 0, 64, 88
4, 35758, Note_off_c, 0, 64, 0
4, 35760, Note_on_c, 0, 66, 88
4, 35818, Note_off_c, 0, 66, 0
4, 35820, Note_on_c, 0, 67, 88
4, 35878, Note_off_c, 0, 67, 0
4, 35880, Note_on_c, 0, 69, 88
4, 35938, Note_off_c, 0, 69, 0
4, 35940, Note_on_c, 0, 71, 88
4, 35998, Note_off_c, 0, 71, 0
4, 36000, Note_on_c, 0, 72, 88
4, 36470, Note_off_c, 0, 72, 0
4, 36480, Note_on_c, 0, 73, 88
4, 36950, Note_off_c, 0, 73, 0
4, 36960, Note_on_c, 0, 75, 88
4, 37430, Note_off_c, 0, 75, 0
4, 37440, Note_on_c, 0, 76, 88
4, 37498, Note_off_c, 0, 76, 0
4, 37500, Note_on_c, 0, 74, 88
4, 37558, Note_off_c, 0, 74, 0
4, 37560, Note_on_c, 0, 72, 88
4, 37618, Note_off_c, 0, 72, 0
4, 37620, Note_on_c, 0, 71, 88
4, 37678, Note_off_c, 0, 71, 0
4, 37680, Note_on_c, 0, 69, 88
4, 37738, Note_off_c, 0, 69, 0
4, 37740, Note_on_c, 0, 67, 88
4, 37798, Note_off_c, 0, 67, 0
4, 37800, Note_on_c, 0, 66, 88
4, 37858, Note_off_c, 0, 66, 0
4, 37860, Note_on_c, 0, 64, 88
4, 37918, Note_off_c, 0, 64, 0
4, 37920, Note_on_c, 0, 72, 88
4, 37978, Note_off_c, 0, 72, 0
4, 37980, Note_on_c, 0, 71, 88
4, 38038, Note_off_c, 0, 71, 0
4, 38040, Note_on_c, 0, 69, 88
4, 38098, Note_off_c, 0, 69, 0
4, 38100, Note_on_c, 0, 67, 88
4, 38158, Note_off_c, 0, 67, 0
4, 38160, Note_on_c, 0, 66, 88
4, 38218, Note_off_c, 0, 66, 0
4, 38220, Note_on_c, 0, 64, 88
4, 38278, Note_off_c, 0, 64, 0
4, 38280, Note_on_c, 0, 63, 88
4, 38338, Note_off_c, 0, 63, 0
4, 38340, Note_on_c, 0, 61, 88
4, 38398, Note_off_c, 0, 61, 0
4, 38400, Note_on_c, 0, 63, 88
4, 38458, Note_off_c, 0, 63, 0
4, 38460, Note_on_c, 0, 59, 88
4, 38518, Note_off_c, 0, 59, 0
4, 38520, Note_on_c, 0, 66, 88
4, 38636, Note_off_c, 0, 66, 0
4, 38700, Note_on_c, 0, 64, 88
4, 38816, Note_off_c, 0, 64, 0
4, 38820, Note_on_c, 0, 63, 88
4, 38878, Note_off_c, 0, 63, 0
4, 38880, Note_on_c, 0, 64, 88
4, 39350, Note_off_c, 0, 64, 0
4, 39350, End_track
5, 0, Start_track
5, 0, Title_t, "Track 2"
5, 0, Program_c, 1, 6
5, 0, Note_on_c, 1, 67, 88
5, 0, Note_on_c, 1, 71, 88
5, 116, Note_off_c, 1, 67, 0
5, 116, Note_off_c, 1, 71, 0
5, 480, Note_on_c, 1, 67, 88
5, 480, Note_on_c, 1, 71, 88
5, 596, Note_off_c, 1, 67, 0
5, 596, Note_off_c, 1, 71, 0
5, 960, Note_on_c, 1, 69, 88
5, 960, Note_on_c, 1, 72, 88
5, 1076, Note_off_c, 1, 69, 0
5, 1076, Note_off_c, 1, 72, 0
5, 1440, Note_on_c, 1, 69, 88
5, 1440, Note_on_c, 1, 72, 88
5, 1556, Note_off_c, 1, 69, 0
5, 1556, Note_off_c, 1, 72, 0
5, 1920, Note_on_c, 1, 69, 88
5, 1920, Note_on_c, 1, 72, 88
5, 2036, Note_off_c, 1, 69, 0
5, 2036, Note_off_c, 1, 72, 0
5, 2400, Note_on_c, 1, 71, 88
5, 2400, Note_on_c, 1, 78, 88
5, 2516, Note_off_c, 1, 71, 0
5, 2516, Note_off_c, 1, 78, 0
5, 2880, Note_on_c, 1, 71, 88
5, 2880, Note_on_c, 1, 76, 88
5, 2996, Note_off_c, 1, 71, 0
5, 2996, Note_off_c, 1, 76, 0
5, 3360, Note_on_c, 1, 71, 88
5, 3360, Note_on_c, 1, 76, 88
5, 3476, Note_off_c, 1, 71, 0
5, 3476, Note_off_c, 1, 76, 0
5, 3840, Note_on_c, 1, 69, 88
5, 3840, Note_on_c, 1, 72, 88
5, 3956, Note_off_c, 1, 69, 0
5, 3956, Note_off_c, 1, 72, 0
5, 4320, Note_on_c, 1, 71, 88
5, 4320, Note_on_c, 1, 74, 88
5, 4436, Note_off_c, 1, 71, 0
5, 4436, Note_off_c, 1, 74, 0
5, 4800, Note_on_c, 1, 67, 88
5, 4800, Note_on_c, 1, 71, 88
5, 4916, Note_off_c, 1, 67, 0
5, 4916, Note_off_c, 1, 71, 0
5, 5280, Note_on_c, 1, 69, 88
5, 5280, Note_on_c, 1, 72, 88
5, 5396, Note_off_c, 1, 69, 0
5, 5396, Note_off_c, 1, 72, 0
5, 5760, Note_on_c, 1, 66, 88
5, 5760, Note_on_c, 1, 69, 88
5, 5876, Note_off_c, 1, 66, 0
5, 5876, Note_off_c, 1, 69, 0
5, 6240, Note_on_c, 1, 67, 88
5, 6240, Note_on_c, 1, 71, 88
5, 6356, Note_off_c, 1, 67, 0
5, 6356, Note_off_c, 1, 71, 0
5, 6720, Note_on_c, 1, 64, 88
5, 6720, Note_on_c, 1, 67, 88
5, 6836, Note_off_c, 1, 64, 0
5, 6836, Note_off_c, 1, 67, 0
5, 7200, Note_on_c, 1, 66, 88
5, 7200, Note_on_c, 1, 69, 88
5, 7316, Note_off_c, 1, 66, 0
5, 7316, Note_off_c, 1, 69, 0
5, 7680, Note_on_c, 1, 62, 88
5, 7680, Note_on_c, 1, 67, 88
5, 7796, Note_off_c, 1, 62, 0
5, 7796, Note_off_c, 1, 67, 0
5, 8160, Note_on_c, 1, 62, 88
5, 8160, Note_on_c, 1, 67, 88
5, 8276, Note_off_c, 1, 62, 0
5, 8276, Note_off_c, 1, 67, 0
5, 8640, Note_on_c, 1, 69, 88
5, 8640, Note_on_c, 1, 73, 88
5, 8756, Note_off_c, 1, 69, 0
5, 8756, Note_off_c, 1, 73, 0
5, 9120, Note_on_c, 1, 69, 88
5, 9120, Note_on_c, 1, 75, 88
5, 9236, Note_off_c, 1, 69, 0
5, 9236, Note_off_c, 1, 75, 0
5, 9600, Note_on_c, 1, 71, 88
5, 9600, Note_on_c, 1, 76, 88
5, 9716, Note_off_c, 1, 71, 0
5, 9716, Note_off_c, 1, 76, 0
5, 10080, Note_on_c, 1, 67, 88
5, 10080, Note_on_c, 1, 71, 88
5, 10196, Note_off_c, 1, 67, 0
5, 10196, Note_off_c, 1, 71, 0
5, 10560, Note_on_c, 1, 65, 88
5, 10560, Note_on_c, 1, 69, 88
5, 10676, Note_off_c, 1, 65, 0
5, 10676, Note_off_c, 1, 69, 0
5, 11040, Note_on_c, 1, 65, 88
5, 11040, Note_on_c, 1, 71, 88
5, 11156, Note_off_c, 1, 65, 0
5, 11156, Note_off_c, 1, 71, 0
5, 11520, Note_on_c, 1, 67, 88
5, 11520, Note_on_c, 1, 72, 88
5, 11636, Note_off_c, 1, 67, 0
5, 11636, Note_off_c, 1, 72, 0
5, 12000, Note_on_c, 1, 64, 88
5, 12000, Note_on_c, 1, 67, 88
5, 12116, Note_off_c, 1, 64, 0
5, 12116, Note_off_c, 1, 67, 0
5, 12480, Note_on_c, 1, 66, 88
5, 12480, Note_on_c, 1, 69, 88
5, 12596, Note_off_c, 1, 66, 0
5, 12596, Note_off_c, 1, 69, 0
5, 12960, Note_on_c, 1, 68, 88
5, 12960, Note_on_c, 1, 71, 88
5, 13076, Note_off_c, 1, 68, 0
5, 13076, Note_off_c, 1, 71, 0
5, 13440, Note_on_c, 1, 64, 88
5, 13440, Note_on_c, 1, 69, 88
5, 13556, Note_off_c, 1, 64, 0
5, 13556, Note_off_c, 1, 69, 0
5, 13920, Note_on_c, 1, 64, 88
5, 13920, Note_on_c, 1, 69, 88
5, 14036, Note_off_c, 1, 64, 0
5, 14036, Note_off_c, 1, 69, 0
5, 14400, Note_on_c, 1, 63, 88
5, 14400, Note_on_c, 1, 69, 88
5, 14516, Note_off_c, 1, 63, 0
5, 14516, Note_off_c, 1, 69, 0
5, 14880, Note_on_c, 1, 64, 88
5, 14880, Note_on_c, 1, 69, 88
5, 14996, Note_off_c, 1, 64, 0
5, 14996, Note_off_c, 1, 69, 0
5, 15360, Note_on_c, 1, 66, 88
5, 15360, Note_on_c, 1, 69, 88
5, 15476, Note_off_c, 1, 66, 0
5, 15476, Note_off_c, 1, 69, 0
5, 15840, Note_on_c, 1, 66, 88
5, 15840, Note_on_c, 1, 69, 88
5, 15956, Note_off_c, 1, 66, 0
5, 15956, Note_off_c, 1, 69, 0
5, 16320, Note_on_c, 1, 68, 88
5, 16320, Note_on_c, 1, 71, 88
5, 16436, Note_off_c, 1, 68, 0
5, 16436, Note_off_c, 1, 71, 0
5, 16800, Note_on_c, 1, 70, 88
5, 16800, Note_on_c, 1, 73, 88
5, 16916, Note_off_c, 1, 70, 0
5, 16916, Note_off_c, 1, 73, 0
5, 17280, Note_on_c, 1, 66, 88
5, 17280, Note_on_c, 1, 69, 88
5, 17396, Note_off_c, 1, 66, 0
5, 17396, Note_off_c, 1, 69, 0
5, 17760, Note_on_c, 1, 67, 88
5, 17760, Note_on_c, 1, 71, 88
5, 17876, Note_off_c, 1, 67, 0
5, 17876, Note_off_c, 1, 71, 0
5, 18240, Note_on_c, 1, 67, 88
5, 18240, Note_on_c, 1, 73, 88
5, 18356, Note_off_c, 1, 67, 0
5, 18356, Note_off_c, 1, 73, 0
5, 18720, Note_on_c, 1, 66, 88
5, 18720, Note_on_c, 1, 71, 88
5, 18836, Note_off_c, 1, 66, 0
5, 18836, Note_off_c, 1, 71, 0
5, 19200, Note_on_c, 1, 67, 88
5, 19200, Note_on_c, 1, 71, 88
5, 19316, Note_off_c, 1, 67, 0
5, 19316, Note_off_c, 1, 71, 0
5, 19680, Note_on_c, 1, 68, 88
5, 19680, Note_on_c, 1, 71, 88
5, 19796, Note_off_c, 1, 68, 0
5, 19796, Note_off_c, 1, 71, 0
5, 20160, Note_on_c, 1, 69, 88
5, 20160, Note_on_c, 1, 72, 88
5, 20276, Note_off_c, 1, 69, 0
5, 20276, Note_off_c, 1, 72, 0
5, 20640, Note_on_c, 1, 71, 88
5, 20640, Note_on_c, 1, 74, 88
5, 20756, Note_off_c, 1, 71, 0
5, 20756, Note_off_c, 1, 74, 0
5, 21120, Note_on_c, 1, 72, 88
5, 21236, Note_off_c, 1, 72, 0
5, 32220, Note_on_c, 1, 69, 88
5, 32278, Note_off_c, 1, 69, 0
5, 32280, Note_on_c, 1, 71, 88
5, 32338, Note_off_c, 1, 71, 0
5, 32340, Note_on_c, 1, 72, 88
5, 32398, Note_off_c, 1, 72, 0
5, 32400, Note_on_c, 1, 71, 88
5, 32458, Note_off_c, 1, 71, 0
5, 32460, Note_on_c, 1, 72, 88
5, 32518, Note_off_c, 1, 72, 0
5, 32520, Note_on_c, 1, 71, 88
5, 32578, Note_off_c, 1, 71, 0
5, 32580, Note_on_c, 1, 69, 88
5, 32638, Note_off_c, 1, 69, 0
5, 32640, Note_on_c, 1, 67, 88
5, 33110, Note_off_c, 1, 67, 0
5, 33180, Note_on_c, 1, 66, 88
5, 33238, Note_off_c, 1, 66, 0
5, 33240, Note_on_c, 1, 67, 88
5, 33298, Note_off_c, 1, 67, 0
5, 33300, Note_on_c, 1, 69, 88
5, 33358, Note_off_c, 1, 69, 0
5, 33360, Note_on_c, 1, 67, 88
5, 33418, Note_off_c, 1, 67, 0
5, 33420, Note_on_c, 1, 69, 88
5, 33478, Note_off_c, 1, 69, 0
5, 33480, Note_on_c, 1, 67, 88
5, 33538, Note_off_c, 1, 67, 0
5, 33540, Note_on_c, 1, 66, 88
5, 33598, Note_off_c, 1, 66, 0
5, 33600, Note_on_c, 1, 64, 88
5, 34070, Note_off_c, 1, 64, 0
5, 34080, Note_on_c, 1, 63, 88
5, 34550, Note_off_c, 1, 63, 0
5, 34560, Note_on_c, 1, 61, 88
5, 35030, Note_off_c, 1, 61, 0
5, 35100, Note_on_c, 1, 57, 88
5, 35158, Note_off_c, 1, 57, 0
5, 35160, Note_on_c, 1, 59, 88
5, 35218, Note_off_c, 1, 59, 0
5, 35220, Note_on_c, 1, 60, 88
5, 35278, Note_off_c, 1, 60, 0
5, 35280, Note_on_c, 1, 59, 88
5, 35338, Note_off_c, 1, 59, 0
5, 35340, Note_on_c, 1, 60, 88
5, 35398, Note_off_c, 1, 60, 0
5, 35400, Note_on_c, 1, 59, 88
5, 35458, Note_off_c, 1, 59, 0
5, 35460, Note_on_c, 1, 57, 88
5, 35518, Note_off_c, 1, 57, 0
5, 36060, Note_on_c, 1, 66, 88
5, 36118, Note_off_c, 1, 66, 0
5, 36120, Note_on_c, 1, 67, 88
5, 36178, Note_off_c, 1, 67, 0
5, 36180, Note_on_c, 1, 69, 88
5, 36238, Note_off_c, 1, 69, 0
5, 36240, Note_on_c, 1, 67, 88
5, 36298, Note_off_c, 1, 67, 0
5, 36300, Note_on_c, 1, 69, 88
5, 36358, Note_off_c, 1, 69, 0
5, 36360, Note_on_c, 1, 67, 88
5, 36418, Note_off_c, 1, 67, 0
5, 36420, Note_on_c, 1, 66, 88
5, 36478, Note_off_c, 1, 66, 0
5, 36540, Note_on_c, 1, 67, 88
5, 36598, Note_off_c, 1, 67, 0
5, 36600, Note_on_c, 1, 69, 88
5, 36658, Note_off_c, 1, 69, 0
5, 36660, Note_on_c, 1, 71, 88
5, 36718, Note_off_c, 1, 71, 0
5, 36720, Note_on_c, 1, 69, 88
5, 36778, Note_off_c, 1, 69, 0
5, 36780, Note_on_c, 1, 71, 88
5, 36838, Note_off_c, 1, 71, 0
5, 36840, Note_on_c, 1, 69, 88
5, 36898, Note_off_c, 1, 69, 0
5, 36900, Note_on_c, 1, 67, 88
5, 36958, Note_off_c, 1, 67, 0
5, 37020, Note_on_c, 1, 69, 88
5, 37078, Note_off_c, 1, 69, 0
5, 37080, Note_on_c, 1, 71, 88
5, 37138, Note_off_c, 1, 71, 0
5, 37140, Note_on_c, 1, 72, 88
5, 37198, Note_off_c, 1, 72, 0
5, 37200, Note_on_c, 1, 71, 88
5, 37258, Note_off_c, 1, 71, 0
5, 37260, Note_on_c, 1, 72, 88
5, 37318, Note_off_c, 1, 72, 0
5, 37320, Note_on_c, 1, 71, 88
5, 37378, Note_off_c, 1, 71, 0
5, 37380, Note_on_c, 1, 69, 88
5, 37438, Note_off_c, 1, 69, 0
5, 37440, Note_on_c, 1, 67, 88
5, 37556, Note_off_c, 1, 67, 0
5, 38460, Note_on_c, 1, 59, 88
5, 38754, Note_off_c, 1, 59, 0
5, 38760, Note_on_c, 1, 57, 88
5, 38876, Note_off_c, 1, 57, 0
5, 38880, Note_on_c, 1, 59, 88
5, 39350, Note_off_c, 1, 59, 0
5, 39350, End_track
6, 0, Start_track
6, 0, Title_t, "Track 3"
6, 0, Program_c, 2, 6
6, 36060, Note_on_c, 2, 51, 88
6, 36118, Note_off_c, 2, 51, 0
6, 36120, Note_on_c, 2, 52, 88
6, 36178, Note_off_c, 2, 52, 0
6, 36180, Note_on_c, 2, 54, 88
6, 36238, Note_off_c, 2, 54, 0
6, 36240, Note_on_c, 2, 52, 88
6, 36298, Note_off_c, 2, 52, 0
6, 36300, Note_on_c, 2, 54, 88
6, 36358, Note_off_c, 2, 54, 0
6, 36360, Note_on_c, 2, 52, 88
6, 36418, Note_off_c, 2, 52, 0
6, 36420, Note_on_c, 2, 51, 88
6, 36478, Note_off_c, 2, 51, 0
6, 36540, Note_on_c, 2, 52, 88
6, 36598, Note_off_c, 2, 52, 0
6, 36600, Note_on_c, 2, 54, 88
6, 36658, Note_off_c, 2, 54, 0
6, 36660, Note_on_c, 2, 55, 88
6, 36718, Note_off_c, 2, 55, 0
6, 36720, Note_on_c, 2, 54, 88
6, 36778, Note_off_c, 2, 54, 0
6, 36780, Note_on_c, 2, 55, 88
6, 36838, Note_off_c, 2, 55, 0
6, 36840, Note_on_c, 2, 54, 88
6, 36898, Note_off_c, 2, 54, 0
6, 36900, Note_on_c, 2, 52, 88
6, 36958, Note_off_c, 2, 52, 0
6, 37020, Note_on_c, 2, 54, 88
6, 37078, Note_off_c, 2, 54, 0
6, 37080, Note_on_c, 2, 55, 88
6, 37138, Note_off_c, 2, 55, 0
6, 37140, Note_on_c, 2, 57, 88
6, 37198, Note_off_c, 2, 57, 0
6, 37200, Note_on_c, 2, 55, 88
6, 37258, Note_off_c, 2, 55, 0
6, 37260, Note_on_c, 2, 57, 88
6, 37318, Note_off_c, 2, 57, 0
6, 37320, Note_on_c, 2, 55, 88
6, 37378, Note_off_c, 2, 55, 0
6, 37380, Note_on_c, 2, 54, 88
6, 37438, Note_off_c, 2, 54, 0
6, 37440, Note_on_c, 2, 52, 88
6, 37556, Note_off_c, 2, 52, 0
6, 37920, Note_on_c, 2, 45, 88
6, 37978, Note_off_c, 2, 45, 0
6, 37980, Note_on_c, 2, 47, 88
6, 38038, Note_off_c, 2, 47, 0
6, 38040, Note_on_c, 2, 48, 88
6, 38098, Note_off_c, 2, 48, 0
6, 38100, Note_on_c, 2, 50, 88
6, 38158, Note_off_c, 2, 50, 0
6, 38160, Note_on_c, 2, 52, 88
6, 38218, Note_off_c, 2, 52, 0
6, 38220, Note_on_c, 2, 54, 88
6, 38278, Note_off_c, 2, 54, 0
6, 38280, Note_on_c, 2, 55, 88
6, 38338, Note_off_c, 2, 55, 0
6, 38340, Note_on_c, 2, 57, 88
6, 38573, Note_off_c, 2, 57, 0
6, 38580, Note_on_c, 2, 57, 88
6, 38638, Note_off_c, 2, 57, 0
6, 38640, Note_on_c, 2, 55, 88
6, 38756, Note_off_c, 2, 55, 0
6, 38760, Note_on_c, 2, 54, 88
6, 38876, Note_off_c, 2, 54, 0
6, 38880, Note_on_c, 2, 56, 88
6, 39350, Note_off_c, 2, 56, 0
6, 39350, End_track
7, 0, Start_track
7, 0, Title_t, "Track 4"
7, 0, Program_c, 3, 6
7, 0, Note_on_c, 3, 52, 88
7, 58, Note_off_c, 3, 52, 0
7, 60, Note_on_c, 3, 55, 88
7, 118, Note_off_c, 3, 55, 0
7, 120, Note_on_c, 3, 57, 88
7, 178, Note_off_c, 3, 57, 0
7, 180, Note_on_c, 3, 59, 88
7, 238, Note_off_c, 3, 59, 0
7, 240, Note_on_c, 3, 57, 88
7, 298, Note_off_c, 3, 57, 0
7, 300, Note_on_c, 3, 59, 88
7, 358, Note_off_c, 3, 59, 0
7, 360, Note_on_c, 3, 57, 88
7, 418, Note_off_c, 3, 57, 0
7, 420, Note_on_c, 3, 55, 88
7, 478, Note_off_c, 3, 55, 0
7, 480, Note_on_c, 3, 52, 88
7, 538, Note_off_c, 3, 52, 0
7, 540, Note_on_c, 3, 55, 88
7, 598, Note_off_c, 3, 55, 0
7, 600, Note_on_c, 3, 57, 88
7, 658, Note_off_c, 3, 57, 0
7, 660, Note_on_c, 3, 59, 88
7, 718, Note_off_c, 3, 59, 0
7, 720, Note_on_c, 3, 57, 88
7, 778, Note_off_c, 3, 57, 0
7, 780, Note_on_c, 3, 59, 88
7, 838, Note_off_c, 3, 59, 0
7, 840, Note_on_c, 3, 57, 88
7, 898, Note_off_c, 3, 57, 0
7, 900, Note_on_c, 3, 55, 88
7, 958, Note_off_c, 3, 55, 0
7, 960, Note_on_c, 3, 52, 88
7, 1018, Note_off_c, 3, 52, 0
7, 1020, Note_on_c, 3, 57, 88
7, 1078, Note_off_c, 3, 57, 0
7, 1080, Note_on_c, 3, 59, 88
7, 1138, Note_off_c, 3, 59, 0
7, 1140, Note_on_c, 3, 60, 88
7, 1198, Note_off_c, 3, 60, 0
7, 1200, Note_on_c, 3, 59, 88
7, 1258, Note_off_c, 3, 59, 0
7, 1260, Note_on_c, 3, 60, 88
7, 1318, Note_off_c, 3, 60, 0
7, 1320, Note_on_c, 3, 59, 88
7, 1378, Note_off_c, 3, 59, 0
7, 1380, Note_on_c, 3, 57, 88
7, 1438, Note_off_c, 3, 57, 0
7, 1440, Note_on_c, 3, 52, 88
7, 1498, Note_off_c, 3, 52, 0
7, 1500, Note_on_c, 3, 57, 88
7, 1558, Note_off_c, 3, 57, 0
7, 1560, Note_on_c, 3, 59, 88
7, 1618, Note_off_c, 3, 59, 0
7, 1620, Note_on_c, 3, 60, 88
7, 1678, Note_off_c, 3, 60, 0
7, 1680, Note_on_c, 3, 59, 88
7, 1738, Note_off_c, 3, 59, 0
7, 1740, Note_on_c, 3, 60, 88
7, 1798, Note_off_c, 3, 60, 0
7, 1800, Note_on_c, 3, 59, 88
7, 1858, Note_off_c, 3, 59, 0
7, 1860, Note_on_c, 3, 57, 88
7, 1918, Note_off_c, 3, 57, 0
7, 1920, Note_on_c, 3, 51, 88
7, 1978, Note_off_c, 3, 51, 0
7, 1980, Note_on_c, 3, 57, 88
7, 2038, Note_off_c, 3, 57, 0
7, 2040, Note_on_c, 3, 59, 88
7, 2098, Note_off_c, 3, 59, 0
7, 2100, Note_on_c, 3, 60, 88
7, 2158, Note_off_c, 3, 60, 0
7, 2160, Note_on_c, 3, 59, 88
7, 2218, Note_off_c, 3, 59, 0
7, 2220, Note_on_c, 3, 60, 88
7, 2278, Note_off_c, 3, 60, 0
7, 2280, Note_on_c, 3, 59, 88
7, 2338, Note_off_c, 3, 59, 0
7, 2340, Note_on_c, 3, 57, 88
7, 2398, Note_off_c, 3, 57, 0
7, 2400, Note_on_c, 3, 51, 88
7, 2458, Note_off_c, 3, 51, 0
7, 2460, Note_on_c, 3, 57, 88
7, 2518, Note_off_c, 3, 57, 0
7, 2520, Note_on_c, 3, 59, 88
7, 2578, Note_off_c, 3, 59, 0
7, 2580, Note_on_c, 3, 60, 88
7, 2638, Note_off_c, 3, 60, 0
7, 2640, Note_on_c, 3, 59, 88
7, 2698, Note_off_c, 3, 59, 0
7, 2700, Note_on_c, 3, 60, 88
7, 2758, Note_off_c, 3, 60, 0
7, 2760, Note_on_c, 3, 59, 88
7, 2818, Note_off_c, 3, 59, 0
7, 2820, Note_on_c, 3, 57, 88
7, 2878, Note_off_c, 3, 57, 0
7, 2880, Note_on_c, 3, 52, 88
7, 2938, Note_off_c, 3, 52, 0
7, 2940, Note_on_c, 3, 55, 88
7, 2998, Note_off_c, 3, 55, 0
7, 3000, Note_on_c, 3, 57, 88
7, 3058, Note_off_c, 3, 57, 0
7, 3060, Note_on_c, 3, 59, 88
7, 3118, Note_off_c, 3, 59, 0
7, 3120, Note_on_c, 3, 57, 88
7, 3178, Note_off_c, 3, 57, 0
7, 3180, Note_on_c, 3, 59, 88
7, 3238, Note_off_c, 3, 59, 0
7, 3240, Note_on_c, 3, 57, 88
7, 3298, Note_off_c, 3, 57, 0
7, 3300, Note_on_c, 3, 55, 88
7, 3358, Note_off_c, 3, 55, 0
7, 3360, Note_on_c, 3, 52, 88
7, 3418, Note_off_c, 3, 52, 0
7, 3420, Note_on_c, 3, 55, 88
7, 3478, Note_off_c, 3, 55, 0
7, 3480, Note_on_c, 3, 57, 88
7, 3538, Note_off_c, 3, 57, 0
7, 3540, Note_on_c, 3, 59, 88
7, 3598, Note_off_c, 3, 59, 0
7, 3600, Note_on_c, 3, 57, 88
7, 3658, Note_off_c, 3, 57, 0
7, 3660, Note_on_c, 3, 59, 88
7, 3718, Note_off_c, 3, 59, 0
7, 3720, Note_on_c, 3, 57, 88
7, 3778, Note_off_c, 3, 57, 0
7, 3780, Note_on_c, 3, 55, 88
7, 3838, Note_off_c, 3, 55, 0
7, 3840, Note_on_c, 3, 52, 88
7, 3898, Note_off_c, 3, 52, 0
7, 3900, Note_on_c, 3, 54, 88
7, 3958, Note_off_c, 3, 54, 0
7, 3960, Note_on_c, 3, 55, 88
7, 4018, Note_off_c, 3, 55, 0
7, 4020, Note_on_c, 3, 57, 88
7, 4078, Note_off_c, 3, 57, 0
7, 4080, Note_on_c, 3, 55, 88
7, 4138, Note_off_c, 3, 55, 0
7, 4140, Note_on_c, 3, 57, 88
7, 4198, Note_off_c, 3, 57, 0
7, 4200, Note_on_c, 3, 55, 88
7, 4258, Note_off_c, 3, 55, 0
7, 4260, Note_on_c, 3, 54, 88
7, 4318, Note_off_c, 3, 54, 0
7, 4320, Note_on_c, 3, 50, 88
7, 4378, Note_off_c, 3, 50, 0
7, 4380, Note_on_c, 3, 54, 88
7, 4438, Note_off_c, 3, 54, 0
7, 4440, Note_on_c, 3, 55, 88
7, 4498, Note_off_c, 3, 55, 0
7, 4500, Note_on_c, 3, 57, 88
7, 4558, Note_off_c, 3, 57, 0
7, 4560, Note_on_c, 3, 55, 88
7, 4618, Note_off_c, 3, 55, 0
7, 4620, Note_on_c, 3, 57, 88
7, 4678, Note_off_c, 3, 57, 0
7, 4680, Note_on_c, 3, 55, 88
7, 4738, Note_off_c, 3, 55, 0
7, 4740, Note_on_c, 3, 54, 88
7, 4798, Note_off_c, 3, 54, 0
7, 4800, Note_on_c, 3, 50, 88
7, 4858, Note_off_c, 3, 50, 0
7, 4860, Note_on_c, 3, 52, 88
7, 4918, Note_off_c, 3, 52, 0
7, 4920, Note_on_c, 3, 54, 88
7, 4978, Note_off_c, 3, 54, 0
7, 4980, Note_on_c, 3, 55, 88
7, 5038, Note_off_c, 3, 55, 0
7, 5040, Note_on_c, 3, 54, 88
7, 5098, Note_off_c, 3, 54, 0
7, 5100, Note_on_c, 3, 55, 88
7, 5158, Note_off_c, 3, 55, 0
7, 5160, Note_on_c, 3, 54, 88
7, 5218, Note_off_c, 3, 54, 0
7, 5220, Note_on_c, 3, 52, 88
7, 5278, Note_off_c, 3, 52, 0
7, 5280, Note_on_c, 3, 48, 88
7, 5338, Note_off_c, 3, 48, 0
7, 5340, Note_on_c, 3, 52, 88
7, 5398, Note_off_c, 3, 52, 0
7, 5400, Note_on_c, 3, 54, 88
7, 5458, Note_off_c, 3, 54, 0
7, 5460, Note_on_c, 3, 55, 88
7, 5518, Note_off_c, 3, 55, 0
7, 5520, Note_on_c, 3, 54, 88
7, 5578, Note_off_c, 3, 54, 0
7, 5580, Note_on_c, 3, 55, 88
7, 5638, Note_off_c, 3, 55, 0
7, 5640, Note_on_c, 3, 54, 88
7, 5698, Note_off_c, 3, 54, 0
7, 5700, Note_on_c, 3, 52, 88
7, 5758, Note_off_c, 3, 52, 0
7, 5760, Note_on_c, 3, 48, 88
7, 5818, Note_off_c, 3, 48, 0
7, 5820, Note_on_c, 3, 54, 88
7, 5878, Note_off_c, 3, 54, 0
7, 5880, Note_on_c, 3, 55, 88
7, 5938, Note_off_c, 3, 55, 0
7, 5940, Note_on_c, 3, 57, 88
7, 5998, Note_off_c, 3, 57, 0
7, 6000, Note_on_c, 3, 55, 88
7, 6058, Note_off_c, 3, 55, 0
7, 6060, Note_on_c, 3, 57, 88
7, 6118, Note_off_c, 3, 57, 0
7, 6120, Note_on_c, 3, 55, 88
7, 6178, Note_off_c, 3, 55, 0
7, 6180, Note_on_c, 3, 54, 88
7, 6238, Note_off_c, 3, 54, 0
7, 6240, Note_on_c, 3, 47, 88
7, 6298, Note_off_c, 3, 47, 0
7, 6300, Note_on_c, 3, 55, 88
7, 6358, Note_off_c, 3, 55, 0
7, 6360, Note_on_c, 3, 57, 88
7, 6418, Note_off_c, 3, 57, 0
7, 6420, Note_on_c, 3, 59, 88
7, 6478, Note_off_c, 3, 59, 0
7, 6480, Note_on_c, 3, 57, 88
7, 6538, Note_off_c, 3, 57, 0
7, 6540, Note_on_c, 3, 59, 88
7, 6598, Note_off_c, 3, 59, 0
7, 6600, Note_on_c, 3, 57, 88
7, 6658, Note_off_c, 3, 57, 0
7, 6660, Note_on_c, 3, 55, 88
7, 6718, Note_off_c, 3, 55, 0
7, 6720, Note_on_c, 3, 47, 88
7, 6778, Note_off_c, 3, 47, 0
7, 6780, Note_on_c, 3, 52, 88
7, 6838, Note_off_c, 3, 52, 0
7, 6840, Note_on_c, 3, 54, 88
7, 6898, Note_off_c, 3, 54, 0
7, 6900, Note_on_c, 3, 55, 88
7, 6958, Note_off_c, 3, 55, 0
7, 6960, Note_on_c, 3, 54, 88
7, 7018, Note_off_c, 3, 54, 0
7, 7020, Note_on_c, 3, 55, 88
7, 7078, Note_off_c, 3, 55, 0
7, 7080, Note_on_c, 3, 54, 88
7, 7138, Note_off_c, 3, 54, 0
7, 7140, Note_on_c, 3, 52, 88
7, 7198, Note_off_c, 3, 52, 0
7, 7200, Note_on_c, 3, 45, 88
7, 7258, Note_off_c, 3, 45, 0
7, 7260, Note_on_c, 3, 54, 88
7, 7318, Note_off_c, 3, 54, 0
7, 7320, Note_on_c, 3, 55, 88
7, 7378, Note_off_c, 3, 55, 0
7, 7380, Note_on_c, 3, 57, 88
7, 7438, Note_off_c, 3, 57, 0
7, 7440, Note_on_c, 3, 55, 88
7, 7498, Note_off_c, 3, 55, 0
7, 7500, Note_on_c, 3, 57, 88
7, 7558, Note_off_c, 3, 57, 0
7, 7560, Note_on_c, 3, 55, 88
7, 7618, Note_off_c, 3, 55, 0
7, 7620, Note_on_c, 3, 54, 88
7, 7678, Note_off_c, 3, 54, 0
7, 7680, Note_on_c, 3, 43, 88
7, 7738, Note_off_c, 3, 43, 0
7, 7740, Note_on_c, 3, 57, 88
7, 7798, Note_off_c, 3, 57, 0
7, 7800, Note_on_c, 3, 59, 88
7, 7858, Note_off_c, 3, 59, 0
7, 7860, Note_on_c, 3, 60, 88
7, 7918, Note_off_c, 3, 60, 0
7, 7920, Note_on_c, 3, 59, 88
7, 7978, Note_off_c, 3, 59, 0
7, 7980, Note_on_c, 3, 60, 88
7, 8038, Note_off_c, 3, 60, 0
7, 8040, Note_on_c, 3, 59, 88
7, 8098, Note_off_c, 3, 59, 0
7, 8100, Note_on_c, 3, 57, 88
7, 8158, Note_off_c, 3, 57, 0
7, 8160, Note_on_c, 3, 55, 88
7, 8218, Note_off_c, 3, 55, 0
7, 8220, Note_on_c, 3, 59, 88
7, 8278, Note_off_c, 3, 59, 0
7, 8280, Note_on_c, 3, 60, 88
7, 8338, Note_off_c, 3, 60, 0
7, 8340, Note_on_c, 3, 62, 88
7, 8398, Note_off_c, 3, 62, 0
7, 8400, Note_on_c, 3, 60, 88
7, 8458, Note_off_c, 3, 60, 0
7, 8460, Note_on_c, 3, 62, 88
7, 8518, Note_off_c, 3, 62, 0
7, 8520, Note_on_c, 3, 60, 88
7, 8578, Note_off_c, 3, 60, 0
7, 8580, Note_on_c, 3, 59, 88
7, 8638, Note_off_c, 3, 59, 0
7, 8640, Note_on_c, 3, 55, 88
7, 8698, Note_off_c, 3, 55, 0
7, 8700, Note_on_c, 3, 61, 88
7, 8758, Note_off_c, 3, 61, 0
7, 8760, Note_on_c, 3, 62, 88
7, 8818, Note_off_c, 3, 62, 0
7, 8820, Note_on_c, 3, 64, 88
7, 8878, Note_off_c, 3, 64, 0
7, 8880, Note_on_c, 3, 62, 88
7, 8938, Note_off_c, 3, 62, 0
7, 8940, Note_on_c, 3, 64, 88
7, 8998, Note_off_c, 3, 64, 0
7, 9000, Note_on_c, 3, 62, 88
7, 9058, Note_off_c, 3, 62, 0
7, 9060, Note_on_c, 3, 61, 88
7, 9118, Note_off_c, 3, 61, 0
7, 9120, Note_on_c, 3, 54, 88
7, 9178, Note_off_c, 3, 54, 0
7, 9180, Note_on_c, 3, 63, 88
7, 9238, Note_off_c, 3, 63, 0
7, 9240, Note_on_c, 3, 64, 88
7, 9298, Note_off_c, 3, 64, 0
7, 9300, Note_on_c, 3, 66, 88
7, 9358, Note_off_c, 3, 66, 0
7, 9360, Note_on_c, 3, 64, 88
7, 9418, Note_off_c, 3, 64, 0
7, 9420, Note_on_c, 3, 66, 88
7, 9478, Note_off_c, 3, 66, 0
7, 9480, Note_on_c, 3, 64, 88
7, 9538, Note_off_c, 3, 64, 0
7, 9540, Note_on_c, 3, 63, 88
7, 9598, Note_off_c, 3, 63, 0
7, 9600, Note_on_c, 3, 52, 88
7, 9658, Note_off_c, 3, 52, 0
7, 9660, Note_on_c, 3, 54, 88
7, 9718, Note_off_c, 3, 54, 0
7, 9720, Note_on_c, 3, 55, 88
7, 9778, Note_off_c, 3, 55, 0
7, 9780, Note_on_c, 3, 57, 88
7, 9838, Note_off_c, 3, 57, 0
7, 9840, Note_on_c, 3, 55, 88
7, 9898, Note_off_c, 3, 55, 0
7, 9900, Note_on_c, 3, 57, 88
7, 9958, Note_off_c, 3, 57, 0
7, 9960, Note_on_c, 3, 55, 88
7, 10018, Note_off_c, 3, 55, 0
7, 10020, Note_on_c, 3, 54, 88
7, 10078, Note_off_c, 3, 54, 0
7, 10080, Note_on_c, 3, 52, 88
7, 10138, Note_off_c, 3, 52, 0
7, 10140, Note_on_c, 3, 55, 88
7, 10198, Note_off_c, 3, 55, 0
7, 10200, Note_on_c, 3, 57, 88
7, 10258, Note_off_c, 3, 57, 0
7, 10260, Note_on_c, 3, 59, 88
7, 10318, Note_off_c, 3, 59, 0
7, 10320, Note_on_c, 3, 57, 88
7, 10378, Note_off_c, 3, 57, 0
7, 10380, Note_on_c, 3, 59, 88
7, 10438, Note_off_c, 3, 59, 0
7, 10440, Note_on_c, 3, 57, 88
7, 10498, Note_off_c, 3, 57, 0
7, 10500, Note_on_c, 3, 55, 88
7, 10558, Note_off_c, 3, 55, 0
7, 10560, Note_on_c, 3, 52, 88
7, 10618, Note_off_c, 3, 52, 0
7, 10620, Note_on_c, 3, 57, 88
7, 10678, Note_off_c, 3, 57, 0
7, 10680, Note_on_c, 3, 59, 88
7, 10738, Note_off_c, 3, 59, 0
7, 10740, Note_on_c, 3, 60, 88
7, 10798, Note_off_c, 3, 60, 0
7, 10800, Note_on_c, 3, 59, 88
7, 10858, Note_off_c, 3, 59, 0
7, 10860, Note_on_c, 3, 60, 88
7, 10918, Note_off_c, 3, 60, 0
7, 10920, Note_on_c, 3, 59, 88
7, 10978, Note_off_c, 3, 59, 0
7, 10980, Note_on_c, 3, 57, 88
7, 11038, Note_off_c, 3, 57, 0
7, 11040, Note_on_c, 3, 50, 88
7, 11098, Note_off_c, 3, 50, 0
7, 11100, Note_on_c, 3, 59, 88
7, 11158, Note_off_c, 3, 59, 0
7, 11160, Note_on_c, 3, 60, 88
7, 11218, Note_off_c, 3, 60, 0
7, 11220, Note_on_c, 3, 62, 88
7, 11278, Note_off_c, 3, 62, 0
7, 11280, Note_on_c, 3, 60, 88
7, 11338, Note_off_c, 3, 60, 0
7, 11340, Note_on_c, 3, 62, 88
7, 11398, Note_off_c, 3, 62, 0
7, 11400, Note_on_c, 3, 60, 88
7, 11458, Note_off_c, 3, 60, 0
7, 11460, Note_on_c, 3, 59, 88
7, 11518, Note_off_c, 3, 59, 0
7, 11520, Note_on_c, 3, 48, 88
7, 11578, Note_off_c, 3, 48, 0
7, 11580, Note_on_c, 3, 50, 88
7, 11638, Note_off_c, 3, 50, 0
7, 11640, Note_on_c, 3, 52, 88
7, 11698, Note_off_c, 3, 52, 0
7, 11700, Note_on_c, 3, 53, 88
7, 11758, Note_off_c, 3, 53, 0
7, 11760, Note_on_c, 3, 52, 88
7, 11818, Note_off_c, 3, 52, 0
7, 11820, Note_on_c, 3, 53, 88
7, 11878, Note_off_c, 3, 53, 0
7, 11880, Note_on_c, 3, 52, 88
7, 11938, Note_off_c, 3, 52, 0
7, 11940, Note_on_c, 3, 50, 88
7, 11998, Note_off_c, 3, 50, 0
7, 12000, Note_on_c, 3, 48, 88
7, 12058, Note_off_c, 3, 48, 0
7, 12060, Note_on_c, 3, 52, 88
7, 12118, Note_off_c, 3, 52, 0
7, 12120, Note_on_c, 3, 53, 88
7, 12178, Note_off_c, 3, 53, 0
7, 12180, Note_on_c, 3, 55, 88
7, 12238, Note_off_c, 3, 55, 0
7, 12240, Note_on_c, 3, 53, 88
7, 12298, Note_off_c, 3, 53, 0
7, 12300, Note_on_c, 3, 55, 88
7, 12358, Note_off_c, 3, 55, 0
7, 12360, Note_on_c, 3, 53, 88
7, 12418, Note_off_c, 3, 53, 0
7, 12420, Note_on_c, 3, 52, 88
7, 12478, Note_off_c, 3, 52, 0
7, 12480, Note_on_c, 3, 48, 88
7, 12538, Note_off_c, 3, 48, 0
7, 12540, Note_on_c, 3, 54, 88
7, 12598, Note_off_c, 3, 54, 0
7, 12600, Note_on_c, 3, 55, 88
7, 12658, Note_off_c, 3, 55, 0
7, 12660, Note_on_c, 3, 57, 88
7, 12718, Note_off_c, 3, 57, 0
7, 12720, Note_on_c, 3, 55, 88
7, 12778, Note_off_c, 3, 55, 0
7, 12780, Note_on_c, 3, 57, 88
7, 12838, Note_off_c, 3, 57, 0
7, 12840, Note_on_c, 3, 55, 88
7, 12898, Note_off_c, 3, 55, 0
7, 12900, Note_on_c, 3, 54, 88
7, 12958, Note_off_c, 3, 54, 0
7, 12960, Note_on_c, 3, 47, 88
7, 13018, Note_off_c, 3, 47, 0
7, 13020, Note_on_c, 3, 56, 88
7, 13078, Note_off_c, 3, 56, 0
7, 13080, Note_on_c, 3, 57, 88
7, 13138, Note_off_c, 3, 57, 0
7, 13140, Note_on_c, 3, 59, 88
7, 13198, Note_off_c, 3, 59, 0
7, 13200, Note_on_c, 3, 57, 88
7, 13258, Note_off_c, 3, 57, 0
7, 13260, Note_on_c, 3, 59, 88
7, 13318, Note_off_c, 3, 59, 0
7, 13320, Note_on_c, 3, 57, 88
7, 13378, Note_off_c, 3, 57, 0
7, 13380, Note_on_c, 3, 56, 88
7, 13438, Note_off_c, 3, 56, 0
7, 13440, Note_on_c, 3, 57, 88
7, 13498, Note_off_c, 3, 57, 0
7, 13500, Note_on_c, 3, 59, 88
7, 13558, Note_off_c, 3, 59, 0
7, 13560, Note_on_c, 3, 60, 88
7, 13618, Note_off_c, 3, 60, 0
7, 13620, Note_on_c, 3, 62, 88
7, 13678, Note_off_c, 3, 62, 0
7, 13680, Note_on_c, 3, 60, 88
7, 13738, Note_off_c, 3, 60, 0
7, 13740, Note_on_c, 3, 62, 88
7, 13798, Note_off_c, 3, 62, 0
7, 13800, Note_on_c, 3, 60, 88
7, 13858, Note_off_c, 3, 60, 0
7, 13860, Note_on_c, 3, 59, 88
7, 13918, Note_off_c, 3, 59, 0
7, 13920, Note_on_c, 3, 55, 88
7, 13978, Note_off_c, 3, 55, 0
7, 13980, Note_on_c, 3, 57, 88
7, 14038, Note_off_c, 3, 57, 0
7, 14040, Note_on_c, 3, 59, 88
7, 14098, Note_off_c, 3, 59, 0
7, 14100, Note_on_c, 3, 60, 88
7, 14158, Note_off_c, 3, 60, 0
7, 14160, Note_on_c, 3, 59, 88
7, 14218, Note_off_c, 3, 59, 0
7, 14220, Note_on_c, 3, 60, 88
7, 14278, Note_off_c, 3, 60, 0
7, 14280, Note_on_c, 3, 59, 88
7, 14338, Note_off_c, 3, 59, 0
7, 14340, Note_on_c, 3, 57, 88
7, 14398, Note_off_c, 3, 57, 0
7, 14400, Note_on_c, 3, 54, 88
7, 14458, Note_off_c, 3, 54, 0
7, 14460, Note_on_c, 3, 57, 88
7, 14518, Note_off_c, 3, 57, 0
7, 14520, Note_on_c, 3, 59, 88
7, 14578, Note_off_c, 3, 59, 0
7, 14580, Note_on_c, 3, 60, 88
7, 14638, Note_off_c, 3, 60, 0
7, 14640, Note_on_c, 3, 59, 88
7, 14698, Note_off_c, 3, 59, 0
7, 14700, Note_on_c, 3, 60, 88
7, 14758, Note_off_c, 3, 60, 0
7, 14760, Note_on_c, 3, 59, 88
7, 14818, Note_off_c, 3, 59, 0
7, 14820, Note_on_c, 3, 57, 88
7, 14878, Note_off_c, 3, 57, 0
7, 14880, Note_on_c, 3, 52, 88
7, 14938, Note_off_c, 3, 52, 0
7, 14940, Note_on_c, 3, 57, 88
7, 14998, Note_off_c, 3, 57, 0
7, 15000, Note_on_c, 3, 59, 88
7, 15058, Note_off_c, 3, 59, 0
7, 15060, Note_on_c, 3, 60, 88
7, 15118, Note_off_c, 3, 60, 0
7, 15120, Note_on_c, 3, 59, 88
7, 15178, Note_off_c, 3, 59, 0
7, 15180, Note_on_c, 3, 60, 88
7, 15238, Note_off_c, 3, 60, 0
7, 15240, Note_on_c, 3, 59, 88
7, 15298, Note_off_c, 3, 59, 0
7, 15300, Note_on_c, 3, 57, 88
7, 15358, Note_off_c, 3, 57, 0
7, 15360, Note_on_c, 3, 51, 88
7, 15418, Note_off_c, 3, 51, 0
7, 15420, Note_on_c, 3, 57, 88
7, 15478, Note_off_c, 3, 57, 0
7, 15480, Note_on_c, 3, 59, 88
7, 15538, Note_off_c, 3, 59, 0
7, 15540, Note_on_c, 3, 60, 88
7, 15598, Note_off_c, 3, 60, 0
7, 15600, Note_on_c, 3, 59, 88
7, 15658, Note_off_c, 3, 59, 0
7, 15660, Note_on_c, 3, 60, 88
7, 15718, Note_off_c, 3, 60, 0
7, 15720, Note_on_c, 3, 59, 88
7, 15778, Note_off_c, 3, 59, 0
7, 15780, Note_on_c, 3, 57, 88
7, 15838, Note_off_c, 3, 57, 0
7, 15840, Note_on_c, 3, 51, 88
7, 15898, Note_off_c, 3, 51, 0
7, 15900, Note_on_c, 3, 54, 88
7, 15958, Note_off_c, 3, 54, 0
7, 15960, Note_on_c, 3, 55, 88
7, 16018, Note_off_c, 3, 55, 0
7, 16020, Note_on_c, 3, 57, 88
7, 16078, Note_off_c, 3, 57, 0
7, 16080, Note_on_c, 3, 55, 88
7, 16138, Note_off_c, 3, 55, 0
7, 16140, Note_on_c, 3, 57, 88
7, 16198, Note_off_c, 3, 57, 0
7, 16200, Note_on_c, 3, 55, 88
7, 16258, Note_off_c, 3, 55, 0
7, 16260, Note_on_c, 3, 54, 88
7, 16318, Note_off_c, 3, 54, 0
7, 16320, Note_on_c, 3, 50, 88
7, 16378, Note_off_c, 3, 50, 0
7, 16380, Note_on_c, 3, 56, 88
7, 16438, Note_off_c, 3, 56, 0
7, 16440, Note_on_c, 3, 57, 88
7, 16498, Note_off_c, 3, 57, 0
7, 16500, Note_on_c, 3, 59, 88
7, 16558, Note_off_c, 3, 59, 0
7, 16560, Note_on_c, 3, 57, 88
7, 16618, Note_off_c, 3, 57, 0
7, 16620, Note_on_c, 3, 59, 88
7, 16678, Note_off_c, 3, 59, 0
7, 16680, Note_on_c, 3, 57, 88
7, 16738, Note_off_c, 3, 57, 0
7, 16740, Note_on_c, 3, 56, 88
7, 16798, Note_off_c, 3, 56, 0
7, 16800, Note_on_c, 3, 49, 88
7, 16858, Note_off_c, 3, 49, 0
7, 16860, Note_on_c, 3, 52, 88
7, 16918, Note_off_c, 3, 52, 0
7, 16920, Note_on_c, 3, 54, 88
7, 16978, Note_off_c, 3, 54, 0
7, 16980, Note_on_c, 3, 55, 88
7, 17038, Note_off_c, 3, 55, 0
7, 17040, Note_on_c, 3, 54, 88
7, 17098, Note_off_c, 3, 54, 0
7, 17100, Note_on_c, 3, 55, 88
7, 17158, Note_off_c, 3, 55, 0
7, 17160, Note_on_c, 3, 54, 88
7, 17218, Note_off_c, 3, 54, 0
7, 17220, Note_on_c, 3, 52, 88
7, 17278, Note_off_c, 3, 52, 0
7, 17280, Note_on_c, 3, 48, 88
7, 17338, Note_off_c, 3, 48, 0
7, 17340, Note_on_c, 3, 54, 88
7, 17398, Note_off_c, 3, 54, 0
7, 17400, Note_on_c, 3, 55, 88
7, 17458, Note_off_c, 3, 55, 0
7, 17460, Note_on_c, 3, 57, 88
7, 17518, Note_off_c, 3, 57, 0
7, 17520, Note_on_c, 3, 55, 88
7, 17578, Note_off_c, 3, 55, 0
7, 17580, Note_on_c, 3, 57, 88
7, 17638, Note_off_c, 3, 57, 0
7, 17640, Note_on_c, 3, 55, 88
7, 17698, Note_off_c, 3, 55, 0
7, 17700, Note_on_c, 3, 54, 88
7, 17758, Note_off_c, 3, 54, 0
7, 17760, Note_on_c, 3, 47, 88
7, 17818, Note_off_c, 3, 47, 0
7, 17820, Note_on_c, 3, 52, 88
7, 17878, Note_off_c, 3, 52, 0
7, 17880, Note_on_c, 3, 54, 88
7, 17938, Note_off_c, 3, 54, 0
7, 17940, Note_on_c, 3, 55, 88
7, 17998, Note_off_c, 3, 55, 0
7, 18000, Note_on_c, 3, 54, 88
7, 18058, Note_off_c, 3, 54, 0
7, 18060, Note_on_c, 3, 55, 88
7, 18118, Note_off_c, 3, 55, 0
7, 18120, Note_on_c, 3, 54, 88
7, 18178, Note_off_c, 3, 54, 0
7, 18180, Note_on_c, 3, 52, 88
7, 18238, Note_off_c, 3, 52, 0
7, 18240, Note_on_c, 3, 46, 88
7, 18298, Note_off_c, 3, 46, 0
7, 18300, Note_on_c, 3, 52, 88
7, 18358, Note_off_c, 3, 52, 0
7, 18360, Note_on_c, 3, 54, 88
7, 18418, Note_off_c, 3, 54, 0
7, 18420, Note_on_c, 3, 55, 88
7, 18478, Note_off_c, 3, 55, 0
7, 18480, Note_on_c, 3, 54, 88
7, 18538, Note_off_c, 3, 54, 0
7, 18540, Note_on_c, 3, 55, 88
7, 18598, Note_off_c, 3, 55, 0
7, 18600, Note_on_c, 3, 54, 88
7, 18658, Note_off_c, 3, 54, 0
7, 18660, Note_on_c, 3, 52, 88
7, 18718, Note_off_c, 3, 52, 0
7, 18720, Note_on_c, 3, 47, 88
7, 18778, Note_off_c, 3, 47, 0
7, 18780, Note_on_c, 3, 54, 88
7, 18838, Note_off_c, 3, 54, 0
7, 18840, Note_on_c, 3, 55, 88
7, 18898, Note_off_c, 3, 55, 0
7, 18900, Note_on_c, 3, 57, 88
7, 18958, Note_off_c, 3, 57, 0
7, 18960, Note_on_c, 3, 55, 88
7, 19018, Note_off_c, 3, 55, 0
7, 19020, Note_on_c, 3, 57, 88
7, 19078, Note_off_c, 3, 57, 0
7, 19080, Note_on_c, 3, 55, 88
7, 19138, Note_off_c, 3, 55, 0
7, 19140, Note_on_c, 3, 54, 88
7, 19198, Note_off_c, 3, 54, 0
7, 19200, Note_on_c, 3, 52, 88
7, 19258, Note_off_c, 3, 52, 0
7, 19260, Note_on_c, 3, 55, 88
7, 19318, Note_off_c, 3, 55, 0
7, 19320, Note_on_c, 3, 57, 88
7, 19378, Note_off_c, 3, 57, 0
7, 19380, Note_on_c, 3, 59, 88
7, 19438, Note_off_c, 3, 59, 0
7, 19440, Note_on_c, 3, 57, 88
7, 19498, Note_off_c, 3, 57, 0
7, 19500, Note_on_c, 3, 59, 88
7, 19558, Note_off_c, 3, 59, 0
7, 19560, Note_on_c, 3, 57, 88
7, 19618, Note_off_c, 3, 57, 0
7, 19620, Note_on_c, 3, 55, 88
7, 19678, Note_off_c, 3, 55, 0
7, 19680, Note_on_c, 3, 50, 88
7, 19738, Note_off_c, 3, 50, 0
7, 19740, Note_on_c, 3, 56, 88
7, 19798, Note_off_c, 3, 56, 0
7, 19800, Note_on_c, 3, 57, 88
7, 19858, Note_off_c, 3, 57, 0
7, 19860, Note_on_c, 3, 59, 88
7, 19918, Note_off_c, 3, 59, 0
7, 19920, Note_on_c, 3, 57, 88
7, 19978, Note_off_c, 3, 57, 0
7, 19980, Note_on_c, 3, 59, 88
7, 20038, Note_off_c, 3, 59, 0
7, 20040, Note_on_c, 3, 57, 88
7, 20098, Note_off_c, 3, 57, 0
7, 20100, Note_on_c, 3, 56, 88
7, 20158, Note_off_c, 3, 56, 0
7, 20160, Note_on_c, 3, 48, 88
7, 20218, Note_off_c, 3, 48, 0
7, 20220, Note_on_c, 3, 57, 88
7, 20278, Note_off_c, 3, 57, 0
7, 20280, Note_on_c, 3, 59, 88
7, 20338, Note_off_c, 3, 59, 0
7, 20340, Note_on_c, 3, 60, 88
7, 20398, Note_off_c, 3, 60, 0
7, 20400, Note_on_c, 3, 59, 88
7, 20458, Note_off_c, 3, 59, 0
7, 20460, Note_on_c, 3, 60, 88
7, 20518, Note_off_c, 3, 60, 0
7, 20520, Note_on_c, 3, 59, 88
7, 20578, Note_off_c, 3, 59, 0
7, 20580, Note_on_c, 3, 57, 88
7, 20638, Note_off_c, 3, 57, 0
7, 20640, Note_on_c, 3, 56, 88
7, 20698, Note_off_c, 3, 56, 0
7, 20700, Note_on_c, 3, 59, 88
7, 20758, Note_off_c, 3, 59, 0
7, 20760, Note_on_c, 3, 60, 88
7, 20818, Note_off_c, 3, 60, 0
7, 20820, Note_on_c, 3, 62, 88
7, 20878, Note_off_c, 3, 62, 0
7, 20880, Note_on_c, 3, 60, 88
7, 20938, Note_off_c, 3, 60, 0
7, 20940, Note_on_c, 3, 62, 88
7, 20998, Note_off_c, 3, 62, 0
7, 21000, Note_on_c, 3, 60, 88
7, 21058, Note_off_c, 3, 60, 0
7, 21060, Note_on_c, 3, 59, 88
7, 21118, Note_off_c, 3, 59, 0
7, 21120, Note_on_c, 3, 57, 88
7, 21178, Note_off_c, 3, 57, 0
7, 21180, Note_on_c, 3, 60, 88
7, 21238, Note_off_c, 3, 60, 0
7, 21240, Note_on_c, 3, 62, 88
7, 21298, Note_off_c, 3, 62, 0
7, 21300, Note_on_c, 3, 64, 88
7, 21358, Note_off_c, 3, 64, 0
7, 21360, Note_on_c, 3, 62, 88
7, 21418, Note_off_c, 3, 62, 0
7, 21420, Note_on_c, 3, 64, 88
7, 21478, Note_off_c, 3, 64, 0
7, 21480, Note_on_c, 3, 62, 88
7, 21538, Note_off_c, 3, 62, 0
7, 21540, Note_on_c, 3, 60, 88
7, 21598, Note_off_c, 3, 60, 0
7, 21600, Note_on_c, 3, 57, 88
7, 21658, Note_off_c, 3, 57, 0
7, 21660, Note_on_c, 3, 60, 88
7, 21718, Note_off_c, 3, 60, 0
7, 21720, Note_on_c, 3, 62, 88
7, 21778, Note_off_c, 3, 62, 0
7, 21780, Note_on_c, 3, 64, 88
7, 21838, Note_off_c, 3, 64, 0
7, 21840, Note_on_c, 3, 62, 88
7, 21898, Note_off_c, 3, 62, 0
7, 21900, Note_on_c, 3, 64, 88
7, 21958, Note_off_c, 3, 64, 0
7, 21960, Note_on_c, 3, 62, 88
7, 22018, Note_off_c, 3, 62, 0
7, 22020, Note_on_c, 3, 60, 88
7, 22078, Note_off_c, 3, 60, 0
7, 22080, Note_on_c, 3, 57, 88
7, 22138, Note_off_c, 3, 57, 0
7, 22140, Note_on_c, 3, 62, 88
7, 22198, Note_off_c, 3, 62, 0
7, 22200, Note_on_c, 3, 64, 88
7, 22258, Note_off_c, 3, 64, 0
7, 22260, Note_on_c, 3, 65, 88
7, 22318, Note_off_c, 3, 65, 0
7, 22320, Note_on_c, 3, 64, 88
7, 22378, Note_off_c, 3, 64, 0
7, 22380, Note_on_c, 3, 65, 88
7, 22438, Note_off_c, 3, 65, 0
7, 22440, Note_on_c, 3, 64, 88
7, 22498, Note_off_c, 3, 64, 0
7, 22500, Note_on_c, 3, 62, 88
7, 22558, Note_off_c, 3, 62, 0
7, 22560, Note_on_c, 3, 57, 88
7, 22618, Note_off_c, 3, 57, 0
7, 22620, Note_on_c, 3, 62, 88
7, 22678, Note_off_c, 3, 62, 0
7, 22680, Note_on_c, 3, 64, 88
7, 22738, Note_off_c, 3, 64, 0
7, 22740, Note_on_c, 3, 65, 88
7, 22798, Note_off_c, 3, 65, 0
7, 22800, Note_on_c, 3, 64, 88
7, 22858, Note_off_c, 3, 64, 0
7, 22860, Note_on_c, 3, 65, 88
7, 22918, Note_off_c, 3, 65, 0
7, 22920, Note_on_c, 3, 64, 88
7, 22978, Note_off_c, 3, 64, 0
7, 22980, Note_on_c, 3, 62, 88
7, 23038, Note_off_c, 3, 62, 0
7, 23040, Note_on_c, 3, 56, 88
7, 23098, Note_off_c, 3, 56, 0
7, 23100, Note_on_c, 3, 62, 88
7, 23158, Note_off_c, 3, 62, 0
7, 23160, Note_on_c, 3, 64, 88
7, 23218, Note_off_c, 3, 64, 0
7, 23220, Note_on_c, 3, 65, 88
7, 23278, Note_off_c, 3, 65, 0
7, 23280, Note_on_c, 3, 64, 88
7, 23338, Note_off_c, 3, 64, 0
7, 23340, Note_on_c, 3, 65, 88
7, 23398, Note_off_c, 3, 65, 0
7, 23400, Note_on_c, 3, 64, 88
7, 23458, Note_off_c, 3, 64, 0
7, 23460, Note_on_c, 3, 62, 88
7, 23518, Note_off_c, 3, 62, 0
7, 23520, Note_on_c, 3, 56, 88
7, 23578, Note_off_c, 3, 56, 0
7, 23580, Note_on_c, 3, 59, 88
7, 23638, Note_off_c, 3, 59, 0
7, 23640, Note_on_c, 3, 60, 88
7, 23698, Note_off_c, 3, 60, 0
7, 23700, Note_on_c, 3, 62, 88
7, 23758, Note_off_c, 3, 62, 0
7, 23760, Note_on_c, 3, 60, 88
7, 23818, Note_off_c, 3, 60, 0
7, 23820, Note_on_c, 3, 62, 88
7, 23878, Note_off_c, 3, 62, 0
7, 23880, Note_on_c, 3, 60, 88
7, 23938, Note_off_c, 3, 60, 0
7, 23940, Note_on_c, 3, 59, 88
7, 23998, Note_off_c, 3, 59, 0
7, 24000, Note_on_c, 3, 57, 88
7, 24058, Note_off_c, 3, 57, 0
7, 24060, Note_on_c, 3, 59, 88
7, 24118, Note_off_c, 3, 59, 0
7, 24120, Note_on_c, 3, 60, 88
7, 24178, Note_off_c, 3, 60, 0
7, 24180, Note_on_c, 3, 62, 88
7, 24238, Note_off_c, 3, 62, 0
7, 24240, Note_on_c, 3, 60, 88
7, 24298, Note_off_c, 3, 60, 0
7, 24300, Note_on_c, 3, 62, 88
7, 24358, Note_off_c, 3, 62, 0
7, 24360, Note_on_c, 3, 60, 88
7, 24418, Note_off_c, 3, 60, 0
7, 24420, Note_on_c, 3, 59, 88
7, 24478, Note_off_c, 3, 59, 0
7, 24480, Note_on_c, 3, 57, 88
7, 24538, Note_off_c, 3, 57, 0
7, 24540, Note_on_c, 3, 59, 88
7, 24598, Note_off_c, 3, 59, 0
7, 24600, Note_on_c, 3, 60, 88
7, 24658, Note_off_c, 3, 60, 0
7, 24660, Note_on_c, 3, 62, 88
7, 24718, Note_off_c, 3, 62, 0
7, 24720, Note_on_c, 3, 60, 88
7, 24778, Note_off_c, 3, 60, 0
7, 24780, Note_on_c, 3, 62, 88
7, 24838, Note_off_c, 3, 62, 0
7, 24840, Note_on_c, 3, 60, 88
7, 24898, Note_off_c, 3, 60, 0
7, 24900, Note_on_c, 3, 59, 88
7, 24958, Note_off_c, 3, 59, 0
7, 24960, Note_on_c, 3, 55, 88
7, 25018, Note_off_c, 3, 55, 0
7, 25020, Note_on_c, 3, 61, 88
7, 25078, Note_off_c, 3, 61, 0
7, 25080, Note_on_c, 3, 62, 88
7, 25138, Note_off_c, 3, 62, 0
7, 25140, Note_on_c, 3, 64, 88
7, 25198, Note_off_c, 3, 64, 0
7, 25200, Note_on_c, 3, 62, 88
7, 25258, Note_off_c, 3, 62, 0
7, 25260, Note_on_c, 3, 64, 88
7, 25318, Note_off_c, 3, 64, 0
7, 25320, Note_on_c, 3, 62, 88
7, 25378, Note_off_c, 3, 62, 0
7, 25380, Note_on_c, 3, 61, 88
7, 25438, Note_off_c, 3, 61, 0
7, 25440, Note_on_c, 3, 54, 88
7, 25498, Note_off_c, 3, 54, 0
7, 25500, Note_on_c, 3, 63, 88
7, 25558, Note_off_c, 3, 63, 0
7, 25560, Note_on_c, 3, 64, 88
7, 25618, Note_off_c, 3, 64, 0
7, 25620, Note_on_c, 3, 66, 88
7, 25678, Note_off_c, 3, 66, 0
7, 25680, Note_on_c, 3, 64, 88
7, 25738, Note_off_c, 3, 64, 0
7, 25740, Note_on_c, 3, 66, 88
7, 25798, Note_off_c, 3, 66, 0
7, 25800, Note_on_c, 3, 64, 88
7, 25858, Note_off_c, 3, 64, 0
7, 25860, Note_on_c, 3, 63, 88
7, 25918, Note_off_c, 3, 63, 0
7, 25920, Note_on_c, 3, 64, 88
7, 25978, Note_off_c, 3, 64, 0
7, 25980, Note_on_c, 3, 52, 88
7, 26038, Note_off_c, 3, 52, 0
7, 26040, Note_on_c, 3, 54, 88
7, 26098, Note_off_c, 3, 54, 0
7, 26100, Note_on_c, 3, 55, 88
7, 26158, Note_off_c, 3, 55, 0
7, 26160, Note_on_c, 3, 54, 88
7, 26218, Note_off_c, 3, 54, 0
7, 26220, Note_on_c, 3, 55, 88
7, 26278, Note_off_c, 3, 55, 0
7, 26280, Note_on_c, 3, 54, 88
7, 26338, Note_off_c, 3, 54, 0
7, 26340, Note_on_c, 3, 52, 88
7, 26398, Note_off_c, 3, 52, 0
7, 26400, Note_on_c, 3, 50, 88
7, 26458, Note_off_c, 3, 50, 0
7, 26460, Note_on_c, 3, 52, 88
7, 26518, Note_off_c, 3, 52, 0
7, 26520, Note_on_c, 3, 53, 88
7, 26578, Note_off_c, 3, 53, 0
7, 26580, Note_on_c, 3, 55, 88
7, 26638, Note_off_c, 3, 55, 0
7, 26640, Note_on_c, 3, 53, 88
7, 26698, Note_off_c, 3, 53, 0
7, 26700, Note_on_c, 3, 55, 88
7, 26758, Note_off_c, 3, 55, 0
7, 26760, Note_on_c, 3, 53, 88
7, 26818, Note_off_c, 3, 53, 0
7, 26820, Note_on_c, 3, 52, 88
7, 26878, Note_off_c, 3, 52, 0
7, 26880, Note_on_c, 3, 48, 88
7, 26938, Note_off_c, 3, 48, 0
7, 26940, Note_on_c, 3, 54, 88
7, 26998, Note_off_c, 3, 54, 0
7, 27000, Note_on_c, 3, 56, 88
7, 27058, Note_off_c, 3, 56, 0
7, 27060, Note_on_c, 3, 57, 88
7, 27118, Note_off_c, 3, 57, 0
7, 27120, Note_on_c, 3, 56, 88
7, 27178, Note_off_c, 3, 56, 0
7, 27180, Note_on_c, 3, 57, 88
7, 27238, Note_off_c, 3, 57, 0
7, 27240, Note_on_c, 3, 56, 88
7, 27298, Note_off_c, 3, 56, 0
7, 27300, Note_on_c, 3, 54, 88
7, 27358, Note_off_c, 3, 54, 0
7, 27360, Note_on_c, 3, 47, 88
7, 27418, Note_off_c, 3, 47, 0
7, 27420, Note_on_c, 3, 56, 88
7, 27478, Note_off_c, 3, 56, 0
7, 27480, Note_on_c, 3, 57, 88
7, 27538, Note_off_c, 3, 57, 0
7, 27540, Note_on_c, 3, 59, 88
7, 27598, Note_off_c, 3, 59, 0
7, 27600, Note_on_c, 3, 57, 88
7, 27658, Note_off_c, 3, 57, 0
7, 27660, Note_on_c, 3, 59, 88
7, 27718, Note_off_c, 3, 59, 0
7, 27720, Note_on_c, 3, 57, 88
7, 27778, Note_off_c, 3, 57, 0
7, 27780, Note_on_c, 3, 56, 88
7, 27838, Note_off_c, 3, 56, 0
7, 27840, Note_on_c, 3, 57, 88
7, 27898, Note_off_c, 3, 57, 0
7, 27900, Note_on_c, 3, 45, 88
7, 27958, Note_off_c, 3, 45, 0
7, 27960, Note_on_c, 3, 47, 88
7, 28018, Note_off_c, 3, 47, 0
7, 28020, Note_on_c, 3, 48, 88
7, 28078, Note_off_c, 3, 48, 0
7, 28080, Note_on_c, 3, 47, 88
7, 28138, Note_off_c, 3, 47, 0
7, 28140, Note_on_c, 3, 48, 88
7, 28198, Note_off_c, 3, 48, 0
7, 28200, Note_on_c, 3, 47, 88
7, 28258, Note_off_c, 3, 47, 0
7, 28260, Note_on_c, 3, 45, 88
7, 28318, Note_off_c, 3, 45, 0
7, 28320, Note_on_c, 3, 43, 88
7, 28378, Note_off_c, 3, 43, 0
7, 28380, Note_on_c, 3, 45, 88
7, 28438, Note_off_c, 3, 45, 0
7, 28440, Note_on_c, 3, 47, 88
7, 28498, Note_off_c, 3, 47, 0
7, 28500, Note_on_c, 3, 48, 88
7, 28558, Note_off_c, 3, 48, 0
7, 28560, Note_on_c, 3, 47, 88
7, 28618, Note_off_c, 3, 47, 0
7, 28620, Note_on_c, 3, 48, 88
7, 28678, Note_off_c, 3, 48, 0
7, 28680, Note_on_c, 3, 47, 88
7, 28738, Note_off_c, 3, 47, 0
7, 28740, Note_on_c, 3, 45, 88
7, 28798, Note_off_c, 3, 45, 0
7, 28800, Note_on_c, 3, 42, 88
7, 28858, Note_off_c, 3, 42, 0
7, 28860, Note_on_c, 3, 45, 88
7, 28918, Note_off_c, 3, 45, 0
7, 28920, Note_on_c, 3, 47, 88
7, 28978, Note_off_c, 3, 47, 0
7, 28980, Note_on_c, 3, 48, 88
7, 29038, Note_off_c, 3, 48, 0
7, 29040, Note_on_c, 3, 47, 88
7, 29098, Note_off_c, 3, 47, 0
7, 29100, Note_on_c, 3, 48, 88
7, 29158, Note_off_c, 3, 48, 0
7, 29160, Note_on_c, 3, 47, 88
7, 29218, Note_off_c, 3, 47, 0
7, 29220, Note_on_c, 3, 45, 88
7, 29278, Note_off_c, 3, 45, 0
7, 29280, Note_on_c, 3, 40, 88
7, 29338, Note_off_c, 3, 40, 0
7, 29340, Note_on_c, 3, 45, 88
7, 29398, Note_off_c, 3, 45, 0
7, 29400, Note_on_c, 3, 47, 88
7, 29458, Note_off_c, 3, 47, 0
7, 29460, Note_on_c, 3, 48, 88
7, 29518, Note_off_c, 3, 48, 0
7, 29520, Note_on_c, 3, 47, 88
7, 29578, Note_off_c, 3, 47, 0
7, 29580, Note_on_c, 3, 48, 88
7, 29638, Note_off_c, 3, 48, 0
7, 29640, Note_on_c, 3, 47, 88
7, 29698, Note_off_c, 3, 47, 0
7, 29700, Note_on_c, 3, 45, 88
7, 29758, Note_off_c, 3, 45, 0
7, 29760, Note_on_c, 3, 39, 88
7, 29818, Note_off_c, 3, 39, 0
7, 29820, Note_on_c, 3, 45, 88
7, 29878, Note_off_c, 3, 45, 0
7, 29880, Note_on_c, 3, 47, 88
7, 29938, Note_off_c, 3, 47, 0
7, 29940, Note_on_c, 3, 48, 88
7, 29998, Note_off_c, 3, 48, 0
7, 30000, Note_on_c, 3, 47, 88
7, 30058, Note_off_c, 3, 47, 0
7, 30060, Note_on_c, 3, 48, 88
7, 30118, Note_off_c, 3, 48, 0
7, 30120, Note_on_c, 3, 47, 88
7, 30178, Note_off_c, 3, 47, 0
7, 30180, Note_on_c, 3, 45, 88
7, 30238, Note_off_c, 3, 45, 0
7, 30240, Note_on_c, 3, 40, 88
7, 30298, Note_off_c, 3, 40, 0
7, 30300, Note_on_c, 3, 43, 88
7, 30358, Note_off_c, 3, 43, 0
7, 30360, Note_on_c, 3, 45, 88
7, 30418, Note_off_c, 3, 45, 0
7, 30420, Note_on_c, 3, 47, 88
7, 30478, Note_off_c, 3, 47, 0
7, 30480, Note_on_c, 3, 45, 88
7, 30538, Note_off_c, 3, 45, 0
7, 30540, Note_on_c, 3, 47, 88
7, 30598, Note_off_c, 3, 47, 0
7, 30600, Note_on_c, 3, 45, 88
7, 30658, Note_off_c, 3, 45, 0
7, 30660, Note_on_c, 3, 43, 88
7, 30718, Note_off_c, 3, 43, 0
7, 30720, Note_on_c, 3, 36, 88
7, 30836, Note_off_c, 3, 36, 0
7, 31260, Note_on_c, 3, 57, 88
7, 31318, Note_off_c, 3, 57, 0
7, 31320, Note_on_c, 3, 59, 88
7, 31378, Note_off_c, 3, 59, 0
7, 31380, Note_on_c, 3, 60, 88
7, 31438, Note_off_c, 3, 60, 0
7, 31440, Note_on_c, 3, 59, 88
7, 31498, Note_off_c, 3, 59, 0
7, 31500, Note_on_c, 3, 60, 88
7, 31558, Note_off_c, 3, 60, 0
7, 31560, Note_on_c, 3, 59, 88
7, 31618, Note_off_c, 3, 59, 0
7, 31620, Note_on_c, 3, 57, 88
7, 31678, Note_off_c, 3, 57, 0
7, 31680, Note_on_c, 3, 49, 88
7, 31796, Note_off_c, 3, 49, 0
7, 32160, Note_on_c, 3, 47, 88
7, 32218, Note_off_c, 3, 47, 0
7, 32220, Note_on_c, 3, 54, 88
7, 32278, Note_off_c, 3, 54, 0
7, 32280, Note_on_c, 3, 55, 88
7, 32338, Note_off_c, 3, 55, 0
7, 32340, Note_on_c, 3, 57, 88
7, 32398, Note_off_c, 3, 57, 0
7, 32400, Note_on_c, 3, 55, 88
7, 32458, Note_off_c, 3, 55, 0
7, 32460, Note_on_c, 3, 57, 88
7, 32518, Note_off_c, 3, 57, 0
7, 32520, Note_on_c, 3, 55, 88
7, 32578, Note_off_c, 3, 55, 0
7, 32580, Note_on_c, 3, 54, 88
7, 32638, Note_off_c, 3, 54, 0
7, 32640, Note_on_c, 3, 47, 88
7, 32698, Note_off_c, 3, 47, 0
7, 32700, Note_on_c, 3, 55, 88
7, 32758, Note_off_c, 3, 55, 0
7, 32760, Note_on_c, 3, 57, 88
7, 32818, Note_off_c, 3, 57, 0
7, 32820, Note_on_c, 3, 59, 88
7, 32878, Note_off_c, 3, 59, 0
7, 32880, Note_on_c, 3, 57, 88
7, 32938, Note_off_c, 3, 57, 0
7, 32940, Note_on_c, 3, 59, 88
7, 32998, Note_off_c, 3, 59, 0
7, 33000, Note_on_c, 3, 57, 88
7, 33058, Note_off_c, 3, 57, 0
7, 33060, Note_on_c, 3, 55, 88
7, 33118, Note_off_c, 3, 55, 0
7, 33120, Note_on_c, 3, 47, 88
7, 33178, Note_off_c, 3, 47, 0
7, 33180, Note_on_c, 3, 57, 88
7, 33238, Note_off_c, 3, 57, 0
7, 33240, Note_on_c, 3, 59, 88
7, 33298, Note_off_c, 3, 59, 0
7, 33300, Note_on_c, 3, 60, 88
7, 33358, Note_off_c, 3, 60, 0
7, 33360, Note_on_c, 3, 59, 88
7, 33418, Note_off_c, 3, 59, 0
7, 33420, Note_on_c, 3, 60, 88
7, 33478, Note_off_c, 3, 60, 0
7, 33480, Note_on_c, 3, 59, 88
7, 33538, Note_off_c, 3, 59, 0
7, 33540, Note_on_c, 3, 57, 88
7, 33598, Note_off_c, 3, 57, 0
7, 33600, Note_on_c, 3, 47, 88
7, 33658, Note_off_c, 3, 47, 0
7, 33660, Note_on_c, 3, 59, 88
7, 33718, Note_off_c, 3, 59, 0
7, 33720, Note_on_c, 3, 60, 88
7, 33778, Note_off_c, 3, 60, 0
7, 33780, Note_on_c, 3, 62, 88
7, 33838, Note_off_c, 3, 62, 0
7, 33840, Note_on_c, 3, 60, 88
7, 33898, Note_off_c, 3, 60, 0
7, 33900, Note_on_c, 3, 62, 88
7, 33958, Note_off_c, 3, 62, 0
7, 33960, Note_on_c, 3, 60, 88
7, 34018, Note_off_c, 3, 60, 0
7, 34020, Note_on_c, 3, 59, 88
7, 34078, Note_off_c, 3, 59, 0
7, 34080, Note_on_c, 3, 47, 88
7, 34138, Note_off_c, 3, 47, 0
7, 34140, Note_on_c, 3, 57, 88
7, 34198, Note_off_c, 3, 57, 0
7, 34200, Note_on_c, 3, 59, 88
7, 34258, Note_off_c, 3, 59, 0
7, 34260, Note_on_c, 3, 60, 88
7, 34318, Note_off_c, 3, 60, 0
7, 34320, Note_on_c, 3, 59, 88
7, 34378, Note_off_c, 3, 59, 0
7, 34380, Note_on_c, 3, 60, 88
7, 34438, Note_off_c, 3, 60, 0
7, 34440, Note_on_c, 3, 59, 88
7, 34498, Note_off_c, 3, 59, 0
7, 34500, Note_on_c, 3, 57, 88
7, 34558, Note_off_c, 3, 57, 0
7, 34560, Note_on_c, 3, 47, 88
7, 34618, Note_off_c, 3, 47, 0
7, 34620, Note_on_c, 3, 55, 88
7, 34678, Note_off_c, 3, 55, 0
7, 34680, Note_on_c, 3, 57, 88
7, 34738, Note_off_c, 3, 57, 0
7, 34740, Note_on_c, 3, 59, 88
7, 34798, Note_off_c, 3, 59, 0
7, 34800, Note_on_c, 3, 57, 88
7, 34858, Note_off_c, 3, 57, 0
7, 34860, Note_on_c, 3, 59, 88
7, 34918, Note_off_c, 3, 59, 0
7, 34920, Note_on_c, 3, 57, 88
7, 34978, Note_off_c, 3, 57, 0
7, 34980, Note_on_c, 3, 55, 88
7, 35038, Note_off_c, 3, 55, 0
7, 35040, Note_on_c, 3, 47, 88
7, 35098, Note_off_c, 3, 47, 0
7, 35100, Note_on_c, 3, 54, 88
7, 35158, Note_off_c, 3, 54, 0
7, 35160, Note_on_c, 3, 55, 88
7, 35218, Note_off_c, 3, 55, 0
7, 35220, Note_on_c, 3, 57, 88
7, 35278, Note_off_c, 3, 57, 0
7, 35280, Note_on_c, 3, 55, 88
7, 35338, Note_off_c, 3, 55, 0
7, 35340, Note_on_c, 3, 57, 88
7, 35398, Note_off_c, 3, 57, 0
7, 35400, Note_on_c, 3, 55, 88
7, 35458, Note_off_c, 3, 55, 0
7, 35460, Note_on_c, 3, 54, 88
7, 35518, Note_off_c, 3, 54, 0
7, 35520, Note_on_c, 3, 55, 88
7, 35578, Note_off_c, 3, 55, 0
7, 35580, Note_on_c, 3, 59, 88
7, 35638, Note_off_c, 3, 59, 0
7, 35640, Note_on_c, 3, 57, 88
7, 35698, Note_off_c, 3, 57, 0
7, 35700, Note_on_c, 3, 55, 88
7, 35758, Note_off_c, 3, 55, 0
7, 35760, Note_on_c, 3, 54, 88
7, 35818, Note_off_c, 3, 54, 0
7, 35820, Note_on_c, 3, 52, 88
7, 35878, Note_off_c, 3, 52, 0
7, 35880, Note_on_c, 3, 51, 88
7, 35938, Note_off_c, 3, 51, 0
7, 35940, Note_on_c, 3, 54, 88
7, 35998, Note_off_c, 3, 54, 0
7, 36000, Note_on_c, 3, 47, 88
7, 36470, Note_off_c, 3, 47, 0
7, 36480, Note_on_c, 3, 47, 88
7, 36950, Note_off_c, 3, 47, 0
7, 36960, Note_on_c, 3, 47, 88
7, 37430, Note_off_c, 3, 47, 0
7, 37440, Note_on_c, 3, 48, 88
7, 37556, Note_off_c, 3, 48, 0
7, 38400, Note_on_c, 3, 47, 88
7, 38870, Note_off_c, 3, 47, 0
7, 38880, Note_on_c, 3, 40, 88
7, 38880, Note_on_c, 3, 52, 88
7, 39350, Note_off_c, 3, 40, 0
7, 39350, Note_off_c, 3, 52, 0
7, 39350, End_track
0, 0, End_of_file
