0, 0, Header, 1, 6, 240
1, 0, Start_track
1, 0, Time_signature, 4, 2, 24, 8
1, 0, Tempo, 555555
1, 0, SMPTE_offset, 64, 0, 0, 0, 118
1, 25920, Tempo, 428571
1, 31680, Tempo, 1764705
1, 32640, Tempo, 535714
1, 32640, End_track
2, 0, Start_track
2, 0, Title_t, "(C) & (P) 1993"
2, 127, End_track
3, 0, Start_track
3, 0, Title_t, "CCARH,Stanford"
3, 0, End_track
4, 0, Start_track
4, 0, Title_t, "Track 1"
4, 0, Program_c, 0, 6
4, 0, Note_on_c, 0, 72, 88
4, 58, Note_off_c, 0, 72, 0
4, 60, Note_on_c, 0, 63, 88
4, 118, Note_off_c, 0, 63, 0
4, 120, Note_on_c, 0, 62, 88
4, 178, Note_off_c, 0, 62, 0
4, 180, Note_on_c, 0, 63, 88
4, 238, Note_off_c, 0, 63, 0
4, 240, Note_on_c, 0, 60, 88
4, 298, Note_off_c, 0, 60, 0
4, 300, Note_on_c, 0, 63, 88
4, 358, Note_off_c, 0, 63, 0
4, 360, Note_on_c, 0, 62, 88
4, 418, Note_off_c, 0, 62, 0
4, 420, Note_on_c, 0, 63, 88
4, 478, Note_off_c, 0, 63, 0
4, 480, Note_on_c, 0, 72, 88
4, 538, Note_off_c, 0, 72, 0
4, 540, Note_on_c, 0, 63, 88
4, 598, Note_off_c, 0, 63, 0
4, 600, Note_on_c, 0, 62, 88
4, 658, Note_off_c, 0, 62, 0
4, 660, Note_on_c, 0, 63, 88
4, 718, Note_off_c, 0, 63, 0
4, 720, Note_on_c, 0, 60, 88
4, 778, Note_off_c, 0, 60, 0
4, 780, Note_on_c, 0, 63, 88
4, 838, Note_off_c, 0, 63, 0
4, 840, Note_on_c, 0, 62, 88
4, 898, Note_off_c, 0, 62, 0
4, 900, Note_on_c, 0, 63, 88
4, 958, Note_off_c, 0, 63, 0
4, 960, Note_on_c, 0, 68, 88
4, 1018, Note_off_c, 0, 68, 0
4, 1020, Note_on_c, 0, 65, 88
4, 1078, Note_off_c, 0, 65, 0
4, 1080, Note_on_c, 0, 64, 88
4, 1138, Note_off_c, 0, 64, 0
4, 1140, Note_on_c, 0, 65, 88
4, 1198, Note_off_c, 0, 65, 0
4, 1200, Note_on_c, 0, 60, 88
4, 1258, Note_off_c, 0, 60, 0
4, 1260, Note_on_c, 0, 65, 88
4, 1318, Note_off_c, 0, 65, 0
4, 1320, Note_on_c, 0, 64, 88
4, 1378, Note_off_c, 0, 64, 0
4, 1380, Note_on_c, 0, 65, 88
4, 1438, Note_off_c, 0, 65, 0
4, 1440, Note_on_c, 0, 68, 88
4, 1498, Note_off_c, 0, 68, 0
4, 1500, Note_on_c, 0, 65, 88
4, 1558, Note_off_c, 0, 65, 0
4, 1560, Note_on_c, 0, 64, 88
4, 1618, Note_off_c, 0, 64, 0
4, 1620, Note_on_c, 0, 65, 88
4, 1678, Note_off_c, 0, 65, 0
4, 1680, Note_on_c, 0, 60, 88
4, 1738, Note_off_c, 0, 60, 0
4, 1740, Note_on_c, 0, 65, 88
4, 1798, Note_off_c, 0, 65, 0
4, 1800, Note_on_c, 0, 64, 88
4, 1858, Note_off_c, 0, 64, 0
4, 1860, Note_on_c, 0, 65, 88
4, 1918, Note_off_c, 0, 65, 0
4, 1920, Note_on_c, 0, 71, 88
4, 1978, Note_off_c, 0, 71, 0
4, 1980, Note_on_c, 0, 65, 88
4, 2038, Note_off_c, 0, 65, 0
4, 2040, Note_on_c, 0, 63, 88
4, 2098, Note_off_c, 0, 63, 0
4, 2100, Note_on_c, 0, 65, 88
4, 2158, Note_off_c, 0, 65, 0
4, 2160, Note_on_c, 0, 62, 88
4, 2218, Note_off_c, 0, 62, 0
4, 2220, Note_on_c, 0, 65, 88
4, 2278, Note_off_c, 0, 65, 0
4, 2280, Note_on_c, 0, 63, 88
4, 2338, Note_off_c, 0, 63, 0
4, 2340, Note_on_c, 0, 65, 88
4, 2398, Note_off_c, 0, 65, 0
4, 2400, Note_on_c, 0, 71, 88
4, 2458, Note_off_c, 0, 71, 0
4, 2460, Note_on_c, 0, 65, 88
4, 2518, Note_off_c, 0, 65, 0
4, 2520, Note_on_c, 0, 63, 88
4, 2578, Note_off_c, 0, 63, 0
4, 2580, Note_on_c, 0, 65, 88
4, 2638, Note_off_c, 0, 65, 0
4, 2640, Note_on_c, 0, 62, 88
4, 2698, Note_off_c, 0, 62, 0
4, 2700, Note_on_c, 0, 65, 88
4, 2758, Note_off_c, 0, 65, 0
4, 2760, Note_on_c, 0, 63, 88
4, 2818, Note_off_c, 0, 63, 0
4, 2820, Note_on_c, 0, 65, 88
4, 2878, Note_off_c, 0, 65, 0
4, 2880, Note_on_c, 0, 72, 88
4, 2938, Note_off_c, 0, 72, 0
4, 2940, Note_on_c, 0, 67, 88
4, 2998, Note_off_c, 0, 67, 0
4, 3000, Note_on_c, 0, 65, 88
4, 3058, Note_off_c, 0, 65, 0
4, 3060, Note_on_c, 0, 67, 88
4, 3118, Note_off_c, 0, 67, 0
4, 3120, Note_on_c, 0, 63, 88
4, 3178, Note_off_c, 0, 63, 0
4, 3180, Note_on_c, 0, 67, 88
4, 3238, Note_off_c, 0, 67, 0
4, 3240, Note_on_c, 0, 65, 88
4, 3298, Note_off_c, 0, 65, 0
4, 3300, Note_on_c, 0, 67, 88
4, 3358, Note_off_c, 0, 67, 0
4, 3360, Note_on_c, 0, 72, 88
4, 3418, Note_off_c, 0, 72, 0
4, 3420, Note_on_c, 0, 67, 88
4, 3478, Note_off_c, 0, 67, 0
4, 3480, Note_on_c, 0, 65, 88
4, 3538, Note_off_c, 0, 65, 0
4, 3540, Note_on_c, 0, 67, 88
4, 3598, Note_off_c, 0, 67, 0
4, 3600, Note_on_c, 0, 63, 88
4, 3658, Note_off_c, 0, 63, 0
4, 3660, Note_on_c, 0, 67, 88
4, 3718, Note_off_c, 0, 67, 0
4, 3720, Note_on_c, 0, 65, 88
4, 3778, Note_off_c, 0, 65, 0
4, 3780, Note_on_c, 0, 67, 88
4, 3838, Note_off_c, 0, 67, 0
4, 3840, Note_on_c, 0, 75, 88
4, 3898, Note_off_c, 0, 75, 0
4, 3900, Note_on_c, 0, 68, 88
4, 3958, Note_off_c, 0, 68, 0
4, 3960, Note_on_c, 0, 67, 88
4, 4018, Note_off_c, 0, 67, 0
4, 4020, Note_on_c, 0, 68, 88
4, 4078, Note_off_c, 0, 68, 0
4, 4080, Note_on_c, 0, 63, 88
4, 4138, Note_off_c, 0, 63, 0
4, 4140, Note_on_c, 0, 68, 88
4, 4198, Note_off_c, 0, 68, 0
4, 4200, Note_on_c, 0, 67, 88
4, 4258, Note_off_c, 0, 67, 0
4, 4260, Note_on_c, 0, 68, 88
4, 4318, Note_off_c, 0, 68, 0
4, 4320, Note_on_c, 0, 75, 88
4, 4378, Note_off_c, 0, 75, 0
4, 4380, Note_on_c, 0, 68, 88
4, 4438, Note_off_c, 0, 68, 0
4, 4440, Note_on_c, 0, 67, 88
4, 4498, Note_off_c, 0, 67, 0
4, 4500, Note_on_c, 0, 68, 88
4, 4558, Note_off_c, 0, 68, 0
4, 4560, Note_on_c, 0, 63, 88
4, 4618, Note_off_c, 0, 63, 0
4, 4620, Note_on_c, 0, 68, 88
4, 4678, Note_off_c, 0, 68, 0
4, 4680, Note_on_c, 0, 67, 88
4, 4738, Note_off_c, 0, 67, 0
4, 4740, Note_on_c, 0, 68, 88
4, 4798, Note_off_c, 0, 68, 0
4, 4800, Note_on_c, 0, 74, 88
4, 4858, Note_off_c, 0, 74, 0
4, 4860, Note_on_c, 0, 66, 88
4, 4918, Note_off_c, 0, 66, 0
4, 4920, Note_on_c, 0, 64, 88
4, 4978, Note_off_c, 0, 64, 0
4, 4980, Note_on_c, 0, 66, 88
4, 5038, Note_off_c, 0, 66, 0
4, 5040, Note_on_c, 0, 62, 88
4, 5098, Note_off_c, 0, 62, 0
4, 5100, Note_on_c, 0, 66, 88
4, 5158, Note_off_c, 0, 66, 0
4, 5160, Note_on_c, 0, 64, 88
4, 5218, Note_off_c, 0, 64, 0
4, 5220, Note_on_c, 0, 66, 88
4, 5278, Note_off_c, 0, 66, 0
4, 5280, Note_on_c, 0, 74, 88
4, 5338, Note_off_c, 0, 74, 0
4, 5340, Note_on_c, 0, 66, 88
4, 5398, Note_off_c, 0, 66, 0
4, 5400, Note_on_c, 0, 64, 88
4, 5458, Note_off_c, 0, 64, 0
4, 5460, Note_on_c, 0, 66, 88
4, 5518, Note_off_c, 0, 66, 0
4, 5520, Note_on_c, 0, 62, 88
4, 5578, Note_off_c, 0, 62, 0
4, 5580, Note_on_c, 0, 66, 88
4, 5638, Note_off_c, 0, 66, 0
4, 5640, Note_on_c, 0, 64, 88
4, 5698, Note_off_c, 0, 64, 0
4, 5700, Note_on_c, 0, 66, 88
4, 5758, Note_off_c, 0, 66, 0
4, 5760, Note_on_c, 0, 74, 88
4, 5818, Note_off_c, 0, 74, 0
4, 5820, Note_on_c, 0, 67, 88
4, 5878, Note_off_c, 0, 67, 0
4, 5880, Note_on_c, 0, 66, 88
4, 5938, Note_off_c, 0, 66, 0
4, 5940, Note_on_c, 0, 67, 88
4, 5998, Note_off_c, 0, 67, 0
4, 6000, Note_on_c, 0, 62, 88
4, 6058, Note_off_c, 0, 62, 0
4, 6060, Note_on_c, 0, 67, 88
4, 6118, Note_off_c, 0, 67, 0
4, 6120, Note_on_c, 0, 66, 88
4, 6178, Note_off_c, 0, 66, 0
4, 6180, Note_on_c, 0, 67, 88
4, 6238, Note_off_c, 0, 67, 0
4, 6240, Note_on_c, 0, 74, 88
4, 6298, Note_off_c, 0, 74, 0
4, 6300, Note_on_c, 0, 67, 88
4, 6358, Note_off_c, 0, 67, 0
4, 6360, Note_on_c, 0, 66, 88
4, 6418, Note_off_c, 0, 66, 0
4, 6420, Note_on_c, 0, 67, 88
4, 6478, Note_off_c, 0, 67, 0
4, 6480, Note_on_c, 0, 62, 88
4, 6538, Note_off_c, 0, 62, 0
4, 6540, Note_on_c, 0, 67, 88
4, 6598, Note_off_c, 0, 67, 0
4, 6600, Note_on_c, 0, 66, 88
4, 6658, Note_off_c, 0, 66, 0
4, 6660, Note_on_c, 0, 67, 88
4, 6718, Note_off_c, 0, 67, 0
4, 6720, Note_on_c, 0, 72, 88
4, 6778, Note_off_c, 0, 72, 0
4, 6780, Note_on_c, 0, 64, 88
4, 6838, Note_off_c, 0, 64, 0
4, 6840, Note_on_c, 0, 62, 88
4, 6898, Note_off_c, 0, 62, 0
4, 6900, Note_on_c, 0, 64, 88
4, 6958, Note_off_c, 0, 64, 0
4, 6960, Note_on_c, 0, 60, 88
4, 7018, Note_off_c, 0, 60, 0
4, 7020, Note_on_c, 0, 64, 88
4, 7078, Note_off_c, 0, 64, 0
4, 7080, Note_on_c, 0, 62, 88
4, 7138, Note_off_c, 0, 62, 0
4, 7140, Note_on_c, 0, 64, 88
4, 7198, Note_off_c, 0, 64, 0
4, 7200, Note_on_c, 0, 72, 88
4, 7258, Note_off_c, 0, 72, 0
4, 7260, Note_on_c, 0, 64, 88
4, 7318, Note_off_c, 0, 64, 0
4, 7320, Note_on_c, 0, 62, 88
4, 7378, Note_off_c, 0, 62, 0
4, 7380, Note_on_c, 0, 64, 88
4, 7438, Note_off_c, 0, 64, 0
4, 7440, Note_on_c, 0, 60, 88
4, 7498, Note_off_c, 0, 60, 0
4, 7500, Note_on_c, 0, 64, 88
4, 7558, Note_off_c, 0, 64, 0
4, 7560, Note_on_c, 0, 62, 88
4, 7618, Note_off_c, 0, 62, 0
4, 7620, Note_on_c, 0, 64, 88
4, 7678, Note_off_c, 0, 64, 0
4, 7680, Note_on_c, 0, 72, 88
4, 7738, Note_off_c, 0, 72, 0
4, 7740, Note_on_c, 0, 65, 88
4, 7798, Note_off_c, 0, 65, 0
4, 7800, Note_on_c, 0, 64, 88
4, 7858, Note_off_c, 0, 64, 0
4, 7860, Note_on_c, 0, 65, 88
4, 7918, Note_off_c, 0, 65, 0
4, 7920, Note_on_c, 0, 60, 88
4, 7978, Note_off_c, 0, 60, 0
4, 7980, Note_on_c, 0, 65, 88
4, 8038, Note_off_c, 0, 65, 0
4, 8040, Note_on_c, 0, 64, 88
4, 8098, Note_off_c, 0, 64, 0
4, 8100, Note_on_c, 0, 65, 88
4, 8158, Note_off_c, 0, 65, 0
4, 8160, Note_on_c, 0, 72, 88
4, 8218, Note_off_c, 0, 72, 0
4, 8220, Note_on_c, 0, 65, 88
4, 8278, Note_off_c, 0, 65, 0
4, 8280, Note_on_c, 0, 64, 88
4, 8338, Note_off_c, 0, 64, 0
4, 8340, Note_on_c, 0, 65, 88
4, 8398, Note_off_c, 0, 65, 0
4, 8400, Note_on_c, 0, 60, 88
4, 8458, Note_off_c, 0, 60, 0
4, 8460, Note_on_c, 0, 65, 88
4, 8518, Note_off_c, 0, 65, 0
4, 8520, Note_on_c, 0, 64, 88
4, 8578, Note_off_c, 0, 64, 0
4, 8580, Note_on_c, 0, 65, 88
4, 8638, Note_off_c, 0, 65, 0
4, 8640, Note_on_c, 0, 70, 88
4, 8698, Note_off_c, 0, 70, 0
4, 8700, Note_on_c, 0, 65, 88
4, 8758, Note_off_c, 0, 65, 0
4, 8760, Note_on_c, 0, 63, 88
4, 8818, Note_off_c, 0, 63, 0
4, 8820, Note_on_c, 0, 65, 88
4, 8878, Note_off_c, 0, 65, 0
4, 8880, Note_on_c, 0, 62, 88
4, 8938, Note_off_c, 0, 62, 0
4, 8940, Note_on_c, 0, 65, 88
4, 8998, Note_off_c, 0, 65, 0
4, 9000, Note_on_c, 0, 63, 88
4, 9058, Note_off_c, 0, 63, 0
4, 9060, Note_on_c, 0, 65, 88
4, 9118, Note_off_c, 0, 65, 0
4, 9120, Note_on_c, 0, 70, 88
4, 9178, Note_off_c, 0, 70, 0
4, 9180, Note_on_c, 0, 65, 88
4, 9238, Note_off_c, 0, 65, 0
4, 9240, Note_on_c, 0, 63, 88
4, 9298, Note_off_c, 0, 63, 0
4, 9300, Note_on_c, 0, 65, 88
4, 9358, Note_off_c, 0, 65, 0
4, 9360, Note_on_c, 0, 62, 88
4, 9418, Note_off_c, 0, 62, 0
4, 9420, Note_on_c, 0, 65, 88
4, 9478, Note_off_c, 0, 65, 0
4, 9480, Note_on_c, 0, 63, 88
4, 9538, Note_off_c, 0, 63, 0
4, 9540, Note_on_c, 0, 65, 88
4, 9598, Note_off_c, 0, 65, 0
4, 9600, Note_on_c, 0, 70, 88
4, 9658, Note_off_c, 0, 70, 0
4, 9660, Note_on_c, 0, 67, 88
4, 9718, Note_off_c, 0, 67, 0
4, 9720, Note_on_c, 0, 65, 88
4, 9778, Note_off_c, 0, 65, 0
4, 9780, Note_on_c, 0, 67, 88
4, 9838, Note_off_c, 0, 67, 0
4, 9840, Note_on_c, 0, 63, 88
4, 9898, Note_off_c, 0, 63, 0
4, 9900, Note_on_c, 0, 67, 88
4, 9958, Note_off_c, 0, 67, 0
4, 9960, Note_on_c, 0, 65, 88
4, 10018, Note_off_c, 0, 65, 0
4, 10020, Note_on_c, 0, 67, 88
4, 10078, Note_off_c, 0, 67, 0
4, 10080, Note_on_c, 0, 70, 88
4, 10138, Note_off_c, 0, 70, 0
4, 10140, Note_on_c, 0, 67, 88
4, 10198, Note_off_c, 0, 67, 0
4, 10200, Note_on_c, 0, 65, 88
4, 10258, Note_off_c, 0, 65, 0
4, 10260, Note_on_c, 0, 67, 88
4, 10318, Note_off_c, 0, 67, 0
4, 10320, Note_on_c, 0, 63, 88
4, 10378, Note_off_c, 0, 63, 0
4, 10380, Note_on_c, 0, 67, 88
4, 10438, Note_off_c, 0, 67, 0
4, 10440, Note_on_c, 0, 65, 88
4, 10498, Note_off_c, 0, 65, 0
4, 10500, Note_on_c, 0, 67, 88
4, 10558, Note_off_c, 0, 67, 0
4, 10560, Note_on_c, 0, 68, 88
4, 10618, Note_off_c, 0, 68, 0
4, 10620, Note_on_c, 0, 67, 88
4, 10678, Note_off_c, 0, 67, 0
4, 10680, Note_on_c, 0, 65, 88
4, 10738, Note_off_c, 0, 65, 0
4, 10740, Note_on_c, 0, 67, 88
4, 10798, Note_off_c, 0, 67, 0
4, 10800, Note_on_c, 0, 63, 88
4, 10858, Note_off_c, 0, 63, 0
4, 10860, Note_on_c, 0, 67, 88
4, 10918, Note_off_c, 0, 67, 0
4, 10920, Note_on_c, 0, 65, 88
4, 10978, Note_off_c, 0, 65, 0
4, 10980, Note_on_c, 0, 67, 88
4, 11038, Note_off_c, 0, 67, 0
4, 11040, Note_on_c, 0, 68, 88
4, 11098, Note_off_c, 0, 68, 0
4, 11100, Note_on_c, 0, 67, 88
4, 11158, Note_off_c, 0, 67, 0
4, 11160, Note_on_c, 0, 65, 88
4, 11218, Note_off_c, 0, 65, 0
4, 11220, Note_on_c, 0, 67, 88
4, 11278, Note_off_c, 0, 67, 0
4, 11280, Note_on_c, 0, 63, 88
4, 11338, Note_off_c, 0, 63, 0
4, 11340, Note_on_c, 0, 67, 88
4, 11398, Note_off_c, 0, 67, 0
4, 11400, Note_on_c, 0, 65, 88
4, 11458, Note_off_c, 0, 65, 0
4, 11460, Note_on_c, 0, 67, 88
4, 11518, Note_off_c, 0, 67, 0
4, 11520, Note_on_c, 0, 68, 88
4, 11578, Note_off_c, 0, 68, 0
4, 11580, Note_on_c, 0, 62, 88
4, 11638, Note_off_c, 0, 62, 0
4, 11640, Note_on_c, 0, 60, 88
4, 11698, Note_off_c, 0, 60, 0
4, 11700, Note_on_c, 0, 62, 88
4, 11758, Note_off_c, 0, 62, 0
4, 11760, Note_on_c, 0, 58, 88
4, 11818, Note_off_c, 0, 58, 0
4, 11820, Note_on_c, 0, 62, 88
4, 11878, Note_off_c, 0, 62, 0
4, 11880, Note_on_c, 0, 60, 88
4, 11938, Note_off_c, 0, 60, 0
4, 11940, Note_on_c, 0, 62, 88
4, 11998, Note_off_c, 0, 62, 0
4, 12000, Note_on_c, 0, 68, 88
4, 12058, Note_off_c, 0, 68, 0
4, 12060, Note_on_c, 0, 62, 88
4, 12118, Note_off_c, 0, 62, 0
4, 12120, Note_on_c, 0, 60, 88
4, 12178, Note_off_c, 0, 60, 0
4, 12180, Note_on_c, 0, 62, 88
4, 12238, Note_off_c, 0, 62, 0
4, 12240, Note_on_c, 0, 58, 88
4, 12298, Note_off_c, 0, 58, 0
4, 12300, Note_on_c, 0, 62, 88
4, 12358, Note_off_c, 0, 62, 0
4, 12360, Note_on_c, 0, 60, 88
4, 12418, Note_off_c, 0, 60, 0
4, 12420, Note_on_c, 0, 62, 88
4, 12478, Note_off_c, 0, 62, 0
4, 12480, Note_on_c, 0, 67, 88
4, 12538, Note_off_c, 0, 67, 0
4, 12540, Note_on_c, 0, 58, 88
4, 12598, Note_off_c, 0, 58, 0
4, 12600, Note_on_c, 0, 56, 88
4, 12658, Note_off_c, 0, 56, 0
4, 12660, Note_on_c, 0, 58, 88
4, 12718, Note_off_c, 0, 58, 0
4, 12720, Note_on_c, 0, 63, 88
4, 12778, Note_off_c, 0, 63, 0
4, 12780, Note_on_c, 0, 58, 88
4, 12838, Note_off_c, 0, 58, 0
4, 12840, Note_on_c, 0, 56, 88
4, 12898, Note_off_c, 0, 56, 0
4, 12900, Note_on_c, 0, 58, 88
4, 12958, Note_off_c, 0, 58, 0
4, 12960, Note_on_c, 0, 67, 88
4, 13018, Note_off_c, 0, 67, 0
4, 13020, Note_on_c, 0, 58, 88
4, 13078, Note_off_c, 0, 58, 0
4, 13080, Note_on_c, 0, 56, 88
4, 13138, Note_off_c, 0, 56, 0
4, 13140, Note_on_c, 0, 58, 88
4, 13198, Note_off_c, 0, 58, 0
4, 13200, Note_on_c, 0, 63, 88
4, 13258, Note_off_c, 0, 63, 0
4, 13260, Note_on_c, 0, 58, 88
4, 13318, Note_off_c, 0, 58, 0
4, 13320, Note_on_c, 0, 56, 88
4, 13378, Note_off_c, 0, 56, 0
4, 13380, Note_on_c, 0, 58, 88
4, 13438, Note_off_c, 0, 58, 0
4, 13440, Note_on_c, 0, 65, 88
4, 13498, Note_off_c, 0, 65, 0
4, 13500, Note_on_c, 0, 60, 88
4, 13558, Note_off_c, 0, 60, 0
4, 13560, Note_on_c, 0, 58, 88
4, 13618, Note_off_c, 0, 58, 0
4, 13620, Note_on_c, 0, 60, 88
4, 13678, Note_off_c, 0, 60, 0
4, 13680, Note_on_c, 0, 57, 88
4, 13738, Note_off_c, 0, 57, 0
4, 13740, Note_on_c, 0, 60, 88
4, 13798, Note_off_c, 0, 60, 0
4, 13800, Note_on_c, 0, 58, 88
4, 13858, Note_off_c, 0, 58, 0
4, 13860, Note_on_c, 0, 60, 88
4, 13918, Note_off_c, 0, 60, 0
4, 13920, Note_on_c, 0, 65, 88
4, 13978, Note_off_c, 0, 65, 0
4, 13980, Note_on_c, 0, 60, 88
4, 14038, Note_off_c, 0, 60, 0
4, 14040, Note_on_c, 0, 58, 88
4, 14098, Note_off_c, 0, 58, 0
4, 14100, Note_on_c, 0, 60, 88
4, 14158, Note_off_c, 0, 60, 0
4, 14160, Note_on_c, 0, 57, 88
4, 14218, Note_off_c, 0, 57, 0
4, 14220, Note_on_c, 0, 60, 88
4, 14278, Note_off_c, 0, 60, 0
4, 14280, Note_on_c, 0, 58, 88
4, 14338, Note_off_c, 0, 58, 0
4, 14340, Note_on_c, 0, 60, 88
4, 14398, Note_off_c, 0, 60, 0
4, 14400, Note_on_c, 0, 65, 88
4, 14458, Note_off_c, 0, 65, 0
4, 14460, Note_on_c, 0, 62, 88
4, 14518, Note_off_c, 0, 62, 0
4, 14520, Note_on_c, 0, 60, 88
4, 14578, Note_off_c, 0, 60, 0
4, 14580, Note_on_c, 0, 62, 88
4, 14638, Note_off_c, 0, 62, 0
4, 14640, Note_on_c, 0, 59, 88
4, 14698, Note_off_c, 0, 59, 0
4, 14700, Note_on_c, 0, 62, 88
4, 14758, Note_off_c, 0, 62, 0
4, 14760, Note_on_c, 0, 60, 88
4, 14818, Note_off_c, 0, 60, 0
4, 14820, Note_on_c, 0, 62, 88
4, 14878, Note_off_c, 0, 62, 0
4, 14880, Note_on_c, 0, 65, 88
4, 14938, Note_off_c, 0, 65, 0
4, 14940, Note_on_c, 0, 62, 88
4, 14998, Note_off_c, 0, 62, 0
4, 15000, Note_on_c, 0, 60, 88
4, 15058, Note_off_c, 0, 60, 0
4, 15060, Note_on_c, 0, 62, 88
4, 15118, Note_off_c, 0, 62, 0
4, 15120, Note_on_c, 0, 59, 88
4, 15178, Note_off_c, 0, 59, 0
4, 15180, Note_on_c, 0, 62, 88
4, 15238, Note_off_c, 0, 62, 0
4, 15240, Note_on_c, 0, 60, 88
4, 15298, Note_off_c, 0, 60, 0
4, 15300, Note_on_c, 0, 62, 88
4, 15358, Note_off_c, 0, 62, 0
4, 15360, Note_on_c, 0, 65, 88
4, 15418, Note_off_c, 0, 65, 0
4, 15420, Note_on_c, 0, 62, 88
4, 15478, Note_off_c, 0, 62, 0
4, 15480, Note_on_c, 0, 60, 88
4, 15538, Note_off_c, 0, 60, 0
4, 15540, Note_on_c, 0, 62, 88
4, 15598, Note_off_c, 0, 62, 0
4, 15600, Note_on_c, 0, 59, 88
4, 15658, Note_off_c, 0, 59, 0
4, 15660, Note_on_c, 0, 62, 88
4, 15718, Note_off_c, 0, 62, 0
4, 15720, Note_on_c, 0, 60, 88
4, 15778, Note_off_c, 0, 60, 0
4, 15780, Note_on_c, 0, 62, 88
4, 15838, Note_off_c, 0, 62, 0
4, 15840, Note_on_c, 0, 65, 88
4, 15898, Note_off_c, 0, 65, 0
4, 15900, Note_on_c, 0, 62, 88
4, 15958, Note_off_c, 0, 62, 0
4, 15960, Note_on_c, 0, 60, 88
4, 16018, Note_off_c, 0, 60, 0
4, 16020, Note_on_c, 0, 62, 88
4, 16078, Note_off_c, 0, 62, 0
4, 16080, Note_on_c, 0, 59, 88
4, 16138, Note_off_c, 0, 59, 0
4, 16140, Note_on_c, 0, 62, 88
4, 16198, Note_off_c, 0, 62, 0
4, 16200, Note_on_c, 0, 60, 88
4, 16258, Note_off_c, 0, 60, 0
4, 16260, Note_on_c, 0, 62, 88
4, 16318, Note_off_c, 0, 62, 0
4, 16320, Note_on_c, 0, 63, 88
4, 16378, Note_off_c, 0, 63, 0
4, 16380, Note_on_c, 0, 60, 88
4, 16438, Note_off_c, 0, 60, 0
4, 16440, Note_on_c, 0, 59, 88
4, 16498, Note_off_c, 0, 59, 0
4, 16500, Note_on_c, 0, 60, 88
4, 16558, Note_off_c, 0, 60, 0
4, 16560, Note_on_c, 0, 55, 88
4, 16618, Note_off_c, 0, 55, 0
4, 16620, Note_on_c, 0, 60, 88
4, 16678, Note_off_c, 0, 60, 0
4, 16680, Note_on_c, 0, 59, 88
4, 16738, Note_off_c, 0, 59, 0
4, 16740, Note_on_c, 0, 60, 88
4, 16798, Note_off_c, 0, 60, 0
4, 16800, Note_on_c, 0, 63, 88
4, 16858, Note_off_c, 0, 63, 0
4, 16860, Note_on_c, 0, 60, 88
4, 16918, Note_off_c, 0, 60, 0
4, 16920, Note_on_c, 0, 59, 88
4, 16978, Note_off_c, 0, 59, 0
4, 16980, Note_on_c, 0, 60, 88
4, 17038, Note_off_c, 0, 60, 0
4, 17040, Note_on_c, 0, 55, 88
4, 17098, Note_off_c, 0, 55, 0
4, 17100, Note_on_c, 0, 60, 88
4, 17158, Note_off_c, 0, 60, 0
4, 17160, Note_on_c, 0, 59, 88
4, 17218, Note_off_c, 0, 59, 0
4, 17220, Note_on_c, 0, 60, 88
4, 17278, Note_off_c, 0, 60, 0
4, 17280, Note_on_c, 0, 53, 88
4, 17338, Note_off_c, 0, 53, 0
4, 17340, Note_on_c, 0, 63, 88
4, 17398, Note_off_c, 0, 63, 0
4, 17400, Note_on_c, 0, 62, 88
4, 17458, Note_off_c, 0, 62, 0
4, 17460, Note_on_c, 0, 63, 88
4, 17518, Note_off_c, 0, 63, 0
4, 17520, Note_on_c, 0, 65, 88
4, 17578, Note_off_c, 0, 65, 0
4, 17580, Note_on_c, 0, 63, 88
4, 17638, Note_off_c, 0, 63, 0
4, 17640, Note_on_c, 0, 62, 88
4, 17698, Note_off_c, 0, 62, 0
4, 17700, Note_on_c, 0, 63, 88
4, 17758, Note_off_c, 0, 63, 0
4, 17760, Note_on_c, 0, 53, 88
4, 17818, Note_off_c, 0, 53, 0
4, 17820, Note_on_c, 0, 63, 88
4, 17878, Note_off_c, 0, 63, 0
4, 17880, Note_on_c, 0, 62, 88
4, 17938, Note_off_c, 0, 62, 0
4, 17940, Note_on_c, 0, 63, 88
4, 17998, Note_off_c, 0, 63, 0
4, 18000, Note_on_c, 0, 65, 88
4, 18058, Note_off_c, 0, 65, 0
4, 18060, Note_on_c, 0, 63, 88
4, 18118, Note_off_c, 0, 63, 0
4, 18120, Note_on_c, 0, 62, 88
4, 18178, Note_off_c, 0, 62, 0
4, 18180, Note_on_c, 0, 63, 88
4, 18238, Note_off_c, 0, 63, 0
4, 18240, Note_on_c, 0, 54, 88
4, 18298, Note_off_c, 0, 54, 0
4, 18300, Note_on_c, 0, 60, 88
4, 18358, Note_off_c, 0, 60, 0
4, 18360, Note_on_c, 0, 59, 88
4, 18418, Note_off_c, 0, 59, 0
4, 18420, Note_on_c, 0, 60, 88
4, 18478, Note_off_c, 0, 60, 0
4, 18480, Note_on_c, 0, 63, 88
4, 18538, Note_off_c, 0, 63, 0
4, 18540, Note_on_c, 0, 60, 88
4, 18598, Note_off_c, 0, 60, 0
4, 18600, Note_on_c, 0, 59, 88
4, 18658, Note_off_c, 0, 59, 0
4, 18660, Note_on_c, 0, 60, 88
4, 18718, Note_off_c, 0, 60, 0
4, 18720, Note_on_c, 0, 54, 88
4, 18778, Note_off_c, 0, 54, 0
4, 18780, Note_on_c, 0, 60, 88
4, 18838, Note_off_c, 0, 60, 0
4, 18840, Note_on_c, 0, 59, 88
4, 18898, Note_off_c, 0, 59, 0
4, 18900, Note_on_c, 0, 60, 88
4, 18958, Note_off_c, 0, 60, 0
4, 18960, Note_on_c, 0, 63, 88
4, 19018, Note_off_c, 0, 63, 0
4, 19020, Note_on_c, 0, 60, 88
4, 19078, Note_off_c, 0, 60, 0
4, 19080, Note_on_c, 0, 59, 88
4, 19138, Note_off_c, 0, 59, 0
4, 19140, Note_on_c, 0, 60, 88
4, 19198, Note_off_c, 0, 60, 0
4, 19200, Note_on_c, 0, 63, 88
4, 19258, Note_off_c, 0, 63, 0
4, 19260, Note_on_c, 0, 60, 88
4, 19318, Note_off_c, 0, 60, 0
4, 19320, Note_on_c, 0, 59, 88
4, 19378, Note_off_c, 0, 59, 0
4, 19380, Note_on_c, 0, 60, 88
4, 19438, Note_off_c, 0, 60, 0
4, 19440, Note_on_c, 0, 55, 88
4, 19498, Note_off_c, 0, 55, 0
4, 19500, Note_on_c, 0, 60, 88
4, 19558, Note_off_c, 0, 60, 0
4, 19560, Note_on_c, 0, 59, 88
4, 19618, Note_off_c, 0, 59, 0
4, 19620, Note_on_c, 0, 60, 88
4, 19678, Note_off_c, 0, 60, 0
4, 19680, Note_on_c, 0, 63, 88
4, 19738, Note_off_c, 0, 63, 0
4, 19740, Note_on_c, 0, 60, 88
4, 19798, Note_off_c, 0, 60, 0
4, 19800, Note_on_c, 0, 59, 88
4, 19858, Note_off_c, 0, 59, 0
4, 19860, Note_on_c, 0, 60, 88
4, 19918, Note_off_c, 0, 60, 0
4, 19920, Note_on_c, 0, 55, 88
4, 19978, Note_off_c, 0, 55, 0
4, 19980, Note_on_c, 0, 60, 88
4, 20038, Note_off_c, 0, 60, 0
4, 20040, Note_on_c, 0, 59, 88
4, 20098, Note_off_c, 0, 59, 0
4, 20100, Note_on_c, 0, 60, 88
4, 20158, Note_off_c, 0, 60, 0
4, 20160, Note_on_c, 0, 66, 88
4, 20218, Note_off_c, 0, 66, 0
4, 20220, Note_on_c, 0, 60, 88
4, 20278, Note_off_c, 0, 60, 0
4, 20280, Note_on_c, 0, 59, 88
4, 20338, Note_off_c, 0, 59, 0
4, 20340, Note_on_c, 0, 60, 88
4, 20398, Note_off_c, 0, 60, 0
4, 20400, Note_on_c, 0, 57, 88
4, 20458, Note_off_c, 0, 57, 0
4, 20460, Note_on_c, 0, 60, 88
4, 20518, Note_off_c, 0, 60, 0
4, 20520, Note_on_c, 0, 59, 88
4, 20578, Note_off_c, 0, 59, 0
4, 20580, Note_on_c, 0, 60, 88
4, 20638, Note_off_c, 0, 60, 0
4, 20640, Note_on_c, 0, 66, 88
4, 20698, Note_off_c, 0, 66, 0
4, 20700, Note_on_c, 0, 60, 88
4, 20758, Note_off_c, 0, 60, 0
4, 20760, Note_on_c, 0, 59, 88
4, 20818, Note_off_c, 0, 59, 0
4, 20820, Note_on_c, 0, 60, 88
4, 20878, Note_off_c, 0, 60, 0
4, 20880, Note_on_c, 0, 57, 88
4, 20938, Note_off_c, 0, 57, 0
4, 20940, Note_on_c, 0, 60, 88
4, 20998, Note_off_c, 0, 60, 0
4, 21000, Note_on_c, 0, 59, 88
4, 21058, Note_off_c, 0, 59, 0
4, 21060, Note_on_c, 0, 60, 88
4, 21118, Note_off_c, 0, 60, 0
4, 21120, Note_on_c, 0, 67, 88
4, 21178, Note_off_c, 0, 67, 0
4, 21180, Note_on_c, 0, 60, 88
4, 21238, Note_off_c, 0, 60, 0
4, 21240, Note_on_c, 0, 59, 88
4, 21298, Note_off_c, 0, 59, 0
4, 21300, Note_on_c, 0, 60, 88
4, 21358, Note_off_c, 0, 60, 0
4, 21360, Note_on_c, 0, 62, 88
4, 21418, Note_off_c, 0, 62, 0
4, 21420, Note_on_c, 0, 60, 88
4, 21478, Note_off_c, 0, 60, 0
4, 21480, Note_on_c, 0, 59, 88
4, 21538, Note_off_c, 0, 59, 0
4, 21540, Note_on_c, 0, 60, 88
4, 21598, Note_off_c, 0, 60, 0
4, 21600, Note_on_c, 0, 67, 88
4, 21658, Note_off_c, 0, 67, 0
4, 21660, Note_on_c, 0, 60, 88
4, 21718, Note_off_c, 0, 60, 0
4, 21720, Note_on_c, 0, 59, 88
4, 21778, Note_off_c, 0, 59, 0
4, 21780, Note_on_c, 0, 60, 88
4, 21838, Note_off_c, 0, 60, 0
4, 21840, Note_on_c, 0, 62, 88
4, 21898, Note_off_c, 0, 62, 0
4, 21900, Note_on_c, 0, 60, 88
4, 21958, Note_off_c, 0, 60, 0
4, 21960, Note_on_c, 0, 59, 88
4, 22018, Note_off_c, 0, 59, 0
4, 22020, Note_on_c, 0, 60, 88
4, 22078, Note_off_c, 0, 60, 0
4, 22080, Note_on_c, 0, 68, 88
4, 22138, Note_off_c, 0, 68, 0
4, 22140, Note_on_c, 0, 60, 88
4, 22198, Note_off_c, 0, 60, 0
4, 22200, Note_on_c, 0, 59, 88
4, 22258, Note_off_c, 0, 59, 0
4, 22260, Note_on_c, 0, 60, 88
4, 22318, Note_off_c, 0, 60, 0
4, 22320, Note_on_c, 0, 62, 88
4, 22378, Note_off_c, 0, 62, 0
4, 22380, Note_on_c, 0, 60, 88
4, 22438, Note_off_c, 0, 60, 0
4, 22440, Note_on_c, 0, 59, 88
4, 22498, Note_off_c, 0, 59, 0
4, 22500, Note_on_c, 0, 60, 88
4, 22558, Note_off_c, 0, 60, 0
4, 22560, Note_on_c, 0, 68, 88
4, 22618, Note_off_c, 0, 68, 0
4, 22620, Note_on_c, 0, 60, 88
4, 22678, Note_off_c, 0, 60, 0
4, 22680, Note_on_c, 0, 59, 88
4, 22738, Note_off_c, 0, 59, 0
4, 22740, Note_on_c, 0, 60, 88
4, 22798, Note_off_c, 0, 60, 0
4, 22800, Note_on_c, 0, 62, 88
4, 22858, Note_off_c, 0, 62, 0
4, 22860, Note_on_c, 0, 60, 88
4, 22918, Note_off_c, 0, 60, 0
4, 22920, Note_on_c, 0, 59, 88
4, 22978, Note_off_c, 0, 59, 0
4, 22980, Note_on_c, 0, 60, 88
4, 23038, Note_off_c, 0, 60, 0
4, 25980, Note_on_c, 0, 74, 88
4, 26038, Note_off_c, 0, 74, 0
4, 26040, Note_on_c, 0, 72, 88
4, 26098, Note_off_c, 0, 72, 0
4, 26100, Note_on_c, 0, 74, 88
4, 26158, Note_off_c, 0, 74, 0
4, 26160, Note_on_c, 0, 75, 88
4, 26218, Note_off_c, 0, 75, 0
4, 26220, Note_on_c, 0, 72, 88
4, 26278, Note_off_c, 0, 72, 0
4, 26280, Note_on_c, 0, 71, 88
4, 26338, Note_off_c, 0, 71, 0
4, 26340, Note_on_c, 0, 72, 88
4, 26398, Note_off_c, 0, 72, 0
4, 26400, Note_on_c, 0, 69, 88
4, 26458, Note_off_c, 0, 69, 0
4, 26460, Note_on_c, 0, 72, 88
4, 26518, Note_off_c, 0, 72, 0
4, 26520, Note_on_c, 0, 71, 88
4, 26578, Note_off_c, 0, 71, 0
4, 26580, Note_on_c, 0, 72, 88
4, 26638, Note_off_c, 0, 72, 0
4, 26640, Note_on_c, 0, 74, 88
4, 26698, Note_off_c, 0, 74, 0
4, 26700, Note_on_c, 0, 71, 88
4, 26758, Note_off_c, 0, 71, 0
4, 26760, Note_on_c, 0, 69, 88
4, 26818, Note_off_c, 0, 69, 0
4, 26820, Note_on_c, 0, 71, 88
4, 26878, Note_off_c, 0, 71, 0
4, 26880, Note_on_c, 0, 67, 88
4, 26938, Note_off_c, 0, 67, 0
4, 26940, Note_on_c, 0, 71, 88
4, 26998, Note_off_c, 0, 71, 0
4, 27000, Note_on_c, 0, 69, 88
4, 27058, Note_off_c, 0, 69, 0
4, 27060, Note_on_c, 0, 71, 88
4, 27118, Note_off_c, 0, 71, 0
4, 27120, Note_on_c, 0, 72, 88
4, 27178, Note_off_c, 0, 72, 0
4, 27180, Note_on_c, 0, 69, 88
4, 27238, Note_off_c, 0, 69, 0
4, 27240, Note_on_c, 0, 67, 88
4, 27298, Note_off_c, 0, 67, 0
4, 27300, Note_on_c, 0, 69, 88
4, 27358, Note_off_c, 0, 69, 0
4, 27360, Note_on_c, 0, 66, 88
4, 27418, Note_off_c, 0, 66, 0
4, 27420, Note_on_c, 0, 69, 88
4, 27478, Note_off_c, 0, 69, 0
4, 27480, Note_on_c, 0, 67, 88
4, 27538, Note_off_c, 0, 67, 0
4, 27540, Note_on_c, 0, 69, 88
4, 27598, Note_off_c, 0, 69, 0
4, 27600, Note_on_c, 0, 71, 88
4, 27658, Note_off_c, 0, 71, 0
4, 27660, Note_on_c, 0, 67, 88
4, 27718, Note_off_c, 0, 67, 0
4, 27720, Note_on_c, 0, 66, 88
4, 27778, Note_off_c, 0, 66, 0
4, 27780, Note_on_c, 0, 67, 88
4, 27838, Note_off_c, 0, 67, 0
4, 27840, Note_on_c, 0, 62, 88
4, 27898, Note_off_c, 0, 62, 0
4, 27900, Note_on_c, 0, 79, 88
4, 27958, Note_off_c, 0, 79, 0
4, 27960, Note_on_c, 0, 77, 88
4, 28018, Note_off_c, 0, 77, 0
4, 28020, Note_on_c, 0, 79, 88
4, 28078, Note_off_c, 0, 79, 0
4, 28080, Note_on_c, 0, 80, 88
4, 28138, Note_off_c, 0, 80, 0
4, 28140, Note_on_c, 0, 77, 88
4, 28198, Note_off_c, 0, 77, 0
4, 28200, Note_on_c, 0, 75, 88
4, 28258, Note_off_c, 0, 75, 0
4, 28260, Note_on_c, 0, 77, 88
4, 28318, Note_off_c, 0, 77, 0
4, 28320, Note_on_c, 0, 74, 88
4, 28378, Note_off_c, 0, 74, 0
4, 28380, Note_on_c, 0, 77, 88
4, 28438, Note_off_c, 0, 77, 0
4, 28440, Note_on_c, 0, 75, 88
4, 28498, Note_off_c, 0, 75, 0
4, 28500, Note_on_c, 0, 77, 88
4, 28558, Note_off_c, 0, 77, 0
4, 28560, Note_on_c, 0, 79, 88
4, 28618, Note_off_c, 0, 79, 0
4, 28620, Note_on_c, 0, 75, 88
4, 28678, Note_off_c, 0, 75, 0
4, 28680, Note_on_c, 0, 74, 88
4, 28738, Note_off_c, 0, 74, 0
4, 28740, Note_on_c, 0, 75, 88
4, 28798, Note_off_c, 0, 75, 0
4, 28800, Note_on_c, 0, 72, 88
4, 28858, Note_off_c, 0, 72, 0
4, 28860, Note_on_c, 0, 75, 88
4, 28918, Note_off_c, 0, 75, 0
4, 28920, Note_on_c, 0, 74, 88
4, 28978, Note_off_c, 0, 74, 0
4, 28980, Note_on_c, 0, 75, 88
4, 29038, Note_off_c, 0, 75, 0
4, 29040, Note_on_c, 0, 77, 88
4, 29098, Note_off_c, 0, 77, 0
4, 29100, Note_on_c, 0, 74, 88
4, 29158, Note_off_c, 0, 74, 0
4, 29160, Note_on_c, 0, 72, 88
4, 29218, Note_off_c, 0, 72, 0
4, 29220, Note_on_c, 0, 74, 88
4, 29278, Note_off_c, 0, 74, 0
4, 29280, Note_on_c, 0, 71, 88
4, 29338, Note_off_c, 0, 71, 0
4, 29340, Note_on_c, 0, 74, 88
4, 29398, Note_off_c, 0, 74, 0
4, 29400, Note_on_c, 0, 72, 88
4, 29458, Note_off_c, 0, 72, 0
4, 29460, Note_on_c, 0, 74, 88
4, 29518, Note_off_c, 0, 74, 0
4, 29520, Note_on_c, 0, 75, 88
4, 29578, Note_off_c, 0, 75, 0
4, 29580, Note_on_c, 0, 72, 88
4, 29638, Note_off_c, 0, 72, 0
4, 29640, Note_on_c, 0, 71, 88
4, 29698, Note_off_c, 0, 71, 0
4, 29700, Note_on_c, 0, 72, 88
4, 29758, Note_off_c, 0, 72, 0
4, 29760, Note_on_c, 0, 67, 88
4, 29818, Note_off_c, 0, 67, 0
4, 29820, Note_on_c, 0, 72, 88
4, 29878, Note_off_c, 0, 72, 0
4, 29880, Note_on_c, 0, 71, 88
4, 29938, Note_off_c, 0, 71, 0
4, 29940, Note_on_c, 0, 72, 88
4, 29998, Note_off_c, 0, 72, 0
4, 30000, Note_on_c, 0, 68, 88
4, 30058, Note_off_c, 0, 68, 0
4, 30060, Note_on_c, 0, 77, 88
4, 30118, Note_off_c, 0, 77, 0
4, 30120, Note_on_c, 0, 75, 88
4, 30178, Note_off_c, 0, 75, 0
4, 30180, Note_on_c, 0, 77, 88
4, 30238, Note_off_c, 0, 77, 0
4, 30240, Note_on_c, 0, 67, 88
4, 30298, Note_off_c, 0, 67, 0
4, 30300, Note_on_c, 0, 75, 88
4, 30358, Note_off_c, 0, 75, 0
4, 30360, Note_on_c, 0, 74, 88
4, 30418, Note_off_c, 0, 74, 0
4, 30420, Note_on_c, 0, 75, 88
4, 30478, Note_off_c, 0, 75, 0
4, 30480, Note_on_c, 0, 65, 88
4, 30538, Note_off_c, 0, 65, 0
4, 30540, Note_on_c, 0, 74, 88
4, 30598, Note_off_c, 0, 74, 0
4, 30600, Note_on_c, 0, 72, 88
4, 30658, Note_off_c, 0, 72, 0
4, 30660, Note_on_c, 0, 74, 88
4, 30718, Note_off_c, 0, 74, 0
4, 30720, Note_on_c, 0, 63, 88
4, 30778, Note_off_c, 0, 63, 0
4, 30780, Note_on_c, 0, 72, 88
4, 30838, Note_off_c, 0, 72, 0
4, 30840, Note_on_c, 0, 71, 88
4, 30898, Note_off_c, 0, 71, 0
4, 30900, Note_on_c, 0, 72, 88
4, 30958, Note_off_c, 0, 72, 0
4, 30960, Note_on_c, 0, 68, 88
4, 31018, Note_off_c, 0, 68, 0
4, 31020, Note_on_c, 0, 65, 88
4, 31078, Note_off_c, 0, 65, 0
4, 31080, Note_on_c, 0, 63, 88
4, 31138, Note_off_c, 0, 63, 0
4, 31140, Note_on_c, 0, 65, 88
4, 31198, Note_off_c, 0, 65, 0
4, 31200, Note_on_c, 0, 67, 88
4, 31258, Note_off_c, 0, 67, 0
4, 31260, Note_on_c, 0, 63, 88
4, 31318, Note_off_c, 0, 63, 0
4, 31320, Note_on_c, 0, 62, 88
4, 31378, Note_off_c, 0, 62, 0
4, 31380, Note_on_c, 0, 63, 88
4, 31438, Note_off_c, 0, 63, 0
4, 31440, Note_on_c, 0, 65, 88
4, 31498, Note_off_c, 0, 65, 0
4, 31500, Note_on_c, 0, 62, 88
4, 31558, Note_off_c, 0, 62, 0
4, 31560, Note_on_c, 0, 60, 88
4, 31618, Note_off_c, 0, 60, 0
4, 31620, Note_on_c, 0, 62, 88
4, 31678, Note_off_c, 0, 62, 0
4, 31680, Note_on_c, 0, 64, 88
4, 31826, Note_off_c, 0, 64, 0
4, 31830, Note_on_c, 0, 60, 88
4, 31859, Note_off_c, 0, 60, 0
4, 31860, Note_on_c, 0, 62, 88
4, 31889, Note_off_c, 0, 62, 0
4, 31890, Note_on_c, 0, 64, 88
4, 31919, Note_off_c, 0, 64, 0
4, 31920, Note_on_c, 0, 65, 88
4, 31935, Note_off_c, 0, 65, 0
4, 31935, Note_on_c, 0, 67, 88
4, 31950, Note_off_c, 0, 67, 0
4, 31950, Note_on_c, 0, 69, 88
4, 31965, Note_off_c, 0, 69, 0
4, 31965, Note_on_c, 0, 70, 88
4, 31980, Note_off_c, 0, 70, 0
4, 31980, Note_on_c, 0, 72, 88
4, 31995, Note_on_c, 0, 70, 88
4, 31995, Note_off_c, 0, 72, 0
4, 32010, Note_on_c, 0, 69, 88
4, 32010, Note_off_c, 0, 70, 0
4, 32025, Note_on_c, 0, 67, 88
4, 32025, Note_off_c, 0, 69, 0
4, 32040, Note_on_c, 0, 65, 88
4, 32040, Note_off_c, 0, 67, 0
4, 32098, Note_off_c, 0, 65, 0
4, 32100, Note_on_c, 0, 67, 88
4, 32129, Note_off_c, 0, 67, 0
4, 32130, Note_on_c, 0, 64, 88
4, 32159, Note_off_c, 0, 64, 0
4, 32160, Note_on_c, 0, 67, 88
4, 32174, Note_off_c, 0, 67, 0
4, 32177, Note_on_c, 0, 65, 88
4, 32188, Note_off_c, 0, 65, 0
4, 32188, Note_on_c, 0, 67, 88
4, 32199, Note_on_c, 0, 65, 88
4, 32199, Note_off_c, 0, 67, 0
4, 32209, Note_off_c, 0, 65, 0
4, 32211, Note_on_c, 0, 67, 88
4, 32220, Note_on_c, 0, 65, 88
4, 32220, Note_off_c, 0, 67, 0
4, 32307, Note_off_c, 0, 65, 0
4, 32310, Note_on_c, 0, 67, 88
4, 32339, Note_off_c, 0, 67, 0
4, 32340, Note_on_c, 0, 65, 88
4, 32369, Note_off_c, 0, 65, 0
4, 32370, Note_on_c, 0, 64, 88
4, 32399, Note_off_c, 0, 64, 0
4, 32400, Note_on_c, 0, 65, 88
4, 32429, Note_off_c, 0, 65, 0
4, 32430, Note_on_c, 0, 67, 88
4, 32459, Note_off_c, 0, 67, 0
4, 32460, Note_on_c, 0, 68, 88
4, 32489, Note_off_c, 0, 68, 0
4, 32490, Note_on_c, 0, 67, 88
4, 32519, Note_off_c, 0, 67, 0
4, 32520, Note_on_c, 0, 65, 88
4, 32535, Note_on_c, 0, 63, 88
4, 32535, Note_off_c, 0, 65, 0
4, 32550, Note_on_c, 0, 62, 88
4, 32550, Note_off_c, 0, 63, 0
4, 32565, Note_off_c, 0, 62, 0
4, 32565, Note_on_c, 0, 63, 88
4, 32580, Note_off_c, 0, 63, 0
4, 32580, Note_on_c, 0, 65, 88
4, 32595, Note_on_c, 0, 62, 88
4, 32595, Note_off_c, 0, 65, 0
4, 32610, Note_off_c, 0, 62, 0
4, 32610, Note_on_c, 0, 63, 88
4, 32625, Note_off_c, 0, 63, 0
4, 32625, Note_on_c, 0, 65, 88
4, 32640, Note_off_c, 0, 65, 0
4, 32640, Note_on_c, 0, 59, 88
4, 32815, Note_off_c, 0, 59, 0
4, 32820, Note_on_c, 0, 50, 88
4, 32878, Note_off_c, 0, 50, 0
4, 32880, Note_on_c, 0, 53, 88
4, 32938, Note_off_c, 0, 53, 0
4, 32940, Note_on_c, 0, 56, 88
4, 32998, Note_off_c, 0, 56, 0
4, 33000, Note_on_c, 0, 55, 88
4, 33058, Note_off_c, 0, 55, 0
4, 33060, Note_on_c, 0, 53, 88
4, 33118, Note_off_c, 0, 53, 0
4, 33120, Note_on_c, 0, 59, 88
4, 33178, Note_off_c, 0, 59, 0
4, 33180, Note_on_c, 0, 53, 88
4, 33238, Note_off_c, 0, 53, 0
4, 33240, Note_on_c, 0, 62, 88
4, 33298, Note_off_c, 0, 62, 0
4, 33300, Note_on_c, 0, 53, 88
4, 33358, Note_off_c, 0, 53, 0
4, 33360, Note_on_c, 0, 59, 88
4, 33418, Note_off_c, 0, 59, 0
4, 33420, Note_on_c, 0, 56, 88
4, 33478, Note_off_c, 0, 56, 0
4, 33480, Note_on_c, 0, 55, 88
4, 33538, Note_off_c, 0, 55, 0
4, 33540, Note_on_c, 0, 53, 88
4, 33598, Note_off_c, 0, 53, 0
4, 33600, Note_on_c, 0, 52, 88
4, 33658, Note_off_c, 0, 52, 0
4, 33660, Note_on_c, 0, 61, 88
4, 33718, Note_off_c, 0, 61, 0
4, 33720, Note_on_c, 0, 58, 88
4, 33778, Note_off_c, 0, 58, 0
4, 33780, Note_on_c, 0, 55, 88
4, 33838, Note_off_c, 0, 55, 0
4, 33840, Note_on_c, 0, 60, 88
4, 33898, Note_off_c, 0, 60, 0
4, 33900, Note_on_c, 0, 56, 88
4, 33958, Note_off_c, 0, 56, 0
4, 33960, Note_on_c, 0, 53, 88
4, 34018, Note_off_c, 0, 53, 0
4, 34020, Note_on_c, 0, 56, 88
4, 34078, Note_off_c, 0, 56, 0
4, 34080, Note_on_c, 0, 55, 88
4, 34138, Note_off_c, 0, 55, 0
4, 34140, Note_on_c, 0, 58, 88
4, 34198, Note_off_c, 0, 58, 0
4, 34200, Note_on_c, 0, 55, 88
4, 34258, Note_off_c, 0, 55, 0
4, 34260, Note_on_c, 0, 52, 88
4, 34318, Note_off_c, 0, 52, 0
4, 34320, Note_on_c, 0, 56, 88
4, 34378, Note_off_c, 0, 56, 0
4, 34380, Note_on_c, 0, 53, 88
4, 34438, Note_off_c, 0, 53, 0
4, 34440, Note_on_c, 0, 50, 88
4, 34498, Note_off_c, 0, 50, 0
4, 34500, Note_on_c, 0, 53, 88
4, 34558, Note_off_c, 0, 53, 0
4, 34560, Note_on_c, 0, 52, 88
4, 34618, Note_off_c, 0, 52, 0
4, 34620, Note_on_c, 0, 55, 88
4, 34678, Note_off_c, 0, 55, 0
4, 34680, Note_on_c, 0, 52, 88
4, 34738, Note_off_c, 0, 52, 0
4, 34740, Note_on_c, 0, 48, 88
4, 34798, Note_off_c, 0, 48, 0
4, 34800, Note_on_c, 0, 53, 88
4, 34858, Note_off_c, 0, 53, 0
4, 34860, Note_on_c, 0, 50, 88
4, 34918, Note_off_c, 0, 50, 0
4, 34920, Note_on_c, 0, 47, 88
4, 34978, Note_off_c, 0, 47, 0
4, 34980, Note_on_c, 0, 50, 88
4, 35038, Note_off_c, 0, 50, 0
4, 35220, Note_on_c, 0, 50, 88
4, 35278, Note_off_c, 0, 50, 0
4, 35280, Note_on_c, 0, 52, 88
4, 35338, Note_off_c, 0, 52, 0
4, 35340, Note_on_c, 0, 55, 88
4, 35398, Note_off_c, 0, 55, 0
4, 35400, Note_on_c, 0, 58, 88
4, 35458, Note_off_c, 0, 58, 0
4, 35460, Note_on_c, 0, 55, 88
4, 35518, Note_off_c, 0, 55, 0
4, 35520, Note_on_c, 0, 56, 88
4, 35578, Note_off_c, 0, 56, 0
4, 35580, Note_on_c, 0, 60, 88
4, 35638, Note_off_c, 0, 60, 0
4, 35640, Note_on_c, 0, 65, 88
4, 35698, Note_off_c, 0, 65, 0
4, 35700, Note_on_c, 0, 62, 88
4, 35758, Note_off_c, 0, 62, 0
4, 35760, Note_on_c, 0, 65, 88
4, 35818, Note_off_c, 0, 65, 0
4, 35820, Note_on_c, 0, 68, 88
4, 35878, Note_off_c, 0, 68, 0
4, 35880, Note_on_c, 0, 72, 88
4, 35938, Note_off_c, 0, 72, 0
4, 35940, Note_on_c, 0, 71, 88
4, 35998, Note_off_c, 0, 71, 0
4, 36000, Note_on_c, 0, 72, 88
4, 36058, Note_off_c, 0, 72, 0
4, 36060, Note_on_c, 0, 67, 88
4, 36118, Note_off_c, 0, 67, 0
4, 36120, Note_on_c, 0, 65, 88
4, 36178, Note_off_c, 0, 65, 0
4, 36180, Note_on_c, 0, 62, 88
4, 36238, Note_off_c, 0, 62, 0
4, 36240, Note_on_c, 0, 64, 88
4, 36474, Note_off_c, 0, 64, 0
4, 36474, End_track
5, 0, Start_track
5, 0, Title_t, "Track 2"
5, 0, Program_c, 1, 6
5, 31680, Note_on_c, 1, 55, 88
5, 31680, Note_on_c, 1, 58, 88
5, 31680, Note_on_c, 1, 60, 88
5, 31914, Note_off_c, 1, 55, 0
5, 31914, Note_off_c, 1, 58, 0
5, 31914, Note_off_c, 1, 60, 0
5, 32160, Note_on_c, 1, 53, 88
5, 32160, Note_on_c, 1, 56, 88
5, 32160, Note_on_c, 1, 60, 88
5, 32394, Note_off_c, 1, 53, 0
5, 32394, Note_off_c, 1, 56, 0
5, 32394, Note_off_c, 1, 60, 0
5, 32700, Note_on_c, 1, 36, 88
5, 32758, Note_off_c, 1, 36, 0
5, 32760, Note_on_c, 1, 47, 88
5, 33587, Note_off_c, 1, 47, 0
5, 35100, Note_on_c, 1, 43, 88
5, 35158, Note_off_c, 1, 43, 0
5, 35160, Note_on_c, 1, 48, 88
5, 36465, Note_off_c, 1, 48, 0
5, 36465, End_track
6, 0, Start_track
6, 0, Title_t, "Track 3"
6, 0, Program_c, 2, 6
6, 0, Note_on_c, 2, 48, 88
6, 58, Note_off_c, 2, 48, 0
6, 60, Note_on_c, 2, 55, 88
6, 118, Note_off_c, 2, 55, 0
6, 120, Note_on_c, 2, 53, 88
6, 178, Note_off_c, 2, 53, 0
6, 180, Note_on_c, 2, 55, 88
6, 238, Note_off_c, 2, 55, 0
6, 240, Note_on_c, 2, 51, 88
6, 298, Note_off_c, 2, 51, 0
6, 300, Note_on_c, 2, 55, 88
6, 358, Note_off_c, 2, 55, 0
6, 360, Note_on_c, 2, 53, 88
6, 418, Note_off_c, 2, 53, 0
6, 420, Note_on_c, 2, 55, 88
6, 478, Note_off_c, 2, 55, 0
6, 480, Note_on_c, 2, 48, 88
6, 538, Note_off_c, 2, 48, 0
6, 540, Note_on_c, 2, 55, 88
6, 598, Note_off_c, 2, 55, 0
6, 600, Note_on_c, 2, 53, 88
6, 658, Note_off_c, 2, 53, 0
6, 660, Note_on_c, 2, 55, 88
6, 718, Note_off_c, 2, 55, 0
6, 720, Note_on_c, 2, 51, 88
6, 778, Note_off_c, 2, 51, 0
6, 780, Note_on_c, 2, 55, 88
6, 838, Note_off_c, 2, 55, 0
6, 840, Note_on_c, 2, 53, 88
6, 898, Note_off_c, 2, 53, 0
6, 900, Note_on_c, 2, 55, 88
6, 958, Note_off_c, 2, 55, 0
6, 960, Note_on_c, 2, 48, 88
6, 1018, Note_off_c, 2, 48, 0
6, 1020, Note_on_c, 2, 56, 88
6, 1078, Note_off_c, 2, 56, 0
6, 1080, Note_on_c, 2, 55, 88
6, 1138, Note_off_c, 2, 55, 0
6, 1140, Note_on_c, 2, 56, 88
6, 1198, Note_off_c, 2, 56, 0
6, 1200, Note_on_c, 2, 53, 88
6, 1258, Note_off_c, 2, 53, 0
6, 1260, Note_on_c, 2, 56, 88
6, 1318, Note_off_c, 2, 56, 0
6, 1320, Note_on_c, 2, 55, 88
6, 1378, Note_off_c, 2, 55, 0
6, 1380, Note_on_c, 2, 56, 88
6, 1438, Note_off_c, 2, 56, 0
6, 1440, Note_on_c, 2, 48, 88
6, 1498, Note_off_c, 2, 48, 0
6, 1500, Note_on_c, 2, 56, 88
6, 1558, Note_off_c, 2, 56, 0
6, 1560, Note_on_c, 2, 55, 88
6, 1618, Note_off_c, 2, 55, 0
6, 1620, Note_on_c, 2, 56, 88
6, 1678, Note_off_c, 2, 56, 0
6, 1680, Note_on_c, 2, 53, 88
6, 1738, Note_off_c, 2, 53, 0
6, 1740, Note_on_c, 2, 56, 88
6, 1798, Note_off_c, 2, 56, 0
6, 1800, Note_on_c, 2, 55, 88
6, 1858, Note_off_c, 2, 55, 0
6, 1860, Note_on_c, 2, 56, 88
6, 1918, Note_off_c, 2, 56, 0
6, 1920, Note_on_c, 2, 48, 88
6, 1978, Note_off_c, 2, 48, 0
6, 1980, Note_on_c, 2, 56, 88
6, 2038, Note_off_c, 2, 56, 0
6, 2040, Note_on_c, 2, 55, 88
6, 2098, Note_off_c, 2, 55, 0
6, 2100, Note_on_c, 2, 56, 88
6, 2158, Note_off_c, 2, 56, 0
6, 2160, Note_on_c, 2, 53, 88
6, 2218, Note_off_c, 2, 53, 0
6, 2220, Note_on_c, 2, 56, 88
6, 2278, Note_off_c, 2, 56, 0
6, 2280, Note_on_c, 2, 55, 88
6, 2338, Note_off_c, 2, 55, 0
6, 2340, Note_on_c, 2, 56, 88
6, 2398, Note_off_c, 2, 56, 0
6, 2400, Note_on_c, 2, 48, 88
6, 2458, Note_off_c, 2, 48, 0
6, 2460, Note_on_c, 2, 56, 88
6, 2518, Note_off_c, 2, 56, 0
6, 2520, Note_on_c, 2, 55, 88
6, 2578, Note_off_c, 2, 55, 0
6, 2580, Note_on_c, 2, 56, 88
6, 2638, Note_off_c, 2, 56, 0
6, 2640, Note_on_c, 2, 53, 88
6, 2698, Note_off_c, 2, 53, 0
6, 2700, Note_on_c, 2, 56, 88
6, 2758, Note_off_c, 2, 56, 0
6, 2760, Note_on_c, 2, 55, 88
6, 2818, Note_off_c, 2, 55, 0
6, 2820, Note_on_c, 2, 56, 88
6, 2878, Note_off_c, 2, 56, 0
6, 2880, Note_on_c, 2, 48, 88
6, 2938, Note_off_c, 2, 48, 0
6, 2940, Note_on_c, 2, 51, 88
6, 2998, Note_off_c, 2, 51, 0
6, 3000, Note_on_c, 2, 50, 88
6, 3058, Note_off_c, 2, 50, 0
6, 3060, Note_on_c, 2, 51, 88
6, 3118, Note_off_c, 2, 51, 0
6, 3120, Note_on_c, 2, 55, 88
6, 3178, Note_off_c, 2, 55, 0
6, 3180, Note_on_c, 2, 51, 88
6, 3238, Note_off_c, 2, 51, 0
6, 3240, Note_on_c, 2, 50, 88
6, 3298, Note_off_c, 2, 50, 0
6, 3300, Note_on_c, 2, 51, 88
6, 3358, Note_off_c, 2, 51, 0
6, 3360, Note_on_c, 2, 48, 88
6, 3418, Note_off_c, 2, 48, 0
6, 3420, Note_on_c, 2, 51, 88
6, 3478, Note_off_c, 2, 51, 0
6, 3480, Note_on_c, 2, 50, 88
6, 3538, Note_off_c, 2, 50, 0
6, 3540, Note_on_c, 2, 51, 88
6, 3598, Note_off_c, 2, 51, 0
6, 3600, Note_on_c, 2, 55, 88
6, 3658, Note_off_c, 2, 55, 0
6, 3660, Note_on_c, 2, 51, 88
6, 3718, Note_off_c, 2, 51, 0
6, 3720, Note_on_c, 2, 50, 88
6, 3778, Note_off_c, 2, 50, 0
6, 3780, Note_on_c, 2, 51, 88
6, 3838, Note_off_c, 2, 51, 0
6, 3840, Note_on_c, 2, 48, 88
6, 3898, Note_off_c, 2, 48, 0
6, 3900, Note_on_c, 2, 60, 88
6, 3958, Note_off_c, 2, 60, 0
6, 3960, Note_on_c, 2, 58, 88
6, 4018, Note_off_c, 2, 58, 0
6, 4020, Note_on_c, 2, 60, 88
6, 4078, Note_off_c, 2, 60, 0
6, 4080, Note_on_c, 2, 56, 88
6, 4138, Note_off_c, 2, 56, 0
6, 4140, Note_on_c, 2, 60, 88
6, 4198, Note_off_c, 2, 60, 0
6, 4200, Note_on_c, 2, 58, 88
6, 4258, Note_off_c, 2, 58, 0
6, 4260, Note_on_c, 2, 60, 88
6, 4318, Note_off_c, 2, 60, 0
6, 4320, Note_on_c, 2, 48, 88
6, 4378, Note_off_c, 2, 48, 0
6, 4380, Note_on_c, 2, 60, 88
6, 4438, Note_off_c, 2, 60, 0
6, 4440, Note_on_c, 2, 58, 88
6, 4498, Note_off_c, 2, 58, 0
6, 4500, Note_on_c, 2, 60, 88
6, 4558, Note_off_c, 2, 60, 0
6, 4560, Note_on_c, 2, 56, 88
6, 4618, Note_off_c, 2, 56, 0
6, 4620, Note_on_c, 2, 60, 88
6, 4678, Note_off_c, 2, 60, 0
6, 4680, Note_on_c, 2, 58, 88
6, 4738, Note_off_c, 2, 58, 0
6, 4740, Note_on_c, 2, 60, 88
6, 4798, Note_off_c, 2, 60, 0
6, 4800, Note_on_c, 2, 48, 88
6, 4858, Note_off_c, 2, 48, 0
6, 4860, Note_on_c, 2, 57, 88
6, 4918, Note_off_c, 2, 57, 0
6, 4920, Note_on_c, 2, 55, 88
6, 4978, Note_off_c, 2, 55, 0
6, 4980, Note_on_c, 2, 57, 88
6, 5038, Note_off_c, 2, 57, 0
6, 5040, Note_on_c, 2, 54, 88
6, 5098, Note_off_c, 2, 54, 0
6, 5100, Note_on_c, 2, 57, 88
6, 5158, Note_off_c, 2, 57, 0
6, 5160, Note_on_c, 2, 55, 88
6, 5218, Note_off_c, 2, 55, 0
6, 5220, Note_on_c, 2, 57, 88
6, 5278, Note_off_c, 2, 57, 0
6, 5280, Note_on_c, 2, 48, 88
6, 5338, Note_off_c, 2, 48, 0
6, 5340, Note_on_c, 2, 57, 88
6, 5398, Note_off_c, 2, 57, 0
6, 5400, Note_on_c, 2, 55, 88
6, 5458, Note_off_c, 2, 55, 0
6, 5460, Note_on_c, 2, 57, 88
6, 5518, Note_off_c, 2, 57, 0
6, 5520, Note_on_c, 2, 54, 88
6, 5578, Note_off_c, 2, 54, 0
6, 5580, Note_on_c, 2, 57, 88
6, 5638, Note_off_c, 2, 57, 0
6, 5640, Note_on_c, 2, 55, 88
6, 5698, Note_off_c, 2, 55, 0
6, 5700, Note_on_c, 2, 57, 88
6, 5758, Note_off_c, 2, 57, 0
6, 5760, Note_on_c, 2, 46, 88
6, 5818, Note_off_c, 2, 46, 0
6, 5820, Note_on_c, 2, 58, 88
6, 5878, Note_off_c, 2, 58, 0
6, 5880, Note_on_c, 2, 57, 88
6, 5938, Note_off_c, 2, 57, 0
6, 5940, Note_on_c, 2, 58, 88
6, 5998, Note_off_c, 2, 58, 0
6, 6000, Note_on_c, 2, 55, 88
6, 6058, Note_off_c, 2, 55, 0
6, 6060, Note_on_c, 2, 58, 88
6, 6118, Note_off_c, 2, 58, 0
6, 6120, Note_on_c, 2, 57, 88
6, 6178, Note_off_c, 2, 57, 0
6, 6180, Note_on_c, 2, 58, 88
6, 6238, Note_off_c, 2, 58, 0
6, 6240, Note_on_c, 2, 46, 88
6, 6298, Note_off_c, 2, 46, 0
6, 6300, Note_on_c, 2, 58, 88
6, 6358, Note_off_c, 2, 58, 0
6, 6360, Note_on_c, 2, 57, 88
6, 6418, Note_off_c, 2, 57, 0
6, 6420, Note_on_c, 2, 58, 88
6, 6478, Note_off_c, 2, 58, 0
6, 6480, Note_on_c, 2, 55, 88
6, 6538, Note_off_c, 2, 55, 0
6, 6540, Note_on_c, 2, 58, 88
6, 6598, Note_off_c, 2, 58, 0
6, 6600, Note_on_c, 2, 57, 88
6, 6658, Note_off_c, 2, 57, 0
6, 6660, Note_on_c, 2, 58, 88
6, 6718, Note_off_c, 2, 58, 0
6, 6720, Note_on_c, 2, 46, 88
6, 6778, Note_off_c, 2, 46, 0
6, 6780, Note_on_c, 2, 55, 88
6, 6838, Note_off_c, 2, 55, 0
6, 6840, Note_on_c, 2, 53, 88
6, 6898, Note_off_c, 2, 53, 0
6, 6900, Note_on_c, 2, 55, 88
6, 6958, Note_off_c, 2, 55, 0
6, 6960, Note_on_c, 2, 52, 88
6, 7018, Note_off_c, 2, 52, 0
6, 7020, Note_on_c, 2, 55, 88
6, 7078, Note_off_c, 2, 55, 0
6, 7080, Note_on_c, 2, 53, 88
6, 7138, Note_off_c, 2, 53, 0
6, 7140, Note_on_c, 2, 55, 88
6, 7198, Note_off_c, 2, 55, 0
6, 7200, Note_on_c, 2, 46, 88
6, 7258, Note_off_c, 2, 46, 0
6, 7260, Note_on_c, 2, 55, 88
6, 7318, Note_off_c, 2, 55, 0
6, 7320, Note_on_c, 2, 53, 88
6, 7378, Note_off_c, 2, 53, 0
6, 7380, Note_on_c, 2, 55, 88
6, 7438, Note_off_c, 2, 55, 0
6, 7440, Note_on_c, 2, 52, 88
6, 7498, Note_off_c, 2, 52, 0
6, 7500, Note_on_c, 2, 55, 88
6, 7558, Note_off_c, 2, 55, 0
6, 7560, Note_on_c, 2, 53, 88
6, 7618, Note_off_c, 2, 53, 0
6, 7620, Note_on_c, 2, 55, 88
6, 7678, Note_off_c, 2, 55, 0
6, 7680, Note_on_c, 2, 44, 88
6, 7738, Note_off_c, 2, 44, 0
6, 7740, Note_on_c, 2, 56, 88
6, 7798, Note_off_c, 2, 56, 0
6, 7800, Note_on_c, 2, 55, 88
6, 7858, Note_off_c, 2, 55, 0
6, 7860, Note_on_c, 2, 56, 88
6, 7918, Note_off_c, 2, 56, 0
6, 7920, Note_on_c, 2, 53, 88
6, 7978, Note_off_c, 2, 53, 0
6, 7980, Note_on_c, 2, 56, 88
6, 8038, Note_off_c, 2, 56, 0
6, 8040, Note_on_c, 2, 55, 88
6, 8098, Note_off_c, 2, 55, 0
6, 8100, Note_on_c, 2, 56, 88
6, 8158, Note_off_c, 2, 56, 0
6, 8160, Note_on_c, 2, 44, 88
6, 8218, Note_off_c, 2, 44, 0
6, 8220, Note_on_c, 2, 56, 88
6, 8278, Note_off_c, 2, 56, 0
6, 8280, Note_on_c, 2, 55, 88
6, 8338, Note_off_c, 2, 55, 0
6, 8340, Note_on_c, 2, 56, 88
6, 8398, Note_off_c, 2, 56, 0
6, 8400, Note_on_c, 2, 53, 88
6, 8458, Note_off_c, 2, 53, 0
6, 8460, Note_on_c, 2, 56, 88
6, 8518, Note_off_c, 2, 56, 0
6, 8520, Note_on_c, 2, 55, 88
6, 8578, Note_off_c, 2, 55, 0
6, 8580, Note_on_c, 2, 56, 88
6, 8638, Note_off_c, 2, 56, 0
6, 8640, Note_on_c, 2, 44, 88
6, 8698, Note_off_c, 2, 44, 0
6, 8700, Note_on_c, 2, 50, 88
6, 8758, Note_off_c, 2, 50, 0
6, 8760, Note_on_c, 2, 48, 88
6, 8818, Note_off_c, 2, 48, 0
6, 8820, Note_on_c, 2, 50, 88
6, 8878, Note_off_c, 2, 50, 0
6, 8880, Note_on_c, 2, 53, 88
6, 8938, Note_off_c, 2, 53, 0
6, 8940, Note_on_c, 2, 50, 88
6, 8998, Note_off_c, 2, 50, 0
6, 9000, Note_on_c, 2, 48, 88
6, 9058, Note_off_c, 2, 48, 0
6, 9060, Note_on_c, 2, 50, 88
6, 9118, Note_off_c, 2, 50, 0
6, 9120, Note_on_c, 2, 44, 88
6, 9178, Note_off_c, 2, 44, 0
6, 9180, Note_on_c, 2, 50, 88
6, 9238, Note_off_c, 2, 50, 0
6, 9240, Note_on_c, 2, 48, 88
6, 9298, Note_off_c, 2, 48, 0
6, 9300, Note_on_c, 2, 50, 88
6, 9358, Note_off_c, 2, 50, 0
6, 9360, Note_on_c, 2, 53, 88
6, 9418, Note_off_c, 2, 53, 0
6, 9420, Note_on_c, 2, 50, 88
6, 9478, Note_off_c, 2, 50, 0
6, 9480, Note_on_c, 2, 48, 88
6, 9538, Note_off_c, 2, 48, 0
6, 9540, Note_on_c, 2, 50, 88
6, 9598, Note_off_c, 2, 50, 0
6, 9600, Note_on_c, 2, 43, 88
6, 9658, Note_off_c, 2, 43, 0
6, 9660, Note_on_c, 2, 51, 88
6, 9718, Note_off_c, 2, 51, 0
6, 9720, Note_on_c, 2, 50, 88
6, 9778, Note_off_c, 2, 50, 0
6, 9780, Note_on_c, 2, 51, 88
6, 9838, Note_off_c, 2, 51, 0
6, 9840, Note_on_c, 2, 55, 88
6, 9898, Note_off_c, 2, 55, 0
6, 9900, Note_on_c, 2, 51, 88
6, 9958, Note_off_c, 2, 51, 0
6, 9960, Note_on_c, 2, 50, 88
6, 10018, Note_off_c, 2, 50, 0
6, 10020, Note_on_c, 2, 51, 88
6, 10078, Note_off_c, 2, 51, 0
6, 10080, Note_on_c, 2, 43, 88
6, 10138, Note_off_c, 2, 43, 0
6, 10140, Note_on_c, 2, 51, 88
6, 10198, Note_off_c, 2, 51, 0
6, 10200, Note_on_c, 2, 50, 88
6, 10258, Note_off_c, 2, 50, 0
6, 10260, Note_on_c, 2, 51, 88
6, 10318, Note_off_c, 2, 51, 0
6, 10320, Note_on_c, 2, 55, 88
6, 10378, Note_off_c, 2, 55, 0
6, 10380, Note_on_c, 2, 51, 88
6, 10438, Note_off_c, 2, 51, 0
6, 10440, Note_on_c, 2, 50, 88
6, 10498, Note_off_c, 2, 50, 0
6, 10500, Note_on_c, 2, 51, 88
6, 10558, Note_off_c, 2, 51, 0
6, 10560, Note_on_c, 2, 48, 88
6, 10618, Note_off_c, 2, 48, 0
6, 10620, Note_on_c, 2, 51, 88
6, 10678, Note_off_c, 2, 51, 0
6, 10680, Note_on_c, 2, 50, 88
6, 10738, Note_off_c, 2, 50, 0
6, 10740, Note_on_c, 2, 51, 88
6, 10798, Note_off_c, 2, 51, 0
6, 10800, Note_on_c, 2, 56, 88
6, 10858, Note_off_c, 2, 56, 0
6, 10860, Note_on_c, 2, 51, 88
6, 10918, Note_off_c, 2, 51, 0
6, 10920, Note_on_c, 2, 50, 88
6, 10978, Note_off_c, 2, 50, 0
6, 10980, Note_on_c, 2, 51, 88
6, 11038, Note_off_c, 2, 51, 0
6, 11040, Note_on_c, 2, 48, 88
6, 11098, Note_off_c, 2, 48, 0
6, 11100, Note_on_c, 2, 51, 88
6, 11158, Note_off_c, 2, 51, 0
6, 11160, Note_on_c, 2, 50, 88
6, 11218, Note_off_c, 2, 50, 0
6, 11220, Note_on_c, 2, 51, 88
6, 11278, Note_off_c, 2, 51, 0
6, 11280, Note_on_c, 2, 56, 88
6, 11338, Note_off_c, 2, 56, 0
6, 11340, Note_on_c, 2, 51, 88
6, 11398, Note_off_c, 2, 51, 0
6, 11400, Note_on_c, 2, 50, 88
6, 11458, Note_off_c, 2, 50, 0
6, 11460, Note_on_c, 2, 51, 88
6, 11518, Note_off_c, 2, 51, 0
6, 11520, Note_on_c, 2, 50, 88
6, 11578, Note_off_c, 2, 50, 0
6, 11580, Note_on_c, 2, 53, 88
6, 11638, Note_off_c, 2, 53, 0
6, 11640, Note_on_c, 2, 51, 88
6, 11698, Note_off_c, 2, 51, 0
6, 11700, Note_on_c, 2, 53, 88
6, 11758, Note_off_c, 2, 53, 0
6, 11760, Note_on_c, 2, 56, 88
6, 11818, Note_off_c, 2, 56, 0
6, 11820, Note_on_c, 2, 53, 88
6, 11878, Note_off_c, 2, 53, 0
6, 11880, Note_on_c, 2, 51, 88
6, 11938, Note_off_c, 2, 51, 0
6, 11940, Note_on_c, 2, 53, 88
6, 11998, Note_off_c, 2, 53, 0
6, 12000, Note_on_c, 2, 50, 88
6, 12058, Note_off_c, 2, 50, 0
6, 12060, Note_on_c, 2, 53, 88
6, 12118, Note_off_c, 2, 53, 0
6, 12120, Note_on_c, 2, 51, 88
6, 12178, Note_off_c, 2, 51, 0
6, 12180, Note_on_c, 2, 53, 88
6, 12238, Note_off_c, 2, 53, 0
6, 12240, Note_on_c, 2, 56, 88
6, 12298, Note_off_c, 2, 56, 0
6, 12300, Note_on_c, 2, 53, 88
6, 12358, Note_off_c, 2, 53, 0
6, 12360, Note_on_c, 2, 51, 88
6, 12418, Note_off_c, 2, 51, 0
6, 12420, Note_on_c, 2, 53, 88
6, 12478, Note_off_c, 2, 53, 0
6, 12480, Note_on_c, 2, 51, 88
6, 12538, Note_off_c, 2, 51, 0
6, 12540, Note_on_c, 2, 55, 88
6, 12598, Note_off_c, 2, 55, 0
6, 12600, Note_on_c, 2, 53, 88
6, 12658, Note_off_c, 2, 53, 0
6, 12660, Note_on_c, 2, 55, 88
6, 12718, Note_off_c, 2, 55, 0
6, 12720, Note_on_c, 2, 56, 88
6, 12778, Note_off_c, 2, 56, 0
6, 12780, Note_on_c, 2, 55, 88
6, 12838, Note_off_c, 2, 55, 0
6, 12840, Note_on_c, 2, 53, 88
6, 12898, Note_off_c, 2, 53, 0
6, 12900, Note_on_c, 2, 55, 88
6, 12958, Note_off_c, 2, 55, 0
6, 12960, Note_on_c, 2, 51, 88
6, 13018, Note_off_c, 2, 51, 0
6, 13020, Note_on_c, 2, 55, 88
6, 13078, Note_off_c, 2, 55, 0
6, 13080, Note_on_c, 2, 53, 88
6, 13138, Note_off_c, 2, 53, 0
6, 13140, Note_on_c, 2, 55, 88
6, 13198, Note_off_c, 2, 55, 0
6, 13200, Note_on_c, 2, 56, 88
6, 13258, Note_off_c, 2, 56, 0
6, 13260, Note_on_c, 2, 55, 88
6, 13318, Note_off_c, 2, 55, 0
6, 13320, Note_on_c, 2, 53, 88
6, 13378, Note_off_c, 2, 53, 0
6, 13380, Note_on_c, 2, 55, 88
6, 13438, Note_off_c, 2, 55, 0
6, 13440, Note_on_c, 2, 51, 88
6, 13498, Note_off_c, 2, 51, 0
6, 13500, Note_on_c, 2, 57, 88
6, 13558, Note_off_c, 2, 57, 0
6, 13560, Note_on_c, 2, 55, 88
6, 13618, Note_off_c, 2, 55, 0
6, 13620, Note_on_c, 2, 57, 88
6, 13678, Note_off_c, 2, 57, 0
6, 13680, Note_on_c, 2, 53, 88
6, 13738, Note_off_c, 2, 53, 0
6, 13740, Note_on_c, 2, 57, 88
6, 13798, Note_off_c, 2, 57, 0
6, 13800, Note_on_c, 2, 55, 88
6, 13858, Note_off_c, 2, 55, 0
6, 13860, Note_on_c, 2, 57, 88
6, 13918, Note_off_c, 2, 57, 0
6, 13920, Note_on_c, 2, 51, 88
6, 13978, Note_off_c, 2, 51, 0
6, 13980, Note_on_c, 2, 57, 88
6, 14038, Note_off_c, 2, 57, 0
6, 14040, Note_on_c, 2, 55, 88
6, 14098, Note_off_c, 2, 55, 0
6, 14100, Note_on_c, 2, 57, 88
6, 14158, Note_off_c, 2, 57, 0
6, 14160, Note_on_c, 2, 53, 88
6, 14218, Note_off_c, 2, 53, 0
6, 14220, Note_on_c, 2, 57, 88
6, 14278, Note_off_c, 2, 57, 0
6, 14280, Note_on_c, 2, 55, 88
6, 14338, Note_off_c, 2, 55, 0
6, 14340, Note_on_c, 2, 57, 88
6, 14398, Note_off_c, 2, 57, 0
6, 14400, Note_on_c, 2, 50, 88
6, 14458, Note_off_c, 2, 50, 0
6, 14460, Note_on_c, 2, 53, 88
6, 14518, Note_off_c, 2, 53, 0
6, 14520, Note_on_c, 2, 51, 88
6, 14578, Note_off_c, 2, 51, 0
6, 14580, Note_on_c, 2, 53, 88
6, 14638, Note_off_c, 2, 53, 0
6, 14640, Note_on_c, 2, 56, 88
6, 14698, Note_off_c, 2, 56, 0
6, 14700, Note_on_c, 2, 53, 88
6, 14758, Note_off_c, 2, 53, 0
6, 14760, Note_on_c, 2, 51, 88
6, 14818, Note_off_c, 2, 51, 0
6, 14820, Note_on_c, 2, 53, 88
6, 14878, Note_off_c, 2, 53, 0
6, 14880, Note_on_c, 2, 50, 88
6, 14938, Note_off_c, 2, 50, 0
6, 14940, Note_on_c, 2, 53, 88
6, 14998, Note_off_c, 2, 53, 0
6, 15000, Note_on_c, 2, 51, 88
6, 15058, Note_off_c, 2, 51, 0
6, 15060, Note_on_c, 2, 53, 88
6, 15118, Note_off_c, 2, 53, 0
6, 15120, Note_on_c, 2, 56, 88
6, 15178, Note_off_c, 2, 56, 0
6, 15180, Note_on_c, 2, 53, 88
6, 15238, Note_off_c, 2, 53, 0
6, 15240, Note_on_c, 2, 51, 88
6, 15298, Note_off_c, 2, 51, 0
6, 15300, Note_on_c, 2, 53, 88
6, 15358, Note_off_c, 2, 53, 0
6, 15360, Note_on_c, 2, 48, 88
6, 15418, Note_off_c, 2, 48, 0
6, 15420, Note_on_c, 2, 53, 88
6, 15478, Note_off_c, 2, 53, 0
6, 15480, Note_on_c, 2, 52, 88
6, 15538, Note_off_c, 2, 52, 0
6, 15540, Note_on_c, 2, 53, 88
6, 15598, Note_off_c, 2, 53, 0
6, 15600, Note_on_c, 2, 56, 88
6, 15658, Note_off_c, 2, 56, 0
6, 15660, Note_on_c, 2, 53, 88
6, 15718, Note_off_c, 2, 53, 0
6, 15720, Note_on_c, 2, 52, 88
6, 15778, Note_off_c, 2, 52, 0
6, 15780, Note_on_c, 2, 53, 88
6, 15838, Note_off_c, 2, 53, 0
6, 15840, Note_on_c, 2, 48, 88
6, 15898, Note_off_c, 2, 48, 0
6, 15900, Note_on_c, 2, 53, 88
6, 15958, Note_off_c, 2, 53, 0
6, 15960, Note_on_c, 2, 52, 88
6, 16018, Note_off_c, 2, 52, 0
6, 16020, Note_on_c, 2, 53, 88
6, 16078, Note_off_c, 2, 53, 0
6, 16080, Note_on_c, 2, 56, 88
6, 16138, Note_off_c, 2, 56, 0
6, 16140, Note_on_c, 2, 53, 88
6, 16198, Note_off_c, 2, 53, 0
6, 16200, Note_on_c, 2, 52, 88
6, 16258, Note_off_c, 2, 52, 0
6, 16260, Note_on_c, 2, 53, 88
6, 16318, Note_off_c, 2, 53, 0
6, 16320, Note_on_c, 2, 48, 88
6, 16378, Note_off_c, 2, 48, 0
6, 16380, Note_on_c, 2, 51, 88
6, 16438, Note_off_c, 2, 51, 0
6, 16440, Note_on_c, 2, 50, 88
6, 16498, Note_off_c, 2, 50, 0
6, 16500, Note_on_c, 2, 51, 88
6, 16558, Note_off_c, 2, 51, 0
6, 16560, Note_on_c, 2, 53, 88
6, 16618, Note_off_c, 2, 53, 0
6, 16620, Note_on_c, 2, 51, 88
6, 16678, Note_off_c, 2, 51, 0
6, 16680, Note_on_c, 2, 50, 88
6, 16738, Note_off_c, 2, 50, 0
6, 16740, Note_on_c, 2, 51, 88
6, 16798, Note_off_c, 2, 51, 0
6, 16800, Note_on_c, 2, 48, 88
6, 16858, Note_off_c, 2, 48, 0
6, 16860, Note_on_c, 2, 51, 88
6, 16918, Note_off_c, 2, 51, 0
6, 16920, Note_on_c, 2, 50, 88
6, 16978, Note_off_c, 2, 50, 0
6, 16980, Note_on_c, 2, 51, 88
6, 17038, Note_off_c, 2, 51, 0
6, 17040, Note_on_c, 2, 53, 88
6, 17098, Note_off_c, 2, 53, 0
6, 17100, Note_on_c, 2, 51, 88
6, 17158, Note_off_c, 2, 51, 0
6, 17160, Note_on_c, 2, 50, 88
6, 17218, Note_off_c, 2, 50, 0
6, 17220, Note_on_c, 2, 51, 88
6, 17278, Note_off_c, 2, 51, 0
6, 17280, Note_on_c, 2, 44, 88
6, 17338, Note_off_c, 2, 44, 0
6, 17340, Note_on_c, 2, 48, 88
6, 17398, Note_off_c, 2, 48, 0
6, 17400, Note_on_c, 2, 47, 88
6, 17458, Note_off_c, 2, 47, 0
6, 17460, Note_on_c, 2, 48, 88
6, 17518, Note_off_c, 2, 48, 0
6, 17520, Note_on_c, 2, 50, 88
6, 17578, Note_off_c, 2, 50, 0
6, 17580, Note_on_c, 2, 48, 88
6, 17638, Note_off_c, 2, 48, 0
6, 17640, Note_on_c, 2, 47, 88
6, 17698, Note_off_c, 2, 47, 0
6, 17700, Note_on_c, 2, 48, 88
6, 17758, Note_off_c, 2, 48, 0
6, 17760, Note_on_c, 2, 44, 88
6, 17818, Note_off_c, 2, 44, 0
6, 17820, Note_on_c, 2, 48, 88
6, 17878, Note_off_c, 2, 48, 0
6, 17880, Note_on_c, 2, 47, 88
6, 17938, Note_off_c, 2, 47, 0
6, 17940, Note_on_c, 2, 48, 88
6, 17998, Note_off_c, 2, 48, 0
6, 18000, Note_on_c, 2, 50, 88
6, 18058, Note_off_c, 2, 50, 0
6, 18060, Note_on_c, 2, 48, 88
6, 18118, Note_off_c, 2, 48, 0
6, 18120, Note_on_c, 2, 47, 88
6, 18178, Note_off_c, 2, 47, 0
6, 18180, Note_on_c, 2, 48, 88
6, 18238, Note_off_c, 2, 48, 0
6, 18240, Note_on_c, 2, 45, 88
6, 18298, Note_off_c, 2, 45, 0
6, 18300, Note_on_c, 2, 51, 88
6, 18358, Note_off_c, 2, 51, 0
6, 18360, Note_on_c, 2, 50, 88
6, 18418, Note_off_c, 2, 50, 0
6, 18420, Note_on_c, 2, 51, 88
6, 18478, Note_off_c, 2, 51, 0
6, 18480, Note_on_c, 2, 48, 88
6, 18538, Note_off_c, 2, 48, 0
6, 18540, Note_on_c, 2, 51, 88
6, 18598, Note_off_c, 2, 51, 0
6, 18600, Note_on_c, 2, 50, 88
6, 18658, Note_off_c, 2, 50, 0
6, 18660, Note_on_c, 2, 51, 88
6, 18718, Note_off_c, 2, 51, 0
6, 18720, Note_on_c, 2, 45, 88
6, 18778, Note_off_c, 2, 45, 0
6, 18780, Note_on_c, 2, 51, 88
6, 18838, Note_off_c, 2, 51, 0
6, 18840, Note_on_c, 2, 50, 88
6, 18898, Note_off_c, 2, 50, 0
6, 18900, Note_on_c, 2, 51, 88
6, 18958, Note_off_c, 2, 51, 0
6, 18960, Note_on_c, 2, 48, 88
6, 19018, Note_off_c, 2, 48, 0
6, 19020, Note_on_c, 2, 51, 88
6, 19078, Note_off_c, 2, 51, 0
6, 19080, Note_on_c, 2, 50, 88
6, 19138, Note_off_c, 2, 50, 0
6, 19140, Note_on_c, 2, 51, 88
6, 19198, Note_off_c, 2, 51, 0
6, 19200, Note_on_c, 2, 43, 88
6, 19258, Note_off_c, 2, 43, 0
6, 19260, Note_on_c, 2, 51, 88
6, 19318, Note_off_c, 2, 51, 0
6, 19320, Note_on_c, 2, 50, 88
6, 19378, Note_off_c, 2, 50, 0
6, 19380, Note_on_c, 2, 51, 88
6, 19438, Note_off_c, 2, 51, 0
6, 19440, Note_on_c, 2, 53, 88
6, 19498, Note_off_c, 2, 53, 0
6, 19500, Note_on_c, 2, 51, 88
6, 19558, Note_off_c, 2, 51, 0
6, 19560, Note_on_c, 2, 50, 88
6, 19618, Note_off_c, 2, 50, 0
6, 19620, Note_on_c, 2, 51, 88
6, 19678, Note_off_c, 2, 51, 0
6, 19680, Note_on_c, 2, 43, 88
6, 19738, Note_off_c, 2, 43, 0
6, 19740, Note_on_c, 2, 51, 88
6, 19798, Note_off_c, 2, 51, 0
6, 19800, Note_on_c, 2, 50, 88
6, 19858, Note_off_c, 2, 50, 0
6, 19860, Note_on_c, 2, 51, 88
6, 19918, Note_off_c, 2, 51, 0
6, 19920, Note_on_c, 2, 53, 88
6, 19978, Note_off_c, 2, 53, 0
6, 19980, Note_on_c, 2, 51, 88
6, 20038, Note_off_c, 2, 51, 0
6, 20040, Note_on_c, 2, 50, 88
6, 20098, Note_off_c, 2, 50, 0
6, 20100, Note_on_c, 2, 51, 88
6, 20158, Note_off_c, 2, 51, 0
6, 20160, Note_on_c, 2, 43, 88
6, 20218, Note_off_c, 2, 43, 0
6, 20220, Note_on_c, 2, 51, 88
6, 20278, Note_off_c, 2, 51, 0
6, 20280, Note_on_c, 2, 50, 88
6, 20338, Note_off_c, 2, 50, 0
6, 20340, Note_on_c, 2, 51, 88
6, 20398, Note_off_c, 2, 51, 0
6, 20400, Note_on_c, 2, 48, 88
6, 20458, Note_off_c, 2, 48, 0
6, 20460, Note_on_c, 2, 51, 88
6, 20518, Note_off_c, 2, 51, 0
6, 20520, Note_on_c, 2, 50, 88
6, 20578, Note_off_c, 2, 50, 0
6, 20580, Note_on_c, 2, 51, 88
6, 20638, Note_off_c, 2, 51, 0
6, 20640, Note_on_c, 2, 43, 88
6, 20698, Note_off_c, 2, 43, 0
6, 20700, Note_on_c, 2, 51, 88
6, 20758, Note_off_c, 2, 51, 0
6, 20760, Note_on_c, 2, 50, 88
6, 20818, Note_off_c, 2, 50, 0
6, 20820, Note_on_c, 2, 51, 88
6, 20878, Note_off_c, 2, 51, 0
6, 20880, Note_on_c, 2, 48, 88
6, 20938, Note_off_c, 2, 48, 0
6, 20940, Note_on_c, 2, 51, 88
6, 20998, Note_off_c, 2, 51, 0
6, 21000, Note_on_c, 2, 50, 88
6, 21058, Note_off_c, 2, 50, 0
6, 21060, Note_on_c, 2, 51, 88
6, 21118, Note_off_c, 2, 51, 0
6, 21120, Note_on_c, 2, 43, 88
6, 21178, Note_off_c, 2, 43, 0
6, 21180, Note_on_c, 2, 51, 88
6, 21238, Note_off_c, 2, 51, 0
6, 21240, Note_on_c, 2, 50, 88
6, 21298, Note_off_c, 2, 50, 0
6, 21300, Note_on_c, 2, 51, 88
6, 21358, Note_off_c, 2, 51, 0
6, 21360, Note_on_c, 2, 53, 88
6, 21418, Note_off_c, 2, 53, 0
6, 21420, Note_on_c, 2, 51, 88
6, 21478, Note_off_c, 2, 51, 0
6, 21480, Note_on_c, 2, 50, 88
6, 21538, Note_off_c, 2, 50, 0
6, 21540, Note_on_c, 2, 51, 88
6, 21598, Note_off_c, 2, 51, 0
6, 21600, Note_on_c, 2, 43, 88
6, 21658, Note_off_c, 2, 43, 0
6, 21660, Note_on_c, 2, 51, 88
6, 21718, Note_off_c, 2, 51, 0
6, 21720, Note_on_c, 2, 50, 88
6, 21778, Note_off_c, 2, 50, 0
6, 21780, Note_on_c, 2, 51, 88
6, 21838, Note_off_c, 2, 51, 0
6, 21840, Note_on_c, 2, 53, 88
6, 21898, Note_off_c, 2, 53, 0
6, 21900, Note_on_c, 2, 51, 88
6, 21958, Note_off_c, 2, 51, 0
6, 21960, Note_on_c, 2, 50, 88
6, 22018, Note_off_c, 2, 50, 0
6, 22020, Note_on_c, 2, 51, 88
6, 22078, Note_off_c, 2, 51, 0
6, 22080, Note_on_c, 2, 43, 88
6, 22138, Note_off_c, 2, 43, 0
6, 22140, Note_on_c, 2, 51, 88
6, 22198, Note_off_c, 2, 51, 0
6, 22200, Note_on_c, 2, 50, 88
6, 22258, Note_off_c, 2, 50, 0
6, 22260, Note_on_c, 2, 51, 88
6, 22318, Note_off_c, 2, 51, 0
6, 22320, Note_on_c, 2, 53, 88
6, 22378, Note_off_c, 2, 53, 0
6, 22380, Note_on_c, 2, 51, 88
6, 22438, Note_off_c, 2, 51, 0
6, 22440, Note_on_c, 2, 50, 88
6, 22498, Note_off_c, 2, 50, 0
6, 22500, Note_on_c, 2, 51, 88
6, 22558, Note_off_c, 2, 51, 0
6, 22560, Note_on_c, 2, 43, 88
6, 22618, Note_off_c, 2, 43, 0
6, 22620, Note_on_c, 2, 51, 88
6, 22678, Note_off_c, 2, 51, 0
6, 22680, Note_on_c, 2, 50, 88
6, 22738, Note_off_c, 2, 50, 0
6, 22740, Note_on_c, 2, 51, 88
6, 22798, Note_off_c, 2, 51, 0
6, 22800, Note_on_c, 2, 53, 88
6, 22858, Note_off_c, 2, 53, 0
6, 22860, Note_on_c, 2, 51, 88
6, 22918, Note_off_c, 2, 51, 0
6, 22920, Note_on_c, 2, 50, 88
6, 22978, Note_off_c, 2, 50, 0
6, 22980, Note_on_c, 2, 51, 88
6, 23038, Note_off_c, 2, 51, 0
6, 23040, Note_on_c, 2, 43, 88
6, 23098, Note_off_c, 2, 43, 0
6, 23100, Note_on_c, 2, 47, 88
6, 23158, Note_off_c, 2, 47, 0
6, 23160, Note_on_c, 2, 50, 88
6, 23218, Note_off_c, 2, 50, 0
6, 23220, Note_on_c, 2, 53, 88
6, 23278, Note_off_c, 2, 53, 0
6, 23280, Note_on_c, 2, 56, 88
6, 23338, Note_off_c, 2, 56, 0
6, 23340, Note_on_c, 2, 53, 88
6, 23398, Note_off_c, 2, 53, 0
6, 23400, Note_on_c, 2, 52, 88
6, 23458, Note_off_c, 2, 52, 0
6, 23460, Note_on_c, 2, 53, 88
6, 23518, Note_off_c, 2, 53, 0
6, 23520, Note_on_c, 2, 59, 88
6, 23578, Note_off_c, 2, 59, 0
6, 23580, Note_on_c, 2, 53, 88
6, 23638, Note_off_c, 2, 53, 0
6, 23640, Note_on_c, 2, 62, 88
6, 23698, Note_off_c, 2, 62, 0
6, 23700, Note_on_c, 2, 59, 88
6, 23758, Note_off_c, 2, 59, 0
6, 23760, Note_on_c, 2, 56, 88
6, 23818, Note_off_c, 2, 56, 0
6, 23820, Note_on_c, 2, 53, 88
6, 23878, Note_off_c, 2, 53, 0
6, 23880, Note_on_c, 2, 52, 88
6, 23938, Note_off_c, 2, 52, 0
6, 23940, Note_on_c, 2, 53, 88
6, 23998, Note_off_c, 2, 53, 0
6, 24000, Note_on_c, 2, 43, 88
6, 24058, Note_off_c, 2, 43, 0
6, 24060, Note_on_c, 2, 48, 88
6, 24118, Note_off_c, 2, 48, 0
6, 24120, Note_on_c, 2, 51, 88
6, 24178, Note_off_c, 2, 51, 0
6, 24180, Note_on_c, 2, 55, 88
6, 24238, Note_off_c, 2, 55, 0
6, 24240, Note_on_c, 2, 60, 88
6, 24298, Note_off_c, 2, 60, 0
6, 24300, Note_on_c, 2, 55, 88
6, 24358, Note_off_c, 2, 55, 0
6, 24360, Note_on_c, 2, 54, 88
6, 24418, Note_off_c, 2, 54, 0
6, 24420, Note_on_c, 2, 55, 88
6, 24478, Note_off_c, 2, 55, 0
6, 24480, Note_on_c, 2, 63, 88
6, 24538, Note_off_c, 2, 63, 0
6, 24540, Note_on_c, 2, 60, 88
6, 24598, Note_off_c, 2, 60, 0
6, 24600, Note_on_c, 2, 67, 88
6, 24658, Note_off_c, 2, 67, 0
6, 24660, Note_on_c, 2, 63, 88
6, 24718, Note_off_c, 2, 63, 0
6, 24720, Note_on_c, 2, 60, 88
6, 24778, Note_off_c, 2, 60, 0
6, 24780, Note_on_c, 2, 56, 88
6, 24838, Note_off_c, 2, 56, 0
6, 24840, Note_on_c, 2, 55, 88
6, 24898, Note_off_c, 2, 55, 0
6, 24900, Note_on_c, 2, 56, 88
6, 24958, Note_off_c, 2, 56, 0
6, 24960, Note_on_c, 2, 43, 88
6, 25018, Note_off_c, 2, 43, 0
6, 25020, Note_on_c, 2, 45, 88
6, 25078, Note_off_c, 2, 45, 0
6, 25080, Note_on_c, 2, 54, 88
6, 25138, Note_off_c, 2, 54, 0
6, 25140, Note_on_c, 2, 60, 88
6, 25198, Note_off_c, 2, 60, 0
6, 25200, Note_on_c, 2, 63, 88
6, 25258, Note_off_c, 2, 63, 0
6, 25260, Note_on_c, 2, 60, 88
6, 25318, Note_off_c, 2, 60, 0
6, 25320, Note_on_c, 2, 59, 88
6, 25378, Note_off_c, 2, 59, 0
6, 25380, Note_on_c, 2, 60, 88
6, 25438, Note_off_c, 2, 60, 0
6, 25440, Note_on_c, 2, 66, 88
6, 25498, Note_off_c, 2, 66, 0
6, 25500, Note_on_c, 2, 60, 88
6, 25558, Note_off_c, 2, 60, 0
6, 25560, Note_on_c, 2, 69, 88
6, 25618, Note_off_c, 2, 69, 0
6, 25620, Note_on_c, 2, 66, 88
6, 25678, Note_off_c, 2, 66, 0
6, 25680, Note_on_c, 2, 63, 88
6, 25738, Note_off_c, 2, 63, 0
6, 25740, Note_on_c, 2, 60, 88
6, 25798, Note_off_c, 2, 60, 0
6, 25800, Note_on_c, 2, 59, 88
6, 25858, Note_off_c, 2, 59, 0
6, 25860, Note_on_c, 2, 60, 88
6, 25918, Note_off_c, 2, 60, 0
6, 25920, Note_on_c, 2, 43, 88
6, 26938, Note_off_c, 2, 43, 0
6, 26940, Note_on_c, 2, 62, 88
6, 26998, Note_off_c, 2, 62, 0
6, 27000, Note_on_c, 2, 60, 88
6, 27058, Note_off_c, 2, 60, 0
6, 27060, Note_on_c, 2, 62, 88
6, 27118, Note_off_c, 2, 62, 0
6, 27120, Note_on_c, 2, 63, 88
6, 27178, Note_off_c, 2, 63, 0
6, 27180, Note_on_c, 2, 60, 88
6, 27238, Note_off_c, 2, 60, 0
6, 27240, Note_on_c, 2, 59, 88
6, 27298, Note_off_c, 2, 59, 0
6, 27300, Note_on_c, 2, 60, 88
6, 27358, Note_off_c, 2, 60, 0
6, 27360, Note_on_c, 2, 57, 88
6, 27418, Note_off_c, 2, 57, 0
6, 27420, Note_on_c, 2, 60, 88
6, 27478, Note_off_c, 2, 60, 0
6, 27480, Note_on_c, 2, 59, 88
6, 27538, Note_off_c, 2, 59, 0
6, 27540, Note_on_c, 2, 60, 88
6, 27598, Note_off_c, 2, 60, 0
6, 27600, Note_on_c, 2, 62, 88
6, 27658, Note_off_c, 2, 62, 0
6, 27660, Note_on_c, 2, 59, 88
6, 27718, Note_off_c, 2, 59, 0
6, 27720, Note_on_c, 2, 57, 88
6, 27778, Note_off_c, 2, 57, 0
6, 27780, Note_on_c, 2, 59, 88
6, 27838, Note_off_c, 2, 59, 0
6, 27840, Note_on_c, 2, 55, 88
6, 27898, Note_off_c, 2, 55, 0
6, 27900, Note_on_c, 2, 59, 88
6, 27958, Note_off_c, 2, 59, 0
6, 27960, Note_on_c, 2, 57, 88
6, 28018, Note_off_c, 2, 57, 0
6, 28020, Note_on_c, 2, 59, 88
6, 28078, Note_off_c, 2, 59, 0
6, 28080, Note_on_c, 2, 60, 88
6, 28138, Note_off_c, 2, 60, 0
6, 28140, Note_on_c, 2, 56, 88
6, 28198, Note_off_c, 2, 56, 0
6, 28200, Note_on_c, 2, 55, 88
6, 28258, Note_off_c, 2, 55, 0
6, 28260, Note_on_c, 2, 56, 88
6, 28318, Note_off_c, 2, 56, 0
6, 28320, Note_on_c, 2, 53, 88
6, 28378, Note_off_c, 2, 53, 0
6, 28380, Note_on_c, 2, 57, 88
6, 28438, Note_off_c, 2, 57, 0
6, 28440, Note_on_c, 2, 55, 88
6, 28498, Note_off_c, 2, 55, 0
6, 28500, Note_on_c, 2, 57, 88
6, 28558, Note_off_c, 2, 57, 0
6, 28560, Note_on_c, 2, 59, 88
6, 28618, Note_off_c, 2, 59, 0
6, 28620, Note_on_c, 2, 55, 88
6, 28678, Note_off_c, 2, 55, 0
6, 28680, Note_on_c, 2, 53, 88
6, 28738, Note_off_c, 2, 53, 0
6, 28740, Note_on_c, 2, 55, 88
6, 28798, Note_off_c, 2, 55, 0
6, 28800, Note_on_c, 2, 51, 88
6, 28858, Note_off_c, 2, 51, 0
6, 28860, Note_on_c, 2, 67, 88
6, 28918, Note_off_c, 2, 67, 0
6, 28920, Note_on_c, 2, 65, 88
6, 28978, Note_off_c, 2, 65, 0
6, 28980, Note_on_c, 2, 67, 88
6, 29038, Note_off_c, 2, 67, 0
6, 29040, Note_on_c, 2, 68, 88
6, 29098, Note_off_c, 2, 68, 0
6, 29100, Note_on_c, 2, 65, 88
6, 29158, Note_off_c, 2, 65, 0
6, 29160, Note_on_c, 2, 63, 88
6, 29218, Note_off_c, 2, 63, 0
6, 29220, Note_on_c, 2, 65, 88
6, 29278, Note_off_c, 2, 65, 0
6, 29280, Note_on_c, 2, 62, 88
6, 29338, Note_off_c, 2, 62, 0
6, 29340, Note_on_c, 2, 65, 88
6, 29398, Note_off_c, 2, 65, 0
6, 29400, Note_on_c, 2, 63, 88
6, 29458, Note_off_c, 2, 63, 0
6, 29460, Note_on_c, 2, 65, 88
6, 29518, Note_off_c, 2, 65, 0
6, 29520, Note_on_c, 2, 67, 88
6, 29578, Note_off_c, 2, 67, 0
6, 29580, Note_on_c, 2, 63, 88
6, 29638, Note_off_c, 2, 63, 0
6, 29640, Note_on_c, 2, 62, 88
6, 29698, Note_off_c, 2, 62, 0
6, 29700, Note_on_c, 2, 63, 88
6, 29758, Note_off_c, 2, 63, 0
6, 29760, Note_on_c, 2, 60, 88
6, 29818, Note_off_c, 2, 60, 0
6, 29820, Note_on_c, 2, 63, 88
6, 29878, Note_off_c, 2, 63, 0
6, 29880, Note_on_c, 2, 62, 88
6, 29938, Note_off_c, 2, 62, 0
6, 29940, Note_on_c, 2, 63, 88
6, 29998, Note_off_c, 2, 63, 0
6, 30000, Note_on_c, 2, 65, 88
6, 30058, Note_off_c, 2, 65, 0
6, 30060, Note_on_c, 2, 62, 88
6, 30118, Note_off_c, 2, 62, 0
6, 30120, Note_on_c, 2, 60, 88
6, 30178, Note_off_c, 2, 60, 0
6, 30180, Note_on_c, 2, 62, 88
6, 30238, Note_off_c, 2, 62, 0
6, 30240, Note_on_c, 2, 63, 88
6, 30298, Note_off_c, 2, 63, 0
6, 30300, Note_on_c, 2, 60, 88
6, 30358, Note_off_c, 2, 60, 0
6, 30360, Note_on_c, 2, 59, 88
6, 30418, Note_off_c, 2, 59, 0
6, 30420, Note_on_c, 2, 60, 88
6, 30478, Note_off_c, 2, 60, 0
6, 30480, Note_on_c, 2, 62, 88
6, 30538, Note_off_c, 2, 62, 0
6, 30540, Note_on_c, 2, 59, 88
6, 30598, Note_off_c, 2, 59, 0
6, 30600, Note_on_c, 2, 57, 88
6, 30658, Note_off_c, 2, 57, 0
6, 30660, Note_on_c, 2, 59, 88
6, 30718, Note_off_c, 2, 59, 0
6, 30720, Note_on_c, 2, 60, 88
6, 30778, Note_off_c, 2, 60, 0
6, 30780, Note_on_c, 2, 63, 88
6, 30838, Note_off_c, 2, 63, 0
6, 30840, Note_on_c, 2, 62, 88
6, 30898, Note_off_c, 2, 62, 0
6, 30900, Note_on_c, 2, 63, 88
6, 30958, Note_off_c, 2, 63, 0
6, 30960, Note_on_c, 2, 53, 88
6, 31018, Note_off_c, 2, 53, 0
6, 31020, Note_on_c, 2, 62, 88
6, 31078, Note_off_c, 2, 62, 0
6, 31080, Note_on_c, 2, 60, 88
6, 31138, Note_off_c, 2, 60, 0
6, 31140, Note_on_c, 2, 62, 88
6, 31198, Note_off_c, 2, 62, 0
6, 31200, Note_on_c, 2, 51, 88
6, 31258, Note_off_c, 2, 51, 0
6, 31260, Note_on_c, 2, 60, 88
6, 31318, Note_off_c, 2, 60, 0
6, 31320, Note_on_c, 2, 59, 88
6, 31378, Note_off_c, 2, 59, 0
6, 31380, Note_on_c, 2, 60, 88
6, 31438, Note_off_c, 2, 60, 0
6, 31440, Note_on_c, 2, 50, 88
6, 31498, Note_off_c, 2, 50, 0
6, 31500, Note_on_c, 2, 59, 88
6, 31558, Note_off_c, 2, 59, 0
6, 31560, Note_on_c, 2, 57, 88
6, 31618, Note_off_c, 2, 57, 0
6, 31620, Note_on_c, 2, 59, 88
6, 31678, Note_off_c, 2, 59, 0
6, 31680, Note_on_c, 2, 48, 88
6, 31914, Note_off_c, 2, 48, 0
6, 32160, Note_on_c, 2, 48, 88
6, 32394, Note_off_c, 2, 48, 0
6, 32700, Note_on_c, 2, 36, 88
6, 33586, Note_off_c, 2, 36, 0
6, 35040, Note_on_c, 2, 36, 88
6, 36465, Note_off_c, 2, 36, 0
6, 36465, End_track
0, 0, End_of_file
