0, 0, Header, 1, 6, 240
1, 0, Start_track
1, 0, Time_signature, 3, 3, 24, 8
1, 0, Tempo, 789473
1, 0, SMPTE_offset, 64, 0, 0, 0, 118
1, 24960, Tempo, 869565
1, 25200, Tempo, 967741
1, 25440, Tempo, 1034482
1, 25440, End_track
2, 0, Start_track
2, 0, Title_t, "(C) & (P) 1993"
2, 127, End_track
3, 0, Start_track
3, 0, Title_t, "CCARH,Stanford"
3, 0, End_track
4, 0, Start_track
4, 0, Title_t, "Track 1"
4, 0, Program_c, 0, 6
4, 1440, Note_on_c, 0, 65, 88
4, 1556, Note_off_c, 0, 65, 0
4, 1560, Note_on_c, 0, 69, 88
4, 1676, Note_off_c, 0, 69, 0
4, 1680, Note_on_c, 0, 67, 88
4, 1796, Note_off_c, 0, 67, 0
4, 1800, Note_on_c, 0, 65, 88
4, 1916, Note_off_c, 0, 65, 0
4, 1920, Note_on_c, 0, 67, 88
4, 2036, Note_off_c, 0, 67, 0
4, 2040, Note_on_c, 0, 59, 88
4, 2098, Note_off_c, 0, 59, 0
4, 2100, Note_on_c, 0, 60, 88
4, 2158, Note_off_c, 0, 60, 0
4, 2160, Note_on_c, 0, 62, 88
4, 2218, Note_off_c, 0, 62, 0
4, 2220, Note_on_c, 0, 64, 88
4, 2278, Note_off_c, 0, 64, 0
4, 2280, Note_on_c, 0, 65, 88
4, 2396, Note_off_c, 0, 65, 0
4, 2400, Note_on_c, 0, 67, 88
4, 2458, Note_off_c, 0, 67, 0
4, 2460, Note_on_c, 0, 65, 88
4, 2518, Note_off_c, 0, 65, 0
4, 2520, Note_on_c, 0, 64, 88
4, 2578, Note_off_c, 0, 64, 0
4, 2580, Note_on_c, 0, 62, 88
4, 2638, Note_off_c, 0, 62, 0
4, 2640, Note_on_c, 0, 64, 88
4, 2698, Note_off_c, 0, 64, 0
4, 2700, Note_on_c, 0, 62, 88
4, 2758, Note_off_c, 0, 62, 0
4, 2760, Note_on_c, 0, 60, 88
4, 2818, Note_off_c, 0, 60, 0
4, 2820, Note_on_c, 0, 62, 88
4, 2878, Note_off_c, 0, 62, 0
4, 2880, Note_on_c, 0, 64, 88
4, 2938, Note_off_c, 0, 64, 0
4, 2940, Note_on_c, 0, 65, 88
4, 2998, Note_off_c, 0, 65, 0
4, 3000, Note_on_c, 0, 67, 88
4, 3116, Note_off_c, 0, 67, 0
4, 3120, Note_on_c, 0, 65, 88
4, 3236, Note_off_c, 0, 65, 0
4, 3240, Note_on_c, 0, 64, 88
4, 3356, Note_off_c, 0, 64, 0
4, 3360, Note_on_c, 0, 65, 88
4, 3418, Note_off_c, 0, 65, 0
4, 3420, Note_on_c, 0, 64, 88
4, 3478, Note_off_c, 0, 64, 0
4, 3480, Note_on_c, 0, 62, 88
4, 3538, Note_off_c, 0, 62, 0
4, 3540, Note_on_c, 0, 64, 88
4, 3598, Note_off_c, 0, 64, 0
4, 3600, Note_on_c, 0, 65, 88
4, 3658, Note_off_c, 0, 65, 0
4, 3660, Note_on_c, 0, 67, 88
4, 3718, Note_off_c, 0, 67, 0
4, 3720, Note_on_c, 0, 69, 88
4, 3778, Note_off_c, 0, 69, 0
4, 3780, Note_on_c, 0, 72, 88
4, 3838, Note_off_c, 0, 72, 0
4, 3840, Note_on_c, 0, 70, 88
4, 3898, Note_off_c, 0, 70, 0
4, 3900, Note_on_c, 0, 69, 88
4, 3958, Note_off_c, 0, 69, 0
4, 3960, Note_on_c, 0, 67, 88
4, 4018, Note_off_c, 0, 67, 0
4, 4020, Note_on_c, 0, 65, 88
4, 4078, Note_off_c, 0, 65, 0
4, 4080, Note_on_c, 0, 65, 88
4, 4120, Note_off_c, 0, 65, 0
4, 4121, Note_on_c, 0, 64, 88
4, 4150, Note_off_c, 0, 64, 0
4, 4151, Note_on_c, 0, 65, 88
4, 4180, Note_off_c, 0, 65, 0
4, 4181, Note_on_c, 0, 64, 88
4, 4210, Note_off_c, 0, 64, 0
4, 4211, Note_on_c, 0, 65, 88
4, 4240, Note_off_c, 0, 65, 0
4, 4241, Note_on_c, 0, 64, 88
4, 4270, Note_off_c, 0, 64, 0
4, 4271, Note_on_c, 0, 65, 88
4, 4300, Note_off_c, 0, 65, 0
4, 4301, Note_on_c, 0, 64, 88
4, 4330, Note_off_c, 0, 64, 0
4, 4331, Note_on_c, 0, 65, 88
4, 4357, Note_off_c, 0, 65, 0
4, 4358, Note_on_c, 0, 64, 88
4, 4383, Note_off_c, 0, 64, 0
4, 4384, Note_on_c, 0, 62, 88
4, 4409, Note_off_c, 0, 62, 0
4, 4410, Note_on_c, 0, 64, 88
4, 4439, Note_off_c, 0, 64, 0
4, 4440, Note_on_c, 0, 65, 88
4, 4556, Note_off_c, 0, 65, 0
4, 4560, Note_on_c, 0, 69, 88
4, 4794, Note_off_c, 0, 69, 0
4, 4800, Note_on_c, 0, 67, 88
4, 4916, Note_off_c, 0, 67, 0
4, 4920, Note_on_c, 0, 72, 88
4, 5154, Note_off_c, 0, 72, 0
4, 5160, Note_on_c, 0, 71, 88
4, 5276, Note_off_c, 0, 71, 0
4, 5280, Note_on_c, 0, 76, 88
4, 5514, Note_off_c, 0, 76, 0
4, 5520, Note_on_c, 0, 74, 88
4, 5921, Note_off_c, 0, 74, 0
4, 5940, Note_on_c, 0, 74, 88
4, 5998, Note_off_c, 0, 74, 0
4, 6000, Note_on_c, 0, 72, 88
4, 6101, Note_off_c, 0, 72, 0
4, 6120, Note_on_c, 0, 72, 88
4, 6236, Note_off_c, 0, 72, 0
4, 6240, Note_on_c, 0, 74, 88
4, 6356, Note_off_c, 0, 74, 0
4, 6360, Note_on_c, 0, 72, 88
4, 6476, Note_off_c, 0, 72, 0
4, 6480, Note_on_c, 0, 70, 88
4, 6596, Note_off_c, 0, 70, 0
4, 6600, Note_on_c, 0, 72, 88
4, 6716, Note_off_c, 0, 72, 0
4, 6720, Note_on_c, 0, 64, 88
4, 6778, Note_off_c, 0, 64, 0
4, 6780, Note_on_c, 0, 65, 88
4, 6838, Note_off_c, 0, 65, 0
4, 6840, Note_on_c, 0, 67, 88
4, 6898, Note_off_c, 0, 67, 0
4, 6900, Note_on_c, 0, 69, 88
4, 6958, Note_off_c, 0, 69, 0
4, 6960, Note_on_c, 0, 70, 88
4, 7076, Note_off_c, 0, 70, 0
4, 7080, Note_on_c, 0, 72, 88
4, 7138, Note_off_c, 0, 72, 0
4, 7140, Note_on_c, 0, 70, 88
4, 7198, Note_off_c, 0, 70, 0
4, 7200, Note_on_c, 0, 69, 88
4, 7258, Note_off_c, 0, 69, 0
4, 7260, Note_on_c, 0, 67, 88
4, 7318, Note_off_c, 0, 67, 0
4, 7320, Note_on_c, 0, 69, 88
4, 7378, Note_off_c, 0, 69, 0
4, 7380, Note_on_c, 0, 67, 88
4, 7438, Note_off_c, 0, 67, 0
4, 7440, Note_on_c, 0, 65, 88
4, 7498, Note_off_c, 0, 65, 0
4, 7500, Note_on_c, 0, 67, 88
4, 7558, Note_off_c, 0, 67, 0
4, 7560, Note_on_c, 0, 69, 88
4, 7618, Note_off_c, 0, 69, 0
4, 7620, Note_on_c, 0, 70, 88
4, 7678, Note_off_c, 0, 70, 0
4, 7680, Note_on_c, 0, 72, 88
4, 7738, Note_off_c, 0, 72, 0
4, 7740, Note_on_c, 0, 70, 88
4, 7798, Note_off_c, 0, 70, 0
4, 7800, Note_on_c, 0, 69, 88
4, 7858, Note_off_c, 0, 69, 0
4, 7860, Note_on_c, 0, 70, 88
4, 7918, Note_off_c, 0, 70, 0
4, 7920, Note_on_c, 0, 72, 88
4, 7978, Note_off_c, 0, 72, 0
4, 7980, Note_on_c, 0, 74, 88
4, 8038, Note_off_c, 0, 74, 0
4, 8040, Note_on_c, 0, 76, 88
4, 8098, Note_off_c, 0, 76, 0
4, 8100, Note_on_c, 0, 79, 88
4, 8158, Note_off_c, 0, 79, 0
4, 8160, Note_on_c, 0, 77, 88
4, 8218, Note_off_c, 0, 77, 0
4, 8220, Note_on_c, 0, 76, 88
4, 8278, Note_off_c, 0, 76, 0
4, 8280, Note_on_c, 0, 74, 88
4, 8338, Note_off_c, 0, 74, 0
4, 8340, Note_on_c, 0, 72, 88
4, 8398, Note_off_c, 0, 72, 0
4, 8400, Note_on_c, 0, 72, 88
4, 8433, Note_off_c, 0, 72, 0
4, 8434, Note_on_c, 0, 71, 88
4, 8459, Note_off_c, 0, 71, 0
4, 8460, Note_on_c, 0, 72, 88
4, 8485, Note_off_c, 0, 72, 0
4, 8486, Note_on_c, 0, 71, 88
4, 8512, Note_off_c, 0, 71, 0
4, 8513, Note_on_c, 0, 72, 88
4, 8538, Note_off_c, 0, 72, 0
4, 8539, Note_on_c, 0, 71, 88
4, 8564, Note_off_c, 0, 71, 0
4, 8565, Note_on_c, 0, 72, 88
4, 8590, Note_off_c, 0, 72, 0
4, 8591, Note_on_c, 0, 71, 88
4, 8617, Note_off_c, 0, 71, 0
4, 8618, Note_on_c, 0, 72, 88
4, 8643, Note_off_c, 0, 72, 0
4, 8644, Note_on_c, 0, 71, 88
4, 8669, Note_off_c, 0, 71, 0
4, 8670, Note_on_c, 0, 72, 88
4, 8692, Note_off_c, 0, 72, 0
4, 8693, Note_on_c, 0, 71, 88
4, 8714, Note_off_c, 0, 71, 0
4, 8715, Note_on_c, 0, 69, 88
4, 8737, Note_off_c, 0, 69, 0
4, 8738, Note_on_c, 0, 71, 88
4, 8759, Note_off_c, 0, 71, 0
4, 8760, Note_on_c, 0, 72, 88
4, 8818, Note_off_c, 0, 72, 0
4, 8820, Note_on_c, 0, 74, 88
4, 8878, Note_off_c, 0, 74, 0
4, 8880, Note_on_c, 0, 76, 88
4, 8938, Note_off_c, 0, 76, 0
4, 8940, Note_on_c, 0, 77, 88
4, 8998, Note_off_c, 0, 77, 0
4, 9000, Note_on_c, 0, 79, 88
4, 9058, Note_off_c, 0, 79, 0
4, 9060, Note_on_c, 0, 81, 88
4, 9118, Note_off_c, 0, 81, 0
4, 9120, Note_on_c, 0, 70, 88
4, 9178, Note_off_c, 0, 70, 0
4, 9180, Note_on_c, 0, 72, 88
4, 9238, Note_off_c, 0, 72, 0
4, 9240, Note_on_c, 0, 74, 88
4, 9298, Note_off_c, 0, 74, 0
4, 9300, Note_on_c, 0, 76, 88
4, 9358, Note_off_c, 0, 76, 0
4, 9360, Note_on_c, 0, 77, 88
4, 9418, Note_off_c, 0, 77, 0
4, 9420, Note_on_c, 0, 79, 88
4, 9478, Note_off_c, 0, 79, 0
4, 9480, Note_on_c, 0, 81, 88
4, 9538, Note_off_c, 0, 81, 0
4, 9540, Note_on_c, 0, 84, 88
4, 9598, Note_off_c, 0, 84, 0
4, 9600, Note_on_c, 0, 82, 88
4, 9658, Note_off_c, 0, 82, 0
4, 9660, Note_on_c, 0, 81, 88
4, 9718, Note_off_c, 0, 81, 0
4, 9720, Note_on_c, 0, 79, 88
4, 9778, Note_off_c, 0, 79, 0
4, 9780, Note_on_c, 0, 77, 88
4, 9838, Note_off_c, 0, 77, 0
4, 9840, Note_on_c, 0, 77, 88
4, 9941, Note_off_c, 0, 77, 0
4, 9960, Note_on_c, 0, 77, 88
4, 9993, Note_off_c, 0, 77, 0
4, 9994, Note_on_c, 0, 76, 88
4, 10023, Note_off_c, 0, 76, 0
4, 10024, Note_on_c, 0, 77, 88
4, 10053, Note_off_c, 0, 77, 0
4, 10054, Note_on_c, 0, 76, 88
4, 10083, Note_off_c, 0, 76, 0
4, 10084, Note_on_c, 0, 77, 88
4, 10113, Note_off_c, 0, 77, 0
4, 10114, Note_on_c, 0, 76, 88
4, 10143, Note_off_c, 0, 76, 0
4, 10144, Note_on_c, 0, 74, 88
4, 10169, Note_off_c, 0, 74, 0
4, 10170, Note_on_c, 0, 76, 88
4, 10199, Note_off_c, 0, 76, 0
4, 10200, Note_on_c, 0, 77, 88
4, 10316, Note_off_c, 0, 77, 0
4, 10560, Note_on_c, 0, 79, 88
4, 10961, Note_off_c, 0, 79, 0
4, 10980, Note_on_c, 0, 79, 88
4, 11038, Note_off_c, 0, 79, 0
4, 11040, Note_on_c, 0, 77, 88
4, 11098, Note_off_c, 0, 77, 0
4, 11100, Note_on_c, 0, 76, 88
4, 11158, Note_off_c, 0, 76, 0
4, 11160, Note_on_c, 0, 74, 88
4, 11218, Note_off_c, 0, 74, 0
4, 11220, Note_on_c, 0, 72, 88
4, 11278, Note_off_c, 0, 72, 0
4, 11280, Note_on_c, 0, 77, 88
4, 11681, Note_off_c, 0, 77, 0
4, 11700, Note_on_c, 0, 77, 88
4, 11758, Note_off_c, 0, 77, 0
4, 11760, Note_on_c, 0, 76, 88
4, 11818, Note_off_c, 0, 76, 0
4, 11820, Note_on_c, 0, 74, 88
4, 11878, Note_off_c, 0, 74, 0
4, 11880, Note_on_c, 0, 73, 88
4, 11938, Note_off_c, 0, 73, 0
4, 11940, Note_on_c, 0, 71, 88
4, 11998, Note_off_c, 0, 71, 0
4, 12000, Note_on_c, 0, 76, 88
4, 12476, Note_off_c, 0, 76, 0
4, 12480, Note_on_c, 0, 69, 88
4, 12596, Note_off_c, 0, 69, 0
4, 12600, Note_on_c, 0, 74, 88
4, 12716, Note_off_c, 0, 74, 0
4, 12720, Note_on_c, 0, 73, 88
4, 12954, Note_off_c, 0, 73, 0
4, 12960, Note_on_c, 0, 81, 88
4, 13076, Note_off_c, 0, 81, 0
4, 13080, Note_on_c, 0, 82, 88
4, 13196, Note_off_c, 0, 82, 0
4, 13200, Note_on_c, 0, 81, 88
4, 13316, Note_off_c, 0, 81, 0
4, 13320, Note_on_c, 0, 79, 88
4, 13436, Note_off_c, 0, 79, 0
4, 13440, Note_on_c, 0, 81, 88
4, 13556, Note_off_c, 0, 81, 0
4, 13560, Note_on_c, 0, 73, 88
4, 13618, Note_off_c, 0, 73, 0
4, 13620, Note_on_c, 0, 74, 88
4, 13678, Note_off_c, 0, 74, 0
4, 13680, Note_on_c, 0, 76, 88
4, 13738, Note_off_c, 0, 76, 0
4, 13740, Note_on_c, 0, 77, 88
4, 13798, Note_off_c, 0, 77, 0
4, 13800, Note_on_c, 0, 79, 88
4, 13916, Note_off_c, 0, 79, 0
4, 13920, Note_on_c, 0, 81, 88
4, 13978, Note_off_c, 0, 81, 0
4, 13980, Note_on_c, 0, 79, 88
4, 14038, Note_off_c, 0, 79, 0
4, 14040, Note_on_c, 0, 77, 88
4, 14098, Note_off_c, 0, 77, 0
4, 14100, Note_on_c, 0, 76, 88
4, 14158, Note_off_c, 0, 76, 0
4, 14160, Note_on_c, 0, 77, 88
4, 14218, Note_off_c, 0, 77, 0
4, 14220, Note_on_c, 0, 81, 88
4, 14278, Note_off_c, 0, 81, 0
4, 14280, Note_on_c, 0, 79, 88
4, 14338, Note_off_c, 0, 79, 0
4, 14340, Note_on_c, 0, 77, 88
4, 14398, Note_off_c, 0, 77, 0
4, 14400, Note_on_c, 0, 76, 88
4, 14458, Note_off_c, 0, 76, 0
4, 14460, Note_on_c, 0, 74, 88
4, 14518, Note_off_c, 0, 74, 0
4, 14520, Note_on_c, 0, 74, 88
4, 14553, Note_off_c, 0, 74, 0
4, 14554, Note_on_c, 0, 73, 88
4, 14583, Note_off_c, 0, 73, 0
4, 14584, Note_on_c, 0, 74, 88
4, 14613, Note_off_c, 0, 74, 0
4, 14614, Note_on_c, 0, 73, 88
4, 14643, Note_off_c, 0, 73, 0
4, 14644, Note_on_c, 0, 74, 88
4, 14669, Note_off_c, 0, 74, 0
4, 14670, Note_on_c, 0, 73, 88
4, 14695, Note_off_c, 0, 73, 0
4, 14696, Note_on_c, 0, 74, 88
4, 14722, Note_off_c, 0, 74, 0
4, 14723, Note_on_c, 0, 73, 88
4, 14748, Note_off_c, 0, 73, 0
4, 14749, Note_on_c, 0, 74, 88
4, 14774, Note_off_c, 0, 74, 0
4, 14775, Note_on_c, 0, 73, 88
4, 14800, Note_off_c, 0, 73, 0
4, 14801, Note_on_c, 0, 74, 88
4, 14827, Note_off_c, 0, 74, 0
4, 14828, Note_on_c, 0, 73, 88
4, 14878, Note_off_c, 0, 73, 0
4, 14880, Note_on_c, 0, 73, 88
4, 14938, Note_off_c, 0, 73, 0
4, 14940, Note_on_c, 0, 74, 88
4, 14969, Note_off_c, 0, 74, 0
4, 14970, Note_on_c, 0, 72, 88
4, 14999, Note_off_c, 0, 72, 0
4, 15000, Note_on_c, 0, 70, 88
4, 15058, Note_off_c, 0, 70, 0
4, 15060, Note_on_c, 0, 69, 88
4, 15118, Note_off_c, 0, 69, 0
4, 15120, Note_on_c, 0, 67, 88
4, 15178, Note_off_c, 0, 67, 0
4, 15180, Note_on_c, 0, 65, 88
4, 15238, Note_off_c, 0, 65, 0
4, 15240, Note_on_c, 0, 70, 88
4, 15356, Note_off_c, 0, 70, 0
4, 15360, Note_on_c, 0, 69, 88
4, 15476, Note_off_c, 0, 69, 0
4, 15480, Note_on_c, 0, 67, 88
4, 15596, Note_off_c, 0, 67, 0
4, 15600, Note_on_c, 0, 69, 88
4, 16018, Note_off_c, 0, 69, 0
4, 16020, Note_on_c, 0, 70, 88
4, 16078, Note_off_c, 0, 70, 0
4, 16080, Note_on_c, 0, 65, 88
4, 16105, Note_off_c, 0, 65, 0
4, 16106, Note_on_c, 0, 64, 88
4, 16132, Note_off_c, 0, 64, 0
4, 16133, Note_on_c, 0, 65, 88
4, 16154, Note_off_c, 0, 65, 0
4, 16155, Note_on_c, 0, 64, 88
4, 16177, Note_off_c, 0, 64, 0
4, 16178, Note_on_c, 0, 65, 88
4, 16199, Note_off_c, 0, 65, 0
4, 16200, Note_on_c, 0, 64, 88
4, 16258, Note_off_c, 0, 64, 0
4, 16260, Note_on_c, 0, 62, 88
4, 16318, Note_off_c, 0, 62, 0
4, 16320, Note_on_c, 0, 62, 88
4, 16378, Note_off_c, 0, 62, 0
4, 16380, Note_on_c, 0, 64, 88
4, 16438, Note_off_c, 0, 64, 0
4, 16440, Note_on_c, 0, 65, 88
4, 16498, Note_off_c, 0, 65, 0
4, 16500, Note_on_c, 0, 67, 88
4, 16558, Note_off_c, 0, 67, 0
4, 16560, Note_on_c, 0, 69, 88
4, 16618, Note_off_c, 0, 69, 0
4, 16620, Note_on_c, 0, 70, 88
4, 16678, Note_off_c, 0, 70, 0
4, 16680, Note_on_c, 0, 72, 88
4, 16738, Note_off_c, 0, 72, 0
4, 16740, Note_on_c, 0, 70, 88
4, 16798, Note_off_c, 0, 70, 0
4, 16800, Note_on_c, 0, 72, 88
4, 16858, Note_off_c, 0, 72, 0
4, 16860, Note_on_c, 0, 74, 88
4, 16918, Note_off_c, 0, 74, 0
4, 16920, Note_on_c, 0, 75, 88
4, 16978, Note_off_c, 0, 75, 0
4, 16980, Note_on_c, 0, 74, 88
4, 17038, Note_off_c, 0, 74, 0
4, 17040, Note_on_c, 0, 66, 88
4, 17098, Note_off_c, 0, 66, 0
4, 17100, Note_on_c, 0, 64, 88
4, 17158, Note_off_c, 0, 64, 0
4, 17160, Note_on_c, 0, 62, 88
4, 17218, Note_off_c, 0, 62, 0
4, 17220, Note_on_c, 0, 64, 88
4, 17278, Note_off_c, 0, 64, 0
4, 17280, Note_on_c, 0, 66, 88
4, 17338, Note_off_c, 0, 66, 0
4, 17340, Note_on_c, 0, 67, 88
4, 17398, Note_off_c, 0, 67, 0
4, 17400, Note_on_c, 0, 69, 88
4, 17818, Note_off_c, 0, 69, 0
4, 17820, Note_on_c, 0, 67, 88
4, 17878, Note_off_c, 0, 67, 0
4, 17880, Note_on_c, 0, 69, 88
4, 17938, Note_off_c, 0, 69, 0
4, 17940, Note_on_c, 0, 70, 88
4, 17998, Note_off_c, 0, 70, 0
4, 18000, Note_on_c, 0, 72, 88
4, 18058, Note_off_c, 0, 72, 0
4, 18060, Note_on_c, 0, 74, 88
4, 18118, Note_off_c, 0, 74, 0
4, 18120, Note_on_c, 0, 75, 88
4, 18236, Note_off_c, 0, 75, 0
4, 18240, Note_on_c, 0, 74, 88
4, 18356, Note_off_c, 0, 74, 0
4, 18360, Note_on_c, 0, 72, 88
4, 18476, Note_off_c, 0, 72, 0
4, 18480, Note_on_c, 0, 74, 88
4, 18596, Note_off_c, 0, 74, 0
4, 18600, Note_on_c, 0, 66, 88
4, 18658, Note_off_c, 0, 66, 0
4, 18660, Note_on_c, 0, 67, 88
4, 18718, Note_off_c, 0, 67, 0
4, 18720, Note_on_c, 0, 69, 88
4, 18778, Note_off_c, 0, 69, 0
4, 18780, Note_on_c, 0, 70, 88
4, 18838, Note_off_c, 0, 70, 0
4, 18840, Note_on_c, 0, 72, 88
4, 18898, Note_off_c, 0, 72, 0
4, 18900, Note_on_c, 0, 70, 88
4, 18958, Note_off_c, 0, 70, 0
4, 18960, Note_on_c, 0, 74, 88
4, 19018, Note_off_c, 0, 74, 0
4, 19020, Note_on_c, 0, 72, 88
4, 19078, Note_off_c, 0, 72, 0
4, 19080, Note_on_c, 0, 70, 88
4, 19138, Note_off_c, 0, 70, 0
4, 19140, Note_on_c, 0, 69, 88
4, 19198, Note_off_c, 0, 69, 0
4, 19200, Note_on_c, 0, 70, 88
4, 19258, Note_off_c, 0, 70, 0
4, 19260, Note_on_c, 0, 66, 88
4, 19318, Note_off_c, 0, 66, 0
4, 19320, Note_on_c, 0, 67, 88
4, 19378, Note_off_c, 0, 67, 0
4, 19380, Note_on_c, 0, 69, 88
4, 19438, Note_off_c, 0, 69, 0
4, 19440, Note_on_c, 0, 70, 88
4, 19498, Note_off_c, 0, 70, 0
4, 19500, Note_on_c, 0, 73, 88
4, 19558, Note_off_c, 0, 73, 0
4, 19560, Note_on_c, 0, 74, 88
4, 19618, Note_off_c, 0, 74, 0
4, 19620, Note_on_c, 0, 79, 88
4, 19678, Note_off_c, 0, 79, 0
4, 19680, Note_on_c, 0, 72, 88
4, 19698, Note_off_c, 0, 72, 0
4, 19699, Note_on_c, 0, 70, 88
4, 19721, Note_off_c, 0, 70, 0
4, 19721, Note_on_c, 0, 72, 88
4, 19743, Note_off_c, 0, 72, 0
4, 19744, Note_on_c, 0, 70, 88
4, 19762, Note_off_c, 0, 70, 0
4, 19763, Note_on_c, 0, 72, 88
4, 19781, Note_on_c, 0, 70, 88
4, 19781, Note_off_c, 0, 72, 0
4, 19799, Note_off_c, 0, 70, 0
4, 19800, Note_on_c, 0, 69, 88
4, 19858, Note_off_c, 0, 69, 0
4, 19860, Note_on_c, 0, 67, 88
4, 19918, Note_off_c, 0, 67, 0
4, 19920, Note_on_c, 0, 67, 88
4, 20036, Note_off_c, 0, 67, 0
4, 20040, Note_on_c, 0, 70, 88
4, 20338, Note_off_c, 0, 70, 0
4, 20340, Note_on_c, 0, 67, 88
4, 20398, Note_off_c, 0, 67, 0
4, 20400, Note_on_c, 0, 72, 88
4, 20458, Note_off_c, 0, 72, 0
4, 20460, Note_on_c, 0, 70, 88
4, 20518, Note_off_c, 0, 70, 0
4, 20520, Note_on_c, 0, 69, 88
4, 20578, Note_off_c, 0, 69, 0
4, 20580, Note_on_c, 0, 67, 88
4, 20638, Note_off_c, 0, 67, 0
4, 20640, Note_on_c, 0, 69, 88
4, 21058, Note_off_c, 0, 69, 0
4, 21060, Note_on_c, 0, 65, 88
4, 21118, Note_off_c, 0, 65, 0
4, 21120, Note_on_c, 0, 70, 88
4, 21178, Note_off_c, 0, 70, 0
4, 21180, Note_on_c, 0, 69, 88
4, 21238, Note_off_c, 0, 69, 0
4, 21240, Note_on_c, 0, 67, 88
4, 21298, Note_off_c, 0, 67, 0
4, 21300, Note_on_c, 0, 65, 88
4, 21358, Note_off_c, 0, 65, 0
4, 21360, Note_on_c, 0, 64, 88
4, 21476, Note_off_c, 0, 64, 0
4, 21480, Note_on_c, 0, 65, 88
4, 21596, Note_off_c, 0, 65, 0
4, 21600, Note_on_c, 0, 67, 88
4, 21716, Note_off_c, 0, 67, 0
4, 21720, Note_on_c, 0, 69, 88
4, 21836, Note_off_c, 0, 69, 0
4, 21840, Note_on_c, 0, 70, 88
4, 21956, Note_off_c, 0, 70, 0
4, 21960, Note_on_c, 0, 72, 88
4, 22076, Note_off_c, 0, 72, 0
4, 22080, Note_on_c, 0, 74, 88
4, 22196, Note_off_c, 0, 74, 0
4, 22200, Note_on_c, 0, 76, 88
4, 22316, Note_off_c, 0, 76, 0
4, 22320, Note_on_c, 0, 77, 88
4, 22436, Note_off_c, 0, 77, 0
4, 22440, Note_on_c, 0, 79, 88
4, 22858, Note_off_c, 0, 79, 0
4, 22860, Note_on_c, 0, 72, 88
4, 22918, Note_off_c, 0, 72, 0
4, 22920, Note_on_c, 0, 77, 88
4, 22978, Note_off_c, 0, 77, 0
4, 22980, Note_on_c, 0, 75, 88
4, 23038, Note_off_c, 0, 75, 0
4, 23040, Note_on_c, 0, 74, 88
4, 23098, Note_off_c, 0, 74, 0
4, 23100, Note_on_c, 0, 72, 88
4, 23158, Note_off_c, 0, 72, 0
4, 23160, Note_on_c, 0, 74, 88
4, 23218, Note_off_c, 0, 74, 0
4, 23220, Note_on_c, 0, 72, 88
4, 23278, Note_off_c, 0, 72, 0
4, 23280, Note_on_c, 0, 75, 88
4, 23338, Note_off_c, 0, 75, 0
4, 23340, Note_on_c, 0, 74, 88
4, 23398, Note_off_c, 0, 74, 0
4, 23400, Note_on_c, 0, 72, 88
4, 23458, Note_off_c, 0, 72, 0
4, 23460, Note_on_c, 0, 70, 88
4, 23518, Note_off_c, 0, 70, 0
4, 23520, Note_on_c, 0, 72, 88
4, 23636, Note_off_c, 0, 72, 0
4, 23640, Note_on_c, 0, 64, 88
4, 23698, Note_off_c, 0, 64, 0
4, 23700, Note_on_c, 0, 65, 88
4, 23758, Note_off_c, 0, 65, 0
4, 23760, Note_on_c, 0, 67, 88
4, 23818, Note_off_c, 0, 67, 0
4, 23820, Note_on_c, 0, 69, 88
4, 23878, Note_off_c, 0, 69, 0
4, 23880, Note_on_c, 0, 70, 88
4, 23938, Note_off_c, 0, 70, 0
4, 23940, Note_on_c, 0, 69, 88
4, 23998, Note_off_c, 0, 69, 0
4, 24000, Note_on_c, 0, 72, 88
4, 24058, Note_off_c, 0, 72, 0
4, 24060, Note_on_c, 0, 70, 88
4, 24118, Note_off_c, 0, 70, 0
4, 24120, Note_on_c, 0, 69, 88
4, 24178, Note_off_c, 0, 69, 0
4, 24180, Note_on_c, 0, 67, 88
4, 24238, Note_off_c, 0, 67, 0
4, 24240, Note_on_c, 0, 69, 88
4, 24298, Note_off_c, 0, 69, 0
4, 24300, Note_on_c, 0, 67, 88
4, 24358, Note_off_c, 0, 67, 0
4, 24360, Note_on_c, 0, 70, 88
4, 24418, Note_off_c, 0, 70, 0
4, 24420, Note_on_c, 0, 69, 88
4, 24478, Note_off_c, 0, 69, 0
4, 24480, Note_on_c, 0, 72, 88
4, 24538, Note_off_c, 0, 72, 0
4, 24540, Note_on_c, 0, 70, 88
4, 24598, Note_off_c, 0, 70, 0
4, 24600, Note_on_c, 0, 74, 88
4, 24658, Note_off_c, 0, 74, 0
4, 24660, Note_on_c, 0, 72, 88
4, 24718, Note_off_c, 0, 72, 0
4, 24720, Note_on_c, 0, 76, 88
4, 24778, Note_off_c, 0, 76, 0
4, 24780, Note_on_c, 0, 74, 88
4, 24838, Note_off_c, 0, 74, 0
4, 24840, Note_on_c, 0, 77, 88
4, 24898, Note_off_c, 0, 77, 0
4, 24900, Note_on_c, 0, 76, 88
4, 24958, Note_off_c, 0, 76, 0
4, 24960, Note_on_c, 0, 79, 88
4, 25018, Note_off_c, 0, 79, 0
4, 25020, Note_on_c, 0, 69, 88
4, 25078, Note_off_c, 0, 69, 0
4, 25080, Note_on_c, 0, 70, 88
4, 25138, Note_off_c, 0, 70, 0
4, 25140, Note_on_c, 0, 67, 88
4, 25198, Note_off_c, 0, 67, 0
4, 25200, Note_on_c, 0, 69, 88
4, 25378, Note_off_c, 0, 69, 0
4, 25380, Note_on_c, 0, 70, 88
4, 25438, Note_off_c, 0, 70, 0
4, 25440, Note_on_c, 0, 69, 88
4, 25458, Note_off_c, 0, 69, 0
4, 25459, Note_on_c, 0, 67, 88
4, 25477, Note_off_c, 0, 67, 0
4, 25478, Note_on_c, 0, 69, 88
4, 25496, Note_on_c, 0, 67, 88
4, 25496, Note_off_c, 0, 69, 0
4, 25513, Note_off_c, 0, 67, 0
4, 25515, Note_on_c, 0, 69, 88
4, 25530, Note_on_c, 0, 67, 88
4, 25530, Note_off_c, 0, 69, 0
4, 25545, Note_off_c, 0, 67, 0
4, 25545, Note_on_c, 0, 69, 88
4, 25560, Note_on_c, 0, 67, 88
4, 25560, Note_off_c, 0, 69, 0
4, 25618, Note_off_c, 0, 67, 0
4, 25620, Note_on_c, 0, 65, 88
4, 25678, Note_off_c, 0, 65, 0
4, 25680, Note_on_c, 0, 65, 88
4, 25914, Note_off_c, 0, 65, 0
4, 25914, End_track
5, 0, Start_track
5, 0, Title_t, "Track 2"
5, 0, Program_c, 1, 6
5, 0, Note_on_c, 1, 60, 88
5, 116, Note_off_c, 1, 60, 0
5, 120, Note_on_c, 1, 62, 88
5, 236, Note_off_c, 1, 62, 0
5, 240, Note_on_c, 1, 60, 88
5, 356, Note_off_c, 1, 60, 0
5, 360, Note_on_c, 1, 58, 88
5, 476, Note_off_c, 1, 58, 0
5, 480, Note_on_c, 1, 60, 88
5, 596, Note_off_c, 1, 60, 0
5, 600, Note_on_c, 1, 52, 88
5, 658, Note_off_c, 1, 52, 0
5, 660, Note_on_c, 1, 53, 88
5, 718, Note_off_c, 1, 53, 0
5, 720, Note_on_c, 1, 55, 88
5, 778, Note_off_c, 1, 55, 0
5, 780, Note_on_c, 1, 57, 88
5, 838, Note_off_c, 1, 57, 0
5, 840, Note_on_c, 1, 58, 88
5, 956, Note_off_c, 1, 58, 0
5, 960, Note_on_c, 1, 60, 88
5, 1018, Note_off_c, 1, 60, 0
5, 1020, Note_on_c, 1, 58, 88
5, 1078, Note_off_c, 1, 58, 0
5, 1080, Note_on_c, 1, 57, 88
5, 1138, Note_off_c, 1, 57, 0
5, 1140, Note_on_c, 1, 55, 88
5, 1198, Note_off_c, 1, 55, 0
5, 1200, Note_on_c, 1, 57, 88
5, 1258, Note_off_c, 1, 57, 0
5, 1260, Note_on_c, 1, 55, 88
5, 1318, Note_off_c, 1, 55, 0
5, 1320, Note_on_c, 1, 53, 88
5, 1378, Note_off_c, 1, 53, 0
5, 1380, Note_on_c, 1, 55, 88
5, 1438, Note_off_c, 1, 55, 0
5, 1440, Note_on_c, 1, 57, 88
5, 1498, Note_off_c, 1, 57, 0
5, 1500, Note_on_c, 1, 58, 88
5, 1558, Note_off_c, 1, 58, 0
5, 1560, Note_on_c, 1, 60, 88
5, 1618, Note_off_c, 1, 60, 0
5, 1620, Note_on_c, 1, 58, 88
5, 1678, Note_off_c, 1, 58, 0
5, 1680, Note_on_c, 1, 57, 88
5, 1738, Note_off_c, 1, 57, 0
5, 1740, Note_on_c, 1, 58, 88
5, 1798, Note_off_c, 1, 58, 0
5, 1800, Note_on_c, 1, 60, 88
5, 1858, Note_off_c, 1, 60, 0
5, 1860, Note_on_c, 1, 62, 88
5, 1918, Note_off_c, 1, 62, 0
5, 1920, Note_on_c, 1, 64, 88
5, 1978, Note_off_c, 1, 64, 0
5, 1980, Note_on_c, 1, 67, 88
5, 2038, Note_off_c, 1, 67, 0
5, 2040, Note_on_c, 1, 65, 88
5, 2098, Note_off_c, 1, 65, 0
5, 2100, Note_on_c, 1, 64, 88
5, 2158, Note_off_c, 1, 64, 0
5, 2160, Note_on_c, 1, 62, 88
5, 2218, Note_off_c, 1, 62, 0
5, 2220, Note_on_c, 1, 60, 88
5, 2278, Note_off_c, 1, 60, 0
5, 2280, Note_on_c, 1, 60, 88
5, 2316, Note_off_c, 1, 60, 0
5, 2318, Note_on_c, 1, 59, 88
5, 2347, Note_off_c, 1, 59, 0
5, 2348, Note_on_c, 1, 60, 88
5, 2377, Note_off_c, 1, 60, 0
5, 2378, Note_on_c, 1, 59, 88
5, 2407, Note_off_c, 1, 59, 0
5, 2408, Note_on_c, 1, 60, 88
5, 2437, Note_off_c, 1, 60, 0
5, 2438, Note_on_c, 1, 59, 88
5, 2459, Note_off_c, 1, 59, 0
5, 2460, Note_on_c, 1, 60, 88
5, 2482, Note_off_c, 1, 60, 0
5, 2483, Note_on_c, 1, 59, 88
5, 2504, Note_off_c, 1, 59, 0
5, 2505, Note_on_c, 1, 60, 88
5, 2527, Note_off_c, 1, 60, 0
5, 2528, Note_on_c, 1, 59, 88
5, 2549, Note_off_c, 1, 59, 0
5, 2550, Note_on_c, 1, 60, 88
5, 2572, Note_off_c, 1, 60, 0
5, 2573, Note_on_c, 1, 59, 88
5, 2594, Note_off_c, 1, 59, 0
5, 2595, Note_on_c, 1, 57, 88
5, 2617, Note_off_c, 1, 57, 0
5, 2618, Note_on_c, 1, 59, 88
5, 2639, Note_off_c, 1, 59, 0
5, 2640, Note_on_c, 1, 60, 88
5, 2756, Note_off_c, 1, 60, 0
5, 2760, Note_on_c, 1, 58, 88
5, 2876, Note_off_c, 1, 58, 0
5, 2880, Note_on_c, 1, 57, 88
5, 2996, Note_off_c, 1, 57, 0
5, 3000, Note_on_c, 1, 58, 88
5, 3058, Note_off_c, 1, 58, 0
5, 3060, Note_on_c, 1, 57, 88
5, 3118, Note_off_c, 1, 57, 0
5, 3120, Note_on_c, 1, 55, 88
5, 3178, Note_off_c, 1, 55, 0
5, 3180, Note_on_c, 1, 57, 88
5, 3238, Note_off_c, 1, 57, 0
5, 3240, Note_on_c, 1, 58, 88
5, 3298, Note_off_c, 1, 58, 0
5, 3300, Note_on_c, 1, 60, 88
5, 3358, Note_off_c, 1, 60, 0
5, 3360, Note_on_c, 1, 57, 88
5, 3594, Note_off_c, 1, 57, 0
5, 3600, Note_on_c, 1, 62, 88
5, 3716, Note_off_c, 1, 62, 0
5, 3720, Note_on_c, 1, 64, 88
5, 3836, Note_off_c, 1, 64, 0
5, 3840, Note_on_c, 1, 67, 88
5, 3956, Note_off_c, 1, 67, 0
5, 3960, Note_on_c, 1, 60, 88
5, 4076, Note_off_c, 1, 60, 0
5, 4080, Note_on_c, 1, 60, 88
5, 4674, Note_off_c, 1, 60, 0
5, 4680, Note_on_c, 1, 65, 88
5, 4796, Note_off_c, 1, 65, 0
5, 4800, Note_on_c, 1, 64, 88
5, 5034, Note_off_c, 1, 64, 0
5, 5040, Note_on_c, 1, 69, 88
5, 5156, Note_off_c, 1, 69, 0
5, 5160, Note_on_c, 1, 67, 88
5, 5394, Note_off_c, 1, 67, 0
5, 5400, Note_on_c, 1, 72, 88
5, 5561, Note_off_c, 1, 72, 0
5, 5580, Note_on_c, 1, 72, 88
5, 5638, Note_off_c, 1, 72, 0
5, 5640, Note_on_c, 1, 71, 88
5, 5698, Note_off_c, 1, 71, 0
5, 5700, Note_on_c, 1, 69, 88
5, 5758, Note_off_c, 1, 69, 0
5, 5760, Note_on_c, 1, 67, 88
5, 5818, Note_off_c, 1, 67, 0
5, 5820, Note_on_c, 1, 65, 88
5, 5878, Note_off_c, 1, 65, 0
5, 5880, Note_on_c, 1, 64, 88
5, 6055, Note_off_c, 1, 64, 0
5, 6060, Note_on_c, 1, 70, 88
5, 6118, Note_off_c, 1, 70, 0
5, 6120, Note_on_c, 1, 69, 88
5, 6178, Note_off_c, 1, 69, 0
5, 6180, Note_on_c, 1, 67, 88
5, 6238, Note_off_c, 1, 67, 0
5, 6240, Note_on_c, 1, 65, 88
5, 6298, Note_off_c, 1, 65, 0
5, 6300, Note_on_c, 1, 64, 88
5, 6358, Note_off_c, 1, 64, 0
5, 6360, Note_on_c, 1, 62, 88
5, 6418, Note_off_c, 1, 62, 0
5, 6420, Note_on_c, 1, 64, 88
5, 6478, Note_off_c, 1, 64, 0
5, 6480, Note_on_c, 1, 65, 88
5, 6538, Note_off_c, 1, 65, 0
5, 6540, Note_on_c, 1, 67, 88
5, 6598, Note_off_c, 1, 67, 0
5, 6600, Note_on_c, 1, 69, 88
5, 6716, Note_off_c, 1, 69, 0
5, 7560, Note_on_c, 1, 65, 88
5, 7676, Note_off_c, 1, 65, 0
5, 7680, Note_on_c, 1, 69, 88
5, 7796, Note_off_c, 1, 69, 0
5, 7800, Note_on_c, 1, 67, 88
5, 7916, Note_off_c, 1, 67, 0
5, 7920, Note_on_c, 1, 65, 88
5, 8036, Note_off_c, 1, 65, 0
5, 8040, Note_on_c, 1, 67, 88
5, 8156, Note_off_c, 1, 67, 0
5, 8160, Note_on_c, 1, 59, 88
5, 8218, Note_off_c, 1, 59, 0
5, 8220, Note_on_c, 1, 60, 88
5, 8278, Note_off_c, 1, 60, 0
5, 8280, Note_on_c, 1, 62, 88
5, 8338, Note_off_c, 1, 62, 0
5, 8340, Note_on_c, 1, 64, 88
5, 8398, Note_off_c, 1, 64, 0
5, 8400, Note_on_c, 1, 65, 88
5, 8516, Note_off_c, 1, 65, 0
5, 8520, Note_on_c, 1, 67, 88
5, 8578, Note_off_c, 1, 67, 0
5, 8580, Note_on_c, 1, 65, 88
5, 8638, Note_off_c, 1, 65, 0
5, 8640, Note_on_c, 1, 64, 88
5, 8698, Note_off_c, 1, 64, 0
5, 8700, Note_on_c, 1, 62, 88
5, 8758, Note_off_c, 1, 62, 0
5, 8760, Note_on_c, 1, 64, 88
5, 8818, Note_off_c, 1, 64, 0
5, 8820, Note_on_c, 1, 62, 88
5, 8878, Note_off_c, 1, 62, 0
5, 8880, Note_on_c, 1, 60, 88
5, 8938, Note_off_c, 1, 60, 0
5, 8940, Note_on_c, 1, 62, 88
5, 8998, Note_off_c, 1, 62, 0
5, 9000, Note_on_c, 1, 64, 88
5, 9058, Note_off_c, 1, 64, 0
5, 9060, Note_on_c, 1, 60, 88
5, 9118, Note_off_c, 1, 60, 0
5, 9120, Note_on_c, 1, 65, 88
5, 9354, Note_off_c, 1, 65, 0
5, 9720, Note_on_c, 1, 72, 88
5, 9836, Note_off_c, 1, 72, 0
5, 9840, Note_on_c, 1, 74, 88
5, 9956, Note_off_c, 1, 74, 0
5, 9960, Note_on_c, 1, 72, 88
5, 10076, Note_off_c, 1, 72, 0
5, 10080, Note_on_c, 1, 70, 88
5, 10196, Note_off_c, 1, 70, 0
5, 10200, Note_on_c, 1, 72, 88
5, 10316, Note_off_c, 1, 72, 0
5, 10320, Note_on_c, 1, 64, 88
5, 10378, Note_off_c, 1, 64, 0
5, 10380, Note_on_c, 1, 65, 88
5, 10438, Note_off_c, 1, 65, 0
5, 10440, Note_on_c, 1, 67, 88
5, 10498, Note_off_c, 1, 67, 0
5, 10500, Note_on_c, 1, 69, 88
5, 10558, Note_off_c, 1, 69, 0
5, 10560, Note_on_c, 1, 70, 88
5, 10676, Note_off_c, 1, 70, 0
5, 10680, Note_on_c, 1, 72, 88
5, 10738, Note_off_c, 1, 72, 0
5, 10740, Note_on_c, 1, 70, 88
5, 10798, Note_off_c, 1, 70, 0
5, 10800, Note_on_c, 1, 69, 88
5, 10858, Note_off_c, 1, 69, 0
5, 10860, Note_on_c, 1, 67, 88
5, 10918, Note_off_c, 1, 67, 0
5, 10920, Note_on_c, 1, 69, 88
5, 11396, Note_off_c, 1, 69, 0
5, 11400, Note_on_c, 1, 70, 88
5, 11458, Note_off_c, 1, 70, 0
5, 11460, Note_on_c, 1, 69, 88
5, 11518, Note_off_c, 1, 69, 0
5, 11520, Note_on_c, 1, 67, 88
5, 11578, Note_off_c, 1, 67, 0
5, 11580, Note_on_c, 1, 65, 88
5, 11638, Note_off_c, 1, 65, 0
5, 11640, Note_on_c, 1, 67, 88
5, 12116, Note_off_c, 1, 67, 0
5, 12120, Note_on_c, 1, 69, 88
5, 12178, Note_off_c, 1, 69, 0
5, 12180, Note_on_c, 1, 67, 88
5, 12238, Note_off_c, 1, 67, 0
5, 12240, Note_on_c, 1, 65, 88
5, 12298, Note_off_c, 1, 65, 0
5, 12300, Note_on_c, 1, 64, 88
5, 12358, Note_off_c, 1, 64, 0
5, 12360, Note_on_c, 1, 65, 88
5, 12418, Note_off_c, 1, 65, 0
5, 12420, Note_on_c, 1, 64, 88
5, 12478, Note_off_c, 1, 64, 0
5, 12480, Note_on_c, 1, 65, 88
5, 12538, Note_off_c, 1, 65, 0
5, 12540, Note_on_c, 1, 67, 88
5, 12598, Note_off_c, 1, 67, 0
5, 12600, Note_on_c, 1, 69, 88
5, 12658, Note_off_c, 1, 69, 0
5, 12660, Note_on_c, 1, 67, 88
5, 12718, Note_off_c, 1, 67, 0
5, 12720, Note_on_c, 1, 69, 88
5, 12778, Note_off_c, 1, 69, 0
5, 12780, Note_on_c, 1, 70, 88
5, 12838, Note_off_c, 1, 70, 0
5, 12840, Note_on_c, 1, 69, 88
5, 12898, Note_off_c, 1, 69, 0
5, 12900, Note_on_c, 1, 67, 88
5, 12958, Note_off_c, 1, 67, 0
5, 12960, Note_on_c, 1, 65, 88
5, 13018, Note_off_c, 1, 65, 0
5, 13020, Note_on_c, 1, 64, 88
5, 13078, Note_off_c, 1, 64, 0
5, 13080, Note_on_c, 1, 62, 88
5, 13138, Note_off_c, 1, 62, 0
5, 13140, Note_on_c, 1, 61, 88
5, 13198, Note_off_c, 1, 61, 0
5, 13200, Note_on_c, 1, 62, 88
5, 13258, Note_off_c, 1, 62, 0
5, 13260, Note_on_c, 1, 65, 88
5, 13318, Note_off_c, 1, 65, 0
5, 13320, Note_on_c, 1, 64, 88
5, 13378, Note_off_c, 1, 64, 0
5, 13380, Note_on_c, 1, 62, 88
5, 13438, Note_off_c, 1, 62, 0
5, 13440, Note_on_c, 1, 61, 88
5, 13556, Note_off_c, 1, 61, 0
5, 13680, Note_on_c, 1, 69, 88
5, 13796, Note_off_c, 1, 69, 0
5, 13800, Note_on_c, 1, 70, 88
5, 13916, Note_off_c, 1, 70, 0
5, 13920, Note_on_c, 1, 69, 88
5, 14036, Note_off_c, 1, 69, 0
5, 14040, Note_on_c, 1, 67, 88
5, 14156, Note_off_c, 1, 67, 0
5, 14160, Note_on_c, 1, 69, 88
5, 14276, Note_off_c, 1, 69, 0
5, 14280, Note_on_c, 1, 61, 88
5, 14338, Note_off_c, 1, 61, 0
5, 14340, Note_on_c, 1, 62, 88
5, 14398, Note_off_c, 1, 62, 0
5, 14400, Note_on_c, 1, 64, 88
5, 14458, Note_off_c, 1, 64, 0
5, 14460, Note_on_c, 1, 65, 88
5, 14518, Note_off_c, 1, 65, 0
5, 14520, Note_on_c, 1, 67, 88
5, 14636, Note_off_c, 1, 67, 0
5, 14640, Note_on_c, 1, 69, 88
5, 14698, Note_off_c, 1, 69, 0
5, 14700, Note_on_c, 1, 67, 88
5, 14758, Note_off_c, 1, 67, 0
5, 14760, Note_on_c, 1, 65, 88
5, 14818, Note_off_c, 1, 65, 0
5, 14820, Note_on_c, 1, 64, 88
5, 14878, Note_off_c, 1, 64, 0
5, 14880, Note_on_c, 1, 65, 88
5, 15114, Note_off_c, 1, 65, 0
5, 15240, Note_on_c, 1, 62, 88
5, 15276, Note_off_c, 1, 62, 0
5, 15278, Note_on_c, 1, 61, 88
5, 15307, Note_off_c, 1, 61, 0
5, 15308, Note_on_c, 1, 62, 88
5, 15337, Note_off_c, 1, 62, 0
5, 15338, Note_on_c, 1, 61, 88
5, 15367, Note_off_c, 1, 61, 0
5, 15368, Note_on_c, 1, 62, 88
5, 15397, Note_off_c, 1, 62, 0
5, 15398, Note_on_c, 1, 61, 88
5, 15427, Note_off_c, 1, 61, 0
5, 15428, Note_on_c, 1, 62, 88
5, 15457, Note_off_c, 1, 62, 0
5, 15458, Note_on_c, 1, 61, 88
5, 15479, Note_off_c, 1, 61, 0
5, 15480, Note_on_c, 1, 62, 88
5, 15502, Note_off_c, 1, 62, 0
5, 15503, Note_on_c, 1, 61, 88
5, 15524, Note_off_c, 1, 61, 0
5, 15525, Note_on_c, 1, 62, 88
5, 15547, Note_off_c, 1, 62, 0
5, 15548, Note_on_c, 1, 61, 88
5, 15598, Note_off_c, 1, 61, 0
5, 15600, Note_on_c, 1, 61, 88
5, 15658, Note_off_c, 1, 61, 0
5, 15660, Note_on_c, 1, 57, 88
5, 15718, Note_off_c, 1, 57, 0
5, 15720, Note_on_c, 1, 59, 88
5, 15778, Note_off_c, 1, 59, 0
5, 15780, Note_on_c, 1, 61, 88
5, 15838, Note_off_c, 1, 61, 0
5, 15840, Note_on_c, 1, 62, 88
5, 15898, Note_off_c, 1, 62, 0
5, 15900, Note_on_c, 1, 64, 88
5, 15958, Note_off_c, 1, 64, 0
5, 15960, Note_on_c, 1, 65, 88
5, 16018, Note_off_c, 1, 65, 0
5, 16020, Note_on_c, 1, 64, 88
5, 16078, Note_off_c, 1, 64, 0
5, 16080, Note_on_c, 1, 61, 88
5, 16314, Note_off_c, 1, 61, 0
5, 16320, Note_on_c, 1, 62, 88
5, 16554, Note_off_c, 1, 62, 0
5, 17280, Note_on_c, 1, 62, 88
5, 17396, Note_off_c, 1, 62, 0
5, 17400, Note_on_c, 1, 63, 88
5, 17516, Note_off_c, 1, 63, 0
5, 17520, Note_on_c, 1, 62, 88
5, 17636, Note_off_c, 1, 62, 0
5, 17640, Note_on_c, 1, 60, 88
5, 17756, Note_off_c, 1, 60, 0
5, 17760, Note_on_c, 1, 62, 88
5, 17876, Note_off_c, 1, 62, 0
5, 17880, Note_on_c, 1, 54, 88
5, 17938, Note_off_c, 1, 54, 0
5, 17940, Note_on_c, 1, 55, 88
5, 17998, Note_off_c, 1, 55, 0
5, 18000, Note_on_c, 1, 57, 88
5, 18058, Note_off_c, 1, 57, 0
5, 18060, Note_on_c, 1, 58, 88
5, 18118, Note_off_c, 1, 58, 0
5, 18120, Note_on_c, 1, 60, 88
5, 18178, Note_off_c, 1, 60, 0
5, 18180, Note_on_c, 1, 58, 88
5, 18238, Note_off_c, 1, 58, 0
5, 18240, Note_on_c, 1, 62, 88
5, 18298, Note_off_c, 1, 62, 0
5, 18300, Note_on_c, 1, 60, 88
5, 18358, Note_off_c, 1, 60, 0
5, 18360, Note_on_c, 1, 58, 88
5, 18418, Note_off_c, 1, 58, 0
5, 18420, Note_on_c, 1, 57, 88
5, 18478, Note_off_c, 1, 57, 0
5, 18480, Note_on_c, 1, 58, 88
5, 18538, Note_off_c, 1, 58, 0
5, 18540, Note_on_c, 1, 62, 88
5, 18598, Note_off_c, 1, 62, 0
5, 18600, Note_on_c, 1, 60, 88
5, 18658, Note_off_c, 1, 60, 0
5, 18660, Note_on_c, 1, 58, 88
5, 18718, Note_off_c, 1, 58, 0
5, 18720, Note_on_c, 1, 57, 88
5, 18778, Note_off_c, 1, 57, 0
5, 18780, Note_on_c, 1, 55, 88
5, 18838, Note_off_c, 1, 55, 0
5, 18840, Note_on_c, 1, 54, 88
5, 18956, Note_off_c, 1, 54, 0
5, 19200, Note_on_c, 1, 55, 88
5, 19258, Note_off_c, 1, 55, 0
5, 19260, Note_on_c, 1, 57, 88
5, 19318, Note_off_c, 1, 57, 0
5, 19320, Note_on_c, 1, 58, 88
5, 19378, Note_off_c, 1, 58, 0
5, 19380, Note_on_c, 1, 60, 88
5, 19438, Note_off_c, 1, 60, 0
5, 19440, Note_on_c, 1, 62, 88
5, 19498, Note_off_c, 1, 62, 0
5, 19500, Note_on_c, 1, 57, 88
5, 19558, Note_off_c, 1, 57, 0
5, 19560, Note_on_c, 1, 58, 88
5, 19676, Note_off_c, 1, 58, 0
5, 19680, Note_on_c, 1, 55, 88
5, 19796, Note_off_c, 1, 55, 0
5, 19800, Note_on_c, 1, 54, 88
5, 19916, Note_off_c, 1, 54, 0
5, 19920, Note_on_c, 1, 55, 88
5, 19978, Note_off_c, 1, 55, 0
5, 19980, Note_on_c, 1, 62, 88
5, 20038, Note_off_c, 1, 62, 0
5, 20040, Note_on_c, 1, 67, 88
5, 20098, Note_off_c, 1, 67, 0
5, 20100, Note_on_c, 1, 65, 88
5, 20158, Note_off_c, 1, 65, 0
5, 20160, Note_on_c, 1, 64, 88
5, 20218, Note_off_c, 1, 64, 0
5, 20220, Note_on_c, 1, 62, 88
5, 20278, Note_off_c, 1, 62, 0
5, 20280, Note_on_c, 1, 64, 88
5, 20633, Note_off_c, 1, 64, 0
5, 20700, Note_on_c, 1, 60, 88
5, 20758, Note_off_c, 1, 60, 0
5, 20760, Note_on_c, 1, 65, 88
5, 20818, Note_off_c, 1, 65, 0
5, 20820, Note_on_c, 1, 63, 88
5, 20878, Note_off_c, 1, 63, 0
5, 20880, Note_on_c, 1, 62, 88
5, 20938, Note_off_c, 1, 62, 0
5, 20940, Note_on_c, 1, 60, 88
5, 20998, Note_off_c, 1, 60, 0
5, 21000, Note_on_c, 1, 62, 88
5, 21353, Note_off_c, 1, 62, 0
5, 21360, Note_on_c, 1, 60, 88
5, 21476, Note_off_c, 1, 60, 0
5, 21480, Note_on_c, 1, 62, 88
5, 21596, Note_off_c, 1, 62, 0
5, 21600, Note_on_c, 1, 64, 88
5, 21716, Note_off_c, 1, 64, 0
5, 21720, Note_on_c, 1, 65, 88
5, 21836, Note_off_c, 1, 65, 0
5, 21840, Note_on_c, 1, 67, 88
5, 21956, Note_off_c, 1, 67, 0
5, 21960, Note_on_c, 1, 69, 88
5, 22076, Note_off_c, 1, 69, 0
5, 22080, Note_on_c, 1, 70, 88
5, 22498, Note_off_c, 1, 70, 0
5, 22500, Note_on_c, 1, 67, 88
5, 22558, Note_off_c, 1, 67, 0
5, 22560, Note_on_c, 1, 72, 88
5, 22618, Note_off_c, 1, 72, 0
5, 22620, Note_on_c, 1, 70, 88
5, 22678, Note_off_c, 1, 70, 0
5, 22680, Note_on_c, 1, 69, 88
5, 22738, Note_off_c, 1, 69, 0
5, 22740, Note_on_c, 1, 67, 88
5, 22798, Note_off_c, 1, 67, 0
5, 22800, Note_on_c, 1, 69, 88
5, 23276, Note_off_c, 1, 69, 0
5, 23280, Note_on_c, 1, 50, 88
5, 23396, Note_off_c, 1, 50, 0
5, 23400, Note_on_c, 1, 55, 88
5, 23578, Note_off_c, 1, 55, 0
5, 23580, Note_on_c, 1, 53, 88
5, 23638, Note_off_c, 1, 53, 0
5, 23640, Note_on_c, 1, 58, 88
5, 23698, Note_off_c, 1, 58, 0
5, 23700, Note_on_c, 1, 57, 88
5, 23758, Note_off_c, 1, 57, 0
5, 23760, Note_on_c, 1, 55, 88
5, 23818, Note_off_c, 1, 55, 0
5, 23820, Note_on_c, 1, 53, 88
5, 23878, Note_off_c, 1, 53, 0
5, 23880, Note_on_c, 1, 55, 88
5, 23996, Note_off_c, 1, 55, 0
5, 24000, Note_on_c, 1, 46, 88
5, 24058, Note_off_c, 1, 46, 0
5, 24060, Note_on_c, 1, 48, 88
5, 24118, Note_off_c, 1, 48, 0
5, 24120, Note_on_c, 1, 50, 88
5, 24178, Note_off_c, 1, 50, 0
5, 24180, Note_on_c, 1, 52, 88
5, 24238, Note_off_c, 1, 52, 0
5, 24240, Note_on_c, 1, 53, 88
5, 24834, Note_off_c, 1, 53, 0
5, 24840, Note_on_c, 1, 58, 88
5, 25076, Note_off_c, 1, 58, 0
5, 25080, Note_on_c, 1, 64, 88
5, 25196, Note_off_c, 1, 64, 0
5, 25200, Note_on_c, 1, 65, 88
5, 25436, Note_off_c, 1, 65, 0
5, 25440, Note_on_c, 1, 64, 88
5, 25674, Note_off_c, 1, 64, 0
5, 25680, Note_on_c, 1, 65, 88
5, 25914, Note_off_c, 1, 65, 0
5, 25914, End_track
6, 0, Start_track
6, 0, Title_t, "Track 3"
6, 0, Program_c, 2, 6
6, 3240, Note_on_c, 2, 48, 88
6, 3356, Note_off_c, 2, 48, 0
6, 3360, Note_on_c, 2, 50, 88
6, 3476, Note_off_c, 2, 50, 0
6, 3480, Note_on_c, 2, 48, 88
6, 3596, Note_off_c, 2, 48, 0
6, 3600, Note_on_c, 2, 46, 88
6, 3716, Note_off_c, 2, 46, 0
6, 3720, Note_on_c, 2, 48, 88
6, 3836, Note_off_c, 2, 48, 0
6, 3840, Note_on_c, 2, 40, 88
6, 3898, Note_off_c, 2, 40, 0
6, 3900, Note_on_c, 2, 41, 88
6, 3958, Note_off_c, 2, 41, 0
6, 3960, Note_on_c, 2, 43, 88
6, 4018, Note_off_c, 2, 43, 0
6, 4020, Note_on_c, 2, 45, 88
6, 4078, Note_off_c, 2, 45, 0
6, 4080, Note_on_c, 2, 46, 88
6, 4196, Note_off_c, 2, 46, 0
6, 4200, Note_on_c, 2, 48, 88
6, 4258, Note_off_c, 2, 48, 0
6, 4260, Note_on_c, 2, 46, 88
6, 4318, Note_off_c, 2, 46, 0
6, 4320, Note_on_c, 2, 45, 88
6, 4378, Note_off_c, 2, 45, 0
6, 4380, Note_on_c, 2, 43, 88
6, 4438, Note_off_c, 2, 43, 0
6, 4440, Note_on_c, 2, 45, 88
6, 4498, Note_off_c, 2, 45, 0
6, 4500, Note_on_c, 2, 43, 88
6, 4558, Note_off_c, 2, 43, 0
6, 4560, Note_on_c, 2, 41, 88
6, 4618, Note_off_c, 2, 41, 0
6, 4620, Note_on_c, 2, 43, 88
6, 4678, Note_off_c, 2, 43, 0
6, 4680, Note_on_c, 2, 45, 88
6, 4738, Note_off_c, 2, 45, 0
6, 4740, Note_on_c, 2, 46, 88
6, 4798, Note_off_c, 2, 46, 0
6, 4800, Note_on_c, 2, 48, 88
6, 4858, Note_off_c, 2, 48, 0
6, 4860, Note_on_c, 2, 47, 88
6, 4918, Note_off_c, 2, 47, 0
6, 4920, Note_on_c, 2, 45, 88
6, 4978, Note_off_c, 2, 45, 0
6, 4980, Note_on_c, 2, 47, 88
6, 5038, Note_off_c, 2, 47, 0
6, 5040, Note_on_c, 2, 48, 88
6, 5098, Note_off_c, 2, 48, 0
6, 5100, Note_on_c, 2, 50, 88
6, 5158, Note_off_c, 2, 50, 0
6, 5160, Note_on_c, 2, 52, 88
6, 5218, Note_off_c, 2, 52, 0
6, 5220, Note_on_c, 2, 55, 88
6, 5278, Note_off_c, 2, 55, 0
6, 5280, Note_on_c, 2, 53, 88
6, 5338, Note_off_c, 2, 53, 0
6, 5340, Note_on_c, 2, 52, 88
6, 5398, Note_off_c, 2, 52, 0
6, 5400, Note_on_c, 2, 50, 88
6, 5458, Note_off_c, 2, 50, 0
6, 5460, Note_on_c, 2, 48, 88
6, 5518, Note_off_c, 2, 48, 0
6, 5520, Note_on_c, 2, 48, 88
6, 5556, Note_off_c, 2, 48, 0
6, 5558, Note_on_c, 2, 47, 88
6, 5587, Note_off_c, 2, 47, 0
6, 5588, Note_on_c, 2, 48, 88
6, 5617, Note_off_c, 2, 48, 0
6, 5618, Note_on_c, 2, 47, 88
6, 5647, Note_off_c, 2, 47, 0
6, 5648, Note_on_c, 2, 48, 88
6, 5677, Note_off_c, 2, 48, 0
6, 5678, Note_on_c, 2, 47, 88
6, 5707, Note_off_c, 2, 47, 0
6, 5708, Note_on_c, 2, 48, 88
6, 5737, Note_off_c, 2, 48, 0
6, 5738, Note_on_c, 2, 47, 88
6, 5767, Note_off_c, 2, 47, 0
6, 5768, Note_on_c, 2, 48, 88
6, 5797, Note_off_c, 2, 48, 0
6, 5798, Note_on_c, 2, 47, 88
6, 5827, Note_off_c, 2, 47, 0
6, 5828, Note_on_c, 2, 45, 88
6, 5849, Note_off_c, 2, 45, 0
6, 5850, Note_on_c, 2, 47, 88
6, 5879, Note_off_c, 2, 47, 0
6, 5880, Note_on_c, 2, 48, 88
6, 5996, Note_off_c, 2, 48, 0
6, 6000, Note_on_c, 2, 50, 88
6, 6058, Note_off_c, 2, 50, 0
6, 6060, Note_on_c, 2, 52, 88
6, 6118, Note_off_c, 2, 52, 0
6, 6120, Note_on_c, 2, 53, 88
6, 6236, Note_off_c, 2, 53, 0
6, 6240, Note_on_c, 2, 58, 88
6, 6593, Note_off_c, 2, 58, 0
6, 6600, Note_on_c, 2, 57, 88
6, 6658, Note_off_c, 2, 57, 0
6, 6660, Note_on_c, 2, 60, 88
6, 6718, Note_off_c, 2, 60, 0
6, 6720, Note_on_c, 2, 58, 88
6, 6778, Note_off_c, 2, 58, 0
6, 6780, Note_on_c, 2, 57, 88
6, 6838, Note_off_c, 2, 57, 0
6, 6840, Note_on_c, 2, 55, 88
6, 6898, Note_off_c, 2, 55, 0
6, 6900, Note_on_c, 2, 53, 88
6, 6958, Note_off_c, 2, 53, 0
6, 6960, Note_on_c, 2, 53, 88
6, 6996, Note_off_c, 2, 53, 0
6, 6998, Note_on_c, 2, 52, 88
6, 7027, Note_off_c, 2, 52, 0
6, 7028, Note_on_c, 2, 53, 88
6, 7057, Note_off_c, 2, 53, 0
6, 7058, Note_on_c, 2, 52, 88
6, 7087, Note_off_c, 2, 52, 0
6, 7088, Note_on_c, 2, 53, 88
6, 7117, Note_off_c, 2, 53, 0
6, 7118, Note_on_c, 2, 52, 88
6, 7147, Note_off_c, 2, 52, 0
6, 7148, Note_on_c, 2, 53, 88
6, 7177, Note_off_c, 2, 53, 0
6, 7178, Note_on_c, 2, 52, 88
6, 7207, Note_off_c, 2, 52, 0
6, 7208, Note_on_c, 2, 53, 88
6, 7237, Note_off_c, 2, 53, 0
6, 7238, Note_on_c, 2, 52, 88
6, 7267, Note_off_c, 2, 52, 0
6, 7268, Note_on_c, 2, 50, 88
6, 7289, Note_off_c, 2, 50, 0
6, 7290, Note_on_c, 2, 52, 88
6, 7319, Note_off_c, 2, 52, 0
6, 7320, Note_on_c, 2, 53, 88
6, 7554, Note_off_c, 2, 53, 0
6, 9000, Note_on_c, 2, 60, 88
6, 9116, Note_off_c, 2, 60, 0
6, 9120, Note_on_c, 2, 62, 88
6, 9236, Note_off_c, 2, 62, 0
6, 9240, Note_on_c, 2, 60, 88
6, 9356, Note_off_c, 2, 60, 0
6, 9360, Note_on_c, 2, 58, 88
6, 9476, Note_off_c, 2, 58, 0
6, 9480, Note_on_c, 2, 60, 88
6, 9596, Note_off_c, 2, 60, 0
6, 9600, Note_on_c, 2, 52, 88
6, 9658, Note_off_c, 2, 52, 0
6, 9660, Note_on_c, 2, 53, 88
6, 9718, Note_off_c, 2, 53, 0
6, 9720, Note_on_c, 2, 55, 88
6, 9778, Note_off_c, 2, 55, 0
6, 9780, Note_on_c, 2, 57, 88
6, 9838, Note_off_c, 2, 57, 0
6, 9840, Note_on_c, 2, 58, 88
6, 9956, Note_off_c, 2, 58, 0
6, 9960, Note_on_c, 2, 60, 88
6, 10018, Note_off_c, 2, 60, 0
6, 10020, Note_on_c, 2, 58, 88
6, 10078, Note_off_c, 2, 58, 0
6, 10080, Note_on_c, 2, 57, 88
6, 10138, Note_off_c, 2, 57, 0
6, 10140, Note_on_c, 2, 55, 88
6, 10198, Note_off_c, 2, 55, 0
6, 10200, Note_on_c, 2, 57, 88
6, 10258, Note_off_c, 2, 57, 0
6, 10260, Note_on_c, 2, 60, 88
6, 10318, Note_off_c, 2, 60, 0
6, 10320, Note_on_c, 2, 58, 88
6, 10378, Note_off_c, 2, 58, 0
6, 10380, Note_on_c, 2, 57, 88
6, 10438, Note_off_c, 2, 57, 0
6, 10440, Note_on_c, 2, 55, 88
6, 10498, Note_off_c, 2, 55, 0
6, 10500, Note_on_c, 2, 53, 88
6, 10558, Note_off_c, 2, 53, 0
6, 10560, Note_on_c, 2, 53, 88
6, 10596, Note_off_c, 2, 53, 0
6, 10598, Note_on_c, 2, 52, 88
6, 10627, Note_off_c, 2, 52, 0
6, 10628, Note_on_c, 2, 53, 88
6, 10657, Note_off_c, 2, 53, 0
6, 10658, Note_on_c, 2, 52, 88
6, 10687, Note_off_c, 2, 52, 0
6, 10688, Note_on_c, 2, 53, 88
6, 10717, Note_off_c, 2, 53, 0
6, 10718, Note_on_c, 2, 52, 88
6, 10747, Note_off_c, 2, 52, 0
6, 10748, Note_on_c, 2, 53, 88
6, 10777, Note_off_c, 2, 53, 0
6, 10778, Note_on_c, 2, 52, 88
6, 10807, Note_off_c, 2, 52, 0
6, 10808, Note_on_c, 2, 53, 88
6, 10837, Note_off_c, 2, 53, 0
6, 10838, Note_on_c, 2, 52, 88
6, 10867, Note_off_c, 2, 52, 0
6, 10868, Note_on_c, 2, 50, 88
6, 10889, Note_off_c, 2, 50, 0
6, 10890, Note_on_c, 2, 52, 88
6, 10919, Note_off_c, 2, 52, 0
6, 10920, Note_on_c, 2, 53, 88
6, 11036, Note_off_c, 2, 53, 0
6, 11040, Note_on_c, 2, 55, 88
6, 11156, Note_off_c, 2, 55, 0
6, 11160, Note_on_c, 2, 57, 88
6, 11276, Note_off_c, 2, 57, 0
6, 11280, Note_on_c, 2, 50, 88
6, 11514, Note_off_c, 2, 50, 0
6, 11640, Note_on_c, 2, 52, 88
6, 11756, Note_off_c, 2, 52, 0
6, 11760, Note_on_c, 2, 53, 88
6, 11876, Note_off_c, 2, 53, 0
6, 11880, Note_on_c, 2, 55, 88
6, 11996, Note_off_c, 2, 55, 0
6, 12000, Note_on_c, 2, 49, 88
6, 12234, Note_off_c, 2, 49, 0
6, 12240, Note_on_c, 2, 61, 88
6, 12356, Note_off_c, 2, 61, 0
6, 12360, Note_on_c, 2, 62, 88
6, 12476, Note_off_c, 2, 62, 0
6, 12480, Note_on_c, 2, 60, 88
6, 12596, Note_off_c, 2, 60, 0
6, 12600, Note_on_c, 2, 58, 88
6, 12716, Note_off_c, 2, 58, 0
6, 12720, Note_on_c, 2, 58, 88
6, 12756, Note_off_c, 2, 58, 0
6, 12758, Note_on_c, 2, 57, 88
6, 12787, Note_off_c, 2, 57, 0
6, 12788, Note_on_c, 2, 58, 88
6, 12817, Note_off_c, 2, 58, 0
6, 12818, Note_on_c, 2, 57, 88
6, 12847, Note_off_c, 2, 57, 0
6, 12848, Note_on_c, 2, 58, 88
6, 12877, Note_off_c, 2, 58, 0
6, 12878, Note_on_c, 2, 57, 88
6, 12899, Note_off_c, 2, 57, 0
6, 12900, Note_on_c, 2, 58, 88
6, 12922, Note_off_c, 2, 58, 0
6, 12923, Note_on_c, 2, 57, 88
6, 12944, Note_off_c, 2, 57, 0
6, 12945, Note_on_c, 2, 58, 88
6, 12967, Note_off_c, 2, 58, 0
6, 12968, Note_on_c, 2, 57, 88
6, 12989, Note_off_c, 2, 57, 0
6, 12990, Note_on_c, 2, 58, 88
6, 13012, Note_off_c, 2, 58, 0
6, 13013, Note_on_c, 2, 57, 88
6, 13034, Note_off_c, 2, 57, 0
6, 13035, Note_on_c, 2, 58, 88
6, 13057, Note_off_c, 2, 58, 0
6, 13058, Note_on_c, 2, 57, 88
6, 13079, Note_off_c, 2, 57, 0
6, 13080, Note_on_c, 2, 58, 88
6, 13102, Note_off_c, 2, 58, 0
6, 13103, Note_on_c, 2, 57, 88
6, 13124, Note_off_c, 2, 57, 0
6, 13125, Note_on_c, 2, 58, 88
6, 13147, Note_off_c, 2, 58, 0
6, 13148, Note_on_c, 2, 57, 88
6, 13169, Note_off_c, 2, 57, 0
6, 13170, Note_on_c, 2, 58, 88
6, 13192, Note_off_c, 2, 58, 0
6, 13193, Note_on_c, 2, 57, 88
6, 13214, Note_off_c, 2, 57, 0
6, 13215, Note_on_c, 2, 58, 88
6, 13237, Note_off_c, 2, 58, 0
6, 13238, Note_on_c, 2, 57, 88
6, 13259, Note_off_c, 2, 57, 0
6, 13260, Note_on_c, 2, 58, 88
6, 13282, Note_off_c, 2, 58, 0
6, 13283, Note_on_c, 2, 57, 88
6, 13304, Note_off_c, 2, 57, 0
6, 13305, Note_on_c, 2, 58, 88
6, 13327, Note_off_c, 2, 58, 0
6, 13328, Note_on_c, 2, 57, 88
6, 13349, Note_off_c, 2, 57, 0
6, 13350, Note_on_c, 2, 58, 88
6, 13372, Note_off_c, 2, 58, 0
6, 13373, Note_on_c, 2, 57, 88
6, 13394, Note_off_c, 2, 57, 0
6, 13395, Note_on_c, 2, 58, 88
6, 13417, Note_off_c, 2, 58, 0
6, 13418, Note_on_c, 2, 57, 88
6, 13439, Note_off_c, 2, 57, 0
6, 13440, Note_on_c, 2, 58, 88
6, 13462, Note_off_c, 2, 58, 0
6, 13463, Note_on_c, 2, 57, 88
6, 13484, Note_off_c, 2, 57, 0
6, 13485, Note_on_c, 2, 58, 88
6, 13507, Note_off_c, 2, 58, 0
6, 13508, Note_on_c, 2, 57, 88
6, 13529, Note_off_c, 2, 57, 0
6, 13530, Note_on_c, 2, 58, 88
6, 13552, Note_off_c, 2, 58, 0
6, 13553, Note_on_c, 2, 57, 88
6, 13574, Note_off_c, 2, 57, 0
6, 13575, Note_on_c, 2, 58, 88
6, 13597, Note_off_c, 2, 58, 0
6, 13598, Note_on_c, 2, 57, 88
6, 13619, Note_off_c, 2, 57, 0
6, 13620, Note_on_c, 2, 58, 88
6, 13642, Note_off_c, 2, 58, 0
6, 13643, Note_on_c, 2, 57, 88
6, 13664, Note_off_c, 2, 57, 0
6, 13665, Note_on_c, 2, 58, 88
6, 13687, Note_off_c, 2, 58, 0
6, 13688, Note_on_c, 2, 57, 88
6, 13709, Note_off_c, 2, 57, 0
6, 13710, Note_on_c, 2, 58, 88
6, 13732, Note_off_c, 2, 58, 0
6, 13733, Note_on_c, 2, 57, 88
6, 13754, Note_off_c, 2, 57, 0
6, 13755, Note_on_c, 2, 58, 88
6, 13777, Note_off_c, 2, 58, 0
6, 13778, Note_on_c, 2, 57, 88
6, 13799, Note_off_c, 2, 57, 0
6, 13800, Note_on_c, 2, 58, 88
6, 13822, Note_off_c, 2, 58, 0
6, 13823, Note_on_c, 2, 57, 88
6, 13844, Note_off_c, 2, 57, 0
6, 13845, Note_on_c, 2, 58, 88
6, 13867, Note_off_c, 2, 58, 0
6, 13868, Note_on_c, 2, 57, 88
6, 13889, Note_off_c, 2, 57, 0
6, 13890, Note_on_c, 2, 58, 88
6, 13912, Note_off_c, 2, 58, 0
6, 13913, Note_on_c, 2, 57, 88
6, 13934, Note_off_c, 2, 57, 0
6, 13935, Note_on_c, 2, 58, 88
6, 13957, Note_off_c, 2, 58, 0
6, 13958, Note_on_c, 2, 57, 88
6, 13979, Note_off_c, 2, 57, 0
6, 13980, Note_on_c, 2, 58, 88
6, 14002, Note_off_c, 2, 58, 0
6, 14003, Note_on_c, 2, 57, 88
6, 14024, Note_off_c, 2, 57, 0
6, 14025, Note_on_c, 2, 58, 88
6, 14047, Note_off_c, 2, 58, 0
6, 14048, Note_on_c, 2, 57, 88
6, 14069, Note_off_c, 2, 57, 0
6, 14070, Note_on_c, 2, 58, 88
6, 14092, Note_off_c, 2, 58, 0
6, 14093, Note_on_c, 2, 57, 88
6, 14114, Note_off_c, 2, 57, 0
6, 14115, Note_on_c, 2, 58, 88
6, 14137, Note_off_c, 2, 58, 0
6, 14138, Note_on_c, 2, 57, 88
6, 14159, Note_off_c, 2, 57, 0
6, 14160, Note_on_c, 2, 57, 88
6, 14381, Note_off_c, 2, 57, 0
6, 14400, Note_on_c, 2, 57, 88
6, 14516, Note_off_c, 2, 57, 0
6, 14520, Note_on_c, 2, 58, 88
6, 14636, Note_off_c, 2, 58, 0
6, 14640, Note_on_c, 2, 57, 88
6, 14756, Note_off_c, 2, 57, 0
6, 14760, Note_on_c, 2, 55, 88
6, 14876, Note_off_c, 2, 55, 0
6, 14880, Note_on_c, 2, 57, 88
6, 14996, Note_off_c, 2, 57, 0
6, 15000, Note_on_c, 2, 49, 88
6, 15058, Note_off_c, 2, 49, 0
6, 15060, Note_on_c, 2, 50, 88
6, 15118, Note_off_c, 2, 50, 0
6, 15120, Note_on_c, 2, 52, 88
6, 15178, Note_off_c, 2, 52, 0
6, 15180, Note_on_c, 2, 53, 88
6, 15238, Note_off_c, 2, 53, 0
6, 15240, Note_on_c, 2, 55, 88
6, 15356, Note_off_c, 2, 55, 0
6, 15360, Note_on_c, 2, 57, 88
6, 15418, Note_off_c, 2, 57, 0
6, 15420, Note_on_c, 2, 55, 88
6, 15478, Note_off_c, 2, 55, 0
6, 15480, Note_on_c, 2, 53, 88
6, 15538, Note_off_c, 2, 53, 0
6, 15540, Note_on_c, 2, 52, 88
6, 15598, Note_off_c, 2, 52, 0
6, 15600, Note_on_c, 2, 53, 88
6, 15775, Note_off_c, 2, 53, 0
6, 15780, Note_on_c, 2, 55, 88
6, 15838, Note_off_c, 2, 55, 0
6, 15840, Note_on_c, 2, 53, 88
6, 15898, Note_off_c, 2, 53, 0
6, 15900, Note_on_c, 2, 52, 88
6, 15958, Note_off_c, 2, 52, 0
6, 15960, Note_on_c, 2, 50, 88
6, 16018, Note_off_c, 2, 50, 0
6, 16020, Note_on_c, 2, 55, 88
6, 16078, Note_off_c, 2, 55, 0
6, 16080, Note_on_c, 2, 57, 88
6, 16196, Note_off_c, 2, 57, 0
6, 16200, Note_on_c, 2, 45, 88
6, 16316, Note_off_c, 2, 45, 0
6, 16320, Note_on_c, 2, 38, 88
6, 16554, Note_off_c, 2, 38, 0
6, 16560, Note_on_c, 2, 50, 88
6, 16676, Note_off_c, 2, 50, 0
6, 16680, Note_on_c, 2, 51, 88
6, 16796, Note_off_c, 2, 51, 0
6, 16800, Note_on_c, 2, 50, 88
6, 16916, Note_off_c, 2, 50, 0
6, 16920, Note_on_c, 2, 48, 88
6, 17036, Note_off_c, 2, 48, 0
6, 17040, Note_on_c, 2, 50, 88
6, 17156, Note_off_c, 2, 50, 0
6, 17160, Note_on_c, 2, 42, 88
6, 17218, Note_off_c, 2, 42, 0
6, 17220, Note_on_c, 2, 43, 88
6, 17278, Note_off_c, 2, 43, 0
6, 17280, Note_on_c, 2, 45, 88
6, 17338, Note_off_c, 2, 45, 0
6, 17340, Note_on_c, 2, 46, 88
6, 17398, Note_off_c, 2, 46, 0
6, 17400, Note_on_c, 2, 48, 88
6, 17458, Note_off_c, 2, 48, 0
6, 17460, Note_on_c, 2, 46, 88
6, 17518, Note_off_c, 2, 46, 0
6, 17520, Note_on_c, 2, 50, 88
6, 17578, Note_off_c, 2, 50, 0
6, 17580, Note_on_c, 2, 48, 88
6, 17638, Note_off_c, 2, 48, 0
6, 17640, Note_on_c, 2, 46, 88
6, 17698, Note_off_c, 2, 46, 0
6, 17700, Note_on_c, 2, 45, 88
6, 17758, Note_off_c, 2, 45, 0
6, 17760, Note_on_c, 2, 46, 88
6, 17876, Note_off_c, 2, 46, 0
6, 18120, Note_on_c, 2, 54, 88
6, 18236, Note_off_c, 2, 54, 0
6, 18480, Note_on_c, 2, 55, 88
6, 18596, Note_off_c, 2, 55, 0
6, 18840, Note_on_c, 2, 51, 88
6, 18956, Note_off_c, 2, 51, 0
6, 19200, Note_on_c, 2, 50, 88
6, 19316, Note_off_c, 2, 50, 0
6, 19620, Note_on_c, 2, 48, 88
6, 19678, Note_off_c, 2, 48, 0
6, 19680, Note_on_c, 2, 50, 88
6, 19781, Note_off_c, 2, 50, 0
6, 19800, Note_on_c, 2, 50, 88
6, 19916, Note_off_c, 2, 50, 0
6, 19920, Note_on_c, 2, 43, 88
6, 20036, Note_off_c, 2, 43, 0
6, 20040, Note_on_c, 2, 45, 88
6, 20156, Note_off_c, 2, 45, 0
6, 20160, Note_on_c, 2, 46, 88
6, 20276, Note_off_c, 2, 46, 0
6, 20280, Note_on_c, 2, 48, 88
6, 20396, Note_off_c, 2, 48, 0
6, 20400, Note_on_c, 2, 50, 88
6, 20516, Note_off_c, 2, 50, 0
6, 20520, Note_on_c, 2, 52, 88
6, 20636, Note_off_c, 2, 52, 0
6, 20640, Note_on_c, 2, 53, 88
6, 20756, Note_off_c, 2, 53, 0
6, 20760, Note_on_c, 2, 55, 88
6, 20876, Note_off_c, 2, 55, 0
6, 20880, Note_on_c, 2, 57, 88
6, 20996, Note_off_c, 2, 57, 0
6, 21000, Note_on_c, 2, 58, 88
6, 21418, Note_off_c, 2, 58, 0
6, 21420, Note_on_c, 2, 55, 88
6, 21478, Note_off_c, 2, 55, 0
6, 21480, Note_on_c, 2, 60, 88
6, 21538, Note_off_c, 2, 60, 0
6, 21540, Note_on_c, 2, 58, 88
6, 21598, Note_off_c, 2, 58, 0
6, 21600, Note_on_c, 2, 57, 88
6, 21658, Note_off_c, 2, 57, 0
6, 21660, Note_on_c, 2, 55, 88
6, 21718, Note_off_c, 2, 55, 0
6, 21720, Note_on_c, 2, 53, 88
6, 21778, Note_off_c, 2, 53, 0
6, 21780, Note_on_c, 2, 48, 88
6, 21838, Note_off_c, 2, 48, 0
6, 21840, Note_on_c, 2, 53, 88
6, 21898, Note_off_c, 2, 53, 0
6, 21900, Note_on_c, 2, 51, 88
6, 21958, Note_off_c, 2, 51, 0
6, 21960, Note_on_c, 2, 50, 88
6, 22018, Note_off_c, 2, 50, 0
6, 22020, Note_on_c, 2, 48, 88
6, 22078, Note_off_c, 2, 48, 0
6, 22080, Note_on_c, 2, 46, 88
6, 22138, Note_off_c, 2, 46, 0
6, 22140, Note_on_c, 2, 48, 88
6, 22198, Note_off_c, 2, 48, 0
6, 22200, Note_on_c, 2, 46, 88
6, 22258, Note_off_c, 2, 46, 0
6, 22260, Note_on_c, 2, 45, 88
6, 22318, Note_off_c, 2, 45, 0
6, 22320, Note_on_c, 2, 43, 88
6, 22378, Note_off_c, 2, 43, 0
6, 22380, Note_on_c, 2, 41, 88
6, 22438, Note_off_c, 2, 41, 0
6, 22440, Note_on_c, 2, 40, 88
6, 22674, Note_off_c, 2, 40, 0
6, 22800, Note_on_c, 2, 41, 88
6, 22916, Note_off_c, 2, 41, 0
6, 22920, Note_on_c, 2, 43, 88
6, 23036, Note_off_c, 2, 43, 0
6, 23040, Note_on_c, 2, 45, 88
6, 23156, Note_off_c, 2, 45, 0
6, 23160, Note_on_c, 2, 46, 88
6, 23394, Note_off_c, 2, 46, 0
6, 23520, Note_on_c, 2, 45, 88
6, 23754, Note_off_c, 2, 45, 0
6, 23880, Note_on_c, 2, 43, 88
6, 24114, Note_off_c, 2, 43, 0
6, 24240, Note_on_c, 2, 41, 88
6, 24356, Note_off_c, 2, 41, 0
6, 24360, Note_on_c, 2, 43, 88
6, 24476, Note_off_c, 2, 43, 0
6, 24480, Note_on_c, 2, 45, 88
6, 24596, Note_off_c, 2, 45, 0
6, 24600, Note_on_c, 2, 46, 88
6, 24716, Note_off_c, 2, 46, 0
6, 24720, Note_on_c, 2, 48, 88
6, 24836, Note_off_c, 2, 48, 0
6, 24840, Note_on_c, 2, 50, 88
6, 24956, Note_off_c, 2, 50, 0
6, 24960, Note_on_c, 2, 52, 88
6, 25076, Note_off_c, 2, 52, 0
6, 25080, Note_on_c, 2, 48, 88
6, 25196, Note_off_c, 2, 48, 0
6, 25200, Note_on_c, 2, 53, 88
6, 25316, Note_off_c, 2, 53, 0
6, 25320, Note_on_c, 2, 46, 88
6, 25436, Note_off_c, 2, 46, 0
6, 25440, Note_on_c, 2, 48, 88
6, 25556, Note_off_c, 2, 48, 0
6, 25560, Note_on_c, 2, 36, 88
6, 25676, Note_off_c, 2, 36, 0
6, 25680, Note_on_c, 2, 41, 88
6, 25914, Note_off_c, 2, 41, 0
6, 25914, End_track
0, 0, End_of_file
