0, 0, Header, 1, 7, 240
1, 0, Start_track
1, 0, Time_signature, 4, 2, 24, 8
1, 0, Tempo, 857142
1, 0, SMPTE_offset, 64, 0, 0, 0, 93
1, 0, End_track
2, 0, Start_track
2, 0, Title_t, "(C) & (P) 1993"
2, 127, End_track
3, 0, Start_track
3, 0, Title_t, "CCARH,Stanford"
3, 0, End_track
4, 0, Start_track
4, 0, Title_t, "Track 1"
4, 0, Program_c, 0, 6
4, 11760, Note_on_c, 0, 72, 88
4, 11994, Note_off_c, 0, 72, 0
4, 12000, Note_on_c, 0, 73, 88
4, 12234, Note_off_c, 0, 73, 0
4, 12240, Note_on_c, 0, 72, 88
4, 12474, Note_off_c, 0, 72, 0
4, 12480, Note_on_c, 0, 71, 88
4, 12714, Note_off_c, 0, 71, 0
4, 12720, Note_on_c, 0, 76, 88
4, 12954, Note_off_c, 0, 76, 0
4, 12960, Note_on_c, 0, 77, 88
4, 13194, Note_off_c, 0, 77, 0
4, 13200, Note_on_c, 0, 70, 88
4, 13434, Note_off_c, 0, 70, 0
4, 13440, Note_on_c, 0, 69, 88
4, 13674, Note_off_c, 0, 69, 0
4, 13680, Note_on_c, 0, 68, 88
4, 13914, Note_off_c, 0, 68, 0
4, 13920, Note_on_c, 0, 67, 88
4, 14516, Note_off_c, 0, 67, 0
4, 14520, Note_on_c, 0, 65, 88
4, 14578, Note_off_c, 0, 65, 0
4, 14580, Note_on_c, 0, 67, 88
4, 14638, Note_off_c, 0, 67, 0
4, 14640, Note_on_c, 0, 68, 88
4, 15476, Note_off_c, 0, 68, 0
4, 15480, Note_on_c, 0, 67, 88
4, 15538, Note_off_c, 0, 67, 0
4, 15540, Note_on_c, 0, 68, 88
4, 15598, Note_off_c, 0, 68, 0
4, 15600, Note_on_c, 0, 70, 88
4, 16378, Note_off_c, 0, 70, 0
4, 16380, Note_on_c, 0, 67, 88
4, 16438, Note_off_c, 0, 67, 0
4, 16440, Note_on_c, 0, 68, 88
4, 16498, Note_off_c, 0, 68, 0
4, 16500, Note_on_c, 0, 72, 88
4, 16558, Note_off_c, 0, 72, 0
4, 16560, Note_on_c, 0, 77, 88
4, 17396, Note_off_c, 0, 77, 0
4, 17400, Note_on_c, 0, 75, 88
4, 17516, Note_off_c, 0, 75, 0
4, 17520, Note_on_c, 0, 74, 88
4, 17636, Note_off_c, 0, 74, 0
4, 17640, Note_on_c, 0, 79, 88
4, 17815, Note_off_c, 0, 79, 0
4, 17820, Note_on_c, 0, 71, 88
4, 17878, Note_off_c, 0, 71, 0
4, 17880, Note_on_c, 0, 72, 88
4, 17938, Note_off_c, 0, 72, 0
4, 17940, Note_on_c, 0, 74, 88
4, 17998, Note_off_c, 0, 74, 0
4, 18000, Note_on_c, 0, 75, 88
4, 18234, Note_off_c, 0, 75, 0
4, 18300, Note_on_c, 0, 72, 88
4, 18358, Note_off_c, 0, 72, 0
4, 18360, Note_on_c, 0, 74, 88
4, 18418, Note_off_c, 0, 74, 0
4, 18420, Note_on_c, 0, 75, 88
4, 18478, Note_off_c, 0, 75, 0
4, 18480, Note_on_c, 0, 77, 88
4, 18714, Note_off_c, 0, 77, 0
4, 18780, Note_on_c, 0, 75, 88
4, 18838, Note_off_c, 0, 75, 0
4, 18840, Note_on_c, 0, 77, 88
4, 18898, Note_off_c, 0, 77, 0
4, 18900, Note_on_c, 0, 79, 88
4, 18958, Note_off_c, 0, 79, 0
4, 18960, Note_on_c, 0, 80, 88
4, 19194, Note_off_c, 0, 80, 0
4, 19260, Note_on_c, 0, 79, 88
4, 19318, Note_off_c, 0, 79, 0
4, 19320, Note_on_c, 0, 81, 88
4, 19378, Note_off_c, 0, 81, 0
4, 19380, Note_on_c, 0, 83, 88
4, 19438, Note_off_c, 0, 83, 0
4, 19440, Note_on_c, 0, 84, 88
4, 19793, Note_off_c, 0, 84, 0
4, 19800, Note_on_c, 0, 83, 88
4, 19858, Note_off_c, 0, 83, 0
4, 19860, Note_on_c, 0, 81, 88
4, 19918, Note_off_c, 0, 81, 0
4, 19920, Note_on_c, 0, 83, 88
4, 20154, Note_off_c, 0, 83, 0
4, 20160, Note_on_c, 0, 84, 88
4, 20276, Note_off_c, 0, 84, 0
4, 20280, Note_on_c, 0, 79, 88
4, 20396, Note_off_c, 0, 79, 0
4, 20400, Note_on_c, 0, 84, 88
4, 20753, Note_off_c, 0, 84, 0
4, 20760, Note_on_c, 0, 84, 88
4, 20818, Note_off_c, 0, 84, 0
4, 20820, Note_on_c, 0, 82, 88
4, 20878, Note_off_c, 0, 82, 0
4, 20880, Note_on_c, 0, 81, 88
4, 20993, Note_off_c, 0, 81, 0
4, 21000, Note_on_c, 0, 81, 88
4, 21058, Note_off_c, 0, 81, 0
4, 21060, Note_on_c, 0, 79, 88
4, 21118, Note_off_c, 0, 79, 0
4, 21120, Note_on_c, 0, 77, 88
4, 21236, Note_off_c, 0, 77, 0
4, 21240, Note_on_c, 0, 79, 88
4, 21298, Note_off_c, 0, 79, 0
4, 21300, Note_on_c, 0, 81, 88
4, 21358, Note_off_c, 0, 81, 0
4, 21360, Note_on_c, 0, 82, 88
4, 21594, Note_off_c, 0, 82, 0
4, 21720, Note_on_c, 0, 82, 88
4, 21778, Note_off_c, 0, 82, 0
4, 21780, Note_on_c, 0, 80, 88
4, 21838, Note_off_c, 0, 80, 0
4, 21840, Note_on_c, 0, 79, 88
4, 21953, Note_off_c, 0, 79, 0
4, 21960, Note_on_c, 0, 79, 88
4, 22018, Note_off_c, 0, 79, 0
4, 22020, Note_on_c, 0, 77, 88
4, 22078, Note_off_c, 0, 77, 0
4, 22080, Note_on_c, 0, 75, 88
4, 22196, Note_off_c, 0, 75, 0
4, 22200, Note_on_c, 0, 77, 88
4, 22258, Note_off_c, 0, 77, 0
4, 22260, Note_on_c, 0, 79, 88
4, 22318, Note_off_c, 0, 79, 0
4, 22320, Note_on_c, 0, 80, 88
4, 22554, Note_off_c, 0, 80, 0
4, 22680, Note_on_c, 0, 80, 88
4, 22738, Note_off_c, 0, 80, 0
4, 22740, Note_on_c, 0, 79, 88
4, 22798, Note_off_c, 0, 79, 0
4, 22800, Note_on_c, 0, 77, 88
4, 22913, Note_off_c, 0, 77, 0
4, 22920, Note_on_c, 0, 77, 88
4, 22978, Note_off_c, 0, 77, 0
4, 22980, Note_on_c, 0, 75, 88
4, 23038, Note_off_c, 0, 75, 0
4, 23040, Note_on_c, 0, 73, 88
4, 23393, Note_off_c, 0, 73, 0
4, 23400, Note_on_c, 0, 75, 88
4, 23458, Note_off_c, 0, 75, 0
4, 23460, Note_on_c, 0, 73, 88
4, 23518, Note_off_c, 0, 73, 0
4, 23520, Note_on_c, 0, 72, 88
4, 23633, Note_off_c, 0, 72, 0
4, 23640, Note_on_c, 0, 72, 88
4, 23698, Note_off_c, 0, 72, 0
4, 23700, Note_on_c, 0, 70, 88
4, 23758, Note_off_c, 0, 70, 0
4, 23760, Note_on_c, 0, 68, 88
4, 24116, Note_off_c, 0, 68, 0
4, 24120, Note_on_c, 0, 70, 88
4, 24178, Note_off_c, 0, 70, 0
4, 24180, Note_on_c, 0, 72, 88
4, 24238, Note_off_c, 0, 72, 0
4, 24240, Note_on_c, 0, 73, 88
4, 24534, Note_off_c, 0, 73, 0
4, 24540, Note_on_c, 0, 72, 88
4, 24598, Note_off_c, 0, 72, 0
4, 24600, Note_on_c, 0, 73, 88
4, 24658, Note_off_c, 0, 73, 0
4, 24660, Note_on_c, 0, 70, 88
4, 24718, Note_off_c, 0, 70, 0
4, 24720, Note_on_c, 0, 79, 88
4, 25018, Note_off_c, 0, 79, 0
4, 25020, Note_on_c, 0, 72, 88
4, 25078, Note_off_c, 0, 72, 0
4, 25080, Note_on_c, 0, 73, 88
4, 25138, Note_off_c, 0, 73, 0
4, 25140, Note_on_c, 0, 72, 88
4, 25198, Note_off_c, 0, 72, 0
4, 25200, Note_on_c, 0, 77, 88
4, 25553, Note_off_c, 0, 77, 0
4, 25560, Note_on_c, 0, 76, 88
4, 25618, Note_off_c, 0, 76, 0
4, 25620, Note_on_c, 0, 77, 88
4, 25678, Note_off_c, 0, 77, 0
4, 25680, Note_on_c, 0, 79, 88
4, 26036, Note_off_c, 0, 79, 0
4, 26040, Note_on_c, 0, 77, 88
4, 26274, Note_off_c, 0, 77, 0
4, 26280, Note_on_c, 0, 75, 88
4, 26396, Note_off_c, 0, 75, 0
4, 26400, Note_on_c, 0, 74, 88
4, 26516, Note_off_c, 0, 74, 0
4, 26520, Note_on_c, 0, 75, 88
4, 26578, Note_off_c, 0, 75, 0
4, 26580, Note_on_c, 0, 77, 88
4, 26638, Note_off_c, 0, 77, 0
4, 26640, Note_on_c, 0, 79, 88
4, 26698, Note_off_c, 0, 79, 0
4, 26700, Note_on_c, 0, 77, 88
4, 26758, Note_off_c, 0, 77, 0
4, 26760, Note_on_c, 0, 76, 88
4, 26818, Note_off_c, 0, 76, 0
4, 26820, Note_on_c, 0, 74, 88
4, 26878, Note_off_c, 0, 74, 0
4, 26880, Note_on_c, 0, 72, 88
4, 27114, Note_off_c, 0, 72, 0
4, 27180, Note_on_c, 0, 70, 88
4, 27238, Note_off_c, 0, 70, 0
4, 27240, Note_on_c, 0, 68, 88
4, 27298, Note_off_c, 0, 68, 0
4, 27300, Note_on_c, 0, 67, 88
4, 27358, Note_off_c, 0, 67, 0
4, 27360, Note_on_c, 0, 65, 88
4, 27594, Note_off_c, 0, 65, 0
4, 27660, Note_on_c, 0, 65, 88
4, 27718, Note_off_c, 0, 65, 0
4, 27720, Note_on_c, 0, 67, 88
4, 27778, Note_off_c, 0, 67, 0
4, 27780, Note_on_c, 0, 68, 88
4, 27838, Note_off_c, 0, 68, 0
4, 27840, Note_on_c, 0, 70, 88
4, 28193, Note_off_c, 0, 70, 0
4, 28200, Note_on_c, 0, 68, 88
4, 28258, Note_off_c, 0, 68, 0
4, 28260, Note_on_c, 0, 67, 88
4, 28318, Note_off_c, 0, 67, 0
4, 28320, Note_on_c, 0, 68, 88
4, 28554, Note_off_c, 0, 68, 0
4, 28920, Note_on_c, 0, 78, 88
4, 28978, Note_off_c, 0, 78, 0
4, 28980, Note_on_c, 0, 77, 88
4, 29038, Note_off_c, 0, 77, 0
4, 29040, Note_on_c, 0, 75, 88
4, 29098, Note_off_c, 0, 75, 0
4, 29100, Note_on_c, 0, 73, 88
4, 29158, Note_off_c, 0, 73, 0
4, 29160, Note_on_c, 0, 72, 88
4, 29218, Note_off_c, 0, 72, 0
4, 29220, Note_on_c, 0, 70, 88
4, 29278, Note_off_c, 0, 70, 0
4, 29280, Note_on_c, 0, 68, 88
4, 29396, Note_off_c, 0, 68, 0
4, 29400, Note_on_c, 0, 70, 88
4, 29458, Note_off_c, 0, 70, 0
4, 29460, Note_on_c, 0, 72, 88
4, 29518, Note_off_c, 0, 72, 0
4, 29520, Note_on_c, 0, 73, 88
4, 29636, Note_off_c, 0, 73, 0
4, 29880, Note_on_c, 0, 75, 88
4, 29938, Note_off_c, 0, 75, 0
4, 29940, Note_on_c, 0, 73, 88
4, 29998, Note_off_c, 0, 73, 0
4, 30000, Note_on_c, 0, 72, 88
4, 30058, Note_off_c, 0, 72, 0
4, 30060, Note_on_c, 0, 70, 88
4, 30118, Note_off_c, 0, 70, 0
4, 30120, Note_on_c, 0, 68, 88
4, 30178, Note_off_c, 0, 68, 0
4, 30180, Note_on_c, 0, 66, 88
4, 30238, Note_off_c, 0, 66, 0
4, 30240, Note_on_c, 0, 65, 88
4, 30356, Note_off_c, 0, 65, 0
4, 30360, Note_on_c, 0, 67, 88
4, 30418, Note_off_c, 0, 67, 0
4, 30420, Note_on_c, 0, 69, 88
4, 30478, Note_off_c, 0, 69, 0
4, 30480, Note_on_c, 0, 70, 88
4, 30596, Note_off_c, 0, 70, 0
4, 30840, Note_on_c, 0, 72, 88
4, 30898, Note_off_c, 0, 72, 0
4, 30900, Note_on_c, 0, 70, 88
4, 30958, Note_off_c, 0, 70, 0
4, 30960, Note_on_c, 0, 68, 88
4, 31018, Note_off_c, 0, 68, 0
4, 31020, Note_on_c, 0, 67, 88
4, 31078, Note_off_c, 0, 67, 0
4, 31080, Note_on_c, 0, 65, 88
4, 31138, Note_off_c, 0, 65, 0
4, 31140, Note_on_c, 0, 63, 88
4, 31198, Note_off_c, 0, 63, 0
4, 31200, Note_on_c, 0, 61, 88
4, 31494, Note_off_c, 0, 61, 0
4, 31500, Note_on_c, 0, 65, 88
4, 31558, Note_off_c, 0, 65, 0
4, 31560, Note_on_c, 0, 70, 88
4, 31618, Note_off_c, 0, 70, 0
4, 31620, Note_on_c, 0, 68, 88
4, 31678, Note_off_c, 0, 68, 0
4, 31680, Note_on_c, 0, 67, 88
4, 31914, Note_off_c, 0, 67, 0
4, 31920, Note_on_c, 0, 68, 88
4, 32214, Note_off_c, 0, 68, 0
4, 32220, Note_on_c, 0, 67, 88
4, 32278, Note_off_c, 0, 67, 0
4, 32280, Note_on_c, 0, 68, 88
4, 32338, Note_off_c, 0, 68, 0
4, 32340, Note_on_c, 0, 70, 88
4, 32398, Note_off_c, 0, 70, 0
4, 32400, Note_on_c, 0, 72, 88
4, 32634, Note_off_c, 0, 72, 0
4, 32700, Note_on_c, 0, 68, 88
4, 32758, Note_off_c, 0, 68, 0
4, 32760, Note_on_c, 0, 70, 88
4, 32818, Note_off_c, 0, 70, 0
4, 32820, Note_on_c, 0, 72, 88
4, 32878, Note_off_c, 0, 72, 0
4, 32880, Note_on_c, 0, 73, 88
4, 33114, Note_off_c, 0, 73, 0
4, 33180, Note_on_c, 0, 72, 88
4, 33238, Note_off_c, 0, 72, 0
4, 33240, Note_on_c, 0, 73, 88
4, 33298, Note_off_c, 0, 73, 0
4, 33300, Note_on_c, 0, 75, 88
4, 33358, Note_off_c, 0, 75, 0
4, 33360, Note_on_c, 0, 77, 88
4, 33594, Note_off_c, 0, 77, 0
4, 33660, Note_on_c, 0, 75, 88
4, 33718, Note_off_c, 0, 75, 0
4, 33720, Note_on_c, 0, 77, 88
4, 33778, Note_off_c, 0, 77, 0
4, 33780, Note_on_c, 0, 79, 88
4, 33838, Note_off_c, 0, 79, 0
4, 33840, Note_on_c, 0, 80, 88
4, 34193, Note_off_c, 0, 80, 0
4, 34200, Note_on_c, 0, 79, 88
4, 34258, Note_off_c, 0, 79, 0
4, 34260, Note_on_c, 0, 77, 88
4, 34318, Note_off_c, 0, 77, 0
4, 34320, Note_on_c, 0, 79, 88
4, 34618, Note_off_c, 0, 79, 0
4, 34620, Note_on_c, 0, 72, 88
4, 34678, Note_off_c, 0, 72, 0
4, 34680, Note_on_c, 0, 74, 88
4, 34738, Note_off_c, 0, 74, 0
4, 34740, Note_on_c, 0, 75, 88
4, 34798, Note_off_c, 0, 75, 0
4, 34800, Note_on_c, 0, 77, 88
4, 35153, Note_off_c, 0, 77, 0
4, 35160, Note_on_c, 0, 75, 88
4, 35218, Note_off_c, 0, 75, 0
4, 35220, Note_on_c, 0, 74, 88
4, 35278, Note_off_c, 0, 74, 0
4, 35280, Note_on_c, 0, 75, 88
4, 35578, Note_off_c, 0, 75, 0
4, 35580, Note_on_c, 0, 68, 88
4, 35638, Note_off_c, 0, 68, 0
4, 35640, Note_on_c, 0, 70, 88
4, 35698, Note_off_c, 0, 70, 0
4, 35700, Note_on_c, 0, 72, 88
4, 35758, Note_off_c, 0, 72, 0
4, 35760, Note_on_c, 0, 73, 88
4, 36113, Note_off_c, 0, 73, 0
4, 36120, Note_on_c, 0, 72, 88
4, 36178, Note_off_c, 0, 72, 0
4, 36180, Note_on_c, 0, 70, 88
4, 36238, Note_off_c, 0, 70, 0
4, 36240, Note_on_c, 0, 72, 88
4, 36596, Note_off_c, 0, 72, 0
4, 36600, Note_on_c, 0, 65, 88
4, 36716, Note_off_c, 0, 65, 0
4, 36720, Note_on_c, 0, 70, 88
4, 36836, Note_off_c, 0, 70, 0
4, 36840, Note_on_c, 0, 68, 88
4, 36956, Note_off_c, 0, 68, 0
4, 36960, Note_on_c, 0, 67, 88
4, 37253, Note_off_c, 0, 67, 0
4, 37260, Note_on_c, 0, 67, 88
4, 37318, Note_off_c, 0, 67, 0
4, 37320, Note_on_c, 0, 68, 88
4, 37378, Note_off_c, 0, 68, 0
4, 37380, Note_on_c, 0, 70, 88
4, 37438, Note_off_c, 0, 70, 0
4, 37440, Note_on_c, 0, 72, 88
4, 37733, Note_off_c, 0, 72, 0
4, 37740, Note_on_c, 0, 72, 88
4, 37798, Note_off_c, 0, 72, 0
4, 37800, Note_on_c, 0, 74, 88
4, 37858, Note_off_c, 0, 74, 0
4, 37860, Note_on_c, 0, 75, 88
4, 37918, Note_off_c, 0, 75, 0
4, 37920, Note_on_c, 0, 77, 88
4, 38214, Note_off_c, 0, 77, 0
4, 38220, Note_on_c, 0, 70, 88
4, 38278, Note_off_c, 0, 70, 0
4, 38280, Note_on_c, 0, 75, 88
4, 38453, Note_off_c, 0, 75, 0
4, 38460, Note_on_c, 0, 75, 88
4, 38518, Note_off_c, 0, 75, 0
4, 38520, Note_on_c, 0, 74, 88
4, 38578, Note_off_c, 0, 74, 0
4, 38580, Note_on_c, 0, 72, 88
4, 38638, Note_off_c, 0, 72, 0
4, 38640, Note_on_c, 0, 74, 88
4, 38698, Note_off_c, 0, 74, 0
4, 38700, Note_on_c, 0, 75, 88
4, 38758, Note_off_c, 0, 75, 0
4, 38760, Note_on_c, 0, 72, 88
4, 38818, Note_off_c, 0, 72, 0
4, 38820, Note_on_c, 0, 74, 88
4, 38878, Note_off_c, 0, 74, 0
4, 38880, Note_on_c, 0, 75, 88
4, 38938, Note_off_c, 0, 75, 0
4, 38940, Note_on_c, 0, 72, 88
4, 38998, Note_off_c, 0, 72, 0
4, 39000, Note_on_c, 0, 74, 88
4, 39058, Note_off_c, 0, 74, 0
4, 39060, Note_on_c, 0, 75, 88
4, 39118, Note_off_c, 0, 75, 0
4, 39120, Note_on_c, 0, 77, 88
4, 39178, Note_off_c, 0, 77, 0
4, 39180, Note_on_c, 0, 75, 88
4, 39238, Note_off_c, 0, 75, 0
4, 39240, Note_on_c, 0, 74, 88
4, 39298, Note_off_c, 0, 74, 0
4, 39300, Note_on_c, 0, 72, 88
4, 39358, Note_off_c, 0, 72, 0
4, 39360, Note_on_c, 0, 70, 88
4, 39891, Note_off_c, 0, 70, 0
4, 39900, Note_on_c, 0, 68, 88
4, 39958, Note_off_c, 0, 68, 0
4, 39960, Note_on_c, 0, 67, 88
4, 40018, Note_off_c, 0, 67, 0
4, 40020, Note_on_c, 0, 65, 88
4, 40078, Note_off_c, 0, 65, 0
4, 40080, Note_on_c, 0, 63, 88
4, 40373, Note_off_c, 0, 63, 0
4, 40380, Note_on_c, 0, 63, 88
4, 40438, Note_off_c, 0, 63, 0
4, 40440, Note_on_c, 0, 65, 88
4, 40498, Note_off_c, 0, 65, 0
4, 40500, Note_on_c, 0, 63, 88
4, 40558, Note_off_c, 0, 63, 0
4, 40560, Note_on_c, 0, 62, 88
4, 40618, Note_off_c, 0, 62, 0
4, 40620, Note_on_c, 0, 72, 88
4, 40678, Note_off_c, 0, 72, 0
4, 40680, Note_on_c, 0, 70, 88
4, 40738, Note_off_c, 0, 70, 0
4, 40740, Note_on_c, 0, 68, 88
4, 40798, Note_off_c, 0, 68, 0
4, 40800, Note_on_c, 0, 67, 88
4, 40916, Note_off_c, 0, 67, 0
4, 40920, Note_on_c, 0, 70, 88
4, 41036, Note_off_c, 0, 70, 0
4, 41040, Note_on_c, 0, 75, 88
4, 41338, Note_off_c, 0, 75, 0
4, 41340, Note_on_c, 0, 79, 88
4, 41398, Note_off_c, 0, 79, 0
4, 41400, Note_on_c, 0, 77, 88
4, 41458, Note_off_c, 0, 77, 0
4, 41460, Note_on_c, 0, 75, 88
4, 41518, Note_off_c, 0, 75, 0
4, 41520, Note_on_c, 0, 74, 88
4, 41873, Note_off_c, 0, 74, 0
4, 41880, Note_on_c, 0, 67, 88
4, 41996, Note_off_c, 0, 67, 0
4, 42000, Note_on_c, 0, 72, 88
4, 42298, Note_off_c, 0, 72, 0
4, 42300, Note_on_c, 0, 75, 88
4, 42358, Note_off_c, 0, 75, 0
4, 42360, Note_on_c, 0, 74, 88
4, 42418, Note_off_c, 0, 74, 0
4, 42420, Note_on_c, 0, 72, 88
4, 42478, Note_off_c, 0, 72, 0
4, 42480, Note_on_c, 0, 70, 88
4, 42833, Note_off_c, 0, 70, 0
4, 42840, Note_on_c, 0, 63, 88
4, 42956, Note_off_c, 0, 63, 0
4, 42960, Note_on_c, 0, 68, 88
4, 43258, Note_off_c, 0, 68, 0
4, 43260, Note_on_c, 0, 72, 88
4, 43318, Note_off_c, 0, 72, 0
4, 43320, Note_on_c, 0, 70, 88
4, 43378, Note_off_c, 0, 70, 0
4, 43380, Note_on_c, 0, 68, 88
4, 43438, Note_off_c, 0, 68, 0
4, 43440, Note_on_c, 0, 67, 88
4, 43734, Note_off_c, 0, 67, 0
4, 43740, Note_on_c, 0, 65, 88
4, 43798, Note_off_c, 0, 65, 0
4, 43800, Note_on_c, 0, 68, 88
4, 43858, Note_off_c, 0, 68, 0
4, 43860, Note_on_c, 0, 67, 88
4, 43918, Note_off_c, 0, 67, 0
4, 43920, Note_on_c, 0, 65, 88
4, 43978, Note_off_c, 0, 65, 0
4, 43980, Note_on_c, 0, 63, 88
4, 44038, Note_off_c, 0, 63, 0
4, 44040, Note_on_c, 0, 62, 88
4, 44098, Note_off_c, 0, 62, 0
4, 44100, Note_on_c, 0, 60, 88
4, 44158, Note_off_c, 0, 60, 0
4, 44160, Note_on_c, 0, 59, 88
4, 44394, Note_off_c, 0, 59, 0
4, 44400, Note_on_c, 0, 79, 88
4, 44634, Note_off_c, 0, 79, 0
4, 44640, Note_on_c, 0, 80, 88
4, 44874, Note_off_c, 0, 80, 0
4, 44880, Note_on_c, 0, 79, 88
4, 45114, Note_off_c, 0, 79, 0
4, 45120, Note_on_c, 0, 78, 88
4, 45354, Note_off_c, 0, 78, 0
4, 45360, Note_on_c, 0, 83, 88
4, 45594, Note_off_c, 0, 83, 0
4, 45600, Note_on_c, 0, 84, 88
4, 45834, Note_off_c, 0, 84, 0
4, 45840, Note_on_c, 0, 77, 88
4, 46074, Note_off_c, 0, 77, 0
4, 46080, Note_on_c, 0, 76, 88
4, 46314, Note_off_c, 0, 76, 0
4, 46320, Note_on_c, 0, 75, 88
4, 46554, Note_off_c, 0, 75, 0
4, 46560, Note_on_c, 0, 74, 88
4, 47156, Note_off_c, 0, 74, 0
4, 47160, Note_on_c, 0, 72, 88
4, 47218, Note_off_c, 0, 72, 0
4, 47220, Note_on_c, 0, 74, 88
4, 47278, Note_off_c, 0, 74, 0
4, 47280, Note_on_c, 0, 75, 88
4, 48116, Note_off_c, 0, 75, 0
4, 48120, Note_on_c, 0, 74, 88
4, 48178, Note_off_c, 0, 74, 0
4, 48180, Note_on_c, 0, 75, 88
4, 48238, Note_off_c, 0, 75, 0
4, 48240, Note_on_c, 0, 77, 88
4, 49018, Note_off_c, 0, 77, 0
4, 49020, Note_on_c, 0, 74, 88
4, 49078, Note_off_c, 0, 74, 0
4, 49080, Note_on_c, 0, 76, 88
4, 49138, Note_off_c, 0, 76, 0
4, 49140, Note_on_c, 0, 79, 88
4, 49198, Note_off_c, 0, 79, 0
4, 49200, Note_on_c, 0, 70, 88
4, 50036, Note_off_c, 0, 70, 0
4, 50040, Note_on_c, 0, 68, 88
4, 50156, Note_off_c, 0, 68, 0
4, 50160, Note_on_c, 0, 67, 88
4, 50394, Note_off_c, 0, 67, 0
4, 50400, Note_on_c, 0, 65, 88
4, 50458, Note_off_c, 0, 65, 0
4, 50460, Note_on_c, 0, 64, 88
4, 50518, Note_off_c, 0, 64, 0
4, 50520, Note_on_c, 0, 65, 88
4, 50578, Note_off_c, 0, 65, 0
4, 50580, Note_on_c, 0, 67, 88
4, 50638, Note_off_c, 0, 67, 0
4, 50640, Note_on_c, 0, 68, 88
4, 50874, Note_off_c, 0, 68, 0
4, 50940, Note_on_c, 0, 65, 88
4, 50998, Note_off_c, 0, 65, 0
4, 51000, Note_on_c, 0, 67, 88
4, 51058, Note_off_c, 0, 67, 0
4, 51060, Note_on_c, 0, 68, 88
4, 51118, Note_off_c, 0, 68, 0
4, 51120, Note_on_c, 0, 70, 88
4, 51354, Note_off_c, 0, 70, 0
4, 51420, Note_on_c, 0, 68, 88
4, 51478, Note_off_c, 0, 68, 0
4, 51480, Note_on_c, 0, 70, 88
4, 51538, Note_off_c, 0, 70, 0
4, 51540, Note_on_c, 0, 72, 88
4, 51598, Note_off_c, 0, 72, 0
4, 51600, Note_on_c, 0, 73, 88
4, 51834, Note_off_c, 0, 73, 0
4, 51900, Note_on_c, 0, 72, 88
4, 51958, Note_off_c, 0, 72, 0
4, 51960, Note_on_c, 0, 74, 88
4, 52018, Note_off_c, 0, 74, 0
4, 52020, Note_on_c, 0, 76, 88
4, 52078, Note_off_c, 0, 76, 0
4, 52080, Note_on_c, 0, 77, 88
4, 52433, Note_off_c, 0, 77, 0
4, 52440, Note_on_c, 0, 76, 88
4, 52498, Note_off_c, 0, 76, 0
4, 52500, Note_on_c, 0, 74, 88
4, 52558, Note_off_c, 0, 74, 0
4, 52560, Note_on_c, 0, 76, 88
4, 52794, Note_off_c, 0, 76, 0
4, 52800, Note_on_c, 0, 77, 88
4, 53094, Note_off_c, 0, 77, 0
4, 53100, Note_on_c, 0, 75, 88
4, 53158, Note_off_c, 0, 75, 0
4, 53160, Note_on_c, 0, 73, 88
4, 53218, Note_off_c, 0, 73, 0
4, 53220, Note_on_c, 0, 72, 88
4, 53278, Note_off_c, 0, 72, 0
4, 53280, Note_on_c, 0, 73, 88
4, 53574, Note_off_c, 0, 73, 0
4, 53580, Note_on_c, 0, 70, 88
4, 53638, Note_off_c, 0, 70, 0
4, 53640, Note_on_c, 0, 72, 88
4, 53698, Note_off_c, 0, 72, 0
4, 53700, Note_on_c, 0, 73, 88
4, 53758, Note_off_c, 0, 73, 0
4, 53760, Note_on_c, 0, 64, 88
4, 53876, Note_off_c, 0, 64, 0
4, 53880, Note_on_c, 0, 72, 88
4, 54055, Note_off_c, 0, 72, 0
4, 54060, Note_on_c, 0, 67, 88
4, 54118, Note_off_c, 0, 67, 0
4, 54120, Note_on_c, 0, 68, 88
4, 54178, Note_off_c, 0, 68, 0
4, 54180, Note_on_c, 0, 65, 88
4, 54293, Note_off_c, 0, 65, 0
4, 54300, Note_on_c, 0, 65, 88
4, 54358, Note_off_c, 0, 65, 0
4, 54360, Note_on_c, 0, 64, 88
4, 54418, Note_off_c, 0, 64, 0
4, 54420, Note_on_c, 0, 62, 88
4, 54478, Note_off_c, 0, 62, 0
4, 54480, Note_on_c, 0, 65, 88
4, 54502, Note_off_c, 0, 65, 0
4, 54503, Note_on_c, 0, 64, 88
4, 54524, Note_off_c, 0, 64, 0
4, 54525, Note_on_c, 0, 65, 88
4, 54547, Note_off_c, 0, 65, 0
4, 54548, Note_on_c, 0, 64, 88
4, 54569, Note_off_c, 0, 64, 0
4, 54570, Note_on_c, 0, 62, 88
4, 54592, Note_off_c, 0, 62, 0
4, 54593, Note_on_c, 0, 64, 88
4, 54717, Note_off_c, 0, 64, 0
4, 54720, Note_on_c, 0, 65, 88
4, 55665, Note_off_c, 0, 65, 0
4, 55665, End_track
5, 0, Start_track
5, 0, Title_t, "Track 2"
5, 0, Program_c, 1, 6
5, 3120, Note_on_c, 1, 65, 88
5, 3354, Note_off_c, 1, 65, 0
5, 3360, Note_on_c, 1, 68, 88
5, 3594, Note_off_c, 1, 68, 0
5, 3600, Note_on_c, 1, 67, 88
5, 3834, Note_off_c, 1, 67, 0
5, 3840, Note_on_c, 1, 66, 88
5, 4074, Note_off_c, 1, 66, 0
5, 4080, Note_on_c, 1, 71, 88
5, 4314, Note_off_c, 1, 71, 0
5, 4320, Note_on_c, 1, 72, 88
5, 4554, Note_off_c, 1, 72, 0
5, 4560, Note_on_c, 1, 65, 88
5, 4794, Note_off_c, 1, 65, 0
5, 4800, Note_on_c, 1, 64, 88
5, 5034, Note_off_c, 1, 64, 0
5, 5040, Note_on_c, 1, 63, 88
5, 5273, Note_off_c, 1, 63, 0
5, 5280, Note_on_c, 1, 63, 88
5, 5302, Note_off_c, 1, 63, 0
5, 5303, Note_on_c, 1, 62, 88
5, 5332, Note_off_c, 1, 62, 0
5, 5333, Note_on_c, 1, 63, 88
5, 5362, Note_off_c, 1, 63, 0
5, 5363, Note_on_c, 1, 62, 88
5, 5392, Note_off_c, 1, 62, 0
5, 5393, Note_on_c, 1, 63, 88
5, 5422, Note_off_c, 1, 63, 0
5, 5423, Note_on_c, 1, 62, 88
5, 5444, Note_off_c, 1, 62, 0
5, 5445, Note_on_c, 1, 63, 88
5, 5467, Note_off_c, 1, 63, 0
5, 5468, Note_on_c, 1, 62, 88
5, 5489, Note_off_c, 1, 62, 0
5, 5490, Note_on_c, 1, 63, 88
5, 5512, Note_off_c, 1, 63, 0
5, 5513, Note_on_c, 1, 62, 88
5, 5534, Note_off_c, 1, 62, 0
5, 5535, Note_on_c, 1, 63, 88
5, 5557, Note_off_c, 1, 63, 0
5, 5558, Note_on_c, 1, 62, 88
5, 5579, Note_off_c, 1, 62, 0
5, 5580, Note_on_c, 1, 63, 88
5, 5602, Note_off_c, 1, 63, 0
5, 5603, Note_on_c, 1, 62, 88
5, 5624, Note_off_c, 1, 62, 0
5, 5625, Note_on_c, 1, 63, 88
5, 5647, Note_off_c, 1, 63, 0
5, 5648, Note_on_c, 1, 62, 88
5, 5669, Note_off_c, 1, 62, 0
5, 5670, Note_on_c, 1, 63, 88
5, 5692, Note_off_c, 1, 63, 0
5, 5693, Note_on_c, 1, 62, 88
5, 5714, Note_off_c, 1, 62, 0
5, 5715, Note_on_c, 1, 60, 88
5, 5737, Note_off_c, 1, 60, 0
5, 5738, Note_on_c, 1, 62, 88
5, 5759, Note_off_c, 1, 62, 0
5, 5760, Note_on_c, 1, 60, 88
5, 5873, Note_off_c, 1, 60, 0
5, 5880, Note_on_c, 1, 60, 88
5, 5938, Note_off_c, 1, 60, 0
5, 5940, Note_on_c, 1, 62, 88
5, 5998, Note_off_c, 1, 62, 0
5, 6000, Note_on_c, 1, 64, 88
5, 6116, Note_off_c, 1, 64, 0
5, 6120, Note_on_c, 1, 62, 88
5, 6178, Note_off_c, 1, 62, 0
5, 6180, Note_on_c, 1, 64, 88
5, 6238, Note_off_c, 1, 64, 0
5, 6240, Note_on_c, 1, 65, 88
5, 6298, Note_off_c, 1, 65, 0
5, 6300, Note_on_c, 1, 52, 88
5, 6358, Note_off_c, 1, 52, 0
5, 6360, Note_on_c, 1, 53, 88
5, 6418, Note_off_c, 1, 53, 0
5, 6420, Note_on_c, 1, 55, 88
5, 6478, Note_off_c, 1, 55, 0
5, 6480, Note_on_c, 1, 56, 88
5, 6714, Note_off_c, 1, 56, 0
5, 6780, Note_on_c, 1, 53, 88
5, 6838, Note_off_c, 1, 53, 0
5, 6840, Note_on_c, 1, 55, 88
5, 6898, Note_off_c, 1, 55, 0
5, 6900, Note_on_c, 1, 56, 88
5, 6958, Note_off_c, 1, 56, 0
5, 6960, Note_on_c, 1, 58, 88
5, 7194, Note_off_c, 1, 58, 0
5, 7260, Note_on_c, 1, 56, 88
5, 7318, Note_off_c, 1, 56, 0
5, 7320, Note_on_c, 1, 58, 88
5, 7378, Note_off_c, 1, 58, 0
5, 7380, Note_on_c, 1, 60, 88
5, 7438, Note_off_c, 1, 60, 0
5, 7440, Note_on_c, 1, 61, 88
5, 7674, Note_off_c, 1, 61, 0
5, 7740, Note_on_c, 1, 60, 88
5, 7798, Note_off_c, 1, 60, 0
5, 7800, Note_on_c, 1, 62, 88
5, 7858, Note_off_c, 1, 62, 0
5, 7860, Note_on_c, 1, 64, 88
5, 7918, Note_off_c, 1, 64, 0
5, 7920, Note_on_c, 1, 65, 88
5, 8273, Note_off_c, 1, 65, 0
5, 8280, Note_on_c, 1, 64, 88
5, 8338, Note_off_c, 1, 64, 0
5, 8340, Note_on_c, 1, 62, 88
5, 8398, Note_off_c, 1, 62, 0
5, 8400, Note_on_c, 1, 64, 88
5, 8634, Note_off_c, 1, 64, 0
5, 8640, Note_on_c, 1, 65, 88
5, 8753, Note_off_c, 1, 65, 0
5, 8760, Note_on_c, 1, 65, 88
5, 8818, Note_off_c, 1, 65, 0
5, 8820, Note_on_c, 1, 67, 88
5, 8878, Note_off_c, 1, 67, 0
5, 8880, Note_on_c, 1, 68, 88
5, 8993, Note_off_c, 1, 68, 0
5, 9000, Note_on_c, 1, 68, 88
5, 9058, Note_off_c, 1, 68, 0
5, 9060, Note_on_c, 1, 70, 88
5, 9118, Note_off_c, 1, 70, 0
5, 9120, Note_on_c, 1, 72, 88
5, 9414, Note_off_c, 1, 72, 0
5, 9420, Note_on_c, 1, 70, 88
5, 9478, Note_off_c, 1, 70, 0
5, 9480, Note_on_c, 1, 68, 88
5, 9538, Note_off_c, 1, 68, 0
5, 9540, Note_on_c, 1, 67, 88
5, 9598, Note_off_c, 1, 67, 0
5, 9600, Note_on_c, 1, 65, 88
5, 9834, Note_off_c, 1, 65, 0
5, 10200, Note_on_c, 1, 56, 88
5, 10258, Note_off_c, 1, 56, 0
5, 10260, Note_on_c, 1, 58, 88
5, 10318, Note_off_c, 1, 58, 0
5, 10320, Note_on_c, 1, 60, 88
5, 10676, Note_off_c, 1, 60, 0
5, 10680, Note_on_c, 1, 58, 88
5, 10738, Note_off_c, 1, 58, 0
5, 10740, Note_on_c, 1, 60, 88
5, 10798, Note_off_c, 1, 60, 0
5, 10800, Note_on_c, 1, 61, 88
5, 10913, Note_off_c, 1, 61, 0
5, 10920, Note_on_c, 1, 61, 88
5, 10978, Note_off_c, 1, 61, 0
5, 10980, Note_on_c, 1, 63, 88
5, 11038, Note_off_c, 1, 63, 0
5, 11040, Note_on_c, 1, 65, 88
5, 11636, Note_off_c, 1, 65, 0
5, 11640, Note_on_c, 1, 64, 88
5, 11698, Note_off_c, 1, 64, 0
5, 11700, Note_on_c, 1, 65, 88
5, 11758, Note_off_c, 1, 65, 0
5, 11760, Note_on_c, 1, 67, 88
5, 12113, Note_off_c, 1, 67, 0
5, 12120, Note_on_c, 1, 65, 88
5, 12354, Note_off_c, 1, 65, 0
5, 12360, Note_on_c, 1, 63, 88
5, 12476, Note_off_c, 1, 63, 0
5, 12480, Note_on_c, 1, 62, 88
5, 12596, Note_off_c, 1, 62, 0
5, 12600, Note_on_c, 1, 63, 88
5, 12658, Note_off_c, 1, 63, 0
5, 12660, Note_on_c, 1, 65, 88
5, 12718, Note_off_c, 1, 65, 0
5, 12720, Note_on_c, 1, 67, 88
5, 12778, Note_off_c, 1, 67, 0
5, 12780, Note_on_c, 1, 65, 88
5, 12838, Note_off_c, 1, 65, 0
5, 12840, Note_on_c, 1, 64, 88
5, 12898, Note_off_c, 1, 64, 0
5, 12900, Note_on_c, 1, 62, 88
5, 12958, Note_off_c, 1, 62, 0
5, 12960, Note_on_c, 1, 60, 88
5, 13076, Note_off_c, 1, 60, 0
5, 13260, Note_on_c, 1, 58, 88
5, 13318, Note_off_c, 1, 58, 0
5, 13320, Note_on_c, 1, 56, 88
5, 13378, Note_off_c, 1, 56, 0
5, 13380, Note_on_c, 1, 55, 88
5, 13438, Note_off_c, 1, 55, 0
5, 13440, Note_on_c, 1, 53, 88
5, 13674, Note_off_c, 1, 53, 0
5, 13740, Note_on_c, 1, 53, 88
5, 13798, Note_off_c, 1, 53, 0
5, 13800, Note_on_c, 1, 55, 88
5, 13858, Note_off_c, 1, 55, 0
5, 13860, Note_on_c, 1, 56, 88
5, 13918, Note_off_c, 1, 56, 0
5, 13920, Note_on_c, 1, 58, 88
5, 14273, Note_off_c, 1, 58, 0
5, 14280, Note_on_c, 1, 56, 88
5, 14338, Note_off_c, 1, 56, 0
5, 14340, Note_on_c, 1, 55, 88
5, 14398, Note_off_c, 1, 55, 0
5, 14400, Note_on_c, 1, 56, 88
5, 14634, Note_off_c, 1, 56, 0
5, 15000, Note_on_c, 1, 65, 88
5, 15058, Note_off_c, 1, 65, 0
5, 15060, Note_on_c, 1, 63, 88
5, 15118, Note_off_c, 1, 63, 0
5, 15120, Note_on_c, 1, 62, 88
5, 15233, Note_off_c, 1, 62, 0
5, 15240, Note_on_c, 1, 62, 88
5, 15298, Note_off_c, 1, 62, 0
5, 15300, Note_on_c, 1, 60, 88
5, 15358, Note_off_c, 1, 60, 0
5, 15360, Note_on_c, 1, 58, 88
5, 15473, Note_off_c, 1, 58, 0
5, 15480, Note_on_c, 1, 58, 88
5, 15538, Note_off_c, 1, 58, 0
5, 15540, Note_on_c, 1, 56, 88
5, 15598, Note_off_c, 1, 56, 0
5, 15600, Note_on_c, 1, 55, 88
5, 15834, Note_off_c, 1, 55, 0
5, 15960, Note_on_c, 1, 67, 88
5, 16018, Note_off_c, 1, 67, 0
5, 16020, Note_on_c, 1, 65, 88
5, 16078, Note_off_c, 1, 65, 0
5, 16080, Note_on_c, 1, 64, 88
5, 16193, Note_off_c, 1, 64, 0
5, 16200, Note_on_c, 1, 64, 88
5, 16258, Note_off_c, 1, 64, 0
5, 16260, Note_on_c, 1, 62, 88
5, 16318, Note_off_c, 1, 62, 0
5, 16320, Note_on_c, 1, 60, 88
5, 16433, Note_off_c, 1, 60, 0
5, 16440, Note_on_c, 1, 60, 88
5, 16498, Note_off_c, 1, 60, 0
5, 16500, Note_on_c, 1, 58, 88
5, 16558, Note_off_c, 1, 58, 0
5, 16560, Note_on_c, 1, 56, 88
5, 16794, Note_off_c, 1, 56, 0
5, 16920, Note_on_c, 1, 74, 88
5, 16978, Note_off_c, 1, 74, 0
5, 16980, Note_on_c, 1, 72, 88
5, 17038, Note_off_c, 1, 72, 0
5, 17040, Note_on_c, 1, 71, 88
5, 17153, Note_off_c, 1, 71, 0
5, 17160, Note_on_c, 1, 71, 88
5, 17218, Note_off_c, 1, 71, 0
5, 17220, Note_on_c, 1, 69, 88
5, 17278, Note_off_c, 1, 69, 0
5, 17280, Note_on_c, 1, 67, 88
5, 17393, Note_off_c, 1, 67, 0
5, 17400, Note_on_c, 1, 67, 88
5, 17458, Note_off_c, 1, 67, 0
5, 17460, Note_on_c, 1, 69, 88
5, 17518, Note_off_c, 1, 69, 0
5, 17520, Note_on_c, 1, 71, 88
5, 17636, Note_off_c, 1, 71, 0
5, 17640, Note_on_c, 1, 69, 88
5, 17698, Note_off_c, 1, 69, 0
5, 17700, Note_on_c, 1, 71, 88
5, 17758, Note_off_c, 1, 71, 0
5, 17760, Note_on_c, 1, 72, 88
5, 18113, Note_off_c, 1, 72, 0
5, 18120, Note_on_c, 1, 70, 88
5, 18236, Note_off_c, 1, 70, 0
5, 18240, Note_on_c, 1, 69, 88
5, 18356, Note_off_c, 1, 69, 0
5, 18360, Note_on_c, 1, 71, 88
5, 18418, Note_off_c, 1, 71, 0
5, 18420, Note_on_c, 1, 72, 88
5, 18478, Note_off_c, 1, 72, 0
5, 18480, Note_on_c, 1, 74, 88
5, 18538, Note_off_c, 1, 74, 0
5, 18540, Note_on_c, 1, 72, 88
5, 18598, Note_off_c, 1, 72, 0
5, 18600, Note_on_c, 1, 71, 88
5, 18658, Note_off_c, 1, 71, 0
5, 18660, Note_on_c, 1, 69, 88
5, 18718, Note_off_c, 1, 69, 0
5, 18720, Note_on_c, 1, 67, 88
5, 18954, Note_off_c, 1, 67, 0
5, 19020, Note_on_c, 1, 65, 88
5, 19078, Note_off_c, 1, 65, 0
5, 19080, Note_on_c, 1, 63, 88
5, 19138, Note_off_c, 1, 63, 0
5, 19140, Note_on_c, 1, 62, 88
5, 19198, Note_off_c, 1, 62, 0
5, 19200, Note_on_c, 1, 60, 88
5, 19434, Note_off_c, 1, 60, 0
5, 19500, Note_on_c, 1, 72, 88
5, 19558, Note_off_c, 1, 72, 0
5, 19560, Note_on_c, 1, 74, 88
5, 19618, Note_off_c, 1, 74, 0
5, 19620, Note_on_c, 1, 75, 88
5, 19678, Note_off_c, 1, 75, 0
5, 19680, Note_on_c, 1, 77, 88
5, 20033, Note_off_c, 1, 77, 0
5, 20040, Note_on_c, 1, 75, 88
5, 20098, Note_off_c, 1, 75, 0
5, 20100, Note_on_c, 1, 74, 88
5, 20158, Note_off_c, 1, 74, 0
5, 20160, Note_on_c, 1, 75, 88
5, 20276, Note_off_c, 1, 75, 0
5, 20280, Note_on_c, 1, 72, 88
5, 20338, Note_off_c, 1, 72, 0
5, 20340, Note_on_c, 1, 74, 88
5, 20398, Note_off_c, 1, 74, 0
5, 20400, Note_on_c, 1, 75, 88
5, 21236, Note_off_c, 1, 75, 0
5, 21240, Note_on_c, 1, 70, 88
5, 21298, Note_off_c, 1, 70, 0
5, 21300, Note_on_c, 1, 72, 88
5, 21358, Note_off_c, 1, 72, 0
5, 21360, Note_on_c, 1, 73, 88
5, 22196, Note_off_c, 1, 73, 0
5, 22200, Note_on_c, 1, 68, 88
5, 22258, Note_off_c, 1, 68, 0
5, 22260, Note_on_c, 1, 70, 88
5, 22318, Note_off_c, 1, 70, 0
5, 22320, Note_on_c, 1, 72, 88
5, 23156, Note_off_c, 1, 72, 0
5, 23160, Note_on_c, 1, 70, 88
5, 23218, Note_off_c, 1, 70, 0
5, 23220, Note_on_c, 1, 68, 88
5, 23278, Note_off_c, 1, 68, 0
5, 23280, Note_on_c, 1, 67, 88
5, 23870, Note_off_c, 1, 67, 0
5, 23880, Note_on_c, 1, 65, 88
5, 23938, Note_off_c, 1, 65, 0
5, 23940, Note_on_c, 1, 64, 88
5, 23998, Note_off_c, 1, 64, 0
5, 24000, Note_on_c, 1, 65, 88
5, 24353, Note_off_c, 1, 65, 0
5, 24360, Note_on_c, 1, 67, 88
5, 24418, Note_off_c, 1, 67, 0
5, 24420, Note_on_c, 1, 68, 88
5, 24478, Note_off_c, 1, 68, 0
5, 24480, Note_on_c, 1, 70, 88
5, 24774, Note_off_c, 1, 70, 0
5, 24780, Note_on_c, 1, 68, 88
5, 24838, Note_off_c, 1, 68, 0
5, 24840, Note_on_c, 1, 70, 88
5, 24898, Note_off_c, 1, 70, 0
5, 24900, Note_on_c, 1, 67, 88
5, 24958, Note_off_c, 1, 67, 0
5, 24960, Note_on_c, 1, 68, 88
5, 25254, Note_off_c, 1, 68, 0
5, 25260, Note_on_c, 1, 67, 88
5, 25318, Note_off_c, 1, 67, 0
5, 25320, Note_on_c, 1, 68, 88
5, 25378, Note_off_c, 1, 68, 0
5, 25380, Note_on_c, 1, 65, 88
5, 25438, Note_off_c, 1, 65, 0
5, 25440, Note_on_c, 1, 72, 88
5, 25556, Note_off_c, 1, 72, 0
5, 25560, Note_on_c, 1, 67, 88
5, 25676, Note_off_c, 1, 67, 0
5, 25680, Note_on_c, 1, 72, 88
5, 25796, Note_off_c, 1, 72, 0
5, 25800, Note_on_c, 1, 70, 88
5, 25916, Note_off_c, 1, 70, 0
5, 25920, Note_on_c, 1, 68, 88
5, 26036, Note_off_c, 1, 68, 0
5, 26040, Note_on_c, 1, 70, 88
5, 26156, Note_off_c, 1, 70, 0
5, 26160, Note_on_c, 1, 72, 88
5, 26218, Note_off_c, 1, 72, 0
5, 26220, Note_on_c, 1, 60, 88
5, 26278, Note_off_c, 1, 60, 0
5, 26280, Note_on_c, 1, 62, 88
5, 26338, Note_off_c, 1, 62, 0
5, 26340, Note_on_c, 1, 63, 88
5, 26398, Note_off_c, 1, 63, 0
5, 26400, Note_on_c, 1, 65, 88
5, 26634, Note_off_c, 1, 65, 0
5, 26760, Note_on_c, 1, 67, 88
5, 26876, Note_off_c, 1, 67, 0
5, 26880, Note_on_c, 1, 68, 88
5, 27114, Note_off_c, 1, 68, 0
5, 27180, Note_on_c, 1, 70, 88
5, 27355, Note_off_c, 1, 70, 0
5, 27360, Note_on_c, 1, 72, 88
5, 27594, Note_off_c, 1, 72, 0
5, 27720, Note_on_c, 1, 72, 88
5, 27836, Note_off_c, 1, 72, 0
5, 27840, Note_on_c, 1, 73, 88
5, 27956, Note_off_c, 1, 73, 0
5, 27960, Note_on_c, 1, 72, 88
5, 28018, Note_off_c, 1, 72, 0
5, 28020, Note_on_c, 1, 70, 88
5, 28078, Note_off_c, 1, 70, 0
5, 28080, Note_on_c, 1, 72, 88
5, 28550, Note_off_c, 1, 72, 0
5, 31920, Note_on_c, 1, 63, 88
5, 32154, Note_off_c, 1, 63, 0
5, 32160, Note_on_c, 1, 65, 88
5, 32394, Note_off_c, 1, 65, 0
5, 32400, Note_on_c, 1, 63, 88
5, 32634, Note_off_c, 1, 63, 0
5, 32640, Note_on_c, 1, 62, 88
5, 32874, Note_off_c, 1, 62, 0
5, 32880, Note_on_c, 1, 67, 88
5, 33114, Note_off_c, 1, 67, 0
5, 33120, Note_on_c, 1, 68, 88
5, 33354, Note_off_c, 1, 68, 0
5, 33360, Note_on_c, 1, 61, 88
5, 33594, Note_off_c, 1, 61, 0
5, 33600, Note_on_c, 1, 60, 88
5, 33834, Note_off_c, 1, 60, 0
5, 33840, Note_on_c, 1, 59, 88
5, 34073, Note_off_c, 1, 59, 0
5, 34080, Note_on_c, 1, 59, 88
5, 34102, Note_off_c, 1, 59, 0
5, 34103, Note_on_c, 1, 58, 88
5, 34132, Note_off_c, 1, 58, 0
5, 34133, Note_on_c, 1, 59, 88
5, 34162, Note_off_c, 1, 59, 0
5, 34163, Note_on_c, 1, 58, 88
5, 34184, Note_off_c, 1, 58, 0
5, 34185, Note_on_c, 1, 59, 88
5, 34207, Note_off_c, 1, 59, 0
5, 34208, Note_on_c, 1, 58, 88
5, 34229, Note_off_c, 1, 58, 0
5, 34230, Note_on_c, 1, 59, 88
5, 34252, Note_off_c, 1, 59, 0
5, 34253, Note_on_c, 1, 58, 88
5, 34274, Note_off_c, 1, 58, 0
5, 34275, Note_on_c, 1, 59, 88
5, 34297, Note_off_c, 1, 59, 0
5, 34298, Note_on_c, 1, 58, 88
5, 34555, Note_off_c, 1, 58, 0
5, 34560, Note_on_c, 1, 56, 88
5, 34794, Note_off_c, 1, 56, 0
5, 34860, Note_on_c, 1, 71, 88
5, 34918, Note_off_c, 1, 71, 0
5, 34920, Note_on_c, 1, 72, 88
5, 34978, Note_off_c, 1, 72, 0
5, 34980, Note_on_c, 1, 74, 88
5, 35038, Note_off_c, 1, 74, 0
5, 35040, Note_on_c, 1, 67, 88
5, 35393, Note_off_c, 1, 67, 0
5, 35400, Note_on_c, 1, 66, 88
5, 35516, Note_off_c, 1, 66, 0
5, 35520, Note_on_c, 1, 65, 88
5, 35814, Note_off_c, 1, 65, 0
5, 35820, Note_on_c, 1, 67, 88
5, 35878, Note_off_c, 1, 67, 0
5, 35880, Note_on_c, 1, 68, 88
5, 35938, Note_off_c, 1, 68, 0
5, 35940, Note_on_c, 1, 70, 88
5, 35998, Note_off_c, 1, 70, 0
5, 36000, Note_on_c, 1, 63, 88
5, 36294, Note_off_c, 1, 63, 0
5, 36300, Note_on_c, 1, 66, 88
5, 36358, Note_off_c, 1, 66, 0
5, 36360, Note_on_c, 1, 65, 88
5, 36418, Note_off_c, 1, 65, 0
5, 36420, Note_on_c, 1, 63, 88
5, 36478, Note_off_c, 1, 63, 0
5, 36480, Note_on_c, 1, 61, 88
5, 37011, Note_off_c, 1, 61, 0
5, 37020, Note_on_c, 1, 58, 88
5, 37078, Note_off_c, 1, 58, 0
5, 37080, Note_on_c, 1, 60, 88
5, 37138, Note_off_c, 1, 60, 0
5, 37140, Note_on_c, 1, 61, 88
5, 37198, Note_off_c, 1, 61, 0
5, 37200, Note_on_c, 1, 63, 88
5, 37493, Note_off_c, 1, 63, 0
5, 37500, Note_on_c, 1, 63, 88
5, 37558, Note_off_c, 1, 63, 0
5, 37560, Note_on_c, 1, 65, 88
5, 37618, Note_off_c, 1, 65, 0
5, 37620, Note_on_c, 1, 67, 88
5, 37678, Note_off_c, 1, 67, 0
5, 37680, Note_on_c, 1, 68, 88
5, 37974, Note_off_c, 1, 68, 0
5, 37980, Note_on_c, 1, 72, 88
5, 38038, Note_off_c, 1, 72, 0
5, 38040, Note_on_c, 1, 70, 88
5, 38098, Note_off_c, 1, 70, 0
5, 38100, Note_on_c, 1, 68, 88
5, 38158, Note_off_c, 1, 68, 0
5, 38160, Note_on_c, 1, 67, 88
5, 38333, Note_off_c, 1, 67, 0
5, 38340, Note_on_c, 1, 67, 88
5, 38398, Note_off_c, 1, 67, 0
5, 38400, Note_on_c, 1, 65, 88
5, 38870, Note_off_c, 1, 65, 0
5, 38880, Note_on_c, 1, 60, 88
5, 38996, Note_off_c, 1, 60, 0
5, 39420, Note_on_c, 1, 60, 88
5, 39478, Note_off_c, 1, 60, 0
5, 39480, Note_on_c, 1, 62, 88
5, 39538, Note_off_c, 1, 62, 0
5, 39540, Note_on_c, 1, 63, 88
5, 39598, Note_off_c, 1, 63, 0
5, 39600, Note_on_c, 1, 65, 88
5, 39658, Note_off_c, 1, 65, 0
5, 39660, Note_on_c, 1, 63, 88
5, 39718, Note_off_c, 1, 63, 0
5, 39720, Note_on_c, 1, 62, 88
5, 39778, Note_off_c, 1, 62, 0
5, 39780, Note_on_c, 1, 60, 88
5, 39838, Note_off_c, 1, 60, 0
5, 39840, Note_on_c, 1, 58, 88
5, 40193, Note_off_c, 1, 58, 0
5, 40200, Note_on_c, 1, 57, 88
5, 40258, Note_off_c, 1, 57, 0
5, 40260, Note_on_c, 1, 58, 88
5, 40318, Note_off_c, 1, 58, 0
5, 40320, Note_on_c, 1, 60, 88
5, 40554, Note_off_c, 1, 60, 0
5, 40560, Note_on_c, 1, 58, 88
5, 40913, Note_off_c, 1, 58, 0
5, 40920, Note_on_c, 1, 63, 88
5, 40978, Note_off_c, 1, 63, 0
5, 40980, Note_on_c, 1, 65, 88
5, 41038, Note_off_c, 1, 65, 0
5, 41040, Note_on_c, 1, 67, 88
5, 41153, Note_off_c, 1, 67, 0
5, 41160, Note_on_c, 1, 67, 88
5, 41218, Note_off_c, 1, 67, 0
5, 41220, Note_on_c, 1, 68, 88
5, 41278, Note_off_c, 1, 68, 0
5, 41280, Note_on_c, 1, 70, 88
5, 41574, Note_off_c, 1, 70, 0
5, 41580, Note_on_c, 1, 68, 88
5, 41638, Note_off_c, 1, 68, 0
5, 41640, Note_on_c, 1, 67, 88
5, 41698, Note_off_c, 1, 67, 0
5, 41700, Note_on_c, 1, 65, 88
5, 41758, Note_off_c, 1, 65, 0
5, 41760, Note_on_c, 1, 63, 88
5, 41818, Note_off_c, 1, 63, 0
5, 41820, Note_on_c, 1, 62, 88
5, 41878, Note_off_c, 1, 62, 0
5, 41880, Note_on_c, 1, 60, 88
5, 41938, Note_off_c, 1, 60, 0
5, 41940, Note_on_c, 1, 62, 88
5, 41998, Note_off_c, 1, 62, 0
5, 42000, Note_on_c, 1, 63, 88
5, 42113, Note_off_c, 1, 63, 0
5, 42120, Note_on_c, 1, 63, 88
5, 42178, Note_off_c, 1, 63, 0
5, 42180, Note_on_c, 1, 65, 88
5, 42238, Note_off_c, 1, 65, 0
5, 42240, Note_on_c, 1, 67, 88
5, 42534, Note_off_c, 1, 67, 0
5, 42540, Note_on_c, 1, 65, 88
5, 42598, Note_off_c, 1, 65, 0
5, 42600, Note_on_c, 1, 63, 88
5, 42658, Note_off_c, 1, 63, 0
5, 42660, Note_on_c, 1, 61, 88
5, 42718, Note_off_c, 1, 61, 0
5, 42720, Note_on_c, 1, 60, 88
5, 42778, Note_off_c, 1, 60, 0
5, 42780, Note_on_c, 1, 58, 88
5, 42838, Note_off_c, 1, 58, 0
5, 42840, Note_on_c, 1, 56, 88
5, 42898, Note_off_c, 1, 56, 0
5, 42900, Note_on_c, 1, 58, 88
5, 42958, Note_off_c, 1, 58, 0
5, 42960, Note_on_c, 1, 60, 88
5, 43073, Note_off_c, 1, 60, 0
5, 43080, Note_on_c, 1, 60, 88
5, 43138, Note_off_c, 1, 60, 0
5, 43140, Note_on_c, 1, 62, 88
5, 43198, Note_off_c, 1, 62, 0
5, 43200, Note_on_c, 1, 63, 88
5, 43494, Note_off_c, 1, 63, 0
5, 43500, Note_on_c, 1, 62, 88
5, 43558, Note_off_c, 1, 62, 0
5, 43560, Note_on_c, 1, 60, 88
5, 43618, Note_off_c, 1, 60, 0
5, 43620, Note_on_c, 1, 58, 88
5, 43678, Note_off_c, 1, 58, 0
5, 43680, Note_on_c, 1, 56, 88
5, 43796, Note_off_c, 1, 56, 0
5, 43800, Note_on_c, 1, 50, 88
5, 43858, Note_off_c, 1, 50, 0
5, 43860, Note_on_c, 1, 51, 88
5, 43918, Note_off_c, 1, 51, 0
5, 43920, Note_on_c, 1, 53, 88
5, 44036, Note_off_c, 1, 53, 0
5, 44040, Note_on_c, 1, 54, 88
5, 44156, Note_off_c, 1, 54, 0
5, 44160, Note_on_c, 1, 55, 88
5, 44273, Note_off_c, 1, 55, 0
5, 44280, Note_on_c, 1, 55, 88
5, 44338, Note_off_c, 1, 55, 0
5, 44340, Note_on_c, 1, 57, 88
5, 44398, Note_off_c, 1, 57, 0
5, 44400, Note_on_c, 1, 59, 88
5, 44516, Note_off_c, 1, 59, 0
5, 44520, Note_on_c, 1, 57, 88
5, 44578, Note_off_c, 1, 57, 0
5, 44580, Note_on_c, 1, 59, 88
5, 44638, Note_off_c, 1, 59, 0
5, 44640, Note_on_c, 1, 60, 88
5, 44698, Note_off_c, 1, 60, 0
5, 44700, Note_on_c, 1, 59, 88
5, 44758, Note_off_c, 1, 59, 0
5, 44760, Note_on_c, 1, 60, 88
5, 44818, Note_off_c, 1, 60, 0
5, 44820, Note_on_c, 1, 62, 88
5, 44878, Note_off_c, 1, 62, 0
5, 44880, Note_on_c, 1, 63, 88
5, 45114, Note_off_c, 1, 63, 0
5, 45180, Note_on_c, 1, 60, 88
5, 45238, Note_off_c, 1, 60, 0
5, 45240, Note_on_c, 1, 62, 88
5, 45298, Note_off_c, 1, 62, 0
5, 45300, Note_on_c, 1, 63, 88
5, 45358, Note_off_c, 1, 63, 0
5, 45360, Note_on_c, 1, 65, 88
5, 45654, Note_off_c, 1, 65, 0
5, 45660, Note_on_c, 1, 63, 88
5, 45718, Note_off_c, 1, 63, 0
5, 45720, Note_on_c, 1, 65, 88
5, 45778, Note_off_c, 1, 65, 0
5, 45780, Note_on_c, 1, 67, 88
5, 45838, Note_off_c, 1, 67, 0
5, 45840, Note_on_c, 1, 68, 88
5, 46074, Note_off_c, 1, 68, 0
5, 46140, Note_on_c, 1, 67, 88
5, 46198, Note_off_c, 1, 67, 0
5, 46200, Note_on_c, 1, 69, 88
5, 46258, Note_off_c, 1, 69, 0
5, 46260, Note_on_c, 1, 71, 88
5, 46318, Note_off_c, 1, 71, 0
5, 46320, Note_on_c, 1, 72, 88
5, 46673, Note_off_c, 1, 72, 0
5, 46680, Note_on_c, 1, 71, 88
5, 46738, Note_off_c, 1, 71, 0
5, 46740, Note_on_c, 1, 69, 88
5, 46798, Note_off_c, 1, 69, 0
5, 46800, Note_on_c, 1, 71, 88
5, 46858, Note_off_c, 1, 71, 0
5, 46860, Note_on_c, 1, 72, 88
5, 46918, Note_off_c, 1, 72, 0
5, 46920, Note_on_c, 1, 71, 88
5, 46978, Note_off_c, 1, 71, 0
5, 46980, Note_on_c, 1, 74, 88
5, 47038, Note_off_c, 1, 74, 0
5, 47040, Note_on_c, 1, 67, 88
5, 47274, Note_off_c, 1, 67, 0
5, 47400, Note_on_c, 1, 67, 88
5, 47516, Note_off_c, 1, 67, 0
5, 47520, Note_on_c, 1, 60, 88
5, 47636, Note_off_c, 1, 60, 0
5, 47640, Note_on_c, 1, 72, 88
5, 47698, Note_off_c, 1, 72, 0
5, 47700, Note_on_c, 1, 70, 88
5, 47758, Note_off_c, 1, 70, 0
5, 47760, Note_on_c, 1, 69, 88
5, 47876, Note_off_c, 1, 69, 0
5, 47880, Note_on_c, 1, 70, 88
5, 47938, Note_off_c, 1, 70, 0
5, 47940, Note_on_c, 1, 72, 88
5, 47998, Note_off_c, 1, 72, 0
5, 48000, Note_on_c, 1, 65, 88
5, 48116, Note_off_c, 1, 65, 0
5, 48120, Note_on_c, 1, 70, 88
5, 48236, Note_off_c, 1, 70, 0
5, 48360, Note_on_c, 1, 68, 88
5, 48476, Note_off_c, 1, 68, 0
5, 48480, Note_on_c, 1, 67, 88
5, 48596, Note_off_c, 1, 67, 0
5, 48600, Note_on_c, 1, 74, 88
5, 48658, Note_off_c, 1, 74, 0
5, 48660, Note_on_c, 1, 72, 88
5, 48718, Note_off_c, 1, 72, 0
5, 48720, Note_on_c, 1, 71, 88
5, 48836, Note_off_c, 1, 71, 0
5, 48840, Note_on_c, 1, 72, 88
5, 48898, Note_off_c, 1, 72, 0
5, 48900, Note_on_c, 1, 74, 88
5, 48958, Note_off_c, 1, 74, 0
5, 48960, Note_on_c, 1, 67, 88
5, 49194, Note_off_c, 1, 67, 0
5, 49320, Note_on_c, 1, 61, 88
5, 49436, Note_off_c, 1, 61, 0
5, 49440, Note_on_c, 1, 60, 88
5, 49556, Note_off_c, 1, 60, 0
5, 49560, Note_on_c, 1, 67, 88
5, 49618, Note_off_c, 1, 67, 0
5, 49620, Note_on_c, 1, 65, 88
5, 49678, Note_off_c, 1, 65, 0
5, 49680, Note_on_c, 1, 64, 88
5, 49796, Note_off_c, 1, 64, 0
5, 49800, Note_on_c, 1, 65, 88
5, 49858, Note_off_c, 1, 65, 0
5, 49860, Note_on_c, 1, 67, 88
5, 49918, Note_off_c, 1, 67, 0
5, 49920, Note_on_c, 1, 60, 88
5, 50036, Note_off_c, 1, 60, 0
5, 50040, Note_on_c, 1, 65, 88
5, 50274, Note_off_c, 1, 65, 0
5, 50280, Note_on_c, 1, 64, 88
5, 50396, Note_off_c, 1, 64, 0
5, 50400, Note_on_c, 1, 65, 88
5, 50634, Note_off_c, 1, 65, 0
5, 50700, Note_on_c, 1, 67, 88
5, 50758, Note_off_c, 1, 67, 0
5, 50760, Note_on_c, 1, 65, 88
5, 50818, Note_off_c, 1, 65, 0
5, 50820, Note_on_c, 1, 63, 88
5, 50878, Note_off_c, 1, 63, 0
5, 50880, Note_on_c, 1, 62, 88
5, 51114, Note_off_c, 1, 62, 0
5, 51240, Note_on_c, 1, 61, 88
5, 51474, Note_off_c, 1, 61, 0
5, 51480, Note_on_c, 1, 60, 88
5, 51596, Note_off_c, 1, 60, 0
5, 51720, Note_on_c, 1, 66, 88
5, 51956, Note_off_c, 1, 66, 0
5, 51960, Note_on_c, 1, 65, 88
5, 52076, Note_off_c, 1, 65, 0
5, 52140, Note_on_c, 1, 65, 88
5, 52198, Note_off_c, 1, 65, 0
5, 52200, Note_on_c, 1, 67, 88
5, 52258, Note_off_c, 1, 67, 0
5, 52260, Note_on_c, 1, 68, 88
5, 52318, Note_off_c, 1, 68, 0
5, 52320, Note_on_c, 1, 70, 88
5, 52858, Note_off_c, 1, 70, 0
5, 52860, Note_on_c, 1, 73, 88
5, 52918, Note_off_c, 1, 73, 0
5, 52920, Note_on_c, 1, 72, 88
5, 52978, Note_off_c, 1, 72, 0
5, 52980, Note_on_c, 1, 70, 88
5, 53038, Note_off_c, 1, 70, 0
5, 53040, Note_on_c, 1, 69, 88
5, 53274, Note_off_c, 1, 69, 0
5, 53340, Note_on_c, 1, 72, 88
5, 53398, Note_off_c, 1, 72, 0
5, 53400, Note_on_c, 1, 70, 88
5, 53458, Note_off_c, 1, 70, 0
5, 53460, Note_on_c, 1, 68, 88
5, 53518, Note_off_c, 1, 68, 0
5, 53520, Note_on_c, 1, 67, 88
5, 53578, Note_off_c, 1, 67, 0
5, 53580, Note_on_c, 1, 65, 88
5, 53638, Note_off_c, 1, 65, 0
5, 53640, Note_on_c, 1, 63, 88
5, 53698, Note_off_c, 1, 63, 0
5, 53700, Note_on_c, 1, 61, 88
5, 53758, Note_off_c, 1, 61, 0
5, 53760, Note_on_c, 1, 60, 88
5, 54705, Note_off_c, 1, 60, 0
5, 54720, Note_on_c, 1, 60, 88
5, 55665, Note_off_c, 1, 60, 0
5, 55665, End_track
6, 0, Start_track
6, 0, Title_t, "Track 3"
6, 0, Program_c, 2, 6
6, 240, Note_on_c, 2, 60, 88
6, 474, Note_off_c, 2, 60, 0
6, 480, Note_on_c, 2, 61, 88
6, 714, Note_off_c, 2, 61, 0
6, 720, Note_on_c, 2, 60, 88
6, 954, Note_off_c, 2, 60, 0
6, 960, Note_on_c, 2, 59, 88
6, 1194, Note_off_c, 2, 59, 0
6, 1200, Note_on_c, 2, 64, 88
6, 1434, Note_off_c, 2, 64, 0
6, 1440, Note_on_c, 2, 65, 88
6, 1674, Note_off_c, 2, 65, 0
6, 1680, Note_on_c, 2, 58, 88
6, 1914, Note_off_c, 2, 58, 0
6, 1920, Note_on_c, 2, 57, 88
6, 2154, Note_off_c, 2, 57, 0
6, 2160, Note_on_c, 2, 56, 88
6, 2393, Note_off_c, 2, 56, 0
6, 2400, Note_on_c, 2, 56, 88
6, 2422, Note_off_c, 2, 56, 0
6, 2423, Note_on_c, 2, 55, 88
6, 2444, Note_off_c, 2, 55, 0
6, 2445, Note_on_c, 2, 56, 88
6, 2467, Note_off_c, 2, 56, 0
6, 2468, Note_on_c, 2, 55, 88
6, 2489, Note_off_c, 2, 55, 0
6, 2490, Note_on_c, 2, 56, 88
6, 2512, Note_off_c, 2, 56, 0
6, 2513, Note_on_c, 2, 55, 88
6, 2534, Note_off_c, 2, 55, 0
6, 2535, Note_on_c, 2, 56, 88
6, 2557, Note_off_c, 2, 56, 0
6, 2558, Note_on_c, 2, 55, 88
6, 2579, Note_off_c, 2, 55, 0
6, 2580, Note_on_c, 2, 56, 88
6, 2602, Note_off_c, 2, 56, 0
6, 2603, Note_on_c, 2, 55, 88
6, 2624, Note_off_c, 2, 55, 0
6, 2625, Note_on_c, 2, 56, 88
6, 2647, Note_off_c, 2, 56, 0
6, 2648, Note_on_c, 2, 55, 88
6, 2669, Note_off_c, 2, 55, 0
6, 2670, Note_on_c, 2, 56, 88
6, 2692, Note_off_c, 2, 56, 0
6, 2693, Note_on_c, 2, 55, 88
6, 2714, Note_off_c, 2, 55, 0
6, 2715, Note_on_c, 2, 56, 88
6, 2737, Note_off_c, 2, 56, 0
6, 2738, Note_on_c, 2, 55, 88
6, 2759, Note_off_c, 2, 55, 0
6, 2760, Note_on_c, 2, 56, 88
6, 2782, Note_off_c, 2, 56, 0
6, 2783, Note_on_c, 2, 55, 88
6, 2804, Note_off_c, 2, 55, 0
6, 2805, Note_on_c, 2, 56, 88
6, 2827, Note_off_c, 2, 56, 0
6, 2828, Note_on_c, 2, 55, 88
6, 2842, Note_off_c, 2, 55, 0
6, 2843, Note_on_c, 2, 53, 88
6, 2857, Note_off_c, 2, 53, 0
6, 2858, Note_on_c, 2, 55, 88
6, 2879, Note_off_c, 2, 55, 0
6, 2880, Note_on_c, 2, 53, 88
6, 2993, Note_off_c, 2, 53, 0
6, 3000, Note_on_c, 2, 53, 88
6, 3058, Note_off_c, 2, 53, 0
6, 3060, Note_on_c, 2, 55, 88
6, 3118, Note_off_c, 2, 55, 0
6, 3120, Note_on_c, 2, 56, 88
6, 3233, Note_off_c, 2, 56, 0
6, 3240, Note_on_c, 2, 56, 88
6, 3298, Note_off_c, 2, 56, 0
6, 3300, Note_on_c, 2, 58, 88
6, 3358, Note_off_c, 2, 58, 0
6, 3360, Note_on_c, 2, 60, 88
6, 3418, Note_off_c, 2, 60, 0
6, 3420, Note_on_c, 2, 47, 88
6, 3478, Note_off_c, 2, 47, 0
6, 3480, Note_on_c, 2, 48, 88
6, 3538, Note_off_c, 2, 48, 0
6, 3540, Note_on_c, 2, 50, 88
6, 3598, Note_off_c, 2, 50, 0
6, 3600, Note_on_c, 2, 51, 88
6, 3834, Note_off_c, 2, 51, 0
6, 3900, Note_on_c, 2, 48, 88
6, 3958, Note_off_c, 2, 48, 0
6, 3960, Note_on_c, 2, 50, 88
6, 4018, Note_off_c, 2, 50, 0
6, 4020, Note_on_c, 2, 51, 88
6, 4078, Note_off_c, 2, 51, 0
6, 4080, Note_on_c, 2, 53, 88
6, 4314, Note_off_c, 2, 53, 0
6, 4380, Note_on_c, 2, 51, 88
6, 4438, Note_off_c, 2, 51, 0
6, 4440, Note_on_c, 2, 53, 88
6, 4498, Note_off_c, 2, 53, 0
6, 4500, Note_on_c, 2, 55, 88
6, 4558, Note_off_c, 2, 55, 0
6, 4560, Note_on_c, 2, 56, 88
6, 4794, Note_off_c, 2, 56, 0
6, 4860, Note_on_c, 2, 55, 88
6, 4918, Note_off_c, 2, 55, 0
6, 4920, Note_on_c, 2, 57, 88
6, 4978, Note_off_c, 2, 57, 0
6, 4980, Note_on_c, 2, 59, 88
6, 5038, Note_off_c, 2, 59, 0
6, 5040, Note_on_c, 2, 60, 88
6, 5393, Note_off_c, 2, 60, 0
6, 5400, Note_on_c, 2, 59, 88
6, 5458, Note_off_c, 2, 59, 0
6, 5460, Note_on_c, 2, 57, 88
6, 5518, Note_off_c, 2, 57, 0
6, 5520, Note_on_c, 2, 60, 88
6, 5549, Note_off_c, 2, 60, 0
6, 5550, Note_on_c, 2, 59, 88
6, 5579, Note_off_c, 2, 59, 0
6, 5580, Note_on_c, 2, 60, 88
6, 5609, Note_off_c, 2, 60, 0
6, 5610, Note_on_c, 2, 59, 88
6, 5639, Note_off_c, 2, 59, 0
6, 5640, Note_on_c, 2, 60, 88
6, 5669, Note_off_c, 2, 60, 0
6, 5670, Note_on_c, 2, 59, 88
6, 5699, Note_off_c, 2, 59, 0
6, 5700, Note_on_c, 2, 57, 88
6, 5729, Note_off_c, 2, 57, 0
6, 5730, Note_on_c, 2, 59, 88
6, 5759, Note_off_c, 2, 59, 0
6, 5760, Note_on_c, 2, 60, 88
6, 5876, Note_off_c, 2, 60, 0
6, 5880, Note_on_c, 2, 55, 88
6, 5996, Note_off_c, 2, 55, 0
6, 6000, Note_on_c, 2, 60, 88
6, 6116, Note_off_c, 2, 60, 0
6, 6120, Note_on_c, 2, 58, 88
6, 6236, Note_off_c, 2, 58, 0
6, 6240, Note_on_c, 2, 56, 88
6, 6356, Note_off_c, 2, 56, 0
6, 6360, Note_on_c, 2, 65, 88
6, 6594, Note_off_c, 2, 65, 0
6, 6600, Note_on_c, 2, 63, 88
6, 6716, Note_off_c, 2, 63, 0
6, 6720, Note_on_c, 2, 62, 88
6, 6836, Note_off_c, 2, 62, 0
6, 6840, Note_on_c, 2, 63, 88
6, 6898, Note_off_c, 2, 63, 0
6, 6900, Note_on_c, 2, 65, 88
6, 6958, Note_off_c, 2, 65, 0
6, 6960, Note_on_c, 2, 67, 88
6, 7018, Note_off_c, 2, 67, 0
6, 7020, Note_on_c, 2, 65, 88
6, 7078, Note_off_c, 2, 65, 0
6, 7080, Note_on_c, 2, 64, 88
6, 7138, Note_off_c, 2, 64, 0
6, 7140, Note_on_c, 2, 62, 88
6, 7198, Note_off_c, 2, 62, 0
6, 7200, Note_on_c, 2, 60, 88
6, 7434, Note_off_c, 2, 60, 0
6, 7500, Note_on_c, 2, 58, 88
6, 7558, Note_off_c, 2, 58, 0
6, 7560, Note_on_c, 2, 56, 88
6, 7618, Note_off_c, 2, 56, 0
6, 7620, Note_on_c, 2, 55, 88
6, 7678, Note_off_c, 2, 55, 0
6, 7680, Note_on_c, 2, 53, 88
6, 7914, Note_off_c, 2, 53, 0
6, 7980, Note_on_c, 2, 53, 88
6, 8038, Note_off_c, 2, 53, 0
6, 8040, Note_on_c, 2, 55, 88
6, 8098, Note_off_c, 2, 55, 0
6, 8100, Note_on_c, 2, 56, 88
6, 8158, Note_off_c, 2, 56, 0
6, 8160, Note_on_c, 2, 58, 88
6, 8513, Note_off_c, 2, 58, 0
6, 8520, Note_on_c, 2, 56, 88
6, 8578, Note_off_c, 2, 56, 0
6, 8580, Note_on_c, 2, 55, 88
6, 8638, Note_off_c, 2, 55, 0
6, 8640, Note_on_c, 2, 56, 88
6, 8874, Note_off_c, 2, 56, 0
6, 9240, Note_on_c, 2, 60, 88
6, 9298, Note_off_c, 2, 60, 0
6, 9300, Note_on_c, 2, 61, 88
6, 9358, Note_off_c, 2, 61, 0
6, 9360, Note_on_c, 2, 63, 88
6, 9716, Note_off_c, 2, 63, 0
6, 9720, Note_on_c, 2, 61, 88
6, 9778, Note_off_c, 2, 61, 0
6, 9780, Note_on_c, 2, 63, 88
6, 9838, Note_off_c, 2, 63, 0
6, 9840, Note_on_c, 2, 65, 88
6, 9953, Note_off_c, 2, 65, 0
6, 9960, Note_on_c, 2, 65, 88
6, 10018, Note_off_c, 2, 65, 0
6, 10020, Note_on_c, 2, 67, 88
6, 10078, Note_off_c, 2, 67, 0
6, 10080, Note_on_c, 2, 68, 88
6, 10374, Note_off_c, 2, 68, 0
6, 10380, Note_on_c, 2, 66, 88
6, 10438, Note_off_c, 2, 66, 0
6, 10440, Note_on_c, 2, 65, 88
6, 10498, Note_off_c, 2, 65, 0
6, 10500, Note_on_c, 2, 63, 88
6, 10558, Note_off_c, 2, 63, 0
6, 10560, Note_on_c, 2, 61, 88
6, 10794, Note_off_c, 2, 61, 0
6, 11160, Note_on_c, 2, 53, 88
6, 11218, Note_off_c, 2, 53, 0
6, 11220, Note_on_c, 2, 55, 88
6, 11278, Note_off_c, 2, 55, 0
6, 11280, Note_on_c, 2, 56, 88
6, 11393, Note_off_c, 2, 56, 0
6, 11400, Note_on_c, 2, 56, 88
6, 11458, Note_off_c, 2, 56, 0
6, 11460, Note_on_c, 2, 58, 88
6, 11518, Note_off_c, 2, 58, 0
6, 11520, Note_on_c, 2, 60, 88
6, 11636, Note_off_c, 2, 60, 0
6, 11640, Note_on_c, 2, 55, 88
6, 11756, Note_off_c, 2, 55, 0
6, 11760, Note_on_c, 2, 60, 88
6, 11876, Note_off_c, 2, 60, 0
6, 11880, Note_on_c, 2, 58, 88
6, 11996, Note_off_c, 2, 58, 0
6, 12000, Note_on_c, 2, 56, 88
6, 12058, Note_off_c, 2, 56, 0
6, 12300, Note_on_c, 2, 48, 88
6, 12358, Note_off_c, 2, 48, 0
6, 12360, Note_on_c, 2, 50, 88
6, 12418, Note_off_c, 2, 50, 0
6, 12420, Note_on_c, 2, 51, 88
6, 12478, Note_off_c, 2, 51, 0
6, 12480, Note_on_c, 2, 53, 88
6, 12714, Note_off_c, 2, 53, 0
6, 12840, Note_on_c, 2, 55, 88
6, 12956, Note_off_c, 2, 55, 0
6, 12960, Note_on_c, 2, 56, 88
6, 13076, Note_off_c, 2, 56, 0
6, 13320, Note_on_c, 2, 58, 88
6, 13436, Note_off_c, 2, 58, 0
6, 13440, Note_on_c, 2, 60, 88
6, 13674, Note_off_c, 2, 60, 0
6, 13800, Note_on_c, 2, 60, 88
6, 13916, Note_off_c, 2, 60, 0
6, 13920, Note_on_c, 2, 61, 88
6, 14036, Note_off_c, 2, 61, 0
6, 14040, Note_on_c, 2, 60, 88
6, 14098, Note_off_c, 2, 60, 0
6, 14100, Note_on_c, 2, 58, 88
6, 14158, Note_off_c, 2, 58, 0
6, 14160, Note_on_c, 2, 60, 88
6, 14634, Note_off_c, 2, 60, 0
6, 17520, Note_on_c, 2, 55, 88
6, 17754, Note_off_c, 2, 55, 0
6, 17760, Note_on_c, 2, 56, 88
6, 17994, Note_off_c, 2, 56, 0
6, 18000, Note_on_c, 2, 55, 88
6, 18234, Note_off_c, 2, 55, 0
6, 18240, Note_on_c, 2, 54, 88
6, 18474, Note_off_c, 2, 54, 0
6, 18480, Note_on_c, 2, 59, 88
6, 18714, Note_off_c, 2, 59, 0
6, 18720, Note_on_c, 2, 60, 88
6, 18954, Note_off_c, 2, 60, 0
6, 18960, Note_on_c, 2, 53, 88
6, 19194, Note_off_c, 2, 53, 0
6, 19200, Note_on_c, 2, 52, 88
6, 19434, Note_off_c, 2, 52, 0
6, 19440, Note_on_c, 2, 51, 88
6, 19673, Note_off_c, 2, 51, 0
6, 19680, Note_on_c, 2, 51, 88
6, 19702, Note_off_c, 2, 51, 0
6, 19703, Note_on_c, 2, 50, 88
6, 19724, Note_off_c, 2, 50, 0
6, 19725, Note_on_c, 2, 51, 88
6, 19747, Note_off_c, 2, 51, 0
6, 19748, Note_on_c, 2, 50, 88
6, 19769, Note_off_c, 2, 50, 0
6, 19770, Note_on_c, 2, 51, 88
6, 19792, Note_off_c, 2, 51, 0
6, 19793, Note_on_c, 2, 50, 88
6, 19814, Note_off_c, 2, 50, 0
6, 19815, Note_on_c, 2, 51, 88
6, 19837, Note_off_c, 2, 51, 0
6, 19838, Note_on_c, 2, 50, 88
6, 19859, Note_off_c, 2, 50, 0
6, 19860, Note_on_c, 2, 51, 88
6, 19882, Note_off_c, 2, 51, 0
6, 19883, Note_on_c, 2, 50, 88
6, 19904, Note_off_c, 2, 50, 0
6, 19905, Note_on_c, 2, 51, 88
6, 19927, Note_off_c, 2, 51, 0
6, 19928, Note_on_c, 2, 50, 88
6, 19949, Note_off_c, 2, 50, 0
6, 19950, Note_on_c, 2, 51, 88
6, 19972, Note_off_c, 2, 51, 0
6, 19973, Note_on_c, 2, 50, 88
6, 19994, Note_off_c, 2, 50, 0
6, 19995, Note_on_c, 2, 51, 88
6, 20017, Note_off_c, 2, 51, 0
6, 20018, Note_on_c, 2, 50, 88
6, 20039, Note_off_c, 2, 50, 0
6, 20040, Note_on_c, 2, 51, 88
6, 20062, Note_off_c, 2, 51, 0
6, 20063, Note_on_c, 2, 50, 88
6, 20084, Note_off_c, 2, 50, 0
6, 20085, Note_on_c, 2, 51, 88
6, 20107, Note_off_c, 2, 51, 0
6, 20108, Note_on_c, 2, 50, 88
6, 20122, Note_off_c, 2, 50, 0
6, 20123, Note_on_c, 2, 48, 88
6, 20137, Note_off_c, 2, 48, 0
6, 20138, Note_on_c, 2, 50, 88
6, 20159, Note_off_c, 2, 50, 0
6, 20160, Note_on_c, 2, 48, 88
6, 20394, Note_off_c, 2, 48, 0
6, 20520, Note_on_c, 2, 72, 88
6, 20578, Note_off_c, 2, 72, 0
6, 20580, Note_on_c, 2, 70, 88
6, 20638, Note_off_c, 2, 70, 0
6, 20640, Note_on_c, 2, 69, 88
6, 20753, Note_off_c, 2, 69, 0
6, 20760, Note_on_c, 2, 69, 88
6, 20818, Note_off_c, 2, 69, 0
6, 20820, Note_on_c, 2, 67, 88
6, 20878, Note_off_c, 2, 67, 0
6, 20880, Note_on_c, 2, 65, 88
6, 20996, Note_off_c, 2, 65, 0
6, 21000, Note_on_c, 2, 67, 88
6, 21058, Note_off_c, 2, 67, 0
6, 21060, Note_on_c, 2, 69, 88
6, 21118, Note_off_c, 2, 69, 0
6, 21120, Note_on_c, 2, 70, 88
6, 21236, Note_off_c, 2, 70, 0
6, 21240, Note_on_c, 2, 58, 88
6, 21356, Note_off_c, 2, 58, 0
6, 21480, Note_on_c, 2, 70, 88
6, 21538, Note_off_c, 2, 70, 0
6, 21540, Note_on_c, 2, 68, 88
6, 21598, Note_off_c, 2, 68, 0
6, 21600, Note_on_c, 2, 67, 88
6, 21713, Note_off_c, 2, 67, 0
6, 21720, Note_on_c, 2, 67, 88
6, 21778, Note_off_c, 2, 67, 0
6, 21780, Note_on_c, 2, 65, 88
6, 21838, Note_off_c, 2, 65, 0
6, 21840, Note_on_c, 2, 63, 88
6, 21956, Note_off_c, 2, 63, 0
6, 21960, Note_on_c, 2, 65, 88
6, 22018, Note_off_c, 2, 65, 0
6, 22020, Note_on_c, 2, 67, 88
6, 22078, Note_off_c, 2, 67, 0
6, 22080, Note_on_c, 2, 68, 88
6, 22196, Note_off_c, 2, 68, 0
6, 22200, Note_on_c, 2, 56, 88
6, 22316, Note_off_c, 2, 56, 0
6, 22440, Note_on_c, 2, 68, 88
6, 22498, Note_off_c, 2, 68, 0
6, 22500, Note_on_c, 2, 67, 88
6, 22558, Note_off_c, 2, 67, 0
6, 22560, Note_on_c, 2, 65, 88
6, 22673, Note_off_c, 2, 65, 0
6, 22680, Note_on_c, 2, 65, 88
6, 22738, Note_off_c, 2, 65, 0
6, 22740, Note_on_c, 2, 63, 88
6, 22798, Note_off_c, 2, 63, 0
6, 22800, Note_on_c, 2, 61, 88
6, 22913, Note_off_c, 2, 61, 0
6, 22920, Note_on_c, 2, 61, 88
6, 22978, Note_off_c, 2, 61, 0
6, 22980, Note_on_c, 2, 60, 88
6, 23038, Note_off_c, 2, 60, 0
6, 23040, Note_on_c, 2, 58, 88
6, 23156, Note_off_c, 2, 58, 0
6, 23160, Note_on_c, 2, 60, 88
6, 23218, Note_off_c, 2, 60, 0
6, 23220, Note_on_c, 2, 61, 88
6, 23278, Note_off_c, 2, 61, 0
6, 23280, Note_on_c, 2, 63, 88
6, 23396, Note_off_c, 2, 63, 0
6, 23400, Note_on_c, 2, 51, 88
6, 23516, Note_off_c, 2, 51, 0
6, 23520, Note_on_c, 2, 56, 88
6, 23636, Note_off_c, 2, 56, 0
6, 23640, Note_on_c, 2, 58, 88
6, 23698, Note_off_c, 2, 58, 0
6, 23700, Note_on_c, 2, 60, 88
6, 23758, Note_off_c, 2, 60, 0
6, 23760, Note_on_c, 2, 61, 88
6, 24113, Note_off_c, 2, 61, 0
6, 24120, Note_on_c, 2, 61, 88
6, 24178, Note_off_c, 2, 61, 0
6, 24180, Note_on_c, 2, 60, 88
6, 24238, Note_off_c, 2, 60, 0
6, 24240, Note_on_c, 2, 58, 88
6, 24353, Note_off_c, 2, 58, 0
6, 24360, Note_on_c, 2, 58, 88
6, 24418, Note_off_c, 2, 58, 0
6, 24420, Note_on_c, 2, 56, 88
6, 24478, Note_off_c, 2, 56, 0
6, 24480, Note_on_c, 2, 55, 88
6, 24593, Note_off_c, 2, 55, 0
6, 24600, Note_on_c, 2, 55, 88
6, 24658, Note_off_c, 2, 55, 0
6, 24660, Note_on_c, 2, 53, 88
6, 24718, Note_off_c, 2, 53, 0
6, 24720, Note_on_c, 2, 52, 88
6, 24836, Note_off_c, 2, 52, 0
6, 24840, Note_on_c, 2, 48, 88
6, 24956, Note_off_c, 2, 48, 0
6, 24960, Note_on_c, 2, 53, 88
6, 25076, Note_off_c, 2, 53, 0
6, 25080, Note_on_c, 2, 65, 88
6, 25138, Note_off_c, 2, 65, 0
6, 25140, Note_on_c, 2, 63, 88
6, 25193, Note_off_c, 2, 63, 0
6, 25200, Note_on_c, 2, 63, 88
6, 25222, Note_off_c, 2, 63, 0
6, 25223, Note_on_c, 2, 61, 88
6, 25252, Note_off_c, 2, 61, 0
6, 25253, Note_on_c, 2, 63, 88
6, 25274, Note_off_c, 2, 63, 0
6, 25275, Note_on_c, 2, 61, 88
6, 25297, Note_off_c, 2, 61, 0
6, 25298, Note_on_c, 2, 63, 88
6, 25319, Note_off_c, 2, 63, 0
6, 25320, Note_on_c, 2, 61, 88
6, 25436, Note_off_c, 2, 61, 0
6, 25440, Note_on_c, 2, 60, 88
6, 25556, Note_off_c, 2, 60, 0
6, 25560, Note_on_c, 2, 48, 88
6, 25618, Note_off_c, 2, 48, 0
6, 25620, Note_on_c, 2, 50, 88
6, 25678, Note_off_c, 2, 50, 0
6, 25680, Note_on_c, 2, 52, 88
6, 25796, Note_off_c, 2, 52, 0
6, 25800, Note_on_c, 2, 50, 88
6, 25858, Note_off_c, 2, 50, 0
6, 25860, Note_on_c, 2, 52, 88
6, 25918, Note_off_c, 2, 52, 0
6, 25920, Note_on_c, 2, 53, 88
6, 25978, Note_off_c, 2, 53, 0
6, 25980, Note_on_c, 2, 52, 88
6, 26038, Note_off_c, 2, 52, 0
6, 26040, Note_on_c, 2, 53, 88
6, 26098, Note_off_c, 2, 53, 0
6, 26100, Note_on_c, 2, 55, 88
6, 26158, Note_off_c, 2, 55, 0
6, 26160, Note_on_c, 2, 56, 88
6, 26394, Note_off_c, 2, 56, 0
6, 26460, Note_on_c, 2, 53, 88
6, 26518, Note_off_c, 2, 53, 0
6, 26520, Note_on_c, 2, 55, 88
6, 26578, Note_off_c, 2, 55, 0
6, 26580, Note_on_c, 2, 56, 88
6, 26638, Note_off_c, 2, 56, 0
6, 26640, Note_on_c, 2, 58, 88
6, 26874, Note_off_c, 2, 58, 0
6, 26940, Note_on_c, 2, 56, 88
6, 26998, Note_off_c, 2, 56, 0
6, 27000, Note_on_c, 2, 58, 88
6, 27058, Note_off_c, 2, 58, 0
6, 27060, Note_on_c, 2, 60, 88
6, 27118, Note_off_c, 2, 60, 0
6, 27120, Note_on_c, 2, 61, 88
6, 27354, Note_off_c, 2, 61, 0
6, 27420, Note_on_c, 2, 60, 88
6, 27478, Note_off_c, 2, 60, 0
6, 27480, Note_on_c, 2, 62, 88
6, 27538, Note_off_c, 2, 62, 0
6, 27540, Note_on_c, 2, 64, 88
6, 27598, Note_off_c, 2, 64, 0
6, 27600, Note_on_c, 2, 65, 88
6, 27956, Note_off_c, 2, 65, 0
6, 27960, Note_on_c, 2, 64, 88
6, 28018, Note_off_c, 2, 64, 0
6, 28020, Note_on_c, 2, 62, 88
6, 28078, Note_off_c, 2, 62, 0
6, 28080, Note_on_c, 2, 64, 88
6, 28314, Note_off_c, 2, 64, 0
6, 28320, Note_on_c, 2, 65, 88
6, 28554, Note_off_c, 2, 65, 0
6, 28680, Note_on_c, 2, 60, 88
6, 28738, Note_off_c, 2, 60, 0
6, 28740, Note_on_c, 2, 61, 88
6, 28798, Note_off_c, 2, 61, 0
6, 28800, Note_on_c, 2, 63, 88
6, 28913, Note_off_c, 2, 63, 0
6, 28920, Note_on_c, 2, 63, 88
6, 28978, Note_off_c, 2, 63, 0
6, 28980, Note_on_c, 2, 65, 88
6, 29038, Note_off_c, 2, 65, 0
6, 29040, Note_on_c, 2, 66, 88
6, 29393, Note_off_c, 2, 66, 0
6, 29400, Note_on_c, 2, 65, 88
6, 29458, Note_off_c, 2, 65, 0
6, 29460, Note_on_c, 2, 63, 88
6, 29518, Note_off_c, 2, 63, 0
6, 29520, Note_on_c, 2, 61, 88
6, 29636, Note_off_c, 2, 61, 0
6, 29640, Note_on_c, 2, 56, 88
6, 29698, Note_off_c, 2, 56, 0
6, 29700, Note_on_c, 2, 58, 88
6, 29758, Note_off_c, 2, 58, 0
6, 29760, Note_on_c, 2, 60, 88
6, 29873, Note_off_c, 2, 60, 0
6, 29880, Note_on_c, 2, 60, 88
6, 29938, Note_off_c, 2, 60, 0
6, 29940, Note_on_c, 2, 61, 88
6, 29998, Note_off_c, 2, 61, 0
6, 30000, Note_on_c, 2, 63, 88
6, 30353, Note_off_c, 2, 63, 0
6, 30360, Note_on_c, 2, 61, 88
6, 30418, Note_off_c, 2, 61, 0
6, 30420, Note_on_c, 2, 60, 88
6, 30478, Note_off_c, 2, 60, 0
6, 30480, Note_on_c, 2, 58, 88
6, 30596, Note_off_c, 2, 58, 0
6, 30600, Note_on_c, 2, 53, 88
6, 30658, Note_off_c, 2, 53, 0
6, 30660, Note_on_c, 2, 55, 88
6, 30718, Note_off_c, 2, 55, 0
6, 30720, Note_on_c, 2, 56, 88
6, 30833, Note_off_c, 2, 56, 0
6, 30840, Note_on_c, 2, 56, 88
6, 30898, Note_off_c, 2, 56, 0
6, 30900, Note_on_c, 2, 58, 88
6, 30958, Note_off_c, 2, 58, 0
6, 30960, Note_on_c, 2, 60, 88
6, 31313, Note_off_c, 2, 60, 0
6, 31320, Note_on_c, 2, 58, 88
6, 31378, Note_off_c, 2, 58, 0
6, 31380, Note_on_c, 2, 60, 88
6, 31438, Note_off_c, 2, 60, 0
6, 31440, Note_on_c, 2, 61, 88
6, 31796, Note_off_c, 2, 61, 0
6, 31800, Note_on_c, 2, 63, 88
6, 31858, Note_off_c, 2, 63, 0
6, 31860, Note_on_c, 2, 61, 88
6, 31918, Note_off_c, 2, 61, 0
6, 31920, Note_on_c, 2, 60, 88
6, 32036, Note_off_c, 2, 60, 0
6, 32040, Note_on_c, 2, 61, 88
6, 32098, Note_off_c, 2, 61, 0
6, 32100, Note_on_c, 2, 60, 88
6, 32158, Note_off_c, 2, 60, 0
6, 32160, Note_on_c, 2, 58, 88
6, 32513, Note_off_c, 2, 58, 0
6, 32520, Note_on_c, 2, 56, 88
6, 32578, Note_off_c, 2, 56, 0
6, 32580, Note_on_c, 2, 55, 88
6, 32638, Note_off_c, 2, 55, 0
6, 32640, Note_on_c, 2, 56, 88
6, 32756, Note_off_c, 2, 56, 0
6, 32760, Note_on_c, 2, 55, 88
6, 32818, Note_off_c, 2, 55, 0
6, 32820, Note_on_c, 2, 56, 88
6, 32878, Note_off_c, 2, 56, 0
6, 32880, Note_on_c, 2, 58, 88
6, 32938, Note_off_c, 2, 58, 0
6, 32940, Note_on_c, 2, 56, 88
6, 32998, Note_off_c, 2, 56, 0
6, 33000, Note_on_c, 2, 55, 88
6, 33058, Note_off_c, 2, 55, 0
6, 33060, Note_on_c, 2, 53, 88
6, 33118, Note_off_c, 2, 53, 0
6, 33120, Note_on_c, 2, 51, 88
6, 33236, Note_off_c, 2, 51, 0
6, 33240, Note_on_c, 2, 56, 88
6, 33415, Note_off_c, 2, 56, 0
6, 33420, Note_on_c, 2, 55, 88
6, 33478, Note_off_c, 2, 55, 0
6, 33480, Note_on_c, 2, 56, 88
6, 33538, Note_off_c, 2, 56, 0
6, 33540, Note_on_c, 2, 58, 88
6, 33598, Note_off_c, 2, 58, 0
6, 33600, Note_on_c, 2, 60, 88
6, 33834, Note_off_c, 2, 60, 0
6, 33900, Note_on_c, 2, 53, 88
6, 33958, Note_off_c, 2, 53, 0
6, 33960, Note_on_c, 2, 55, 88
6, 34018, Note_off_c, 2, 55, 0
6, 34020, Note_on_c, 2, 56, 88
6, 34078, Note_off_c, 2, 56, 0
6, 34080, Note_on_c, 2, 51, 88
6, 34314, Note_off_c, 2, 51, 0
6, 34380, Note_on_c, 2, 55, 88
6, 34438, Note_off_c, 2, 55, 0
6, 34440, Note_on_c, 2, 53, 88
6, 34498, Note_off_c, 2, 53, 0
6, 34500, Note_on_c, 2, 52, 88
6, 34558, Note_off_c, 2, 52, 0
6, 34560, Note_on_c, 2, 53, 88
6, 34794, Note_off_c, 2, 53, 0
6, 38160, Note_on_c, 2, 58, 88
6, 38394, Note_off_c, 2, 58, 0
6, 38400, Note_on_c, 2, 60, 88
6, 38634, Note_off_c, 2, 60, 0
6, 38640, Note_on_c, 2, 58, 88
6, 38874, Note_off_c, 2, 58, 0
6, 38880, Note_on_c, 2, 57, 88
6, 39114, Note_off_c, 2, 57, 0
6, 39120, Note_on_c, 2, 62, 88
6, 39354, Note_off_c, 2, 62, 0
6, 39360, Note_on_c, 2, 63, 88
6, 39594, Note_off_c, 2, 63, 0
6, 39600, Note_on_c, 2, 56, 88
6, 39834, Note_off_c, 2, 56, 0
6, 39840, Note_on_c, 2, 55, 88
6, 40074, Note_off_c, 2, 55, 0
6, 40080, Note_on_c, 2, 54, 88
6, 40314, Note_off_c, 2, 54, 0
6, 40320, Note_on_c, 2, 54, 88
6, 40342, Note_off_c, 2, 54, 0
6, 40343, Note_on_c, 2, 53, 88
6, 40372, Note_off_c, 2, 53, 0
6, 40373, Note_on_c, 2, 54, 88
6, 40402, Note_off_c, 2, 54, 0
6, 40403, Note_on_c, 2, 53, 88
6, 40424, Note_off_c, 2, 53, 0
6, 40425, Note_on_c, 2, 54, 88
6, 40447, Note_off_c, 2, 54, 0
6, 40448, Note_on_c, 2, 53, 88
6, 40469, Note_off_c, 2, 53, 0
6, 40470, Note_on_c, 2, 54, 88
6, 40492, Note_off_c, 2, 54, 0
6, 40493, Note_on_c, 2, 53, 88
6, 40514, Note_off_c, 2, 53, 0
6, 40515, Note_on_c, 2, 54, 88
6, 40537, Note_off_c, 2, 54, 0
6, 40538, Note_on_c, 2, 53, 88
6, 40795, Note_off_c, 2, 53, 0
6, 40800, Note_on_c, 2, 51, 88
6, 41034, Note_off_c, 2, 51, 0
6, 41400, Note_on_c, 2, 58, 88
6, 41458, Note_off_c, 2, 58, 0
6, 41460, Note_on_c, 2, 60, 88
6, 41518, Note_off_c, 2, 60, 0
6, 41520, Note_on_c, 2, 62, 88
6, 41578, Note_off_c, 2, 62, 0
6, 41580, Note_on_c, 2, 60, 88
6, 41638, Note_off_c, 2, 60, 0
6, 41640, Note_on_c, 2, 58, 88
6, 41698, Note_off_c, 2, 58, 0
6, 41700, Note_on_c, 2, 56, 88
6, 41758, Note_off_c, 2, 56, 0
6, 41760, Note_on_c, 2, 55, 88
6, 41994, Note_off_c, 2, 55, 0
6, 42360, Note_on_c, 2, 55, 88
6, 42418, Note_off_c, 2, 55, 0
6, 42420, Note_on_c, 2, 56, 88
6, 42478, Note_off_c, 2, 56, 0
6, 42480, Note_on_c, 2, 58, 88
6, 42538, Note_off_c, 2, 58, 0
6, 42540, Note_on_c, 2, 56, 88
6, 42598, Note_off_c, 2, 56, 0
6, 42600, Note_on_c, 2, 55, 88
6, 42658, Note_off_c, 2, 55, 0
6, 42660, Note_on_c, 2, 53, 88
6, 42718, Note_off_c, 2, 53, 0
6, 42720, Note_on_c, 2, 51, 88
6, 42954, Note_off_c, 2, 51, 0
6, 43320, Note_on_c, 2, 51, 88
6, 43378, Note_off_c, 2, 51, 0
6, 43380, Note_on_c, 2, 53, 88
6, 43438, Note_off_c, 2, 53, 0
6, 43440, Note_on_c, 2, 55, 88
6, 43498, Note_off_c, 2, 55, 0
6, 43500, Note_on_c, 2, 53, 88
6, 43558, Note_off_c, 2, 53, 0
6, 43560, Note_on_c, 2, 51, 88
6, 43618, Note_off_c, 2, 51, 0
6, 43620, Note_on_c, 2, 50, 88
6, 43678, Note_off_c, 2, 50, 0
6, 43680, Note_on_c, 2, 48, 88
6, 43796, Note_off_c, 2, 48, 0
6, 43800, Note_on_c, 2, 47, 88
6, 43916, Note_off_c, 2, 47, 0
6, 43920, Note_on_c, 2, 48, 88
6, 44154, Note_off_c, 2, 48, 0
6, 44160, Note_on_c, 2, 50, 88
6, 44276, Note_off_c, 2, 50, 0
6, 44760, Note_on_c, 2, 72, 88
6, 44994, Note_off_c, 2, 72, 0
6, 45000, Note_on_c, 2, 70, 88
6, 45116, Note_off_c, 2, 70, 0
6, 45120, Note_on_c, 2, 69, 88
6, 45236, Note_off_c, 2, 69, 0
6, 45240, Note_on_c, 2, 70, 88
6, 45298, Note_off_c, 2, 70, 0
6, 45300, Note_on_c, 2, 72, 88
6, 45358, Note_off_c, 2, 72, 0
6, 45360, Note_on_c, 2, 74, 88
6, 45418, Note_off_c, 2, 74, 0
6, 45420, Note_on_c, 2, 72, 88
6, 45478, Note_off_c, 2, 72, 0
6, 45480, Note_on_c, 2, 71, 88
6, 45538, Note_off_c, 2, 71, 0
6, 45540, Note_on_c, 2, 69, 88
6, 45598, Note_off_c, 2, 69, 0
6, 45600, Note_on_c, 2, 67, 88
6, 45834, Note_off_c, 2, 67, 0
6, 45900, Note_on_c, 2, 55, 88
6, 45958, Note_off_c, 2, 55, 0
6, 45960, Note_on_c, 2, 56, 88
6, 46018, Note_off_c, 2, 56, 0
6, 46020, Note_on_c, 2, 58, 88
6, 46078, Note_off_c, 2, 58, 0
6, 46080, Note_on_c, 2, 60, 88
6, 46314, Note_off_c, 2, 60, 0
6, 46380, Note_on_c, 2, 60, 88
6, 46438, Note_off_c, 2, 60, 0
6, 46440, Note_on_c, 2, 62, 88
6, 46498, Note_off_c, 2, 62, 0
6, 46500, Note_on_c, 2, 63, 88
6, 46558, Note_off_c, 2, 63, 0
6, 46560, Note_on_c, 2, 65, 88
6, 46618, Note_off_c, 2, 65, 0
6, 46620, Note_on_c, 2, 62, 88
6, 46678, Note_off_c, 2, 62, 0
6, 46680, Note_on_c, 2, 63, 88
6, 46738, Note_off_c, 2, 63, 0
6, 46740, Note_on_c, 2, 65, 88
6, 46798, Note_off_c, 2, 65, 0
6, 46800, Note_on_c, 2, 67, 88
6, 46858, Note_off_c, 2, 67, 0
6, 46860, Note_on_c, 2, 68, 88
6, 46918, Note_off_c, 2, 68, 0
6, 46920, Note_on_c, 2, 67, 88
6, 46978, Note_off_c, 2, 67, 0
6, 46980, Note_on_c, 2, 65, 88
6, 47038, Note_off_c, 2, 65, 0
6, 47040, Note_on_c, 2, 63, 88
6, 47098, Note_off_c, 2, 63, 0
6, 47100, Note_on_c, 2, 65, 88
6, 47158, Note_off_c, 2, 65, 0
6, 47160, Note_on_c, 2, 63, 88
6, 47218, Note_off_c, 2, 63, 0
6, 47220, Note_on_c, 2, 62, 88
6, 47278, Note_off_c, 2, 62, 0
6, 47280, Note_on_c, 2, 60, 88
6, 47393, Note_off_c, 2, 60, 0
6, 47400, Note_on_c, 2, 60, 88
6, 47458, Note_off_c, 2, 60, 0
6, 47460, Note_on_c, 2, 58, 88
6, 47518, Note_off_c, 2, 58, 0
6, 47520, Note_on_c, 2, 57, 88
6, 47633, Note_off_c, 2, 57, 0
6, 47640, Note_on_c, 2, 57, 88
6, 47698, Note_off_c, 2, 57, 0
6, 47700, Note_on_c, 2, 55, 88
6, 47758, Note_off_c, 2, 55, 0
6, 47760, Note_on_c, 2, 53, 88
6, 47876, Note_off_c, 2, 53, 0
6, 47880, Note_on_c, 2, 55, 88
6, 47938, Note_off_c, 2, 55, 0
6, 47940, Note_on_c, 2, 57, 88
6, 47998, Note_off_c, 2, 57, 0
6, 48000, Note_on_c, 2, 58, 88
6, 48116, Note_off_c, 2, 58, 0
6, 48120, Note_on_c, 2, 65, 88
6, 48178, Note_off_c, 2, 65, 0
6, 48180, Note_on_c, 2, 63, 88
6, 48238, Note_off_c, 2, 63, 0
6, 48240, Note_on_c, 2, 62, 88
6, 48353, Note_off_c, 2, 62, 0
6, 48360, Note_on_c, 2, 62, 88
6, 48418, Note_off_c, 2, 62, 0
6, 48420, Note_on_c, 2, 60, 88
6, 48478, Note_off_c, 2, 60, 0
6, 48480, Note_on_c, 2, 59, 88
6, 48593, Note_off_c, 2, 59, 0
6, 48600, Note_on_c, 2, 59, 88
6, 48658, Note_off_c, 2, 59, 0
6, 48660, Note_on_c, 2, 57, 88
6, 48718, Note_off_c, 2, 57, 0
6, 48720, Note_on_c, 2, 55, 88
6, 48836, Note_off_c, 2, 55, 0
6, 48840, Note_on_c, 2, 57, 88
6, 48898, Note_off_c, 2, 57, 0
6, 48900, Note_on_c, 2, 59, 88
6, 48958, Note_off_c, 2, 59, 0
6, 48960, Note_on_c, 2, 60, 88
6, 49076, Note_off_c, 2, 60, 0
6, 49080, Note_on_c, 2, 58, 88
6, 49138, Note_off_c, 2, 58, 0
6, 49140, Note_on_c, 2, 56, 88
6, 49198, Note_off_c, 2, 56, 0
6, 49200, Note_on_c, 2, 55, 88
6, 49313, Note_off_c, 2, 55, 0
6, 49320, Note_on_c, 2, 55, 88
6, 49378, Note_off_c, 2, 55, 0
6, 49380, Note_on_c, 2, 53, 88
6, 49438, Note_off_c, 2, 53, 0
6, 49440, Note_on_c, 2, 52, 88
6, 49553, Note_off_c, 2, 52, 0
6, 49560, Note_on_c, 2, 52, 88
6, 49618, Note_off_c, 2, 52, 0
6, 49620, Note_on_c, 2, 50, 88
6, 49678, Note_off_c, 2, 50, 0
6, 49680, Note_on_c, 2, 48, 88
6, 49796, Note_off_c, 2, 48, 0
6, 49800, Note_on_c, 2, 50, 88
6, 49858, Note_off_c, 2, 50, 0
6, 49860, Note_on_c, 2, 52, 88
6, 49918, Note_off_c, 2, 52, 0
6, 49920, Note_on_c, 2, 53, 88
6, 49978, Note_off_c, 2, 53, 0
6, 49980, Note_on_c, 2, 55, 88
6, 50038, Note_off_c, 2, 55, 0
6, 50040, Note_on_c, 2, 56, 88
6, 50098, Note_off_c, 2, 56, 0
6, 50100, Note_on_c, 2, 58, 88
6, 50158, Note_off_c, 2, 58, 0
6, 50160, Note_on_c, 2, 60, 88
6, 50513, Note_off_c, 2, 60, 0
6, 50520, Note_on_c, 2, 58, 88
6, 50636, Note_off_c, 2, 58, 0
6, 50760, Note_on_c, 2, 56, 88
6, 50996, Note_off_c, 2, 56, 0
6, 51000, Note_on_c, 2, 55, 88
6, 51058, Note_off_c, 2, 55, 0
6, 51060, Note_on_c, 2, 53, 88
6, 51118, Note_off_c, 2, 53, 0
6, 51120, Note_on_c, 2, 55, 88
6, 51178, Note_off_c, 2, 55, 0
6, 51180, Note_on_c, 2, 58, 88
6, 51238, Note_off_c, 2, 58, 0
6, 51240, Note_on_c, 2, 56, 88
6, 51298, Note_off_c, 2, 56, 0
6, 51300, Note_on_c, 2, 55, 88
6, 51358, Note_off_c, 2, 55, 0
6, 51360, Note_on_c, 2, 53, 88
6, 51476, Note_off_c, 2, 53, 0
6, 51480, Note_on_c, 2, 55, 88
6, 51538, Note_off_c, 2, 55, 0
6, 51540, Note_on_c, 2, 56, 88
6, 51598, Note_off_c, 2, 56, 0
6, 51600, Note_on_c, 2, 58, 88
6, 51658, Note_off_c, 2, 58, 0
6, 51660, Note_on_c, 2, 53, 88
6, 51718, Note_off_c, 2, 53, 0
6, 51720, Note_on_c, 2, 51, 88
6, 51778, Note_off_c, 2, 51, 0
6, 51780, Note_on_c, 2, 49, 88
6, 51838, Note_off_c, 2, 49, 0
6, 51840, Note_on_c, 2, 48, 88
6, 52134, Note_off_c, 2, 48, 0
6, 52140, Note_on_c, 2, 50, 88
6, 52198, Note_off_c, 2, 50, 0
6, 52200, Note_on_c, 2, 52, 88
6, 52258, Note_off_c, 2, 52, 0
6, 52260, Note_on_c, 2, 53, 88
6, 52318, Note_off_c, 2, 53, 0
6, 52320, Note_on_c, 2, 55, 88
6, 52614, Note_off_c, 2, 55, 0
6, 52620, Note_on_c, 2, 45, 88
6, 52678, Note_off_c, 2, 45, 0
6, 52680, Note_on_c, 2, 46, 88
6, 52738, Note_off_c, 2, 46, 0
6, 52740, Note_on_c, 2, 48, 88
6, 52798, Note_off_c, 2, 48, 0
6, 52800, Note_on_c, 2, 49, 88
6, 52858, Note_off_c, 2, 49, 0
6, 52860, Note_on_c, 2, 48, 88
6, 52918, Note_off_c, 2, 48, 0
6, 52920, Note_on_c, 2, 49, 88
6, 52978, Note_off_c, 2, 49, 0
6, 52980, Note_on_c, 2, 51, 88
6, 53038, Note_off_c, 2, 51, 0
6, 53040, Note_on_c, 2, 53, 88
6, 53333, Note_off_c, 2, 53, 0
6, 53340, Note_on_c, 2, 53, 88
6, 53398, Note_off_c, 2, 53, 0
6, 53400, Note_on_c, 2, 55, 88
6, 53458, Note_off_c, 2, 55, 0
6, 53460, Note_on_c, 2, 56, 88
6, 53518, Note_off_c, 2, 56, 0
6, 53520, Note_on_c, 2, 58, 88
6, 53813, Note_off_c, 2, 58, 0
6, 53820, Note_on_c, 2, 58, 88
6, 53878, Note_off_c, 2, 58, 0
6, 53880, Note_on_c, 2, 56, 88
6, 53938, Note_off_c, 2, 56, 0
6, 53940, Note_on_c, 2, 55, 88
6, 53998, Note_off_c, 2, 55, 0
6, 54000, Note_on_c, 2, 56, 88
6, 54233, Note_off_c, 2, 56, 0
6, 54240, Note_on_c, 2, 56, 88
6, 54262, Note_off_c, 2, 56, 0
6, 54263, Note_on_c, 2, 55, 88
6, 54292, Note_off_c, 2, 55, 0
6, 54293, Note_on_c, 2, 56, 88
6, 54314, Note_off_c, 2, 56, 0
6, 54315, Note_on_c, 2, 55, 88
6, 54337, Note_off_c, 2, 55, 0
6, 54338, Note_on_c, 2, 53, 88
6, 54359, Note_off_c, 2, 53, 0
6, 54360, Note_on_c, 2, 55, 88
6, 54713, Note_off_c, 2, 55, 0
6, 54720, Note_on_c, 2, 57, 88
6, 55665, Note_off_c, 2, 57, 0
6, 55665, End_track
7, 0, Start_track
7, 0, Title_t, "Track 4"
7, 0, Program_c, 3, 6
7, 6000, Note_on_c, 3, 48, 88
7, 6234, Note_off_c, 3, 48, 0
7, 6240, Note_on_c, 3, 49, 88
7, 6474, Note_off_c, 3, 49, 0
7, 6480, Note_on_c, 3, 48, 88
7, 6714, Note_off_c, 3, 48, 0
7, 6720, Note_on_c, 3, 47, 88
7, 6954, Note_off_c, 3, 47, 0
7, 6960, Note_on_c, 3, 52, 88
7, 7194, Note_off_c, 3, 52, 0
7, 7200, Note_on_c, 3, 53, 88
7, 7434, Note_off_c, 3, 53, 0
7, 7440, Note_on_c, 3, 46, 88
7, 7674, Note_off_c, 3, 46, 0
7, 7680, Note_on_c, 3, 45, 88
7, 7914, Note_off_c, 3, 45, 0
7, 7920, Note_on_c, 3, 44, 88
7, 8153, Note_off_c, 3, 44, 0
7, 8160, Note_on_c, 3, 44, 88
7, 8182, Note_off_c, 3, 44, 0
7, 8183, Note_on_c, 3, 43, 88
7, 8212, Note_off_c, 3, 43, 0
7, 8213, Note_on_c, 3, 44, 88
7, 8242, Note_off_c, 3, 44, 0
7, 8243, Note_on_c, 3, 43, 88
7, 8272, Note_off_c, 3, 43, 0
7, 8273, Note_on_c, 3, 44, 88
7, 8302, Note_off_c, 3, 44, 0
7, 8303, Note_on_c, 3, 43, 88
7, 8324, Note_off_c, 3, 43, 0
7, 8325, Note_on_c, 3, 44, 88
7, 8347, Note_off_c, 3, 44, 0
7, 8348, Note_on_c, 3, 43, 88
7, 8369, Note_off_c, 3, 43, 0
7, 8370, Note_on_c, 3, 44, 88
7, 8392, Note_off_c, 3, 44, 0
7, 8393, Note_on_c, 3, 43, 88
7, 8414, Note_off_c, 3, 43, 0
7, 8415, Note_on_c, 3, 44, 88
7, 8437, Note_off_c, 3, 44, 0
7, 8438, Note_on_c, 3, 43, 88
7, 8459, Note_off_c, 3, 43, 0
7, 8460, Note_on_c, 3, 44, 88
7, 8482, Note_off_c, 3, 44, 0
7, 8483, Note_on_c, 3, 43, 88
7, 8504, Note_off_c, 3, 43, 0
7, 8505, Note_on_c, 3, 44, 88
7, 8527, Note_off_c, 3, 44, 0
7, 8528, Note_on_c, 3, 43, 88
7, 8549, Note_off_c, 3, 43, 0
7, 8550, Note_on_c, 3, 44, 88
7, 8572, Note_off_c, 3, 44, 0
7, 8573, Note_on_c, 3, 43, 88
7, 8594, Note_off_c, 3, 43, 0
7, 8595, Note_on_c, 3, 41, 88
7, 8617, Note_off_c, 3, 41, 0
7, 8618, Note_on_c, 3, 43, 88
7, 8639, Note_off_c, 3, 43, 0
7, 8640, Note_on_c, 3, 41, 88
7, 8874, Note_off_c, 3, 41, 0
7, 9000, Note_on_c, 3, 53, 88
7, 9058, Note_off_c, 3, 53, 0
7, 9060, Note_on_c, 3, 55, 88
7, 9118, Note_off_c, 3, 55, 0
7, 9120, Note_on_c, 3, 56, 88
7, 9233, Note_off_c, 3, 56, 0
7, 9240, Note_on_c, 3, 56, 88
7, 9298, Note_off_c, 3, 56, 0
7, 9300, Note_on_c, 3, 58, 88
7, 9358, Note_off_c, 3, 58, 0
7, 9360, Note_on_c, 3, 60, 88
7, 9476, Note_off_c, 3, 60, 0
7, 9480, Note_on_c, 3, 48, 88
7, 9596, Note_off_c, 3, 48, 0
7, 9600, Note_on_c, 3, 49, 88
7, 9834, Note_off_c, 3, 49, 0
7, 9960, Note_on_c, 3, 49, 88
7, 10018, Note_off_c, 3, 49, 0
7, 10020, Note_on_c, 3, 51, 88
7, 10078, Note_off_c, 3, 51, 0
7, 10080, Note_on_c, 3, 53, 88
7, 10193, Note_off_c, 3, 53, 0
7, 10200, Note_on_c, 3, 53, 88
7, 10258, Note_off_c, 3, 53, 0
7, 10260, Note_on_c, 3, 55, 88
7, 10318, Note_off_c, 3, 55, 0
7, 10320, Note_on_c, 3, 56, 88
7, 10436, Note_off_c, 3, 56, 0
7, 10440, Note_on_c, 3, 44, 88
7, 10556, Note_off_c, 3, 44, 0
7, 10560, Note_on_c, 3, 46, 88
7, 10794, Note_off_c, 3, 46, 0
7, 10920, Note_on_c, 3, 46, 88
7, 10978, Note_off_c, 3, 46, 0
7, 10980, Note_on_c, 3, 48, 88
7, 11038, Note_off_c, 3, 48, 0
7, 11040, Note_on_c, 3, 49, 88
7, 11153, Note_off_c, 3, 49, 0
7, 11160, Note_on_c, 3, 49, 88
7, 11218, Note_off_c, 3, 49, 0
7, 11220, Note_on_c, 3, 51, 88
7, 11278, Note_off_c, 3, 51, 0
7, 11280, Note_on_c, 3, 53, 88
7, 11396, Note_off_c, 3, 53, 0
7, 11400, Note_on_c, 3, 41, 88
7, 11516, Note_off_c, 3, 41, 0
7, 11520, Note_on_c, 3, 48, 88
7, 11633, Note_off_c, 3, 48, 0
7, 11640, Note_on_c, 3, 48, 88
7, 11698, Note_off_c, 3, 48, 0
7, 11700, Note_on_c, 3, 50, 88
7, 11758, Note_off_c, 3, 50, 0
7, 11760, Note_on_c, 3, 52, 88
7, 11876, Note_off_c, 3, 52, 0
7, 11880, Note_on_c, 3, 50, 88
7, 11938, Note_off_c, 3, 50, 0
7, 11940, Note_on_c, 3, 52, 88
7, 11998, Note_off_c, 3, 52, 0
7, 12000, Note_on_c, 3, 53, 88
7, 12058, Note_off_c, 3, 53, 0
7, 12060, Note_on_c, 3, 40, 88
7, 12118, Note_off_c, 3, 40, 0
7, 12120, Note_on_c, 3, 41, 88
7, 12178, Note_off_c, 3, 41, 0
7, 12180, Note_on_c, 3, 43, 88
7, 12238, Note_off_c, 3, 43, 0
7, 12240, Note_on_c, 3, 44, 88
7, 12474, Note_off_c, 3, 44, 0
7, 12540, Note_on_c, 3, 41, 88
7, 12598, Note_off_c, 3, 41, 0
7, 12600, Note_on_c, 3, 43, 88
7, 12658, Note_off_c, 3, 43, 0
7, 12660, Note_on_c, 3, 44, 88
7, 12718, Note_off_c, 3, 44, 0
7, 12720, Note_on_c, 3, 46, 88
7, 12954, Note_off_c, 3, 46, 0
7, 13020, Note_on_c, 3, 44, 88
7, 13078, Note_off_c, 3, 44, 0
7, 13080, Note_on_c, 3, 46, 88
7, 13138, Note_off_c, 3, 46, 0
7, 13140, Note_on_c, 3, 48, 88
7, 13198, Note_off_c, 3, 48, 0
7, 13200, Note_on_c, 3, 49, 88
7, 13434, Note_off_c, 3, 49, 0
7, 13500, Note_on_c, 3, 48, 88
7, 13558, Note_off_c, 3, 48, 0
7, 13560, Note_on_c, 3, 50, 88
7, 13618, Note_off_c, 3, 50, 0
7, 13620, Note_on_c, 3, 52, 88
7, 13678, Note_off_c, 3, 52, 0
7, 13680, Note_on_c, 3, 53, 88
7, 14033, Note_off_c, 3, 53, 0
7, 14040, Note_on_c, 3, 52, 88
7, 14098, Note_off_c, 3, 52, 0
7, 14100, Note_on_c, 3, 50, 88
7, 14158, Note_off_c, 3, 50, 0
7, 14160, Note_on_c, 3, 52, 88
7, 14394, Note_off_c, 3, 52, 0
7, 14400, Note_on_c, 3, 53, 88
7, 14634, Note_off_c, 3, 53, 0
7, 14760, Note_on_c, 3, 53, 88
7, 14818, Note_off_c, 3, 53, 0
7, 14820, Note_on_c, 3, 51, 88
7, 14878, Note_off_c, 3, 51, 0
7, 14880, Note_on_c, 3, 50, 88
7, 14993, Note_off_c, 3, 50, 0
7, 15000, Note_on_c, 3, 50, 88
7, 15058, Note_off_c, 3, 50, 0
7, 15060, Note_on_c, 3, 48, 88
7, 15118, Note_off_c, 3, 48, 0
7, 15120, Note_on_c, 3, 46, 88
7, 15236, Note_off_c, 3, 46, 0
7, 15240, Note_on_c, 3, 48, 88
7, 15298, Note_off_c, 3, 48, 0
7, 15300, Note_on_c, 3, 50, 88
7, 15358, Note_off_c, 3, 50, 0
7, 15360, Note_on_c, 3, 51, 88
7, 15594, Note_off_c, 3, 51, 0
7, 15720, Note_on_c, 3, 55, 88
7, 15778, Note_off_c, 3, 55, 0
7, 15780, Note_on_c, 3, 53, 88
7, 15838, Note_off_c, 3, 53, 0
7, 15840, Note_on_c, 3, 52, 88
7, 15953, Note_off_c, 3, 52, 0
7, 15960, Note_on_c, 3, 52, 88
7, 16018, Note_off_c, 3, 52, 0
7, 16020, Note_on_c, 3, 50, 88
7, 16078, Note_off_c, 3, 50, 0
7, 16080, Note_on_c, 3, 48, 88
7, 16196, Note_off_c, 3, 48, 0
7, 16200, Note_on_c, 3, 50, 88
7, 16258, Note_off_c, 3, 50, 0
7, 16260, Note_on_c, 3, 52, 88
7, 16318, Note_off_c, 3, 52, 0
7, 16320, Note_on_c, 3, 53, 88
7, 16554, Note_off_c, 3, 53, 0
7, 16680, Note_on_c, 3, 50, 88
7, 16738, Note_off_c, 3, 50, 0
7, 16740, Note_on_c, 3, 48, 88
7, 16798, Note_off_c, 3, 48, 0
7, 16800, Note_on_c, 3, 47, 88
7, 16913, Note_off_c, 3, 47, 0
7, 16920, Note_on_c, 3, 47, 88
7, 16978, Note_off_c, 3, 47, 0
7, 16980, Note_on_c, 3, 45, 88
7, 17038, Note_off_c, 3, 45, 0
7, 17040, Note_on_c, 3, 43, 88
7, 17156, Note_off_c, 3, 43, 0
7, 17160, Note_on_c, 3, 45, 88
7, 17218, Note_off_c, 3, 45, 0
7, 17220, Note_on_c, 3, 47, 88
7, 17278, Note_off_c, 3, 47, 0
7, 17280, Note_on_c, 3, 48, 88
7, 17514, Note_off_c, 3, 48, 0
7, 25680, Note_on_c, 3, 48, 88
7, 25914, Note_off_c, 3, 48, 0
7, 25920, Note_on_c, 3, 49, 88
7, 26154, Note_off_c, 3, 49, 0
7, 26160, Note_on_c, 3, 48, 88
7, 26394, Note_off_c, 3, 48, 0
7, 26400, Note_on_c, 3, 47, 88
7, 26634, Note_off_c, 3, 47, 0
7, 26640, Note_on_c, 3, 52, 88
7, 26874, Note_off_c, 3, 52, 0
7, 26880, Note_on_c, 3, 53, 88
7, 27114, Note_off_c, 3, 53, 0
7, 27120, Note_on_c, 3, 46, 88
7, 27354, Note_off_c, 3, 46, 0
7, 27360, Note_on_c, 3, 45, 88
7, 27594, Note_off_c, 3, 45, 0
7, 27600, Note_on_c, 3, 44, 88
7, 27834, Note_off_c, 3, 44, 0
7, 27840, Note_on_c, 3, 44, 88
7, 27862, Note_off_c, 3, 44, 0
7, 27863, Note_on_c, 3, 43, 88
7, 27892, Note_off_c, 3, 43, 0
7, 27893, Note_on_c, 3, 44, 88
7, 27922, Note_off_c, 3, 44, 0
7, 27923, Note_on_c, 3, 43, 88
7, 27944, Note_off_c, 3, 43, 0
7, 27945, Note_on_c, 3, 44, 88
7, 27967, Note_off_c, 3, 44, 0
7, 27968, Note_on_c, 3, 43, 88
7, 27989, Note_off_c, 3, 43, 0
7, 27990, Note_on_c, 3, 44, 88
7, 28012, Note_off_c, 3, 44, 0
7, 28013, Note_on_c, 3, 43, 88
7, 28034, Note_off_c, 3, 43, 0
7, 28035, Note_on_c, 3, 41, 88
7, 28057, Note_off_c, 3, 41, 0
7, 28058, Note_on_c, 3, 43, 88
7, 28315, Note_off_c, 3, 43, 0
7, 28320, Note_on_c, 3, 41, 88
7, 28436, Note_off_c, 3, 41, 0
7, 28440, Note_on_c, 3, 53, 88
7, 28498, Note_off_c, 3, 53, 0
7, 28500, Note_on_c, 3, 55, 88
7, 28558, Note_off_c, 3, 55, 0
7, 28560, Note_on_c, 3, 56, 88
7, 28673, Note_off_c, 3, 56, 0
7, 28680, Note_on_c, 3, 56, 88
7, 28738, Note_off_c, 3, 56, 0
7, 28740, Note_on_c, 3, 58, 88
7, 28798, Note_off_c, 3, 58, 0
7, 28800, Note_on_c, 3, 60, 88
7, 29094, Note_off_c, 3, 60, 0
7, 29100, Note_on_c, 3, 58, 88
7, 29158, Note_off_c, 3, 58, 0
7, 29160, Note_on_c, 3, 56, 88
7, 29218, Note_off_c, 3, 56, 0
7, 29220, Note_on_c, 3, 54, 88
7, 29278, Note_off_c, 3, 54, 0
7, 29280, Note_on_c, 3, 53, 88
7, 29396, Note_off_c, 3, 53, 0
7, 29400, Note_on_c, 3, 49, 88
7, 29458, Note_off_c, 3, 49, 0
7, 29460, Note_on_c, 3, 51, 88
7, 29518, Note_off_c, 3, 51, 0
7, 29520, Note_on_c, 3, 53, 88
7, 29633, Note_off_c, 3, 53, 0
7, 29640, Note_on_c, 3, 53, 88
7, 29698, Note_off_c, 3, 53, 0
7, 29700, Note_on_c, 3, 55, 88
7, 29758, Note_off_c, 3, 55, 0
7, 29760, Note_on_c, 3, 56, 88
7, 30054, Note_off_c, 3, 56, 0
7, 30060, Note_on_c, 3, 54, 88
7, 30118, Note_off_c, 3, 54, 0
7, 30120, Note_on_c, 3, 53, 88
7, 30178, Note_off_c, 3, 53, 0
7, 30180, Note_on_c, 3, 51, 88
7, 30238, Note_off_c, 3, 51, 0
7, 30240, Note_on_c, 3, 49, 88
7, 30356, Note_off_c, 3, 49, 0
7, 30360, Note_on_c, 3, 46, 88
7, 30418, Note_off_c, 3, 46, 0
7, 30420, Note_on_c, 3, 48, 88
7, 30478, Note_off_c, 3, 48, 0
7, 30480, Note_on_c, 3, 49, 88
7, 30593, Note_off_c, 3, 49, 0
7, 30600, Note_on_c, 3, 49, 88
7, 30658, Note_off_c, 3, 49, 0
7, 30660, Note_on_c, 3, 51, 88
7, 30718, Note_off_c, 3, 51, 0
7, 30720, Note_on_c, 3, 53, 88
7, 31014, Note_off_c, 3, 53, 0
7, 31020, Note_on_c, 3, 51, 88
7, 31078, Note_off_c, 3, 51, 0
7, 31080, Note_on_c, 3, 49, 88
7, 31138, Note_off_c, 3, 49, 0
7, 31140, Note_on_c, 3, 48, 88
7, 31198, Note_off_c, 3, 48, 0
7, 31200, Note_on_c, 3, 46, 88
7, 31258, Note_off_c, 3, 46, 0
7, 31260, Note_on_c, 3, 48, 88
7, 31318, Note_off_c, 3, 48, 0
7, 31320, Note_on_c, 3, 49, 88
7, 31378, Note_off_c, 3, 49, 0
7, 31380, Note_on_c, 3, 48, 88
7, 31438, Note_off_c, 3, 48, 0
7, 31440, Note_on_c, 3, 46, 88
7, 31498, Note_off_c, 3, 46, 0
7, 31500, Note_on_c, 3, 44, 88
7, 31558, Note_off_c, 3, 44, 0
7, 31560, Note_on_c, 3, 43, 88
7, 31618, Note_off_c, 3, 43, 0
7, 31620, Note_on_c, 3, 41, 88
7, 31678, Note_off_c, 3, 41, 0
7, 31680, Note_on_c, 3, 39, 88
7, 31796, Note_off_c, 3, 39, 0
7, 31800, Note_on_c, 3, 46, 88
7, 31916, Note_off_c, 3, 46, 0
7, 31920, Note_on_c, 3, 48, 88
7, 32036, Note_off_c, 3, 48, 0
7, 32040, Note_on_c, 3, 44, 88
7, 32156, Note_off_c, 3, 44, 0
7, 32160, Note_on_c, 3, 49, 88
7, 32276, Note_off_c, 3, 49, 0
7, 32280, Note_on_c, 3, 46, 88
7, 32396, Note_off_c, 3, 46, 0
7, 32400, Note_on_c, 3, 51, 88
7, 32516, Note_off_c, 3, 51, 0
7, 32520, Note_on_c, 3, 48, 88
7, 32636, Note_off_c, 3, 48, 0
7, 32640, Note_on_c, 3, 53, 88
7, 32756, Note_off_c, 3, 53, 0
7, 32760, Note_on_c, 3, 46, 88
7, 32994, Note_off_c, 3, 46, 0
7, 33000, Note_on_c, 3, 51, 88
7, 33058, Note_off_c, 3, 51, 0
7, 33060, Note_on_c, 3, 49, 88
7, 33118, Note_off_c, 3, 49, 0
7, 33120, Note_on_c, 3, 48, 88
7, 33236, Note_off_c, 3, 48, 0
7, 33240, Note_on_c, 3, 53, 88
7, 33415, Note_off_c, 3, 53, 0
7, 33420, Note_on_c, 3, 51, 88
7, 33478, Note_off_c, 3, 51, 0
7, 33480, Note_on_c, 3, 53, 88
7, 33538, Note_off_c, 3, 53, 0
7, 33540, Note_on_c, 3, 55, 88
7, 33598, Note_off_c, 3, 55, 0
7, 33600, Note_on_c, 3, 56, 88
7, 33658, Note_off_c, 3, 56, 0
7, 33660, Note_on_c, 3, 55, 88
7, 33718, Note_off_c, 3, 55, 0
7, 33720, Note_on_c, 3, 53, 88
7, 33778, Note_off_c, 3, 53, 0
7, 33780, Note_on_c, 3, 51, 88
7, 33838, Note_off_c, 3, 51, 0
7, 33840, Note_on_c, 3, 50, 88
7, 34074, Note_off_c, 3, 50, 0
7, 34080, Note_on_c, 3, 51, 88
7, 34196, Note_off_c, 3, 51, 0
7, 34200, Note_on_c, 3, 50, 88
7, 34316, Note_off_c, 3, 50, 0
7, 34320, Note_on_c, 3, 52, 88
7, 34436, Note_off_c, 3, 52, 0
7, 34440, Note_on_c, 3, 48, 88
7, 34556, Note_off_c, 3, 48, 0
7, 34560, Note_on_c, 3, 53, 88
7, 34673, Note_off_c, 3, 53, 0
7, 34680, Note_on_c, 3, 53, 88
7, 34738, Note_off_c, 3, 53, 0
7, 34740, Note_on_c, 3, 51, 88
7, 34798, Note_off_c, 3, 51, 0
7, 34800, Note_on_c, 3, 50, 88
7, 34913, Note_off_c, 3, 50, 0
7, 34920, Note_on_c, 3, 50, 88
7, 34978, Note_off_c, 3, 50, 0
7, 34980, Note_on_c, 3, 48, 88
7, 35038, Note_off_c, 3, 48, 0
7, 35040, Note_on_c, 3, 47, 88
7, 35098, Note_off_c, 3, 47, 0
7, 35100, Note_on_c, 3, 43, 88
7, 35158, Note_off_c, 3, 43, 0
7, 35160, Note_on_c, 3, 45, 88
7, 35218, Note_off_c, 3, 45, 0
7, 35220, Note_on_c, 3, 47, 88
7, 35278, Note_off_c, 3, 47, 0
7, 35280, Note_on_c, 3, 48, 88
7, 35338, Note_off_c, 3, 48, 0
7, 35340, Note_on_c, 3, 44, 88
7, 35398, Note_off_c, 3, 44, 0
7, 35400, Note_on_c, 3, 46, 88
7, 35458, Note_off_c, 3, 46, 0
7, 35460, Note_on_c, 3, 48, 88
7, 35518, Note_off_c, 3, 48, 0
7, 35520, Note_on_c, 3, 49, 88
7, 35633, Note_off_c, 3, 49, 0
7, 35640, Note_on_c, 3, 49, 88
7, 35698, Note_off_c, 3, 49, 0
7, 35700, Note_on_c, 3, 48, 88
7, 35758, Note_off_c, 3, 48, 0
7, 35760, Note_on_c, 3, 46, 88
7, 35873, Note_off_c, 3, 46, 0
7, 35880, Note_on_c, 3, 46, 88
7, 35938, Note_off_c, 3, 46, 0
7, 35940, Note_on_c, 3, 44, 88
7, 35998, Note_off_c, 3, 44, 0
7, 36000, Note_on_c, 3, 43, 88
7, 36058, Note_off_c, 3, 43, 0
7, 36060, Note_on_c, 3, 39, 88
7, 36118, Note_off_c, 3, 39, 0
7, 36120, Note_on_c, 3, 41, 88
7, 36178, Note_off_c, 3, 41, 0
7, 36180, Note_on_c, 3, 43, 88
7, 36238, Note_off_c, 3, 43, 0
7, 36240, Note_on_c, 3, 44, 88
7, 36298, Note_off_c, 3, 44, 0
7, 36300, Note_on_c, 3, 41, 88
7, 36358, Note_off_c, 3, 41, 0
7, 36360, Note_on_c, 3, 43, 88
7, 36418, Note_off_c, 3, 43, 0
7, 36420, Note_on_c, 3, 45, 88
7, 36478, Note_off_c, 3, 45, 0
7, 36480, Note_on_c, 3, 46, 88
7, 36538, Note_off_c, 3, 46, 0
7, 36540, Note_on_c, 3, 45, 88
7, 36598, Note_off_c, 3, 45, 0
7, 36600, Note_on_c, 3, 46, 88
7, 36658, Note_off_c, 3, 46, 0
7, 36660, Note_on_c, 3, 48, 88
7, 36718, Note_off_c, 3, 48, 0
7, 36720, Note_on_c, 3, 49, 88
7, 36778, Note_off_c, 3, 49, 0
7, 36780, Note_on_c, 3, 46, 88
7, 36838, Note_off_c, 3, 46, 0
7, 36840, Note_on_c, 3, 48, 88
7, 36898, Note_off_c, 3, 48, 0
7, 36900, Note_on_c, 3, 49, 88
7, 36958, Note_off_c, 3, 49, 0
7, 36960, Note_on_c, 3, 51, 88
7, 37073, Note_off_c, 3, 51, 0
7, 37080, Note_on_c, 3, 51, 88
7, 37138, Note_off_c, 3, 51, 0
7, 37140, Note_on_c, 3, 49, 88
7, 37198, Note_off_c, 3, 49, 0
7, 37200, Note_on_c, 3, 48, 88
7, 37313, Note_off_c, 3, 48, 0
7, 37320, Note_on_c, 3, 48, 88
7, 37378, Note_off_c, 3, 48, 0
7, 37380, Note_on_c, 3, 46, 88
7, 37438, Note_off_c, 3, 46, 0
7, 37440, Note_on_c, 3, 44, 88
7, 37556, Note_off_c, 3, 44, 0
7, 37560, Note_on_c, 3, 56, 88
7, 37618, Note_off_c, 3, 56, 0
7, 37620, Note_on_c, 3, 55, 88
7, 37678, Note_off_c, 3, 55, 0
7, 37680, Note_on_c, 3, 53, 88
7, 37793, Note_off_c, 3, 53, 0
7, 37800, Note_on_c, 3, 53, 88
7, 37858, Note_off_c, 3, 53, 0
7, 37860, Note_on_c, 3, 51, 88
7, 37918, Note_off_c, 3, 51, 0
7, 37920, Note_on_c, 3, 50, 88
7, 38154, Note_off_c, 3, 50, 0
7, 38160, Note_on_c, 3, 51, 88
7, 38276, Note_off_c, 3, 51, 0
7, 38280, Note_on_c, 3, 55, 88
7, 38396, Note_off_c, 3, 55, 0
7, 38400, Note_on_c, 3, 56, 88
7, 38516, Note_off_c, 3, 56, 0
7, 38520, Note_on_c, 3, 53, 88
7, 38636, Note_off_c, 3, 53, 0
7, 38640, Note_on_c, 3, 58, 88
7, 38756, Note_off_c, 3, 58, 0
7, 38760, Note_on_c, 3, 46, 88
7, 38876, Note_off_c, 3, 46, 0
7, 38880, Note_on_c, 3, 48, 88
7, 38996, Note_off_c, 3, 48, 0
7, 39000, Note_on_c, 3, 60, 88
7, 39058, Note_off_c, 3, 60, 0
7, 39060, Note_on_c, 3, 58, 88
7, 39118, Note_off_c, 3, 58, 0
7, 39120, Note_on_c, 3, 56, 88
7, 39236, Note_off_c, 3, 56, 0
7, 39240, Note_on_c, 3, 58, 88
7, 39298, Note_off_c, 3, 58, 0
7, 39300, Note_on_c, 3, 56, 88
7, 39358, Note_off_c, 3, 56, 0
7, 39360, Note_on_c, 3, 55, 88
7, 39476, Note_off_c, 3, 55, 0
7, 39480, Note_on_c, 3, 46, 88
7, 39538, Note_off_c, 3, 46, 0
7, 39540, Note_on_c, 3, 48, 88
7, 39598, Note_off_c, 3, 48, 0
7, 39600, Note_on_c, 3, 50, 88
7, 39716, Note_off_c, 3, 50, 0
7, 39720, Note_on_c, 3, 48, 88
7, 39778, Note_off_c, 3, 48, 0
7, 39780, Note_on_c, 3, 50, 88
7, 39838, Note_off_c, 3, 50, 0
7, 39840, Note_on_c, 3, 51, 88
7, 39953, Note_off_c, 3, 51, 0
7, 39960, Note_on_c, 3, 51, 88
7, 40018, Note_off_c, 3, 51, 0
7, 40020, Note_on_c, 3, 50, 88
7, 40078, Note_off_c, 3, 50, 0
7, 40080, Note_on_c, 3, 48, 88
7, 40193, Note_off_c, 3, 48, 0
7, 40200, Note_on_c, 3, 48, 88
7, 40258, Note_off_c, 3, 48, 0
7, 40260, Note_on_c, 3, 46, 88
7, 40318, Note_off_c, 3, 46, 0
7, 40320, Note_on_c, 3, 45, 88
7, 40554, Note_off_c, 3, 45, 0
7, 40560, Note_on_c, 3, 46, 88
7, 40794, Note_off_c, 3, 46, 0
7, 40800, Note_on_c, 3, 51, 88
7, 41034, Note_off_c, 3, 51, 0
7, 41160, Note_on_c, 3, 51, 88
7, 41218, Note_off_c, 3, 51, 0
7, 41220, Note_on_c, 3, 53, 88
7, 41278, Note_off_c, 3, 53, 0
7, 41280, Note_on_c, 3, 55, 88
7, 41393, Note_off_c, 3, 55, 0
7, 41400, Note_on_c, 3, 55, 88
7, 41458, Note_off_c, 3, 55, 0
7, 41460, Note_on_c, 3, 56, 88
7, 41518, Note_off_c, 3, 56, 0
7, 41520, Note_on_c, 3, 58, 88
7, 41636, Note_off_c, 3, 58, 0
7, 41640, Note_on_c, 3, 46, 88
7, 41756, Note_off_c, 3, 46, 0
7, 41760, Note_on_c, 3, 48, 88
7, 41994, Note_off_c, 3, 48, 0
7, 42120, Note_on_c, 3, 48, 88
7, 42178, Note_off_c, 3, 48, 0
7, 42180, Note_on_c, 3, 50, 88
7, 42238, Note_off_c, 3, 50, 0
7, 42240, Note_on_c, 3, 51, 88
7, 42353, Note_off_c, 3, 51, 0
7, 42360, Note_on_c, 3, 51, 88
7, 42418, Note_off_c, 3, 51, 0
7, 42420, Note_on_c, 3, 53, 88
7, 42478, Note_off_c, 3, 53, 0
7, 42480, Note_on_c, 3, 55, 88
7, 42596, Note_off_c, 3, 55, 0
7, 42600, Note_on_c, 3, 43, 88
7, 42716, Note_off_c, 3, 43, 0
7, 42720, Note_on_c, 3, 44, 88
7, 42954, Note_off_c, 3, 44, 0
7, 43080, Note_on_c, 3, 44, 88
7, 43138, Note_off_c, 3, 44, 0
7, 43140, Note_on_c, 3, 46, 88
7, 43198, Note_off_c, 3, 46, 0
7, 43200, Note_on_c, 3, 48, 88
7, 43313, Note_off_c, 3, 48, 0
7, 43320, Note_on_c, 3, 48, 88
7, 43378, Note_off_c, 3, 48, 0
7, 43380, Note_on_c, 3, 50, 88
7, 43438, Note_off_c, 3, 50, 0
7, 43440, Note_on_c, 3, 51, 88
7, 43556, Note_off_c, 3, 51, 0
7, 43560, Note_on_c, 3, 39, 88
7, 43676, Note_off_c, 3, 39, 0
7, 43680, Note_on_c, 3, 41, 88
7, 43796, Note_off_c, 3, 41, 0
7, 43800, Note_on_c, 3, 43, 88
7, 43916, Note_off_c, 3, 43, 0
7, 43920, Note_on_c, 3, 44, 88
7, 44036, Note_off_c, 3, 44, 0
7, 44040, Note_on_c, 3, 45, 88
7, 44156, Note_off_c, 3, 45, 0
7, 44160, Note_on_c, 3, 43, 88
7, 44276, Note_off_c, 3, 43, 0
7, 50160, Note_on_c, 3, 48, 88
7, 50394, Note_off_c, 3, 48, 0
7, 50400, Note_on_c, 3, 49, 88
7, 50634, Note_off_c, 3, 49, 0
7, 50640, Note_on_c, 3, 48, 88
7, 50874, Note_off_c, 3, 48, 0
7, 50880, Note_on_c, 3, 47, 88
7, 51114, Note_off_c, 3, 47, 0
7, 51120, Note_on_c, 3, 52, 88
7, 51354, Note_off_c, 3, 52, 0
7, 51360, Note_on_c, 3, 53, 88
7, 51594, Note_off_c, 3, 53, 0
7, 51600, Note_on_c, 3, 46, 88
7, 51834, Note_off_c, 3, 46, 0
7, 51840, Note_on_c, 3, 45, 88
7, 52074, Note_off_c, 3, 45, 0
7, 52080, Note_on_c, 3, 44, 88
7, 52313, Note_off_c, 3, 44, 0
7, 52320, Note_on_c, 3, 44, 88
7, 52342, Note_off_c, 3, 44, 0
7, 52343, Note_on_c, 3, 43, 88
7, 52372, Note_off_c, 3, 43, 0
7, 52373, Note_on_c, 3, 44, 88
7, 52402, Note_off_c, 3, 44, 0
7, 52403, Note_on_c, 3, 43, 88
7, 52424, Note_off_c, 3, 43, 0
7, 52425, Note_on_c, 3, 44, 88
7, 52447, Note_off_c, 3, 44, 0
7, 52448, Note_on_c, 3, 43, 88
7, 52469, Note_off_c, 3, 43, 0
7, 52470, Note_on_c, 3, 44, 88
7, 52492, Note_off_c, 3, 44, 0
7, 52493, Note_on_c, 3, 43, 88
7, 52514, Note_off_c, 3, 43, 0
7, 52515, Note_on_c, 3, 41, 88
7, 52537, Note_off_c, 3, 41, 0
7, 52538, Note_on_c, 3, 43, 88
7, 52795, Note_off_c, 3, 43, 0
7, 52800, Note_on_c, 3, 41, 88
7, 53093, Note_off_c, 3, 41, 0
7, 53100, Note_on_c, 3, 41, 88
7, 53158, Note_off_c, 3, 41, 0
7, 53160, Note_on_c, 3, 43, 88
7, 53218, Note_off_c, 3, 43, 0
7, 53220, Note_on_c, 3, 45, 88
7, 53278, Note_off_c, 3, 45, 0
7, 53280, Note_on_c, 3, 46, 88
7, 53574, Note_off_c, 3, 46, 0
7, 53580, Note_on_c, 3, 49, 88
7, 53638, Note_off_c, 3, 49, 0
7, 53640, Note_on_c, 3, 48, 88
7, 53698, Note_off_c, 3, 48, 0
7, 53700, Note_on_c, 3, 46, 88
7, 53758, Note_off_c, 3, 46, 0
7, 53760, Note_on_c, 3, 48, 88
7, 54705, Note_off_c, 3, 48, 0
7, 54720, Note_on_c, 3, 41, 88
7, 55665, Note_off_c, 3, 41, 0
7, 55665, End_track
0, 0, End_of_file
