0, 0, Header, 1, 7, 240
1, 0, Start_track
1, 0, Time_signature, 4, 2, 24, 8
1, 0, Tempo, 1333333
1, 0, SMPTE_offset, 64, 0, 0, 0, 93
1, 0, End_track
2, 0, Start_track
2, 0, Title_t, "(C) & (P) 1993"
2, 127, End_track
3, 0, Start_track
3, 0, Title_t, "CCARH,Stanford"
3, 0, End_track
4, 0, Start_track
4, 0, Title_t, "Track 1"
4, 0, Program_c, 0, 6
4, 0, Note_on_c, 0, 79, 88
4, 73, Note_off_c, 0, 79, 0
4, 75, Note_on_c, 0, 81, 88
4, 97, Note_off_c, 0, 81, 0
4, 98, Note_on_c, 0, 79, 88
4, 119, Note_off_c, 0, 79, 0
4, 120, Note_on_c, 0, 81, 88
4, 142, Note_off_c, 0, 81, 0
4, 143, Note_on_c, 0, 79, 88
4, 164, Note_off_c, 0, 79, 0
4, 165, Note_on_c, 0, 81, 88
4, 187, Note_off_c, 0, 81, 0
4, 188, Note_on_c, 0, 79, 88
4, 209, Note_off_c, 0, 79, 0
4, 210, Note_on_c, 0, 81, 88
4, 232, Note_off_c, 0, 81, 0
4, 233, Note_on_c, 0, 79, 88
4, 254, Note_off_c, 0, 79, 0
4, 255, Note_on_c, 0, 81, 88
4, 277, Note_off_c, 0, 81, 0
4, 278, Note_on_c, 0, 79, 88
4, 299, Note_off_c, 0, 79, 0
4, 300, Note_on_c, 0, 81, 88
4, 322, Note_off_c, 0, 81, 0
4, 323, Note_on_c, 0, 79, 88
4, 344, Note_off_c, 0, 79, 0
4, 345, Note_on_c, 0, 81, 88
4, 367, Note_off_c, 0, 81, 0
4, 368, Note_on_c, 0, 79, 88
4, 389, Note_off_c, 0, 79, 0
4, 390, Note_on_c, 0, 81, 88
4, 412, Note_off_c, 0, 81, 0
4, 413, Note_on_c, 0, 79, 88
4, 434, Note_off_c, 0, 79, 0
4, 435, Note_on_c, 0, 81, 88
4, 457, Note_off_c, 0, 81, 0
4, 458, Note_on_c, 0, 79, 88
4, 479, Note_off_c, 0, 79, 0
4, 480, Note_on_c, 0, 81, 88
4, 498, Note_off_c, 0, 81, 0
4, 499, Note_on_c, 0, 79, 88
4, 517, Note_off_c, 0, 79, 0
4, 518, Note_on_c, 0, 81, 88
4, 536, Note_on_c, 0, 79, 88
4, 536, Note_off_c, 0, 81, 0
4, 554, Note_off_c, 0, 79, 0
4, 555, Note_on_c, 0, 81, 88
4, 573, Note_off_c, 0, 81, 0
4, 574, Note_on_c, 0, 79, 88
4, 592, Note_off_c, 0, 79, 0
4, 593, Note_on_c, 0, 81, 88
4, 611, Note_on_c, 0, 79, 88
4, 611, Note_off_c, 0, 81, 0
4, 629, Note_off_c, 0, 79, 0
4, 630, Note_on_c, 0, 81, 88
4, 648, Note_off_c, 0, 81, 0
4, 649, Note_on_c, 0, 79, 88
4, 667, Note_off_c, 0, 79, 0
4, 668, Note_on_c, 0, 81, 88
4, 686, Note_on_c, 0, 79, 88
4, 686, Note_off_c, 0, 81, 0
4, 704, Note_off_c, 0, 79, 0
4, 705, Note_on_c, 0, 81, 88
4, 723, Note_off_c, 0, 81, 0
4, 724, Note_on_c, 0, 79, 88
4, 742, Note_off_c, 0, 79, 0
4, 743, Note_on_c, 0, 81, 88
4, 761, Note_on_c, 0, 79, 88
4, 761, Note_off_c, 0, 81, 0
4, 779, Note_off_c, 0, 79, 0
4, 780, Note_on_c, 0, 81, 88
4, 798, Note_off_c, 0, 81, 0
4, 799, Note_on_c, 0, 79, 88
4, 817, Note_off_c, 0, 79, 0
4, 818, Note_on_c, 0, 81, 88
4, 836, Note_on_c, 0, 79, 88
4, 836, Note_off_c, 0, 81, 0
4, 854, Note_off_c, 0, 79, 0
4, 855, Note_on_c, 0, 81, 88
4, 873, Note_off_c, 0, 81, 0
4, 874, Note_on_c, 0, 79, 88
4, 892, Note_off_c, 0, 79, 0
4, 893, Note_on_c, 0, 81, 88
4, 911, Note_on_c, 0, 79, 88
4, 911, Note_off_c, 0, 81, 0
4, 958, Note_off_c, 0, 79, 0
4, 960, Note_on_c, 0, 79, 88
4, 1018, Note_off_c, 0, 79, 0
4, 1020, Note_on_c, 0, 74, 88
4, 1078, Note_off_c, 0, 74, 0
4, 1080, Note_on_c, 0, 75, 88
4, 1109, Note_off_c, 0, 75, 0
4, 1110, Note_on_c, 0, 74, 88
4, 1139, Note_off_c, 0, 74, 0
4, 1140, Note_on_c, 0, 72, 88
4, 1198, Note_off_c, 0, 72, 0
4, 1200, Note_on_c, 0, 74, 88
4, 1258, Note_off_c, 0, 74, 0
4, 1260, Note_on_c, 0, 79, 88
4, 1318, Note_off_c, 0, 79, 0
4, 1320, Note_on_c, 0, 72, 88
4, 1349, Note_off_c, 0, 72, 0
4, 1350, Note_on_c, 0, 70, 88
4, 1379, Note_off_c, 0, 70, 0
4, 1380, Note_on_c, 0, 69, 88
4, 1438, Note_off_c, 0, 69, 0
4, 1440, Note_on_c, 0, 70, 88
4, 1498, Note_off_c, 0, 70, 0
4, 1500, Note_on_c, 0, 79, 88
4, 1558, Note_off_c, 0, 79, 0
4, 1560, Note_on_c, 0, 72, 88
4, 1589, Note_off_c, 0, 72, 0
4, 1590, Note_on_c, 0, 70, 88
4, 1619, Note_off_c, 0, 70, 0
4, 1620, Note_on_c, 0, 69, 88
4, 1678, Note_off_c, 0, 69, 0
4, 1680, Note_on_c, 0, 70, 88
4, 1738, Note_off_c, 0, 70, 0
4, 1740, Note_on_c, 0, 79, 88
4, 1798, Note_off_c, 0, 79, 0
4, 1800, Note_on_c, 0, 69, 88
4, 1829, Note_off_c, 0, 69, 0
4, 1830, Note_on_c, 0, 67, 88
4, 1859, Note_off_c, 0, 67, 0
4, 1860, Note_on_c, 0, 66, 88
4, 1918, Note_off_c, 0, 66, 0
4, 1920, Note_on_c, 0, 67, 88
4, 1993, Note_off_c, 0, 67, 0
4, 1995, Note_on_c, 0, 69, 88
4, 2017, Note_off_c, 0, 69, 0
4, 2018, Note_on_c, 0, 67, 88
4, 2039, Note_off_c, 0, 67, 0
4, 2040, Note_on_c, 0, 69, 88
4, 2062, Note_off_c, 0, 69, 0
4, 2063, Note_on_c, 0, 67, 88
4, 2084, Note_off_c, 0, 67, 0
4, 2085, Note_on_c, 0, 69, 88
4, 2107, Note_off_c, 0, 69, 0
4, 2108, Note_on_c, 0, 67, 88
4, 2129, Note_off_c, 0, 67, 0
4, 2130, Note_on_c, 0, 69, 88
4, 2152, Note_off_c, 0, 69, 0
4, 2153, Note_on_c, 0, 67, 88
4, 2174, Note_off_c, 0, 67, 0
4, 2175, Note_on_c, 0, 69, 88
4, 2197, Note_off_c, 0, 69, 0
4, 2198, Note_on_c, 0, 67, 88
4, 2219, Note_off_c, 0, 67, 0
4, 2220, Note_on_c, 0, 69, 88
4, 2242, Note_off_c, 0, 69, 0
4, 2243, Note_on_c, 0, 67, 88
4, 2264, Note_off_c, 0, 67, 0
4, 2265, Note_on_c, 0, 69, 88
4, 2287, Note_off_c, 0, 69, 0
4, 2288, Note_on_c, 0, 67, 88
4, 2309, Note_off_c, 0, 67, 0
4, 2310, Note_on_c, 0, 69, 88
4, 2332, Note_off_c, 0, 69, 0
4, 2333, Note_on_c, 0, 67, 88
4, 2354, Note_off_c, 0, 67, 0
4, 2355, Note_on_c, 0, 69, 88
4, 2377, Note_off_c, 0, 69, 0
4, 2378, Note_on_c, 0, 67, 88
4, 2399, Note_off_c, 0, 67, 0
4, 2400, Note_on_c, 0, 69, 88
4, 2418, Note_off_c, 0, 69, 0
4, 2419, Note_on_c, 0, 67, 88
4, 2437, Note_off_c, 0, 67, 0
4, 2438, Note_on_c, 0, 69, 88
4, 2456, Note_on_c, 0, 67, 88
4, 2456, Note_off_c, 0, 69, 0
4, 2474, Note_off_c, 0, 67, 0
4, 2475, Note_on_c, 0, 69, 88
4, 2493, Note_off_c, 0, 69, 0
4, 2494, Note_on_c, 0, 67, 88
4, 2512, Note_off_c, 0, 67, 0
4, 2513, Note_on_c, 0, 69, 88
4, 2531, Note_on_c, 0, 67, 88
4, 2531, Note_off_c, 0, 69, 0
4, 2549, Note_off_c, 0, 67, 0
4, 2550, Note_on_c, 0, 69, 88
4, 2568, Note_off_c, 0, 69, 0
4, 2569, Note_on_c, 0, 67, 88
4, 2587, Note_off_c, 0, 67, 0
4, 2588, Note_on_c, 0, 69, 88
4, 2606, Note_on_c, 0, 67, 88
4, 2606, Note_off_c, 0, 69, 0
4, 2624, Note_off_c, 0, 67, 0
4, 2625, Note_on_c, 0, 69, 88
4, 2643, Note_off_c, 0, 69, 0
4, 2644, Note_on_c, 0, 67, 88
4, 2662, Note_off_c, 0, 67, 0
4, 2663, Note_on_c, 0, 69, 88
4, 2681, Note_on_c, 0, 67, 88
4, 2681, Note_off_c, 0, 69, 0
4, 2699, Note_off_c, 0, 67, 0
4, 2700, Note_on_c, 0, 69, 88
4, 2718, Note_off_c, 0, 69, 0
4, 2719, Note_on_c, 0, 67, 88
4, 2737, Note_off_c, 0, 67, 0
4, 2738, Note_on_c, 0, 69, 88
4, 2756, Note_on_c, 0, 67, 88
4, 2756, Note_off_c, 0, 69, 0
4, 2774, Note_off_c, 0, 67, 0
4, 2775, Note_on_c, 0, 69, 88
4, 2793, Note_off_c, 0, 69, 0
4, 2794, Note_on_c, 0, 67, 88
4, 2812, Note_off_c, 0, 67, 0
4, 2813, Note_on_c, 0, 69, 88
4, 2831, Note_on_c, 0, 67, 88
4, 2831, Note_off_c, 0, 69, 0
4, 2878, Note_off_c, 0, 67, 0
4, 2880, Note_on_c, 0, 67, 88
4, 2938, Note_off_c, 0, 67, 0
4, 2940, Note_on_c, 0, 76, 88
4, 2998, Note_off_c, 0, 76, 0
4, 3000, Note_on_c, 0, 70, 88
4, 3029, Note_off_c, 0, 70, 0
4, 3030, Note_on_c, 0, 69, 88
4, 3059, Note_off_c, 0, 69, 0
4, 3060, Note_on_c, 0, 67, 88
4, 3118, Note_off_c, 0, 67, 0
4, 3120, Note_on_c, 0, 69, 88
4, 3178, Note_off_c, 0, 69, 0
4, 3180, Note_on_c, 0, 76, 88
4, 3238, Note_off_c, 0, 76, 0
4, 3240, Note_on_c, 0, 67, 88
4, 3269, Note_off_c, 0, 67, 0
4, 3270, Note_on_c, 0, 66, 88
4, 3299, Note_off_c, 0, 66, 0
4, 3300, Note_on_c, 0, 64, 88
4, 3358, Note_off_c, 0, 64, 0
4, 3360, Note_on_c, 0, 66, 88
4, 3535, Note_off_c, 0, 66, 0
4, 3540, Note_on_c, 0, 67, 88
4, 3598, Note_off_c, 0, 67, 0
4, 3600, Note_on_c, 0, 66, 88
4, 3658, Note_off_c, 0, 66, 0
4, 3660, Note_on_c, 0, 69, 88
4, 3718, Note_off_c, 0, 69, 0
4, 3720, Note_on_c, 0, 74, 88
4, 3749, Note_off_c, 0, 74, 0
4, 3750, Note_on_c, 0, 72, 88
4, 3779, Note_off_c, 0, 72, 0
4, 3780, Note_on_c, 0, 70, 88
4, 3838, Note_off_c, 0, 70, 0
4, 3840, Note_on_c, 0, 72, 88
4, 3898, Note_off_c, 0, 72, 0
4, 3900, Note_on_c, 0, 75, 88
4, 3958, Note_off_c, 0, 75, 0
4, 3960, Note_on_c, 0, 74, 88
4, 3989, Note_off_c, 0, 74, 0
4, 3990, Note_on_c, 0, 72, 88
4, 4019, Note_off_c, 0, 72, 0
4, 4020, Note_on_c, 0, 70, 88
4, 4078, Note_off_c, 0, 70, 0
4, 4080, Note_on_c, 0, 72, 88
4, 4138, Note_off_c, 0, 72, 0
4, 4140, Note_on_c, 0, 81, 88
4, 4198, Note_off_c, 0, 81, 0
4, 4200, Note_on_c, 0, 72, 88
4, 4229, Note_off_c, 0, 72, 0
4, 4230, Note_on_c, 0, 70, 88
4, 4259, Note_off_c, 0, 70, 0
4, 4260, Note_on_c, 0, 69, 88
4, 4318, Note_off_c, 0, 69, 0
4, 4320, Note_on_c, 0, 70, 88
4, 4378, Note_off_c, 0, 70, 0
4, 4380, Note_on_c, 0, 74, 88
4, 4438, Note_off_c, 0, 74, 0
4, 4440, Note_on_c, 0, 72, 88
4, 4469, Note_off_c, 0, 72, 0
4, 4470, Note_on_c, 0, 70, 88
4, 4499, Note_off_c, 0, 70, 0
4, 4500, Note_on_c, 0, 69, 88
4, 4558, Note_off_c, 0, 69, 0
4, 4560, Note_on_c, 0, 70, 88
4, 4618, Note_off_c, 0, 70, 0
4, 4620, Note_on_c, 0, 79, 88
4, 4678, Note_off_c, 0, 79, 0
4, 4680, Note_on_c, 0, 70, 88
4, 4709, Note_off_c, 0, 70, 0
4, 4710, Note_on_c, 0, 69, 88
4, 4739, Note_off_c, 0, 69, 0
4, 4740, Note_on_c, 0, 67, 88
4, 4798, Note_off_c, 0, 67, 0
4, 4800, Note_on_c, 0, 69, 88
4, 4858, Note_off_c, 0, 69, 0
4, 4860, Note_on_c, 0, 65, 88
4, 4918, Note_off_c, 0, 65, 0
4, 4920, Note_on_c, 0, 70, 88
4, 4949, Note_off_c, 0, 70, 0
4, 4950, Note_on_c, 0, 72, 88
4, 4979, Note_off_c, 0, 72, 0
4, 4980, Note_on_c, 0, 74, 88
4, 5038, Note_off_c, 0, 74, 0
4, 5040, Note_on_c, 0, 72, 88
4, 5098, Note_off_c, 0, 72, 0
4, 5100, Note_on_c, 0, 65, 88
4, 5158, Note_off_c, 0, 65, 0
4, 5160, Note_on_c, 0, 74, 88
4, 5189, Note_off_c, 0, 74, 0
4, 5190, Note_on_c, 0, 75, 88
4, 5219, Note_off_c, 0, 75, 0
4, 5220, Note_on_c, 0, 77, 88
4, 5278, Note_off_c, 0, 77, 0
4, 5280, Note_on_c, 0, 75, 88
4, 5338, Note_off_c, 0, 75, 0
4, 5340, Note_on_c, 0, 72, 88
4, 5398, Note_off_c, 0, 72, 0
4, 5400, Note_on_c, 0, 79, 88
4, 5429, Note_off_c, 0, 79, 0
4, 5430, Note_on_c, 0, 81, 88
4, 5459, Note_off_c, 0, 81, 0
4, 5460, Note_on_c, 0, 82, 88
4, 5518, Note_off_c, 0, 82, 0
4, 5520, Note_on_c, 0, 81, 88
4, 5549, Note_off_c, 0, 81, 0
4, 5550, Note_on_c, 0, 82, 88
4, 5579, Note_off_c, 0, 82, 0
4, 5580, Note_on_c, 0, 84, 88
4, 5638, Note_off_c, 0, 84, 0
4, 5640, Note_on_c, 0, 77, 88
4, 5669, Note_off_c, 0, 77, 0
4, 5670, Note_on_c, 0, 79, 88
4, 5699, Note_off_c, 0, 79, 0
4, 5700, Note_on_c, 0, 75, 88
4, 5758, Note_off_c, 0, 75, 0
4, 5820, Note_on_c, 0, 82, 88
4, 5878, Note_off_c, 0, 82, 0
4, 5880, Note_on_c, 0, 79, 88
4, 5938, Note_off_c, 0, 79, 0
4, 5940, Note_on_c, 0, 82, 88
4, 5998, Note_off_c, 0, 82, 0
4, 6000, Note_on_c, 0, 77, 88
4, 6058, Note_off_c, 0, 77, 0
4, 6060, Note_on_c, 0, 82, 88
4, 6118, Note_off_c, 0, 82, 0
4, 6120, Note_on_c, 0, 75, 88
4, 6178, Note_off_c, 0, 75, 0
4, 6180, Note_on_c, 0, 82, 88
4, 6238, Note_off_c, 0, 82, 0
4, 6240, Note_on_c, 0, 77, 88
4, 6298, Note_off_c, 0, 77, 0
4, 6300, Note_on_c, 0, 82, 88
4, 6358, Note_off_c, 0, 82, 0
4, 6360, Note_on_c, 0, 79, 88
4, 6418, Note_off_c, 0, 79, 0
4, 6420, Note_on_c, 0, 82, 88
4, 6478, Note_off_c, 0, 82, 0
4, 6480, Note_on_c, 0, 77, 88
4, 6538, Note_off_c, 0, 77, 0
4, 6540, Note_on_c, 0, 82, 88
4, 6598, Note_off_c, 0, 82, 0
4, 6600, Note_on_c, 0, 75, 88
4, 6658, Note_off_c, 0, 75, 0
4, 6660, Note_on_c, 0, 81, 88
4, 6718, Note_off_c, 0, 81, 0
4, 6720, Note_on_c, 0, 82, 88
4, 7428, Note_off_c, 0, 82, 0
4, 7440, Note_on_c, 0, 77, 88
4, 7738, Note_off_c, 0, 77, 0
4, 7740, Note_on_c, 0, 79, 88
4, 7769, Note_off_c, 0, 79, 0
4, 7770, Note_on_c, 0, 77, 88
4, 7799, Note_off_c, 0, 77, 0
4, 7800, Note_on_c, 0, 75, 88
4, 7829, Note_off_c, 0, 75, 0
4, 7830, Note_on_c, 0, 77, 88
4, 7859, Note_off_c, 0, 77, 0
4, 7860, Note_on_c, 0, 74, 88
4, 7918, Note_off_c, 0, 74, 0
4, 7920, Note_on_c, 0, 75, 88
4, 8214, Note_off_c, 0, 75, 0
4, 8220, Note_on_c, 0, 77, 88
4, 8249, Note_off_c, 0, 77, 0
4, 8250, Note_on_c, 0, 75, 88
4, 8279, Note_off_c, 0, 75, 0
4, 8280, Note_on_c, 0, 74, 88
4, 8309, Note_off_c, 0, 74, 0
4, 8310, Note_on_c, 0, 75, 88
4, 8339, Note_off_c, 0, 75, 0
4, 8340, Note_on_c, 0, 72, 88
4, 8398, Note_off_c, 0, 72, 0
4, 8400, Note_on_c, 0, 74, 88
4, 8698, Note_off_c, 0, 74, 0
4, 8700, Note_on_c, 0, 75, 88
4, 8729, Note_off_c, 0, 75, 0
4, 8730, Note_on_c, 0, 74, 88
4, 8759, Note_off_c, 0, 74, 0
4, 8760, Note_on_c, 0, 72, 88
4, 8789, Note_off_c, 0, 72, 0
4, 8790, Note_on_c, 0, 74, 88
4, 8819, Note_off_c, 0, 74, 0
4, 8820, Note_on_c, 0, 71, 88
4, 8878, Note_off_c, 0, 71, 0
4, 8880, Note_on_c, 0, 72, 88
4, 9174, Note_off_c, 0, 72, 0
4, 9180, Note_on_c, 0, 74, 88
4, 9209, Note_off_c, 0, 74, 0
4, 9210, Note_on_c, 0, 72, 88
4, 9239, Note_off_c, 0, 72, 0
4, 9240, Note_on_c, 0, 71, 88
4, 9269, Note_off_c, 0, 71, 0
4, 9270, Note_on_c, 0, 72, 88
4, 9299, Note_off_c, 0, 72, 0
4, 9300, Note_on_c, 0, 69, 88
4, 9358, Note_off_c, 0, 69, 0
4, 9360, Note_on_c, 0, 71, 88
4, 9594, Note_off_c, 0, 71, 0
4, 9660, Note_on_c, 0, 72, 88
4, 9718, Note_off_c, 0, 72, 0
4, 9720, Note_on_c, 0, 68, 88
4, 9778, Note_off_c, 0, 68, 0
4, 9780, Note_on_c, 0, 72, 88
4, 9838, Note_off_c, 0, 72, 0
4, 9840, Note_on_c, 0, 67, 88
4, 9898, Note_off_c, 0, 67, 0
4, 9900, Note_on_c, 0, 72, 88
4, 9958, Note_off_c, 0, 72, 0
4, 9960, Note_on_c, 0, 65, 88
4, 10018, Note_off_c, 0, 65, 0
4, 10020, Note_on_c, 0, 72, 88
4, 10078, Note_off_c, 0, 72, 0
4, 10080, Note_on_c, 0, 67, 88
4, 10138, Note_off_c, 0, 67, 0
4, 10140, Note_on_c, 0, 72, 88
4, 10198, Note_off_c, 0, 72, 0
4, 10200, Note_on_c, 0, 68, 88
4, 10258, Note_off_c, 0, 68, 0
4, 10260, Note_on_c, 0, 72, 88
4, 10318, Note_off_c, 0, 72, 0
4, 10320, Note_on_c, 0, 67, 88
4, 10378, Note_off_c, 0, 67, 0
4, 10380, Note_on_c, 0, 72, 88
4, 10438, Note_off_c, 0, 72, 0
4, 10440, Note_on_c, 0, 65, 88
4, 10498, Note_off_c, 0, 65, 0
4, 10500, Note_on_c, 0, 71, 88
4, 10558, Note_off_c, 0, 71, 0
4, 10560, Note_on_c, 0, 72, 88
4, 10794, Note_off_c, 0, 72, 0
4, 10800, Note_on_c, 0, 75, 88
4, 11094, Note_off_c, 0, 75, 0
4, 11100, Note_on_c, 0, 81, 88
4, 11129, Note_off_c, 0, 81, 0
4, 11130, Note_on_c, 0, 79, 88
4, 11159, Note_off_c, 0, 79, 0
4, 11160, Note_on_c, 0, 78, 88
4, 11189, Note_off_c, 0, 78, 0
4, 11190, Note_on_c, 0, 79, 88
4, 11219, Note_off_c, 0, 79, 0
4, 11220, Note_on_c, 0, 81, 88
4, 11278, Note_off_c, 0, 81, 0
4, 11280, Note_on_c, 0, 74, 88
4, 11338, Note_off_c, 0, 74, 0
4, 11340, Note_on_c, 0, 75, 88
4, 11515, Note_off_c, 0, 75, 0
4, 11520, Note_on_c, 0, 74, 88
4, 11636, Note_off_c, 0, 74, 0
4, 11640, Note_on_c, 0, 72, 88
4, 11756, Note_off_c, 0, 72, 0
4, 11760, Note_on_c, 0, 70, 88
4, 12054, Note_off_c, 0, 70, 0
4, 12060, Note_on_c, 0, 75, 88
4, 12089, Note_off_c, 0, 75, 0
4, 12090, Note_on_c, 0, 74, 88
4, 12119, Note_off_c, 0, 74, 0
4, 12120, Note_on_c, 0, 72, 88
4, 12149, Note_off_c, 0, 72, 0
4, 12150, Note_on_c, 0, 74, 88
4, 12179, Note_off_c, 0, 74, 0
4, 12180, Note_on_c, 0, 75, 88
4, 12238, Note_off_c, 0, 75, 0
4, 12240, Note_on_c, 0, 68, 88
4, 12298, Note_off_c, 0, 68, 0
4, 12300, Note_on_c, 0, 72, 88
4, 12329, Note_off_c, 0, 72, 0
4, 12330, Note_on_c, 0, 70, 88
4, 12359, Note_off_c, 0, 70, 0
4, 12360, Note_on_c, 0, 68, 88
4, 12389, Note_off_c, 0, 68, 0
4, 12390, Note_on_c, 0, 70, 88
4, 12419, Note_off_c, 0, 70, 0
4, 12420, Note_on_c, 0, 72, 88
4, 12478, Note_off_c, 0, 72, 0
4, 12480, Note_on_c, 0, 66, 88
4, 12714, Note_off_c, 0, 66, 0
4, 12780, Note_on_c, 0, 67, 88
4, 12809, Note_off_c, 0, 67, 0
4, 12810, Note_on_c, 0, 69, 88
4, 12839, Note_off_c, 0, 69, 0
4, 12840, Note_on_c, 0, 70, 88
4, 12869, Note_off_c, 0, 70, 0
4, 12870, Note_on_c, 0, 69, 88
4, 12899, Note_off_c, 0, 69, 0
4, 12900, Note_on_c, 0, 67, 88
4, 12958, Note_off_c, 0, 67, 0
4, 12960, Note_on_c, 0, 72, 88
4, 13194, Note_off_c, 0, 72, 0
4, 13200, Note_on_c, 0, 70, 88
4, 13434, Note_off_c, 0, 70, 0
4, 13440, Note_on_c, 0, 69, 88
4, 13674, Note_off_c, 0, 69, 0
4, 13680, Note_on_c, 0, 67, 88
4, 13914, Note_off_c, 0, 67, 0
4, 13920, Note_on_c, 0, 66, 88
4, 14154, Note_off_c, 0, 66, 0
4, 14220, Note_on_c, 0, 79, 88
4, 14278, Note_off_c, 0, 79, 0
4, 14280, Note_on_c, 0, 77, 88
4, 14309, Note_off_c, 0, 77, 0
4, 14310, Note_on_c, 0, 75, 88
4, 14339, Note_off_c, 0, 75, 0
4, 14340, Note_on_c, 0, 74, 88
4, 14398, Note_off_c, 0, 74, 0
4, 14400, Note_on_c, 0, 75, 88
4, 14458, Note_off_c, 0, 75, 0
4, 14460, Note_on_c, 0, 84, 88
4, 14518, Note_off_c, 0, 84, 0
4, 14520, Note_on_c, 0, 74, 88
4, 14549, Note_off_c, 0, 74, 0
4, 14550, Note_on_c, 0, 72, 88
4, 14579, Note_off_c, 0, 72, 0
4, 14580, Note_on_c, 0, 70, 88
4, 14638, Note_off_c, 0, 70, 0
4, 14640, Note_on_c, 0, 72, 88
4, 14698, Note_off_c, 0, 72, 0
4, 14700, Note_on_c, 0, 81, 88
4, 14758, Note_off_c, 0, 81, 0
4, 14760, Note_on_c, 0, 70, 88
4, 14789, Note_off_c, 0, 70, 0
4, 14790, Note_on_c, 0, 69, 88
4, 14819, Note_off_c, 0, 69, 0
4, 14820, Note_on_c, 0, 67, 88
4, 14878, Note_off_c, 0, 67, 0
4, 14880, Note_on_c, 0, 69, 88
4, 14938, Note_off_c, 0, 69, 0
4, 14940, Note_on_c, 0, 75, 88
4, 14969, Note_off_c, 0, 75, 0
4, 14970, Note_on_c, 0, 74, 88
4, 14999, Note_off_c, 0, 74, 0
4, 15000, Note_on_c, 0, 72, 88
4, 15029, Note_off_c, 0, 72, 0
4, 15030, Note_on_c, 0, 70, 88
4, 15059, Note_off_c, 0, 70, 0
4, 15060, Note_on_c, 0, 69, 88
4, 15118, Note_off_c, 0, 69, 0
4, 15120, Note_on_c, 0, 70, 88
4, 15418, Note_off_c, 0, 70, 0
4, 15420, Note_on_c, 0, 72, 88
4, 15449, Note_off_c, 0, 72, 0
4, 15450, Note_on_c, 0, 70, 88
4, 15479, Note_off_c, 0, 70, 0
4, 15480, Note_on_c, 0, 68, 88
4, 15509, Note_off_c, 0, 68, 0
4, 15510, Note_on_c, 0, 72, 88
4, 15539, Note_off_c, 0, 72, 0
4, 15540, Note_on_c, 0, 66, 88
4, 15598, Note_off_c, 0, 66, 0
4, 15600, Note_on_c, 0, 67, 88
4, 16070, Note_off_c, 0, 67, 0
4, 16080, Note_on_c, 0, 66, 88
4, 16314, Note_off_c, 0, 66, 0
4, 16380, Note_on_c, 0, 62, 88
4, 16409, Note_off_c, 0, 62, 0
4, 16410, Note_on_c, 0, 67, 88
4, 16439, Note_off_c, 0, 67, 0
4, 16440, Note_on_c, 0, 65, 88
4, 16469, Note_off_c, 0, 65, 0
4, 16470, Note_on_c, 0, 63, 88
4, 16499, Note_off_c, 0, 63, 0
4, 16500, Note_on_c, 0, 62, 88
4, 16558, Note_off_c, 0, 62, 0
4, 16560, Note_on_c, 0, 63, 88
4, 16676, Note_off_c, 0, 63, 0
4, 16680, Note_on_c, 0, 62, 88
4, 16796, Note_off_c, 0, 62, 0
4, 16860, Note_on_c, 0, 67, 88
4, 16889, Note_off_c, 0, 67, 0
4, 16890, Note_on_c, 0, 72, 88
4, 16919, Note_off_c, 0, 72, 0
4, 16920, Note_on_c, 0, 70, 88
4, 16949, Note_off_c, 0, 70, 0
4, 16950, Note_on_c, 0, 69, 88
4, 16979, Note_off_c, 0, 69, 0
4, 16980, Note_on_c, 0, 67, 88
4, 17038, Note_off_c, 0, 67, 0
4, 17040, Note_on_c, 0, 69, 88
4, 17098, Note_off_c, 0, 69, 0
4, 17100, Note_on_c, 0, 72, 88
4, 17129, Note_off_c, 0, 72, 0
4, 17130, Note_on_c, 0, 69, 88
4, 17159, Note_off_c, 0, 69, 0
4, 17160, Note_on_c, 0, 67, 88
4, 17189, Note_off_c, 0, 67, 0
4, 17190, Note_on_c, 0, 66, 88
4, 17219, Note_off_c, 0, 66, 0
4, 17220, Note_on_c, 0, 64, 88
4, 17278, Note_off_c, 0, 64, 0
4, 17280, Note_on_c, 0, 66, 88
4, 17750, Note_off_c, 0, 66, 0
4, 17760, Note_on_c, 0, 67, 88
4, 18230, Note_off_c, 0, 67, 0
4, 18230, End_track
5, 0, Start_track
5, 0, Title_t, "Track 2"
5, 0, Program_c, 1, 6
5, 0, Note_on_c, 1, 58, 88
5, 58, Note_off_c, 1, 58, 0
5, 60, Note_on_c, 1, 62, 88
5, 118, Note_off_c, 1, 62, 0
5, 120, Note_on_c, 1, 60, 88
5, 178, Note_off_c, 1, 60, 0
5, 180, Note_on_c, 1, 63, 88
5, 238, Note_off_c, 1, 63, 0
5, 240, Note_on_c, 1, 58, 88
5, 298, Note_off_c, 1, 58, 0
5, 300, Note_on_c, 1, 62, 88
5, 358, Note_off_c, 1, 62, 0
5, 360, Note_on_c, 1, 57, 88
5, 418, Note_off_c, 1, 57, 0
5, 420, Note_on_c, 1, 60, 88
5, 478, Note_off_c, 1, 60, 0
5, 480, Note_on_c, 1, 58, 88
5, 538, Note_off_c, 1, 58, 0
5, 540, Note_on_c, 1, 62, 88
5, 598, Note_off_c, 1, 62, 0
5, 600, Note_on_c, 1, 60, 88
5, 658, Note_off_c, 1, 60, 0
5, 660, Note_on_c, 1, 63, 88
5, 718, Note_off_c, 1, 63, 0
5, 720, Note_on_c, 1, 58, 88
5, 778, Note_off_c, 1, 58, 0
5, 780, Note_on_c, 1, 62, 88
5, 838, Note_off_c, 1, 62, 0
5, 840, Note_on_c, 1, 57, 88
5, 898, Note_off_c, 1, 57, 0
5, 900, Note_on_c, 1, 60, 88
5, 958, Note_off_c, 1, 60, 0
5, 960, Note_on_c, 1, 58, 88
5, 1076, Note_off_c, 1, 58, 0
5, 1080, Note_on_c, 1, 60, 88
5, 1196, Note_off_c, 1, 60, 0
5, 1200, Note_on_c, 1, 58, 88
5, 1316, Note_off_c, 1, 58, 0
5, 1320, Note_on_c, 1, 63, 88
5, 1436, Note_off_c, 1, 63, 0
5, 1440, Note_on_c, 1, 62, 88
5, 1556, Note_off_c, 1, 62, 0
5, 1560, Note_on_c, 1, 63, 88
5, 1676, Note_off_c, 1, 63, 0
5, 1680, Note_on_c, 1, 62, 88
5, 1796, Note_off_c, 1, 62, 0
5, 1800, Note_on_c, 1, 60, 88
5, 1916, Note_off_c, 1, 60, 0
5, 1920, Note_on_c, 1, 58, 88
5, 1978, Note_off_c, 1, 58, 0
5, 1980, Note_on_c, 1, 60, 88
5, 2038, Note_off_c, 1, 60, 0
5, 2040, Note_on_c, 1, 62, 88
5, 2215, Note_off_c, 1, 62, 0
5, 2220, Note_on_c, 1, 60, 88
5, 2336, Note_off_c, 1, 60, 0
5, 2340, Note_on_c, 1, 58, 88
5, 2456, Note_off_c, 1, 58, 0
5, 2460, Note_on_c, 1, 57, 88
5, 2576, Note_off_c, 1, 57, 0
5, 2580, Note_on_c, 1, 58, 88
5, 2696, Note_off_c, 1, 58, 0
5, 2700, Note_on_c, 1, 60, 88
5, 2816, Note_off_c, 1, 60, 0
5, 2820, Note_on_c, 1, 58, 88
5, 2878, Note_off_c, 1, 58, 0
5, 2880, Note_on_c, 1, 57, 88
5, 2996, Note_off_c, 1, 57, 0
5, 3000, Note_on_c, 1, 55, 88
5, 3116, Note_off_c, 1, 55, 0
5, 3120, Note_on_c, 1, 52, 88
5, 3236, Note_off_c, 1, 52, 0
5, 3240, Note_on_c, 1, 57, 88
5, 3415, Note_off_c, 1, 57, 0
5, 3420, Note_on_c, 1, 60, 88
5, 3478, Note_off_c, 1, 60, 0
5, 3480, Note_on_c, 1, 58, 88
5, 3655, Note_off_c, 1, 58, 0
5, 3660, Note_on_c, 1, 57, 88
5, 3776, Note_off_c, 1, 57, 0
5, 3780, Note_on_c, 1, 55, 88
5, 3949, Note_off_c, 1, 55, 0
5, 3960, Note_on_c, 1, 55, 88
5, 4076, Note_off_c, 1, 55, 0
5, 4080, Note_on_c, 1, 54, 88
5, 4314, Note_off_c, 1, 54, 0
5, 4440, Note_on_c, 1, 50, 88
5, 4556, Note_off_c, 1, 50, 0
5, 4560, Note_on_c, 1, 52, 88
5, 4794, Note_off_c, 1, 52, 0
5, 4800, Note_on_c, 1, 53, 88
5, 4916, Note_off_c, 1, 53, 0
5, 4920, Note_on_c, 1, 55, 88
5, 5036, Note_off_c, 1, 55, 0
5, 5040, Note_on_c, 1, 57, 88
5, 5156, Note_off_c, 1, 57, 0
5, 5160, Note_on_c, 1, 58, 88
5, 5276, Note_off_c, 1, 58, 0
5, 5280, Note_on_c, 1, 60, 88
5, 5396, Note_off_c, 1, 60, 0
5, 5400, Note_on_c, 1, 58, 88
5, 5516, Note_off_c, 1, 58, 0
5, 5520, Note_on_c, 1, 60, 88
5, 5636, Note_off_c, 1, 60, 0
5, 5640, Note_on_c, 1, 57, 88
5, 5756, Note_off_c, 1, 57, 0
5, 5760, Note_on_c, 1, 74, 88
5, 5876, Note_off_c, 1, 74, 0
5, 5880, Note_on_c, 1, 75, 88
5, 5996, Note_off_c, 1, 75, 0
5, 6000, Note_on_c, 1, 74, 88
5, 6116, Note_off_c, 1, 74, 0
5, 6120, Note_on_c, 1, 72, 88
5, 6236, Note_off_c, 1, 72, 0
5, 6240, Note_on_c, 1, 74, 88
5, 6356, Note_off_c, 1, 74, 0
5, 6360, Note_on_c, 1, 75, 88
5, 6476, Note_off_c, 1, 75, 0
5, 6480, Note_on_c, 1, 74, 88
5, 6596, Note_off_c, 1, 74, 0
5, 6600, Note_on_c, 1, 72, 88
5, 6716, Note_off_c, 1, 72, 0
5, 6720, Note_on_c, 1, 74, 88
5, 6836, Note_off_c, 1, 74, 0
5, 6840, Note_on_c, 1, 75, 88
5, 6956, Note_off_c, 1, 75, 0
5, 6960, Note_on_c, 1, 77, 88
5, 7076, Note_off_c, 1, 77, 0
5, 7080, Note_on_c, 1, 79, 88
5, 7196, Note_off_c, 1, 79, 0
5, 7200, Note_on_c, 1, 74, 88
5, 7316, Note_off_c, 1, 74, 0
5, 7320, Note_on_c, 1, 75, 88
5, 7495, Note_off_c, 1, 75, 0
5, 7500, Note_on_c, 1, 74, 88
5, 7558, Note_off_c, 1, 74, 0
5, 7560, Note_on_c, 1, 71, 88
5, 7618, Note_off_c, 1, 71, 0
5, 7620, Note_on_c, 1, 74, 88
5, 7678, Note_off_c, 1, 74, 0
5, 7680, Note_on_c, 1, 67, 88
5, 7974, Note_off_c, 1, 67, 0
5, 7980, Note_on_c, 1, 72, 88
5, 8009, Note_off_c, 1, 72, 0
5, 8010, Note_on_c, 1, 70, 88
5, 8039, Note_off_c, 1, 70, 0
5, 8040, Note_on_c, 1, 68, 88
5, 8069, Note_off_c, 1, 68, 0
5, 8070, Note_on_c, 1, 70, 88
5, 8099, Note_off_c, 1, 70, 0
5, 8100, Note_on_c, 1, 72, 88
5, 8158, Note_off_c, 1, 72, 0
5, 8160, Note_on_c, 1, 65, 88
5, 8454, Note_off_c, 1, 65, 0
5, 8460, Note_on_c, 1, 70, 88
5, 8489, Note_off_c, 1, 70, 0
5, 8490, Note_on_c, 1, 68, 88
5, 8519, Note_off_c, 1, 68, 0
5, 8520, Note_on_c, 1, 67, 88
5, 8549, Note_off_c, 1, 67, 0
5, 8550, Note_on_c, 1, 68, 88
5, 8579, Note_off_c, 1, 68, 0
5, 8580, Note_on_c, 1, 70, 88
5, 8638, Note_off_c, 1, 70, 0
5, 8640, Note_on_c, 1, 63, 88
5, 8934, Note_off_c, 1, 63, 0
5, 8940, Note_on_c, 1, 68, 88
5, 8969, Note_off_c, 1, 68, 0
5, 8970, Note_on_c, 1, 67, 88
5, 8999, Note_off_c, 1, 67, 0
5, 9000, Note_on_c, 1, 65, 88
5, 9029, Note_off_c, 1, 65, 0
5, 9030, Note_on_c, 1, 67, 88
5, 9059, Note_off_c, 1, 67, 0
5, 9060, Note_on_c, 1, 68, 88
5, 9118, Note_off_c, 1, 68, 0
5, 9120, Note_on_c, 1, 62, 88
5, 9414, Note_off_c, 1, 62, 0
5, 9420, Note_on_c, 1, 63, 88
5, 9449, Note_off_c, 1, 63, 0
5, 9450, Note_on_c, 1, 65, 88
5, 9479, Note_off_c, 1, 65, 0
5, 9480, Note_on_c, 1, 63, 88
5, 9509, Note_off_c, 1, 63, 0
5, 9510, Note_on_c, 1, 65, 88
5, 9539, Note_off_c, 1, 65, 0
5, 9540, Note_on_c, 1, 62, 88
5, 9598, Note_off_c, 1, 62, 0
5, 9600, Note_on_c, 1, 63, 88
5, 9716, Note_off_c, 1, 63, 0
5, 9720, Note_on_c, 1, 65, 88
5, 9836, Note_off_c, 1, 65, 0
5, 9840, Note_on_c, 1, 63, 88
5, 9956, Note_off_c, 1, 63, 0
5, 9960, Note_on_c, 1, 62, 88
5, 10076, Note_off_c, 1, 62, 0
5, 10080, Note_on_c, 1, 63, 88
5, 10196, Note_off_c, 1, 63, 0
5, 10200, Note_on_c, 1, 65, 88
5, 10316, Note_off_c, 1, 65, 0
5, 10320, Note_on_c, 1, 63, 88
5, 10436, Note_off_c, 1, 63, 0
5, 10440, Note_on_c, 1, 62, 88
5, 10556, Note_off_c, 1, 62, 0
5, 10560, Note_on_c, 1, 63, 88
5, 10676, Note_off_c, 1, 63, 0
5, 10680, Note_on_c, 1, 67, 88
5, 10914, Note_off_c, 1, 67, 0
5, 10920, Note_on_c, 1, 72, 88
5, 11359, Note_off_c, 1, 72, 0
5, 11370, Note_on_c, 1, 72, 88
5, 11399, Note_off_c, 1, 72, 0
5, 11400, Note_on_c, 1, 69, 88
5, 11429, Note_off_c, 1, 69, 0
5, 11430, Note_on_c, 1, 70, 88
5, 11459, Note_off_c, 1, 70, 0
5, 11460, Note_on_c, 1, 72, 88
5, 11518, Note_off_c, 1, 72, 0
5, 11520, Note_on_c, 1, 70, 88
5, 11636, Note_off_c, 1, 70, 0
5, 11640, Note_on_c, 1, 66, 88
5, 11756, Note_off_c, 1, 66, 0
5, 11760, Note_on_c, 1, 67, 88
5, 11876, Note_off_c, 1, 67, 0
5, 11880, Note_on_c, 1, 62, 88
5, 11996, Note_off_c, 1, 62, 0
5, 12000, Note_on_c, 1, 63, 88
5, 12714, Note_off_c, 1, 63, 0
5, 12720, Note_on_c, 1, 62, 88
5, 12954, Note_off_c, 1, 62, 0
5, 13020, Note_on_c, 1, 66, 88
5, 13049, Note_off_c, 1, 66, 0
5, 13050, Note_on_c, 1, 67, 88
5, 13079, Note_off_c, 1, 67, 0
5, 13080, Note_on_c, 1, 69, 88
5, 13109, Note_off_c, 1, 69, 0
5, 13110, Note_on_c, 1, 67, 88
5, 13139, Note_off_c, 1, 67, 0
5, 13140, Note_on_c, 1, 66, 88
5, 13198, Note_off_c, 1, 66, 0
5, 13260, Note_on_c, 1, 64, 88
5, 13289, Note_off_c, 1, 64, 0
5, 13290, Note_on_c, 1, 66, 88
5, 13319, Note_off_c, 1, 66, 0
5, 13320, Note_on_c, 1, 67, 88
5, 13349, Note_off_c, 1, 67, 0
5, 13350, Note_on_c, 1, 66, 88
5, 13379, Note_off_c, 1, 66, 0
5, 13380, Note_on_c, 1, 64, 88
5, 13438, Note_off_c, 1, 64, 0
5, 13500, Note_on_c, 1, 62, 88
5, 13529, Note_off_c, 1, 62, 0
5, 13530, Note_on_c, 1, 64, 88
5, 13559, Note_off_c, 1, 64, 0
5, 13560, Note_on_c, 1, 66, 88
5, 13589, Note_off_c, 1, 66, 0
5, 13590, Note_on_c, 1, 64, 88
5, 13619, Note_off_c, 1, 64, 0
5, 13620, Note_on_c, 1, 62, 88
5, 13678, Note_off_c, 1, 62, 0
5, 13740, Note_on_c, 1, 61, 88
5, 13769, Note_off_c, 1, 61, 0
5, 13770, Note_on_c, 1, 62, 88
5, 13799, Note_off_c, 1, 62, 0
5, 13800, Note_on_c, 1, 64, 88
5, 13829, Note_off_c, 1, 64, 0
5, 13830, Note_on_c, 1, 62, 88
5, 13859, Note_off_c, 1, 62, 0
5, 13860, Note_on_c, 1, 61, 88
5, 13918, Note_off_c, 1, 61, 0
5, 13920, Note_on_c, 1, 62, 88
5, 14154, Note_off_c, 1, 62, 0
5, 15180, Note_on_c, 1, 69, 88
5, 15209, Note_off_c, 1, 69, 0
5, 15210, Note_on_c, 1, 67, 88
5, 15239, Note_off_c, 1, 67, 0
5, 15240, Note_on_c, 1, 65, 88
5, 15269, Note_off_c, 1, 65, 0
5, 15270, Note_on_c, 1, 63, 88
5, 15299, Note_off_c, 1, 63, 0
5, 15300, Note_on_c, 1, 62, 88
5, 15358, Note_off_c, 1, 62, 0
5, 15360, Note_on_c, 1, 63, 88
5, 15594, Note_off_c, 1, 63, 0
5, 15600, Note_on_c, 1, 64, 88
5, 15834, Note_off_c, 1, 64, 0
5, 15900, Note_on_c, 1, 57, 88
5, 15929, Note_off_c, 1, 57, 0
5, 15930, Note_on_c, 1, 58, 88
5, 15959, Note_off_c, 1, 58, 0
5, 15960, Note_on_c, 1, 60, 88
5, 15989, Note_off_c, 1, 60, 0
5, 15990, Note_on_c, 1, 58, 88
5, 16019, Note_off_c, 1, 58, 0
5, 16020, Note_on_c, 1, 57, 88
5, 16078, Note_off_c, 1, 57, 0
5, 16140, Note_on_c, 1, 60, 88
5, 16169, Note_off_c, 1, 60, 0
5, 16170, Note_on_c, 1, 62, 88
5, 16199, Note_off_c, 1, 62, 0
5, 16200, Note_on_c, 1, 63, 88
5, 16229, Note_off_c, 1, 63, 0
5, 16230, Note_on_c, 1, 62, 88
5, 16259, Note_off_c, 1, 62, 0
5, 16260, Note_on_c, 1, 60, 88
5, 16318, Note_off_c, 1, 60, 0
5, 16320, Note_on_c, 1, 58, 88
5, 16436, Note_off_c, 1, 58, 0
5, 16440, Note_on_c, 1, 59, 88
5, 16556, Note_off_c, 1, 59, 0
5, 16560, Note_on_c, 1, 60, 88
5, 16676, Note_off_c, 1, 60, 0
5, 16680, Note_on_c, 1, 59, 88
5, 16796, Note_off_c, 1, 59, 0
5, 16800, Note_on_c, 1, 60, 88
5, 17574, Note_off_c, 1, 60, 0
5, 17580, Note_on_c, 1, 62, 88
5, 17609, Note_off_c, 1, 62, 0
5, 17610, Note_on_c, 1, 63, 88
5, 17639, Note_off_c, 1, 63, 0
5, 17640, Note_on_c, 1, 62, 88
5, 17669, Note_off_c, 1, 62, 0
5, 17670, Note_on_c, 1, 63, 88
5, 17699, Note_off_c, 1, 63, 0
5, 17700, Note_on_c, 1, 60, 88
5, 17809, Note_off_c, 1, 60, 0
5, 17820, Note_on_c, 1, 60, 88
5, 17849, Note_off_c, 1, 60, 0
5, 17850, Note_on_c, 1, 59, 88
5, 17879, Note_off_c, 1, 59, 0
5, 17880, Note_on_c, 1, 57, 88
5, 17909, Note_off_c, 1, 57, 0
5, 17910, Note_on_c, 1, 59, 88
5, 17939, Note_off_c, 1, 59, 0
5, 17940, Note_on_c, 1, 60, 88
5, 17989, Note_off_c, 1, 60, 0
5, 18000, Note_on_c, 1, 60, 88
5, 18047, Note_off_c, 1, 60, 0
5, 18049, Note_on_c, 1, 59, 88
5, 18067, Note_off_c, 1, 59, 0
5, 18068, Note_on_c, 1, 60, 88
5, 18086, Note_on_c, 1, 59, 88
5, 18086, Note_off_c, 1, 60, 0
5, 18104, Note_off_c, 1, 59, 0
5, 18105, Note_on_c, 1, 60, 88
5, 18120, Note_on_c, 1, 59, 88
5, 18120, Note_off_c, 1, 60, 0
5, 18236, Note_off_c, 1, 59, 0
5, 18236, End_track
6, 0, Start_track
6, 0, Title_t, "Track 3"
6, 0, Program_c, 2, 6
6, 15480, Note_on_c, 2, 60, 88
6, 15596, Note_off_c, 2, 60, 0
6, 15600, Note_on_c, 2, 58, 88
6, 15834, Note_off_c, 2, 58, 0
6, 15840, Note_on_c, 2, 50, 88
6, 16310, Note_off_c, 2, 50, 0
6, 16620, Note_on_c, 2, 48, 88
6, 16649, Note_off_c, 2, 48, 0
6, 16650, Note_on_c, 2, 55, 88
6, 16679, Note_off_c, 2, 55, 0
6, 16680, Note_on_c, 2, 53, 88
6, 16709, Note_off_c, 2, 53, 0
6, 16710, Note_on_c, 2, 51, 88
6, 16739, Note_off_c, 2, 51, 0
6, 16740, Note_on_c, 2, 50, 88
6, 16798, Note_off_c, 2, 50, 0
6, 16800, Note_on_c, 2, 51, 88
6, 17329, Note_off_c, 2, 51, 0
6, 17340, Note_on_c, 2, 51, 88
6, 17369, Note_off_c, 2, 51, 0
6, 17370, Note_on_c, 2, 50, 88
6, 17399, Note_off_c, 2, 50, 0
6, 17400, Note_on_c, 2, 48, 88
6, 17429, Note_off_c, 2, 48, 0
6, 17430, Note_on_c, 2, 50, 88
6, 17459, Note_off_c, 2, 50, 0
6, 17460, Note_on_c, 2, 51, 88
6, 17754, Note_off_c, 2, 51, 0
6, 17760, Note_on_c, 2, 50, 88
6, 18230, Note_off_c, 2, 50, 0
6, 18230, End_track
7, 0, Start_track
7, 0, Title_t, "Track 4"
7, 0, Program_c, 3, 6
7, 0, Note_on_c, 3, 55, 88
7, 109, Note_off_c, 3, 55, 0
7, 120, Note_on_c, 3, 55, 88
7, 229, Note_off_c, 3, 55, 0
7, 240, Note_on_c, 3, 55, 88
7, 349, Note_off_c, 3, 55, 0
7, 360, Note_on_c, 3, 55, 88
7, 469, Note_off_c, 3, 55, 0
7, 480, Note_on_c, 3, 55, 88
7, 589, Note_off_c, 3, 55, 0
7, 600, Note_on_c, 3, 55, 88
7, 709, Note_off_c, 3, 55, 0
7, 720, Note_on_c, 3, 55, 88
7, 829, Note_off_c, 3, 55, 0
7, 840, Note_on_c, 3, 55, 88
7, 956, Note_off_c, 3, 55, 0
7, 960, Note_on_c, 3, 55, 88
7, 2095, Note_off_c, 3, 55, 0
7, 2100, Note_on_c, 3, 53, 88
7, 2158, Note_off_c, 3, 53, 0
7, 2160, Note_on_c, 3, 51, 88
7, 2276, Note_off_c, 3, 51, 0
7, 2280, Note_on_c, 3, 50, 88
7, 2396, Note_off_c, 3, 50, 0
7, 2400, Note_on_c, 3, 48, 88
7, 2516, Note_off_c, 3, 48, 0
7, 2520, Note_on_c, 3, 50, 88
7, 2636, Note_off_c, 3, 50, 0
7, 2640, Note_on_c, 3, 51, 88
7, 2756, Note_off_c, 3, 51, 0
7, 2760, Note_on_c, 3, 50, 88
7, 2876, Note_off_c, 3, 50, 0
7, 2880, Note_on_c, 3, 49, 88
7, 3350, Note_off_c, 3, 49, 0
7, 3360, Note_on_c, 3, 50, 88
7, 3529, Note_off_c, 3, 50, 0
7, 3540, Note_on_c, 3, 50, 88
7, 3598, Note_off_c, 3, 50, 0
7, 3600, Note_on_c, 3, 48, 88
7, 3716, Note_off_c, 3, 48, 0
7, 3720, Note_on_c, 3, 46, 88
7, 3836, Note_off_c, 3, 46, 0
7, 3840, Note_on_c, 3, 45, 88
7, 4193, Note_off_c, 3, 45, 0
7, 4200, Note_on_c, 3, 50, 88
7, 4316, Note_off_c, 3, 50, 0
7, 4320, Note_on_c, 3, 43, 88
7, 4673, Note_off_c, 3, 43, 0
7, 4680, Note_on_c, 3, 48, 88
7, 4796, Note_off_c, 3, 48, 0
7, 4800, Note_on_c, 3, 41, 88
7, 5034, Note_off_c, 3, 41, 0
7, 5760, Note_on_c, 3, 58, 88
7, 5833, Note_off_c, 3, 58, 0
7, 5835, Note_on_c, 3, 60, 88
7, 5857, Note_off_c, 3, 60, 0
7, 5858, Note_on_c, 3, 58, 88
7, 5879, Note_off_c, 3, 58, 0
7, 5880, Note_on_c, 3, 60, 88
7, 5902, Note_off_c, 3, 60, 0
7, 5903, Note_on_c, 3, 58, 88
7, 5924, Note_off_c, 3, 58, 0
7, 5925, Note_on_c, 3, 60, 88
7, 5947, Note_off_c, 3, 60, 0
7, 5948, Note_on_c, 3, 58, 88
7, 5969, Note_off_c, 3, 58, 0
7, 5970, Note_on_c, 3, 60, 88
7, 5992, Note_off_c, 3, 60, 0
7, 5993, Note_on_c, 3, 58, 88
7, 6014, Note_off_c, 3, 58, 0
7, 6015, Note_on_c, 3, 60, 88
7, 6037, Note_off_c, 3, 60, 0
7, 6038, Note_on_c, 3, 58, 88
7, 6059, Note_off_c, 3, 58, 0
7, 6060, Note_on_c, 3, 60, 88
7, 6082, Note_off_c, 3, 60, 0
7, 6083, Note_on_c, 3, 58, 88
7, 6104, Note_off_c, 3, 58, 0
7, 6105, Note_on_c, 3, 60, 88
7, 6127, Note_off_c, 3, 60, 0
7, 6128, Note_on_c, 3, 58, 88
7, 6149, Note_off_c, 3, 58, 0
7, 6150, Note_on_c, 3, 60, 88
7, 6172, Note_off_c, 3, 60, 0
7, 6173, Note_on_c, 3, 58, 88
7, 6194, Note_off_c, 3, 58, 0
7, 6195, Note_on_c, 3, 60, 88
7, 6217, Note_off_c, 3, 60, 0
7, 6218, Note_on_c, 3, 58, 88
7, 6239, Note_off_c, 3, 58, 0
7, 6240, Note_on_c, 3, 60, 88
7, 6258, Note_off_c, 3, 60, 0
7, 6259, Note_on_c, 3, 58, 88
7, 6277, Note_off_c, 3, 58, 0
7, 6278, Note_on_c, 3, 60, 88
7, 6296, Note_on_c, 3, 58, 88
7, 6296, Note_off_c, 3, 60, 0
7, 6314, Note_off_c, 3, 58, 0
7, 6315, Note_on_c, 3, 60, 88
7, 6333, Note_off_c, 3, 60, 0
7, 6334, Note_on_c, 3, 58, 88
7, 6352, Note_off_c, 3, 58, 0
7, 6353, Note_on_c, 3, 60, 88
7, 6371, Note_on_c, 3, 58, 88
7, 6371, Note_off_c, 3, 60, 0
7, 6389, Note_off_c, 3, 58, 0
7, 6390, Note_on_c, 3, 60, 88
7, 6408, Note_off_c, 3, 60, 0
7, 6409, Note_on_c, 3, 58, 88
7, 6427, Note_off_c, 3, 58, 0
7, 6428, Note_on_c, 3, 60, 88
7, 6446, Note_on_c, 3, 58, 88
7, 6446, Note_off_c, 3, 60, 0
7, 6464, Note_off_c, 3, 58, 0
7, 6465, Note_on_c, 3, 60, 88
7, 6483, Note_off_c, 3, 60, 0
7, 6484, Note_on_c, 3, 58, 88
7, 6502, Note_off_c, 3, 58, 0
7, 6503, Note_on_c, 3, 60, 88
7, 6521, Note_on_c, 3, 58, 88
7, 6521, Note_off_c, 3, 60, 0
7, 6539, Note_off_c, 3, 58, 0
7, 6540, Note_on_c, 3, 60, 88
7, 6558, Note_off_c, 3, 60, 0
7, 6559, Note_on_c, 3, 58, 88
7, 6577, Note_off_c, 3, 58, 0
7, 6578, Note_on_c, 3, 60, 88
7, 6596, Note_on_c, 3, 58, 88
7, 6596, Note_off_c, 3, 60, 0
7, 6614, Note_off_c, 3, 58, 0
7, 6615, Note_on_c, 3, 60, 88
7, 6633, Note_off_c, 3, 60, 0
7, 6634, Note_on_c, 3, 58, 88
7, 6652, Note_off_c, 3, 58, 0
7, 6653, Note_on_c, 3, 60, 88
7, 6671, Note_on_c, 3, 58, 88
7, 6671, Note_off_c, 3, 60, 0
7, 6718, Note_off_c, 3, 58, 0
7, 6720, Note_on_c, 3, 58, 88
7, 6778, Note_off_c, 3, 58, 0
7, 6780, Note_on_c, 3, 46, 88
7, 6838, Note_off_c, 3, 46, 0
7, 6840, Note_on_c, 3, 48, 88
7, 6869, Note_off_c, 3, 48, 0
7, 6870, Note_on_c, 3, 50, 88
7, 6899, Note_off_c, 3, 50, 0
7, 6900, Note_on_c, 3, 51, 88
7, 6958, Note_off_c, 3, 51, 0
7, 6960, Note_on_c, 3, 50, 88
7, 7018, Note_off_c, 3, 50, 0
7, 7020, Note_on_c, 3, 46, 88
7, 7078, Note_off_c, 3, 46, 0
7, 7080, Note_on_c, 3, 51, 88
7, 7109, Note_off_c, 3, 51, 0
7, 7110, Note_on_c, 3, 53, 88
7, 7139, Note_off_c, 3, 53, 0
7, 7140, Note_on_c, 3, 55, 88
7, 7198, Note_off_c, 3, 55, 0
7, 7200, Note_on_c, 3, 53, 88
7, 7258, Note_off_c, 3, 53, 0
7, 7260, Note_on_c, 3, 46, 88
7, 7318, Note_off_c, 3, 46, 0
7, 7320, Note_on_c, 3, 55, 88
7, 7349, Note_off_c, 3, 55, 0
7, 7350, Note_on_c, 3, 56, 88
7, 7379, Note_off_c, 3, 56, 0
7, 7380, Note_on_c, 3, 58, 88
7, 7438, Note_off_c, 3, 58, 0
7, 7440, Note_on_c, 3, 56, 88
7, 7469, Note_off_c, 3, 56, 0
7, 7470, Note_on_c, 3, 58, 88
7, 7499, Note_off_c, 3, 58, 0
7, 7500, Note_on_c, 3, 56, 88
7, 7558, Note_off_c, 3, 56, 0
7, 7560, Note_on_c, 3, 55, 88
7, 7589, Note_off_c, 3, 55, 0
7, 7590, Note_on_c, 3, 56, 88
7, 7619, Note_off_c, 3, 56, 0
7, 7620, Note_on_c, 3, 53, 88
7, 7678, Note_off_c, 3, 53, 0
7, 7680, Note_on_c, 3, 59, 88
7, 7796, Note_off_c, 3, 59, 0
7, 7800, Note_on_c, 3, 55, 88
7, 7916, Note_off_c, 3, 55, 0
7, 7920, Note_on_c, 3, 60, 88
7, 8036, Note_off_c, 3, 60, 0
7, 8040, Note_on_c, 3, 58, 88
7, 8156, Note_off_c, 3, 58, 0
7, 8160, Note_on_c, 3, 56, 88
7, 8276, Note_off_c, 3, 56, 0
7, 8280, Note_on_c, 3, 53, 88
7, 8396, Note_off_c, 3, 53, 0
7, 8400, Note_on_c, 3, 58, 88
7, 8516, Note_off_c, 3, 58, 0
7, 8520, Note_on_c, 3, 56, 88
7, 8636, Note_off_c, 3, 56, 0
7, 8640, Note_on_c, 3, 55, 88
7, 8756, Note_off_c, 3, 55, 0
7, 8760, Note_on_c, 3, 51, 88
7, 8876, Note_off_c, 3, 51, 0
7, 8880, Note_on_c, 3, 56, 88
7, 8996, Note_off_c, 3, 56, 0
7, 9000, Note_on_c, 3, 55, 88
7, 9116, Note_off_c, 3, 55, 0
7, 9120, Note_on_c, 3, 53, 88
7, 9236, Note_off_c, 3, 53, 0
7, 9240, Note_on_c, 3, 50, 88
7, 9356, Note_off_c, 3, 50, 0
7, 9360, Note_on_c, 3, 55, 88
7, 9476, Note_off_c, 3, 55, 0
7, 9480, Note_on_c, 3, 43, 88
7, 9596, Note_off_c, 3, 43, 0
7, 9600, Note_on_c, 3, 48, 88
7, 9673, Note_off_c, 3, 48, 0
7, 9675, Note_on_c, 3, 50, 88
7, 9697, Note_off_c, 3, 50, 0
7, 9698, Note_on_c, 3, 48, 88
7, 9719, Note_off_c, 3, 48, 0
7, 9720, Note_on_c, 3, 50, 88
7, 9742, Note_off_c, 3, 50, 0
7, 9743, Note_on_c, 3, 48, 88
7, 9764, Note_off_c, 3, 48, 0
7, 9765, Note_on_c, 3, 50, 88
7, 9787, Note_off_c, 3, 50, 0
7, 9788, Note_on_c, 3, 48, 88
7, 9809, Note_off_c, 3, 48, 0
7, 9810, Note_on_c, 3, 50, 88
7, 9832, Note_off_c, 3, 50, 0
7, 9833, Note_on_c, 3, 48, 88
7, 9854, Note_off_c, 3, 48, 0
7, 9855, Note_on_c, 3, 50, 88
7, 9877, Note_off_c, 3, 50, 0
7, 9878, Note_on_c, 3, 48, 88
7, 9899, Note_off_c, 3, 48, 0
7, 9900, Note_on_c, 3, 50, 88
7, 9922, Note_off_c, 3, 50, 0
7, 9923, Note_on_c, 3, 48, 88
7, 9944, Note_off_c, 3, 48, 0
7, 9945, Note_on_c, 3, 50, 88
7, 9967, Note_off_c, 3, 50, 0
7, 9968, Note_on_c, 3, 48, 88
7, 9989, Note_off_c, 3, 48, 0
7, 9990, Note_on_c, 3, 50, 88
7, 10012, Note_off_c, 3, 50, 0
7, 10013, Note_on_c, 3, 48, 88
7, 10034, Note_off_c, 3, 48, 0
7, 10035, Note_on_c, 3, 50, 88
7, 10057, Note_off_c, 3, 50, 0
7, 10058, Note_on_c, 3, 48, 88
7, 10079, Note_off_c, 3, 48, 0
7, 10080, Note_on_c, 3, 50, 88
7, 10098, Note_off_c, 3, 50, 0
7, 10099, Note_on_c, 3, 48, 88
7, 10117, Note_off_c, 3, 48, 0
7, 10118, Note_on_c, 3, 50, 88
7, 10136, Note_on_c, 3, 48, 88
7, 10136, Note_off_c, 3, 50, 0
7, 10154, Note_off_c, 3, 48, 0
7, 10155, Note_on_c, 3, 50, 88
7, 10173, Note_off_c, 3, 50, 0
7, 10174, Note_on_c, 3, 48, 88
7, 10192, Note_off_c, 3, 48, 0
7, 10193, Note_on_c, 3, 50, 88
7, 10211, Note_on_c, 3, 48, 88
7, 10211, Note_off_c, 3, 50, 0
7, 10229, Note_off_c, 3, 48, 0
7, 10230, Note_on_c, 3, 50, 88
7, 10248, Note_off_c, 3, 50, 0
7, 10249, Note_on_c, 3, 48, 88
7, 10267, Note_off_c, 3, 48, 0
7, 10268, Note_on_c, 3, 50, 88
7, 10286, Note_on_c, 3, 48, 88
7, 10286, Note_off_c, 3, 50, 0
7, 10304, Note_off_c, 3, 48, 0
7, 10305, Note_on_c, 3, 50, 88
7, 10323, Note_off_c, 3, 50, 0
7, 10324, Note_on_c, 3, 48, 88
7, 10342, Note_off_c, 3, 48, 0
7, 10343, Note_on_c, 3, 50, 88
7, 10361, Note_on_c, 3, 48, 88
7, 10361, Note_off_c, 3, 50, 0
7, 10379, Note_off_c, 3, 48, 0
7, 10380, Note_on_c, 3, 50, 88
7, 10398, Note_off_c, 3, 50, 0
7, 10399, Note_on_c, 3, 48, 88
7, 10417, Note_off_c, 3, 48, 0
7, 10418, Note_on_c, 3, 50, 88
7, 10436, Note_on_c, 3, 48, 88
7, 10436, Note_off_c, 3, 50, 0
7, 10454, Note_off_c, 3, 48, 0
7, 10455, Note_on_c, 3, 50, 88
7, 10473, Note_off_c, 3, 50, 0
7, 10474, Note_on_c, 3, 48, 88
7, 10492, Note_off_c, 3, 48, 0
7, 10493, Note_on_c, 3, 50, 88
7, 10511, Note_on_c, 3, 48, 88
7, 10511, Note_off_c, 3, 50, 0
7, 10558, Note_off_c, 3, 48, 0
7, 10560, Note_on_c, 3, 48, 88
7, 10618, Note_off_c, 3, 48, 0
7, 10620, Note_on_c, 3, 43, 88
7, 10649, Note_off_c, 3, 43, 0
7, 10650, Note_on_c, 3, 41, 88
7, 10679, Note_off_c, 3, 41, 0
7, 10680, Note_on_c, 3, 39, 88
7, 10709, Note_off_c, 3, 39, 0
7, 10710, Note_on_c, 3, 41, 88
7, 10739, Note_off_c, 3, 41, 0
7, 10740, Note_on_c, 3, 43, 88
7, 10798, Note_off_c, 3, 43, 0
7, 10800, Note_on_c, 3, 36, 88
7, 10858, Note_off_c, 3, 36, 0
7, 10860, Note_on_c, 3, 60, 88
7, 10889, Note_off_c, 3, 60, 0
7, 10890, Note_on_c, 3, 58, 88
7, 10919, Note_off_c, 3, 58, 0
7, 10920, Note_on_c, 3, 57, 88
7, 10949, Note_off_c, 3, 57, 0
7, 10950, Note_on_c, 3, 58, 88
7, 10979, Note_off_c, 3, 58, 0
7, 10980, Note_on_c, 3, 60, 88
7, 11038, Note_off_c, 3, 60, 0
7, 11040, Note_on_c, 3, 54, 88
7, 11510, Note_off_c, 3, 54, 0
7, 11520, Note_on_c, 3, 55, 88
7, 11578, Note_off_c, 3, 55, 0
7, 11580, Note_on_c, 3, 50, 88
7, 11609, Note_off_c, 3, 50, 0
7, 11610, Note_on_c, 3, 48, 88
7, 11639, Note_off_c, 3, 48, 0
7, 11640, Note_on_c, 3, 46, 88
7, 11669, Note_off_c, 3, 46, 0
7, 11670, Note_on_c, 3, 48, 88
7, 11699, Note_off_c, 3, 48, 0
7, 11700, Note_on_c, 3, 50, 88
7, 11758, Note_off_c, 3, 50, 0
7, 11760, Note_on_c, 3, 43, 88
7, 11818, Note_off_c, 3, 43, 0
7, 11820, Note_on_c, 3, 55, 88
7, 11849, Note_off_c, 3, 55, 0
7, 11850, Note_on_c, 3, 53, 88
7, 11879, Note_off_c, 3, 53, 0
7, 11880, Note_on_c, 3, 51, 88
7, 11909, Note_off_c, 3, 51, 0
7, 11910, Note_on_c, 3, 53, 88
7, 11939, Note_off_c, 3, 53, 0
7, 11940, Note_on_c, 3, 55, 88
7, 11998, Note_off_c, 3, 55, 0
7, 12000, Note_on_c, 3, 48, 88
7, 12470, Note_off_c, 3, 48, 0
7, 12480, Note_on_c, 3, 50, 88
7, 12538, Note_off_c, 3, 50, 0
7, 12540, Note_on_c, 3, 57, 88
7, 12569, Note_off_c, 3, 57, 0
7, 12570, Note_on_c, 3, 58, 88
7, 12599, Note_off_c, 3, 58, 0
7, 12600, Note_on_c, 3, 60, 88
7, 12629, Note_off_c, 3, 60, 0
7, 12630, Note_on_c, 3, 58, 88
7, 12659, Note_off_c, 3, 58, 0
7, 12660, Note_on_c, 3, 57, 88
7, 12718, Note_off_c, 3, 57, 0
7, 12720, Note_on_c, 3, 58, 88
7, 12836, Note_off_c, 3, 58, 0
7, 12840, Note_on_c, 3, 50, 88
7, 12956, Note_off_c, 3, 50, 0
7, 12960, Note_on_c, 3, 57, 88
7, 13076, Note_off_c, 3, 57, 0
7, 13080, Note_on_c, 3, 50, 88
7, 13196, Note_off_c, 3, 50, 0
7, 13200, Note_on_c, 3, 55, 88
7, 13316, Note_off_c, 3, 55, 0
7, 13320, Note_on_c, 3, 50, 88
7, 13436, Note_off_c, 3, 50, 0
7, 13440, Note_on_c, 3, 54, 88
7, 13556, Note_off_c, 3, 54, 0
7, 13560, Note_on_c, 3, 50, 88
7, 13676, Note_off_c, 3, 50, 0
7, 13680, Note_on_c, 3, 52, 88
7, 13796, Note_off_c, 3, 52, 0
7, 13800, Note_on_c, 3, 50, 88
7, 13916, Note_off_c, 3, 50, 0
7, 13920, Note_on_c, 3, 48, 88
7, 13978, Note_off_c, 3, 48, 0
7, 13980, Note_on_c, 3, 57, 88
7, 14009, Note_off_c, 3, 57, 0
7, 14010, Note_on_c, 3, 55, 88
7, 14039, Note_off_c, 3, 55, 0
7, 14040, Note_on_c, 3, 54, 88
7, 14069, Note_off_c, 3, 54, 0
7, 14070, Note_on_c, 3, 55, 88
7, 14099, Note_off_c, 3, 55, 0
7, 14100, Note_on_c, 3, 57, 88
7, 14158, Note_off_c, 3, 57, 0
7, 14160, Note_on_c, 3, 46, 88
7, 14276, Note_off_c, 3, 46, 0
7, 14280, Note_on_c, 3, 47, 88
7, 14396, Note_off_c, 3, 47, 0
7, 14400, Note_on_c, 3, 48, 88
7, 14458, Note_off_c, 3, 48, 0
7, 14460, Note_on_c, 3, 57, 88
7, 14518, Note_off_c, 3, 57, 0
7, 14520, Note_on_c, 3, 46, 88
7, 14578, Note_off_c, 3, 46, 0
7, 14580, Note_on_c, 3, 55, 88
7, 14638, Note_off_c, 3, 55, 0
7, 14640, Note_on_c, 3, 45, 88
7, 14698, Note_off_c, 3, 45, 0
7, 14700, Note_on_c, 3, 54, 88
7, 14758, Note_off_c, 3, 54, 0
7, 14760, Note_on_c, 3, 43, 88
7, 14818, Note_off_c, 3, 43, 0
7, 14820, Note_on_c, 3, 51, 88
7, 14878, Note_off_c, 3, 51, 0
7, 14880, Note_on_c, 3, 42, 88
7, 14996, Note_off_c, 3, 42, 0
7, 15000, Note_on_c, 3, 38, 88
7, 15116, Note_off_c, 3, 38, 0
7, 15120, Note_on_c, 3, 43, 88
7, 15236, Note_off_c, 3, 43, 0
7, 15240, Note_on_c, 3, 55, 88
7, 15356, Note_off_c, 3, 55, 0
7, 15360, Note_on_c, 3, 48, 88
7, 15594, Note_off_c, 3, 48, 0
7, 15660, Note_on_c, 3, 49, 88
7, 15689, Note_off_c, 3, 49, 0
7, 15690, Note_on_c, 3, 50, 88
7, 15719, Note_off_c, 3, 50, 0
7, 15720, Note_on_c, 3, 52, 88
7, 15749, Note_off_c, 3, 52, 0
7, 15750, Note_on_c, 3, 50, 88
7, 15779, Note_off_c, 3, 50, 0
7, 15780, Note_on_c, 3, 49, 88
7, 15838, Note_off_c, 3, 49, 0
7, 16080, Note_on_c, 3, 38, 88
7, 16314, Note_off_c, 3, 38, 0
7, 16320, Note_on_c, 3, 43, 88
7, 17509, Note_off_c, 3, 43, 0
7, 17520, Note_on_c, 3, 43, 88
7, 18228, Note_off_c, 3, 43, 0
7, 18228, End_track
0, 0, End_of_file
