0, 0, Header, 1, 6, 240
1, 0, Start_track
1, 0, Time_signature, 4, 2, 24, 8
1, 0, Tempo, 937500
1, 0, SMPTE_offset, 64, 0, 0, 0, 93
1, 0, End_track
2, 0, Start_track
2, 0, Title_t, "(C) & (P) 1993"
2, 127, End_track
3, 0, Start_track
3, 0, Title_t, "CCARH,Stanford"
3, 0, End_track
4, 0, Start_track
4, 0, Title_t, "Track 1"
4, 0, Program_c, 0, 6
4, 120, Note_on_c, 0, 73, 88
4, 236, Note_off_c, 0, 73, 0
4, 240, Note_on_c, 0, 78, 88
4, 356, Note_off_c, 0, 78, 0
4, 360, Note_on_c, 0, 77, 88
4, 476, Note_off_c, 0, 77, 0
4, 480, Note_on_c, 0, 78, 88
4, 596, Note_off_c, 0, 78, 0
4, 600, Note_on_c, 0, 77, 88
4, 658, Note_off_c, 0, 77, 0
4, 660, Note_on_c, 0, 75, 88
4, 705, Note_off_c, 0, 75, 0
4, 720, Note_on_c, 0, 75, 88
4, 742, Note_off_c, 0, 75, 0
4, 743, Note_on_c, 0, 73, 88
4, 764, Note_off_c, 0, 73, 0
4, 765, Note_on_c, 0, 75, 88
4, 787, Note_off_c, 0, 75, 0
4, 788, Note_on_c, 0, 73, 88
4, 809, Note_off_c, 0, 73, 0
4, 810, Note_on_c, 0, 75, 88
4, 832, Note_off_c, 0, 75, 0
4, 833, Note_on_c, 0, 73, 88
4, 854, Note_off_c, 0, 73, 0
4, 855, Note_on_c, 0, 75, 88
4, 877, Note_off_c, 0, 75, 0
4, 878, Note_on_c, 0, 73, 88
4, 899, Note_off_c, 0, 73, 0
4, 900, Note_on_c, 0, 71, 88
4, 929, Note_off_c, 0, 71, 0
4, 930, Note_on_c, 0, 73, 88
4, 959, Note_off_c, 0, 73, 0
4, 960, Note_on_c, 0, 75, 88
4, 1194, Note_off_c, 0, 75, 0
4, 1320, Note_on_c, 0, 73, 88
4, 1436, Note_off_c, 0, 73, 0
4, 1440, Note_on_c, 0, 71, 88
4, 1556, Note_off_c, 0, 71, 0
4, 1560, Note_on_c, 0, 70, 88
4, 1676, Note_off_c, 0, 70, 0
4, 1680, Note_on_c, 0, 68, 88
4, 1796, Note_off_c, 0, 68, 0
4, 1800, Note_on_c, 0, 73, 88
4, 1916, Note_off_c, 0, 73, 0
4, 1920, Note_on_c, 0, 70, 88
4, 2036, Note_off_c, 0, 70, 0
4, 2040, Note_on_c, 0, 66, 88
4, 2098, Note_off_c, 0, 66, 0
4, 2100, Note_on_c, 0, 78, 88
4, 2158, Note_off_c, 0, 78, 0
4, 2160, Note_on_c, 0, 77, 88
4, 2218, Note_off_c, 0, 77, 0
4, 2220, Note_on_c, 0, 78, 88
4, 2278, Note_off_c, 0, 78, 0
4, 2280, Note_on_c, 0, 80, 88
4, 2338, Note_off_c, 0, 80, 0
4, 2340, Note_on_c, 0, 75, 88
4, 2398, Note_off_c, 0, 75, 0
4, 2400, Note_on_c, 0, 77, 88
4, 2458, Note_off_c, 0, 77, 0
4, 2460, Note_on_c, 0, 78, 88
4, 2518, Note_off_c, 0, 78, 0
4, 2520, Note_on_c, 0, 80, 88
4, 2695, Note_off_c, 0, 80, 0
4, 2700, Note_on_c, 0, 78, 88
4, 2758, Note_off_c, 0, 78, 0
4, 2760, Note_on_c, 0, 77, 88
4, 2818, Note_off_c, 0, 77, 0
4, 2820, Note_on_c, 0, 75, 88
4, 2878, Note_off_c, 0, 75, 0
4, 2880, Note_on_c, 0, 73, 88
4, 2938, Note_off_c, 0, 73, 0
4, 2940, Note_on_c, 0, 75, 88
4, 2998, Note_off_c, 0, 75, 0
4, 3000, Note_on_c, 0, 77, 88
4, 3058, Note_off_c, 0, 77, 0
4, 3060, Note_on_c, 0, 72, 88
4, 3118, Note_off_c, 0, 72, 0
4, 3120, Note_on_c, 0, 73, 88
4, 3178, Note_off_c, 0, 73, 0
4, 3180, Note_on_c, 0, 75, 88
4, 3238, Note_off_c, 0, 75, 0
4, 3240, Note_on_c, 0, 77, 88
4, 3298, Note_off_c, 0, 77, 0
4, 3300, Note_on_c, 0, 73, 88
4, 3358, Note_off_c, 0, 73, 0
4, 3360, Note_on_c, 0, 70, 88
4, 3418, Note_off_c, 0, 70, 0
4, 3420, Note_on_c, 0, 72, 88
4, 3478, Note_off_c, 0, 72, 0
4, 3480, Note_on_c, 0, 73, 88
4, 3714, Note_off_c, 0, 73, 0
4, 3720, Note_on_c, 0, 72, 88
4, 3836, Note_off_c, 0, 72, 0
4, 3840, Note_on_c, 0, 73, 88
4, 4425, Note_off_c, 0, 73, 0
4, 4440, Note_on_c, 0, 73, 88
4, 4498, Note_off_c, 0, 73, 0
4, 4500, Note_on_c, 0, 75, 88
4, 4558, Note_off_c, 0, 75, 0
4, 4560, Note_on_c, 0, 77, 88
4, 4794, Note_off_c, 0, 77, 0
4, 4800, Note_on_c, 0, 78, 88
4, 5034, Note_off_c, 0, 78, 0
4, 5160, Note_on_c, 0, 70, 88
4, 5276, Note_off_c, 0, 70, 0
4, 5280, Note_on_c, 0, 68, 88
4, 5396, Note_off_c, 0, 68, 0
4, 5400, Note_on_c, 0, 70, 88
4, 5516, Note_off_c, 0, 70, 0
4, 5520, Note_on_c, 0, 71, 88
4, 5636, Note_off_c, 0, 71, 0
4, 5640, Note_on_c, 0, 70, 88
4, 5698, Note_off_c, 0, 70, 0
4, 5700, Note_on_c, 0, 68, 88
4, 5758, Note_off_c, 0, 68, 0
4, 5760, Note_on_c, 0, 70, 88
4, 5818, Note_off_c, 0, 70, 0
4, 5820, Note_on_c, 0, 73, 88
4, 5865, Note_off_c, 0, 73, 0
4, 5880, Note_on_c, 0, 73, 88
4, 5938, Note_off_c, 0, 73, 0
4, 5940, Note_on_c, 0, 70, 88
4, 5998, Note_off_c, 0, 70, 0
4, 6000, Note_on_c, 0, 68, 88
4, 6058, Note_off_c, 0, 68, 0
4, 6060, Note_on_c, 0, 73, 88
4, 6105, Note_off_c, 0, 73, 0
4, 6120, Note_on_c, 0, 73, 88
4, 6178, Note_off_c, 0, 73, 0
4, 6180, Note_on_c, 0, 68, 88
4, 6238, Note_off_c, 0, 68, 0
4, 6240, Note_on_c, 0, 70, 88
4, 6356, Note_off_c, 0, 70, 0
4, 6360, Note_on_c, 0, 73, 88
4, 6476, Note_off_c, 0, 73, 0
4, 6480, Note_on_c, 0, 78, 88
4, 6836, Note_off_c, 0, 78, 0
4, 6840, Note_on_c, 0, 77, 88
4, 7074, Note_off_c, 0, 77, 0
4, 7080, Note_on_c, 0, 75, 88
4, 7138, Note_off_c, 0, 75, 0
4, 7140, Note_on_c, 0, 73, 88
4, 7198, Note_off_c, 0, 73, 0
4, 7200, Note_on_c, 0, 72, 88
4, 7316, Note_off_c, 0, 72, 0
4, 7320, Note_on_c, 0, 75, 88
4, 7436, Note_off_c, 0, 75, 0
4, 7440, Note_on_c, 0, 80, 88
4, 7796, Note_off_c, 0, 80, 0
4, 7800, Note_on_c, 0, 78, 88
4, 7858, Note_off_c, 0, 78, 0
4, 7860, Note_on_c, 0, 77, 88
4, 7918, Note_off_c, 0, 77, 0
4, 7920, Note_on_c, 0, 78, 88
4, 8273, Note_off_c, 0, 78, 0
4, 8280, Note_on_c, 0, 77, 88
4, 8338, Note_off_c, 0, 77, 0
4, 8340, Note_on_c, 0, 75, 88
4, 8398, Note_off_c, 0, 75, 0
4, 8400, Note_on_c, 0, 77, 88
4, 8745, Note_off_c, 0, 77, 0
4, 8760, Note_on_c, 0, 77, 88
4, 8876, Note_off_c, 0, 77, 0
4, 8880, Note_on_c, 0, 75, 88
4, 8996, Note_off_c, 0, 75, 0
4, 9000, Note_on_c, 0, 73, 88
4, 9116, Note_off_c, 0, 73, 0
4, 9120, Note_on_c, 0, 72, 88
4, 9236, Note_off_c, 0, 72, 0
4, 9240, Note_on_c, 0, 68, 88
4, 9356, Note_off_c, 0, 68, 0
4, 9360, Note_on_c, 0, 73, 88
4, 9885, Note_off_c, 0, 73, 0
4, 9900, Note_on_c, 0, 73, 88
4, 10016, Note_off_c, 0, 73, 0
4, 10020, Note_on_c, 0, 72, 88
4, 10078, Note_off_c, 0, 72, 0
4, 10080, Note_on_c, 0, 73, 88
4, 10185, Note_off_c, 0, 73, 0
4, 10200, Note_on_c, 0, 73, 88
4, 10316, Note_off_c, 0, 73, 0
4, 10320, Note_on_c, 0, 78, 88
4, 10436, Note_off_c, 0, 78, 0
4, 10440, Note_on_c, 0, 77, 88
4, 10556, Note_off_c, 0, 77, 0
4, 10560, Note_on_c, 0, 78, 88
4, 10676, Note_off_c, 0, 78, 0
4, 10680, Note_on_c, 0, 77, 88
4, 10738, Note_off_c, 0, 77, 0
4, 10740, Note_on_c, 0, 75, 88
4, 10798, Note_off_c, 0, 75, 0
4, 10800, Note_on_c, 0, 73, 88
4, 11034, Note_off_c, 0, 73, 0
4, 11040, Note_on_c, 0, 75, 88
4, 11274, Note_off_c, 0, 75, 0
4, 11400, Note_on_c, 0, 73, 88
4, 11516, Note_off_c, 0, 73, 0
4, 11520, Note_on_c, 0, 71, 88
4, 11636, Note_off_c, 0, 71, 0
4, 11640, Note_on_c, 0, 70, 88
4, 11756, Note_off_c, 0, 70, 0
4, 11760, Note_on_c, 0, 68, 88
4, 11876, Note_off_c, 0, 68, 0
4, 11880, Note_on_c, 0, 73, 88
4, 11996, Note_off_c, 0, 73, 0
4, 12000, Note_on_c, 0, 70, 88
4, 12105, Note_off_c, 0, 70, 0
4, 12120, Note_on_c, 0, 70, 88
4, 12236, Note_off_c, 0, 70, 0
4, 12240, Note_on_c, 0, 75, 88
4, 12356, Note_off_c, 0, 75, 0
4, 12360, Note_on_c, 0, 74, 88
4, 12476, Note_off_c, 0, 74, 0
4, 12480, Note_on_c, 0, 75, 88
4, 12714, Note_off_c, 0, 75, 0
4, 12840, Note_on_c, 0, 77, 88
4, 12956, Note_off_c, 0, 77, 0
4, 12960, Note_on_c, 0, 78, 88
4, 13076, Note_off_c, 0, 78, 0
4, 13080, Note_on_c, 0, 80, 88
4, 13196, Note_off_c, 0, 80, 0
4, 13200, Note_on_c, 0, 82, 88
4, 13316, Note_off_c, 0, 82, 0
4, 13320, Note_on_c, 0, 78, 88
4, 13436, Note_off_c, 0, 78, 0
4, 13440, Note_on_c, 0, 75, 88
4, 13674, Note_off_c, 0, 75, 0
4, 13800, Note_on_c, 0, 80, 88
4, 13916, Note_off_c, 0, 80, 0
4, 13920, Note_on_c, 0, 77, 88
4, 14154, Note_off_c, 0, 77, 0
4, 14280, Note_on_c, 0, 77, 88
4, 14396, Note_off_c, 0, 77, 0
4, 14400, Note_on_c, 0, 75, 88
4, 14458, Note_off_c, 0, 75, 0
4, 14460, Note_on_c, 0, 72, 88
4, 14518, Note_off_c, 0, 72, 0
4, 14520, Note_on_c, 0, 73, 88
4, 14578, Note_off_c, 0, 73, 0
4, 14580, Note_on_c, 0, 77, 88
4, 14638, Note_off_c, 0, 77, 0
4, 14640, Note_on_c, 0, 75, 88
4, 14698, Note_off_c, 0, 75, 0
4, 14700, Note_on_c, 0, 72, 88
4, 14758, Note_off_c, 0, 72, 0
4, 14760, Note_on_c, 0, 73, 88
4, 14935, Note_off_c, 0, 73, 0
4, 14940, Note_on_c, 0, 72, 88
4, 14998, Note_off_c, 0, 72, 0
4, 15000, Note_on_c, 0, 73, 88
4, 15234, Note_off_c, 0, 73, 0
4, 15240, Note_on_c, 0, 72, 88
4, 15356, Note_off_c, 0, 72, 0
4, 15360, Note_on_c, 0, 73, 88
4, 15594, Note_off_c, 0, 73, 0
4, 15720, Note_on_c, 0, 72, 88
4, 15836, Note_off_c, 0, 72, 0
4, 15840, Note_on_c, 0, 73, 88
4, 15898, Note_off_c, 0, 73, 0
4, 15900, Note_on_c, 0, 77, 88
4, 15945, Note_off_c, 0, 77, 0
4, 15960, Note_on_c, 0, 77, 88
4, 16018, Note_off_c, 0, 77, 0
4, 16020, Note_on_c, 0, 73, 88
4, 16078, Note_off_c, 0, 73, 0
4, 16080, Note_on_c, 0, 72, 88
4, 16138, Note_off_c, 0, 72, 0
4, 16140, Note_on_c, 0, 77, 88
4, 16185, Note_off_c, 0, 77, 0
4, 16200, Note_on_c, 0, 77, 88
4, 16258, Note_off_c, 0, 77, 0
4, 16260, Note_on_c, 0, 72, 88
4, 16318, Note_off_c, 0, 72, 0
4, 16320, Note_on_c, 0, 73, 88
4, 16436, Note_off_c, 0, 73, 0
4, 16440, Note_on_c, 0, 77, 88
4, 16556, Note_off_c, 0, 77, 0
4, 16560, Note_on_c, 0, 82, 88
4, 16913, Note_off_c, 0, 82, 0
4, 16920, Note_on_c, 0, 80, 88
4, 16978, Note_off_c, 0, 80, 0
4, 16980, Note_on_c, 0, 78, 88
4, 17038, Note_off_c, 0, 78, 0
4, 17040, Note_on_c, 0, 80, 88
4, 17396, Note_off_c, 0, 80, 0
4, 17400, Note_on_c, 0, 78, 88
4, 17458, Note_off_c, 0, 78, 0
4, 17460, Note_on_c, 0, 77, 88
4, 17518, Note_off_c, 0, 77, 0
4, 17520, Note_on_c, 0, 78, 88
4, 17865, Note_off_c, 0, 78, 0
4, 17880, Note_on_c, 0, 78, 88
4, 17996, Note_off_c, 0, 78, 0
4, 18000, Note_on_c, 0, 77, 88
4, 18116, Note_off_c, 0, 77, 0
4, 18120, Note_on_c, 0, 75, 88
4, 18236, Note_off_c, 0, 75, 0
4, 18240, Note_on_c, 0, 74, 88
4, 18356, Note_off_c, 0, 74, 0
4, 18840, Note_on_c, 0, 63, 88
4, 18898, Note_off_c, 0, 63, 0
4, 18900, Note_on_c, 0, 65, 88
4, 18958, Note_off_c, 0, 65, 0
4, 18960, Note_on_c, 0, 66, 88
4, 19018, Note_off_c, 0, 66, 0
4, 19020, Note_on_c, 0, 63, 88
4, 19065, Note_off_c, 0, 63, 0
4, 19080, Note_on_c, 0, 63, 88
4, 19138, Note_off_c, 0, 63, 0
4, 19140, Note_on_c, 0, 66, 88
4, 19198, Note_off_c, 0, 66, 0
4, 19200, Note_on_c, 0, 68, 88
4, 19258, Note_off_c, 0, 68, 0
4, 19260, Note_on_c, 0, 63, 88
4, 19305, Note_off_c, 0, 63, 0
4, 19320, Note_on_c, 0, 63, 88
4, 19378, Note_off_c, 0, 63, 0
4, 19380, Note_on_c, 0, 68, 88
4, 19438, Note_off_c, 0, 68, 0
4, 19440, Note_on_c, 0, 70, 88
4, 19498, Note_off_c, 0, 70, 0
4, 19500, Note_on_c, 0, 63, 88
4, 19545, Note_off_c, 0, 63, 0
4, 19560, Note_on_c, 0, 63, 88
4, 19618, Note_off_c, 0, 63, 0
4, 19620, Note_on_c, 0, 70, 88
4, 19678, Note_off_c, 0, 70, 0
4, 19680, Note_on_c, 0, 71, 88
4, 19738, Note_off_c, 0, 71, 0
4, 19740, Note_on_c, 0, 63, 88
4, 19785, Note_off_c, 0, 63, 0
4, 19800, Note_on_c, 0, 63, 88
4, 19858, Note_off_c, 0, 63, 0
4, 19860, Note_on_c, 0, 71, 88
4, 19918, Note_off_c, 0, 71, 0
4, 19920, Note_on_c, 0, 74, 88
4, 19978, Note_off_c, 0, 74, 0
4, 19980, Note_on_c, 0, 63, 88
4, 20025, Note_off_c, 0, 63, 0
4, 20040, Note_on_c, 0, 63, 88
4, 20098, Note_off_c, 0, 63, 0
4, 20100, Note_on_c, 0, 74, 88
4, 20158, Note_off_c, 0, 74, 0
4, 20160, Note_on_c, 0, 75, 88
4, 20394, Note_off_c, 0, 75, 0
4, 20460, Note_on_c, 0, 77, 88
4, 20518, Note_off_c, 0, 77, 0
4, 20520, Note_on_c, 0, 78, 88
4, 20578, Note_off_c, 0, 78, 0
4, 20580, Note_on_c, 0, 80, 88
4, 20638, Note_off_c, 0, 80, 0
4, 20640, Note_on_c, 0, 74, 88
4, 20698, Note_off_c, 0, 74, 0
4, 20700, Note_on_c, 0, 83, 88
4, 20758, Note_off_c, 0, 83, 0
4, 20760, Note_on_c, 0, 82, 88
4, 20876, Note_off_c, 0, 82, 0
4, 20880, Note_on_c, 0, 80, 88
4, 20902, Note_off_c, 0, 80, 0
4, 20903, Note_on_c, 0, 78, 88
4, 20928, Note_off_c, 0, 78, 0
4, 20929, Note_on_c, 0, 80, 88
4, 20951, Note_on_c, 0, 78, 88
4, 20951, Note_off_c, 0, 80, 0
4, 20998, Note_off_c, 0, 78, 0
4, 21000, Note_on_c, 0, 77, 88
4, 21058, Note_off_c, 0, 77, 0
4, 21060, Note_on_c, 0, 75, 88
4, 21118, Note_off_c, 0, 75, 0
4, 21120, Note_on_c, 0, 75, 88
4, 21236, Note_off_c, 0, 75, 0
4, 21240, Note_on_c, 0, 78, 88
4, 21356, Note_off_c, 0, 78, 0
4, 21360, Note_on_c, 0, 83, 88
4, 21476, Note_off_c, 0, 83, 0
4, 21480, Note_on_c, 0, 82, 88
4, 21596, Note_off_c, 0, 82, 0
4, 21600, Note_on_c, 0, 83, 88
4, 22196, Note_off_c, 0, 83, 0
4, 22200, Note_on_c, 0, 77, 88
4, 22316, Note_off_c, 0, 77, 0
4, 22320, Note_on_c, 0, 82, 88
4, 22436, Note_off_c, 0, 82, 0
4, 22440, Note_on_c, 0, 80, 88
4, 22556, Note_off_c, 0, 80, 0
4, 22560, Note_on_c, 0, 82, 88
4, 23145, Note_off_c, 0, 82, 0
4, 23160, Note_on_c, 0, 82, 88
4, 23276, Note_off_c, 0, 82, 0
4, 23280, Note_on_c, 0, 80, 88
4, 23396, Note_off_c, 0, 80, 0
4, 23400, Note_on_c, 0, 78, 88
4, 23516, Note_off_c, 0, 78, 0
4, 23520, Note_on_c, 0, 77, 88
4, 23754, Note_off_c, 0, 77, 0
4, 23760, Note_on_c, 0, 76, 88
4, 24058, Note_off_c, 0, 76, 0
4, 24060, Note_on_c, 0, 73, 88
4, 24105, Note_off_c, 0, 73, 0
4, 24120, Note_on_c, 0, 73, 88
4, 24178, Note_off_c, 0, 73, 0
4, 24180, Note_on_c, 0, 76, 88
4, 24238, Note_off_c, 0, 76, 0
4, 24240, Note_on_c, 0, 75, 88
4, 24298, Note_off_c, 0, 75, 0
4, 24300, Note_on_c, 0, 71, 88
4, 24345, Note_off_c, 0, 71, 0
4, 24360, Note_on_c, 0, 71, 88
4, 24418, Note_off_c, 0, 71, 0
4, 24420, Note_on_c, 0, 75, 88
4, 24465, Note_off_c, 0, 75, 0
4, 24480, Note_on_c, 0, 75, 88
4, 24538, Note_off_c, 0, 75, 0
4, 24540, Note_on_c, 0, 71, 88
4, 24585, Note_off_c, 0, 71, 0
4, 24600, Note_on_c, 0, 71, 88
4, 24658, Note_off_c, 0, 71, 0
4, 24660, Note_on_c, 0, 75, 88
4, 24718, Note_off_c, 0, 75, 0
4, 24720, Note_on_c, 0, 73, 88
4, 24778, Note_off_c, 0, 73, 0
4, 24780, Note_on_c, 0, 70, 88
4, 24825, Note_off_c, 0, 70, 0
4, 24840, Note_on_c, 0, 70, 88
4, 24898, Note_off_c, 0, 70, 0
4, 24900, Note_on_c, 0, 73, 88
4, 24958, Note_off_c, 0, 73, 0
4, 24960, Note_on_c, 0, 73, 88
4, 25018, Note_off_c, 0, 73, 0
4, 25020, Note_on_c, 0, 70, 88
4, 25065, Note_off_c, 0, 70, 0
4, 25080, Note_on_c, 0, 70, 88
4, 25138, Note_off_c, 0, 70, 0
4, 25140, Note_on_c, 0, 73, 88
4, 25198, Note_off_c, 0, 73, 0
4, 25200, Note_on_c, 0, 71, 88
4, 25258, Note_off_c, 0, 71, 0
4, 25260, Note_on_c, 0, 68, 88
4, 25305, Note_off_c, 0, 68, 0
4, 25320, Note_on_c, 0, 68, 88
4, 25378, Note_off_c, 0, 68, 0
4, 25380, Note_on_c, 0, 71, 88
4, 25425, Note_off_c, 0, 71, 0
4, 25440, Note_on_c, 0, 71, 88
4, 25498, Note_off_c, 0, 71, 0
4, 25500, Note_on_c, 0, 68, 88
4, 25545, Note_off_c, 0, 68, 0
4, 25560, Note_on_c, 0, 68, 88
4, 25618, Note_off_c, 0, 68, 0
4, 25620, Note_on_c, 0, 71, 88
4, 25678, Note_off_c, 0, 71, 0
4, 25680, Note_on_c, 0, 70, 88
4, 25738, Note_off_c, 0, 70, 0
4, 25740, Note_on_c, 0, 71, 88
4, 25798, Note_off_c, 0, 71, 0
4, 25800, Note_on_c, 0, 73, 88
4, 25858, Note_off_c, 0, 73, 0
4, 25860, Note_on_c, 0, 68, 88
4, 25918, Note_off_c, 0, 68, 0
4, 25920, Note_on_c, 0, 70, 88
4, 26036, Note_off_c, 0, 70, 0
4, 26040, Note_on_c, 0, 73, 88
4, 26156, Note_off_c, 0, 73, 0
4, 26160, Note_on_c, 0, 75, 88
4, 26276, Note_off_c, 0, 75, 0
4, 26280, Note_on_c, 0, 76, 88
4, 26455, Note_off_c, 0, 76, 0
4, 26460, Note_on_c, 0, 75, 88
4, 26518, Note_off_c, 0, 75, 0
4, 26520, Note_on_c, 0, 73, 88
4, 26578, Note_off_c, 0, 73, 0
4, 26580, Note_on_c, 0, 76, 88
4, 26638, Note_off_c, 0, 76, 0
4, 26640, Note_on_c, 0, 75, 88
4, 26698, Note_off_c, 0, 75, 0
4, 26700, Note_on_c, 0, 71, 88
4, 26745, Note_off_c, 0, 71, 0
4, 26760, Note_on_c, 0, 71, 88
4, 26818, Note_off_c, 0, 71, 0
4, 26820, Note_on_c, 0, 75, 88
4, 26878, Note_off_c, 0, 75, 0
4, 26880, Note_on_c, 0, 76, 88
4, 26938, Note_off_c, 0, 76, 0
4, 26940, Note_on_c, 0, 71, 88
4, 26985, Note_off_c, 0, 71, 0
4, 27000, Note_on_c, 0, 71, 88
4, 27058, Note_off_c, 0, 71, 0
4, 27060, Note_on_c, 0, 76, 88
4, 27118, Note_off_c, 0, 76, 0
4, 27120, Note_on_c, 0, 78, 88
4, 27178, Note_off_c, 0, 78, 0
4, 27180, Note_on_c, 0, 71, 88
4, 27225, Note_off_c, 0, 71, 0
4, 27240, Note_on_c, 0, 71, 88
4, 27298, Note_off_c, 0, 71, 0
4, 27300, Note_on_c, 0, 78, 88
4, 27358, Note_off_c, 0, 78, 0
4, 27360, Note_on_c, 0, 80, 88
4, 27418, Note_off_c, 0, 80, 0
4, 27420, Note_on_c, 0, 71, 88
4, 27465, Note_off_c, 0, 71, 0
4, 27480, Note_on_c, 0, 71, 88
4, 27538, Note_off_c, 0, 71, 0
4, 27540, Note_on_c, 0, 80, 88
4, 27598, Note_off_c, 0, 80, 0
4, 27600, Note_on_c, 0, 82, 88
4, 27658, Note_off_c, 0, 82, 0
4, 27660, Note_on_c, 0, 71, 88
4, 27705, Note_off_c, 0, 71, 0
4, 27720, Note_on_c, 0, 71, 88
4, 27778, Note_off_c, 0, 71, 0
4, 27780, Note_on_c, 0, 82, 88
4, 27838, Note_off_c, 0, 82, 0
4, 27840, Note_on_c, 0, 83, 88
4, 27956, Note_off_c, 0, 83, 0
4, 28440, Note_on_c, 0, 75, 88
4, 28556, Note_off_c, 0, 75, 0
4, 28560, Note_on_c, 0, 80, 88
4, 28676, Note_off_c, 0, 80, 0
4, 28680, Note_on_c, 0, 79, 88
4, 28796, Note_off_c, 0, 79, 0
4, 28800, Note_on_c, 0, 80, 88
4, 28916, Note_off_c, 0, 80, 0
4, 28920, Note_on_c, 0, 82, 88
4, 29036, Note_off_c, 0, 82, 0
4, 29040, Note_on_c, 0, 83, 88
4, 29156, Note_off_c, 0, 83, 0
4, 29160, Note_on_c, 0, 80, 88
4, 29276, Note_off_c, 0, 80, 0
4, 29280, Note_on_c, 0, 77, 88
4, 29396, Note_off_c, 0, 77, 0
4, 29400, Note_on_c, 0, 73, 88
4, 29516, Note_off_c, 0, 73, 0
4, 29520, Note_on_c, 0, 78, 88
4, 29636, Note_off_c, 0, 78, 0
4, 29640, Note_on_c, 0, 77, 88
4, 29756, Note_off_c, 0, 77, 0
4, 29760, Note_on_c, 0, 78, 88
4, 29876, Note_off_c, 0, 78, 0
4, 29880, Note_on_c, 0, 77, 88
4, 29938, Note_off_c, 0, 77, 0
4, 29940, Note_on_c, 0, 75, 88
4, 29985, Note_off_c, 0, 75, 0
4, 30000, Note_on_c, 0, 75, 88
4, 30022, Note_off_c, 0, 75, 0
4, 30023, Note_on_c, 0, 73, 88
4, 30044, Note_off_c, 0, 73, 0
4, 30045, Note_on_c, 0, 75, 88
4, 30067, Note_off_c, 0, 75, 0
4, 30068, Note_on_c, 0, 73, 88
4, 30089, Note_off_c, 0, 73, 0
4, 30090, Note_on_c, 0, 75, 88
4, 30112, Note_off_c, 0, 75, 0
4, 30113, Note_on_c, 0, 73, 88
4, 30134, Note_off_c, 0, 73, 0
4, 30135, Note_on_c, 0, 75, 88
4, 30157, Note_off_c, 0, 75, 0
4, 30158, Note_on_c, 0, 73, 88
4, 30179, Note_off_c, 0, 73, 0
4, 30180, Note_on_c, 0, 71, 88
4, 30209, Note_off_c, 0, 71, 0
4, 30210, Note_on_c, 0, 73, 88
4, 30239, Note_off_c, 0, 73, 0
4, 30240, Note_on_c, 0, 75, 88
4, 30474, Note_off_c, 0, 75, 0
4, 30600, Note_on_c, 0, 73, 88
4, 30716, Note_off_c, 0, 73, 0
4, 30720, Note_on_c, 0, 71, 88
4, 30836, Note_off_c, 0, 71, 0
4, 30840, Note_on_c, 0, 70, 88
4, 30956, Note_off_c, 0, 70, 0
4, 30960, Note_on_c, 0, 68, 88
4, 31076, Note_off_c, 0, 68, 0
4, 31080, Note_on_c, 0, 73, 88
4, 31196, Note_off_c, 0, 73, 0
4, 31200, Note_on_c, 0, 70, 88
4, 31258, Note_off_c, 0, 70, 0
4, 31260, Note_on_c, 0, 73, 88
4, 31305, Note_off_c, 0, 73, 0
4, 31320, Note_on_c, 0, 73, 88
4, 31378, Note_off_c, 0, 73, 0
4, 31380, Note_on_c, 0, 70, 88
4, 31438, Note_off_c, 0, 70, 0
4, 31440, Note_on_c, 0, 68, 88
4, 31498, Note_off_c, 0, 68, 0
4, 31500, Note_on_c, 0, 73, 88
4, 31545, Note_off_c, 0, 73, 0
4, 31560, Note_on_c, 0, 73, 88
4, 31618, Note_off_c, 0, 73, 0
4, 31620, Note_on_c, 0, 68, 88
4, 31678, Note_off_c, 0, 68, 0
4, 31680, Note_on_c, 0, 70, 88
4, 31796, Note_off_c, 0, 70, 0
4, 31800, Note_on_c, 0, 73, 88
4, 31916, Note_off_c, 0, 73, 0
4, 31920, Note_on_c, 0, 78, 88
4, 32390, Note_off_c, 0, 78, 0
4, 32400, Note_on_c, 0, 77, 88
4, 32634, Note_off_c, 0, 77, 0
4, 32640, Note_on_c, 0, 78, 88
4, 33585, Note_off_c, 0, 78, 0
4, 33585, End_track
5, 0, Start_track
5, 0, Title_t, "Track 2"
5, 0, Program_c, 1, 6
5, 2040, Note_on_c, 1, 66, 88
5, 2156, Note_off_c, 1, 66, 0
5, 2160, Note_on_c, 1, 73, 88
5, 2276, Note_off_c, 1, 73, 0
5, 2280, Note_on_c, 1, 72, 88
5, 2396, Note_off_c, 1, 72, 0
5, 2400, Note_on_c, 1, 73, 88
5, 2516, Note_off_c, 1, 73, 0
5, 2520, Note_on_c, 1, 72, 88
5, 2578, Note_off_c, 1, 72, 0
5, 2580, Note_on_c, 1, 70, 88
5, 2625, Note_off_c, 1, 70, 0
5, 2640, Note_on_c, 1, 70, 88
5, 2662, Note_off_c, 1, 70, 0
5, 2663, Note_on_c, 1, 68, 88
5, 2684, Note_off_c, 1, 68, 0
5, 2685, Note_on_c, 1, 70, 88
5, 2707, Note_off_c, 1, 70, 0
5, 2708, Note_on_c, 1, 68, 88
5, 2729, Note_off_c, 1, 68, 0
5, 2730, Note_on_c, 1, 70, 88
5, 2752, Note_off_c, 1, 70, 0
5, 2753, Note_on_c, 1, 68, 88
5, 2774, Note_off_c, 1, 68, 0
5, 2775, Note_on_c, 1, 70, 88
5, 2797, Note_off_c, 1, 70, 0
5, 2798, Note_on_c, 1, 68, 88
5, 2819, Note_off_c, 1, 68, 0
5, 2820, Note_on_c, 1, 66, 88
5, 2849, Note_off_c, 1, 66, 0
5, 2850, Note_on_c, 1, 68, 88
5, 2879, Note_off_c, 1, 68, 0
5, 2880, Note_on_c, 1, 70, 88
5, 3114, Note_off_c, 1, 70, 0
5, 3240, Note_on_c, 1, 68, 88
5, 3356, Note_off_c, 1, 68, 0
5, 3360, Note_on_c, 1, 66, 88
5, 3476, Note_off_c, 1, 66, 0
5, 3480, Note_on_c, 1, 65, 88
5, 3596, Note_off_c, 1, 65, 0
5, 3600, Note_on_c, 1, 63, 88
5, 3716, Note_off_c, 1, 63, 0
5, 3720, Note_on_c, 1, 68, 88
5, 3836, Note_off_c, 1, 68, 0
5, 3840, Note_on_c, 1, 65, 88
5, 3956, Note_off_c, 1, 65, 0
5, 3960, Note_on_c, 1, 61, 88
5, 4018, Note_off_c, 1, 61, 0
5, 4020, Note_on_c, 1, 71, 88
5, 4078, Note_off_c, 1, 71, 0
5, 4080, Note_on_c, 1, 70, 88
5, 4138, Note_off_c, 1, 70, 0
5, 4140, Note_on_c, 1, 71, 88
5, 4198, Note_off_c, 1, 71, 0
5, 4200, Note_on_c, 1, 73, 88
5, 4258, Note_off_c, 1, 73, 0
5, 4260, Note_on_c, 1, 68, 88
5, 4318, Note_off_c, 1, 68, 0
5, 4320, Note_on_c, 1, 70, 88
5, 4378, Note_off_c, 1, 70, 0
5, 4380, Note_on_c, 1, 71, 88
5, 4438, Note_off_c, 1, 71, 0
5, 4440, Note_on_c, 1, 73, 88
5, 4615, Note_off_c, 1, 73, 0
5, 4620, Note_on_c, 1, 71, 88
5, 4678, Note_off_c, 1, 71, 0
5, 4680, Note_on_c, 1, 70, 88
5, 4738, Note_off_c, 1, 70, 0
5, 4740, Note_on_c, 1, 68, 88
5, 4798, Note_off_c, 1, 68, 0
5, 4800, Note_on_c, 1, 66, 88
5, 4858, Note_off_c, 1, 66, 0
5, 4860, Note_on_c, 1, 68, 88
5, 4918, Note_off_c, 1, 68, 0
5, 4920, Note_on_c, 1, 70, 88
5, 4978, Note_off_c, 1, 70, 0
5, 4980, Note_on_c, 1, 65, 88
5, 5038, Note_off_c, 1, 65, 0
5, 5040, Note_on_c, 1, 66, 88
5, 5098, Note_off_c, 1, 66, 0
5, 5100, Note_on_c, 1, 68, 88
5, 5158, Note_off_c, 1, 68, 0
5, 5160, Note_on_c, 1, 70, 88
5, 5218, Note_off_c, 1, 70, 0
5, 5220, Note_on_c, 1, 66, 88
5, 5278, Note_off_c, 1, 66, 0
5, 5280, Note_on_c, 1, 63, 88
5, 5338, Note_off_c, 1, 63, 0
5, 5340, Note_on_c, 1, 65, 88
5, 5398, Note_off_c, 1, 65, 0
5, 5400, Note_on_c, 1, 66, 88
5, 5634, Note_off_c, 1, 66, 0
5, 5640, Note_on_c, 1, 65, 88
5, 5756, Note_off_c, 1, 65, 0
5, 5760, Note_on_c, 1, 66, 88
5, 5994, Note_off_c, 1, 66, 0
5, 6120, Note_on_c, 1, 65, 88
5, 6236, Note_off_c, 1, 65, 0
5, 6240, Note_on_c, 1, 66, 88
5, 6474, Note_off_c, 1, 66, 0
5, 6600, Note_on_c, 1, 70, 88
5, 6716, Note_off_c, 1, 70, 0
5, 6720, Note_on_c, 1, 75, 88
5, 6778, Note_off_c, 1, 75, 0
5, 6780, Note_on_c, 1, 68, 88
5, 6825, Note_off_c, 1, 68, 0
5, 6840, Note_on_c, 1, 68, 88
5, 6898, Note_off_c, 1, 68, 0
5, 6900, Note_on_c, 1, 73, 88
5, 6958, Note_off_c, 1, 73, 0
5, 6960, Note_on_c, 1, 70, 88
5, 7018, Note_off_c, 1, 70, 0
5, 7020, Note_on_c, 1, 66, 88
5, 7065, Note_off_c, 1, 66, 0
5, 7080, Note_on_c, 1, 66, 88
5, 7138, Note_off_c, 1, 66, 0
5, 7140, Note_on_c, 1, 70, 88
5, 7198, Note_off_c, 1, 70, 0
5, 7200, Note_on_c, 1, 68, 88
5, 7434, Note_off_c, 1, 68, 0
5, 7560, Note_on_c, 1, 72, 88
5, 7676, Note_off_c, 1, 72, 0
5, 7680, Note_on_c, 1, 70, 88
5, 7914, Note_off_c, 1, 70, 0
5, 8040, Note_on_c, 1, 70, 88
5, 8156, Note_off_c, 1, 70, 0
5, 8160, Note_on_c, 1, 68, 88
5, 8394, Note_off_c, 1, 68, 0
5, 8520, Note_on_c, 1, 68, 88
5, 8636, Note_off_c, 1, 68, 0
5, 8640, Note_on_c, 1, 66, 88
5, 8934, Note_off_c, 1, 66, 0
5, 8940, Note_on_c, 1, 68, 88
5, 8998, Note_off_c, 1, 68, 0
5, 9000, Note_on_c, 1, 70, 88
5, 9058, Note_off_c, 1, 70, 0
5, 9060, Note_on_c, 1, 66, 88
5, 9118, Note_off_c, 1, 66, 0
5, 9120, Note_on_c, 1, 63, 88
5, 9354, Note_off_c, 1, 63, 0
5, 9480, Note_on_c, 1, 68, 88
5, 9596, Note_off_c, 1, 68, 0
5, 9600, Note_on_c, 1, 66, 88
5, 9716, Note_off_c, 1, 66, 0
5, 9720, Note_on_c, 1, 65, 88
5, 9836, Note_off_c, 1, 65, 0
5, 9840, Note_on_c, 1, 63, 88
5, 9945, Note_off_c, 1, 63, 0
5, 9960, Note_on_c, 1, 63, 88
5, 10076, Note_off_c, 1, 63, 0
5, 10080, Note_on_c, 1, 65, 88
5, 10138, Note_off_c, 1, 65, 0
5, 10140, Note_on_c, 1, 68, 88
5, 10198, Note_off_c, 1, 68, 0
5, 10200, Note_on_c, 1, 73, 88
5, 10258, Note_off_c, 1, 73, 0
5, 10260, Note_on_c, 1, 71, 88
5, 10318, Note_off_c, 1, 71, 0
5, 10320, Note_on_c, 1, 70, 88
5, 10378, Note_off_c, 1, 70, 0
5, 10380, Note_on_c, 1, 71, 88
5, 10438, Note_off_c, 1, 71, 0
5, 10440, Note_on_c, 1, 73, 88
5, 10498, Note_off_c, 1, 73, 0
5, 10500, Note_on_c, 1, 68, 88
5, 10558, Note_off_c, 1, 68, 0
5, 10560, Note_on_c, 1, 70, 88
5, 10618, Note_off_c, 1, 70, 0
5, 10620, Note_on_c, 1, 71, 88
5, 10678, Note_off_c, 1, 71, 0
5, 10680, Note_on_c, 1, 73, 88
5, 10855, Note_off_c, 1, 73, 0
5, 10860, Note_on_c, 1, 71, 88
5, 10918, Note_off_c, 1, 71, 0
5, 10920, Note_on_c, 1, 70, 88
5, 10978, Note_off_c, 1, 70, 0
5, 10980, Note_on_c, 1, 68, 88
5, 11038, Note_off_c, 1, 68, 0
5, 11040, Note_on_c, 1, 66, 88
5, 11098, Note_off_c, 1, 66, 0
5, 11100, Note_on_c, 1, 68, 88
5, 11158, Note_off_c, 1, 68, 0
5, 11160, Note_on_c, 1, 70, 88
5, 11218, Note_off_c, 1, 70, 0
5, 11220, Note_on_c, 1, 65, 88
5, 11278, Note_off_c, 1, 65, 0
5, 11280, Note_on_c, 1, 66, 88
5, 11338, Note_off_c, 1, 66, 0
5, 11340, Note_on_c, 1, 68, 88
5, 11398, Note_off_c, 1, 68, 0
5, 11400, Note_on_c, 1, 70, 88
5, 11458, Note_off_c, 1, 70, 0
5, 11460, Note_on_c, 1, 65, 88
5, 11518, Note_off_c, 1, 65, 0
5, 11520, Note_on_c, 1, 66, 88
5, 11754, Note_off_c, 1, 66, 0
5, 11760, Note_on_c, 1, 68, 88
5, 12113, Note_off_c, 1, 68, 0
5, 12120, Note_on_c, 1, 66, 88
5, 12236, Note_off_c, 1, 66, 0
5, 12600, Note_on_c, 1, 70, 88
5, 12716, Note_off_c, 1, 70, 0
5, 12720, Note_on_c, 1, 75, 88
5, 12836, Note_off_c, 1, 75, 0
5, 12840, Note_on_c, 1, 74, 88
5, 12956, Note_off_c, 1, 74, 0
5, 12960, Note_on_c, 1, 75, 88
5, 13076, Note_off_c, 1, 75, 0
5, 13080, Note_on_c, 1, 77, 88
5, 13196, Note_off_c, 1, 77, 0
5, 13200, Note_on_c, 1, 78, 88
5, 13316, Note_off_c, 1, 78, 0
5, 13320, Note_on_c, 1, 75, 88
5, 13436, Note_off_c, 1, 75, 0
5, 13440, Note_on_c, 1, 72, 88
5, 13556, Note_off_c, 1, 72, 0
5, 13560, Note_on_c, 1, 68, 88
5, 13676, Note_off_c, 1, 68, 0
5, 13680, Note_on_c, 1, 73, 88
5, 13796, Note_off_c, 1, 73, 0
5, 13800, Note_on_c, 1, 72, 88
5, 13916, Note_off_c, 1, 72, 0
5, 13920, Note_on_c, 1, 73, 88
5, 14036, Note_off_c, 1, 73, 0
5, 14040, Note_on_c, 1, 72, 88
5, 14098, Note_off_c, 1, 72, 0
5, 14100, Note_on_c, 1, 70, 88
5, 14145, Note_off_c, 1, 70, 0
5, 14160, Note_on_c, 1, 70, 88
5, 14182, Note_off_c, 1, 70, 0
5, 14183, Note_on_c, 1, 68, 88
5, 14204, Note_off_c, 1, 68, 0
5, 14205, Note_on_c, 1, 70, 88
5, 14227, Note_off_c, 1, 70, 0
5, 14228, Note_on_c, 1, 68, 88
5, 14249, Note_off_c, 1, 68, 0
5, 14250, Note_on_c, 1, 70, 88
5, 14272, Note_off_c, 1, 70, 0
5, 14273, Note_on_c, 1, 68, 88
5, 14294, Note_off_c, 1, 68, 0
5, 14295, Note_on_c, 1, 70, 88
5, 14317, Note_off_c, 1, 70, 0
5, 14318, Note_on_c, 1, 68, 88
5, 14339, Note_off_c, 1, 68, 0
5, 14340, Note_on_c, 1, 66, 88
5, 14369, Note_off_c, 1, 66, 0
5, 14370, Note_on_c, 1, 68, 88
5, 14399, Note_off_c, 1, 68, 0
5, 14400, Note_on_c, 1, 70, 88
5, 14634, Note_off_c, 1, 70, 0
5, 14760, Note_on_c, 1, 68, 88
5, 14876, Note_off_c, 1, 68, 0
5, 14880, Note_on_c, 1, 66, 88
5, 14996, Note_off_c, 1, 66, 0
5, 15000, Note_on_c, 1, 65, 88
5, 15116, Note_off_c, 1, 65, 0
5, 15120, Note_on_c, 1, 63, 88
5, 15236, Note_off_c, 1, 63, 0
5, 15240, Note_on_c, 1, 68, 88
5, 15356, Note_off_c, 1, 68, 0
5, 15360, Note_on_c, 1, 65, 88
5, 15418, Note_off_c, 1, 65, 0
5, 15420, Note_on_c, 1, 68, 88
5, 15465, Note_off_c, 1, 68, 0
5, 15480, Note_on_c, 1, 68, 88
5, 15538, Note_off_c, 1, 68, 0
5, 15540, Note_on_c, 1, 65, 88
5, 15598, Note_off_c, 1, 65, 0
5, 15600, Note_on_c, 1, 63, 88
5, 15658, Note_off_c, 1, 63, 0
5, 15660, Note_on_c, 1, 68, 88
5, 15705, Note_off_c, 1, 68, 0
5, 15720, Note_on_c, 1, 68, 88
5, 15778, Note_off_c, 1, 68, 0
5, 15780, Note_on_c, 1, 63, 88
5, 15838, Note_off_c, 1, 63, 0
5, 15840, Note_on_c, 1, 65, 88
5, 16074, Note_off_c, 1, 65, 0
5, 16200, Note_on_c, 1, 69, 88
5, 16316, Note_off_c, 1, 69, 0
5, 16320, Note_on_c, 1, 70, 88
5, 16554, Note_off_c, 1, 70, 0
5, 16680, Note_on_c, 1, 73, 88
5, 16796, Note_off_c, 1, 73, 0
5, 16800, Note_on_c, 1, 71, 88
5, 17034, Note_off_c, 1, 71, 0
5, 17160, Note_on_c, 1, 71, 88
5, 17276, Note_off_c, 1, 71, 0
5, 17280, Note_on_c, 1, 70, 88
5, 17514, Note_off_c, 1, 70, 0
5, 17640, Note_on_c, 1, 70, 88
5, 17756, Note_off_c, 1, 70, 0
5, 17760, Note_on_c, 1, 68, 88
5, 18298, Note_off_c, 1, 68, 0
5, 18300, Note_on_c, 1, 71, 88
5, 18358, Note_off_c, 1, 71, 0
5, 18360, Note_on_c, 1, 70, 88
5, 18418, Note_off_c, 1, 70, 0
5, 18420, Note_on_c, 1, 68, 88
5, 18478, Note_off_c, 1, 68, 0
5, 18480, Note_on_c, 1, 66, 88
5, 18538, Note_off_c, 1, 66, 0
5, 18540, Note_on_c, 1, 68, 88
5, 18598, Note_off_c, 1, 68, 0
5, 18600, Note_on_c, 1, 70, 88
5, 18658, Note_off_c, 1, 70, 0
5, 18660, Note_on_c, 1, 65, 88
5, 18718, Note_off_c, 1, 65, 0
5, 18720, Note_on_c, 1, 66, 88
5, 18778, Note_off_c, 1, 66, 0
5, 18780, Note_on_c, 1, 68, 88
5, 18838, Note_off_c, 1, 68, 0
5, 18840, Note_on_c, 1, 70, 88
5, 18956, Note_off_c, 1, 70, 0
5, 19080, Note_on_c, 1, 75, 88
5, 19196, Note_off_c, 1, 75, 0
5, 19200, Note_on_c, 1, 75, 88
5, 19908, Note_off_c, 1, 75, 0
5, 19920, Note_on_c, 1, 68, 88
5, 20218, Note_off_c, 1, 68, 0
5, 20220, Note_on_c, 1, 66, 88
5, 20278, Note_off_c, 1, 66, 0
5, 20280, Note_on_c, 1, 68, 88
5, 20338, Note_off_c, 1, 68, 0
5, 20340, Note_on_c, 1, 70, 88
5, 20398, Note_off_c, 1, 70, 0
5, 20400, Note_on_c, 1, 71, 88
5, 20634, Note_off_c, 1, 71, 0
5, 20640, Note_on_c, 1, 70, 88
5, 20756, Note_off_c, 1, 70, 0
5, 20820, Note_on_c, 1, 75, 88
5, 20995, Note_off_c, 1, 75, 0
5, 21000, Note_on_c, 1, 74, 88
5, 21116, Note_off_c, 1, 74, 0
5, 21120, Note_on_c, 1, 75, 88
5, 21236, Note_off_c, 1, 75, 0
5, 21720, Note_on_c, 1, 75, 88
5, 21836, Note_off_c, 1, 75, 0
5, 21840, Note_on_c, 1, 80, 88
5, 21956, Note_off_c, 1, 80, 0
5, 21960, Note_on_c, 1, 78, 88
5, 22076, Note_off_c, 1, 78, 0
5, 22080, Note_on_c, 1, 80, 88
5, 22670, Note_off_c, 1, 80, 0
5, 22680, Note_on_c, 1, 73, 88
5, 22796, Note_off_c, 1, 73, 0
5, 22800, Note_on_c, 1, 78, 88
5, 22916, Note_off_c, 1, 78, 0
5, 22920, Note_on_c, 1, 77, 88
5, 23036, Note_off_c, 1, 77, 0
5, 23040, Note_on_c, 1, 78, 88
5, 23156, Note_off_c, 1, 78, 0
5, 23160, Note_on_c, 1, 73, 88
5, 23276, Note_off_c, 1, 73, 0
5, 23280, Note_on_c, 1, 75, 88
5, 23574, Note_off_c, 1, 75, 0
5, 23580, Note_on_c, 1, 68, 88
5, 23625, Note_off_c, 1, 68, 0
5, 23640, Note_on_c, 1, 68, 88
5, 23698, Note_off_c, 1, 68, 0
5, 23700, Note_on_c, 1, 73, 88
5, 23745, Note_off_c, 1, 73, 0
5, 23760, Note_on_c, 1, 73, 88
5, 23818, Note_off_c, 1, 73, 0
5, 23820, Note_on_c, 1, 68, 88
5, 23865, Note_off_c, 1, 68, 0
5, 23880, Note_on_c, 1, 68, 88
5, 23938, Note_off_c, 1, 68, 0
5, 23940, Note_on_c, 1, 71, 88
5, 23998, Note_off_c, 1, 71, 0
5, 24000, Note_on_c, 1, 70, 88
5, 24470, Note_off_c, 1, 70, 0
5, 24480, Note_on_c, 1, 68, 88
5, 24950, Note_off_c, 1, 68, 0
5, 24960, Note_on_c, 1, 66, 88
5, 25430, Note_off_c, 1, 66, 0
5, 25440, Note_on_c, 1, 65, 88
5, 25674, Note_off_c, 1, 65, 0
5, 26040, Note_on_c, 1, 66, 88
5, 26156, Note_off_c, 1, 66, 0
5, 26160, Note_on_c, 1, 71, 88
5, 26276, Note_off_c, 1, 71, 0
5, 26280, Note_on_c, 1, 70, 88
5, 26396, Note_off_c, 1, 70, 0
5, 26400, Note_on_c, 1, 71, 88
5, 26516, Note_off_c, 1, 71, 0
5, 26520, Note_on_c, 1, 70, 88
5, 26578, Note_off_c, 1, 70, 0
5, 26580, Note_on_c, 1, 68, 88
5, 26625, Note_off_c, 1, 68, 0
5, 26640, Note_on_c, 1, 68, 88
5, 26662, Note_off_c, 1, 68, 0
5, 26663, Note_on_c, 1, 66, 88
5, 26684, Note_off_c, 1, 66, 0
5, 26685, Note_on_c, 1, 68, 88
5, 26707, Note_off_c, 1, 68, 0
5, 26708, Note_on_c, 1, 66, 88
5, 26729, Note_off_c, 1, 66, 0
5, 26730, Note_on_c, 1, 68, 88
5, 26752, Note_off_c, 1, 68, 0
5, 26753, Note_on_c, 1, 66, 88
5, 26774, Note_off_c, 1, 66, 0
5, 26775, Note_on_c, 1, 68, 88
5, 26797, Note_off_c, 1, 68, 0
5, 26798, Note_on_c, 1, 66, 88
5, 26819, Note_off_c, 1, 66, 0
5, 26820, Note_on_c, 1, 64, 88
5, 26849, Note_off_c, 1, 64, 0
5, 26850, Note_on_c, 1, 66, 88
5, 26879, Note_off_c, 1, 66, 0
5, 26880, Note_on_c, 1, 68, 88
5, 27114, Note_off_c, 1, 68, 0
5, 27240, Note_on_c, 1, 66, 88
5, 27356, Note_off_c, 1, 66, 0
5, 27360, Note_on_c, 1, 64, 88
5, 27476, Note_off_c, 1, 64, 0
5, 27480, Note_on_c, 1, 63, 88
5, 27596, Note_off_c, 1, 63, 0
5, 27600, Note_on_c, 1, 61, 88
5, 27716, Note_off_c, 1, 61, 0
5, 27720, Note_on_c, 1, 66, 88
5, 27836, Note_off_c, 1, 66, 0
5, 27840, Note_on_c, 1, 63, 88
5, 27945, Note_off_c, 1, 63, 0
5, 27960, Note_on_c, 1, 63, 88
5, 28076, Note_off_c, 1, 63, 0
5, 28080, Note_on_c, 1, 68, 88
5, 28196, Note_off_c, 1, 68, 0
5, 28200, Note_on_c, 1, 67, 88
5, 28316, Note_off_c, 1, 67, 0
5, 28320, Note_on_c, 1, 68, 88
5, 28554, Note_off_c, 1, 68, 0
5, 28680, Note_on_c, 1, 70, 88
5, 28796, Note_off_c, 1, 70, 0
5, 28800, Note_on_c, 1, 71, 88
5, 28916, Note_off_c, 1, 71, 0
5, 28920, Note_on_c, 1, 73, 88
5, 29036, Note_off_c, 1, 73, 0
5, 29040, Note_on_c, 1, 75, 88
5, 29156, Note_off_c, 1, 75, 0
5, 29160, Note_on_c, 1, 71, 88
5, 29276, Note_off_c, 1, 71, 0
5, 29280, Note_on_c, 1, 68, 88
5, 29514, Note_off_c, 1, 68, 0
5, 29640, Note_on_c, 1, 73, 88
5, 29756, Note_off_c, 1, 73, 0
5, 29760, Note_on_c, 1, 70, 88
5, 29994, Note_off_c, 1, 70, 0
5, 30120, Note_on_c, 1, 70, 88
5, 30236, Note_off_c, 1, 70, 0
5, 30240, Note_on_c, 1, 68, 88
5, 30298, Note_off_c, 1, 68, 0
5, 30300, Note_on_c, 1, 65, 88
5, 30358, Note_off_c, 1, 65, 0
5, 30360, Note_on_c, 1, 66, 88
5, 30418, Note_off_c, 1, 66, 0
5, 30420, Note_on_c, 1, 70, 88
5, 30478, Note_off_c, 1, 70, 0
5, 30480, Note_on_c, 1, 68, 88
5, 30538, Note_off_c, 1, 68, 0
5, 30540, Note_on_c, 1, 65, 88
5, 30598, Note_off_c, 1, 65, 0
5, 30600, Note_on_c, 1, 66, 88
5, 30778, Note_off_c, 1, 66, 0
5, 30780, Note_on_c, 1, 65, 88
5, 30838, Note_off_c, 1, 65, 0
5, 30840, Note_on_c, 1, 66, 88
5, 31074, Note_off_c, 1, 66, 0
5, 31080, Note_on_c, 1, 65, 88
5, 31196, Note_off_c, 1, 65, 0
5, 31200, Note_on_c, 1, 66, 88
5, 31434, Note_off_c, 1, 66, 0
5, 31560, Note_on_c, 1, 65, 88
5, 31676, Note_off_c, 1, 65, 0
5, 31680, Note_on_c, 1, 66, 88
5, 31914, Note_off_c, 1, 66, 0
5, 32040, Note_on_c, 1, 70, 88
5, 32156, Note_off_c, 1, 70, 0
5, 32160, Note_on_c, 1, 68, 88
5, 32218, Note_off_c, 1, 68, 0
5, 32220, Note_on_c, 1, 75, 88
5, 32265, Note_off_c, 1, 75, 0
5, 32280, Note_on_c, 1, 75, 88
5, 32338, Note_off_c, 1, 75, 0
5, 32340, Note_on_c, 1, 71, 88
5, 32398, Note_off_c, 1, 71, 0
5, 32400, Note_on_c, 1, 68, 88
5, 32458, Note_off_c, 1, 68, 0
5, 32460, Note_on_c, 1, 73, 88
5, 32505, Note_off_c, 1, 73, 0
5, 32520, Note_on_c, 1, 73, 88
5, 32578, Note_off_c, 1, 73, 0
5, 32580, Note_on_c, 1, 71, 88
5, 32638, Note_off_c, 1, 71, 0
5, 32640, Note_on_c, 1, 70, 88
5, 33585, Note_off_c, 1, 70, 0
5, 33585, End_track
6, 0, Start_track
6, 0, Title_t, "Track 3"
6, 0, Program_c, 2, 6
6, 3960, Note_on_c, 2, 49, 88
6, 4076, Note_off_c, 2, 49, 0
6, 4080, Note_on_c, 2, 54, 88
6, 4196, Note_off_c, 2, 54, 0
6, 4200, Note_on_c, 2, 53, 88
6, 4316, Note_off_c, 2, 53, 0
6, 4320, Note_on_c, 2, 54, 88
6, 4436, Note_off_c, 2, 54, 0
6, 4440, Note_on_c, 2, 53, 88
6, 4498, Note_off_c, 2, 53, 0
6, 4500, Note_on_c, 2, 51, 88
6, 4545, Note_off_c, 2, 51, 0
6, 4560, Note_on_c, 2, 51, 88
6, 4582, Note_off_c, 2, 51, 0
6, 4583, Note_on_c, 2, 49, 88
6, 4604, Note_off_c, 2, 49, 0
6, 4605, Note_on_c, 2, 51, 88
6, 4627, Note_off_c, 2, 51, 0
6, 4628, Note_on_c, 2, 49, 88
6, 4649, Note_off_c, 2, 49, 0
6, 4650, Note_on_c, 2, 51, 88
6, 4672, Note_off_c, 2, 51, 0
6, 4673, Note_on_c, 2, 49, 88
6, 4694, Note_off_c, 2, 49, 0
6, 4695, Note_on_c, 2, 51, 88
6, 4717, Note_off_c, 2, 51, 0
6, 4718, Note_on_c, 2, 49, 88
6, 4739, Note_off_c, 2, 49, 0
6, 4740, Note_on_c, 2, 47, 88
6, 4769, Note_off_c, 2, 47, 0
6, 4770, Note_on_c, 2, 49, 88
6, 4799, Note_off_c, 2, 49, 0
6, 4800, Note_on_c, 2, 51, 88
6, 5034, Note_off_c, 2, 51, 0
6, 5160, Note_on_c, 2, 49, 88
6, 5276, Note_off_c, 2, 49, 0
6, 5280, Note_on_c, 2, 47, 88
6, 5396, Note_off_c, 2, 47, 0
6, 5400, Note_on_c, 2, 46, 88
6, 5516, Note_off_c, 2, 46, 0
6, 5520, Note_on_c, 2, 44, 88
6, 5636, Note_off_c, 2, 44, 0
6, 5640, Note_on_c, 2, 49, 88
6, 5756, Note_off_c, 2, 49, 0
6, 5760, Note_on_c, 2, 42, 88
6, 5876, Note_off_c, 2, 42, 0
6, 5880, Note_on_c, 2, 54, 88
6, 5996, Note_off_c, 2, 54, 0
6, 6000, Note_on_c, 2, 53, 88
6, 6116, Note_off_c, 2, 53, 0
6, 6120, Note_on_c, 2, 49, 88
6, 6236, Note_off_c, 2, 49, 0
6, 6240, Note_on_c, 2, 54, 88
6, 6298, Note_off_c, 2, 54, 0
6, 6300, Note_on_c, 2, 58, 88
6, 6345, Note_off_c, 2, 58, 0
6, 6360, Note_on_c, 2, 58, 88
6, 6418, Note_off_c, 2, 58, 0
6, 6420, Note_on_c, 2, 54, 88
6, 6478, Note_off_c, 2, 54, 0
6, 6480, Note_on_c, 2, 51, 88
6, 6538, Note_off_c, 2, 51, 0
6, 6540, Note_on_c, 2, 54, 88
6, 6585, Note_off_c, 2, 54, 0
6, 6600, Note_on_c, 2, 54, 88
6, 6658, Note_off_c, 2, 54, 0
6, 6660, Note_on_c, 2, 51, 88
6, 6718, Note_off_c, 2, 51, 0
6, 6720, Note_on_c, 2, 48, 88
6, 6836, Note_off_c, 2, 48, 0
6, 6840, Note_on_c, 2, 49, 88
6, 6956, Note_off_c, 2, 49, 0
6, 6960, Note_on_c, 2, 54, 88
6, 7254, Note_off_c, 2, 54, 0
6, 7260, Note_on_c, 2, 56, 88
6, 7318, Note_off_c, 2, 56, 0
6, 7320, Note_on_c, 2, 60, 88
6, 7378, Note_off_c, 2, 60, 0
6, 7380, Note_on_c, 2, 56, 88
6, 7438, Note_off_c, 2, 56, 0
6, 7440, Note_on_c, 2, 53, 88
6, 7498, Note_off_c, 2, 53, 0
6, 7500, Note_on_c, 2, 56, 88
6, 7545, Note_off_c, 2, 56, 0
6, 7560, Note_on_c, 2, 56, 88
6, 7618, Note_off_c, 2, 56, 0
6, 7620, Note_on_c, 2, 53, 88
6, 7678, Note_off_c, 2, 53, 0
6, 7680, Note_on_c, 2, 50, 88
6, 7738, Note_off_c, 2, 50, 0
6, 7740, Note_on_c, 2, 58, 88
6, 7785, Note_off_c, 2, 58, 0
6, 7800, Note_on_c, 2, 58, 88
6, 7858, Note_off_c, 2, 58, 0
6, 7860, Note_on_c, 2, 54, 88
6, 7918, Note_off_c, 2, 54, 0
6, 7920, Note_on_c, 2, 51, 88
6, 7978, Note_off_c, 2, 51, 0
6, 7980, Note_on_c, 2, 54, 88
6, 8025, Note_off_c, 2, 54, 0
6, 8040, Note_on_c, 2, 54, 88
6, 8098, Note_off_c, 2, 54, 0
6, 8100, Note_on_c, 2, 51, 88
6, 8158, Note_off_c, 2, 51, 0
6, 8160, Note_on_c, 2, 48, 88
6, 8218, Note_off_c, 2, 48, 0
6, 8220, Note_on_c, 2, 56, 88
6, 8265, Note_off_c, 2, 56, 0
6, 8280, Note_on_c, 2, 56, 88
6, 8338, Note_off_c, 2, 56, 0
6, 8340, Note_on_c, 2, 53, 88
6, 8398, Note_off_c, 2, 53, 0
6, 8400, Note_on_c, 2, 49, 88
6, 8458, Note_off_c, 2, 49, 0
6, 8460, Note_on_c, 2, 53, 88
6, 8505, Note_off_c, 2, 53, 0
6, 8520, Note_on_c, 2, 53, 88
6, 8578, Note_off_c, 2, 53, 0
6, 8580, Note_on_c, 2, 49, 88
6, 8638, Note_off_c, 2, 49, 0
6, 8640, Note_on_c, 2, 46, 88
6, 8698, Note_off_c, 2, 46, 0
6, 8700, Note_on_c, 2, 49, 88
6, 8745, Note_off_c, 2, 49, 0
6, 8760, Note_on_c, 2, 49, 88
6, 8818, Note_off_c, 2, 49, 0
6, 8820, Note_on_c, 2, 46, 88
6, 8878, Note_off_c, 2, 46, 0
6, 8880, Note_on_c, 2, 42, 88
6, 8996, Note_off_c, 2, 42, 0
6, 9000, Note_on_c, 2, 54, 88
6, 9165, Note_off_c, 2, 54, 0
6, 9180, Note_on_c, 2, 54, 88
6, 9238, Note_off_c, 2, 54, 0
6, 9240, Note_on_c, 2, 53, 88
6, 9298, Note_off_c, 2, 53, 0
6, 9300, Note_on_c, 2, 51, 88
6, 9358, Note_off_c, 2, 51, 0
6, 9360, Note_on_c, 2, 49, 88
6, 9418, Note_off_c, 2, 49, 0
6, 9420, Note_on_c, 2, 51, 88
6, 9478, Note_off_c, 2, 51, 0
6, 9480, Note_on_c, 2, 53, 88
6, 9538, Note_off_c, 2, 53, 0
6, 9540, Note_on_c, 2, 49, 88
6, 9598, Note_off_c, 2, 49, 0
6, 9600, Note_on_c, 2, 46, 88
6, 9658, Note_off_c, 2, 46, 0
6, 9660, Note_on_c, 2, 48, 88
6, 9718, Note_off_c, 2, 48, 0
6, 9720, Note_on_c, 2, 49, 88
6, 9778, Note_off_c, 2, 49, 0
6, 9780, Note_on_c, 2, 46, 88
6, 9838, Note_off_c, 2, 46, 0
6, 9840, Note_on_c, 2, 42, 88
6, 9956, Note_off_c, 2, 42, 0
6, 9960, Note_on_c, 2, 44, 88
6, 10076, Note_off_c, 2, 44, 0
6, 10080, Note_on_c, 2, 37, 88
6, 10314, Note_off_c, 2, 37, 0
6, 10680, Note_on_c, 2, 54, 88
6, 10738, Note_off_c, 2, 54, 0
6, 10740, Note_on_c, 2, 56, 88
6, 10798, Note_off_c, 2, 56, 0
6, 10800, Note_on_c, 2, 58, 88
6, 10858, Note_off_c, 2, 58, 0
6, 10860, Note_on_c, 2, 54, 88
6, 10905, Note_off_c, 2, 54, 0
6, 10920, Note_on_c, 2, 54, 88
6, 10978, Note_off_c, 2, 54, 0
6, 10980, Note_on_c, 2, 58, 88
6, 11038, Note_off_c, 2, 58, 0
6, 11040, Note_on_c, 2, 59, 88
6, 11098, Note_off_c, 2, 59, 0
6, 11100, Note_on_c, 2, 54, 88
6, 11145, Note_off_c, 2, 54, 0
6, 11160, Note_on_c, 2, 54, 88
6, 11218, Note_off_c, 2, 54, 0
6, 11220, Note_on_c, 2, 59, 88
6, 11278, Note_off_c, 2, 59, 0
6, 11280, Note_on_c, 2, 61, 88
6, 11338, Note_off_c, 2, 61, 0
6, 11340, Note_on_c, 2, 54, 88
6, 11385, Note_off_c, 2, 54, 0
6, 11400, Note_on_c, 2, 54, 88
6, 11458, Note_off_c, 2, 54, 0
6, 11460, Note_on_c, 2, 61, 88
6, 11518, Note_off_c, 2, 61, 0
6, 11520, Note_on_c, 2, 63, 88
6, 11578, Note_off_c, 2, 63, 0
6, 11580, Note_on_c, 2, 54, 88
6, 11625, Note_off_c, 2, 54, 0
6, 11640, Note_on_c, 2, 54, 88
6, 11698, Note_off_c, 2, 54, 0
6, 11700, Note_on_c, 2, 63, 88
6, 11758, Note_off_c, 2, 63, 0
6, 11760, Note_on_c, 2, 65, 88
6, 11818, Note_off_c, 2, 65, 0
6, 11820, Note_on_c, 2, 54, 88
6, 11865, Note_off_c, 2, 54, 0
6, 11880, Note_on_c, 2, 54, 88
6, 11938, Note_off_c, 2, 54, 0
6, 11940, Note_on_c, 2, 65, 88
6, 11998, Note_off_c, 2, 65, 0
6, 12000, Note_on_c, 2, 66, 88
6, 12058, Note_off_c, 2, 66, 0
6, 12060, Note_on_c, 2, 65, 88
6, 12118, Note_off_c, 2, 65, 0
6, 12120, Note_on_c, 2, 63, 88
6, 12178, Note_off_c, 2, 63, 0
6, 12180, Note_on_c, 2, 61, 88
6, 12238, Note_off_c, 2, 61, 0
6, 12240, Note_on_c, 2, 59, 88
6, 12298, Note_off_c, 2, 59, 0
6, 12300, Note_on_c, 2, 68, 88
6, 12345, Note_off_c, 2, 68, 0
6, 12360, Note_on_c, 2, 68, 88
6, 12418, Note_off_c, 2, 68, 0
6, 12420, Note_on_c, 2, 59, 88
6, 12478, Note_off_c, 2, 59, 0
6, 12480, Note_on_c, 2, 58, 88
6, 12538, Note_off_c, 2, 58, 0
6, 12540, Note_on_c, 2, 66, 88
6, 12585, Note_off_c, 2, 66, 0
6, 12600, Note_on_c, 2, 66, 88
6, 12658, Note_off_c, 2, 66, 0
6, 12660, Note_on_c, 2, 58, 88
6, 12718, Note_off_c, 2, 58, 0
6, 12720, Note_on_c, 2, 56, 88
6, 12778, Note_off_c, 2, 56, 0
6, 12780, Note_on_c, 2, 65, 88
6, 12825, Note_off_c, 2, 65, 0
6, 12840, Note_on_c, 2, 65, 88
6, 12898, Note_off_c, 2, 65, 0
6, 12900, Note_on_c, 2, 56, 88
6, 12958, Note_off_c, 2, 56, 0
6, 12960, Note_on_c, 2, 54, 88
6, 13018, Note_off_c, 2, 54, 0
6, 13020, Note_on_c, 2, 56, 88
6, 13078, Note_off_c, 2, 56, 0
6, 13080, Note_on_c, 2, 54, 88
6, 13138, Note_off_c, 2, 54, 0
6, 13140, Note_on_c, 2, 53, 88
6, 13198, Note_off_c, 2, 53, 0
6, 13200, Note_on_c, 2, 51, 88
6, 13258, Note_off_c, 2, 51, 0
6, 13260, Note_on_c, 2, 53, 88
6, 13318, Note_off_c, 2, 53, 0
6, 13320, Note_on_c, 2, 54, 88
6, 13378, Note_off_c, 2, 54, 0
6, 13380, Note_on_c, 2, 51, 88
6, 13438, Note_off_c, 2, 51, 0
6, 13440, Note_on_c, 2, 56, 88
6, 13498, Note_off_c, 2, 56, 0
6, 13500, Note_on_c, 2, 58, 88
6, 13558, Note_off_c, 2, 58, 0
6, 13560, Note_on_c, 2, 56, 88
6, 13618, Note_off_c, 2, 56, 0
6, 13620, Note_on_c, 2, 54, 88
6, 13678, Note_off_c, 2, 54, 0
6, 13680, Note_on_c, 2, 53, 88
6, 13738, Note_off_c, 2, 53, 0
6, 13740, Note_on_c, 2, 54, 88
6, 13798, Note_off_c, 2, 54, 0
6, 13800, Note_on_c, 2, 56, 88
6, 13858, Note_off_c, 2, 56, 0
6, 13860, Note_on_c, 2, 53, 88
6, 13918, Note_off_c, 2, 53, 0
6, 13920, Note_on_c, 2, 58, 88
6, 13978, Note_off_c, 2, 58, 0
6, 13980, Note_on_c, 2, 60, 88
6, 14038, Note_off_c, 2, 60, 0
6, 14040, Note_on_c, 2, 61, 88
6, 14215, Note_off_c, 2, 61, 0
6, 14220, Note_on_c, 2, 60, 88
6, 14278, Note_off_c, 2, 60, 0
6, 14280, Note_on_c, 2, 58, 88
6, 14338, Note_off_c, 2, 58, 0
6, 14340, Note_on_c, 2, 56, 88
6, 14398, Note_off_c, 2, 56, 0
6, 14400, Note_on_c, 2, 54, 88
6, 14458, Note_off_c, 2, 54, 0
6, 14460, Note_on_c, 2, 56, 88
6, 14518, Note_off_c, 2, 56, 0
6, 14520, Note_on_c, 2, 58, 88
6, 14578, Note_off_c, 2, 58, 0
6, 14580, Note_on_c, 2, 53, 88
6, 14638, Note_off_c, 2, 53, 0
6, 14640, Note_on_c, 2, 54, 88
6, 14698, Note_off_c, 2, 54, 0
6, 14700, Note_on_c, 2, 56, 88
6, 14758, Note_off_c, 2, 56, 0
6, 14760, Note_on_c, 2, 58, 88
6, 14818, Note_off_c, 2, 58, 0
6, 14820, Note_on_c, 2, 54, 88
6, 14878, Note_off_c, 2, 54, 0
6, 14880, Note_on_c, 2, 51, 88
6, 14996, Note_off_c, 2, 51, 0
6, 15000, Note_on_c, 2, 53, 88
6, 15058, Note_off_c, 2, 53, 0
6, 15060, Note_on_c, 2, 54, 88
6, 15118, Note_off_c, 2, 54, 0
6, 15120, Note_on_c, 2, 56, 88
6, 15236, Note_off_c, 2, 56, 0
6, 15240, Note_on_c, 2, 44, 88
6, 15356, Note_off_c, 2, 44, 0
6, 15360, Note_on_c, 2, 49, 88
6, 15476, Note_off_c, 2, 49, 0
6, 15480, Note_on_c, 2, 61, 88
6, 15596, Note_off_c, 2, 61, 0
6, 15600, Note_on_c, 2, 60, 88
6, 15716, Note_off_c, 2, 60, 0
6, 15720, Note_on_c, 2, 56, 88
6, 15836, Note_off_c, 2, 56, 0
6, 15840, Note_on_c, 2, 61, 88
6, 15956, Note_off_c, 2, 61, 0
6, 15960, Note_on_c, 2, 58, 88
6, 16076, Note_off_c, 2, 58, 0
6, 16080, Note_on_c, 2, 57, 88
6, 16196, Note_off_c, 2, 57, 0
6, 16200, Note_on_c, 2, 53, 88
6, 16316, Note_off_c, 2, 53, 0
6, 16320, Note_on_c, 2, 58, 88
6, 16378, Note_off_c, 2, 58, 0
6, 16380, Note_on_c, 2, 61, 88
6, 16425, Note_off_c, 2, 61, 0
6, 16440, Note_on_c, 2, 61, 88
6, 16498, Note_off_c, 2, 61, 0
6, 16500, Note_on_c, 2, 58, 88
6, 16558, Note_off_c, 2, 58, 0
6, 16560, Note_on_c, 2, 54, 88
6, 16618, Note_off_c, 2, 54, 0
6, 16620, Note_on_c, 2, 58, 88
6, 16665, Note_off_c, 2, 58, 0
6, 16680, Note_on_c, 2, 58, 88
6, 16738, Note_off_c, 2, 58, 0
6, 16740, Note_on_c, 2, 54, 88
6, 16798, Note_off_c, 2, 54, 0
6, 16800, Note_on_c, 2, 51, 88
6, 16858, Note_off_c, 2, 51, 0
6, 16860, Note_on_c, 2, 59, 88
6, 16905, Note_off_c, 2, 59, 0
6, 16920, Note_on_c, 2, 59, 88
6, 16978, Note_off_c, 2, 59, 0
6, 16980, Note_on_c, 2, 56, 88
6, 17038, Note_off_c, 2, 56, 0
6, 17040, Note_on_c, 2, 53, 88
6, 17098, Note_off_c, 2, 53, 0
6, 17100, Note_on_c, 2, 56, 88
6, 17145, Note_off_c, 2, 56, 0
6, 17160, Note_on_c, 2, 56, 88
6, 17218, Note_off_c, 2, 56, 0
6, 17220, Note_on_c, 2, 53, 88
6, 17278, Note_off_c, 2, 53, 0
6, 17280, Note_on_c, 2, 50, 88
6, 17338, Note_off_c, 2, 50, 0
6, 17340, Note_on_c, 2, 58, 88
6, 17385, Note_off_c, 2, 58, 0
6, 17400, Note_on_c, 2, 58, 88
6, 17458, Note_off_c, 2, 58, 0
6, 17460, Note_on_c, 2, 54, 88
6, 17518, Note_off_c, 2, 54, 0
6, 17520, Note_on_c, 2, 51, 88
6, 17578, Note_off_c, 2, 51, 0
6, 17580, Note_on_c, 2, 54, 88
6, 17625, Note_off_c, 2, 54, 0
6, 17640, Note_on_c, 2, 54, 88
6, 17698, Note_off_c, 2, 54, 0
6, 17700, Note_on_c, 2, 51, 88
6, 17758, Note_off_c, 2, 51, 0
6, 17760, Note_on_c, 2, 47, 88
6, 17818, Note_off_c, 2, 47, 0
6, 17820, Note_on_c, 2, 51, 88
6, 17865, Note_off_c, 2, 51, 0
6, 17880, Note_on_c, 2, 51, 88
6, 17938, Note_off_c, 2, 51, 0
6, 17940, Note_on_c, 2, 47, 88
6, 17998, Note_off_c, 2, 47, 0
6, 18000, Note_on_c, 2, 44, 88
6, 18058, Note_off_c, 2, 44, 0
6, 18060, Note_on_c, 2, 47, 88
6, 18105, Note_off_c, 2, 47, 0
6, 18120, Note_on_c, 2, 47, 88
6, 18178, Note_off_c, 2, 47, 0
6, 18180, Note_on_c, 2, 44, 88
6, 18238, Note_off_c, 2, 44, 0
6, 18240, Note_on_c, 2, 46, 88
6, 18345, Note_off_c, 2, 46, 0
6, 18360, Note_on_c, 2, 46, 88
6, 18476, Note_off_c, 2, 46, 0
6, 18480, Note_on_c, 2, 51, 88
6, 18596, Note_off_c, 2, 51, 0
6, 18600, Note_on_c, 2, 50, 88
6, 18716, Note_off_c, 2, 50, 0
6, 18720, Note_on_c, 2, 51, 88
6, 18836, Note_off_c, 2, 51, 0
6, 18840, Note_on_c, 2, 49, 88
6, 18898, Note_off_c, 2, 49, 0
6, 18900, Note_on_c, 2, 47, 88
6, 18945, Note_off_c, 2, 47, 0
6, 18960, Note_on_c, 2, 47, 88
6, 18982, Note_off_c, 2, 47, 0
6, 18983, Note_on_c, 2, 46, 88
6, 19004, Note_off_c, 2, 46, 0
6, 19005, Note_on_c, 2, 47, 88
6, 19027, Note_off_c, 2, 47, 0
6, 19028, Note_on_c, 2, 46, 88
6, 19049, Note_off_c, 2, 46, 0
6, 19050, Note_on_c, 2, 47, 88
6, 19072, Note_off_c, 2, 47, 0
6, 19073, Note_on_c, 2, 46, 88
6, 19094, Note_off_c, 2, 46, 0
6, 19095, Note_on_c, 2, 47, 88
6, 19117, Note_off_c, 2, 47, 0
6, 19118, Note_on_c, 2, 46, 88
6, 19139, Note_off_c, 2, 46, 0
6, 19140, Note_on_c, 2, 44, 88
6, 19169, Note_off_c, 2, 44, 0
6, 19170, Note_on_c, 2, 46, 88
6, 19199, Note_off_c, 2, 46, 0
6, 19200, Note_on_c, 2, 47, 88
6, 19434, Note_off_c, 2, 47, 0
6, 19560, Note_on_c, 2, 46, 88
6, 19676, Note_off_c, 2, 46, 0
6, 19680, Note_on_c, 2, 44, 88
6, 19796, Note_off_c, 2, 44, 0
6, 19800, Note_on_c, 2, 42, 88
6, 19916, Note_off_c, 2, 42, 0
6, 19920, Note_on_c, 2, 41, 88
6, 20036, Note_off_c, 2, 41, 0
6, 20040, Note_on_c, 2, 46, 88
6, 20156, Note_off_c, 2, 46, 0
6, 20160, Note_on_c, 2, 39, 88
6, 20276, Note_off_c, 2, 39, 0
6, 20280, Note_on_c, 2, 42, 88
6, 20396, Note_off_c, 2, 42, 0
6, 20400, Note_on_c, 2, 44, 88
6, 20694, Note_off_c, 2, 44, 0
6, 20700, Note_on_c, 2, 53, 88
6, 20758, Note_off_c, 2, 53, 0
6, 20760, Note_on_c, 2, 54, 88
6, 20818, Note_off_c, 2, 54, 0
6, 20820, Note_on_c, 2, 56, 88
6, 20878, Note_off_c, 2, 56, 0
6, 20880, Note_on_c, 2, 58, 88
6, 20996, Note_off_c, 2, 58, 0
6, 21000, Note_on_c, 2, 46, 88
6, 21116, Note_off_c, 2, 46, 0
6, 21120, Note_on_c, 2, 51, 88
6, 21178, Note_off_c, 2, 51, 0
6, 21180, Note_on_c, 2, 58, 88
6, 21225, Note_off_c, 2, 58, 0
6, 21240, Note_on_c, 2, 58, 88
6, 21298, Note_off_c, 2, 58, 0
6, 21300, Note_on_c, 2, 54, 88
6, 21358, Note_off_c, 2, 54, 0
6, 21360, Note_on_c, 2, 51, 88
6, 21418, Note_off_c, 2, 51, 0
6, 21420, Note_on_c, 2, 54, 88
6, 21465, Note_off_c, 2, 54, 0
6, 21480, Note_on_c, 2, 54, 88
6, 21538, Note_off_c, 2, 54, 0
6, 21540, Note_on_c, 2, 51, 88
6, 21598, Note_off_c, 2, 51, 0
6, 21600, Note_on_c, 2, 44, 88
6, 21658, Note_off_c, 2, 44, 0
6, 21660, Note_on_c, 2, 63, 88
6, 21705, Note_off_c, 2, 63, 0
6, 21720, Note_on_c, 2, 63, 88
6, 21778, Note_off_c, 2, 63, 0
6, 21780, Note_on_c, 2, 59, 88
6, 21838, Note_off_c, 2, 59, 0
6, 21840, Note_on_c, 2, 56, 88
6, 21898, Note_off_c, 2, 56, 0
6, 21900, Note_on_c, 2, 59, 88
6, 21945, Note_off_c, 2, 59, 0
6, 21960, Note_on_c, 2, 59, 88
6, 22018, Note_off_c, 2, 59, 0
6, 22020, Note_on_c, 2, 56, 88
6, 22078, Note_off_c, 2, 56, 0
6, 22080, Note_on_c, 2, 53, 88
6, 22138, Note_off_c, 2, 53, 0
6, 22140, Note_on_c, 2, 56, 88
6, 22185, Note_off_c, 2, 56, 0
6, 22200, Note_on_c, 2, 56, 88
6, 22258, Note_off_c, 2, 56, 0
6, 22260, Note_on_c, 2, 53, 88
6, 22318, Note_off_c, 2, 53, 0
6, 22320, Note_on_c, 2, 49, 88
6, 22378, Note_off_c, 2, 49, 0
6, 22380, Note_on_c, 2, 53, 88
6, 22425, Note_off_c, 2, 53, 0
6, 22440, Note_on_c, 2, 53, 88
6, 22498, Note_off_c, 2, 53, 0
6, 22500, Note_on_c, 2, 49, 88
6, 22558, Note_off_c, 2, 49, 0
6, 22560, Note_on_c, 2, 42, 88
6, 22618, Note_off_c, 2, 42, 0
6, 22620, Note_on_c, 2, 61, 88
6, 22665, Note_off_c, 2, 61, 0
6, 22680, Note_on_c, 2, 61, 88
6, 22738, Note_off_c, 2, 61, 0
6, 22740, Note_on_c, 2, 58, 88
6, 22798, Note_off_c, 2, 58, 0
6, 22800, Note_on_c, 2, 54, 88
6, 22858, Note_off_c, 2, 54, 0
6, 22860, Note_on_c, 2, 58, 88
6, 22905, Note_off_c, 2, 58, 0
6, 22920, Note_on_c, 2, 58, 88
6, 22978, Note_off_c, 2, 58, 0
6, 22980, Note_on_c, 2, 54, 88
6, 23038, Note_off_c, 2, 54, 0
6, 23040, Note_on_c, 2, 51, 88
6, 23098, Note_off_c, 2, 51, 0
6, 23100, Note_on_c, 2, 54, 88
6, 23145, Note_off_c, 2, 54, 0
6, 23160, Note_on_c, 2, 54, 88
6, 23218, Note_off_c, 2, 54, 0
6, 23220, Note_on_c, 2, 51, 88
6, 23278, Note_off_c, 2, 51, 0
6, 23280, Note_on_c, 2, 47, 88
6, 23338, Note_off_c, 2, 47, 0
6, 23340, Note_on_c, 2, 51, 88
6, 23385, Note_off_c, 2, 51, 0
6, 23400, Note_on_c, 2, 51, 88
6, 23458, Note_off_c, 2, 51, 0
6, 23460, Note_on_c, 2, 47, 88
6, 23518, Note_off_c, 2, 47, 0
6, 23520, Note_on_c, 2, 49, 88
6, 23636, Note_off_c, 2, 49, 0
6, 23640, Note_on_c, 2, 37, 88
6, 23756, Note_off_c, 2, 37, 0
6, 23880, Note_on_c, 2, 61, 88
6, 23938, Note_off_c, 2, 61, 0
6, 23940, Note_on_c, 2, 59, 88
6, 23998, Note_off_c, 2, 59, 0
6, 24000, Note_on_c, 2, 61, 88
6, 24116, Note_off_c, 2, 61, 0
6, 24120, Note_on_c, 2, 54, 88
6, 24236, Note_off_c, 2, 54, 0
6, 24240, Note_on_c, 2, 59, 88
6, 24356, Note_off_c, 2, 59, 0
6, 24360, Note_on_c, 2, 58, 88
6, 24476, Note_off_c, 2, 58, 0
6, 24480, Note_on_c, 2, 59, 88
6, 24596, Note_off_c, 2, 59, 0
6, 24600, Note_on_c, 2, 53, 88
6, 24716, Note_off_c, 2, 53, 0
6, 24720, Note_on_c, 2, 58, 88
6, 24836, Note_off_c, 2, 58, 0
6, 24840, Note_on_c, 2, 56, 88
6, 24956, Note_off_c, 2, 56, 0
6, 24960, Note_on_c, 2, 58, 88
6, 25076, Note_off_c, 2, 58, 0
6, 25080, Note_on_c, 2, 51, 88
6, 25196, Note_off_c, 2, 51, 0
6, 25200, Note_on_c, 2, 56, 88
6, 25316, Note_off_c, 2, 56, 0
6, 25320, Note_on_c, 2, 54, 88
6, 25436, Note_off_c, 2, 54, 0
6, 25440, Note_on_c, 2, 56, 88
6, 25556, Note_off_c, 2, 56, 0
6, 25560, Note_on_c, 2, 49, 88
6, 25676, Note_off_c, 2, 49, 0
6, 25680, Note_on_c, 2, 54, 88
6, 25796, Note_off_c, 2, 54, 0
6, 25800, Note_on_c, 2, 53, 88
6, 25916, Note_off_c, 2, 53, 0
6, 25920, Note_on_c, 2, 54, 88
6, 25978, Note_off_c, 2, 54, 0
6, 25980, Note_on_c, 2, 58, 88
6, 26025, Note_off_c, 2, 58, 0
6, 26040, Note_on_c, 2, 58, 88
6, 26098, Note_off_c, 2, 58, 0
6, 26100, Note_on_c, 2, 54, 88
6, 26158, Note_off_c, 2, 54, 0
6, 26160, Note_on_c, 2, 51, 88
6, 26218, Note_off_c, 2, 51, 0
6, 26220, Note_on_c, 2, 54, 88
6, 26265, Note_off_c, 2, 54, 0
6, 26280, Note_on_c, 2, 54, 88
6, 26338, Note_off_c, 2, 54, 0
6, 26340, Note_on_c, 2, 51, 88
6, 26398, Note_off_c, 2, 51, 0
6, 26400, Note_on_c, 2, 47, 88
6, 26516, Note_off_c, 2, 47, 0
6, 26760, Note_on_c, 2, 59, 88
6, 26876, Note_off_c, 2, 59, 0
6, 26880, Note_on_c, 2, 59, 88
6, 27898, Note_off_c, 2, 59, 0
6, 27900, Note_on_c, 2, 58, 88
6, 27958, Note_off_c, 2, 58, 0
6, 27960, Note_on_c, 2, 56, 88
6, 28018, Note_off_c, 2, 56, 0
6, 28020, Note_on_c, 2, 54, 88
6, 28078, Note_off_c, 2, 54, 0
6, 28080, Note_on_c, 2, 52, 88
6, 28138, Note_off_c, 2, 52, 0
6, 28140, Note_on_c, 2, 61, 88
6, 28185, Note_off_c, 2, 61, 0
6, 28200, Note_on_c, 2, 61, 88
6, 28258, Note_off_c, 2, 61, 0
6, 28260, Note_on_c, 2, 52, 88
6, 28318, Note_off_c, 2, 52, 0
6, 28320, Note_on_c, 2, 51, 88
6, 28378, Note_off_c, 2, 51, 0
6, 28380, Note_on_c, 2, 59, 88
6, 28425, Note_off_c, 2, 59, 0
6, 28440, Note_on_c, 2, 59, 88
6, 28498, Note_off_c, 2, 59, 0
6, 28500, Note_on_c, 2, 51, 88
6, 28558, Note_off_c, 2, 51, 0
6, 28560, Note_on_c, 2, 49, 88
6, 28618, Note_off_c, 2, 49, 0
6, 28620, Note_on_c, 2, 58, 88
6, 28665, Note_off_c, 2, 58, 0
6, 28680, Note_on_c, 2, 58, 88
6, 28738, Note_off_c, 2, 58, 0
6, 28740, Note_on_c, 2, 49, 88
6, 28798, Note_off_c, 2, 49, 0
6, 28800, Note_on_c, 2, 47, 88
6, 28858, Note_off_c, 2, 47, 0
6, 28860, Note_on_c, 2, 49, 88
6, 28918, Note_off_c, 2, 49, 0
6, 28920, Note_on_c, 2, 47, 88
6, 28978, Note_off_c, 2, 47, 0
6, 28980, Note_on_c, 2, 46, 88
6, 29038, Note_off_c, 2, 46, 0
6, 29040, Note_on_c, 2, 44, 88
6, 29098, Note_off_c, 2, 44, 0
6, 29100, Note_on_c, 2, 46, 88
6, 29158, Note_off_c, 2, 46, 0
6, 29160, Note_on_c, 2, 47, 88
6, 29218, Note_off_c, 2, 47, 0
6, 29220, Note_on_c, 2, 44, 88
6, 29278, Note_off_c, 2, 44, 0
6, 29280, Note_on_c, 2, 49, 88
6, 29338, Note_off_c, 2, 49, 0
6, 29340, Note_on_c, 2, 51, 88
6, 29398, Note_off_c, 2, 51, 0
6, 29400, Note_on_c, 2, 49, 88
6, 29458, Note_off_c, 2, 49, 0
6, 29460, Note_on_c, 2, 47, 88
6, 29518, Note_off_c, 2, 47, 0
6, 29520, Note_on_c, 2, 46, 88
6, 29578, Note_off_c, 2, 46, 0
6, 29580, Note_on_c, 2, 47, 88
6, 29638, Note_off_c, 2, 47, 0
6, 29640, Note_on_c, 2, 49, 88
6, 29698, Note_off_c, 2, 49, 0
6, 29700, Note_on_c, 2, 46, 88
6, 29758, Note_off_c, 2, 46, 0
6, 29760, Note_on_c, 2, 51, 88
6, 29818, Note_off_c, 2, 51, 0
6, 29820, Note_on_c, 2, 53, 88
6, 29878, Note_off_c, 2, 53, 0
6, 29880, Note_on_c, 2, 54, 88
6, 30055, Note_off_c, 2, 54, 0
6, 30060, Note_on_c, 2, 53, 88
6, 30118, Note_off_c, 2, 53, 0
6, 30120, Note_on_c, 2, 51, 88
6, 30178, Note_off_c, 2, 51, 0
6, 30180, Note_on_c, 2, 49, 88
6, 30238, Note_off_c, 2, 49, 0
6, 30240, Note_on_c, 2, 47, 88
6, 30298, Note_off_c, 2, 47, 0
6, 30300, Note_on_c, 2, 49, 88
6, 30358, Note_off_c, 2, 49, 0
6, 30360, Note_on_c, 2, 51, 88
6, 30418, Note_off_c, 2, 51, 0
6, 30420, Note_on_c, 2, 46, 88
6, 30478, Note_off_c, 2, 46, 0
6, 30480, Note_on_c, 2, 47, 88
6, 30538, Note_off_c, 2, 47, 0
6, 30540, Note_on_c, 2, 49, 88
6, 30598, Note_off_c, 2, 49, 0
6, 30600, Note_on_c, 2, 51, 88
6, 30658, Note_off_c, 2, 51, 0
6, 30660, Note_on_c, 2, 47, 88
6, 30718, Note_off_c, 2, 47, 0
6, 30720, Note_on_c, 2, 44, 88
6, 30836, Note_off_c, 2, 44, 0
6, 30840, Note_on_c, 2, 46, 88
6, 30898, Note_off_c, 2, 46, 0
6, 30900, Note_on_c, 2, 47, 88
6, 30958, Note_off_c, 2, 47, 0
6, 30960, Note_on_c, 2, 49, 88
6, 31076, Note_off_c, 2, 49, 0
6, 31080, Note_on_c, 2, 37, 88
6, 31196, Note_off_c, 2, 37, 0
6, 31200, Note_on_c, 2, 42, 88
6, 31316, Note_off_c, 2, 42, 0
6, 31320, Note_on_c, 2, 54, 88
6, 31436, Note_off_c, 2, 54, 0
6, 31440, Note_on_c, 2, 53, 88
6, 31556, Note_off_c, 2, 53, 0
6, 31560, Note_on_c, 2, 49, 88
6, 31676, Note_off_c, 2, 49, 0
6, 31680, Note_on_c, 2, 54, 88
6, 31738, Note_off_c, 2, 54, 0
6, 31740, Note_on_c, 2, 58, 88
6, 31785, Note_off_c, 2, 58, 0
6, 31800, Note_on_c, 2, 58, 88
6, 31858, Note_off_c, 2, 58, 0
6, 31860, Note_on_c, 2, 54, 88
6, 31918, Note_off_c, 2, 54, 0
6, 31920, Note_on_c, 2, 51, 88
6, 31978, Note_off_c, 2, 51, 0
6, 31980, Note_on_c, 2, 54, 88
6, 32025, Note_off_c, 2, 54, 0
6, 32040, Note_on_c, 2, 54, 88
6, 32098, Note_off_c, 2, 54, 0
6, 32100, Note_on_c, 2, 51, 88
6, 32158, Note_off_c, 2, 51, 0
6, 32160, Note_on_c, 2, 47, 88
6, 32276, Note_off_c, 2, 47, 0
6, 32280, Note_on_c, 2, 44, 88
6, 32396, Note_off_c, 2, 44, 0
6, 32400, Note_on_c, 2, 49, 88
6, 32516, Note_off_c, 2, 49, 0
6, 32520, Note_on_c, 2, 37, 88
6, 32636, Note_off_c, 2, 37, 0
6, 32640, Note_on_c, 2, 42, 88
6, 33585, Note_off_c, 2, 42, 0
6, 33585, End_track
0, 0, End_of_file
