0, 0, Header, 1, 7, 240
1, 0, Start_track
1, 0, Time_signature, 6, 2, 24, 8
1, 0, Tempo, 588235
1, 0, SMPTE_offset, 64, 0, 0, 0, 93
1, 0, End_track
2, 0, Start_track
2, 0, Title_t, "(C) & (P) 1993"
2, 127, End_track
3, 0, Start_track
3, 0, Title_t, "CCARH,Stanford"
3, 0, End_track
4, 0, Start_track
4, 0, Title_t, "Track 1"
4, 0, Program_c, 0, 6
4, 20400, Note_on_c, 0, 66, 88
4, 20634, Note_off_c, 0, 66, 0
4, 20640, Note_on_c, 0, 68, 88
4, 20874, Note_off_c, 0, 68, 0
4, 20880, Note_on_c, 0, 69, 88
4, 21834, Note_off_c, 0, 69, 0
4, 21840, Note_on_c, 0, 68, 88
4, 21956, Note_off_c, 0, 68, 0
4, 21960, Note_on_c, 0, 70, 88
4, 22076, Note_off_c, 0, 70, 0
4, 22080, Note_on_c, 0, 71, 88
4, 22550, Note_off_c, 0, 71, 0
4, 22560, Note_on_c, 0, 70, 88
4, 22676, Note_off_c, 0, 70, 0
4, 22680, Note_on_c, 0, 68, 88
4, 22796, Note_off_c, 0, 68, 0
4, 22800, Note_on_c, 0, 70, 88
4, 22916, Note_off_c, 0, 70, 0
4, 22920, Note_on_c, 0, 72, 88
4, 23036, Note_off_c, 0, 72, 0
4, 23040, Note_on_c, 0, 73, 88
4, 23393, Note_off_c, 0, 73, 0
4, 23400, Note_on_c, 0, 71, 88
4, 23516, Note_off_c, 0, 71, 0
4, 23520, Note_on_c, 0, 69, 88
4, 23636, Note_off_c, 0, 69, 0
4, 23640, Note_on_c, 0, 73, 88
4, 23756, Note_off_c, 0, 73, 0
4, 23760, Note_on_c, 0, 71, 88
4, 23876, Note_off_c, 0, 71, 0
4, 23880, Note_on_c, 0, 69, 88
4, 23985, Note_off_c, 0, 69, 0
4, 24000, Note_on_c, 0, 69, 88
4, 24029, Note_off_c, 0, 69, 0
4, 24030, Note_on_c, 0, 68, 88
4, 24066, Note_off_c, 0, 68, 0
4, 24068, Note_on_c, 0, 69, 88
4, 24104, Note_off_c, 0, 69, 0
4, 24105, Note_on_c, 0, 68, 88
4, 24141, Note_off_c, 0, 68, 0
4, 24143, Note_on_c, 0, 69, 88
4, 24179, Note_off_c, 0, 69, 0
4, 24180, Note_on_c, 0, 68, 88
4, 24209, Note_off_c, 0, 68, 0
4, 24210, Note_on_c, 0, 69, 88
4, 24239, Note_off_c, 0, 69, 0
4, 24240, Note_on_c, 0, 68, 88
4, 24474, Note_off_c, 0, 68, 0
4, 24480, Note_on_c, 0, 66, 88
4, 24596, Note_off_c, 0, 66, 0
4, 24600, Note_on_c, 0, 69, 88
4, 24716, Note_off_c, 0, 69, 0
4, 24720, Note_on_c, 0, 71, 88
4, 24836, Note_off_c, 0, 71, 0
4, 24840, Note_on_c, 0, 73, 88
4, 24956, Note_off_c, 0, 73, 0
4, 24960, Note_on_c, 0, 74, 88
4, 25313, Note_off_c, 0, 74, 0
4, 25320, Note_on_c, 0, 71, 88
4, 25436, Note_off_c, 0, 71, 0
4, 25440, Note_on_c, 0, 73, 88
4, 25556, Note_off_c, 0, 73, 0
4, 25560, Note_on_c, 0, 75, 88
4, 25676, Note_off_c, 0, 75, 0
4, 25680, Note_on_c, 0, 76, 88
4, 26036, Note_off_c, 0, 76, 0
4, 26040, Note_on_c, 0, 74, 88
4, 26145, Note_off_c, 0, 74, 0
4, 26160, Note_on_c, 0, 74, 88
4, 26276, Note_off_c, 0, 74, 0
4, 26280, Note_on_c, 0, 73, 88
4, 26385, Note_off_c, 0, 73, 0
4, 26400, Note_on_c, 0, 73, 88
4, 26516, Note_off_c, 0, 73, 0
4, 26520, Note_on_c, 0, 72, 88
4, 26625, Note_off_c, 0, 72, 0
4, 26640, Note_on_c, 0, 72, 88
4, 26874, Note_off_c, 0, 72, 0
4, 26880, Note_on_c, 0, 73, 88
4, 27594, Note_off_c, 0, 73, 0
4, 27600, Note_on_c, 0, 72, 88
4, 28070, Note_off_c, 0, 72, 0
4, 28080, Note_on_c, 0, 73, 88
4, 28196, Note_off_c, 0, 73, 0
4, 28200, Note_on_c, 0, 75, 88
4, 28316, Note_off_c, 0, 75, 0
4, 28320, Note_on_c, 0, 76, 88
4, 28436, Note_off_c, 0, 76, 0
4, 28440, Note_on_c, 0, 78, 88
4, 28556, Note_off_c, 0, 78, 0
4, 28560, Note_on_c, 0, 79, 88
4, 29034, Note_off_c, 0, 79, 0
4, 29040, Note_on_c, 0, 73, 88
4, 29274, Note_off_c, 0, 73, 0
4, 29280, Note_on_c, 0, 78, 88
4, 29396, Note_off_c, 0, 78, 0
4, 29400, Note_on_c, 0, 76, 88
4, 29516, Note_off_c, 0, 76, 0
4, 29520, Note_on_c, 0, 74, 88
4, 29636, Note_off_c, 0, 74, 0
4, 29640, Note_on_c, 0, 73, 88
4, 29756, Note_off_c, 0, 73, 0
4, 29760, Note_on_c, 0, 74, 88
4, 30230, Note_off_c, 0, 74, 0
4, 30240, Note_on_c, 0, 73, 88
4, 30474, Note_off_c, 0, 73, 0
4, 30480, Note_on_c, 0, 75, 88
4, 30714, Note_off_c, 0, 75, 0
4, 30720, Note_on_c, 0, 77, 88
4, 30954, Note_off_c, 0, 77, 0
4, 30960, Note_on_c, 0, 78, 88
4, 32150, Note_off_c, 0, 78, 0
4, 32160, Note_on_c, 0, 76, 88
4, 32630, Note_off_c, 0, 76, 0
4, 32640, Note_on_c, 0, 74, 88
4, 33354, Note_off_c, 0, 74, 0
4, 33360, Note_on_c, 0, 73, 88
4, 34068, Note_off_c, 0, 73, 0
4, 34080, Note_on_c, 0, 71, 88
4, 34676, Note_off_c, 0, 71, 0
4, 34680, Note_on_c, 0, 68, 88
4, 34796, Note_off_c, 0, 68, 0
4, 34800, Note_on_c, 0, 69, 88
4, 34916, Note_off_c, 0, 69, 0
4, 34920, Note_on_c, 0, 73, 88
4, 35036, Note_off_c, 0, 73, 0
4, 35040, Note_on_c, 0, 78, 88
4, 35156, Note_off_c, 0, 78, 0
4, 35160, Note_on_c, 0, 75, 88
4, 35276, Note_off_c, 0, 75, 0
4, 35280, Note_on_c, 0, 76, 88
4, 36234, Note_off_c, 0, 76, 0
4, 36240, Note_on_c, 0, 75, 88
4, 36356, Note_off_c, 0, 75, 0
4, 36360, Note_on_c, 0, 77, 88
4, 36476, Note_off_c, 0, 77, 0
4, 36480, Note_on_c, 0, 78, 88
4, 36950, Note_off_c, 0, 78, 0
4, 36960, Note_on_c, 0, 77, 88
4, 37076, Note_off_c, 0, 77, 0
4, 37080, Note_on_c, 0, 75, 88
4, 37196, Note_off_c, 0, 75, 0
4, 37200, Note_on_c, 0, 77, 88
4, 37316, Note_off_c, 0, 77, 0
4, 37320, Note_on_c, 0, 79, 88
4, 37436, Note_off_c, 0, 79, 0
4, 37440, Note_on_c, 0, 80, 88
4, 37793, Note_off_c, 0, 80, 0
4, 37800, Note_on_c, 0, 78, 88
4, 37916, Note_off_c, 0, 78, 0
4, 37920, Note_on_c, 0, 76, 88
4, 38036, Note_off_c, 0, 76, 0
4, 38040, Note_on_c, 0, 80, 88
4, 38156, Note_off_c, 0, 80, 0
4, 38160, Note_on_c, 0, 78, 88
4, 38276, Note_off_c, 0, 78, 0
4, 38280, Note_on_c, 0, 76, 88
4, 38385, Note_off_c, 0, 76, 0
4, 38400, Note_on_c, 0, 76, 88
4, 38429, Note_off_c, 0, 76, 0
4, 38430, Note_on_c, 0, 75, 88
4, 38466, Note_off_c, 0, 75, 0
4, 38468, Note_on_c, 0, 76, 88
4, 38504, Note_off_c, 0, 76, 0
4, 38505, Note_on_c, 0, 75, 88
4, 38541, Note_off_c, 0, 75, 0
4, 38543, Note_on_c, 0, 76, 88
4, 38579, Note_off_c, 0, 76, 0
4, 38580, Note_on_c, 0, 75, 88
4, 38609, Note_off_c, 0, 75, 0
4, 38610, Note_on_c, 0, 76, 88
4, 38639, Note_off_c, 0, 76, 0
4, 38640, Note_on_c, 0, 75, 88
4, 38874, Note_off_c, 0, 75, 0
4, 38880, Note_on_c, 0, 73, 88
4, 38996, Note_off_c, 0, 73, 0
4, 39000, Note_on_c, 0, 76, 88
4, 39116, Note_off_c, 0, 76, 0
4, 39120, Note_on_c, 0, 78, 88
4, 39236, Note_off_c, 0, 78, 0
4, 39240, Note_on_c, 0, 80, 88
4, 39356, Note_off_c, 0, 80, 0
4, 39360, Note_on_c, 0, 81, 88
4, 39713, Note_off_c, 0, 81, 0
4, 39720, Note_on_c, 0, 78, 88
4, 39836, Note_off_c, 0, 78, 0
4, 39840, Note_on_c, 0, 80, 88
4, 39956, Note_off_c, 0, 80, 0
4, 39960, Note_on_c, 0, 82, 88
4, 40076, Note_off_c, 0, 82, 0
4, 40080, Note_on_c, 0, 83, 88
4, 40436, Note_off_c, 0, 83, 0
4, 40440, Note_on_c, 0, 81, 88
4, 40545, Note_off_c, 0, 81, 0
4, 40560, Note_on_c, 0, 81, 88
4, 40676, Note_off_c, 0, 81, 0
4, 40680, Note_on_c, 0, 80, 88
4, 40785, Note_off_c, 0, 80, 0
4, 40800, Note_on_c, 0, 80, 88
4, 40916, Note_off_c, 0, 80, 0
4, 40920, Note_on_c, 0, 78, 88
4, 41025, Note_off_c, 0, 78, 0
4, 41040, Note_on_c, 0, 78, 88
4, 41156, Note_off_c, 0, 78, 0
4, 41160, Note_on_c, 0, 81, 88
4, 41218, Note_off_c, 0, 81, 0
4, 41220, Note_on_c, 0, 80, 88
4, 41278, Note_off_c, 0, 80, 0
4, 41280, Note_on_c, 0, 78, 88
4, 41396, Note_off_c, 0, 78, 0
4, 41400, Note_on_c, 0, 76, 88
4, 41505, Note_off_c, 0, 76, 0
4, 41520, Note_on_c, 0, 76, 88
4, 41636, Note_off_c, 0, 76, 0
4, 41640, Note_on_c, 0, 75, 88
4, 41756, Note_off_c, 0, 75, 0
4, 41760, Note_on_c, 0, 75, 88
4, 41876, Note_off_c, 0, 75, 0
4, 41880, Note_on_c, 0, 76, 88
4, 41985, Note_off_c, 0, 76, 0
4, 42000, Note_on_c, 0, 76, 88
4, 42116, Note_off_c, 0, 76, 0
4, 42120, Note_on_c, 0, 74, 88
4, 42225, Note_off_c, 0, 74, 0
4, 42240, Note_on_c, 0, 74, 88
4, 42356, Note_off_c, 0, 74, 0
4, 42360, Note_on_c, 0, 73, 88
4, 42465, Note_off_c, 0, 73, 0
4, 42480, Note_on_c, 0, 73, 88
4, 43070, Note_off_c, 0, 73, 0
4, 43080, Note_on_c, 0, 75, 88
4, 43196, Note_off_c, 0, 75, 0
4, 43200, Note_on_c, 0, 77, 88
4, 43316, Note_off_c, 0, 77, 0
4, 43320, Note_on_c, 0, 78, 88
4, 43436, Note_off_c, 0, 78, 0
4, 43440, Note_on_c, 0, 80, 88
4, 43674, Note_off_c, 0, 80, 0
4, 43680, Note_on_c, 0, 73, 88
4, 43914, Note_off_c, 0, 73, 0
4, 43920, Note_on_c, 0, 78, 88
4, 44390, Note_off_c, 0, 78, 0
4, 44400, Note_on_c, 0, 77, 88
4, 44634, Note_off_c, 0, 77, 0
4, 44640, Note_on_c, 0, 78, 88
4, 44756, Note_off_c, 0, 78, 0
4, 44760, Note_on_c, 0, 76, 88
4, 44876, Note_off_c, 0, 76, 0
4, 44880, Note_on_c, 0, 74, 88
4, 44996, Note_off_c, 0, 74, 0
4, 45000, Note_on_c, 0, 73, 88
4, 45105, Note_off_c, 0, 73, 0
4, 45120, Note_on_c, 0, 73, 88
4, 45236, Note_off_c, 0, 73, 0
4, 45240, Note_on_c, 0, 71, 88
4, 45345, Note_off_c, 0, 71, 0
4, 45360, Note_on_c, 0, 71, 88
4, 45476, Note_off_c, 0, 71, 0
4, 45480, Note_on_c, 0, 78, 88
4, 45596, Note_off_c, 0, 78, 0
4, 45600, Note_on_c, 0, 71, 88
4, 45716, Note_off_c, 0, 71, 0
4, 45720, Note_on_c, 0, 69, 88
4, 45825, Note_off_c, 0, 69, 0
4, 45840, Note_on_c, 0, 69, 88
4, 45956, Note_off_c, 0, 69, 0
4, 45960, Note_on_c, 0, 68, 88
4, 46076, Note_off_c, 0, 68, 0
4, 46080, Note_on_c, 0, 68, 88
4, 46433, Note_off_c, 0, 68, 0
4, 46440, Note_on_c, 0, 71, 88
4, 46556, Note_off_c, 0, 71, 0
4, 46560, Note_on_c, 0, 69, 88
4, 46676, Note_off_c, 0, 69, 0
4, 46680, Note_on_c, 0, 68, 88
4, 46796, Note_off_c, 0, 68, 0
4, 46800, Note_on_c, 0, 66, 88
4, 46916, Note_off_c, 0, 66, 0
4, 46920, Note_on_c, 0, 65, 88
4, 47036, Note_off_c, 0, 65, 0
4, 47040, Note_on_c, 0, 66, 88
4, 47156, Note_off_c, 0, 66, 0
4, 47160, Note_on_c, 0, 69, 88
4, 47276, Note_off_c, 0, 69, 0
4, 47280, Note_on_c, 0, 71, 88
4, 47396, Note_off_c, 0, 71, 0
4, 47400, Note_on_c, 0, 73, 88
4, 47516, Note_off_c, 0, 73, 0
4, 47520, Note_on_c, 0, 74, 88
4, 48347, Note_off_c, 0, 74, 0
4, 48360, Note_on_c, 0, 68, 88
4, 48476, Note_off_c, 0, 68, 0
4, 48480, Note_on_c, 0, 73, 88
4, 48596, Note_off_c, 0, 73, 0
4, 48600, Note_on_c, 0, 71, 88
4, 48705, Note_off_c, 0, 71, 0
4, 48720, Note_on_c, 0, 71, 88
4, 48836, Note_off_c, 0, 71, 0
4, 48840, Note_on_c, 0, 69, 88
4, 48956, Note_off_c, 0, 69, 0
4, 48960, Note_on_c, 0, 69, 88
4, 49787, Note_off_c, 0, 69, 0
4, 49800, Note_on_c, 0, 73, 88
4, 49916, Note_off_c, 0, 73, 0
4, 49920, Note_on_c, 0, 71, 88
4, 50036, Note_off_c, 0, 71, 0
4, 50040, Note_on_c, 0, 69, 88
4, 50145, Note_off_c, 0, 69, 0
4, 50160, Note_on_c, 0, 69, 88
4, 50276, Note_off_c, 0, 69, 0
4, 50280, Note_on_c, 0, 68, 88
4, 50396, Note_off_c, 0, 68, 0
4, 50400, Note_on_c, 0, 68, 88
4, 51227, Note_off_c, 0, 68, 0
4, 51240, Note_on_c, 0, 71, 88
4, 51356, Note_off_c, 0, 71, 0
4, 51360, Note_on_c, 0, 69, 88
4, 51476, Note_off_c, 0, 69, 0
4, 51480, Note_on_c, 0, 67, 88
4, 51585, Note_off_c, 0, 67, 0
4, 51600, Note_on_c, 0, 67, 88
4, 51716, Note_off_c, 0, 67, 0
4, 51720, Note_on_c, 0, 66, 88
4, 51836, Note_off_c, 0, 66, 0
4, 51840, Note_on_c, 0, 66, 88
4, 51956, Note_off_c, 0, 66, 0
4, 51960, Note_on_c, 0, 65, 88
4, 52076, Note_off_c, 0, 65, 0
4, 52080, Note_on_c, 0, 66, 88
4, 52314, Note_off_c, 0, 66, 0
4, 52320, Note_on_c, 0, 68, 88
4, 52554, Note_off_c, 0, 68, 0
4, 52560, Note_on_c, 0, 69, 88
4, 53514, Note_off_c, 0, 69, 0
4, 53520, Note_on_c, 0, 68, 88
4, 53636, Note_off_c, 0, 68, 0
4, 53640, Note_on_c, 0, 70, 88
4, 53756, Note_off_c, 0, 70, 0
4, 53760, Note_on_c, 0, 71, 88
4, 54230, Note_off_c, 0, 71, 0
4, 54240, Note_on_c, 0, 70, 88
4, 54356, Note_off_c, 0, 70, 0
4, 54360, Note_on_c, 0, 68, 88
4, 54476, Note_off_c, 0, 68, 0
4, 54480, Note_on_c, 0, 70, 88
4, 54596, Note_off_c, 0, 70, 0
4, 54600, Note_on_c, 0, 72, 88
4, 54716, Note_off_c, 0, 72, 0
4, 54720, Note_on_c, 0, 73, 88
4, 55073, Note_off_c, 0, 73, 0
4, 55080, Note_on_c, 0, 71, 88
4, 55196, Note_off_c, 0, 71, 0
4, 55200, Note_on_c, 0, 69, 88
4, 55316, Note_off_c, 0, 69, 0
4, 55320, Note_on_c, 0, 73, 88
4, 55436, Note_off_c, 0, 73, 0
4, 55440, Note_on_c, 0, 71, 88
4, 55556, Note_off_c, 0, 71, 0
4, 55560, Note_on_c, 0, 69, 88
4, 55665, Note_off_c, 0, 69, 0
4, 55680, Note_on_c, 0, 69, 88
4, 55709, Note_off_c, 0, 69, 0
4, 55710, Note_on_c, 0, 68, 88
4, 55746, Note_off_c, 0, 68, 0
4, 55748, Note_on_c, 0, 69, 88
4, 55784, Note_off_c, 0, 69, 0
4, 55785, Note_on_c, 0, 68, 88
4, 55821, Note_off_c, 0, 68, 0
4, 55823, Note_on_c, 0, 69, 88
4, 55859, Note_off_c, 0, 69, 0
4, 55860, Note_on_c, 0, 68, 88
4, 55889, Note_off_c, 0, 68, 0
4, 55890, Note_on_c, 0, 69, 88
4, 55919, Note_off_c, 0, 69, 0
4, 55920, Note_on_c, 0, 68, 88
4, 56154, Note_off_c, 0, 68, 0
4, 56160, Note_on_c, 0, 66, 88
4, 57577, Note_off_c, 0, 66, 0
4, 57577, End_track
5, 0, Start_track
5, 0, Title_t, "Track 2"
5, 0, Program_c, 1, 6
5, 4560, Note_on_c, 1, 61, 88
5, 4794, Note_off_c, 1, 61, 0
5, 4800, Note_on_c, 1, 63, 88
5, 5034, Note_off_c, 1, 63, 0
5, 5040, Note_on_c, 1, 64, 88
5, 5994, Note_off_c, 1, 64, 0
5, 6000, Note_on_c, 1, 63, 88
5, 6116, Note_off_c, 1, 63, 0
5, 6120, Note_on_c, 1, 65, 88
5, 6236, Note_off_c, 1, 65, 0
5, 6240, Note_on_c, 1, 66, 88
5, 6710, Note_off_c, 1, 66, 0
5, 6720, Note_on_c, 1, 65, 88
5, 6836, Note_off_c, 1, 65, 0
5, 6840, Note_on_c, 1, 63, 88
5, 6956, Note_off_c, 1, 63, 0
5, 6960, Note_on_c, 1, 65, 88
5, 7076, Note_off_c, 1, 65, 0
5, 7080, Note_on_c, 1, 67, 88
5, 7196, Note_off_c, 1, 67, 0
5, 7200, Note_on_c, 1, 68, 88
5, 7553, Note_off_c, 1, 68, 0
5, 7560, Note_on_c, 1, 66, 88
5, 7676, Note_off_c, 1, 66, 0
5, 7680, Note_on_c, 1, 64, 88
5, 7796, Note_off_c, 1, 64, 0
5, 7800, Note_on_c, 1, 68, 88
5, 7916, Note_off_c, 1, 68, 0
5, 7920, Note_on_c, 1, 66, 88
5, 8036, Note_off_c, 1, 66, 0
5, 8040, Note_on_c, 1, 64, 88
5, 8145, Note_off_c, 1, 64, 0
5, 8160, Note_on_c, 1, 64, 88
5, 8189, Note_off_c, 1, 64, 0
5, 8190, Note_on_c, 1, 63, 88
5, 8234, Note_off_c, 1, 63, 0
5, 8235, Note_on_c, 1, 64, 88
5, 8279, Note_off_c, 1, 64, 0
5, 8280, Note_on_c, 1, 63, 88
5, 8309, Note_off_c, 1, 63, 0
5, 8310, Note_on_c, 1, 64, 88
5, 8339, Note_off_c, 1, 64, 0
5, 8340, Note_on_c, 1, 63, 88
5, 8369, Note_off_c, 1, 63, 0
5, 8370, Note_on_c, 1, 64, 88
5, 8399, Note_off_c, 1, 64, 0
5, 8400, Note_on_c, 1, 63, 88
5, 8634, Note_off_c, 1, 63, 0
5, 8640, Note_on_c, 1, 61, 88
5, 8756, Note_off_c, 1, 61, 0
5, 8760, Note_on_c, 1, 64, 88
5, 8876, Note_off_c, 1, 64, 0
5, 8880, Note_on_c, 1, 66, 88
5, 8996, Note_off_c, 1, 66, 0
5, 9000, Note_on_c, 1, 68, 88
5, 9116, Note_off_c, 1, 68, 0
5, 9120, Note_on_c, 1, 69, 88
5, 9473, Note_off_c, 1, 69, 0
5, 9480, Note_on_c, 1, 66, 88
5, 9596, Note_off_c, 1, 66, 0
5, 9600, Note_on_c, 1, 68, 88
5, 9716, Note_off_c, 1, 68, 0
5, 9720, Note_on_c, 1, 70, 88
5, 9836, Note_off_c, 1, 70, 0
5, 9840, Note_on_c, 1, 71, 88
5, 10185, Note_off_c, 1, 71, 0
5, 10200, Note_on_c, 1, 71, 88
5, 10305, Note_off_c, 1, 71, 0
5, 10320, Note_on_c, 1, 71, 88
5, 10436, Note_off_c, 1, 71, 0
5, 10440, Note_on_c, 1, 69, 88
5, 10545, Note_off_c, 1, 69, 0
5, 10560, Note_on_c, 1, 69, 88
5, 10676, Note_off_c, 1, 69, 0
5, 10680, Note_on_c, 1, 68, 88
5, 10785, Note_off_c, 1, 68, 0
5, 10800, Note_on_c, 1, 68, 88
5, 10916, Note_off_c, 1, 68, 0
5, 10920, Note_on_c, 1, 66, 88
5, 11025, Note_off_c, 1, 66, 0
5, 11040, Note_on_c, 1, 66, 88
5, 11156, Note_off_c, 1, 66, 0
5, 11160, Note_on_c, 1, 64, 88
5, 11265, Note_off_c, 1, 64, 0
5, 11280, Note_on_c, 1, 64, 88
5, 11396, Note_off_c, 1, 64, 0
5, 11400, Note_on_c, 1, 63, 88
5, 11516, Note_off_c, 1, 63, 0
5, 11520, Note_on_c, 1, 63, 88
5, 11636, Note_off_c, 1, 63, 0
5, 11640, Note_on_c, 1, 64, 88
5, 11745, Note_off_c, 1, 64, 0
5, 11760, Note_on_c, 1, 64, 88
5, 11876, Note_off_c, 1, 64, 0
5, 11880, Note_on_c, 1, 62, 88
5, 11985, Note_off_c, 1, 62, 0
5, 12000, Note_on_c, 1, 62, 88
5, 12116, Note_off_c, 1, 62, 0
5, 12120, Note_on_c, 1, 61, 88
5, 12225, Note_off_c, 1, 61, 0
5, 12240, Note_on_c, 1, 61, 88
5, 12830, Note_off_c, 1, 61, 0
5, 12840, Note_on_c, 1, 63, 88
5, 12956, Note_off_c, 1, 63, 0
5, 12960, Note_on_c, 1, 65, 88
5, 13076, Note_off_c, 1, 65, 0
5, 13080, Note_on_c, 1, 66, 88
5, 13196, Note_off_c, 1, 66, 0
5, 13200, Note_on_c, 1, 68, 88
5, 13434, Note_off_c, 1, 68, 0
5, 13440, Note_on_c, 1, 61, 88
5, 13674, Note_off_c, 1, 61, 0
5, 13680, Note_on_c, 1, 66, 88
5, 14150, Note_off_c, 1, 66, 0
5, 14160, Note_on_c, 1, 65, 88
5, 14394, Note_off_c, 1, 65, 0
5, 14400, Note_on_c, 1, 66, 88
5, 15108, Note_off_c, 1, 66, 0
5, 15120, Note_on_c, 1, 64, 88
5, 15354, Note_off_c, 1, 64, 0
5, 15360, Note_on_c, 1, 66, 88
5, 15476, Note_off_c, 1, 66, 0
5, 15480, Note_on_c, 1, 68, 88
5, 15596, Note_off_c, 1, 68, 0
5, 15600, Note_on_c, 1, 69, 88
5, 15834, Note_off_c, 1, 69, 0
5, 15840, Note_on_c, 1, 68, 88
5, 16548, Note_off_c, 1, 68, 0
5, 16560, Note_on_c, 1, 66, 88
5, 17268, Note_off_c, 1, 66, 0
5, 17280, Note_on_c, 1, 64, 88
5, 17633, Note_off_c, 1, 64, 0
5, 17640, Note_on_c, 1, 66, 88
5, 17756, Note_off_c, 1, 66, 0
5, 17760, Note_on_c, 1, 67, 88
5, 18230, Note_off_c, 1, 67, 0
5, 18240, Note_on_c, 1, 66, 88
5, 18356, Note_off_c, 1, 66, 0
5, 18360, Note_on_c, 1, 64, 88
5, 18476, Note_off_c, 1, 64, 0
5, 18480, Note_on_c, 1, 62, 88
5, 18596, Note_off_c, 1, 62, 0
5, 18600, Note_on_c, 1, 61, 88
5, 18716, Note_off_c, 1, 61, 0
5, 18720, Note_on_c, 1, 62, 88
5, 19073, Note_off_c, 1, 62, 0
5, 19080, Note_on_c, 1, 64, 88
5, 19196, Note_off_c, 1, 64, 0
5, 19200, Note_on_c, 1, 66, 88
5, 19670, Note_off_c, 1, 66, 0
5, 19680, Note_on_c, 1, 64, 88
5, 19796, Note_off_c, 1, 64, 0
5, 19800, Note_on_c, 1, 62, 88
5, 19916, Note_off_c, 1, 62, 0
5, 19920, Note_on_c, 1, 61, 88
5, 20036, Note_off_c, 1, 61, 0
5, 20040, Note_on_c, 1, 59, 88
5, 20156, Note_off_c, 1, 59, 0
5, 20160, Note_on_c, 1, 61, 88
5, 20394, Note_off_c, 1, 61, 0
5, 20400, Note_on_c, 1, 63, 88
5, 20634, Note_off_c, 1, 63, 0
5, 20640, Note_on_c, 1, 65, 88
5, 20874, Note_off_c, 1, 65, 0
5, 20880, Note_on_c, 1, 66, 88
5, 21834, Note_off_c, 1, 66, 0
5, 21840, Note_on_c, 1, 68, 88
5, 22074, Note_off_c, 1, 68, 0
5, 22080, Note_on_c, 1, 66, 88
5, 22314, Note_off_c, 1, 66, 0
5, 22320, Note_on_c, 1, 65, 88
5, 22554, Note_off_c, 1, 65, 0
5, 22560, Note_on_c, 1, 66, 88
5, 22676, Note_off_c, 1, 66, 0
5, 22680, Note_on_c, 1, 65, 88
5, 22796, Note_off_c, 1, 65, 0
5, 22800, Note_on_c, 1, 66, 88
5, 23034, Note_off_c, 1, 66, 0
5, 23040, Note_on_c, 1, 68, 88
5, 23510, Note_off_c, 1, 68, 0
5, 23520, Note_on_c, 1, 66, 88
5, 23873, Note_off_c, 1, 66, 0
5, 23880, Note_on_c, 1, 64, 88
5, 23996, Note_off_c, 1, 64, 0
5, 24000, Note_on_c, 1, 62, 88
5, 24234, Note_off_c, 1, 62, 0
5, 24240, Note_on_c, 1, 61, 88
5, 24833, Note_off_c, 1, 61, 0
5, 24840, Note_on_c, 1, 68, 88
5, 24956, Note_off_c, 1, 68, 0
5, 24960, Note_on_c, 1, 69, 88
5, 25076, Note_off_c, 1, 69, 0
5, 25080, Note_on_c, 1, 71, 88
5, 25196, Note_off_c, 1, 71, 0
5, 25200, Note_on_c, 1, 64, 88
5, 25553, Note_off_c, 1, 64, 0
5, 25560, Note_on_c, 1, 69, 88
5, 25676, Note_off_c, 1, 69, 0
5, 25680, Note_on_c, 1, 71, 88
5, 25796, Note_off_c, 1, 71, 0
5, 25800, Note_on_c, 1, 73, 88
5, 25916, Note_off_c, 1, 73, 0
5, 25920, Note_on_c, 1, 66, 88
5, 26745, Note_off_c, 1, 66, 0
5, 26760, Note_on_c, 1, 66, 88
5, 26865, Note_off_c, 1, 66, 0
5, 26880, Note_on_c, 1, 66, 88
5, 26996, Note_off_c, 1, 66, 0
5, 27000, Note_on_c, 1, 64, 88
5, 27105, Note_off_c, 1, 64, 0
5, 27120, Note_on_c, 1, 64, 88
5, 27236, Note_off_c, 1, 64, 0
5, 27240, Note_on_c, 1, 63, 88
5, 27356, Note_off_c, 1, 63, 0
5, 27360, Note_on_c, 1, 63, 88
5, 27476, Note_off_c, 1, 63, 0
5, 27480, Note_on_c, 1, 68, 88
5, 27585, Note_off_c, 1, 68, 0
5, 27600, Note_on_c, 1, 68, 88
5, 27716, Note_off_c, 1, 68, 0
5, 27720, Note_on_c, 1, 66, 88
5, 27825, Note_off_c, 1, 66, 0
5, 27840, Note_on_c, 1, 66, 88
5, 27956, Note_off_c, 1, 66, 0
5, 27960, Note_on_c, 1, 64, 88
5, 28065, Note_off_c, 1, 64, 0
5, 28080, Note_on_c, 1, 64, 88
5, 28314, Note_off_c, 1, 64, 0
5, 28320, Note_on_c, 1, 73, 88
5, 28554, Note_off_c, 1, 73, 0
5, 28560, Note_on_c, 1, 71, 88
5, 28794, Note_off_c, 1, 71, 0
5, 28800, Note_on_c, 1, 70, 88
5, 29745, Note_off_c, 1, 70, 0
5, 29760, Note_on_c, 1, 71, 88
5, 29876, Note_off_c, 1, 71, 0
5, 29880, Note_on_c, 1, 69, 88
5, 29996, Note_off_c, 1, 69, 0
5, 30000, Note_on_c, 1, 68, 88
5, 30474, Note_off_c, 1, 68, 0
5, 30480, Note_on_c, 1, 69, 88
5, 30596, Note_off_c, 1, 69, 0
5, 30600, Note_on_c, 1, 71, 88
5, 30716, Note_off_c, 1, 71, 0
5, 30720, Note_on_c, 1, 69, 88
5, 30836, Note_off_c, 1, 69, 0
5, 30840, Note_on_c, 1, 68, 88
5, 30956, Note_off_c, 1, 68, 0
5, 30960, Note_on_c, 1, 66, 88
5, 31313, Note_off_c, 1, 66, 0
5, 31320, Note_on_c, 1, 68, 88
5, 31436, Note_off_c, 1, 68, 0
5, 31440, Note_on_c, 1, 69, 88
5, 31556, Note_off_c, 1, 69, 0
5, 31560, Note_on_c, 1, 66, 88
5, 31676, Note_off_c, 1, 66, 0
5, 31680, Note_on_c, 1, 68, 88
5, 31796, Note_off_c, 1, 68, 0
5, 31800, Note_on_c, 1, 69, 88
5, 31916, Note_off_c, 1, 69, 0
5, 31920, Note_on_c, 1, 71, 88
5, 32390, Note_off_c, 1, 71, 0
5, 32400, Note_on_c, 1, 73, 88
5, 32870, Note_off_c, 1, 73, 0
5, 32880, Note_on_c, 1, 66, 88
5, 33114, Note_off_c, 1, 66, 0
5, 33120, Note_on_c, 1, 71, 88
5, 33473, Note_off_c, 1, 71, 0
5, 33480, Note_on_c, 1, 64, 88
5, 33596, Note_off_c, 1, 64, 0
5, 33600, Note_on_c, 1, 66, 88
5, 33716, Note_off_c, 1, 66, 0
5, 33720, Note_on_c, 1, 68, 88
5, 33836, Note_off_c, 1, 68, 0
5, 33840, Note_on_c, 1, 69, 88
5, 34310, Note_off_c, 1, 69, 0
5, 34320, Note_on_c, 1, 62, 88
5, 34554, Note_off_c, 1, 62, 0
5, 34560, Note_on_c, 1, 61, 88
5, 35030, Note_off_c, 1, 61, 0
5, 35040, Note_on_c, 1, 69, 88
5, 35274, Note_off_c, 1, 69, 0
5, 35280, Note_on_c, 1, 68, 88
5, 35396, Note_off_c, 1, 68, 0
5, 35400, Note_on_c, 1, 73, 88
5, 35505, Note_off_c, 1, 73, 0
5, 35520, Note_on_c, 1, 73, 88
5, 35636, Note_off_c, 1, 73, 0
5, 35640, Note_on_c, 1, 71, 88
5, 35745, Note_off_c, 1, 71, 0
5, 35760, Note_on_c, 1, 71, 88
5, 35876, Note_off_c, 1, 71, 0
5, 35880, Note_on_c, 1, 70, 88
5, 35996, Note_off_c, 1, 70, 0
5, 36000, Note_on_c, 1, 70, 88
5, 36116, Note_off_c, 1, 70, 0
5, 36120, Note_on_c, 1, 71, 88
5, 36225, Note_off_c, 1, 71, 0
5, 36240, Note_on_c, 1, 71, 88
5, 36356, Note_off_c, 1, 71, 0
5, 36360, Note_on_c, 1, 69, 88
5, 36465, Note_off_c, 1, 69, 0
5, 36480, Note_on_c, 1, 69, 88
5, 36596, Note_off_c, 1, 69, 0
5, 36600, Note_on_c, 1, 68, 88
5, 36705, Note_off_c, 1, 68, 0
5, 36720, Note_on_c, 1, 68, 88
5, 37310, Note_off_c, 1, 68, 0
5, 37320, Note_on_c, 1, 70, 88
5, 37436, Note_off_c, 1, 70, 0
5, 37440, Note_on_c, 1, 72, 88
5, 37556, Note_off_c, 1, 72, 0
5, 37560, Note_on_c, 1, 73, 88
5, 37676, Note_off_c, 1, 73, 0
5, 37680, Note_on_c, 1, 75, 88
5, 37914, Note_off_c, 1, 75, 0
5, 37920, Note_on_c, 1, 68, 88
5, 38154, Note_off_c, 1, 68, 0
5, 38160, Note_on_c, 1, 73, 88
5, 38630, Note_off_c, 1, 73, 0
5, 38640, Note_on_c, 1, 72, 88
5, 38874, Note_off_c, 1, 72, 0
5, 38880, Note_on_c, 1, 73, 88
5, 39233, Note_off_c, 1, 73, 0
5, 39240, Note_on_c, 1, 71, 88
5, 39356, Note_off_c, 1, 71, 0
5, 39360, Note_on_c, 1, 73, 88
5, 39476, Note_off_c, 1, 73, 0
5, 39480, Note_on_c, 1, 75, 88
5, 39596, Note_off_c, 1, 75, 0
5, 39600, Note_on_c, 1, 76, 88
5, 39953, Note_off_c, 1, 76, 0
5, 39960, Note_on_c, 1, 73, 88
5, 40076, Note_off_c, 1, 73, 0
5, 40080, Note_on_c, 1, 75, 88
5, 40196, Note_off_c, 1, 75, 0
5, 40200, Note_on_c, 1, 77, 88
5, 40316, Note_off_c, 1, 77, 0
5, 40320, Note_on_c, 1, 78, 88
5, 40554, Note_off_c, 1, 78, 0
5, 40560, Note_on_c, 1, 66, 88
5, 40794, Note_off_c, 1, 66, 0
5, 40800, Note_on_c, 1, 65, 88
5, 41034, Note_off_c, 1, 65, 0
5, 41040, Note_on_c, 1, 66, 88
5, 41156, Note_off_c, 1, 66, 0
5, 41160, Note_on_c, 1, 61, 88
5, 41276, Note_off_c, 1, 61, 0
5, 41280, Note_on_c, 1, 66, 88
5, 41396, Note_off_c, 1, 66, 0
5, 41400, Note_on_c, 1, 68, 88
5, 41516, Note_off_c, 1, 68, 0
5, 41520, Note_on_c, 1, 69, 88
5, 41636, Note_off_c, 1, 69, 0
5, 41640, Note_on_c, 1, 66, 88
5, 41756, Note_off_c, 1, 66, 0
5, 41760, Note_on_c, 1, 71, 88
5, 42113, Note_off_c, 1, 71, 0
5, 42120, Note_on_c, 1, 66, 88
5, 42236, Note_off_c, 1, 66, 0
5, 42240, Note_on_c, 1, 68, 88
5, 42356, Note_off_c, 1, 68, 0
5, 42360, Note_on_c, 1, 69, 88
5, 42476, Note_off_c, 1, 69, 0
5, 42480, Note_on_c, 1, 65, 88
5, 42596, Note_off_c, 1, 65, 0
5, 42600, Note_on_c, 1, 61, 88
5, 42716, Note_off_c, 1, 61, 0
5, 42720, Note_on_c, 1, 66, 88
5, 42954, Note_off_c, 1, 66, 0
5, 42960, Note_on_c, 1, 61, 88
5, 43316, Note_off_c, 1, 61, 0
5, 43320, Note_on_c, 1, 63, 88
5, 43436, Note_off_c, 1, 63, 0
5, 43440, Note_on_c, 1, 65, 88
5, 43674, Note_off_c, 1, 65, 0
5, 43680, Note_on_c, 1, 66, 88
5, 43796, Note_off_c, 1, 66, 0
5, 43800, Note_on_c, 1, 64, 88
5, 43916, Note_off_c, 1, 64, 0
5, 43920, Note_on_c, 1, 62, 88
5, 44036, Note_off_c, 1, 62, 0
5, 44040, Note_on_c, 1, 61, 88
5, 44156, Note_off_c, 1, 61, 0
5, 44160, Note_on_c, 1, 59, 88
5, 44630, Note_off_c, 1, 59, 0
5, 44640, Note_on_c, 1, 57, 88
5, 44756, Note_off_c, 1, 57, 0
5, 44760, Note_on_c, 1, 61, 88
5, 44876, Note_off_c, 1, 61, 0
5, 44880, Note_on_c, 1, 66, 88
5, 46185, Note_off_c, 1, 66, 0
5, 46200, Note_on_c, 1, 66, 88
5, 46316, Note_off_c, 1, 66, 0
5, 46320, Note_on_c, 1, 64, 88
5, 46790, Note_off_c, 1, 64, 0
5, 46800, Note_on_c, 1, 62, 88
5, 47153, Note_off_c, 1, 62, 0
5, 47160, Note_on_c, 1, 66, 88
5, 47276, Note_off_c, 1, 66, 0
5, 47280, Note_on_c, 1, 68, 88
5, 47396, Note_off_c, 1, 68, 0
5, 47400, Note_on_c, 1, 70, 88
5, 47516, Note_off_c, 1, 70, 0
5, 47520, Note_on_c, 1, 71, 88
5, 47636, Note_off_c, 1, 71, 0
5, 47640, Note_on_c, 1, 69, 88
5, 47756, Note_off_c, 1, 69, 0
5, 47760, Note_on_c, 1, 68, 88
5, 47876, Note_off_c, 1, 68, 0
5, 47880, Note_on_c, 1, 66, 88
5, 47996, Note_off_c, 1, 66, 0
5, 48000, Note_on_c, 1, 65, 88
5, 48116, Note_off_c, 1, 65, 0
5, 48120, Note_on_c, 1, 66, 88
5, 48236, Note_off_c, 1, 66, 0
5, 48240, Note_on_c, 1, 65, 88
5, 48356, Note_off_c, 1, 65, 0
5, 48360, Note_on_c, 1, 66, 88
5, 48476, Note_off_c, 1, 66, 0
5, 48480, Note_on_c, 1, 68, 88
5, 49065, Note_off_c, 1, 68, 0
5, 49080, Note_on_c, 1, 68, 88
5, 49196, Note_off_c, 1, 68, 0
5, 49200, Note_on_c, 1, 66, 88
5, 49316, Note_off_c, 1, 66, 0
5, 49320, Note_on_c, 1, 64, 88
5, 49425, Note_off_c, 1, 64, 0
5, 49440, Note_on_c, 1, 64, 88
5, 49556, Note_off_c, 1, 64, 0
5, 49560, Note_on_c, 1, 63, 88
5, 49665, Note_off_c, 1, 63, 0
5, 49680, Note_on_c, 1, 63, 88
5, 50516, Note_off_c, 1, 63, 0
5, 50520, Note_on_c, 1, 66, 88
5, 50636, Note_off_c, 1, 66, 0
5, 50640, Note_on_c, 1, 64, 88
5, 50756, Note_off_c, 1, 64, 0
5, 50760, Note_on_c, 1, 62, 88
5, 50865, Note_off_c, 1, 62, 0
5, 50880, Note_on_c, 1, 62, 88
5, 50996, Note_off_c, 1, 62, 0
5, 51000, Note_on_c, 1, 61, 88
5, 51105, Note_off_c, 1, 61, 0
5, 51120, Note_on_c, 1, 61, 88
5, 52074, Note_off_c, 1, 61, 0
5, 52080, Note_on_c, 1, 59, 88
5, 52550, Note_off_c, 1, 59, 0
5, 52680, Note_on_c, 1, 68, 88
5, 52796, Note_off_c, 1, 68, 0
5, 52800, Note_on_c, 1, 66, 88
5, 52916, Note_off_c, 1, 66, 0
5, 52920, Note_on_c, 1, 64, 88
5, 53025, Note_off_c, 1, 64, 0
5, 53040, Note_on_c, 1, 64, 88
5, 53156, Note_off_c, 1, 64, 0
5, 53160, Note_on_c, 1, 63, 88
5, 53276, Note_off_c, 1, 63, 0
5, 53280, Note_on_c, 1, 63, 88
5, 53396, Note_off_c, 1, 63, 0
5, 53400, Note_on_c, 1, 64, 88
5, 53505, Note_off_c, 1, 64, 0
5, 53520, Note_on_c, 1, 64, 88
5, 53636, Note_off_c, 1, 64, 0
5, 53640, Note_on_c, 1, 62, 88
5, 53745, Note_off_c, 1, 62, 0
5, 53760, Note_on_c, 1, 62, 88
5, 53876, Note_off_c, 1, 62, 0
5, 53880, Note_on_c, 1, 61, 88
5, 53985, Note_off_c, 1, 61, 0
5, 54000, Note_on_c, 1, 61, 88
5, 54590, Note_off_c, 1, 61, 0
5, 54600, Note_on_c, 1, 63, 88
5, 54716, Note_off_c, 1, 63, 0
5, 54720, Note_on_c, 1, 65, 88
5, 54954, Note_off_c, 1, 65, 0
5, 54960, Note_on_c, 1, 66, 88
5, 55076, Note_off_c, 1, 66, 0
5, 55080, Note_on_c, 1, 65, 88
5, 55196, Note_off_c, 1, 65, 0
5, 55200, Note_on_c, 1, 66, 88
5, 55908, Note_off_c, 1, 66, 0
5, 55920, Note_on_c, 1, 65, 88
5, 56154, Note_off_c, 1, 65, 0
5, 56160, Note_on_c, 1, 61, 88
5, 57577, Note_off_c, 1, 61, 0
5, 57577, End_track
6, 0, Start_track
6, 0, Title_t, "Track 3"
6, 0, Program_c, 2, 6
6, 240, Note_on_c, 2, 54, 88
6, 474, Note_off_c, 2, 54, 0
6, 480, Note_on_c, 2, 56, 88
6, 714, Note_off_c, 2, 56, 0
6, 720, Note_on_c, 2, 57, 88
6, 1674, Note_off_c, 2, 57, 0
6, 1680, Note_on_c, 2, 56, 88
6, 1796, Note_off_c, 2, 56, 0
6, 1800, Note_on_c, 2, 58, 88
6, 1916, Note_off_c, 2, 58, 0
6, 1920, Note_on_c, 2, 59, 88
6, 2390, Note_off_c, 2, 59, 0
6, 2400, Note_on_c, 2, 58, 88
6, 2516, Note_off_c, 2, 58, 0
6, 2520, Note_on_c, 2, 56, 88
6, 2636, Note_off_c, 2, 56, 0
6, 2640, Note_on_c, 2, 58, 88
6, 2756, Note_off_c, 2, 58, 0
6, 2760, Note_on_c, 2, 60, 88
6, 2876, Note_off_c, 2, 60, 0
6, 2880, Note_on_c, 2, 61, 88
6, 3233, Note_off_c, 2, 61, 0
6, 3240, Note_on_c, 2, 59, 88
6, 3356, Note_off_c, 2, 59, 0
6, 3360, Note_on_c, 2, 57, 88
6, 3476, Note_off_c, 2, 57, 0
6, 3480, Note_on_c, 2, 61, 88
6, 3596, Note_off_c, 2, 61, 0
6, 3600, Note_on_c, 2, 59, 88
6, 3716, Note_off_c, 2, 59, 0
6, 3720, Note_on_c, 2, 57, 88
6, 3825, Note_off_c, 2, 57, 0
6, 3840, Note_on_c, 2, 57, 88
6, 3869, Note_off_c, 2, 57, 0
6, 3870, Note_on_c, 2, 56, 88
6, 3914, Note_off_c, 2, 56, 0
6, 3915, Note_on_c, 2, 57, 88
6, 3959, Note_off_c, 2, 57, 0
6, 3960, Note_on_c, 2, 56, 88
6, 3989, Note_off_c, 2, 56, 0
6, 3990, Note_on_c, 2, 57, 88
6, 4019, Note_off_c, 2, 57, 0
6, 4020, Note_on_c, 2, 56, 88
6, 4049, Note_off_c, 2, 56, 0
6, 4050, Note_on_c, 2, 57, 88
6, 4079, Note_off_c, 2, 57, 0
6, 4080, Note_on_c, 2, 56, 88
6, 4314, Note_off_c, 2, 56, 0
6, 4320, Note_on_c, 2, 54, 88
6, 5028, Note_off_c, 2, 54, 0
6, 5160, Note_on_c, 2, 61, 88
6, 5265, Note_off_c, 2, 61, 0
6, 5280, Note_on_c, 2, 61, 88
6, 5396, Note_off_c, 2, 61, 0
6, 5400, Note_on_c, 2, 59, 88
6, 5505, Note_off_c, 2, 59, 0
6, 5520, Note_on_c, 2, 59, 88
6, 5636, Note_off_c, 2, 59, 0
6, 5640, Note_on_c, 2, 58, 88
6, 5756, Note_off_c, 2, 58, 0
6, 5760, Note_on_c, 2, 58, 88
6, 5876, Note_off_c, 2, 58, 0
6, 5880, Note_on_c, 2, 59, 88
6, 5985, Note_off_c, 2, 59, 0
6, 6000, Note_on_c, 2, 59, 88
6, 6116, Note_off_c, 2, 59, 0
6, 6120, Note_on_c, 2, 57, 88
6, 6225, Note_off_c, 2, 57, 0
6, 6240, Note_on_c, 2, 57, 88
6, 6356, Note_off_c, 2, 57, 0
6, 6360, Note_on_c, 2, 56, 88
6, 6465, Note_off_c, 2, 56, 0
6, 6480, Note_on_c, 2, 56, 88
6, 7070, Note_off_c, 2, 56, 0
6, 7080, Note_on_c, 2, 58, 88
6, 7196, Note_off_c, 2, 58, 0
6, 7200, Note_on_c, 2, 60, 88
6, 7316, Note_off_c, 2, 60, 0
6, 7320, Note_on_c, 2, 61, 88
6, 7436, Note_off_c, 2, 61, 0
6, 7440, Note_on_c, 2, 63, 88
6, 7674, Note_off_c, 2, 63, 0
6, 7680, Note_on_c, 2, 56, 88
6, 7914, Note_off_c, 2, 56, 0
6, 7920, Note_on_c, 2, 61, 88
6, 8390, Note_off_c, 2, 61, 0
6, 8400, Note_on_c, 2, 60, 88
6, 8634, Note_off_c, 2, 60, 0
6, 8640, Note_on_c, 2, 61, 88
6, 8993, Note_off_c, 2, 61, 0
6, 9000, Note_on_c, 2, 59, 88
6, 9116, Note_off_c, 2, 59, 0
6, 9120, Note_on_c, 2, 61, 88
6, 9236, Note_off_c, 2, 61, 0
6, 9240, Note_on_c, 2, 63, 88
6, 9356, Note_off_c, 2, 63, 0
6, 9360, Note_on_c, 2, 64, 88
6, 9713, Note_off_c, 2, 64, 0
6, 9720, Note_on_c, 2, 61, 88
6, 9836, Note_off_c, 2, 61, 0
6, 9840, Note_on_c, 2, 63, 88
6, 9956, Note_off_c, 2, 63, 0
6, 9960, Note_on_c, 2, 65, 88
6, 10076, Note_off_c, 2, 65, 0
6, 10080, Note_on_c, 2, 66, 88
6, 10314, Note_off_c, 2, 66, 0
6, 10320, Note_on_c, 2, 61, 88
6, 10554, Note_off_c, 2, 61, 0
6, 10560, Note_on_c, 2, 59, 88
6, 10794, Note_off_c, 2, 59, 0
6, 10800, Note_on_c, 2, 61, 88
6, 11034, Note_off_c, 2, 61, 0
6, 11040, Note_on_c, 2, 57, 88
6, 11274, Note_off_c, 2, 57, 0
6, 11280, Note_on_c, 2, 54, 88
6, 11514, Note_off_c, 2, 54, 0
6, 11520, Note_on_c, 2, 59, 88
6, 12228, Note_off_c, 2, 59, 0
6, 12240, Note_on_c, 2, 53, 88
6, 12356, Note_off_c, 2, 53, 0
6, 12360, Note_on_c, 2, 49, 88
6, 12476, Note_off_c, 2, 49, 0
6, 12480, Note_on_c, 2, 54, 88
6, 12714, Note_off_c, 2, 54, 0
6, 12720, Note_on_c, 2, 61, 88
6, 13076, Note_off_c, 2, 61, 0
6, 13080, Note_on_c, 2, 63, 88
6, 13196, Note_off_c, 2, 63, 0
6, 13200, Note_on_c, 2, 65, 88
6, 13434, Note_off_c, 2, 65, 0
6, 13440, Note_on_c, 2, 66, 88
6, 13556, Note_off_c, 2, 66, 0
6, 13560, Note_on_c, 2, 64, 88
6, 13676, Note_off_c, 2, 64, 0
6, 13680, Note_on_c, 2, 62, 88
6, 13796, Note_off_c, 2, 62, 0
6, 13800, Note_on_c, 2, 61, 88
6, 13916, Note_off_c, 2, 61, 0
6, 13920, Note_on_c, 2, 59, 88
6, 14516, Note_off_c, 2, 59, 0
6, 14520, Note_on_c, 2, 57, 88
6, 14636, Note_off_c, 2, 57, 0
6, 14640, Note_on_c, 2, 59, 88
6, 14756, Note_off_c, 2, 59, 0
6, 14760, Note_on_c, 2, 61, 88
6, 14876, Note_off_c, 2, 61, 0
6, 14880, Note_on_c, 2, 62, 88
6, 15233, Note_off_c, 2, 62, 0
6, 15240, Note_on_c, 2, 61, 88
6, 15356, Note_off_c, 2, 61, 0
6, 15360, Note_on_c, 2, 63, 88
6, 15476, Note_off_c, 2, 63, 0
6, 15480, Note_on_c, 2, 65, 88
6, 15596, Note_off_c, 2, 65, 0
6, 15600, Note_on_c, 2, 66, 88
6, 15945, Note_off_c, 2, 66, 0
6, 15960, Note_on_c, 2, 66, 88
6, 16076, Note_off_c, 2, 66, 0
6, 16080, Note_on_c, 2, 64, 88
6, 16196, Note_off_c, 2, 64, 0
6, 16200, Note_on_c, 2, 63, 88
6, 16316, Note_off_c, 2, 63, 0
6, 16320, Note_on_c, 2, 61, 88
6, 16436, Note_off_c, 2, 61, 0
6, 16440, Note_on_c, 2, 59, 88
6, 16556, Note_off_c, 2, 59, 0
6, 16560, Note_on_c, 2, 58, 88
6, 16794, Note_off_c, 2, 58, 0
6, 16800, Note_on_c, 2, 60, 88
6, 16916, Note_off_c, 2, 60, 0
6, 16920, Note_on_c, 2, 61, 88
6, 17036, Note_off_c, 2, 61, 0
6, 17040, Note_on_c, 2, 63, 88
6, 17385, Note_off_c, 2, 63, 0
6, 17400, Note_on_c, 2, 63, 88
6, 17516, Note_off_c, 2, 63, 0
6, 17520, Note_on_c, 2, 61, 88
6, 17754, Note_off_c, 2, 61, 0
6, 17760, Note_on_c, 2, 59, 88
6, 17994, Note_off_c, 2, 59, 0
6, 18000, Note_on_c, 2, 58, 88
6, 18116, Note_off_c, 2, 58, 0
6, 18120, Note_on_c, 2, 59, 88
6, 18236, Note_off_c, 2, 59, 0
6, 18240, Note_on_c, 2, 61, 88
6, 18825, Note_off_c, 2, 61, 0
6, 18840, Note_on_c, 2, 61, 88
6, 18956, Note_off_c, 2, 61, 0
6, 18960, Note_on_c, 2, 59, 88
6, 19194, Note_off_c, 2, 59, 0
6, 19200, Note_on_c, 2, 57, 88
6, 19434, Note_off_c, 2, 57, 0
6, 19440, Note_on_c, 2, 56, 88
6, 19556, Note_off_c, 2, 56, 0
6, 19560, Note_on_c, 2, 57, 88
6, 19676, Note_off_c, 2, 57, 0
6, 19680, Note_on_c, 2, 59, 88
6, 20276, Note_off_c, 2, 59, 0
6, 20280, Note_on_c, 2, 62, 88
6, 20396, Note_off_c, 2, 62, 0
6, 20400, Note_on_c, 2, 61, 88
6, 20516, Note_off_c, 2, 61, 0
6, 20520, Note_on_c, 2, 59, 88
6, 20625, Note_off_c, 2, 59, 0
6, 20640, Note_on_c, 2, 59, 88
6, 20756, Note_off_c, 2, 59, 0
6, 20760, Note_on_c, 2, 57, 88
6, 20865, Note_off_c, 2, 57, 0
6, 20880, Note_on_c, 2, 57, 88
6, 20996, Note_off_c, 2, 57, 0
6, 21000, Note_on_c, 2, 59, 88
6, 21116, Note_off_c, 2, 59, 0
6, 21120, Note_on_c, 2, 61, 88
6, 21590, Note_off_c, 2, 61, 0
6, 21600, Note_on_c, 2, 59, 88
6, 22308, Note_off_c, 2, 59, 0
6, 22320, Note_on_c, 2, 61, 88
6, 23156, Note_off_c, 2, 61, 0
6, 23160, Note_on_c, 2, 63, 88
6, 23276, Note_off_c, 2, 63, 0
6, 23280, Note_on_c, 2, 65, 88
6, 23514, Note_off_c, 2, 65, 0
6, 23520, Note_on_c, 2, 66, 88
6, 23636, Note_off_c, 2, 66, 0
6, 23640, Note_on_c, 2, 64, 88
6, 23756, Note_off_c, 2, 64, 0
6, 23760, Note_on_c, 2, 62, 88
6, 23876, Note_off_c, 2, 62, 0
6, 23880, Note_on_c, 2, 61, 88
6, 23996, Note_off_c, 2, 61, 0
6, 24000, Note_on_c, 2, 59, 88
6, 24116, Note_off_c, 2, 59, 0
6, 24120, Note_on_c, 2, 57, 88
6, 24236, Note_off_c, 2, 57, 0
6, 24240, Note_on_c, 2, 56, 88
6, 24356, Note_off_c, 2, 56, 0
6, 24360, Note_on_c, 2, 59, 88
6, 24476, Note_off_c, 2, 59, 0
6, 24480, Note_on_c, 2, 57, 88
6, 24714, Note_off_c, 2, 57, 0
6, 40560, Note_on_c, 2, 54, 88
6, 40794, Note_off_c, 2, 54, 0
6, 40800, Note_on_c, 2, 56, 88
6, 41034, Note_off_c, 2, 56, 0
6, 41040, Note_on_c, 2, 57, 88
6, 41994, Note_off_c, 2, 57, 0
6, 42000, Note_on_c, 2, 56, 88
6, 42116, Note_off_c, 2, 56, 0
6, 42120, Note_on_c, 2, 58, 88
6, 42236, Note_off_c, 2, 58, 0
6, 42240, Note_on_c, 2, 59, 88
6, 42710, Note_off_c, 2, 59, 0
6, 42720, Note_on_c, 2, 58, 88
6, 42836, Note_off_c, 2, 58, 0
6, 42840, Note_on_c, 2, 56, 88
6, 42956, Note_off_c, 2, 56, 0
6, 42960, Note_on_c, 2, 58, 88
6, 43076, Note_off_c, 2, 58, 0
6, 43080, Note_on_c, 2, 60, 88
6, 43196, Note_off_c, 2, 60, 0
6, 43200, Note_on_c, 2, 61, 88
6, 43553, Note_off_c, 2, 61, 0
6, 43560, Note_on_c, 2, 59, 88
6, 43676, Note_off_c, 2, 59, 0
6, 43680, Note_on_c, 2, 57, 88
6, 43796, Note_off_c, 2, 57, 0
6, 43800, Note_on_c, 2, 61, 88
6, 43916, Note_off_c, 2, 61, 0
6, 43920, Note_on_c, 2, 59, 88
6, 44036, Note_off_c, 2, 59, 0
6, 44040, Note_on_c, 2, 57, 88
6, 44145, Note_off_c, 2, 57, 0
6, 44160, Note_on_c, 2, 57, 88
6, 44189, Note_off_c, 2, 57, 0
6, 44190, Note_on_c, 2, 56, 88
6, 44234, Note_off_c, 2, 56, 0
6, 44235, Note_on_c, 2, 57, 88
6, 44279, Note_off_c, 2, 57, 0
6, 44280, Note_on_c, 2, 56, 88
6, 44309, Note_off_c, 2, 56, 0
6, 44310, Note_on_c, 2, 57, 88
6, 44339, Note_off_c, 2, 57, 0
6, 44340, Note_on_c, 2, 56, 88
6, 44369, Note_off_c, 2, 56, 0
6, 44370, Note_on_c, 2, 57, 88
6, 44399, Note_off_c, 2, 57, 0
6, 44400, Note_on_c, 2, 56, 88
6, 44634, Note_off_c, 2, 56, 0
6, 44640, Note_on_c, 2, 54, 88
6, 44874, Note_off_c, 2, 54, 0
6, 44880, Note_on_c, 2, 57, 88
6, 45588, Note_off_c, 2, 57, 0
6, 45600, Note_on_c, 2, 54, 88
6, 45834, Note_off_c, 2, 54, 0
6, 45840, Note_on_c, 2, 59, 88
6, 46550, Note_off_c, 2, 59, 0
6, 46560, Note_on_c, 2, 61, 88
6, 46676, Note_off_c, 2, 61, 0
6, 46680, Note_on_c, 2, 59, 88
6, 46796, Note_off_c, 2, 59, 0
6, 46800, Note_on_c, 2, 57, 88
6, 47270, Note_off_c, 2, 57, 0
6, 47640, Note_on_c, 2, 54, 88
6, 47756, Note_off_c, 2, 54, 0
6, 47760, Note_on_c, 2, 59, 88
6, 48113, Note_off_c, 2, 59, 0
6, 48120, Note_on_c, 2, 57, 88
6, 48236, Note_off_c, 2, 57, 0
6, 48240, Note_on_c, 2, 56, 88
6, 48585, Note_off_c, 2, 56, 0
6, 48600, Note_on_c, 2, 56, 88
6, 48716, Note_off_c, 2, 56, 0
6, 48720, Note_on_c, 2, 61, 88
6, 49076, Note_off_c, 2, 61, 0
6, 49080, Note_on_c, 2, 64, 88
6, 49196, Note_off_c, 2, 64, 0
6, 49200, Note_on_c, 2, 63, 88
6, 49316, Note_off_c, 2, 63, 0
6, 49320, Note_on_c, 2, 61, 88
6, 49425, Note_off_c, 2, 61, 0
6, 49440, Note_on_c, 2, 61, 88
6, 49556, Note_off_c, 2, 61, 0
6, 49560, Note_on_c, 2, 59, 88
6, 49665, Note_off_c, 2, 59, 0
6, 49680, Note_on_c, 2, 59, 88
6, 50516, Note_off_c, 2, 59, 0
6, 50520, Note_on_c, 2, 62, 88
6, 50636, Note_off_c, 2, 62, 0
6, 50640, Note_on_c, 2, 61, 88
6, 50756, Note_off_c, 2, 61, 0
6, 50760, Note_on_c, 2, 59, 88
6, 50865, Note_off_c, 2, 59, 0
6, 50880, Note_on_c, 2, 59, 88
6, 50996, Note_off_c, 2, 59, 0
6, 51000, Note_on_c, 2, 57, 88
6, 51105, Note_off_c, 2, 57, 0
6, 51120, Note_on_c, 2, 57, 88
6, 52185, Note_off_c, 2, 57, 0
6, 52200, Note_on_c, 2, 57, 88
6, 52316, Note_off_c, 2, 57, 0
6, 52320, Note_on_c, 2, 56, 88
6, 52436, Note_off_c, 2, 56, 0
6, 52440, Note_on_c, 2, 54, 88
6, 52556, Note_off_c, 2, 54, 0
6, 52560, Note_on_c, 2, 53, 88
6, 52676, Note_off_c, 2, 53, 0
6, 52680, Note_on_c, 2, 59, 88
6, 52796, Note_off_c, 2, 59, 0
6, 52800, Note_on_c, 2, 57, 88
6, 52916, Note_off_c, 2, 57, 0
6, 52920, Note_on_c, 2, 56, 88
6, 53025, Note_off_c, 2, 56, 0
6, 53040, Note_on_c, 2, 56, 88
6, 53156, Note_off_c, 2, 56, 0
6, 53160, Note_on_c, 2, 54, 88
6, 53276, Note_off_c, 2, 54, 0
6, 53280, Note_on_c, 2, 54, 88
6, 53396, Note_off_c, 2, 54, 0
6, 53400, Note_on_c, 2, 56, 88
6, 53505, Note_off_c, 2, 56, 0
6, 53520, Note_on_c, 2, 56, 88
6, 53636, Note_off_c, 2, 56, 0
6, 53640, Note_on_c, 2, 54, 88
6, 53745, Note_off_c, 2, 54, 0
6, 53760, Note_on_c, 2, 54, 88
6, 53876, Note_off_c, 2, 54, 0
6, 53880, Note_on_c, 2, 53, 88
6, 53985, Note_off_c, 2, 53, 0
6, 54000, Note_on_c, 2, 53, 88
6, 54234, Note_off_c, 2, 53, 0
6, 54240, Note_on_c, 2, 54, 88
6, 54356, Note_off_c, 2, 54, 0
6, 54360, Note_on_c, 2, 53, 88
6, 54476, Note_off_c, 2, 53, 0
6, 54480, Note_on_c, 2, 54, 88
6, 54714, Note_off_c, 2, 54, 0
6, 54720, Note_on_c, 2, 56, 88
6, 54954, Note_off_c, 2, 56, 0
6, 54960, Note_on_c, 2, 61, 88
6, 55430, Note_off_c, 2, 61, 0
6, 55560, Note_on_c, 2, 54, 88
6, 55676, Note_off_c, 2, 54, 0
6, 55680, Note_on_c, 2, 61, 88
6, 55796, Note_off_c, 2, 61, 0
6, 55800, Note_on_c, 2, 59, 88
6, 55905, Note_off_c, 2, 59, 0
6, 55920, Note_on_c, 2, 59, 88
6, 56036, Note_off_c, 2, 59, 0
6, 56040, Note_on_c, 2, 58, 88
6, 56156, Note_off_c, 2, 58, 0
6, 56160, Note_on_c, 2, 58, 88
6, 57577, Note_off_c, 2, 58, 0
6, 57577, End_track
7, 0, Start_track
7, 0, Title_t, "Track 4"
7, 0, Program_c, 3, 6
7, 10320, Note_on_c, 3, 42, 88
7, 10554, Note_off_c, 3, 42, 0
7, 10560, Note_on_c, 3, 44, 88
7, 10794, Note_off_c, 3, 44, 0
7, 10800, Note_on_c, 3, 45, 88
7, 11754, Note_off_c, 3, 45, 0
7, 11760, Note_on_c, 3, 44, 88
7, 11876, Note_off_c, 3, 44, 0
7, 11880, Note_on_c, 3, 46, 88
7, 11996, Note_off_c, 3, 46, 0
7, 12000, Note_on_c, 3, 47, 88
7, 12470, Note_off_c, 3, 47, 0
7, 12480, Note_on_c, 3, 46, 88
7, 12596, Note_off_c, 3, 46, 0
7, 12600, Note_on_c, 3, 44, 88
7, 12716, Note_off_c, 3, 44, 0
7, 12720, Note_on_c, 3, 46, 88
7, 12836, Note_off_c, 3, 46, 0
7, 12840, Note_on_c, 3, 48, 88
7, 12956, Note_off_c, 3, 48, 0
7, 12960, Note_on_c, 3, 49, 88
7, 13313, Note_off_c, 3, 49, 0
7, 13320, Note_on_c, 3, 47, 88
7, 13436, Note_off_c, 3, 47, 0
7, 13440, Note_on_c, 3, 45, 88
7, 13556, Note_off_c, 3, 45, 0
7, 13560, Note_on_c, 3, 49, 88
7, 13676, Note_off_c, 3, 49, 0
7, 13680, Note_on_c, 3, 47, 88
7, 13796, Note_off_c, 3, 47, 0
7, 13800, Note_on_c, 3, 45, 88
7, 13905, Note_off_c, 3, 45, 0
7, 13920, Note_on_c, 3, 45, 88
7, 13949, Note_off_c, 3, 45, 0
7, 13950, Note_on_c, 3, 44, 88
7, 13994, Note_off_c, 3, 44, 0
7, 13995, Note_on_c, 3, 45, 88
7, 14039, Note_off_c, 3, 45, 0
7, 14040, Note_on_c, 3, 44, 88
7, 14069, Note_off_c, 3, 44, 0
7, 14070, Note_on_c, 3, 45, 88
7, 14099, Note_off_c, 3, 45, 0
7, 14100, Note_on_c, 3, 44, 88
7, 14129, Note_off_c, 3, 44, 0
7, 14130, Note_on_c, 3, 45, 88
7, 14159, Note_off_c, 3, 45, 0
7, 14160, Note_on_c, 3, 44, 88
7, 14394, Note_off_c, 3, 44, 0
7, 14400, Note_on_c, 3, 42, 88
7, 14753, Note_off_c, 3, 42, 0
7, 14760, Note_on_c, 3, 40, 88
7, 14876, Note_off_c, 3, 40, 0
7, 14880, Note_on_c, 3, 42, 88
7, 14996, Note_off_c, 3, 42, 0
7, 15000, Note_on_c, 3, 44, 88
7, 15116, Note_off_c, 3, 44, 0
7, 15120, Note_on_c, 3, 45, 88
7, 15710, Note_off_c, 3, 45, 0
7, 15720, Note_on_c, 3, 47, 88
7, 15836, Note_off_c, 3, 47, 0
7, 15840, Note_on_c, 3, 49, 88
7, 15956, Note_off_c, 3, 49, 0
7, 15960, Note_on_c, 3, 48, 88
7, 16076, Note_off_c, 3, 48, 0
7, 16080, Note_on_c, 3, 49, 88
7, 16196, Note_off_c, 3, 49, 0
7, 16200, Note_on_c, 3, 51, 88
7, 16316, Note_off_c, 3, 51, 0
7, 16320, Note_on_c, 3, 52, 88
7, 16673, Note_off_c, 3, 52, 0
7, 16680, Note_on_c, 3, 54, 88
7, 16796, Note_off_c, 3, 54, 0
7, 16800, Note_on_c, 3, 52, 88
7, 16916, Note_off_c, 3, 52, 0
7, 16920, Note_on_c, 3, 51, 88
7, 17036, Note_off_c, 3, 51, 0
7, 17040, Note_on_c, 3, 49, 88
7, 17156, Note_off_c, 3, 49, 0
7, 17160, Note_on_c, 3, 48, 88
7, 17276, Note_off_c, 3, 48, 0
7, 17280, Note_on_c, 3, 49, 88
7, 17625, Note_off_c, 3, 49, 0
7, 17640, Note_on_c, 3, 49, 88
7, 17756, Note_off_c, 3, 49, 0
7, 17760, Note_on_c, 3, 50, 88
7, 17876, Note_off_c, 3, 50, 0
7, 17880, Note_on_c, 3, 52, 88
7, 17996, Note_off_c, 3, 52, 0
7, 18000, Note_on_c, 3, 54, 88
7, 18353, Note_off_c, 3, 54, 0
7, 18360, Note_on_c, 3, 42, 88
7, 18476, Note_off_c, 3, 42, 0
7, 18480, Note_on_c, 3, 44, 88
7, 18596, Note_off_c, 3, 44, 0
7, 18600, Note_on_c, 3, 46, 88
7, 18716, Note_off_c, 3, 46, 0
7, 18720, Note_on_c, 3, 47, 88
7, 19065, Note_off_c, 3, 47, 0
7, 19080, Note_on_c, 3, 47, 88
7, 19196, Note_off_c, 3, 47, 0
7, 19200, Note_on_c, 3, 49, 88
7, 19316, Note_off_c, 3, 49, 0
7, 19320, Note_on_c, 3, 50, 88
7, 19436, Note_off_c, 3, 50, 0
7, 19440, Note_on_c, 3, 52, 88
7, 19793, Note_off_c, 3, 52, 0
7, 19800, Note_on_c, 3, 40, 88
7, 19916, Note_off_c, 3, 40, 0
7, 19920, Note_on_c, 3, 42, 88
7, 20036, Note_off_c, 3, 42, 0
7, 20040, Note_on_c, 3, 44, 88
7, 20156, Note_off_c, 3, 44, 0
7, 20160, Note_on_c, 3, 45, 88
7, 20276, Note_off_c, 3, 45, 0
7, 20280, Note_on_c, 3, 47, 88
7, 20396, Note_off_c, 3, 47, 0
7, 20400, Note_on_c, 3, 45, 88
7, 20516, Note_off_c, 3, 45, 0
7, 20520, Note_on_c, 3, 44, 88
7, 20625, Note_off_c, 3, 44, 0
7, 20640, Note_on_c, 3, 44, 88
7, 20756, Note_off_c, 3, 44, 0
7, 20760, Note_on_c, 3, 42, 88
7, 20865, Note_off_c, 3, 42, 0
7, 20880, Note_on_c, 3, 42, 88
7, 20996, Note_off_c, 3, 42, 0
7, 21000, Note_on_c, 3, 54, 88
7, 21105, Note_off_c, 3, 54, 0
7, 21120, Note_on_c, 3, 54, 88
7, 21236, Note_off_c, 3, 54, 0
7, 21240, Note_on_c, 3, 52, 88
7, 21345, Note_off_c, 3, 52, 0
7, 21360, Note_on_c, 3, 52, 88
7, 21476, Note_off_c, 3, 52, 0
7, 21480, Note_on_c, 3, 51, 88
7, 21596, Note_off_c, 3, 51, 0
7, 21600, Note_on_c, 3, 51, 88
7, 21716, Note_off_c, 3, 51, 0
7, 21720, Note_on_c, 3, 52, 88
7, 21825, Note_off_c, 3, 52, 0
7, 21840, Note_on_c, 3, 52, 88
7, 21956, Note_off_c, 3, 52, 0
7, 21960, Note_on_c, 3, 50, 88
7, 22065, Note_off_c, 3, 50, 0
7, 22080, Note_on_c, 3, 50, 88
7, 22196, Note_off_c, 3, 50, 0
7, 22200, Note_on_c, 3, 49, 88
7, 22305, Note_off_c, 3, 49, 0
7, 22320, Note_on_c, 3, 49, 88
7, 22910, Note_off_c, 3, 49, 0
7, 22920, Note_on_c, 3, 51, 88
7, 23036, Note_off_c, 3, 51, 0
7, 23040, Note_on_c, 3, 53, 88
7, 23156, Note_off_c, 3, 53, 0
7, 23160, Note_on_c, 3, 54, 88
7, 23276, Note_off_c, 3, 54, 0
7, 23280, Note_on_c, 3, 56, 88
7, 23514, Note_off_c, 3, 56, 0
7, 23520, Note_on_c, 3, 49, 88
7, 23754, Note_off_c, 3, 49, 0
7, 23760, Note_on_c, 3, 54, 88
7, 24230, Note_off_c, 3, 54, 0
7, 24240, Note_on_c, 3, 53, 88
7, 24474, Note_off_c, 3, 53, 0
7, 24480, Note_on_c, 3, 54, 88
7, 24833, Note_off_c, 3, 54, 0
7, 24840, Note_on_c, 3, 53, 88
7, 24956, Note_off_c, 3, 53, 0
7, 24960, Note_on_c, 3, 54, 88
7, 25076, Note_off_c, 3, 54, 0
7, 25080, Note_on_c, 3, 56, 88
7, 25196, Note_off_c, 3, 56, 0
7, 25200, Note_on_c, 3, 57, 88
7, 25553, Note_off_c, 3, 57, 0
7, 25560, Note_on_c, 3, 54, 88
7, 25676, Note_off_c, 3, 54, 0
7, 25680, Note_on_c, 3, 56, 88
7, 25796, Note_off_c, 3, 56, 0
7, 25800, Note_on_c, 3, 58, 88
7, 25916, Note_off_c, 3, 58, 0
7, 25920, Note_on_c, 3, 59, 88
7, 26036, Note_off_c, 3, 59, 0
7, 26040, Note_on_c, 3, 47, 88
7, 26145, Note_off_c, 3, 47, 0
7, 26160, Note_on_c, 3, 47, 88
7, 26276, Note_off_c, 3, 47, 0
7, 26280, Note_on_c, 3, 45, 88
7, 26385, Note_off_c, 3, 45, 0
7, 26400, Note_on_c, 3, 45, 88
7, 26516, Note_off_c, 3, 45, 0
7, 26520, Note_on_c, 3, 44, 88
7, 26625, Note_off_c, 3, 44, 0
7, 26640, Note_on_c, 3, 44, 88
7, 26756, Note_off_c, 3, 44, 0
7, 26760, Note_on_c, 3, 57, 88
7, 26865, Note_off_c, 3, 57, 0
7, 26880, Note_on_c, 3, 57, 88
7, 26996, Note_off_c, 3, 57, 0
7, 27000, Note_on_c, 3, 56, 88
7, 27105, Note_off_c, 3, 56, 0
7, 27120, Note_on_c, 3, 56, 88
7, 27236, Note_off_c, 3, 56, 0
7, 27240, Note_on_c, 3, 54, 88
7, 27356, Note_off_c, 3, 54, 0
7, 27360, Note_on_c, 3, 54, 88
7, 27594, Note_off_c, 3, 54, 0
7, 27600, Note_on_c, 3, 56, 88
7, 27834, Note_off_c, 3, 56, 0
7, 27840, Note_on_c, 3, 44, 88
7, 28074, Note_off_c, 3, 44, 0
7, 28080, Note_on_c, 3, 49, 88
7, 28425, Note_off_c, 3, 49, 0
7, 28440, Note_on_c, 3, 49, 88
7, 28556, Note_off_c, 3, 49, 0
7, 28560, Note_on_c, 3, 50, 88
7, 28676, Note_off_c, 3, 50, 0
7, 28680, Note_on_c, 3, 52, 88
7, 28796, Note_off_c, 3, 52, 0
7, 28800, Note_on_c, 3, 54, 88
7, 28916, Note_off_c, 3, 54, 0
7, 28920, Note_on_c, 3, 55, 88
7, 29036, Note_off_c, 3, 55, 0
7, 29040, Note_on_c, 3, 54, 88
7, 29156, Note_off_c, 3, 54, 0
7, 29160, Note_on_c, 3, 52, 88
7, 29276, Note_off_c, 3, 52, 0
7, 29280, Note_on_c, 3, 50, 88
7, 29396, Note_off_c, 3, 50, 0
7, 29400, Note_on_c, 3, 49, 88
7, 29516, Note_off_c, 3, 49, 0
7, 29520, Note_on_c, 3, 47, 88
7, 29636, Note_off_c, 3, 47, 0
7, 29640, Note_on_c, 3, 50, 88
7, 29756, Note_off_c, 3, 50, 0
7, 29760, Note_on_c, 3, 44, 88
7, 29876, Note_off_c, 3, 44, 0
7, 29880, Note_on_c, 3, 42, 88
7, 29985, Note_off_c, 3, 42, 0
7, 30000, Note_on_c, 3, 42, 88
7, 30116, Note_off_c, 3, 42, 0
7, 30120, Note_on_c, 3, 41, 88
7, 30236, Note_off_c, 3, 41, 0
7, 30240, Note_on_c, 3, 41, 88
7, 30356, Note_off_c, 3, 41, 0
7, 30360, Note_on_c, 3, 53, 88
7, 30476, Note_off_c, 3, 53, 0
7, 30480, Note_on_c, 3, 54, 88
7, 30596, Note_off_c, 3, 54, 0
7, 30600, Note_on_c, 3, 56, 88
7, 30705, Note_off_c, 3, 56, 0
7, 30720, Note_on_c, 3, 56, 88
7, 30836, Note_off_c, 3, 56, 0
7, 30840, Note_on_c, 3, 57, 88
7, 30945, Note_off_c, 3, 57, 0
7, 30960, Note_on_c, 3, 57, 88
7, 31076, Note_off_c, 3, 57, 0
7, 31080, Note_on_c, 3, 62, 88
7, 31185, Note_off_c, 3, 62, 0
7, 31200, Note_on_c, 3, 62, 88
7, 31316, Note_off_c, 3, 62, 0
7, 31320, Note_on_c, 3, 61, 88
7, 31425, Note_off_c, 3, 61, 0
7, 31440, Note_on_c, 3, 61, 88
7, 31556, Note_off_c, 3, 61, 0
7, 31560, Note_on_c, 3, 59, 88
7, 31676, Note_off_c, 3, 59, 0
7, 31680, Note_on_c, 3, 59, 88
7, 31796, Note_off_c, 3, 59, 0
7, 31800, Note_on_c, 3, 57, 88
7, 31916, Note_off_c, 3, 57, 0
7, 31920, Note_on_c, 3, 56, 88
7, 32036, Note_off_c, 3, 56, 0
7, 32040, Note_on_c, 3, 62, 88
7, 32156, Note_off_c, 3, 62, 0
7, 32160, Note_on_c, 3, 61, 88
7, 32276, Note_off_c, 3, 61, 0
7, 32280, Note_on_c, 3, 59, 88
7, 32396, Note_off_c, 3, 59, 0
7, 32400, Note_on_c, 3, 58, 88
7, 32516, Note_off_c, 3, 58, 0
7, 32520, Note_on_c, 3, 59, 88
7, 32625, Note_off_c, 3, 59, 0
7, 32640, Note_on_c, 3, 59, 88
7, 32756, Note_off_c, 3, 59, 0
7, 32760, Note_on_c, 3, 57, 88
7, 32865, Note_off_c, 3, 57, 0
7, 32880, Note_on_c, 3, 57, 88
7, 32996, Note_off_c, 3, 57, 0
7, 33000, Note_on_c, 3, 56, 88
7, 33116, Note_off_c, 3, 56, 0
7, 33120, Note_on_c, 3, 56, 88
7, 33236, Note_off_c, 3, 56, 0
7, 33240, Note_on_c, 3, 54, 88
7, 33356, Note_off_c, 3, 54, 0
7, 33360, Note_on_c, 3, 52, 88
7, 33476, Note_off_c, 3, 52, 0
7, 33480, Note_on_c, 3, 59, 88
7, 33596, Note_off_c, 3, 59, 0
7, 33600, Note_on_c, 3, 57, 88
7, 33716, Note_off_c, 3, 57, 0
7, 33720, Note_on_c, 3, 56, 88
7, 33836, Note_off_c, 3, 56, 0
7, 33840, Note_on_c, 3, 54, 88
7, 33956, Note_off_c, 3, 54, 0
7, 33960, Note_on_c, 3, 56, 88
7, 34065, Note_off_c, 3, 56, 0
7, 34080, Note_on_c, 3, 56, 88
7, 34196, Note_off_c, 3, 56, 0
7, 34200, Note_on_c, 3, 54, 88
7, 34305, Note_off_c, 3, 54, 0
7, 34320, Note_on_c, 3, 54, 88
7, 34436, Note_off_c, 3, 54, 0
7, 34440, Note_on_c, 3, 53, 88
7, 34556, Note_off_c, 3, 53, 0
7, 34560, Note_on_c, 3, 53, 88
7, 34794, Note_off_c, 3, 53, 0
7, 34800, Note_on_c, 3, 54, 88
7, 35034, Note_off_c, 3, 54, 0
7, 35040, Note_on_c, 3, 42, 88
7, 35274, Note_off_c, 3, 42, 0
7, 35280, Note_on_c, 3, 49, 88
7, 35396, Note_off_c, 3, 49, 0
7, 35400, Note_on_c, 3, 51, 88
7, 35516, Note_off_c, 3, 51, 0
7, 35520, Note_on_c, 3, 52, 88
7, 35636, Note_off_c, 3, 52, 0
7, 35640, Note_on_c, 3, 54, 88
7, 35756, Note_off_c, 3, 54, 0
7, 35760, Note_on_c, 3, 55, 88
7, 35876, Note_off_c, 3, 55, 0
7, 35880, Note_on_c, 3, 52, 88
7, 35996, Note_off_c, 3, 52, 0
7, 36000, Note_on_c, 3, 54, 88
7, 36116, Note_off_c, 3, 54, 0
7, 36120, Note_on_c, 3, 42, 88
7, 36236, Note_off_c, 3, 42, 0
7, 36240, Note_on_c, 3, 47, 88
7, 36356, Note_off_c, 3, 47, 0
7, 36360, Note_on_c, 3, 49, 88
7, 36476, Note_off_c, 3, 49, 0
7, 36480, Note_on_c, 3, 50, 88
7, 36596, Note_off_c, 3, 50, 0
7, 36600, Note_on_c, 3, 47, 88
7, 36716, Note_off_c, 3, 47, 0
7, 36720, Note_on_c, 3, 49, 88
7, 36836, Note_off_c, 3, 49, 0
7, 36840, Note_on_c, 3, 37, 88
7, 36956, Note_off_c, 3, 37, 0
7, 36960, Note_on_c, 3, 49, 88
7, 37076, Note_off_c, 3, 49, 0
7, 37080, Note_on_c, 3, 48, 88
7, 37196, Note_off_c, 3, 48, 0
7, 37200, Note_on_c, 3, 49, 88
7, 37316, Note_off_c, 3, 49, 0
7, 37320, Note_on_c, 3, 52, 88
7, 37436, Note_off_c, 3, 52, 0
7, 37440, Note_on_c, 3, 51, 88
7, 37556, Note_off_c, 3, 51, 0
7, 37560, Note_on_c, 3, 49, 88
7, 37676, Note_off_c, 3, 49, 0
7, 37680, Note_on_c, 3, 48, 88
7, 37796, Note_off_c, 3, 48, 0
7, 37800, Note_on_c, 3, 44, 88
7, 37916, Note_off_c, 3, 44, 0
7, 37920, Note_on_c, 3, 49, 88
7, 38036, Note_off_c, 3, 49, 0
7, 38040, Note_on_c, 3, 52, 88
7, 38156, Note_off_c, 3, 52, 0
7, 38160, Note_on_c, 3, 57, 88
7, 38276, Note_off_c, 3, 57, 0
7, 38280, Note_on_c, 3, 54, 88
7, 38396, Note_off_c, 3, 54, 0
7, 38400, Note_on_c, 3, 56, 88
7, 38516, Note_off_c, 3, 56, 0
7, 38520, Note_on_c, 3, 54, 88
7, 38636, Note_off_c, 3, 54, 0
7, 38640, Note_on_c, 3, 56, 88
7, 38756, Note_off_c, 3, 56, 0
7, 38760, Note_on_c, 3, 44, 88
7, 38876, Note_off_c, 3, 44, 0
7, 38880, Note_on_c, 3, 49, 88
7, 39114, Note_off_c, 3, 49, 0
7, 44880, Note_on_c, 3, 54, 88
7, 45114, Note_off_c, 3, 54, 0
7, 45120, Note_on_c, 3, 52, 88
7, 45354, Note_off_c, 3, 52, 0
7, 45360, Note_on_c, 3, 51, 88
7, 46314, Note_off_c, 3, 51, 0
7, 46320, Note_on_c, 3, 52, 88
7, 46436, Note_off_c, 3, 52, 0
7, 46440, Note_on_c, 3, 50, 88
7, 46556, Note_off_c, 3, 50, 0
7, 46560, Note_on_c, 3, 49, 88
7, 47030, Note_off_c, 3, 49, 0
7, 47040, Note_on_c, 3, 50, 88
7, 47156, Note_off_c, 3, 50, 0
7, 47160, Note_on_c, 3, 52, 88
7, 47276, Note_off_c, 3, 52, 0
7, 47280, Note_on_c, 3, 50, 88
7, 47396, Note_off_c, 3, 50, 0
7, 47400, Note_on_c, 3, 49, 88
7, 47516, Note_off_c, 3, 49, 0
7, 47520, Note_on_c, 3, 47, 88
7, 47873, Note_off_c, 3, 47, 0
7, 47880, Note_on_c, 3, 49, 88
7, 47996, Note_off_c, 3, 49, 0
7, 48000, Note_on_c, 3, 50, 88
7, 48116, Note_off_c, 3, 50, 0
7, 48120, Note_on_c, 3, 47, 88
7, 48236, Note_off_c, 3, 47, 0
7, 48240, Note_on_c, 3, 49, 88
7, 48356, Note_off_c, 3, 49, 0
7, 48360, Note_on_c, 3, 51, 88
7, 48476, Note_off_c, 3, 51, 0
7, 48480, Note_on_c, 3, 53, 88
7, 48950, Note_off_c, 3, 53, 0
7, 48960, Note_on_c, 3, 54, 88
7, 49787, Note_off_c, 3, 54, 0
7, 49800, Note_on_c, 3, 57, 88
7, 49916, Note_off_c, 3, 57, 0
7, 49920, Note_on_c, 3, 56, 88
7, 50036, Note_off_c, 3, 56, 0
7, 50040, Note_on_c, 3, 54, 88
7, 50145, Note_off_c, 3, 54, 0
7, 50160, Note_on_c, 3, 54, 88
7, 50276, Note_off_c, 3, 54, 0
7, 50280, Note_on_c, 3, 52, 88
7, 50396, Note_off_c, 3, 52, 0
7, 50400, Note_on_c, 3, 52, 88
7, 51227, Note_off_c, 3, 52, 0
7, 51240, Note_on_c, 3, 56, 88
7, 51356, Note_off_c, 3, 56, 0
7, 51360, Note_on_c, 3, 54, 88
7, 51476, Note_off_c, 3, 54, 0
7, 51480, Note_on_c, 3, 52, 88
7, 51585, Note_off_c, 3, 52, 0
7, 51600, Note_on_c, 3, 52, 88
7, 51716, Note_off_c, 3, 52, 0
7, 51720, Note_on_c, 3, 50, 88
7, 51836, Note_off_c, 3, 50, 0
7, 51840, Note_on_c, 3, 50, 88
7, 52548, Note_off_c, 3, 50, 0
7, 52560, Note_on_c, 3, 49, 88
7, 54836, Note_off_c, 3, 49, 0
7, 54840, Note_on_c, 3, 47, 88
7, 54956, Note_off_c, 3, 47, 0
7, 54960, Note_on_c, 3, 45, 88
7, 55076, Note_off_c, 3, 45, 0
7, 55080, Note_on_c, 3, 44, 88
7, 55196, Note_off_c, 3, 44, 0
7, 55200, Note_on_c, 3, 42, 88
7, 55316, Note_off_c, 3, 42, 0
7, 55320, Note_on_c, 3, 45, 88
7, 55436, Note_off_c, 3, 45, 0
7, 55440, Note_on_c, 3, 50, 88
7, 55556, Note_off_c, 3, 50, 0
7, 55560, Note_on_c, 3, 47, 88
7, 55676, Note_off_c, 3, 47, 0
7, 55680, Note_on_c, 3, 49, 88
7, 55914, Note_off_c, 3, 49, 0
7, 55920, Note_on_c, 3, 37, 88
7, 56154, Note_off_c, 3, 37, 0
7, 56160, Note_on_c, 3, 42, 88
7, 57577, Note_off_c, 3, 42, 0
7, 57577, End_track
0, 0, End_of_file
