0, 0, Header, 1, 8, 240
1, 0, Start_track
1, 0, Time_signature, 6, 3, 24, 8
1, 0, Tempo, 857142
1, 0, SMPTE_offset, 64, 0, 0, 0, 93
1, 0, End_track
2, 0, Start_track
2, 0, Title_t, "(C) & (P) 1993"
2, 127, End_track
3, 0, Start_track
3, 0, Title_t, "CCARH,Stanford"
3, 0, End_track
4, 0, Start_track
4, 0, Title_t, "Track 1"
4, 0, Program_c, 0, 6
4, 0, Note_on_c, 0, 67, 88
4, 116, Note_off_c, 0, 67, 0
4, 120, Note_on_c, 0, 69, 88
4, 178, Note_off_c, 0, 69, 0
4, 180, Note_on_c, 0, 67, 88
4, 238, Note_off_c, 0, 67, 0
4, 240, Note_on_c, 0, 66, 88
4, 298, Note_off_c, 0, 66, 0
4, 300, Note_on_c, 0, 67, 88
4, 358, Note_off_c, 0, 67, 0
4, 360, Note_on_c, 0, 69, 88
4, 476, Note_off_c, 0, 69, 0
4, 480, Note_on_c, 0, 71, 88
4, 538, Note_off_c, 0, 71, 0
4, 540, Note_on_c, 0, 69, 88
4, 598, Note_off_c, 0, 69, 0
4, 600, Note_on_c, 0, 67, 88
4, 658, Note_off_c, 0, 67, 0
4, 660, Note_on_c, 0, 69, 88
4, 718, Note_off_c, 0, 69, 0
4, 720, Note_on_c, 0, 71, 88
4, 836, Note_off_c, 0, 71, 0
4, 840, Note_on_c, 0, 69, 88
4, 956, Note_off_c, 0, 69, 0
4, 960, Note_on_c, 0, 67, 88
4, 1076, Note_off_c, 0, 67, 0
4, 1080, Note_on_c, 0, 62, 88
4, 1196, Note_off_c, 0, 62, 0
4, 1200, Note_on_c, 0, 72, 88
4, 1434, Note_off_c, 0, 72, 0
4, 1440, Note_on_c, 0, 71, 88
4, 1556, Note_off_c, 0, 71, 0
4, 1560, Note_on_c, 0, 69, 88
4, 1676, Note_off_c, 0, 69, 0
4, 1680, Note_on_c, 0, 67, 88
4, 1796, Note_off_c, 0, 67, 0
4, 1800, Note_on_c, 0, 66, 88
4, 1916, Note_off_c, 0, 66, 0
4, 1920, Note_on_c, 0, 76, 88
4, 2154, Note_off_c, 0, 76, 0
4, 2160, Note_on_c, 0, 74, 88
4, 2276, Note_off_c, 0, 74, 0
4, 2280, Note_on_c, 0, 76, 88
4, 2338, Note_off_c, 0, 76, 0
4, 2340, Note_on_c, 0, 74, 88
4, 2398, Note_off_c, 0, 74, 0
4, 2400, Note_on_c, 0, 72, 88
4, 2458, Note_off_c, 0, 72, 0
4, 2460, Note_on_c, 0, 71, 88
4, 2518, Note_off_c, 0, 71, 0
4, 2520, Note_on_c, 0, 69, 88
4, 2636, Note_off_c, 0, 69, 0
4, 2640, Note_on_c, 0, 72, 88
4, 2698, Note_off_c, 0, 72, 0
4, 2700, Note_on_c, 0, 71, 88
4, 2758, Note_off_c, 0, 71, 0
4, 2760, Note_on_c, 0, 69, 88
4, 2818, Note_off_c, 0, 69, 0
4, 2820, Note_on_c, 0, 67, 88
4, 2878, Note_off_c, 0, 67, 0
4, 2880, Note_on_c, 0, 66, 88
4, 2996, Note_off_c, 0, 66, 0
4, 3000, Note_on_c, 0, 67, 88
4, 3116, Note_off_c, 0, 67, 0
4, 3120, Note_on_c, 0, 69, 88
4, 3236, Note_off_c, 0, 69, 0
4, 3240, Note_on_c, 0, 67, 88
4, 3356, Note_off_c, 0, 67, 0
4, 3360, Note_on_c, 0, 69, 88
4, 3476, Note_off_c, 0, 69, 0
4, 3480, Note_on_c, 0, 71, 88
4, 3596, Note_off_c, 0, 71, 0
4, 3600, Note_on_c, 0, 69, 88
4, 3716, Note_off_c, 0, 69, 0
4, 3720, Note_on_c, 0, 71, 88
4, 3778, Note_off_c, 0, 71, 0
4, 3780, Note_on_c, 0, 73, 88
4, 3838, Note_off_c, 0, 73, 0
4, 3840, Note_on_c, 0, 74, 88
4, 3898, Note_off_c, 0, 74, 0
4, 3900, Note_on_c, 0, 71, 88
4, 3958, Note_off_c, 0, 71, 0
4, 3960, Note_on_c, 0, 73, 88
4, 4018, Note_off_c, 0, 73, 0
4, 4020, Note_on_c, 0, 71, 88
4, 4078, Note_off_c, 0, 71, 0
4, 4080, Note_on_c, 0, 73, 88
4, 4138, Note_off_c, 0, 73, 0
4, 4140, Note_on_c, 0, 74, 88
4, 4198, Note_off_c, 0, 74, 0
4, 4200, Note_on_c, 0, 76, 88
4, 4258, Note_off_c, 0, 76, 0
4, 4260, Note_on_c, 0, 73, 88
4, 4318, Note_off_c, 0, 73, 0
4, 4320, Note_on_c, 0, 74, 88
4, 4378, Note_off_c, 0, 74, 0
4, 4380, Note_on_c, 0, 73, 88
4, 4438, Note_off_c, 0, 73, 0
4, 4440, Note_on_c, 0, 74, 88
4, 4498, Note_off_c, 0, 74, 0
4, 4500, Note_on_c, 0, 76, 88
4, 4558, Note_off_c, 0, 76, 0
4, 4560, Note_on_c, 0, 78, 88
4, 4618, Note_off_c, 0, 78, 0
4, 4620, Note_on_c, 0, 74, 88
4, 4678, Note_off_c, 0, 74, 0
4, 4680, Note_on_c, 0, 76, 88
4, 4738, Note_off_c, 0, 76, 0
4, 4740, Note_on_c, 0, 74, 88
4, 4798, Note_off_c, 0, 74, 0
4, 4800, Note_on_c, 0, 76, 88
4, 4858, Note_off_c, 0, 76, 0
4, 4860, Note_on_c, 0, 78, 88
4, 4918, Note_off_c, 0, 78, 0
4, 4920, Note_on_c, 0, 79, 88
4, 4978, Note_off_c, 0, 79, 0
4, 4980, Note_on_c, 0, 76, 88
4, 5038, Note_off_c, 0, 76, 0
4, 5040, Note_on_c, 0, 78, 88
4, 5156, Note_off_c, 0, 78, 0
4, 5160, Note_on_c, 0, 79, 88
4, 5218, Note_off_c, 0, 79, 0
4, 5220, Note_on_c, 0, 78, 88
4, 5278, Note_off_c, 0, 78, 0
4, 5280, Note_on_c, 0, 76, 88
4, 5338, Note_off_c, 0, 76, 0
4, 5340, Note_on_c, 0, 74, 88
4, 5398, Note_off_c, 0, 74, 0
4, 5400, Note_on_c, 0, 79, 88
4, 5818, Note_off_c, 0, 79, 0
4, 5820, Note_on_c, 0, 78, 88
4, 5878, Note_off_c, 0, 78, 0
4, 5880, Note_on_c, 0, 76, 88
4, 5938, Note_off_c, 0, 76, 0
4, 5940, Note_on_c, 0, 79, 88
4, 5998, Note_off_c, 0, 79, 0
4, 6000, Note_on_c, 0, 74, 88
4, 6058, Note_off_c, 0, 74, 0
4, 6060, Note_on_c, 0, 79, 88
4, 6118, Note_off_c, 0, 79, 0
4, 6120, Note_on_c, 0, 73, 88
4, 6178, Note_off_c, 0, 73, 0
4, 6180, Note_on_c, 0, 79, 88
4, 6238, Note_off_c, 0, 79, 0
4, 6240, Note_on_c, 0, 71, 88
4, 6298, Note_off_c, 0, 71, 0
4, 6300, Note_on_c, 0, 79, 88
4, 6358, Note_off_c, 0, 79, 0
4, 6360, Note_on_c, 0, 69, 88
4, 6418, Note_off_c, 0, 69, 0
4, 6420, Note_on_c, 0, 79, 88
4, 6478, Note_off_c, 0, 79, 0
4, 6480, Note_on_c, 0, 78, 88
4, 6596, Note_off_c, 0, 78, 0
4, 6600, Note_on_c, 0, 74, 88
4, 6716, Note_off_c, 0, 74, 0
4, 6720, Note_on_c, 0, 76, 88
4, 6836, Note_off_c, 0, 76, 0
4, 6840, Note_on_c, 0, 78, 88
4, 6956, Note_off_c, 0, 78, 0
4, 6960, Note_on_c, 0, 79, 88
4, 7076, Note_off_c, 0, 79, 0
4, 7080, Note_on_c, 0, 81, 88
4, 7316, Note_off_c, 0, 81, 0
4, 7320, Note_on_c, 0, 74, 88
4, 7436, Note_off_c, 0, 74, 0
4, 7440, Note_on_c, 0, 79, 88
4, 7674, Note_off_c, 0, 79, 0
4, 7680, Note_on_c, 0, 78, 88
4, 7796, Note_off_c, 0, 78, 0
4, 7800, Note_on_c, 0, 76, 88
4, 7916, Note_off_c, 0, 76, 0
4, 7920, Note_on_c, 0, 74, 88
4, 8036, Note_off_c, 0, 74, 0
4, 8040, Note_on_c, 0, 72, 88
4, 8156, Note_off_c, 0, 72, 0
4, 8160, Note_on_c, 0, 71, 88
4, 8276, Note_off_c, 0, 71, 0
4, 8280, Note_on_c, 0, 69, 88
4, 8514, Note_off_c, 0, 69, 0
4, 8880, Note_on_c, 0, 74, 88
4, 9114, Note_off_c, 0, 74, 0
4, 9120, Note_on_c, 0, 72, 88
4, 9236, Note_off_c, 0, 72, 0
4, 9240, Note_on_c, 0, 81, 88
4, 9476, Note_off_c, 0, 81, 0
4, 9480, Note_on_c, 0, 79, 88
4, 9833, Note_off_c, 0, 79, 0
4, 9840, Note_on_c, 0, 81, 88
4, 9898, Note_off_c, 0, 81, 0
4, 9900, Note_on_c, 0, 79, 88
4, 9958, Note_off_c, 0, 79, 0
4, 9960, Note_on_c, 0, 78, 88
4, 10018, Note_off_c, 0, 78, 0
4, 10020, Note_on_c, 0, 76, 88
4, 10078, Note_off_c, 0, 76, 0
4, 10080, Note_on_c, 0, 74, 88
4, 10905, Note_off_c, 0, 74, 0
4, 10920, Note_on_c, 0, 74, 88
4, 11036, Note_off_c, 0, 74, 0
4, 11040, Note_on_c, 0, 72, 88
4, 11156, Note_off_c, 0, 72, 0
4, 11160, Note_on_c, 0, 71, 88
4, 11276, Note_off_c, 0, 71, 0
4, 11280, Note_on_c, 0, 69, 88
4, 11396, Note_off_c, 0, 69, 0
4, 11400, Note_on_c, 0, 67, 88
4, 11516, Note_off_c, 0, 67, 0
4, 11520, Note_on_c, 0, 72, 88
4, 11578, Note_off_c, 0, 72, 0
4, 11580, Note_on_c, 0, 74, 88
4, 11638, Note_off_c, 0, 74, 0
4, 11640, Note_on_c, 0, 76, 88
4, 11934, Note_off_c, 0, 76, 0
4, 11940, Note_on_c, 0, 74, 88
4, 11998, Note_off_c, 0, 74, 0
4, 12000, Note_on_c, 0, 72, 88
4, 12058, Note_off_c, 0, 72, 0
4, 12060, Note_on_c, 0, 71, 88
4, 12118, Note_off_c, 0, 71, 0
4, 12120, Note_on_c, 0, 69, 88
4, 12178, Note_off_c, 0, 69, 0
4, 12180, Note_on_c, 0, 72, 88
4, 12238, Note_off_c, 0, 72, 0
4, 12240, Note_on_c, 0, 71, 88
4, 12298, Note_off_c, 0, 71, 0
4, 12300, Note_on_c, 0, 72, 88
4, 12358, Note_off_c, 0, 72, 0
4, 12360, Note_on_c, 0, 74, 88
4, 12654, Note_off_c, 0, 74, 0
4, 12660, Note_on_c, 0, 72, 88
4, 12718, Note_off_c, 0, 72, 0
4, 12720, Note_on_c, 0, 71, 88
4, 12778, Note_off_c, 0, 71, 0
4, 12780, Note_on_c, 0, 69, 88
4, 12838, Note_off_c, 0, 69, 0
4, 12840, Note_on_c, 0, 67, 88
4, 12898, Note_off_c, 0, 67, 0
4, 12900, Note_on_c, 0, 71, 88
4, 12958, Note_off_c, 0, 71, 0
4, 12960, Note_on_c, 0, 69, 88
4, 13018, Note_off_c, 0, 69, 0
4, 13020, Note_on_c, 0, 71, 88
4, 13078, Note_off_c, 0, 71, 0
4, 13080, Note_on_c, 0, 72, 88
4, 13374, Note_off_c, 0, 72, 0
4, 13380, Note_on_c, 0, 71, 88
4, 13438, Note_off_c, 0, 71, 0
4, 13440, Note_on_c, 0, 69, 88
4, 13498, Note_off_c, 0, 69, 0
4, 13500, Note_on_c, 0, 67, 88
4, 13558, Note_off_c, 0, 67, 0
4, 13560, Note_on_c, 0, 66, 88
4, 13618, Note_off_c, 0, 66, 0
4, 13620, Note_on_c, 0, 69, 88
4, 13678, Note_off_c, 0, 69, 0
4, 13680, Note_on_c, 0, 67, 88
4, 13738, Note_off_c, 0, 67, 0
4, 13740, Note_on_c, 0, 69, 88
4, 13798, Note_off_c, 0, 69, 0
4, 13800, Note_on_c, 0, 71, 88
4, 14153, Note_off_c, 0, 71, 0
4, 14160, Note_on_c, 0, 64, 88
4, 14276, Note_off_c, 0, 64, 0
4, 14280, Note_on_c, 0, 69, 88
4, 14458, Note_off_c, 0, 69, 0
4, 14460, Note_on_c, 0, 67, 88
4, 14518, Note_off_c, 0, 67, 0
4, 14520, Note_on_c, 0, 69, 88
4, 14636, Note_off_c, 0, 69, 0
4, 14640, Note_on_c, 0, 71, 88
4, 14756, Note_off_c, 0, 71, 0
4, 14760, Note_on_c, 0, 72, 88
4, 14818, Note_off_c, 0, 72, 0
4, 14820, Note_on_c, 0, 74, 88
4, 14878, Note_off_c, 0, 74, 0
4, 14880, Note_on_c, 0, 72, 88
4, 14938, Note_off_c, 0, 72, 0
4, 14940, Note_on_c, 0, 71, 88
4, 14998, Note_off_c, 0, 71, 0
4, 15000, Note_on_c, 0, 69, 88
4, 15058, Note_off_c, 0, 69, 0
4, 15060, Note_on_c, 0, 67, 88
4, 15118, Note_off_c, 0, 67, 0
4, 15120, Note_on_c, 0, 67, 88
4, 15142, Note_off_c, 0, 67, 0
4, 15143, Note_on_c, 0, 66, 88
4, 15164, Note_off_c, 0, 66, 0
4, 15165, Note_on_c, 0, 67, 88
4, 15187, Note_off_c, 0, 67, 0
4, 15188, Note_on_c, 0, 66, 88
4, 15209, Note_off_c, 0, 66, 0
4, 15210, Note_on_c, 0, 67, 88
4, 15232, Note_off_c, 0, 67, 0
4, 15233, Note_on_c, 0, 66, 88
4, 15254, Note_off_c, 0, 66, 0
4, 15255, Note_on_c, 0, 67, 88
4, 15277, Note_off_c, 0, 67, 0
4, 15278, Note_on_c, 0, 66, 88
4, 15299, Note_off_c, 0, 66, 0
4, 15300, Note_on_c, 0, 64, 88
4, 15329, Note_off_c, 0, 64, 0
4, 15330, Note_on_c, 0, 66, 88
4, 15359, Note_off_c, 0, 66, 0
4, 15360, Note_on_c, 0, 67, 88
4, 15535, Note_off_c, 0, 67, 0
4, 15540, Note_on_c, 0, 71, 88
4, 15598, Note_off_c, 0, 71, 0
4, 15600, Note_on_c, 0, 69, 88
4, 15658, Note_off_c, 0, 69, 0
4, 15660, Note_on_c, 0, 67, 88
4, 15718, Note_off_c, 0, 67, 0
4, 15720, Note_on_c, 0, 66, 88
4, 15778, Note_off_c, 0, 66, 0
4, 15780, Note_on_c, 0, 64, 88
4, 15838, Note_off_c, 0, 64, 0
4, 15840, Note_on_c, 0, 62, 88
4, 15956, Note_off_c, 0, 62, 0
4, 16560, Note_on_c, 0, 69, 88
4, 16676, Note_off_c, 0, 69, 0
4, 16680, Note_on_c, 0, 67, 88
4, 16738, Note_off_c, 0, 67, 0
4, 16740, Note_on_c, 0, 69, 88
4, 16798, Note_off_c, 0, 69, 0
4, 16800, Note_on_c, 0, 71, 88
4, 16858, Note_off_c, 0, 71, 0
4, 16860, Note_on_c, 0, 69, 88
4, 16918, Note_off_c, 0, 69, 0
4, 16920, Note_on_c, 0, 67, 88
4, 17036, Note_off_c, 0, 67, 0
4, 17040, Note_on_c, 0, 66, 88
4, 17098, Note_off_c, 0, 66, 0
4, 17100, Note_on_c, 0, 67, 88
4, 17158, Note_off_c, 0, 67, 0
4, 17160, Note_on_c, 0, 69, 88
4, 17218, Note_off_c, 0, 69, 0
4, 17220, Note_on_c, 0, 67, 88
4, 17278, Note_off_c, 0, 67, 0
4, 17280, Note_on_c, 0, 66, 88
4, 17396, Note_off_c, 0, 66, 0
4, 17400, Note_on_c, 0, 67, 88
4, 17516, Note_off_c, 0, 67, 0
4, 17520, Note_on_c, 0, 69, 88
4, 17636, Note_off_c, 0, 69, 0
4, 17640, Note_on_c, 0, 74, 88
4, 17756, Note_off_c, 0, 74, 0
4, 17760, Note_on_c, 0, 66, 88
4, 17782, Note_off_c, 0, 66, 0
4, 17783, Note_on_c, 0, 64, 88
4, 17808, Note_off_c, 0, 64, 0
4, 17809, Note_on_c, 0, 66, 88
4, 17834, Note_off_c, 0, 66, 0
4, 17835, Note_on_c, 0, 64, 88
4, 17860, Note_off_c, 0, 64, 0
4, 17861, Note_on_c, 0, 66, 88
4, 17887, Note_off_c, 0, 66, 0
4, 17888, Note_on_c, 0, 64, 88
4, 17909, Note_off_c, 0, 64, 0
4, 17910, Note_on_c, 0, 66, 88
4, 17932, Note_off_c, 0, 66, 0
4, 17933, Note_on_c, 0, 64, 88
4, 17954, Note_off_c, 0, 64, 0
4, 17955, Note_on_c, 0, 62, 88
4, 17977, Note_off_c, 0, 62, 0
4, 17978, Note_on_c, 0, 64, 88
4, 17999, Note_off_c, 0, 64, 0
4, 18000, Note_on_c, 0, 66, 88
4, 18116, Note_off_c, 0, 66, 0
4, 18120, Note_on_c, 0, 67, 88
4, 18236, Note_off_c, 0, 67, 0
4, 18240, Note_on_c, 0, 69, 88
4, 18356, Note_off_c, 0, 69, 0
4, 18360, Note_on_c, 0, 71, 88
4, 18476, Note_off_c, 0, 71, 0
4, 18480, Note_on_c, 0, 62, 88
4, 18502, Note_off_c, 0, 62, 0
4, 18503, Note_on_c, 0, 61, 88
4, 18528, Note_off_c, 0, 61, 0
4, 18529, Note_on_c, 0, 62, 88
4, 18554, Note_off_c, 0, 62, 0
4, 18555, Note_on_c, 0, 61, 88
4, 18580, Note_off_c, 0, 61, 0
4, 18581, Note_on_c, 0, 62, 88
4, 18607, Note_off_c, 0, 62, 0
4, 18608, Note_on_c, 0, 61, 88
4, 18629, Note_off_c, 0, 61, 0
4, 18630, Note_on_c, 0, 62, 88
4, 18652, Note_off_c, 0, 62, 0
4, 18653, Note_on_c, 0, 61, 88
4, 18674, Note_off_c, 0, 61, 0
4, 18675, Note_on_c, 0, 59, 88
4, 18697, Note_off_c, 0, 59, 0
4, 18698, Note_on_c, 0, 61, 88
4, 18719, Note_off_c, 0, 61, 0
4, 18720, Note_on_c, 0, 62, 88
4, 18825, Note_off_c, 0, 62, 0
4, 18840, Note_on_c, 0, 62, 88
4, 18898, Note_off_c, 0, 62, 0
4, 18900, Note_on_c, 0, 64, 88
4, 18958, Note_off_c, 0, 64, 0
4, 18960, Note_on_c, 0, 66, 88
4, 19018, Note_off_c, 0, 66, 0
4, 19020, Note_on_c, 0, 67, 88
4, 19078, Note_off_c, 0, 67, 0
4, 19080, Note_on_c, 0, 69, 88
4, 19196, Note_off_c, 0, 69, 0
4, 19200, Note_on_c, 0, 66, 88
4, 19258, Note_off_c, 0, 66, 0
4, 19260, Note_on_c, 0, 67, 88
4, 19318, Note_off_c, 0, 67, 0
4, 19320, Note_on_c, 0, 69, 88
4, 19378, Note_off_c, 0, 69, 0
4, 19380, Note_on_c, 0, 71, 88
4, 19438, Note_off_c, 0, 71, 0
4, 19440, Note_on_c, 0, 72, 88
4, 19674, Note_off_c, 0, 72, 0
4, 19680, Note_on_c, 0, 71, 88
4, 19796, Note_off_c, 0, 71, 0
4, 19800, Note_on_c, 0, 69, 88
4, 20153, Note_off_c, 0, 69, 0
4, 20160, Note_on_c, 0, 67, 88
4, 20218, Note_off_c, 0, 67, 0
4, 20220, Note_on_c, 0, 79, 88
4, 20278, Note_off_c, 0, 79, 0
4, 20280, Note_on_c, 0, 78, 88
4, 20338, Note_off_c, 0, 78, 0
4, 20340, Note_on_c, 0, 76, 88
4, 20398, Note_off_c, 0, 76, 0
4, 20400, Note_on_c, 0, 74, 88
4, 20458, Note_off_c, 0, 74, 0
4, 20460, Note_on_c, 0, 78, 88
4, 20518, Note_off_c, 0, 78, 0
4, 20520, Note_on_c, 0, 76, 88
4, 20578, Note_off_c, 0, 76, 0
4, 20580, Note_on_c, 0, 78, 88
4, 20638, Note_off_c, 0, 78, 0
4, 20640, Note_on_c, 0, 76, 88
4, 20698, Note_off_c, 0, 76, 0
4, 20700, Note_on_c, 0, 74, 88
4, 20758, Note_off_c, 0, 74, 0
4, 20760, Note_on_c, 0, 72, 88
4, 20818, Note_off_c, 0, 72, 0
4, 20820, Note_on_c, 0, 76, 88
4, 20878, Note_off_c, 0, 76, 0
4, 20880, Note_on_c, 0, 74, 88
4, 20938, Note_off_c, 0, 74, 0
4, 20940, Note_on_c, 0, 76, 88
4, 20998, Note_off_c, 0, 76, 0
4, 21000, Note_on_c, 0, 74, 88
4, 21058, Note_off_c, 0, 74, 0
4, 21060, Note_on_c, 0, 72, 88
4, 21118, Note_off_c, 0, 72, 0
4, 21120, Note_on_c, 0, 71, 88
4, 21178, Note_off_c, 0, 71, 0
4, 21180, Note_on_c, 0, 74, 88
4, 21238, Note_off_c, 0, 74, 0
4, 21240, Note_on_c, 0, 72, 88
4, 21298, Note_off_c, 0, 72, 0
4, 21300, Note_on_c, 0, 74, 88
4, 21358, Note_off_c, 0, 74, 0
4, 21360, Note_on_c, 0, 72, 88
4, 21418, Note_off_c, 0, 72, 0
4, 21420, Note_on_c, 0, 71, 88
4, 21478, Note_off_c, 0, 71, 0
4, 21480, Note_on_c, 0, 69, 88
4, 21538, Note_off_c, 0, 69, 0
4, 21540, Note_on_c, 0, 72, 88
4, 21598, Note_off_c, 0, 72, 0
4, 21600, Note_on_c, 0, 71, 88
4, 21658, Note_off_c, 0, 71, 0
4, 21660, Note_on_c, 0, 69, 88
4, 21718, Note_off_c, 0, 69, 0
4, 21720, Note_on_c, 0, 67, 88
4, 21778, Note_off_c, 0, 67, 0
4, 21780, Note_on_c, 0, 71, 88
4, 21838, Note_off_c, 0, 71, 0
4, 21840, Note_on_c, 0, 66, 88
4, 21898, Note_off_c, 0, 66, 0
4, 21900, Note_on_c, 0, 71, 88
4, 21958, Note_off_c, 0, 71, 0
4, 21960, Note_on_c, 0, 64, 88
4, 22018, Note_off_c, 0, 64, 0
4, 22020, Note_on_c, 0, 71, 88
4, 22078, Note_off_c, 0, 71, 0
4, 22080, Note_on_c, 0, 62, 88
4, 22138, Note_off_c, 0, 62, 0
4, 22140, Note_on_c, 0, 71, 88
4, 22198, Note_off_c, 0, 71, 0
4, 22200, Note_on_c, 0, 61, 88
4, 22258, Note_off_c, 0, 61, 0
4, 22260, Note_on_c, 0, 71, 88
4, 22318, Note_off_c, 0, 71, 0
4, 22320, Note_on_c, 0, 69, 88
4, 22378, Note_off_c, 0, 69, 0
4, 22380, Note_on_c, 0, 67, 88
4, 22438, Note_off_c, 0, 67, 0
4, 22440, Note_on_c, 0, 66, 88
4, 22498, Note_off_c, 0, 66, 0
4, 22500, Note_on_c, 0, 69, 88
4, 22558, Note_off_c, 0, 69, 0
4, 22560, Note_on_c, 0, 64, 88
4, 22618, Note_off_c, 0, 64, 0
4, 22620, Note_on_c, 0, 69, 88
4, 22678, Note_off_c, 0, 69, 0
4, 22680, Note_on_c, 0, 62, 88
4, 22738, Note_off_c, 0, 62, 0
4, 22740, Note_on_c, 0, 69, 88
4, 22798, Note_off_c, 0, 69, 0
4, 22800, Note_on_c, 0, 61, 88
4, 22858, Note_off_c, 0, 61, 0
4, 22860, Note_on_c, 0, 69, 88
4, 22918, Note_off_c, 0, 69, 0
4, 22920, Note_on_c, 0, 59, 88
4, 22978, Note_off_c, 0, 59, 0
4, 22980, Note_on_c, 0, 69, 88
4, 23038, Note_off_c, 0, 69, 0
4, 23040, Note_on_c, 0, 67, 88
4, 23098, Note_off_c, 0, 67, 0
4, 23100, Note_on_c, 0, 66, 88
4, 23158, Note_off_c, 0, 66, 0
4, 23160, Note_on_c, 0, 64, 88
4, 23218, Note_off_c, 0, 64, 0
4, 23220, Note_on_c, 0, 67, 88
4, 23278, Note_off_c, 0, 67, 0
4, 23280, Note_on_c, 0, 62, 88
4, 23338, Note_off_c, 0, 62, 0
4, 23340, Note_on_c, 0, 67, 88
4, 23398, Note_off_c, 0, 67, 0
4, 23400, Note_on_c, 0, 61, 88
4, 23458, Note_off_c, 0, 61, 0
4, 23460, Note_on_c, 0, 67, 88
4, 23518, Note_off_c, 0, 67, 0
4, 23520, Note_on_c, 0, 59, 88
4, 23578, Note_off_c, 0, 59, 0
4, 23580, Note_on_c, 0, 67, 88
4, 23638, Note_off_c, 0, 67, 0
4, 23640, Note_on_c, 0, 57, 88
4, 23698, Note_off_c, 0, 57, 0
4, 23700, Note_on_c, 0, 67, 88
4, 23758, Note_off_c, 0, 67, 0
4, 23760, Note_on_c, 0, 66, 88
4, 23818, Note_off_c, 0, 66, 0
4, 23820, Note_on_c, 0, 74, 88
4, 23878, Note_off_c, 0, 74, 0
4, 23880, Note_on_c, 0, 72, 88
4, 23938, Note_off_c, 0, 72, 0
4, 23940, Note_on_c, 0, 71, 88
4, 23998, Note_off_c, 0, 71, 0
4, 24000, Note_on_c, 0, 69, 88
4, 24058, Note_off_c, 0, 69, 0
4, 24060, Note_on_c, 0, 67, 88
4, 24118, Note_off_c, 0, 67, 0
4, 24120, Note_on_c, 0, 66, 88
4, 24178, Note_off_c, 0, 66, 0
4, 24180, Note_on_c, 0, 64, 88
4, 24238, Note_off_c, 0, 64, 0
4, 24240, Note_on_c, 0, 62, 88
4, 24298, Note_off_c, 0, 62, 0
4, 24300, Note_on_c, 0, 60, 88
4, 24358, Note_off_c, 0, 60, 0
4, 24360, Note_on_c, 0, 59, 88
4, 24418, Note_off_c, 0, 59, 0
4, 24420, Note_on_c, 0, 57, 88
4, 24478, Note_off_c, 0, 57, 0
4, 24480, Note_on_c, 0, 55, 88
4, 24538, Note_off_c, 0, 55, 0
4, 24540, Note_on_c, 0, 57, 88
4, 24598, Note_off_c, 0, 57, 0
4, 24600, Note_on_c, 0, 59, 88
4, 24658, Note_off_c, 0, 59, 0
4, 24660, Note_on_c, 0, 55, 88
4, 24718, Note_off_c, 0, 55, 0
4, 24720, Note_on_c, 0, 60, 88
4, 24778, Note_off_c, 0, 60, 0
4, 24780, Note_on_c, 0, 55, 88
4, 24838, Note_off_c, 0, 55, 0
4, 24840, Note_on_c, 0, 62, 88
4, 24898, Note_off_c, 0, 62, 0
4, 24900, Note_on_c, 0, 55, 88
4, 24958, Note_off_c, 0, 55, 0
4, 24960, Note_on_c, 0, 64, 88
4, 25018, Note_off_c, 0, 64, 0
4, 25020, Note_on_c, 0, 55, 88
4, 25078, Note_off_c, 0, 55, 0
4, 25080, Note_on_c, 0, 65, 88
4, 25138, Note_off_c, 0, 65, 0
4, 25140, Note_on_c, 0, 55, 88
4, 25198, Note_off_c, 0, 55, 0
4, 25200, Note_on_c, 0, 64, 88
4, 25258, Note_off_c, 0, 64, 0
4, 25260, Note_on_c, 0, 72, 88
4, 25318, Note_off_c, 0, 72, 0
4, 25320, Note_on_c, 0, 71, 88
4, 25378, Note_off_c, 0, 71, 0
4, 25380, Note_on_c, 0, 74, 88
4, 25438, Note_off_c, 0, 74, 0
4, 25440, Note_on_c, 0, 69, 88
4, 25498, Note_off_c, 0, 69, 0
4, 25500, Note_on_c, 0, 74, 88
4, 25558, Note_off_c, 0, 74, 0
4, 25560, Note_on_c, 0, 68, 88
4, 25618, Note_off_c, 0, 68, 0
4, 25620, Note_on_c, 0, 74, 88
4, 25678, Note_off_c, 0, 74, 0
4, 25680, Note_on_c, 0, 66, 88
4, 25738, Note_off_c, 0, 66, 0
4, 25740, Note_on_c, 0, 74, 88
4, 25798, Note_off_c, 0, 74, 0
4, 25800, Note_on_c, 0, 64, 88
4, 25858, Note_off_c, 0, 64, 0
4, 25860, Note_on_c, 0, 74, 88
4, 25918, Note_off_c, 0, 74, 0
4, 25920, Note_on_c, 0, 72, 88
4, 25978, Note_off_c, 0, 72, 0
4, 25980, Note_on_c, 0, 69, 88
4, 26038, Note_off_c, 0, 69, 0
4, 26040, Note_on_c, 0, 71, 88
4, 26098, Note_off_c, 0, 71, 0
4, 26100, Note_on_c, 0, 73, 88
4, 26158, Note_off_c, 0, 73, 0
4, 26160, Note_on_c, 0, 75, 88
4, 26218, Note_off_c, 0, 75, 0
4, 26220, Note_on_c, 0, 76, 88
4, 26278, Note_off_c, 0, 76, 0
4, 26280, Note_on_c, 0, 78, 88
4, 26338, Note_off_c, 0, 78, 0
4, 26340, Note_on_c, 0, 79, 88
4, 26398, Note_off_c, 0, 79, 0
4, 26400, Note_on_c, 0, 81, 88
4, 26458, Note_off_c, 0, 81, 0
4, 26460, Note_on_c, 0, 83, 88
4, 26518, Note_off_c, 0, 83, 0
4, 26520, Note_on_c, 0, 84, 88
4, 26578, Note_off_c, 0, 84, 0
4, 26580, Note_on_c, 0, 75, 88
4, 26638, Note_off_c, 0, 75, 0
4, 26640, Note_on_c, 0, 76, 88
4, 26756, Note_off_c, 0, 76, 0
4, 26760, Note_on_c, 0, 78, 88
4, 26818, Note_off_c, 0, 78, 0
4, 26820, Note_on_c, 0, 76, 88
4, 26878, Note_off_c, 0, 76, 0
4, 26880, Note_on_c, 0, 75, 88
4, 26938, Note_off_c, 0, 75, 0
4, 26940, Note_on_c, 0, 76, 88
4, 26998, Note_off_c, 0, 76, 0
4, 27000, Note_on_c, 0, 78, 88
4, 27116, Note_off_c, 0, 78, 0
4, 27120, Note_on_c, 0, 79, 88
4, 27178, Note_off_c, 0, 79, 0
4, 27180, Note_on_c, 0, 78, 88
4, 27238, Note_off_c, 0, 78, 0
4, 27240, Note_on_c, 0, 76, 88
4, 27298, Note_off_c, 0, 76, 0
4, 27300, Note_on_c, 0, 78, 88
4, 27358, Note_off_c, 0, 78, 0
4, 27360, Note_on_c, 0, 79, 88
4, 27476, Note_off_c, 0, 79, 0
4, 27480, Note_on_c, 0, 78, 88
4, 27596, Note_off_c, 0, 78, 0
4, 27600, Note_on_c, 0, 76, 88
4, 27716, Note_off_c, 0, 76, 0
4, 27720, Note_on_c, 0, 71, 88
4, 27836, Note_off_c, 0, 71, 0
4, 27840, Note_on_c, 0, 81, 88
4, 28074, Note_off_c, 0, 81, 0
4, 28080, Note_on_c, 0, 79, 88
4, 28196, Note_off_c, 0, 79, 0
4, 28200, Note_on_c, 0, 78, 88
4, 28316, Note_off_c, 0, 78, 0
4, 28320, Note_on_c, 0, 76, 88
4, 28436, Note_off_c, 0, 76, 0
4, 28440, Note_on_c, 0, 75, 88
4, 28556, Note_off_c, 0, 75, 0
4, 28560, Note_on_c, 0, 84, 88
4, 28794, Note_off_c, 0, 84, 0
4, 28800, Note_on_c, 0, 83, 88
4, 28916, Note_off_c, 0, 83, 0
4, 28920, Note_on_c, 0, 84, 88
4, 28978, Note_off_c, 0, 84, 0
4, 28980, Note_on_c, 0, 83, 88
4, 29038, Note_off_c, 0, 83, 0
4, 29040, Note_on_c, 0, 81, 88
4, 29098, Note_off_c, 0, 81, 0
4, 29100, Note_on_c, 0, 79, 88
4, 29158, Note_off_c, 0, 79, 0
4, 29160, Note_on_c, 0, 78, 88
4, 29276, Note_off_c, 0, 78, 0
4, 29280, Note_on_c, 0, 81, 88
4, 29338, Note_off_c, 0, 81, 0
4, 29340, Note_on_c, 0, 79, 88
4, 29398, Note_off_c, 0, 79, 0
4, 29400, Note_on_c, 0, 78, 88
4, 29458, Note_off_c, 0, 78, 0
4, 29460, Note_on_c, 0, 76, 88
4, 29518, Note_off_c, 0, 76, 0
4, 29520, Note_on_c, 0, 75, 88
4, 29636, Note_off_c, 0, 75, 0
4, 29640, Note_on_c, 0, 81, 88
4, 29756, Note_off_c, 0, 81, 0
4, 29760, Note_on_c, 0, 79, 88
4, 29876, Note_off_c, 0, 79, 0
4, 29880, Note_on_c, 0, 78, 88
4, 29996, Note_off_c, 0, 78, 0
4, 30000, Note_on_c, 0, 76, 88
4, 30116, Note_off_c, 0, 76, 0
4, 30120, Note_on_c, 0, 75, 88
4, 30236, Note_off_c, 0, 75, 0
4, 30240, Note_on_c, 0, 76, 88
4, 30356, Note_off_c, 0, 76, 0
4, 30360, Note_on_c, 0, 74, 88
4, 30476, Note_off_c, 0, 74, 0
4, 30480, Note_on_c, 0, 72, 88
4, 30596, Note_off_c, 0, 72, 0
4, 30600, Note_on_c, 0, 74, 88
4, 30716, Note_off_c, 0, 74, 0
4, 30720, Note_on_c, 0, 72, 88
4, 30836, Note_off_c, 0, 72, 0
4, 30840, Note_on_c, 0, 71, 88
4, 30956, Note_off_c, 0, 71, 0
4, 30960, Note_on_c, 0, 72, 88
4, 31018, Note_off_c, 0, 72, 0
4, 31020, Note_on_c, 0, 84, 88
4, 31078, Note_off_c, 0, 84, 0
4, 31080, Note_on_c, 0, 83, 88
4, 31138, Note_off_c, 0, 83, 0
4, 31140, Note_on_c, 0, 81, 88
4, 31198, Note_off_c, 0, 81, 0
4, 31200, Note_on_c, 0, 79, 88
4, 31258, Note_off_c, 0, 79, 0
4, 31260, Note_on_c, 0, 83, 88
4, 31318, Note_off_c, 0, 83, 0
4, 31320, Note_on_c, 0, 81, 88
4, 31378, Note_off_c, 0, 81, 0
4, 31380, Note_on_c, 0, 83, 88
4, 31438, Note_off_c, 0, 83, 0
4, 31440, Note_on_c, 0, 81, 88
4, 31498, Note_off_c, 0, 81, 0
4, 31500, Note_on_c, 0, 79, 88
4, 31558, Note_off_c, 0, 79, 0
4, 31560, Note_on_c, 0, 78, 88
4, 31618, Note_off_c, 0, 78, 0
4, 31620, Note_on_c, 0, 81, 88
4, 31678, Note_off_c, 0, 81, 0
4, 31680, Note_on_c, 0, 79, 88
4, 31738, Note_off_c, 0, 79, 0
4, 31740, Note_on_c, 0, 81, 88
4, 31798, Note_off_c, 0, 81, 0
4, 31800, Note_on_c, 0, 79, 88
4, 31858, Note_off_c, 0, 79, 0
4, 31860, Note_on_c, 0, 78, 88
4, 31918, Note_off_c, 0, 78, 0
4, 31920, Note_on_c, 0, 76, 88
4, 31978, Note_off_c, 0, 76, 0
4, 31980, Note_on_c, 0, 79, 88
4, 32038, Note_off_c, 0, 79, 0
4, 32040, Note_on_c, 0, 78, 88
4, 32098, Note_off_c, 0, 78, 0
4, 32100, Note_on_c, 0, 79, 88
4, 32158, Note_off_c, 0, 79, 0
4, 32160, Note_on_c, 0, 78, 88
4, 32218, Note_off_c, 0, 78, 0
4, 32220, Note_on_c, 0, 76, 88
4, 32278, Note_off_c, 0, 76, 0
4, 32280, Note_on_c, 0, 75, 88
4, 32338, Note_off_c, 0, 75, 0
4, 32340, Note_on_c, 0, 78, 88
4, 32398, Note_off_c, 0, 78, 0
4, 32400, Note_on_c, 0, 76, 88
4, 32516, Note_off_c, 0, 76, 0
4, 32520, Note_on_c, 0, 78, 88
4, 32578, Note_off_c, 0, 78, 0
4, 32580, Note_on_c, 0, 79, 88
4, 32638, Note_off_c, 0, 79, 0
4, 32640, Note_on_c, 0, 81, 88
4, 32874, Note_off_c, 0, 81, 0
4, 32880, Note_on_c, 0, 79, 88
4, 32938, Note_off_c, 0, 79, 0
4, 32940, Note_on_c, 0, 81, 88
4, 32998, Note_off_c, 0, 81, 0
4, 33000, Note_on_c, 0, 83, 88
4, 33236, Note_off_c, 0, 83, 0
4, 33240, Note_on_c, 0, 81, 88
4, 33356, Note_off_c, 0, 81, 0
4, 33360, Note_on_c, 0, 79, 88
4, 33476, Note_off_c, 0, 79, 0
4, 33480, Note_on_c, 0, 78, 88
4, 33538, Note_off_c, 0, 78, 0
4, 33540, Note_on_c, 0, 79, 88
4, 33598, Note_off_c, 0, 79, 0
4, 33600, Note_on_c, 0, 81, 88
4, 33716, Note_off_c, 0, 81, 0
4, 33720, Note_on_c, 0, 75, 88
4, 33836, Note_off_c, 0, 75, 0
4, 33840, Note_on_c, 0, 76, 88
4, 34074, Note_off_c, 0, 76, 0
4, 34080, Note_on_c, 0, 71, 88
4, 34196, Note_off_c, 0, 71, 0
4, 34200, Note_on_c, 0, 69, 88
4, 34785, Note_off_c, 0, 69, 0
4, 34800, Note_on_c, 0, 69, 88
4, 34916, Note_off_c, 0, 69, 0
4, 34920, Note_on_c, 0, 67, 88
4, 35505, Note_off_c, 0, 67, 0
4, 35520, Note_on_c, 0, 67, 88
4, 35636, Note_off_c, 0, 67, 0
4, 35640, Note_on_c, 0, 66, 88
4, 36058, Note_off_c, 0, 66, 0
4, 36060, Note_on_c, 0, 71, 88
4, 36118, Note_off_c, 0, 71, 0
4, 36120, Note_on_c, 0, 73, 88
4, 36178, Note_off_c, 0, 73, 0
4, 36180, Note_on_c, 0, 71, 88
4, 36238, Note_off_c, 0, 71, 0
4, 36240, Note_on_c, 0, 70, 88
4, 36298, Note_off_c, 0, 70, 0
4, 36300, Note_on_c, 0, 71, 88
4, 36358, Note_off_c, 0, 71, 0
4, 36360, Note_on_c, 0, 73, 88
4, 36476, Note_off_c, 0, 73, 0
4, 36480, Note_on_c, 0, 74, 88
4, 36538, Note_off_c, 0, 74, 0
4, 36540, Note_on_c, 0, 73, 88
4, 36598, Note_off_c, 0, 73, 0
4, 36600, Note_on_c, 0, 71, 88
4, 36658, Note_off_c, 0, 71, 0
4, 36660, Note_on_c, 0, 73, 88
4, 36718, Note_off_c, 0, 73, 0
4, 36720, Note_on_c, 0, 74, 88
4, 36836, Note_off_c, 0, 74, 0
4, 36840, Note_on_c, 0, 73, 88
4, 36956, Note_off_c, 0, 73, 0
4, 36960, Note_on_c, 0, 71, 88
4, 37076, Note_off_c, 0, 71, 0
4, 37080, Note_on_c, 0, 70, 88
4, 37196, Note_off_c, 0, 70, 0
4, 37200, Note_on_c, 0, 79, 88
4, 37434, Note_off_c, 0, 79, 0
4, 37440, Note_on_c, 0, 78, 88
4, 37556, Note_off_c, 0, 78, 0
4, 37560, Note_on_c, 0, 79, 88
4, 37618, Note_off_c, 0, 79, 0
4, 37620, Note_on_c, 0, 78, 88
4, 37678, Note_off_c, 0, 78, 0
4, 37680, Note_on_c, 0, 76, 88
4, 37738, Note_off_c, 0, 76, 0
4, 37740, Note_on_c, 0, 74, 88
4, 37798, Note_off_c, 0, 74, 0
4, 37800, Note_on_c, 0, 73, 88
4, 37916, Note_off_c, 0, 73, 0
4, 37920, Note_on_c, 0, 76, 88
4, 37978, Note_off_c, 0, 76, 0
4, 37980, Note_on_c, 0, 74, 88
4, 38038, Note_off_c, 0, 74, 0
4, 38040, Note_on_c, 0, 73, 88
4, 38098, Note_off_c, 0, 73, 0
4, 38100, Note_on_c, 0, 71, 88
4, 38158, Note_off_c, 0, 71, 0
4, 38160, Note_on_c, 0, 70, 88
4, 38218, Note_off_c, 0, 70, 0
4, 38220, Note_on_c, 0, 71, 88
4, 38278, Note_off_c, 0, 71, 0
4, 38280, Note_on_c, 0, 73, 88
4, 38338, Note_off_c, 0, 73, 0
4, 38340, Note_on_c, 0, 70, 88
4, 38398, Note_off_c, 0, 70, 0
4, 38400, Note_on_c, 0, 74, 88
4, 38458, Note_off_c, 0, 74, 0
4, 38460, Note_on_c, 0, 70, 88
4, 38518, Note_off_c, 0, 70, 0
4, 38520, Note_on_c, 0, 76, 88
4, 38578, Note_off_c, 0, 76, 0
4, 38580, Note_on_c, 0, 70, 88
4, 38638, Note_off_c, 0, 70, 0
4, 38640, Note_on_c, 0, 78, 88
4, 38698, Note_off_c, 0, 78, 0
4, 38700, Note_on_c, 0, 70, 88
4, 38758, Note_off_c, 0, 70, 0
4, 38760, Note_on_c, 0, 79, 88
4, 38818, Note_off_c, 0, 79, 0
4, 38820, Note_on_c, 0, 70, 88
4, 38878, Note_off_c, 0, 70, 0
4, 38880, Note_on_c, 0, 78, 88
4, 38938, Note_off_c, 0, 78, 0
4, 38940, Note_on_c, 0, 70, 88
4, 38998, Note_off_c, 0, 70, 0
4, 39000, Note_on_c, 0, 71, 88
4, 39058, Note_off_c, 0, 71, 0
4, 39060, Note_on_c, 0, 78, 88
4, 39118, Note_off_c, 0, 78, 0
4, 39120, Note_on_c, 0, 76, 88
4, 39149, Note_off_c, 0, 76, 0
4, 39150, Note_on_c, 0, 74, 88
4, 39179, Note_off_c, 0, 74, 0
4, 39180, Note_on_c, 0, 73, 88
4, 39209, Note_off_c, 0, 73, 0
4, 39210, Note_on_c, 0, 74, 88
4, 39239, Note_off_c, 0, 74, 0
4, 39240, Note_on_c, 0, 76, 88
4, 39298, Note_off_c, 0, 76, 0
4, 39300, Note_on_c, 0, 68, 88
4, 39358, Note_off_c, 0, 68, 0
4, 39360, Note_on_c, 0, 70, 88
4, 39418, Note_off_c, 0, 70, 0
4, 39420, Note_on_c, 0, 76, 88
4, 39478, Note_off_c, 0, 76, 0
4, 39480, Note_on_c, 0, 74, 88
4, 39509, Note_off_c, 0, 74, 0
4, 39510, Note_on_c, 0, 73, 88
4, 39539, Note_off_c, 0, 73, 0
4, 39540, Note_on_c, 0, 71, 88
4, 39569, Note_off_c, 0, 71, 0
4, 39570, Note_on_c, 0, 73, 88
4, 39599, Note_off_c, 0, 73, 0
4, 39600, Note_on_c, 0, 74, 88
4, 41098, Note_off_c, 0, 74, 0
4, 41100, Note_on_c, 0, 66, 88
4, 41129, Note_off_c, 0, 66, 0
4, 41130, Note_on_c, 0, 68, 88
4, 41159, Note_off_c, 0, 68, 0
4, 41160, Note_on_c, 0, 69, 88
4, 41218, Note_off_c, 0, 69, 0
4, 41220, Note_on_c, 0, 64, 88
4, 41278, Note_off_c, 0, 64, 0
4, 41280, Note_on_c, 0, 71, 88
4, 41338, Note_off_c, 0, 71, 0
4, 41340, Note_on_c, 0, 64, 88
4, 41398, Note_off_c, 0, 64, 0
4, 41400, Note_on_c, 0, 73, 88
4, 41458, Note_off_c, 0, 73, 0
4, 41460, Note_on_c, 0, 64, 88
4, 41518, Note_off_c, 0, 64, 0
4, 41520, Note_on_c, 0, 74, 88
4, 41578, Note_off_c, 0, 74, 0
4, 41580, Note_on_c, 0, 66, 88
4, 41638, Note_off_c, 0, 66, 0
4, 41640, Note_on_c, 0, 76, 88
4, 41698, Note_off_c, 0, 76, 0
4, 41700, Note_on_c, 0, 67, 88
4, 41758, Note_off_c, 0, 67, 0
4, 41760, Note_on_c, 0, 66, 88
4, 41818, Note_off_c, 0, 66, 0
4, 41820, Note_on_c, 0, 67, 88
4, 41849, Note_off_c, 0, 67, 0
4, 41850, Note_on_c, 0, 69, 88
4, 41879, Note_off_c, 0, 69, 0
4, 41880, Note_on_c, 0, 71, 88
4, 41938, Note_off_c, 0, 71, 0
4, 41940, Note_on_c, 0, 66, 88
4, 41998, Note_off_c, 0, 66, 0
4, 42000, Note_on_c, 0, 73, 88
4, 42058, Note_off_c, 0, 73, 0
4, 42060, Note_on_c, 0, 66, 88
4, 42118, Note_off_c, 0, 66, 0
4, 42120, Note_on_c, 0, 74, 88
4, 42178, Note_off_c, 0, 74, 0
4, 42180, Note_on_c, 0, 66, 88
4, 42238, Note_off_c, 0, 66, 0
4, 42240, Note_on_c, 0, 76, 88
4, 42298, Note_off_c, 0, 76, 0
4, 42300, Note_on_c, 0, 67, 88
4, 42358, Note_off_c, 0, 67, 0
4, 42360, Note_on_c, 0, 78, 88
4, 42418, Note_off_c, 0, 78, 0
4, 42420, Note_on_c, 0, 69, 88
4, 42478, Note_off_c, 0, 69, 0
4, 42480, Note_on_c, 0, 67, 88
4, 42538, Note_off_c, 0, 67, 0
4, 42540, Note_on_c, 0, 66, 88
4, 42598, Note_off_c, 0, 66, 0
4, 42600, Note_on_c, 0, 67, 88
4, 42658, Note_off_c, 0, 67, 0
4, 42660, Note_on_c, 0, 71, 88
4, 42718, Note_off_c, 0, 71, 0
4, 42720, Note_on_c, 0, 76, 88
4, 42778, Note_off_c, 0, 76, 0
4, 42780, Note_on_c, 0, 67, 88
4, 42838, Note_off_c, 0, 67, 0
4, 42840, Note_on_c, 0, 66, 88
4, 42898, Note_off_c, 0, 66, 0
4, 42900, Note_on_c, 0, 71, 88
4, 42958, Note_off_c, 0, 71, 0
4, 42960, Note_on_c, 0, 69, 88
4, 43018, Note_off_c, 0, 69, 0
4, 43020, Note_on_c, 0, 73, 88
4, 43078, Note_off_c, 0, 73, 0
4, 43080, Note_on_c, 0, 74, 88
4, 43316, Note_off_c, 0, 74, 0
4, 43320, Note_on_c, 0, 73, 88
4, 43554, Note_off_c, 0, 73, 0
4, 43560, Note_on_c, 0, 74, 88
4, 43676, Note_off_c, 0, 74, 0
4, 43680, Note_on_c, 0, 76, 88
4, 43738, Note_off_c, 0, 76, 0
4, 43740, Note_on_c, 0, 74, 88
4, 43798, Note_off_c, 0, 74, 0
4, 43800, Note_on_c, 0, 73, 88
4, 43858, Note_off_c, 0, 73, 0
4, 43860, Note_on_c, 0, 74, 88
4, 43918, Note_off_c, 0, 74, 0
4, 43920, Note_on_c, 0, 76, 88
4, 44036, Note_off_c, 0, 76, 0
4, 44040, Note_on_c, 0, 78, 88
4, 44098, Note_off_c, 0, 78, 0
4, 44100, Note_on_c, 0, 76, 88
4, 44158, Note_off_c, 0, 76, 0
4, 44160, Note_on_c, 0, 74, 88
4, 44218, Note_off_c, 0, 74, 0
4, 44220, Note_on_c, 0, 76, 88
4, 44278, Note_off_c, 0, 76, 0
4, 44280, Note_on_c, 0, 78, 88
4, 44396, Note_off_c, 0, 78, 0
4, 44400, Note_on_c, 0, 79, 88
4, 44458, Note_off_c, 0, 79, 0
4, 44460, Note_on_c, 0, 78, 88
4, 44518, Note_off_c, 0, 78, 0
4, 44520, Note_on_c, 0, 76, 88
4, 44578, Note_off_c, 0, 76, 0
4, 44580, Note_on_c, 0, 74, 88
4, 44638, Note_off_c, 0, 74, 0
4, 44640, Note_on_c, 0, 73, 88
4, 44756, Note_off_c, 0, 73, 0
4, 44760, Note_on_c, 0, 83, 88
4, 45054, Note_off_c, 0, 83, 0
4, 45060, Note_on_c, 0, 81, 88
4, 45118, Note_off_c, 0, 81, 0
4, 45120, Note_on_c, 0, 83, 88
4, 45178, Note_off_c, 0, 83, 0
4, 45180, Note_on_c, 0, 81, 88
4, 45238, Note_off_c, 0, 81, 0
4, 45240, Note_on_c, 0, 79, 88
4, 45298, Note_off_c, 0, 79, 0
4, 45300, Note_on_c, 0, 78, 88
4, 45358, Note_off_c, 0, 78, 0
4, 45360, Note_on_c, 0, 78, 88
4, 45393, Note_off_c, 0, 78, 0
4, 45394, Note_on_c, 0, 76, 88
4, 45423, Note_off_c, 0, 76, 0
4, 45424, Note_on_c, 0, 78, 88
4, 45453, Note_off_c, 0, 78, 0
4, 45454, Note_on_c, 0, 76, 88
4, 45483, Note_off_c, 0, 76, 0
4, 45484, Note_on_c, 0, 78, 88
4, 45513, Note_off_c, 0, 78, 0
4, 45514, Note_on_c, 0, 76, 88
4, 45543, Note_off_c, 0, 76, 0
4, 45544, Note_on_c, 0, 78, 88
4, 45573, Note_off_c, 0, 78, 0
4, 45574, Note_on_c, 0, 76, 88
4, 45603, Note_off_c, 0, 76, 0
4, 45604, Note_on_c, 0, 78, 88
4, 45633, Note_off_c, 0, 78, 0
4, 45634, Note_on_c, 0, 76, 88
4, 45663, Note_off_c, 0, 76, 0
4, 45664, Note_on_c, 0, 78, 88
4, 45693, Note_off_c, 0, 78, 0
4, 45694, Note_on_c, 0, 76, 88
4, 45723, Note_off_c, 0, 76, 0
4, 45724, Note_on_c, 0, 78, 88
4, 45753, Note_off_c, 0, 78, 0
4, 45754, Note_on_c, 0, 76, 88
4, 45783, Note_off_c, 0, 76, 0
4, 45784, Note_on_c, 0, 78, 88
4, 45813, Note_off_c, 0, 78, 0
4, 45814, Note_on_c, 0, 76, 88
4, 45843, Note_off_c, 0, 76, 0
4, 45844, Note_on_c, 0, 78, 88
4, 45873, Note_off_c, 0, 78, 0
4, 45874, Note_on_c, 0, 76, 88
4, 45903, Note_off_c, 0, 76, 0
4, 45904, Note_on_c, 0, 78, 88
4, 45933, Note_off_c, 0, 78, 0
4, 45934, Note_on_c, 0, 76, 88
4, 45959, Note_off_c, 0, 76, 0
4, 45960, Note_on_c, 0, 78, 88
4, 45985, Note_off_c, 0, 78, 0
4, 45986, Note_on_c, 0, 76, 88
4, 46077, Note_off_c, 0, 76, 0
4, 46080, Note_on_c, 0, 76, 88
4, 46138, Note_off_c, 0, 76, 0
4, 46140, Note_on_c, 0, 81, 88
4, 46169, Note_off_c, 0, 81, 0
4, 46170, Note_on_c, 0, 79, 88
4, 46199, Note_off_c, 0, 79, 0
4, 46200, Note_on_c, 0, 78, 88
4, 46258, Note_off_c, 0, 78, 0
4, 46260, Note_on_c, 0, 81, 88
4, 46318, Note_off_c, 0, 81, 0
4, 46320, Note_on_c, 0, 76, 88
4, 46378, Note_off_c, 0, 76, 0
4, 46380, Note_on_c, 0, 81, 88
4, 46438, Note_off_c, 0, 81, 0
4, 46440, Note_on_c, 0, 74, 88
4, 46498, Note_off_c, 0, 74, 0
4, 46500, Note_on_c, 0, 81, 88
4, 46558, Note_off_c, 0, 81, 0
4, 46560, Note_on_c, 0, 73, 88
4, 46618, Note_off_c, 0, 73, 0
4, 46620, Note_on_c, 0, 81, 88
4, 46678, Note_off_c, 0, 81, 0
4, 46680, Note_on_c, 0, 71, 88
4, 46738, Note_off_c, 0, 71, 0
4, 46740, Note_on_c, 0, 81, 88
4, 46798, Note_off_c, 0, 81, 0
4, 46800, Note_on_c, 0, 79, 88
4, 46858, Note_off_c, 0, 79, 0
4, 46860, Note_on_c, 0, 78, 88
4, 46918, Note_off_c, 0, 78, 0
4, 46920, Note_on_c, 0, 76, 88
4, 46978, Note_off_c, 0, 76, 0
4, 46980, Note_on_c, 0, 79, 88
4, 47038, Note_off_c, 0, 79, 0
4, 47040, Note_on_c, 0, 74, 88
4, 47098, Note_off_c, 0, 74, 0
4, 47100, Note_on_c, 0, 79, 88
4, 47158, Note_off_c, 0, 79, 0
4, 47160, Note_on_c, 0, 73, 88
4, 47218, Note_off_c, 0, 73, 0
4, 47220, Note_on_c, 0, 79, 88
4, 47278, Note_off_c, 0, 79, 0
4, 47280, Note_on_c, 0, 71, 88
4, 47338, Note_off_c, 0, 71, 0
4, 47340, Note_on_c, 0, 79, 88
4, 47398, Note_off_c, 0, 79, 0
4, 47400, Note_on_c, 0, 69, 88
4, 47458, Note_off_c, 0, 69, 0
4, 47460, Note_on_c, 0, 79, 88
4, 47518, Note_off_c, 0, 79, 0
4, 47520, Note_on_c, 0, 78, 88
4, 47578, Note_off_c, 0, 78, 0
4, 47580, Note_on_c, 0, 76, 88
4, 47638, Note_off_c, 0, 76, 0
4, 47640, Note_on_c, 0, 74, 88
4, 47698, Note_off_c, 0, 74, 0
4, 47700, Note_on_c, 0, 78, 88
4, 47758, Note_off_c, 0, 78, 0
4, 47760, Note_on_c, 0, 72, 88
4, 47818, Note_off_c, 0, 72, 0
4, 47820, Note_on_c, 0, 78, 88
4, 47878, Note_off_c, 0, 78, 0
4, 47880, Note_on_c, 0, 71, 88
4, 47938, Note_off_c, 0, 71, 0
4, 47940, Note_on_c, 0, 78, 88
4, 47998, Note_off_c, 0, 78, 0
4, 48000, Note_on_c, 0, 69, 88
4, 48058, Note_off_c, 0, 69, 0
4, 48060, Note_on_c, 0, 78, 88
4, 48118, Note_off_c, 0, 78, 0
4, 48120, Note_on_c, 0, 67, 88
4, 48178, Note_off_c, 0, 67, 0
4, 48180, Note_on_c, 0, 78, 88
4, 48238, Note_off_c, 0, 78, 0
4, 48240, Note_on_c, 0, 76, 88
4, 48298, Note_off_c, 0, 76, 0
4, 48300, Note_on_c, 0, 74, 88
4, 48358, Note_off_c, 0, 74, 0
4, 48360, Note_on_c, 0, 73, 88
4, 48418, Note_off_c, 0, 73, 0
4, 48420, Note_on_c, 0, 76, 88
4, 48478, Note_off_c, 0, 76, 0
4, 48480, Note_on_c, 0, 71, 88
4, 48538, Note_off_c, 0, 71, 0
4, 48540, Note_on_c, 0, 76, 88
4, 48598, Note_off_c, 0, 76, 0
4, 48600, Note_on_c, 0, 69, 88
4, 48658, Note_off_c, 0, 69, 0
4, 48660, Note_on_c, 0, 76, 88
4, 48718, Note_off_c, 0, 76, 0
4, 48720, Note_on_c, 0, 67, 88
4, 48778, Note_off_c, 0, 67, 0
4, 48780, Note_on_c, 0, 76, 88
4, 48838, Note_off_c, 0, 76, 0
4, 48840, Note_on_c, 0, 66, 88
4, 48898, Note_off_c, 0, 66, 0
4, 48900, Note_on_c, 0, 76, 88
4, 48958, Note_off_c, 0, 76, 0
4, 48960, Note_on_c, 0, 74, 88
4, 49018, Note_off_c, 0, 74, 0
4, 49020, Note_on_c, 0, 66, 88
4, 49078, Note_off_c, 0, 66, 0
4, 49080, Note_on_c, 0, 64, 88
4, 49138, Note_off_c, 0, 64, 0
4, 49140, Note_on_c, 0, 67, 88
4, 49198, Note_off_c, 0, 67, 0
4, 49200, Note_on_c, 0, 74, 88
4, 49258, Note_off_c, 0, 74, 0
4, 49260, Note_on_c, 0, 73, 88
4, 49318, Note_off_c, 0, 73, 0
4, 49320, Note_on_c, 0, 76, 88
4, 49349, Note_off_c, 0, 76, 0
4, 49350, Note_on_c, 0, 74, 88
4, 49379, Note_off_c, 0, 74, 0
4, 49380, Note_on_c, 0, 76, 88
4, 49409, Note_off_c, 0, 76, 0
4, 49410, Note_on_c, 0, 74, 88
4, 49439, Note_off_c, 0, 74, 0
4, 49440, Note_on_c, 0, 76, 88
4, 49469, Note_off_c, 0, 76, 0
4, 49470, Note_on_c, 0, 74, 88
4, 49499, Note_off_c, 0, 74, 0
4, 49500, Note_on_c, 0, 76, 88
4, 49529, Note_off_c, 0, 76, 0
4, 49530, Note_on_c, 0, 74, 88
4, 49559, Note_off_c, 0, 74, 0
4, 49560, Note_on_c, 0, 76, 88
4, 49589, Note_off_c, 0, 76, 0
4, 49590, Note_on_c, 0, 74, 88
4, 49619, Note_off_c, 0, 74, 0
4, 49620, Note_on_c, 0, 76, 88
4, 49649, Note_off_c, 0, 76, 0
4, 49650, Note_on_c, 0, 74, 88
4, 49679, Note_off_c, 0, 74, 0
4, 49680, Note_on_c, 0, 76, 88
4, 49713, Note_off_c, 0, 76, 0
4, 49714, Note_on_c, 0, 74, 88
4, 49743, Note_off_c, 0, 74, 0
4, 49744, Note_on_c, 0, 76, 88
4, 49773, Note_off_c, 0, 76, 0
4, 49774, Note_on_c, 0, 74, 88
4, 49803, Note_off_c, 0, 74, 0
4, 49804, Note_on_c, 0, 76, 88
4, 49833, Note_off_c, 0, 76, 0
4, 49834, Note_on_c, 0, 74, 88
4, 49863, Note_off_c, 0, 74, 0
4, 49864, Note_on_c, 0, 76, 88
4, 49893, Note_off_c, 0, 76, 0
4, 49894, Note_on_c, 0, 74, 88
4, 49923, Note_off_c, 0, 74, 0
4, 49924, Note_on_c, 0, 76, 88
4, 49953, Note_off_c, 0, 76, 0
4, 49954, Note_on_c, 0, 74, 88
4, 49983, Note_off_c, 0, 74, 0
4, 49984, Note_on_c, 0, 76, 88
4, 50013, Note_off_c, 0, 76, 0
4, 50014, Note_on_c, 0, 74, 88
4, 50043, Note_off_c, 0, 74, 0
4, 50044, Note_on_c, 0, 76, 88
4, 50073, Note_off_c, 0, 76, 0
4, 50074, Note_on_c, 0, 74, 88
4, 50103, Note_off_c, 0, 74, 0
4, 50104, Note_on_c, 0, 76, 88
4, 50133, Note_off_c, 0, 76, 0
4, 50134, Note_on_c, 0, 74, 88
4, 50163, Note_off_c, 0, 74, 0
4, 50164, Note_on_c, 0, 76, 88
4, 50193, Note_off_c, 0, 76, 0
4, 50194, Note_on_c, 0, 74, 88
4, 50223, Note_off_c, 0, 74, 0
4, 50224, Note_on_c, 0, 76, 88
4, 50253, Note_off_c, 0, 76, 0
4, 50254, Note_on_c, 0, 74, 88
4, 50283, Note_off_c, 0, 74, 0
4, 50284, Note_on_c, 0, 76, 88
4, 50313, Note_off_c, 0, 76, 0
4, 50314, Note_on_c, 0, 74, 88
4, 50339, Note_off_c, 0, 74, 0
4, 50340, Note_on_c, 0, 76, 88
4, 50365, Note_off_c, 0, 76, 0
4, 50366, Note_on_c, 0, 74, 88
4, 50399, Note_off_c, 0, 74, 0
4, 50400, Note_on_c, 0, 74, 88
4, 50516, Note_off_c, 0, 74, 0
4, 50520, Note_on_c, 0, 72, 88
4, 50873, Note_off_c, 0, 72, 0
4, 50880, Note_on_c, 0, 71, 88
4, 51236, Note_off_c, 0, 71, 0
4, 51240, Note_on_c, 0, 69, 88
4, 51534, Note_off_c, 0, 69, 0
4, 51540, Note_on_c, 0, 67, 88
4, 51598, Note_off_c, 0, 67, 0
4, 51600, Note_on_c, 0, 69, 88
4, 51658, Note_off_c, 0, 69, 0
4, 51660, Note_on_c, 0, 67, 88
4, 51718, Note_off_c, 0, 67, 0
4, 51720, Note_on_c, 0, 66, 88
4, 51778, Note_off_c, 0, 66, 0
4, 51780, Note_on_c, 0, 67, 88
4, 51838, Note_off_c, 0, 67, 0
4, 51840, Note_on_c, 0, 66, 88
4, 51898, Note_off_c, 0, 66, 0
4, 51900, Note_on_c, 0, 62, 88
4, 51929, Note_off_c, 0, 62, 0
4, 51930, Note_on_c, 0, 64, 88
4, 51959, Note_off_c, 0, 64, 0
4, 51960, Note_on_c, 0, 66, 88
4, 52018, Note_off_c, 0, 66, 0
4, 52020, Note_on_c, 0, 62, 88
4, 52078, Note_off_c, 0, 62, 0
4, 52080, Note_on_c, 0, 67, 88
4, 52138, Note_off_c, 0, 67, 0
4, 52140, Note_on_c, 0, 62, 88
4, 52198, Note_off_c, 0, 62, 0
4, 52200, Note_on_c, 0, 69, 88
4, 52258, Note_off_c, 0, 69, 0
4, 52260, Note_on_c, 0, 62, 88
4, 52318, Note_off_c, 0, 62, 0
4, 52320, Note_on_c, 0, 71, 88
4, 52378, Note_off_c, 0, 71, 0
4, 52380, Note_on_c, 0, 62, 88
4, 52438, Note_off_c, 0, 62, 0
4, 52440, Note_on_c, 0, 72, 88
4, 52498, Note_off_c, 0, 72, 0
4, 52500, Note_on_c, 0, 62, 88
4, 52558, Note_off_c, 0, 62, 0
4, 52560, Note_on_c, 0, 71, 88
4, 52618, Note_off_c, 0, 71, 0
4, 52620, Note_on_c, 0, 79, 88
4, 52678, Note_off_c, 0, 79, 0
4, 52680, Note_on_c, 0, 77, 88
4, 52738, Note_off_c, 0, 77, 0
4, 52740, Note_on_c, 0, 76, 88
4, 52798, Note_off_c, 0, 76, 0
4, 52800, Note_on_c, 0, 74, 88
4, 52858, Note_off_c, 0, 74, 0
4, 52860, Note_on_c, 0, 72, 88
4, 52918, Note_off_c, 0, 72, 0
4, 52920, Note_on_c, 0, 71, 88
4, 52978, Note_off_c, 0, 71, 0
4, 52980, Note_on_c, 0, 69, 88
4, 53038, Note_off_c, 0, 69, 0
4, 53040, Note_on_c, 0, 67, 88
4, 53098, Note_off_c, 0, 67, 0
4, 53100, Note_on_c, 0, 65, 88
4, 53158, Note_off_c, 0, 65, 0
4, 53160, Note_on_c, 0, 64, 88
4, 53218, Note_off_c, 0, 64, 0
4, 53220, Note_on_c, 0, 62, 88
4, 53278, Note_off_c, 0, 62, 0
4, 53280, Note_on_c, 0, 60, 88
4, 53338, Note_off_c, 0, 60, 0
4, 53340, Note_on_c, 0, 76, 88
4, 53398, Note_off_c, 0, 76, 0
4, 53400, Note_on_c, 0, 74, 88
4, 53458, Note_off_c, 0, 74, 0
4, 53460, Note_on_c, 0, 72, 88
4, 53518, Note_off_c, 0, 72, 0
4, 53520, Note_on_c, 0, 71, 88
4, 53578, Note_off_c, 0, 71, 0
4, 53580, Note_on_c, 0, 69, 88
4, 53638, Note_off_c, 0, 69, 0
4, 53640, Note_on_c, 0, 68, 88
4, 53698, Note_off_c, 0, 68, 0
4, 53700, Note_on_c, 0, 66, 88
4, 53758, Note_off_c, 0, 66, 0
4, 53760, Note_on_c, 0, 64, 88
4, 53818, Note_off_c, 0, 64, 0
4, 53820, Note_on_c, 0, 62, 88
4, 53878, Note_off_c, 0, 62, 0
4, 53880, Note_on_c, 0, 60, 88
4, 53938, Note_off_c, 0, 60, 0
4, 53940, Note_on_c, 0, 59, 88
4, 53998, Note_off_c, 0, 59, 0
4, 54000, Note_on_c, 0, 57, 88
4, 54058, Note_off_c, 0, 57, 0
4, 54060, Note_on_c, 0, 59, 88
4, 54118, Note_off_c, 0, 59, 0
4, 54120, Note_on_c, 0, 61, 88
4, 54178, Note_off_c, 0, 61, 0
4, 54180, Note_on_c, 0, 57, 88
4, 54238, Note_off_c, 0, 57, 0
4, 54240, Note_on_c, 0, 62, 88
4, 54298, Note_off_c, 0, 62, 0
4, 54300, Note_on_c, 0, 57, 88
4, 54358, Note_off_c, 0, 57, 0
4, 54360, Note_on_c, 0, 64, 88
4, 54418, Note_off_c, 0, 64, 0
4, 54420, Note_on_c, 0, 57, 88
4, 54478, Note_off_c, 0, 57, 0
4, 54480, Note_on_c, 0, 66, 88
4, 54538, Note_off_c, 0, 66, 0
4, 54540, Note_on_c, 0, 57, 88
4, 54598, Note_off_c, 0, 57, 0
4, 54600, Note_on_c, 0, 67, 88
4, 54658, Note_off_c, 0, 67, 0
4, 54660, Note_on_c, 0, 57, 88
4, 54718, Note_off_c, 0, 57, 0
4, 54720, Note_on_c, 0, 66, 88
4, 54836, Note_off_c, 0, 66, 0
4, 54840, Note_on_c, 0, 71, 88
4, 54956, Note_off_c, 0, 71, 0
4, 54960, Note_on_c, 0, 67, 88
4, 55076, Note_off_c, 0, 67, 0
4, 55080, Note_on_c, 0, 64, 88
4, 55196, Note_off_c, 0, 64, 0
4, 55200, Note_on_c, 0, 69, 88
4, 55316, Note_off_c, 0, 69, 0
4, 55320, Note_on_c, 0, 66, 88
4, 55436, Note_off_c, 0, 66, 0
4, 55440, Note_on_c, 0, 67, 88
4, 55852, Note_off_c, 0, 67, 0
4, 55860, Note_on_c, 0, 69, 88
4, 55918, Note_off_c, 0, 69, 0
4, 55920, Note_on_c, 0, 71, 88
4, 55942, Note_off_c, 0, 71, 0
4, 55943, Note_on_c, 0, 69, 88
4, 55964, Note_off_c, 0, 69, 0
4, 55965, Note_on_c, 0, 71, 88
4, 55987, Note_off_c, 0, 71, 0
4, 55988, Note_on_c, 0, 69, 88
4, 56009, Note_off_c, 0, 69, 0
4, 56010, Note_on_c, 0, 71, 88
4, 56032, Note_off_c, 0, 71, 0
4, 56033, Note_on_c, 0, 69, 88
4, 56054, Note_off_c, 0, 69, 0
4, 56055, Note_on_c, 0, 71, 88
4, 56077, Note_off_c, 0, 71, 0
4, 56078, Note_on_c, 0, 69, 88
4, 56099, Note_off_c, 0, 69, 0
4, 56100, Note_on_c, 0, 67, 88
4, 56129, Note_off_c, 0, 67, 0
4, 56130, Note_on_c, 0, 69, 88
4, 56159, Note_off_c, 0, 69, 0
4, 56160, Note_on_c, 0, 71, 88
4, 56276, Note_off_c, 0, 71, 0
4, 56280, Note_on_c, 0, 72, 88
4, 56338, Note_off_c, 0, 72, 0
4, 56340, Note_on_c, 0, 71, 88
4, 56398, Note_off_c, 0, 71, 0
4, 56400, Note_on_c, 0, 69, 88
4, 56458, Note_off_c, 0, 69, 0
4, 56460, Note_on_c, 0, 71, 88
4, 56518, Note_off_c, 0, 71, 0
4, 56520, Note_on_c, 0, 72, 88
4, 56636, Note_off_c, 0, 72, 0
4, 56640, Note_on_c, 0, 74, 88
4, 56698, Note_off_c, 0, 74, 0
4, 56700, Note_on_c, 0, 72, 88
4, 56758, Note_off_c, 0, 72, 0
4, 56760, Note_on_c, 0, 71, 88
4, 56818, Note_off_c, 0, 71, 0
4, 56820, Note_on_c, 0, 72, 88
4, 56878, Note_off_c, 0, 72, 0
4, 56880, Note_on_c, 0, 74, 88
4, 56996, Note_off_c, 0, 74, 0
4, 57000, Note_on_c, 0, 72, 88
4, 57116, Note_off_c, 0, 72, 0
4, 57120, Note_on_c, 0, 71, 88
4, 57236, Note_off_c, 0, 71, 0
4, 57240, Note_on_c, 0, 69, 88
4, 57356, Note_off_c, 0, 69, 0
4, 57360, Note_on_c, 0, 79, 88
4, 57594, Note_off_c, 0, 79, 0
4, 57600, Note_on_c, 0, 78, 88
4, 57716, Note_off_c, 0, 78, 0
4, 57720, Note_on_c, 0, 76, 88
4, 57836, Note_off_c, 0, 76, 0
4, 57840, Note_on_c, 0, 74, 88
4, 57956, Note_off_c, 0, 74, 0
4, 57960, Note_on_c, 0, 73, 88
4, 58076, Note_off_c, 0, 73, 0
4, 58080, Note_on_c, 0, 82, 88
4, 58314, Note_off_c, 0, 82, 0
4, 58320, Note_on_c, 0, 81, 88
4, 58378, Note_off_c, 0, 81, 0
4, 58380, Note_on_c, 0, 79, 88
4, 58438, Note_off_c, 0, 79, 0
4, 58440, Note_on_c, 0, 78, 88
4, 58498, Note_off_c, 0, 78, 0
4, 58500, Note_on_c, 0, 76, 88
4, 58558, Note_off_c, 0, 76, 0
4, 58560, Note_on_c, 0, 74, 88
4, 58676, Note_off_c, 0, 74, 0
4, 58740, Note_on_c, 0, 79, 88
4, 58856, Note_off_c, 0, 79, 0
4, 58860, Note_on_c, 0, 72, 88
4, 58918, Note_off_c, 0, 72, 0
4, 58920, Note_on_c, 0, 79, 88
4, 58978, Note_off_c, 0, 79, 0
4, 58980, Note_on_c, 0, 78, 88
4, 59038, Note_off_c, 0, 78, 0
4, 59040, Note_on_c, 0, 79, 88
4, 59098, Note_off_c, 0, 79, 0
4, 59100, Note_on_c, 0, 78, 88
4, 59129, Note_off_c, 0, 78, 0
4, 59130, Note_on_c, 0, 76, 88
4, 59159, Note_off_c, 0, 76, 0
4, 59160, Note_on_c, 0, 74, 88
4, 59218, Note_off_c, 0, 74, 0
4, 59220, Note_on_c, 0, 79, 88
4, 59278, Note_off_c, 0, 79, 0
4, 59280, Note_on_c, 0, 72, 88
4, 59338, Note_off_c, 0, 72, 0
4, 59340, Note_on_c, 0, 79, 88
4, 59398, Note_off_c, 0, 79, 0
4, 59400, Note_on_c, 0, 71, 88
4, 59516, Note_off_c, 0, 71, 0
4, 59520, Note_on_c, 0, 79, 88
4, 59636, Note_off_c, 0, 79, 0
4, 59640, Note_on_c, 0, 69, 88
4, 59756, Note_off_c, 0, 69, 0
4, 59760, Note_on_c, 0, 71, 88
4, 59818, Note_off_c, 0, 71, 0
4, 59820, Note_on_c, 0, 74, 88
4, 59849, Note_off_c, 0, 74, 0
4, 59850, Note_on_c, 0, 72, 88
4, 59879, Note_off_c, 0, 72, 0
4, 59880, Note_on_c, 0, 71, 88
4, 59938, Note_off_c, 0, 71, 0
4, 59940, Note_on_c, 0, 74, 88
4, 59998, Note_off_c, 0, 74, 0
4, 60000, Note_on_c, 0, 69, 88
4, 60058, Note_off_c, 0, 69, 0
4, 60060, Note_on_c, 0, 74, 88
4, 60118, Note_off_c, 0, 74, 0
4, 60120, Note_on_c, 0, 67, 88
4, 60236, Note_off_c, 0, 67, 0
4, 60240, Note_on_c, 0, 72, 88
4, 60509, Note_off_c, 0, 72, 0
4, 60510, Note_on_c, 0, 67, 88
4, 60539, Note_off_c, 0, 67, 0
4, 60540, Note_on_c, 0, 69, 88
4, 60569, Note_off_c, 0, 69, 0
4, 60570, Note_on_c, 0, 71, 88
4, 60599, Note_off_c, 0, 71, 0
4, 60600, Note_on_c, 0, 72, 88
4, 60658, Note_off_c, 0, 72, 0
4, 60660, Note_on_c, 0, 67, 88
4, 60718, Note_off_c, 0, 67, 0
4, 60720, Note_on_c, 0, 74, 88
4, 60778, Note_off_c, 0, 74, 0
4, 60780, Note_on_c, 0, 67, 88
4, 60838, Note_off_c, 0, 67, 0
4, 60840, Note_on_c, 0, 76, 88
4, 60869, Note_off_c, 0, 76, 0
4, 60870, Note_on_c, 0, 71, 88
4, 60899, Note_off_c, 0, 71, 0
4, 60900, Note_on_c, 0, 72, 88
4, 60929, Note_off_c, 0, 72, 0
4, 60930, Note_on_c, 0, 74, 88
4, 60959, Note_off_c, 0, 74, 0
4, 60960, Note_on_c, 0, 76, 88
4, 61018, Note_off_c, 0, 76, 0
4, 61020, Note_on_c, 0, 72, 88
4, 61078, Note_off_c, 0, 72, 0
4, 61080, Note_on_c, 0, 78, 88
4, 61138, Note_off_c, 0, 78, 0
4, 61140, Note_on_c, 0, 72, 88
4, 61198, Note_off_c, 0, 72, 0
4, 61200, Note_on_c, 0, 79, 88
4, 61494, Note_off_c, 0, 79, 0
4, 61500, Note_on_c, 0, 78, 88
4, 61558, Note_off_c, 0, 78, 0
4, 61560, Note_on_c, 0, 79, 88
4, 61913, Note_off_c, 0, 79, 0
4, 61913, End_track
5, 0, Start_track
5, 0, Title_t, "Track 2"
5, 0, Program_c, 1, 6
5, 60720, Note_on_c, 1, 71, 88
5, 60836, Note_off_c, 1, 71, 0
5, 60840, Note_on_c, 1, 72, 88
5, 60956, Note_off_c, 1, 72, 0
5, 61260, Note_on_c, 1, 74, 88
5, 61318, Note_off_c, 1, 74, 0
5, 61320, Note_on_c, 1, 76, 88
5, 61378, Note_off_c, 1, 76, 0
5, 61380, Note_on_c, 1, 72, 88
5, 61555, Note_off_c, 1, 72, 0
5, 61560, Note_on_c, 1, 74, 88
5, 61913, Note_off_c, 1, 74, 0
5, 61913, End_track
6, 0, Start_track
6, 0, Title_t, "Track 3"
6, 0, Program_c, 2, 6
6, 2880, Note_on_c, 2, 62, 88
6, 2996, Note_off_c, 2, 62, 0
6, 3000, Note_on_c, 2, 64, 88
6, 3058, Note_off_c, 2, 64, 0
6, 3060, Note_on_c, 2, 62, 88
6, 3118, Note_off_c, 2, 62, 0
6, 3120, Note_on_c, 2, 61, 88
6, 3178, Note_off_c, 2, 61, 0
6, 3180, Note_on_c, 2, 62, 88
6, 3238, Note_off_c, 2, 62, 0
6, 3240, Note_on_c, 2, 64, 88
6, 3356, Note_off_c, 2, 64, 0
6, 3360, Note_on_c, 2, 66, 88
6, 3418, Note_off_c, 2, 66, 0
6, 3420, Note_on_c, 2, 64, 88
6, 3478, Note_off_c, 2, 64, 0
6, 3480, Note_on_c, 2, 62, 88
6, 3538, Note_off_c, 2, 62, 0
6, 3540, Note_on_c, 2, 64, 88
6, 3598, Note_off_c, 2, 64, 0
6, 3600, Note_on_c, 2, 66, 88
6, 3716, Note_off_c, 2, 66, 0
6, 3720, Note_on_c, 2, 64, 88
6, 3836, Note_off_c, 2, 64, 0
6, 3840, Note_on_c, 2, 62, 88
6, 3956, Note_off_c, 2, 62, 0
6, 3960, Note_on_c, 2, 57, 88
6, 4076, Note_off_c, 2, 57, 0
6, 4080, Note_on_c, 2, 67, 88
6, 4314, Note_off_c, 2, 67, 0
6, 4320, Note_on_c, 2, 66, 88
6, 4436, Note_off_c, 2, 66, 0
6, 4440, Note_on_c, 2, 64, 88
6, 4556, Note_off_c, 2, 64, 0
6, 4560, Note_on_c, 2, 62, 88
6, 4676, Note_off_c, 2, 62, 0
6, 4680, Note_on_c, 2, 61, 88
6, 4796, Note_off_c, 2, 61, 0
6, 4800, Note_on_c, 2, 71, 88
6, 5034, Note_off_c, 2, 71, 0
6, 5040, Note_on_c, 2, 69, 88
6, 5156, Note_off_c, 2, 69, 0
6, 5160, Note_on_c, 2, 71, 88
6, 5218, Note_off_c, 2, 71, 0
6, 5220, Note_on_c, 2, 69, 88
6, 5278, Note_off_c, 2, 69, 0
6, 5280, Note_on_c, 2, 67, 88
6, 5338, Note_off_c, 2, 67, 0
6, 5340, Note_on_c, 2, 66, 88
6, 5398, Note_off_c, 2, 66, 0
6, 5400, Note_on_c, 2, 64, 88
6, 5516, Note_off_c, 2, 64, 0
6, 5520, Note_on_c, 2, 67, 88
6, 5578, Note_off_c, 2, 67, 0
6, 5580, Note_on_c, 2, 66, 88
6, 5638, Note_off_c, 2, 66, 0
6, 5640, Note_on_c, 2, 64, 88
6, 5698, Note_off_c, 2, 64, 0
6, 5700, Note_on_c, 2, 62, 88
6, 5758, Note_off_c, 2, 62, 0
6, 5760, Note_on_c, 2, 61, 88
6, 5876, Note_off_c, 2, 61, 0
6, 5880, Note_on_c, 2, 67, 88
6, 5996, Note_off_c, 2, 67, 0
6, 6000, Note_on_c, 2, 66, 88
6, 6116, Note_off_c, 2, 66, 0
6, 6120, Note_on_c, 2, 64, 88
6, 6236, Note_off_c, 2, 64, 0
6, 6240, Note_on_c, 2, 62, 88
6, 6356, Note_off_c, 2, 62, 0
6, 6360, Note_on_c, 2, 61, 88
6, 6476, Note_off_c, 2, 61, 0
6, 6480, Note_on_c, 2, 62, 88
6, 6538, Note_off_c, 2, 62, 0
6, 6540, Note_on_c, 2, 64, 88
6, 6598, Note_off_c, 2, 64, 0
6, 6600, Note_on_c, 2, 66, 88
6, 6658, Note_off_c, 2, 66, 0
6, 6660, Note_on_c, 2, 62, 88
6, 6718, Note_off_c, 2, 62, 0
6, 6720, Note_on_c, 2, 67, 88
6, 6778, Note_off_c, 2, 67, 0
6, 6780, Note_on_c, 2, 62, 88
6, 6838, Note_off_c, 2, 62, 0
6, 6840, Note_on_c, 2, 69, 88
6, 6898, Note_off_c, 2, 69, 0
6, 6900, Note_on_c, 2, 62, 88
6, 6958, Note_off_c, 2, 62, 0
6, 6960, Note_on_c, 2, 71, 88
6, 7018, Note_off_c, 2, 71, 0
6, 7020, Note_on_c, 2, 62, 88
6, 7078, Note_off_c, 2, 62, 0
6, 7080, Note_on_c, 2, 72, 88
6, 7138, Note_off_c, 2, 72, 0
6, 7140, Note_on_c, 2, 62, 88
6, 7198, Note_off_c, 2, 62, 0
6, 7200, Note_on_c, 2, 71, 88
6, 7553, Note_off_c, 2, 71, 0
6, 7560, Note_on_c, 2, 72, 88
6, 8036, Note_off_c, 2, 72, 0
6, 8040, Note_on_c, 2, 66, 88
6, 8156, Note_off_c, 2, 66, 0
6, 8160, Note_on_c, 2, 67, 88
6, 8394, Note_off_c, 2, 67, 0
6, 8400, Note_on_c, 2, 66, 88
6, 8458, Note_off_c, 2, 66, 0
6, 8460, Note_on_c, 2, 67, 88
6, 8518, Note_off_c, 2, 67, 0
6, 8520, Note_on_c, 2, 69, 88
6, 8578, Note_off_c, 2, 69, 0
6, 8580, Note_on_c, 2, 66, 88
6, 8638, Note_off_c, 2, 66, 0
6, 8640, Note_on_c, 2, 67, 88
6, 8698, Note_off_c, 2, 67, 0
6, 8700, Note_on_c, 2, 66, 88
6, 8758, Note_off_c, 2, 66, 0
6, 8760, Note_on_c, 2, 67, 88
6, 8818, Note_off_c, 2, 67, 0
6, 8820, Note_on_c, 2, 69, 88
6, 8878, Note_off_c, 2, 69, 0
6, 8880, Note_on_c, 2, 71, 88
6, 8938, Note_off_c, 2, 71, 0
6, 8940, Note_on_c, 2, 67, 88
6, 8998, Note_off_c, 2, 67, 0
6, 9000, Note_on_c, 2, 69, 88
6, 9058, Note_off_c, 2, 69, 0
6, 9060, Note_on_c, 2, 67, 88
6, 9118, Note_off_c, 2, 67, 0
6, 9120, Note_on_c, 2, 69, 88
6, 9178, Note_off_c, 2, 69, 0
6, 9180, Note_on_c, 2, 71, 88
6, 9238, Note_off_c, 2, 71, 0
6, 9240, Note_on_c, 2, 72, 88
6, 9298, Note_off_c, 2, 72, 0
6, 9300, Note_on_c, 2, 69, 88
6, 9358, Note_off_c, 2, 69, 0
6, 9360, Note_on_c, 2, 71, 88
6, 9476, Note_off_c, 2, 71, 0
6, 9480, Note_on_c, 2, 72, 88
6, 9538, Note_off_c, 2, 72, 0
6, 9540, Note_on_c, 2, 71, 88
6, 9598, Note_off_c, 2, 71, 0
6, 9600, Note_on_c, 2, 69, 88
6, 9658, Note_off_c, 2, 69, 0
6, 9660, Note_on_c, 2, 67, 88
6, 9718, Note_off_c, 2, 67, 0
6, 9720, Note_on_c, 2, 72, 88
6, 10138, Note_off_c, 2, 72, 0
6, 10140, Note_on_c, 2, 71, 88
6, 10198, Note_off_c, 2, 71, 0
6, 10200, Note_on_c, 2, 69, 88
6, 10258, Note_off_c, 2, 69, 0
6, 10260, Note_on_c, 2, 72, 88
6, 10318, Note_off_c, 2, 72, 0
6, 10320, Note_on_c, 2, 67, 88
6, 10378, Note_off_c, 2, 67, 0
6, 10380, Note_on_c, 2, 72, 88
6, 10438, Note_off_c, 2, 72, 0
6, 10440, Note_on_c, 2, 66, 88
6, 10498, Note_off_c, 2, 66, 0
6, 10500, Note_on_c, 2, 72, 88
6, 10558, Note_off_c, 2, 72, 0
6, 10560, Note_on_c, 2, 64, 88
6, 10618, Note_off_c, 2, 64, 0
6, 10620, Note_on_c, 2, 72, 88
6, 10678, Note_off_c, 2, 72, 0
6, 10680, Note_on_c, 2, 62, 88
6, 10738, Note_off_c, 2, 62, 0
6, 10740, Note_on_c, 2, 72, 88
6, 10798, Note_off_c, 2, 72, 0
6, 10800, Note_on_c, 2, 71, 88
6, 10916, Note_off_c, 2, 71, 0
6, 10920, Note_on_c, 2, 65, 88
6, 11036, Note_off_c, 2, 65, 0
6, 11040, Note_on_c, 2, 64, 88
6, 11156, Note_off_c, 2, 64, 0
6, 11160, Note_on_c, 2, 62, 88
6, 11276, Note_off_c, 2, 62, 0
6, 11280, Note_on_c, 2, 60, 88
6, 11396, Note_off_c, 2, 60, 0
6, 11400, Note_on_c, 2, 59, 88
6, 11516, Note_off_c, 2, 59, 0
6, 11760, Note_on_c, 2, 67, 88
6, 11876, Note_off_c, 2, 67, 0
6, 11880, Note_on_c, 2, 66, 88
6, 12465, Note_off_c, 2, 66, 0
6, 12480, Note_on_c, 2, 66, 88
6, 12596, Note_off_c, 2, 66, 0
6, 12600, Note_on_c, 2, 64, 88
6, 13185, Note_off_c, 2, 64, 0
6, 13200, Note_on_c, 2, 64, 88
6, 13316, Note_off_c, 2, 64, 0
6, 13320, Note_on_c, 2, 62, 88
6, 13796, Note_off_c, 2, 62, 0
6, 13800, Note_on_c, 2, 60, 88
6, 13858, Note_off_c, 2, 60, 0
6, 13860, Note_on_c, 2, 62, 88
6, 13918, Note_off_c, 2, 62, 0
6, 13920, Note_on_c, 2, 64, 88
6, 13978, Note_off_c, 2, 64, 0
6, 13980, Note_on_c, 2, 62, 88
6, 14038, Note_off_c, 2, 62, 0
6, 14040, Note_on_c, 2, 60, 88
6, 14156, Note_off_c, 2, 60, 0
6, 14160, Note_on_c, 2, 59, 88
6, 14218, Note_off_c, 2, 59, 0
6, 14220, Note_on_c, 2, 60, 88
6, 14278, Note_off_c, 2, 60, 0
6, 14280, Note_on_c, 2, 62, 88
6, 14338, Note_off_c, 2, 62, 0
6, 14340, Note_on_c, 2, 60, 88
6, 14398, Note_off_c, 2, 60, 0
6, 14400, Note_on_c, 2, 59, 88
6, 14516, Note_off_c, 2, 59, 0
6, 14520, Note_on_c, 2, 60, 88
6, 14636, Note_off_c, 2, 60, 0
6, 14640, Note_on_c, 2, 62, 88
6, 14756, Note_off_c, 2, 62, 0
6, 14760, Note_on_c, 2, 67, 88
6, 14876, Note_off_c, 2, 67, 0
6, 14880, Note_on_c, 2, 57, 88
6, 15114, Note_off_c, 2, 57, 0
6, 15120, Note_on_c, 2, 59, 88
6, 15236, Note_off_c, 2, 59, 0
6, 15240, Note_on_c, 2, 60, 88
6, 15356, Note_off_c, 2, 60, 0
6, 15360, Note_on_c, 2, 62, 88
6, 15476, Note_off_c, 2, 62, 0
6, 15480, Note_on_c, 2, 64, 88
6, 15596, Note_off_c, 2, 64, 0
6, 15600, Note_on_c, 2, 54, 88
6, 15834, Note_off_c, 2, 54, 0
6, 15840, Note_on_c, 2, 55, 88
6, 15945, Note_off_c, 2, 55, 0
6, 15960, Note_on_c, 2, 55, 88
6, 16018, Note_off_c, 2, 55, 0
6, 16020, Note_on_c, 2, 57, 88
6, 16078, Note_off_c, 2, 57, 0
6, 16080, Note_on_c, 2, 59, 88
6, 16138, Note_off_c, 2, 59, 0
6, 16140, Note_on_c, 2, 61, 88
6, 16198, Note_off_c, 2, 61, 0
6, 16200, Note_on_c, 2, 62, 88
6, 16316, Note_off_c, 2, 62, 0
6, 16320, Note_on_c, 2, 59, 88
6, 16378, Note_off_c, 2, 59, 0
6, 16380, Note_on_c, 2, 61, 88
6, 16438, Note_off_c, 2, 61, 0
6, 16440, Note_on_c, 2, 62, 88
6, 16498, Note_off_c, 2, 62, 0
6, 16500, Note_on_c, 2, 64, 88
6, 16558, Note_off_c, 2, 64, 0
6, 16560, Note_on_c, 2, 66, 88
6, 16676, Note_off_c, 2, 66, 0
6, 16680, Note_on_c, 2, 64, 88
6, 16796, Note_off_c, 2, 64, 0
6, 16800, Note_on_c, 2, 63, 88
6, 16916, Note_off_c, 2, 63, 0
6, 16920, Note_on_c, 2, 64, 88
6, 17036, Note_off_c, 2, 64, 0
6, 17040, Note_on_c, 2, 62, 88
6, 17156, Note_off_c, 2, 62, 0
6, 17160, Note_on_c, 2, 61, 88
6, 17276, Note_off_c, 2, 61, 0
6, 17280, Note_on_c, 2, 62, 88
6, 17396, Note_off_c, 2, 62, 0
6, 17400, Note_on_c, 2, 61, 88
6, 17458, Note_off_c, 2, 61, 0
6, 17460, Note_on_c, 2, 59, 88
6, 17518, Note_off_c, 2, 59, 0
6, 17520, Note_on_c, 2, 57, 88
6, 17578, Note_off_c, 2, 57, 0
6, 17580, Note_on_c, 2, 60, 88
6, 17638, Note_off_c, 2, 60, 0
6, 17640, Note_on_c, 2, 59, 88
6, 17698, Note_off_c, 2, 59, 0
6, 17700, Note_on_c, 2, 60, 88
6, 17758, Note_off_c, 2, 60, 0
6, 17760, Note_on_c, 2, 59, 88
6, 17818, Note_off_c, 2, 59, 0
6, 17820, Note_on_c, 2, 57, 88
6, 17878, Note_off_c, 2, 57, 0
6, 17880, Note_on_c, 2, 55, 88
6, 17938, Note_off_c, 2, 55, 0
6, 17940, Note_on_c, 2, 59, 88
6, 17998, Note_off_c, 2, 59, 0
6, 18000, Note_on_c, 2, 57, 88
6, 18058, Note_off_c, 2, 57, 0
6, 18060, Note_on_c, 2, 59, 88
6, 18118, Note_off_c, 2, 59, 0
6, 18120, Note_on_c, 2, 57, 88
6, 18178, Note_off_c, 2, 57, 0
6, 18180, Note_on_c, 2, 55, 88
6, 18238, Note_off_c, 2, 55, 0
6, 18240, Note_on_c, 2, 54, 88
6, 18298, Note_off_c, 2, 54, 0
6, 18300, Note_on_c, 2, 57, 88
6, 18358, Note_off_c, 2, 57, 0
6, 18360, Note_on_c, 2, 55, 88
6, 18418, Note_off_c, 2, 55, 0
6, 18420, Note_on_c, 2, 57, 88
6, 18478, Note_off_c, 2, 57, 0
6, 18480, Note_on_c, 2, 55, 88
6, 18538, Note_off_c, 2, 55, 0
6, 18540, Note_on_c, 2, 54, 88
6, 18598, Note_off_c, 2, 54, 0
6, 18600, Note_on_c, 2, 52, 88
6, 18658, Note_off_c, 2, 52, 0
6, 18660, Note_on_c, 2, 55, 88
6, 18718, Note_off_c, 2, 55, 0
6, 18720, Note_on_c, 2, 54, 88
6, 18778, Note_off_c, 2, 54, 0
6, 18780, Note_on_c, 2, 55, 88
6, 18838, Note_off_c, 2, 55, 0
6, 18840, Note_on_c, 2, 54, 88
6, 18898, Note_off_c, 2, 54, 0
6, 18900, Note_on_c, 2, 52, 88
6, 18958, Note_off_c, 2, 52, 0
6, 18960, Note_on_c, 2, 50, 88
6, 19018, Note_off_c, 2, 50, 0
6, 19020, Note_on_c, 2, 52, 88
6, 19078, Note_off_c, 2, 52, 0
6, 19080, Note_on_c, 2, 54, 88
6, 19138, Note_off_c, 2, 54, 0
6, 19140, Note_on_c, 2, 55, 88
6, 19198, Note_off_c, 2, 55, 0
6, 19200, Note_on_c, 2, 57, 88
6, 19258, Note_off_c, 2, 57, 0
6, 19260, Note_on_c, 2, 59, 88
6, 19318, Note_off_c, 2, 59, 0
6, 19320, Note_on_c, 2, 60, 88
6, 19378, Note_off_c, 2, 60, 0
6, 19380, Note_on_c, 2, 62, 88
6, 19438, Note_off_c, 2, 62, 0
6, 19440, Note_on_c, 2, 54, 88
6, 19556, Note_off_c, 2, 54, 0
6, 19560, Note_on_c, 2, 69, 88
6, 19676, Note_off_c, 2, 69, 0
6, 19680, Note_on_c, 2, 67, 88
6, 19905, Note_off_c, 2, 67, 0
6, 19920, Note_on_c, 2, 67, 88
6, 20036, Note_off_c, 2, 67, 0
6, 20040, Note_on_c, 2, 66, 88
6, 20156, Note_off_c, 2, 66, 0
6, 20160, Note_on_c, 2, 67, 88
6, 20276, Note_off_c, 2, 67, 0
6, 21840, Note_on_c, 2, 62, 88
6, 21956, Note_off_c, 2, 62, 0
6, 21960, Note_on_c, 2, 61, 88
6, 22076, Note_off_c, 2, 61, 0
6, 22560, Note_on_c, 2, 61, 88
6, 22676, Note_off_c, 2, 61, 0
6, 22680, Note_on_c, 2, 59, 88
6, 22796, Note_off_c, 2, 59, 0
6, 23280, Note_on_c, 2, 59, 88
6, 23396, Note_off_c, 2, 59, 0
6, 23400, Note_on_c, 2, 57, 88
6, 23516, Note_off_c, 2, 57, 0
6, 28080, Note_on_c, 2, 64, 88
6, 28138, Note_off_c, 2, 64, 0
6, 28140, Note_on_c, 2, 63, 88
6, 28198, Note_off_c, 2, 63, 0
6, 28200, Note_on_c, 2, 64, 88
6, 28258, Note_off_c, 2, 64, 0
6, 28260, Note_on_c, 2, 66, 88
6, 28318, Note_off_c, 2, 66, 0
6, 28320, Note_on_c, 2, 67, 88
6, 28378, Note_off_c, 2, 67, 0
6, 28380, Note_on_c, 2, 64, 88
6, 28438, Note_off_c, 2, 64, 0
6, 28440, Note_on_c, 2, 66, 88
6, 28498, Note_off_c, 2, 66, 0
6, 28500, Note_on_c, 2, 64, 88
6, 28558, Note_off_c, 2, 64, 0
6, 28560, Note_on_c, 2, 66, 88
6, 28618, Note_off_c, 2, 66, 0
6, 28620, Note_on_c, 2, 67, 88
6, 28678, Note_off_c, 2, 67, 0
6, 28680, Note_on_c, 2, 69, 88
6, 28738, Note_off_c, 2, 69, 0
6, 28740, Note_on_c, 2, 66, 88
6, 28798, Note_off_c, 2, 66, 0
6, 28800, Note_on_c, 2, 67, 88
6, 28916, Note_off_c, 2, 67, 0
6, 28920, Note_on_c, 2, 69, 88
6, 28978, Note_off_c, 2, 69, 0
6, 28980, Note_on_c, 2, 67, 88
6, 29038, Note_off_c, 2, 67, 0
6, 29040, Note_on_c, 2, 66, 88
6, 29098, Note_off_c, 2, 66, 0
6, 29100, Note_on_c, 2, 64, 88
6, 29158, Note_off_c, 2, 64, 0
6, 29160, Note_on_c, 2, 69, 88
6, 29578, Note_off_c, 2, 69, 0
6, 29580, Note_on_c, 2, 67, 88
6, 29638, Note_off_c, 2, 67, 0
6, 29640, Note_on_c, 2, 66, 88
6, 29698, Note_off_c, 2, 66, 0
6, 29700, Note_on_c, 2, 69, 88
6, 29758, Note_off_c, 2, 69, 0
6, 29760, Note_on_c, 2, 64, 88
6, 29818, Note_off_c, 2, 64, 0
6, 29820, Note_on_c, 2, 69, 88
6, 29878, Note_off_c, 2, 69, 0
6, 29880, Note_on_c, 2, 63, 88
6, 29938, Note_off_c, 2, 63, 0
6, 29940, Note_on_c, 2, 69, 88
6, 29998, Note_off_c, 2, 69, 0
6, 30000, Note_on_c, 2, 61, 88
6, 30058, Note_off_c, 2, 61, 0
6, 30060, Note_on_c, 2, 69, 88
6, 30118, Note_off_c, 2, 69, 0
6, 30120, Note_on_c, 2, 59, 88
6, 30178, Note_off_c, 2, 59, 0
6, 30180, Note_on_c, 2, 69, 88
6, 30238, Note_off_c, 2, 69, 0
6, 30240, Note_on_c, 2, 67, 88
6, 30356, Note_off_c, 2, 67, 0
6, 30360, Note_on_c, 2, 66, 88
6, 30418, Note_off_c, 2, 66, 0
6, 30420, Note_on_c, 2, 67, 88
6, 30478, Note_off_c, 2, 67, 0
6, 30480, Note_on_c, 2, 69, 88
6, 30538, Note_off_c, 2, 69, 0
6, 30540, Note_on_c, 2, 67, 88
6, 30598, Note_off_c, 2, 67, 0
6, 30600, Note_on_c, 2, 66, 88
6, 30716, Note_off_c, 2, 66, 0
6, 30720, Note_on_c, 2, 64, 88
6, 30778, Note_off_c, 2, 64, 0
6, 30780, Note_on_c, 2, 66, 88
6, 30838, Note_off_c, 2, 66, 0
6, 30840, Note_on_c, 2, 67, 88
6, 30898, Note_off_c, 2, 67, 0
6, 30900, Note_on_c, 2, 66, 88
6, 30958, Note_off_c, 2, 66, 0
6, 30960, Note_on_c, 2, 64, 88
6, 31076, Note_off_c, 2, 64, 0
6, 31080, Note_on_c, 2, 66, 88
6, 31196, Note_off_c, 2, 66, 0
6, 31200, Note_on_c, 2, 67, 88
6, 31316, Note_off_c, 2, 67, 0
6, 31320, Note_on_c, 2, 72, 88
6, 31436, Note_off_c, 2, 72, 0
6, 31440, Note_on_c, 2, 63, 88
6, 31674, Note_off_c, 2, 63, 0
6, 31680, Note_on_c, 2, 64, 88
6, 31796, Note_off_c, 2, 64, 0
6, 31800, Note_on_c, 2, 66, 88
6, 31916, Note_off_c, 2, 66, 0
6, 31920, Note_on_c, 2, 67, 88
6, 32036, Note_off_c, 2, 67, 0
6, 32040, Note_on_c, 2, 69, 88
6, 32156, Note_off_c, 2, 69, 0
6, 32160, Note_on_c, 2, 59, 88
6, 32394, Note_off_c, 2, 59, 0
6, 32400, Note_on_c, 2, 60, 88
6, 32458, Note_off_c, 2, 60, 0
6, 32460, Note_on_c, 2, 59, 88
6, 32518, Note_off_c, 2, 59, 0
6, 32520, Note_on_c, 2, 57, 88
6, 32578, Note_off_c, 2, 57, 0
6, 32580, Note_on_c, 2, 59, 88
6, 32638, Note_off_c, 2, 59, 0
6, 32640, Note_on_c, 2, 60, 88
6, 32698, Note_off_c, 2, 60, 0
6, 32700, Note_on_c, 2, 62, 88
6, 32758, Note_off_c, 2, 62, 0
6, 32760, Note_on_c, 2, 64, 88
6, 32818, Note_off_c, 2, 64, 0
6, 32820, Note_on_c, 2, 63, 88
6, 32878, Note_off_c, 2, 63, 0
6, 32880, Note_on_c, 2, 64, 88
6, 32938, Note_off_c, 2, 64, 0
6, 32940, Note_on_c, 2, 66, 88
6, 32998, Note_off_c, 2, 66, 0
6, 33000, Note_on_c, 2, 67, 88
6, 33058, Note_off_c, 2, 67, 0
6, 33060, Note_on_c, 2, 69, 88
6, 33118, Note_off_c, 2, 69, 0
6, 33120, Note_on_c, 2, 71, 88
6, 33590, Note_off_c, 2, 71, 0
6, 33600, Note_on_c, 2, 72, 88
6, 33716, Note_off_c, 2, 72, 0
6, 33720, Note_on_c, 2, 66, 88
6, 33836, Note_off_c, 2, 66, 0
6, 33840, Note_on_c, 2, 64, 88
6, 33898, Note_off_c, 2, 64, 0
6, 33900, Note_on_c, 2, 66, 88
6, 33958, Note_off_c, 2, 66, 0
6, 33960, Note_on_c, 2, 67, 88
6, 34254, Note_off_c, 2, 67, 0
6, 34260, Note_on_c, 2, 66, 88
6, 34318, Note_off_c, 2, 66, 0
6, 34320, Note_on_c, 2, 64, 88
6, 34378, Note_off_c, 2, 64, 0
6, 34380, Note_on_c, 2, 62, 88
6, 34438, Note_off_c, 2, 62, 0
6, 34440, Note_on_c, 2, 61, 88
6, 34498, Note_off_c, 2, 61, 0
6, 34500, Note_on_c, 2, 64, 88
6, 34558, Note_off_c, 2, 64, 0
6, 34560, Note_on_c, 2, 62, 88
6, 34618, Note_off_c, 2, 62, 0
6, 34620, Note_on_c, 2, 64, 88
6, 34678, Note_off_c, 2, 64, 0
6, 34680, Note_on_c, 2, 66, 88
6, 34974, Note_off_c, 2, 66, 0
6, 34980, Note_on_c, 2, 64, 88
6, 35038, Note_off_c, 2, 64, 0
6, 35040, Note_on_c, 2, 62, 88
6, 35098, Note_off_c, 2, 62, 0
6, 35100, Note_on_c, 2, 61, 88
6, 35158, Note_off_c, 2, 61, 0
6, 35160, Note_on_c, 2, 59, 88
6, 35218, Note_off_c, 2, 59, 0
6, 35220, Note_on_c, 2, 62, 88
6, 35278, Note_off_c, 2, 62, 0
6, 35280, Note_on_c, 2, 61, 88
6, 35338, Note_off_c, 2, 61, 0
6, 35340, Note_on_c, 2, 62, 88
6, 35398, Note_off_c, 2, 62, 0
6, 35400, Note_on_c, 2, 64, 88
6, 35694, Note_off_c, 2, 64, 0
6, 35700, Note_on_c, 2, 62, 88
6, 35758, Note_off_c, 2, 62, 0
6, 35760, Note_on_c, 2, 61, 88
6, 35818, Note_off_c, 2, 61, 0
6, 35820, Note_on_c, 2, 59, 88
6, 35878, Note_off_c, 2, 59, 0
6, 35880, Note_on_c, 2, 58, 88
6, 35938, Note_off_c, 2, 58, 0
6, 35940, Note_on_c, 2, 61, 88
6, 35998, Note_off_c, 2, 61, 0
6, 36000, Note_on_c, 2, 59, 88
6, 36116, Note_off_c, 2, 59, 0
6, 39600, Note_on_c, 2, 59, 88
6, 39658, Note_off_c, 2, 59, 0
6, 39660, Note_on_c, 2, 61, 88
6, 39718, Note_off_c, 2, 61, 0
6, 39720, Note_on_c, 2, 62, 88
6, 39778, Note_off_c, 2, 62, 0
6, 39780, Note_on_c, 2, 59, 88
6, 39838, Note_off_c, 2, 59, 0
6, 39840, Note_on_c, 2, 64, 88
6, 39898, Note_off_c, 2, 64, 0
6, 39900, Note_on_c, 2, 59, 88
6, 39958, Note_off_c, 2, 59, 0
6, 39960, Note_on_c, 2, 66, 88
6, 40018, Note_off_c, 2, 66, 0
6, 40020, Note_on_c, 2, 59, 88
6, 40078, Note_off_c, 2, 59, 0
6, 40080, Note_on_c, 2, 68, 88
6, 40138, Note_off_c, 2, 68, 0
6, 40140, Note_on_c, 2, 59, 88
6, 40198, Note_off_c, 2, 59, 0
6, 40200, Note_on_c, 2, 69, 88
6, 40258, Note_off_c, 2, 69, 0
6, 40260, Note_on_c, 2, 59, 88
6, 40318, Note_off_c, 2, 59, 0
6, 40320, Note_on_c, 2, 68, 88
6, 40436, Note_off_c, 2, 68, 0
6, 40440, Note_on_c, 2, 64, 88
6, 40556, Note_off_c, 2, 64, 0
6, 40560, Note_on_c, 2, 66, 88
6, 40676, Note_off_c, 2, 66, 0
6, 40680, Note_on_c, 2, 68, 88
6, 40796, Note_off_c, 2, 68, 0
6, 40800, Note_on_c, 2, 69, 88
6, 40916, Note_off_c, 2, 69, 0
6, 40920, Note_on_c, 2, 71, 88
6, 41036, Note_off_c, 2, 71, 0
6, 41040, Note_on_c, 2, 64, 88
6, 41215, Note_off_c, 2, 64, 0
6, 41220, Note_on_c, 2, 62, 88
6, 41278, Note_off_c, 2, 62, 0
6, 41280, Note_on_c, 2, 61, 88
6, 41338, Note_off_c, 2, 61, 0
6, 41340, Note_on_c, 2, 59, 88
6, 41398, Note_off_c, 2, 59, 0
6, 41400, Note_on_c, 2, 57, 88
6, 41458, Note_off_c, 2, 57, 0
6, 41460, Note_on_c, 2, 59, 88
6, 41518, Note_off_c, 2, 59, 0
6, 41520, Note_on_c, 2, 57, 88
6, 41578, Note_off_c, 2, 57, 0
6, 41580, Note_on_c, 2, 55, 88
6, 41638, Note_off_c, 2, 55, 0
6, 41640, Note_on_c, 2, 54, 88
6, 41698, Note_off_c, 2, 54, 0
6, 41700, Note_on_c, 2, 52, 88
6, 41758, Note_off_c, 2, 52, 0
6, 41760, Note_on_c, 2, 50, 88
6, 41876, Note_off_c, 2, 50, 0
6, 42840, Note_on_c, 2, 50, 88
6, 42956, Note_off_c, 2, 50, 0
6, 42960, Note_on_c, 2, 52, 88
6, 43018, Note_off_c, 2, 52, 0
6, 43020, Note_on_c, 2, 50, 88
6, 43078, Note_off_c, 2, 50, 0
6, 43080, Note_on_c, 2, 49, 88
6, 43138, Note_off_c, 2, 49, 0
6, 43140, Note_on_c, 2, 50, 88
6, 43198, Note_off_c, 2, 50, 0
6, 43200, Note_on_c, 2, 52, 88
6, 43316, Note_off_c, 2, 52, 0
6, 43320, Note_on_c, 2, 54, 88
6, 43378, Note_off_c, 2, 54, 0
6, 43380, Note_on_c, 2, 52, 88
6, 43438, Note_off_c, 2, 52, 0
6, 43440, Note_on_c, 2, 50, 88
6, 43498, Note_off_c, 2, 50, 0
6, 43500, Note_on_c, 2, 52, 88
6, 43558, Note_off_c, 2, 52, 0
6, 43560, Note_on_c, 2, 54, 88
6, 43676, Note_off_c, 2, 54, 0
6, 43680, Note_on_c, 2, 52, 88
6, 43796, Note_off_c, 2, 52, 0
6, 43800, Note_on_c, 2, 50, 88
6, 43916, Note_off_c, 2, 50, 0
6, 43920, Note_on_c, 2, 49, 88
6, 44036, Note_off_c, 2, 49, 0
6, 44040, Note_on_c, 2, 59, 88
6, 44274, Note_off_c, 2, 59, 0
6, 44280, Note_on_c, 2, 57, 88
6, 44396, Note_off_c, 2, 57, 0
6, 44400, Note_on_c, 2, 59, 88
6, 44458, Note_off_c, 2, 59, 0
6, 44460, Note_on_c, 2, 57, 88
6, 44518, Note_off_c, 2, 57, 0
6, 44520, Note_on_c, 2, 55, 88
6, 44578, Note_off_c, 2, 55, 0
6, 44580, Note_on_c, 2, 54, 88
6, 44638, Note_off_c, 2, 54, 0
6, 44640, Note_on_c, 2, 52, 88
6, 44756, Note_off_c, 2, 52, 0
6, 44760, Note_on_c, 2, 55, 88
6, 44818, Note_off_c, 2, 55, 0
6, 44820, Note_on_c, 2, 54, 88
6, 44878, Note_off_c, 2, 54, 0
6, 44880, Note_on_c, 2, 52, 88
6, 44938, Note_off_c, 2, 52, 0
6, 44940, Note_on_c, 2, 50, 88
6, 44998, Note_off_c, 2, 50, 0
6, 45000, Note_on_c, 2, 49, 88
6, 45234, Note_off_c, 2, 49, 0
6, 45240, Note_on_c, 2, 50, 88
6, 45418, Note_off_c, 2, 50, 0
6, 45420, Note_on_c, 2, 55, 88
6, 45449, Note_off_c, 2, 55, 0
6, 45450, Note_on_c, 2, 54, 88
6, 45479, Note_off_c, 2, 54, 0
6, 45480, Note_on_c, 2, 52, 88
6, 45538, Note_off_c, 2, 52, 0
6, 45540, Note_on_c, 2, 55, 88
6, 45598, Note_off_c, 2, 55, 0
6, 45600, Note_on_c, 2, 50, 88
6, 45658, Note_off_c, 2, 50, 0
6, 45660, Note_on_c, 2, 55, 88
6, 45718, Note_off_c, 2, 55, 0
6, 45720, Note_on_c, 2, 49, 88
6, 45778, Note_off_c, 2, 49, 0
6, 45780, Note_on_c, 2, 55, 88
6, 45838, Note_off_c, 2, 55, 0
6, 45840, Note_on_c, 2, 47, 88
6, 45898, Note_off_c, 2, 47, 0
6, 45900, Note_on_c, 2, 55, 88
6, 45958, Note_off_c, 2, 55, 0
6, 45960, Note_on_c, 2, 45, 88
6, 46018, Note_off_c, 2, 45, 0
6, 46020, Note_on_c, 2, 55, 88
6, 46078, Note_off_c, 2, 55, 0
6, 46080, Note_on_c, 2, 54, 88
6, 46138, Note_off_c, 2, 54, 0
6, 46140, Note_on_c, 2, 55, 88
6, 46198, Note_off_c, 2, 55, 0
6, 46200, Note_on_c, 2, 57, 88
6, 46494, Note_off_c, 2, 57, 0
6, 46500, Note_on_c, 2, 55, 88
6, 46558, Note_off_c, 2, 55, 0
6, 46560, Note_on_c, 2, 54, 88
6, 46618, Note_off_c, 2, 54, 0
6, 46620, Note_on_c, 2, 52, 88
6, 46678, Note_off_c, 2, 52, 0
6, 46680, Note_on_c, 2, 50, 88
6, 46738, Note_off_c, 2, 50, 0
6, 46740, Note_on_c, 2, 54, 88
6, 46798, Note_off_c, 2, 54, 0
6, 46800, Note_on_c, 2, 52, 88
6, 46858, Note_off_c, 2, 52, 0
6, 46860, Note_on_c, 2, 54, 88
6, 46918, Note_off_c, 2, 54, 0
6, 46920, Note_on_c, 2, 55, 88
6, 47214, Note_off_c, 2, 55, 0
6, 47220, Note_on_c, 2, 54, 88
6, 47278, Note_off_c, 2, 54, 0
6, 47280, Note_on_c, 2, 52, 88
6, 47338, Note_off_c, 2, 52, 0
6, 47340, Note_on_c, 2, 50, 88
6, 47398, Note_off_c, 2, 50, 0
6, 47400, Note_on_c, 2, 49, 88
6, 47458, Note_off_c, 2, 49, 0
6, 47460, Note_on_c, 2, 52, 88
6, 47518, Note_off_c, 2, 52, 0
6, 47520, Note_on_c, 2, 50, 88
6, 47578, Note_off_c, 2, 50, 0
6, 47580, Note_on_c, 2, 52, 88
6, 47638, Note_off_c, 2, 52, 0
6, 47640, Note_on_c, 2, 54, 88
6, 47934, Note_off_c, 2, 54, 0
6, 47940, Note_on_c, 2, 47, 88
6, 47998, Note_off_c, 2, 47, 0
6, 48000, Note_on_c, 2, 49, 88
6, 48058, Note_off_c, 2, 49, 0
6, 48060, Note_on_c, 2, 50, 88
6, 48118, Note_off_c, 2, 50, 0
6, 48120, Note_on_c, 2, 52, 88
6, 48178, Note_off_c, 2, 52, 0
6, 48180, Note_on_c, 2, 54, 88
6, 48238, Note_off_c, 2, 54, 0
6, 48240, Note_on_c, 2, 55, 88
6, 48298, Note_off_c, 2, 55, 0
6, 48300, Note_on_c, 2, 57, 88
6, 48358, Note_off_c, 2, 57, 0
6, 48360, Note_on_c, 2, 55, 88
6, 48418, Note_off_c, 2, 55, 0
6, 48420, Note_on_c, 2, 54, 88
6, 48478, Note_off_c, 2, 54, 0
6, 48480, Note_on_c, 2, 52, 88
6, 48538, Note_off_c, 2, 52, 0
6, 48540, Note_on_c, 2, 50, 88
6, 48598, Note_off_c, 2, 50, 0
6, 48600, Note_on_c, 2, 49, 88
6, 48716, Note_off_c, 2, 49, 0
6, 50100, Note_on_c, 2, 67, 88
6, 50158, Note_off_c, 2, 67, 0
6, 50160, Note_on_c, 2, 65, 88
6, 50218, Note_off_c, 2, 65, 0
6, 50220, Note_on_c, 2, 64, 88
6, 50278, Note_off_c, 2, 64, 0
6, 50280, Note_on_c, 2, 62, 88
6, 50338, Note_off_c, 2, 62, 0
6, 50340, Note_on_c, 2, 65, 88
6, 50398, Note_off_c, 2, 65, 0
6, 50400, Note_on_c, 2, 64, 88
6, 50458, Note_off_c, 2, 64, 0
6, 50460, Note_on_c, 2, 65, 88
6, 50518, Note_off_c, 2, 65, 0
6, 50520, Note_on_c, 2, 64, 88
6, 50578, Note_off_c, 2, 64, 0
6, 50580, Note_on_c, 2, 62, 88
6, 50638, Note_off_c, 2, 62, 0
6, 50640, Note_on_c, 2, 60, 88
6, 50698, Note_off_c, 2, 60, 0
6, 50700, Note_on_c, 2, 64, 88
6, 50758, Note_off_c, 2, 64, 0
6, 50760, Note_on_c, 2, 62, 88
6, 50818, Note_off_c, 2, 62, 0
6, 50820, Note_on_c, 2, 64, 88
6, 50878, Note_off_c, 2, 64, 0
6, 50880, Note_on_c, 2, 62, 88
6, 50938, Note_off_c, 2, 62, 0
6, 50940, Note_on_c, 2, 60, 88
6, 50998, Note_off_c, 2, 60, 0
6, 51000, Note_on_c, 2, 59, 88
6, 51058, Note_off_c, 2, 59, 0
6, 51060, Note_on_c, 2, 62, 88
6, 51118, Note_off_c, 2, 62, 0
6, 51120, Note_on_c, 2, 60, 88
6, 51178, Note_off_c, 2, 60, 0
6, 51180, Note_on_c, 2, 62, 88
6, 51238, Note_off_c, 2, 62, 0
6, 51240, Note_on_c, 2, 60, 88
6, 51298, Note_off_c, 2, 60, 0
6, 51300, Note_on_c, 2, 59, 88
6, 51358, Note_off_c, 2, 59, 0
6, 51360, Note_on_c, 2, 57, 88
6, 51418, Note_off_c, 2, 57, 0
6, 51420, Note_on_c, 2, 60, 88
6, 51478, Note_off_c, 2, 60, 0
6, 51480, Note_on_c, 2, 59, 88
6, 51833, Note_off_c, 2, 59, 0
6, 51840, Note_on_c, 2, 57, 88
6, 51956, Note_off_c, 2, 57, 0
6, 54720, Note_on_c, 2, 62, 88
6, 54836, Note_off_c, 2, 62, 0
6, 54840, Note_on_c, 2, 60, 88
6, 54898, Note_off_c, 2, 60, 0
6, 54900, Note_on_c, 2, 62, 88
6, 54958, Note_off_c, 2, 62, 0
6, 54960, Note_on_c, 2, 64, 88
6, 55018, Note_off_c, 2, 64, 0
6, 55020, Note_on_c, 2, 62, 88
6, 55078, Note_off_c, 2, 62, 0
6, 55080, Note_on_c, 2, 60, 88
6, 55196, Note_off_c, 2, 60, 0
6, 55200, Note_on_c, 2, 59, 88
6, 55258, Note_off_c, 2, 59, 0
6, 55260, Note_on_c, 2, 60, 88
6, 55318, Note_off_c, 2, 60, 0
6, 55320, Note_on_c, 2, 62, 88
6, 55378, Note_off_c, 2, 62, 0
6, 55380, Note_on_c, 2, 60, 88
6, 55438, Note_off_c, 2, 60, 0
6, 55440, Note_on_c, 2, 59, 88
6, 55556, Note_off_c, 2, 59, 0
6, 55560, Note_on_c, 2, 60, 88
6, 55676, Note_off_c, 2, 60, 0
6, 55680, Note_on_c, 2, 62, 88
6, 55796, Note_off_c, 2, 62, 0
6, 55800, Note_on_c, 2, 64, 88
6, 55916, Note_off_c, 2, 64, 0
6, 55920, Note_on_c, 2, 54, 88
6, 56154, Note_off_c, 2, 54, 0
6, 56160, Note_on_c, 2, 55, 88
6, 56276, Note_off_c, 2, 55, 0
6, 56280, Note_on_c, 2, 69, 88
6, 56338, Note_off_c, 2, 69, 0
6, 56340, Note_on_c, 2, 67, 88
6, 56398, Note_off_c, 2, 67, 0
6, 56400, Note_on_c, 2, 66, 88
6, 56458, Note_off_c, 2, 66, 0
6, 56460, Note_on_c, 2, 67, 88
6, 56518, Note_off_c, 2, 67, 0
6, 56520, Note_on_c, 2, 69, 88
6, 56636, Note_off_c, 2, 69, 0
6, 56640, Note_on_c, 2, 71, 88
6, 56698, Note_off_c, 2, 71, 0
6, 56700, Note_on_c, 2, 69, 88
6, 56758, Note_off_c, 2, 69, 0
6, 56760, Note_on_c, 2, 67, 88
6, 56818, Note_off_c, 2, 67, 0
6, 56820, Note_on_c, 2, 69, 88
6, 56878, Note_off_c, 2, 69, 0
6, 56880, Note_on_c, 2, 71, 88
6, 56996, Note_off_c, 2, 71, 0
6, 57000, Note_on_c, 2, 69, 88
6, 57116, Note_off_c, 2, 69, 0
6, 57120, Note_on_c, 2, 67, 88
6, 57354, Note_off_c, 2, 67, 0
6, 57360, Note_on_c, 2, 74, 88
6, 57476, Note_off_c, 2, 74, 0
6, 57480, Note_on_c, 2, 73, 88
6, 57596, Note_off_c, 2, 73, 0
6, 57600, Note_on_c, 2, 74, 88
6, 57716, Note_off_c, 2, 74, 0
6, 57720, Note_on_c, 2, 67, 88
6, 57836, Note_off_c, 2, 67, 0
6, 57840, Note_on_c, 2, 66, 88
6, 57956, Note_off_c, 2, 66, 0
6, 57960, Note_on_c, 2, 64, 88
6, 58076, Note_off_c, 2, 64, 0
6, 58080, Note_on_c, 2, 73, 88
6, 58314, Note_off_c, 2, 73, 0
6, 58320, Note_on_c, 2, 72, 88
6, 58614, Note_off_c, 2, 72, 0
6, 58620, Note_on_c, 2, 71, 88
6, 58649, Note_off_c, 2, 71, 0
6, 58650, Note_on_c, 2, 69, 88
6, 58679, Note_off_c, 2, 69, 0
6, 58680, Note_on_c, 2, 71, 88
6, 58796, Note_off_c, 2, 71, 0
6, 58800, Note_on_c, 2, 69, 88
6, 59034, Note_off_c, 2, 69, 0
6, 59040, Note_on_c, 2, 71, 88
6, 59145, Note_off_c, 2, 71, 0
6, 59160, Note_on_c, 2, 71, 88
6, 59276, Note_off_c, 2, 71, 0
6, 59280, Note_on_c, 2, 69, 88
6, 59396, Note_off_c, 2, 69, 0
6, 59400, Note_on_c, 2, 67, 88
6, 59634, Note_off_c, 2, 67, 0
6, 59640, Note_on_c, 2, 66, 88
6, 59756, Note_off_c, 2, 66, 0
6, 59760, Note_on_c, 2, 67, 88
6, 59865, Note_off_c, 2, 67, 0
6, 59880, Note_on_c, 2, 67, 88
6, 59996, Note_off_c, 2, 67, 0
6, 60000, Note_on_c, 2, 65, 88
6, 60116, Note_off_c, 2, 65, 0
6, 60120, Note_on_c, 2, 64, 88
6, 60354, Note_off_c, 2, 64, 0
6, 60360, Note_on_c, 2, 63, 88
6, 60476, Note_off_c, 2, 63, 0
6, 60480, Note_on_c, 2, 62, 88
6, 60596, Note_off_c, 2, 62, 0
6, 60600, Note_on_c, 2, 64, 88
6, 60716, Note_off_c, 2, 64, 0
6, 60720, Note_on_c, 2, 65, 88
6, 60836, Note_off_c, 2, 65, 0
6, 60840, Note_on_c, 2, 67, 88
6, 60945, Note_off_c, 2, 67, 0
6, 60960, Note_on_c, 2, 67, 88
6, 61076, Note_off_c, 2, 67, 0
6, 61080, Note_on_c, 2, 69, 88
6, 61196, Note_off_c, 2, 69, 0
6, 61200, Note_on_c, 2, 71, 88
6, 61434, Note_off_c, 2, 71, 0
6, 61440, Note_on_c, 2, 69, 88
6, 61556, Note_off_c, 2, 69, 0
6, 61560, Note_on_c, 2, 71, 88
6, 61913, Note_off_c, 2, 71, 0
6, 61913, End_track
7, 0, Start_track
7, 0, Title_t, "Track 4"
7, 0, Program_c, 3, 6
7, 59700, Note_on_c, 3, 43, 88
7, 59865, Note_off_c, 3, 43, 0
7, 59880, Note_on_c, 3, 43, 88
7, 61908, Note_off_c, 3, 43, 0
7, 61908, End_track
8, 0, Start_track
8, 0, Title_t, "Track 5"
8, 0, Program_c, 4, 6
8, 7200, Note_on_c, 4, 55, 88
8, 7316, Note_off_c, 4, 55, 0
8, 7320, Note_on_c, 4, 57, 88
8, 7378, Note_off_c, 4, 57, 0
8, 7380, Note_on_c, 4, 55, 88
8, 7438, Note_off_c, 4, 55, 0
8, 7440, Note_on_c, 4, 54, 88
8, 7498, Note_off_c, 4, 54, 0
8, 7500, Note_on_c, 4, 55, 88
8, 7558, Note_off_c, 4, 55, 0
8, 7560, Note_on_c, 4, 57, 88
8, 7676, Note_off_c, 4, 57, 0
8, 7680, Note_on_c, 4, 59, 88
8, 7738, Note_off_c, 4, 59, 0
8, 7740, Note_on_c, 4, 57, 88
8, 7798, Note_off_c, 4, 57, 0
8, 7800, Note_on_c, 4, 55, 88
8, 7858, Note_off_c, 4, 55, 0
8, 7860, Note_on_c, 4, 57, 88
8, 7918, Note_off_c, 4, 57, 0
8, 7920, Note_on_c, 4, 59, 88
8, 8036, Note_off_c, 4, 59, 0
8, 8040, Note_on_c, 4, 57, 88
8, 8156, Note_off_c, 4, 57, 0
8, 8160, Note_on_c, 4, 55, 88
8, 8276, Note_off_c, 4, 55, 0
8, 8280, Note_on_c, 4, 50, 88
8, 8396, Note_off_c, 4, 50, 0
8, 8400, Note_on_c, 4, 60, 88
8, 8634, Note_off_c, 4, 60, 0
8, 8640, Note_on_c, 4, 59, 88
8, 8756, Note_off_c, 4, 59, 0
8, 8760, Note_on_c, 4, 57, 88
8, 8876, Note_off_c, 4, 57, 0
8, 8880, Note_on_c, 4, 55, 88
8, 8996, Note_off_c, 4, 55, 0
8, 9000, Note_on_c, 4, 54, 88
8, 9116, Note_off_c, 4, 54, 0
8, 9120, Note_on_c, 4, 64, 88
8, 9354, Note_off_c, 4, 64, 0
8, 9360, Note_on_c, 4, 62, 88
8, 9476, Note_off_c, 4, 62, 0
8, 9480, Note_on_c, 4, 64, 88
8, 9538, Note_off_c, 4, 64, 0
8, 9540, Note_on_c, 4, 62, 88
8, 9598, Note_off_c, 4, 62, 0
8, 9600, Note_on_c, 4, 60, 88
8, 9658, Note_off_c, 4, 60, 0
8, 9660, Note_on_c, 4, 59, 88
8, 9718, Note_off_c, 4, 59, 0
8, 9720, Note_on_c, 4, 57, 88
8, 9836, Note_off_c, 4, 57, 0
8, 9840, Note_on_c, 4, 60, 88
8, 9898, Note_off_c, 4, 60, 0
8, 9900, Note_on_c, 4, 59, 88
8, 9958, Note_off_c, 4, 59, 0
8, 9960, Note_on_c, 4, 57, 88
8, 10018, Note_off_c, 4, 57, 0
8, 10020, Note_on_c, 4, 55, 88
8, 10078, Note_off_c, 4, 55, 0
8, 10080, Note_on_c, 4, 54, 88
8, 10314, Note_off_c, 4, 54, 0
8, 10320, Note_on_c, 4, 52, 88
8, 10436, Note_off_c, 4, 52, 0
8, 10440, Note_on_c, 4, 50, 88
8, 10498, Note_off_c, 4, 50, 0
8, 10500, Note_on_c, 4, 52, 88
8, 10558, Note_off_c, 4, 52, 0
8, 10560, Note_on_c, 4, 50, 88
8, 10618, Note_off_c, 4, 50, 0
8, 10620, Note_on_c, 4, 48, 88
8, 10678, Note_off_c, 4, 48, 0
8, 10680, Note_on_c, 4, 47, 88
8, 10738, Note_off_c, 4, 47, 0
8, 10740, Note_on_c, 4, 45, 88
8, 10798, Note_off_c, 4, 45, 0
8, 10800, Note_on_c, 4, 43, 88
8, 10858, Note_off_c, 4, 43, 0
8, 10860, Note_on_c, 4, 45, 88
8, 10918, Note_off_c, 4, 45, 0
8, 10920, Note_on_c, 4, 47, 88
8, 10978, Note_off_c, 4, 47, 0
8, 10980, Note_on_c, 4, 43, 88
8, 11038, Note_off_c, 4, 43, 0
8, 11040, Note_on_c, 4, 48, 88
8, 11098, Note_off_c, 4, 48, 0
8, 11100, Note_on_c, 4, 43, 88
8, 11158, Note_off_c, 4, 43, 0
8, 11160, Note_on_c, 4, 50, 88
8, 11218, Note_off_c, 4, 50, 0
8, 11220, Note_on_c, 4, 43, 88
8, 11278, Note_off_c, 4, 43, 0
8, 11280, Note_on_c, 4, 52, 88
8, 11338, Note_off_c, 4, 52, 0
8, 11340, Note_on_c, 4, 43, 88
8, 11398, Note_off_c, 4, 43, 0
8, 11400, Note_on_c, 4, 53, 88
8, 11458, Note_off_c, 4, 53, 0
8, 11460, Note_on_c, 4, 43, 88
8, 11518, Note_off_c, 4, 43, 0
8, 11520, Note_on_c, 4, 52, 88
8, 11578, Note_off_c, 4, 52, 0
8, 11580, Note_on_c, 4, 50, 88
8, 11638, Note_off_c, 4, 50, 0
8, 11640, Note_on_c, 4, 48, 88
8, 11698, Note_off_c, 4, 48, 0
8, 11700, Note_on_c, 4, 52, 88
8, 11758, Note_off_c, 4, 52, 0
8, 11760, Note_on_c, 4, 47, 88
8, 11818, Note_off_c, 4, 47, 0
8, 11820, Note_on_c, 4, 52, 88
8, 11878, Note_off_c, 4, 52, 0
8, 11880, Note_on_c, 4, 45, 88
8, 11938, Note_off_c, 4, 45, 0
8, 11940, Note_on_c, 4, 52, 88
8, 11998, Note_off_c, 4, 52, 0
8, 12000, Note_on_c, 4, 43, 88
8, 12058, Note_off_c, 4, 43, 0
8, 12060, Note_on_c, 4, 52, 88
8, 12118, Note_off_c, 4, 52, 0
8, 12120, Note_on_c, 4, 42, 88
8, 12178, Note_off_c, 4, 42, 0
8, 12180, Note_on_c, 4, 52, 88
8, 12238, Note_off_c, 4, 52, 0
8, 12240, Note_on_c, 4, 50, 88
8, 12298, Note_off_c, 4, 50, 0
8, 12300, Note_on_c, 4, 48, 88
8, 12358, Note_off_c, 4, 48, 0
8, 12360, Note_on_c, 4, 47, 88
8, 12418, Note_off_c, 4, 47, 0
8, 12420, Note_on_c, 4, 50, 88
8, 12478, Note_off_c, 4, 50, 0
8, 12480, Note_on_c, 4, 45, 88
8, 12538, Note_off_c, 4, 45, 0
8, 12540, Note_on_c, 4, 50, 88
8, 12598, Note_off_c, 4, 50, 0
8, 12600, Note_on_c, 4, 43, 88
8, 12658, Note_off_c, 4, 43, 0
8, 12660, Note_on_c, 4, 50, 88
8, 12718, Note_off_c, 4, 50, 0
8, 12720, Note_on_c, 4, 42, 88
8, 12778, Note_off_c, 4, 42, 0
8, 12780, Note_on_c, 4, 50, 88
8, 12838, Note_off_c, 4, 50, 0
8, 12840, Note_on_c, 4, 40, 88
8, 12898, Note_off_c, 4, 40, 0
8, 12900, Note_on_c, 4, 50, 88
8, 12958, Note_off_c, 4, 50, 0
8, 12960, Note_on_c, 4, 48, 88
8, 13018, Note_off_c, 4, 48, 0
8, 13020, Note_on_c, 4, 47, 88
8, 13078, Note_off_c, 4, 47, 0
8, 13080, Note_on_c, 4, 45, 88
8, 13138, Note_off_c, 4, 45, 0
8, 13140, Note_on_c, 4, 48, 88
8, 13198, Note_off_c, 4, 48, 0
8, 13200, Note_on_c, 4, 43, 88
8, 13258, Note_off_c, 4, 43, 0
8, 13260, Note_on_c, 4, 48, 88
8, 13318, Note_off_c, 4, 48, 0
8, 13320, Note_on_c, 4, 42, 88
8, 13378, Note_off_c, 4, 42, 0
8, 13380, Note_on_c, 4, 48, 88
8, 13438, Note_off_c, 4, 48, 0
8, 13440, Note_on_c, 4, 40, 88
8, 13498, Note_off_c, 4, 40, 0
8, 13500, Note_on_c, 4, 48, 88
8, 13558, Note_off_c, 4, 48, 0
8, 13560, Note_on_c, 4, 38, 88
8, 13618, Note_off_c, 4, 38, 0
8, 13620, Note_on_c, 4, 48, 88
8, 13678, Note_off_c, 4, 48, 0
8, 13680, Note_on_c, 4, 47, 88
8, 13796, Note_off_c, 4, 47, 0
8, 13800, Note_on_c, 4, 45, 88
8, 13916, Note_off_c, 4, 45, 0
8, 13920, Note_on_c, 4, 43, 88
8, 14036, Note_off_c, 4, 43, 0
8, 14040, Note_on_c, 4, 45, 88
8, 14156, Note_off_c, 4, 45, 0
8, 14160, Note_on_c, 4, 43, 88
8, 14276, Note_off_c, 4, 43, 0
8, 14280, Note_on_c, 4, 42, 88
8, 14396, Note_off_c, 4, 42, 0
8, 14400, Note_on_c, 4, 43, 88
8, 14458, Note_off_c, 4, 43, 0
8, 14460, Note_on_c, 4, 55, 88
8, 14518, Note_off_c, 4, 55, 0
8, 14520, Note_on_c, 4, 53, 88
8, 14578, Note_off_c, 4, 53, 0
8, 14580, Note_on_c, 4, 52, 88
8, 14638, Note_off_c, 4, 52, 0
8, 14640, Note_on_c, 4, 50, 88
8, 14698, Note_off_c, 4, 50, 0
8, 14700, Note_on_c, 4, 53, 88
8, 14758, Note_off_c, 4, 53, 0
8, 14760, Note_on_c, 4, 52, 88
8, 14818, Note_off_c, 4, 52, 0
8, 14820, Note_on_c, 4, 53, 88
8, 14878, Note_off_c, 4, 53, 0
8, 14880, Note_on_c, 4, 52, 88
8, 14938, Note_off_c, 4, 52, 0
8, 14940, Note_on_c, 4, 50, 88
8, 14998, Note_off_c, 4, 50, 0
8, 15000, Note_on_c, 4, 48, 88
8, 15058, Note_off_c, 4, 48, 0
8, 15060, Note_on_c, 4, 52, 88
8, 15118, Note_off_c, 4, 52, 0
8, 15120, Note_on_c, 4, 50, 88
8, 15178, Note_off_c, 4, 50, 0
8, 15180, Note_on_c, 4, 52, 88
8, 15238, Note_off_c, 4, 52, 0
8, 15240, Note_on_c, 4, 50, 88
8, 15298, Note_off_c, 4, 50, 0
8, 15300, Note_on_c, 4, 48, 88
8, 15358, Note_off_c, 4, 48, 0
8, 15360, Note_on_c, 4, 47, 88
8, 15418, Note_off_c, 4, 47, 0
8, 15420, Note_on_c, 4, 50, 88
8, 15478, Note_off_c, 4, 50, 0
8, 15480, Note_on_c, 4, 48, 88
8, 15538, Note_off_c, 4, 48, 0
8, 15540, Note_on_c, 4, 50, 88
8, 15598, Note_off_c, 4, 50, 0
8, 15600, Note_on_c, 4, 48, 88
8, 15658, Note_off_c, 4, 48, 0
8, 15660, Note_on_c, 4, 47, 88
8, 15718, Note_off_c, 4, 47, 0
8, 15720, Note_on_c, 4, 45, 88
8, 15778, Note_off_c, 4, 45, 0
8, 15780, Note_on_c, 4, 48, 88
8, 15838, Note_off_c, 4, 48, 0
8, 15840, Note_on_c, 4, 47, 88
8, 15898, Note_off_c, 4, 47, 0
8, 15900, Note_on_c, 4, 48, 88
8, 15958, Note_off_c, 4, 48, 0
8, 15960, Note_on_c, 4, 47, 88
8, 16018, Note_off_c, 4, 47, 0
8, 16020, Note_on_c, 4, 45, 88
8, 16078, Note_off_c, 4, 45, 0
8, 16080, Note_on_c, 4, 43, 88
8, 16138, Note_off_c, 4, 43, 0
8, 16140, Note_on_c, 4, 45, 88
8, 16198, Note_off_c, 4, 45, 0
8, 16200, Note_on_c, 4, 47, 88
8, 16258, Note_off_c, 4, 47, 0
8, 16260, Note_on_c, 4, 49, 88
8, 16318, Note_off_c, 4, 49, 0
8, 16320, Note_on_c, 4, 50, 88
8, 16378, Note_off_c, 4, 50, 0
8, 16380, Note_on_c, 4, 52, 88
8, 16438, Note_off_c, 4, 52, 0
8, 16440, Note_on_c, 4, 54, 88
8, 16498, Note_off_c, 4, 54, 0
8, 16500, Note_on_c, 4, 55, 88
8, 16558, Note_off_c, 4, 55, 0
8, 16560, Note_on_c, 4, 54, 88
8, 16676, Note_off_c, 4, 54, 0
8, 16680, Note_on_c, 4, 59, 88
8, 16796, Note_off_c, 4, 59, 0
8, 16800, Note_on_c, 4, 47, 88
8, 16916, Note_off_c, 4, 47, 0
8, 16920, Note_on_c, 4, 52, 88
8, 17036, Note_off_c, 4, 52, 0
8, 17040, Note_on_c, 4, 57, 88
8, 17156, Note_off_c, 4, 57, 0
8, 17160, Note_on_c, 4, 45, 88
8, 17276, Note_off_c, 4, 45, 0
8, 17280, Note_on_c, 4, 50, 88
8, 17396, Note_off_c, 4, 50, 0
8, 17400, Note_on_c, 4, 52, 88
8, 17516, Note_off_c, 4, 52, 0
8, 17520, Note_on_c, 4, 54, 88
8, 17754, Note_off_c, 4, 54, 0
8, 17760, Note_on_c, 4, 55, 88
8, 17876, Note_off_c, 4, 55, 0
8, 17880, Note_on_c, 4, 49, 88
8, 17996, Note_off_c, 4, 49, 0
8, 18000, Note_on_c, 4, 50, 88
8, 18116, Note_off_c, 4, 50, 0
8, 19440, Note_on_c, 4, 50, 88
8, 19556, Note_off_c, 4, 50, 0
8, 19560, Note_on_c, 4, 48, 88
8, 19618, Note_off_c, 4, 48, 0
8, 19620, Note_on_c, 4, 50, 88
8, 19678, Note_off_c, 4, 50, 0
8, 19680, Note_on_c, 4, 52, 88
8, 19738, Note_off_c, 4, 52, 0
8, 19740, Note_on_c, 4, 50, 88
8, 19798, Note_off_c, 4, 50, 0
8, 19800, Note_on_c, 4, 48, 88
8, 19916, Note_off_c, 4, 48, 0
8, 19920, Note_on_c, 4, 47, 88
8, 19978, Note_off_c, 4, 47, 0
8, 19980, Note_on_c, 4, 48, 88
8, 20038, Note_off_c, 4, 48, 0
8, 20040, Note_on_c, 4, 50, 88
8, 20098, Note_off_c, 4, 50, 0
8, 20100, Note_on_c, 4, 48, 88
8, 20158, Note_off_c, 4, 48, 0
8, 20160, Note_on_c, 4, 47, 88
8, 20276, Note_off_c, 4, 47, 0
8, 20280, Note_on_c, 4, 48, 88
8, 20396, Note_off_c, 4, 48, 0
8, 20400, Note_on_c, 4, 50, 88
8, 20516, Note_off_c, 4, 50, 0
8, 20520, Note_on_c, 4, 55, 88
8, 20636, Note_off_c, 4, 55, 0
8, 20640, Note_on_c, 4, 45, 88
8, 20874, Note_off_c, 4, 45, 0
8, 20880, Note_on_c, 4, 47, 88
8, 20996, Note_off_c, 4, 47, 0
8, 21000, Note_on_c, 4, 48, 88
8, 21116, Note_off_c, 4, 48, 0
8, 21120, Note_on_c, 4, 50, 88
8, 21236, Note_off_c, 4, 50, 0
8, 21240, Note_on_c, 4, 52, 88
8, 21356, Note_off_c, 4, 52, 0
8, 21360, Note_on_c, 4, 42, 88
8, 21594, Note_off_c, 4, 42, 0
8, 21600, Note_on_c, 4, 43, 88
8, 21658, Note_off_c, 4, 43, 0
8, 21660, Note_on_c, 4, 45, 88
8, 21718, Note_off_c, 4, 45, 0
8, 21720, Note_on_c, 4, 47, 88
8, 22014, Note_off_c, 4, 47, 0
8, 22020, Note_on_c, 4, 45, 88
8, 22078, Note_off_c, 4, 45, 0
8, 22080, Note_on_c, 4, 43, 88
8, 22138, Note_off_c, 4, 43, 0
8, 22140, Note_on_c, 4, 42, 88
8, 22198, Note_off_c, 4, 42, 0
8, 22200, Note_on_c, 4, 40, 88
8, 22258, Note_off_c, 4, 40, 0
8, 22260, Note_on_c, 4, 43, 88
8, 22318, Note_off_c, 4, 43, 0
8, 22320, Note_on_c, 4, 42, 88
8, 22378, Note_off_c, 4, 42, 0
8, 22380, Note_on_c, 4, 43, 88
8, 22438, Note_off_c, 4, 43, 0
8, 22440, Note_on_c, 4, 45, 88
8, 22734, Note_off_c, 4, 45, 0
8, 22740, Note_on_c, 4, 43, 88
8, 22798, Note_off_c, 4, 43, 0
8, 22800, Note_on_c, 4, 42, 88
8, 22858, Note_off_c, 4, 42, 0
8, 22860, Note_on_c, 4, 40, 88
8, 22918, Note_off_c, 4, 40, 0
8, 22920, Note_on_c, 4, 38, 88
8, 22978, Note_off_c, 4, 38, 0
8, 22980, Note_on_c, 4, 42, 88
8, 23038, Note_off_c, 4, 42, 0
8, 23040, Note_on_c, 4, 40, 88
8, 23098, Note_off_c, 4, 40, 0
8, 23100, Note_on_c, 4, 42, 88
8, 23158, Note_off_c, 4, 42, 0
8, 23160, Note_on_c, 4, 43, 88
8, 23454, Note_off_c, 4, 43, 0
8, 23460, Note_on_c, 4, 42, 88
8, 23518, Note_off_c, 4, 42, 0
8, 23520, Note_on_c, 4, 40, 88
8, 23578, Note_off_c, 4, 40, 0
8, 23580, Note_on_c, 4, 38, 88
8, 23638, Note_off_c, 4, 38, 0
8, 23640, Note_on_c, 4, 37, 88
8, 23698, Note_off_c, 4, 37, 0
8, 23700, Note_on_c, 4, 40, 88
8, 23758, Note_off_c, 4, 40, 0
8, 23760, Note_on_c, 4, 38, 88
8, 23818, Note_off_c, 4, 38, 0
8, 23820, Note_on_c, 4, 40, 88
8, 23878, Note_off_c, 4, 40, 0
8, 23880, Note_on_c, 4, 42, 88
8, 23938, Note_off_c, 4, 42, 0
8, 23940, Note_on_c, 4, 38, 88
8, 23998, Note_off_c, 4, 38, 0
8, 24000, Note_on_c, 4, 43, 88
8, 24058, Note_off_c, 4, 43, 0
8, 24060, Note_on_c, 4, 38, 88
8, 24118, Note_off_c, 4, 38, 0
8, 24120, Note_on_c, 4, 45, 88
8, 24178, Note_off_c, 4, 45, 0
8, 24180, Note_on_c, 4, 38, 88
8, 24238, Note_off_c, 4, 38, 0
8, 24240, Note_on_c, 4, 47, 88
8, 24298, Note_off_c, 4, 47, 0
8, 24300, Note_on_c, 4, 38, 88
8, 24358, Note_off_c, 4, 38, 0
8, 24360, Note_on_c, 4, 48, 88
8, 24418, Note_off_c, 4, 48, 0
8, 24420, Note_on_c, 4, 38, 88
8, 24478, Note_off_c, 4, 38, 0
8, 24480, Note_on_c, 4, 47, 88
8, 24538, Note_off_c, 4, 47, 0
8, 24540, Note_on_c, 4, 55, 88
8, 24598, Note_off_c, 4, 55, 0
8, 24600, Note_on_c, 4, 53, 88
8, 24658, Note_off_c, 4, 53, 0
8, 24660, Note_on_c, 4, 52, 88
8, 24718, Note_off_c, 4, 52, 0
8, 24720, Note_on_c, 4, 50, 88
8, 24778, Note_off_c, 4, 50, 0
8, 24780, Note_on_c, 4, 48, 88
8, 24838, Note_off_c, 4, 48, 0
8, 24840, Note_on_c, 4, 47, 88
8, 24898, Note_off_c, 4, 47, 0
8, 24900, Note_on_c, 4, 45, 88
8, 24958, Note_off_c, 4, 45, 0
8, 24960, Note_on_c, 4, 43, 88
8, 25018, Note_off_c, 4, 43, 0
8, 25020, Note_on_c, 4, 41, 88
8, 25078, Note_off_c, 4, 41, 0
8, 25080, Note_on_c, 4, 40, 88
8, 25138, Note_off_c, 4, 40, 0
8, 25140, Note_on_c, 4, 38, 88
8, 25198, Note_off_c, 4, 38, 0
8, 25200, Note_on_c, 4, 36, 88
8, 25258, Note_off_c, 4, 36, 0
8, 25260, Note_on_c, 4, 38, 88
8, 25318, Note_off_c, 4, 38, 0
8, 25320, Note_on_c, 4, 40, 88
8, 25378, Note_off_c, 4, 40, 0
8, 25380, Note_on_c, 4, 42, 88
8, 25438, Note_off_c, 4, 42, 0
8, 25440, Note_on_c, 4, 44, 88
8, 25498, Note_off_c, 4, 44, 0
8, 25500, Note_on_c, 4, 45, 88
8, 25558, Note_off_c, 4, 45, 0
8, 25560, Note_on_c, 4, 47, 88
8, 25618, Note_off_c, 4, 47, 0
8, 25620, Note_on_c, 4, 48, 88
8, 25678, Note_off_c, 4, 48, 0
8, 25680, Note_on_c, 4, 50, 88
8, 25738, Note_off_c, 4, 50, 0
8, 25740, Note_on_c, 4, 52, 88
8, 25798, Note_off_c, 4, 52, 0
8, 25800, Note_on_c, 4, 54, 88
8, 25858, Note_off_c, 4, 54, 0
8, 25860, Note_on_c, 4, 56, 88
8, 25918, Note_off_c, 4, 56, 0
8, 25920, Note_on_c, 4, 57, 88
8, 25978, Note_off_c, 4, 57, 0
8, 25980, Note_on_c, 4, 55, 88
8, 26038, Note_off_c, 4, 55, 0
8, 26040, Note_on_c, 4, 54, 88
8, 26098, Note_off_c, 4, 54, 0
8, 26100, Note_on_c, 4, 57, 88
8, 26158, Note_off_c, 4, 57, 0
8, 26160, Note_on_c, 4, 52, 88
8, 26218, Note_off_c, 4, 52, 0
8, 26220, Note_on_c, 4, 57, 88
8, 26278, Note_off_c, 4, 57, 0
8, 26280, Note_on_c, 4, 51, 88
8, 26338, Note_off_c, 4, 51, 0
8, 26340, Note_on_c, 4, 57, 88
8, 26398, Note_off_c, 4, 57, 0
8, 26400, Note_on_c, 4, 49, 88
8, 26458, Note_off_c, 4, 49, 0
8, 26460, Note_on_c, 4, 57, 88
8, 26518, Note_off_c, 4, 57, 0
8, 26520, Note_on_c, 4, 47, 88
8, 26578, Note_off_c, 4, 47, 0
8, 26580, Note_on_c, 4, 57, 88
8, 26638, Note_off_c, 4, 57, 0
8, 26640, Note_on_c, 4, 55, 88
8, 26756, Note_off_c, 4, 55, 0
8, 26760, Note_on_c, 4, 60, 88
8, 26876, Note_off_c, 4, 60, 0
8, 26880, Note_on_c, 4, 59, 88
8, 26996, Note_off_c, 4, 59, 0
8, 27000, Note_on_c, 4, 57, 88
8, 27116, Note_off_c, 4, 57, 0
8, 27120, Note_on_c, 4, 59, 88
8, 27236, Note_off_c, 4, 59, 0
8, 27240, Note_on_c, 4, 47, 88
8, 27356, Note_off_c, 4, 47, 0
8, 27360, Note_on_c, 4, 52, 88
8, 27418, Note_off_c, 4, 52, 0
8, 27420, Note_on_c, 4, 54, 88
8, 27478, Note_off_c, 4, 54, 0
8, 27480, Note_on_c, 4, 55, 88
8, 27538, Note_off_c, 4, 55, 0
8, 27540, Note_on_c, 4, 52, 88
8, 27598, Note_off_c, 4, 52, 0
8, 27600, Note_on_c, 4, 57, 88
8, 27658, Note_off_c, 4, 57, 0
8, 27660, Note_on_c, 4, 52, 88
8, 27718, Note_off_c, 4, 52, 0
8, 27720, Note_on_c, 4, 59, 88
8, 27778, Note_off_c, 4, 59, 0
8, 27780, Note_on_c, 4, 52, 88
8, 27838, Note_off_c, 4, 52, 0
8, 27840, Note_on_c, 4, 61, 88
8, 27898, Note_off_c, 4, 61, 0
8, 27900, Note_on_c, 4, 52, 88
8, 27958, Note_off_c, 4, 52, 0
8, 27960, Note_on_c, 4, 63, 88
8, 28018, Note_off_c, 4, 63, 0
8, 28020, Note_on_c, 4, 52, 88
8, 28078, Note_off_c, 4, 52, 0
8, 28080, Note_on_c, 4, 64, 88
8, 28196, Note_off_c, 4, 64, 0
8, 33180, Note_on_c, 4, 47, 88
8, 33209, Note_off_c, 4, 47, 0
8, 33210, Note_on_c, 4, 49, 88
8, 33239, Note_off_c, 4, 49, 0
8, 33240, Note_on_c, 4, 51, 88
8, 33298, Note_off_c, 4, 51, 0
8, 33300, Note_on_c, 4, 47, 88
8, 33358, Note_off_c, 4, 47, 0
8, 33360, Note_on_c, 4, 52, 88
8, 33418, Note_off_c, 4, 52, 0
8, 33420, Note_on_c, 4, 47, 88
8, 33478, Note_off_c, 4, 47, 0
8, 33480, Note_on_c, 4, 54, 88
8, 33538, Note_off_c, 4, 54, 0
8, 33540, Note_on_c, 4, 47, 88
8, 33598, Note_off_c, 4, 47, 0
8, 33600, Note_on_c, 4, 55, 88
8, 33658, Note_off_c, 4, 55, 0
8, 33660, Note_on_c, 4, 47, 88
8, 33718, Note_off_c, 4, 47, 0
8, 33720, Note_on_c, 4, 57, 88
8, 33778, Note_off_c, 4, 57, 0
8, 33780, Note_on_c, 4, 47, 88
8, 33838, Note_off_c, 4, 47, 0
8, 33840, Note_on_c, 4, 55, 88
8, 33898, Note_off_c, 4, 55, 0
8, 33900, Note_on_c, 4, 54, 88
8, 33958, Note_off_c, 4, 54, 0
8, 33960, Note_on_c, 4, 52, 88
8, 34018, Note_off_c, 4, 52, 0
8, 34020, Note_on_c, 4, 55, 88
8, 34078, Note_off_c, 4, 55, 0
8, 34080, Note_on_c, 4, 50, 88
8, 34138, Note_off_c, 4, 50, 0
8, 34140, Note_on_c, 4, 55, 88
8, 34198, Note_off_c, 4, 55, 0
8, 34200, Note_on_c, 4, 49, 88
8, 34258, Note_off_c, 4, 49, 0
8, 34260, Note_on_c, 4, 55, 88
8, 34318, Note_off_c, 4, 55, 0
8, 34320, Note_on_c, 4, 47, 88
8, 34378, Note_off_c, 4, 47, 0
8, 34380, Note_on_c, 4, 55, 88
8, 34438, Note_off_c, 4, 55, 0
8, 34440, Note_on_c, 4, 45, 88
8, 34498, Note_off_c, 4, 45, 0
8, 34500, Note_on_c, 4, 55, 88
8, 34558, Note_off_c, 4, 55, 0
8, 34560, Note_on_c, 4, 54, 88
8, 34618, Note_off_c, 4, 54, 0
8, 34620, Note_on_c, 4, 52, 88
8, 34678, Note_off_c, 4, 52, 0
8, 34680, Note_on_c, 4, 50, 88
8, 34738, Note_off_c, 4, 50, 0
8, 34740, Note_on_c, 4, 54, 88
8, 34798, Note_off_c, 4, 54, 0
8, 34800, Note_on_c, 4, 49, 88
8, 34858, Note_off_c, 4, 49, 0
8, 34860, Note_on_c, 4, 54, 88
8, 34918, Note_off_c, 4, 54, 0
8, 34920, Note_on_c, 4, 47, 88
8, 34978, Note_off_c, 4, 47, 0
8, 34980, Note_on_c, 4, 54, 88
8, 35038, Note_off_c, 4, 54, 0
8, 35040, Note_on_c, 4, 45, 88
8, 35098, Note_off_c, 4, 45, 0
8, 35100, Note_on_c, 4, 54, 88
8, 35158, Note_off_c, 4, 54, 0
8, 35160, Note_on_c, 4, 43, 88
8, 35218, Note_off_c, 4, 43, 0
8, 35220, Note_on_c, 4, 54, 88
8, 35278, Note_off_c, 4, 54, 0
8, 35280, Note_on_c, 4, 52, 88
8, 35338, Note_off_c, 4, 52, 0
8, 35340, Note_on_c, 4, 50, 88
8, 35398, Note_off_c, 4, 50, 0
8, 35400, Note_on_c, 4, 49, 88
8, 35458, Note_off_c, 4, 49, 0
8, 35460, Note_on_c, 4, 52, 88
8, 35518, Note_off_c, 4, 52, 0
8, 35520, Note_on_c, 4, 47, 88
8, 35578, Note_off_c, 4, 47, 0
8, 35580, Note_on_c, 4, 52, 88
8, 35638, Note_off_c, 4, 52, 0
8, 35640, Note_on_c, 4, 46, 88
8, 35698, Note_off_c, 4, 46, 0
8, 35700, Note_on_c, 4, 52, 88
8, 35758, Note_off_c, 4, 52, 0
8, 35760, Note_on_c, 4, 44, 88
8, 35818, Note_off_c, 4, 44, 0
8, 35820, Note_on_c, 4, 52, 88
8, 35878, Note_off_c, 4, 52, 0
8, 35880, Note_on_c, 4, 42, 88
8, 35938, Note_off_c, 4, 42, 0
8, 35940, Note_on_c, 4, 52, 88
8, 35998, Note_off_c, 4, 52, 0
8, 36000, Note_on_c, 4, 50, 88
8, 36058, Note_off_c, 4, 50, 0
8, 36060, Note_on_c, 4, 54, 88
8, 36118, Note_off_c, 4, 54, 0
8, 36120, Note_on_c, 4, 52, 88
8, 36178, Note_off_c, 4, 52, 0
8, 36180, Note_on_c, 4, 50, 88
8, 36238, Note_off_c, 4, 50, 0
8, 36240, Note_on_c, 4, 49, 88
8, 36298, Note_off_c, 4, 49, 0
8, 36300, Note_on_c, 4, 47, 88
8, 36358, Note_off_c, 4, 47, 0
8, 36360, Note_on_c, 4, 46, 88
8, 36418, Note_off_c, 4, 46, 0
8, 36420, Note_on_c, 4, 49, 88
8, 36478, Note_off_c, 4, 49, 0
8, 36480, Note_on_c, 4, 47, 88
8, 36538, Note_off_c, 4, 47, 0
8, 36540, Note_on_c, 4, 46, 88
8, 36598, Note_off_c, 4, 46, 0
8, 36600, Note_on_c, 4, 44, 88
8, 36658, Note_off_c, 4, 44, 0
8, 36660, Note_on_c, 4, 42, 88
8, 36718, Note_off_c, 4, 42, 0
8, 36720, Note_on_c, 4, 47, 88
8, 36836, Note_off_c, 4, 47, 0
8, 36840, Note_on_c, 4, 49, 88
8, 36898, Note_off_c, 4, 49, 0
8, 36900, Note_on_c, 4, 47, 88
8, 36958, Note_off_c, 4, 47, 0
8, 36960, Note_on_c, 4, 46, 88
8, 37018, Note_off_c, 4, 46, 0
8, 37020, Note_on_c, 4, 47, 88
8, 37078, Note_off_c, 4, 47, 0
8, 37080, Note_on_c, 4, 49, 88
8, 37196, Note_off_c, 4, 49, 0
8, 37200, Note_on_c, 4, 50, 88
8, 37258, Note_off_c, 4, 50, 0
8, 37260, Note_on_c, 4, 49, 88
8, 37318, Note_off_c, 4, 49, 0
8, 37320, Note_on_c, 4, 47, 88
8, 37378, Note_off_c, 4, 47, 0
8, 37380, Note_on_c, 4, 49, 88
8, 37438, Note_off_c, 4, 49, 0
8, 37440, Note_on_c, 4, 50, 88
8, 37556, Note_off_c, 4, 50, 0
8, 37560, Note_on_c, 4, 49, 88
8, 37676, Note_off_c, 4, 49, 0
8, 37680, Note_on_c, 4, 47, 88
8, 37796, Note_off_c, 4, 47, 0
8, 37800, Note_on_c, 4, 46, 88
8, 37916, Note_off_c, 4, 46, 0
8, 37920, Note_on_c, 4, 55, 88
8, 38154, Note_off_c, 4, 55, 0
8, 38160, Note_on_c, 4, 54, 88
8, 38218, Note_off_c, 4, 54, 0
8, 38220, Note_on_c, 4, 56, 88
8, 38278, Note_off_c, 4, 56, 0
8, 38280, Note_on_c, 4, 58, 88
8, 38338, Note_off_c, 4, 58, 0
8, 38340, Note_on_c, 4, 54, 88
8, 38398, Note_off_c, 4, 54, 0
8, 38400, Note_on_c, 4, 59, 88
8, 38458, Note_off_c, 4, 59, 0
8, 38460, Note_on_c, 4, 54, 88
8, 38518, Note_off_c, 4, 54, 0
8, 38520, Note_on_c, 4, 61, 88
8, 38578, Note_off_c, 4, 61, 0
8, 38580, Note_on_c, 4, 54, 88
8, 38638, Note_off_c, 4, 54, 0
8, 38640, Note_on_c, 4, 62, 88
8, 38698, Note_off_c, 4, 62, 0
8, 38700, Note_on_c, 4, 54, 88
8, 38758, Note_off_c, 4, 54, 0
8, 38760, Note_on_c, 4, 64, 88
8, 38818, Note_off_c, 4, 64, 0
8, 38820, Note_on_c, 4, 54, 88
8, 38878, Note_off_c, 4, 54, 0
8, 38880, Note_on_c, 4, 62, 88
8, 38938, Note_off_c, 4, 62, 0
8, 38940, Note_on_c, 4, 54, 88
8, 38998, Note_off_c, 4, 54, 0
8, 39000, Note_on_c, 4, 55, 88
8, 39058, Note_off_c, 4, 55, 0
8, 39060, Note_on_c, 4, 62, 88
8, 39118, Note_off_c, 4, 62, 0
8, 39120, Note_on_c, 4, 61, 88
8, 39149, Note_off_c, 4, 61, 0
8, 39150, Note_on_c, 4, 59, 88
8, 39179, Note_off_c, 4, 59, 0
8, 39180, Note_on_c, 4, 58, 88
8, 39209, Note_off_c, 4, 58, 0
8, 39210, Note_on_c, 4, 59, 88
8, 39239, Note_off_c, 4, 59, 0
8, 39240, Note_on_c, 4, 61, 88
8, 39298, Note_off_c, 4, 61, 0
8, 39300, Note_on_c, 4, 52, 88
8, 39358, Note_off_c, 4, 52, 0
8, 39360, Note_on_c, 4, 54, 88
8, 39418, Note_off_c, 4, 54, 0
8, 39420, Note_on_c, 4, 61, 88
8, 39478, Note_off_c, 4, 61, 0
8, 39480, Note_on_c, 4, 59, 88
8, 39509, Note_off_c, 4, 59, 0
8, 39510, Note_on_c, 4, 58, 88
8, 39539, Note_off_c, 4, 58, 0
8, 39540, Note_on_c, 4, 56, 88
8, 39569, Note_off_c, 4, 56, 0
8, 39570, Note_on_c, 4, 58, 88
8, 39599, Note_off_c, 4, 58, 0
8, 39600, Note_on_c, 4, 59, 88
8, 39716, Note_off_c, 4, 59, 0
8, 40200, Note_on_c, 4, 47, 88
8, 40316, Note_off_c, 4, 47, 0
8, 40320, Note_on_c, 4, 52, 88
8, 40378, Note_off_c, 4, 52, 0
8, 40380, Note_on_c, 4, 54, 88
8, 40438, Note_off_c, 4, 54, 0
8, 40440, Note_on_c, 4, 56, 88
8, 40498, Note_off_c, 4, 56, 0
8, 40500, Note_on_c, 4, 52, 88
8, 40558, Note_off_c, 4, 52, 0
8, 40560, Note_on_c, 4, 57, 88
8, 40618, Note_off_c, 4, 57, 0
8, 40620, Note_on_c, 4, 52, 88
8, 40678, Note_off_c, 4, 52, 0
8, 40680, Note_on_c, 4, 59, 88
8, 40738, Note_off_c, 4, 59, 0
8, 40740, Note_on_c, 4, 52, 88
8, 40798, Note_off_c, 4, 52, 0
8, 40800, Note_on_c, 4, 61, 88
8, 40858, Note_off_c, 4, 61, 0
8, 40860, Note_on_c, 4, 52, 88
8, 40918, Note_off_c, 4, 52, 0
8, 40920, Note_on_c, 4, 62, 88
8, 40978, Note_off_c, 4, 62, 0
8, 40980, Note_on_c, 4, 52, 88
8, 41038, Note_off_c, 4, 52, 0
8, 41040, Note_on_c, 4, 61, 88
8, 41156, Note_off_c, 4, 61, 0
8, 41640, Note_on_c, 4, 49, 88
8, 41756, Note_off_c, 4, 49, 0
8, 41760, Note_on_c, 4, 50, 88
8, 41935, Note_off_c, 4, 50, 0
8, 41940, Note_on_c, 4, 52, 88
8, 41998, Note_off_c, 4, 52, 0
8, 42000, Note_on_c, 4, 50, 88
8, 42058, Note_off_c, 4, 50, 0
8, 42060, Note_on_c, 4, 49, 88
8, 42118, Note_off_c, 4, 49, 0
8, 42120, Note_on_c, 4, 47, 88
8, 42178, Note_off_c, 4, 47, 0
8, 42180, Note_on_c, 4, 49, 88
8, 42238, Note_off_c, 4, 49, 0
8, 42240, Note_on_c, 4, 47, 88
8, 42298, Note_off_c, 4, 47, 0
8, 42300, Note_on_c, 4, 45, 88
8, 42358, Note_off_c, 4, 45, 0
8, 42360, Note_on_c, 4, 43, 88
8, 42418, Note_off_c, 4, 43, 0
8, 42420, Note_on_c, 4, 42, 88
8, 42478, Note_off_c, 4, 42, 0
8, 42480, Note_on_c, 4, 40, 88
8, 42596, Note_off_c, 4, 40, 0
8, 42600, Note_on_c, 4, 50, 88
8, 42716, Note_off_c, 4, 50, 0
8, 42720, Note_on_c, 4, 49, 88
8, 42836, Note_off_c, 4, 49, 0
8, 42840, Note_on_c, 4, 50, 88
8, 43074, Note_off_c, 4, 50, 0
8, 43080, Note_on_c, 4, 47, 88
8, 43196, Note_off_c, 4, 47, 0
8, 43200, Note_on_c, 4, 43, 88
8, 43316, Note_off_c, 4, 43, 0
8, 43320, Note_on_c, 4, 45, 88
8, 43554, Note_off_c, 4, 45, 0
8, 43560, Note_on_c, 4, 50, 88
8, 43676, Note_off_c, 4, 50, 0
8, 43680, Note_on_c, 4, 49, 88
8, 43796, Note_off_c, 4, 49, 0
8, 43800, Note_on_c, 4, 47, 88
8, 43916, Note_off_c, 4, 47, 0
8, 43920, Note_on_c, 4, 45, 88
8, 45950, Note_off_c, 4, 45, 0
8, 46260, Note_on_c, 4, 52, 88
8, 46318, Note_off_c, 4, 52, 0
8, 46320, Note_on_c, 4, 50, 88
8, 46378, Note_off_c, 4, 50, 0
8, 46380, Note_on_c, 4, 49, 88
8, 46438, Note_off_c, 4, 49, 0
8, 46440, Note_on_c, 4, 47, 88
8, 46674, Note_off_c, 4, 47, 0
8, 46980, Note_on_c, 4, 50, 88
8, 47038, Note_off_c, 4, 50, 0
8, 47040, Note_on_c, 4, 49, 88
8, 47098, Note_off_c, 4, 49, 0
8, 47100, Note_on_c, 4, 47, 88
8, 47158, Note_off_c, 4, 47, 0
8, 47160, Note_on_c, 4, 45, 88
8, 47394, Note_off_c, 4, 45, 0
8, 47700, Note_on_c, 4, 48, 88
8, 47758, Note_off_c, 4, 48, 0
8, 47760, Note_on_c, 4, 47, 88
8, 47818, Note_off_c, 4, 47, 0
8, 47820, Note_on_c, 4, 45, 88
8, 47878, Note_off_c, 4, 45, 0
8, 47880, Note_on_c, 4, 43, 88
8, 47996, Note_off_c, 4, 43, 0
8, 48660, Note_on_c, 4, 45, 88
8, 48718, Note_off_c, 4, 45, 0
8, 48720, Note_on_c, 4, 47, 88
8, 48778, Note_off_c, 4, 47, 0
8, 48780, Note_on_c, 4, 49, 88
8, 48838, Note_off_c, 4, 49, 0
8, 48840, Note_on_c, 4, 50, 88
8, 48898, Note_off_c, 4, 50, 0
8, 48900, Note_on_c, 4, 52, 88
8, 48958, Note_off_c, 4, 52, 0
8, 48960, Note_on_c, 4, 54, 88
8, 49018, Note_off_c, 4, 54, 0
8, 49020, Note_on_c, 4, 55, 88
8, 49078, Note_off_c, 4, 55, 0
8, 49080, Note_on_c, 4, 57, 88
8, 49196, Note_off_c, 4, 57, 0
8, 49200, Note_on_c, 4, 45, 88
8, 49316, Note_off_c, 4, 45, 0
8, 49320, Note_on_c, 4, 50, 88
8, 49436, Note_off_c, 4, 50, 0
8, 49440, Note_on_c, 4, 48, 88
8, 49498, Note_off_c, 4, 48, 0
8, 49500, Note_on_c, 4, 50, 88
8, 49558, Note_off_c, 4, 50, 0
8, 49560, Note_on_c, 4, 52, 88
8, 49618, Note_off_c, 4, 52, 0
8, 49620, Note_on_c, 4, 50, 88
8, 49678, Note_off_c, 4, 50, 0
8, 49680, Note_on_c, 4, 48, 88
8, 49796, Note_off_c, 4, 48, 0
8, 49800, Note_on_c, 4, 47, 88
8, 49858, Note_off_c, 4, 47, 0
8, 49860, Note_on_c, 4, 48, 88
8, 49918, Note_off_c, 4, 48, 0
8, 49920, Note_on_c, 4, 50, 88
8, 49978, Note_off_c, 4, 50, 0
8, 49980, Note_on_c, 4, 48, 88
8, 50038, Note_off_c, 4, 48, 0
8, 50040, Note_on_c, 4, 47, 88
8, 50156, Note_off_c, 4, 47, 0
8, 50160, Note_on_c, 4, 48, 88
8, 50276, Note_off_c, 4, 48, 0
8, 50280, Note_on_c, 4, 50, 88
8, 50396, Note_off_c, 4, 50, 0
8, 50400, Note_on_c, 4, 55, 88
8, 50516, Note_off_c, 4, 55, 0
8, 50520, Note_on_c, 4, 45, 88
8, 50754, Note_off_c, 4, 45, 0
8, 50760, Note_on_c, 4, 47, 88
8, 50876, Note_off_c, 4, 47, 0
8, 50880, Note_on_c, 4, 48, 88
8, 50996, Note_off_c, 4, 48, 0
8, 51000, Note_on_c, 4, 50, 88
8, 51116, Note_off_c, 4, 50, 0
8, 51120, Note_on_c, 4, 52, 88
8, 51236, Note_off_c, 4, 52, 0
8, 51240, Note_on_c, 4, 42, 88
8, 51474, Note_off_c, 4, 42, 0
8, 51480, Note_on_c, 4, 43, 88
8, 51596, Note_off_c, 4, 43, 0
8, 51600, Note_on_c, 4, 42, 88
8, 51658, Note_off_c, 4, 42, 0
8, 51660, Note_on_c, 4, 43, 88
8, 51718, Note_off_c, 4, 43, 0
8, 51720, Note_on_c, 4, 45, 88
8, 51778, Note_off_c, 4, 45, 0
8, 51780, Note_on_c, 4, 47, 88
8, 51838, Note_off_c, 4, 47, 0
8, 51840, Note_on_c, 4, 36, 88
8, 51956, Note_off_c, 4, 36, 0
8, 51960, Note_on_c, 4, 60, 88
8, 52018, Note_off_c, 4, 60, 0
8, 52020, Note_on_c, 4, 59, 88
8, 52078, Note_off_c, 4, 59, 0
8, 52080, Note_on_c, 4, 57, 88
8, 52138, Note_off_c, 4, 57, 0
8, 52140, Note_on_c, 4, 55, 88
8, 52198, Note_off_c, 4, 55, 0
8, 52200, Note_on_c, 4, 54, 88
8, 52258, Note_off_c, 4, 54, 0
8, 52260, Note_on_c, 4, 52, 88
8, 52318, Note_off_c, 4, 52, 0
8, 52320, Note_on_c, 4, 50, 88
8, 52378, Note_off_c, 4, 50, 0
8, 52380, Note_on_c, 4, 48, 88
8, 52438, Note_off_c, 4, 48, 0
8, 52440, Note_on_c, 4, 47, 88
8, 52498, Note_off_c, 4, 47, 0
8, 52500, Note_on_c, 4, 45, 88
8, 52558, Note_off_c, 4, 45, 0
8, 52560, Note_on_c, 4, 43, 88
8, 52618, Note_off_c, 4, 43, 0
8, 52620, Note_on_c, 4, 45, 88
8, 52678, Note_off_c, 4, 45, 0
8, 52680, Note_on_c, 4, 47, 88
8, 52738, Note_off_c, 4, 47, 0
8, 52740, Note_on_c, 4, 43, 88
8, 52798, Note_off_c, 4, 43, 0
8, 52800, Note_on_c, 4, 48, 88
8, 52858, Note_off_c, 4, 48, 0
8, 52860, Note_on_c, 4, 43, 88
8, 52918, Note_off_c, 4, 43, 0
8, 52920, Note_on_c, 4, 50, 88
8, 52978, Note_off_c, 4, 50, 0
8, 52980, Note_on_c, 4, 43, 88
8, 53038, Note_off_c, 4, 43, 0
8, 53040, Note_on_c, 4, 52, 88
8, 53098, Note_off_c, 4, 52, 0
8, 53100, Note_on_c, 4, 43, 88
8, 53158, Note_off_c, 4, 43, 0
8, 53160, Note_on_c, 4, 53, 88
8, 53218, Note_off_c, 4, 53, 0
8, 53220, Note_on_c, 4, 43, 88
8, 53278, Note_off_c, 4, 43, 0
8, 53280, Note_on_c, 4, 52, 88
8, 53338, Note_off_c, 4, 52, 0
8, 53340, Note_on_c, 4, 40, 88
8, 53369, Note_off_c, 4, 40, 0
8, 53370, Note_on_c, 4, 42, 88
8, 53399, Note_off_c, 4, 42, 0
8, 53400, Note_on_c, 4, 44, 88
8, 53458, Note_off_c, 4, 44, 0
8, 53460, Note_on_c, 4, 40, 88
8, 53518, Note_off_c, 4, 40, 0
8, 53520, Note_on_c, 4, 45, 88
8, 53578, Note_off_c, 4, 45, 0
8, 53580, Note_on_c, 4, 40, 88
8, 53638, Note_off_c, 4, 40, 0
8, 53640, Note_on_c, 4, 47, 88
8, 53698, Note_off_c, 4, 47, 0
8, 53700, Note_on_c, 4, 40, 88
8, 53758, Note_off_c, 4, 40, 0
8, 53760, Note_on_c, 4, 48, 88
8, 53818, Note_off_c, 4, 48, 0
8, 53820, Note_on_c, 4, 40, 88
8, 53878, Note_off_c, 4, 40, 0
8, 53880, Note_on_c, 4, 50, 88
8, 53938, Note_off_c, 4, 50, 0
8, 53940, Note_on_c, 4, 40, 88
8, 53998, Note_off_c, 4, 40, 0
8, 54000, Note_on_c, 4, 49, 88
8, 54058, Note_off_c, 4, 49, 0
8, 54060, Note_on_c, 4, 57, 88
8, 54118, Note_off_c, 4, 57, 0
8, 54120, Note_on_c, 4, 55, 88
8, 54178, Note_off_c, 4, 55, 0
8, 54180, Note_on_c, 4, 54, 88
8, 54238, Note_off_c, 4, 54, 0
8, 54240, Note_on_c, 4, 52, 88
8, 54298, Note_off_c, 4, 52, 0
8, 54300, Note_on_c, 4, 50, 88
8, 54358, Note_off_c, 4, 50, 0
8, 54360, Note_on_c, 4, 49, 88
8, 54418, Note_off_c, 4, 49, 0
8, 54420, Note_on_c, 4, 47, 88
8, 54478, Note_off_c, 4, 47, 0
8, 54480, Note_on_c, 4, 45, 88
8, 54538, Note_off_c, 4, 45, 0
8, 54540, Note_on_c, 4, 43, 88
8, 54598, Note_off_c, 4, 43, 0
8, 54600, Note_on_c, 4, 42, 88
8, 54658, Note_off_c, 4, 42, 0
8, 54660, Note_on_c, 4, 40, 88
8, 54718, Note_off_c, 4, 40, 0
8, 54720, Note_on_c, 4, 38, 88
8, 55498, Note_off_c, 4, 38, 0
8, 55500, Note_on_c, 4, 50, 88
8, 55558, Note_off_c, 4, 50, 0
8, 55560, Note_on_c, 4, 48, 88
8, 55618, Note_off_c, 4, 48, 0
8, 55620, Note_on_c, 4, 50, 88
8, 55678, Note_off_c, 4, 50, 0
8, 55680, Note_on_c, 4, 52, 88
8, 55738, Note_off_c, 4, 52, 0
8, 55740, Note_on_c, 4, 50, 88
8, 55798, Note_off_c, 4, 50, 0
8, 55800, Note_on_c, 4, 48, 88
8, 55916, Note_off_c, 4, 48, 0
8, 55920, Note_on_c, 4, 47, 88
8, 55978, Note_off_c, 4, 47, 0
8, 55980, Note_on_c, 4, 48, 88
8, 56038, Note_off_c, 4, 48, 0
8, 56040, Note_on_c, 4, 50, 88
8, 56098, Note_off_c, 4, 50, 0
8, 56100, Note_on_c, 4, 48, 88
8, 56158, Note_off_c, 4, 48, 0
8, 56160, Note_on_c, 4, 47, 88
8, 56276, Note_off_c, 4, 47, 0
8, 56280, Note_on_c, 4, 45, 88
8, 56338, Note_off_c, 4, 45, 0
8, 56340, Note_on_c, 4, 47, 88
8, 56398, Note_off_c, 4, 47, 0
8, 56400, Note_on_c, 4, 48, 88
8, 56458, Note_off_c, 4, 48, 0
8, 56460, Note_on_c, 4, 47, 88
8, 56518, Note_off_c, 4, 47, 0
8, 56520, Note_on_c, 4, 45, 88
8, 56636, Note_off_c, 4, 45, 0
8, 56640, Note_on_c, 4, 43, 88
8, 56698, Note_off_c, 4, 43, 0
8, 56700, Note_on_c, 4, 45, 88
8, 56758, Note_off_c, 4, 45, 0
8, 56760, Note_on_c, 4, 47, 88
8, 56818, Note_off_c, 4, 47, 0
8, 56820, Note_on_c, 4, 45, 88
8, 56878, Note_off_c, 4, 45, 0
8, 56880, Note_on_c, 4, 43, 88
8, 56938, Note_off_c, 4, 43, 0
8, 56940, Note_on_c, 4, 55, 88
8, 56969, Note_off_c, 4, 55, 0
8, 56970, Note_on_c, 4, 54, 88
8, 56999, Note_off_c, 4, 54, 0
8, 57000, Note_on_c, 4, 52, 88
8, 57058, Note_off_c, 4, 52, 0
8, 57060, Note_on_c, 4, 55, 88
8, 57118, Note_off_c, 4, 55, 0
8, 57120, Note_on_c, 4, 50, 88
8, 57178, Note_off_c, 4, 50, 0
8, 57180, Note_on_c, 4, 55, 88
8, 57238, Note_off_c, 4, 55, 0
8, 57240, Note_on_c, 4, 49, 88
8, 57298, Note_off_c, 4, 49, 0
8, 57300, Note_on_c, 4, 57, 88
8, 57358, Note_off_c, 4, 57, 0
8, 57360, Note_on_c, 4, 47, 88
8, 57418, Note_off_c, 4, 47, 0
8, 57420, Note_on_c, 4, 57, 88
8, 57478, Note_off_c, 4, 57, 0
8, 57480, Note_on_c, 4, 45, 88
8, 57538, Note_off_c, 4, 45, 0
8, 57540, Note_on_c, 4, 57, 88
8, 57598, Note_off_c, 4, 57, 0
8, 57600, Note_on_c, 4, 50, 88
8, 57658, Note_off_c, 4, 50, 0
8, 57660, Note_on_c, 4, 48, 88
8, 57718, Note_off_c, 4, 48, 0
8, 57720, Note_on_c, 4, 46, 88
8, 57778, Note_off_c, 4, 46, 0
8, 57780, Note_on_c, 4, 50, 88
8, 57838, Note_off_c, 4, 50, 0
8, 57840, Note_on_c, 4, 45, 88
8, 57898, Note_off_c, 4, 45, 0
8, 57900, Note_on_c, 4, 50, 88
8, 57958, Note_off_c, 4, 50, 0
8, 57960, Note_on_c, 4, 43, 88
8, 58018, Note_off_c, 4, 43, 0
8, 58020, Note_on_c, 4, 52, 88
8, 58078, Note_off_c, 4, 52, 0
8, 58080, Note_on_c, 4, 42, 88
8, 58138, Note_off_c, 4, 42, 0
8, 58140, Note_on_c, 4, 52, 88
8, 58198, Note_off_c, 4, 52, 0
8, 58200, Note_on_c, 4, 40, 88
8, 58258, Note_off_c, 4, 40, 0
8, 58260, Note_on_c, 4, 52, 88
8, 58318, Note_off_c, 4, 52, 0
8, 58320, Note_on_c, 4, 42, 88
8, 58436, Note_off_c, 4, 42, 0
8, 58440, Note_on_c, 4, 38, 88
8, 58556, Note_off_c, 4, 38, 0
8, 58560, Note_on_c, 4, 43, 88
8, 58676, Note_off_c, 4, 43, 0
8, 58680, Note_on_c, 4, 40, 88
8, 58796, Note_off_c, 4, 40, 0
8, 58800, Note_on_c, 4, 36, 88
8, 58916, Note_off_c, 4, 36, 0
8, 58920, Note_on_c, 4, 38, 88
8, 59036, Note_off_c, 4, 38, 0
8, 59040, Note_on_c, 4, 43, 88
8, 59445, Note_off_c, 4, 43, 0
8, 59460, Note_on_c, 4, 43, 88
8, 59489, Note_off_c, 4, 43, 0
8, 59490, Note_on_c, 4, 45, 88
8, 59519, Note_off_c, 4, 45, 0
8, 59520, Note_on_c, 4, 47, 88
8, 59578, Note_off_c, 4, 47, 0
8, 59580, Note_on_c, 4, 43, 88
8, 59638, Note_off_c, 4, 43, 0
8, 59640, Note_on_c, 4, 48, 88
8, 59698, Note_off_c, 4, 48, 0
8, 59700, Note_on_c, 4, 43, 88
8, 59758, Note_off_c, 4, 43, 0
8, 59760, Note_on_c, 4, 50, 88
8, 59876, Note_off_c, 4, 50, 0
8, 59880, Note_on_c, 4, 43, 88
8, 59996, Note_off_c, 4, 43, 0
8, 60000, Note_on_c, 4, 47, 88
8, 60116, Note_off_c, 4, 47, 0
8, 60120, Note_on_c, 4, 48, 88
8, 60149, Note_off_c, 4, 48, 0
8, 60150, Note_on_c, 4, 47, 88
8, 60179, Note_off_c, 4, 47, 0
8, 60180, Note_on_c, 4, 48, 88
8, 60209, Note_off_c, 4, 48, 0
8, 60210, Note_on_c, 4, 50, 88
8, 60239, Note_off_c, 4, 50, 0
8, 60240, Note_on_c, 4, 52, 88
8, 60298, Note_off_c, 4, 52, 0
8, 60300, Note_on_c, 4, 48, 88
8, 60358, Note_off_c, 4, 48, 0
8, 60360, Note_on_c, 4, 54, 88
8, 60418, Note_off_c, 4, 54, 0
8, 60420, Note_on_c, 4, 48, 88
8, 60478, Note_off_c, 4, 48, 0
8, 60480, Note_on_c, 4, 55, 88
8, 61908, Note_off_c, 4, 55, 0
8, 61908, End_track
0, 0, End_of_file
