0, 0, Header, 1, 7, 240
1, 0, Start_track
1, 0, Time_signature, 4, 2, 24, 8
1, 0, Tempo, 895522
1, 0, SMPTE_offset, 64, 0, 0, 0, 93
1, 0, End_track
2, 0, Start_track
2, 0, Title_t, "(C) & (P) 1993"
2, 127, End_track
3, 0, Start_track
3, 0, Title_t, "CCARH,Stanford"
3, 0, End_track
4, 0, Start_track
4, 0, Title_t, "Track 1"
4, 0, Program_c, 0, 6
4, 4080, Note_on_c, 0, 68, 88
4, 4196, Note_off_c, 0, 68, 0
4, 4200, Note_on_c, 0, 75, 88
4, 4316, Note_off_c, 0, 75, 0
4, 4320, Note_on_c, 0, 72, 88
4, 4436, Note_off_c, 0, 72, 0
4, 4440, Note_on_c, 0, 68, 88
4, 4556, Note_off_c, 0, 68, 0
4, 4560, Note_on_c, 0, 77, 88
4, 4676, Note_off_c, 0, 77, 0
4, 4680, Note_on_c, 0, 73, 88
4, 4796, Note_off_c, 0, 73, 0
4, 4800, Note_on_c, 0, 75, 88
4, 5508, Note_off_c, 0, 75, 0
4, 5520, Note_on_c, 0, 80, 88
4, 5754, Note_off_c, 0, 80, 0
4, 5760, Note_on_c, 0, 80, 88
4, 5994, Note_off_c, 0, 80, 0
4, 6000, Note_on_c, 0, 79, 88
4, 6234, Note_off_c, 0, 79, 0
4, 6240, Note_on_c, 0, 77, 88
4, 6778, Note_off_c, 0, 77, 0
4, 6780, Note_on_c, 0, 70, 88
4, 6838, Note_off_c, 0, 70, 0
4, 6840, Note_on_c, 0, 72, 88
4, 6898, Note_off_c, 0, 72, 0
4, 6900, Note_on_c, 0, 74, 88
4, 6958, Note_off_c, 0, 74, 0
4, 6960, Note_on_c, 0, 75, 88
4, 7313, Note_off_c, 0, 75, 0
4, 7320, Note_on_c, 0, 80, 88
4, 7436, Note_off_c, 0, 80, 0
4, 7440, Note_on_c, 0, 73, 88
4, 7556, Note_off_c, 0, 73, 0
4, 7560, Note_on_c, 0, 82, 88
4, 7676, Note_off_c, 0, 82, 0
4, 7680, Note_on_c, 0, 73, 88
4, 7914, Note_off_c, 0, 73, 0
4, 7920, Note_on_c, 0, 72, 88
4, 8154, Note_off_c, 0, 72, 0
4, 8160, Note_on_c, 0, 70, 88
4, 8630, Note_off_c, 0, 70, 0
4, 8640, Note_on_c, 0, 68, 88
4, 9165, Note_off_c, 0, 68, 0
4, 9180, Note_on_c, 0, 68, 88
4, 9238, Note_off_c, 0, 68, 0
4, 9240, Note_on_c, 0, 70, 88
4, 9298, Note_off_c, 0, 70, 0
4, 9300, Note_on_c, 0, 72, 88
4, 9358, Note_off_c, 0, 72, 0
4, 9360, Note_on_c, 0, 73, 88
4, 9658, Note_off_c, 0, 73, 0
4, 9660, Note_on_c, 0, 70, 88
4, 9718, Note_off_c, 0, 70, 0
4, 9720, Note_on_c, 0, 72, 88
4, 9778, Note_off_c, 0, 72, 0
4, 9780, Note_on_c, 0, 75, 88
4, 9838, Note_off_c, 0, 75, 0
4, 9840, Note_on_c, 0, 80, 88
4, 9898, Note_off_c, 0, 80, 0
4, 9900, Note_on_c, 0, 79, 88
4, 9958, Note_off_c, 0, 79, 0
4, 9960, Note_on_c, 0, 80, 88
4, 10018, Note_off_c, 0, 80, 0
4, 10020, Note_on_c, 0, 82, 88
4, 10078, Note_off_c, 0, 82, 0
4, 10080, Note_on_c, 0, 84, 88
4, 10138, Note_off_c, 0, 84, 0
4, 10140, Note_on_c, 0, 82, 88
4, 10198, Note_off_c, 0, 82, 0
4, 10200, Note_on_c, 0, 80, 88
4, 10258, Note_off_c, 0, 80, 0
4, 10260, Note_on_c, 0, 79, 88
4, 10318, Note_off_c, 0, 79, 0
4, 10320, Note_on_c, 0, 77, 88
4, 10378, Note_off_c, 0, 77, 0
4, 10380, Note_on_c, 0, 79, 88
4, 10438, Note_off_c, 0, 79, 0
4, 10440, Note_on_c, 0, 80, 88
4, 10498, Note_off_c, 0, 80, 0
4, 10500, Note_on_c, 0, 84, 88
4, 10558, Note_off_c, 0, 84, 0
4, 10560, Note_on_c, 0, 82, 88
4, 10618, Note_off_c, 0, 82, 0
4, 10620, Note_on_c, 0, 80, 88
4, 10678, Note_off_c, 0, 80, 0
4, 10680, Note_on_c, 0, 79, 88
4, 10738, Note_off_c, 0, 79, 0
4, 10740, Note_on_c, 0, 77, 88
4, 10798, Note_off_c, 0, 77, 0
4, 10800, Note_on_c, 0, 75, 88
4, 10858, Note_off_c, 0, 75, 0
4, 10860, Note_on_c, 0, 77, 88
4, 10918, Note_off_c, 0, 77, 0
4, 10920, Note_on_c, 0, 79, 88
4, 10978, Note_off_c, 0, 79, 0
4, 10980, Note_on_c, 0, 82, 88
4, 11038, Note_off_c, 0, 82, 0
4, 11040, Note_on_c, 0, 80, 88
4, 11098, Note_off_c, 0, 80, 0
4, 11100, Note_on_c, 0, 79, 88
4, 11158, Note_off_c, 0, 79, 0
4, 11160, Note_on_c, 0, 77, 88
4, 11218, Note_off_c, 0, 77, 0
4, 11220, Note_on_c, 0, 75, 88
4, 11278, Note_off_c, 0, 75, 0
4, 11280, Note_on_c, 0, 74, 88
4, 11338, Note_off_c, 0, 74, 0
4, 11340, Note_on_c, 0, 75, 88
4, 11398, Note_off_c, 0, 75, 0
4, 11400, Note_on_c, 0, 77, 88
4, 11458, Note_off_c, 0, 77, 0
4, 11460, Note_on_c, 0, 80, 88
4, 11518, Note_off_c, 0, 80, 0
4, 11520, Note_on_c, 0, 79, 88
4, 11578, Note_off_c, 0, 79, 0
4, 11580, Note_on_c, 0, 77, 88
4, 11638, Note_off_c, 0, 77, 0
4, 11640, Note_on_c, 0, 76, 88
4, 11698, Note_off_c, 0, 76, 0
4, 11700, Note_on_c, 0, 79, 88
4, 11758, Note_off_c, 0, 79, 0
4, 11760, Note_on_c, 0, 77, 88
4, 11818, Note_off_c, 0, 77, 0
4, 11820, Note_on_c, 0, 76, 88
4, 11878, Note_off_c, 0, 76, 0
4, 11880, Note_on_c, 0, 77, 88
4, 11938, Note_off_c, 0, 77, 0
4, 11940, Note_on_c, 0, 79, 88
4, 11998, Note_off_c, 0, 79, 0
4, 12000, Note_on_c, 0, 72, 88
4, 12116, Note_off_c, 0, 72, 0
4, 12120, Note_on_c, 0, 77, 88
4, 12354, Note_off_c, 0, 77, 0
4, 12360, Note_on_c, 0, 79, 88
4, 12418, Note_off_c, 0, 79, 0
4, 12420, Note_on_c, 0, 76, 88
4, 12478, Note_off_c, 0, 76, 0
4, 12480, Note_on_c, 0, 77, 88
4, 12538, Note_off_c, 0, 77, 0
4, 12540, Note_on_c, 0, 76, 88
4, 12598, Note_off_c, 0, 76, 0
4, 12600, Note_on_c, 0, 77, 88
4, 12658, Note_off_c, 0, 77, 0
4, 12660, Note_on_c, 0, 79, 88
4, 12718, Note_off_c, 0, 79, 0
4, 12720, Note_on_c, 0, 80, 88
4, 13190, Note_off_c, 0, 80, 0
4, 13200, Note_on_c, 0, 79, 88
4, 13674, Note_off_c, 0, 79, 0
4, 13680, Note_on_c, 0, 77, 88
4, 14145, Note_off_c, 0, 77, 0
4, 14160, Note_on_c, 0, 77, 88
4, 14189, Note_off_c, 0, 77, 0
4, 14190, Note_on_c, 0, 76, 88
4, 14219, Note_off_c, 0, 76, 0
4, 14220, Note_on_c, 0, 77, 88
4, 14249, Note_off_c, 0, 77, 0
4, 14250, Note_on_c, 0, 76, 88
4, 14272, Note_off_c, 0, 76, 0
4, 14273, Note_on_c, 0, 77, 88
4, 14294, Note_off_c, 0, 77, 0
4, 14295, Note_on_c, 0, 76, 88
4, 14317, Note_off_c, 0, 76, 0
4, 14318, Note_on_c, 0, 77, 88
4, 14339, Note_off_c, 0, 77, 0
4, 14340, Note_on_c, 0, 76, 88
4, 14362, Note_off_c, 0, 76, 0
4, 14363, Note_on_c, 0, 74, 88
4, 14384, Note_off_c, 0, 74, 0
4, 14385, Note_on_c, 0, 76, 88
4, 14400, Note_off_c, 0, 76, 0
4, 14400, Note_on_c, 0, 77, 88
4, 14694, Note_off_c, 0, 77, 0
4, 14700, Note_on_c, 0, 75, 88
4, 14758, Note_off_c, 0, 75, 0
4, 14760, Note_on_c, 0, 73, 88
4, 14818, Note_off_c, 0, 73, 0
4, 14820, Note_on_c, 0, 72, 88
4, 14878, Note_off_c, 0, 72, 0
4, 14880, Note_on_c, 0, 70, 88
4, 14938, Note_off_c, 0, 70, 0
4, 14940, Note_on_c, 0, 68, 88
4, 14998, Note_off_c, 0, 68, 0
4, 15000, Note_on_c, 0, 67, 88
4, 15058, Note_off_c, 0, 67, 0
4, 15060, Note_on_c, 0, 68, 88
4, 15118, Note_off_c, 0, 68, 0
4, 15120, Note_on_c, 0, 70, 88
4, 15178, Note_off_c, 0, 70, 0
4, 15180, Note_on_c, 0, 73, 88
4, 15238, Note_off_c, 0, 73, 0
4, 15240, Note_on_c, 0, 72, 88
4, 15298, Note_off_c, 0, 72, 0
4, 15300, Note_on_c, 0, 70, 88
4, 15358, Note_off_c, 0, 70, 0
4, 15360, Note_on_c, 0, 69, 88
4, 15418, Note_off_c, 0, 69, 0
4, 15420, Note_on_c, 0, 72, 88
4, 15478, Note_off_c, 0, 72, 0
4, 15480, Note_on_c, 0, 73, 88
4, 15538, Note_off_c, 0, 73, 0
4, 15540, Note_on_c, 0, 75, 88
4, 15598, Note_off_c, 0, 75, 0
4, 15600, Note_on_c, 0, 77, 88
4, 15658, Note_off_c, 0, 77, 0
4, 15660, Note_on_c, 0, 75, 88
4, 15718, Note_off_c, 0, 75, 0
4, 15720, Note_on_c, 0, 73, 88
4, 15778, Note_off_c, 0, 73, 0
4, 15780, Note_on_c, 0, 72, 88
4, 15838, Note_off_c, 0, 72, 0
4, 15840, Note_on_c, 0, 70, 88
4, 15898, Note_off_c, 0, 70, 0
4, 15900, Note_on_c, 0, 73, 88
4, 15958, Note_off_c, 0, 73, 0
4, 15960, Note_on_c, 0, 78, 88
4, 16018, Note_off_c, 0, 78, 0
4, 16020, Note_on_c, 0, 77, 88
4, 16078, Note_off_c, 0, 77, 0
4, 16080, Note_on_c, 0, 75, 88
4, 16138, Note_off_c, 0, 75, 0
4, 16140, Note_on_c, 0, 73, 88
4, 16198, Note_off_c, 0, 73, 0
4, 16200, Note_on_c, 0, 72, 88
4, 16258, Note_off_c, 0, 72, 0
4, 16260, Note_on_c, 0, 70, 88
4, 16318, Note_off_c, 0, 70, 0
4, 16320, Note_on_c, 0, 69, 88
4, 16554, Note_off_c, 0, 69, 0
4, 16560, Note_on_c, 0, 70, 88
4, 16618, Note_off_c, 0, 70, 0
4, 16620, Note_on_c, 0, 72, 88
4, 16678, Note_off_c, 0, 72, 0
4, 16680, Note_on_c, 0, 73, 88
4, 16914, Note_off_c, 0, 73, 0
4, 16920, Note_on_c, 0, 72, 88
4, 16978, Note_off_c, 0, 72, 0
4, 16980, Note_on_c, 0, 73, 88
4, 17038, Note_off_c, 0, 73, 0
4, 17040, Note_on_c, 0, 75, 88
4, 17338, Note_off_c, 0, 75, 0
4, 17340, Note_on_c, 0, 72, 88
4, 17398, Note_off_c, 0, 72, 0
4, 17400, Note_on_c, 0, 73, 88
4, 17458, Note_off_c, 0, 73, 0
4, 17460, Note_on_c, 0, 77, 88
4, 17518, Note_off_c, 0, 77, 0
4, 17520, Note_on_c, 0, 82, 88
4, 17636, Note_off_c, 0, 82, 0
4, 17640, Note_on_c, 0, 77, 88
4, 17756, Note_off_c, 0, 77, 0
4, 17760, Note_on_c, 0, 78, 88
4, 17876, Note_off_c, 0, 78, 0
4, 17880, Note_on_c, 0, 75, 88
4, 17996, Note_off_c, 0, 75, 0
4, 18000, Note_on_c, 0, 80, 88
4, 18116, Note_off_c, 0, 80, 0
4, 18120, Note_on_c, 0, 75, 88
4, 18236, Note_off_c, 0, 75, 0
4, 18240, Note_on_c, 0, 77, 88
4, 18356, Note_off_c, 0, 77, 0
4, 18360, Note_on_c, 0, 73, 88
4, 18418, Note_off_c, 0, 73, 0
4, 18420, Note_on_c, 0, 77, 88
4, 18478, Note_off_c, 0, 77, 0
4, 18480, Note_on_c, 0, 78, 88
4, 18596, Note_off_c, 0, 78, 0
4, 18600, Note_on_c, 0, 73, 88
4, 18716, Note_off_c, 0, 73, 0
4, 18720, Note_on_c, 0, 75, 88
4, 18836, Note_off_c, 0, 75, 0
4, 18840, Note_on_c, 0, 72, 88
4, 18956, Note_off_c, 0, 72, 0
4, 18960, Note_on_c, 0, 77, 88
4, 19076, Note_off_c, 0, 77, 0
4, 19080, Note_on_c, 0, 72, 88
4, 19196, Note_off_c, 0, 72, 0
4, 19200, Note_on_c, 0, 73, 88
4, 19908, Note_off_c, 0, 73, 0
4, 19920, Note_on_c, 0, 72, 88
4, 20036, Note_off_c, 0, 72, 0
4, 20040, Note_on_c, 0, 77, 88
4, 20156, Note_off_c, 0, 77, 0
4, 20160, Note_on_c, 0, 74, 88
4, 20276, Note_off_c, 0, 74, 0
4, 20280, Note_on_c, 0, 70, 88
4, 20396, Note_off_c, 0, 70, 0
4, 20400, Note_on_c, 0, 75, 88
4, 20865, Note_off_c, 0, 75, 0
4, 20880, Note_on_c, 0, 75, 88
4, 20909, Note_off_c, 0, 75, 0
4, 20910, Note_on_c, 0, 74, 88
4, 20939, Note_off_c, 0, 74, 0
4, 20940, Note_on_c, 0, 75, 88
4, 20969, Note_off_c, 0, 75, 0
4, 20970, Note_on_c, 0, 74, 88
4, 20992, Note_off_c, 0, 74, 0
4, 20993, Note_on_c, 0, 75, 88
4, 21014, Note_off_c, 0, 75, 0
4, 21015, Note_on_c, 0, 74, 88
4, 21037, Note_off_c, 0, 74, 0
4, 21038, Note_on_c, 0, 75, 88
4, 21059, Note_off_c, 0, 75, 0
4, 21060, Note_on_c, 0, 74, 88
4, 21082, Note_off_c, 0, 74, 0
4, 21083, Note_on_c, 0, 72, 88
4, 21104, Note_off_c, 0, 72, 0
4, 21105, Note_on_c, 0, 74, 88
4, 21120, Note_off_c, 0, 74, 0
4, 21120, Note_on_c, 0, 75, 88
4, 21354, Note_off_c, 0, 75, 0
4, 22320, Note_on_c, 0, 68, 88
4, 22436, Note_off_c, 0, 68, 0
4, 22440, Note_on_c, 0, 75, 88
4, 22556, Note_off_c, 0, 75, 0
4, 22560, Note_on_c, 0, 72, 88
4, 22676, Note_off_c, 0, 72, 0
4, 22680, Note_on_c, 0, 68, 88
4, 22796, Note_off_c, 0, 68, 0
4, 22800, Note_on_c, 0, 78, 88
4, 22916, Note_off_c, 0, 78, 0
4, 22920, Note_on_c, 0, 75, 88
4, 23036, Note_off_c, 0, 75, 0
4, 23040, Note_on_c, 0, 77, 88
4, 23265, Note_off_c, 0, 77, 0
4, 23280, Note_on_c, 0, 77, 88
4, 23396, Note_off_c, 0, 77, 0
4, 23400, Note_on_c, 0, 79, 88
4, 23516, Note_off_c, 0, 79, 0
4, 23520, Note_on_c, 0, 75, 88
4, 23745, Note_off_c, 0, 75, 0
4, 23760, Note_on_c, 0, 75, 88
4, 23876, Note_off_c, 0, 75, 0
4, 23880, Note_on_c, 0, 77, 88
4, 23996, Note_off_c, 0, 77, 0
4, 24000, Note_on_c, 0, 73, 88
4, 24225, Note_off_c, 0, 73, 0
4, 24240, Note_on_c, 0, 73, 88
4, 24356, Note_off_c, 0, 73, 0
4, 24360, Note_on_c, 0, 82, 88
4, 24476, Note_off_c, 0, 82, 0
4, 24480, Note_on_c, 0, 72, 88
4, 24596, Note_off_c, 0, 72, 0
4, 24600, Note_on_c, 0, 73, 88
4, 24658, Note_off_c, 0, 73, 0
4, 24660, Note_on_c, 0, 70, 88
4, 24718, Note_off_c, 0, 70, 0
4, 24720, Note_on_c, 0, 72, 88
4, 24836, Note_off_c, 0, 72, 0
4, 24840, Note_on_c, 0, 80, 88
4, 24956, Note_off_c, 0, 80, 0
4, 24960, Note_on_c, 0, 70, 88
4, 25194, Note_off_c, 0, 70, 0
4, 25260, Note_on_c, 0, 75, 88
4, 25318, Note_off_c, 0, 75, 0
4, 25320, Note_on_c, 0, 77, 88
4, 25378, Note_off_c, 0, 77, 0
4, 25380, Note_on_c, 0, 79, 88
4, 25438, Note_off_c, 0, 79, 0
4, 25440, Note_on_c, 0, 80, 88
4, 25734, Note_off_c, 0, 80, 0
4, 25740, Note_on_c, 0, 79, 88
4, 25798, Note_off_c, 0, 79, 0
4, 25800, Note_on_c, 0, 77, 88
4, 25858, Note_off_c, 0, 77, 0
4, 25860, Note_on_c, 0, 80, 88
4, 25918, Note_off_c, 0, 80, 0
4, 25920, Note_on_c, 0, 79, 88
4, 26688, Note_off_c, 0, 79, 0
4, 26700, Note_on_c, 0, 72, 88
4, 26758, Note_off_c, 0, 72, 0
4, 26760, Note_on_c, 0, 77, 88
4, 26938, Note_off_c, 0, 77, 0
4, 26940, Note_on_c, 0, 75, 88
4, 26998, Note_off_c, 0, 75, 0
4, 27000, Note_on_c, 0, 73, 88
4, 27058, Note_off_c, 0, 73, 0
4, 27060, Note_on_c, 0, 77, 88
4, 27118, Note_off_c, 0, 77, 0
4, 27120, Note_on_c, 0, 75, 88
4, 27590, Note_off_c, 0, 75, 0
4, 27600, Note_on_c, 0, 73, 88
4, 27898, Note_off_c, 0, 73, 0
4, 27900, Note_on_c, 0, 72, 88
4, 27958, Note_off_c, 0, 72, 0
4, 27960, Note_on_c, 0, 70, 88
4, 28018, Note_off_c, 0, 70, 0
4, 28020, Note_on_c, 0, 73, 88
4, 28078, Note_off_c, 0, 73, 0
4, 28080, Note_on_c, 0, 72, 88
4, 28196, Note_off_c, 0, 72, 0
4, 28200, Note_on_c, 0, 77, 88
4, 28316, Note_off_c, 0, 77, 0
4, 28320, Note_on_c, 0, 73, 88
4, 28436, Note_off_c, 0, 73, 0
4, 28440, Note_on_c, 0, 70, 88
4, 28556, Note_off_c, 0, 70, 0
4, 28560, Note_on_c, 0, 78, 88
4, 28676, Note_off_c, 0, 78, 0
4, 28680, Note_on_c, 0, 75, 88
4, 28796, Note_off_c, 0, 75, 0
4, 28800, Note_on_c, 0, 77, 88
4, 29034, Note_off_c, 0, 77, 0
4, 29040, Note_on_c, 0, 80, 88
4, 29156, Note_off_c, 0, 80, 0
4, 29160, Note_on_c, 0, 77, 88
4, 29276, Note_off_c, 0, 77, 0
4, 29280, Note_on_c, 0, 79, 88
4, 29514, Note_off_c, 0, 79, 0
4, 29520, Note_on_c, 0, 82, 88
4, 29636, Note_off_c, 0, 82, 0
4, 29640, Note_on_c, 0, 79, 88
4, 29756, Note_off_c, 0, 79, 0
4, 29760, Note_on_c, 0, 80, 88
4, 29876, Note_off_c, 0, 80, 0
4, 29880, Note_on_c, 0, 77, 88
4, 29996, Note_off_c, 0, 77, 0
4, 30000, Note_on_c, 0, 73, 88
4, 30353, Note_off_c, 0, 73, 0
4, 30360, Note_on_c, 0, 75, 88
4, 30476, Note_off_c, 0, 75, 0
4, 30480, Note_on_c, 0, 72, 88
4, 30596, Note_off_c, 0, 72, 0
4, 30600, Note_on_c, 0, 77, 88
4, 30716, Note_off_c, 0, 77, 0
4, 30720, Note_on_c, 0, 72, 88
4, 30954, Note_off_c, 0, 72, 0
4, 30960, Note_on_c, 0, 70, 88
4, 31313, Note_off_c, 0, 70, 0
4, 31320, Note_on_c, 0, 68, 88
4, 31378, Note_off_c, 0, 68, 0
4, 31380, Note_on_c, 0, 67, 88
4, 31438, Note_off_c, 0, 67, 0
4, 31440, Note_on_c, 0, 68, 88
4, 31556, Note_off_c, 0, 68, 0
4, 31560, Note_on_c, 0, 75, 88
4, 31676, Note_off_c, 0, 75, 0
4, 31680, Note_on_c, 0, 72, 88
4, 31796, Note_off_c, 0, 72, 0
4, 31800, Note_on_c, 0, 68, 88
4, 31916, Note_off_c, 0, 68, 0
4, 31920, Note_on_c, 0, 77, 88
4, 32036, Note_off_c, 0, 77, 0
4, 32040, Note_on_c, 0, 73, 88
4, 32156, Note_off_c, 0, 73, 0
4, 32160, Note_on_c, 0, 75, 88
4, 32276, Note_off_c, 0, 75, 0
4, 32280, Note_on_c, 0, 67, 88
4, 32396, Note_off_c, 0, 67, 0
4, 32400, Note_on_c, 0, 68, 88
4, 32874, Note_off_c, 0, 68, 0
4, 32880, Note_on_c, 0, 67, 88
4, 33114, Note_off_c, 0, 67, 0
4, 33120, Note_on_c, 0, 68, 88
4, 33590, Note_off_c, 0, 68, 0
4, 33590, End_track
5, 0, Start_track
5, 0, Title_t, "Track 2"
5, 0, Program_c, 1, 6
5, 5040, Note_on_c, 1, 63, 88
5, 5156, Note_off_c, 1, 63, 0
5, 5160, Note_on_c, 1, 68, 88
5, 5276, Note_off_c, 1, 68, 0
5, 5280, Note_on_c, 1, 67, 88
5, 5396, Note_off_c, 1, 67, 0
5, 5400, Note_on_c, 1, 63, 88
5, 5516, Note_off_c, 1, 63, 0
5, 5520, Note_on_c, 1, 72, 88
5, 5636, Note_off_c, 1, 72, 0
5, 5640, Note_on_c, 1, 68, 88
5, 5756, Note_off_c, 1, 68, 0
5, 5760, Note_on_c, 1, 70, 88
5, 6054, Note_off_c, 1, 70, 0
5, 6060, Note_on_c, 1, 63, 88
5, 6118, Note_off_c, 1, 63, 0
5, 6120, Note_on_c, 1, 65, 88
5, 6178, Note_off_c, 1, 65, 0
5, 6180, Note_on_c, 1, 67, 88
5, 6238, Note_off_c, 1, 67, 0
5, 6240, Note_on_c, 1, 68, 88
5, 6298, Note_off_c, 1, 68, 0
5, 6300, Note_on_c, 1, 70, 88
5, 6358, Note_off_c, 1, 70, 0
5, 6360, Note_on_c, 1, 72, 88
5, 6418, Note_off_c, 1, 72, 0
5, 6420, Note_on_c, 1, 70, 88
5, 6478, Note_off_c, 1, 70, 0
5, 6480, Note_on_c, 1, 68, 88
5, 6538, Note_off_c, 1, 68, 0
5, 6540, Note_on_c, 1, 67, 88
5, 6598, Note_off_c, 1, 67, 0
5, 6600, Note_on_c, 1, 65, 88
5, 6658, Note_off_c, 1, 65, 0
5, 6660, Note_on_c, 1, 68, 88
5, 6718, Note_off_c, 1, 68, 0
5, 6720, Note_on_c, 1, 67, 88
5, 7190, Note_off_c, 1, 67, 0
5, 7200, Note_on_c, 1, 65, 88
5, 7670, Note_off_c, 1, 65, 0
5, 7740, Note_on_c, 1, 63, 88
5, 7798, Note_off_c, 1, 63, 0
5, 7800, Note_on_c, 1, 65, 88
5, 7858, Note_off_c, 1, 65, 0
5, 7860, Note_on_c, 1, 67, 88
5, 7918, Note_off_c, 1, 67, 0
5, 7920, Note_on_c, 1, 68, 88
5, 8385, Note_off_c, 1, 68, 0
5, 8400, Note_on_c, 1, 68, 88
5, 8429, Note_off_c, 1, 68, 0
5, 8430, Note_on_c, 1, 67, 88
5, 8459, Note_off_c, 1, 67, 0
5, 8460, Note_on_c, 1, 68, 88
5, 8489, Note_off_c, 1, 68, 0
5, 8490, Note_on_c, 1, 67, 88
5, 8512, Note_off_c, 1, 67, 0
5, 8513, Note_on_c, 1, 68, 88
5, 8534, Note_off_c, 1, 68, 0
5, 8535, Note_on_c, 1, 67, 88
5, 8557, Note_off_c, 1, 67, 0
5, 8558, Note_on_c, 1, 68, 88
5, 8579, Note_off_c, 1, 68, 0
5, 8580, Note_on_c, 1, 67, 88
5, 8602, Note_off_c, 1, 67, 0
5, 8603, Note_on_c, 1, 65, 88
5, 8624, Note_off_c, 1, 65, 0
5, 8625, Note_on_c, 1, 67, 88
5, 8640, Note_off_c, 1, 67, 0
5, 8640, Note_on_c, 1, 68, 88
5, 8756, Note_off_c, 1, 68, 0
5, 8760, Note_on_c, 1, 67, 88
5, 8818, Note_off_c, 1, 67, 0
5, 8820, Note_on_c, 1, 65, 88
5, 8878, Note_off_c, 1, 65, 0
5, 8880, Note_on_c, 1, 63, 88
5, 8938, Note_off_c, 1, 63, 0
5, 8940, Note_on_c, 1, 61, 88
5, 8998, Note_off_c, 1, 61, 0
5, 9000, Note_on_c, 1, 60, 88
5, 9058, Note_off_c, 1, 60, 0
5, 9060, Note_on_c, 1, 61, 88
5, 9118, Note_off_c, 1, 61, 0
5, 9120, Note_on_c, 1, 63, 88
5, 9236, Note_off_c, 1, 63, 0
5, 9480, Note_on_c, 1, 56, 88
5, 9596, Note_off_c, 1, 56, 0
5, 9600, Note_on_c, 1, 68, 88
5, 9716, Note_off_c, 1, 68, 0
5, 11760, Note_on_c, 1, 65, 88
5, 11876, Note_off_c, 1, 65, 0
5, 11880, Note_on_c, 1, 72, 88
5, 11996, Note_off_c, 1, 72, 0
5, 12000, Note_on_c, 1, 68, 88
5, 12116, Note_off_c, 1, 68, 0
5, 12120, Note_on_c, 1, 65, 88
5, 12236, Note_off_c, 1, 65, 0
5, 12240, Note_on_c, 1, 73, 88
5, 12356, Note_off_c, 1, 73, 0
5, 12360, Note_on_c, 1, 70, 88
5, 12476, Note_off_c, 1, 70, 0
5, 12480, Note_on_c, 1, 72, 88
5, 12596, Note_off_c, 1, 72, 0
5, 12600, Note_on_c, 1, 74, 88
5, 12658, Note_off_c, 1, 74, 0
5, 12660, Note_on_c, 1, 76, 88
5, 12718, Note_off_c, 1, 76, 0
5, 12720, Note_on_c, 1, 77, 88
5, 12836, Note_off_c, 1, 77, 0
5, 12840, Note_on_c, 1, 72, 88
5, 12956, Note_off_c, 1, 72, 0
5, 12960, Note_on_c, 1, 73, 88
5, 13076, Note_off_c, 1, 73, 0
5, 13080, Note_on_c, 1, 70, 88
5, 13196, Note_off_c, 1, 70, 0
5, 13200, Note_on_c, 1, 75, 88
5, 13316, Note_off_c, 1, 75, 0
5, 13320, Note_on_c, 1, 70, 88
5, 13436, Note_off_c, 1, 70, 0
5, 13440, Note_on_c, 1, 72, 88
5, 13556, Note_off_c, 1, 72, 0
5, 13560, Note_on_c, 1, 68, 88
5, 13676, Note_off_c, 1, 68, 0
5, 13680, Note_on_c, 1, 73, 88
5, 13796, Note_off_c, 1, 73, 0
5, 13800, Note_on_c, 1, 68, 88
5, 13916, Note_off_c, 1, 68, 0
5, 13920, Note_on_c, 1, 70, 88
5, 13978, Note_off_c, 1, 70, 0
5, 13980, Note_on_c, 1, 72, 88
5, 14038, Note_off_c, 1, 72, 0
5, 14040, Note_on_c, 1, 73, 88
5, 14098, Note_off_c, 1, 73, 0
5, 14100, Note_on_c, 1, 72, 88
5, 14158, Note_off_c, 1, 72, 0
5, 14160, Note_on_c, 1, 70, 88
5, 14218, Note_off_c, 1, 70, 0
5, 14220, Note_on_c, 1, 68, 88
5, 14278, Note_off_c, 1, 68, 0
5, 14280, Note_on_c, 1, 67, 88
5, 14338, Note_off_c, 1, 67, 0
5, 14340, Note_on_c, 1, 70, 88
5, 14398, Note_off_c, 1, 70, 0
5, 14400, Note_on_c, 1, 68, 88
5, 14634, Note_off_c, 1, 68, 0
5, 16560, Note_on_c, 1, 65, 88
5, 16676, Note_off_c, 1, 65, 0
5, 16680, Note_on_c, 1, 70, 88
5, 16796, Note_off_c, 1, 70, 0
5, 16800, Note_on_c, 1, 66, 88
5, 16916, Note_off_c, 1, 66, 0
5, 16920, Note_on_c, 1, 63, 88
5, 17036, Note_off_c, 1, 63, 0
5, 17040, Note_on_c, 1, 72, 88
5, 17156, Note_off_c, 1, 72, 0
5, 17160, Note_on_c, 1, 69, 88
5, 17276, Note_off_c, 1, 69, 0
5, 17280, Note_on_c, 1, 70, 88
5, 17514, Note_off_c, 1, 70, 0
5, 17580, Note_on_c, 1, 65, 88
5, 17638, Note_off_c, 1, 65, 0
5, 17640, Note_on_c, 1, 66, 88
5, 17698, Note_off_c, 1, 66, 0
5, 17700, Note_on_c, 1, 68, 88
5, 17758, Note_off_c, 1, 68, 0
5, 17760, Note_on_c, 1, 70, 88
5, 17818, Note_off_c, 1, 70, 0
5, 17820, Note_on_c, 1, 68, 88
5, 17878, Note_off_c, 1, 68, 0
5, 17880, Note_on_c, 1, 66, 88
5, 17938, Note_off_c, 1, 66, 0
5, 17940, Note_on_c, 1, 65, 88
5, 17998, Note_off_c, 1, 65, 0
5, 18000, Note_on_c, 1, 63, 88
5, 18058, Note_off_c, 1, 63, 0
5, 18060, Note_on_c, 1, 65, 88
5, 18118, Note_off_c, 1, 65, 0
5, 18120, Note_on_c, 1, 66, 88
5, 18178, Note_off_c, 1, 66, 0
5, 18180, Note_on_c, 1, 70, 88
5, 18238, Note_off_c, 1, 70, 0
5, 18240, Note_on_c, 1, 68, 88
5, 18298, Note_off_c, 1, 68, 0
5, 18300, Note_on_c, 1, 66, 88
5, 18358, Note_off_c, 1, 66, 0
5, 18360, Note_on_c, 1, 65, 88
5, 18418, Note_off_c, 1, 65, 0
5, 18420, Note_on_c, 1, 63, 88
5, 18478, Note_off_c, 1, 63, 0
5, 18480, Note_on_c, 1, 61, 88
5, 18538, Note_off_c, 1, 61, 0
5, 18540, Note_on_c, 1, 63, 88
5, 18598, Note_off_c, 1, 63, 0
5, 18600, Note_on_c, 1, 65, 88
5, 18658, Note_off_c, 1, 65, 0
5, 18660, Note_on_c, 1, 68, 88
5, 18718, Note_off_c, 1, 68, 0
5, 18720, Note_on_c, 1, 66, 88
5, 18778, Note_off_c, 1, 66, 0
5, 18780, Note_on_c, 1, 65, 88
5, 18838, Note_off_c, 1, 65, 0
5, 18840, Note_on_c, 1, 63, 88
5, 18898, Note_off_c, 1, 63, 0
5, 18900, Note_on_c, 1, 61, 88
5, 18958, Note_off_c, 1, 61, 0
5, 18960, Note_on_c, 1, 60, 88
5, 19018, Note_off_c, 1, 60, 0
5, 19020, Note_on_c, 1, 61, 88
5, 19078, Note_off_c, 1, 61, 0
5, 19080, Note_on_c, 1, 63, 88
5, 19138, Note_off_c, 1, 63, 0
5, 19140, Note_on_c, 1, 66, 88
5, 19198, Note_off_c, 1, 66, 0
5, 19200, Note_on_c, 1, 65, 88
5, 19425, Note_off_c, 1, 65, 0
5, 19440, Note_on_c, 1, 65, 88
5, 19556, Note_off_c, 1, 65, 0
5, 19560, Note_on_c, 1, 70, 88
5, 19676, Note_off_c, 1, 70, 0
5, 19680, Note_on_c, 1, 67, 88
5, 19796, Note_off_c, 1, 67, 0
5, 19800, Note_on_c, 1, 63, 88
5, 20034, Note_off_c, 1, 63, 0
5, 20040, Note_on_c, 1, 68, 88
5, 20156, Note_off_c, 1, 68, 0
5, 20160, Note_on_c, 1, 65, 88
5, 20276, Note_off_c, 1, 65, 0
5, 20280, Note_on_c, 1, 62, 88
5, 20396, Note_off_c, 1, 62, 0
5, 20520, Note_on_c, 1, 67, 88
5, 20636, Note_off_c, 1, 67, 0
5, 20640, Note_on_c, 1, 68, 88
5, 20698, Note_off_c, 1, 68, 0
5, 20700, Note_on_c, 1, 70, 88
5, 20758, Note_off_c, 1, 70, 0
5, 20760, Note_on_c, 1, 72, 88
5, 20818, Note_off_c, 1, 72, 0
5, 20820, Note_on_c, 1, 70, 88
5, 20878, Note_off_c, 1, 70, 0
5, 20880, Note_on_c, 1, 68, 88
5, 20938, Note_off_c, 1, 68, 0
5, 20940, Note_on_c, 1, 67, 88
5, 20998, Note_off_c, 1, 67, 0
5, 21000, Note_on_c, 1, 65, 88
5, 21058, Note_off_c, 1, 65, 0
5, 21060, Note_on_c, 1, 68, 88
5, 21118, Note_off_c, 1, 68, 0
5, 21120, Note_on_c, 1, 67, 88
5, 21178, Note_off_c, 1, 67, 0
5, 21180, Note_on_c, 1, 68, 88
5, 21238, Note_off_c, 1, 68, 0
5, 21240, Note_on_c, 1, 70, 88
5, 21298, Note_off_c, 1, 70, 0
5, 21300, Note_on_c, 1, 67, 88
5, 21358, Note_off_c, 1, 67, 0
5, 21360, Note_on_c, 1, 63, 88
5, 21476, Note_off_c, 1, 63, 0
5, 21480, Note_on_c, 1, 70, 88
5, 21596, Note_off_c, 1, 70, 0
5, 21600, Note_on_c, 1, 67, 88
5, 21716, Note_off_c, 1, 67, 0
5, 21720, Note_on_c, 1, 63, 88
5, 21836, Note_off_c, 1, 63, 0
5, 21840, Note_on_c, 1, 73, 88
5, 21956, Note_off_c, 1, 73, 0
5, 21960, Note_on_c, 1, 70, 88
5, 22076, Note_off_c, 1, 70, 0
5, 22080, Note_on_c, 1, 72, 88
5, 22314, Note_off_c, 1, 72, 0
5, 22800, Note_on_c, 1, 72, 88
5, 22916, Note_off_c, 1, 72, 0
5, 22920, Note_on_c, 1, 75, 88
5, 23156, Note_off_c, 1, 75, 0
5, 23160, Note_on_c, 1, 68, 88
5, 23276, Note_off_c, 1, 68, 0
5, 23280, Note_on_c, 1, 70, 88
5, 23396, Note_off_c, 1, 70, 0
5, 23400, Note_on_c, 1, 73, 88
5, 23634, Note_off_c, 1, 73, 0
5, 23640, Note_on_c, 1, 67, 88
5, 23756, Note_off_c, 1, 67, 0
5, 23760, Note_on_c, 1, 69, 88
5, 23876, Note_off_c, 1, 69, 0
5, 23880, Note_on_c, 1, 72, 88
5, 24116, Note_off_c, 1, 72, 0
5, 24120, Note_on_c, 1, 65, 88
5, 24236, Note_off_c, 1, 65, 0
5, 24240, Note_on_c, 1, 70, 88
5, 24710, Note_off_c, 1, 70, 0
5, 24720, Note_on_c, 1, 68, 88
5, 25018, Note_off_c, 1, 68, 0
5, 25020, Note_on_c, 1, 67, 88
5, 25078, Note_off_c, 1, 67, 0
5, 25080, Note_on_c, 1, 68, 88
5, 25138, Note_off_c, 1, 68, 0
5, 25140, Note_on_c, 1, 70, 88
5, 25198, Note_off_c, 1, 70, 0
5, 25200, Note_on_c, 1, 72, 88
5, 25494, Note_off_c, 1, 72, 0
5, 25500, Note_on_c, 1, 73, 88
5, 25558, Note_off_c, 1, 73, 0
5, 25560, Note_on_c, 1, 75, 88
5, 25618, Note_off_c, 1, 75, 0
5, 25620, Note_on_c, 1, 72, 88
5, 25678, Note_off_c, 1, 72, 0
5, 25680, Note_on_c, 1, 73, 88
5, 25978, Note_off_c, 1, 73, 0
5, 25980, Note_on_c, 1, 72, 88
5, 26038, Note_off_c, 1, 72, 0
5, 26040, Note_on_c, 1, 70, 88
5, 26098, Note_off_c, 1, 70, 0
5, 26100, Note_on_c, 1, 73, 88
5, 26158, Note_off_c, 1, 73, 0
5, 26160, Note_on_c, 1, 72, 88
5, 26454, Note_off_c, 1, 72, 0
5, 26460, Note_on_c, 1, 70, 88
5, 26518, Note_off_c, 1, 70, 0
5, 26520, Note_on_c, 1, 68, 88
5, 26578, Note_off_c, 1, 68, 0
5, 26580, Note_on_c, 1, 67, 88
5, 26638, Note_off_c, 1, 67, 0
5, 26640, Note_on_c, 1, 68, 88
5, 26805, Note_off_c, 1, 68, 0
5, 26820, Note_on_c, 1, 68, 88
5, 26878, Note_off_c, 1, 68, 0
5, 26880, Note_on_c, 1, 67, 88
5, 26996, Note_off_c, 1, 67, 0
5, 27120, Note_on_c, 1, 63, 88
5, 27236, Note_off_c, 1, 63, 0
5, 27240, Note_on_c, 1, 68, 88
5, 27356, Note_off_c, 1, 68, 0
5, 27360, Note_on_c, 1, 65, 88
5, 27476, Note_off_c, 1, 65, 0
5, 27480, Note_on_c, 1, 61, 88
5, 27596, Note_off_c, 1, 61, 0
5, 27600, Note_on_c, 1, 70, 88
5, 27716, Note_off_c, 1, 70, 0
5, 27720, Note_on_c, 1, 67, 88
5, 27836, Note_off_c, 1, 67, 0
5, 27840, Note_on_c, 1, 68, 88
5, 28074, Note_off_c, 1, 68, 0
5, 28680, Note_on_c, 1, 75, 88
5, 28796, Note_off_c, 1, 75, 0
5, 28800, Note_on_c, 1, 75, 88
5, 28916, Note_off_c, 1, 75, 0
5, 28920, Note_on_c, 1, 73, 88
5, 29036, Note_off_c, 1, 73, 0
5, 29160, Note_on_c, 1, 77, 88
5, 29265, Note_off_c, 1, 77, 0
5, 29280, Note_on_c, 1, 77, 88
5, 29396, Note_off_c, 1, 77, 0
5, 29400, Note_on_c, 1, 75, 88
5, 29516, Note_off_c, 1, 75, 0
5, 29640, Note_on_c, 1, 79, 88
5, 29756, Note_off_c, 1, 79, 0
5, 29760, Note_on_c, 1, 77, 88
5, 29876, Note_off_c, 1, 77, 0
5, 30120, Note_on_c, 1, 70, 88
5, 30236, Note_off_c, 1, 70, 0
5, 30240, Note_on_c, 1, 67, 88
5, 30356, Note_off_c, 1, 67, 0
5, 30360, Note_on_c, 1, 70, 88
5, 30476, Note_off_c, 1, 70, 0
5, 30480, Note_on_c, 1, 72, 88
5, 30596, Note_off_c, 1, 72, 0
5, 30600, Note_on_c, 1, 68, 88
5, 30716, Note_off_c, 1, 68, 0
5, 30720, Note_on_c, 1, 68, 88
5, 31073, Note_off_c, 1, 68, 0
5, 31080, Note_on_c, 1, 67, 88
5, 31196, Note_off_c, 1, 67, 0
5, 31200, Note_on_c, 1, 65, 88
5, 31434, Note_off_c, 1, 65, 0
5, 31560, Note_on_c, 1, 70, 88
5, 31676, Note_off_c, 1, 70, 0
5, 31680, Note_on_c, 1, 68, 88
5, 31796, Note_off_c, 1, 68, 0
5, 32040, Note_on_c, 1, 70, 88
5, 32145, Note_off_c, 1, 70, 0
5, 32160, Note_on_c, 1, 70, 88
5, 32276, Note_off_c, 1, 70, 0
5, 32520, Note_on_c, 1, 65, 88
5, 32636, Note_off_c, 1, 65, 0
5, 32640, Note_on_c, 1, 58, 88
5, 32698, Note_off_c, 1, 58, 0
5, 32700, Note_on_c, 1, 60, 88
5, 32758, Note_off_c, 1, 60, 0
5, 32760, Note_on_c, 1, 61, 88
5, 32818, Note_off_c, 1, 61, 0
5, 32820, Note_on_c, 1, 65, 88
5, 32878, Note_off_c, 1, 65, 0
5, 32880, Note_on_c, 1, 63, 88
5, 32938, Note_off_c, 1, 63, 0
5, 32940, Note_on_c, 1, 61, 88
5, 32998, Note_off_c, 1, 61, 0
5, 33000, Note_on_c, 1, 60, 88
5, 33058, Note_off_c, 1, 60, 0
5, 33060, Note_on_c, 1, 61, 88
5, 33118, Note_off_c, 1, 61, 0
5, 33120, Note_on_c, 1, 60, 88
5, 33590, Note_off_c, 1, 60, 0
5, 33590, End_track
6, 0, Start_track
6, 0, Title_t, "Track 3"
6, 0, Program_c, 2, 6
6, 240, Note_on_c, 2, 56, 88
6, 356, Note_off_c, 2, 56, 0
6, 360, Note_on_c, 2, 63, 88
6, 476, Note_off_c, 2, 63, 0
6, 480, Note_on_c, 2, 60, 88
6, 596, Note_off_c, 2, 60, 0
6, 600, Note_on_c, 2, 56, 88
6, 716, Note_off_c, 2, 56, 0
6, 720, Note_on_c, 2, 65, 88
6, 836, Note_off_c, 2, 65, 0
6, 840, Note_on_c, 2, 61, 88
6, 956, Note_off_c, 2, 61, 0
6, 960, Note_on_c, 2, 63, 88
6, 1254, Note_off_c, 2, 63, 0
6, 1260, Note_on_c, 2, 61, 88
6, 1318, Note_off_c, 2, 61, 0
6, 1320, Note_on_c, 2, 60, 88
6, 1378, Note_off_c, 2, 60, 0
6, 1380, Note_on_c, 2, 61, 88
6, 1438, Note_off_c, 2, 61, 0
6, 1440, Note_on_c, 2, 63, 88
6, 1498, Note_off_c, 2, 63, 0
6, 1500, Note_on_c, 2, 65, 88
6, 1558, Note_off_c, 2, 65, 0
6, 1560, Note_on_c, 2, 67, 88
6, 1618, Note_off_c, 2, 67, 0
6, 1620, Note_on_c, 2, 63, 88
6, 1678, Note_off_c, 2, 63, 0
6, 1680, Note_on_c, 2, 68, 88
6, 1738, Note_off_c, 2, 68, 0
6, 1740, Note_on_c, 2, 70, 88
6, 1798, Note_off_c, 2, 70, 0
6, 1800, Note_on_c, 2, 72, 88
6, 1858, Note_off_c, 2, 72, 0
6, 1860, Note_on_c, 2, 70, 88
6, 1918, Note_off_c, 2, 70, 0
6, 1920, Note_on_c, 2, 68, 88
6, 1978, Note_off_c, 2, 68, 0
6, 1980, Note_on_c, 2, 67, 88
6, 2038, Note_off_c, 2, 67, 0
6, 2040, Note_on_c, 2, 65, 88
6, 2098, Note_off_c, 2, 65, 0
6, 2100, Note_on_c, 2, 68, 88
6, 2158, Note_off_c, 2, 68, 0
6, 2160, Note_on_c, 2, 67, 88
6, 2630, Note_off_c, 2, 67, 0
6, 2640, Note_on_c, 2, 65, 88
6, 2938, Note_off_c, 2, 65, 0
6, 2940, Note_on_c, 2, 63, 88
6, 2998, Note_off_c, 2, 63, 0
6, 3000, Note_on_c, 2, 62, 88
6, 3058, Note_off_c, 2, 62, 0
6, 3060, Note_on_c, 2, 65, 88
6, 3118, Note_off_c, 2, 65, 0
6, 3120, Note_on_c, 2, 63, 88
6, 3473, Note_off_c, 2, 63, 0
6, 3480, Note_on_c, 2, 61, 88
6, 3538, Note_off_c, 2, 61, 0
6, 3540, Note_on_c, 2, 60, 88
6, 3598, Note_off_c, 2, 60, 0
6, 3600, Note_on_c, 2, 61, 88
6, 3658, Note_off_c, 2, 61, 0
6, 3660, Note_on_c, 2, 65, 88
6, 3718, Note_off_c, 2, 65, 0
6, 3720, Note_on_c, 2, 70, 88
6, 3778, Note_off_c, 2, 70, 0
6, 3780, Note_on_c, 2, 68, 88
6, 3838, Note_off_c, 2, 68, 0
6, 3840, Note_on_c, 2, 67, 88
6, 3898, Note_off_c, 2, 67, 0
6, 3900, Note_on_c, 2, 65, 88
6, 3958, Note_off_c, 2, 65, 0
6, 3960, Note_on_c, 2, 63, 88
6, 4018, Note_off_c, 2, 63, 0
6, 4020, Note_on_c, 2, 61, 88
6, 4078, Note_off_c, 2, 61, 0
6, 4080, Note_on_c, 2, 60, 88
6, 4138, Note_off_c, 2, 60, 0
6, 4140, Note_on_c, 2, 58, 88
6, 4198, Note_off_c, 2, 58, 0
6, 4200, Note_on_c, 2, 60, 88
6, 4258, Note_off_c, 2, 60, 0
6, 4260, Note_on_c, 2, 61, 88
6, 4318, Note_off_c, 2, 61, 0
6, 4320, Note_on_c, 2, 63, 88
6, 4554, Note_off_c, 2, 63, 0
6, 4560, Note_on_c, 2, 56, 88
6, 4794, Note_off_c, 2, 56, 0
6, 4800, Note_on_c, 2, 55, 88
6, 5034, Note_off_c, 2, 55, 0
6, 5040, Note_on_c, 2, 56, 88
6, 5098, Note_off_c, 2, 56, 0
6, 5100, Note_on_c, 2, 58, 88
6, 5158, Note_off_c, 2, 58, 0
6, 5160, Note_on_c, 2, 60, 88
6, 5276, Note_off_c, 2, 60, 0
6, 5280, Note_on_c, 2, 58, 88
6, 5445, Note_off_c, 2, 58, 0
6, 5460, Note_on_c, 2, 58, 88
6, 5518, Note_off_c, 2, 58, 0
6, 5520, Note_on_c, 2, 56, 88
6, 5636, Note_off_c, 2, 56, 0
6, 5640, Note_on_c, 2, 60, 88
6, 5756, Note_off_c, 2, 60, 0
6, 5760, Note_on_c, 2, 53, 88
6, 5876, Note_off_c, 2, 53, 0
6, 8880, Note_on_c, 2, 56, 88
6, 8996, Note_off_c, 2, 56, 0
6, 9000, Note_on_c, 2, 63, 88
6, 9116, Note_off_c, 2, 63, 0
6, 9120, Note_on_c, 2, 60, 88
6, 9236, Note_off_c, 2, 60, 0
6, 9240, Note_on_c, 2, 56, 88
6, 9356, Note_off_c, 2, 56, 0
6, 9360, Note_on_c, 2, 65, 88
6, 9476, Note_off_c, 2, 65, 0
6, 9480, Note_on_c, 2, 61, 88
6, 9596, Note_off_c, 2, 61, 0
6, 9600, Note_on_c, 2, 63, 88
6, 9825, Note_off_c, 2, 63, 0
6, 9840, Note_on_c, 2, 63, 88
6, 10310, Note_off_c, 2, 63, 0
6, 10320, Note_on_c, 2, 61, 88
6, 10794, Note_off_c, 2, 61, 0
6, 10800, Note_on_c, 2, 60, 88
6, 11270, Note_off_c, 2, 60, 0
6, 11280, Note_on_c, 2, 58, 88
6, 11754, Note_off_c, 2, 58, 0
6, 11760, Note_on_c, 2, 56, 88
6, 11876, Note_off_c, 2, 56, 0
6, 11880, Note_on_c, 2, 55, 88
6, 12055, Note_off_c, 2, 55, 0
6, 12060, Note_on_c, 2, 58, 88
6, 12118, Note_off_c, 2, 58, 0
6, 12120, Note_on_c, 2, 56, 88
6, 12178, Note_off_c, 2, 56, 0
6, 12180, Note_on_c, 2, 55, 88
6, 12238, Note_off_c, 2, 55, 0
6, 12240, Note_on_c, 2, 53, 88
6, 12298, Note_off_c, 2, 53, 0
6, 12300, Note_on_c, 2, 52, 88
6, 12358, Note_off_c, 2, 52, 0
6, 12360, Note_on_c, 2, 53, 88
6, 12418, Note_off_c, 2, 53, 0
6, 12420, Note_on_c, 2, 55, 88
6, 12478, Note_off_c, 2, 55, 0
6, 12480, Note_on_c, 2, 56, 88
6, 12538, Note_off_c, 2, 56, 0
6, 12540, Note_on_c, 2, 58, 88
6, 12598, Note_off_c, 2, 58, 0
6, 12600, Note_on_c, 2, 56, 88
6, 12658, Note_off_c, 2, 56, 0
6, 12660, Note_on_c, 2, 55, 88
6, 12718, Note_off_c, 2, 55, 0
6, 12720, Note_on_c, 2, 53, 88
6, 12836, Note_off_c, 2, 53, 0
6, 15600, Note_on_c, 2, 58, 88
6, 15716, Note_off_c, 2, 58, 0
6, 15720, Note_on_c, 2, 65, 88
6, 15836, Note_off_c, 2, 65, 0
6, 15840, Note_on_c, 2, 61, 88
6, 15956, Note_off_c, 2, 61, 0
6, 15960, Note_on_c, 2, 58, 88
6, 16076, Note_off_c, 2, 58, 0
6, 16080, Note_on_c, 2, 66, 88
6, 16196, Note_off_c, 2, 66, 0
6, 16200, Note_on_c, 2, 63, 88
6, 16316, Note_off_c, 2, 63, 0
6, 16320, Note_on_c, 2, 65, 88
6, 16554, Note_off_c, 2, 65, 0
6, 16560, Note_on_c, 2, 58, 88
6, 17030, Note_off_c, 2, 58, 0
6, 17040, Note_on_c, 2, 57, 88
6, 17098, Note_off_c, 2, 57, 0
6, 17100, Note_on_c, 2, 58, 88
6, 17158, Note_off_c, 2, 58, 0
6, 17160, Note_on_c, 2, 60, 88
6, 17218, Note_off_c, 2, 60, 0
6, 17220, Note_on_c, 2, 57, 88
6, 17278, Note_off_c, 2, 57, 0
6, 17280, Note_on_c, 2, 53, 88
6, 17396, Note_off_c, 2, 53, 0
6, 17400, Note_on_c, 2, 58, 88
6, 17458, Note_off_c, 2, 58, 0
6, 17460, Note_on_c, 2, 60, 88
6, 17518, Note_off_c, 2, 60, 0
6, 17520, Note_on_c, 2, 61, 88
6, 17990, Note_off_c, 2, 61, 0
6, 18000, Note_on_c, 2, 60, 88
6, 18474, Note_off_c, 2, 60, 0
6, 18480, Note_on_c, 2, 58, 88
6, 18950, Note_off_c, 2, 58, 0
6, 18960, Note_on_c, 2, 57, 88
6, 19194, Note_off_c, 2, 57, 0
6, 19200, Note_on_c, 2, 58, 88
6, 19258, Note_off_c, 2, 58, 0
6, 19260, Note_on_c, 2, 63, 88
6, 19318, Note_off_c, 2, 63, 0
6, 19320, Note_on_c, 2, 61, 88
6, 19378, Note_off_c, 2, 61, 0
6, 19380, Note_on_c, 2, 60, 88
6, 19438, Note_off_c, 2, 60, 0
6, 19440, Note_on_c, 2, 58, 88
6, 19498, Note_off_c, 2, 58, 0
6, 19500, Note_on_c, 2, 56, 88
6, 19558, Note_off_c, 2, 56, 0
6, 19560, Note_on_c, 2, 55, 88
6, 19618, Note_off_c, 2, 55, 0
6, 19620, Note_on_c, 2, 53, 88
6, 19678, Note_off_c, 2, 53, 0
6, 19680, Note_on_c, 2, 51, 88
6, 19738, Note_off_c, 2, 51, 0
6, 19740, Note_on_c, 2, 61, 88
6, 19798, Note_off_c, 2, 61, 0
6, 19800, Note_on_c, 2, 60, 88
6, 19858, Note_off_c, 2, 60, 0
6, 19860, Note_on_c, 2, 58, 88
6, 19918, Note_off_c, 2, 58, 0
6, 19920, Note_on_c, 2, 56, 88
6, 19978, Note_off_c, 2, 56, 0
6, 19980, Note_on_c, 2, 55, 88
6, 20038, Note_off_c, 2, 55, 0
6, 20040, Note_on_c, 2, 53, 88
6, 20098, Note_off_c, 2, 53, 0
6, 20100, Note_on_c, 2, 55, 88
6, 20158, Note_off_c, 2, 55, 0
6, 20160, Note_on_c, 2, 56, 88
6, 20218, Note_off_c, 2, 56, 0
6, 20220, Note_on_c, 2, 60, 88
6, 20278, Note_off_c, 2, 60, 0
6, 20280, Note_on_c, 2, 58, 88
6, 20338, Note_off_c, 2, 58, 0
6, 20340, Note_on_c, 2, 56, 88
6, 20398, Note_off_c, 2, 56, 0
6, 20400, Note_on_c, 2, 55, 88
6, 20458, Note_off_c, 2, 55, 0
6, 20460, Note_on_c, 2, 53, 88
6, 20518, Note_off_c, 2, 53, 0
6, 20520, Note_on_c, 2, 51, 88
6, 20578, Note_off_c, 2, 51, 0
6, 20580, Note_on_c, 2, 49, 88
6, 20638, Note_off_c, 2, 49, 0
6, 20640, Note_on_c, 2, 48, 88
6, 20756, Note_off_c, 2, 48, 0
6, 20760, Note_on_c, 2, 56, 88
6, 20876, Note_off_c, 2, 56, 0
6, 20880, Note_on_c, 2, 58, 88
6, 20996, Note_off_c, 2, 58, 0
6, 21000, Note_on_c, 2, 46, 88
6, 21116, Note_off_c, 2, 46, 0
6, 21120, Note_on_c, 2, 51, 88
6, 21414, Note_off_c, 2, 51, 0
6, 21420, Note_on_c, 2, 53, 88
6, 21478, Note_off_c, 2, 53, 0
6, 21480, Note_on_c, 2, 55, 88
6, 21538, Note_off_c, 2, 55, 0
6, 21540, Note_on_c, 2, 56, 88
6, 21598, Note_off_c, 2, 56, 0
6, 21600, Note_on_c, 2, 58, 88
6, 21658, Note_off_c, 2, 58, 0
6, 21660, Note_on_c, 2, 60, 88
6, 21718, Note_off_c, 2, 60, 0
6, 21720, Note_on_c, 2, 61, 88
6, 21778, Note_off_c, 2, 61, 0
6, 21780, Note_on_c, 2, 60, 88
6, 21838, Note_off_c, 2, 60, 0
6, 21840, Note_on_c, 2, 58, 88
6, 21898, Note_off_c, 2, 58, 0
6, 21900, Note_on_c, 2, 56, 88
6, 21958, Note_off_c, 2, 56, 0
6, 21960, Note_on_c, 2, 55, 88
6, 22018, Note_off_c, 2, 55, 0
6, 22020, Note_on_c, 2, 58, 88
6, 22078, Note_off_c, 2, 58, 0
6, 22080, Note_on_c, 2, 56, 88
6, 22138, Note_off_c, 2, 56, 0
6, 22140, Note_on_c, 2, 51, 88
6, 22198, Note_off_c, 2, 51, 0
6, 22200, Note_on_c, 2, 53, 88
6, 22258, Note_off_c, 2, 53, 0
6, 22260, Note_on_c, 2, 55, 88
6, 22318, Note_off_c, 2, 55, 0
6, 22320, Note_on_c, 2, 56, 88
6, 22378, Note_off_c, 2, 56, 0
6, 22380, Note_on_c, 2, 58, 88
6, 22438, Note_off_c, 2, 58, 0
6, 22440, Note_on_c, 2, 60, 88
6, 22498, Note_off_c, 2, 60, 0
6, 22500, Note_on_c, 2, 61, 88
6, 22558, Note_off_c, 2, 61, 0
6, 22560, Note_on_c, 2, 63, 88
6, 22618, Note_off_c, 2, 63, 0
6, 22620, Note_on_c, 2, 65, 88
6, 22678, Note_off_c, 2, 65, 0
6, 22680, Note_on_c, 2, 66, 88
6, 22738, Note_off_c, 2, 66, 0
6, 22740, Note_on_c, 2, 65, 88
6, 22798, Note_off_c, 2, 65, 0
6, 22800, Note_on_c, 2, 63, 88
6, 22858, Note_off_c, 2, 63, 0
6, 22860, Note_on_c, 2, 61, 88
6, 22918, Note_off_c, 2, 61, 0
6, 22920, Note_on_c, 2, 60, 88
6, 22978, Note_off_c, 2, 60, 0
6, 22980, Note_on_c, 2, 63, 88
6, 23038, Note_off_c, 2, 63, 0
6, 23040, Note_on_c, 2, 61, 88
6, 23098, Note_off_c, 2, 61, 0
6, 23100, Note_on_c, 2, 63, 88
6, 23158, Note_off_c, 2, 63, 0
6, 23160, Note_on_c, 2, 65, 88
6, 23218, Note_off_c, 2, 65, 0
6, 23220, Note_on_c, 2, 63, 88
6, 23278, Note_off_c, 2, 63, 0
6, 23280, Note_on_c, 2, 61, 88
6, 23338, Note_off_c, 2, 61, 0
6, 23340, Note_on_c, 2, 60, 88
6, 23398, Note_off_c, 2, 60, 0
6, 23400, Note_on_c, 2, 58, 88
6, 23458, Note_off_c, 2, 58, 0
6, 23460, Note_on_c, 2, 61, 88
6, 23518, Note_off_c, 2, 61, 0
6, 23520, Note_on_c, 2, 60, 88
6, 23578, Note_off_c, 2, 60, 0
6, 23580, Note_on_c, 2, 61, 88
6, 23638, Note_off_c, 2, 61, 0
6, 23640, Note_on_c, 2, 63, 88
6, 23698, Note_off_c, 2, 63, 0
6, 23700, Note_on_c, 2, 61, 88
6, 23758, Note_off_c, 2, 61, 0
6, 23760, Note_on_c, 2, 60, 88
6, 23818, Note_off_c, 2, 60, 0
6, 23820, Note_on_c, 2, 58, 88
6, 23878, Note_off_c, 2, 58, 0
6, 23880, Note_on_c, 2, 57, 88
6, 23938, Note_off_c, 2, 57, 0
6, 23940, Note_on_c, 2, 60, 88
6, 23998, Note_off_c, 2, 60, 0
6, 24000, Note_on_c, 2, 58, 88
6, 24058, Note_off_c, 2, 58, 0
6, 24060, Note_on_c, 2, 60, 88
6, 24118, Note_off_c, 2, 60, 0
6, 24120, Note_on_c, 2, 61, 88
6, 24178, Note_off_c, 2, 61, 0
6, 24180, Note_on_c, 2, 60, 88
6, 24238, Note_off_c, 2, 60, 0
6, 24240, Note_on_c, 2, 58, 88
6, 24298, Note_off_c, 2, 58, 0
6, 24300, Note_on_c, 2, 56, 88
6, 24358, Note_off_c, 2, 56, 0
6, 24360, Note_on_c, 2, 55, 88
6, 24418, Note_off_c, 2, 55, 0
6, 24420, Note_on_c, 2, 58, 88
6, 24478, Note_off_c, 2, 58, 0
6, 24480, Note_on_c, 2, 56, 88
6, 24538, Note_off_c, 2, 56, 0
6, 24540, Note_on_c, 2, 58, 88
6, 24598, Note_off_c, 2, 58, 0
6, 24600, Note_on_c, 2, 56, 88
6, 24658, Note_off_c, 2, 56, 0
6, 24660, Note_on_c, 2, 55, 88
6, 24718, Note_off_c, 2, 55, 0
6, 24720, Note_on_c, 2, 53, 88
6, 24778, Note_off_c, 2, 53, 0
6, 24780, Note_on_c, 2, 51, 88
6, 24838, Note_off_c, 2, 51, 0
6, 24840, Note_on_c, 2, 53, 88
6, 24898, Note_off_c, 2, 53, 0
6, 24900, Note_on_c, 2, 49, 88
6, 24958, Note_off_c, 2, 49, 0
6, 24960, Note_on_c, 2, 51, 88
6, 25018, Note_off_c, 2, 51, 0
6, 25020, Note_on_c, 2, 49, 88
6, 25078, Note_off_c, 2, 49, 0
6, 25080, Note_on_c, 2, 48, 88
6, 25138, Note_off_c, 2, 48, 0
6, 25140, Note_on_c, 2, 46, 88
6, 25198, Note_off_c, 2, 46, 0
6, 25200, Note_on_c, 2, 44, 88
6, 25316, Note_off_c, 2, 44, 0
6, 26160, Note_on_c, 2, 55, 88
6, 26276, Note_off_c, 2, 55, 0
6, 26280, Note_on_c, 2, 60, 88
6, 26396, Note_off_c, 2, 60, 0
6, 26400, Note_on_c, 2, 56, 88
6, 26516, Note_off_c, 2, 56, 0
6, 26520, Note_on_c, 2, 53, 88
6, 26636, Note_off_c, 2, 53, 0
6, 26640, Note_on_c, 2, 62, 88
6, 26756, Note_off_c, 2, 62, 0
6, 26760, Note_on_c, 2, 59, 88
6, 26876, Note_off_c, 2, 59, 0
6, 26880, Note_on_c, 2, 60, 88
6, 26938, Note_off_c, 2, 60, 0
6, 26940, Note_on_c, 2, 51, 88
6, 26998, Note_off_c, 2, 51, 0
6, 27000, Note_on_c, 2, 53, 88
6, 27058, Note_off_c, 2, 53, 0
6, 27060, Note_on_c, 2, 55, 88
6, 27118, Note_off_c, 2, 55, 0
6, 27120, Note_on_c, 2, 56, 88
6, 27178, Note_off_c, 2, 56, 0
6, 27180, Note_on_c, 2, 58, 88
6, 27238, Note_off_c, 2, 58, 0
6, 27240, Note_on_c, 2, 60, 88
6, 27298, Note_off_c, 2, 60, 0
6, 27300, Note_on_c, 2, 58, 88
6, 27358, Note_off_c, 2, 58, 0
6, 27360, Note_on_c, 2, 56, 88
6, 27418, Note_off_c, 2, 56, 0
6, 27420, Note_on_c, 2, 55, 88
6, 27478, Note_off_c, 2, 55, 0
6, 27480, Note_on_c, 2, 53, 88
6, 27538, Note_off_c, 2, 53, 0
6, 27540, Note_on_c, 2, 55, 88
6, 27598, Note_off_c, 2, 55, 0
6, 27600, Note_on_c, 2, 56, 88
6, 27658, Note_off_c, 2, 56, 0
6, 27660, Note_on_c, 2, 55, 88
6, 27718, Note_off_c, 2, 55, 0
6, 27720, Note_on_c, 2, 53, 88
6, 27778, Note_off_c, 2, 53, 0
6, 27780, Note_on_c, 2, 51, 88
6, 27838, Note_off_c, 2, 51, 0
6, 27840, Note_on_c, 2, 53, 88
6, 27898, Note_off_c, 2, 53, 0
6, 27900, Note_on_c, 2, 51, 88
6, 27958, Note_off_c, 2, 51, 0
6, 27960, Note_on_c, 2, 49, 88
6, 28018, Note_off_c, 2, 49, 0
6, 28020, Note_on_c, 2, 53, 88
6, 28078, Note_off_c, 2, 53, 0
6, 28080, Note_on_c, 2, 51, 88
6, 28196, Note_off_c, 2, 51, 0
6, 28680, Note_on_c, 2, 72, 88
6, 28796, Note_off_c, 2, 72, 0
6, 28800, Note_on_c, 2, 68, 88
6, 29034, Note_off_c, 2, 68, 0
6, 29160, Note_on_c, 2, 74, 88
6, 29276, Note_off_c, 2, 74, 0
6, 29280, Note_on_c, 2, 70, 88
6, 29514, Note_off_c, 2, 70, 0
6, 29640, Note_on_c, 2, 76, 88
6, 29756, Note_off_c, 2, 76, 0
6, 29760, Note_on_c, 2, 72, 88
6, 29876, Note_off_c, 2, 72, 0
6, 30360, Note_on_c, 2, 67, 88
6, 30476, Note_off_c, 2, 67, 0
6, 30480, Note_on_c, 2, 68, 88
6, 30596, Note_off_c, 2, 68, 0
6, 30600, Note_on_c, 2, 65, 88
6, 30716, Note_off_c, 2, 65, 0
6, 30720, Note_on_c, 2, 63, 88
6, 30954, Note_off_c, 2, 63, 0
6, 30960, Note_on_c, 2, 61, 88
6, 31194, Note_off_c, 2, 61, 0
6, 31200, Note_on_c, 2, 60, 88
6, 31434, Note_off_c, 2, 60, 0
6, 31560, Note_on_c, 2, 63, 88
6, 31676, Note_off_c, 2, 63, 0
6, 31680, Note_on_c, 2, 63, 88
6, 31796, Note_off_c, 2, 63, 0
6, 32040, Note_on_c, 2, 65, 88
6, 32156, Note_off_c, 2, 65, 0
6, 32160, Note_on_c, 2, 63, 88
6, 32276, Note_off_c, 2, 63, 0
6, 32520, Note_on_c, 2, 58, 88
6, 32636, Note_off_c, 2, 58, 0
6, 32640, Note_on_c, 2, 58, 88
6, 32874, Note_off_c, 2, 58, 0
6, 32880, Note_on_c, 2, 51, 88
6, 33105, Note_off_c, 2, 51, 0
6, 33120, Note_on_c, 2, 51, 88
6, 33590, Note_off_c, 2, 51, 0
6, 33590, End_track
7, 0, Start_track
7, 0, Title_t, "Track 4"
7, 0, Program_c, 3, 6
7, 1200, Note_on_c, 3, 51, 88
7, 1316, Note_off_c, 3, 51, 0
7, 1320, Note_on_c, 3, 56, 88
7, 1436, Note_off_c, 3, 56, 0
7, 1440, Note_on_c, 3, 55, 88
7, 1556, Note_off_c, 3, 55, 0
7, 1560, Note_on_c, 3, 51, 88
7, 1676, Note_off_c, 3, 51, 0
7, 1680, Note_on_c, 3, 60, 88
7, 1796, Note_off_c, 3, 60, 0
7, 1800, Note_on_c, 3, 56, 88
7, 1916, Note_off_c, 3, 56, 0
7, 1920, Note_on_c, 3, 58, 88
7, 2036, Note_off_c, 3, 58, 0
7, 2040, Note_on_c, 3, 51, 88
7, 2156, Note_off_c, 3, 51, 0
7, 2160, Note_on_c, 3, 58, 88
7, 2276, Note_off_c, 3, 58, 0
7, 2280, Note_on_c, 3, 55, 88
7, 2396, Note_off_c, 3, 55, 0
7, 2400, Note_on_c, 3, 56, 88
7, 2516, Note_off_c, 3, 56, 0
7, 2520, Note_on_c, 3, 51, 88
7, 2636, Note_off_c, 3, 51, 0
7, 2640, Note_on_c, 3, 56, 88
7, 2756, Note_off_c, 3, 56, 0
7, 2760, Note_on_c, 3, 53, 88
7, 2876, Note_off_c, 3, 53, 0
7, 2880, Note_on_c, 3, 55, 88
7, 3174, Note_off_c, 3, 55, 0
7, 3180, Note_on_c, 3, 48, 88
7, 3238, Note_off_c, 3, 48, 0
7, 3240, Note_on_c, 3, 49, 88
7, 3298, Note_off_c, 3, 49, 0
7, 3300, Note_on_c, 3, 51, 88
7, 3358, Note_off_c, 3, 51, 0
7, 3360, Note_on_c, 3, 53, 88
7, 3418, Note_off_c, 3, 53, 0
7, 3420, Note_on_c, 3, 55, 88
7, 3478, Note_off_c, 3, 55, 0
7, 3480, Note_on_c, 3, 56, 88
7, 3538, Note_off_c, 3, 56, 0
7, 3540, Note_on_c, 3, 53, 88
7, 3598, Note_off_c, 3, 53, 0
7, 3600, Note_on_c, 3, 58, 88
7, 3658, Note_off_c, 3, 58, 0
7, 3660, Note_on_c, 3, 60, 88
7, 3718, Note_off_c, 3, 60, 0
7, 3720, Note_on_c, 3, 61, 88
7, 3778, Note_off_c, 3, 61, 0
7, 3780, Note_on_c, 3, 60, 88
7, 3838, Note_off_c, 3, 60, 0
7, 3840, Note_on_c, 3, 58, 88
7, 3898, Note_off_c, 3, 58, 0
7, 3900, Note_on_c, 3, 56, 88
7, 3958, Note_off_c, 3, 56, 0
7, 3960, Note_on_c, 3, 55, 88
7, 4018, Note_off_c, 3, 55, 0
7, 4020, Note_on_c, 3, 58, 88
7, 4078, Note_off_c, 3, 58, 0
7, 4080, Note_on_c, 3, 56, 88
7, 4374, Note_off_c, 3, 56, 0
7, 4380, Note_on_c, 3, 44, 88
7, 4438, Note_off_c, 3, 44, 0
7, 4440, Note_on_c, 3, 46, 88
7, 4498, Note_off_c, 3, 46, 0
7, 4500, Note_on_c, 3, 48, 88
7, 4558, Note_off_c, 3, 48, 0
7, 4560, Note_on_c, 3, 49, 88
7, 4618, Note_off_c, 3, 49, 0
7, 4620, Note_on_c, 3, 51, 88
7, 4678, Note_off_c, 3, 51, 0
7, 4680, Note_on_c, 3, 53, 88
7, 4738, Note_off_c, 3, 53, 0
7, 4740, Note_on_c, 3, 51, 88
7, 4798, Note_off_c, 3, 51, 0
7, 4800, Note_on_c, 3, 49, 88
7, 4858, Note_off_c, 3, 49, 0
7, 4860, Note_on_c, 3, 48, 88
7, 4918, Note_off_c, 3, 48, 0
7, 4920, Note_on_c, 3, 46, 88
7, 4978, Note_off_c, 3, 46, 0
7, 4980, Note_on_c, 3, 49, 88
7, 5038, Note_off_c, 3, 49, 0
7, 5040, Note_on_c, 3, 48, 88
7, 5215, Note_off_c, 3, 48, 0
7, 5220, Note_on_c, 3, 50, 88
7, 5278, Note_off_c, 3, 50, 0
7, 5280, Note_on_c, 3, 51, 88
7, 5338, Note_off_c, 3, 51, 0
7, 5340, Note_on_c, 3, 53, 88
7, 5398, Note_off_c, 3, 53, 0
7, 5400, Note_on_c, 3, 55, 88
7, 5565, Note_off_c, 3, 55, 0
7, 5580, Note_on_c, 3, 55, 88
7, 5638, Note_off_c, 3, 55, 0
7, 5640, Note_on_c, 3, 53, 88
7, 5698, Note_off_c, 3, 53, 0
7, 5700, Note_on_c, 3, 51, 88
7, 5758, Note_off_c, 3, 51, 0
7, 5760, Note_on_c, 3, 50, 88
7, 5818, Note_off_c, 3, 50, 0
7, 5820, Note_on_c, 3, 46, 88
7, 5878, Note_off_c, 3, 46, 0
7, 5880, Note_on_c, 3, 48, 88
7, 5938, Note_off_c, 3, 48, 0
7, 5940, Note_on_c, 3, 50, 88
7, 5998, Note_off_c, 3, 50, 0
7, 6000, Note_on_c, 3, 51, 88
7, 6353, Note_off_c, 3, 51, 0
7, 6360, Note_on_c, 3, 56, 88
7, 6476, Note_off_c, 3, 56, 0
7, 6480, Note_on_c, 3, 50, 88
7, 6596, Note_off_c, 3, 50, 0
7, 6600, Note_on_c, 3, 58, 88
7, 6716, Note_off_c, 3, 58, 0
7, 6720, Note_on_c, 3, 51, 88
7, 7005, Note_off_c, 3, 51, 0
7, 7020, Note_on_c, 3, 51, 88
7, 7078, Note_off_c, 3, 51, 0
7, 7080, Note_on_c, 3, 53, 88
7, 7138, Note_off_c, 3, 53, 0
7, 7140, Note_on_c, 3, 55, 88
7, 7198, Note_off_c, 3, 55, 0
7, 7200, Note_on_c, 3, 56, 88
7, 7258, Note_off_c, 3, 56, 0
7, 7260, Note_on_c, 3, 58, 88
7, 7318, Note_off_c, 3, 58, 0
7, 7320, Note_on_c, 3, 60, 88
7, 7378, Note_off_c, 3, 60, 0
7, 7380, Note_on_c, 3, 58, 88
7, 7438, Note_off_c, 3, 58, 0
7, 7440, Note_on_c, 3, 56, 88
7, 7498, Note_off_c, 3, 56, 0
7, 7500, Note_on_c, 3, 55, 88
7, 7558, Note_off_c, 3, 55, 0
7, 7560, Note_on_c, 3, 53, 88
7, 7618, Note_off_c, 3, 53, 0
7, 7620, Note_on_c, 3, 56, 88
7, 7678, Note_off_c, 3, 56, 0
7, 7680, Note_on_c, 3, 55, 88
7, 7796, Note_off_c, 3, 55, 0
7, 7800, Note_on_c, 3, 51, 88
7, 7916, Note_off_c, 3, 51, 0
7, 7980, Note_on_c, 3, 44, 88
7, 8038, Note_off_c, 3, 44, 0
7, 8040, Note_on_c, 3, 46, 88
7, 8098, Note_off_c, 3, 46, 0
7, 8100, Note_on_c, 3, 48, 88
7, 8158, Note_off_c, 3, 48, 0
7, 8160, Note_on_c, 3, 49, 88
7, 8218, Note_off_c, 3, 49, 0
7, 8220, Note_on_c, 3, 51, 88
7, 8278, Note_off_c, 3, 51, 0
7, 8280, Note_on_c, 3, 53, 88
7, 8338, Note_off_c, 3, 53, 0
7, 8340, Note_on_c, 3, 51, 88
7, 8398, Note_off_c, 3, 51, 0
7, 8400, Note_on_c, 3, 49, 88
7, 8458, Note_off_c, 3, 49, 0
7, 8460, Note_on_c, 3, 48, 88
7, 8518, Note_off_c, 3, 48, 0
7, 8520, Note_on_c, 3, 46, 88
7, 8578, Note_off_c, 3, 46, 0
7, 8580, Note_on_c, 3, 49, 88
7, 8638, Note_off_c, 3, 49, 0
7, 8640, Note_on_c, 3, 48, 88
7, 8934, Note_off_c, 3, 48, 0
7, 8940, Note_on_c, 3, 49, 88
7, 8998, Note_off_c, 3, 49, 0
7, 9000, Note_on_c, 3, 51, 88
7, 9058, Note_off_c, 3, 51, 0
7, 9060, Note_on_c, 3, 48, 88
7, 9118, Note_off_c, 3, 48, 0
7, 9120, Note_on_c, 3, 53, 88
7, 9414, Note_off_c, 3, 53, 0
7, 9420, Note_on_c, 3, 51, 88
7, 9478, Note_off_c, 3, 51, 0
7, 9480, Note_on_c, 3, 53, 88
7, 9538, Note_off_c, 3, 53, 0
7, 9540, Note_on_c, 3, 49, 88
7, 9598, Note_off_c, 3, 49, 0
7, 9600, Note_on_c, 3, 56, 88
7, 9658, Note_off_c, 3, 56, 0
7, 9660, Note_on_c, 3, 55, 88
7, 9718, Note_off_c, 3, 55, 0
7, 9720, Note_on_c, 3, 56, 88
7, 9778, Note_off_c, 3, 56, 0
7, 9780, Note_on_c, 3, 58, 88
7, 9838, Note_off_c, 3, 58, 0
7, 9840, Note_on_c, 3, 60, 88
7, 9956, Note_off_c, 3, 60, 0
7, 9960, Note_on_c, 3, 55, 88
7, 10076, Note_off_c, 3, 55, 0
7, 10080, Note_on_c, 3, 56, 88
7, 10196, Note_off_c, 3, 56, 0
7, 10200, Note_on_c, 3, 53, 88
7, 10316, Note_off_c, 3, 53, 0
7, 10320, Note_on_c, 3, 58, 88
7, 10436, Note_off_c, 3, 58, 0
7, 10440, Note_on_c, 3, 53, 88
7, 10556, Note_off_c, 3, 53, 0
7, 10560, Note_on_c, 3, 55, 88
7, 10676, Note_off_c, 3, 55, 0
7, 10680, Note_on_c, 3, 51, 88
7, 10796, Note_off_c, 3, 51, 0
7, 10800, Note_on_c, 3, 56, 88
7, 10916, Note_off_c, 3, 56, 0
7, 10920, Note_on_c, 3, 51, 88
7, 11036, Note_off_c, 3, 51, 0
7, 11040, Note_on_c, 3, 53, 88
7, 11156, Note_off_c, 3, 53, 0
7, 11160, Note_on_c, 3, 50, 88
7, 11276, Note_off_c, 3, 50, 0
7, 11280, Note_on_c, 3, 55, 88
7, 11396, Note_off_c, 3, 55, 0
7, 11400, Note_on_c, 3, 50, 88
7, 11516, Note_off_c, 3, 50, 0
7, 11520, Note_on_c, 3, 52, 88
7, 11636, Note_off_c, 3, 52, 0
7, 11640, Note_on_c, 3, 48, 88
7, 11756, Note_off_c, 3, 48, 0
7, 11760, Note_on_c, 3, 50, 88
7, 11876, Note_off_c, 3, 50, 0
7, 11880, Note_on_c, 3, 52, 88
7, 11996, Note_off_c, 3, 52, 0
7, 12000, Note_on_c, 3, 53, 88
7, 12234, Note_off_c, 3, 53, 0
7, 12240, Note_on_c, 3, 46, 88
7, 12474, Note_off_c, 3, 46, 0
7, 12480, Note_on_c, 3, 53, 88
7, 12714, Note_off_c, 3, 53, 0
7, 12780, Note_on_c, 3, 41, 88
7, 12838, Note_off_c, 3, 41, 0
7, 12840, Note_on_c, 3, 43, 88
7, 12898, Note_off_c, 3, 43, 0
7, 12900, Note_on_c, 3, 44, 88
7, 12958, Note_off_c, 3, 44, 0
7, 12960, Note_on_c, 3, 46, 88
7, 13018, Note_off_c, 3, 46, 0
7, 13020, Note_on_c, 3, 44, 88
7, 13078, Note_off_c, 3, 44, 0
7, 13080, Note_on_c, 3, 43, 88
7, 13138, Note_off_c, 3, 43, 0
7, 13140, Note_on_c, 3, 41, 88
7, 13198, Note_off_c, 3, 41, 0
7, 13200, Note_on_c, 3, 39, 88
7, 13258, Note_off_c, 3, 39, 0
7, 13260, Note_on_c, 3, 41, 88
7, 13318, Note_off_c, 3, 41, 0
7, 13320, Note_on_c, 3, 43, 88
7, 13378, Note_off_c, 3, 43, 0
7, 13380, Note_on_c, 3, 46, 88
7, 13438, Note_off_c, 3, 46, 0
7, 13440, Note_on_c, 3, 44, 88
7, 13498, Note_off_c, 3, 44, 0
7, 13500, Note_on_c, 3, 43, 88
7, 13558, Note_off_c, 3, 43, 0
7, 13560, Note_on_c, 3, 41, 88
7, 13618, Note_off_c, 3, 41, 0
7, 13620, Note_on_c, 3, 39, 88
7, 13678, Note_off_c, 3, 39, 0
7, 13680, Note_on_c, 3, 37, 88
7, 13738, Note_off_c, 3, 37, 0
7, 13740, Note_on_c, 3, 39, 88
7, 13798, Note_off_c, 3, 39, 0
7, 13800, Note_on_c, 3, 41, 88
7, 13858, Note_off_c, 3, 41, 0
7, 13860, Note_on_c, 3, 44, 88
7, 13918, Note_off_c, 3, 44, 0
7, 13920, Note_on_c, 3, 43, 88
7, 14036, Note_off_c, 3, 43, 0
7, 14040, Note_on_c, 3, 46, 88
7, 14156, Note_off_c, 3, 46, 0
7, 14160, Note_on_c, 3, 48, 88
7, 14276, Note_off_c, 3, 48, 0
7, 14280, Note_on_c, 3, 36, 88
7, 14396, Note_off_c, 3, 36, 0
7, 14400, Note_on_c, 3, 41, 88
7, 14458, Note_off_c, 3, 41, 0
7, 14460, Note_on_c, 3, 48, 88
7, 14518, Note_off_c, 3, 48, 0
7, 14520, Note_on_c, 3, 50, 88
7, 14578, Note_off_c, 3, 50, 0
7, 14580, Note_on_c, 3, 52, 88
7, 14638, Note_off_c, 3, 52, 0
7, 14640, Note_on_c, 3, 53, 88
7, 14993, Note_off_c, 3, 53, 0
7, 15000, Note_on_c, 3, 58, 88
7, 15116, Note_off_c, 3, 58, 0
7, 15120, Note_on_c, 3, 52, 88
7, 15236, Note_off_c, 3, 52, 0
7, 15240, Note_on_c, 3, 60, 88
7, 15356, Note_off_c, 3, 60, 0
7, 15360, Note_on_c, 3, 51, 88
7, 15476, Note_off_c, 3, 51, 0
7, 15480, Note_on_c, 3, 57, 88
7, 15596, Note_off_c, 3, 57, 0
7, 15600, Note_on_c, 3, 49, 88
7, 15834, Note_off_c, 3, 49, 0
7, 15840, Note_on_c, 3, 54, 88
7, 16074, Note_off_c, 3, 54, 0
7, 16200, Note_on_c, 3, 54, 88
7, 16258, Note_off_c, 3, 54, 0
7, 16260, Note_on_c, 3, 53, 88
7, 16318, Note_off_c, 3, 53, 0
7, 16320, Note_on_c, 3, 51, 88
7, 16378, Note_off_c, 3, 51, 0
7, 16380, Note_on_c, 3, 54, 88
7, 16438, Note_off_c, 3, 54, 0
7, 16440, Note_on_c, 3, 53, 88
7, 16498, Note_off_c, 3, 53, 0
7, 16500, Note_on_c, 3, 51, 88
7, 16558, Note_off_c, 3, 51, 0
7, 16560, Note_on_c, 3, 49, 88
7, 16618, Note_off_c, 3, 49, 0
7, 16620, Note_on_c, 3, 48, 88
7, 16678, Note_off_c, 3, 48, 0
7, 16680, Note_on_c, 3, 46, 88
7, 16738, Note_off_c, 3, 46, 0
7, 16740, Note_on_c, 3, 49, 88
7, 16798, Note_off_c, 3, 49, 0
7, 16800, Note_on_c, 3, 51, 88
7, 16858, Note_off_c, 3, 51, 0
7, 16860, Note_on_c, 3, 53, 88
7, 16918, Note_off_c, 3, 53, 0
7, 16920, Note_on_c, 3, 54, 88
7, 16978, Note_off_c, 3, 54, 0
7, 16980, Note_on_c, 3, 51, 88
7, 17038, Note_off_c, 3, 51, 0
7, 17040, Note_on_c, 3, 53, 88
7, 17274, Note_off_c, 3, 53, 0
7, 17280, Note_on_c, 3, 46, 88
7, 17514, Note_off_c, 3, 46, 0
7, 25200, Note_on_c, 3, 44, 88
7, 25316, Note_off_c, 3, 44, 0
7, 25320, Note_on_c, 3, 51, 88
7, 25436, Note_off_c, 3, 51, 0
7, 25440, Note_on_c, 3, 48, 88
7, 25556, Note_off_c, 3, 48, 0
7, 25560, Note_on_c, 3, 44, 88
7, 25676, Note_off_c, 3, 44, 0
7, 25680, Note_on_c, 3, 53, 88
7, 25796, Note_off_c, 3, 53, 0
7, 25800, Note_on_c, 3, 49, 88
7, 25916, Note_off_c, 3, 49, 0
7, 25920, Note_on_c, 3, 51, 88
7, 26154, Note_off_c, 3, 51, 0
7, 26160, Note_on_c, 3, 52, 88
7, 26218, Note_off_c, 3, 52, 0
7, 26220, Note_on_c, 3, 58, 88
7, 26278, Note_off_c, 3, 58, 0
7, 26280, Note_on_c, 3, 56, 88
7, 26338, Note_off_c, 3, 56, 0
7, 26340, Note_on_c, 3, 55, 88
7, 26398, Note_off_c, 3, 55, 0
7, 26400, Note_on_c, 3, 53, 88
7, 26870, Note_off_c, 3, 53, 0
7, 26880, Note_on_c, 3, 48, 88
7, 27350, Note_off_c, 3, 48, 0
7, 27360, Note_on_c, 3, 49, 88
7, 27830, Note_off_c, 3, 49, 0
7, 27840, Note_on_c, 3, 44, 88
7, 28134, Note_off_c, 3, 44, 0
7, 28140, Note_on_c, 3, 41, 88
7, 28198, Note_off_c, 3, 41, 0
7, 28200, Note_on_c, 3, 43, 88
7, 28258, Note_off_c, 3, 43, 0
7, 28260, Note_on_c, 3, 44, 88
7, 28318, Note_off_c, 3, 44, 0
7, 28320, Note_on_c, 3, 46, 88
7, 28378, Note_off_c, 3, 46, 0
7, 28380, Note_on_c, 3, 48, 88
7, 28438, Note_off_c, 3, 48, 0
7, 28440, Note_on_c, 3, 49, 88
7, 28498, Note_off_c, 3, 49, 0
7, 28500, Note_on_c, 3, 51, 88
7, 28558, Note_off_c, 3, 51, 0
7, 28560, Note_on_c, 3, 49, 88
7, 28618, Note_off_c, 3, 49, 0
7, 28620, Note_on_c, 3, 48, 88
7, 28678, Note_off_c, 3, 48, 0
7, 28680, Note_on_c, 3, 46, 88
7, 28738, Note_off_c, 3, 46, 0
7, 28740, Note_on_c, 3, 44, 88
7, 28798, Note_off_c, 3, 44, 0
7, 28800, Note_on_c, 3, 49, 88
7, 28858, Note_off_c, 3, 49, 0
7, 28860, Note_on_c, 3, 48, 88
7, 28918, Note_off_c, 3, 48, 0
7, 28920, Note_on_c, 3, 49, 88
7, 28978, Note_off_c, 3, 49, 0
7, 28980, Note_on_c, 3, 53, 88
7, 29038, Note_off_c, 3, 53, 0
7, 29040, Note_on_c, 3, 51, 88
7, 29098, Note_off_c, 3, 51, 0
7, 29100, Note_on_c, 3, 50, 88
7, 29158, Note_off_c, 3, 50, 0
7, 29160, Note_on_c, 3, 48, 88
7, 29218, Note_off_c, 3, 48, 0
7, 29220, Note_on_c, 3, 46, 88
7, 29278, Note_off_c, 3, 46, 0
7, 29280, Note_on_c, 3, 51, 88
7, 29338, Note_off_c, 3, 51, 0
7, 29340, Note_on_c, 3, 50, 88
7, 29398, Note_off_c, 3, 50, 0
7, 29400, Note_on_c, 3, 51, 88
7, 29458, Note_off_c, 3, 51, 0
7, 29460, Note_on_c, 3, 55, 88
7, 29518, Note_off_c, 3, 55, 0
7, 29520, Note_on_c, 3, 53, 88
7, 29578, Note_off_c, 3, 53, 0
7, 29580, Note_on_c, 3, 52, 88
7, 29638, Note_off_c, 3, 52, 0
7, 29640, Note_on_c, 3, 50, 88
7, 29698, Note_off_c, 3, 50, 0
7, 29700, Note_on_c, 3, 48, 88
7, 29758, Note_off_c, 3, 48, 0
7, 29760, Note_on_c, 3, 53, 88
7, 29818, Note_off_c, 3, 53, 0
7, 29820, Note_on_c, 3, 55, 88
7, 29878, Note_off_c, 3, 55, 0
7, 29880, Note_on_c, 3, 56, 88
7, 29938, Note_off_c, 3, 56, 0
7, 29940, Note_on_c, 3, 53, 88
7, 29998, Note_off_c, 3, 53, 0
7, 30000, Note_on_c, 3, 58, 88
7, 30058, Note_off_c, 3, 58, 0
7, 30060, Note_on_c, 3, 56, 88
7, 30118, Note_off_c, 3, 56, 0
7, 30120, Note_on_c, 3, 55, 88
7, 30178, Note_off_c, 3, 55, 0
7, 30180, Note_on_c, 3, 53, 88
7, 30238, Note_off_c, 3, 53, 0
7, 30240, Note_on_c, 3, 51, 88
7, 30298, Note_off_c, 3, 51, 0
7, 30300, Note_on_c, 3, 49, 88
7, 30358, Note_off_c, 3, 49, 0
7, 30360, Note_on_c, 3, 48, 88
7, 30418, Note_off_c, 3, 48, 0
7, 30420, Note_on_c, 3, 46, 88
7, 30478, Note_off_c, 3, 46, 0
7, 30480, Note_on_c, 3, 44, 88
7, 30538, Note_off_c, 3, 44, 0
7, 30540, Note_on_c, 3, 46, 88
7, 30598, Note_off_c, 3, 46, 0
7, 30600, Note_on_c, 3, 48, 88
7, 30658, Note_off_c, 3, 48, 0
7, 30660, Note_on_c, 3, 49, 88
7, 30718, Note_off_c, 3, 49, 0
7, 30720, Note_on_c, 3, 51, 88
7, 30778, Note_off_c, 3, 51, 0
7, 30780, Note_on_c, 3, 49, 88
7, 30838, Note_off_c, 3, 49, 0
7, 30840, Note_on_c, 3, 48, 88
7, 30898, Note_off_c, 3, 48, 0
7, 30900, Note_on_c, 3, 49, 88
7, 30958, Note_off_c, 3, 49, 0
7, 30960, Note_on_c, 3, 51, 88
7, 31076, Note_off_c, 3, 51, 0
7, 31080, Note_on_c, 3, 39, 88
7, 31196, Note_off_c, 3, 39, 0
7, 31200, Note_on_c, 3, 41, 88
7, 31434, Note_off_c, 3, 41, 0
7, 31500, Note_on_c, 3, 39, 88
7, 31558, Note_off_c, 3, 39, 0
7, 31560, Note_on_c, 3, 41, 88
7, 31618, Note_off_c, 3, 41, 0
7, 31620, Note_on_c, 3, 43, 88
7, 31678, Note_off_c, 3, 43, 0
7, 31680, Note_on_c, 3, 44, 88
7, 31738, Note_off_c, 3, 44, 0
7, 31740, Note_on_c, 3, 46, 88
7, 31798, Note_off_c, 3, 46, 0
7, 31800, Note_on_c, 3, 48, 88
7, 31858, Note_off_c, 3, 48, 0
7, 31860, Note_on_c, 3, 51, 88
7, 31918, Note_off_c, 3, 51, 0
7, 31920, Note_on_c, 3, 49, 88
7, 31978, Note_off_c, 3, 49, 0
7, 31980, Note_on_c, 3, 48, 88
7, 32038, Note_off_c, 3, 48, 0
7, 32040, Note_on_c, 3, 46, 88
7, 32098, Note_off_c, 3, 46, 0
7, 32100, Note_on_c, 3, 44, 88
7, 32158, Note_off_c, 3, 44, 0
7, 32160, Note_on_c, 3, 43, 88
7, 32218, Note_off_c, 3, 43, 0
7, 32220, Note_on_c, 3, 41, 88
7, 32278, Note_off_c, 3, 41, 0
7, 32280, Note_on_c, 3, 39, 88
7, 32338, Note_off_c, 3, 39, 0
7, 32340, Note_on_c, 3, 37, 88
7, 32398, Note_off_c, 3, 37, 0
7, 32400, Note_on_c, 3, 36, 88
7, 32458, Note_off_c, 3, 36, 0
7, 32460, Note_on_c, 3, 39, 88
7, 32518, Note_off_c, 3, 39, 0
7, 32520, Note_on_c, 3, 37, 88
7, 32578, Note_off_c, 3, 37, 0
7, 32580, Note_on_c, 3, 41, 88
7, 32638, Note_off_c, 3, 41, 0
7, 32640, Note_on_c, 3, 39, 88
7, 33110, Note_off_c, 3, 39, 0
7, 33120, Note_on_c, 3, 44, 88
7, 33590, Note_off_c, 3, 44, 0
7, 33590, End_track
0, 0, End_of_file
