0, 0, Header, 1, 7, 240
1, 0, Start_track
1, 0, Time_signature, 4, 2, 24, 8
1, 0, Tempo, 833333
1, 0, SMPTE_offset, 64, 0, 0, 0, 93
1, 0, End_track
2, 0, Start_track
2, 0, Title_t, "(C) & (P) 1993"
2, 127, End_track
3, 0, Start_track
3, 0, Title_t, "CCARH,Stanford"
3, 0, End_track
4, 0, Start_track
4, 0, Title_t, "Track 1"
4, 0, Program_c, 0, 6
4, 4080, Note_on_c, 0, 68, 88
4, 4314, Note_off_c, 0, 68, 0
4, 4320, Note_on_c, 0, 67, 88
4, 4436, Note_off_c, 0, 67, 0
4, 4440, Note_on_c, 0, 68, 88
4, 4498, Note_off_c, 0, 68, 0
4, 4500, Note_on_c, 0, 70, 88
4, 4558, Note_off_c, 0, 70, 0
4, 4560, Note_on_c, 0, 71, 88
4, 4676, Note_off_c, 0, 71, 0
4, 4680, Note_on_c, 0, 70, 88
4, 4796, Note_off_c, 0, 70, 0
4, 4800, Note_on_c, 0, 68, 88
4, 4916, Note_off_c, 0, 68, 0
4, 4920, Note_on_c, 0, 74, 88
4, 5036, Note_off_c, 0, 74, 0
4, 5040, Note_on_c, 0, 75, 88
4, 5156, Note_off_c, 0, 75, 0
4, 5160, Note_on_c, 0, 66, 88
4, 5276, Note_off_c, 0, 66, 0
4, 5280, Note_on_c, 0, 68, 88
4, 5382, Note_off_c, 0, 68, 0
4, 5400, Note_on_c, 0, 68, 88
4, 5516, Note_off_c, 0, 68, 0
4, 5520, Note_on_c, 0, 70, 88
4, 5622, Note_off_c, 0, 70, 0
4, 5640, Note_on_c, 0, 70, 88
4, 5756, Note_off_c, 0, 70, 0
4, 5760, Note_on_c, 0, 63, 88
4, 5876, Note_off_c, 0, 63, 0
4, 5880, Note_on_c, 0, 65, 88
4, 5996, Note_off_c, 0, 65, 0
4, 6000, Note_on_c, 0, 66, 88
4, 6353, Note_off_c, 0, 66, 0
4, 6360, Note_on_c, 0, 64, 88
4, 6418, Note_off_c, 0, 64, 0
4, 6420, Note_on_c, 0, 66, 88
4, 6478, Note_off_c, 0, 66, 0
4, 6480, Note_on_c, 0, 68, 88
4, 6596, Note_off_c, 0, 68, 0
4, 6600, Note_on_c, 0, 67, 88
4, 6658, Note_off_c, 0, 67, 0
4, 6660, Note_on_c, 0, 68, 88
4, 6718, Note_off_c, 0, 68, 0
4, 6720, Note_on_c, 0, 70, 88
4, 6836, Note_off_c, 0, 70, 0
4, 6840, Note_on_c, 0, 68, 88
4, 6898, Note_off_c, 0, 68, 0
4, 6900, Note_on_c, 0, 70, 88
4, 6958, Note_off_c, 0, 70, 0
4, 6960, Note_on_c, 0, 71, 88
4, 7076, Note_off_c, 0, 71, 0
4, 7080, Note_on_c, 0, 68, 88
4, 7196, Note_off_c, 0, 68, 0
4, 7200, Note_on_c, 0, 70, 88
4, 7316, Note_off_c, 0, 70, 0
4, 7440, Note_on_c, 0, 67, 88
4, 7556, Note_off_c, 0, 67, 0
4, 7680, Note_on_c, 0, 68, 88
4, 7796, Note_off_c, 0, 68, 0
4, 7800, Note_on_c, 0, 70, 88
4, 7916, Note_off_c, 0, 70, 0
4, 7920, Note_on_c, 0, 71, 88
4, 8154, Note_off_c, 0, 71, 0
4, 8160, Note_on_c, 0, 73, 88
4, 8276, Note_off_c, 0, 73, 0
4, 8400, Note_on_c, 0, 70, 88
4, 8516, Note_off_c, 0, 70, 0
4, 8640, Note_on_c, 0, 71, 88
4, 8756, Note_off_c, 0, 71, 0
4, 8760, Note_on_c, 0, 75, 88
4, 8818, Note_off_c, 0, 75, 0
4, 8820, Note_on_c, 0, 74, 88
4, 8878, Note_off_c, 0, 74, 0
4, 8880, Note_on_c, 0, 75, 88
4, 9114, Note_off_c, 0, 75, 0
4, 9120, Note_on_c, 0, 77, 88
4, 9236, Note_off_c, 0, 77, 0
4, 9360, Note_on_c, 0, 74, 88
4, 9476, Note_off_c, 0, 74, 0
4, 9600, Note_on_c, 0, 75, 88
4, 9716, Note_off_c, 0, 75, 0
4, 9720, Note_on_c, 0, 77, 88
4, 9836, Note_off_c, 0, 77, 0
4, 9840, Note_on_c, 0, 78, 88
4, 10193, Note_off_c, 0, 78, 0
4, 10200, Note_on_c, 0, 76, 88
4, 10258, Note_off_c, 0, 76, 0
4, 10260, Note_on_c, 0, 78, 88
4, 10318, Note_off_c, 0, 78, 0
4, 10320, Note_on_c, 0, 80, 88
4, 10436, Note_off_c, 0, 80, 0
4, 10440, Note_on_c, 0, 79, 88
4, 10498, Note_off_c, 0, 79, 0
4, 10500, Note_on_c, 0, 80, 88
4, 10558, Note_off_c, 0, 80, 0
4, 10560, Note_on_c, 0, 82, 88
4, 10676, Note_off_c, 0, 82, 0
4, 10680, Note_on_c, 0, 80, 88
4, 10738, Note_off_c, 0, 80, 0
4, 10740, Note_on_c, 0, 82, 88
4, 10798, Note_off_c, 0, 82, 0
4, 10800, Note_on_c, 0, 83, 88
4, 10916, Note_off_c, 0, 83, 0
4, 10920, Note_on_c, 0, 80, 88
4, 11036, Note_off_c, 0, 80, 0
4, 11040, Note_on_c, 0, 82, 88
4, 11156, Note_off_c, 0, 82, 0
4, 11280, Note_on_c, 0, 79, 88
4, 11396, Note_off_c, 0, 79, 0
4, 11520, Note_on_c, 0, 80, 88
4, 11636, Note_off_c, 0, 80, 0
4, 11640, Note_on_c, 0, 78, 88
4, 11698, Note_off_c, 0, 78, 0
4, 11700, Note_on_c, 0, 76, 88
4, 11758, Note_off_c, 0, 76, 0
4, 11760, Note_on_c, 0, 75, 88
4, 11876, Note_off_c, 0, 75, 0
4, 11880, Note_on_c, 0, 76, 88
4, 11996, Note_off_c, 0, 76, 0
4, 12000, Note_on_c, 0, 78, 88
4, 12116, Note_off_c, 0, 78, 0
4, 12240, Note_on_c, 0, 75, 88
4, 12356, Note_off_c, 0, 75, 0
4, 12480, Note_on_c, 0, 76, 88
4, 12596, Note_off_c, 0, 76, 0
4, 12600, Note_on_c, 0, 75, 88
4, 12658, Note_off_c, 0, 75, 0
4, 12660, Note_on_c, 0, 73, 88
4, 12718, Note_off_c, 0, 73, 0
4, 12720, Note_on_c, 0, 72, 88
4, 12836, Note_off_c, 0, 72, 0
4, 12840, Note_on_c, 0, 73, 88
4, 12956, Note_off_c, 0, 73, 0
4, 12960, Note_on_c, 0, 75, 88
4, 13076, Note_off_c, 0, 75, 0
4, 13200, Note_on_c, 0, 72, 88
4, 13316, Note_off_c, 0, 72, 0
4, 13440, Note_on_c, 0, 73, 88
4, 13674, Note_off_c, 0, 73, 0
4, 14040, Note_on_c, 0, 73, 88
4, 14274, Note_off_c, 0, 73, 0
4, 14280, Note_on_c, 0, 75, 88
4, 14396, Note_off_c, 0, 75, 0
4, 14400, Note_on_c, 0, 76, 88
4, 14634, Note_off_c, 0, 76, 0
4, 14640, Note_on_c, 0, 75, 88
4, 14874, Note_off_c, 0, 75, 0
4, 14880, Note_on_c, 0, 73, 88
4, 15476, Note_off_c, 0, 73, 0
4, 15480, Note_on_c, 0, 79, 88
4, 15596, Note_off_c, 0, 79, 0
4, 15600, Note_on_c, 0, 80, 88
4, 15716, Note_off_c, 0, 80, 0
4, 15720, Note_on_c, 0, 71, 88
4, 15836, Note_off_c, 0, 71, 0
4, 15840, Note_on_c, 0, 70, 88
4, 15956, Note_off_c, 0, 70, 0
4, 15960, Note_on_c, 0, 79, 88
4, 16076, Note_off_c, 0, 79, 0
4, 16080, Note_on_c, 0, 80, 88
4, 16196, Note_off_c, 0, 80, 0
4, 16200, Note_on_c, 0, 73, 88
4, 16316, Note_off_c, 0, 73, 0
4, 16320, Note_on_c, 0, 71, 88
4, 16436, Note_off_c, 0, 71, 0
4, 16440, Note_on_c, 0, 80, 88
4, 16556, Note_off_c, 0, 80, 0
4, 16560, Note_on_c, 0, 78, 88
4, 16676, Note_off_c, 0, 78, 0
4, 16680, Note_on_c, 0, 70, 88
4, 16796, Note_off_c, 0, 70, 0
4, 16800, Note_on_c, 0, 68, 88
4, 16916, Note_off_c, 0, 68, 0
4, 16920, Note_on_c, 0, 78, 88
4, 17036, Note_off_c, 0, 78, 0
4, 17040, Note_on_c, 0, 77, 88
4, 17156, Note_off_c, 0, 77, 0
4, 17160, Note_on_c, 0, 68, 88
4, 17276, Note_off_c, 0, 68, 0
4, 17280, Note_on_c, 0, 66, 88
4, 17514, Note_off_c, 0, 66, 0
4, 22320, Note_on_c, 0, 75, 88
4, 22554, Note_off_c, 0, 75, 0
4, 22560, Note_on_c, 0, 74, 88
4, 22676, Note_off_c, 0, 74, 0
4, 22680, Note_on_c, 0, 75, 88
4, 22738, Note_off_c, 0, 75, 0
4, 22740, Note_on_c, 0, 77, 88
4, 22798, Note_off_c, 0, 77, 0
4, 22800, Note_on_c, 0, 78, 88
4, 22916, Note_off_c, 0, 78, 0
4, 22920, Note_on_c, 0, 77, 88
4, 23036, Note_off_c, 0, 77, 0
4, 23040, Note_on_c, 0, 75, 88
4, 23156, Note_off_c, 0, 75, 0
4, 23160, Note_on_c, 0, 81, 88
4, 23276, Note_off_c, 0, 81, 0
4, 23280, Note_on_c, 0, 82, 88
4, 23396, Note_off_c, 0, 82, 0
4, 23400, Note_on_c, 0, 73, 88
4, 23516, Note_off_c, 0, 73, 0
4, 23520, Note_on_c, 0, 75, 88
4, 23622, Note_off_c, 0, 75, 0
4, 23640, Note_on_c, 0, 75, 88
4, 23756, Note_off_c, 0, 75, 0
4, 23760, Note_on_c, 0, 77, 88
4, 23862, Note_off_c, 0, 77, 0
4, 23880, Note_on_c, 0, 77, 88
4, 23996, Note_off_c, 0, 77, 0
4, 24000, Note_on_c, 0, 70, 88
4, 24116, Note_off_c, 0, 70, 0
4, 24120, Note_on_c, 0, 77, 88
4, 24236, Note_off_c, 0, 77, 0
4, 24240, Note_on_c, 0, 78, 88
4, 24593, Note_off_c, 0, 78, 0
4, 24600, Note_on_c, 0, 82, 88
4, 24716, Note_off_c, 0, 82, 0
4, 24720, Note_on_c, 0, 83, 88
4, 25076, Note_off_c, 0, 83, 0
4, 25080, Note_on_c, 0, 76, 88
4, 25196, Note_off_c, 0, 76, 0
4, 25200, Note_on_c, 0, 75, 88
4, 25434, Note_off_c, 0, 75, 0
4, 25440, Note_on_c, 0, 73, 88
4, 26154, Note_off_c, 0, 73, 0
4, 26160, Note_on_c, 0, 71, 88
4, 26513, Note_off_c, 0, 71, 0
4, 26520, Note_on_c, 0, 70, 88
4, 26578, Note_off_c, 0, 70, 0
4, 26580, Note_on_c, 0, 68, 88
4, 26638, Note_off_c, 0, 68, 0
4, 26640, Note_on_c, 0, 70, 88
4, 26698, Note_off_c, 0, 70, 0
4, 26700, Note_on_c, 0, 66, 88
4, 26758, Note_off_c, 0, 66, 0
4, 26760, Note_on_c, 0, 72, 88
4, 26876, Note_off_c, 0, 72, 0
4, 26880, Note_on_c, 0, 73, 88
4, 27470, Note_off_c, 0, 73, 0
4, 27480, Note_on_c, 0, 71, 88
4, 27538, Note_off_c, 0, 71, 0
4, 27540, Note_on_c, 0, 70, 88
4, 27598, Note_off_c, 0, 70, 0
4, 27600, Note_on_c, 0, 71, 88
4, 27658, Note_off_c, 0, 71, 0
4, 27660, Note_on_c, 0, 68, 88
4, 27718, Note_off_c, 0, 68, 0
4, 27720, Note_on_c, 0, 74, 88
4, 27836, Note_off_c, 0, 74, 0
4, 27840, Note_on_c, 0, 75, 88
4, 27956, Note_off_c, 0, 75, 0
4, 27960, Note_on_c, 0, 73, 88
4, 28018, Note_off_c, 0, 73, 0
4, 28020, Note_on_c, 0, 71, 88
4, 28078, Note_off_c, 0, 71, 0
4, 28080, Note_on_c, 0, 70, 88
4, 28196, Note_off_c, 0, 70, 0
4, 28200, Note_on_c, 0, 71, 88
4, 28316, Note_off_c, 0, 71, 0
4, 28320, Note_on_c, 0, 73, 88
4, 28436, Note_off_c, 0, 73, 0
4, 28560, Note_on_c, 0, 70, 88
4, 28676, Note_off_c, 0, 70, 0
4, 28800, Note_on_c, 0, 71, 88
4, 28916, Note_off_c, 0, 71, 0
4, 28920, Note_on_c, 0, 70, 88
4, 28978, Note_off_c, 0, 70, 0
4, 28980, Note_on_c, 0, 68, 88
4, 29038, Note_off_c, 0, 68, 0
4, 29040, Note_on_c, 0, 67, 88
4, 29156, Note_off_c, 0, 67, 0
4, 29160, Note_on_c, 0, 68, 88
4, 29276, Note_off_c, 0, 68, 0
4, 29280, Note_on_c, 0, 70, 88
4, 29396, Note_off_c, 0, 70, 0
4, 29520, Note_on_c, 0, 67, 88
4, 29636, Note_off_c, 0, 67, 0
4, 29760, Note_on_c, 0, 68, 88
4, 29994, Note_off_c, 0, 68, 0
4, 30360, Note_on_c, 0, 68, 88
4, 30594, Note_off_c, 0, 68, 0
4, 30600, Note_on_c, 0, 70, 88
4, 30716, Note_off_c, 0, 70, 0
4, 30720, Note_on_c, 0, 71, 88
4, 30954, Note_off_c, 0, 71, 0
4, 30960, Note_on_c, 0, 70, 88
4, 31194, Note_off_c, 0, 70, 0
4, 31200, Note_on_c, 0, 68, 88
4, 31914, Note_off_c, 0, 68, 0
4, 31920, Note_on_c, 0, 66, 88
4, 32154, Note_off_c, 0, 66, 0
4, 32160, Note_on_c, 0, 64, 88
4, 32756, Note_off_c, 0, 64, 0
4, 32760, Note_on_c, 0, 63, 88
4, 32876, Note_off_c, 0, 63, 0
4, 32880, Note_on_c, 0, 71, 88
4, 33350, Note_off_c, 0, 71, 0
4, 33360, Note_on_c, 0, 69, 88
4, 33834, Note_off_c, 0, 69, 0
4, 33960, Note_on_c, 0, 68, 88
4, 34076, Note_off_c, 0, 68, 0
4, 34080, Note_on_c, 0, 70, 88
4, 34182, Note_off_c, 0, 70, 0
4, 34200, Note_on_c, 0, 70, 88
4, 34316, Note_off_c, 0, 70, 0
4, 34320, Note_on_c, 0, 72, 88
4, 34422, Note_off_c, 0, 72, 0
4, 34440, Note_on_c, 0, 72, 88
4, 34556, Note_off_c, 0, 72, 0
4, 34560, Note_on_c, 0, 73, 88
4, 34794, Note_off_c, 0, 73, 0
4, 34920, Note_on_c, 0, 73, 88
4, 35036, Note_off_c, 0, 73, 0
4, 35040, Note_on_c, 0, 72, 88
4, 35156, Note_off_c, 0, 72, 0
4, 35160, Note_on_c, 0, 73, 88
4, 35218, Note_off_c, 0, 73, 0
4, 35220, Note_on_c, 0, 75, 88
4, 35278, Note_off_c, 0, 75, 0
4, 35280, Note_on_c, 0, 76, 88
4, 35396, Note_off_c, 0, 76, 0
4, 35400, Note_on_c, 0, 75, 88
4, 35516, Note_off_c, 0, 75, 0
4, 35520, Note_on_c, 0, 73, 88
4, 35636, Note_off_c, 0, 73, 0
4, 35640, Note_on_c, 0, 79, 88
4, 35756, Note_off_c, 0, 79, 0
4, 35760, Note_on_c, 0, 80, 88
4, 35876, Note_off_c, 0, 80, 0
4, 35880, Note_on_c, 0, 71, 88
4, 35996, Note_off_c, 0, 71, 0
4, 36000, Note_on_c, 0, 73, 88
4, 36102, Note_off_c, 0, 73, 0
4, 36120, Note_on_c, 0, 73, 88
4, 36236, Note_off_c, 0, 73, 0
4, 36240, Note_on_c, 0, 75, 88
4, 36342, Note_off_c, 0, 75, 0
4, 36360, Note_on_c, 0, 75, 88
4, 36476, Note_off_c, 0, 75, 0
4, 36480, Note_on_c, 0, 68, 88
4, 36596, Note_off_c, 0, 68, 0
4, 36600, Note_on_c, 0, 72, 88
4, 36716, Note_off_c, 0, 72, 0
4, 36720, Note_on_c, 0, 73, 88
4, 37190, Note_off_c, 0, 73, 0
4, 37200, Note_on_c, 0, 71, 88
4, 37674, Note_off_c, 0, 71, 0
4, 37680, Note_on_c, 0, 70, 88
4, 37796, Note_off_c, 0, 70, 0
4, 37800, Note_on_c, 0, 68, 88
4, 37916, Note_off_c, 0, 68, 0
4, 37920, Note_on_c, 0, 67, 88
4, 38036, Note_off_c, 0, 67, 0
4, 38040, Note_on_c, 0, 68, 88
4, 38274, Note_off_c, 0, 68, 0
4, 38280, Note_on_c, 0, 67, 88
4, 38396, Note_off_c, 0, 67, 0
4, 38400, Note_on_c, 0, 68, 88
4, 39345, Note_off_c, 0, 68, 0
4, 39345, End_track
5, 0, Start_track
5, 0, Title_t, "Track 2"
5, 0, Program_c, 1, 6
5, 2160, Note_on_c, 1, 63, 88
5, 2394, Note_off_c, 1, 63, 0
5, 2400, Note_on_c, 1, 60, 88
5, 2516, Note_off_c, 1, 60, 0
5, 2520, Note_on_c, 1, 61, 88
5, 2578, Note_off_c, 1, 61, 0
5, 2580, Note_on_c, 1, 63, 88
5, 2638, Note_off_c, 1, 63, 0
5, 2640, Note_on_c, 1, 64, 88
5, 2756, Note_off_c, 1, 64, 0
5, 2760, Note_on_c, 1, 63, 88
5, 2876, Note_off_c, 1, 63, 0
5, 2880, Note_on_c, 1, 61, 88
5, 2996, Note_off_c, 1, 61, 0
5, 3000, Note_on_c, 1, 67, 88
5, 3116, Note_off_c, 1, 67, 0
5, 3120, Note_on_c, 1, 68, 88
5, 3236, Note_off_c, 1, 68, 0
5, 3240, Note_on_c, 1, 59, 88
5, 3356, Note_off_c, 1, 59, 0
5, 3360, Note_on_c, 1, 61, 88
5, 3462, Note_off_c, 1, 61, 0
5, 3480, Note_on_c, 1, 61, 88
5, 3596, Note_off_c, 1, 61, 0
5, 3600, Note_on_c, 1, 63, 88
5, 3702, Note_off_c, 1, 63, 0
5, 3720, Note_on_c, 1, 63, 88
5, 3836, Note_off_c, 1, 63, 0
5, 3840, Note_on_c, 1, 56, 88
5, 4074, Note_off_c, 1, 56, 0
5, 4080, Note_on_c, 1, 61, 88
5, 4433, Note_off_c, 1, 61, 0
5, 4440, Note_on_c, 1, 59, 88
5, 4498, Note_off_c, 1, 59, 0
5, 4500, Note_on_c, 1, 61, 88
5, 4558, Note_off_c, 1, 61, 0
5, 4560, Note_on_c, 1, 63, 88
5, 4676, Note_off_c, 1, 63, 0
5, 4680, Note_on_c, 1, 62, 88
5, 4738, Note_off_c, 1, 62, 0
5, 4740, Note_on_c, 1, 63, 88
5, 4798, Note_off_c, 1, 63, 0
5, 4800, Note_on_c, 1, 65, 88
5, 4916, Note_off_c, 1, 65, 0
5, 4920, Note_on_c, 1, 63, 88
5, 4978, Note_off_c, 1, 63, 0
5, 4980, Note_on_c, 1, 65, 88
5, 5038, Note_off_c, 1, 65, 0
5, 5040, Note_on_c, 1, 66, 88
5, 5156, Note_off_c, 1, 66, 0
5, 5160, Note_on_c, 1, 63, 88
5, 5276, Note_off_c, 1, 63, 0
5, 5280, Note_on_c, 1, 65, 88
5, 5396, Note_off_c, 1, 65, 0
5, 5520, Note_on_c, 1, 62, 88
5, 5636, Note_off_c, 1, 62, 0
5, 5760, Note_on_c, 1, 63, 88
5, 5994, Note_off_c, 1, 63, 0
5, 6120, Note_on_c, 1, 58, 88
5, 6236, Note_off_c, 1, 58, 0
5, 6240, Note_on_c, 1, 56, 88
5, 6474, Note_off_c, 1, 56, 0
5, 6600, Note_on_c, 1, 63, 88
5, 6716, Note_off_c, 1, 63, 0
5, 6720, Note_on_c, 1, 64, 88
5, 6836, Note_off_c, 1, 64, 0
5, 6840, Note_on_c, 1, 63, 88
5, 6956, Note_off_c, 1, 63, 0
5, 7080, Note_on_c, 1, 63, 88
5, 7196, Note_off_c, 1, 63, 0
5, 7200, Note_on_c, 1, 64, 88
5, 7316, Note_off_c, 1, 64, 0
5, 7440, Note_on_c, 1, 63, 88
5, 7556, Note_off_c, 1, 63, 0
5, 7680, Note_on_c, 1, 63, 88
5, 7914, Note_off_c, 1, 63, 0
5, 8040, Note_on_c, 1, 66, 88
5, 8156, Note_off_c, 1, 66, 0
5, 8160, Note_on_c, 1, 68, 88
5, 8276, Note_off_c, 1, 68, 0
5, 8400, Note_on_c, 1, 66, 88
5, 8516, Note_off_c, 1, 66, 0
5, 8640, Note_on_c, 1, 66, 88
5, 8874, Note_off_c, 1, 66, 0
5, 9000, Note_on_c, 1, 70, 88
5, 9116, Note_off_c, 1, 70, 0
5, 9120, Note_on_c, 1, 71, 88
5, 9236, Note_off_c, 1, 71, 0
5, 9360, Note_on_c, 1, 70, 88
5, 9476, Note_off_c, 1, 70, 0
5, 9600, Note_on_c, 1, 66, 88
5, 9716, Note_off_c, 1, 66, 0
5, 9720, Note_on_c, 1, 68, 88
5, 9836, Note_off_c, 1, 68, 0
5, 9840, Note_on_c, 1, 70, 88
5, 9956, Note_off_c, 1, 70, 0
5, 9960, Note_on_c, 1, 71, 88
5, 10018, Note_off_c, 1, 71, 0
5, 10020, Note_on_c, 1, 70, 88
5, 10078, Note_off_c, 1, 70, 0
5, 10080, Note_on_c, 1, 68, 88
5, 10196, Note_off_c, 1, 68, 0
5, 10200, Note_on_c, 1, 73, 88
5, 10434, Note_off_c, 1, 73, 0
5, 10440, Note_on_c, 1, 75, 88
5, 10556, Note_off_c, 1, 75, 0
5, 10560, Note_on_c, 1, 76, 88
5, 10794, Note_off_c, 1, 76, 0
5, 10800, Note_on_c, 1, 75, 88
5, 11034, Note_off_c, 1, 75, 0
5, 11040, Note_on_c, 1, 73, 88
5, 11754, Note_off_c, 1, 73, 0
5, 11760, Note_on_c, 1, 71, 88
5, 11994, Note_off_c, 1, 71, 0
5, 12000, Note_on_c, 1, 69, 88
5, 12714, Note_off_c, 1, 69, 0
5, 12720, Note_on_c, 1, 68, 88
5, 12954, Note_off_c, 1, 68, 0
5, 12960, Note_on_c, 1, 66, 88
5, 13556, Note_off_c, 1, 66, 0
5, 13560, Note_on_c, 1, 64, 88
5, 13618, Note_off_c, 1, 64, 0
5, 13620, Note_on_c, 1, 66, 88
5, 13678, Note_off_c, 1, 66, 0
5, 13680, Note_on_c, 1, 68, 88
5, 13796, Note_off_c, 1, 68, 0
5, 13800, Note_on_c, 1, 66, 88
5, 13858, Note_off_c, 1, 66, 0
5, 13860, Note_on_c, 1, 64, 88
5, 13918, Note_off_c, 1, 64, 0
5, 13920, Note_on_c, 1, 63, 88
5, 14036, Note_off_c, 1, 63, 0
5, 14040, Note_on_c, 1, 64, 88
5, 14098, Note_off_c, 1, 64, 0
5, 14100, Note_on_c, 1, 66, 88
5, 14158, Note_off_c, 1, 66, 0
5, 14160, Note_on_c, 1, 68, 88
5, 14276, Note_off_c, 1, 68, 0
5, 14280, Note_on_c, 1, 67, 88
5, 14338, Note_off_c, 1, 67, 0
5, 14340, Note_on_c, 1, 68, 88
5, 14398, Note_off_c, 1, 68, 0
5, 14400, Note_on_c, 1, 70, 88
5, 14516, Note_off_c, 1, 70, 0
5, 14520, Note_on_c, 1, 68, 88
5, 14578, Note_off_c, 1, 68, 0
5, 14580, Note_on_c, 1, 70, 88
5, 14638, Note_off_c, 1, 70, 0
5, 14640, Note_on_c, 1, 71, 88
5, 14756, Note_off_c, 1, 71, 0
5, 14760, Note_on_c, 1, 68, 88
5, 14876, Note_off_c, 1, 68, 0
5, 14880, Note_on_c, 1, 70, 88
5, 14996, Note_off_c, 1, 70, 0
5, 15120, Note_on_c, 1, 67, 88
5, 15236, Note_off_c, 1, 67, 0
5, 15360, Note_on_c, 1, 68, 88
5, 15476, Note_off_c, 1, 68, 0
5, 16200, Note_on_c, 1, 67, 88
5, 16316, Note_off_c, 1, 67, 0
5, 16320, Note_on_c, 1, 68, 88
5, 16554, Note_off_c, 1, 68, 0
5, 16680, Note_on_c, 1, 66, 88
5, 16796, Note_off_c, 1, 66, 0
5, 16800, Note_on_c, 1, 65, 88
5, 17034, Note_off_c, 1, 65, 0
5, 17160, Note_on_c, 1, 65, 88
5, 17396, Note_off_c, 1, 65, 0
5, 17400, Note_on_c, 1, 63, 88
5, 17458, Note_off_c, 1, 63, 0
5, 17460, Note_on_c, 1, 62, 88
5, 17518, Note_off_c, 1, 62, 0
5, 17520, Note_on_c, 1, 63, 88
5, 17754, Note_off_c, 1, 63, 0
5, 17760, Note_on_c, 1, 60, 88
5, 17876, Note_off_c, 1, 60, 0
5, 17880, Note_on_c, 1, 61, 88
5, 17938, Note_off_c, 1, 61, 0
5, 17940, Note_on_c, 1, 63, 88
5, 17998, Note_off_c, 1, 63, 0
5, 18000, Note_on_c, 1, 64, 88
5, 18116, Note_off_c, 1, 64, 0
5, 18120, Note_on_c, 1, 63, 88
5, 18236, Note_off_c, 1, 63, 0
5, 18240, Note_on_c, 1, 61, 88
5, 18356, Note_off_c, 1, 61, 0
5, 18360, Note_on_c, 1, 67, 88
5, 18476, Note_off_c, 1, 67, 0
5, 18480, Note_on_c, 1, 68, 88
5, 18596, Note_off_c, 1, 68, 0
5, 18600, Note_on_c, 1, 59, 88
5, 18716, Note_off_c, 1, 59, 0
5, 18720, Note_on_c, 1, 61, 88
5, 18822, Note_off_c, 1, 61, 0
5, 18840, Note_on_c, 1, 61, 88
5, 18956, Note_off_c, 1, 61, 0
5, 18960, Note_on_c, 1, 63, 88
5, 19062, Note_off_c, 1, 63, 0
5, 19080, Note_on_c, 1, 63, 88
5, 19196, Note_off_c, 1, 63, 0
5, 19200, Note_on_c, 1, 56, 88
5, 19316, Note_off_c, 1, 56, 0
5, 19320, Note_on_c, 1, 67, 88
5, 19436, Note_off_c, 1, 67, 0
5, 19440, Note_on_c, 1, 68, 88
5, 19793, Note_off_c, 1, 68, 0
5, 19800, Note_on_c, 1, 66, 88
5, 19858, Note_off_c, 1, 66, 0
5, 19860, Note_on_c, 1, 65, 88
5, 19918, Note_off_c, 1, 65, 0
5, 19920, Note_on_c, 1, 66, 88
5, 19978, Note_off_c, 1, 66, 0
5, 19980, Note_on_c, 1, 63, 88
5, 20038, Note_off_c, 1, 63, 0
5, 20040, Note_on_c, 1, 69, 88
5, 20156, Note_off_c, 1, 69, 0
5, 20160, Note_on_c, 1, 70, 88
5, 20750, Note_off_c, 1, 70, 0
5, 20760, Note_on_c, 1, 69, 88
5, 20818, Note_off_c, 1, 69, 0
5, 20820, Note_on_c, 1, 67, 88
5, 20878, Note_off_c, 1, 67, 0
5, 20880, Note_on_c, 1, 69, 88
5, 20938, Note_off_c, 1, 69, 0
5, 20940, Note_on_c, 1, 65, 88
5, 20998, Note_off_c, 1, 65, 0
5, 21000, Note_on_c, 1, 70, 88
5, 21116, Note_off_c, 1, 70, 0
5, 21120, Note_on_c, 1, 72, 88
5, 21710, Note_off_c, 1, 72, 0
5, 21720, Note_on_c, 1, 70, 88
5, 21778, Note_off_c, 1, 70, 0
5, 21780, Note_on_c, 1, 69, 88
5, 21838, Note_off_c, 1, 69, 0
5, 21840, Note_on_c, 1, 70, 88
5, 21898, Note_off_c, 1, 70, 0
5, 21900, Note_on_c, 1, 72, 88
5, 21958, Note_off_c, 1, 72, 0
5, 21960, Note_on_c, 1, 73, 88
5, 22196, Note_off_c, 1, 73, 0
5, 22200, Note_on_c, 1, 72, 88
5, 22258, Note_off_c, 1, 72, 0
5, 22260, Note_on_c, 1, 70, 88
5, 22318, Note_off_c, 1, 70, 0
5, 22320, Note_on_c, 1, 69, 88
5, 22378, Note_off_c, 1, 69, 0
5, 22380, Note_on_c, 1, 70, 88
5, 22438, Note_off_c, 1, 70, 0
5, 22440, Note_on_c, 1, 67, 88
5, 22498, Note_off_c, 1, 67, 0
5, 22500, Note_on_c, 1, 69, 88
5, 22558, Note_off_c, 1, 69, 0
5, 22560, Note_on_c, 1, 70, 88
5, 23156, Note_off_c, 1, 70, 0
5, 23160, Note_on_c, 1, 72, 88
5, 23276, Note_off_c, 1, 72, 0
5, 23280, Note_on_c, 1, 73, 88
5, 23396, Note_off_c, 1, 73, 0
5, 23400, Note_on_c, 1, 70, 88
5, 23516, Note_off_c, 1, 70, 0
5, 23520, Note_on_c, 1, 71, 88
5, 23814, Note_off_c, 1, 71, 0
5, 23820, Note_on_c, 1, 58, 88
5, 23878, Note_off_c, 1, 58, 0
5, 23880, Note_on_c, 1, 59, 88
5, 23938, Note_off_c, 1, 59, 0
5, 23940, Note_on_c, 1, 61, 88
5, 23998, Note_off_c, 1, 61, 0
5, 24000, Note_on_c, 1, 63, 88
5, 24234, Note_off_c, 1, 63, 0
5, 24240, Note_on_c, 1, 61, 88
5, 24356, Note_off_c, 1, 61, 0
5, 24360, Note_on_c, 1, 70, 88
5, 24476, Note_off_c, 1, 70, 0
5, 24480, Note_on_c, 1, 71, 88
5, 24774, Note_off_c, 1, 71, 0
5, 24780, Note_on_c, 1, 75, 88
5, 24838, Note_off_c, 1, 75, 0
5, 24840, Note_on_c, 1, 76, 88
5, 24898, Note_off_c, 1, 76, 0
5, 24900, Note_on_c, 1, 78, 88
5, 24958, Note_off_c, 1, 78, 0
5, 24960, Note_on_c, 1, 80, 88
5, 25076, Note_off_c, 1, 80, 0
5, 25320, Note_on_c, 1, 66, 88
5, 25436, Note_off_c, 1, 66, 0
5, 25440, Note_on_c, 1, 68, 88
5, 25556, Note_off_c, 1, 68, 0
5, 25560, Note_on_c, 1, 70, 88
5, 25618, Note_off_c, 1, 70, 0
5, 25620, Note_on_c, 1, 71, 88
5, 25678, Note_off_c, 1, 71, 0
5, 25680, Note_on_c, 1, 64, 88
5, 26036, Note_off_c, 1, 64, 0
5, 26040, Note_on_c, 1, 63, 88
5, 26098, Note_off_c, 1, 63, 0
5, 26100, Note_on_c, 1, 61, 88
5, 26158, Note_off_c, 1, 61, 0
5, 26160, Note_on_c, 1, 63, 88
5, 26218, Note_off_c, 1, 63, 0
5, 26220, Note_on_c, 1, 59, 88
5, 26278, Note_off_c, 1, 59, 0
5, 26280, Note_on_c, 1, 65, 88
5, 26396, Note_off_c, 1, 65, 0
5, 26400, Note_on_c, 1, 66, 88
5, 26996, Note_off_c, 1, 66, 0
5, 27000, Note_on_c, 1, 64, 88
5, 27058, Note_off_c, 1, 64, 0
5, 27060, Note_on_c, 1, 63, 88
5, 27118, Note_off_c, 1, 63, 0
5, 27120, Note_on_c, 1, 64, 88
5, 27178, Note_off_c, 1, 64, 0
5, 27180, Note_on_c, 1, 61, 88
5, 27238, Note_off_c, 1, 61, 0
5, 27240, Note_on_c, 1, 67, 88
5, 27356, Note_off_c, 1, 67, 0
5, 27360, Note_on_c, 1, 68, 88
5, 28074, Note_off_c, 1, 68, 0
5, 28080, Note_on_c, 1, 66, 88
5, 28314, Note_off_c, 1, 66, 0
5, 28320, Note_on_c, 1, 64, 88
5, 29034, Note_off_c, 1, 64, 0
5, 29040, Note_on_c, 1, 63, 88
5, 29274, Note_off_c, 1, 63, 0
5, 29280, Note_on_c, 1, 61, 88
5, 29876, Note_off_c, 1, 61, 0
5, 29880, Note_on_c, 1, 59, 88
5, 29938, Note_off_c, 1, 59, 0
5, 29940, Note_on_c, 1, 61, 88
5, 29998, Note_off_c, 1, 61, 0
5, 30000, Note_on_c, 1, 63, 88
5, 30116, Note_off_c, 1, 63, 0
5, 30120, Note_on_c, 1, 61, 88
5, 30178, Note_off_c, 1, 61, 0
5, 30180, Note_on_c, 1, 59, 88
5, 30238, Note_off_c, 1, 59, 0
5, 30240, Note_on_c, 1, 58, 88
5, 30356, Note_off_c, 1, 58, 0
5, 30360, Note_on_c, 1, 60, 88
5, 30418, Note_off_c, 1, 60, 0
5, 30420, Note_on_c, 1, 61, 88
5, 30478, Note_off_c, 1, 61, 0
5, 30480, Note_on_c, 1, 63, 88
5, 30596, Note_off_c, 1, 63, 0
5, 30600, Note_on_c, 1, 62, 88
5, 30658, Note_off_c, 1, 62, 0
5, 30660, Note_on_c, 1, 63, 88
5, 30718, Note_off_c, 1, 63, 0
5, 30720, Note_on_c, 1, 65, 88
5, 30836, Note_off_c, 1, 65, 0
5, 30840, Note_on_c, 1, 63, 88
5, 30898, Note_off_c, 1, 63, 0
5, 30900, Note_on_c, 1, 65, 88
5, 30958, Note_off_c, 1, 65, 0
5, 30960, Note_on_c, 1, 66, 88
5, 31076, Note_off_c, 1, 66, 0
5, 31080, Note_on_c, 1, 63, 88
5, 31196, Note_off_c, 1, 63, 0
5, 31200, Note_on_c, 1, 65, 88
5, 31316, Note_off_c, 1, 65, 0
5, 31440, Note_on_c, 1, 62, 88
5, 31556, Note_off_c, 1, 62, 0
5, 31680, Note_on_c, 1, 63, 88
5, 31796, Note_off_c, 1, 63, 0
5, 31800, Note_on_c, 1, 61, 88
5, 31858, Note_off_c, 1, 61, 0
5, 31860, Note_on_c, 1, 59, 88
5, 31918, Note_off_c, 1, 59, 0
5, 31920, Note_on_c, 1, 58, 88
5, 32036, Note_off_c, 1, 58, 0
5, 32040, Note_on_c, 1, 59, 88
5, 32156, Note_off_c, 1, 59, 0
5, 32160, Note_on_c, 1, 61, 88
5, 32276, Note_off_c, 1, 61, 0
5, 32400, Note_on_c, 1, 58, 88
5, 32516, Note_off_c, 1, 58, 0
5, 32640, Note_on_c, 1, 59, 88
5, 32874, Note_off_c, 1, 59, 0
5, 33000, Note_on_c, 1, 59, 88
5, 33116, Note_off_c, 1, 59, 0
5, 33120, Note_on_c, 1, 61, 88
5, 33222, Note_off_c, 1, 61, 0
5, 33240, Note_on_c, 1, 61, 88
5, 33356, Note_off_c, 1, 61, 0
5, 33360, Note_on_c, 1, 63, 88
5, 33462, Note_off_c, 1, 63, 0
5, 33480, Note_on_c, 1, 63, 88
5, 33596, Note_off_c, 1, 63, 0
5, 33600, Note_on_c, 1, 64, 88
5, 33658, Note_off_c, 1, 64, 0
5, 33660, Note_on_c, 1, 59, 88
5, 33718, Note_off_c, 1, 59, 0
5, 33720, Note_on_c, 1, 61, 88
5, 33778, Note_off_c, 1, 61, 0
5, 33780, Note_on_c, 1, 63, 88
5, 33838, Note_off_c, 1, 63, 0
5, 33840, Note_on_c, 1, 64, 88
5, 33956, Note_off_c, 1, 64, 0
5, 33960, Note_on_c, 1, 68, 88
5, 34076, Note_off_c, 1, 68, 0
5, 34080, Note_on_c, 1, 66, 88
5, 34618, Note_off_c, 1, 66, 0
5, 34620, Note_on_c, 1, 63, 88
5, 34678, Note_off_c, 1, 63, 0
5, 34680, Note_on_c, 1, 64, 88
5, 34738, Note_off_c, 1, 64, 0
5, 34740, Note_on_c, 1, 66, 88
5, 34798, Note_off_c, 1, 66, 0
5, 34800, Note_on_c, 1, 68, 88
5, 34916, Note_off_c, 1, 68, 0
5, 34920, Note_on_c, 1, 66, 88
5, 34978, Note_off_c, 1, 66, 0
5, 34980, Note_on_c, 1, 64, 88
5, 35038, Note_off_c, 1, 64, 0
5, 35040, Note_on_c, 1, 63, 88
5, 35156, Note_off_c, 1, 63, 0
5, 35160, Note_on_c, 1, 68, 88
5, 35394, Note_off_c, 1, 68, 0
5, 35400, Note_on_c, 1, 67, 88
5, 35458, Note_off_c, 1, 67, 0
5, 35460, Note_on_c, 1, 68, 88
5, 35518, Note_off_c, 1, 68, 0
5, 35520, Note_on_c, 1, 70, 88
5, 35636, Note_off_c, 1, 70, 0
5, 35640, Note_on_c, 1, 68, 88
5, 35698, Note_off_c, 1, 68, 0
5, 35700, Note_on_c, 1, 70, 88
5, 35758, Note_off_c, 1, 70, 0
5, 35760, Note_on_c, 1, 71, 88
5, 35876, Note_off_c, 1, 71, 0
5, 35880, Note_on_c, 1, 68, 88
5, 35996, Note_off_c, 1, 68, 0
5, 36000, Note_on_c, 1, 69, 88
5, 36116, Note_off_c, 1, 69, 0
5, 36240, Note_on_c, 1, 69, 88
5, 36356, Note_off_c, 1, 69, 0
5, 36480, Note_on_c, 1, 63, 88
5, 36596, Note_off_c, 1, 63, 0
5, 36840, Note_on_c, 1, 68, 88
5, 36956, Note_off_c, 1, 68, 0
5, 36960, Note_on_c, 1, 70, 88
5, 37076, Note_off_c, 1, 70, 0
5, 37200, Note_on_c, 1, 68, 88
5, 37316, Note_off_c, 1, 68, 0
5, 37320, Note_on_c, 1, 66, 88
5, 37436, Note_off_c, 1, 66, 0
5, 37440, Note_on_c, 1, 64, 88
5, 37556, Note_off_c, 1, 64, 0
5, 37560, Note_on_c, 1, 63, 88
5, 37676, Note_off_c, 1, 63, 0
5, 37680, Note_on_c, 1, 61, 88
5, 37902, Note_off_c, 1, 61, 0
5, 37920, Note_on_c, 1, 61, 88
5, 38036, Note_off_c, 1, 61, 0
5, 38040, Note_on_c, 1, 59, 88
5, 38156, Note_off_c, 1, 59, 0
5, 38160, Note_on_c, 1, 58, 88
5, 38394, Note_off_c, 1, 58, 0
5, 38400, Note_on_c, 1, 59, 88
5, 39345, Note_off_c, 1, 59, 0
5, 39345, End_track
6, 0, Start_track
6, 0, Title_t, "Track 3"
6, 0, Program_c, 2, 6
6, 240, Note_on_c, 2, 56, 88
6, 474, Note_off_c, 2, 56, 0
6, 480, Note_on_c, 2, 55, 88
6, 596, Note_off_c, 2, 55, 0
6, 600, Note_on_c, 2, 56, 88
6, 658, Note_off_c, 2, 56, 0
6, 660, Note_on_c, 2, 58, 88
6, 718, Note_off_c, 2, 58, 0
6, 720, Note_on_c, 2, 59, 88
6, 836, Note_off_c, 2, 59, 0
6, 840, Note_on_c, 2, 58, 88
6, 956, Note_off_c, 2, 58, 0
6, 960, Note_on_c, 2, 56, 88
6, 1076, Note_off_c, 2, 56, 0
6, 1080, Note_on_c, 2, 62, 88
6, 1196, Note_off_c, 2, 62, 0
6, 1200, Note_on_c, 2, 63, 88
6, 1316, Note_off_c, 2, 63, 0
6, 1320, Note_on_c, 2, 54, 88
6, 1436, Note_off_c, 2, 54, 0
6, 1440, Note_on_c, 2, 56, 88
6, 1542, Note_off_c, 2, 56, 0
6, 1560, Note_on_c, 2, 56, 88
6, 1676, Note_off_c, 2, 56, 0
6, 1680, Note_on_c, 2, 58, 88
6, 1782, Note_off_c, 2, 58, 0
6, 1800, Note_on_c, 2, 58, 88
6, 1916, Note_off_c, 2, 58, 0
6, 1920, Note_on_c, 2, 51, 88
6, 2036, Note_off_c, 2, 51, 0
6, 2040, Note_on_c, 2, 53, 88
6, 2156, Note_off_c, 2, 53, 0
6, 2160, Note_on_c, 2, 54, 88
6, 2513, Note_off_c, 2, 54, 0
6, 2520, Note_on_c, 2, 52, 88
6, 2578, Note_off_c, 2, 52, 0
6, 2580, Note_on_c, 2, 54, 88
6, 2638, Note_off_c, 2, 54, 0
6, 2640, Note_on_c, 2, 56, 88
6, 2756, Note_off_c, 2, 56, 0
6, 2760, Note_on_c, 2, 55, 88
6, 2818, Note_off_c, 2, 55, 0
6, 2820, Note_on_c, 2, 56, 88
6, 2878, Note_off_c, 2, 56, 0
6, 2880, Note_on_c, 2, 58, 88
6, 2996, Note_off_c, 2, 58, 0
6, 3000, Note_on_c, 2, 56, 88
6, 3058, Note_off_c, 2, 56, 0
6, 3060, Note_on_c, 2, 58, 88
6, 3118, Note_off_c, 2, 58, 0
6, 3120, Note_on_c, 2, 59, 88
6, 3236, Note_off_c, 2, 59, 0
6, 3240, Note_on_c, 2, 56, 88
6, 3356, Note_off_c, 2, 56, 0
6, 3360, Note_on_c, 2, 58, 88
6, 3476, Note_off_c, 2, 58, 0
6, 3600, Note_on_c, 2, 55, 88
6, 3716, Note_off_c, 2, 55, 0
6, 3840, Note_on_c, 2, 56, 88
6, 3956, Note_off_c, 2, 56, 0
6, 3960, Note_on_c, 2, 54, 88
6, 4076, Note_off_c, 2, 54, 0
6, 4080, Note_on_c, 2, 52, 88
6, 4314, Note_off_c, 2, 52, 0
6, 4320, Note_on_c, 2, 51, 88
6, 4436, Note_off_c, 2, 51, 0
6, 4440, Note_on_c, 2, 56, 88
6, 4674, Note_off_c, 2, 56, 0
6, 4680, Note_on_c, 2, 58, 88
6, 4796, Note_off_c, 2, 58, 0
6, 4800, Note_on_c, 2, 59, 88
6, 5034, Note_off_c, 2, 59, 0
6, 5040, Note_on_c, 2, 58, 88
6, 5274, Note_off_c, 2, 58, 0
6, 5280, Note_on_c, 2, 56, 88
6, 5876, Note_off_c, 2, 56, 0
6, 5880, Note_on_c, 2, 54, 88
6, 5938, Note_off_c, 2, 54, 0
6, 5940, Note_on_c, 2, 56, 88
6, 5998, Note_off_c, 2, 56, 0
6, 6000, Note_on_c, 2, 58, 88
6, 6116, Note_off_c, 2, 58, 0
6, 6120, Note_on_c, 2, 54, 88
6, 6236, Note_off_c, 2, 54, 0
6, 6240, Note_on_c, 2, 51, 88
6, 6356, Note_off_c, 2, 51, 0
6, 6360, Note_on_c, 2, 52, 88
6, 6476, Note_off_c, 2, 52, 0
6, 6600, Note_on_c, 2, 59, 88
6, 6716, Note_off_c, 2, 59, 0
6, 6720, Note_on_c, 2, 61, 88
6, 6954, Note_off_c, 2, 61, 0
6, 7080, Note_on_c, 2, 63, 88
6, 7196, Note_off_c, 2, 63, 0
6, 7200, Note_on_c, 2, 61, 88
6, 7316, Note_off_c, 2, 61, 0
6, 7440, Note_on_c, 2, 58, 88
6, 7556, Note_off_c, 2, 58, 0
6, 7680, Note_on_c, 2, 59, 88
6, 7914, Note_off_c, 2, 59, 0
6, 8040, Note_on_c, 2, 59, 88
6, 8156, Note_off_c, 2, 59, 0
6, 8160, Note_on_c, 2, 64, 88
6, 8276, Note_off_c, 2, 64, 0
6, 8400, Note_on_c, 2, 61, 88
6, 8516, Note_off_c, 2, 61, 0
6, 8640, Note_on_c, 2, 63, 88
6, 8874, Note_off_c, 2, 63, 0
6, 9000, Note_on_c, 2, 63, 88
6, 9116, Note_off_c, 2, 63, 0
6, 9120, Note_on_c, 2, 68, 88
6, 9236, Note_off_c, 2, 68, 0
6, 9360, Note_on_c, 2, 65, 88
6, 9476, Note_off_c, 2, 65, 0
6, 9600, Note_on_c, 2, 63, 88
6, 9716, Note_off_c, 2, 63, 0
6, 9840, Note_on_c, 2, 63, 88
6, 10074, Note_off_c, 2, 63, 0
6, 10080, Note_on_c, 2, 60, 88
6, 10196, Note_off_c, 2, 60, 0
6, 10200, Note_on_c, 2, 61, 88
6, 10258, Note_off_c, 2, 61, 0
6, 10260, Note_on_c, 2, 63, 88
6, 10318, Note_off_c, 2, 63, 0
6, 10320, Note_on_c, 2, 64, 88
6, 10436, Note_off_c, 2, 64, 0
6, 10440, Note_on_c, 2, 63, 88
6, 10556, Note_off_c, 2, 63, 0
6, 10560, Note_on_c, 2, 61, 88
6, 10676, Note_off_c, 2, 61, 0
6, 10680, Note_on_c, 2, 67, 88
6, 10796, Note_off_c, 2, 67, 0
6, 10800, Note_on_c, 2, 68, 88
6, 10916, Note_off_c, 2, 68, 0
6, 10920, Note_on_c, 2, 59, 88
6, 11036, Note_off_c, 2, 59, 0
6, 11040, Note_on_c, 2, 61, 88
6, 11142, Note_off_c, 2, 61, 0
6, 11160, Note_on_c, 2, 61, 88
6, 11276, Note_off_c, 2, 61, 0
6, 11280, Note_on_c, 2, 63, 88
6, 11382, Note_off_c, 2, 63, 0
6, 11400, Note_on_c, 2, 63, 88
6, 11516, Note_off_c, 2, 63, 0
6, 11520, Note_on_c, 2, 56, 88
6, 11754, Note_off_c, 2, 56, 0
6, 11880, Note_on_c, 2, 56, 88
6, 11996, Note_off_c, 2, 56, 0
6, 12000, Note_on_c, 2, 57, 88
6, 12102, Note_off_c, 2, 57, 0
6, 12120, Note_on_c, 2, 57, 88
6, 12236, Note_off_c, 2, 57, 0
6, 12240, Note_on_c, 2, 59, 88
6, 12342, Note_off_c, 2, 59, 0
6, 12360, Note_on_c, 2, 59, 88
6, 12476, Note_off_c, 2, 59, 0
6, 12480, Note_on_c, 2, 52, 88
6, 12714, Note_off_c, 2, 52, 0
6, 12840, Note_on_c, 2, 52, 88
6, 12956, Note_off_c, 2, 52, 0
6, 12960, Note_on_c, 2, 54, 88
6, 13062, Note_off_c, 2, 54, 0
6, 13080, Note_on_c, 2, 54, 88
6, 13196, Note_off_c, 2, 54, 0
6, 13200, Note_on_c, 2, 56, 88
6, 13302, Note_off_c, 2, 56, 0
6, 13320, Note_on_c, 2, 56, 88
6, 13436, Note_off_c, 2, 56, 0
6, 13440, Note_on_c, 2, 49, 88
6, 13556, Note_off_c, 2, 49, 0
6, 13560, Note_on_c, 2, 51, 88
6, 13676, Note_off_c, 2, 51, 0
6, 13680, Note_on_c, 2, 52, 88
6, 13796, Note_off_c, 2, 52, 0
6, 13800, Note_on_c, 2, 54, 88
6, 13916, Note_off_c, 2, 54, 0
6, 13920, Note_on_c, 2, 56, 88
6, 14273, Note_off_c, 2, 56, 0
6, 14280, Note_on_c, 2, 59, 88
6, 14396, Note_off_c, 2, 59, 0
6, 14400, Note_on_c, 2, 61, 88
6, 14634, Note_off_c, 2, 61, 0
6, 14640, Note_on_c, 2, 59, 88
6, 14756, Note_off_c, 2, 59, 0
6, 14760, Note_on_c, 2, 63, 88
6, 14876, Note_off_c, 2, 63, 0
6, 14880, Note_on_c, 2, 64, 88
6, 14996, Note_off_c, 2, 64, 0
6, 15120, Note_on_c, 2, 63, 88
6, 15236, Note_off_c, 2, 63, 0
6, 15360, Note_on_c, 2, 63, 88
6, 15476, Note_off_c, 2, 63, 0
6, 15600, Note_on_c, 2, 56, 88
6, 15834, Note_off_c, 2, 56, 0
6, 15840, Note_on_c, 2, 55, 88
6, 15956, Note_off_c, 2, 55, 0
6, 15960, Note_on_c, 2, 56, 88
6, 16018, Note_off_c, 2, 56, 0
6, 16020, Note_on_c, 2, 58, 88
6, 16078, Note_off_c, 2, 58, 0
6, 16080, Note_on_c, 2, 59, 88
6, 16196, Note_off_c, 2, 59, 0
6, 16200, Note_on_c, 2, 58, 88
6, 16316, Note_off_c, 2, 58, 0
6, 16320, Note_on_c, 2, 56, 88
6, 16436, Note_off_c, 2, 56, 0
6, 16440, Note_on_c, 2, 62, 88
6, 16556, Note_off_c, 2, 62, 0
6, 16560, Note_on_c, 2, 63, 88
6, 16676, Note_off_c, 2, 63, 0
6, 16680, Note_on_c, 2, 54, 88
6, 16796, Note_off_c, 2, 54, 0
6, 16800, Note_on_c, 2, 56, 88
6, 16902, Note_off_c, 2, 56, 0
6, 16920, Note_on_c, 2, 56, 88
6, 17036, Note_off_c, 2, 56, 0
6, 17040, Note_on_c, 2, 58, 88
6, 17142, Note_off_c, 2, 58, 0
6, 17160, Note_on_c, 2, 58, 88
6, 17276, Note_off_c, 2, 58, 0
6, 17280, Note_on_c, 2, 51, 88
6, 17396, Note_off_c, 2, 51, 0
6, 17400, Note_on_c, 2, 53, 88
6, 17516, Note_off_c, 2, 53, 0
6, 17520, Note_on_c, 2, 54, 88
6, 17873, Note_off_c, 2, 54, 0
6, 17880, Note_on_c, 2, 52, 88
6, 17938, Note_off_c, 2, 52, 0
6, 17940, Note_on_c, 2, 54, 88
6, 17998, Note_off_c, 2, 54, 0
6, 18000, Note_on_c, 2, 56, 88
6, 18116, Note_off_c, 2, 56, 0
6, 18120, Note_on_c, 2, 55, 88
6, 18178, Note_off_c, 2, 55, 0
6, 18180, Note_on_c, 2, 56, 88
6, 18238, Note_off_c, 2, 56, 0
6, 18240, Note_on_c, 2, 58, 88
6, 18356, Note_off_c, 2, 58, 0
6, 18360, Note_on_c, 2, 56, 88
6, 18418, Note_off_c, 2, 56, 0
6, 18420, Note_on_c, 2, 58, 88
6, 18478, Note_off_c, 2, 58, 0
6, 18480, Note_on_c, 2, 59, 88
6, 18596, Note_off_c, 2, 59, 0
6, 18600, Note_on_c, 2, 56, 88
6, 18716, Note_off_c, 2, 56, 0
6, 18720, Note_on_c, 2, 58, 88
6, 18836, Note_off_c, 2, 58, 0
6, 18960, Note_on_c, 2, 55, 88
6, 19076, Note_off_c, 2, 55, 0
6, 19200, Note_on_c, 2, 56, 88
6, 19434, Note_off_c, 2, 56, 0
6, 19560, Note_on_c, 2, 59, 88
6, 19676, Note_off_c, 2, 59, 0
6, 19680, Note_on_c, 2, 58, 88
6, 19796, Note_off_c, 2, 58, 0
6, 19800, Note_on_c, 2, 56, 88
6, 19916, Note_off_c, 2, 56, 0
6, 19920, Note_on_c, 2, 58, 88
6, 20036, Note_off_c, 2, 58, 0
6, 20040, Note_on_c, 2, 60, 88
6, 20156, Note_off_c, 2, 60, 0
6, 20160, Note_on_c, 2, 53, 88
6, 20276, Note_off_c, 2, 53, 0
6, 20280, Note_on_c, 2, 63, 88
6, 20396, Note_off_c, 2, 63, 0
6, 20400, Note_on_c, 2, 65, 88
6, 20516, Note_off_c, 2, 65, 0
6, 20520, Note_on_c, 2, 67, 88
6, 20636, Note_off_c, 2, 67, 0
6, 20640, Note_on_c, 2, 60, 88
6, 20756, Note_off_c, 2, 60, 0
6, 20760, Note_on_c, 2, 58, 88
6, 20876, Note_off_c, 2, 58, 0
6, 20880, Note_on_c, 2, 60, 88
6, 20996, Note_off_c, 2, 60, 0
6, 21000, Note_on_c, 2, 61, 88
6, 21116, Note_off_c, 2, 61, 0
6, 21120, Note_on_c, 2, 63, 88
6, 21710, Note_off_c, 2, 63, 0
6, 21720, Note_on_c, 2, 61, 88
6, 21778, Note_off_c, 2, 61, 0
6, 21780, Note_on_c, 2, 60, 88
6, 21838, Note_off_c, 2, 60, 0
6, 21840, Note_on_c, 2, 61, 88
6, 21956, Note_off_c, 2, 61, 0
6, 21960, Note_on_c, 2, 58, 88
6, 22122, Note_off_c, 2, 58, 0
6, 22140, Note_on_c, 2, 58, 88
6, 22198, Note_off_c, 2, 58, 0
6, 22200, Note_on_c, 2, 63, 88
6, 22258, Note_off_c, 2, 63, 0
6, 22260, Note_on_c, 2, 61, 88
6, 22318, Note_off_c, 2, 61, 0
6, 22320, Note_on_c, 2, 60, 88
6, 22378, Note_off_c, 2, 60, 0
6, 22380, Note_on_c, 2, 58, 88
6, 22438, Note_off_c, 2, 58, 0
6, 22440, Note_on_c, 2, 60, 88
6, 22556, Note_off_c, 2, 60, 0
6, 22560, Note_on_c, 2, 58, 88
6, 22676, Note_off_c, 2, 58, 0
6, 22680, Note_on_c, 2, 60, 88
6, 22738, Note_off_c, 2, 60, 0
6, 22740, Note_on_c, 2, 62, 88
6, 22798, Note_off_c, 2, 62, 0
6, 22800, Note_on_c, 2, 63, 88
6, 22916, Note_off_c, 2, 63, 0
6, 22920, Note_on_c, 2, 65, 88
6, 23036, Note_off_c, 2, 65, 0
6, 23040, Note_on_c, 2, 66, 88
6, 23334, Note_off_c, 2, 66, 0
6, 23340, Note_on_c, 2, 68, 88
6, 23398, Note_off_c, 2, 68, 0
6, 23400, Note_on_c, 2, 66, 88
6, 23458, Note_off_c, 2, 66, 0
6, 23460, Note_on_c, 2, 65, 88
6, 23518, Note_off_c, 2, 65, 0
6, 23520, Note_on_c, 2, 63, 88
6, 23578, Note_off_c, 2, 63, 0
6, 23580, Note_on_c, 2, 61, 88
6, 23638, Note_off_c, 2, 61, 0
6, 23640, Note_on_c, 2, 59, 88
6, 23698, Note_off_c, 2, 59, 0
6, 23700, Note_on_c, 2, 58, 88
6, 23758, Note_off_c, 2, 58, 0
6, 23760, Note_on_c, 2, 56, 88
6, 23994, Note_off_c, 2, 56, 0
6, 24000, Note_on_c, 2, 54, 88
6, 24116, Note_off_c, 2, 54, 0
6, 24120, Note_on_c, 2, 56, 88
6, 24236, Note_off_c, 2, 56, 0
6, 24240, Note_on_c, 2, 58, 88
6, 24356, Note_off_c, 2, 58, 0
6, 24360, Note_on_c, 2, 61, 88
6, 24476, Note_off_c, 2, 61, 0
6, 24480, Note_on_c, 2, 63, 88
6, 24950, Note_off_c, 2, 63, 0
6, 24960, Note_on_c, 2, 61, 88
6, 25313, Note_off_c, 2, 61, 0
6, 25320, Note_on_c, 2, 59, 88
6, 25422, Note_off_c, 2, 59, 0
6, 25440, Note_on_c, 2, 59, 88
6, 25556, Note_off_c, 2, 59, 0
6, 25680, Note_on_c, 2, 58, 88
6, 25796, Note_off_c, 2, 58, 0
6, 25920, Note_on_c, 2, 59, 88
6, 26154, Note_off_c, 2, 59, 0
6, 30000, Note_on_c, 2, 56, 88
6, 30234, Note_off_c, 2, 56, 0
6, 30240, Note_on_c, 2, 55, 88
6, 30356, Note_off_c, 2, 55, 0
6, 30360, Note_on_c, 2, 56, 88
6, 30418, Note_off_c, 2, 56, 0
6, 30420, Note_on_c, 2, 58, 88
6, 30478, Note_off_c, 2, 58, 0
6, 30480, Note_on_c, 2, 60, 88
6, 30596, Note_off_c, 2, 60, 0
6, 30600, Note_on_c, 2, 58, 88
6, 30716, Note_off_c, 2, 58, 0
6, 30720, Note_on_c, 2, 56, 88
6, 30836, Note_off_c, 2, 56, 0
6, 30840, Note_on_c, 2, 62, 88
6, 30956, Note_off_c, 2, 62, 0
6, 30960, Note_on_c, 2, 63, 88
6, 31076, Note_off_c, 2, 63, 0
6, 31080, Note_on_c, 2, 54, 88
6, 31196, Note_off_c, 2, 54, 0
6, 31200, Note_on_c, 2, 56, 88
6, 31302, Note_off_c, 2, 56, 0
6, 31320, Note_on_c, 2, 56, 88
6, 31436, Note_off_c, 2, 56, 0
6, 31440, Note_on_c, 2, 58, 88
6, 31542, Note_off_c, 2, 58, 0
6, 31560, Note_on_c, 2, 58, 88
6, 31676, Note_off_c, 2, 58, 0
6, 31680, Note_on_c, 2, 51, 88
6, 31914, Note_off_c, 2, 51, 0
6, 32040, Note_on_c, 2, 51, 88
6, 32156, Note_off_c, 2, 51, 0
6, 32160, Note_on_c, 2, 52, 88
6, 32262, Note_off_c, 2, 52, 0
6, 32280, Note_on_c, 2, 52, 88
6, 32396, Note_off_c, 2, 52, 0
6, 32400, Note_on_c, 2, 54, 88
6, 32502, Note_off_c, 2, 54, 0
6, 32520, Note_on_c, 2, 54, 88
6, 32636, Note_off_c, 2, 54, 0
6, 32640, Note_on_c, 2, 47, 88
6, 32698, Note_off_c, 2, 47, 0
6, 32700, Note_on_c, 2, 51, 88
6, 32758, Note_off_c, 2, 51, 0
6, 32760, Note_on_c, 2, 52, 88
6, 32818, Note_off_c, 2, 52, 0
6, 32820, Note_on_c, 2, 54, 88
6, 32878, Note_off_c, 2, 54, 0
6, 32880, Note_on_c, 2, 56, 88
6, 33350, Note_off_c, 2, 56, 0
6, 33360, Note_on_c, 2, 54, 88
6, 33594, Note_off_c, 2, 54, 0
6, 33600, Note_on_c, 2, 52, 88
6, 33834, Note_off_c, 2, 52, 0
6, 33960, Note_on_c, 2, 59, 88
6, 34076, Note_off_c, 2, 59, 0
6, 34080, Note_on_c, 2, 61, 88
6, 34182, Note_off_c, 2, 61, 0
6, 34200, Note_on_c, 2, 61, 88
6, 34316, Note_off_c, 2, 61, 0
6, 34320, Note_on_c, 2, 63, 88
6, 34422, Note_off_c, 2, 63, 0
6, 34440, Note_on_c, 2, 63, 88
6, 34556, Note_off_c, 2, 63, 0
6, 34560, Note_on_c, 2, 56, 88
6, 35150, Note_off_c, 2, 56, 0
6, 35160, Note_on_c, 2, 58, 88
6, 35218, Note_off_c, 2, 58, 0
6, 35220, Note_on_c, 2, 60, 88
6, 35278, Note_off_c, 2, 60, 0
6, 35280, Note_on_c, 2, 61, 88
6, 35396, Note_off_c, 2, 61, 0
6, 35400, Note_on_c, 2, 63, 88
6, 35516, Note_off_c, 2, 63, 0
6, 35520, Note_on_c, 2, 64, 88
6, 35754, Note_off_c, 2, 64, 0
6, 35760, Note_on_c, 2, 63, 88
6, 35994, Note_off_c, 2, 63, 0
6, 36000, Note_on_c, 2, 64, 88
6, 36116, Note_off_c, 2, 64, 0
6, 36240, Note_on_c, 2, 66, 88
6, 36356, Note_off_c, 2, 66, 0
6, 36480, Note_on_c, 2, 60, 88
6, 36596, Note_off_c, 2, 60, 0
6, 36840, Note_on_c, 2, 64, 88
6, 36956, Note_off_c, 2, 64, 0
6, 36960, Note_on_c, 2, 63, 88
6, 37076, Note_off_c, 2, 63, 0
6, 37200, Note_on_c, 2, 63, 88
6, 37434, Note_off_c, 2, 63, 0
6, 37440, Note_on_c, 2, 61, 88
6, 37674, Note_off_c, 2, 61, 0
6, 37800, Note_on_c, 2, 49, 88
6, 37916, Note_off_c, 2, 49, 0
6, 37920, Note_on_c, 2, 51, 88
6, 38390, Note_off_c, 2, 51, 0
6, 38400, Note_on_c, 2, 51, 88
6, 39345, Note_off_c, 2, 51, 0
6, 39345, End_track
7, 0, Start_track
7, 0, Title_t, "Track 4"
7, 0, Program_c, 3, 6
7, 6000, Note_on_c, 3, 51, 88
7, 6234, Note_off_c, 3, 51, 0
7, 6240, Note_on_c, 3, 48, 88
7, 6356, Note_off_c, 3, 48, 0
7, 6360, Note_on_c, 3, 49, 88
7, 6418, Note_off_c, 3, 49, 0
7, 6420, Note_on_c, 3, 51, 88
7, 6478, Note_off_c, 3, 51, 0
7, 6480, Note_on_c, 3, 52, 88
7, 6596, Note_off_c, 3, 52, 0
7, 6600, Note_on_c, 3, 51, 88
7, 6716, Note_off_c, 3, 51, 0
7, 6720, Note_on_c, 3, 49, 88
7, 6836, Note_off_c, 3, 49, 0
7, 6840, Note_on_c, 3, 55, 88
7, 6956, Note_off_c, 3, 55, 0
7, 6960, Note_on_c, 3, 56, 88
7, 7076, Note_off_c, 3, 56, 0
7, 7080, Note_on_c, 3, 47, 88
7, 7196, Note_off_c, 3, 47, 0
7, 7200, Note_on_c, 3, 49, 88
7, 7302, Note_off_c, 3, 49, 0
7, 7320, Note_on_c, 3, 49, 88
7, 7436, Note_off_c, 3, 49, 0
7, 7440, Note_on_c, 3, 51, 88
7, 7542, Note_off_c, 3, 51, 0
7, 7560, Note_on_c, 3, 51, 88
7, 7676, Note_off_c, 3, 51, 0
7, 7680, Note_on_c, 3, 44, 88
7, 7914, Note_off_c, 3, 44, 0
7, 8040, Note_on_c, 3, 51, 88
7, 8156, Note_off_c, 3, 51, 0
7, 8160, Note_on_c, 3, 52, 88
7, 8262, Note_off_c, 3, 52, 0
7, 8280, Note_on_c, 3, 52, 88
7, 8396, Note_off_c, 3, 52, 0
7, 8400, Note_on_c, 3, 54, 88
7, 8502, Note_off_c, 3, 54, 0
7, 8520, Note_on_c, 3, 54, 88
7, 8636, Note_off_c, 3, 54, 0
7, 8640, Note_on_c, 3, 47, 88
7, 8874, Note_off_c, 3, 47, 0
7, 9000, Note_on_c, 3, 54, 88
7, 9116, Note_off_c, 3, 54, 0
7, 9120, Note_on_c, 3, 56, 88
7, 9222, Note_off_c, 3, 56, 0
7, 9240, Note_on_c, 3, 56, 88
7, 9356, Note_off_c, 3, 56, 0
7, 9360, Note_on_c, 3, 58, 88
7, 9462, Note_off_c, 3, 58, 0
7, 9480, Note_on_c, 3, 58, 88
7, 9596, Note_off_c, 3, 58, 0
7, 9600, Note_on_c, 3, 51, 88
7, 9716, Note_off_c, 3, 51, 0
7, 13680, Note_on_c, 3, 49, 88
7, 13914, Note_off_c, 3, 49, 0
7, 13920, Note_on_c, 3, 48, 88
7, 14036, Note_off_c, 3, 48, 0
7, 14040, Note_on_c, 3, 49, 88
7, 14098, Note_off_c, 3, 49, 0
7, 14100, Note_on_c, 3, 51, 88
7, 14158, Note_off_c, 3, 51, 0
7, 14160, Note_on_c, 3, 52, 88
7, 14276, Note_off_c, 3, 52, 0
7, 14280, Note_on_c, 3, 51, 88
7, 14396, Note_off_c, 3, 51, 0
7, 14400, Note_on_c, 3, 49, 88
7, 14516, Note_off_c, 3, 49, 0
7, 14520, Note_on_c, 3, 55, 88
7, 14636, Note_off_c, 3, 55, 0
7, 14640, Note_on_c, 3, 56, 88
7, 14756, Note_off_c, 3, 56, 0
7, 14760, Note_on_c, 3, 47, 88
7, 14876, Note_off_c, 3, 47, 0
7, 14880, Note_on_c, 3, 49, 88
7, 14982, Note_off_c, 3, 49, 0
7, 15000, Note_on_c, 3, 49, 88
7, 15116, Note_off_c, 3, 49, 0
7, 15120, Note_on_c, 3, 51, 88
7, 15222, Note_off_c, 3, 51, 0
7, 15240, Note_on_c, 3, 51, 88
7, 15356, Note_off_c, 3, 51, 0
7, 15360, Note_on_c, 3, 44, 88
7, 15476, Note_off_c, 3, 44, 0
7, 15480, Note_on_c, 3, 46, 88
7, 15596, Note_off_c, 3, 46, 0
7, 15600, Note_on_c, 3, 47, 88
7, 15716, Note_off_c, 3, 47, 0
7, 15720, Note_on_c, 3, 49, 88
7, 15836, Note_off_c, 3, 49, 0
7, 15840, Note_on_c, 3, 51, 88
7, 16074, Note_off_c, 3, 51, 0
7, 16200, Note_on_c, 3, 51, 88
7, 16316, Note_off_c, 3, 51, 0
7, 16320, Note_on_c, 3, 53, 88
7, 16554, Note_off_c, 3, 53, 0
7, 16560, Note_on_c, 3, 51, 88
7, 17030, Note_off_c, 3, 51, 0
7, 17040, Note_on_c, 3, 50, 88
7, 17274, Note_off_c, 3, 50, 0
7, 17280, Note_on_c, 3, 51, 88
7, 17514, Note_off_c, 3, 51, 0
7, 17580, Note_on_c, 3, 39, 88
7, 17638, Note_off_c, 3, 39, 0
7, 17640, Note_on_c, 3, 40, 88
7, 17698, Note_off_c, 3, 40, 0
7, 17700, Note_on_c, 3, 42, 88
7, 17758, Note_off_c, 3, 42, 0
7, 17760, Note_on_c, 3, 44, 88
7, 17876, Note_off_c, 3, 44, 0
7, 17880, Note_on_c, 3, 49, 88
7, 18114, Note_off_c, 3, 49, 0
7, 18120, Note_on_c, 3, 51, 88
7, 18236, Note_off_c, 3, 51, 0
7, 18240, Note_on_c, 3, 52, 88
7, 18474, Note_off_c, 3, 52, 0
7, 18480, Note_on_c, 3, 51, 88
7, 18714, Note_off_c, 3, 51, 0
7, 18720, Note_on_c, 3, 49, 88
7, 19316, Note_off_c, 3, 49, 0
7, 19320, Note_on_c, 3, 47, 88
7, 19378, Note_off_c, 3, 47, 0
7, 19380, Note_on_c, 3, 46, 88
7, 19438, Note_off_c, 3, 46, 0
7, 19440, Note_on_c, 3, 47, 88
7, 19498, Note_off_c, 3, 47, 0
7, 19500, Note_on_c, 3, 44, 88
7, 19558, Note_off_c, 3, 44, 0
7, 19560, Note_on_c, 3, 50, 88
7, 19676, Note_off_c, 3, 50, 0
7, 19680, Note_on_c, 3, 51, 88
7, 20276, Note_off_c, 3, 51, 0
7, 20280, Note_on_c, 3, 49, 88
7, 20338, Note_off_c, 3, 49, 0
7, 20340, Note_on_c, 3, 48, 88
7, 20398, Note_off_c, 3, 48, 0
7, 20400, Note_on_c, 3, 49, 88
7, 20458, Note_off_c, 3, 49, 0
7, 20460, Note_on_c, 3, 46, 88
7, 20518, Note_off_c, 3, 46, 0
7, 20520, Note_on_c, 3, 52, 88
7, 20636, Note_off_c, 3, 52, 0
7, 20640, Note_on_c, 3, 53, 88
7, 21236, Note_off_c, 3, 53, 0
7, 21240, Note_on_c, 3, 51, 88
7, 21298, Note_off_c, 3, 51, 0
7, 21300, Note_on_c, 3, 49, 88
7, 21358, Note_off_c, 3, 49, 0
7, 21360, Note_on_c, 3, 51, 88
7, 21418, Note_off_c, 3, 51, 0
7, 21420, Note_on_c, 3, 48, 88
7, 21478, Note_off_c, 3, 48, 0
7, 21480, Note_on_c, 3, 53, 88
7, 21596, Note_off_c, 3, 53, 0
7, 21600, Note_on_c, 3, 54, 88
7, 22012, Note_off_c, 3, 54, 0
7, 22020, Note_on_c, 3, 53, 88
7, 22078, Note_off_c, 3, 53, 0
7, 22080, Note_on_c, 3, 51, 88
7, 22314, Note_off_c, 3, 51, 0
7, 22320, Note_on_c, 3, 53, 88
7, 22554, Note_off_c, 3, 53, 0
7, 22560, Note_on_c, 3, 46, 88
7, 22794, Note_off_c, 3, 46, 0
7, 24240, Note_on_c, 3, 54, 88
7, 24474, Note_off_c, 3, 54, 0
7, 24480, Note_on_c, 3, 51, 88
7, 24596, Note_off_c, 3, 51, 0
7, 24600, Note_on_c, 3, 52, 88
7, 24658, Note_off_c, 3, 52, 0
7, 24660, Note_on_c, 3, 54, 88
7, 24718, Note_off_c, 3, 54, 0
7, 24720, Note_on_c, 3, 56, 88
7, 24836, Note_off_c, 3, 56, 0
7, 24840, Note_on_c, 3, 54, 88
7, 24956, Note_off_c, 3, 54, 0
7, 24960, Note_on_c, 3, 52, 88
7, 25076, Note_off_c, 3, 52, 0
7, 25080, Note_on_c, 3, 58, 88
7, 25196, Note_off_c, 3, 58, 0
7, 25200, Note_on_c, 3, 59, 88
7, 25316, Note_off_c, 3, 59, 0
7, 25320, Note_on_c, 3, 51, 88
7, 25436, Note_off_c, 3, 51, 0
7, 25440, Note_on_c, 3, 52, 88
7, 25542, Note_off_c, 3, 52, 0
7, 25560, Note_on_c, 3, 52, 88
7, 25676, Note_off_c, 3, 52, 0
7, 25680, Note_on_c, 3, 54, 88
7, 25782, Note_off_c, 3, 54, 0
7, 25800, Note_on_c, 3, 54, 88
7, 25916, Note_off_c, 3, 54, 0
7, 25920, Note_on_c, 3, 47, 88
7, 26036, Note_off_c, 3, 47, 0
7, 26040, Note_on_c, 3, 46, 88
7, 26156, Note_off_c, 3, 46, 0
7, 26160, Note_on_c, 3, 44, 88
7, 26276, Note_off_c, 3, 44, 0
7, 26280, Note_on_c, 3, 49, 88
7, 26396, Note_off_c, 3, 49, 0
7, 26400, Note_on_c, 3, 42, 88
7, 26516, Note_off_c, 3, 42, 0
7, 26520, Note_on_c, 3, 40, 88
7, 26636, Note_off_c, 3, 40, 0
7, 26640, Note_on_c, 3, 39, 88
7, 26756, Note_off_c, 3, 39, 0
7, 26760, Note_on_c, 3, 44, 88
7, 26876, Note_off_c, 3, 44, 0
7, 26880, Note_on_c, 3, 49, 88
7, 26996, Note_off_c, 3, 49, 0
7, 27000, Note_on_c, 3, 47, 88
7, 27116, Note_off_c, 3, 47, 0
7, 27120, Note_on_c, 3, 46, 88
7, 27236, Note_off_c, 3, 46, 0
7, 27240, Note_on_c, 3, 51, 88
7, 27356, Note_off_c, 3, 51, 0
7, 27360, Note_on_c, 3, 44, 88
7, 27476, Note_off_c, 3, 44, 0
7, 27480, Note_on_c, 3, 42, 88
7, 27596, Note_off_c, 3, 42, 0
7, 27600, Note_on_c, 3, 41, 88
7, 27716, Note_off_c, 3, 41, 0
7, 27720, Note_on_c, 3, 46, 88
7, 27836, Note_off_c, 3, 46, 0
7, 27840, Note_on_c, 3, 39, 88
7, 28074, Note_off_c, 3, 39, 0
7, 28200, Note_on_c, 3, 51, 88
7, 28316, Note_off_c, 3, 51, 0
7, 28320, Note_on_c, 3, 52, 88
7, 28422, Note_off_c, 3, 52, 0
7, 28440, Note_on_c, 3, 52, 88
7, 28556, Note_off_c, 3, 52, 0
7, 28560, Note_on_c, 3, 54, 88
7, 28662, Note_off_c, 3, 54, 0
7, 28680, Note_on_c, 3, 54, 88
7, 28796, Note_off_c, 3, 54, 0
7, 28800, Note_on_c, 3, 47, 88
7, 29034, Note_off_c, 3, 47, 0
7, 29160, Note_on_c, 3, 47, 88
7, 29276, Note_off_c, 3, 47, 0
7, 29280, Note_on_c, 3, 49, 88
7, 29382, Note_off_c, 3, 49, 0
7, 29400, Note_on_c, 3, 49, 88
7, 29516, Note_off_c, 3, 49, 0
7, 29520, Note_on_c, 3, 51, 88
7, 29622, Note_off_c, 3, 51, 0
7, 29640, Note_on_c, 3, 51, 88
7, 29756, Note_off_c, 3, 51, 0
7, 29760, Note_on_c, 3, 44, 88
7, 29876, Note_off_c, 3, 44, 0
7, 29880, Note_on_c, 3, 46, 88
7, 29996, Note_off_c, 3, 46, 0
7, 30000, Note_on_c, 3, 47, 88
7, 30116, Note_off_c, 3, 47, 0
7, 30120, Note_on_c, 3, 49, 88
7, 30236, Note_off_c, 3, 49, 0
7, 30240, Note_on_c, 3, 51, 88
7, 30356, Note_off_c, 3, 51, 0
7, 30360, Note_on_c, 3, 54, 88
7, 30535, Note_off_c, 3, 54, 0
7, 30540, Note_on_c, 3, 56, 88
7, 30598, Note_off_c, 3, 56, 0
7, 30600, Note_on_c, 3, 54, 88
7, 30658, Note_off_c, 3, 54, 0
7, 30660, Note_on_c, 3, 53, 88
7, 30718, Note_off_c, 3, 53, 0
7, 30720, Note_on_c, 3, 51, 88
7, 30778, Note_off_c, 3, 51, 0
7, 30780, Note_on_c, 3, 50, 88
7, 30838, Note_off_c, 3, 50, 0
7, 30840, Note_on_c, 3, 48, 88
7, 30898, Note_off_c, 3, 48, 0
7, 30900, Note_on_c, 3, 46, 88
7, 30958, Note_off_c, 3, 46, 0
7, 30960, Note_on_c, 3, 44, 88
7, 31018, Note_off_c, 3, 44, 0
7, 31020, Note_on_c, 3, 42, 88
7, 31078, Note_off_c, 3, 42, 0
7, 31080, Note_on_c, 3, 44, 88
7, 31138, Note_off_c, 3, 44, 0
7, 31140, Note_on_c, 3, 46, 88
7, 31198, Note_off_c, 3, 46, 0
7, 31200, Note_on_c, 3, 47, 88
7, 31434, Note_off_c, 3, 47, 0
7, 31440, Note_on_c, 3, 46, 88
7, 31556, Note_off_c, 3, 46, 0
7, 31560, Note_on_c, 3, 44, 88
7, 31676, Note_off_c, 3, 44, 0
7, 31680, Note_on_c, 3, 42, 88
7, 31796, Note_off_c, 3, 42, 0
7, 31800, Note_on_c, 3, 46, 88
7, 31916, Note_off_c, 3, 46, 0
7, 31920, Note_on_c, 3, 39, 88
7, 32154, Note_off_c, 3, 39, 0
7, 33000, Note_on_c, 3, 44, 88
7, 33116, Note_off_c, 3, 44, 0
7, 33120, Note_on_c, 3, 45, 88
7, 33222, Note_off_c, 3, 45, 0
7, 33240, Note_on_c, 3, 45, 88
7, 33356, Note_off_c, 3, 45, 0
7, 33360, Note_on_c, 3, 47, 88
7, 33462, Note_off_c, 3, 47, 0
7, 33480, Note_on_c, 3, 47, 88
7, 33596, Note_off_c, 3, 47, 0
7, 33600, Note_on_c, 3, 40, 88
7, 33834, Note_off_c, 3, 40, 0
7, 33840, Note_on_c, 3, 52, 88
7, 34310, Note_off_c, 3, 52, 0
7, 34320, Note_on_c, 3, 51, 88
7, 34554, Note_off_c, 3, 51, 0
7, 34560, Note_on_c, 3, 49, 88
7, 34676, Note_off_c, 3, 49, 0
7, 34680, Note_on_c, 3, 51, 88
7, 34796, Note_off_c, 3, 51, 0
7, 34800, Note_on_c, 3, 52, 88
7, 34916, Note_off_c, 3, 52, 0
7, 34920, Note_on_c, 3, 54, 88
7, 35036, Note_off_c, 3, 54, 0
7, 35040, Note_on_c, 3, 56, 88
7, 36228, Note_off_c, 3, 56, 0
7, 36240, Note_on_c, 3, 54, 88
7, 36714, Note_off_c, 3, 54, 0
7, 36840, Note_on_c, 3, 52, 88
7, 36956, Note_off_c, 3, 52, 0
7, 36960, Note_on_c, 3, 43, 88
7, 37062, Note_off_c, 3, 43, 0
7, 37080, Note_on_c, 3, 43, 88
7, 37196, Note_off_c, 3, 43, 0
7, 37200, Note_on_c, 3, 44, 88
7, 37302, Note_off_c, 3, 44, 0
7, 37320, Note_on_c, 3, 44, 88
7, 37436, Note_off_c, 3, 44, 0
7, 37440, Note_on_c, 3, 37, 88
7, 37556, Note_off_c, 3, 37, 0
7, 37560, Note_on_c, 3, 39, 88
7, 37676, Note_off_c, 3, 39, 0
7, 37680, Note_on_c, 3, 40, 88
7, 37914, Note_off_c, 3, 40, 0
7, 37920, Note_on_c, 3, 39, 88
7, 38390, Note_off_c, 3, 39, 0
7, 38400, Note_on_c, 3, 44, 88
7, 39345, Note_off_c, 3, 44, 0
7, 39345, End_track
0, 0, End_of_file
