0, 0, Header, 1, 6, 240
1, 0, Start_track
1, 0, Time_signature, 9, 3, 24, 8
1, 0, Tempo, 714285
1, 0, SMPTE_offset, 64, 0, 0, 0, 118
1, 23400, Tempo, 722891
1, 28080, Tempo, 731707
1, 31560, Tempo, 740740
1, 31560, End_track
2, 0, Start_track
2, 0, Title_t, "(C) & (P) 1993"
2, 127, End_track
3, 0, Start_track
3, 0, Title_t, "CCARH,Stanford"
3, 0, End_track
4, 0, Start_track
4, 0, Title_t, "Track 1"
4, 0, Program_c, 0, 6
4, 0, Note_on_c, 0, 69, 88
4, 116, Note_off_c, 0, 69, 0
4, 480, Note_on_c, 0, 68, 88
4, 596, Note_off_c, 0, 68, 0
4, 600, Note_on_c, 0, 73, 88
4, 716, Note_off_c, 0, 73, 0
4, 720, Note_on_c, 0, 69, 88
4, 836, Note_off_c, 0, 69, 0
4, 840, Note_on_c, 0, 74, 88
4, 956, Note_off_c, 0, 74, 0
4, 960, Note_on_c, 0, 71, 88
4, 1076, Note_off_c, 0, 71, 0
4, 1080, Note_on_c, 0, 76, 88
4, 1196, Note_off_c, 0, 76, 0
4, 1200, Note_on_c, 0, 73, 88
4, 1316, Note_off_c, 0, 73, 0
4, 1320, Note_on_c, 0, 78, 88
4, 1436, Note_off_c, 0, 78, 0
4, 1440, Note_on_c, 0, 76, 88
4, 1556, Note_off_c, 0, 76, 0
4, 1560, Note_on_c, 0, 81, 88
4, 1676, Note_off_c, 0, 81, 0
4, 1680, Note_on_c, 0, 74, 88
4, 1914, Note_off_c, 0, 74, 0
4, 1920, Note_on_c, 0, 73, 88
4, 2036, Note_off_c, 0, 73, 0
4, 2040, Note_on_c, 0, 75, 88
4, 2156, Note_off_c, 0, 75, 0
4, 2160, Note_on_c, 0, 80, 88
4, 2276, Note_off_c, 0, 80, 0
4, 2280, Note_on_c, 0, 76, 88
4, 2396, Note_off_c, 0, 76, 0
4, 2400, Note_on_c, 0, 81, 88
4, 2516, Note_off_c, 0, 81, 0
4, 2520, Note_on_c, 0, 80, 88
4, 2754, Note_off_c, 0, 80, 0
4, 2760, Note_on_c, 0, 78, 88
4, 2876, Note_off_c, 0, 78, 0
4, 2880, Note_on_c, 0, 71, 88
4, 2996, Note_off_c, 0, 71, 0
4, 3000, Note_on_c, 0, 76, 88
4, 3116, Note_off_c, 0, 76, 0
4, 3120, Note_on_c, 0, 74, 88
4, 3356, Note_off_c, 0, 74, 0
4, 3360, Note_on_c, 0, 73, 88
4, 3476, Note_off_c, 0, 73, 0
4, 3480, Note_on_c, 0, 75, 88
4, 3596, Note_off_c, 0, 75, 0
4, 3600, Note_on_c, 0, 76, 88
4, 3716, Note_off_c, 0, 76, 0
4, 3720, Note_on_c, 0, 71, 88
4, 3836, Note_off_c, 0, 71, 0
4, 3840, Note_on_c, 0, 76, 88
4, 4074, Note_off_c, 0, 76, 0
4, 4080, Note_on_c, 0, 78, 88
4, 4314, Note_off_c, 0, 78, 0
4, 4320, Note_on_c, 0, 80, 88
4, 4554, Note_off_c, 0, 80, 0
4, 4560, Note_on_c, 0, 81, 88
4, 4676, Note_off_c, 0, 81, 0
4, 4680, Note_on_c, 0, 80, 88
4, 4914, Note_off_c, 0, 80, 0
4, 4920, Note_on_c, 0, 78, 88
4, 5036, Note_off_c, 0, 78, 0
4, 5040, Note_on_c, 0, 80, 88
4, 5156, Note_off_c, 0, 80, 0
4, 5160, Note_on_c, 0, 81, 88
4, 5516, Note_off_c, 0, 81, 0
4, 5520, Note_on_c, 0, 80, 88
4, 5636, Note_off_c, 0, 80, 0
4, 5640, Note_on_c, 0, 83, 88
4, 5756, Note_off_c, 0, 83, 0
4, 5760, Note_on_c, 0, 76, 88
4, 5994, Note_off_c, 0, 76, 0
4, 6000, Note_on_c, 0, 75, 88
4, 6116, Note_off_c, 0, 75, 0
4, 6120, Note_on_c, 0, 76, 88
4, 6596, Note_off_c, 0, 76, 0
4, 6600, Note_on_c, 0, 74, 88
4, 6716, Note_off_c, 0, 74, 0
4, 6720, Note_on_c, 0, 73, 88
4, 6836, Note_off_c, 0, 73, 0
4, 6840, Note_on_c, 0, 74, 88
4, 7074, Note_off_c, 0, 74, 0
4, 7080, Note_on_c, 0, 73, 88
4, 7196, Note_off_c, 0, 73, 0
4, 7200, Note_on_c, 0, 71, 88
4, 7676, Note_off_c, 0, 71, 0
4, 7680, Note_on_c, 0, 69, 88
4, 7796, Note_off_c, 0, 69, 0
4, 7800, Note_on_c, 0, 73, 88
4, 7916, Note_off_c, 0, 73, 0
4, 7920, Note_on_c, 0, 66, 88
4, 8332, Note_off_c, 0, 66, 0
4, 8340, Note_on_c, 0, 68, 88
4, 8398, Note_off_c, 0, 68, 0
4, 8400, Note_on_c, 0, 69, 88
4, 8422, Note_off_c, 0, 69, 0
4, 8423, Note_on_c, 0, 68, 88
4, 8444, Note_off_c, 0, 68, 0
4, 8445, Note_on_c, 0, 69, 88
4, 8467, Note_off_c, 0, 69, 0
4, 8468, Note_on_c, 0, 68, 88
4, 8489, Note_off_c, 0, 68, 0
4, 8490, Note_on_c, 0, 69, 88
4, 8512, Note_off_c, 0, 69, 0
4, 8513, Note_on_c, 0, 68, 88
4, 8534, Note_off_c, 0, 68, 0
4, 8535, Note_on_c, 0, 69, 88
4, 8557, Note_off_c, 0, 69, 0
4, 8558, Note_on_c, 0, 68, 88
4, 8579, Note_off_c, 0, 68, 0
4, 8580, Note_on_c, 0, 66, 88
4, 8609, Note_off_c, 0, 66, 0
4, 8610, Note_on_c, 0, 68, 88
4, 8639, Note_off_c, 0, 68, 0
4, 8640, Note_on_c, 0, 69, 88
4, 8756, Note_off_c, 0, 69, 0
4, 9120, Note_on_c, 0, 68, 88
4, 9236, Note_off_c, 0, 68, 0
4, 9240, Note_on_c, 0, 73, 88
4, 9356, Note_off_c, 0, 73, 0
4, 9360, Note_on_c, 0, 69, 88
4, 9476, Note_off_c, 0, 69, 0
4, 9480, Note_on_c, 0, 74, 88
4, 9596, Note_off_c, 0, 74, 0
4, 9600, Note_on_c, 0, 71, 88
4, 9716, Note_off_c, 0, 71, 0
4, 9720, Note_on_c, 0, 76, 88
4, 9836, Note_off_c, 0, 76, 0
4, 9840, Note_on_c, 0, 73, 88
4, 9956, Note_off_c, 0, 73, 0
4, 9960, Note_on_c, 0, 78, 88
4, 10076, Note_off_c, 0, 78, 0
4, 10080, Note_on_c, 0, 76, 88
4, 10196, Note_off_c, 0, 76, 0
4, 10200, Note_on_c, 0, 81, 88
4, 10316, Note_off_c, 0, 81, 0
4, 10320, Note_on_c, 0, 74, 88
4, 10554, Note_off_c, 0, 74, 0
4, 10560, Note_on_c, 0, 73, 88
4, 10676, Note_off_c, 0, 73, 0
4, 10680, Note_on_c, 0, 75, 88
4, 10796, Note_off_c, 0, 75, 0
4, 10800, Note_on_c, 0, 76, 88
4, 11270, Note_off_c, 0, 76, 0
4, 11280, Note_on_c, 0, 74, 88
4, 11396, Note_off_c, 0, 74, 0
4, 11400, Note_on_c, 0, 79, 88
4, 11516, Note_off_c, 0, 79, 0
4, 11520, Note_on_c, 0, 73, 88
4, 11636, Note_off_c, 0, 73, 0
4, 11640, Note_on_c, 0, 78, 88
4, 11756, Note_off_c, 0, 78, 0
4, 11760, Note_on_c, 0, 74, 88
4, 11876, Note_off_c, 0, 74, 0
4, 11880, Note_on_c, 0, 71, 88
4, 12350, Note_off_c, 0, 71, 0
4, 12360, Note_on_c, 0, 69, 88
4, 12476, Note_off_c, 0, 69, 0
4, 12480, Note_on_c, 0, 74, 88
4, 12596, Note_off_c, 0, 74, 0
4, 12600, Note_on_c, 0, 68, 88
4, 12716, Note_off_c, 0, 68, 0
4, 12720, Note_on_c, 0, 73, 88
4, 12836, Note_off_c, 0, 73, 0
4, 12840, Note_on_c, 0, 71, 88
4, 12956, Note_off_c, 0, 71, 0
4, 12960, Note_on_c, 0, 69, 88
4, 13430, Note_off_c, 0, 69, 0
4, 13440, Note_on_c, 0, 68, 88
4, 13556, Note_off_c, 0, 68, 0
4, 13560, Note_on_c, 0, 66, 88
4, 13676, Note_off_c, 0, 66, 0
4, 13680, Note_on_c, 0, 74, 88
4, 14156, Note_off_c, 0, 74, 0
4, 14160, Note_on_c, 0, 73, 88
4, 14276, Note_off_c, 0, 73, 0
4, 14280, Note_on_c, 0, 78, 88
4, 14514, Note_off_c, 0, 78, 0
4, 14520, Note_on_c, 0, 76, 88
4, 14636, Note_off_c, 0, 76, 0
4, 14640, Note_on_c, 0, 74, 88
4, 14756, Note_off_c, 0, 74, 0
4, 14760, Note_on_c, 0, 73, 88
4, 15236, Note_off_c, 0, 73, 0
4, 15240, Note_on_c, 0, 71, 88
4, 15356, Note_off_c, 0, 71, 0
4, 15360, Note_on_c, 0, 70, 88
4, 15476, Note_off_c, 0, 70, 0
4, 15480, Note_on_c, 0, 71, 88
4, 15714, Note_off_c, 0, 71, 0
4, 15720, Note_on_c, 0, 73, 88
4, 15836, Note_off_c, 0, 73, 0
4, 15840, Note_on_c, 0, 66, 88
4, 15956, Note_off_c, 0, 66, 0
4, 15960, Note_on_c, 0, 71, 88
4, 16076, Note_off_c, 0, 71, 0
4, 16080, Note_on_c, 0, 70, 88
4, 16196, Note_off_c, 0, 70, 0
4, 16200, Note_on_c, 0, 71, 88
4, 16316, Note_off_c, 0, 71, 0
4, 16320, Note_on_c, 0, 74, 88
4, 16673, Note_off_c, 0, 74, 0
4, 16680, Note_on_c, 0, 73, 88
4, 16796, Note_off_c, 0, 73, 0
4, 16800, Note_on_c, 0, 78, 88
4, 17034, Note_off_c, 0, 78, 0
4, 17040, Note_on_c, 0, 76, 88
4, 17156, Note_off_c, 0, 76, 0
4, 17160, Note_on_c, 0, 81, 88
4, 17396, Note_off_c, 0, 81, 0
4, 17400, Note_on_c, 0, 80, 88
4, 17458, Note_off_c, 0, 80, 0
4, 17460, Note_on_c, 0, 78, 88
4, 17518, Note_off_c, 0, 78, 0
4, 17520, Note_on_c, 0, 80, 88
4, 17754, Note_off_c, 0, 80, 0
4, 17760, Note_on_c, 0, 78, 88
4, 17876, Note_off_c, 0, 78, 0
4, 17880, Note_on_c, 0, 76, 88
4, 18114, Note_off_c, 0, 76, 0
4, 18120, Note_on_c, 0, 75, 88
4, 18236, Note_off_c, 0, 75, 0
4, 18240, Note_on_c, 0, 78, 88
4, 18356, Note_off_c, 0, 78, 0
4, 18360, Note_on_c, 0, 71, 88
4, 18950, Note_off_c, 0, 71, 0
4, 18960, Note_on_c, 0, 69, 88
4, 19194, Note_off_c, 0, 69, 0
4, 19200, Note_on_c, 0, 68, 88
4, 19556, Note_off_c, 0, 68, 0
4, 19560, Note_on_c, 0, 66, 88
4, 19676, Note_off_c, 0, 66, 0
4, 19680, Note_on_c, 0, 69, 88
4, 19796, Note_off_c, 0, 69, 0
4, 19800, Note_on_c, 0, 63, 88
4, 19916, Note_off_c, 0, 63, 0
4, 19920, Note_on_c, 0, 71, 88
4, 20036, Note_off_c, 0, 71, 0
4, 20040, Note_on_c, 0, 68, 88
4, 20156, Note_off_c, 0, 68, 0
4, 20160, Note_on_c, 0, 73, 88
4, 20276, Note_off_c, 0, 73, 0
4, 20280, Note_on_c, 0, 68, 88
4, 20302, Note_off_c, 0, 68, 0
4, 20303, Note_on_c, 0, 66, 88
4, 20328, Note_off_c, 0, 66, 0
4, 20329, Note_on_c, 0, 68, 88
4, 20354, Note_off_c, 0, 68, 0
4, 20355, Note_on_c, 0, 66, 88
4, 20377, Note_off_c, 0, 66, 0
4, 20378, Note_on_c, 0, 68, 88
4, 20399, Note_off_c, 0, 68, 0
4, 20400, Note_on_c, 0, 66, 88
4, 20516, Note_off_c, 0, 66, 0
4, 20520, Note_on_c, 0, 64, 88
4, 20636, Note_off_c, 0, 64, 0
4, 20640, Note_on_c, 0, 76, 88
4, 20756, Note_off_c, 0, 76, 0
4, 20760, Note_on_c, 0, 71, 88
4, 20876, Note_off_c, 0, 71, 0
4, 20880, Note_on_c, 0, 73, 88
4, 20996, Note_off_c, 0, 73, 0
4, 21000, Note_on_c, 0, 78, 88
4, 21116, Note_off_c, 0, 78, 0
4, 21120, Note_on_c, 0, 73, 88
4, 21236, Note_off_c, 0, 73, 0
4, 21240, Note_on_c, 0, 74, 88
4, 21716, Note_off_c, 0, 74, 0
4, 21720, Note_on_c, 0, 71, 88
4, 21836, Note_off_c, 0, 71, 0
4, 21840, Note_on_c, 0, 76, 88
4, 21956, Note_off_c, 0, 76, 0
4, 21960, Note_on_c, 0, 73, 88
4, 22076, Note_off_c, 0, 73, 0
4, 22080, Note_on_c, 0, 78, 88
4, 22196, Note_off_c, 0, 78, 0
4, 22200, Note_on_c, 0, 74, 88
4, 22316, Note_off_c, 0, 74, 0
4, 22320, Note_on_c, 0, 80, 88
4, 22436, Note_off_c, 0, 80, 0
4, 22440, Note_on_c, 0, 76, 88
4, 22556, Note_off_c, 0, 76, 0
4, 22560, Note_on_c, 0, 81, 88
4, 22676, Note_off_c, 0, 81, 0
4, 22680, Note_on_c, 0, 78, 88
4, 22914, Note_off_c, 0, 78, 0
4, 22920, Note_on_c, 0, 83, 88
4, 23036, Note_off_c, 0, 83, 0
4, 23040, Note_on_c, 0, 76, 88
4, 23156, Note_off_c, 0, 76, 0
4, 23160, Note_on_c, 0, 81, 88
4, 23513, Note_off_c, 0, 81, 0
4, 23520, Note_on_c, 0, 80, 88
4, 23754, Note_off_c, 0, 80, 0
4, 23760, Note_on_c, 0, 81, 88
4, 23876, Note_off_c, 0, 81, 0
4, 25920, Note_on_c, 0, 64, 88
4, 26036, Note_off_c, 0, 64, 0
4, 26400, Note_on_c, 0, 61, 88
4, 26516, Note_off_c, 0, 61, 0
4, 26520, Note_on_c, 0, 66, 88
4, 26636, Note_off_c, 0, 66, 0
4, 26640, Note_on_c, 0, 64, 88
4, 26756, Note_off_c, 0, 64, 0
4, 26760, Note_on_c, 0, 69, 88
4, 26876, Note_off_c, 0, 69, 0
4, 26880, Note_on_c, 0, 66, 88
4, 26996, Note_off_c, 0, 66, 0
4, 27000, Note_on_c, 0, 71, 88
4, 27116, Note_off_c, 0, 71, 0
4, 27120, Note_on_c, 0, 68, 88
4, 27236, Note_off_c, 0, 68, 0
4, 27240, Note_on_c, 0, 73, 88
4, 27356, Note_off_c, 0, 73, 0
4, 27360, Note_on_c, 0, 69, 88
4, 27476, Note_off_c, 0, 69, 0
4, 27480, Note_on_c, 0, 74, 88
4, 27596, Note_off_c, 0, 74, 0
4, 27600, Note_on_c, 0, 73, 88
4, 27716, Note_off_c, 0, 73, 0
4, 27720, Note_on_c, 0, 78, 88
4, 27836, Note_off_c, 0, 78, 0
4, 27840, Note_on_c, 0, 75, 88
4, 28074, Note_off_c, 0, 75, 0
4, 28080, Note_on_c, 0, 76, 88
4, 28138, Note_off_c, 0, 76, 0
4, 28140, Note_on_c, 0, 78, 88
4, 28198, Note_off_c, 0, 78, 0
4, 28200, Note_on_c, 0, 80, 88
4, 28258, Note_off_c, 0, 80, 0
4, 28260, Note_on_c, 0, 76, 88
4, 28318, Note_off_c, 0, 76, 0
4, 28320, Note_on_c, 0, 80, 88
4, 28378, Note_off_c, 0, 80, 0
4, 28380, Note_on_c, 0, 81, 88
4, 28438, Note_off_c, 0, 81, 0
4, 28440, Note_on_c, 0, 83, 88
4, 28556, Note_off_c, 0, 83, 0
4, 30360, Note_on_c, 0, 83, 88
4, 30418, Note_off_c, 0, 83, 0
4, 30420, Note_on_c, 0, 81, 88
4, 30478, Note_off_c, 0, 81, 0
4, 30480, Note_on_c, 0, 80, 88
4, 30538, Note_off_c, 0, 80, 0
4, 30540, Note_on_c, 0, 78, 88
4, 30598, Note_off_c, 0, 78, 0
4, 30600, Note_on_c, 0, 76, 88
4, 30658, Note_off_c, 0, 76, 0
4, 30660, Note_on_c, 0, 78, 88
4, 30718, Note_off_c, 0, 78, 0
4, 30720, Note_on_c, 0, 80, 88
4, 30778, Note_off_c, 0, 80, 0
4, 30780, Note_on_c, 0, 76, 88
4, 30838, Note_off_c, 0, 76, 0
4, 30840, Note_on_c, 0, 74, 88
4, 30898, Note_off_c, 0, 74, 0
4, 30900, Note_on_c, 0, 73, 88
4, 30958, Note_off_c, 0, 73, 0
4, 30960, Note_on_c, 0, 74, 88
4, 31018, Note_off_c, 0, 74, 0
4, 31020, Note_on_c, 0, 73, 88
4, 31078, Note_off_c, 0, 73, 0
4, 31080, Note_on_c, 0, 74, 88
4, 31138, Note_off_c, 0, 74, 0
4, 31140, Note_on_c, 0, 78, 88
4, 31198, Note_off_c, 0, 78, 0
4, 31200, Note_on_c, 0, 76, 88
4, 31258, Note_off_c, 0, 76, 0
4, 31260, Note_on_c, 0, 74, 88
4, 31318, Note_off_c, 0, 74, 0
4, 31320, Note_on_c, 0, 73, 88
4, 31436, Note_off_c, 0, 73, 0
4, 31440, Note_on_c, 0, 69, 88
4, 31556, Note_off_c, 0, 69, 0
4, 31560, Note_on_c, 0, 74, 88
4, 31676, Note_off_c, 0, 74, 0
4, 31680, Note_on_c, 0, 73, 88
4, 31796, Note_off_c, 0, 73, 0
4, 31800, Note_on_c, 0, 81, 88
4, 31916, Note_off_c, 0, 81, 0
4, 31920, Note_on_c, 0, 74, 88
4, 32036, Note_off_c, 0, 74, 0
4, 32040, Note_on_c, 0, 71, 88
4, 32156, Note_off_c, 0, 71, 0
4, 32160, Note_on_c, 0, 76, 88
4, 32276, Note_off_c, 0, 76, 0
4, 32280, Note_on_c, 0, 73, 88
4, 32396, Note_off_c, 0, 73, 0
4, 32400, Note_on_c, 0, 74, 88
4, 32516, Note_off_c, 0, 74, 0
4, 32880, Note_on_c, 0, 64, 88
4, 32996, Note_off_c, 0, 64, 0
4, 33000, Note_on_c, 0, 69, 88
4, 33116, Note_off_c, 0, 69, 0
4, 33120, Note_on_c, 0, 66, 88
4, 33236, Note_off_c, 0, 66, 0
4, 33240, Note_on_c, 0, 71, 88
4, 33356, Note_off_c, 0, 71, 0
4, 33360, Note_on_c, 0, 73, 88
4, 33596, Note_off_c, 0, 73, 0
4, 33600, Note_on_c, 0, 74, 88
4, 33716, Note_off_c, 0, 74, 0
4, 33720, Note_on_c, 0, 79, 88
4, 33954, Note_off_c, 0, 79, 0
4, 33960, Note_on_c, 0, 78, 88
4, 34076, Note_off_c, 0, 78, 0
4, 34080, Note_on_c, 0, 76, 88
4, 34196, Note_off_c, 0, 76, 0
4, 34200, Note_on_c, 0, 69, 88
4, 34316, Note_off_c, 0, 69, 0
4, 34320, Note_on_c, 0, 74, 88
4, 34436, Note_off_c, 0, 74, 0
4, 34440, Note_on_c, 0, 73, 88
4, 34556, Note_off_c, 0, 73, 0
4, 34560, Note_on_c, 0, 74, 88
4, 34676, Note_off_c, 0, 74, 0
4, 34680, Note_on_c, 0, 78, 88
4, 34738, Note_off_c, 0, 78, 0
4, 34740, Note_on_c, 0, 76, 88
4, 34798, Note_off_c, 0, 76, 0
4, 34800, Note_on_c, 0, 74, 88
4, 34858, Note_off_c, 0, 74, 0
4, 34860, Note_on_c, 0, 73, 88
4, 34918, Note_off_c, 0, 73, 0
4, 34920, Note_on_c, 0, 71, 88
4, 35036, Note_off_c, 0, 71, 0
4, 35040, Note_on_c, 0, 76, 88
4, 35393, Note_off_c, 0, 76, 0
4, 35400, Note_on_c, 0, 74, 88
4, 35756, Note_off_c, 0, 74, 0
4, 35760, Note_on_c, 0, 73, 88
4, 35994, Note_off_c, 0, 73, 0
4, 36060, Note_on_c, 0, 71, 88
4, 36118, Note_off_c, 0, 71, 0
4, 36120, Note_on_c, 0, 70, 88
4, 36178, Note_off_c, 0, 70, 0
4, 36180, Note_on_c, 0, 71, 88
4, 36238, Note_off_c, 0, 71, 0
4, 36240, Note_on_c, 0, 73, 88
4, 36298, Note_off_c, 0, 73, 0
4, 36300, Note_on_c, 0, 74, 88
4, 36358, Note_off_c, 0, 74, 0
4, 36360, Note_on_c, 0, 76, 88
4, 36418, Note_off_c, 0, 76, 0
4, 36420, Note_on_c, 0, 74, 88
4, 36478, Note_off_c, 0, 74, 0
4, 36480, Note_on_c, 0, 76, 88
4, 36538, Note_off_c, 0, 76, 0
4, 36540, Note_on_c, 0, 78, 88
4, 36598, Note_off_c, 0, 78, 0
4, 36600, Note_on_c, 0, 79, 88
4, 36658, Note_off_c, 0, 79, 0
4, 36660, Note_on_c, 0, 76, 88
4, 36718, Note_off_c, 0, 76, 0
4, 36720, Note_on_c, 0, 82, 88
4, 36778, Note_off_c, 0, 82, 0
4, 36780, Note_on_c, 0, 78, 88
4, 36838, Note_off_c, 0, 78, 0
4, 36840, Note_on_c, 0, 83, 88
4, 36898, Note_off_c, 0, 83, 0
4, 36900, Note_on_c, 0, 81, 88
4, 36958, Note_off_c, 0, 81, 0
4, 36960, Note_on_c, 0, 79, 88
4, 37018, Note_off_c, 0, 79, 0
4, 37020, Note_on_c, 0, 78, 88
4, 37078, Note_off_c, 0, 78, 0
4, 37080, Note_on_c, 0, 76, 88
4, 37138, Note_off_c, 0, 76, 0
4, 37140, Note_on_c, 0, 74, 88
4, 37198, Note_off_c, 0, 74, 0
4, 37200, Note_on_c, 0, 73, 88
4, 37258, Note_off_c, 0, 73, 0
4, 37260, Note_on_c, 0, 71, 88
4, 37318, Note_off_c, 0, 71, 0
4, 37320, Note_on_c, 0, 70, 88
4, 37378, Note_off_c, 0, 70, 0
4, 37380, Note_on_c, 0, 71, 88
4, 37438, Note_off_c, 0, 71, 0
4, 37440, Note_on_c, 0, 79, 88
4, 37498, Note_off_c, 0, 79, 0
4, 37500, Note_on_c, 0, 78, 88
4, 37558, Note_off_c, 0, 78, 0
4, 37560, Note_on_c, 0, 76, 88
4, 37618, Note_off_c, 0, 76, 0
4, 37620, Note_on_c, 0, 74, 88
4, 37678, Note_off_c, 0, 74, 0
4, 37680, Note_on_c, 0, 73, 88
4, 37738, Note_off_c, 0, 73, 0
4, 37740, Note_on_c, 0, 71, 88
4, 37798, Note_off_c, 0, 71, 0
4, 37800, Note_on_c, 0, 71, 88
4, 37916, Note_off_c, 0, 71, 0
4, 37920, Note_on_c, 0, 74, 88
4, 38273, Note_off_c, 0, 74, 0
4, 38280, Note_on_c, 0, 71, 88
4, 38396, Note_off_c, 0, 71, 0
4, 38400, Note_on_c, 0, 76, 88
4, 38516, Note_off_c, 0, 76, 0
4, 38520, Note_on_c, 0, 73, 88
4, 38636, Note_off_c, 0, 73, 0
4, 38640, Note_on_c, 0, 78, 88
4, 38756, Note_off_c, 0, 78, 0
4, 38760, Note_on_c, 0, 75, 88
4, 38876, Note_off_c, 0, 75, 0
4, 38880, Note_on_c, 0, 71, 88
4, 39350, Note_off_c, 0, 71, 0
4, 39360, Note_on_c, 0, 68, 88
4, 39476, Note_off_c, 0, 68, 0
4, 39480, Note_on_c, 0, 73, 88
4, 39596, Note_off_c, 0, 73, 0
4, 39600, Note_on_c, 0, 69, 88
4, 40076, Note_off_c, 0, 69, 0
4, 40080, Note_on_c, 0, 71, 88
4, 40433, Note_off_c, 0, 71, 0
4, 40440, Note_on_c, 0, 69, 88
4, 40556, Note_off_c, 0, 69, 0
4, 40560, Note_on_c, 0, 65, 88
4, 40676, Note_off_c, 0, 65, 0
4, 40680, Note_on_c, 0, 66, 88
4, 41156, Note_off_c, 0, 66, 0
4, 41160, Note_on_c, 0, 63, 88
4, 41276, Note_off_c, 0, 63, 0
4, 41280, Note_on_c, 0, 68, 88
4, 41396, Note_off_c, 0, 68, 0
4, 41400, Note_on_c, 0, 65, 88
4, 41458, Note_off_c, 0, 65, 0
4, 41460, Note_on_c, 0, 61, 88
4, 41518, Note_off_c, 0, 61, 0
4, 41520, Note_on_c, 0, 63, 88
4, 41578, Note_off_c, 0, 63, 0
4, 41580, Note_on_c, 0, 65, 88
4, 41638, Note_off_c, 0, 65, 0
4, 41640, Note_on_c, 0, 66, 88
4, 41698, Note_off_c, 0, 66, 0
4, 41700, Note_on_c, 0, 68, 88
4, 41758, Note_off_c, 0, 68, 0
4, 41760, Note_on_c, 0, 69, 88
4, 41818, Note_off_c, 0, 69, 0
4, 41820, Note_on_c, 0, 66, 88
4, 41878, Note_off_c, 0, 66, 0
4, 41880, Note_on_c, 0, 68, 88
4, 41938, Note_off_c, 0, 68, 0
4, 41940, Note_on_c, 0, 69, 88
4, 41998, Note_off_c, 0, 69, 0
4, 42000, Note_on_c, 0, 71, 88
4, 42058, Note_off_c, 0, 71, 0
4, 42060, Note_on_c, 0, 73, 88
4, 42118, Note_off_c, 0, 73, 0
4, 42120, Note_on_c, 0, 74, 88
4, 42178, Note_off_c, 0, 74, 0
4, 42180, Note_on_c, 0, 71, 88
4, 42238, Note_off_c, 0, 71, 0
4, 42240, Note_on_c, 0, 73, 88
4, 42298, Note_off_c, 0, 73, 0
4, 42300, Note_on_c, 0, 75, 88
4, 42358, Note_off_c, 0, 75, 0
4, 42360, Note_on_c, 0, 77, 88
4, 42418, Note_off_c, 0, 77, 0
4, 42420, Note_on_c, 0, 78, 88
4, 42478, Note_off_c, 0, 78, 0
4, 42480, Note_on_c, 0, 74, 88
4, 42538, Note_off_c, 0, 74, 0
4, 42540, Note_on_c, 0, 76, 88
4, 42598, Note_off_c, 0, 76, 0
4, 42600, Note_on_c, 0, 74, 88
4, 42658, Note_off_c, 0, 74, 0
4, 42660, Note_on_c, 0, 73, 88
4, 42718, Note_off_c, 0, 73, 0
4, 42720, Note_on_c, 0, 71, 88
4, 42778, Note_off_c, 0, 71, 0
4, 42780, Note_on_c, 0, 69, 88
4, 42838, Note_off_c, 0, 69, 0
4, 42840, Note_on_c, 0, 68, 88
4, 42898, Note_off_c, 0, 68, 0
4, 42900, Note_on_c, 0, 71, 88
4, 42958, Note_off_c, 0, 71, 0
4, 42960, Note_on_c, 0, 69, 88
4, 43018, Note_off_c, 0, 69, 0
4, 43020, Note_on_c, 0, 68, 88
4, 43078, Note_off_c, 0, 68, 0
4, 43080, Note_on_c, 0, 66, 88
4, 43138, Note_off_c, 0, 66, 0
4, 43140, Note_on_c, 0, 65, 88
4, 43198, Note_off_c, 0, 65, 0
4, 43200, Note_on_c, 0, 71, 88
4, 43612, Note_off_c, 0, 71, 0
4, 43620, Note_on_c, 0, 69, 88
4, 43678, Note_off_c, 0, 69, 0
4, 43680, Note_on_c, 0, 71, 88
4, 43738, Note_off_c, 0, 71, 0
4, 43740, Note_on_c, 0, 68, 88
4, 43798, Note_off_c, 0, 68, 0
4, 43800, Note_on_c, 0, 69, 88
4, 43975, Note_off_c, 0, 69, 0
4, 43980, Note_on_c, 0, 71, 88
4, 44038, Note_off_c, 0, 71, 0
4, 44040, Note_on_c, 0, 69, 88
4, 44065, Note_off_c, 0, 69, 0
4, 44066, Note_on_c, 0, 68, 88
4, 44092, Note_off_c, 0, 68, 0
4, 44093, Note_on_c, 0, 69, 88
4, 44114, Note_off_c, 0, 69, 0
4, 44115, Note_on_c, 0, 68, 88
4, 44137, Note_off_c, 0, 68, 0
4, 44138, Note_on_c, 0, 69, 88
4, 44159, Note_off_c, 0, 69, 0
4, 44160, Note_on_c, 0, 68, 88
4, 44218, Note_off_c, 0, 68, 0
4, 44220, Note_on_c, 0, 66, 88
4, 44278, Note_off_c, 0, 66, 0
4, 44280, Note_on_c, 0, 66, 88
4, 44396, Note_off_c, 0, 66, 0
4, 44400, Note_on_c, 0, 61, 88
4, 44516, Note_off_c, 0, 61, 0
4, 44520, Note_on_c, 0, 66, 88
4, 44636, Note_off_c, 0, 66, 0
4, 44640, Note_on_c, 0, 64, 88
4, 44874, Note_off_c, 0, 64, 0
4, 44880, Note_on_c, 0, 69, 88
4, 44996, Note_off_c, 0, 69, 0
4, 45000, Note_on_c, 0, 66, 88
4, 45116, Note_off_c, 0, 66, 0
4, 45120, Note_on_c, 0, 71, 88
4, 45236, Note_off_c, 0, 71, 0
4, 45240, Note_on_c, 0, 68, 88
4, 45356, Note_off_c, 0, 68, 0
4, 45360, Note_on_c, 0, 73, 88
4, 45476, Note_off_c, 0, 73, 0
4, 45480, Note_on_c, 0, 69, 88
4, 45596, Note_off_c, 0, 69, 0
4, 45600, Note_on_c, 0, 74, 88
4, 45834, Note_off_c, 0, 74, 0
4, 45840, Note_on_c, 0, 73, 88
4, 45956, Note_off_c, 0, 73, 0
4, 45960, Note_on_c, 0, 71, 88
4, 46076, Note_off_c, 0, 71, 0
4, 46080, Note_on_c, 0, 64, 88
4, 46196, Note_off_c, 0, 64, 0
4, 46200, Note_on_c, 0, 69, 88
4, 46556, Note_off_c, 0, 69, 0
4, 46560, Note_on_c, 0, 68, 88
4, 46676, Note_off_c, 0, 68, 0
4, 46680, Note_on_c, 0, 71, 88
4, 46796, Note_off_c, 0, 71, 0
4, 46800, Note_on_c, 0, 64, 88
4, 46916, Note_off_c, 0, 64, 0
4, 46920, Note_on_c, 0, 69, 88
4, 47154, Note_off_c, 0, 69, 0
4, 47160, Note_on_c, 0, 68, 88
4, 47276, Note_off_c, 0, 68, 0
4, 47280, Note_on_c, 0, 73, 88
4, 47396, Note_off_c, 0, 73, 0
4, 47400, Note_on_c, 0, 69, 88
4, 47516, Note_off_c, 0, 69, 0
4, 47520, Note_on_c, 0, 74, 88
4, 47873, Note_off_c, 0, 74, 0
4, 47880, Note_on_c, 0, 73, 88
4, 47996, Note_off_c, 0, 73, 0
4, 48000, Note_on_c, 0, 78, 88
4, 48353, Note_off_c, 0, 78, 0
4, 48360, Note_on_c, 0, 76, 88
4, 48476, Note_off_c, 0, 76, 0
4, 48480, Note_on_c, 0, 74, 88
4, 48716, Note_off_c, 0, 74, 0
4, 48720, Note_on_c, 0, 73, 88
4, 49073, Note_off_c, 0, 73, 0
4, 49080, Note_on_c, 0, 71, 88
4, 49196, Note_off_c, 0, 71, 0
4, 49200, Note_on_c, 0, 69, 88
4, 49434, Note_off_c, 0, 69, 0
4, 49440, Note_on_c, 0, 68, 88
4, 49556, Note_off_c, 0, 68, 0
4, 49560, Note_on_c, 0, 71, 88
4, 49676, Note_off_c, 0, 71, 0
4, 49680, Note_on_c, 0, 76, 88
4, 50270, Note_off_c, 0, 76, 0
4, 50280, Note_on_c, 0, 74, 88
4, 50514, Note_off_c, 0, 74, 0
4, 50520, Note_on_c, 0, 73, 88
4, 50876, Note_off_c, 0, 73, 0
4, 50880, Note_on_c, 0, 71, 88
4, 50996, Note_off_c, 0, 71, 0
4, 51000, Note_on_c, 0, 74, 88
4, 51116, Note_off_c, 0, 74, 0
4, 51120, Note_on_c, 0, 68, 88
4, 51236, Note_off_c, 0, 68, 0
4, 51240, Note_on_c, 0, 76, 88
4, 51356, Note_off_c, 0, 76, 0
4, 51360, Note_on_c, 0, 73, 88
4, 51476, Note_off_c, 0, 73, 0
4, 51480, Note_on_c, 0, 78, 88
4, 51596, Note_off_c, 0, 78, 0
4, 51600, Note_on_c, 0, 71, 88
4, 51834, Note_off_c, 0, 71, 0
4, 51840, Note_on_c, 0, 69, 88
4, 51956, Note_off_c, 0, 69, 0
4, 51960, Note_on_c, 0, 76, 88
4, 52018, Note_off_c, 0, 76, 0
4, 52020, Note_on_c, 0, 74, 88
4, 52078, Note_off_c, 0, 74, 0
4, 52080, Note_on_c, 0, 73, 88
4, 52138, Note_off_c, 0, 73, 0
4, 52140, Note_on_c, 0, 71, 88
4, 52198, Note_off_c, 0, 71, 0
4, 52200, Note_on_c, 0, 69, 88
4, 52258, Note_off_c, 0, 69, 0
4, 52260, Note_on_c, 0, 71, 88
4, 52318, Note_off_c, 0, 71, 0
4, 52320, Note_on_c, 0, 73, 88
4, 52378, Note_off_c, 0, 73, 0
4, 52380, Note_on_c, 0, 69, 88
4, 52438, Note_off_c, 0, 69, 0
4, 52440, Note_on_c, 0, 67, 88
4, 52498, Note_off_c, 0, 67, 0
4, 52500, Note_on_c, 0, 66, 88
4, 52558, Note_off_c, 0, 66, 0
4, 52560, Note_on_c, 0, 67, 88
4, 52618, Note_off_c, 0, 67, 0
4, 52620, Note_on_c, 0, 66, 88
4, 52678, Note_off_c, 0, 66, 0
4, 52680, Note_on_c, 0, 67, 88
4, 52738, Note_off_c, 0, 67, 0
4, 52740, Note_on_c, 0, 71, 88
4, 52798, Note_off_c, 0, 71, 0
4, 52800, Note_on_c, 0, 69, 88
4, 52858, Note_off_c, 0, 69, 0
4, 52860, Note_on_c, 0, 67, 88
4, 52918, Note_off_c, 0, 67, 0
4, 52920, Note_on_c, 0, 66, 88
4, 53036, Note_off_c, 0, 66, 0
4, 53040, Note_on_c, 0, 62, 88
4, 53156, Note_off_c, 0, 62, 0
4, 53160, Note_on_c, 0, 69, 88
4, 53276, Note_off_c, 0, 69, 0
4, 53280, Note_on_c, 0, 68, 88
4, 53396, Note_off_c, 0, 68, 0
4, 53400, Note_on_c, 0, 76, 88
4, 53516, Note_off_c, 0, 76, 0
4, 53520, Note_on_c, 0, 69, 88
4, 53636, Note_off_c, 0, 69, 0
4, 53640, Note_on_c, 0, 78, 88
4, 53756, Note_off_c, 0, 78, 0
4, 53760, Note_on_c, 0, 71, 88
4, 53876, Note_off_c, 0, 71, 0
4, 53880, Note_on_c, 0, 80, 88
4, 53996, Note_off_c, 0, 80, 0
4, 54000, Note_on_c, 0, 81, 88
4, 54116, Note_off_c, 0, 81, 0
4, 54120, Note_on_c, 0, 76, 88
4, 54473, Note_off_c, 0, 76, 0
4, 54480, Note_on_c, 0, 74, 88
4, 54596, Note_off_c, 0, 74, 0
4, 54600, Note_on_c, 0, 78, 88
4, 54716, Note_off_c, 0, 78, 0
4, 54720, Note_on_c, 0, 71, 88
4, 55196, Note_off_c, 0, 71, 0
4, 55200, Note_on_c, 0, 69, 88
4, 55316, Note_off_c, 0, 69, 0
4, 55320, Note_on_c, 0, 67, 88
4, 55436, Note_off_c, 0, 67, 0
4, 55440, Note_on_c, 0, 66, 88
4, 55793, Note_off_c, 0, 66, 0
4, 55800, Note_on_c, 0, 71, 88
4, 55916, Note_off_c, 0, 71, 0
4, 55920, Note_on_c, 0, 64, 88
4, 56036, Note_off_c, 0, 64, 0
4, 56040, Note_on_c, 0, 69, 88
4, 56156, Note_off_c, 0, 69, 0
4, 56160, Note_on_c, 0, 62, 88
4, 56630, Note_off_c, 0, 62, 0
4, 56640, Note_on_c, 0, 61, 88
4, 56756, Note_off_c, 0, 61, 0
4, 56760, Note_on_c, 0, 69, 88
4, 56979, Note_off_c, 0, 69, 0
4, 57000, Note_on_c, 0, 69, 88
4, 57116, Note_off_c, 0, 69, 0
4, 57120, Note_on_c, 0, 68, 88
4, 57236, Note_off_c, 0, 68, 0
4, 57240, Note_on_c, 0, 69, 88
4, 58303, Note_off_c, 0, 69, 0
4, 58303, End_track
5, 0, Start_track
5, 0, Title_t, "Track 2"
5, 0, Program_c, 1, 6
5, 1080, Note_on_c, 1, 64, 88
5, 1196, Note_off_c, 1, 64, 0
5, 1560, Note_on_c, 1, 61, 88
5, 1676, Note_off_c, 1, 61, 0
5, 1680, Note_on_c, 1, 66, 88
5, 1796, Note_off_c, 1, 66, 0
5, 1800, Note_on_c, 1, 64, 88
5, 1916, Note_off_c, 1, 64, 0
5, 1920, Note_on_c, 1, 69, 88
5, 2036, Note_off_c, 1, 69, 0
5, 2040, Note_on_c, 1, 66, 88
5, 2156, Note_off_c, 1, 66, 0
5, 2160, Note_on_c, 1, 71, 88
5, 2276, Note_off_c, 1, 71, 0
5, 2280, Note_on_c, 1, 68, 88
5, 2396, Note_off_c, 1, 68, 0
5, 2400, Note_on_c, 1, 73, 88
5, 2516, Note_off_c, 1, 73, 0
5, 2520, Note_on_c, 1, 71, 88
5, 2636, Note_off_c, 1, 71, 0
5, 2640, Note_on_c, 1, 76, 88
5, 2756, Note_off_c, 1, 76, 0
5, 2760, Note_on_c, 1, 69, 88
5, 2994, Note_off_c, 1, 69, 0
5, 3000, Note_on_c, 1, 68, 88
5, 3116, Note_off_c, 1, 68, 0
5, 3120, Note_on_c, 1, 71, 88
5, 3236, Note_off_c, 1, 71, 0
5, 3240, Note_on_c, 1, 64, 88
5, 3356, Note_off_c, 1, 64, 0
5, 3360, Note_on_c, 1, 69, 88
5, 3476, Note_off_c, 1, 69, 0
5, 3480, Note_on_c, 1, 66, 88
5, 3596, Note_off_c, 1, 66, 0
5, 3600, Note_on_c, 1, 68, 88
5, 3953, Note_off_c, 1, 68, 0
5, 3960, Note_on_c, 1, 73, 88
5, 4076, Note_off_c, 1, 73, 0
5, 4080, Note_on_c, 1, 69, 88
5, 4196, Note_off_c, 1, 69, 0
5, 4200, Note_on_c, 1, 74, 88
5, 4316, Note_off_c, 1, 74, 0
5, 4320, Note_on_c, 1, 71, 88
5, 4436, Note_off_c, 1, 71, 0
5, 4440, Note_on_c, 1, 76, 88
5, 4556, Note_off_c, 1, 76, 0
5, 4560, Note_on_c, 1, 74, 88
5, 4794, Note_off_c, 1, 74, 0
5, 4800, Note_on_c, 1, 73, 88
5, 5034, Note_off_c, 1, 73, 0
5, 5040, Note_on_c, 1, 71, 88
5, 5156, Note_off_c, 1, 71, 0
5, 5160, Note_on_c, 1, 76, 88
5, 5276, Note_off_c, 1, 76, 0
5, 5280, Note_on_c, 1, 78, 88
5, 5396, Note_off_c, 1, 78, 0
5, 5400, Note_on_c, 1, 71, 88
5, 5516, Note_off_c, 1, 71, 0
5, 5520, Note_on_c, 1, 76, 88
5, 5636, Note_off_c, 1, 76, 0
5, 5640, Note_on_c, 1, 74, 88
5, 5874, Note_off_c, 1, 74, 0
5, 5880, Note_on_c, 1, 73, 88
5, 5938, Note_off_c, 1, 73, 0
5, 5940, Note_on_c, 1, 71, 88
5, 5998, Note_off_c, 1, 71, 0
5, 6000, Note_on_c, 1, 73, 88
5, 6058, Note_off_c, 1, 73, 0
5, 6060, Note_on_c, 1, 69, 88
5, 6118, Note_off_c, 1, 69, 0
5, 6120, Note_on_c, 1, 68, 88
5, 6236, Note_off_c, 1, 68, 0
5, 6240, Note_on_c, 1, 73, 88
5, 6356, Note_off_c, 1, 73, 0
5, 6360, Note_on_c, 1, 69, 88
5, 6476, Note_off_c, 1, 69, 0
5, 6480, Note_on_c, 1, 66, 88
5, 6596, Note_off_c, 1, 66, 0
5, 6600, Note_on_c, 1, 71, 88
5, 6716, Note_off_c, 1, 71, 0
5, 6720, Note_on_c, 1, 69, 88
5, 6954, Note_off_c, 1, 69, 0
5, 6960, Note_on_c, 1, 68, 88
5, 7076, Note_off_c, 1, 68, 0
5, 7080, Note_on_c, 1, 69, 88
5, 7196, Note_off_c, 1, 69, 0
5, 7200, Note_on_c, 1, 62, 88
5, 7676, Note_off_c, 1, 62, 0
5, 7680, Note_on_c, 1, 61, 88
5, 7796, Note_off_c, 1, 61, 0
5, 7800, Note_on_c, 1, 64, 88
5, 7916, Note_off_c, 1, 64, 0
5, 7920, Note_on_c, 1, 57, 88
5, 8273, Note_off_c, 1, 57, 0
5, 8280, Note_on_c, 1, 62, 88
5, 8756, Note_off_c, 1, 62, 0
5, 8760, Note_on_c, 1, 61, 88
5, 8876, Note_off_c, 1, 61, 0
5, 8880, Note_on_c, 1, 66, 88
5, 8996, Note_off_c, 1, 66, 0
5, 9000, Note_on_c, 1, 59, 88
5, 9116, Note_off_c, 1, 59, 0
5, 9120, Note_on_c, 1, 64, 88
5, 9236, Note_off_c, 1, 64, 0
5, 9240, Note_on_c, 1, 68, 88
5, 9474, Note_off_c, 1, 68, 0
5, 9480, Note_on_c, 1, 66, 88
5, 9596, Note_off_c, 1, 66, 0
5, 9600, Note_on_c, 1, 68, 88
5, 9836, Note_off_c, 1, 68, 0
5, 9840, Note_on_c, 1, 69, 88
5, 9956, Note_off_c, 1, 69, 0
5, 9960, Note_on_c, 1, 71, 88
5, 10076, Note_off_c, 1, 71, 0
5, 10080, Note_on_c, 1, 73, 88
5, 10433, Note_off_c, 1, 73, 0
5, 10440, Note_on_c, 1, 71, 88
5, 10674, Note_off_c, 1, 71, 0
5, 10680, Note_on_c, 1, 69, 88
5, 10916, Note_off_c, 1, 69, 0
5, 10920, Note_on_c, 1, 68, 88
5, 11036, Note_off_c, 1, 68, 0
5, 11040, Note_on_c, 1, 73, 88
5, 11156, Note_off_c, 1, 73, 0
5, 11160, Note_on_c, 1, 66, 88
5, 11276, Note_off_c, 1, 66, 0
5, 11280, Note_on_c, 1, 71, 88
5, 11633, Note_off_c, 1, 71, 0
5, 11640, Note_on_c, 1, 69, 88
5, 11874, Note_off_c, 1, 69, 0
5, 11880, Note_on_c, 1, 68, 88
5, 12350, Note_off_c, 1, 68, 0
5, 12360, Note_on_c, 1, 66, 88
5, 12713, Note_off_c, 1, 66, 0
5, 12720, Note_on_c, 1, 65, 88
5, 12836, Note_off_c, 1, 65, 0
5, 12840, Note_on_c, 1, 68, 88
5, 13076, Note_off_c, 1, 68, 0
5, 13080, Note_on_c, 1, 66, 88
5, 13196, Note_off_c, 1, 66, 0
5, 13200, Note_on_c, 1, 64, 88
5, 13316, Note_off_c, 1, 64, 0
5, 13320, Note_on_c, 1, 62, 88
5, 13554, Note_off_c, 1, 62, 0
5, 13560, Note_on_c, 1, 61, 88
5, 13794, Note_off_c, 1, 61, 0
5, 13800, Note_on_c, 1, 59, 88
5, 13916, Note_off_c, 1, 59, 0
5, 13920, Note_on_c, 1, 71, 88
5, 14036, Note_off_c, 1, 71, 0
5, 14040, Note_on_c, 1, 65, 88
5, 14156, Note_off_c, 1, 65, 0
5, 14160, Note_on_c, 1, 66, 88
5, 14394, Note_off_c, 1, 66, 0
5, 14400, Note_on_c, 1, 68, 88
5, 14516, Note_off_c, 1, 68, 0
5, 14520, Note_on_c, 1, 70, 88
5, 14636, Note_off_c, 1, 70, 0
5, 14640, Note_on_c, 1, 71, 88
5, 14756, Note_off_c, 1, 71, 0
5, 14760, Note_on_c, 1, 64, 88
5, 15113, Note_off_c, 1, 64, 0
5, 15120, Note_on_c, 1, 62, 88
5, 15354, Note_off_c, 1, 62, 0
5, 15360, Note_on_c, 1, 67, 88
5, 15476, Note_off_c, 1, 67, 0
5, 15480, Note_on_c, 1, 66, 88
5, 15596, Note_off_c, 1, 66, 0
5, 15600, Note_on_c, 1, 64, 88
5, 15834, Note_off_c, 1, 64, 0
5, 15840, Note_on_c, 1, 62, 88
5, 16074, Note_off_c, 1, 62, 0
5, 16080, Note_on_c, 1, 61, 88
5, 16196, Note_off_c, 1, 61, 0
5, 16200, Note_on_c, 1, 62, 88
5, 16316, Note_off_c, 1, 62, 0
5, 16320, Note_on_c, 1, 66, 88
5, 16436, Note_off_c, 1, 66, 0
5, 16440, Note_on_c, 1, 71, 88
5, 16556, Note_off_c, 1, 71, 0
5, 16560, Note_on_c, 1, 68, 88
5, 16794, Note_off_c, 1, 68, 0
5, 16800, Note_on_c, 1, 73, 88
5, 16916, Note_off_c, 1, 73, 0
5, 16920, Note_on_c, 1, 71, 88
5, 17036, Note_off_c, 1, 71, 0
5, 17040, Note_on_c, 1, 76, 88
5, 17156, Note_off_c, 1, 76, 0
5, 17160, Note_on_c, 1, 73, 88
5, 17276, Note_off_c, 1, 73, 0
5, 17280, Note_on_c, 1, 71, 88
5, 17750, Note_off_c, 1, 71, 0
5, 17760, Note_on_c, 1, 69, 88
5, 17876, Note_off_c, 1, 69, 0
5, 17880, Note_on_c, 1, 73, 88
5, 17996, Note_off_c, 1, 73, 0
5, 18000, Note_on_c, 1, 66, 88
5, 18476, Note_off_c, 1, 66, 0
5, 18480, Note_on_c, 1, 64, 88
5, 18596, Note_off_c, 1, 64, 0
5, 18600, Note_on_c, 1, 68, 88
5, 18716, Note_off_c, 1, 68, 0
5, 18720, Note_on_c, 1, 61, 88
5, 19073, Note_off_c, 1, 61, 0
5, 19080, Note_on_c, 1, 66, 88
5, 19196, Note_off_c, 1, 66, 0
5, 19200, Note_on_c, 1, 59, 88
5, 19316, Note_off_c, 1, 59, 0
5, 19320, Note_on_c, 1, 64, 88
5, 19436, Note_off_c, 1, 64, 0
5, 19440, Note_on_c, 1, 61, 88
5, 19793, Note_off_c, 1, 61, 0
5, 19800, Note_on_c, 1, 59, 88
5, 20034, Note_off_c, 1, 59, 0
5, 20040, Note_on_c, 1, 64, 88
5, 20393, Note_off_c, 1, 64, 0
5, 20400, Note_on_c, 1, 63, 88
5, 20516, Note_off_c, 1, 63, 0
5, 20520, Note_on_c, 1, 64, 88
5, 20636, Note_off_c, 1, 64, 0
5, 21000, Note_on_c, 1, 69, 88
5, 21116, Note_off_c, 1, 69, 0
5, 21120, Note_on_c, 1, 64, 88
5, 21236, Note_off_c, 1, 64, 0
5, 21240, Note_on_c, 1, 66, 88
5, 21356, Note_off_c, 1, 66, 0
5, 21360, Note_on_c, 1, 71, 88
5, 21476, Note_off_c, 1, 71, 0
5, 21480, Note_on_c, 1, 66, 88
5, 21596, Note_off_c, 1, 66, 0
5, 21600, Note_on_c, 1, 68, 88
5, 21834, Note_off_c, 1, 68, 0
5, 21960, Note_on_c, 1, 64, 88
5, 22076, Note_off_c, 1, 64, 0
5, 22080, Note_on_c, 1, 69, 88
5, 22196, Note_off_c, 1, 69, 0
5, 22200, Note_on_c, 1, 66, 88
5, 22316, Note_off_c, 1, 66, 0
5, 22320, Note_on_c, 1, 71, 88
5, 22436, Note_off_c, 1, 71, 0
5, 22440, Note_on_c, 1, 68, 88
5, 22556, Note_off_c, 1, 68, 0
5, 22560, Note_on_c, 1, 73, 88
5, 22676, Note_off_c, 1, 73, 0
5, 22680, Note_on_c, 1, 69, 88
5, 22796, Note_off_c, 1, 69, 0
5, 22800, Note_on_c, 1, 74, 88
5, 23153, Note_off_c, 1, 74, 0
5, 23160, Note_on_c, 1, 73, 88
5, 23276, Note_off_c, 1, 73, 0
5, 23280, Note_on_c, 1, 78, 88
5, 23396, Note_off_c, 1, 78, 0
5, 23400, Note_on_c, 1, 71, 88
5, 23575, Note_off_c, 1, 71, 0
5, 23580, Note_on_c, 1, 78, 88
5, 23638, Note_off_c, 1, 78, 0
5, 23640, Note_on_c, 1, 76, 88
5, 23698, Note_off_c, 1, 76, 0
5, 23700, Note_on_c, 1, 74, 88
5, 23758, Note_off_c, 1, 74, 0
5, 23760, Note_on_c, 1, 73, 88
5, 23818, Note_off_c, 1, 73, 0
5, 23820, Note_on_c, 1, 74, 88
5, 23878, Note_off_c, 1, 74, 0
5, 23880, Note_on_c, 1, 76, 88
5, 23938, Note_off_c, 1, 76, 0
5, 23940, Note_on_c, 1, 73, 88
5, 23998, Note_off_c, 1, 73, 0
5, 24000, Note_on_c, 1, 71, 88
5, 24058, Note_off_c, 1, 71, 0
5, 24060, Note_on_c, 1, 69, 88
5, 24118, Note_off_c, 1, 69, 0
5, 24120, Note_on_c, 1, 68, 88
5, 24178, Note_off_c, 1, 68, 0
5, 24180, Note_on_c, 1, 69, 88
5, 24238, Note_off_c, 1, 69, 0
5, 24240, Note_on_c, 1, 71, 88
5, 24298, Note_off_c, 1, 71, 0
5, 24300, Note_on_c, 1, 68, 88
5, 24358, Note_off_c, 1, 68, 0
5, 24360, Note_on_c, 1, 66, 88
5, 24418, Note_off_c, 1, 66, 0
5, 24420, Note_on_c, 1, 64, 88
5, 24478, Note_off_c, 1, 64, 0
5, 24480, Note_on_c, 1, 66, 88
5, 24538, Note_off_c, 1, 66, 0
5, 24540, Note_on_c, 1, 64, 88
5, 24598, Note_off_c, 1, 64, 0
5, 24600, Note_on_c, 1, 66, 88
5, 24658, Note_off_c, 1, 66, 0
5, 24660, Note_on_c, 1, 69, 88
5, 24718, Note_off_c, 1, 69, 0
5, 24720, Note_on_c, 1, 68, 88
5, 24778, Note_off_c, 1, 68, 0
5, 24780, Note_on_c, 1, 66, 88
5, 24838, Note_off_c, 1, 66, 0
5, 24840, Note_on_c, 1, 68, 88
5, 24898, Note_off_c, 1, 68, 0
5, 24900, Note_on_c, 1, 71, 88
5, 24958, Note_off_c, 1, 71, 0
5, 24960, Note_on_c, 1, 69, 88
5, 25018, Note_off_c, 1, 69, 0
5, 25020, Note_on_c, 1, 68, 88
5, 25078, Note_off_c, 1, 68, 0
5, 25080, Note_on_c, 1, 69, 88
5, 25138, Note_off_c, 1, 69, 0
5, 25140, Note_on_c, 1, 71, 88
5, 25198, Note_off_c, 1, 71, 0
5, 25200, Note_on_c, 1, 73, 88
5, 25258, Note_off_c, 1, 73, 0
5, 25260, Note_on_c, 1, 71, 88
5, 25318, Note_off_c, 1, 71, 0
5, 25320, Note_on_c, 1, 73, 88
5, 25378, Note_off_c, 1, 73, 0
5, 25380, Note_on_c, 1, 74, 88
5, 25438, Note_off_c, 1, 74, 0
5, 25440, Note_on_c, 1, 76, 88
5, 25498, Note_off_c, 1, 76, 0
5, 25500, Note_on_c, 1, 78, 88
5, 25558, Note_off_c, 1, 78, 0
5, 25560, Note_on_c, 1, 80, 88
5, 25618, Note_off_c, 1, 80, 0
5, 25620, Note_on_c, 1, 83, 88
5, 25678, Note_off_c, 1, 83, 0
5, 25680, Note_on_c, 1, 81, 88
5, 25738, Note_off_c, 1, 81, 0
5, 25740, Note_on_c, 1, 80, 88
5, 25798, Note_off_c, 1, 80, 0
5, 25800, Note_on_c, 1, 78, 88
5, 25858, Note_off_c, 1, 78, 0
5, 25860, Note_on_c, 1, 81, 88
5, 25918, Note_off_c, 1, 81, 0
5, 25920, Note_on_c, 1, 80, 88
5, 25978, Note_off_c, 1, 80, 0
5, 25980, Note_on_c, 1, 81, 88
5, 26038, Note_off_c, 1, 81, 0
5, 26040, Note_on_c, 1, 83, 88
5, 26098, Note_off_c, 1, 83, 0
5, 26100, Note_on_c, 1, 78, 88
5, 26158, Note_off_c, 1, 78, 0
5, 26160, Note_on_c, 1, 76, 88
5, 26218, Note_off_c, 1, 76, 0
5, 26220, Note_on_c, 1, 74, 88
5, 26278, Note_off_c, 1, 74, 0
5, 26280, Note_on_c, 1, 73, 88
5, 26396, Note_off_c, 1, 73, 0
5, 26760, Note_on_c, 1, 73, 88
5, 26876, Note_off_c, 1, 73, 0
5, 26880, Note_on_c, 1, 69, 88
5, 26996, Note_off_c, 1, 69, 0
5, 27000, Note_on_c, 1, 74, 88
5, 27116, Note_off_c, 1, 74, 0
5, 27120, Note_on_c, 1, 71, 88
5, 27236, Note_off_c, 1, 71, 0
5, 27240, Note_on_c, 1, 76, 88
5, 27356, Note_off_c, 1, 76, 0
5, 27360, Note_on_c, 1, 73, 88
5, 27476, Note_off_c, 1, 73, 0
5, 27480, Note_on_c, 1, 78, 88
5, 27596, Note_off_c, 1, 78, 0
5, 27600, Note_on_c, 1, 76, 88
5, 27716, Note_off_c, 1, 76, 0
5, 27720, Note_on_c, 1, 81, 88
5, 27836, Note_off_c, 1, 81, 0
5, 27840, Note_on_c, 1, 80, 88
5, 27862, Note_off_c, 1, 80, 0
5, 27863, Note_on_c, 1, 78, 88
5, 27892, Note_off_c, 1, 78, 0
5, 27893, Note_on_c, 1, 80, 88
5, 27922, Note_off_c, 1, 80, 0
5, 27923, Note_on_c, 1, 78, 88
5, 27944, Note_off_c, 1, 78, 0
5, 27945, Note_on_c, 1, 80, 88
5, 27967, Note_off_c, 1, 80, 0
5, 27968, Note_on_c, 1, 78, 88
5, 27989, Note_off_c, 1, 78, 0
5, 27990, Note_on_c, 1, 80, 88
5, 28012, Note_off_c, 1, 80, 0
5, 28013, Note_on_c, 1, 78, 88
5, 28034, Note_off_c, 1, 78, 0
5, 28035, Note_on_c, 1, 76, 88
5, 28057, Note_off_c, 1, 76, 0
5, 28058, Note_on_c, 1, 78, 88
5, 28079, Note_off_c, 1, 78, 0
5, 28080, Note_on_c, 1, 76, 88
5, 28196, Note_off_c, 1, 76, 0
5, 28560, Note_on_c, 1, 63, 88
5, 28676, Note_off_c, 1, 63, 0
5, 28680, Note_on_c, 1, 68, 88
5, 28796, Note_off_c, 1, 68, 0
5, 28800, Note_on_c, 1, 64, 88
5, 28916, Note_off_c, 1, 64, 0
5, 28920, Note_on_c, 1, 69, 88
5, 29036, Note_off_c, 1, 69, 0
5, 29040, Note_on_c, 1, 66, 88
5, 29156, Note_off_c, 1, 66, 0
5, 29160, Note_on_c, 1, 71, 88
5, 29276, Note_off_c, 1, 71, 0
5, 29280, Note_on_c, 1, 68, 88
5, 29396, Note_off_c, 1, 68, 0
5, 29400, Note_on_c, 1, 73, 88
5, 29516, Note_off_c, 1, 73, 0
5, 29520, Note_on_c, 1, 71, 88
5, 29636, Note_off_c, 1, 71, 0
5, 29640, Note_on_c, 1, 76, 88
5, 29756, Note_off_c, 1, 76, 0
5, 29760, Note_on_c, 1, 69, 88
5, 29994, Note_off_c, 1, 69, 0
5, 30000, Note_on_c, 1, 66, 88
5, 30116, Note_off_c, 1, 66, 0
5, 30120, Note_on_c, 1, 71, 88
5, 30236, Note_off_c, 1, 71, 0
5, 30240, Note_on_c, 1, 68, 88
5, 30356, Note_off_c, 1, 68, 0
5, 32520, Note_on_c, 1, 57, 88
5, 32636, Note_off_c, 1, 57, 0
5, 32640, Note_on_c, 1, 62, 88
5, 32874, Note_off_c, 1, 62, 0
5, 32880, Note_on_c, 1, 61, 88
5, 32996, Note_off_c, 1, 61, 0
5, 33000, Note_on_c, 1, 66, 88
5, 33116, Note_off_c, 1, 66, 0
5, 33120, Note_on_c, 1, 62, 88
5, 33236, Note_off_c, 1, 62, 0
5, 33240, Note_on_c, 1, 67, 88
5, 33356, Note_off_c, 1, 67, 0
5, 33360, Note_on_c, 1, 64, 88
5, 33476, Note_off_c, 1, 64, 0
5, 33480, Note_on_c, 1, 69, 88
5, 33596, Note_off_c, 1, 69, 0
5, 33600, Note_on_c, 1, 66, 88
5, 33716, Note_off_c, 1, 66, 0
5, 33720, Note_on_c, 1, 71, 88
5, 33836, Note_off_c, 1, 71, 0
5, 33840, Note_on_c, 1, 69, 88
5, 33956, Note_off_c, 1, 69, 0
5, 33960, Note_on_c, 1, 74, 88
5, 34076, Note_off_c, 1, 74, 0
5, 34080, Note_on_c, 1, 67, 88
5, 34314, Note_off_c, 1, 67, 0
5, 34320, Note_on_c, 1, 66, 88
5, 34436, Note_off_c, 1, 66, 0
5, 34440, Note_on_c, 1, 64, 88
5, 34556, Note_off_c, 1, 64, 0
5, 34560, Note_on_c, 1, 66, 88
5, 34676, Note_off_c, 1, 66, 0
5, 34980, Note_on_c, 1, 74, 88
5, 35038, Note_off_c, 1, 74, 0
5, 35040, Note_on_c, 1, 73, 88
5, 35098, Note_off_c, 1, 73, 0
5, 35100, Note_on_c, 1, 71, 88
5, 35158, Note_off_c, 1, 71, 0
5, 35160, Note_on_c, 1, 70, 88
5, 35218, Note_off_c, 1, 70, 0
5, 35220, Note_on_c, 1, 68, 88
5, 35278, Note_off_c, 1, 68, 0
5, 35280, Note_on_c, 1, 66, 88
5, 35338, Note_off_c, 1, 66, 0
5, 35340, Note_on_c, 1, 73, 88
5, 35398, Note_off_c, 1, 73, 0
5, 35400, Note_on_c, 1, 71, 88
5, 35458, Note_off_c, 1, 71, 0
5, 35460, Note_on_c, 1, 69, 88
5, 35518, Note_off_c, 1, 69, 0
5, 35520, Note_on_c, 1, 67, 88
5, 35578, Note_off_c, 1, 67, 0
5, 35580, Note_on_c, 1, 66, 88
5, 35638, Note_off_c, 1, 66, 0
5, 35640, Note_on_c, 1, 64, 88
5, 35698, Note_off_c, 1, 64, 0
5, 35700, Note_on_c, 1, 71, 88
5, 35758, Note_off_c, 1, 71, 0
5, 35760, Note_on_c, 1, 70, 88
5, 35818, Note_off_c, 1, 70, 0
5, 35820, Note_on_c, 1, 68, 88
5, 35878, Note_off_c, 1, 68, 0
5, 35880, Note_on_c, 1, 66, 88
5, 35938, Note_off_c, 1, 66, 0
5, 35940, Note_on_c, 1, 64, 88
5, 35998, Note_off_c, 1, 64, 0
5, 36000, Note_on_c, 1, 62, 88
5, 36116, Note_off_c, 1, 62, 0
5, 36120, Note_on_c, 1, 64, 88
5, 36354, Note_off_c, 1, 64, 0
5, 36360, Note_on_c, 1, 66, 88
5, 36476, Note_off_c, 1, 66, 0
5, 36480, Note_on_c, 1, 71, 88
5, 36714, Note_off_c, 1, 71, 0
5, 36720, Note_on_c, 1, 73, 88
5, 36836, Note_off_c, 1, 73, 0
5, 36840, Note_on_c, 1, 66, 88
5, 37074, Note_off_c, 1, 66, 0
5, 37080, Note_on_c, 1, 67, 88
5, 37196, Note_off_c, 1, 67, 0
5, 37200, Note_on_c, 1, 64, 88
5, 37316, Note_off_c, 1, 64, 0
5, 37320, Note_on_c, 1, 66, 88
5, 37436, Note_off_c, 1, 66, 0
5, 37440, Note_on_c, 1, 59, 88
5, 37556, Note_off_c, 1, 59, 0
5, 37560, Note_on_c, 1, 58, 88
5, 37794, Note_off_c, 1, 58, 0
5, 37920, Note_on_c, 1, 66, 88
5, 38036, Note_off_c, 1, 66, 0
5, 38040, Note_on_c, 1, 71, 88
5, 38156, Note_off_c, 1, 71, 0
5, 38160, Note_on_c, 1, 68, 88
5, 38630, Note_off_c, 1, 68, 0
5, 38640, Note_on_c, 1, 73, 88
5, 38756, Note_off_c, 1, 73, 0
5, 38760, Note_on_c, 1, 69, 88
5, 38996, Note_off_c, 1, 69, 0
5, 39000, Note_on_c, 1, 68, 88
5, 39116, Note_off_c, 1, 68, 0
5, 39120, Note_on_c, 1, 63, 88
5, 39236, Note_off_c, 1, 63, 0
5, 39240, Note_on_c, 1, 64, 88
5, 39710, Note_off_c, 1, 64, 0
5, 39720, Note_on_c, 1, 61, 88
5, 39836, Note_off_c, 1, 61, 0
5, 39840, Note_on_c, 1, 66, 88
5, 39956, Note_off_c, 1, 66, 0
5, 39960, Note_on_c, 1, 63, 88
5, 40076, Note_off_c, 1, 63, 0
5, 40080, Note_on_c, 1, 68, 88
5, 40196, Note_off_c, 1, 68, 0
5, 40200, Note_on_c, 1, 65, 88
5, 40316, Note_off_c, 1, 65, 0
5, 40320, Note_on_c, 1, 61, 88
5, 40790, Note_off_c, 1, 61, 0
5, 40800, Note_on_c, 1, 57, 88
5, 40916, Note_off_c, 1, 57, 0
5, 40920, Note_on_c, 1, 62, 88
5, 41036, Note_off_c, 1, 62, 0
5, 41040, Note_on_c, 1, 59, 88
5, 41510, Note_off_c, 1, 59, 0
5, 41520, Note_on_c, 1, 57, 88
5, 41636, Note_off_c, 1, 57, 0
5, 41640, Note_on_c, 1, 59, 88
5, 41756, Note_off_c, 1, 59, 0
5, 41760, Note_on_c, 1, 53, 88
5, 41876, Note_off_c, 1, 53, 0
5, 43320, Note_on_c, 1, 68, 88
5, 43436, Note_off_c, 1, 68, 0
5, 43440, Note_on_c, 1, 63, 88
5, 43556, Note_off_c, 1, 63, 0
5, 43560, Note_on_c, 1, 65, 88
5, 43676, Note_off_c, 1, 65, 0
5, 43680, Note_on_c, 1, 61, 88
5, 43796, Note_off_c, 1, 61, 0
5, 43800, Note_on_c, 1, 66, 88
5, 44034, Note_off_c, 1, 66, 0
5, 44040, Note_on_c, 1, 65, 88
5, 44274, Note_off_c, 1, 65, 0
5, 44280, Note_on_c, 1, 66, 88
5, 44396, Note_off_c, 1, 66, 0
5, 44760, Note_on_c, 1, 56, 88
5, 44876, Note_off_c, 1, 56, 0
5, 44880, Note_on_c, 1, 61, 88
5, 44996, Note_off_c, 1, 61, 0
5, 45000, Note_on_c, 1, 57, 88
5, 45116, Note_off_c, 1, 57, 0
5, 45120, Note_on_c, 1, 62, 88
5, 45236, Note_off_c, 1, 62, 0
5, 45240, Note_on_c, 1, 59, 88
5, 45356, Note_off_c, 1, 59, 0
5, 45360, Note_on_c, 1, 64, 88
5, 45476, Note_off_c, 1, 64, 0
5, 45480, Note_on_c, 1, 61, 88
5, 45596, Note_off_c, 1, 61, 0
5, 45600, Note_on_c, 1, 66, 88
5, 45716, Note_off_c, 1, 66, 0
5, 45720, Note_on_c, 1, 64, 88
5, 45836, Note_off_c, 1, 64, 0
5, 45840, Note_on_c, 1, 69, 88
5, 45956, Note_off_c, 1, 69, 0
5, 45960, Note_on_c, 1, 62, 88
5, 46194, Note_off_c, 1, 62, 0
5, 46200, Note_on_c, 1, 61, 88
5, 46316, Note_off_c, 1, 61, 0
5, 46320, Note_on_c, 1, 63, 88
5, 46436, Note_off_c, 1, 63, 0
5, 46440, Note_on_c, 1, 64, 88
5, 46556, Note_off_c, 1, 64, 0
5, 46560, Note_on_c, 1, 59, 88
5, 46676, Note_off_c, 1, 59, 0
5, 46680, Note_on_c, 1, 62, 88
5, 46914, Note_off_c, 1, 62, 0
5, 46920, Note_on_c, 1, 61, 88
5, 47036, Note_off_c, 1, 61, 0
5, 47040, Note_on_c, 1, 63, 88
5, 47156, Note_off_c, 1, 63, 0
5, 47160, Note_on_c, 1, 64, 88
5, 47394, Note_off_c, 1, 64, 0
5, 47400, Note_on_c, 1, 66, 88
5, 47636, Note_off_c, 1, 66, 0
5, 47640, Note_on_c, 1, 71, 88
5, 47756, Note_off_c, 1, 71, 0
5, 47760, Note_on_c, 1, 64, 88
5, 47994, Note_off_c, 1, 64, 0
5, 48000, Note_on_c, 1, 62, 88
5, 48116, Note_off_c, 1, 62, 0
5, 48120, Note_on_c, 1, 61, 88
5, 48236, Note_off_c, 1, 61, 0
5, 48240, Note_on_c, 1, 59, 88
5, 48356, Note_off_c, 1, 59, 0
5, 48360, Note_on_c, 1, 68, 88
5, 48476, Note_off_c, 1, 68, 0
5, 48480, Note_on_c, 1, 71, 88
5, 48596, Note_off_c, 1, 71, 0
5, 48600, Note_on_c, 1, 64, 88
5, 49070, Note_off_c, 1, 64, 0
5, 49080, Note_on_c, 1, 62, 88
5, 49196, Note_off_c, 1, 62, 0
5, 49200, Note_on_c, 1, 66, 88
5, 49316, Note_off_c, 1, 66, 0
5, 49320, Note_on_c, 1, 59, 88
5, 49796, Note_off_c, 1, 59, 0
5, 49800, Note_on_c, 1, 57, 88
5, 49916, Note_off_c, 1, 57, 0
5, 49920, Note_on_c, 1, 61, 88
5, 50036, Note_off_c, 1, 61, 0
5, 50040, Note_on_c, 1, 66, 88
5, 50393, Note_off_c, 1, 66, 0
5, 50400, Note_on_c, 1, 71, 88
5, 50516, Note_off_c, 1, 71, 0
5, 50520, Note_on_c, 1, 64, 88
5, 50636, Note_off_c, 1, 64, 0
5, 50640, Note_on_c, 1, 69, 88
5, 50756, Note_off_c, 1, 69, 0
5, 50760, Note_on_c, 1, 66, 88
5, 51113, Note_off_c, 1, 66, 0
5, 51120, Note_on_c, 1, 64, 88
5, 51354, Note_off_c, 1, 64, 0
5, 51360, Note_on_c, 1, 69, 88
5, 51579, Note_off_c, 1, 69, 0
5, 51600, Note_on_c, 1, 69, 88
5, 51716, Note_off_c, 1, 69, 0
5, 51720, Note_on_c, 1, 68, 88
5, 51836, Note_off_c, 1, 68, 0
5, 51840, Note_on_c, 1, 69, 88
5, 51956, Note_off_c, 1, 69, 0
5, 54120, Note_on_c, 1, 73, 88
5, 54473, Note_off_c, 1, 73, 0
5, 54480, Note_on_c, 1, 71, 88
5, 54596, Note_off_c, 1, 71, 0
5, 54600, Note_on_c, 1, 69, 88
5, 54834, Note_off_c, 1, 69, 0
5, 54840, Note_on_c, 1, 68, 88
5, 54956, Note_off_c, 1, 68, 0
5, 54960, Note_on_c, 1, 64, 88
5, 55076, Note_off_c, 1, 64, 0
5, 55080, Note_on_c, 1, 61, 88
5, 55196, Note_off_c, 1, 61, 0
5, 55200, Note_on_c, 1, 62, 88
5, 55316, Note_off_c, 1, 62, 0
5, 55320, Note_on_c, 1, 64, 88
5, 55554, Note_off_c, 1, 64, 0
5, 55560, Note_on_c, 1, 57, 88
5, 55676, Note_off_c, 1, 57, 0
5, 55680, Note_on_c, 1, 62, 88
5, 55914, Note_off_c, 1, 62, 0
5, 55920, Note_on_c, 1, 61, 88
5, 56276, Note_off_c, 1, 61, 0
5, 56280, Note_on_c, 1, 59, 88
5, 56396, Note_off_c, 1, 59, 0
5, 56400, Note_on_c, 1, 62, 88
5, 56516, Note_off_c, 1, 62, 0
5, 56520, Note_on_c, 1, 56, 88
5, 56636, Note_off_c, 1, 56, 0
5, 56640, Note_on_c, 1, 64, 88
5, 56756, Note_off_c, 1, 64, 0
5, 56760, Note_on_c, 1, 61, 88
5, 56876, Note_off_c, 1, 61, 0
5, 56880, Note_on_c, 1, 66, 88
5, 56996, Note_off_c, 1, 66, 0
5, 57000, Note_on_c, 1, 59, 88
5, 57234, Note_off_c, 1, 59, 0
5, 57240, Note_on_c, 1, 61, 88
5, 58303, Note_off_c, 1, 61, 0
5, 58303, End_track
6, 0, Start_track
6, 0, Title_t, "Track 3"
6, 0, Program_c, 2, 6
6, 3240, Note_on_c, 2, 57, 88
6, 3356, Note_off_c, 2, 57, 0
6, 3720, Note_on_c, 2, 56, 88
6, 3836, Note_off_c, 2, 56, 0
6, 3840, Note_on_c, 2, 61, 88
6, 3956, Note_off_c, 2, 61, 0
6, 3960, Note_on_c, 2, 57, 88
6, 4076, Note_off_c, 2, 57, 0
6, 4080, Note_on_c, 2, 62, 88
6, 4196, Note_off_c, 2, 62, 0
6, 4200, Note_on_c, 2, 59, 88
6, 4316, Note_off_c, 2, 59, 0
6, 4320, Note_on_c, 2, 64, 88
6, 4436, Note_off_c, 2, 64, 0
6, 4440, Note_on_c, 2, 61, 88
6, 4556, Note_off_c, 2, 61, 0
6, 4560, Note_on_c, 2, 66, 88
6, 4676, Note_off_c, 2, 66, 0
6, 4680, Note_on_c, 2, 64, 88
6, 4796, Note_off_c, 2, 64, 0
6, 4800, Note_on_c, 2, 69, 88
6, 4916, Note_off_c, 2, 69, 0
6, 4920, Note_on_c, 2, 62, 88
6, 5154, Note_off_c, 2, 62, 0
6, 5160, Note_on_c, 2, 61, 88
6, 5276, Note_off_c, 2, 61, 0
6, 5280, Note_on_c, 2, 63, 88
6, 5396, Note_off_c, 2, 63, 0
6, 5400, Note_on_c, 2, 52, 88
6, 5516, Note_off_c, 2, 52, 0
6, 5880, Note_on_c, 2, 49, 88
6, 5996, Note_off_c, 2, 49, 0
6, 6000, Note_on_c, 2, 54, 88
6, 6116, Note_off_c, 2, 54, 0
6, 6120, Note_on_c, 2, 52, 88
6, 6236, Note_off_c, 2, 52, 0
6, 6240, Note_on_c, 2, 57, 88
6, 6356, Note_off_c, 2, 57, 0
6, 6360, Note_on_c, 2, 54, 88
6, 6476, Note_off_c, 2, 54, 0
6, 6480, Note_on_c, 2, 59, 88
6, 6596, Note_off_c, 2, 59, 0
6, 6600, Note_on_c, 2, 56, 88
6, 6716, Note_off_c, 2, 56, 0
6, 6720, Note_on_c, 2, 61, 88
6, 6836, Note_off_c, 2, 61, 0
6, 6840, Note_on_c, 2, 59, 88
6, 6956, Note_off_c, 2, 59, 0
6, 6960, Note_on_c, 2, 64, 88
6, 7076, Note_off_c, 2, 64, 0
6, 7080, Note_on_c, 2, 57, 88
6, 7314, Note_off_c, 2, 57, 0
6, 7320, Note_on_c, 2, 56, 88
6, 7436, Note_off_c, 2, 56, 0
6, 7440, Note_on_c, 2, 59, 88
6, 7556, Note_off_c, 2, 59, 0
6, 7560, Note_on_c, 2, 49, 88
6, 8030, Note_off_c, 2, 49, 0
6, 8040, Note_on_c, 2, 45, 88
6, 8156, Note_off_c, 2, 45, 0
6, 8160, Note_on_c, 2, 50, 88
6, 8276, Note_off_c, 2, 50, 0
6, 8280, Note_on_c, 2, 47, 88
6, 8396, Note_off_c, 2, 47, 0
6, 8400, Note_on_c, 2, 52, 88
6, 8516, Note_off_c, 2, 52, 0
6, 8520, Note_on_c, 2, 40, 88
6, 8636, Note_off_c, 2, 40, 0
6, 8640, Note_on_c, 2, 45, 88
6, 8756, Note_off_c, 2, 45, 0
6, 8760, Note_on_c, 2, 57, 88
6, 9113, Note_off_c, 2, 57, 0
6, 9120, Note_on_c, 2, 56, 88
6, 9236, Note_off_c, 2, 56, 0
6, 9240, Note_on_c, 2, 52, 88
6, 9356, Note_off_c, 2, 52, 0
6, 9360, Note_on_c, 2, 54, 88
6, 9476, Note_off_c, 2, 54, 0
6, 9480, Note_on_c, 2, 47, 88
6, 9596, Note_off_c, 2, 47, 0
6, 9600, Note_on_c, 2, 52, 88
6, 9716, Note_off_c, 2, 52, 0
6, 9720, Note_on_c, 2, 49, 88
6, 9836, Note_off_c, 2, 49, 0
6, 9840, Note_on_c, 2, 54, 88
6, 9956, Note_off_c, 2, 54, 0
6, 9960, Note_on_c, 2, 50, 88
6, 10076, Note_off_c, 2, 50, 0
6, 10080, Note_on_c, 2, 57, 88
6, 10196, Note_off_c, 2, 57, 0
6, 10200, Note_on_c, 2, 54, 88
6, 10316, Note_off_c, 2, 54, 0
6, 10320, Note_on_c, 2, 59, 88
6, 10436, Note_off_c, 2, 59, 0
6, 10440, Note_on_c, 2, 52, 88
6, 10556, Note_off_c, 2, 52, 0
6, 10560, Note_on_c, 2, 57, 88
6, 10676, Note_off_c, 2, 57, 0
6, 10680, Note_on_c, 2, 54, 88
6, 10796, Note_off_c, 2, 54, 0
6, 10800, Note_on_c, 2, 61, 88
6, 11034, Note_off_c, 2, 61, 0
6, 11040, Note_on_c, 2, 59, 88
6, 11156, Note_off_c, 2, 59, 0
6, 11160, Note_on_c, 2, 58, 88
6, 11276, Note_off_c, 2, 58, 0
6, 11280, Note_on_c, 2, 59, 88
6, 11396, Note_off_c, 2, 59, 0
6, 11400, Note_on_c, 2, 52, 88
6, 11516, Note_off_c, 2, 52, 0
6, 11520, Note_on_c, 2, 54, 88
6, 11996, Note_off_c, 2, 54, 0
6, 12000, Note_on_c, 2, 53, 88
6, 12116, Note_off_c, 2, 53, 0
6, 12120, Note_on_c, 2, 56, 88
6, 12236, Note_off_c, 2, 56, 0
6, 12240, Note_on_c, 2, 45, 88
6, 12474, Note_off_c, 2, 45, 0
6, 12480, Note_on_c, 2, 47, 88
6, 12596, Note_off_c, 2, 47, 0
6, 12600, Note_on_c, 2, 49, 88
6, 12834, Note_off_c, 2, 49, 0
6, 12840, Note_on_c, 2, 37, 88
6, 12956, Note_off_c, 2, 37, 0
6, 12960, Note_on_c, 2, 42, 88
6, 13076, Note_off_c, 2, 42, 0
6, 13440, Note_on_c, 2, 53, 88
6, 13556, Note_off_c, 2, 53, 0
6, 13560, Note_on_c, 2, 57, 88
6, 13676, Note_off_c, 2, 57, 0
6, 13680, Note_on_c, 2, 54, 88
6, 13796, Note_off_c, 2, 54, 0
6, 13800, Note_on_c, 2, 59, 88
6, 13916, Note_off_c, 2, 59, 0
6, 13920, Note_on_c, 2, 56, 88
6, 14036, Note_off_c, 2, 56, 0
6, 14040, Note_on_c, 2, 61, 88
6, 14156, Note_off_c, 2, 61, 0
6, 14160, Note_on_c, 2, 57, 88
6, 14276, Note_off_c, 2, 57, 0
6, 14280, Note_on_c, 2, 62, 88
6, 14396, Note_off_c, 2, 62, 0
6, 14400, Note_on_c, 2, 61, 88
6, 14516, Note_off_c, 2, 61, 0
6, 14520, Note_on_c, 2, 66, 88
6, 14636, Note_off_c, 2, 66, 0
6, 14640, Note_on_c, 2, 59, 88
6, 14874, Note_off_c, 2, 59, 0
6, 14880, Note_on_c, 2, 56, 88
6, 14996, Note_off_c, 2, 56, 0
6, 15000, Note_on_c, 2, 58, 88
6, 15116, Note_off_c, 2, 58, 0
6, 15120, Note_on_c, 2, 59, 88
6, 15236, Note_off_c, 2, 59, 0
6, 15240, Note_on_c, 2, 47, 88
6, 15356, Note_off_c, 2, 47, 0
6, 15360, Note_on_c, 2, 52, 88
6, 15476, Note_off_c, 2, 52, 0
6, 15480, Note_on_c, 2, 50, 88
6, 15596, Note_off_c, 2, 50, 0
6, 15600, Note_on_c, 2, 55, 88
6, 15716, Note_off_c, 2, 55, 0
6, 15720, Note_on_c, 2, 52, 88
6, 15836, Note_off_c, 2, 52, 0
6, 15840, Note_on_c, 2, 54, 88
6, 16074, Note_off_c, 2, 54, 0
6, 16080, Note_on_c, 2, 42, 88
6, 16196, Note_off_c, 2, 42, 0
6, 16200, Note_on_c, 2, 47, 88
6, 16316, Note_off_c, 2, 47, 0
6, 16680, Note_on_c, 2, 52, 88
6, 16796, Note_off_c, 2, 52, 0
6, 16800, Note_on_c, 2, 57, 88
6, 16916, Note_off_c, 2, 57, 0
6, 16920, Note_on_c, 2, 56, 88
6, 17036, Note_off_c, 2, 56, 0
6, 17040, Note_on_c, 2, 61, 88
6, 17156, Note_off_c, 2, 61, 0
6, 17160, Note_on_c, 2, 57, 88
6, 17276, Note_off_c, 2, 57, 0
6, 17280, Note_on_c, 2, 63, 88
6, 17396, Note_off_c, 2, 63, 0
6, 17400, Note_on_c, 2, 59, 88
6, 17516, Note_off_c, 2, 59, 0
6, 17520, Note_on_c, 2, 64, 88
6, 17636, Note_off_c, 2, 64, 0
6, 17640, Note_on_c, 2, 57, 88
6, 18110, Note_off_c, 2, 57, 0
6, 18120, Note_on_c, 2, 59, 88
6, 18236, Note_off_c, 2, 59, 0
6, 18240, Note_on_c, 2, 54, 88
6, 18356, Note_off_c, 2, 54, 0
6, 18360, Note_on_c, 2, 56, 88
6, 18830, Note_off_c, 2, 56, 0
6, 18840, Note_on_c, 2, 49, 88
6, 18956, Note_off_c, 2, 49, 0
6, 18960, Note_on_c, 2, 54, 88
6, 19076, Note_off_c, 2, 54, 0
6, 19080, Note_on_c, 2, 51, 88
6, 19196, Note_off_c, 2, 51, 0
6, 19200, Note_on_c, 2, 52, 88
6, 19434, Note_off_c, 2, 52, 0
6, 19440, Note_on_c, 2, 45, 88
6, 19910, Note_off_c, 2, 45, 0
6, 19920, Note_on_c, 2, 44, 88
6, 20036, Note_off_c, 2, 44, 0
6, 20040, Note_on_c, 2, 49, 88
6, 20156, Note_off_c, 2, 49, 0
6, 20160, Note_on_c, 2, 45, 88
6, 20276, Note_off_c, 2, 45, 0
6, 20280, Note_on_c, 2, 47, 88
6, 20514, Note_off_c, 2, 47, 0
6, 20520, Note_on_c, 2, 40, 88
6, 20636, Note_off_c, 2, 40, 0
6, 23760, Note_on_c, 2, 45, 88
6, 23876, Note_off_c, 2, 45, 0
6, 24240, Note_on_c, 2, 44, 88
6, 24356, Note_off_c, 2, 44, 0
6, 24360, Note_on_c, 2, 49, 88
6, 24476, Note_off_c, 2, 49, 0
6, 24480, Note_on_c, 2, 45, 88
6, 24596, Note_off_c, 2, 45, 0
6, 24600, Note_on_c, 2, 50, 88
6, 24716, Note_off_c, 2, 50, 0
6, 24720, Note_on_c, 2, 47, 88
6, 24836, Note_off_c, 2, 47, 0
6, 24840, Note_on_c, 2, 52, 88
6, 24956, Note_off_c, 2, 52, 0
6, 24960, Note_on_c, 2, 49, 88
6, 25076, Note_off_c, 2, 49, 0
6, 25080, Note_on_c, 2, 54, 88
6, 25196, Note_off_c, 2, 54, 0
6, 25200, Note_on_c, 2, 52, 88
6, 25316, Note_off_c, 2, 52, 0
6, 25320, Note_on_c, 2, 57, 88
6, 25436, Note_off_c, 2, 57, 0
6, 25440, Note_on_c, 2, 50, 88
6, 25674, Note_off_c, 2, 50, 0
6, 25680, Note_on_c, 2, 49, 88
6, 25796, Note_off_c, 2, 49, 0
6, 25800, Note_on_c, 2, 51, 88
6, 25916, Note_off_c, 2, 51, 0
6, 25920, Note_on_c, 2, 52, 88
6, 26036, Note_off_c, 2, 52, 0
6, 26040, Note_on_c, 2, 54, 88
6, 26156, Note_off_c, 2, 54, 0
6, 26160, Note_on_c, 2, 56, 88
6, 26276, Note_off_c, 2, 56, 0
6, 26280, Note_on_c, 2, 57, 88
6, 26396, Note_off_c, 2, 57, 0
6, 26760, Note_on_c, 2, 45, 88
6, 26876, Note_off_c, 2, 45, 0
6, 26880, Note_on_c, 2, 50, 88
6, 26996, Note_off_c, 2, 50, 0
6, 27000, Note_on_c, 2, 47, 88
6, 27116, Note_off_c, 2, 47, 0
6, 27120, Note_on_c, 2, 52, 88
6, 27236, Note_off_c, 2, 52, 0
6, 27240, Note_on_c, 2, 49, 88
6, 27356, Note_off_c, 2, 49, 0
6, 27360, Note_on_c, 2, 54, 88
6, 27476, Note_off_c, 2, 54, 0
6, 27480, Note_on_c, 2, 50, 88
6, 27596, Note_off_c, 2, 50, 0
6, 27600, Note_on_c, 2, 57, 88
6, 27716, Note_off_c, 2, 57, 0
6, 27720, Note_on_c, 2, 54, 88
6, 27836, Note_off_c, 2, 54, 0
6, 27840, Note_on_c, 2, 59, 88
6, 27898, Note_off_c, 2, 59, 0
6, 27900, Note_on_c, 2, 57, 88
6, 27958, Note_off_c, 2, 57, 0
6, 27960, Note_on_c, 2, 56, 88
6, 28018, Note_off_c, 2, 56, 0
6, 28020, Note_on_c, 2, 54, 88
6, 28078, Note_off_c, 2, 54, 0
6, 28080, Note_on_c, 2, 56, 88
6, 28138, Note_off_c, 2, 56, 0
6, 28140, Note_on_c, 2, 57, 88
6, 28198, Note_off_c, 2, 57, 0
6, 28200, Note_on_c, 2, 59, 88
6, 28258, Note_off_c, 2, 59, 0
6, 28260, Note_on_c, 2, 56, 88
6, 28318, Note_off_c, 2, 56, 0
6, 28320, Note_on_c, 2, 54, 88
6, 28378, Note_off_c, 2, 54, 0
6, 28380, Note_on_c, 2, 52, 88
6, 28438, Note_off_c, 2, 52, 0
6, 28440, Note_on_c, 2, 51, 88
6, 28498, Note_off_c, 2, 51, 0
6, 28500, Note_on_c, 2, 52, 88
6, 28558, Note_off_c, 2, 52, 0
6, 28560, Note_on_c, 2, 54, 88
6, 28618, Note_off_c, 2, 54, 0
6, 28620, Note_on_c, 2, 51, 88
6, 28678, Note_off_c, 2, 51, 0
6, 28680, Note_on_c, 2, 49, 88
6, 28738, Note_off_c, 2, 49, 0
6, 28740, Note_on_c, 2, 47, 88
6, 28798, Note_off_c, 2, 47, 0
6, 28800, Note_on_c, 2, 49, 88
6, 28858, Note_off_c, 2, 49, 0
6, 28860, Note_on_c, 2, 47, 88
6, 28918, Note_off_c, 2, 47, 0
6, 28920, Note_on_c, 2, 49, 88
6, 28978, Note_off_c, 2, 49, 0
6, 28980, Note_on_c, 2, 52, 88
6, 29038, Note_off_c, 2, 52, 0
6, 29040, Note_on_c, 2, 51, 88
6, 29098, Note_off_c, 2, 51, 0
6, 29100, Note_on_c, 2, 49, 88
6, 29158, Note_off_c, 2, 49, 0
6, 29160, Note_on_c, 2, 51, 88
6, 29218, Note_off_c, 2, 51, 0
6, 29220, Note_on_c, 2, 54, 88
6, 29278, Note_off_c, 2, 54, 0
6, 29280, Note_on_c, 2, 52, 88
6, 29338, Note_off_c, 2, 52, 0
6, 29340, Note_on_c, 2, 51, 88
6, 29398, Note_off_c, 2, 51, 0
6, 29400, Note_on_c, 2, 52, 88
6, 29458, Note_off_c, 2, 52, 0
6, 29460, Note_on_c, 2, 54, 88
6, 29518, Note_off_c, 2, 54, 0
6, 29520, Note_on_c, 2, 56, 88
6, 29578, Note_off_c, 2, 56, 0
6, 29580, Note_on_c, 2, 54, 88
6, 29638, Note_off_c, 2, 54, 0
6, 29640, Note_on_c, 2, 56, 88
6, 29698, Note_off_c, 2, 56, 0
6, 29700, Note_on_c, 2, 57, 88
6, 29758, Note_off_c, 2, 57, 0
6, 29760, Note_on_c, 2, 59, 88
6, 29818, Note_off_c, 2, 59, 0
6, 29820, Note_on_c, 2, 61, 88
6, 29878, Note_off_c, 2, 61, 0
6, 29880, Note_on_c, 2, 63, 88
6, 29938, Note_off_c, 2, 63, 0
6, 29940, Note_on_c, 2, 66, 88
6, 29998, Note_off_c, 2, 66, 0
6, 30000, Note_on_c, 2, 64, 88
6, 30058, Note_off_c, 2, 64, 0
6, 30060, Note_on_c, 2, 63, 88
6, 30118, Note_off_c, 2, 63, 0
6, 30120, Note_on_c, 2, 61, 88
6, 30178, Note_off_c, 2, 61, 0
6, 30180, Note_on_c, 2, 59, 88
6, 30238, Note_off_c, 2, 59, 0
6, 30240, Note_on_c, 2, 64, 88
6, 30356, Note_off_c, 2, 64, 0
6, 30360, Note_on_c, 2, 52, 88
6, 30476, Note_off_c, 2, 52, 0
6, 30480, Note_on_c, 2, 57, 88
6, 30596, Note_off_c, 2, 57, 0
6, 30600, Note_on_c, 2, 56, 88
6, 30716, Note_off_c, 2, 56, 0
6, 30720, Note_on_c, 2, 64, 88
6, 30836, Note_off_c, 2, 64, 0
6, 30840, Note_on_c, 2, 57, 88
6, 30956, Note_off_c, 2, 57, 0
6, 30960, Note_on_c, 2, 66, 88
6, 31076, Note_off_c, 2, 66, 0
6, 31080, Note_on_c, 2, 59, 88
6, 31196, Note_off_c, 2, 59, 0
6, 31200, Note_on_c, 2, 68, 88
6, 31316, Note_off_c, 2, 68, 0
6, 31320, Note_on_c, 2, 69, 88
6, 31378, Note_off_c, 2, 69, 0
6, 31380, Note_on_c, 2, 66, 88
6, 31438, Note_off_c, 2, 66, 0
6, 31440, Note_on_c, 2, 64, 88
6, 31498, Note_off_c, 2, 64, 0
6, 31500, Note_on_c, 2, 62, 88
6, 31558, Note_off_c, 2, 62, 0
6, 31560, Note_on_c, 2, 61, 88
6, 31618, Note_off_c, 2, 61, 0
6, 31620, Note_on_c, 2, 59, 88
6, 31678, Note_off_c, 2, 59, 0
6, 31680, Note_on_c, 2, 57, 88
6, 31738, Note_off_c, 2, 57, 0
6, 31740, Note_on_c, 2, 59, 88
6, 31798, Note_off_c, 2, 59, 0
6, 31800, Note_on_c, 2, 61, 88
6, 31858, Note_off_c, 2, 61, 0
6, 31860, Note_on_c, 2, 57, 88
6, 31918, Note_off_c, 2, 57, 0
6, 31920, Note_on_c, 2, 55, 88
6, 31978, Note_off_c, 2, 55, 0
6, 31980, Note_on_c, 2, 54, 88
6, 32038, Note_off_c, 2, 54, 0
6, 32040, Note_on_c, 2, 55, 88
6, 32098, Note_off_c, 2, 55, 0
6, 32100, Note_on_c, 2, 54, 88
6, 32158, Note_off_c, 2, 54, 0
6, 32160, Note_on_c, 2, 55, 88
6, 32218, Note_off_c, 2, 55, 0
6, 32220, Note_on_c, 2, 59, 88
6, 32278, Note_off_c, 2, 59, 0
6, 32280, Note_on_c, 2, 57, 88
6, 32338, Note_off_c, 2, 57, 0
6, 32340, Note_on_c, 2, 55, 88
6, 32398, Note_off_c, 2, 55, 0
6, 32400, Note_on_c, 2, 54, 88
6, 32458, Note_off_c, 2, 54, 0
6, 32460, Note_on_c, 2, 55, 88
6, 32518, Note_off_c, 2, 55, 0
6, 32520, Note_on_c, 2, 57, 88
6, 32578, Note_off_c, 2, 57, 0
6, 32580, Note_on_c, 2, 54, 88
6, 32638, Note_off_c, 2, 54, 0
6, 32640, Note_on_c, 2, 52, 88
6, 32698, Note_off_c, 2, 52, 0
6, 32700, Note_on_c, 2, 50, 88
6, 32758, Note_off_c, 2, 50, 0
6, 32760, Note_on_c, 2, 57, 88
6, 32935, Note_off_c, 2, 57, 0
6, 32940, Note_on_c, 2, 54, 88
6, 32998, Note_off_c, 2, 54, 0
6, 33000, Note_on_c, 2, 55, 88
6, 33058, Note_off_c, 2, 55, 0
6, 33060, Note_on_c, 2, 57, 88
6, 33118, Note_off_c, 2, 57, 0
6, 33120, Note_on_c, 2, 59, 88
6, 33178, Note_off_c, 2, 59, 0
6, 33180, Note_on_c, 2, 57, 88
6, 33238, Note_off_c, 2, 57, 0
6, 33240, Note_on_c, 2, 55, 88
6, 33298, Note_off_c, 2, 55, 0
6, 33300, Note_on_c, 2, 59, 88
6, 33358, Note_off_c, 2, 59, 0
6, 33360, Note_on_c, 2, 57, 88
6, 33418, Note_off_c, 2, 57, 0
6, 33420, Note_on_c, 2, 55, 88
6, 33478, Note_off_c, 2, 55, 0
6, 33480, Note_on_c, 2, 54, 88
6, 33538, Note_off_c, 2, 54, 0
6, 33540, Note_on_c, 2, 52, 88
6, 33598, Note_off_c, 2, 52, 0
6, 33600, Note_on_c, 2, 50, 88
6, 33658, Note_off_c, 2, 50, 0
6, 33660, Note_on_c, 2, 54, 88
6, 33718, Note_off_c, 2, 54, 0
6, 33720, Note_on_c, 2, 52, 88
6, 33778, Note_off_c, 2, 52, 0
6, 33780, Note_on_c, 2, 50, 88
6, 33838, Note_off_c, 2, 50, 0
6, 33840, Note_on_c, 2, 49, 88
6, 33898, Note_off_c, 2, 49, 0
6, 33900, Note_on_c, 2, 45, 88
6, 33958, Note_off_c, 2, 45, 0
6, 33960, Note_on_c, 2, 47, 88
6, 34018, Note_off_c, 2, 47, 0
6, 34020, Note_on_c, 2, 49, 88
6, 34078, Note_off_c, 2, 49, 0
6, 34080, Note_on_c, 2, 50, 88
6, 34138, Note_off_c, 2, 50, 0
6, 34140, Note_on_c, 2, 52, 88
6, 34198, Note_off_c, 2, 52, 0
6, 34200, Note_on_c, 2, 54, 88
6, 34258, Note_off_c, 2, 54, 0
6, 34260, Note_on_c, 2, 55, 88
6, 34318, Note_off_c, 2, 55, 0
6, 34320, Note_on_c, 2, 57, 88
6, 34378, Note_off_c, 2, 57, 0
6, 34380, Note_on_c, 2, 54, 88
6, 34438, Note_off_c, 2, 54, 0
6, 34440, Note_on_c, 2, 55, 88
6, 34498, Note_off_c, 2, 55, 0
6, 34500, Note_on_c, 2, 57, 88
6, 34558, Note_off_c, 2, 57, 0
6, 34560, Note_on_c, 2, 50, 88
6, 34676, Note_off_c, 2, 50, 0
6, 35040, Note_on_c, 2, 49, 88
6, 35156, Note_off_c, 2, 49, 0
6, 35160, Note_on_c, 2, 54, 88
6, 35276, Note_off_c, 2, 54, 0
6, 35280, Note_on_c, 2, 50, 88
6, 35396, Note_off_c, 2, 50, 0
6, 35400, Note_on_c, 2, 55, 88
6, 35516, Note_off_c, 2, 55, 0
6, 35520, Note_on_c, 2, 52, 88
6, 35636, Note_off_c, 2, 52, 0
6, 35640, Note_on_c, 2, 58, 88
6, 35756, Note_off_c, 2, 58, 0
6, 35760, Note_on_c, 2, 54, 88
6, 35876, Note_off_c, 2, 54, 0
6, 35880, Note_on_c, 2, 59, 88
6, 35996, Note_off_c, 2, 59, 0
6, 36000, Note_on_c, 2, 56, 88
6, 36116, Note_off_c, 2, 56, 0
6, 36120, Note_on_c, 2, 61, 88
6, 36236, Note_off_c, 2, 61, 0
6, 36240, Note_on_c, 2, 58, 88
6, 36356, Note_off_c, 2, 58, 0
6, 36360, Note_on_c, 2, 62, 88
6, 36476, Note_off_c, 2, 62, 0
6, 36480, Note_on_c, 2, 59, 88
6, 36596, Note_off_c, 2, 59, 0
6, 36600, Note_on_c, 2, 64, 88
6, 36836, Note_off_c, 2, 64, 0
6, 36840, Note_on_c, 2, 62, 88
6, 36956, Note_off_c, 2, 62, 0
6, 36960, Note_on_c, 2, 61, 88
6, 37076, Note_off_c, 2, 61, 0
6, 37080, Note_on_c, 2, 59, 88
6, 37196, Note_off_c, 2, 59, 0
6, 37200, Note_on_c, 2, 55, 88
6, 37316, Note_off_c, 2, 55, 0
6, 37320, Note_on_c, 2, 50, 88
6, 37436, Note_off_c, 2, 50, 0
6, 37440, Note_on_c, 2, 52, 88
6, 37556, Note_off_c, 2, 52, 0
6, 37560, Note_on_c, 2, 54, 88
6, 37676, Note_off_c, 2, 54, 0
6, 37680, Note_on_c, 2, 42, 88
6, 37796, Note_off_c, 2, 42, 0
6, 37800, Note_on_c, 2, 47, 88
6, 37858, Note_off_c, 2, 47, 0
6, 37860, Note_on_c, 2, 54, 88
6, 37918, Note_off_c, 2, 54, 0
6, 37920, Note_on_c, 2, 59, 88
6, 37978, Note_off_c, 2, 59, 0
6, 37980, Note_on_c, 2, 57, 88
6, 38038, Note_off_c, 2, 57, 0
6, 38040, Note_on_c, 2, 56, 88
6, 38098, Note_off_c, 2, 56, 0
6, 38100, Note_on_c, 2, 54, 88
6, 38158, Note_off_c, 2, 54, 0
6, 38160, Note_on_c, 2, 52, 88
6, 38218, Note_off_c, 2, 52, 0
6, 38220, Note_on_c, 2, 54, 88
6, 38278, Note_off_c, 2, 54, 0
6, 38280, Note_on_c, 2, 52, 88
6, 38338, Note_off_c, 2, 52, 0
6, 38340, Note_on_c, 2, 50, 88
6, 38398, Note_off_c, 2, 50, 0
6, 38400, Note_on_c, 2, 49, 88
6, 38458, Note_off_c, 2, 49, 0
6, 38460, Note_on_c, 2, 47, 88
6, 38518, Note_off_c, 2, 47, 0
6, 38520, Note_on_c, 2, 45, 88
6, 38578, Note_off_c, 2, 45, 0
6, 38580, Note_on_c, 2, 47, 88
6, 38638, Note_off_c, 2, 47, 0
6, 38640, Note_on_c, 2, 45, 88
6, 38698, Note_off_c, 2, 45, 0
6, 38700, Note_on_c, 2, 44, 88
6, 38758, Note_off_c, 2, 44, 0
6, 38760, Note_on_c, 2, 42, 88
6, 38818, Note_off_c, 2, 42, 0
6, 38820, Note_on_c, 2, 40, 88
6, 38878, Note_off_c, 2, 40, 0
6, 38880, Note_on_c, 2, 39, 88
6, 38938, Note_off_c, 2, 39, 0
6, 38940, Note_on_c, 2, 47, 88
6, 38998, Note_off_c, 2, 47, 0
6, 39000, Note_on_c, 2, 52, 88
6, 39058, Note_off_c, 2, 52, 0
6, 39060, Note_on_c, 2, 51, 88
6, 39118, Note_off_c, 2, 51, 0
6, 39120, Note_on_c, 2, 49, 88
6, 39178, Note_off_c, 2, 49, 0
6, 39180, Note_on_c, 2, 47, 88
6, 39238, Note_off_c, 2, 47, 0
6, 39240, Note_on_c, 2, 49, 88
6, 39298, Note_off_c, 2, 49, 0
6, 39300, Note_on_c, 2, 56, 88
6, 39358, Note_off_c, 2, 56, 0
6, 39360, Note_on_c, 2, 61, 88
6, 39418, Note_off_c, 2, 61, 0
6, 39420, Note_on_c, 2, 59, 88
6, 39478, Note_off_c, 2, 59, 0
6, 39480, Note_on_c, 2, 57, 88
6, 39538, Note_off_c, 2, 57, 0
6, 39540, Note_on_c, 2, 56, 88
6, 39598, Note_off_c, 2, 56, 0
6, 39600, Note_on_c, 2, 54, 88
6, 39658, Note_off_c, 2, 54, 0
6, 39660, Note_on_c, 2, 56, 88
6, 39718, Note_off_c, 2, 56, 0
6, 39720, Note_on_c, 2, 54, 88
6, 39778, Note_off_c, 2, 54, 0
6, 39780, Note_on_c, 2, 52, 88
6, 39838, Note_off_c, 2, 52, 0
6, 39840, Note_on_c, 2, 51, 88
6, 39898, Note_off_c, 2, 51, 0
6, 39900, Note_on_c, 2, 49, 88
6, 39958, Note_off_c, 2, 49, 0
6, 39960, Note_on_c, 2, 47, 88
6, 40018, Note_off_c, 2, 47, 0
6, 40020, Note_on_c, 2, 49, 88
6, 40078, Note_off_c, 2, 49, 0
6, 40080, Note_on_c, 2, 47, 88
6, 40138, Note_off_c, 2, 47, 0
6, 40140, Note_on_c, 2, 45, 88
6, 40198, Note_off_c, 2, 45, 0
6, 40200, Note_on_c, 2, 44, 88
6, 40258, Note_off_c, 2, 44, 0
6, 40260, Note_on_c, 2, 42, 88
6, 40318, Note_off_c, 2, 42, 0
6, 40320, Note_on_c, 2, 41, 88
6, 40378, Note_off_c, 2, 41, 0
6, 40380, Note_on_c, 2, 49, 88
6, 40438, Note_off_c, 2, 49, 0
6, 40440, Note_on_c, 2, 54, 88
6, 40498, Note_off_c, 2, 54, 0
6, 40500, Note_on_c, 2, 52, 88
6, 40558, Note_off_c, 2, 52, 0
6, 40560, Note_on_c, 2, 50, 88
6, 40618, Note_off_c, 2, 50, 0
6, 40620, Note_on_c, 2, 49, 88
6, 40678, Note_off_c, 2, 49, 0
6, 40680, Note_on_c, 2, 50, 88
6, 40738, Note_off_c, 2, 50, 0
6, 40740, Note_on_c, 2, 52, 88
6, 40798, Note_off_c, 2, 52, 0
6, 40800, Note_on_c, 2, 50, 88
6, 40858, Note_off_c, 2, 50, 0
6, 40860, Note_on_c, 2, 49, 88
6, 40918, Note_off_c, 2, 49, 0
6, 40920, Note_on_c, 2, 47, 88
6, 40978, Note_off_c, 2, 47, 0
6, 40980, Note_on_c, 2, 45, 88
6, 41038, Note_off_c, 2, 45, 0
6, 41040, Note_on_c, 2, 44, 88
6, 41098, Note_off_c, 2, 44, 0
6, 41100, Note_on_c, 2, 45, 88
6, 41158, Note_off_c, 2, 45, 0
6, 41160, Note_on_c, 2, 44, 88
6, 41218, Note_off_c, 2, 44, 0
6, 41220, Note_on_c, 2, 42, 88
6, 41278, Note_off_c, 2, 42, 0
6, 41280, Note_on_c, 2, 41, 88
6, 41338, Note_off_c, 2, 41, 0
6, 41340, Note_on_c, 2, 39, 88
6, 41398, Note_off_c, 2, 39, 0
6, 41400, Note_on_c, 2, 37, 88
6, 41516, Note_off_c, 2, 37, 0
6, 41520, Note_on_c, 2, 45, 88
6, 41636, Note_off_c, 2, 45, 0
6, 41640, Note_on_c, 2, 50, 88
6, 41756, Note_off_c, 2, 50, 0
6, 41760, Note_on_c, 2, 49, 88
6, 41876, Note_off_c, 2, 49, 0
6, 41880, Note_on_c, 2, 54, 88
6, 41996, Note_off_c, 2, 54, 0
6, 42000, Note_on_c, 2, 51, 88
6, 42116, Note_off_c, 2, 51, 0
6, 42120, Note_on_c, 2, 56, 88
6, 42236, Note_off_c, 2, 56, 0
6, 42240, Note_on_c, 2, 53, 88
6, 42356, Note_off_c, 2, 53, 0
6, 42360, Note_on_c, 2, 57, 88
6, 42476, Note_off_c, 2, 57, 0
6, 42480, Note_on_c, 2, 54, 88
6, 42596, Note_off_c, 2, 54, 0
6, 42600, Note_on_c, 2, 59, 88
6, 42716, Note_off_c, 2, 59, 0
6, 42720, Note_on_c, 2, 56, 88
6, 42836, Note_off_c, 2, 56, 0
6, 42840, Note_on_c, 2, 61, 88
6, 42956, Note_off_c, 2, 61, 0
6, 42960, Note_on_c, 2, 57, 88
6, 43076, Note_off_c, 2, 57, 0
6, 43080, Note_on_c, 2, 62, 88
6, 43258, Note_off_c, 2, 62, 0
6, 43260, Note_on_c, 2, 64, 88
6, 43318, Note_off_c, 2, 64, 0
6, 43320, Note_on_c, 2, 62, 88
6, 43378, Note_off_c, 2, 62, 0
6, 43380, Note_on_c, 2, 61, 88
6, 43438, Note_off_c, 2, 61, 0
6, 43440, Note_on_c, 2, 59, 88
6, 43498, Note_off_c, 2, 59, 0
6, 43500, Note_on_c, 2, 57, 88
6, 43558, Note_off_c, 2, 57, 0
6, 43560, Note_on_c, 2, 56, 88
6, 43676, Note_off_c, 2, 56, 0
6, 43680, Note_on_c, 2, 53, 88
6, 43796, Note_off_c, 2, 53, 0
6, 43800, Note_on_c, 2, 54, 88
6, 43916, Note_off_c, 2, 54, 0
6, 43920, Note_on_c, 2, 47, 88
6, 44036, Note_off_c, 2, 47, 0
6, 44040, Note_on_c, 2, 49, 88
6, 44156, Note_off_c, 2, 49, 0
6, 44160, Note_on_c, 2, 37, 88
6, 44276, Note_off_c, 2, 37, 0
6, 44280, Note_on_c, 2, 42, 88
6, 44396, Note_off_c, 2, 42, 0
6, 44400, Note_on_c, 2, 45, 88
6, 44516, Note_off_c, 2, 45, 0
6, 44520, Note_on_c, 2, 42, 88
6, 44636, Note_off_c, 2, 42, 0
6, 44640, Note_on_c, 2, 49, 88
6, 44874, Note_off_c, 2, 49, 0
6, 44880, Note_on_c, 2, 45, 88
6, 44996, Note_off_c, 2, 45, 0
6, 45000, Note_on_c, 2, 50, 88
6, 45116, Note_off_c, 2, 50, 0
6, 45120, Note_on_c, 2, 47, 88
6, 45236, Note_off_c, 2, 47, 0
6, 45240, Note_on_c, 2, 52, 88
6, 45356, Note_off_c, 2, 52, 0
6, 45360, Note_on_c, 2, 49, 88
6, 45476, Note_off_c, 2, 49, 0
6, 45480, Note_on_c, 2, 54, 88
6, 45596, Note_off_c, 2, 54, 0
6, 45600, Note_on_c, 2, 50, 88
6, 45716, Note_off_c, 2, 50, 0
6, 45720, Note_on_c, 2, 57, 88
6, 45836, Note_off_c, 2, 57, 0
6, 45840, Note_on_c, 2, 45, 88
6, 45956, Note_off_c, 2, 45, 0
6, 45960, Note_on_c, 2, 47, 88
6, 46076, Note_off_c, 2, 47, 0
6, 46080, Note_on_c, 2, 49, 88
6, 46196, Note_off_c, 2, 49, 0
6, 46200, Note_on_c, 2, 54, 88
6, 46316, Note_off_c, 2, 54, 0
6, 46320, Note_on_c, 2, 47, 88
6, 46436, Note_off_c, 2, 47, 0
6, 46440, Note_on_c, 2, 52, 88
6, 46674, Note_off_c, 2, 52, 0
6, 46920, Note_on_c, 2, 49, 88
6, 47036, Note_off_c, 2, 49, 0
6, 47040, Note_on_c, 2, 54, 88
6, 47156, Note_off_c, 2, 54, 0
6, 47160, Note_on_c, 2, 52, 88
6, 47276, Note_off_c, 2, 52, 0
6, 47280, Note_on_c, 2, 57, 88
6, 47396, Note_off_c, 2, 57, 0
6, 47400, Note_on_c, 2, 54, 88
6, 47516, Note_off_c, 2, 54, 0
6, 47520, Note_on_c, 2, 59, 88
6, 47636, Note_off_c, 2, 59, 0
6, 47640, Note_on_c, 2, 56, 88
6, 47756, Note_off_c, 2, 56, 0
6, 47760, Note_on_c, 2, 61, 88
6, 47876, Note_off_c, 2, 61, 0
6, 47880, Note_on_c, 2, 57, 88
6, 47996, Note_off_c, 2, 57, 0
6, 48000, Note_on_c, 2, 62, 88
6, 48116, Note_off_c, 2, 62, 0
6, 48120, Note_on_c, 2, 54, 88
6, 48236, Note_off_c, 2, 54, 0
6, 48240, Note_on_c, 2, 56, 88
6, 48356, Note_off_c, 2, 56, 0
6, 48360, Note_on_c, 2, 52, 88
6, 48476, Note_off_c, 2, 52, 0
6, 48480, Note_on_c, 2, 56, 88
6, 48596, Note_off_c, 2, 56, 0
6, 48600, Note_on_c, 2, 57, 88
6, 48716, Note_off_c, 2, 57, 0
6, 48720, Note_on_c, 2, 45, 88
6, 48836, Note_off_c, 2, 45, 0
6, 48840, Note_on_c, 2, 49, 88
6, 48956, Note_off_c, 2, 49, 0
6, 48960, Note_on_c, 2, 38, 88
6, 49194, Note_off_c, 2, 38, 0
6, 49200, Note_on_c, 2, 50, 88
6, 49434, Note_off_c, 2, 50, 0
6, 49440, Note_on_c, 2, 52, 88
6, 49556, Note_off_c, 2, 52, 0
6, 49560, Note_on_c, 2, 47, 88
6, 49676, Note_off_c, 2, 47, 0
6, 49680, Note_on_c, 2, 49, 88
6, 50150, Note_off_c, 2, 49, 0
6, 50160, Note_on_c, 2, 42, 88
6, 50276, Note_off_c, 2, 42, 0
6, 50280, Note_on_c, 2, 47, 88
6, 50396, Note_off_c, 2, 47, 0
6, 50400, Note_on_c, 2, 44, 88
6, 50516, Note_off_c, 2, 44, 0
6, 50520, Note_on_c, 2, 45, 88
6, 50754, Note_off_c, 2, 45, 0
6, 50760, Note_on_c, 2, 38, 88
6, 50876, Note_off_c, 2, 38, 0
6, 50880, Note_on_c, 2, 50, 88
6, 51233, Note_off_c, 2, 50, 0
6, 51240, Note_on_c, 2, 49, 88
6, 51356, Note_off_c, 2, 49, 0
6, 51360, Note_on_c, 2, 54, 88
6, 51476, Note_off_c, 2, 54, 0
6, 51480, Note_on_c, 2, 50, 88
6, 51596, Note_off_c, 2, 50, 0
6, 51600, Note_on_c, 2, 52, 88
6, 51716, Note_off_c, 2, 52, 0
6, 51720, Note_on_c, 2, 40, 88
6, 51836, Note_off_c, 2, 40, 0
6, 51840, Note_on_c, 2, 45, 88
6, 51939, Note_off_c, 2, 45, 0
6, 51960, Note_on_c, 2, 45, 88
6, 52076, Note_off_c, 2, 45, 0
6, 52080, Note_on_c, 2, 50, 88
6, 52196, Note_off_c, 2, 50, 0
6, 52200, Note_on_c, 2, 49, 88
6, 52316, Note_off_c, 2, 49, 0
6, 52320, Note_on_c, 2, 57, 88
6, 52436, Note_off_c, 2, 57, 0
6, 52440, Note_on_c, 2, 50, 88
6, 52556, Note_off_c, 2, 50, 0
6, 52560, Note_on_c, 2, 59, 88
6, 52676, Note_off_c, 2, 59, 0
6, 52680, Note_on_c, 2, 52, 88
6, 52796, Note_off_c, 2, 52, 0
6, 52800, Note_on_c, 2, 61, 88
6, 52916, Note_off_c, 2, 61, 0
6, 52920, Note_on_c, 2, 62, 88
6, 52978, Note_off_c, 2, 62, 0
6, 52980, Note_on_c, 2, 61, 88
6, 53038, Note_off_c, 2, 61, 0
6, 53040, Note_on_c, 2, 59, 88
6, 53098, Note_off_c, 2, 59, 0
6, 53100, Note_on_c, 2, 57, 88
6, 53158, Note_off_c, 2, 57, 0
6, 53160, Note_on_c, 2, 56, 88
6, 53218, Note_off_c, 2, 56, 0
6, 53220, Note_on_c, 2, 54, 88
6, 53278, Note_off_c, 2, 54, 0
6, 53280, Note_on_c, 2, 52, 88
6, 53338, Note_off_c, 2, 52, 0
6, 53340, Note_on_c, 2, 54, 88
6, 53398, Note_off_c, 2, 54, 0
6, 53400, Note_on_c, 2, 56, 88
6, 53458, Note_off_c, 2, 56, 0
6, 53460, Note_on_c, 2, 52, 88
6, 53518, Note_off_c, 2, 52, 0
6, 53520, Note_on_c, 2, 50, 88
6, 53578, Note_off_c, 2, 50, 0
6, 53580, Note_on_c, 2, 49, 88
6, 53638, Note_off_c, 2, 49, 0
6, 53640, Note_on_c, 2, 50, 88
6, 53698, Note_off_c, 2, 50, 0
6, 53700, Note_on_c, 2, 49, 88
6, 53758, Note_off_c, 2, 49, 0
6, 53760, Note_on_c, 2, 50, 88
6, 53818, Note_off_c, 2, 50, 0
6, 53820, Note_on_c, 2, 54, 88
6, 53878, Note_off_c, 2, 54, 0
6, 53880, Note_on_c, 2, 52, 88
6, 53938, Note_off_c, 2, 52, 0
6, 53940, Note_on_c, 2, 50, 88
6, 53998, Note_off_c, 2, 50, 0
6, 54000, Note_on_c, 2, 49, 88
6, 54058, Note_off_c, 2, 49, 0
6, 54060, Note_on_c, 2, 47, 88
6, 54118, Note_off_c, 2, 47, 0
6, 54120, Note_on_c, 2, 45, 88
6, 54178, Note_off_c, 2, 45, 0
6, 54180, Note_on_c, 2, 47, 88
6, 54238, Note_off_c, 2, 47, 0
6, 54240, Note_on_c, 2, 49, 88
6, 54298, Note_off_c, 2, 49, 0
6, 54300, Note_on_c, 2, 45, 88
6, 54358, Note_off_c, 2, 45, 0
6, 54360, Note_on_c, 2, 50, 88
6, 54418, Note_off_c, 2, 50, 0
6, 54420, Note_on_c, 2, 49, 88
6, 54478, Note_off_c, 2, 49, 0
6, 54480, Note_on_c, 2, 50, 88
6, 54538, Note_off_c, 2, 50, 0
6, 54540, Note_on_c, 2, 52, 88
6, 54598, Note_off_c, 2, 52, 0
6, 54600, Note_on_c, 2, 49, 88
6, 54658, Note_off_c, 2, 49, 0
6, 54660, Note_on_c, 2, 50, 88
6, 54718, Note_off_c, 2, 50, 0
6, 54720, Note_on_c, 2, 52, 88
6, 54778, Note_off_c, 2, 52, 0
6, 54780, Note_on_c, 2, 50, 88
6, 54838, Note_off_c, 2, 50, 0
6, 54840, Note_on_c, 2, 52, 88
6, 54898, Note_off_c, 2, 52, 0
6, 54900, Note_on_c, 2, 54, 88
6, 54958, Note_off_c, 2, 54, 0
6, 54960, Note_on_c, 2, 50, 88
6, 55018, Note_off_c, 2, 50, 0
6, 55020, Note_on_c, 2, 52, 88
6, 55078, Note_off_c, 2, 52, 0
6, 55080, Note_on_c, 2, 54, 88
6, 55138, Note_off_c, 2, 54, 0
6, 55140, Note_on_c, 2, 56, 88
6, 55198, Note_off_c, 2, 56, 0
6, 55200, Note_on_c, 2, 54, 88
6, 55258, Note_off_c, 2, 54, 0
6, 55260, Note_on_c, 2, 52, 88
6, 55318, Note_off_c, 2, 52, 0
6, 55320, Note_on_c, 2, 50, 88
6, 55378, Note_off_c, 2, 50, 0
6, 55380, Note_on_c, 2, 49, 88
6, 55438, Note_off_c, 2, 49, 0
6, 55440, Note_on_c, 2, 50, 88
6, 55498, Note_off_c, 2, 50, 0
6, 55500, Note_on_c, 2, 52, 88
6, 55558, Note_off_c, 2, 52, 0
6, 55560, Note_on_c, 2, 50, 88
6, 55618, Note_off_c, 2, 50, 0
6, 55620, Note_on_c, 2, 49, 88
6, 55678, Note_off_c, 2, 49, 0
6, 55680, Note_on_c, 2, 47, 88
6, 55738, Note_off_c, 2, 47, 0
6, 55740, Note_on_c, 2, 45, 88
6, 55798, Note_off_c, 2, 45, 0
6, 55800, Note_on_c, 2, 44, 88
6, 55858, Note_off_c, 2, 44, 0
6, 55860, Note_on_c, 2, 47, 88
6, 55918, Note_off_c, 2, 47, 0
6, 55920, Note_on_c, 2, 45, 88
6, 55978, Note_off_c, 2, 45, 0
6, 55980, Note_on_c, 2, 44, 88
6, 56038, Note_off_c, 2, 44, 0
6, 56040, Note_on_c, 2, 42, 88
6, 56098, Note_off_c, 2, 42, 0
6, 56100, Note_on_c, 2, 40, 88
6, 56158, Note_off_c, 2, 40, 0
6, 56160, Note_on_c, 2, 42, 88
6, 56218, Note_off_c, 2, 42, 0
6, 56220, Note_on_c, 2, 45, 88
6, 56278, Note_off_c, 2, 45, 0
6, 56280, Note_on_c, 2, 44, 88
6, 56338, Note_off_c, 2, 44, 0
6, 56340, Note_on_c, 2, 42, 88
6, 56398, Note_off_c, 2, 42, 0
6, 56400, Note_on_c, 2, 40, 88
6, 56458, Note_off_c, 2, 40, 0
6, 56460, Note_on_c, 2, 38, 88
6, 56518, Note_off_c, 2, 38, 0
6, 56520, Note_on_c, 2, 37, 88
6, 56578, Note_off_c, 2, 37, 0
6, 56580, Note_on_c, 2, 49, 88
6, 56638, Note_off_c, 2, 49, 0
6, 56640, Note_on_c, 2, 50, 88
6, 56698, Note_off_c, 2, 50, 0
6, 56700, Note_on_c, 2, 52, 88
6, 56758, Note_off_c, 2, 52, 0
6, 56760, Note_on_c, 2, 54, 88
6, 56818, Note_off_c, 2, 54, 0
6, 56820, Note_on_c, 2, 56, 88
6, 56878, Note_off_c, 2, 56, 0
6, 56880, Note_on_c, 2, 57, 88
6, 56938, Note_off_c, 2, 57, 0
6, 56940, Note_on_c, 2, 50, 88
6, 56998, Note_off_c, 2, 50, 0
6, 57000, Note_on_c, 2, 52, 88
6, 57116, Note_off_c, 2, 52, 0
6, 57120, Note_on_c, 2, 40, 88
6, 57236, Note_off_c, 2, 40, 0
6, 57240, Note_on_c, 2, 45, 88
6, 58303, Note_off_c, 2, 45, 0
6, 58303, End_track
0, 0, End_of_file
