0, 0, Header, 1, 10, 240
1, 0, Start_track
1, 0, Time_signature, 4, 2, 24, 8
1, 0, Tempo, 983606
1, 0, SMPTE_offset, 64, 0, 0, 0, 93
1, 0, End_track
2, 0, Start_track
2, 0, Title_t, "(C) & (P) 1993"
2, 127, End_track
3, 0, Start_track
3, 0, Title_t, "CCARH,Stanford"
3, 0, End_track
4, 0, Start_track
4, 0, Title_t, "Track 1"
4, 0, Program_c, 0, 6
4, 3000, Note_on_c, 0, 64, 88
4, 3058, Note_off_c, 0, 64, 0
4, 3060, Note_on_c, 0, 63, 88
4, 3118, Note_off_c, 0, 63, 0
4, 3120, Note_on_c, 0, 64, 88
4, 3236, Note_off_c, 0, 64, 0
4, 3240, Note_on_c, 0, 66, 88
4, 3356, Note_off_c, 0, 66, 0
4, 3360, Note_on_c, 0, 67, 88
4, 3473, Note_off_c, 0, 67, 0
4, 3480, Note_on_c, 0, 67, 88
4, 3538, Note_off_c, 0, 67, 0
4, 3540, Note_on_c, 0, 66, 88
4, 3598, Note_off_c, 0, 66, 0
4, 3600, Note_on_c, 0, 67, 88
4, 3716, Note_off_c, 0, 67, 0
4, 3720, Note_on_c, 0, 69, 88
4, 3836, Note_off_c, 0, 69, 0
4, 3840, Note_on_c, 0, 71, 88
4, 3898, Note_off_c, 0, 71, 0
4, 3900, Note_on_c, 0, 69, 88
4, 3958, Note_off_c, 0, 69, 0
4, 3960, Note_on_c, 0, 67, 88
4, 4018, Note_off_c, 0, 67, 0
4, 4020, Note_on_c, 0, 69, 88
4, 4078, Note_off_c, 0, 69, 0
4, 4080, Note_on_c, 0, 71, 88
4, 4196, Note_off_c, 0, 71, 0
4, 4200, Note_on_c, 0, 72, 88
4, 4316, Note_off_c, 0, 72, 0
4, 4320, Note_on_c, 0, 63, 88
4, 4436, Note_off_c, 0, 63, 0
4, 4440, Note_on_c, 0, 59, 88
4, 4556, Note_off_c, 0, 59, 0
4, 4680, Note_on_c, 0, 64, 88
4, 4796, Note_off_c, 0, 64, 0
4, 4800, Note_on_c, 0, 66, 88
4, 4858, Note_off_c, 0, 66, 0
4, 4860, Note_on_c, 0, 67, 88
4, 4918, Note_off_c, 0, 67, 0
4, 4920, Note_on_c, 0, 64, 88
4, 4978, Note_off_c, 0, 64, 0
4, 4980, Note_on_c, 0, 66, 88
4, 5038, Note_off_c, 0, 66, 0
4, 5040, Note_on_c, 0, 67, 88
4, 5098, Note_off_c, 0, 67, 0
4, 5100, Note_on_c, 0, 69, 88
4, 5158, Note_off_c, 0, 69, 0
4, 5160, Note_on_c, 0, 66, 88
4, 5218, Note_off_c, 0, 66, 0
4, 5220, Note_on_c, 0, 67, 88
4, 5278, Note_off_c, 0, 67, 0
4, 5280, Note_on_c, 0, 69, 88
4, 5396, Note_off_c, 0, 69, 0
4, 5400, Note_on_c, 0, 67, 88
4, 5516, Note_off_c, 0, 67, 0
4, 5520, Note_on_c, 0, 66, 88
4, 5636, Note_off_c, 0, 66, 0
4, 5640, Note_on_c, 0, 71, 88
4, 5756, Note_off_c, 0, 71, 0
4, 5760, Note_on_c, 0, 64, 88
4, 5876, Note_off_c, 0, 64, 0
4, 5880, Note_on_c, 0, 66, 88
4, 5938, Note_off_c, 0, 66, 0
4, 5940, Note_on_c, 0, 68, 88
4, 5998, Note_off_c, 0, 68, 0
4, 6000, Note_on_c, 0, 69, 88
4, 6058, Note_off_c, 0, 69, 0
4, 6060, Note_on_c, 0, 71, 88
4, 6118, Note_off_c, 0, 71, 0
4, 6120, Note_on_c, 0, 72, 88
4, 6178, Note_off_c, 0, 72, 0
4, 6180, Note_on_c, 0, 74, 88
4, 6238, Note_off_c, 0, 74, 0
4, 6240, Note_on_c, 0, 76, 88
4, 6356, Note_off_c, 0, 76, 0
4, 6360, Note_on_c, 0, 69, 88
4, 6476, Note_off_c, 0, 69, 0
4, 6480, Note_on_c, 0, 68, 88
4, 6714, Note_off_c, 0, 68, 0
4, 6720, Note_on_c, 0, 69, 88
4, 6833, Note_off_c, 0, 69, 0
4, 6840, Note_on_c, 0, 69, 88
4, 6956, Note_off_c, 0, 69, 0
4, 6960, Note_on_c, 0, 67, 88
4, 7076, Note_off_c, 0, 67, 0
4, 7080, Note_on_c, 0, 65, 88
4, 7196, Note_off_c, 0, 65, 0
4, 7200, Note_on_c, 0, 64, 88
4, 7316, Note_off_c, 0, 64, 0
4, 7320, Note_on_c, 0, 72, 88
4, 7436, Note_off_c, 0, 72, 0
4, 7440, Note_on_c, 0, 71, 88
4, 7556, Note_off_c, 0, 71, 0
4, 7560, Note_on_c, 0, 69, 88
4, 7676, Note_off_c, 0, 69, 0
4, 7680, Note_on_c, 0, 68, 88
4, 7796, Note_off_c, 0, 68, 0
4, 7800, Note_on_c, 0, 76, 88
4, 7916, Note_off_c, 0, 76, 0
4, 7920, Note_on_c, 0, 74, 88
4, 8036, Note_off_c, 0, 74, 0
4, 8040, Note_on_c, 0, 72, 88
4, 8156, Note_off_c, 0, 72, 0
4, 8160, Note_on_c, 0, 71, 88
4, 8218, Note_off_c, 0, 71, 0
4, 8220, Note_on_c, 0, 72, 88
4, 8278, Note_off_c, 0, 72, 0
4, 8280, Note_on_c, 0, 74, 88
4, 8338, Note_off_c, 0, 74, 0
4, 8340, Note_on_c, 0, 71, 88
4, 8398, Note_off_c, 0, 71, 0
4, 8400, Note_on_c, 0, 72, 88
4, 8458, Note_off_c, 0, 72, 0
4, 8460, Note_on_c, 0, 71, 88
4, 8518, Note_off_c, 0, 71, 0
4, 8520, Note_on_c, 0, 69, 88
4, 8578, Note_off_c, 0, 69, 0
4, 8580, Note_on_c, 0, 72, 88
4, 8638, Note_off_c, 0, 72, 0
4, 8640, Note_on_c, 0, 74, 88
4, 8698, Note_off_c, 0, 74, 0
4, 8700, Note_on_c, 0, 76, 88
4, 8758, Note_off_c, 0, 76, 0
4, 8760, Note_on_c, 0, 77, 88
4, 8818, Note_off_c, 0, 77, 0
4, 8820, Note_on_c, 0, 74, 88
4, 8878, Note_off_c, 0, 74, 0
4, 8880, Note_on_c, 0, 76, 88
4, 9233, Note_off_c, 0, 76, 0
4, 9240, Note_on_c, 0, 69, 88
4, 9356, Note_off_c, 0, 69, 0
4, 9360, Note_on_c, 0, 71, 88
4, 9418, Note_off_c, 0, 71, 0
4, 9420, Note_on_c, 0, 72, 88
4, 9478, Note_off_c, 0, 72, 0
4, 9480, Note_on_c, 0, 74, 88
4, 9716, Note_off_c, 0, 74, 0
4, 9720, Note_on_c, 0, 72, 88
4, 9836, Note_off_c, 0, 72, 0
4, 9840, Note_on_c, 0, 71, 88
4, 9956, Note_off_c, 0, 71, 0
4, 9960, Note_on_c, 0, 69, 88
4, 10076, Note_off_c, 0, 69, 0
4, 10080, Note_on_c, 0, 67, 88
4, 10196, Note_off_c, 0, 67, 0
4, 10200, Note_on_c, 0, 76, 88
4, 10316, Note_off_c, 0, 76, 0
4, 10320, Note_on_c, 0, 74, 88
4, 10436, Note_off_c, 0, 74, 0
4, 10440, Note_on_c, 0, 72, 88
4, 10556, Note_off_c, 0, 72, 0
4, 10560, Note_on_c, 0, 71, 88
4, 10794, Note_off_c, 0, 71, 0
4, 10920, Note_on_c, 0, 69, 88
4, 11154, Note_off_c, 0, 69, 0
4, 11160, Note_on_c, 0, 67, 88
4, 11218, Note_off_c, 0, 67, 0
4, 11220, Note_on_c, 0, 66, 88
4, 11278, Note_off_c, 0, 66, 0
4, 11280, Note_on_c, 0, 67, 88
4, 11338, Note_off_c, 0, 67, 0
4, 11340, Note_on_c, 0, 69, 88
4, 11398, Note_off_c, 0, 69, 0
4, 11400, Note_on_c, 0, 71, 88
4, 11458, Note_off_c, 0, 71, 0
4, 11460, Note_on_c, 0, 67, 88
4, 11518, Note_off_c, 0, 67, 0
4, 11520, Note_on_c, 0, 72, 88
4, 11754, Note_off_c, 0, 72, 0
4, 11880, Note_on_c, 0, 71, 88
4, 11996, Note_off_c, 0, 71, 0
4, 12000, Note_on_c, 0, 69, 88
4, 12058, Note_off_c, 0, 69, 0
4, 12060, Note_on_c, 0, 67, 88
4, 12118, Note_off_c, 0, 67, 0
4, 12120, Note_on_c, 0, 69, 88
4, 12178, Note_off_c, 0, 69, 0
4, 12180, Note_on_c, 0, 71, 88
4, 12238, Note_off_c, 0, 71, 0
4, 12240, Note_on_c, 0, 72, 88
4, 12356, Note_off_c, 0, 72, 0
4, 12360, Note_on_c, 0, 66, 88
4, 12476, Note_off_c, 0, 66, 0
4, 12480, Note_on_c, 0, 71, 88
4, 12538, Note_off_c, 0, 71, 0
4, 12540, Note_on_c, 0, 69, 88
4, 12598, Note_off_c, 0, 69, 0
4, 12600, Note_on_c, 0, 72, 88
4, 12658, Note_off_c, 0, 72, 0
4, 12660, Note_on_c, 0, 71, 88
4, 12718, Note_off_c, 0, 71, 0
4, 12720, Note_on_c, 0, 69, 88
4, 12778, Note_off_c, 0, 69, 0
4, 12780, Note_on_c, 0, 67, 88
4, 12838, Note_off_c, 0, 67, 0
4, 12840, Note_on_c, 0, 66, 88
4, 12898, Note_off_c, 0, 66, 0
4, 12900, Note_on_c, 0, 67, 88
4, 12958, Note_off_c, 0, 67, 0
4, 12960, Note_on_c, 0, 64, 88
4, 13076, Note_off_c, 0, 64, 0
4, 13080, Note_on_c, 0, 76, 88
4, 13138, Note_off_c, 0, 76, 0
4, 13140, Note_on_c, 0, 77, 88
4, 13198, Note_off_c, 0, 77, 0
4, 13200, Note_on_c, 0, 76, 88
4, 13316, Note_off_c, 0, 76, 0
4, 13320, Note_on_c, 0, 74, 88
4, 13436, Note_off_c, 0, 74, 0
4, 13440, Note_on_c, 0, 72, 88
4, 13553, Note_off_c, 0, 72, 0
4, 13560, Note_on_c, 0, 72, 88
4, 13618, Note_off_c, 0, 72, 0
4, 13620, Note_on_c, 0, 74, 88
4, 13678, Note_off_c, 0, 74, 0
4, 13680, Note_on_c, 0, 72, 88
4, 13796, Note_off_c, 0, 72, 0
4, 13800, Note_on_c, 0, 71, 88
4, 13916, Note_off_c, 0, 71, 0
4, 13920, Note_on_c, 0, 69, 88
4, 13978, Note_off_c, 0, 69, 0
4, 13980, Note_on_c, 0, 71, 88
4, 14038, Note_off_c, 0, 71, 0
4, 14040, Note_on_c, 0, 72, 88
4, 14098, Note_off_c, 0, 72, 0
4, 14100, Note_on_c, 0, 71, 88
4, 14158, Note_off_c, 0, 71, 0
4, 14160, Note_on_c, 0, 69, 88
4, 14276, Note_off_c, 0, 69, 0
4, 14280, Note_on_c, 0, 67, 88
4, 14396, Note_off_c, 0, 67, 0
4, 14400, Note_on_c, 0, 78, 88
4, 14516, Note_off_c, 0, 78, 0
4, 14520, Note_on_c, 0, 81, 88
4, 14636, Note_off_c, 0, 81, 0
4, 14760, Note_on_c, 0, 76, 88
4, 14876, Note_off_c, 0, 76, 0
4, 14880, Note_on_c, 0, 74, 88
4, 14938, Note_off_c, 0, 74, 0
4, 14940, Note_on_c, 0, 72, 88
4, 14998, Note_off_c, 0, 72, 0
4, 15000, Note_on_c, 0, 76, 88
4, 15058, Note_off_c, 0, 76, 0
4, 15060, Note_on_c, 0, 74, 88
4, 15118, Note_off_c, 0, 74, 0
4, 15120, Note_on_c, 0, 72, 88
4, 15178, Note_off_c, 0, 72, 0
4, 15180, Note_on_c, 0, 71, 88
4, 15238, Note_off_c, 0, 71, 0
4, 15240, Note_on_c, 0, 74, 88
4, 15298, Note_off_c, 0, 74, 0
4, 15300, Note_on_c, 0, 72, 88
4, 15358, Note_off_c, 0, 72, 0
4, 15360, Note_on_c, 0, 71, 88
4, 15476, Note_off_c, 0, 71, 0
4, 15480, Note_on_c, 0, 72, 88
4, 15596, Note_off_c, 0, 72, 0
4, 15600, Note_on_c, 0, 74, 88
4, 15658, Note_off_c, 0, 74, 0
4, 15660, Note_on_c, 0, 71, 88
4, 15718, Note_off_c, 0, 71, 0
4, 15720, Note_on_c, 0, 69, 88
4, 15778, Note_off_c, 0, 69, 0
4, 15780, Note_on_c, 0, 67, 88
4, 15838, Note_off_c, 0, 67, 0
4, 15840, Note_on_c, 0, 76, 88
4, 15869, Note_off_c, 0, 76, 0
4, 15870, Note_on_c, 0, 78, 88
4, 15899, Note_off_c, 0, 78, 0
4, 15900, Note_on_c, 0, 76, 88
4, 15958, Note_off_c, 0, 76, 0
4, 15960, Note_on_c, 0, 78, 88
4, 16018, Note_off_c, 0, 78, 0
4, 16020, Note_on_c, 0, 79, 88
4, 16073, Note_off_c, 0, 79, 0
4, 16080, Note_on_c, 0, 79, 88
4, 16105, Note_off_c, 0, 79, 0
4, 16106, Note_on_c, 0, 78, 88
4, 16132, Note_off_c, 0, 78, 0
4, 16133, Note_on_c, 0, 79, 88
4, 16154, Note_off_c, 0, 79, 0
4, 16155, Note_on_c, 0, 78, 88
4, 16177, Note_off_c, 0, 78, 0
4, 16178, Note_on_c, 0, 79, 88
4, 16199, Note_off_c, 0, 79, 0
4, 16200, Note_on_c, 0, 78, 88
4, 16258, Note_off_c, 0, 78, 0
4, 16260, Note_on_c, 0, 79, 88
4, 16318, Note_off_c, 0, 79, 0
4, 16320, Note_on_c, 0, 79, 88
4, 16910, Note_off_c, 0, 79, 0
4, 16920, Note_on_c, 0, 79, 88
4, 16978, Note_off_c, 0, 79, 0
4, 16980, Note_on_c, 0, 81, 88
4, 17038, Note_off_c, 0, 81, 0
4, 17040, Note_on_c, 0, 79, 88
4, 17156, Note_off_c, 0, 79, 0
4, 17160, Note_on_c, 0, 77, 88
4, 17276, Note_off_c, 0, 77, 0
4, 17280, Note_on_c, 0, 76, 88
4, 17338, Note_off_c, 0, 76, 0
4, 17340, Note_on_c, 0, 74, 88
4, 17398, Note_off_c, 0, 74, 0
4, 17400, Note_on_c, 0, 72, 88
4, 17458, Note_off_c, 0, 72, 0
4, 17460, Note_on_c, 0, 74, 88
4, 17518, Note_off_c, 0, 74, 0
4, 17520, Note_on_c, 0, 76, 88
4, 17578, Note_off_c, 0, 76, 0
4, 17580, Note_on_c, 0, 77, 88
4, 17638, Note_off_c, 0, 77, 0
4, 17640, Note_on_c, 0, 79, 88
4, 17815, Note_off_c, 0, 79, 0
4, 17820, Note_on_c, 0, 77, 88
4, 17878, Note_off_c, 0, 77, 0
4, 17880, Note_on_c, 0, 76, 88
4, 17938, Note_off_c, 0, 76, 0
4, 17940, Note_on_c, 0, 77, 88
4, 17998, Note_off_c, 0, 77, 0
4, 18000, Note_on_c, 0, 79, 88
4, 18058, Note_off_c, 0, 79, 0
4, 18060, Note_on_c, 0, 81, 88
4, 18118, Note_off_c, 0, 81, 0
4, 18120, Note_on_c, 0, 82, 88
4, 18178, Note_off_c, 0, 82, 0
4, 18180, Note_on_c, 0, 79, 88
4, 18238, Note_off_c, 0, 79, 0
4, 18240, Note_on_c, 0, 81, 88
4, 18415, Note_off_c, 0, 81, 0
4, 18420, Note_on_c, 0, 82, 88
4, 18478, Note_off_c, 0, 82, 0
4, 18480, Note_on_c, 0, 79, 88
4, 18655, Note_off_c, 0, 79, 0
4, 18660, Note_on_c, 0, 81, 88
4, 18718, Note_off_c, 0, 81, 0
4, 18720, Note_on_c, 0, 77, 88
4, 18778, Note_off_c, 0, 77, 0
4, 18780, Note_on_c, 0, 76, 88
4, 18838, Note_off_c, 0, 76, 0
4, 18840, Note_on_c, 0, 77, 88
4, 18898, Note_off_c, 0, 77, 0
4, 18900, Note_on_c, 0, 79, 88
4, 18958, Note_off_c, 0, 79, 0
4, 18960, Note_on_c, 0, 81, 88
4, 19076, Note_off_c, 0, 81, 0
4, 19080, Note_on_c, 0, 69, 88
4, 19196, Note_off_c, 0, 69, 0
4, 19200, Note_on_c, 0, 74, 88
4, 19258, Note_off_c, 0, 74, 0
4, 19260, Note_on_c, 0, 79, 88
4, 19318, Note_off_c, 0, 79, 0
4, 19320, Note_on_c, 0, 77, 88
4, 19378, Note_off_c, 0, 77, 0
4, 19380, Note_on_c, 0, 76, 88
4, 19438, Note_off_c, 0, 76, 0
4, 19440, Note_on_c, 0, 77, 88
4, 19465, Note_off_c, 0, 77, 0
4, 19466, Note_on_c, 0, 76, 88
4, 19492, Note_off_c, 0, 76, 0
4, 19493, Note_on_c, 0, 77, 88
4, 19514, Note_off_c, 0, 77, 0
4, 19515, Note_on_c, 0, 76, 88
4, 19537, Note_off_c, 0, 76, 0
4, 19538, Note_on_c, 0, 77, 88
4, 19559, Note_off_c, 0, 77, 0
4, 19560, Note_on_c, 0, 76, 88
4, 19618, Note_off_c, 0, 76, 0
4, 19620, Note_on_c, 0, 74, 88
4, 19673, Note_off_c, 0, 74, 0
4, 19680, Note_on_c, 0, 74, 88
4, 20033, Note_off_c, 0, 74, 0
4, 20040, Note_on_c, 0, 76, 88
4, 20156, Note_off_c, 0, 76, 0
4, 20160, Note_on_c, 0, 77, 88
4, 20928, Note_off_c, 0, 77, 0
4, 20940, Note_on_c, 0, 76, 88
4, 20998, Note_off_c, 0, 76, 0
4, 21000, Note_on_c, 0, 74, 88
4, 21058, Note_off_c, 0, 74, 0
4, 21060, Note_on_c, 0, 72, 88
4, 21118, Note_off_c, 0, 72, 0
4, 21120, Note_on_c, 0, 71, 88
4, 21236, Note_off_c, 0, 71, 0
4, 21240, Note_on_c, 0, 72, 88
4, 21474, Note_off_c, 0, 72, 0
4, 21480, Note_on_c, 0, 71, 88
4, 21596, Note_off_c, 0, 71, 0
4, 21600, Note_on_c, 0, 72, 88
4, 21953, Note_off_c, 0, 72, 0
4, 21960, Note_on_c, 0, 70, 88
4, 22076, Note_off_c, 0, 70, 0
4, 22080, Note_on_c, 0, 69, 88
4, 22670, Note_off_c, 0, 69, 0
4, 22680, Note_on_c, 0, 68, 88
4, 22796, Note_off_c, 0, 68, 0
4, 22800, Note_on_c, 0, 69, 88
4, 22916, Note_off_c, 0, 69, 0
4, 22920, Note_on_c, 0, 71, 88
4, 23036, Note_off_c, 0, 71, 0
4, 23040, Note_on_c, 0, 64, 88
4, 23334, Note_off_c, 0, 64, 0
4, 23340, Note_on_c, 0, 66, 88
4, 23398, Note_off_c, 0, 66, 0
4, 23400, Note_on_c, 0, 68, 88
4, 23458, Note_off_c, 0, 68, 0
4, 23460, Note_on_c, 0, 69, 88
4, 23518, Note_off_c, 0, 69, 0
4, 23520, Note_on_c, 0, 71, 88
4, 23578, Note_off_c, 0, 71, 0
4, 23580, Note_on_c, 0, 72, 88
4, 23638, Note_off_c, 0, 72, 0
4, 23640, Note_on_c, 0, 71, 88
4, 23698, Note_off_c, 0, 71, 0
4, 23700, Note_on_c, 0, 72, 88
4, 23758, Note_off_c, 0, 72, 0
4, 23760, Note_on_c, 0, 74, 88
4, 24116, Note_off_c, 0, 74, 0
4, 24120, Note_on_c, 0, 72, 88
4, 24354, Note_off_c, 0, 72, 0
4, 24360, Note_on_c, 0, 71, 88
4, 24594, Note_off_c, 0, 71, 0
4, 24600, Note_on_c, 0, 69, 88
4, 24658, Note_off_c, 0, 69, 0
4, 24660, Note_on_c, 0, 68, 88
4, 24718, Note_off_c, 0, 68, 0
4, 24720, Note_on_c, 0, 69, 88
4, 25194, Note_off_c, 0, 69, 0
4, 25200, Note_on_c, 0, 68, 88
4, 25434, Note_off_c, 0, 68, 0
4, 25440, Note_on_c, 0, 69, 88
4, 25553, Note_off_c, 0, 69, 0
4, 25560, Note_on_c, 0, 69, 88
4, 25618, Note_off_c, 0, 69, 0
4, 25620, Note_on_c, 0, 68, 88
4, 25678, Note_off_c, 0, 68, 0
4, 25680, Note_on_c, 0, 69, 88
4, 25796, Note_off_c, 0, 69, 0
4, 25800, Note_on_c, 0, 71, 88
4, 25916, Note_off_c, 0, 71, 0
4, 25920, Note_on_c, 0, 72, 88
4, 26033, Note_off_c, 0, 72, 0
4, 26040, Note_on_c, 0, 72, 88
4, 26098, Note_off_c, 0, 72, 0
4, 26100, Note_on_c, 0, 71, 88
4, 26158, Note_off_c, 0, 71, 0
4, 26160, Note_on_c, 0, 72, 88
4, 26276, Note_off_c, 0, 72, 0
4, 26280, Note_on_c, 0, 74, 88
4, 26396, Note_off_c, 0, 74, 0
4, 26400, Note_on_c, 0, 76, 88
4, 26458, Note_off_c, 0, 76, 0
4, 26460, Note_on_c, 0, 74, 88
4, 26518, Note_off_c, 0, 74, 0
4, 26520, Note_on_c, 0, 72, 88
4, 26578, Note_off_c, 0, 72, 0
4, 26580, Note_on_c, 0, 74, 88
4, 26638, Note_off_c, 0, 74, 0
4, 26640, Note_on_c, 0, 76, 88
4, 26756, Note_off_c, 0, 76, 0
4, 26760, Note_on_c, 0, 77, 88
4, 26876, Note_off_c, 0, 77, 0
4, 26880, Note_on_c, 0, 68, 88
4, 26996, Note_off_c, 0, 68, 0
4, 27000, Note_on_c, 0, 64, 88
4, 27116, Note_off_c, 0, 64, 0
4, 27240, Note_on_c, 0, 69, 88
4, 27356, Note_off_c, 0, 69, 0
4, 27360, Note_on_c, 0, 71, 88
4, 27418, Note_off_c, 0, 71, 0
4, 27420, Note_on_c, 0, 72, 88
4, 27478, Note_off_c, 0, 72, 0
4, 27480, Note_on_c, 0, 69, 88
4, 27538, Note_off_c, 0, 69, 0
4, 27540, Note_on_c, 0, 71, 88
4, 27598, Note_off_c, 0, 71, 0
4, 27600, Note_on_c, 0, 72, 88
4, 27658, Note_off_c, 0, 72, 0
4, 27660, Note_on_c, 0, 74, 88
4, 27718, Note_off_c, 0, 74, 0
4, 27720, Note_on_c, 0, 71, 88
4, 27778, Note_off_c, 0, 71, 0
4, 27780, Note_on_c, 0, 72, 88
4, 27838, Note_off_c, 0, 72, 0
4, 27840, Note_on_c, 0, 74, 88
4, 27956, Note_off_c, 0, 74, 0
4, 27960, Note_on_c, 0, 72, 88
4, 28076, Note_off_c, 0, 72, 0
4, 28080, Note_on_c, 0, 71, 88
4, 28196, Note_off_c, 0, 71, 0
4, 28200, Note_on_c, 0, 76, 88
4, 28316, Note_off_c, 0, 76, 0
4, 28320, Note_on_c, 0, 69, 88
4, 28436, Note_off_c, 0, 69, 0
4, 28440, Note_on_c, 0, 81, 88
4, 28674, Note_off_c, 0, 81, 0
4, 28680, Note_on_c, 0, 79, 88
4, 28916, Note_off_c, 0, 79, 0
4, 28920, Note_on_c, 0, 84, 88
4, 28978, Note_off_c, 0, 84, 0
4, 28980, Note_on_c, 0, 83, 88
4, 29038, Note_off_c, 0, 83, 0
4, 29040, Note_on_c, 0, 81, 88
4, 29098, Note_off_c, 0, 81, 0
4, 29100, Note_on_c, 0, 79, 88
4, 29158, Note_off_c, 0, 79, 0
4, 29160, Note_on_c, 0, 78, 88
4, 29218, Note_off_c, 0, 78, 0
4, 29220, Note_on_c, 0, 76, 88
4, 29278, Note_off_c, 0, 76, 0
4, 29280, Note_on_c, 0, 75, 88
4, 29396, Note_off_c, 0, 75, 0
4, 29400, Note_on_c, 0, 71, 88
4, 29516, Note_off_c, 0, 71, 0
4, 29520, Note_on_c, 0, 73, 88
4, 29636, Note_off_c, 0, 73, 0
4, 29640, Note_on_c, 0, 75, 88
4, 29756, Note_off_c, 0, 75, 0
4, 29760, Note_on_c, 0, 76, 88
4, 29818, Note_off_c, 0, 76, 0
4, 29820, Note_on_c, 0, 74, 88
4, 29878, Note_off_c, 0, 74, 0
4, 29880, Note_on_c, 0, 72, 88
4, 29938, Note_off_c, 0, 72, 0
4, 29940, Note_on_c, 0, 71, 88
4, 29998, Note_off_c, 0, 71, 0
4, 30000, Note_on_c, 0, 72, 88
4, 30234, Note_off_c, 0, 72, 0
4, 30240, Note_on_c, 0, 71, 88
4, 30356, Note_off_c, 0, 71, 0
4, 30360, Note_on_c, 0, 76, 88
4, 30418, Note_off_c, 0, 76, 0
4, 30420, Note_on_c, 0, 75, 88
4, 30478, Note_off_c, 0, 75, 0
4, 30480, Note_on_c, 0, 76, 88
4, 30596, Note_off_c, 0, 76, 0
4, 30600, Note_on_c, 0, 78, 88
4, 30716, Note_off_c, 0, 78, 0
4, 30720, Note_on_c, 0, 79, 88
4, 30833, Note_off_c, 0, 79, 0
4, 30840, Note_on_c, 0, 79, 88
4, 30898, Note_off_c, 0, 79, 0
4, 30900, Note_on_c, 0, 78, 88
4, 30958, Note_off_c, 0, 78, 0
4, 30960, Note_on_c, 0, 79, 88
4, 31076, Note_off_c, 0, 79, 0
4, 31080, Note_on_c, 0, 81, 88
4, 31196, Note_off_c, 0, 81, 0
4, 31200, Note_on_c, 0, 71, 88
4, 32033, Note_off_c, 0, 71, 0
4, 32040, Note_on_c, 0, 76, 88
4, 32098, Note_off_c, 0, 76, 0
4, 32100, Note_on_c, 0, 74, 88
4, 32158, Note_off_c, 0, 74, 0
4, 32160, Note_on_c, 0, 72, 88
4, 32218, Note_off_c, 0, 72, 0
4, 32220, Note_on_c, 0, 71, 88
4, 32278, Note_off_c, 0, 71, 0
4, 32280, Note_on_c, 0, 69, 88
4, 32338, Note_off_c, 0, 69, 0
4, 32340, Note_on_c, 0, 71, 88
4, 32398, Note_off_c, 0, 71, 0
4, 32400, Note_on_c, 0, 72, 88
4, 32516, Note_off_c, 0, 72, 0
4, 32520, Note_on_c, 0, 71, 88
4, 32578, Note_off_c, 0, 71, 0
4, 32580, Note_on_c, 0, 69, 88
4, 32638, Note_off_c, 0, 69, 0
4, 32640, Note_on_c, 0, 67, 88
4, 32874, Note_off_c, 0, 67, 0
4, 32880, Note_on_c, 0, 72, 88
4, 33233, Note_off_c, 0, 72, 0
4, 33240, Note_on_c, 0, 71, 88
4, 33298, Note_off_c, 0, 71, 0
4, 33300, Note_on_c, 0, 69, 88
4, 33358, Note_off_c, 0, 69, 0
4, 33360, Note_on_c, 0, 71, 88
4, 33476, Note_off_c, 0, 71, 0
4, 33480, Note_on_c, 0, 73, 88
4, 33596, Note_off_c, 0, 73, 0
4, 33600, Note_on_c, 0, 74, 88
4, 34190, Note_off_c, 0, 74, 0
4, 34200, Note_on_c, 0, 72, 88
4, 34258, Note_off_c, 0, 72, 0
4, 34260, Note_on_c, 0, 71, 88
4, 34318, Note_off_c, 0, 71, 0
4, 34320, Note_on_c, 0, 72, 88
4, 34436, Note_off_c, 0, 72, 0
4, 34440, Note_on_c, 0, 74, 88
4, 34556, Note_off_c, 0, 74, 0
4, 34560, Note_on_c, 0, 76, 88
4, 34676, Note_off_c, 0, 76, 0
4, 34680, Note_on_c, 0, 69, 88
4, 34796, Note_off_c, 0, 69, 0
4, 34800, Note_on_c, 0, 81, 88
4, 35094, Note_off_c, 0, 81, 0
4, 35100, Note_on_c, 0, 80, 88
4, 35158, Note_off_c, 0, 80, 0
4, 35160, Note_on_c, 0, 81, 88
4, 35218, Note_off_c, 0, 81, 0
4, 35220, Note_on_c, 0, 80, 88
4, 35278, Note_off_c, 0, 80, 0
4, 35280, Note_on_c, 0, 81, 88
4, 35396, Note_off_c, 0, 81, 0
4, 35400, Note_on_c, 0, 83, 88
4, 35516, Note_off_c, 0, 83, 0
4, 35520, Note_on_c, 0, 76, 88
4, 35873, Note_off_c, 0, 76, 0
4, 35880, Note_on_c, 0, 74, 88
4, 35938, Note_off_c, 0, 74, 0
4, 35940, Note_on_c, 0, 72, 88
4, 35998, Note_off_c, 0, 72, 0
4, 36000, Note_on_c, 0, 71, 88
4, 36116, Note_off_c, 0, 71, 0
4, 36120, Note_on_c, 0, 76, 88
4, 36178, Note_off_c, 0, 76, 0
4, 36180, Note_on_c, 0, 74, 88
4, 36238, Note_off_c, 0, 74, 0
4, 36240, Note_on_c, 0, 72, 88
4, 36298, Note_off_c, 0, 72, 0
4, 36300, Note_on_c, 0, 71, 88
4, 36358, Note_off_c, 0, 71, 0
4, 36360, Note_on_c, 0, 69, 88
4, 36418, Note_off_c, 0, 69, 0
4, 36420, Note_on_c, 0, 68, 88
4, 36478, Note_off_c, 0, 68, 0
4, 36480, Note_on_c, 0, 69, 88
4, 36596, Note_off_c, 0, 69, 0
4, 36720, Note_on_c, 0, 68, 88
4, 36836, Note_off_c, 0, 68, 0
4, 36960, Note_on_c, 0, 69, 88
4, 37194, Note_off_c, 0, 69, 0
4, 40440, Note_on_c, 0, 72, 88
4, 40498, Note_off_c, 0, 72, 0
4, 40500, Note_on_c, 0, 71, 88
4, 40558, Note_off_c, 0, 71, 0
4, 40560, Note_on_c, 0, 72, 88
4, 40676, Note_off_c, 0, 72, 0
4, 40680, Note_on_c, 0, 74, 88
4, 40796, Note_off_c, 0, 74, 0
4, 40800, Note_on_c, 0, 76, 88
4, 40913, Note_off_c, 0, 76, 0
4, 40920, Note_on_c, 0, 76, 88
4, 40978, Note_off_c, 0, 76, 0
4, 40980, Note_on_c, 0, 74, 88
4, 41038, Note_off_c, 0, 74, 0
4, 41040, Note_on_c, 0, 76, 88
4, 41156, Note_off_c, 0, 76, 0
4, 41160, Note_on_c, 0, 77, 88
4, 41276, Note_off_c, 0, 77, 0
4, 41280, Note_on_c, 0, 79, 88
4, 41338, Note_off_c, 0, 79, 0
4, 41340, Note_on_c, 0, 77, 88
4, 41398, Note_off_c, 0, 77, 0
4, 41400, Note_on_c, 0, 76, 88
4, 41458, Note_off_c, 0, 76, 0
4, 41460, Note_on_c, 0, 77, 88
4, 41518, Note_off_c, 0, 77, 0
4, 41520, Note_on_c, 0, 79, 88
4, 41636, Note_off_c, 0, 79, 0
4, 41640, Note_on_c, 0, 81, 88
4, 41756, Note_off_c, 0, 81, 0
4, 41760, Note_on_c, 0, 71, 88
4, 41876, Note_off_c, 0, 71, 0
4, 41880, Note_on_c, 0, 67, 88
4, 41996, Note_off_c, 0, 67, 0
4, 42120, Note_on_c, 0, 72, 88
4, 42236, Note_off_c, 0, 72, 0
4, 42240, Note_on_c, 0, 74, 88
4, 42298, Note_off_c, 0, 74, 0
4, 42300, Note_on_c, 0, 76, 88
4, 42358, Note_off_c, 0, 76, 0
4, 42360, Note_on_c, 0, 72, 88
4, 42418, Note_off_c, 0, 72, 0
4, 42420, Note_on_c, 0, 74, 88
4, 42478, Note_off_c, 0, 74, 0
4, 42480, Note_on_c, 0, 76, 88
4, 42538, Note_off_c, 0, 76, 0
4, 42540, Note_on_c, 0, 77, 88
4, 42598, Note_off_c, 0, 77, 0
4, 42600, Note_on_c, 0, 74, 88
4, 42658, Note_off_c, 0, 74, 0
4, 42660, Note_on_c, 0, 76, 88
4, 42718, Note_off_c, 0, 76, 0
4, 42720, Note_on_c, 0, 77, 88
4, 42836, Note_off_c, 0, 77, 0
4, 42840, Note_on_c, 0, 76, 88
4, 42956, Note_off_c, 0, 76, 0
4, 42960, Note_on_c, 0, 74, 88
4, 43076, Note_off_c, 0, 74, 0
4, 43080, Note_on_c, 0, 79, 88
4, 43196, Note_off_c, 0, 79, 0
4, 43200, Note_on_c, 0, 72, 88
4, 43258, Note_off_c, 0, 72, 0
4, 43260, Note_on_c, 0, 71, 88
4, 43318, Note_off_c, 0, 71, 0
4, 43320, Note_on_c, 0, 74, 88
4, 43378, Note_off_c, 0, 74, 0
4, 43380, Note_on_c, 0, 72, 88
4, 43438, Note_off_c, 0, 72, 0
4, 43440, Note_on_c, 0, 71, 88
4, 43498, Note_off_c, 0, 71, 0
4, 43500, Note_on_c, 0, 69, 88
4, 43558, Note_off_c, 0, 69, 0
4, 43560, Note_on_c, 0, 67, 88
4, 43618, Note_off_c, 0, 67, 0
4, 43620, Note_on_c, 0, 65, 88
4, 43678, Note_off_c, 0, 65, 0
4, 43680, Note_on_c, 0, 64, 88
4, 43796, Note_off_c, 0, 64, 0
4, 43800, Note_on_c, 0, 65, 88
4, 43858, Note_off_c, 0, 65, 0
4, 43860, Note_on_c, 0, 67, 88
4, 43918, Note_off_c, 0, 67, 0
4, 43920, Note_on_c, 0, 69, 88
4, 43978, Note_off_c, 0, 69, 0
4, 43980, Note_on_c, 0, 71, 88
4, 44038, Note_off_c, 0, 71, 0
4, 44040, Note_on_c, 0, 72, 88
4, 44098, Note_off_c, 0, 72, 0
4, 44100, Note_on_c, 0, 74, 88
4, 44158, Note_off_c, 0, 74, 0
4, 44160, Note_on_c, 0, 71, 88
4, 44276, Note_off_c, 0, 71, 0
4, 44280, Note_on_c, 0, 69, 88
4, 44338, Note_off_c, 0, 69, 0
4, 44340, Note_on_c, 0, 67, 88
4, 44398, Note_off_c, 0, 67, 0
4, 44400, Note_on_c, 0, 72, 88
4, 44870, Note_off_c, 0, 72, 0
4, 44880, Note_on_c, 0, 72, 88
4, 44909, Note_off_c, 0, 72, 0
4, 44910, Note_on_c, 0, 71, 88
4, 44939, Note_off_c, 0, 71, 0
4, 44940, Note_on_c, 0, 72, 88
4, 44969, Note_off_c, 0, 72, 0
4, 44970, Note_on_c, 0, 71, 88
4, 44999, Note_off_c, 0, 71, 0
4, 45000, Note_on_c, 0, 72, 88
4, 45029, Note_off_c, 0, 72, 0
4, 45030, Note_on_c, 0, 71, 88
4, 45059, Note_off_c, 0, 71, 0
4, 45060, Note_on_c, 0, 69, 88
4, 45089, Note_off_c, 0, 69, 0
4, 45090, Note_on_c, 0, 71, 88
4, 45119, Note_off_c, 0, 71, 0
4, 45120, Note_on_c, 0, 72, 88
4, 45236, Note_off_c, 0, 72, 0
4, 45240, Note_on_c, 0, 76, 88
4, 45298, Note_off_c, 0, 76, 0
4, 45300, Note_on_c, 0, 77, 88
4, 45358, Note_off_c, 0, 77, 0
4, 45360, Note_on_c, 0, 76, 88
4, 45476, Note_off_c, 0, 76, 0
4, 45480, Note_on_c, 0, 74, 88
4, 45596, Note_off_c, 0, 74, 0
4, 45600, Note_on_c, 0, 72, 88
4, 45716, Note_off_c, 0, 72, 0
4, 45720, Note_on_c, 0, 73, 88
4, 45836, Note_off_c, 0, 73, 0
4, 45840, Note_on_c, 0, 74, 88
4, 45956, Note_off_c, 0, 74, 0
4, 45960, Note_on_c, 0, 76, 88
4, 46076, Note_off_c, 0, 76, 0
4, 46080, Note_on_c, 0, 69, 88
4, 46196, Note_off_c, 0, 69, 0
4, 46200, Note_on_c, 0, 74, 88
4, 46258, Note_off_c, 0, 74, 0
4, 46260, Note_on_c, 0, 76, 88
4, 46318, Note_off_c, 0, 76, 0
4, 46320, Note_on_c, 0, 74, 88
4, 46436, Note_off_c, 0, 74, 0
4, 46440, Note_on_c, 0, 72, 88
4, 46556, Note_off_c, 0, 72, 0
4, 46560, Note_on_c, 0, 71, 88
4, 46618, Note_off_c, 0, 71, 0
4, 46620, Note_on_c, 0, 72, 88
4, 46678, Note_off_c, 0, 72, 0
4, 46680, Note_on_c, 0, 74, 88
4, 46738, Note_off_c, 0, 74, 0
4, 46740, Note_on_c, 0, 72, 88
4, 46798, Note_off_c, 0, 72, 0
4, 46800, Note_on_c, 0, 71, 88
4, 46916, Note_off_c, 0, 71, 0
4, 46920, Note_on_c, 0, 69, 88
4, 47036, Note_off_c, 0, 69, 0
4, 47040, Note_on_c, 0, 67, 88
4, 47274, Note_off_c, 0, 67, 0
4, 50520, Note_on_c, 0, 74, 88
4, 50578, Note_off_c, 0, 74, 0
4, 50580, Note_on_c, 0, 76, 88
4, 50638, Note_off_c, 0, 76, 0
4, 50640, Note_on_c, 0, 74, 88
4, 50756, Note_off_c, 0, 74, 0
4, 50760, Note_on_c, 0, 72, 88
4, 50876, Note_off_c, 0, 72, 0
4, 50880, Note_on_c, 0, 71, 88
4, 50993, Note_off_c, 0, 71, 0
4, 51000, Note_on_c, 0, 71, 88
4, 51058, Note_off_c, 0, 71, 0
4, 51060, Note_on_c, 0, 72, 88
4, 51118, Note_off_c, 0, 72, 0
4, 51120, Note_on_c, 0, 71, 88
4, 51236, Note_off_c, 0, 71, 0
4, 51240, Note_on_c, 0, 69, 88
4, 51356, Note_off_c, 0, 69, 0
4, 51360, Note_on_c, 0, 67, 88
4, 51418, Note_off_c, 0, 67, 0
4, 51420, Note_on_c, 0, 69, 88
4, 51478, Note_off_c, 0, 69, 0
4, 51480, Note_on_c, 0, 71, 88
4, 51538, Note_off_c, 0, 71, 0
4, 51540, Note_on_c, 0, 69, 88
4, 51598, Note_off_c, 0, 69, 0
4, 51600, Note_on_c, 0, 67, 88
4, 51716, Note_off_c, 0, 67, 0
4, 51720, Note_on_c, 0, 66, 88
4, 51836, Note_off_c, 0, 66, 0
4, 51840, Note_on_c, 0, 76, 88
4, 51956, Note_off_c, 0, 76, 0
4, 51960, Note_on_c, 0, 79, 88
4, 52076, Note_off_c, 0, 79, 0
4, 52200, Note_on_c, 0, 74, 88
4, 52316, Note_off_c, 0, 74, 0
4, 52320, Note_on_c, 0, 72, 88
4, 52378, Note_off_c, 0, 72, 0
4, 52380, Note_on_c, 0, 71, 88
4, 52438, Note_off_c, 0, 71, 0
4, 52440, Note_on_c, 0, 74, 88
4, 52498, Note_off_c, 0, 74, 0
4, 52500, Note_on_c, 0, 72, 88
4, 52558, Note_off_c, 0, 72, 0
4, 52560, Note_on_c, 0, 71, 88
4, 52618, Note_off_c, 0, 71, 0
4, 52620, Note_on_c, 0, 69, 88
4, 52678, Note_off_c, 0, 69, 0
4, 52680, Note_on_c, 0, 72, 88
4, 52738, Note_off_c, 0, 72, 0
4, 52740, Note_on_c, 0, 71, 88
4, 52798, Note_off_c, 0, 71, 0
4, 52800, Note_on_c, 0, 69, 88
4, 52916, Note_off_c, 0, 69, 0
4, 52920, Note_on_c, 0, 71, 88
4, 53036, Note_off_c, 0, 71, 0
4, 53040, Note_on_c, 0, 72, 88
4, 53156, Note_off_c, 0, 72, 0
4, 53160, Note_on_c, 0, 67, 88
4, 53276, Note_off_c, 0, 67, 0
4, 53280, Note_on_c, 0, 74, 88
4, 53338, Note_off_c, 0, 74, 0
4, 53340, Note_on_c, 0, 76, 88
4, 53398, Note_off_c, 0, 76, 0
4, 53400, Note_on_c, 0, 74, 88
4, 53458, Note_off_c, 0, 74, 0
4, 53460, Note_on_c, 0, 76, 88
4, 53518, Note_off_c, 0, 76, 0
4, 53520, Note_on_c, 0, 77, 88
4, 53542, Note_off_c, 0, 77, 0
4, 53543, Note_on_c, 0, 76, 88
4, 53564, Note_off_c, 0, 76, 0
4, 53565, Note_on_c, 0, 77, 88
4, 53587, Note_off_c, 0, 77, 0
4, 53588, Note_on_c, 0, 76, 88
4, 53609, Note_off_c, 0, 76, 0
4, 53610, Note_on_c, 0, 77, 88
4, 53632, Note_off_c, 0, 77, 0
4, 53633, Note_on_c, 0, 76, 88
4, 53654, Note_off_c, 0, 76, 0
4, 53655, Note_on_c, 0, 77, 88
4, 53677, Note_off_c, 0, 77, 0
4, 53678, Note_on_c, 0, 76, 88
4, 53699, Note_off_c, 0, 76, 0
4, 53700, Note_on_c, 0, 74, 88
4, 53729, Note_off_c, 0, 74, 0
4, 53730, Note_on_c, 0, 76, 88
4, 53759, Note_off_c, 0, 76, 0
4, 53760, Note_on_c, 0, 77, 88
4, 54350, Note_off_c, 0, 77, 0
4, 54360, Note_on_c, 0, 76, 88
4, 54418, Note_off_c, 0, 76, 0
4, 54420, Note_on_c, 0, 77, 88
4, 54478, Note_off_c, 0, 77, 0
4, 54480, Note_on_c, 0, 76, 88
4, 54596, Note_off_c, 0, 76, 0
4, 54600, Note_on_c, 0, 74, 88
4, 54716, Note_off_c, 0, 74, 0
4, 54720, Note_on_c, 0, 72, 88
4, 54833, Note_off_c, 0, 72, 0
4, 54840, Note_on_c, 0, 72, 88
4, 54898, Note_off_c, 0, 72, 0
4, 54900, Note_on_c, 0, 74, 88
4, 54958, Note_off_c, 0, 74, 0
4, 54960, Note_on_c, 0, 72, 88
4, 55076, Note_off_c, 0, 72, 0
4, 55080, Note_on_c, 0, 71, 88
4, 55196, Note_off_c, 0, 71, 0
4, 55200, Note_on_c, 0, 69, 88
4, 55258, Note_off_c, 0, 69, 0
4, 55260, Note_on_c, 0, 71, 88
4, 55318, Note_off_c, 0, 71, 0
4, 55320, Note_on_c, 0, 72, 88
4, 55378, Note_off_c, 0, 72, 0
4, 55380, Note_on_c, 0, 71, 88
4, 55438, Note_off_c, 0, 71, 0
4, 55440, Note_on_c, 0, 69, 88
4, 55556, Note_off_c, 0, 69, 0
4, 55560, Note_on_c, 0, 67, 88
4, 55676, Note_off_c, 0, 67, 0
4, 55680, Note_on_c, 0, 77, 88
4, 55796, Note_off_c, 0, 77, 0
4, 55800, Note_on_c, 0, 81, 88
4, 55916, Note_off_c, 0, 81, 0
4, 56040, Note_on_c, 0, 76, 88
4, 56156, Note_off_c, 0, 76, 0
4, 56160, Note_on_c, 0, 74, 88
4, 56218, Note_off_c, 0, 74, 0
4, 56220, Note_on_c, 0, 72, 88
4, 56278, Note_off_c, 0, 72, 0
4, 56280, Note_on_c, 0, 76, 88
4, 56338, Note_off_c, 0, 76, 0
4, 56340, Note_on_c, 0, 74, 88
4, 56398, Note_off_c, 0, 74, 0
4, 56400, Note_on_c, 0, 72, 88
4, 56458, Note_off_c, 0, 72, 0
4, 56460, Note_on_c, 0, 71, 88
4, 56518, Note_off_c, 0, 71, 0
4, 56520, Note_on_c, 0, 74, 88
4, 56578, Note_off_c, 0, 74, 0
4, 56580, Note_on_c, 0, 72, 88
4, 56638, Note_off_c, 0, 72, 0
4, 56640, Note_on_c, 0, 71, 88
4, 56993, Note_off_c, 0, 71, 0
4, 57000, Note_on_c, 0, 69, 88
4, 57175, Note_off_c, 0, 69, 0
4, 57180, Note_on_c, 0, 71, 88
4, 57238, Note_off_c, 0, 71, 0
4, 57240, Note_on_c, 0, 68, 88
4, 57298, Note_off_c, 0, 68, 0
4, 57300, Note_on_c, 0, 69, 88
4, 57358, Note_off_c, 0, 69, 0
4, 57360, Note_on_c, 0, 71, 88
4, 57658, Note_off_c, 0, 71, 0
4, 57660, Note_on_c, 0, 72, 88
4, 57718, Note_off_c, 0, 72, 0
4, 57720, Note_on_c, 0, 69, 88
4, 57778, Note_off_c, 0, 69, 0
4, 57780, Note_on_c, 0, 71, 88
4, 57838, Note_off_c, 0, 71, 0
4, 57840, Note_on_c, 0, 72, 88
4, 58134, Note_off_c, 0, 72, 0
4, 58140, Note_on_c, 0, 74, 88
4, 58198, Note_off_c, 0, 74, 0
4, 58200, Note_on_c, 0, 71, 88
4, 58258, Note_off_c, 0, 71, 0
4, 58260, Note_on_c, 0, 72, 88
4, 58318, Note_off_c, 0, 72, 0
4, 58320, Note_on_c, 0, 74, 88
4, 58378, Note_off_c, 0, 74, 0
4, 58380, Note_on_c, 0, 72, 88
4, 58438, Note_off_c, 0, 72, 0
4, 58440, Note_on_c, 0, 71, 88
4, 58498, Note_off_c, 0, 71, 0
4, 58500, Note_on_c, 0, 69, 88
4, 58558, Note_off_c, 0, 69, 0
4, 58560, Note_on_c, 0, 68, 88
4, 58618, Note_off_c, 0, 68, 0
4, 58620, Note_on_c, 0, 71, 88
4, 58678, Note_off_c, 0, 71, 0
4, 58680, Note_on_c, 0, 72, 88
4, 58738, Note_off_c, 0, 72, 0
4, 58740, Note_on_c, 0, 74, 88
4, 58798, Note_off_c, 0, 74, 0
4, 58800, Note_on_c, 0, 76, 88
4, 58858, Note_off_c, 0, 76, 0
4, 58860, Note_on_c, 0, 77, 88
4, 58918, Note_off_c, 0, 77, 0
4, 58920, Note_on_c, 0, 79, 88
4, 59095, Note_off_c, 0, 79, 0
4, 59100, Note_on_c, 0, 81, 88
4, 59158, Note_off_c, 0, 81, 0
4, 59160, Note_on_c, 0, 79, 88
4, 59218, Note_off_c, 0, 79, 0
4, 59220, Note_on_c, 0, 77, 88
4, 59278, Note_off_c, 0, 77, 0
4, 59280, Note_on_c, 0, 79, 88
4, 59578, Note_off_c, 0, 79, 0
4, 59580, Note_on_c, 0, 77, 88
4, 59638, Note_off_c, 0, 77, 0
4, 59640, Note_on_c, 0, 76, 88
4, 59698, Note_off_c, 0, 76, 0
4, 59700, Note_on_c, 0, 77, 88
4, 59758, Note_off_c, 0, 77, 0
4, 59760, Note_on_c, 0, 79, 88
4, 60054, Note_off_c, 0, 79, 0
4, 60060, Note_on_c, 0, 82, 88
4, 60118, Note_off_c, 0, 82, 0
4, 60120, Note_on_c, 0, 81, 88
4, 60178, Note_off_c, 0, 81, 0
4, 60180, Note_on_c, 0, 79, 88
4, 60238, Note_off_c, 0, 79, 0
4, 60240, Note_on_c, 0, 77, 88
4, 60298, Note_off_c, 0, 77, 0
4, 60300, Note_on_c, 0, 76, 88
4, 60358, Note_off_c, 0, 76, 0
4, 60360, Note_on_c, 0, 74, 88
4, 60418, Note_off_c, 0, 74, 0
4, 60420, Note_on_c, 0, 73, 88
4, 60478, Note_off_c, 0, 73, 0
4, 60480, Note_on_c, 0, 74, 88
4, 60538, Note_off_c, 0, 74, 0
4, 60540, Note_on_c, 0, 76, 88
4, 60598, Note_off_c, 0, 76, 0
4, 60600, Note_on_c, 0, 74, 88
4, 60658, Note_off_c, 0, 74, 0
4, 60660, Note_on_c, 0, 76, 88
4, 60718, Note_off_c, 0, 76, 0
4, 60720, Note_on_c, 0, 77, 88
4, 60745, Note_off_c, 0, 77, 0
4, 60746, Note_on_c, 0, 76, 88
4, 60772, Note_off_c, 0, 76, 0
4, 60773, Note_on_c, 0, 77, 88
4, 60794, Note_off_c, 0, 77, 0
4, 60795, Note_on_c, 0, 76, 88
4, 60817, Note_off_c, 0, 76, 0
4, 60818, Note_on_c, 0, 77, 88
4, 60839, Note_off_c, 0, 77, 0
4, 60840, Note_on_c, 0, 76, 88
4, 60898, Note_off_c, 0, 76, 0
4, 60900, Note_on_c, 0, 74, 88
4, 60953, Note_off_c, 0, 74, 0
4, 60960, Note_on_c, 0, 74, 88
4, 61674, Note_off_c, 0, 74, 0
4, 63960, Note_on_c, 0, 76, 88
4, 64018, Note_off_c, 0, 76, 0
4, 64020, Note_on_c, 0, 77, 88
4, 64078, Note_off_c, 0, 77, 0
4, 64080, Note_on_c, 0, 76, 88
4, 64196, Note_off_c, 0, 76, 0
4, 64200, Note_on_c, 0, 74, 88
4, 64316, Note_off_c, 0, 74, 0
4, 64320, Note_on_c, 0, 72, 88
4, 64433, Note_off_c, 0, 72, 0
4, 64440, Note_on_c, 0, 72, 88
4, 64498, Note_off_c, 0, 72, 0
4, 64500, Note_on_c, 0, 74, 88
4, 64558, Note_off_c, 0, 74, 0
4, 64560, Note_on_c, 0, 72, 88
4, 64676, Note_off_c, 0, 72, 0
4, 64680, Note_on_c, 0, 70, 88
4, 64796, Note_off_c, 0, 70, 0
4, 64800, Note_on_c, 0, 69, 88
4, 64858, Note_off_c, 0, 69, 0
4, 64860, Note_on_c, 0, 70, 88
4, 64918, Note_off_c, 0, 70, 0
4, 64920, Note_on_c, 0, 72, 88
4, 64978, Note_off_c, 0, 72, 0
4, 64980, Note_on_c, 0, 70, 88
4, 65038, Note_off_c, 0, 70, 0
4, 65040, Note_on_c, 0, 69, 88
4, 65156, Note_off_c, 0, 69, 0
4, 65160, Note_on_c, 0, 67, 88
4, 65276, Note_off_c, 0, 67, 0
4, 65280, Note_on_c, 0, 77, 88
4, 65396, Note_off_c, 0, 77, 0
4, 65400, Note_on_c, 0, 81, 88
4, 65516, Note_off_c, 0, 81, 0
4, 65640, Note_on_c, 0, 76, 88
4, 65756, Note_off_c, 0, 76, 0
4, 65760, Note_on_c, 0, 74, 88
4, 65818, Note_off_c, 0, 74, 0
4, 65820, Note_on_c, 0, 73, 88
4, 65878, Note_off_c, 0, 73, 0
4, 65880, Note_on_c, 0, 76, 88
4, 65938, Note_off_c, 0, 76, 0
4, 65940, Note_on_c, 0, 74, 88
4, 65998, Note_off_c, 0, 74, 0
4, 66000, Note_on_c, 0, 73, 88
4, 66058, Note_off_c, 0, 73, 0
4, 66060, Note_on_c, 0, 71, 88
4, 66118, Note_off_c, 0, 71, 0
4, 66120, Note_on_c, 0, 74, 88
4, 66178, Note_off_c, 0, 74, 0
4, 66180, Note_on_c, 0, 72, 88
4, 66238, Note_off_c, 0, 72, 0
4, 66240, Note_on_c, 0, 71, 88
4, 66356, Note_off_c, 0, 71, 0
4, 66360, Note_on_c, 0, 73, 88
4, 66476, Note_off_c, 0, 73, 0
4, 66480, Note_on_c, 0, 74, 88
4, 66596, Note_off_c, 0, 74, 0
4, 66600, Note_on_c, 0, 69, 88
4, 66716, Note_off_c, 0, 69, 0
4, 66720, Note_on_c, 0, 76, 88
4, 67258, Note_off_c, 0, 76, 0
4, 67260, Note_on_c, 0, 73, 88
4, 67318, Note_off_c, 0, 73, 0
4, 67320, Note_on_c, 0, 74, 88
4, 67378, Note_off_c, 0, 74, 0
4, 67380, Note_on_c, 0, 77, 88
4, 67438, Note_off_c, 0, 77, 0
4, 67440, Note_on_c, 0, 79, 88
4, 67734, Note_off_c, 0, 79, 0
4, 67740, Note_on_c, 0, 76, 88
4, 67798, Note_off_c, 0, 76, 0
4, 67800, Note_on_c, 0, 77, 88
4, 67858, Note_off_c, 0, 77, 0
4, 67860, Note_on_c, 0, 81, 88
4, 67918, Note_off_c, 0, 81, 0
4, 67920, Note_on_c, 0, 82, 88
4, 68218, Note_off_c, 0, 82, 0
4, 68220, Note_on_c, 0, 79, 88
4, 68278, Note_off_c, 0, 79, 0
4, 68280, Note_on_c, 0, 81, 88
4, 68338, Note_off_c, 0, 81, 0
4, 68340, Note_on_c, 0, 84, 88
4, 68398, Note_off_c, 0, 84, 0
4, 68400, Note_on_c, 0, 74, 88
4, 68516, Note_off_c, 0, 74, 0
4, 68520, Note_on_c, 0, 76, 88
4, 68578, Note_off_c, 0, 76, 0
4, 68580, Note_on_c, 0, 79, 88
4, 68638, Note_off_c, 0, 79, 0
4, 68640, Note_on_c, 0, 72, 88
4, 68934, Note_off_c, 0, 72, 0
4, 68940, Note_on_c, 0, 65, 88
4, 68998, Note_off_c, 0, 65, 0
4, 69000, Note_on_c, 0, 67, 88
4, 69058, Note_off_c, 0, 67, 0
4, 69060, Note_on_c, 0, 70, 88
4, 69173, Note_off_c, 0, 70, 0
4, 69180, Note_on_c, 0, 70, 88
4, 69238, Note_off_c, 0, 70, 0
4, 69240, Note_on_c, 0, 69, 88
4, 69298, Note_off_c, 0, 69, 0
4, 69300, Note_on_c, 0, 67, 88
4, 69353, Note_off_c, 0, 67, 0
4, 69360, Note_on_c, 0, 67, 88
4, 69535, Note_off_c, 0, 67, 0
4, 69540, Note_on_c, 0, 65, 88
4, 69593, Note_off_c, 0, 65, 0
4, 69600, Note_on_c, 0, 65, 88
4, 69834, Note_off_c, 0, 65, 0
4, 69840, Note_on_c, 0, 72, 88
4, 71156, Note_off_c, 0, 72, 0
4, 71160, Note_on_c, 0, 69, 88
4, 71276, Note_off_c, 0, 69, 0
4, 71280, Note_on_c, 0, 75, 88
4, 71633, Note_off_c, 0, 75, 0
4, 71640, Note_on_c, 0, 74, 88
4, 71756, Note_off_c, 0, 74, 0
4, 71760, Note_on_c, 0, 72, 88
4, 71818, Note_off_c, 0, 72, 0
4, 71820, Note_on_c, 0, 70, 88
4, 71878, Note_off_c, 0, 70, 0
4, 71880, Note_on_c, 0, 74, 88
4, 71938, Note_off_c, 0, 74, 0
4, 71940, Note_on_c, 0, 72, 88
4, 71998, Note_off_c, 0, 72, 0
4, 72000, Note_on_c, 0, 70, 88
4, 72058, Note_off_c, 0, 70, 0
4, 72060, Note_on_c, 0, 72, 88
4, 72118, Note_off_c, 0, 72, 0
4, 72120, Note_on_c, 0, 74, 88
4, 72178, Note_off_c, 0, 74, 0
4, 72180, Note_on_c, 0, 72, 88
4, 72238, Note_off_c, 0, 72, 0
4, 72240, Note_on_c, 0, 70, 88
4, 72298, Note_off_c, 0, 70, 0
4, 72300, Note_on_c, 0, 69, 88
4, 72358, Note_off_c, 0, 69, 0
4, 72360, Note_on_c, 0, 67, 88
4, 72418, Note_off_c, 0, 67, 0
4, 72420, Note_on_c, 0, 65, 88
4, 72478, Note_off_c, 0, 65, 0
4, 72480, Note_on_c, 0, 67, 88
4, 72538, Note_off_c, 0, 67, 0
4, 72540, Note_on_c, 0, 69, 88
4, 72598, Note_off_c, 0, 69, 0
4, 72600, Note_on_c, 0, 70, 88
4, 72658, Note_off_c, 0, 70, 0
4, 72660, Note_on_c, 0, 69, 88
4, 72718, Note_off_c, 0, 69, 0
4, 72720, Note_on_c, 0, 67, 88
4, 72778, Note_off_c, 0, 67, 0
4, 72780, Note_on_c, 0, 65, 88
4, 72838, Note_off_c, 0, 65, 0
4, 72840, Note_on_c, 0, 64, 88
4, 72898, Note_off_c, 0, 64, 0
4, 72900, Note_on_c, 0, 62, 88
4, 72958, Note_off_c, 0, 62, 0
4, 72960, Note_on_c, 0, 76, 88
4, 73430, Note_off_c, 0, 76, 0
4, 73560, Note_on_c, 0, 76, 88
4, 73618, Note_off_c, 0, 76, 0
4, 73620, Note_on_c, 0, 74, 88
4, 73678, Note_off_c, 0, 74, 0
4, 73680, Note_on_c, 0, 76, 88
4, 73796, Note_off_c, 0, 76, 0
4, 73800, Note_on_c, 0, 77, 88
4, 73916, Note_off_c, 0, 77, 0
4, 73920, Note_on_c, 0, 79, 88
4, 74033, Note_off_c, 0, 79, 0
4, 74040, Note_on_c, 0, 79, 88
4, 74098, Note_off_c, 0, 79, 0
4, 74100, Note_on_c, 0, 77, 88
4, 74158, Note_off_c, 0, 77, 0
4, 74160, Note_on_c, 0, 79, 88
4, 74276, Note_off_c, 0, 79, 0
4, 74280, Note_on_c, 0, 81, 88
4, 74396, Note_off_c, 0, 81, 0
4, 74400, Note_on_c, 0, 82, 88
4, 74458, Note_off_c, 0, 82, 0
4, 74460, Note_on_c, 0, 81, 88
4, 74518, Note_off_c, 0, 81, 0
4, 74520, Note_on_c, 0, 79, 88
4, 74578, Note_off_c, 0, 79, 0
4, 74580, Note_on_c, 0, 81, 88
4, 74638, Note_off_c, 0, 81, 0
4, 74640, Note_on_c, 0, 82, 88
4, 74698, Note_off_c, 0, 82, 0
4, 74700, Note_on_c, 0, 79, 88
4, 74758, Note_off_c, 0, 79, 0
4, 74760, Note_on_c, 0, 81, 88
4, 74818, Note_off_c, 0, 81, 0
4, 74820, Note_on_c, 0, 76, 88
4, 74878, Note_off_c, 0, 76, 0
4, 74880, Note_on_c, 0, 77, 88
4, 74938, Note_off_c, 0, 77, 0
4, 74940, Note_on_c, 0, 76, 88
4, 74998, Note_off_c, 0, 76, 0
4, 75000, Note_on_c, 0, 74, 88
4, 75058, Note_off_c, 0, 74, 0
4, 75060, Note_on_c, 0, 76, 88
4, 75118, Note_off_c, 0, 76, 0
4, 75120, Note_on_c, 0, 77, 88
4, 75178, Note_off_c, 0, 77, 0
4, 75180, Note_on_c, 0, 74, 88
4, 75238, Note_off_c, 0, 74, 0
4, 75240, Note_on_c, 0, 76, 88
4, 75298, Note_off_c, 0, 76, 0
4, 75300, Note_on_c, 0, 73, 88
4, 75358, Note_off_c, 0, 73, 0
4, 75360, Note_on_c, 0, 74, 88
4, 75418, Note_off_c, 0, 74, 0
4, 75420, Note_on_c, 0, 72, 88
4, 75478, Note_off_c, 0, 72, 0
4, 75480, Note_on_c, 0, 70, 88
4, 75538, Note_off_c, 0, 70, 0
4, 75540, Note_on_c, 0, 72, 88
4, 75598, Note_off_c, 0, 72, 0
4, 75600, Note_on_c, 0, 74, 88
4, 75658, Note_off_c, 0, 74, 0
4, 75660, Note_on_c, 0, 70, 88
4, 75718, Note_off_c, 0, 70, 0
4, 75720, Note_on_c, 0, 72, 88
4, 75778, Note_off_c, 0, 72, 0
4, 75780, Note_on_c, 0, 69, 88
4, 75838, Note_off_c, 0, 69, 0
4, 75840, Note_on_c, 0, 71, 88
4, 75840, Note_on_c, 0, 76, 88
4, 75840, Note_on_c, 0, 80, 88
4, 76074, Note_off_c, 0, 71, 0
4, 76074, Note_off_c, 0, 76, 0
4, 76074, Note_off_c, 0, 80, 0
4, 76320, Note_on_c, 0, 81, 88
4, 76916, Note_off_c, 0, 81, 0
4, 76920, Note_on_c, 0, 76, 88
4, 76978, Note_off_c, 0, 76, 0
4, 76980, Note_on_c, 0, 74, 88
4, 77038, Note_off_c, 0, 74, 0
4, 77040, Note_on_c, 0, 76, 88
4, 77156, Note_off_c, 0, 76, 0
4, 77160, Note_on_c, 0, 78, 88
4, 77276, Note_off_c, 0, 78, 0
4, 77280, Note_on_c, 0, 80, 88
4, 77393, Note_off_c, 0, 80, 0
4, 77400, Note_on_c, 0, 80, 88
4, 77458, Note_off_c, 0, 80, 0
4, 77460, Note_on_c, 0, 78, 88
4, 77518, Note_off_c, 0, 78, 0
4, 77520, Note_on_c, 0, 80, 88
4, 77636, Note_off_c, 0, 80, 0
4, 77640, Note_on_c, 0, 81, 88
4, 77756, Note_off_c, 0, 81, 0
4, 77760, Note_on_c, 0, 83, 88
4, 77818, Note_off_c, 0, 83, 0
4, 77820, Note_on_c, 0, 81, 88
4, 77878, Note_off_c, 0, 81, 0
4, 77880, Note_on_c, 0, 80, 88
4, 77938, Note_off_c, 0, 80, 0
4, 77940, Note_on_c, 0, 81, 88
4, 77998, Note_off_c, 0, 81, 0
4, 78000, Note_on_c, 0, 83, 88
4, 78116, Note_off_c, 0, 83, 0
4, 78120, Note_on_c, 0, 84, 88
4, 78236, Note_off_c, 0, 84, 0
4, 78240, Note_on_c, 0, 71, 88
4, 78240, Note_on_c, 0, 75, 88
4, 78474, Note_off_c, 0, 71, 0
4, 78474, Note_off_c, 0, 75, 0
4, 78600, Note_on_c, 0, 76, 88
4, 78716, Note_off_c, 0, 76, 0
4, 78720, Note_on_c, 0, 72, 88
4, 78836, Note_off_c, 0, 72, 0
4, 78840, Note_on_c, 0, 71, 88
4, 78898, Note_off_c, 0, 71, 0
4, 78900, Note_on_c, 0, 69, 88
4, 78958, Note_off_c, 0, 69, 0
4, 78960, Note_on_c, 0, 72, 88
4, 79018, Note_off_c, 0, 72, 0
4, 79020, Note_on_c, 0, 71, 88
4, 79078, Note_off_c, 0, 71, 0
4, 79080, Note_on_c, 0, 69, 88
4, 79138, Note_off_c, 0, 69, 0
4, 79140, Note_on_c, 0, 68, 88
4, 79198, Note_off_c, 0, 68, 0
4, 79200, Note_on_c, 0, 69, 88
4, 79434, Note_off_c, 0, 69, 0
4, 80280, Note_on_c, 0, 74, 88
4, 80338, Note_off_c, 0, 74, 0
4, 80340, Note_on_c, 0, 73, 88
4, 80398, Note_off_c, 0, 73, 0
4, 80400, Note_on_c, 0, 74, 88
4, 80516, Note_off_c, 0, 74, 0
4, 80520, Note_on_c, 0, 76, 88
4, 80636, Note_off_c, 0, 76, 0
4, 80640, Note_on_c, 0, 77, 88
4, 80753, Note_off_c, 0, 77, 0
4, 80760, Note_on_c, 0, 77, 88
4, 80818, Note_off_c, 0, 77, 0
4, 80820, Note_on_c, 0, 76, 88
4, 80878, Note_off_c, 0, 76, 0
4, 80880, Note_on_c, 0, 77, 88
4, 80996, Note_off_c, 0, 77, 0
4, 81000, Note_on_c, 0, 79, 88
4, 81116, Note_off_c, 0, 79, 0
4, 81120, Note_on_c, 0, 81, 88
4, 81178, Note_off_c, 0, 81, 0
4, 81180, Note_on_c, 0, 79, 88
4, 81238, Note_off_c, 0, 79, 0
4, 81240, Note_on_c, 0, 77, 88
4, 81298, Note_off_c, 0, 77, 0
4, 81300, Note_on_c, 0, 79, 88
4, 81358, Note_off_c, 0, 79, 0
4, 81360, Note_on_c, 0, 81, 88
4, 81476, Note_off_c, 0, 81, 0
4, 81480, Note_on_c, 0, 82, 88
4, 81596, Note_off_c, 0, 82, 0
4, 81600, Note_on_c, 0, 73, 88
4, 81716, Note_off_c, 0, 73, 0
4, 81720, Note_on_c, 0, 69, 88
4, 81836, Note_off_c, 0, 69, 0
4, 81960, Note_on_c, 0, 74, 88
4, 82135, Note_off_c, 0, 74, 0
4, 82140, Note_on_c, 0, 72, 88
4, 82198, Note_off_c, 0, 72, 0
4, 82200, Note_on_c, 0, 71, 88
4, 82258, Note_off_c, 0, 71, 0
4, 82260, Note_on_c, 0, 72, 88
4, 82318, Note_off_c, 0, 72, 0
4, 82320, Note_on_c, 0, 74, 88
4, 82378, Note_off_c, 0, 74, 0
4, 82380, Note_on_c, 0, 76, 88
4, 82438, Note_off_c, 0, 76, 0
4, 82440, Note_on_c, 0, 78, 88
4, 82498, Note_off_c, 0, 78, 0
4, 82500, Note_on_c, 0, 80, 88
4, 82558, Note_off_c, 0, 80, 0
4, 82560, Note_on_c, 0, 81, 88
4, 83505, Note_off_c, 0, 81, 0
4, 83505, End_track
5, 0, Start_track
5, 0, Title_t, "Track 2"
5, 0, Program_c, 1, 6
5, 76440, Note_on_c, 1, 69, 88
5, 76498, Note_off_c, 1, 69, 0
5, 76500, Note_on_c, 1, 68, 88
5, 76558, Note_off_c, 1, 68, 0
5, 76560, Note_on_c, 1, 69, 88
5, 76676, Note_off_c, 1, 69, 0
5, 76680, Note_on_c, 1, 71, 88
5, 76796, Note_off_c, 1, 71, 0
5, 76800, Note_on_c, 1, 72, 88
5, 76913, Note_off_c, 1, 72, 0
5, 76920, Note_on_c, 1, 72, 88
5, 76978, Note_off_c, 1, 72, 0
5, 76980, Note_on_c, 1, 71, 88
5, 77038, Note_off_c, 1, 71, 0
5, 77040, Note_on_c, 1, 72, 88
5, 77156, Note_off_c, 1, 72, 0
5, 77160, Note_on_c, 1, 74, 88
5, 77276, Note_off_c, 1, 74, 0
5, 77280, Note_on_c, 1, 76, 88
5, 77338, Note_off_c, 1, 76, 0
5, 77340, Note_on_c, 1, 74, 88
5, 77398, Note_off_c, 1, 74, 0
5, 77400, Note_on_c, 1, 72, 88
5, 77458, Note_off_c, 1, 72, 0
5, 77460, Note_on_c, 1, 74, 88
5, 77518, Note_off_c, 1, 74, 0
5, 77520, Note_on_c, 1, 76, 88
5, 77636, Note_off_c, 1, 76, 0
5, 77640, Note_on_c, 1, 77, 88
5, 77756, Note_off_c, 1, 77, 0
5, 77760, Note_on_c, 1, 68, 88
5, 77876, Note_off_c, 1, 68, 0
5, 77880, Note_on_c, 1, 64, 88
5, 77996, Note_off_c, 1, 64, 0
5, 78120, Note_on_c, 1, 69, 88
5, 78233, Note_off_c, 1, 69, 0
5, 78240, Note_on_c, 1, 69, 88
5, 78474, Note_off_c, 1, 69, 0
5, 78600, Note_on_c, 1, 71, 88
5, 78716, Note_off_c, 1, 71, 0
5, 78720, Note_on_c, 1, 69, 88
5, 78953, Note_off_c, 1, 69, 0
5, 78960, Note_on_c, 1, 69, 88
5, 79076, Note_off_c, 1, 69, 0
5, 79080, Note_on_c, 1, 62, 88
5, 79196, Note_off_c, 1, 62, 0
5, 79200, Note_on_c, 1, 61, 88
5, 79434, Note_off_c, 1, 61, 0
5, 80760, Note_on_c, 1, 69, 88
5, 80818, Note_off_c, 1, 69, 0
5, 80820, Note_on_c, 1, 67, 88
5, 80878, Note_off_c, 1, 67, 0
5, 80880, Note_on_c, 1, 69, 88
5, 80996, Note_off_c, 1, 69, 0
5, 81000, Note_on_c, 1, 71, 88
5, 81116, Note_off_c, 1, 71, 0
5, 81120, Note_on_c, 1, 73, 88
5, 81233, Note_off_c, 1, 73, 0
5, 81240, Note_on_c, 1, 73, 88
5, 81298, Note_off_c, 1, 73, 0
5, 81300, Note_on_c, 1, 71, 88
5, 81358, Note_off_c, 1, 71, 0
5, 81360, Note_on_c, 1, 73, 88
5, 81476, Note_off_c, 1, 73, 0
5, 81480, Note_on_c, 1, 74, 88
5, 81596, Note_off_c, 1, 74, 0
5, 81600, Note_on_c, 1, 76, 88
5, 81658, Note_off_c, 1, 76, 0
5, 81660, Note_on_c, 1, 74, 88
5, 81718, Note_off_c, 1, 74, 0
5, 81720, Note_on_c, 1, 73, 88
5, 81778, Note_off_c, 1, 73, 0
5, 81780, Note_on_c, 1, 74, 88
5, 81838, Note_off_c, 1, 74, 0
5, 81840, Note_on_c, 1, 76, 88
5, 81956, Note_off_c, 1, 76, 0
5, 81960, Note_on_c, 1, 77, 88
5, 82076, Note_off_c, 1, 77, 0
5, 82080, Note_on_c, 1, 68, 88
5, 82314, Note_off_c, 1, 68, 0
5, 82440, Note_on_c, 1, 74, 88
5, 82676, Note_off_c, 1, 74, 0
5, 82680, Note_on_c, 1, 76, 88
5, 82738, Note_off_c, 1, 76, 0
5, 82740, Note_on_c, 1, 77, 88
5, 82798, Note_off_c, 1, 77, 0
5, 82800, Note_on_c, 1, 73, 88
5, 82800, Note_on_c, 1, 76, 88
5, 82916, Note_off_c, 1, 73, 0
5, 82916, Note_off_c, 1, 76, 0
5, 82920, Note_on_c, 1, 71, 88
5, 82920, Note_on_c, 1, 74, 88
5, 83036, Note_off_c, 1, 71, 0
5, 83036, Note_off_c, 1, 74, 0
5, 83040, Note_on_c, 1, 73, 88
5, 83510, Note_off_c, 1, 73, 0
5, 83510, End_track
6, 0, Start_track
6, 0, Title_t, "Track 3"
6, 0, Program_c, 2, 6
6, 82680, Note_on_c, 2, 73, 88
6, 82738, Note_off_c, 2, 73, 0
6, 82740, Note_on_c, 2, 74, 88
6, 82798, Note_off_c, 2, 74, 0
6, 82980, Note_on_c, 2, 68, 88
6, 83038, Note_off_c, 2, 68, 0
6, 83040, Note_on_c, 2, 69, 88
6, 83510, Note_off_c, 2, 69, 0
6, 83510, End_track
7, 0, Start_track
7, 0, Title_t, "Track 4"
7, 0, Program_c, 3, 6
7, 120, Note_on_c, 3, 57, 88
7, 178, Note_off_c, 3, 57, 0
7, 180, Note_on_c, 3, 56, 88
7, 238, Note_off_c, 3, 56, 0
7, 240, Note_on_c, 3, 57, 88
7, 356, Note_off_c, 3, 57, 0
7, 360, Note_on_c, 3, 59, 88
7, 476, Note_off_c, 3, 59, 0
7, 480, Note_on_c, 3, 60, 88
7, 593, Note_off_c, 3, 60, 0
7, 600, Note_on_c, 3, 60, 88
7, 658, Note_off_c, 3, 60, 0
7, 660, Note_on_c, 3, 59, 88
7, 718, Note_off_c, 3, 59, 0
7, 720, Note_on_c, 3, 60, 88
7, 836, Note_off_c, 3, 60, 0
7, 840, Note_on_c, 3, 62, 88
7, 956, Note_off_c, 3, 62, 0
7, 960, Note_on_c, 3, 64, 88
7, 1018, Note_off_c, 3, 64, 0
7, 1020, Note_on_c, 3, 62, 88
7, 1078, Note_off_c, 3, 62, 0
7, 1080, Note_on_c, 3, 60, 88
7, 1138, Note_off_c, 3, 60, 0
7, 1140, Note_on_c, 3, 62, 88
7, 1198, Note_off_c, 3, 62, 0
7, 1200, Note_on_c, 3, 64, 88
7, 1316, Note_off_c, 3, 64, 0
7, 1320, Note_on_c, 3, 65, 88
7, 1436, Note_off_c, 3, 65, 0
7, 1440, Note_on_c, 3, 56, 88
7, 1556, Note_off_c, 3, 56, 0
7, 1560, Note_on_c, 3, 52, 88
7, 1676, Note_off_c, 3, 52, 0
7, 1800, Note_on_c, 3, 57, 88
7, 1916, Note_off_c, 3, 57, 0
7, 1920, Note_on_c, 3, 59, 88
7, 1978, Note_off_c, 3, 59, 0
7, 1980, Note_on_c, 3, 60, 88
7, 2038, Note_off_c, 3, 60, 0
7, 2040, Note_on_c, 3, 57, 88
7, 2098, Note_off_c, 3, 57, 0
7, 2100, Note_on_c, 3, 59, 88
7, 2158, Note_off_c, 3, 59, 0
7, 2160, Note_on_c, 3, 60, 88
7, 2218, Note_off_c, 3, 60, 0
7, 2220, Note_on_c, 3, 62, 88
7, 2278, Note_off_c, 3, 62, 0
7, 2280, Note_on_c, 3, 59, 88
7, 2338, Note_off_c, 3, 59, 0
7, 2340, Note_on_c, 3, 60, 88
7, 2398, Note_off_c, 3, 60, 0
7, 2400, Note_on_c, 3, 62, 88
7, 2516, Note_off_c, 3, 62, 0
7, 2520, Note_on_c, 3, 60, 88
7, 2636, Note_off_c, 3, 60, 0
7, 2640, Note_on_c, 3, 59, 88
7, 2756, Note_off_c, 3, 59, 0
7, 2760, Note_on_c, 3, 64, 88
7, 2876, Note_off_c, 3, 64, 0
7, 2880, Note_on_c, 3, 57, 88
7, 3114, Note_off_c, 3, 57, 0
7, 3120, Note_on_c, 3, 55, 88
7, 3236, Note_off_c, 3, 55, 0
7, 3240, Note_on_c, 3, 54, 88
7, 3356, Note_off_c, 3, 54, 0
7, 3360, Note_on_c, 3, 52, 88
7, 3476, Note_off_c, 3, 52, 0
7, 3480, Note_on_c, 3, 60, 88
7, 3596, Note_off_c, 3, 60, 0
7, 3600, Note_on_c, 3, 59, 88
7, 3716, Note_off_c, 3, 59, 0
7, 3720, Note_on_c, 3, 57, 88
7, 3836, Note_off_c, 3, 57, 0
7, 3840, Note_on_c, 3, 55, 88
7, 3898, Note_off_c, 3, 55, 0
7, 3900, Note_on_c, 3, 54, 88
7, 3958, Note_off_c, 3, 54, 0
7, 3960, Note_on_c, 3, 52, 88
7, 4018, Note_off_c, 3, 52, 0
7, 4020, Note_on_c, 3, 54, 88
7, 4078, Note_off_c, 3, 54, 0
7, 4080, Note_on_c, 3, 55, 88
7, 4196, Note_off_c, 3, 55, 0
7, 4200, Note_on_c, 3, 57, 88
7, 4316, Note_off_c, 3, 57, 0
7, 4320, Note_on_c, 3, 59, 88
7, 4378, Note_off_c, 3, 59, 0
7, 4380, Note_on_c, 3, 57, 88
7, 4438, Note_off_c, 3, 57, 0
7, 4440, Note_on_c, 3, 55, 88
7, 4498, Note_off_c, 3, 55, 0
7, 4500, Note_on_c, 3, 57, 88
7, 4558, Note_off_c, 3, 57, 0
7, 4560, Note_on_c, 3, 59, 88
7, 4676, Note_off_c, 3, 59, 0
7, 4680, Note_on_c, 3, 60, 88
7, 4916, Note_off_c, 3, 60, 0
7, 4920, Note_on_c, 3, 59, 88
7, 4978, Note_off_c, 3, 59, 0
7, 4980, Note_on_c, 3, 57, 88
7, 5038, Note_off_c, 3, 57, 0
7, 5040, Note_on_c, 3, 59, 88
7, 5156, Note_off_c, 3, 59, 0
7, 5160, Note_on_c, 3, 64, 88
7, 5394, Note_off_c, 3, 64, 0
7, 5400, Note_on_c, 3, 62, 88
7, 5458, Note_off_c, 3, 62, 0
7, 5460, Note_on_c, 3, 61, 88
7, 5518, Note_off_c, 3, 61, 0
7, 5520, Note_on_c, 3, 62, 88
7, 5876, Note_off_c, 3, 62, 0
7, 5880, Note_on_c, 3, 60, 88
7, 5938, Note_off_c, 3, 60, 0
7, 5940, Note_on_c, 3, 59, 88
7, 5998, Note_off_c, 3, 59, 0
7, 6000, Note_on_c, 3, 60, 88
7, 6294, Note_off_c, 3, 60, 0
7, 6300, Note_on_c, 3, 69, 88
7, 6358, Note_off_c, 3, 69, 0
7, 6360, Note_on_c, 3, 67, 88
7, 6418, Note_off_c, 3, 67, 0
7, 6420, Note_on_c, 3, 65, 88
7, 6478, Note_off_c, 3, 65, 0
7, 6480, Note_on_c, 3, 64, 88
7, 6538, Note_off_c, 3, 64, 0
7, 6540, Note_on_c, 3, 62, 88
7, 6598, Note_off_c, 3, 62, 0
7, 6600, Note_on_c, 3, 60, 88
7, 6658, Note_off_c, 3, 60, 0
7, 6660, Note_on_c, 3, 59, 88
7, 6718, Note_off_c, 3, 59, 0
7, 6720, Note_on_c, 3, 60, 88
7, 6778, Note_off_c, 3, 60, 0
7, 6780, Note_on_c, 3, 59, 88
7, 6838, Note_off_c, 3, 59, 0
7, 6840, Note_on_c, 3, 60, 88
7, 7074, Note_off_c, 3, 60, 0
7, 7080, Note_on_c, 3, 62, 88
7, 7196, Note_off_c, 3, 62, 0
7, 7200, Note_on_c, 3, 64, 88
7, 7258, Note_off_c, 3, 64, 0
7, 7260, Note_on_c, 3, 62, 88
7, 7318, Note_off_c, 3, 62, 0
7, 7320, Note_on_c, 3, 64, 88
7, 7554, Note_off_c, 3, 64, 0
7, 7560, Note_on_c, 3, 65, 88
7, 7738, Note_off_c, 3, 65, 0
7, 7740, Note_on_c, 3, 66, 88
7, 7798, Note_off_c, 3, 66, 0
7, 7800, Note_on_c, 3, 64, 88
7, 7858, Note_off_c, 3, 64, 0
7, 7860, Note_on_c, 3, 66, 88
7, 7918, Note_off_c, 3, 66, 0
7, 7920, Note_on_c, 3, 68, 88
7, 8036, Note_off_c, 3, 68, 0
7, 8040, Note_on_c, 3, 69, 88
7, 8156, Note_off_c, 3, 69, 0
7, 8160, Note_on_c, 3, 71, 88
7, 8394, Note_off_c, 3, 71, 0
7, 8520, Note_on_c, 3, 69, 88
7, 8636, Note_off_c, 3, 69, 0
7, 8640, Note_on_c, 3, 67, 88
7, 8934, Note_off_c, 3, 67, 0
7, 8940, Note_on_c, 3, 65, 88
7, 8998, Note_off_c, 3, 65, 0
7, 9000, Note_on_c, 3, 64, 88
7, 9058, Note_off_c, 3, 64, 0
7, 9060, Note_on_c, 3, 67, 88
7, 9118, Note_off_c, 3, 67, 0
7, 9120, Note_on_c, 3, 66, 88
7, 9354, Note_off_c, 3, 66, 0
7, 9360, Note_on_c, 3, 68, 88
7, 9594, Note_off_c, 3, 68, 0
7, 9600, Note_on_c, 3, 69, 88
7, 9713, Note_off_c, 3, 69, 0
7, 9720, Note_on_c, 3, 69, 88
7, 9836, Note_off_c, 3, 69, 0
7, 9840, Note_on_c, 3, 67, 88
7, 9956, Note_off_c, 3, 67, 0
7, 9960, Note_on_c, 3, 66, 88
7, 10076, Note_off_c, 3, 66, 0
7, 10080, Note_on_c, 3, 64, 88
7, 10196, Note_off_c, 3, 64, 0
7, 10200, Note_on_c, 3, 72, 88
7, 10316, Note_off_c, 3, 72, 0
7, 10320, Note_on_c, 3, 71, 88
7, 10436, Note_off_c, 3, 71, 0
7, 10440, Note_on_c, 3, 69, 88
7, 10556, Note_off_c, 3, 69, 0
7, 10560, Note_on_c, 3, 67, 88
7, 10618, Note_off_c, 3, 67, 0
7, 10620, Note_on_c, 3, 66, 88
7, 10678, Note_off_c, 3, 66, 0
7, 10680, Note_on_c, 3, 64, 88
7, 10738, Note_off_c, 3, 64, 0
7, 10740, Note_on_c, 3, 66, 88
7, 10798, Note_off_c, 3, 66, 0
7, 10800, Note_on_c, 3, 67, 88
7, 10916, Note_off_c, 3, 67, 0
7, 10920, Note_on_c, 3, 66, 88
7, 11154, Note_off_c, 3, 66, 0
7, 11160, Note_on_c, 3, 64, 88
7, 11218, Note_off_c, 3, 64, 0
7, 11220, Note_on_c, 3, 63, 88
7, 11278, Note_off_c, 3, 63, 0
7, 11280, Note_on_c, 3, 64, 88
7, 11636, Note_off_c, 3, 64, 0
7, 11640, Note_on_c, 3, 69, 88
7, 11698, Note_off_c, 3, 69, 0
7, 11700, Note_on_c, 3, 63, 88
7, 11758, Note_off_c, 3, 63, 0
7, 11760, Note_on_c, 3, 64, 88
7, 12350, Note_off_c, 3, 64, 0
7, 12360, Note_on_c, 3, 63, 88
7, 12476, Note_off_c, 3, 63, 0
7, 12480, Note_on_c, 3, 64, 88
7, 12833, Note_off_c, 3, 64, 0
7, 12840, Note_on_c, 3, 63, 88
7, 12956, Note_off_c, 3, 63, 0
7, 12960, Note_on_c, 3, 64, 88
7, 13076, Note_off_c, 3, 64, 0
7, 13560, Note_on_c, 3, 64, 88
7, 13676, Note_off_c, 3, 64, 0
7, 13680, Note_on_c, 3, 66, 88
7, 13796, Note_off_c, 3, 66, 0
7, 13800, Note_on_c, 3, 67, 88
7, 13916, Note_off_c, 3, 67, 0
7, 13920, Note_on_c, 3, 69, 88
7, 14036, Note_off_c, 3, 69, 0
7, 14520, Note_on_c, 3, 62, 88
7, 14636, Note_off_c, 3, 62, 0
7, 14640, Note_on_c, 3, 64, 88
7, 14756, Note_off_c, 3, 64, 0
7, 14760, Note_on_c, 3, 66, 88
7, 14876, Note_off_c, 3, 66, 0
7, 14880, Note_on_c, 3, 67, 88
7, 14996, Note_off_c, 3, 67, 0
7, 15960, Note_on_c, 3, 74, 88
7, 16018, Note_off_c, 3, 74, 0
7, 16020, Note_on_c, 3, 76, 88
7, 16078, Note_off_c, 3, 76, 0
7, 16080, Note_on_c, 3, 74, 88
7, 16196, Note_off_c, 3, 74, 0
7, 16200, Note_on_c, 3, 72, 88
7, 16316, Note_off_c, 3, 72, 0
7, 16320, Note_on_c, 3, 71, 88
7, 16433, Note_off_c, 3, 71, 0
7, 16440, Note_on_c, 3, 71, 88
7, 16498, Note_off_c, 3, 71, 0
7, 16500, Note_on_c, 3, 72, 88
7, 16558, Note_off_c, 3, 72, 0
7, 16560, Note_on_c, 3, 71, 88
7, 16676, Note_off_c, 3, 71, 0
7, 16680, Note_on_c, 3, 69, 88
7, 16796, Note_off_c, 3, 69, 0
7, 16800, Note_on_c, 3, 67, 88
7, 17034, Note_off_c, 3, 67, 0
7, 17040, Note_on_c, 3, 69, 88
7, 17156, Note_off_c, 3, 69, 0
7, 17160, Note_on_c, 3, 71, 88
7, 17276, Note_off_c, 3, 71, 0
7, 17280, Note_on_c, 3, 72, 88
7, 17514, Note_off_c, 3, 72, 0
7, 17640, Note_on_c, 3, 74, 88
7, 17756, Note_off_c, 3, 74, 0
7, 17760, Note_on_c, 3, 73, 88
7, 17935, Note_off_c, 3, 73, 0
7, 17940, Note_on_c, 3, 74, 88
7, 17998, Note_off_c, 3, 74, 0
7, 18000, Note_on_c, 3, 76, 88
7, 18298, Note_off_c, 3, 76, 0
7, 18300, Note_on_c, 3, 73, 88
7, 18358, Note_off_c, 3, 73, 0
7, 18360, Note_on_c, 3, 74, 88
7, 18535, Note_off_c, 3, 74, 0
7, 18540, Note_on_c, 3, 71, 88
7, 18598, Note_off_c, 3, 71, 0
7, 18600, Note_on_c, 3, 73, 88
7, 18716, Note_off_c, 3, 73, 0
7, 18720, Note_on_c, 3, 74, 88
7, 18954, Note_off_c, 3, 74, 0
7, 19080, Note_on_c, 3, 65, 88
7, 19196, Note_off_c, 3, 65, 0
7, 19200, Note_on_c, 3, 67, 88
7, 19258, Note_off_c, 3, 67, 0
7, 19260, Note_on_c, 3, 73, 88
7, 19318, Note_off_c, 3, 73, 0
7, 19320, Note_on_c, 3, 74, 88
7, 19378, Note_off_c, 3, 74, 0
7, 19380, Note_on_c, 3, 76, 88
7, 19438, Note_off_c, 3, 76, 0
7, 19440, Note_on_c, 3, 73, 88
7, 19674, Note_off_c, 3, 73, 0
7, 19680, Note_on_c, 3, 74, 88
7, 19796, Note_off_c, 3, 74, 0
7, 19800, Note_on_c, 3, 69, 88
7, 19858, Note_off_c, 3, 69, 0
7, 19860, Note_on_c, 3, 70, 88
7, 19918, Note_off_c, 3, 70, 0
7, 19920, Note_on_c, 3, 69, 88
7, 20036, Note_off_c, 3, 69, 0
7, 20040, Note_on_c, 3, 67, 88
7, 20156, Note_off_c, 3, 67, 0
7, 20160, Note_on_c, 3, 65, 88
7, 20276, Note_off_c, 3, 65, 0
7, 20280, Note_on_c, 3, 69, 88
7, 20396, Note_off_c, 3, 69, 0
7, 20400, Note_on_c, 3, 71, 88
7, 20516, Note_off_c, 3, 71, 0
7, 20520, Note_on_c, 3, 72, 88
7, 20636, Note_off_c, 3, 72, 0
7, 20640, Note_on_c, 3, 74, 88
7, 20698, Note_off_c, 3, 74, 0
7, 20700, Note_on_c, 3, 72, 88
7, 20758, Note_off_c, 3, 72, 0
7, 20760, Note_on_c, 3, 71, 88
7, 20818, Note_off_c, 3, 71, 0
7, 20820, Note_on_c, 3, 69, 88
7, 20878, Note_off_c, 3, 69, 0
7, 20880, Note_on_c, 3, 67, 88
7, 20996, Note_off_c, 3, 67, 0
7, 21000, Note_on_c, 3, 65, 88
7, 21236, Note_off_c, 3, 65, 0
7, 21240, Note_on_c, 3, 64, 88
7, 21356, Note_off_c, 3, 64, 0
7, 21360, Note_on_c, 3, 62, 88
7, 21594, Note_off_c, 3, 62, 0
7, 21660, Note_on_c, 3, 69, 88
7, 21718, Note_off_c, 3, 69, 0
7, 21720, Note_on_c, 3, 67, 88
7, 21778, Note_off_c, 3, 67, 0
7, 21780, Note_on_c, 3, 65, 88
7, 21838, Note_off_c, 3, 65, 0
7, 21840, Note_on_c, 3, 64, 88
7, 21956, Note_off_c, 3, 64, 0
7, 21960, Note_on_c, 3, 67, 88
7, 22196, Note_off_c, 3, 67, 0
7, 22200, Note_on_c, 3, 65, 88
7, 22258, Note_off_c, 3, 65, 0
7, 22260, Note_on_c, 3, 67, 88
7, 22318, Note_off_c, 3, 67, 0
7, 22320, Note_on_c, 3, 65, 88
7, 22436, Note_off_c, 3, 65, 0
7, 22440, Note_on_c, 3, 64, 88
7, 22556, Note_off_c, 3, 64, 0
7, 22560, Note_on_c, 3, 62, 88
7, 22673, Note_off_c, 3, 62, 0
7, 22680, Note_on_c, 3, 62, 88
7, 22738, Note_off_c, 3, 62, 0
7, 22740, Note_on_c, 3, 64, 88
7, 22798, Note_off_c, 3, 64, 0
7, 22800, Note_on_c, 3, 62, 88
7, 22916, Note_off_c, 3, 62, 0
7, 22920, Note_on_c, 3, 60, 88
7, 23036, Note_off_c, 3, 60, 0
7, 23040, Note_on_c, 3, 59, 88
7, 23098, Note_off_c, 3, 59, 0
7, 23100, Note_on_c, 3, 60, 88
7, 23158, Note_off_c, 3, 60, 0
7, 23160, Note_on_c, 3, 62, 88
7, 23218, Note_off_c, 3, 62, 0
7, 23220, Note_on_c, 3, 60, 88
7, 23278, Note_off_c, 3, 60, 0
7, 23280, Note_on_c, 3, 59, 88
7, 23396, Note_off_c, 3, 59, 0
7, 23400, Note_on_c, 3, 57, 88
7, 23516, Note_off_c, 3, 57, 0
7, 23520, Note_on_c, 3, 68, 88
7, 23636, Note_off_c, 3, 68, 0
7, 23640, Note_on_c, 3, 71, 88
7, 23756, Note_off_c, 3, 71, 0
7, 23880, Note_on_c, 3, 65, 88
7, 23996, Note_off_c, 3, 65, 0
7, 24000, Note_on_c, 3, 64, 88
7, 24058, Note_off_c, 3, 64, 0
7, 24060, Note_on_c, 3, 62, 88
7, 24118, Note_off_c, 3, 62, 0
7, 24120, Note_on_c, 3, 65, 88
7, 24178, Note_off_c, 3, 65, 0
7, 24180, Note_on_c, 3, 64, 88
7, 24238, Note_off_c, 3, 64, 0
7, 24240, Note_on_c, 3, 62, 88
7, 24298, Note_off_c, 3, 62, 0
7, 24300, Note_on_c, 3, 60, 88
7, 24358, Note_off_c, 3, 60, 0
7, 24360, Note_on_c, 3, 64, 88
7, 24418, Note_off_c, 3, 64, 0
7, 24420, Note_on_c, 3, 62, 88
7, 24478, Note_off_c, 3, 62, 0
7, 24480, Note_on_c, 3, 60, 88
7, 24596, Note_off_c, 3, 60, 0
7, 24600, Note_on_c, 3, 62, 88
7, 24716, Note_off_c, 3, 62, 0
7, 24720, Note_on_c, 3, 64, 88
7, 24778, Note_off_c, 3, 64, 0
7, 24780, Note_on_c, 3, 60, 88
7, 24838, Note_off_c, 3, 60, 0
7, 24840, Note_on_c, 3, 59, 88
7, 24898, Note_off_c, 3, 59, 0
7, 24900, Note_on_c, 3, 57, 88
7, 24958, Note_off_c, 3, 57, 0
7, 24960, Note_on_c, 3, 65, 88
7, 25018, Note_off_c, 3, 65, 0
7, 25020, Note_on_c, 3, 62, 88
7, 25078, Note_off_c, 3, 62, 0
7, 25080, Note_on_c, 3, 64, 88
7, 25138, Note_off_c, 3, 64, 0
7, 25140, Note_on_c, 3, 65, 88
7, 25198, Note_off_c, 3, 65, 0
7, 25200, Note_on_c, 3, 60, 88
7, 25225, Note_off_c, 3, 60, 0
7, 25226, Note_on_c, 3, 59, 88
7, 25252, Note_off_c, 3, 59, 0
7, 25253, Note_on_c, 3, 60, 88
7, 25274, Note_off_c, 3, 60, 0
7, 25275, Note_on_c, 3, 59, 88
7, 25297, Note_off_c, 3, 59, 0
7, 25298, Note_on_c, 3, 60, 88
7, 25319, Note_off_c, 3, 60, 0
7, 25320, Note_on_c, 3, 59, 88
7, 25378, Note_off_c, 3, 59, 0
7, 25380, Note_on_c, 3, 57, 88
7, 25433, Note_off_c, 3, 57, 0
7, 25440, Note_on_c, 3, 57, 88
7, 25556, Note_off_c, 3, 57, 0
7, 29400, Note_on_c, 3, 64, 88
7, 29458, Note_off_c, 3, 64, 0
7, 29460, Note_on_c, 3, 63, 88
7, 29518, Note_off_c, 3, 63, 0
7, 29520, Note_on_c, 3, 64, 88
7, 29636, Note_off_c, 3, 64, 0
7, 29640, Note_on_c, 3, 66, 88
7, 29756, Note_off_c, 3, 66, 0
7, 29760, Note_on_c, 3, 67, 88
7, 29873, Note_off_c, 3, 67, 0
7, 29880, Note_on_c, 3, 67, 88
7, 29938, Note_off_c, 3, 67, 0
7, 29940, Note_on_c, 3, 66, 88
7, 29998, Note_off_c, 3, 66, 0
7, 30000, Note_on_c, 3, 67, 88
7, 30116, Note_off_c, 3, 67, 0
7, 30120, Note_on_c, 3, 69, 88
7, 30236, Note_off_c, 3, 69, 0
7, 30240, Note_on_c, 3, 71, 88
7, 30298, Note_off_c, 3, 71, 0
7, 30300, Note_on_c, 3, 69, 88
7, 30358, Note_off_c, 3, 69, 0
7, 30360, Note_on_c, 3, 67, 88
7, 30418, Note_off_c, 3, 67, 0
7, 30420, Note_on_c, 3, 69, 88
7, 30478, Note_off_c, 3, 69, 0
7, 30480, Note_on_c, 3, 71, 88
7, 30596, Note_off_c, 3, 71, 0
7, 30600, Note_on_c, 3, 72, 88
7, 30716, Note_off_c, 3, 72, 0
7, 30720, Note_on_c, 3, 63, 88
7, 30836, Note_off_c, 3, 63, 0
7, 30840, Note_on_c, 3, 59, 88
7, 30956, Note_off_c, 3, 59, 0
7, 31080, Note_on_c, 3, 64, 88
7, 31196, Note_off_c, 3, 64, 0
7, 31200, Note_on_c, 3, 66, 88
7, 31258, Note_off_c, 3, 66, 0
7, 31260, Note_on_c, 3, 67, 88
7, 31318, Note_off_c, 3, 67, 0
7, 31320, Note_on_c, 3, 64, 88
7, 31378, Note_off_c, 3, 64, 0
7, 31380, Note_on_c, 3, 66, 88
7, 31438, Note_off_c, 3, 66, 0
7, 31440, Note_on_c, 3, 67, 88
7, 31498, Note_off_c, 3, 67, 0
7, 31500, Note_on_c, 3, 69, 88
7, 31558, Note_off_c, 3, 69, 0
7, 31560, Note_on_c, 3, 66, 88
7, 31618, Note_off_c, 3, 66, 0
7, 31620, Note_on_c, 3, 67, 88
7, 31678, Note_off_c, 3, 67, 0
7, 31680, Note_on_c, 3, 69, 88
7, 31796, Note_off_c, 3, 69, 0
7, 31800, Note_on_c, 3, 67, 88
7, 31916, Note_off_c, 3, 67, 0
7, 31920, Note_on_c, 3, 66, 88
7, 32036, Note_off_c, 3, 66, 0
7, 32040, Note_on_c, 3, 71, 88
7, 32156, Note_off_c, 3, 71, 0
7, 32160, Note_on_c, 3, 64, 88
7, 32513, Note_off_c, 3, 64, 0
7, 32520, Note_on_c, 3, 63, 88
7, 32636, Note_off_c, 3, 63, 0
7, 32640, Note_on_c, 3, 64, 88
7, 32756, Note_off_c, 3, 64, 0
7, 32760, Note_on_c, 3, 72, 88
7, 32818, Note_off_c, 3, 72, 0
7, 32820, Note_on_c, 3, 71, 88
7, 32878, Note_off_c, 3, 71, 0
7, 32880, Note_on_c, 3, 69, 88
7, 32938, Note_off_c, 3, 69, 0
7, 32940, Note_on_c, 3, 67, 88
7, 32998, Note_off_c, 3, 67, 0
7, 33000, Note_on_c, 3, 66, 88
7, 33058, Note_off_c, 3, 66, 0
7, 33060, Note_on_c, 3, 64, 88
7, 33118, Note_off_c, 3, 64, 0
7, 33120, Note_on_c, 3, 62, 88
7, 33236, Note_off_c, 3, 62, 0
7, 33240, Note_on_c, 3, 67, 88
7, 33298, Note_off_c, 3, 67, 0
7, 33300, Note_on_c, 3, 65, 88
7, 33358, Note_off_c, 3, 65, 0
7, 33360, Note_on_c, 3, 64, 88
7, 33418, Note_off_c, 3, 64, 0
7, 33420, Note_on_c, 3, 62, 88
7, 33478, Note_off_c, 3, 62, 0
7, 33480, Note_on_c, 3, 61, 88
7, 33538, Note_off_c, 3, 61, 0
7, 33540, Note_on_c, 3, 59, 88
7, 33598, Note_off_c, 3, 59, 0
7, 33600, Note_on_c, 3, 57, 88
7, 33716, Note_off_c, 3, 57, 0
7, 33720, Note_on_c, 3, 74, 88
7, 33778, Note_off_c, 3, 74, 0
7, 33780, Note_on_c, 3, 72, 88
7, 33838, Note_off_c, 3, 72, 0
7, 33840, Note_on_c, 3, 71, 88
7, 33898, Note_off_c, 3, 71, 0
7, 33900, Note_on_c, 3, 69, 88
7, 33958, Note_off_c, 3, 69, 0
7, 33960, Note_on_c, 3, 68, 88
7, 34018, Note_off_c, 3, 68, 0
7, 34020, Note_on_c, 3, 66, 88
7, 34078, Note_off_c, 3, 66, 0
7, 34080, Note_on_c, 3, 64, 88
7, 34314, Note_off_c, 3, 64, 0
7, 34320, Note_on_c, 3, 69, 88
7, 34554, Note_off_c, 3, 69, 0
7, 34680, Note_on_c, 3, 69, 88
7, 34738, Note_off_c, 3, 69, 0
7, 34740, Note_on_c, 3, 68, 88
7, 34798, Note_off_c, 3, 68, 0
7, 34800, Note_on_c, 3, 69, 88
7, 34916, Note_off_c, 3, 69, 0
7, 34920, Note_on_c, 3, 71, 88
7, 35036, Note_off_c, 3, 71, 0
7, 35040, Note_on_c, 3, 72, 88
7, 35153, Note_off_c, 3, 72, 0
7, 35160, Note_on_c, 3, 72, 88
7, 35218, Note_off_c, 3, 72, 0
7, 35220, Note_on_c, 3, 71, 88
7, 35278, Note_off_c, 3, 71, 0
7, 35280, Note_on_c, 3, 72, 88
7, 35396, Note_off_c, 3, 72, 0
7, 35400, Note_on_c, 3, 74, 88
7, 35516, Note_off_c, 3, 74, 0
7, 35520, Note_on_c, 3, 76, 88
7, 35578, Note_off_c, 3, 76, 0
7, 35580, Note_on_c, 3, 74, 88
7, 35638, Note_off_c, 3, 74, 0
7, 35640, Note_on_c, 3, 72, 88
7, 35698, Note_off_c, 3, 72, 0
7, 35700, Note_on_c, 3, 74, 88
7, 35758, Note_off_c, 3, 74, 0
7, 35760, Note_on_c, 3, 76, 88
7, 35876, Note_off_c, 3, 76, 0
7, 35880, Note_on_c, 3, 77, 88
7, 35996, Note_off_c, 3, 77, 0
7, 36000, Note_on_c, 3, 68, 88
7, 36116, Note_off_c, 3, 68, 0
7, 36120, Note_on_c, 3, 64, 88
7, 36236, Note_off_c, 3, 64, 0
7, 36360, Note_on_c, 3, 69, 88
7, 36476, Note_off_c, 3, 69, 0
7, 36480, Note_on_c, 3, 71, 88
7, 36538, Note_off_c, 3, 71, 0
7, 36540, Note_on_c, 3, 72, 88
7, 36598, Note_off_c, 3, 72, 0
7, 36600, Note_on_c, 3, 69, 88
7, 36658, Note_off_c, 3, 69, 0
7, 36660, Note_on_c, 3, 71, 88
7, 36718, Note_off_c, 3, 71, 0
7, 36720, Note_on_c, 3, 72, 88
7, 36778, Note_off_c, 3, 72, 0
7, 36780, Note_on_c, 3, 74, 88
7, 36838, Note_off_c, 3, 74, 0
7, 36840, Note_on_c, 3, 71, 88
7, 36898, Note_off_c, 3, 71, 0
7, 36900, Note_on_c, 3, 72, 88
7, 36958, Note_off_c, 3, 72, 0
7, 36960, Note_on_c, 3, 74, 88
7, 37076, Note_off_c, 3, 74, 0
7, 37080, Note_on_c, 3, 72, 88
7, 37196, Note_off_c, 3, 72, 0
7, 37200, Note_on_c, 3, 71, 88
7, 37316, Note_off_c, 3, 71, 0
7, 37320, Note_on_c, 3, 76, 88
7, 37436, Note_off_c, 3, 76, 0
7, 37440, Note_on_c, 3, 69, 88
7, 37734, Note_off_c, 3, 69, 0
7, 37740, Note_on_c, 3, 77, 88
7, 37798, Note_off_c, 3, 77, 0
7, 37800, Note_on_c, 3, 74, 88
7, 37858, Note_off_c, 3, 74, 0
7, 37860, Note_on_c, 3, 71, 88
7, 37918, Note_off_c, 3, 71, 0
7, 37920, Note_on_c, 3, 67, 88
7, 38214, Note_off_c, 3, 67, 0
7, 38220, Note_on_c, 3, 76, 88
7, 38278, Note_off_c, 3, 76, 0
7, 38280, Note_on_c, 3, 72, 88
7, 38338, Note_off_c, 3, 72, 0
7, 38340, Note_on_c, 3, 69, 88
7, 38398, Note_off_c, 3, 69, 0
7, 38400, Note_on_c, 3, 65, 88
7, 38516, Note_off_c, 3, 65, 0
7, 38520, Note_on_c, 3, 67, 88
7, 38578, Note_off_c, 3, 67, 0
7, 38580, Note_on_c, 3, 69, 88
7, 38638, Note_off_c, 3, 69, 0
7, 38640, Note_on_c, 3, 67, 88
7, 38698, Note_off_c, 3, 67, 0
7, 38700, Note_on_c, 3, 65, 88
7, 38758, Note_off_c, 3, 65, 0
7, 38760, Note_on_c, 3, 64, 88
7, 38818, Note_off_c, 3, 64, 0
7, 38820, Note_on_c, 3, 65, 88
7, 38878, Note_off_c, 3, 65, 0
7, 38880, Note_on_c, 3, 64, 88
7, 39418, Note_off_c, 3, 64, 0
7, 39420, Note_on_c, 3, 62, 88
7, 39478, Note_off_c, 3, 62, 0
7, 39480, Note_on_c, 3, 64, 88
7, 39538, Note_off_c, 3, 64, 0
7, 39540, Note_on_c, 3, 65, 88
7, 39598, Note_off_c, 3, 65, 0
7, 39600, Note_on_c, 3, 67, 88
7, 39658, Note_off_c, 3, 67, 0
7, 39660, Note_on_c, 3, 69, 88
7, 39718, Note_off_c, 3, 69, 0
7, 39720, Note_on_c, 3, 71, 88
7, 39778, Note_off_c, 3, 71, 0
7, 39780, Note_on_c, 3, 72, 88
7, 39838, Note_off_c, 3, 72, 0
7, 39840, Note_on_c, 3, 62, 88
7, 39898, Note_off_c, 3, 62, 0
7, 39900, Note_on_c, 3, 64, 88
7, 39958, Note_off_c, 3, 64, 0
7, 39960, Note_on_c, 3, 62, 88
7, 40018, Note_off_c, 3, 62, 0
7, 40020, Note_on_c, 3, 64, 88
7, 40078, Note_off_c, 3, 64, 0
7, 40080, Note_on_c, 3, 65, 88
7, 40378, Note_off_c, 3, 65, 0
7, 40380, Note_on_c, 3, 69, 88
7, 40438, Note_off_c, 3, 69, 0
7, 40440, Note_on_c, 3, 67, 88
7, 40498, Note_off_c, 3, 67, 0
7, 40500, Note_on_c, 3, 65, 88
7, 40558, Note_off_c, 3, 65, 0
7, 40560, Note_on_c, 3, 64, 88
7, 40676, Note_off_c, 3, 64, 0
7, 40680, Note_on_c, 3, 69, 88
7, 40796, Note_off_c, 3, 69, 0
7, 40800, Note_on_c, 3, 67, 88
7, 41396, Note_off_c, 3, 67, 0
7, 41400, Note_on_c, 3, 72, 88
7, 41516, Note_off_c, 3, 72, 0
7, 41520, Note_on_c, 3, 71, 88
7, 41636, Note_off_c, 3, 71, 0
7, 41640, Note_on_c, 3, 69, 88
7, 41756, Note_off_c, 3, 69, 0
7, 41760, Note_on_c, 3, 67, 88
7, 41873, Note_off_c, 3, 67, 0
7, 41880, Note_on_c, 3, 67, 88
7, 41996, Note_off_c, 3, 67, 0
7, 42000, Note_on_c, 3, 65, 88
7, 42116, Note_off_c, 3, 65, 0
7, 42120, Note_on_c, 3, 64, 88
7, 42236, Note_off_c, 3, 64, 0
7, 42240, Note_on_c, 3, 62, 88
7, 42298, Note_off_c, 3, 62, 0
7, 42300, Note_on_c, 3, 67, 88
7, 42358, Note_off_c, 3, 67, 0
7, 42360, Note_on_c, 3, 69, 88
7, 42418, Note_off_c, 3, 69, 0
7, 42420, Note_on_c, 3, 71, 88
7, 42478, Note_off_c, 3, 71, 0
7, 42480, Note_on_c, 3, 72, 88
7, 42950, Note_off_c, 3, 72, 0
7, 42960, Note_on_c, 3, 71, 88
7, 43076, Note_off_c, 3, 71, 0
7, 43080, Note_on_c, 3, 70, 88
7, 43196, Note_off_c, 3, 70, 0
7, 43200, Note_on_c, 3, 69, 88
7, 43316, Note_off_c, 3, 69, 0
7, 44040, Note_on_c, 3, 62, 88
7, 44218, Note_off_c, 3, 62, 0
7, 44220, Note_on_c, 3, 64, 88
7, 44278, Note_off_c, 3, 64, 0
7, 44280, Note_on_c, 3, 60, 88
7, 44338, Note_off_c, 3, 60, 0
7, 44340, Note_on_c, 3, 62, 88
7, 44398, Note_off_c, 3, 62, 0
7, 44400, Note_on_c, 3, 64, 88
7, 44458, Note_off_c, 3, 64, 0
7, 44460, Note_on_c, 3, 65, 88
7, 44518, Note_off_c, 3, 65, 0
7, 44520, Note_on_c, 3, 62, 88
7, 44578, Note_off_c, 3, 62, 0
7, 44580, Note_on_c, 3, 64, 88
7, 44638, Note_off_c, 3, 64, 0
7, 44640, Note_on_c, 3, 65, 88
7, 44756, Note_off_c, 3, 65, 0
7, 44760, Note_on_c, 3, 64, 88
7, 44876, Note_off_c, 3, 64, 0
7, 44880, Note_on_c, 3, 62, 88
7, 44996, Note_off_c, 3, 62, 0
7, 45000, Note_on_c, 3, 67, 88
7, 45116, Note_off_c, 3, 67, 0
7, 45120, Note_on_c, 3, 64, 88
7, 45178, Note_off_c, 3, 64, 0
7, 45180, Note_on_c, 3, 65, 88
7, 45238, Note_off_c, 3, 65, 0
7, 45240, Note_on_c, 3, 64, 88
7, 45298, Note_off_c, 3, 64, 0
7, 45300, Note_on_c, 3, 62, 88
7, 45358, Note_off_c, 3, 62, 0
7, 45360, Note_on_c, 3, 60, 88
7, 45418, Note_off_c, 3, 60, 0
7, 45420, Note_on_c, 3, 59, 88
7, 45478, Note_off_c, 3, 59, 0
7, 45480, Note_on_c, 3, 57, 88
7, 45538, Note_off_c, 3, 57, 0
7, 45540, Note_on_c, 3, 56, 88
7, 45598, Note_off_c, 3, 56, 0
7, 45600, Note_on_c, 3, 57, 88
7, 45716, Note_off_c, 3, 57, 0
7, 45720, Note_on_c, 3, 69, 88
7, 45778, Note_off_c, 3, 69, 0
7, 45780, Note_on_c, 3, 70, 88
7, 45838, Note_off_c, 3, 70, 0
7, 45840, Note_on_c, 3, 69, 88
7, 45956, Note_off_c, 3, 69, 0
7, 45960, Note_on_c, 3, 67, 88
7, 46076, Note_off_c, 3, 67, 0
7, 46080, Note_on_c, 3, 65, 88
7, 46193, Note_off_c, 3, 65, 0
7, 46200, Note_on_c, 3, 65, 88
7, 46258, Note_off_c, 3, 65, 0
7, 46260, Note_on_c, 3, 67, 88
7, 46318, Note_off_c, 3, 67, 0
7, 46320, Note_on_c, 3, 65, 88
7, 46436, Note_off_c, 3, 65, 0
7, 46440, Note_on_c, 3, 64, 88
7, 46556, Note_off_c, 3, 64, 0
7, 46560, Note_on_c, 3, 62, 88
7, 46618, Note_off_c, 3, 62, 0
7, 46620, Note_on_c, 3, 64, 88
7, 46678, Note_off_c, 3, 64, 0
7, 46680, Note_on_c, 3, 65, 88
7, 46738, Note_off_c, 3, 65, 0
7, 46740, Note_on_c, 3, 64, 88
7, 46798, Note_off_c, 3, 64, 0
7, 46800, Note_on_c, 3, 62, 88
7, 46916, Note_off_c, 3, 62, 0
7, 46920, Note_on_c, 3, 60, 88
7, 47036, Note_off_c, 3, 60, 0
7, 47040, Note_on_c, 3, 71, 88
7, 47156, Note_off_c, 3, 71, 0
7, 47160, Note_on_c, 3, 74, 88
7, 47276, Note_off_c, 3, 74, 0
7, 47400, Note_on_c, 3, 69, 88
7, 47516, Note_off_c, 3, 69, 0
7, 47520, Note_on_c, 3, 67, 88
7, 47578, Note_off_c, 3, 67, 0
7, 47580, Note_on_c, 3, 65, 88
7, 47638, Note_off_c, 3, 65, 0
7, 47640, Note_on_c, 3, 69, 88
7, 47698, Note_off_c, 3, 69, 0
7, 47700, Note_on_c, 3, 67, 88
7, 47758, Note_off_c, 3, 67, 0
7, 47760, Note_on_c, 3, 65, 88
7, 47818, Note_off_c, 3, 65, 0
7, 47820, Note_on_c, 3, 64, 88
7, 47878, Note_off_c, 3, 64, 0
7, 47880, Note_on_c, 3, 67, 88
7, 47938, Note_off_c, 3, 67, 0
7, 47940, Note_on_c, 3, 65, 88
7, 47998, Note_off_c, 3, 65, 0
7, 48000, Note_on_c, 3, 64, 88
7, 48116, Note_off_c, 3, 64, 0
7, 48120, Note_on_c, 3, 65, 88
7, 48236, Note_off_c, 3, 65, 0
7, 48240, Note_on_c, 3, 67, 88
7, 48356, Note_off_c, 3, 67, 0
7, 48360, Note_on_c, 3, 62, 88
7, 48476, Note_off_c, 3, 62, 0
7, 48480, Note_on_c, 3, 69, 88
7, 48538, Note_off_c, 3, 69, 0
7, 48540, Note_on_c, 3, 71, 88
7, 48598, Note_off_c, 3, 71, 0
7, 48600, Note_on_c, 3, 69, 88
7, 48658, Note_off_c, 3, 69, 0
7, 48660, Note_on_c, 3, 71, 88
7, 48718, Note_off_c, 3, 71, 0
7, 48720, Note_on_c, 3, 72, 88
7, 48742, Note_off_c, 3, 72, 0
7, 48743, Note_on_c, 3, 71, 88
7, 48764, Note_off_c, 3, 71, 0
7, 48765, Note_on_c, 3, 72, 88
7, 48787, Note_off_c, 3, 72, 0
7, 48788, Note_on_c, 3, 71, 88
7, 48809, Note_off_c, 3, 71, 0
7, 48810, Note_on_c, 3, 72, 88
7, 48832, Note_off_c, 3, 72, 0
7, 48833, Note_on_c, 3, 71, 88
7, 48854, Note_off_c, 3, 71, 0
7, 48855, Note_on_c, 3, 72, 88
7, 48877, Note_off_c, 3, 72, 0
7, 48878, Note_on_c, 3, 71, 88
7, 48899, Note_off_c, 3, 71, 0
7, 48900, Note_on_c, 3, 69, 88
7, 48929, Note_off_c, 3, 69, 0
7, 48930, Note_on_c, 3, 71, 88
7, 48959, Note_off_c, 3, 71, 0
7, 48960, Note_on_c, 3, 72, 88
7, 49018, Note_off_c, 3, 72, 0
7, 49020, Note_on_c, 3, 74, 88
7, 49078, Note_off_c, 3, 74, 0
7, 49080, Note_on_c, 3, 72, 88
7, 49138, Note_off_c, 3, 72, 0
7, 49140, Note_on_c, 3, 74, 88
7, 49198, Note_off_c, 3, 74, 0
7, 49200, Note_on_c, 3, 76, 88
7, 49222, Note_off_c, 3, 76, 0
7, 49223, Note_on_c, 3, 74, 88
7, 49244, Note_off_c, 3, 74, 0
7, 49245, Note_on_c, 3, 76, 88
7, 49267, Note_off_c, 3, 76, 0
7, 49268, Note_on_c, 3, 74, 88
7, 49289, Note_off_c, 3, 74, 0
7, 49290, Note_on_c, 3, 76, 88
7, 49312, Note_off_c, 3, 76, 0
7, 49313, Note_on_c, 3, 74, 88
7, 49334, Note_off_c, 3, 74, 0
7, 49335, Note_on_c, 3, 76, 88
7, 49357, Note_off_c, 3, 76, 0
7, 49358, Note_on_c, 3, 74, 88
7, 49379, Note_off_c, 3, 74, 0
7, 49380, Note_on_c, 3, 72, 88
7, 49409, Note_off_c, 3, 72, 0
7, 49410, Note_on_c, 3, 74, 88
7, 49439, Note_off_c, 3, 74, 0
7, 49440, Note_on_c, 3, 76, 88
7, 49498, Note_off_c, 3, 76, 0
7, 49500, Note_on_c, 3, 74, 88
7, 49558, Note_off_c, 3, 74, 0
7, 49560, Note_on_c, 3, 72, 88
7, 49618, Note_off_c, 3, 72, 0
7, 49620, Note_on_c, 3, 71, 88
7, 49678, Note_off_c, 3, 71, 0
7, 49680, Note_on_c, 3, 69, 88
7, 49738, Note_off_c, 3, 69, 0
7, 49740, Note_on_c, 3, 67, 88
7, 49798, Note_off_c, 3, 67, 0
7, 49800, Note_on_c, 3, 66, 88
7, 49858, Note_off_c, 3, 66, 0
7, 49860, Note_on_c, 3, 64, 88
7, 49918, Note_off_c, 3, 64, 0
7, 49920, Note_on_c, 3, 66, 88
7, 50036, Note_off_c, 3, 66, 0
7, 50040, Note_on_c, 3, 62, 88
7, 50156, Note_off_c, 3, 62, 0
7, 50160, Note_on_c, 3, 64, 88
7, 50276, Note_off_c, 3, 64, 0
7, 50280, Note_on_c, 3, 66, 88
7, 50396, Note_off_c, 3, 66, 0
7, 50400, Note_on_c, 3, 67, 88
7, 50516, Note_off_c, 3, 67, 0
7, 50520, Note_on_c, 3, 66, 88
7, 50636, Note_off_c, 3, 66, 0
7, 50640, Note_on_c, 3, 67, 88
7, 50756, Note_off_c, 3, 67, 0
7, 50760, Note_on_c, 3, 69, 88
7, 50876, Note_off_c, 3, 69, 0
7, 50880, Note_on_c, 3, 62, 88
7, 51233, Note_off_c, 3, 62, 0
7, 51240, Note_on_c, 3, 63, 88
7, 51356, Note_off_c, 3, 63, 0
7, 51360, Note_on_c, 3, 64, 88
7, 51473, Note_off_c, 3, 64, 0
7, 51480, Note_on_c, 3, 64, 88
7, 51538, Note_off_c, 3, 64, 0
7, 51540, Note_on_c, 3, 63, 88
7, 51598, Note_off_c, 3, 63, 0
7, 51600, Note_on_c, 3, 64, 88
7, 51716, Note_off_c, 3, 64, 0
7, 51960, Note_on_c, 3, 67, 88
7, 52076, Note_off_c, 3, 67, 0
7, 52080, Note_on_c, 3, 69, 88
7, 52196, Note_off_c, 3, 69, 0
7, 52200, Note_on_c, 3, 71, 88
7, 52316, Note_off_c, 3, 71, 0
7, 52320, Note_on_c, 3, 72, 88
7, 52436, Note_off_c, 3, 72, 0
7, 52440, Note_on_c, 3, 67, 88
7, 52674, Note_off_c, 3, 67, 0
7, 52680, Note_on_c, 3, 66, 88
7, 52738, Note_off_c, 3, 66, 0
7, 52740, Note_on_c, 3, 67, 88
7, 52798, Note_off_c, 3, 67, 0
7, 52800, Note_on_c, 3, 69, 88
7, 52916, Note_off_c, 3, 69, 0
7, 53820, Note_on_c, 3, 76, 88
7, 53878, Note_off_c, 3, 76, 0
7, 53880, Note_on_c, 3, 74, 88
7, 53938, Note_off_c, 3, 74, 0
7, 53940, Note_on_c, 3, 72, 88
7, 53998, Note_off_c, 3, 72, 0
7, 54000, Note_on_c, 3, 71, 88
7, 54058, Note_off_c, 3, 71, 0
7, 54060, Note_on_c, 3, 69, 88
7, 54118, Note_off_c, 3, 69, 0
7, 54120, Note_on_c, 3, 68, 88
7, 54178, Note_off_c, 3, 68, 0
7, 54180, Note_on_c, 3, 69, 88
7, 54238, Note_off_c, 3, 69, 0
7, 54240, Note_on_c, 3, 71, 88
7, 54836, Note_off_c, 3, 71, 0
7, 54840, Note_on_c, 3, 64, 88
7, 54898, Note_off_c, 3, 64, 0
7, 54900, Note_on_c, 3, 65, 88
7, 54958, Note_off_c, 3, 65, 0
7, 54960, Note_on_c, 3, 64, 88
7, 55076, Note_off_c, 3, 64, 0
7, 55080, Note_on_c, 3, 62, 88
7, 55196, Note_off_c, 3, 62, 0
7, 55200, Note_on_c, 3, 60, 88
7, 55313, Note_off_c, 3, 60, 0
7, 55320, Note_on_c, 3, 60, 88
7, 55378, Note_off_c, 3, 60, 0
7, 55380, Note_on_c, 3, 62, 88
7, 55438, Note_off_c, 3, 62, 0
7, 55440, Note_on_c, 3, 60, 88
7, 55556, Note_off_c, 3, 60, 0
7, 55560, Note_on_c, 3, 58, 88
7, 55676, Note_off_c, 3, 58, 0
7, 55680, Note_on_c, 3, 57, 88
7, 55738, Note_off_c, 3, 57, 0
7, 55740, Note_on_c, 3, 59, 88
7, 55798, Note_off_c, 3, 59, 0
7, 55800, Note_on_c, 3, 61, 88
7, 55858, Note_off_c, 3, 61, 0
7, 55860, Note_on_c, 3, 59, 88
7, 55918, Note_off_c, 3, 59, 0
7, 55920, Note_on_c, 3, 57, 88
7, 56036, Note_off_c, 3, 57, 0
7, 56040, Note_on_c, 3, 55, 88
7, 56156, Note_off_c, 3, 55, 0
7, 56160, Note_on_c, 3, 66, 88
7, 56276, Note_off_c, 3, 66, 0
7, 56280, Note_on_c, 3, 71, 88
7, 56396, Note_off_c, 3, 71, 0
7, 56520, Note_on_c, 3, 64, 88
7, 56636, Note_off_c, 3, 64, 0
7, 56640, Note_on_c, 3, 62, 88
7, 56698, Note_off_c, 3, 62, 0
7, 56700, Note_on_c, 3, 60, 88
7, 56758, Note_off_c, 3, 60, 0
7, 56760, Note_on_c, 3, 64, 88
7, 56818, Note_off_c, 3, 64, 0
7, 56820, Note_on_c, 3, 62, 88
7, 56878, Note_off_c, 3, 62, 0
7, 56880, Note_on_c, 3, 60, 88
7, 56938, Note_off_c, 3, 60, 0
7, 56940, Note_on_c, 3, 59, 88
7, 56998, Note_off_c, 3, 59, 0
7, 57000, Note_on_c, 3, 62, 88
7, 57058, Note_off_c, 3, 62, 0
7, 57060, Note_on_c, 3, 60, 88
7, 57118, Note_off_c, 3, 60, 0
7, 57120, Note_on_c, 3, 59, 88
7, 57236, Note_off_c, 3, 59, 0
7, 57240, Note_on_c, 3, 60, 88
7, 57356, Note_off_c, 3, 60, 0
7, 57360, Note_on_c, 3, 62, 88
7, 57418, Note_off_c, 3, 62, 0
7, 57420, Note_on_c, 3, 60, 88
7, 57478, Note_off_c, 3, 60, 0
7, 57480, Note_on_c, 3, 64, 88
7, 57538, Note_off_c, 3, 64, 0
7, 57540, Note_on_c, 3, 62, 88
7, 57598, Note_off_c, 3, 62, 0
7, 57600, Note_on_c, 3, 60, 88
7, 57716, Note_off_c, 3, 60, 0
7, 57720, Note_on_c, 3, 62, 88
7, 57836, Note_off_c, 3, 62, 0
7, 57840, Note_on_c, 3, 64, 88
7, 57898, Note_off_c, 3, 64, 0
7, 57900, Note_on_c, 3, 62, 88
7, 57958, Note_off_c, 3, 62, 0
7, 57960, Note_on_c, 3, 65, 88
7, 58018, Note_off_c, 3, 65, 0
7, 58020, Note_on_c, 3, 64, 88
7, 58078, Note_off_c, 3, 64, 0
7, 58080, Note_on_c, 3, 62, 88
7, 58196, Note_off_c, 3, 62, 0
7, 58200, Note_on_c, 3, 64, 88
7, 58316, Note_off_c, 3, 64, 0
7, 58320, Note_on_c, 3, 65, 88
7, 58676, Note_off_c, 3, 65, 0
7, 58680, Note_on_c, 3, 64, 88
7, 58796, Note_off_c, 3, 64, 0
7, 58980, Note_on_c, 3, 70, 88
7, 59038, Note_off_c, 3, 70, 0
7, 59040, Note_on_c, 3, 69, 88
7, 59334, Note_off_c, 3, 69, 0
7, 59340, Note_on_c, 3, 73, 88
7, 59398, Note_off_c, 3, 73, 0
7, 59400, Note_on_c, 3, 76, 88
7, 59458, Note_off_c, 3, 76, 0
7, 59460, Note_on_c, 3, 74, 88
7, 59518, Note_off_c, 3, 74, 0
7, 59520, Note_on_c, 3, 76, 88
7, 59814, Note_off_c, 3, 76, 0
7, 59820, Note_on_c, 3, 69, 88
7, 59878, Note_off_c, 3, 69, 0
7, 59880, Note_on_c, 3, 73, 88
7, 59938, Note_off_c, 3, 73, 0
7, 59940, Note_on_c, 3, 74, 88
7, 59998, Note_off_c, 3, 74, 0
7, 60000, Note_on_c, 3, 76, 88
7, 60058, Note_off_c, 3, 76, 0
7, 60060, Note_on_c, 3, 73, 88
7, 60118, Note_off_c, 3, 73, 0
7, 60120, Note_on_c, 3, 74, 88
7, 60236, Note_off_c, 3, 74, 0
7, 60360, Note_on_c, 3, 69, 88
7, 60418, Note_off_c, 3, 69, 0
7, 60420, Note_on_c, 3, 67, 88
7, 60478, Note_off_c, 3, 67, 0
7, 60480, Note_on_c, 3, 65, 88
7, 60596, Note_off_c, 3, 65, 0
7, 60600, Note_on_c, 3, 70, 88
7, 60716, Note_off_c, 3, 70, 0
7, 60720, Note_on_c, 3, 69, 88
7, 60836, Note_off_c, 3, 69, 0
7, 60840, Note_on_c, 3, 67, 88
7, 61074, Note_off_c, 3, 67, 0
7, 61080, Note_on_c, 3, 65, 88
7, 61138, Note_off_c, 3, 65, 0
7, 61140, Note_on_c, 3, 64, 88
7, 61198, Note_off_c, 3, 64, 0
7, 61200, Note_on_c, 3, 65, 88
7, 61258, Note_off_c, 3, 65, 0
7, 61260, Note_on_c, 3, 67, 88
7, 61318, Note_off_c, 3, 67, 0
7, 61320, Note_on_c, 3, 69, 88
7, 61378, Note_off_c, 3, 69, 0
7, 61380, Note_on_c, 3, 65, 88
7, 61438, Note_off_c, 3, 65, 0
7, 61440, Note_on_c, 3, 62, 88
7, 61674, Note_off_c, 3, 62, 0
7, 64440, Note_on_c, 3, 69, 88
7, 64498, Note_off_c, 3, 69, 0
7, 64500, Note_on_c, 3, 71, 88
7, 64558, Note_off_c, 3, 71, 0
7, 64560, Note_on_c, 3, 69, 88
7, 64676, Note_off_c, 3, 69, 0
7, 64680, Note_on_c, 3, 67, 88
7, 64796, Note_off_c, 3, 67, 0
7, 64800, Note_on_c, 3, 65, 88
7, 64913, Note_off_c, 3, 65, 0
7, 64920, Note_on_c, 3, 65, 88
7, 64978, Note_off_c, 3, 65, 0
7, 64980, Note_on_c, 3, 67, 88
7, 65038, Note_off_c, 3, 67, 0
7, 65040, Note_on_c, 3, 65, 88
7, 65156, Note_off_c, 3, 65, 0
7, 65160, Note_on_c, 3, 64, 88
7, 65276, Note_off_c, 3, 64, 0
7, 65280, Note_on_c, 3, 62, 88
7, 65338, Note_off_c, 3, 62, 0
7, 65340, Note_on_c, 3, 64, 88
7, 65398, Note_off_c, 3, 64, 0
7, 65400, Note_on_c, 3, 65, 88
7, 65458, Note_off_c, 3, 65, 0
7, 65460, Note_on_c, 3, 64, 88
7, 65518, Note_off_c, 3, 64, 0
7, 65520, Note_on_c, 3, 62, 88
7, 65636, Note_off_c, 3, 62, 0
7, 65640, Note_on_c, 3, 61, 88
7, 65756, Note_off_c, 3, 61, 0
7, 65760, Note_on_c, 3, 70, 88
7, 65876, Note_off_c, 3, 70, 0
7, 65880, Note_on_c, 3, 74, 88
7, 65996, Note_off_c, 3, 74, 0
7, 66120, Note_on_c, 3, 69, 88
7, 66236, Note_off_c, 3, 69, 0
7, 66240, Note_on_c, 3, 67, 88
7, 66298, Note_off_c, 3, 67, 0
7, 66300, Note_on_c, 3, 65, 88
7, 66358, Note_off_c, 3, 65, 0
7, 66360, Note_on_c, 3, 69, 88
7, 66418, Note_off_c, 3, 69, 0
7, 66420, Note_on_c, 3, 67, 88
7, 66478, Note_off_c, 3, 67, 0
7, 66480, Note_on_c, 3, 65, 88
7, 66538, Note_off_c, 3, 65, 0
7, 66540, Note_on_c, 3, 64, 88
7, 66598, Note_off_c, 3, 64, 0
7, 66600, Note_on_c, 3, 67, 88
7, 66658, Note_off_c, 3, 67, 0
7, 66660, Note_on_c, 3, 65, 88
7, 66718, Note_off_c, 3, 65, 0
7, 66720, Note_on_c, 3, 64, 88
7, 66836, Note_off_c, 3, 64, 0
7, 66840, Note_on_c, 3, 65, 88
7, 66956, Note_off_c, 3, 65, 0
7, 66960, Note_on_c, 3, 67, 88
7, 67194, Note_off_c, 3, 67, 0
7, 67200, Note_on_c, 3, 65, 88
7, 67434, Note_off_c, 3, 65, 0
7, 67440, Note_on_c, 3, 64, 88
7, 67556, Note_off_c, 3, 64, 0
7, 67560, Note_on_c, 3, 69, 88
7, 67735, Note_off_c, 3, 69, 0
7, 67740, Note_on_c, 3, 73, 88
7, 67798, Note_off_c, 3, 73, 0
7, 67800, Note_on_c, 3, 74, 88
7, 67916, Note_off_c, 3, 74, 0
7, 67920, Note_on_c, 3, 67, 88
7, 68036, Note_off_c, 3, 67, 0
7, 68040, Note_on_c, 3, 72, 88
7, 68218, Note_off_c, 3, 72, 0
7, 68220, Note_on_c, 3, 76, 88
7, 68278, Note_off_c, 3, 76, 0
7, 68280, Note_on_c, 3, 77, 88
7, 68396, Note_off_c, 3, 77, 0
7, 68400, Note_on_c, 3, 70, 88
7, 68694, Note_off_c, 3, 70, 0
7, 68700, Note_on_c, 3, 67, 88
7, 68758, Note_off_c, 3, 67, 0
7, 68760, Note_on_c, 3, 69, 88
7, 68818, Note_off_c, 3, 69, 0
7, 68820, Note_on_c, 3, 72, 88
7, 68878, Note_off_c, 3, 72, 0
7, 68880, Note_on_c, 3, 62, 88
7, 69114, Note_off_c, 3, 62, 0
7, 69120, Note_on_c, 3, 64, 88
7, 69236, Note_off_c, 3, 64, 0
7, 69240, Note_on_c, 3, 65, 88
7, 69474, Note_off_c, 3, 65, 0
7, 69480, Note_on_c, 3, 64, 88
7, 69596, Note_off_c, 3, 64, 0
7, 69600, Note_on_c, 3, 65, 88
7, 69716, Note_off_c, 3, 65, 0
7, 69720, Note_on_c, 3, 72, 88
7, 69778, Note_off_c, 3, 72, 0
7, 69780, Note_on_c, 3, 74, 88
7, 69838, Note_off_c, 3, 74, 0
7, 69840, Note_on_c, 3, 72, 88
7, 69956, Note_off_c, 3, 72, 0
7, 69960, Note_on_c, 3, 70, 88
7, 70076, Note_off_c, 3, 70, 0
7, 70080, Note_on_c, 3, 69, 88
7, 70193, Note_off_c, 3, 69, 0
7, 70200, Note_on_c, 3, 69, 88
7, 70258, Note_off_c, 3, 69, 0
7, 70260, Note_on_c, 3, 70, 88
7, 70318, Note_off_c, 3, 70, 0
7, 70320, Note_on_c, 3, 69, 88
7, 70436, Note_off_c, 3, 69, 0
7, 70440, Note_on_c, 3, 67, 88
7, 70556, Note_off_c, 3, 67, 0
7, 70560, Note_on_c, 3, 66, 88
7, 70618, Note_off_c, 3, 66, 0
7, 70620, Note_on_c, 3, 67, 88
7, 70678, Note_off_c, 3, 67, 0
7, 70680, Note_on_c, 3, 69, 88
7, 70738, Note_off_c, 3, 69, 0
7, 70740, Note_on_c, 3, 67, 88
7, 70798, Note_off_c, 3, 67, 0
7, 70800, Note_on_c, 3, 66, 88
7, 70916, Note_off_c, 3, 66, 0
7, 70920, Note_on_c, 3, 63, 88
7, 71036, Note_off_c, 3, 63, 0
7, 71040, Note_on_c, 3, 74, 88
7, 71156, Note_off_c, 3, 74, 0
7, 71160, Note_on_c, 3, 78, 88
7, 71276, Note_off_c, 3, 78, 0
7, 71400, Note_on_c, 3, 72, 88
7, 71516, Note_off_c, 3, 72, 0
7, 71520, Note_on_c, 3, 70, 88
7, 71578, Note_off_c, 3, 70, 0
7, 71580, Note_on_c, 3, 69, 88
7, 71638, Note_off_c, 3, 69, 0
7, 71640, Note_on_c, 3, 72, 88
7, 71698, Note_off_c, 3, 72, 0
7, 71700, Note_on_c, 3, 70, 88
7, 71758, Note_off_c, 3, 70, 0
7, 71760, Note_on_c, 3, 69, 88
7, 71818, Note_off_c, 3, 69, 0
7, 71820, Note_on_c, 3, 67, 88
7, 71878, Note_off_c, 3, 67, 0
7, 71880, Note_on_c, 3, 70, 88
7, 71938, Note_off_c, 3, 70, 0
7, 71940, Note_on_c, 3, 69, 88
7, 71998, Note_off_c, 3, 69, 0
7, 72000, Note_on_c, 3, 67, 88
7, 72116, Note_off_c, 3, 67, 0
7, 73080, Note_on_c, 3, 69, 88
7, 73138, Note_off_c, 3, 69, 0
7, 73140, Note_on_c, 3, 67, 88
7, 73198, Note_off_c, 3, 67, 0
7, 73200, Note_on_c, 3, 69, 88
7, 73316, Note_off_c, 3, 69, 0
7, 73320, Note_on_c, 3, 71, 88
7, 73436, Note_off_c, 3, 71, 0
7, 73440, Note_on_c, 3, 73, 88
7, 73553, Note_off_c, 3, 73, 0
7, 73560, Note_on_c, 3, 73, 88
7, 73618, Note_off_c, 3, 73, 0
7, 73620, Note_on_c, 3, 71, 88
7, 73678, Note_off_c, 3, 71, 0
7, 73680, Note_on_c, 3, 73, 88
7, 73796, Note_off_c, 3, 73, 0
7, 73800, Note_on_c, 3, 74, 88
7, 73916, Note_off_c, 3, 74, 0
7, 73920, Note_on_c, 3, 76, 88
7, 73978, Note_off_c, 3, 76, 0
7, 73980, Note_on_c, 3, 74, 88
7, 74038, Note_off_c, 3, 74, 0
7, 74040, Note_on_c, 3, 73, 88
7, 74098, Note_off_c, 3, 73, 0
7, 74100, Note_on_c, 3, 74, 88
7, 74158, Note_off_c, 3, 74, 0
7, 74160, Note_on_c, 3, 76, 88
7, 74276, Note_off_c, 3, 76, 0
7, 74280, Note_on_c, 3, 77, 88
7, 74396, Note_off_c, 3, 77, 0
7, 74400, Note_on_c, 3, 67, 88
7, 74516, Note_off_c, 3, 67, 0
7, 74520, Note_on_c, 3, 64, 88
7, 74636, Note_off_c, 3, 64, 0
7, 74760, Note_on_c, 3, 69, 88
7, 74876, Note_off_c, 3, 69, 0
7, 74880, Note_on_c, 3, 69, 88
7, 74996, Note_off_c, 3, 69, 0
7, 75000, Note_on_c, 3, 74, 88
7, 75116, Note_off_c, 3, 74, 0
7, 75120, Note_on_c, 3, 69, 88
7, 75236, Note_off_c, 3, 69, 0
7, 75240, Note_on_c, 3, 67, 88
7, 75356, Note_off_c, 3, 67, 0
7, 75360, Note_on_c, 3, 65, 88
7, 75476, Note_off_c, 3, 65, 0
7, 75480, Note_on_c, 3, 62, 88
7, 75596, Note_off_c, 3, 62, 0
7, 75600, Note_on_c, 3, 65, 88
7, 75713, Note_off_c, 3, 65, 0
7, 75720, Note_on_c, 3, 65, 88
7, 75836, Note_off_c, 3, 65, 0
7, 75840, Note_on_c, 3, 64, 88
7, 76074, Note_off_c, 3, 64, 0
7, 76320, Note_on_c, 3, 60, 88
7, 76554, Note_off_c, 3, 60, 0
7, 76800, Note_on_c, 3, 60, 88
7, 77034, Note_off_c, 3, 60, 0
7, 77280, Note_on_c, 3, 59, 88
7, 77514, Note_off_c, 3, 59, 0
7, 77880, Note_on_c, 3, 59, 88
7, 77938, Note_off_c, 3, 59, 0
7, 77940, Note_on_c, 3, 60, 88
7, 77998, Note_off_c, 3, 60, 0
7, 78000, Note_on_c, 3, 62, 88
7, 78058, Note_off_c, 3, 62, 0
7, 78060, Note_on_c, 3, 64, 88
7, 78118, Note_off_c, 3, 64, 0
7, 78120, Note_on_c, 3, 66, 88
7, 78178, Note_off_c, 3, 66, 0
7, 78180, Note_on_c, 3, 68, 88
7, 78238, Note_off_c, 3, 68, 0
7, 78240, Note_on_c, 3, 66, 88
7, 78474, Note_off_c, 3, 66, 0
7, 78600, Note_on_c, 3, 64, 88
7, 78716, Note_off_c, 3, 64, 0
7, 78720, Note_on_c, 3, 64, 88
7, 78836, Note_off_c, 3, 64, 0
7, 78840, Note_on_c, 3, 65, 88
7, 78956, Note_off_c, 3, 65, 0
7, 78960, Note_on_c, 3, 64, 88
7, 79193, Note_off_c, 3, 64, 0
7, 79200, Note_on_c, 3, 64, 88
7, 79434, Note_off_c, 3, 64, 0
7, 79560, Note_on_c, 3, 64, 88
7, 79676, Note_off_c, 3, 64, 0
7, 79680, Note_on_c, 3, 57, 88
7, 79796, Note_off_c, 3, 57, 0
7, 79800, Note_on_c, 3, 69, 88
7, 79858, Note_off_c, 3, 69, 0
7, 79860, Note_on_c, 3, 70, 88
7, 79918, Note_off_c, 3, 70, 0
7, 79920, Note_on_c, 3, 69, 88
7, 80036, Note_off_c, 3, 69, 0
7, 80040, Note_on_c, 3, 67, 88
7, 80156, Note_off_c, 3, 67, 0
7, 80160, Note_on_c, 3, 65, 88
7, 80273, Note_off_c, 3, 65, 0
7, 80280, Note_on_c, 3, 65, 88
7, 80338, Note_off_c, 3, 65, 0
7, 80340, Note_on_c, 3, 67, 88
7, 80398, Note_off_c, 3, 67, 0
7, 80400, Note_on_c, 3, 65, 88
7, 80516, Note_off_c, 3, 65, 0
7, 80520, Note_on_c, 3, 64, 88
7, 80636, Note_off_c, 3, 64, 0
7, 80640, Note_on_c, 3, 62, 88
7, 80756, Note_off_c, 3, 62, 0
7, 80760, Note_on_c, 3, 57, 88
7, 80818, Note_off_c, 3, 57, 0
7, 80820, Note_on_c, 3, 59, 88
7, 80878, Note_off_c, 3, 59, 0
7, 80880, Note_on_c, 3, 61, 88
7, 80996, Note_off_c, 3, 61, 0
7, 81000, Note_on_c, 3, 62, 88
7, 81116, Note_off_c, 3, 62, 0
7, 81120, Note_on_c, 3, 64, 88
7, 81354, Note_off_c, 3, 64, 0
7, 81480, Note_on_c, 3, 62, 88
7, 81596, Note_off_c, 3, 62, 0
7, 81600, Note_on_c, 3, 67, 88
7, 81834, Note_off_c, 3, 67, 0
7, 81960, Note_on_c, 3, 65, 88
7, 82018, Note_off_c, 3, 65, 0
7, 82020, Note_on_c, 3, 64, 88
7, 82078, Note_off_c, 3, 64, 0
7, 82080, Note_on_c, 3, 62, 88
7, 82314, Note_off_c, 3, 62, 0
7, 82440, Note_on_c, 3, 62, 88
7, 82498, Note_off_c, 3, 62, 0
7, 82500, Note_on_c, 3, 64, 88
7, 82558, Note_off_c, 3, 64, 0
7, 82560, Note_on_c, 3, 65, 88
7, 82676, Note_off_c, 3, 65, 0
7, 82680, Note_on_c, 3, 64, 88
7, 82738, Note_off_c, 3, 64, 0
7, 82740, Note_on_c, 3, 62, 88
7, 82798, Note_off_c, 3, 62, 0
7, 82800, Note_on_c, 3, 64, 88
7, 82916, Note_off_c, 3, 64, 0
7, 82920, Note_on_c, 3, 65, 88
7, 83036, Note_off_c, 3, 65, 0
7, 83040, Note_on_c, 3, 64, 88
7, 83510, Note_off_c, 3, 64, 0
7, 83510, End_track
8, 0, Start_track
8, 0, Title_t, "Track 5"
8, 0, Program_c, 4, 6
8, 82680, Note_on_c, 4, 61, 88
8, 82738, Note_off_c, 4, 61, 0
8, 82740, Note_on_c, 4, 59, 88
8, 82798, Note_off_c, 4, 59, 0
8, 82800, Note_on_c, 4, 61, 88
8, 82916, Note_off_c, 4, 61, 0
8, 82920, Note_on_c, 4, 62, 88
8, 83036, Note_off_c, 4, 62, 0
8, 83040, Note_on_c, 4, 64, 88
8, 83510, Note_off_c, 4, 64, 0
8, 83510, End_track
9, 0, Start_track
9, 0, Title_t, "Track 6"
9, 0, Program_c, 5, 6
9, 9720, Note_on_c, 5, 52, 88
9, 9778, Note_off_c, 5, 52, 0
9, 9780, Note_on_c, 5, 51, 88
9, 9838, Note_off_c, 5, 51, 0
9, 9840, Note_on_c, 5, 52, 88
9, 9956, Note_off_c, 5, 52, 0
9, 9960, Note_on_c, 5, 54, 88
9, 10076, Note_off_c, 5, 54, 0
9, 10080, Note_on_c, 5, 55, 88
9, 10193, Note_off_c, 5, 55, 0
9, 10200, Note_on_c, 5, 55, 88
9, 10258, Note_off_c, 5, 55, 0
9, 10260, Note_on_c, 5, 54, 88
9, 10318, Note_off_c, 5, 54, 0
9, 10320, Note_on_c, 5, 55, 88
9, 10436, Note_off_c, 5, 55, 0
9, 10440, Note_on_c, 5, 57, 88
9, 10556, Note_off_c, 5, 57, 0
9, 10560, Note_on_c, 5, 59, 88
9, 10618, Note_off_c, 5, 59, 0
9, 10620, Note_on_c, 5, 57, 88
9, 10678, Note_off_c, 5, 57, 0
9, 10680, Note_on_c, 5, 55, 88
9, 10738, Note_off_c, 5, 55, 0
9, 10740, Note_on_c, 5, 57, 88
9, 10798, Note_off_c, 5, 57, 0
9, 10800, Note_on_c, 5, 59, 88
9, 10916, Note_off_c, 5, 59, 0
9, 10920, Note_on_c, 5, 60, 88
9, 11036, Note_off_c, 5, 60, 0
9, 11040, Note_on_c, 5, 51, 88
9, 11156, Note_off_c, 5, 51, 0
9, 11160, Note_on_c, 5, 47, 88
9, 11276, Note_off_c, 5, 47, 0
9, 11400, Note_on_c, 5, 52, 88
9, 11516, Note_off_c, 5, 52, 0
9, 11520, Note_on_c, 5, 54, 88
9, 11578, Note_off_c, 5, 54, 0
9, 11580, Note_on_c, 5, 55, 88
9, 11638, Note_off_c, 5, 55, 0
9, 11640, Note_on_c, 5, 52, 88
9, 11698, Note_off_c, 5, 52, 0
9, 11700, Note_on_c, 5, 54, 88
9, 11758, Note_off_c, 5, 54, 0
9, 11760, Note_on_c, 5, 55, 88
9, 11818, Note_off_c, 5, 55, 0
9, 11820, Note_on_c, 5, 57, 88
9, 11878, Note_off_c, 5, 57, 0
9, 11880, Note_on_c, 5, 54, 88
9, 11938, Note_off_c, 5, 54, 0
9, 11940, Note_on_c, 5, 55, 88
9, 11998, Note_off_c, 5, 55, 0
9, 12000, Note_on_c, 5, 57, 88
9, 12116, Note_off_c, 5, 57, 0
9, 12120, Note_on_c, 5, 55, 88
9, 12236, Note_off_c, 5, 55, 0
9, 12240, Note_on_c, 5, 54, 88
9, 12356, Note_off_c, 5, 54, 0
9, 12360, Note_on_c, 5, 59, 88
9, 12476, Note_off_c, 5, 59, 0
9, 12480, Note_on_c, 5, 52, 88
9, 12714, Note_off_c, 5, 52, 0
9, 12720, Note_on_c, 5, 59, 88
9, 12836, Note_off_c, 5, 59, 0
9, 12840, Note_on_c, 5, 57, 88
9, 12956, Note_off_c, 5, 57, 0
9, 12960, Note_on_c, 5, 56, 88
9, 13076, Note_off_c, 5, 56, 0
9, 13080, Note_on_c, 5, 52, 88
9, 13196, Note_off_c, 5, 52, 0
9, 13200, Note_on_c, 5, 54, 88
9, 13316, Note_off_c, 5, 54, 0
9, 13320, Note_on_c, 5, 56, 88
9, 13436, Note_off_c, 5, 56, 0
9, 13440, Note_on_c, 5, 57, 88
9, 13556, Note_off_c, 5, 57, 0
9, 14040, Note_on_c, 5, 57, 88
9, 14156, Note_off_c, 5, 57, 0
9, 14160, Note_on_c, 5, 59, 88
9, 14276, Note_off_c, 5, 59, 0
9, 14280, Note_on_c, 5, 61, 88
9, 14396, Note_off_c, 5, 61, 0
9, 14400, Note_on_c, 5, 62, 88
9, 14516, Note_off_c, 5, 62, 0
9, 15000, Note_on_c, 5, 59, 88
9, 15116, Note_off_c, 5, 59, 0
9, 15120, Note_on_c, 5, 57, 88
9, 15354, Note_off_c, 5, 57, 0
9, 15360, Note_on_c, 5, 55, 88
9, 15950, Note_off_c, 5, 55, 0
9, 15960, Note_on_c, 5, 57, 88
9, 16194, Note_off_c, 5, 57, 0
9, 16200, Note_on_c, 5, 50, 88
9, 16436, Note_off_c, 5, 50, 0
9, 16440, Note_on_c, 5, 67, 88
9, 16498, Note_off_c, 5, 67, 0
9, 16500, Note_on_c, 5, 69, 88
9, 16558, Note_off_c, 5, 69, 0
9, 16560, Note_on_c, 5, 67, 88
9, 16676, Note_off_c, 5, 67, 0
9, 16680, Note_on_c, 5, 65, 88
9, 16796, Note_off_c, 5, 65, 0
9, 16800, Note_on_c, 5, 64, 88
9, 16913, Note_off_c, 5, 64, 0
9, 16920, Note_on_c, 5, 64, 88
9, 16978, Note_off_c, 5, 64, 0
9, 16980, Note_on_c, 5, 65, 88
9, 17038, Note_off_c, 5, 65, 0
9, 17040, Note_on_c, 5, 64, 88
9, 17156, Note_off_c, 5, 64, 0
9, 17160, Note_on_c, 5, 62, 88
9, 17276, Note_off_c, 5, 62, 0
9, 17280, Note_on_c, 5, 60, 88
9, 17338, Note_off_c, 5, 60, 0
9, 17340, Note_on_c, 5, 62, 88
9, 17398, Note_off_c, 5, 62, 0
9, 17400, Note_on_c, 5, 64, 88
9, 17458, Note_off_c, 5, 64, 0
9, 17460, Note_on_c, 5, 62, 88
9, 17518, Note_off_c, 5, 62, 0
9, 17520, Note_on_c, 5, 60, 88
9, 17636, Note_off_c, 5, 60, 0
9, 17640, Note_on_c, 5, 58, 88
9, 17756, Note_off_c, 5, 58, 0
9, 17760, Note_on_c, 5, 69, 88
9, 17876, Note_off_c, 5, 69, 0
9, 17880, Note_on_c, 5, 73, 88
9, 17996, Note_off_c, 5, 73, 0
9, 18120, Note_on_c, 5, 67, 88
9, 18236, Note_off_c, 5, 67, 0
9, 18240, Note_on_c, 5, 65, 88
9, 18298, Note_off_c, 5, 65, 0
9, 18300, Note_on_c, 5, 64, 88
9, 18358, Note_off_c, 5, 64, 0
9, 18360, Note_on_c, 5, 67, 88
9, 18418, Note_off_c, 5, 67, 0
9, 18420, Note_on_c, 5, 65, 88
9, 18478, Note_off_c, 5, 65, 0
9, 18480, Note_on_c, 5, 64, 88
9, 18538, Note_off_c, 5, 64, 0
9, 18540, Note_on_c, 5, 62, 88
9, 18598, Note_off_c, 5, 62, 0
9, 18600, Note_on_c, 5, 65, 88
9, 18658, Note_off_c, 5, 65, 0
9, 18660, Note_on_c, 5, 64, 88
9, 18718, Note_off_c, 5, 64, 0
9, 18720, Note_on_c, 5, 62, 88
9, 18836, Note_off_c, 5, 62, 0
9, 18840, Note_on_c, 5, 64, 88
9, 18956, Note_off_c, 5, 64, 0
9, 18960, Note_on_c, 5, 65, 88
9, 19018, Note_off_c, 5, 65, 0
9, 19020, Note_on_c, 5, 64, 88
9, 19078, Note_off_c, 5, 64, 0
9, 19080, Note_on_c, 5, 62, 88
9, 19138, Note_off_c, 5, 62, 0
9, 19140, Note_on_c, 5, 60, 88
9, 19198, Note_off_c, 5, 60, 0
9, 19200, Note_on_c, 5, 58, 88
9, 19316, Note_off_c, 5, 58, 0
9, 19320, Note_on_c, 5, 57, 88
9, 19378, Note_off_c, 5, 57, 0
9, 19380, Note_on_c, 5, 55, 88
9, 19438, Note_off_c, 5, 55, 0
9, 19440, Note_on_c, 5, 57, 88
9, 19793, Note_off_c, 5, 57, 0
9, 19800, Note_on_c, 5, 57, 88
9, 19916, Note_off_c, 5, 57, 0
9, 19920, Note_on_c, 5, 59, 88
9, 20036, Note_off_c, 5, 59, 0
9, 20040, Note_on_c, 5, 61, 88
9, 20156, Note_off_c, 5, 61, 0
9, 20160, Note_on_c, 5, 62, 88
9, 20276, Note_off_c, 5, 62, 0
9, 22680, Note_on_c, 5, 59, 88
9, 22738, Note_off_c, 5, 59, 0
9, 22740, Note_on_c, 5, 60, 88
9, 22798, Note_off_c, 5, 60, 0
9, 22800, Note_on_c, 5, 59, 88
9, 22916, Note_off_c, 5, 59, 0
9, 22920, Note_on_c, 5, 57, 88
9, 23036, Note_off_c, 5, 57, 0
9, 23040, Note_on_c, 5, 56, 88
9, 23393, Note_off_c, 5, 56, 0
9, 23400, Note_on_c, 5, 52, 88
9, 23516, Note_off_c, 5, 52, 0
9, 23520, Note_on_c, 5, 50, 88
9, 23636, Note_off_c, 5, 50, 0
9, 23640, Note_on_c, 5, 53, 88
9, 23698, Note_off_c, 5, 53, 0
9, 23700, Note_on_c, 5, 52, 88
9, 23758, Note_off_c, 5, 52, 0
9, 23760, Note_on_c, 5, 50, 88
9, 23876, Note_off_c, 5, 50, 0
9, 23880, Note_on_c, 5, 48, 88
9, 23996, Note_off_c, 5, 48, 0
9, 24000, Note_on_c, 5, 47, 88
9, 24116, Note_off_c, 5, 47, 0
9, 24120, Note_on_c, 5, 48, 88
9, 24236, Note_off_c, 5, 48, 0
9, 24240, Note_on_c, 5, 50, 88
9, 24356, Note_off_c, 5, 50, 0
9, 24360, Note_on_c, 5, 47, 88
9, 24476, Note_off_c, 5, 47, 0
9, 24480, Note_on_c, 5, 52, 88
9, 24833, Note_off_c, 5, 52, 0
9, 24840, Note_on_c, 5, 53, 88
9, 25076, Note_off_c, 5, 53, 0
9, 25080, Note_on_c, 5, 50, 88
9, 25196, Note_off_c, 5, 50, 0
9, 25200, Note_on_c, 5, 52, 88
9, 25316, Note_off_c, 5, 52, 0
9, 25320, Note_on_c, 5, 50, 88
9, 25436, Note_off_c, 5, 50, 0
9, 25440, Note_on_c, 5, 48, 88
9, 25556, Note_off_c, 5, 48, 0
9, 26040, Note_on_c, 5, 57, 88
9, 26098, Note_off_c, 5, 57, 0
9, 26100, Note_on_c, 5, 56, 88
9, 26158, Note_off_c, 5, 56, 0
9, 26160, Note_on_c, 5, 57, 88
9, 26276, Note_off_c, 5, 57, 0
9, 26280, Note_on_c, 5, 59, 88
9, 26396, Note_off_c, 5, 59, 0
9, 26400, Note_on_c, 5, 60, 88
9, 26513, Note_off_c, 5, 60, 0
9, 26520, Note_on_c, 5, 60, 88
9, 26578, Note_off_c, 5, 60, 0
9, 26580, Note_on_c, 5, 59, 88
9, 26638, Note_off_c, 5, 59, 0
9, 26640, Note_on_c, 5, 60, 88
9, 26756, Note_off_c, 5, 60, 0
9, 26760, Note_on_c, 5, 62, 88
9, 26876, Note_off_c, 5, 62, 0
9, 26880, Note_on_c, 5, 64, 88
9, 26938, Note_off_c, 5, 64, 0
9, 26940, Note_on_c, 5, 62, 88
9, 26998, Note_off_c, 5, 62, 0
9, 27000, Note_on_c, 5, 60, 88
9, 27058, Note_off_c, 5, 60, 0
9, 27060, Note_on_c, 5, 62, 88
9, 27118, Note_off_c, 5, 62, 0
9, 27120, Note_on_c, 5, 64, 88
9, 27236, Note_off_c, 5, 64, 0
9, 27240, Note_on_c, 5, 65, 88
9, 27356, Note_off_c, 5, 65, 0
9, 27360, Note_on_c, 5, 56, 88
9, 27476, Note_off_c, 5, 56, 0
9, 27480, Note_on_c, 5, 52, 88
9, 27596, Note_off_c, 5, 52, 0
9, 27720, Note_on_c, 5, 57, 88
9, 27836, Note_off_c, 5, 57, 0
9, 27840, Note_on_c, 5, 59, 88
9, 27898, Note_off_c, 5, 59, 0
9, 27900, Note_on_c, 5, 60, 88
9, 27958, Note_off_c, 5, 60, 0
9, 27960, Note_on_c, 5, 57, 88
9, 28018, Note_off_c, 5, 57, 0
9, 28020, Note_on_c, 5, 59, 88
9, 28078, Note_off_c, 5, 59, 0
9, 28080, Note_on_c, 5, 60, 88
9, 28138, Note_off_c, 5, 60, 0
9, 28140, Note_on_c, 5, 62, 88
9, 28198, Note_off_c, 5, 62, 0
9, 28200, Note_on_c, 5, 59, 88
9, 28258, Note_off_c, 5, 59, 0
9, 28260, Note_on_c, 5, 60, 88
9, 28318, Note_off_c, 5, 60, 0
9, 28320, Note_on_c, 5, 62, 88
9, 28436, Note_off_c, 5, 62, 0
9, 28440, Note_on_c, 5, 60, 88
9, 28556, Note_off_c, 5, 60, 0
9, 28560, Note_on_c, 5, 59, 88
9, 28676, Note_off_c, 5, 59, 0
9, 28680, Note_on_c, 5, 64, 88
9, 28796, Note_off_c, 5, 64, 0
9, 28800, Note_on_c, 5, 57, 88
9, 29390, Note_off_c, 5, 57, 0
9, 29400, Note_on_c, 5, 55, 88
9, 29458, Note_off_c, 5, 55, 0
9, 29460, Note_on_c, 5, 54, 88
9, 29518, Note_off_c, 5, 54, 0
9, 29520, Note_on_c, 5, 55, 88
9, 29636, Note_off_c, 5, 55, 0
9, 29640, Note_on_c, 5, 57, 88
9, 29756, Note_off_c, 5, 57, 0
9, 29760, Note_on_c, 5, 59, 88
9, 29876, Note_off_c, 5, 59, 0
9, 29880, Note_on_c, 5, 64, 88
9, 30114, Note_off_c, 5, 64, 0
9, 30120, Note_on_c, 5, 63, 88
9, 30236, Note_off_c, 5, 63, 0
9, 30240, Note_on_c, 5, 64, 88
9, 30356, Note_off_c, 5, 64, 0
9, 34200, Note_on_c, 5, 57, 88
9, 34258, Note_off_c, 5, 57, 0
9, 34260, Note_on_c, 5, 56, 88
9, 34318, Note_off_c, 5, 56, 0
9, 34320, Note_on_c, 5, 57, 88
9, 34436, Note_off_c, 5, 57, 0
9, 34440, Note_on_c, 5, 59, 88
9, 34556, Note_off_c, 5, 59, 0
9, 34560, Note_on_c, 5, 60, 88
9, 34673, Note_off_c, 5, 60, 0
9, 34680, Note_on_c, 5, 60, 88
9, 34738, Note_off_c, 5, 60, 0
9, 34740, Note_on_c, 5, 59, 88
9, 34798, Note_off_c, 5, 59, 0
9, 34800, Note_on_c, 5, 60, 88
9, 34916, Note_off_c, 5, 60, 0
9, 34920, Note_on_c, 5, 62, 88
9, 35036, Note_off_c, 5, 62, 0
9, 35040, Note_on_c, 5, 64, 88
9, 35098, Note_off_c, 5, 64, 0
9, 35100, Note_on_c, 5, 62, 88
9, 35158, Note_off_c, 5, 62, 0
9, 35160, Note_on_c, 5, 60, 88
9, 35218, Note_off_c, 5, 60, 0
9, 35220, Note_on_c, 5, 62, 88
9, 35278, Note_off_c, 5, 62, 0
9, 35280, Note_on_c, 5, 64, 88
9, 35396, Note_off_c, 5, 64, 0
9, 35400, Note_on_c, 5, 65, 88
9, 35516, Note_off_c, 5, 65, 0
9, 35520, Note_on_c, 5, 56, 88
9, 35636, Note_off_c, 5, 56, 0
9, 35640, Note_on_c, 5, 52, 88
9, 35756, Note_off_c, 5, 52, 0
9, 35880, Note_on_c, 5, 57, 88
9, 35996, Note_off_c, 5, 57, 0
9, 36000, Note_on_c, 5, 59, 88
9, 36058, Note_off_c, 5, 59, 0
9, 36060, Note_on_c, 5, 60, 88
9, 36118, Note_off_c, 5, 60, 0
9, 36120, Note_on_c, 5, 57, 88
9, 36178, Note_off_c, 5, 57, 0
9, 36180, Note_on_c, 5, 59, 88
9, 36238, Note_off_c, 5, 59, 0
9, 36240, Note_on_c, 5, 60, 88
9, 36298, Note_off_c, 5, 60, 0
9, 36300, Note_on_c, 5, 62, 88
9, 36358, Note_off_c, 5, 62, 0
9, 36360, Note_on_c, 5, 59, 88
9, 36418, Note_off_c, 5, 59, 0
9, 36420, Note_on_c, 5, 60, 88
9, 36478, Note_off_c, 5, 60, 0
9, 36480, Note_on_c, 5, 62, 88
9, 36596, Note_off_c, 5, 62, 0
9, 36600, Note_on_c, 5, 60, 88
9, 36716, Note_off_c, 5, 60, 0
9, 36720, Note_on_c, 5, 59, 88
9, 36836, Note_off_c, 5, 59, 0
9, 36840, Note_on_c, 5, 64, 88
9, 36956, Note_off_c, 5, 64, 0
9, 36960, Note_on_c, 5, 57, 88
9, 37313, Note_off_c, 5, 57, 0
9, 37320, Note_on_c, 5, 55, 88
9, 37556, Note_off_c, 5, 55, 0
9, 37560, Note_on_c, 5, 53, 88
9, 37618, Note_off_c, 5, 53, 0
9, 37620, Note_on_c, 5, 52, 88
9, 37678, Note_off_c, 5, 52, 0
9, 37680, Note_on_c, 5, 53, 88
9, 38033, Note_off_c, 5, 53, 0
9, 38040, Note_on_c, 5, 52, 88
9, 38098, Note_off_c, 5, 52, 0
9, 38100, Note_on_c, 5, 50, 88
9, 38158, Note_off_c, 5, 50, 0
9, 38160, Note_on_c, 5, 52, 88
9, 38634, Note_off_c, 5, 52, 0
9, 38640, Note_on_c, 5, 50, 88
9, 38934, Note_off_c, 5, 50, 0
9, 38940, Note_on_c, 5, 48, 88
9, 38998, Note_off_c, 5, 48, 0
9, 39000, Note_on_c, 5, 50, 88
9, 39058, Note_off_c, 5, 50, 0
9, 39060, Note_on_c, 5, 52, 88
9, 39118, Note_off_c, 5, 52, 0
9, 39120, Note_on_c, 5, 53, 88
9, 39178, Note_off_c, 5, 53, 0
9, 39180, Note_on_c, 5, 55, 88
9, 39238, Note_off_c, 5, 55, 0
9, 39240, Note_on_c, 5, 57, 88
9, 39298, Note_off_c, 5, 57, 0
9, 39300, Note_on_c, 5, 59, 88
9, 39358, Note_off_c, 5, 59, 0
9, 39360, Note_on_c, 5, 60, 88
9, 40128, Note_off_c, 5, 60, 0
9, 40140, Note_on_c, 5, 64, 88
9, 40198, Note_off_c, 5, 64, 0
9, 40200, Note_on_c, 5, 62, 88
9, 40258, Note_off_c, 5, 62, 0
9, 40260, Note_on_c, 5, 60, 88
9, 40318, Note_off_c, 5, 60, 0
9, 40320, Note_on_c, 5, 59, 88
9, 40436, Note_off_c, 5, 59, 0
9, 40440, Note_on_c, 5, 64, 88
9, 40498, Note_off_c, 5, 64, 0
9, 40500, Note_on_c, 5, 62, 88
9, 40558, Note_off_c, 5, 62, 0
9, 40560, Note_on_c, 5, 60, 88
9, 40618, Note_off_c, 5, 60, 0
9, 40620, Note_on_c, 5, 59, 88
9, 40678, Note_off_c, 5, 59, 0
9, 40680, Note_on_c, 5, 57, 88
9, 40738, Note_off_c, 5, 57, 0
9, 40740, Note_on_c, 5, 59, 88
9, 40798, Note_off_c, 5, 59, 0
9, 40800, Note_on_c, 5, 60, 88
9, 41396, Note_off_c, 5, 60, 0
9, 41400, Note_on_c, 5, 55, 88
9, 41634, Note_off_c, 5, 55, 0
9, 41640, Note_on_c, 5, 62, 88
9, 41874, Note_off_c, 5, 62, 0
9, 41880, Note_on_c, 5, 64, 88
9, 41996, Note_off_c, 5, 64, 0
9, 42000, Note_on_c, 5, 62, 88
9, 42116, Note_off_c, 5, 62, 0
9, 42120, Note_on_c, 5, 60, 88
9, 42236, Note_off_c, 5, 60, 0
9, 42240, Note_on_c, 5, 55, 88
9, 42474, Note_off_c, 5, 55, 0
9, 43080, Note_on_c, 5, 55, 88
9, 43196, Note_off_c, 5, 55, 0
9, 43200, Note_on_c, 5, 57, 88
9, 43258, Note_off_c, 5, 57, 0
9, 43260, Note_on_c, 5, 59, 88
9, 43318, Note_off_c, 5, 59, 0
9, 43320, Note_on_c, 5, 55, 88
9, 43378, Note_off_c, 5, 55, 0
9, 43380, Note_on_c, 5, 57, 88
9, 43438, Note_off_c, 5, 57, 0
9, 43440, Note_on_c, 5, 59, 88
9, 43498, Note_off_c, 5, 59, 0
9, 43500, Note_on_c, 5, 60, 88
9, 43558, Note_off_c, 5, 60, 0
9, 43560, Note_on_c, 5, 57, 88
9, 43618, Note_off_c, 5, 57, 0
9, 43620, Note_on_c, 5, 59, 88
9, 43678, Note_off_c, 5, 59, 0
9, 43680, Note_on_c, 5, 60, 88
9, 43796, Note_off_c, 5, 60, 0
9, 43800, Note_on_c, 5, 59, 88
9, 43916, Note_off_c, 5, 59, 0
9, 43920, Note_on_c, 5, 57, 88
9, 44036, Note_off_c, 5, 57, 0
9, 44040, Note_on_c, 5, 62, 88
9, 44156, Note_off_c, 5, 62, 0
9, 44160, Note_on_c, 5, 55, 88
9, 44513, Note_off_c, 5, 55, 0
9, 44520, Note_on_c, 5, 60, 88
9, 44636, Note_off_c, 5, 60, 0
9, 44640, Note_on_c, 5, 62, 88
9, 44698, Note_off_c, 5, 62, 0
9, 44700, Note_on_c, 5, 53, 88
9, 44758, Note_off_c, 5, 53, 0
9, 44760, Note_on_c, 5, 55, 88
9, 44818, Note_off_c, 5, 55, 0
9, 44820, Note_on_c, 5, 57, 88
9, 44878, Note_off_c, 5, 57, 0
9, 44880, Note_on_c, 5, 59, 88
9, 44938, Note_off_c, 5, 59, 0
9, 44940, Note_on_c, 5, 60, 88
9, 44998, Note_off_c, 5, 60, 0
9, 45000, Note_on_c, 5, 62, 88
9, 45058, Note_off_c, 5, 62, 0
9, 45060, Note_on_c, 5, 59, 88
9, 45118, Note_off_c, 5, 59, 0
9, 45120, Note_on_c, 5, 55, 88
9, 45354, Note_off_c, 5, 55, 0
9, 46200, Note_on_c, 5, 57, 88
9, 46258, Note_off_c, 5, 57, 0
9, 46260, Note_on_c, 5, 58, 88
9, 46318, Note_off_c, 5, 58, 0
9, 46320, Note_on_c, 5, 57, 88
9, 46436, Note_off_c, 5, 57, 0
9, 46440, Note_on_c, 5, 55, 88
9, 46556, Note_off_c, 5, 55, 0
9, 46560, Note_on_c, 5, 53, 88
9, 46673, Note_off_c, 5, 53, 0
9, 46680, Note_on_c, 5, 53, 88
9, 46738, Note_off_c, 5, 53, 0
9, 46740, Note_on_c, 5, 55, 88
9, 46798, Note_off_c, 5, 55, 0
9, 46800, Note_on_c, 5, 53, 88
9, 46916, Note_off_c, 5, 53, 0
9, 46920, Note_on_c, 5, 52, 88
9, 47036, Note_off_c, 5, 52, 0
9, 47040, Note_on_c, 5, 50, 88
9, 47098, Note_off_c, 5, 50, 0
9, 47100, Note_on_c, 5, 52, 88
9, 47158, Note_off_c, 5, 52, 0
9, 47160, Note_on_c, 5, 53, 88
9, 47218, Note_off_c, 5, 53, 0
9, 47220, Note_on_c, 5, 52, 88
9, 47278, Note_off_c, 5, 52, 0
9, 47280, Note_on_c, 5, 50, 88
9, 47396, Note_off_c, 5, 50, 0
9, 47400, Note_on_c, 5, 48, 88
9, 47516, Note_off_c, 5, 48, 0
9, 47520, Note_on_c, 5, 59, 88
9, 47636, Note_off_c, 5, 59, 0
9, 47640, Note_on_c, 5, 62, 88
9, 47756, Note_off_c, 5, 62, 0
9, 47880, Note_on_c, 5, 57, 88
9, 47996, Note_off_c, 5, 57, 0
9, 48000, Note_on_c, 5, 55, 88
9, 48058, Note_off_c, 5, 55, 0
9, 48060, Note_on_c, 5, 53, 88
9, 48118, Note_off_c, 5, 53, 0
9, 48120, Note_on_c, 5, 57, 88
9, 48178, Note_off_c, 5, 57, 0
9, 48180, Note_on_c, 5, 55, 88
9, 48238, Note_off_c, 5, 55, 0
9, 48240, Note_on_c, 5, 53, 88
9, 48298, Note_off_c, 5, 53, 0
9, 48300, Note_on_c, 5, 52, 88
9, 48358, Note_off_c, 5, 52, 0
9, 48360, Note_on_c, 5, 55, 88
9, 48418, Note_off_c, 5, 55, 0
9, 48420, Note_on_c, 5, 53, 88
9, 48478, Note_off_c, 5, 53, 0
9, 48480, Note_on_c, 5, 52, 88
9, 48596, Note_off_c, 5, 52, 0
9, 48600, Note_on_c, 5, 53, 88
9, 48716, Note_off_c, 5, 53, 0
9, 48720, Note_on_c, 5, 55, 88
9, 48836, Note_off_c, 5, 55, 0
9, 48840, Note_on_c, 5, 50, 88
9, 48956, Note_off_c, 5, 50, 0
9, 48960, Note_on_c, 5, 57, 88
9, 49018, Note_off_c, 5, 57, 0
9, 49020, Note_on_c, 5, 59, 88
9, 49078, Note_off_c, 5, 59, 0
9, 49080, Note_on_c, 5, 57, 88
9, 49138, Note_off_c, 5, 57, 0
9, 49140, Note_on_c, 5, 59, 88
9, 49198, Note_off_c, 5, 59, 0
9, 49200, Note_on_c, 5, 60, 88
9, 49222, Note_off_c, 5, 60, 0
9, 49223, Note_on_c, 5, 59, 88
9, 49244, Note_off_c, 5, 59, 0
9, 49245, Note_on_c, 5, 60, 88
9, 49267, Note_off_c, 5, 60, 0
9, 49268, Note_on_c, 5, 59, 88
9, 49289, Note_off_c, 5, 59, 0
9, 49290, Note_on_c, 5, 60, 88
9, 49312, Note_off_c, 5, 60, 0
9, 49313, Note_on_c, 5, 59, 88
9, 49334, Note_off_c, 5, 59, 0
9, 49335, Note_on_c, 5, 60, 88
9, 49357, Note_off_c, 5, 60, 0
9, 49358, Note_on_c, 5, 59, 88
9, 49379, Note_off_c, 5, 59, 0
9, 49380, Note_on_c, 5, 57, 88
9, 49409, Note_off_c, 5, 57, 0
9, 49410, Note_on_c, 5, 59, 88
9, 49439, Note_off_c, 5, 59, 0
9, 49440, Note_on_c, 5, 60, 88
9, 50036, Note_off_c, 5, 60, 0
9, 50040, Note_on_c, 5, 54, 88
9, 50156, Note_off_c, 5, 54, 0
9, 50160, Note_on_c, 5, 55, 88
9, 50276, Note_off_c, 5, 55, 0
9, 50280, Note_on_c, 5, 57, 88
9, 50396, Note_off_c, 5, 57, 0
9, 50400, Note_on_c, 5, 59, 88
9, 50516, Note_off_c, 5, 59, 0
9, 50520, Note_on_c, 5, 50, 88
9, 50636, Note_off_c, 5, 50, 0
9, 50640, Note_on_c, 5, 52, 88
9, 50756, Note_off_c, 5, 52, 0
9, 50760, Note_on_c, 5, 54, 88
9, 50876, Note_off_c, 5, 54, 0
9, 50880, Note_on_c, 5, 55, 88
9, 51233, Note_off_c, 5, 55, 0
9, 51240, Note_on_c, 5, 57, 88
9, 51356, Note_off_c, 5, 57, 0
9, 51360, Note_on_c, 5, 59, 88
9, 51956, Note_off_c, 5, 59, 0
9, 51960, Note_on_c, 5, 52, 88
9, 52076, Note_off_c, 5, 52, 0
9, 52080, Note_on_c, 5, 54, 88
9, 52196, Note_off_c, 5, 54, 0
9, 52200, Note_on_c, 5, 55, 88
9, 52316, Note_off_c, 5, 55, 0
9, 52320, Note_on_c, 5, 57, 88
9, 52436, Note_off_c, 5, 57, 0
9, 52440, Note_on_c, 5, 50, 88
9, 52556, Note_off_c, 5, 50, 0
9, 52560, Note_on_c, 5, 52, 88
9, 52676, Note_off_c, 5, 52, 0
9, 52680, Note_on_c, 5, 50, 88
9, 52738, Note_off_c, 5, 50, 0
9, 52740, Note_on_c, 5, 52, 88
9, 52798, Note_off_c, 5, 52, 0
9, 52800, Note_on_c, 5, 54, 88
9, 52858, Note_off_c, 5, 54, 0
9, 52860, Note_on_c, 5, 55, 88
9, 52918, Note_off_c, 5, 55, 0
9, 52920, Note_on_c, 5, 52, 88
9, 52978, Note_off_c, 5, 52, 0
9, 52980, Note_on_c, 5, 54, 88
9, 53038, Note_off_c, 5, 54, 0
9, 53040, Note_on_c, 5, 55, 88
9, 53098, Note_off_c, 5, 55, 0
9, 53100, Note_on_c, 5, 57, 88
9, 53158, Note_off_c, 5, 57, 0
9, 53160, Note_on_c, 5, 54, 88
9, 53218, Note_off_c, 5, 54, 0
9, 53220, Note_on_c, 5, 55, 88
9, 53278, Note_off_c, 5, 55, 0
9, 53280, Note_on_c, 5, 57, 88
9, 53396, Note_off_c, 5, 57, 0
9, 53400, Note_on_c, 5, 59, 88
9, 53458, Note_off_c, 5, 59, 0
9, 53460, Note_on_c, 5, 60, 88
9, 53518, Note_off_c, 5, 60, 0
9, 53520, Note_on_c, 5, 59, 88
9, 53578, Note_off_c, 5, 59, 0
9, 53580, Note_on_c, 5, 60, 88
9, 53638, Note_off_c, 5, 60, 0
9, 53640, Note_on_c, 5, 57, 88
9, 53698, Note_off_c, 5, 57, 0
9, 53700, Note_on_c, 5, 59, 88
9, 53758, Note_off_c, 5, 59, 0
9, 53760, Note_on_c, 5, 60, 88
9, 53876, Note_off_c, 5, 60, 0
9, 53880, Note_on_c, 5, 62, 88
9, 53938, Note_off_c, 5, 62, 0
9, 53940, Note_on_c, 5, 64, 88
9, 53998, Note_off_c, 5, 64, 0
9, 54000, Note_on_c, 5, 62, 88
9, 54116, Note_off_c, 5, 62, 0
9, 54120, Note_on_c, 5, 60, 88
9, 54236, Note_off_c, 5, 60, 0
9, 54240, Note_on_c, 5, 59, 88
9, 54356, Note_off_c, 5, 59, 0
9, 54360, Note_on_c, 5, 56, 88
9, 54476, Note_off_c, 5, 56, 0
9, 54480, Note_on_c, 5, 57, 88
9, 54596, Note_off_c, 5, 57, 0
9, 54600, Note_on_c, 5, 59, 88
9, 54716, Note_off_c, 5, 59, 0
9, 54720, Note_on_c, 5, 60, 88
9, 54836, Note_off_c, 5, 60, 0
9, 54840, Note_on_c, 5, 52, 88
9, 54956, Note_off_c, 5, 52, 0
9, 54960, Note_on_c, 5, 54, 88
9, 55076, Note_off_c, 5, 54, 0
9, 55080, Note_on_c, 5, 56, 88
9, 55196, Note_off_c, 5, 56, 0
9, 55200, Note_on_c, 5, 57, 88
9, 55434, Note_off_c, 5, 57, 0
9, 55560, Note_on_c, 5, 52, 88
9, 55676, Note_off_c, 5, 52, 0
9, 55680, Note_on_c, 5, 53, 88
9, 55796, Note_off_c, 5, 53, 0
9, 55800, Note_on_c, 5, 55, 88
9, 55916, Note_off_c, 5, 55, 0
9, 55920, Note_on_c, 5, 57, 88
9, 56036, Note_off_c, 5, 57, 0
9, 56040, Note_on_c, 5, 58, 88
9, 56156, Note_off_c, 5, 58, 0
9, 56160, Note_on_c, 5, 57, 88
9, 56276, Note_off_c, 5, 57, 0
9, 56280, Note_on_c, 5, 56, 88
9, 56338, Note_off_c, 5, 56, 0
9, 56340, Note_on_c, 5, 54, 88
9, 56398, Note_off_c, 5, 54, 0
9, 56400, Note_on_c, 5, 52, 88
9, 56516, Note_off_c, 5, 52, 0
9, 56520, Note_on_c, 5, 57, 88
9, 56636, Note_off_c, 5, 57, 0
9, 56640, Note_on_c, 5, 53, 88
9, 56756, Note_off_c, 5, 53, 0
9, 56760, Note_on_c, 5, 52, 88
9, 56994, Note_off_c, 5, 52, 0
9, 57000, Note_on_c, 5, 53, 88
9, 57058, Note_off_c, 5, 53, 0
9, 57060, Note_on_c, 5, 51, 88
9, 57118, Note_off_c, 5, 51, 0
9, 57120, Note_on_c, 5, 52, 88
9, 58676, Note_off_c, 5, 52, 0
9, 59160, Note_on_c, 5, 52, 88
9, 59218, Note_off_c, 5, 52, 0
9, 59220, Note_on_c, 5, 53, 88
9, 59278, Note_off_c, 5, 53, 0
9, 59280, Note_on_c, 5, 52, 88
9, 59396, Note_off_c, 5, 52, 0
9, 59400, Note_on_c, 5, 50, 88
9, 59516, Note_off_c, 5, 50, 0
9, 59520, Note_on_c, 5, 49, 88
9, 59633, Note_off_c, 5, 49, 0
9, 59640, Note_on_c, 5, 49, 88
9, 59698, Note_off_c, 5, 49, 0
9, 59700, Note_on_c, 5, 50, 88
9, 59758, Note_off_c, 5, 50, 0
9, 59760, Note_on_c, 5, 49, 88
9, 59876, Note_off_c, 5, 49, 0
9, 59880, Note_on_c, 5, 46, 88
9, 59996, Note_off_c, 5, 46, 0
9, 60000, Note_on_c, 5, 45, 88
9, 60234, Note_off_c, 5, 45, 0
9, 60360, Note_on_c, 5, 65, 88
9, 60418, Note_off_c, 5, 65, 0
9, 60420, Note_on_c, 5, 64, 88
9, 60478, Note_off_c, 5, 64, 0
9, 60480, Note_on_c, 5, 62, 88
9, 60833, Note_off_c, 5, 62, 0
9, 60840, Note_on_c, 5, 61, 88
9, 60956, Note_off_c, 5, 61, 0
9, 60960, Note_on_c, 5, 62, 88
9, 61076, Note_off_c, 5, 62, 0
9, 61080, Note_on_c, 5, 57, 88
9, 61196, Note_off_c, 5, 57, 0
9, 61560, Note_on_c, 5, 57, 88
9, 61618, Note_off_c, 5, 57, 0
9, 61620, Note_on_c, 5, 56, 88
9, 61678, Note_off_c, 5, 56, 0
9, 61680, Note_on_c, 5, 57, 88
9, 61796, Note_off_c, 5, 57, 0
9, 61800, Note_on_c, 5, 59, 88
9, 61916, Note_off_c, 5, 59, 0
9, 61920, Note_on_c, 5, 60, 88
9, 62033, Note_off_c, 5, 60, 0
9, 62040, Note_on_c, 5, 60, 88
9, 62098, Note_off_c, 5, 60, 0
9, 62100, Note_on_c, 5, 59, 88
9, 62158, Note_off_c, 5, 59, 0
9, 62160, Note_on_c, 5, 60, 88
9, 62276, Note_off_c, 5, 60, 0
9, 62280, Note_on_c, 5, 62, 88
9, 62396, Note_off_c, 5, 62, 0
9, 62400, Note_on_c, 5, 64, 88
9, 62458, Note_off_c, 5, 64, 0
9, 62460, Note_on_c, 5, 62, 88
9, 62518, Note_off_c, 5, 62, 0
9, 62520, Note_on_c, 5, 60, 88
9, 62578, Note_off_c, 5, 60, 0
9, 62580, Note_on_c, 5, 62, 88
9, 62638, Note_off_c, 5, 62, 0
9, 62640, Note_on_c, 5, 64, 88
9, 62756, Note_off_c, 5, 64, 0
9, 62760, Note_on_c, 5, 65, 88
9, 62876, Note_off_c, 5, 65, 0
9, 62880, Note_on_c, 5, 56, 88
9, 62996, Note_off_c, 5, 56, 0
9, 63000, Note_on_c, 5, 52, 88
9, 63116, Note_off_c, 5, 52, 0
9, 63240, Note_on_c, 5, 57, 88
9, 63356, Note_off_c, 5, 57, 0
9, 63360, Note_on_c, 5, 59, 88
9, 63418, Note_off_c, 5, 59, 0
9, 63420, Note_on_c, 5, 60, 88
9, 63478, Note_off_c, 5, 60, 0
9, 63480, Note_on_c, 5, 57, 88
9, 63538, Note_off_c, 5, 57, 0
9, 63540, Note_on_c, 5, 59, 88
9, 63598, Note_off_c, 5, 59, 0
9, 63600, Note_on_c, 5, 60, 88
9, 63658, Note_off_c, 5, 60, 0
9, 63660, Note_on_c, 5, 62, 88
9, 63718, Note_off_c, 5, 62, 0
9, 63720, Note_on_c, 5, 59, 88
9, 63778, Note_off_c, 5, 59, 0
9, 63780, Note_on_c, 5, 61, 88
9, 63838, Note_off_c, 5, 61, 0
9, 63840, Note_on_c, 5, 62, 88
9, 63956, Note_off_c, 5, 62, 0
9, 63960, Note_on_c, 5, 60, 88
9, 64076, Note_off_c, 5, 60, 0
9, 64080, Note_on_c, 5, 59, 88
9, 64196, Note_off_c, 5, 59, 0
9, 64200, Note_on_c, 5, 64, 88
9, 64316, Note_off_c, 5, 64, 0
9, 64320, Note_on_c, 5, 57, 88
9, 64554, Note_off_c, 5, 57, 0
9, 64920, Note_on_c, 5, 57, 88
9, 64978, Note_off_c, 5, 57, 0
9, 64980, Note_on_c, 5, 58, 88
9, 65038, Note_off_c, 5, 58, 0
9, 65040, Note_on_c, 5, 60, 88
9, 65156, Note_off_c, 5, 60, 0
9, 65160, Note_on_c, 5, 58, 88
9, 65276, Note_off_c, 5, 58, 0
9, 65280, Note_on_c, 5, 57, 88
9, 65396, Note_off_c, 5, 57, 0
9, 65400, Note_on_c, 5, 62, 88
9, 65458, Note_off_c, 5, 62, 0
9, 65460, Note_on_c, 5, 64, 88
9, 65518, Note_off_c, 5, 64, 0
9, 65520, Note_on_c, 5, 65, 88
9, 65578, Note_off_c, 5, 65, 0
9, 65580, Note_on_c, 5, 67, 88
9, 65638, Note_off_c, 5, 67, 0
9, 65640, Note_on_c, 5, 69, 88
9, 65874, Note_off_c, 5, 69, 0
9, 65880, Note_on_c, 5, 67, 88
9, 66114, Note_off_c, 5, 67, 0
9, 66120, Note_on_c, 5, 65, 88
9, 66356, Note_off_c, 5, 65, 0
9, 66360, Note_on_c, 5, 64, 88
9, 66476, Note_off_c, 5, 64, 0
9, 66480, Note_on_c, 5, 62, 88
9, 66774, Note_off_c, 5, 62, 0
9, 66780, Note_on_c, 5, 61, 88
9, 66838, Note_off_c, 5, 61, 0
9, 66840, Note_on_c, 5, 64, 88
9, 66898, Note_off_c, 5, 64, 0
9, 66900, Note_on_c, 5, 62, 88
9, 66958, Note_off_c, 5, 62, 0
9, 66960, Note_on_c, 5, 61, 88
9, 67018, Note_off_c, 5, 61, 0
9, 67020, Note_on_c, 5, 59, 88
9, 67078, Note_off_c, 5, 59, 0
9, 67080, Note_on_c, 5, 62, 88
9, 67138, Note_off_c, 5, 62, 0
9, 67140, Note_on_c, 5, 61, 88
9, 67198, Note_off_c, 5, 61, 0
9, 67200, Note_on_c, 5, 62, 88
9, 67494, Note_off_c, 5, 62, 0
9, 67500, Note_on_c, 5, 59, 88
9, 67558, Note_off_c, 5, 59, 0
9, 67560, Note_on_c, 5, 61, 88
9, 67618, Note_off_c, 5, 61, 0
9, 67620, Note_on_c, 5, 64, 88
9, 67678, Note_off_c, 5, 64, 0
9, 67680, Note_on_c, 5, 65, 88
9, 67974, Note_off_c, 5, 65, 0
9, 67980, Note_on_c, 5, 62, 88
9, 68038, Note_off_c, 5, 62, 0
9, 68040, Note_on_c, 5, 64, 88
9, 68098, Note_off_c, 5, 64, 0
9, 68100, Note_on_c, 5, 67, 88
9, 68158, Note_off_c, 5, 67, 0
9, 68160, Note_on_c, 5, 69, 88
9, 68454, Note_off_c, 5, 69, 0
9, 68460, Note_on_c, 5, 65, 88
9, 68518, Note_off_c, 5, 65, 0
9, 68520, Note_on_c, 5, 67, 88
9, 68578, Note_off_c, 5, 67, 0
9, 68580, Note_on_c, 5, 70, 88
9, 68638, Note_off_c, 5, 70, 0
9, 68640, Note_on_c, 5, 64, 88
9, 68756, Note_off_c, 5, 64, 0
9, 68760, Note_on_c, 5, 65, 88
9, 68876, Note_off_c, 5, 65, 0
9, 68880, Note_on_c, 5, 58, 88
9, 69114, Note_off_c, 5, 58, 0
9, 69120, Note_on_c, 5, 60, 88
9, 69710, Note_off_c, 5, 60, 0
9, 69720, Note_on_c, 5, 48, 88
9, 69836, Note_off_c, 5, 48, 0
9, 69840, Note_on_c, 5, 50, 88
9, 69956, Note_off_c, 5, 50, 0
9, 69960, Note_on_c, 5, 52, 88
9, 70076, Note_off_c, 5, 52, 0
9, 70080, Note_on_c, 5, 53, 88
9, 70196, Note_off_c, 5, 53, 0
9, 70200, Note_on_c, 5, 52, 88
9, 70316, Note_off_c, 5, 52, 0
9, 70320, Note_on_c, 5, 53, 88
9, 70436, Note_off_c, 5, 53, 0
9, 70440, Note_on_c, 5, 55, 88
9, 70556, Note_off_c, 5, 55, 0
9, 70560, Note_on_c, 5, 57, 88
9, 70618, Note_off_c, 5, 57, 0
9, 70620, Note_on_c, 5, 55, 88
9, 70678, Note_off_c, 5, 55, 0
9, 70680, Note_on_c, 5, 54, 88
9, 70738, Note_off_c, 5, 54, 0
9, 70740, Note_on_c, 5, 55, 88
9, 70798, Note_off_c, 5, 55, 0
9, 70800, Note_on_c, 5, 57, 88
9, 70858, Note_off_c, 5, 57, 0
9, 70860, Note_on_c, 5, 58, 88
9, 70918, Note_off_c, 5, 58, 0
9, 70920, Note_on_c, 5, 60, 88
9, 71036, Note_off_c, 5, 60, 0
9, 71040, Note_on_c, 5, 54, 88
9, 71156, Note_off_c, 5, 54, 0
9, 71160, Note_on_c, 5, 57, 88
9, 71276, Note_off_c, 5, 57, 0
9, 71280, Note_on_c, 5, 55, 88
9, 71396, Note_off_c, 5, 55, 0
9, 71400, Note_on_c, 5, 54, 88
9, 71516, Note_off_c, 5, 54, 0
9, 71520, Note_on_c, 5, 55, 88
9, 71636, Note_off_c, 5, 55, 0
9, 71640, Note_on_c, 5, 53, 88
9, 71756, Note_off_c, 5, 53, 0
9, 71760, Note_on_c, 5, 51, 88
9, 71876, Note_off_c, 5, 51, 0
9, 71880, Note_on_c, 5, 50, 88
9, 72116, Note_off_c, 5, 50, 0
9, 72120, Note_on_c, 5, 55, 88
9, 72178, Note_off_c, 5, 55, 0
9, 72180, Note_on_c, 5, 57, 88
9, 72238, Note_off_c, 5, 57, 0
9, 72240, Note_on_c, 5, 55, 88
9, 72356, Note_off_c, 5, 55, 0
9, 72360, Note_on_c, 5, 53, 88
9, 72476, Note_off_c, 5, 53, 0
9, 72480, Note_on_c, 5, 52, 88
9, 72593, Note_off_c, 5, 52, 0
9, 72600, Note_on_c, 5, 52, 88
9, 72658, Note_off_c, 5, 52, 0
9, 72660, Note_on_c, 5, 53, 88
9, 72718, Note_off_c, 5, 53, 0
9, 72720, Note_on_c, 5, 52, 88
9, 72836, Note_off_c, 5, 52, 0
9, 72840, Note_on_c, 5, 50, 88
9, 72956, Note_off_c, 5, 50, 0
9, 72960, Note_on_c, 5, 49, 88
9, 73018, Note_off_c, 5, 49, 0
9, 73020, Note_on_c, 5, 50, 88
9, 73078, Note_off_c, 5, 50, 0
9, 73080, Note_on_c, 5, 52, 88
9, 73138, Note_off_c, 5, 52, 0
9, 73140, Note_on_c, 5, 50, 88
9, 73198, Note_off_c, 5, 50, 0
9, 73200, Note_on_c, 5, 49, 88
9, 73316, Note_off_c, 5, 49, 0
9, 73320, Note_on_c, 5, 47, 88
9, 73436, Note_off_c, 5, 47, 0
9, 73440, Note_on_c, 5, 57, 88
9, 73556, Note_off_c, 5, 57, 0
9, 73560, Note_on_c, 5, 61, 88
9, 73676, Note_off_c, 5, 61, 0
9, 73800, Note_on_c, 5, 69, 88
9, 73916, Note_off_c, 5, 69, 0
9, 73920, Note_on_c, 5, 70, 88
9, 74095, Note_off_c, 5, 70, 0
9, 74100, Note_on_c, 5, 69, 88
9, 74158, Note_off_c, 5, 69, 0
9, 74160, Note_on_c, 5, 67, 88
9, 74218, Note_off_c, 5, 67, 0
9, 74220, Note_on_c, 5, 65, 88
9, 74278, Note_off_c, 5, 65, 0
9, 74280, Note_on_c, 5, 64, 88
9, 74338, Note_off_c, 5, 64, 0
9, 74340, Note_on_c, 5, 62, 88
9, 74398, Note_off_c, 5, 62, 0
9, 74400, Note_on_c, 5, 61, 88
9, 74634, Note_off_c, 5, 61, 0
9, 74760, Note_on_c, 5, 61, 88
9, 74876, Note_off_c, 5, 61, 0
9, 74880, Note_on_c, 5, 62, 88
9, 74996, Note_off_c, 5, 62, 0
9, 75000, Note_on_c, 5, 65, 88
9, 75116, Note_off_c, 5, 65, 0
9, 75120, Note_on_c, 5, 62, 88
9, 75236, Note_off_c, 5, 62, 0
9, 75240, Note_on_c, 5, 57, 88
9, 75356, Note_off_c, 5, 57, 0
9, 75360, Note_on_c, 5, 58, 88
9, 75476, Note_off_c, 5, 58, 0
9, 75480, Note_on_c, 5, 53, 88
9, 75596, Note_off_c, 5, 53, 0
9, 75600, Note_on_c, 5, 58, 88
9, 75716, Note_off_c, 5, 58, 0
9, 75720, Note_on_c, 5, 62, 88
9, 75836, Note_off_c, 5, 62, 0
9, 75840, Note_on_c, 5, 59, 88
9, 76074, Note_off_c, 5, 59, 0
9, 76320, Note_on_c, 5, 57, 88
9, 76554, Note_off_c, 5, 57, 0
9, 76800, Note_on_c, 5, 57, 88
9, 77034, Note_off_c, 5, 57, 0
9, 77280, Note_on_c, 5, 62, 88
9, 77514, Note_off_c, 5, 62, 0
9, 78240, Note_on_c, 5, 57, 88
9, 78474, Note_off_c, 5, 57, 0
9, 78600, Note_on_c, 5, 59, 88
9, 78716, Note_off_c, 5, 59, 0
9, 78720, Note_on_c, 5, 60, 88
9, 78836, Note_off_c, 5, 60, 0
9, 78840, Note_on_c, 5, 62, 88
9, 78956, Note_off_c, 5, 62, 0
9, 78960, Note_on_c, 5, 60, 88
9, 79076, Note_off_c, 5, 60, 0
9, 79080, Note_on_c, 5, 59, 88
9, 79196, Note_off_c, 5, 59, 0
9, 79200, Note_on_c, 5, 57, 88
9, 79313, Note_off_c, 5, 57, 0
9, 79320, Note_on_c, 5, 57, 88
9, 79378, Note_off_c, 5, 57, 0
9, 79380, Note_on_c, 5, 58, 88
9, 79438, Note_off_c, 5, 58, 0
9, 79440, Note_on_c, 5, 57, 88
9, 79556, Note_off_c, 5, 57, 0
9, 79560, Note_on_c, 5, 55, 88
9, 79676, Note_off_c, 5, 55, 0
9, 79680, Note_on_c, 5, 53, 88
9, 79793, Note_off_c, 5, 53, 0
9, 79800, Note_on_c, 5, 53, 88
9, 79858, Note_off_c, 5, 53, 0
9, 79860, Note_on_c, 5, 55, 88
9, 79918, Note_off_c, 5, 55, 0
9, 79920, Note_on_c, 5, 53, 88
9, 80036, Note_off_c, 5, 53, 0
9, 80040, Note_on_c, 5, 52, 88
9, 80156, Note_off_c, 5, 52, 0
9, 80160, Note_on_c, 5, 50, 88
9, 80218, Note_off_c, 5, 50, 0
9, 80220, Note_on_c, 5, 52, 88
9, 80278, Note_off_c, 5, 52, 0
9, 80280, Note_on_c, 5, 53, 88
9, 80338, Note_off_c, 5, 53, 0
9, 80340, Note_on_c, 5, 52, 88
9, 80398, Note_off_c, 5, 52, 0
9, 80400, Note_on_c, 5, 50, 88
9, 80516, Note_off_c, 5, 50, 0
9, 80520, Note_on_c, 5, 49, 88
9, 80636, Note_off_c, 5, 49, 0
9, 80640, Note_on_c, 5, 50, 88
9, 80756, Note_off_c, 5, 50, 0
9, 80760, Note_on_c, 5, 53, 88
9, 80876, Note_off_c, 5, 53, 0
9, 80880, Note_on_c, 5, 52, 88
9, 80996, Note_off_c, 5, 52, 0
9, 81000, Note_on_c, 5, 50, 88
9, 81116, Note_off_c, 5, 50, 0
9, 81120, Note_on_c, 5, 55, 88
9, 81354, Note_off_c, 5, 55, 0
9, 81480, Note_on_c, 5, 53, 88
9, 81596, Note_off_c, 5, 53, 0
9, 81600, Note_on_c, 5, 52, 88
9, 81834, Note_off_c, 5, 52, 0
9, 81960, Note_on_c, 5, 50, 88
9, 82076, Note_off_c, 5, 50, 0
9, 82080, Note_on_c, 5, 59, 88
9, 82550, Note_off_c, 5, 59, 0
9, 82560, Note_on_c, 5, 57, 88
9, 83505, Note_off_c, 5, 57, 0
9, 83505, End_track
10, 0, Start_track
10, 0, Title_t, "Track 7"
10, 0, Program_c, 6, 6
10, 6840, Note_on_c, 6, 45, 88
10, 6898, Note_off_c, 6, 45, 0
10, 6900, Note_on_c, 6, 44, 88
10, 6958, Note_off_c, 6, 44, 0
10, 6960, Note_on_c, 6, 45, 88
10, 7076, Note_off_c, 6, 45, 0
10, 7080, Note_on_c, 6, 47, 88
10, 7196, Note_off_c, 6, 47, 0
10, 7200, Note_on_c, 6, 48, 88
10, 7313, Note_off_c, 6, 48, 0
10, 7320, Note_on_c, 6, 48, 88
10, 7378, Note_off_c, 6, 48, 0
10, 7380, Note_on_c, 6, 47, 88
10, 7438, Note_off_c, 6, 47, 0
10, 7440, Note_on_c, 6, 48, 88
10, 7556, Note_off_c, 6, 48, 0
10, 7560, Note_on_c, 6, 50, 88
10, 7676, Note_off_c, 6, 50, 0
10, 7680, Note_on_c, 6, 52, 88
10, 7738, Note_off_c, 6, 52, 0
10, 7740, Note_on_c, 6, 50, 88
10, 7798, Note_off_c, 6, 50, 0
10, 7800, Note_on_c, 6, 48, 88
10, 7858, Note_off_c, 6, 48, 0
10, 7860, Note_on_c, 6, 50, 88
10, 7918, Note_off_c, 6, 50, 0
10, 7920, Note_on_c, 6, 52, 88
10, 8036, Note_off_c, 6, 52, 0
10, 8040, Note_on_c, 6, 53, 88
10, 8156, Note_off_c, 6, 53, 0
10, 8160, Note_on_c, 6, 44, 88
10, 8276, Note_off_c, 6, 44, 0
10, 8280, Note_on_c, 6, 40, 88
10, 8396, Note_off_c, 6, 40, 0
10, 8520, Note_on_c, 6, 45, 88
10, 8636, Note_off_c, 6, 45, 0
10, 8640, Note_on_c, 6, 47, 88
10, 8698, Note_off_c, 6, 47, 0
10, 8700, Note_on_c, 6, 48, 88
10, 8758, Note_off_c, 6, 48, 0
10, 8760, Note_on_c, 6, 45, 88
10, 8818, Note_off_c, 6, 45, 0
10, 8820, Note_on_c, 6, 47, 88
10, 8878, Note_off_c, 6, 47, 0
10, 8880, Note_on_c, 6, 49, 88
10, 8938, Note_off_c, 6, 49, 0
10, 8940, Note_on_c, 6, 50, 88
10, 8998, Note_off_c, 6, 50, 0
10, 9000, Note_on_c, 6, 47, 88
10, 9058, Note_off_c, 6, 47, 0
10, 9060, Note_on_c, 6, 49, 88
10, 9118, Note_off_c, 6, 49, 0
10, 9120, Note_on_c, 6, 50, 88
10, 9236, Note_off_c, 6, 50, 0
10, 9240, Note_on_c, 6, 48, 88
10, 9356, Note_off_c, 6, 48, 0
10, 9360, Note_on_c, 6, 47, 88
10, 9476, Note_off_c, 6, 47, 0
10, 9480, Note_on_c, 6, 52, 88
10, 9596, Note_off_c, 6, 52, 0
10, 9600, Note_on_c, 6, 45, 88
10, 9716, Note_off_c, 6, 45, 0
10, 9720, Note_on_c, 6, 47, 88
10, 9836, Note_off_c, 6, 47, 0
10, 9840, Note_on_c, 6, 49, 88
10, 9956, Note_off_c, 6, 49, 0
10, 9960, Note_on_c, 6, 51, 88
10, 10076, Note_off_c, 6, 51, 0
10, 10080, Note_on_c, 6, 52, 88
10, 10193, Note_off_c, 6, 52, 0
10, 10200, Note_on_c, 6, 52, 88
10, 10258, Note_off_c, 6, 52, 0
10, 10260, Note_on_c, 6, 50, 88
10, 10318, Note_off_c, 6, 50, 0
10, 10320, Note_on_c, 6, 52, 88
10, 10436, Note_off_c, 6, 52, 0
10, 10440, Note_on_c, 6, 54, 88
10, 10556, Note_off_c, 6, 54, 0
10, 10560, Note_on_c, 6, 55, 88
10, 10794, Note_off_c, 6, 55, 0
10, 10920, Note_on_c, 6, 57, 88
10, 11036, Note_off_c, 6, 57, 0
10, 11040, Note_on_c, 6, 59, 88
10, 11156, Note_off_c, 6, 59, 0
10, 11160, Note_on_c, 6, 47, 88
10, 11218, Note_off_c, 6, 47, 0
10, 11220, Note_on_c, 6, 45, 88
10, 11278, Note_off_c, 6, 45, 0
10, 11280, Note_on_c, 6, 43, 88
10, 11396, Note_off_c, 6, 43, 0
10, 11400, Note_on_c, 6, 40, 88
10, 11516, Note_off_c, 6, 40, 0
10, 11520, Note_on_c, 6, 45, 88
10, 11754, Note_off_c, 6, 45, 0
10, 11760, Note_on_c, 6, 47, 88
10, 11994, Note_off_c, 6, 47, 0
10, 12000, Note_on_c, 6, 48, 88
10, 12116, Note_off_c, 6, 48, 0
10, 12120, Note_on_c, 6, 47, 88
10, 12236, Note_off_c, 6, 47, 0
10, 12240, Note_on_c, 6, 45, 88
10, 12356, Note_off_c, 6, 45, 0
10, 12360, Note_on_c, 6, 47, 88
10, 12418, Note_off_c, 6, 47, 0
10, 12420, Note_on_c, 6, 45, 88
10, 12478, Note_off_c, 6, 45, 0
10, 12480, Note_on_c, 6, 43, 88
10, 12596, Note_off_c, 6, 43, 0
10, 12600, Note_on_c, 6, 45, 88
10, 12716, Note_off_c, 6, 45, 0
10, 12720, Note_on_c, 6, 47, 88
10, 12954, Note_off_c, 6, 47, 0
10, 12960, Note_on_c, 6, 52, 88
10, 13076, Note_off_c, 6, 52, 0
10, 13080, Note_on_c, 6, 50, 88
10, 13196, Note_off_c, 6, 50, 0
10, 13200, Note_on_c, 6, 48, 88
10, 13316, Note_off_c, 6, 48, 0
10, 13320, Note_on_c, 6, 47, 88
10, 13436, Note_off_c, 6, 47, 0
10, 13440, Note_on_c, 6, 45, 88
10, 13556, Note_off_c, 6, 45, 0
10, 13560, Note_on_c, 6, 59, 88
10, 13676, Note_off_c, 6, 59, 0
10, 13680, Note_on_c, 6, 57, 88
10, 13796, Note_off_c, 6, 57, 0
10, 13800, Note_on_c, 6, 55, 88
10, 13916, Note_off_c, 6, 55, 0
10, 13920, Note_on_c, 6, 54, 88
10, 14036, Note_off_c, 6, 54, 0
10, 14040, Note_on_c, 6, 55, 88
10, 14156, Note_off_c, 6, 55, 0
10, 14160, Note_on_c, 6, 54, 88
10, 14276, Note_off_c, 6, 54, 0
10, 14280, Note_on_c, 6, 52, 88
10, 14396, Note_off_c, 6, 52, 0
10, 14400, Note_on_c, 6, 50, 88
10, 14516, Note_off_c, 6, 50, 0
10, 14520, Note_on_c, 6, 52, 88
10, 14636, Note_off_c, 6, 52, 0
10, 14640, Note_on_c, 6, 50, 88
10, 14756, Note_off_c, 6, 50, 0
10, 14760, Note_on_c, 6, 48, 88
10, 14876, Note_off_c, 6, 48, 0
10, 14880, Note_on_c, 6, 47, 88
10, 14996, Note_off_c, 6, 47, 0
10, 15000, Note_on_c, 6, 55, 88
10, 15234, Note_off_c, 6, 55, 0
10, 15240, Note_on_c, 6, 54, 88
10, 15356, Note_off_c, 6, 54, 0
10, 15360, Note_on_c, 6, 55, 88
10, 15418, Note_off_c, 6, 55, 0
10, 15420, Note_on_c, 6, 52, 88
10, 15478, Note_off_c, 6, 52, 0
10, 15480, Note_on_c, 6, 50, 88
10, 15538, Note_off_c, 6, 50, 0
10, 15540, Note_on_c, 6, 48, 88
10, 15598, Note_off_c, 6, 48, 0
10, 15600, Note_on_c, 6, 47, 88
10, 15716, Note_off_c, 6, 47, 0
10, 15720, Note_on_c, 6, 52, 88
10, 15836, Note_off_c, 6, 52, 0
10, 15840, Note_on_c, 6, 48, 88
10, 15956, Note_off_c, 6, 48, 0
10, 15960, Note_on_c, 6, 45, 88
10, 16076, Note_off_c, 6, 45, 0
10, 16080, Note_on_c, 6, 50, 88
10, 16196, Note_off_c, 6, 50, 0
10, 16200, Note_on_c, 6, 38, 88
10, 16316, Note_off_c, 6, 38, 0
10, 16320, Note_on_c, 6, 43, 88
10, 16436, Note_off_c, 6, 43, 0
10, 19320, Note_on_c, 6, 57, 88
10, 19378, Note_off_c, 6, 57, 0
10, 19380, Note_on_c, 6, 58, 88
10, 19438, Note_off_c, 6, 58, 0
10, 19440, Note_on_c, 6, 57, 88
10, 19556, Note_off_c, 6, 57, 0
10, 19560, Note_on_c, 6, 55, 88
10, 19676, Note_off_c, 6, 55, 0
10, 19680, Note_on_c, 6, 53, 88
10, 19793, Note_off_c, 6, 53, 0
10, 19800, Note_on_c, 6, 53, 88
10, 19858, Note_off_c, 6, 53, 0
10, 19860, Note_on_c, 6, 55, 88
10, 19918, Note_off_c, 6, 55, 0
10, 19920, Note_on_c, 6, 53, 88
10, 20036, Note_off_c, 6, 53, 0
10, 20040, Note_on_c, 6, 52, 88
10, 20156, Note_off_c, 6, 52, 0
10, 20160, Note_on_c, 6, 50, 88
10, 20218, Note_off_c, 6, 50, 0
10, 20220, Note_on_c, 6, 52, 88
10, 20278, Note_off_c, 6, 52, 0
10, 20280, Note_on_c, 6, 53, 88
10, 20338, Note_off_c, 6, 53, 0
10, 20340, Note_on_c, 6, 52, 88
10, 20398, Note_off_c, 6, 52, 0
10, 20400, Note_on_c, 6, 50, 88
10, 20516, Note_off_c, 6, 50, 0
10, 20520, Note_on_c, 6, 48, 88
10, 20636, Note_off_c, 6, 48, 0
10, 20640, Note_on_c, 6, 59, 88
10, 20756, Note_off_c, 6, 59, 0
10, 20760, Note_on_c, 6, 62, 88
10, 20876, Note_off_c, 6, 62, 0
10, 21000, Note_on_c, 6, 57, 88
10, 21116, Note_off_c, 6, 57, 0
10, 21120, Note_on_c, 6, 55, 88
10, 21178, Note_off_c, 6, 55, 0
10, 21180, Note_on_c, 6, 53, 88
10, 21238, Note_off_c, 6, 53, 0
10, 21240, Note_on_c, 6, 57, 88
10, 21298, Note_off_c, 6, 57, 0
10, 21300, Note_on_c, 6, 55, 88
10, 21358, Note_off_c, 6, 55, 0
10, 21360, Note_on_c, 6, 53, 88
10, 21418, Note_off_c, 6, 53, 0
10, 21420, Note_on_c, 6, 52, 88
10, 21478, Note_off_c, 6, 52, 0
10, 21480, Note_on_c, 6, 55, 88
10, 21538, Note_off_c, 6, 55, 0
10, 21540, Note_on_c, 6, 53, 88
10, 21598, Note_off_c, 6, 53, 0
10, 21600, Note_on_c, 6, 52, 88
10, 21716, Note_off_c, 6, 52, 0
10, 21720, Note_on_c, 6, 53, 88
10, 21836, Note_off_c, 6, 53, 0
10, 21840, Note_on_c, 6, 55, 88
10, 21898, Note_off_c, 6, 55, 0
10, 21900, Note_on_c, 6, 52, 88
10, 21958, Note_off_c, 6, 52, 0
10, 21960, Note_on_c, 6, 50, 88
10, 22018, Note_off_c, 6, 50, 0
10, 22020, Note_on_c, 6, 48, 88
10, 22078, Note_off_c, 6, 48, 0
10, 22080, Note_on_c, 6, 53, 88
10, 22138, Note_off_c, 6, 53, 0
10, 22140, Note_on_c, 6, 52, 88
10, 22198, Note_off_c, 6, 52, 0
10, 22200, Note_on_c, 6, 50, 88
10, 22258, Note_off_c, 6, 50, 0
10, 22260, Note_on_c, 6, 48, 88
10, 22318, Note_off_c, 6, 48, 0
10, 22320, Note_on_c, 6, 50, 88
10, 22378, Note_off_c, 6, 50, 0
10, 22380, Note_on_c, 6, 52, 88
10, 22438, Note_off_c, 6, 52, 0
10, 22440, Note_on_c, 6, 53, 88
10, 22498, Note_off_c, 6, 53, 0
10, 22500, Note_on_c, 6, 50, 88
10, 22558, Note_off_c, 6, 50, 0
10, 22560, Note_on_c, 6, 47, 88
10, 22794, Note_off_c, 6, 47, 0
10, 22800, Note_on_c, 6, 48, 88
10, 22916, Note_off_c, 6, 48, 0
10, 22920, Note_on_c, 6, 50, 88
10, 23156, Note_off_c, 6, 50, 0
10, 23160, Note_on_c, 6, 52, 88
10, 23276, Note_off_c, 6, 52, 0
10, 23280, Note_on_c, 6, 50, 88
10, 23396, Note_off_c, 6, 50, 0
10, 23400, Note_on_c, 6, 48, 88
10, 23516, Note_off_c, 6, 48, 0
10, 23520, Note_on_c, 6, 47, 88
10, 23636, Note_off_c, 6, 47, 0
10, 23640, Note_on_c, 6, 50, 88
10, 23698, Note_off_c, 6, 50, 0
10, 23700, Note_on_c, 6, 48, 88
10, 23758, Note_off_c, 6, 48, 0
10, 23760, Note_on_c, 6, 47, 88
10, 23876, Note_off_c, 6, 47, 0
10, 23880, Note_on_c, 6, 45, 88
10, 23996, Note_off_c, 6, 45, 0
10, 24000, Note_on_c, 6, 44, 88
10, 24116, Note_off_c, 6, 44, 0
10, 24120, Note_on_c, 6, 45, 88
10, 24236, Note_off_c, 6, 45, 0
10, 24240, Note_on_c, 6, 47, 88
10, 24356, Note_off_c, 6, 47, 0
10, 24360, Note_on_c, 6, 44, 88
10, 24476, Note_off_c, 6, 44, 0
10, 24480, Note_on_c, 6, 45, 88
10, 24596, Note_off_c, 6, 45, 0
10, 24600, Note_on_c, 6, 47, 88
10, 24716, Note_off_c, 6, 47, 0
10, 24720, Note_on_c, 6, 48, 88
10, 24836, Note_off_c, 6, 48, 0
10, 24840, Note_on_c, 6, 53, 88
10, 24956, Note_off_c, 6, 53, 0
10, 24960, Note_on_c, 6, 50, 88
10, 25076, Note_off_c, 6, 50, 0
10, 25080, Note_on_c, 6, 47, 88
10, 25196, Note_off_c, 6, 47, 0
10, 25200, Note_on_c, 6, 52, 88
10, 25316, Note_off_c, 6, 52, 0
10, 25320, Note_on_c, 6, 40, 88
10, 25436, Note_off_c, 6, 40, 0
10, 25440, Note_on_c, 6, 45, 88
10, 25556, Note_off_c, 6, 45, 0
10, 25560, Note_on_c, 6, 57, 88
10, 25676, Note_off_c, 6, 57, 0
10, 25680, Note_on_c, 6, 48, 88
10, 25796, Note_off_c, 6, 48, 0
10, 25800, Note_on_c, 6, 52, 88
10, 25916, Note_off_c, 6, 52, 0
10, 25920, Note_on_c, 6, 45, 88
10, 26036, Note_off_c, 6, 45, 0
10, 26040, Note_on_c, 6, 53, 88
10, 26156, Note_off_c, 6, 53, 0
10, 26160, Note_on_c, 6, 52, 88
10, 26276, Note_off_c, 6, 52, 0
10, 26280, Note_on_c, 6, 50, 88
10, 26396, Note_off_c, 6, 50, 0
10, 26400, Note_on_c, 6, 48, 88
10, 26516, Note_off_c, 6, 48, 0
10, 26520, Note_on_c, 6, 57, 88
10, 26636, Note_off_c, 6, 57, 0
10, 26640, Note_on_c, 6, 55, 88
10, 26756, Note_off_c, 6, 55, 0
10, 26760, Note_on_c, 6, 53, 88
10, 26876, Note_off_c, 6, 53, 0
10, 26880, Note_on_c, 6, 52, 88
10, 26996, Note_off_c, 6, 52, 0
10, 27000, Note_on_c, 6, 57, 88
10, 27058, Note_off_c, 6, 57, 0
10, 27060, Note_on_c, 6, 55, 88
10, 27118, Note_off_c, 6, 55, 0
10, 27120, Note_on_c, 6, 53, 88
10, 27178, Note_off_c, 6, 53, 0
10, 27180, Note_on_c, 6, 52, 88
10, 27238, Note_off_c, 6, 52, 0
10, 27240, Note_on_c, 6, 50, 88
10, 27298, Note_off_c, 6, 50, 0
10, 27300, Note_on_c, 6, 48, 88
10, 27358, Note_off_c, 6, 48, 0
10, 27360, Note_on_c, 6, 47, 88
10, 27476, Note_off_c, 6, 47, 0
10, 27480, Note_on_c, 6, 60, 88
10, 27538, Note_off_c, 6, 60, 0
10, 27540, Note_on_c, 6, 59, 88
10, 27598, Note_off_c, 6, 59, 0
10, 27600, Note_on_c, 6, 57, 88
10, 27658, Note_off_c, 6, 57, 0
10, 27660, Note_on_c, 6, 55, 88
10, 27718, Note_off_c, 6, 55, 0
10, 27720, Note_on_c, 6, 53, 88
10, 27778, Note_off_c, 6, 53, 0
10, 27780, Note_on_c, 6, 52, 88
10, 27838, Note_off_c, 6, 52, 0
10, 27840, Note_on_c, 6, 50, 88
10, 27956, Note_off_c, 6, 50, 0
10, 28080, Note_on_c, 6, 52, 88
10, 28196, Note_off_c, 6, 52, 0
10, 28320, Note_on_c, 6, 53, 88
10, 28436, Note_off_c, 6, 53, 0
10, 28440, Note_on_c, 6, 52, 88
10, 28556, Note_off_c, 6, 52, 0
10, 28560, Note_on_c, 6, 50, 88
10, 28676, Note_off_c, 6, 50, 0
10, 28680, Note_on_c, 6, 52, 88
10, 28796, Note_off_c, 6, 52, 0
10, 28800, Note_on_c, 6, 48, 88
10, 28916, Note_off_c, 6, 48, 0
10, 28920, Note_on_c, 6, 47, 88
10, 29036, Note_off_c, 6, 47, 0
10, 29040, Note_on_c, 6, 48, 88
10, 29156, Note_off_c, 6, 48, 0
10, 29160, Note_on_c, 6, 45, 88
10, 29276, Note_off_c, 6, 45, 0
10, 29280, Note_on_c, 6, 47, 88
10, 29633, Note_off_c, 6, 47, 0
10, 29640, Note_on_c, 6, 45, 88
10, 29756, Note_off_c, 6, 45, 0
10, 29760, Note_on_c, 6, 43, 88
10, 29876, Note_off_c, 6, 43, 0
10, 29880, Note_on_c, 6, 52, 88
10, 29938, Note_off_c, 6, 52, 0
10, 29940, Note_on_c, 6, 51, 88
10, 29998, Note_off_c, 6, 51, 0
10, 30000, Note_on_c, 6, 52, 88
10, 30116, Note_off_c, 6, 52, 0
10, 30120, Note_on_c, 6, 54, 88
10, 30236, Note_off_c, 6, 54, 0
10, 30240, Note_on_c, 6, 55, 88
10, 30353, Note_off_c, 6, 55, 0
10, 30360, Note_on_c, 6, 55, 88
10, 30418, Note_off_c, 6, 55, 0
10, 30420, Note_on_c, 6, 54, 88
10, 30478, Note_off_c, 6, 54, 0
10, 30480, Note_on_c, 6, 55, 88
10, 30596, Note_off_c, 6, 55, 0
10, 30600, Note_on_c, 6, 57, 88
10, 30716, Note_off_c, 6, 57, 0
10, 30720, Note_on_c, 6, 59, 88
10, 30778, Note_off_c, 6, 59, 0
10, 30780, Note_on_c, 6, 57, 88
10, 30838, Note_off_c, 6, 57, 0
10, 30840, Note_on_c, 6, 55, 88
10, 30898, Note_off_c, 6, 55, 0
10, 30900, Note_on_c, 6, 57, 88
10, 30958, Note_off_c, 6, 57, 0
10, 30960, Note_on_c, 6, 59, 88
10, 31076, Note_off_c, 6, 59, 0
10, 31080, Note_on_c, 6, 60, 88
10, 31196, Note_off_c, 6, 60, 0
10, 31200, Note_on_c, 6, 51, 88
10, 31316, Note_off_c, 6, 51, 0
10, 31320, Note_on_c, 6, 47, 88
10, 31436, Note_off_c, 6, 47, 0
10, 31560, Note_on_c, 6, 52, 88
10, 31676, Note_off_c, 6, 52, 0
10, 31680, Note_on_c, 6, 54, 88
10, 31738, Note_off_c, 6, 54, 0
10, 31740, Note_on_c, 6, 55, 88
10, 31798, Note_off_c, 6, 55, 0
10, 31800, Note_on_c, 6, 52, 88
10, 31858, Note_off_c, 6, 52, 0
10, 31860, Note_on_c, 6, 54, 88
10, 31918, Note_off_c, 6, 54, 0
10, 31920, Note_on_c, 6, 55, 88
10, 31978, Note_off_c, 6, 55, 0
10, 31980, Note_on_c, 6, 57, 88
10, 32038, Note_off_c, 6, 57, 0
10, 32040, Note_on_c, 6, 54, 88
10, 32098, Note_off_c, 6, 54, 0
10, 32100, Note_on_c, 6, 55, 88
10, 32158, Note_off_c, 6, 55, 0
10, 32160, Note_on_c, 6, 57, 88
10, 32276, Note_off_c, 6, 57, 0
10, 32280, Note_on_c, 6, 55, 88
10, 32396, Note_off_c, 6, 55, 0
10, 32400, Note_on_c, 6, 54, 88
10, 32516, Note_off_c, 6, 54, 0
10, 32520, Note_on_c, 6, 59, 88
10, 32636, Note_off_c, 6, 59, 0
10, 32640, Note_on_c, 6, 52, 88
10, 32753, Note_off_c, 6, 52, 0
10, 32760, Note_on_c, 6, 52, 88
10, 32818, Note_off_c, 6, 52, 0
10, 32820, Note_on_c, 6, 51, 88
10, 32878, Note_off_c, 6, 51, 0
10, 32880, Note_on_c, 6, 52, 88
10, 32996, Note_off_c, 6, 52, 0
10, 33000, Note_on_c, 6, 54, 88
10, 33116, Note_off_c, 6, 54, 0
10, 33120, Note_on_c, 6, 55, 88
10, 33716, Note_off_c, 6, 55, 0
10, 33720, Note_on_c, 6, 54, 88
10, 33778, Note_off_c, 6, 54, 0
10, 33780, Note_on_c, 6, 52, 88
10, 33838, Note_off_c, 6, 52, 0
10, 33840, Note_on_c, 6, 54, 88
10, 33956, Note_off_c, 6, 54, 0
10, 33960, Note_on_c, 6, 56, 88
10, 34076, Note_off_c, 6, 56, 0
10, 34080, Note_on_c, 6, 57, 88
10, 34196, Note_off_c, 6, 57, 0
10, 34680, Note_on_c, 6, 57, 88
10, 34796, Note_off_c, 6, 57, 0
10, 34800, Note_on_c, 6, 55, 88
10, 34916, Note_off_c, 6, 55, 0
10, 34920, Note_on_c, 6, 53, 88
10, 35036, Note_off_c, 6, 53, 0
10, 35040, Note_on_c, 6, 52, 88
10, 35274, Note_off_c, 6, 52, 0
10, 35640, Note_on_c, 6, 45, 88
10, 35698, Note_off_c, 6, 45, 0
10, 35700, Note_on_c, 6, 47, 88
10, 35758, Note_off_c, 6, 47, 0
10, 35760, Note_on_c, 6, 48, 88
10, 35876, Note_off_c, 6, 48, 0
10, 35880, Note_on_c, 6, 50, 88
10, 36114, Note_off_c, 6, 50, 0
10, 36120, Note_on_c, 6, 48, 88
10, 36178, Note_off_c, 6, 48, 0
10, 36180, Note_on_c, 6, 50, 88
10, 36238, Note_off_c, 6, 50, 0
10, 36240, Note_on_c, 6, 52, 88
10, 36356, Note_off_c, 6, 52, 0
10, 36360, Note_on_c, 6, 53, 88
10, 36596, Note_off_c, 6, 53, 0
10, 36600, Note_on_c, 6, 52, 88
10, 36658, Note_off_c, 6, 52, 0
10, 36660, Note_on_c, 6, 50, 88
10, 36718, Note_off_c, 6, 50, 0
10, 36720, Note_on_c, 6, 52, 88
10, 36836, Note_off_c, 6, 52, 0
10, 36840, Note_on_c, 6, 48, 88
10, 36956, Note_off_c, 6, 48, 0
10, 36960, Note_on_c, 6, 53, 88
10, 37076, Note_off_c, 6, 53, 0
10, 37080, Note_on_c, 6, 52, 88
10, 37138, Note_off_c, 6, 52, 0
10, 37140, Note_on_c, 6, 50, 88
10, 37198, Note_off_c, 6, 50, 0
10, 37200, Note_on_c, 6, 52, 88
10, 37258, Note_off_c, 6, 52, 0
10, 37260, Note_on_c, 6, 53, 88
10, 37318, Note_off_c, 6, 53, 0
10, 37320, Note_on_c, 6, 52, 88
10, 37378, Note_off_c, 6, 52, 0
10, 37380, Note_on_c, 6, 50, 88
10, 37438, Note_off_c, 6, 50, 0
10, 37440, Note_on_c, 6, 49, 88
10, 37556, Note_off_c, 6, 49, 0
10, 37560, Note_on_c, 6, 45, 88
10, 37676, Note_off_c, 6, 45, 0
10, 37680, Note_on_c, 6, 50, 88
10, 37796, Note_off_c, 6, 50, 0
10, 37800, Note_on_c, 6, 48, 88
10, 37916, Note_off_c, 6, 48, 0
10, 37920, Note_on_c, 6, 47, 88
10, 38036, Note_off_c, 6, 47, 0
10, 38040, Note_on_c, 6, 43, 88
10, 38156, Note_off_c, 6, 43, 0
10, 38160, Note_on_c, 6, 48, 88
10, 38276, Note_off_c, 6, 48, 0
10, 38280, Note_on_c, 6, 47, 88
10, 38396, Note_off_c, 6, 47, 0
10, 38400, Note_on_c, 6, 45, 88
10, 38516, Note_off_c, 6, 45, 0
10, 38520, Note_on_c, 6, 47, 88
10, 38578, Note_off_c, 6, 47, 0
10, 38580, Note_on_c, 6, 48, 88
10, 38638, Note_off_c, 6, 48, 0
10, 38640, Note_on_c, 6, 47, 88
10, 38756, Note_off_c, 6, 47, 0
10, 38760, Note_on_c, 6, 43, 88
10, 38876, Note_off_c, 6, 43, 0
10, 38880, Note_on_c, 6, 48, 88
10, 39114, Note_off_c, 6, 48, 0
10, 39240, Note_on_c, 6, 47, 88
10, 39356, Note_off_c, 6, 47, 0
10, 39360, Note_on_c, 6, 45, 88
10, 39594, Note_off_c, 6, 45, 0
10, 39720, Note_on_c, 6, 43, 88
10, 39836, Note_off_c, 6, 43, 0
10, 39840, Note_on_c, 6, 41, 88
10, 39898, Note_off_c, 6, 41, 0
10, 39900, Note_on_c, 6, 55, 88
10, 39958, Note_off_c, 6, 55, 0
10, 39960, Note_on_c, 6, 53, 88
10, 40018, Note_off_c, 6, 53, 0
10, 40020, Note_on_c, 6, 52, 88
10, 40078, Note_off_c, 6, 52, 0
10, 40080, Note_on_c, 6, 50, 88
10, 40138, Note_off_c, 6, 50, 0
10, 40140, Note_on_c, 6, 48, 88
10, 40198, Note_off_c, 6, 48, 0
10, 40200, Note_on_c, 6, 47, 88
10, 40258, Note_off_c, 6, 47, 0
10, 40260, Note_on_c, 6, 45, 88
10, 40318, Note_off_c, 6, 45, 0
10, 40320, Note_on_c, 6, 43, 88
10, 40436, Note_off_c, 6, 43, 0
10, 40440, Note_on_c, 6, 55, 88
10, 40556, Note_off_c, 6, 55, 0
10, 40560, Note_on_c, 6, 57, 88
10, 40676, Note_off_c, 6, 57, 0
10, 40680, Note_on_c, 6, 53, 88
10, 40796, Note_off_c, 6, 53, 0
10, 40800, Note_on_c, 6, 60, 88
10, 40916, Note_off_c, 6, 60, 0
10, 40920, Note_on_c, 6, 48, 88
10, 40978, Note_off_c, 6, 48, 0
10, 40980, Note_on_c, 6, 47, 88
10, 41038, Note_off_c, 6, 47, 0
10, 41040, Note_on_c, 6, 48, 88
10, 41156, Note_off_c, 6, 48, 0
10, 41160, Note_on_c, 6, 50, 88
10, 41276, Note_off_c, 6, 50, 0
10, 41280, Note_on_c, 6, 52, 88
10, 41393, Note_off_c, 6, 52, 0
10, 41400, Note_on_c, 6, 52, 88
10, 41458, Note_off_c, 6, 52, 0
10, 41460, Note_on_c, 6, 50, 88
10, 41518, Note_off_c, 6, 50, 0
10, 41520, Note_on_c, 6, 52, 88
10, 41636, Note_off_c, 6, 52, 0
10, 41640, Note_on_c, 6, 54, 88
10, 41756, Note_off_c, 6, 54, 0
10, 41760, Note_on_c, 6, 55, 88
10, 41818, Note_off_c, 6, 55, 0
10, 41820, Note_on_c, 6, 53, 88
10, 41878, Note_off_c, 6, 53, 0
10, 41880, Note_on_c, 6, 52, 88
10, 41938, Note_off_c, 6, 52, 0
10, 41940, Note_on_c, 6, 53, 88
10, 41998, Note_off_c, 6, 53, 0
10, 42000, Note_on_c, 6, 55, 88
10, 42116, Note_off_c, 6, 55, 0
10, 42120, Note_on_c, 6, 57, 88
10, 42236, Note_off_c, 6, 57, 0
10, 42240, Note_on_c, 6, 47, 88
10, 42356, Note_off_c, 6, 47, 0
10, 42360, Note_on_c, 6, 43, 88
10, 42476, Note_off_c, 6, 43, 0
10, 42600, Note_on_c, 6, 48, 88
10, 42716, Note_off_c, 6, 48, 0
10, 42720, Note_on_c, 6, 50, 88
10, 42778, Note_off_c, 6, 50, 0
10, 42780, Note_on_c, 6, 52, 88
10, 42838, Note_off_c, 6, 52, 0
10, 42840, Note_on_c, 6, 48, 88
10, 42898, Note_off_c, 6, 48, 0
10, 42900, Note_on_c, 6, 50, 88
10, 42958, Note_off_c, 6, 50, 0
10, 42960, Note_on_c, 6, 52, 88
10, 43018, Note_off_c, 6, 52, 0
10, 43020, Note_on_c, 6, 53, 88
10, 43078, Note_off_c, 6, 53, 0
10, 43080, Note_on_c, 6, 50, 88
10, 43138, Note_off_c, 6, 50, 0
10, 43140, Note_on_c, 6, 52, 88
10, 43198, Note_off_c, 6, 52, 0
10, 43200, Note_on_c, 6, 53, 88
10, 43316, Note_off_c, 6, 53, 0
10, 43320, Note_on_c, 6, 52, 88
10, 43436, Note_off_c, 6, 52, 0
10, 43440, Note_on_c, 6, 50, 88
10, 43556, Note_off_c, 6, 50, 0
10, 43560, Note_on_c, 6, 55, 88
10, 43676, Note_off_c, 6, 55, 0
10, 43680, Note_on_c, 6, 48, 88
10, 43796, Note_off_c, 6, 48, 0
10, 43800, Note_on_c, 6, 50, 88
10, 43858, Note_off_c, 6, 50, 0
10, 43860, Note_on_c, 6, 52, 88
10, 43918, Note_off_c, 6, 52, 0
10, 43920, Note_on_c, 6, 53, 88
10, 44394, Note_off_c, 6, 53, 0
10, 44400, Note_on_c, 6, 52, 88
10, 44516, Note_off_c, 6, 52, 0
10, 44520, Note_on_c, 6, 57, 88
10, 44636, Note_off_c, 6, 57, 0
10, 44640, Note_on_c, 6, 50, 88
10, 44756, Note_off_c, 6, 50, 0
10, 44760, Note_on_c, 6, 52, 88
10, 44818, Note_off_c, 6, 52, 0
10, 44820, Note_on_c, 6, 53, 88
10, 44878, Note_off_c, 6, 53, 0
10, 44880, Note_on_c, 6, 55, 88
10, 44996, Note_off_c, 6, 55, 0
10, 45000, Note_on_c, 6, 43, 88
10, 45116, Note_off_c, 6, 43, 0
10, 45120, Note_on_c, 6, 48, 88
10, 45354, Note_off_c, 6, 48, 0
10, 45480, Note_on_c, 6, 52, 88
10, 45596, Note_off_c, 6, 52, 0
10, 45600, Note_on_c, 6, 45, 88
10, 45658, Note_off_c, 6, 45, 0
10, 45660, Note_on_c, 6, 58, 88
10, 45718, Note_off_c, 6, 58, 0
10, 45720, Note_on_c, 6, 57, 88
10, 45778, Note_off_c, 6, 57, 0
10, 45780, Note_on_c, 6, 55, 88
10, 45838, Note_off_c, 6, 55, 0
10, 45840, Note_on_c, 6, 53, 88
10, 45898, Note_off_c, 6, 53, 0
10, 45900, Note_on_c, 6, 52, 88
10, 45958, Note_off_c, 6, 52, 0
10, 45960, Note_on_c, 6, 50, 88
10, 46018, Note_off_c, 6, 50, 0
10, 46020, Note_on_c, 6, 49, 88
10, 46078, Note_off_c, 6, 49, 0
10, 46080, Note_on_c, 6, 50, 88
10, 46907, Note_off_c, 6, 50, 0
10, 46920, Note_on_c, 6, 52, 88
10, 47036, Note_off_c, 6, 52, 0
10, 47040, Note_on_c, 6, 53, 88
10, 47571, Note_off_c, 6, 53, 0
10, 47580, Note_on_c, 6, 55, 88
10, 47638, Note_off_c, 6, 55, 0
10, 47640, Note_on_c, 6, 53, 88
10, 47698, Note_off_c, 6, 53, 0
10, 47700, Note_on_c, 6, 52, 88
10, 47758, Note_off_c, 6, 52, 0
10, 47760, Note_on_c, 6, 50, 88
10, 48116, Note_off_c, 6, 50, 0
10, 48120, Note_on_c, 6, 48, 88
10, 48354, Note_off_c, 6, 48, 0
10, 48360, Note_on_c, 6, 47, 88
10, 48476, Note_off_c, 6, 47, 0
10, 48480, Note_on_c, 6, 48, 88
10, 48596, Note_off_c, 6, 48, 0
10, 48600, Note_on_c, 6, 50, 88
10, 48716, Note_off_c, 6, 50, 0
10, 48720, Note_on_c, 6, 43, 88
10, 49076, Note_off_c, 6, 43, 0
10, 49080, Note_on_c, 6, 57, 88
10, 49196, Note_off_c, 6, 57, 0
10, 49200, Note_on_c, 6, 55, 88
10, 49316, Note_off_c, 6, 55, 0
10, 49320, Note_on_c, 6, 53, 88
10, 49436, Note_off_c, 6, 53, 0
10, 49440, Note_on_c, 6, 52, 88
10, 49556, Note_off_c, 6, 52, 0
10, 49560, Note_on_c, 6, 50, 88
10, 49676, Note_off_c, 6, 50, 0
10, 49680, Note_on_c, 6, 48, 88
10, 49796, Note_off_c, 6, 48, 0
10, 49800, Note_on_c, 6, 52, 88
10, 49916, Note_off_c, 6, 52, 0
10, 49920, Note_on_c, 6, 50, 88
10, 50033, Note_off_c, 6, 50, 0
10, 50040, Note_on_c, 6, 50, 88
10, 50098, Note_off_c, 6, 50, 0
10, 50100, Note_on_c, 6, 52, 88
10, 50158, Note_off_c, 6, 52, 0
10, 50160, Note_on_c, 6, 50, 88
10, 50276, Note_off_c, 6, 50, 0
10, 50280, Note_on_c, 6, 48, 88
10, 50396, Note_off_c, 6, 48, 0
10, 50400, Note_on_c, 6, 47, 88
10, 50513, Note_off_c, 6, 47, 0
10, 50520, Note_on_c, 6, 47, 88
10, 50578, Note_off_c, 6, 47, 0
10, 50580, Note_on_c, 6, 48, 88
10, 50638, Note_off_c, 6, 48, 0
10, 50640, Note_on_c, 6, 47, 88
10, 50756, Note_off_c, 6, 47, 0
10, 50760, Note_on_c, 6, 45, 88
10, 50876, Note_off_c, 6, 45, 0
10, 50880, Note_on_c, 6, 43, 88
10, 50938, Note_off_c, 6, 43, 0
10, 50940, Note_on_c, 6, 45, 88
10, 50998, Note_off_c, 6, 45, 0
10, 51000, Note_on_c, 6, 47, 88
10, 51058, Note_off_c, 6, 47, 0
10, 51060, Note_on_c, 6, 45, 88
10, 51118, Note_off_c, 6, 45, 0
10, 51120, Note_on_c, 6, 43, 88
10, 51236, Note_off_c, 6, 43, 0
10, 51240, Note_on_c, 6, 42, 88
10, 51356, Note_off_c, 6, 42, 0
10, 51360, Note_on_c, 6, 52, 88
10, 51476, Note_off_c, 6, 52, 0
10, 51480, Note_on_c, 6, 55, 88
10, 51596, Note_off_c, 6, 55, 0
10, 51720, Note_on_c, 6, 50, 88
10, 51836, Note_off_c, 6, 50, 0
10, 51840, Note_on_c, 6, 48, 88
10, 51898, Note_off_c, 6, 48, 0
10, 51900, Note_on_c, 6, 47, 88
10, 51958, Note_off_c, 6, 47, 0
10, 51960, Note_on_c, 6, 50, 88
10, 52018, Note_off_c, 6, 50, 0
10, 52020, Note_on_c, 6, 48, 88
10, 52078, Note_off_c, 6, 48, 0
10, 52080, Note_on_c, 6, 47, 88
10, 52138, Note_off_c, 6, 47, 0
10, 52140, Note_on_c, 6, 45, 88
10, 52198, Note_off_c, 6, 45, 0
10, 52200, Note_on_c, 6, 48, 88
10, 52258, Note_off_c, 6, 48, 0
10, 52260, Note_on_c, 6, 47, 88
10, 52318, Note_off_c, 6, 47, 0
10, 52320, Note_on_c, 6, 45, 88
10, 52436, Note_off_c, 6, 45, 0
10, 52440, Note_on_c, 6, 47, 88
10, 52556, Note_off_c, 6, 47, 0
10, 52560, Note_on_c, 6, 48, 88
10, 52676, Note_off_c, 6, 48, 0
10, 52680, Note_on_c, 6, 43, 88
10, 52796, Note_off_c, 6, 43, 0
10, 52800, Note_on_c, 6, 50, 88
10, 53034, Note_off_c, 6, 50, 0
10, 53040, Note_on_c, 6, 52, 88
10, 53274, Note_off_c, 6, 52, 0
10, 53280, Note_on_c, 6, 54, 88
10, 53514, Note_off_c, 6, 54, 0
10, 53520, Note_on_c, 6, 55, 88
10, 53754, Note_off_c, 6, 55, 0
10, 53760, Note_on_c, 6, 57, 88
10, 53994, Note_off_c, 6, 57, 0
10, 54000, Note_on_c, 6, 59, 88
10, 54116, Note_off_c, 6, 59, 0
10, 54120, Note_on_c, 6, 57, 88
10, 54236, Note_off_c, 6, 57, 0
10, 54240, Note_on_c, 6, 56, 88
10, 54356, Note_off_c, 6, 56, 0
10, 54360, Note_on_c, 6, 52, 88
10, 54476, Note_off_c, 6, 52, 0
10, 54480, Note_on_c, 6, 54, 88
10, 54596, Note_off_c, 6, 54, 0
10, 54600, Note_on_c, 6, 56, 88
10, 54716, Note_off_c, 6, 56, 0
10, 54720, Note_on_c, 6, 57, 88
10, 54836, Note_off_c, 6, 57, 0
10, 54840, Note_on_c, 6, 48, 88
10, 54956, Note_off_c, 6, 48, 0
10, 54960, Note_on_c, 6, 50, 88
10, 55076, Note_off_c, 6, 50, 0
10, 55080, Note_on_c, 6, 52, 88
10, 55196, Note_off_c, 6, 52, 0
10, 55200, Note_on_c, 6, 53, 88
10, 55434, Note_off_c, 6, 53, 0
10, 55560, Note_on_c, 6, 49, 88
10, 55676, Note_off_c, 6, 49, 0
10, 55680, Note_on_c, 6, 50, 88
10, 55796, Note_off_c, 6, 50, 0
10, 55800, Note_on_c, 6, 52, 88
10, 55916, Note_off_c, 6, 52, 0
10, 55920, Note_on_c, 6, 53, 88
10, 56036, Note_off_c, 6, 53, 0
10, 56040, Note_on_c, 6, 49, 88
10, 56156, Note_off_c, 6, 49, 0
10, 56160, Note_on_c, 6, 50, 88
10, 56394, Note_off_c, 6, 50, 0
10, 56400, Note_on_c, 6, 45, 88
10, 56756, Note_off_c, 6, 45, 0
10, 56760, Note_on_c, 6, 44, 88
10, 56876, Note_off_c, 6, 44, 0
10, 56880, Note_on_c, 6, 45, 88
10, 57114, Note_off_c, 6, 45, 0
10, 57120, Note_on_c, 6, 40, 88
10, 58676, Note_off_c, 6, 40, 0
10, 58680, Note_on_c, 6, 52, 88
10, 58738, Note_off_c, 6, 52, 0
10, 58740, Note_on_c, 6, 53, 88
10, 58798, Note_off_c, 6, 53, 0
10, 58800, Note_on_c, 6, 52, 88
10, 58916, Note_off_c, 6, 52, 0
10, 58920, Note_on_c, 6, 50, 88
10, 59036, Note_off_c, 6, 50, 0
10, 59040, Note_on_c, 6, 49, 88
10, 59153, Note_off_c, 6, 49, 0
10, 59160, Note_on_c, 6, 49, 88
10, 59218, Note_off_c, 6, 49, 0
10, 59220, Note_on_c, 6, 50, 88
10, 59278, Note_off_c, 6, 50, 0
10, 59280, Note_on_c, 6, 49, 88
10, 59396, Note_off_c, 6, 49, 0
10, 59400, Note_on_c, 6, 47, 88
10, 59516, Note_off_c, 6, 47, 0
10, 59520, Note_on_c, 6, 45, 88
10, 59578, Note_off_c, 6, 45, 0
10, 59580, Note_on_c, 6, 47, 88
10, 59638, Note_off_c, 6, 47, 0
10, 59640, Note_on_c, 6, 49, 88
10, 59698, Note_off_c, 6, 49, 0
10, 59700, Note_on_c, 6, 47, 88
10, 59758, Note_off_c, 6, 47, 0
10, 59760, Note_on_c, 6, 45, 88
10, 59876, Note_off_c, 6, 45, 0
10, 59880, Note_on_c, 6, 43, 88
10, 59996, Note_off_c, 6, 43, 0
10, 60000, Note_on_c, 6, 41, 88
10, 60234, Note_off_c, 6, 41, 0
10, 60360, Note_on_c, 6, 53, 88
10, 60476, Note_off_c, 6, 53, 0
10, 60480, Note_on_c, 6, 58, 88
10, 60596, Note_off_c, 6, 58, 0
10, 60600, Note_on_c, 6, 55, 88
10, 60716, Note_off_c, 6, 55, 0
10, 60720, Note_on_c, 6, 57, 88
10, 60954, Note_off_c, 6, 57, 0
10, 60960, Note_on_c, 6, 50, 88
10, 61073, Note_off_c, 6, 50, 0
10, 61080, Note_on_c, 6, 50, 88
10, 61138, Note_off_c, 6, 50, 0
10, 61140, Note_on_c, 6, 49, 88
10, 61198, Note_off_c, 6, 49, 0
10, 61200, Note_on_c, 6, 50, 88
10, 61316, Note_off_c, 6, 50, 0
10, 61320, Note_on_c, 6, 52, 88
10, 61436, Note_off_c, 6, 52, 0
10, 61440, Note_on_c, 6, 53, 88
10, 61553, Note_off_c, 6, 53, 0
10, 61560, Note_on_c, 6, 53, 88
10, 61618, Note_off_c, 6, 53, 0
10, 61620, Note_on_c, 6, 52, 88
10, 61678, Note_off_c, 6, 52, 0
10, 61680, Note_on_c, 6, 54, 88
10, 61796, Note_off_c, 6, 54, 0
10, 61800, Note_on_c, 6, 56, 88
10, 61916, Note_off_c, 6, 56, 0
10, 61920, Note_on_c, 6, 57, 88
10, 61978, Note_off_c, 6, 57, 0
10, 61980, Note_on_c, 6, 56, 88
10, 62038, Note_off_c, 6, 56, 0
10, 62040, Note_on_c, 6, 54, 88
10, 62098, Note_off_c, 6, 54, 0
10, 62100, Note_on_c, 6, 56, 88
10, 62158, Note_off_c, 6, 56, 0
10, 62160, Note_on_c, 6, 57, 88
10, 62276, Note_off_c, 6, 57, 0
10, 62280, Note_on_c, 6, 59, 88
10, 62396, Note_off_c, 6, 59, 0
10, 62400, Note_on_c, 6, 48, 88
10, 62516, Note_off_c, 6, 48, 0
10, 62520, Note_on_c, 6, 45, 88
10, 62636, Note_off_c, 6, 45, 0
10, 62760, Note_on_c, 6, 50, 88
10, 62876, Note_off_c, 6, 50, 0
10, 62880, Note_on_c, 6, 52, 88
10, 62938, Note_off_c, 6, 52, 0
10, 62940, Note_on_c, 6, 53, 88
10, 62998, Note_off_c, 6, 53, 0
10, 63000, Note_on_c, 6, 50, 88
10, 63058, Note_off_c, 6, 50, 0
10, 63060, Note_on_c, 6, 52, 88
10, 63118, Note_off_c, 6, 52, 0
10, 63120, Note_on_c, 6, 53, 88
10, 63178, Note_off_c, 6, 53, 0
10, 63180, Note_on_c, 6, 55, 88
10, 63238, Note_off_c, 6, 55, 0
10, 63240, Note_on_c, 6, 52, 88
10, 63298, Note_off_c, 6, 52, 0
10, 63300, Note_on_c, 6, 54, 88
10, 63358, Note_off_c, 6, 54, 0
10, 63360, Note_on_c, 6, 55, 88
10, 63476, Note_off_c, 6, 55, 0
10, 63480, Note_on_c, 6, 53, 88
10, 63596, Note_off_c, 6, 53, 0
10, 63600, Note_on_c, 6, 52, 88
10, 63716, Note_off_c, 6, 52, 0
10, 63720, Note_on_c, 6, 57, 88
10, 63836, Note_off_c, 6, 57, 0
10, 63840, Note_on_c, 6, 50, 88
10, 63956, Note_off_c, 6, 50, 0
10, 63960, Note_on_c, 6, 57, 88
10, 64135, Note_off_c, 6, 57, 0
10, 64140, Note_on_c, 6, 56, 88
10, 64198, Note_off_c, 6, 56, 0
10, 64200, Note_on_c, 6, 57, 88
10, 64258, Note_off_c, 6, 57, 0
10, 64260, Note_on_c, 6, 56, 88
10, 64318, Note_off_c, 6, 56, 0
10, 64320, Note_on_c, 6, 57, 88
10, 64614, Note_off_c, 6, 57, 0
10, 64620, Note_on_c, 6, 55, 88
10, 64678, Note_off_c, 6, 55, 0
10, 64680, Note_on_c, 6, 53, 88
10, 64738, Note_off_c, 6, 53, 0
10, 64740, Note_on_c, 6, 52, 88
10, 64798, Note_off_c, 6, 52, 0
10, 64800, Note_on_c, 6, 53, 88
10, 65094, Note_off_c, 6, 53, 0
10, 65100, Note_on_c, 6, 52, 88
10, 65158, Note_off_c, 6, 52, 0
10, 65160, Note_on_c, 6, 50, 88
10, 65218, Note_off_c, 6, 50, 0
10, 65220, Note_on_c, 6, 49, 88
10, 65278, Note_off_c, 6, 49, 0
10, 65280, Note_on_c, 6, 50, 88
10, 65396, Note_off_c, 6, 50, 0
10, 69240, Note_on_c, 6, 48, 88
10, 69298, Note_off_c, 6, 48, 0
10, 69300, Note_on_c, 6, 50, 88
10, 69358, Note_off_c, 6, 50, 0
10, 69360, Note_on_c, 6, 48, 88
10, 69476, Note_off_c, 6, 48, 0
10, 69480, Note_on_c, 6, 46, 88
10, 69596, Note_off_c, 6, 46, 0
10, 69600, Note_on_c, 6, 45, 88
10, 69713, Note_off_c, 6, 45, 0
10, 69720, Note_on_c, 6, 45, 88
10, 69778, Note_off_c, 6, 45, 0
10, 69780, Note_on_c, 6, 46, 88
10, 69838, Note_off_c, 6, 46, 0
10, 69840, Note_on_c, 6, 45, 88
10, 69956, Note_off_c, 6, 45, 0
10, 69960, Note_on_c, 6, 43, 88
10, 70076, Note_off_c, 6, 43, 0
10, 70080, Note_on_c, 6, 41, 88
10, 70138, Note_off_c, 6, 41, 0
10, 70140, Note_on_c, 6, 43, 88
10, 70198, Note_off_c, 6, 43, 0
10, 70200, Note_on_c, 6, 45, 88
10, 70258, Note_off_c, 6, 45, 0
10, 70260, Note_on_c, 6, 43, 88
10, 70318, Note_off_c, 6, 43, 0
10, 70320, Note_on_c, 6, 41, 88
10, 70436, Note_off_c, 6, 41, 0
10, 70440, Note_on_c, 6, 39, 88
10, 70556, Note_off_c, 6, 39, 0
10, 70560, Note_on_c, 6, 50, 88
10, 70676, Note_off_c, 6, 50, 0
10, 70680, Note_on_c, 6, 54, 88
10, 70796, Note_off_c, 6, 54, 0
10, 70920, Note_on_c, 6, 48, 88
10, 71036, Note_off_c, 6, 48, 0
10, 71040, Note_on_c, 6, 46, 88
10, 71098, Note_off_c, 6, 46, 0
10, 71100, Note_on_c, 6, 45, 88
10, 71158, Note_off_c, 6, 45, 0
10, 71160, Note_on_c, 6, 48, 88
10, 71218, Note_off_c, 6, 48, 0
10, 71220, Note_on_c, 6, 46, 88
10, 71278, Note_off_c, 6, 46, 0
10, 71280, Note_on_c, 6, 45, 88
10, 71338, Note_off_c, 6, 45, 0
10, 71340, Note_on_c, 6, 43, 88
10, 71398, Note_off_c, 6, 43, 0
10, 71400, Note_on_c, 6, 46, 88
10, 71458, Note_off_c, 6, 46, 0
10, 71460, Note_on_c, 6, 45, 88
10, 71518, Note_off_c, 6, 45, 0
10, 71520, Note_on_c, 6, 43, 88
10, 71873, Note_off_c, 6, 43, 0
10, 71880, Note_on_c, 6, 42, 88
10, 71996, Note_off_c, 6, 42, 0
10, 72000, Note_on_c, 6, 43, 88
10, 73550, Note_off_c, 6, 43, 0
10, 73560, Note_on_c, 6, 52, 88
10, 73618, Note_off_c, 6, 52, 0
10, 73620, Note_on_c, 6, 53, 88
10, 73678, Note_off_c, 6, 53, 0
10, 73680, Note_on_c, 6, 55, 88
10, 73738, Note_off_c, 6, 55, 0
10, 73740, Note_on_c, 6, 53, 88
10, 73798, Note_off_c, 6, 53, 0
10, 73800, Note_on_c, 6, 52, 88
10, 73858, Note_off_c, 6, 52, 0
10, 73860, Note_on_c, 6, 50, 88
10, 73918, Note_off_c, 6, 50, 0
10, 73920, Note_on_c, 6, 49, 88
10, 74036, Note_off_c, 6, 49, 0
10, 74520, Note_on_c, 6, 64, 88
10, 74636, Note_off_c, 6, 64, 0
10, 74640, Note_on_c, 6, 61, 88
10, 74756, Note_off_c, 6, 61, 0
10, 74760, Note_on_c, 6, 57, 88
10, 74876, Note_off_c, 6, 57, 0
10, 74880, Note_on_c, 6, 50, 88
10, 74996, Note_off_c, 6, 50, 0
10, 75360, Note_on_c, 6, 50, 88
10, 75476, Note_off_c, 6, 50, 0
10, 75840, Note_on_c, 6, 50, 88
10, 76074, Note_off_c, 6, 50, 0
10, 76320, Note_on_c, 6, 51, 88
10, 76554, Note_off_c, 6, 51, 0
10, 76800, Note_on_c, 6, 52, 88
10, 77034, Note_off_c, 6, 52, 0
10, 77280, Note_on_c, 6, 52, 88
10, 77514, Note_off_c, 6, 52, 0
10, 78240, Note_on_c, 6, 54, 88
10, 78474, Note_off_c, 6, 54, 0
10, 78600, Note_on_c, 6, 56, 88
10, 78716, Note_off_c, 6, 56, 0
10, 78720, Note_on_c, 6, 57, 88
10, 78836, Note_off_c, 6, 57, 0
10, 78840, Note_on_c, 6, 50, 88
10, 78956, Note_off_c, 6, 50, 0
10, 78960, Note_on_c, 6, 52, 88
10, 79194, Note_off_c, 6, 52, 0
10, 79200, Note_on_c, 6, 45, 88
10, 83505, Note_off_c, 6, 45, 0
10, 83505, End_track
0, 0, End_of_file
