0, 0, Header, 1, 7, 240
1, 0, Start_track
1, 0, Time_signature, 4, 2, 24, 8
1, 0, Tempo, 681818
1, 0, SMPTE_offset, 64, 0, 0, 0, 93
1, 0, End_track
2, 0, Start_track
2, 0, Title_t, "(C) & (P) 1993"
2, 127, End_track
3, 0, Start_track
3, 0, Title_t, "CCARH,Stanford"
3, 0, End_track
4, 0, Start_track
4, 0, Title_t, "Track 1"
4, 0, Program_c, 0, 6
4, 360, Note_on_c, 0, 68, 88
4, 476, Note_off_c, 0, 68, 0
4, 480, Note_on_c, 0, 70, 88
4, 538, Note_off_c, 0, 70, 0
4, 540, Note_on_c, 0, 68, 88
4, 598, Note_off_c, 0, 68, 0
4, 600, Note_on_c, 0, 66, 88
4, 658, Note_off_c, 0, 66, 0
4, 660, Note_on_c, 0, 68, 88
4, 718, Note_off_c, 0, 68, 0
4, 720, Note_on_c, 0, 77, 88
4, 836, Note_off_c, 0, 77, 0
4, 840, Note_on_c, 0, 73, 88
4, 956, Note_off_c, 0, 73, 0
4, 960, Note_on_c, 0, 68, 88
4, 1076, Note_off_c, 0, 68, 0
4, 1080, Note_on_c, 0, 66, 88
4, 1138, Note_off_c, 0, 66, 0
4, 1140, Note_on_c, 0, 65, 88
4, 1198, Note_off_c, 0, 65, 0
4, 1200, Note_on_c, 0, 66, 88
4, 1316, Note_off_c, 0, 66, 0
4, 1320, Note_on_c, 0, 75, 88
4, 1436, Note_off_c, 0, 75, 0
4, 1440, Note_on_c, 0, 65, 88
4, 1556, Note_off_c, 0, 65, 0
4, 1560, Note_on_c, 0, 73, 88
4, 1676, Note_off_c, 0, 73, 0
4, 1680, Note_on_c, 0, 63, 88
4, 1796, Note_off_c, 0, 63, 0
4, 1800, Note_on_c, 0, 72, 88
4, 1916, Note_off_c, 0, 72, 0
4, 1920, Note_on_c, 0, 61, 88
4, 2036, Note_off_c, 0, 61, 0
4, 2040, Note_on_c, 0, 73, 88
4, 2098, Note_off_c, 0, 73, 0
4, 2100, Note_on_c, 0, 72, 88
4, 2158, Note_off_c, 0, 72, 0
4, 2160, Note_on_c, 0, 73, 88
4, 2218, Note_off_c, 0, 73, 0
4, 2220, Note_on_c, 0, 75, 88
4, 2278, Note_off_c, 0, 75, 0
4, 2280, Note_on_c, 0, 77, 88
4, 2338, Note_off_c, 0, 77, 0
4, 2340, Note_on_c, 0, 78, 88
4, 2398, Note_off_c, 0, 78, 0
4, 2400, Note_on_c, 0, 80, 88
4, 2458, Note_off_c, 0, 80, 0
4, 2460, Note_on_c, 0, 79, 88
4, 2518, Note_off_c, 0, 79, 0
4, 2520, Note_on_c, 0, 77, 88
4, 2578, Note_off_c, 0, 77, 0
4, 2580, Note_on_c, 0, 79, 88
4, 2638, Note_off_c, 0, 79, 0
4, 2640, Note_on_c, 0, 80, 88
4, 2698, Note_off_c, 0, 80, 0
4, 2700, Note_on_c, 0, 78, 88
4, 2758, Note_off_c, 0, 78, 0
4, 2760, Note_on_c, 0, 77, 88
4, 2818, Note_off_c, 0, 77, 0
4, 2820, Note_on_c, 0, 75, 88
4, 2878, Note_off_c, 0, 75, 0
4, 2880, Note_on_c, 0, 77, 88
4, 3174, Note_off_c, 0, 77, 0
4, 3180, Note_on_c, 0, 75, 88
4, 3238, Note_off_c, 0, 75, 0
4, 3240, Note_on_c, 0, 73, 88
4, 3298, Note_off_c, 0, 73, 0
4, 3300, Note_on_c, 0, 77, 88
4, 3358, Note_off_c, 0, 77, 0
4, 3360, Note_on_c, 0, 75, 88
4, 3418, Note_off_c, 0, 75, 0
4, 3420, Note_on_c, 0, 73, 88
4, 3478, Note_off_c, 0, 73, 0
4, 3480, Note_on_c, 0, 72, 88
4, 3538, Note_off_c, 0, 72, 0
4, 3540, Note_on_c, 0, 75, 88
4, 3598, Note_off_c, 0, 75, 0
4, 3600, Note_on_c, 0, 73, 88
4, 3658, Note_off_c, 0, 73, 0
4, 3660, Note_on_c, 0, 72, 88
4, 3718, Note_off_c, 0, 72, 0
4, 3720, Note_on_c, 0, 73, 88
4, 3778, Note_off_c, 0, 73, 0
4, 3780, Note_on_c, 0, 70, 88
4, 3838, Note_off_c, 0, 70, 0
4, 3840, Note_on_c, 0, 70, 88
4, 3898, Note_off_c, 0, 70, 0
4, 3900, Note_on_c, 0, 72, 88
4, 3958, Note_off_c, 0, 72, 0
4, 3960, Note_on_c, 0, 75, 88
4, 4076, Note_off_c, 0, 75, 0
4, 4080, Note_on_c, 0, 78, 88
4, 4550, Note_off_c, 0, 78, 0
4, 4560, Note_on_c, 0, 77, 88
4, 5034, Note_off_c, 0, 77, 0
4, 5040, Note_on_c, 0, 75, 88
4, 5393, Note_off_c, 0, 75, 0
4, 5400, Note_on_c, 0, 73, 88
4, 5516, Note_off_c, 0, 73, 0
4, 5520, Note_on_c, 0, 72, 88
4, 5636, Note_off_c, 0, 72, 0
4, 5640, Note_on_c, 0, 75, 88
4, 5876, Note_off_c, 0, 75, 0
4, 5880, Note_on_c, 0, 68, 88
4, 5996, Note_off_c, 0, 68, 0
4, 6000, Note_on_c, 0, 77, 88
4, 6338, Note_off_c, 0, 77, 0
4, 6360, Note_on_c, 0, 77, 88
4, 6418, Note_off_c, 0, 77, 0
4, 6420, Note_on_c, 0, 73, 88
4, 6478, Note_off_c, 0, 73, 0
4, 6480, Note_on_c, 0, 70, 88
4, 6818, Note_off_c, 0, 70, 0
4, 6840, Note_on_c, 0, 70, 88
4, 6956, Note_off_c, 0, 70, 0
4, 6960, Note_on_c, 0, 75, 88
4, 7298, Note_off_c, 0, 75, 0
4, 7320, Note_on_c, 0, 75, 88
4, 7378, Note_off_c, 0, 75, 0
4, 7380, Note_on_c, 0, 72, 88
4, 7438, Note_off_c, 0, 72, 0
4, 7440, Note_on_c, 0, 68, 88
4, 7778, Note_off_c, 0, 68, 0
4, 7800, Note_on_c, 0, 68, 88
4, 7916, Note_off_c, 0, 68, 0
4, 7920, Note_on_c, 0, 73, 88
4, 8214, Note_off_c, 0, 73, 0
4, 8220, Note_on_c, 0, 72, 88
4, 8278, Note_off_c, 0, 72, 0
4, 8280, Note_on_c, 0, 73, 88
4, 8338, Note_off_c, 0, 73, 0
4, 8340, Note_on_c, 0, 70, 88
4, 8398, Note_off_c, 0, 70, 0
4, 8400, Note_on_c, 0, 82, 88
4, 8698, Note_off_c, 0, 82, 0
4, 8700, Note_on_c, 0, 80, 88
4, 8758, Note_off_c, 0, 80, 0
4, 8760, Note_on_c, 0, 79, 88
4, 8818, Note_off_c, 0, 79, 0
4, 8820, Note_on_c, 0, 82, 88
4, 8878, Note_off_c, 0, 82, 0
4, 8880, Note_on_c, 0, 80, 88
4, 8938, Note_off_c, 0, 80, 0
4, 8940, Note_on_c, 0, 75, 88
4, 8998, Note_off_c, 0, 75, 0
4, 9000, Note_on_c, 0, 77, 88
4, 9058, Note_off_c, 0, 77, 0
4, 9060, Note_on_c, 0, 78, 88
4, 9118, Note_off_c, 0, 78, 0
4, 9120, Note_on_c, 0, 77, 88
4, 9178, Note_off_c, 0, 77, 0
4, 9180, Note_on_c, 0, 75, 88
4, 9238, Note_off_c, 0, 75, 0
4, 9240, Note_on_c, 0, 73, 88
4, 9298, Note_off_c, 0, 73, 0
4, 9300, Note_on_c, 0, 75, 88
4, 9358, Note_off_c, 0, 75, 0
4, 9360, Note_on_c, 0, 84, 88
4, 9476, Note_off_c, 0, 84, 0
4, 9480, Note_on_c, 0, 80, 88
4, 9596, Note_off_c, 0, 80, 0
4, 9600, Note_on_c, 0, 75, 88
4, 9716, Note_off_c, 0, 75, 0
4, 9720, Note_on_c, 0, 73, 88
4, 9778, Note_off_c, 0, 73, 0
4, 9780, Note_on_c, 0, 72, 88
4, 9838, Note_off_c, 0, 72, 0
4, 9840, Note_on_c, 0, 73, 88
4, 9956, Note_off_c, 0, 73, 0
4, 9960, Note_on_c, 0, 82, 88
4, 10076, Note_off_c, 0, 82, 0
4, 10080, Note_on_c, 0, 72, 88
4, 10196, Note_off_c, 0, 72, 0
4, 10200, Note_on_c, 0, 80, 88
4, 10316, Note_off_c, 0, 80, 0
4, 10320, Note_on_c, 0, 70, 88
4, 10436, Note_off_c, 0, 70, 0
4, 10440, Note_on_c, 0, 79, 88
4, 10556, Note_off_c, 0, 79, 0
4, 10560, Note_on_c, 0, 68, 88
4, 10618, Note_off_c, 0, 68, 0
4, 10620, Note_on_c, 0, 70, 88
4, 10678, Note_off_c, 0, 70, 0
4, 10680, Note_on_c, 0, 72, 88
4, 10738, Note_off_c, 0, 72, 0
4, 10740, Note_on_c, 0, 73, 88
4, 10798, Note_off_c, 0, 73, 0
4, 10800, Note_on_c, 0, 72, 88
4, 10858, Note_off_c, 0, 72, 0
4, 10860, Note_on_c, 0, 70, 88
4, 10918, Note_off_c, 0, 70, 0
4, 10920, Note_on_c, 0, 68, 88
4, 10978, Note_off_c, 0, 68, 0
4, 10980, Note_on_c, 0, 72, 88
4, 11038, Note_off_c, 0, 72, 0
4, 11040, Note_on_c, 0, 77, 88
4, 11098, Note_off_c, 0, 77, 0
4, 11100, Note_on_c, 0, 75, 88
4, 11158, Note_off_c, 0, 75, 0
4, 11160, Note_on_c, 0, 74, 88
4, 11218, Note_off_c, 0, 74, 0
4, 11220, Note_on_c, 0, 77, 88
4, 11278, Note_off_c, 0, 77, 0
4, 11280, Note_on_c, 0, 80, 88
4, 11338, Note_off_c, 0, 80, 0
4, 11340, Note_on_c, 0, 78, 88
4, 11398, Note_off_c, 0, 78, 0
4, 11400, Note_on_c, 0, 77, 88
4, 11458, Note_off_c, 0, 77, 0
4, 11460, Note_on_c, 0, 80, 88
4, 11518, Note_off_c, 0, 80, 0
4, 11520, Note_on_c, 0, 80, 88
4, 11549, Note_off_c, 0, 80, 0
4, 11550, Note_on_c, 0, 82, 88
4, 11579, Note_off_c, 0, 82, 0
4, 11580, Note_on_c, 0, 83, 88
4, 11638, Note_off_c, 0, 83, 0
4, 11640, Note_on_c, 0, 82, 88
4, 11698, Note_off_c, 0, 82, 0
4, 11700, Note_on_c, 0, 80, 88
4, 11758, Note_off_c, 0, 80, 0
4, 11760, Note_on_c, 0, 78, 88
4, 11818, Note_off_c, 0, 78, 0
4, 11820, Note_on_c, 0, 77, 88
4, 11878, Note_off_c, 0, 77, 0
4, 11880, Note_on_c, 0, 75, 88
4, 11938, Note_off_c, 0, 75, 0
4, 11940, Note_on_c, 0, 74, 88
4, 11998, Note_off_c, 0, 74, 0
4, 12000, Note_on_c, 0, 75, 88
4, 12058, Note_off_c, 0, 75, 0
4, 12060, Note_on_c, 0, 78, 88
4, 12118, Note_off_c, 0, 78, 0
4, 12120, Note_on_c, 0, 77, 88
4, 12178, Note_off_c, 0, 77, 0
4, 12180, Note_on_c, 0, 75, 88
4, 12238, Note_off_c, 0, 75, 0
4, 12240, Note_on_c, 0, 74, 88
4, 12298, Note_off_c, 0, 74, 0
4, 12300, Note_on_c, 0, 77, 88
4, 12358, Note_off_c, 0, 77, 0
4, 12360, Note_on_c, 0, 70, 88
4, 12418, Note_off_c, 0, 70, 0
4, 12420, Note_on_c, 0, 68, 88
4, 12478, Note_off_c, 0, 68, 0
4, 12480, Note_on_c, 0, 66, 88
4, 12538, Note_off_c, 0, 66, 0
4, 12540, Note_on_c, 0, 65, 88
4, 12598, Note_off_c, 0, 65, 0
4, 12600, Note_on_c, 0, 63, 88
4, 12658, Note_off_c, 0, 63, 0
4, 12660, Note_on_c, 0, 62, 88
4, 12718, Note_off_c, 0, 62, 0
4, 12720, Note_on_c, 0, 63, 88
4, 12778, Note_off_c, 0, 63, 0
4, 12780, Note_on_c, 0, 65, 88
4, 12838, Note_off_c, 0, 65, 0
4, 12840, Note_on_c, 0, 66, 88
4, 12898, Note_off_c, 0, 66, 0
4, 12900, Note_on_c, 0, 68, 88
4, 12958, Note_off_c, 0, 68, 0
4, 12960, Note_on_c, 0, 70, 88
4, 13018, Note_off_c, 0, 70, 0
4, 13020, Note_on_c, 0, 68, 88
4, 13078, Note_off_c, 0, 68, 0
4, 13080, Note_on_c, 0, 66, 88
4, 13138, Note_off_c, 0, 66, 0
4, 13140, Note_on_c, 0, 68, 88
4, 13198, Note_off_c, 0, 68, 0
4, 13200, Note_on_c, 0, 70, 88
4, 13258, Note_off_c, 0, 70, 0
4, 13260, Note_on_c, 0, 68, 88
4, 13318, Note_off_c, 0, 68, 0
4, 13320, Note_on_c, 0, 66, 88
4, 13378, Note_off_c, 0, 66, 0
4, 13380, Note_on_c, 0, 65, 88
4, 13438, Note_off_c, 0, 65, 0
4, 13440, Note_on_c, 0, 66, 88
4, 13734, Note_off_c, 0, 66, 0
4, 13740, Note_on_c, 0, 65, 88
4, 13798, Note_off_c, 0, 65, 0
4, 13800, Note_on_c, 0, 63, 88
4, 13858, Note_off_c, 0, 63, 0
4, 13860, Note_on_c, 0, 66, 88
4, 13918, Note_off_c, 0, 66, 0
4, 13920, Note_on_c, 0, 65, 88
4, 13978, Note_off_c, 0, 65, 0
4, 13980, Note_on_c, 0, 63, 88
4, 14038, Note_off_c, 0, 63, 0
4, 14040, Note_on_c, 0, 61, 88
4, 14098, Note_off_c, 0, 61, 0
4, 14100, Note_on_c, 0, 65, 88
4, 14158, Note_off_c, 0, 65, 0
4, 14160, Note_on_c, 0, 63, 88
4, 14218, Note_off_c, 0, 63, 0
4, 14220, Note_on_c, 0, 61, 88
4, 14278, Note_off_c, 0, 61, 0
4, 14280, Note_on_c, 0, 63, 88
4, 14338, Note_off_c, 0, 63, 0
4, 14340, Note_on_c, 0, 60, 88
4, 14398, Note_off_c, 0, 60, 0
4, 14400, Note_on_c, 0, 61, 88
4, 14458, Note_off_c, 0, 61, 0
4, 14460, Note_on_c, 0, 65, 88
4, 14518, Note_off_c, 0, 65, 0
4, 14520, Note_on_c, 0, 66, 88
4, 14578, Note_off_c, 0, 66, 0
4, 14580, Note_on_c, 0, 65, 88
4, 14638, Note_off_c, 0, 65, 0
4, 14640, Note_on_c, 0, 73, 88
4, 14934, Note_off_c, 0, 73, 0
4, 14940, Note_on_c, 0, 72, 88
4, 14998, Note_off_c, 0, 72, 0
4, 15000, Note_on_c, 0, 73, 88
4, 15058, Note_off_c, 0, 73, 0
4, 15060, Note_on_c, 0, 70, 88
4, 15118, Note_off_c, 0, 70, 0
4, 15120, Note_on_c, 0, 82, 88
4, 15418, Note_off_c, 0, 82, 0
4, 15420, Note_on_c, 0, 63, 88
4, 15478, Note_off_c, 0, 63, 0
4, 15480, Note_on_c, 0, 65, 88
4, 15538, Note_off_c, 0, 65, 0
4, 15540, Note_on_c, 0, 63, 88
4, 15598, Note_off_c, 0, 63, 0
4, 15600, Note_on_c, 0, 72, 88
4, 15894, Note_off_c, 0, 72, 0
4, 15900, Note_on_c, 0, 70, 88
4, 15958, Note_off_c, 0, 70, 0
4, 15960, Note_on_c, 0, 72, 88
4, 16018, Note_off_c, 0, 72, 0
4, 16020, Note_on_c, 0, 68, 88
4, 16078, Note_off_c, 0, 68, 0
4, 16080, Note_on_c, 0, 80, 88
4, 16378, Note_off_c, 0, 80, 0
4, 16380, Note_on_c, 0, 61, 88
4, 16438, Note_off_c, 0, 61, 0
4, 16440, Note_on_c, 0, 63, 88
4, 16498, Note_off_c, 0, 63, 0
4, 16500, Note_on_c, 0, 61, 88
4, 16558, Note_off_c, 0, 61, 0
4, 16560, Note_on_c, 0, 70, 88
4, 16854, Note_off_c, 0, 70, 0
4, 16860, Note_on_c, 0, 68, 88
4, 16918, Note_off_c, 0, 68, 0
4, 16920, Note_on_c, 0, 70, 88
4, 16978, Note_off_c, 0, 70, 0
4, 16980, Note_on_c, 0, 67, 88
4, 17038, Note_off_c, 0, 67, 0
4, 17040, Note_on_c, 0, 79, 88
4, 17338, Note_off_c, 0, 79, 0
4, 17340, Note_on_c, 0, 76, 88
4, 17398, Note_off_c, 0, 76, 0
4, 17400, Note_on_c, 0, 77, 88
4, 17458, Note_off_c, 0, 77, 0
4, 17460, Note_on_c, 0, 73, 88
4, 17518, Note_off_c, 0, 73, 0
4, 17520, Note_on_c, 0, 70, 88
4, 17990, Note_off_c, 0, 70, 0
4, 18000, Note_on_c, 0, 68, 88
4, 18474, Note_off_c, 0, 68, 0
4, 18480, Note_on_c, 0, 67, 88
4, 18833, Note_off_c, 0, 67, 0
4, 18840, Note_on_c, 0, 65, 88
4, 18956, Note_off_c, 0, 65, 0
4, 18960, Note_on_c, 0, 64, 88
4, 19076, Note_off_c, 0, 64, 0
4, 19080, Note_on_c, 0, 67, 88
4, 19196, Note_off_c, 0, 67, 0
4, 19200, Note_on_c, 0, 72, 88
4, 19258, Note_off_c, 0, 72, 0
4, 19260, Note_on_c, 0, 70, 88
4, 19318, Note_off_c, 0, 70, 0
4, 19320, Note_on_c, 0, 68, 88
4, 19378, Note_off_c, 0, 68, 0
4, 19380, Note_on_c, 0, 72, 88
4, 19438, Note_off_c, 0, 72, 0
4, 19440, Note_on_c, 0, 70, 88
4, 19498, Note_off_c, 0, 70, 0
4, 19500, Note_on_c, 0, 68, 88
4, 19558, Note_off_c, 0, 68, 0
4, 19560, Note_on_c, 0, 67, 88
4, 19618, Note_off_c, 0, 67, 0
4, 19620, Note_on_c, 0, 70, 88
4, 19678, Note_off_c, 0, 70, 0
4, 19680, Note_on_c, 0, 68, 88
4, 19738, Note_off_c, 0, 68, 0
4, 19740, Note_on_c, 0, 65, 88
4, 19798, Note_off_c, 0, 65, 0
4, 19800, Note_on_c, 0, 73, 88
4, 19858, Note_off_c, 0, 73, 0
4, 19860, Note_on_c, 0, 70, 88
4, 19918, Note_off_c, 0, 70, 0
4, 19920, Note_on_c, 0, 72, 88
4, 19978, Note_off_c, 0, 72, 0
4, 19980, Note_on_c, 0, 68, 88
4, 20038, Note_off_c, 0, 68, 0
4, 20040, Note_on_c, 0, 78, 88
4, 20098, Note_off_c, 0, 78, 0
4, 20100, Note_on_c, 0, 76, 88
4, 20158, Note_off_c, 0, 76, 0
4, 20160, Note_on_c, 0, 76, 88
4, 20218, Note_off_c, 0, 76, 0
4, 20220, Note_on_c, 0, 77, 88
4, 20278, Note_off_c, 0, 77, 0
4, 20280, Note_on_c, 0, 83, 88
4, 20338, Note_off_c, 0, 83, 0
4, 20340, Note_on_c, 0, 84, 88
4, 20398, Note_off_c, 0, 84, 0
4, 20400, Note_on_c, 0, 76, 88
4, 20575, Note_off_c, 0, 76, 0
4, 20580, Note_on_c, 0, 77, 88
4, 20618, Note_off_c, 0, 77, 0
4, 20640, Note_on_c, 0, 77, 88
4, 20874, Note_off_c, 0, 77, 0
4, 21000, Note_on_c, 0, 77, 88
4, 21116, Note_off_c, 0, 77, 0
4, 21120, Note_on_c, 0, 71, 88
4, 21178, Note_off_c, 0, 71, 0
4, 21180, Note_on_c, 0, 70, 88
4, 21238, Note_off_c, 0, 70, 0
4, 21240, Note_on_c, 0, 68, 88
4, 21298, Note_off_c, 0, 68, 0
4, 21300, Note_on_c, 0, 70, 88
4, 21358, Note_off_c, 0, 70, 0
4, 21360, Note_on_c, 0, 77, 88
4, 21476, Note_off_c, 0, 77, 0
4, 21480, Note_on_c, 0, 74, 88
4, 21596, Note_off_c, 0, 74, 0
4, 21600, Note_on_c, 0, 68, 88
4, 21716, Note_off_c, 0, 68, 0
4, 21720, Note_on_c, 0, 66, 88
4, 21778, Note_off_c, 0, 66, 0
4, 21780, Note_on_c, 0, 65, 88
4, 21838, Note_off_c, 0, 65, 0
4, 21840, Note_on_c, 0, 66, 88
4, 21956, Note_off_c, 0, 66, 0
4, 21960, Note_on_c, 0, 75, 88
4, 22076, Note_off_c, 0, 75, 0
4, 22080, Note_on_c, 0, 69, 88
4, 22138, Note_off_c, 0, 69, 0
4, 22140, Note_on_c, 0, 68, 88
4, 22198, Note_off_c, 0, 68, 0
4, 22200, Note_on_c, 0, 66, 88
4, 22258, Note_off_c, 0, 66, 0
4, 22260, Note_on_c, 0, 68, 88
4, 22318, Note_off_c, 0, 68, 0
4, 22320, Note_on_c, 0, 75, 88
4, 22436, Note_off_c, 0, 75, 0
4, 22440, Note_on_c, 0, 72, 88
4, 22556, Note_off_c, 0, 72, 0
4, 22560, Note_on_c, 0, 66, 88
4, 22676, Note_off_c, 0, 66, 0
4, 22680, Note_on_c, 0, 65, 88
4, 22738, Note_off_c, 0, 65, 0
4, 22740, Note_on_c, 0, 63, 88
4, 22798, Note_off_c, 0, 63, 0
4, 22800, Note_on_c, 0, 65, 88
4, 22858, Note_off_c, 0, 65, 0
4, 22860, Note_on_c, 0, 68, 88
4, 22918, Note_off_c, 0, 68, 0
4, 22920, Note_on_c, 0, 73, 88
4, 22978, Note_off_c, 0, 73, 0
4, 22980, Note_on_c, 0, 75, 88
4, 23038, Note_off_c, 0, 75, 0
4, 23040, Note_on_c, 0, 77, 88
4, 23098, Note_off_c, 0, 77, 0
4, 23100, Note_on_c, 0, 75, 88
4, 23158, Note_off_c, 0, 75, 0
4, 23160, Note_on_c, 0, 73, 88
4, 23218, Note_off_c, 0, 73, 0
4, 23220, Note_on_c, 0, 75, 88
4, 23278, Note_off_c, 0, 75, 0
4, 23280, Note_on_c, 0, 84, 88
4, 23396, Note_off_c, 0, 84, 0
4, 23400, Note_on_c, 0, 80, 88
4, 23516, Note_off_c, 0, 80, 0
4, 23520, Note_on_c, 0, 75, 88
4, 23636, Note_off_c, 0, 75, 0
4, 23640, Note_on_c, 0, 73, 88
4, 23698, Note_off_c, 0, 73, 0
4, 23700, Note_on_c, 0, 72, 88
4, 23758, Note_off_c, 0, 72, 0
4, 23760, Note_on_c, 0, 73, 88
4, 23876, Note_off_c, 0, 73, 0
4, 23880, Note_on_c, 0, 82, 88
4, 23996, Note_off_c, 0, 82, 0
4, 24000, Note_on_c, 0, 72, 88
4, 24116, Note_off_c, 0, 72, 0
4, 24120, Note_on_c, 0, 80, 88
4, 24236, Note_off_c, 0, 80, 0
4, 24240, Note_on_c, 0, 70, 88
4, 24356, Note_off_c, 0, 70, 0
4, 24360, Note_on_c, 0, 79, 88
4, 24476, Note_off_c, 0, 79, 0
4, 24480, Note_on_c, 0, 68, 88
4, 24538, Note_off_c, 0, 68, 0
4, 24540, Note_on_c, 0, 63, 88
4, 24598, Note_off_c, 0, 63, 0
4, 24600, Note_on_c, 0, 65, 88
4, 24658, Note_off_c, 0, 65, 0
4, 24660, Note_on_c, 0, 67, 88
4, 24718, Note_off_c, 0, 67, 0
4, 24720, Note_on_c, 0, 68, 88
4, 24778, Note_off_c, 0, 68, 0
4, 24780, Note_on_c, 0, 70, 88
4, 24838, Note_off_c, 0, 70, 0
4, 24840, Note_on_c, 0, 72, 88
4, 24898, Note_off_c, 0, 72, 0
4, 24900, Note_on_c, 0, 68, 88
4, 24958, Note_off_c, 0, 68, 0
4, 24960, Note_on_c, 0, 73, 88
4, 25018, Note_off_c, 0, 73, 0
4, 25020, Note_on_c, 0, 72, 88
4, 25078, Note_off_c, 0, 72, 0
4, 25080, Note_on_c, 0, 70, 88
4, 25138, Note_off_c, 0, 70, 0
4, 25140, Note_on_c, 0, 72, 88
4, 25198, Note_off_c, 0, 72, 0
4, 25200, Note_on_c, 0, 73, 88
4, 25258, Note_off_c, 0, 73, 0
4, 25260, Note_on_c, 0, 72, 88
4, 25318, Note_off_c, 0, 72, 0
4, 25320, Note_on_c, 0, 70, 88
4, 25378, Note_off_c, 0, 70, 0
4, 25380, Note_on_c, 0, 68, 88
4, 25438, Note_off_c, 0, 68, 0
4, 25440, Note_on_c, 0, 70, 88
4, 25734, Note_off_c, 0, 70, 0
4, 25740, Note_on_c, 0, 68, 88
4, 25798, Note_off_c, 0, 68, 0
4, 25800, Note_on_c, 0, 66, 88
4, 25858, Note_off_c, 0, 66, 0
4, 25860, Note_on_c, 0, 70, 88
4, 25918, Note_off_c, 0, 70, 0
4, 25920, Note_on_c, 0, 68, 88
4, 25978, Note_off_c, 0, 68, 0
4, 25980, Note_on_c, 0, 66, 88
4, 26038, Note_off_c, 0, 66, 0
4, 26040, Note_on_c, 0, 65, 88
4, 26098, Note_off_c, 0, 65, 0
4, 26100, Note_on_c, 0, 68, 88
4, 26158, Note_off_c, 0, 68, 0
4, 26160, Note_on_c, 0, 66, 88
4, 26218, Note_off_c, 0, 66, 0
4, 26220, Note_on_c, 0, 65, 88
4, 26278, Note_off_c, 0, 65, 0
4, 26280, Note_on_c, 0, 63, 88
4, 26338, Note_off_c, 0, 63, 0
4, 26340, Note_on_c, 0, 66, 88
4, 26398, Note_off_c, 0, 66, 0
4, 26400, Note_on_c, 0, 65, 88
4, 26516, Note_off_c, 0, 65, 0
4, 26520, Note_on_c, 0, 68, 88
4, 26636, Note_off_c, 0, 68, 0
4, 26640, Note_on_c, 0, 73, 88
4, 26874, Note_off_c, 0, 73, 0
4, 27000, Note_on_c, 0, 76, 88
4, 27058, Note_off_c, 0, 76, 0
4, 27060, Note_on_c, 0, 73, 88
4, 27118, Note_off_c, 0, 73, 0
4, 27120, Note_on_c, 0, 70, 88
4, 27354, Note_off_c, 0, 70, 0
4, 27480, Note_on_c, 0, 70, 88
4, 27538, Note_off_c, 0, 70, 0
4, 27540, Note_on_c, 0, 73, 88
4, 27598, Note_off_c, 0, 73, 0
4, 27600, Note_on_c, 0, 76, 88
4, 27834, Note_off_c, 0, 76, 0
4, 27840, Note_on_c, 0, 75, 88
4, 27956, Note_off_c, 0, 75, 0
4, 27960, Note_on_c, 0, 80, 88
4, 28076, Note_off_c, 0, 80, 0
4, 28080, Note_on_c, 0, 73, 88
4, 28196, Note_off_c, 0, 73, 0
4, 28200, Note_on_c, 0, 79, 88
4, 28316, Note_off_c, 0, 79, 0
4, 28320, Note_on_c, 0, 68, 88
4, 28436, Note_off_c, 0, 68, 0
4, 28440, Note_on_c, 0, 80, 88
4, 28498, Note_off_c, 0, 80, 0
4, 28500, Note_on_c, 0, 79, 88
4, 28558, Note_off_c, 0, 79, 0
4, 28560, Note_on_c, 0, 80, 88
4, 28618, Note_off_c, 0, 80, 0
4, 28620, Note_on_c, 0, 82, 88
4, 28678, Note_off_c, 0, 82, 0
4, 28680, Note_on_c, 0, 83, 88
4, 28738, Note_off_c, 0, 83, 0
4, 28740, Note_on_c, 0, 80, 88
4, 28798, Note_off_c, 0, 80, 0
4, 28800, Note_on_c, 0, 77, 88
4, 28858, Note_off_c, 0, 77, 0
4, 28860, Note_on_c, 0, 78, 88
4, 28918, Note_off_c, 0, 78, 0
4, 28920, Note_on_c, 0, 80, 88
4, 28978, Note_off_c, 0, 80, 0
4, 28980, Note_on_c, 0, 77, 88
4, 29038, Note_off_c, 0, 77, 0
4, 29040, Note_on_c, 0, 73, 88
4, 29098, Note_off_c, 0, 73, 0
4, 29100, Note_on_c, 0, 75, 88
4, 29158, Note_off_c, 0, 75, 0
4, 29160, Note_on_c, 0, 77, 88
4, 29218, Note_off_c, 0, 77, 0
4, 29220, Note_on_c, 0, 73, 88
4, 29278, Note_off_c, 0, 73, 0
4, 29280, Note_on_c, 0, 70, 88
4, 29338, Note_off_c, 0, 70, 0
4, 29340, Note_on_c, 0, 72, 88
4, 29398, Note_off_c, 0, 72, 0
4, 29400, Note_on_c, 0, 73, 88
4, 29458, Note_off_c, 0, 73, 0
4, 29460, Note_on_c, 0, 70, 88
4, 29518, Note_off_c, 0, 70, 0
4, 29520, Note_on_c, 0, 78, 88
4, 29578, Note_off_c, 0, 78, 0
4, 29580, Note_on_c, 0, 80, 88
4, 29638, Note_off_c, 0, 80, 0
4, 29640, Note_on_c, 0, 82, 88
4, 29698, Note_off_c, 0, 82, 0
4, 29700, Note_on_c, 0, 78, 88
4, 29758, Note_off_c, 0, 78, 0
4, 29760, Note_on_c, 0, 75, 88
4, 29818, Note_off_c, 0, 75, 0
4, 29820, Note_on_c, 0, 77, 88
4, 29878, Note_off_c, 0, 77, 0
4, 29880, Note_on_c, 0, 78, 88
4, 29938, Note_off_c, 0, 78, 0
4, 29940, Note_on_c, 0, 75, 88
4, 29998, Note_off_c, 0, 75, 0
4, 30000, Note_on_c, 0, 72, 88
4, 30058, Note_off_c, 0, 72, 0
4, 30060, Note_on_c, 0, 73, 88
4, 30118, Note_off_c, 0, 73, 0
4, 30120, Note_on_c, 0, 75, 88
4, 30178, Note_off_c, 0, 75, 0
4, 30180, Note_on_c, 0, 72, 88
4, 30238, Note_off_c, 0, 72, 0
4, 30240, Note_on_c, 0, 68, 88
4, 30298, Note_off_c, 0, 68, 0
4, 30300, Note_on_c, 0, 70, 88
4, 30358, Note_off_c, 0, 70, 0
4, 30360, Note_on_c, 0, 72, 88
4, 30418, Note_off_c, 0, 72, 0
4, 30420, Note_on_c, 0, 68, 88
4, 30478, Note_off_c, 0, 68, 0
4, 30480, Note_on_c, 0, 77, 88
4, 30538, Note_off_c, 0, 77, 0
4, 30540, Note_on_c, 0, 78, 88
4, 30598, Note_off_c, 0, 78, 0
4, 30600, Note_on_c, 0, 80, 88
4, 30658, Note_off_c, 0, 80, 0
4, 30660, Note_on_c, 0, 77, 88
4, 30718, Note_off_c, 0, 77, 0
4, 30720, Note_on_c, 0, 74, 88
4, 30778, Note_off_c, 0, 74, 0
4, 30780, Note_on_c, 0, 75, 88
4, 30838, Note_off_c, 0, 75, 0
4, 30840, Note_on_c, 0, 77, 88
4, 30898, Note_off_c, 0, 77, 0
4, 30900, Note_on_c, 0, 74, 88
4, 30958, Note_off_c, 0, 74, 0
4, 30960, Note_on_c, 0, 70, 88
4, 31018, Note_off_c, 0, 70, 0
4, 31020, Note_on_c, 0, 72, 88
4, 31078, Note_off_c, 0, 72, 0
4, 31080, Note_on_c, 0, 74, 88
4, 31138, Note_off_c, 0, 74, 0
4, 31140, Note_on_c, 0, 70, 88
4, 31198, Note_off_c, 0, 70, 0
4, 31200, Note_on_c, 0, 66, 88
4, 31258, Note_off_c, 0, 66, 0
4, 31260, Note_on_c, 0, 68, 88
4, 31318, Note_off_c, 0, 68, 0
4, 31320, Note_on_c, 0, 70, 88
4, 31378, Note_off_c, 0, 70, 0
4, 31380, Note_on_c, 0, 66, 88
4, 31438, Note_off_c, 0, 66, 0
4, 31440, Note_on_c, 0, 75, 88
4, 31498, Note_off_c, 0, 75, 0
4, 31500, Note_on_c, 0, 77, 88
4, 31558, Note_off_c, 0, 77, 0
4, 31560, Note_on_c, 0, 78, 88
4, 31618, Note_off_c, 0, 78, 0
4, 31620, Note_on_c, 0, 75, 88
4, 31678, Note_off_c, 0, 75, 0
4, 31680, Note_on_c, 0, 72, 88
4, 31738, Note_off_c, 0, 72, 0
4, 31740, Note_on_c, 0, 73, 88
4, 31798, Note_off_c, 0, 73, 0
4, 31800, Note_on_c, 0, 75, 88
4, 31858, Note_off_c, 0, 75, 0
4, 31860, Note_on_c, 0, 72, 88
4, 31918, Note_off_c, 0, 72, 0
4, 31920, Note_on_c, 0, 68, 88
4, 31978, Note_off_c, 0, 68, 0
4, 31980, Note_on_c, 0, 70, 88
4, 32038, Note_off_c, 0, 70, 0
4, 32040, Note_on_c, 0, 72, 88
4, 32098, Note_off_c, 0, 72, 0
4, 32100, Note_on_c, 0, 68, 88
4, 32158, Note_off_c, 0, 68, 0
4, 32160, Note_on_c, 0, 65, 88
4, 32218, Note_off_c, 0, 65, 0
4, 32220, Note_on_c, 0, 66, 88
4, 32278, Note_off_c, 0, 66, 0
4, 32280, Note_on_c, 0, 68, 88
4, 32338, Note_off_c, 0, 68, 0
4, 32340, Note_on_c, 0, 65, 88
4, 32398, Note_off_c, 0, 65, 0
4, 32400, Note_on_c, 0, 61, 88
4, 32458, Note_off_c, 0, 61, 0
4, 32460, Note_on_c, 0, 65, 88
4, 32518, Note_off_c, 0, 65, 0
4, 32520, Note_on_c, 0, 68, 88
4, 32578, Note_off_c, 0, 68, 0
4, 32580, Note_on_c, 0, 70, 88
4, 32638, Note_off_c, 0, 70, 0
4, 32640, Note_on_c, 0, 71, 88
4, 32698, Note_off_c, 0, 71, 0
4, 32700, Note_on_c, 0, 70, 88
4, 32758, Note_off_c, 0, 70, 0
4, 32760, Note_on_c, 0, 68, 88
4, 32818, Note_off_c, 0, 68, 0
4, 32820, Note_on_c, 0, 70, 88
4, 32878, Note_off_c, 0, 70, 0
4, 32880, Note_on_c, 0, 78, 88
4, 32996, Note_off_c, 0, 78, 0
4, 33000, Note_on_c, 0, 73, 88
4, 33116, Note_off_c, 0, 73, 0
4, 33120, Note_on_c, 0, 70, 88
4, 33236, Note_off_c, 0, 70, 0
4, 33240, Note_on_c, 0, 68, 88
4, 33298, Note_off_c, 0, 68, 0
4, 33300, Note_on_c, 0, 66, 88
4, 33358, Note_off_c, 0, 66, 0
4, 33360, Note_on_c, 0, 68, 88
4, 33418, Note_off_c, 0, 68, 0
4, 33420, Note_on_c, 0, 61, 88
4, 33478, Note_off_c, 0, 61, 0
4, 33480, Note_on_c, 0, 65, 88
4, 33538, Note_off_c, 0, 65, 0
4, 33540, Note_on_c, 0, 68, 88
4, 33598, Note_off_c, 0, 68, 0
4, 33600, Note_on_c, 0, 70, 88
4, 33658, Note_off_c, 0, 70, 0
4, 33660, Note_on_c, 0, 68, 88
4, 33718, Note_off_c, 0, 68, 0
4, 33720, Note_on_c, 0, 66, 88
4, 33778, Note_off_c, 0, 66, 0
4, 33780, Note_on_c, 0, 68, 88
4, 33838, Note_off_c, 0, 68, 0
4, 33840, Note_on_c, 0, 77, 88
4, 33956, Note_off_c, 0, 77, 0
4, 33960, Note_on_c, 0, 73, 88
4, 34076, Note_off_c, 0, 73, 0
4, 34080, Note_on_c, 0, 68, 88
4, 34196, Note_off_c, 0, 68, 0
4, 34200, Note_on_c, 0, 66, 88
4, 34258, Note_off_c, 0, 66, 0
4, 34260, Note_on_c, 0, 65, 88
4, 34318, Note_off_c, 0, 65, 0
4, 34320, Note_on_c, 0, 66, 88
4, 34378, Note_off_c, 0, 66, 0
4, 34380, Note_on_c, 0, 60, 88
4, 34438, Note_off_c, 0, 60, 0
4, 34440, Note_on_c, 0, 63, 88
4, 34498, Note_off_c, 0, 63, 0
4, 34500, Note_on_c, 0, 66, 88
4, 34558, Note_off_c, 0, 66, 0
4, 34560, Note_on_c, 0, 68, 88
4, 34618, Note_off_c, 0, 68, 0
4, 34620, Note_on_c, 0, 66, 88
4, 34678, Note_off_c, 0, 66, 0
4, 34680, Note_on_c, 0, 65, 88
4, 34738, Note_off_c, 0, 65, 0
4, 34740, Note_on_c, 0, 66, 88
4, 34798, Note_off_c, 0, 66, 0
4, 34800, Note_on_c, 0, 75, 88
4, 34916, Note_off_c, 0, 75, 0
4, 34920, Note_on_c, 0, 72, 88
4, 35036, Note_off_c, 0, 72, 0
4, 35040, Note_on_c, 0, 66, 88
4, 35156, Note_off_c, 0, 66, 0
4, 35160, Note_on_c, 0, 65, 88
4, 35218, Note_off_c, 0, 65, 0
4, 35220, Note_on_c, 0, 63, 88
4, 35278, Note_off_c, 0, 63, 0
4, 35280, Note_on_c, 0, 65, 88
4, 35338, Note_off_c, 0, 65, 0
4, 35340, Note_on_c, 0, 68, 88
4, 35398, Note_off_c, 0, 68, 0
4, 35400, Note_on_c, 0, 70, 88
4, 35458, Note_off_c, 0, 70, 0
4, 35460, Note_on_c, 0, 72, 88
4, 35518, Note_off_c, 0, 72, 0
4, 35520, Note_on_c, 0, 73, 88
4, 35578, Note_off_c, 0, 73, 0
4, 35580, Note_on_c, 0, 75, 88
4, 35638, Note_off_c, 0, 75, 0
4, 35640, Note_on_c, 0, 77, 88
4, 35698, Note_off_c, 0, 77, 0
4, 35700, Note_on_c, 0, 75, 88
4, 35758, Note_off_c, 0, 75, 0
4, 35760, Note_on_c, 0, 78, 88
4, 35818, Note_off_c, 0, 78, 0
4, 35820, Note_on_c, 0, 77, 88
4, 35878, Note_off_c, 0, 77, 0
4, 35880, Note_on_c, 0, 75, 88
4, 35938, Note_off_c, 0, 75, 0
4, 35940, Note_on_c, 0, 73, 88
4, 35998, Note_off_c, 0, 73, 0
4, 36000, Note_on_c, 0, 82, 88
4, 36022, Note_off_c, 0, 82, 0
4, 36023, Note_on_c, 0, 80, 88
4, 36052, Note_off_c, 0, 80, 0
4, 36053, Note_on_c, 0, 82, 88
4, 36082, Note_off_c, 0, 82, 0
4, 36083, Note_on_c, 0, 80, 88
4, 36112, Note_off_c, 0, 80, 0
4, 36113, Note_on_c, 0, 82, 88
4, 36142, Note_off_c, 0, 82, 0
4, 36143, Note_on_c, 0, 80, 88
4, 36164, Note_off_c, 0, 80, 0
4, 36165, Note_on_c, 0, 82, 88
4, 36187, Note_off_c, 0, 82, 0
4, 36188, Note_on_c, 0, 80, 88
4, 36209, Note_off_c, 0, 80, 0
4, 36210, Note_on_c, 0, 82, 88
4, 36232, Note_off_c, 0, 82, 0
4, 36233, Note_on_c, 0, 80, 88
4, 36254, Note_off_c, 0, 80, 0
4, 36255, Note_on_c, 0, 82, 88
4, 36277, Note_off_c, 0, 82, 0
4, 36278, Note_on_c, 0, 80, 88
4, 36299, Note_off_c, 0, 80, 0
4, 36300, Note_on_c, 0, 82, 88
4, 36322, Note_off_c, 0, 82, 0
4, 36323, Note_on_c, 0, 80, 88
4, 36344, Note_off_c, 0, 80, 0
4, 36345, Note_on_c, 0, 82, 88
4, 36367, Note_off_c, 0, 82, 0
4, 36368, Note_on_c, 0, 80, 88
4, 36389, Note_off_c, 0, 80, 0
4, 36390, Note_on_c, 0, 82, 88
4, 36412, Note_off_c, 0, 82, 0
4, 36413, Note_on_c, 0, 80, 88
4, 36434, Note_off_c, 0, 80, 0
4, 36435, Note_on_c, 0, 82, 88
4, 36457, Note_off_c, 0, 82, 0
4, 36458, Note_on_c, 0, 80, 88
4, 36479, Note_off_c, 0, 80, 0
4, 36480, Note_on_c, 0, 80, 88
4, 36518, Note_off_c, 0, 80, 0
4, 36540, Note_on_c, 0, 80, 88
4, 36598, Note_off_c, 0, 80, 0
4, 36600, Note_on_c, 0, 78, 88
4, 36658, Note_off_c, 0, 78, 0
4, 36660, Note_on_c, 0, 80, 88
4, 36718, Note_off_c, 0, 80, 0
4, 36720, Note_on_c, 0, 77, 88
4, 36778, Note_off_c, 0, 77, 0
4, 36780, Note_on_c, 0, 80, 88
4, 36838, Note_off_c, 0, 80, 0
4, 36840, Note_on_c, 0, 75, 88
4, 36898, Note_off_c, 0, 75, 0
4, 36900, Note_on_c, 0, 80, 88
4, 36958, Note_off_c, 0, 80, 0
4, 36960, Note_on_c, 0, 73, 88
4, 37018, Note_off_c, 0, 73, 0
4, 37020, Note_on_c, 0, 80, 88
4, 37078, Note_off_c, 0, 80, 0
4, 37080, Note_on_c, 0, 72, 88
4, 37138, Note_off_c, 0, 72, 0
4, 37140, Note_on_c, 0, 70, 88
4, 37198, Note_off_c, 0, 70, 0
4, 37200, Note_on_c, 0, 72, 88
4, 37258, Note_off_c, 0, 72, 0
4, 37260, Note_on_c, 0, 75, 88
4, 37318, Note_off_c, 0, 75, 0
4, 37320, Note_on_c, 0, 77, 88
4, 37378, Note_off_c, 0, 77, 0
4, 37380, Note_on_c, 0, 78, 88
4, 37438, Note_off_c, 0, 78, 0
4, 37440, Note_on_c, 0, 80, 88
4, 37498, Note_off_c, 0, 80, 0
4, 37500, Note_on_c, 0, 78, 88
4, 37558, Note_off_c, 0, 78, 0
4, 37560, Note_on_c, 0, 77, 88
4, 37618, Note_off_c, 0, 77, 0
4, 37620, Note_on_c, 0, 80, 88
4, 37678, Note_off_c, 0, 80, 0
4, 37680, Note_on_c, 0, 75, 88
4, 37738, Note_off_c, 0, 75, 0
4, 37740, Note_on_c, 0, 80, 88
4, 37798, Note_off_c, 0, 80, 0
4, 37800, Note_on_c, 0, 73, 88
4, 37858, Note_off_c, 0, 73, 0
4, 37860, Note_on_c, 0, 80, 88
4, 37918, Note_off_c, 0, 80, 0
4, 37920, Note_on_c, 0, 72, 88
4, 37978, Note_off_c, 0, 72, 0
4, 37980, Note_on_c, 0, 80, 88
4, 38038, Note_off_c, 0, 80, 0
4, 38040, Note_on_c, 0, 70, 88
4, 38098, Note_off_c, 0, 70, 0
4, 38100, Note_on_c, 0, 68, 88
4, 38158, Note_off_c, 0, 68, 0
4, 38160, Note_on_c, 0, 70, 88
4, 38218, Note_off_c, 0, 70, 0
4, 38220, Note_on_c, 0, 73, 88
4, 38278, Note_off_c, 0, 73, 0
4, 38280, Note_on_c, 0, 75, 88
4, 38338, Note_off_c, 0, 75, 0
4, 38340, Note_on_c, 0, 77, 88
4, 38398, Note_off_c, 0, 77, 0
4, 38400, Note_on_c, 0, 78, 88
4, 38458, Note_off_c, 0, 78, 0
4, 38460, Note_on_c, 0, 77, 88
4, 38518, Note_off_c, 0, 77, 0
4, 38520, Note_on_c, 0, 75, 88
4, 38578, Note_off_c, 0, 75, 0
4, 38580, Note_on_c, 0, 77, 88
4, 38638, Note_off_c, 0, 77, 0
4, 38640, Note_on_c, 0, 73, 88
4, 38698, Note_off_c, 0, 73, 0
4, 38700, Note_on_c, 0, 75, 88
4, 38758, Note_off_c, 0, 75, 0
4, 38760, Note_on_c, 0, 72, 88
4, 38818, Note_off_c, 0, 72, 0
4, 38820, Note_on_c, 0, 75, 88
4, 38878, Note_off_c, 0, 75, 0
4, 38880, Note_on_c, 0, 70, 88
4, 38938, Note_off_c, 0, 70, 0
4, 38940, Note_on_c, 0, 75, 88
4, 38998, Note_off_c, 0, 75, 0
4, 39000, Note_on_c, 0, 68, 88
4, 39058, Note_off_c, 0, 68, 0
4, 39060, Note_on_c, 0, 67, 88
4, 39118, Note_off_c, 0, 67, 0
4, 39120, Note_on_c, 0, 68, 88
4, 39178, Note_off_c, 0, 68, 0
4, 39180, Note_on_c, 0, 72, 88
4, 39238, Note_off_c, 0, 72, 0
4, 39240, Note_on_c, 0, 73, 88
4, 39298, Note_off_c, 0, 73, 0
4, 39300, Note_on_c, 0, 75, 88
4, 39358, Note_off_c, 0, 75, 0
4, 39360, Note_on_c, 0, 77, 88
4, 39418, Note_off_c, 0, 77, 0
4, 39420, Note_on_c, 0, 78, 88
4, 39478, Note_off_c, 0, 78, 0
4, 39480, Note_on_c, 0, 80, 88
4, 39538, Note_off_c, 0, 80, 0
4, 39540, Note_on_c, 0, 82, 88
4, 39598, Note_off_c, 0, 82, 0
4, 39600, Note_on_c, 0, 72, 88
4, 39716, Note_off_c, 0, 72, 0
4, 39720, Note_on_c, 0, 68, 88
4, 39836, Note_off_c, 0, 68, 0
4, 39840, Note_on_c, 0, 70, 88
4, 39898, Note_off_c, 0, 70, 0
4, 39900, Note_on_c, 0, 68, 88
4, 39958, Note_off_c, 0, 68, 0
4, 39960, Note_on_c, 0, 66, 88
4, 40018, Note_off_c, 0, 66, 0
4, 40020, Note_on_c, 0, 68, 88
4, 40078, Note_off_c, 0, 68, 0
4, 40080, Note_on_c, 0, 77, 88
4, 40196, Note_off_c, 0, 77, 0
4, 40200, Note_on_c, 0, 73, 88
4, 40316, Note_off_c, 0, 73, 0
4, 40320, Note_on_c, 0, 68, 88
4, 40436, Note_off_c, 0, 68, 0
4, 40440, Note_on_c, 0, 66, 88
4, 40498, Note_off_c, 0, 66, 0
4, 40500, Note_on_c, 0, 65, 88
4, 40558, Note_off_c, 0, 65, 0
4, 40560, Note_on_c, 0, 66, 88
4, 40676, Note_off_c, 0, 66, 0
4, 40680, Note_on_c, 0, 75, 88
4, 40796, Note_off_c, 0, 75, 0
4, 40800, Note_on_c, 0, 65, 88
4, 40916, Note_off_c, 0, 65, 0
4, 40920, Note_on_c, 0, 73, 88
4, 41036, Note_off_c, 0, 73, 0
4, 41040, Note_on_c, 0, 63, 88
4, 41156, Note_off_c, 0, 63, 0
4, 41160, Note_on_c, 0, 72, 88
4, 41276, Note_off_c, 0, 72, 0
4, 41280, Note_on_c, 0, 61, 88
4, 41396, Note_off_c, 0, 61, 0
4, 41400, Note_on_c, 0, 73, 88
4, 41458, Note_off_c, 0, 73, 0
4, 41460, Note_on_c, 0, 72, 88
4, 41518, Note_off_c, 0, 72, 0
4, 41520, Note_on_c, 0, 73, 88
4, 41578, Note_off_c, 0, 73, 0
4, 41580, Note_on_c, 0, 75, 88
4, 41638, Note_off_c, 0, 75, 0
4, 41640, Note_on_c, 0, 77, 88
4, 41698, Note_off_c, 0, 77, 0
4, 41700, Note_on_c, 0, 78, 88
4, 41758, Note_off_c, 0, 78, 0
4, 41760, Note_on_c, 0, 80, 88
4, 41818, Note_off_c, 0, 80, 0
4, 41820, Note_on_c, 0, 78, 88
4, 41878, Note_off_c, 0, 78, 0
4, 41880, Note_on_c, 0, 77, 88
4, 41938, Note_off_c, 0, 77, 0
4, 41940, Note_on_c, 0, 78, 88
4, 41998, Note_off_c, 0, 78, 0
4, 42000, Note_on_c, 0, 80, 88
4, 42058, Note_off_c, 0, 80, 0
4, 42060, Note_on_c, 0, 78, 88
4, 42118, Note_off_c, 0, 78, 0
4, 42120, Note_on_c, 0, 77, 88
4, 42178, Note_off_c, 0, 77, 0
4, 42180, Note_on_c, 0, 75, 88
4, 42238, Note_off_c, 0, 75, 0
4, 42240, Note_on_c, 0, 77, 88
4, 42534, Note_off_c, 0, 77, 0
4, 42540, Note_on_c, 0, 75, 88
4, 42598, Note_off_c, 0, 75, 0
4, 42600, Note_on_c, 0, 73, 88
4, 42658, Note_off_c, 0, 73, 0
4, 42660, Note_on_c, 0, 77, 88
4, 42718, Note_off_c, 0, 77, 0
4, 42720, Note_on_c, 0, 75, 88
4, 42778, Note_off_c, 0, 75, 0
4, 42780, Note_on_c, 0, 73, 88
4, 42838, Note_off_c, 0, 73, 0
4, 42840, Note_on_c, 0, 72, 88
4, 42898, Note_off_c, 0, 72, 0
4, 42900, Note_on_c, 0, 75, 88
4, 42958, Note_off_c, 0, 75, 0
4, 42960, Note_on_c, 0, 73, 88
4, 43018, Note_off_c, 0, 73, 0
4, 43020, Note_on_c, 0, 72, 88
4, 43078, Note_off_c, 0, 72, 0
4, 43080, Note_on_c, 0, 73, 88
4, 43138, Note_off_c, 0, 73, 0
4, 43140, Note_on_c, 0, 70, 88
4, 43198, Note_off_c, 0, 70, 0
4, 43200, Note_on_c, 0, 72, 88
4, 43316, Note_off_c, 0, 72, 0
4, 43320, Note_on_c, 0, 75, 88
4, 43436, Note_off_c, 0, 75, 0
4, 43440, Note_on_c, 0, 78, 88
4, 43910, Note_off_c, 0, 78, 0
4, 43920, Note_on_c, 0, 77, 88
4, 44394, Note_off_c, 0, 77, 0
4, 44400, Note_on_c, 0, 75, 88
4, 44753, Note_off_c, 0, 75, 0
4, 44760, Note_on_c, 0, 73, 88
4, 44876, Note_off_c, 0, 73, 0
4, 44880, Note_on_c, 0, 72, 88
4, 44996, Note_off_c, 0, 72, 0
4, 45000, Note_on_c, 0, 75, 88
4, 45236, Note_off_c, 0, 75, 0
4, 45240, Note_on_c, 0, 68, 88
4, 45356, Note_off_c, 0, 68, 0
4, 45360, Note_on_c, 0, 73, 88
4, 45476, Note_off_c, 0, 73, 0
4, 45480, Note_on_c, 0, 71, 88
4, 45596, Note_off_c, 0, 71, 0
4, 45600, Note_on_c, 0, 70, 88
4, 46178, Note_off_c, 0, 70, 0
4, 46200, Note_on_c, 0, 70, 88
4, 46258, Note_off_c, 0, 70, 0
4, 46260, Note_on_c, 0, 66, 88
4, 46318, Note_off_c, 0, 66, 0
4, 46320, Note_on_c, 0, 63, 88
4, 46658, Note_off_c, 0, 63, 0
4, 46680, Note_on_c, 0, 63, 88
4, 46796, Note_off_c, 0, 63, 0
4, 46800, Note_on_c, 0, 68, 88
4, 47138, Note_off_c, 0, 68, 0
4, 47160, Note_on_c, 0, 68, 88
4, 47218, Note_off_c, 0, 68, 0
4, 47220, Note_on_c, 0, 65, 88
4, 47278, Note_off_c, 0, 65, 0
4, 47280, Note_on_c, 0, 62, 88
4, 47633, Note_off_c, 0, 62, 0
4, 47640, Note_on_c, 0, 58, 88
4, 47756, Note_off_c, 0, 58, 0
4, 47760, Note_on_c, 0, 66, 88
4, 48058, Note_off_c, 0, 66, 0
4, 48060, Note_on_c, 0, 65, 88
4, 48118, Note_off_c, 0, 65, 0
4, 48120, Note_on_c, 0, 66, 88
4, 48178, Note_off_c, 0, 66, 0
4, 48180, Note_on_c, 0, 63, 88
4, 48238, Note_off_c, 0, 63, 0
4, 48240, Note_on_c, 0, 75, 88
4, 48534, Note_off_c, 0, 75, 0
4, 48540, Note_on_c, 0, 73, 88
4, 48598, Note_off_c, 0, 73, 0
4, 48600, Note_on_c, 0, 72, 88
4, 48658, Note_off_c, 0, 72, 0
4, 48660, Note_on_c, 0, 75, 88
4, 48718, Note_off_c, 0, 75, 0
4, 48720, Note_on_c, 0, 73, 88
4, 48778, Note_off_c, 0, 73, 0
4, 48780, Note_on_c, 0, 68, 88
4, 48838, Note_off_c, 0, 68, 0
4, 48840, Note_on_c, 0, 70, 88
4, 48898, Note_off_c, 0, 70, 0
4, 48900, Note_on_c, 0, 71, 88
4, 48958, Note_off_c, 0, 71, 0
4, 48960, Note_on_c, 0, 70, 88
4, 49018, Note_off_c, 0, 70, 0
4, 49020, Note_on_c, 0, 68, 88
4, 49078, Note_off_c, 0, 68, 0
4, 49080, Note_on_c, 0, 66, 88
4, 49138, Note_off_c, 0, 66, 0
4, 49140, Note_on_c, 0, 68, 88
4, 49198, Note_off_c, 0, 68, 0
4, 49200, Note_on_c, 0, 77, 88
4, 49316, Note_off_c, 0, 77, 0
4, 49320, Note_on_c, 0, 73, 88
4, 49436, Note_off_c, 0, 73, 0
4, 49440, Note_on_c, 0, 68, 88
4, 49556, Note_off_c, 0, 68, 0
4, 49560, Note_on_c, 0, 66, 88
4, 49618, Note_off_c, 0, 66, 0
4, 49620, Note_on_c, 0, 65, 88
4, 49678, Note_off_c, 0, 65, 0
4, 49680, Note_on_c, 0, 66, 88
4, 49796, Note_off_c, 0, 66, 0
4, 49800, Note_on_c, 0, 75, 88
4, 49916, Note_off_c, 0, 75, 0
4, 49920, Note_on_c, 0, 65, 88
4, 50036, Note_off_c, 0, 65, 0
4, 50040, Note_on_c, 0, 73, 88
4, 50156, Note_off_c, 0, 73, 0
4, 50160, Note_on_c, 0, 63, 88
4, 50276, Note_off_c, 0, 63, 0
4, 50280, Note_on_c, 0, 72, 88
4, 50396, Note_off_c, 0, 72, 0
4, 50400, Note_on_c, 0, 61, 88
4, 50458, Note_off_c, 0, 61, 0
4, 50460, Note_on_c, 0, 65, 88
4, 50518, Note_off_c, 0, 65, 0
4, 50520, Note_on_c, 0, 66, 88
4, 50578, Note_off_c, 0, 66, 0
4, 50580, Note_on_c, 0, 68, 88
4, 50638, Note_off_c, 0, 68, 0
4, 50640, Note_on_c, 0, 70, 88
4, 50698, Note_off_c, 0, 70, 0
4, 50700, Note_on_c, 0, 72, 88
4, 50758, Note_off_c, 0, 72, 0
4, 50760, Note_on_c, 0, 73, 88
4, 50818, Note_off_c, 0, 73, 0
4, 50820, Note_on_c, 0, 75, 88
4, 50878, Note_off_c, 0, 75, 0
4, 50880, Note_on_c, 0, 76, 88
4, 50938, Note_off_c, 0, 76, 0
4, 50940, Note_on_c, 0, 75, 88
4, 50998, Note_off_c, 0, 75, 0
4, 51000, Note_on_c, 0, 73, 88
4, 51058, Note_off_c, 0, 73, 0
4, 51060, Note_on_c, 0, 75, 88
4, 51118, Note_off_c, 0, 75, 0
4, 51120, Note_on_c, 0, 76, 88
4, 51178, Note_off_c, 0, 76, 0
4, 51180, Note_on_c, 0, 79, 88
4, 51238, Note_off_c, 0, 79, 0
4, 51240, Note_on_c, 0, 80, 88
4, 51298, Note_off_c, 0, 80, 0
4, 51300, Note_on_c, 0, 82, 88
4, 51358, Note_off_c, 0, 82, 0
4, 51360, Note_on_c, 0, 73, 88
4, 51418, Note_off_c, 0, 73, 0
4, 51420, Note_on_c, 0, 72, 88
4, 51478, Note_off_c, 0, 72, 0
4, 51480, Note_on_c, 0, 70, 88
4, 51538, Note_off_c, 0, 70, 0
4, 51540, Note_on_c, 0, 68, 88
4, 51598, Note_off_c, 0, 68, 0
4, 51600, Note_on_c, 0, 75, 88
4, 51716, Note_off_c, 0, 75, 0
4, 51720, Note_on_c, 0, 66, 88
4, 51836, Note_off_c, 0, 66, 0
4, 51840, Note_on_c, 0, 65, 88
4, 51956, Note_off_c, 0, 65, 0
4, 51960, Note_on_c, 0, 61, 88
4, 51960, Note_on_c, 0, 68, 88
4, 51960, Note_on_c, 0, 73, 88
4, 52076, Note_off_c, 0, 61, 0
4, 52076, Note_off_c, 0, 68, 0
4, 52076, Note_off_c, 0, 73, 0
4, 52080, Note_on_c, 0, 63, 88
4, 52196, Note_off_c, 0, 63, 0
4, 52200, Note_on_c, 0, 72, 88
4, 52316, Note_off_c, 0, 72, 0
4, 52320, Note_on_c, 0, 73, 88
4, 52790, Note_off_c, 0, 73, 0
4, 52790, End_track
5, 0, Start_track
5, 0, Title_t, "Track 2"
5, 0, Program_c, 1, 6
5, 52080, Note_on_c, 1, 66, 88
5, 52080, Note_on_c, 1, 70, 88
5, 52178, Note_off_c, 1, 66, 0
5, 52196, Note_off_c, 1, 70, 0
5, 52200, Note_on_c, 1, 66, 88
5, 52200, Note_on_c, 1, 68, 88
5, 52298, Note_off_c, 1, 68, 0
5, 52316, Note_off_c, 1, 66, 0
5, 52320, Note_on_c, 1, 65, 88
5, 52320, Note_on_c, 1, 68, 88
5, 52790, Note_off_c, 1, 65, 0
5, 52790, Note_off_c, 1, 68, 0
5, 52790, End_track
6, 0, Start_track
6, 0, Title_t, "Track 3"
6, 0, Program_c, 2, 6
6, 2280, Note_on_c, 2, 61, 88
6, 2396, Note_off_c, 2, 61, 0
6, 2400, Note_on_c, 2, 65, 88
6, 2458, Note_off_c, 2, 65, 0
6, 2460, Note_on_c, 2, 63, 88
6, 2518, Note_off_c, 2, 63, 0
6, 2520, Note_on_c, 2, 61, 88
6, 2578, Note_off_c, 2, 61, 0
6, 2580, Note_on_c, 2, 63, 88
6, 2638, Note_off_c, 2, 63, 0
6, 2640, Note_on_c, 2, 72, 88
6, 2756, Note_off_c, 2, 72, 0
6, 2760, Note_on_c, 2, 68, 88
6, 2876, Note_off_c, 2, 68, 0
6, 2880, Note_on_c, 2, 63, 88
6, 2996, Note_off_c, 2, 63, 0
6, 3000, Note_on_c, 2, 61, 88
6, 3058, Note_off_c, 2, 61, 0
6, 3060, Note_on_c, 2, 60, 88
6, 3118, Note_off_c, 2, 60, 0
6, 3120, Note_on_c, 2, 61, 88
6, 3236, Note_off_c, 2, 61, 0
6, 3240, Note_on_c, 2, 70, 88
6, 3356, Note_off_c, 2, 70, 0
6, 3360, Note_on_c, 2, 60, 88
6, 3476, Note_off_c, 2, 60, 0
6, 3480, Note_on_c, 2, 68, 88
6, 3596, Note_off_c, 2, 68, 0
6, 3600, Note_on_c, 2, 58, 88
6, 3716, Note_off_c, 2, 58, 0
6, 3720, Note_on_c, 2, 67, 88
6, 3836, Note_off_c, 2, 67, 0
6, 3840, Note_on_c, 2, 56, 88
6, 3956, Note_off_c, 2, 56, 0
6, 3960, Note_on_c, 2, 68, 88
6, 4018, Note_off_c, 2, 68, 0
6, 4020, Note_on_c, 2, 67, 88
6, 4078, Note_off_c, 2, 67, 0
6, 4080, Note_on_c, 2, 68, 88
6, 4138, Note_off_c, 2, 68, 0
6, 4140, Note_on_c, 2, 70, 88
6, 4198, Note_off_c, 2, 70, 0
6, 4200, Note_on_c, 2, 72, 88
6, 4258, Note_off_c, 2, 72, 0
6, 4260, Note_on_c, 2, 68, 88
6, 4318, Note_off_c, 2, 68, 0
6, 4320, Note_on_c, 2, 73, 88
6, 4378, Note_off_c, 2, 73, 0
6, 4380, Note_on_c, 2, 72, 88
6, 4438, Note_off_c, 2, 72, 0
6, 4440, Note_on_c, 2, 70, 88
6, 4498, Note_off_c, 2, 70, 0
6, 4500, Note_on_c, 2, 72, 88
6, 4558, Note_off_c, 2, 72, 0
6, 4560, Note_on_c, 2, 73, 88
6, 4618, Note_off_c, 2, 73, 0
6, 4620, Note_on_c, 2, 72, 88
6, 4678, Note_off_c, 2, 72, 0
6, 4680, Note_on_c, 2, 70, 88
6, 4738, Note_off_c, 2, 70, 0
6, 4740, Note_on_c, 2, 68, 88
6, 4798, Note_off_c, 2, 68, 0
6, 4800, Note_on_c, 2, 70, 88
6, 5094, Note_off_c, 2, 70, 0
6, 5100, Note_on_c, 2, 68, 88
6, 5158, Note_off_c, 2, 68, 0
6, 5160, Note_on_c, 2, 66, 88
6, 5218, Note_off_c, 2, 66, 0
6, 5220, Note_on_c, 2, 70, 88
6, 5278, Note_off_c, 2, 70, 0
6, 5280, Note_on_c, 2, 68, 88
6, 5338, Note_off_c, 2, 68, 0
6, 5340, Note_on_c, 2, 66, 88
6, 5398, Note_off_c, 2, 66, 0
6, 5400, Note_on_c, 2, 65, 88
6, 5458, Note_off_c, 2, 65, 0
6, 5460, Note_on_c, 2, 68, 88
6, 5518, Note_off_c, 2, 68, 0
6, 5520, Note_on_c, 2, 66, 88
6, 5578, Note_off_c, 2, 66, 0
6, 5580, Note_on_c, 2, 65, 88
6, 5638, Note_off_c, 2, 65, 0
6, 5640, Note_on_c, 2, 66, 88
6, 5698, Note_off_c, 2, 66, 0
6, 5700, Note_on_c, 2, 63, 88
6, 5758, Note_off_c, 2, 63, 0
6, 5760, Note_on_c, 2, 65, 88
6, 5994, Note_off_c, 2, 65, 0
6, 6120, Note_on_c, 2, 68, 88
6, 6236, Note_off_c, 2, 68, 0
6, 6240, Note_on_c, 2, 73, 88
6, 6578, Note_off_c, 2, 73, 0
6, 6600, Note_on_c, 2, 73, 88
6, 6658, Note_off_c, 2, 73, 0
6, 6660, Note_on_c, 2, 70, 88
6, 6718, Note_off_c, 2, 70, 0
6, 6720, Note_on_c, 2, 63, 88
6, 6954, Note_off_c, 2, 63, 0
6, 7080, Note_on_c, 2, 67, 88
6, 7196, Note_off_c, 2, 67, 0
6, 7200, Note_on_c, 2, 72, 88
6, 7538, Note_off_c, 2, 72, 0
6, 7560, Note_on_c, 2, 72, 88
6, 7618, Note_off_c, 2, 72, 0
6, 7620, Note_on_c, 2, 68, 88
6, 7678, Note_off_c, 2, 68, 0
6, 7680, Note_on_c, 2, 61, 88
6, 7914, Note_off_c, 2, 61, 0
6, 8040, Note_on_c, 2, 65, 88
6, 8156, Note_off_c, 2, 65, 0
6, 8160, Note_on_c, 2, 70, 88
6, 8454, Note_off_c, 2, 70, 0
6, 8460, Note_on_c, 2, 73, 88
6, 8518, Note_off_c, 2, 73, 0
6, 8520, Note_on_c, 2, 75, 88
6, 8578, Note_off_c, 2, 75, 0
6, 8580, Note_on_c, 2, 70, 88
6, 8638, Note_off_c, 2, 70, 0
6, 8640, Note_on_c, 2, 72, 88
6, 8874, Note_off_c, 2, 72, 0
6, 9000, Note_on_c, 2, 68, 88
6, 9175, Note_off_c, 2, 68, 0
6, 9180, Note_on_c, 2, 67, 88
6, 9238, Note_off_c, 2, 67, 0
6, 9240, Note_on_c, 2, 65, 88
6, 9298, Note_off_c, 2, 65, 0
6, 9300, Note_on_c, 2, 67, 88
6, 9358, Note_off_c, 2, 67, 0
6, 9360, Note_on_c, 2, 68, 88
6, 9418, Note_off_c, 2, 68, 0
6, 9420, Note_on_c, 2, 66, 88
6, 9478, Note_off_c, 2, 66, 0
6, 9480, Note_on_c, 2, 65, 88
6, 9538, Note_off_c, 2, 65, 0
6, 9540, Note_on_c, 2, 63, 88
6, 9598, Note_off_c, 2, 63, 0
6, 9600, Note_on_c, 2, 65, 88
6, 9894, Note_off_c, 2, 65, 0
6, 9900, Note_on_c, 2, 63, 88
6, 9958, Note_off_c, 2, 63, 0
6, 9960, Note_on_c, 2, 61, 88
6, 10018, Note_off_c, 2, 61, 0
6, 10020, Note_on_c, 2, 65, 88
6, 10078, Note_off_c, 2, 65, 0
6, 10080, Note_on_c, 2, 63, 88
6, 10138, Note_off_c, 2, 63, 0
6, 10140, Note_on_c, 2, 61, 88
6, 10198, Note_off_c, 2, 61, 0
6, 10200, Note_on_c, 2, 60, 88
6, 10258, Note_off_c, 2, 60, 0
6, 10260, Note_on_c, 2, 63, 88
6, 10318, Note_off_c, 2, 63, 0
6, 10320, Note_on_c, 2, 61, 88
6, 10378, Note_off_c, 2, 61, 0
6, 10380, Note_on_c, 2, 60, 88
6, 10438, Note_off_c, 2, 60, 0
6, 10440, Note_on_c, 2, 61, 88
6, 10498, Note_off_c, 2, 61, 0
6, 10500, Note_on_c, 2, 58, 88
6, 10558, Note_off_c, 2, 58, 0
6, 10560, Note_on_c, 2, 60, 88
6, 10676, Note_off_c, 2, 60, 0
6, 10680, Note_on_c, 2, 63, 88
6, 10796, Note_off_c, 2, 63, 0
6, 10800, Note_on_c, 2, 68, 88
6, 11034, Note_off_c, 2, 68, 0
6, 11160, Note_on_c, 2, 59, 88
6, 11218, Note_off_c, 2, 59, 0
6, 11220, Note_on_c, 2, 56, 88
6, 11278, Note_off_c, 2, 56, 0
6, 11280, Note_on_c, 2, 53, 88
6, 11514, Note_off_c, 2, 53, 0
6, 11640, Note_on_c, 2, 53, 88
6, 11698, Note_off_c, 2, 53, 0
6, 11700, Note_on_c, 2, 56, 88
6, 11758, Note_off_c, 2, 56, 0
6, 11760, Note_on_c, 2, 59, 88
6, 11994, Note_off_c, 2, 59, 0
6, 12000, Note_on_c, 2, 58, 88
6, 12116, Note_off_c, 2, 58, 0
6, 12120, Note_on_c, 2, 59, 88
6, 12236, Note_off_c, 2, 59, 0
6, 12240, Note_on_c, 2, 58, 88
6, 12356, Note_off_c, 2, 58, 0
6, 12360, Note_on_c, 2, 50, 88
6, 12476, Note_off_c, 2, 50, 0
6, 12480, Note_on_c, 2, 51, 88
6, 12714, Note_off_c, 2, 51, 0
6, 14760, Note_on_c, 2, 65, 88
6, 14876, Note_off_c, 2, 65, 0
6, 14880, Note_on_c, 2, 70, 88
6, 15174, Note_off_c, 2, 70, 0
6, 15180, Note_on_c, 2, 73, 88
6, 15238, Note_off_c, 2, 73, 0
6, 15240, Note_on_c, 2, 75, 88
6, 15298, Note_off_c, 2, 75, 0
6, 15300, Note_on_c, 2, 70, 88
6, 15358, Note_off_c, 2, 70, 0
6, 15360, Note_on_c, 2, 72, 88
6, 15476, Note_off_c, 2, 72, 0
6, 15720, Note_on_c, 2, 63, 88
6, 15836, Note_off_c, 2, 63, 0
6, 15840, Note_on_c, 2, 68, 88
6, 16134, Note_off_c, 2, 68, 0
6, 16140, Note_on_c, 2, 72, 88
6, 16198, Note_off_c, 2, 72, 0
6, 16200, Note_on_c, 2, 73, 88
6, 16258, Note_off_c, 2, 73, 0
6, 16260, Note_on_c, 2, 68, 88
6, 16318, Note_off_c, 2, 68, 0
6, 16320, Note_on_c, 2, 70, 88
6, 16436, Note_off_c, 2, 70, 0
6, 16680, Note_on_c, 2, 61, 88
6, 16796, Note_off_c, 2, 61, 0
6, 16800, Note_on_c, 2, 67, 88
6, 17094, Note_off_c, 2, 67, 0
6, 17100, Note_on_c, 2, 70, 88
6, 17158, Note_off_c, 2, 70, 0
6, 17160, Note_on_c, 2, 72, 88
6, 17218, Note_off_c, 2, 72, 0
6, 17220, Note_on_c, 2, 67, 88
6, 17278, Note_off_c, 2, 67, 0
6, 17280, Note_on_c, 2, 68, 88
6, 17514, Note_off_c, 2, 68, 0
6, 17640, Note_on_c, 2, 60, 88
6, 17756, Note_off_c, 2, 60, 0
6, 17760, Note_on_c, 2, 61, 88
6, 17818, Note_off_c, 2, 61, 0
6, 17820, Note_on_c, 2, 60, 88
6, 17878, Note_off_c, 2, 60, 0
6, 17880, Note_on_c, 2, 58, 88
6, 17938, Note_off_c, 2, 58, 0
6, 17940, Note_on_c, 2, 60, 88
6, 17998, Note_off_c, 2, 60, 0
6, 18000, Note_on_c, 2, 68, 88
6, 18116, Note_off_c, 2, 68, 0
6, 18120, Note_on_c, 2, 65, 88
6, 18236, Note_off_c, 2, 65, 0
6, 18240, Note_on_c, 2, 60, 88
6, 18356, Note_off_c, 2, 60, 0
6, 18360, Note_on_c, 2, 58, 88
6, 18418, Note_off_c, 2, 58, 0
6, 18420, Note_on_c, 2, 56, 88
6, 18478, Note_off_c, 2, 56, 0
6, 18480, Note_on_c, 2, 58, 88
6, 18596, Note_off_c, 2, 58, 0
6, 18600, Note_on_c, 2, 67, 88
6, 18716, Note_off_c, 2, 67, 0
6, 18720, Note_on_c, 2, 56, 88
6, 18836, Note_off_c, 2, 56, 0
6, 18840, Note_on_c, 2, 65, 88
6, 18956, Note_off_c, 2, 65, 0
6, 18960, Note_on_c, 2, 55, 88
6, 19076, Note_off_c, 2, 55, 0
6, 19080, Note_on_c, 2, 64, 88
6, 19196, Note_off_c, 2, 64, 0
6, 19200, Note_on_c, 2, 53, 88
6, 19553, Note_off_c, 2, 53, 0
6, 19560, Note_on_c, 2, 52, 88
6, 19676, Note_off_c, 2, 52, 0
6, 19680, Note_on_c, 2, 53, 88
6, 19796, Note_off_c, 2, 53, 0
6, 19800, Note_on_c, 2, 52, 88
6, 19916, Note_off_c, 2, 52, 0
6, 19920, Note_on_c, 2, 53, 88
6, 20036, Note_off_c, 2, 53, 0
6, 20040, Note_on_c, 2, 58, 88
6, 20156, Note_off_c, 2, 58, 0
6, 20160, Note_on_c, 2, 56, 88
6, 20276, Note_off_c, 2, 56, 0
6, 20280, Note_on_c, 2, 55, 88
6, 20338, Note_off_c, 2, 55, 0
6, 20340, Note_on_c, 2, 53, 88
6, 20398, Note_off_c, 2, 53, 0
6, 20400, Note_on_c, 2, 55, 88
6, 20516, Note_off_c, 2, 55, 0
6, 20520, Note_on_c, 2, 58, 88
6, 20636, Note_off_c, 2, 58, 0
6, 20640, Note_on_c, 2, 56, 88
6, 20698, Note_off_c, 2, 56, 0
6, 20700, Note_on_c, 2, 58, 88
6, 20758, Note_off_c, 2, 58, 0
6, 20760, Note_on_c, 2, 60, 88
6, 20818, Note_off_c, 2, 60, 0
6, 20820, Note_on_c, 2, 56, 88
6, 20878, Note_off_c, 2, 56, 0
6, 20880, Note_on_c, 2, 53, 88
6, 20938, Note_off_c, 2, 53, 0
6, 20940, Note_on_c, 2, 54, 88
6, 20998, Note_off_c, 2, 54, 0
6, 21000, Note_on_c, 2, 56, 88
6, 21058, Note_off_c, 2, 56, 0
6, 21060, Note_on_c, 2, 53, 88
6, 21118, Note_off_c, 2, 53, 0
6, 21120, Note_on_c, 2, 50, 88
6, 21178, Note_off_c, 2, 50, 0
6, 21180, Note_on_c, 2, 51, 88
6, 21238, Note_off_c, 2, 51, 0
6, 21240, Note_on_c, 2, 53, 88
6, 21298, Note_off_c, 2, 53, 0
6, 21300, Note_on_c, 2, 50, 88
6, 21358, Note_off_c, 2, 50, 0
6, 21360, Note_on_c, 2, 46, 88
6, 21418, Note_off_c, 2, 46, 0
6, 21420, Note_on_c, 2, 50, 88
6, 21478, Note_off_c, 2, 50, 0
6, 21480, Note_on_c, 2, 53, 88
6, 21538, Note_off_c, 2, 53, 0
6, 21540, Note_on_c, 2, 58, 88
6, 21598, Note_off_c, 2, 58, 0
6, 21600, Note_on_c, 2, 51, 88
6, 21658, Note_off_c, 2, 51, 0
6, 21660, Note_on_c, 2, 54, 88
6, 21718, Note_off_c, 2, 54, 0
6, 21720, Note_on_c, 2, 58, 88
6, 21778, Note_off_c, 2, 58, 0
6, 21780, Note_on_c, 2, 62, 88
6, 21838, Note_off_c, 2, 62, 0
6, 21840, Note_on_c, 2, 63, 88
6, 21898, Note_off_c, 2, 63, 0
6, 21900, Note_on_c, 2, 65, 88
6, 21958, Note_off_c, 2, 65, 0
6, 21960, Note_on_c, 2, 66, 88
6, 22018, Note_off_c, 2, 66, 0
6, 22020, Note_on_c, 2, 63, 88
6, 22078, Note_off_c, 2, 63, 0
6, 22080, Note_on_c, 2, 60, 88
6, 22138, Note_off_c, 2, 60, 0
6, 22140, Note_on_c, 2, 61, 88
6, 22198, Note_off_c, 2, 61, 0
6, 22200, Note_on_c, 2, 63, 88
6, 22258, Note_off_c, 2, 63, 0
6, 22260, Note_on_c, 2, 60, 88
6, 22318, Note_off_c, 2, 60, 0
6, 22320, Note_on_c, 2, 56, 88
6, 22598, Note_off_c, 2, 56, 0
6, 22620, Note_on_c, 2, 56, 88
6, 22678, Note_off_c, 2, 56, 0
6, 22680, Note_on_c, 2, 58, 88
6, 22738, Note_off_c, 2, 58, 0
6, 22740, Note_on_c, 2, 60, 88
6, 22798, Note_off_c, 2, 60, 0
6, 22800, Note_on_c, 2, 61, 88
6, 22916, Note_off_c, 2, 61, 0
6, 23280, Note_on_c, 2, 72, 88
6, 23750, Note_off_c, 2, 72, 0
6, 23760, Note_on_c, 2, 70, 88
6, 24116, Note_off_c, 2, 70, 0
6, 24120, Note_on_c, 2, 68, 88
6, 24236, Note_off_c, 2, 68, 0
6, 24240, Note_on_c, 2, 67, 88
6, 24356, Note_off_c, 2, 67, 0
6, 24360, Note_on_c, 2, 70, 88
6, 24476, Note_off_c, 2, 70, 0
6, 24480, Note_on_c, 2, 63, 88
6, 24538, Note_off_c, 2, 63, 0
6, 24840, Note_on_c, 2, 56, 88
6, 24956, Note_off_c, 2, 56, 0
6, 24960, Note_on_c, 2, 58, 88
6, 25018, Note_off_c, 2, 58, 0
6, 25020, Note_on_c, 2, 56, 88
6, 25078, Note_off_c, 2, 56, 0
6, 25080, Note_on_c, 2, 54, 88
6, 25138, Note_off_c, 2, 54, 0
6, 25140, Note_on_c, 2, 56, 88
6, 25198, Note_off_c, 2, 56, 0
6, 25200, Note_on_c, 2, 65, 88
6, 25316, Note_off_c, 2, 65, 0
6, 25320, Note_on_c, 2, 61, 88
6, 25436, Note_off_c, 2, 61, 0
6, 25440, Note_on_c, 2, 56, 88
6, 25556, Note_off_c, 2, 56, 0
6, 25560, Note_on_c, 2, 54, 88
6, 25618, Note_off_c, 2, 54, 0
6, 25620, Note_on_c, 2, 53, 88
6, 25678, Note_off_c, 2, 53, 0
6, 25680, Note_on_c, 2, 54, 88
6, 25796, Note_off_c, 2, 54, 0
6, 25800, Note_on_c, 2, 63, 88
6, 25916, Note_off_c, 2, 63, 0
6, 25920, Note_on_c, 2, 53, 88
6, 26036, Note_off_c, 2, 53, 0
6, 26040, Note_on_c, 2, 61, 88
6, 26156, Note_off_c, 2, 61, 0
6, 26160, Note_on_c, 2, 51, 88
6, 26276, Note_off_c, 2, 51, 0
6, 26280, Note_on_c, 2, 60, 88
6, 26396, Note_off_c, 2, 60, 0
6, 26400, Note_on_c, 2, 61, 88
6, 26634, Note_off_c, 2, 61, 0
6, 26760, Note_on_c, 2, 80, 88
6, 26818, Note_off_c, 2, 80, 0
6, 26820, Note_on_c, 2, 77, 88
6, 26878, Note_off_c, 2, 77, 0
6, 26880, Note_on_c, 2, 73, 88
6, 27114, Note_off_c, 2, 73, 0
6, 27240, Note_on_c, 2, 73, 88
6, 27298, Note_off_c, 2, 73, 0
6, 27300, Note_on_c, 2, 70, 88
6, 27358, Note_off_c, 2, 70, 0
6, 27360, Note_on_c, 2, 67, 88
6, 27594, Note_off_c, 2, 67, 0
6, 27720, Note_on_c, 2, 73, 88
6, 27836, Note_off_c, 2, 73, 0
6, 27840, Note_on_c, 2, 71, 88
6, 28074, Note_off_c, 2, 71, 0
6, 28080, Note_on_c, 2, 70, 88
6, 28314, Note_off_c, 2, 70, 0
6, 28320, Note_on_c, 2, 68, 88
6, 28436, Note_off_c, 2, 68, 0
6, 28920, Note_on_c, 2, 59, 88
6, 28978, Note_off_c, 2, 59, 0
6, 28980, Note_on_c, 2, 56, 88
6, 29038, Note_off_c, 2, 56, 0
6, 29040, Note_on_c, 2, 53, 88
6, 29156, Note_off_c, 2, 53, 0
6, 29400, Note_on_c, 2, 58, 88
6, 29458, Note_off_c, 2, 58, 0
6, 29460, Note_on_c, 2, 54, 88
6, 29518, Note_off_c, 2, 54, 0
6, 29520, Note_on_c, 2, 51, 88
6, 29636, Note_off_c, 2, 51, 0
6, 29880, Note_on_c, 2, 58, 88
6, 29938, Note_off_c, 2, 58, 0
6, 29940, Note_on_c, 2, 54, 88
6, 29998, Note_off_c, 2, 54, 0
6, 30000, Note_on_c, 2, 51, 88
6, 30116, Note_off_c, 2, 51, 0
6, 30360, Note_on_c, 2, 56, 88
6, 30418, Note_off_c, 2, 56, 0
6, 30420, Note_on_c, 2, 53, 88
6, 30478, Note_off_c, 2, 53, 0
6, 30480, Note_on_c, 2, 50, 88
6, 30596, Note_off_c, 2, 50, 0
6, 30840, Note_on_c, 2, 56, 88
6, 30898, Note_off_c, 2, 56, 0
6, 30900, Note_on_c, 2, 53, 88
6, 30958, Note_off_c, 2, 53, 0
6, 30960, Note_on_c, 2, 50, 88
6, 31076, Note_off_c, 2, 50, 0
6, 31320, Note_on_c, 2, 54, 88
6, 31378, Note_off_c, 2, 54, 0
6, 31380, Note_on_c, 2, 51, 88
6, 31438, Note_off_c, 2, 51, 0
6, 31440, Note_on_c, 2, 48, 88
6, 31556, Note_off_c, 2, 48, 0
6, 31800, Note_on_c, 2, 54, 88
6, 31858, Note_off_c, 2, 54, 0
6, 31860, Note_on_c, 2, 51, 88
6, 31918, Note_off_c, 2, 51, 0
6, 31920, Note_on_c, 2, 48, 88
6, 32036, Note_off_c, 2, 48, 0
6, 41640, Note_on_c, 2, 61, 88
6, 41698, Note_off_c, 2, 61, 0
6, 41700, Note_on_c, 2, 63, 88
6, 41758, Note_off_c, 2, 63, 0
6, 41760, Note_on_c, 2, 65, 88
6, 41818, Note_off_c, 2, 65, 0
6, 41820, Note_on_c, 2, 63, 88
6, 41878, Note_off_c, 2, 63, 0
6, 41880, Note_on_c, 2, 61, 88
6, 41938, Note_off_c, 2, 61, 0
6, 41940, Note_on_c, 2, 63, 88
6, 41998, Note_off_c, 2, 63, 0
6, 42000, Note_on_c, 2, 72, 88
6, 42116, Note_off_c, 2, 72, 0
6, 42120, Note_on_c, 2, 68, 88
6, 42236, Note_off_c, 2, 68, 0
6, 42240, Note_on_c, 2, 63, 88
6, 42356, Note_off_c, 2, 63, 0
6, 42360, Note_on_c, 2, 61, 88
6, 42418, Note_off_c, 2, 61, 0
6, 42420, Note_on_c, 2, 60, 88
6, 42478, Note_off_c, 2, 60, 0
6, 42480, Note_on_c, 2, 61, 88
6, 42596, Note_off_c, 2, 61, 0
6, 42600, Note_on_c, 2, 70, 88
6, 42716, Note_off_c, 2, 70, 0
6, 42720, Note_on_c, 2, 60, 88
6, 42836, Note_off_c, 2, 60, 0
6, 42840, Note_on_c, 2, 68, 88
6, 42956, Note_off_c, 2, 68, 0
6, 42960, Note_on_c, 2, 58, 88
6, 43076, Note_off_c, 2, 58, 0
6, 43080, Note_on_c, 2, 67, 88
6, 43196, Note_off_c, 2, 67, 0
6, 43200, Note_on_c, 2, 56, 88
6, 43316, Note_off_c, 2, 56, 0
6, 43320, Note_on_c, 2, 68, 88
6, 43378, Note_off_c, 2, 68, 0
6, 43380, Note_on_c, 2, 66, 88
6, 43438, Note_off_c, 2, 66, 0
6, 43440, Note_on_c, 2, 68, 88
6, 43498, Note_off_c, 2, 68, 0
6, 43500, Note_on_c, 2, 70, 88
6, 43558, Note_off_c, 2, 70, 0
6, 43560, Note_on_c, 2, 72, 88
6, 43618, Note_off_c, 2, 72, 0
6, 43620, Note_on_c, 2, 68, 88
6, 43678, Note_off_c, 2, 68, 0
6, 43680, Note_on_c, 2, 73, 88
6, 43738, Note_off_c, 2, 73, 0
6, 43740, Note_on_c, 2, 72, 88
6, 43798, Note_off_c, 2, 72, 0
6, 43800, Note_on_c, 2, 70, 88
6, 43858, Note_off_c, 2, 70, 0
6, 43860, Note_on_c, 2, 72, 88
6, 43918, Note_off_c, 2, 72, 0
6, 43920, Note_on_c, 2, 73, 88
6, 43978, Note_off_c, 2, 73, 0
6, 43980, Note_on_c, 2, 72, 88
6, 44038, Note_off_c, 2, 72, 0
6, 44040, Note_on_c, 2, 70, 88
6, 44098, Note_off_c, 2, 70, 0
6, 44100, Note_on_c, 2, 68, 88
6, 44158, Note_off_c, 2, 68, 0
6, 44160, Note_on_c, 2, 70, 88
6, 44454, Note_off_c, 2, 70, 0
6, 44460, Note_on_c, 2, 68, 88
6, 44518, Note_off_c, 2, 68, 0
6, 44520, Note_on_c, 2, 66, 88
6, 44578, Note_off_c, 2, 66, 0
6, 44580, Note_on_c, 2, 70, 88
6, 44638, Note_off_c, 2, 70, 0
6, 44640, Note_on_c, 2, 68, 88
6, 44698, Note_off_c, 2, 68, 0
6, 44700, Note_on_c, 2, 66, 88
6, 44758, Note_off_c, 2, 66, 0
6, 44760, Note_on_c, 2, 65, 88
6, 44818, Note_off_c, 2, 65, 0
6, 44820, Note_on_c, 2, 68, 88
6, 44878, Note_off_c, 2, 68, 0
6, 44880, Note_on_c, 2, 66, 88
6, 44938, Note_off_c, 2, 66, 0
6, 44940, Note_on_c, 2, 65, 88
6, 44998, Note_off_c, 2, 65, 0
6, 45000, Note_on_c, 2, 66, 88
6, 45058, Note_off_c, 2, 66, 0
6, 45060, Note_on_c, 2, 63, 88
6, 45118, Note_off_c, 2, 63, 0
6, 45120, Note_on_c, 2, 65, 88
6, 45710, Note_off_c, 2, 65, 0
6, 45720, Note_on_c, 2, 61, 88
6, 45836, Note_off_c, 2, 61, 0
6, 45840, Note_on_c, 2, 66, 88
6, 45956, Note_off_c, 2, 66, 0
6, 45960, Note_on_c, 2, 65, 88
6, 46076, Note_off_c, 2, 65, 0
6, 46080, Note_on_c, 2, 66, 88
6, 46418, Note_off_c, 2, 66, 0
6, 46440, Note_on_c, 2, 66, 88
6, 46498, Note_off_c, 2, 66, 0
6, 46500, Note_on_c, 2, 63, 88
6, 46558, Note_off_c, 2, 63, 0
6, 46560, Note_on_c, 2, 56, 88
6, 46794, Note_off_c, 2, 56, 0
6, 46920, Note_on_c, 2, 60, 88
6, 47036, Note_off_c, 2, 60, 0
6, 47040, Note_on_c, 2, 65, 88
6, 47378, Note_off_c, 2, 65, 0
6, 47400, Note_on_c, 2, 65, 88
6, 47458, Note_off_c, 2, 65, 0
6, 47460, Note_on_c, 2, 62, 88
6, 47518, Note_off_c, 2, 62, 0
6, 47520, Note_on_c, 2, 54, 88
6, 47754, Note_off_c, 2, 54, 0
6, 47880, Note_on_c, 2, 58, 88
6, 47996, Note_off_c, 2, 58, 0
6, 48000, Note_on_c, 2, 63, 88
6, 48294, Note_off_c, 2, 63, 0
6, 48300, Note_on_c, 2, 66, 88
6, 48358, Note_off_c, 2, 66, 0
6, 48360, Note_on_c, 2, 68, 88
6, 48418, Note_off_c, 2, 68, 0
6, 48420, Note_on_c, 2, 63, 88
6, 48478, Note_off_c, 2, 63, 0
6, 48480, Note_on_c, 2, 65, 88
6, 48714, Note_off_c, 2, 65, 0
6, 48840, Note_on_c, 2, 61, 88
6, 49018, Note_off_c, 2, 61, 0
6, 49020, Note_on_c, 2, 60, 88
6, 49078, Note_off_c, 2, 60, 0
6, 49080, Note_on_c, 2, 58, 88
6, 49138, Note_off_c, 2, 58, 0
6, 49140, Note_on_c, 2, 60, 88
6, 49198, Note_off_c, 2, 60, 0
6, 49200, Note_on_c, 2, 61, 88
6, 49258, Note_off_c, 2, 61, 0
6, 49260, Note_on_c, 2, 60, 88
6, 49318, Note_off_c, 2, 60, 0
6, 49320, Note_on_c, 2, 58, 88
6, 49378, Note_off_c, 2, 58, 0
6, 49380, Note_on_c, 2, 56, 88
6, 49438, Note_off_c, 2, 56, 0
6, 49440, Note_on_c, 2, 58, 88
6, 49734, Note_off_c, 2, 58, 0
6, 49740, Note_on_c, 2, 56, 88
6, 49798, Note_off_c, 2, 56, 0
6, 49800, Note_on_c, 2, 54, 88
6, 49858, Note_off_c, 2, 54, 0
6, 49860, Note_on_c, 2, 58, 88
6, 49918, Note_off_c, 2, 58, 0
6, 49920, Note_on_c, 2, 56, 88
6, 49978, Note_off_c, 2, 56, 0
6, 49980, Note_on_c, 2, 54, 88
6, 50038, Note_off_c, 2, 54, 0
6, 50040, Note_on_c, 2, 53, 88
6, 50098, Note_off_c, 2, 53, 0
6, 50100, Note_on_c, 2, 56, 88
6, 50158, Note_off_c, 2, 56, 0
6, 50160, Note_on_c, 2, 54, 88
6, 50218, Note_off_c, 2, 54, 0
6, 50220, Note_on_c, 2, 53, 88
6, 50278, Note_off_c, 2, 53, 0
6, 50280, Note_on_c, 2, 51, 88
6, 50338, Note_off_c, 2, 51, 0
6, 50340, Note_on_c, 2, 54, 88
6, 50398, Note_off_c, 2, 54, 0
6, 50400, Note_on_c, 2, 53, 88
6, 50458, Note_off_c, 2, 53, 0
6, 50460, Note_on_c, 2, 56, 88
6, 50518, Note_off_c, 2, 56, 0
6, 50520, Note_on_c, 2, 58, 88
6, 50578, Note_off_c, 2, 58, 0
6, 50580, Note_on_c, 2, 60, 88
6, 50638, Note_off_c, 2, 60, 0
6, 50640, Note_on_c, 2, 61, 88
6, 50698, Note_off_c, 2, 61, 0
6, 50700, Note_on_c, 2, 60, 88
6, 50758, Note_off_c, 2, 60, 0
6, 50760, Note_on_c, 2, 58, 88
6, 50818, Note_off_c, 2, 58, 0
6, 50820, Note_on_c, 2, 56, 88
6, 50878, Note_off_c, 2, 56, 0
6, 50880, Note_on_c, 2, 55, 88
6, 50938, Note_off_c, 2, 55, 0
6, 50940, Note_on_c, 2, 56, 88
6, 50998, Note_off_c, 2, 56, 0
6, 51000, Note_on_c, 2, 58, 88
6, 51058, Note_off_c, 2, 58, 0
6, 51060, Note_on_c, 2, 55, 88
6, 51118, Note_off_c, 2, 55, 0
6, 51120, Note_on_c, 2, 51, 88
6, 51398, Note_off_c, 2, 51, 0
6, 51420, Note_on_c, 2, 51, 88
6, 51478, Note_off_c, 2, 51, 0
6, 51480, Note_on_c, 2, 53, 88
6, 51538, Note_off_c, 2, 53, 0
6, 51540, Note_on_c, 2, 54, 88
6, 51598, Note_off_c, 2, 54, 0
6, 51600, Note_on_c, 2, 56, 88
6, 51658, Note_off_c, 2, 56, 0
6, 51660, Note_on_c, 2, 58, 88
6, 51718, Note_off_c, 2, 58, 0
6, 51720, Note_on_c, 2, 60, 88
6, 51778, Note_off_c, 2, 60, 0
6, 51780, Note_on_c, 2, 56, 88
6, 51838, Note_off_c, 2, 56, 0
6, 51840, Note_on_c, 2, 61, 88
6, 52074, Note_off_c, 2, 61, 0
6, 52080, Note_on_c, 2, 63, 88
6, 52314, Note_off_c, 2, 63, 0
6, 52320, Note_on_c, 2, 61, 88
6, 52790, Note_off_c, 2, 61, 0
6, 52790, End_track
7, 0, Start_track
7, 0, Title_t, "Track 4"
7, 0, Program_c, 3, 6
7, 4200, Note_on_c, 3, 56, 88
7, 4316, Note_off_c, 3, 56, 0
7, 4320, Note_on_c, 3, 58, 88
7, 4378, Note_off_c, 3, 58, 0
7, 4380, Note_on_c, 3, 56, 88
7, 4438, Note_off_c, 3, 56, 0
7, 4440, Note_on_c, 3, 54, 88
7, 4498, Note_off_c, 3, 54, 0
7, 4500, Note_on_c, 3, 56, 88
7, 4558, Note_off_c, 3, 56, 0
7, 4560, Note_on_c, 3, 65, 88
7, 4676, Note_off_c, 3, 65, 0
7, 4680, Note_on_c, 3, 61, 88
7, 4796, Note_off_c, 3, 61, 0
7, 4800, Note_on_c, 3, 56, 88
7, 4916, Note_off_c, 3, 56, 0
7, 4920, Note_on_c, 3, 54, 88
7, 4978, Note_off_c, 3, 54, 0
7, 4980, Note_on_c, 3, 53, 88
7, 5038, Note_off_c, 3, 53, 0
7, 5040, Note_on_c, 3, 54, 88
7, 5156, Note_off_c, 3, 54, 0
7, 5160, Note_on_c, 3, 63, 88
7, 5276, Note_off_c, 3, 63, 0
7, 5280, Note_on_c, 3, 53, 88
7, 5396, Note_off_c, 3, 53, 0
7, 5400, Note_on_c, 3, 61, 88
7, 5516, Note_off_c, 3, 61, 0
7, 5520, Note_on_c, 3, 51, 88
7, 5636, Note_off_c, 3, 51, 0
7, 5640, Note_on_c, 3, 60, 88
7, 5756, Note_off_c, 3, 60, 0
7, 5760, Note_on_c, 3, 49, 88
7, 5876, Note_off_c, 3, 49, 0
7, 5880, Note_on_c, 3, 61, 88
7, 5938, Note_off_c, 3, 61, 0
7, 5940, Note_on_c, 3, 60, 88
7, 5998, Note_off_c, 3, 60, 0
7, 6000, Note_on_c, 3, 61, 88
7, 6058, Note_off_c, 3, 61, 0
7, 6060, Note_on_c, 3, 63, 88
7, 6118, Note_off_c, 3, 63, 0
7, 6120, Note_on_c, 3, 65, 88
7, 6178, Note_off_c, 3, 65, 0
7, 6180, Note_on_c, 3, 61, 88
7, 6238, Note_off_c, 3, 61, 0
7, 6240, Note_on_c, 3, 58, 88
7, 6298, Note_off_c, 3, 58, 0
7, 6300, Note_on_c, 3, 60, 88
7, 6358, Note_off_c, 3, 60, 0
7, 6360, Note_on_c, 3, 61, 88
7, 6418, Note_off_c, 3, 61, 0
7, 6420, Note_on_c, 3, 58, 88
7, 6478, Note_off_c, 3, 58, 0
7, 6480, Note_on_c, 3, 55, 88
7, 6538, Note_off_c, 3, 55, 0
7, 6540, Note_on_c, 3, 56, 88
7, 6598, Note_off_c, 3, 56, 0
7, 6600, Note_on_c, 3, 58, 88
7, 6658, Note_off_c, 3, 58, 0
7, 6660, Note_on_c, 3, 55, 88
7, 6718, Note_off_c, 3, 55, 0
7, 6720, Note_on_c, 3, 48, 88
7, 6836, Note_off_c, 3, 48, 0
7, 6840, Note_on_c, 3, 60, 88
7, 6898, Note_off_c, 3, 60, 0
7, 6900, Note_on_c, 3, 58, 88
7, 6958, Note_off_c, 3, 58, 0
7, 6960, Note_on_c, 3, 60, 88
7, 7018, Note_off_c, 3, 60, 0
7, 7020, Note_on_c, 3, 61, 88
7, 7078, Note_off_c, 3, 61, 0
7, 7080, Note_on_c, 3, 63, 88
7, 7138, Note_off_c, 3, 63, 0
7, 7140, Note_on_c, 3, 60, 88
7, 7198, Note_off_c, 3, 60, 0
7, 7200, Note_on_c, 3, 56, 88
7, 7258, Note_off_c, 3, 56, 0
7, 7260, Note_on_c, 3, 58, 88
7, 7318, Note_off_c, 3, 58, 0
7, 7320, Note_on_c, 3, 60, 88
7, 7378, Note_off_c, 3, 60, 0
7, 7380, Note_on_c, 3, 56, 88
7, 7438, Note_off_c, 3, 56, 0
7, 7440, Note_on_c, 3, 53, 88
7, 7498, Note_off_c, 3, 53, 0
7, 7500, Note_on_c, 3, 55, 88
7, 7558, Note_off_c, 3, 55, 0
7, 7560, Note_on_c, 3, 56, 88
7, 7618, Note_off_c, 3, 56, 0
7, 7620, Note_on_c, 3, 53, 88
7, 7678, Note_off_c, 3, 53, 0
7, 7680, Note_on_c, 3, 46, 88
7, 7796, Note_off_c, 3, 46, 0
7, 7800, Note_on_c, 3, 58, 88
7, 7858, Note_off_c, 3, 58, 0
7, 7860, Note_on_c, 3, 56, 88
7, 7918, Note_off_c, 3, 56, 0
7, 7920, Note_on_c, 3, 58, 88
7, 7978, Note_off_c, 3, 58, 0
7, 7980, Note_on_c, 3, 60, 88
7, 8038, Note_off_c, 3, 60, 0
7, 8040, Note_on_c, 3, 61, 88
7, 8098, Note_off_c, 3, 61, 0
7, 8100, Note_on_c, 3, 58, 88
7, 8158, Note_off_c, 3, 58, 0
7, 8160, Note_on_c, 3, 55, 88
7, 8218, Note_off_c, 3, 55, 0
7, 8220, Note_on_c, 3, 56, 88
7, 8278, Note_off_c, 3, 56, 0
7, 8280, Note_on_c, 3, 58, 88
7, 8338, Note_off_c, 3, 58, 0
7, 8340, Note_on_c, 3, 55, 88
7, 8398, Note_off_c, 3, 55, 0
7, 8400, Note_on_c, 3, 51, 88
7, 8458, Note_off_c, 3, 51, 0
7, 8460, Note_on_c, 3, 53, 88
7, 8518, Note_off_c, 3, 53, 0
7, 8520, Note_on_c, 3, 55, 88
7, 8578, Note_off_c, 3, 55, 0
7, 8580, Note_on_c, 3, 51, 88
7, 8638, Note_off_c, 3, 51, 0
7, 8640, Note_on_c, 3, 44, 88
7, 8756, Note_off_c, 3, 44, 0
7, 8760, Note_on_c, 3, 56, 88
7, 8818, Note_off_c, 3, 56, 0
7, 8820, Note_on_c, 3, 58, 88
7, 8878, Note_off_c, 3, 58, 0
7, 8880, Note_on_c, 3, 60, 88
7, 8996, Note_off_c, 3, 60, 0
7, 9000, Note_on_c, 3, 56, 88
7, 9116, Note_off_c, 3, 56, 0
7, 9120, Note_on_c, 3, 61, 88
7, 9354, Note_off_c, 3, 61, 0
7, 9360, Note_on_c, 3, 60, 88
7, 9594, Note_off_c, 3, 60, 0
7, 9600, Note_on_c, 3, 58, 88
7, 9716, Note_off_c, 3, 58, 0
7, 9720, Note_on_c, 3, 56, 88
7, 9836, Note_off_c, 3, 56, 0
7, 9840, Note_on_c, 3, 55, 88
7, 10074, Note_off_c, 3, 55, 0
7, 10080, Note_on_c, 3, 56, 88
7, 10314, Note_off_c, 3, 56, 0
7, 10320, Note_on_c, 3, 51, 88
7, 10554, Note_off_c, 3, 51, 0
7, 10560, Note_on_c, 3, 56, 88
7, 10794, Note_off_c, 3, 56, 0
7, 10920, Note_on_c, 3, 63, 88
7, 10978, Note_off_c, 3, 63, 0
7, 10980, Note_on_c, 3, 60, 88
7, 11038, Note_off_c, 3, 60, 0
7, 11040, Note_on_c, 3, 56, 88
7, 11274, Note_off_c, 3, 56, 0
7, 11400, Note_on_c, 3, 56, 88
7, 11458, Note_off_c, 3, 56, 0
7, 11460, Note_on_c, 3, 53, 88
7, 11518, Note_off_c, 3, 53, 0
7, 11520, Note_on_c, 3, 50, 88
7, 11754, Note_off_c, 3, 50, 0
7, 11880, Note_on_c, 3, 53, 88
7, 11996, Note_off_c, 3, 53, 0
7, 12000, Note_on_c, 3, 54, 88
7, 12116, Note_off_c, 3, 54, 0
7, 12120, Note_on_c, 3, 56, 88
7, 12236, Note_off_c, 3, 56, 0
7, 12240, Note_on_c, 3, 58, 88
7, 12356, Note_off_c, 3, 58, 0
7, 12360, Note_on_c, 3, 46, 88
7, 12476, Note_off_c, 3, 46, 0
7, 12480, Note_on_c, 3, 39, 88
7, 12714, Note_off_c, 3, 39, 0
7, 12840, Note_on_c, 3, 51, 88
7, 12956, Note_off_c, 3, 51, 0
7, 12960, Note_on_c, 3, 54, 88
7, 13018, Note_off_c, 3, 54, 0
7, 13020, Note_on_c, 3, 53, 88
7, 13078, Note_off_c, 3, 53, 0
7, 13080, Note_on_c, 3, 51, 88
7, 13138, Note_off_c, 3, 51, 0
7, 13140, Note_on_c, 3, 53, 88
7, 13198, Note_off_c, 3, 53, 0
7, 13200, Note_on_c, 3, 61, 88
7, 13316, Note_off_c, 3, 61, 0
7, 13320, Note_on_c, 3, 58, 88
7, 13436, Note_off_c, 3, 58, 0
7, 13440, Note_on_c, 3, 53, 88
7, 13556, Note_off_c, 3, 53, 0
7, 13560, Note_on_c, 3, 51, 88
7, 13618, Note_off_c, 3, 51, 0
7, 13620, Note_on_c, 3, 49, 88
7, 13678, Note_off_c, 3, 49, 0
7, 13680, Note_on_c, 3, 51, 88
7, 13796, Note_off_c, 3, 51, 0
7, 13800, Note_on_c, 3, 60, 88
7, 13916, Note_off_c, 3, 60, 0
7, 13920, Note_on_c, 3, 49, 88
7, 14036, Note_off_c, 3, 49, 0
7, 14040, Note_on_c, 3, 58, 88
7, 14156, Note_off_c, 3, 58, 0
7, 14160, Note_on_c, 3, 48, 88
7, 14276, Note_off_c, 3, 48, 0
7, 14280, Note_on_c, 3, 57, 88
7, 14396, Note_off_c, 3, 57, 0
7, 14400, Note_on_c, 3, 46, 88
7, 14516, Note_off_c, 3, 46, 0
7, 14520, Note_on_c, 3, 58, 88
7, 14578, Note_off_c, 3, 58, 0
7, 14580, Note_on_c, 3, 57, 88
7, 14638, Note_off_c, 3, 57, 0
7, 14640, Note_on_c, 3, 58, 88
7, 14698, Note_off_c, 3, 58, 0
7, 14700, Note_on_c, 3, 60, 88
7, 14758, Note_off_c, 3, 60, 0
7, 14760, Note_on_c, 3, 61, 88
7, 14818, Note_off_c, 3, 61, 0
7, 14820, Note_on_c, 3, 58, 88
7, 14878, Note_off_c, 3, 58, 0
7, 14880, Note_on_c, 3, 55, 88
7, 14938, Note_off_c, 3, 55, 0
7, 14940, Note_on_c, 3, 56, 88
7, 14998, Note_off_c, 3, 56, 0
7, 15000, Note_on_c, 3, 58, 88
7, 15058, Note_off_c, 3, 58, 0
7, 15060, Note_on_c, 3, 55, 88
7, 15118, Note_off_c, 3, 55, 0
7, 15120, Note_on_c, 3, 51, 88
7, 15178, Note_off_c, 3, 51, 0
7, 15180, Note_on_c, 3, 53, 88
7, 15238, Note_off_c, 3, 53, 0
7, 15240, Note_on_c, 3, 55, 88
7, 15298, Note_off_c, 3, 55, 0
7, 15300, Note_on_c, 3, 51, 88
7, 15358, Note_off_c, 3, 51, 0
7, 15360, Note_on_c, 3, 44, 88
7, 15476, Note_off_c, 3, 44, 0
7, 15480, Note_on_c, 3, 56, 88
7, 15538, Note_off_c, 3, 56, 0
7, 15540, Note_on_c, 3, 55, 88
7, 15598, Note_off_c, 3, 55, 0
7, 15600, Note_on_c, 3, 56, 88
7, 15658, Note_off_c, 3, 56, 0
7, 15660, Note_on_c, 3, 58, 88
7, 15718, Note_off_c, 3, 58, 0
7, 15720, Note_on_c, 3, 60, 88
7, 15778, Note_off_c, 3, 60, 0
7, 15780, Note_on_c, 3, 56, 88
7, 15838, Note_off_c, 3, 56, 0
7, 15840, Note_on_c, 3, 53, 88
7, 15898, Note_off_c, 3, 53, 0
7, 15900, Note_on_c, 3, 55, 88
7, 15958, Note_off_c, 3, 55, 0
7, 15960, Note_on_c, 3, 56, 88
7, 16018, Note_off_c, 3, 56, 0
7, 16020, Note_on_c, 3, 53, 88
7, 16078, Note_off_c, 3, 53, 0
7, 16080, Note_on_c, 3, 49, 88
7, 16138, Note_off_c, 3, 49, 0
7, 16140, Note_on_c, 3, 51, 88
7, 16198, Note_off_c, 3, 51, 0
7, 16200, Note_on_c, 3, 53, 88
7, 16258, Note_off_c, 3, 53, 0
7, 16260, Note_on_c, 3, 49, 88
7, 16318, Note_off_c, 3, 49, 0
7, 16320, Note_on_c, 3, 43, 88
7, 16436, Note_off_c, 3, 43, 0
7, 16440, Note_on_c, 3, 55, 88
7, 16498, Note_off_c, 3, 55, 0
7, 16500, Note_on_c, 3, 53, 88
7, 16558, Note_off_c, 3, 53, 0
7, 16560, Note_on_c, 3, 55, 88
7, 16618, Note_off_c, 3, 55, 0
7, 16620, Note_on_c, 3, 56, 88
7, 16678, Note_off_c, 3, 56, 0
7, 16680, Note_on_c, 3, 58, 88
7, 16738, Note_off_c, 3, 58, 0
7, 16740, Note_on_c, 3, 55, 88
7, 16798, Note_off_c, 3, 55, 0
7, 16800, Note_on_c, 3, 52, 88
7, 16858, Note_off_c, 3, 52, 0
7, 16860, Note_on_c, 3, 53, 88
7, 16918, Note_off_c, 3, 53, 0
7, 16920, Note_on_c, 3, 55, 88
7, 16978, Note_off_c, 3, 55, 0
7, 16980, Note_on_c, 3, 52, 88
7, 17038, Note_off_c, 3, 52, 0
7, 17040, Note_on_c, 3, 48, 88
7, 17098, Note_off_c, 3, 48, 0
7, 17100, Note_on_c, 3, 50, 88
7, 17158, Note_off_c, 3, 50, 0
7, 17160, Note_on_c, 3, 52, 88
7, 17218, Note_off_c, 3, 52, 0
7, 17220, Note_on_c, 3, 48, 88
7, 17278, Note_off_c, 3, 48, 0
7, 17280, Note_on_c, 3, 41, 88
7, 17338, Note_off_c, 3, 41, 0
7, 17340, Note_on_c, 3, 43, 88
7, 17398, Note_off_c, 3, 43, 0
7, 17400, Note_on_c, 3, 44, 88
7, 17458, Note_off_c, 3, 44, 0
7, 17460, Note_on_c, 3, 46, 88
7, 17518, Note_off_c, 3, 46, 0
7, 17520, Note_on_c, 3, 48, 88
7, 17578, Note_off_c, 3, 48, 0
7, 17580, Note_on_c, 3, 50, 88
7, 17638, Note_off_c, 3, 50, 0
7, 17640, Note_on_c, 3, 52, 88
7, 17698, Note_off_c, 3, 52, 0
7, 17700, Note_on_c, 3, 48, 88
7, 17758, Note_off_c, 3, 48, 0
7, 17760, Note_on_c, 3, 53, 88
7, 17818, Note_off_c, 3, 53, 0
7, 17820, Note_on_c, 3, 51, 88
7, 17878, Note_off_c, 3, 51, 0
7, 17880, Note_on_c, 3, 49, 88
7, 17938, Note_off_c, 3, 49, 0
7, 17940, Note_on_c, 3, 51, 88
7, 17998, Note_off_c, 3, 51, 0
7, 18000, Note_on_c, 3, 53, 88
7, 18058, Note_off_c, 3, 53, 0
7, 18060, Note_on_c, 3, 51, 88
7, 18118, Note_off_c, 3, 51, 0
7, 18120, Note_on_c, 3, 49, 88
7, 18178, Note_off_c, 3, 49, 0
7, 18180, Note_on_c, 3, 48, 88
7, 18238, Note_off_c, 3, 48, 0
7, 18240, Note_on_c, 3, 49, 88
7, 18534, Note_off_c, 3, 49, 0
7, 18540, Note_on_c, 3, 48, 88
7, 18598, Note_off_c, 3, 48, 0
7, 18600, Note_on_c, 3, 46, 88
7, 18658, Note_off_c, 3, 46, 0
7, 18660, Note_on_c, 3, 49, 88
7, 18718, Note_off_c, 3, 49, 0
7, 18720, Note_on_c, 3, 48, 88
7, 18778, Note_off_c, 3, 48, 0
7, 18780, Note_on_c, 3, 46, 88
7, 18838, Note_off_c, 3, 46, 0
7, 18840, Note_on_c, 3, 44, 88
7, 18898, Note_off_c, 3, 44, 0
7, 18900, Note_on_c, 3, 48, 88
7, 18958, Note_off_c, 3, 48, 0
7, 18960, Note_on_c, 3, 46, 88
7, 19018, Note_off_c, 3, 46, 0
7, 19020, Note_on_c, 3, 44, 88
7, 19078, Note_off_c, 3, 44, 0
7, 19080, Note_on_c, 3, 46, 88
7, 19138, Note_off_c, 3, 46, 0
7, 19140, Note_on_c, 3, 43, 88
7, 19198, Note_off_c, 3, 43, 0
7, 19200, Note_on_c, 3, 44, 88
7, 19316, Note_off_c, 3, 44, 0
7, 19320, Note_on_c, 3, 49, 88
7, 19436, Note_off_c, 3, 49, 0
7, 19440, Note_on_c, 3, 43, 88
7, 19556, Note_off_c, 3, 43, 0
7, 19560, Note_on_c, 3, 48, 88
7, 19676, Note_off_c, 3, 48, 0
7, 19680, Note_on_c, 3, 41, 88
7, 19796, Note_off_c, 3, 41, 0
7, 19800, Note_on_c, 3, 46, 88
7, 19916, Note_off_c, 3, 46, 0
7, 19920, Note_on_c, 3, 44, 88
7, 20036, Note_off_c, 3, 44, 0
7, 20040, Note_on_c, 3, 49, 88
7, 20156, Note_off_c, 3, 49, 0
7, 20160, Note_on_c, 3, 48, 88
7, 20630, Note_off_c, 3, 48, 0
7, 20640, Note_on_c, 3, 53, 88
7, 20874, Note_off_c, 3, 53, 0
7, 22380, Note_on_c, 3, 44, 88
7, 22438, Note_off_c, 3, 44, 0
7, 22440, Note_on_c, 3, 46, 88
7, 22498, Note_off_c, 3, 46, 0
7, 22500, Note_on_c, 3, 48, 88
7, 22558, Note_off_c, 3, 48, 0
7, 22560, Note_on_c, 3, 49, 88
7, 22854, Note_off_c, 3, 49, 0
7, 22860, Note_on_c, 3, 51, 88
7, 22918, Note_off_c, 3, 51, 0
7, 22920, Note_on_c, 3, 53, 88
7, 22978, Note_off_c, 3, 53, 0
7, 22980, Note_on_c, 3, 55, 88
7, 23038, Note_off_c, 3, 55, 0
7, 23040, Note_on_c, 3, 56, 88
7, 23098, Note_off_c, 3, 56, 0
7, 23100, Note_on_c, 3, 55, 88
7, 23158, Note_off_c, 3, 55, 0
7, 23160, Note_on_c, 3, 53, 88
7, 23218, Note_off_c, 3, 53, 0
7, 23220, Note_on_c, 3, 55, 88
7, 23278, Note_off_c, 3, 55, 0
7, 23280, Note_on_c, 3, 56, 88
7, 23338, Note_off_c, 3, 56, 0
7, 23340, Note_on_c, 3, 55, 88
7, 23398, Note_off_c, 3, 55, 0
7, 23400, Note_on_c, 3, 53, 88
7, 23458, Note_off_c, 3, 53, 0
7, 23460, Note_on_c, 3, 51, 88
7, 23518, Note_off_c, 3, 51, 0
7, 23520, Note_on_c, 3, 53, 88
7, 23814, Note_off_c, 3, 53, 0
7, 23820, Note_on_c, 3, 51, 88
7, 23878, Note_off_c, 3, 51, 0
7, 23880, Note_on_c, 3, 49, 88
7, 23938, Note_off_c, 3, 49, 0
7, 23940, Note_on_c, 3, 53, 88
7, 23998, Note_off_c, 3, 53, 0
7, 24000, Note_on_c, 3, 51, 88
7, 24058, Note_off_c, 3, 51, 0
7, 24060, Note_on_c, 3, 49, 88
7, 24118, Note_off_c, 3, 49, 0
7, 24120, Note_on_c, 3, 48, 88
7, 24178, Note_off_c, 3, 48, 0
7, 24180, Note_on_c, 3, 51, 88
7, 24238, Note_off_c, 3, 51, 0
7, 24240, Note_on_c, 3, 49, 88
7, 24298, Note_off_c, 3, 49, 0
7, 24300, Note_on_c, 3, 48, 88
7, 24358, Note_off_c, 3, 48, 0
7, 24360, Note_on_c, 3, 46, 88
7, 24418, Note_off_c, 3, 46, 0
7, 24420, Note_on_c, 3, 49, 88
7, 24478, Note_off_c, 3, 49, 0
7, 24480, Note_on_c, 3, 48, 88
7, 24596, Note_off_c, 3, 48, 0
7, 24600, Note_on_c, 3, 51, 88
7, 24716, Note_off_c, 3, 51, 0
7, 24720, Note_on_c, 3, 54, 88
7, 25194, Note_off_c, 3, 54, 0
7, 25200, Note_on_c, 3, 53, 88
7, 25670, Note_off_c, 3, 53, 0
7, 25680, Note_on_c, 3, 51, 88
7, 26036, Note_off_c, 3, 51, 0
7, 26040, Note_on_c, 3, 49, 88
7, 26156, Note_off_c, 3, 49, 0
7, 26160, Note_on_c, 3, 51, 88
7, 26276, Note_off_c, 3, 51, 0
7, 26280, Note_on_c, 3, 44, 88
7, 26396, Note_off_c, 3, 44, 0
7, 26400, Note_on_c, 3, 49, 88
7, 26458, Note_off_c, 3, 49, 0
7, 26460, Note_on_c, 3, 51, 88
7, 26518, Note_off_c, 3, 51, 0
7, 26520, Note_on_c, 3, 53, 88
7, 26578, Note_off_c, 3, 53, 0
7, 26580, Note_on_c, 3, 54, 88
7, 26638, Note_off_c, 3, 54, 0
7, 26640, Note_on_c, 3, 53, 88
7, 26698, Note_off_c, 3, 53, 0
7, 26700, Note_on_c, 3, 51, 88
7, 26758, Note_off_c, 3, 51, 0
7, 26760, Note_on_c, 3, 49, 88
7, 26818, Note_off_c, 3, 49, 0
7, 26820, Note_on_c, 3, 53, 88
7, 26878, Note_off_c, 3, 53, 0
7, 26880, Note_on_c, 3, 58, 88
7, 26938, Note_off_c, 3, 58, 0
7, 26940, Note_on_c, 3, 56, 88
7, 26998, Note_off_c, 3, 56, 0
7, 27000, Note_on_c, 3, 55, 88
7, 27058, Note_off_c, 3, 55, 0
7, 27060, Note_on_c, 3, 58, 88
7, 27118, Note_off_c, 3, 58, 0
7, 27120, Note_on_c, 3, 61, 88
7, 27178, Note_off_c, 3, 61, 0
7, 27180, Note_on_c, 3, 59, 88
7, 27238, Note_off_c, 3, 59, 0
7, 27240, Note_on_c, 3, 58, 88
7, 27298, Note_off_c, 3, 58, 0
7, 27300, Note_on_c, 3, 61, 88
7, 27358, Note_off_c, 3, 61, 0
7, 27360, Note_on_c, 3, 64, 88
7, 27476, Note_off_c, 3, 64, 0
7, 27480, Note_on_c, 3, 63, 88
7, 27538, Note_off_c, 3, 63, 0
7, 27540, Note_on_c, 3, 61, 88
7, 27598, Note_off_c, 3, 61, 0
7, 27600, Note_on_c, 3, 59, 88
7, 27658, Note_off_c, 3, 59, 0
7, 27660, Note_on_c, 3, 58, 88
7, 27718, Note_off_c, 3, 58, 0
7, 27720, Note_on_c, 3, 56, 88
7, 27778, Note_off_c, 3, 56, 0
7, 27780, Note_on_c, 3, 55, 88
7, 27838, Note_off_c, 3, 55, 0
7, 27840, Note_on_c, 3, 56, 88
7, 27898, Note_off_c, 3, 56, 0
7, 27900, Note_on_c, 3, 59, 88
7, 27958, Note_off_c, 3, 59, 0
7, 27960, Note_on_c, 3, 58, 88
7, 28018, Note_off_c, 3, 58, 0
7, 28020, Note_on_c, 3, 56, 88
7, 28078, Note_off_c, 3, 56, 0
7, 28080, Note_on_c, 3, 55, 88
7, 28138, Note_off_c, 3, 55, 0
7, 28140, Note_on_c, 3, 53, 88
7, 28198, Note_off_c, 3, 53, 0
7, 28200, Note_on_c, 3, 51, 88
7, 28258, Note_off_c, 3, 51, 0
7, 28260, Note_on_c, 3, 49, 88
7, 28318, Note_off_c, 3, 49, 0
7, 28320, Note_on_c, 3, 47, 88
7, 28378, Note_off_c, 3, 47, 0
7, 28380, Note_on_c, 3, 49, 88
7, 28438, Note_off_c, 3, 49, 0
7, 28440, Note_on_c, 3, 51, 88
7, 28498, Note_off_c, 3, 51, 0
7, 28500, Note_on_c, 3, 47, 88
7, 28558, Note_off_c, 3, 47, 0
7, 28560, Note_on_c, 3, 44, 88
7, 28676, Note_off_c, 3, 44, 0
7, 28680, Note_on_c, 3, 56, 88
7, 28738, Note_off_c, 3, 56, 0
7, 28740, Note_on_c, 3, 53, 88
7, 28798, Note_off_c, 3, 53, 0
7, 28800, Note_on_c, 3, 49, 88
7, 28916, Note_off_c, 3, 49, 0
7, 29160, Note_on_c, 3, 49, 88
7, 29218, Note_off_c, 3, 49, 0
7, 29220, Note_on_c, 3, 46, 88
7, 29278, Note_off_c, 3, 46, 0
7, 29280, Note_on_c, 3, 42, 88
7, 29396, Note_off_c, 3, 42, 0
7, 29640, Note_on_c, 3, 54, 88
7, 29698, Note_off_c, 3, 54, 0
7, 29700, Note_on_c, 3, 51, 88
7, 29758, Note_off_c, 3, 51, 0
7, 29760, Note_on_c, 3, 48, 88
7, 29876, Note_off_c, 3, 48, 0
7, 30120, Note_on_c, 3, 48, 88
7, 30178, Note_off_c, 3, 48, 0
7, 30180, Note_on_c, 3, 44, 88
7, 30238, Note_off_c, 3, 44, 0
7, 30240, Note_on_c, 3, 41, 88
7, 30356, Note_off_c, 3, 41, 0
7, 30600, Note_on_c, 3, 53, 88
7, 30658, Note_off_c, 3, 53, 0
7, 30660, Note_on_c, 3, 50, 88
7, 30718, Note_off_c, 3, 50, 0
7, 30720, Note_on_c, 3, 46, 88
7, 30836, Note_off_c, 3, 46, 0
7, 31080, Note_on_c, 3, 46, 88
7, 31138, Note_off_c, 3, 46, 0
7, 31140, Note_on_c, 3, 42, 88
7, 31198, Note_off_c, 3, 42, 0
7, 31200, Note_on_c, 3, 39, 88
7, 31316, Note_off_c, 3, 39, 0
7, 31560, Note_on_c, 3, 51, 88
7, 31618, Note_off_c, 3, 51, 0
7, 31620, Note_on_c, 3, 48, 88
7, 31678, Note_off_c, 3, 48, 0
7, 31680, Note_on_c, 3, 44, 88
7, 31796, Note_off_c, 3, 44, 0
7, 32040, Note_on_c, 3, 44, 88
7, 32098, Note_off_c, 3, 44, 0
7, 32100, Note_on_c, 3, 41, 88
7, 32158, Note_off_c, 3, 41, 0
7, 32160, Note_on_c, 3, 37, 88
7, 32394, Note_off_c, 3, 37, 0
7, 32760, Note_on_c, 3, 59, 88
7, 32818, Note_off_c, 3, 59, 0
7, 32820, Note_on_c, 3, 49, 88
7, 32878, Note_off_c, 3, 49, 0
7, 32880, Note_on_c, 3, 58, 88
7, 32938, Note_off_c, 3, 58, 0
7, 32940, Note_on_c, 3, 49, 88
7, 32998, Note_off_c, 3, 49, 0
7, 33000, Note_on_c, 3, 56, 88
7, 33058, Note_off_c, 3, 56, 0
7, 33060, Note_on_c, 3, 49, 88
7, 33118, Note_off_c, 3, 49, 0
7, 33120, Note_on_c, 3, 54, 88
7, 33178, Note_off_c, 3, 54, 0
7, 33180, Note_on_c, 3, 49, 88
7, 33238, Note_off_c, 3, 49, 0
7, 33240, Note_on_c, 3, 53, 88
7, 33298, Note_off_c, 3, 53, 0
7, 33300, Note_on_c, 3, 51, 88
7, 33358, Note_off_c, 3, 51, 0
7, 33360, Note_on_c, 3, 53, 88
7, 33476, Note_off_c, 3, 53, 0
7, 33480, Note_on_c, 3, 44, 88
7, 33596, Note_off_c, 3, 44, 0
7, 33720, Note_on_c, 3, 58, 88
7, 33778, Note_off_c, 3, 58, 0
7, 33780, Note_on_c, 3, 49, 88
7, 33838, Note_off_c, 3, 49, 0
7, 33840, Note_on_c, 3, 56, 88
7, 33898, Note_off_c, 3, 56, 0
7, 33900, Note_on_c, 3, 49, 88
7, 33958, Note_off_c, 3, 49, 0
7, 33960, Note_on_c, 3, 54, 88
7, 34018, Note_off_c, 3, 54, 0
7, 34020, Note_on_c, 3, 49, 88
7, 34078, Note_off_c, 3, 49, 0
7, 34080, Note_on_c, 3, 53, 88
7, 34138, Note_off_c, 3, 53, 0
7, 34140, Note_on_c, 3, 49, 88
7, 34198, Note_off_c, 3, 49, 0
7, 34200, Note_on_c, 3, 51, 88
7, 34258, Note_off_c, 3, 51, 0
7, 34260, Note_on_c, 3, 49, 88
7, 34318, Note_off_c, 3, 49, 0
7, 34320, Note_on_c, 3, 51, 88
7, 34436, Note_off_c, 3, 51, 0
7, 34440, Note_on_c, 3, 44, 88
7, 34556, Note_off_c, 3, 44, 0
7, 34680, Note_on_c, 3, 56, 88
7, 34738, Note_off_c, 3, 56, 0
7, 34740, Note_on_c, 3, 44, 88
7, 34798, Note_off_c, 3, 44, 0
7, 34800, Note_on_c, 3, 54, 88
7, 34858, Note_off_c, 3, 54, 0
7, 34860, Note_on_c, 3, 44, 88
7, 34918, Note_off_c, 3, 44, 0
7, 34920, Note_on_c, 3, 53, 88
7, 34978, Note_off_c, 3, 53, 0
7, 34980, Note_on_c, 3, 44, 88
7, 35038, Note_off_c, 3, 44, 0
7, 35040, Note_on_c, 3, 51, 88
7, 35098, Note_off_c, 3, 51, 0
7, 35100, Note_on_c, 3, 44, 88
7, 35158, Note_off_c, 3, 44, 0
7, 35160, Note_on_c, 3, 49, 88
7, 35218, Note_off_c, 3, 49, 0
7, 35220, Note_on_c, 3, 48, 88
7, 35278, Note_off_c, 3, 48, 0
7, 35280, Note_on_c, 3, 49, 88
7, 35338, Note_off_c, 3, 49, 0
7, 35340, Note_on_c, 3, 44, 88
7, 35398, Note_off_c, 3, 44, 0
7, 35400, Note_on_c, 3, 53, 88
7, 35458, Note_off_c, 3, 53, 0
7, 35460, Note_on_c, 3, 51, 88
7, 35518, Note_off_c, 3, 51, 0
7, 35520, Note_on_c, 3, 53, 88
7, 35578, Note_off_c, 3, 53, 0
7, 35580, Note_on_c, 3, 44, 88
7, 35638, Note_off_c, 3, 44, 0
7, 35640, Note_on_c, 3, 56, 88
7, 35698, Note_off_c, 3, 56, 0
7, 35700, Note_on_c, 3, 54, 88
7, 35758, Note_off_c, 3, 54, 0
7, 35760, Note_on_c, 3, 56, 88
7, 35818, Note_off_c, 3, 56, 0
7, 35820, Note_on_c, 3, 44, 88
7, 35878, Note_off_c, 3, 44, 0
7, 35880, Note_on_c, 3, 58, 88
7, 35938, Note_off_c, 3, 58, 0
7, 35940, Note_on_c, 3, 44, 88
7, 35998, Note_off_c, 3, 44, 0
7, 36000, Note_on_c, 3, 60, 88
7, 36058, Note_off_c, 3, 60, 0
7, 36060, Note_on_c, 3, 61, 88
7, 36118, Note_off_c, 3, 61, 0
7, 36120, Note_on_c, 3, 63, 88
7, 36178, Note_off_c, 3, 63, 0
7, 36180, Note_on_c, 3, 60, 88
7, 36238, Note_off_c, 3, 60, 0
7, 36240, Note_on_c, 3, 56, 88
7, 36298, Note_off_c, 3, 56, 0
7, 36300, Note_on_c, 3, 60, 88
7, 36358, Note_off_c, 3, 60, 0
7, 36360, Note_on_c, 3, 63, 88
7, 36418, Note_off_c, 3, 63, 0
7, 36420, Note_on_c, 3, 65, 88
7, 36478, Note_off_c, 3, 65, 0
7, 36480, Note_on_c, 3, 66, 88
7, 36538, Note_off_c, 3, 66, 0
7, 36540, Note_on_c, 3, 65, 88
7, 36598, Note_off_c, 3, 65, 0
7, 36600, Note_on_c, 3, 63, 88
7, 36658, Note_off_c, 3, 63, 0
7, 36660, Note_on_c, 3, 65, 88
7, 36718, Note_off_c, 3, 65, 0
7, 36720, Note_on_c, 3, 73, 88
7, 36836, Note_off_c, 3, 73, 0
7, 36840, Note_on_c, 3, 68, 88
7, 36956, Note_off_c, 3, 68, 0
7, 36960, Note_on_c, 3, 65, 88
7, 37076, Note_off_c, 3, 65, 0
7, 37080, Note_on_c, 3, 63, 88
7, 37138, Note_off_c, 3, 63, 0
7, 37140, Note_on_c, 3, 61, 88
7, 37198, Note_off_c, 3, 61, 0
7, 37200, Note_on_c, 3, 63, 88
7, 37258, Note_off_c, 3, 63, 0
7, 37260, Note_on_c, 3, 56, 88
7, 37318, Note_off_c, 3, 56, 0
7, 37320, Note_on_c, 3, 60, 88
7, 37378, Note_off_c, 3, 60, 0
7, 37380, Note_on_c, 3, 63, 88
7, 37438, Note_off_c, 3, 63, 0
7, 37440, Note_on_c, 3, 65, 88
7, 37498, Note_off_c, 3, 65, 0
7, 37500, Note_on_c, 3, 63, 88
7, 37558, Note_off_c, 3, 63, 0
7, 37560, Note_on_c, 3, 61, 88
7, 37618, Note_off_c, 3, 61, 0
7, 37620, Note_on_c, 3, 63, 88
7, 37678, Note_off_c, 3, 63, 0
7, 37680, Note_on_c, 3, 72, 88
7, 37796, Note_off_c, 3, 72, 0
7, 37800, Note_on_c, 3, 68, 88
7, 37916, Note_off_c, 3, 68, 0
7, 37920, Note_on_c, 3, 63, 88
7, 38036, Note_off_c, 3, 63, 0
7, 38040, Note_on_c, 3, 61, 88
7, 38098, Note_off_c, 3, 61, 0
7, 38100, Note_on_c, 3, 60, 88
7, 38158, Note_off_c, 3, 60, 0
7, 38160, Note_on_c, 3, 61, 88
7, 38218, Note_off_c, 3, 61, 0
7, 38220, Note_on_c, 3, 56, 88
7, 38278, Note_off_c, 3, 56, 0
7, 38280, Note_on_c, 3, 60, 88
7, 38338, Note_off_c, 3, 60, 0
7, 38340, Note_on_c, 3, 61, 88
7, 38398, Note_off_c, 3, 61, 0
7, 38400, Note_on_c, 3, 63, 88
7, 38458, Note_off_c, 3, 63, 0
7, 38460, Note_on_c, 3, 61, 88
7, 38518, Note_off_c, 3, 61, 0
7, 38520, Note_on_c, 3, 60, 88
7, 38578, Note_off_c, 3, 60, 0
7, 38580, Note_on_c, 3, 61, 88
7, 38638, Note_off_c, 3, 61, 0
7, 38640, Note_on_c, 3, 70, 88
7, 38756, Note_off_c, 3, 70, 0
7, 38760, Note_on_c, 3, 67, 88
7, 38876, Note_off_c, 3, 67, 0
7, 38880, Note_on_c, 3, 61, 88
7, 38996, Note_off_c, 3, 61, 0
7, 39000, Note_on_c, 3, 60, 88
7, 39058, Note_off_c, 3, 60, 0
7, 39060, Note_on_c, 3, 58, 88
7, 39118, Note_off_c, 3, 58, 0
7, 39120, Note_on_c, 3, 60, 88
7, 39178, Note_off_c, 3, 60, 0
7, 39180, Note_on_c, 3, 56, 88
7, 39238, Note_off_c, 3, 56, 0
7, 39240, Note_on_c, 3, 58, 88
7, 39298, Note_off_c, 3, 58, 0
7, 39300, Note_on_c, 3, 60, 88
7, 39358, Note_off_c, 3, 60, 0
7, 39360, Note_on_c, 3, 61, 88
7, 39418, Note_off_c, 3, 61, 0
7, 39420, Note_on_c, 3, 63, 88
7, 39478, Note_off_c, 3, 63, 0
7, 39480, Note_on_c, 3, 65, 88
7, 39538, Note_off_c, 3, 65, 0
7, 39540, Note_on_c, 3, 63, 88
7, 39598, Note_off_c, 3, 63, 0
7, 39600, Note_on_c, 3, 66, 88
7, 39658, Note_off_c, 3, 66, 0
7, 39660, Note_on_c, 3, 65, 88
7, 39718, Note_off_c, 3, 65, 0
7, 39720, Note_on_c, 3, 63, 88
7, 39778, Note_off_c, 3, 63, 0
7, 39780, Note_on_c, 3, 61, 88
7, 39838, Note_off_c, 3, 61, 0
7, 39840, Note_on_c, 3, 66, 88
7, 39956, Note_off_c, 3, 66, 0
7, 39960, Note_on_c, 3, 58, 88
7, 40018, Note_off_c, 3, 58, 0
7, 40020, Note_on_c, 3, 60, 88
7, 40078, Note_off_c, 3, 60, 0
7, 40080, Note_on_c, 3, 61, 88
7, 40138, Note_off_c, 3, 61, 0
7, 40140, Note_on_c, 3, 60, 88
7, 40198, Note_off_c, 3, 60, 0
7, 40200, Note_on_c, 3, 58, 88
7, 40258, Note_off_c, 3, 58, 0
7, 40260, Note_on_c, 3, 56, 88
7, 40318, Note_off_c, 3, 56, 0
7, 40320, Note_on_c, 3, 58, 88
7, 40614, Note_off_c, 3, 58, 0
7, 40620, Note_on_c, 3, 56, 88
7, 40678, Note_off_c, 3, 56, 0
7, 40680, Note_on_c, 3, 54, 88
7, 40738, Note_off_c, 3, 54, 0
7, 40740, Note_on_c, 3, 58, 88
7, 40798, Note_off_c, 3, 58, 0
7, 40800, Note_on_c, 3, 56, 88
7, 40858, Note_off_c, 3, 56, 0
7, 40860, Note_on_c, 3, 54, 88
7, 40918, Note_off_c, 3, 54, 0
7, 40920, Note_on_c, 3, 53, 88
7, 40978, Note_off_c, 3, 53, 0
7, 40980, Note_on_c, 3, 56, 88
7, 41038, Note_off_c, 3, 56, 0
7, 41040, Note_on_c, 3, 54, 88
7, 41098, Note_off_c, 3, 54, 0
7, 41100, Note_on_c, 3, 53, 88
7, 41158, Note_off_c, 3, 53, 0
7, 41160, Note_on_c, 3, 54, 88
7, 41218, Note_off_c, 3, 54, 0
7, 41220, Note_on_c, 3, 51, 88
7, 41278, Note_off_c, 3, 51, 0
7, 41280, Note_on_c, 3, 53, 88
7, 41455, Note_off_c, 3, 53, 0
7, 41460, Note_on_c, 3, 56, 88
7, 41518, Note_off_c, 3, 56, 0
7, 41520, Note_on_c, 3, 58, 88
7, 41578, Note_off_c, 3, 58, 0
7, 41580, Note_on_c, 3, 60, 88
7, 41638, Note_off_c, 3, 60, 0
7, 41640, Note_on_c, 3, 61, 88
7, 41993, Note_off_c, 3, 61, 0
7, 42000, Note_on_c, 3, 60, 88
7, 42474, Note_off_c, 3, 60, 0
7, 42480, Note_on_c, 3, 58, 88
7, 42833, Note_off_c, 3, 58, 0
7, 42840, Note_on_c, 3, 56, 88
7, 42956, Note_off_c, 3, 56, 0
7, 42960, Note_on_c, 3, 58, 88
7, 43076, Note_off_c, 3, 58, 0
7, 43080, Note_on_c, 3, 51, 88
7, 43196, Note_off_c, 3, 51, 0
7, 43200, Note_on_c, 3, 56, 88
7, 43434, Note_off_c, 3, 56, 0
7, 43560, Note_on_c, 3, 56, 88
7, 43676, Note_off_c, 3, 56, 0
7, 43680, Note_on_c, 3, 58, 88
7, 43738, Note_off_c, 3, 58, 0
7, 43740, Note_on_c, 3, 56, 88
7, 43798, Note_off_c, 3, 56, 0
7, 43800, Note_on_c, 3, 54, 88
7, 43858, Note_off_c, 3, 54, 0
7, 43860, Note_on_c, 3, 56, 88
7, 43918, Note_off_c, 3, 56, 0
7, 43920, Note_on_c, 3, 65, 88
7, 44036, Note_off_c, 3, 65, 0
7, 44040, Note_on_c, 3, 61, 88
7, 44156, Note_off_c, 3, 61, 0
7, 44160, Note_on_c, 3, 56, 88
7, 44276, Note_off_c, 3, 56, 0
7, 44280, Note_on_c, 3, 54, 88
7, 44338, Note_off_c, 3, 54, 0
7, 44340, Note_on_c, 3, 53, 88
7, 44398, Note_off_c, 3, 53, 0
7, 44400, Note_on_c, 3, 54, 88
7, 44516, Note_off_c, 3, 54, 0
7, 44520, Note_on_c, 3, 63, 88
7, 44636, Note_off_c, 3, 63, 0
7, 44640, Note_on_c, 3, 53, 88
7, 44756, Note_off_c, 3, 53, 0
7, 44760, Note_on_c, 3, 61, 88
7, 44876, Note_off_c, 3, 61, 0
7, 44880, Note_on_c, 3, 51, 88
7, 44996, Note_off_c, 3, 51, 0
7, 45000, Note_on_c, 3, 60, 88
7, 45116, Note_off_c, 3, 60, 0
7, 45120, Note_on_c, 3, 49, 88
7, 45178, Note_off_c, 3, 49, 0
7, 45180, Note_on_c, 3, 44, 88
7, 45238, Note_off_c, 3, 44, 0
7, 45240, Note_on_c, 3, 49, 88
7, 45298, Note_off_c, 3, 49, 0
7, 45300, Note_on_c, 3, 51, 88
7, 45358, Note_off_c, 3, 51, 0
7, 45360, Note_on_c, 3, 53, 88
7, 45418, Note_off_c, 3, 53, 0
7, 45420, Note_on_c, 3, 54, 88
7, 45478, Note_off_c, 3, 54, 0
7, 45480, Note_on_c, 3, 56, 88
7, 45538, Note_off_c, 3, 56, 0
7, 45540, Note_on_c, 3, 53, 88
7, 45598, Note_off_c, 3, 53, 0
7, 45600, Note_on_c, 3, 54, 88
7, 45658, Note_off_c, 3, 54, 0
7, 45660, Note_on_c, 3, 42, 88
7, 45718, Note_off_c, 3, 42, 0
7, 45720, Note_on_c, 3, 54, 88
7, 45778, Note_off_c, 3, 54, 0
7, 45780, Note_on_c, 3, 53, 88
7, 45838, Note_off_c, 3, 53, 0
7, 45840, Note_on_c, 3, 54, 88
7, 45898, Note_off_c, 3, 54, 0
7, 45900, Note_on_c, 3, 56, 88
7, 45958, Note_off_c, 3, 56, 0
7, 45960, Note_on_c, 3, 58, 88
7, 46018, Note_off_c, 3, 58, 0
7, 46020, Note_on_c, 3, 54, 88
7, 46078, Note_off_c, 3, 54, 0
7, 46080, Note_on_c, 3, 51, 88
7, 46138, Note_off_c, 3, 51, 0
7, 46140, Note_on_c, 3, 53, 88
7, 46198, Note_off_c, 3, 53, 0
7, 46200, Note_on_c, 3, 54, 88
7, 46258, Note_off_c, 3, 54, 0
7, 46260, Note_on_c, 3, 51, 88
7, 46318, Note_off_c, 3, 51, 0
7, 46320, Note_on_c, 3, 48, 88
7, 46378, Note_off_c, 3, 48, 0
7, 46380, Note_on_c, 3, 49, 88
7, 46438, Note_off_c, 3, 49, 0
7, 46440, Note_on_c, 3, 51, 88
7, 46498, Note_off_c, 3, 51, 0
7, 46500, Note_on_c, 3, 48, 88
7, 46558, Note_off_c, 3, 48, 0
7, 46560, Note_on_c, 3, 41, 88
7, 46676, Note_off_c, 3, 41, 0
7, 46680, Note_on_c, 3, 53, 88
7, 46738, Note_off_c, 3, 53, 0
7, 46740, Note_on_c, 3, 51, 88
7, 46798, Note_off_c, 3, 51, 0
7, 46800, Note_on_c, 3, 53, 88
7, 46858, Note_off_c, 3, 53, 0
7, 46860, Note_on_c, 3, 54, 88
7, 46918, Note_off_c, 3, 54, 0
7, 46920, Note_on_c, 3, 56, 88
7, 46978, Note_off_c, 3, 56, 0
7, 46980, Note_on_c, 3, 53, 88
7, 47038, Note_off_c, 3, 53, 0
7, 47040, Note_on_c, 3, 50, 88
7, 47098, Note_off_c, 3, 50, 0
7, 47100, Note_on_c, 3, 51, 88
7, 47158, Note_off_c, 3, 51, 0
7, 47160, Note_on_c, 3, 53, 88
7, 47218, Note_off_c, 3, 53, 0
7, 47220, Note_on_c, 3, 50, 88
7, 47278, Note_off_c, 3, 50, 0
7, 47280, Note_on_c, 3, 46, 88
7, 47338, Note_off_c, 3, 46, 0
7, 47340, Note_on_c, 3, 48, 88
7, 47398, Note_off_c, 3, 48, 0
7, 47400, Note_on_c, 3, 50, 88
7, 47458, Note_off_c, 3, 50, 0
7, 47460, Note_on_c, 3, 46, 88
7, 47518, Note_off_c, 3, 46, 0
7, 47520, Note_on_c, 3, 39, 88
7, 47636, Note_off_c, 3, 39, 0
7, 47640, Note_on_c, 3, 51, 88
7, 47698, Note_off_c, 3, 51, 0
7, 47700, Note_on_c, 3, 50, 88
7, 47758, Note_off_c, 3, 50, 0
7, 47760, Note_on_c, 3, 51, 88
7, 47818, Note_off_c, 3, 51, 0
7, 47820, Note_on_c, 3, 53, 88
7, 47878, Note_off_c, 3, 53, 0
7, 47880, Note_on_c, 3, 54, 88
7, 47938, Note_off_c, 3, 54, 0
7, 47940, Note_on_c, 3, 51, 88
7, 47998, Note_off_c, 3, 51, 0
7, 48000, Note_on_c, 3, 48, 88
7, 48058, Note_off_c, 3, 48, 0
7, 48060, Note_on_c, 3, 49, 88
7, 48118, Note_off_c, 3, 49, 0
7, 48120, Note_on_c, 3, 51, 88
7, 48178, Note_off_c, 3, 51, 0
7, 48180, Note_on_c, 3, 48, 88
7, 48238, Note_off_c, 3, 48, 0
7, 48240, Note_on_c, 3, 44, 88
7, 48298, Note_off_c, 3, 44, 0
7, 48300, Note_on_c, 3, 46, 88
7, 48358, Note_off_c, 3, 46, 0
7, 48360, Note_on_c, 3, 48, 88
7, 48418, Note_off_c, 3, 48, 0
7, 48420, Note_on_c, 3, 44, 88
7, 48478, Note_off_c, 3, 44, 0
7, 48480, Note_on_c, 3, 37, 88
7, 48596, Note_off_c, 3, 37, 0
7, 48600, Note_on_c, 3, 49, 88
7, 48658, Note_off_c, 3, 49, 0
7, 48660, Note_on_c, 3, 51, 88
7, 48718, Note_off_c, 3, 51, 0
7, 48720, Note_on_c, 3, 53, 88
7, 48836, Note_off_c, 3, 53, 0
7, 48840, Note_on_c, 3, 49, 88
7, 48956, Note_off_c, 3, 49, 0
7, 48960, Note_on_c, 3, 54, 88
7, 49194, Note_off_c, 3, 54, 0
7, 49200, Note_on_c, 3, 53, 88
7, 49434, Note_off_c, 3, 53, 0
7, 49440, Note_on_c, 3, 51, 88
7, 49556, Note_off_c, 3, 51, 0
7, 49560, Note_on_c, 3, 49, 88
7, 49676, Note_off_c, 3, 49, 0
7, 49680, Note_on_c, 3, 48, 88
7, 49914, Note_off_c, 3, 48, 0
7, 49920, Note_on_c, 3, 49, 88
7, 50154, Note_off_c, 3, 49, 0
7, 50160, Note_on_c, 3, 44, 88
7, 50394, Note_off_c, 3, 44, 0
7, 50400, Note_on_c, 3, 46, 88
7, 50516, Note_off_c, 3, 46, 0
7, 51180, Note_on_c, 3, 49, 88
7, 51238, Note_off_c, 3, 49, 0
7, 51240, Note_on_c, 3, 48, 88
7, 51298, Note_off_c, 3, 48, 0
7, 51300, Note_on_c, 3, 46, 88
7, 51358, Note_off_c, 3, 46, 0
7, 51360, Note_on_c, 3, 44, 88
7, 51594, Note_off_c, 3, 44, 0
7, 51960, Note_on_c, 3, 41, 88
7, 52076, Note_off_c, 3, 41, 0
7, 52080, Note_on_c, 3, 42, 88
7, 52196, Note_off_c, 3, 42, 0
7, 52200, Note_on_c, 3, 44, 88
7, 52316, Note_off_c, 3, 44, 0
7, 52320, Note_on_c, 3, 37, 88
7, 52790, Note_off_c, 3, 37, 0
7, 52790, End_track
0, 0, End_of_file
