0, 0, Header, 1, 6, 240
1, 0, Start_track
1, 0, Time_signature, 3, 2, 24, 8
1, 0, Tempo, 789473
1, 0, SMPTE_offset, 64, 0, 0, 0, 93
1, 0, End_track
2, 0, Start_track
2, 0, Title_t, "(C) & (P) 1993"
2, 127, End_track
3, 0, Start_track
3, 0, Title_t, "CCARH,Stanford"
3, 0, End_track
4, 0, Start_track
4, 0, Title_t, "Track 1"
4, 0, Program_c, 0, 6
4, 120, Note_on_c, 0, 65, 88
4, 236, Note_off_c, 0, 65, 0
4, 240, Note_on_c, 0, 67, 88
4, 356, Note_off_c, 0, 67, 0
4, 360, Note_on_c, 0, 65, 88
4, 476, Note_off_c, 0, 65, 0
4, 480, Note_on_c, 0, 70, 88
4, 596, Note_off_c, 0, 70, 0
4, 600, Note_on_c, 0, 62, 88
4, 716, Note_off_c, 0, 62, 0
4, 720, Note_on_c, 0, 60, 88
4, 836, Note_off_c, 0, 60, 0
4, 840, Note_on_c, 0, 69, 88
4, 898, Note_off_c, 0, 69, 0
4, 900, Note_on_c, 0, 67, 88
4, 958, Note_off_c, 0, 67, 0
4, 960, Note_on_c, 0, 70, 88
4, 1018, Note_off_c, 0, 70, 0
4, 1020, Note_on_c, 0, 69, 88
4, 1078, Note_off_c, 0, 69, 0
4, 1080, Note_on_c, 0, 67, 88
4, 1138, Note_off_c, 0, 67, 0
4, 1140, Note_on_c, 0, 65, 88
4, 1198, Note_off_c, 0, 65, 0
4, 1200, Note_on_c, 0, 72, 88
4, 1316, Note_off_c, 0, 72, 0
4, 1320, Note_on_c, 0, 63, 88
4, 1436, Note_off_c, 0, 63, 0
4, 1440, Note_on_c, 0, 62, 88
4, 1556, Note_off_c, 0, 62, 0
4, 1560, Note_on_c, 0, 70, 88
4, 1618, Note_off_c, 0, 70, 0
4, 1620, Note_on_c, 0, 72, 88
4, 1678, Note_off_c, 0, 72, 0
4, 1680, Note_on_c, 0, 69, 88
4, 1738, Note_off_c, 0, 69, 0
4, 1740, Note_on_c, 0, 70, 88
4, 1798, Note_off_c, 0, 70, 0
4, 1800, Note_on_c, 0, 72, 88
4, 1858, Note_off_c, 0, 72, 0
4, 1860, Note_on_c, 0, 74, 88
4, 1918, Note_off_c, 0, 74, 0
4, 1920, Note_on_c, 0, 75, 88
4, 1978, Note_off_c, 0, 75, 0
4, 1980, Note_on_c, 0, 74, 88
4, 2038, Note_off_c, 0, 74, 0
4, 2040, Note_on_c, 0, 72, 88
4, 2098, Note_off_c, 0, 72, 0
4, 2100, Note_on_c, 0, 75, 88
4, 2158, Note_off_c, 0, 75, 0
4, 2160, Note_on_c, 0, 74, 88
4, 2218, Note_off_c, 0, 74, 0
4, 2220, Note_on_c, 0, 72, 88
4, 2278, Note_off_c, 0, 72, 0
4, 2280, Note_on_c, 0, 70, 88
4, 2338, Note_off_c, 0, 70, 0
4, 2340, Note_on_c, 0, 72, 88
4, 2398, Note_off_c, 0, 72, 0
4, 2400, Note_on_c, 0, 69, 88
4, 2458, Note_off_c, 0, 69, 0
4, 2460, Note_on_c, 0, 70, 88
4, 2518, Note_off_c, 0, 70, 0
4, 2520, Note_on_c, 0, 72, 88
4, 2578, Note_off_c, 0, 72, 0
4, 2580, Note_on_c, 0, 74, 88
4, 2638, Note_off_c, 0, 74, 0
4, 2640, Note_on_c, 0, 75, 88
4, 2698, Note_off_c, 0, 75, 0
4, 2700, Note_on_c, 0, 74, 88
4, 2758, Note_off_c, 0, 74, 0
4, 2760, Note_on_c, 0, 72, 88
4, 2818, Note_off_c, 0, 72, 0
4, 2820, Note_on_c, 0, 75, 88
4, 2878, Note_off_c, 0, 75, 0
4, 2880, Note_on_c, 0, 74, 88
4, 3055, Note_off_c, 0, 74, 0
4, 3060, Note_on_c, 0, 72, 88
4, 3118, Note_off_c, 0, 72, 0
4, 3120, Note_on_c, 0, 70, 88
4, 3178, Note_off_c, 0, 70, 0
4, 3180, Note_on_c, 0, 69, 88
4, 3238, Note_off_c, 0, 69, 0
4, 3240, Note_on_c, 0, 70, 88
4, 3298, Note_off_c, 0, 70, 0
4, 3300, Note_on_c, 0, 72, 88
4, 3358, Note_off_c, 0, 72, 0
4, 3360, Note_on_c, 0, 74, 88
4, 3476, Note_off_c, 0, 74, 0
4, 3480, Note_on_c, 0, 77, 88
4, 3716, Note_off_c, 0, 77, 0
4, 3720, Note_on_c, 0, 70, 88
4, 3836, Note_off_c, 0, 70, 0
4, 3840, Note_on_c, 0, 69, 88
4, 3956, Note_off_c, 0, 69, 0
4, 3960, Note_on_c, 0, 70, 88
4, 4076, Note_off_c, 0, 70, 0
4, 4080, Note_on_c, 0, 76, 88
4, 4196, Note_off_c, 0, 76, 0
4, 4200, Note_on_c, 0, 79, 88
4, 4436, Note_off_c, 0, 79, 0
4, 4440, Note_on_c, 0, 69, 88
4, 4498, Note_off_c, 0, 69, 0
4, 4500, Note_on_c, 0, 70, 88
4, 4558, Note_off_c, 0, 70, 0
4, 4560, Note_on_c, 0, 72, 88
4, 4661, Note_off_c, 0, 72, 0
4, 4680, Note_on_c, 0, 72, 88
4, 4781, Note_off_c, 0, 72, 0
4, 4800, Note_on_c, 0, 72, 88
4, 4901, Note_off_c, 0, 72, 0
4, 4920, Note_on_c, 0, 72, 88
4, 5036, Note_off_c, 0, 72, 0
4, 5040, Note_on_c, 0, 72, 88
4, 5098, Note_off_c, 0, 72, 0
4, 5100, Note_on_c, 0, 70, 88
4, 5158, Note_off_c, 0, 70, 0
4, 5160, Note_on_c, 0, 69, 88
4, 5218, Note_off_c, 0, 69, 0
4, 5220, Note_on_c, 0, 70, 88
4, 5278, Note_off_c, 0, 70, 0
4, 5280, Note_on_c, 0, 72, 88
4, 5381, Note_off_c, 0, 72, 0
4, 5400, Note_on_c, 0, 72, 88
4, 5501, Note_off_c, 0, 72, 0
4, 5520, Note_on_c, 0, 72, 88
4, 5621, Note_off_c, 0, 72, 0
4, 5640, Note_on_c, 0, 72, 88
4, 5756, Note_off_c, 0, 72, 0
4, 5760, Note_on_c, 0, 72, 88
4, 5994, Note_off_c, 0, 72, 0
4, 6300, Note_on_c, 0, 74, 88
4, 6358, Note_off_c, 0, 74, 0
4, 6360, Note_on_c, 0, 70, 88
4, 6418, Note_off_c, 0, 70, 0
4, 6420, Note_on_c, 0, 74, 88
4, 6478, Note_off_c, 0, 74, 0
4, 6480, Note_on_c, 0, 75, 88
4, 6596, Note_off_c, 0, 75, 0
4, 7020, Note_on_c, 0, 75, 88
4, 7078, Note_off_c, 0, 75, 0
4, 7080, Note_on_c, 0, 72, 88
4, 7138, Note_off_c, 0, 72, 0
4, 7140, Note_on_c, 0, 75, 88
4, 7198, Note_off_c, 0, 75, 0
4, 7200, Note_on_c, 0, 77, 88
4, 7316, Note_off_c, 0, 77, 0
4, 7560, Note_on_c, 0, 69, 88
4, 7618, Note_off_c, 0, 69, 0
4, 7620, Note_on_c, 0, 70, 88
4, 7678, Note_off_c, 0, 70, 0
4, 7680, Note_on_c, 0, 72, 88
4, 7738, Note_off_c, 0, 72, 0
4, 7740, Note_on_c, 0, 70, 88
4, 7798, Note_off_c, 0, 70, 0
4, 7800, Note_on_c, 0, 69, 88
4, 7858, Note_off_c, 0, 69, 0
4, 7860, Note_on_c, 0, 72, 88
4, 7918, Note_off_c, 0, 72, 0
4, 7920, Note_on_c, 0, 70, 88
4, 8154, Note_off_c, 0, 70, 0
4, 8280, Note_on_c, 0, 69, 88
4, 8338, Note_off_c, 0, 69, 0
4, 8340, Note_on_c, 0, 70, 88
4, 8398, Note_off_c, 0, 70, 0
4, 8400, Note_on_c, 0, 72, 88
4, 8458, Note_off_c, 0, 72, 0
4, 8460, Note_on_c, 0, 70, 88
4, 8518, Note_off_c, 0, 70, 0
4, 8520, Note_on_c, 0, 69, 88
4, 8578, Note_off_c, 0, 69, 0
4, 8580, Note_on_c, 0, 72, 88
4, 8638, Note_off_c, 0, 72, 0
4, 8640, Note_on_c, 0, 70, 88
4, 8741, Note_off_c, 0, 70, 0
4, 8760, Note_on_c, 0, 70, 88
4, 8876, Note_off_c, 0, 70, 0
4, 8880, Note_on_c, 0, 74, 88
4, 8996, Note_off_c, 0, 74, 0
4, 9000, Note_on_c, 0, 70, 88
4, 9116, Note_off_c, 0, 70, 0
4, 9120, Note_on_c, 0, 77, 88
4, 9236, Note_off_c, 0, 77, 0
4, 9240, Note_on_c, 0, 69, 88
4, 9356, Note_off_c, 0, 69, 0
4, 9360, Note_on_c, 0, 67, 88
4, 9476, Note_off_c, 0, 67, 0
4, 9480, Note_on_c, 0, 76, 88
4, 9538, Note_off_c, 0, 76, 0
4, 9540, Note_on_c, 0, 74, 88
4, 9598, Note_off_c, 0, 74, 0
4, 9600, Note_on_c, 0, 77, 88
4, 9658, Note_off_c, 0, 77, 0
4, 9660, Note_on_c, 0, 76, 88
4, 9718, Note_off_c, 0, 76, 0
4, 9720, Note_on_c, 0, 74, 88
4, 9778, Note_off_c, 0, 74, 0
4, 9780, Note_on_c, 0, 72, 88
4, 9838, Note_off_c, 0, 72, 0
4, 9840, Note_on_c, 0, 79, 88
4, 9956, Note_off_c, 0, 79, 0
4, 9960, Note_on_c, 0, 70, 88
4, 10076, Note_off_c, 0, 70, 0
4, 10080, Note_on_c, 0, 69, 88
4, 10196, Note_off_c, 0, 69, 0
4, 10200, Note_on_c, 0, 77, 88
4, 10258, Note_off_c, 0, 77, 0
4, 10260, Note_on_c, 0, 79, 88
4, 10318, Note_off_c, 0, 79, 0
4, 10320, Note_on_c, 0, 76, 88
4, 10378, Note_off_c, 0, 76, 0
4, 10380, Note_on_c, 0, 77, 88
4, 10438, Note_off_c, 0, 77, 0
4, 10440, Note_on_c, 0, 79, 88
4, 10498, Note_off_c, 0, 79, 0
4, 10500, Note_on_c, 0, 81, 88
4, 10558, Note_off_c, 0, 81, 0
4, 10560, Note_on_c, 0, 82, 88
4, 10618, Note_off_c, 0, 82, 0
4, 10620, Note_on_c, 0, 81, 88
4, 10678, Note_off_c, 0, 81, 0
4, 10680, Note_on_c, 0, 79, 88
4, 10738, Note_off_c, 0, 79, 0
4, 10740, Note_on_c, 0, 82, 88
4, 10798, Note_off_c, 0, 82, 0
4, 10800, Note_on_c, 0, 81, 88
4, 10858, Note_off_c, 0, 81, 0
4, 10860, Note_on_c, 0, 79, 88
4, 10918, Note_off_c, 0, 79, 0
4, 10920, Note_on_c, 0, 77, 88
4, 10978, Note_off_c, 0, 77, 0
4, 10980, Note_on_c, 0, 79, 88
4, 11038, Note_off_c, 0, 79, 0
4, 11040, Note_on_c, 0, 76, 88
4, 11098, Note_off_c, 0, 76, 0
4, 11100, Note_on_c, 0, 77, 88
4, 11158, Note_off_c, 0, 77, 0
4, 11160, Note_on_c, 0, 79, 88
4, 11218, Note_off_c, 0, 79, 0
4, 11220, Note_on_c, 0, 81, 88
4, 11278, Note_off_c, 0, 81, 0
4, 11280, Note_on_c, 0, 82, 88
4, 11338, Note_off_c, 0, 82, 0
4, 11340, Note_on_c, 0, 81, 88
4, 11398, Note_off_c, 0, 81, 0
4, 11400, Note_on_c, 0, 79, 88
4, 11458, Note_off_c, 0, 79, 0
4, 11460, Note_on_c, 0, 82, 88
4, 11518, Note_off_c, 0, 82, 0
4, 11520, Note_on_c, 0, 81, 88
4, 11578, Note_off_c, 0, 81, 0
4, 11580, Note_on_c, 0, 82, 88
4, 11638, Note_off_c, 0, 82, 0
4, 11640, Note_on_c, 0, 81, 88
4, 11698, Note_off_c, 0, 81, 0
4, 11700, Note_on_c, 0, 79, 88
4, 11758, Note_off_c, 0, 79, 0
4, 11760, Note_on_c, 0, 78, 88
4, 11818, Note_off_c, 0, 78, 0
4, 11820, Note_on_c, 0, 79, 88
4, 11878, Note_off_c, 0, 79, 0
4, 11880, Note_on_c, 0, 81, 88
4, 11938, Note_off_c, 0, 81, 0
4, 11940, Note_on_c, 0, 82, 88
4, 11998, Note_off_c, 0, 82, 0
4, 12000, Note_on_c, 0, 84, 88
4, 12058, Note_off_c, 0, 84, 0
4, 12060, Note_on_c, 0, 82, 88
4, 12118, Note_off_c, 0, 82, 0
4, 12120, Note_on_c, 0, 81, 88
4, 12178, Note_off_c, 0, 81, 0
4, 12180, Note_on_c, 0, 84, 88
4, 12238, Note_off_c, 0, 84, 0
4, 12240, Note_on_c, 0, 82, 88
4, 12298, Note_off_c, 0, 82, 0
4, 12300, Note_on_c, 0, 81, 88
4, 12358, Note_off_c, 0, 81, 0
4, 12360, Note_on_c, 0, 79, 88
4, 12418, Note_off_c, 0, 79, 0
4, 12420, Note_on_c, 0, 81, 88
4, 12478, Note_off_c, 0, 81, 0
4, 12480, Note_on_c, 0, 78, 88
4, 12538, Note_off_c, 0, 78, 0
4, 12540, Note_on_c, 0, 79, 88
4, 12598, Note_off_c, 0, 79, 0
4, 12600, Note_on_c, 0, 81, 88
4, 12658, Note_off_c, 0, 81, 0
4, 12660, Note_on_c, 0, 82, 88
4, 12718, Note_off_c, 0, 82, 0
4, 12720, Note_on_c, 0, 84, 88
4, 12778, Note_off_c, 0, 84, 0
4, 12780, Note_on_c, 0, 82, 88
4, 12838, Note_off_c, 0, 82, 0
4, 12840, Note_on_c, 0, 81, 88
4, 12898, Note_off_c, 0, 81, 0
4, 12900, Note_on_c, 0, 84, 88
4, 12958, Note_off_c, 0, 84, 0
4, 12960, Note_on_c, 0, 82, 88
4, 13018, Note_off_c, 0, 82, 0
4, 13020, Note_on_c, 0, 81, 88
4, 13078, Note_off_c, 0, 81, 0
4, 13080, Note_on_c, 0, 79, 88
4, 13138, Note_off_c, 0, 79, 0
4, 13140, Note_on_c, 0, 77, 88
4, 13198, Note_off_c, 0, 77, 0
4, 13200, Note_on_c, 0, 75, 88
4, 13258, Note_off_c, 0, 75, 0
4, 13260, Note_on_c, 0, 77, 88
4, 13318, Note_off_c, 0, 77, 0
4, 13320, Note_on_c, 0, 79, 88
4, 13378, Note_off_c, 0, 79, 0
4, 13380, Note_on_c, 0, 81, 88
4, 13438, Note_off_c, 0, 81, 0
4, 13440, Note_on_c, 0, 82, 88
4, 13498, Note_off_c, 0, 82, 0
4, 13500, Note_on_c, 0, 81, 88
4, 13558, Note_off_c, 0, 81, 0
4, 13560, Note_on_c, 0, 79, 88
4, 13618, Note_off_c, 0, 79, 0
4, 13620, Note_on_c, 0, 82, 88
4, 13678, Note_off_c, 0, 82, 0
4, 13680, Note_on_c, 0, 81, 88
4, 13738, Note_off_c, 0, 81, 0
4, 13740, Note_on_c, 0, 79, 88
4, 13798, Note_off_c, 0, 79, 0
4, 13800, Note_on_c, 0, 77, 88
4, 13858, Note_off_c, 0, 77, 0
4, 13860, Note_on_c, 0, 75, 88
4, 13918, Note_off_c, 0, 75, 0
4, 13920, Note_on_c, 0, 74, 88
4, 13978, Note_off_c, 0, 74, 0
4, 13980, Note_on_c, 0, 75, 88
4, 14038, Note_off_c, 0, 75, 0
4, 14040, Note_on_c, 0, 77, 88
4, 14098, Note_off_c, 0, 77, 0
4, 14100, Note_on_c, 0, 79, 88
4, 14158, Note_off_c, 0, 79, 0
4, 14160, Note_on_c, 0, 81, 88
4, 14218, Note_off_c, 0, 81, 0
4, 14220, Note_on_c, 0, 79, 88
4, 14278, Note_off_c, 0, 79, 0
4, 14280, Note_on_c, 0, 77, 88
4, 14338, Note_off_c, 0, 77, 0
4, 14340, Note_on_c, 0, 81, 88
4, 14398, Note_off_c, 0, 81, 0
4, 14400, Note_on_c, 0, 79, 88
4, 14458, Note_off_c, 0, 79, 0
4, 14460, Note_on_c, 0, 77, 88
4, 14518, Note_off_c, 0, 77, 0
4, 14520, Note_on_c, 0, 75, 88
4, 14578, Note_off_c, 0, 75, 0
4, 14580, Note_on_c, 0, 74, 88
4, 14638, Note_off_c, 0, 74, 0
4, 14640, Note_on_c, 0, 72, 88
4, 14698, Note_off_c, 0, 72, 0
4, 14700, Note_on_c, 0, 74, 88
4, 14758, Note_off_c, 0, 74, 0
4, 14760, Note_on_c, 0, 75, 88
4, 14818, Note_off_c, 0, 75, 0
4, 14820, Note_on_c, 0, 77, 88
4, 14878, Note_off_c, 0, 77, 0
4, 14880, Note_on_c, 0, 79, 88
4, 14938, Note_off_c, 0, 79, 0
4, 14940, Note_on_c, 0, 78, 88
4, 14998, Note_off_c, 0, 78, 0
4, 15000, Note_on_c, 0, 76, 88
4, 15058, Note_off_c, 0, 76, 0
4, 15060, Note_on_c, 0, 79, 88
4, 15118, Note_off_c, 0, 79, 0
4, 15120, Note_on_c, 0, 78, 88
4, 15178, Note_off_c, 0, 78, 0
4, 15180, Note_on_c, 0, 76, 88
4, 15238, Note_off_c, 0, 76, 0
4, 15240, Note_on_c, 0, 74, 88
4, 15298, Note_off_c, 0, 74, 0
4, 15300, Note_on_c, 0, 72, 88
4, 15358, Note_off_c, 0, 72, 0
4, 15360, Note_on_c, 0, 70, 88
4, 15418, Note_off_c, 0, 70, 0
4, 15420, Note_on_c, 0, 69, 88
4, 15478, Note_off_c, 0, 69, 0
4, 15480, Note_on_c, 0, 70, 88
4, 15538, Note_off_c, 0, 70, 0
4, 15540, Note_on_c, 0, 72, 88
4, 15598, Note_off_c, 0, 72, 0
4, 15600, Note_on_c, 0, 74, 88
4, 15716, Note_off_c, 0, 74, 0
4, 15720, Note_on_c, 0, 79, 88
4, 15956, Note_off_c, 0, 79, 0
4, 15960, Note_on_c, 0, 72, 88
4, 16076, Note_off_c, 0, 72, 0
4, 16080, Note_on_c, 0, 70, 88
4, 16196, Note_off_c, 0, 70, 0
4, 16200, Note_on_c, 0, 72, 88
4, 16316, Note_off_c, 0, 72, 0
4, 16320, Note_on_c, 0, 78, 88
4, 16436, Note_off_c, 0, 78, 0
4, 16440, Note_on_c, 0, 81, 88
4, 16676, Note_off_c, 0, 81, 0
4, 16680, Note_on_c, 0, 70, 88
4, 16738, Note_off_c, 0, 70, 0
4, 16740, Note_on_c, 0, 72, 88
4, 16798, Note_off_c, 0, 72, 0
4, 16800, Note_on_c, 0, 74, 88
4, 16901, Note_off_c, 0, 74, 0
4, 16920, Note_on_c, 0, 74, 88
4, 17021, Note_off_c, 0, 74, 0
4, 17040, Note_on_c, 0, 74, 88
4, 17141, Note_off_c, 0, 74, 0
4, 17160, Note_on_c, 0, 74, 88
4, 17276, Note_off_c, 0, 74, 0
4, 17280, Note_on_c, 0, 74, 88
4, 17338, Note_off_c, 0, 74, 0
4, 17340, Note_on_c, 0, 72, 88
4, 17398, Note_off_c, 0, 72, 0
4, 17400, Note_on_c, 0, 70, 88
4, 17458, Note_off_c, 0, 70, 0
4, 17460, Note_on_c, 0, 72, 88
4, 17518, Note_off_c, 0, 72, 0
4, 17520, Note_on_c, 0, 74, 88
4, 17621, Note_off_c, 0, 74, 0
4, 17640, Note_on_c, 0, 74, 88
4, 17741, Note_off_c, 0, 74, 0
4, 17760, Note_on_c, 0, 74, 88
4, 17861, Note_off_c, 0, 74, 0
4, 17880, Note_on_c, 0, 74, 88
4, 17996, Note_off_c, 0, 74, 0
4, 18000, Note_on_c, 0, 74, 88
4, 18116, Note_off_c, 0, 74, 0
4, 18540, Note_on_c, 0, 75, 88
4, 18598, Note_off_c, 0, 75, 0
4, 18600, Note_on_c, 0, 72, 88
4, 18658, Note_off_c, 0, 72, 0
4, 18660, Note_on_c, 0, 75, 88
4, 18718, Note_off_c, 0, 75, 0
4, 18720, Note_on_c, 0, 77, 88
4, 18836, Note_off_c, 0, 77, 0
4, 19260, Note_on_c, 0, 77, 88
4, 19318, Note_off_c, 0, 77, 0
4, 19320, Note_on_c, 0, 74, 88
4, 19378, Note_off_c, 0, 74, 0
4, 19380, Note_on_c, 0, 77, 88
4, 19438, Note_off_c, 0, 77, 0
4, 19440, Note_on_c, 0, 79, 88
4, 19556, Note_off_c, 0, 79, 0
4, 19800, Note_on_c, 0, 71, 88
4, 19858, Note_off_c, 0, 71, 0
4, 19860, Note_on_c, 0, 72, 88
4, 19918, Note_off_c, 0, 72, 0
4, 19920, Note_on_c, 0, 74, 88
4, 19978, Note_off_c, 0, 74, 0
4, 19980, Note_on_c, 0, 72, 88
4, 20038, Note_off_c, 0, 72, 0
4, 20040, Note_on_c, 0, 71, 88
4, 20098, Note_off_c, 0, 71, 0
4, 20100, Note_on_c, 0, 74, 88
4, 20158, Note_off_c, 0, 74, 0
4, 20160, Note_on_c, 0, 72, 88
4, 20276, Note_off_c, 0, 72, 0
4, 20520, Note_on_c, 0, 71, 88
4, 20578, Note_off_c, 0, 71, 0
4, 20580, Note_on_c, 0, 72, 88
4, 20638, Note_off_c, 0, 72, 0
4, 20640, Note_on_c, 0, 74, 88
4, 20698, Note_off_c, 0, 74, 0
4, 20700, Note_on_c, 0, 72, 88
4, 20758, Note_off_c, 0, 72, 0
4, 20760, Note_on_c, 0, 71, 88
4, 20818, Note_off_c, 0, 71, 0
4, 20820, Note_on_c, 0, 74, 88
4, 20878, Note_off_c, 0, 74, 0
4, 20880, Note_on_c, 0, 72, 88
4, 20996, Note_off_c, 0, 72, 0
4, 21000, Note_on_c, 0, 75, 88
4, 21116, Note_off_c, 0, 75, 0
4, 21120, Note_on_c, 0, 74, 88
4, 21236, Note_off_c, 0, 74, 0
4, 21240, Note_on_c, 0, 75, 88
4, 21356, Note_off_c, 0, 75, 0
4, 21360, Note_on_c, 0, 72, 88
4, 21476, Note_off_c, 0, 72, 0
4, 21480, Note_on_c, 0, 81, 88
4, 21596, Note_off_c, 0, 81, 0
4, 21600, Note_on_c, 0, 82, 88
4, 21716, Note_off_c, 0, 82, 0
4, 21720, Note_on_c, 0, 74, 88
4, 21836, Note_off_c, 0, 74, 0
4, 21840, Note_on_c, 0, 72, 88
4, 21956, Note_off_c, 0, 72, 0
4, 21960, Note_on_c, 0, 74, 88
4, 22076, Note_off_c, 0, 74, 0
4, 22080, Note_on_c, 0, 70, 88
4, 22196, Note_off_c, 0, 70, 0
4, 22200, Note_on_c, 0, 79, 88
4, 22316, Note_off_c, 0, 79, 0
4, 22320, Note_on_c, 0, 81, 88
4, 22436, Note_off_c, 0, 81, 0
4, 22440, Note_on_c, 0, 72, 88
4, 22556, Note_off_c, 0, 72, 0
4, 22560, Note_on_c, 0, 70, 88
4, 22676, Note_off_c, 0, 70, 0
4, 22680, Note_on_c, 0, 72, 88
4, 22796, Note_off_c, 0, 72, 0
4, 22800, Note_on_c, 0, 69, 88
4, 22916, Note_off_c, 0, 69, 0
4, 22920, Note_on_c, 0, 78, 88
4, 23036, Note_off_c, 0, 78, 0
4, 23040, Note_on_c, 0, 79, 88
4, 23098, Note_off_c, 0, 79, 0
4, 23100, Note_on_c, 0, 77, 88
4, 23158, Note_off_c, 0, 77, 0
4, 23160, Note_on_c, 0, 76, 88
4, 23218, Note_off_c, 0, 76, 0
4, 23220, Note_on_c, 0, 74, 88
4, 23278, Note_off_c, 0, 74, 0
4, 23280, Note_on_c, 0, 73, 88
4, 23338, Note_off_c, 0, 73, 0
4, 23340, Note_on_c, 0, 74, 88
4, 23398, Note_off_c, 0, 74, 0
4, 23400, Note_on_c, 0, 76, 88
4, 23458, Note_off_c, 0, 76, 0
4, 23460, Note_on_c, 0, 77, 88
4, 23518, Note_off_c, 0, 77, 0
4, 23520, Note_on_c, 0, 79, 88
4, 23578, Note_off_c, 0, 79, 0
4, 23580, Note_on_c, 0, 77, 88
4, 23638, Note_off_c, 0, 77, 0
4, 23640, Note_on_c, 0, 76, 88
4, 23698, Note_off_c, 0, 76, 0
4, 23700, Note_on_c, 0, 79, 88
4, 23758, Note_off_c, 0, 79, 0
4, 23760, Note_on_c, 0, 77, 88
4, 23818, Note_off_c, 0, 77, 0
4, 23820, Note_on_c, 0, 75, 88
4, 23878, Note_off_c, 0, 75, 0
4, 23880, Note_on_c, 0, 74, 88
4, 23938, Note_off_c, 0, 74, 0
4, 23940, Note_on_c, 0, 72, 88
4, 23998, Note_off_c, 0, 72, 0
4, 24000, Note_on_c, 0, 71, 88
4, 24058, Note_off_c, 0, 71, 0
4, 24060, Note_on_c, 0, 72, 88
4, 24118, Note_off_c, 0, 72, 0
4, 24120, Note_on_c, 0, 74, 88
4, 24178, Note_off_c, 0, 74, 0
4, 24180, Note_on_c, 0, 75, 88
4, 24238, Note_off_c, 0, 75, 0
4, 24240, Note_on_c, 0, 77, 88
4, 24298, Note_off_c, 0, 77, 0
4, 24300, Note_on_c, 0, 75, 88
4, 24358, Note_off_c, 0, 75, 0
4, 24360, Note_on_c, 0, 74, 88
4, 24418, Note_off_c, 0, 74, 0
4, 24420, Note_on_c, 0, 77, 88
4, 24478, Note_off_c, 0, 77, 0
4, 24480, Note_on_c, 0, 75, 88
4, 24538, Note_off_c, 0, 75, 0
4, 24540, Note_on_c, 0, 72, 88
4, 24598, Note_off_c, 0, 72, 0
4, 24600, Note_on_c, 0, 71, 88
4, 24658, Note_off_c, 0, 71, 0
4, 24660, Note_on_c, 0, 69, 88
4, 24718, Note_off_c, 0, 69, 0
4, 24720, Note_on_c, 0, 67, 88
4, 24778, Note_off_c, 0, 67, 0
4, 24780, Note_on_c, 0, 65, 88
4, 24838, Note_off_c, 0, 65, 0
4, 24840, Note_on_c, 0, 67, 88
4, 24898, Note_off_c, 0, 67, 0
4, 24900, Note_on_c, 0, 72, 88
4, 24958, Note_off_c, 0, 72, 0
4, 24960, Note_on_c, 0, 75, 88
4, 25316, Note_off_c, 0, 75, 0
4, 25320, Note_on_c, 0, 68, 88
4, 25436, Note_off_c, 0, 68, 0
4, 25440, Note_on_c, 0, 67, 88
4, 25556, Note_off_c, 0, 67, 0
4, 25560, Note_on_c, 0, 68, 88
4, 25676, Note_off_c, 0, 68, 0
4, 25680, Note_on_c, 0, 74, 88
4, 25796, Note_off_c, 0, 74, 0
4, 25800, Note_on_c, 0, 77, 88
4, 26036, Note_off_c, 0, 77, 0
4, 26040, Note_on_c, 0, 70, 88
4, 26156, Note_off_c, 0, 70, 0
4, 26160, Note_on_c, 0, 72, 88
4, 26276, Note_off_c, 0, 72, 0
4, 26280, Note_on_c, 0, 70, 88
4, 26396, Note_off_c, 0, 70, 0
4, 26400, Note_on_c, 0, 75, 88
4, 26516, Note_off_c, 0, 75, 0
4, 26520, Note_on_c, 0, 67, 88
4, 26636, Note_off_c, 0, 67, 0
4, 26640, Note_on_c, 0, 65, 88
4, 26756, Note_off_c, 0, 65, 0
4, 26760, Note_on_c, 0, 74, 88
4, 26818, Note_off_c, 0, 74, 0
4, 26820, Note_on_c, 0, 72, 88
4, 26878, Note_off_c, 0, 72, 0
4, 26880, Note_on_c, 0, 75, 88
4, 26938, Note_off_c, 0, 75, 0
4, 26940, Note_on_c, 0, 74, 88
4, 26998, Note_off_c, 0, 74, 0
4, 27000, Note_on_c, 0, 72, 88
4, 27058, Note_off_c, 0, 72, 0
4, 27060, Note_on_c, 0, 70, 88
4, 27118, Note_off_c, 0, 70, 0
4, 27120, Note_on_c, 0, 77, 88
4, 27236, Note_off_c, 0, 77, 0
4, 27240, Note_on_c, 0, 68, 88
4, 27356, Note_off_c, 0, 68, 0
4, 27360, Note_on_c, 0, 67, 88
4, 27476, Note_off_c, 0, 67, 0
4, 27480, Note_on_c, 0, 75, 88
4, 27538, Note_off_c, 0, 75, 0
4, 27540, Note_on_c, 0, 77, 88
4, 27598, Note_off_c, 0, 77, 0
4, 27600, Note_on_c, 0, 74, 88
4, 27658, Note_off_c, 0, 74, 0
4, 27660, Note_on_c, 0, 75, 88
4, 27718, Note_off_c, 0, 75, 0
4, 27720, Note_on_c, 0, 77, 88
4, 27778, Note_off_c, 0, 77, 0
4, 27780, Note_on_c, 0, 79, 88
4, 27838, Note_off_c, 0, 79, 0
4, 27840, Note_on_c, 0, 80, 88
4, 27898, Note_off_c, 0, 80, 0
4, 27900, Note_on_c, 0, 79, 88
4, 27958, Note_off_c, 0, 79, 0
4, 27960, Note_on_c, 0, 77, 88
4, 28018, Note_off_c, 0, 77, 0
4, 28020, Note_on_c, 0, 80, 88
4, 28078, Note_off_c, 0, 80, 0
4, 28080, Note_on_c, 0, 79, 88
4, 28138, Note_off_c, 0, 79, 0
4, 28140, Note_on_c, 0, 77, 88
4, 28198, Note_off_c, 0, 77, 0
4, 28200, Note_on_c, 0, 75, 88
4, 28258, Note_off_c, 0, 75, 0
4, 28260, Note_on_c, 0, 77, 88
4, 28318, Note_off_c, 0, 77, 0
4, 28320, Note_on_c, 0, 74, 88
4, 28378, Note_off_c, 0, 74, 0
4, 28380, Note_on_c, 0, 75, 88
4, 28438, Note_off_c, 0, 75, 0
4, 28440, Note_on_c, 0, 77, 88
4, 28498, Note_off_c, 0, 77, 0
4, 28500, Note_on_c, 0, 79, 88
4, 28558, Note_off_c, 0, 79, 0
4, 28560, Note_on_c, 0, 80, 88
4, 28618, Note_off_c, 0, 80, 0
4, 28620, Note_on_c, 0, 79, 88
4, 28678, Note_off_c, 0, 79, 0
4, 28680, Note_on_c, 0, 77, 88
4, 28738, Note_off_c, 0, 77, 0
4, 28740, Note_on_c, 0, 80, 88
4, 28798, Note_off_c, 0, 80, 0
4, 28800, Note_on_c, 0, 79, 88
4, 28975, Note_off_c, 0, 79, 0
4, 28980, Note_on_c, 0, 77, 88
4, 29038, Note_off_c, 0, 77, 0
4, 29040, Note_on_c, 0, 75, 88
4, 29098, Note_off_c, 0, 75, 0
4, 29100, Note_on_c, 0, 74, 88
4, 29158, Note_off_c, 0, 74, 0
4, 29160, Note_on_c, 0, 75, 88
4, 29218, Note_off_c, 0, 75, 0
4, 29220, Note_on_c, 0, 77, 88
4, 29278, Note_off_c, 0, 77, 0
4, 29280, Note_on_c, 0, 79, 88
4, 29396, Note_off_c, 0, 79, 0
4, 29400, Note_on_c, 0, 82, 88
4, 29636, Note_off_c, 0, 82, 0
4, 29640, Note_on_c, 0, 75, 88
4, 29756, Note_off_c, 0, 75, 0
4, 29760, Note_on_c, 0, 74, 88
4, 29876, Note_off_c, 0, 74, 0
4, 29880, Note_on_c, 0, 75, 88
4, 29996, Note_off_c, 0, 75, 0
4, 30000, Note_on_c, 0, 81, 88
4, 30116, Note_off_c, 0, 81, 0
4, 30120, Note_on_c, 0, 84, 88
4, 30356, Note_off_c, 0, 84, 0
4, 30360, Note_on_c, 0, 74, 88
4, 30418, Note_off_c, 0, 74, 0
4, 30420, Note_on_c, 0, 75, 88
4, 30478, Note_off_c, 0, 75, 0
4, 30480, Note_on_c, 0, 77, 88
4, 30581, Note_off_c, 0, 77, 0
4, 30600, Note_on_c, 0, 77, 88
4, 30701, Note_off_c, 0, 77, 0
4, 30720, Note_on_c, 0, 77, 88
4, 30821, Note_off_c, 0, 77, 0
4, 30840, Note_on_c, 0, 77, 88
4, 30956, Note_off_c, 0, 77, 0
4, 30960, Note_on_c, 0, 77, 88
4, 31018, Note_off_c, 0, 77, 0
4, 31020, Note_on_c, 0, 75, 88
4, 31078, Note_off_c, 0, 75, 0
4, 31080, Note_on_c, 0, 74, 88
4, 31138, Note_off_c, 0, 74, 0
4, 31140, Note_on_c, 0, 75, 88
4, 31198, Note_off_c, 0, 75, 0
4, 31200, Note_on_c, 0, 77, 88
4, 31301, Note_off_c, 0, 77, 0
4, 31320, Note_on_c, 0, 77, 88
4, 31421, Note_off_c, 0, 77, 0
4, 31440, Note_on_c, 0, 77, 88
4, 31541, Note_off_c, 0, 77, 0
4, 31560, Note_on_c, 0, 77, 88
4, 31676, Note_off_c, 0, 77, 0
4, 31680, Note_on_c, 0, 77, 88
4, 31796, Note_off_c, 0, 77, 0
4, 32040, Note_on_c, 0, 69, 88
4, 32098, Note_off_c, 0, 69, 0
4, 32100, Note_on_c, 0, 70, 88
4, 32158, Note_off_c, 0, 70, 0
4, 32160, Note_on_c, 0, 72, 88
4, 32218, Note_off_c, 0, 72, 0
4, 32220, Note_on_c, 0, 70, 88
4, 32278, Note_off_c, 0, 70, 0
4, 32280, Note_on_c, 0, 69, 88
4, 32338, Note_off_c, 0, 69, 0
4, 32340, Note_on_c, 0, 72, 88
4, 32398, Note_off_c, 0, 72, 0
4, 32400, Note_on_c, 0, 70, 88
4, 32516, Note_off_c, 0, 70, 0
4, 32760, Note_on_c, 0, 69, 88
4, 32818, Note_off_c, 0, 69, 0
4, 32820, Note_on_c, 0, 70, 88
4, 32878, Note_off_c, 0, 70, 0
4, 32880, Note_on_c, 0, 72, 88
4, 32938, Note_off_c, 0, 72, 0
4, 32940, Note_on_c, 0, 70, 88
4, 32998, Note_off_c, 0, 70, 0
4, 33000, Note_on_c, 0, 69, 88
4, 33058, Note_off_c, 0, 69, 0
4, 33060, Note_on_c, 0, 72, 88
4, 33118, Note_off_c, 0, 72, 0
4, 33120, Note_on_c, 0, 70, 88
4, 33236, Note_off_c, 0, 70, 0
4, 33240, Note_on_c, 0, 79, 88
4, 33356, Note_off_c, 0, 79, 0
4, 33360, Note_on_c, 0, 74, 88
4, 33594, Note_off_c, 0, 74, 0
4, 33600, Note_on_c, 0, 72, 88
4, 33834, Note_off_c, 0, 72, 0
4, 33840, Note_on_c, 0, 70, 88
4, 34548, Note_off_c, 0, 70, 0
4, 34548, End_track
5, 0, Start_track
5, 0, Title_t, "Track 2"
5, 0, Program_c, 1, 6
5, 3000, Note_on_c, 1, 58, 88
5, 3116, Note_off_c, 1, 58, 0
5, 3120, Note_on_c, 1, 62, 88
5, 3236, Note_off_c, 1, 62, 0
5, 3240, Note_on_c, 1, 58, 88
5, 3356, Note_off_c, 1, 58, 0
5, 3360, Note_on_c, 1, 65, 88
5, 3476, Note_off_c, 1, 65, 0
5, 3480, Note_on_c, 1, 57, 88
5, 3596, Note_off_c, 1, 57, 0
5, 3600, Note_on_c, 1, 55, 88
5, 3716, Note_off_c, 1, 55, 0
5, 3720, Note_on_c, 1, 64, 88
5, 3778, Note_off_c, 1, 64, 0
5, 3780, Note_on_c, 1, 62, 88
5, 3838, Note_off_c, 1, 62, 0
5, 3840, Note_on_c, 1, 65, 88
5, 3898, Note_off_c, 1, 65, 0
5, 3900, Note_on_c, 1, 64, 88
5, 3958, Note_off_c, 1, 64, 0
5, 3960, Note_on_c, 1, 62, 88
5, 4018, Note_off_c, 1, 62, 0
5, 4020, Note_on_c, 1, 60, 88
5, 4078, Note_off_c, 1, 60, 0
5, 4080, Note_on_c, 1, 67, 88
5, 4196, Note_off_c, 1, 67, 0
5, 4200, Note_on_c, 1, 58, 88
5, 4316, Note_off_c, 1, 58, 0
5, 4320, Note_on_c, 1, 57, 88
5, 4436, Note_off_c, 1, 57, 0
5, 4440, Note_on_c, 1, 65, 88
5, 4498, Note_off_c, 1, 65, 0
5, 4500, Note_on_c, 1, 67, 88
5, 4558, Note_off_c, 1, 67, 0
5, 4560, Note_on_c, 1, 64, 88
5, 4618, Note_off_c, 1, 64, 0
5, 4620, Note_on_c, 1, 65, 88
5, 4678, Note_off_c, 1, 65, 0
5, 4680, Note_on_c, 1, 67, 88
5, 4738, Note_off_c, 1, 67, 0
5, 4740, Note_on_c, 1, 69, 88
5, 4798, Note_off_c, 1, 69, 0
5, 4800, Note_on_c, 1, 70, 88
5, 4858, Note_off_c, 1, 70, 0
5, 4860, Note_on_c, 1, 69, 88
5, 4918, Note_off_c, 1, 69, 0
5, 4920, Note_on_c, 1, 67, 88
5, 4978, Note_off_c, 1, 67, 0
5, 4980, Note_on_c, 1, 70, 88
5, 5038, Note_off_c, 1, 70, 0
5, 5040, Note_on_c, 1, 69, 88
5, 5098, Note_off_c, 1, 69, 0
5, 5100, Note_on_c, 1, 67, 88
5, 5158, Note_off_c, 1, 67, 0
5, 5160, Note_on_c, 1, 65, 88
5, 5218, Note_off_c, 1, 65, 0
5, 5220, Note_on_c, 1, 67, 88
5, 5278, Note_off_c, 1, 67, 0
5, 5280, Note_on_c, 1, 64, 88
5, 5338, Note_off_c, 1, 64, 0
5, 5340, Note_on_c, 1, 65, 88
5, 5398, Note_off_c, 1, 65, 0
5, 5400, Note_on_c, 1, 67, 88
5, 5458, Note_off_c, 1, 67, 0
5, 5460, Note_on_c, 1, 69, 88
5, 5518, Note_off_c, 1, 69, 0
5, 5520, Note_on_c, 1, 70, 88
5, 5578, Note_off_c, 1, 70, 0
5, 5580, Note_on_c, 1, 69, 88
5, 5638, Note_off_c, 1, 69, 0
5, 5640, Note_on_c, 1, 67, 88
5, 5698, Note_off_c, 1, 67, 0
5, 5700, Note_on_c, 1, 70, 88
5, 5758, Note_off_c, 1, 70, 0
5, 5760, Note_on_c, 1, 69, 88
5, 5935, Note_off_c, 1, 69, 0
5, 5940, Note_on_c, 1, 67, 88
5, 5998, Note_off_c, 1, 67, 0
5, 6000, Note_on_c, 1, 65, 88
5, 6058, Note_off_c, 1, 65, 0
5, 6060, Note_on_c, 1, 63, 88
5, 6118, Note_off_c, 1, 63, 0
5, 6120, Note_on_c, 1, 62, 88
5, 6178, Note_off_c, 1, 62, 0
5, 6180, Note_on_c, 1, 63, 88
5, 6238, Note_off_c, 1, 63, 0
5, 6240, Note_on_c, 1, 65, 88
5, 6356, Note_off_c, 1, 65, 0
5, 6360, Note_on_c, 1, 70, 88
5, 6596, Note_off_c, 1, 70, 0
5, 6600, Note_on_c, 1, 63, 88
5, 6716, Note_off_c, 1, 63, 0
5, 6720, Note_on_c, 1, 62, 88
5, 6836, Note_off_c, 1, 62, 0
5, 6840, Note_on_c, 1, 63, 88
5, 6956, Note_off_c, 1, 63, 0
5, 6960, Note_on_c, 1, 69, 88
5, 7076, Note_off_c, 1, 69, 0
5, 7080, Note_on_c, 1, 72, 88
5, 7316, Note_off_c, 1, 72, 0
5, 7320, Note_on_c, 1, 62, 88
5, 7378, Note_off_c, 1, 62, 0
5, 7380, Note_on_c, 1, 63, 88
5, 7438, Note_off_c, 1, 63, 0
5, 7440, Note_on_c, 1, 65, 88
5, 7541, Note_off_c, 1, 65, 0
5, 7560, Note_on_c, 1, 65, 88
5, 7661, Note_off_c, 1, 65, 0
5, 7680, Note_on_c, 1, 65, 88
5, 7781, Note_off_c, 1, 65, 0
5, 7800, Note_on_c, 1, 65, 88
5, 7916, Note_off_c, 1, 65, 0
5, 7920, Note_on_c, 1, 65, 88
5, 7978, Note_off_c, 1, 65, 0
5, 7980, Note_on_c, 1, 63, 88
5, 8038, Note_off_c, 1, 63, 0
5, 8040, Note_on_c, 1, 62, 88
5, 8098, Note_off_c, 1, 62, 0
5, 8100, Note_on_c, 1, 63, 88
5, 8158, Note_off_c, 1, 63, 0
5, 8160, Note_on_c, 1, 65, 88
5, 8261, Note_off_c, 1, 65, 0
5, 8280, Note_on_c, 1, 65, 88
5, 8381, Note_off_c, 1, 65, 0
5, 8400, Note_on_c, 1, 65, 88
5, 8501, Note_off_c, 1, 65, 0
5, 8520, Note_on_c, 1, 65, 88
5, 8636, Note_off_c, 1, 65, 0
5, 8640, Note_on_c, 1, 65, 88
5, 8874, Note_off_c, 1, 65, 0
5, 9180, Note_on_c, 1, 57, 88
5, 9238, Note_off_c, 1, 57, 0
5, 9240, Note_on_c, 1, 53, 88
5, 9298, Note_off_c, 1, 53, 0
5, 9300, Note_on_c, 1, 57, 88
5, 9358, Note_off_c, 1, 57, 0
5, 9360, Note_on_c, 1, 58, 88
5, 9476, Note_off_c, 1, 58, 0
5, 9900, Note_on_c, 1, 58, 88
5, 9958, Note_off_c, 1, 58, 0
5, 9960, Note_on_c, 1, 55, 88
5, 10018, Note_off_c, 1, 55, 0
5, 10020, Note_on_c, 1, 58, 88
5, 10078, Note_off_c, 1, 58, 0
5, 10080, Note_on_c, 1, 60, 88
5, 10196, Note_off_c, 1, 60, 0
5, 10440, Note_on_c, 1, 52, 88
5, 10498, Note_off_c, 1, 52, 0
5, 10500, Note_on_c, 1, 53, 88
5, 10558, Note_off_c, 1, 53, 0
5, 10560, Note_on_c, 1, 55, 88
5, 10618, Note_off_c, 1, 55, 0
5, 10620, Note_on_c, 1, 53, 88
5, 10678, Note_off_c, 1, 53, 0
5, 10680, Note_on_c, 1, 52, 88
5, 10738, Note_off_c, 1, 52, 0
5, 10740, Note_on_c, 1, 55, 88
5, 10798, Note_off_c, 1, 55, 0
5, 10800, Note_on_c, 1, 53, 88
5, 10916, Note_off_c, 1, 53, 0
5, 11160, Note_on_c, 1, 52, 88
5, 11218, Note_off_c, 1, 52, 0
5, 11220, Note_on_c, 1, 53, 88
5, 11278, Note_off_c, 1, 53, 0
5, 11280, Note_on_c, 1, 55, 88
5, 11338, Note_off_c, 1, 55, 0
5, 11340, Note_on_c, 1, 53, 88
5, 11398, Note_off_c, 1, 53, 0
5, 11400, Note_on_c, 1, 52, 88
5, 11458, Note_off_c, 1, 52, 0
5, 11460, Note_on_c, 1, 55, 88
5, 11518, Note_off_c, 1, 55, 0
5, 11520, Note_on_c, 1, 53, 88
5, 11578, Note_off_c, 1, 53, 0
5, 11580, Note_on_c, 1, 57, 88
5, 11638, Note_off_c, 1, 57, 0
5, 11640, Note_on_c, 1, 58, 88
5, 11698, Note_off_c, 1, 58, 0
5, 11700, Note_on_c, 1, 60, 88
5, 11758, Note_off_c, 1, 60, 0
5, 11760, Note_on_c, 1, 62, 88
5, 11861, Note_off_c, 1, 62, 0
5, 11880, Note_on_c, 1, 62, 88
5, 11981, Note_off_c, 1, 62, 0
5, 12000, Note_on_c, 1, 62, 88
5, 12101, Note_off_c, 1, 62, 0
5, 12120, Note_on_c, 1, 62, 88
5, 12236, Note_off_c, 1, 62, 0
5, 12240, Note_on_c, 1, 62, 88
5, 12298, Note_off_c, 1, 62, 0
5, 12300, Note_on_c, 1, 60, 88
5, 12358, Note_off_c, 1, 60, 0
5, 12360, Note_on_c, 1, 58, 88
5, 12418, Note_off_c, 1, 58, 0
5, 12420, Note_on_c, 1, 60, 88
5, 12478, Note_off_c, 1, 60, 0
5, 12480, Note_on_c, 1, 62, 88
5, 12581, Note_off_c, 1, 62, 0
5, 12600, Note_on_c, 1, 62, 88
5, 12701, Note_off_c, 1, 62, 0
5, 12720, Note_on_c, 1, 62, 88
5, 12821, Note_off_c, 1, 62, 0
5, 12840, Note_on_c, 1, 62, 88
5, 12956, Note_off_c, 1, 62, 0
5, 12960, Note_on_c, 1, 62, 88
5, 13076, Note_off_c, 1, 62, 0
5, 15240, Note_on_c, 1, 62, 88
5, 15356, Note_off_c, 1, 62, 0
5, 15360, Note_on_c, 1, 63, 88
5, 15476, Note_off_c, 1, 63, 0
5, 15480, Note_on_c, 1, 62, 88
5, 15596, Note_off_c, 1, 62, 0
5, 15600, Note_on_c, 1, 67, 88
5, 15716, Note_off_c, 1, 67, 0
5, 15720, Note_on_c, 1, 58, 88
5, 15836, Note_off_c, 1, 58, 0
5, 15840, Note_on_c, 1, 57, 88
5, 15956, Note_off_c, 1, 57, 0
5, 15960, Note_on_c, 1, 66, 88
5, 16018, Note_off_c, 1, 66, 0
5, 16020, Note_on_c, 1, 64, 88
5, 16078, Note_off_c, 1, 64, 0
5, 16080, Note_on_c, 1, 67, 88
5, 16138, Note_off_c, 1, 67, 0
5, 16140, Note_on_c, 1, 66, 88
5, 16198, Note_off_c, 1, 66, 0
5, 16200, Note_on_c, 1, 64, 88
5, 16258, Note_off_c, 1, 64, 0
5, 16260, Note_on_c, 1, 62, 88
5, 16318, Note_off_c, 1, 62, 0
5, 16320, Note_on_c, 1, 69, 88
5, 16436, Note_off_c, 1, 69, 0
5, 16440, Note_on_c, 1, 60, 88
5, 16556, Note_off_c, 1, 60, 0
5, 16560, Note_on_c, 1, 58, 88
5, 16676, Note_off_c, 1, 58, 0
5, 16680, Note_on_c, 1, 67, 88
5, 16738, Note_off_c, 1, 67, 0
5, 16740, Note_on_c, 1, 69, 88
5, 16798, Note_off_c, 1, 69, 0
5, 16800, Note_on_c, 1, 66, 88
5, 16858, Note_off_c, 1, 66, 0
5, 16860, Note_on_c, 1, 67, 88
5, 16918, Note_off_c, 1, 67, 0
5, 16920, Note_on_c, 1, 69, 88
5, 16978, Note_off_c, 1, 69, 0
5, 16980, Note_on_c, 1, 70, 88
5, 17038, Note_off_c, 1, 70, 0
5, 17040, Note_on_c, 1, 72, 88
5, 17098, Note_off_c, 1, 72, 0
5, 17100, Note_on_c, 1, 70, 88
5, 17158, Note_off_c, 1, 70, 0
5, 17160, Note_on_c, 1, 69, 88
5, 17218, Note_off_c, 1, 69, 0
5, 17220, Note_on_c, 1, 72, 88
5, 17278, Note_off_c, 1, 72, 0
5, 17280, Note_on_c, 1, 70, 88
5, 17338, Note_off_c, 1, 70, 0
5, 17340, Note_on_c, 1, 69, 88
5, 17398, Note_off_c, 1, 69, 0
5, 17400, Note_on_c, 1, 67, 88
5, 17458, Note_off_c, 1, 67, 0
5, 17460, Note_on_c, 1, 69, 88
5, 17518, Note_off_c, 1, 69, 0
5, 17520, Note_on_c, 1, 66, 88
5, 17578, Note_off_c, 1, 66, 0
5, 17580, Note_on_c, 1, 67, 88
5, 17638, Note_off_c, 1, 67, 0
5, 17640, Note_on_c, 1, 69, 88
5, 17698, Note_off_c, 1, 69, 0
5, 17700, Note_on_c, 1, 70, 88
5, 17758, Note_off_c, 1, 70, 0
5, 17760, Note_on_c, 1, 72, 88
5, 17818, Note_off_c, 1, 72, 0
5, 17820, Note_on_c, 1, 70, 88
5, 17878, Note_off_c, 1, 70, 0
5, 17880, Note_on_c, 1, 69, 88
5, 17938, Note_off_c, 1, 69, 0
5, 17940, Note_on_c, 1, 72, 88
5, 17998, Note_off_c, 1, 72, 0
5, 18000, Note_on_c, 1, 70, 88
5, 18058, Note_off_c, 1, 70, 0
5, 18060, Note_on_c, 1, 72, 88
5, 18118, Note_off_c, 1, 72, 0
5, 18120, Note_on_c, 1, 74, 88
5, 18178, Note_off_c, 1, 74, 0
5, 18180, Note_on_c, 1, 75, 88
5, 18238, Note_off_c, 1, 75, 0
5, 18240, Note_on_c, 1, 74, 88
5, 18298, Note_off_c, 1, 74, 0
5, 18300, Note_on_c, 1, 72, 88
5, 18358, Note_off_c, 1, 72, 0
5, 18360, Note_on_c, 1, 70, 88
5, 18418, Note_off_c, 1, 70, 0
5, 18420, Note_on_c, 1, 68, 88
5, 18478, Note_off_c, 1, 68, 0
5, 18480, Note_on_c, 1, 67, 88
5, 18596, Note_off_c, 1, 67, 0
5, 18600, Note_on_c, 1, 72, 88
5, 18836, Note_off_c, 1, 72, 0
5, 18840, Note_on_c, 1, 65, 88
5, 18956, Note_off_c, 1, 65, 0
5, 18960, Note_on_c, 1, 63, 88
5, 19076, Note_off_c, 1, 63, 0
5, 19080, Note_on_c, 1, 65, 88
5, 19196, Note_off_c, 1, 65, 0
5, 19200, Note_on_c, 1, 71, 88
5, 19316, Note_off_c, 1, 71, 0
5, 19320, Note_on_c, 1, 74, 88
5, 19556, Note_off_c, 1, 74, 0
5, 19560, Note_on_c, 1, 63, 88
5, 19618, Note_off_c, 1, 63, 0
5, 19620, Note_on_c, 1, 65, 88
5, 19678, Note_off_c, 1, 65, 0
5, 19680, Note_on_c, 1, 67, 88
5, 19781, Note_off_c, 1, 67, 0
5, 19800, Note_on_c, 1, 67, 88
5, 19901, Note_off_c, 1, 67, 0
5, 19920, Note_on_c, 1, 67, 88
5, 20021, Note_off_c, 1, 67, 0
5, 20040, Note_on_c, 1, 67, 88
5, 20156, Note_off_c, 1, 67, 0
5, 20160, Note_on_c, 1, 67, 88
5, 20218, Note_off_c, 1, 67, 0
5, 20220, Note_on_c, 1, 65, 88
5, 20278, Note_off_c, 1, 65, 0
5, 20280, Note_on_c, 1, 63, 88
5, 20338, Note_off_c, 1, 63, 0
5, 20340, Note_on_c, 1, 65, 88
5, 20398, Note_off_c, 1, 65, 0
5, 20400, Note_on_c, 1, 67, 88
5, 20501, Note_off_c, 1, 67, 0
5, 20520, Note_on_c, 1, 67, 88
5, 20621, Note_off_c, 1, 67, 0
5, 20640, Note_on_c, 1, 67, 88
5, 20741, Note_off_c, 1, 67, 0
5, 20760, Note_on_c, 1, 67, 88
5, 20876, Note_off_c, 1, 67, 0
5, 20880, Note_on_c, 1, 67, 88
5, 20996, Note_off_c, 1, 67, 0
5, 21480, Note_on_c, 1, 75, 88
5, 21596, Note_off_c, 1, 75, 0
5, 21600, Note_on_c, 1, 77, 88
5, 21716, Note_off_c, 1, 77, 0
5, 22200, Note_on_c, 1, 74, 88
5, 22316, Note_off_c, 1, 74, 0
5, 22320, Note_on_c, 1, 75, 88
5, 22436, Note_off_c, 1, 75, 0
5, 22920, Note_on_c, 1, 72, 88
5, 23036, Note_off_c, 1, 72, 0
5, 23040, Note_on_c, 1, 74, 88
5, 23156, Note_off_c, 1, 74, 0
5, 23160, Note_on_c, 1, 58, 88
5, 23276, Note_off_c, 1, 58, 0
5, 23280, Note_on_c, 1, 57, 88
5, 23396, Note_off_c, 1, 57, 0
5, 23400, Note_on_c, 1, 58, 88
5, 23516, Note_off_c, 1, 58, 0
5, 23520, Note_on_c, 1, 55, 88
5, 23636, Note_off_c, 1, 55, 0
5, 23640, Note_on_c, 1, 61, 88
5, 23756, Note_off_c, 1, 61, 0
5, 23760, Note_on_c, 1, 62, 88
5, 23876, Note_off_c, 1, 62, 0
5, 23880, Note_on_c, 1, 56, 88
5, 23996, Note_off_c, 1, 56, 0
5, 24000, Note_on_c, 1, 55, 88
5, 24116, Note_off_c, 1, 55, 0
5, 24120, Note_on_c, 1, 56, 88
5, 24236, Note_off_c, 1, 56, 0
5, 24240, Note_on_c, 1, 53, 88
5, 24356, Note_off_c, 1, 53, 0
5, 24360, Note_on_c, 1, 59, 88
5, 24476, Note_off_c, 1, 59, 0
5, 24480, Note_on_c, 1, 60, 88
5, 24581, Note_off_c, 1, 60, 0
5, 24600, Note_on_c, 1, 60, 88
5, 24716, Note_off_c, 1, 60, 0
5, 24720, Note_on_c, 1, 63, 88
5, 24836, Note_off_c, 1, 63, 0
5, 24840, Note_on_c, 1, 60, 88
5, 24956, Note_off_c, 1, 60, 0
5, 24960, Note_on_c, 1, 67, 88
5, 25076, Note_off_c, 1, 67, 0
5, 25080, Note_on_c, 1, 58, 88
5, 25196, Note_off_c, 1, 58, 0
5, 25200, Note_on_c, 1, 56, 88
5, 25316, Note_off_c, 1, 56, 0
5, 25320, Note_on_c, 1, 62, 88
5, 25378, Note_off_c, 1, 62, 0
5, 25380, Note_on_c, 1, 60, 88
5, 25438, Note_off_c, 1, 60, 0
5, 25440, Note_on_c, 1, 63, 88
5, 25498, Note_off_c, 1, 63, 0
5, 25500, Note_on_c, 1, 62, 88
5, 25558, Note_off_c, 1, 62, 0
5, 25560, Note_on_c, 1, 60, 88
5, 25618, Note_off_c, 1, 60, 0
5, 25620, Note_on_c, 1, 58, 88
5, 25678, Note_off_c, 1, 58, 0
5, 25680, Note_on_c, 1, 65, 88
5, 25796, Note_off_c, 1, 65, 0
5, 25800, Note_on_c, 1, 56, 88
5, 25916, Note_off_c, 1, 56, 0
5, 25920, Note_on_c, 1, 55, 88
5, 25978, Note_off_c, 1, 55, 0
5, 25980, Note_on_c, 1, 58, 88
5, 26038, Note_off_c, 1, 58, 0
5, 26040, Note_on_c, 1, 60, 88
5, 26098, Note_off_c, 1, 60, 0
5, 26100, Note_on_c, 1, 62, 88
5, 26158, Note_off_c, 1, 62, 0
5, 26160, Note_on_c, 1, 63, 88
5, 26218, Note_off_c, 1, 63, 0
5, 26220, Note_on_c, 1, 62, 88
5, 26278, Note_off_c, 1, 62, 0
5, 26280, Note_on_c, 1, 63, 88
5, 26338, Note_off_c, 1, 63, 0
5, 26340, Note_on_c, 1, 65, 88
5, 26398, Note_off_c, 1, 65, 0
5, 26400, Note_on_c, 1, 67, 88
5, 26516, Note_off_c, 1, 67, 0
5, 26520, Note_on_c, 1, 63, 88
5, 26756, Note_off_c, 1, 63, 0
5, 26760, Note_on_c, 1, 56, 88
5, 26876, Note_off_c, 1, 56, 0
5, 26880, Note_on_c, 1, 55, 88
5, 26996, Note_off_c, 1, 55, 0
5, 27000, Note_on_c, 1, 56, 88
5, 27116, Note_off_c, 1, 56, 0
5, 27120, Note_on_c, 1, 62, 88
5, 27236, Note_off_c, 1, 62, 0
5, 27240, Note_on_c, 1, 65, 88
5, 27476, Note_off_c, 1, 65, 0
5, 27480, Note_on_c, 1, 55, 88
5, 27538, Note_off_c, 1, 55, 0
5, 27540, Note_on_c, 1, 56, 88
5, 27598, Note_off_c, 1, 56, 0
5, 27600, Note_on_c, 1, 58, 88
5, 27701, Note_off_c, 1, 58, 0
5, 27720, Note_on_c, 1, 58, 88
5, 27821, Note_off_c, 1, 58, 0
5, 27840, Note_on_c, 1, 58, 88
5, 27941, Note_off_c, 1, 58, 0
5, 27960, Note_on_c, 1, 58, 88
5, 28076, Note_off_c, 1, 58, 0
5, 28080, Note_on_c, 1, 58, 88
5, 28138, Note_off_c, 1, 58, 0
5, 28140, Note_on_c, 1, 56, 88
5, 28198, Note_off_c, 1, 56, 0
5, 28200, Note_on_c, 1, 55, 88
5, 28258, Note_off_c, 1, 55, 0
5, 28260, Note_on_c, 1, 56, 88
5, 28318, Note_off_c, 1, 56, 0
5, 28320, Note_on_c, 1, 58, 88
5, 28421, Note_off_c, 1, 58, 0
5, 28440, Note_on_c, 1, 58, 88
5, 28541, Note_off_c, 1, 58, 0
5, 28560, Note_on_c, 1, 58, 88
5, 28661, Note_off_c, 1, 58, 0
5, 28680, Note_on_c, 1, 58, 88
5, 28796, Note_off_c, 1, 58, 0
5, 28800, Note_on_c, 1, 58, 88
5, 28916, Note_off_c, 1, 58, 0
5, 28920, Note_on_c, 1, 63, 88
5, 29036, Note_off_c, 1, 63, 0
5, 29040, Note_on_c, 1, 67, 88
5, 29156, Note_off_c, 1, 67, 0
5, 29160, Note_on_c, 1, 63, 88
5, 29276, Note_off_c, 1, 63, 0
5, 29280, Note_on_c, 1, 70, 88
5, 29396, Note_off_c, 1, 70, 0
5, 29400, Note_on_c, 1, 62, 88
5, 29516, Note_off_c, 1, 62, 0
5, 29520, Note_on_c, 1, 60, 88
5, 29636, Note_off_c, 1, 60, 0
5, 29640, Note_on_c, 1, 69, 88
5, 29698, Note_off_c, 1, 69, 0
5, 29700, Note_on_c, 1, 67, 88
5, 29758, Note_off_c, 1, 67, 0
5, 29760, Note_on_c, 1, 70, 88
5, 29818, Note_off_c, 1, 70, 0
5, 29820, Note_on_c, 1, 69, 88
5, 29878, Note_off_c, 1, 69, 0
5, 29880, Note_on_c, 1, 67, 88
5, 29938, Note_off_c, 1, 67, 0
5, 29940, Note_on_c, 1, 65, 88
5, 29998, Note_off_c, 1, 65, 0
5, 30000, Note_on_c, 1, 72, 88
5, 30116, Note_off_c, 1, 72, 0
5, 30120, Note_on_c, 1, 63, 88
5, 30236, Note_off_c, 1, 63, 0
5, 30240, Note_on_c, 1, 62, 88
5, 30356, Note_off_c, 1, 62, 0
5, 30360, Note_on_c, 1, 70, 88
5, 30418, Note_off_c, 1, 70, 0
5, 30420, Note_on_c, 1, 72, 88
5, 30478, Note_off_c, 1, 72, 0
5, 30480, Note_on_c, 1, 69, 88
5, 30538, Note_off_c, 1, 69, 0
5, 30540, Note_on_c, 1, 70, 88
5, 30598, Note_off_c, 1, 70, 0
5, 30600, Note_on_c, 1, 72, 88
5, 30658, Note_off_c, 1, 72, 0
5, 30660, Note_on_c, 1, 74, 88
5, 30718, Note_off_c, 1, 74, 0
5, 30720, Note_on_c, 1, 75, 88
5, 30778, Note_off_c, 1, 75, 0
5, 30780, Note_on_c, 1, 74, 88
5, 30838, Note_off_c, 1, 74, 0
5, 30840, Note_on_c, 1, 72, 88
5, 30898, Note_off_c, 1, 72, 0
5, 30900, Note_on_c, 1, 75, 88
5, 30958, Note_off_c, 1, 75, 0
5, 30960, Note_on_c, 1, 74, 88
5, 31018, Note_off_c, 1, 74, 0
5, 31020, Note_on_c, 1, 72, 88
5, 31078, Note_off_c, 1, 72, 0
5, 31080, Note_on_c, 1, 70, 88
5, 31138, Note_off_c, 1, 70, 0
5, 31140, Note_on_c, 1, 72, 88
5, 31198, Note_off_c, 1, 72, 0
5, 31200, Note_on_c, 1, 69, 88
5, 31258, Note_off_c, 1, 69, 0
5, 31260, Note_on_c, 1, 70, 88
5, 31318, Note_off_c, 1, 70, 0
5, 31320, Note_on_c, 1, 72, 88
5, 31378, Note_off_c, 1, 72, 0
5, 31380, Note_on_c, 1, 74, 88
5, 31438, Note_off_c, 1, 74, 0
5, 31440, Note_on_c, 1, 75, 88
5, 31498, Note_off_c, 1, 75, 0
5, 31500, Note_on_c, 1, 74, 88
5, 31558, Note_off_c, 1, 74, 0
5, 31560, Note_on_c, 1, 72, 88
5, 31618, Note_off_c, 1, 72, 0
5, 31620, Note_on_c, 1, 75, 88
5, 31678, Note_off_c, 1, 75, 0
5, 31680, Note_on_c, 1, 74, 88
5, 31796, Note_off_c, 1, 74, 0
5, 31800, Note_on_c, 1, 53, 88
5, 31858, Note_off_c, 1, 53, 0
5, 31860, Note_on_c, 1, 55, 88
5, 31918, Note_off_c, 1, 55, 0
5, 31920, Note_on_c, 1, 57, 88
5, 31978, Note_off_c, 1, 57, 0
5, 31980, Note_on_c, 1, 58, 88
5, 32038, Note_off_c, 1, 58, 0
5, 32040, Note_on_c, 1, 60, 88
5, 32098, Note_off_c, 1, 60, 0
5, 32100, Note_on_c, 1, 62, 88
5, 32158, Note_off_c, 1, 62, 0
5, 32160, Note_on_c, 1, 63, 88
5, 32218, Note_off_c, 1, 63, 0
5, 32220, Note_on_c, 1, 62, 88
5, 32278, Note_off_c, 1, 62, 0
5, 32280, Note_on_c, 1, 60, 88
5, 32338, Note_off_c, 1, 60, 0
5, 32340, Note_on_c, 1, 63, 88
5, 32398, Note_off_c, 1, 63, 0
5, 32400, Note_on_c, 1, 62, 88
5, 32458, Note_off_c, 1, 62, 0
5, 32460, Note_on_c, 1, 60, 88
5, 32518, Note_off_c, 1, 60, 0
5, 32520, Note_on_c, 1, 58, 88
5, 32578, Note_off_c, 1, 58, 0
5, 32580, Note_on_c, 1, 60, 88
5, 32638, Note_off_c, 1, 60, 0
5, 32640, Note_on_c, 1, 57, 88
5, 32698, Note_off_c, 1, 57, 0
5, 32700, Note_on_c, 1, 58, 88
5, 32758, Note_off_c, 1, 58, 0
5, 32760, Note_on_c, 1, 60, 88
5, 32818, Note_off_c, 1, 60, 0
5, 32820, Note_on_c, 1, 62, 88
5, 32878, Note_off_c, 1, 62, 0
5, 32880, Note_on_c, 1, 63, 88
5, 32938, Note_off_c, 1, 63, 0
5, 32940, Note_on_c, 1, 62, 88
5, 32998, Note_off_c, 1, 62, 0
5, 33000, Note_on_c, 1, 60, 88
5, 33058, Note_off_c, 1, 60, 0
5, 33060, Note_on_c, 1, 63, 88
5, 33118, Note_off_c, 1, 63, 0
5, 33120, Note_on_c, 1, 62, 88
5, 33236, Note_off_c, 1, 62, 0
5, 33240, Note_on_c, 1, 70, 88
5, 33341, Note_off_c, 1, 70, 0
5, 33360, Note_on_c, 1, 70, 88
5, 33594, Note_off_c, 1, 70, 0
5, 33600, Note_on_c, 1, 69, 88
5, 33716, Note_off_c, 1, 69, 0
5, 33720, Note_on_c, 1, 63, 88
5, 33836, Note_off_c, 1, 63, 0
5, 33840, Note_on_c, 1, 62, 88
5, 34548, Note_off_c, 1, 62, 0
5, 34548, End_track
6, 0, Start_track
6, 0, Title_t, "Track 3"
6, 0, Program_c, 2, 6
6, 5880, Note_on_c, 2, 53, 88
6, 5996, Note_off_c, 2, 53, 0
6, 6000, Note_on_c, 2, 55, 88
6, 6116, Note_off_c, 2, 55, 0
6, 6120, Note_on_c, 2, 53, 88
6, 6236, Note_off_c, 2, 53, 0
6, 6240, Note_on_c, 2, 58, 88
6, 6356, Note_off_c, 2, 58, 0
6, 6360, Note_on_c, 2, 50, 88
6, 6476, Note_off_c, 2, 50, 0
6, 6480, Note_on_c, 2, 48, 88
6, 6596, Note_off_c, 2, 48, 0
6, 6600, Note_on_c, 2, 57, 88
6, 6658, Note_off_c, 2, 57, 0
6, 6660, Note_on_c, 2, 55, 88
6, 6718, Note_off_c, 2, 55, 0
6, 6720, Note_on_c, 2, 58, 88
6, 6778, Note_off_c, 2, 58, 0
6, 6780, Note_on_c, 2, 57, 88
6, 6838, Note_off_c, 2, 57, 0
6, 6840, Note_on_c, 2, 55, 88
6, 6898, Note_off_c, 2, 55, 0
6, 6900, Note_on_c, 2, 53, 88
6, 6958, Note_off_c, 2, 53, 0
6, 6960, Note_on_c, 2, 60, 88
6, 7076, Note_off_c, 2, 60, 0
6, 7080, Note_on_c, 2, 51, 88
6, 7196, Note_off_c, 2, 51, 0
6, 7200, Note_on_c, 2, 50, 88
6, 7316, Note_off_c, 2, 50, 0
6, 7320, Note_on_c, 2, 58, 88
6, 7378, Note_off_c, 2, 58, 0
6, 7380, Note_on_c, 2, 60, 88
6, 7438, Note_off_c, 2, 60, 0
6, 7440, Note_on_c, 2, 57, 88
6, 7498, Note_off_c, 2, 57, 0
6, 7500, Note_on_c, 2, 58, 88
6, 7558, Note_off_c, 2, 58, 0
6, 7560, Note_on_c, 2, 60, 88
6, 7618, Note_off_c, 2, 60, 0
6, 7620, Note_on_c, 2, 62, 88
6, 7678, Note_off_c, 2, 62, 0
6, 7680, Note_on_c, 2, 63, 88
6, 7738, Note_off_c, 2, 63, 0
6, 7740, Note_on_c, 2, 62, 88
6, 7798, Note_off_c, 2, 62, 0
6, 7800, Note_on_c, 2, 60, 88
6, 7858, Note_off_c, 2, 60, 0
6, 7860, Note_on_c, 2, 63, 88
6, 7918, Note_off_c, 2, 63, 0
6, 7920, Note_on_c, 2, 62, 88
6, 7978, Note_off_c, 2, 62, 0
6, 7980, Note_on_c, 2, 60, 88
6, 8038, Note_off_c, 2, 60, 0
6, 8040, Note_on_c, 2, 58, 88
6, 8098, Note_off_c, 2, 58, 0
6, 8100, Note_on_c, 2, 60, 88
6, 8158, Note_off_c, 2, 60, 0
6, 8160, Note_on_c, 2, 57, 88
6, 8218, Note_off_c, 2, 57, 0
6, 8220, Note_on_c, 2, 58, 88
6, 8278, Note_off_c, 2, 58, 0
6, 8280, Note_on_c, 2, 60, 88
6, 8338, Note_off_c, 2, 60, 0
6, 8340, Note_on_c, 2, 62, 88
6, 8398, Note_off_c, 2, 62, 0
6, 8400, Note_on_c, 2, 63, 88
6, 8458, Note_off_c, 2, 63, 0
6, 8460, Note_on_c, 2, 62, 88
6, 8518, Note_off_c, 2, 62, 0
6, 8520, Note_on_c, 2, 60, 88
6, 8578, Note_off_c, 2, 60, 0
6, 8580, Note_on_c, 2, 63, 88
6, 8638, Note_off_c, 2, 63, 0
6, 8640, Note_on_c, 2, 62, 88
6, 8756, Note_off_c, 2, 62, 0
6, 8760, Note_on_c, 2, 50, 88
6, 8818, Note_off_c, 2, 50, 0
6, 8820, Note_on_c, 2, 48, 88
6, 8878, Note_off_c, 2, 48, 0
6, 8880, Note_on_c, 2, 46, 88
6, 8938, Note_off_c, 2, 46, 0
6, 8940, Note_on_c, 2, 45, 88
6, 8998, Note_off_c, 2, 45, 0
6, 9000, Note_on_c, 2, 46, 88
6, 9058, Note_off_c, 2, 46, 0
6, 9060, Note_on_c, 2, 48, 88
6, 9118, Note_off_c, 2, 48, 0
6, 9120, Note_on_c, 2, 50, 88
6, 9236, Note_off_c, 2, 50, 0
6, 9240, Note_on_c, 2, 53, 88
6, 9476, Note_off_c, 2, 53, 0
6, 9480, Note_on_c, 2, 46, 88
6, 9596, Note_off_c, 2, 46, 0
6, 9600, Note_on_c, 2, 45, 88
6, 9716, Note_off_c, 2, 45, 0
6, 9720, Note_on_c, 2, 46, 88
6, 9836, Note_off_c, 2, 46, 0
6, 9840, Note_on_c, 2, 52, 88
6, 9956, Note_off_c, 2, 52, 0
6, 9960, Note_on_c, 2, 55, 88
6, 10196, Note_off_c, 2, 55, 0
6, 10200, Note_on_c, 2, 45, 88
6, 10258, Note_off_c, 2, 45, 0
6, 10260, Note_on_c, 2, 46, 88
6, 10318, Note_off_c, 2, 46, 0
6, 10320, Note_on_c, 2, 48, 88
6, 10421, Note_off_c, 2, 48, 0
6, 10440, Note_on_c, 2, 48, 88
6, 10541, Note_off_c, 2, 48, 0
6, 10560, Note_on_c, 2, 48, 88
6, 10661, Note_off_c, 2, 48, 0
6, 10680, Note_on_c, 2, 48, 88
6, 10796, Note_off_c, 2, 48, 0
6, 10800, Note_on_c, 2, 48, 88
6, 10858, Note_off_c, 2, 48, 0
6, 10860, Note_on_c, 2, 46, 88
6, 10918, Note_off_c, 2, 46, 0
6, 10920, Note_on_c, 2, 45, 88
6, 10978, Note_off_c, 2, 45, 0
6, 10980, Note_on_c, 2, 46, 88
6, 11038, Note_off_c, 2, 46, 0
6, 11040, Note_on_c, 2, 48, 88
6, 11141, Note_off_c, 2, 48, 0
6, 11160, Note_on_c, 2, 48, 88
6, 11261, Note_off_c, 2, 48, 0
6, 11280, Note_on_c, 2, 48, 88
6, 11381, Note_off_c, 2, 48, 0
6, 11400, Note_on_c, 2, 48, 88
6, 11516, Note_off_c, 2, 48, 0
6, 11520, Note_on_c, 2, 41, 88
6, 11636, Note_off_c, 2, 41, 0
6, 11880, Note_on_c, 2, 54, 88
6, 11938, Note_off_c, 2, 54, 0
6, 11940, Note_on_c, 2, 55, 88
6, 11998, Note_off_c, 2, 55, 0
6, 12000, Note_on_c, 2, 57, 88
6, 12058, Note_off_c, 2, 57, 0
6, 12060, Note_on_c, 2, 55, 88
6, 12118, Note_off_c, 2, 55, 0
6, 12120, Note_on_c, 2, 54, 88
6, 12178, Note_off_c, 2, 54, 0
6, 12180, Note_on_c, 2, 57, 88
6, 12238, Note_off_c, 2, 57, 0
6, 12240, Note_on_c, 2, 55, 88
6, 12356, Note_off_c, 2, 55, 0
6, 12600, Note_on_c, 2, 54, 88
6, 12658, Note_off_c, 2, 54, 0
6, 12660, Note_on_c, 2, 55, 88
6, 12718, Note_off_c, 2, 55, 0
6, 12720, Note_on_c, 2, 57, 88
6, 12778, Note_off_c, 2, 57, 0
6, 12780, Note_on_c, 2, 55, 88
6, 12838, Note_off_c, 2, 55, 0
6, 12840, Note_on_c, 2, 54, 88
6, 12898, Note_off_c, 2, 54, 0
6, 12900, Note_on_c, 2, 57, 88
6, 12958, Note_off_c, 2, 57, 0
6, 12960, Note_on_c, 2, 55, 88
6, 13076, Note_off_c, 2, 55, 0
6, 13080, Note_on_c, 2, 50, 88
6, 13196, Note_off_c, 2, 50, 0
6, 13200, Note_on_c, 2, 48, 88
6, 13316, Note_off_c, 2, 48, 0
6, 13320, Note_on_c, 2, 50, 88
6, 13436, Note_off_c, 2, 50, 0
6, 13440, Note_on_c, 2, 43, 88
6, 13556, Note_off_c, 2, 43, 0
6, 13560, Note_on_c, 2, 51, 88
6, 13676, Note_off_c, 2, 51, 0
6, 13680, Note_on_c, 2, 53, 88
6, 13796, Note_off_c, 2, 53, 0
6, 13800, Note_on_c, 2, 48, 88
6, 13916, Note_off_c, 2, 48, 0
6, 13920, Note_on_c, 2, 46, 88
6, 14036, Note_off_c, 2, 46, 0
6, 14040, Note_on_c, 2, 48, 88
6, 14156, Note_off_c, 2, 48, 0
6, 14160, Note_on_c, 2, 41, 88
6, 14276, Note_off_c, 2, 41, 0
6, 14280, Note_on_c, 2, 50, 88
6, 14396, Note_off_c, 2, 50, 0
6, 14400, Note_on_c, 2, 51, 88
6, 14516, Note_off_c, 2, 51, 0
6, 14520, Note_on_c, 2, 46, 88
6, 14636, Note_off_c, 2, 46, 0
6, 14640, Note_on_c, 2, 45, 88
6, 14756, Note_off_c, 2, 45, 0
6, 14760, Note_on_c, 2, 46, 88
6, 14876, Note_off_c, 2, 46, 0
6, 14880, Note_on_c, 2, 39, 88
6, 14996, Note_off_c, 2, 39, 0
6, 15000, Note_on_c, 2, 48, 88
6, 15116, Note_off_c, 2, 48, 0
6, 15120, Note_on_c, 2, 50, 88
6, 15236, Note_off_c, 2, 50, 0
6, 15660, Note_on_c, 2, 55, 88
6, 15718, Note_off_c, 2, 55, 0
6, 15720, Note_on_c, 2, 51, 88
6, 15778, Note_off_c, 2, 51, 0
6, 15780, Note_on_c, 2, 55, 88
6, 15838, Note_off_c, 2, 55, 0
6, 15840, Note_on_c, 2, 48, 88
6, 15956, Note_off_c, 2, 48, 0
6, 16380, Note_on_c, 2, 57, 88
6, 16438, Note_off_c, 2, 57, 0
6, 16440, Note_on_c, 2, 54, 88
6, 16498, Note_off_c, 2, 54, 0
6, 16500, Note_on_c, 2, 57, 88
6, 16558, Note_off_c, 2, 57, 0
6, 16560, Note_on_c, 2, 50, 88
6, 16676, Note_off_c, 2, 50, 0
6, 16920, Note_on_c, 2, 42, 88
6, 16978, Note_off_c, 2, 42, 0
6, 16980, Note_on_c, 2, 43, 88
6, 17038, Note_off_c, 2, 43, 0
6, 17040, Note_on_c, 2, 45, 88
6, 17098, Note_off_c, 2, 45, 0
6, 17100, Note_on_c, 2, 43, 88
6, 17158, Note_off_c, 2, 43, 0
6, 17160, Note_on_c, 2, 42, 88
6, 17218, Note_off_c, 2, 42, 0
6, 17220, Note_on_c, 2, 45, 88
6, 17278, Note_off_c, 2, 45, 0
6, 17280, Note_on_c, 2, 43, 88
6, 17396, Note_off_c, 2, 43, 0
6, 17640, Note_on_c, 2, 42, 88
6, 17698, Note_off_c, 2, 42, 0
6, 17700, Note_on_c, 2, 43, 88
6, 17758, Note_off_c, 2, 43, 0
6, 17760, Note_on_c, 2, 45, 88
6, 17818, Note_off_c, 2, 45, 0
6, 17820, Note_on_c, 2, 43, 88
6, 17878, Note_off_c, 2, 43, 0
6, 17880, Note_on_c, 2, 42, 88
6, 17938, Note_off_c, 2, 42, 0
6, 17940, Note_on_c, 2, 45, 88
6, 17998, Note_off_c, 2, 45, 0
6, 18000, Note_on_c, 2, 43, 88
6, 18116, Note_off_c, 2, 43, 0
6, 18120, Note_on_c, 2, 55, 88
6, 18236, Note_off_c, 2, 55, 0
6, 18240, Note_on_c, 2, 58, 88
6, 18356, Note_off_c, 2, 58, 0
6, 18360, Note_on_c, 2, 55, 88
6, 18476, Note_off_c, 2, 55, 0
6, 18480, Note_on_c, 2, 60, 88
6, 18596, Note_off_c, 2, 60, 0
6, 18600, Note_on_c, 2, 51, 88
6, 18716, Note_off_c, 2, 51, 0
6, 18720, Note_on_c, 2, 50, 88
6, 18836, Note_off_c, 2, 50, 0
6, 18840, Note_on_c, 2, 59, 88
6, 18898, Note_off_c, 2, 59, 0
6, 18900, Note_on_c, 2, 57, 88
6, 18958, Note_off_c, 2, 57, 0
6, 18960, Note_on_c, 2, 60, 88
6, 19018, Note_off_c, 2, 60, 0
6, 19020, Note_on_c, 2, 59, 88
6, 19078, Note_off_c, 2, 59, 0
6, 19080, Note_on_c, 2, 57, 88
6, 19138, Note_off_c, 2, 57, 0
6, 19140, Note_on_c, 2, 55, 88
6, 19198, Note_off_c, 2, 55, 0
6, 19200, Note_on_c, 2, 62, 88
6, 19316, Note_off_c, 2, 62, 0
6, 19320, Note_on_c, 2, 53, 88
6, 19436, Note_off_c, 2, 53, 0
6, 19440, Note_on_c, 2, 51, 88
6, 19556, Note_off_c, 2, 51, 0
6, 19560, Note_on_c, 2, 60, 88
6, 19618, Note_off_c, 2, 60, 0
6, 19620, Note_on_c, 2, 62, 88
6, 19678, Note_off_c, 2, 62, 0
6, 19680, Note_on_c, 2, 59, 88
6, 19738, Note_off_c, 2, 59, 0
6, 19740, Note_on_c, 2, 60, 88
6, 19798, Note_off_c, 2, 60, 0
6, 19800, Note_on_c, 2, 62, 88
6, 19858, Note_off_c, 2, 62, 0
6, 19860, Note_on_c, 2, 63, 88
6, 19918, Note_off_c, 2, 63, 0
6, 19920, Note_on_c, 2, 65, 88
6, 19978, Note_off_c, 2, 65, 0
6, 19980, Note_on_c, 2, 63, 88
6, 20038, Note_off_c, 2, 63, 0
6, 20040, Note_on_c, 2, 62, 88
6, 20098, Note_off_c, 2, 62, 0
6, 20100, Note_on_c, 2, 65, 88
6, 20158, Note_off_c, 2, 65, 0
6, 20160, Note_on_c, 2, 63, 88
6, 20218, Note_off_c, 2, 63, 0
6, 20220, Note_on_c, 2, 62, 88
6, 20278, Note_off_c, 2, 62, 0
6, 20280, Note_on_c, 2, 60, 88
6, 20338, Note_off_c, 2, 60, 0
6, 20340, Note_on_c, 2, 62, 88
6, 20398, Note_off_c, 2, 62, 0
6, 20400, Note_on_c, 2, 59, 88
6, 20458, Note_off_c, 2, 59, 0
6, 20460, Note_on_c, 2, 60, 88
6, 20518, Note_off_c, 2, 60, 0
6, 20520, Note_on_c, 2, 62, 88
6, 20578, Note_off_c, 2, 62, 0
6, 20580, Note_on_c, 2, 63, 88
6, 20638, Note_off_c, 2, 63, 0
6, 20640, Note_on_c, 2, 65, 88
6, 20698, Note_off_c, 2, 65, 0
6, 20700, Note_on_c, 2, 63, 88
6, 20758, Note_off_c, 2, 63, 0
6, 20760, Note_on_c, 2, 62, 88
6, 20818, Note_off_c, 2, 62, 0
6, 20820, Note_on_c, 2, 65, 88
6, 20878, Note_off_c, 2, 65, 0
6, 20880, Note_on_c, 2, 63, 88
6, 20938, Note_off_c, 2, 63, 0
6, 20940, Note_on_c, 2, 62, 88
6, 20998, Note_off_c, 2, 62, 0
6, 21000, Note_on_c, 2, 60, 88
6, 21058, Note_off_c, 2, 60, 0
6, 21060, Note_on_c, 2, 58, 88
6, 21118, Note_off_c, 2, 58, 0
6, 21120, Note_on_c, 2, 57, 88
6, 21178, Note_off_c, 2, 57, 0
6, 21180, Note_on_c, 2, 58, 88
6, 21238, Note_off_c, 2, 58, 0
6, 21240, Note_on_c, 2, 60, 88
6, 21298, Note_off_c, 2, 60, 0
6, 21300, Note_on_c, 2, 62, 88
6, 21358, Note_off_c, 2, 62, 0
6, 21360, Note_on_c, 2, 63, 88
6, 21418, Note_off_c, 2, 63, 0
6, 21420, Note_on_c, 2, 62, 88
6, 21478, Note_off_c, 2, 62, 0
6, 21480, Note_on_c, 2, 60, 88
6, 21538, Note_off_c, 2, 60, 0
6, 21540, Note_on_c, 2, 63, 88
6, 21598, Note_off_c, 2, 63, 0
6, 21600, Note_on_c, 2, 62, 88
6, 21658, Note_off_c, 2, 62, 0
6, 21660, Note_on_c, 2, 60, 88
6, 21718, Note_off_c, 2, 60, 0
6, 21720, Note_on_c, 2, 58, 88
6, 21778, Note_off_c, 2, 58, 0
6, 21780, Note_on_c, 2, 57, 88
6, 21838, Note_off_c, 2, 57, 0
6, 21840, Note_on_c, 2, 55, 88
6, 21898, Note_off_c, 2, 55, 0
6, 21900, Note_on_c, 2, 57, 88
6, 21958, Note_off_c, 2, 57, 0
6, 21960, Note_on_c, 2, 58, 88
6, 22018, Note_off_c, 2, 58, 0
6, 22020, Note_on_c, 2, 60, 88
6, 22078, Note_off_c, 2, 60, 0
6, 22080, Note_on_c, 2, 62, 88
6, 22138, Note_off_c, 2, 62, 0
6, 22140, Note_on_c, 2, 60, 88
6, 22198, Note_off_c, 2, 60, 0
6, 22200, Note_on_c, 2, 58, 88
6, 22258, Note_off_c, 2, 58, 0
6, 22260, Note_on_c, 2, 62, 88
6, 22318, Note_off_c, 2, 62, 0
6, 22320, Note_on_c, 2, 60, 88
6, 22378, Note_off_c, 2, 60, 0
6, 22380, Note_on_c, 2, 58, 88
6, 22438, Note_off_c, 2, 58, 0
6, 22440, Note_on_c, 2, 57, 88
6, 22498, Note_off_c, 2, 57, 0
6, 22500, Note_on_c, 2, 55, 88
6, 22558, Note_off_c, 2, 55, 0
6, 22560, Note_on_c, 2, 54, 88
6, 22618, Note_off_c, 2, 54, 0
6, 22620, Note_on_c, 2, 55, 88
6, 22678, Note_off_c, 2, 55, 0
6, 22680, Note_on_c, 2, 57, 88
6, 22738, Note_off_c, 2, 57, 0
6, 22740, Note_on_c, 2, 58, 88
6, 22798, Note_off_c, 2, 58, 0
6, 22800, Note_on_c, 2, 60, 88
6, 22858, Note_off_c, 2, 60, 0
6, 22860, Note_on_c, 2, 58, 88
6, 22918, Note_off_c, 2, 58, 0
6, 22920, Note_on_c, 2, 57, 88
6, 22978, Note_off_c, 2, 57, 0
6, 22980, Note_on_c, 2, 60, 88
6, 23038, Note_off_c, 2, 60, 0
6, 23040, Note_on_c, 2, 58, 88
6, 23156, Note_off_c, 2, 58, 0
6, 23160, Note_on_c, 2, 55, 88
6, 23276, Note_off_c, 2, 55, 0
6, 23280, Note_on_c, 2, 53, 88
6, 23396, Note_off_c, 2, 53, 0
6, 23400, Note_on_c, 2, 55, 88
6, 23516, Note_off_c, 2, 55, 0
6, 23520, Note_on_c, 2, 52, 88
6, 23754, Note_off_c, 2, 52, 0
6, 23760, Note_on_c, 2, 50, 88
6, 23876, Note_off_c, 2, 50, 0
6, 23880, Note_on_c, 2, 53, 88
6, 23996, Note_off_c, 2, 53, 0
6, 24000, Note_on_c, 2, 51, 88
6, 24116, Note_off_c, 2, 51, 0
6, 24120, Note_on_c, 2, 53, 88
6, 24236, Note_off_c, 2, 53, 0
6, 24240, Note_on_c, 2, 50, 88
6, 24474, Note_off_c, 2, 50, 0
6, 24480, Note_on_c, 2, 48, 88
6, 24596, Note_off_c, 2, 48, 0
6, 25020, Note_on_c, 2, 48, 88
6, 25078, Note_off_c, 2, 48, 0
6, 25080, Note_on_c, 2, 51, 88
6, 25138, Note_off_c, 2, 51, 0
6, 25140, Note_on_c, 2, 48, 88
6, 25198, Note_off_c, 2, 48, 0
6, 25200, Note_on_c, 2, 53, 88
6, 25316, Note_off_c, 2, 53, 0
6, 25740, Note_on_c, 2, 46, 88
6, 25798, Note_off_c, 2, 46, 0
6, 25800, Note_on_c, 2, 50, 88
6, 25858, Note_off_c, 2, 50, 0
6, 25860, Note_on_c, 2, 46, 88
6, 25918, Note_off_c, 2, 46, 0
6, 25920, Note_on_c, 2, 51, 88
6, 26036, Note_off_c, 2, 51, 0
6, 26460, Note_on_c, 2, 51, 88
6, 26518, Note_off_c, 2, 51, 0
6, 26520, Note_on_c, 2, 55, 88
6, 26578, Note_off_c, 2, 55, 0
6, 26580, Note_on_c, 2, 51, 88
6, 26638, Note_off_c, 2, 51, 0
6, 26640, Note_on_c, 2, 58, 88
6, 26756, Note_off_c, 2, 58, 0
6, 27180, Note_on_c, 2, 58, 88
6, 27238, Note_off_c, 2, 58, 0
6, 27240, Note_on_c, 2, 62, 88
6, 27298, Note_off_c, 2, 62, 0
6, 27300, Note_on_c, 2, 58, 88
6, 27358, Note_off_c, 2, 58, 0
6, 27360, Note_on_c, 2, 63, 88
6, 27476, Note_off_c, 2, 63, 0
6, 27720, Note_on_c, 2, 50, 88
6, 27778, Note_off_c, 2, 50, 0
6, 27780, Note_on_c, 2, 51, 88
6, 27838, Note_off_c, 2, 51, 0
6, 27840, Note_on_c, 2, 53, 88
6, 27898, Note_off_c, 2, 53, 0
6, 27900, Note_on_c, 2, 51, 88
6, 27958, Note_off_c, 2, 51, 0
6, 27960, Note_on_c, 2, 50, 88
6, 28018, Note_off_c, 2, 50, 0
6, 28020, Note_on_c, 2, 53, 88
6, 28078, Note_off_c, 2, 53, 0
6, 28080, Note_on_c, 2, 51, 88
6, 28196, Note_off_c, 2, 51, 0
6, 28440, Note_on_c, 2, 50, 88
6, 28498, Note_off_c, 2, 50, 0
6, 28500, Note_on_c, 2, 51, 88
6, 28558, Note_off_c, 2, 51, 0
6, 28560, Note_on_c, 2, 53, 88
6, 28618, Note_off_c, 2, 53, 0
6, 28620, Note_on_c, 2, 51, 88
6, 28678, Note_off_c, 2, 51, 0
6, 28680, Note_on_c, 2, 50, 88
6, 28738, Note_off_c, 2, 50, 0
6, 28740, Note_on_c, 2, 53, 88
6, 28798, Note_off_c, 2, 53, 0
6, 28800, Note_on_c, 2, 51, 88
6, 28916, Note_off_c, 2, 51, 0
6, 29340, Note_on_c, 2, 51, 88
6, 29398, Note_off_c, 2, 51, 0
6, 29400, Note_on_c, 2, 55, 88
6, 29458, Note_off_c, 2, 55, 0
6, 29460, Note_on_c, 2, 51, 88
6, 29518, Note_off_c, 2, 51, 0
6, 29520, Note_on_c, 2, 53, 88
6, 29636, Note_off_c, 2, 53, 0
6, 30060, Note_on_c, 2, 53, 88
6, 30118, Note_off_c, 2, 53, 0
6, 30120, Note_on_c, 2, 57, 88
6, 30178, Note_off_c, 2, 57, 0
6, 30180, Note_on_c, 2, 53, 88
6, 30238, Note_off_c, 2, 53, 0
6, 30240, Note_on_c, 2, 58, 88
6, 30356, Note_off_c, 2, 58, 0
6, 30600, Note_on_c, 2, 57, 88
6, 30658, Note_off_c, 2, 57, 0
6, 30660, Note_on_c, 2, 58, 88
6, 30718, Note_off_c, 2, 58, 0
6, 30720, Note_on_c, 2, 60, 88
6, 30778, Note_off_c, 2, 60, 0
6, 30780, Note_on_c, 2, 58, 88
6, 30838, Note_off_c, 2, 58, 0
6, 30840, Note_on_c, 2, 57, 88
6, 30898, Note_off_c, 2, 57, 0
6, 30900, Note_on_c, 2, 60, 88
6, 30958, Note_off_c, 2, 60, 0
6, 30960, Note_on_c, 2, 58, 88
6, 31076, Note_off_c, 2, 58, 0
6, 31320, Note_on_c, 2, 57, 88
6, 31378, Note_off_c, 2, 57, 0
6, 31380, Note_on_c, 2, 58, 88
6, 31438, Note_off_c, 2, 58, 0
6, 31440, Note_on_c, 2, 60, 88
6, 31498, Note_off_c, 2, 60, 0
6, 31500, Note_on_c, 2, 58, 88
6, 31558, Note_off_c, 2, 58, 0
6, 31560, Note_on_c, 2, 57, 88
6, 31618, Note_off_c, 2, 57, 0
6, 31620, Note_on_c, 2, 60, 88
6, 31678, Note_off_c, 2, 60, 0
6, 31680, Note_on_c, 2, 58, 88
6, 31738, Note_off_c, 2, 58, 0
6, 31740, Note_on_c, 2, 53, 88
6, 31798, Note_off_c, 2, 53, 0
6, 31800, Note_on_c, 2, 50, 88
6, 31858, Note_off_c, 2, 50, 0
6, 31860, Note_on_c, 2, 51, 88
6, 31918, Note_off_c, 2, 51, 0
6, 31920, Note_on_c, 2, 53, 88
6, 32021, Note_off_c, 2, 53, 0
6, 32040, Note_on_c, 2, 53, 88
6, 32141, Note_off_c, 2, 53, 0
6, 32160, Note_on_c, 2, 53, 88
6, 32261, Note_off_c, 2, 53, 0
6, 32280, Note_on_c, 2, 53, 88
6, 32396, Note_off_c, 2, 53, 0
6, 32400, Note_on_c, 2, 53, 88
6, 32458, Note_off_c, 2, 53, 0
6, 32460, Note_on_c, 2, 51, 88
6, 32518, Note_off_c, 2, 51, 0
6, 32520, Note_on_c, 2, 50, 88
6, 32578, Note_off_c, 2, 50, 0
6, 32580, Note_on_c, 2, 51, 88
6, 32638, Note_off_c, 2, 51, 0
6, 32640, Note_on_c, 2, 53, 88
6, 32741, Note_off_c, 2, 53, 0
6, 32760, Note_on_c, 2, 53, 88
6, 32861, Note_off_c, 2, 53, 0
6, 32880, Note_on_c, 2, 53, 88
6, 32981, Note_off_c, 2, 53, 0
6, 33000, Note_on_c, 2, 53, 88
6, 33116, Note_off_c, 2, 53, 0
6, 33120, Note_on_c, 2, 53, 88
6, 33178, Note_off_c, 2, 53, 0
6, 33180, Note_on_c, 2, 51, 88
6, 33238, Note_off_c, 2, 51, 0
6, 33240, Note_on_c, 2, 50, 88
6, 33298, Note_off_c, 2, 50, 0
6, 33300, Note_on_c, 2, 51, 88
6, 33358, Note_off_c, 2, 51, 0
6, 33360, Note_on_c, 2, 53, 88
6, 33476, Note_off_c, 2, 53, 0
6, 33480, Note_on_c, 2, 51, 88
6, 33596, Note_off_c, 2, 51, 0
6, 33600, Note_on_c, 2, 53, 88
6, 33716, Note_off_c, 2, 53, 0
6, 33720, Note_on_c, 2, 41, 88
6, 33836, Note_off_c, 2, 41, 0
6, 33840, Note_on_c, 2, 46, 88
6, 34548, Note_off_c, 2, 46, 0
6, 34548, End_track
0, 0, End_of_file
