0, 0, Header, 1, 6, 240
1, 0, Start_track
1, 0, Time_signature, 3, 2, 24, 8
1, 0, Tempo, 769230
1, 0, SMPTE_offset, 64, 0, 0, 0, 93
1, 0, End_track
2, 0, Start_track
2, 0, Title_t, "(C) & (P) 1993"
2, 127, End_track
3, 0, Start_track
3, 0, Title_t, "CCARH,Stanford"
3, 0, End_track
4, 0, Start_track
4, 0, Title_t, "Track 1"
4, 0, Program_c, 0, 6
4, 120, Note_on_c, 0, 68, 88
4, 178, Note_off_c, 0, 68, 0
4, 180, Note_on_c, 0, 67, 88
4, 238, Note_off_c, 0, 67, 0
4, 240, Note_on_c, 0, 68, 88
4, 356, Note_off_c, 0, 68, 0
4, 360, Note_on_c, 0, 72, 88
4, 476, Note_off_c, 0, 72, 0
4, 480, Note_on_c, 0, 63, 88
4, 596, Note_off_c, 0, 63, 0
4, 600, Note_on_c, 0, 68, 88
4, 716, Note_off_c, 0, 68, 0
4, 840, Note_on_c, 0, 70, 88
4, 898, Note_off_c, 0, 70, 0
4, 900, Note_on_c, 0, 68, 88
4, 958, Note_off_c, 0, 68, 0
4, 960, Note_on_c, 0, 70, 88
4, 1076, Note_off_c, 0, 70, 0
4, 1080, Note_on_c, 0, 73, 88
4, 1196, Note_off_c, 0, 73, 0
4, 1200, Note_on_c, 0, 63, 88
4, 1316, Note_off_c, 0, 63, 0
4, 1320, Note_on_c, 0, 70, 88
4, 1436, Note_off_c, 0, 70, 0
4, 1440, Note_on_c, 0, 72, 88
4, 1674, Note_off_c, 0, 72, 0
4, 1680, Note_on_c, 0, 80, 88
4, 1914, Note_off_c, 0, 80, 0
4, 2040, Note_on_c, 0, 75, 88
4, 2156, Note_off_c, 0, 75, 0
4, 2160, Note_on_c, 0, 73, 88
4, 2394, Note_off_c, 0, 73, 0
4, 2400, Note_on_c, 0, 79, 88
4, 2634, Note_off_c, 0, 79, 0
4, 2760, Note_on_c, 0, 79, 88
4, 2876, Note_off_c, 0, 79, 0
4, 2880, Note_on_c, 0, 80, 88
4, 3114, Note_off_c, 0, 80, 0
4, 3120, Note_on_c, 0, 75, 88
4, 3354, Note_off_c, 0, 75, 0
4, 3480, Note_on_c, 0, 75, 88
4, 3596, Note_off_c, 0, 75, 0
4, 3600, Note_on_c, 0, 75, 88
4, 3716, Note_off_c, 0, 75, 0
4, 3720, Note_on_c, 0, 80, 88
4, 3778, Note_off_c, 0, 80, 0
4, 3780, Note_on_c, 0, 79, 88
4, 3838, Note_off_c, 0, 79, 0
4, 3840, Note_on_c, 0, 80, 88
4, 3956, Note_off_c, 0, 80, 0
4, 3960, Note_on_c, 0, 77, 88
4, 4076, Note_off_c, 0, 77, 0
4, 4080, Note_on_c, 0, 72, 88
4, 4196, Note_off_c, 0, 72, 0
4, 4200, Note_on_c, 0, 75, 88
4, 4316, Note_off_c, 0, 75, 0
4, 4320, Note_on_c, 0, 73, 88
4, 4554, Note_off_c, 0, 73, 0
4, 4560, Note_on_c, 0, 80, 88
4, 4794, Note_off_c, 0, 80, 0
4, 4920, Note_on_c, 0, 73, 88
4, 5036, Note_off_c, 0, 73, 0
4, 5040, Note_on_c, 0, 73, 88
4, 5156, Note_off_c, 0, 73, 0
4, 5160, Note_on_c, 0, 82, 88
4, 5218, Note_off_c, 0, 82, 0
4, 5220, Note_on_c, 0, 80, 88
4, 5278, Note_off_c, 0, 80, 0
4, 5280, Note_on_c, 0, 82, 88
4, 5396, Note_off_c, 0, 82, 0
4, 5400, Note_on_c, 0, 79, 88
4, 5516, Note_off_c, 0, 79, 0
4, 5520, Note_on_c, 0, 73, 88
4, 5625, Note_off_c, 0, 73, 0
4, 5640, Note_on_c, 0, 73, 88
4, 5640, Note_on_c, 0, 82, 88
4, 5756, Note_off_c, 0, 73, 0
4, 5756, Note_off_c, 0, 82, 0
4, 5760, Note_on_c, 0, 72, 88
4, 5994, Note_off_c, 0, 72, 0
4, 6060, Note_on_c, 0, 75, 88
4, 6118, Note_off_c, 0, 75, 0
4, 6120, Note_on_c, 0, 77, 88
4, 6178, Note_off_c, 0, 77, 0
4, 6180, Note_on_c, 0, 79, 88
4, 6238, Note_off_c, 0, 79, 0
4, 6240, Note_on_c, 0, 80, 88
4, 6298, Note_off_c, 0, 80, 0
4, 6300, Note_on_c, 0, 77, 88
4, 6358, Note_off_c, 0, 77, 0
4, 6360, Note_on_c, 0, 74, 88
4, 6418, Note_off_c, 0, 74, 0
4, 6420, Note_on_c, 0, 77, 88
4, 6478, Note_off_c, 0, 77, 0
4, 6480, Note_on_c, 0, 70, 88
4, 6774, Note_off_c, 0, 70, 0
4, 6780, Note_on_c, 0, 74, 88
4, 6838, Note_off_c, 0, 74, 0
4, 6840, Note_on_c, 0, 75, 88
4, 6898, Note_off_c, 0, 75, 0
4, 6900, Note_on_c, 0, 77, 88
4, 6958, Note_off_c, 0, 77, 0
4, 6960, Note_on_c, 0, 79, 88
4, 7018, Note_off_c, 0, 79, 0
4, 7020, Note_on_c, 0, 75, 88
4, 7078, Note_off_c, 0, 75, 0
4, 7080, Note_on_c, 0, 72, 88
4, 7138, Note_off_c, 0, 72, 0
4, 7140, Note_on_c, 0, 75, 88
4, 7198, Note_off_c, 0, 75, 0
4, 7200, Note_on_c, 0, 68, 88
4, 7258, Note_off_c, 0, 68, 0
4, 7260, Note_on_c, 0, 70, 88
4, 7318, Note_off_c, 0, 70, 0
4, 7320, Note_on_c, 0, 67, 88
4, 7378, Note_off_c, 0, 67, 0
4, 7380, Note_on_c, 0, 70, 88
4, 7438, Note_off_c, 0, 70, 0
4, 7440, Note_on_c, 0, 68, 88
4, 7498, Note_off_c, 0, 68, 0
4, 7500, Note_on_c, 0, 72, 88
4, 7558, Note_off_c, 0, 72, 0
4, 7560, Note_on_c, 0, 74, 88
4, 7618, Note_off_c, 0, 74, 0
4, 7620, Note_on_c, 0, 75, 88
4, 7678, Note_off_c, 0, 75, 0
4, 7680, Note_on_c, 0, 77, 88
4, 7738, Note_off_c, 0, 77, 0
4, 7740, Note_on_c, 0, 74, 88
4, 7798, Note_off_c, 0, 74, 0
4, 7800, Note_on_c, 0, 70, 88
4, 7858, Note_off_c, 0, 70, 0
4, 7860, Note_on_c, 0, 74, 88
4, 7918, Note_off_c, 0, 74, 0
4, 7920, Note_on_c, 0, 67, 88
4, 7978, Note_off_c, 0, 67, 0
4, 7980, Note_on_c, 0, 68, 88
4, 8038, Note_off_c, 0, 68, 0
4, 8040, Note_on_c, 0, 65, 88
4, 8098, Note_off_c, 0, 65, 0
4, 8100, Note_on_c, 0, 68, 88
4, 8158, Note_off_c, 0, 68, 0
4, 8160, Note_on_c, 0, 67, 88
4, 8218, Note_off_c, 0, 67, 0
4, 8220, Note_on_c, 0, 70, 88
4, 8278, Note_off_c, 0, 70, 0
4, 8280, Note_on_c, 0, 72, 88
4, 8338, Note_off_c, 0, 72, 0
4, 8340, Note_on_c, 0, 74, 88
4, 8398, Note_off_c, 0, 74, 0
4, 8400, Note_on_c, 0, 75, 88
4, 8458, Note_off_c, 0, 75, 0
4, 8460, Note_on_c, 0, 72, 88
4, 8518, Note_off_c, 0, 72, 0
4, 8520, Note_on_c, 0, 68, 88
4, 8578, Note_off_c, 0, 68, 0
4, 8580, Note_on_c, 0, 72, 88
4, 8638, Note_off_c, 0, 72, 0
4, 8640, Note_on_c, 0, 65, 88
4, 8698, Note_off_c, 0, 65, 0
4, 8700, Note_on_c, 0, 75, 88
4, 8758, Note_off_c, 0, 75, 0
4, 8760, Note_on_c, 0, 74, 88
4, 8818, Note_off_c, 0, 74, 0
4, 8820, Note_on_c, 0, 75, 88
4, 8878, Note_off_c, 0, 75, 0
4, 8880, Note_on_c, 0, 68, 88
4, 8938, Note_off_c, 0, 68, 0
4, 8940, Note_on_c, 0, 75, 88
4, 8998, Note_off_c, 0, 75, 0
4, 9000, Note_on_c, 0, 74, 88
4, 9058, Note_off_c, 0, 74, 0
4, 9060, Note_on_c, 0, 75, 88
4, 9118, Note_off_c, 0, 75, 0
4, 9120, Note_on_c, 0, 65, 88
4, 9178, Note_off_c, 0, 65, 0
4, 9180, Note_on_c, 0, 75, 88
4, 9238, Note_off_c, 0, 75, 0
4, 9240, Note_on_c, 0, 74, 88
4, 9298, Note_off_c, 0, 74, 0
4, 9300, Note_on_c, 0, 75, 88
4, 9358, Note_off_c, 0, 75, 0
4, 9360, Note_on_c, 0, 67, 88
4, 9418, Note_off_c, 0, 67, 0
4, 9420, Note_on_c, 0, 75, 88
4, 9478, Note_off_c, 0, 75, 0
4, 9480, Note_on_c, 0, 74, 88
4, 9538, Note_off_c, 0, 74, 0
4, 9540, Note_on_c, 0, 75, 88
4, 9598, Note_off_c, 0, 75, 0
4, 9600, Note_on_c, 0, 70, 88
4, 9658, Note_off_c, 0, 70, 0
4, 9660, Note_on_c, 0, 75, 88
4, 9718, Note_off_c, 0, 75, 0
4, 9720, Note_on_c, 0, 74, 88
4, 9778, Note_off_c, 0, 74, 0
4, 9780, Note_on_c, 0, 75, 88
4, 9838, Note_off_c, 0, 75, 0
4, 9840, Note_on_c, 0, 67, 88
4, 9898, Note_off_c, 0, 67, 0
4, 9900, Note_on_c, 0, 75, 88
4, 9958, Note_off_c, 0, 75, 0
4, 9960, Note_on_c, 0, 74, 88
4, 10018, Note_off_c, 0, 74, 0
4, 10020, Note_on_c, 0, 75, 88
4, 10078, Note_off_c, 0, 75, 0
4, 10080, Note_on_c, 0, 68, 88
4, 10138, Note_off_c, 0, 68, 0
4, 10140, Note_on_c, 0, 75, 88
4, 10198, Note_off_c, 0, 75, 0
4, 10200, Note_on_c, 0, 73, 88
4, 10258, Note_off_c, 0, 73, 0
4, 10260, Note_on_c, 0, 75, 88
4, 10318, Note_off_c, 0, 75, 0
4, 10320, Note_on_c, 0, 72, 88
4, 10378, Note_off_c, 0, 72, 0
4, 10380, Note_on_c, 0, 75, 88
4, 10438, Note_off_c, 0, 75, 0
4, 10440, Note_on_c, 0, 70, 88
4, 10498, Note_off_c, 0, 70, 0
4, 10500, Note_on_c, 0, 75, 88
4, 10558, Note_off_c, 0, 75, 0
4, 10560, Note_on_c, 0, 68, 88
4, 10618, Note_off_c, 0, 68, 0
4, 10620, Note_on_c, 0, 75, 88
4, 10678, Note_off_c, 0, 75, 0
4, 10680, Note_on_c, 0, 67, 88
4, 10738, Note_off_c, 0, 67, 0
4, 10740, Note_on_c, 0, 75, 88
4, 10798, Note_off_c, 0, 75, 0
4, 10800, Note_on_c, 0, 65, 88
4, 10858, Note_off_c, 0, 65, 0
4, 10860, Note_on_c, 0, 75, 88
4, 10918, Note_off_c, 0, 75, 0
4, 10920, Note_on_c, 0, 67, 88
4, 10978, Note_off_c, 0, 67, 0
4, 10980, Note_on_c, 0, 75, 88
4, 11038, Note_off_c, 0, 75, 0
4, 11040, Note_on_c, 0, 68, 88
4, 11098, Note_off_c, 0, 68, 0
4, 11100, Note_on_c, 0, 74, 88
4, 11158, Note_off_c, 0, 74, 0
4, 11160, Note_on_c, 0, 75, 88
4, 11218, Note_off_c, 0, 75, 0
4, 11220, Note_on_c, 0, 77, 88
4, 11278, Note_off_c, 0, 77, 0
4, 11280, Note_on_c, 0, 67, 88
4, 11338, Note_off_c, 0, 67, 0
4, 11340, Note_on_c, 0, 70, 88
4, 11398, Note_off_c, 0, 70, 0
4, 11400, Note_on_c, 0, 68, 88
4, 11458, Note_off_c, 0, 68, 0
4, 11460, Note_on_c, 0, 72, 88
4, 11518, Note_off_c, 0, 72, 0
4, 11520, Note_on_c, 0, 70, 88
4, 11578, Note_off_c, 0, 70, 0
4, 11580, Note_on_c, 0, 75, 88
4, 11638, Note_off_c, 0, 75, 0
4, 11640, Note_on_c, 0, 74, 88
4, 11698, Note_off_c, 0, 74, 0
4, 11700, Note_on_c, 0, 72, 88
4, 11758, Note_off_c, 0, 72, 0
4, 11760, Note_on_c, 0, 70, 88
4, 11818, Note_off_c, 0, 70, 0
4, 11820, Note_on_c, 0, 68, 88
4, 11878, Note_off_c, 0, 68, 0
4, 11880, Note_on_c, 0, 70, 88
4, 11938, Note_off_c, 0, 70, 0
4, 11940, Note_on_c, 0, 72, 88
4, 11998, Note_off_c, 0, 72, 0
4, 12000, Note_on_c, 0, 67, 88
4, 12029, Note_off_c, 0, 67, 0
4, 12030, Note_on_c, 0, 65, 88
4, 12052, Note_off_c, 0, 65, 0
4, 12053, Note_on_c, 0, 67, 88
4, 12074, Note_off_c, 0, 67, 0
4, 12075, Note_on_c, 0, 65, 88
4, 12097, Note_off_c, 0, 65, 0
4, 12098, Note_on_c, 0, 67, 88
4, 12119, Note_off_c, 0, 67, 0
4, 12120, Note_on_c, 0, 65, 88
4, 12178, Note_off_c, 0, 65, 0
4, 12180, Note_on_c, 0, 63, 88
4, 12238, Note_off_c, 0, 63, 0
4, 12240, Note_on_c, 0, 63, 88
4, 12474, Note_off_c, 0, 63, 0
4, 12480, Note_on_c, 0, 75, 88
4, 12714, Note_off_c, 0, 75, 0
4, 12840, Note_on_c, 0, 70, 88
4, 12956, Note_off_c, 0, 70, 0
4, 12960, Note_on_c, 0, 68, 88
4, 13194, Note_off_c, 0, 68, 0
4, 13200, Note_on_c, 0, 74, 88
4, 13434, Note_off_c, 0, 74, 0
4, 13560, Note_on_c, 0, 74, 88
4, 13676, Note_off_c, 0, 74, 0
4, 13680, Note_on_c, 0, 75, 88
4, 13796, Note_off_c, 0, 75, 0
4, 13800, Note_on_c, 0, 63, 88
4, 13858, Note_off_c, 0, 63, 0
4, 13860, Note_on_c, 0, 62, 88
4, 13918, Note_off_c, 0, 62, 0
4, 13920, Note_on_c, 0, 63, 88
4, 14036, Note_off_c, 0, 63, 0
4, 14040, Note_on_c, 0, 67, 88
4, 14156, Note_off_c, 0, 67, 0
4, 14160, Note_on_c, 0, 58, 88
4, 14276, Note_off_c, 0, 58, 0
4, 14280, Note_on_c, 0, 63, 88
4, 14396, Note_off_c, 0, 63, 0
4, 14520, Note_on_c, 0, 65, 88
4, 14578, Note_off_c, 0, 65, 0
4, 14580, Note_on_c, 0, 63, 88
4, 14638, Note_off_c, 0, 63, 0
4, 14640, Note_on_c, 0, 65, 88
4, 14756, Note_off_c, 0, 65, 0
4, 14760, Note_on_c, 0, 68, 88
4, 14876, Note_off_c, 0, 68, 0
4, 14880, Note_on_c, 0, 58, 88
4, 14996, Note_off_c, 0, 58, 0
4, 15000, Note_on_c, 0, 65, 88
4, 15116, Note_off_c, 0, 65, 0
4, 15120, Note_on_c, 0, 67, 88
4, 15236, Note_off_c, 0, 67, 0
4, 15240, Note_on_c, 0, 70, 88
4, 15298, Note_off_c, 0, 70, 0
4, 15300, Note_on_c, 0, 68, 88
4, 15358, Note_off_c, 0, 68, 0
4, 15360, Note_on_c, 0, 70, 88
4, 15476, Note_off_c, 0, 70, 0
4, 15480, Note_on_c, 0, 75, 88
4, 15596, Note_off_c, 0, 75, 0
4, 15600, Note_on_c, 0, 67, 88
4, 15716, Note_off_c, 0, 67, 0
4, 15720, Note_on_c, 0, 70, 88
4, 15836, Note_off_c, 0, 70, 0
4, 15840, Note_on_c, 0, 63, 88
4, 15956, Note_off_c, 0, 63, 0
4, 15960, Note_on_c, 0, 67, 88
4, 16018, Note_off_c, 0, 67, 0
4, 16020, Note_on_c, 0, 65, 88
4, 16078, Note_off_c, 0, 65, 0
4, 16080, Note_on_c, 0, 67, 88
4, 16196, Note_off_c, 0, 67, 0
4, 16200, Note_on_c, 0, 70, 88
4, 16316, Note_off_c, 0, 70, 0
4, 16320, Note_on_c, 0, 63, 88
4, 16436, Note_off_c, 0, 63, 0
4, 16440, Note_on_c, 0, 67, 88
4, 16556, Note_off_c, 0, 67, 0
4, 16560, Note_on_c, 0, 60, 88
4, 16676, Note_off_c, 0, 60, 0
4, 16920, Note_on_c, 0, 78, 88
4, 16978, Note_off_c, 0, 78, 0
4, 16980, Note_on_c, 0, 77, 88
4, 17038, Note_off_c, 0, 77, 0
4, 17040, Note_on_c, 0, 75, 88
4, 17098, Note_off_c, 0, 75, 0
4, 17100, Note_on_c, 0, 77, 88
4, 17158, Note_off_c, 0, 77, 0
4, 17160, Note_on_c, 0, 73, 88
4, 17218, Note_off_c, 0, 73, 0
4, 17220, Note_on_c, 0, 75, 88
4, 17278, Note_off_c, 0, 75, 0
4, 17280, Note_on_c, 0, 72, 88
4, 17338, Note_off_c, 0, 72, 0
4, 17340, Note_on_c, 0, 73, 88
4, 17398, Note_off_c, 0, 73, 0
4, 17400, Note_on_c, 0, 70, 88
4, 17458, Note_off_c, 0, 70, 0
4, 17460, Note_on_c, 0, 72, 88
4, 17518, Note_off_c, 0, 72, 0
4, 17520, Note_on_c, 0, 68, 88
4, 17578, Note_off_c, 0, 68, 0
4, 17580, Note_on_c, 0, 70, 88
4, 17638, Note_off_c, 0, 70, 0
4, 17640, Note_on_c, 0, 66, 88
4, 17698, Note_off_c, 0, 66, 0
4, 17700, Note_on_c, 0, 68, 88
4, 17758, Note_off_c, 0, 68, 0
4, 17760, Note_on_c, 0, 65, 88
4, 17818, Note_off_c, 0, 65, 0
4, 17820, Note_on_c, 0, 66, 88
4, 17878, Note_off_c, 0, 66, 0
4, 17880, Note_on_c, 0, 63, 88
4, 17938, Note_off_c, 0, 63, 0
4, 17940, Note_on_c, 0, 65, 88
4, 17998, Note_off_c, 0, 65, 0
4, 18000, Note_on_c, 0, 61, 88
4, 18116, Note_off_c, 0, 61, 0
4, 18120, Note_on_c, 0, 73, 88
4, 18178, Note_off_c, 0, 73, 0
4, 18180, Note_on_c, 0, 72, 88
4, 18238, Note_off_c, 0, 72, 0
4, 18240, Note_on_c, 0, 73, 88
4, 18356, Note_off_c, 0, 73, 0
4, 18360, Note_on_c, 0, 77, 88
4, 18476, Note_off_c, 0, 77, 0
4, 18480, Note_on_c, 0, 70, 88
4, 18596, Note_off_c, 0, 70, 0
4, 18600, Note_on_c, 0, 73, 88
4, 18716, Note_off_c, 0, 73, 0
4, 18720, Note_on_c, 0, 67, 88
4, 18836, Note_off_c, 0, 67, 0
4, 18840, Note_on_c, 0, 72, 88
4, 18898, Note_off_c, 0, 72, 0
4, 18900, Note_on_c, 0, 70, 88
4, 18958, Note_off_c, 0, 70, 0
4, 18960, Note_on_c, 0, 72, 88
4, 19076, Note_off_c, 0, 72, 0
4, 19080, Note_on_c, 0, 75, 88
4, 19196, Note_off_c, 0, 75, 0
4, 19200, Note_on_c, 0, 68, 88
4, 19316, Note_off_c, 0, 68, 0
4, 19320, Note_on_c, 0, 72, 88
4, 19436, Note_off_c, 0, 72, 0
4, 19440, Note_on_c, 0, 65, 88
4, 19556, Note_off_c, 0, 65, 0
4, 19560, Note_on_c, 0, 70, 88
4, 19618, Note_off_c, 0, 70, 0
4, 19620, Note_on_c, 0, 68, 88
4, 19678, Note_off_c, 0, 68, 0
4, 19680, Note_on_c, 0, 70, 88
4, 19796, Note_off_c, 0, 70, 0
4, 19800, Note_on_c, 0, 73, 88
4, 19916, Note_off_c, 0, 73, 0
4, 19920, Note_on_c, 0, 67, 88
4, 20036, Note_off_c, 0, 67, 0
4, 20040, Note_on_c, 0, 70, 88
4, 20156, Note_off_c, 0, 70, 0
4, 20160, Note_on_c, 0, 63, 88
4, 20276, Note_off_c, 0, 63, 0
4, 20280, Note_on_c, 0, 68, 88
4, 20338, Note_off_c, 0, 68, 0
4, 20340, Note_on_c, 0, 67, 88
4, 20398, Note_off_c, 0, 67, 0
4, 20400, Note_on_c, 0, 68, 88
4, 20516, Note_off_c, 0, 68, 0
4, 20520, Note_on_c, 0, 72, 88
4, 20636, Note_off_c, 0, 72, 0
4, 20640, Note_on_c, 0, 65, 88
4, 20756, Note_off_c, 0, 65, 0
4, 20760, Note_on_c, 0, 68, 88
4, 20876, Note_off_c, 0, 68, 0
4, 20880, Note_on_c, 0, 61, 88
4, 20996, Note_off_c, 0, 61, 0
4, 21000, Note_on_c, 0, 70, 88
4, 21058, Note_off_c, 0, 70, 0
4, 21060, Note_on_c, 0, 68, 88
4, 21118, Note_off_c, 0, 68, 0
4, 21120, Note_on_c, 0, 70, 88
4, 21236, Note_off_c, 0, 70, 0
4, 21240, Note_on_c, 0, 73, 88
4, 21356, Note_off_c, 0, 73, 0
4, 21360, Note_on_c, 0, 67, 88
4, 21476, Note_off_c, 0, 67, 0
4, 21480, Note_on_c, 0, 70, 88
4, 21596, Note_off_c, 0, 70, 0
4, 21600, Note_on_c, 0, 63, 88
4, 21716, Note_off_c, 0, 63, 0
4, 21720, Note_on_c, 0, 72, 88
4, 21778, Note_off_c, 0, 72, 0
4, 21780, Note_on_c, 0, 70, 88
4, 21838, Note_off_c, 0, 70, 0
4, 21840, Note_on_c, 0, 72, 88
4, 21956, Note_off_c, 0, 72, 0
4, 21960, Note_on_c, 0, 75, 88
4, 22076, Note_off_c, 0, 75, 0
4, 22080, Note_on_c, 0, 68, 88
4, 22196, Note_off_c, 0, 68, 0
4, 22200, Note_on_c, 0, 72, 88
4, 22316, Note_off_c, 0, 72, 0
4, 22320, Note_on_c, 0, 65, 88
4, 22436, Note_off_c, 0, 65, 0
4, 22440, Note_on_c, 0, 73, 88
4, 22498, Note_off_c, 0, 73, 0
4, 22500, Note_on_c, 0, 72, 88
4, 22558, Note_off_c, 0, 72, 0
4, 22560, Note_on_c, 0, 73, 88
4, 22676, Note_off_c, 0, 73, 0
4, 22680, Note_on_c, 0, 77, 88
4, 22796, Note_off_c, 0, 77, 0
4, 22800, Note_on_c, 0, 70, 88
4, 22916, Note_off_c, 0, 70, 0
4, 22920, Note_on_c, 0, 73, 88
4, 23036, Note_off_c, 0, 73, 0
4, 23040, Note_on_c, 0, 67, 88
4, 23156, Note_off_c, 0, 67, 0
4, 23160, Note_on_c, 0, 70, 88
4, 23276, Note_off_c, 0, 70, 0
4, 23280, Note_on_c, 0, 63, 88
4, 23396, Note_off_c, 0, 63, 0
4, 23400, Note_on_c, 0, 67, 88
4, 23516, Note_off_c, 0, 67, 0
4, 23520, Note_on_c, 0, 68, 88
4, 23818, Note_off_c, 0, 68, 0
4, 23820, Note_on_c, 0, 67, 88
4, 23878, Note_off_c, 0, 67, 0
4, 23880, Note_on_c, 0, 68, 88
4, 23938, Note_off_c, 0, 68, 0
4, 23940, Note_on_c, 0, 70, 88
4, 23998, Note_off_c, 0, 70, 0
4, 24000, Note_on_c, 0, 72, 88
4, 24022, Note_off_c, 0, 72, 0
4, 24023, Note_on_c, 0, 70, 88
4, 24044, Note_off_c, 0, 70, 0
4, 24045, Note_on_c, 0, 72, 88
4, 24067, Note_off_c, 0, 72, 0
4, 24068, Note_on_c, 0, 70, 88
4, 24089, Note_off_c, 0, 70, 0
4, 24090, Note_on_c, 0, 72, 88
4, 24112, Note_off_c, 0, 72, 0
4, 24113, Note_on_c, 0, 70, 88
4, 24134, Note_off_c, 0, 70, 0
4, 24135, Note_on_c, 0, 72, 88
4, 24157, Note_off_c, 0, 72, 0
4, 24158, Note_on_c, 0, 70, 88
4, 24179, Note_off_c, 0, 70, 0
4, 24180, Note_on_c, 0, 72, 88
4, 24202, Note_off_c, 0, 72, 0
4, 24203, Note_on_c, 0, 70, 88
4, 24224, Note_off_c, 0, 70, 0
4, 24225, Note_on_c, 0, 72, 88
4, 24240, Note_on_c, 0, 70, 88
4, 24240, Note_off_c, 0, 72, 0
4, 24356, Note_off_c, 0, 70, 0
4, 24360, Note_on_c, 0, 68, 88
4, 24476, Note_off_c, 0, 68, 0
4, 24480, Note_on_c, 0, 68, 88
4, 24596, Note_off_c, 0, 68, 0
4, 24600, Note_on_c, 0, 75, 88
4, 24658, Note_off_c, 0, 75, 0
4, 24660, Note_on_c, 0, 73, 88
4, 24718, Note_off_c, 0, 73, 0
4, 24720, Note_on_c, 0, 75, 88
4, 24836, Note_off_c, 0, 75, 0
4, 24840, Note_on_c, 0, 72, 88
4, 24956, Note_off_c, 0, 72, 0
4, 24960, Note_on_c, 0, 67, 88
4, 25076, Note_off_c, 0, 67, 0
4, 25080, Note_on_c, 0, 70, 88
4, 25196, Note_off_c, 0, 70, 0
4, 25200, Note_on_c, 0, 70, 88
4, 25251, Note_off_c, 0, 70, 0
4, 25253, Note_on_c, 0, 68, 88
4, 25274, Note_off_c, 0, 68, 0
4, 25275, Note_on_c, 0, 70, 88
4, 25290, Note_on_c, 0, 68, 88
4, 25290, Note_off_c, 0, 70, 0
4, 25305, Note_off_c, 0, 68, 0
4, 25305, Note_on_c, 0, 70, 88
4, 25320, Note_on_c, 0, 68, 88
4, 25320, Note_off_c, 0, 70, 0
4, 25436, Note_off_c, 0, 68, 0
4, 25440, Note_on_c, 0, 75, 88
4, 25734, Note_off_c, 0, 75, 0
4, 25740, Note_on_c, 0, 66, 88
4, 25798, Note_off_c, 0, 66, 0
4, 25800, Note_on_c, 0, 65, 88
4, 25858, Note_off_c, 0, 65, 0
4, 25860, Note_on_c, 0, 63, 88
4, 25918, Note_off_c, 0, 63, 0
4, 25920, Note_on_c, 0, 61, 88
4, 26036, Note_off_c, 0, 61, 0
4, 26040, Note_on_c, 0, 73, 88
4, 26098, Note_off_c, 0, 73, 0
4, 26100, Note_on_c, 0, 72, 88
4, 26158, Note_off_c, 0, 72, 0
4, 26160, Note_on_c, 0, 73, 88
4, 26276, Note_off_c, 0, 73, 0
4, 26280, Note_on_c, 0, 70, 88
4, 26396, Note_off_c, 0, 70, 0
4, 26400, Note_on_c, 0, 65, 88
4, 26516, Note_off_c, 0, 65, 0
4, 26520, Note_on_c, 0, 68, 88
4, 26636, Note_off_c, 0, 68, 0
4, 26640, Note_on_c, 0, 68, 88
4, 26691, Note_off_c, 0, 68, 0
4, 26693, Note_on_c, 0, 67, 88
4, 26714, Note_off_c, 0, 67, 0
4, 26715, Note_on_c, 0, 68, 88
4, 26730, Note_on_c, 0, 67, 88
4, 26730, Note_off_c, 0, 68, 0
4, 26745, Note_off_c, 0, 67, 0
4, 26745, Note_on_c, 0, 68, 88
4, 26760, Note_on_c, 0, 67, 88
4, 26760, Note_off_c, 0, 68, 0
4, 26876, Note_off_c, 0, 67, 0
4, 26880, Note_on_c, 0, 73, 88
4, 27174, Note_off_c, 0, 73, 0
4, 27180, Note_on_c, 0, 65, 88
4, 27238, Note_off_c, 0, 65, 0
4, 27240, Note_on_c, 0, 63, 88
4, 27298, Note_off_c, 0, 63, 0
4, 27300, Note_on_c, 0, 61, 88
4, 27358, Note_off_c, 0, 61, 0
4, 27360, Note_on_c, 0, 60, 88
4, 27418, Note_off_c, 0, 60, 0
4, 27420, Note_on_c, 0, 72, 88
4, 27478, Note_off_c, 0, 72, 0
4, 27480, Note_on_c, 0, 70, 88
4, 27538, Note_off_c, 0, 70, 0
4, 27540, Note_on_c, 0, 72, 88
4, 27598, Note_off_c, 0, 72, 0
4, 27600, Note_on_c, 0, 68, 88
4, 27658, Note_off_c, 0, 68, 0
4, 27660, Note_on_c, 0, 72, 88
4, 27718, Note_off_c, 0, 72, 0
4, 27720, Note_on_c, 0, 67, 88
4, 27778, Note_off_c, 0, 67, 0
4, 27780, Note_on_c, 0, 72, 88
4, 27838, Note_off_c, 0, 72, 0
4, 27840, Note_on_c, 0, 65, 88
4, 27898, Note_off_c, 0, 65, 0
4, 27900, Note_on_c, 0, 72, 88
4, 27958, Note_off_c, 0, 72, 0
4, 27960, Note_on_c, 0, 63, 88
4, 28018, Note_off_c, 0, 63, 0
4, 28020, Note_on_c, 0, 72, 88
4, 28078, Note_off_c, 0, 72, 0
4, 28080, Note_on_c, 0, 61, 88
4, 28138, Note_off_c, 0, 61, 0
4, 28140, Note_on_c, 0, 73, 88
4, 28198, Note_off_c, 0, 73, 0
4, 28200, Note_on_c, 0, 72, 88
4, 28258, Note_off_c, 0, 72, 0
4, 28260, Note_on_c, 0, 73, 88
4, 28318, Note_off_c, 0, 73, 0
4, 28320, Note_on_c, 0, 70, 88
4, 28378, Note_off_c, 0, 70, 0
4, 28380, Note_on_c, 0, 73, 88
4, 28438, Note_off_c, 0, 73, 0
4, 28440, Note_on_c, 0, 68, 88
4, 28498, Note_off_c, 0, 68, 0
4, 28500, Note_on_c, 0, 73, 88
4, 28558, Note_off_c, 0, 73, 0
4, 28560, Note_on_c, 0, 67, 88
4, 28618, Note_off_c, 0, 67, 0
4, 28620, Note_on_c, 0, 73, 88
4, 28678, Note_off_c, 0, 73, 0
4, 28680, Note_on_c, 0, 65, 88
4, 28738, Note_off_c, 0, 65, 0
4, 28740, Note_on_c, 0, 73, 88
4, 28798, Note_off_c, 0, 73, 0
4, 28800, Note_on_c, 0, 63, 88
4, 28916, Note_off_c, 0, 63, 0
4, 28920, Note_on_c, 0, 70, 88
4, 28935, Note_on_c, 0, 68, 88
4, 28935, Note_off_c, 0, 70, 0
4, 28950, Note_off_c, 0, 68, 0
4, 28950, Note_on_c, 0, 70, 88
4, 28965, Note_on_c, 0, 68, 88
4, 28965, Note_off_c, 0, 70, 0
4, 28980, Note_on_c, 0, 67, 88
4, 28980, Note_off_c, 0, 68, 0
4, 29038, Note_off_c, 0, 67, 0
4, 29040, Note_on_c, 0, 68, 88
4, 29156, Note_off_c, 0, 68, 0
4, 29160, Note_on_c, 0, 72, 88
4, 29276, Note_off_c, 0, 72, 0
4, 29280, Note_on_c, 0, 65, 88
4, 29396, Note_off_c, 0, 65, 0
4, 29400, Note_on_c, 0, 68, 88
4, 29516, Note_off_c, 0, 68, 0
4, 29520, Note_on_c, 0, 73, 88
4, 29636, Note_off_c, 0, 73, 0
4, 29640, Note_on_c, 0, 68, 88
4, 29655, Note_on_c, 0, 67, 88
4, 29655, Note_off_c, 0, 68, 0
4, 29670, Note_off_c, 0, 67, 0
4, 29670, Note_on_c, 0, 68, 88
4, 29685, Note_on_c, 0, 67, 88
4, 29685, Note_off_c, 0, 68, 0
4, 29700, Note_on_c, 0, 65, 88
4, 29700, Note_off_c, 0, 67, 0
4, 29758, Note_off_c, 0, 65, 0
4, 29760, Note_on_c, 0, 67, 88
4, 29876, Note_off_c, 0, 67, 0
4, 29880, Note_on_c, 0, 70, 88
4, 29996, Note_off_c, 0, 70, 0
4, 30000, Note_on_c, 0, 63, 88
4, 30116, Note_off_c, 0, 63, 0
4, 30120, Note_on_c, 0, 67, 88
4, 30236, Note_off_c, 0, 67, 0
4, 30240, Note_on_c, 0, 72, 88
4, 30356, Note_off_c, 0, 72, 0
4, 30360, Note_on_c, 0, 68, 88
4, 30465, Note_off_c, 0, 68, 0
4, 30480, Note_on_c, 0, 68, 88
4, 30705, Note_off_c, 0, 68, 0
4, 30720, Note_on_c, 0, 68, 88
4, 30735, Note_on_c, 0, 67, 88
4, 30735, Note_off_c, 0, 68, 0
4, 30757, Note_off_c, 0, 67, 0
4, 30758, Note_on_c, 0, 68, 88
4, 30779, Note_off_c, 0, 68, 0
4, 30780, Note_on_c, 0, 67, 88
4, 30795, Note_off_c, 0, 67, 0
4, 30795, Note_on_c, 0, 68, 88
4, 30810, Note_on_c, 0, 67, 88
4, 30810, Note_off_c, 0, 68, 0
4, 30825, Note_off_c, 0, 67, 0
4, 30825, Note_on_c, 0, 68, 88
4, 30840, Note_on_c, 0, 67, 88
4, 30840, Note_off_c, 0, 68, 0
4, 30956, Note_off_c, 0, 67, 0
4, 30960, Note_on_c, 0, 68, 88
4, 31668, Note_off_c, 0, 68, 0
4, 31668, End_track
5, 0, Start_track
5, 0, Title_t, "Track 2"
5, 0, Program_c, 1, 6
5, 1680, Note_on_c, 1, 72, 88
5, 1680, Note_on_c, 1, 75, 88
5, 1914, Note_off_c, 1, 72, 0
5, 1914, Note_off_c, 1, 75, 0
5, 2040, Note_on_c, 1, 72, 88
5, 2156, Note_off_c, 1, 72, 0
5, 2160, Note_on_c, 1, 70, 88
5, 2394, Note_off_c, 1, 70, 0
5, 2760, Note_on_c, 1, 70, 88
5, 2760, Note_on_c, 1, 73, 88
5, 2876, Note_off_c, 1, 70, 0
5, 2876, Note_off_c, 1, 73, 0
5, 2880, Note_on_c, 1, 68, 88
5, 2880, Note_on_c, 1, 75, 88
5, 3114, Note_off_c, 1, 68, 0
5, 3114, Note_off_c, 1, 75, 0
5, 3480, Note_on_c, 1, 70, 88
5, 3596, Note_off_c, 1, 70, 0
5, 3600, Note_on_c, 1, 68, 88
5, 3834, Note_off_c, 1, 68, 0
5, 4320, Note_on_c, 1, 70, 88
5, 4554, Note_off_c, 1, 70, 0
5, 4920, Note_on_c, 1, 68, 88
5, 5036, Note_off_c, 1, 68, 0
5, 5040, Note_on_c, 1, 67, 88
5, 5274, Note_off_c, 1, 67, 0
5, 5640, Note_on_c, 1, 67, 88
5, 5756, Note_off_c, 1, 67, 0
5, 5760, Note_on_c, 1, 68, 88
5, 5994, Note_off_c, 1, 68, 0
5, 12000, Note_on_c, 1, 62, 88
5, 12234, Note_off_c, 1, 62, 0
5, 12240, Note_on_c, 1, 63, 88
5, 12474, Note_off_c, 1, 63, 0
5, 12480, Note_on_c, 1, 67, 88
5, 12480, Note_on_c, 1, 70, 88
5, 12714, Note_off_c, 1, 67, 0
5, 12714, Note_off_c, 1, 70, 0
5, 12840, Note_on_c, 1, 67, 88
5, 12956, Note_off_c, 1, 67, 0
5, 12960, Note_on_c, 1, 65, 88
5, 13194, Note_off_c, 1, 65, 0
5, 13560, Note_on_c, 1, 65, 88
5, 13560, Note_on_c, 1, 68, 88
5, 13676, Note_off_c, 1, 65, 0
5, 13676, Note_off_c, 1, 68, 0
5, 13680, Note_on_c, 1, 63, 88
5, 13680, Note_on_c, 1, 67, 88
5, 13680, Note_on_c, 1, 70, 88
5, 13796, Note_off_c, 1, 63, 0
5, 13796, Note_off_c, 1, 67, 0
5, 13796, Note_off_c, 1, 70, 0
5, 24000, Note_on_c, 1, 67, 88
5, 24470, Note_off_c, 1, 67, 0
5, 24480, Note_on_c, 1, 68, 88
5, 24714, Note_off_c, 1, 68, 0
5, 25200, Note_on_c, 1, 65, 88
5, 25434, Note_off_c, 1, 65, 0
5, 26640, Note_on_c, 1, 63, 88
5, 26874, Note_off_c, 1, 63, 0
5, 30360, Note_on_c, 1, 61, 88
5, 30360, Note_on_c, 1, 65, 88
5, 30476, Note_off_c, 1, 61, 0
5, 30476, Note_off_c, 1, 65, 0
5, 30480, Note_on_c, 1, 58, 88
5, 30480, Note_on_c, 1, 63, 88
5, 30950, Note_off_c, 1, 58, 0
5, 30950, Note_off_c, 1, 63, 0
5, 30960, Note_on_c, 1, 60, 88
5, 30960, Note_on_c, 1, 63, 88
5, 31668, Note_off_c, 1, 60, 0
5, 31668, Note_off_c, 1, 63, 0
5, 31668, End_track
6, 0, Start_track
6, 0, Title_t, "Track 3"
6, 0, Program_c, 2, 6
6, 0, Note_on_c, 2, 56, 88
6, 0, Note_on_c, 2, 60, 88
6, 0, Note_on_c, 2, 63, 88
6, 234, Note_off_c, 2, 56, 0
6, 234, Note_off_c, 2, 60, 0
6, 234, Note_off_c, 2, 63, 0
6, 720, Note_on_c, 2, 55, 88
6, 720, Note_on_c, 2, 58, 88
6, 720, Note_on_c, 2, 63, 88
6, 954, Note_off_c, 2, 55, 0
6, 954, Note_off_c, 2, 58, 0
6, 954, Note_off_c, 2, 63, 0
6, 1560, Note_on_c, 2, 56, 88
6, 1618, Note_off_c, 2, 56, 0
6, 1620, Note_on_c, 2, 55, 88
6, 1678, Note_off_c, 2, 55, 0
6, 1680, Note_on_c, 2, 56, 88
6, 1796, Note_off_c, 2, 56, 0
6, 1800, Note_on_c, 2, 60, 88
6, 1916, Note_off_c, 2, 60, 0
6, 1920, Note_on_c, 2, 51, 88
6, 2036, Note_off_c, 2, 51, 0
6, 2040, Note_on_c, 2, 56, 88
6, 2156, Note_off_c, 2, 56, 0
6, 2280, Note_on_c, 2, 58, 88
6, 2338, Note_off_c, 2, 58, 0
6, 2340, Note_on_c, 2, 56, 88
6, 2398, Note_off_c, 2, 56, 0
6, 2400, Note_on_c, 2, 58, 88
6, 2516, Note_off_c, 2, 58, 0
6, 2520, Note_on_c, 2, 61, 88
6, 2636, Note_off_c, 2, 61, 0
6, 2640, Note_on_c, 2, 51, 88
6, 2756, Note_off_c, 2, 51, 0
6, 2760, Note_on_c, 2, 58, 88
6, 2876, Note_off_c, 2, 58, 0
6, 3000, Note_on_c, 2, 60, 88
6, 3058, Note_off_c, 2, 60, 0
6, 3060, Note_on_c, 2, 58, 88
6, 3118, Note_off_c, 2, 58, 0
6, 3120, Note_on_c, 2, 60, 88
6, 3236, Note_off_c, 2, 60, 0
6, 3240, Note_on_c, 2, 63, 88
6, 3356, Note_off_c, 2, 63, 0
6, 3360, Note_on_c, 2, 56, 88
6, 3476, Note_off_c, 2, 56, 0
6, 3480, Note_on_c, 2, 60, 88
6, 3596, Note_off_c, 2, 60, 0
6, 3600, Note_on_c, 2, 53, 88
6, 3834, Note_off_c, 2, 53, 0
6, 3840, Note_on_c, 2, 65, 88
6, 4074, Note_off_c, 2, 65, 0
6, 4440, Note_on_c, 2, 58, 88
6, 4498, Note_off_c, 2, 58, 0
6, 4500, Note_on_c, 2, 56, 88
6, 4558, Note_off_c, 2, 56, 0
6, 4560, Note_on_c, 2, 58, 88
6, 4676, Note_off_c, 2, 58, 0
6, 4680, Note_on_c, 2, 61, 88
6, 4796, Note_off_c, 2, 61, 0
6, 4800, Note_on_c, 2, 55, 88
6, 4916, Note_off_c, 2, 55, 0
6, 4920, Note_on_c, 2, 58, 88
6, 5036, Note_off_c, 2, 58, 0
6, 5040, Note_on_c, 2, 51, 88
6, 5274, Note_off_c, 2, 51, 0
6, 5280, Note_on_c, 2, 63, 88
6, 5514, Note_off_c, 2, 63, 0
6, 5880, Note_on_c, 2, 56, 88
6, 5938, Note_off_c, 2, 56, 0
6, 5940, Note_on_c, 2, 55, 88
6, 5998, Note_off_c, 2, 55, 0
6, 6000, Note_on_c, 2, 56, 88
6, 6116, Note_off_c, 2, 56, 0
6, 6120, Note_on_c, 2, 60, 88
6, 6236, Note_off_c, 2, 60, 0
6, 6240, Note_on_c, 2, 53, 88
6, 6356, Note_off_c, 2, 53, 0
6, 6360, Note_on_c, 2, 56, 88
6, 6476, Note_off_c, 2, 56, 0
6, 6480, Note_on_c, 2, 50, 88
6, 6596, Note_off_c, 2, 50, 0
6, 6600, Note_on_c, 2, 55, 88
6, 6658, Note_off_c, 2, 55, 0
6, 6660, Note_on_c, 2, 53, 88
6, 6718, Note_off_c, 2, 53, 0
6, 6720, Note_on_c, 2, 55, 88
6, 6836, Note_off_c, 2, 55, 0
6, 6840, Note_on_c, 2, 58, 88
6, 6956, Note_off_c, 2, 58, 0
6, 6960, Note_on_c, 2, 51, 88
6, 7076, Note_off_c, 2, 51, 0
6, 7080, Note_on_c, 2, 55, 88
6, 7196, Note_off_c, 2, 55, 0
6, 7200, Note_on_c, 2, 48, 88
6, 7316, Note_off_c, 2, 48, 0
6, 7320, Note_on_c, 2, 53, 88
6, 7378, Note_off_c, 2, 53, 0
6, 7380, Note_on_c, 2, 51, 88
6, 7438, Note_off_c, 2, 51, 0
6, 7440, Note_on_c, 2, 53, 88
6, 7556, Note_off_c, 2, 53, 0
6, 7560, Note_on_c, 2, 56, 88
6, 7676, Note_off_c, 2, 56, 0
6, 7680, Note_on_c, 2, 50, 88
6, 7796, Note_off_c, 2, 50, 0
6, 7800, Note_on_c, 2, 53, 88
6, 7916, Note_off_c, 2, 53, 0
6, 7920, Note_on_c, 2, 46, 88
6, 8036, Note_off_c, 2, 46, 0
6, 8040, Note_on_c, 2, 51, 88
6, 8098, Note_off_c, 2, 51, 0
6, 8100, Note_on_c, 2, 50, 88
6, 8158, Note_off_c, 2, 50, 0
6, 8160, Note_on_c, 2, 51, 88
6, 8276, Note_off_c, 2, 51, 0
6, 8280, Note_on_c, 2, 55, 88
6, 8396, Note_off_c, 2, 55, 0
6, 8400, Note_on_c, 2, 48, 88
6, 8516, Note_off_c, 2, 48, 0
6, 8520, Note_on_c, 2, 51, 88
6, 8636, Note_off_c, 2, 51, 0
6, 8640, Note_on_c, 2, 44, 88
6, 8756, Note_off_c, 2, 44, 0
6, 8760, Note_on_c, 2, 53, 88
6, 8818, Note_off_c, 2, 53, 0
6, 8820, Note_on_c, 2, 51, 88
6, 8878, Note_off_c, 2, 51, 0
6, 8880, Note_on_c, 2, 53, 88
6, 8996, Note_off_c, 2, 53, 0
6, 9000, Note_on_c, 2, 56, 88
6, 9116, Note_off_c, 2, 56, 0
6, 9120, Note_on_c, 2, 50, 88
6, 9236, Note_off_c, 2, 50, 0
6, 9240, Note_on_c, 2, 53, 88
6, 9356, Note_off_c, 2, 53, 0
6, 9360, Note_on_c, 2, 46, 88
6, 9476, Note_off_c, 2, 46, 0
6, 9480, Note_on_c, 2, 55, 88
6, 9538, Note_off_c, 2, 55, 0
6, 9540, Note_on_c, 2, 53, 88
6, 9598, Note_off_c, 2, 53, 0
6, 9600, Note_on_c, 2, 55, 88
6, 9716, Note_off_c, 2, 55, 0
6, 9720, Note_on_c, 2, 58, 88
6, 9836, Note_off_c, 2, 58, 0
6, 9840, Note_on_c, 2, 51, 88
6, 9956, Note_off_c, 2, 51, 0
6, 9960, Note_on_c, 2, 55, 88
6, 10076, Note_off_c, 2, 55, 0
6, 10080, Note_on_c, 2, 48, 88
6, 10196, Note_off_c, 2, 48, 0
6, 10200, Note_on_c, 2, 56, 88
6, 10258, Note_off_c, 2, 56, 0
6, 10260, Note_on_c, 2, 55, 88
6, 10318, Note_off_c, 2, 55, 0
6, 10320, Note_on_c, 2, 56, 88
6, 10436, Note_off_c, 2, 56, 0
6, 10440, Note_on_c, 2, 60, 88
6, 10556, Note_off_c, 2, 60, 0
6, 10560, Note_on_c, 2, 53, 88
6, 10676, Note_off_c, 2, 53, 0
6, 10680, Note_on_c, 2, 56, 88
6, 10796, Note_off_c, 2, 56, 0
6, 10800, Note_on_c, 2, 50, 88
6, 10916, Note_off_c, 2, 50, 0
6, 10920, Note_on_c, 2, 53, 88
6, 11036, Note_off_c, 2, 53, 0
6, 11040, Note_on_c, 2, 46, 88
6, 11156, Note_off_c, 2, 46, 0
6, 11160, Note_on_c, 2, 50, 88
6, 11276, Note_off_c, 2, 50, 0
6, 11280, Note_on_c, 2, 51, 88
6, 11396, Note_off_c, 2, 51, 0
6, 11400, Note_on_c, 2, 48, 88
6, 11516, Note_off_c, 2, 48, 0
6, 11520, Note_on_c, 2, 43, 88
6, 11636, Note_off_c, 2, 43, 0
6, 11640, Note_on_c, 2, 41, 88
6, 11756, Note_off_c, 2, 41, 0
6, 11760, Note_on_c, 2, 43, 88
6, 11876, Note_off_c, 2, 43, 0
6, 11880, Note_on_c, 2, 44, 88
6, 11996, Note_off_c, 2, 44, 0
6, 12000, Note_on_c, 2, 46, 88
6, 12234, Note_off_c, 2, 46, 0
6, 12360, Note_on_c, 2, 51, 88
6, 12418, Note_off_c, 2, 51, 0
6, 12420, Note_on_c, 2, 50, 88
6, 12478, Note_off_c, 2, 50, 0
6, 12480, Note_on_c, 2, 51, 88
6, 12596, Note_off_c, 2, 51, 0
6, 12600, Note_on_c, 2, 55, 88
6, 12716, Note_off_c, 2, 55, 0
6, 12720, Note_on_c, 2, 46, 88
6, 12836, Note_off_c, 2, 46, 0
6, 12840, Note_on_c, 2, 51, 88
6, 12956, Note_off_c, 2, 51, 0
6, 13080, Note_on_c, 2, 53, 88
6, 13138, Note_off_c, 2, 53, 0
6, 13140, Note_on_c, 2, 51, 88
6, 13198, Note_off_c, 2, 51, 0
6, 13200, Note_on_c, 2, 53, 88
6, 13316, Note_off_c, 2, 53, 0
6, 13320, Note_on_c, 2, 56, 88
6, 13436, Note_off_c, 2, 56, 0
6, 13440, Note_on_c, 2, 46, 88
6, 13556, Note_off_c, 2, 46, 0
6, 13560, Note_on_c, 2, 53, 88
6, 13676, Note_off_c, 2, 53, 0
6, 13680, Note_on_c, 2, 55, 88
6, 13914, Note_off_c, 2, 55, 0
6, 14040, Note_on_c, 2, 51, 88
6, 14098, Note_off_c, 2, 51, 0
6, 14100, Note_on_c, 2, 53, 88
6, 14158, Note_off_c, 2, 53, 0
6, 14160, Note_on_c, 2, 55, 88
6, 14218, Note_off_c, 2, 55, 0
6, 14220, Note_on_c, 2, 53, 88
6, 14278, Note_off_c, 2, 53, 0
6, 14280, Note_on_c, 2, 55, 88
6, 14338, Note_off_c, 2, 55, 0
6, 14340, Note_on_c, 2, 51, 88
6, 14398, Note_off_c, 2, 51, 0
6, 14400, Note_on_c, 2, 58, 88
6, 14516, Note_off_c, 2, 58, 0
6, 14520, Note_on_c, 2, 46, 88
6, 14636, Note_off_c, 2, 46, 0
6, 14760, Note_on_c, 2, 46, 88
6, 14818, Note_off_c, 2, 46, 0
6, 14820, Note_on_c, 2, 48, 88
6, 14878, Note_off_c, 2, 48, 0
6, 14880, Note_on_c, 2, 50, 88
6, 14938, Note_off_c, 2, 50, 0
6, 14940, Note_on_c, 2, 48, 88
6, 14998, Note_off_c, 2, 48, 0
6, 15000, Note_on_c, 2, 50, 88
6, 15058, Note_off_c, 2, 50, 0
6, 15060, Note_on_c, 2, 46, 88
6, 15118, Note_off_c, 2, 46, 0
6, 15120, Note_on_c, 2, 51, 88
6, 15236, Note_off_c, 2, 51, 0
6, 15240, Note_on_c, 2, 39, 88
6, 15356, Note_off_c, 2, 39, 0
6, 15480, Note_on_c, 2, 61, 88
6, 15538, Note_off_c, 2, 61, 0
6, 15540, Note_on_c, 2, 60, 88
6, 15598, Note_off_c, 2, 60, 0
6, 15600, Note_on_c, 2, 58, 88
6, 15658, Note_off_c, 2, 58, 0
6, 15660, Note_on_c, 2, 60, 88
6, 15718, Note_off_c, 2, 60, 0
6, 15720, Note_on_c, 2, 56, 88
6, 15778, Note_off_c, 2, 56, 0
6, 15780, Note_on_c, 2, 58, 88
6, 15838, Note_off_c, 2, 58, 0
6, 15840, Note_on_c, 2, 55, 88
6, 15898, Note_off_c, 2, 55, 0
6, 15900, Note_on_c, 2, 56, 88
6, 15958, Note_off_c, 2, 56, 0
6, 15960, Note_on_c, 2, 53, 88
6, 16018, Note_off_c, 2, 53, 0
6, 16020, Note_on_c, 2, 55, 88
6, 16078, Note_off_c, 2, 55, 0
6, 16080, Note_on_c, 2, 51, 88
6, 16138, Note_off_c, 2, 51, 0
6, 16140, Note_on_c, 2, 53, 88
6, 16198, Note_off_c, 2, 53, 0
6, 16200, Note_on_c, 2, 49, 88
6, 16258, Note_off_c, 2, 49, 0
6, 16260, Note_on_c, 2, 51, 88
6, 16318, Note_off_c, 2, 51, 0
6, 16320, Note_on_c, 2, 48, 88
6, 16378, Note_off_c, 2, 48, 0
6, 16380, Note_on_c, 2, 49, 88
6, 16438, Note_off_c, 2, 49, 0
6, 16440, Note_on_c, 2, 46, 88
6, 16498, Note_off_c, 2, 46, 0
6, 16500, Note_on_c, 2, 48, 88
6, 16558, Note_off_c, 2, 48, 0
6, 16560, Note_on_c, 2, 44, 88
6, 16676, Note_off_c, 2, 44, 0
6, 16680, Note_on_c, 2, 63, 88
6, 16738, Note_off_c, 2, 63, 0
6, 16740, Note_on_c, 2, 61, 88
6, 16798, Note_off_c, 2, 61, 0
6, 16800, Note_on_c, 2, 63, 88
6, 16916, Note_off_c, 2, 63, 0
6, 16920, Note_on_c, 2, 68, 88
6, 17036, Note_off_c, 2, 68, 0
6, 17040, Note_on_c, 2, 60, 88
6, 17156, Note_off_c, 2, 60, 0
6, 17160, Note_on_c, 2, 63, 88
6, 17276, Note_off_c, 2, 63, 0
6, 17280, Note_on_c, 2, 56, 88
6, 17396, Note_off_c, 2, 56, 0
6, 17400, Note_on_c, 2, 60, 88
6, 17458, Note_off_c, 2, 60, 0
6, 17460, Note_on_c, 2, 58, 88
6, 17518, Note_off_c, 2, 58, 0
6, 17520, Note_on_c, 2, 60, 88
6, 17636, Note_off_c, 2, 60, 0
6, 17640, Note_on_c, 2, 63, 88
6, 17756, Note_off_c, 2, 63, 0
6, 17760, Note_on_c, 2, 56, 88
6, 17876, Note_off_c, 2, 56, 0
6, 17880, Note_on_c, 2, 60, 88
6, 17996, Note_off_c, 2, 60, 0
6, 18000, Note_on_c, 2, 53, 88
6, 18294, Note_off_c, 2, 53, 0
6, 18300, Note_on_c, 2, 56, 88
6, 18358, Note_off_c, 2, 56, 0
6, 18360, Note_on_c, 2, 58, 88
6, 18418, Note_off_c, 2, 58, 0
6, 18420, Note_on_c, 2, 60, 88
6, 18478, Note_off_c, 2, 60, 0
6, 18480, Note_on_c, 2, 61, 88
6, 18538, Note_off_c, 2, 61, 0
6, 18540, Note_on_c, 2, 58, 88
6, 18598, Note_off_c, 2, 58, 0
6, 18600, Note_on_c, 2, 55, 88
6, 18658, Note_off_c, 2, 55, 0
6, 18660, Note_on_c, 2, 58, 88
6, 18718, Note_off_c, 2, 58, 0
6, 18720, Note_on_c, 2, 51, 88
6, 19014, Note_off_c, 2, 51, 0
6, 19020, Note_on_c, 2, 55, 88
6, 19078, Note_off_c, 2, 55, 0
6, 19080, Note_on_c, 2, 56, 88
6, 19138, Note_off_c, 2, 56, 0
6, 19140, Note_on_c, 2, 58, 88
6, 19198, Note_off_c, 2, 58, 0
6, 19200, Note_on_c, 2, 60, 88
6, 19258, Note_off_c, 2, 60, 0
6, 19260, Note_on_c, 2, 56, 88
6, 19318, Note_off_c, 2, 56, 0
6, 19320, Note_on_c, 2, 53, 88
6, 19378, Note_off_c, 2, 53, 0
6, 19380, Note_on_c, 2, 56, 88
6, 19438, Note_off_c, 2, 56, 0
6, 19440, Note_on_c, 2, 49, 88
6, 19498, Note_off_c, 2, 49, 0
6, 19500, Note_on_c, 2, 51, 88
6, 19558, Note_off_c, 2, 51, 0
6, 19560, Note_on_c, 2, 48, 88
6, 19618, Note_off_c, 2, 48, 0
6, 19620, Note_on_c, 2, 51, 88
6, 19678, Note_off_c, 2, 51, 0
6, 19680, Note_on_c, 2, 49, 88
6, 19738, Note_off_c, 2, 49, 0
6, 19740, Note_on_c, 2, 53, 88
6, 19798, Note_off_c, 2, 53, 0
6, 19800, Note_on_c, 2, 55, 88
6, 19858, Note_off_c, 2, 55, 0
6, 19860, Note_on_c, 2, 56, 88
6, 19918, Note_off_c, 2, 56, 0
6, 19920, Note_on_c, 2, 58, 88
6, 19978, Note_off_c, 2, 58, 0
6, 19980, Note_on_c, 2, 55, 88
6, 20038, Note_off_c, 2, 55, 0
6, 20040, Note_on_c, 2, 51, 88
6, 20098, Note_off_c, 2, 51, 0
6, 20100, Note_on_c, 2, 55, 88
6, 20158, Note_off_c, 2, 55, 0
6, 20160, Note_on_c, 2, 48, 88
6, 20218, Note_off_c, 2, 48, 0
6, 20220, Note_on_c, 2, 49, 88
6, 20278, Note_off_c, 2, 49, 0
6, 20280, Note_on_c, 2, 46, 88
6, 20338, Note_off_c, 2, 46, 0
6, 20340, Note_on_c, 2, 49, 88
6, 20398, Note_off_c, 2, 49, 0
6, 20400, Note_on_c, 2, 48, 88
6, 20458, Note_off_c, 2, 48, 0
6, 20460, Note_on_c, 2, 51, 88
6, 20518, Note_off_c, 2, 51, 0
6, 20520, Note_on_c, 2, 53, 88
6, 20578, Note_off_c, 2, 53, 0
6, 20580, Note_on_c, 2, 55, 88
6, 20638, Note_off_c, 2, 55, 0
6, 20640, Note_on_c, 2, 56, 88
6, 20698, Note_off_c, 2, 56, 0
6, 20700, Note_on_c, 2, 53, 88
6, 20758, Note_off_c, 2, 53, 0
6, 20760, Note_on_c, 2, 49, 88
6, 20818, Note_off_c, 2, 49, 0
6, 20820, Note_on_c, 2, 53, 88
6, 20878, Note_off_c, 2, 53, 0
6, 20880, Note_on_c, 2, 46, 88
6, 20938, Note_off_c, 2, 46, 0
6, 20940, Note_on_c, 2, 56, 88
6, 20998, Note_off_c, 2, 56, 0
6, 21000, Note_on_c, 2, 55, 88
6, 21058, Note_off_c, 2, 55, 0
6, 21060, Note_on_c, 2, 56, 88
6, 21118, Note_off_c, 2, 56, 0
6, 21120, Note_on_c, 2, 49, 88
6, 21178, Note_off_c, 2, 49, 0
6, 21180, Note_on_c, 2, 56, 88
6, 21238, Note_off_c, 2, 56, 0
6, 21240, Note_on_c, 2, 55, 88
6, 21298, Note_off_c, 2, 55, 0
6, 21300, Note_on_c, 2, 56, 88
6, 21358, Note_off_c, 2, 56, 0
6, 21360, Note_on_c, 2, 46, 88
6, 21418, Note_off_c, 2, 46, 0
6, 21420, Note_on_c, 2, 56, 88
6, 21478, Note_off_c, 2, 56, 0
6, 21480, Note_on_c, 2, 55, 88
6, 21538, Note_off_c, 2, 55, 0
6, 21540, Note_on_c, 2, 56, 88
6, 21598, Note_off_c, 2, 56, 0
6, 21600, Note_on_c, 2, 48, 88
6, 21658, Note_off_c, 2, 48, 0
6, 21660, Note_on_c, 2, 56, 88
6, 21718, Note_off_c, 2, 56, 0
6, 21720, Note_on_c, 2, 55, 88
6, 21778, Note_off_c, 2, 55, 0
6, 21780, Note_on_c, 2, 56, 88
6, 21838, Note_off_c, 2, 56, 0
6, 21840, Note_on_c, 2, 51, 88
6, 21898, Note_off_c, 2, 51, 0
6, 21900, Note_on_c, 2, 56, 88
6, 21958, Note_off_c, 2, 56, 0
6, 21960, Note_on_c, 2, 55, 88
6, 22018, Note_off_c, 2, 55, 0
6, 22020, Note_on_c, 2, 56, 88
6, 22078, Note_off_c, 2, 56, 0
6, 22080, Note_on_c, 2, 48, 88
6, 22138, Note_off_c, 2, 48, 0
6, 22140, Note_on_c, 2, 56, 88
6, 22198, Note_off_c, 2, 56, 0
6, 22200, Note_on_c, 2, 55, 88
6, 22258, Note_off_c, 2, 55, 0
6, 22260, Note_on_c, 2, 56, 88
6, 22318, Note_off_c, 2, 56, 0
6, 22320, Note_on_c, 2, 49, 88
6, 22378, Note_off_c, 2, 49, 0
6, 22380, Note_on_c, 2, 56, 88
6, 22438, Note_off_c, 2, 56, 0
6, 22440, Note_on_c, 2, 54, 88
6, 22498, Note_off_c, 2, 54, 0
6, 22500, Note_on_c, 2, 56, 88
6, 22558, Note_off_c, 2, 56, 0
6, 22560, Note_on_c, 2, 53, 88
6, 22618, Note_off_c, 2, 53, 0
6, 22620, Note_on_c, 2, 56, 88
6, 22678, Note_off_c, 2, 56, 0
6, 22680, Note_on_c, 2, 51, 88
6, 22738, Note_off_c, 2, 51, 0
6, 22740, Note_on_c, 2, 56, 88
6, 22798, Note_off_c, 2, 56, 0
6, 22800, Note_on_c, 2, 49, 88
6, 22858, Note_off_c, 2, 49, 0
6, 22860, Note_on_c, 2, 56, 88
6, 22918, Note_off_c, 2, 56, 0
6, 22920, Note_on_c, 2, 48, 88
6, 22978, Note_off_c, 2, 48, 0
6, 22980, Note_on_c, 2, 56, 88
6, 23038, Note_off_c, 2, 56, 0
6, 23040, Note_on_c, 2, 46, 88
6, 23098, Note_off_c, 2, 46, 0
6, 23100, Note_on_c, 2, 49, 88
6, 23158, Note_off_c, 2, 49, 0
6, 23160, Note_on_c, 2, 48, 88
6, 23218, Note_off_c, 2, 48, 0
6, 23220, Note_on_c, 2, 51, 88
6, 23278, Note_off_c, 2, 51, 0
6, 23280, Note_on_c, 2, 49, 88
6, 23338, Note_off_c, 2, 49, 0
6, 23340, Note_on_c, 2, 53, 88
6, 23398, Note_off_c, 2, 53, 0
6, 23400, Note_on_c, 2, 51, 88
6, 23458, Note_off_c, 2, 51, 0
6, 23460, Note_on_c, 2, 49, 88
6, 23518, Note_off_c, 2, 49, 0
6, 23520, Note_on_c, 2, 48, 88
6, 23578, Note_off_c, 2, 48, 0
6, 23580, Note_on_c, 2, 51, 88
6, 23638, Note_off_c, 2, 51, 0
6, 23640, Note_on_c, 2, 49, 88
6, 23698, Note_off_c, 2, 49, 0
6, 23700, Note_on_c, 2, 53, 88
6, 23758, Note_off_c, 2, 53, 0
6, 23760, Note_on_c, 2, 51, 88
6, 23876, Note_off_c, 2, 51, 0
6, 23880, Note_on_c, 2, 53, 88
6, 23938, Note_off_c, 2, 53, 0
6, 23940, Note_on_c, 2, 49, 88
6, 23998, Note_off_c, 2, 49, 0
6, 24000, Note_on_c, 2, 51, 88
6, 24116, Note_off_c, 2, 51, 0
6, 24120, Note_on_c, 2, 49, 88
6, 24236, Note_off_c, 2, 49, 0
6, 24240, Note_on_c, 2, 51, 88
6, 24356, Note_off_c, 2, 51, 0
6, 24360, Note_on_c, 2, 39, 88
6, 24476, Note_off_c, 2, 39, 0
6, 24480, Note_on_c, 2, 44, 88
6, 24714, Note_off_c, 2, 44, 0
6, 24720, Note_on_c, 2, 56, 88
6, 24954, Note_off_c, 2, 56, 0
6, 25320, Note_on_c, 2, 53, 88
6, 25378, Note_off_c, 2, 53, 0
6, 25380, Note_on_c, 2, 51, 88
6, 25438, Note_off_c, 2, 51, 0
6, 25440, Note_on_c, 2, 53, 88
6, 25556, Note_off_c, 2, 53, 0
6, 25560, Note_on_c, 2, 56, 88
6, 25676, Note_off_c, 2, 56, 0
6, 25680, Note_on_c, 2, 49, 88
6, 25796, Note_off_c, 2, 49, 0
6, 25800, Note_on_c, 2, 53, 88
6, 25916, Note_off_c, 2, 53, 0
6, 25920, Note_on_c, 2, 46, 88
6, 26154, Note_off_c, 2, 46, 0
6, 26160, Note_on_c, 2, 56, 88
6, 26394, Note_off_c, 2, 56, 0
6, 26760, Note_on_c, 2, 51, 88
6, 26818, Note_off_c, 2, 51, 0
6, 26820, Note_on_c, 2, 49, 88
6, 26878, Note_off_c, 2, 49, 0
6, 26880, Note_on_c, 2, 51, 88
6, 26996, Note_off_c, 2, 51, 0
6, 27000, Note_on_c, 2, 55, 88
6, 27116, Note_off_c, 2, 55, 0
6, 27120, Note_on_c, 2, 48, 88
6, 27236, Note_off_c, 2, 48, 0
6, 27240, Note_on_c, 2, 51, 88
6, 27356, Note_off_c, 2, 51, 0
6, 27360, Note_on_c, 2, 44, 88
6, 27418, Note_off_c, 2, 44, 0
6, 27420, Note_on_c, 2, 56, 88
6, 27478, Note_off_c, 2, 56, 0
6, 27480, Note_on_c, 2, 55, 88
6, 27538, Note_off_c, 2, 55, 0
6, 27540, Note_on_c, 2, 56, 88
6, 27598, Note_off_c, 2, 56, 0
6, 27600, Note_on_c, 2, 53, 88
6, 27658, Note_off_c, 2, 53, 0
6, 27660, Note_on_c, 2, 56, 88
6, 27718, Note_off_c, 2, 56, 0
6, 27720, Note_on_c, 2, 51, 88
6, 27778, Note_off_c, 2, 51, 0
6, 27780, Note_on_c, 2, 56, 88
6, 27838, Note_off_c, 2, 56, 0
6, 27840, Note_on_c, 2, 49, 88
6, 27898, Note_off_c, 2, 49, 0
6, 27900, Note_on_c, 2, 56, 88
6, 27958, Note_off_c, 2, 56, 0
6, 27960, Note_on_c, 2, 48, 88
6, 28018, Note_off_c, 2, 48, 0
6, 28020, Note_on_c, 2, 56, 88
6, 28078, Note_off_c, 2, 56, 0
6, 28080, Note_on_c, 2, 46, 88
6, 28138, Note_off_c, 2, 46, 0
6, 28140, Note_on_c, 2, 58, 88
6, 28198, Note_off_c, 2, 58, 0
6, 28200, Note_on_c, 2, 56, 88
6, 28258, Note_off_c, 2, 56, 0
6, 28260, Note_on_c, 2, 58, 88
6, 28318, Note_off_c, 2, 58, 0
6, 28320, Note_on_c, 2, 55, 88
6, 28378, Note_off_c, 2, 55, 0
6, 28380, Note_on_c, 2, 58, 88
6, 28438, Note_off_c, 2, 58, 0
6, 28440, Note_on_c, 2, 53, 88
6, 28498, Note_off_c, 2, 53, 0
6, 28500, Note_on_c, 2, 58, 88
6, 28558, Note_off_c, 2, 58, 0
6, 28560, Note_on_c, 2, 51, 88
6, 28618, Note_off_c, 2, 51, 0
6, 28620, Note_on_c, 2, 58, 88
6, 28678, Note_off_c, 2, 58, 0
6, 28680, Note_on_c, 2, 49, 88
6, 28738, Note_off_c, 2, 49, 0
6, 28740, Note_on_c, 2, 58, 88
6, 28798, Note_off_c, 2, 58, 0
6, 28800, Note_on_c, 2, 48, 88
6, 28916, Note_off_c, 2, 48, 0
6, 28920, Note_on_c, 2, 60, 88
6, 29036, Note_off_c, 2, 60, 0
6, 29160, Note_on_c, 2, 53, 88
6, 29218, Note_off_c, 2, 53, 0
6, 29220, Note_on_c, 2, 55, 88
6, 29278, Note_off_c, 2, 55, 0
6, 29280, Note_on_c, 2, 56, 88
6, 29338, Note_off_c, 2, 56, 0
6, 29340, Note_on_c, 2, 55, 88
6, 29398, Note_off_c, 2, 55, 0
6, 29400, Note_on_c, 2, 56, 88
6, 29458, Note_off_c, 2, 56, 0
6, 29460, Note_on_c, 2, 53, 88
6, 29518, Note_off_c, 2, 53, 0
6, 29520, Note_on_c, 2, 58, 88
6, 29636, Note_off_c, 2, 58, 0
6, 29640, Note_on_c, 2, 46, 88
6, 29756, Note_off_c, 2, 46, 0
6, 29880, Note_on_c, 2, 51, 88
6, 29938, Note_off_c, 2, 51, 0
6, 29940, Note_on_c, 2, 53, 88
6, 29998, Note_off_c, 2, 53, 0
6, 30000, Note_on_c, 2, 55, 88
6, 30058, Note_off_c, 2, 55, 0
6, 30060, Note_on_c, 2, 53, 88
6, 30118, Note_off_c, 2, 53, 0
6, 30120, Note_on_c, 2, 55, 88
6, 30178, Note_off_c, 2, 55, 0
6, 30180, Note_on_c, 2, 51, 88
6, 30238, Note_off_c, 2, 51, 0
6, 30240, Note_on_c, 2, 56, 88
6, 30356, Note_off_c, 2, 56, 0
6, 30360, Note_on_c, 2, 49, 88
6, 30476, Note_off_c, 2, 49, 0
6, 30480, Note_on_c, 2, 51, 88
6, 30596, Note_off_c, 2, 51, 0
6, 30600, Note_on_c, 2, 49, 88
6, 30716, Note_off_c, 2, 49, 0
6, 30720, Note_on_c, 2, 51, 88
6, 30836, Note_off_c, 2, 51, 0
6, 30840, Note_on_c, 2, 39, 88
6, 30956, Note_off_c, 2, 39, 0
6, 30960, Note_on_c, 2, 44, 88
6, 31668, Note_off_c, 2, 44, 0
6, 31668, End_track
0, 0, End_of_file
