0, 0, Header, 1, 8, 240
1, 0, Start_track
1, 0, Time_signature, 2, 1, 24, 8
1, 0, Tempo, 476190
1, 0, SMPTE_offset, 64, 0, 0, 0, 93
1, 0, End_track
2, 0, Start_track
2, 0, Title_t, "(C) & (P) 1993"
2, 127, End_track
3, 0, Start_track
3, 0, Title_t, "CCARH,Stanford"
3, 0, End_track
4, 0, Start_track
4, 0, Title_t, "Track 1"
4, 0, Program_c, 0, 6
4, 0, Note_on_c, 0, 70, 88
4, 470, Note_off_c, 0, 70, 0
4, 480, Note_on_c, 0, 65, 88
4, 950, Note_off_c, 0, 65, 0
4, 1200, Note_on_c, 0, 78, 88
4, 1434, Note_off_c, 0, 78, 0
4, 1440, Note_on_c, 0, 77, 88
4, 1674, Note_off_c, 0, 77, 0
4, 1680, Note_on_c, 0, 75, 88
4, 1914, Note_off_c, 0, 75, 0
4, 1920, Note_on_c, 0, 73, 88
4, 2154, Note_off_c, 0, 73, 0
4, 2160, Note_on_c, 0, 72, 88
4, 2394, Note_off_c, 0, 72, 0
4, 2400, Note_on_c, 0, 73, 88
4, 2634, Note_off_c, 0, 73, 0
4, 2640, Note_on_c, 0, 75, 88
4, 2874, Note_off_c, 0, 75, 0
4, 2880, Note_on_c, 0, 77, 88
4, 3114, Note_off_c, 0, 77, 0
4, 3120, Note_on_c, 0, 76, 88
4, 3236, Note_off_c, 0, 76, 0
4, 3240, Note_on_c, 0, 77, 88
4, 3356, Note_off_c, 0, 77, 0
4, 3360, Note_on_c, 0, 79, 88
4, 4074, Note_off_c, 0, 79, 0
4, 4080, Note_on_c, 0, 80, 88
4, 4196, Note_off_c, 0, 80, 0
4, 4200, Note_on_c, 0, 79, 88
4, 4316, Note_off_c, 0, 79, 0
4, 4320, Note_on_c, 0, 77, 88
4, 5034, Note_off_c, 0, 77, 0
4, 5040, Note_on_c, 0, 75, 88
4, 5156, Note_off_c, 0, 75, 0
4, 5160, Note_on_c, 0, 73, 88
4, 5276, Note_off_c, 0, 73, 0
4, 5280, Note_on_c, 0, 75, 88
4, 5514, Note_off_c, 0, 75, 0
4, 5520, Note_on_c, 0, 77, 88
4, 5754, Note_off_c, 0, 77, 0
4, 5760, Note_on_c, 0, 78, 88
4, 6468, Note_off_c, 0, 78, 0
4, 6480, Note_on_c, 0, 77, 88
4, 6596, Note_off_c, 0, 77, 0
4, 6600, Note_on_c, 0, 75, 88
4, 6716, Note_off_c, 0, 75, 0
4, 6720, Note_on_c, 0, 77, 88
4, 6954, Note_off_c, 0, 77, 0
4, 6960, Note_on_c, 0, 79, 88
4, 7194, Note_off_c, 0, 79, 0
4, 7200, Note_on_c, 0, 80, 88
4, 7914, Note_off_c, 0, 80, 0
4, 7920, Note_on_c, 0, 79, 88
4, 8036, Note_off_c, 0, 79, 0
4, 8040, Note_on_c, 0, 77, 88
4, 8156, Note_off_c, 0, 77, 0
4, 8160, Note_on_c, 0, 79, 88
4, 8394, Note_off_c, 0, 79, 0
4, 8400, Note_on_c, 0, 81, 88
4, 8634, Note_off_c, 0, 81, 0
4, 8640, Note_on_c, 0, 82, 88
4, 9348, Note_off_c, 0, 82, 0
4, 9360, Note_on_c, 0, 81, 88
4, 9476, Note_off_c, 0, 81, 0
4, 9480, Note_on_c, 0, 79, 88
4, 9596, Note_off_c, 0, 79, 0
4, 9600, Note_on_c, 0, 81, 88
4, 9834, Note_off_c, 0, 81, 0
4, 9840, Note_on_c, 0, 82, 88
4, 10074, Note_off_c, 0, 82, 0
4, 10080, Note_on_c, 0, 84, 88
4, 10794, Note_off_c, 0, 84, 0
4, 10800, Note_on_c, 0, 82, 88
4, 10916, Note_off_c, 0, 82, 0
4, 10920, Note_on_c, 0, 81, 88
4, 11036, Note_off_c, 0, 81, 0
4, 11040, Note_on_c, 0, 82, 88
4, 11274, Note_off_c, 0, 82, 0
4, 11280, Note_on_c, 0, 80, 88
4, 11514, Note_off_c, 0, 80, 0
4, 11520, Note_on_c, 0, 78, 88
4, 11754, Note_off_c, 0, 78, 0
4, 11760, Note_on_c, 0, 77, 88
4, 11994, Note_off_c, 0, 77, 0
4, 12000, Note_on_c, 0, 75, 88
4, 12714, Note_off_c, 0, 75, 0
4, 12720, Note_on_c, 0, 77, 88
4, 12836, Note_off_c, 0, 77, 0
4, 12840, Note_on_c, 0, 78, 88
4, 12956, Note_off_c, 0, 78, 0
4, 12960, Note_on_c, 0, 77, 88
4, 13194, Note_off_c, 0, 77, 0
4, 13200, Note_on_c, 0, 75, 88
4, 13434, Note_off_c, 0, 75, 0
4, 13440, Note_on_c, 0, 73, 88
4, 14385, Note_off_c, 0, 73, 0
4, 14400, Note_on_c, 0, 72, 88
4, 15345, Note_off_c, 0, 72, 0
4, 15360, Note_on_c, 0, 70, 88
4, 17028, Note_off_c, 0, 70, 0
4, 17040, Note_on_c, 0, 75, 88
4, 17274, Note_off_c, 0, 75, 0
4, 17280, Note_on_c, 0, 68, 88
4, 18710, Note_off_c, 0, 68, 0
4, 18720, Note_on_c, 0, 73, 88
4, 19190, Note_off_c, 0, 73, 0
4, 19200, Note_on_c, 0, 72, 88
4, 19670, Note_off_c, 0, 72, 0
4, 19680, Note_on_c, 0, 77, 88
4, 20630, Note_off_c, 0, 77, 0
4, 20640, Note_on_c, 0, 75, 88
4, 20874, Note_off_c, 0, 75, 0
4, 20880, Note_on_c, 0, 73, 88
4, 21114, Note_off_c, 0, 73, 0
4, 21120, Note_on_c, 0, 72, 88
4, 21590, Note_off_c, 0, 72, 0
4, 21600, Note_on_c, 0, 73, 88
4, 22550, Note_off_c, 0, 73, 0
4, 22560, Note_on_c, 0, 72, 88
4, 23030, Note_off_c, 0, 72, 0
4, 23040, Note_on_c, 0, 73, 88
4, 23510, Note_off_c, 0, 73, 0
4, 23520, Note_on_c, 0, 68, 88
4, 23990, Note_off_c, 0, 68, 0
4, 24240, Note_on_c, 0, 83, 88
4, 24474, Note_off_c, 0, 83, 0
4, 24480, Note_on_c, 0, 82, 88
4, 24714, Note_off_c, 0, 82, 0
4, 24720, Note_on_c, 0, 80, 88
4, 24954, Note_off_c, 0, 80, 0
4, 24960, Note_on_c, 0, 78, 88
4, 25194, Note_off_c, 0, 78, 0
4, 25200, Note_on_c, 0, 77, 88
4, 25434, Note_off_c, 0, 77, 0
4, 25440, Note_on_c, 0, 78, 88
4, 25674, Note_off_c, 0, 78, 0
4, 25680, Note_on_c, 0, 80, 88
4, 25914, Note_off_c, 0, 80, 0
4, 25920, Note_on_c, 0, 82, 88
4, 26154, Note_off_c, 0, 82, 0
4, 26160, Note_on_c, 0, 81, 88
4, 26276, Note_off_c, 0, 81, 0
4, 26280, Note_on_c, 0, 82, 88
4, 26396, Note_off_c, 0, 82, 0
4, 26400, Note_on_c, 0, 84, 88
4, 27114, Note_off_c, 0, 84, 0
4, 27120, Note_on_c, 0, 82, 88
4, 27590, Note_off_c, 0, 82, 0
4, 27600, Note_on_c, 0, 81, 88
4, 27834, Note_off_c, 0, 81, 0
4, 27840, Note_on_c, 0, 82, 88
4, 29270, Note_off_c, 0, 82, 0
4, 29280, Note_on_c, 0, 80, 88
4, 29750, Note_off_c, 0, 80, 0
4, 29760, Note_on_c, 0, 78, 88
4, 30705, Note_off_c, 0, 78, 0
4, 30720, Note_on_c, 0, 77, 88
4, 31190, Note_off_c, 0, 77, 0
4, 31200, Note_on_c, 0, 76, 88
4, 31670, Note_off_c, 0, 76, 0
4, 31680, Note_on_c, 0, 75, 88
4, 33110, Note_off_c, 0, 75, 0
4, 33120, Note_on_c, 0, 80, 88
4, 34070, Note_off_c, 0, 80, 0
4, 34080, Note_on_c, 0, 79, 88
4, 34550, Note_off_c, 0, 79, 0
4, 34560, Note_on_c, 0, 80, 88
4, 35030, Note_off_c, 0, 80, 0
4, 47040, Note_on_c, 0, 77, 88
4, 47510, Note_off_c, 0, 77, 0
4, 47520, Note_on_c, 0, 70, 88
4, 47990, Note_off_c, 0, 70, 0
4, 48240, Note_on_c, 0, 83, 88
4, 48474, Note_off_c, 0, 83, 0
4, 48480, Note_on_c, 0, 82, 88
4, 48714, Note_off_c, 0, 82, 0
4, 48720, Note_on_c, 0, 80, 88
4, 48954, Note_off_c, 0, 80, 0
4, 48960, Note_on_c, 0, 78, 88
4, 49430, Note_off_c, 0, 78, 0
4, 49440, Note_on_c, 0, 76, 88
4, 49674, Note_off_c, 0, 76, 0
4, 49680, Note_on_c, 0, 75, 88
4, 49914, Note_off_c, 0, 75, 0
4, 49920, Note_on_c, 0, 74, 88
4, 50390, Note_off_c, 0, 74, 0
4, 50400, Note_on_c, 0, 75, 88
4, 51350, Note_off_c, 0, 75, 0
4, 51360, Note_on_c, 0, 74, 88
4, 51830, Note_off_c, 0, 74, 0
4, 51840, Note_on_c, 0, 75, 88
4, 52310, Note_off_c, 0, 75, 0
4, 63840, Note_on_c, 0, 70, 88
4, 64310, Note_off_c, 0, 70, 0
4, 64320, Note_on_c, 0, 65, 88
4, 64790, Note_off_c, 0, 65, 0
4, 65040, Note_on_c, 0, 78, 88
4, 65274, Note_off_c, 0, 78, 0
4, 65280, Note_on_c, 0, 77, 88
4, 65514, Note_off_c, 0, 77, 0
4, 65520, Note_on_c, 0, 75, 88
4, 65754, Note_off_c, 0, 75, 0
4, 65760, Note_on_c, 0, 73, 88
4, 65994, Note_off_c, 0, 73, 0
4, 66000, Note_on_c, 0, 72, 88
4, 66234, Note_off_c, 0, 72, 0
4, 66240, Note_on_c, 0, 73, 88
4, 66474, Note_off_c, 0, 73, 0
4, 66480, Note_on_c, 0, 75, 88
4, 66714, Note_off_c, 0, 75, 0
4, 66720, Note_on_c, 0, 77, 88
4, 66954, Note_off_c, 0, 77, 0
4, 66960, Note_on_c, 0, 75, 88
4, 67194, Note_off_c, 0, 75, 0
4, 67200, Note_on_c, 0, 73, 88
4, 67434, Note_off_c, 0, 73, 0
4, 67440, Note_on_c, 0, 72, 88
4, 67674, Note_off_c, 0, 72, 0
4, 67680, Note_on_c, 0, 70, 88
4, 68394, Note_off_c, 0, 70, 0
4, 68400, Note_on_c, 0, 72, 88
4, 68634, Note_off_c, 0, 72, 0
4, 68640, Note_on_c, 0, 73, 88
4, 69353, Note_off_c, 0, 73, 0
4, 69360, Note_on_c, 0, 73, 88
4, 69594, Note_off_c, 0, 73, 0
4, 69600, Note_on_c, 0, 72, 88
4, 69834, Note_off_c, 0, 72, 0
4, 69840, Note_on_c, 0, 70, 88
4, 70074, Note_off_c, 0, 70, 0
4, 70080, Note_on_c, 0, 70, 88
4, 70550, Note_off_c, 0, 70, 0
4, 70560, Note_on_c, 0, 69, 88
4, 71030, Note_off_c, 0, 69, 0
4, 71040, Note_on_c, 0, 70, 88
4, 71985, Note_off_c, 0, 70, 0
4, 71985, End_track
5, 0, Start_track
5, 0, Title_t, "Track 2"
5, 0, Program_c, 1, 6
5, 1920, Note_on_c, 1, 65, 88
5, 2390, Note_off_c, 1, 65, 0
5, 2400, Note_on_c, 1, 58, 88
5, 2870, Note_off_c, 1, 58, 0
5, 3120, Note_on_c, 1, 73, 88
5, 3354, Note_off_c, 1, 73, 0
5, 3360, Note_on_c, 1, 72, 88
5, 3594, Note_off_c, 1, 72, 0
5, 3600, Note_on_c, 1, 70, 88
5, 3834, Note_off_c, 1, 70, 0
5, 3840, Note_on_c, 1, 68, 88
5, 4074, Note_off_c, 1, 68, 0
5, 4080, Note_on_c, 1, 67, 88
5, 4314, Note_off_c, 1, 67, 0
5, 4320, Note_on_c, 1, 68, 88
5, 4554, Note_off_c, 1, 68, 0
5, 4560, Note_on_c, 1, 70, 88
5, 4794, Note_off_c, 1, 70, 0
5, 4800, Note_on_c, 1, 72, 88
5, 5508, Note_off_c, 1, 72, 0
5, 5520, Note_on_c, 1, 70, 88
5, 5636, Note_off_c, 1, 70, 0
5, 5640, Note_on_c, 1, 69, 88
5, 5756, Note_off_c, 1, 69, 0
5, 5760, Note_on_c, 1, 70, 88
5, 5994, Note_off_c, 1, 70, 0
5, 6000, Note_on_c, 1, 72, 88
5, 6234, Note_off_c, 1, 72, 0
5, 6240, Note_on_c, 1, 73, 88
5, 6954, Note_off_c, 1, 73, 0
5, 6960, Note_on_c, 1, 72, 88
5, 7076, Note_off_c, 1, 72, 0
5, 7080, Note_on_c, 1, 70, 88
5, 7196, Note_off_c, 1, 70, 0
5, 7200, Note_on_c, 1, 72, 88
5, 7434, Note_off_c, 1, 72, 0
5, 7440, Note_on_c, 1, 74, 88
5, 7674, Note_off_c, 1, 74, 0
5, 7680, Note_on_c, 1, 75, 88
5, 8388, Note_off_c, 1, 75, 0
5, 8400, Note_on_c, 1, 73, 88
5, 8516, Note_off_c, 1, 73, 0
5, 8520, Note_on_c, 1, 72, 88
5, 8636, Note_off_c, 1, 72, 0
5, 8640, Note_on_c, 1, 73, 88
5, 8874, Note_off_c, 1, 73, 0
5, 8880, Note_on_c, 1, 75, 88
5, 9114, Note_off_c, 1, 75, 0
5, 9120, Note_on_c, 1, 77, 88
5, 9834, Note_off_c, 1, 77, 0
5, 9840, Note_on_c, 1, 75, 88
5, 9956, Note_off_c, 1, 75, 0
5, 9960, Note_on_c, 1, 73, 88
5, 10076, Note_off_c, 1, 73, 0
5, 10080, Note_on_c, 1, 75, 88
5, 10794, Note_off_c, 1, 75, 0
5, 10800, Note_on_c, 1, 77, 88
5, 10916, Note_off_c, 1, 77, 0
5, 10920, Note_on_c, 1, 75, 88
5, 11036, Note_off_c, 1, 75, 0
5, 11040, Note_on_c, 1, 73, 88
5, 11274, Note_off_c, 1, 73, 0
5, 11280, Note_on_c, 1, 72, 88
5, 11514, Note_off_c, 1, 72, 0
5, 11520, Note_on_c, 1, 70, 88
5, 12228, Note_off_c, 1, 70, 0
5, 12240, Note_on_c, 1, 69, 88
5, 12356, Note_off_c, 1, 69, 0
5, 12360, Note_on_c, 1, 70, 88
5, 12476, Note_off_c, 1, 70, 0
5, 12480, Note_on_c, 1, 72, 88
5, 12714, Note_off_c, 1, 72, 0
5, 12720, Note_on_c, 1, 69, 88
5, 12954, Note_off_c, 1, 69, 0
5, 12960, Note_on_c, 1, 70, 88
5, 13194, Note_off_c, 1, 70, 0
5, 13200, Note_on_c, 1, 72, 88
5, 13674, Note_off_c, 1, 72, 0
5, 13680, Note_on_c, 1, 70, 88
5, 13796, Note_off_c, 1, 70, 0
5, 13800, Note_on_c, 1, 69, 88
5, 13916, Note_off_c, 1, 69, 0
5, 13920, Note_on_c, 1, 70, 88
5, 14870, Note_off_c, 1, 70, 0
5, 14880, Note_on_c, 1, 68, 88
5, 16305, Note_off_c, 1, 68, 0
5, 16320, Note_on_c, 1, 66, 88
5, 18225, Note_off_c, 1, 66, 0
5, 18240, Note_on_c, 1, 65, 88
5, 18710, Note_off_c, 1, 65, 0
5, 18720, Note_on_c, 1, 70, 88
5, 19190, Note_off_c, 1, 70, 0
5, 19200, Note_on_c, 1, 68, 88
5, 19670, Note_off_c, 1, 68, 0
5, 19680, Note_on_c, 1, 73, 88
5, 20394, Note_off_c, 1, 73, 0
5, 20400, Note_on_c, 1, 72, 88
5, 20634, Note_off_c, 1, 72, 0
5, 20640, Note_on_c, 1, 70, 88
5, 21110, Note_off_c, 1, 70, 0
5, 21120, Note_on_c, 1, 68, 88
5, 22314, Note_off_c, 1, 68, 0
5, 22320, Note_on_c, 1, 70, 88
5, 22554, Note_off_c, 1, 70, 0
5, 22560, Note_on_c, 1, 68, 88
5, 22794, Note_off_c, 1, 68, 0
5, 22800, Note_on_c, 1, 66, 88
5, 23034, Note_off_c, 1, 66, 0
5, 23040, Note_on_c, 1, 65, 88
5, 23274, Note_off_c, 1, 65, 0
5, 23280, Note_on_c, 1, 63, 88
5, 23514, Note_off_c, 1, 63, 0
5, 23520, Note_on_c, 1, 65, 88
5, 23754, Note_off_c, 1, 65, 0
5, 23760, Note_on_c, 1, 66, 88
5, 23994, Note_off_c, 1, 66, 0
5, 24000, Note_on_c, 1, 68, 88
5, 24470, Note_off_c, 1, 68, 0
5, 24480, Note_on_c, 1, 65, 88
5, 24950, Note_off_c, 1, 65, 0
5, 24960, Note_on_c, 1, 70, 88
5, 25430, Note_off_c, 1, 70, 0
5, 25440, Note_on_c, 1, 63, 88
5, 25910, Note_off_c, 1, 63, 0
5, 26160, Note_on_c, 1, 78, 88
5, 26394, Note_off_c, 1, 78, 0
5, 26400, Note_on_c, 1, 77, 88
5, 26634, Note_off_c, 1, 77, 0
5, 26640, Note_on_c, 1, 75, 88
5, 26874, Note_off_c, 1, 75, 0
5, 26880, Note_on_c, 1, 73, 88
5, 27350, Note_off_c, 1, 73, 0
5, 27360, Note_on_c, 1, 72, 88
5, 27830, Note_off_c, 1, 72, 0
5, 27840, Note_on_c, 1, 74, 88
5, 28310, Note_off_c, 1, 74, 0
5, 28320, Note_on_c, 1, 75, 88
5, 28790, Note_off_c, 1, 75, 0
5, 28800, Note_on_c, 1, 77, 88
5, 29994, Note_off_c, 1, 77, 0
5, 30000, Note_on_c, 1, 75, 88
5, 30116, Note_off_c, 1, 75, 0
5, 30120, Note_on_c, 1, 74, 88
5, 30236, Note_off_c, 1, 74, 0
5, 30240, Note_on_c, 1, 75, 88
5, 31190, Note_off_c, 1, 75, 0
5, 31200, Note_on_c, 1, 73, 88
5, 31914, Note_off_c, 1, 73, 0
5, 31920, Note_on_c, 1, 75, 88
5, 32036, Note_off_c, 1, 75, 0
5, 32040, Note_on_c, 1, 76, 88
5, 32156, Note_off_c, 1, 76, 0
5, 32160, Note_on_c, 1, 75, 88
5, 32394, Note_off_c, 1, 75, 0
5, 32400, Note_on_c, 1, 73, 88
5, 32634, Note_off_c, 1, 73, 0
5, 32640, Note_on_c, 1, 71, 88
5, 33110, Note_off_c, 1, 71, 0
5, 33120, Note_on_c, 1, 76, 88
5, 33716, Note_off_c, 1, 76, 0
5, 33720, Note_on_c, 1, 75, 88
5, 33836, Note_off_c, 1, 75, 0
5, 33840, Note_on_c, 1, 73, 88
5, 34193, Note_off_c, 1, 73, 0
5, 34200, Note_on_c, 1, 76, 88
5, 34316, Note_off_c, 1, 76, 0
5, 34320, Note_on_c, 1, 75, 88
5, 34436, Note_off_c, 1, 75, 0
5, 34440, Note_on_c, 1, 73, 88
5, 34556, Note_off_c, 1, 73, 0
5, 34560, Note_on_c, 1, 72, 88
5, 35030, Note_off_c, 1, 72, 0
5, 47520, Note_on_c, 1, 70, 88
5, 47990, Note_off_c, 1, 70, 0
5, 48000, Note_on_c, 1, 63, 88
5, 48470, Note_off_c, 1, 63, 0
5, 48720, Note_on_c, 1, 77, 88
5, 48954, Note_off_c, 1, 77, 0
5, 48960, Note_on_c, 1, 75, 88
5, 49194, Note_off_c, 1, 75, 0
5, 49200, Note_on_c, 1, 73, 88
5, 49434, Note_off_c, 1, 73, 0
5, 49440, Note_on_c, 1, 71, 88
5, 49910, Note_off_c, 1, 71, 0
5, 49920, Note_on_c, 1, 70, 88
5, 51825, Note_off_c, 1, 70, 0
5, 51840, Note_on_c, 1, 70, 88
5, 52310, Note_off_c, 1, 70, 0
5, 52320, Note_on_c, 1, 63, 88
5, 52790, Note_off_c, 1, 63, 0
5, 53040, Note_on_c, 1, 77, 88
5, 53274, Note_off_c, 1, 77, 0
5, 53280, Note_on_c, 1, 75, 88
5, 53514, Note_off_c, 1, 75, 0
5, 53520, Note_on_c, 1, 73, 88
5, 53754, Note_off_c, 1, 73, 0
5, 53760, Note_on_c, 1, 72, 88
5, 53994, Note_off_c, 1, 72, 0
5, 54000, Note_on_c, 1, 70, 88
5, 54234, Note_off_c, 1, 70, 0
5, 54240, Note_on_c, 1, 72, 88
5, 54474, Note_off_c, 1, 72, 0
5, 54480, Note_on_c, 1, 73, 88
5, 54714, Note_off_c, 1, 73, 0
5, 54720, Note_on_c, 1, 75, 88
5, 54954, Note_off_c, 1, 75, 0
5, 54960, Note_on_c, 1, 78, 88
5, 55194, Note_off_c, 1, 78, 0
5, 55200, Note_on_c, 1, 77, 88
5, 55434, Note_off_c, 1, 77, 0
5, 55440, Note_on_c, 1, 75, 88
5, 55674, Note_off_c, 1, 75, 0
5, 55680, Note_on_c, 1, 74, 88
5, 55914, Note_off_c, 1, 74, 0
5, 55920, Note_on_c, 1, 77, 88
5, 56154, Note_off_c, 1, 77, 0
5, 56160, Note_on_c, 1, 75, 88
5, 56394, Note_off_c, 1, 75, 0
5, 56400, Note_on_c, 1, 73, 88
5, 56634, Note_off_c, 1, 73, 0
5, 56640, Note_on_c, 1, 72, 88
5, 57110, Note_off_c, 1, 72, 0
5, 57120, Note_on_c, 1, 73, 88
5, 57834, Note_off_c, 1, 73, 0
5, 57840, Note_on_c, 1, 72, 88
5, 58310, Note_off_c, 1, 72, 0
5, 58320, Note_on_c, 1, 70, 88
5, 58554, Note_off_c, 1, 70, 0
5, 58560, Note_on_c, 1, 69, 88
5, 58794, Note_off_c, 1, 69, 0
5, 58800, Note_on_c, 1, 78, 88
5, 59034, Note_off_c, 1, 78, 0
5, 59040, Note_on_c, 1, 77, 88
5, 59274, Note_off_c, 1, 77, 0
5, 59280, Note_on_c, 1, 75, 88
5, 59514, Note_off_c, 1, 75, 0
5, 59520, Note_on_c, 1, 73, 88
5, 59990, Note_off_c, 1, 73, 0
5, 60000, Note_on_c, 1, 72, 88
5, 60470, Note_off_c, 1, 72, 0
5, 60480, Note_on_c, 1, 70, 88
5, 61425, Note_off_c, 1, 70, 0
5, 61440, Note_on_c, 1, 68, 88
5, 62385, Note_off_c, 1, 68, 0
5, 62400, Note_on_c, 1, 66, 88
5, 63345, Note_off_c, 1, 66, 0
5, 63360, Note_on_c, 1, 65, 88
5, 64305, Note_off_c, 1, 65, 0
5, 64320, Note_on_c, 1, 65, 88
5, 64790, Note_off_c, 1, 65, 0
5, 64800, Note_on_c, 1, 58, 88
5, 65270, Note_off_c, 1, 58, 0
5, 65520, Note_on_c, 1, 72, 88
5, 65754, Note_off_c, 1, 72, 0
5, 65760, Note_on_c, 1, 70, 88
5, 65994, Note_off_c, 1, 70, 0
5, 66000, Note_on_c, 1, 69, 88
5, 66234, Note_off_c, 1, 69, 0
5, 66240, Note_on_c, 1, 70, 88
5, 66474, Note_off_c, 1, 70, 0
5, 66480, Note_on_c, 1, 69, 88
5, 66714, Note_off_c, 1, 69, 0
5, 66720, Note_on_c, 1, 70, 88
5, 66954, Note_off_c, 1, 70, 0
5, 66960, Note_on_c, 1, 72, 88
5, 67194, Note_off_c, 1, 72, 0
5, 67200, Note_on_c, 1, 70, 88
5, 67434, Note_off_c, 1, 70, 0
5, 67440, Note_on_c, 1, 69, 88
5, 67674, Note_off_c, 1, 69, 0
5, 67680, Note_on_c, 1, 70, 88
5, 68150, Note_off_c, 1, 70, 0
5, 68160, Note_on_c, 1, 68, 88
5, 68394, Note_off_c, 1, 68, 0
5, 68400, Note_on_c, 1, 66, 88
5, 68634, Note_off_c, 1, 66, 0
5, 68640, Note_on_c, 1, 65, 88
5, 69110, Note_off_c, 1, 65, 0
5, 69120, Note_on_c, 1, 67, 88
5, 70065, Note_off_c, 1, 67, 0
5, 70080, Note_on_c, 1, 65, 88
5, 70314, Note_off_c, 1, 65, 0
5, 70320, Note_on_c, 1, 66, 88
5, 70554, Note_off_c, 1, 66, 0
5, 70560, Note_on_c, 1, 65, 88
5, 70794, Note_off_c, 1, 65, 0
5, 70800, Note_on_c, 1, 63, 88
5, 71034, Note_off_c, 1, 63, 0
5, 71040, Note_on_c, 1, 62, 88
5, 71985, Note_off_c, 1, 62, 0
5, 71985, End_track
6, 0, Start_track
6, 0, Title_t, "Track 3"
6, 0, Program_c, 2, 6
6, 8640, Note_on_c, 2, 58, 88
6, 9110, Note_off_c, 2, 58, 0
6, 9120, Note_on_c, 2, 53, 88
6, 9590, Note_off_c, 2, 53, 0
6, 9840, Note_on_c, 2, 66, 88
6, 10074, Note_off_c, 2, 66, 0
6, 10080, Note_on_c, 2, 65, 88
6, 10314, Note_off_c, 2, 65, 0
6, 10320, Note_on_c, 2, 63, 88
6, 10554, Note_off_c, 2, 63, 0
6, 10560, Note_on_c, 2, 61, 88
6, 10794, Note_off_c, 2, 61, 0
6, 10800, Note_on_c, 2, 60, 88
6, 11034, Note_off_c, 2, 60, 0
6, 11040, Note_on_c, 2, 58, 88
6, 11274, Note_off_c, 2, 58, 0
6, 11280, Note_on_c, 2, 60, 88
6, 11396, Note_off_c, 2, 60, 0
6, 11400, Note_on_c, 2, 61, 88
6, 11516, Note_off_c, 2, 61, 0
6, 11520, Note_on_c, 2, 63, 88
6, 11754, Note_off_c, 2, 63, 0
6, 11760, Note_on_c, 2, 65, 88
6, 11994, Note_off_c, 2, 65, 0
6, 12000, Note_on_c, 2, 66, 88
6, 12470, Note_off_c, 2, 66, 0
6, 12480, Note_on_c, 2, 65, 88
6, 12714, Note_off_c, 2, 65, 0
6, 12720, Note_on_c, 2, 63, 88
6, 12954, Note_off_c, 2, 63, 0
6, 12960, Note_on_c, 2, 61, 88
6, 13194, Note_off_c, 2, 61, 0
6, 13200, Note_on_c, 2, 60, 88
6, 13434, Note_off_c, 2, 60, 0
6, 13440, Note_on_c, 2, 61, 88
6, 13674, Note_off_c, 2, 61, 0
6, 13680, Note_on_c, 2, 63, 88
6, 13914, Note_off_c, 2, 63, 0
6, 13920, Note_on_c, 2, 65, 88
6, 14154, Note_off_c, 2, 65, 0
6, 14160, Note_on_c, 2, 66, 88
6, 14394, Note_off_c, 2, 66, 0
6, 14400, Note_on_c, 2, 60, 88
6, 14870, Note_off_c, 2, 60, 0
6, 14880, Note_on_c, 2, 65, 88
6, 15594, Note_off_c, 2, 65, 0
6, 15600, Note_on_c, 2, 62, 88
6, 15834, Note_off_c, 2, 62, 0
6, 15840, Note_on_c, 2, 63, 88
6, 16074, Note_off_c, 2, 63, 0
6, 16080, Note_on_c, 2, 65, 88
6, 16554, Note_off_c, 2, 65, 0
6, 16560, Note_on_c, 2, 63, 88
6, 16676, Note_off_c, 2, 63, 0
6, 16680, Note_on_c, 2, 62, 88
6, 16796, Note_off_c, 2, 62, 0
6, 16800, Note_on_c, 2, 63, 88
6, 18225, Note_off_c, 2, 63, 0
6, 18240, Note_on_c, 2, 61, 88
6, 18710, Note_off_c, 2, 61, 0
6, 18720, Note_on_c, 2, 65, 88
6, 20145, Note_off_c, 2, 65, 0
6, 20160, Note_on_c, 2, 70, 88
6, 20394, Note_off_c, 2, 70, 0
6, 20400, Note_on_c, 2, 68, 88
6, 20634, Note_off_c, 2, 68, 0
6, 20640, Note_on_c, 2, 66, 88
6, 20874, Note_off_c, 2, 66, 0
6, 20880, Note_on_c, 2, 65, 88
6, 21114, Note_off_c, 2, 65, 0
6, 21120, Note_on_c, 2, 63, 88
6, 21590, Note_off_c, 2, 63, 0
6, 21600, Note_on_c, 2, 65, 88
6, 22070, Note_off_c, 2, 65, 0
6, 22080, Note_on_c, 2, 63, 88
6, 23025, Note_off_c, 2, 63, 0
6, 23040, Note_on_c, 2, 61, 88
6, 23274, Note_off_c, 2, 61, 0
6, 23280, Note_on_c, 2, 60, 88
6, 23514, Note_off_c, 2, 60, 0
6, 23520, Note_on_c, 2, 61, 88
6, 23754, Note_off_c, 2, 61, 0
6, 23760, Note_on_c, 2, 63, 88
6, 23994, Note_off_c, 2, 63, 0
6, 24000, Note_on_c, 2, 65, 88
6, 24470, Note_off_c, 2, 65, 0
6, 24480, Note_on_c, 2, 62, 88
6, 24950, Note_off_c, 2, 62, 0
6, 24960, Note_on_c, 2, 63, 88
6, 25668, Note_off_c, 2, 63, 0
6, 25680, Note_on_c, 2, 65, 88
6, 25914, Note_off_c, 2, 65, 0
6, 25920, Note_on_c, 2, 66, 88
6, 26154, Note_off_c, 2, 66, 0
6, 26160, Note_on_c, 2, 63, 88
6, 26394, Note_off_c, 2, 63, 0
6, 26400, Note_on_c, 2, 69, 88
6, 26634, Note_off_c, 2, 69, 0
6, 26640, Note_on_c, 2, 67, 88
6, 26756, Note_off_c, 2, 67, 0
6, 26760, Note_on_c, 2, 65, 88
6, 26876, Note_off_c, 2, 65, 0
6, 26880, Note_on_c, 2, 70, 88
6, 27114, Note_off_c, 2, 70, 0
6, 27120, Note_on_c, 2, 77, 88
6, 27354, Note_off_c, 2, 77, 0
6, 27360, Note_on_c, 2, 75, 88
6, 27830, Note_off_c, 2, 75, 0
6, 27840, Note_on_c, 2, 70, 88
6, 32625, Note_off_c, 2, 70, 0
6, 32640, Note_on_c, 2, 68, 88
6, 32874, Note_off_c, 2, 68, 0
6, 32880, Note_on_c, 2, 70, 88
6, 33114, Note_off_c, 2, 70, 0
6, 33120, Note_on_c, 2, 71, 88
6, 33590, Note_off_c, 2, 71, 0
6, 33600, Note_on_c, 2, 70, 88
6, 34545, Note_off_c, 2, 70, 0
6, 34560, Note_on_c, 2, 68, 88
6, 35030, Note_off_c, 2, 68, 0
6, 35040, Note_on_c, 2, 61, 88
6, 35510, Note_off_c, 2, 61, 0
6, 35760, Note_on_c, 2, 77, 88
6, 35994, Note_off_c, 2, 77, 0
6, 36000, Note_on_c, 2, 75, 88
6, 36234, Note_off_c, 2, 75, 0
6, 36240, Note_on_c, 2, 73, 88
6, 36474, Note_off_c, 2, 73, 0
6, 36480, Note_on_c, 2, 72, 88
6, 36714, Note_off_c, 2, 72, 0
6, 36720, Note_on_c, 2, 68, 88
6, 36954, Note_off_c, 2, 68, 0
6, 36960, Note_on_c, 2, 70, 88
6, 37194, Note_off_c, 2, 70, 0
6, 37200, Note_on_c, 2, 72, 88
6, 37434, Note_off_c, 2, 72, 0
6, 37440, Note_on_c, 2, 73, 88
6, 38870, Note_off_c, 2, 73, 0
6, 38880, Note_on_c, 2, 72, 88
6, 39350, Note_off_c, 2, 72, 0
6, 39360, Note_on_c, 2, 73, 88
6, 39594, Note_off_c, 2, 73, 0
6, 39600, Note_on_c, 2, 71, 88
6, 39716, Note_off_c, 2, 71, 0
6, 39720, Note_on_c, 2, 70, 88
6, 39836, Note_off_c, 2, 70, 0
6, 39840, Note_on_c, 2, 71, 88
6, 40554, Note_off_c, 2, 71, 0
6, 40560, Note_on_c, 2, 70, 88
6, 40676, Note_off_c, 2, 70, 0
6, 40680, Note_on_c, 2, 68, 88
6, 40796, Note_off_c, 2, 68, 0
6, 40800, Note_on_c, 2, 70, 88
6, 41034, Note_off_c, 2, 70, 0
6, 41040, Note_on_c, 2, 72, 88
6, 41274, Note_off_c, 2, 72, 0
6, 41280, Note_on_c, 2, 73, 88
6, 41988, Note_off_c, 2, 73, 0
6, 42000, Note_on_c, 2, 72, 88
6, 42116, Note_off_c, 2, 72, 0
6, 42120, Note_on_c, 2, 70, 88
6, 42236, Note_off_c, 2, 70, 0
6, 42240, Note_on_c, 2, 72, 88
6, 42474, Note_off_c, 2, 72, 0
6, 42480, Note_on_c, 2, 74, 88
6, 42714, Note_off_c, 2, 74, 0
6, 42720, Note_on_c, 2, 75, 88
6, 43434, Note_off_c, 2, 75, 0
6, 43440, Note_on_c, 2, 73, 88
6, 43556, Note_off_c, 2, 73, 0
6, 43560, Note_on_c, 2, 72, 88
6, 43676, Note_off_c, 2, 72, 0
6, 43680, Note_on_c, 2, 73, 88
6, 43796, Note_off_c, 2, 73, 0
6, 43800, Note_on_c, 2, 75, 88
6, 43916, Note_off_c, 2, 75, 0
6, 43920, Note_on_c, 2, 73, 88
6, 44036, Note_off_c, 2, 73, 0
6, 44040, Note_on_c, 2, 75, 88
6, 44156, Note_off_c, 2, 75, 0
6, 44160, Note_on_c, 2, 77, 88
6, 44630, Note_off_c, 2, 77, 0
6, 44640, Note_on_c, 2, 75, 88
6, 45353, Note_off_c, 2, 75, 0
6, 45360, Note_on_c, 2, 75, 88
6, 45594, Note_off_c, 2, 75, 0
6, 45600, Note_on_c, 2, 73, 88
6, 45834, Note_off_c, 2, 73, 0
6, 45840, Note_on_c, 2, 72, 88
6, 46074, Note_off_c, 2, 72, 0
6, 46080, Note_on_c, 2, 70, 88
6, 46196, Note_off_c, 2, 70, 0
6, 46200, Note_on_c, 2, 72, 88
6, 46316, Note_off_c, 2, 72, 0
6, 46320, Note_on_c, 2, 73, 88
6, 46436, Note_off_c, 2, 73, 0
6, 46440, Note_on_c, 2, 70, 88
6, 46556, Note_off_c, 2, 70, 0
6, 46560, Note_on_c, 2, 68, 88
6, 46604, Note_off_c, 2, 68, 0
6, 46605, Note_on_c, 2, 66, 88
6, 46649, Note_off_c, 2, 66, 0
6, 46650, Note_on_c, 2, 68, 88
6, 46694, Note_off_c, 2, 68, 0
6, 46695, Note_on_c, 2, 66, 88
6, 46739, Note_off_c, 2, 66, 0
6, 46740, Note_on_c, 2, 68, 88
6, 46784, Note_off_c, 2, 68, 0
6, 46785, Note_on_c, 2, 66, 88
6, 46829, Note_off_c, 2, 66, 0
6, 46830, Note_on_c, 2, 68, 88
6, 46859, Note_off_c, 2, 68, 0
6, 46860, Note_on_c, 2, 66, 88
6, 46889, Note_off_c, 2, 66, 0
6, 46890, Note_on_c, 2, 68, 88
6, 46919, Note_off_c, 2, 68, 0
6, 46920, Note_on_c, 2, 66, 88
6, 47036, Note_off_c, 2, 66, 0
6, 47040, Note_on_c, 2, 65, 88
6, 47510, Note_off_c, 2, 65, 0
6, 49200, Note_on_c, 2, 70, 88
6, 49434, Note_off_c, 2, 70, 0
6, 49440, Note_on_c, 2, 68, 88
6, 49674, Note_off_c, 2, 68, 0
6, 49680, Note_on_c, 2, 66, 88
6, 49914, Note_off_c, 2, 66, 0
6, 49920, Note_on_c, 2, 65, 88
6, 50390, Note_off_c, 2, 65, 0
6, 50400, Note_on_c, 2, 66, 88
6, 50870, Note_off_c, 2, 66, 0
6, 50880, Note_on_c, 2, 65, 88
6, 51825, Note_off_c, 2, 65, 0
6, 51840, Note_on_c, 2, 63, 88
6, 52310, Note_off_c, 2, 63, 0
6, 52320, Note_on_c, 2, 58, 88
6, 52790, Note_off_c, 2, 58, 0
6, 53040, Note_on_c, 2, 73, 88
6, 53274, Note_off_c, 2, 73, 0
6, 53280, Note_on_c, 2, 72, 88
6, 53514, Note_off_c, 2, 72, 0
6, 53520, Note_on_c, 2, 70, 88
6, 53754, Note_off_c, 2, 70, 0
6, 53760, Note_on_c, 2, 69, 88
6, 53994, Note_off_c, 2, 69, 0
6, 54000, Note_on_c, 2, 67, 88
6, 54234, Note_off_c, 2, 67, 0
6, 54240, Note_on_c, 2, 69, 88
6, 54474, Note_off_c, 2, 69, 0
6, 54480, Note_on_c, 2, 70, 88
6, 54714, Note_off_c, 2, 70, 0
6, 54720, Note_on_c, 2, 72, 88
6, 54954, Note_off_c, 2, 72, 0
6, 54960, Note_on_c, 2, 75, 88
6, 55194, Note_off_c, 2, 75, 0
6, 55200, Note_on_c, 2, 73, 88
6, 55434, Note_off_c, 2, 73, 0
6, 55440, Note_on_c, 2, 71, 88
6, 55674, Note_off_c, 2, 71, 0
6, 55680, Note_on_c, 2, 70, 88
6, 55914, Note_off_c, 2, 70, 0
6, 55920, Note_on_c, 2, 73, 88
6, 56154, Note_off_c, 2, 73, 0
6, 56160, Note_on_c, 2, 72, 88
6, 56394, Note_off_c, 2, 72, 0
6, 56400, Note_on_c, 2, 70, 88
6, 56634, Note_off_c, 2, 70, 0
6, 56640, Note_on_c, 2, 69, 88
6, 57110, Note_off_c, 2, 69, 0
6, 57120, Note_on_c, 2, 70, 88
6, 57590, Note_off_c, 2, 70, 0
6, 57600, Note_on_c, 2, 63, 88
6, 58070, Note_off_c, 2, 63, 0
6, 58080, Note_on_c, 2, 64, 88
6, 58550, Note_off_c, 2, 64, 0
6, 58560, Note_on_c, 2, 65, 88
6, 58794, Note_off_c, 2, 65, 0
6, 58800, Note_on_c, 2, 69, 88
6, 59034, Note_off_c, 2, 69, 0
6, 59040, Note_on_c, 2, 70, 88
6, 59274, Note_off_c, 2, 70, 0
6, 59280, Note_on_c, 2, 72, 88
6, 59754, Note_off_c, 2, 72, 0
6, 59760, Note_on_c, 2, 70, 88
6, 60230, Note_off_c, 2, 70, 0
6, 60240, Note_on_c, 2, 69, 88
6, 60474, Note_off_c, 2, 69, 0
6, 60480, Note_on_c, 2, 70, 88
6, 60714, Note_off_c, 2, 70, 0
6, 60720, Note_on_c, 2, 68, 88
6, 60954, Note_off_c, 2, 68, 0
6, 60960, Note_on_c, 2, 66, 88
6, 61194, Note_off_c, 2, 66, 0
6, 61200, Note_on_c, 2, 65, 88
6, 61434, Note_off_c, 2, 65, 0
6, 61440, Note_on_c, 2, 63, 88
6, 61674, Note_off_c, 2, 63, 0
6, 61680, Note_on_c, 2, 62, 88
6, 61796, Note_off_c, 2, 62, 0
6, 61800, Note_on_c, 2, 63, 88
6, 61916, Note_off_c, 2, 63, 0
6, 61920, Note_on_c, 2, 65, 88
6, 62633, Note_off_c, 2, 65, 0
6, 62640, Note_on_c, 2, 65, 88
6, 62874, Note_off_c, 2, 65, 0
6, 62880, Note_on_c, 2, 63, 88
6, 63114, Note_off_c, 2, 63, 0
6, 63120, Note_on_c, 2, 61, 88
6, 63354, Note_off_c, 2, 61, 0
6, 63360, Note_on_c, 2, 60, 88
6, 63594, Note_off_c, 2, 60, 0
6, 63600, Note_on_c, 2, 63, 88
6, 64070, Note_off_c, 2, 63, 0
6, 64080, Note_on_c, 2, 61, 88
6, 64314, Note_off_c, 2, 61, 0
6, 64320, Note_on_c, 2, 60, 88
6, 64790, Note_off_c, 2, 60, 0
6, 64800, Note_on_c, 2, 58, 88
6, 65270, Note_off_c, 2, 58, 0
6, 65280, Note_on_c, 2, 53, 88
6, 65750, Note_off_c, 2, 53, 0
6, 66000, Note_on_c, 2, 66, 88
6, 66234, Note_off_c, 2, 66, 0
6, 66240, Note_on_c, 2, 65, 88
6, 66474, Note_off_c, 2, 65, 0
6, 66480, Note_on_c, 2, 63, 88
6, 66714, Note_off_c, 2, 63, 0
6, 66720, Note_on_c, 2, 61, 88
6, 66954, Note_off_c, 2, 61, 0
6, 66960, Note_on_c, 2, 60, 88
6, 67194, Note_off_c, 2, 60, 0
6, 67200, Note_on_c, 2, 61, 88
6, 67316, Note_off_c, 2, 61, 0
6, 67320, Note_on_c, 2, 63, 88
6, 67436, Note_off_c, 2, 63, 0
6, 67440, Note_on_c, 2, 65, 88
6, 67910, Note_off_c, 2, 65, 0
6, 67920, Note_on_c, 2, 66, 88
6, 68154, Note_off_c, 2, 66, 0
6, 68160, Note_on_c, 2, 65, 88
6, 68394, Note_off_c, 2, 65, 0
6, 68400, Note_on_c, 2, 63, 88
6, 68634, Note_off_c, 2, 63, 0
6, 68640, Note_on_c, 2, 61, 88
6, 69110, Note_off_c, 2, 61, 0
6, 69120, Note_on_c, 2, 67, 88
6, 69590, Note_off_c, 2, 67, 0
6, 69600, Note_on_c, 2, 60, 88
6, 71025, Note_off_c, 2, 60, 0
6, 71040, Note_on_c, 2, 58, 88
6, 71985, Note_off_c, 2, 58, 0
6, 71985, End_track
7, 0, Start_track
7, 0, Title_t, "Track 4"
7, 0, Program_c, 3, 6
7, 10560, Note_on_c, 3, 53, 88
7, 11030, Note_off_c, 3, 53, 0
7, 11040, Note_on_c, 3, 46, 88
7, 11510, Note_off_c, 3, 46, 0
7, 11760, Note_on_c, 3, 61, 88
7, 11994, Note_off_c, 3, 61, 0
7, 12000, Note_on_c, 3, 60, 88
7, 12234, Note_off_c, 3, 60, 0
7, 12240, Note_on_c, 3, 58, 88
7, 12474, Note_off_c, 3, 58, 0
7, 12480, Note_on_c, 3, 57, 88
7, 12714, Note_off_c, 3, 57, 0
7, 12720, Note_on_c, 3, 53, 88
7, 12954, Note_off_c, 3, 53, 0
7, 12960, Note_on_c, 3, 55, 88
7, 13194, Note_off_c, 3, 55, 0
7, 13200, Note_on_c, 3, 57, 88
7, 13434, Note_off_c, 3, 57, 0
7, 13440, Note_on_c, 3, 58, 88
7, 13674, Note_off_c, 3, 58, 0
7, 13680, Note_on_c, 3, 48, 88
7, 13914, Note_off_c, 3, 48, 0
7, 13920, Note_on_c, 3, 49, 88
7, 14154, Note_off_c, 3, 49, 0
7, 14160, Note_on_c, 3, 51, 88
7, 14394, Note_off_c, 3, 51, 0
7, 14400, Note_on_c, 3, 53, 88
7, 14634, Note_off_c, 3, 53, 0
7, 14640, Note_on_c, 3, 54, 88
7, 14874, Note_off_c, 3, 54, 0
7, 14880, Note_on_c, 3, 56, 88
7, 15350, Note_off_c, 3, 56, 0
7, 15360, Note_on_c, 3, 58, 88
7, 17265, Note_off_c, 3, 58, 0
7, 17280, Note_on_c, 3, 60, 88
7, 17514, Note_off_c, 3, 60, 0
7, 17520, Note_on_c, 3, 48, 88
7, 17754, Note_off_c, 3, 48, 0
7, 17760, Note_on_c, 3, 49, 88
7, 17994, Note_off_c, 3, 49, 0
7, 18000, Note_on_c, 3, 51, 88
7, 18234, Note_off_c, 3, 51, 0
7, 18240, Note_on_c, 3, 53, 88
7, 18474, Note_off_c, 3, 53, 0
7, 18480, Note_on_c, 3, 51, 88
7, 18714, Note_off_c, 3, 51, 0
7, 18720, Note_on_c, 3, 53, 88
7, 18954, Note_off_c, 3, 53, 0
7, 18960, Note_on_c, 3, 54, 88
7, 19194, Note_off_c, 3, 54, 0
7, 19200, Note_on_c, 3, 56, 88
7, 19434, Note_off_c, 3, 56, 0
7, 19440, Note_on_c, 3, 58, 88
7, 19556, Note_off_c, 3, 58, 0
7, 19560, Note_on_c, 3, 60, 88
7, 19676, Note_off_c, 3, 60, 0
7, 19680, Note_on_c, 3, 58, 88
7, 19914, Note_off_c, 3, 58, 0
7, 19920, Note_on_c, 3, 56, 88
7, 20154, Note_off_c, 3, 56, 0
7, 20160, Note_on_c, 3, 54, 88
7, 20394, Note_off_c, 3, 54, 0
7, 20400, Note_on_c, 3, 56, 88
7, 20634, Note_off_c, 3, 56, 0
7, 20640, Note_on_c, 3, 58, 88
7, 20874, Note_off_c, 3, 58, 0
7, 20880, Note_on_c, 3, 60, 88
7, 20996, Note_off_c, 3, 60, 0
7, 21000, Note_on_c, 3, 61, 88
7, 21116, Note_off_c, 3, 61, 0
7, 21120, Note_on_c, 3, 56, 88
7, 23510, Note_off_c, 3, 56, 0
7, 26880, Note_on_c, 3, 58, 88
7, 27350, Note_off_c, 3, 58, 0
7, 27360, Note_on_c, 3, 53, 88
7, 27830, Note_off_c, 3, 53, 0
7, 28080, Note_on_c, 3, 66, 88
7, 28314, Note_off_c, 3, 66, 0
7, 28320, Note_on_c, 3, 65, 88
7, 28554, Note_off_c, 3, 65, 0
7, 28560, Note_on_c, 3, 63, 88
7, 28794, Note_off_c, 3, 63, 0
7, 28800, Note_on_c, 3, 62, 88
7, 29034, Note_off_c, 3, 62, 0
7, 29040, Note_on_c, 3, 58, 88
7, 29274, Note_off_c, 3, 58, 0
7, 29280, Note_on_c, 3, 60, 88
7, 29514, Note_off_c, 3, 60, 0
7, 29520, Note_on_c, 3, 62, 88
7, 29754, Note_off_c, 3, 62, 0
7, 29760, Note_on_c, 3, 63, 88
7, 29994, Note_off_c, 3, 63, 0
7, 30000, Note_on_c, 3, 53, 88
7, 30234, Note_off_c, 3, 53, 0
7, 30240, Note_on_c, 3, 54, 88
7, 30474, Note_off_c, 3, 54, 0
7, 30480, Note_on_c, 3, 56, 88
7, 30714, Note_off_c, 3, 56, 0
7, 30720, Note_on_c, 3, 58, 88
7, 30954, Note_off_c, 3, 58, 0
7, 30960, Note_on_c, 3, 59, 88
7, 31194, Note_off_c, 3, 59, 0
7, 31200, Note_on_c, 3, 61, 88
7, 31670, Note_off_c, 3, 61, 0
7, 31680, Note_on_c, 3, 63, 88
7, 31914, Note_off_c, 3, 63, 0
7, 31920, Note_on_c, 3, 55, 88
7, 32154, Note_off_c, 3, 55, 0
7, 32160, Note_on_c, 3, 56, 88
7, 32394, Note_off_c, 3, 56, 0
7, 32400, Note_on_c, 3, 58, 88
7, 32634, Note_off_c, 3, 58, 0
7, 32640, Note_on_c, 3, 59, 88
7, 32874, Note_off_c, 3, 59, 0
7, 32880, Note_on_c, 3, 58, 88
7, 33114, Note_off_c, 3, 58, 0
7, 33120, Note_on_c, 3, 56, 88
7, 33354, Note_off_c, 3, 56, 0
7, 33360, Note_on_c, 3, 54, 88
7, 33594, Note_off_c, 3, 54, 0
7, 33600, Note_on_c, 3, 52, 88
7, 34070, Note_off_c, 3, 52, 0
7, 34080, Note_on_c, 3, 51, 88
7, 34794, Note_off_c, 3, 51, 0
7, 34800, Note_on_c, 3, 56, 88
7, 35034, Note_off_c, 3, 56, 0
7, 35040, Note_on_c, 3, 54, 88
7, 35274, Note_off_c, 3, 54, 0
7, 35280, Note_on_c, 3, 53, 88
7, 35514, Note_off_c, 3, 53, 0
7, 35520, Note_on_c, 3, 51, 88
7, 35754, Note_off_c, 3, 51, 0
7, 35760, Note_on_c, 3, 49, 88
7, 35994, Note_off_c, 3, 49, 0
7, 36000, Note_on_c, 3, 58, 88
7, 36470, Note_off_c, 3, 58, 0
7, 36480, Note_on_c, 3, 56, 88
7, 36714, Note_off_c, 3, 56, 0
7, 36720, Note_on_c, 3, 66, 88
7, 36954, Note_off_c, 3, 66, 0
7, 36960, Note_on_c, 3, 65, 88
7, 37194, Note_off_c, 3, 65, 0
7, 37200, Note_on_c, 3, 63, 88
7, 37434, Note_off_c, 3, 63, 0
7, 37440, Note_on_c, 3, 61, 88
7, 37674, Note_off_c, 3, 61, 0
7, 37680, Note_on_c, 3, 66, 88
7, 38150, Note_off_c, 3, 66, 0
7, 38160, Note_on_c, 3, 65, 88
7, 38394, Note_off_c, 3, 65, 0
7, 38400, Note_on_c, 3, 63, 88
7, 39345, Note_off_c, 3, 63, 0
7, 39360, Note_on_c, 3, 56, 88
7, 39830, Note_off_c, 3, 56, 0
7, 39840, Note_on_c, 3, 68, 88
7, 40074, Note_off_c, 3, 68, 0
7, 40080, Note_on_c, 3, 66, 88
7, 40196, Note_off_c, 3, 66, 0
7, 40200, Note_on_c, 3, 65, 88
7, 40316, Note_off_c, 3, 65, 0
7, 40320, Note_on_c, 3, 66, 88
7, 40554, Note_off_c, 3, 66, 0
7, 40560, Note_on_c, 3, 61, 88
7, 41030, Note_off_c, 3, 61, 0
7, 41040, Note_on_c, 3, 63, 88
7, 41274, Note_off_c, 3, 63, 0
7, 41280, Note_on_c, 3, 56, 88
7, 41514, Note_off_c, 3, 56, 0
7, 41520, Note_on_c, 3, 68, 88
7, 41636, Note_off_c, 3, 68, 0
7, 41640, Note_on_c, 3, 66, 88
7, 41756, Note_off_c, 3, 66, 0
7, 41760, Note_on_c, 3, 68, 88
7, 41994, Note_off_c, 3, 68, 0
7, 42000, Note_on_c, 3, 63, 88
7, 42474, Note_off_c, 3, 63, 0
7, 42480, Note_on_c, 3, 65, 88
7, 42714, Note_off_c, 3, 65, 0
7, 42720, Note_on_c, 3, 58, 88
7, 43434, Note_off_c, 3, 58, 0
7, 43440, Note_on_c, 3, 65, 88
7, 43910, Note_off_c, 3, 65, 0
7, 43920, Note_on_c, 3, 58, 88
7, 44154, Note_off_c, 3, 58, 0
7, 44400, Note_on_c, 3, 73, 88
7, 44634, Note_off_c, 3, 73, 0
7, 44640, Note_on_c, 3, 72, 88
7, 44874, Note_off_c, 3, 72, 0
7, 44880, Note_on_c, 3, 70, 88
7, 45114, Note_off_c, 3, 70, 0
7, 45120, Note_on_c, 3, 69, 88
7, 45236, Note_off_c, 3, 69, 0
7, 45240, Note_on_c, 3, 70, 88
7, 45356, Note_off_c, 3, 70, 0
7, 45360, Note_on_c, 3, 72, 88
7, 45476, Note_off_c, 3, 72, 0
7, 45480, Note_on_c, 3, 69, 88
7, 45596, Note_off_c, 3, 69, 0
7, 45600, Note_on_c, 3, 65, 88
7, 45834, Note_off_c, 3, 65, 0
7, 45840, Note_on_c, 3, 68, 88
7, 46074, Note_off_c, 3, 68, 0
7, 46080, Note_on_c, 3, 66, 88
7, 46314, Note_off_c, 3, 66, 0
7, 46320, Note_on_c, 3, 65, 88
7, 46554, Note_off_c, 3, 65, 0
7, 46560, Note_on_c, 3, 63, 88
7, 47274, Note_off_c, 3, 63, 0
7, 47280, Note_on_c, 3, 62, 88
7, 47396, Note_off_c, 3, 62, 0
7, 47400, Note_on_c, 3, 60, 88
7, 47516, Note_off_c, 3, 60, 0
7, 47520, Note_on_c, 3, 62, 88
7, 47990, Note_off_c, 3, 62, 0
7, 48000, Note_on_c, 3, 63, 88
7, 48470, Note_off_c, 3, 63, 0
7, 48480, Note_on_c, 3, 62, 88
7, 48950, Note_off_c, 3, 62, 0
7, 48960, Note_on_c, 3, 63, 88
7, 49194, Note_off_c, 3, 63, 0
7, 49920, Note_on_c, 3, 53, 88
7, 50390, Note_off_c, 3, 53, 0
7, 50400, Note_on_c, 3, 46, 88
7, 50870, Note_off_c, 3, 46, 0
7, 51120, Note_on_c, 3, 59, 88
7, 51354, Note_off_c, 3, 59, 0
7, 51360, Note_on_c, 3, 58, 88
7, 51594, Note_off_c, 3, 58, 0
7, 51600, Note_on_c, 3, 56, 88
7, 51834, Note_off_c, 3, 56, 0
7, 51840, Note_on_c, 3, 54, 88
7, 52074, Note_off_c, 3, 54, 0
7, 52080, Note_on_c, 3, 53, 88
7, 52314, Note_off_c, 3, 53, 0
7, 52320, Note_on_c, 3, 54, 88
7, 52554, Note_off_c, 3, 54, 0
7, 52560, Note_on_c, 3, 56, 88
7, 52794, Note_off_c, 3, 56, 0
7, 52800, Note_on_c, 3, 58, 88
7, 53034, Note_off_c, 3, 58, 0
7, 53040, Note_on_c, 3, 60, 88
7, 53156, Note_off_c, 3, 60, 0
7, 53160, Note_on_c, 3, 61, 88
7, 53276, Note_off_c, 3, 61, 0
7, 53280, Note_on_c, 3, 63, 88
7, 53994, Note_off_c, 3, 63, 0
7, 54000, Note_on_c, 3, 61, 88
7, 54234, Note_off_c, 3, 61, 0
7, 54240, Note_on_c, 3, 60, 88
7, 54474, Note_off_c, 3, 60, 0
7, 54480, Note_on_c, 3, 58, 88
7, 54714, Note_off_c, 3, 58, 0
7, 54720, Note_on_c, 3, 57, 88
7, 55190, Note_off_c, 3, 57, 0
7, 55200, Note_on_c, 3, 56, 88
7, 56150, Note_off_c, 3, 56, 0
7, 56160, Note_on_c, 3, 54, 88
7, 56874, Note_off_c, 3, 54, 0
7, 56880, Note_on_c, 3, 53, 88
7, 57114, Note_off_c, 3, 53, 0
7, 57120, Note_on_c, 3, 51, 88
7, 57354, Note_off_c, 3, 51, 0
7, 57360, Note_on_c, 3, 49, 88
7, 57594, Note_off_c, 3, 49, 0
7, 57600, Note_on_c, 3, 58, 88
7, 58308, Note_off_c, 3, 58, 0
7, 58320, Note_on_c, 3, 60, 88
7, 58554, Note_off_c, 3, 60, 0
7, 58560, Note_on_c, 3, 61, 88
7, 58794, Note_off_c, 3, 61, 0
7, 58800, Note_on_c, 3, 60, 88
7, 59034, Note_off_c, 3, 60, 0
7, 59040, Note_on_c, 3, 61, 88
7, 59274, Note_off_c, 3, 61, 0
7, 59280, Note_on_c, 3, 63, 88
7, 59514, Note_off_c, 3, 63, 0
7, 59520, Note_on_c, 3, 65, 88
7, 60950, Note_off_c, 3, 65, 0
7, 60960, Note_on_c, 3, 63, 88
7, 61194, Note_off_c, 3, 63, 0
7, 61200, Note_on_c, 3, 61, 88
7, 61434, Note_off_c, 3, 61, 0
7, 61440, Note_on_c, 3, 59, 88
7, 62385, Note_off_c, 3, 59, 0
7, 62400, Note_on_c, 3, 58, 88
7, 62634, Note_off_c, 3, 58, 0
7, 62640, Note_on_c, 3, 61, 88
7, 62874, Note_off_c, 3, 61, 0
7, 62880, Note_on_c, 3, 60, 88
7, 63114, Note_off_c, 3, 60, 0
7, 63120, Note_on_c, 3, 58, 88
7, 63354, Note_off_c, 3, 58, 0
7, 63360, Note_on_c, 3, 57, 88
7, 63830, Note_off_c, 3, 57, 0
7, 63840, Note_on_c, 3, 58, 88
7, 64310, Note_off_c, 3, 58, 0
7, 64320, Note_on_c, 3, 57, 88
7, 64790, Note_off_c, 3, 57, 0
7, 65280, Note_on_c, 3, 53, 88
7, 65750, Note_off_c, 3, 53, 0
7, 65760, Note_on_c, 3, 46, 88
7, 66230, Note_off_c, 3, 46, 0
7, 66480, Note_on_c, 3, 60, 88
7, 66714, Note_off_c, 3, 60, 0
7, 66720, Note_on_c, 3, 58, 88
7, 66954, Note_off_c, 3, 58, 0
7, 66960, Note_on_c, 3, 57, 88
7, 67194, Note_off_c, 3, 57, 0
7, 67200, Note_on_c, 3, 58, 88
7, 67434, Note_off_c, 3, 58, 0
7, 67440, Note_on_c, 3, 60, 88
7, 67674, Note_off_c, 3, 60, 0
7, 67680, Note_on_c, 3, 61, 88
7, 67914, Note_off_c, 3, 61, 0
7, 67920, Note_on_c, 3, 63, 88
7, 68154, Note_off_c, 3, 63, 0
7, 68160, Note_on_c, 3, 58, 88
7, 69105, Note_off_c, 3, 58, 0
7, 70080, Note_on_c, 3, 60, 88
7, 70550, Note_off_c, 3, 60, 0
7, 70560, Note_on_c, 3, 53, 88
7, 71985, Note_off_c, 3, 53, 0
7, 71985, End_track
8, 0, Start_track
8, 0, Title_t, "Track 5"
8, 0, Program_c, 4, 6
8, 13440, Note_on_c, 4, 46, 88
8, 13910, Note_off_c, 4, 46, 0
8, 13920, Note_on_c, 4, 41, 88
8, 14390, Note_off_c, 4, 41, 0
8, 14640, Note_on_c, 4, 54, 88
8, 14874, Note_off_c, 4, 54, 0
8, 14880, Note_on_c, 4, 53, 88
8, 15114, Note_off_c, 4, 53, 0
8, 15120, Note_on_c, 4, 51, 88
8, 15354, Note_off_c, 4, 51, 0
8, 15360, Note_on_c, 4, 50, 88
8, 15594, Note_off_c, 4, 50, 0
8, 15600, Note_on_c, 4, 46, 88
8, 15834, Note_off_c, 4, 46, 0
8, 15840, Note_on_c, 4, 48, 88
8, 16074, Note_off_c, 4, 48, 0
8, 16080, Note_on_c, 4, 50, 88
8, 16314, Note_off_c, 4, 50, 0
8, 16320, Note_on_c, 4, 51, 88
8, 16554, Note_off_c, 4, 51, 0
8, 16560, Note_on_c, 4, 53, 88
8, 16794, Note_off_c, 4, 53, 0
8, 16800, Note_on_c, 4, 51, 88
8, 17034, Note_off_c, 4, 51, 0
8, 17040, Note_on_c, 4, 49, 88
8, 17274, Note_off_c, 4, 49, 0
8, 17280, Note_on_c, 4, 48, 88
8, 17514, Note_off_c, 4, 48, 0
8, 17520, Note_on_c, 4, 44, 88
8, 17754, Note_off_c, 4, 44, 0
8, 17760, Note_on_c, 4, 46, 88
8, 17994, Note_off_c, 4, 46, 0
8, 18000, Note_on_c, 4, 48, 88
8, 18234, Note_off_c, 4, 48, 0
8, 18240, Note_on_c, 4, 49, 88
8, 18710, Note_off_c, 4, 49, 0
8, 18720, Note_on_c, 4, 46, 88
8, 19190, Note_off_c, 4, 46, 0
8, 19200, Note_on_c, 4, 53, 88
8, 19670, Note_off_c, 4, 53, 0
8, 19680, Note_on_c, 4, 49, 88
8, 20150, Note_off_c, 4, 49, 0
8, 20160, Note_on_c, 4, 51, 88
8, 20394, Note_off_c, 4, 51, 0
8, 20400, Note_on_c, 4, 53, 88
8, 20634, Note_off_c, 4, 53, 0
8, 20640, Note_on_c, 4, 54, 88
8, 21354, Note_off_c, 4, 54, 0
8, 21360, Note_on_c, 4, 53, 88
8, 21594, Note_off_c, 4, 53, 0
8, 21600, Note_on_c, 4, 51, 88
8, 21834, Note_off_c, 4, 51, 0
8, 21840, Note_on_c, 4, 49, 88
8, 22074, Note_off_c, 4, 49, 0
8, 22080, Note_on_c, 4, 56, 88
8, 22550, Note_off_c, 4, 56, 0
8, 22560, Note_on_c, 4, 44, 88
8, 23030, Note_off_c, 4, 44, 0
8, 23040, Note_on_c, 4, 49, 88
8, 23510, Note_off_c, 4, 49, 0
8, 29760, Note_on_c, 4, 51, 88
8, 30230, Note_off_c, 4, 51, 0
8, 30240, Note_on_c, 4, 46, 88
8, 30710, Note_off_c, 4, 46, 0
8, 30960, Note_on_c, 4, 59, 88
8, 31194, Note_off_c, 4, 59, 0
8, 31200, Note_on_c, 4, 58, 88
8, 31434, Note_off_c, 4, 58, 0
8, 31440, Note_on_c, 4, 56, 88
8, 31674, Note_off_c, 4, 56, 0
8, 31680, Note_on_c, 4, 55, 88
8, 31914, Note_off_c, 4, 55, 0
8, 31920, Note_on_c, 4, 51, 88
8, 32154, Note_off_c, 4, 51, 0
8, 32160, Note_on_c, 4, 53, 88
8, 32394, Note_off_c, 4, 53, 0
8, 32400, Note_on_c, 4, 55, 88
8, 32634, Note_off_c, 4, 55, 0
8, 32640, Note_on_c, 4, 56, 88
8, 32874, Note_off_c, 4, 56, 0
8, 32880, Note_on_c, 4, 54, 88
8, 33114, Note_off_c, 4, 54, 0
8, 33120, Note_on_c, 4, 52, 88
8, 33354, Note_off_c, 4, 52, 0
8, 33360, Note_on_c, 4, 51, 88
8, 33594, Note_off_c, 4, 51, 0
8, 33600, Note_on_c, 4, 49, 88
8, 33834, Note_off_c, 4, 49, 0
8, 33840, Note_on_c, 4, 46, 88
8, 34074, Note_off_c, 4, 46, 0
8, 34080, Note_on_c, 4, 51, 88
8, 34314, Note_off_c, 4, 51, 0
8, 34320, Note_on_c, 4, 39, 88
8, 34554, Note_off_c, 4, 39, 0
8, 34560, Note_on_c, 4, 44, 88
8, 35030, Note_off_c, 4, 44, 0
8, 35040, Note_on_c, 4, 46, 88
8, 35274, Note_off_c, 4, 46, 0
8, 35280, Note_on_c, 4, 44, 88
8, 35514, Note_off_c, 4, 44, 0
8, 35520, Note_on_c, 4, 42, 88
8, 35990, Note_off_c, 4, 42, 0
8, 36000, Note_on_c, 4, 54, 88
8, 36714, Note_off_c, 4, 54, 0
8, 36720, Note_on_c, 4, 53, 88
8, 36954, Note_off_c, 4, 53, 0
8, 36960, Note_on_c, 4, 54, 88
8, 37194, Note_off_c, 4, 54, 0
8, 37200, Note_on_c, 4, 56, 88
8, 37434, Note_off_c, 4, 56, 0
8, 37440, Note_on_c, 4, 58, 88
8, 37910, Note_off_c, 4, 58, 0
8, 37920, Note_on_c, 4, 54, 88
8, 38390, Note_off_c, 4, 54, 0
8, 38400, Note_on_c, 4, 56, 88
8, 38634, Note_off_c, 4, 56, 0
8, 38640, Note_on_c, 4, 58, 88
8, 38874, Note_off_c, 4, 58, 0
8, 38880, Note_on_c, 4, 56, 88
8, 39114, Note_off_c, 4, 56, 0
8, 39120, Note_on_c, 4, 54, 88
8, 39354, Note_off_c, 4, 54, 0
8, 39360, Note_on_c, 4, 53, 88
8, 40068, Note_off_c, 4, 53, 0
8, 40080, Note_on_c, 4, 51, 88
8, 40196, Note_off_c, 4, 51, 0
8, 40200, Note_on_c, 4, 49, 88
8, 40316, Note_off_c, 4, 49, 0
8, 40320, Note_on_c, 4, 51, 88
8, 40554, Note_off_c, 4, 51, 0
8, 40560, Note_on_c, 4, 53, 88
8, 40794, Note_off_c, 4, 53, 0
8, 40800, Note_on_c, 4, 54, 88
8, 41514, Note_off_c, 4, 54, 0
8, 41520, Note_on_c, 4, 53, 88
8, 41636, Note_off_c, 4, 53, 0
8, 41640, Note_on_c, 4, 51, 88
8, 41756, Note_off_c, 4, 51, 0
8, 41760, Note_on_c, 4, 53, 88
8, 41994, Note_off_c, 4, 53, 0
8, 42000, Note_on_c, 4, 55, 88
8, 42234, Note_off_c, 4, 55, 0
8, 42240, Note_on_c, 4, 56, 88
8, 42948, Note_off_c, 4, 56, 0
8, 42960, Note_on_c, 4, 55, 88
8, 43076, Note_off_c, 4, 55, 0
8, 43080, Note_on_c, 4, 53, 88
8, 43196, Note_off_c, 4, 53, 0
8, 43200, Note_on_c, 4, 55, 88
8, 43434, Note_off_c, 4, 55, 0
8, 43440, Note_on_c, 4, 57, 88
8, 43674, Note_off_c, 4, 57, 0
8, 43680, Note_on_c, 4, 58, 88
8, 43796, Note_off_c, 4, 58, 0
8, 43800, Note_on_c, 4, 60, 88
8, 43916, Note_off_c, 4, 60, 0
8, 43920, Note_on_c, 4, 58, 88
8, 44036, Note_off_c, 4, 58, 0
8, 44040, Note_on_c, 4, 60, 88
8, 44156, Note_off_c, 4, 60, 0
8, 44160, Note_on_c, 4, 61, 88
8, 44276, Note_off_c, 4, 61, 0
8, 44280, Note_on_c, 4, 60, 88
8, 44396, Note_off_c, 4, 60, 0
8, 44400, Note_on_c, 4, 58, 88
8, 44516, Note_off_c, 4, 58, 0
8, 44520, Note_on_c, 4, 56, 88
8, 44636, Note_off_c, 4, 56, 0
8, 44640, Note_on_c, 4, 54, 88
8, 44756, Note_off_c, 4, 54, 0
8, 44760, Note_on_c, 4, 53, 88
8, 44876, Note_off_c, 4, 53, 0
8, 44880, Note_on_c, 4, 54, 88
8, 44996, Note_off_c, 4, 54, 0
8, 45000, Note_on_c, 4, 51, 88
8, 45116, Note_off_c, 4, 51, 0
8, 45120, Note_on_c, 4, 53, 88
8, 45590, Note_off_c, 4, 53, 0
8, 45600, Note_on_c, 4, 46, 88
8, 46070, Note_off_c, 4, 46, 0
8, 46320, Note_on_c, 4, 61, 88
8, 46554, Note_off_c, 4, 61, 0
8, 46560, Note_on_c, 4, 60, 88
8, 46794, Note_off_c, 4, 60, 0
8, 46800, Note_on_c, 4, 58, 88
8, 47034, Note_off_c, 4, 58, 0
8, 47040, Note_on_c, 4, 57, 88
8, 47274, Note_off_c, 4, 57, 0
8, 47280, Note_on_c, 4, 56, 88
8, 47750, Note_off_c, 4, 56, 0
8, 47760, Note_on_c, 4, 54, 88
8, 47876, Note_off_c, 4, 54, 0
8, 47880, Note_on_c, 4, 53, 88
8, 47996, Note_off_c, 4, 53, 0
8, 48000, Note_on_c, 4, 54, 88
8, 48234, Note_off_c, 4, 54, 0
8, 48240, Note_on_c, 4, 56, 88
8, 48474, Note_off_c, 4, 56, 0
8, 48480, Note_on_c, 4, 58, 88
8, 48950, Note_off_c, 4, 58, 0
8, 48960, Note_on_c, 4, 51, 88
8, 49430, Note_off_c, 4, 51, 0
8, 49440, Note_on_c, 4, 44, 88
8, 50154, Note_off_c, 4, 44, 0
8, 50160, Note_on_c, 4, 42, 88
8, 50394, Note_off_c, 4, 42, 0
8, 50400, Note_on_c, 4, 41, 88
8, 50634, Note_off_c, 4, 41, 0
8, 50640, Note_on_c, 4, 39, 88
8, 50874, Note_off_c, 4, 39, 0
8, 50880, Note_on_c, 4, 46, 88
8, 51825, Note_off_c, 4, 46, 0
8, 51840, Note_on_c, 4, 51, 88
8, 52548, Note_off_c, 4, 51, 0
8, 52560, Note_on_c, 4, 53, 88
8, 52794, Note_off_c, 4, 53, 0
8, 52800, Note_on_c, 4, 54, 88
8, 53994, Note_off_c, 4, 54, 0
8, 54000, Note_on_c, 4, 53, 88
8, 54234, Note_off_c, 4, 53, 0
8, 54240, Note_on_c, 4, 51, 88
8, 54474, Note_off_c, 4, 51, 0
8, 54480, Note_on_c, 4, 49, 88
8, 54714, Note_off_c, 4, 49, 0
8, 54720, Note_on_c, 4, 48, 88
8, 55190, Note_off_c, 4, 48, 0
8, 55200, Note_on_c, 4, 53, 88
8, 55670, Note_off_c, 4, 53, 0
8, 55680, Note_on_c, 4, 46, 88
8, 56150, Note_off_c, 4, 46, 0
8, 56160, Note_on_c, 4, 51, 88
8, 56874, Note_off_c, 4, 51, 0
8, 56880, Note_on_c, 4, 49, 88
8, 57114, Note_off_c, 4, 49, 0
8, 57120, Note_on_c, 4, 48, 88
8, 57354, Note_off_c, 4, 48, 0
8, 57360, Note_on_c, 4, 46, 88
8, 57594, Note_off_c, 4, 46, 0
8, 57600, Note_on_c, 4, 54, 88
8, 58070, Note_off_c, 4, 54, 0
8, 58080, Note_on_c, 4, 55, 88
8, 58550, Note_off_c, 4, 55, 0
8, 58560, Note_on_c, 4, 53, 88
8, 59990, Note_off_c, 4, 53, 0
8, 60000, Note_on_c, 4, 41, 88
8, 60470, Note_off_c, 4, 41, 0
8, 60480, Note_on_c, 4, 42, 88
8, 61674, Note_off_c, 4, 42, 0
8, 61680, Note_on_c, 4, 41, 88
8, 61914, Note_off_c, 4, 41, 0
8, 61920, Note_on_c, 4, 39, 88
8, 62154, Note_off_c, 4, 39, 0
8, 62160, Note_on_c, 4, 38, 88
8, 62394, Note_off_c, 4, 38, 0
8, 62400, Note_on_c, 4, 39, 88
8, 62870, Note_off_c, 4, 39, 0
8, 62880, Note_on_c, 4, 51, 88
8, 63594, Note_off_c, 4, 51, 0
8, 63600, Note_on_c, 4, 49, 88
8, 63716, Note_off_c, 4, 49, 0
8, 63720, Note_on_c, 4, 48, 88
8, 63836, Note_off_c, 4, 48, 0
8, 63840, Note_on_c, 4, 49, 88
8, 64074, Note_off_c, 4, 49, 0
8, 64080, Note_on_c, 4, 51, 88
8, 64314, Note_off_c, 4, 51, 0
8, 64320, Note_on_c, 4, 53, 88
8, 64554, Note_off_c, 4, 53, 0
8, 64560, Note_on_c, 4, 51, 88
8, 64794, Note_off_c, 4, 51, 0
8, 64800, Note_on_c, 4, 49, 88
8, 65034, Note_off_c, 4, 49, 0
8, 65040, Note_on_c, 4, 48, 88
8, 65274, Note_off_c, 4, 48, 0
8, 65280, Note_on_c, 4, 49, 88
8, 65514, Note_off_c, 4, 49, 0
8, 65520, Note_on_c, 4, 45, 88
8, 65754, Note_off_c, 4, 45, 0
8, 65760, Note_on_c, 4, 46, 88
8, 66230, Note_off_c, 4, 46, 0
8, 66240, Note_on_c, 4, 41, 88
8, 66710, Note_off_c, 4, 41, 0
8, 66960, Note_on_c, 4, 54, 88
8, 67194, Note_off_c, 4, 54, 0
8, 67200, Note_on_c, 4, 53, 88
8, 67434, Note_off_c, 4, 53, 0
8, 67440, Note_on_c, 4, 51, 88
8, 67674, Note_off_c, 4, 51, 0
8, 67680, Note_on_c, 4, 49, 88
8, 67914, Note_off_c, 4, 49, 0
8, 67920, Note_on_c, 4, 48, 88
8, 68154, Note_off_c, 4, 48, 0
8, 68160, Note_on_c, 4, 50, 88
8, 68394, Note_off_c, 4, 50, 0
8, 68400, Note_on_c, 4, 51, 88
8, 68634, Note_off_c, 4, 51, 0
8, 68640, Note_on_c, 4, 53, 88
8, 68756, Note_off_c, 4, 53, 0
8, 68760, Note_on_c, 4, 54, 88
8, 68876, Note_off_c, 4, 54, 0
8, 68880, Note_on_c, 4, 52, 88
8, 68996, Note_off_c, 4, 52, 0
8, 69000, Note_on_c, 4, 53, 88
8, 69116, Note_off_c, 4, 53, 0
8, 69120, Note_on_c, 4, 40, 88
8, 70065, Note_off_c, 4, 40, 0
8, 70080, Note_on_c, 4, 41, 88
8, 71025, Note_off_c, 4, 41, 0
8, 71040, Note_on_c, 4, 46, 88
8, 71985, Note_off_c, 4, 46, 0
8, 71985, End_track
0, 0, End_of_file
