0, 0, Header, 1, 7, 240
1, 0, Start_track
1, 0, Time_signature, 4, 2, 24, 8
1, 0, Tempo, 869565
1, 0, SMPTE_offset, 64, 0, 0, 0, 124
1, 31200, Tempo, 895522
1, 31320, Tempo, 937500
1, 31440, Tempo, 1090909
1, 31620, Tempo, 1363636
1, 31620, End_track
2, 0, Start_track
2, 0, Title_t, "(C) & (P) 1993"
2, 127, End_track
3, 0, Start_track
3, 0, Title_t, "CCARH,Stanford"
3, 0, End_track
4, 0, Start_track
4, 0, Title_t, "Track 1"
4, 0, Program_c, 0, 6
4, 3960, Note_on_c, 0, 71, 88
4, 4076, Note_off_c, 0, 71, 0
4, 4080, Note_on_c, 0, 70, 88
4, 4196, Note_off_c, 0, 70, 0
4, 4200, Note_on_c, 0, 71, 88
4, 4316, Note_off_c, 0, 71, 0
4, 4320, Note_on_c, 0, 73, 88
4, 4554, Note_off_c, 0, 73, 0
4, 4560, Note_on_c, 0, 66, 88
4, 4676, Note_off_c, 0, 66, 0
4, 4680, Note_on_c, 0, 68, 88
4, 4738, Note_off_c, 0, 68, 0
4, 4740, Note_on_c, 0, 70, 88
4, 4798, Note_off_c, 0, 70, 0
4, 4800, Note_on_c, 0, 71, 88
4, 4916, Note_off_c, 0, 71, 0
4, 4920, Note_on_c, 0, 73, 88
4, 4978, Note_off_c, 0, 73, 0
4, 4980, Note_on_c, 0, 75, 88
4, 5038, Note_off_c, 0, 75, 0
4, 5040, Note_on_c, 0, 76, 88
4, 5156, Note_off_c, 0, 76, 0
4, 5160, Note_on_c, 0, 75, 88
4, 5276, Note_off_c, 0, 75, 0
4, 5280, Note_on_c, 0, 73, 88
4, 5876, Note_off_c, 0, 73, 0
4, 5880, Note_on_c, 0, 71, 88
4, 5938, Note_off_c, 0, 71, 0
4, 5940, Note_on_c, 0, 70, 88
4, 5998, Note_off_c, 0, 70, 0
4, 6000, Note_on_c, 0, 71, 88
4, 6116, Note_off_c, 0, 71, 0
4, 6120, Note_on_c, 0, 73, 88
4, 6178, Note_off_c, 0, 73, 0
4, 6180, Note_on_c, 0, 71, 88
4, 6238, Note_off_c, 0, 71, 0
4, 6240, Note_on_c, 0, 70, 88
4, 6298, Note_off_c, 0, 70, 0
4, 6300, Note_on_c, 0, 68, 88
4, 6358, Note_off_c, 0, 68, 0
4, 6360, Note_on_c, 0, 66, 88
4, 6418, Note_off_c, 0, 66, 0
4, 6420, Note_on_c, 0, 64, 88
4, 6478, Note_off_c, 0, 64, 0
4, 6480, Note_on_c, 0, 63, 88
4, 6596, Note_off_c, 0, 63, 0
4, 6600, Note_on_c, 0, 71, 88
4, 6716, Note_off_c, 0, 71, 0
4, 6720, Note_on_c, 0, 70, 88
4, 6836, Note_off_c, 0, 70, 0
4, 6840, Note_on_c, 0, 71, 88
4, 6898, Note_off_c, 0, 71, 0
4, 6900, Note_on_c, 0, 73, 88
4, 6958, Note_off_c, 0, 73, 0
4, 6960, Note_on_c, 0, 75, 88
4, 7018, Note_off_c, 0, 75, 0
4, 7020, Note_on_c, 0, 77, 88
4, 7078, Note_off_c, 0, 77, 0
4, 7080, Note_on_c, 0, 78, 88
4, 7314, Note_off_c, 0, 78, 0
4, 7320, Note_on_c, 0, 77, 88
4, 7378, Note_off_c, 0, 77, 0
4, 7380, Note_on_c, 0, 75, 88
4, 7438, Note_off_c, 0, 75, 0
4, 7440, Note_on_c, 0, 77, 88
4, 7674, Note_off_c, 0, 77, 0
4, 7680, Note_on_c, 0, 78, 88
4, 7796, Note_off_c, 0, 78, 0
4, 7800, Note_on_c, 0, 73, 88
4, 7858, Note_off_c, 0, 73, 0
4, 7860, Note_on_c, 0, 71, 88
4, 7918, Note_off_c, 0, 71, 0
4, 7920, Note_on_c, 0, 73, 88
4, 8036, Note_off_c, 0, 73, 0
4, 8040, Note_on_c, 0, 75, 88
4, 8156, Note_off_c, 0, 75, 0
4, 8160, Note_on_c, 0, 72, 88
4, 8394, Note_off_c, 0, 72, 0
4, 8400, Note_on_c, 0, 73, 88
4, 8516, Note_off_c, 0, 73, 0
4, 8520, Note_on_c, 0, 75, 88
4, 8636, Note_off_c, 0, 75, 0
4, 8640, Note_on_c, 0, 76, 88
4, 8698, Note_off_c, 0, 76, 0
4, 8700, Note_on_c, 0, 75, 88
4, 8758, Note_off_c, 0, 75, 0
4, 8760, Note_on_c, 0, 76, 88
4, 8818, Note_off_c, 0, 76, 0
4, 8820, Note_on_c, 0, 78, 88
4, 8878, Note_off_c, 0, 78, 0
4, 8880, Note_on_c, 0, 76, 88
4, 8938, Note_off_c, 0, 76, 0
4, 8940, Note_on_c, 0, 75, 88
4, 8998, Note_off_c, 0, 75, 0
4, 9000, Note_on_c, 0, 73, 88
4, 9058, Note_off_c, 0, 73, 0
4, 9060, Note_on_c, 0, 71, 88
4, 9118, Note_off_c, 0, 71, 0
4, 9120, Note_on_c, 0, 70, 88
4, 9354, Note_off_c, 0, 70, 0
4, 9360, Note_on_c, 0, 71, 88
4, 9476, Note_off_c, 0, 71, 0
4, 9480, Note_on_c, 0, 73, 88
4, 9596, Note_off_c, 0, 73, 0
4, 9600, Note_on_c, 0, 75, 88
4, 9705, Note_off_c, 0, 75, 0
4, 9720, Note_on_c, 0, 75, 88
4, 9836, Note_off_c, 0, 75, 0
4, 9840, Note_on_c, 0, 76, 88
4, 9956, Note_off_c, 0, 76, 0
4, 9960, Note_on_c, 0, 78, 88
4, 10076, Note_off_c, 0, 78, 0
4, 10080, Note_on_c, 0, 80, 88
4, 10138, Note_off_c, 0, 80, 0
4, 10140, Note_on_c, 0, 81, 88
4, 10198, Note_off_c, 0, 81, 0
4, 10200, Note_on_c, 0, 80, 88
4, 10258, Note_off_c, 0, 80, 0
4, 10260, Note_on_c, 0, 78, 88
4, 10318, Note_off_c, 0, 78, 0
4, 10320, Note_on_c, 0, 76, 88
4, 10378, Note_off_c, 0, 76, 0
4, 10380, Note_on_c, 0, 75, 88
4, 10438, Note_off_c, 0, 75, 0
4, 10440, Note_on_c, 0, 73, 88
4, 10498, Note_off_c, 0, 73, 0
4, 10500, Note_on_c, 0, 71, 88
4, 10558, Note_off_c, 0, 71, 0
4, 10560, Note_on_c, 0, 70, 88
4, 10676, Note_off_c, 0, 70, 0
4, 10680, Note_on_c, 0, 71, 88
4, 10738, Note_off_c, 0, 71, 0
4, 10740, Note_on_c, 0, 73, 88
4, 10798, Note_off_c, 0, 73, 0
4, 10800, Note_on_c, 0, 75, 88
4, 10916, Note_off_c, 0, 75, 0
4, 10920, Note_on_c, 0, 73, 88
4, 11036, Note_off_c, 0, 73, 0
4, 11040, Note_on_c, 0, 71, 88
4, 11334, Note_off_c, 0, 71, 0
4, 11340, Note_on_c, 0, 73, 88
4, 11398, Note_off_c, 0, 73, 0
4, 11400, Note_on_c, 0, 75, 88
4, 11516, Note_off_c, 0, 75, 0
4, 11520, Note_on_c, 0, 76, 88
4, 11578, Note_off_c, 0, 76, 0
4, 11580, Note_on_c, 0, 78, 88
4, 11638, Note_off_c, 0, 78, 0
4, 11640, Note_on_c, 0, 80, 88
4, 11874, Note_off_c, 0, 80, 0
4, 11880, Note_on_c, 0, 78, 88
4, 11938, Note_off_c, 0, 78, 0
4, 11940, Note_on_c, 0, 76, 88
4, 11998, Note_off_c, 0, 76, 0
4, 12000, Note_on_c, 0, 75, 88
4, 12234, Note_off_c, 0, 75, 0
4, 12300, Note_on_c, 0, 75, 88
4, 12358, Note_off_c, 0, 75, 0
4, 12360, Note_on_c, 0, 73, 88
4, 12418, Note_off_c, 0, 73, 0
4, 12420, Note_on_c, 0, 71, 88
4, 12478, Note_off_c, 0, 71, 0
4, 12480, Note_on_c, 0, 70, 88
4, 12714, Note_off_c, 0, 70, 0
4, 12720, Note_on_c, 0, 71, 88
4, 12836, Note_off_c, 0, 71, 0
4, 12840, Note_on_c, 0, 73, 88
4, 12956, Note_off_c, 0, 73, 0
4, 12960, Note_on_c, 0, 75, 88
4, 13556, Note_off_c, 0, 75, 0
4, 13560, Note_on_c, 0, 68, 88
4, 13676, Note_off_c, 0, 68, 0
4, 13680, Note_on_c, 0, 70, 88
4, 13796, Note_off_c, 0, 70, 0
4, 13800, Note_on_c, 0, 71, 88
4, 13916, Note_off_c, 0, 71, 0
4, 13920, Note_on_c, 0, 73, 88
4, 14036, Note_off_c, 0, 73, 0
4, 14040, Note_on_c, 0, 70, 88
4, 14156, Note_off_c, 0, 70, 0
4, 14160, Note_on_c, 0, 71, 88
4, 14276, Note_off_c, 0, 71, 0
4, 14280, Note_on_c, 0, 73, 88
4, 14396, Note_off_c, 0, 73, 0
4, 14400, Note_on_c, 0, 75, 88
4, 14870, Note_off_c, 0, 75, 0
4, 14880, Note_on_c, 0, 73, 88
4, 15476, Note_off_c, 0, 73, 0
4, 15480, Note_on_c, 0, 71, 88
4, 15538, Note_off_c, 0, 71, 0
4, 15540, Note_on_c, 0, 73, 88
4, 15598, Note_off_c, 0, 73, 0
4, 15600, Note_on_c, 0, 75, 88
4, 15658, Note_off_c, 0, 75, 0
4, 15660, Note_on_c, 0, 77, 88
4, 15718, Note_off_c, 0, 77, 0
4, 15720, Note_on_c, 0, 78, 88
4, 15895, Note_off_c, 0, 78, 0
4, 15900, Note_on_c, 0, 77, 88
4, 15958, Note_off_c, 0, 77, 0
4, 15960, Note_on_c, 0, 78, 88
4, 16018, Note_off_c, 0, 78, 0
4, 16020, Note_on_c, 0, 80, 88
4, 16078, Note_off_c, 0, 80, 0
4, 16080, Note_on_c, 0, 78, 88
4, 16109, Note_off_c, 0, 78, 0
4, 16110, Note_on_c, 0, 77, 88
4, 16125, Note_off_c, 0, 77, 0
4, 16125, Note_on_c, 0, 78, 88
4, 16140, Note_on_c, 0, 77, 88
4, 16140, Note_off_c, 0, 78, 0
4, 16155, Note_off_c, 0, 77, 0
4, 16155, Note_on_c, 0, 78, 88
4, 16170, Note_on_c, 0, 77, 88
4, 16170, Note_off_c, 0, 78, 0
4, 16185, Note_off_c, 0, 77, 0
4, 16185, Note_on_c, 0, 78, 88
4, 16200, Note_on_c, 0, 77, 88
4, 16200, Note_off_c, 0, 78, 0
4, 16258, Note_off_c, 0, 77, 0
4, 16260, Note_on_c, 0, 78, 88
4, 16318, Note_off_c, 0, 78, 0
4, 16320, Note_on_c, 0, 78, 88
4, 16425, Note_off_c, 0, 78, 0
4, 16440, Note_on_c, 0, 78, 88
4, 16556, Note_off_c, 0, 78, 0
4, 16560, Note_on_c, 0, 80, 88
4, 16676, Note_off_c, 0, 80, 0
4, 16680, Note_on_c, 0, 78, 88
4, 16796, Note_off_c, 0, 78, 0
4, 16800, Note_on_c, 0, 76, 88
4, 17034, Note_off_c, 0, 76, 0
4, 17040, Note_on_c, 0, 83, 88
4, 17156, Note_off_c, 0, 83, 0
4, 17160, Note_on_c, 0, 82, 88
4, 17218, Note_off_c, 0, 82, 0
4, 17220, Note_on_c, 0, 80, 88
4, 17278, Note_off_c, 0, 80, 0
4, 17280, Note_on_c, 0, 78, 88
4, 17396, Note_off_c, 0, 78, 0
4, 17400, Note_on_c, 0, 76, 88
4, 17458, Note_off_c, 0, 76, 0
4, 17460, Note_on_c, 0, 75, 88
4, 17518, Note_off_c, 0, 75, 0
4, 17520, Note_on_c, 0, 73, 88
4, 17636, Note_off_c, 0, 73, 0
4, 17640, Note_on_c, 0, 75, 88
4, 17756, Note_off_c, 0, 75, 0
4, 17760, Note_on_c, 0, 76, 88
4, 18230, Note_off_c, 0, 76, 0
4, 18240, Note_on_c, 0, 75, 88
4, 18474, Note_off_c, 0, 75, 0
4, 18600, Note_on_c, 0, 78, 88
4, 18775, Note_off_c, 0, 78, 0
4, 18780, Note_on_c, 0, 77, 88
4, 18838, Note_off_c, 0, 77, 0
4, 18840, Note_on_c, 0, 78, 88
4, 18898, Note_off_c, 0, 78, 0
4, 18900, Note_on_c, 0, 80, 88
4, 18958, Note_off_c, 0, 80, 0
4, 18960, Note_on_c, 0, 82, 88
4, 19018, Note_off_c, 0, 82, 0
4, 19020, Note_on_c, 0, 80, 88
4, 19078, Note_off_c, 0, 80, 0
4, 19080, Note_on_c, 0, 82, 88
4, 19138, Note_off_c, 0, 82, 0
4, 19140, Note_on_c, 0, 83, 88
4, 19198, Note_off_c, 0, 83, 0
4, 19200, Note_on_c, 0, 77, 88
4, 19434, Note_off_c, 0, 77, 0
4, 19440, Note_on_c, 0, 78, 88
4, 19793, Note_off_c, 0, 78, 0
4, 19800, Note_on_c, 0, 76, 88
4, 19858, Note_off_c, 0, 76, 0
4, 19860, Note_on_c, 0, 75, 88
4, 19918, Note_off_c, 0, 75, 0
4, 19920, Note_on_c, 0, 73, 88
4, 19978, Note_off_c, 0, 73, 0
4, 19980, Note_on_c, 0, 71, 88
4, 20038, Note_off_c, 0, 71, 0
4, 20040, Note_on_c, 0, 73, 88
4, 20098, Note_off_c, 0, 73, 0
4, 20100, Note_on_c, 0, 75, 88
4, 20158, Note_off_c, 0, 75, 0
4, 20160, Note_on_c, 0, 76, 88
4, 20218, Note_off_c, 0, 76, 0
4, 20220, Note_on_c, 0, 78, 88
4, 20278, Note_off_c, 0, 78, 0
4, 20280, Note_on_c, 0, 80, 88
4, 20445, Note_off_c, 0, 80, 0
4, 20460, Note_on_c, 0, 80, 88
4, 20518, Note_off_c, 0, 80, 0
4, 20520, Note_on_c, 0, 78, 88
4, 20578, Note_off_c, 0, 78, 0
4, 20580, Note_on_c, 0, 76, 88
4, 20638, Note_off_c, 0, 76, 0
4, 20640, Note_on_c, 0, 75, 88
4, 20934, Note_off_c, 0, 75, 0
4, 20940, Note_on_c, 0, 73, 88
4, 21056, Note_off_c, 0, 73, 0
4, 21060, Note_on_c, 0, 71, 88
4, 21236, Note_off_c, 0, 71, 0
4, 21240, Note_on_c, 0, 70, 88
4, 21298, Note_off_c, 0, 70, 0
4, 21300, Note_on_c, 0, 71, 88
4, 21358, Note_off_c, 0, 71, 0
4, 21360, Note_on_c, 0, 73, 88
4, 21418, Note_off_c, 0, 73, 0
4, 21420, Note_on_c, 0, 75, 88
4, 21478, Note_off_c, 0, 75, 0
4, 21480, Note_on_c, 0, 76, 88
4, 21714, Note_off_c, 0, 76, 0
4, 21720, Note_on_c, 0, 75, 88
4, 21778, Note_off_c, 0, 75, 0
4, 21780, Note_on_c, 0, 76, 88
4, 21838, Note_off_c, 0, 76, 0
4, 21840, Note_on_c, 0, 78, 88
4, 21898, Note_off_c, 0, 78, 0
4, 21900, Note_on_c, 0, 80, 88
4, 21958, Note_off_c, 0, 80, 0
4, 21960, Note_on_c, 0, 81, 88
4, 22138, Note_off_c, 0, 81, 0
4, 22140, Note_on_c, 0, 80, 88
4, 22198, Note_off_c, 0, 80, 0
4, 22200, Note_on_c, 0, 81, 88
4, 22258, Note_off_c, 0, 81, 0
4, 22260, Note_on_c, 0, 80, 88
4, 22318, Note_off_c, 0, 80, 0
4, 22320, Note_on_c, 0, 78, 88
4, 22378, Note_off_c, 0, 78, 0
4, 22380, Note_on_c, 0, 76, 88
4, 22438, Note_off_c, 0, 76, 0
4, 22440, Note_on_c, 0, 75, 88
4, 22498, Note_off_c, 0, 75, 0
4, 22500, Note_on_c, 0, 73, 88
4, 22558, Note_off_c, 0, 73, 0
4, 22560, Note_on_c, 0, 72, 88
4, 22676, Note_off_c, 0, 72, 0
4, 22680, Note_on_c, 0, 73, 88
4, 22796, Note_off_c, 0, 73, 0
4, 22800, Note_on_c, 0, 75, 88
4, 23156, Note_off_c, 0, 75, 0
4, 23160, Note_on_c, 0, 73, 88
4, 23218, Note_off_c, 0, 73, 0
4, 23220, Note_on_c, 0, 72, 88
4, 23278, Note_off_c, 0, 72, 0
4, 23280, Note_on_c, 0, 73, 88
4, 23574, Note_off_c, 0, 73, 0
4, 23580, Note_on_c, 0, 76, 88
4, 23638, Note_off_c, 0, 76, 0
4, 23640, Note_on_c, 0, 75, 88
4, 23698, Note_off_c, 0, 75, 0
4, 23700, Note_on_c, 0, 73, 88
4, 23745, Note_off_c, 0, 73, 0
4, 23760, Note_on_c, 0, 73, 88
4, 23789, Note_off_c, 0, 73, 0
4, 23790, Note_on_c, 0, 72, 88
4, 23812, Note_off_c, 0, 72, 0
4, 23813, Note_on_c, 0, 73, 88
4, 23834, Note_off_c, 0, 73, 0
4, 23835, Note_on_c, 0, 72, 88
4, 23857, Note_off_c, 0, 72, 0
4, 23858, Note_on_c, 0, 73, 88
4, 23879, Note_off_c, 0, 73, 0
4, 23880, Note_on_c, 0, 72, 88
4, 23902, Note_off_c, 0, 72, 0
4, 23903, Note_on_c, 0, 73, 88
4, 23917, Note_off_c, 0, 73, 0
4, 23918, Note_on_c, 0, 72, 88
4, 23997, Note_off_c, 0, 72, 0
4, 24000, Note_on_c, 0, 73, 88
4, 24116, Note_off_c, 0, 73, 0
4, 24120, Note_on_c, 0, 68, 88
4, 24178, Note_off_c, 0, 68, 0
4, 24180, Note_on_c, 0, 66, 88
4, 24238, Note_off_c, 0, 66, 0
4, 24240, Note_on_c, 0, 68, 88
4, 24356, Note_off_c, 0, 68, 0
4, 24360, Note_on_c, 0, 69, 88
4, 24476, Note_off_c, 0, 69, 0
4, 24480, Note_on_c, 0, 65, 88
4, 24714, Note_off_c, 0, 65, 0
4, 24720, Note_on_c, 0, 66, 88
4, 24836, Note_off_c, 0, 66, 0
4, 24840, Note_on_c, 0, 68, 88
4, 24956, Note_off_c, 0, 68, 0
4, 24960, Note_on_c, 0, 69, 88
4, 25018, Note_off_c, 0, 69, 0
4, 25020, Note_on_c, 0, 68, 88
4, 25078, Note_off_c, 0, 68, 0
4, 25080, Note_on_c, 0, 69, 88
4, 25138, Note_off_c, 0, 69, 0
4, 25140, Note_on_c, 0, 71, 88
4, 25198, Note_off_c, 0, 71, 0
4, 25200, Note_on_c, 0, 69, 88
4, 25258, Note_off_c, 0, 69, 0
4, 25260, Note_on_c, 0, 68, 88
4, 25318, Note_off_c, 0, 68, 0
4, 25320, Note_on_c, 0, 66, 88
4, 25378, Note_off_c, 0, 66, 0
4, 25380, Note_on_c, 0, 64, 88
4, 25438, Note_off_c, 0, 64, 0
4, 25440, Note_on_c, 0, 63, 88
4, 25674, Note_off_c, 0, 63, 0
4, 25680, Note_on_c, 0, 64, 88
4, 25796, Note_off_c, 0, 64, 0
4, 25800, Note_on_c, 0, 66, 88
4, 25916, Note_off_c, 0, 66, 0
4, 25920, Note_on_c, 0, 68, 88
4, 26025, Note_off_c, 0, 68, 0
4, 26040, Note_on_c, 0, 68, 88
4, 26156, Note_off_c, 0, 68, 0
4, 26160, Note_on_c, 0, 70, 88
4, 26276, Note_off_c, 0, 70, 0
4, 26280, Note_on_c, 0, 71, 88
4, 26396, Note_off_c, 0, 71, 0
4, 26400, Note_on_c, 0, 73, 88
4, 26996, Note_off_c, 0, 73, 0
4, 27000, Note_on_c, 0, 71, 88
4, 27116, Note_off_c, 0, 71, 0
4, 28920, Note_on_c, 0, 78, 88
4, 29036, Note_off_c, 0, 78, 0
4, 29040, Note_on_c, 0, 75, 88
4, 29156, Note_off_c, 0, 75, 0
4, 29160, Note_on_c, 0, 76, 88
4, 29276, Note_off_c, 0, 76, 0
4, 29280, Note_on_c, 0, 78, 88
4, 29514, Note_off_c, 0, 78, 0
4, 29520, Note_on_c, 0, 71, 88
4, 29636, Note_off_c, 0, 71, 0
4, 29640, Note_on_c, 0, 75, 88
4, 29698, Note_off_c, 0, 75, 0
4, 29700, Note_on_c, 0, 77, 88
4, 29758, Note_off_c, 0, 77, 0
4, 29760, Note_on_c, 0, 78, 88
4, 29876, Note_off_c, 0, 78, 0
4, 29880, Note_on_c, 0, 80, 88
4, 29938, Note_off_c, 0, 80, 0
4, 29940, Note_on_c, 0, 82, 88
4, 29998, Note_off_c, 0, 82, 0
4, 30000, Note_on_c, 0, 83, 88
4, 30116, Note_off_c, 0, 83, 0
4, 30120, Note_on_c, 0, 82, 88
4, 30236, Note_off_c, 0, 82, 0
4, 30240, Note_on_c, 0, 80, 88
4, 30710, Note_off_c, 0, 80, 0
4, 30720, Note_on_c, 0, 78, 88
4, 31073, Note_off_c, 0, 78, 0
4, 31080, Note_on_c, 0, 76, 88
4, 31138, Note_off_c, 0, 76, 0
4, 31140, Note_on_c, 0, 75, 88
4, 31198, Note_off_c, 0, 75, 0
4, 31200, Note_on_c, 0, 73, 88
4, 31258, Note_off_c, 0, 73, 0
4, 31260, Note_on_c, 0, 75, 88
4, 31318, Note_off_c, 0, 75, 0
4, 31320, Note_on_c, 0, 76, 88
4, 31495, Note_off_c, 0, 76, 0
4, 31500, Note_on_c, 0, 80, 88
4, 31558, Note_off_c, 0, 80, 0
4, 31560, Note_on_c, 0, 78, 88
4, 31618, Note_off_c, 0, 78, 0
4, 31620, Note_on_c, 0, 76, 88
4, 31678, Note_off_c, 0, 76, 0
4, 31680, Note_on_c, 0, 75, 88
4, 32625, Note_off_c, 0, 75, 0
4, 32625, End_track
5, 0, Start_track
5, 0, Title_t, "Track 2"
5, 0, Program_c, 1, 6
5, 2040, Note_on_c, 1, 66, 88
5, 2156, Note_off_c, 1, 66, 0
5, 2160, Note_on_c, 1, 63, 88
5, 2276, Note_off_c, 1, 63, 0
5, 2280, Note_on_c, 1, 64, 88
5, 2396, Note_off_c, 1, 64, 0
5, 2400, Note_on_c, 1, 66, 88
5, 2634, Note_off_c, 1, 66, 0
5, 2640, Note_on_c, 1, 59, 88
5, 2756, Note_off_c, 1, 59, 0
5, 2760, Note_on_c, 1, 63, 88
5, 2818, Note_off_c, 1, 63, 0
5, 2820, Note_on_c, 1, 65, 88
5, 2878, Note_off_c, 1, 65, 0
5, 2880, Note_on_c, 1, 66, 88
5, 2996, Note_off_c, 1, 66, 0
5, 3000, Note_on_c, 1, 68, 88
5, 3058, Note_off_c, 1, 68, 0
5, 3060, Note_on_c, 1, 70, 88
5, 3118, Note_off_c, 1, 70, 0
5, 3120, Note_on_c, 1, 71, 88
5, 3236, Note_off_c, 1, 71, 0
5, 3240, Note_on_c, 1, 70, 88
5, 3356, Note_off_c, 1, 70, 0
5, 3360, Note_on_c, 1, 68, 88
5, 3830, Note_off_c, 1, 68, 0
5, 3840, Note_on_c, 1, 66, 88
5, 4074, Note_off_c, 1, 66, 0
5, 4200, Note_on_c, 1, 68, 88
5, 4258, Note_off_c, 1, 68, 0
5, 4260, Note_on_c, 1, 66, 88
5, 4318, Note_off_c, 1, 66, 0
5, 4320, Note_on_c, 1, 64, 88
5, 4378, Note_off_c, 1, 64, 0
5, 4380, Note_on_c, 1, 63, 88
5, 4438, Note_off_c, 1, 63, 0
5, 4440, Note_on_c, 1, 61, 88
5, 4498, Note_off_c, 1, 61, 0
5, 4500, Note_on_c, 1, 59, 88
5, 4558, Note_off_c, 1, 59, 0
5, 4560, Note_on_c, 1, 58, 88
5, 4676, Note_off_c, 1, 58, 0
5, 4680, Note_on_c, 1, 66, 88
5, 4796, Note_off_c, 1, 66, 0
5, 4800, Note_on_c, 1, 63, 88
5, 4916, Note_off_c, 1, 63, 0
5, 4920, Note_on_c, 1, 64, 88
5, 4978, Note_off_c, 1, 64, 0
5, 4980, Note_on_c, 1, 66, 88
5, 5038, Note_off_c, 1, 66, 0
5, 5040, Note_on_c, 1, 68, 88
5, 5098, Note_off_c, 1, 68, 0
5, 5100, Note_on_c, 1, 70, 88
5, 5158, Note_off_c, 1, 70, 0
5, 5160, Note_on_c, 1, 71, 88
5, 5394, Note_off_c, 1, 71, 0
5, 5400, Note_on_c, 1, 70, 88
5, 5458, Note_off_c, 1, 70, 0
5, 5460, Note_on_c, 1, 68, 88
5, 5518, Note_off_c, 1, 68, 0
5, 5520, Note_on_c, 1, 70, 88
5, 5578, Note_off_c, 1, 70, 0
5, 5580, Note_on_c, 1, 71, 88
5, 5638, Note_off_c, 1, 71, 0
5, 5640, Note_on_c, 1, 70, 88
5, 5698, Note_off_c, 1, 70, 0
5, 5700, Note_on_c, 1, 68, 88
5, 5758, Note_off_c, 1, 68, 0
5, 5760, Note_on_c, 1, 66, 88
5, 6113, Note_off_c, 1, 66, 0
5, 6120, Note_on_c, 1, 64, 88
5, 6354, Note_off_c, 1, 64, 0
5, 6360, Note_on_c, 1, 63, 88
5, 6418, Note_off_c, 1, 63, 0
5, 6420, Note_on_c, 1, 61, 88
5, 6478, Note_off_c, 1, 61, 0
5, 6480, Note_on_c, 1, 63, 88
5, 6538, Note_off_c, 1, 63, 0
5, 6540, Note_on_c, 1, 64, 88
5, 6598, Note_off_c, 1, 64, 0
5, 6600, Note_on_c, 1, 66, 88
5, 6658, Note_off_c, 1, 66, 0
5, 6660, Note_on_c, 1, 68, 88
5, 6718, Note_off_c, 1, 68, 0
5, 6720, Note_on_c, 1, 61, 88
5, 6954, Note_off_c, 1, 61, 0
5, 7080, Note_on_c, 1, 75, 88
5, 7138, Note_off_c, 1, 75, 0
5, 7140, Note_on_c, 1, 73, 88
5, 7198, Note_off_c, 1, 73, 0
5, 7200, Note_on_c, 1, 71, 88
5, 7316, Note_off_c, 1, 71, 0
5, 7320, Note_on_c, 1, 68, 88
5, 7436, Note_off_c, 1, 68, 0
5, 7500, Note_on_c, 1, 75, 88
5, 7558, Note_off_c, 1, 75, 0
5, 7560, Note_on_c, 1, 73, 88
5, 7618, Note_off_c, 1, 73, 0
5, 7620, Note_on_c, 1, 71, 88
5, 7678, Note_off_c, 1, 71, 0
5, 7680, Note_on_c, 1, 70, 88
5, 7914, Note_off_c, 1, 70, 0
5, 7980, Note_on_c, 1, 68, 88
5, 8038, Note_off_c, 1, 68, 0
5, 8040, Note_on_c, 1, 66, 88
5, 8098, Note_off_c, 1, 66, 0
5, 8100, Note_on_c, 1, 64, 88
5, 8158, Note_off_c, 1, 64, 0
5, 8160, Note_on_c, 1, 63, 88
5, 8394, Note_off_c, 1, 63, 0
5, 8400, Note_on_c, 1, 64, 88
5, 8516, Note_off_c, 1, 64, 0
5, 8520, Note_on_c, 1, 66, 88
5, 8636, Note_off_c, 1, 66, 0
5, 8640, Note_on_c, 1, 68, 88
5, 9230, Note_off_c, 1, 68, 0
5, 9240, Note_on_c, 1, 61, 88
5, 9356, Note_off_c, 1, 61, 0
5, 9360, Note_on_c, 1, 63, 88
5, 9476, Note_off_c, 1, 63, 0
5, 9480, Note_on_c, 1, 64, 88
5, 9596, Note_off_c, 1, 64, 0
5, 9600, Note_on_c, 1, 66, 88
5, 9716, Note_off_c, 1, 66, 0
5, 9720, Note_on_c, 1, 71, 88
5, 9836, Note_off_c, 1, 71, 0
5, 9840, Note_on_c, 1, 73, 88
5, 9956, Note_off_c, 1, 73, 0
5, 9960, Note_on_c, 1, 75, 88
5, 10076, Note_off_c, 1, 75, 0
5, 10080, Note_on_c, 1, 76, 88
5, 10196, Note_off_c, 1, 76, 0
5, 10920, Note_on_c, 1, 66, 88
5, 11036, Note_off_c, 1, 66, 0
5, 11040, Note_on_c, 1, 63, 88
5, 11156, Note_off_c, 1, 63, 0
5, 11160, Note_on_c, 1, 64, 88
5, 11218, Note_off_c, 1, 64, 0
5, 11220, Note_on_c, 1, 66, 88
5, 11278, Note_off_c, 1, 66, 0
5, 11280, Note_on_c, 1, 68, 88
5, 11338, Note_off_c, 1, 68, 0
5, 11340, Note_on_c, 1, 70, 88
5, 11398, Note_off_c, 1, 70, 0
5, 11400, Note_on_c, 1, 71, 88
5, 11636, Note_off_c, 1, 71, 0
5, 11640, Note_on_c, 1, 70, 88
5, 11698, Note_off_c, 1, 70, 0
5, 11700, Note_on_c, 1, 68, 88
5, 11758, Note_off_c, 1, 68, 0
5, 11760, Note_on_c, 1, 70, 88
5, 12113, Note_off_c, 1, 70, 0
5, 12120, Note_on_c, 1, 68, 88
5, 12178, Note_off_c, 1, 68, 0
5, 12180, Note_on_c, 1, 67, 88
5, 12238, Note_off_c, 1, 67, 0
5, 12240, Note_on_c, 1, 68, 88
5, 12356, Note_off_c, 1, 68, 0
5, 12360, Note_on_c, 1, 70, 88
5, 12476, Note_off_c, 1, 70, 0
5, 12480, Note_on_c, 1, 67, 88
5, 12714, Note_off_c, 1, 67, 0
5, 12720, Note_on_c, 1, 68, 88
5, 12836, Note_off_c, 1, 68, 0
5, 12840, Note_on_c, 1, 70, 88
5, 12956, Note_off_c, 1, 70, 0
5, 12960, Note_on_c, 1, 71, 88
5, 13018, Note_off_c, 1, 71, 0
5, 13020, Note_on_c, 1, 70, 88
5, 13078, Note_off_c, 1, 70, 0
5, 13080, Note_on_c, 1, 71, 88
5, 13138, Note_off_c, 1, 71, 0
5, 13140, Note_on_c, 1, 73, 88
5, 13198, Note_off_c, 1, 73, 0
5, 13200, Note_on_c, 1, 71, 88
5, 13258, Note_off_c, 1, 71, 0
5, 13260, Note_on_c, 1, 70, 88
5, 13318, Note_off_c, 1, 70, 0
5, 13320, Note_on_c, 1, 68, 88
5, 13378, Note_off_c, 1, 68, 0
5, 13380, Note_on_c, 1, 66, 88
5, 13438, Note_off_c, 1, 66, 0
5, 13440, Note_on_c, 1, 65, 88
5, 13674, Note_off_c, 1, 65, 0
5, 13680, Note_on_c, 1, 66, 88
5, 13796, Note_off_c, 1, 66, 0
5, 13800, Note_on_c, 1, 68, 88
5, 13916, Note_off_c, 1, 68, 0
5, 13920, Note_on_c, 1, 70, 88
5, 14036, Note_off_c, 1, 70, 0
5, 14040, Note_on_c, 1, 61, 88
5, 14156, Note_off_c, 1, 61, 0
5, 14160, Note_on_c, 1, 63, 88
5, 14276, Note_off_c, 1, 63, 0
5, 14280, Note_on_c, 1, 64, 88
5, 14396, Note_off_c, 1, 64, 0
5, 14400, Note_on_c, 1, 66, 88
5, 14505, Note_off_c, 1, 66, 0
5, 14520, Note_on_c, 1, 66, 88
5, 14636, Note_off_c, 1, 66, 0
5, 14640, Note_on_c, 1, 65, 88
5, 14756, Note_off_c, 1, 65, 0
5, 14760, Note_on_c, 1, 66, 88
5, 14876, Note_off_c, 1, 66, 0
5, 14880, Note_on_c, 1, 68, 88
5, 15114, Note_off_c, 1, 68, 0
5, 15120, Note_on_c, 1, 61, 88
5, 15236, Note_off_c, 1, 61, 0
5, 15240, Note_on_c, 1, 63, 88
5, 15298, Note_off_c, 1, 63, 0
5, 15300, Note_on_c, 1, 65, 88
5, 15358, Note_off_c, 1, 65, 0
5, 15360, Note_on_c, 1, 66, 88
5, 15476, Note_off_c, 1, 66, 0
5, 15480, Note_on_c, 1, 68, 88
5, 15538, Note_off_c, 1, 68, 0
5, 15540, Note_on_c, 1, 70, 88
5, 15598, Note_off_c, 1, 70, 0
5, 15600, Note_on_c, 1, 71, 88
5, 15716, Note_off_c, 1, 71, 0
5, 15720, Note_on_c, 1, 70, 88
5, 15836, Note_off_c, 1, 70, 0
5, 15840, Note_on_c, 1, 68, 88
5, 16134, Note_off_c, 1, 68, 0
5, 16140, Note_on_c, 1, 70, 88
5, 16198, Note_off_c, 1, 70, 0
5, 16200, Note_on_c, 1, 71, 88
5, 16316, Note_off_c, 1, 71, 0
5, 16320, Note_on_c, 1, 70, 88
5, 16554, Note_off_c, 1, 70, 0
5, 16560, Note_on_c, 1, 72, 88
5, 16676, Note_off_c, 1, 72, 0
5, 16680, Note_on_c, 1, 75, 88
5, 16914, Note_off_c, 1, 75, 0
5, 16920, Note_on_c, 1, 73, 88
5, 17036, Note_off_c, 1, 73, 0
5, 17340, Note_on_c, 1, 63, 88
5, 17398, Note_off_c, 1, 63, 0
5, 17400, Note_on_c, 1, 64, 88
5, 17458, Note_off_c, 1, 64, 0
5, 17460, Note_on_c, 1, 66, 88
5, 17518, Note_off_c, 1, 66, 0
5, 17520, Note_on_c, 1, 68, 88
5, 17578, Note_off_c, 1, 68, 0
5, 17580, Note_on_c, 1, 66, 88
5, 17638, Note_off_c, 1, 66, 0
5, 17640, Note_on_c, 1, 64, 88
5, 17698, Note_off_c, 1, 64, 0
5, 17700, Note_on_c, 1, 63, 88
5, 17758, Note_off_c, 1, 63, 0
5, 17760, Note_on_c, 1, 61, 88
5, 17994, Note_off_c, 1, 61, 0
5, 18000, Note_on_c, 1, 73, 88
5, 18356, Note_off_c, 1, 73, 0
5, 18360, Note_on_c, 1, 71, 88
5, 18476, Note_off_c, 1, 71, 0
5, 18480, Note_on_c, 1, 75, 88
5, 18596, Note_off_c, 1, 75, 0
5, 18600, Note_on_c, 1, 73, 88
5, 18716, Note_off_c, 1, 73, 0
5, 18720, Note_on_c, 1, 71, 88
5, 18954, Note_off_c, 1, 71, 0
5, 18960, Note_on_c, 1, 78, 88
5, 19076, Note_off_c, 1, 78, 0
5, 19080, Note_on_c, 1, 77, 88
5, 19138, Note_off_c, 1, 77, 0
5, 19140, Note_on_c, 1, 75, 88
5, 19198, Note_off_c, 1, 75, 0
5, 19200, Note_on_c, 1, 73, 88
5, 19316, Note_off_c, 1, 73, 0
5, 19320, Note_on_c, 1, 71, 88
5, 19378, Note_off_c, 1, 71, 0
5, 19380, Note_on_c, 1, 70, 88
5, 19438, Note_off_c, 1, 70, 0
5, 19440, Note_on_c, 1, 68, 88
5, 19556, Note_off_c, 1, 68, 0
5, 19560, Note_on_c, 1, 70, 88
5, 19676, Note_off_c, 1, 70, 0
5, 19680, Note_on_c, 1, 71, 88
5, 20394, Note_off_c, 1, 71, 0
5, 20400, Note_on_c, 1, 70, 88
5, 20516, Note_off_c, 1, 70, 0
5, 20520, Note_on_c, 1, 73, 88
5, 20685, Note_off_c, 1, 73, 0
5, 20700, Note_on_c, 1, 73, 88
5, 20758, Note_off_c, 1, 73, 0
5, 20760, Note_on_c, 1, 71, 88
5, 20818, Note_off_c, 1, 71, 0
5, 20820, Note_on_c, 1, 70, 88
5, 20878, Note_off_c, 1, 70, 0
5, 20880, Note_on_c, 1, 68, 88
5, 20996, Note_off_c, 1, 68, 0
5, 21000, Note_on_c, 1, 66, 88
5, 21116, Note_off_c, 1, 66, 0
5, 21120, Note_on_c, 1, 64, 88
5, 21532, Note_off_c, 1, 64, 0
5, 21540, Note_on_c, 1, 66, 88
5, 21598, Note_off_c, 1, 66, 0
5, 21600, Note_on_c, 1, 68, 88
5, 21658, Note_off_c, 1, 68, 0
5, 21660, Note_on_c, 1, 70, 88
5, 21718, Note_off_c, 1, 70, 0
5, 21720, Note_on_c, 1, 71, 88
5, 21954, Note_off_c, 1, 71, 0
5, 21960, Note_on_c, 1, 73, 88
5, 22018, Note_off_c, 1, 73, 0
5, 22020, Note_on_c, 1, 75, 88
5, 22078, Note_off_c, 1, 75, 0
5, 22080, Note_on_c, 1, 76, 88
5, 22196, Note_off_c, 1, 76, 0
5, 27000, Note_on_c, 1, 71, 88
5, 27116, Note_off_c, 1, 71, 0
5, 27120, Note_on_c, 1, 70, 88
5, 27236, Note_off_c, 1, 70, 0
5, 27240, Note_on_c, 1, 71, 88
5, 27356, Note_off_c, 1, 71, 0
5, 27360, Note_on_c, 1, 73, 88
5, 27594, Note_off_c, 1, 73, 0
5, 27600, Note_on_c, 1, 66, 88
5, 27716, Note_off_c, 1, 66, 0
5, 27720, Note_on_c, 1, 68, 88
5, 27778, Note_off_c, 1, 68, 0
5, 27780, Note_on_c, 1, 70, 88
5, 27838, Note_off_c, 1, 70, 0
5, 27840, Note_on_c, 1, 71, 88
5, 27956, Note_off_c, 1, 71, 0
5, 27960, Note_on_c, 1, 73, 88
5, 28018, Note_off_c, 1, 73, 0
5, 28020, Note_on_c, 1, 75, 88
5, 28078, Note_off_c, 1, 75, 0
5, 28080, Note_on_c, 1, 76, 88
5, 28196, Note_off_c, 1, 76, 0
5, 28200, Note_on_c, 1, 75, 88
5, 28316, Note_off_c, 1, 75, 0
5, 28320, Note_on_c, 1, 73, 88
5, 28916, Note_off_c, 1, 73, 0
5, 28920, Note_on_c, 1, 71, 88
5, 28978, Note_off_c, 1, 71, 0
5, 28980, Note_on_c, 1, 70, 88
5, 29038, Note_off_c, 1, 70, 0
5, 29040, Note_on_c, 1, 71, 88
5, 29156, Note_off_c, 1, 71, 0
5, 29160, Note_on_c, 1, 73, 88
5, 29218, Note_off_c, 1, 73, 0
5, 29220, Note_on_c, 1, 71, 88
5, 29278, Note_off_c, 1, 71, 0
5, 29280, Note_on_c, 1, 70, 88
5, 29338, Note_off_c, 1, 70, 0
5, 29340, Note_on_c, 1, 68, 88
5, 29398, Note_off_c, 1, 68, 0
5, 29400, Note_on_c, 1, 66, 88
5, 29458, Note_off_c, 1, 66, 0
5, 29460, Note_on_c, 1, 64, 88
5, 29518, Note_off_c, 1, 64, 0
5, 29520, Note_on_c, 1, 63, 88
5, 29636, Note_off_c, 1, 63, 0
5, 29640, Note_on_c, 1, 71, 88
5, 29756, Note_off_c, 1, 71, 0
5, 29760, Note_on_c, 1, 70, 88
5, 29876, Note_off_c, 1, 70, 0
5, 29880, Note_on_c, 1, 71, 88
5, 29938, Note_off_c, 1, 71, 0
5, 29940, Note_on_c, 1, 73, 88
5, 29998, Note_off_c, 1, 73, 0
5, 30000, Note_on_c, 1, 75, 88
5, 30058, Note_off_c, 1, 75, 0
5, 30060, Note_on_c, 1, 77, 88
5, 30118, Note_off_c, 1, 77, 0
5, 30120, Note_on_c, 1, 78, 88
5, 30354, Note_off_c, 1, 78, 0
5, 30360, Note_on_c, 1, 76, 88
5, 30418, Note_off_c, 1, 76, 0
5, 30420, Note_on_c, 1, 75, 88
5, 30478, Note_off_c, 1, 75, 0
5, 30480, Note_on_c, 1, 76, 88
5, 30836, Note_off_c, 1, 76, 0
5, 30840, Note_on_c, 1, 75, 88
5, 30898, Note_off_c, 1, 75, 0
5, 30900, Note_on_c, 1, 73, 88
5, 30958, Note_off_c, 1, 73, 0
5, 30960, Note_on_c, 1, 71, 88
5, 31430, Note_off_c, 1, 71, 0
5, 31440, Note_on_c, 1, 70, 88
5, 31674, Note_off_c, 1, 70, 0
5, 31680, Note_on_c, 1, 71, 88
5, 32625, Note_off_c, 1, 71, 0
5, 32625, End_track
6, 0, Start_track
6, 0, Title_t, "Track 3"
6, 0, Program_c, 2, 6
6, 120, Note_on_c, 2, 59, 88
6, 236, Note_off_c, 2, 59, 0
6, 240, Note_on_c, 2, 58, 88
6, 356, Note_off_c, 2, 58, 0
6, 360, Note_on_c, 2, 59, 88
6, 476, Note_off_c, 2, 59, 0
6, 480, Note_on_c, 2, 61, 88
6, 714, Note_off_c, 2, 61, 0
6, 720, Note_on_c, 2, 54, 88
6, 836, Note_off_c, 2, 54, 0
6, 840, Note_on_c, 2, 56, 88
6, 898, Note_off_c, 2, 56, 0
6, 900, Note_on_c, 2, 58, 88
6, 958, Note_off_c, 2, 58, 0
6, 960, Note_on_c, 2, 59, 88
6, 1076, Note_off_c, 2, 59, 0
6, 1080, Note_on_c, 2, 61, 88
6, 1138, Note_off_c, 2, 61, 0
6, 1140, Note_on_c, 2, 63, 88
6, 1198, Note_off_c, 2, 63, 0
6, 1200, Note_on_c, 2, 64, 88
6, 1316, Note_off_c, 2, 64, 0
6, 1320, Note_on_c, 2, 63, 88
6, 1425, Note_off_c, 2, 63, 0
6, 1440, Note_on_c, 2, 63, 88
6, 1484, Note_off_c, 2, 63, 0
6, 1485, Note_on_c, 2, 61, 88
6, 1514, Note_off_c, 2, 61, 0
6, 1515, Note_on_c, 2, 63, 88
6, 1544, Note_off_c, 2, 63, 0
6, 1545, Note_on_c, 2, 61, 88
6, 1574, Note_off_c, 2, 61, 0
6, 1575, Note_on_c, 2, 63, 88
6, 1604, Note_off_c, 2, 63, 0
6, 1605, Note_on_c, 2, 61, 88
6, 1634, Note_off_c, 2, 61, 0
6, 1635, Note_on_c, 2, 63, 88
6, 1664, Note_off_c, 2, 63, 0
6, 1665, Note_on_c, 2, 61, 88
6, 1687, Note_off_c, 2, 61, 0
6, 1688, Note_on_c, 2, 63, 88
6, 1709, Note_off_c, 2, 63, 0
6, 1710, Note_on_c, 2, 61, 88
6, 1732, Note_off_c, 2, 61, 0
6, 1733, Note_on_c, 2, 63, 88
6, 1754, Note_off_c, 2, 63, 0
6, 1755, Note_on_c, 2, 61, 88
6, 1777, Note_off_c, 2, 61, 0
6, 1778, Note_on_c, 2, 63, 88
6, 1799, Note_off_c, 2, 63, 0
6, 1800, Note_on_c, 2, 61, 88
6, 1822, Note_off_c, 2, 61, 0
6, 1823, Note_on_c, 2, 63, 88
6, 1844, Note_off_c, 2, 63, 0
6, 1845, Note_on_c, 2, 61, 88
6, 1867, Note_off_c, 2, 61, 0
6, 1868, Note_on_c, 2, 59, 88
6, 1889, Note_off_c, 2, 59, 0
6, 1890, Note_on_c, 2, 61, 88
6, 1919, Note_off_c, 2, 61, 0
6, 1920, Note_on_c, 2, 59, 88
6, 2273, Note_off_c, 2, 59, 0
6, 2280, Note_on_c, 2, 61, 88
6, 2338, Note_off_c, 2, 61, 0
6, 2340, Note_on_c, 2, 59, 88
6, 2398, Note_off_c, 2, 59, 0
6, 2400, Note_on_c, 2, 58, 88
6, 2458, Note_off_c, 2, 58, 0
6, 2460, Note_on_c, 2, 56, 88
6, 2518, Note_off_c, 2, 56, 0
6, 2520, Note_on_c, 2, 54, 88
6, 2578, Note_off_c, 2, 54, 0
6, 2580, Note_on_c, 2, 52, 88
6, 2638, Note_off_c, 2, 52, 0
6, 2640, Note_on_c, 2, 51, 88
6, 2756, Note_off_c, 2, 51, 0
6, 2760, Note_on_c, 2, 59, 88
6, 2876, Note_off_c, 2, 59, 0
6, 2880, Note_on_c, 2, 58, 88
6, 2996, Note_off_c, 2, 58, 0
6, 3000, Note_on_c, 2, 59, 88
6, 3058, Note_off_c, 2, 59, 0
6, 3060, Note_on_c, 2, 61, 88
6, 3118, Note_off_c, 2, 61, 0
6, 3120, Note_on_c, 2, 63, 88
6, 3178, Note_off_c, 2, 63, 0
6, 3180, Note_on_c, 2, 65, 88
6, 3238, Note_off_c, 2, 65, 0
6, 3240, Note_on_c, 2, 66, 88
6, 3474, Note_off_c, 2, 66, 0
6, 3480, Note_on_c, 2, 64, 88
6, 3538, Note_off_c, 2, 64, 0
6, 3540, Note_on_c, 2, 63, 88
6, 3598, Note_off_c, 2, 63, 0
6, 3600, Note_on_c, 2, 64, 88
6, 3658, Note_off_c, 2, 64, 0
6, 3660, Note_on_c, 2, 59, 88
6, 3718, Note_off_c, 2, 59, 0
6, 3720, Note_on_c, 2, 64, 88
6, 3956, Note_off_c, 2, 64, 0
6, 3960, Note_on_c, 2, 63, 88
6, 4076, Note_off_c, 2, 63, 0
6, 4080, Note_on_c, 2, 61, 88
6, 4196, Note_off_c, 2, 61, 0
6, 4200, Note_on_c, 2, 59, 88
6, 4434, Note_off_c, 2, 59, 0
6, 4440, Note_on_c, 2, 58, 88
6, 4498, Note_off_c, 2, 58, 0
6, 4500, Note_on_c, 2, 56, 88
6, 4558, Note_off_c, 2, 56, 0
6, 4560, Note_on_c, 2, 58, 88
6, 4676, Note_off_c, 2, 58, 0
6, 4680, Note_on_c, 2, 63, 88
6, 4796, Note_off_c, 2, 63, 0
6, 4800, Note_on_c, 2, 56, 88
6, 5034, Note_off_c, 2, 56, 0
6, 5160, Note_on_c, 2, 68, 88
6, 5218, Note_off_c, 2, 68, 0
6, 5220, Note_on_c, 2, 66, 88
6, 5278, Note_off_c, 2, 66, 0
6, 5280, Note_on_c, 2, 64, 88
6, 5396, Note_off_c, 2, 64, 0
6, 5400, Note_on_c, 2, 61, 88
6, 5516, Note_off_c, 2, 61, 0
6, 5640, Note_on_c, 2, 66, 88
6, 5698, Note_off_c, 2, 66, 0
6, 5700, Note_on_c, 2, 64, 88
6, 5758, Note_off_c, 2, 64, 0
6, 5760, Note_on_c, 2, 63, 88
6, 5876, Note_off_c, 2, 63, 0
6, 5880, Note_on_c, 2, 61, 88
6, 5996, Note_off_c, 2, 61, 0
6, 6000, Note_on_c, 2, 59, 88
6, 6116, Note_off_c, 2, 59, 0
6, 6120, Note_on_c, 2, 56, 88
6, 6236, Note_off_c, 2, 56, 0
6, 6240, Note_on_c, 2, 54, 88
6, 6474, Note_off_c, 2, 54, 0
6, 10200, Note_on_c, 2, 59, 88
6, 10316, Note_off_c, 2, 59, 0
6, 10320, Note_on_c, 2, 58, 88
6, 10436, Note_off_c, 2, 58, 0
6, 10440, Note_on_c, 2, 59, 88
6, 10556, Note_off_c, 2, 59, 0
6, 10560, Note_on_c, 2, 61, 88
6, 10794, Note_off_c, 2, 61, 0
6, 10800, Note_on_c, 2, 54, 88
6, 10916, Note_off_c, 2, 54, 0
6, 10920, Note_on_c, 2, 56, 88
6, 10978, Note_off_c, 2, 56, 0
6, 10980, Note_on_c, 2, 58, 88
6, 11038, Note_off_c, 2, 58, 0
6, 11040, Note_on_c, 2, 59, 88
6, 11156, Note_off_c, 2, 59, 0
6, 11160, Note_on_c, 2, 61, 88
6, 11218, Note_off_c, 2, 61, 0
6, 11220, Note_on_c, 2, 63, 88
6, 11278, Note_off_c, 2, 63, 0
6, 11280, Note_on_c, 2, 64, 88
6, 11396, Note_off_c, 2, 64, 0
6, 11400, Note_on_c, 2, 63, 88
6, 11516, Note_off_c, 2, 63, 0
6, 11520, Note_on_c, 2, 63, 88
6, 11549, Note_off_c, 2, 63, 0
6, 11550, Note_on_c, 2, 61, 88
6, 11579, Note_off_c, 2, 61, 0
6, 11580, Note_on_c, 2, 63, 88
6, 11609, Note_off_c, 2, 63, 0
6, 11610, Note_on_c, 2, 61, 88
6, 11639, Note_off_c, 2, 61, 0
6, 11640, Note_on_c, 2, 63, 88
6, 11669, Note_off_c, 2, 63, 0
6, 11670, Note_on_c, 2, 61, 88
6, 11699, Note_off_c, 2, 61, 0
6, 11700, Note_on_c, 2, 63, 88
6, 11729, Note_off_c, 2, 63, 0
6, 11730, Note_on_c, 2, 61, 88
6, 11759, Note_off_c, 2, 61, 0
6, 11760, Note_on_c, 2, 63, 88
6, 11789, Note_off_c, 2, 63, 0
6, 11790, Note_on_c, 2, 61, 88
6, 11812, Note_off_c, 2, 61, 0
6, 11813, Note_on_c, 2, 63, 88
6, 11834, Note_off_c, 2, 63, 0
6, 11835, Note_on_c, 2, 61, 88
6, 11857, Note_off_c, 2, 61, 0
6, 11858, Note_on_c, 2, 63, 88
6, 11879, Note_off_c, 2, 63, 0
6, 11880, Note_on_c, 2, 61, 88
6, 11902, Note_off_c, 2, 61, 0
6, 11903, Note_on_c, 2, 63, 88
6, 11924, Note_off_c, 2, 63, 0
6, 11925, Note_on_c, 2, 61, 88
6, 11947, Note_off_c, 2, 61, 0
6, 11948, Note_on_c, 2, 59, 88
6, 11969, Note_off_c, 2, 59, 0
6, 11970, Note_on_c, 2, 61, 88
6, 11999, Note_off_c, 2, 61, 0
6, 12000, Note_on_c, 2, 59, 88
6, 12116, Note_off_c, 2, 59, 0
6, 12600, Note_on_c, 2, 63, 88
6, 12658, Note_off_c, 2, 63, 0
6, 12660, Note_on_c, 2, 64, 88
6, 12718, Note_off_c, 2, 64, 0
6, 12720, Note_on_c, 2, 63, 88
6, 12778, Note_off_c, 2, 63, 0
6, 12780, Note_on_c, 2, 61, 88
6, 12838, Note_off_c, 2, 61, 0
6, 12840, Note_on_c, 2, 59, 88
6, 12898, Note_off_c, 2, 59, 0
6, 12900, Note_on_c, 2, 58, 88
6, 12958, Note_off_c, 2, 58, 0
6, 12960, Note_on_c, 2, 56, 88
6, 13194, Note_off_c, 2, 56, 0
6, 13560, Note_on_c, 2, 61, 88
6, 13618, Note_off_c, 2, 61, 0
6, 13620, Note_on_c, 2, 63, 88
6, 13678, Note_off_c, 2, 63, 0
6, 13680, Note_on_c, 2, 61, 88
6, 13738, Note_off_c, 2, 61, 0
6, 13740, Note_on_c, 2, 59, 88
6, 13798, Note_off_c, 2, 59, 0
6, 13800, Note_on_c, 2, 58, 88
6, 13858, Note_off_c, 2, 58, 0
6, 13860, Note_on_c, 2, 56, 88
6, 13918, Note_off_c, 2, 56, 0
6, 13920, Note_on_c, 2, 54, 88
6, 13978, Note_off_c, 2, 54, 0
6, 13980, Note_on_c, 2, 52, 88
6, 14038, Note_off_c, 2, 52, 0
6, 14040, Note_on_c, 2, 54, 88
6, 14098, Note_off_c, 2, 54, 0
6, 14100, Note_on_c, 2, 56, 88
6, 14158, Note_off_c, 2, 56, 0
6, 14160, Note_on_c, 2, 54, 88
6, 14218, Note_off_c, 2, 54, 0
6, 14220, Note_on_c, 2, 52, 88
6, 14278, Note_off_c, 2, 52, 0
6, 14280, Note_on_c, 2, 51, 88
6, 14338, Note_off_c, 2, 51, 0
6, 14340, Note_on_c, 2, 49, 88
6, 14398, Note_off_c, 2, 49, 0
6, 14400, Note_on_c, 2, 47, 88
6, 14516, Note_off_c, 2, 47, 0
6, 15000, Note_on_c, 2, 59, 88
6, 15116, Note_off_c, 2, 59, 0
6, 15120, Note_on_c, 2, 58, 88
6, 15236, Note_off_c, 2, 58, 0
6, 15240, Note_on_c, 2, 56, 88
6, 15356, Note_off_c, 2, 56, 0
6, 15360, Note_on_c, 2, 54, 88
6, 15654, Note_off_c, 2, 54, 0
6, 15660, Note_on_c, 2, 56, 88
6, 15718, Note_off_c, 2, 56, 0
6, 15720, Note_on_c, 2, 54, 88
6, 15778, Note_off_c, 2, 54, 0
6, 15780, Note_on_c, 2, 53, 88
6, 15838, Note_off_c, 2, 53, 0
6, 15840, Note_on_c, 2, 51, 88
6, 15898, Note_off_c, 2, 51, 0
6, 15900, Note_on_c, 2, 49, 88
6, 15958, Note_off_c, 2, 49, 0
6, 15960, Note_on_c, 2, 51, 88
6, 16018, Note_off_c, 2, 51, 0
6, 16020, Note_on_c, 2, 47, 88
6, 16078, Note_off_c, 2, 47, 0
6, 16080, Note_on_c, 2, 49, 88
6, 16436, Note_off_c, 2, 49, 0
6, 16440, Note_on_c, 2, 54, 88
6, 16498, Note_off_c, 2, 54, 0
6, 16500, Note_on_c, 2, 52, 88
6, 16558, Note_off_c, 2, 52, 0
6, 16560, Note_on_c, 2, 54, 88
6, 16618, Note_off_c, 2, 54, 0
6, 16620, Note_on_c, 2, 56, 88
6, 16678, Note_off_c, 2, 56, 0
6, 16680, Note_on_c, 2, 58, 88
6, 16738, Note_off_c, 2, 58, 0
6, 16740, Note_on_c, 2, 60, 88
6, 16798, Note_off_c, 2, 60, 0
6, 16800, Note_on_c, 2, 61, 88
6, 16916, Note_off_c, 2, 61, 0
6, 16920, Note_on_c, 2, 59, 88
6, 16978, Note_off_c, 2, 59, 0
6, 16980, Note_on_c, 2, 58, 88
6, 17038, Note_off_c, 2, 58, 0
6, 17040, Note_on_c, 2, 56, 88
6, 17098, Note_off_c, 2, 56, 0
6, 17100, Note_on_c, 2, 54, 88
6, 17158, Note_off_c, 2, 54, 0
6, 17160, Note_on_c, 2, 56, 88
6, 17218, Note_off_c, 2, 56, 0
6, 17220, Note_on_c, 2, 58, 88
6, 17278, Note_off_c, 2, 58, 0
6, 17280, Note_on_c, 2, 59, 88
6, 17805, Note_off_c, 2, 59, 0
6, 17820, Note_on_c, 2, 59, 88
6, 17878, Note_off_c, 2, 59, 0
6, 17880, Note_on_c, 2, 58, 88
6, 17938, Note_off_c, 2, 58, 0
6, 17940, Note_on_c, 2, 56, 88
6, 17998, Note_off_c, 2, 56, 0
6, 18000, Note_on_c, 2, 54, 88
6, 18058, Note_off_c, 2, 54, 0
6, 18060, Note_on_c, 2, 52, 88
6, 18118, Note_off_c, 2, 52, 0
6, 18120, Note_on_c, 2, 51, 88
6, 18178, Note_off_c, 2, 51, 0
6, 18180, Note_on_c, 2, 49, 88
6, 18238, Note_off_c, 2, 49, 0
6, 18240, Note_on_c, 2, 47, 88
6, 18298, Note_off_c, 2, 47, 0
6, 18300, Note_on_c, 2, 49, 88
6, 18358, Note_off_c, 2, 49, 0
6, 18360, Note_on_c, 2, 51, 88
6, 18418, Note_off_c, 2, 51, 0
6, 18420, Note_on_c, 2, 52, 88
6, 18478, Note_off_c, 2, 52, 0
6, 18480, Note_on_c, 2, 54, 88
6, 18538, Note_off_c, 2, 54, 0
6, 18540, Note_on_c, 2, 56, 88
6, 18598, Note_off_c, 2, 56, 0
6, 18600, Note_on_c, 2, 58, 88
6, 18658, Note_off_c, 2, 58, 0
6, 18660, Note_on_c, 2, 54, 88
6, 18718, Note_off_c, 2, 54, 0
6, 18720, Note_on_c, 2, 56, 88
6, 18778, Note_off_c, 2, 56, 0
6, 18780, Note_on_c, 2, 49, 88
6, 18838, Note_off_c, 2, 49, 0
6, 18840, Note_on_c, 2, 51, 88
6, 18898, Note_off_c, 2, 51, 0
6, 18900, Note_on_c, 2, 53, 88
6, 18958, Note_off_c, 2, 53, 0
6, 18960, Note_on_c, 2, 54, 88
6, 19018, Note_off_c, 2, 54, 0
6, 19020, Note_on_c, 2, 47, 88
6, 19078, Note_off_c, 2, 47, 0
6, 19080, Note_on_c, 2, 59, 88
6, 19258, Note_off_c, 2, 59, 0
6, 19260, Note_on_c, 2, 58, 88
6, 19318, Note_off_c, 2, 58, 0
6, 19320, Note_on_c, 2, 59, 88
6, 19378, Note_off_c, 2, 59, 0
6, 19380, Note_on_c, 2, 61, 88
6, 19438, Note_off_c, 2, 61, 0
6, 19440, Note_on_c, 2, 63, 88
6, 19498, Note_off_c, 2, 63, 0
6, 19500, Note_on_c, 2, 61, 88
6, 19558, Note_off_c, 2, 61, 0
6, 19560, Note_on_c, 2, 59, 88
6, 19618, Note_off_c, 2, 59, 0
6, 19620, Note_on_c, 2, 58, 88
6, 19678, Note_off_c, 2, 58, 0
6, 19680, Note_on_c, 2, 56, 88
6, 20276, Note_off_c, 2, 56, 0
6, 20280, Note_on_c, 2, 54, 88
6, 20338, Note_off_c, 2, 54, 0
6, 20340, Note_on_c, 2, 52, 88
6, 20398, Note_off_c, 2, 52, 0
6, 20400, Note_on_c, 2, 54, 88
6, 20870, Note_off_c, 2, 54, 0
6, 22200, Note_on_c, 2, 64, 88
6, 22316, Note_off_c, 2, 64, 0
6, 22320, Note_on_c, 2, 63, 88
6, 22436, Note_off_c, 2, 63, 0
6, 22440, Note_on_c, 2, 64, 88
6, 22556, Note_off_c, 2, 64, 0
6, 22560, Note_on_c, 2, 66, 88
6, 22794, Note_off_c, 2, 66, 0
6, 22800, Note_on_c, 2, 60, 88
6, 22916, Note_off_c, 2, 60, 0
6, 22920, Note_on_c, 2, 61, 88
6, 22978, Note_off_c, 2, 61, 0
6, 22980, Note_on_c, 2, 63, 88
6, 23038, Note_off_c, 2, 63, 0
6, 23040, Note_on_c, 2, 64, 88
6, 23156, Note_off_c, 2, 64, 0
6, 23160, Note_on_c, 2, 66, 88
6, 23218, Note_off_c, 2, 66, 0
6, 23220, Note_on_c, 2, 68, 88
6, 23278, Note_off_c, 2, 68, 0
6, 23280, Note_on_c, 2, 69, 88
6, 23396, Note_off_c, 2, 69, 0
6, 23400, Note_on_c, 2, 68, 88
6, 23516, Note_off_c, 2, 68, 0
6, 23520, Note_on_c, 2, 66, 88
6, 23814, Note_off_c, 2, 66, 0
6, 23820, Note_on_c, 2, 69, 88
6, 23878, Note_off_c, 2, 69, 0
6, 23880, Note_on_c, 2, 68, 88
6, 23938, Note_off_c, 2, 68, 0
6, 23940, Note_on_c, 2, 66, 88
6, 23998, Note_off_c, 2, 66, 0
6, 24000, Note_on_c, 2, 64, 88
6, 24234, Note_off_c, 2, 64, 0
6, 24300, Note_on_c, 2, 61, 88
6, 24358, Note_off_c, 2, 61, 0
6, 24360, Note_on_c, 2, 59, 88
6, 24418, Note_off_c, 2, 59, 0
6, 24420, Note_on_c, 2, 57, 88
6, 24478, Note_off_c, 2, 57, 0
6, 24480, Note_on_c, 2, 56, 88
6, 24714, Note_off_c, 2, 56, 0
6, 24720, Note_on_c, 2, 57, 88
6, 24836, Note_off_c, 2, 57, 0
6, 24840, Note_on_c, 2, 59, 88
6, 24956, Note_off_c, 2, 59, 0
6, 24960, Note_on_c, 2, 61, 88
6, 25550, Note_off_c, 2, 61, 0
6, 25560, Note_on_c, 2, 54, 88
6, 25676, Note_off_c, 2, 54, 0
6, 25680, Note_on_c, 2, 56, 88
6, 25796, Note_off_c, 2, 56, 0
6, 25800, Note_on_c, 2, 57, 88
6, 25916, Note_off_c, 2, 57, 0
6, 25920, Note_on_c, 2, 59, 88
6, 26025, Note_off_c, 2, 59, 0
6, 26040, Note_on_c, 2, 59, 88
6, 26156, Note_off_c, 2, 59, 0
6, 26160, Note_on_c, 2, 61, 88
6, 26276, Note_off_c, 2, 61, 0
6, 26280, Note_on_c, 2, 63, 88
6, 26396, Note_off_c, 2, 63, 0
6, 26400, Note_on_c, 2, 64, 88
6, 26458, Note_off_c, 2, 64, 0
6, 26460, Note_on_c, 2, 71, 88
6, 26518, Note_off_c, 2, 71, 0
6, 26520, Note_on_c, 2, 70, 88
6, 26578, Note_off_c, 2, 70, 0
6, 26580, Note_on_c, 2, 68, 88
6, 26638, Note_off_c, 2, 68, 0
6, 26640, Note_on_c, 2, 66, 88
6, 26698, Note_off_c, 2, 66, 0
6, 26700, Note_on_c, 2, 64, 88
6, 26758, Note_off_c, 2, 64, 0
6, 26760, Note_on_c, 2, 63, 88
6, 26818, Note_off_c, 2, 63, 0
6, 26820, Note_on_c, 2, 61, 88
6, 26878, Note_off_c, 2, 61, 0
6, 26880, Note_on_c, 2, 63, 88
6, 26996, Note_off_c, 2, 63, 0
6, 27420, Note_on_c, 2, 63, 88
6, 27478, Note_off_c, 2, 63, 0
6, 27480, Note_on_c, 2, 61, 88
6, 27538, Note_off_c, 2, 61, 0
6, 27540, Note_on_c, 2, 59, 88
6, 27598, Note_off_c, 2, 59, 0
6, 27600, Note_on_c, 2, 58, 88
6, 27658, Note_off_c, 2, 58, 0
6, 27660, Note_on_c, 2, 56, 88
6, 27718, Note_off_c, 2, 56, 0
6, 27720, Note_on_c, 2, 54, 88
6, 27778, Note_off_c, 2, 54, 0
6, 27780, Note_on_c, 2, 52, 88
6, 27838, Note_off_c, 2, 52, 0
6, 27840, Note_on_c, 2, 54, 88
6, 27898, Note_off_c, 2, 54, 0
6, 27900, Note_on_c, 2, 51, 88
6, 27958, Note_off_c, 2, 51, 0
6, 27960, Note_on_c, 2, 52, 88
6, 28018, Note_off_c, 2, 52, 0
6, 28020, Note_on_c, 2, 54, 88
6, 28078, Note_off_c, 2, 54, 0
6, 28080, Note_on_c, 2, 56, 88
6, 28138, Note_off_c, 2, 56, 0
6, 28140, Note_on_c, 2, 58, 88
6, 28198, Note_off_c, 2, 58, 0
6, 28200, Note_on_c, 2, 59, 88
6, 28553, Note_off_c, 2, 59, 0
6, 28560, Note_on_c, 2, 58, 88
6, 28735, Note_off_c, 2, 58, 0
6, 28740, Note_on_c, 2, 56, 88
6, 28798, Note_off_c, 2, 56, 0
6, 28800, Note_on_c, 2, 54, 88
6, 29153, Note_off_c, 2, 54, 0
6, 29160, Note_on_c, 2, 52, 88
6, 29394, Note_off_c, 2, 52, 0
6, 29400, Note_on_c, 2, 51, 88
6, 29458, Note_off_c, 2, 51, 0
6, 29460, Note_on_c, 2, 49, 88
6, 29518, Note_off_c, 2, 49, 0
6, 29520, Note_on_c, 2, 51, 88
6, 29636, Note_off_c, 2, 51, 0
6, 29640, Note_on_c, 2, 56, 88
6, 29756, Note_off_c, 2, 56, 0
6, 29760, Note_on_c, 2, 49, 88
6, 29994, Note_off_c, 2, 49, 0
6, 31320, Note_on_c, 2, 61, 88
6, 31378, Note_off_c, 2, 61, 0
6, 31380, Note_on_c, 2, 63, 88
6, 31438, Note_off_c, 2, 63, 0
6, 31440, Note_on_c, 2, 61, 88
6, 31498, Note_off_c, 2, 61, 0
6, 31500, Note_on_c, 2, 59, 88
6, 31558, Note_off_c, 2, 59, 0
6, 31560, Note_on_c, 2, 58, 88
6, 31618, Note_off_c, 2, 58, 0
6, 31620, Note_on_c, 2, 56, 88
6, 31678, Note_off_c, 2, 56, 0
6, 31680, Note_on_c, 2, 54, 88
6, 32625, Note_off_c, 2, 54, 0
6, 32625, End_track
7, 0, Start_track
7, 0, Title_t, "Track 4"
7, 0, Program_c, 3, 6
7, 5880, Note_on_c, 3, 54, 88
7, 5996, Note_off_c, 3, 54, 0
7, 6000, Note_on_c, 3, 51, 88
7, 6116, Note_off_c, 3, 51, 0
7, 6120, Note_on_c, 3, 52, 88
7, 6236, Note_off_c, 3, 52, 0
7, 6240, Note_on_c, 3, 54, 88
7, 6474, Note_off_c, 3, 54, 0
7, 6480, Note_on_c, 3, 47, 88
7, 6596, Note_off_c, 3, 47, 0
7, 6600, Note_on_c, 3, 51, 88
7, 6658, Note_off_c, 3, 51, 0
7, 6660, Note_on_c, 3, 53, 88
7, 6718, Note_off_c, 3, 53, 0
7, 6720, Note_on_c, 3, 54, 88
7, 6836, Note_off_c, 3, 54, 0
7, 6840, Note_on_c, 3, 56, 88
7, 6898, Note_off_c, 3, 56, 0
7, 6900, Note_on_c, 3, 58, 88
7, 6958, Note_off_c, 3, 58, 0
7, 6960, Note_on_c, 3, 59, 88
7, 7076, Note_off_c, 3, 59, 0
7, 7080, Note_on_c, 3, 58, 88
7, 7185, Note_off_c, 3, 58, 0
7, 7200, Note_on_c, 3, 58, 88
7, 7244, Note_off_c, 3, 58, 0
7, 7245, Note_on_c, 3, 56, 88
7, 7274, Note_off_c, 3, 56, 0
7, 7275, Note_on_c, 3, 58, 88
7, 7304, Note_off_c, 3, 58, 0
7, 7305, Note_on_c, 3, 56, 88
7, 7334, Note_off_c, 3, 56, 0
7, 7335, Note_on_c, 3, 58, 88
7, 7364, Note_off_c, 3, 58, 0
7, 7365, Note_on_c, 3, 56, 88
7, 7394, Note_off_c, 3, 56, 0
7, 7395, Note_on_c, 3, 58, 88
7, 7424, Note_off_c, 3, 58, 0
7, 7425, Note_on_c, 3, 56, 88
7, 7447, Note_off_c, 3, 56, 0
7, 7448, Note_on_c, 3, 58, 88
7, 7469, Note_off_c, 3, 58, 0
7, 7470, Note_on_c, 3, 56, 88
7, 7492, Note_off_c, 3, 56, 0
7, 7493, Note_on_c, 3, 58, 88
7, 7514, Note_off_c, 3, 58, 0
7, 7515, Note_on_c, 3, 56, 88
7, 7537, Note_off_c, 3, 56, 0
7, 7538, Note_on_c, 3, 58, 88
7, 7559, Note_off_c, 3, 58, 0
7, 7560, Note_on_c, 3, 56, 88
7, 7676, Note_off_c, 3, 56, 0
7, 7680, Note_on_c, 3, 54, 88
7, 7914, Note_off_c, 3, 54, 0
7, 8280, Note_on_c, 3, 56, 88
7, 8338, Note_off_c, 3, 56, 0
7, 8340, Note_on_c, 3, 57, 88
7, 8398, Note_off_c, 3, 57, 0
7, 8400, Note_on_c, 3, 56, 88
7, 8458, Note_off_c, 3, 56, 0
7, 8460, Note_on_c, 3, 54, 88
7, 8518, Note_off_c, 3, 54, 0
7, 8520, Note_on_c, 3, 52, 88
7, 8578, Note_off_c, 3, 52, 0
7, 8580, Note_on_c, 3, 51, 88
7, 8638, Note_off_c, 3, 51, 0
7, 8640, Note_on_c, 3, 49, 88
7, 8756, Note_off_c, 3, 49, 0
7, 8760, Note_on_c, 3, 61, 88
7, 8876, Note_off_c, 3, 61, 0
7, 8880, Note_on_c, 3, 63, 88
7, 8996, Note_off_c, 3, 63, 0
7, 9000, Note_on_c, 3, 64, 88
7, 9116, Note_off_c, 3, 64, 0
7, 9120, Note_on_c, 3, 66, 88
7, 9236, Note_off_c, 3, 66, 0
7, 9240, Note_on_c, 3, 54, 88
7, 9298, Note_off_c, 3, 54, 0
7, 9300, Note_on_c, 3, 56, 88
7, 9358, Note_off_c, 3, 56, 0
7, 9360, Note_on_c, 3, 54, 88
7, 9418, Note_off_c, 3, 54, 0
7, 9420, Note_on_c, 3, 52, 88
7, 9478, Note_off_c, 3, 52, 0
7, 9480, Note_on_c, 3, 51, 88
7, 9538, Note_off_c, 3, 51, 0
7, 9540, Note_on_c, 3, 49, 88
7, 9598, Note_off_c, 3, 49, 0
7, 9600, Note_on_c, 3, 47, 88
7, 9658, Note_off_c, 3, 47, 0
7, 9660, Note_on_c, 3, 46, 88
7, 9718, Note_off_c, 3, 46, 0
7, 9720, Note_on_c, 3, 47, 88
7, 9778, Note_off_c, 3, 47, 0
7, 9780, Note_on_c, 3, 49, 88
7, 9838, Note_off_c, 3, 49, 0
7, 9840, Note_on_c, 3, 47, 88
7, 9898, Note_off_c, 3, 47, 0
7, 9900, Note_on_c, 3, 45, 88
7, 9958, Note_off_c, 3, 45, 0
7, 9960, Note_on_c, 3, 44, 88
7, 10018, Note_off_c, 3, 44, 0
7, 10020, Note_on_c, 3, 42, 88
7, 10078, Note_off_c, 3, 42, 0
7, 10080, Note_on_c, 3, 40, 88
7, 10196, Note_off_c, 3, 40, 0
7, 10680, Note_on_c, 3, 52, 88
7, 10796, Note_off_c, 3, 52, 0
7, 10800, Note_on_c, 3, 51, 88
7, 10916, Note_off_c, 3, 51, 0
7, 10920, Note_on_c, 3, 52, 88
7, 10978, Note_off_c, 3, 52, 0
7, 10980, Note_on_c, 3, 54, 88
7, 11038, Note_off_c, 3, 54, 0
7, 11040, Note_on_c, 3, 56, 88
7, 11393, Note_off_c, 3, 56, 0
7, 11400, Note_on_c, 3, 54, 88
7, 11516, Note_off_c, 3, 54, 0
7, 11520, Note_on_c, 3, 52, 88
7, 11754, Note_off_c, 3, 52, 0
7, 11760, Note_on_c, 3, 54, 88
7, 11994, Note_off_c, 3, 54, 0
7, 12000, Note_on_c, 3, 59, 88
7, 12116, Note_off_c, 3, 59, 0
7, 12120, Note_on_c, 3, 47, 88
7, 12178, Note_off_c, 3, 47, 0
7, 12180, Note_on_c, 3, 46, 88
7, 12238, Note_off_c, 3, 46, 0
7, 12240, Note_on_c, 3, 47, 88
7, 12356, Note_off_c, 3, 47, 0
7, 12360, Note_on_c, 3, 49, 88
7, 12476, Note_off_c, 3, 49, 0
7, 12480, Note_on_c, 3, 51, 88
7, 12714, Note_off_c, 3, 51, 0
7, 12840, Note_on_c, 3, 49, 88
7, 12956, Note_off_c, 3, 49, 0
7, 12960, Note_on_c, 3, 47, 88
7, 13076, Note_off_c, 3, 47, 0
7, 13080, Note_on_c, 3, 44, 88
7, 13196, Note_off_c, 3, 44, 0
7, 13200, Note_on_c, 3, 46, 88
7, 13316, Note_off_c, 3, 46, 0
7, 13320, Note_on_c, 3, 47, 88
7, 13436, Note_off_c, 3, 47, 0
7, 13440, Note_on_c, 3, 49, 88
7, 13674, Note_off_c, 3, 49, 0
7, 13800, Note_on_c, 3, 47, 88
7, 13916, Note_off_c, 3, 47, 0
7, 13920, Note_on_c, 3, 46, 88
7, 14445, Note_off_c, 3, 46, 0
7, 14460, Note_on_c, 3, 46, 88
7, 14518, Note_off_c, 3, 46, 0
7, 14520, Note_on_c, 3, 47, 88
7, 14578, Note_off_c, 3, 47, 0
7, 14580, Note_on_c, 3, 49, 88
7, 14638, Note_off_c, 3, 49, 0
7, 14640, Note_on_c, 3, 47, 88
7, 14698, Note_off_c, 3, 47, 0
7, 14700, Note_on_c, 3, 46, 88
7, 14758, Note_off_c, 3, 46, 0
7, 14760, Note_on_c, 3, 44, 88
7, 14818, Note_off_c, 3, 44, 0
7, 14820, Note_on_c, 3, 42, 88
7, 14878, Note_off_c, 3, 42, 0
7, 14880, Note_on_c, 3, 41, 88
7, 14996, Note_off_c, 3, 41, 0
7, 15000, Note_on_c, 3, 53, 88
7, 15116, Note_off_c, 3, 53, 0
7, 15120, Note_on_c, 3, 54, 88
7, 15236, Note_off_c, 3, 54, 0
7, 15240, Note_on_c, 3, 53, 88
7, 15356, Note_off_c, 3, 53, 0
7, 15360, Note_on_c, 3, 51, 88
7, 15713, Note_off_c, 3, 51, 0
7, 15720, Note_on_c, 3, 49, 88
7, 15836, Note_off_c, 3, 49, 0
7, 15840, Note_on_c, 3, 47, 88
7, 15956, Note_off_c, 3, 47, 0
7, 15960, Note_on_c, 3, 44, 88
7, 16076, Note_off_c, 3, 44, 0
7, 16080, Note_on_c, 3, 49, 88
7, 16196, Note_off_c, 3, 49, 0
7, 16200, Note_on_c, 3, 37, 88
7, 16316, Note_off_c, 3, 37, 0
7, 16320, Note_on_c, 3, 42, 88
7, 16436, Note_off_c, 3, 42, 0
7, 19800, Note_on_c, 3, 47, 88
7, 19916, Note_off_c, 3, 47, 0
7, 19920, Note_on_c, 3, 46, 88
7, 20036, Note_off_c, 3, 46, 0
7, 20040, Note_on_c, 3, 47, 88
7, 20156, Note_off_c, 3, 47, 0
7, 20160, Note_on_c, 3, 49, 88
7, 20394, Note_off_c, 3, 49, 0
7, 20400, Note_on_c, 3, 42, 88
7, 20516, Note_off_c, 3, 42, 0
7, 20520, Note_on_c, 3, 44, 88
7, 20578, Note_off_c, 3, 44, 0
7, 20580, Note_on_c, 3, 46, 88
7, 20638, Note_off_c, 3, 46, 0
7, 20640, Note_on_c, 3, 47, 88
7, 20756, Note_off_c, 3, 47, 0
7, 20760, Note_on_c, 3, 49, 88
7, 20818, Note_off_c, 3, 49, 0
7, 20820, Note_on_c, 3, 51, 88
7, 20878, Note_off_c, 3, 51, 0
7, 20880, Note_on_c, 3, 52, 88
7, 20996, Note_off_c, 3, 52, 0
7, 21000, Note_on_c, 3, 51, 88
7, 21116, Note_off_c, 3, 51, 0
7, 21120, Note_on_c, 3, 51, 88
7, 21164, Note_off_c, 3, 51, 0
7, 21165, Note_on_c, 3, 49, 88
7, 21194, Note_off_c, 3, 49, 0
7, 21195, Note_on_c, 3, 51, 88
7, 21224, Note_off_c, 3, 51, 0
7, 21225, Note_on_c, 3, 49, 88
7, 21247, Note_off_c, 3, 49, 0
7, 21248, Note_on_c, 3, 51, 88
7, 21269, Note_off_c, 3, 51, 0
7, 21270, Note_on_c, 3, 49, 88
7, 21292, Note_off_c, 3, 49, 0
7, 21293, Note_on_c, 3, 51, 88
7, 21314, Note_off_c, 3, 51, 0
7, 21315, Note_on_c, 3, 49, 88
7, 21337, Note_off_c, 3, 49, 0
7, 21338, Note_on_c, 3, 51, 88
7, 21359, Note_off_c, 3, 51, 0
7, 21360, Note_on_c, 3, 49, 88
7, 21594, Note_off_c, 3, 49, 0
7, 21600, Note_on_c, 3, 47, 88
7, 21716, Note_off_c, 3, 47, 0
7, 21720, Note_on_c, 3, 59, 88
7, 21778, Note_off_c, 3, 59, 0
7, 21780, Note_on_c, 3, 61, 88
7, 21838, Note_off_c, 3, 61, 0
7, 21840, Note_on_c, 3, 59, 88
7, 21898, Note_off_c, 3, 59, 0
7, 21900, Note_on_c, 3, 57, 88
7, 21958, Note_off_c, 3, 57, 0
7, 21960, Note_on_c, 3, 56, 88
7, 22018, Note_off_c, 3, 56, 0
7, 22020, Note_on_c, 3, 54, 88
7, 22078, Note_off_c, 3, 54, 0
7, 22080, Note_on_c, 3, 52, 88
7, 22314, Note_off_c, 3, 52, 0
7, 22320, Note_on_c, 3, 57, 88
7, 22554, Note_off_c, 3, 57, 0
7, 22560, Note_on_c, 3, 51, 88
7, 22618, Note_off_c, 3, 51, 0
7, 22620, Note_on_c, 3, 61, 88
7, 22678, Note_off_c, 3, 61, 0
7, 22680, Note_on_c, 3, 60, 88
7, 22738, Note_off_c, 3, 60, 0
7, 22740, Note_on_c, 3, 58, 88
7, 22798, Note_off_c, 3, 58, 0
7, 22800, Note_on_c, 3, 56, 88
7, 22858, Note_off_c, 3, 56, 0
7, 22860, Note_on_c, 3, 54, 88
7, 22918, Note_off_c, 3, 54, 0
7, 22920, Note_on_c, 3, 52, 88
7, 22978, Note_off_c, 3, 52, 0
7, 22980, Note_on_c, 3, 51, 88
7, 23038, Note_off_c, 3, 51, 0
7, 23040, Note_on_c, 3, 49, 88
7, 23098, Note_off_c, 3, 49, 0
7, 23100, Note_on_c, 3, 47, 88
7, 23158, Note_off_c, 3, 47, 0
7, 23160, Note_on_c, 3, 45, 88
7, 23218, Note_off_c, 3, 45, 0
7, 23220, Note_on_c, 3, 44, 88
7, 23278, Note_off_c, 3, 44, 0
7, 23280, Note_on_c, 3, 42, 88
7, 23338, Note_off_c, 3, 42, 0
7, 23340, Note_on_c, 3, 40, 88
7, 23398, Note_off_c, 3, 40, 0
7, 23400, Note_on_c, 3, 39, 88
7, 23458, Note_off_c, 3, 39, 0
7, 23460, Note_on_c, 3, 37, 88
7, 23518, Note_off_c, 3, 37, 0
7, 23520, Note_on_c, 3, 39, 88
7, 23636, Note_off_c, 3, 39, 0
7, 23640, Note_on_c, 3, 40, 88
7, 23698, Note_off_c, 3, 40, 0
7, 23700, Note_on_c, 3, 42, 88
7, 23758, Note_off_c, 3, 42, 0
7, 23760, Note_on_c, 3, 44, 88
7, 23865, Note_off_c, 3, 44, 0
7, 23880, Note_on_c, 3, 44, 88
7, 23996, Note_off_c, 3, 44, 0
7, 24000, Note_on_c, 3, 37, 88
7, 24234, Note_off_c, 3, 37, 0
7, 24600, Note_on_c, 3, 49, 88
7, 24658, Note_off_c, 3, 49, 0
7, 24660, Note_on_c, 3, 50, 88
7, 24718, Note_off_c, 3, 50, 0
7, 24720, Note_on_c, 3, 49, 88
7, 24778, Note_off_c, 3, 49, 0
7, 24780, Note_on_c, 3, 47, 88
7, 24838, Note_off_c, 3, 47, 0
7, 24840, Note_on_c, 3, 45, 88
7, 24898, Note_off_c, 3, 45, 0
7, 24900, Note_on_c, 3, 44, 88
7, 24958, Note_off_c, 3, 44, 0
7, 24960, Note_on_c, 3, 42, 88
7, 25076, Note_off_c, 3, 42, 0
7, 25080, Note_on_c, 3, 54, 88
7, 25196, Note_off_c, 3, 54, 0
7, 25200, Note_on_c, 3, 56, 88
7, 25316, Note_off_c, 3, 56, 0
7, 25320, Note_on_c, 3, 57, 88
7, 25436, Note_off_c, 3, 57, 0
7, 25440, Note_on_c, 3, 59, 88
7, 25556, Note_off_c, 3, 59, 0
7, 25560, Note_on_c, 3, 47, 88
7, 25618, Note_off_c, 3, 47, 0
7, 25620, Note_on_c, 3, 49, 88
7, 25678, Note_off_c, 3, 49, 0
7, 25680, Note_on_c, 3, 47, 88
7, 25738, Note_off_c, 3, 47, 0
7, 25740, Note_on_c, 3, 45, 88
7, 25798, Note_off_c, 3, 45, 0
7, 25800, Note_on_c, 3, 44, 88
7, 25858, Note_off_c, 3, 44, 0
7, 25860, Note_on_c, 3, 42, 88
7, 25918, Note_off_c, 3, 42, 0
7, 25920, Note_on_c, 3, 40, 88
7, 25978, Note_off_c, 3, 40, 0
7, 25980, Note_on_c, 3, 47, 88
7, 26038, Note_off_c, 3, 47, 0
7, 26040, Note_on_c, 3, 52, 88
7, 26098, Note_off_c, 3, 52, 0
7, 26100, Note_on_c, 3, 54, 88
7, 26158, Note_off_c, 3, 54, 0
7, 26160, Note_on_c, 3, 52, 88
7, 26218, Note_off_c, 3, 52, 0
7, 26220, Note_on_c, 3, 51, 88
7, 26278, Note_off_c, 3, 51, 0
7, 26280, Note_on_c, 3, 49, 88
7, 26338, Note_off_c, 3, 49, 0
7, 26340, Note_on_c, 3, 47, 88
7, 26398, Note_off_c, 3, 47, 0
7, 26400, Note_on_c, 3, 46, 88
7, 26516, Note_off_c, 3, 46, 0
7, 26520, Note_on_c, 3, 42, 88
7, 26636, Note_off_c, 3, 42, 0
7, 26640, Note_on_c, 3, 44, 88
7, 26756, Note_off_c, 3, 44, 0
7, 26760, Note_on_c, 3, 46, 88
7, 26876, Note_off_c, 3, 46, 0
7, 26880, Note_on_c, 3, 47, 88
7, 26938, Note_off_c, 3, 47, 0
7, 26940, Note_on_c, 3, 49, 88
7, 26998, Note_off_c, 3, 49, 0
7, 27000, Note_on_c, 3, 51, 88
7, 27058, Note_off_c, 3, 51, 0
7, 27060, Note_on_c, 3, 52, 88
7, 27118, Note_off_c, 3, 52, 0
7, 27120, Note_on_c, 3, 54, 88
7, 27178, Note_off_c, 3, 54, 0
7, 27180, Note_on_c, 3, 56, 88
7, 27238, Note_off_c, 3, 56, 0
7, 27240, Note_on_c, 3, 58, 88
7, 27298, Note_off_c, 3, 58, 0
7, 27300, Note_on_c, 3, 59, 88
7, 27358, Note_off_c, 3, 59, 0
7, 27360, Note_on_c, 3, 52, 88
7, 27830, Note_off_c, 3, 52, 0
7, 27840, Note_on_c, 3, 51, 88
7, 28074, Note_off_c, 3, 51, 0
7, 28080, Note_on_c, 3, 49, 88
7, 28196, Note_off_c, 3, 49, 0
7, 28200, Note_on_c, 3, 56, 88
7, 28258, Note_off_c, 3, 56, 0
7, 28260, Note_on_c, 3, 54, 88
7, 28318, Note_off_c, 3, 54, 0
7, 28320, Note_on_c, 3, 52, 88
7, 28378, Note_off_c, 3, 52, 0
7, 28380, Note_on_c, 3, 51, 88
7, 28438, Note_off_c, 3, 51, 0
7, 28440, Note_on_c, 3, 49, 88
7, 28498, Note_off_c, 3, 49, 0
7, 28500, Note_on_c, 3, 51, 88
7, 28558, Note_off_c, 3, 51, 0
7, 28560, Note_on_c, 3, 52, 88
7, 28618, Note_off_c, 3, 52, 0
7, 28620, Note_on_c, 3, 56, 88
7, 28678, Note_off_c, 3, 56, 0
7, 28680, Note_on_c, 3, 54, 88
7, 28738, Note_off_c, 3, 54, 0
7, 28740, Note_on_c, 3, 52, 88
7, 28798, Note_off_c, 3, 52, 0
7, 28800, Note_on_c, 3, 51, 88
7, 29034, Note_off_c, 3, 51, 0
7, 29040, Note_on_c, 3, 44, 88
7, 29274, Note_off_c, 3, 44, 0
7, 29280, Note_on_c, 3, 42, 88
7, 29994, Note_off_c, 3, 42, 0
7, 30060, Note_on_c, 3, 44, 88
7, 30118, Note_off_c, 3, 44, 0
7, 30120, Note_on_c, 3, 46, 88
7, 30178, Note_off_c, 3, 46, 0
7, 30180, Note_on_c, 3, 47, 88
7, 30238, Note_off_c, 3, 47, 0
7, 30240, Note_on_c, 3, 49, 88
7, 30298, Note_off_c, 3, 49, 0
7, 30300, Note_on_c, 3, 51, 88
7, 30358, Note_off_c, 3, 51, 0
7, 30360, Note_on_c, 3, 52, 88
7, 30418, Note_off_c, 3, 52, 0
7, 30420, Note_on_c, 3, 54, 88
7, 30478, Note_off_c, 3, 54, 0
7, 30480, Note_on_c, 3, 56, 88
7, 30538, Note_off_c, 3, 56, 0
7, 30540, Note_on_c, 3, 58, 88
7, 30598, Note_off_c, 3, 58, 0
7, 30600, Note_on_c, 3, 59, 88
7, 30658, Note_off_c, 3, 59, 0
7, 30660, Note_on_c, 3, 56, 88
7, 30718, Note_off_c, 3, 56, 0
7, 30720, Note_on_c, 3, 58, 88
7, 30778, Note_off_c, 3, 58, 0
7, 30780, Note_on_c, 3, 56, 88
7, 30838, Note_off_c, 3, 56, 0
7, 30840, Note_on_c, 3, 54, 88
7, 30898, Note_off_c, 3, 54, 0
7, 30900, Note_on_c, 3, 52, 88
7, 30958, Note_off_c, 3, 52, 0
7, 30960, Note_on_c, 3, 51, 88
7, 31018, Note_off_c, 3, 51, 0
7, 31020, Note_on_c, 3, 49, 88
7, 31078, Note_off_c, 3, 49, 0
7, 31080, Note_on_c, 3, 51, 88
7, 31138, Note_off_c, 3, 51, 0
7, 31140, Note_on_c, 3, 52, 88
7, 31198, Note_off_c, 3, 52, 0
7, 31200, Note_on_c, 3, 54, 88
7, 31670, Note_off_c, 3, 54, 0
7, 31680, Note_on_c, 3, 47, 88
7, 32625, Note_off_c, 3, 47, 0
7, 32625, End_track
0, 0, End_of_file
