0, 0, Header, 1, 8, 240
1, 0, Start_track
1, 0, Time_signature, 4, 2, 24, 8
1, 0, Tempo, 1176470
1, 0, SMPTE_offset, 64, 0, 0, 0, 93
1, 0, End_track
2, 0, Start_track
2, 0, Title_t, "(C) & (P) 1993"
2, 127, End_track
3, 0, Start_track
3, 0, Title_t, "CCARH,Stanford"
3, 0, End_track
4, 0, Start_track
4, 0, Title_t, "Track 1"
4, 0, Program_c, 0, 6
4, 11640, Note_on_c, 0, 71, 88
4, 11756, Note_off_c, 0, 71, 0
4, 11760, Note_on_c, 0, 69, 88
4, 11876, Note_off_c, 0, 69, 0
4, 11880, Note_on_c, 0, 66, 88
4, 11996, Note_off_c, 0, 66, 0
4, 12000, Note_on_c, 0, 74, 88
4, 12116, Note_off_c, 0, 74, 0
4, 12120, Note_on_c, 0, 71, 88
4, 12236, Note_off_c, 0, 71, 0
4, 12240, Note_on_c, 0, 76, 88
4, 12356, Note_off_c, 0, 76, 0
4, 12360, Note_on_c, 0, 75, 88
4, 12476, Note_off_c, 0, 75, 0
4, 12480, Note_on_c, 0, 69, 88
4, 12596, Note_off_c, 0, 69, 0
4, 12600, Note_on_c, 0, 68, 88
4, 12716, Note_off_c, 0, 68, 0
4, 12720, Note_on_c, 0, 77, 88
4, 12836, Note_off_c, 0, 77, 0
4, 12840, Note_on_c, 0, 76, 88
4, 12956, Note_off_c, 0, 76, 0
4, 12960, Note_on_c, 0, 71, 88
4, 13076, Note_off_c, 0, 71, 0
4, 13080, Note_on_c, 0, 70, 88
4, 13196, Note_off_c, 0, 70, 0
4, 13200, Note_on_c, 0, 79, 88
4, 13316, Note_off_c, 0, 79, 0
4, 13320, Note_on_c, 0, 78, 88
4, 13436, Note_off_c, 0, 78, 0
4, 13440, Note_on_c, 0, 77, 88
4, 13556, Note_off_c, 0, 77, 0
4, 13560, Note_on_c, 0, 78, 88
4, 13676, Note_off_c, 0, 78, 0
4, 13680, Note_on_c, 0, 74, 88
4, 13796, Note_off_c, 0, 74, 0
4, 13800, Note_on_c, 0, 71, 88
4, 13916, Note_off_c, 0, 71, 0
4, 13920, Note_on_c, 0, 73, 88
4, 14453, Note_off_c, 0, 73, 0
4, 14460, Note_on_c, 0, 73, 88
4, 14518, Note_off_c, 0, 73, 0
4, 14520, Note_on_c, 0, 74, 88
4, 14578, Note_off_c, 0, 74, 0
4, 14580, Note_on_c, 0, 76, 88
4, 14638, Note_off_c, 0, 76, 0
4, 14640, Note_on_c, 0, 78, 88
4, 14698, Note_off_c, 0, 78, 0
4, 14700, Note_on_c, 0, 79, 88
4, 14758, Note_off_c, 0, 79, 0
4, 14760, Note_on_c, 0, 71, 88
4, 14818, Note_off_c, 0, 71, 0
4, 14820, Note_on_c, 0, 70, 88
4, 14878, Note_off_c, 0, 70, 0
4, 14880, Note_on_c, 0, 71, 88
4, 15418, Note_off_c, 0, 71, 0
4, 15420, Note_on_c, 0, 65, 88
4, 15478, Note_off_c, 0, 65, 0
4, 15480, Note_on_c, 0, 66, 88
4, 15538, Note_off_c, 0, 66, 0
4, 15540, Note_on_c, 0, 68, 88
4, 15598, Note_off_c, 0, 68, 0
4, 15600, Note_on_c, 0, 69, 88
4, 15658, Note_off_c, 0, 69, 0
4, 15660, Note_on_c, 0, 71, 88
4, 15718, Note_off_c, 0, 71, 0
4, 15720, Note_on_c, 0, 73, 88
4, 15778, Note_off_c, 0, 73, 0
4, 15780, Note_on_c, 0, 66, 88
4, 15838, Note_off_c, 0, 66, 0
4, 15840, Note_on_c, 0, 74, 88
4, 15898, Note_off_c, 0, 74, 0
4, 15900, Note_on_c, 0, 76, 88
4, 15958, Note_off_c, 0, 76, 0
4, 15960, Note_on_c, 0, 78, 88
4, 16194, Note_off_c, 0, 78, 0
4, 16200, Note_on_c, 0, 76, 88
4, 16258, Note_off_c, 0, 76, 0
4, 16260, Note_on_c, 0, 74, 88
4, 16318, Note_off_c, 0, 74, 0
4, 16320, Note_on_c, 0, 73, 88
4, 16378, Note_off_c, 0, 73, 0
4, 16380, Note_on_c, 0, 74, 88
4, 16438, Note_off_c, 0, 74, 0
4, 16440, Note_on_c, 0, 76, 88
4, 16674, Note_off_c, 0, 76, 0
4, 16680, Note_on_c, 0, 74, 88
4, 16738, Note_off_c, 0, 74, 0
4, 16740, Note_on_c, 0, 73, 88
4, 16798, Note_off_c, 0, 73, 0
4, 16800, Note_on_c, 0, 71, 88
4, 16858, Note_off_c, 0, 71, 0
4, 16860, Note_on_c, 0, 73, 88
4, 16918, Note_off_c, 0, 73, 0
4, 16920, Note_on_c, 0, 74, 88
4, 17154, Note_off_c, 0, 74, 0
4, 17160, Note_on_c, 0, 73, 88
4, 17218, Note_off_c, 0, 73, 0
4, 17220, Note_on_c, 0, 71, 88
4, 17278, Note_off_c, 0, 71, 0
4, 17280, Note_on_c, 0, 69, 88
4, 17514, Note_off_c, 0, 69, 0
4, 17640, Note_on_c, 0, 78, 88
4, 17874, Note_off_c, 0, 78, 0
4, 17880, Note_on_c, 0, 76, 88
4, 17938, Note_off_c, 0, 76, 0
4, 17940, Note_on_c, 0, 74, 88
4, 17998, Note_off_c, 0, 74, 0
4, 18000, Note_on_c, 0, 73, 88
4, 18058, Note_off_c, 0, 73, 0
4, 18060, Note_on_c, 0, 74, 88
4, 18118, Note_off_c, 0, 74, 0
4, 18120, Note_on_c, 0, 76, 88
4, 18356, Note_off_c, 0, 76, 0
4, 18360, Note_on_c, 0, 74, 88
4, 18418, Note_off_c, 0, 74, 0
4, 18420, Note_on_c, 0, 73, 88
4, 18478, Note_off_c, 0, 73, 0
4, 18480, Note_on_c, 0, 71, 88
4, 18538, Note_off_c, 0, 71, 0
4, 18540, Note_on_c, 0, 73, 88
4, 18598, Note_off_c, 0, 73, 0
4, 18600, Note_on_c, 0, 74, 88
4, 18834, Note_off_c, 0, 74, 0
4, 18840, Note_on_c, 0, 73, 88
4, 18898, Note_off_c, 0, 73, 0
4, 18900, Note_on_c, 0, 71, 88
4, 18958, Note_off_c, 0, 71, 0
4, 18960, Note_on_c, 0, 70, 88
4, 19018, Note_off_c, 0, 70, 0
4, 19020, Note_on_c, 0, 71, 88
4, 19078, Note_off_c, 0, 71, 0
4, 19080, Note_on_c, 0, 73, 88
4, 19316, Note_off_c, 0, 73, 0
4, 19320, Note_on_c, 0, 71, 88
4, 19378, Note_off_c, 0, 71, 0
4, 19380, Note_on_c, 0, 70, 88
4, 19438, Note_off_c, 0, 70, 0
4, 19440, Note_on_c, 0, 71, 88
4, 19734, Note_off_c, 0, 71, 0
4, 19740, Note_on_c, 0, 70, 88
4, 19798, Note_off_c, 0, 70, 0
4, 19800, Note_on_c, 0, 71, 88
4, 19858, Note_off_c, 0, 71, 0
4, 19860, Note_on_c, 0, 74, 88
4, 19918, Note_off_c, 0, 74, 0
4, 19920, Note_on_c, 0, 73, 88
4, 20154, Note_off_c, 0, 73, 0
4, 20160, Note_on_c, 0, 71, 88
4, 20394, Note_off_c, 0, 71, 0
4, 20400, Note_on_c, 0, 69, 88
4, 20634, Note_off_c, 0, 69, 0
4, 20640, Note_on_c, 0, 68, 88
4, 20874, Note_off_c, 0, 68, 0
4, 20880, Note_on_c, 0, 66, 88
4, 21236, Note_off_c, 0, 66, 0
4, 21240, Note_on_c, 0, 65, 88
4, 21356, Note_off_c, 0, 65, 0
4, 21360, Note_on_c, 0, 66, 88
4, 21654, Note_off_c, 0, 66, 0
4, 21660, Note_on_c, 0, 68, 88
4, 21718, Note_off_c, 0, 68, 0
4, 21720, Note_on_c, 0, 69, 88
4, 21778, Note_off_c, 0, 69, 0
4, 21780, Note_on_c, 0, 71, 88
4, 21838, Note_off_c, 0, 71, 0
4, 21840, Note_on_c, 0, 73, 88
4, 21898, Note_off_c, 0, 73, 0
4, 21900, Note_on_c, 0, 74, 88
4, 21958, Note_off_c, 0, 74, 0
4, 21960, Note_on_c, 0, 66, 88
4, 22018, Note_off_c, 0, 66, 0
4, 22020, Note_on_c, 0, 65, 88
4, 22078, Note_off_c, 0, 65, 0
4, 22080, Note_on_c, 0, 66, 88
4, 22314, Note_off_c, 0, 66, 0
4, 22320, Note_on_c, 0, 78, 88
4, 22673, Note_off_c, 0, 78, 0
4, 22680, Note_on_c, 0, 76, 88
4, 22796, Note_off_c, 0, 76, 0
4, 22800, Note_on_c, 0, 75, 88
4, 22916, Note_off_c, 0, 75, 0
4, 22920, Note_on_c, 0, 78, 88
4, 23036, Note_off_c, 0, 78, 0
4, 23040, Note_on_c, 0, 79, 88
4, 23630, Note_off_c, 0, 79, 0
4, 23640, Note_on_c, 0, 78, 88
4, 23756, Note_off_c, 0, 78, 0
4, 23760, Note_on_c, 0, 77, 88
4, 23876, Note_off_c, 0, 77, 0
4, 23880, Note_on_c, 0, 80, 88
4, 23996, Note_off_c, 0, 80, 0
4, 24000, Note_on_c, 0, 73, 88
4, 24116, Note_off_c, 0, 73, 0
4, 24120, Note_on_c, 0, 74, 88
4, 24178, Note_off_c, 0, 74, 0
4, 24180, Note_on_c, 0, 76, 88
4, 24238, Note_off_c, 0, 76, 0
4, 24240, Note_on_c, 0, 74, 88
4, 24298, Note_off_c, 0, 74, 0
4, 24300, Note_on_c, 0, 76, 88
4, 24358, Note_off_c, 0, 76, 0
4, 24360, Note_on_c, 0, 78, 88
4, 24594, Note_off_c, 0, 78, 0
4, 24600, Note_on_c, 0, 76, 88
4, 24658, Note_off_c, 0, 76, 0
4, 24660, Note_on_c, 0, 74, 88
4, 24718, Note_off_c, 0, 74, 0
4, 24720, Note_on_c, 0, 73, 88
4, 24778, Note_off_c, 0, 73, 0
4, 24780, Note_on_c, 0, 74, 88
4, 24838, Note_off_c, 0, 74, 0
4, 24840, Note_on_c, 0, 76, 88
4, 25076, Note_off_c, 0, 76, 0
4, 25080, Note_on_c, 0, 74, 88
4, 25138, Note_off_c, 0, 74, 0
4, 25140, Note_on_c, 0, 73, 88
4, 25198, Note_off_c, 0, 73, 0
4, 25200, Note_on_c, 0, 71, 88
4, 25258, Note_off_c, 0, 71, 0
4, 25260, Note_on_c, 0, 73, 88
4, 25318, Note_off_c, 0, 73, 0
4, 25320, Note_on_c, 0, 74, 88
4, 25554, Note_off_c, 0, 74, 0
4, 25560, Note_on_c, 0, 73, 88
4, 25618, Note_off_c, 0, 73, 0
4, 25620, Note_on_c, 0, 71, 88
4, 25678, Note_off_c, 0, 71, 0
4, 25680, Note_on_c, 0, 70, 88
4, 25738, Note_off_c, 0, 70, 0
4, 25740, Note_on_c, 0, 71, 88
4, 25798, Note_off_c, 0, 71, 0
4, 25800, Note_on_c, 0, 73, 88
4, 26036, Note_off_c, 0, 73, 0
4, 26040, Note_on_c, 0, 71, 88
4, 26156, Note_off_c, 0, 71, 0
4, 26280, Note_on_c, 0, 83, 88
4, 26514, Note_off_c, 0, 83, 0
4, 26520, Note_on_c, 0, 81, 88
4, 26578, Note_off_c, 0, 81, 0
4, 26580, Note_on_c, 0, 79, 88
4, 26638, Note_off_c, 0, 79, 0
4, 26640, Note_on_c, 0, 78, 88
4, 26698, Note_off_c, 0, 78, 0
4, 26700, Note_on_c, 0, 79, 88
4, 26758, Note_off_c, 0, 79, 0
4, 26760, Note_on_c, 0, 81, 88
4, 26996, Note_off_c, 0, 81, 0
4, 27000, Note_on_c, 0, 79, 88
4, 27058, Note_off_c, 0, 79, 0
4, 27060, Note_on_c, 0, 78, 88
4, 27118, Note_off_c, 0, 78, 0
4, 27120, Note_on_c, 0, 76, 88
4, 27178, Note_off_c, 0, 76, 0
4, 27180, Note_on_c, 0, 78, 88
4, 27238, Note_off_c, 0, 78, 0
4, 27240, Note_on_c, 0, 79, 88
4, 27474, Note_off_c, 0, 79, 0
4, 27480, Note_on_c, 0, 78, 88
4, 27538, Note_off_c, 0, 78, 0
4, 27540, Note_on_c, 0, 76, 88
4, 27598, Note_off_c, 0, 76, 0
4, 27600, Note_on_c, 0, 75, 88
4, 27658, Note_off_c, 0, 75, 0
4, 27660, Note_on_c, 0, 76, 88
4, 27718, Note_off_c, 0, 76, 0
4, 27720, Note_on_c, 0, 78, 88
4, 27956, Note_off_c, 0, 78, 0
4, 27960, Note_on_c, 0, 76, 88
4, 28018, Note_off_c, 0, 76, 0
4, 28020, Note_on_c, 0, 75, 88
4, 28078, Note_off_c, 0, 75, 0
4, 28080, Note_on_c, 0, 76, 88
4, 28138, Note_off_c, 0, 76, 0
4, 28140, Note_on_c, 0, 78, 88
4, 28198, Note_off_c, 0, 78, 0
4, 28200, Note_on_c, 0, 79, 88
4, 28258, Note_off_c, 0, 79, 0
4, 28260, Note_on_c, 0, 83, 88
4, 28318, Note_off_c, 0, 83, 0
4, 28320, Note_on_c, 0, 81, 88
4, 28436, Note_off_c, 0, 81, 0
4, 28440, Note_on_c, 0, 79, 88
4, 28556, Note_off_c, 0, 79, 0
4, 28560, Note_on_c, 0, 78, 88
4, 28794, Note_off_c, 0, 78, 0
4, 28800, Note_on_c, 0, 76, 88
4, 29034, Note_off_c, 0, 76, 0
4, 29040, Note_on_c, 0, 74, 88
4, 29274, Note_off_c, 0, 74, 0
4, 29280, Note_on_c, 0, 73, 88
4, 29514, Note_off_c, 0, 73, 0
4, 29520, Note_on_c, 0, 71, 88
4, 29578, Note_off_c, 0, 71, 0
4, 29580, Note_on_c, 0, 73, 88
4, 29638, Note_off_c, 0, 73, 0
4, 29640, Note_on_c, 0, 74, 88
4, 29698, Note_off_c, 0, 74, 0
4, 29700, Note_on_c, 0, 76, 88
4, 29758, Note_off_c, 0, 76, 0
4, 29760, Note_on_c, 0, 74, 88
4, 29818, Note_off_c, 0, 74, 0
4, 29820, Note_on_c, 0, 73, 88
4, 29995, Note_off_c, 0, 73, 0
4, 30000, Note_on_c, 0, 71, 88
4, 30294, Note_off_c, 0, 71, 0
4, 30300, Note_on_c, 0, 73, 88
4, 30358, Note_off_c, 0, 73, 0
4, 30360, Note_on_c, 0, 74, 88
4, 30418, Note_off_c, 0, 74, 0
4, 30420, Note_on_c, 0, 76, 88
4, 30478, Note_off_c, 0, 76, 0
4, 30480, Note_on_c, 0, 78, 88
4, 30538, Note_off_c, 0, 78, 0
4, 30540, Note_on_c, 0, 79, 88
4, 30598, Note_off_c, 0, 79, 0
4, 30600, Note_on_c, 0, 71, 88
4, 30658, Note_off_c, 0, 71, 0
4, 30660, Note_on_c, 0, 70, 88
4, 30718, Note_off_c, 0, 70, 0
4, 30720, Note_on_c, 0, 74, 88
4, 31190, Note_off_c, 0, 74, 0
4, 31200, Note_on_c, 0, 73, 88
4, 31553, Note_off_c, 0, 73, 0
4, 31560, Note_on_c, 0, 75, 88
4, 31676, Note_off_c, 0, 75, 0
4, 31680, Note_on_c, 0, 77, 88
4, 31914, Note_off_c, 0, 77, 0
4, 32040, Note_on_c, 0, 78, 88
4, 32215, Note_off_c, 0, 78, 0
4, 32220, Note_on_c, 0, 77, 88
4, 32278, Note_off_c, 0, 77, 0
4, 32280, Note_on_c, 0, 78, 88
4, 32338, Note_off_c, 0, 78, 0
4, 32340, Note_on_c, 0, 81, 88
4, 32398, Note_off_c, 0, 81, 0
4, 32400, Note_on_c, 0, 80, 88
4, 32634, Note_off_c, 0, 80, 0
4, 32760, Note_on_c, 0, 78, 88
4, 32876, Note_off_c, 0, 78, 0
4, 32880, Note_on_c, 0, 74, 88
4, 32996, Note_off_c, 0, 74, 0
4, 33000, Note_on_c, 0, 71, 88
4, 33116, Note_off_c, 0, 71, 0
4, 33120, Note_on_c, 0, 79, 88
4, 33236, Note_off_c, 0, 79, 0
4, 33240, Note_on_c, 0, 78, 88
4, 33356, Note_off_c, 0, 78, 0
4, 33360, Note_on_c, 0, 83, 88
4, 33476, Note_off_c, 0, 83, 0
4, 33480, Note_on_c, 0, 82, 88
4, 33596, Note_off_c, 0, 82, 0
4, 33600, Note_on_c, 0, 76, 88
4, 33716, Note_off_c, 0, 76, 0
4, 33720, Note_on_c, 0, 75, 88
4, 33836, Note_off_c, 0, 75, 0
4, 33840, Note_on_c, 0, 79, 88
4, 34134, Note_off_c, 0, 79, 0
4, 34140, Note_on_c, 0, 78, 88
4, 34198, Note_off_c, 0, 78, 0
4, 34200, Note_on_c, 0, 80, 88
4, 34258, Note_off_c, 0, 80, 0
4, 34260, Note_on_c, 0, 82, 88
4, 34318, Note_off_c, 0, 82, 0
4, 34320, Note_on_c, 0, 83, 88
4, 34378, Note_off_c, 0, 83, 0
4, 34380, Note_on_c, 0, 79, 88
4, 34438, Note_off_c, 0, 79, 0
4, 34440, Note_on_c, 0, 78, 88
4, 34498, Note_off_c, 0, 78, 0
4, 34500, Note_on_c, 0, 77, 88
4, 34558, Note_off_c, 0, 77, 0
4, 34560, Note_on_c, 0, 78, 88
4, 34794, Note_off_c, 0, 78, 0
4, 34800, Note_on_c, 0, 77, 88
4, 35094, Note_off_c, 0, 77, 0
4, 35100, Note_on_c, 0, 76, 88
4, 35158, Note_off_c, 0, 76, 0
4, 35160, Note_on_c, 0, 78, 88
4, 35218, Note_off_c, 0, 78, 0
4, 35220, Note_on_c, 0, 80, 88
4, 35278, Note_off_c, 0, 80, 0
4, 35280, Note_on_c, 0, 81, 88
4, 35338, Note_off_c, 0, 81, 0
4, 35340, Note_on_c, 0, 83, 88
4, 35398, Note_off_c, 0, 83, 0
4, 35400, Note_on_c, 0, 76, 88
4, 35458, Note_off_c, 0, 76, 0
4, 35460, Note_on_c, 0, 75, 88
4, 35518, Note_off_c, 0, 75, 0
4, 35520, Note_on_c, 0, 76, 88
4, 35578, Note_off_c, 0, 76, 0
4, 35580, Note_on_c, 0, 66, 88
4, 35638, Note_off_c, 0, 66, 0
4, 35640, Note_on_c, 0, 67, 88
4, 35698, Note_off_c, 0, 67, 0
4, 35700, Note_on_c, 0, 69, 88
4, 35758, Note_off_c, 0, 69, 0
4, 35760, Note_on_c, 0, 71, 88
4, 35818, Note_off_c, 0, 71, 0
4, 35820, Note_on_c, 0, 73, 88
4, 35878, Note_off_c, 0, 73, 0
4, 35880, Note_on_c, 0, 74, 88
4, 35938, Note_off_c, 0, 74, 0
4, 35940, Note_on_c, 0, 78, 88
4, 35998, Note_off_c, 0, 78, 0
4, 36000, Note_on_c, 0, 76, 88
4, 36058, Note_off_c, 0, 76, 0
4, 36060, Note_on_c, 0, 73, 88
4, 36118, Note_off_c, 0, 73, 0
4, 36120, Note_on_c, 0, 74, 88
4, 36178, Note_off_c, 0, 74, 0
4, 36180, Note_on_c, 0, 78, 88
4, 36238, Note_off_c, 0, 78, 0
4, 36240, Note_on_c, 0, 79, 88
4, 36298, Note_off_c, 0, 79, 0
4, 36300, Note_on_c, 0, 76, 88
4, 36358, Note_off_c, 0, 76, 0
4, 36360, Note_on_c, 0, 78, 88
4, 36418, Note_off_c, 0, 78, 0
4, 36420, Note_on_c, 0, 82, 88
4, 36478, Note_off_c, 0, 82, 0
4, 36480, Note_on_c, 0, 83, 88
4, 36714, Note_off_c, 0, 83, 0
4, 36720, Note_on_c, 0, 81, 88
4, 36954, Note_off_c, 0, 81, 0
4, 36960, Note_on_c, 0, 80, 88
4, 37194, Note_off_c, 0, 80, 0
4, 37200, Note_on_c, 0, 78, 88
4, 37498, Note_off_c, 0, 78, 0
4, 37500, Note_on_c, 0, 77, 88
4, 37558, Note_off_c, 0, 77, 0
4, 37560, Note_on_c, 0, 78, 88
4, 37618, Note_off_c, 0, 78, 0
4, 37620, Note_on_c, 0, 77, 88
4, 37678, Note_off_c, 0, 77, 0
4, 37680, Note_on_c, 0, 78, 88
4, 37974, Note_off_c, 0, 78, 0
4, 37980, Note_on_c, 0, 69, 88
4, 38038, Note_off_c, 0, 69, 0
4, 38040, Note_on_c, 0, 71, 88
4, 38098, Note_off_c, 0, 71, 0
4, 38100, Note_on_c, 0, 73, 88
4, 38158, Note_off_c, 0, 73, 0
4, 38160, Note_on_c, 0, 74, 88
4, 38218, Note_off_c, 0, 74, 0
4, 38220, Note_on_c, 0, 76, 88
4, 38278, Note_off_c, 0, 76, 0
4, 38280, Note_on_c, 0, 66, 88
4, 38338, Note_off_c, 0, 66, 0
4, 38340, Note_on_c, 0, 65, 88
4, 38398, Note_off_c, 0, 65, 0
4, 38400, Note_on_c, 0, 66, 88
4, 38516, Note_off_c, 0, 66, 0
4, 38520, Note_on_c, 0, 78, 88
4, 38636, Note_off_c, 0, 78, 0
4, 38640, Note_on_c, 0, 74, 88
4, 38756, Note_off_c, 0, 74, 0
4, 38760, Note_on_c, 0, 71, 88
4, 38876, Note_off_c, 0, 71, 0
4, 38880, Note_on_c, 0, 79, 88
4, 38996, Note_off_c, 0, 79, 0
4, 39000, Note_on_c, 0, 78, 88
4, 39116, Note_off_c, 0, 78, 0
4, 39120, Note_on_c, 0, 83, 88
4, 39236, Note_off_c, 0, 83, 0
4, 39240, Note_on_c, 0, 82, 88
4, 39356, Note_off_c, 0, 82, 0
4, 39360, Note_on_c, 0, 76, 88
4, 39476, Note_off_c, 0, 76, 0
4, 39480, Note_on_c, 0, 75, 88
4, 39596, Note_off_c, 0, 75, 0
4, 39720, Note_on_c, 0, 76, 88
4, 39895, Note_off_c, 0, 76, 0
4, 39900, Note_on_c, 0, 75, 88
4, 39958, Note_off_c, 0, 75, 0
4, 39960, Note_on_c, 0, 76, 88
4, 40018, Note_off_c, 0, 76, 0
4, 40020, Note_on_c, 0, 79, 88
4, 40078, Note_off_c, 0, 79, 0
4, 40080, Note_on_c, 0, 78, 88
4, 40314, Note_off_c, 0, 78, 0
4, 40320, Note_on_c, 0, 76, 88
4, 40378, Note_off_c, 0, 76, 0
4, 40380, Note_on_c, 0, 74, 88
4, 40438, Note_off_c, 0, 74, 0
4, 40440, Note_on_c, 0, 73, 88
4, 40498, Note_off_c, 0, 73, 0
4, 40500, Note_on_c, 0, 71, 88
4, 40558, Note_off_c, 0, 71, 0
4, 40560, Note_on_c, 0, 69, 88
4, 40618, Note_off_c, 0, 69, 0
4, 40620, Note_on_c, 0, 71, 88
4, 40678, Note_off_c, 0, 71, 0
4, 40680, Note_on_c, 0, 73, 88
4, 40738, Note_off_c, 0, 73, 0
4, 40740, Note_on_c, 0, 76, 88
4, 40798, Note_off_c, 0, 76, 0
4, 40800, Note_on_c, 0, 74, 88
4, 40858, Note_off_c, 0, 74, 0
4, 40860, Note_on_c, 0, 71, 88
4, 40918, Note_off_c, 0, 71, 0
4, 40920, Note_on_c, 0, 73, 88
4, 40978, Note_off_c, 0, 73, 0
4, 40980, Note_on_c, 0, 76, 88
4, 41038, Note_off_c, 0, 76, 0
4, 41040, Note_on_c, 0, 78, 88
4, 41098, Note_off_c, 0, 78, 0
4, 41100, Note_on_c, 0, 74, 88
4, 41158, Note_off_c, 0, 74, 0
4, 41160, Note_on_c, 0, 76, 88
4, 41218, Note_off_c, 0, 76, 0
4, 41220, Note_on_c, 0, 80, 88
4, 41278, Note_off_c, 0, 80, 0
4, 41280, Note_on_c, 0, 81, 88
4, 41338, Note_off_c, 0, 81, 0
4, 41340, Note_on_c, 0, 79, 88
4, 41398, Note_off_c, 0, 79, 0
4, 41400, Note_on_c, 0, 78, 88
4, 41458, Note_off_c, 0, 78, 0
4, 41460, Note_on_c, 0, 76, 88
4, 41518, Note_off_c, 0, 76, 0
4, 41520, Note_on_c, 0, 74, 88
4, 41578, Note_off_c, 0, 74, 0
4, 41580, Note_on_c, 0, 73, 88
4, 41638, Note_off_c, 0, 73, 0
4, 41640, Note_on_c, 0, 71, 88
4, 41698, Note_off_c, 0, 71, 0
4, 41700, Note_on_c, 0, 69, 88
4, 41758, Note_off_c, 0, 69, 0
4, 41760, Note_on_c, 0, 67, 88
4, 41818, Note_off_c, 0, 67, 0
4, 41820, Note_on_c, 0, 64, 88
4, 41878, Note_off_c, 0, 64, 0
4, 41880, Note_on_c, 0, 66, 88
4, 41938, Note_off_c, 0, 66, 0
4, 41940, Note_on_c, 0, 69, 88
4, 41998, Note_off_c, 0, 69, 0
4, 42000, Note_on_c, 0, 71, 88
4, 42058, Note_off_c, 0, 71, 0
4, 42060, Note_on_c, 0, 67, 88
4, 42118, Note_off_c, 0, 67, 0
4, 42120, Note_on_c, 0, 69, 88
4, 42178, Note_off_c, 0, 69, 0
4, 42180, Note_on_c, 0, 73, 88
4, 42238, Note_off_c, 0, 73, 0
4, 42240, Note_on_c, 0, 74, 88
4, 42298, Note_off_c, 0, 74, 0
4, 42300, Note_on_c, 0, 76, 88
4, 42358, Note_off_c, 0, 76, 0
4, 42360, Note_on_c, 0, 74, 88
4, 42418, Note_off_c, 0, 74, 0
4, 42420, Note_on_c, 0, 76, 88
4, 42478, Note_off_c, 0, 76, 0
4, 42480, Note_on_c, 0, 78, 88
4, 42538, Note_off_c, 0, 78, 0
4, 42540, Note_on_c, 0, 79, 88
4, 42598, Note_off_c, 0, 79, 0
4, 42600, Note_on_c, 0, 81, 88
4, 42658, Note_off_c, 0, 81, 0
4, 42660, Note_on_c, 0, 78, 88
4, 42718, Note_off_c, 0, 78, 0
4, 42720, Note_on_c, 0, 74, 88
4, 42778, Note_off_c, 0, 74, 0
4, 42780, Note_on_c, 0, 77, 88
4, 42838, Note_off_c, 0, 77, 0
4, 42840, Note_on_c, 0, 76, 88
4, 42898, Note_off_c, 0, 76, 0
4, 42900, Note_on_c, 0, 74, 88
4, 42958, Note_off_c, 0, 74, 0
4, 42960, Note_on_c, 0, 72, 88
4, 43018, Note_off_c, 0, 72, 0
4, 43020, Note_on_c, 0, 71, 88
4, 43078, Note_off_c, 0, 71, 0
4, 43080, Note_on_c, 0, 72, 88
4, 43138, Note_off_c, 0, 72, 0
4, 43140, Note_on_c, 0, 74, 88
4, 43198, Note_off_c, 0, 74, 0
4, 43200, Note_on_c, 0, 72, 88
4, 43258, Note_off_c, 0, 72, 0
4, 43260, Note_on_c, 0, 71, 88
4, 43435, Note_off_c, 0, 71, 0
4, 43440, Note_on_c, 0, 69, 88
4, 43793, Note_off_c, 0, 69, 0
4, 43800, Note_on_c, 0, 74, 88
4, 43858, Note_off_c, 0, 74, 0
4, 43860, Note_on_c, 0, 76, 88
4, 43918, Note_off_c, 0, 76, 0
4, 43920, Note_on_c, 0, 78, 88
4, 43978, Note_off_c, 0, 78, 0
4, 43980, Note_on_c, 0, 79, 88
4, 44038, Note_off_c, 0, 79, 0
4, 44040, Note_on_c, 0, 69, 88
4, 44098, Note_off_c, 0, 69, 0
4, 44100, Note_on_c, 0, 68, 88
4, 44158, Note_off_c, 0, 68, 0
4, 44160, Note_on_c, 0, 76, 88
4, 44218, Note_off_c, 0, 76, 0
4, 44220, Note_on_c, 0, 78, 88
4, 44278, Note_off_c, 0, 78, 0
4, 44280, Note_on_c, 0, 67, 88
4, 44338, Note_off_c, 0, 67, 0
4, 44340, Note_on_c, 0, 66, 88
4, 44398, Note_off_c, 0, 66, 0
4, 44400, Note_on_c, 0, 74, 88
4, 44458, Note_off_c, 0, 74, 0
4, 44460, Note_on_c, 0, 76, 88
4, 44518, Note_off_c, 0, 76, 0
4, 44520, Note_on_c, 0, 66, 88
4, 44578, Note_off_c, 0, 66, 0
4, 44580, Note_on_c, 0, 64, 88
4, 44638, Note_off_c, 0, 64, 0
4, 44640, Note_on_c, 0, 73, 88
4, 44698, Note_off_c, 0, 73, 0
4, 44700, Note_on_c, 0, 71, 88
4, 44758, Note_off_c, 0, 71, 0
4, 44760, Note_on_c, 0, 73, 88
4, 44818, Note_off_c, 0, 73, 0
4, 44820, Note_on_c, 0, 74, 88
4, 44878, Note_off_c, 0, 74, 0
4, 44880, Note_on_c, 0, 76, 88
4, 44938, Note_off_c, 0, 76, 0
4, 44940, Note_on_c, 0, 78, 88
4, 44998, Note_off_c, 0, 78, 0
4, 45000, Note_on_c, 0, 79, 88
4, 45058, Note_off_c, 0, 79, 0
4, 45060, Note_on_c, 0, 76, 88
4, 45118, Note_off_c, 0, 76, 0
4, 45120, Note_on_c, 0, 81, 88
4, 45590, Note_off_c, 0, 81, 0
4, 45600, Note_on_c, 0, 79, 88
4, 45834, Note_off_c, 0, 79, 0
4, 45840, Note_on_c, 0, 77, 88
4, 46074, Note_off_c, 0, 77, 0
4, 46080, Note_on_c, 0, 76, 88
4, 46314, Note_off_c, 0, 76, 0
4, 46320, Note_on_c, 0, 74, 88
4, 46614, Note_off_c, 0, 74, 0
4, 46620, Note_on_c, 0, 73, 88
4, 46678, Note_off_c, 0, 73, 0
4, 46680, Note_on_c, 0, 74, 88
4, 46738, Note_off_c, 0, 74, 0
4, 46740, Note_on_c, 0, 73, 88
4, 46798, Note_off_c, 0, 73, 0
4, 46800, Note_on_c, 0, 74, 88
4, 47098, Note_off_c, 0, 74, 0
4, 47100, Note_on_c, 0, 76, 88
4, 47158, Note_off_c, 0, 76, 0
4, 47160, Note_on_c, 0, 78, 88
4, 47218, Note_off_c, 0, 78, 0
4, 47220, Note_on_c, 0, 79, 88
4, 47278, Note_off_c, 0, 79, 0
4, 47280, Note_on_c, 0, 81, 88
4, 47338, Note_off_c, 0, 81, 0
4, 47340, Note_on_c, 0, 83, 88
4, 47398, Note_off_c, 0, 83, 0
4, 47400, Note_on_c, 0, 74, 88
4, 47458, Note_off_c, 0, 74, 0
4, 47460, Note_on_c, 0, 73, 88
4, 47518, Note_off_c, 0, 73, 0
4, 47520, Note_on_c, 0, 74, 88
4, 48234, Note_off_c, 0, 74, 0
4, 48240, Note_on_c, 0, 73, 88
4, 48356, Note_off_c, 0, 73, 0
4, 48360, Note_on_c, 0, 78, 88
4, 48535, Note_off_c, 0, 78, 0
4, 48540, Note_on_c, 0, 71, 88
4, 48598, Note_off_c, 0, 71, 0
4, 48600, Note_on_c, 0, 73, 88
4, 48658, Note_off_c, 0, 73, 0
4, 48660, Note_on_c, 0, 74, 88
4, 48718, Note_off_c, 0, 74, 0
4, 48720, Note_on_c, 0, 76, 88
4, 48778, Note_off_c, 0, 76, 0
4, 48780, Note_on_c, 0, 78, 88
4, 48838, Note_off_c, 0, 78, 0
4, 48840, Note_on_c, 0, 71, 88
4, 48898, Note_off_c, 0, 71, 0
4, 48900, Note_on_c, 0, 70, 88
4, 48958, Note_off_c, 0, 70, 0
4, 48960, Note_on_c, 0, 74, 88
4, 49194, Note_off_c, 0, 74, 0
4, 49200, Note_on_c, 0, 73, 88
4, 49316, Note_off_c, 0, 73, 0
4, 49320, Note_on_c, 0, 71, 88
4, 49436, Note_off_c, 0, 71, 0
4, 49440, Note_on_c, 0, 73, 88
4, 49910, Note_off_c, 0, 73, 0
4, 49980, Note_on_c, 0, 66, 88
4, 50038, Note_off_c, 0, 66, 0
4, 50040, Note_on_c, 0, 68, 88
4, 50098, Note_off_c, 0, 68, 0
4, 50100, Note_on_c, 0, 69, 88
4, 50158, Note_off_c, 0, 69, 0
4, 50160, Note_on_c, 0, 71, 88
4, 50218, Note_off_c, 0, 71, 0
4, 50220, Note_on_c, 0, 73, 88
4, 50278, Note_off_c, 0, 73, 0
4, 50280, Note_on_c, 0, 66, 88
4, 50338, Note_off_c, 0, 66, 0
4, 50340, Note_on_c, 0, 65, 88
4, 50398, Note_off_c, 0, 65, 0
4, 50400, Note_on_c, 0, 69, 88
4, 50634, Note_off_c, 0, 69, 0
4, 51120, Note_on_c, 0, 80, 88
4, 51354, Note_off_c, 0, 80, 0
4, 51360, Note_on_c, 0, 78, 88
4, 51594, Note_off_c, 0, 78, 0
4, 51600, Note_on_c, 0, 76, 88
4, 51834, Note_off_c, 0, 76, 0
4, 51840, Note_on_c, 0, 75, 88
4, 52074, Note_off_c, 0, 75, 0
4, 52080, Note_on_c, 0, 73, 88
4, 52433, Note_off_c, 0, 73, 0
4, 52440, Note_on_c, 0, 72, 88
4, 52556, Note_off_c, 0, 72, 0
4, 52560, Note_on_c, 0, 73, 88
4, 52858, Note_off_c, 0, 73, 0
4, 52860, Note_on_c, 0, 75, 88
4, 52918, Note_off_c, 0, 75, 0
4, 52920, Note_on_c, 0, 76, 88
4, 52978, Note_off_c, 0, 76, 0
4, 52980, Note_on_c, 0, 78, 88
4, 53038, Note_off_c, 0, 78, 0
4, 53040, Note_on_c, 0, 80, 88
4, 53098, Note_off_c, 0, 80, 0
4, 53100, Note_on_c, 0, 81, 88
4, 53158, Note_off_c, 0, 81, 0
4, 53160, Note_on_c, 0, 73, 88
4, 53218, Note_off_c, 0, 73, 0
4, 53220, Note_on_c, 0, 72, 88
4, 53278, Note_off_c, 0, 72, 0
4, 53280, Note_on_c, 0, 76, 88
4, 53813, Note_off_c, 0, 76, 0
4, 53820, Note_on_c, 0, 76, 88
4, 53878, Note_off_c, 0, 76, 0
4, 53880, Note_on_c, 0, 78, 88
4, 53938, Note_off_c, 0, 78, 0
4, 53940, Note_on_c, 0, 80, 88
4, 53998, Note_off_c, 0, 80, 0
4, 54000, Note_on_c, 0, 81, 88
4, 54058, Note_off_c, 0, 81, 0
4, 54060, Note_on_c, 0, 83, 88
4, 54118, Note_off_c, 0, 83, 0
4, 54120, Note_on_c, 0, 75, 88
4, 54178, Note_off_c, 0, 75, 0
4, 54180, Note_on_c, 0, 73, 88
4, 54238, Note_off_c, 0, 73, 0
4, 54240, Note_on_c, 0, 75, 88
4, 54474, Note_off_c, 0, 75, 0
4, 54960, Note_on_c, 0, 78, 88
4, 55194, Note_off_c, 0, 78, 0
4, 55200, Note_on_c, 0, 76, 88
4, 55434, Note_off_c, 0, 76, 0
4, 55440, Note_on_c, 0, 74, 88
4, 55674, Note_off_c, 0, 74, 0
4, 55680, Note_on_c, 0, 73, 88
4, 55914, Note_off_c, 0, 73, 0
4, 55920, Note_on_c, 0, 71, 88
4, 56214, Note_off_c, 0, 71, 0
4, 56220, Note_on_c, 0, 70, 88
4, 56278, Note_off_c, 0, 70, 0
4, 56280, Note_on_c, 0, 71, 88
4, 56338, Note_off_c, 0, 71, 0
4, 56340, Note_on_c, 0, 70, 88
4, 56398, Note_off_c, 0, 70, 0
4, 56400, Note_on_c, 0, 71, 88
4, 56698, Note_off_c, 0, 71, 0
4, 56700, Note_on_c, 0, 73, 88
4, 56758, Note_off_c, 0, 73, 0
4, 56760, Note_on_c, 0, 74, 88
4, 56818, Note_off_c, 0, 74, 0
4, 56820, Note_on_c, 0, 76, 88
4, 56878, Note_off_c, 0, 76, 0
4, 56880, Note_on_c, 0, 78, 88
4, 56938, Note_off_c, 0, 78, 0
4, 56940, Note_on_c, 0, 79, 88
4, 56998, Note_off_c, 0, 79, 0
4, 57000, Note_on_c, 0, 71, 88
4, 57058, Note_off_c, 0, 71, 0
4, 57060, Note_on_c, 0, 70, 88
4, 57118, Note_off_c, 0, 70, 0
4, 57120, Note_on_c, 0, 74, 88
4, 57414, Note_off_c, 0, 74, 0
4, 57420, Note_on_c, 0, 73, 88
4, 57478, Note_off_c, 0, 73, 0
4, 57480, Note_on_c, 0, 74, 88
4, 57538, Note_off_c, 0, 74, 0
4, 57540, Note_on_c, 0, 73, 88
4, 57598, Note_off_c, 0, 73, 0
4, 57600, Note_on_c, 0, 76, 88
4, 57658, Note_off_c, 0, 76, 0
4, 57660, Note_on_c, 0, 74, 88
4, 57718, Note_off_c, 0, 74, 0
4, 57720, Note_on_c, 0, 78, 88
4, 57778, Note_off_c, 0, 78, 0
4, 57780, Note_on_c, 0, 76, 88
4, 57838, Note_off_c, 0, 76, 0
4, 57840, Note_on_c, 0, 79, 88
4, 58252, Note_off_c, 0, 79, 0
4, 58260, Note_on_c, 0, 78, 88
4, 58318, Note_off_c, 0, 78, 0
4, 58320, Note_on_c, 0, 81, 88
4, 58735, Note_off_c, 0, 81, 0
4, 58740, Note_on_c, 0, 80, 88
4, 58798, Note_off_c, 0, 80, 0
4, 58800, Note_on_c, 0, 83, 88
4, 58916, Note_off_c, 0, 83, 0
4, 58920, Note_on_c, 0, 81, 88
4, 59036, Note_off_c, 0, 81, 0
4, 59040, Note_on_c, 0, 80, 88
4, 59334, Note_off_c, 0, 80, 0
4, 59340, Note_on_c, 0, 77, 88
4, 59398, Note_off_c, 0, 77, 0
4, 59400, Note_on_c, 0, 78, 88
4, 59573, Note_off_c, 0, 78, 0
4, 59580, Note_on_c, 0, 78, 88
4, 59638, Note_off_c, 0, 78, 0
4, 59640, Note_on_c, 0, 80, 88
4, 59698, Note_off_c, 0, 80, 0
4, 59700, Note_on_c, 0, 81, 88
4, 59758, Note_off_c, 0, 81, 0
4, 59760, Note_on_c, 0, 83, 88
4, 59818, Note_off_c, 0, 83, 0
4, 59820, Note_on_c, 0, 80, 88
4, 59878, Note_off_c, 0, 80, 0
4, 59880, Note_on_c, 0, 78, 88
4, 59938, Note_off_c, 0, 78, 0
4, 59940, Note_on_c, 0, 77, 88
4, 59998, Note_off_c, 0, 77, 0
4, 60000, Note_on_c, 0, 81, 88
4, 61011, Note_off_c, 0, 81, 0
4, 61020, Note_on_c, 0, 78, 88
4, 61078, Note_off_c, 0, 78, 0
4, 61080, Note_on_c, 0, 79, 88
4, 61138, Note_off_c, 0, 79, 0
4, 61140, Note_on_c, 0, 81, 88
4, 61198, Note_off_c, 0, 81, 0
4, 61200, Note_on_c, 0, 83, 88
4, 61258, Note_off_c, 0, 83, 0
4, 61260, Note_on_c, 0, 84, 88
4, 61318, Note_off_c, 0, 84, 0
4, 61320, Note_on_c, 0, 78, 88
4, 61378, Note_off_c, 0, 78, 0
4, 61380, Note_on_c, 0, 76, 88
4, 61438, Note_off_c, 0, 76, 0
4, 61440, Note_on_c, 0, 78, 88
4, 61733, Note_off_c, 0, 78, 0
4, 61740, Note_on_c, 0, 78, 88
4, 61798, Note_off_c, 0, 78, 0
4, 61800, Note_on_c, 0, 74, 88
4, 61858, Note_off_c, 0, 74, 0
4, 61860, Note_on_c, 0, 71, 88
4, 61918, Note_off_c, 0, 71, 0
4, 61920, Note_on_c, 0, 79, 88
4, 61978, Note_off_c, 0, 79, 0
4, 61980, Note_on_c, 0, 81, 88
4, 62038, Note_off_c, 0, 81, 0
4, 62040, Note_on_c, 0, 83, 88
4, 62274, Note_off_c, 0, 83, 0
4, 62280, Note_on_c, 0, 81, 88
4, 62338, Note_off_c, 0, 81, 0
4, 62340, Note_on_c, 0, 79, 88
4, 62398, Note_off_c, 0, 79, 0
4, 62400, Note_on_c, 0, 78, 88
4, 62458, Note_off_c, 0, 78, 0
4, 62460, Note_on_c, 0, 79, 88
4, 62518, Note_off_c, 0, 79, 0
4, 62520, Note_on_c, 0, 81, 88
4, 62754, Note_off_c, 0, 81, 0
4, 62760, Note_on_c, 0, 79, 88
4, 62818, Note_off_c, 0, 79, 0
4, 62820, Note_on_c, 0, 78, 88
4, 62878, Note_off_c, 0, 78, 0
4, 62880, Note_on_c, 0, 76, 88
4, 62938, Note_off_c, 0, 76, 0
4, 62940, Note_on_c, 0, 78, 88
4, 62998, Note_off_c, 0, 78, 0
4, 63000, Note_on_c, 0, 79, 88
4, 63234, Note_off_c, 0, 79, 0
4, 63240, Note_on_c, 0, 78, 88
4, 63298, Note_off_c, 0, 78, 0
4, 63300, Note_on_c, 0, 76, 88
4, 63358, Note_off_c, 0, 76, 0
4, 63360, Note_on_c, 0, 74, 88
4, 63654, Note_off_c, 0, 74, 0
4, 63660, Note_on_c, 0, 76, 88
4, 63718, Note_off_c, 0, 76, 0
4, 63720, Note_on_c, 0, 78, 88
4, 63954, Note_off_c, 0, 78, 0
4, 63960, Note_on_c, 0, 76, 88
4, 64018, Note_off_c, 0, 76, 0
4, 64020, Note_on_c, 0, 74, 88
4, 64078, Note_off_c, 0, 74, 0
4, 64080, Note_on_c, 0, 73, 88
4, 64138, Note_off_c, 0, 73, 0
4, 64140, Note_on_c, 0, 74, 88
4, 64198, Note_off_c, 0, 74, 0
4, 64200, Note_on_c, 0, 76, 88
4, 64436, Note_off_c, 0, 76, 0
4, 64440, Note_on_c, 0, 74, 88
4, 64498, Note_off_c, 0, 74, 0
4, 64500, Note_on_c, 0, 73, 88
4, 64558, Note_off_c, 0, 73, 0
4, 64560, Note_on_c, 0, 71, 88
4, 64618, Note_off_c, 0, 71, 0
4, 64620, Note_on_c, 0, 73, 88
4, 64678, Note_off_c, 0, 73, 0
4, 64680, Note_on_c, 0, 74, 88
4, 64914, Note_off_c, 0, 74, 0
4, 64920, Note_on_c, 0, 73, 88
4, 64978, Note_off_c, 0, 73, 0
4, 64980, Note_on_c, 0, 71, 88
4, 65038, Note_off_c, 0, 71, 0
4, 65040, Note_on_c, 0, 70, 88
4, 65098, Note_off_c, 0, 70, 0
4, 65100, Note_on_c, 0, 71, 88
4, 65158, Note_off_c, 0, 71, 0
4, 65160, Note_on_c, 0, 73, 88
4, 65338, Note_off_c, 0, 73, 0
4, 65340, Note_on_c, 0, 66, 88
4, 65398, Note_off_c, 0, 66, 0
4, 65400, Note_on_c, 0, 68, 88
4, 65458, Note_off_c, 0, 68, 0
4, 65460, Note_on_c, 0, 70, 88
4, 65518, Note_off_c, 0, 70, 0
4, 65520, Note_on_c, 0, 71, 88
4, 65578, Note_off_c, 0, 71, 0
4, 65580, Note_on_c, 0, 73, 88
4, 65638, Note_off_c, 0, 73, 0
4, 65640, Note_on_c, 0, 74, 88
4, 65698, Note_off_c, 0, 74, 0
4, 65700, Note_on_c, 0, 78, 88
4, 65758, Note_off_c, 0, 78, 0
4, 65760, Note_on_c, 0, 76, 88
4, 65818, Note_off_c, 0, 76, 0
4, 65820, Note_on_c, 0, 73, 88
4, 65878, Note_off_c, 0, 73, 0
4, 65880, Note_on_c, 0, 74, 88
4, 65938, Note_off_c, 0, 74, 0
4, 65940, Note_on_c, 0, 78, 88
4, 65998, Note_off_c, 0, 78, 0
4, 66000, Note_on_c, 0, 79, 88
4, 66058, Note_off_c, 0, 79, 0
4, 66060, Note_on_c, 0, 76, 88
4, 66118, Note_off_c, 0, 76, 0
4, 66120, Note_on_c, 0, 78, 88
4, 66178, Note_off_c, 0, 78, 0
4, 66180, Note_on_c, 0, 82, 88
4, 66238, Note_off_c, 0, 82, 0
4, 66240, Note_on_c, 0, 83, 88
4, 66298, Note_off_c, 0, 83, 0
4, 66300, Note_on_c, 0, 81, 88
4, 66358, Note_off_c, 0, 81, 0
4, 66360, Note_on_c, 0, 79, 88
4, 66418, Note_off_c, 0, 79, 0
4, 66420, Note_on_c, 0, 78, 88
4, 66478, Note_off_c, 0, 78, 0
4, 66480, Note_on_c, 0, 76, 88
4, 66538, Note_off_c, 0, 76, 0
4, 66540, Note_on_c, 0, 74, 88
4, 66598, Note_off_c, 0, 74, 0
4, 66600, Note_on_c, 0, 72, 88
4, 66658, Note_off_c, 0, 72, 0
4, 66660, Note_on_c, 0, 71, 88
4, 66718, Note_off_c, 0, 71, 0
4, 66720, Note_on_c, 0, 69, 88
4, 66778, Note_off_c, 0, 69, 0
4, 66780, Note_on_c, 0, 66, 88
4, 66838, Note_off_c, 0, 66, 0
4, 66840, Note_on_c, 0, 67, 88
4, 66898, Note_off_c, 0, 67, 0
4, 66900, Note_on_c, 0, 71, 88
4, 66958, Note_off_c, 0, 71, 0
4, 66960, Note_on_c, 0, 72, 88
4, 67018, Note_off_c, 0, 72, 0
4, 67020, Note_on_c, 0, 69, 88
4, 67078, Note_off_c, 0, 69, 0
4, 67080, Note_on_c, 0, 71, 88
4, 67138, Note_off_c, 0, 71, 0
4, 67140, Note_on_c, 0, 75, 88
4, 67198, Note_off_c, 0, 75, 0
4, 67200, Note_on_c, 0, 76, 88
4, 67434, Note_off_c, 0, 76, 0
4, 67440, Note_on_c, 0, 74, 88
4, 67674, Note_off_c, 0, 74, 0
4, 67680, Note_on_c, 0, 73, 88
4, 67914, Note_off_c, 0, 73, 0
4, 67920, Note_on_c, 0, 71, 88
4, 68218, Note_off_c, 0, 71, 0
4, 68220, Note_on_c, 0, 70, 88
4, 68278, Note_off_c, 0, 70, 0
4, 68280, Note_on_c, 0, 71, 88
4, 68338, Note_off_c, 0, 71, 0
4, 68340, Note_on_c, 0, 70, 88
4, 68398, Note_off_c, 0, 70, 0
4, 68400, Note_on_c, 0, 71, 88
4, 68694, Note_off_c, 0, 71, 0
4, 68700, Note_on_c, 0, 73, 88
4, 68758, Note_off_c, 0, 73, 0
4, 68760, Note_on_c, 0, 74, 88
4, 68818, Note_off_c, 0, 74, 0
4, 68820, Note_on_c, 0, 76, 88
4, 68878, Note_off_c, 0, 76, 0
4, 68880, Note_on_c, 0, 78, 88
4, 68938, Note_off_c, 0, 78, 0
4, 68940, Note_on_c, 0, 79, 88
4, 68998, Note_off_c, 0, 79, 0
4, 69000, Note_on_c, 0, 71, 88
4, 69058, Note_off_c, 0, 71, 0
4, 69060, Note_on_c, 0, 70, 88
4, 69118, Note_off_c, 0, 70, 0
4, 69120, Note_on_c, 0, 71, 88
4, 69178, Note_off_c, 0, 71, 0
4, 69180, Note_on_c, 0, 74, 88
4, 69238, Note_off_c, 0, 74, 0
4, 69240, Note_on_c, 0, 76, 88
4, 69298, Note_off_c, 0, 76, 0
4, 69300, Note_on_c, 0, 78, 88
4, 69358, Note_off_c, 0, 78, 0
4, 69360, Note_on_c, 0, 79, 88
4, 69418, Note_off_c, 0, 79, 0
4, 69420, Note_on_c, 0, 81, 88
4, 69478, Note_off_c, 0, 81, 0
4, 69480, Note_on_c, 0, 72, 88
4, 69538, Note_off_c, 0, 72, 0
4, 69540, Note_on_c, 0, 71, 88
4, 69598, Note_off_c, 0, 71, 0
4, 69600, Note_on_c, 0, 72, 88
4, 69658, Note_off_c, 0, 72, 0
4, 69660, Note_on_c, 0, 76, 88
4, 69718, Note_off_c, 0, 76, 0
4, 69720, Note_on_c, 0, 78, 88
4, 69778, Note_off_c, 0, 78, 0
4, 69780, Note_on_c, 0, 79, 88
4, 69838, Note_off_c, 0, 79, 0
4, 69840, Note_on_c, 0, 82, 88
4, 69898, Note_off_c, 0, 82, 0
4, 69900, Note_on_c, 0, 83, 88
4, 69958, Note_off_c, 0, 83, 0
4, 69960, Note_on_c, 0, 74, 88
4, 70018, Note_off_c, 0, 74, 0
4, 70020, Note_on_c, 0, 73, 88
4, 70078, Note_off_c, 0, 73, 0
4, 70080, Note_on_c, 0, 74, 88
4, 70550, Note_off_c, 0, 74, 0
4, 70560, Note_on_c, 0, 73, 88
4, 71274, Note_off_c, 0, 73, 0
4, 71280, Note_on_c, 0, 72, 88
4, 71338, Note_off_c, 0, 72, 0
4, 71340, Note_on_c, 0, 70, 88
4, 71398, Note_off_c, 0, 70, 0
4, 71400, Note_on_c, 0, 71, 88
4, 71753, Note_off_c, 0, 71, 0
4, 71760, Note_on_c, 0, 70, 88
4, 71994, Note_off_c, 0, 70, 0
4, 72000, Note_on_c, 0, 71, 88
4, 72945, Note_off_c, 0, 71, 0
4, 72945, End_track
5, 0, Start_track
5, 0, Title_t, "Track 2"
5, 0, Program_c, 1, 6
5, 120, Note_on_c, 1, 66, 88
5, 236, Note_off_c, 1, 66, 0
5, 240, Note_on_c, 1, 62, 88
5, 356, Note_off_c, 1, 62, 0
5, 360, Note_on_c, 1, 59, 88
5, 476, Note_off_c, 1, 59, 0
5, 480, Note_on_c, 1, 67, 88
5, 596, Note_off_c, 1, 67, 0
5, 600, Note_on_c, 1, 66, 88
5, 716, Note_off_c, 1, 66, 0
5, 720, Note_on_c, 1, 71, 88
5, 836, Note_off_c, 1, 71, 0
5, 840, Note_on_c, 1, 70, 88
5, 956, Note_off_c, 1, 70, 0
5, 960, Note_on_c, 1, 64, 88
5, 1076, Note_off_c, 1, 64, 0
5, 1080, Note_on_c, 1, 63, 88
5, 1196, Note_off_c, 1, 63, 0
5, 1200, Note_on_c, 1, 72, 88
5, 1316, Note_off_c, 1, 72, 0
5, 1320, Note_on_c, 1, 71, 88
5, 1436, Note_off_c, 1, 71, 0
5, 1440, Note_on_c, 1, 66, 88
5, 1556, Note_off_c, 1, 66, 0
5, 1560, Note_on_c, 1, 65, 88
5, 1676, Note_off_c, 1, 65, 0
5, 1680, Note_on_c, 1, 74, 88
5, 1796, Note_off_c, 1, 74, 0
5, 1800, Note_on_c, 1, 73, 88
5, 1916, Note_off_c, 1, 73, 0
5, 1920, Note_on_c, 1, 72, 88
5, 2036, Note_off_c, 1, 72, 0
5, 2040, Note_on_c, 1, 73, 88
5, 2156, Note_off_c, 1, 73, 0
5, 2160, Note_on_c, 1, 69, 88
5, 2276, Note_off_c, 1, 69, 0
5, 2280, Note_on_c, 1, 66, 88
5, 2396, Note_off_c, 1, 66, 0
5, 2400, Note_on_c, 1, 69, 88
5, 2440, Note_off_c, 1, 69, 0
5, 2441, Note_on_c, 1, 68, 88
5, 2470, Note_off_c, 1, 68, 0
5, 2471, Note_on_c, 1, 69, 88
5, 2500, Note_off_c, 1, 69, 0
5, 2501, Note_on_c, 1, 68, 88
5, 2530, Note_off_c, 1, 68, 0
5, 2531, Note_on_c, 1, 69, 88
5, 2560, Note_off_c, 1, 69, 0
5, 2561, Note_on_c, 1, 68, 88
5, 2590, Note_off_c, 1, 68, 0
5, 2591, Note_on_c, 1, 69, 88
5, 2620, Note_off_c, 1, 69, 0
5, 2621, Note_on_c, 1, 68, 88
5, 2650, Note_off_c, 1, 68, 0
5, 2651, Note_on_c, 1, 69, 88
5, 2680, Note_off_c, 1, 69, 0
5, 2681, Note_on_c, 1, 68, 88
5, 2707, Note_off_c, 1, 68, 0
5, 2708, Note_on_c, 1, 69, 88
5, 2733, Note_off_c, 1, 69, 0
5, 2734, Note_on_c, 1, 68, 88
5, 2759, Note_off_c, 1, 68, 0
5, 2760, Note_on_c, 1, 69, 88
5, 2785, Note_off_c, 1, 69, 0
5, 2786, Note_on_c, 1, 68, 88
5, 2812, Note_off_c, 1, 68, 0
5, 2813, Note_on_c, 1, 66, 88
5, 2838, Note_off_c, 1, 66, 0
5, 2839, Note_on_c, 1, 68, 88
5, 2879, Note_off_c, 1, 68, 0
5, 2880, Note_on_c, 1, 66, 88
5, 3055, Note_off_c, 1, 66, 0
5, 3060, Note_on_c, 1, 65, 88
5, 3118, Note_off_c, 1, 65, 0
5, 3120, Note_on_c, 1, 66, 88
5, 3178, Note_off_c, 1, 66, 0
5, 3180, Note_on_c, 1, 68, 88
5, 3238, Note_off_c, 1, 68, 0
5, 3240, Note_on_c, 1, 69, 88
5, 3298, Note_off_c, 1, 69, 0
5, 3300, Note_on_c, 1, 73, 88
5, 3358, Note_off_c, 1, 73, 0
5, 3360, Note_on_c, 1, 71, 88
5, 3418, Note_off_c, 1, 71, 0
5, 3420, Note_on_c, 1, 68, 88
5, 3478, Note_off_c, 1, 68, 0
5, 3480, Note_on_c, 1, 69, 88
5, 3538, Note_off_c, 1, 69, 0
5, 3540, Note_on_c, 1, 72, 88
5, 3598, Note_off_c, 1, 72, 0
5, 3600, Note_on_c, 1, 78, 88
5, 3834, Note_off_c, 1, 78, 0
5, 3840, Note_on_c, 1, 76, 88
5, 4074, Note_off_c, 1, 76, 0
5, 4080, Note_on_c, 1, 74, 88
5, 4314, Note_off_c, 1, 74, 0
5, 4320, Note_on_c, 1, 73, 88
5, 4554, Note_off_c, 1, 73, 0
5, 4560, Note_on_c, 1, 71, 88
5, 4916, Note_off_c, 1, 71, 0
5, 4920, Note_on_c, 1, 70, 88
5, 5036, Note_off_c, 1, 70, 0
5, 5040, Note_on_c, 1, 71, 88
5, 5334, Note_off_c, 1, 71, 0
5, 5340, Note_on_c, 1, 73, 88
5, 5398, Note_off_c, 1, 73, 0
5, 5400, Note_on_c, 1, 74, 88
5, 5458, Note_off_c, 1, 74, 0
5, 5460, Note_on_c, 1, 76, 88
5, 5518, Note_off_c, 1, 76, 0
5, 5520, Note_on_c, 1, 78, 88
5, 5578, Note_off_c, 1, 78, 0
5, 5580, Note_on_c, 1, 79, 88
5, 5638, Note_off_c, 1, 79, 0
5, 5640, Note_on_c, 1, 71, 88
5, 5698, Note_off_c, 1, 71, 0
5, 5700, Note_on_c, 1, 70, 88
5, 5758, Note_off_c, 1, 70, 0
5, 5760, Note_on_c, 1, 74, 88
5, 6350, Note_off_c, 1, 74, 0
5, 6360, Note_on_c, 1, 72, 88
5, 6476, Note_off_c, 1, 72, 0
5, 6480, Note_on_c, 1, 71, 88
5, 6596, Note_off_c, 1, 71, 0
5, 6600, Note_on_c, 1, 75, 88
5, 6716, Note_off_c, 1, 75, 0
5, 6720, Note_on_c, 1, 76, 88
5, 7310, Note_off_c, 1, 76, 0
5, 7320, Note_on_c, 1, 74, 88
5, 7436, Note_off_c, 1, 74, 0
5, 7440, Note_on_c, 1, 73, 88
5, 7556, Note_off_c, 1, 73, 0
5, 7560, Note_on_c, 1, 77, 88
5, 7676, Note_off_c, 1, 77, 0
5, 7680, Note_on_c, 1, 78, 88
5, 7855, Note_off_c, 1, 78, 0
5, 7860, Note_on_c, 1, 79, 88
5, 7918, Note_off_c, 1, 79, 0
5, 7920, Note_on_c, 1, 78, 88
5, 7978, Note_off_c, 1, 78, 0
5, 7980, Note_on_c, 1, 76, 88
5, 8038, Note_off_c, 1, 76, 0
5, 8040, Note_on_c, 1, 74, 88
5, 8098, Note_off_c, 1, 74, 0
5, 8100, Note_on_c, 1, 71, 88
5, 8158, Note_off_c, 1, 71, 0
5, 8160, Note_on_c, 1, 73, 88
5, 8218, Note_off_c, 1, 73, 0
5, 8220, Note_on_c, 1, 76, 88
5, 8278, Note_off_c, 1, 76, 0
5, 8280, Note_on_c, 1, 74, 88
5, 8338, Note_off_c, 1, 74, 0
5, 8340, Note_on_c, 1, 71, 88
5, 8398, Note_off_c, 1, 71, 0
5, 8400, Note_on_c, 1, 66, 88
5, 8516, Note_off_c, 1, 66, 0
5, 8520, Note_on_c, 1, 78, 88
5, 8815, Note_off_c, 1, 78, 0
5, 8820, Note_on_c, 1, 79, 88
5, 8878, Note_off_c, 1, 79, 0
5, 8880, Note_on_c, 1, 78, 88
5, 8938, Note_off_c, 1, 78, 0
5, 8940, Note_on_c, 1, 76, 88
5, 8998, Note_off_c, 1, 76, 0
5, 9000, Note_on_c, 1, 75, 88
5, 9058, Note_off_c, 1, 75, 0
5, 9060, Note_on_c, 1, 73, 88
5, 9118, Note_off_c, 1, 73, 0
5, 9120, Note_on_c, 1, 71, 88
5, 9178, Note_off_c, 1, 71, 0
5, 9180, Note_on_c, 1, 73, 88
5, 9209, Note_off_c, 1, 73, 0
5, 9210, Note_on_c, 1, 74, 88
5, 9239, Note_off_c, 1, 74, 0
5, 9240, Note_on_c, 1, 73, 88
5, 9415, Note_off_c, 1, 73, 0
5, 9420, Note_on_c, 1, 71, 88
5, 9478, Note_off_c, 1, 71, 0
5, 9480, Note_on_c, 1, 69, 88
5, 9538, Note_off_c, 1, 69, 0
5, 9540, Note_on_c, 1, 74, 88
5, 9598, Note_off_c, 1, 74, 0
5, 9600, Note_on_c, 1, 68, 88
5, 9834, Note_off_c, 1, 68, 0
5, 9840, Note_on_c, 1, 69, 88
5, 10074, Note_off_c, 1, 69, 0
5, 10080, Note_on_c, 1, 71, 88
5, 10794, Note_off_c, 1, 71, 0
5, 10800, Note_on_c, 1, 69, 88
5, 11034, Note_off_c, 1, 69, 0
5, 11040, Note_on_c, 1, 67, 88
5, 11510, Note_off_c, 1, 67, 0
5, 11520, Note_on_c, 1, 66, 88
5, 11990, Note_off_c, 1, 66, 0
5, 12000, Note_on_c, 1, 65, 88
5, 12116, Note_off_c, 1, 65, 0
5, 12120, Note_on_c, 1, 63, 88
5, 12236, Note_off_c, 1, 63, 0
5, 12360, Note_on_c, 1, 75, 88
5, 12476, Note_off_c, 1, 75, 0
5, 12480, Note_on_c, 1, 75, 88
5, 12596, Note_off_c, 1, 75, 0
5, 12600, Note_on_c, 1, 76, 88
5, 12716, Note_off_c, 1, 76, 0
5, 13080, Note_on_c, 1, 76, 88
5, 13196, Note_off_c, 1, 76, 0
5, 13200, Note_on_c, 1, 74, 88
5, 13258, Note_off_c, 1, 74, 0
5, 13260, Note_on_c, 1, 73, 88
5, 13318, Note_off_c, 1, 73, 0
5, 13320, Note_on_c, 1, 74, 88
5, 13378, Note_off_c, 1, 74, 0
5, 13380, Note_on_c, 1, 71, 88
5, 13438, Note_off_c, 1, 71, 0
5, 13440, Note_on_c, 1, 73, 88
5, 13674, Note_off_c, 1, 73, 0
5, 13680, Note_on_c, 1, 71, 88
5, 13796, Note_off_c, 1, 71, 0
5, 13800, Note_on_c, 1, 66, 88
5, 13916, Note_off_c, 1, 66, 0
5, 13920, Note_on_c, 1, 67, 88
5, 14516, Note_off_c, 1, 67, 0
5, 14520, Note_on_c, 1, 61, 88
5, 14873, Note_off_c, 1, 61, 0
5, 14880, Note_on_c, 1, 66, 88
5, 15114, Note_off_c, 1, 66, 0
5, 15120, Note_on_c, 1, 68, 88
5, 15594, Note_off_c, 1, 68, 0
5, 15600, Note_on_c, 1, 66, 88
5, 15716, Note_off_c, 1, 66, 0
5, 17400, Note_on_c, 1, 66, 88
5, 17516, Note_off_c, 1, 66, 0
5, 17520, Note_on_c, 1, 62, 88
5, 17636, Note_off_c, 1, 62, 0
5, 17640, Note_on_c, 1, 59, 88
5, 17756, Note_off_c, 1, 59, 0
5, 19320, Note_on_c, 1, 66, 88
5, 19436, Note_off_c, 1, 66, 0
5, 19440, Note_on_c, 1, 62, 88
5, 19556, Note_off_c, 1, 62, 0
5, 19560, Note_on_c, 1, 59, 88
5, 19676, Note_off_c, 1, 59, 0
5, 19680, Note_on_c, 1, 67, 88
5, 19796, Note_off_c, 1, 67, 0
5, 19800, Note_on_c, 1, 66, 88
5, 19916, Note_off_c, 1, 66, 0
5, 19920, Note_on_c, 1, 71, 88
5, 20036, Note_off_c, 1, 71, 0
5, 20040, Note_on_c, 1, 70, 88
5, 20156, Note_off_c, 1, 70, 0
5, 20160, Note_on_c, 1, 64, 88
5, 20276, Note_off_c, 1, 64, 0
5, 20280, Note_on_c, 1, 63, 88
5, 20396, Note_off_c, 1, 63, 0
5, 20400, Note_on_c, 1, 72, 88
5, 20516, Note_off_c, 1, 72, 0
5, 20520, Note_on_c, 1, 71, 88
5, 20636, Note_off_c, 1, 71, 0
5, 20640, Note_on_c, 1, 66, 88
5, 20756, Note_off_c, 1, 66, 0
5, 20760, Note_on_c, 1, 65, 88
5, 20876, Note_off_c, 1, 65, 0
5, 20880, Note_on_c, 1, 74, 88
5, 20996, Note_off_c, 1, 74, 0
5, 21000, Note_on_c, 1, 73, 88
5, 21116, Note_off_c, 1, 73, 0
5, 21120, Note_on_c, 1, 72, 88
5, 21236, Note_off_c, 1, 72, 0
5, 21240, Note_on_c, 1, 73, 88
5, 21356, Note_off_c, 1, 73, 0
5, 21360, Note_on_c, 1, 69, 88
5, 21476, Note_off_c, 1, 69, 0
5, 21480, Note_on_c, 1, 66, 88
5, 21596, Note_off_c, 1, 66, 0
5, 21600, Note_on_c, 1, 68, 88
5, 22070, Note_off_c, 1, 68, 0
5, 22080, Note_on_c, 1, 69, 88
5, 22670, Note_off_c, 1, 69, 0
5, 22680, Note_on_c, 1, 72, 88
5, 22796, Note_off_c, 1, 72, 0
5, 22800, Note_on_c, 1, 71, 88
5, 22916, Note_off_c, 1, 71, 0
5, 22920, Note_on_c, 1, 75, 88
5, 23036, Note_off_c, 1, 75, 0
5, 23040, Note_on_c, 1, 76, 88
5, 23630, Note_off_c, 1, 76, 0
5, 23640, Note_on_c, 1, 74, 88
5, 23756, Note_off_c, 1, 74, 0
5, 23760, Note_on_c, 1, 73, 88
5, 23876, Note_off_c, 1, 73, 0
5, 23880, Note_on_c, 1, 77, 88
5, 23996, Note_off_c, 1, 77, 0
5, 24000, Note_on_c, 1, 78, 88
5, 24234, Note_off_c, 1, 78, 0
5, 24360, Note_on_c, 1, 71, 88
5, 24418, Note_off_c, 1, 71, 0
5, 24420, Note_on_c, 1, 69, 88
5, 24478, Note_off_c, 1, 69, 0
5, 24480, Note_on_c, 1, 67, 88
5, 24538, Note_off_c, 1, 67, 0
5, 24540, Note_on_c, 1, 69, 88
5, 24598, Note_off_c, 1, 69, 0
5, 24600, Note_on_c, 1, 71, 88
5, 24834, Note_off_c, 1, 71, 0
5, 24840, Note_on_c, 1, 69, 88
5, 24898, Note_off_c, 1, 69, 0
5, 24900, Note_on_c, 1, 67, 88
5, 24958, Note_off_c, 1, 67, 0
5, 24960, Note_on_c, 1, 66, 88
5, 25018, Note_off_c, 1, 66, 0
5, 25020, Note_on_c, 1, 67, 88
5, 25078, Note_off_c, 1, 67, 0
5, 25080, Note_on_c, 1, 69, 88
5, 25314, Note_off_c, 1, 69, 0
5, 25320, Note_on_c, 1, 67, 88
5, 25378, Note_off_c, 1, 67, 0
5, 25380, Note_on_c, 1, 66, 88
5, 25438, Note_off_c, 1, 66, 0
5, 25440, Note_on_c, 1, 64, 88
5, 25498, Note_off_c, 1, 64, 0
5, 25500, Note_on_c, 1, 66, 88
5, 25558, Note_off_c, 1, 66, 0
5, 25560, Note_on_c, 1, 67, 88
5, 25794, Note_off_c, 1, 67, 0
5, 25800, Note_on_c, 1, 66, 88
5, 25858, Note_off_c, 1, 66, 0
5, 25860, Note_on_c, 1, 64, 88
5, 25918, Note_off_c, 1, 64, 0
5, 25920, Note_on_c, 1, 62, 88
5, 25978, Note_off_c, 1, 62, 0
5, 25980, Note_on_c, 1, 64, 88
5, 26038, Note_off_c, 1, 64, 0
5, 26040, Note_on_c, 1, 66, 88
5, 26274, Note_off_c, 1, 66, 0
5, 26280, Note_on_c, 1, 64, 88
5, 26338, Note_off_c, 1, 64, 0
5, 26340, Note_on_c, 1, 62, 88
5, 26398, Note_off_c, 1, 62, 0
5, 26400, Note_on_c, 1, 60, 88
5, 26458, Note_off_c, 1, 60, 0
5, 26460, Note_on_c, 1, 62, 88
5, 26518, Note_off_c, 1, 62, 0
5, 26520, Note_on_c, 1, 64, 88
5, 26754, Note_off_c, 1, 64, 0
5, 26760, Note_on_c, 1, 62, 88
5, 26818, Note_off_c, 1, 62, 0
5, 26820, Note_on_c, 1, 60, 88
5, 26878, Note_off_c, 1, 60, 0
5, 26880, Note_on_c, 1, 59, 88
5, 26938, Note_off_c, 1, 59, 0
5, 26940, Note_on_c, 1, 60, 88
5, 26998, Note_off_c, 1, 60, 0
5, 27000, Note_on_c, 1, 62, 88
5, 27234, Note_off_c, 1, 62, 0
5, 27240, Note_on_c, 1, 60, 88
5, 27298, Note_off_c, 1, 60, 0
5, 27300, Note_on_c, 1, 59, 88
5, 27358, Note_off_c, 1, 59, 0
5, 27360, Note_on_c, 1, 57, 88
5, 27418, Note_off_c, 1, 57, 0
5, 27420, Note_on_c, 1, 59, 88
5, 27478, Note_off_c, 1, 59, 0
5, 27480, Note_on_c, 1, 60, 88
5, 27714, Note_off_c, 1, 60, 0
5, 27720, Note_on_c, 1, 59, 88
5, 27778, Note_off_c, 1, 59, 0
5, 27780, Note_on_c, 1, 57, 88
5, 27838, Note_off_c, 1, 57, 0
5, 27840, Note_on_c, 1, 55, 88
5, 28074, Note_off_c, 1, 55, 0
5, 28200, Note_on_c, 1, 64, 88
5, 28258, Note_off_c, 1, 64, 0
5, 28260, Note_on_c, 1, 63, 88
5, 28313, Note_off_c, 1, 63, 0
5, 28320, Note_on_c, 1, 63, 88
5, 28378, Note_off_c, 1, 63, 0
5, 28380, Note_on_c, 1, 64, 88
5, 28438, Note_off_c, 1, 64, 0
5, 28440, Note_on_c, 1, 66, 88
5, 28498, Note_off_c, 1, 66, 0
5, 28500, Note_on_c, 1, 67, 88
5, 28558, Note_off_c, 1, 67, 0
5, 28560, Note_on_c, 1, 69, 88
5, 28618, Note_off_c, 1, 69, 0
5, 28620, Note_on_c, 1, 67, 88
5, 28678, Note_off_c, 1, 67, 0
5, 28680, Note_on_c, 1, 69, 88
5, 28738, Note_off_c, 1, 69, 0
5, 28740, Note_on_c, 1, 71, 88
5, 28798, Note_off_c, 1, 71, 0
5, 28800, Note_on_c, 1, 72, 88
5, 28858, Note_off_c, 1, 72, 0
5, 28860, Note_on_c, 1, 69, 88
5, 28918, Note_off_c, 1, 69, 0
5, 28920, Note_on_c, 1, 71, 88
5, 29095, Note_off_c, 1, 71, 0
5, 29100, Note_on_c, 1, 69, 88
5, 29158, Note_off_c, 1, 69, 0
5, 29160, Note_on_c, 1, 68, 88
5, 29218, Note_off_c, 1, 68, 0
5, 29220, Note_on_c, 1, 66, 88
5, 29278, Note_off_c, 1, 66, 0
5, 29280, Note_on_c, 1, 64, 88
5, 29338, Note_off_c, 1, 64, 0
5, 29340, Note_on_c, 1, 67, 88
5, 29398, Note_off_c, 1, 67, 0
5, 29400, Note_on_c, 1, 66, 88
5, 29458, Note_off_c, 1, 66, 0
5, 29460, Note_on_c, 1, 70, 88
5, 29518, Note_off_c, 1, 70, 0
5, 29520, Note_on_c, 1, 71, 88
5, 29873, Note_off_c, 1, 71, 0
5, 29880, Note_on_c, 1, 71, 88
5, 29938, Note_off_c, 1, 71, 0
5, 29940, Note_on_c, 1, 70, 88
5, 29998, Note_off_c, 1, 70, 0
5, 30060, Note_on_c, 1, 69, 88
5, 30118, Note_off_c, 1, 69, 0
5, 30120, Note_on_c, 1, 67, 88
5, 30178, Note_off_c, 1, 67, 0
5, 30180, Note_on_c, 1, 66, 88
5, 30238, Note_off_c, 1, 66, 0
5, 30240, Note_on_c, 1, 64, 88
5, 30710, Note_off_c, 1, 64, 0
5, 30780, Note_on_c, 1, 66, 88
5, 30838, Note_off_c, 1, 66, 0
5, 30840, Note_on_c, 1, 68, 88
5, 30898, Note_off_c, 1, 68, 0
5, 30900, Note_on_c, 1, 70, 88
5, 30958, Note_off_c, 1, 70, 0
5, 30960, Note_on_c, 1, 71, 88
5, 31018, Note_off_c, 1, 71, 0
5, 31020, Note_on_c, 1, 73, 88
5, 31078, Note_off_c, 1, 73, 0
5, 31080, Note_on_c, 1, 66, 88
5, 31138, Note_off_c, 1, 66, 0
5, 31140, Note_on_c, 1, 65, 88
5, 31198, Note_off_c, 1, 65, 0
5, 31200, Note_on_c, 1, 69, 88
5, 31670, Note_off_c, 1, 69, 0
5, 31680, Note_on_c, 1, 68, 88
5, 31796, Note_off_c, 1, 68, 0
5, 31800, Note_on_c, 1, 73, 88
5, 31916, Note_off_c, 1, 73, 0
5, 31920, Note_on_c, 1, 69, 88
5, 32036, Note_off_c, 1, 69, 0
5, 32040, Note_on_c, 1, 66, 88
5, 32156, Note_off_c, 1, 66, 0
5, 32160, Note_on_c, 1, 74, 88
5, 32276, Note_off_c, 1, 74, 0
5, 32280, Note_on_c, 1, 73, 88
5, 32396, Note_off_c, 1, 73, 0
5, 32400, Note_on_c, 1, 78, 88
5, 32516, Note_off_c, 1, 78, 0
5, 32520, Note_on_c, 1, 77, 88
5, 32636, Note_off_c, 1, 77, 0
5, 32640, Note_on_c, 1, 71, 88
5, 32756, Note_off_c, 1, 71, 0
5, 32760, Note_on_c, 1, 70, 88
5, 32876, Note_off_c, 1, 70, 0
5, 33000, Note_on_c, 1, 71, 88
5, 33175, Note_off_c, 1, 71, 0
5, 33180, Note_on_c, 1, 70, 88
5, 33238, Note_off_c, 1, 70, 0
5, 33240, Note_on_c, 1, 71, 88
5, 33298, Note_off_c, 1, 71, 0
5, 33300, Note_on_c, 1, 74, 88
5, 33358, Note_off_c, 1, 74, 0
5, 33360, Note_on_c, 1, 73, 88
5, 33716, Note_off_c, 1, 73, 0
5, 33720, Note_on_c, 1, 71, 88
5, 33836, Note_off_c, 1, 71, 0
5, 33840, Note_on_c, 1, 76, 88
5, 33956, Note_off_c, 1, 76, 0
5, 33960, Note_on_c, 1, 70, 88
5, 34076, Note_off_c, 1, 70, 0
5, 34080, Note_on_c, 1, 71, 88
5, 34618, Note_off_c, 1, 71, 0
5, 34620, Note_on_c, 1, 70, 88
5, 34678, Note_off_c, 1, 70, 0
5, 34680, Note_on_c, 1, 71, 88
5, 34738, Note_off_c, 1, 71, 0
5, 34740, Note_on_c, 1, 73, 88
5, 34798, Note_off_c, 1, 73, 0
5, 34800, Note_on_c, 1, 74, 88
5, 34858, Note_off_c, 1, 74, 0
5, 34860, Note_on_c, 1, 76, 88
5, 34918, Note_off_c, 1, 76, 0
5, 34920, Note_on_c, 1, 69, 88
5, 34978, Note_off_c, 1, 69, 0
5, 34980, Note_on_c, 1, 68, 88
5, 35038, Note_off_c, 1, 68, 0
5, 35040, Note_on_c, 1, 69, 88
5, 35636, Note_off_c, 1, 69, 0
5, 35640, Note_on_c, 1, 67, 88
5, 35756, Note_off_c, 1, 67, 0
5, 35760, Note_on_c, 1, 66, 88
5, 35994, Note_off_c, 1, 66, 0
5, 36540, Note_on_c, 1, 78, 88
5, 36598, Note_off_c, 1, 78, 0
5, 36600, Note_on_c, 1, 81, 88
5, 36658, Note_off_c, 1, 81, 0
5, 36660, Note_on_c, 1, 79, 88
5, 36718, Note_off_c, 1, 79, 0
5, 36720, Note_on_c, 1, 78, 88
5, 36778, Note_off_c, 1, 78, 0
5, 36780, Note_on_c, 1, 76, 88
5, 36838, Note_off_c, 1, 76, 0
5, 36840, Note_on_c, 1, 75, 88
5, 36898, Note_off_c, 1, 75, 0
5, 36900, Note_on_c, 1, 73, 88
5, 36958, Note_off_c, 1, 73, 0
5, 36960, Note_on_c, 1, 71, 88
5, 37018, Note_off_c, 1, 71, 0
5, 37020, Note_on_c, 1, 74, 88
5, 37078, Note_off_c, 1, 74, 0
5, 37080, Note_on_c, 1, 73, 88
5, 37138, Note_off_c, 1, 73, 0
5, 37140, Note_on_c, 1, 71, 88
5, 37198, Note_off_c, 1, 71, 0
5, 37200, Note_on_c, 1, 69, 88
5, 37258, Note_off_c, 1, 69, 0
5, 37260, Note_on_c, 1, 68, 88
5, 37318, Note_off_c, 1, 68, 0
5, 37320, Note_on_c, 1, 69, 88
5, 37378, Note_off_c, 1, 69, 0
5, 37380, Note_on_c, 1, 66, 88
5, 37438, Note_off_c, 1, 66, 0
5, 37440, Note_on_c, 1, 68, 88
5, 37674, Note_off_c, 1, 68, 0
5, 37740, Note_on_c, 1, 76, 88
5, 37798, Note_off_c, 1, 76, 0
5, 37800, Note_on_c, 1, 74, 88
5, 37858, Note_off_c, 1, 74, 0
5, 37860, Note_on_c, 1, 73, 88
5, 37918, Note_off_c, 1, 73, 0
5, 37920, Note_on_c, 1, 71, 88
5, 37978, Note_off_c, 1, 71, 0
5, 37980, Note_on_c, 1, 69, 88
5, 38038, Note_off_c, 1, 69, 0
5, 38040, Note_on_c, 1, 68, 88
5, 38098, Note_off_c, 1, 68, 0
5, 38100, Note_on_c, 1, 69, 88
5, 38158, Note_off_c, 1, 69, 0
5, 38160, Note_on_c, 1, 71, 88
5, 38516, Note_off_c, 1, 71, 0
5, 38520, Note_on_c, 1, 70, 88
5, 38636, Note_off_c, 1, 70, 0
5, 38760, Note_on_c, 1, 71, 88
5, 38935, Note_off_c, 1, 71, 0
5, 38940, Note_on_c, 1, 70, 88
5, 38998, Note_off_c, 1, 70, 0
5, 39000, Note_on_c, 1, 71, 88
5, 39058, Note_off_c, 1, 71, 0
5, 39060, Note_on_c, 1, 74, 88
5, 39118, Note_off_c, 1, 74, 0
5, 39120, Note_on_c, 1, 73, 88
5, 39354, Note_off_c, 1, 73, 0
5, 39480, Note_on_c, 1, 71, 88
5, 39596, Note_off_c, 1, 71, 0
5, 39600, Note_on_c, 1, 67, 88
5, 39716, Note_off_c, 1, 67, 0
5, 39720, Note_on_c, 1, 64, 88
5, 39836, Note_off_c, 1, 64, 0
5, 39840, Note_on_c, 1, 72, 88
5, 39956, Note_off_c, 1, 72, 0
5, 39960, Note_on_c, 1, 71, 88
5, 40076, Note_off_c, 1, 71, 0
5, 40080, Note_on_c, 1, 76, 88
5, 40196, Note_off_c, 1, 76, 0
5, 40200, Note_on_c, 1, 75, 88
5, 40316, Note_off_c, 1, 75, 0
5, 40320, Note_on_c, 1, 69, 88
5, 40436, Note_off_c, 1, 69, 0
5, 40440, Note_on_c, 1, 68, 88
5, 40556, Note_off_c, 1, 68, 0
5, 40560, Note_on_c, 1, 69, 88
5, 40913, Note_off_c, 1, 69, 0
5, 40920, Note_on_c, 1, 68, 88
5, 41036, Note_off_c, 1, 68, 0
5, 41040, Note_on_c, 1, 73, 88
5, 41156, Note_off_c, 1, 73, 0
5, 41160, Note_on_c, 1, 71, 88
5, 41276, Note_off_c, 1, 71, 0
5, 41280, Note_on_c, 1, 76, 88
5, 41396, Note_off_c, 1, 76, 0
5, 41640, Note_on_c, 1, 66, 88
5, 41756, Note_off_c, 1, 66, 0
5, 41760, Note_on_c, 1, 62, 88
5, 41994, Note_off_c, 1, 62, 0
5, 42120, Note_on_c, 1, 67, 88
5, 42236, Note_off_c, 1, 67, 0
5, 42240, Note_on_c, 1, 69, 88
5, 42356, Note_off_c, 1, 69, 0
5, 42360, Note_on_c, 1, 74, 88
5, 42476, Note_off_c, 1, 74, 0
5, 42480, Note_on_c, 1, 72, 88
5, 42714, Note_off_c, 1, 72, 0
5, 42720, Note_on_c, 1, 71, 88
5, 42954, Note_off_c, 1, 71, 0
5, 42960, Note_on_c, 1, 69, 88
5, 43313, Note_off_c, 1, 69, 0
5, 43320, Note_on_c, 1, 69, 88
5, 43378, Note_off_c, 1, 69, 0
5, 43380, Note_on_c, 1, 68, 88
5, 43438, Note_off_c, 1, 68, 0
5, 43440, Note_on_c, 1, 69, 88
5, 43498, Note_off_c, 1, 69, 0
5, 43500, Note_on_c, 1, 67, 88
5, 43558, Note_off_c, 1, 67, 0
5, 43560, Note_on_c, 1, 66, 88
5, 43618, Note_off_c, 1, 66, 0
5, 43620, Note_on_c, 1, 64, 88
5, 43678, Note_off_c, 1, 64, 0
5, 43680, Note_on_c, 1, 62, 88
5, 43738, Note_off_c, 1, 62, 0
5, 43740, Note_on_c, 1, 61, 88
5, 43798, Note_off_c, 1, 61, 0
5, 43800, Note_on_c, 1, 59, 88
5, 43858, Note_off_c, 1, 59, 0
5, 43860, Note_on_c, 1, 61, 88
5, 43918, Note_off_c, 1, 61, 0
5, 43920, Note_on_c, 1, 62, 88
5, 44154, Note_off_c, 1, 62, 0
5, 44160, Note_on_c, 1, 61, 88
5, 44394, Note_off_c, 1, 61, 0
5, 44400, Note_on_c, 1, 59, 88
5, 44634, Note_off_c, 1, 59, 0
5, 44640, Note_on_c, 1, 57, 88
5, 45110, Note_off_c, 1, 57, 0
5, 48060, Note_on_c, 1, 64, 88
5, 48118, Note_off_c, 1, 64, 0
5, 48120, Note_on_c, 1, 66, 88
5, 48178, Note_off_c, 1, 66, 0
5, 48180, Note_on_c, 1, 67, 88
5, 48238, Note_off_c, 1, 67, 0
5, 48240, Note_on_c, 1, 69, 88
5, 48298, Note_off_c, 1, 69, 0
5, 48300, Note_on_c, 1, 71, 88
5, 48358, Note_off_c, 1, 71, 0
5, 48360, Note_on_c, 1, 64, 88
5, 48418, Note_off_c, 1, 64, 0
5, 48420, Note_on_c, 1, 63, 88
5, 48478, Note_off_c, 1, 63, 0
5, 48480, Note_on_c, 1, 67, 88
5, 49076, Note_off_c, 1, 67, 0
5, 49080, Note_on_c, 1, 66, 88
5, 49196, Note_off_c, 1, 66, 0
5, 49200, Note_on_c, 1, 65, 88
5, 49316, Note_off_c, 1, 65, 0
5, 49320, Note_on_c, 1, 68, 88
5, 49495, Note_off_c, 1, 68, 0
5, 49500, Note_on_c, 1, 65, 88
5, 49558, Note_off_c, 1, 65, 0
5, 49560, Note_on_c, 1, 66, 88
5, 49618, Note_off_c, 1, 66, 0
5, 49620, Note_on_c, 1, 68, 88
5, 49678, Note_off_c, 1, 68, 0
5, 49680, Note_on_c, 1, 69, 88
5, 49738, Note_off_c, 1, 69, 0
5, 49740, Note_on_c, 1, 71, 88
5, 49798, Note_off_c, 1, 71, 0
5, 49800, Note_on_c, 1, 62, 88
5, 49858, Note_off_c, 1, 62, 0
5, 49860, Note_on_c, 1, 61, 88
5, 49918, Note_off_c, 1, 61, 0
5, 49920, Note_on_c, 1, 63, 88
5, 50154, Note_off_c, 1, 63, 0
5, 50160, Note_on_c, 1, 65, 88
5, 50276, Note_off_c, 1, 65, 0
5, 50280, Note_on_c, 1, 68, 88
5, 50453, Note_off_c, 1, 68, 0
5, 50460, Note_on_c, 1, 68, 88
5, 50518, Note_off_c, 1, 68, 0
5, 50520, Note_on_c, 1, 66, 88
5, 50578, Note_off_c, 1, 66, 0
5, 50580, Note_on_c, 1, 65, 88
5, 50638, Note_off_c, 1, 65, 0
5, 50640, Note_on_c, 1, 66, 88
5, 50698, Note_off_c, 1, 66, 0
5, 50700, Note_on_c, 1, 68, 88
5, 50758, Note_off_c, 1, 68, 0
5, 50760, Note_on_c, 1, 69, 88
5, 50818, Note_off_c, 1, 69, 0
5, 50820, Note_on_c, 1, 73, 88
5, 50878, Note_off_c, 1, 73, 0
5, 50880, Note_on_c, 1, 71, 88
5, 50938, Note_off_c, 1, 71, 0
5, 50940, Note_on_c, 1, 68, 88
5, 50998, Note_off_c, 1, 68, 0
5, 51000, Note_on_c, 1, 69, 88
5, 51058, Note_off_c, 1, 69, 0
5, 51060, Note_on_c, 1, 73, 88
5, 51118, Note_off_c, 1, 73, 0
5, 51120, Note_on_c, 1, 71, 88
5, 51178, Note_off_c, 1, 71, 0
5, 51180, Note_on_c, 1, 74, 88
5, 51238, Note_off_c, 1, 74, 0
5, 51240, Note_on_c, 1, 73, 88
5, 51298, Note_off_c, 1, 73, 0
5, 51300, Note_on_c, 1, 71, 88
5, 51358, Note_off_c, 1, 71, 0
5, 51360, Note_on_c, 1, 73, 88
5, 51418, Note_off_c, 1, 73, 0
5, 51420, Note_on_c, 1, 74, 88
5, 51478, Note_off_c, 1, 74, 0
5, 51480, Note_on_c, 1, 76, 88
5, 51538, Note_off_c, 1, 76, 0
5, 51540, Note_on_c, 1, 74, 88
5, 51598, Note_off_c, 1, 74, 0
5, 51600, Note_on_c, 1, 73, 88
5, 51658, Note_off_c, 1, 73, 0
5, 51660, Note_on_c, 1, 71, 88
5, 51718, Note_off_c, 1, 71, 0
5, 51720, Note_on_c, 1, 70, 88
5, 51778, Note_off_c, 1, 70, 0
5, 51780, Note_on_c, 1, 68, 88
5, 51838, Note_off_c, 1, 68, 0
5, 51840, Note_on_c, 1, 66, 88
5, 51898, Note_off_c, 1, 66, 0
5, 51900, Note_on_c, 1, 69, 88
5, 51958, Note_off_c, 1, 69, 0
5, 51960, Note_on_c, 1, 68, 88
5, 52018, Note_off_c, 1, 68, 0
5, 52020, Note_on_c, 1, 72, 88
5, 52078, Note_off_c, 1, 72, 0
5, 52080, Note_on_c, 1, 73, 88
5, 52138, Note_off_c, 1, 73, 0
5, 52140, Note_on_c, 1, 75, 88
5, 52198, Note_off_c, 1, 75, 0
5, 52200, Note_on_c, 1, 76, 88
5, 52258, Note_off_c, 1, 76, 0
5, 52260, Note_on_c, 1, 78, 88
5, 52318, Note_off_c, 1, 78, 0
5, 52320, Note_on_c, 1, 76, 88
5, 52378, Note_off_c, 1, 76, 0
5, 52380, Note_on_c, 1, 75, 88
5, 52438, Note_off_c, 1, 75, 0
5, 52500, Note_on_c, 1, 69, 88
5, 52558, Note_off_c, 1, 69, 0
5, 52560, Note_on_c, 1, 68, 88
5, 52618, Note_off_c, 1, 68, 0
5, 52620, Note_on_c, 1, 71, 88
5, 52678, Note_off_c, 1, 71, 0
5, 52680, Note_on_c, 1, 69, 88
5, 52738, Note_off_c, 1, 69, 0
5, 52740, Note_on_c, 1, 68, 88
5, 52798, Note_off_c, 1, 68, 0
5, 52800, Note_on_c, 1, 66, 88
5, 53270, Note_off_c, 1, 66, 0
5, 53280, Note_on_c, 1, 68, 88
5, 53818, Note_off_c, 1, 68, 0
5, 53820, Note_on_c, 1, 61, 88
5, 53878, Note_off_c, 1, 61, 0
5, 53880, Note_on_c, 1, 63, 88
5, 53938, Note_off_c, 1, 63, 0
5, 53940, Note_on_c, 1, 64, 88
5, 53998, Note_off_c, 1, 64, 0
5, 54000, Note_on_c, 1, 66, 88
5, 54058, Note_off_c, 1, 66, 0
5, 54060, Note_on_c, 1, 68, 88
5, 54118, Note_off_c, 1, 68, 0
5, 54120, Note_on_c, 1, 69, 88
5, 54178, Note_off_c, 1, 69, 0
5, 54180, Note_on_c, 1, 71, 88
5, 54238, Note_off_c, 1, 71, 0
5, 54240, Note_on_c, 1, 69, 88
5, 54298, Note_off_c, 1, 69, 0
5, 54300, Note_on_c, 1, 66, 88
5, 54358, Note_off_c, 1, 66, 0
5, 54360, Note_on_c, 1, 68, 88
5, 54418, Note_off_c, 1, 68, 0
5, 54420, Note_on_c, 1, 69, 88
5, 54478, Note_off_c, 1, 69, 0
5, 54480, Note_on_c, 1, 71, 88
5, 54538, Note_off_c, 1, 71, 0
5, 54540, Note_on_c, 1, 73, 88
5, 54598, Note_off_c, 1, 73, 0
5, 54600, Note_on_c, 1, 75, 88
5, 54658, Note_off_c, 1, 75, 0
5, 54660, Note_on_c, 1, 76, 88
5, 54718, Note_off_c, 1, 76, 0
5, 54720, Note_on_c, 1, 78, 88
5, 54778, Note_off_c, 1, 78, 0
5, 54780, Note_on_c, 1, 75, 88
5, 54838, Note_off_c, 1, 75, 0
5, 54840, Note_on_c, 1, 76, 88
5, 54898, Note_off_c, 1, 76, 0
5, 54900, Note_on_c, 1, 80, 88
5, 54958, Note_off_c, 1, 80, 0
5, 54960, Note_on_c, 1, 78, 88
5, 55018, Note_off_c, 1, 78, 0
5, 55020, Note_on_c, 1, 73, 88
5, 55078, Note_off_c, 1, 73, 0
5, 55080, Note_on_c, 1, 71, 88
5, 55138, Note_off_c, 1, 71, 0
5, 55140, Note_on_c, 1, 69, 88
5, 55198, Note_off_c, 1, 69, 0
5, 55200, Note_on_c, 1, 71, 88
5, 55258, Note_off_c, 1, 71, 0
5, 55260, Note_on_c, 1, 73, 88
5, 55318, Note_off_c, 1, 73, 0
5, 55320, Note_on_c, 1, 74, 88
5, 55378, Note_off_c, 1, 74, 0
5, 55380, Note_on_c, 1, 73, 88
5, 55438, Note_off_c, 1, 73, 0
5, 55440, Note_on_c, 1, 71, 88
5, 55498, Note_off_c, 1, 71, 0
5, 55500, Note_on_c, 1, 69, 88
5, 55558, Note_off_c, 1, 69, 0
5, 55560, Note_on_c, 1, 68, 88
5, 55618, Note_off_c, 1, 68, 0
5, 55620, Note_on_c, 1, 66, 88
5, 55678, Note_off_c, 1, 66, 0
5, 55680, Note_on_c, 1, 64, 88
5, 55738, Note_off_c, 1, 64, 0
5, 55740, Note_on_c, 1, 67, 88
5, 55798, Note_off_c, 1, 67, 0
5, 55800, Note_on_c, 1, 66, 88
5, 55858, Note_off_c, 1, 66, 0
5, 55860, Note_on_c, 1, 64, 88
5, 55918, Note_off_c, 1, 64, 0
5, 55920, Note_on_c, 1, 62, 88
5, 55978, Note_off_c, 1, 62, 0
5, 55980, Note_on_c, 1, 61, 88
5, 56038, Note_off_c, 1, 61, 0
5, 56040, Note_on_c, 1, 62, 88
5, 56098, Note_off_c, 1, 62, 0
5, 56100, Note_on_c, 1, 59, 88
5, 56158, Note_off_c, 1, 59, 0
5, 56160, Note_on_c, 1, 61, 88
5, 56394, Note_off_c, 1, 61, 0
5, 56460, Note_on_c, 1, 69, 88
5, 56518, Note_off_c, 1, 69, 0
5, 56520, Note_on_c, 1, 67, 88
5, 56578, Note_off_c, 1, 67, 0
5, 56580, Note_on_c, 1, 66, 88
5, 56638, Note_off_c, 1, 66, 0
5, 56640, Note_on_c, 1, 64, 88
5, 56874, Note_off_c, 1, 64, 0
5, 57000, Note_on_c, 1, 73, 88
5, 57173, Note_off_c, 1, 73, 0
5, 57180, Note_on_c, 1, 73, 88
5, 57238, Note_off_c, 1, 73, 0
5, 57240, Note_on_c, 1, 71, 88
5, 57298, Note_off_c, 1, 71, 0
5, 57300, Note_on_c, 1, 70, 88
5, 57358, Note_off_c, 1, 70, 0
5, 57360, Note_on_c, 1, 71, 88
5, 57594, Note_off_c, 1, 71, 0
5, 57600, Note_on_c, 1, 73, 88
5, 57716, Note_off_c, 1, 73, 0
5, 57720, Note_on_c, 1, 74, 88
5, 57836, Note_off_c, 1, 74, 0
5, 57900, Note_on_c, 1, 76, 88
5, 57958, Note_off_c, 1, 76, 0
5, 57960, Note_on_c, 1, 74, 88
5, 58018, Note_off_c, 1, 74, 0
5, 58020, Note_on_c, 1, 73, 88
5, 58078, Note_off_c, 1, 73, 0
5, 58080, Note_on_c, 1, 71, 88
5, 58138, Note_off_c, 1, 71, 0
5, 58140, Note_on_c, 1, 70, 88
5, 58198, Note_off_c, 1, 70, 0
5, 58200, Note_on_c, 1, 71, 88
5, 58316, Note_off_c, 1, 71, 0
5, 58380, Note_on_c, 1, 78, 88
5, 58438, Note_off_c, 1, 78, 0
5, 58440, Note_on_c, 1, 76, 88
5, 58498, Note_off_c, 1, 76, 0
5, 58500, Note_on_c, 1, 75, 88
5, 58558, Note_off_c, 1, 75, 0
5, 58560, Note_on_c, 1, 73, 88
5, 58618, Note_off_c, 1, 73, 0
5, 58620, Note_on_c, 1, 72, 88
5, 58678, Note_off_c, 1, 72, 0
5, 58680, Note_on_c, 1, 73, 88
5, 58796, Note_off_c, 1, 73, 0
5, 58860, Note_on_c, 1, 80, 88
5, 58976, Note_off_c, 1, 80, 0
5, 58980, Note_on_c, 1, 78, 88
5, 59093, Note_off_c, 1, 78, 0
5, 59100, Note_on_c, 1, 78, 88
5, 59158, Note_off_c, 1, 78, 0
5, 59160, Note_on_c, 1, 77, 88
5, 59218, Note_off_c, 1, 77, 0
5, 59220, Note_on_c, 1, 80, 88
5, 59278, Note_off_c, 1, 80, 0
5, 59280, Note_on_c, 1, 73, 88
5, 59455, Note_off_c, 1, 73, 0
5, 59460, Note_on_c, 1, 74, 88
5, 59518, Note_off_c, 1, 74, 0
5, 59520, Note_on_c, 1, 71, 88
5, 59990, Note_off_c, 1, 71, 0
5, 60000, Note_on_c, 1, 73, 88
5, 60538, Note_off_c, 1, 73, 0
5, 60540, Note_on_c, 1, 66, 88
5, 60598, Note_off_c, 1, 66, 0
5, 60600, Note_on_c, 1, 67, 88
5, 60658, Note_off_c, 1, 67, 0
5, 60660, Note_on_c, 1, 69, 88
5, 60718, Note_off_c, 1, 69, 0
5, 60720, Note_on_c, 1, 71, 88
5, 60778, Note_off_c, 1, 71, 0
5, 60780, Note_on_c, 1, 72, 88
5, 60838, Note_off_c, 1, 72, 0
5, 60840, Note_on_c, 1, 64, 88
5, 60898, Note_off_c, 1, 64, 0
5, 60900, Note_on_c, 1, 63, 88
5, 60958, Note_off_c, 1, 63, 0
5, 60960, Note_on_c, 1, 64, 88
5, 61493, Note_off_c, 1, 64, 0
5, 61500, Note_on_c, 1, 64, 88
5, 61558, Note_off_c, 1, 64, 0
5, 61560, Note_on_c, 1, 62, 88
5, 61618, Note_off_c, 1, 62, 0
5, 61620, Note_on_c, 1, 61, 88
5, 61678, Note_off_c, 1, 61, 0
5, 61680, Note_on_c, 1, 62, 88
5, 61796, Note_off_c, 1, 62, 0
5, 62040, Note_on_c, 1, 76, 88
5, 62098, Note_off_c, 1, 76, 0
5, 62100, Note_on_c, 1, 74, 88
5, 62158, Note_off_c, 1, 74, 0
5, 62160, Note_on_c, 1, 73, 88
5, 62218, Note_off_c, 1, 73, 0
5, 62220, Note_on_c, 1, 74, 88
5, 62278, Note_off_c, 1, 74, 0
5, 62280, Note_on_c, 1, 76, 88
5, 62516, Note_off_c, 1, 76, 0
5, 62520, Note_on_c, 1, 74, 88
5, 62578, Note_off_c, 1, 74, 0
5, 62580, Note_on_c, 1, 73, 88
5, 62638, Note_off_c, 1, 73, 0
5, 62640, Note_on_c, 1, 71, 88
5, 62698, Note_off_c, 1, 71, 0
5, 62700, Note_on_c, 1, 73, 88
5, 62758, Note_off_c, 1, 73, 0
5, 62760, Note_on_c, 1, 74, 88
5, 62994, Note_off_c, 1, 74, 0
5, 63000, Note_on_c, 1, 73, 88
5, 63058, Note_off_c, 1, 73, 0
5, 63060, Note_on_c, 1, 71, 88
5, 63118, Note_off_c, 1, 71, 0
5, 63120, Note_on_c, 1, 70, 88
5, 63178, Note_off_c, 1, 70, 0
5, 63180, Note_on_c, 1, 71, 88
5, 63238, Note_off_c, 1, 71, 0
5, 63240, Note_on_c, 1, 73, 88
5, 63594, Note_off_c, 1, 73, 0
5, 63600, Note_on_c, 1, 71, 88
5, 63716, Note_off_c, 1, 71, 0
5, 63720, Note_on_c, 1, 69, 88
5, 63836, Note_off_c, 1, 69, 0
5, 63840, Note_on_c, 1, 67, 88
5, 63898, Note_off_c, 1, 67, 0
5, 63900, Note_on_c, 1, 69, 88
5, 63958, Note_off_c, 1, 69, 0
5, 63960, Note_on_c, 1, 71, 88
5, 64194, Note_off_c, 1, 71, 0
5, 64200, Note_on_c, 1, 69, 88
5, 64258, Note_off_c, 1, 69, 0
5, 64260, Note_on_c, 1, 67, 88
5, 64318, Note_off_c, 1, 67, 0
5, 64320, Note_on_c, 1, 66, 88
5, 64378, Note_off_c, 1, 66, 0
5, 64380, Note_on_c, 1, 67, 88
5, 64438, Note_off_c, 1, 67, 0
5, 64440, Note_on_c, 1, 69, 88
5, 64674, Note_off_c, 1, 69, 0
5, 64680, Note_on_c, 1, 67, 88
5, 64738, Note_off_c, 1, 67, 0
5, 64740, Note_on_c, 1, 66, 88
5, 64798, Note_off_c, 1, 66, 0
5, 64800, Note_on_c, 1, 64, 88
5, 64858, Note_off_c, 1, 64, 0
5, 64860, Note_on_c, 1, 66, 88
5, 64918, Note_off_c, 1, 66, 0
5, 64920, Note_on_c, 1, 67, 88
5, 65154, Note_off_c, 1, 67, 0
5, 65160, Note_on_c, 1, 66, 88
5, 65218, Note_off_c, 1, 66, 0
5, 65220, Note_on_c, 1, 64, 88
5, 65278, Note_off_c, 1, 64, 0
5, 65280, Note_on_c, 1, 62, 88
5, 65514, Note_off_c, 1, 62, 0
5, 65520, Note_on_c, 1, 71, 88
5, 65873, Note_off_c, 1, 71, 0
5, 65880, Note_on_c, 1, 70, 88
5, 65996, Note_off_c, 1, 70, 0
5, 66000, Note_on_c, 1, 74, 88
5, 66116, Note_off_c, 1, 74, 0
5, 66120, Note_on_c, 1, 73, 88
5, 66236, Note_off_c, 1, 73, 0
5, 66240, Note_on_c, 1, 78, 88
5, 66356, Note_off_c, 1, 78, 0
5, 67080, Note_on_c, 1, 71, 88
5, 67258, Note_off_c, 1, 71, 0
5, 67260, Note_on_c, 1, 73, 88
5, 67318, Note_off_c, 1, 73, 0
5, 67320, Note_on_c, 1, 71, 88
5, 67378, Note_off_c, 1, 71, 0
5, 67380, Note_on_c, 1, 69, 88
5, 67438, Note_off_c, 1, 69, 0
5, 67440, Note_on_c, 1, 68, 88
5, 67674, Note_off_c, 1, 68, 0
5, 67740, Note_on_c, 1, 67, 88
5, 67798, Note_off_c, 1, 67, 0
5, 67800, Note_on_c, 1, 66, 88
5, 67975, Note_off_c, 1, 66, 0
5, 67980, Note_on_c, 1, 64, 88
5, 68038, Note_off_c, 1, 64, 0
5, 68040, Note_on_c, 1, 62, 88
5, 68098, Note_off_c, 1, 62, 0
5, 68100, Note_on_c, 1, 64, 88
5, 68158, Note_off_c, 1, 64, 0
5, 68160, Note_on_c, 1, 61, 88
5, 68394, Note_off_c, 1, 61, 0
5, 68460, Note_on_c, 1, 66, 88
5, 68518, Note_off_c, 1, 66, 0
5, 68520, Note_on_c, 1, 64, 88
5, 68578, Note_off_c, 1, 64, 0
5, 68580, Note_on_c, 1, 62, 88
5, 68638, Note_off_c, 1, 62, 0
5, 68640, Note_on_c, 1, 61, 88
5, 69110, Note_off_c, 1, 61, 0
5, 69120, Note_on_c, 1, 59, 88
5, 69354, Note_off_c, 1, 59, 0
5, 69480, Note_on_c, 1, 66, 88
5, 69596, Note_off_c, 1, 66, 0
5, 69600, Note_on_c, 1, 64, 88
5, 69834, Note_off_c, 1, 64, 0
5, 70200, Note_on_c, 1, 66, 88
5, 70316, Note_off_c, 1, 66, 0
5, 70320, Note_on_c, 1, 62, 88
5, 70436, Note_off_c, 1, 62, 0
5, 70440, Note_on_c, 1, 59, 88
5, 70556, Note_off_c, 1, 59, 0
5, 70560, Note_on_c, 1, 67, 88
5, 70676, Note_off_c, 1, 67, 0
5, 70680, Note_on_c, 1, 66, 88
5, 70796, Note_off_c, 1, 66, 0
5, 70800, Note_on_c, 1, 71, 88
5, 70916, Note_off_c, 1, 71, 0
5, 70920, Note_on_c, 1, 70, 88
5, 71036, Note_off_c, 1, 70, 0
5, 71040, Note_on_c, 1, 64, 88
5, 71156, Note_off_c, 1, 64, 0
5, 71160, Note_on_c, 1, 63, 88
5, 71276, Note_off_c, 1, 63, 0
5, 71400, Note_on_c, 1, 68, 88
5, 71516, Note_off_c, 1, 68, 0
5, 71520, Note_on_c, 1, 66, 88
5, 71636, Note_off_c, 1, 66, 0
5, 71640, Note_on_c, 1, 65, 88
5, 71756, Note_off_c, 1, 65, 0
5, 71760, Note_on_c, 1, 66, 88
5, 71935, Note_off_c, 1, 66, 0
5, 71940, Note_on_c, 1, 64, 88
5, 71998, Note_off_c, 1, 64, 0
5, 72000, Note_on_c, 1, 63, 88
5, 72945, Note_off_c, 1, 63, 0
5, 72945, End_track
6, 0, Start_track
6, 0, Title_t, "Track 3"
6, 0, Program_c, 2, 6
6, 3000, Note_on_c, 2, 59, 88
6, 3116, Note_off_c, 2, 59, 0
6, 3120, Note_on_c, 2, 57, 88
6, 3236, Note_off_c, 2, 57, 0
6, 3240, Note_on_c, 2, 54, 88
6, 3356, Note_off_c, 2, 54, 0
6, 3360, Note_on_c, 2, 62, 88
6, 3476, Note_off_c, 2, 62, 0
6, 3480, Note_on_c, 2, 59, 88
6, 3596, Note_off_c, 2, 59, 0
6, 3600, Note_on_c, 2, 64, 88
6, 3716, Note_off_c, 2, 64, 0
6, 3720, Note_on_c, 2, 63, 88
6, 3836, Note_off_c, 2, 63, 0
6, 3840, Note_on_c, 2, 57, 88
6, 3956, Note_off_c, 2, 57, 0
6, 3960, Note_on_c, 2, 56, 88
6, 4076, Note_off_c, 2, 56, 0
6, 4080, Note_on_c, 2, 65, 88
6, 4196, Note_off_c, 2, 65, 0
6, 4200, Note_on_c, 2, 64, 88
6, 4316, Note_off_c, 2, 64, 0
6, 4320, Note_on_c, 2, 59, 88
6, 4436, Note_off_c, 2, 59, 0
6, 4440, Note_on_c, 2, 58, 88
6, 4556, Note_off_c, 2, 58, 0
6, 4560, Note_on_c, 2, 67, 88
6, 4676, Note_off_c, 2, 67, 0
6, 4680, Note_on_c, 2, 66, 88
6, 4796, Note_off_c, 2, 66, 0
6, 4800, Note_on_c, 2, 65, 88
6, 4916, Note_off_c, 2, 65, 0
6, 4920, Note_on_c, 2, 66, 88
6, 5036, Note_off_c, 2, 66, 0
6, 5040, Note_on_c, 2, 62, 88
6, 5156, Note_off_c, 2, 62, 0
6, 5160, Note_on_c, 2, 59, 88
6, 5276, Note_off_c, 2, 59, 0
6, 5280, Note_on_c, 2, 61, 88
6, 5750, Note_off_c, 2, 61, 0
6, 5760, Note_on_c, 2, 59, 88
6, 5818, Note_off_c, 2, 59, 0
6, 5820, Note_on_c, 2, 66, 88
6, 5878, Note_off_c, 2, 66, 0
6, 5880, Note_on_c, 2, 68, 88
6, 5938, Note_off_c, 2, 68, 0
6, 5940, Note_on_c, 2, 70, 88
6, 5998, Note_off_c, 2, 70, 0
6, 6000, Note_on_c, 2, 71, 88
6, 6058, Note_off_c, 2, 71, 0
6, 6060, Note_on_c, 2, 73, 88
6, 6118, Note_off_c, 2, 73, 0
6, 6120, Note_on_c, 2, 66, 88
6, 6178, Note_off_c, 2, 66, 0
6, 6180, Note_on_c, 2, 65, 88
6, 6238, Note_off_c, 2, 65, 0
6, 6240, Note_on_c, 2, 69, 88
6, 6836, Note_off_c, 2, 69, 0
6, 6840, Note_on_c, 2, 67, 88
6, 6956, Note_off_c, 2, 67, 0
6, 6960, Note_on_c, 2, 66, 88
6, 7076, Note_off_c, 2, 66, 0
6, 7080, Note_on_c, 2, 70, 88
6, 7196, Note_off_c, 2, 70, 0
6, 7200, Note_on_c, 2, 71, 88
6, 7796, Note_off_c, 2, 71, 0
6, 7800, Note_on_c, 2, 70, 88
6, 7916, Note_off_c, 2, 70, 0
6, 7920, Note_on_c, 2, 71, 88
6, 8154, Note_off_c, 2, 71, 0
6, 8400, Note_on_c, 2, 73, 88
6, 8634, Note_off_c, 2, 73, 0
6, 8640, Note_on_c, 2, 71, 88
6, 8874, Note_off_c, 2, 71, 0
6, 8880, Note_on_c, 2, 69, 88
6, 9114, Note_off_c, 2, 69, 0
6, 9120, Note_on_c, 2, 68, 88
6, 9354, Note_off_c, 2, 68, 0
6, 9360, Note_on_c, 2, 66, 88
6, 9716, Note_off_c, 2, 66, 0
6, 9720, Note_on_c, 2, 65, 88
6, 9836, Note_off_c, 2, 65, 0
6, 9840, Note_on_c, 2, 66, 88
6, 10134, Note_off_c, 2, 66, 0
6, 10140, Note_on_c, 2, 68, 88
6, 10198, Note_off_c, 2, 68, 0
6, 10200, Note_on_c, 2, 69, 88
6, 10258, Note_off_c, 2, 69, 0
6, 10260, Note_on_c, 2, 71, 88
6, 10318, Note_off_c, 2, 71, 0
6, 10320, Note_on_c, 2, 73, 88
6, 10378, Note_off_c, 2, 73, 0
6, 10380, Note_on_c, 2, 74, 88
6, 10438, Note_off_c, 2, 74, 0
6, 10440, Note_on_c, 2, 66, 88
6, 10498, Note_off_c, 2, 66, 0
6, 10500, Note_on_c, 2, 65, 88
6, 10558, Note_off_c, 2, 65, 0
6, 10560, Note_on_c, 2, 66, 88
6, 11268, Note_off_c, 2, 66, 0
6, 11280, Note_on_c, 2, 64, 88
6, 11695, Note_off_c, 2, 64, 0
6, 11700, Note_on_c, 2, 62, 88
6, 11758, Note_off_c, 2, 62, 0
6, 11760, Note_on_c, 2, 61, 88
6, 11818, Note_off_c, 2, 61, 0
6, 11820, Note_on_c, 2, 59, 88
6, 11878, Note_off_c, 2, 59, 0
6, 11880, Note_on_c, 2, 57, 88
6, 11938, Note_off_c, 2, 57, 0
6, 11940, Note_on_c, 2, 54, 88
6, 11998, Note_off_c, 2, 54, 0
6, 12000, Note_on_c, 2, 56, 88
6, 12058, Note_off_c, 2, 56, 0
6, 12060, Note_on_c, 2, 59, 88
6, 12118, Note_off_c, 2, 59, 0
6, 12120, Note_on_c, 2, 57, 88
6, 12178, Note_off_c, 2, 57, 0
6, 12180, Note_on_c, 2, 54, 88
6, 12238, Note_off_c, 2, 54, 0
6, 12240, Note_on_c, 2, 60, 88
6, 12356, Note_off_c, 2, 60, 0
6, 12360, Note_on_c, 2, 59, 88
6, 12418, Note_off_c, 2, 59, 0
6, 12420, Note_on_c, 2, 57, 88
6, 12478, Note_off_c, 2, 57, 0
6, 12480, Note_on_c, 2, 59, 88
6, 12950, Note_off_c, 2, 59, 0
6, 12960, Note_on_c, 2, 52, 88
6, 13194, Note_off_c, 2, 52, 0
6, 13200, Note_on_c, 2, 59, 88
6, 13316, Note_off_c, 2, 59, 0
6, 13320, Note_on_c, 2, 57, 88
6, 13436, Note_off_c, 2, 57, 0
6, 13440, Note_on_c, 2, 56, 88
6, 13556, Note_off_c, 2, 56, 0
6, 13560, Note_on_c, 2, 54, 88
6, 13676, Note_off_c, 2, 54, 0
6, 13680, Note_on_c, 2, 66, 88
6, 13796, Note_off_c, 2, 66, 0
6, 13800, Note_on_c, 2, 62, 88
6, 13916, Note_off_c, 2, 62, 0
6, 13920, Note_on_c, 2, 64, 88
6, 14516, Note_off_c, 2, 64, 0
6, 14520, Note_on_c, 2, 61, 88
6, 14636, Note_off_c, 2, 61, 0
6, 14640, Note_on_c, 2, 58, 88
6, 14756, Note_off_c, 2, 58, 0
6, 14760, Note_on_c, 2, 54, 88
6, 14876, Note_off_c, 2, 54, 0
6, 14880, Note_on_c, 2, 62, 88
6, 15350, Note_off_c, 2, 62, 0
6, 15360, Note_on_c, 2, 61, 88
6, 15950, Note_off_c, 2, 61, 0
6, 15960, Note_on_c, 2, 59, 88
6, 16018, Note_off_c, 2, 59, 0
6, 16020, Note_on_c, 2, 57, 88
6, 16078, Note_off_c, 2, 57, 0
6, 16080, Note_on_c, 2, 56, 88
6, 16138, Note_off_c, 2, 56, 0
6, 16140, Note_on_c, 2, 57, 88
6, 16198, Note_off_c, 2, 57, 0
6, 16200, Note_on_c, 2, 59, 88
6, 16436, Note_off_c, 2, 59, 0
6, 16440, Note_on_c, 2, 57, 88
6, 16498, Note_off_c, 2, 57, 0
6, 16500, Note_on_c, 2, 56, 88
6, 16558, Note_off_c, 2, 56, 0
6, 16560, Note_on_c, 2, 54, 88
6, 16618, Note_off_c, 2, 54, 0
6, 16620, Note_on_c, 2, 56, 88
6, 16678, Note_off_c, 2, 56, 0
6, 16680, Note_on_c, 2, 57, 88
6, 16914, Note_off_c, 2, 57, 0
6, 16920, Note_on_c, 2, 56, 88
6, 16978, Note_off_c, 2, 56, 0
6, 16980, Note_on_c, 2, 54, 88
6, 17038, Note_off_c, 2, 54, 0
6, 17040, Note_on_c, 2, 53, 88
6, 17098, Note_off_c, 2, 53, 0
6, 17100, Note_on_c, 2, 54, 88
6, 17158, Note_off_c, 2, 54, 0
6, 17160, Note_on_c, 2, 56, 88
6, 17276, Note_off_c, 2, 56, 0
6, 17280, Note_on_c, 2, 54, 88
6, 17338, Note_off_c, 2, 54, 0
6, 17340, Note_on_c, 2, 71, 88
6, 17398, Note_off_c, 2, 71, 0
6, 17400, Note_on_c, 2, 73, 88
6, 17634, Note_off_c, 2, 73, 0
6, 17640, Note_on_c, 2, 71, 88
6, 17698, Note_off_c, 2, 71, 0
6, 17700, Note_on_c, 2, 69, 88
6, 17758, Note_off_c, 2, 69, 0
6, 17760, Note_on_c, 2, 67, 88
6, 17818, Note_off_c, 2, 67, 0
6, 17820, Note_on_c, 2, 69, 88
6, 17878, Note_off_c, 2, 69, 0
6, 17880, Note_on_c, 2, 71, 88
6, 18114, Note_off_c, 2, 71, 0
6, 18120, Note_on_c, 2, 69, 88
6, 18178, Note_off_c, 2, 69, 0
6, 18180, Note_on_c, 2, 67, 88
6, 18238, Note_off_c, 2, 67, 0
6, 18240, Note_on_c, 2, 66, 88
6, 18298, Note_off_c, 2, 66, 0
6, 18300, Note_on_c, 2, 67, 88
6, 18358, Note_off_c, 2, 67, 0
6, 18360, Note_on_c, 2, 69, 88
6, 18594, Note_off_c, 2, 69, 0
6, 18600, Note_on_c, 2, 67, 88
6, 18658, Note_off_c, 2, 67, 0
6, 18660, Note_on_c, 2, 66, 88
6, 18718, Note_off_c, 2, 66, 0
6, 18720, Note_on_c, 2, 64, 88
6, 18778, Note_off_c, 2, 64, 0
6, 18780, Note_on_c, 2, 66, 88
6, 18838, Note_off_c, 2, 66, 0
6, 18840, Note_on_c, 2, 67, 88
6, 19074, Note_off_c, 2, 67, 0
6, 19080, Note_on_c, 2, 66, 88
6, 19138, Note_off_c, 2, 66, 0
6, 19140, Note_on_c, 2, 64, 88
6, 19198, Note_off_c, 2, 64, 0
6, 19200, Note_on_c, 2, 62, 88
6, 19434, Note_off_c, 2, 62, 0
6, 26040, Note_on_c, 2, 59, 88
6, 26156, Note_off_c, 2, 59, 0
6, 26160, Note_on_c, 2, 55, 88
6, 26276, Note_off_c, 2, 55, 0
6, 26280, Note_on_c, 2, 52, 88
6, 26396, Note_off_c, 2, 52, 0
6, 27960, Note_on_c, 2, 59, 88
6, 28076, Note_off_c, 2, 59, 0
6, 28080, Note_on_c, 2, 55, 88
6, 28196, Note_off_c, 2, 55, 0
6, 28200, Note_on_c, 2, 52, 88
6, 28316, Note_off_c, 2, 52, 0
6, 28320, Note_on_c, 2, 60, 88
6, 28436, Note_off_c, 2, 60, 0
6, 28440, Note_on_c, 2, 59, 88
6, 28556, Note_off_c, 2, 59, 0
6, 28560, Note_on_c, 2, 64, 88
6, 28676, Note_off_c, 2, 64, 0
6, 28680, Note_on_c, 2, 63, 88
6, 28796, Note_off_c, 2, 63, 0
6, 28800, Note_on_c, 2, 57, 88
6, 28916, Note_off_c, 2, 57, 0
6, 28920, Note_on_c, 2, 56, 88
6, 29036, Note_off_c, 2, 56, 0
6, 29040, Note_on_c, 2, 65, 88
6, 29156, Note_off_c, 2, 65, 0
6, 29160, Note_on_c, 2, 64, 88
6, 29276, Note_off_c, 2, 64, 0
6, 29280, Note_on_c, 2, 59, 88
6, 29396, Note_off_c, 2, 59, 0
6, 29400, Note_on_c, 2, 58, 88
6, 29516, Note_off_c, 2, 58, 0
6, 29520, Note_on_c, 2, 67, 88
6, 29636, Note_off_c, 2, 67, 0
6, 29640, Note_on_c, 2, 66, 88
6, 29756, Note_off_c, 2, 66, 0
6, 29760, Note_on_c, 2, 65, 88
6, 29876, Note_off_c, 2, 65, 0
6, 29880, Note_on_c, 2, 66, 88
6, 29996, Note_off_c, 2, 66, 0
6, 30000, Note_on_c, 2, 62, 88
6, 30116, Note_off_c, 2, 62, 0
6, 30120, Note_on_c, 2, 59, 88
6, 30236, Note_off_c, 2, 59, 0
6, 30240, Note_on_c, 2, 61, 88
6, 30710, Note_off_c, 2, 61, 0
6, 30720, Note_on_c, 2, 59, 88
6, 31190, Note_off_c, 2, 59, 0
6, 31260, Note_on_c, 2, 61, 88
6, 31318, Note_off_c, 2, 61, 0
6, 31320, Note_on_c, 2, 63, 88
6, 31378, Note_off_c, 2, 63, 0
6, 31380, Note_on_c, 2, 65, 88
6, 31438, Note_off_c, 2, 65, 0
6, 31440, Note_on_c, 2, 66, 88
6, 31498, Note_off_c, 2, 66, 0
6, 31500, Note_on_c, 2, 68, 88
6, 31558, Note_off_c, 2, 68, 0
6, 31560, Note_on_c, 2, 61, 88
6, 31618, Note_off_c, 2, 61, 0
6, 31620, Note_on_c, 2, 60, 88
6, 31678, Note_off_c, 2, 60, 0
6, 31680, Note_on_c, 2, 61, 88
6, 31738, Note_off_c, 2, 61, 0
6, 31740, Note_on_c, 2, 59, 88
6, 31798, Note_off_c, 2, 59, 0
6, 31800, Note_on_c, 2, 57, 88
6, 31858, Note_off_c, 2, 57, 0
6, 31860, Note_on_c, 2, 56, 88
6, 31918, Note_off_c, 2, 56, 0
6, 31920, Note_on_c, 2, 54, 88
6, 31978, Note_off_c, 2, 54, 0
6, 31980, Note_on_c, 2, 56, 88
6, 32038, Note_off_c, 2, 56, 0
6, 32040, Note_on_c, 2, 57, 88
6, 32098, Note_off_c, 2, 57, 0
6, 32100, Note_on_c, 2, 61, 88
6, 32158, Note_off_c, 2, 61, 0
6, 32160, Note_on_c, 2, 59, 88
6, 32218, Note_off_c, 2, 59, 0
6, 32220, Note_on_c, 2, 56, 88
6, 32278, Note_off_c, 2, 56, 0
6, 32280, Note_on_c, 2, 57, 88
6, 32338, Note_off_c, 2, 57, 0
6, 32340, Note_on_c, 2, 61, 88
6, 32398, Note_off_c, 2, 61, 0
6, 32400, Note_on_c, 2, 62, 88
6, 32458, Note_off_c, 2, 62, 0
6, 32460, Note_on_c, 2, 59, 88
6, 32518, Note_off_c, 2, 59, 0
6, 32520, Note_on_c, 2, 61, 88
6, 32578, Note_off_c, 2, 61, 0
6, 32580, Note_on_c, 2, 65, 88
6, 32638, Note_off_c, 2, 65, 0
6, 32640, Note_on_c, 2, 66, 88
6, 32698, Note_off_c, 2, 66, 0
6, 32700, Note_on_c, 2, 64, 88
6, 32758, Note_off_c, 2, 64, 0
6, 32760, Note_on_c, 2, 62, 88
6, 32818, Note_off_c, 2, 62, 0
6, 32820, Note_on_c, 2, 61, 88
6, 32878, Note_off_c, 2, 61, 0
6, 32880, Note_on_c, 2, 59, 88
6, 32938, Note_off_c, 2, 59, 0
6, 32940, Note_on_c, 2, 61, 88
6, 32998, Note_off_c, 2, 61, 0
6, 33000, Note_on_c, 2, 62, 88
6, 33058, Note_off_c, 2, 62, 0
6, 33060, Note_on_c, 2, 66, 88
6, 33118, Note_off_c, 2, 66, 0
6, 33120, Note_on_c, 2, 64, 88
6, 33178, Note_off_c, 2, 64, 0
6, 33180, Note_on_c, 2, 61, 88
6, 33238, Note_off_c, 2, 61, 0
6, 33240, Note_on_c, 2, 62, 88
6, 33298, Note_off_c, 2, 62, 0
6, 33300, Note_on_c, 2, 66, 88
6, 33358, Note_off_c, 2, 66, 0
6, 33360, Note_on_c, 2, 67, 88
6, 33418, Note_off_c, 2, 67, 0
6, 33420, Note_on_c, 2, 64, 88
6, 33478, Note_off_c, 2, 64, 0
6, 33480, Note_on_c, 2, 66, 88
6, 33538, Note_off_c, 2, 66, 0
6, 33540, Note_on_c, 2, 70, 88
6, 33598, Note_off_c, 2, 70, 0
6, 33600, Note_on_c, 2, 71, 88
6, 33658, Note_off_c, 2, 71, 0
6, 33660, Note_on_c, 2, 69, 88
6, 33718, Note_off_c, 2, 69, 0
6, 33720, Note_on_c, 2, 67, 88
6, 33778, Note_off_c, 2, 67, 0
6, 33780, Note_on_c, 2, 66, 88
6, 33838, Note_off_c, 2, 66, 0
6, 33840, Note_on_c, 2, 64, 88
6, 33898, Note_off_c, 2, 64, 0
6, 33900, Note_on_c, 2, 62, 88
6, 33958, Note_off_c, 2, 62, 0
6, 33960, Note_on_c, 2, 64, 88
6, 34018, Note_off_c, 2, 64, 0
6, 34020, Note_on_c, 2, 61, 88
6, 34078, Note_off_c, 2, 61, 0
6, 34080, Note_on_c, 2, 62, 88
6, 34676, Note_off_c, 2, 62, 0
6, 34680, Note_on_c, 2, 61, 88
6, 34796, Note_off_c, 2, 61, 0
6, 34800, Note_on_c, 2, 59, 88
6, 34916, Note_off_c, 2, 59, 0
6, 34920, Note_on_c, 2, 62, 88
6, 35036, Note_off_c, 2, 62, 0
6, 35040, Note_on_c, 2, 60, 88
6, 35636, Note_off_c, 2, 60, 0
6, 35640, Note_on_c, 2, 59, 88
6, 35756, Note_off_c, 2, 59, 0
6, 35880, Note_on_c, 2, 59, 88
6, 36055, Note_off_c, 2, 59, 0
6, 36060, Note_on_c, 2, 58, 88
6, 36118, Note_off_c, 2, 58, 0
6, 36120, Note_on_c, 2, 59, 88
6, 36178, Note_off_c, 2, 59, 0
6, 36180, Note_on_c, 2, 62, 88
6, 36238, Note_off_c, 2, 62, 0
6, 36240, Note_on_c, 2, 61, 88
6, 36474, Note_off_c, 2, 61, 0
6, 36480, Note_on_c, 2, 54, 88
6, 36714, Note_off_c, 2, 54, 0
6, 41400, Note_on_c, 2, 57, 88
6, 41516, Note_off_c, 2, 57, 0
6, 41520, Note_on_c, 2, 54, 88
6, 41636, Note_off_c, 2, 54, 0
6, 41640, Note_on_c, 2, 50, 88
6, 41756, Note_off_c, 2, 50, 0
6, 41760, Note_on_c, 2, 59, 88
6, 41876, Note_off_c, 2, 59, 0
6, 41880, Note_on_c, 2, 57, 88
6, 41996, Note_off_c, 2, 57, 0
6, 42000, Note_on_c, 2, 62, 88
6, 42116, Note_off_c, 2, 62, 0
6, 42120, Note_on_c, 2, 61, 88
6, 42236, Note_off_c, 2, 61, 0
6, 42240, Note_on_c, 2, 55, 88
6, 42356, Note_off_c, 2, 55, 0
6, 42360, Note_on_c, 2, 54, 88
6, 42476, Note_off_c, 2, 54, 0
6, 42480, Note_on_c, 2, 63, 88
6, 42596, Note_off_c, 2, 63, 0
6, 42600, Note_on_c, 2, 62, 88
6, 42716, Note_off_c, 2, 62, 0
6, 42720, Note_on_c, 2, 57, 88
6, 42836, Note_off_c, 2, 57, 0
6, 42840, Note_on_c, 2, 56, 88
6, 42956, Note_off_c, 2, 56, 0
6, 42960, Note_on_c, 2, 65, 88
6, 43076, Note_off_c, 2, 65, 0
6, 43080, Note_on_c, 2, 64, 88
6, 43196, Note_off_c, 2, 64, 0
6, 43200, Note_on_c, 2, 63, 88
6, 43316, Note_off_c, 2, 63, 0
6, 43320, Note_on_c, 2, 64, 88
6, 43436, Note_off_c, 2, 64, 0
6, 43440, Note_on_c, 2, 61, 88
6, 43556, Note_off_c, 2, 61, 0
6, 43560, Note_on_c, 2, 57, 88
6, 43676, Note_off_c, 2, 57, 0
6, 43680, Note_on_c, 2, 59, 88
6, 44276, Note_off_c, 2, 59, 0
6, 44280, Note_on_c, 2, 57, 88
6, 44514, Note_off_c, 2, 57, 0
6, 44520, Note_on_c, 2, 55, 88
6, 44754, Note_off_c, 2, 55, 0
6, 44760, Note_on_c, 2, 54, 88
6, 44876, Note_off_c, 2, 54, 0
6, 44880, Note_on_c, 2, 52, 88
6, 44996, Note_off_c, 2, 52, 0
6, 45000, Note_on_c, 2, 49, 88
6, 45116, Note_off_c, 2, 49, 0
6, 45180, Note_on_c, 2, 79, 88
6, 45238, Note_off_c, 2, 79, 0
6, 45240, Note_on_c, 2, 78, 88
6, 45298, Note_off_c, 2, 78, 0
6, 45300, Note_on_c, 2, 76, 88
6, 45358, Note_off_c, 2, 76, 0
6, 45360, Note_on_c, 2, 74, 88
6, 45418, Note_off_c, 2, 74, 0
6, 45420, Note_on_c, 2, 72, 88
6, 45478, Note_off_c, 2, 72, 0
6, 45480, Note_on_c, 2, 71, 88
6, 45538, Note_off_c, 2, 71, 0
6, 45540, Note_on_c, 2, 72, 88
6, 45598, Note_off_c, 2, 72, 0
6, 45600, Note_on_c, 2, 74, 88
6, 45658, Note_off_c, 2, 74, 0
6, 45660, Note_on_c, 2, 76, 88
6, 45718, Note_off_c, 2, 76, 0
6, 45720, Note_on_c, 2, 74, 88
6, 45778, Note_off_c, 2, 74, 0
6, 45780, Note_on_c, 2, 72, 88
6, 45838, Note_off_c, 2, 72, 0
6, 45840, Note_on_c, 2, 71, 88
6, 45898, Note_off_c, 2, 71, 0
6, 45900, Note_on_c, 2, 73, 88
6, 45958, Note_off_c, 2, 73, 0
6, 45960, Note_on_c, 2, 74, 88
6, 46018, Note_off_c, 2, 74, 0
6, 46020, Note_on_c, 2, 71, 88
6, 46078, Note_off_c, 2, 71, 0
6, 46080, Note_on_c, 2, 67, 88
6, 46138, Note_off_c, 2, 67, 0
6, 46140, Note_on_c, 2, 70, 88
6, 46198, Note_off_c, 2, 70, 0
6, 46200, Note_on_c, 2, 69, 88
6, 46258, Note_off_c, 2, 69, 0
6, 46260, Note_on_c, 2, 67, 88
6, 46318, Note_off_c, 2, 67, 0
6, 46320, Note_on_c, 2, 65, 88
6, 46378, Note_off_c, 2, 65, 0
6, 46380, Note_on_c, 2, 64, 88
6, 46438, Note_off_c, 2, 64, 0
6, 46440, Note_on_c, 2, 65, 88
6, 46498, Note_off_c, 2, 65, 0
6, 46500, Note_on_c, 2, 62, 88
6, 46558, Note_off_c, 2, 62, 0
6, 46560, Note_on_c, 2, 64, 88
6, 46794, Note_off_c, 2, 64, 0
6, 46860, Note_on_c, 2, 72, 88
6, 46918, Note_off_c, 2, 72, 0
6, 46920, Note_on_c, 2, 71, 88
6, 46978, Note_off_c, 2, 71, 0
6, 46980, Note_on_c, 2, 69, 88
6, 47038, Note_off_c, 2, 69, 0
6, 47040, Note_on_c, 2, 67, 88
6, 47098, Note_off_c, 2, 67, 0
6, 47100, Note_on_c, 2, 66, 88
6, 47158, Note_off_c, 2, 66, 0
6, 47160, Note_on_c, 2, 64, 88
6, 47218, Note_off_c, 2, 64, 0
6, 47220, Note_on_c, 2, 62, 88
6, 47278, Note_off_c, 2, 62, 0
6, 47280, Note_on_c, 2, 61, 88
6, 47338, Note_off_c, 2, 61, 0
6, 47340, Note_on_c, 2, 59, 88
6, 47398, Note_off_c, 2, 59, 0
6, 47400, Note_on_c, 2, 57, 88
6, 47458, Note_off_c, 2, 57, 0
6, 47460, Note_on_c, 2, 55, 88
6, 47518, Note_off_c, 2, 55, 0
6, 47520, Note_on_c, 2, 54, 88
6, 47578, Note_off_c, 2, 54, 0
6, 47580, Note_on_c, 2, 57, 88
6, 47638, Note_off_c, 2, 57, 0
6, 47640, Note_on_c, 2, 59, 88
6, 47698, Note_off_c, 2, 59, 0
6, 47700, Note_on_c, 2, 61, 88
6, 47758, Note_off_c, 2, 61, 0
6, 47760, Note_on_c, 2, 62, 88
6, 47818, Note_off_c, 2, 62, 0
6, 47820, Note_on_c, 2, 64, 88
6, 47878, Note_off_c, 2, 64, 0
6, 47880, Note_on_c, 2, 57, 88
6, 47938, Note_off_c, 2, 57, 0
6, 47940, Note_on_c, 2, 56, 88
6, 47998, Note_off_c, 2, 56, 0
6, 48000, Note_on_c, 2, 57, 88
6, 48470, Note_off_c, 2, 57, 0
6, 48480, Note_on_c, 2, 59, 88
6, 48596, Note_off_c, 2, 59, 0
6, 48600, Note_on_c, 2, 58, 88
6, 48658, Note_off_c, 2, 58, 0
6, 48660, Note_on_c, 2, 59, 88
6, 48718, Note_off_c, 2, 59, 0
6, 48720, Note_on_c, 2, 61, 88
6, 48836, Note_off_c, 2, 61, 0
6, 48840, Note_on_c, 2, 52, 88
6, 48956, Note_off_c, 2, 52, 0
6, 48960, Note_on_c, 2, 59, 88
6, 49076, Note_off_c, 2, 59, 0
6, 49500, Note_on_c, 2, 49, 88
6, 49558, Note_off_c, 2, 49, 0
6, 49560, Note_on_c, 2, 51, 88
6, 49618, Note_off_c, 2, 51, 0
6, 49620, Note_on_c, 2, 53, 88
6, 49678, Note_off_c, 2, 53, 0
6, 49680, Note_on_c, 2, 54, 88
6, 49738, Note_off_c, 2, 54, 0
6, 49740, Note_on_c, 2, 56, 88
6, 49798, Note_off_c, 2, 56, 0
6, 49800, Note_on_c, 2, 57, 88
6, 49858, Note_off_c, 2, 57, 0
6, 49860, Note_on_c, 2, 53, 88
6, 49918, Note_off_c, 2, 53, 0
6, 49920, Note_on_c, 2, 54, 88
6, 50154, Note_off_c, 2, 54, 0
6, 50160, Note_on_c, 2, 56, 88
6, 50394, Note_off_c, 2, 56, 0
6, 50520, Note_on_c, 2, 61, 88
6, 50636, Note_off_c, 2, 61, 0
6, 50640, Note_on_c, 2, 57, 88
6, 50756, Note_off_c, 2, 57, 0
6, 50760, Note_on_c, 2, 54, 88
6, 50876, Note_off_c, 2, 54, 0
6, 50880, Note_on_c, 2, 62, 88
6, 50996, Note_off_c, 2, 62, 0
6, 51000, Note_on_c, 2, 61, 88
6, 51116, Note_off_c, 2, 61, 0
6, 51120, Note_on_c, 2, 66, 88
6, 51236, Note_off_c, 2, 66, 0
6, 51240, Note_on_c, 2, 65, 88
6, 51356, Note_off_c, 2, 65, 0
6, 51360, Note_on_c, 2, 59, 88
6, 51476, Note_off_c, 2, 59, 0
6, 51480, Note_on_c, 2, 58, 88
6, 51596, Note_off_c, 2, 58, 0
6, 51600, Note_on_c, 2, 67, 88
6, 51716, Note_off_c, 2, 67, 0
6, 51720, Note_on_c, 2, 66, 88
6, 51836, Note_off_c, 2, 66, 0
6, 51840, Note_on_c, 2, 61, 88
6, 51956, Note_off_c, 2, 61, 0
6, 51960, Note_on_c, 2, 60, 88
6, 52076, Note_off_c, 2, 60, 0
6, 52080, Note_on_c, 2, 69, 88
6, 52196, Note_off_c, 2, 69, 0
6, 52200, Note_on_c, 2, 68, 88
6, 52316, Note_off_c, 2, 68, 0
6, 52320, Note_on_c, 2, 67, 88
6, 52436, Note_off_c, 2, 67, 0
6, 52440, Note_on_c, 2, 68, 88
6, 52556, Note_off_c, 2, 68, 0
6, 52560, Note_on_c, 2, 64, 88
6, 52676, Note_off_c, 2, 64, 0
6, 52680, Note_on_c, 2, 61, 88
6, 52796, Note_off_c, 2, 61, 0
6, 52800, Note_on_c, 2, 63, 88
6, 53331, Note_off_c, 2, 63, 0
6, 53340, Note_on_c, 2, 56, 88
6, 53398, Note_off_c, 2, 56, 0
6, 53400, Note_on_c, 2, 58, 88
6, 53458, Note_off_c, 2, 58, 0
6, 53460, Note_on_c, 2, 60, 88
6, 53518, Note_off_c, 2, 60, 0
6, 53520, Note_on_c, 2, 61, 88
6, 53578, Note_off_c, 2, 61, 0
6, 53580, Note_on_c, 2, 63, 88
6, 53638, Note_off_c, 2, 63, 0
6, 53640, Note_on_c, 2, 54, 88
6, 53698, Note_off_c, 2, 54, 0
6, 53700, Note_on_c, 2, 52, 88
6, 53758, Note_off_c, 2, 52, 0
6, 53760, Note_on_c, 2, 54, 88
6, 53994, Note_off_c, 2, 54, 0
6, 57240, Note_on_c, 2, 66, 88
6, 57356, Note_off_c, 2, 66, 0
6, 57360, Note_on_c, 2, 62, 88
6, 57476, Note_off_c, 2, 62, 0
6, 57480, Note_on_c, 2, 59, 88
6, 57596, Note_off_c, 2, 59, 0
6, 57600, Note_on_c, 2, 67, 88
6, 57716, Note_off_c, 2, 67, 0
6, 57720, Note_on_c, 2, 66, 88
6, 57836, Note_off_c, 2, 66, 0
6, 57840, Note_on_c, 2, 71, 88
6, 57956, Note_off_c, 2, 71, 0
6, 57960, Note_on_c, 2, 70, 88
6, 58076, Note_off_c, 2, 70, 0
6, 58080, Note_on_c, 2, 64, 88
6, 58196, Note_off_c, 2, 64, 0
6, 58200, Note_on_c, 2, 63, 88
6, 58316, Note_off_c, 2, 63, 0
6, 58320, Note_on_c, 2, 72, 88
6, 58436, Note_off_c, 2, 72, 0
6, 58440, Note_on_c, 2, 71, 88
6, 58556, Note_off_c, 2, 71, 0
6, 58560, Note_on_c, 2, 66, 88
6, 58676, Note_off_c, 2, 66, 0
6, 58680, Note_on_c, 2, 65, 88
6, 58796, Note_off_c, 2, 65, 0
6, 58800, Note_on_c, 2, 74, 88
6, 58916, Note_off_c, 2, 74, 0
6, 58920, Note_on_c, 2, 73, 88
6, 59036, Note_off_c, 2, 73, 0
6, 59040, Note_on_c, 2, 72, 88
6, 59156, Note_off_c, 2, 72, 0
6, 59160, Note_on_c, 2, 73, 88
6, 59276, Note_off_c, 2, 73, 0
6, 59280, Note_on_c, 2, 69, 88
6, 59396, Note_off_c, 2, 69, 0
6, 59400, Note_on_c, 2, 66, 88
6, 59516, Note_off_c, 2, 66, 0
6, 59520, Note_on_c, 2, 68, 88
6, 60051, Note_off_c, 2, 68, 0
6, 60060, Note_on_c, 2, 61, 88
6, 60118, Note_off_c, 2, 61, 0
6, 60120, Note_on_c, 2, 63, 88
6, 60178, Note_off_c, 2, 63, 0
6, 60180, Note_on_c, 2, 65, 88
6, 60238, Note_off_c, 2, 65, 0
6, 60240, Note_on_c, 2, 66, 88
6, 60298, Note_off_c, 2, 66, 0
6, 60300, Note_on_c, 2, 68, 88
6, 60358, Note_off_c, 2, 68, 0
6, 60360, Note_on_c, 2, 59, 88
6, 60418, Note_off_c, 2, 59, 0
6, 60420, Note_on_c, 2, 57, 88
6, 60478, Note_off_c, 2, 57, 0
6, 60480, Note_on_c, 2, 59, 88
6, 61425, Note_off_c, 2, 59, 0
6, 61440, Note_on_c, 2, 58, 88
6, 61556, Note_off_c, 2, 58, 0
6, 61560, Note_on_c, 2, 54, 88
6, 61676, Note_off_c, 2, 54, 0
6, 61680, Note_on_c, 2, 59, 88
6, 61796, Note_off_c, 2, 59, 0
6, 61800, Note_on_c, 2, 62, 88
6, 61916, Note_off_c, 2, 62, 0
6, 61920, Note_on_c, 2, 64, 88
6, 62036, Note_off_c, 2, 64, 0
6, 62040, Note_on_c, 2, 67, 88
6, 62156, Note_off_c, 2, 67, 0
6, 62160, Note_on_c, 2, 69, 88
6, 62276, Note_off_c, 2, 69, 0
6, 62280, Note_on_c, 2, 61, 88
6, 62396, Note_off_c, 2, 61, 0
6, 62400, Note_on_c, 2, 62, 88
6, 62516, Note_off_c, 2, 62, 0
6, 62520, Note_on_c, 2, 66, 88
6, 62636, Note_off_c, 2, 66, 0
6, 62640, Note_on_c, 2, 67, 88
6, 62756, Note_off_c, 2, 67, 0
6, 62760, Note_on_c, 2, 59, 88
6, 62876, Note_off_c, 2, 59, 0
6, 62880, Note_on_c, 2, 61, 88
6, 62996, Note_off_c, 2, 61, 0
6, 63000, Note_on_c, 2, 64, 88
6, 63116, Note_off_c, 2, 64, 0
6, 63120, Note_on_c, 2, 66, 88
6, 63236, Note_off_c, 2, 66, 0
6, 63240, Note_on_c, 2, 58, 88
6, 63356, Note_off_c, 2, 58, 0
6, 63360, Note_on_c, 2, 59, 88
6, 63418, Note_off_c, 2, 59, 0
6, 63420, Note_on_c, 2, 54, 88
6, 63478, Note_off_c, 2, 54, 0
6, 63480, Note_on_c, 2, 55, 88
6, 63538, Note_off_c, 2, 55, 0
6, 63540, Note_on_c, 2, 57, 88
6, 63598, Note_off_c, 2, 57, 0
6, 63600, Note_on_c, 2, 59, 88
6, 63658, Note_off_c, 2, 59, 0
6, 63660, Note_on_c, 2, 60, 88
6, 63718, Note_off_c, 2, 60, 0
6, 63720, Note_on_c, 2, 52, 88
6, 63778, Note_off_c, 2, 52, 0
6, 63780, Note_on_c, 2, 51, 88
6, 63838, Note_off_c, 2, 51, 0
6, 63840, Note_on_c, 2, 52, 88
6, 63956, Note_off_c, 2, 52, 0
6, 63960, Note_on_c, 2, 55, 88
6, 64076, Note_off_c, 2, 55, 0
6, 64080, Note_on_c, 2, 57, 88
6, 64196, Note_off_c, 2, 57, 0
6, 64200, Note_on_c, 2, 61, 88
6, 64316, Note_off_c, 2, 61, 0
6, 64320, Note_on_c, 2, 62, 88
6, 64436, Note_off_c, 2, 62, 0
6, 64440, Note_on_c, 2, 54, 88
6, 64556, Note_off_c, 2, 54, 0
6, 64560, Note_on_c, 2, 55, 88
6, 64676, Note_off_c, 2, 55, 0
6, 64680, Note_on_c, 2, 59, 88
6, 64796, Note_off_c, 2, 59, 0
6, 64800, Note_on_c, 2, 61, 88
6, 64916, Note_off_c, 2, 61, 0
6, 64920, Note_on_c, 2, 52, 88
6, 65036, Note_off_c, 2, 52, 0
6, 65040, Note_on_c, 2, 54, 88
6, 65156, Note_off_c, 2, 54, 0
6, 65160, Note_on_c, 2, 58, 88
6, 65276, Note_off_c, 2, 58, 0
6, 65280, Note_on_c, 2, 59, 88
6, 65396, Note_off_c, 2, 59, 0
6, 65400, Note_on_c, 2, 54, 88
6, 65516, Note_off_c, 2, 54, 0
6, 65520, Note_on_c, 2, 50, 88
6, 65636, Note_off_c, 2, 50, 0
6, 65640, Note_on_c, 2, 47, 88
6, 65756, Note_off_c, 2, 47, 0
6, 65760, Note_on_c, 2, 55, 88
6, 65876, Note_off_c, 2, 55, 0
6, 65880, Note_on_c, 2, 54, 88
6, 65996, Note_off_c, 2, 54, 0
6, 66000, Note_on_c, 2, 59, 88
6, 66116, Note_off_c, 2, 59, 0
6, 66120, Note_on_c, 2, 58, 88
6, 66236, Note_off_c, 2, 58, 0
6, 66240, Note_on_c, 2, 52, 88
6, 66356, Note_off_c, 2, 52, 0
6, 66360, Note_on_c, 2, 51, 88
6, 66476, Note_off_c, 2, 51, 0
6, 66480, Note_on_c, 2, 52, 88
6, 66950, Note_off_c, 2, 52, 0
6, 66960, Note_on_c, 2, 54, 88
6, 67194, Note_off_c, 2, 54, 0
6, 67200, Note_on_c, 2, 52, 88
6, 67434, Note_off_c, 2, 52, 0
6, 67500, Note_on_c, 2, 59, 88
6, 67558, Note_off_c, 2, 59, 0
6, 67560, Note_on_c, 2, 61, 88
6, 67618, Note_off_c, 2, 61, 0
6, 67620, Note_on_c, 2, 62, 88
6, 67678, Note_off_c, 2, 62, 0
6, 67680, Note_on_c, 2, 64, 88
6, 67853, Note_off_c, 2, 64, 0
6, 67860, Note_on_c, 2, 64, 88
6, 67918, Note_off_c, 2, 64, 0
6, 67920, Note_on_c, 2, 62, 88
6, 67978, Note_off_c, 2, 62, 0
6, 67980, Note_on_c, 2, 61, 88
6, 68038, Note_off_c, 2, 61, 0
6, 68040, Note_on_c, 2, 59, 88
6, 68098, Note_off_c, 2, 59, 0
6, 68100, Note_on_c, 2, 57, 88
6, 68158, Note_off_c, 2, 57, 0
6, 68160, Note_on_c, 2, 56, 88
6, 68276, Note_off_c, 2, 56, 0
6, 68280, Note_on_c, 2, 54, 88
6, 68455, Note_off_c, 2, 54, 0
6, 68460, Note_on_c, 2, 57, 88
6, 68518, Note_off_c, 2, 57, 0
6, 68520, Note_on_c, 2, 55, 88
6, 68578, Note_off_c, 2, 55, 0
6, 68580, Note_on_c, 2, 54, 88
6, 68638, Note_off_c, 2, 54, 0
6, 68640, Note_on_c, 2, 52, 88
6, 69110, Note_off_c, 2, 52, 0
6, 69120, Note_on_c, 2, 54, 88
6, 69354, Note_off_c, 2, 54, 0
6, 69480, Note_on_c, 2, 57, 88
6, 69596, Note_off_c, 2, 57, 0
6, 69600, Note_on_c, 2, 55, 88
6, 69834, Note_off_c, 2, 55, 0
6, 69960, Note_on_c, 2, 59, 88
6, 70076, Note_off_c, 2, 59, 0
6, 70080, Note_on_c, 2, 58, 88
6, 70138, Note_off_c, 2, 58, 0
6, 70140, Note_on_c, 2, 54, 88
6, 70198, Note_off_c, 2, 54, 0
6, 70200, Note_on_c, 2, 56, 88
6, 70258, Note_off_c, 2, 56, 0
6, 70260, Note_on_c, 2, 58, 88
6, 70318, Note_off_c, 2, 58, 0
6, 70320, Note_on_c, 2, 59, 88
6, 70378, Note_off_c, 2, 59, 0
6, 70380, Note_on_c, 2, 61, 88
6, 70438, Note_off_c, 2, 61, 0
6, 70440, Note_on_c, 2, 62, 88
6, 70498, Note_off_c, 2, 62, 0
6, 70500, Note_on_c, 2, 59, 88
6, 70613, Note_off_c, 2, 59, 0
6, 70620, Note_on_c, 2, 59, 88
6, 70678, Note_off_c, 2, 59, 0
6, 70680, Note_on_c, 2, 58, 88
6, 70738, Note_off_c, 2, 58, 0
6, 70740, Note_on_c, 2, 59, 88
6, 70798, Note_off_c, 2, 59, 0
6, 70800, Note_on_c, 2, 61, 88
6, 70858, Note_off_c, 2, 61, 0
6, 70860, Note_on_c, 2, 62, 88
6, 70918, Note_off_c, 2, 62, 0
6, 70920, Note_on_c, 2, 64, 88
6, 70978, Note_off_c, 2, 64, 0
6, 70980, Note_on_c, 2, 61, 88
6, 71038, Note_off_c, 2, 61, 0
6, 71040, Note_on_c, 2, 66, 88
6, 71274, Note_off_c, 2, 66, 0
6, 71400, Note_on_c, 2, 62, 88
6, 71516, Note_off_c, 2, 62, 0
6, 71520, Note_on_c, 2, 61, 88
6, 71990, Note_off_c, 2, 61, 0
6, 72000, Note_on_c, 2, 59, 88
6, 72945, Note_off_c, 2, 59, 0
6, 72945, End_track
7, 0, Start_track
7, 0, Title_t, "Track 4"
7, 0, Program_c, 3, 6
7, 71580, Note_on_c, 3, 47, 88
7, 71638, Note_off_c, 3, 47, 0
7, 71640, Note_on_c, 3, 49, 88
7, 71698, Note_off_c, 3, 49, 0
7, 71700, Note_on_c, 3, 50, 88
7, 71758, Note_off_c, 3, 50, 0
7, 71760, Note_on_c, 3, 52, 88
7, 71818, Note_off_c, 3, 52, 0
7, 71820, Note_on_c, 3, 49, 88
7, 71878, Note_off_c, 3, 49, 0
7, 71880, Note_on_c, 3, 54, 88
7, 72945, Note_off_c, 3, 54, 0
7, 72945, End_track
8, 0, Start_track
8, 0, Title_t, "Track 5"
8, 0, Program_c, 4, 6
8, 7800, Note_on_c, 4, 54, 88
8, 7916, Note_off_c, 4, 54, 0
8, 7920, Note_on_c, 4, 50, 88
8, 8036, Note_off_c, 4, 50, 0
8, 8040, Note_on_c, 4, 47, 88
8, 8156, Note_off_c, 4, 47, 0
8, 8160, Note_on_c, 4, 55, 88
8, 8276, Note_off_c, 4, 55, 0
8, 8280, Note_on_c, 4, 54, 88
8, 8396, Note_off_c, 4, 54, 0
8, 8400, Note_on_c, 4, 59, 88
8, 8516, Note_off_c, 4, 59, 0
8, 8520, Note_on_c, 4, 58, 88
8, 8636, Note_off_c, 4, 58, 0
8, 8640, Note_on_c, 4, 52, 88
8, 8756, Note_off_c, 4, 52, 0
8, 8760, Note_on_c, 4, 51, 88
8, 8876, Note_off_c, 4, 51, 0
8, 8880, Note_on_c, 4, 60, 88
8, 8996, Note_off_c, 4, 60, 0
8, 9000, Note_on_c, 4, 59, 88
8, 9116, Note_off_c, 4, 59, 0
8, 9120, Note_on_c, 4, 54, 88
8, 9236, Note_off_c, 4, 54, 0
8, 9240, Note_on_c, 4, 53, 88
8, 9356, Note_off_c, 4, 53, 0
8, 9360, Note_on_c, 4, 62, 88
8, 9476, Note_off_c, 4, 62, 0
8, 9480, Note_on_c, 4, 61, 88
8, 9596, Note_off_c, 4, 61, 0
8, 9600, Note_on_c, 4, 60, 88
8, 9716, Note_off_c, 4, 60, 0
8, 9720, Note_on_c, 4, 61, 88
8, 9836, Note_off_c, 4, 61, 0
8, 9840, Note_on_c, 4, 57, 88
8, 9956, Note_off_c, 4, 57, 0
8, 9960, Note_on_c, 4, 54, 88
8, 10076, Note_off_c, 4, 54, 0
8, 10080, Note_on_c, 4, 56, 88
8, 10550, Note_off_c, 4, 56, 0
8, 10560, Note_on_c, 4, 54, 88
8, 10613, Note_off_c, 4, 54, 0
8, 10620, Note_on_c, 4, 54, 88
8, 10678, Note_off_c, 4, 54, 0
8, 10680, Note_on_c, 4, 55, 88
8, 10738, Note_off_c, 4, 55, 0
8, 10740, Note_on_c, 4, 57, 88
8, 10798, Note_off_c, 4, 57, 0
8, 10800, Note_on_c, 4, 59, 88
8, 10858, Note_off_c, 4, 59, 0
8, 10860, Note_on_c, 4, 60, 88
8, 10918, Note_off_c, 4, 60, 0
8, 10920, Note_on_c, 4, 52, 88
8, 10978, Note_off_c, 4, 52, 0
8, 10980, Note_on_c, 4, 51, 88
8, 11038, Note_off_c, 4, 51, 0
8, 11040, Note_on_c, 4, 52, 88
8, 11098, Note_off_c, 4, 52, 0
8, 11100, Note_on_c, 4, 54, 88
8, 11158, Note_off_c, 4, 54, 0
8, 11160, Note_on_c, 4, 55, 88
8, 11218, Note_off_c, 4, 55, 0
8, 11220, Note_on_c, 4, 52, 88
8, 11278, Note_off_c, 4, 52, 0
8, 11280, Note_on_c, 4, 58, 88
8, 11338, Note_off_c, 4, 58, 0
8, 11340, Note_on_c, 4, 59, 88
8, 11398, Note_off_c, 4, 59, 0
8, 11400, Note_on_c, 4, 50, 88
8, 11458, Note_off_c, 4, 50, 0
8, 11460, Note_on_c, 4, 49, 88
8, 11518, Note_off_c, 4, 49, 0
8, 11520, Note_on_c, 4, 50, 88
8, 11636, Note_off_c, 4, 50, 0
8, 11640, Note_on_c, 4, 47, 88
8, 11756, Note_off_c, 4, 47, 0
8, 11760, Note_on_c, 4, 54, 88
8, 12230, Note_off_c, 4, 54, 0
8, 12240, Note_on_c, 4, 54, 88
8, 12474, Note_off_c, 4, 54, 0
8, 12480, Note_on_c, 4, 52, 88
8, 12714, Note_off_c, 4, 52, 0
8, 12720, Note_on_c, 4, 50, 88
8, 12954, Note_off_c, 4, 50, 0
8, 12960, Note_on_c, 4, 49, 88
8, 13194, Note_off_c, 4, 49, 0
8, 13200, Note_on_c, 4, 47, 88
8, 13556, Note_off_c, 4, 47, 0
8, 13560, Note_on_c, 4, 46, 88
8, 13676, Note_off_c, 4, 46, 0
8, 13680, Note_on_c, 4, 47, 88
8, 13974, Note_off_c, 4, 47, 0
8, 13980, Note_on_c, 4, 49, 88
8, 14038, Note_off_c, 4, 49, 0
8, 14040, Note_on_c, 4, 50, 88
8, 14098, Note_off_c, 4, 50, 0
8, 14100, Note_on_c, 4, 52, 88
8, 14158, Note_off_c, 4, 52, 0
8, 14160, Note_on_c, 4, 54, 88
8, 14218, Note_off_c, 4, 54, 0
8, 14220, Note_on_c, 4, 55, 88
8, 14278, Note_off_c, 4, 55, 0
8, 14280, Note_on_c, 4, 47, 88
8, 14338, Note_off_c, 4, 47, 0
8, 14340, Note_on_c, 4, 46, 88
8, 14398, Note_off_c, 4, 46, 0
8, 14400, Note_on_c, 4, 50, 88
8, 14931, Note_off_c, 4, 50, 0
8, 14940, Note_on_c, 4, 46, 88
8, 14998, Note_off_c, 4, 46, 0
8, 15000, Note_on_c, 4, 47, 88
8, 15058, Note_off_c, 4, 47, 0
8, 15060, Note_on_c, 4, 49, 88
8, 15118, Note_off_c, 4, 49, 0
8, 15120, Note_on_c, 4, 50, 88
8, 15178, Note_off_c, 4, 50, 0
8, 15180, Note_on_c, 4, 52, 88
8, 15238, Note_off_c, 4, 52, 0
8, 15240, Note_on_c, 4, 42, 88
8, 15298, Note_off_c, 4, 42, 0
8, 15300, Note_on_c, 4, 41, 88
8, 15358, Note_off_c, 4, 41, 0
8, 15360, Note_on_c, 4, 42, 88
8, 15594, Note_off_c, 4, 42, 0
8, 15600, Note_on_c, 4, 54, 88
8, 15716, Note_off_c, 4, 54, 0
8, 15720, Note_on_c, 4, 57, 88
8, 15836, Note_off_c, 4, 57, 0
8, 15840, Note_on_c, 4, 59, 88
8, 15956, Note_off_c, 4, 59, 0
8, 15960, Note_on_c, 4, 50, 88
8, 16076, Note_off_c, 4, 50, 0
8, 16080, Note_on_c, 4, 52, 88
8, 16196, Note_off_c, 4, 52, 0
8, 16200, Note_on_c, 4, 56, 88
8, 16316, Note_off_c, 4, 56, 0
8, 16320, Note_on_c, 4, 57, 88
8, 16436, Note_off_c, 4, 57, 0
8, 16440, Note_on_c, 4, 49, 88
8, 16556, Note_off_c, 4, 49, 0
8, 16560, Note_on_c, 4, 50, 88
8, 16676, Note_off_c, 4, 50, 0
8, 16680, Note_on_c, 4, 54, 88
8, 16796, Note_off_c, 4, 54, 0
8, 16800, Note_on_c, 4, 56, 88
8, 16916, Note_off_c, 4, 56, 0
8, 16920, Note_on_c, 4, 47, 88
8, 17036, Note_off_c, 4, 47, 0
8, 17040, Note_on_c, 4, 49, 88
8, 17156, Note_off_c, 4, 49, 0
8, 17160, Note_on_c, 4, 53, 88
8, 17276, Note_off_c, 4, 53, 0
8, 17280, Note_on_c, 4, 54, 88
8, 17396, Note_off_c, 4, 54, 0
8, 17400, Note_on_c, 4, 45, 88
8, 17516, Note_off_c, 4, 45, 0
8, 17520, Note_on_c, 4, 47, 88
8, 17636, Note_off_c, 4, 47, 0
8, 17640, Note_on_c, 4, 50, 88
8, 17756, Note_off_c, 4, 50, 0
8, 17760, Note_on_c, 4, 52, 88
8, 17876, Note_off_c, 4, 52, 0
8, 17880, Note_on_c, 4, 43, 88
8, 17996, Note_off_c, 4, 43, 0
8, 18000, Note_on_c, 4, 45, 88
8, 18116, Note_off_c, 4, 45, 0
8, 18120, Note_on_c, 4, 49, 88
8, 18236, Note_off_c, 4, 49, 0
8, 18240, Note_on_c, 4, 50, 88
8, 18356, Note_off_c, 4, 50, 0
8, 18360, Note_on_c, 4, 42, 88
8, 18476, Note_off_c, 4, 42, 0
8, 18480, Note_on_c, 4, 43, 88
8, 18596, Note_off_c, 4, 43, 0
8, 18600, Note_on_c, 4, 47, 88
8, 18716, Note_off_c, 4, 47, 0
8, 18720, Note_on_c, 4, 49, 88
8, 18836, Note_off_c, 4, 49, 0
8, 18840, Note_on_c, 4, 40, 88
8, 18956, Note_off_c, 4, 40, 0
8, 18960, Note_on_c, 4, 42, 88
8, 19076, Note_off_c, 4, 42, 0
8, 19080, Note_on_c, 4, 46, 88
8, 19196, Note_off_c, 4, 46, 0
8, 19200, Note_on_c, 4, 47, 88
8, 19494, Note_off_c, 4, 47, 0
8, 19500, Note_on_c, 4, 49, 88
8, 19558, Note_off_c, 4, 49, 0
8, 19560, Note_on_c, 4, 50, 88
8, 19618, Note_off_c, 4, 50, 0
8, 19620, Note_on_c, 4, 54, 88
8, 19678, Note_off_c, 4, 54, 0
8, 19680, Note_on_c, 4, 52, 88
8, 19738, Note_off_c, 4, 52, 0
8, 19740, Note_on_c, 4, 49, 88
8, 19798, Note_off_c, 4, 49, 0
8, 19800, Note_on_c, 4, 50, 88
8, 19858, Note_off_c, 4, 50, 0
8, 19860, Note_on_c, 4, 54, 88
8, 19918, Note_off_c, 4, 54, 0
8, 19920, Note_on_c, 4, 55, 88
8, 19978, Note_off_c, 4, 55, 0
8, 19980, Note_on_c, 4, 52, 88
8, 20038, Note_off_c, 4, 52, 0
8, 20040, Note_on_c, 4, 54, 88
8, 20098, Note_off_c, 4, 54, 0
8, 20100, Note_on_c, 4, 58, 88
8, 20158, Note_off_c, 4, 58, 0
8, 20160, Note_on_c, 4, 59, 88
8, 20218, Note_off_c, 4, 59, 0
8, 20220, Note_on_c, 4, 55, 88
8, 20278, Note_off_c, 4, 55, 0
8, 20280, Note_on_c, 4, 54, 88
8, 20338, Note_off_c, 4, 54, 0
8, 20340, Note_on_c, 4, 52, 88
8, 20398, Note_off_c, 4, 52, 0
8, 20400, Note_on_c, 4, 51, 88
8, 20575, Note_off_c, 4, 51, 0
8, 20580, Note_on_c, 4, 49, 88
8, 20638, Note_off_c, 4, 49, 0
8, 20640, Note_on_c, 4, 50, 88
8, 20698, Note_off_c, 4, 50, 0
8, 20700, Note_on_c, 4, 52, 88
8, 20758, Note_off_c, 4, 52, 0
8, 20760, Note_on_c, 4, 50, 88
8, 20818, Note_off_c, 4, 50, 0
8, 20820, Note_on_c, 4, 49, 88
8, 20878, Note_off_c, 4, 49, 0
8, 20880, Note_on_c, 4, 47, 88
8, 20938, Note_off_c, 4, 47, 0
8, 20940, Note_on_c, 4, 45, 88
8, 20998, Note_off_c, 4, 45, 0
8, 21000, Note_on_c, 4, 44, 88
8, 21058, Note_off_c, 4, 44, 0
8, 21060, Note_on_c, 4, 42, 88
8, 21118, Note_off_c, 4, 42, 0
8, 21120, Note_on_c, 4, 44, 88
8, 21178, Note_off_c, 4, 44, 0
8, 21180, Note_on_c, 4, 47, 88
8, 21238, Note_off_c, 4, 47, 0
8, 21240, Note_on_c, 4, 45, 88
8, 21298, Note_off_c, 4, 45, 0
8, 21300, Note_on_c, 4, 44, 88
8, 21358, Note_off_c, 4, 44, 0
8, 21360, Note_on_c, 4, 42, 88
8, 21418, Note_off_c, 4, 42, 0
8, 21420, Note_on_c, 4, 45, 88
8, 21478, Note_off_c, 4, 45, 0
8, 21480, Note_on_c, 4, 50, 88
8, 21538, Note_off_c, 4, 50, 0
8, 21540, Note_on_c, 4, 49, 88
8, 21598, Note_off_c, 4, 49, 0
8, 21600, Note_on_c, 4, 47, 88
8, 21716, Note_off_c, 4, 47, 0
8, 21720, Note_on_c, 4, 44, 88
8, 21836, Note_off_c, 4, 44, 0
8, 21840, Note_on_c, 4, 49, 88
8, 21956, Note_off_c, 4, 49, 0
8, 21960, Note_on_c, 4, 37, 88
8, 22076, Note_off_c, 4, 37, 0
8, 22080, Note_on_c, 4, 54, 88
8, 22138, Note_off_c, 4, 54, 0
8, 22140, Note_on_c, 4, 55, 88
8, 22198, Note_off_c, 4, 55, 0
8, 22200, Note_on_c, 4, 57, 88
8, 22258, Note_off_c, 4, 57, 0
8, 22260, Note_on_c, 4, 59, 88
8, 22318, Note_off_c, 4, 59, 0
8, 22320, Note_on_c, 4, 60, 88
8, 22378, Note_off_c, 4, 60, 0
8, 22380, Note_on_c, 4, 62, 88
8, 22438, Note_off_c, 4, 62, 0
8, 22440, Note_on_c, 4, 52, 88
8, 22498, Note_off_c, 4, 52, 0
8, 22500, Note_on_c, 4, 51, 88
8, 22558, Note_off_c, 4, 51, 0
8, 22560, Note_on_c, 4, 55, 88
8, 23098, Note_off_c, 4, 55, 0
8, 23100, Note_on_c, 4, 47, 88
8, 23158, Note_off_c, 4, 47, 0
8, 23160, Note_on_c, 4, 49, 88
8, 23218, Note_off_c, 4, 49, 0
8, 23220, Note_on_c, 4, 50, 88
8, 23278, Note_off_c, 4, 50, 0
8, 23280, Note_on_c, 4, 52, 88
8, 23338, Note_off_c, 4, 52, 0
8, 23340, Note_on_c, 4, 54, 88
8, 23398, Note_off_c, 4, 54, 0
8, 23400, Note_on_c, 4, 47, 88
8, 23458, Note_off_c, 4, 47, 0
8, 23460, Note_on_c, 4, 46, 88
8, 23518, Note_off_c, 4, 46, 0
8, 23520, Note_on_c, 4, 47, 88
8, 24116, Note_off_c, 4, 47, 0
8, 24120, Note_on_c, 4, 46, 88
8, 24236, Note_off_c, 4, 46, 0
8, 24240, Note_on_c, 4, 47, 88
8, 24356, Note_off_c, 4, 47, 0
8, 24360, Note_on_c, 4, 50, 88
8, 24476, Note_off_c, 4, 50, 0
8, 24480, Note_on_c, 4, 52, 88
8, 24596, Note_off_c, 4, 52, 0
8, 24600, Note_on_c, 4, 43, 88
8, 24716, Note_off_c, 4, 43, 0
8, 24720, Note_on_c, 4, 45, 88
8, 24836, Note_off_c, 4, 45, 0
8, 24840, Note_on_c, 4, 49, 88
8, 24956, Note_off_c, 4, 49, 0
8, 24960, Note_on_c, 4, 50, 88
8, 25076, Note_off_c, 4, 50, 0
8, 25080, Note_on_c, 4, 42, 88
8, 25196, Note_off_c, 4, 42, 0
8, 25200, Note_on_c, 4, 43, 88
8, 25316, Note_off_c, 4, 43, 0
8, 25320, Note_on_c, 4, 47, 88
8, 25436, Note_off_c, 4, 47, 0
8, 25440, Note_on_c, 4, 49, 88
8, 25556, Note_off_c, 4, 49, 0
8, 25560, Note_on_c, 4, 40, 88
8, 25676, Note_off_c, 4, 40, 0
8, 25680, Note_on_c, 4, 42, 88
8, 25796, Note_off_c, 4, 42, 0
8, 25800, Note_on_c, 4, 46, 88
8, 25916, Note_off_c, 4, 46, 0
8, 25920, Note_on_c, 4, 47, 88
8, 26036, Note_off_c, 4, 47, 0
8, 26040, Note_on_c, 4, 50, 88
8, 26156, Note_off_c, 4, 50, 0
8, 26160, Note_on_c, 4, 52, 88
8, 26276, Note_off_c, 4, 52, 0
8, 26280, Note_on_c, 4, 55, 88
8, 26396, Note_off_c, 4, 55, 0
8, 26400, Note_on_c, 4, 57, 88
8, 26516, Note_off_c, 4, 57, 0
8, 26520, Note_on_c, 4, 60, 88
8, 26636, Note_off_c, 4, 60, 0
8, 26640, Note_on_c, 4, 62, 88
8, 26756, Note_off_c, 4, 62, 0
8, 26760, Note_on_c, 4, 54, 88
8, 26876, Note_off_c, 4, 54, 0
8, 26880, Note_on_c, 4, 55, 88
8, 26996, Note_off_c, 4, 55, 0
8, 27000, Note_on_c, 4, 59, 88
8, 27116, Note_off_c, 4, 59, 0
8, 27120, Note_on_c, 4, 60, 88
8, 27236, Note_off_c, 4, 60, 0
8, 27240, Note_on_c, 4, 52, 88
8, 27356, Note_off_c, 4, 52, 0
8, 27360, Note_on_c, 4, 54, 88
8, 27476, Note_off_c, 4, 54, 0
8, 27480, Note_on_c, 4, 57, 88
8, 27596, Note_off_c, 4, 57, 0
8, 27600, Note_on_c, 4, 59, 88
8, 27716, Note_off_c, 4, 59, 0
8, 27720, Note_on_c, 4, 51, 88
8, 27836, Note_off_c, 4, 51, 0
8, 27840, Note_on_c, 4, 52, 88
8, 28074, Note_off_c, 4, 52, 0
8, 35640, Note_on_c, 4, 52, 88
8, 35756, Note_off_c, 4, 52, 0
8, 35760, Note_on_c, 4, 50, 88
8, 35876, Note_off_c, 4, 50, 0
8, 35880, Note_on_c, 4, 47, 88
8, 35996, Note_off_c, 4, 47, 0
8, 36000, Note_on_c, 4, 55, 88
8, 36116, Note_off_c, 4, 55, 0
8, 36120, Note_on_c, 4, 54, 88
8, 36236, Note_off_c, 4, 54, 0
8, 36240, Note_on_c, 4, 59, 88
8, 36356, Note_off_c, 4, 59, 0
8, 36360, Note_on_c, 4, 58, 88
8, 36476, Note_off_c, 4, 58, 0
8, 36480, Note_on_c, 4, 52, 88
8, 36596, Note_off_c, 4, 52, 0
8, 36600, Note_on_c, 4, 51, 88
8, 36716, Note_off_c, 4, 51, 0
8, 36720, Note_on_c, 4, 60, 88
8, 36836, Note_off_c, 4, 60, 0
8, 36840, Note_on_c, 4, 59, 88
8, 36956, Note_off_c, 4, 59, 0
8, 36960, Note_on_c, 4, 54, 88
8, 37076, Note_off_c, 4, 54, 0
8, 37080, Note_on_c, 4, 53, 88
8, 37196, Note_off_c, 4, 53, 0
8, 37200, Note_on_c, 4, 62, 88
8, 37316, Note_off_c, 4, 62, 0
8, 37320, Note_on_c, 4, 61, 88
8, 37436, Note_off_c, 4, 61, 0
8, 37440, Note_on_c, 4, 60, 88
8, 37556, Note_off_c, 4, 60, 0
8, 37560, Note_on_c, 4, 61, 88
8, 37676, Note_off_c, 4, 61, 0
8, 37680, Note_on_c, 4, 57, 88
8, 37796, Note_off_c, 4, 57, 0
8, 37800, Note_on_c, 4, 54, 88
8, 37916, Note_off_c, 4, 54, 0
8, 37920, Note_on_c, 4, 56, 88
8, 38390, Note_off_c, 4, 56, 0
8, 38400, Note_on_c, 4, 54, 88
8, 38458, Note_off_c, 4, 54, 0
8, 38460, Note_on_c, 4, 52, 88
8, 38518, Note_off_c, 4, 52, 0
8, 38520, Note_on_c, 4, 50, 88
8, 38578, Note_off_c, 4, 50, 0
8, 38580, Note_on_c, 4, 49, 88
8, 38638, Note_off_c, 4, 49, 0
8, 38640, Note_on_c, 4, 47, 88
8, 38698, Note_off_c, 4, 47, 0
8, 38700, Note_on_c, 4, 49, 88
8, 38758, Note_off_c, 4, 49, 0
8, 38760, Note_on_c, 4, 50, 88
8, 38818, Note_off_c, 4, 50, 0
8, 38820, Note_on_c, 4, 54, 88
8, 38878, Note_off_c, 4, 54, 0
8, 38880, Note_on_c, 4, 52, 88
8, 38938, Note_off_c, 4, 52, 0
8, 38940, Note_on_c, 4, 49, 88
8, 38998, Note_off_c, 4, 49, 0
8, 39000, Note_on_c, 4, 50, 88
8, 39058, Note_off_c, 4, 50, 0
8, 39060, Note_on_c, 4, 54, 88
8, 39118, Note_off_c, 4, 54, 0
8, 39120, Note_on_c, 4, 55, 88
8, 39178, Note_off_c, 4, 55, 0
8, 39180, Note_on_c, 4, 52, 88
8, 39238, Note_off_c, 4, 52, 0
8, 39240, Note_on_c, 4, 54, 88
8, 39298, Note_off_c, 4, 54, 0
8, 39300, Note_on_c, 4, 58, 88
8, 39358, Note_off_c, 4, 58, 0
8, 39360, Note_on_c, 4, 59, 88
8, 39418, Note_off_c, 4, 59, 0
8, 39420, Note_on_c, 4, 57, 88
8, 39478, Note_off_c, 4, 57, 0
8, 39480, Note_on_c, 4, 55, 88
8, 39538, Note_off_c, 4, 55, 0
8, 39540, Note_on_c, 4, 54, 88
8, 39598, Note_off_c, 4, 54, 0
8, 39600, Note_on_c, 4, 52, 88
8, 39658, Note_off_c, 4, 52, 0
8, 39660, Note_on_c, 4, 54, 88
8, 39718, Note_off_c, 4, 54, 0
8, 39720, Note_on_c, 4, 55, 88
8, 39778, Note_off_c, 4, 55, 0
8, 39780, Note_on_c, 4, 59, 88
8, 39838, Note_off_c, 4, 59, 0
8, 39840, Note_on_c, 4, 57, 88
8, 39898, Note_off_c, 4, 57, 0
8, 39900, Note_on_c, 4, 54, 88
8, 39958, Note_off_c, 4, 54, 0
8, 39960, Note_on_c, 4, 55, 88
8, 40018, Note_off_c, 4, 55, 0
8, 40020, Note_on_c, 4, 59, 88
8, 40078, Note_off_c, 4, 59, 0
8, 40080, Note_on_c, 4, 60, 88
8, 40138, Note_off_c, 4, 60, 0
8, 40140, Note_on_c, 4, 57, 88
8, 40198, Note_off_c, 4, 57, 0
8, 40200, Note_on_c, 4, 59, 88
8, 40258, Note_off_c, 4, 59, 0
8, 40260, Note_on_c, 4, 63, 88
8, 40318, Note_off_c, 4, 63, 0
8, 40320, Note_on_c, 4, 64, 88
8, 40436, Note_off_c, 4, 64, 0
8, 40440, Note_on_c, 4, 52, 88
8, 40556, Note_off_c, 4, 52, 0
8, 40560, Note_on_c, 4, 49, 88
8, 40676, Note_off_c, 4, 49, 0
8, 40680, Note_on_c, 4, 45, 88
8, 40796, Note_off_c, 4, 45, 0
8, 40800, Note_on_c, 4, 54, 88
8, 40916, Note_off_c, 4, 54, 0
8, 40920, Note_on_c, 4, 52, 88
8, 41036, Note_off_c, 4, 52, 0
8, 41040, Note_on_c, 4, 57, 88
8, 41156, Note_off_c, 4, 57, 0
8, 41160, Note_on_c, 4, 56, 88
8, 41276, Note_off_c, 4, 56, 0
8, 41280, Note_on_c, 4, 50, 88
8, 41396, Note_off_c, 4, 50, 0
8, 41400, Note_on_c, 4, 49, 88
8, 41516, Note_off_c, 4, 49, 0
8, 41520, Note_on_c, 4, 50, 88
8, 42474, Note_off_c, 4, 50, 0
8, 44760, Note_on_c, 4, 50, 88
8, 44876, Note_off_c, 4, 50, 0
8, 44880, Note_on_c, 4, 49, 88
8, 44996, Note_off_c, 4, 49, 0
8, 45000, Note_on_c, 4, 45, 88
8, 45116, Note_off_c, 4, 45, 0
8, 45120, Note_on_c, 4, 54, 88
8, 45236, Note_off_c, 4, 54, 0
8, 45240, Note_on_c, 4, 50, 88
8, 45356, Note_off_c, 4, 50, 0
8, 45360, Note_on_c, 4, 55, 88
8, 45476, Note_off_c, 4, 55, 0
8, 45480, Note_on_c, 4, 54, 88
8, 45596, Note_off_c, 4, 54, 0
8, 45600, Note_on_c, 4, 48, 88
8, 45716, Note_off_c, 4, 48, 0
8, 45720, Note_on_c, 4, 47, 88
8, 45836, Note_off_c, 4, 47, 0
8, 45840, Note_on_c, 4, 57, 88
8, 45956, Note_off_c, 4, 57, 0
8, 45960, Note_on_c, 4, 56, 88
8, 46076, Note_off_c, 4, 56, 0
8, 46080, Note_on_c, 4, 50, 88
8, 46196, Note_off_c, 4, 50, 0
8, 46200, Note_on_c, 4, 49, 88
8, 46316, Note_off_c, 4, 49, 0
8, 46320, Note_on_c, 4, 58, 88
8, 46436, Note_off_c, 4, 58, 0
8, 46440, Note_on_c, 4, 57, 88
8, 46556, Note_off_c, 4, 57, 0
8, 46560, Note_on_c, 4, 56, 88
8, 46676, Note_off_c, 4, 56, 0
8, 46680, Note_on_c, 4, 57, 88
8, 46796, Note_off_c, 4, 57, 0
8, 46800, Note_on_c, 4, 54, 88
8, 46916, Note_off_c, 4, 54, 0
8, 46920, Note_on_c, 4, 50, 88
8, 47036, Note_off_c, 4, 50, 0
8, 47040, Note_on_c, 4, 52, 88
8, 47510, Note_off_c, 4, 52, 0
8, 47520, Note_on_c, 4, 50, 88
8, 47754, Note_off_c, 4, 50, 0
8, 47880, Note_on_c, 4, 47, 88
8, 47996, Note_off_c, 4, 47, 0
8, 48000, Note_on_c, 4, 45, 88
8, 48234, Note_off_c, 4, 45, 0
8, 48360, Note_on_c, 4, 54, 88
8, 48476, Note_off_c, 4, 54, 0
8, 48480, Note_on_c, 4, 52, 88
8, 48714, Note_off_c, 4, 52, 0
8, 48840, Note_on_c, 4, 49, 88
8, 48956, Note_off_c, 4, 49, 0
8, 48960, Note_on_c, 4, 47, 88
8, 49018, Note_off_c, 4, 47, 0
8, 49020, Note_on_c, 4, 42, 88
8, 49078, Note_off_c, 4, 42, 0
8, 49080, Note_on_c, 4, 44, 88
8, 49138, Note_off_c, 4, 44, 0
8, 49140, Note_on_c, 4, 45, 88
8, 49198, Note_off_c, 4, 45, 0
8, 49200, Note_on_c, 4, 47, 88
8, 49258, Note_off_c, 4, 47, 0
8, 49260, Note_on_c, 4, 49, 88
8, 49318, Note_off_c, 4, 49, 0
8, 49320, Note_on_c, 4, 42, 88
8, 49378, Note_off_c, 4, 42, 0
8, 49380, Note_on_c, 4, 41, 88
8, 49438, Note_off_c, 4, 41, 0
8, 49440, Note_on_c, 4, 45, 88
8, 50154, Note_off_c, 4, 45, 0
8, 50160, Note_on_c, 4, 44, 88
8, 50394, Note_off_c, 4, 44, 0
8, 50400, Note_on_c, 4, 42, 88
8, 50516, Note_off_c, 4, 42, 0
8, 54360, Note_on_c, 4, 47, 88
8, 54476, Note_off_c, 4, 47, 0
8, 54480, Note_on_c, 4, 44, 88
8, 54596, Note_off_c, 4, 44, 0
8, 54600, Note_on_c, 4, 40, 88
8, 54716, Note_off_c, 4, 40, 0
8, 54720, Note_on_c, 4, 49, 88
8, 54836, Note_off_c, 4, 49, 0
8, 54840, Note_on_c, 4, 47, 88
8, 54956, Note_off_c, 4, 47, 0
8, 54960, Note_on_c, 4, 52, 88
8, 55076, Note_off_c, 4, 52, 0
8, 55080, Note_on_c, 4, 51, 88
8, 55196, Note_off_c, 4, 51, 0
8, 55200, Note_on_c, 4, 45, 88
8, 55316, Note_off_c, 4, 45, 0
8, 55320, Note_on_c, 4, 44, 88
8, 55436, Note_off_c, 4, 44, 0
8, 55440, Note_on_c, 4, 53, 88
8, 55556, Note_off_c, 4, 53, 0
8, 55560, Note_on_c, 4, 52, 88
8, 55676, Note_off_c, 4, 52, 0
8, 55680, Note_on_c, 4, 47, 88
8, 55796, Note_off_c, 4, 47, 0
8, 55800, Note_on_c, 4, 46, 88
8, 55916, Note_off_c, 4, 46, 0
8, 55920, Note_on_c, 4, 55, 88
8, 56036, Note_off_c, 4, 55, 0
8, 56040, Note_on_c, 4, 54, 88
8, 56156, Note_off_c, 4, 54, 0
8, 56160, Note_on_c, 4, 53, 88
8, 56276, Note_off_c, 4, 53, 0
8, 56280, Note_on_c, 4, 54, 88
8, 56396, Note_off_c, 4, 54, 0
8, 56400, Note_on_c, 4, 50, 88
8, 56516, Note_off_c, 4, 50, 0
8, 56520, Note_on_c, 4, 47, 88
8, 56636, Note_off_c, 4, 47, 0
8, 56640, Note_on_c, 4, 49, 88
8, 57110, Note_off_c, 4, 49, 0
8, 57120, Note_on_c, 4, 47, 88
8, 57236, Note_off_c, 4, 47, 0
8, 66360, Note_on_c, 4, 47, 88
8, 66476, Note_off_c, 4, 47, 0
8, 66480, Note_on_c, 4, 43, 88
8, 66596, Note_off_c, 4, 43, 0
8, 66600, Note_on_c, 4, 40, 88
8, 66716, Note_off_c, 4, 40, 0
8, 66720, Note_on_c, 4, 48, 88
8, 66836, Note_off_c, 4, 48, 0
8, 66840, Note_on_c, 4, 47, 88
8, 66956, Note_off_c, 4, 47, 0
8, 66960, Note_on_c, 4, 52, 88
8, 67076, Note_off_c, 4, 52, 0
8, 67080, Note_on_c, 4, 51, 88
8, 67196, Note_off_c, 4, 51, 0
8, 67200, Note_on_c, 4, 45, 88
8, 67316, Note_off_c, 4, 45, 0
8, 67320, Note_on_c, 4, 44, 88
8, 67436, Note_off_c, 4, 44, 0
8, 67440, Note_on_c, 4, 53, 88
8, 67556, Note_off_c, 4, 53, 0
8, 67560, Note_on_c, 4, 52, 88
8, 67676, Note_off_c, 4, 52, 0
8, 67680, Note_on_c, 4, 47, 88
8, 67796, Note_off_c, 4, 47, 0
8, 67800, Note_on_c, 4, 46, 88
8, 67916, Note_off_c, 4, 46, 0
8, 67920, Note_on_c, 4, 55, 88
8, 68036, Note_off_c, 4, 55, 0
8, 68040, Note_on_c, 4, 54, 88
8, 68156, Note_off_c, 4, 54, 0
8, 68160, Note_on_c, 4, 53, 88
8, 68276, Note_off_c, 4, 53, 0
8, 68280, Note_on_c, 4, 54, 88
8, 68396, Note_off_c, 4, 54, 0
8, 68400, Note_on_c, 4, 50, 88
8, 68516, Note_off_c, 4, 50, 0
8, 68520, Note_on_c, 4, 47, 88
8, 68636, Note_off_c, 4, 47, 0
8, 68640, Note_on_c, 4, 49, 88
8, 69110, Note_off_c, 4, 49, 0
8, 69120, Note_on_c, 4, 50, 88
8, 69354, Note_off_c, 4, 50, 0
8, 69480, Note_on_c, 4, 51, 88
8, 69596, Note_off_c, 4, 51, 0
8, 69600, Note_on_c, 4, 52, 88
8, 69834, Note_off_c, 4, 52, 0
8, 69960, Note_on_c, 4, 53, 88
8, 70076, Note_off_c, 4, 53, 0
8, 70080, Note_on_c, 4, 54, 88
8, 71098, Note_off_c, 4, 54, 0
8, 71100, Note_on_c, 4, 46, 88
8, 71158, Note_off_c, 4, 46, 0
8, 71160, Note_on_c, 4, 47, 88
8, 71218, Note_off_c, 4, 47, 0
8, 71220, Note_on_c, 4, 49, 88
8, 71278, Note_off_c, 4, 49, 0
8, 71280, Note_on_c, 4, 51, 88
8, 71338, Note_off_c, 4, 51, 0
8, 71340, Note_on_c, 4, 53, 88
8, 71398, Note_off_c, 4, 53, 0
8, 71400, Note_on_c, 4, 42, 88
8, 71458, Note_off_c, 4, 42, 0
8, 71460, Note_on_c, 4, 41, 88
8, 71518, Note_off_c, 4, 41, 0
8, 71520, Note_on_c, 4, 42, 88
8, 71990, Note_off_c, 4, 42, 0
8, 72000, Note_on_c, 4, 47, 88
8, 72945, Note_off_c, 4, 47, 0
8, 72945, End_track
0, 0, End_of_file
