0, 0, Header, 1, 7, 240
1, 0, Start_track
1, 0, Time_signature, 2, 2, 24, 8
1, 0, Tempo, 810810
1, 0, SMPTE_offset, 64, 0, 0, 0, 93
1, 0, End_track
2, 0, Start_track
2, 0, Title_t, "(C) & (P) 1993"
2, 127, End_track
3, 0, Start_track
3, 0, Title_t, "CCARH,Stanford"
3, 0, End_track
4, 0, Start_track
4, 0, Title_t, "Track 1"
4, 0, Program_c, 0, 6
4, 2040, Note_on_c, 0, 72, 88
4, 2098, Note_off_c, 0, 72, 0
4, 2100, Note_on_c, 0, 71, 88
4, 2158, Note_off_c, 0, 71, 0
4, 2160, Note_on_c, 0, 72, 88
4, 2276, Note_off_c, 0, 72, 0
4, 2280, Note_on_c, 0, 67, 88
4, 2396, Note_off_c, 0, 67, 0
4, 2400, Note_on_c, 0, 76, 88
4, 2422, Note_off_c, 0, 76, 0
4, 2423, Note_on_c, 0, 74, 88
4, 2452, Note_off_c, 0, 74, 0
4, 2453, Note_on_c, 0, 76, 88
4, 2635, Note_off_c, 0, 76, 0
4, 2640, Note_on_c, 0, 74, 88
4, 2874, Note_off_c, 0, 74, 0
4, 3000, Note_on_c, 0, 72, 88
4, 3058, Note_off_c, 0, 72, 0
4, 3060, Note_on_c, 0, 71, 88
4, 3118, Note_off_c, 0, 71, 0
4, 3120, Note_on_c, 0, 72, 88
4, 3178, Note_off_c, 0, 72, 0
4, 3180, Note_on_c, 0, 74, 88
4, 3238, Note_off_c, 0, 74, 0
4, 3240, Note_on_c, 0, 71, 88
4, 3298, Note_off_c, 0, 71, 0
4, 3300, Note_on_c, 0, 72, 88
4, 3358, Note_off_c, 0, 72, 0
4, 3360, Note_on_c, 0, 69, 88
4, 3418, Note_off_c, 0, 69, 0
4, 3420, Note_on_c, 0, 72, 88
4, 3478, Note_off_c, 0, 72, 0
4, 3480, Note_on_c, 0, 71, 88
4, 3538, Note_off_c, 0, 71, 0
4, 3540, Note_on_c, 0, 72, 88
4, 3598, Note_off_c, 0, 72, 0
4, 3600, Note_on_c, 0, 74, 88
4, 3658, Note_off_c, 0, 74, 0
4, 3660, Note_on_c, 0, 76, 88
4, 3718, Note_off_c, 0, 76, 0
4, 3720, Note_on_c, 0, 72, 88
4, 3778, Note_off_c, 0, 72, 0
4, 3780, Note_on_c, 0, 74, 88
4, 3838, Note_off_c, 0, 74, 0
4, 3840, Note_on_c, 0, 71, 88
4, 3898, Note_off_c, 0, 71, 0
4, 3900, Note_on_c, 0, 69, 88
4, 3958, Note_off_c, 0, 69, 0
4, 3960, Note_on_c, 0, 71, 88
4, 4018, Note_off_c, 0, 71, 0
4, 4020, Note_on_c, 0, 72, 88
4, 4078, Note_off_c, 0, 72, 0
4, 4080, Note_on_c, 0, 71, 88
4, 4138, Note_off_c, 0, 71, 0
4, 4140, Note_on_c, 0, 72, 88
4, 4198, Note_off_c, 0, 72, 0
4, 4200, Note_on_c, 0, 69, 88
4, 4258, Note_off_c, 0, 69, 0
4, 4260, Note_on_c, 0, 71, 88
4, 4318, Note_off_c, 0, 71, 0
4, 4320, Note_on_c, 0, 72, 88
4, 4495, Note_off_c, 0, 72, 0
4, 4500, Note_on_c, 0, 69, 88
4, 4558, Note_off_c, 0, 69, 0
4, 4560, Note_on_c, 0, 70, 88
4, 4735, Note_off_c, 0, 70, 0
4, 4740, Note_on_c, 0, 67, 88
4, 4798, Note_off_c, 0, 67, 0
4, 4800, Note_on_c, 0, 69, 88
4, 5034, Note_off_c, 0, 69, 0
4, 5040, Note_on_c, 0, 71, 88
4, 5156, Note_off_c, 0, 71, 0
4, 5160, Note_on_c, 0, 72, 88
4, 5385, Note_off_c, 0, 72, 0
4, 5400, Note_on_c, 0, 72, 88
4, 5634, Note_off_c, 0, 72, 0
4, 5640, Note_on_c, 0, 71, 88
4, 5756, Note_off_c, 0, 71, 0
4, 5760, Note_on_c, 0, 72, 88
4, 5876, Note_off_c, 0, 72, 0
4, 5880, Note_on_c, 0, 79, 88
4, 5938, Note_off_c, 0, 79, 0
4, 5940, Note_on_c, 0, 77, 88
4, 5998, Note_off_c, 0, 77, 0
4, 6000, Note_on_c, 0, 79, 88
4, 6116, Note_off_c, 0, 79, 0
4, 6120, Note_on_c, 0, 72, 88
4, 6236, Note_off_c, 0, 72, 0
4, 6240, Note_on_c, 0, 81, 88
4, 6474, Note_off_c, 0, 81, 0
4, 6480, Note_on_c, 0, 79, 88
4, 6714, Note_off_c, 0, 79, 0
4, 6720, Note_on_c, 0, 78, 88
4, 6836, Note_off_c, 0, 78, 0
4, 6840, Note_on_c, 0, 81, 88
4, 6898, Note_off_c, 0, 81, 0
4, 6900, Note_on_c, 0, 79, 88
4, 6958, Note_off_c, 0, 79, 0
4, 6960, Note_on_c, 0, 81, 88
4, 7076, Note_off_c, 0, 81, 0
4, 7080, Note_on_c, 0, 74, 88
4, 7196, Note_off_c, 0, 74, 0
4, 7200, Note_on_c, 0, 83, 88
4, 7434, Note_off_c, 0, 83, 0
4, 7440, Note_on_c, 0, 81, 88
4, 7674, Note_off_c, 0, 81, 0
4, 7680, Note_on_c, 0, 80, 88
4, 7796, Note_off_c, 0, 80, 0
4, 7800, Note_on_c, 0, 83, 88
4, 7858, Note_off_c, 0, 83, 0
4, 7860, Note_on_c, 0, 81, 88
4, 7918, Note_off_c, 0, 81, 0
4, 7920, Note_on_c, 0, 83, 88
4, 8036, Note_off_c, 0, 83, 0
4, 8040, Note_on_c, 0, 76, 88
4, 8156, Note_off_c, 0, 76, 0
4, 8160, Note_on_c, 0, 84, 88
4, 8745, Note_off_c, 0, 84, 0
4, 8760, Note_on_c, 0, 84, 88
4, 8876, Note_off_c, 0, 84, 0
4, 8880, Note_on_c, 0, 83, 88
4, 8996, Note_off_c, 0, 83, 0
4, 9000, Note_on_c, 0, 79, 88
4, 9116, Note_off_c, 0, 79, 0
4, 9120, Note_on_c, 0, 76, 88
4, 9354, Note_off_c, 0, 76, 0
4, 9360, Note_on_c, 0, 78, 88
4, 9476, Note_off_c, 0, 78, 0
4, 9480, Note_on_c, 0, 79, 88
4, 9716, Note_off_c, 0, 79, 0
4, 9720, Note_on_c, 0, 78, 88
4, 9778, Note_off_c, 0, 78, 0
4, 9780, Note_on_c, 0, 76, 88
4, 9838, Note_off_c, 0, 76, 0
4, 9840, Note_on_c, 0, 79, 88
4, 9855, Note_on_c, 0, 78, 88
4, 9855, Note_off_c, 0, 79, 0
4, 9877, Note_off_c, 0, 78, 0
4, 9878, Note_on_c, 0, 79, 88
4, 9899, Note_off_c, 0, 79, 0
4, 9900, Note_on_c, 0, 78, 88
4, 9915, Note_off_c, 0, 78, 0
4, 9915, Note_on_c, 0, 79, 88
4, 9930, Note_on_c, 0, 78, 88
4, 9930, Note_off_c, 0, 79, 0
4, 10017, Note_off_c, 0, 78, 0
4, 10020, Note_on_c, 0, 79, 88
4, 10078, Note_off_c, 0, 79, 0
4, 10080, Note_on_c, 0, 79, 88
4, 10196, Note_off_c, 0, 79, 0
4, 10200, Note_on_c, 0, 76, 88
4, 10316, Note_off_c, 0, 76, 0
4, 10320, Note_on_c, 0, 73, 88
4, 10436, Note_off_c, 0, 73, 0
4, 10440, Note_on_c, 0, 74, 88
4, 10618, Note_off_c, 0, 74, 0
4, 10620, Note_on_c, 0, 79, 88
4, 10678, Note_off_c, 0, 79, 0
4, 10680, Note_on_c, 0, 82, 88
4, 10738, Note_off_c, 0, 82, 0
4, 10740, Note_on_c, 0, 81, 88
4, 10798, Note_off_c, 0, 81, 0
4, 10800, Note_on_c, 0, 79, 88
4, 10858, Note_off_c, 0, 79, 0
4, 10860, Note_on_c, 0, 77, 88
4, 10918, Note_off_c, 0, 77, 0
4, 10920, Note_on_c, 0, 76, 88
4, 10978, Note_off_c, 0, 76, 0
4, 10980, Note_on_c, 0, 74, 88
4, 11038, Note_off_c, 0, 74, 0
4, 11040, Note_on_c, 0, 73, 88
4, 11156, Note_off_c, 0, 73, 0
4, 11160, Note_on_c, 0, 74, 88
4, 11394, Note_off_c, 0, 74, 0
4, 11400, Note_on_c, 0, 73, 88
4, 11516, Note_off_c, 0, 73, 0
4, 11640, Note_on_c, 0, 74, 88
4, 11698, Note_off_c, 0, 74, 0
4, 11700, Note_on_c, 0, 73, 88
4, 11758, Note_off_c, 0, 73, 0
4, 11760, Note_on_c, 0, 74, 88
4, 11876, Note_off_c, 0, 74, 0
4, 11880, Note_on_c, 0, 69, 88
4, 11996, Note_off_c, 0, 69, 0
4, 12000, Note_on_c, 0, 77, 88
4, 12234, Note_off_c, 0, 77, 0
4, 12240, Note_on_c, 0, 76, 88
4, 12474, Note_off_c, 0, 76, 0
4, 12600, Note_on_c, 0, 74, 88
4, 12658, Note_off_c, 0, 74, 0
4, 12660, Note_on_c, 0, 72, 88
4, 12718, Note_off_c, 0, 72, 0
4, 12720, Note_on_c, 0, 74, 88
4, 12778, Note_off_c, 0, 74, 0
4, 12780, Note_on_c, 0, 76, 88
4, 12838, Note_off_c, 0, 76, 0
4, 12840, Note_on_c, 0, 72, 88
4, 12898, Note_off_c, 0, 72, 0
4, 12900, Note_on_c, 0, 74, 88
4, 12958, Note_off_c, 0, 74, 0
4, 12960, Note_on_c, 0, 71, 88
4, 13018, Note_off_c, 0, 71, 0
4, 13020, Note_on_c, 0, 74, 88
4, 13078, Note_off_c, 0, 74, 0
4, 13080, Note_on_c, 0, 72, 88
4, 13138, Note_off_c, 0, 72, 0
4, 13140, Note_on_c, 0, 74, 88
4, 13198, Note_off_c, 0, 74, 0
4, 13200, Note_on_c, 0, 76, 88
4, 13258, Note_off_c, 0, 76, 0
4, 13260, Note_on_c, 0, 77, 88
4, 13318, Note_off_c, 0, 77, 0
4, 13320, Note_on_c, 0, 74, 88
4, 13378, Note_off_c, 0, 74, 0
4, 13380, Note_on_c, 0, 76, 88
4, 13438, Note_off_c, 0, 76, 0
4, 13440, Note_on_c, 0, 72, 88
4, 13556, Note_off_c, 0, 72, 0
4, 13560, Note_on_c, 0, 76, 88
4, 13618, Note_off_c, 0, 76, 0
4, 13620, Note_on_c, 0, 74, 88
4, 13678, Note_off_c, 0, 74, 0
4, 13680, Note_on_c, 0, 76, 88
4, 13796, Note_off_c, 0, 76, 0
4, 13800, Note_on_c, 0, 72, 88
4, 13916, Note_off_c, 0, 72, 0
4, 13920, Note_on_c, 0, 81, 88
4, 14036, Note_off_c, 0, 81, 0
4, 14040, Note_on_c, 0, 72, 88
4, 14156, Note_off_c, 0, 72, 0
4, 14160, Note_on_c, 0, 69, 88
4, 14276, Note_off_c, 0, 69, 0
4, 14280, Note_on_c, 0, 74, 88
4, 14396, Note_off_c, 0, 74, 0
4, 14400, Note_on_c, 0, 71, 88
4, 14516, Note_off_c, 0, 71, 0
4, 14520, Note_on_c, 0, 74, 88
4, 14578, Note_off_c, 0, 74, 0
4, 14580, Note_on_c, 0, 72, 88
4, 14638, Note_off_c, 0, 72, 0
4, 14640, Note_on_c, 0, 74, 88
4, 14756, Note_off_c, 0, 74, 0
4, 14760, Note_on_c, 0, 71, 88
4, 14876, Note_off_c, 0, 71, 0
4, 14880, Note_on_c, 0, 79, 88
4, 14996, Note_off_c, 0, 79, 0
4, 15000, Note_on_c, 0, 70, 88
4, 15116, Note_off_c, 0, 70, 0
4, 15120, Note_on_c, 0, 67, 88
4, 15236, Note_off_c, 0, 67, 0
4, 15240, Note_on_c, 0, 72, 88
4, 15356, Note_off_c, 0, 72, 0
4, 15360, Note_on_c, 0, 69, 88
4, 15476, Note_off_c, 0, 69, 0
4, 15480, Note_on_c, 0, 74, 88
4, 15538, Note_off_c, 0, 74, 0
4, 15540, Note_on_c, 0, 72, 88
4, 15598, Note_off_c, 0, 72, 0
4, 15600, Note_on_c, 0, 74, 88
4, 15658, Note_off_c, 0, 74, 0
4, 15660, Note_on_c, 0, 76, 88
4, 15718, Note_off_c, 0, 76, 0
4, 15720, Note_on_c, 0, 72, 88
4, 15778, Note_off_c, 0, 72, 0
4, 15780, Note_on_c, 0, 74, 88
4, 15838, Note_off_c, 0, 74, 0
4, 15840, Note_on_c, 0, 71, 88
4, 15898, Note_off_c, 0, 71, 0
4, 15900, Note_on_c, 0, 69, 88
4, 15958, Note_off_c, 0, 69, 0
4, 15960, Note_on_c, 0, 71, 88
4, 16018, Note_off_c, 0, 71, 0
4, 16020, Note_on_c, 0, 72, 88
4, 16078, Note_off_c, 0, 72, 0
4, 16080, Note_on_c, 0, 71, 88
4, 16138, Note_off_c, 0, 71, 0
4, 16140, Note_on_c, 0, 72, 88
4, 16198, Note_off_c, 0, 72, 0
4, 16200, Note_on_c, 0, 69, 88
4, 16258, Note_off_c, 0, 69, 0
4, 16260, Note_on_c, 0, 71, 88
4, 16318, Note_off_c, 0, 71, 0
4, 16320, Note_on_c, 0, 67, 88
4, 16436, Note_off_c, 0, 67, 0
4, 16440, Note_on_c, 0, 72, 88
4, 16498, Note_off_c, 0, 72, 0
4, 16500, Note_on_c, 0, 71, 88
4, 16558, Note_off_c, 0, 71, 0
4, 16560, Note_on_c, 0, 72, 88
4, 16618, Note_off_c, 0, 72, 0
4, 16620, Note_on_c, 0, 74, 88
4, 16678, Note_off_c, 0, 74, 0
4, 16680, Note_on_c, 0, 70, 88
4, 16738, Note_off_c, 0, 70, 0
4, 16740, Note_on_c, 0, 72, 88
4, 16798, Note_off_c, 0, 72, 0
4, 16800, Note_on_c, 0, 69, 88
4, 16858, Note_off_c, 0, 69, 0
4, 16860, Note_on_c, 0, 67, 88
4, 16918, Note_off_c, 0, 67, 0
4, 16920, Note_on_c, 0, 69, 88
4, 16978, Note_off_c, 0, 69, 0
4, 16980, Note_on_c, 0, 70, 88
4, 17038, Note_off_c, 0, 70, 0
4, 17040, Note_on_c, 0, 69, 88
4, 17098, Note_off_c, 0, 69, 0
4, 17100, Note_on_c, 0, 70, 88
4, 17158, Note_off_c, 0, 70, 0
4, 17160, Note_on_c, 0, 67, 88
4, 17218, Note_off_c, 0, 67, 0
4, 17220, Note_on_c, 0, 69, 88
4, 17278, Note_off_c, 0, 69, 0
4, 17280, Note_on_c, 0, 67, 88
4, 17309, Note_off_c, 0, 67, 0
4, 17310, Note_on_c, 0, 65, 88
4, 17339, Note_off_c, 0, 65, 0
4, 17340, Note_on_c, 0, 67, 88
4, 17369, Note_off_c, 0, 67, 0
4, 17370, Note_on_c, 0, 65, 88
4, 17399, Note_off_c, 0, 65, 0
4, 17400, Note_on_c, 0, 67, 88
4, 17429, Note_off_c, 0, 67, 0
4, 17430, Note_on_c, 0, 65, 88
4, 17459, Note_off_c, 0, 65, 0
4, 17460, Note_on_c, 0, 67, 88
4, 17489, Note_off_c, 0, 67, 0
4, 17490, Note_on_c, 0, 65, 88
4, 17519, Note_off_c, 0, 65, 0
4, 17520, Note_on_c, 0, 67, 88
4, 17549, Note_off_c, 0, 67, 0
4, 17550, Note_on_c, 0, 65, 88
4, 17579, Note_off_c, 0, 65, 0
4, 17580, Note_on_c, 0, 67, 88
4, 17602, Note_off_c, 0, 67, 0
4, 17603, Note_on_c, 0, 65, 88
4, 17624, Note_off_c, 0, 65, 0
4, 17625, Note_on_c, 0, 67, 88
4, 17647, Note_off_c, 0, 67, 0
4, 17648, Note_on_c, 0, 65, 88
4, 17669, Note_off_c, 0, 65, 0
4, 17670, Note_on_c, 0, 67, 88
4, 17692, Note_off_c, 0, 67, 0
4, 17693, Note_on_c, 0, 65, 88
4, 17714, Note_off_c, 0, 65, 0
4, 17715, Note_on_c, 0, 67, 88
4, 17737, Note_off_c, 0, 67, 0
4, 17738, Note_on_c, 0, 65, 88
4, 17759, Note_off_c, 0, 65, 0
4, 17760, Note_on_c, 0, 65, 88
4, 17876, Note_off_c, 0, 65, 0
4, 17880, Note_on_c, 0, 74, 88
4, 17938, Note_off_c, 0, 74, 0
4, 17940, Note_on_c, 0, 72, 88
4, 17998, Note_off_c, 0, 72, 0
4, 18000, Note_on_c, 0, 74, 88
4, 18116, Note_off_c, 0, 74, 0
4, 18120, Note_on_c, 0, 65, 88
4, 18236, Note_off_c, 0, 65, 0
4, 18240, Note_on_c, 0, 64, 88
4, 18298, Note_off_c, 0, 64, 0
4, 18300, Note_on_c, 0, 62, 88
4, 18358, Note_off_c, 0, 62, 0
4, 18360, Note_on_c, 0, 64, 88
4, 18418, Note_off_c, 0, 64, 0
4, 18420, Note_on_c, 0, 65, 88
4, 18478, Note_off_c, 0, 65, 0
4, 18480, Note_on_c, 0, 64, 88
4, 18538, Note_off_c, 0, 64, 0
4, 18540, Note_on_c, 0, 65, 88
4, 18598, Note_off_c, 0, 65, 0
4, 18600, Note_on_c, 0, 62, 88
4, 18658, Note_off_c, 0, 62, 0
4, 18660, Note_on_c, 0, 64, 88
4, 18718, Note_off_c, 0, 64, 0
4, 18720, Note_on_c, 0, 60, 88
4, 18885, Note_off_c, 0, 60, 0
4, 18900, Note_on_c, 0, 60, 88
4, 18958, Note_off_c, 0, 60, 0
4, 18960, Note_on_c, 0, 59, 88
4, 19125, Note_off_c, 0, 59, 0
4, 19140, Note_on_c, 0, 59, 88
4, 19198, Note_off_c, 0, 59, 0
4, 19200, Note_on_c, 0, 57, 88
4, 19553, Note_off_c, 0, 57, 0
4, 19560, Note_on_c, 0, 59, 88
4, 19676, Note_off_c, 0, 59, 0
4, 19680, Note_on_c, 0, 60, 88
4, 20033, Note_off_c, 0, 60, 0
4, 20040, Note_on_c, 0, 57, 88
4, 20156, Note_off_c, 0, 57, 0
4, 20160, Note_on_c, 0, 62, 88
4, 20513, Note_off_c, 0, 62, 0
4, 20520, Note_on_c, 0, 59, 88
4, 20636, Note_off_c, 0, 59, 0
4, 20640, Note_on_c, 0, 64, 88
4, 20993, Note_off_c, 0, 64, 0
4, 21000, Note_on_c, 0, 60, 88
4, 21116, Note_off_c, 0, 60, 0
4, 21120, Note_on_c, 0, 65, 88
4, 21473, Note_off_c, 0, 65, 0
4, 21480, Note_on_c, 0, 62, 88
4, 21596, Note_off_c, 0, 62, 0
4, 21600, Note_on_c, 0, 67, 88
4, 21834, Note_off_c, 0, 67, 0
4, 21840, Note_on_c, 0, 69, 88
4, 21956, Note_off_c, 0, 69, 0
4, 21960, Note_on_c, 0, 71, 88
4, 22076, Note_off_c, 0, 71, 0
4, 22080, Note_on_c, 0, 72, 88
4, 23754, Note_off_c, 0, 72, 0
4, 23760, Note_on_c, 0, 71, 88
4, 23994, Note_off_c, 0, 71, 0
4, 24120, Note_on_c, 0, 72, 88
4, 24178, Note_off_c, 0, 72, 0
4, 24180, Note_on_c, 0, 71, 88
4, 24238, Note_off_c, 0, 71, 0
4, 24240, Note_on_c, 0, 72, 88
4, 24356, Note_off_c, 0, 72, 0
4, 24360, Note_on_c, 0, 67, 88
4, 24476, Note_off_c, 0, 67, 0
4, 24480, Note_on_c, 0, 76, 88
4, 24714, Note_off_c, 0, 76, 0
4, 24720, Note_on_c, 0, 74, 88
4, 24954, Note_off_c, 0, 74, 0
4, 25080, Note_on_c, 0, 72, 88
4, 25138, Note_off_c, 0, 72, 0
4, 25140, Note_on_c, 0, 71, 88
4, 25198, Note_off_c, 0, 71, 0
4, 25200, Note_on_c, 0, 72, 88
4, 25258, Note_off_c, 0, 72, 0
4, 25260, Note_on_c, 0, 74, 88
4, 25318, Note_off_c, 0, 74, 0
4, 25320, Note_on_c, 0, 71, 88
4, 25378, Note_off_c, 0, 71, 0
4, 25380, Note_on_c, 0, 72, 88
4, 25438, Note_off_c, 0, 72, 0
4, 25440, Note_on_c, 0, 69, 88
4, 25498, Note_off_c, 0, 69, 0
4, 25500, Note_on_c, 0, 72, 88
4, 25558, Note_off_c, 0, 72, 0
4, 25560, Note_on_c, 0, 71, 88
4, 25618, Note_off_c, 0, 71, 0
4, 25620, Note_on_c, 0, 72, 88
4, 25678, Note_off_c, 0, 72, 0
4, 25680, Note_on_c, 0, 74, 88
4, 25738, Note_off_c, 0, 74, 0
4, 25740, Note_on_c, 0, 76, 88
4, 25798, Note_off_c, 0, 76, 0
4, 25800, Note_on_c, 0, 72, 88
4, 25858, Note_off_c, 0, 72, 0
4, 25860, Note_on_c, 0, 74, 88
4, 25918, Note_off_c, 0, 74, 0
4, 25920, Note_on_c, 0, 71, 88
4, 26036, Note_off_c, 0, 71, 0
4, 26040, Note_on_c, 0, 74, 88
4, 26098, Note_off_c, 0, 74, 0
4, 26100, Note_on_c, 0, 72, 88
4, 26158, Note_off_c, 0, 72, 0
4, 26160, Note_on_c, 0, 74, 88
4, 26276, Note_off_c, 0, 74, 0
4, 26280, Note_on_c, 0, 67, 88
4, 26396, Note_off_c, 0, 67, 0
4, 26400, Note_on_c, 0, 76, 88
4, 26634, Note_off_c, 0, 76, 0
4, 26640, Note_on_c, 0, 74, 88
4, 26874, Note_off_c, 0, 74, 0
4, 26880, Note_on_c, 0, 72, 88
4, 26996, Note_off_c, 0, 72, 0
4, 27000, Note_on_c, 0, 76, 88
4, 27058, Note_off_c, 0, 76, 0
4, 27060, Note_on_c, 0, 74, 88
4, 27118, Note_off_c, 0, 74, 0
4, 27120, Note_on_c, 0, 76, 88
4, 27236, Note_off_c, 0, 76, 0
4, 27240, Note_on_c, 0, 69, 88
4, 27356, Note_off_c, 0, 69, 0
4, 27360, Note_on_c, 0, 77, 88
4, 27594, Note_off_c, 0, 77, 0
4, 27600, Note_on_c, 0, 76, 88
4, 27834, Note_off_c, 0, 76, 0
4, 27840, Note_on_c, 0, 74, 88
4, 27956, Note_off_c, 0, 74, 0
4, 27960, Note_on_c, 0, 77, 88
4, 28018, Note_off_c, 0, 77, 0
4, 28020, Note_on_c, 0, 76, 88
4, 28078, Note_off_c, 0, 76, 0
4, 28080, Note_on_c, 0, 77, 88
4, 28196, Note_off_c, 0, 77, 0
4, 28200, Note_on_c, 0, 71, 88
4, 28316, Note_off_c, 0, 71, 0
4, 28320, Note_on_c, 0, 79, 88
4, 28554, Note_off_c, 0, 79, 0
4, 28560, Note_on_c, 0, 77, 88
4, 28794, Note_off_c, 0, 77, 0
4, 28800, Note_on_c, 0, 76, 88
4, 28916, Note_off_c, 0, 76, 0
4, 28920, Note_on_c, 0, 77, 88
4, 29036, Note_off_c, 0, 77, 0
4, 29040, Note_on_c, 0, 79, 88
4, 29514, Note_off_c, 0, 79, 0
4, 29520, Note_on_c, 0, 77, 88
4, 29994, Note_off_c, 0, 77, 0
4, 30000, Note_on_c, 0, 76, 88
4, 30474, Note_off_c, 0, 76, 0
4, 30480, Note_on_c, 0, 74, 88
4, 30596, Note_off_c, 0, 74, 0
4, 30600, Note_on_c, 0, 72, 88
4, 30716, Note_off_c, 0, 72, 0
4, 30720, Note_on_c, 0, 71, 88
4, 30836, Note_off_c, 0, 71, 0
4, 30840, Note_on_c, 0, 67, 88
4, 30956, Note_off_c, 0, 67, 0
4, 30960, Note_on_c, 0, 72, 88
4, 31434, Note_off_c, 0, 72, 0
4, 31440, Note_on_c, 0, 71, 88
4, 31674, Note_off_c, 0, 71, 0
4, 31680, Note_on_c, 0, 72, 88
4, 31796, Note_off_c, 0, 72, 0
4, 31800, Note_on_c, 0, 74, 88
4, 31916, Note_off_c, 0, 74, 0
4, 31920, Note_on_c, 0, 67, 88
4, 31978, Note_off_c, 0, 67, 0
4, 31980, Note_on_c, 0, 72, 88
4, 32096, Note_off_c, 0, 72, 0
4, 32100, Note_on_c, 0, 71, 88
4, 32158, Note_off_c, 0, 71, 0
4, 32160, Note_on_c, 0, 72, 88
4, 32218, Note_off_c, 0, 72, 0
4, 32220, Note_on_c, 0, 65, 88
4, 32278, Note_off_c, 0, 65, 0
4, 32280, Note_on_c, 0, 64, 88
4, 32338, Note_off_c, 0, 64, 0
4, 32340, Note_on_c, 0, 62, 88
4, 32398, Note_off_c, 0, 62, 0
4, 32400, Note_on_c, 0, 64, 88
4, 32458, Note_off_c, 0, 64, 0
4, 32460, Note_on_c, 0, 65, 88
4, 32518, Note_off_c, 0, 65, 0
4, 32520, Note_on_c, 0, 62, 88
4, 32578, Note_off_c, 0, 62, 0
4, 32580, Note_on_c, 0, 64, 88
4, 32638, Note_off_c, 0, 64, 0
4, 32640, Note_on_c, 0, 65, 88
4, 32698, Note_off_c, 0, 65, 0
4, 32700, Note_on_c, 0, 64, 88
4, 32758, Note_off_c, 0, 64, 0
4, 32760, Note_on_c, 0, 65, 88
4, 32818, Note_off_c, 0, 65, 0
4, 32820, Note_on_c, 0, 67, 88
4, 32878, Note_off_c, 0, 67, 0
4, 32880, Note_on_c, 0, 65, 88
4, 32938, Note_off_c, 0, 65, 0
4, 32940, Note_on_c, 0, 67, 88
4, 32998, Note_off_c, 0, 67, 0
4, 33000, Note_on_c, 0, 64, 88
4, 33058, Note_off_c, 0, 64, 0
4, 33060, Note_on_c, 0, 65, 88
4, 33118, Note_off_c, 0, 65, 0
4, 33120, Note_on_c, 0, 62, 88
4, 33178, Note_off_c, 0, 62, 0
4, 33180, Note_on_c, 0, 60, 88
4, 33238, Note_off_c, 0, 60, 0
4, 33240, Note_on_c, 0, 62, 88
4, 33298, Note_off_c, 0, 62, 0
4, 33300, Note_on_c, 0, 64, 88
4, 33358, Note_off_c, 0, 64, 0
4, 33360, Note_on_c, 0, 62, 88
4, 33418, Note_off_c, 0, 62, 0
4, 33420, Note_on_c, 0, 64, 88
4, 33478, Note_off_c, 0, 64, 0
4, 33480, Note_on_c, 0, 60, 88
4, 33538, Note_off_c, 0, 60, 0
4, 33540, Note_on_c, 0, 62, 88
4, 33598, Note_off_c, 0, 62, 0
4, 33600, Note_on_c, 0, 64, 88
4, 33658, Note_off_c, 0, 64, 0
4, 33660, Note_on_c, 0, 62, 88
4, 33718, Note_off_c, 0, 62, 0
4, 33720, Note_on_c, 0, 64, 88
4, 33778, Note_off_c, 0, 64, 0
4, 33780, Note_on_c, 0, 65, 88
4, 33838, Note_off_c, 0, 65, 0
4, 33840, Note_on_c, 0, 64, 88
4, 33898, Note_off_c, 0, 64, 0
4, 33900, Note_on_c, 0, 65, 88
4, 33958, Note_off_c, 0, 65, 0
4, 33960, Note_on_c, 0, 62, 88
4, 34018, Note_off_c, 0, 62, 0
4, 34020, Note_on_c, 0, 64, 88
4, 34078, Note_off_c, 0, 64, 0
4, 34080, Note_on_c, 0, 60, 88
4, 35636, Note_off_c, 0, 60, 0
4, 35640, Note_on_c, 0, 59, 88
4, 35756, Note_off_c, 0, 59, 0
4, 35760, Note_on_c, 0, 60, 88
4, 35876, Note_off_c, 0, 60, 0
4, 35880, Note_on_c, 0, 62, 88
4, 35996, Note_off_c, 0, 62, 0
4, 36000, Note_on_c, 0, 64, 88
4, 36116, Note_off_c, 0, 64, 0
4, 36120, Note_on_c, 0, 67, 88
4, 36178, Note_off_c, 0, 67, 0
4, 36180, Note_on_c, 0, 65, 88
4, 36238, Note_off_c, 0, 65, 0
4, 36240, Note_on_c, 0, 67, 88
4, 36356, Note_off_c, 0, 67, 0
4, 36360, Note_on_c, 0, 60, 88
4, 36476, Note_off_c, 0, 60, 0
4, 36480, Note_on_c, 0, 69, 88
4, 36714, Note_off_c, 0, 69, 0
4, 36720, Note_on_c, 0, 67, 88
4, 36954, Note_off_c, 0, 67, 0
4, 37080, Note_on_c, 0, 65, 88
4, 37138, Note_off_c, 0, 65, 0
4, 37140, Note_on_c, 0, 64, 88
4, 37198, Note_off_c, 0, 64, 0
4, 37200, Note_on_c, 0, 65, 88
4, 37316, Note_off_c, 0, 65, 0
4, 37320, Note_on_c, 0, 62, 88
4, 37436, Note_off_c, 0, 62, 0
4, 37440, Note_on_c, 0, 67, 88
4, 37674, Note_off_c, 0, 67, 0
4, 37680, Note_on_c, 0, 65, 88
4, 37914, Note_off_c, 0, 65, 0
4, 37920, Note_on_c, 0, 64, 88
4, 38036, Note_off_c, 0, 64, 0
4, 38040, Note_on_c, 0, 68, 88
4, 38156, Note_off_c, 0, 68, 0
4, 38160, Note_on_c, 0, 67, 88
4, 38276, Note_off_c, 0, 67, 0
4, 38280, Note_on_c, 0, 71, 88
4, 38396, Note_off_c, 0, 71, 0
4, 38400, Note_on_c, 0, 72, 88
4, 38516, Note_off_c, 0, 72, 0
4, 38520, Note_on_c, 0, 65, 88
4, 38636, Note_off_c, 0, 65, 0
4, 38640, Note_on_c, 0, 64, 88
4, 38756, Note_off_c, 0, 64, 0
4, 38760, Note_on_c, 0, 72, 88
4, 38876, Note_off_c, 0, 72, 0
4, 38880, Note_on_c, 0, 62, 88
4, 38996, Note_off_c, 0, 62, 0
4, 39000, Note_on_c, 0, 72, 88
4, 39116, Note_off_c, 0, 72, 0
4, 39120, Note_on_c, 0, 65, 88
4, 39236, Note_off_c, 0, 65, 0
4, 39240, Note_on_c, 0, 71, 88
4, 39356, Note_off_c, 0, 71, 0
4, 39360, Note_on_c, 0, 72, 88
4, 39830, Note_off_c, 0, 72, 0
4, 39830, End_track
5, 0, Start_track
5, 0, Title_t, "Track 2"
5, 0, Program_c, 1, 6
5, 120, Note_on_c, 1, 67, 88
5, 178, Note_off_c, 1, 67, 0
5, 180, Note_on_c, 1, 65, 88
5, 238, Note_off_c, 1, 65, 0
5, 240, Note_on_c, 1, 67, 88
5, 356, Note_off_c, 1, 67, 0
5, 360, Note_on_c, 1, 60, 88
5, 476, Note_off_c, 1, 60, 0
5, 480, Note_on_c, 1, 69, 88
5, 502, Note_off_c, 1, 69, 0
5, 503, Note_on_c, 1, 67, 88
5, 532, Note_off_c, 1, 67, 0
5, 533, Note_on_c, 1, 69, 88
5, 715, Note_off_c, 1, 69, 0
5, 720, Note_on_c, 1, 67, 88
5, 954, Note_off_c, 1, 67, 0
5, 1080, Note_on_c, 1, 65, 88
5, 1138, Note_off_c, 1, 65, 0
5, 1140, Note_on_c, 1, 64, 88
5, 1198, Note_off_c, 1, 64, 0
5, 1200, Note_on_c, 1, 65, 88
5, 1258, Note_off_c, 1, 65, 0
5, 1260, Note_on_c, 1, 67, 88
5, 1318, Note_off_c, 1, 67, 0
5, 1320, Note_on_c, 1, 64, 88
5, 1378, Note_off_c, 1, 64, 0
5, 1380, Note_on_c, 1, 65, 88
5, 1438, Note_off_c, 1, 65, 0
5, 1440, Note_on_c, 1, 62, 88
5, 1498, Note_off_c, 1, 62, 0
5, 1500, Note_on_c, 1, 65, 88
5, 1558, Note_off_c, 1, 65, 0
5, 1560, Note_on_c, 1, 64, 88
5, 1618, Note_off_c, 1, 64, 0
5, 1620, Note_on_c, 1, 65, 88
5, 1678, Note_off_c, 1, 65, 0
5, 1680, Note_on_c, 1, 67, 88
5, 1738, Note_off_c, 1, 67, 0
5, 1740, Note_on_c, 1, 69, 88
5, 1798, Note_off_c, 1, 69, 0
5, 1800, Note_on_c, 1, 65, 88
5, 1858, Note_off_c, 1, 65, 0
5, 1860, Note_on_c, 1, 67, 88
5, 1918, Note_off_c, 1, 67, 0
5, 1920, Note_on_c, 1, 64, 88
5, 1978, Note_off_c, 1, 64, 0
5, 1980, Note_on_c, 1, 62, 88
5, 2038, Note_off_c, 1, 62, 0
5, 2040, Note_on_c, 1, 64, 88
5, 2098, Note_off_c, 1, 64, 0
5, 2100, Note_on_c, 1, 65, 88
5, 2158, Note_off_c, 1, 65, 0
5, 2160, Note_on_c, 1, 64, 88
5, 2218, Note_off_c, 1, 64, 0
5, 2220, Note_on_c, 1, 65, 88
5, 2278, Note_off_c, 1, 65, 0
5, 2280, Note_on_c, 1, 62, 88
5, 2338, Note_off_c, 1, 62, 0
5, 2340, Note_on_c, 1, 64, 88
5, 2398, Note_off_c, 1, 64, 0
5, 2400, Note_on_c, 1, 60, 88
5, 2458, Note_off_c, 1, 60, 0
5, 2460, Note_on_c, 1, 59, 88
5, 2518, Note_off_c, 1, 59, 0
5, 2520, Note_on_c, 1, 60, 88
5, 2578, Note_off_c, 1, 60, 0
5, 2580, Note_on_c, 1, 62, 88
5, 2638, Note_off_c, 1, 62, 0
5, 2640, Note_on_c, 1, 60, 88
5, 2698, Note_off_c, 1, 60, 0
5, 2700, Note_on_c, 1, 62, 88
5, 2758, Note_off_c, 1, 62, 0
5, 2760, Note_on_c, 1, 59, 88
5, 2818, Note_off_c, 1, 59, 0
5, 2820, Note_on_c, 1, 60, 88
5, 2878, Note_off_c, 1, 60, 0
5, 2880, Note_on_c, 1, 57, 88
5, 2938, Note_off_c, 1, 57, 0
5, 2940, Note_on_c, 1, 59, 88
5, 2998, Note_off_c, 1, 59, 0
5, 3000, Note_on_c, 1, 60, 88
5, 3058, Note_off_c, 1, 60, 0
5, 3060, Note_on_c, 1, 62, 88
5, 3118, Note_off_c, 1, 62, 0
5, 3120, Note_on_c, 1, 64, 88
5, 3178, Note_off_c, 1, 64, 0
5, 3180, Note_on_c, 1, 66, 88
5, 3238, Note_off_c, 1, 66, 0
5, 3240, Note_on_c, 1, 67, 88
5, 3476, Note_off_c, 1, 67, 0
5, 3480, Note_on_c, 1, 66, 88
5, 3538, Note_off_c, 1, 66, 0
5, 3540, Note_on_c, 1, 64, 88
5, 3598, Note_off_c, 1, 64, 0
5, 3600, Note_on_c, 1, 67, 88
5, 3629, Note_off_c, 1, 67, 0
5, 3630, Note_on_c, 1, 66, 88
5, 3659, Note_off_c, 1, 66, 0
5, 3660, Note_on_c, 1, 67, 88
5, 3689, Note_off_c, 1, 67, 0
5, 3690, Note_on_c, 1, 66, 88
5, 3719, Note_off_c, 1, 66, 0
5, 3720, Note_on_c, 1, 67, 88
5, 3749, Note_off_c, 1, 67, 0
5, 3750, Note_on_c, 1, 66, 88
5, 3779, Note_off_c, 1, 66, 0
5, 3780, Note_on_c, 1, 64, 88
5, 3809, Note_off_c, 1, 64, 0
5, 3810, Note_on_c, 1, 66, 88
5, 3839, Note_off_c, 1, 66, 0
5, 3840, Note_on_c, 1, 67, 88
5, 4378, Note_off_c, 1, 67, 0
5, 4380, Note_on_c, 1, 64, 88
5, 4438, Note_off_c, 1, 64, 0
5, 4440, Note_on_c, 1, 65, 88
5, 4615, Note_off_c, 1, 65, 0
5, 4620, Note_on_c, 1, 62, 88
5, 4678, Note_off_c, 1, 62, 0
5, 4680, Note_on_c, 1, 64, 88
5, 4916, Note_off_c, 1, 64, 0
5, 4920, Note_on_c, 1, 62, 88
5, 5036, Note_off_c, 1, 62, 0
5, 5040, Note_on_c, 1, 67, 88
5, 5274, Note_off_c, 1, 67, 0
5, 5280, Note_on_c, 1, 65, 88
5, 5338, Note_off_c, 1, 65, 0
5, 5340, Note_on_c, 1, 69, 88
5, 5398, Note_off_c, 1, 69, 0
5, 5400, Note_on_c, 1, 67, 88
5, 5458, Note_off_c, 1, 67, 0
5, 5460, Note_on_c, 1, 69, 88
5, 5518, Note_off_c, 1, 69, 0
5, 5520, Note_on_c, 1, 62, 88
5, 5754, Note_off_c, 1, 62, 0
5, 5760, Note_on_c, 1, 60, 88
5, 5876, Note_off_c, 1, 60, 0
5, 6360, Note_on_c, 1, 72, 88
5, 6418, Note_off_c, 1, 72, 0
5, 6420, Note_on_c, 1, 71, 88
5, 6478, Note_off_c, 1, 71, 0
5, 6480, Note_on_c, 1, 72, 88
5, 6596, Note_off_c, 1, 72, 0
5, 6600, Note_on_c, 1, 67, 88
5, 6716, Note_off_c, 1, 67, 0
5, 6720, Note_on_c, 1, 74, 88
5, 6954, Note_off_c, 1, 74, 0
5, 6960, Note_on_c, 1, 72, 88
5, 7194, Note_off_c, 1, 72, 0
5, 7200, Note_on_c, 1, 71, 88
5, 7316, Note_off_c, 1, 71, 0
5, 7320, Note_on_c, 1, 74, 88
5, 7378, Note_off_c, 1, 74, 0
5, 7380, Note_on_c, 1, 72, 88
5, 7438, Note_off_c, 1, 72, 0
5, 7440, Note_on_c, 1, 74, 88
5, 7556, Note_off_c, 1, 74, 0
5, 7560, Note_on_c, 1, 69, 88
5, 7676, Note_off_c, 1, 69, 0
5, 7680, Note_on_c, 1, 76, 88
5, 7914, Note_off_c, 1, 76, 0
5, 7920, Note_on_c, 1, 74, 88
5, 8154, Note_off_c, 1, 74, 0
5, 8160, Note_on_c, 1, 72, 88
5, 8276, Note_off_c, 1, 72, 0
5, 8280, Note_on_c, 1, 76, 88
5, 8338, Note_off_c, 1, 76, 0
5, 8340, Note_on_c, 1, 74, 88
5, 8398, Note_off_c, 1, 74, 0
5, 8400, Note_on_c, 1, 76, 88
5, 8516, Note_off_c, 1, 76, 0
5, 8520, Note_on_c, 1, 81, 88
5, 8636, Note_off_c, 1, 81, 0
5, 8640, Note_on_c, 1, 74, 88
5, 9236, Note_off_c, 1, 74, 0
5, 9240, Note_on_c, 1, 72, 88
5, 9298, Note_off_c, 1, 72, 0
5, 9300, Note_on_c, 1, 71, 88
5, 9358, Note_off_c, 1, 71, 0
5, 9360, Note_on_c, 1, 69, 88
5, 9476, Note_off_c, 1, 69, 0
5, 9480, Note_on_c, 1, 71, 88
5, 9716, Note_off_c, 1, 71, 0
5, 9720, Note_on_c, 1, 69, 88
5, 9778, Note_off_c, 1, 69, 0
5, 9780, Note_on_c, 1, 67, 88
5, 9838, Note_off_c, 1, 67, 0
5, 9840, Note_on_c, 1, 69, 88
5, 9956, Note_off_c, 1, 69, 0
5, 9960, Note_on_c, 1, 62, 88
5, 10076, Note_off_c, 1, 62, 0
5, 10080, Note_on_c, 1, 71, 88
5, 10314, Note_off_c, 1, 71, 0
5, 10320, Note_on_c, 1, 69, 88
5, 10554, Note_off_c, 1, 69, 0
5, 10680, Note_on_c, 1, 67, 88
5, 10738, Note_off_c, 1, 67, 0
5, 10740, Note_on_c, 1, 65, 88
5, 10798, Note_off_c, 1, 65, 0
5, 10800, Note_on_c, 1, 67, 88
5, 10858, Note_off_c, 1, 67, 0
5, 10860, Note_on_c, 1, 69, 88
5, 10918, Note_off_c, 1, 69, 0
5, 10920, Note_on_c, 1, 65, 88
5, 10978, Note_off_c, 1, 65, 0
5, 10980, Note_on_c, 1, 67, 88
5, 11038, Note_off_c, 1, 67, 0
5, 11040, Note_on_c, 1, 64, 88
5, 11098, Note_off_c, 1, 64, 0
5, 11100, Note_on_c, 1, 67, 88
5, 11158, Note_off_c, 1, 67, 0
5, 11160, Note_on_c, 1, 65, 88
5, 11218, Note_off_c, 1, 65, 0
5, 11220, Note_on_c, 1, 67, 88
5, 11278, Note_off_c, 1, 67, 0
5, 11280, Note_on_c, 1, 69, 88
5, 11338, Note_off_c, 1, 69, 0
5, 11340, Note_on_c, 1, 70, 88
5, 11398, Note_off_c, 1, 70, 0
5, 11400, Note_on_c, 1, 67, 88
5, 11458, Note_off_c, 1, 67, 0
5, 11460, Note_on_c, 1, 69, 88
5, 11518, Note_off_c, 1, 69, 0
5, 11520, Note_on_c, 1, 65, 88
5, 11578, Note_off_c, 1, 65, 0
5, 11580, Note_on_c, 1, 64, 88
5, 11638, Note_off_c, 1, 64, 0
5, 11640, Note_on_c, 1, 65, 88
5, 11698, Note_off_c, 1, 65, 0
5, 11700, Note_on_c, 1, 67, 88
5, 11758, Note_off_c, 1, 67, 0
5, 11760, Note_on_c, 1, 65, 88
5, 11818, Note_off_c, 1, 65, 0
5, 11820, Note_on_c, 1, 67, 88
5, 11878, Note_off_c, 1, 67, 0
5, 11880, Note_on_c, 1, 64, 88
5, 11938, Note_off_c, 1, 64, 0
5, 11940, Note_on_c, 1, 65, 88
5, 11998, Note_off_c, 1, 65, 0
5, 12000, Note_on_c, 1, 62, 88
5, 12058, Note_off_c, 1, 62, 0
5, 12060, Note_on_c, 1, 60, 88
5, 12118, Note_off_c, 1, 60, 0
5, 12120, Note_on_c, 1, 62, 88
5, 12178, Note_off_c, 1, 62, 0
5, 12180, Note_on_c, 1, 64, 88
5, 12238, Note_off_c, 1, 64, 0
5, 12240, Note_on_c, 1, 62, 88
5, 12298, Note_off_c, 1, 62, 0
5, 12300, Note_on_c, 1, 64, 88
5, 12358, Note_off_c, 1, 64, 0
5, 12360, Note_on_c, 1, 60, 88
5, 12418, Note_off_c, 1, 60, 0
5, 12420, Note_on_c, 1, 62, 88
5, 12478, Note_off_c, 1, 62, 0
5, 12480, Note_on_c, 1, 59, 88
5, 12538, Note_off_c, 1, 59, 0
5, 12540, Note_on_c, 1, 60, 88
5, 12598, Note_off_c, 1, 60, 0
5, 12600, Note_on_c, 1, 62, 88
5, 12658, Note_off_c, 1, 62, 0
5, 12660, Note_on_c, 1, 64, 88
5, 12718, Note_off_c, 1, 64, 0
5, 12720, Note_on_c, 1, 66, 88
5, 12778, Note_off_c, 1, 66, 0
5, 12780, Note_on_c, 1, 68, 88
5, 12838, Note_off_c, 1, 68, 0
5, 12840, Note_on_c, 1, 69, 88
5, 13076, Note_off_c, 1, 69, 0
5, 13080, Note_on_c, 1, 68, 88
5, 13138, Note_off_c, 1, 68, 0
5, 13140, Note_on_c, 1, 66, 88
5, 13198, Note_off_c, 1, 66, 0
5, 13200, Note_on_c, 1, 69, 88
5, 13229, Note_off_c, 1, 69, 0
5, 13230, Note_on_c, 1, 68, 88
5, 13259, Note_off_c, 1, 68, 0
5, 13260, Note_on_c, 1, 69, 88
5, 13289, Note_off_c, 1, 69, 0
5, 13290, Note_on_c, 1, 68, 88
5, 13319, Note_off_c, 1, 68, 0
5, 13320, Note_on_c, 1, 69, 88
5, 13349, Note_off_c, 1, 69, 0
5, 13350, Note_on_c, 1, 68, 88
5, 13379, Note_off_c, 1, 68, 0
5, 13380, Note_on_c, 1, 66, 88
5, 13409, Note_off_c, 1, 66, 0
5, 13410, Note_on_c, 1, 68, 88
5, 13439, Note_off_c, 1, 68, 0
5, 13440, Note_on_c, 1, 69, 88
5, 13498, Note_off_c, 1, 69, 0
5, 13500, Note_on_c, 1, 68, 88
5, 13558, Note_off_c, 1, 68, 0
5, 13560, Note_on_c, 1, 69, 88
5, 13618, Note_off_c, 1, 69, 0
5, 13620, Note_on_c, 1, 71, 88
5, 13678, Note_off_c, 1, 71, 0
5, 13680, Note_on_c, 1, 69, 88
5, 13738, Note_off_c, 1, 69, 0
5, 13740, Note_on_c, 1, 71, 88
5, 13798, Note_off_c, 1, 71, 0
5, 13800, Note_on_c, 1, 67, 88
5, 13858, Note_off_c, 1, 67, 0
5, 13860, Note_on_c, 1, 69, 88
5, 13918, Note_off_c, 1, 69, 0
5, 13920, Note_on_c, 1, 66, 88
5, 13978, Note_off_c, 1, 66, 0
5, 13980, Note_on_c, 1, 64, 88
5, 14038, Note_off_c, 1, 64, 0
5, 14040, Note_on_c, 1, 66, 88
5, 14098, Note_off_c, 1, 66, 0
5, 14100, Note_on_c, 1, 67, 88
5, 14158, Note_off_c, 1, 67, 0
5, 14160, Note_on_c, 1, 66, 88
5, 14218, Note_off_c, 1, 66, 0
5, 14220, Note_on_c, 1, 67, 88
5, 14278, Note_off_c, 1, 67, 0
5, 14280, Note_on_c, 1, 64, 88
5, 14338, Note_off_c, 1, 64, 0
5, 14340, Note_on_c, 1, 66, 88
5, 14398, Note_off_c, 1, 66, 0
5, 14400, Note_on_c, 1, 67, 88
5, 14458, Note_off_c, 1, 67, 0
5, 14460, Note_on_c, 1, 66, 88
5, 14518, Note_off_c, 1, 66, 0
5, 14520, Note_on_c, 1, 67, 88
5, 14578, Note_off_c, 1, 67, 0
5, 14580, Note_on_c, 1, 69, 88
5, 14638, Note_off_c, 1, 69, 0
5, 14640, Note_on_c, 1, 67, 88
5, 14698, Note_off_c, 1, 67, 0
5, 14700, Note_on_c, 1, 69, 88
5, 14758, Note_off_c, 1, 69, 0
5, 14760, Note_on_c, 1, 65, 88
5, 14818, Note_off_c, 1, 65, 0
5, 14820, Note_on_c, 1, 67, 88
5, 14878, Note_off_c, 1, 67, 0
5, 14880, Note_on_c, 1, 64, 88
5, 14938, Note_off_c, 1, 64, 0
5, 14940, Note_on_c, 1, 62, 88
5, 14998, Note_off_c, 1, 62, 0
5, 15000, Note_on_c, 1, 64, 88
5, 15058, Note_off_c, 1, 64, 0
5, 15060, Note_on_c, 1, 65, 88
5, 15118, Note_off_c, 1, 65, 0
5, 15120, Note_on_c, 1, 64, 88
5, 15178, Note_off_c, 1, 64, 0
5, 15180, Note_on_c, 1, 65, 88
5, 15238, Note_off_c, 1, 65, 0
5, 15240, Note_on_c, 1, 62, 88
5, 15298, Note_off_c, 1, 62, 0
5, 15300, Note_on_c, 1, 64, 88
5, 15358, Note_off_c, 1, 64, 0
5, 15360, Note_on_c, 1, 65, 88
5, 15418, Note_off_c, 1, 65, 0
5, 15420, Note_on_c, 1, 64, 88
5, 15478, Note_off_c, 1, 64, 0
5, 15480, Note_on_c, 1, 65, 88
5, 15538, Note_off_c, 1, 65, 0
5, 15540, Note_on_c, 1, 67, 88
5, 15598, Note_off_c, 1, 67, 0
5, 15600, Note_on_c, 1, 65, 88
5, 15658, Note_off_c, 1, 65, 0
5, 15660, Note_on_c, 1, 67, 88
5, 15718, Note_off_c, 1, 67, 0
5, 15720, Note_on_c, 1, 64, 88
5, 15778, Note_off_c, 1, 64, 0
5, 15780, Note_on_c, 1, 65, 88
5, 15838, Note_off_c, 1, 65, 0
5, 15840, Note_on_c, 1, 62, 88
5, 15956, Note_off_c, 1, 62, 0
5, 15960, Note_on_c, 1, 67, 88
5, 16018, Note_off_c, 1, 67, 0
5, 16020, Note_on_c, 1, 65, 88
5, 16078, Note_off_c, 1, 65, 0
5, 16080, Note_on_c, 1, 67, 88
5, 16138, Note_off_c, 1, 67, 0
5, 16140, Note_on_c, 1, 69, 88
5, 16198, Note_off_c, 1, 69, 0
5, 16200, Note_on_c, 1, 65, 88
5, 16258, Note_off_c, 1, 65, 0
5, 16260, Note_on_c, 1, 67, 88
5, 16318, Note_off_c, 1, 67, 0
5, 16320, Note_on_c, 1, 64, 88
5, 16378, Note_off_c, 1, 64, 0
5, 16380, Note_on_c, 1, 62, 88
5, 16438, Note_off_c, 1, 62, 0
5, 16440, Note_on_c, 1, 64, 88
5, 16498, Note_off_c, 1, 64, 0
5, 16500, Note_on_c, 1, 65, 88
5, 16558, Note_off_c, 1, 65, 0
5, 16560, Note_on_c, 1, 64, 88
5, 16618, Note_off_c, 1, 64, 0
5, 16620, Note_on_c, 1, 65, 88
5, 16678, Note_off_c, 1, 65, 0
5, 16680, Note_on_c, 1, 62, 88
5, 16738, Note_off_c, 1, 62, 0
5, 16740, Note_on_c, 1, 64, 88
5, 16798, Note_off_c, 1, 64, 0
5, 16800, Note_on_c, 1, 60, 88
5, 16916, Note_off_c, 1, 60, 0
5, 16920, Note_on_c, 1, 65, 88
5, 16978, Note_off_c, 1, 65, 0
5, 16980, Note_on_c, 1, 64, 88
5, 17038, Note_off_c, 1, 64, 0
5, 17040, Note_on_c, 1, 65, 88
5, 17098, Note_off_c, 1, 65, 0
5, 17100, Note_on_c, 1, 67, 88
5, 17158, Note_off_c, 1, 67, 0
5, 17160, Note_on_c, 1, 64, 88
5, 17218, Note_off_c, 1, 64, 0
5, 17220, Note_on_c, 1, 65, 88
5, 17278, Note_off_c, 1, 65, 0
5, 17280, Note_on_c, 1, 62, 88
5, 17338, Note_off_c, 1, 62, 0
5, 17340, Note_on_c, 1, 60, 88
5, 17398, Note_off_c, 1, 60, 0
5, 17400, Note_on_c, 1, 62, 88
5, 17458, Note_off_c, 1, 62, 0
5, 17460, Note_on_c, 1, 64, 88
5, 17518, Note_off_c, 1, 64, 0
5, 17520, Note_on_c, 1, 62, 88
5, 17578, Note_off_c, 1, 62, 0
5, 17580, Note_on_c, 1, 64, 88
5, 17638, Note_off_c, 1, 64, 0
5, 17640, Note_on_c, 1, 60, 88
5, 17698, Note_off_c, 1, 60, 0
5, 17700, Note_on_c, 1, 62, 88
5, 17758, Note_off_c, 1, 62, 0
5, 17760, Note_on_c, 1, 59, 88
5, 17818, Note_off_c, 1, 59, 0
5, 17820, Note_on_c, 1, 57, 88
5, 17878, Note_off_c, 1, 57, 0
5, 17880, Note_on_c, 1, 59, 88
5, 17938, Note_off_c, 1, 59, 0
5, 17940, Note_on_c, 1, 60, 88
5, 17998, Note_off_c, 1, 60, 0
5, 18000, Note_on_c, 1, 59, 88
5, 18058, Note_off_c, 1, 59, 0
5, 18060, Note_on_c, 1, 60, 88
5, 18118, Note_off_c, 1, 60, 0
5, 18120, Note_on_c, 1, 57, 88
5, 18178, Note_off_c, 1, 57, 0
5, 18180, Note_on_c, 1, 59, 88
5, 18238, Note_off_c, 1, 59, 0
5, 18240, Note_on_c, 1, 60, 88
5, 18593, Note_off_c, 1, 60, 0
5, 18600, Note_on_c, 1, 59, 88
5, 18765, Note_off_c, 1, 59, 0
5, 18780, Note_on_c, 1, 59, 88
5, 18838, Note_off_c, 1, 59, 0
5, 18840, Note_on_c, 1, 57, 88
5, 19005, Note_off_c, 1, 57, 0
5, 19020, Note_on_c, 1, 57, 88
5, 19078, Note_off_c, 1, 57, 0
5, 19080, Note_on_c, 1, 55, 88
5, 19305, Note_off_c, 1, 55, 0
5, 19320, Note_on_c, 1, 55, 88
5, 19436, Note_off_c, 1, 55, 0
5, 19440, Note_on_c, 1, 54, 88
5, 19556, Note_off_c, 1, 54, 0
5, 19560, Note_on_c, 1, 55, 88
5, 19738, Note_off_c, 1, 55, 0
5, 19740, Note_on_c, 1, 54, 88
5, 19798, Note_off_c, 1, 54, 0
5, 19800, Note_on_c, 1, 55, 88
5, 19858, Note_off_c, 1, 55, 0
5, 19860, Note_on_c, 1, 52, 88
5, 19918, Note_off_c, 1, 52, 0
5, 19920, Note_on_c, 1, 54, 88
5, 20276, Note_off_c, 1, 54, 0
5, 20280, Note_on_c, 1, 59, 88
5, 20396, Note_off_c, 1, 59, 0
5, 20400, Note_on_c, 1, 55, 88
5, 20756, Note_off_c, 1, 55, 0
5, 20760, Note_on_c, 1, 60, 88
5, 20876, Note_off_c, 1, 60, 0
5, 20880, Note_on_c, 1, 57, 88
5, 21236, Note_off_c, 1, 57, 0
5, 21240, Note_on_c, 1, 62, 88
5, 21356, Note_off_c, 1, 62, 0
5, 21360, Note_on_c, 1, 59, 88
5, 21705, Note_off_c, 1, 59, 0
5, 21720, Note_on_c, 1, 59, 88
5, 21836, Note_off_c, 1, 59, 0
5, 21840, Note_on_c, 1, 60, 88
5, 21956, Note_off_c, 1, 60, 0
5, 21960, Note_on_c, 1, 62, 88
5, 22076, Note_off_c, 1, 62, 0
5, 22080, Note_on_c, 1, 64, 88
5, 22196, Note_off_c, 1, 64, 0
5, 22200, Note_on_c, 1, 67, 88
5, 22258, Note_off_c, 1, 67, 0
5, 22260, Note_on_c, 1, 65, 88
5, 22318, Note_off_c, 1, 65, 0
5, 22320, Note_on_c, 1, 67, 88
5, 22436, Note_off_c, 1, 67, 0
5, 22440, Note_on_c, 1, 60, 88
5, 22556, Note_off_c, 1, 60, 0
5, 22560, Note_on_c, 1, 69, 88
5, 22794, Note_off_c, 1, 69, 0
5, 22800, Note_on_c, 1, 67, 88
5, 23034, Note_off_c, 1, 67, 0
5, 23160, Note_on_c, 1, 65, 88
5, 23218, Note_off_c, 1, 65, 0
5, 23220, Note_on_c, 1, 64, 88
5, 23278, Note_off_c, 1, 64, 0
5, 23280, Note_on_c, 1, 65, 88
5, 23338, Note_off_c, 1, 65, 0
5, 23340, Note_on_c, 1, 67, 88
5, 23398, Note_off_c, 1, 67, 0
5, 23400, Note_on_c, 1, 64, 88
5, 23458, Note_off_c, 1, 64, 0
5, 23460, Note_on_c, 1, 65, 88
5, 23518, Note_off_c, 1, 65, 0
5, 23520, Note_on_c, 1, 62, 88
5, 23578, Note_off_c, 1, 62, 0
5, 23580, Note_on_c, 1, 65, 88
5, 23638, Note_off_c, 1, 65, 0
5, 23640, Note_on_c, 1, 64, 88
5, 23698, Note_off_c, 1, 64, 0
5, 23700, Note_on_c, 1, 65, 88
5, 23758, Note_off_c, 1, 65, 0
5, 23760, Note_on_c, 1, 67, 88
5, 23818, Note_off_c, 1, 67, 0
5, 23820, Note_on_c, 1, 69, 88
5, 23878, Note_off_c, 1, 69, 0
5, 23880, Note_on_c, 1, 65, 88
5, 23938, Note_off_c, 1, 65, 0
5, 23940, Note_on_c, 1, 67, 88
5, 23998, Note_off_c, 1, 67, 0
5, 24000, Note_on_c, 1, 64, 88
5, 24058, Note_off_c, 1, 64, 0
5, 24060, Note_on_c, 1, 62, 88
5, 24118, Note_off_c, 1, 62, 0
5, 24120, Note_on_c, 1, 64, 88
5, 24178, Note_off_c, 1, 64, 0
5, 24180, Note_on_c, 1, 65, 88
5, 24238, Note_off_c, 1, 65, 0
5, 24240, Note_on_c, 1, 64, 88
5, 24298, Note_off_c, 1, 64, 0
5, 24300, Note_on_c, 1, 65, 88
5, 24358, Note_off_c, 1, 65, 0
5, 24360, Note_on_c, 1, 62, 88
5, 24418, Note_off_c, 1, 62, 0
5, 24420, Note_on_c, 1, 64, 88
5, 24478, Note_off_c, 1, 64, 0
5, 24480, Note_on_c, 1, 60, 88
5, 24538, Note_off_c, 1, 60, 0
5, 24540, Note_on_c, 1, 59, 88
5, 24598, Note_off_c, 1, 59, 0
5, 24600, Note_on_c, 1, 60, 88
5, 24658, Note_off_c, 1, 60, 0
5, 24660, Note_on_c, 1, 62, 88
5, 24718, Note_off_c, 1, 62, 0
5, 24720, Note_on_c, 1, 60, 88
5, 24778, Note_off_c, 1, 60, 0
5, 24780, Note_on_c, 1, 62, 88
5, 24838, Note_off_c, 1, 62, 0
5, 24840, Note_on_c, 1, 59, 88
5, 24898, Note_off_c, 1, 59, 0
5, 24900, Note_on_c, 1, 60, 88
5, 24958, Note_off_c, 1, 60, 0
5, 24960, Note_on_c, 1, 57, 88
5, 25018, Note_off_c, 1, 57, 0
5, 25020, Note_on_c, 1, 59, 88
5, 25078, Note_off_c, 1, 59, 0
5, 25080, Note_on_c, 1, 60, 88
5, 25138, Note_off_c, 1, 60, 0
5, 25140, Note_on_c, 1, 62, 88
5, 25198, Note_off_c, 1, 62, 0
5, 25200, Note_on_c, 1, 64, 88
5, 25258, Note_off_c, 1, 64, 0
5, 25260, Note_on_c, 1, 66, 88
5, 25318, Note_off_c, 1, 66, 0
5, 25320, Note_on_c, 1, 67, 88
5, 25545, Note_off_c, 1, 67, 0
5, 25560, Note_on_c, 1, 67, 88
5, 25794, Note_off_c, 1, 67, 0
5, 25800, Note_on_c, 1, 66, 88
5, 25916, Note_off_c, 1, 66, 0
5, 25920, Note_on_c, 1, 67, 88
5, 26154, Note_off_c, 1, 67, 0
5, 26520, Note_on_c, 1, 67, 88
5, 26578, Note_off_c, 1, 67, 0
5, 26580, Note_on_c, 1, 65, 88
5, 26638, Note_off_c, 1, 65, 0
5, 26640, Note_on_c, 1, 67, 88
5, 26756, Note_off_c, 1, 67, 0
5, 26760, Note_on_c, 1, 60, 88
5, 26876, Note_off_c, 1, 60, 0
5, 26880, Note_on_c, 1, 69, 88
5, 27114, Note_off_c, 1, 69, 0
5, 27120, Note_on_c, 1, 67, 88
5, 27354, Note_off_c, 1, 67, 0
5, 27360, Note_on_c, 1, 65, 88
5, 27476, Note_off_c, 1, 65, 0
5, 27480, Note_on_c, 1, 69, 88
5, 27538, Note_off_c, 1, 69, 0
5, 27540, Note_on_c, 1, 67, 88
5, 27598, Note_off_c, 1, 67, 0
5, 27600, Note_on_c, 1, 69, 88
5, 27716, Note_off_c, 1, 69, 0
5, 27720, Note_on_c, 1, 64, 88
5, 27836, Note_off_c, 1, 64, 0
5, 27840, Note_on_c, 1, 71, 88
5, 28074, Note_off_c, 1, 71, 0
5, 28080, Note_on_c, 1, 69, 88
5, 28314, Note_off_c, 1, 69, 0
5, 28320, Note_on_c, 1, 67, 88
5, 28436, Note_off_c, 1, 67, 0
5, 28440, Note_on_c, 1, 71, 88
5, 28498, Note_off_c, 1, 71, 0
5, 28500, Note_on_c, 1, 69, 88
5, 28558, Note_off_c, 1, 69, 0
5, 28560, Note_on_c, 1, 71, 88
5, 28676, Note_off_c, 1, 71, 0
5, 28680, Note_on_c, 1, 67, 88
5, 28796, Note_off_c, 1, 67, 0
5, 28800, Note_on_c, 1, 72, 88
5, 29034, Note_off_c, 1, 72, 0
5, 29040, Note_on_c, 1, 70, 88
5, 29274, Note_off_c, 1, 70, 0
5, 29280, Note_on_c, 1, 69, 88
5, 29750, Note_off_c, 1, 69, 0
5, 29760, Note_on_c, 1, 67, 88
5, 30230, Note_off_c, 1, 67, 0
5, 30240, Note_on_c, 1, 65, 88
5, 30954, Note_off_c, 1, 65, 0
5, 30960, Note_on_c, 1, 64, 88
5, 31194, Note_off_c, 1, 64, 0
5, 31200, Note_on_c, 1, 62, 88
5, 31494, Note_off_c, 1, 62, 0
5, 31500, Note_on_c, 1, 65, 88
5, 31558, Note_off_c, 1, 65, 0
5, 31560, Note_on_c, 1, 64, 88
5, 31618, Note_off_c, 1, 64, 0
5, 31620, Note_on_c, 1, 62, 88
5, 31678, Note_off_c, 1, 62, 0
5, 31680, Note_on_c, 1, 67, 88
5, 31738, Note_off_c, 1, 67, 0
5, 31740, Note_on_c, 1, 69, 88
5, 31798, Note_off_c, 1, 69, 0
5, 31800, Note_on_c, 1, 65, 88
5, 31858, Note_off_c, 1, 65, 0
5, 31860, Note_on_c, 1, 67, 88
5, 31918, Note_off_c, 1, 67, 0
5, 31920, Note_on_c, 1, 64, 88
5, 32036, Note_off_c, 1, 64, 0
5, 32040, Note_on_c, 1, 62, 88
5, 32156, Note_off_c, 1, 62, 0
5, 32160, Note_on_c, 1, 60, 88
5, 33705, Note_off_c, 1, 60, 0
5, 33720, Note_on_c, 1, 60, 88
5, 33954, Note_off_c, 1, 60, 0
5, 33960, Note_on_c, 1, 59, 88
5, 34076, Note_off_c, 1, 59, 0
5, 34080, Note_on_c, 1, 60, 88
5, 34196, Note_off_c, 1, 60, 0
5, 34200, Note_on_c, 1, 55, 88
5, 34258, Note_off_c, 1, 55, 0
5, 34260, Note_on_c, 1, 53, 88
5, 34318, Note_off_c, 1, 53, 0
5, 34320, Note_on_c, 1, 55, 88
5, 34436, Note_off_c, 1, 55, 0
5, 34440, Note_on_c, 1, 48, 88
5, 34556, Note_off_c, 1, 48, 0
5, 34560, Note_on_c, 1, 57, 88
5, 34794, Note_off_c, 1, 57, 0
5, 34800, Note_on_c, 1, 55, 88
5, 35034, Note_off_c, 1, 55, 0
5, 35160, Note_on_c, 1, 53, 88
5, 35218, Note_off_c, 1, 53, 0
5, 35220, Note_on_c, 1, 52, 88
5, 35278, Note_off_c, 1, 52, 0
5, 35280, Note_on_c, 1, 53, 88
5, 35396, Note_off_c, 1, 53, 0
5, 35400, Note_on_c, 1, 50, 88
5, 35516, Note_off_c, 1, 50, 0
5, 35520, Note_on_c, 1, 55, 88
5, 35754, Note_off_c, 1, 55, 0
5, 35760, Note_on_c, 1, 57, 88
5, 35876, Note_off_c, 1, 57, 0
5, 35880, Note_on_c, 1, 59, 88
5, 35996, Note_off_c, 1, 59, 0
5, 36000, Note_on_c, 1, 60, 88
5, 36116, Note_off_c, 1, 60, 0
5, 36120, Note_on_c, 1, 58, 88
5, 36178, Note_off_c, 1, 58, 0
5, 36180, Note_on_c, 1, 57, 88
5, 36238, Note_off_c, 1, 57, 0
5, 36240, Note_on_c, 1, 58, 88
5, 36356, Note_off_c, 1, 58, 0
5, 36360, Note_on_c, 1, 64, 88
5, 36476, Note_off_c, 1, 64, 0
5, 36480, Note_on_c, 1, 65, 88
5, 36714, Note_off_c, 1, 65, 0
5, 36720, Note_on_c, 1, 64, 88
5, 36954, Note_off_c, 1, 64, 0
5, 37560, Note_on_c, 1, 62, 88
5, 37618, Note_off_c, 1, 62, 0
5, 37620, Note_on_c, 1, 60, 88
5, 37678, Note_off_c, 1, 60, 0
5, 37680, Note_on_c, 1, 62, 88
5, 37796, Note_off_c, 1, 62, 0
5, 37800, Note_on_c, 1, 55, 88
5, 37916, Note_off_c, 1, 55, 0
5, 37920, Note_on_c, 1, 60, 88
5, 38036, Note_off_c, 1, 60, 0
5, 38040, Note_on_c, 1, 65, 88
5, 38156, Note_off_c, 1, 65, 0
5, 38160, Note_on_c, 1, 64, 88
5, 38276, Note_off_c, 1, 64, 0
5, 38280, Note_on_c, 1, 68, 88
5, 38396, Note_off_c, 1, 68, 0
5, 38400, Note_on_c, 1, 67, 88
5, 38516, Note_off_c, 1, 67, 0
5, 38520, Note_on_c, 1, 62, 88
5, 38636, Note_off_c, 1, 62, 0
5, 38640, Note_on_c, 1, 60, 88
5, 38756, Note_off_c, 1, 60, 0
5, 38760, Note_on_c, 1, 64, 88
5, 38876, Note_off_c, 1, 64, 0
5, 38880, Note_on_c, 1, 62, 88
5, 38996, Note_off_c, 1, 62, 0
5, 39120, Note_on_c, 1, 62, 88
5, 39236, Note_off_c, 1, 62, 0
5, 39360, Note_on_c, 1, 64, 88
5, 39360, Note_on_c, 1, 67, 88
5, 39830, Note_off_c, 1, 64, 0
5, 39830, Note_off_c, 1, 67, 0
5, 39830, End_track
6, 0, Start_track
6, 0, Title_t, "Track 3"
6, 0, Program_c, 2, 6
6, 38040, Note_on_c, 2, 59, 88
6, 38156, Note_off_c, 2, 59, 0
6, 38160, Note_on_c, 2, 60, 88
6, 38276, Note_off_c, 2, 60, 0
6, 38280, Note_on_c, 2, 62, 88
6, 38396, Note_off_c, 2, 62, 0
6, 38400, Note_on_c, 2, 64, 88
6, 38516, Note_off_c, 2, 64, 0
6, 38520, Note_on_c, 2, 59, 88
6, 38636, Note_off_c, 2, 59, 0
6, 38640, Note_on_c, 2, 64, 88
6, 38756, Note_off_c, 2, 64, 0
6, 38880, Note_on_c, 2, 57, 88
6, 38996, Note_off_c, 2, 57, 0
6, 39120, Note_on_c, 2, 55, 88
6, 39236, Note_off_c, 2, 55, 0
6, 39360, Note_on_c, 2, 60, 88
6, 39830, Note_off_c, 2, 60, 0
6, 39830, End_track
7, 0, Start_track
7, 0, Title_t, "Track 4"
7, 0, Program_c, 3, 6
7, 3960, Note_on_c, 3, 55, 88
7, 4018, Note_off_c, 3, 55, 0
7, 4020, Note_on_c, 3, 53, 88
7, 4078, Note_off_c, 3, 53, 0
7, 4080, Note_on_c, 3, 55, 88
7, 4196, Note_off_c, 3, 55, 0
7, 4200, Note_on_c, 3, 48, 88
7, 4316, Note_off_c, 3, 48, 0
7, 4320, Note_on_c, 3, 57, 88
7, 4342, Note_off_c, 3, 57, 0
7, 4343, Note_on_c, 3, 55, 88
7, 4372, Note_off_c, 3, 55, 0
7, 4373, Note_on_c, 3, 57, 88
7, 4555, Note_off_c, 3, 57, 0
7, 4560, Note_on_c, 3, 55, 88
7, 4794, Note_off_c, 3, 55, 0
7, 4920, Note_on_c, 3, 53, 88
7, 4978, Note_off_c, 3, 53, 0
7, 4980, Note_on_c, 3, 52, 88
7, 5038, Note_off_c, 3, 52, 0
7, 5040, Note_on_c, 3, 53, 88
7, 5098, Note_off_c, 3, 53, 0
7, 5100, Note_on_c, 3, 55, 88
7, 5158, Note_off_c, 3, 55, 0
7, 5160, Note_on_c, 3, 52, 88
7, 5218, Note_off_c, 3, 52, 0
7, 5220, Note_on_c, 3, 53, 88
7, 5278, Note_off_c, 3, 53, 0
7, 5280, Note_on_c, 3, 50, 88
7, 5338, Note_off_c, 3, 50, 0
7, 5340, Note_on_c, 3, 53, 88
7, 5398, Note_off_c, 3, 53, 0
7, 5400, Note_on_c, 3, 52, 88
7, 5458, Note_off_c, 3, 52, 0
7, 5460, Note_on_c, 3, 53, 88
7, 5518, Note_off_c, 3, 53, 0
7, 5520, Note_on_c, 3, 55, 88
7, 5578, Note_off_c, 3, 55, 0
7, 5580, Note_on_c, 3, 57, 88
7, 5638, Note_off_c, 3, 57, 0
7, 5640, Note_on_c, 3, 53, 88
7, 5698, Note_off_c, 3, 53, 0
7, 5700, Note_on_c, 3, 55, 88
7, 5758, Note_off_c, 3, 55, 0
7, 5760, Note_on_c, 3, 52, 88
7, 5818, Note_off_c, 3, 52, 0
7, 5820, Note_on_c, 3, 50, 88
7, 5878, Note_off_c, 3, 50, 0
7, 5880, Note_on_c, 3, 52, 88
7, 5938, Note_off_c, 3, 52, 0
7, 5940, Note_on_c, 3, 53, 88
7, 5998, Note_off_c, 3, 53, 0
7, 6000, Note_on_c, 3, 52, 88
7, 6058, Note_off_c, 3, 52, 0
7, 6060, Note_on_c, 3, 53, 88
7, 6118, Note_off_c, 3, 53, 0
7, 6120, Note_on_c, 3, 50, 88
7, 6178, Note_off_c, 3, 50, 0
7, 6180, Note_on_c, 3, 52, 88
7, 6238, Note_off_c, 3, 52, 0
7, 6240, Note_on_c, 3, 53, 88
7, 6298, Note_off_c, 3, 53, 0
7, 6300, Note_on_c, 3, 52, 88
7, 6358, Note_off_c, 3, 52, 0
7, 6360, Note_on_c, 3, 53, 88
7, 6418, Note_off_c, 3, 53, 0
7, 6420, Note_on_c, 3, 55, 88
7, 6478, Note_off_c, 3, 55, 0
7, 6480, Note_on_c, 3, 53, 88
7, 6538, Note_off_c, 3, 53, 0
7, 6540, Note_on_c, 3, 55, 88
7, 6598, Note_off_c, 3, 55, 0
7, 6600, Note_on_c, 3, 52, 88
7, 6658, Note_off_c, 3, 52, 0
7, 6660, Note_on_c, 3, 53, 88
7, 6718, Note_off_c, 3, 53, 0
7, 6720, Note_on_c, 3, 50, 88
7, 6778, Note_off_c, 3, 50, 0
7, 6780, Note_on_c, 3, 49, 88
7, 6838, Note_off_c, 3, 49, 0
7, 6840, Note_on_c, 3, 50, 88
7, 6898, Note_off_c, 3, 50, 0
7, 6900, Note_on_c, 3, 52, 88
7, 6958, Note_off_c, 3, 52, 0
7, 6960, Note_on_c, 3, 54, 88
7, 7018, Note_off_c, 3, 54, 0
7, 7020, Note_on_c, 3, 55, 88
7, 7078, Note_off_c, 3, 55, 0
7, 7080, Note_on_c, 3, 52, 88
7, 7138, Note_off_c, 3, 52, 0
7, 7140, Note_on_c, 3, 54, 88
7, 7198, Note_off_c, 3, 54, 0
7, 7200, Note_on_c, 3, 55, 88
7, 7258, Note_off_c, 3, 55, 0
7, 7260, Note_on_c, 3, 54, 88
7, 7318, Note_off_c, 3, 54, 0
7, 7320, Note_on_c, 3, 55, 88
7, 7378, Note_off_c, 3, 55, 0
7, 7380, Note_on_c, 3, 57, 88
7, 7438, Note_off_c, 3, 57, 0
7, 7440, Note_on_c, 3, 55, 88
7, 7498, Note_off_c, 3, 55, 0
7, 7500, Note_on_c, 3, 57, 88
7, 7558, Note_off_c, 3, 57, 0
7, 7560, Note_on_c, 3, 53, 88
7, 7618, Note_off_c, 3, 53, 0
7, 7620, Note_on_c, 3, 55, 88
7, 7678, Note_off_c, 3, 55, 0
7, 7680, Note_on_c, 3, 52, 88
7, 7738, Note_off_c, 3, 52, 0
7, 7740, Note_on_c, 3, 50, 88
7, 7798, Note_off_c, 3, 50, 0
7, 7800, Note_on_c, 3, 52, 88
7, 7858, Note_off_c, 3, 52, 0
7, 7860, Note_on_c, 3, 54, 88
7, 7918, Note_off_c, 3, 54, 0
7, 7920, Note_on_c, 3, 56, 88
7, 7978, Note_off_c, 3, 56, 0
7, 7980, Note_on_c, 3, 57, 88
7, 8038, Note_off_c, 3, 57, 0
7, 8040, Note_on_c, 3, 54, 88
7, 8098, Note_off_c, 3, 54, 0
7, 8100, Note_on_c, 3, 56, 88
7, 8158, Note_off_c, 3, 56, 0
7, 8160, Note_on_c, 3, 57, 88
7, 8218, Note_off_c, 3, 57, 0
7, 8220, Note_on_c, 3, 56, 88
7, 8278, Note_off_c, 3, 56, 0
7, 8280, Note_on_c, 3, 57, 88
7, 8338, Note_off_c, 3, 57, 0
7, 8340, Note_on_c, 3, 59, 88
7, 8398, Note_off_c, 3, 59, 0
7, 8400, Note_on_c, 3, 57, 88
7, 8458, Note_off_c, 3, 57, 0
7, 8460, Note_on_c, 3, 59, 88
7, 8518, Note_off_c, 3, 59, 0
7, 8520, Note_on_c, 3, 55, 88
7, 8578, Note_off_c, 3, 55, 0
7, 8580, Note_on_c, 3, 57, 88
7, 8638, Note_off_c, 3, 57, 0
7, 8640, Note_on_c, 3, 54, 88
7, 8698, Note_off_c, 3, 54, 0
7, 8700, Note_on_c, 3, 55, 88
7, 8758, Note_off_c, 3, 55, 0
7, 8760, Note_on_c, 3, 52, 88
7, 8818, Note_off_c, 3, 52, 0
7, 8820, Note_on_c, 3, 54, 88
7, 8878, Note_off_c, 3, 54, 0
7, 8880, Note_on_c, 3, 55, 88
7, 8938, Note_off_c, 3, 55, 0
7, 8940, Note_on_c, 3, 57, 88
7, 8998, Note_off_c, 3, 57, 0
7, 9000, Note_on_c, 3, 59, 88
7, 9058, Note_off_c, 3, 59, 0
7, 9060, Note_on_c, 3, 55, 88
7, 9118, Note_off_c, 3, 55, 0
7, 9120, Note_on_c, 3, 60, 88
7, 9178, Note_off_c, 3, 60, 0
7, 9180, Note_on_c, 3, 59, 88
7, 9238, Note_off_c, 3, 59, 0
7, 9240, Note_on_c, 3, 60, 88
7, 9298, Note_off_c, 3, 60, 0
7, 9300, Note_on_c, 3, 62, 88
7, 9358, Note_off_c, 3, 62, 0
7, 9360, Note_on_c, 3, 60, 88
7, 9418, Note_off_c, 3, 60, 0
7, 9420, Note_on_c, 3, 62, 88
7, 9478, Note_off_c, 3, 62, 0
7, 9480, Note_on_c, 3, 59, 88
7, 9538, Note_off_c, 3, 59, 0
7, 9540, Note_on_c, 3, 60, 88
7, 9598, Note_off_c, 3, 60, 0
7, 9600, Note_on_c, 3, 62, 88
7, 10070, Note_off_c, 3, 62, 0
7, 10080, Note_on_c, 3, 55, 88
7, 10196, Note_off_c, 3, 55, 0
7, 10200, Note_on_c, 3, 67, 88
7, 10258, Note_off_c, 3, 67, 0
7, 10260, Note_on_c, 3, 65, 88
7, 10318, Note_off_c, 3, 65, 0
7, 10320, Note_on_c, 3, 67, 88
7, 10378, Note_off_c, 3, 67, 0
7, 10380, Note_on_c, 3, 69, 88
7, 10438, Note_off_c, 3, 69, 0
7, 10440, Note_on_c, 3, 65, 88
7, 10498, Note_off_c, 3, 65, 0
7, 10500, Note_on_c, 3, 67, 88
7, 10558, Note_off_c, 3, 67, 0
7, 10560, Note_on_c, 3, 64, 88
7, 11030, Note_off_c, 3, 64, 0
7, 11160, Note_on_c, 3, 62, 88
7, 11276, Note_off_c, 3, 62, 0
7, 11280, Note_on_c, 3, 53, 88
7, 11396, Note_off_c, 3, 53, 0
7, 11400, Note_on_c, 3, 57, 88
7, 11516, Note_off_c, 3, 57, 0
7, 11520, Note_on_c, 3, 50, 88
7, 11636, Note_off_c, 3, 50, 0
7, 18360, Note_on_c, 3, 48, 88
7, 18418, Note_off_c, 3, 48, 0
7, 18420, Note_on_c, 3, 47, 88
7, 18478, Note_off_c, 3, 47, 0
7, 18480, Note_on_c, 3, 48, 88
7, 18596, Note_off_c, 3, 48, 0
7, 18600, Note_on_c, 3, 43, 88
7, 18716, Note_off_c, 3, 43, 0
7, 18720, Note_on_c, 3, 52, 88
7, 18954, Note_off_c, 3, 52, 0
7, 18960, Note_on_c, 3, 50, 88
7, 19194, Note_off_c, 3, 50, 0
7, 19320, Note_on_c, 3, 48, 88
7, 19378, Note_off_c, 3, 48, 0
7, 19380, Note_on_c, 3, 47, 88
7, 19438, Note_off_c, 3, 47, 0
7, 19440, Note_on_c, 3, 48, 88
7, 19498, Note_off_c, 3, 48, 0
7, 19500, Note_on_c, 3, 50, 88
7, 19558, Note_off_c, 3, 50, 0
7, 19560, Note_on_c, 3, 47, 88
7, 19618, Note_off_c, 3, 47, 0
7, 19620, Note_on_c, 3, 48, 88
7, 19678, Note_off_c, 3, 48, 0
7, 19680, Note_on_c, 3, 45, 88
7, 19738, Note_off_c, 3, 45, 0
7, 19740, Note_on_c, 3, 48, 88
7, 19798, Note_off_c, 3, 48, 0
7, 19800, Note_on_c, 3, 47, 88
7, 19858, Note_off_c, 3, 47, 0
7, 19860, Note_on_c, 3, 48, 88
7, 19918, Note_off_c, 3, 48, 0
7, 19920, Note_on_c, 3, 50, 88
7, 19978, Note_off_c, 3, 50, 0
7, 19980, Note_on_c, 3, 52, 88
7, 20038, Note_off_c, 3, 52, 0
7, 20040, Note_on_c, 3, 48, 88
7, 20098, Note_off_c, 3, 48, 0
7, 20100, Note_on_c, 3, 50, 88
7, 20158, Note_off_c, 3, 50, 0
7, 20160, Note_on_c, 3, 47, 88
7, 20218, Note_off_c, 3, 47, 0
7, 20220, Note_on_c, 3, 50, 88
7, 20278, Note_off_c, 3, 50, 0
7, 20280, Note_on_c, 3, 48, 88
7, 20338, Note_off_c, 3, 48, 0
7, 20340, Note_on_c, 3, 50, 88
7, 20398, Note_off_c, 3, 50, 0
7, 20400, Note_on_c, 3, 52, 88
7, 20458, Note_off_c, 3, 52, 0
7, 20460, Note_on_c, 3, 53, 88
7, 20518, Note_off_c, 3, 53, 0
7, 20520, Note_on_c, 3, 50, 88
7, 20578, Note_off_c, 3, 50, 0
7, 20580, Note_on_c, 3, 52, 88
7, 20638, Note_off_c, 3, 52, 0
7, 20640, Note_on_c, 3, 48, 88
7, 20698, Note_off_c, 3, 48, 0
7, 20700, Note_on_c, 3, 52, 88
7, 20758, Note_off_c, 3, 52, 0
7, 20760, Note_on_c, 3, 50, 88
7, 20818, Note_off_c, 3, 50, 0
7, 20820, Note_on_c, 3, 52, 88
7, 20878, Note_off_c, 3, 52, 0
7, 20880, Note_on_c, 3, 53, 88
7, 20938, Note_off_c, 3, 53, 0
7, 20940, Note_on_c, 3, 55, 88
7, 20998, Note_off_c, 3, 55, 0
7, 21000, Note_on_c, 3, 52, 88
7, 21058, Note_off_c, 3, 52, 0
7, 21060, Note_on_c, 3, 53, 88
7, 21118, Note_off_c, 3, 53, 0
7, 21120, Note_on_c, 3, 50, 88
7, 21178, Note_off_c, 3, 50, 0
7, 21180, Note_on_c, 3, 53, 88
7, 21238, Note_off_c, 3, 53, 0
7, 21240, Note_on_c, 3, 52, 88
7, 21298, Note_off_c, 3, 52, 0
7, 21300, Note_on_c, 3, 53, 88
7, 21358, Note_off_c, 3, 53, 0
7, 21360, Note_on_c, 3, 55, 88
7, 21418, Note_off_c, 3, 55, 0
7, 21420, Note_on_c, 3, 57, 88
7, 21478, Note_off_c, 3, 57, 0
7, 21480, Note_on_c, 3, 53, 88
7, 21538, Note_off_c, 3, 53, 0
7, 21540, Note_on_c, 3, 55, 88
7, 21598, Note_off_c, 3, 55, 0
7, 21600, Note_on_c, 3, 52, 88
7, 21658, Note_off_c, 3, 52, 0
7, 21660, Note_on_c, 3, 50, 88
7, 21718, Note_off_c, 3, 50, 0
7, 21720, Note_on_c, 3, 52, 88
7, 21778, Note_off_c, 3, 52, 0
7, 21780, Note_on_c, 3, 53, 88
7, 21838, Note_off_c, 3, 53, 0
7, 21840, Note_on_c, 3, 52, 88
7, 21898, Note_off_c, 3, 52, 0
7, 21900, Note_on_c, 3, 53, 88
7, 21958, Note_off_c, 3, 53, 0
7, 21960, Note_on_c, 3, 50, 88
7, 22018, Note_off_c, 3, 50, 0
7, 22020, Note_on_c, 3, 52, 88
7, 22078, Note_off_c, 3, 52, 0
7, 22080, Note_on_c, 3, 48, 88
7, 22138, Note_off_c, 3, 48, 0
7, 22140, Note_on_c, 3, 50, 88
7, 22198, Note_off_c, 3, 50, 0
7, 22200, Note_on_c, 3, 52, 88
7, 22258, Note_off_c, 3, 52, 0
7, 22260, Note_on_c, 3, 50, 88
7, 22318, Note_off_c, 3, 50, 0
7, 22320, Note_on_c, 3, 48, 88
7, 22378, Note_off_c, 3, 48, 0
7, 22380, Note_on_c, 3, 46, 88
7, 22438, Note_off_c, 3, 46, 0
7, 22440, Note_on_c, 3, 45, 88
7, 22498, Note_off_c, 3, 45, 0
7, 22500, Note_on_c, 3, 43, 88
7, 22558, Note_off_c, 3, 43, 0
7, 22560, Note_on_c, 3, 41, 88
7, 22618, Note_off_c, 3, 41, 0
7, 22620, Note_on_c, 3, 40, 88
7, 22678, Note_off_c, 3, 40, 0
7, 22680, Note_on_c, 3, 41, 88
7, 22738, Note_off_c, 3, 41, 0
7, 22740, Note_on_c, 3, 43, 88
7, 22798, Note_off_c, 3, 43, 0
7, 22800, Note_on_c, 3, 41, 88
7, 22858, Note_off_c, 3, 41, 0
7, 22860, Note_on_c, 3, 43, 88
7, 22918, Note_off_c, 3, 43, 0
7, 22920, Note_on_c, 3, 40, 88
7, 22978, Note_off_c, 3, 40, 0
7, 22980, Note_on_c, 3, 41, 88
7, 23038, Note_off_c, 3, 41, 0
7, 23040, Note_on_c, 3, 38, 88
7, 23098, Note_off_c, 3, 38, 0
7, 23100, Note_on_c, 3, 45, 88
7, 23158, Note_off_c, 3, 45, 0
7, 23160, Note_on_c, 3, 47, 88
7, 23218, Note_off_c, 3, 47, 0
7, 23220, Note_on_c, 3, 48, 88
7, 23278, Note_off_c, 3, 48, 0
7, 23280, Note_on_c, 3, 50, 88
7, 23338, Note_off_c, 3, 50, 0
7, 23340, Note_on_c, 3, 52, 88
7, 23398, Note_off_c, 3, 52, 0
7, 23400, Note_on_c, 3, 53, 88
7, 23458, Note_off_c, 3, 53, 0
7, 23460, Note_on_c, 3, 50, 88
7, 23518, Note_off_c, 3, 50, 0
7, 23520, Note_on_c, 3, 55, 88
7, 24950, Note_off_c, 3, 55, 0
7, 25320, Note_on_c, 3, 59, 88
7, 25436, Note_off_c, 3, 59, 0
7, 25440, Note_on_c, 3, 60, 88
7, 25556, Note_off_c, 3, 60, 0
7, 25560, Note_on_c, 3, 57, 88
7, 25676, Note_off_c, 3, 57, 0
7, 25680, Note_on_c, 3, 62, 88
7, 25796, Note_off_c, 3, 62, 0
7, 25800, Note_on_c, 3, 50, 88
7, 25916, Note_off_c, 3, 50, 0
7, 25920, Note_on_c, 3, 43, 88
7, 25978, Note_off_c, 3, 43, 0
7, 25980, Note_on_c, 3, 42, 88
7, 26038, Note_off_c, 3, 42, 0
7, 26040, Note_on_c, 3, 43, 88
7, 26098, Note_off_c, 3, 43, 0
7, 26100, Note_on_c, 3, 45, 88
7, 26158, Note_off_c, 3, 45, 0
7, 26160, Note_on_c, 3, 47, 88
7, 26218, Note_off_c, 3, 47, 0
7, 26220, Note_on_c, 3, 48, 88
7, 26278, Note_off_c, 3, 48, 0
7, 26280, Note_on_c, 3, 45, 88
7, 26338, Note_off_c, 3, 45, 0
7, 26340, Note_on_c, 3, 47, 88
7, 26398, Note_off_c, 3, 47, 0
7, 26400, Note_on_c, 3, 48, 88
7, 26458, Note_off_c, 3, 48, 0
7, 26460, Note_on_c, 3, 47, 88
7, 26518, Note_off_c, 3, 47, 0
7, 26520, Note_on_c, 3, 48, 88
7, 26578, Note_off_c, 3, 48, 0
7, 26580, Note_on_c, 3, 50, 88
7, 26638, Note_off_c, 3, 50, 0
7, 26640, Note_on_c, 3, 48, 88
7, 26698, Note_off_c, 3, 48, 0
7, 26700, Note_on_c, 3, 50, 88
7, 26758, Note_off_c, 3, 50, 0
7, 26760, Note_on_c, 3, 47, 88
7, 26818, Note_off_c, 3, 47, 0
7, 26820, Note_on_c, 3, 48, 88
7, 26878, Note_off_c, 3, 48, 0
7, 26880, Note_on_c, 3, 45, 88
7, 26938, Note_off_c, 3, 45, 0
7, 26940, Note_on_c, 3, 44, 88
7, 26998, Note_off_c, 3, 44, 0
7, 27000, Note_on_c, 3, 45, 88
7, 27058, Note_off_c, 3, 45, 0
7, 27060, Note_on_c, 3, 47, 88
7, 27118, Note_off_c, 3, 47, 0
7, 27120, Note_on_c, 3, 48, 88
7, 27178, Note_off_c, 3, 48, 0
7, 27180, Note_on_c, 3, 50, 88
7, 27238, Note_off_c, 3, 50, 0
7, 27240, Note_on_c, 3, 47, 88
7, 27298, Note_off_c, 3, 47, 0
7, 27300, Note_on_c, 3, 48, 88
7, 27358, Note_off_c, 3, 48, 0
7, 27360, Note_on_c, 3, 50, 88
7, 27418, Note_off_c, 3, 50, 0
7, 27420, Note_on_c, 3, 48, 88
7, 27478, Note_off_c, 3, 48, 0
7, 27480, Note_on_c, 3, 50, 88
7, 27538, Note_off_c, 3, 50, 0
7, 27540, Note_on_c, 3, 52, 88
7, 27598, Note_off_c, 3, 52, 0
7, 27600, Note_on_c, 3, 50, 88
7, 27658, Note_off_c, 3, 50, 0
7, 27660, Note_on_c, 3, 52, 88
7, 27718, Note_off_c, 3, 52, 0
7, 27720, Note_on_c, 3, 48, 88
7, 27778, Note_off_c, 3, 48, 0
7, 27780, Note_on_c, 3, 50, 88
7, 27838, Note_off_c, 3, 50, 0
7, 27840, Note_on_c, 3, 47, 88
7, 27898, Note_off_c, 3, 47, 0
7, 27900, Note_on_c, 3, 45, 88
7, 27958, Note_off_c, 3, 45, 0
7, 27960, Note_on_c, 3, 47, 88
7, 28018, Note_off_c, 3, 47, 0
7, 28020, Note_on_c, 3, 48, 88
7, 28078, Note_off_c, 3, 48, 0
7, 28080, Note_on_c, 3, 50, 88
7, 28138, Note_off_c, 3, 50, 0
7, 28140, Note_on_c, 3, 52, 88
7, 28198, Note_off_c, 3, 52, 0
7, 28200, Note_on_c, 3, 48, 88
7, 28258, Note_off_c, 3, 48, 0
7, 28260, Note_on_c, 3, 50, 88
7, 28318, Note_off_c, 3, 50, 0
7, 28320, Note_on_c, 3, 52, 88
7, 28378, Note_off_c, 3, 52, 0
7, 28380, Note_on_c, 3, 50, 88
7, 28438, Note_off_c, 3, 50, 0
7, 28440, Note_on_c, 3, 52, 88
7, 28498, Note_off_c, 3, 52, 0
7, 28500, Note_on_c, 3, 53, 88
7, 28558, Note_off_c, 3, 53, 0
7, 28560, Note_on_c, 3, 52, 88
7, 28618, Note_off_c, 3, 52, 0
7, 28620, Note_on_c, 3, 53, 88
7, 28678, Note_off_c, 3, 53, 0
7, 28680, Note_on_c, 3, 50, 88
7, 28738, Note_off_c, 3, 50, 0
7, 28740, Note_on_c, 3, 52, 88
7, 28798, Note_off_c, 3, 52, 0
7, 28800, Note_on_c, 3, 48, 88
7, 28858, Note_off_c, 3, 48, 0
7, 28860, Note_on_c, 3, 47, 88
7, 28918, Note_off_c, 3, 47, 0
7, 28920, Note_on_c, 3, 48, 88
7, 28978, Note_off_c, 3, 48, 0
7, 28980, Note_on_c, 3, 50, 88
7, 29038, Note_off_c, 3, 50, 0
7, 29040, Note_on_c, 3, 52, 88
7, 29098, Note_off_c, 3, 52, 0
7, 29100, Note_on_c, 3, 53, 88
7, 29158, Note_off_c, 3, 53, 0
7, 29160, Note_on_c, 3, 50, 88
7, 29218, Note_off_c, 3, 50, 0
7, 29220, Note_on_c, 3, 52, 88
7, 29278, Note_off_c, 3, 52, 0
7, 29280, Note_on_c, 3, 53, 88
7, 29338, Note_off_c, 3, 53, 0
7, 29340, Note_on_c, 3, 55, 88
7, 29398, Note_off_c, 3, 55, 0
7, 29400, Note_on_c, 3, 53, 88
7, 29458, Note_off_c, 3, 53, 0
7, 29460, Note_on_c, 3, 52, 88
7, 29518, Note_off_c, 3, 52, 0
7, 29520, Note_on_c, 3, 50, 88
7, 29578, Note_off_c, 3, 50, 0
7, 29580, Note_on_c, 3, 48, 88
7, 29638, Note_off_c, 3, 48, 0
7, 29640, Note_on_c, 3, 47, 88
7, 29698, Note_off_c, 3, 47, 0
7, 29700, Note_on_c, 3, 45, 88
7, 29758, Note_off_c, 3, 45, 0
7, 29760, Note_on_c, 3, 47, 88
7, 29818, Note_off_c, 3, 47, 0
7, 29820, Note_on_c, 3, 43, 88
7, 29878, Note_off_c, 3, 43, 0
7, 29880, Note_on_c, 3, 45, 88
7, 29938, Note_off_c, 3, 45, 0
7, 29940, Note_on_c, 3, 47, 88
7, 29998, Note_off_c, 3, 47, 0
7, 30000, Note_on_c, 3, 48, 88
7, 30058, Note_off_c, 3, 48, 0
7, 30060, Note_on_c, 3, 50, 88
7, 30118, Note_off_c, 3, 50, 0
7, 30120, Note_on_c, 3, 47, 88
7, 30178, Note_off_c, 3, 47, 0
7, 30180, Note_on_c, 3, 48, 88
7, 30238, Note_off_c, 3, 48, 0
7, 30240, Note_on_c, 3, 45, 88
7, 30298, Note_off_c, 3, 45, 0
7, 30300, Note_on_c, 3, 48, 88
7, 30358, Note_off_c, 3, 48, 0
7, 30360, Note_on_c, 3, 47, 88
7, 30418, Note_off_c, 3, 47, 0
7, 30420, Note_on_c, 3, 48, 88
7, 30478, Note_off_c, 3, 48, 0
7, 30480, Note_on_c, 3, 50, 88
7, 30538, Note_off_c, 3, 50, 0
7, 30540, Note_on_c, 3, 52, 88
7, 30598, Note_off_c, 3, 52, 0
7, 30600, Note_on_c, 3, 53, 88
7, 30658, Note_off_c, 3, 53, 0
7, 30660, Note_on_c, 3, 50, 88
7, 30718, Note_off_c, 3, 50, 0
7, 30720, Note_on_c, 3, 55, 88
7, 30778, Note_off_c, 3, 55, 0
7, 30780, Note_on_c, 3, 57, 88
7, 30838, Note_off_c, 3, 57, 0
7, 30840, Note_on_c, 3, 53, 88
7, 30898, Note_off_c, 3, 53, 0
7, 30900, Note_on_c, 3, 55, 88
7, 30958, Note_off_c, 3, 55, 0
7, 30960, Note_on_c, 3, 57, 88
7, 31018, Note_off_c, 3, 57, 0
7, 31020, Note_on_c, 3, 59, 88
7, 31078, Note_off_c, 3, 59, 0
7, 31080, Note_on_c, 3, 55, 88
7, 31138, Note_off_c, 3, 55, 0
7, 31140, Note_on_c, 3, 57, 88
7, 31198, Note_off_c, 3, 57, 0
7, 31200, Note_on_c, 3, 53, 88
7, 31258, Note_off_c, 3, 53, 0
7, 31260, Note_on_c, 3, 55, 88
7, 31318, Note_off_c, 3, 55, 0
7, 31320, Note_on_c, 3, 52, 88
7, 31378, Note_off_c, 3, 52, 0
7, 31380, Note_on_c, 3, 53, 88
7, 31438, Note_off_c, 3, 53, 0
7, 31440, Note_on_c, 3, 55, 88
7, 31498, Note_off_c, 3, 55, 0
7, 31500, Note_on_c, 3, 57, 88
7, 31558, Note_off_c, 3, 57, 0
7, 31560, Note_on_c, 3, 53, 88
7, 31618, Note_off_c, 3, 53, 0
7, 31620, Note_on_c, 3, 55, 88
7, 31678, Note_off_c, 3, 55, 0
7, 31680, Note_on_c, 3, 52, 88
7, 31796, Note_off_c, 3, 52, 0
7, 31800, Note_on_c, 3, 53, 88
7, 31916, Note_off_c, 3, 53, 0
7, 31920, Note_on_c, 3, 55, 88
7, 32036, Note_off_c, 3, 55, 0
7, 32040, Note_on_c, 3, 56, 88
7, 32156, Note_off_c, 3, 56, 0
7, 32160, Note_on_c, 3, 45, 88
7, 32276, Note_off_c, 3, 45, 0
7, 32280, Note_on_c, 3, 55, 88
7, 32338, Note_off_c, 3, 55, 0
7, 32340, Note_on_c, 3, 53, 88
7, 32398, Note_off_c, 3, 53, 0
7, 32400, Note_on_c, 3, 55, 88
7, 32516, Note_off_c, 3, 55, 0
7, 32520, Note_on_c, 3, 48, 88
7, 32636, Note_off_c, 3, 48, 0
7, 32640, Note_on_c, 3, 57, 88
7, 32874, Note_off_c, 3, 57, 0
7, 32880, Note_on_c, 3, 55, 88
7, 33114, Note_off_c, 3, 55, 0
7, 33240, Note_on_c, 3, 53, 88
7, 33298, Note_off_c, 3, 53, 0
7, 33300, Note_on_c, 3, 52, 88
7, 33358, Note_off_c, 3, 52, 0
7, 33360, Note_on_c, 3, 53, 88
7, 33476, Note_off_c, 3, 53, 0
7, 33480, Note_on_c, 3, 50, 88
7, 33596, Note_off_c, 3, 50, 0
7, 33600, Note_on_c, 3, 55, 88
7, 33834, Note_off_c, 3, 55, 0
7, 33840, Note_on_c, 3, 53, 88
7, 34074, Note_off_c, 3, 53, 0
7, 34080, Note_on_c, 3, 52, 88
7, 34138, Note_off_c, 3, 52, 0
7, 34140, Note_on_c, 3, 50, 88
7, 34198, Note_off_c, 3, 50, 0
7, 34200, Note_on_c, 3, 52, 88
7, 34258, Note_off_c, 3, 52, 0
7, 34260, Note_on_c, 3, 53, 88
7, 34318, Note_off_c, 3, 53, 0
7, 34320, Note_on_c, 3, 52, 88
7, 34378, Note_off_c, 3, 52, 0
7, 34380, Note_on_c, 3, 53, 88
7, 34438, Note_off_c, 3, 53, 0
7, 34440, Note_on_c, 3, 50, 88
7, 34498, Note_off_c, 3, 50, 0
7, 34500, Note_on_c, 3, 52, 88
7, 34558, Note_off_c, 3, 52, 0
7, 34560, Note_on_c, 3, 53, 88
7, 34618, Note_off_c, 3, 53, 0
7, 34620, Note_on_c, 3, 52, 88
7, 34678, Note_off_c, 3, 52, 0
7, 34680, Note_on_c, 3, 53, 88
7, 34738, Note_off_c, 3, 53, 0
7, 34740, Note_on_c, 3, 55, 88
7, 34798, Note_off_c, 3, 55, 0
7, 34800, Note_on_c, 3, 53, 88
7, 34858, Note_off_c, 3, 53, 0
7, 34860, Note_on_c, 3, 55, 88
7, 34918, Note_off_c, 3, 55, 0
7, 34920, Note_on_c, 3, 52, 88
7, 34978, Note_off_c, 3, 52, 0
7, 34980, Note_on_c, 3, 53, 88
7, 35038, Note_off_c, 3, 53, 0
7, 35040, Note_on_c, 3, 50, 88
7, 35098, Note_off_c, 3, 50, 0
7, 35100, Note_on_c, 3, 48, 88
7, 35158, Note_off_c, 3, 48, 0
7, 35160, Note_on_c, 3, 50, 88
7, 35218, Note_off_c, 3, 50, 0
7, 35220, Note_on_c, 3, 52, 88
7, 35278, Note_off_c, 3, 52, 0
7, 35280, Note_on_c, 3, 50, 88
7, 35338, Note_off_c, 3, 50, 0
7, 35340, Note_on_c, 3, 48, 88
7, 35398, Note_off_c, 3, 48, 0
7, 35400, Note_on_c, 3, 47, 88
7, 35458, Note_off_c, 3, 47, 0
7, 35460, Note_on_c, 3, 45, 88
7, 35518, Note_off_c, 3, 45, 0
7, 35520, Note_on_c, 3, 43, 88
7, 35578, Note_off_c, 3, 43, 0
7, 35580, Note_on_c, 3, 41, 88
7, 35638, Note_off_c, 3, 41, 0
7, 35640, Note_on_c, 3, 43, 88
7, 35698, Note_off_c, 3, 43, 0
7, 35700, Note_on_c, 3, 45, 88
7, 35758, Note_off_c, 3, 45, 0
7, 35760, Note_on_c, 3, 43, 88
7, 35818, Note_off_c, 3, 43, 0
7, 35820, Note_on_c, 3, 41, 88
7, 35878, Note_off_c, 3, 41, 0
7, 35880, Note_on_c, 3, 40, 88
7, 35938, Note_off_c, 3, 40, 0
7, 35940, Note_on_c, 3, 38, 88
7, 35998, Note_off_c, 3, 38, 0
7, 36000, Note_on_c, 3, 36, 88
7, 36058, Note_off_c, 3, 36, 0
7, 36060, Note_on_c, 3, 48, 88
7, 36118, Note_off_c, 3, 48, 0
7, 36120, Note_on_c, 3, 52, 88
7, 36178, Note_off_c, 3, 52, 0
7, 36180, Note_on_c, 3, 48, 88
7, 36238, Note_off_c, 3, 48, 0
7, 36240, Note_on_c, 3, 36, 88
7, 36298, Note_off_c, 3, 36, 0
7, 36300, Note_on_c, 3, 48, 88
7, 36358, Note_off_c, 3, 48, 0
7, 36360, Note_on_c, 3, 55, 88
7, 36418, Note_off_c, 3, 55, 0
7, 36420, Note_on_c, 3, 48, 88
7, 36478, Note_off_c, 3, 48, 0
7, 36480, Note_on_c, 3, 36, 88
7, 36538, Note_off_c, 3, 36, 0
7, 36540, Note_on_c, 3, 38, 88
7, 36598, Note_off_c, 3, 38, 0
7, 36600, Note_on_c, 3, 40, 88
7, 36658, Note_off_c, 3, 40, 0
7, 36660, Note_on_c, 3, 41, 88
7, 36718, Note_off_c, 3, 41, 0
7, 36720, Note_on_c, 3, 43, 88
7, 36778, Note_off_c, 3, 43, 0
7, 36780, Note_on_c, 3, 45, 88
7, 36838, Note_off_c, 3, 45, 0
7, 36840, Note_on_c, 3, 47, 88
7, 36898, Note_off_c, 3, 47, 0
7, 36900, Note_on_c, 3, 48, 88
7, 36958, Note_off_c, 3, 48, 0
7, 36960, Note_on_c, 3, 36, 88
7, 37018, Note_off_c, 3, 36, 0
7, 37020, Note_on_c, 3, 48, 88
7, 37078, Note_off_c, 3, 48, 0
7, 37080, Note_on_c, 3, 50, 88
7, 37138, Note_off_c, 3, 50, 0
7, 37140, Note_on_c, 3, 48, 88
7, 37198, Note_off_c, 3, 48, 0
7, 37200, Note_on_c, 3, 36, 88
7, 37258, Note_off_c, 3, 36, 0
7, 37260, Note_on_c, 3, 48, 88
7, 37318, Note_off_c, 3, 48, 0
7, 37320, Note_on_c, 3, 53, 88
7, 37378, Note_off_c, 3, 53, 0
7, 37380, Note_on_c, 3, 48, 88
7, 37438, Note_off_c, 3, 48, 0
7, 37440, Note_on_c, 3, 47, 88
7, 37498, Note_off_c, 3, 47, 0
7, 37500, Note_on_c, 3, 48, 88
7, 37558, Note_off_c, 3, 48, 0
7, 37560, Note_on_c, 3, 47, 88
7, 37618, Note_off_c, 3, 47, 0
7, 37620, Note_on_c, 3, 45, 88
7, 37678, Note_off_c, 3, 45, 0
7, 37680, Note_on_c, 3, 43, 88
7, 37738, Note_off_c, 3, 43, 0
7, 37740, Note_on_c, 3, 41, 88
7, 37798, Note_off_c, 3, 41, 0
7, 37800, Note_on_c, 3, 40, 88
7, 37858, Note_off_c, 3, 40, 0
7, 37860, Note_on_c, 3, 38, 88
7, 37918, Note_off_c, 3, 38, 0
7, 37920, Note_on_c, 3, 36, 88
7, 37978, Note_off_c, 3, 36, 0
7, 37980, Note_on_c, 3, 48, 88
7, 38038, Note_off_c, 3, 48, 0
7, 38040, Note_on_c, 3, 50, 88
7, 38098, Note_off_c, 3, 50, 0
7, 38100, Note_on_c, 3, 48, 88
7, 38158, Note_off_c, 3, 48, 0
7, 38160, Note_on_c, 3, 52, 88
7, 38218, Note_off_c, 3, 52, 0
7, 38220, Note_on_c, 3, 48, 88
7, 38278, Note_off_c, 3, 48, 0
7, 38280, Note_on_c, 3, 53, 88
7, 38338, Note_off_c, 3, 53, 0
7, 38340, Note_on_c, 3, 48, 88
7, 38398, Note_off_c, 3, 48, 0
7, 38400, Note_on_c, 3, 55, 88
7, 38458, Note_off_c, 3, 55, 0
7, 38460, Note_on_c, 3, 48, 88
7, 38518, Note_off_c, 3, 48, 0
7, 38520, Note_on_c, 3, 56, 88
7, 38578, Note_off_c, 3, 56, 0
7, 38580, Note_on_c, 3, 48, 88
7, 38638, Note_off_c, 3, 48, 0
7, 38640, Note_on_c, 3, 55, 88
7, 38698, Note_off_c, 3, 55, 0
7, 38700, Note_on_c, 3, 48, 88
7, 38758, Note_off_c, 3, 48, 0
7, 38760, Note_on_c, 3, 47, 88
7, 38818, Note_off_c, 3, 47, 0
7, 38820, Note_on_c, 3, 48, 88
7, 38878, Note_off_c, 3, 48, 0
7, 38880, Note_on_c, 3, 41, 88
7, 38996, Note_off_c, 3, 41, 0
7, 39120, Note_on_c, 3, 43, 88
7, 39236, Note_off_c, 3, 43, 0
7, 39360, Note_on_c, 3, 36, 88
7, 39830, Note_off_c, 3, 36, 0
7, 39830, End_track
0, 0, End_of_file
