0, 0, Header, 1, 8, 240
1, 0, Start_track
1, 0, Time_signature, 4, 2, 24, 8
1, 0, Tempo, 1000000
1, 0, SMPTE_offset, 64, 0, 0, 0, 93
1, 0, End_track
2, 0, Start_track
2, 0, Title_t, "(C) & (P) 1993"
2, 127, End_track
3, 0, Start_track
3, 0, Title_t, "CCARH,Stanford"
3, 0, End_track
4, 0, Start_track
4, 0, Title_t, "Track 1"
4, 0, Program_c, 0, 6
4, 1080, Note_on_c, 0, 72, 88
4, 1196, Note_off_c, 0, 72, 0
4, 1200, Note_on_c, 0, 70, 88
4, 1316, Note_off_c, 0, 70, 0
4, 1320, Note_on_c, 0, 72, 88
4, 1436, Note_off_c, 0, 72, 0
4, 1440, Note_on_c, 0, 74, 88
4, 1556, Note_off_c, 0, 74, 0
4, 1560, Note_on_c, 0, 67, 88
4, 1676, Note_off_c, 0, 67, 0
4, 1680, Note_on_c, 0, 72, 88
4, 1796, Note_off_c, 0, 72, 0
4, 1800, Note_on_c, 0, 70, 88
4, 1858, Note_off_c, 0, 70, 0
4, 1860, Note_on_c, 0, 69, 88
4, 1918, Note_off_c, 0, 69, 0
4, 1920, Note_on_c, 0, 70, 88
4, 2153, Note_off_c, 0, 70, 0
4, 2160, Note_on_c, 0, 70, 88
4, 2182, Note_off_c, 0, 70, 0
4, 2183, Note_on_c, 0, 68, 88
4, 2208, Note_off_c, 0, 68, 0
4, 2209, Note_on_c, 0, 70, 88
4, 2234, Note_off_c, 0, 70, 0
4, 2235, Note_on_c, 0, 68, 88
4, 2257, Note_off_c, 0, 68, 0
4, 2258, Note_on_c, 0, 70, 88
4, 2279, Note_off_c, 0, 70, 0
4, 2280, Note_on_c, 0, 68, 88
4, 2396, Note_off_c, 0, 68, 0
4, 2400, Note_on_c, 0, 67, 88
4, 2516, Note_off_c, 0, 67, 0
4, 2520, Note_on_c, 0, 72, 88
4, 2636, Note_off_c, 0, 72, 0
4, 2640, Note_on_c, 0, 65, 88
4, 2996, Note_off_c, 0, 65, 0
4, 3000, Note_on_c, 0, 63, 88
4, 3058, Note_off_c, 0, 63, 0
4, 3060, Note_on_c, 0, 62, 88
4, 3118, Note_off_c, 0, 62, 0
4, 3120, Note_on_c, 0, 67, 88
4, 3236, Note_off_c, 0, 67, 0
4, 3240, Note_on_c, 0, 65, 88
4, 3356, Note_off_c, 0, 65, 0
4, 3360, Note_on_c, 0, 63, 88
4, 3594, Note_off_c, 0, 63, 0
4, 3600, Note_on_c, 0, 62, 88
4, 3834, Note_off_c, 0, 62, 0
4, 3840, Note_on_c, 0, 60, 88
4, 3956, Note_off_c, 0, 60, 0
4, 3960, Note_on_c, 0, 67, 88
4, 4076, Note_off_c, 0, 67, 0
4, 4080, Note_on_c, 0, 72, 88
4, 4433, Note_off_c, 0, 72, 0
4, 4440, Note_on_c, 0, 70, 88
4, 4498, Note_off_c, 0, 70, 0
4, 4500, Note_on_c, 0, 72, 88
4, 4558, Note_off_c, 0, 72, 0
4, 4560, Note_on_c, 0, 74, 88
4, 4618, Note_off_c, 0, 74, 0
4, 4620, Note_on_c, 0, 76, 88
4, 4678, Note_off_c, 0, 76, 0
4, 4680, Note_on_c, 0, 77, 88
4, 4738, Note_off_c, 0, 77, 0
4, 4740, Note_on_c, 0, 79, 88
4, 4798, Note_off_c, 0, 79, 0
4, 4800, Note_on_c, 0, 80, 88
4, 4858, Note_off_c, 0, 80, 0
4, 4860, Note_on_c, 0, 77, 88
4, 4918, Note_off_c, 0, 77, 0
4, 4920, Note_on_c, 0, 84, 88
4, 4978, Note_off_c, 0, 84, 0
4, 4980, Note_on_c, 0, 82, 88
4, 5038, Note_off_c, 0, 82, 0
4, 5040, Note_on_c, 0, 80, 88
4, 5098, Note_off_c, 0, 80, 0
4, 5100, Note_on_c, 0, 79, 88
4, 5158, Note_off_c, 0, 79, 0
4, 5160, Note_on_c, 0, 77, 88
4, 5218, Note_off_c, 0, 77, 0
4, 5220, Note_on_c, 0, 75, 88
4, 5278, Note_off_c, 0, 75, 0
4, 5280, Note_on_c, 0, 74, 88
4, 5338, Note_off_c, 0, 74, 0
4, 5340, Note_on_c, 0, 70, 88
4, 5398, Note_off_c, 0, 70, 0
4, 5400, Note_on_c, 0, 77, 88
4, 5458, Note_off_c, 0, 77, 0
4, 5460, Note_on_c, 0, 75, 88
4, 5518, Note_off_c, 0, 75, 0
4, 5520, Note_on_c, 0, 74, 88
4, 5578, Note_off_c, 0, 74, 0
4, 5580, Note_on_c, 0, 72, 88
4, 5638, Note_off_c, 0, 72, 0
4, 5640, Note_on_c, 0, 70, 88
4, 5698, Note_off_c, 0, 70, 0
4, 5700, Note_on_c, 0, 68, 88
4, 5758, Note_off_c, 0, 68, 0
4, 5760, Note_on_c, 0, 67, 88
4, 5876, Note_off_c, 0, 67, 0
4, 6900, Note_on_c, 0, 79, 88
4, 6958, Note_off_c, 0, 79, 0
4, 6960, Note_on_c, 0, 75, 88
4, 7135, Note_off_c, 0, 75, 0
4, 7140, Note_on_c, 0, 77, 88
4, 7198, Note_off_c, 0, 77, 0
4, 7200, Note_on_c, 0, 79, 88
4, 7316, Note_off_c, 0, 79, 0
4, 7320, Note_on_c, 0, 72, 88
4, 7436, Note_off_c, 0, 72, 0
4, 7440, Note_on_c, 0, 77, 88
4, 7556, Note_off_c, 0, 77, 0
4, 7560, Note_on_c, 0, 75, 88
4, 7618, Note_off_c, 0, 75, 0
4, 7620, Note_on_c, 0, 74, 88
4, 7678, Note_off_c, 0, 74, 0
4, 7680, Note_on_c, 0, 75, 88
4, 7796, Note_off_c, 0, 75, 0
4, 7800, Note_on_c, 0, 68, 88
4, 7916, Note_off_c, 0, 68, 0
4, 7920, Note_on_c, 0, 73, 88
4, 8036, Note_off_c, 0, 73, 0
4, 8040, Note_on_c, 0, 72, 88
4, 8098, Note_off_c, 0, 72, 0
4, 8100, Note_on_c, 0, 70, 88
4, 8158, Note_off_c, 0, 70, 0
4, 8160, Note_on_c, 0, 72, 88
4, 8276, Note_off_c, 0, 72, 0
4, 8280, Note_on_c, 0, 65, 88
4, 8396, Note_off_c, 0, 65, 0
4, 8400, Note_on_c, 0, 70, 88
4, 8516, Note_off_c, 0, 70, 0
4, 8520, Note_on_c, 0, 68, 88
4, 8578, Note_off_c, 0, 68, 0
4, 8580, Note_on_c, 0, 67, 88
4, 8638, Note_off_c, 0, 67, 0
4, 8640, Note_on_c, 0, 68, 88
4, 8813, Note_off_c, 0, 68, 0
4, 8820, Note_on_c, 0, 68, 88
4, 8878, Note_off_c, 0, 68, 0
4, 8880, Note_on_c, 0, 62, 88
4, 8996, Note_off_c, 0, 62, 0
4, 9000, Note_on_c, 0, 63, 88
4, 9116, Note_off_c, 0, 63, 0
4, 9120, Note_on_c, 0, 65, 88
4, 9236, Note_off_c, 0, 65, 0
4, 9240, Note_on_c, 0, 63, 88
4, 9474, Note_off_c, 0, 63, 0
4, 9480, Note_on_c, 0, 65, 88
4, 9716, Note_off_c, 0, 65, 0
4, 9720, Note_on_c, 0, 63, 88
4, 9836, Note_off_c, 0, 63, 0
4, 9840, Note_on_c, 0, 68, 88
4, 10013, Note_off_c, 0, 68, 0
4, 10020, Note_on_c, 0, 68, 88
4, 10078, Note_off_c, 0, 68, 0
4, 10080, Note_on_c, 0, 67, 88
4, 10253, Note_off_c, 0, 67, 0
4, 10260, Note_on_c, 0, 67, 88
4, 10318, Note_off_c, 0, 67, 0
4, 10320, Note_on_c, 0, 72, 88
4, 10495, Note_off_c, 0, 72, 0
4, 10500, Note_on_c, 0, 70, 88
4, 10613, Note_off_c, 0, 70, 0
4, 10620, Note_on_c, 0, 70, 88
4, 10678, Note_off_c, 0, 70, 0
4, 10680, Note_on_c, 0, 68, 88
4, 10855, Note_off_c, 0, 68, 0
4, 10860, Note_on_c, 0, 67, 88
4, 10918, Note_off_c, 0, 67, 0
4, 10920, Note_on_c, 0, 68, 88
4, 10978, Note_off_c, 0, 68, 0
4, 10980, Note_on_c, 0, 70, 88
4, 11038, Note_off_c, 0, 70, 0
4, 11040, Note_on_c, 0, 64, 88
4, 11156, Note_off_c, 0, 64, 0
4, 11220, Note_on_c, 0, 68, 88
4, 11278, Note_off_c, 0, 68, 0
4, 11280, Note_on_c, 0, 73, 88
4, 11455, Note_off_c, 0, 73, 0
4, 11460, Note_on_c, 0, 72, 88
4, 11573, Note_off_c, 0, 72, 0
4, 11580, Note_on_c, 0, 72, 88
4, 11638, Note_off_c, 0, 72, 0
4, 11640, Note_on_c, 0, 70, 88
4, 11815, Note_off_c, 0, 70, 0
4, 11820, Note_on_c, 0, 69, 88
4, 11878, Note_off_c, 0, 69, 0
4, 11880, Note_on_c, 0, 70, 88
4, 11938, Note_off_c, 0, 70, 0
4, 11940, Note_on_c, 0, 72, 88
4, 11998, Note_off_c, 0, 72, 0
4, 12000, Note_on_c, 0, 66, 88
4, 12116, Note_off_c, 0, 66, 0
4, 12120, Note_on_c, 0, 67, 88
4, 12293, Note_off_c, 0, 67, 0
4, 12300, Note_on_c, 0, 67, 88
4, 12416, Note_off_c, 0, 67, 0
4, 12420, Note_on_c, 0, 66, 88
4, 12478, Note_off_c, 0, 66, 0
4, 12480, Note_on_c, 0, 67, 88
4, 12596, Note_off_c, 0, 67, 0
4, 12600, Note_on_c, 0, 79, 88
4, 12716, Note_off_c, 0, 79, 0
4, 12720, Note_on_c, 0, 75, 88
4, 12836, Note_off_c, 0, 75, 0
4, 12840, Note_on_c, 0, 77, 88
4, 12956, Note_off_c, 0, 77, 0
4, 12960, Note_on_c, 0, 79, 88
4, 13076, Note_off_c, 0, 79, 0
4, 13080, Note_on_c, 0, 72, 88
4, 13196, Note_off_c, 0, 72, 0
4, 13200, Note_on_c, 0, 77, 88
4, 13316, Note_off_c, 0, 77, 0
4, 13320, Note_on_c, 0, 75, 88
4, 13378, Note_off_c, 0, 75, 0
4, 13380, Note_on_c, 0, 74, 88
4, 13438, Note_off_c, 0, 74, 0
4, 13440, Note_on_c, 0, 75, 88
4, 13498, Note_off_c, 0, 75, 0
4, 13500, Note_on_c, 0, 74, 88
4, 13558, Note_off_c, 0, 74, 0
4, 13560, Note_on_c, 0, 72, 88
4, 13618, Note_off_c, 0, 72, 0
4, 13620, Note_on_c, 0, 71, 88
4, 13678, Note_off_c, 0, 71, 0
4, 13680, Note_on_c, 0, 72, 88
4, 13738, Note_off_c, 0, 72, 0
4, 13740, Note_on_c, 0, 75, 88
4, 13798, Note_off_c, 0, 75, 0
4, 13800, Note_on_c, 0, 77, 88
4, 13858, Note_off_c, 0, 77, 0
4, 13860, Note_on_c, 0, 79, 88
4, 13918, Note_off_c, 0, 79, 0
4, 13920, Note_on_c, 0, 80, 88
4, 13978, Note_off_c, 0, 80, 0
4, 13980, Note_on_c, 0, 72, 88
4, 14038, Note_off_c, 0, 72, 0
4, 14040, Note_on_c, 0, 71, 88
4, 14098, Note_off_c, 0, 71, 0
4, 14100, Note_on_c, 0, 69, 88
4, 14158, Note_off_c, 0, 69, 0
4, 14160, Note_on_c, 0, 71, 88
4, 14218, Note_off_c, 0, 71, 0
4, 14220, Note_on_c, 0, 79, 88
4, 14278, Note_off_c, 0, 79, 0
4, 14280, Note_on_c, 0, 77, 88
4, 14338, Note_off_c, 0, 77, 0
4, 14340, Note_on_c, 0, 79, 88
4, 14398, Note_off_c, 0, 79, 0
4, 14400, Note_on_c, 0, 75, 88
4, 14516, Note_off_c, 0, 75, 0
4, 15000, Note_on_c, 0, 79, 88
4, 15116, Note_off_c, 0, 79, 0
4, 15120, Note_on_c, 0, 76, 88
4, 15236, Note_off_c, 0, 76, 0
4, 15240, Note_on_c, 0, 78, 88
4, 15356, Note_off_c, 0, 78, 0
4, 15360, Note_on_c, 0, 79, 88
4, 15476, Note_off_c, 0, 79, 0
4, 15480, Note_on_c, 0, 72, 88
4, 15596, Note_off_c, 0, 72, 0
4, 15600, Note_on_c, 0, 77, 88
4, 15716, Note_off_c, 0, 77, 0
4, 15720, Note_on_c, 0, 75, 88
4, 15778, Note_off_c, 0, 75, 0
4, 15780, Note_on_c, 0, 74, 88
4, 15838, Note_off_c, 0, 74, 0
4, 15840, Note_on_c, 0, 75, 88
4, 16013, Note_off_c, 0, 75, 0
4, 16020, Note_on_c, 0, 75, 88
4, 16078, Note_off_c, 0, 75, 0
4, 16080, Note_on_c, 0, 74, 88
4, 16196, Note_off_c, 0, 74, 0
4, 16200, Note_on_c, 0, 76, 88
4, 16316, Note_off_c, 0, 76, 0
4, 16320, Note_on_c, 0, 77, 88
4, 16436, Note_off_c, 0, 77, 0
4, 16440, Note_on_c, 0, 70, 88
4, 16556, Note_off_c, 0, 70, 0
4, 16560, Note_on_c, 0, 75, 88
4, 16676, Note_off_c, 0, 75, 0
4, 16680, Note_on_c, 0, 74, 88
4, 16738, Note_off_c, 0, 74, 0
4, 16740, Note_on_c, 0, 72, 88
4, 16798, Note_off_c, 0, 72, 0
4, 16800, Note_on_c, 0, 74, 88
4, 16916, Note_off_c, 0, 74, 0
4, 16920, Note_on_c, 0, 67, 88
4, 17036, Note_off_c, 0, 67, 0
4, 17040, Note_on_c, 0, 75, 88
4, 17333, Note_off_c, 0, 75, 0
4, 17340, Note_on_c, 0, 75, 88
4, 17398, Note_off_c, 0, 75, 0
4, 17400, Note_on_c, 0, 74, 88
4, 17575, Note_off_c, 0, 74, 0
4, 17580, Note_on_c, 0, 72, 88
4, 17638, Note_off_c, 0, 72, 0
4, 17640, Note_on_c, 0, 71, 88
4, 17756, Note_off_c, 0, 71, 0
4, 17760, Note_on_c, 0, 72, 88
4, 17876, Note_off_c, 0, 72, 0
4, 17880, Note_on_c, 0, 79, 88
4, 17996, Note_off_c, 0, 79, 0
4, 18000, Note_on_c, 0, 74, 88
4, 18116, Note_off_c, 0, 74, 0
4, 18120, Note_on_c, 0, 75, 88
4, 18178, Note_off_c, 0, 75, 0
4, 18180, Note_on_c, 0, 77, 88
4, 18238, Note_off_c, 0, 77, 0
4, 18240, Note_on_c, 0, 75, 88
4, 18356, Note_off_c, 0, 75, 0
4, 18360, Note_on_c, 0, 74, 88
4, 18476, Note_off_c, 0, 74, 0
4, 18540, Note_on_c, 0, 72, 88
4, 18656, Note_off_c, 0, 72, 0
4, 18660, Note_on_c, 0, 70, 88
4, 18718, Note_off_c, 0, 70, 0
4, 18720, Note_on_c, 0, 68, 88
4, 18893, Note_off_c, 0, 68, 0
4, 18900, Note_on_c, 0, 68, 88
4, 18958, Note_off_c, 0, 68, 0
4, 18960, Note_on_c, 0, 67, 88
4, 19434, Note_off_c, 0, 67, 0
4, 19440, Note_on_c, 0, 72, 88
4, 19971, Note_off_c, 0, 72, 0
4, 19980, Note_on_c, 0, 71, 88
4, 20038, Note_off_c, 0, 71, 0
4, 20040, Note_on_c, 0, 72, 88
4, 20098, Note_off_c, 0, 72, 0
4, 20100, Note_on_c, 0, 74, 88
4, 20158, Note_off_c, 0, 74, 0
4, 20160, Note_on_c, 0, 67, 88
4, 20276, Note_off_c, 0, 67, 0
4, 20280, Note_on_c, 0, 68, 88
4, 20396, Note_off_c, 0, 68, 0
4, 20400, Note_on_c, 0, 67, 88
4, 20575, Note_off_c, 0, 67, 0
4, 20580, Note_on_c, 0, 69, 88
4, 20638, Note_off_c, 0, 69, 0
4, 20640, Note_on_c, 0, 70, 88
4, 20756, Note_off_c, 0, 70, 0
4, 20760, Note_on_c, 0, 71, 88
4, 20876, Note_off_c, 0, 71, 0
4, 20940, Note_on_c, 0, 67, 88
4, 20998, Note_off_c, 0, 67, 0
4, 21000, Note_on_c, 0, 72, 88
4, 21058, Note_off_c, 0, 72, 0
4, 21060, Note_on_c, 0, 66, 88
4, 21118, Note_off_c, 0, 66, 0
4, 21120, Note_on_c, 0, 67, 88
4, 21236, Note_off_c, 0, 67, 0
4, 21240, Note_on_c, 0, 63, 88
4, 21356, Note_off_c, 0, 63, 0
4, 21360, Note_on_c, 0, 62, 88
4, 21594, Note_off_c, 0, 62, 0
4, 21600, Note_on_c, 0, 60, 88
4, 21716, Note_off_c, 0, 60, 0
4, 21960, Note_on_c, 0, 72, 88
4, 22076, Note_off_c, 0, 72, 0
4, 22080, Note_on_c, 0, 71, 88
4, 22196, Note_off_c, 0, 71, 0
4, 22200, Note_on_c, 0, 72, 88
4, 22316, Note_off_c, 0, 72, 0
4, 22320, Note_on_c, 0, 74, 88
4, 22436, Note_off_c, 0, 74, 0
4, 22440, Note_on_c, 0, 67, 88
4, 22556, Note_off_c, 0, 67, 0
4, 22560, Note_on_c, 0, 72, 88
4, 22676, Note_off_c, 0, 72, 0
4, 22680, Note_on_c, 0, 70, 88
4, 22738, Note_off_c, 0, 70, 0
4, 22740, Note_on_c, 0, 68, 88
4, 22798, Note_off_c, 0, 68, 0
4, 22800, Note_on_c, 0, 70, 88
4, 22916, Note_off_c, 0, 70, 0
4, 22920, Note_on_c, 0, 72, 88
4, 23036, Note_off_c, 0, 72, 0
4, 23040, Note_on_c, 0, 68, 88
4, 23156, Note_off_c, 0, 68, 0
4, 23160, Note_on_c, 0, 70, 88
4, 23276, Note_off_c, 0, 70, 0
4, 23280, Note_on_c, 0, 72, 88
4, 23396, Note_off_c, 0, 72, 0
4, 23400, Note_on_c, 0, 65, 88
4, 23516, Note_off_c, 0, 65, 0
4, 23520, Note_on_c, 0, 70, 88
4, 23636, Note_off_c, 0, 70, 0
4, 23640, Note_on_c, 0, 68, 88
4, 23698, Note_off_c, 0, 68, 0
4, 23700, Note_on_c, 0, 67, 88
4, 23758, Note_off_c, 0, 67, 0
4, 23760, Note_on_c, 0, 68, 88
4, 23876, Note_off_c, 0, 68, 0
4, 23880, Note_on_c, 0, 67, 88
4, 24116, Note_off_c, 0, 67, 0
4, 24120, Note_on_c, 0, 69, 88
4, 24178, Note_off_c, 0, 69, 0
4, 24180, Note_on_c, 0, 70, 88
4, 24209, Note_off_c, 0, 70, 0
4, 24210, Note_on_c, 0, 72, 88
4, 24239, Note_off_c, 0, 72, 0
4, 24240, Note_on_c, 0, 65, 88
4, 24356, Note_off_c, 0, 65, 0
4, 24360, Note_on_c, 0, 72, 88
4, 24476, Note_off_c, 0, 72, 0
4, 24480, Note_on_c, 0, 74, 88
4, 24596, Note_off_c, 0, 74, 0
4, 24600, Note_on_c, 0, 72, 88
4, 24658, Note_off_c, 0, 72, 0
4, 24660, Note_on_c, 0, 71, 88
4, 24718, Note_off_c, 0, 71, 0
4, 24720, Note_on_c, 0, 72, 88
4, 24954, Note_off_c, 0, 72, 0
4, 25020, Note_on_c, 0, 74, 88
4, 25078, Note_off_c, 0, 74, 0
4, 25080, Note_on_c, 0, 75, 88
4, 25138, Note_off_c, 0, 75, 0
4, 25140, Note_on_c, 0, 71, 88
4, 25198, Note_off_c, 0, 71, 0
4, 25200, Note_on_c, 0, 72, 88
4, 25670, Note_off_c, 0, 72, 0
4, 25800, Note_on_c, 0, 71, 88
4, 25916, Note_off_c, 0, 71, 0
4, 25920, Note_on_c, 0, 72, 88
4, 26865, Note_off_c, 0, 72, 0
4, 26865, End_track
5, 0, Start_track
5, 0, Title_t, "Track 2"
5, 0, Program_c, 1, 6
5, 25260, Note_on_c, 1, 69, 88
5, 25672, Note_off_c, 1, 69, 0
5, 25800, Note_on_c, 1, 67, 88
5, 25916, Note_off_c, 1, 67, 0
5, 25920, Note_on_c, 1, 67, 88
5, 26865, Note_off_c, 1, 67, 0
5, 26865, End_track
6, 0, Start_track
6, 0, Title_t, "Track 3"
6, 0, Program_c, 2, 6
6, 120, Note_on_c, 2, 67, 88
6, 236, Note_off_c, 2, 67, 0
6, 240, Note_on_c, 2, 63, 88
6, 356, Note_off_c, 2, 63, 0
6, 360, Note_on_c, 2, 65, 88
6, 476, Note_off_c, 2, 65, 0
6, 480, Note_on_c, 2, 67, 88
6, 596, Note_off_c, 2, 67, 0
6, 600, Note_on_c, 2, 60, 88
6, 716, Note_off_c, 2, 60, 0
6, 720, Note_on_c, 2, 65, 88
6, 836, Note_off_c, 2, 65, 0
6, 840, Note_on_c, 2, 63, 88
6, 898, Note_off_c, 2, 63, 0
6, 900, Note_on_c, 2, 62, 88
6, 958, Note_off_c, 2, 62, 0
6, 960, Note_on_c, 2, 63, 88
6, 1194, Note_off_c, 2, 63, 0
6, 1200, Note_on_c, 2, 62, 88
6, 1316, Note_off_c, 2, 62, 0
6, 1320, Note_on_c, 2, 60, 88
6, 1436, Note_off_c, 2, 60, 0
6, 1440, Note_on_c, 2, 58, 88
6, 1673, Note_off_c, 2, 58, 0
6, 1680, Note_on_c, 2, 58, 88
6, 1702, Note_off_c, 2, 58, 0
6, 1703, Note_on_c, 2, 57, 88
6, 1732, Note_off_c, 2, 57, 0
6, 1733, Note_on_c, 2, 58, 88
6, 1754, Note_off_c, 2, 58, 0
6, 1755, Note_on_c, 2, 57, 88
6, 1777, Note_off_c, 2, 57, 0
6, 1778, Note_on_c, 2, 58, 88
6, 1799, Note_off_c, 2, 58, 0
6, 1800, Note_on_c, 2, 57, 88
6, 1916, Note_off_c, 2, 57, 0
6, 1920, Note_on_c, 2, 55, 88
6, 2036, Note_off_c, 2, 55, 0
6, 2040, Note_on_c, 2, 67, 88
6, 2274, Note_off_c, 2, 67, 0
6, 2280, Note_on_c, 2, 65, 88
6, 2514, Note_off_c, 2, 65, 0
6, 2520, Note_on_c, 2, 63, 88
6, 2754, Note_off_c, 2, 63, 0
6, 2760, Note_on_c, 2, 62, 88
6, 2818, Note_off_c, 2, 62, 0
6, 2820, Note_on_c, 2, 60, 88
6, 2878, Note_off_c, 2, 60, 0
6, 2880, Note_on_c, 2, 59, 88
6, 3114, Note_off_c, 2, 59, 0
6, 3120, Note_on_c, 2, 60, 88
6, 3590, Note_off_c, 2, 60, 0
6, 3600, Note_on_c, 2, 59, 88
6, 3834, Note_off_c, 2, 59, 0
6, 3840, Note_on_c, 2, 60, 88
6, 4074, Note_off_c, 2, 60, 0
6, 4200, Note_on_c, 2, 63, 88
6, 4316, Note_off_c, 2, 63, 0
6, 4320, Note_on_c, 2, 62, 88
6, 4378, Note_off_c, 2, 62, 0
6, 4380, Note_on_c, 2, 66, 88
6, 4438, Note_off_c, 2, 66, 0
6, 4440, Note_on_c, 2, 67, 88
6, 4556, Note_off_c, 2, 67, 0
6, 5400, Note_on_c, 2, 62, 88
6, 5516, Note_off_c, 2, 62, 0
6, 5520, Note_on_c, 2, 58, 88
6, 5636, Note_off_c, 2, 58, 0
6, 5640, Note_on_c, 2, 62, 88
6, 5756, Note_off_c, 2, 62, 0
6, 5760, Note_on_c, 2, 63, 88
6, 5818, Note_off_c, 2, 63, 0
6, 5820, Note_on_c, 2, 60, 88
6, 5878, Note_off_c, 2, 60, 0
6, 5880, Note_on_c, 2, 68, 88
6, 5938, Note_off_c, 2, 68, 0
6, 5940, Note_on_c, 2, 67, 88
6, 5998, Note_off_c, 2, 67, 0
6, 6000, Note_on_c, 2, 65, 88
6, 6058, Note_off_c, 2, 65, 0
6, 6060, Note_on_c, 2, 63, 88
6, 6118, Note_off_c, 2, 63, 0
6, 6120, Note_on_c, 2, 62, 88
6, 6178, Note_off_c, 2, 62, 0
6, 6180, Note_on_c, 2, 60, 88
6, 6238, Note_off_c, 2, 60, 0
6, 6240, Note_on_c, 2, 59, 88
6, 6298, Note_off_c, 2, 59, 0
6, 6300, Note_on_c, 2, 65, 88
6, 6358, Note_off_c, 2, 65, 0
6, 6360, Note_on_c, 2, 63, 88
6, 6418, Note_off_c, 2, 63, 0
6, 6420, Note_on_c, 2, 62, 88
6, 6478, Note_off_c, 2, 62, 0
6, 6480, Note_on_c, 2, 63, 88
6, 6538, Note_off_c, 2, 63, 0
6, 6540, Note_on_c, 2, 68, 88
6, 6598, Note_off_c, 2, 68, 0
6, 6600, Note_on_c, 2, 67, 88
6, 6658, Note_off_c, 2, 67, 0
6, 6660, Note_on_c, 2, 65, 88
6, 6718, Note_off_c, 2, 65, 0
6, 6720, Note_on_c, 2, 74, 88
6, 6778, Note_off_c, 2, 74, 0
6, 6780, Note_on_c, 2, 72, 88
6, 6838, Note_off_c, 2, 72, 0
6, 6840, Note_on_c, 2, 74, 88
6, 7015, Note_off_c, 2, 74, 0
6, 7020, Note_on_c, 2, 71, 88
6, 7078, Note_off_c, 2, 71, 0
6, 7080, Note_on_c, 2, 72, 88
6, 7255, Note_off_c, 2, 72, 0
6, 7260, Note_on_c, 2, 71, 88
6, 7318, Note_off_c, 2, 71, 0
6, 7320, Note_on_c, 2, 72, 88
6, 7495, Note_off_c, 2, 72, 0
6, 7500, Note_on_c, 2, 71, 88
6, 7675, Note_off_c, 2, 71, 0
6, 7680, Note_on_c, 2, 72, 88
6, 7738, Note_off_c, 2, 72, 0
6, 7740, Note_on_c, 2, 67, 88
6, 7798, Note_off_c, 2, 67, 0
6, 7800, Note_on_c, 2, 68, 88
6, 7975, Note_off_c, 2, 68, 0
6, 7980, Note_on_c, 2, 67, 88
6, 8214, Note_off_c, 2, 67, 0
6, 8220, Note_on_c, 2, 64, 88
6, 8278, Note_off_c, 2, 64, 0
6, 8280, Note_on_c, 2, 65, 88
6, 8455, Note_off_c, 2, 65, 0
6, 8460, Note_on_c, 2, 64, 88
6, 8635, Note_off_c, 2, 64, 0
6, 8640, Note_on_c, 2, 65, 88
6, 8756, Note_off_c, 2, 65, 0
6, 8760, Note_on_c, 2, 60, 88
6, 8876, Note_off_c, 2, 60, 0
6, 8880, Note_on_c, 2, 59, 88
6, 8996, Note_off_c, 2, 59, 0
6, 9000, Note_on_c, 2, 60, 88
6, 9116, Note_off_c, 2, 60, 0
6, 9120, Note_on_c, 2, 62, 88
6, 9236, Note_off_c, 2, 62, 0
6, 9240, Note_on_c, 2, 55, 88
6, 9356, Note_off_c, 2, 55, 0
6, 9360, Note_on_c, 2, 60, 88
6, 9476, Note_off_c, 2, 60, 0
6, 9480, Note_on_c, 2, 59, 88
6, 9538, Note_off_c, 2, 59, 0
6, 9540, Note_on_c, 2, 57, 88
6, 9598, Note_off_c, 2, 57, 0
6, 9600, Note_on_c, 2, 55, 88
6, 9658, Note_off_c, 2, 55, 0
6, 9660, Note_on_c, 2, 59, 88
6, 9718, Note_off_c, 2, 59, 0
6, 9720, Note_on_c, 2, 60, 88
6, 9893, Note_off_c, 2, 60, 0
6, 9900, Note_on_c, 2, 60, 88
6, 9958, Note_off_c, 2, 60, 0
6, 9960, Note_on_c, 2, 62, 88
6, 10133, Note_off_c, 2, 62, 0
6, 10140, Note_on_c, 2, 62, 88
6, 10198, Note_off_c, 2, 62, 0
6, 10200, Note_on_c, 2, 63, 88
6, 10375, Note_off_c, 2, 63, 0
6, 10380, Note_on_c, 2, 65, 88
6, 10438, Note_off_c, 2, 65, 0
6, 10440, Note_on_c, 2, 66, 88
6, 10556, Note_off_c, 2, 66, 0
6, 10560, Note_on_c, 2, 64, 88
6, 10676, Note_off_c, 2, 64, 0
6, 10740, Note_on_c, 2, 65, 88
6, 10798, Note_off_c, 2, 65, 0
6, 10800, Note_on_c, 2, 61, 88
6, 11094, Note_off_c, 2, 61, 0
6, 11100, Note_on_c, 2, 60, 88
6, 11158, Note_off_c, 2, 60, 0
6, 11160, Note_on_c, 2, 65, 88
6, 11335, Note_off_c, 2, 65, 0
6, 11340, Note_on_c, 2, 67, 88
6, 11398, Note_off_c, 2, 67, 0
6, 11400, Note_on_c, 2, 68, 88
6, 11516, Note_off_c, 2, 68, 0
6, 11520, Note_on_c, 2, 66, 88
6, 11636, Note_off_c, 2, 66, 0
6, 11700, Note_on_c, 2, 67, 88
6, 11758, Note_off_c, 2, 67, 0
6, 11760, Note_on_c, 2, 63, 88
6, 12054, Note_off_c, 2, 63, 0
6, 12060, Note_on_c, 2, 62, 88
6, 12176, Note_off_c, 2, 62, 0
6, 12180, Note_on_c, 2, 60, 88
6, 12238, Note_off_c, 2, 60, 0
6, 12240, Note_on_c, 2, 58, 88
6, 12356, Note_off_c, 2, 58, 0
6, 12360, Note_on_c, 2, 57, 88
6, 12476, Note_off_c, 2, 57, 0
6, 12480, Note_on_c, 2, 55, 88
6, 12596, Note_off_c, 2, 55, 0
6, 12720, Note_on_c, 2, 67, 88
6, 12954, Note_off_c, 2, 67, 0
6, 12960, Note_on_c, 2, 63, 88
6, 13194, Note_off_c, 2, 63, 0
6, 13200, Note_on_c, 2, 65, 88
6, 13434, Note_off_c, 2, 65, 0
6, 13440, Note_on_c, 2, 67, 88
6, 13674, Note_off_c, 2, 67, 0
6, 13680, Note_on_c, 2, 60, 88
6, 13914, Note_off_c, 2, 60, 0
6, 13920, Note_on_c, 2, 65, 88
6, 14154, Note_off_c, 2, 65, 0
6, 14160, Note_on_c, 2, 63, 88
6, 14276, Note_off_c, 2, 63, 0
6, 14280, Note_on_c, 2, 62, 88
6, 14396, Note_off_c, 2, 62, 0
6, 14400, Note_on_c, 2, 63, 88
6, 14516, Note_off_c, 2, 63, 0
6, 14520, Note_on_c, 2, 72, 88
6, 14636, Note_off_c, 2, 72, 0
6, 14640, Note_on_c, 2, 70, 88
6, 14756, Note_off_c, 2, 70, 0
6, 14760, Note_on_c, 2, 72, 88
6, 14876, Note_off_c, 2, 72, 0
6, 14880, Note_on_c, 2, 74, 88
6, 14996, Note_off_c, 2, 74, 0
6, 15000, Note_on_c, 2, 67, 88
6, 15116, Note_off_c, 2, 67, 0
6, 15120, Note_on_c, 2, 72, 88
6, 15236, Note_off_c, 2, 72, 0
6, 15240, Note_on_c, 2, 70, 88
6, 15298, Note_off_c, 2, 70, 0
6, 15300, Note_on_c, 2, 69, 88
6, 15358, Note_off_c, 2, 69, 0
6, 15360, Note_on_c, 2, 70, 88
6, 15476, Note_off_c, 2, 70, 0
6, 15480, Note_on_c, 2, 68, 88
6, 15538, Note_off_c, 2, 68, 0
6, 15540, Note_on_c, 2, 67, 88
6, 15598, Note_off_c, 2, 67, 0
6, 15600, Note_on_c, 2, 72, 88
6, 15658, Note_off_c, 2, 72, 0
6, 15660, Note_on_c, 2, 60, 88
6, 15718, Note_off_c, 2, 60, 0
6, 15720, Note_on_c, 2, 67, 88
6, 15893, Note_off_c, 2, 67, 0
6, 15900, Note_on_c, 2, 67, 88
6, 15958, Note_off_c, 2, 67, 0
6, 15960, Note_on_c, 2, 69, 88
6, 16076, Note_off_c, 2, 69, 0
6, 16080, Note_on_c, 2, 70, 88
6, 16138, Note_off_c, 2, 70, 0
6, 16140, Note_on_c, 2, 72, 88
6, 16198, Note_off_c, 2, 72, 0
6, 16200, Note_on_c, 2, 73, 88
6, 16316, Note_off_c, 2, 73, 0
6, 16380, Note_on_c, 2, 72, 88
6, 16438, Note_off_c, 2, 72, 0
6, 16440, Note_on_c, 2, 70, 88
6, 16498, Note_off_c, 2, 70, 0
6, 16500, Note_on_c, 2, 68, 88
6, 16558, Note_off_c, 2, 68, 0
6, 16560, Note_on_c, 2, 67, 88
6, 16676, Note_off_c, 2, 67, 0
6, 16680, Note_on_c, 2, 69, 88
6, 16796, Note_off_c, 2, 69, 0
6, 16800, Note_on_c, 2, 70, 88
6, 16916, Note_off_c, 2, 70, 0
6, 16920, Note_on_c, 2, 63, 88
6, 17036, Note_off_c, 2, 63, 0
6, 17040, Note_on_c, 2, 68, 88
6, 17156, Note_off_c, 2, 68, 0
6, 17160, Note_on_c, 2, 67, 88
6, 17218, Note_off_c, 2, 67, 0
6, 17220, Note_on_c, 2, 65, 88
6, 17278, Note_off_c, 2, 65, 0
6, 17280, Note_on_c, 2, 67, 88
6, 17455, Note_off_c, 2, 67, 0
6, 17460, Note_on_c, 2, 65, 88
6, 17518, Note_off_c, 2, 65, 0
6, 17520, Note_on_c, 2, 63, 88
6, 17636, Note_off_c, 2, 63, 0
6, 17640, Note_on_c, 2, 62, 88
6, 17756, Note_off_c, 2, 62, 0
6, 17760, Note_on_c, 2, 60, 88
6, 17876, Note_off_c, 2, 60, 0
6, 17880, Note_on_c, 2, 75, 88
6, 17996, Note_off_c, 2, 75, 0
6, 18000, Note_on_c, 2, 68, 88
6, 18234, Note_off_c, 2, 68, 0
6, 18300, Note_on_c, 2, 67, 88
6, 18416, Note_off_c, 2, 67, 0
6, 18420, Note_on_c, 2, 65, 88
6, 18478, Note_off_c, 2, 65, 0
6, 18480, Note_on_c, 2, 63, 88
6, 18596, Note_off_c, 2, 63, 0
6, 18600, Note_on_c, 2, 64, 88
6, 18716, Note_off_c, 2, 64, 0
6, 18780, Note_on_c, 2, 65, 88
6, 18838, Note_off_c, 2, 65, 0
6, 18840, Note_on_c, 2, 62, 88
6, 18956, Note_off_c, 2, 62, 0
6, 19020, Note_on_c, 2, 63, 88
6, 19078, Note_off_c, 2, 63, 0
6, 19080, Note_on_c, 2, 65, 88
6, 19316, Note_off_c, 2, 65, 0
6, 19320, Note_on_c, 2, 63, 88
6, 19495, Note_off_c, 2, 63, 0
6, 19500, Note_on_c, 2, 64, 88
6, 19558, Note_off_c, 2, 64, 0
6, 19560, Note_on_c, 2, 65, 88
6, 19618, Note_off_c, 2, 65, 0
6, 19620, Note_on_c, 2, 67, 88
6, 19678, Note_off_c, 2, 67, 0
6, 19680, Note_on_c, 2, 68, 88
6, 19914, Note_off_c, 2, 68, 0
6, 19920, Note_on_c, 2, 67, 88
6, 20036, Note_off_c, 2, 67, 0
6, 20040, Note_on_c, 2, 65, 88
6, 20218, Note_off_c, 2, 65, 0
6, 20220, Note_on_c, 2, 63, 88
6, 20336, Note_off_c, 2, 63, 0
6, 20340, Note_on_c, 2, 65, 88
6, 20453, Note_off_c, 2, 65, 0
6, 20460, Note_on_c, 2, 65, 88
6, 20518, Note_off_c, 2, 65, 0
6, 20520, Note_on_c, 2, 63, 88
6, 20636, Note_off_c, 2, 63, 0
6, 20700, Note_on_c, 2, 65, 88
6, 20758, Note_off_c, 2, 65, 0
6, 20760, Note_on_c, 2, 63, 88
6, 20818, Note_off_c, 2, 63, 0
6, 20820, Note_on_c, 2, 62, 88
6, 20878, Note_off_c, 2, 62, 0
6, 20880, Note_on_c, 2, 63, 88
6, 21114, Note_off_c, 2, 63, 0
6, 21180, Note_on_c, 2, 62, 88
6, 21296, Note_off_c, 2, 62, 0
6, 21300, Note_on_c, 2, 60, 88
6, 21416, Note_off_c, 2, 60, 0
6, 21420, Note_on_c, 2, 57, 88
6, 21478, Note_off_c, 2, 57, 0
6, 21480, Note_on_c, 2, 59, 88
6, 21596, Note_off_c, 2, 59, 0
6, 21600, Note_on_c, 2, 60, 88
6, 21716, Note_off_c, 2, 60, 0
6, 21720, Note_on_c, 2, 67, 88
6, 21836, Note_off_c, 2, 67, 0
6, 21840, Note_on_c, 2, 63, 88
6, 21956, Note_off_c, 2, 63, 0
6, 21960, Note_on_c, 2, 65, 88
6, 22076, Note_off_c, 2, 65, 0
6, 22080, Note_on_c, 2, 67, 88
6, 22196, Note_off_c, 2, 67, 0
6, 22200, Note_on_c, 2, 60, 88
6, 22316, Note_off_c, 2, 60, 0
6, 22320, Note_on_c, 2, 65, 88
6, 22436, Note_off_c, 2, 65, 0
6, 22440, Note_on_c, 2, 63, 88
6, 22498, Note_off_c, 2, 63, 0
6, 22500, Note_on_c, 2, 62, 88
6, 22558, Note_off_c, 2, 62, 0
6, 22560, Note_on_c, 2, 64, 88
6, 22676, Note_off_c, 2, 64, 0
6, 22680, Note_on_c, 2, 65, 88
6, 22796, Note_off_c, 2, 65, 0
6, 22800, Note_on_c, 2, 67, 88
6, 22916, Note_off_c, 2, 67, 0
6, 22920, Note_on_c, 2, 65, 88
6, 22978, Note_off_c, 2, 65, 0
6, 22980, Note_on_c, 2, 64, 88
6, 23038, Note_off_c, 2, 64, 0
6, 23040, Note_on_c, 2, 65, 88
6, 23156, Note_off_c, 2, 65, 0
6, 23160, Note_on_c, 2, 67, 88
6, 23276, Note_off_c, 2, 67, 0
6, 23280, Note_on_c, 2, 64, 88
6, 23396, Note_off_c, 2, 64, 0
6, 23400, Note_on_c, 2, 65, 88
6, 23516, Note_off_c, 2, 65, 0
6, 23520, Note_on_c, 2, 67, 88
6, 23636, Note_off_c, 2, 67, 0
6, 23640, Note_on_c, 2, 60, 88
6, 23756, Note_off_c, 2, 60, 0
6, 23760, Note_on_c, 2, 65, 88
6, 23876, Note_off_c, 2, 65, 0
6, 23880, Note_on_c, 2, 64, 88
6, 23938, Note_off_c, 2, 64, 0
6, 23940, Note_on_c, 2, 62, 88
6, 23998, Note_off_c, 2, 62, 0
6, 24000, Note_on_c, 2, 64, 88
6, 24116, Note_off_c, 2, 64, 0
6, 24120, Note_on_c, 2, 63, 88
6, 24236, Note_off_c, 2, 63, 0
6, 24240, Note_on_c, 2, 61, 88
6, 24356, Note_off_c, 2, 61, 0
6, 24360, Note_on_c, 2, 63, 88
6, 24476, Note_off_c, 2, 63, 0
6, 24480, Note_on_c, 2, 65, 88
6, 24596, Note_off_c, 2, 65, 0
6, 24600, Note_on_c, 2, 63, 88
6, 24658, Note_off_c, 2, 63, 0
6, 24660, Note_on_c, 2, 62, 88
6, 24718, Note_off_c, 2, 62, 0
6, 24720, Note_on_c, 2, 63, 88
6, 24836, Note_off_c, 2, 63, 0
6, 24840, Note_on_c, 2, 67, 88
6, 24956, Note_off_c, 2, 67, 0
6, 25260, Note_on_c, 2, 69, 88
6, 25318, Note_off_c, 2, 69, 0
6, 25320, Note_on_c, 2, 66, 88
6, 25673, Note_off_c, 2, 66, 0
6, 25800, Note_on_c, 2, 65, 88
6, 25916, Note_off_c, 2, 65, 0
6, 25920, Note_on_c, 2, 64, 88
6, 26865, Note_off_c, 2, 64, 0
6, 26865, End_track
7, 0, Start_track
7, 0, Title_t, "Track 4"
7, 0, Program_c, 3, 6
7, 3000, Note_on_c, 3, 55, 88
7, 3116, Note_off_c, 3, 55, 0
7, 3120, Note_on_c, 3, 51, 88
7, 3236, Note_off_c, 3, 51, 0
7, 3240, Note_on_c, 3, 53, 88
7, 3356, Note_off_c, 3, 53, 0
7, 3360, Note_on_c, 3, 55, 88
7, 3476, Note_off_c, 3, 55, 0
7, 3480, Note_on_c, 3, 48, 88
7, 3596, Note_off_c, 3, 48, 0
7, 3600, Note_on_c, 3, 53, 88
7, 3716, Note_off_c, 3, 53, 0
7, 3720, Note_on_c, 3, 51, 88
7, 3778, Note_off_c, 3, 51, 0
7, 3780, Note_on_c, 3, 50, 88
7, 3838, Note_off_c, 3, 50, 0
7, 3840, Note_on_c, 3, 51, 88
7, 3898, Note_off_c, 3, 51, 0
7, 3900, Note_on_c, 3, 55, 88
7, 3958, Note_off_c, 3, 55, 0
7, 3960, Note_on_c, 3, 48, 88
7, 4018, Note_off_c, 3, 48, 0
7, 4020, Note_on_c, 3, 50, 88
7, 4078, Note_off_c, 3, 50, 0
7, 4080, Note_on_c, 3, 51, 88
7, 4138, Note_off_c, 3, 51, 0
7, 4140, Note_on_c, 3, 53, 88
7, 4198, Note_off_c, 3, 53, 0
7, 4200, Note_on_c, 3, 55, 88
7, 4258, Note_off_c, 3, 55, 0
7, 4260, Note_on_c, 3, 57, 88
7, 4318, Note_off_c, 3, 57, 0
7, 4320, Note_on_c, 3, 58, 88
7, 4378, Note_off_c, 3, 58, 0
7, 4380, Note_on_c, 3, 62, 88
7, 4438, Note_off_c, 3, 62, 0
7, 4440, Note_on_c, 3, 55, 88
7, 4498, Note_off_c, 3, 55, 0
7, 4500, Note_on_c, 3, 57, 88
7, 4558, Note_off_c, 3, 57, 0
7, 4560, Note_on_c, 3, 58, 88
7, 4618, Note_off_c, 3, 58, 0
7, 4620, Note_on_c, 3, 60, 88
7, 4678, Note_off_c, 3, 60, 0
7, 4680, Note_on_c, 3, 62, 88
7, 4738, Note_off_c, 3, 62, 0
7, 4740, Note_on_c, 3, 64, 88
7, 4798, Note_off_c, 3, 64, 0
7, 4800, Note_on_c, 3, 65, 88
7, 4916, Note_off_c, 3, 65, 0
7, 4920, Note_on_c, 3, 56, 88
7, 5036, Note_off_c, 3, 56, 0
7, 5040, Note_on_c, 3, 53, 88
7, 5156, Note_off_c, 3, 53, 0
7, 5160, Note_on_c, 3, 56, 88
7, 5276, Note_off_c, 3, 56, 0
7, 5280, Note_on_c, 3, 58, 88
7, 5396, Note_off_c, 3, 58, 0
7, 13560, Note_on_c, 3, 55, 88
7, 13676, Note_off_c, 3, 55, 0
7, 13680, Note_on_c, 3, 56, 88
7, 13796, Note_off_c, 3, 56, 0
7, 13800, Note_on_c, 3, 55, 88
7, 13916, Note_off_c, 3, 55, 0
7, 13920, Note_on_c, 3, 53, 88
7, 14036, Note_off_c, 3, 53, 0
7, 14040, Note_on_c, 3, 62, 88
7, 14156, Note_off_c, 3, 62, 0
7, 14160, Note_on_c, 3, 55, 88
7, 14276, Note_off_c, 3, 55, 0
7, 14280, Note_on_c, 3, 57, 88
7, 14338, Note_off_c, 3, 57, 0
7, 14340, Note_on_c, 3, 59, 88
7, 14398, Note_off_c, 3, 59, 0
7, 14400, Note_on_c, 3, 60, 88
7, 14458, Note_off_c, 3, 60, 0
7, 14460, Note_on_c, 3, 62, 88
7, 14518, Note_off_c, 3, 62, 0
7, 14520, Note_on_c, 3, 63, 88
7, 14578, Note_off_c, 3, 63, 0
7, 14580, Note_on_c, 3, 65, 88
7, 14638, Note_off_c, 3, 65, 0
7, 14640, Note_on_c, 3, 67, 88
7, 14698, Note_off_c, 3, 67, 0
7, 14700, Note_on_c, 3, 63, 88
7, 14758, Note_off_c, 3, 63, 0
7, 14760, Note_on_c, 3, 62, 88
7, 14818, Note_off_c, 3, 62, 0
7, 14820, Note_on_c, 3, 60, 88
7, 14878, Note_off_c, 3, 60, 0
7, 14880, Note_on_c, 3, 58, 88
7, 14938, Note_off_c, 3, 58, 0
7, 14940, Note_on_c, 3, 57, 88
7, 14998, Note_off_c, 3, 57, 0
7, 15000, Note_on_c, 3, 58, 88
7, 15175, Note_off_c, 3, 58, 0
7, 15180, Note_on_c, 3, 57, 88
7, 15238, Note_off_c, 3, 57, 0
7, 15240, Note_on_c, 3, 62, 88
7, 15298, Note_off_c, 3, 62, 0
7, 15300, Note_on_c, 3, 60, 88
7, 15358, Note_off_c, 3, 60, 0
7, 15360, Note_on_c, 3, 58, 88
7, 15418, Note_off_c, 3, 58, 0
7, 15420, Note_on_c, 3, 55, 88
7, 15478, Note_off_c, 3, 55, 0
7, 15480, Note_on_c, 3, 60, 88
7, 15596, Note_off_c, 3, 60, 0
7, 15600, Note_on_c, 3, 57, 88
7, 15716, Note_off_c, 3, 57, 0
7, 15720, Note_on_c, 3, 59, 88
7, 15836, Note_off_c, 3, 59, 0
7, 15840, Note_on_c, 3, 60, 88
7, 15956, Note_off_c, 3, 60, 0
7, 15960, Note_on_c, 3, 53, 88
7, 16076, Note_off_c, 3, 53, 0
7, 16080, Note_on_c, 3, 58, 88
7, 16196, Note_off_c, 3, 58, 0
7, 16200, Note_on_c, 3, 56, 88
7, 16258, Note_off_c, 3, 56, 0
7, 16260, Note_on_c, 3, 55, 88
7, 16318, Note_off_c, 3, 55, 0
7, 16320, Note_on_c, 3, 57, 88
7, 16436, Note_off_c, 3, 57, 0
7, 16440, Note_on_c, 3, 62, 88
7, 16615, Note_off_c, 3, 62, 0
7, 16620, Note_on_c, 3, 60, 88
7, 16678, Note_off_c, 3, 60, 0
7, 16680, Note_on_c, 3, 65, 88
7, 16738, Note_off_c, 3, 65, 0
7, 16740, Note_on_c, 3, 63, 88
7, 16798, Note_off_c, 3, 63, 0
7, 16800, Note_on_c, 3, 62, 88
7, 16858, Note_off_c, 3, 62, 0
7, 16860, Note_on_c, 3, 60, 88
7, 16918, Note_off_c, 3, 60, 0
7, 16920, Note_on_c, 3, 61, 88
7, 17095, Note_off_c, 3, 61, 0
7, 17100, Note_on_c, 3, 60, 88
7, 17158, Note_off_c, 3, 60, 0
7, 17160, Note_on_c, 3, 58, 88
7, 17218, Note_off_c, 3, 58, 0
7, 17220, Note_on_c, 3, 56, 88
7, 17278, Note_off_c, 3, 56, 0
7, 17280, Note_on_c, 3, 58, 88
7, 17396, Note_off_c, 3, 58, 0
7, 17400, Note_on_c, 3, 59, 88
7, 17516, Note_off_c, 3, 59, 0
7, 17520, Note_on_c, 3, 60, 88
7, 17636, Note_off_c, 3, 60, 0
7, 17640, Note_on_c, 3, 62, 88
7, 17756, Note_off_c, 3, 62, 0
7, 17760, Note_on_c, 3, 55, 88
7, 17818, Note_off_c, 3, 55, 0
7, 17820, Note_on_c, 3, 60, 88
7, 17878, Note_off_c, 3, 60, 0
7, 17880, Note_on_c, 3, 59, 88
7, 17938, Note_off_c, 3, 59, 0
7, 17940, Note_on_c, 3, 60, 88
7, 18056, Note_off_c, 3, 60, 0
7, 18060, Note_on_c, 3, 59, 88
7, 18118, Note_off_c, 3, 59, 0
7, 18120, Note_on_c, 3, 60, 88
7, 18356, Note_off_c, 3, 60, 0
7, 18360, Note_on_c, 3, 59, 88
7, 18476, Note_off_c, 3, 59, 0
7, 18480, Note_on_c, 3, 60, 88
7, 18833, Note_off_c, 3, 60, 0
7, 18840, Note_on_c, 3, 59, 88
7, 18956, Note_off_c, 3, 59, 0
7, 18960, Note_on_c, 3, 60, 88
7, 19135, Note_off_c, 3, 60, 0
7, 19140, Note_on_c, 3, 59, 88
7, 19258, Note_off_c, 3, 59, 0
7, 19260, Note_on_c, 3, 55, 88
7, 19318, Note_off_c, 3, 55, 0
7, 19320, Note_on_c, 3, 60, 88
7, 19554, Note_off_c, 3, 60, 0
7, 19560, Note_on_c, 3, 58, 88
7, 19676, Note_off_c, 3, 58, 0
7, 19680, Note_on_c, 3, 56, 88
7, 19738, Note_off_c, 3, 56, 0
7, 19740, Note_on_c, 3, 67, 88
7, 19798, Note_off_c, 3, 67, 0
7, 19800, Note_on_c, 3, 65, 88
7, 19858, Note_off_c, 3, 65, 0
7, 19860, Note_on_c, 3, 63, 88
7, 19918, Note_off_c, 3, 63, 0
7, 19920, Note_on_c, 3, 62, 88
7, 20276, Note_off_c, 3, 62, 0
7, 20280, Note_on_c, 3, 60, 88
7, 20396, Note_off_c, 3, 60, 0
7, 20400, Note_on_c, 3, 62, 88
7, 20516, Note_off_c, 3, 62, 0
7, 20520, Note_on_c, 3, 60, 88
7, 20636, Note_off_c, 3, 60, 0
7, 20640, Note_on_c, 3, 53, 88
7, 20756, Note_off_c, 3, 53, 0
7, 20760, Note_on_c, 3, 55, 88
7, 20994, Note_off_c, 3, 55, 0
7, 21000, Note_on_c, 3, 57, 88
7, 21116, Note_off_c, 3, 57, 0
7, 21120, Note_on_c, 3, 55, 88
7, 21354, Note_off_c, 3, 55, 0
7, 21540, Note_on_c, 3, 53, 88
7, 21598, Note_off_c, 3, 53, 0
7, 21600, Note_on_c, 3, 51, 88
7, 21716, Note_off_c, 3, 51, 0
7, 22200, Note_on_c, 3, 63, 88
7, 22316, Note_off_c, 3, 63, 0
7, 22320, Note_on_c, 3, 59, 88
7, 22436, Note_off_c, 3, 59, 0
7, 22440, Note_on_c, 3, 60, 88
7, 22556, Note_off_c, 3, 60, 0
7, 22560, Note_on_c, 3, 55, 88
7, 22676, Note_off_c, 3, 55, 0
7, 23160, Note_on_c, 3, 61, 88
7, 23276, Note_off_c, 3, 61, 0
7, 23280, Note_on_c, 3, 55, 88
7, 23396, Note_off_c, 3, 55, 0
7, 23400, Note_on_c, 3, 56, 88
7, 23516, Note_off_c, 3, 56, 0
7, 23520, Note_on_c, 3, 52, 88
7, 23636, Note_off_c, 3, 52, 0
7, 23640, Note_on_c, 3, 60, 88
7, 23756, Note_off_c, 3, 60, 0
7, 23760, Note_on_c, 3, 56, 88
7, 23876, Note_off_c, 3, 56, 0
7, 23880, Note_on_c, 3, 58, 88
7, 23996, Note_off_c, 3, 58, 0
7, 24000, Note_on_c, 3, 60, 88
7, 24116, Note_off_c, 3, 60, 0
7, 24120, Note_on_c, 3, 53, 88
7, 24236, Note_off_c, 3, 53, 0
7, 24240, Note_on_c, 3, 58, 88
7, 24356, Note_off_c, 3, 58, 0
7, 24360, Note_on_c, 3, 56, 88
7, 24418, Note_off_c, 3, 56, 0
7, 24420, Note_on_c, 3, 55, 88
7, 24478, Note_off_c, 3, 55, 0
7, 24480, Note_on_c, 3, 56, 88
7, 24596, Note_off_c, 3, 56, 0
7, 24600, Note_on_c, 3, 55, 88
7, 24713, Note_off_c, 3, 55, 0
7, 24720, Note_on_c, 3, 55, 88
7, 24836, Note_off_c, 3, 55, 0
7, 24840, Note_on_c, 3, 63, 88
7, 24956, Note_off_c, 3, 63, 0
7, 25380, Note_on_c, 3, 62, 88
7, 25438, Note_off_c, 3, 62, 0
7, 25440, Note_on_c, 3, 63, 88
7, 25674, Note_off_c, 3, 63, 0
7, 25800, Note_on_c, 3, 62, 88
7, 25916, Note_off_c, 3, 62, 0
7, 25920, Note_on_c, 3, 60, 88
7, 26865, Note_off_c, 3, 60, 0
7, 26865, End_track
8, 0, Start_track
8, 0, Title_t, "Track 5"
8, 0, Program_c, 4, 6
8, 5880, Note_on_c, 4, 48, 88
8, 5996, Note_off_c, 4, 48, 0
8, 6000, Note_on_c, 4, 47, 88
8, 6116, Note_off_c, 4, 47, 0
8, 6120, Note_on_c, 4, 48, 88
8, 6236, Note_off_c, 4, 48, 0
8, 6240, Note_on_c, 4, 50, 88
8, 6356, Note_off_c, 4, 50, 0
8, 6360, Note_on_c, 4, 43, 88
8, 6476, Note_off_c, 4, 43, 0
8, 6480, Note_on_c, 4, 48, 88
8, 6596, Note_off_c, 4, 48, 0
8, 6600, Note_on_c, 4, 47, 88
8, 6658, Note_off_c, 4, 47, 0
8, 6660, Note_on_c, 4, 45, 88
8, 6718, Note_off_c, 4, 45, 0
8, 6720, Note_on_c, 4, 47, 88
8, 6836, Note_off_c, 4, 47, 0
8, 6840, Note_on_c, 4, 43, 88
8, 6956, Note_off_c, 4, 43, 0
8, 6960, Note_on_c, 4, 48, 88
8, 7076, Note_off_c, 4, 48, 0
8, 7080, Note_on_c, 4, 44, 88
8, 7196, Note_off_c, 4, 44, 0
8, 7200, Note_on_c, 4, 39, 88
8, 7375, Note_off_c, 4, 39, 0
8, 7380, Note_on_c, 4, 56, 88
8, 7438, Note_off_c, 4, 56, 0
8, 7440, Note_on_c, 4, 50, 88
8, 7556, Note_off_c, 4, 50, 0
8, 7560, Note_on_c, 4, 55, 88
8, 7676, Note_off_c, 4, 55, 0
8, 7680, Note_on_c, 4, 48, 88
8, 7855, Note_off_c, 4, 48, 0
8, 7860, Note_on_c, 4, 53, 88
8, 7918, Note_off_c, 4, 53, 0
8, 7920, Note_on_c, 4, 46, 88
8, 8036, Note_off_c, 4, 46, 0
8, 8040, Note_on_c, 4, 51, 88
8, 8156, Note_off_c, 4, 51, 0
8, 8160, Note_on_c, 4, 44, 88
8, 8335, Note_off_c, 4, 44, 0
8, 8340, Note_on_c, 4, 49, 88
8, 8398, Note_off_c, 4, 49, 0
8, 8400, Note_on_c, 4, 43, 88
8, 8516, Note_off_c, 4, 43, 0
8, 8520, Note_on_c, 4, 48, 88
8, 8636, Note_off_c, 4, 48, 0
8, 8640, Note_on_c, 4, 41, 88
8, 8698, Note_off_c, 4, 41, 0
8, 8700, Note_on_c, 4, 48, 88
8, 8758, Note_off_c, 4, 48, 0
8, 8760, Note_on_c, 4, 53, 88
8, 8935, Note_off_c, 4, 53, 0
8, 8940, Note_on_c, 4, 51, 88
8, 8998, Note_off_c, 4, 51, 0
8, 9000, Note_on_c, 4, 50, 88
8, 9058, Note_off_c, 4, 50, 0
8, 9060, Note_on_c, 4, 48, 88
8, 9118, Note_off_c, 4, 48, 0
8, 9120, Note_on_c, 4, 47, 88
8, 9178, Note_off_c, 4, 47, 0
8, 9180, Note_on_c, 4, 43, 88
8, 9238, Note_off_c, 4, 43, 0
8, 9240, Note_on_c, 4, 48, 88
8, 9298, Note_off_c, 4, 48, 0
8, 9300, Note_on_c, 4, 46, 88
8, 9358, Note_off_c, 4, 46, 0
8, 9360, Note_on_c, 4, 44, 88
8, 9418, Note_off_c, 4, 44, 0
8, 9420, Note_on_c, 4, 48, 88
8, 9478, Note_off_c, 4, 48, 0
8, 9480, Note_on_c, 4, 38, 88
8, 9596, Note_off_c, 4, 38, 0
8, 9600, Note_on_c, 4, 39, 88
8, 9775, Note_off_c, 4, 39, 0
8, 9780, Note_on_c, 4, 36, 88
8, 9838, Note_off_c, 4, 36, 0
8, 9840, Note_on_c, 4, 41, 88
8, 9956, Note_off_c, 4, 41, 0
8, 9960, Note_on_c, 4, 46, 88
8, 10076, Note_off_c, 4, 46, 0
8, 10080, Note_on_c, 4, 47, 88
8, 10196, Note_off_c, 4, 47, 0
8, 10200, Note_on_c, 4, 48, 88
8, 10316, Note_off_c, 4, 48, 0
8, 10320, Note_on_c, 4, 44, 88
8, 10436, Note_off_c, 4, 44, 0
8, 10440, Note_on_c, 4, 46, 88
8, 10556, Note_off_c, 4, 46, 0
8, 10560, Note_on_c, 4, 48, 88
8, 10676, Note_off_c, 4, 48, 0
8, 10680, Note_on_c, 4, 41, 88
8, 10796, Note_off_c, 4, 41, 0
8, 10800, Note_on_c, 4, 46, 88
8, 10916, Note_off_c, 4, 46, 0
8, 10920, Note_on_c, 4, 44, 88
8, 10978, Note_off_c, 4, 44, 0
8, 10980, Note_on_c, 4, 43, 88
8, 11038, Note_off_c, 4, 43, 0
8, 11040, Note_on_c, 4, 44, 88
8, 11156, Note_off_c, 4, 44, 0
8, 11160, Note_on_c, 4, 56, 88
8, 11218, Note_off_c, 4, 56, 0
8, 11220, Note_on_c, 4, 53, 88
8, 11278, Note_off_c, 4, 53, 0
8, 11280, Note_on_c, 4, 58, 88
8, 11396, Note_off_c, 4, 58, 0
8, 11400, Note_on_c, 4, 60, 88
8, 11516, Note_off_c, 4, 60, 0
8, 11520, Note_on_c, 4, 50, 88
8, 11636, Note_off_c, 4, 50, 0
8, 11640, Note_on_c, 4, 55, 88
8, 11756, Note_off_c, 4, 55, 0
8, 11760, Note_on_c, 4, 48, 88
8, 11876, Note_off_c, 4, 48, 0
8, 11880, Note_on_c, 4, 46, 88
8, 11938, Note_off_c, 4, 46, 0
8, 11940, Note_on_c, 4, 45, 88
8, 11998, Note_off_c, 4, 45, 0
8, 12000, Note_on_c, 4, 46, 88
8, 12116, Note_off_c, 4, 46, 0
8, 12120, Note_on_c, 4, 51, 88
8, 12236, Note_off_c, 4, 51, 0
8, 12240, Note_on_c, 4, 48, 88
8, 12356, Note_off_c, 4, 48, 0
8, 12360, Note_on_c, 4, 50, 88
8, 12476, Note_off_c, 4, 50, 0
8, 12480, Note_on_c, 4, 43, 88
8, 12596, Note_off_c, 4, 43, 0
8, 17520, Note_on_c, 4, 55, 88
8, 17754, Note_off_c, 4, 55, 0
8, 17760, Note_on_c, 4, 51, 88
8, 17994, Note_off_c, 4, 51, 0
8, 18000, Note_on_c, 4, 53, 88
8, 18234, Note_off_c, 4, 53, 0
8, 18240, Note_on_c, 4, 55, 88
8, 18474, Note_off_c, 4, 55, 0
8, 18480, Note_on_c, 4, 48, 88
8, 18714, Note_off_c, 4, 48, 0
8, 18720, Note_on_c, 4, 53, 88
8, 18954, Note_off_c, 4, 53, 0
8, 18960, Note_on_c, 4, 51, 88
8, 19076, Note_off_c, 4, 51, 0
8, 19080, Note_on_c, 4, 50, 88
8, 19196, Note_off_c, 4, 50, 0
8, 19200, Note_on_c, 4, 51, 88
8, 19375, Note_off_c, 4, 51, 0
8, 19380, Note_on_c, 4, 55, 88
8, 19438, Note_off_c, 4, 55, 0
8, 19440, Note_on_c, 4, 56, 88
8, 19556, Note_off_c, 4, 56, 0
8, 19560, Note_on_c, 4, 55, 88
8, 19676, Note_off_c, 4, 55, 0
8, 19680, Note_on_c, 4, 53, 88
8, 19796, Note_off_c, 4, 53, 0
8, 19800, Note_on_c, 4, 62, 88
8, 19916, Note_off_c, 4, 62, 0
8, 19920, Note_on_c, 4, 55, 88
8, 20036, Note_off_c, 4, 55, 0
8, 20040, Note_on_c, 4, 57, 88
8, 20098, Note_off_c, 4, 57, 0
8, 20100, Note_on_c, 4, 59, 88
8, 20158, Note_off_c, 4, 59, 0
8, 20160, Note_on_c, 4, 60, 88
8, 20276, Note_off_c, 4, 60, 0
8, 20280, Note_on_c, 4, 48, 88
8, 20396, Note_off_c, 4, 48, 0
8, 20400, Note_on_c, 4, 47, 88
8, 20516, Note_off_c, 4, 47, 0
8, 20520, Note_on_c, 4, 48, 88
8, 20636, Note_off_c, 4, 48, 0
8, 20640, Note_on_c, 4, 50, 88
8, 20756, Note_off_c, 4, 50, 0
8, 20760, Note_on_c, 4, 43, 88
8, 20876, Note_off_c, 4, 43, 0
8, 20880, Note_on_c, 4, 48, 88
8, 20996, Note_off_c, 4, 48, 0
8, 21000, Note_on_c, 4, 47, 88
8, 21058, Note_off_c, 4, 47, 0
8, 21060, Note_on_c, 4, 45, 88
8, 21118, Note_off_c, 4, 45, 0
8, 21120, Note_on_c, 4, 47, 88
8, 21236, Note_off_c, 4, 47, 0
8, 21240, Note_on_c, 4, 48, 88
8, 21356, Note_off_c, 4, 48, 0
8, 21360, Note_on_c, 4, 41, 88
8, 21476, Note_off_c, 4, 41, 0
8, 21480, Note_on_c, 4, 43, 88
8, 21596, Note_off_c, 4, 43, 0
8, 21600, Note_on_c, 4, 36, 88
8, 21716, Note_off_c, 4, 36, 0
8, 22560, Note_on_c, 4, 48, 88
8, 22676, Note_off_c, 4, 48, 0
8, 23520, Note_on_c, 4, 48, 88
8, 23636, Note_off_c, 4, 48, 0
8, 24120, Note_on_c, 4, 48, 88
8, 24236, Note_off_c, 4, 48, 0
8, 24240, Note_on_c, 4, 49, 88
8, 24356, Note_off_c, 4, 49, 0
8, 24360, Note_on_c, 4, 48, 88
8, 24476, Note_off_c, 4, 48, 0
8, 24480, Note_on_c, 4, 47, 88
8, 24596, Note_off_c, 4, 47, 0
8, 24600, Note_on_c, 4, 53, 88
8, 24716, Note_off_c, 4, 53, 0
8, 24720, Note_on_c, 4, 51, 88
8, 24778, Note_off_c, 4, 51, 0
8, 24780, Note_on_c, 4, 50, 88
8, 24838, Note_off_c, 4, 50, 0
8, 24840, Note_on_c, 4, 48, 88
8, 24898, Note_off_c, 4, 48, 0
8, 24900, Note_on_c, 4, 50, 88
8, 24929, Note_off_c, 4, 50, 0
8, 24930, Note_on_c, 4, 51, 88
8, 24959, Note_off_c, 4, 51, 0
8, 24960, Note_on_c, 4, 42, 88
8, 25194, Note_off_c, 4, 42, 0
8, 25500, Note_on_c, 4, 59, 88
8, 25558, Note_off_c, 4, 59, 0
8, 25560, Note_on_c, 4, 60, 88
8, 25618, Note_off_c, 4, 60, 0
8, 25620, Note_on_c, 4, 54, 88
8, 25678, Note_off_c, 4, 54, 0
8, 25680, Note_on_c, 4, 55, 88
8, 25796, Note_off_c, 4, 55, 0
8, 25800, Note_on_c, 4, 43, 88
8, 25916, Note_off_c, 4, 43, 0
8, 25920, Note_on_c, 4, 36, 88
8, 25920, Note_on_c, 4, 48, 88
8, 26865, Note_off_c, 4, 36, 0
8, 26865, Note_off_c, 4, 48, 0
8, 26865, End_track
0, 0, End_of_file
