0, 0, Header, 1, 9, 240
1, 0, Start_track
1, 0, Time_signature, 4, 2, 24, 8
1, 0, Tempo, 882352
1, 0, SMPTE_offset, 64, 0, 0, 0, 93
1, 0, End_track
2, 0, Start_track
2, 0, Title_t, "(C) & (P) 1993"
2, 127, End_track
3, 0, Start_track
3, 0, Title_t, "CCARH,Stanford"
3, 0, End_track
4, 0, Start_track
4, 0, Title_t, "Track 1"
4, 0, Program_c, 0, 6
4, 600, Note_on_c, 0, 68, 88
4, 716, Note_off_c, 0, 68, 0
4, 720, Note_on_c, 0, 72, 88
4, 836, Note_off_c, 0, 72, 0
4, 840, Note_on_c, 0, 68, 88
4, 956, Note_off_c, 0, 68, 0
4, 960, Note_on_c, 0, 73, 88
4, 1076, Note_off_c, 0, 73, 0
4, 1200, Note_on_c, 0, 71, 88
4, 1316, Note_off_c, 0, 71, 0
4, 1440, Note_on_c, 0, 70, 88
4, 1498, Note_off_c, 0, 70, 0
4, 1500, Note_on_c, 0, 68, 88
4, 1558, Note_off_c, 0, 68, 0
4, 1560, Note_on_c, 0, 66, 88
4, 1735, Note_off_c, 0, 66, 0
4, 1740, Note_on_c, 0, 68, 88
4, 1798, Note_off_c, 0, 68, 0
4, 1800, Note_on_c, 0, 70, 88
4, 1858, Note_off_c, 0, 70, 0
4, 1860, Note_on_c, 0, 66, 88
4, 1918, Note_off_c, 0, 66, 0
4, 1920, Note_on_c, 0, 68, 88
4, 2036, Note_off_c, 0, 68, 0
4, 2160, Note_on_c, 0, 73, 88
4, 2276, Note_off_c, 0, 73, 0
4, 2400, Note_on_c, 0, 73, 88
4, 2516, Note_off_c, 0, 73, 0
4, 2640, Note_on_c, 0, 72, 88
4, 2756, Note_off_c, 0, 72, 0
4, 3000, Note_on_c, 0, 73, 88
4, 3116, Note_off_c, 0, 73, 0
4, 3120, Note_on_c, 0, 77, 88
4, 3236, Note_off_c, 0, 77, 0
4, 3240, Note_on_c, 0, 73, 88
4, 3356, Note_off_c, 0, 73, 0
4, 3360, Note_on_c, 0, 80, 88
4, 3476, Note_off_c, 0, 80, 0
4, 3600, Note_on_c, 0, 78, 88
4, 3716, Note_off_c, 0, 78, 0
4, 3840, Note_on_c, 0, 77, 88
4, 3898, Note_off_c, 0, 77, 0
4, 3900, Note_on_c, 0, 75, 88
4, 3958, Note_off_c, 0, 75, 0
4, 3960, Note_on_c, 0, 73, 88
4, 4135, Note_off_c, 0, 73, 0
4, 4140, Note_on_c, 0, 75, 88
4, 4198, Note_off_c, 0, 75, 0
4, 4200, Note_on_c, 0, 77, 88
4, 4258, Note_off_c, 0, 77, 0
4, 4260, Note_on_c, 0, 73, 88
4, 4318, Note_off_c, 0, 73, 0
4, 4380, Note_on_c, 0, 75, 88
4, 4438, Note_off_c, 0, 75, 0
4, 4440, Note_on_c, 0, 78, 88
4, 4498, Note_off_c, 0, 78, 0
4, 4500, Note_on_c, 0, 75, 88
4, 4558, Note_off_c, 0, 75, 0
4, 4560, Note_on_c, 0, 80, 88
4, 4676, Note_off_c, 0, 80, 0
4, 4800, Note_on_c, 0, 78, 88
4, 4916, Note_off_c, 0, 78, 0
4, 5040, Note_on_c, 0, 77, 88
4, 5205, Note_off_c, 0, 77, 0
4, 5220, Note_on_c, 0, 77, 88
4, 5278, Note_off_c, 0, 77, 0
4, 5280, Note_on_c, 0, 79, 88
4, 5396, Note_off_c, 0, 79, 0
4, 5400, Note_on_c, 0, 80, 88
4, 5565, Note_off_c, 0, 80, 0
4, 5580, Note_on_c, 0, 80, 88
4, 5638, Note_off_c, 0, 80, 0
4, 5640, Note_on_c, 0, 79, 88
4, 5756, Note_off_c, 0, 79, 0
4, 5760, Note_on_c, 0, 80, 88
4, 5876, Note_off_c, 0, 80, 0
4, 6840, Note_on_c, 0, 65, 88
4, 6956, Note_off_c, 0, 65, 0
4, 6960, Note_on_c, 0, 68, 88
4, 7076, Note_off_c, 0, 68, 0
4, 7080, Note_on_c, 0, 65, 88
4, 7196, Note_off_c, 0, 65, 0
4, 7200, Note_on_c, 0, 70, 88
4, 7316, Note_off_c, 0, 70, 0
4, 7440, Note_on_c, 0, 68, 88
4, 7556, Note_off_c, 0, 68, 0
4, 7680, Note_on_c, 0, 66, 88
4, 7738, Note_off_c, 0, 66, 0
4, 7740, Note_on_c, 0, 68, 88
4, 7798, Note_off_c, 0, 68, 0
4, 7800, Note_on_c, 0, 70, 88
4, 7858, Note_off_c, 0, 70, 0
4, 7860, Note_on_c, 0, 72, 88
4, 7918, Note_off_c, 0, 72, 0
4, 7920, Note_on_c, 0, 74, 88
4, 7978, Note_off_c, 0, 74, 0
4, 7980, Note_on_c, 0, 75, 88
4, 8038, Note_off_c, 0, 75, 0
4, 8040, Note_on_c, 0, 77, 88
4, 8069, Note_off_c, 0, 77, 0
4, 8070, Note_on_c, 0, 75, 88
4, 8099, Note_off_c, 0, 75, 0
4, 8100, Note_on_c, 0, 74, 88
4, 8158, Note_off_c, 0, 74, 0
4, 8160, Note_on_c, 0, 75, 88
4, 8276, Note_off_c, 0, 75, 0
4, 8520, Note_on_c, 0, 75, 88
4, 8636, Note_off_c, 0, 75, 0
4, 8640, Note_on_c, 0, 72, 88
4, 8756, Note_off_c, 0, 72, 0
4, 8760, Note_on_c, 0, 75, 88
4, 8876, Note_off_c, 0, 75, 0
4, 8880, Note_on_c, 0, 68, 88
4, 8996, Note_off_c, 0, 68, 0
4, 9000, Note_on_c, 0, 73, 88
4, 9116, Note_off_c, 0, 73, 0
4, 9120, Note_on_c, 0, 70, 88
4, 9236, Note_off_c, 0, 70, 0
4, 9360, Note_on_c, 0, 72, 88
4, 9476, Note_off_c, 0, 72, 0
4, 9600, Note_on_c, 0, 73, 88
4, 9716, Note_off_c, 0, 73, 0
4, 9720, Note_on_c, 0, 80, 88
4, 9836, Note_off_c, 0, 80, 0
4, 9840, Note_on_c, 0, 77, 88
4, 9956, Note_off_c, 0, 77, 0
4, 9960, Note_on_c, 0, 80, 88
4, 10076, Note_off_c, 0, 80, 0
4, 10080, Note_on_c, 0, 73, 88
4, 10196, Note_off_c, 0, 73, 0
4, 10380, Note_on_c, 0, 71, 88
4, 10438, Note_off_c, 0, 71, 0
4, 10440, Note_on_c, 0, 70, 88
4, 10498, Note_off_c, 0, 70, 0
4, 10500, Note_on_c, 0, 68, 88
4, 10558, Note_off_c, 0, 68, 0
4, 10560, Note_on_c, 0, 70, 88
4, 10845, Note_off_c, 0, 70, 0
4, 10860, Note_on_c, 0, 70, 88
4, 10918, Note_off_c, 0, 70, 0
4, 10920, Note_on_c, 0, 75, 88
4, 11036, Note_off_c, 0, 75, 0
4, 11040, Note_on_c, 0, 68, 88
4, 11325, Note_off_c, 0, 68, 0
4, 11340, Note_on_c, 0, 68, 88
4, 11398, Note_off_c, 0, 68, 0
4, 11400, Note_on_c, 0, 73, 88
4, 11516, Note_off_c, 0, 73, 0
4, 11520, Note_on_c, 0, 66, 88
4, 11814, Note_off_c, 0, 66, 0
4, 11820, Note_on_c, 0, 65, 88
4, 11878, Note_off_c, 0, 65, 0
4, 11880, Note_on_c, 0, 66, 88
4, 11996, Note_off_c, 0, 66, 0
4, 12000, Note_on_c, 0, 65, 88
4, 12294, Note_off_c, 0, 65, 0
4, 12300, Note_on_c, 0, 63, 88
4, 12358, Note_off_c, 0, 63, 0
4, 12360, Note_on_c, 0, 65, 88
4, 12645, Note_off_c, 0, 65, 0
4, 12660, Note_on_c, 0, 65, 88
4, 12718, Note_off_c, 0, 65, 0
4, 12720, Note_on_c, 0, 63, 88
4, 12954, Note_off_c, 0, 63, 0
4, 12960, Note_on_c, 0, 65, 88
4, 13076, Note_off_c, 0, 65, 0
4, 13320, Note_on_c, 0, 77, 88
4, 13436, Note_off_c, 0, 77, 0
4, 13440, Note_on_c, 0, 73, 88
4, 13556, Note_off_c, 0, 73, 0
4, 13560, Note_on_c, 0, 77, 88
4, 13676, Note_off_c, 0, 77, 0
4, 13680, Note_on_c, 0, 70, 88
4, 13796, Note_off_c, 0, 70, 0
4, 14040, Note_on_c, 0, 82, 88
4, 14156, Note_off_c, 0, 82, 0
4, 14160, Note_on_c, 0, 79, 88
4, 14276, Note_off_c, 0, 79, 0
4, 14280, Note_on_c, 0, 82, 88
4, 14396, Note_off_c, 0, 82, 0
4, 14400, Note_on_c, 0, 75, 88
4, 14516, Note_off_c, 0, 75, 0
4, 14640, Note_on_c, 0, 77, 88
4, 14756, Note_off_c, 0, 77, 0
4, 14880, Note_on_c, 0, 78, 88
4, 14938, Note_off_c, 0, 78, 0
4, 14940, Note_on_c, 0, 80, 88
4, 14998, Note_off_c, 0, 80, 0
4, 15000, Note_on_c, 0, 82, 88
4, 15175, Note_off_c, 0, 82, 0
4, 15180, Note_on_c, 0, 80, 88
4, 15238, Note_off_c, 0, 80, 0
4, 15240, Note_on_c, 0, 78, 88
4, 15298, Note_off_c, 0, 78, 0
4, 15300, Note_on_c, 0, 80, 88
4, 15358, Note_off_c, 0, 80, 0
4, 15360, Note_on_c, 0, 77, 88
4, 15418, Note_off_c, 0, 77, 0
4, 15420, Note_on_c, 0, 78, 88
4, 15478, Note_off_c, 0, 78, 0
4, 15480, Note_on_c, 0, 80, 88
4, 15655, Note_off_c, 0, 80, 0
4, 15660, Note_on_c, 0, 78, 88
4, 15718, Note_off_c, 0, 78, 0
4, 15720, Note_on_c, 0, 77, 88
4, 15778, Note_off_c, 0, 77, 0
4, 15780, Note_on_c, 0, 78, 88
4, 15838, Note_off_c, 0, 78, 0
4, 15840, Note_on_c, 0, 75, 88
4, 15898, Note_off_c, 0, 75, 0
4, 15900, Note_on_c, 0, 80, 88
4, 15958, Note_off_c, 0, 80, 0
4, 15960, Note_on_c, 0, 78, 88
4, 16018, Note_off_c, 0, 78, 0
4, 16020, Note_on_c, 0, 77, 88
4, 16078, Note_off_c, 0, 77, 0
4, 16080, Note_on_c, 0, 75, 88
4, 16138, Note_off_c, 0, 75, 0
4, 16140, Note_on_c, 0, 73, 88
4, 16198, Note_off_c, 0, 73, 0
4, 16200, Note_on_c, 0, 72, 88
4, 16229, Note_off_c, 0, 72, 0
4, 16230, Note_on_c, 0, 73, 88
4, 16259, Note_off_c, 0, 73, 0
4, 16260, Note_on_c, 0, 75, 88
4, 16318, Note_off_c, 0, 75, 0
4, 16320, Note_on_c, 0, 73, 88
4, 16378, Note_off_c, 0, 73, 0
4, 16380, Note_on_c, 0, 70, 88
4, 16438, Note_off_c, 0, 70, 0
4, 16440, Note_on_c, 0, 72, 88
4, 16498, Note_off_c, 0, 72, 0
4, 16500, Note_on_c, 0, 73, 88
4, 16558, Note_off_c, 0, 73, 0
4, 16560, Note_on_c, 0, 75, 88
4, 16618, Note_off_c, 0, 75, 0
4, 16620, Note_on_c, 0, 77, 88
4, 16678, Note_off_c, 0, 77, 0
4, 16680, Note_on_c, 0, 78, 88
4, 16709, Note_off_c, 0, 78, 0
4, 16710, Note_on_c, 0, 77, 88
4, 16739, Note_off_c, 0, 77, 0
4, 16740, Note_on_c, 0, 75, 88
4, 16798, Note_off_c, 0, 75, 0
4, 16800, Note_on_c, 0, 73, 88
4, 16858, Note_off_c, 0, 73, 0
4, 16860, Note_on_c, 0, 72, 88
4, 16918, Note_off_c, 0, 72, 0
4, 16920, Note_on_c, 0, 70, 88
4, 16978, Note_off_c, 0, 70, 0
4, 16980, Note_on_c, 0, 68, 88
4, 17038, Note_off_c, 0, 68, 0
4, 17040, Note_on_c, 0, 73, 88
4, 17156, Note_off_c, 0, 73, 0
4, 17280, Note_on_c, 0, 70, 88
4, 17396, Note_off_c, 0, 70, 0
4, 17520, Note_on_c, 0, 78, 88
4, 17636, Note_off_c, 0, 78, 0
4, 17820, Note_on_c, 0, 78, 88
4, 17878, Note_off_c, 0, 78, 0
4, 17880, Note_on_c, 0, 77, 88
4, 17938, Note_off_c, 0, 77, 0
4, 17940, Note_on_c, 0, 75, 88
4, 17998, Note_off_c, 0, 75, 0
4, 18000, Note_on_c, 0, 77, 88
4, 18058, Note_off_c, 0, 77, 0
4, 18060, Note_on_c, 0, 80, 88
4, 18118, Note_off_c, 0, 80, 0
4, 18120, Note_on_c, 0, 73, 88
4, 18178, Note_off_c, 0, 73, 0
4, 18180, Note_on_c, 0, 77, 88
4, 18238, Note_off_c, 0, 77, 0
4, 18240, Note_on_c, 0, 70, 88
4, 18298, Note_off_c, 0, 70, 0
4, 18300, Note_on_c, 0, 77, 88
4, 18358, Note_off_c, 0, 77, 0
4, 18360, Note_on_c, 0, 75, 88
4, 18418, Note_off_c, 0, 75, 0
4, 18420, Note_on_c, 0, 73, 88
4, 18478, Note_off_c, 0, 73, 0
4, 18480, Note_on_c, 0, 75, 88
4, 18538, Note_off_c, 0, 75, 0
4, 18540, Note_on_c, 0, 78, 88
4, 18598, Note_off_c, 0, 78, 0
4, 18600, Note_on_c, 0, 72, 88
4, 18658, Note_off_c, 0, 72, 0
4, 18660, Note_on_c, 0, 75, 88
4, 18718, Note_off_c, 0, 75, 0
4, 18720, Note_on_c, 0, 68, 88
4, 18778, Note_off_c, 0, 68, 0
4, 18780, Note_on_c, 0, 75, 88
4, 18838, Note_off_c, 0, 75, 0
4, 18840, Note_on_c, 0, 73, 88
4, 18898, Note_off_c, 0, 73, 0
4, 18900, Note_on_c, 0, 72, 88
4, 18958, Note_off_c, 0, 72, 0
4, 18960, Note_on_c, 0, 73, 88
4, 19018, Note_off_c, 0, 73, 0
4, 19020, Note_on_c, 0, 77, 88
4, 19078, Note_off_c, 0, 77, 0
4, 19080, Note_on_c, 0, 68, 88
4, 19138, Note_off_c, 0, 68, 0
4, 19140, Note_on_c, 0, 71, 88
4, 19198, Note_off_c, 0, 71, 0
4, 19200, Note_on_c, 0, 70, 88
4, 19375, Note_off_c, 0, 70, 0
4, 19380, Note_on_c, 0, 66, 88
4, 19438, Note_off_c, 0, 66, 0
4, 19440, Note_on_c, 0, 68, 88
4, 19615, Note_off_c, 0, 68, 0
4, 19620, Note_on_c, 0, 65, 88
4, 19678, Note_off_c, 0, 65, 0
4, 19680, Note_on_c, 0, 66, 88
4, 19855, Note_off_c, 0, 66, 0
4, 19860, Note_on_c, 0, 63, 88
4, 19918, Note_off_c, 0, 63, 0
4, 19920, Note_on_c, 0, 65, 88
4, 20454, Note_off_c, 0, 65, 0
4, 20460, Note_on_c, 0, 63, 88
4, 20518, Note_off_c, 0, 63, 0
4, 20520, Note_on_c, 0, 66, 88
4, 20578, Note_off_c, 0, 66, 0
4, 20580, Note_on_c, 0, 63, 88
4, 20638, Note_off_c, 0, 63, 0
4, 20640, Note_on_c, 0, 60, 88
4, 20745, Note_off_c, 0, 60, 0
4, 20760, Note_on_c, 0, 60, 88
4, 20818, Note_off_c, 0, 60, 0
4, 20820, Note_on_c, 0, 63, 88
4, 20878, Note_off_c, 0, 63, 0
4, 20880, Note_on_c, 0, 68, 88
4, 21055, Note_off_c, 0, 68, 0
4, 21060, Note_on_c, 0, 66, 88
4, 21118, Note_off_c, 0, 66, 0
4, 21120, Note_on_c, 0, 65, 88
4, 21225, Note_off_c, 0, 65, 0
4, 21240, Note_on_c, 0, 65, 88
4, 21298, Note_off_c, 0, 65, 0
4, 21300, Note_on_c, 0, 68, 88
4, 21358, Note_off_c, 0, 68, 0
4, 21360, Note_on_c, 0, 73, 88
4, 21535, Note_off_c, 0, 73, 0
4, 21540, Note_on_c, 0, 71, 88
4, 21598, Note_off_c, 0, 71, 0
4, 21600, Note_on_c, 0, 70, 88
4, 21705, Note_off_c, 0, 70, 0
4, 21720, Note_on_c, 0, 70, 88
4, 21778, Note_off_c, 0, 70, 0
4, 21780, Note_on_c, 0, 73, 88
4, 21838, Note_off_c, 0, 73, 0
4, 21840, Note_on_c, 0, 78, 88
4, 22138, Note_off_c, 0, 78, 0
4, 22140, Note_on_c, 0, 70, 88
4, 22198, Note_off_c, 0, 70, 0
4, 22200, Note_on_c, 0, 72, 88
4, 22258, Note_off_c, 0, 72, 0
4, 22260, Note_on_c, 0, 73, 88
4, 22318, Note_off_c, 0, 73, 0
4, 22320, Note_on_c, 0, 75, 88
4, 22378, Note_off_c, 0, 75, 0
4, 22380, Note_on_c, 0, 77, 88
4, 22438, Note_off_c, 0, 77, 0
4, 22440, Note_on_c, 0, 78, 88
4, 22469, Note_off_c, 0, 78, 0
4, 22470, Note_on_c, 0, 77, 88
4, 22499, Note_off_c, 0, 77, 0
4, 22500, Note_on_c, 0, 75, 88
4, 22558, Note_off_c, 0, 75, 0
4, 22560, Note_on_c, 0, 77, 88
4, 22618, Note_off_c, 0, 77, 0
4, 22620, Note_on_c, 0, 78, 88
4, 22678, Note_off_c, 0, 78, 0
4, 22680, Note_on_c, 0, 77, 88
4, 22738, Note_off_c, 0, 77, 0
4, 22740, Note_on_c, 0, 75, 88
4, 22798, Note_off_c, 0, 75, 0
4, 22800, Note_on_c, 0, 73, 88
4, 22858, Note_off_c, 0, 73, 0
4, 22860, Note_on_c, 0, 72, 88
4, 22918, Note_off_c, 0, 72, 0
4, 22920, Note_on_c, 0, 70, 88
4, 22949, Note_off_c, 0, 70, 0
4, 22950, Note_on_c, 0, 72, 88
4, 22979, Note_off_c, 0, 72, 0
4, 22980, Note_on_c, 0, 73, 88
4, 23038, Note_off_c, 0, 73, 0
4, 23040, Note_on_c, 0, 72, 88
4, 23156, Note_off_c, 0, 72, 0
4, 23160, Note_on_c, 0, 80, 88
4, 23276, Note_off_c, 0, 80, 0
4, 23280, Note_on_c, 0, 77, 88
4, 23396, Note_off_c, 0, 77, 0
4, 23400, Note_on_c, 0, 80, 88
4, 23516, Note_off_c, 0, 80, 0
4, 23520, Note_on_c, 0, 73, 88
4, 23578, Note_off_c, 0, 73, 0
4, 23580, Note_on_c, 0, 77, 88
4, 23638, Note_off_c, 0, 77, 0
4, 23640, Note_on_c, 0, 78, 88
4, 23698, Note_off_c, 0, 78, 0
4, 23700, Note_on_c, 0, 80, 88
4, 23758, Note_off_c, 0, 80, 0
4, 23760, Note_on_c, 0, 82, 88
4, 23818, Note_off_c, 0, 82, 0
4, 23820, Note_on_c, 0, 84, 88
4, 23878, Note_off_c, 0, 84, 0
4, 23880, Note_on_c, 0, 85, 88
4, 23938, Note_off_c, 0, 85, 0
4, 23940, Note_on_c, 0, 82, 88
4, 23998, Note_off_c, 0, 82, 0
4, 24000, Note_on_c, 0, 78, 88
4, 24058, Note_off_c, 0, 78, 0
4, 24060, Note_on_c, 0, 80, 88
4, 24118, Note_off_c, 0, 80, 0
4, 24120, Note_on_c, 0, 78, 88
4, 24178, Note_off_c, 0, 78, 0
4, 24180, Note_on_c, 0, 77, 88
4, 24238, Note_off_c, 0, 77, 0
4, 24240, Note_on_c, 0, 75, 88
4, 24298, Note_off_c, 0, 75, 0
4, 24300, Note_on_c, 0, 73, 88
4, 24358, Note_off_c, 0, 73, 0
4, 24360, Note_on_c, 0, 72, 88
4, 24418, Note_off_c, 0, 72, 0
4, 24420, Note_on_c, 0, 75, 88
4, 24478, Note_off_c, 0, 75, 0
4, 24480, Note_on_c, 0, 68, 88
4, 25018, Note_off_c, 0, 68, 0
4, 25020, Note_on_c, 0, 61, 88
4, 25078, Note_off_c, 0, 61, 0
4, 25080, Note_on_c, 0, 63, 88
4, 25138, Note_off_c, 0, 63, 0
4, 25140, Note_on_c, 0, 65, 88
4, 25198, Note_off_c, 0, 65, 0
4, 25200, Note_on_c, 0, 66, 88
4, 25258, Note_off_c, 0, 66, 0
4, 25260, Note_on_c, 0, 68, 88
4, 25318, Note_off_c, 0, 68, 0
4, 25320, Note_on_c, 0, 70, 88
4, 25378, Note_off_c, 0, 70, 0
4, 25380, Note_on_c, 0, 66, 88
4, 25438, Note_off_c, 0, 66, 0
4, 25440, Note_on_c, 0, 63, 88
4, 25498, Note_off_c, 0, 63, 0
4, 25500, Note_on_c, 0, 65, 88
4, 25558, Note_off_c, 0, 65, 0
4, 25560, Note_on_c, 0, 66, 88
4, 25618, Note_off_c, 0, 66, 0
4, 25620, Note_on_c, 0, 68, 88
4, 25678, Note_off_c, 0, 68, 0
4, 25680, Note_on_c, 0, 70, 88
4, 25738, Note_off_c, 0, 70, 0
4, 25740, Note_on_c, 0, 72, 88
4, 25798, Note_off_c, 0, 72, 0
4, 25800, Note_on_c, 0, 73, 88
4, 25858, Note_off_c, 0, 73, 0
4, 25860, Note_on_c, 0, 70, 88
4, 25918, Note_off_c, 0, 70, 0
4, 25920, Note_on_c, 0, 72, 88
4, 26036, Note_off_c, 0, 72, 0
4, 26040, Note_on_c, 0, 75, 88
4, 26156, Note_off_c, 0, 75, 0
4, 26160, Note_on_c, 0, 72, 88
4, 26276, Note_off_c, 0, 72, 0
4, 26280, Note_on_c, 0, 75, 88
4, 26396, Note_off_c, 0, 75, 0
4, 26400, Note_on_c, 0, 68, 88
4, 26516, Note_off_c, 0, 68, 0
4, 26520, Note_on_c, 0, 73, 88
4, 26636, Note_off_c, 0, 73, 0
4, 26640, Note_on_c, 0, 76, 88
4, 26756, Note_off_c, 0, 76, 0
4, 26760, Note_on_c, 0, 73, 88
4, 26876, Note_off_c, 0, 73, 0
4, 26880, Note_on_c, 0, 78, 88
4, 26938, Note_off_c, 0, 78, 0
4, 26940, Note_on_c, 0, 81, 88
4, 26998, Note_off_c, 0, 81, 0
4, 27000, Note_on_c, 0, 80, 88
4, 27058, Note_off_c, 0, 80, 0
4, 27060, Note_on_c, 0, 78, 88
4, 27118, Note_off_c, 0, 78, 0
4, 27120, Note_on_c, 0, 76, 88
4, 27178, Note_off_c, 0, 76, 0
4, 27180, Note_on_c, 0, 75, 88
4, 27238, Note_off_c, 0, 75, 0
4, 27240, Note_on_c, 0, 73, 88
4, 27269, Note_off_c, 0, 73, 0
4, 27270, Note_on_c, 0, 75, 88
4, 27299, Note_off_c, 0, 75, 0
4, 27300, Note_on_c, 0, 76, 88
4, 27358, Note_off_c, 0, 76, 0
4, 27360, Note_on_c, 0, 67, 88
4, 27418, Note_off_c, 0, 67, 0
4, 27420, Note_on_c, 0, 68, 88
4, 27478, Note_off_c, 0, 68, 0
4, 27480, Note_on_c, 0, 70, 88
4, 27538, Note_off_c, 0, 70, 0
4, 27540, Note_on_c, 0, 72, 88
4, 27598, Note_off_c, 0, 72, 0
4, 27600, Note_on_c, 0, 73, 88
4, 27658, Note_off_c, 0, 73, 0
4, 27660, Note_on_c, 0, 75, 88
4, 27718, Note_off_c, 0, 75, 0
4, 27720, Note_on_c, 0, 76, 88
4, 27749, Note_off_c, 0, 76, 0
4, 27750, Note_on_c, 0, 75, 88
4, 27779, Note_off_c, 0, 75, 0
4, 27780, Note_on_c, 0, 73, 88
4, 27838, Note_off_c, 0, 73, 0
4, 27840, Note_on_c, 0, 72, 88
4, 27956, Note_off_c, 0, 72, 0
4, 27960, Note_on_c, 0, 75, 88
4, 28076, Note_off_c, 0, 75, 0
4, 28080, Note_on_c, 0, 80, 88
4, 28550, Note_off_c, 0, 80, 0
4, 28560, Note_on_c, 0, 78, 88
4, 29034, Note_off_c, 0, 78, 0
4, 29040, Note_on_c, 0, 77, 88
4, 29422, Note_off_c, 0, 77, 0
4, 29430, Note_on_c, 0, 75, 88
4, 29459, Note_off_c, 0, 75, 0
4, 29460, Note_on_c, 0, 73, 88
4, 29489, Note_off_c, 0, 73, 0
4, 29490, Note_on_c, 0, 71, 88
4, 29519, Note_off_c, 0, 71, 0
4, 29520, Note_on_c, 0, 70, 88
4, 29549, Note_off_c, 0, 70, 0
4, 29550, Note_on_c, 0, 68, 88
4, 29579, Note_off_c, 0, 68, 0
4, 29580, Note_on_c, 0, 66, 88
4, 29609, Note_off_c, 0, 66, 0
4, 29610, Note_on_c, 0, 65, 88
4, 29639, Note_off_c, 0, 65, 0
4, 29640, Note_on_c, 0, 66, 88
4, 30113, Note_off_c, 0, 66, 0
4, 30120, Note_on_c, 0, 65, 88
4, 30255, Note_off_c, 0, 65, 0
4, 30270, Note_on_c, 0, 65, 88
4, 30299, Note_off_c, 0, 65, 0
4, 30300, Note_on_c, 0, 63, 88
4, 30329, Note_off_c, 0, 63, 0
4, 30330, Note_on_c, 0, 61, 88
4, 30359, Note_off_c, 0, 61, 0
4, 30360, Note_on_c, 0, 63, 88
4, 30836, Note_off_c, 0, 63, 0
4, 30840, Note_on_c, 0, 61, 88
4, 31005, Note_off_c, 0, 61, 0
4, 31020, Note_on_c, 0, 61, 88
4, 31078, Note_off_c, 0, 61, 0
4, 31080, Note_on_c, 0, 60, 88
4, 31196, Note_off_c, 0, 60, 0
4, 31200, Note_on_c, 0, 61, 88
4, 31494, Note_off_c, 0, 61, 0
4, 31500, Note_on_c, 0, 56, 88
4, 31558, Note_off_c, 0, 56, 0
4, 31560, Note_on_c, 0, 59, 88
4, 31618, Note_off_c, 0, 59, 0
4, 31620, Note_on_c, 0, 56, 88
4, 31678, Note_off_c, 0, 56, 0
4, 31680, Note_on_c, 0, 58, 88
4, 31965, Note_off_c, 0, 58, 0
4, 31980, Note_on_c, 0, 58, 88
4, 32038, Note_off_c, 0, 58, 0
4, 32040, Note_on_c, 0, 61, 88
4, 32098, Note_off_c, 0, 61, 0
4, 32100, Note_on_c, 0, 58, 88
4, 32158, Note_off_c, 0, 58, 0
4, 32160, Note_on_c, 0, 63, 88
4, 32454, Note_off_c, 0, 63, 0
4, 32460, Note_on_c, 0, 65, 88
4, 32518, Note_off_c, 0, 65, 0
4, 32520, Note_on_c, 0, 66, 88
4, 32698, Note_off_c, 0, 66, 0
4, 32700, Note_on_c, 0, 65, 88
4, 32758, Note_off_c, 0, 65, 0
4, 32760, Note_on_c, 0, 63, 88
4, 32818, Note_off_c, 0, 63, 0
4, 32820, Note_on_c, 0, 66, 88
4, 32936, Note_off_c, 0, 66, 0
4, 32940, Note_on_c, 0, 70, 88
4, 32998, Note_off_c, 0, 70, 0
4, 33000, Note_on_c, 0, 68, 88
4, 33058, Note_off_c, 0, 68, 0
4, 33060, Note_on_c, 0, 66, 88
4, 33118, Note_off_c, 0, 66, 0
4, 33120, Note_on_c, 0, 65, 88
4, 33590, Note_off_c, 0, 65, 0
4, 33590, End_track
5, 0, Start_track
5, 0, Title_t, "Track 2"
5, 0, Program_c, 1, 6
5, 27720, Note_on_c, 1, 67, 88
5, 27836, Note_off_c, 1, 67, 0
5, 27840, Note_on_c, 1, 68, 88
5, 27956, Note_off_c, 1, 68, 0
5, 28200, Note_on_c, 1, 77, 88
5, 28316, Note_off_c, 1, 77, 0
5, 28320, Note_on_c, 1, 74, 88
5, 28436, Note_off_c, 1, 74, 0
5, 28440, Note_on_c, 1, 77, 88
5, 28556, Note_off_c, 1, 77, 0
5, 28560, Note_on_c, 1, 70, 88
5, 28676, Note_off_c, 1, 70, 0
5, 28680, Note_on_c, 1, 75, 88
5, 28796, Note_off_c, 1, 75, 0
5, 28800, Note_on_c, 1, 72, 88
5, 28916, Note_off_c, 1, 72, 0
5, 28920, Note_on_c, 1, 75, 88
5, 29036, Note_off_c, 1, 75, 0
5, 29040, Note_on_c, 1, 68, 88
5, 29156, Note_off_c, 1, 68, 0
5, 29160, Note_on_c, 1, 73, 88
5, 29276, Note_off_c, 1, 73, 0
5, 29280, Note_on_c, 1, 70, 88
5, 29338, Note_off_c, 1, 70, 0
5, 29340, Note_on_c, 1, 73, 88
5, 29398, Note_off_c, 1, 73, 0
5, 29400, Note_on_c, 1, 66, 88
5, 29516, Note_off_c, 1, 66, 0
5, 29670, Note_on_c, 1, 65, 88
5, 29699, Note_off_c, 1, 65, 0
5, 29700, Note_on_c, 1, 63, 88
5, 29729, Note_off_c, 1, 63, 0
5, 29730, Note_on_c, 1, 61, 88
5, 29759, Note_off_c, 1, 61, 0
5, 29760, Note_on_c, 1, 60, 88
5, 29818, Note_off_c, 1, 60, 0
5, 29820, Note_on_c, 1, 63, 88
5, 29878, Note_off_c, 1, 63, 0
5, 29880, Note_on_c, 1, 56, 88
5, 30233, Note_off_c, 1, 56, 0
5, 30233, End_track
6, 0, Start_track
6, 0, Title_t, "Track 3"
6, 0, Program_c, 2, 6
6, 1080, Note_on_c, 2, 68, 88
6, 1196, Note_off_c, 2, 68, 0
6, 1200, Note_on_c, 2, 65, 88
6, 1316, Note_off_c, 2, 65, 0
6, 1320, Note_on_c, 2, 68, 88
6, 1436, Note_off_c, 2, 68, 0
6, 1440, Note_on_c, 2, 61, 88
6, 1556, Note_off_c, 2, 61, 0
6, 1680, Note_on_c, 2, 63, 88
6, 1796, Note_off_c, 2, 63, 0
6, 1920, Note_on_c, 2, 65, 88
6, 1978, Note_off_c, 2, 65, 0
6, 1980, Note_on_c, 2, 66, 88
6, 2038, Note_off_c, 2, 66, 0
6, 2040, Note_on_c, 2, 68, 88
6, 2215, Note_off_c, 2, 68, 0
6, 2220, Note_on_c, 2, 66, 88
6, 2278, Note_off_c, 2, 66, 0
6, 2280, Note_on_c, 2, 65, 88
6, 2338, Note_off_c, 2, 65, 0
6, 2340, Note_on_c, 2, 68, 88
6, 2398, Note_off_c, 2, 68, 0
6, 2400, Note_on_c, 2, 63, 88
6, 2458, Note_off_c, 2, 63, 0
6, 2460, Note_on_c, 2, 65, 88
6, 2518, Note_off_c, 2, 65, 0
6, 2520, Note_on_c, 2, 66, 88
6, 2695, Note_off_c, 2, 66, 0
6, 2700, Note_on_c, 2, 65, 88
6, 2758, Note_off_c, 2, 65, 0
6, 2760, Note_on_c, 2, 63, 88
6, 2818, Note_off_c, 2, 63, 0
6, 2820, Note_on_c, 2, 66, 88
6, 2878, Note_off_c, 2, 66, 0
6, 2880, Note_on_c, 2, 65, 88
6, 2996, Note_off_c, 2, 65, 0
6, 3480, Note_on_c, 2, 68, 88
6, 3596, Note_off_c, 2, 68, 0
6, 3600, Note_on_c, 2, 72, 88
6, 3716, Note_off_c, 2, 72, 0
6, 3720, Note_on_c, 2, 68, 88
6, 3836, Note_off_c, 2, 68, 0
6, 3840, Note_on_c, 2, 73, 88
6, 3956, Note_off_c, 2, 73, 0
6, 4080, Note_on_c, 2, 71, 88
6, 4196, Note_off_c, 2, 71, 0
6, 4320, Note_on_c, 2, 70, 88
6, 4436, Note_off_c, 2, 70, 0
6, 4620, Note_on_c, 2, 70, 88
6, 4678, Note_off_c, 2, 70, 0
6, 4680, Note_on_c, 2, 74, 88
6, 4738, Note_off_c, 2, 74, 0
6, 4740, Note_on_c, 2, 70, 88
6, 4798, Note_off_c, 2, 70, 0
6, 4800, Note_on_c, 2, 75, 88
6, 4916, Note_off_c, 2, 75, 0
6, 5100, Note_on_c, 2, 75, 88
6, 5158, Note_off_c, 2, 75, 0
6, 5160, Note_on_c, 2, 73, 88
6, 5335, Note_off_c, 2, 73, 0
6, 5340, Note_on_c, 2, 72, 88
6, 5445, Note_off_c, 2, 72, 0
6, 5460, Note_on_c, 2, 72, 88
6, 5518, Note_off_c, 2, 72, 0
6, 5520, Note_on_c, 2, 70, 88
6, 5695, Note_off_c, 2, 70, 0
6, 5700, Note_on_c, 2, 73, 88
6, 5758, Note_off_c, 2, 73, 0
6, 5760, Note_on_c, 2, 72, 88
6, 5876, Note_off_c, 2, 72, 0
6, 6360, Note_on_c, 2, 56, 88
6, 6476, Note_off_c, 2, 56, 0
6, 6480, Note_on_c, 2, 60, 88
6, 6596, Note_off_c, 2, 60, 0
6, 6600, Note_on_c, 2, 56, 88
6, 6716, Note_off_c, 2, 56, 0
6, 6720, Note_on_c, 2, 61, 88
6, 6836, Note_off_c, 2, 61, 0
6, 6960, Note_on_c, 2, 59, 88
6, 7076, Note_off_c, 2, 59, 0
6, 7200, Note_on_c, 2, 58, 88
6, 7258, Note_off_c, 2, 58, 0
6, 7260, Note_on_c, 2, 60, 88
6, 7318, Note_off_c, 2, 60, 0
6, 7320, Note_on_c, 2, 62, 88
6, 7378, Note_off_c, 2, 62, 0
6, 7380, Note_on_c, 2, 63, 88
6, 7438, Note_off_c, 2, 63, 0
6, 7440, Note_on_c, 2, 65, 88
6, 7498, Note_off_c, 2, 65, 0
6, 7500, Note_on_c, 2, 66, 88
6, 7558, Note_off_c, 2, 66, 0
6, 7560, Note_on_c, 2, 68, 88
6, 7589, Note_off_c, 2, 68, 0
6, 7590, Note_on_c, 2, 66, 88
6, 7619, Note_off_c, 2, 66, 0
6, 7620, Note_on_c, 2, 65, 88
6, 7678, Note_off_c, 2, 65, 0
6, 7680, Note_on_c, 2, 66, 88
6, 7796, Note_off_c, 2, 66, 0
6, 7920, Note_on_c, 2, 65, 88
6, 8036, Note_off_c, 2, 65, 0
6, 8280, Note_on_c, 2, 70, 88
6, 8396, Note_off_c, 2, 70, 0
6, 8400, Note_on_c, 2, 66, 88
6, 8516, Note_off_c, 2, 66, 0
6, 8520, Note_on_c, 2, 70, 88
6, 8636, Note_off_c, 2, 70, 0
6, 8640, Note_on_c, 2, 63, 88
6, 8756, Note_off_c, 2, 63, 0
6, 8760, Note_on_c, 2, 66, 88
6, 8876, Note_off_c, 2, 66, 0
6, 8880, Note_on_c, 2, 65, 88
6, 8996, Note_off_c, 2, 65, 0
6, 9000, Note_on_c, 2, 68, 88
6, 9165, Note_off_c, 2, 68, 0
6, 9180, Note_on_c, 2, 68, 88
6, 9238, Note_off_c, 2, 68, 0
6, 9240, Note_on_c, 2, 66, 88
6, 9298, Note_off_c, 2, 66, 0
6, 9300, Note_on_c, 2, 65, 88
6, 9358, Note_off_c, 2, 65, 0
6, 9360, Note_on_c, 2, 63, 88
6, 9418, Note_off_c, 2, 63, 0
6, 9420, Note_on_c, 2, 61, 88
6, 9478, Note_off_c, 2, 61, 0
6, 9480, Note_on_c, 2, 60, 88
6, 9509, Note_off_c, 2, 60, 0
6, 9510, Note_on_c, 2, 61, 88
6, 9539, Note_off_c, 2, 61, 0
6, 9540, Note_on_c, 2, 63, 88
6, 9598, Note_off_c, 2, 63, 0
6, 9600, Note_on_c, 2, 56, 88
6, 9716, Note_off_c, 2, 56, 0
6, 9960, Note_on_c, 2, 61, 88
6, 10076, Note_off_c, 2, 61, 0
6, 10080, Note_on_c, 2, 65, 88
6, 10196, Note_off_c, 2, 65, 0
6, 10200, Note_on_c, 2, 61, 88
6, 10316, Note_off_c, 2, 61, 0
6, 10320, Note_on_c, 2, 68, 88
6, 10436, Note_off_c, 2, 68, 0
6, 10620, Note_on_c, 2, 68, 88
6, 10678, Note_off_c, 2, 68, 0
6, 10680, Note_on_c, 2, 66, 88
6, 10738, Note_off_c, 2, 66, 0
6, 10740, Note_on_c, 2, 65, 88
6, 10798, Note_off_c, 2, 65, 0
6, 10800, Note_on_c, 2, 66, 88
6, 10965, Note_off_c, 2, 66, 0
6, 10980, Note_on_c, 2, 66, 88
6, 11085, Note_off_c, 2, 66, 0
6, 11100, Note_on_c, 2, 66, 88
6, 11158, Note_off_c, 2, 66, 0
6, 11160, Note_on_c, 2, 65, 88
6, 11218, Note_off_c, 2, 65, 0
6, 11220, Note_on_c, 2, 63, 88
6, 11278, Note_off_c, 2, 63, 0
6, 11280, Note_on_c, 2, 65, 88
6, 11445, Note_off_c, 2, 65, 0
6, 11460, Note_on_c, 2, 65, 88
6, 11565, Note_off_c, 2, 65, 0
6, 11580, Note_on_c, 2, 65, 88
6, 11638, Note_off_c, 2, 65, 0
6, 11640, Note_on_c, 2, 63, 88
6, 11698, Note_off_c, 2, 63, 0
6, 11700, Note_on_c, 2, 61, 88
6, 11758, Note_off_c, 2, 61, 0
6, 11760, Note_on_c, 2, 63, 88
6, 11925, Note_off_c, 2, 63, 0
6, 11940, Note_on_c, 2, 63, 88
6, 12045, Note_off_c, 2, 63, 0
6, 12060, Note_on_c, 2, 63, 88
6, 12118, Note_off_c, 2, 63, 0
6, 12120, Note_on_c, 2, 61, 88
6, 12178, Note_off_c, 2, 61, 0
6, 12180, Note_on_c, 2, 60, 88
6, 12238, Note_off_c, 2, 60, 0
6, 12240, Note_on_c, 2, 61, 88
6, 12415, Note_off_c, 2, 61, 0
6, 12420, Note_on_c, 2, 60, 88
6, 12478, Note_off_c, 2, 60, 0
6, 12480, Note_on_c, 2, 58, 88
6, 12538, Note_off_c, 2, 58, 0
6, 12540, Note_on_c, 2, 57, 88
6, 12598, Note_off_c, 2, 57, 0
6, 12600, Note_on_c, 2, 58, 88
6, 12775, Note_off_c, 2, 58, 0
6, 12780, Note_on_c, 2, 61, 88
6, 12838, Note_off_c, 2, 61, 0
6, 12840, Note_on_c, 2, 60, 88
6, 12898, Note_off_c, 2, 60, 0
6, 12900, Note_on_c, 2, 58, 88
6, 12958, Note_off_c, 2, 58, 0
6, 12960, Note_on_c, 2, 57, 88
6, 13076, Note_off_c, 2, 57, 0
6, 13560, Note_on_c, 2, 58, 88
6, 13676, Note_off_c, 2, 58, 0
6, 13680, Note_on_c, 2, 62, 88
6, 13796, Note_off_c, 2, 62, 0
6, 13800, Note_on_c, 2, 58, 88
6, 13916, Note_off_c, 2, 58, 0
6, 13920, Note_on_c, 2, 63, 88
6, 14036, Note_off_c, 2, 63, 0
6, 14160, Note_on_c, 2, 61, 88
6, 14276, Note_off_c, 2, 61, 0
6, 14400, Note_on_c, 2, 60, 88
6, 14458, Note_off_c, 2, 60, 0
6, 14460, Note_on_c, 2, 58, 88
6, 14518, Note_off_c, 2, 58, 0
6, 14520, Note_on_c, 2, 56, 88
6, 14695, Note_off_c, 2, 56, 0
6, 14700, Note_on_c, 2, 58, 88
6, 14758, Note_off_c, 2, 58, 0
6, 14760, Note_on_c, 2, 59, 88
6, 14818, Note_off_c, 2, 59, 0
6, 14820, Note_on_c, 2, 56, 88
6, 14878, Note_off_c, 2, 56, 0
6, 14880, Note_on_c, 2, 58, 88
6, 14938, Note_off_c, 2, 58, 0
6, 14940, Note_on_c, 2, 60, 88
6, 14998, Note_off_c, 2, 60, 0
6, 15000, Note_on_c, 2, 61, 88
6, 15058, Note_off_c, 2, 61, 0
6, 15060, Note_on_c, 2, 58, 88
6, 15118, Note_off_c, 2, 58, 0
6, 15120, Note_on_c, 2, 60, 88
6, 15178, Note_off_c, 2, 60, 0
6, 15180, Note_on_c, 2, 61, 88
6, 15238, Note_off_c, 2, 61, 0
6, 15240, Note_on_c, 2, 63, 88
6, 15298, Note_off_c, 2, 63, 0
6, 15300, Note_on_c, 2, 60, 88
6, 15358, Note_off_c, 2, 60, 0
6, 15360, Note_on_c, 2, 61, 88
6, 15945, Note_off_c, 2, 61, 0
6, 15960, Note_on_c, 2, 61, 88
6, 16076, Note_off_c, 2, 61, 0
6, 16080, Note_on_c, 2, 60, 88
6, 16196, Note_off_c, 2, 60, 0
6, 16200, Note_on_c, 2, 65, 88
6, 16316, Note_off_c, 2, 65, 0
6, 16320, Note_on_c, 2, 58, 88
6, 16673, Note_off_c, 2, 58, 0
6, 16680, Note_on_c, 2, 63, 88
6, 16796, Note_off_c, 2, 63, 0
6, 16800, Note_on_c, 2, 56, 88
6, 17034, Note_off_c, 2, 56, 0
6, 17100, Note_on_c, 2, 68, 88
6, 17158, Note_off_c, 2, 68, 0
6, 17160, Note_on_c, 2, 65, 88
6, 17218, Note_off_c, 2, 65, 0
6, 17220, Note_on_c, 2, 68, 88
6, 17278, Note_off_c, 2, 68, 0
6, 17280, Note_on_c, 2, 61, 88
6, 17396, Note_off_c, 2, 61, 0
6, 17580, Note_on_c, 2, 60, 88
6, 17638, Note_off_c, 2, 60, 0
6, 17640, Note_on_c, 2, 56, 88
6, 17698, Note_off_c, 2, 56, 0
6, 17700, Note_on_c, 2, 60, 88
6, 17758, Note_off_c, 2, 60, 0
6, 17760, Note_on_c, 2, 61, 88
6, 17876, Note_off_c, 2, 61, 0
6, 17880, Note_on_c, 2, 56, 88
6, 17996, Note_off_c, 2, 56, 0
6, 18000, Note_on_c, 2, 61, 88
6, 18356, Note_off_c, 2, 61, 0
6, 18360, Note_on_c, 2, 58, 88
6, 18476, Note_off_c, 2, 58, 0
6, 18480, Note_on_c, 2, 54, 88
6, 18833, Note_off_c, 2, 54, 0
6, 18840, Note_on_c, 2, 56, 88
6, 18956, Note_off_c, 2, 56, 0
6, 18960, Note_on_c, 2, 53, 88
6, 19076, Note_off_c, 2, 53, 0
6, 19080, Note_on_c, 2, 65, 88
6, 19258, Note_off_c, 2, 65, 0
6, 19260, Note_on_c, 2, 61, 88
6, 19318, Note_off_c, 2, 61, 0
6, 19320, Note_on_c, 2, 63, 88
6, 19495, Note_off_c, 2, 63, 0
6, 19500, Note_on_c, 2, 60, 88
6, 19558, Note_off_c, 2, 60, 0
6, 19560, Note_on_c, 2, 61, 88
6, 19735, Note_off_c, 2, 61, 0
6, 19740, Note_on_c, 2, 58, 88
6, 19798, Note_off_c, 2, 58, 0
6, 19800, Note_on_c, 2, 60, 88
6, 19916, Note_off_c, 2, 60, 0
6, 19980, Note_on_c, 2, 61, 88
6, 20038, Note_off_c, 2, 61, 0
6, 20040, Note_on_c, 2, 56, 88
6, 20098, Note_off_c, 2, 56, 0
6, 20100, Note_on_c, 2, 59, 88
6, 20158, Note_off_c, 2, 59, 0
6, 20160, Note_on_c, 2, 58, 88
6, 20630, Note_off_c, 2, 58, 0
6, 20700, Note_on_c, 2, 56, 88
6, 20934, Note_off_c, 2, 56, 0
6, 20940, Note_on_c, 2, 61, 88
6, 20998, Note_off_c, 2, 61, 0
6, 21000, Note_on_c, 2, 60, 88
6, 21116, Note_off_c, 2, 60, 0
6, 21180, Note_on_c, 2, 61, 88
6, 21414, Note_off_c, 2, 61, 0
6, 21420, Note_on_c, 2, 66, 88
6, 21478, Note_off_c, 2, 66, 0
6, 21480, Note_on_c, 2, 65, 88
6, 21596, Note_off_c, 2, 65, 0
6, 21660, Note_on_c, 2, 66, 88
6, 21894, Note_off_c, 2, 66, 0
6, 21900, Note_on_c, 2, 71, 88
6, 21958, Note_off_c, 2, 71, 0
6, 21960, Note_on_c, 2, 70, 88
6, 22018, Note_off_c, 2, 70, 0
6, 22020, Note_on_c, 2, 75, 88
6, 22078, Note_off_c, 2, 75, 0
6, 22080, Note_on_c, 2, 68, 88
6, 22196, Note_off_c, 2, 68, 0
6, 22620, Note_on_c, 2, 60, 88
6, 22678, Note_off_c, 2, 60, 0
6, 22680, Note_on_c, 2, 61, 88
6, 22738, Note_off_c, 2, 61, 0
6, 22740, Note_on_c, 2, 63, 88
6, 22798, Note_off_c, 2, 63, 0
6, 22800, Note_on_c, 2, 65, 88
6, 22858, Note_off_c, 2, 65, 0
6, 22860, Note_on_c, 2, 67, 88
6, 22918, Note_off_c, 2, 67, 0
6, 22920, Note_on_c, 2, 68, 88
6, 22978, Note_off_c, 2, 68, 0
6, 22980, Note_on_c, 2, 67, 88
6, 23038, Note_off_c, 2, 67, 0
6, 23040, Note_on_c, 2, 68, 88
6, 23156, Note_off_c, 2, 68, 0
6, 23280, Note_on_c, 2, 61, 88
6, 23514, Note_off_c, 2, 61, 0
6, 23520, Note_on_c, 2, 65, 88
6, 23754, Note_off_c, 2, 65, 0
6, 23760, Note_on_c, 2, 61, 88
6, 23994, Note_off_c, 2, 61, 0
6, 24000, Note_on_c, 2, 66, 88
6, 24116, Note_off_c, 2, 66, 0
6, 24360, Note_on_c, 2, 66, 88
6, 24535, Note_off_c, 2, 66, 0
6, 24540, Note_on_c, 2, 70, 88
6, 24598, Note_off_c, 2, 70, 0
6, 24600, Note_on_c, 2, 68, 88
6, 24658, Note_off_c, 2, 68, 0
6, 24660, Note_on_c, 2, 66, 88
6, 24718, Note_off_c, 2, 66, 0
6, 24720, Note_on_c, 2, 65, 88
6, 24778, Note_off_c, 2, 65, 0
6, 24780, Note_on_c, 2, 63, 88
6, 24838, Note_off_c, 2, 63, 0
6, 24840, Note_on_c, 2, 61, 88
6, 24898, Note_off_c, 2, 61, 0
6, 24900, Note_on_c, 2, 65, 88
6, 24958, Note_off_c, 2, 65, 0
6, 24960, Note_on_c, 2, 58, 88
6, 25194, Note_off_c, 2, 58, 0
6, 25320, Note_on_c, 2, 63, 88
6, 25436, Note_off_c, 2, 63, 0
6, 25440, Note_on_c, 2, 58, 88
6, 25556, Note_off_c, 2, 58, 0
6, 25560, Note_on_c, 2, 63, 88
6, 25676, Note_off_c, 2, 63, 0
6, 25680, Note_on_c, 2, 54, 88
6, 25796, Note_off_c, 2, 54, 0
6, 25800, Note_on_c, 2, 66, 88
6, 25978, Note_off_c, 2, 66, 0
6, 25980, Note_on_c, 2, 68, 88
6, 26038, Note_off_c, 2, 68, 0
6, 26040, Note_on_c, 2, 66, 88
6, 26098, Note_off_c, 2, 66, 0
6, 26100, Note_on_c, 2, 64, 88
6, 26158, Note_off_c, 2, 64, 0
6, 26160, Note_on_c, 2, 63, 88
6, 26218, Note_off_c, 2, 63, 0
6, 26220, Note_on_c, 2, 61, 88
6, 26278, Note_off_c, 2, 61, 0
6, 26280, Note_on_c, 2, 60, 88
6, 26309, Note_off_c, 2, 60, 0
6, 26310, Note_on_c, 2, 61, 88
6, 26339, Note_off_c, 2, 61, 0
6, 26340, Note_on_c, 2, 63, 88
6, 26398, Note_off_c, 2, 63, 0
6, 26400, Note_on_c, 2, 64, 88
6, 26458, Note_off_c, 2, 64, 0
6, 26460, Note_on_c, 2, 66, 88
6, 26518, Note_off_c, 2, 66, 0
6, 26520, Note_on_c, 2, 64, 88
6, 26578, Note_off_c, 2, 64, 0
6, 26580, Note_on_c, 2, 63, 88
6, 26638, Note_off_c, 2, 63, 0
6, 26640, Note_on_c, 2, 61, 88
6, 26698, Note_off_c, 2, 61, 0
6, 26700, Note_on_c, 2, 60, 88
6, 26758, Note_off_c, 2, 60, 0
6, 26760, Note_on_c, 2, 58, 88
6, 26789, Note_off_c, 2, 58, 0
6, 26790, Note_on_c, 2, 60, 88
6, 26819, Note_off_c, 2, 60, 0
6, 26820, Note_on_c, 2, 61, 88
6, 26878, Note_off_c, 2, 61, 0
6, 26880, Note_on_c, 2, 60, 88
6, 26996, Note_off_c, 2, 60, 0
6, 27000, Note_on_c, 2, 63, 88
6, 27116, Note_off_c, 2, 63, 0
6, 27120, Note_on_c, 2, 61, 88
6, 27236, Note_off_c, 2, 61, 0
6, 27240, Note_on_c, 2, 64, 88
6, 27356, Note_off_c, 2, 64, 0
6, 27360, Note_on_c, 2, 58, 88
6, 27476, Note_off_c, 2, 58, 0
6, 27480, Note_on_c, 2, 61, 88
6, 27596, Note_off_c, 2, 61, 0
6, 27600, Note_on_c, 2, 64, 88
6, 27834, Note_off_c, 2, 64, 0
6, 27840, Note_on_c, 2, 63, 88
6, 27956, Note_off_c, 2, 63, 0
6, 29820, Note_on_c, 2, 63, 88
6, 30114, Note_off_c, 2, 63, 0
6, 30120, Note_on_c, 2, 61, 88
6, 30375, Note_off_c, 2, 61, 0
6, 30390, Note_on_c, 2, 61, 88
6, 30419, Note_off_c, 2, 61, 0
6, 30420, Note_on_c, 2, 60, 88
6, 30449, Note_off_c, 2, 60, 0
6, 30450, Note_on_c, 2, 58, 88
6, 30479, Note_off_c, 2, 58, 0
6, 30480, Note_on_c, 2, 60, 88
6, 30778, Note_off_c, 2, 60, 0
6, 30780, Note_on_c, 2, 56, 88
6, 30896, Note_off_c, 2, 56, 0
6, 30900, Note_on_c, 2, 55, 88
6, 30958, Note_off_c, 2, 55, 0
6, 30960, Note_on_c, 2, 56, 88
6, 31135, Note_off_c, 2, 56, 0
6, 31140, Note_on_c, 2, 54, 88
6, 31245, Note_off_c, 2, 54, 0
6, 31260, Note_on_c, 2, 54, 88
6, 31318, Note_off_c, 2, 54, 0
6, 31320, Note_on_c, 2, 53, 88
6, 31378, Note_off_c, 2, 53, 0
6, 31380, Note_on_c, 2, 51, 88
6, 31438, Note_off_c, 2, 51, 0
6, 31440, Note_on_c, 2, 53, 88
6, 31738, Note_off_c, 2, 53, 0
6, 31740, Note_on_c, 2, 56, 88
6, 31798, Note_off_c, 2, 56, 0
6, 31800, Note_on_c, 2, 54, 88
6, 31858, Note_off_c, 2, 54, 0
6, 31860, Note_on_c, 2, 53, 88
6, 31918, Note_off_c, 2, 53, 0
6, 31920, Note_on_c, 2, 54, 88
6, 32390, Note_off_c, 2, 54, 0
6, 32580, Note_on_c, 2, 56, 88
6, 32638, Note_off_c, 2, 56, 0
6, 32640, Note_on_c, 2, 58, 88
6, 32874, Note_off_c, 2, 58, 0
6, 32880, Note_on_c, 2, 60, 88
6, 33114, Note_off_c, 2, 60, 0
6, 33120, Note_on_c, 2, 61, 88
6, 33590, Note_off_c, 2, 61, 0
6, 33590, End_track
7, 0, Start_track
7, 0, Title_t, "Track 4"
7, 0, Program_c, 3, 6
7, 29910, Note_on_c, 3, 54, 88
7, 29939, Note_off_c, 3, 54, 0
7, 29940, Note_on_c, 3, 53, 88
7, 29969, Note_off_c, 3, 53, 0
7, 29970, Note_on_c, 3, 51, 88
7, 29999, Note_off_c, 3, 51, 0
7, 30000, Note_on_c, 3, 53, 88
7, 30029, Note_off_c, 3, 53, 0
7, 30030, Note_on_c, 3, 51, 88
7, 30059, Note_off_c, 3, 51, 0
7, 30060, Note_on_c, 3, 49, 88
7, 30089, Note_off_c, 3, 49, 0
7, 30090, Note_on_c, 3, 48, 88
7, 30119, Note_off_c, 3, 48, 0
7, 30120, Note_on_c, 3, 49, 88
7, 30236, Note_off_c, 3, 49, 0
7, 30360, Note_on_c, 3, 55, 88
7, 30476, Note_off_c, 3, 55, 0
7, 30480, Note_on_c, 3, 56, 88
7, 30714, Note_off_c, 3, 56, 0
7, 33120, Note_on_c, 3, 56, 88
7, 33590, Note_off_c, 3, 56, 0
7, 33590, End_track
8, 0, Start_track
8, 0, Title_t, "Track 5"
8, 0, Program_c, 4, 6
8, 120, Note_on_c, 4, 49, 88
8, 236, Note_off_c, 4, 49, 0
8, 240, Note_on_c, 4, 53, 88
8, 356, Note_off_c, 4, 53, 0
8, 360, Note_on_c, 4, 49, 88
8, 476, Note_off_c, 4, 49, 0
8, 480, Note_on_c, 4, 56, 88
8, 596, Note_off_c, 4, 56, 0
8, 720, Note_on_c, 4, 54, 88
8, 836, Note_off_c, 4, 54, 0
8, 960, Note_on_c, 4, 53, 88
8, 1018, Note_off_c, 4, 53, 0
8, 1020, Note_on_c, 4, 51, 88
8, 1078, Note_off_c, 4, 51, 0
8, 1080, Note_on_c, 4, 49, 88
8, 1255, Note_off_c, 4, 49, 0
8, 1260, Note_on_c, 4, 51, 88
8, 1318, Note_off_c, 4, 51, 0
8, 1320, Note_on_c, 4, 53, 88
8, 1378, Note_off_c, 4, 53, 0
8, 1380, Note_on_c, 4, 49, 88
8, 1438, Note_off_c, 4, 49, 0
8, 1440, Note_on_c, 4, 54, 88
8, 1556, Note_off_c, 4, 54, 0
8, 1680, Note_on_c, 4, 42, 88
8, 1796, Note_off_c, 4, 42, 0
8, 2040, Note_on_c, 4, 49, 88
8, 2156, Note_off_c, 4, 49, 0
8, 2160, Note_on_c, 4, 46, 88
8, 2276, Note_off_c, 4, 46, 0
8, 2280, Note_on_c, 4, 49, 88
8, 2396, Note_off_c, 4, 49, 0
8, 2400, Note_on_c, 4, 42, 88
8, 2516, Note_off_c, 4, 42, 0
8, 2520, Note_on_c, 4, 46, 88
8, 2636, Note_off_c, 4, 46, 0
8, 2640, Note_on_c, 4, 39, 88
8, 2756, Note_off_c, 4, 39, 0
8, 2760, Note_on_c, 4, 44, 88
8, 2876, Note_off_c, 4, 44, 0
8, 2880, Note_on_c, 4, 37, 88
8, 2996, Note_off_c, 4, 37, 0
8, 3240, Note_on_c, 4, 61, 88
8, 3356, Note_off_c, 4, 61, 0
8, 3360, Note_on_c, 4, 60, 88
8, 3476, Note_off_c, 4, 60, 0
8, 3480, Note_on_c, 4, 63, 88
8, 3596, Note_off_c, 4, 63, 0
8, 3600, Note_on_c, 4, 56, 88
8, 3716, Note_off_c, 4, 56, 0
8, 3960, Note_on_c, 4, 49, 88
8, 4076, Note_off_c, 4, 49, 0
8, 4080, Note_on_c, 4, 53, 88
8, 4196, Note_off_c, 4, 53, 0
8, 4200, Note_on_c, 4, 49, 88
8, 4316, Note_off_c, 4, 49, 0
8, 4320, Note_on_c, 4, 54, 88
8, 4436, Note_off_c, 4, 54, 0
8, 4560, Note_on_c, 4, 53, 88
8, 4676, Note_off_c, 4, 53, 0
8, 4860, Note_on_c, 4, 51, 88
8, 4918, Note_off_c, 4, 51, 0
8, 4920, Note_on_c, 4, 48, 88
8, 4978, Note_off_c, 4, 48, 0
8, 4980, Note_on_c, 4, 51, 88
8, 5038, Note_off_c, 4, 51, 0
8, 5040, Note_on_c, 4, 45, 88
8, 5156, Note_off_c, 4, 45, 0
8, 5160, Note_on_c, 4, 46, 88
8, 5276, Note_off_c, 4, 46, 0
8, 5280, Note_on_c, 4, 39, 88
8, 5396, Note_off_c, 4, 39, 0
8, 5400, Note_on_c, 4, 41, 88
8, 5516, Note_off_c, 4, 41, 0
8, 5520, Note_on_c, 4, 37, 88
8, 5636, Note_off_c, 4, 37, 0
8, 5640, Note_on_c, 4, 39, 88
8, 5756, Note_off_c, 4, 39, 0
8, 5880, Note_on_c, 4, 44, 88
8, 5996, Note_off_c, 4, 44, 0
8, 6000, Note_on_c, 4, 48, 88
8, 6116, Note_off_c, 4, 48, 0
8, 6120, Note_on_c, 4, 44, 88
8, 6236, Note_off_c, 4, 44, 0
8, 6240, Note_on_c, 4, 49, 88
8, 6356, Note_off_c, 4, 49, 0
8, 6480, Note_on_c, 4, 48, 88
8, 6596, Note_off_c, 4, 48, 0
8, 6720, Note_on_c, 4, 46, 88
8, 6778, Note_off_c, 4, 46, 0
8, 6780, Note_on_c, 4, 48, 88
8, 6838, Note_off_c, 4, 48, 0
8, 6840, Note_on_c, 4, 49, 88
8, 6898, Note_off_c, 4, 49, 0
8, 6900, Note_on_c, 4, 51, 88
8, 6958, Note_off_c, 4, 51, 0
8, 6960, Note_on_c, 4, 53, 88
8, 7018, Note_off_c, 4, 53, 0
8, 7020, Note_on_c, 4, 54, 88
8, 7078, Note_off_c, 4, 54, 0
8, 7080, Note_on_c, 4, 56, 88
8, 7109, Note_off_c, 4, 56, 0
8, 7110, Note_on_c, 4, 54, 88
8, 7139, Note_off_c, 4, 54, 0
8, 7140, Note_on_c, 4, 53, 88
8, 7198, Note_off_c, 4, 53, 0
8, 7200, Note_on_c, 4, 54, 88
8, 7316, Note_off_c, 4, 54, 0
8, 7440, Note_on_c, 4, 50, 88
8, 7556, Note_off_c, 4, 50, 0
8, 7680, Note_on_c, 4, 51, 88
8, 7796, Note_off_c, 4, 51, 0
8, 8040, Note_on_c, 4, 58, 88
8, 8156, Note_off_c, 4, 58, 0
8, 8160, Note_on_c, 4, 54, 88
8, 8276, Note_off_c, 4, 54, 0
8, 8280, Note_on_c, 4, 58, 88
8, 8396, Note_off_c, 4, 58, 0
8, 8400, Note_on_c, 4, 51, 88
8, 8516, Note_off_c, 4, 51, 0
8, 8520, Note_on_c, 4, 55, 88
8, 8636, Note_off_c, 4, 55, 0
8, 8640, Note_on_c, 4, 56, 88
8, 8698, Note_off_c, 4, 56, 0
8, 8700, Note_on_c, 4, 44, 88
8, 8758, Note_off_c, 4, 44, 0
8, 8760, Note_on_c, 4, 46, 88
8, 8818, Note_off_c, 4, 46, 0
8, 8820, Note_on_c, 4, 48, 88
8, 8878, Note_off_c, 4, 48, 0
8, 8880, Note_on_c, 4, 49, 88
8, 8938, Note_off_c, 4, 49, 0
8, 8940, Note_on_c, 4, 51, 88
8, 8998, Note_off_c, 4, 51, 0
8, 9000, Note_on_c, 4, 53, 88
8, 9029, Note_off_c, 4, 53, 0
8, 9030, Note_on_c, 4, 51, 88
8, 9059, Note_off_c, 4, 51, 0
8, 9060, Note_on_c, 4, 49, 88
8, 9118, Note_off_c, 4, 49, 0
8, 9120, Note_on_c, 4, 54, 88
8, 9236, Note_off_c, 4, 54, 0
8, 9240, Note_on_c, 4, 51, 88
8, 9356, Note_off_c, 4, 51, 0
8, 9480, Note_on_c, 4, 56, 88
8, 9596, Note_off_c, 4, 56, 0
8, 9600, Note_on_c, 4, 53, 88
8, 9716, Note_off_c, 4, 53, 0
8, 9720, Note_on_c, 4, 56, 88
8, 9836, Note_off_c, 4, 56, 0
8, 9840, Note_on_c, 4, 49, 88
8, 9956, Note_off_c, 4, 49, 0
8, 10200, Note_on_c, 4, 49, 88
8, 10316, Note_off_c, 4, 49, 0
8, 10320, Note_on_c, 4, 53, 88
8, 10436, Note_off_c, 4, 53, 0
8, 10440, Note_on_c, 4, 49, 88
8, 10556, Note_off_c, 4, 49, 0
8, 10560, Note_on_c, 4, 54, 88
8, 10676, Note_off_c, 4, 54, 0
8, 10680, Note_on_c, 4, 58, 88
8, 10796, Note_off_c, 4, 58, 0
8, 10800, Note_on_c, 4, 51, 88
8, 10916, Note_off_c, 4, 51, 0
8, 10920, Note_on_c, 4, 54, 88
8, 11036, Note_off_c, 4, 54, 0
8, 11040, Note_on_c, 4, 48, 88
8, 11156, Note_off_c, 4, 48, 0
8, 11160, Note_on_c, 4, 56, 88
8, 11276, Note_off_c, 4, 56, 0
8, 11280, Note_on_c, 4, 49, 88
8, 11396, Note_off_c, 4, 49, 0
8, 11400, Note_on_c, 4, 53, 88
8, 11516, Note_off_c, 4, 53, 0
8, 11520, Note_on_c, 4, 46, 88
8, 11636, Note_off_c, 4, 46, 0
8, 11640, Note_on_c, 4, 54, 88
8, 11756, Note_off_c, 4, 54, 0
8, 11760, Note_on_c, 4, 48, 88
8, 11876, Note_off_c, 4, 48, 0
8, 11880, Note_on_c, 4, 51, 88
8, 11996, Note_off_c, 4, 51, 0
8, 12000, Note_on_c, 4, 45, 88
8, 12116, Note_off_c, 4, 45, 0
8, 12120, Note_on_c, 4, 41, 88
8, 12236, Note_off_c, 4, 41, 0
8, 12240, Note_on_c, 4, 46, 88
8, 12356, Note_off_c, 4, 46, 0
8, 12360, Note_on_c, 4, 44, 88
8, 12476, Note_off_c, 4, 44, 0
8, 12480, Note_on_c, 4, 42, 88
8, 12596, Note_off_c, 4, 42, 0
8, 12600, Note_on_c, 4, 41, 88
8, 12716, Note_off_c, 4, 41, 0
8, 12720, Note_on_c, 4, 44, 88
8, 12745, Note_off_c, 4, 44, 0
8, 12746, Note_on_c, 4, 42, 88
8, 12772, Note_off_c, 4, 42, 0
8, 12773, Note_on_c, 4, 44, 88
8, 12798, Note_off_c, 4, 44, 0
8, 12799, Note_on_c, 4, 42, 88
8, 12824, Note_off_c, 4, 42, 0
8, 12825, Note_on_c, 4, 44, 88
8, 12850, Note_off_c, 4, 44, 0
8, 12851, Note_on_c, 4, 42, 88
8, 12873, Note_off_c, 4, 42, 0
8, 12874, Note_on_c, 4, 44, 88
8, 12896, Note_on_c, 4, 42, 88
8, 12896, Note_off_c, 4, 44, 0
8, 12918, Note_off_c, 4, 42, 0
8, 12919, Note_on_c, 4, 41, 88
8, 12941, Note_off_c, 4, 41, 0
8, 12941, Note_on_c, 4, 42, 88
8, 12959, Note_off_c, 4, 42, 0
8, 12960, Note_on_c, 4, 41, 88
8, 13076, Note_off_c, 4, 41, 0
8, 13080, Note_on_c, 4, 53, 88
8, 13196, Note_off_c, 4, 53, 0
8, 13200, Note_on_c, 4, 57, 88
8, 13316, Note_off_c, 4, 57, 0
8, 13320, Note_on_c, 4, 53, 88
8, 13436, Note_off_c, 4, 53, 0
8, 13440, Note_on_c, 4, 58, 88
8, 13556, Note_off_c, 4, 58, 0
8, 13680, Note_on_c, 4, 56, 88
8, 13796, Note_off_c, 4, 56, 0
8, 13920, Note_on_c, 4, 55, 88
8, 13978, Note_off_c, 4, 55, 0
8, 13980, Note_on_c, 4, 53, 88
8, 14038, Note_off_c, 4, 53, 0
8, 14040, Note_on_c, 4, 51, 88
8, 14215, Note_off_c, 4, 51, 0
8, 14220, Note_on_c, 4, 53, 88
8, 14278, Note_off_c, 4, 53, 0
8, 14280, Note_on_c, 4, 55, 88
8, 14338, Note_off_c, 4, 55, 0
8, 14340, Note_on_c, 4, 51, 88
8, 14398, Note_off_c, 4, 51, 0
8, 14400, Note_on_c, 4, 56, 88
8, 14516, Note_off_c, 4, 56, 0
8, 15480, Note_on_c, 4, 49, 88
8, 15596, Note_off_c, 4, 49, 0
8, 15600, Note_on_c, 4, 53, 88
8, 15716, Note_off_c, 4, 53, 0
8, 15720, Note_on_c, 4, 49, 88
8, 15836, Note_off_c, 4, 49, 0
8, 15840, Note_on_c, 4, 56, 88
8, 16425, Note_off_c, 4, 56, 0
8, 16440, Note_on_c, 4, 56, 88
8, 16556, Note_off_c, 4, 56, 0
8, 16560, Note_on_c, 4, 54, 88
8, 16905, Note_off_c, 4, 54, 0
8, 16920, Note_on_c, 4, 54, 88
8, 17036, Note_off_c, 4, 54, 0
8, 17040, Note_on_c, 4, 53, 88
8, 17156, Note_off_c, 4, 53, 0
8, 17340, Note_on_c, 4, 58, 88
8, 17398, Note_off_c, 4, 58, 0
8, 17400, Note_on_c, 4, 54, 88
8, 17458, Note_off_c, 4, 54, 0
8, 17460, Note_on_c, 4, 58, 88
8, 17518, Note_off_c, 4, 58, 0
8, 17520, Note_on_c, 4, 51, 88
8, 17636, Note_off_c, 4, 51, 0
8, 17760, Note_on_c, 4, 49, 88
8, 17876, Note_off_c, 4, 49, 0
8, 18060, Note_on_c, 4, 49, 88
8, 18118, Note_off_c, 4, 49, 0
8, 18120, Note_on_c, 4, 53, 88
8, 18178, Note_off_c, 4, 53, 0
8, 18180, Note_on_c, 4, 49, 88
8, 18238, Note_off_c, 4, 49, 0
8, 18240, Note_on_c, 4, 54, 88
8, 18356, Note_off_c, 4, 54, 0
8, 18600, Note_on_c, 4, 51, 88
8, 18716, Note_off_c, 4, 51, 0
8, 18720, Note_on_c, 4, 48, 88
8, 18836, Note_off_c, 4, 48, 0
8, 19080, Note_on_c, 4, 49, 88
8, 19196, Note_off_c, 4, 49, 0
8, 19200, Note_on_c, 4, 42, 88
8, 19316, Note_off_c, 4, 42, 0
8, 19320, Note_on_c, 4, 54, 88
8, 19436, Note_off_c, 4, 54, 0
8, 19440, Note_on_c, 4, 53, 88
8, 19556, Note_off_c, 4, 53, 0
8, 19560, Note_on_c, 4, 46, 88
8, 19676, Note_off_c, 4, 46, 0
8, 19680, Note_on_c, 4, 51, 88
8, 19796, Note_off_c, 4, 51, 0
8, 19800, Note_on_c, 4, 44, 88
8, 19916, Note_off_c, 4, 44, 0
8, 19920, Note_on_c, 4, 49, 88
8, 20036, Note_off_c, 4, 49, 0
8, 20040, Note_on_c, 4, 37, 88
8, 20156, Note_off_c, 4, 37, 0
8, 20160, Note_on_c, 4, 42, 88
8, 20218, Note_off_c, 4, 42, 0
8, 20220, Note_on_c, 4, 49, 88
8, 20278, Note_off_c, 4, 49, 0
8, 20280, Note_on_c, 4, 46, 88
8, 20338, Note_off_c, 4, 46, 0
8, 20340, Note_on_c, 4, 49, 88
8, 20398, Note_off_c, 4, 49, 0
8, 20400, Note_on_c, 4, 54, 88
8, 20745, Note_off_c, 4, 54, 0
8, 20760, Note_on_c, 4, 54, 88
8, 20876, Note_off_c, 4, 54, 0
8, 20880, Note_on_c, 4, 53, 88
8, 20996, Note_off_c, 4, 53, 0
8, 21000, Note_on_c, 4, 56, 88
8, 21116, Note_off_c, 4, 56, 0
8, 21120, Note_on_c, 4, 49, 88
8, 21236, Note_off_c, 4, 49, 0
8, 21240, Note_on_c, 4, 59, 88
8, 21356, Note_off_c, 4, 59, 0
8, 21360, Note_on_c, 4, 58, 88
8, 21476, Note_off_c, 4, 58, 0
8, 21480, Note_on_c, 4, 61, 88
8, 21596, Note_off_c, 4, 61, 0
8, 21600, Note_on_c, 4, 54, 88
8, 21716, Note_off_c, 4, 54, 0
8, 21720, Note_on_c, 4, 53, 88
8, 21836, Note_off_c, 4, 53, 0
8, 21840, Note_on_c, 4, 51, 88
8, 21956, Note_off_c, 4, 51, 0
8, 21960, Note_on_c, 4, 54, 88
8, 22076, Note_off_c, 4, 54, 0
8, 22080, Note_on_c, 4, 48, 88
8, 22196, Note_off_c, 4, 48, 0
8, 22200, Note_on_c, 4, 56, 88
8, 22316, Note_off_c, 4, 56, 0
8, 22320, Note_on_c, 4, 60, 88
8, 22436, Note_off_c, 4, 60, 0
8, 22440, Note_on_c, 4, 56, 88
8, 22556, Note_off_c, 4, 56, 0
8, 22560, Note_on_c, 4, 61, 88
8, 22676, Note_off_c, 4, 61, 0
8, 22800, Note_on_c, 4, 58, 88
8, 22916, Note_off_c, 4, 58, 0
8, 23100, Note_on_c, 4, 56, 88
8, 23158, Note_off_c, 4, 56, 0
8, 23160, Note_on_c, 4, 58, 88
8, 23218, Note_off_c, 4, 58, 0
8, 23220, Note_on_c, 4, 60, 88
8, 23278, Note_off_c, 4, 60, 0
8, 23280, Note_on_c, 4, 61, 88
8, 23338, Note_off_c, 4, 61, 0
8, 23340, Note_on_c, 4, 63, 88
8, 23398, Note_off_c, 4, 63, 0
8, 23400, Note_on_c, 4, 65, 88
8, 23458, Note_off_c, 4, 65, 0
8, 23460, Note_on_c, 4, 61, 88
8, 23518, Note_off_c, 4, 61, 0
8, 23520, Note_on_c, 4, 58, 88
8, 23625, Note_off_c, 4, 58, 0
8, 23640, Note_on_c, 4, 58, 88
8, 23756, Note_off_c, 4, 58, 0
8, 23760, Note_on_c, 4, 61, 88
8, 23876, Note_off_c, 4, 61, 0
8, 23880, Note_on_c, 4, 58, 88
8, 23996, Note_off_c, 4, 58, 0
8, 24000, Note_on_c, 4, 63, 88
8, 24116, Note_off_c, 4, 63, 0
8, 24120, Note_on_c, 4, 51, 88
8, 24236, Note_off_c, 4, 51, 0
8, 24240, Note_on_c, 4, 48, 88
8, 24356, Note_off_c, 4, 48, 0
8, 24360, Note_on_c, 4, 51, 88
8, 24476, Note_off_c, 4, 51, 0
8, 24480, Note_on_c, 4, 53, 88
8, 24596, Note_off_c, 4, 53, 0
8, 24600, Note_on_c, 4, 41, 88
8, 24716, Note_off_c, 4, 41, 0
8, 24720, Note_on_c, 4, 37, 88
8, 24836, Note_off_c, 4, 37, 0
8, 24840, Note_on_c, 4, 41, 88
8, 24956, Note_off_c, 4, 41, 0
8, 24960, Note_on_c, 4, 42, 88
8, 25194, Note_off_c, 4, 42, 0
8, 25200, Note_on_c, 4, 51, 88
8, 25434, Note_off_c, 4, 51, 0
8, 25440, Note_on_c, 4, 54, 88
8, 25674, Note_off_c, 4, 54, 0
8, 25680, Note_on_c, 4, 51, 88
8, 25914, Note_off_c, 4, 51, 0
8, 25920, Note_on_c, 4, 56, 88
8, 27898, Note_off_c, 4, 56, 0
8, 27900, Note_on_c, 4, 58, 88
8, 27958, Note_off_c, 4, 58, 0
8, 27960, Note_on_c, 4, 56, 88
8, 28018, Note_off_c, 4, 56, 0
8, 28020, Note_on_c, 4, 54, 88
8, 28078, Note_off_c, 4, 54, 0
8, 28080, Note_on_c, 4, 53, 88
8, 28138, Note_off_c, 4, 53, 0
8, 28140, Note_on_c, 4, 51, 88
8, 28198, Note_off_c, 4, 51, 0
8, 28200, Note_on_c, 4, 50, 88
8, 28229, Note_off_c, 4, 50, 0
8, 28230, Note_on_c, 4, 51, 88
8, 28259, Note_off_c, 4, 51, 0
8, 28260, Note_on_c, 4, 53, 88
8, 28318, Note_off_c, 4, 53, 0
8, 28320, Note_on_c, 4, 46, 88
8, 28378, Note_off_c, 4, 46, 0
8, 28380, Note_on_c, 4, 58, 88
8, 28438, Note_off_c, 4, 58, 0
8, 28440, Note_on_c, 4, 60, 88
8, 28498, Note_off_c, 4, 60, 0
8, 28500, Note_on_c, 4, 62, 88
8, 28558, Note_off_c, 4, 62, 0
8, 28560, Note_on_c, 4, 63, 88
8, 28618, Note_off_c, 4, 63, 0
8, 28620, Note_on_c, 4, 65, 88
8, 28678, Note_off_c, 4, 65, 0
8, 28680, Note_on_c, 4, 66, 88
8, 28709, Note_off_c, 4, 66, 0
8, 28710, Note_on_c, 4, 65, 88
8, 28739, Note_off_c, 4, 65, 0
8, 28740, Note_on_c, 4, 63, 88
8, 28798, Note_off_c, 4, 63, 0
8, 28800, Note_on_c, 4, 68, 88
8, 28858, Note_off_c, 4, 68, 0
8, 28860, Note_on_c, 4, 66, 88
8, 28918, Note_off_c, 4, 66, 0
8, 28920, Note_on_c, 4, 65, 88
8, 28978, Note_off_c, 4, 65, 0
8, 28980, Note_on_c, 4, 63, 88
8, 29038, Note_off_c, 4, 63, 0
8, 29040, Note_on_c, 4, 61, 88
8, 29098, Note_off_c, 4, 61, 0
8, 29100, Note_on_c, 4, 59, 88
8, 29158, Note_off_c, 4, 59, 0
8, 29160, Note_on_c, 4, 58, 88
8, 29189, Note_off_c, 4, 58, 0
8, 29190, Note_on_c, 4, 59, 88
8, 29219, Note_off_c, 4, 59, 0
8, 29220, Note_on_c, 4, 61, 88
8, 29278, Note_off_c, 4, 61, 0
8, 29280, Note_on_c, 4, 54, 88
8, 29396, Note_off_c, 4, 54, 0
8, 29400, Note_on_c, 4, 39, 88
8, 29516, Note_off_c, 4, 39, 0
8, 29520, Note_on_c, 4, 42, 88
8, 29636, Note_off_c, 4, 42, 0
8, 29640, Note_on_c, 4, 39, 88
8, 29756, Note_off_c, 4, 39, 0
8, 29760, Note_on_c, 4, 44, 88
8, 30142, Note_off_c, 4, 44, 0
8, 30150, Note_on_c, 4, 46, 88
8, 30179, Note_off_c, 4, 46, 0
8, 30180, Note_on_c, 4, 44, 88
8, 30209, Note_off_c, 4, 44, 0
8, 30210, Note_on_c, 4, 43, 88
8, 30239, Note_off_c, 4, 43, 0
8, 30240, Note_on_c, 4, 44, 88
8, 30505, Note_off_c, 4, 44, 0
8, 30510, Note_on_c, 4, 46, 88
8, 30539, Note_off_c, 4, 46, 0
8, 30540, Note_on_c, 4, 48, 88
8, 30569, Note_off_c, 4, 48, 0
8, 30570, Note_on_c, 4, 49, 88
8, 30599, Note_off_c, 4, 49, 0
8, 30600, Note_on_c, 4, 51, 88
8, 30629, Note_off_c, 4, 51, 0
8, 30630, Note_on_c, 4, 53, 88
8, 30659, Note_off_c, 4, 53, 0
8, 30660, Note_on_c, 4, 54, 88
8, 30689, Note_off_c, 4, 54, 0
8, 30690, Note_on_c, 4, 51, 88
8, 30719, Note_off_c, 4, 51, 0
8, 30720, Note_on_c, 4, 53, 88
8, 30836, Note_off_c, 4, 53, 0
8, 30840, Note_on_c, 4, 52, 88
8, 30956, Note_off_c, 4, 52, 0
8, 30960, Note_on_c, 4, 51, 88
8, 31194, Note_off_c, 4, 51, 0
8, 31200, Note_on_c, 4, 49, 88
8, 32205, Note_off_c, 4, 49, 0
8, 32220, Note_on_c, 4, 49, 88
8, 32278, Note_off_c, 4, 49, 0
8, 32280, Note_on_c, 4, 48, 88
8, 32338, Note_off_c, 4, 48, 0
8, 32340, Note_on_c, 4, 46, 88
8, 32398, Note_off_c, 4, 46, 0
8, 32400, Note_on_c, 4, 48, 88
8, 32634, Note_off_c, 4, 48, 0
8, 32640, Note_on_c, 4, 49, 88
8, 32874, Note_off_c, 4, 49, 0
8, 32880, Note_on_c, 4, 51, 88
8, 33114, Note_off_c, 4, 51, 0
8, 33120, Note_on_c, 4, 49, 88
8, 33590, Note_off_c, 4, 49, 0
8, 33590, End_track
9, 0, Start_track
9, 0, Title_t, "Track 6"
9, 0, Program_c, 5, 6
9, 30960, Note_on_c, 5, 44, 88
9, 31194, Note_off_c, 5, 44, 0
9, 31200, Note_on_c, 5, 37, 88
9, 33585, Note_off_c, 5, 37, 0
9, 33585, End_track
0, 0, End_of_file
