0, 0, Header, 1, 6, 240
1, 0, Start_track
1, 0, Time_signature, 12, 4, 24, 8
1, 0, Tempo, 833333
1, 0, SMPTE_offset, 64, 0, 0, 0, 110
1, 49860, Tempo, 882352
1, 50220, Tempo, 1153846
1, 50220, End_track
2, 0, Start_track
2, 0, Title_t, "(C) & (P) 1993"
2, 127, End_track
3, 0, Start_track
3, 0, Title_t, "CCARH,Stanford"
3, 0, End_track
4, 0, Start_track
4, 0, Title_t, "Track 1"
4, 0, Program_c, 0, 6
4, 1080, Note_on_c, 0, 68, 88
4, 1138, Note_off_c, 0, 68, 0
4, 1140, Note_on_c, 0, 67, 88
4, 1198, Note_off_c, 0, 67, 0
4, 1200, Note_on_c, 0, 68, 88
4, 1258, Note_off_c, 0, 68, 0
4, 1260, Note_on_c, 0, 70, 88
4, 1318, Note_off_c, 0, 70, 0
4, 1320, Note_on_c, 0, 68, 88
4, 1378, Note_off_c, 0, 68, 0
4, 1380, Note_on_c, 0, 70, 88
4, 1438, Note_off_c, 0, 70, 0
4, 1440, Note_on_c, 0, 63, 88
4, 1498, Note_off_c, 0, 63, 0
4, 1500, Note_on_c, 0, 65, 88
4, 1558, Note_off_c, 0, 65, 0
4, 1560, Note_on_c, 0, 67, 88
4, 1618, Note_off_c, 0, 67, 0
4, 1620, Note_on_c, 0, 68, 88
4, 1678, Note_off_c, 0, 68, 0
4, 1680, Note_on_c, 0, 70, 88
4, 1738, Note_off_c, 0, 70, 0
4, 1740, Note_on_c, 0, 71, 88
4, 1798, Note_off_c, 0, 71, 0
4, 1800, Note_on_c, 0, 73, 88
4, 1858, Note_off_c, 0, 73, 0
4, 1860, Note_on_c, 0, 71, 88
4, 1918, Note_off_c, 0, 71, 0
4, 1920, Note_on_c, 0, 73, 88
4, 1978, Note_off_c, 0, 73, 0
4, 1980, Note_on_c, 0, 70, 88
4, 2038, Note_off_c, 0, 70, 0
4, 2040, Note_on_c, 0, 75, 88
4, 2098, Note_off_c, 0, 75, 0
4, 2100, Note_on_c, 0, 73, 88
4, 2158, Note_off_c, 0, 73, 0
4, 2160, Note_on_c, 0, 71, 88
4, 2218, Note_off_c, 0, 71, 0
4, 2220, Note_on_c, 0, 70, 88
4, 2278, Note_off_c, 0, 70, 0
4, 2280, Note_on_c, 0, 71, 88
4, 2338, Note_off_c, 0, 71, 0
4, 2340, Note_on_c, 0, 68, 88
4, 2398, Note_off_c, 0, 68, 0
4, 2400, Note_on_c, 0, 73, 88
4, 2458, Note_off_c, 0, 73, 0
4, 2460, Note_on_c, 0, 71, 88
4, 2518, Note_off_c, 0, 71, 0
4, 2520, Note_on_c, 0, 69, 88
4, 2578, Note_off_c, 0, 69, 0
4, 2580, Note_on_c, 0, 68, 88
4, 2638, Note_off_c, 0, 68, 0
4, 2640, Note_on_c, 0, 69, 88
4, 2698, Note_off_c, 0, 69, 0
4, 2700, Note_on_c, 0, 66, 88
4, 2758, Note_off_c, 0, 66, 0
4, 2760, Note_on_c, 0, 71, 88
4, 2818, Note_off_c, 0, 71, 0
4, 2820, Note_on_c, 0, 69, 88
4, 2878, Note_off_c, 0, 69, 0
4, 2880, Note_on_c, 0, 68, 88
4, 3055, Note_off_c, 0, 68, 0
4, 3060, Note_on_c, 0, 66, 88
4, 3413, Note_off_c, 0, 66, 0
4, 3420, Note_on_c, 0, 64, 88
4, 3595, Note_off_c, 0, 64, 0
4, 3600, Note_on_c, 0, 63, 88
4, 3775, Note_off_c, 0, 63, 0
4, 3780, Note_on_c, 0, 75, 88
4, 3955, Note_off_c, 0, 75, 0
4, 3960, Note_on_c, 0, 68, 88
4, 4135, Note_off_c, 0, 68, 0
4, 4140, Note_on_c, 0, 69, 88
4, 4495, Note_off_c, 0, 69, 0
4, 4500, Note_on_c, 0, 68, 88
4, 4853, Note_off_c, 0, 68, 0
4, 4860, Note_on_c, 0, 66, 88
4, 5098, Note_off_c, 0, 66, 0
4, 5100, Note_on_c, 0, 68, 88
4, 5158, Note_off_c, 0, 68, 0
4, 5160, Note_on_c, 0, 69, 88
4, 5218, Note_off_c, 0, 69, 0
4, 5220, Note_on_c, 0, 68, 88
4, 5278, Note_off_c, 0, 68, 0
4, 5280, Note_on_c, 0, 69, 88
4, 5338, Note_off_c, 0, 69, 0
4, 5340, Note_on_c, 0, 66, 88
4, 5398, Note_off_c, 0, 66, 0
4, 5400, Note_on_c, 0, 64, 88
4, 5753, Note_off_c, 0, 64, 0
4, 5760, Note_on_c, 0, 63, 88
4, 5935, Note_off_c, 0, 63, 0
4, 6120, Note_on_c, 0, 68, 88
4, 6178, Note_off_c, 0, 68, 0
4, 6180, Note_on_c, 0, 66, 88
4, 6238, Note_off_c, 0, 66, 0
4, 6240, Note_on_c, 0, 68, 88
4, 6298, Note_off_c, 0, 68, 0
4, 6300, Note_on_c, 0, 64, 88
4, 6358, Note_off_c, 0, 64, 0
4, 6360, Note_on_c, 0, 69, 88
4, 6418, Note_off_c, 0, 69, 0
4, 6420, Note_on_c, 0, 68, 88
4, 6478, Note_off_c, 0, 68, 0
4, 6480, Note_on_c, 0, 66, 88
4, 6538, Note_off_c, 0, 66, 0
4, 6540, Note_on_c, 0, 64, 88
4, 6598, Note_off_c, 0, 64, 0
4, 6600, Note_on_c, 0, 66, 88
4, 6658, Note_off_c, 0, 66, 0
4, 6660, Note_on_c, 0, 63, 88
4, 6718, Note_off_c, 0, 63, 0
4, 6720, Note_on_c, 0, 68, 88
4, 6778, Note_off_c, 0, 68, 0
4, 6780, Note_on_c, 0, 66, 88
4, 6838, Note_off_c, 0, 66, 0
4, 6840, Note_on_c, 0, 65, 88
4, 6898, Note_off_c, 0, 65, 0
4, 6900, Note_on_c, 0, 63, 88
4, 6958, Note_off_c, 0, 63, 0
4, 6960, Note_on_c, 0, 61, 88
4, 7018, Note_off_c, 0, 61, 0
4, 7020, Note_on_c, 0, 66, 88
4, 7375, Note_off_c, 0, 66, 0
4, 7380, Note_on_c, 0, 64, 88
4, 7733, Note_off_c, 0, 64, 0
4, 7740, Note_on_c, 0, 63, 88
4, 7798, Note_off_c, 0, 63, 0
4, 7800, Note_on_c, 0, 61, 88
4, 7858, Note_off_c, 0, 61, 0
4, 7860, Note_on_c, 0, 59, 88
4, 7918, Note_off_c, 0, 59, 0
4, 7920, Note_on_c, 0, 61, 88
4, 8273, Note_off_c, 0, 61, 0
4, 8280, Note_on_c, 0, 59, 88
4, 8633, Note_off_c, 0, 59, 0
4, 8640, Note_on_c, 0, 57, 88
4, 8698, Note_off_c, 0, 57, 0
4, 8700, Note_on_c, 0, 56, 88
4, 8758, Note_off_c, 0, 56, 0
4, 8760, Note_on_c, 0, 57, 88
4, 8818, Note_off_c, 0, 57, 0
4, 8820, Note_on_c, 0, 54, 88
4, 8878, Note_off_c, 0, 54, 0
4, 8880, Note_on_c, 0, 59, 88
4, 8938, Note_off_c, 0, 59, 0
4, 8940, Note_on_c, 0, 57, 88
4, 8998, Note_off_c, 0, 57, 0
4, 9000, Note_on_c, 0, 56, 88
4, 9058, Note_off_c, 0, 56, 0
4, 9060, Note_on_c, 0, 59, 88
4, 9118, Note_off_c, 0, 59, 0
4, 9120, Note_on_c, 0, 64, 88
4, 9236, Note_off_c, 0, 64, 0
4, 9240, Note_on_c, 0, 63, 88
4, 9298, Note_off_c, 0, 63, 0
4, 9300, Note_on_c, 0, 61, 88
4, 9358, Note_off_c, 0, 61, 0
4, 9360, Note_on_c, 0, 59, 88
4, 9418, Note_off_c, 0, 59, 0
4, 9420, Note_on_c, 0, 64, 88
4, 9478, Note_off_c, 0, 64, 0
4, 9480, Note_on_c, 0, 68, 88
4, 9596, Note_off_c, 0, 68, 0
4, 9600, Note_on_c, 0, 66, 88
4, 9658, Note_off_c, 0, 66, 0
4, 9660, Note_on_c, 0, 64, 88
4, 9718, Note_off_c, 0, 64, 0
4, 9720, Note_on_c, 0, 63, 88
4, 9895, Note_off_c, 0, 63, 0
4, 9900, Note_on_c, 0, 65, 88
4, 10075, Note_off_c, 0, 65, 0
4, 10080, Note_on_c, 0, 66, 88
4, 10255, Note_off_c, 0, 66, 0
4, 10440, Note_on_c, 0, 70, 88
4, 10615, Note_off_c, 0, 70, 0
4, 10620, Note_on_c, 0, 72, 88
4, 10795, Note_off_c, 0, 72, 0
4, 10800, Note_on_c, 0, 73, 88
4, 10858, Note_off_c, 0, 73, 0
4, 10860, Note_on_c, 0, 72, 88
4, 10918, Note_off_c, 0, 72, 0
4, 10920, Note_on_c, 0, 73, 88
4, 10978, Note_off_c, 0, 73, 0
4, 10980, Note_on_c, 0, 75, 88
4, 11038, Note_off_c, 0, 75, 0
4, 11040, Note_on_c, 0, 73, 88
4, 11098, Note_off_c, 0, 73, 0
4, 11100, Note_on_c, 0, 75, 88
4, 11158, Note_off_c, 0, 75, 0
4, 11160, Note_on_c, 0, 68, 88
4, 11218, Note_off_c, 0, 68, 0
4, 11220, Note_on_c, 0, 70, 88
4, 11278, Note_off_c, 0, 70, 0
4, 11280, Note_on_c, 0, 72, 88
4, 11338, Note_off_c, 0, 72, 0
4, 11340, Note_on_c, 0, 73, 88
4, 11398, Note_off_c, 0, 73, 0
4, 11400, Note_on_c, 0, 75, 88
4, 11458, Note_off_c, 0, 75, 0
4, 11460, Note_on_c, 0, 76, 88
4, 11518, Note_off_c, 0, 76, 0
4, 11520, Note_on_c, 0, 78, 88
4, 11578, Note_off_c, 0, 78, 0
4, 11580, Note_on_c, 0, 76, 88
4, 11638, Note_off_c, 0, 76, 0
4, 11640, Note_on_c, 0, 78, 88
4, 11698, Note_off_c, 0, 78, 0
4, 11700, Note_on_c, 0, 75, 88
4, 11758, Note_off_c, 0, 75, 0
4, 11760, Note_on_c, 0, 80, 88
4, 11818, Note_off_c, 0, 80, 0
4, 11820, Note_on_c, 0, 78, 88
4, 11878, Note_off_c, 0, 78, 0
4, 11880, Note_on_c, 0, 76, 88
4, 11938, Note_off_c, 0, 76, 0
4, 11940, Note_on_c, 0, 75, 88
4, 11998, Note_off_c, 0, 75, 0
4, 12000, Note_on_c, 0, 76, 88
4, 12058, Note_off_c, 0, 76, 0
4, 12060, Note_on_c, 0, 73, 88
4, 12118, Note_off_c, 0, 73, 0
4, 12120, Note_on_c, 0, 71, 88
4, 12178, Note_off_c, 0, 71, 0
4, 12180, Note_on_c, 0, 73, 88
4, 12238, Note_off_c, 0, 73, 0
4, 12240, Note_on_c, 0, 82, 88
4, 12415, Note_off_c, 0, 82, 0
4, 12420, Note_on_c, 0, 75, 88
4, 12595, Note_off_c, 0, 75, 0
4, 12600, Note_on_c, 0, 77, 88
4, 12775, Note_off_c, 0, 77, 0
4, 12780, Note_on_c, 0, 79, 88
4, 12955, Note_off_c, 0, 79, 0
4, 12960, Note_on_c, 0, 80, 88
4, 13135, Note_off_c, 0, 80, 0
4, 13140, Note_on_c, 0, 76, 88
4, 13493, Note_off_c, 0, 76, 0
4, 13500, Note_on_c, 0, 75, 88
4, 13675, Note_off_c, 0, 75, 0
4, 13680, Note_on_c, 0, 76, 88
4, 14033, Note_off_c, 0, 76, 0
4, 14040, Note_on_c, 0, 75, 88
4, 14215, Note_off_c, 0, 75, 0
4, 14220, Note_on_c, 0, 74, 88
4, 14395, Note_off_c, 0, 74, 0
4, 14400, Note_on_c, 0, 73, 88
4, 14575, Note_off_c, 0, 73, 0
4, 14580, Note_on_c, 0, 75, 88
4, 14638, Note_off_c, 0, 75, 0
4, 14640, Note_on_c, 0, 76, 88
4, 14698, Note_off_c, 0, 76, 0
4, 14700, Note_on_c, 0, 78, 88
4, 14758, Note_off_c, 0, 78, 0
4, 14760, Note_on_c, 0, 71, 88
4, 14935, Note_off_c, 0, 71, 0
4, 14940, Note_on_c, 0, 73, 88
4, 14998, Note_off_c, 0, 73, 0
4, 15000, Note_on_c, 0, 75, 88
4, 15058, Note_off_c, 0, 75, 0
4, 15060, Note_on_c, 0, 76, 88
4, 15118, Note_off_c, 0, 76, 0
4, 15120, Note_on_c, 0, 69, 88
4, 15295, Note_off_c, 0, 69, 0
4, 15300, Note_on_c, 0, 71, 88
4, 15358, Note_off_c, 0, 71, 0
4, 15360, Note_on_c, 0, 73, 88
4, 15418, Note_off_c, 0, 73, 0
4, 15420, Note_on_c, 0, 75, 88
4, 15478, Note_off_c, 0, 75, 0
4, 15480, Note_on_c, 0, 68, 88
4, 15714, Note_off_c, 0, 68, 0
4, 15720, Note_on_c, 0, 71, 88
4, 15778, Note_off_c, 0, 71, 0
4, 15780, Note_on_c, 0, 70, 88
4, 15838, Note_off_c, 0, 70, 0
4, 15840, Note_on_c, 0, 71, 88
4, 16074, Note_off_c, 0, 71, 0
4, 16080, Note_on_c, 0, 75, 88
4, 16138, Note_off_c, 0, 75, 0
4, 16140, Note_on_c, 0, 73, 88
4, 16198, Note_off_c, 0, 73, 0
4, 16200, Note_on_c, 0, 75, 88
4, 16434, Note_off_c, 0, 75, 0
4, 16440, Note_on_c, 0, 78, 88
4, 16498, Note_off_c, 0, 78, 0
4, 16500, Note_on_c, 0, 76, 88
4, 16558, Note_off_c, 0, 76, 0
4, 16560, Note_on_c, 0, 78, 88
4, 16618, Note_off_c, 0, 78, 0
4, 16620, Note_on_c, 0, 80, 88
4, 16678, Note_off_c, 0, 80, 0
4, 16680, Note_on_c, 0, 78, 88
4, 16738, Note_off_c, 0, 78, 0
4, 16740, Note_on_c, 0, 76, 88
4, 16798, Note_off_c, 0, 76, 0
4, 16800, Note_on_c, 0, 78, 88
4, 16858, Note_off_c, 0, 78, 0
4, 16860, Note_on_c, 0, 76, 88
4, 16918, Note_off_c, 0, 76, 0
4, 16920, Note_on_c, 0, 83, 88
4, 16978, Note_off_c, 0, 83, 0
4, 16980, Note_on_c, 0, 82, 88
4, 17038, Note_off_c, 0, 82, 0
4, 17040, Note_on_c, 0, 80, 88
4, 17098, Note_off_c, 0, 80, 0
4, 17100, Note_on_c, 0, 78, 88
4, 17158, Note_off_c, 0, 78, 0
4, 17160, Note_on_c, 0, 76, 88
4, 17218, Note_off_c, 0, 76, 0
4, 17220, Note_on_c, 0, 75, 88
4, 17278, Note_off_c, 0, 75, 0
4, 17280, Note_on_c, 0, 73, 88
4, 17338, Note_off_c, 0, 73, 0
4, 17340, Note_on_c, 0, 75, 88
4, 17398, Note_off_c, 0, 75, 0
4, 17400, Note_on_c, 0, 73, 88
4, 17458, Note_off_c, 0, 73, 0
4, 17460, Note_on_c, 0, 76, 88
4, 17518, Note_off_c, 0, 76, 0
4, 17520, Note_on_c, 0, 71, 88
4, 17578, Note_off_c, 0, 71, 0
4, 17580, Note_on_c, 0, 73, 88
4, 17638, Note_off_c, 0, 73, 0
4, 17640, Note_on_c, 0, 75, 88
4, 17698, Note_off_c, 0, 75, 0
4, 17700, Note_on_c, 0, 76, 88
4, 17758, Note_off_c, 0, 76, 0
4, 17760, Note_on_c, 0, 75, 88
4, 17818, Note_off_c, 0, 75, 0
4, 17820, Note_on_c, 0, 78, 88
4, 17878, Note_off_c, 0, 78, 0
4, 17880, Note_on_c, 0, 73, 88
4, 17938, Note_off_c, 0, 73, 0
4, 17940, Note_on_c, 0, 75, 88
4, 17998, Note_off_c, 0, 75, 0
4, 18000, Note_on_c, 0, 76, 88
4, 18175, Note_off_c, 0, 76, 0
4, 18180, Note_on_c, 0, 77, 88
4, 18355, Note_off_c, 0, 77, 0
4, 18360, Note_on_c, 0, 69, 88
4, 18476, Note_off_c, 0, 69, 0
4, 18660, Note_on_c, 0, 78, 88
4, 18718, Note_off_c, 0, 78, 0
4, 18720, Note_on_c, 0, 77, 88
4, 18836, Note_off_c, 0, 77, 0
4, 18840, Note_on_c, 0, 76, 88
4, 18898, Note_off_c, 0, 76, 0
4, 18900, Note_on_c, 0, 75, 88
4, 19016, Note_off_c, 0, 75, 0
4, 19020, Note_on_c, 0, 74, 88
4, 19078, Note_off_c, 0, 74, 0
4, 19080, Note_on_c, 0, 73, 88
4, 19196, Note_off_c, 0, 73, 0
4, 19200, Note_on_c, 0, 78, 88
4, 19258, Note_off_c, 0, 78, 0
4, 19260, Note_on_c, 0, 77, 88
4, 19376, Note_off_c, 0, 77, 0
4, 19380, Note_on_c, 0, 76, 88
4, 19438, Note_off_c, 0, 76, 0
4, 19440, Note_on_c, 0, 75, 88
4, 19556, Note_off_c, 0, 75, 0
4, 19560, Note_on_c, 0, 77, 88
4, 19618, Note_off_c, 0, 77, 0
4, 19620, Note_on_c, 0, 78, 88
4, 19973, Note_off_c, 0, 78, 0
4, 19980, Note_on_c, 0, 76, 88
4, 20335, Note_off_c, 0, 76, 0
4, 20340, Note_on_c, 0, 75, 88
4, 20634, Note_off_c, 0, 75, 0
4, 20640, Note_on_c, 0, 73, 88
4, 20698, Note_off_c, 0, 73, 0
4, 20700, Note_on_c, 0, 72, 88
4, 20816, Note_off_c, 0, 72, 0
4, 20820, Note_on_c, 0, 71, 88
4, 20878, Note_off_c, 0, 71, 0
4, 20880, Note_on_c, 0, 70, 88
4, 20996, Note_off_c, 0, 70, 0
4, 21000, Note_on_c, 0, 69, 88
4, 21058, Note_off_c, 0, 69, 0
4, 21060, Note_on_c, 0, 78, 88
4, 21118, Note_off_c, 0, 78, 0
4, 21120, Note_on_c, 0, 76, 88
4, 21178, Note_off_c, 0, 76, 0
4, 21180, Note_on_c, 0, 78, 88
4, 21238, Note_off_c, 0, 78, 0
4, 21240, Note_on_c, 0, 72, 88
4, 21298, Note_off_c, 0, 72, 0
4, 21300, Note_on_c, 0, 73, 88
4, 21358, Note_off_c, 0, 73, 0
4, 21360, Note_on_c, 0, 75, 88
4, 21418, Note_off_c, 0, 75, 0
4, 21420, Note_on_c, 0, 68, 88
4, 21595, Note_off_c, 0, 68, 0
4, 21600, Note_on_c, 0, 70, 88
4, 21775, Note_off_c, 0, 70, 0
4, 21780, Note_on_c, 0, 72, 88
4, 21955, Note_off_c, 0, 72, 0
4, 21960, Note_on_c, 0, 73, 88
4, 22135, Note_off_c, 0, 73, 0
4, 22140, Note_on_c, 0, 69, 88
4, 22495, Note_off_c, 0, 69, 0
4, 22500, Note_on_c, 0, 68, 88
4, 22853, Note_off_c, 0, 68, 0
4, 22860, Note_on_c, 0, 66, 88
4, 23035, Note_off_c, 0, 66, 0
4, 23040, Note_on_c, 0, 68, 88
4, 23098, Note_off_c, 0, 68, 0
4, 23100, Note_on_c, 0, 63, 88
4, 23158, Note_off_c, 0, 63, 0
4, 23160, Note_on_c, 0, 68, 88
4, 23276, Note_off_c, 0, 68, 0
4, 23280, Note_on_c, 0, 66, 88
4, 23338, Note_off_c, 0, 66, 0
4, 23340, Note_on_c, 0, 64, 88
4, 23398, Note_off_c, 0, 64, 0
4, 23400, Note_on_c, 0, 63, 88
4, 23458, Note_off_c, 0, 63, 0
4, 23460, Note_on_c, 0, 66, 88
4, 23518, Note_off_c, 0, 66, 0
4, 23520, Note_on_c, 0, 69, 88
4, 23636, Note_off_c, 0, 69, 0
4, 23640, Note_on_c, 0, 68, 88
4, 23698, Note_off_c, 0, 68, 0
4, 23700, Note_on_c, 0, 66, 88
4, 23758, Note_off_c, 0, 66, 0
4, 23760, Note_on_c, 0, 64, 88
4, 23935, Note_off_c, 0, 64, 0
4, 23940, Note_on_c, 0, 66, 88
4, 24115, Note_off_c, 0, 66, 0
4, 24120, Note_on_c, 0, 68, 88
4, 24236, Note_off_c, 0, 68, 0
4, 24480, Note_on_c, 0, 78, 88
4, 24833, Note_off_c, 0, 78, 0
4, 24840, Note_on_c, 0, 77, 88
4, 25015, Note_off_c, 0, 77, 0
4, 25020, Note_on_c, 0, 76, 88
4, 25195, Note_off_c, 0, 76, 0
4, 25200, Note_on_c, 0, 75, 88
4, 25375, Note_off_c, 0, 75, 0
4, 25380, Note_on_c, 0, 80, 88
4, 25555, Note_off_c, 0, 80, 0
4, 25560, Note_on_c, 0, 73, 88
4, 25735, Note_off_c, 0, 73, 0
4, 25740, Note_on_c, 0, 78, 88
4, 26095, Note_off_c, 0, 78, 0
4, 26100, Note_on_c, 0, 76, 88
4, 26275, Note_off_c, 0, 76, 0
4, 26280, Note_on_c, 0, 75, 88
4, 26455, Note_off_c, 0, 75, 0
4, 26460, Note_on_c, 0, 76, 88
4, 26815, Note_off_c, 0, 76, 0
4, 26820, Note_on_c, 0, 75, 88
4, 27054, Note_off_c, 0, 75, 0
4, 27060, Note_on_c, 0, 73, 88
4, 27118, Note_off_c, 0, 73, 0
4, 27120, Note_on_c, 0, 71, 88
4, 27178, Note_off_c, 0, 71, 0
4, 27180, Note_on_c, 0, 73, 88
4, 27238, Note_off_c, 0, 73, 0
4, 27240, Note_on_c, 0, 75, 88
4, 27298, Note_off_c, 0, 75, 0
4, 27300, Note_on_c, 0, 76, 88
4, 27418, Note_off_c, 0, 76, 0
4, 27420, Note_on_c, 0, 75, 88
4, 27478, Note_off_c, 0, 75, 0
4, 27480, Note_on_c, 0, 73, 88
4, 27538, Note_off_c, 0, 73, 0
4, 27540, Note_on_c, 0, 71, 88
4, 27598, Note_off_c, 0, 71, 0
4, 27600, Note_on_c, 0, 73, 88
4, 27658, Note_off_c, 0, 73, 0
4, 27660, Note_on_c, 0, 71, 88
4, 27718, Note_off_c, 0, 71, 0
4, 27720, Note_on_c, 0, 70, 88
4, 27895, Note_off_c, 0, 70, 0
4, 28080, Note_on_c, 0, 75, 88
4, 28138, Note_off_c, 0, 75, 0
4, 28140, Note_on_c, 0, 73, 88
4, 28198, Note_off_c, 0, 73, 0
4, 28200, Note_on_c, 0, 75, 88
4, 28258, Note_off_c, 0, 75, 0
4, 28260, Note_on_c, 0, 71, 88
4, 28318, Note_off_c, 0, 71, 0
4, 28320, Note_on_c, 0, 76, 88
4, 28378, Note_off_c, 0, 76, 0
4, 28380, Note_on_c, 0, 75, 88
4, 28438, Note_off_c, 0, 75, 0
4, 28440, Note_on_c, 0, 73, 88
4, 28498, Note_off_c, 0, 73, 0
4, 28500, Note_on_c, 0, 71, 88
4, 28558, Note_off_c, 0, 71, 0
4, 28560, Note_on_c, 0, 73, 88
4, 28618, Note_off_c, 0, 73, 0
4, 28620, Note_on_c, 0, 70, 88
4, 28678, Note_off_c, 0, 70, 0
4, 28680, Note_on_c, 0, 75, 88
4, 28738, Note_off_c, 0, 75, 0
4, 28740, Note_on_c, 0, 73, 88
4, 28798, Note_off_c, 0, 73, 0
4, 28800, Note_on_c, 0, 72, 88
4, 28858, Note_off_c, 0, 72, 0
4, 28860, Note_on_c, 0, 70, 88
4, 28918, Note_off_c, 0, 70, 0
4, 28920, Note_on_c, 0, 68, 88
4, 28978, Note_off_c, 0, 68, 0
4, 28980, Note_on_c, 0, 73, 88
4, 29333, Note_off_c, 0, 73, 0
4, 29340, Note_on_c, 0, 71, 88
4, 29695, Note_off_c, 0, 71, 0
4, 29700, Note_on_c, 0, 69, 88
4, 29758, Note_off_c, 0, 69, 0
4, 29760, Note_on_c, 0, 68, 88
4, 29818, Note_off_c, 0, 68, 0
4, 29820, Note_on_c, 0, 66, 88
4, 29878, Note_off_c, 0, 66, 0
4, 29880, Note_on_c, 0, 68, 88
4, 30233, Note_off_c, 0, 68, 0
4, 30240, Note_on_c, 0, 66, 88
4, 30593, Note_off_c, 0, 66, 0
4, 30600, Note_on_c, 0, 64, 88
4, 30658, Note_off_c, 0, 64, 0
4, 30660, Note_on_c, 0, 63, 88
4, 30718, Note_off_c, 0, 63, 0
4, 30720, Note_on_c, 0, 64, 88
4, 30778, Note_off_c, 0, 64, 0
4, 30780, Note_on_c, 0, 61, 88
4, 30838, Note_off_c, 0, 61, 0
4, 30840, Note_on_c, 0, 66, 88
4, 30898, Note_off_c, 0, 66, 0
4, 30900, Note_on_c, 0, 64, 88
4, 30958, Note_off_c, 0, 64, 0
4, 30960, Note_on_c, 0, 63, 88
4, 31018, Note_off_c, 0, 63, 0
4, 31020, Note_on_c, 0, 66, 88
4, 31078, Note_off_c, 0, 66, 0
4, 31080, Note_on_c, 0, 71, 88
4, 31196, Note_off_c, 0, 71, 0
4, 31200, Note_on_c, 0, 69, 88
4, 31258, Note_off_c, 0, 69, 0
4, 31260, Note_on_c, 0, 68, 88
4, 31318, Note_off_c, 0, 68, 0
4, 31320, Note_on_c, 0, 66, 88
4, 31378, Note_off_c, 0, 66, 0
4, 31380, Note_on_c, 0, 77, 88
4, 31438, Note_off_c, 0, 77, 0
4, 31440, Note_on_c, 0, 78, 88
4, 31498, Note_off_c, 0, 78, 0
4, 31500, Note_on_c, 0, 80, 88
4, 31558, Note_off_c, 0, 80, 0
4, 31560, Note_on_c, 0, 73, 88
4, 31618, Note_off_c, 0, 73, 0
4, 31620, Note_on_c, 0, 71, 88
4, 31678, Note_off_c, 0, 71, 0
4, 31680, Note_on_c, 0, 69, 88
4, 31855, Note_off_c, 0, 69, 0
4, 31980, Note_on_c, 0, 78, 88
4, 32038, Note_off_c, 0, 78, 0
4, 32040, Note_on_c, 0, 76, 88
4, 32215, Note_off_c, 0, 76, 0
4, 32220, Note_on_c, 0, 75, 88
4, 32458, Note_off_c, 0, 75, 0
4, 32460, Note_on_c, 0, 73, 88
4, 32518, Note_off_c, 0, 73, 0
4, 32520, Note_on_c, 0, 75, 88
4, 32578, Note_off_c, 0, 75, 0
4, 32580, Note_on_c, 0, 76, 88
4, 32638, Note_off_c, 0, 76, 0
4, 32640, Note_on_c, 0, 69, 88
4, 32698, Note_off_c, 0, 69, 0
4, 32700, Note_on_c, 0, 68, 88
4, 32758, Note_off_c, 0, 68, 0
4, 32760, Note_on_c, 0, 66, 88
4, 32818, Note_off_c, 0, 66, 0
4, 32820, Note_on_c, 0, 75, 88
4, 32878, Note_off_c, 0, 75, 0
4, 32880, Note_on_c, 0, 76, 88
4, 32938, Note_off_c, 0, 76, 0
4, 32940, Note_on_c, 0, 78, 88
4, 32998, Note_off_c, 0, 78, 0
4, 33000, Note_on_c, 0, 71, 88
4, 33058, Note_off_c, 0, 71, 0
4, 33060, Note_on_c, 0, 69, 88
4, 33118, Note_off_c, 0, 69, 0
4, 33120, Note_on_c, 0, 68, 88
4, 33178, Note_off_c, 0, 68, 0
4, 33180, Note_on_c, 0, 80, 88
4, 33238, Note_off_c, 0, 80, 0
4, 33240, Note_on_c, 0, 81, 88
4, 33298, Note_off_c, 0, 81, 0
4, 33300, Note_on_c, 0, 83, 88
4, 33358, Note_off_c, 0, 83, 0
4, 33360, Note_on_c, 0, 76, 88
4, 33418, Note_off_c, 0, 76, 0
4, 33420, Note_on_c, 0, 74, 88
4, 33478, Note_off_c, 0, 74, 0
4, 33480, Note_on_c, 0, 73, 88
4, 33898, Note_off_c, 0, 73, 0
4, 33900, Note_on_c, 0, 72, 88
4, 33958, Note_off_c, 0, 72, 0
4, 33960, Note_on_c, 0, 73, 88
4, 34018, Note_off_c, 0, 73, 0
4, 34020, Note_on_c, 0, 75, 88
4, 34078, Note_off_c, 0, 75, 0
4, 34080, Note_on_c, 0, 73, 88
4, 34138, Note_off_c, 0, 73, 0
4, 34140, Note_on_c, 0, 75, 88
4, 34198, Note_off_c, 0, 75, 0
4, 34200, Note_on_c, 0, 68, 88
4, 34258, Note_off_c, 0, 68, 0
4, 34260, Note_on_c, 0, 70, 88
4, 34318, Note_off_c, 0, 70, 0
4, 34320, Note_on_c, 0, 72, 88
4, 34378, Note_off_c, 0, 72, 0
4, 34380, Note_on_c, 0, 73, 88
4, 34438, Note_off_c, 0, 73, 0
4, 34440, Note_on_c, 0, 75, 88
4, 34498, Note_off_c, 0, 75, 0
4, 34500, Note_on_c, 0, 76, 88
4, 34558, Note_off_c, 0, 76, 0
4, 34560, Note_on_c, 0, 78, 88
4, 34618, Note_off_c, 0, 78, 0
4, 34620, Note_on_c, 0, 76, 88
4, 34678, Note_off_c, 0, 76, 0
4, 34680, Note_on_c, 0, 78, 88
4, 34738, Note_off_c, 0, 78, 0
4, 34740, Note_on_c, 0, 75, 88
4, 34798, Note_off_c, 0, 75, 0
4, 34800, Note_on_c, 0, 80, 88
4, 34858, Note_off_c, 0, 80, 0
4, 34860, Note_on_c, 0, 78, 88
4, 34918, Note_off_c, 0, 78, 0
4, 34920, Note_on_c, 0, 76, 88
4, 35095, Note_off_c, 0, 76, 0
4, 35100, Note_on_c, 0, 75, 88
4, 35275, Note_off_c, 0, 75, 0
4, 35280, Note_on_c, 0, 73, 88
4, 35505, Note_off_c, 0, 73, 0
4, 35520, Note_on_c, 0, 73, 88
4, 35578, Note_off_c, 0, 73, 0
4, 35580, Note_on_c, 0, 76, 88
4, 35638, Note_off_c, 0, 76, 0
4, 35640, Note_on_c, 0, 75, 88
4, 35815, Note_off_c, 0, 75, 0
4, 35820, Note_on_c, 0, 73, 88
4, 35995, Note_off_c, 0, 73, 0
4, 36000, Note_on_c, 0, 71, 88
4, 36225, Note_off_c, 0, 71, 0
4, 36240, Note_on_c, 0, 71, 88
4, 36298, Note_off_c, 0, 71, 0
4, 36300, Note_on_c, 0, 74, 88
4, 36358, Note_off_c, 0, 74, 0
4, 36360, Note_on_c, 0, 73, 88
4, 36418, Note_off_c, 0, 73, 0
4, 36420, Note_on_c, 0, 71, 88
4, 36478, Note_off_c, 0, 71, 0
4, 36480, Note_on_c, 0, 73, 88
4, 36538, Note_off_c, 0, 73, 0
4, 36540, Note_on_c, 0, 66, 88
4, 36598, Note_off_c, 0, 66, 0
4, 36600, Note_on_c, 0, 71, 88
4, 36658, Note_off_c, 0, 71, 0
4, 36660, Note_on_c, 0, 69, 88
4, 36718, Note_off_c, 0, 69, 0
4, 36720, Note_on_c, 0, 68, 88
4, 36778, Note_off_c, 0, 68, 0
4, 36780, Note_on_c, 0, 66, 88
4, 36838, Note_off_c, 0, 66, 0
4, 36840, Note_on_c, 0, 68, 88
4, 36898, Note_off_c, 0, 68, 0
4, 36900, Note_on_c, 0, 64, 88
4, 36958, Note_off_c, 0, 64, 0
4, 36960, Note_on_c, 0, 69, 88
4, 37018, Note_off_c, 0, 69, 0
4, 37020, Note_on_c, 0, 68, 88
4, 37078, Note_off_c, 0, 68, 0
4, 37080, Note_on_c, 0, 66, 88
4, 37138, Note_off_c, 0, 66, 0
4, 37140, Note_on_c, 0, 64, 88
4, 37198, Note_off_c, 0, 64, 0
4, 37200, Note_on_c, 0, 66, 88
4, 37258, Note_off_c, 0, 66, 0
4, 37260, Note_on_c, 0, 68, 88
4, 37318, Note_off_c, 0, 68, 0
4, 37320, Note_on_c, 0, 66, 88
4, 37378, Note_off_c, 0, 66, 0
4, 37380, Note_on_c, 0, 68, 88
4, 37438, Note_off_c, 0, 68, 0
4, 37440, Note_on_c, 0, 69, 88
4, 37971, Note_off_c, 0, 69, 0
4, 37980, Note_on_c, 0, 68, 88
4, 38155, Note_off_c, 0, 68, 0
4, 38160, Note_on_c, 0, 69, 88
4, 38218, Note_off_c, 0, 69, 0
4, 38220, Note_on_c, 0, 73, 88
4, 38278, Note_off_c, 0, 73, 0
4, 38280, Note_on_c, 0, 71, 88
4, 38338, Note_off_c, 0, 71, 0
4, 38340, Note_on_c, 0, 73, 88
4, 38398, Note_off_c, 0, 73, 0
4, 38400, Note_on_c, 0, 71, 88
4, 38458, Note_off_c, 0, 71, 0
4, 38460, Note_on_c, 0, 69, 88
4, 38518, Note_off_c, 0, 69, 0
4, 38520, Note_on_c, 0, 71, 88
4, 38578, Note_off_c, 0, 71, 0
4, 38580, Note_on_c, 0, 65, 88
4, 38638, Note_off_c, 0, 65, 0
4, 38640, Note_on_c, 0, 66, 88
4, 38698, Note_off_c, 0, 66, 0
4, 38700, Note_on_c, 0, 65, 88
4, 38816, Note_off_c, 0, 65, 0
4, 38880, Note_on_c, 0, 73, 88
4, 39233, Note_off_c, 0, 73, 0
4, 39240, Note_on_c, 0, 72, 88
4, 39415, Note_off_c, 0, 72, 0
4, 39420, Note_on_c, 0, 71, 88
4, 39595, Note_off_c, 0, 71, 0
4, 39600, Note_on_c, 0, 70, 88
4, 39775, Note_off_c, 0, 70, 0
4, 39780, Note_on_c, 0, 75, 88
4, 39955, Note_off_c, 0, 75, 0
4, 39960, Note_on_c, 0, 68, 88
4, 40135, Note_off_c, 0, 68, 0
4, 40140, Note_on_c, 0, 73, 88
4, 40495, Note_off_c, 0, 73, 0
4, 40500, Note_on_c, 0, 72, 88
4, 40675, Note_off_c, 0, 72, 0
4, 40680, Note_on_c, 0, 73, 88
4, 40796, Note_off_c, 0, 73, 0
4, 40860, Note_on_c, 0, 69, 88
4, 40918, Note_off_c, 0, 69, 0
4, 40920, Note_on_c, 0, 68, 88
4, 40978, Note_off_c, 0, 68, 0
4, 40980, Note_on_c, 0, 69, 88
4, 41038, Note_off_c, 0, 69, 0
4, 41040, Note_on_c, 0, 66, 88
4, 41098, Note_off_c, 0, 66, 0
4, 41100, Note_on_c, 0, 71, 88
4, 41158, Note_off_c, 0, 71, 0
4, 41160, Note_on_c, 0, 69, 88
4, 41218, Note_off_c, 0, 69, 0
4, 41220, Note_on_c, 0, 68, 88
4, 41278, Note_off_c, 0, 68, 0
4, 41280, Note_on_c, 0, 66, 88
4, 41338, Note_off_c, 0, 66, 0
4, 41340, Note_on_c, 0, 68, 88
4, 41398, Note_off_c, 0, 68, 0
4, 41400, Note_on_c, 0, 64, 88
4, 41458, Note_off_c, 0, 64, 0
4, 41460, Note_on_c, 0, 69, 88
4, 41518, Note_off_c, 0, 69, 0
4, 41520, Note_on_c, 0, 68, 88
4, 41578, Note_off_c, 0, 68, 0
4, 41580, Note_on_c, 0, 66, 88
4, 41818, Note_off_c, 0, 66, 0
4, 41820, Note_on_c, 0, 64, 88
4, 41878, Note_off_c, 0, 64, 0
4, 41880, Note_on_c, 0, 63, 88
4, 41938, Note_off_c, 0, 63, 0
4, 41940, Note_on_c, 0, 64, 88
4, 41998, Note_off_c, 0, 64, 0
4, 42000, Note_on_c, 0, 68, 88
4, 42058, Note_off_c, 0, 68, 0
4, 42060, Note_on_c, 0, 73, 88
4, 42176, Note_off_c, 0, 73, 0
4, 42180, Note_on_c, 0, 72, 88
4, 42238, Note_off_c, 0, 72, 0
4, 42240, Note_on_c, 0, 70, 88
4, 42298, Note_off_c, 0, 70, 0
4, 42300, Note_on_c, 0, 72, 88
4, 42358, Note_off_c, 0, 72, 0
4, 42360, Note_on_c, 0, 75, 88
4, 42418, Note_off_c, 0, 75, 0
4, 42420, Note_on_c, 0, 80, 88
4, 42538, Note_off_c, 0, 80, 0
4, 42540, Note_on_c, 0, 78, 88
4, 42598, Note_off_c, 0, 78, 0
4, 42600, Note_on_c, 0, 76, 88
4, 42658, Note_off_c, 0, 76, 0
4, 42660, Note_on_c, 0, 75, 88
4, 42718, Note_off_c, 0, 75, 0
4, 42720, Note_on_c, 0, 76, 88
4, 42778, Note_off_c, 0, 76, 0
4, 42780, Note_on_c, 0, 73, 88
4, 42838, Note_off_c, 0, 73, 0
4, 42840, Note_on_c, 0, 72, 88
4, 42898, Note_off_c, 0, 72, 0
4, 42900, Note_on_c, 0, 73, 88
4, 42958, Note_off_c, 0, 73, 0
4, 42960, Note_on_c, 0, 75, 88
4, 43018, Note_off_c, 0, 75, 0
4, 43020, Note_on_c, 0, 68, 88
4, 43078, Note_off_c, 0, 68, 0
4, 43080, Note_on_c, 0, 80, 88
4, 43138, Note_off_c, 0, 80, 0
4, 43140, Note_on_c, 0, 78, 88
4, 43198, Note_off_c, 0, 78, 0
4, 43200, Note_on_c, 0, 76, 88
4, 43258, Note_off_c, 0, 76, 0
4, 43260, Note_on_c, 0, 75, 88
4, 43318, Note_off_c, 0, 75, 0
4, 43320, Note_on_c, 0, 76, 88
4, 43378, Note_off_c, 0, 76, 0
4, 43380, Note_on_c, 0, 68, 88
4, 43402, Note_off_c, 0, 68, 0
4, 43403, Note_on_c, 0, 67, 88
4, 43424, Note_off_c, 0, 67, 0
4, 43425, Note_on_c, 0, 68, 88
4, 43447, Note_off_c, 0, 68, 0
4, 43448, Note_on_c, 0, 67, 88
4, 43469, Note_off_c, 0, 67, 0
4, 43470, Note_on_c, 0, 68, 88
4, 43492, Note_off_c, 0, 68, 0
4, 43493, Note_on_c, 0, 67, 88
4, 43514, Note_off_c, 0, 67, 0
4, 43515, Note_on_c, 0, 68, 88
4, 43537, Note_off_c, 0, 68, 0
4, 43538, Note_on_c, 0, 67, 88
4, 43559, Note_off_c, 0, 67, 0
4, 43560, Note_on_c, 0, 68, 88
4, 44095, Note_off_c, 0, 68, 0
4, 44100, Note_on_c, 0, 66, 88
4, 44334, Note_off_c, 0, 66, 0
4, 44340, Note_on_c, 0, 64, 88
4, 44398, Note_off_c, 0, 64, 0
4, 44400, Note_on_c, 0, 66, 88
4, 44458, Note_off_c, 0, 66, 0
4, 44460, Note_on_c, 0, 63, 88
4, 44518, Note_off_c, 0, 63, 0
4, 44520, Note_on_c, 0, 68, 88
4, 44578, Note_off_c, 0, 68, 0
4, 44580, Note_on_c, 0, 66, 88
4, 44638, Note_off_c, 0, 66, 0
4, 44640, Note_on_c, 0, 65, 88
4, 44815, Note_off_c, 0, 65, 0
4, 44820, Note_on_c, 0, 64, 88
4, 45054, Note_off_c, 0, 64, 0
4, 45060, Note_on_c, 0, 63, 88
4, 45118, Note_off_c, 0, 63, 0
4, 45120, Note_on_c, 0, 64, 88
4, 45178, Note_off_c, 0, 64, 0
4, 45180, Note_on_c, 0, 61, 88
4, 45238, Note_off_c, 0, 61, 0
4, 45240, Note_on_c, 0, 66, 88
4, 45298, Note_off_c, 0, 66, 0
4, 45300, Note_on_c, 0, 64, 88
4, 45358, Note_off_c, 0, 64, 0
4, 45360, Note_on_c, 0, 63, 88
4, 45418, Note_off_c, 0, 63, 0
4, 45420, Note_on_c, 0, 61, 88
4, 45478, Note_off_c, 0, 61, 0
4, 45480, Note_on_c, 0, 59, 88
4, 45538, Note_off_c, 0, 59, 0
4, 45540, Note_on_c, 0, 64, 88
4, 45774, Note_off_c, 0, 64, 0
4, 45780, Note_on_c, 0, 63, 88
4, 45838, Note_off_c, 0, 63, 0
4, 45840, Note_on_c, 0, 61, 88
4, 45898, Note_off_c, 0, 61, 0
4, 45900, Note_on_c, 0, 63, 88
4, 45958, Note_off_c, 0, 63, 0
4, 45960, Note_on_c, 0, 65, 88
4, 46018, Note_off_c, 0, 65, 0
4, 46020, Note_on_c, 0, 66, 88
4, 46078, Note_off_c, 0, 66, 0
4, 46080, Note_on_c, 0, 68, 88
4, 46492, Note_off_c, 0, 68, 0
4, 46500, Note_on_c, 0, 66, 88
4, 46558, Note_off_c, 0, 66, 0
4, 46560, Note_on_c, 0, 65, 88
4, 46618, Note_off_c, 0, 65, 0
4, 46620, Note_on_c, 0, 66, 88
4, 46678, Note_off_c, 0, 66, 0
4, 46680, Note_on_c, 0, 69, 88
4, 46738, Note_off_c, 0, 69, 0
4, 46740, Note_on_c, 0, 73, 88
4, 46798, Note_off_c, 0, 73, 0
4, 46800, Note_on_c, 0, 78, 88
4, 47153, Note_off_c, 0, 78, 0
4, 47160, Note_on_c, 0, 77, 88
4, 47335, Note_off_c, 0, 77, 0
4, 47340, Note_on_c, 0, 76, 88
4, 47515, Note_off_c, 0, 76, 0
4, 47520, Note_on_c, 0, 75, 88
4, 47695, Note_off_c, 0, 75, 0
4, 47700, Note_on_c, 0, 80, 88
4, 47875, Note_off_c, 0, 80, 0
4, 47880, Note_on_c, 0, 73, 88
4, 48298, Note_off_c, 0, 73, 0
4, 48300, Note_on_c, 0, 72, 88
4, 48358, Note_off_c, 0, 72, 0
4, 48360, Note_on_c, 0, 70, 88
4, 48418, Note_off_c, 0, 70, 0
4, 48420, Note_on_c, 0, 72, 88
4, 48478, Note_off_c, 0, 72, 0
4, 48480, Note_on_c, 0, 70, 88
4, 48538, Note_off_c, 0, 70, 0
4, 48540, Note_on_c, 0, 68, 88
4, 48598, Note_off_c, 0, 68, 0
4, 48600, Note_on_c, 0, 80, 88
4, 48775, Note_off_c, 0, 80, 0
4, 48780, Note_on_c, 0, 79, 88
4, 48955, Note_off_c, 0, 79, 0
4, 48960, Note_on_c, 0, 78, 88
4, 49135, Note_off_c, 0, 78, 0
4, 49140, Note_on_c, 0, 77, 88
4, 49315, Note_off_c, 0, 77, 0
4, 49320, Note_on_c, 0, 76, 88
4, 49495, Note_off_c, 0, 76, 0
4, 49500, Note_on_c, 0, 75, 88
4, 49616, Note_off_c, 0, 75, 0
4, 49620, Note_on_c, 0, 73, 88
4, 49678, Note_off_c, 0, 73, 0
4, 49680, Note_on_c, 0, 72, 88
4, 49796, Note_off_c, 0, 72, 0
4, 49800, Note_on_c, 0, 68, 88
4, 49858, Note_off_c, 0, 68, 0
4, 49860, Note_on_c, 0, 73, 88
4, 50213, Note_off_c, 0, 73, 0
4, 50220, Note_on_c, 0, 72, 88
4, 50395, Note_off_c, 0, 72, 0
4, 50400, Note_on_c, 0, 73, 88
4, 50575, Note_off_c, 0, 73, 0
4, 50575, End_track
5, 0, Start_track
5, 0, Title_t, "Track 2"
5, 0, Program_c, 1, 6
5, 2880, Note_on_c, 1, 61, 88
5, 2938, Note_off_c, 1, 61, 0
5, 2940, Note_on_c, 1, 60, 88
5, 2998, Note_off_c, 1, 60, 0
5, 3000, Note_on_c, 1, 61, 88
5, 3058, Note_off_c, 1, 61, 0
5, 3060, Note_on_c, 1, 63, 88
5, 3118, Note_off_c, 1, 63, 0
5, 3120, Note_on_c, 1, 61, 88
5, 3178, Note_off_c, 1, 61, 0
5, 3180, Note_on_c, 1, 63, 88
5, 3238, Note_off_c, 1, 63, 0
5, 3240, Note_on_c, 1, 56, 88
5, 3298, Note_off_c, 1, 56, 0
5, 3300, Note_on_c, 1, 58, 88
5, 3358, Note_off_c, 1, 58, 0
5, 3360, Note_on_c, 1, 60, 88
5, 3418, Note_off_c, 1, 60, 0
5, 3420, Note_on_c, 1, 61, 88
5, 3478, Note_off_c, 1, 61, 0
5, 3480, Note_on_c, 1, 63, 88
5, 3538, Note_off_c, 1, 63, 0
5, 3540, Note_on_c, 1, 64, 88
5, 3598, Note_off_c, 1, 64, 0
5, 3600, Note_on_c, 1, 66, 88
5, 3658, Note_off_c, 1, 66, 0
5, 3660, Note_on_c, 1, 64, 88
5, 3718, Note_off_c, 1, 64, 0
5, 3720, Note_on_c, 1, 66, 88
5, 3778, Note_off_c, 1, 66, 0
5, 3780, Note_on_c, 1, 63, 88
5, 3838, Note_off_c, 1, 63, 0
5, 3840, Note_on_c, 1, 68, 88
5, 3898, Note_off_c, 1, 68, 0
5, 3900, Note_on_c, 1, 66, 88
5, 3958, Note_off_c, 1, 66, 0
5, 3960, Note_on_c, 1, 64, 88
5, 4018, Note_off_c, 1, 64, 0
5, 4020, Note_on_c, 1, 63, 88
5, 4078, Note_off_c, 1, 63, 0
5, 4080, Note_on_c, 1, 64, 88
5, 4138, Note_off_c, 1, 64, 0
5, 4140, Note_on_c, 1, 61, 88
5, 4198, Note_off_c, 1, 61, 0
5, 4200, Note_on_c, 1, 66, 88
5, 4258, Note_off_c, 1, 66, 0
5, 4260, Note_on_c, 1, 64, 88
5, 4318, Note_off_c, 1, 64, 0
5, 4320, Note_on_c, 1, 63, 88
5, 4378, Note_off_c, 1, 63, 0
5, 4380, Note_on_c, 1, 61, 88
5, 4438, Note_off_c, 1, 61, 0
5, 4440, Note_on_c, 1, 63, 88
5, 4498, Note_off_c, 1, 63, 0
5, 4500, Note_on_c, 1, 59, 88
5, 4558, Note_off_c, 1, 59, 0
5, 4560, Note_on_c, 1, 64, 88
5, 4618, Note_off_c, 1, 64, 0
5, 4620, Note_on_c, 1, 63, 88
5, 4678, Note_off_c, 1, 63, 0
5, 4680, Note_on_c, 1, 61, 88
5, 4738, Note_off_c, 1, 61, 0
5, 4740, Note_on_c, 1, 63, 88
5, 4798, Note_off_c, 1, 63, 0
5, 4800, Note_on_c, 1, 64, 88
5, 4858, Note_off_c, 1, 64, 0
5, 4860, Note_on_c, 1, 63, 88
5, 4918, Note_off_c, 1, 63, 0
5, 4920, Note_on_c, 1, 64, 88
5, 4978, Note_off_c, 1, 64, 0
5, 4980, Note_on_c, 1, 61, 88
5, 5038, Note_off_c, 1, 61, 0
5, 5040, Note_on_c, 1, 60, 88
5, 5571, Note_off_c, 1, 60, 0
5, 5580, Note_on_c, 1, 61, 88
5, 5935, Note_off_c, 1, 61, 0
5, 5940, Note_on_c, 1, 60, 88
5, 6115, Note_off_c, 1, 60, 0
5, 6120, Note_on_c, 1, 61, 88
5, 6655, Note_off_c, 1, 61, 0
5, 6660, Note_on_c, 1, 59, 88
5, 7013, Note_off_c, 1, 59, 0
5, 7020, Note_on_c, 1, 57, 88
5, 7078, Note_off_c, 1, 57, 0
5, 7080, Note_on_c, 1, 56, 88
5, 7138, Note_off_c, 1, 56, 0
5, 7140, Note_on_c, 1, 54, 88
5, 7198, Note_off_c, 1, 54, 0
5, 7200, Note_on_c, 1, 56, 88
5, 7553, Note_off_c, 1, 56, 0
5, 7560, Note_on_c, 1, 54, 88
5, 7913, Note_off_c, 1, 54, 0
5, 7920, Note_on_c, 1, 52, 88
5, 7978, Note_off_c, 1, 52, 0
5, 7980, Note_on_c, 1, 51, 88
5, 8038, Note_off_c, 1, 51, 0
5, 8040, Note_on_c, 1, 52, 88
5, 8098, Note_off_c, 1, 52, 0
5, 8100, Note_on_c, 1, 49, 88
5, 8158, Note_off_c, 1, 49, 0
5, 8160, Note_on_c, 1, 54, 88
5, 8218, Note_off_c, 1, 54, 0
5, 8220, Note_on_c, 1, 52, 88
5, 8278, Note_off_c, 1, 52, 0
5, 8280, Note_on_c, 1, 51, 88
5, 8338, Note_off_c, 1, 51, 0
5, 8340, Note_on_c, 1, 49, 88
5, 8398, Note_off_c, 1, 49, 0
5, 8400, Note_on_c, 1, 47, 88
5, 8458, Note_off_c, 1, 47, 0
5, 8460, Note_on_c, 1, 52, 88
5, 8815, Note_off_c, 1, 52, 0
5, 8820, Note_on_c, 1, 51, 88
5, 8995, Note_off_c, 1, 51, 0
5, 9000, Note_on_c, 1, 52, 88
5, 9175, Note_off_c, 1, 52, 0
5, 9180, Note_on_c, 1, 54, 88
5, 9355, Note_off_c, 1, 54, 0
5, 9360, Note_on_c, 1, 56, 88
5, 9535, Note_off_c, 1, 56, 0
5, 9540, Note_on_c, 1, 58, 88
5, 9715, Note_off_c, 1, 58, 0
5, 9720, Note_on_c, 1, 59, 88
5, 10138, Note_off_c, 1, 59, 0
5, 10140, Note_on_c, 1, 57, 88
5, 10198, Note_off_c, 1, 57, 0
5, 10200, Note_on_c, 1, 59, 88
5, 10258, Note_off_c, 1, 59, 0
5, 10260, Note_on_c, 1, 61, 88
5, 10318, Note_off_c, 1, 61, 0
5, 10320, Note_on_c, 1, 63, 88
5, 10378, Note_off_c, 1, 63, 0
5, 10380, Note_on_c, 1, 64, 88
5, 10438, Note_off_c, 1, 64, 0
5, 10440, Note_on_c, 1, 66, 88
5, 10498, Note_off_c, 1, 66, 0
5, 10500, Note_on_c, 1, 64, 88
5, 10558, Note_off_c, 1, 64, 0
5, 10560, Note_on_c, 1, 66, 88
5, 10618, Note_off_c, 1, 66, 0
5, 10620, Note_on_c, 1, 63, 88
5, 10678, Note_off_c, 1, 63, 0
5, 10680, Note_on_c, 1, 68, 88
5, 10738, Note_off_c, 1, 68, 0
5, 10740, Note_on_c, 1, 66, 88
5, 10798, Note_off_c, 1, 66, 0
5, 10800, Note_on_c, 1, 64, 88
5, 10975, Note_off_c, 1, 64, 0
5, 11880, Note_on_c, 1, 68, 88
5, 11938, Note_off_c, 1, 68, 0
5, 11940, Note_on_c, 1, 67, 88
5, 11998, Note_off_c, 1, 67, 0
5, 12000, Note_on_c, 1, 68, 88
5, 12058, Note_off_c, 1, 68, 0
5, 12060, Note_on_c, 1, 70, 88
5, 12118, Note_off_c, 1, 70, 0
5, 12120, Note_on_c, 1, 68, 88
5, 12178, Note_off_c, 1, 68, 0
5, 12180, Note_on_c, 1, 70, 88
5, 12238, Note_off_c, 1, 70, 0
5, 12240, Note_on_c, 1, 63, 88
5, 12298, Note_off_c, 1, 63, 0
5, 12300, Note_on_c, 1, 65, 88
5, 12358, Note_off_c, 1, 65, 0
5, 12360, Note_on_c, 1, 67, 88
5, 12418, Note_off_c, 1, 67, 0
5, 12420, Note_on_c, 1, 68, 88
5, 12478, Note_off_c, 1, 68, 0
5, 12480, Note_on_c, 1, 70, 88
5, 12538, Note_off_c, 1, 70, 0
5, 12540, Note_on_c, 1, 71, 88
5, 12598, Note_off_c, 1, 71, 0
5, 12600, Note_on_c, 1, 73, 88
5, 12658, Note_off_c, 1, 73, 0
5, 12660, Note_on_c, 1, 71, 88
5, 12718, Note_off_c, 1, 71, 0
5, 12720, Note_on_c, 1, 73, 88
5, 12778, Note_off_c, 1, 73, 0
5, 12780, Note_on_c, 1, 70, 88
5, 12838, Note_off_c, 1, 70, 0
5, 12840, Note_on_c, 1, 75, 88
5, 12898, Note_off_c, 1, 75, 0
5, 12900, Note_on_c, 1, 73, 88
5, 12958, Note_off_c, 1, 73, 0
5, 12960, Note_on_c, 1, 71, 88
5, 13018, Note_off_c, 1, 71, 0
5, 13020, Note_on_c, 1, 70, 88
5, 13078, Note_off_c, 1, 70, 0
5, 13080, Note_on_c, 1, 71, 88
5, 13138, Note_off_c, 1, 71, 0
5, 13140, Note_on_c, 1, 68, 88
5, 13198, Note_off_c, 1, 68, 0
5, 13200, Note_on_c, 1, 73, 88
5, 13258, Note_off_c, 1, 73, 0
5, 13260, Note_on_c, 1, 71, 88
5, 13318, Note_off_c, 1, 71, 0
5, 13320, Note_on_c, 1, 69, 88
5, 13378, Note_off_c, 1, 69, 0
5, 13380, Note_on_c, 1, 68, 88
5, 13438, Note_off_c, 1, 68, 0
5, 13440, Note_on_c, 1, 69, 88
5, 13498, Note_off_c, 1, 69, 0
5, 13500, Note_on_c, 1, 66, 88
5, 13558, Note_off_c, 1, 66, 0
5, 13560, Note_on_c, 1, 71, 88
5, 13618, Note_off_c, 1, 71, 0
5, 13620, Note_on_c, 1, 69, 88
5, 13678, Note_off_c, 1, 69, 0
5, 13680, Note_on_c, 1, 68, 88
5, 13738, Note_off_c, 1, 68, 0
5, 13740, Note_on_c, 1, 66, 88
5, 13798, Note_off_c, 1, 66, 0
5, 13800, Note_on_c, 1, 68, 88
5, 13858, Note_off_c, 1, 68, 0
5, 13860, Note_on_c, 1, 70, 88
5, 13918, Note_off_c, 1, 70, 0
5, 13920, Note_on_c, 1, 68, 88
5, 13978, Note_off_c, 1, 68, 0
5, 13980, Note_on_c, 1, 70, 88
5, 14038, Note_off_c, 1, 70, 0
5, 14040, Note_on_c, 1, 71, 88
5, 14575, Note_off_c, 1, 71, 0
5, 14580, Note_on_c, 1, 69, 88
5, 14933, Note_off_c, 1, 69, 0
5, 14940, Note_on_c, 1, 68, 88
5, 15295, Note_off_c, 1, 68, 0
5, 15300, Note_on_c, 1, 66, 88
5, 15653, Note_off_c, 1, 66, 0
5, 15660, Note_on_c, 1, 64, 88
5, 15835, Note_off_c, 1, 64, 0
5, 15840, Note_on_c, 1, 63, 88
5, 16015, Note_off_c, 1, 63, 0
5, 16020, Note_on_c, 1, 68, 88
5, 16195, Note_off_c, 1, 68, 0
5, 16200, Note_on_c, 1, 66, 88
5, 16375, Note_off_c, 1, 66, 0
5, 16380, Note_on_c, 1, 71, 88
5, 16676, Note_off_c, 1, 71, 0
5, 16680, Note_on_c, 1, 69, 88
5, 16855, Note_off_c, 1, 69, 0
5, 16860, Note_on_c, 1, 68, 88
5, 16918, Note_off_c, 1, 68, 0
5, 16920, Note_on_c, 1, 66, 88
5, 17095, Note_off_c, 1, 66, 0
5, 17100, Note_on_c, 1, 71, 88
5, 17396, Note_off_c, 1, 71, 0
5, 17400, Note_on_c, 1, 70, 88
5, 17458, Note_off_c, 1, 70, 0
5, 17460, Note_on_c, 1, 68, 88
5, 17576, Note_off_c, 1, 68, 0
5, 17580, Note_on_c, 1, 67, 88
5, 17638, Note_off_c, 1, 67, 0
5, 17640, Note_on_c, 1, 66, 88
5, 17756, Note_off_c, 1, 66, 0
5, 17760, Note_on_c, 1, 60, 88
5, 17818, Note_off_c, 1, 60, 0
5, 17820, Note_on_c, 1, 61, 88
5, 17936, Note_off_c, 1, 61, 0
5, 18000, Note_on_c, 1, 73, 88
5, 18058, Note_off_c, 1, 73, 0
5, 18060, Note_on_c, 1, 75, 88
5, 18118, Note_off_c, 1, 75, 0
5, 18120, Note_on_c, 1, 73, 88
5, 18178, Note_off_c, 1, 73, 0
5, 18180, Note_on_c, 1, 71, 88
5, 18238, Note_off_c, 1, 71, 0
5, 18240, Note_on_c, 1, 73, 88
5, 18298, Note_off_c, 1, 73, 0
5, 18300, Note_on_c, 1, 71, 88
5, 18358, Note_off_c, 1, 71, 0
5, 18360, Note_on_c, 1, 78, 88
5, 18418, Note_off_c, 1, 78, 0
5, 18420, Note_on_c, 1, 76, 88
5, 18478, Note_off_c, 1, 76, 0
5, 18480, Note_on_c, 1, 74, 88
5, 18538, Note_off_c, 1, 74, 0
5, 18540, Note_on_c, 1, 73, 88
5, 18598, Note_off_c, 1, 73, 0
5, 18600, Note_on_c, 1, 71, 88
5, 18658, Note_off_c, 1, 71, 0
5, 18660, Note_on_c, 1, 69, 88
5, 18718, Note_off_c, 1, 69, 0
5, 18720, Note_on_c, 1, 68, 88
5, 18778, Note_off_c, 1, 68, 0
5, 18780, Note_on_c, 1, 69, 88
5, 18838, Note_off_c, 1, 69, 0
5, 18840, Note_on_c, 1, 68, 88
5, 18898, Note_off_c, 1, 68, 0
5, 18900, Note_on_c, 1, 71, 88
5, 18958, Note_off_c, 1, 71, 0
5, 18960, Note_on_c, 1, 66, 88
5, 19018, Note_off_c, 1, 66, 0
5, 19020, Note_on_c, 1, 68, 88
5, 19078, Note_off_c, 1, 68, 0
5, 19080, Note_on_c, 1, 69, 88
5, 19138, Note_off_c, 1, 69, 0
5, 19140, Note_on_c, 1, 71, 88
5, 19198, Note_off_c, 1, 71, 0
5, 19200, Note_on_c, 1, 69, 88
5, 19258, Note_off_c, 1, 69, 0
5, 19260, Note_on_c, 1, 73, 88
5, 19318, Note_off_c, 1, 73, 0
5, 19320, Note_on_c, 1, 68, 88
5, 19378, Note_off_c, 1, 68, 0
5, 19380, Note_on_c, 1, 70, 88
5, 19438, Note_off_c, 1, 70, 0
5, 19440, Note_on_c, 1, 71, 88
5, 19734, Note_off_c, 1, 71, 0
5, 19740, Note_on_c, 1, 69, 88
5, 19798, Note_off_c, 1, 69, 0
5, 19800, Note_on_c, 1, 68, 88
5, 19916, Note_off_c, 1, 68, 0
5, 19920, Note_on_c, 1, 72, 88
5, 19978, Note_off_c, 1, 72, 0
5, 19980, Note_on_c, 1, 73, 88
5, 20155, Note_off_c, 1, 73, 0
5, 20160, Note_on_c, 1, 66, 88
5, 20394, Note_off_c, 1, 66, 0
5, 20400, Note_on_c, 1, 64, 88
5, 20458, Note_off_c, 1, 64, 0
5, 20460, Note_on_c, 1, 66, 88
5, 20518, Note_off_c, 1, 66, 0
5, 20520, Note_on_c, 1, 68, 88
5, 20754, Note_off_c, 1, 68, 0
5, 20760, Note_on_c, 1, 66, 88
5, 20818, Note_off_c, 1, 66, 0
5, 20820, Note_on_c, 1, 68, 88
5, 20878, Note_off_c, 1, 68, 0
5, 20880, Note_on_c, 1, 61, 88
5, 20938, Note_off_c, 1, 61, 0
5, 20940, Note_on_c, 1, 60, 88
5, 20998, Note_off_c, 1, 60, 0
5, 21000, Note_on_c, 1, 61, 88
5, 21058, Note_off_c, 1, 61, 0
5, 21060, Note_on_c, 1, 63, 88
5, 21118, Note_off_c, 1, 63, 0
5, 21120, Note_on_c, 1, 61, 88
5, 21178, Note_off_c, 1, 61, 0
5, 21180, Note_on_c, 1, 63, 88
5, 21238, Note_off_c, 1, 63, 0
5, 21240, Note_on_c, 1, 56, 88
5, 21298, Note_off_c, 1, 56, 0
5, 21300, Note_on_c, 1, 58, 88
5, 21358, Note_off_c, 1, 58, 0
5, 21360, Note_on_c, 1, 60, 88
5, 21418, Note_off_c, 1, 60, 0
5, 21420, Note_on_c, 1, 61, 88
5, 21478, Note_off_c, 1, 61, 0
5, 21480, Note_on_c, 1, 63, 88
5, 21538, Note_off_c, 1, 63, 0
5, 21540, Note_on_c, 1, 64, 88
5, 21598, Note_off_c, 1, 64, 0
5, 21600, Note_on_c, 1, 66, 88
5, 21658, Note_off_c, 1, 66, 0
5, 21660, Note_on_c, 1, 64, 88
5, 21718, Note_off_c, 1, 64, 0
5, 21720, Note_on_c, 1, 66, 88
5, 21778, Note_off_c, 1, 66, 0
5, 21780, Note_on_c, 1, 63, 88
5, 21838, Note_off_c, 1, 63, 0
5, 21840, Note_on_c, 1, 68, 88
5, 21898, Note_off_c, 1, 68, 0
5, 21900, Note_on_c, 1, 66, 88
5, 21958, Note_off_c, 1, 66, 0
5, 21960, Note_on_c, 1, 64, 88
5, 22018, Note_off_c, 1, 64, 0
5, 22020, Note_on_c, 1, 63, 88
5, 22078, Note_off_c, 1, 63, 0
5, 22080, Note_on_c, 1, 64, 88
5, 22138, Note_off_c, 1, 64, 0
5, 22140, Note_on_c, 1, 61, 88
5, 22198, Note_off_c, 1, 61, 0
5, 22200, Note_on_c, 1, 66, 88
5, 22258, Note_off_c, 1, 66, 0
5, 22260, Note_on_c, 1, 64, 88
5, 22318, Note_off_c, 1, 64, 0
5, 22320, Note_on_c, 1, 63, 88
5, 22378, Note_off_c, 1, 63, 0
5, 22380, Note_on_c, 1, 61, 88
5, 22438, Note_off_c, 1, 61, 0
5, 22440, Note_on_c, 1, 63, 88
5, 22498, Note_off_c, 1, 63, 0
5, 22500, Note_on_c, 1, 59, 88
5, 22558, Note_off_c, 1, 59, 0
5, 22560, Note_on_c, 1, 64, 88
5, 22618, Note_off_c, 1, 64, 0
5, 22620, Note_on_c, 1, 63, 88
5, 22678, Note_off_c, 1, 63, 0
5, 22680, Note_on_c, 1, 61, 88
5, 22738, Note_off_c, 1, 61, 0
5, 22740, Note_on_c, 1, 63, 88
5, 22798, Note_off_c, 1, 63, 0
5, 22800, Note_on_c, 1, 64, 88
5, 22858, Note_off_c, 1, 64, 0
5, 22860, Note_on_c, 1, 63, 88
5, 22918, Note_off_c, 1, 63, 0
5, 22920, Note_on_c, 1, 64, 88
5, 22978, Note_off_c, 1, 64, 0
5, 22980, Note_on_c, 1, 61, 88
5, 23038, Note_off_c, 1, 61, 0
5, 23040, Note_on_c, 1, 60, 88
5, 23215, Note_off_c, 1, 60, 0
5, 23220, Note_on_c, 1, 61, 88
5, 23395, Note_off_c, 1, 61, 0
5, 23400, Note_on_c, 1, 63, 88
5, 23575, Note_off_c, 1, 63, 0
5, 23580, Note_on_c, 1, 60, 88
5, 23755, Note_off_c, 1, 60, 0
5, 23760, Note_on_c, 1, 61, 88
5, 23818, Note_off_c, 1, 61, 0
5, 23820, Note_on_c, 1, 56, 88
5, 23878, Note_off_c, 1, 56, 0
5, 23880, Note_on_c, 1, 61, 88
5, 23996, Note_off_c, 1, 61, 0
5, 24000, Note_on_c, 1, 59, 88
5, 24058, Note_off_c, 1, 59, 0
5, 24060, Note_on_c, 1, 57, 88
5, 24118, Note_off_c, 1, 57, 0
5, 24120, Note_on_c, 1, 56, 88
5, 24178, Note_off_c, 1, 56, 0
5, 24180, Note_on_c, 1, 59, 88
5, 24238, Note_off_c, 1, 59, 0
5, 24240, Note_on_c, 1, 62, 88
5, 24356, Note_off_c, 1, 62, 0
5, 24360, Note_on_c, 1, 61, 88
5, 24418, Note_off_c, 1, 61, 0
5, 24420, Note_on_c, 1, 59, 88
5, 24478, Note_off_c, 1, 59, 0
5, 24480, Note_on_c, 1, 57, 88
5, 24538, Note_off_c, 1, 57, 0
5, 24540, Note_on_c, 1, 59, 88
5, 24598, Note_off_c, 1, 59, 0
5, 24600, Note_on_c, 1, 61, 88
5, 24716, Note_off_c, 1, 61, 0
5, 24720, Note_on_c, 1, 54, 88
5, 24778, Note_off_c, 1, 54, 0
5, 24780, Note_on_c, 1, 59, 88
5, 24896, Note_off_c, 1, 59, 0
5, 24900, Note_on_c, 1, 58, 88
5, 24958, Note_off_c, 1, 58, 0
5, 24960, Note_on_c, 1, 56, 88
5, 25018, Note_off_c, 1, 56, 0
5, 25020, Note_on_c, 1, 58, 88
5, 25195, Note_off_c, 1, 58, 0
5, 25200, Note_on_c, 1, 59, 88
5, 25375, Note_off_c, 1, 59, 0
5, 25380, Note_on_c, 1, 71, 88
5, 25555, Note_off_c, 1, 71, 0
5, 25560, Note_on_c, 1, 70, 88
5, 25735, Note_off_c, 1, 70, 0
5, 25740, Note_on_c, 1, 69, 88
5, 25915, Note_off_c, 1, 69, 0
5, 25920, Note_on_c, 1, 68, 88
5, 26095, Note_off_c, 1, 68, 0
5, 26100, Note_on_c, 1, 73, 88
5, 26334, Note_off_c, 1, 73, 0
5, 26340, Note_on_c, 1, 71, 88
5, 26398, Note_off_c, 1, 71, 0
5, 26400, Note_on_c, 1, 70, 88
5, 26458, Note_off_c, 1, 70, 0
5, 26460, Note_on_c, 1, 71, 88
5, 26518, Note_off_c, 1, 71, 0
5, 26520, Note_on_c, 1, 73, 88
5, 26578, Note_off_c, 1, 73, 0
5, 26580, Note_on_c, 1, 71, 88
5, 26638, Note_off_c, 1, 71, 0
5, 26640, Note_on_c, 1, 70, 88
5, 26698, Note_off_c, 1, 70, 0
5, 26700, Note_on_c, 1, 71, 88
5, 26758, Note_off_c, 1, 71, 0
5, 26760, Note_on_c, 1, 73, 88
5, 26818, Note_off_c, 1, 73, 0
5, 26820, Note_on_c, 1, 71, 88
5, 26878, Note_off_c, 1, 71, 0
5, 26880, Note_on_c, 1, 73, 88
5, 26938, Note_off_c, 1, 73, 0
5, 26940, Note_on_c, 1, 70, 88
5, 26998, Note_off_c, 1, 70, 0
5, 27000, Note_on_c, 1, 68, 88
5, 27353, Note_off_c, 1, 68, 0
5, 27360, Note_on_c, 1, 67, 88
5, 27535, Note_off_c, 1, 67, 0
5, 27540, Note_on_c, 1, 68, 88
5, 27893, Note_off_c, 1, 68, 0
5, 27900, Note_on_c, 1, 67, 88
5, 28075, Note_off_c, 1, 67, 0
5, 28080, Note_on_c, 1, 68, 88
5, 28611, Note_off_c, 1, 68, 0
5, 28620, Note_on_c, 1, 66, 88
5, 28975, Note_off_c, 1, 66, 0
5, 28980, Note_on_c, 1, 64, 88
5, 29038, Note_off_c, 1, 64, 0
5, 29040, Note_on_c, 1, 63, 88
5, 29098, Note_off_c, 1, 63, 0
5, 29100, Note_on_c, 1, 61, 88
5, 29158, Note_off_c, 1, 61, 0
5, 29160, Note_on_c, 1, 63, 88
5, 29513, Note_off_c, 1, 63, 0
5, 29520, Note_on_c, 1, 61, 88
5, 29873, Note_off_c, 1, 61, 0
5, 29880, Note_on_c, 1, 59, 88
5, 29938, Note_off_c, 1, 59, 0
5, 29940, Note_on_c, 1, 58, 88
5, 29998, Note_off_c, 1, 58, 0
5, 30000, Note_on_c, 1, 59, 88
5, 30058, Note_off_c, 1, 59, 0
5, 30060, Note_on_c, 1, 56, 88
5, 30118, Note_off_c, 1, 56, 0
5, 30120, Note_on_c, 1, 61, 88
5, 30178, Note_off_c, 1, 61, 0
5, 30180, Note_on_c, 1, 59, 88
5, 30238, Note_off_c, 1, 59, 0
5, 30240, Note_on_c, 1, 58, 88
5, 30298, Note_off_c, 1, 58, 0
5, 30300, Note_on_c, 1, 56, 88
5, 30358, Note_off_c, 1, 56, 0
5, 30360, Note_on_c, 1, 54, 88
5, 30418, Note_off_c, 1, 54, 0
5, 30420, Note_on_c, 1, 59, 88
5, 30773, Note_off_c, 1, 59, 0
5, 30780, Note_on_c, 1, 58, 88
5, 30955, Note_off_c, 1, 58, 0
5, 30960, Note_on_c, 1, 59, 88
5, 31135, Note_off_c, 1, 59, 0
5, 31140, Note_on_c, 1, 61, 88
5, 31315, Note_off_c, 1, 61, 0
5, 31320, Note_on_c, 1, 63, 88
5, 31495, Note_off_c, 1, 63, 0
5, 31500, Note_on_c, 1, 65, 88
5, 31675, Note_off_c, 1, 65, 0
5, 31680, Note_on_c, 1, 66, 88
5, 31738, Note_off_c, 1, 66, 0
5, 31740, Note_on_c, 1, 61, 88
5, 31798, Note_off_c, 1, 61, 0
5, 31800, Note_on_c, 1, 66, 88
5, 31916, Note_off_c, 1, 66, 0
5, 31920, Note_on_c, 1, 64, 88
5, 31978, Note_off_c, 1, 64, 0
5, 31980, Note_on_c, 1, 62, 88
5, 32038, Note_off_c, 1, 62, 0
5, 32040, Note_on_c, 1, 61, 88
5, 32098, Note_off_c, 1, 61, 0
5, 32100, Note_on_c, 1, 72, 88
5, 32158, Note_off_c, 1, 72, 0
5, 32160, Note_on_c, 1, 73, 88
5, 32218, Note_off_c, 1, 73, 0
5, 32220, Note_on_c, 1, 75, 88
5, 32278, Note_off_c, 1, 75, 0
5, 32280, Note_on_c, 1, 68, 88
5, 32338, Note_off_c, 1, 68, 0
5, 32340, Note_on_c, 1, 66, 88
5, 32398, Note_off_c, 1, 66, 0
5, 32400, Note_on_c, 1, 64, 88
5, 32516, Note_off_c, 1, 64, 0
5, 32520, Note_on_c, 1, 56, 88
5, 32578, Note_off_c, 1, 56, 0
5, 32580, Note_on_c, 1, 61, 88
5, 32814, Note_off_c, 1, 61, 0
5, 32820, Note_on_c, 1, 59, 88
5, 32878, Note_off_c, 1, 59, 0
5, 32880, Note_on_c, 1, 61, 88
5, 32938, Note_off_c, 1, 61, 0
5, 32940, Note_on_c, 1, 63, 88
5, 32998, Note_off_c, 1, 63, 0
5, 33000, Note_on_c, 1, 64, 88
5, 33058, Note_off_c, 1, 64, 0
5, 33060, Note_on_c, 1, 66, 88
5, 33118, Note_off_c, 1, 66, 0
5, 33120, Note_on_c, 1, 64, 88
5, 33178, Note_off_c, 1, 64, 0
5, 33540, Note_on_c, 1, 65, 88
5, 33598, Note_off_c, 1, 65, 0
5, 33600, Note_on_c, 1, 66, 88
5, 33658, Note_off_c, 1, 66, 0
5, 33660, Note_on_c, 1, 68, 88
5, 33718, Note_off_c, 1, 68, 0
5, 33720, Note_on_c, 1, 61, 88
5, 33778, Note_off_c, 1, 61, 0
5, 33780, Note_on_c, 1, 59, 88
5, 33838, Note_off_c, 1, 59, 0
5, 33840, Note_on_c, 1, 57, 88
5, 33956, Note_off_c, 1, 57, 0
5, 33960, Note_on_c, 1, 69, 88
5, 34018, Note_off_c, 1, 69, 0
5, 34020, Note_on_c, 1, 61, 88
5, 34078, Note_off_c, 1, 61, 0
5, 34080, Note_on_c, 1, 60, 88
5, 34196, Note_off_c, 1, 60, 0
5, 34200, Note_on_c, 1, 61, 88
5, 34735, Note_off_c, 1, 61, 0
5, 34740, Note_on_c, 1, 60, 88
5, 34915, Note_off_c, 1, 60, 0
5, 34920, Note_on_c, 1, 61, 88
5, 34978, Note_off_c, 1, 61, 0
5, 34980, Note_on_c, 1, 64, 88
5, 35038, Note_off_c, 1, 64, 0
5, 35040, Note_on_c, 1, 69, 88
5, 35156, Note_off_c, 1, 69, 0
5, 35160, Note_on_c, 1, 67, 88
5, 35218, Note_off_c, 1, 67, 0
5, 35220, Note_on_c, 1, 68, 88
5, 35338, Note_off_c, 1, 68, 0
5, 35340, Note_on_c, 1, 66, 88
5, 35398, Note_off_c, 1, 66, 0
5, 35400, Note_on_c, 1, 65, 88
5, 35458, Note_off_c, 1, 65, 0
5, 35460, Note_on_c, 1, 66, 88
5, 35694, Note_off_c, 1, 66, 0
5, 35700, Note_on_c, 1, 63, 88
5, 35758, Note_off_c, 1, 63, 0
5, 35760, Note_on_c, 1, 68, 88
5, 35876, Note_off_c, 1, 68, 0
5, 35880, Note_on_c, 1, 65, 88
5, 35938, Note_off_c, 1, 65, 0
5, 35940, Note_on_c, 1, 66, 88
5, 36058, Note_off_c, 1, 66, 0
5, 36060, Note_on_c, 1, 64, 88
5, 36118, Note_off_c, 1, 64, 0
5, 36120, Note_on_c, 1, 63, 88
5, 36178, Note_off_c, 1, 63, 0
5, 36180, Note_on_c, 1, 64, 88
5, 36533, Note_off_c, 1, 64, 0
5, 36540, Note_on_c, 1, 63, 88
5, 36715, Note_off_c, 1, 63, 0
5, 36720, Note_on_c, 1, 62, 88
5, 36895, Note_off_c, 1, 62, 0
5, 36900, Note_on_c, 1, 61, 88
5, 37075, Note_off_c, 1, 61, 0
5, 37080, Note_on_c, 1, 60, 88
5, 37255, Note_off_c, 1, 60, 0
5, 37260, Note_on_c, 1, 59, 88
5, 37435, Note_off_c, 1, 59, 0
5, 37440, Note_on_c, 1, 61, 88
5, 37498, Note_off_c, 1, 61, 0
5, 37500, Note_on_c, 1, 62, 88
5, 37558, Note_off_c, 1, 62, 0
5, 37560, Note_on_c, 1, 61, 88
5, 37618, Note_off_c, 1, 61, 0
5, 37620, Note_on_c, 1, 59, 88
5, 37678, Note_off_c, 1, 59, 0
5, 37680, Note_on_c, 1, 61, 88
5, 37738, Note_off_c, 1, 61, 0
5, 37740, Note_on_c, 1, 59, 88
5, 37798, Note_off_c, 1, 59, 0
5, 37800, Note_on_c, 1, 64, 88
5, 37858, Note_off_c, 1, 64, 0
5, 37860, Note_on_c, 1, 62, 88
5, 37918, Note_off_c, 1, 62, 0
5, 37920, Note_on_c, 1, 61, 88
5, 37978, Note_off_c, 1, 61, 0
5, 37980, Note_on_c, 1, 59, 88
5, 38038, Note_off_c, 1, 59, 0
5, 38040, Note_on_c, 1, 57, 88
5, 38098, Note_off_c, 1, 57, 0
5, 38100, Note_on_c, 1, 56, 88
5, 38158, Note_off_c, 1, 56, 0
5, 38160, Note_on_c, 1, 54, 88
5, 38218, Note_off_c, 1, 54, 0
5, 38220, Note_on_c, 1, 57, 88
5, 38278, Note_off_c, 1, 57, 0
5, 38280, Note_on_c, 1, 56, 88
5, 38338, Note_off_c, 1, 56, 0
5, 38340, Note_on_c, 1, 57, 88
5, 38398, Note_off_c, 1, 57, 0
5, 38400, Note_on_c, 1, 52, 88
5, 38458, Note_off_c, 1, 52, 0
5, 38460, Note_on_c, 1, 54, 88
5, 38518, Note_off_c, 1, 54, 0
5, 38520, Note_on_c, 1, 56, 88
5, 38578, Note_off_c, 1, 56, 0
5, 38580, Note_on_c, 1, 57, 88
5, 38638, Note_off_c, 1, 57, 0
5, 38640, Note_on_c, 1, 56, 88
5, 38698, Note_off_c, 1, 56, 0
5, 38700, Note_on_c, 1, 59, 88
5, 38758, Note_off_c, 1, 59, 0
5, 38760, Note_on_c, 1, 54, 88
5, 38818, Note_off_c, 1, 54, 0
5, 38820, Note_on_c, 1, 56, 88
5, 38878, Note_off_c, 1, 56, 0
5, 38880, Note_on_c, 1, 57, 88
5, 39055, Note_off_c, 1, 57, 0
5, 39060, Note_on_c, 1, 69, 88
5, 39294, Note_off_c, 1, 69, 0
5, 39300, Note_on_c, 1, 68, 88
5, 39358, Note_off_c, 1, 68, 0
5, 39360, Note_on_c, 1, 66, 88
5, 39418, Note_off_c, 1, 66, 0
5, 39420, Note_on_c, 1, 65, 88
5, 39478, Note_off_c, 1, 65, 0
5, 39480, Note_on_c, 1, 66, 88
5, 39538, Note_off_c, 1, 66, 0
5, 39540, Note_on_c, 1, 68, 88
5, 39598, Note_off_c, 1, 68, 0
5, 39600, Note_on_c, 1, 61, 88
5, 39775, Note_off_c, 1, 61, 0
5, 39780, Note_on_c, 1, 60, 88
5, 39955, Note_off_c, 1, 60, 0
5, 39960, Note_on_c, 1, 68, 88
5, 40018, Note_off_c, 1, 68, 0
5, 40020, Note_on_c, 1, 66, 88
5, 40078, Note_off_c, 1, 66, 0
5, 40080, Note_on_c, 1, 68, 88
5, 40138, Note_off_c, 1, 68, 0
5, 40140, Note_on_c, 1, 64, 88
5, 40198, Note_off_c, 1, 64, 0
5, 40200, Note_on_c, 1, 69, 88
5, 40258, Note_off_c, 1, 69, 0
5, 40260, Note_on_c, 1, 68, 88
5, 40318, Note_off_c, 1, 68, 0
5, 40320, Note_on_c, 1, 66, 88
5, 40378, Note_off_c, 1, 66, 0
5, 40380, Note_on_c, 1, 64, 88
5, 40438, Note_off_c, 1, 64, 0
5, 40440, Note_on_c, 1, 66, 88
5, 40498, Note_off_c, 1, 66, 0
5, 40500, Note_on_c, 1, 63, 88
5, 40558, Note_off_c, 1, 63, 0
5, 40560, Note_on_c, 1, 68, 88
5, 40618, Note_off_c, 1, 68, 0
5, 40620, Note_on_c, 1, 66, 88
5, 40678, Note_off_c, 1, 66, 0
5, 40680, Note_on_c, 1, 64, 88
5, 40738, Note_off_c, 1, 64, 0
5, 40740, Note_on_c, 1, 63, 88
5, 40798, Note_off_c, 1, 63, 0
5, 40800, Note_on_c, 1, 64, 88
5, 40858, Note_off_c, 1, 64, 0
5, 40860, Note_on_c, 1, 61, 88
5, 40918, Note_off_c, 1, 61, 0
5, 40920, Note_on_c, 1, 66, 88
5, 40978, Note_off_c, 1, 66, 0
5, 40980, Note_on_c, 1, 64, 88
5, 41038, Note_off_c, 1, 64, 0
5, 41040, Note_on_c, 1, 63, 88
5, 41098, Note_off_c, 1, 63, 0
5, 41100, Note_on_c, 1, 61, 88
5, 41158, Note_off_c, 1, 61, 0
5, 41160, Note_on_c, 1, 63, 88
5, 41218, Note_off_c, 1, 63, 0
5, 41220, Note_on_c, 1, 59, 88
5, 41278, Note_off_c, 1, 59, 0
5, 41280, Note_on_c, 1, 64, 88
5, 41338, Note_off_c, 1, 64, 0
5, 41340, Note_on_c, 1, 63, 88
5, 41398, Note_off_c, 1, 63, 0
5, 41400, Note_on_c, 1, 61, 88
5, 41634, Note_off_c, 1, 61, 0
5, 41640, Note_on_c, 1, 60, 88
5, 41698, Note_off_c, 1, 60, 0
5, 41700, Note_on_c, 1, 58, 88
5, 41758, Note_off_c, 1, 58, 0
5, 41760, Note_on_c, 1, 60, 88
5, 41935, Note_off_c, 1, 60, 0
5, 41940, Note_on_c, 1, 61, 88
5, 42115, Note_off_c, 1, 61, 0
5, 42120, Note_on_c, 1, 63, 88
5, 42295, Note_off_c, 1, 63, 0
5, 42300, Note_on_c, 1, 66, 88
5, 42475, Note_off_c, 1, 66, 0
5, 42480, Note_on_c, 1, 64, 88
5, 42538, Note_off_c, 1, 64, 0
5, 42540, Note_on_c, 1, 63, 88
5, 42598, Note_off_c, 1, 63, 0
5, 42600, Note_on_c, 1, 61, 88
5, 42658, Note_off_c, 1, 61, 0
5, 42660, Note_on_c, 1, 67, 88
5, 42835, Note_off_c, 1, 67, 0
5, 42840, Note_on_c, 1, 68, 88
5, 42956, Note_off_c, 1, 68, 0
5, 43200, Note_on_c, 1, 56, 88
5, 43258, Note_off_c, 1, 56, 0
5, 43260, Note_on_c, 1, 55, 88
5, 43318, Note_off_c, 1, 55, 0
5, 43320, Note_on_c, 1, 56, 88
5, 43378, Note_off_c, 1, 56, 0
5, 43380, Note_on_c, 1, 58, 88
5, 43438, Note_off_c, 1, 58, 0
5, 43440, Note_on_c, 1, 56, 88
5, 43498, Note_off_c, 1, 56, 0
5, 43500, Note_on_c, 1, 58, 88
5, 43558, Note_off_c, 1, 58, 0
5, 43560, Note_on_c, 1, 51, 88
5, 43618, Note_off_c, 1, 51, 0
5, 43620, Note_on_c, 1, 53, 88
5, 43678, Note_off_c, 1, 53, 0
5, 43680, Note_on_c, 1, 55, 88
5, 43738, Note_off_c, 1, 55, 0
5, 43740, Note_on_c, 1, 56, 88
5, 43798, Note_off_c, 1, 56, 0
5, 43800, Note_on_c, 1, 58, 88
5, 43858, Note_off_c, 1, 58, 0
5, 43860, Note_on_c, 1, 59, 88
5, 43918, Note_off_c, 1, 59, 0
5, 43920, Note_on_c, 1, 61, 88
5, 43978, Note_off_c, 1, 61, 0
5, 43980, Note_on_c, 1, 59, 88
5, 44038, Note_off_c, 1, 59, 0
5, 44040, Note_on_c, 1, 61, 88
5, 44098, Note_off_c, 1, 61, 0
5, 44100, Note_on_c, 1, 58, 88
5, 44158, Note_off_c, 1, 58, 0
5, 44160, Note_on_c, 1, 63, 88
5, 44218, Note_off_c, 1, 63, 0
5, 44220, Note_on_c, 1, 61, 88
5, 44278, Note_off_c, 1, 61, 0
5, 44280, Note_on_c, 1, 60, 88
5, 44455, Note_off_c, 1, 60, 0
5, 44460, Note_on_c, 1, 59, 88
5, 44698, Note_off_c, 1, 59, 0
5, 44700, Note_on_c, 1, 58, 88
5, 44758, Note_off_c, 1, 58, 0
5, 44760, Note_on_c, 1, 59, 88
5, 44818, Note_off_c, 1, 59, 0
5, 44820, Note_on_c, 1, 56, 88
5, 44878, Note_off_c, 1, 56, 0
5, 44880, Note_on_c, 1, 61, 88
5, 44938, Note_off_c, 1, 61, 0
5, 44940, Note_on_c, 1, 59, 88
5, 44998, Note_off_c, 1, 59, 0
5, 45000, Note_on_c, 1, 58, 88
5, 45175, Note_off_c, 1, 58, 0
5, 45180, Note_on_c, 1, 57, 88
5, 45535, Note_off_c, 1, 57, 0
5, 45540, Note_on_c, 1, 56, 88
5, 45598, Note_off_c, 1, 56, 0
5, 45600, Note_on_c, 1, 54, 88
5, 45658, Note_off_c, 1, 54, 0
5, 45660, Note_on_c, 1, 52, 88
5, 45718, Note_off_c, 1, 52, 0
5, 45720, Note_on_c, 1, 54, 88
5, 45778, Note_off_c, 1, 54, 0
5, 45780, Note_on_c, 1, 56, 88
5, 45838, Note_off_c, 1, 56, 0
5, 45840, Note_on_c, 1, 58, 88
5, 45898, Note_off_c, 1, 58, 0
5, 45900, Note_on_c, 1, 59, 88
5, 46138, Note_off_c, 1, 59, 0
5, 46140, Note_on_c, 1, 61, 88
5, 46198, Note_off_c, 1, 61, 0
5, 46200, Note_on_c, 1, 62, 88
5, 46258, Note_off_c, 1, 62, 0
5, 46260, Note_on_c, 1, 61, 88
5, 46318, Note_off_c, 1, 61, 0
5, 46320, Note_on_c, 1, 62, 88
5, 46378, Note_off_c, 1, 62, 0
5, 46380, Note_on_c, 1, 59, 88
5, 46438, Note_off_c, 1, 59, 0
5, 46440, Note_on_c, 1, 57, 88
5, 46556, Note_off_c, 1, 57, 0
5, 46800, Note_on_c, 1, 61, 88
5, 46858, Note_off_c, 1, 61, 0
5, 46860, Note_on_c, 1, 60, 88
5, 46918, Note_off_c, 1, 60, 0
5, 46920, Note_on_c, 1, 61, 88
5, 46978, Note_off_c, 1, 61, 0
5, 46980, Note_on_c, 1, 63, 88
5, 47038, Note_off_c, 1, 63, 0
5, 47040, Note_on_c, 1, 61, 88
5, 47098, Note_off_c, 1, 61, 0
5, 47100, Note_on_c, 1, 63, 88
5, 47158, Note_off_c, 1, 63, 0
5, 47160, Note_on_c, 1, 56, 88
5, 47218, Note_off_c, 1, 56, 0
5, 47220, Note_on_c, 1, 58, 88
5, 47278, Note_off_c, 1, 58, 0
5, 47280, Note_on_c, 1, 60, 88
5, 47338, Note_off_c, 1, 60, 0
5, 47340, Note_on_c, 1, 61, 88
5, 47398, Note_off_c, 1, 61, 0
5, 47400, Note_on_c, 1, 63, 88
5, 47458, Note_off_c, 1, 63, 0
5, 47460, Note_on_c, 1, 64, 88
5, 47518, Note_off_c, 1, 64, 0
5, 47520, Note_on_c, 1, 66, 88
5, 47578, Note_off_c, 1, 66, 0
5, 47580, Note_on_c, 1, 64, 88
5, 47638, Note_off_c, 1, 64, 0
5, 47640, Note_on_c, 1, 66, 88
5, 47698, Note_off_c, 1, 66, 0
5, 47700, Note_on_c, 1, 63, 88
5, 47758, Note_off_c, 1, 63, 0
5, 47760, Note_on_c, 1, 68, 88
5, 47818, Note_off_c, 1, 68, 0
5, 47820, Note_on_c, 1, 66, 88
5, 47878, Note_off_c, 1, 66, 0
5, 47880, Note_on_c, 1, 64, 88
5, 47938, Note_off_c, 1, 64, 0
5, 47940, Note_on_c, 1, 63, 88
5, 47998, Note_off_c, 1, 63, 0
5, 48000, Note_on_c, 1, 64, 88
5, 48058, Note_off_c, 1, 64, 0
5, 48060, Note_on_c, 1, 61, 88
5, 48118, Note_off_c, 1, 61, 0
5, 48120, Note_on_c, 1, 69, 88
5, 48178, Note_off_c, 1, 69, 0
5, 48180, Note_on_c, 1, 68, 88
5, 48238, Note_off_c, 1, 68, 0
5, 48240, Note_on_c, 1, 66, 88
5, 48593, Note_off_c, 1, 66, 0
5, 48600, Note_on_c, 1, 65, 88
5, 48775, Note_off_c, 1, 65, 0
5, 48780, Note_on_c, 1, 64, 88
5, 48955, Note_off_c, 1, 64, 0
5, 48960, Note_on_c, 1, 63, 88
5, 49135, Note_off_c, 1, 63, 0
5, 49140, Note_on_c, 1, 68, 88
5, 49315, Note_off_c, 1, 68, 0
5, 49320, Note_on_c, 1, 61, 88
5, 49495, Note_off_c, 1, 61, 0
5, 49500, Note_on_c, 1, 66, 88
5, 49855, Note_off_c, 1, 66, 0
5, 49860, Note_on_c, 1, 64, 88
5, 49976, Note_off_c, 1, 64, 0
5, 49980, Note_on_c, 1, 63, 88
5, 50038, Note_off_c, 1, 63, 0
5, 50040, Note_on_c, 1, 64, 88
5, 50098, Note_off_c, 1, 64, 0
5, 50100, Note_on_c, 1, 69, 88
5, 50158, Note_off_c, 1, 69, 0
5, 50160, Note_on_c, 1, 68, 88
5, 50218, Note_off_c, 1, 68, 0
5, 50220, Note_on_c, 1, 66, 88
5, 50278, Note_off_c, 1, 66, 0
5, 50280, Note_on_c, 1, 64, 88
5, 50338, Note_off_c, 1, 64, 0
5, 50340, Note_on_c, 1, 63, 88
5, 50398, Note_off_c, 1, 63, 0
5, 50400, Note_on_c, 1, 65, 88
5, 50575, Note_off_c, 1, 65, 0
5, 50575, End_track
6, 0, Start_track
6, 0, Title_t, "Track 3"
6, 0, Program_c, 2, 6
6, 0, Note_on_c, 2, 49, 88
6, 58, Note_off_c, 2, 49, 0
6, 60, Note_on_c, 2, 48, 88
6, 118, Note_off_c, 2, 48, 0
6, 120, Note_on_c, 2, 49, 88
6, 178, Note_off_c, 2, 49, 0
6, 180, Note_on_c, 2, 51, 88
6, 238, Note_off_c, 2, 51, 0
6, 240, Note_on_c, 2, 49, 88
6, 298, Note_off_c, 2, 49, 0
6, 300, Note_on_c, 2, 51, 88
6, 358, Note_off_c, 2, 51, 0
6, 360, Note_on_c, 2, 44, 88
6, 418, Note_off_c, 2, 44, 0
6, 420, Note_on_c, 2, 46, 88
6, 478, Note_off_c, 2, 46, 0
6, 480, Note_on_c, 2, 48, 88
6, 538, Note_off_c, 2, 48, 0
6, 540, Note_on_c, 2, 49, 88
6, 598, Note_off_c, 2, 49, 0
6, 600, Note_on_c, 2, 51, 88
6, 658, Note_off_c, 2, 51, 0
6, 660, Note_on_c, 2, 52, 88
6, 718, Note_off_c, 2, 52, 0
6, 720, Note_on_c, 2, 54, 88
6, 778, Note_off_c, 2, 54, 0
6, 780, Note_on_c, 2, 52, 88
6, 838, Note_off_c, 2, 52, 0
6, 840, Note_on_c, 2, 54, 88
6, 898, Note_off_c, 2, 54, 0
6, 900, Note_on_c, 2, 51, 88
6, 958, Note_off_c, 2, 51, 0
6, 960, Note_on_c, 2, 56, 88
6, 1018, Note_off_c, 2, 56, 0
6, 1020, Note_on_c, 2, 54, 88
6, 1078, Note_off_c, 2, 54, 0
6, 1080, Note_on_c, 2, 52, 88
6, 1138, Note_off_c, 2, 52, 0
6, 1140, Note_on_c, 2, 51, 88
6, 1198, Note_off_c, 2, 51, 0
6, 1200, Note_on_c, 2, 52, 88
6, 1258, Note_off_c, 2, 52, 0
6, 1260, Note_on_c, 2, 49, 88
6, 1615, Note_off_c, 2, 49, 0
6, 1620, Note_on_c, 2, 47, 88
6, 1795, Note_off_c, 2, 47, 0
6, 1800, Note_on_c, 2, 46, 88
6, 1975, Note_off_c, 2, 46, 0
6, 1980, Note_on_c, 2, 55, 88
6, 2155, Note_off_c, 2, 55, 0
6, 2160, Note_on_c, 2, 44, 88
6, 2335, Note_off_c, 2, 44, 0
6, 2340, Note_on_c, 2, 52, 88
6, 2693, Note_off_c, 2, 52, 0
6, 2700, Note_on_c, 2, 51, 88
6, 2875, Note_off_c, 2, 51, 0
6, 2880, Note_on_c, 2, 52, 88
6, 3055, Note_off_c, 2, 52, 0
6, 3060, Note_on_c, 2, 48, 88
6, 3235, Note_off_c, 2, 48, 0
6, 3240, Note_on_c, 2, 49, 88
6, 3415, Note_off_c, 2, 49, 0
6, 3420, Note_on_c, 2, 61, 88
6, 3775, Note_off_c, 2, 61, 0
6, 3780, Note_on_c, 2, 60, 88
6, 3955, Note_off_c, 2, 60, 0
6, 3960, Note_on_c, 2, 61, 88
6, 4135, Note_off_c, 2, 61, 0
6, 4140, Note_on_c, 2, 54, 88
6, 4315, Note_off_c, 2, 54, 0
6, 4320, Note_on_c, 2, 59, 88
6, 4495, Note_off_c, 2, 59, 0
6, 4500, Note_on_c, 2, 52, 88
6, 4675, Note_off_c, 2, 52, 0
6, 4680, Note_on_c, 2, 57, 88
6, 5033, Note_off_c, 2, 57, 0
6, 5040, Note_on_c, 2, 56, 88
6, 5452, Note_off_c, 2, 56, 0
6, 5460, Note_on_c, 2, 54, 88
6, 5518, Note_off_c, 2, 54, 0
6, 5520, Note_on_c, 2, 56, 88
6, 5578, Note_off_c, 2, 56, 0
6, 5580, Note_on_c, 2, 52, 88
6, 5638, Note_off_c, 2, 52, 0
6, 5640, Note_on_c, 2, 57, 88
6, 5698, Note_off_c, 2, 57, 0
6, 5700, Note_on_c, 2, 56, 88
6, 5758, Note_off_c, 2, 56, 0
6, 5760, Note_on_c, 2, 54, 88
6, 5818, Note_off_c, 2, 54, 0
6, 5820, Note_on_c, 2, 52, 88
6, 5878, Note_off_c, 2, 52, 0
6, 5880, Note_on_c, 2, 54, 88
6, 5938, Note_off_c, 2, 54, 0
6, 5940, Note_on_c, 2, 51, 88
6, 5998, Note_off_c, 2, 51, 0
6, 6000, Note_on_c, 2, 56, 88
6, 6058, Note_off_c, 2, 56, 0
6, 6060, Note_on_c, 2, 54, 88
6, 6118, Note_off_c, 2, 54, 0
6, 6120, Note_on_c, 2, 52, 88
6, 6178, Note_off_c, 2, 52, 0
6, 6180, Note_on_c, 2, 51, 88
6, 6238, Note_off_c, 2, 51, 0
6, 6240, Note_on_c, 2, 52, 88
6, 6298, Note_off_c, 2, 52, 0
6, 6300, Note_on_c, 2, 49, 88
6, 6358, Note_off_c, 2, 49, 0
6, 6360, Note_on_c, 2, 54, 88
6, 6418, Note_off_c, 2, 54, 0
6, 6420, Note_on_c, 2, 52, 88
6, 6478, Note_off_c, 2, 52, 0
6, 6480, Note_on_c, 2, 51, 88
6, 6655, Note_off_c, 2, 51, 0
6, 6660, Note_on_c, 2, 56, 88
6, 6835, Note_off_c, 2, 56, 0
6, 6840, Note_on_c, 2, 49, 88
6, 7258, Note_off_c, 2, 49, 0
6, 7260, Note_on_c, 2, 47, 88
6, 7318, Note_off_c, 2, 47, 0
6, 7320, Note_on_c, 2, 49, 88
6, 7378, Note_off_c, 2, 49, 0
6, 7380, Note_on_c, 2, 44, 88
6, 7438, Note_off_c, 2, 44, 0
6, 7440, Note_on_c, 2, 49, 88
6, 7498, Note_off_c, 2, 49, 0
6, 7500, Note_on_c, 2, 47, 88
6, 7558, Note_off_c, 2, 47, 0
6, 7560, Note_on_c, 2, 46, 88
6, 7618, Note_off_c, 2, 46, 0
6, 7620, Note_on_c, 2, 44, 88
6, 7678, Note_off_c, 2, 44, 0
6, 7680, Note_on_c, 2, 42, 88
6, 7738, Note_off_c, 2, 42, 0
6, 7740, Note_on_c, 2, 47, 88
6, 8095, Note_off_c, 2, 47, 0
6, 8100, Note_on_c, 2, 45, 88
6, 8453, Note_off_c, 2, 45, 0
6, 8460, Note_on_c, 2, 44, 88
6, 8518, Note_off_c, 2, 44, 0
6, 8520, Note_on_c, 2, 42, 88
6, 8578, Note_off_c, 2, 42, 0
6, 8580, Note_on_c, 2, 40, 88
6, 8638, Note_off_c, 2, 40, 0
6, 8640, Note_on_c, 2, 42, 88
6, 8815, Note_off_c, 2, 42, 0
6, 8820, Note_on_c, 2, 47, 88
6, 8995, Note_off_c, 2, 47, 0
6, 9000, Note_on_c, 2, 40, 88
6, 9175, Note_off_c, 2, 40, 0
6, 9720, Note_on_c, 2, 47, 88
6, 9778, Note_off_c, 2, 47, 0
6, 9780, Note_on_c, 2, 45, 88
6, 9838, Note_off_c, 2, 45, 0
6, 9840, Note_on_c, 2, 47, 88
6, 9898, Note_off_c, 2, 47, 0
6, 9900, Note_on_c, 2, 49, 88
6, 9958, Note_off_c, 2, 49, 0
6, 9960, Note_on_c, 2, 47, 88
6, 10018, Note_off_c, 2, 47, 0
6, 10020, Note_on_c, 2, 49, 88
6, 10078, Note_off_c, 2, 49, 0
6, 10080, Note_on_c, 2, 42, 88
6, 10255, Note_off_c, 2, 42, 0
6, 10260, Note_on_c, 2, 40, 88
6, 10435, Note_off_c, 2, 40, 0
6, 10440, Note_on_c, 2, 39, 88
6, 10615, Note_off_c, 2, 39, 0
6, 10620, Note_on_c, 2, 44, 88
6, 10795, Note_off_c, 2, 44, 0
6, 10800, Note_on_c, 2, 49, 88
6, 10858, Note_off_c, 2, 49, 0
6, 10860, Note_on_c, 2, 51, 88
6, 10918, Note_off_c, 2, 51, 0
6, 10920, Note_on_c, 2, 52, 88
6, 10978, Note_off_c, 2, 52, 0
6, 10980, Note_on_c, 2, 54, 88
6, 11214, Note_off_c, 2, 54, 0
6, 11220, Note_on_c, 2, 52, 88
6, 11278, Note_off_c, 2, 52, 0
6, 11280, Note_on_c, 2, 51, 88
6, 11338, Note_off_c, 2, 51, 0
6, 11340, Note_on_c, 2, 52, 88
6, 11398, Note_off_c, 2, 52, 0
6, 11400, Note_on_c, 2, 54, 88
6, 11458, Note_off_c, 2, 54, 0
6, 11460, Note_on_c, 2, 56, 88
6, 11518, Note_off_c, 2, 56, 0
6, 11520, Note_on_c, 2, 57, 88
6, 11578, Note_off_c, 2, 57, 0
6, 11580, Note_on_c, 2, 56, 88
6, 11638, Note_off_c, 2, 56, 0
6, 11640, Note_on_c, 2, 54, 88
6, 11698, Note_off_c, 2, 54, 0
6, 11700, Note_on_c, 2, 56, 88
6, 11758, Note_off_c, 2, 56, 0
6, 11760, Note_on_c, 2, 58, 88
6, 11818, Note_off_c, 2, 58, 0
6, 11820, Note_on_c, 2, 60, 88
6, 11878, Note_off_c, 2, 60, 0
6, 11880, Note_on_c, 2, 61, 88
6, 12415, Note_off_c, 2, 61, 0
6, 12420, Note_on_c, 2, 59, 88
6, 12595, Note_off_c, 2, 59, 0
6, 12600, Note_on_c, 2, 58, 88
6, 12775, Note_off_c, 2, 58, 0
6, 12780, Note_on_c, 2, 63, 88
6, 12955, Note_off_c, 2, 63, 0
6, 12960, Note_on_c, 2, 56, 88
6, 13135, Note_off_c, 2, 56, 0
6, 13140, Note_on_c, 2, 61, 88
6, 13315, Note_off_c, 2, 61, 0
6, 13320, Note_on_c, 2, 54, 88
6, 13495, Note_off_c, 2, 54, 0
6, 13500, Note_on_c, 2, 59, 88
6, 13675, Note_off_c, 2, 59, 0
6, 13680, Note_on_c, 2, 52, 88
6, 13738, Note_off_c, 2, 52, 0
6, 13740, Note_on_c, 2, 51, 88
6, 13798, Note_off_c, 2, 51, 0
6, 13800, Note_on_c, 2, 52, 88
6, 13858, Note_off_c, 2, 52, 0
6, 13860, Note_on_c, 2, 54, 88
6, 13918, Note_off_c, 2, 54, 0
6, 13920, Note_on_c, 2, 52, 88
6, 13978, Note_off_c, 2, 52, 0
6, 13980, Note_on_c, 2, 54, 88
6, 14038, Note_off_c, 2, 54, 0
6, 14040, Note_on_c, 2, 47, 88
6, 14098, Note_off_c, 2, 47, 0
6, 14100, Note_on_c, 2, 49, 88
6, 14158, Note_off_c, 2, 49, 0
6, 14160, Note_on_c, 2, 51, 88
6, 14218, Note_off_c, 2, 51, 0
6, 14220, Note_on_c, 2, 52, 88
6, 14278, Note_off_c, 2, 52, 0
6, 14280, Note_on_c, 2, 54, 88
6, 14338, Note_off_c, 2, 54, 0
6, 14340, Note_on_c, 2, 56, 88
6, 14398, Note_off_c, 2, 56, 0
6, 14400, Note_on_c, 2, 57, 88
6, 14458, Note_off_c, 2, 57, 0
6, 14460, Note_on_c, 2, 56, 88
6, 14518, Note_off_c, 2, 56, 0
6, 14520, Note_on_c, 2, 57, 88
6, 14578, Note_off_c, 2, 57, 0
6, 14580, Note_on_c, 2, 54, 88
6, 14638, Note_off_c, 2, 54, 0
6, 14640, Note_on_c, 2, 59, 88
6, 14698, Note_off_c, 2, 59, 0
6, 14700, Note_on_c, 2, 57, 88
6, 14758, Note_off_c, 2, 57, 0
6, 14760, Note_on_c, 2, 56, 88
6, 14818, Note_off_c, 2, 56, 0
6, 14820, Note_on_c, 2, 54, 88
6, 14878, Note_off_c, 2, 54, 0
6, 14880, Note_on_c, 2, 56, 88
6, 14938, Note_off_c, 2, 56, 0
6, 14940, Note_on_c, 2, 52, 88
6, 14998, Note_off_c, 2, 52, 0
6, 15000, Note_on_c, 2, 57, 88
6, 15058, Note_off_c, 2, 57, 0
6, 15060, Note_on_c, 2, 56, 88
6, 15118, Note_off_c, 2, 56, 0
6, 15120, Note_on_c, 2, 54, 88
6, 15178, Note_off_c, 2, 54, 0
6, 15180, Note_on_c, 2, 52, 88
6, 15238, Note_off_c, 2, 52, 0
6, 15240, Note_on_c, 2, 54, 88
6, 15298, Note_off_c, 2, 54, 0
6, 15300, Note_on_c, 2, 51, 88
6, 15358, Note_off_c, 2, 51, 0
6, 15360, Note_on_c, 2, 56, 88
6, 15418, Note_off_c, 2, 56, 0
6, 15420, Note_on_c, 2, 54, 88
6, 15478, Note_off_c, 2, 54, 0
6, 15480, Note_on_c, 2, 52, 88
6, 15538, Note_off_c, 2, 52, 0
6, 15540, Note_on_c, 2, 51, 88
6, 15598, Note_off_c, 2, 51, 0
6, 15600, Note_on_c, 2, 52, 88
6, 15658, Note_off_c, 2, 52, 0
6, 15660, Note_on_c, 2, 49, 88
6, 15776, Note_off_c, 2, 49, 0
6, 15840, Note_on_c, 2, 56, 88
6, 15898, Note_off_c, 2, 56, 0
6, 15900, Note_on_c, 2, 54, 88
6, 15958, Note_off_c, 2, 54, 0
6, 15960, Note_on_c, 2, 56, 88
6, 16018, Note_off_c, 2, 56, 0
6, 16020, Note_on_c, 2, 52, 88
6, 16136, Note_off_c, 2, 52, 0
6, 16200, Note_on_c, 2, 59, 88
6, 16258, Note_off_c, 2, 59, 0
6, 16260, Note_on_c, 2, 58, 88
6, 16318, Note_off_c, 2, 58, 0
6, 16320, Note_on_c, 2, 59, 88
6, 16378, Note_off_c, 2, 59, 0
6, 16380, Note_on_c, 2, 56, 88
6, 16496, Note_off_c, 2, 56, 0
6, 16560, Note_on_c, 2, 63, 88
6, 16735, Note_off_c, 2, 63, 0
6, 16740, Note_on_c, 2, 64, 88
6, 17093, Note_off_c, 2, 64, 0
6, 17100, Note_on_c, 2, 63, 88
6, 17158, Note_off_c, 2, 63, 0
6, 17160, Note_on_c, 2, 61, 88
6, 17218, Note_off_c, 2, 61, 0
6, 17220, Note_on_c, 2, 59, 88
6, 17278, Note_off_c, 2, 59, 0
6, 17280, Note_on_c, 2, 66, 88
6, 17396, Note_off_c, 2, 66, 0
6, 17400, Note_on_c, 2, 54, 88
6, 17458, Note_off_c, 2, 54, 0
6, 17460, Note_on_c, 2, 56, 88
6, 17576, Note_off_c, 2, 56, 0
6, 17580, Note_on_c, 2, 58, 88
6, 17638, Note_off_c, 2, 58, 0
6, 17640, Note_on_c, 2, 59, 88
6, 17756, Note_off_c, 2, 59, 0
6, 17760, Note_on_c, 2, 56, 88
6, 17818, Note_off_c, 2, 56, 0
6, 17820, Note_on_c, 2, 58, 88
6, 17936, Note_off_c, 2, 58, 0
6, 17940, Note_on_c, 2, 60, 88
6, 17998, Note_off_c, 2, 60, 0
6, 18000, Note_on_c, 2, 61, 88
6, 18058, Note_off_c, 2, 61, 0
6, 18060, Note_on_c, 2, 59, 88
6, 18118, Note_off_c, 2, 59, 0
6, 18120, Note_on_c, 2, 57, 88
6, 18165, Note_off_c, 2, 57, 0
6, 18180, Note_on_c, 2, 57, 88
6, 18202, Note_off_c, 2, 57, 0
6, 18203, Note_on_c, 2, 56, 88
6, 18224, Note_off_c, 2, 56, 0
6, 18225, Note_on_c, 2, 57, 88
6, 18247, Note_off_c, 2, 57, 0
6, 18248, Note_on_c, 2, 56, 88
6, 18269, Note_off_c, 2, 56, 0
6, 18270, Note_on_c, 2, 57, 88
6, 18292, Note_off_c, 2, 57, 0
6, 18293, Note_on_c, 2, 56, 88
6, 18314, Note_off_c, 2, 56, 0
6, 18315, Note_on_c, 2, 57, 88
6, 18337, Note_off_c, 2, 57, 0
6, 18338, Note_on_c, 2, 56, 88
6, 18359, Note_off_c, 2, 56, 0
6, 18360, Note_on_c, 2, 54, 88
6, 18535, Note_off_c, 2, 54, 0
6, 19440, Note_on_c, 2, 56, 88
6, 19498, Note_off_c, 2, 56, 0
6, 19500, Note_on_c, 2, 57, 88
6, 19558, Note_off_c, 2, 57, 0
6, 19560, Note_on_c, 2, 56, 88
6, 19618, Note_off_c, 2, 56, 0
6, 19620, Note_on_c, 2, 54, 88
6, 19678, Note_off_c, 2, 54, 0
6, 19680, Note_on_c, 2, 56, 88
6, 19738, Note_off_c, 2, 56, 0
6, 19740, Note_on_c, 2, 54, 88
6, 19798, Note_off_c, 2, 54, 0
6, 19800, Note_on_c, 2, 61, 88
6, 19858, Note_off_c, 2, 61, 0
6, 19860, Note_on_c, 2, 59, 88
6, 19918, Note_off_c, 2, 59, 0
6, 19920, Note_on_c, 2, 57, 88
6, 19978, Note_off_c, 2, 57, 0
6, 19980, Note_on_c, 2, 56, 88
6, 20038, Note_off_c, 2, 56, 0
6, 20040, Note_on_c, 2, 54, 88
6, 20098, Note_off_c, 2, 54, 0
6, 20100, Note_on_c, 2, 52, 88
6, 20158, Note_off_c, 2, 52, 0
6, 20160, Note_on_c, 2, 51, 88
6, 20218, Note_off_c, 2, 51, 0
6, 20220, Note_on_c, 2, 52, 88
6, 20278, Note_off_c, 2, 52, 0
6, 20280, Note_on_c, 2, 51, 88
6, 20338, Note_off_c, 2, 51, 0
6, 20340, Note_on_c, 2, 54, 88
6, 20398, Note_off_c, 2, 54, 0
6, 20400, Note_on_c, 2, 49, 88
6, 20458, Note_off_c, 2, 49, 0
6, 20460, Note_on_c, 2, 51, 88
6, 20518, Note_off_c, 2, 51, 0
6, 20520, Note_on_c, 2, 52, 88
6, 20578, Note_off_c, 2, 52, 0
6, 20580, Note_on_c, 2, 54, 88
6, 20638, Note_off_c, 2, 54, 0
6, 20640, Note_on_c, 2, 52, 88
6, 20698, Note_off_c, 2, 52, 0
6, 20700, Note_on_c, 2, 56, 88
6, 20758, Note_off_c, 2, 56, 0
6, 20760, Note_on_c, 2, 51, 88
6, 20818, Note_off_c, 2, 51, 0
6, 20820, Note_on_c, 2, 53, 88
6, 20878, Note_off_c, 2, 53, 0
6, 20880, Note_on_c, 2, 54, 88
6, 21411, Note_off_c, 2, 54, 0
6, 21420, Note_on_c, 2, 52, 88
6, 21595, Note_off_c, 2, 52, 0
6, 21600, Note_on_c, 2, 51, 88
6, 21775, Note_off_c, 2, 51, 0
6, 21780, Note_on_c, 2, 56, 88
6, 21955, Note_off_c, 2, 56, 0
6, 21960, Note_on_c, 2, 49, 88
6, 22135, Note_off_c, 2, 49, 0
6, 22140, Note_on_c, 2, 54, 88
6, 22315, Note_off_c, 2, 54, 0
6, 22320, Note_on_c, 2, 47, 88
6, 22495, Note_off_c, 2, 47, 0
6, 22500, Note_on_c, 2, 52, 88
6, 22675, Note_off_c, 2, 52, 0
6, 22680, Note_on_c, 2, 47, 88
6, 22709, Note_off_c, 2, 47, 0
6, 22710, Note_on_c, 2, 45, 88
6, 22739, Note_off_c, 2, 45, 0
6, 22740, Note_on_c, 2, 47, 88
6, 22769, Note_off_c, 2, 47, 0
6, 22770, Note_on_c, 2, 45, 88
6, 22799, Note_off_c, 2, 45, 0
6, 22800, Note_on_c, 2, 47, 88
6, 22829, Note_off_c, 2, 47, 0
6, 22830, Note_on_c, 2, 45, 88
6, 22852, Note_off_c, 2, 45, 0
6, 22853, Note_on_c, 2, 47, 88
6, 22874, Note_off_c, 2, 47, 0
6, 22875, Note_on_c, 2, 45, 88
6, 22897, Note_off_c, 2, 45, 0
6, 22898, Note_on_c, 2, 47, 88
6, 22919, Note_off_c, 2, 47, 0
6, 22920, Note_on_c, 2, 45, 88
6, 22942, Note_off_c, 2, 45, 0
6, 22943, Note_on_c, 2, 47, 88
6, 22964, Note_off_c, 2, 47, 0
6, 22965, Note_on_c, 2, 45, 88
6, 22987, Note_off_c, 2, 45, 0
6, 22988, Note_on_c, 2, 44, 88
6, 23009, Note_off_c, 2, 44, 0
6, 23010, Note_on_c, 2, 45, 88
6, 23039, Note_off_c, 2, 45, 0
6, 23040, Note_on_c, 2, 44, 88
6, 23215, Note_off_c, 2, 44, 0
6, 23220, Note_on_c, 2, 46, 88
6, 23395, Note_off_c, 2, 46, 0
6, 23400, Note_on_c, 2, 48, 88
6, 23575, Note_off_c, 2, 48, 0
6, 23580, Note_on_c, 2, 44, 88
6, 23755, Note_off_c, 2, 44, 0
6, 23760, Note_on_c, 2, 49, 88
6, 23935, Note_off_c, 2, 49, 0
6, 23940, Note_on_c, 2, 51, 88
6, 24115, Note_off_c, 2, 51, 0
6, 24120, Note_on_c, 2, 52, 88
6, 24295, Note_off_c, 2, 52, 0
6, 24300, Note_on_c, 2, 53, 88
6, 24475, Note_off_c, 2, 53, 0
6, 24480, Note_on_c, 2, 54, 88
6, 24655, Note_off_c, 2, 54, 0
6, 24660, Note_on_c, 2, 50, 88
6, 24835, Note_off_c, 2, 50, 0
6, 24840, Note_on_c, 2, 49, 88
6, 25015, Note_off_c, 2, 49, 0
6, 25020, Note_on_c, 2, 54, 88
6, 25078, Note_off_c, 2, 54, 0
6, 25080, Note_on_c, 2, 52, 88
6, 25138, Note_off_c, 2, 52, 0
6, 25140, Note_on_c, 2, 54, 88
6, 25198, Note_off_c, 2, 54, 0
6, 25200, Note_on_c, 2, 47, 88
6, 25258, Note_off_c, 2, 47, 0
6, 25260, Note_on_c, 2, 56, 88
6, 25318, Note_off_c, 2, 56, 0
6, 25320, Note_on_c, 2, 54, 88
6, 25378, Note_off_c, 2, 54, 0
6, 25380, Note_on_c, 2, 53, 88
6, 25438, Note_off_c, 2, 53, 0
6, 25440, Note_on_c, 2, 51, 88
6, 25498, Note_off_c, 2, 51, 0
6, 25500, Note_on_c, 2, 53, 88
6, 25558, Note_off_c, 2, 53, 0
6, 25560, Note_on_c, 2, 54, 88
6, 25618, Note_off_c, 2, 54, 0
6, 25620, Note_on_c, 2, 56, 88
6, 25678, Note_off_c, 2, 56, 0
6, 25680, Note_on_c, 2, 52, 88
6, 25738, Note_off_c, 2, 52, 0
6, 25740, Note_on_c, 2, 51, 88
6, 25798, Note_off_c, 2, 51, 0
6, 25800, Note_on_c, 2, 52, 88
6, 25858, Note_off_c, 2, 52, 0
6, 25860, Note_on_c, 2, 49, 88
6, 25918, Note_off_c, 2, 49, 0
6, 25920, Note_on_c, 2, 48, 88
6, 25978, Note_off_c, 2, 48, 0
6, 25980, Note_on_c, 2, 49, 88
6, 26038, Note_off_c, 2, 49, 0
6, 26040, Note_on_c, 2, 51, 88
6, 26098, Note_off_c, 2, 51, 0
6, 26100, Note_on_c, 2, 52, 88
6, 26158, Note_off_c, 2, 52, 0
6, 26160, Note_on_c, 2, 51, 88
6, 26218, Note_off_c, 2, 51, 0
6, 26220, Note_on_c, 2, 49, 88
6, 26278, Note_off_c, 2, 49, 0
6, 26280, Note_on_c, 2, 56, 88
6, 26396, Note_off_c, 2, 56, 0
6, 26400, Note_on_c, 2, 51, 88
6, 26458, Note_off_c, 2, 51, 0
6, 26460, Note_on_c, 2, 56, 88
6, 26635, Note_off_c, 2, 56, 0
6, 26640, Note_on_c, 2, 55, 88
6, 26815, Note_off_c, 2, 55, 0
6, 26820, Note_on_c, 2, 54, 88
6, 26995, Note_off_c, 2, 54, 0
6, 27000, Note_on_c, 2, 53, 88
6, 27175, Note_off_c, 2, 53, 0
6, 27180, Note_on_c, 2, 58, 88
6, 27355, Note_off_c, 2, 58, 0
6, 27360, Note_on_c, 2, 51, 88
6, 27594, Note_off_c, 2, 51, 0
6, 27600, Note_on_c, 2, 52, 88
6, 27658, Note_off_c, 2, 52, 0
6, 27660, Note_on_c, 2, 51, 88
6, 27718, Note_off_c, 2, 51, 0
6, 27720, Note_on_c, 2, 49, 88
6, 27778, Note_off_c, 2, 49, 0
6, 27780, Note_on_c, 2, 47, 88
6, 27838, Note_off_c, 2, 47, 0
6, 27840, Note_on_c, 2, 49, 88
6, 27898, Note_off_c, 2, 49, 0
6, 27900, Note_on_c, 2, 46, 88
6, 27958, Note_off_c, 2, 46, 0
6, 27960, Note_on_c, 2, 51, 88
6, 28018, Note_off_c, 2, 51, 0
6, 28020, Note_on_c, 2, 49, 88
6, 28078, Note_off_c, 2, 49, 0
6, 28080, Note_on_c, 2, 47, 88
6, 28138, Note_off_c, 2, 47, 0
6, 28140, Note_on_c, 2, 46, 88
6, 28198, Note_off_c, 2, 46, 0
6, 28200, Note_on_c, 2, 47, 88
6, 28258, Note_off_c, 2, 47, 0
6, 28260, Note_on_c, 2, 44, 88
6, 28318, Note_off_c, 2, 44, 0
6, 28320, Note_on_c, 2, 49, 88
6, 28378, Note_off_c, 2, 49, 0
6, 28380, Note_on_c, 2, 47, 88
6, 28438, Note_off_c, 2, 47, 0
6, 28440, Note_on_c, 2, 46, 88
6, 28615, Note_off_c, 2, 46, 0
6, 28620, Note_on_c, 2, 51, 88
6, 28795, Note_off_c, 2, 51, 0
6, 28800, Note_on_c, 2, 44, 88
6, 28975, Note_off_c, 2, 44, 0
6, 29160, Note_on_c, 2, 56, 88
6, 29218, Note_off_c, 2, 56, 0
6, 29220, Note_on_c, 2, 54, 88
6, 29278, Note_off_c, 2, 54, 0
6, 29280, Note_on_c, 2, 56, 88
6, 29338, Note_off_c, 2, 56, 0
6, 29340, Note_on_c, 2, 51, 88
6, 29398, Note_off_c, 2, 51, 0
6, 29400, Note_on_c, 2, 56, 88
6, 29458, Note_off_c, 2, 56, 0
6, 29460, Note_on_c, 2, 54, 88
6, 29518, Note_off_c, 2, 54, 0
6, 29520, Note_on_c, 2, 53, 88
6, 29578, Note_off_c, 2, 53, 0
6, 29580, Note_on_c, 2, 51, 88
6, 29638, Note_off_c, 2, 51, 0
6, 29640, Note_on_c, 2, 49, 88
6, 29698, Note_off_c, 2, 49, 0
6, 29700, Note_on_c, 2, 54, 88
6, 30053, Note_off_c, 2, 54, 0
6, 30060, Note_on_c, 2, 52, 88
6, 30415, Note_off_c, 2, 52, 0
6, 30420, Note_on_c, 2, 51, 88
6, 30478, Note_off_c, 2, 51, 0
6, 30480, Note_on_c, 2, 49, 88
6, 30538, Note_off_c, 2, 49, 0
6, 30540, Note_on_c, 2, 47, 88
6, 30598, Note_off_c, 2, 47, 0
6, 30600, Note_on_c, 2, 49, 88
6, 30775, Note_off_c, 2, 49, 0
6, 30780, Note_on_c, 2, 54, 88
6, 30955, Note_off_c, 2, 54, 0
6, 30960, Note_on_c, 2, 47, 88
6, 31135, Note_off_c, 2, 47, 0
6, 31260, Note_on_c, 2, 59, 88
6, 31318, Note_off_c, 2, 59, 0
6, 31320, Note_on_c, 2, 57, 88
6, 31495, Note_off_c, 2, 57, 0
6, 31500, Note_on_c, 2, 56, 88
6, 31675, Note_off_c, 2, 56, 0
6, 31680, Note_on_c, 2, 54, 88
6, 31855, Note_off_c, 2, 54, 0
6, 31860, Note_on_c, 2, 56, 88
6, 32035, Note_off_c, 2, 56, 0
6, 32040, Note_on_c, 2, 58, 88
6, 32215, Note_off_c, 2, 58, 0
6, 32220, Note_on_c, 2, 60, 88
6, 32395, Note_off_c, 2, 60, 0
6, 32400, Note_on_c, 2, 61, 88
6, 32516, Note_off_c, 2, 61, 0
6, 32700, Note_on_c, 2, 49, 88
6, 32758, Note_off_c, 2, 49, 0
6, 32760, Note_on_c, 2, 51, 88
6, 32876, Note_off_c, 2, 51, 0
6, 33060, Note_on_c, 2, 63, 88
6, 33118, Note_off_c, 2, 63, 0
6, 33120, Note_on_c, 2, 64, 88
6, 33178, Note_off_c, 2, 64, 0
6, 33180, Note_on_c, 2, 52, 88
6, 33238, Note_off_c, 2, 52, 0
6, 33240, Note_on_c, 2, 54, 88
6, 33298, Note_off_c, 2, 54, 0
6, 33300, Note_on_c, 2, 56, 88
6, 33358, Note_off_c, 2, 56, 0
6, 33360, Note_on_c, 2, 54, 88
6, 33418, Note_off_c, 2, 54, 0
6, 33420, Note_on_c, 2, 56, 88
6, 33478, Note_off_c, 2, 56, 0
6, 33480, Note_on_c, 2, 57, 88
6, 33538, Note_off_c, 2, 57, 0
6, 33540, Note_on_c, 2, 56, 88
6, 33598, Note_off_c, 2, 56, 0
6, 33600, Note_on_c, 2, 54, 88
6, 33658, Note_off_c, 2, 54, 0
6, 33660, Note_on_c, 2, 53, 88
6, 33718, Note_off_c, 2, 53, 0
6, 33720, Note_on_c, 2, 51, 88
6, 33778, Note_off_c, 2, 51, 0
6, 33780, Note_on_c, 2, 53, 88
6, 33838, Note_off_c, 2, 53, 0
6, 33840, Note_on_c, 2, 54, 88
6, 34193, Note_off_c, 2, 54, 0
6, 34200, Note_on_c, 2, 53, 88
6, 34375, Note_off_c, 2, 53, 0
6, 34380, Note_on_c, 2, 52, 88
6, 34555, Note_off_c, 2, 52, 0
6, 34560, Note_on_c, 2, 51, 88
6, 34735, Note_off_c, 2, 51, 0
6, 34740, Note_on_c, 2, 56, 88
6, 34915, Note_off_c, 2, 56, 0
6, 34920, Note_on_c, 2, 49, 88
6, 35095, Note_off_c, 2, 49, 0
6, 35100, Note_on_c, 2, 47, 88
6, 35275, Note_off_c, 2, 47, 0
6, 35280, Note_on_c, 2, 45, 88
6, 35455, Note_off_c, 2, 45, 0
6, 35580, Note_on_c, 2, 46, 88
6, 35638, Note_off_c, 2, 46, 0
6, 35640, Note_on_c, 2, 47, 88
6, 35815, Note_off_c, 2, 47, 0
6, 35820, Note_on_c, 2, 45, 88
6, 35995, Note_off_c, 2, 45, 0
6, 36000, Note_on_c, 2, 44, 88
6, 36175, Note_off_c, 2, 44, 0
6, 36300, Note_on_c, 2, 56, 88
6, 36358, Note_off_c, 2, 56, 0
6, 36360, Note_on_c, 2, 57, 88
6, 36418, Note_off_c, 2, 57, 0
6, 36420, Note_on_c, 2, 56, 88
6, 36478, Note_off_c, 2, 56, 0
6, 36480, Note_on_c, 2, 57, 88
6, 36538, Note_off_c, 2, 57, 0
6, 36540, Note_on_c, 2, 59, 88
6, 36598, Note_off_c, 2, 59, 0
6, 36600, Note_on_c, 2, 57, 88
6, 36658, Note_off_c, 2, 57, 0
6, 36660, Note_on_c, 2, 59, 88
6, 36718, Note_off_c, 2, 59, 0
6, 36720, Note_on_c, 2, 52, 88
6, 36895, Note_off_c, 2, 52, 0
6, 36900, Note_on_c, 2, 57, 88
6, 37075, Note_off_c, 2, 57, 0
6, 37080, Note_on_c, 2, 51, 88
6, 37255, Note_off_c, 2, 51, 0
6, 37260, Note_on_c, 2, 52, 88
6, 37435, Note_off_c, 2, 52, 0
6, 37440, Note_on_c, 2, 45, 88
6, 37498, Note_off_c, 2, 45, 0
6, 37500, Note_on_c, 2, 47, 88
6, 37558, Note_off_c, 2, 47, 0
6, 37560, Note_on_c, 2, 49, 88
6, 37618, Note_off_c, 2, 49, 0
6, 37620, Note_on_c, 2, 50, 88
6, 37678, Note_off_c, 2, 50, 0
6, 37680, Note_on_c, 2, 52, 88
6, 37738, Note_off_c, 2, 52, 0
6, 37740, Note_on_c, 2, 50, 88
6, 37798, Note_off_c, 2, 50, 0
6, 37800, Note_on_c, 2, 49, 88
6, 37858, Note_off_c, 2, 49, 0
6, 37860, Note_on_c, 2, 47, 88
6, 37918, Note_off_c, 2, 47, 0
6, 37920, Note_on_c, 2, 45, 88
6, 37978, Note_off_c, 2, 45, 0
6, 37980, Note_on_c, 2, 52, 88
6, 38335, Note_off_c, 2, 52, 0
6, 38340, Note_on_c, 2, 51, 88
6, 38515, Note_off_c, 2, 51, 0
6, 38520, Note_on_c, 2, 50, 88
6, 38695, Note_off_c, 2, 50, 0
6, 38700, Note_on_c, 2, 49, 88
6, 38938, Note_off_c, 2, 49, 0
6, 38940, Note_on_c, 2, 48, 88
6, 38998, Note_off_c, 2, 48, 0
6, 39000, Note_on_c, 2, 49, 88
6, 39058, Note_off_c, 2, 49, 0
6, 39060, Note_on_c, 2, 51, 88
6, 39118, Note_off_c, 2, 51, 0
6, 39120, Note_on_c, 2, 49, 88
6, 39178, Note_off_c, 2, 49, 0
6, 39180, Note_on_c, 2, 51, 88
6, 39238, Note_off_c, 2, 51, 0
6, 39240, Note_on_c, 2, 44, 88
6, 39298, Note_off_c, 2, 44, 0
6, 39300, Note_on_c, 2, 46, 88
6, 39358, Note_off_c, 2, 46, 0
6, 39360, Note_on_c, 2, 48, 88
6, 39418, Note_off_c, 2, 48, 0
6, 39420, Note_on_c, 2, 49, 88
6, 39478, Note_off_c, 2, 49, 0
6, 39480, Note_on_c, 2, 51, 88
6, 39538, Note_off_c, 2, 51, 0
6, 39540, Note_on_c, 2, 53, 88
6, 39598, Note_off_c, 2, 53, 0
6, 39600, Note_on_c, 2, 54, 88
6, 39658, Note_off_c, 2, 54, 0
6, 39660, Note_on_c, 2, 52, 88
6, 39718, Note_off_c, 2, 52, 0
6, 39720, Note_on_c, 2, 54, 88
6, 39778, Note_off_c, 2, 54, 0
6, 39780, Note_on_c, 2, 51, 88
6, 39838, Note_off_c, 2, 51, 0
6, 39840, Note_on_c, 2, 56, 88
6, 39898, Note_off_c, 2, 56, 0
6, 39900, Note_on_c, 2, 54, 88
6, 39958, Note_off_c, 2, 54, 0
6, 39960, Note_on_c, 2, 52, 88
6, 40018, Note_off_c, 2, 52, 0
6, 40020, Note_on_c, 2, 51, 88
6, 40078, Note_off_c, 2, 51, 0
6, 40080, Note_on_c, 2, 52, 88
6, 40138, Note_off_c, 2, 52, 0
6, 40140, Note_on_c, 2, 49, 88
6, 40198, Note_off_c, 2, 49, 0
6, 40200, Note_on_c, 2, 54, 88
6, 40258, Note_off_c, 2, 54, 0
6, 40260, Note_on_c, 2, 52, 88
6, 40318, Note_off_c, 2, 52, 0
6, 40320, Note_on_c, 2, 51, 88
6, 40495, Note_off_c, 2, 51, 0
6, 40500, Note_on_c, 2, 56, 88
6, 40675, Note_off_c, 2, 56, 0
6, 40680, Note_on_c, 2, 49, 88
6, 40855, Note_off_c, 2, 49, 0
6, 40860, Note_on_c, 2, 54, 88
6, 41035, Note_off_c, 2, 54, 0
6, 41040, Note_on_c, 2, 59, 88
6, 41215, Note_off_c, 2, 59, 0
6, 41220, Note_on_c, 2, 52, 88
6, 41395, Note_off_c, 2, 52, 0
6, 41400, Note_on_c, 2, 57, 88
6, 41575, Note_off_c, 2, 57, 0
6, 41580, Note_on_c, 2, 51, 88
6, 41755, Note_off_c, 2, 51, 0
6, 41760, Note_on_c, 2, 56, 88
6, 42950, Note_off_c, 2, 56, 0
6, 42960, Note_on_c, 2, 54, 88
6, 43018, Note_off_c, 2, 54, 0
6, 43020, Note_on_c, 2, 52, 88
6, 43136, Note_off_c, 2, 52, 0
6, 43140, Note_on_c, 2, 51, 88
6, 43198, Note_off_c, 2, 51, 0
6, 43200, Note_on_c, 2, 49, 88
6, 43553, Note_off_c, 2, 49, 0
6, 43560, Note_on_c, 2, 48, 88
6, 43735, Note_off_c, 2, 48, 0
6, 43740, Note_on_c, 2, 47, 88
6, 43915, Note_off_c, 2, 47, 0
6, 43920, Note_on_c, 2, 46, 88
6, 44095, Note_off_c, 2, 46, 0
6, 44100, Note_on_c, 2, 51, 88
6, 44275, Note_off_c, 2, 51, 0
6, 44280, Note_on_c, 2, 44, 88
6, 44396, Note_off_c, 2, 44, 0
6, 44460, Note_on_c, 2, 56, 88
6, 44518, Note_off_c, 2, 56, 0
6, 44520, Note_on_c, 2, 54, 88
6, 44578, Note_off_c, 2, 54, 0
6, 44580, Note_on_c, 2, 56, 88
6, 44638, Note_off_c, 2, 56, 0
6, 44640, Note_on_c, 2, 49, 88
6, 44756, Note_off_c, 2, 49, 0
6, 44820, Note_on_c, 2, 49, 88
6, 44878, Note_off_c, 2, 49, 0
6, 44880, Note_on_c, 2, 47, 88
6, 44938, Note_off_c, 2, 47, 0
6, 44940, Note_on_c, 2, 49, 88
6, 44998, Note_off_c, 2, 49, 0
6, 45000, Note_on_c, 2, 42, 88
6, 45116, Note_off_c, 2, 42, 0
6, 45180, Note_on_c, 2, 54, 88
6, 45238, Note_off_c, 2, 54, 0
6, 45240, Note_on_c, 2, 52, 88
6, 45298, Note_off_c, 2, 52, 0
6, 45300, Note_on_c, 2, 54, 88
6, 45358, Note_off_c, 2, 54, 0
6, 45360, Note_on_c, 2, 47, 88
6, 45950, Note_off_c, 2, 47, 0
6, 45960, Note_on_c, 2, 49, 88
6, 46018, Note_off_c, 2, 49, 0
6, 46020, Note_on_c, 2, 50, 88
6, 46078, Note_off_c, 2, 50, 0
6, 46080, Note_on_c, 2, 41, 88
6, 46255, Note_off_c, 2, 41, 0
6, 46260, Note_on_c, 2, 53, 88
6, 46435, Note_off_c, 2, 53, 0
6, 46440, Note_on_c, 2, 54, 88
6, 46556, Note_off_c, 2, 54, 0
6, 46560, Note_on_c, 2, 56, 88
6, 46618, Note_off_c, 2, 56, 0
6, 46620, Note_on_c, 2, 57, 88
6, 46916, Note_off_c, 2, 57, 0
6, 46920, Note_on_c, 2, 56, 88
6, 46978, Note_off_c, 2, 56, 0
6, 46980, Note_on_c, 2, 54, 88
6, 47155, Note_off_c, 2, 54, 0
6, 47160, Note_on_c, 2, 56, 88
6, 47932, Note_off_c, 2, 56, 0
6, 47940, Note_on_c, 2, 54, 88
6, 47998, Note_off_c, 2, 54, 0
6, 48000, Note_on_c, 2, 56, 88
6, 48058, Note_off_c, 2, 56, 0
6, 48060, Note_on_c, 2, 57, 88
6, 48118, Note_off_c, 2, 57, 0
6, 48120, Note_on_c, 2, 56, 88
6, 48178, Note_off_c, 2, 56, 0
6, 48180, Note_on_c, 2, 57, 88
6, 48238, Note_off_c, 2, 57, 0
6, 48240, Note_on_c, 2, 51, 88
6, 48298, Note_off_c, 2, 51, 0
6, 48300, Note_on_c, 2, 52, 88
6, 48358, Note_off_c, 2, 52, 0
6, 48360, Note_on_c, 2, 54, 88
6, 48418, Note_off_c, 2, 54, 0
6, 48420, Note_on_c, 2, 56, 88
6, 48478, Note_off_c, 2, 56, 0
6, 48480, Note_on_c, 2, 58, 88
6, 48538, Note_off_c, 2, 58, 0
6, 48540, Note_on_c, 2, 60, 88
6, 48598, Note_off_c, 2, 60, 0
6, 48600, Note_on_c, 2, 61, 88
6, 48658, Note_off_c, 2, 61, 0
6, 48660, Note_on_c, 2, 60, 88
6, 48718, Note_off_c, 2, 60, 0
6, 48720, Note_on_c, 2, 61, 88
6, 48778, Note_off_c, 2, 61, 0
6, 48780, Note_on_c, 2, 58, 88
6, 48838, Note_off_c, 2, 58, 0
6, 48840, Note_on_c, 2, 63, 88
6, 48898, Note_off_c, 2, 63, 0
6, 48900, Note_on_c, 2, 61, 88
6, 48958, Note_off_c, 2, 61, 0
6, 48960, Note_on_c, 2, 60, 88
6, 49018, Note_off_c, 2, 60, 0
6, 49020, Note_on_c, 2, 58, 88
6, 49078, Note_off_c, 2, 58, 0
6, 49080, Note_on_c, 2, 60, 88
6, 49138, Note_off_c, 2, 60, 0
6, 49140, Note_on_c, 2, 56, 88
6, 49198, Note_off_c, 2, 56, 0
6, 49200, Note_on_c, 2, 61, 88
6, 49258, Note_off_c, 2, 61, 0
6, 49260, Note_on_c, 2, 59, 88
6, 49318, Note_off_c, 2, 59, 0
6, 49320, Note_on_c, 2, 57, 88
6, 49378, Note_off_c, 2, 57, 0
6, 49380, Note_on_c, 2, 56, 88
6, 49438, Note_off_c, 2, 56, 0
6, 49440, Note_on_c, 2, 57, 88
6, 49498, Note_off_c, 2, 57, 0
6, 49500, Note_on_c, 2, 48, 88
6, 49558, Note_off_c, 2, 48, 0
6, 49560, Note_on_c, 2, 49, 88
6, 49618, Note_off_c, 2, 49, 0
6, 49620, Note_on_c, 2, 51, 88
6, 49678, Note_off_c, 2, 51, 0
6, 49680, Note_on_c, 2, 52, 88
6, 49738, Note_off_c, 2, 52, 0
6, 49740, Note_on_c, 2, 51, 88
6, 49798, Note_off_c, 2, 51, 0
6, 49800, Note_on_c, 2, 52, 88
6, 49858, Note_off_c, 2, 52, 0
6, 49860, Note_on_c, 2, 43, 88
6, 49918, Note_off_c, 2, 43, 0
6, 49920, Note_on_c, 2, 44, 88
6, 49978, Note_off_c, 2, 44, 0
6, 49980, Note_on_c, 2, 46, 88
6, 50038, Note_off_c, 2, 46, 0
6, 50040, Note_on_c, 2, 44, 88
6, 50393, Note_off_c, 2, 44, 0
6, 50400, Note_on_c, 2, 37, 88
6, 50575, Note_off_c, 2, 37, 0
6, 50575, End_track
0, 0, End_of_file
