0, 0, Header, 1, 7, 240
1, 0, Start_track
1, 0, Time_signature, 2, 1, 24, 8
1, 0, Tempo, 789473
1, 0, SMPTE_offset, 64, 0, 0, 0, 93
1, 0, End_track
2, 0, Start_track
2, 0, Title_t, "(C) & (P) 1993"
2, 127, End_track
3, 0, Start_track
3, 0, Title_t, "CCARH,Stanford"
3, 0, End_track
4, 0, Start_track
4, 0, Title_t, "Track 1"
4, 0, Program_c, 0, 6
4, 3960, Note_on_c, 0, 74, 88
4, 4065, Note_off_c, 0, 74, 0
4, 4080, Note_on_c, 0, 74, 88
4, 4185, Note_off_c, 0, 74, 0
4, 4200, Note_on_c, 0, 74, 88
4, 4316, Note_off_c, 0, 74, 0
4, 4320, Note_on_c, 0, 67, 88
4, 4554, Note_off_c, 0, 67, 0
4, 4560, Note_on_c, 0, 71, 88
4, 4916, Note_off_c, 0, 71, 0
4, 4920, Note_on_c, 0, 64, 88
4, 5036, Note_off_c, 0, 64, 0
4, 5040, Note_on_c, 0, 69, 88
4, 5156, Note_off_c, 0, 69, 0
4, 5160, Note_on_c, 0, 67, 88
4, 5276, Note_off_c, 0, 67, 0
4, 5280, Note_on_c, 0, 66, 88
4, 5750, Note_off_c, 0, 66, 0
4, 5760, Note_on_c, 0, 68, 88
4, 6230, Note_off_c, 0, 68, 0
4, 6240, Note_on_c, 0, 69, 88
4, 6474, Note_off_c, 0, 69, 0
4, 6600, Note_on_c, 0, 64, 88
4, 6716, Note_off_c, 0, 64, 0
4, 6720, Note_on_c, 0, 69, 88
4, 6836, Note_off_c, 0, 69, 0
4, 6840, Note_on_c, 0, 67, 88
4, 6956, Note_off_c, 0, 67, 0
4, 6960, Note_on_c, 0, 66, 88
4, 7430, Note_off_c, 0, 66, 0
4, 7440, Note_on_c, 0, 64, 88
4, 7556, Note_off_c, 0, 64, 0
4, 7560, Note_on_c, 0, 62, 88
4, 7676, Note_off_c, 0, 62, 0
4, 7680, Note_on_c, 0, 61, 88
4, 7914, Note_off_c, 0, 61, 0
4, 7920, Note_on_c, 0, 62, 88
4, 8273, Note_off_c, 0, 62, 0
4, 8280, Note_on_c, 0, 71, 88
4, 8338, Note_off_c, 0, 71, 0
4, 8340, Note_on_c, 0, 69, 88
4, 8398, Note_off_c, 0, 69, 0
4, 8400, Note_on_c, 0, 71, 88
4, 8516, Note_off_c, 0, 71, 0
4, 8520, Note_on_c, 0, 62, 88
4, 8636, Note_off_c, 0, 62, 0
4, 8640, Note_on_c, 0, 61, 88
4, 8874, Note_off_c, 0, 61, 0
4, 9240, Note_on_c, 0, 64, 88
4, 9356, Note_off_c, 0, 64, 0
4, 9360, Note_on_c, 0, 69, 88
4, 9476, Note_off_c, 0, 69, 0
4, 9480, Note_on_c, 0, 67, 88
4, 9596, Note_off_c, 0, 67, 0
4, 9600, Note_on_c, 0, 66, 88
4, 10070, Note_off_c, 0, 66, 0
4, 10200, Note_on_c, 0, 71, 88
4, 10305, Note_off_c, 0, 71, 0
4, 10320, Note_on_c, 0, 71, 88
4, 10425, Note_off_c, 0, 71, 0
4, 10440, Note_on_c, 0, 71, 88
4, 10556, Note_off_c, 0, 71, 0
4, 10560, Note_on_c, 0, 64, 88
4, 10794, Note_off_c, 0, 64, 0
4, 10800, Note_on_c, 0, 67, 88
4, 11153, Note_off_c, 0, 67, 0
4, 11160, Note_on_c, 0, 61, 88
4, 11276, Note_off_c, 0, 61, 0
4, 11280, Note_on_c, 0, 66, 88
4, 11396, Note_off_c, 0, 66, 0
4, 11400, Note_on_c, 0, 64, 88
4, 11516, Note_off_c, 0, 64, 0
4, 11520, Note_on_c, 0, 62, 88
4, 11636, Note_off_c, 0, 62, 0
4, 11640, Note_on_c, 0, 66, 88
4, 11756, Note_off_c, 0, 66, 0
4, 11760, Note_on_c, 0, 71, 88
4, 11876, Note_off_c, 0, 71, 0
4, 11880, Note_on_c, 0, 69, 88
4, 11996, Note_off_c, 0, 69, 0
4, 12000, Note_on_c, 0, 68, 88
4, 12116, Note_off_c, 0, 68, 0
4, 12120, Note_on_c, 0, 71, 88
4, 12236, Note_off_c, 0, 71, 0
4, 12240, Note_on_c, 0, 76, 88
4, 12356, Note_off_c, 0, 76, 0
4, 12360, Note_on_c, 0, 74, 88
4, 12476, Note_off_c, 0, 74, 0
4, 12480, Note_on_c, 0, 73, 88
4, 12714, Note_off_c, 0, 73, 0
4, 13080, Note_on_c, 0, 74, 88
4, 13185, Note_off_c, 0, 74, 0
4, 13200, Note_on_c, 0, 74, 88
4, 13305, Note_off_c, 0, 74, 0
4, 13320, Note_on_c, 0, 74, 88
4, 13436, Note_off_c, 0, 74, 0
4, 13440, Note_on_c, 0, 67, 88
4, 13674, Note_off_c, 0, 67, 0
4, 13680, Note_on_c, 0, 71, 88
4, 14033, Note_off_c, 0, 71, 0
4, 14040, Note_on_c, 0, 64, 88
4, 14156, Note_off_c, 0, 64, 0
4, 14160, Note_on_c, 0, 69, 88
4, 14276, Note_off_c, 0, 69, 0
4, 14280, Note_on_c, 0, 67, 88
4, 14396, Note_off_c, 0, 67, 0
4, 14400, Note_on_c, 0, 66, 88
4, 14634, Note_off_c, 0, 66, 0
4, 14760, Note_on_c, 0, 69, 88
4, 14876, Note_off_c, 0, 69, 0
4, 14880, Note_on_c, 0, 74, 88
4, 14996, Note_off_c, 0, 74, 0
4, 15000, Note_on_c, 0, 72, 88
4, 15116, Note_off_c, 0, 72, 0
4, 15120, Note_on_c, 0, 71, 88
4, 15236, Note_off_c, 0, 71, 0
4, 15240, Note_on_c, 0, 74, 88
4, 15356, Note_off_c, 0, 74, 0
4, 15360, Note_on_c, 0, 79, 88
4, 15594, Note_off_c, 0, 79, 0
4, 15600, Note_on_c, 0, 78, 88
4, 15716, Note_off_c, 0, 78, 0
4, 15720, Note_on_c, 0, 76, 88
4, 15836, Note_off_c, 0, 76, 0
4, 15840, Note_on_c, 0, 81, 88
4, 15956, Note_off_c, 0, 81, 0
4, 15960, Note_on_c, 0, 79, 88
4, 16076, Note_off_c, 0, 79, 0
4, 16080, Note_on_c, 0, 78, 88
4, 16196, Note_off_c, 0, 78, 0
4, 16200, Note_on_c, 0, 76, 88
4, 16316, Note_off_c, 0, 76, 0
4, 16320, Note_on_c, 0, 74, 88
4, 16554, Note_off_c, 0, 74, 0
4, 16560, Note_on_c, 0, 73, 88
4, 16676, Note_off_c, 0, 73, 0
4, 16680, Note_on_c, 0, 71, 88
4, 16796, Note_off_c, 0, 71, 0
4, 16800, Note_on_c, 0, 76, 88
4, 16916, Note_off_c, 0, 76, 0
4, 16920, Note_on_c, 0, 74, 88
4, 17036, Note_off_c, 0, 74, 0
4, 17040, Note_on_c, 0, 73, 88
4, 17156, Note_off_c, 0, 73, 0
4, 17160, Note_on_c, 0, 71, 88
4, 17276, Note_off_c, 0, 71, 0
4, 17280, Note_on_c, 0, 69, 88
4, 17396, Note_off_c, 0, 69, 0
4, 17400, Note_on_c, 0, 73, 88
4, 17516, Note_off_c, 0, 73, 0
4, 17520, Note_on_c, 0, 71, 88
4, 17636, Note_off_c, 0, 71, 0
4, 17640, Note_on_c, 0, 69, 88
4, 17756, Note_off_c, 0, 69, 0
4, 17760, Note_on_c, 0, 68, 88
4, 17876, Note_off_c, 0, 68, 0
4, 17880, Note_on_c, 0, 64, 88
4, 17996, Note_off_c, 0, 64, 0
4, 18000, Note_on_c, 0, 69, 88
4, 18593, Note_off_c, 0, 69, 0
4, 18600, Note_on_c, 0, 68, 88
4, 18716, Note_off_c, 0, 68, 0
4, 18720, Note_on_c, 0, 69, 88
4, 19316, Note_off_c, 0, 69, 0
4, 19320, Note_on_c, 0, 66, 88
4, 19436, Note_off_c, 0, 66, 0
4, 19440, Note_on_c, 0, 71, 88
4, 19556, Note_off_c, 0, 71, 0
4, 19560, Note_on_c, 0, 69, 88
4, 19676, Note_off_c, 0, 69, 0
4, 19680, Note_on_c, 0, 67, 88
4, 19914, Note_off_c, 0, 67, 0
4, 20280, Note_on_c, 0, 78, 88
4, 20385, Note_off_c, 0, 78, 0
4, 20400, Note_on_c, 0, 78, 88
4, 20505, Note_off_c, 0, 78, 0
4, 20520, Note_on_c, 0, 78, 88
4, 20636, Note_off_c, 0, 78, 0
4, 20640, Note_on_c, 0, 71, 88
4, 20874, Note_off_c, 0, 71, 0
4, 20880, Note_on_c, 0, 74, 88
4, 21236, Note_off_c, 0, 74, 0
4, 21240, Note_on_c, 0, 68, 88
4, 21356, Note_off_c, 0, 68, 0
4, 21360, Note_on_c, 0, 73, 88
4, 21476, Note_off_c, 0, 73, 0
4, 21480, Note_on_c, 0, 71, 88
4, 21596, Note_off_c, 0, 71, 0
4, 21600, Note_on_c, 0, 70, 88
4, 21834, Note_off_c, 0, 70, 0
4, 21840, Note_on_c, 0, 71, 88
4, 21956, Note_off_c, 0, 71, 0
4, 21960, Note_on_c, 0, 73, 88
4, 22076, Note_off_c, 0, 73, 0
4, 22080, Note_on_c, 0, 74, 88
4, 22788, Note_off_c, 0, 74, 0
4, 22800, Note_on_c, 0, 73, 88
4, 23630, Note_off_c, 0, 73, 0
4, 23640, Note_on_c, 0, 71, 88
4, 23698, Note_off_c, 0, 71, 0
4, 23700, Note_on_c, 0, 69, 88
4, 23758, Note_off_c, 0, 69, 0
4, 23760, Note_on_c, 0, 68, 88
4, 23876, Note_off_c, 0, 68, 0
4, 23880, Note_on_c, 0, 66, 88
4, 23996, Note_off_c, 0, 66, 0
4, 24000, Note_on_c, 0, 65, 88
4, 24590, Note_off_c, 0, 65, 0
4, 24600, Note_on_c, 0, 61, 88
4, 24716, Note_off_c, 0, 61, 0
4, 24720, Note_on_c, 0, 66, 88
4, 25185, Note_off_c, 0, 66, 0
4, 25200, Note_on_c, 0, 66, 88
4, 25222, Note_off_c, 0, 66, 0
4, 25223, Note_on_c, 0, 65, 88
4, 25252, Note_off_c, 0, 65, 0
4, 25253, Note_on_c, 0, 66, 88
4, 25274, Note_off_c, 0, 66, 0
4, 25275, Note_on_c, 0, 65, 88
4, 25297, Note_off_c, 0, 65, 0
4, 25298, Note_on_c, 0, 66, 88
4, 25319, Note_off_c, 0, 66, 0
4, 25320, Note_on_c, 0, 65, 88
4, 25436, Note_off_c, 0, 65, 0
4, 25440, Note_on_c, 0, 66, 88
4, 25674, Note_off_c, 0, 66, 0
4, 25800, Note_on_c, 0, 81, 88
4, 25916, Note_off_c, 0, 81, 0
4, 25920, Note_on_c, 0, 81, 88
4, 26025, Note_off_c, 0, 81, 0
4, 26040, Note_on_c, 0, 81, 88
4, 26156, Note_off_c, 0, 81, 0
4, 26160, Note_on_c, 0, 74, 88
4, 26394, Note_off_c, 0, 74, 0
4, 26400, Note_on_c, 0, 78, 88
4, 26753, Note_off_c, 0, 78, 0
4, 26760, Note_on_c, 0, 71, 88
4, 26876, Note_off_c, 0, 71, 0
4, 26880, Note_on_c, 0, 76, 88
4, 26996, Note_off_c, 0, 76, 0
4, 27000, Note_on_c, 0, 74, 88
4, 27116, Note_off_c, 0, 74, 0
4, 27120, Note_on_c, 0, 73, 88
4, 27354, Note_off_c, 0, 73, 0
4, 27480, Note_on_c, 0, 69, 88
4, 27596, Note_off_c, 0, 69, 0
4, 27600, Note_on_c, 0, 74, 88
4, 27716, Note_off_c, 0, 74, 0
4, 27720, Note_on_c, 0, 72, 88
4, 27836, Note_off_c, 0, 72, 0
4, 27840, Note_on_c, 0, 71, 88
4, 28074, Note_off_c, 0, 71, 0
4, 28200, Note_on_c, 0, 71, 88
4, 28316, Note_off_c, 0, 71, 0
4, 28320, Note_on_c, 0, 76, 88
4, 28436, Note_off_c, 0, 76, 0
4, 28440, Note_on_c, 0, 74, 88
4, 28556, Note_off_c, 0, 74, 0
4, 28560, Note_on_c, 0, 72, 88
4, 29270, Note_off_c, 0, 72, 0
4, 29280, Note_on_c, 0, 71, 88
4, 29876, Note_off_c, 0, 71, 0
4, 29880, Note_on_c, 0, 69, 88
4, 30114, Note_off_c, 0, 69, 0
4, 30120, Note_on_c, 0, 67, 88
4, 30354, Note_off_c, 0, 67, 0
4, 30360, Note_on_c, 0, 66, 88
4, 30418, Note_off_c, 0, 66, 0
4, 30420, Note_on_c, 0, 64, 88
4, 30478, Note_off_c, 0, 64, 0
4, 30480, Note_on_c, 0, 67, 88
4, 30502, Note_off_c, 0, 67, 0
4, 30503, Note_on_c, 0, 66, 88
4, 30532, Note_off_c, 0, 66, 0
4, 30533, Note_on_c, 0, 67, 88
4, 30554, Note_off_c, 0, 67, 0
4, 30555, Note_on_c, 0, 66, 88
4, 30577, Note_off_c, 0, 66, 0
4, 30578, Note_on_c, 0, 67, 88
4, 30599, Note_off_c, 0, 67, 0
4, 30600, Note_on_c, 0, 66, 88
4, 30716, Note_off_c, 0, 66, 0
4, 30720, Note_on_c, 0, 67, 88
4, 30836, Note_off_c, 0, 67, 0
4, 31320, Note_on_c, 0, 79, 88
4, 31425, Note_off_c, 0, 79, 0
4, 31440, Note_on_c, 0, 79, 88
4, 31545, Note_off_c, 0, 79, 0
4, 31560, Note_on_c, 0, 79, 88
4, 31676, Note_off_c, 0, 79, 0
4, 31680, Note_on_c, 0, 73, 88
4, 31914, Note_off_c, 0, 73, 0
4, 31920, Note_on_c, 0, 76, 88
4, 32273, Note_off_c, 0, 76, 0
4, 32280, Note_on_c, 0, 69, 88
4, 32396, Note_off_c, 0, 69, 0
4, 32400, Note_on_c, 0, 74, 88
4, 32516, Note_off_c, 0, 74, 0
4, 32520, Note_on_c, 0, 72, 88
4, 32636, Note_off_c, 0, 72, 0
4, 32640, Note_on_c, 0, 71, 88
4, 33230, Note_off_c, 0, 71, 0
4, 33240, Note_on_c, 0, 64, 88
4, 33356, Note_off_c, 0, 64, 0
4, 33360, Note_on_c, 0, 69, 88
4, 33476, Note_off_c, 0, 69, 0
4, 33480, Note_on_c, 0, 67, 88
4, 33596, Note_off_c, 0, 67, 0
4, 33600, Note_on_c, 0, 66, 88
4, 33834, Note_off_c, 0, 66, 0
4, 33840, Note_on_c, 0, 73, 88
4, 34193, Note_off_c, 0, 73, 0
4, 34200, Note_on_c, 0, 66, 88
4, 34316, Note_off_c, 0, 66, 0
4, 34320, Note_on_c, 0, 71, 88
4, 34436, Note_off_c, 0, 71, 0
4, 34440, Note_on_c, 0, 69, 88
4, 34556, Note_off_c, 0, 69, 0
4, 34560, Note_on_c, 0, 67, 88
4, 35387, Note_off_c, 0, 67, 0
4, 35400, Note_on_c, 0, 64, 88
4, 35516, Note_off_c, 0, 64, 0
4, 35520, Note_on_c, 0, 69, 88
4, 35636, Note_off_c, 0, 69, 0
4, 35640, Note_on_c, 0, 67, 88
4, 35756, Note_off_c, 0, 67, 0
4, 35760, Note_on_c, 0, 66, 88
4, 35876, Note_off_c, 0, 66, 0
4, 35880, Note_on_c, 0, 69, 88
4, 35996, Note_off_c, 0, 69, 0
4, 36000, Note_on_c, 0, 74, 88
4, 36116, Note_off_c, 0, 74, 0
4, 36120, Note_on_c, 0, 73, 88
4, 36236, Note_off_c, 0, 73, 0
4, 36240, Note_on_c, 0, 71, 88
4, 36356, Note_off_c, 0, 71, 0
4, 36360, Note_on_c, 0, 74, 88
4, 36476, Note_off_c, 0, 74, 0
4, 36480, Note_on_c, 0, 79, 88
4, 37070, Note_off_c, 0, 79, 0
4, 37080, Note_on_c, 0, 76, 88
4, 37196, Note_off_c, 0, 76, 0
4, 37200, Note_on_c, 0, 81, 88
4, 37316, Note_off_c, 0, 81, 0
4, 37320, Note_on_c, 0, 79, 88
4, 37436, Note_off_c, 0, 79, 0
4, 37440, Note_on_c, 0, 78, 88
4, 37556, Note_off_c, 0, 78, 0
4, 37560, Note_on_c, 0, 79, 88
4, 37676, Note_off_c, 0, 79, 0
4, 37680, Note_on_c, 0, 81, 88
4, 38033, Note_off_c, 0, 81, 0
4, 38040, Note_on_c, 0, 74, 88
4, 38156, Note_off_c, 0, 74, 0
4, 38160, Note_on_c, 0, 79, 88
4, 38276, Note_off_c, 0, 79, 0
4, 38280, Note_on_c, 0, 78, 88
4, 38396, Note_off_c, 0, 78, 0
4, 38400, Note_on_c, 0, 76, 88
4, 39108, Note_off_c, 0, 76, 0
4, 39120, Note_on_c, 0, 74, 88
4, 39236, Note_off_c, 0, 74, 0
4, 39240, Note_on_c, 0, 72, 88
4, 39356, Note_off_c, 0, 72, 0
4, 39360, Note_on_c, 0, 71, 88
4, 39950, Note_off_c, 0, 71, 0
4, 39960, Note_on_c, 0, 64, 88
4, 40076, Note_off_c, 0, 64, 0
4, 40080, Note_on_c, 0, 69, 88
4, 40196, Note_off_c, 0, 69, 0
4, 40200, Note_on_c, 0, 67, 88
4, 40316, Note_off_c, 0, 67, 0
4, 40320, Note_on_c, 0, 66, 88
4, 40554, Note_off_c, 0, 66, 0
4, 40560, Note_on_c, 0, 64, 88
4, 40794, Note_off_c, 0, 64, 0
4, 40800, Note_on_c, 0, 66, 88
4, 40916, Note_off_c, 0, 66, 0
4, 40920, Note_on_c, 0, 68, 88
4, 41036, Note_off_c, 0, 68, 0
4, 41040, Note_on_c, 0, 69, 88
4, 41505, Note_off_c, 0, 69, 0
4, 41520, Note_on_c, 0, 69, 88
4, 41542, Note_off_c, 0, 69, 0
4, 41543, Note_on_c, 0, 68, 88
4, 41572, Note_off_c, 0, 68, 0
4, 41573, Note_on_c, 0, 69, 88
4, 41594, Note_off_c, 0, 69, 0
4, 41595, Note_on_c, 0, 68, 88
4, 41617, Note_off_c, 0, 68, 0
4, 41618, Note_on_c, 0, 69, 88
4, 41639, Note_off_c, 0, 69, 0
4, 41640, Note_on_c, 0, 68, 88
4, 41756, Note_off_c, 0, 68, 0
4, 41760, Note_on_c, 0, 69, 88
4, 41876, Note_off_c, 0, 69, 0
4, 41880, Note_on_c, 0, 81, 88
4, 41985, Note_off_c, 0, 81, 0
4, 42000, Note_on_c, 0, 81, 88
4, 42105, Note_off_c, 0, 81, 0
4, 42120, Note_on_c, 0, 81, 88
4, 42236, Note_off_c, 0, 81, 0
4, 42240, Note_on_c, 0, 74, 88
4, 42474, Note_off_c, 0, 74, 0
4, 42480, Note_on_c, 0, 78, 88
4, 42833, Note_off_c, 0, 78, 0
4, 42840, Note_on_c, 0, 71, 88
4, 42956, Note_off_c, 0, 71, 0
4, 42960, Note_on_c, 0, 76, 88
4, 43076, Note_off_c, 0, 76, 0
4, 43080, Note_on_c, 0, 74, 88
4, 43196, Note_off_c, 0, 74, 0
4, 43200, Note_on_c, 0, 73, 88
4, 43670, Note_off_c, 0, 73, 0
4, 43680, Note_on_c, 0, 72, 88
4, 44276, Note_off_c, 0, 72, 0
4, 44280, Note_on_c, 0, 69, 88
4, 44396, Note_off_c, 0, 69, 0
4, 44400, Note_on_c, 0, 74, 88
4, 44516, Note_off_c, 0, 74, 0
4, 44520, Note_on_c, 0, 72, 88
4, 44636, Note_off_c, 0, 72, 0
4, 44640, Note_on_c, 0, 71, 88
4, 45354, Note_off_c, 0, 71, 0
4, 45360, Note_on_c, 0, 69, 88
4, 46314, Note_off_c, 0, 69, 0
4, 46320, Note_on_c, 0, 67, 88
4, 46673, Note_off_c, 0, 67, 0
4, 46680, Note_on_c, 0, 64, 88
4, 46796, Note_off_c, 0, 64, 0
4, 46800, Note_on_c, 0, 69, 88
4, 46916, Note_off_c, 0, 69, 0
4, 46920, Note_on_c, 0, 67, 88
4, 47036, Note_off_c, 0, 67, 0
4, 47040, Note_on_c, 0, 66, 88
4, 47265, Note_off_c, 0, 66, 0
4, 47280, Note_on_c, 0, 66, 88
4, 47302, Note_off_c, 0, 66, 0
4, 47303, Note_on_c, 0, 64, 88
4, 47332, Note_off_c, 0, 64, 0
4, 47333, Note_on_c, 0, 66, 88
4, 47354, Note_off_c, 0, 66, 0
4, 47355, Note_on_c, 0, 64, 88
4, 47377, Note_off_c, 0, 64, 0
4, 47378, Note_on_c, 0, 66, 88
4, 47399, Note_off_c, 0, 66, 0
4, 47400, Note_on_c, 0, 64, 88
4, 47516, Note_off_c, 0, 64, 0
4, 47520, Note_on_c, 0, 62, 88
4, 47990, Note_off_c, 0, 62, 0
4, 47990, End_track
5, 0, Start_track
5, 0, Title_t, "Track 2"
5, 0, Program_c, 1, 6
5, 1560, Note_on_c, 1, 69, 88
5, 1665, Note_off_c, 1, 69, 0
5, 1680, Note_on_c, 1, 69, 88
5, 1785, Note_off_c, 1, 69, 0
5, 1800, Note_on_c, 1, 69, 88
5, 1916, Note_off_c, 1, 69, 0
5, 1920, Note_on_c, 1, 62, 88
5, 2154, Note_off_c, 1, 62, 0
5, 2160, Note_on_c, 1, 66, 88
5, 2513, Note_off_c, 1, 66, 0
5, 2520, Note_on_c, 1, 59, 88
5, 2636, Note_off_c, 1, 59, 0
5, 2640, Note_on_c, 1, 64, 88
5, 2756, Note_off_c, 1, 64, 0
5, 2760, Note_on_c, 1, 62, 88
5, 2876, Note_off_c, 1, 62, 0
5, 2880, Note_on_c, 1, 61, 88
5, 2996, Note_off_c, 1, 61, 0
5, 3000, Note_on_c, 1, 64, 88
5, 3116, Note_off_c, 1, 64, 0
5, 3120, Note_on_c, 1, 69, 88
5, 3236, Note_off_c, 1, 69, 0
5, 3240, Note_on_c, 1, 67, 88
5, 3356, Note_off_c, 1, 67, 0
5, 3360, Note_on_c, 1, 66, 88
5, 3594, Note_off_c, 1, 66, 0
5, 3600, Note_on_c, 1, 69, 88
5, 3956, Note_off_c, 1, 69, 0
5, 3960, Note_on_c, 1, 62, 88
5, 4076, Note_off_c, 1, 62, 0
5, 4080, Note_on_c, 1, 67, 88
5, 4196, Note_off_c, 1, 67, 0
5, 4200, Note_on_c, 1, 66, 88
5, 4316, Note_off_c, 1, 66, 0
5, 4320, Note_on_c, 1, 64, 88
5, 4436, Note_off_c, 1, 64, 0
5, 4440, Note_on_c, 1, 66, 88
5, 4556, Note_off_c, 1, 66, 0
5, 4560, Note_on_c, 1, 67, 88
5, 5034, Note_off_c, 1, 67, 0
5, 5040, Note_on_c, 1, 66, 88
5, 5156, Note_off_c, 1, 66, 0
5, 5160, Note_on_c, 1, 64, 88
5, 5276, Note_off_c, 1, 64, 0
5, 5280, Note_on_c, 1, 62, 88
5, 5514, Note_off_c, 1, 62, 0
5, 6120, Note_on_c, 1, 59, 88
5, 6236, Note_off_c, 1, 59, 0
5, 6240, Note_on_c, 1, 64, 88
5, 6356, Note_off_c, 1, 64, 0
5, 6360, Note_on_c, 1, 62, 88
5, 6476, Note_off_c, 1, 62, 0
5, 6480, Note_on_c, 1, 61, 88
5, 6954, Note_off_c, 1, 61, 0
5, 7080, Note_on_c, 1, 57, 88
5, 7196, Note_off_c, 1, 57, 0
5, 7200, Note_on_c, 1, 62, 88
5, 7316, Note_off_c, 1, 62, 0
5, 7320, Note_on_c, 1, 61, 88
5, 7436, Note_off_c, 1, 61, 0
5, 7440, Note_on_c, 1, 59, 88
5, 7674, Note_off_c, 1, 59, 0
5, 7680, Note_on_c, 1, 57, 88
5, 7914, Note_off_c, 1, 57, 0
5, 7920, Note_on_c, 1, 56, 88
5, 8036, Note_off_c, 1, 56, 0
5, 8040, Note_on_c, 1, 54, 88
5, 8156, Note_off_c, 1, 54, 0
5, 8160, Note_on_c, 1, 52, 88
5, 8630, Note_off_c, 1, 52, 0
5, 8760, Note_on_c, 1, 64, 88
5, 8865, Note_off_c, 1, 64, 0
5, 8880, Note_on_c, 1, 64, 88
5, 8985, Note_off_c, 1, 64, 0
5, 9000, Note_on_c, 1, 64, 88
5, 9116, Note_off_c, 1, 64, 0
5, 9120, Note_on_c, 1, 57, 88
5, 9354, Note_off_c, 1, 57, 0
5, 9360, Note_on_c, 1, 60, 88
5, 9716, Note_off_c, 1, 60, 0
5, 9720, Note_on_c, 1, 54, 88
5, 9836, Note_off_c, 1, 54, 0
5, 9840, Note_on_c, 1, 59, 88
5, 9956, Note_off_c, 1, 59, 0
5, 9960, Note_on_c, 1, 57, 88
5, 10076, Note_off_c, 1, 57, 0
5, 10080, Note_on_c, 1, 55, 88
5, 10196, Note_off_c, 1, 55, 0
5, 10200, Note_on_c, 1, 59, 88
5, 10316, Note_off_c, 1, 59, 0
5, 10320, Note_on_c, 1, 64, 88
5, 10436, Note_off_c, 1, 64, 0
5, 10440, Note_on_c, 1, 62, 88
5, 10556, Note_off_c, 1, 62, 0
5, 10560, Note_on_c, 1, 61, 88
5, 10676, Note_off_c, 1, 61, 0
5, 10680, Note_on_c, 1, 59, 88
5, 10796, Note_off_c, 1, 59, 0
5, 10800, Note_on_c, 1, 58, 88
5, 10916, Note_off_c, 1, 58, 0
5, 10920, Note_on_c, 1, 59, 88
5, 11036, Note_off_c, 1, 59, 0
5, 11040, Note_on_c, 1, 61, 88
5, 11156, Note_off_c, 1, 61, 0
5, 11160, Note_on_c, 1, 64, 88
5, 11276, Note_off_c, 1, 64, 0
5, 11280, Note_on_c, 1, 62, 88
5, 11396, Note_off_c, 1, 62, 0
5, 11400, Note_on_c, 1, 61, 88
5, 11516, Note_off_c, 1, 61, 0
5, 11520, Note_on_c, 1, 59, 88
5, 11754, Note_off_c, 1, 59, 0
5, 12600, Note_on_c, 1, 69, 88
5, 12705, Note_off_c, 1, 69, 0
5, 12720, Note_on_c, 1, 69, 88
5, 12825, Note_off_c, 1, 69, 0
5, 12840, Note_on_c, 1, 69, 88
5, 12956, Note_off_c, 1, 69, 0
5, 12960, Note_on_c, 1, 62, 88
5, 13194, Note_off_c, 1, 62, 0
5, 13200, Note_on_c, 1, 66, 88
5, 13556, Note_off_c, 1, 66, 0
5, 13560, Note_on_c, 1, 59, 88
5, 13676, Note_off_c, 1, 59, 0
5, 13680, Note_on_c, 1, 64, 88
5, 13796, Note_off_c, 1, 64, 0
5, 13800, Note_on_c, 1, 62, 88
5, 13916, Note_off_c, 1, 62, 0
5, 13920, Note_on_c, 1, 61, 88
5, 14390, Note_off_c, 1, 61, 0
5, 14520, Note_on_c, 1, 57, 88
5, 14636, Note_off_c, 1, 57, 0
5, 14640, Note_on_c, 1, 62, 88
5, 14756, Note_off_c, 1, 62, 0
5, 14760, Note_on_c, 1, 60, 88
5, 14876, Note_off_c, 1, 60, 0
5, 14880, Note_on_c, 1, 59, 88
5, 14996, Note_off_c, 1, 59, 0
5, 15000, Note_on_c, 1, 62, 88
5, 15116, Note_off_c, 1, 62, 0
5, 15120, Note_on_c, 1, 67, 88
5, 15236, Note_off_c, 1, 67, 0
5, 15240, Note_on_c, 1, 66, 88
5, 15356, Note_off_c, 1, 66, 0
5, 15360, Note_on_c, 1, 64, 88
5, 15476, Note_off_c, 1, 64, 0
5, 15480, Note_on_c, 1, 62, 88
5, 15596, Note_off_c, 1, 62, 0
5, 15600, Note_on_c, 1, 61, 88
5, 15834, Note_off_c, 1, 61, 0
5, 15840, Note_on_c, 1, 62, 88
5, 15956, Note_off_c, 1, 62, 0
5, 15960, Note_on_c, 1, 64, 88
5, 16076, Note_off_c, 1, 64, 0
5, 16080, Note_on_c, 1, 66, 88
5, 16554, Note_off_c, 1, 66, 0
5, 16560, Note_on_c, 1, 68, 88
5, 17030, Note_off_c, 1, 68, 0
5, 17040, Note_on_c, 1, 69, 88
5, 17156, Note_off_c, 1, 69, 0
5, 17160, Note_on_c, 1, 64, 88
5, 17276, Note_off_c, 1, 64, 0
5, 17280, Note_on_c, 1, 69, 88
5, 17396, Note_off_c, 1, 69, 0
5, 17400, Note_on_c, 1, 68, 88
5, 17516, Note_off_c, 1, 68, 0
5, 17520, Note_on_c, 1, 66, 88
5, 17754, Note_off_c, 1, 66, 0
5, 17760, Note_on_c, 1, 64, 88
5, 17994, Note_off_c, 1, 64, 0
5, 18000, Note_on_c, 1, 62, 88
5, 18116, Note_off_c, 1, 62, 0
5, 18120, Note_on_c, 1, 61, 88
5, 18236, Note_off_c, 1, 61, 0
5, 18240, Note_on_c, 1, 59, 88
5, 18356, Note_off_c, 1, 59, 0
5, 18360, Note_on_c, 1, 61, 88
5, 18476, Note_off_c, 1, 61, 0
5, 18480, Note_on_c, 1, 62, 88
5, 18833, Note_off_c, 1, 62, 0
5, 18840, Note_on_c, 1, 61, 88
5, 18956, Note_off_c, 1, 61, 0
5, 18960, Note_on_c, 1, 66, 88
5, 19076, Note_off_c, 1, 66, 0
5, 19080, Note_on_c, 1, 64, 88
5, 19196, Note_off_c, 1, 64, 0
5, 19200, Note_on_c, 1, 63, 88
5, 19434, Note_off_c, 1, 63, 0
5, 19800, Note_on_c, 1, 59, 88
5, 19916, Note_off_c, 1, 59, 0
5, 19920, Note_on_c, 1, 64, 88
5, 20036, Note_off_c, 1, 64, 0
5, 20040, Note_on_c, 1, 62, 88
5, 20156, Note_off_c, 1, 62, 0
5, 20160, Note_on_c, 1, 61, 88
5, 20276, Note_off_c, 1, 61, 0
5, 20760, Note_on_c, 1, 71, 88
5, 20865, Note_off_c, 1, 71, 0
5, 20880, Note_on_c, 1, 71, 88
5, 20985, Note_off_c, 1, 71, 0
5, 21000, Note_on_c, 1, 71, 88
5, 21116, Note_off_c, 1, 71, 0
5, 21120, Note_on_c, 1, 64, 88
5, 21354, Note_off_c, 1, 64, 0
5, 21360, Note_on_c, 1, 67, 88
5, 21713, Note_off_c, 1, 67, 0
5, 21720, Note_on_c, 1, 61, 88
5, 21836, Note_off_c, 1, 61, 0
5, 21840, Note_on_c, 1, 66, 88
5, 21956, Note_off_c, 1, 66, 0
5, 21960, Note_on_c, 1, 64, 88
5, 22076, Note_off_c, 1, 64, 0
5, 22080, Note_on_c, 1, 62, 88
5, 22196, Note_off_c, 1, 62, 0
5, 22200, Note_on_c, 1, 66, 88
5, 22316, Note_off_c, 1, 66, 0
5, 22320, Note_on_c, 1, 71, 88
5, 22436, Note_off_c, 1, 71, 0
5, 22440, Note_on_c, 1, 69, 88
5, 22556, Note_off_c, 1, 69, 0
5, 22560, Note_on_c, 1, 68, 88
5, 23156, Note_off_c, 1, 68, 0
5, 23160, Note_on_c, 1, 61, 88
5, 23276, Note_off_c, 1, 61, 0
5, 23280, Note_on_c, 1, 66, 88
5, 23396, Note_off_c, 1, 66, 0
5, 23400, Note_on_c, 1, 64, 88
5, 23516, Note_off_c, 1, 64, 0
5, 23520, Note_on_c, 1, 62, 88
5, 23873, Note_off_c, 1, 62, 0
5, 23880, Note_on_c, 1, 61, 88
5, 23996, Note_off_c, 1, 61, 0
5, 24000, Note_on_c, 1, 59, 88
5, 24590, Note_off_c, 1, 59, 0
5, 24600, Note_on_c, 1, 57, 88
5, 24658, Note_off_c, 1, 57, 0
5, 24660, Note_on_c, 1, 59, 88
5, 24718, Note_off_c, 1, 59, 0
5, 24720, Note_on_c, 1, 61, 88
5, 24836, Note_off_c, 1, 61, 0
5, 24840, Note_on_c, 1, 62, 88
5, 24956, Note_off_c, 1, 62, 0
5, 24960, Note_on_c, 1, 61, 88
5, 25313, Note_off_c, 1, 61, 0
5, 25320, Note_on_c, 1, 59, 88
5, 25436, Note_off_c, 1, 59, 0
5, 25440, Note_on_c, 1, 57, 88
5, 25556, Note_off_c, 1, 57, 0
5, 26040, Note_on_c, 1, 69, 88
5, 26145, Note_off_c, 1, 69, 0
5, 26160, Note_on_c, 1, 69, 88
5, 26265, Note_off_c, 1, 69, 0
5, 26280, Note_on_c, 1, 69, 88
5, 26396, Note_off_c, 1, 69, 0
5, 26400, Note_on_c, 1, 62, 88
5, 26516, Note_off_c, 1, 62, 0
5, 27000, Note_on_c, 1, 64, 88
5, 27116, Note_off_c, 1, 64, 0
5, 27120, Note_on_c, 1, 69, 88
5, 27236, Note_off_c, 1, 69, 0
5, 27240, Note_on_c, 1, 67, 88
5, 27356, Note_off_c, 1, 67, 0
5, 27360, Note_on_c, 1, 66, 88
5, 27594, Note_off_c, 1, 66, 0
5, 27720, Note_on_c, 1, 62, 88
5, 27836, Note_off_c, 1, 62, 0
5, 27840, Note_on_c, 1, 67, 88
5, 27956, Note_off_c, 1, 67, 0
5, 27960, Note_on_c, 1, 66, 88
5, 28076, Note_off_c, 1, 66, 0
5, 28080, Note_on_c, 1, 64, 88
5, 28314, Note_off_c, 1, 64, 0
5, 28680, Note_on_c, 1, 64, 88
5, 28796, Note_off_c, 1, 64, 0
5, 28800, Note_on_c, 1, 69, 88
5, 28916, Note_off_c, 1, 69, 0
5, 28920, Note_on_c, 1, 67, 88
5, 29036, Note_off_c, 1, 67, 0
5, 29040, Note_on_c, 1, 66, 88
5, 29156, Note_off_c, 1, 66, 0
5, 29160, Note_on_c, 1, 62, 88
5, 29276, Note_off_c, 1, 62, 0
5, 29280, Note_on_c, 1, 67, 88
5, 29396, Note_off_c, 1, 67, 0
5, 29400, Note_on_c, 1, 66, 88
5, 29516, Note_off_c, 1, 66, 0
5, 29520, Note_on_c, 1, 64, 88
5, 29636, Note_off_c, 1, 64, 0
5, 29640, Note_on_c, 1, 62, 88
5, 29756, Note_off_c, 1, 62, 0
5, 29760, Note_on_c, 1, 60, 88
5, 29994, Note_off_c, 1, 60, 0
5, 30000, Note_on_c, 1, 59, 88
5, 30234, Note_off_c, 1, 59, 0
5, 30240, Note_on_c, 1, 64, 88
5, 30474, Note_off_c, 1, 64, 0
5, 30480, Note_on_c, 1, 62, 88
5, 30836, Note_off_c, 1, 62, 0
5, 31080, Note_on_c, 1, 71, 88
5, 31185, Note_off_c, 1, 71, 0
5, 31200, Note_on_c, 1, 71, 88
5, 31305, Note_off_c, 1, 71, 0
5, 31320, Note_on_c, 1, 71, 88
5, 31436, Note_off_c, 1, 71, 0
5, 31440, Note_on_c, 1, 64, 88
5, 31674, Note_off_c, 1, 64, 0
5, 31680, Note_on_c, 1, 67, 88
5, 32033, Note_off_c, 1, 67, 0
5, 32040, Note_on_c, 1, 61, 88
5, 32156, Note_off_c, 1, 61, 0
5, 32160, Note_on_c, 1, 66, 88
5, 32276, Note_off_c, 1, 66, 0
5, 32280, Note_on_c, 1, 64, 88
5, 32396, Note_off_c, 1, 64, 0
5, 32400, Note_on_c, 1, 62, 88
5, 32874, Note_off_c, 1, 62, 0
5, 33000, Note_on_c, 1, 59, 88
5, 33116, Note_off_c, 1, 59, 0
5, 33120, Note_on_c, 1, 64, 88
5, 33236, Note_off_c, 1, 64, 0
5, 33240, Note_on_c, 1, 62, 88
5, 33356, Note_off_c, 1, 62, 0
5, 33360, Note_on_c, 1, 61, 88
5, 33834, Note_off_c, 1, 61, 0
5, 33960, Note_on_c, 1, 61, 88
5, 34076, Note_off_c, 1, 61, 0
5, 34080, Note_on_c, 1, 66, 88
5, 34196, Note_off_c, 1, 66, 0
5, 34200, Note_on_c, 1, 64, 88
5, 34316, Note_off_c, 1, 64, 0
5, 34320, Note_on_c, 1, 62, 88
5, 34794, Note_off_c, 1, 62, 0
5, 34920, Note_on_c, 1, 59, 88
5, 35036, Note_off_c, 1, 59, 0
5, 35040, Note_on_c, 1, 64, 88
5, 35156, Note_off_c, 1, 64, 0
5, 35160, Note_on_c, 1, 62, 88
5, 35276, Note_off_c, 1, 62, 0
5, 35280, Note_on_c, 1, 61, 88
5, 35625, Note_off_c, 1, 61, 0
5, 35640, Note_on_c, 1, 61, 88
5, 35756, Note_off_c, 1, 61, 0
5, 35760, Note_on_c, 1, 66, 88
5, 35876, Note_off_c, 1, 66, 0
5, 35880, Note_on_c, 1, 64, 88
5, 35996, Note_off_c, 1, 64, 0
5, 36000, Note_on_c, 1, 62, 88
5, 36116, Note_off_c, 1, 62, 0
5, 36120, Note_on_c, 1, 66, 88
5, 36236, Note_off_c, 1, 66, 0
5, 36240, Note_on_c, 1, 71, 88
5, 36356, Note_off_c, 1, 71, 0
5, 36360, Note_on_c, 1, 69, 88
5, 36476, Note_off_c, 1, 69, 0
5, 36480, Note_on_c, 1, 67, 88
5, 36596, Note_off_c, 1, 67, 0
5, 36600, Note_on_c, 1, 71, 88
5, 36716, Note_off_c, 1, 71, 0
5, 36720, Note_on_c, 1, 76, 88
5, 36836, Note_off_c, 1, 76, 0
5, 36840, Note_on_c, 1, 74, 88
5, 36956, Note_off_c, 1, 74, 0
5, 36960, Note_on_c, 1, 73, 88
5, 37430, Note_off_c, 1, 73, 0
5, 37440, Note_on_c, 1, 74, 88
5, 37556, Note_off_c, 1, 74, 0
5, 37560, Note_on_c, 1, 76, 88
5, 37676, Note_off_c, 1, 76, 0
5, 37680, Note_on_c, 1, 78, 88
5, 38033, Note_off_c, 1, 78, 0
5, 38040, Note_on_c, 1, 71, 88
5, 38156, Note_off_c, 1, 71, 0
5, 38160, Note_on_c, 1, 76, 88
5, 38276, Note_off_c, 1, 76, 0
5, 38280, Note_on_c, 1, 74, 88
5, 38396, Note_off_c, 1, 74, 0
5, 38400, Note_on_c, 1, 73, 88
5, 38634, Note_off_c, 1, 73, 0
5, 38760, Note_on_c, 1, 64, 88
5, 38876, Note_off_c, 1, 64, 0
5, 38880, Note_on_c, 1, 69, 88
5, 38996, Note_off_c, 1, 69, 0
5, 39000, Note_on_c, 1, 67, 88
5, 39116, Note_off_c, 1, 67, 0
5, 39120, Note_on_c, 1, 66, 88
5, 39236, Note_off_c, 1, 66, 0
5, 39240, Note_on_c, 1, 64, 88
5, 39356, Note_off_c, 1, 64, 0
5, 39360, Note_on_c, 1, 62, 88
5, 39594, Note_off_c, 1, 62, 0
5, 39600, Note_on_c, 1, 61, 88
5, 39716, Note_off_c, 1, 61, 0
5, 39720, Note_on_c, 1, 62, 88
5, 39836, Note_off_c, 1, 62, 0
5, 39840, Note_on_c, 1, 64, 88
5, 39956, Note_off_c, 1, 64, 0
5, 39960, Note_on_c, 1, 62, 88
5, 40076, Note_off_c, 1, 62, 0
5, 40080, Note_on_c, 1, 61, 88
5, 40196, Note_off_c, 1, 61, 0
5, 40200, Note_on_c, 1, 64, 88
5, 40436, Note_off_c, 1, 64, 0
5, 40440, Note_on_c, 1, 62, 88
5, 40674, Note_off_c, 1, 62, 0
5, 40680, Note_on_c, 1, 61, 88
5, 40796, Note_off_c, 1, 61, 0
5, 40800, Note_on_c, 1, 60, 88
5, 40916, Note_off_c, 1, 60, 0
5, 40920, Note_on_c, 1, 59, 88
5, 41036, Note_off_c, 1, 59, 0
5, 41040, Note_on_c, 1, 57, 88
5, 41156, Note_off_c, 1, 57, 0
5, 41160, Note_on_c, 1, 60, 88
5, 41276, Note_off_c, 1, 60, 0
5, 41280, Note_on_c, 1, 62, 88
5, 41396, Note_off_c, 1, 62, 0
5, 41400, Note_on_c, 1, 64, 88
5, 41458, Note_off_c, 1, 64, 0
5, 41460, Note_on_c, 1, 65, 88
5, 41518, Note_off_c, 1, 65, 0
5, 41520, Note_on_c, 1, 64, 88
5, 41873, Note_off_c, 1, 64, 0
5, 42120, Note_on_c, 1, 78, 88
5, 42236, Note_off_c, 1, 78, 0
5, 42240, Note_on_c, 1, 78, 88
5, 42345, Note_off_c, 1, 78, 0
5, 42360, Note_on_c, 1, 78, 88
5, 42476, Note_off_c, 1, 78, 0
5, 42480, Note_on_c, 1, 71, 88
5, 42714, Note_off_c, 1, 71, 0
5, 42720, Note_on_c, 1, 74, 88
5, 43073, Note_off_c, 1, 74, 0
5, 43080, Note_on_c, 1, 68, 88
5, 43196, Note_off_c, 1, 68, 0
5, 43200, Note_on_c, 1, 73, 88
5, 43316, Note_off_c, 1, 73, 0
5, 43320, Note_on_c, 1, 71, 88
5, 43436, Note_off_c, 1, 71, 0
5, 43440, Note_on_c, 1, 69, 88
5, 43793, Note_off_c, 1, 69, 0
5, 43800, Note_on_c, 1, 67, 88
5, 43916, Note_off_c, 1, 67, 0
5, 43920, Note_on_c, 1, 66, 88
5, 44036, Note_off_c, 1, 66, 0
5, 44040, Note_on_c, 1, 64, 88
5, 44156, Note_off_c, 1, 64, 0
5, 44160, Note_on_c, 1, 66, 88
5, 44630, Note_off_c, 1, 66, 0
5, 44760, Note_on_c, 1, 62, 88
5, 44876, Note_off_c, 1, 62, 0
5, 44880, Note_on_c, 1, 67, 88
5, 44996, Note_off_c, 1, 67, 0
5, 45000, Note_on_c, 1, 66, 88
5, 45116, Note_off_c, 1, 66, 0
5, 45120, Note_on_c, 1, 64, 88
5, 45236, Note_off_c, 1, 64, 0
5, 45240, Note_on_c, 1, 62, 88
5, 45356, Note_off_c, 1, 62, 0
5, 45360, Note_on_c, 1, 61, 88
5, 45594, Note_off_c, 1, 61, 0
5, 45720, Note_on_c, 1, 57, 88
5, 45836, Note_off_c, 1, 57, 0
5, 45840, Note_on_c, 1, 62, 88
5, 45956, Note_off_c, 1, 62, 0
5, 45960, Note_on_c, 1, 60, 88
5, 46076, Note_off_c, 1, 60, 0
5, 46080, Note_on_c, 1, 59, 88
5, 46425, Note_off_c, 1, 59, 0
5, 46440, Note_on_c, 1, 59, 88
5, 46556, Note_off_c, 1, 59, 0
5, 46560, Note_on_c, 1, 64, 88
5, 46676, Note_off_c, 1, 64, 0
5, 46680, Note_on_c, 1, 62, 88
5, 46796, Note_off_c, 1, 62, 0
5, 46800, Note_on_c, 1, 61, 88
5, 46916, Note_off_c, 1, 61, 0
5, 46920, Note_on_c, 1, 64, 88
5, 47156, Note_off_c, 1, 64, 0
5, 47160, Note_on_c, 1, 62, 88
5, 47394, Note_off_c, 1, 62, 0
5, 47400, Note_on_c, 1, 61, 88
5, 47516, Note_off_c, 1, 61, 0
5, 47520, Note_on_c, 1, 57, 88
5, 47990, Note_off_c, 1, 57, 0
5, 47990, End_track
6, 0, Start_track
6, 0, Title_t, "Track 3"
6, 0, Program_c, 2, 6
6, 120, Note_on_c, 2, 62, 88
6, 225, Note_off_c, 2, 62, 0
6, 240, Note_on_c, 2, 62, 88
6, 345, Note_off_c, 2, 62, 0
6, 360, Note_on_c, 2, 62, 88
6, 476, Note_off_c, 2, 62, 0
6, 480, Note_on_c, 2, 55, 88
6, 714, Note_off_c, 2, 55, 0
6, 720, Note_on_c, 2, 59, 88
6, 1076, Note_off_c, 2, 59, 0
6, 1080, Note_on_c, 2, 52, 88
6, 1196, Note_off_c, 2, 52, 0
6, 1200, Note_on_c, 2, 57, 88
6, 1316, Note_off_c, 2, 57, 0
6, 1320, Note_on_c, 2, 55, 88
6, 1436, Note_off_c, 2, 55, 0
6, 1440, Note_on_c, 2, 54, 88
6, 1674, Note_off_c, 2, 54, 0
6, 1680, Note_on_c, 2, 50, 88
6, 1914, Note_off_c, 2, 50, 0
6, 2040, Note_on_c, 2, 54, 88
6, 2156, Note_off_c, 2, 54, 0
6, 2160, Note_on_c, 2, 59, 88
6, 2276, Note_off_c, 2, 59, 0
6, 2280, Note_on_c, 2, 57, 88
6, 2396, Note_off_c, 2, 57, 0
6, 2400, Note_on_c, 2, 56, 88
6, 2870, Note_off_c, 2, 56, 0
6, 2880, Note_on_c, 2, 57, 88
6, 3114, Note_off_c, 2, 57, 0
6, 3120, Note_on_c, 2, 61, 88
6, 3354, Note_off_c, 2, 61, 0
6, 3480, Note_on_c, 2, 57, 88
6, 3596, Note_off_c, 2, 57, 0
6, 3600, Note_on_c, 2, 62, 88
6, 3716, Note_off_c, 2, 62, 0
6, 3720, Note_on_c, 2, 61, 88
6, 3836, Note_off_c, 2, 61, 0
6, 3840, Note_on_c, 2, 59, 88
6, 4310, Note_off_c, 2, 59, 0
6, 4440, Note_on_c, 2, 59, 88
6, 4556, Note_off_c, 2, 59, 0
6, 4560, Note_on_c, 2, 64, 88
6, 4676, Note_off_c, 2, 64, 0
6, 4680, Note_on_c, 2, 62, 88
6, 4796, Note_off_c, 2, 62, 0
6, 4800, Note_on_c, 2, 61, 88
6, 5270, Note_off_c, 2, 61, 0
6, 5400, Note_on_c, 2, 57, 88
6, 5516, Note_off_c, 2, 57, 0
6, 5520, Note_on_c, 2, 62, 88
6, 5636, Note_off_c, 2, 62, 0
6, 5640, Note_on_c, 2, 61, 88
6, 5756, Note_off_c, 2, 61, 0
6, 5760, Note_on_c, 2, 59, 88
6, 6230, Note_off_c, 2, 59, 0
6, 6360, Note_on_c, 2, 52, 88
6, 6476, Note_off_c, 2, 52, 0
6, 6480, Note_on_c, 2, 57, 88
6, 6596, Note_off_c, 2, 57, 0
6, 6600, Note_on_c, 2, 55, 88
6, 6716, Note_off_c, 2, 55, 0
6, 6720, Note_on_c, 2, 54, 88
6, 6836, Note_off_c, 2, 54, 0
6, 6840, Note_on_c, 2, 52, 88
6, 6956, Note_off_c, 2, 52, 0
6, 6960, Note_on_c, 2, 50, 88
6, 7194, Note_off_c, 2, 50, 0
6, 7320, Note_on_c, 2, 50, 88
6, 7436, Note_off_c, 2, 50, 0
6, 7440, Note_on_c, 2, 55, 88
6, 7556, Note_off_c, 2, 55, 0
6, 7560, Note_on_c, 2, 54, 88
6, 7676, Note_off_c, 2, 54, 0
6, 7680, Note_on_c, 2, 52, 88
6, 7914, Note_off_c, 2, 52, 0
6, 7920, Note_on_c, 2, 50, 88
6, 8036, Note_off_c, 2, 50, 0
6, 8040, Note_on_c, 2, 49, 88
6, 8156, Note_off_c, 2, 49, 0
6, 8160, Note_on_c, 2, 47, 88
6, 8630, Note_off_c, 2, 47, 0
6, 8640, Note_on_c, 2, 52, 88
6, 9230, Note_off_c, 2, 52, 0
6, 9240, Note_on_c, 2, 55, 88
6, 9356, Note_off_c, 2, 55, 0
6, 9360, Note_on_c, 2, 54, 88
6, 9476, Note_off_c, 2, 54, 0
6, 9480, Note_on_c, 2, 52, 88
6, 9596, Note_off_c, 2, 52, 0
6, 9600, Note_on_c, 2, 51, 88
6, 10070, Note_off_c, 2, 51, 0
6, 10080, Note_on_c, 2, 52, 88
6, 10196, Note_off_c, 2, 52, 0
6, 10200, Note_on_c, 2, 50, 88
6, 10316, Note_off_c, 2, 50, 0
6, 10320, Note_on_c, 2, 55, 88
6, 10794, Note_off_c, 2, 55, 0
6, 10800, Note_on_c, 2, 49, 88
6, 10916, Note_off_c, 2, 49, 0
6, 10920, Note_on_c, 2, 50, 88
6, 11036, Note_off_c, 2, 50, 0
6, 11040, Note_on_c, 2, 52, 88
6, 11156, Note_off_c, 2, 52, 0
6, 11160, Note_on_c, 2, 55, 88
6, 11276, Note_off_c, 2, 55, 0
6, 11280, Note_on_c, 2, 54, 88
6, 11636, Note_off_c, 2, 54, 0
6, 11640, Note_on_c, 2, 57, 88
6, 11756, Note_off_c, 2, 57, 0
6, 11760, Note_on_c, 2, 56, 88
6, 11876, Note_off_c, 2, 56, 0
6, 11880, Note_on_c, 2, 54, 88
6, 11996, Note_off_c, 2, 54, 0
6, 12000, Note_on_c, 2, 52, 88
6, 12585, Note_off_c, 2, 52, 0
6, 12600, Note_on_c, 2, 52, 88
6, 12716, Note_off_c, 2, 52, 0
6, 12720, Note_on_c, 2, 57, 88
6, 12836, Note_off_c, 2, 57, 0
6, 12840, Note_on_c, 2, 55, 88
6, 12956, Note_off_c, 2, 55, 0
6, 12960, Note_on_c, 2, 54, 88
6, 13076, Note_off_c, 2, 54, 0
6, 13080, Note_on_c, 2, 52, 88
6, 13196, Note_off_c, 2, 52, 0
6, 13200, Note_on_c, 2, 50, 88
6, 13434, Note_off_c, 2, 50, 0
6, 13440, Note_on_c, 2, 52, 88
6, 13556, Note_off_c, 2, 52, 0
6, 13560, Note_on_c, 2, 54, 88
6, 13676, Note_off_c, 2, 54, 0
6, 13680, Note_on_c, 2, 55, 88
6, 14025, Note_off_c, 2, 55, 0
6, 14040, Note_on_c, 2, 55, 88
6, 14156, Note_off_c, 2, 55, 0
6, 14160, Note_on_c, 2, 54, 88
6, 14276, Note_off_c, 2, 54, 0
6, 14280, Note_on_c, 2, 52, 88
6, 14396, Note_off_c, 2, 52, 0
6, 14400, Note_on_c, 2, 50, 88
6, 14634, Note_off_c, 2, 50, 0
6, 15480, Note_on_c, 2, 52, 88
6, 15596, Note_off_c, 2, 52, 0
6, 15600, Note_on_c, 2, 57, 88
6, 15716, Note_off_c, 2, 57, 0
6, 15720, Note_on_c, 2, 55, 88
6, 15836, Note_off_c, 2, 55, 0
6, 15840, Note_on_c, 2, 54, 88
6, 15956, Note_off_c, 2, 54, 0
6, 15960, Note_on_c, 2, 57, 88
6, 16076, Note_off_c, 2, 57, 0
6, 16080, Note_on_c, 2, 62, 88
6, 16196, Note_off_c, 2, 62, 0
6, 16200, Note_on_c, 2, 61, 88
6, 16316, Note_off_c, 2, 61, 0
6, 16320, Note_on_c, 2, 59, 88
6, 16554, Note_off_c, 2, 59, 0
6, 16920, Note_on_c, 2, 59, 88
6, 17036, Note_off_c, 2, 59, 0
6, 17040, Note_on_c, 2, 61, 88
6, 17396, Note_off_c, 2, 61, 0
6, 17400, Note_on_c, 2, 57, 88
6, 17516, Note_off_c, 2, 57, 0
6, 17520, Note_on_c, 2, 62, 88
6, 17636, Note_off_c, 2, 62, 0
6, 17640, Note_on_c, 2, 61, 88
6, 17756, Note_off_c, 2, 61, 0
6, 17760, Note_on_c, 2, 59, 88
6, 17994, Note_off_c, 2, 59, 0
6, 18000, Note_on_c, 2, 57, 88
6, 18116, Note_off_c, 2, 57, 0
6, 18120, Note_on_c, 2, 56, 88
6, 18236, Note_off_c, 2, 56, 0
6, 18240, Note_on_c, 2, 54, 88
6, 18474, Note_off_c, 2, 54, 0
6, 18480, Note_on_c, 2, 52, 88
6, 18950, Note_off_c, 2, 52, 0
6, 19320, Note_on_c, 2, 59, 88
6, 19425, Note_off_c, 2, 59, 0
6, 19440, Note_on_c, 2, 59, 88
6, 19545, Note_off_c, 2, 59, 0
6, 19560, Note_on_c, 2, 59, 88
6, 19676, Note_off_c, 2, 59, 0
6, 19680, Note_on_c, 2, 52, 88
6, 19914, Note_off_c, 2, 52, 0
6, 19920, Note_on_c, 2, 55, 88
6, 20276, Note_off_c, 2, 55, 0
6, 20280, Note_on_c, 2, 49, 88
6, 20396, Note_off_c, 2, 49, 0
6, 20400, Note_on_c, 2, 54, 88
6, 20516, Note_off_c, 2, 54, 0
6, 20520, Note_on_c, 2, 52, 88
6, 20636, Note_off_c, 2, 52, 0
6, 20640, Note_on_c, 2, 51, 88
6, 20756, Note_off_c, 2, 51, 0
6, 20760, Note_on_c, 2, 53, 88
6, 20818, Note_off_c, 2, 53, 0
6, 20820, Note_on_c, 2, 54, 88
6, 20878, Note_off_c, 2, 54, 0
6, 20880, Note_on_c, 2, 53, 88
6, 21114, Note_off_c, 2, 53, 0
6, 21240, Note_on_c, 2, 59, 88
6, 21356, Note_off_c, 2, 59, 0
6, 21360, Note_on_c, 2, 58, 88
6, 21476, Note_off_c, 2, 58, 0
6, 21480, Note_on_c, 2, 61, 88
6, 21714, Note_off_c, 2, 61, 0
6, 21720, Note_on_c, 2, 64, 88
6, 21836, Note_off_c, 2, 64, 0
6, 21840, Note_on_c, 2, 62, 88
6, 21956, Note_off_c, 2, 62, 0
6, 21960, Note_on_c, 2, 61, 88
6, 22076, Note_off_c, 2, 61, 0
6, 22080, Note_on_c, 2, 59, 88
6, 22670, Note_off_c, 2, 59, 0
6, 22680, Note_on_c, 2, 56, 88
6, 22796, Note_off_c, 2, 56, 0
6, 22800, Note_on_c, 2, 61, 88
6, 22916, Note_off_c, 2, 61, 0
6, 22920, Note_on_c, 2, 59, 88
6, 23036, Note_off_c, 2, 59, 0
6, 23040, Note_on_c, 2, 57, 88
6, 23630, Note_off_c, 2, 57, 0
6, 23640, Note_on_c, 2, 54, 88
6, 23756, Note_off_c, 2, 54, 0
6, 23760, Note_on_c, 2, 59, 88
6, 23876, Note_off_c, 2, 59, 0
6, 23880, Note_on_c, 2, 57, 88
6, 23996, Note_off_c, 2, 57, 0
6, 24000, Note_on_c, 2, 56, 88
6, 24590, Note_off_c, 2, 56, 0
6, 24600, Note_on_c, 2, 54, 88
6, 24658, Note_off_c, 2, 54, 0
6, 24660, Note_on_c, 2, 56, 88
6, 24718, Note_off_c, 2, 56, 0
6, 24720, Note_on_c, 2, 57, 88
6, 24954, Note_off_c, 2, 57, 0
6, 24960, Note_on_c, 2, 56, 88
6, 25076, Note_off_c, 2, 56, 0
6, 25080, Note_on_c, 2, 54, 88
6, 25196, Note_off_c, 2, 54, 0
6, 25200, Note_on_c, 2, 56, 88
6, 25434, Note_off_c, 2, 56, 0
6, 25440, Note_on_c, 2, 54, 88
6, 25556, Note_off_c, 2, 54, 0
6, 26520, Note_on_c, 2, 50, 88
6, 26636, Note_off_c, 2, 50, 0
6, 26640, Note_on_c, 2, 55, 88
6, 26756, Note_off_c, 2, 55, 0
6, 26760, Note_on_c, 2, 54, 88
6, 26876, Note_off_c, 2, 54, 0
6, 26880, Note_on_c, 2, 52, 88
6, 27114, Note_off_c, 2, 52, 0
6, 27240, Note_on_c, 2, 57, 88
6, 27356, Note_off_c, 2, 57, 0
6, 27360, Note_on_c, 2, 62, 88
6, 27476, Note_off_c, 2, 62, 0
6, 27480, Note_on_c, 2, 60, 88
6, 27596, Note_off_c, 2, 60, 0
6, 27600, Note_on_c, 2, 59, 88
6, 27956, Note_off_c, 2, 59, 0
6, 27960, Note_on_c, 2, 57, 88
6, 28076, Note_off_c, 2, 57, 0
6, 28080, Note_on_c, 2, 55, 88
6, 28314, Note_off_c, 2, 55, 0
6, 28440, Note_on_c, 2, 52, 88
6, 28556, Note_off_c, 2, 52, 0
6, 28560, Note_on_c, 2, 57, 88
6, 28676, Note_off_c, 2, 57, 0
6, 28680, Note_on_c, 2, 55, 88
6, 28796, Note_off_c, 2, 55, 0
6, 28800, Note_on_c, 2, 54, 88
6, 28916, Note_off_c, 2, 54, 0
6, 28920, Note_on_c, 2, 52, 88
6, 29036, Note_off_c, 2, 52, 0
6, 29040, Note_on_c, 2, 50, 88
6, 29156, Note_off_c, 2, 50, 0
6, 29160, Note_on_c, 2, 54, 88
6, 29276, Note_off_c, 2, 54, 0
6, 29280, Note_on_c, 2, 59, 88
6, 29396, Note_off_c, 2, 59, 0
6, 29400, Note_on_c, 2, 57, 88
6, 29516, Note_off_c, 2, 57, 0
6, 29520, Note_on_c, 2, 55, 88
6, 29876, Note_off_c, 2, 55, 0
6, 29880, Note_on_c, 2, 57, 88
6, 29996, Note_off_c, 2, 57, 0
6, 30000, Note_on_c, 2, 59, 88
6, 30116, Note_off_c, 2, 59, 0
6, 30120, Note_on_c, 2, 64, 88
6, 30236, Note_off_c, 2, 64, 0
6, 30240, Note_on_c, 2, 57, 88
6, 30710, Note_off_c, 2, 57, 0
6, 30720, Note_on_c, 2, 55, 88
6, 30836, Note_off_c, 2, 55, 0
6, 30840, Note_on_c, 2, 62, 88
6, 30945, Note_off_c, 2, 62, 0
6, 30960, Note_on_c, 2, 62, 88
6, 31065, Note_off_c, 2, 62, 0
6, 31080, Note_on_c, 2, 62, 88
6, 31196, Note_off_c, 2, 62, 0
6, 31200, Note_on_c, 2, 55, 88
6, 31434, Note_off_c, 2, 55, 0
6, 31440, Note_on_c, 2, 59, 88
6, 31796, Note_off_c, 2, 59, 0
6, 31800, Note_on_c, 2, 52, 88
6, 31916, Note_off_c, 2, 52, 0
6, 31920, Note_on_c, 2, 57, 88
6, 32036, Note_off_c, 2, 57, 0
6, 32040, Note_on_c, 2, 55, 88
6, 32156, Note_off_c, 2, 55, 0
6, 32160, Note_on_c, 2, 54, 88
6, 32756, Note_off_c, 2, 54, 0
6, 32760, Note_on_c, 2, 47, 88
6, 32876, Note_off_c, 2, 47, 0
6, 32880, Note_on_c, 2, 52, 88
6, 32996, Note_off_c, 2, 52, 0
6, 33000, Note_on_c, 2, 50, 88
6, 33116, Note_off_c, 2, 50, 0
6, 33120, Note_on_c, 2, 49, 88
6, 33236, Note_off_c, 2, 49, 0
6, 33240, Note_on_c, 2, 50, 88
6, 33356, Note_off_c, 2, 50, 0
6, 33360, Note_on_c, 2, 52, 88
6, 33716, Note_off_c, 2, 52, 0
6, 33720, Note_on_c, 2, 49, 88
6, 33836, Note_off_c, 2, 49, 0
6, 33840, Note_on_c, 2, 54, 88
6, 33956, Note_off_c, 2, 54, 0
6, 33960, Note_on_c, 2, 52, 88
6, 34076, Note_off_c, 2, 52, 0
6, 34080, Note_on_c, 2, 50, 88
6, 34196, Note_off_c, 2, 50, 0
6, 34440, Note_on_c, 2, 54, 88
6, 34556, Note_off_c, 2, 54, 0
6, 34560, Note_on_c, 2, 59, 88
6, 34676, Note_off_c, 2, 59, 0
6, 34680, Note_on_c, 2, 57, 88
6, 34796, Note_off_c, 2, 57, 0
6, 34800, Note_on_c, 2, 55, 88
6, 35034, Note_off_c, 2, 55, 0
6, 37560, Note_on_c, 2, 62, 88
6, 37665, Note_off_c, 2, 62, 0
6, 37680, Note_on_c, 2, 62, 88
6, 37785, Note_off_c, 2, 62, 0
6, 37800, Note_on_c, 2, 62, 88
6, 37916, Note_off_c, 2, 62, 0
6, 37920, Note_on_c, 2, 55, 88
6, 38154, Note_off_c, 2, 55, 0
6, 38160, Note_on_c, 2, 59, 88
6, 38516, Note_off_c, 2, 59, 0
6, 38520, Note_on_c, 2, 52, 88
6, 38636, Note_off_c, 2, 52, 0
6, 38640, Note_on_c, 2, 57, 88
6, 38756, Note_off_c, 2, 57, 0
6, 38760, Note_on_c, 2, 55, 88
6, 38876, Note_off_c, 2, 55, 0
6, 38880, Note_on_c, 2, 54, 88
6, 38996, Note_off_c, 2, 54, 0
6, 39000, Note_on_c, 2, 55, 88
6, 39116, Note_off_c, 2, 55, 0
6, 39120, Note_on_c, 2, 57, 88
6, 39476, Note_off_c, 2, 57, 0
6, 39480, Note_on_c, 2, 50, 88
6, 39596, Note_off_c, 2, 50, 0
6, 39600, Note_on_c, 2, 55, 88
6, 39716, Note_off_c, 2, 55, 0
6, 39720, Note_on_c, 2, 54, 88
6, 39836, Note_off_c, 2, 54, 0
6, 39840, Note_on_c, 2, 52, 88
6, 40074, Note_off_c, 2, 52, 0
6, 41400, Note_on_c, 2, 59, 88
6, 41505, Note_off_c, 2, 59, 0
6, 41520, Note_on_c, 2, 59, 88
6, 41625, Note_off_c, 2, 59, 0
6, 41640, Note_on_c, 2, 59, 88
6, 41756, Note_off_c, 2, 59, 0
6, 41760, Note_on_c, 2, 52, 88
6, 41876, Note_off_c, 2, 52, 0
6, 42360, Note_on_c, 2, 62, 88
6, 42465, Note_off_c, 2, 62, 0
6, 42480, Note_on_c, 2, 62, 88
6, 42585, Note_off_c, 2, 62, 0
6, 42600, Note_on_c, 2, 62, 88
6, 42716, Note_off_c, 2, 62, 0
6, 42720, Note_on_c, 2, 56, 88
6, 42954, Note_off_c, 2, 56, 0
6, 42960, Note_on_c, 2, 59, 88
6, 43316, Note_off_c, 2, 59, 0
6, 43320, Note_on_c, 2, 52, 88
6, 43436, Note_off_c, 2, 52, 0
6, 43440, Note_on_c, 2, 57, 88
6, 43556, Note_off_c, 2, 57, 0
6, 43560, Note_on_c, 2, 55, 88
6, 43676, Note_off_c, 2, 55, 0
6, 43680, Note_on_c, 2, 54, 88
6, 44033, Note_off_c, 2, 54, 0
6, 44040, Note_on_c, 2, 57, 88
6, 44156, Note_off_c, 2, 57, 0
6, 44160, Note_on_c, 2, 62, 88
6, 44276, Note_off_c, 2, 62, 0
6, 44280, Note_on_c, 2, 60, 88
6, 44396, Note_off_c, 2, 60, 0
6, 44400, Note_on_c, 2, 59, 88
6, 44516, Note_off_c, 2, 59, 0
6, 44520, Note_on_c, 2, 57, 88
6, 44636, Note_off_c, 2, 57, 0
6, 44640, Note_on_c, 2, 55, 88
6, 45236, Note_off_c, 2, 55, 0
6, 45240, Note_on_c, 2, 52, 88
6, 45356, Note_off_c, 2, 52, 0
6, 45360, Note_on_c, 2, 57, 88
6, 45476, Note_off_c, 2, 57, 0
6, 45480, Note_on_c, 2, 55, 88
6, 45596, Note_off_c, 2, 55, 0
6, 45600, Note_on_c, 2, 54, 88
6, 46196, Note_off_c, 2, 54, 0
6, 46200, Note_on_c, 2, 47, 88
6, 46316, Note_off_c, 2, 47, 0
6, 46320, Note_on_c, 2, 52, 88
6, 46436, Note_off_c, 2, 52, 0
6, 46440, Note_on_c, 2, 50, 88
6, 46556, Note_off_c, 2, 50, 0
6, 46560, Note_on_c, 2, 49, 88
6, 46676, Note_off_c, 2, 49, 0
6, 46680, Note_on_c, 2, 50, 88
6, 46796, Note_off_c, 2, 50, 0
6, 46800, Note_on_c, 2, 52, 88
6, 47034, Note_off_c, 2, 52, 0
6, 47160, Note_on_c, 2, 50, 88
6, 47276, Note_off_c, 2, 50, 0
6, 47280, Note_on_c, 2, 57, 88
6, 47396, Note_off_c, 2, 57, 0
6, 47400, Note_on_c, 2, 55, 88
6, 47516, Note_off_c, 2, 55, 0
6, 47520, Note_on_c, 2, 54, 88
6, 47990, Note_off_c, 2, 54, 0
6, 47990, End_track
7, 0, Start_track
7, 0, Title_t, "Track 4"
7, 0, Program_c, 3, 6
7, 4920, Note_on_c, 3, 57, 88
7, 5025, Note_off_c, 3, 57, 0
7, 5040, Note_on_c, 3, 57, 88
7, 5145, Note_off_c, 3, 57, 0
7, 5160, Note_on_c, 3, 57, 88
7, 5276, Note_off_c, 3, 57, 0
7, 5280, Note_on_c, 3, 50, 88
7, 5514, Note_off_c, 3, 50, 0
7, 5520, Note_on_c, 3, 54, 88
7, 5876, Note_off_c, 3, 54, 0
7, 5880, Note_on_c, 3, 47, 88
7, 5996, Note_off_c, 3, 47, 0
7, 6000, Note_on_c, 3, 52, 88
7, 6116, Note_off_c, 3, 52, 0
7, 6120, Note_on_c, 3, 50, 88
7, 6236, Note_off_c, 3, 50, 0
7, 6240, Note_on_c, 3, 49, 88
7, 6356, Note_off_c, 3, 49, 0
7, 6360, Note_on_c, 3, 47, 88
7, 6476, Note_off_c, 3, 47, 0
7, 6480, Note_on_c, 3, 45, 88
7, 6714, Note_off_c, 3, 45, 0
7, 6840, Note_on_c, 3, 45, 88
7, 6956, Note_off_c, 3, 45, 0
7, 6960, Note_on_c, 3, 50, 88
7, 7076, Note_off_c, 3, 50, 0
7, 7080, Note_on_c, 3, 49, 88
7, 7196, Note_off_c, 3, 49, 0
7, 7200, Note_on_c, 3, 47, 88
7, 7316, Note_off_c, 3, 47, 0
7, 7320, Note_on_c, 3, 45, 88
7, 7436, Note_off_c, 3, 45, 0
7, 7440, Note_on_c, 3, 43, 88
7, 7796, Note_off_c, 3, 43, 0
7, 7800, Note_on_c, 3, 42, 88
7, 7916, Note_off_c, 3, 42, 0
7, 7920, Note_on_c, 3, 47, 88
7, 8036, Note_off_c, 3, 47, 0
7, 8040, Note_on_c, 3, 45, 88
7, 8156, Note_off_c, 3, 45, 0
7, 8160, Note_on_c, 3, 44, 88
7, 8630, Note_off_c, 3, 44, 0
7, 8640, Note_on_c, 3, 45, 88
7, 8874, Note_off_c, 3, 45, 0
7, 8880, Note_on_c, 3, 43, 88
7, 9114, Note_off_c, 3, 43, 0
7, 9120, Note_on_c, 3, 42, 88
7, 9590, Note_off_c, 3, 42, 0
7, 9600, Note_on_c, 3, 47, 88
7, 11268, Note_off_c, 3, 47, 0
7, 11280, Note_on_c, 3, 46, 88
7, 11514, Note_off_c, 3, 46, 0
7, 11520, Note_on_c, 3, 47, 88
7, 11754, Note_off_c, 3, 47, 0
7, 12120, Note_on_c, 3, 50, 88
7, 12236, Note_off_c, 3, 50, 0
7, 12240, Note_on_c, 3, 49, 88
7, 12356, Note_off_c, 3, 49, 0
7, 12360, Note_on_c, 3, 47, 88
7, 12476, Note_off_c, 3, 47, 0
7, 12480, Note_on_c, 3, 45, 88
7, 12714, Note_off_c, 3, 45, 0
7, 12840, Note_on_c, 3, 45, 88
7, 12956, Note_off_c, 3, 45, 0
7, 12960, Note_on_c, 3, 47, 88
7, 13194, Note_off_c, 3, 47, 0
7, 13320, Note_on_c, 3, 47, 88
7, 13436, Note_off_c, 3, 47, 0
7, 13440, Note_on_c, 3, 40, 88
7, 13674, Note_off_c, 3, 40, 0
7, 13800, Note_on_c, 3, 52, 88
7, 13916, Note_off_c, 3, 52, 0
7, 13920, Note_on_c, 3, 45, 88
7, 14154, Note_off_c, 3, 45, 0
7, 14280, Note_on_c, 3, 45, 88
7, 14396, Note_off_c, 3, 45, 0
7, 14400, Note_on_c, 3, 38, 88
7, 14634, Note_off_c, 3, 38, 0
7, 16440, Note_on_c, 3, 47, 88
7, 16556, Note_off_c, 3, 47, 0
7, 16560, Note_on_c, 3, 52, 88
7, 16676, Note_off_c, 3, 52, 0
7, 16680, Note_on_c, 3, 50, 88
7, 16796, Note_off_c, 3, 50, 0
7, 16800, Note_on_c, 3, 49, 88
7, 16916, Note_off_c, 3, 49, 0
7, 16920, Note_on_c, 3, 52, 88
7, 17036, Note_off_c, 3, 52, 0
7, 17040, Note_on_c, 3, 57, 88
7, 17156, Note_off_c, 3, 57, 0
7, 17160, Note_on_c, 3, 56, 88
7, 17276, Note_off_c, 3, 56, 0
7, 17280, Note_on_c, 3, 54, 88
7, 17396, Note_off_c, 3, 54, 0
7, 17400, Note_on_c, 3, 52, 88
7, 17516, Note_off_c, 3, 52, 0
7, 17520, Note_on_c, 3, 50, 88
7, 17873, Note_off_c, 3, 50, 0
7, 17880, Note_on_c, 3, 49, 88
7, 17996, Note_off_c, 3, 49, 0
7, 18000, Note_on_c, 3, 54, 88
7, 18116, Note_off_c, 3, 54, 0
7, 18120, Note_on_c, 3, 52, 88
7, 18236, Note_off_c, 3, 52, 0
7, 18240, Note_on_c, 3, 50, 88
7, 18474, Note_off_c, 3, 50, 0
7, 18480, Note_on_c, 3, 52, 88
7, 18714, Note_off_c, 3, 52, 0
7, 18720, Note_on_c, 3, 45, 88
7, 18954, Note_off_c, 3, 45, 0
7, 19080, Note_on_c, 3, 42, 88
7, 19196, Note_off_c, 3, 42, 0
7, 19200, Note_on_c, 3, 47, 88
7, 19434, Note_off_c, 3, 47, 0
7, 19800, Note_on_c, 3, 50, 88
7, 19916, Note_off_c, 3, 50, 0
7, 19920, Note_on_c, 3, 49, 88
7, 20036, Note_off_c, 3, 49, 0
7, 20040, Note_on_c, 3, 47, 88
7, 20156, Note_off_c, 3, 47, 0
7, 20160, Note_on_c, 3, 46, 88
7, 20394, Note_off_c, 3, 46, 0
7, 20520, Note_on_c, 3, 46, 88
7, 20636, Note_off_c, 3, 46, 0
7, 20640, Note_on_c, 3, 45, 88
7, 20874, Note_off_c, 3, 45, 0
7, 21000, Note_on_c, 3, 44, 88
7, 21116, Note_off_c, 3, 44, 0
7, 21120, Note_on_c, 3, 49, 88
7, 21354, Note_off_c, 3, 49, 0
7, 21480, Note_on_c, 3, 52, 88
7, 21596, Note_off_c, 3, 52, 0
7, 21600, Note_on_c, 3, 42, 88
7, 21716, Note_off_c, 3, 42, 0
7, 21720, Note_on_c, 3, 54, 88
7, 21836, Note_off_c, 3, 54, 0
7, 21840, Note_on_c, 3, 56, 88
7, 21956, Note_off_c, 3, 56, 0
7, 21960, Note_on_c, 3, 58, 88
7, 22076, Note_off_c, 3, 58, 0
7, 22080, Note_on_c, 3, 59, 88
7, 22196, Note_off_c, 3, 59, 0
7, 22200, Note_on_c, 3, 57, 88
7, 22316, Note_off_c, 3, 57, 0
7, 22320, Note_on_c, 3, 56, 88
7, 22436, Note_off_c, 3, 56, 0
7, 22440, Note_on_c, 3, 54, 88
7, 22556, Note_off_c, 3, 54, 0
7, 22560, Note_on_c, 3, 53, 88
7, 23030, Note_off_c, 3, 53, 0
7, 23160, Note_on_c, 3, 54, 88
7, 23265, Note_off_c, 3, 54, 0
7, 23280, Note_on_c, 3, 54, 88
7, 23385, Note_off_c, 3, 54, 0
7, 23400, Note_on_c, 3, 54, 88
7, 23516, Note_off_c, 3, 54, 0
7, 23520, Note_on_c, 3, 47, 88
7, 23754, Note_off_c, 3, 47, 0
7, 23760, Note_on_c, 3, 50, 88
7, 24116, Note_off_c, 3, 50, 0
7, 24120, Note_on_c, 3, 44, 88
7, 24236, Note_off_c, 3, 44, 0
7, 24240, Note_on_c, 3, 49, 88
7, 24356, Note_off_c, 3, 49, 0
7, 24360, Note_on_c, 3, 47, 88
7, 24476, Note_off_c, 3, 47, 0
7, 24480, Note_on_c, 3, 45, 88
7, 24833, Note_off_c, 3, 45, 0
7, 24840, Note_on_c, 3, 47, 88
7, 24956, Note_off_c, 3, 47, 0
7, 24960, Note_on_c, 3, 49, 88
7, 25430, Note_off_c, 3, 49, 0
7, 25440, Note_on_c, 3, 42, 88
7, 25556, Note_off_c, 3, 42, 0
7, 25560, Note_on_c, 3, 57, 88
7, 25665, Note_off_c, 3, 57, 0
7, 25680, Note_on_c, 3, 57, 88
7, 25785, Note_off_c, 3, 57, 0
7, 25800, Note_on_c, 3, 57, 88
7, 25916, Note_off_c, 3, 57, 0
7, 25920, Note_on_c, 3, 50, 88
7, 26154, Note_off_c, 3, 50, 0
7, 26160, Note_on_c, 3, 54, 88
7, 26513, Note_off_c, 3, 54, 0
7, 26520, Note_on_c, 3, 47, 88
7, 26636, Note_off_c, 3, 47, 0
7, 26640, Note_on_c, 3, 52, 88
7, 26756, Note_off_c, 3, 52, 0
7, 26760, Note_on_c, 3, 50, 88
7, 26876, Note_off_c, 3, 50, 0
7, 26880, Note_on_c, 3, 49, 88
7, 26996, Note_off_c, 3, 49, 0
7, 27000, Note_on_c, 3, 47, 88
7, 27116, Note_off_c, 3, 47, 0
7, 27120, Note_on_c, 3, 45, 88
7, 27354, Note_off_c, 3, 45, 0
7, 27960, Note_on_c, 3, 47, 88
7, 28076, Note_off_c, 3, 47, 0
7, 28080, Note_on_c, 3, 52, 88
7, 28196, Note_off_c, 3, 52, 0
7, 28200, Note_on_c, 3, 50, 88
7, 28316, Note_off_c, 3, 50, 0
7, 28320, Note_on_c, 3, 48, 88
7, 28436, Note_off_c, 3, 48, 0
7, 28440, Note_on_c, 3, 47, 88
7, 28556, Note_off_c, 3, 47, 0
7, 28560, Note_on_c, 3, 45, 88
7, 29034, Note_off_c, 3, 45, 0
7, 29040, Note_on_c, 3, 47, 88
7, 29393, Note_off_c, 3, 47, 0
7, 29400, Note_on_c, 3, 50, 88
7, 29516, Note_off_c, 3, 50, 0
7, 29520, Note_on_c, 3, 55, 88
7, 29636, Note_off_c, 3, 55, 0
7, 29640, Note_on_c, 3, 54, 88
7, 29756, Note_off_c, 3, 54, 0
7, 29760, Note_on_c, 3, 52, 88
7, 29876, Note_off_c, 3, 52, 0
7, 29880, Note_on_c, 3, 54, 88
7, 29996, Note_off_c, 3, 54, 0
7, 30000, Note_on_c, 3, 55, 88
7, 30116, Note_off_c, 3, 55, 0
7, 30120, Note_on_c, 3, 52, 88
7, 30236, Note_off_c, 3, 52, 0
7, 30240, Note_on_c, 3, 48, 88
7, 30356, Note_off_c, 3, 48, 0
7, 30360, Note_on_c, 3, 45, 88
7, 30476, Note_off_c, 3, 45, 0
7, 30480, Note_on_c, 3, 50, 88
7, 30596, Note_off_c, 3, 50, 0
7, 30600, Note_on_c, 3, 48, 88
7, 30716, Note_off_c, 3, 48, 0
7, 30720, Note_on_c, 3, 47, 88
7, 30836, Note_off_c, 3, 47, 0
7, 30840, Note_on_c, 3, 50, 88
7, 30956, Note_off_c, 3, 50, 0
7, 30960, Note_on_c, 3, 55, 88
7, 31076, Note_off_c, 3, 55, 0
7, 31080, Note_on_c, 3, 54, 88
7, 31196, Note_off_c, 3, 54, 0
7, 31200, Note_on_c, 3, 52, 88
7, 31796, Note_off_c, 3, 52, 0
7, 31800, Note_on_c, 3, 50, 88
7, 31916, Note_off_c, 3, 50, 0
7, 31920, Note_on_c, 3, 49, 88
7, 32036, Note_off_c, 3, 49, 0
7, 32040, Note_on_c, 3, 45, 88
7, 32156, Note_off_c, 3, 45, 0
7, 32160, Note_on_c, 3, 50, 88
7, 32276, Note_off_c, 3, 50, 0
7, 32280, Note_on_c, 3, 48, 88
7, 32396, Note_off_c, 3, 48, 0
7, 32400, Note_on_c, 3, 47, 88
7, 32516, Note_off_c, 3, 47, 0
7, 32520, Note_on_c, 3, 45, 88
7, 32636, Note_off_c, 3, 45, 0
7, 32640, Note_on_c, 3, 43, 88
7, 32874, Note_off_c, 3, 43, 0
7, 32880, Note_on_c, 3, 44, 88
7, 33114, Note_off_c, 3, 44, 0
7, 33120, Note_on_c, 3, 45, 88
7, 33590, Note_off_c, 3, 45, 0
7, 33600, Note_on_c, 3, 46, 88
7, 34070, Note_off_c, 3, 46, 0
7, 34080, Note_on_c, 3, 47, 88
7, 34665, Note_off_c, 3, 47, 0
7, 34680, Note_on_c, 3, 47, 88
7, 34796, Note_off_c, 3, 47, 0
7, 34800, Note_on_c, 3, 52, 88
7, 34916, Note_off_c, 3, 52, 0
7, 34920, Note_on_c, 3, 50, 88
7, 35036, Note_off_c, 3, 50, 0
7, 35040, Note_on_c, 3, 49, 88
7, 35156, Note_off_c, 3, 49, 0
7, 35160, Note_on_c, 3, 52, 88
7, 35276, Note_off_c, 3, 52, 0
7, 35280, Note_on_c, 3, 57, 88
7, 35396, Note_off_c, 3, 57, 0
7, 35400, Note_on_c, 3, 55, 88
7, 35516, Note_off_c, 3, 55, 0
7, 35520, Note_on_c, 3, 54, 88
7, 35636, Note_off_c, 3, 54, 0
7, 35640, Note_on_c, 3, 57, 88
7, 35756, Note_off_c, 3, 57, 0
7, 35760, Note_on_c, 3, 62, 88
7, 35876, Note_off_c, 3, 62, 0
7, 35880, Note_on_c, 3, 61, 88
7, 35996, Note_off_c, 3, 61, 0
7, 36000, Note_on_c, 3, 59, 88
7, 36116, Note_off_c, 3, 59, 0
7, 36120, Note_on_c, 3, 57, 88
7, 36236, Note_off_c, 3, 57, 0
7, 36240, Note_on_c, 3, 55, 88
7, 36356, Note_off_c, 3, 55, 0
7, 36360, Note_on_c, 3, 54, 88
7, 36476, Note_off_c, 3, 54, 0
7, 36480, Note_on_c, 3, 52, 88
7, 36596, Note_off_c, 3, 52, 0
7, 36600, Note_on_c, 3, 50, 88
7, 36716, Note_off_c, 3, 50, 0
7, 36720, Note_on_c, 3, 49, 88
7, 36836, Note_off_c, 3, 49, 0
7, 36840, Note_on_c, 3, 47, 88
7, 36956, Note_off_c, 3, 47, 0
7, 36960, Note_on_c, 3, 45, 88
7, 37076, Note_off_c, 3, 45, 0
7, 37080, Note_on_c, 3, 43, 88
7, 37196, Note_off_c, 3, 43, 0
7, 37200, Note_on_c, 3, 42, 88
7, 37316, Note_off_c, 3, 42, 0
7, 37320, Note_on_c, 3, 40, 88
7, 37436, Note_off_c, 3, 40, 0
7, 37440, Note_on_c, 3, 38, 88
7, 37556, Note_off_c, 3, 38, 0
7, 37800, Note_on_c, 3, 50, 88
7, 37916, Note_off_c, 3, 50, 0
7, 37920, Note_on_c, 3, 52, 88
7, 38154, Note_off_c, 3, 52, 0
7, 38280, Note_on_c, 3, 52, 88
7, 38396, Note_off_c, 3, 52, 0
7, 38400, Note_on_c, 3, 57, 88
7, 38516, Note_off_c, 3, 57, 0
7, 38520, Note_on_c, 3, 55, 88
7, 38636, Note_off_c, 3, 55, 0
7, 38640, Note_on_c, 3, 54, 88
7, 38756, Note_off_c, 3, 54, 0
7, 38760, Note_on_c, 3, 52, 88
7, 38876, Note_off_c, 3, 52, 0
7, 38880, Note_on_c, 3, 50, 88
7, 38996, Note_off_c, 3, 50, 0
7, 39000, Note_on_c, 3, 52, 88
7, 39116, Note_off_c, 3, 52, 0
7, 39120, Note_on_c, 3, 54, 88
7, 39476, Note_off_c, 3, 54, 0
7, 39480, Note_on_c, 3, 47, 88
7, 39596, Note_off_c, 3, 47, 0
7, 39600, Note_on_c, 3, 52, 88
7, 39716, Note_off_c, 3, 52, 0
7, 39720, Note_on_c, 3, 50, 88
7, 39836, Note_off_c, 3, 50, 0
7, 39840, Note_on_c, 3, 49, 88
7, 39956, Note_off_c, 3, 49, 0
7, 39960, Note_on_c, 3, 47, 88
7, 40076, Note_off_c, 3, 47, 0
7, 40080, Note_on_c, 3, 45, 88
7, 40436, Note_off_c, 3, 45, 0
7, 40440, Note_on_c, 3, 57, 88
7, 40545, Note_off_c, 3, 57, 0
7, 40560, Note_on_c, 3, 57, 88
7, 40665, Note_off_c, 3, 57, 0
7, 40680, Note_on_c, 3, 57, 88
7, 40796, Note_off_c, 3, 57, 0
7, 40800, Note_on_c, 3, 51, 88
7, 40916, Note_off_c, 3, 51, 0
7, 40920, Note_on_c, 3, 52, 88
7, 41036, Note_off_c, 3, 52, 0
7, 41040, Note_on_c, 3, 53, 88
7, 41396, Note_off_c, 3, 53, 0
7, 41400, Note_on_c, 3, 47, 88
7, 41516, Note_off_c, 3, 47, 0
7, 41520, Note_on_c, 3, 52, 88
7, 41636, Note_off_c, 3, 52, 0
7, 41640, Note_on_c, 3, 50, 88
7, 41756, Note_off_c, 3, 50, 0
7, 41760, Note_on_c, 3, 49, 88
7, 41876, Note_off_c, 3, 49, 0
7, 41880, Note_on_c, 3, 45, 88
7, 41996, Note_off_c, 3, 45, 0
7, 42000, Note_on_c, 3, 50, 88
7, 42116, Note_off_c, 3, 50, 0
7, 42120, Note_on_c, 3, 49, 88
7, 42236, Note_off_c, 3, 49, 0
7, 42240, Note_on_c, 3, 47, 88
7, 42356, Note_off_c, 3, 47, 0
7, 42600, Note_on_c, 3, 59, 88
7, 42705, Note_off_c, 3, 59, 0
7, 42720, Note_on_c, 3, 59, 88
7, 42825, Note_off_c, 3, 59, 0
7, 42840, Note_on_c, 3, 59, 88
7, 42956, Note_off_c, 3, 59, 0
7, 42960, Note_on_c, 3, 52, 88
7, 43194, Note_off_c, 3, 52, 0
7, 43200, Note_on_c, 3, 55, 88
7, 43553, Note_off_c, 3, 55, 0
7, 43560, Note_on_c, 3, 49, 88
7, 43676, Note_off_c, 3, 49, 0
7, 43680, Note_on_c, 3, 54, 88
7, 43796, Note_off_c, 3, 54, 0
7, 43800, Note_on_c, 3, 52, 88
7, 43916, Note_off_c, 3, 52, 0
7, 43920, Note_on_c, 3, 50, 88
7, 44394, Note_off_c, 3, 50, 0
7, 44520, Note_on_c, 3, 50, 88
7, 44636, Note_off_c, 3, 50, 0
7, 44640, Note_on_c, 3, 55, 88
7, 44756, Note_off_c, 3, 55, 0
7, 44760, Note_on_c, 3, 54, 88
7, 44876, Note_off_c, 3, 54, 0
7, 44880, Note_on_c, 3, 52, 88
7, 44996, Note_off_c, 3, 52, 0
7, 45000, Note_on_c, 3, 50, 88
7, 45116, Note_off_c, 3, 50, 0
7, 45120, Note_on_c, 3, 49, 88
7, 45354, Note_off_c, 3, 49, 0
7, 45480, Note_on_c, 3, 45, 88
7, 45596, Note_off_c, 3, 45, 0
7, 45600, Note_on_c, 3, 50, 88
7, 45716, Note_off_c, 3, 50, 0
7, 45720, Note_on_c, 3, 48, 88
7, 45836, Note_off_c, 3, 48, 0
7, 45840, Note_on_c, 3, 47, 88
7, 45956, Note_off_c, 3, 47, 0
7, 45960, Note_on_c, 3, 45, 88
7, 46076, Note_off_c, 3, 45, 0
7, 46080, Note_on_c, 3, 43, 88
7, 46550, Note_off_c, 3, 43, 0
7, 46560, Note_on_c, 3, 45, 88
7, 47510, Note_off_c, 3, 45, 0
7, 47520, Note_on_c, 3, 38, 88
7, 47990, Note_off_c, 3, 38, 0
7, 47990, End_track
0, 0, End_of_file
