0, 0, Header, 1, 6, 240
1, 0, Start_track
1, 0, Time_signature, 4, 2, 24, 8
1, 0, Tempo, 967741
1, 0, SMPTE_offset, 64, 0, 0, 0, 93
1, 0, End_track
2, 0, Start_track
2, 0, Title_t, "(C) & (P) 1993"
2, 127, End_track
3, 0, Start_track
3, 0, Title_t, "CCARH,Stanford"
3, 0, End_track
4, 0, Start_track
4, 0, Title_t, "Track 1"
4, 0, Program_c, 0, 6
4, 1920, Note_on_c, 0, 69, 88
4, 1959, Note_off_c, 0, 69, 0
4, 1960, Note_on_c, 0, 71, 88
4, 1999, Note_off_c, 0, 71, 0
4, 2000, Note_on_c, 0, 72, 88
4, 2039, Note_off_c, 0, 72, 0
4, 2040, Note_on_c, 0, 74, 88
4, 2079, Note_off_c, 0, 74, 0
4, 2080, Note_on_c, 0, 72, 88
4, 2119, Note_off_c, 0, 72, 0
4, 2120, Note_on_c, 0, 71, 88
4, 2159, Note_off_c, 0, 71, 0
4, 2160, Note_on_c, 0, 72, 88
4, 2199, Note_off_c, 0, 72, 0
4, 2200, Note_on_c, 0, 74, 88
4, 2239, Note_off_c, 0, 74, 0
4, 2240, Note_on_c, 0, 76, 88
4, 2279, Note_off_c, 0, 76, 0
4, 2280, Note_on_c, 0, 77, 88
4, 2319, Note_off_c, 0, 77, 0
4, 2320, Note_on_c, 0, 76, 88
4, 2359, Note_off_c, 0, 76, 0
4, 2360, Note_on_c, 0, 74, 88
4, 2399, Note_off_c, 0, 74, 0
4, 2400, Note_on_c, 0, 76, 88
4, 2516, Note_off_c, 0, 76, 0
4, 2520, Note_on_c, 0, 81, 88
4, 2636, Note_off_c, 0, 81, 0
4, 2640, Note_on_c, 0, 80, 88
4, 2756, Note_off_c, 0, 80, 0
4, 2760, Note_on_c, 0, 79, 88
4, 2876, Note_off_c, 0, 79, 0
4, 2880, Note_on_c, 0, 78, 88
4, 2996, Note_off_c, 0, 78, 0
4, 3000, Note_on_c, 0, 77, 88
4, 3116, Note_off_c, 0, 77, 0
4, 3120, Note_on_c, 0, 76, 88
4, 3236, Note_off_c, 0, 76, 0
4, 3240, Note_on_c, 0, 74, 88
4, 3474, Note_off_c, 0, 74, 0
4, 3480, Note_on_c, 0, 72, 88
4, 3596, Note_off_c, 0, 72, 0
4, 3600, Note_on_c, 0, 71, 88
4, 3716, Note_off_c, 0, 71, 0
4, 3720, Note_on_c, 0, 76, 88
4, 3836, Note_off_c, 0, 76, 0
4, 3840, Note_on_c, 0, 69, 88
4, 3956, Note_off_c, 0, 69, 0
4, 3960, Note_on_c, 0, 71, 88
4, 4076, Note_off_c, 0, 71, 0
4, 4080, Note_on_c, 0, 72, 88
4, 4196, Note_off_c, 0, 72, 0
4, 4200, Note_on_c, 0, 68, 88
4, 4316, Note_off_c, 0, 68, 0
4, 4320, Note_on_c, 0, 69, 88
4, 4359, Note_off_c, 0, 69, 0
4, 4360, Note_on_c, 0, 67, 88
4, 4399, Note_off_c, 0, 67, 0
4, 4400, Note_on_c, 0, 65, 88
4, 4439, Note_off_c, 0, 65, 0
4, 4440, Note_on_c, 0, 64, 88
4, 4479, Note_off_c, 0, 64, 0
4, 4480, Note_on_c, 0, 65, 88
4, 4519, Note_off_c, 0, 65, 0
4, 4520, Note_on_c, 0, 67, 88
4, 4559, Note_off_c, 0, 67, 0
4, 4560, Note_on_c, 0, 65, 88
4, 4599, Note_off_c, 0, 65, 0
4, 4600, Note_on_c, 0, 64, 88
4, 4639, Note_off_c, 0, 64, 0
4, 4640, Note_on_c, 0, 62, 88
4, 4679, Note_off_c, 0, 62, 0
4, 4680, Note_on_c, 0, 61, 88
4, 4719, Note_off_c, 0, 61, 0
4, 4720, Note_on_c, 0, 62, 88
4, 4759, Note_off_c, 0, 62, 0
4, 4760, Note_on_c, 0, 64, 88
4, 4799, Note_off_c, 0, 64, 0
4, 4800, Note_on_c, 0, 62, 88
4, 4916, Note_off_c, 0, 62, 0
4, 4920, Note_on_c, 0, 61, 88
4, 5036, Note_off_c, 0, 61, 0
4, 5040, Note_on_c, 0, 62, 88
4, 5156, Note_off_c, 0, 62, 0
4, 5160, Note_on_c, 0, 67, 88
4, 5335, Note_off_c, 0, 67, 0
4, 5340, Note_on_c, 0, 64, 88
4, 5398, Note_off_c, 0, 64, 0
4, 5400, Note_on_c, 0, 65, 88
4, 5458, Note_off_c, 0, 65, 0
4, 5460, Note_on_c, 0, 67, 88
4, 5518, Note_off_c, 0, 67, 0
4, 5520, Note_on_c, 0, 69, 88
4, 5578, Note_off_c, 0, 69, 0
4, 5580, Note_on_c, 0, 71, 88
4, 5638, Note_off_c, 0, 71, 0
4, 5640, Note_on_c, 0, 72, 88
4, 5698, Note_off_c, 0, 72, 0
4, 5700, Note_on_c, 0, 69, 88
4, 5758, Note_off_c, 0, 69, 0
4, 5760, Note_on_c, 0, 74, 88
4, 5818, Note_off_c, 0, 74, 0
4, 5820, Note_on_c, 0, 73, 88
4, 5878, Note_off_c, 0, 73, 0
4, 5880, Note_on_c, 0, 74, 88
4, 5938, Note_off_c, 0, 74, 0
4, 5940, Note_on_c, 0, 76, 88
4, 5998, Note_off_c, 0, 76, 0
4, 6000, Note_on_c, 0, 77, 88
4, 6058, Note_off_c, 0, 77, 0
4, 6060, Note_on_c, 0, 71, 88
4, 6118, Note_off_c, 0, 71, 0
4, 6120, Note_on_c, 0, 76, 88
4, 6178, Note_off_c, 0, 76, 0
4, 6180, Note_on_c, 0, 74, 88
4, 6238, Note_off_c, 0, 74, 0
4, 6240, Note_on_c, 0, 73, 88
4, 6298, Note_off_c, 0, 73, 0
4, 6300, Note_on_c, 0, 69, 88
4, 6358, Note_off_c, 0, 69, 0
4, 6360, Note_on_c, 0, 74, 88
4, 6594, Note_off_c, 0, 74, 0
4, 6600, Note_on_c, 0, 72, 88
4, 6836, Note_off_c, 0, 72, 0
4, 6840, Note_on_c, 0, 70, 88
4, 6956, Note_off_c, 0, 70, 0
4, 6960, Note_on_c, 0, 69, 88
4, 7194, Note_off_c, 0, 69, 0
4, 7200, Note_on_c, 0, 67, 88
4, 7258, Note_off_c, 0, 67, 0
4, 7260, Note_on_c, 0, 79, 88
4, 7318, Note_off_c, 0, 79, 0
4, 7320, Note_on_c, 0, 81, 88
4, 7378, Note_off_c, 0, 81, 0
4, 7380, Note_on_c, 0, 79, 88
4, 7438, Note_off_c, 0, 79, 0
4, 7440, Note_on_c, 0, 77, 88
4, 7498, Note_off_c, 0, 77, 0
4, 7500, Note_on_c, 0, 81, 88
4, 7558, Note_off_c, 0, 81, 0
4, 7560, Note_on_c, 0, 79, 88
4, 7618, Note_off_c, 0, 79, 0
4, 7620, Note_on_c, 0, 77, 88
4, 7678, Note_off_c, 0, 77, 0
4, 7680, Note_on_c, 0, 76, 88
4, 7738, Note_off_c, 0, 76, 0
4, 7740, Note_on_c, 0, 72, 88
4, 7798, Note_off_c, 0, 72, 0
4, 7800, Note_on_c, 0, 77, 88
4, 8034, Note_off_c, 0, 77, 0
4, 8040, Note_on_c, 0, 76, 88
4, 8215, Note_off_c, 0, 76, 0
4, 8220, Note_on_c, 0, 77, 88
4, 8336, Note_off_c, 0, 77, 0
4, 8340, Note_on_c, 0, 76, 88
4, 8456, Note_off_c, 0, 76, 0
4, 8460, Note_on_c, 0, 74, 88
4, 8576, Note_off_c, 0, 74, 0
4, 8580, Note_on_c, 0, 73, 88
4, 8638, Note_off_c, 0, 73, 0
4, 8640, Note_on_c, 0, 74, 88
4, 8756, Note_off_c, 0, 74, 0
4, 8760, Note_on_c, 0, 70, 88
4, 8876, Note_off_c, 0, 70, 0
4, 8880, Note_on_c, 0, 69, 88
4, 8919, Note_off_c, 0, 69, 0
4, 8920, Note_on_c, 0, 67, 88
4, 8959, Note_off_c, 0, 67, 0
4, 8960, Note_on_c, 0, 65, 88
4, 8999, Note_off_c, 0, 65, 0
4, 9000, Note_on_c, 0, 64, 88
4, 9039, Note_off_c, 0, 64, 0
4, 9040, Note_on_c, 0, 65, 88
4, 9079, Note_off_c, 0, 65, 0
4, 9080, Note_on_c, 0, 67, 88
4, 9119, Note_off_c, 0, 67, 0
4, 9120, Note_on_c, 0, 65, 88
4, 9159, Note_off_c, 0, 65, 0
4, 9160, Note_on_c, 0, 64, 88
4, 9199, Note_off_c, 0, 64, 0
4, 9200, Note_on_c, 0, 62, 88
4, 9239, Note_off_c, 0, 62, 0
4, 9240, Note_on_c, 0, 61, 88
4, 9279, Note_off_c, 0, 61, 0
4, 9280, Note_on_c, 0, 62, 88
4, 9319, Note_off_c, 0, 62, 0
4, 9320, Note_on_c, 0, 64, 88
4, 9359, Note_off_c, 0, 64, 0
4, 9360, Note_on_c, 0, 62, 88
4, 9399, Note_off_c, 0, 62, 0
4, 9400, Note_on_c, 0, 64, 88
4, 9439, Note_off_c, 0, 64, 0
4, 9440, Note_on_c, 0, 65, 88
4, 9479, Note_off_c, 0, 65, 0
4, 9480, Note_on_c, 0, 67, 88
4, 9519, Note_off_c, 0, 67, 0
4, 9520, Note_on_c, 0, 65, 88
4, 9559, Note_off_c, 0, 65, 0
4, 9560, Note_on_c, 0, 64, 88
4, 9599, Note_off_c, 0, 64, 0
4, 9600, Note_on_c, 0, 65, 88
4, 9639, Note_off_c, 0, 65, 0
4, 9640, Note_on_c, 0, 67, 88
4, 9679, Note_off_c, 0, 67, 0
4, 9680, Note_on_c, 0, 69, 88
4, 9719, Note_off_c, 0, 69, 0
4, 9720, Note_on_c, 0, 70, 88
4, 9759, Note_off_c, 0, 70, 0
4, 9760, Note_on_c, 0, 69, 88
4, 9799, Note_off_c, 0, 69, 0
4, 9800, Note_on_c, 0, 67, 88
4, 9839, Note_off_c, 0, 67, 0
4, 9840, Note_on_c, 0, 69, 88
4, 9956, Note_off_c, 0, 69, 0
4, 9960, Note_on_c, 0, 74, 88
4, 10076, Note_off_c, 0, 74, 0
4, 10080, Note_on_c, 0, 73, 88
4, 10196, Note_off_c, 0, 73, 0
4, 10200, Note_on_c, 0, 72, 88
4, 10316, Note_off_c, 0, 72, 0
4, 10320, Note_on_c, 0, 71, 88
4, 10436, Note_off_c, 0, 71, 0
4, 10440, Note_on_c, 0, 70, 88
4, 10556, Note_off_c, 0, 70, 0
4, 10560, Note_on_c, 0, 69, 88
4, 10676, Note_off_c, 0, 69, 0
4, 10680, Note_on_c, 0, 81, 88
4, 10796, Note_off_c, 0, 81, 0
4, 10800, Note_on_c, 0, 80, 88
4, 10916, Note_off_c, 0, 80, 0
4, 10920, Note_on_c, 0, 79, 88
4, 11036, Note_off_c, 0, 79, 0
4, 11040, Note_on_c, 0, 78, 88
4, 11156, Note_off_c, 0, 78, 0
4, 11160, Note_on_c, 0, 77, 88
4, 11276, Note_off_c, 0, 77, 0
4, 11280, Note_on_c, 0, 76, 88
4, 11636, Note_off_c, 0, 76, 0
4, 11640, Note_on_c, 0, 74, 88
4, 11874, Note_off_c, 0, 74, 0
4, 11880, Note_on_c, 0, 73, 88
4, 11996, Note_off_c, 0, 73, 0
4, 12060, Note_on_c, 0, 69, 88
4, 12118, Note_off_c, 0, 69, 0
4, 12120, Note_on_c, 0, 70, 88
4, 12178, Note_off_c, 0, 70, 0
4, 12180, Note_on_c, 0, 69, 88
4, 12238, Note_off_c, 0, 69, 0
4, 12240, Note_on_c, 0, 67, 88
4, 12298, Note_off_c, 0, 67, 0
4, 12300, Note_on_c, 0, 70, 88
4, 12358, Note_off_c, 0, 70, 0
4, 12360, Note_on_c, 0, 69, 88
4, 12418, Note_off_c, 0, 69, 0
4, 12420, Note_on_c, 0, 67, 88
4, 12478, Note_off_c, 0, 67, 0
4, 12480, Note_on_c, 0, 65, 88
4, 12596, Note_off_c, 0, 65, 0
4, 12720, Note_on_c, 0, 69, 88
4, 12759, Note_off_c, 0, 69, 0
4, 12760, Note_on_c, 0, 71, 88
4, 12799, Note_off_c, 0, 71, 0
4, 12800, Note_on_c, 0, 73, 88
4, 12839, Note_off_c, 0, 73, 0
4, 12840, Note_on_c, 0, 74, 88
4, 12879, Note_off_c, 0, 74, 0
4, 12880, Note_on_c, 0, 73, 88
4, 12919, Note_off_c, 0, 73, 0
4, 12920, Note_on_c, 0, 71, 88
4, 12959, Note_off_c, 0, 71, 0
4, 12960, Note_on_c, 0, 73, 88
4, 12999, Note_off_c, 0, 73, 0
4, 13000, Note_on_c, 0, 74, 88
4, 13039, Note_off_c, 0, 74, 0
4, 13040, Note_on_c, 0, 76, 88
4, 13079, Note_off_c, 0, 76, 0
4, 13080, Note_on_c, 0, 77, 88
4, 13119, Note_off_c, 0, 77, 0
4, 13120, Note_on_c, 0, 76, 88
4, 13159, Note_off_c, 0, 76, 0
4, 13160, Note_on_c, 0, 74, 88
4, 13199, Note_off_c, 0, 74, 0
4, 13200, Note_on_c, 0, 76, 88
4, 13316, Note_off_c, 0, 76, 0
4, 13320, Note_on_c, 0, 81, 88
4, 13436, Note_off_c, 0, 81, 0
4, 13440, Note_on_c, 0, 80, 88
4, 13556, Note_off_c, 0, 80, 0
4, 13560, Note_on_c, 0, 79, 88
4, 13676, Note_off_c, 0, 79, 0
4, 13680, Note_on_c, 0, 78, 88
4, 13796, Note_off_c, 0, 78, 0
4, 13800, Note_on_c, 0, 77, 88
4, 13916, Note_off_c, 0, 77, 0
4, 13920, Note_on_c, 0, 76, 88
4, 14036, Note_off_c, 0, 76, 0
4, 14040, Note_on_c, 0, 74, 88
4, 14274, Note_off_c, 0, 74, 0
4, 14280, Note_on_c, 0, 72, 88
4, 14396, Note_off_c, 0, 72, 0
4, 14400, Note_on_c, 0, 71, 88
4, 14516, Note_off_c, 0, 71, 0
4, 14520, Note_on_c, 0, 70, 88
4, 14754, Note_off_c, 0, 70, 0
4, 14760, Note_on_c, 0, 69, 88
4, 14876, Note_off_c, 0, 69, 0
4, 14880, Note_on_c, 0, 68, 88
4, 14996, Note_off_c, 0, 68, 0
4, 15000, Note_on_c, 0, 67, 88
4, 15225, Note_off_c, 0, 67, 0
4, 15240, Note_on_c, 0, 67, 88
4, 15259, Note_off_c, 0, 67, 0
4, 15260, Note_on_c, 0, 65, 88
4, 15279, Note_off_c, 0, 65, 0
4, 15280, Note_on_c, 0, 67, 88
4, 15299, Note_off_c, 0, 67, 0
4, 15300, Note_on_c, 0, 65, 88
4, 15319, Note_off_c, 0, 65, 0
4, 15320, Note_on_c, 0, 67, 88
4, 15339, Note_off_c, 0, 67, 0
4, 15340, Note_on_c, 0, 65, 88
4, 15359, Note_off_c, 0, 65, 0
4, 15360, Note_on_c, 0, 64, 88
4, 15476, Note_off_c, 0, 64, 0
4, 16120, Note_on_c, 0, 62, 88
4, 16159, Note_off_c, 0, 62, 0
4, 16160, Note_on_c, 0, 64, 88
4, 16199, Note_off_c, 0, 64, 0
4, 16200, Note_on_c, 0, 65, 88
4, 16239, Note_off_c, 0, 65, 0
4, 16240, Note_on_c, 0, 64, 88
4, 16279, Note_off_c, 0, 64, 0
4, 16280, Note_on_c, 0, 62, 88
4, 16319, Note_off_c, 0, 62, 0
4, 16360, Note_on_c, 0, 70, 88
4, 16399, Note_off_c, 0, 70, 0
4, 16400, Note_on_c, 0, 69, 88
4, 16439, Note_off_c, 0, 69, 0
4, 16440, Note_on_c, 0, 67, 88
4, 16479, Note_off_c, 0, 67, 0
4, 16480, Note_on_c, 0, 69, 88
4, 16519, Note_off_c, 0, 69, 0
4, 16520, Note_on_c, 0, 70, 88
4, 16559, Note_off_c, 0, 70, 0
4, 16600, Note_on_c, 0, 69, 88
4, 16639, Note_off_c, 0, 69, 0
4, 16640, Note_on_c, 0, 70, 88
4, 16679, Note_off_c, 0, 70, 0
4, 16680, Note_on_c, 0, 72, 88
4, 16719, Note_off_c, 0, 72, 0
4, 16720, Note_on_c, 0, 70, 88
4, 16759, Note_off_c, 0, 70, 0
4, 16760, Note_on_c, 0, 69, 88
4, 16799, Note_off_c, 0, 69, 0
4, 16800, Note_on_c, 0, 70, 88
4, 16916, Note_off_c, 0, 70, 0
4, 16920, Note_on_c, 0, 66, 88
4, 17036, Note_off_c, 0, 66, 0
4, 17040, Note_on_c, 0, 67, 88
4, 17079, Note_off_c, 0, 67, 0
4, 17080, Note_on_c, 0, 69, 88
4, 17119, Note_off_c, 0, 69, 0
4, 17120, Note_on_c, 0, 70, 88
4, 17159, Note_off_c, 0, 70, 0
4, 17160, Note_on_c, 0, 72, 88
4, 17199, Note_off_c, 0, 72, 0
4, 17200, Note_on_c, 0, 70, 88
4, 17239, Note_off_c, 0, 70, 0
4, 17240, Note_on_c, 0, 69, 88
4, 17279, Note_off_c, 0, 69, 0
4, 17280, Note_on_c, 0, 70, 88
4, 17319, Note_off_c, 0, 70, 0
4, 17320, Note_on_c, 0, 72, 88
4, 17359, Note_off_c, 0, 72, 0
4, 17360, Note_on_c, 0, 74, 88
4, 17399, Note_off_c, 0, 74, 0
4, 17400, Note_on_c, 0, 75, 88
4, 17439, Note_off_c, 0, 75, 0
4, 17440, Note_on_c, 0, 74, 88
4, 17479, Note_off_c, 0, 74, 0
4, 17480, Note_on_c, 0, 73, 88
4, 17519, Note_off_c, 0, 73, 0
4, 17520, Note_on_c, 0, 74, 88
4, 17873, Note_off_c, 0, 74, 0
4, 18000, Note_on_c, 0, 79, 88
4, 18039, Note_off_c, 0, 79, 0
4, 18040, Note_on_c, 0, 77, 88
4, 18079, Note_off_c, 0, 77, 0
4, 18080, Note_on_c, 0, 76, 88
4, 18119, Note_off_c, 0, 76, 0
4, 18120, Note_on_c, 0, 74, 88
4, 18159, Note_off_c, 0, 74, 0
4, 18160, Note_on_c, 0, 76, 88
4, 18199, Note_off_c, 0, 76, 0
4, 18200, Note_on_c, 0, 77, 88
4, 18239, Note_off_c, 0, 77, 0
4, 18240, Note_on_c, 0, 76, 88
4, 18356, Note_off_c, 0, 76, 0
4, 18360, Note_on_c, 0, 79, 88
4, 18476, Note_off_c, 0, 79, 0
4, 18480, Note_on_c, 0, 72, 88
4, 18596, Note_off_c, 0, 72, 0
4, 18960, Note_on_c, 0, 77, 88
4, 18999, Note_off_c, 0, 77, 0
4, 19000, Note_on_c, 0, 75, 88
4, 19039, Note_off_c, 0, 75, 0
4, 19040, Note_on_c, 0, 74, 88
4, 19079, Note_off_c, 0, 74, 0
4, 19080, Note_on_c, 0, 72, 88
4, 19119, Note_off_c, 0, 72, 0
4, 19120, Note_on_c, 0, 74, 88
4, 19159, Note_off_c, 0, 74, 0
4, 19160, Note_on_c, 0, 75, 88
4, 19199, Note_off_c, 0, 75, 0
4, 19200, Note_on_c, 0, 74, 88
4, 19434, Note_off_c, 0, 74, 0
4, 19440, Note_on_c, 0, 73, 88
4, 19479, Note_off_c, 0, 73, 0
4, 19480, Note_on_c, 0, 74, 88
4, 19519, Note_off_c, 0, 74, 0
4, 19520, Note_on_c, 0, 76, 88
4, 19559, Note_off_c, 0, 76, 0
4, 19560, Note_on_c, 0, 77, 88
4, 19599, Note_off_c, 0, 77, 0
4, 19600, Note_on_c, 0, 76, 88
4, 19639, Note_off_c, 0, 76, 0
4, 19640, Note_on_c, 0, 74, 88
4, 19679, Note_off_c, 0, 74, 0
4, 19680, Note_on_c, 0, 76, 88
4, 19719, Note_off_c, 0, 76, 0
4, 19720, Note_on_c, 0, 77, 88
4, 19759, Note_off_c, 0, 77, 0
4, 19760, Note_on_c, 0, 79, 88
4, 19799, Note_off_c, 0, 79, 0
4, 19800, Note_on_c, 0, 81, 88
4, 19839, Note_off_c, 0, 81, 0
4, 19840, Note_on_c, 0, 79, 88
4, 19879, Note_off_c, 0, 79, 0
4, 19880, Note_on_c, 0, 77, 88
4, 19919, Note_off_c, 0, 77, 0
4, 19920, Note_on_c, 0, 79, 88
4, 20036, Note_off_c, 0, 79, 0
4, 20040, Note_on_c, 0, 77, 88
4, 20156, Note_off_c, 0, 77, 0
4, 20160, Note_on_c, 0, 76, 88
4, 20454, Note_off_c, 0, 76, 0
4, 20460, Note_on_c, 0, 74, 88
4, 20518, Note_off_c, 0, 74, 0
4, 20520, Note_on_c, 0, 75, 88
4, 20578, Note_off_c, 0, 75, 0
4, 20580, Note_on_c, 0, 74, 88
4, 20638, Note_off_c, 0, 74, 0
4, 20640, Note_on_c, 0, 73, 88
4, 20698, Note_off_c, 0, 73, 0
4, 20700, Note_on_c, 0, 76, 88
4, 20758, Note_off_c, 0, 76, 0
4, 20760, Note_on_c, 0, 74, 88
4, 20818, Note_off_c, 0, 74, 0
4, 20820, Note_on_c, 0, 72, 88
4, 20878, Note_off_c, 0, 72, 0
4, 20880, Note_on_c, 0, 71, 88
4, 20996, Note_off_c, 0, 71, 0
4, 21000, Note_on_c, 0, 70, 88
4, 21116, Note_off_c, 0, 70, 0
4, 21120, Note_on_c, 0, 69, 88
4, 21473, Note_off_c, 0, 69, 0
4, 21480, Note_on_c, 0, 67, 88
4, 21714, Note_off_c, 0, 67, 0
4, 21720, Note_on_c, 0, 65, 88
4, 21836, Note_off_c, 0, 65, 0
4, 21840, Note_on_c, 0, 64, 88
4, 22074, Note_off_c, 0, 64, 0
4, 22080, Note_on_c, 0, 62, 88
4, 22314, Note_off_c, 0, 62, 0
4, 23520, Note_on_c, 0, 62, 88
4, 23559, Note_off_c, 0, 62, 0
4, 23560, Note_on_c, 0, 64, 88
4, 23599, Note_off_c, 0, 64, 0
4, 23600, Note_on_c, 0, 65, 88
4, 23639, Note_off_c, 0, 65, 0
4, 23640, Note_on_c, 0, 67, 88
4, 23679, Note_off_c, 0, 67, 0
4, 23680, Note_on_c, 0, 65, 88
4, 23719, Note_off_c, 0, 65, 0
4, 23720, Note_on_c, 0, 64, 88
4, 23759, Note_off_c, 0, 64, 0
4, 23760, Note_on_c, 0, 65, 88
4, 23799, Note_off_c, 0, 65, 0
4, 23800, Note_on_c, 0, 67, 88
4, 23839, Note_off_c, 0, 67, 0
4, 23840, Note_on_c, 0, 69, 88
4, 23879, Note_off_c, 0, 69, 0
4, 23880, Note_on_c, 0, 70, 88
4, 23919, Note_off_c, 0, 70, 0
4, 23920, Note_on_c, 0, 69, 88
4, 23959, Note_off_c, 0, 69, 0
4, 23960, Note_on_c, 0, 67, 88
4, 23999, Note_off_c, 0, 67, 0
4, 24000, Note_on_c, 0, 69, 88
4, 24116, Note_off_c, 0, 69, 0
4, 24120, Note_on_c, 0, 74, 88
4, 24236, Note_off_c, 0, 74, 0
4, 24240, Note_on_c, 0, 73, 88
4, 24356, Note_off_c, 0, 73, 0
4, 24360, Note_on_c, 0, 72, 88
4, 24476, Note_off_c, 0, 72, 0
4, 24480, Note_on_c, 0, 71, 88
4, 24596, Note_off_c, 0, 71, 0
4, 24600, Note_on_c, 0, 70, 88
4, 24716, Note_off_c, 0, 70, 0
4, 24720, Note_on_c, 0, 69, 88
4, 24836, Note_off_c, 0, 69, 0
4, 24840, Note_on_c, 0, 67, 88
4, 25005, Note_off_c, 0, 67, 0
4, 25020, Note_on_c, 0, 67, 88
4, 25078, Note_off_c, 0, 67, 0
4, 25080, Note_on_c, 0, 65, 88
4, 25138, Note_off_c, 0, 65, 0
4, 25140, Note_on_c, 0, 64, 88
4, 25198, Note_off_c, 0, 64, 0
4, 25200, Note_on_c, 0, 65, 88
4, 25224, Note_off_c, 0, 65, 0
4, 25225, Note_on_c, 0, 64, 88
4, 25249, Note_off_c, 0, 64, 0
4, 25250, Note_on_c, 0, 65, 88
4, 25274, Note_off_c, 0, 65, 0
4, 25275, Note_on_c, 0, 64, 88
4, 25297, Note_off_c, 0, 64, 0
4, 25298, Note_on_c, 0, 65, 88
4, 25319, Note_off_c, 0, 65, 0
4, 25320, Note_on_c, 0, 64, 88
4, 25378, Note_off_c, 0, 64, 0
4, 25380, Note_on_c, 0, 62, 88
4, 25425, Note_off_c, 0, 62, 0
4, 25440, Note_on_c, 0, 62, 88
4, 25910, Note_off_c, 0, 62, 0
4, 25910, End_track
5, 0, Start_track
5, 0, Title_t, "Track 2"
5, 0, Program_c, 1, 6
5, 0, Note_on_c, 1, 62, 88
5, 39, Note_off_c, 1, 62, 0
5, 40, Note_on_c, 1, 64, 88
5, 79, Note_off_c, 1, 64, 0
5, 80, Note_on_c, 1, 65, 88
5, 119, Note_off_c, 1, 65, 0
5, 120, Note_on_c, 1, 67, 88
5, 159, Note_off_c, 1, 67, 0
5, 160, Note_on_c, 1, 65, 88
5, 199, Note_off_c, 1, 65, 0
5, 200, Note_on_c, 1, 64, 88
5, 239, Note_off_c, 1, 64, 0
5, 240, Note_on_c, 1, 65, 88
5, 279, Note_off_c, 1, 65, 0
5, 280, Note_on_c, 1, 67, 88
5, 319, Note_off_c, 1, 67, 0
5, 320, Note_on_c, 1, 69, 88
5, 359, Note_off_c, 1, 69, 0
5, 360, Note_on_c, 1, 70, 88
5, 399, Note_off_c, 1, 70, 0
5, 400, Note_on_c, 1, 69, 88
5, 439, Note_off_c, 1, 69, 0
5, 440, Note_on_c, 1, 67, 88
5, 479, Note_off_c, 1, 67, 0
5, 480, Note_on_c, 1, 69, 88
5, 596, Note_off_c, 1, 69, 0
5, 600, Note_on_c, 1, 74, 88
5, 716, Note_off_c, 1, 74, 0
5, 720, Note_on_c, 1, 73, 88
5, 836, Note_off_c, 1, 73, 0
5, 840, Note_on_c, 1, 72, 88
5, 956, Note_off_c, 1, 72, 0
5, 960, Note_on_c, 1, 71, 88
5, 1076, Note_off_c, 1, 71, 0
5, 1080, Note_on_c, 1, 70, 88
5, 1196, Note_off_c, 1, 70, 0
5, 1200, Note_on_c, 1, 69, 88
5, 1316, Note_off_c, 1, 69, 0
5, 1320, Note_on_c, 1, 67, 88
5, 1554, Note_off_c, 1, 67, 0
5, 1560, Note_on_c, 1, 65, 88
5, 1676, Note_off_c, 1, 65, 0
5, 1680, Note_on_c, 1, 64, 88
5, 1796, Note_off_c, 1, 64, 0
5, 1800, Note_on_c, 1, 69, 88
5, 1916, Note_off_c, 1, 69, 0
5, 1920, Note_on_c, 1, 65, 88
5, 2036, Note_off_c, 1, 65, 0
5, 2040, Note_on_c, 1, 62, 88
5, 2156, Note_off_c, 1, 62, 0
5, 2160, Note_on_c, 1, 69, 88
5, 2276, Note_off_c, 1, 69, 0
5, 2460, Note_on_c, 1, 59, 88
5, 2518, Note_off_c, 1, 59, 0
5, 2520, Note_on_c, 1, 60, 88
5, 2578, Note_off_c, 1, 60, 0
5, 2580, Note_on_c, 1, 62, 88
5, 2638, Note_off_c, 1, 62, 0
5, 2640, Note_on_c, 1, 64, 88
5, 2698, Note_off_c, 1, 64, 0
5, 2700, Note_on_c, 1, 66, 88
5, 2758, Note_off_c, 1, 66, 0
5, 2760, Note_on_c, 1, 67, 88
5, 2818, Note_off_c, 1, 67, 0
5, 2820, Note_on_c, 1, 64, 88
5, 2878, Note_off_c, 1, 64, 0
5, 2880, Note_on_c, 1, 69, 88
5, 2938, Note_off_c, 1, 69, 0
5, 2940, Note_on_c, 1, 68, 88
5, 2998, Note_off_c, 1, 68, 0
5, 3000, Note_on_c, 1, 69, 88
5, 3058, Note_off_c, 1, 69, 0
5, 3060, Note_on_c, 1, 71, 88
5, 3118, Note_off_c, 1, 71, 0
5, 3120, Note_on_c, 1, 72, 88
5, 3178, Note_off_c, 1, 72, 0
5, 3180, Note_on_c, 1, 66, 88
5, 3238, Note_off_c, 1, 66, 0
5, 3240, Note_on_c, 1, 71, 88
5, 3298, Note_off_c, 1, 71, 0
5, 3300, Note_on_c, 1, 69, 88
5, 3358, Note_off_c, 1, 69, 0
5, 3360, Note_on_c, 1, 68, 88
5, 3418, Note_off_c, 1, 68, 0
5, 3420, Note_on_c, 1, 64, 88
5, 3478, Note_off_c, 1, 64, 0
5, 3480, Note_on_c, 1, 69, 88
5, 3714, Note_off_c, 1, 69, 0
5, 3720, Note_on_c, 1, 67, 88
5, 3879, Note_off_c, 1, 67, 0
5, 3880, Note_on_c, 1, 65, 88
5, 3919, Note_off_c, 1, 65, 0
5, 3920, Note_on_c, 1, 64, 88
5, 3959, Note_off_c, 1, 64, 0
5, 3960, Note_on_c, 1, 62, 88
5, 3999, Note_off_c, 1, 62, 0
5, 4000, Note_on_c, 1, 64, 88
5, 4039, Note_off_c, 1, 64, 0
5, 4040, Note_on_c, 1, 65, 88
5, 4079, Note_off_c, 1, 65, 0
5, 4080, Note_on_c, 1, 64, 88
5, 4119, Note_off_c, 1, 64, 0
5, 4120, Note_on_c, 1, 62, 88
5, 4159, Note_off_c, 1, 62, 0
5, 4160, Note_on_c, 1, 60, 88
5, 4199, Note_off_c, 1, 60, 0
5, 4200, Note_on_c, 1, 59, 88
5, 4239, Note_off_c, 1, 59, 0
5, 4240, Note_on_c, 1, 60, 88
5, 4279, Note_off_c, 1, 60, 0
5, 4280, Note_on_c, 1, 62, 88
5, 4319, Note_off_c, 1, 62, 0
5, 4320, Note_on_c, 1, 60, 88
5, 4436, Note_off_c, 1, 60, 0
5, 4440, Note_on_c, 1, 61, 88
5, 4556, Note_off_c, 1, 61, 0
5, 4560, Note_on_c, 1, 62, 88
5, 4676, Note_off_c, 1, 62, 0
5, 4680, Note_on_c, 1, 55, 88
5, 4796, Note_off_c, 1, 55, 0
5, 4800, Note_on_c, 1, 53, 88
5, 4916, Note_off_c, 1, 53, 0
5, 4920, Note_on_c, 1, 58, 88
5, 5036, Note_off_c, 1, 58, 0
5, 5040, Note_on_c, 1, 57, 88
5, 5156, Note_off_c, 1, 57, 0
5, 5160, Note_on_c, 1, 62, 88
5, 5276, Note_off_c, 1, 62, 0
5, 5280, Note_on_c, 1, 61, 88
5, 5396, Note_off_c, 1, 61, 0
5, 5400, Note_on_c, 1, 62, 88
5, 5516, Note_off_c, 1, 62, 0
5, 5520, Note_on_c, 1, 64, 88
5, 5754, Note_off_c, 1, 64, 0
5, 5760, Note_on_c, 1, 62, 88
5, 5994, Note_off_c, 1, 62, 0
5, 6300, Note_on_c, 1, 69, 88
5, 6358, Note_off_c, 1, 69, 0
5, 6360, Note_on_c, 1, 70, 88
5, 6418, Note_off_c, 1, 70, 0
5, 6420, Note_on_c, 1, 69, 88
5, 6478, Note_off_c, 1, 69, 0
5, 6480, Note_on_c, 1, 67, 88
5, 6538, Note_off_c, 1, 67, 0
5, 6540, Note_on_c, 1, 70, 88
5, 6598, Note_off_c, 1, 70, 0
5, 6600, Note_on_c, 1, 69, 88
5, 6658, Note_off_c, 1, 69, 0
5, 6660, Note_on_c, 1, 67, 88
5, 6718, Note_off_c, 1, 67, 0
5, 6720, Note_on_c, 1, 66, 88
5, 6836, Note_off_c, 1, 66, 0
5, 6840, Note_on_c, 1, 67, 88
5, 7074, Note_off_c, 1, 67, 0
5, 7080, Note_on_c, 1, 65, 88
5, 7314, Note_off_c, 1, 65, 0
5, 7320, Note_on_c, 1, 64, 88
5, 7436, Note_off_c, 1, 64, 0
5, 7440, Note_on_c, 1, 62, 88
5, 7674, Note_off_c, 1, 62, 0
5, 7680, Note_on_c, 1, 60, 88
5, 7738, Note_off_c, 1, 60, 0
5, 7740, Note_on_c, 1, 72, 88
5, 7798, Note_off_c, 1, 72, 0
5, 7800, Note_on_c, 1, 74, 88
5, 7858, Note_off_c, 1, 74, 0
5, 7860, Note_on_c, 1, 72, 88
5, 7918, Note_off_c, 1, 72, 0
5, 7920, Note_on_c, 1, 70, 88
5, 7978, Note_off_c, 1, 70, 0
5, 7980, Note_on_c, 1, 74, 88
5, 8038, Note_off_c, 1, 74, 0
5, 8040, Note_on_c, 1, 72, 88
5, 8098, Note_off_c, 1, 72, 0
5, 8100, Note_on_c, 1, 70, 88
5, 8158, Note_off_c, 1, 70, 0
5, 8160, Note_on_c, 1, 69, 88
5, 8276, Note_off_c, 1, 69, 0
5, 8280, Note_on_c, 1, 67, 88
5, 8396, Note_off_c, 1, 67, 0
5, 8400, Note_on_c, 1, 65, 88
5, 8516, Note_off_c, 1, 65, 0
5, 8520, Note_on_c, 1, 64, 88
5, 8636, Note_off_c, 1, 64, 0
5, 8640, Note_on_c, 1, 65, 88
5, 8756, Note_off_c, 1, 65, 0
5, 8760, Note_on_c, 1, 61, 88
5, 8876, Note_off_c, 1, 61, 0
5, 8880, Note_on_c, 1, 62, 88
5, 9233, Note_off_c, 1, 62, 0
5, 9240, Note_on_c, 1, 58, 88
5, 9356, Note_off_c, 1, 58, 0
5, 9360, Note_on_c, 1, 57, 88
5, 9639, Note_off_c, 1, 57, 0
5, 9640, Note_on_c, 1, 55, 88
5, 9679, Note_off_c, 1, 55, 0
5, 9680, Note_on_c, 1, 53, 88
5, 9719, Note_off_c, 1, 53, 0
5, 9720, Note_on_c, 1, 52, 88
5, 9759, Note_off_c, 1, 52, 0
5, 9760, Note_on_c, 1, 53, 88
5, 9799, Note_off_c, 1, 53, 0
5, 9800, Note_on_c, 1, 55, 88
5, 9839, Note_off_c, 1, 55, 0
5, 9840, Note_on_c, 1, 53, 88
5, 10015, Note_off_c, 1, 53, 0
5, 10020, Note_on_c, 1, 55, 88
5, 10078, Note_off_c, 1, 55, 0
5, 10140, Note_on_c, 1, 55, 88
5, 10198, Note_off_c, 1, 55, 0
5, 10200, Note_on_c, 1, 54, 88
5, 10316, Note_off_c, 1, 54, 0
5, 10380, Note_on_c, 1, 53, 88
5, 10438, Note_off_c, 1, 53, 0
5, 10440, Note_on_c, 1, 52, 88
5, 10556, Note_off_c, 1, 52, 0
5, 10620, Note_on_c, 1, 51, 88
5, 10678, Note_off_c, 1, 51, 0
5, 10680, Note_on_c, 1, 50, 88
5, 10796, Note_off_c, 1, 50, 0
5, 10860, Note_on_c, 1, 50, 88
5, 10918, Note_off_c, 1, 50, 0
5, 10920, Note_on_c, 1, 49, 88
5, 11036, Note_off_c, 1, 49, 0
5, 11040, Note_on_c, 1, 50, 88
5, 11098, Note_off_c, 1, 50, 0
5, 11100, Note_on_c, 1, 69, 88
5, 11158, Note_off_c, 1, 69, 0
5, 11160, Note_on_c, 1, 70, 88
5, 11218, Note_off_c, 1, 70, 0
5, 11220, Note_on_c, 1, 69, 88
5, 11278, Note_off_c, 1, 69, 0
5, 11280, Note_on_c, 1, 67, 88
5, 11338, Note_off_c, 1, 67, 0
5, 11340, Note_on_c, 1, 70, 88
5, 11398, Note_off_c, 1, 70, 0
5, 11400, Note_on_c, 1, 69, 88
5, 11458, Note_off_c, 1, 69, 0
5, 11460, Note_on_c, 1, 67, 88
5, 11518, Note_off_c, 1, 67, 0
5, 11520, Note_on_c, 1, 65, 88
5, 11754, Note_off_c, 1, 65, 0
5, 11760, Note_on_c, 1, 64, 88
5, 12113, Note_off_c, 1, 64, 0
5, 12120, Note_on_c, 1, 62, 88
5, 12354, Note_off_c, 1, 62, 0
5, 12360, Note_on_c, 1, 61, 88
5, 12476, Note_off_c, 1, 61, 0
5, 12480, Note_on_c, 1, 62, 88
5, 12519, Note_off_c, 1, 62, 0
5, 12520, Note_on_c, 1, 64, 88
5, 12559, Note_off_c, 1, 64, 0
5, 12560, Note_on_c, 1, 65, 88
5, 12599, Note_off_c, 1, 65, 0
5, 12600, Note_on_c, 1, 67, 88
5, 12639, Note_off_c, 1, 67, 0
5, 12640, Note_on_c, 1, 65, 88
5, 12679, Note_off_c, 1, 65, 0
5, 12680, Note_on_c, 1, 64, 88
5, 12719, Note_off_c, 1, 64, 0
5, 12720, Note_on_c, 1, 65, 88
5, 12759, Note_off_c, 1, 65, 0
5, 12760, Note_on_c, 1, 67, 88
5, 12799, Note_off_c, 1, 67, 0
5, 12800, Note_on_c, 1, 69, 88
5, 12839, Note_off_c, 1, 69, 0
5, 12840, Note_on_c, 1, 70, 88
5, 12879, Note_off_c, 1, 70, 0
5, 12880, Note_on_c, 1, 69, 88
5, 12919, Note_off_c, 1, 69, 0
5, 12920, Note_on_c, 1, 67, 88
5, 12959, Note_off_c, 1, 67, 0
5, 12960, Note_on_c, 1, 69, 88
5, 13076, Note_off_c, 1, 69, 0
5, 13080, Note_on_c, 1, 74, 88
5, 13196, Note_off_c, 1, 74, 0
5, 13200, Note_on_c, 1, 73, 88
5, 13316, Note_off_c, 1, 73, 0
5, 13320, Note_on_c, 1, 72, 88
5, 13436, Note_off_c, 1, 72, 0
5, 13440, Note_on_c, 1, 71, 88
5, 13556, Note_off_c, 1, 71, 0
5, 13560, Note_on_c, 1, 70, 88
5, 13676, Note_off_c, 1, 70, 0
5, 13680, Note_on_c, 1, 69, 88
5, 13905, Note_off_c, 1, 69, 0
5, 13920, Note_on_c, 1, 69, 88
5, 14036, Note_off_c, 1, 69, 0
5, 14100, Note_on_c, 1, 65, 88
5, 14158, Note_off_c, 1, 65, 0
5, 14160, Note_on_c, 1, 64, 88
5, 14325, Note_off_c, 1, 64, 0
5, 14340, Note_on_c, 1, 64, 88
5, 14398, Note_off_c, 1, 64, 0
5, 14400, Note_on_c, 1, 62, 88
5, 14565, Note_off_c, 1, 62, 0
5, 14580, Note_on_c, 1, 62, 88
5, 14638, Note_off_c, 1, 62, 0
5, 14640, Note_on_c, 1, 60, 88
5, 14805, Note_off_c, 1, 60, 0
5, 14820, Note_on_c, 1, 60, 88
5, 14878, Note_off_c, 1, 60, 0
5, 14880, Note_on_c, 1, 59, 88
5, 15055, Note_off_c, 1, 59, 0
5, 15060, Note_on_c, 1, 58, 88
5, 15118, Note_off_c, 1, 58, 0
5, 15120, Note_on_c, 1, 57, 88
5, 15236, Note_off_c, 1, 57, 0
5, 15360, Note_on_c, 1, 69, 88
5, 15399, Note_off_c, 1, 69, 0
5, 15400, Note_on_c, 1, 67, 88
5, 15439, Note_off_c, 1, 67, 0
5, 15440, Note_on_c, 1, 65, 88
5, 15479, Note_off_c, 1, 65, 0
5, 15480, Note_on_c, 1, 64, 88
5, 15519, Note_off_c, 1, 64, 0
5, 15520, Note_on_c, 1, 65, 88
5, 15559, Note_off_c, 1, 65, 0
5, 15560, Note_on_c, 1, 67, 88
5, 15599, Note_off_c, 1, 67, 0
5, 15600, Note_on_c, 1, 65, 88
5, 15639, Note_off_c, 1, 65, 0
5, 15640, Note_on_c, 1, 64, 88
5, 15679, Note_off_c, 1, 64, 0
5, 15680, Note_on_c, 1, 62, 88
5, 15719, Note_off_c, 1, 62, 0
5, 15720, Note_on_c, 1, 61, 88
5, 15759, Note_off_c, 1, 61, 0
5, 15760, Note_on_c, 1, 62, 88
5, 15799, Note_off_c, 1, 62, 0
5, 15800, Note_on_c, 1, 64, 88
5, 15839, Note_off_c, 1, 64, 0
5, 15840, Note_on_c, 1, 62, 88
5, 15956, Note_off_c, 1, 62, 0
5, 15960, Note_on_c, 1, 57, 88
5, 16076, Note_off_c, 1, 57, 0
5, 16080, Note_on_c, 1, 58, 88
5, 16196, Note_off_c, 1, 58, 0
5, 16200, Note_on_c, 1, 59, 88
5, 16316, Note_off_c, 1, 59, 0
5, 16320, Note_on_c, 1, 60, 88
5, 16436, Note_off_c, 1, 60, 0
5, 16440, Note_on_c, 1, 61, 88
5, 16556, Note_off_c, 1, 61, 0
5, 16560, Note_on_c, 1, 62, 88
5, 17150, Note_off_c, 1, 62, 0
5, 17520, Note_on_c, 1, 74, 88
5, 17559, Note_off_c, 1, 74, 0
5, 17560, Note_on_c, 1, 72, 88
5, 17599, Note_off_c, 1, 72, 0
5, 17600, Note_on_c, 1, 71, 88
5, 17639, Note_off_c, 1, 71, 0
5, 17640, Note_on_c, 1, 69, 88
5, 17679, Note_off_c, 1, 69, 0
5, 17680, Note_on_c, 1, 71, 88
5, 17719, Note_off_c, 1, 71, 0
5, 17720, Note_on_c, 1, 72, 88
5, 17759, Note_off_c, 1, 72, 0
5, 17760, Note_on_c, 1, 71, 88
5, 17876, Note_off_c, 1, 71, 0
5, 17880, Note_on_c, 1, 74, 88
5, 17996, Note_off_c, 1, 74, 0
5, 18000, Note_on_c, 1, 67, 88
5, 18116, Note_off_c, 1, 67, 0
5, 18120, Note_on_c, 1, 71, 88
5, 18236, Note_off_c, 1, 71, 0
5, 18240, Note_on_c, 1, 72, 88
5, 18356, Note_off_c, 1, 72, 0
5, 18480, Note_on_c, 1, 72, 88
5, 18519, Note_off_c, 1, 72, 0
5, 18520, Note_on_c, 1, 70, 88
5, 18559, Note_off_c, 1, 70, 0
5, 18560, Note_on_c, 1, 69, 88
5, 18599, Note_off_c, 1, 69, 0
5, 18600, Note_on_c, 1, 67, 88
5, 18639, Note_off_c, 1, 67, 0
5, 18640, Note_on_c, 1, 69, 88
5, 18679, Note_off_c, 1, 69, 0
5, 18680, Note_on_c, 1, 70, 88
5, 18719, Note_off_c, 1, 70, 0
5, 18720, Note_on_c, 1, 69, 88
5, 18836, Note_off_c, 1, 69, 0
5, 18840, Note_on_c, 1, 72, 88
5, 18956, Note_off_c, 1, 72, 0
5, 18960, Note_on_c, 1, 65, 88
5, 19076, Note_off_c, 1, 65, 0
5, 19080, Note_on_c, 1, 69, 88
5, 19196, Note_off_c, 1, 69, 0
5, 19200, Note_on_c, 1, 70, 88
5, 19316, Note_off_c, 1, 70, 0
5, 19320, Note_on_c, 1, 69, 88
5, 19965, Note_off_c, 1, 69, 0
5, 19980, Note_on_c, 1, 69, 88
5, 20038, Note_off_c, 1, 69, 0
5, 20040, Note_on_c, 1, 70, 88
5, 20098, Note_off_c, 1, 70, 0
5, 20100, Note_on_c, 1, 69, 88
5, 20158, Note_off_c, 1, 69, 0
5, 20160, Note_on_c, 1, 67, 88
5, 20218, Note_off_c, 1, 67, 0
5, 20220, Note_on_c, 1, 70, 88
5, 20278, Note_off_c, 1, 70, 0
5, 20280, Note_on_c, 1, 69, 88
5, 20338, Note_off_c, 1, 69, 0
5, 20340, Note_on_c, 1, 67, 88
5, 20398, Note_off_c, 1, 67, 0
5, 20400, Note_on_c, 1, 65, 88
5, 20516, Note_off_c, 1, 65, 0
5, 20520, Note_on_c, 1, 58, 88
5, 20636, Note_off_c, 1, 58, 0
5, 20640, Note_on_c, 1, 57, 88
5, 20874, Note_off_c, 1, 57, 0
5, 20880, Note_on_c, 1, 55, 88
5, 20996, Note_off_c, 1, 55, 0
5, 21000, Note_on_c, 1, 67, 88
5, 21236, Note_off_c, 1, 67, 0
5, 21240, Note_on_c, 1, 65, 88
5, 21298, Note_off_c, 1, 65, 0
5, 21300, Note_on_c, 1, 64, 88
5, 21358, Note_off_c, 1, 64, 0
5, 21360, Note_on_c, 1, 62, 88
5, 21418, Note_off_c, 1, 62, 0
5, 21420, Note_on_c, 1, 65, 88
5, 21478, Note_off_c, 1, 65, 0
5, 21480, Note_on_c, 1, 64, 88
5, 21538, Note_off_c, 1, 64, 0
5, 21540, Note_on_c, 1, 62, 88
5, 21598, Note_off_c, 1, 62, 0
5, 21600, Note_on_c, 1, 61, 88
5, 21716, Note_off_c, 1, 61, 0
5, 21720, Note_on_c, 1, 62, 88
5, 21954, Note_off_c, 1, 62, 0
5, 21960, Note_on_c, 1, 61, 88
5, 22076, Note_off_c, 1, 61, 0
5, 22080, Note_on_c, 1, 62, 88
5, 22138, Note_off_c, 1, 62, 0
5, 22140, Note_on_c, 1, 60, 88
5, 22198, Note_off_c, 1, 60, 0
5, 22200, Note_on_c, 1, 58, 88
5, 22258, Note_off_c, 1, 58, 0
5, 22260, Note_on_c, 1, 57, 88
5, 22318, Note_off_c, 1, 57, 0
5, 22320, Note_on_c, 1, 55, 88
5, 22378, Note_off_c, 1, 55, 0
5, 22380, Note_on_c, 1, 58, 88
5, 22438, Note_off_c, 1, 58, 0
5, 22440, Note_on_c, 1, 57, 88
5, 22498, Note_off_c, 1, 57, 0
5, 22500, Note_on_c, 1, 55, 88
5, 22558, Note_off_c, 1, 55, 0
5, 22560, Note_on_c, 1, 53, 88
5, 22618, Note_off_c, 1, 53, 0
5, 22620, Note_on_c, 1, 57, 88
5, 22678, Note_off_c, 1, 57, 0
5, 22680, Note_on_c, 1, 55, 88
5, 22738, Note_off_c, 1, 55, 0
5, 22740, Note_on_c, 1, 53, 88
5, 22798, Note_off_c, 1, 53, 0
5, 22800, Note_on_c, 1, 52, 88
5, 22858, Note_off_c, 1, 52, 0
5, 22860, Note_on_c, 1, 50, 88
5, 22918, Note_off_c, 1, 50, 0
5, 22920, Note_on_c, 1, 49, 88
5, 22978, Note_off_c, 1, 49, 0
5, 22980, Note_on_c, 1, 52, 88
5, 23038, Note_off_c, 1, 52, 0
5, 23040, Note_on_c, 1, 50, 88
5, 23079, Note_off_c, 1, 50, 0
5, 23080, Note_on_c, 1, 52, 88
5, 23119, Note_off_c, 1, 52, 0
5, 23120, Note_on_c, 1, 53, 88
5, 23159, Note_off_c, 1, 53, 0
5, 23160, Note_on_c, 1, 55, 88
5, 23199, Note_off_c, 1, 55, 0
5, 23200, Note_on_c, 1, 53, 88
5, 23239, Note_off_c, 1, 53, 0
5, 23240, Note_on_c, 1, 52, 88
5, 23279, Note_off_c, 1, 52, 0
5, 23280, Note_on_c, 1, 53, 88
5, 23319, Note_off_c, 1, 53, 0
5, 23320, Note_on_c, 1, 55, 88
5, 23359, Note_off_c, 1, 55, 0
5, 23360, Note_on_c, 1, 57, 88
5, 23399, Note_off_c, 1, 57, 0
5, 23400, Note_on_c, 1, 58, 88
5, 23439, Note_off_c, 1, 58, 0
5, 23440, Note_on_c, 1, 57, 88
5, 23479, Note_off_c, 1, 57, 0
5, 23480, Note_on_c, 1, 55, 88
5, 23519, Note_off_c, 1, 55, 0
5, 23520, Note_on_c, 1, 57, 88
5, 23794, Note_off_c, 1, 57, 0
5, 23800, Note_on_c, 1, 55, 88
5, 23839, Note_off_c, 1, 55, 0
5, 23840, Note_on_c, 1, 53, 88
5, 23879, Note_off_c, 1, 53, 0
5, 23880, Note_on_c, 1, 52, 88
5, 23919, Note_off_c, 1, 52, 0
5, 23920, Note_on_c, 1, 53, 88
5, 23959, Note_off_c, 1, 53, 0
5, 23960, Note_on_c, 1, 55, 88
5, 23999, Note_off_c, 1, 55, 0
5, 24000, Note_on_c, 1, 53, 88
5, 24116, Note_off_c, 1, 53, 0
5, 24120, Note_on_c, 1, 65, 88
5, 24236, Note_off_c, 1, 65, 0
5, 24240, Note_on_c, 1, 64, 88
5, 24356, Note_off_c, 1, 64, 0
5, 24360, Note_on_c, 1, 69, 88
5, 24654, Note_off_c, 1, 69, 0
5, 24660, Note_on_c, 1, 67, 88
5, 24776, Note_off_c, 1, 67, 0
5, 24780, Note_on_c, 1, 65, 88
5, 24885, Note_off_c, 1, 65, 0
5, 24900, Note_on_c, 1, 65, 88
5, 24958, Note_off_c, 1, 65, 0
5, 24960, Note_on_c, 1, 64, 88
5, 25076, Note_off_c, 1, 64, 0
5, 25080, Note_on_c, 1, 62, 88
5, 25314, Note_off_c, 1, 62, 0
5, 25320, Note_on_c, 1, 61, 88
5, 25436, Note_off_c, 1, 61, 0
5, 25440, Note_on_c, 1, 62, 88
5, 25910, Note_off_c, 1, 62, 0
5, 25910, End_track
6, 0, Start_track
6, 0, Title_t, "Track 3"
6, 0, Program_c, 2, 6
6, 4800, Note_on_c, 2, 50, 88
6, 4839, Note_off_c, 2, 50, 0
6, 4840, Note_on_c, 2, 52, 88
6, 4879, Note_off_c, 2, 52, 0
6, 4880, Note_on_c, 2, 53, 88
6, 4919, Note_off_c, 2, 53, 0
6, 4920, Note_on_c, 2, 55, 88
6, 4959, Note_off_c, 2, 55, 0
6, 4960, Note_on_c, 2, 53, 88
6, 4999, Note_off_c, 2, 53, 0
6, 5000, Note_on_c, 2, 52, 88
6, 5039, Note_off_c, 2, 52, 0
6, 5040, Note_on_c, 2, 53, 88
6, 5079, Note_off_c, 2, 53, 0
6, 5080, Note_on_c, 2, 55, 88
6, 5119, Note_off_c, 2, 55, 0
6, 5120, Note_on_c, 2, 57, 88
6, 5159, Note_off_c, 2, 57, 0
6, 5160, Note_on_c, 2, 58, 88
6, 5199, Note_off_c, 2, 58, 0
6, 5200, Note_on_c, 2, 57, 88
6, 5239, Note_off_c, 2, 57, 0
6, 5240, Note_on_c, 2, 55, 88
6, 5279, Note_off_c, 2, 55, 0
6, 5280, Note_on_c, 2, 57, 88
6, 5396, Note_off_c, 2, 57, 0
6, 5400, Note_on_c, 2, 62, 88
6, 5516, Note_off_c, 2, 62, 0
6, 5520, Note_on_c, 2, 61, 88
6, 5636, Note_off_c, 2, 61, 0
6, 5640, Note_on_c, 2, 60, 88
6, 5756, Note_off_c, 2, 60, 0
6, 5760, Note_on_c, 2, 59, 88
6, 5876, Note_off_c, 2, 59, 0
6, 5880, Note_on_c, 2, 58, 88
6, 5996, Note_off_c, 2, 58, 0
6, 6000, Note_on_c, 2, 57, 88
6, 6116, Note_off_c, 2, 57, 0
6, 6120, Note_on_c, 2, 55, 88
6, 6354, Note_off_c, 2, 55, 0
6, 6360, Note_on_c, 2, 53, 88
6, 6476, Note_off_c, 2, 53, 0
6, 6480, Note_on_c, 2, 52, 88
6, 6596, Note_off_c, 2, 52, 0
6, 6600, Note_on_c, 2, 57, 88
6, 6716, Note_off_c, 2, 57, 0
6, 6720, Note_on_c, 2, 50, 88
6, 6778, Note_off_c, 2, 50, 0
6, 6780, Note_on_c, 2, 62, 88
6, 6838, Note_off_c, 2, 62, 0
6, 6840, Note_on_c, 2, 63, 88
6, 6898, Note_off_c, 2, 63, 0
6, 6900, Note_on_c, 2, 62, 88
6, 6958, Note_off_c, 2, 62, 0
6, 6960, Note_on_c, 2, 60, 88
6, 7018, Note_off_c, 2, 60, 0
6, 7020, Note_on_c, 2, 63, 88
6, 7078, Note_off_c, 2, 63, 0
6, 7080, Note_on_c, 2, 62, 88
6, 7138, Note_off_c, 2, 62, 0
6, 7140, Note_on_c, 2, 60, 88
6, 7198, Note_off_c, 2, 60, 0
6, 7200, Note_on_c, 2, 59, 88
6, 7258, Note_off_c, 2, 59, 0
6, 7260, Note_on_c, 2, 55, 88
6, 7318, Note_off_c, 2, 55, 0
6, 7320, Note_on_c, 2, 60, 88
6, 7554, Note_off_c, 2, 60, 0
6, 7560, Note_on_c, 2, 58, 88
6, 7796, Note_off_c, 2, 58, 0
6, 7800, Note_on_c, 2, 57, 88
6, 7916, Note_off_c, 2, 57, 0
6, 7920, Note_on_c, 2, 55, 88
6, 8036, Note_off_c, 2, 55, 0
6, 8040, Note_on_c, 2, 60, 88
6, 8156, Note_off_c, 2, 60, 0
6, 8160, Note_on_c, 2, 53, 88
6, 8199, Note_off_c, 2, 53, 0
6, 8200, Note_on_c, 2, 55, 88
6, 8239, Note_off_c, 2, 55, 0
6, 8240, Note_on_c, 2, 57, 88
6, 8279, Note_off_c, 2, 57, 0
6, 8280, Note_on_c, 2, 58, 88
6, 8319, Note_off_c, 2, 58, 0
6, 8320, Note_on_c, 2, 57, 88
6, 8359, Note_off_c, 2, 57, 0
6, 8360, Note_on_c, 2, 55, 88
6, 8399, Note_off_c, 2, 55, 0
6, 8400, Note_on_c, 2, 57, 88
6, 8516, Note_off_c, 2, 57, 0
6, 8520, Note_on_c, 2, 45, 88
6, 8636, Note_off_c, 2, 45, 0
6, 8640, Note_on_c, 2, 50, 88
6, 8679, Note_off_c, 2, 50, 0
6, 8680, Note_on_c, 2, 52, 88
6, 8719, Note_off_c, 2, 52, 0
6, 8720, Note_on_c, 2, 53, 88
6, 8759, Note_off_c, 2, 53, 0
6, 8760, Note_on_c, 2, 55, 88
6, 8799, Note_off_c, 2, 55, 0
6, 8800, Note_on_c, 2, 53, 88
6, 8839, Note_off_c, 2, 53, 0
6, 8840, Note_on_c, 2, 52, 88
6, 8879, Note_off_c, 2, 52, 0
6, 8880, Note_on_c, 2, 53, 88
6, 8919, Note_off_c, 2, 53, 0
6, 8920, Note_on_c, 2, 55, 88
6, 8959, Note_off_c, 2, 55, 0
6, 8960, Note_on_c, 2, 57, 88
6, 8999, Note_off_c, 2, 57, 0
6, 9000, Note_on_c, 2, 58, 88
6, 9039, Note_off_c, 2, 58, 0
6, 9040, Note_on_c, 2, 57, 88
6, 9079, Note_off_c, 2, 57, 0
6, 9080, Note_on_c, 2, 55, 88
6, 9119, Note_off_c, 2, 55, 0
6, 9120, Note_on_c, 2, 57, 88
6, 9236, Note_off_c, 2, 57, 0
6, 9240, Note_on_c, 2, 55, 88
6, 9356, Note_off_c, 2, 55, 0
6, 9360, Note_on_c, 2, 53, 88
6, 9399, Note_off_c, 2, 53, 0
6, 9400, Note_on_c, 2, 52, 88
6, 9439, Note_off_c, 2, 52, 0
6, 9440, Note_on_c, 2, 50, 88
6, 9479, Note_off_c, 2, 50, 0
6, 9480, Note_on_c, 2, 49, 88
6, 9519, Note_off_c, 2, 49, 0
6, 9520, Note_on_c, 2, 50, 88
6, 9559, Note_off_c, 2, 50, 0
6, 9560, Note_on_c, 2, 52, 88
6, 9599, Note_off_c, 2, 52, 0
6, 9600, Note_on_c, 2, 50, 88
6, 9894, Note_off_c, 2, 50, 0
6, 9900, Note_on_c, 2, 48, 88
6, 9958, Note_off_c, 2, 48, 0
6, 9960, Note_on_c, 2, 46, 88
6, 10076, Note_off_c, 2, 46, 0
6, 10080, Note_on_c, 2, 45, 88
6, 10255, Note_off_c, 2, 45, 0
6, 10260, Note_on_c, 2, 50, 88
6, 10318, Note_off_c, 2, 50, 0
6, 10320, Note_on_c, 2, 43, 88
6, 10495, Note_off_c, 2, 43, 0
6, 10500, Note_on_c, 2, 48, 88
6, 10558, Note_off_c, 2, 48, 0
6, 10560, Note_on_c, 2, 41, 88
6, 10735, Note_off_c, 2, 41, 0
6, 10740, Note_on_c, 2, 46, 88
6, 10798, Note_off_c, 2, 46, 0
6, 10800, Note_on_c, 2, 40, 88
6, 10975, Note_off_c, 2, 40, 0
6, 10980, Note_on_c, 2, 45, 88
6, 11038, Note_off_c, 2, 45, 0
6, 11040, Note_on_c, 2, 38, 88
6, 11156, Note_off_c, 2, 38, 0
6, 11160, Note_on_c, 2, 50, 88
6, 11394, Note_off_c, 2, 50, 0
6, 11400, Note_on_c, 2, 49, 88
6, 11516, Note_off_c, 2, 49, 0
6, 11520, Note_on_c, 2, 50, 88
6, 11578, Note_off_c, 2, 50, 0
6, 11580, Note_on_c, 2, 57, 88
6, 11638, Note_off_c, 2, 57, 0
6, 11640, Note_on_c, 2, 58, 88
6, 11698, Note_off_c, 2, 58, 0
6, 11700, Note_on_c, 2, 57, 88
6, 11758, Note_off_c, 2, 57, 0
6, 11760, Note_on_c, 2, 55, 88
6, 11818, Note_off_c, 2, 55, 0
6, 11820, Note_on_c, 2, 58, 88
6, 11878, Note_off_c, 2, 58, 0
6, 11880, Note_on_c, 2, 57, 88
6, 11938, Note_off_c, 2, 57, 0
6, 11940, Note_on_c, 2, 55, 88
6, 11998, Note_off_c, 2, 55, 0
6, 12000, Note_on_c, 2, 53, 88
6, 12234, Note_off_c, 2, 53, 0
6, 12240, Note_on_c, 2, 52, 88
6, 12474, Note_off_c, 2, 52, 0
6, 12480, Note_on_c, 2, 50, 88
6, 12596, Note_off_c, 2, 50, 0
6, 13260, Note_on_c, 2, 47, 88
6, 13318, Note_off_c, 2, 47, 0
6, 13320, Note_on_c, 2, 48, 88
6, 13378, Note_off_c, 2, 48, 0
6, 13380, Note_on_c, 2, 50, 88
6, 13438, Note_off_c, 2, 50, 0
6, 13440, Note_on_c, 2, 52, 88
6, 13498, Note_off_c, 2, 52, 0
6, 13500, Note_on_c, 2, 54, 88
6, 13558, Note_off_c, 2, 54, 0
6, 13560, Note_on_c, 2, 55, 88
6, 13618, Note_off_c, 2, 55, 0
6, 13620, Note_on_c, 2, 52, 88
6, 13678, Note_off_c, 2, 52, 0
6, 13680, Note_on_c, 2, 57, 88
6, 13738, Note_off_c, 2, 57, 0
6, 13740, Note_on_c, 2, 56, 88
6, 13798, Note_off_c, 2, 56, 0
6, 13800, Note_on_c, 2, 57, 88
6, 13858, Note_off_c, 2, 57, 0
6, 13860, Note_on_c, 2, 59, 88
6, 13918, Note_off_c, 2, 59, 0
6, 13920, Note_on_c, 2, 60, 88
6, 13978, Note_off_c, 2, 60, 0
6, 13980, Note_on_c, 2, 54, 88
6, 14038, Note_off_c, 2, 54, 0
6, 14040, Note_on_c, 2, 59, 88
6, 14098, Note_off_c, 2, 59, 0
6, 14100, Note_on_c, 2, 57, 88
6, 14158, Note_off_c, 2, 57, 0
6, 14160, Note_on_c, 2, 56, 88
6, 14218, Note_off_c, 2, 56, 0
6, 14220, Note_on_c, 2, 52, 88
6, 14278, Note_off_c, 2, 52, 0
6, 14280, Note_on_c, 2, 57, 88
6, 14458, Note_off_c, 2, 57, 0
6, 14460, Note_on_c, 2, 50, 88
6, 14518, Note_off_c, 2, 50, 0
6, 14520, Note_on_c, 2, 55, 88
6, 14578, Note_off_c, 2, 55, 0
6, 14580, Note_on_c, 2, 53, 88
6, 14638, Note_off_c, 2, 53, 0
6, 14640, Note_on_c, 2, 52, 88
6, 14698, Note_off_c, 2, 52, 0
6, 14700, Note_on_c, 2, 48, 88
6, 14758, Note_off_c, 2, 48, 0
6, 14760, Note_on_c, 2, 53, 88
6, 14935, Note_off_c, 2, 53, 0
6, 14940, Note_on_c, 2, 47, 88
6, 14998, Note_off_c, 2, 47, 0
6, 15000, Note_on_c, 2, 52, 88
6, 15058, Note_off_c, 2, 52, 0
6, 15060, Note_on_c, 2, 50, 88
6, 15118, Note_off_c, 2, 50, 0
6, 15120, Note_on_c, 2, 49, 88
6, 15178, Note_off_c, 2, 49, 0
6, 15180, Note_on_c, 2, 45, 88
6, 15238, Note_off_c, 2, 45, 0
6, 15240, Note_on_c, 2, 50, 88
6, 15476, Note_off_c, 2, 50, 0
6, 15480, Note_on_c, 2, 49, 88
6, 15596, Note_off_c, 2, 49, 0
6, 15600, Note_on_c, 2, 50, 88
6, 15639, Note_off_c, 2, 50, 0
6, 15640, Note_on_c, 2, 48, 88
6, 15679, Note_off_c, 2, 48, 0
6, 15680, Note_on_c, 2, 46, 88
6, 15719, Note_off_c, 2, 46, 0
6, 15720, Note_on_c, 2, 45, 88
6, 15759, Note_off_c, 2, 45, 0
6, 15760, Note_on_c, 2, 46, 88
6, 15799, Note_off_c, 2, 46, 0
6, 15800, Note_on_c, 2, 48, 88
6, 15839, Note_off_c, 2, 48, 0
6, 15840, Note_on_c, 2, 46, 88
6, 15879, Note_off_c, 2, 46, 0
6, 15880, Note_on_c, 2, 45, 88
6, 15919, Note_off_c, 2, 45, 0
6, 15920, Note_on_c, 2, 43, 88
6, 15959, Note_off_c, 2, 43, 0
6, 15960, Note_on_c, 2, 42, 88
6, 15999, Note_off_c, 2, 42, 0
6, 16000, Note_on_c, 2, 43, 88
6, 16039, Note_off_c, 2, 43, 0
6, 16040, Note_on_c, 2, 45, 88
6, 16079, Note_off_c, 2, 45, 0
6, 16080, Note_on_c, 2, 43, 88
6, 16196, Note_off_c, 2, 43, 0
6, 16200, Note_on_c, 2, 38, 88
6, 16316, Note_off_c, 2, 38, 0
6, 16320, Note_on_c, 2, 39, 88
6, 16436, Note_off_c, 2, 39, 0
6, 16440, Note_on_c, 2, 40, 88
6, 16556, Note_off_c, 2, 40, 0
6, 16560, Note_on_c, 2, 41, 88
6, 16676, Note_off_c, 2, 41, 0
6, 16680, Note_on_c, 2, 42, 88
6, 16796, Note_off_c, 2, 42, 0
6, 16800, Note_on_c, 2, 43, 88
6, 16839, Note_off_c, 2, 43, 0
6, 16840, Note_on_c, 2, 45, 88
6, 16879, Note_off_c, 2, 45, 0
6, 16880, Note_on_c, 2, 46, 88
6, 16919, Note_off_c, 2, 46, 0
6, 16920, Note_on_c, 2, 48, 88
6, 16959, Note_off_c, 2, 48, 0
6, 16960, Note_on_c, 2, 46, 88
6, 16999, Note_off_c, 2, 46, 0
6, 17000, Note_on_c, 2, 45, 88
6, 17039, Note_off_c, 2, 45, 0
6, 17040, Note_on_c, 2, 46, 88
6, 17079, Note_off_c, 2, 46, 0
6, 17080, Note_on_c, 2, 48, 88
6, 17119, Note_off_c, 2, 48, 0
6, 17120, Note_on_c, 2, 50, 88
6, 17159, Note_off_c, 2, 50, 0
6, 17160, Note_on_c, 2, 51, 88
6, 17199, Note_off_c, 2, 51, 0
6, 17200, Note_on_c, 2, 50, 88
6, 17239, Note_off_c, 2, 50, 0
6, 17240, Note_on_c, 2, 48, 88
6, 17279, Note_off_c, 2, 48, 0
6, 17280, Note_on_c, 2, 50, 88
6, 17396, Note_off_c, 2, 50, 0
6, 17400, Note_on_c, 2, 55, 88
6, 17634, Note_off_c, 2, 55, 0
6, 17640, Note_on_c, 2, 54, 88
6, 17756, Note_off_c, 2, 54, 0
6, 17760, Note_on_c, 2, 55, 88
6, 17799, Note_off_c, 2, 55, 0
6, 17800, Note_on_c, 2, 53, 88
6, 17839, Note_off_c, 2, 53, 0
6, 17840, Note_on_c, 2, 52, 88
6, 17879, Note_off_c, 2, 52, 0
6, 17880, Note_on_c, 2, 50, 88
6, 17919, Note_off_c, 2, 50, 0
6, 17920, Note_on_c, 2, 52, 88
6, 17959, Note_off_c, 2, 52, 0
6, 17960, Note_on_c, 2, 53, 88
6, 17999, Note_off_c, 2, 53, 0
6, 18000, Note_on_c, 2, 52, 88
6, 18116, Note_off_c, 2, 52, 0
6, 18120, Note_on_c, 2, 55, 88
6, 18236, Note_off_c, 2, 55, 0
6, 18240, Note_on_c, 2, 60, 88
6, 18279, Note_off_c, 2, 60, 0
6, 18280, Note_on_c, 2, 58, 88
6, 18319, Note_off_c, 2, 58, 0
6, 18320, Note_on_c, 2, 57, 88
6, 18359, Note_off_c, 2, 57, 0
6, 18360, Note_on_c, 2, 55, 88
6, 18399, Note_off_c, 2, 55, 0
6, 18400, Note_on_c, 2, 57, 88
6, 18439, Note_off_c, 2, 57, 0
6, 18440, Note_on_c, 2, 58, 88
6, 18479, Note_off_c, 2, 58, 0
6, 18480, Note_on_c, 2, 57, 88
6, 18596, Note_off_c, 2, 57, 0
6, 18600, Note_on_c, 2, 60, 88
6, 18716, Note_off_c, 2, 60, 0
6, 18720, Note_on_c, 2, 53, 88
6, 18759, Note_off_c, 2, 53, 0
6, 18760, Note_on_c, 2, 51, 88
6, 18799, Note_off_c, 2, 51, 0
6, 18800, Note_on_c, 2, 50, 88
6, 18839, Note_off_c, 2, 50, 0
6, 18840, Note_on_c, 2, 48, 88
6, 18879, Note_off_c, 2, 48, 0
6, 18880, Note_on_c, 2, 50, 88
6, 18919, Note_off_c, 2, 50, 0
6, 18920, Note_on_c, 2, 51, 88
6, 18959, Note_off_c, 2, 51, 0
6, 18960, Note_on_c, 2, 50, 88
6, 19076, Note_off_c, 2, 50, 0
6, 19080, Note_on_c, 2, 53, 88
6, 19196, Note_off_c, 2, 53, 0
6, 19200, Note_on_c, 2, 58, 88
6, 19239, Note_off_c, 2, 58, 0
6, 19240, Note_on_c, 2, 57, 88
6, 19279, Note_off_c, 2, 57, 0
6, 19280, Note_on_c, 2, 55, 88
6, 19319, Note_off_c, 2, 55, 0
6, 19320, Note_on_c, 2, 54, 88
6, 19359, Note_off_c, 2, 54, 0
6, 19360, Note_on_c, 2, 55, 88
6, 19399, Note_off_c, 2, 55, 0
6, 19400, Note_on_c, 2, 57, 88
6, 19439, Note_off_c, 2, 57, 0
6, 19440, Note_on_c, 2, 55, 88
6, 19479, Note_off_c, 2, 55, 0
6, 19480, Note_on_c, 2, 53, 88
6, 19519, Note_off_c, 2, 53, 0
6, 19520, Note_on_c, 2, 52, 88
6, 19559, Note_off_c, 2, 52, 0
6, 19560, Note_on_c, 2, 50, 88
6, 19599, Note_off_c, 2, 50, 0
6, 19600, Note_on_c, 2, 52, 88
6, 19639, Note_off_c, 2, 52, 0
6, 19640, Note_on_c, 2, 53, 88
6, 19679, Note_off_c, 2, 53, 0
6, 19680, Note_on_c, 2, 52, 88
6, 19719, Note_off_c, 2, 52, 0
6, 19720, Note_on_c, 2, 50, 88
6, 19759, Note_off_c, 2, 50, 0
6, 19760, Note_on_c, 2, 49, 88
6, 19799, Note_off_c, 2, 49, 0
6, 19800, Note_on_c, 2, 47, 88
6, 19839, Note_off_c, 2, 47, 0
6, 19840, Note_on_c, 2, 49, 88
6, 19879, Note_off_c, 2, 49, 0
6, 19880, Note_on_c, 2, 50, 88
6, 19919, Note_off_c, 2, 50, 0
6, 19920, Note_on_c, 2, 49, 88
6, 19978, Note_off_c, 2, 49, 0
6, 19980, Note_on_c, 2, 45, 88
6, 20038, Note_off_c, 2, 45, 0
6, 20040, Note_on_c, 2, 50, 88
6, 20276, Note_off_c, 2, 50, 0
6, 20280, Note_on_c, 2, 49, 88
6, 20396, Note_off_c, 2, 49, 0
6, 20400, Note_on_c, 2, 50, 88
6, 20516, Note_off_c, 2, 50, 0
6, 20520, Note_on_c, 2, 55, 88
6, 20754, Note_off_c, 2, 55, 0
6, 20760, Note_on_c, 2, 54, 88
6, 20876, Note_off_c, 2, 54, 0
6, 20880, Note_on_c, 2, 55, 88
6, 20938, Note_off_c, 2, 55, 0
6, 20940, Note_on_c, 2, 53, 88
6, 20998, Note_off_c, 2, 53, 0
6, 21000, Note_on_c, 2, 52, 88
6, 21058, Note_off_c, 2, 52, 0
6, 21060, Note_on_c, 2, 50, 88
6, 21118, Note_off_c, 2, 50, 0
6, 21120, Note_on_c, 2, 49, 88
6, 21178, Note_off_c, 2, 49, 0
6, 21180, Note_on_c, 2, 52, 88
6, 21238, Note_off_c, 2, 52, 0
6, 21240, Note_on_c, 2, 50, 88
6, 21298, Note_off_c, 2, 50, 0
6, 21300, Note_on_c, 2, 48, 88
6, 21358, Note_off_c, 2, 48, 0
6, 21360, Note_on_c, 2, 47, 88
6, 21476, Note_off_c, 2, 47, 0
6, 21480, Note_on_c, 2, 46, 88
6, 21596, Note_off_c, 2, 46, 0
6, 21600, Note_on_c, 2, 45, 88
6, 21658, Note_off_c, 2, 45, 0
6, 21660, Note_on_c, 2, 57, 88
6, 21718, Note_off_c, 2, 57, 0
6, 21720, Note_on_c, 2, 58, 88
6, 21778, Note_off_c, 2, 58, 0
6, 21780, Note_on_c, 2, 57, 88
6, 21838, Note_off_c, 2, 57, 0
6, 21840, Note_on_c, 2, 55, 88
6, 21898, Note_off_c, 2, 55, 0
6, 21900, Note_on_c, 2, 58, 88
6, 21958, Note_off_c, 2, 58, 0
6, 21960, Note_on_c, 2, 57, 88
6, 22018, Note_off_c, 2, 57, 0
6, 22020, Note_on_c, 2, 55, 88
6, 22078, Note_off_c, 2, 55, 0
6, 22080, Note_on_c, 2, 53, 88
6, 22138, Note_off_c, 2, 53, 0
6, 22140, Note_on_c, 2, 57, 88
6, 22198, Note_off_c, 2, 57, 0
6, 22200, Note_on_c, 2, 55, 88
6, 22258, Note_off_c, 2, 55, 0
6, 22260, Note_on_c, 2, 53, 88
6, 22318, Note_off_c, 2, 53, 0
6, 22320, Note_on_c, 2, 52, 88
6, 22378, Note_off_c, 2, 52, 0
6, 22380, Note_on_c, 2, 50, 88
6, 22438, Note_off_c, 2, 50, 0
6, 22440, Note_on_c, 2, 49, 88
6, 22498, Note_off_c, 2, 49, 0
6, 22500, Note_on_c, 2, 52, 88
6, 22558, Note_off_c, 2, 52, 0
6, 22560, Note_on_c, 2, 50, 88
6, 22618, Note_off_c, 2, 50, 0
6, 22620, Note_on_c, 2, 48, 88
6, 22678, Note_off_c, 2, 48, 0
6, 22680, Note_on_c, 2, 46, 88
6, 22738, Note_off_c, 2, 46, 0
6, 22740, Note_on_c, 2, 45, 88
6, 22798, Note_off_c, 2, 45, 0
6, 22800, Note_on_c, 2, 43, 88
6, 22858, Note_off_c, 2, 43, 0
6, 22860, Note_on_c, 2, 46, 88
6, 22918, Note_off_c, 2, 46, 0
6, 22920, Note_on_c, 2, 45, 88
6, 22978, Note_off_c, 2, 45, 0
6, 22980, Note_on_c, 2, 43, 88
6, 23038, Note_off_c, 2, 43, 0
6, 23040, Note_on_c, 2, 41, 88
6, 23156, Note_off_c, 2, 41, 0
6, 23160, Note_on_c, 2, 46, 88
6, 23276, Note_off_c, 2, 46, 0
6, 23280, Note_on_c, 2, 45, 88
6, 23319, Note_off_c, 2, 45, 0
6, 23320, Note_on_c, 2, 43, 88
6, 23359, Note_off_c, 2, 43, 0
6, 23360, Note_on_c, 2, 41, 88
6, 23399, Note_off_c, 2, 41, 0
6, 23400, Note_on_c, 2, 40, 88
6, 23439, Note_off_c, 2, 40, 0
6, 23440, Note_on_c, 2, 41, 88
6, 23479, Note_off_c, 2, 41, 0
6, 23480, Note_on_c, 2, 43, 88
6, 23519, Note_off_c, 2, 43, 0
6, 23520, Note_on_c, 2, 41, 88
6, 23559, Note_off_c, 2, 41, 0
6, 23560, Note_on_c, 2, 40, 88
6, 23599, Note_off_c, 2, 40, 0
6, 23600, Note_on_c, 2, 38, 88
6, 23639, Note_off_c, 2, 38, 0
6, 23640, Note_on_c, 2, 37, 88
6, 23679, Note_off_c, 2, 37, 0
6, 23680, Note_on_c, 2, 38, 88
6, 23719, Note_off_c, 2, 38, 0
6, 23720, Note_on_c, 2, 40, 88
6, 23759, Note_off_c, 2, 40, 0
6, 23760, Note_on_c, 2, 38, 88
6, 23876, Note_off_c, 2, 38, 0
6, 24060, Note_on_c, 2, 40, 88
6, 24118, Note_off_c, 2, 40, 0
6, 24120, Note_on_c, 2, 41, 88
6, 24178, Note_off_c, 2, 41, 0
6, 24180, Note_on_c, 2, 43, 88
6, 24238, Note_off_c, 2, 43, 0
6, 24240, Note_on_c, 2, 45, 88
6, 24298, Note_off_c, 2, 45, 0
6, 24300, Note_on_c, 2, 47, 88
6, 24358, Note_off_c, 2, 47, 0
6, 24360, Note_on_c, 2, 48, 88
6, 24418, Note_off_c, 2, 48, 0
6, 24420, Note_on_c, 2, 45, 88
6, 24478, Note_off_c, 2, 45, 0
6, 24480, Note_on_c, 2, 50, 88
6, 24538, Note_off_c, 2, 50, 0
6, 24540, Note_on_c, 2, 49, 88
6, 24598, Note_off_c, 2, 49, 0
6, 24600, Note_on_c, 2, 50, 88
6, 24658, Note_off_c, 2, 50, 0
6, 24660, Note_on_c, 2, 52, 88
6, 24718, Note_off_c, 2, 52, 0
6, 24720, Note_on_c, 2, 53, 88
6, 24778, Note_off_c, 2, 53, 0
6, 24780, Note_on_c, 2, 47, 88
6, 24838, Note_off_c, 2, 47, 0
6, 24840, Note_on_c, 2, 52, 88
6, 24898, Note_off_c, 2, 52, 0
6, 24900, Note_on_c, 2, 50, 88
6, 24958, Note_off_c, 2, 50, 0
6, 24960, Note_on_c, 2, 49, 88
6, 25018, Note_off_c, 2, 49, 0
6, 25020, Note_on_c, 2, 45, 88
6, 25078, Note_off_c, 2, 45, 0
6, 25080, Note_on_c, 2, 50, 88
6, 25138, Note_off_c, 2, 50, 0
6, 25140, Note_on_c, 2, 55, 88
6, 25198, Note_off_c, 2, 55, 0
6, 25200, Note_on_c, 2, 57, 88
6, 25316, Note_off_c, 2, 57, 0
6, 25320, Note_on_c, 2, 45, 88
6, 25436, Note_off_c, 2, 45, 0
6, 25440, Note_on_c, 2, 38, 88
6, 25910, Note_off_c, 2, 38, 0
6, 25910, End_track
0, 0, End_of_file
