0, 0, Header, 1, 8, 240
1, 0, Start_track
1, 0, Time_signature, 2, 1, 24, 8
1, 0, Tempo, 483870
1, 0, SMPTE_offset, 64, 0, 0, 0, 93
1, 0, End_track
2, 0, Start_track
2, 0, Title_t, "(C) & (P) 1993"
2, 127, End_track
3, 0, Start_track
3, 0, Title_t, "CCARH,Stanford"
3, 0, End_track
4, 0, Start_track
4, 0, Title_t, "Track 1"
4, 0, Program_c, 0, 6
4, 12960, Note_on_c, 0, 73, 88
4, 13430, Note_off_c, 0, 73, 0
4, 13440, Note_on_c, 0, 72, 88
4, 13910, Note_off_c, 0, 72, 0
4, 13920, Note_on_c, 0, 76, 88
4, 14390, Note_off_c, 0, 76, 0
4, 14400, Note_on_c, 0, 75, 88
4, 15345, Note_off_c, 0, 75, 0
4, 15360, Note_on_c, 0, 73, 88
4, 16068, Note_off_c, 0, 73, 0
4, 16080, Note_on_c, 0, 75, 88
4, 16314, Note_off_c, 0, 75, 0
4, 16320, Note_on_c, 0, 76, 88
4, 16554, Note_off_c, 0, 76, 0
4, 16560, Note_on_c, 0, 75, 88
4, 16794, Note_off_c, 0, 75, 0
4, 16800, Note_on_c, 0, 73, 88
4, 17270, Note_off_c, 0, 73, 0
4, 17280, Note_on_c, 0, 71, 88
4, 17750, Note_off_c, 0, 71, 0
4, 17760, Note_on_c, 0, 73, 88
4, 18230, Note_off_c, 0, 73, 0
4, 18240, Note_on_c, 0, 75, 88
4, 18710, Note_off_c, 0, 75, 0
4, 19440, Note_on_c, 0, 76, 88
4, 19674, Note_off_c, 0, 76, 0
4, 19680, Note_on_c, 0, 75, 88
4, 19914, Note_off_c, 0, 75, 0
4, 19920, Note_on_c, 0, 73, 88
4, 20154, Note_off_c, 0, 73, 0
4, 20160, Note_on_c, 0, 71, 88
4, 20394, Note_off_c, 0, 71, 0
4, 20400, Note_on_c, 0, 75, 88
4, 20634, Note_off_c, 0, 75, 0
4, 20640, Note_on_c, 0, 80, 88
4, 21354, Note_off_c, 0, 80, 0
4, 21360, Note_on_c, 0, 78, 88
4, 21594, Note_off_c, 0, 78, 0
4, 21600, Note_on_c, 0, 80, 88
4, 21834, Note_off_c, 0, 80, 0
4, 21840, Note_on_c, 0, 81, 88
4, 22074, Note_off_c, 0, 81, 0
4, 22080, Note_on_c, 0, 83, 88
4, 23274, Note_off_c, 0, 83, 0
4, 23280, Note_on_c, 0, 81, 88
4, 23514, Note_off_c, 0, 81, 0
4, 23520, Note_on_c, 0, 80, 88
4, 23754, Note_off_c, 0, 80, 0
4, 23760, Note_on_c, 0, 78, 88
4, 23994, Note_off_c, 0, 78, 0
4, 24000, Note_on_c, 0, 80, 88
4, 24116, Note_off_c, 0, 80, 0
4, 24120, Note_on_c, 0, 78, 88
4, 24236, Note_off_c, 0, 78, 0
4, 24240, Note_on_c, 0, 76, 88
4, 24356, Note_off_c, 0, 76, 0
4, 24360, Note_on_c, 0, 75, 88
4, 24476, Note_off_c, 0, 75, 0
4, 24480, Note_on_c, 0, 73, 88
4, 25430, Note_off_c, 0, 73, 0
4, 25440, Note_on_c, 0, 71, 88
4, 26154, Note_off_c, 0, 71, 0
4, 26160, Note_on_c, 0, 73, 88
4, 26394, Note_off_c, 0, 73, 0
4, 26400, Note_on_c, 0, 71, 88
4, 26634, Note_off_c, 0, 71, 0
4, 26640, Note_on_c, 0, 69, 88
4, 26874, Note_off_c, 0, 69, 0
4, 26880, Note_on_c, 0, 68, 88
4, 27350, Note_off_c, 0, 68, 0
4, 27360, Note_on_c, 0, 70, 88
4, 27594, Note_off_c, 0, 70, 0
4, 27600, Note_on_c, 0, 71, 88
4, 27834, Note_off_c, 0, 71, 0
4, 27840, Note_on_c, 0, 73, 88
4, 28310, Note_off_c, 0, 73, 0
4, 28320, Note_on_c, 0, 71, 88
4, 29270, Note_off_c, 0, 71, 0
4, 29280, Note_on_c, 0, 70, 88
4, 29750, Note_off_c, 0, 70, 0
4, 29760, Note_on_c, 0, 71, 88
4, 30954, Note_off_c, 0, 71, 0
4, 30960, Note_on_c, 0, 73, 88
4, 31194, Note_off_c, 0, 73, 0
4, 31200, Note_on_c, 0, 75, 88
4, 31434, Note_off_c, 0, 75, 0
4, 31440, Note_on_c, 0, 76, 88
4, 32150, Note_off_c, 0, 76, 0
4, 32160, Note_on_c, 0, 75, 88
4, 32630, Note_off_c, 0, 75, 0
4, 32640, Note_on_c, 0, 76, 88
4, 32874, Note_off_c, 0, 76, 0
4, 32880, Note_on_c, 0, 75, 88
4, 33114, Note_off_c, 0, 75, 0
4, 33120, Note_on_c, 0, 76, 88
4, 33354, Note_off_c, 0, 76, 0
4, 33360, Note_on_c, 0, 78, 88
4, 33594, Note_off_c, 0, 78, 0
4, 33600, Note_on_c, 0, 80, 88
4, 33716, Note_off_c, 0, 80, 0
4, 33720, Note_on_c, 0, 78, 88
4, 33836, Note_off_c, 0, 78, 0
4, 33840, Note_on_c, 0, 80, 88
4, 33956, Note_off_c, 0, 80, 0
4, 33960, Note_on_c, 0, 81, 88
4, 34076, Note_off_c, 0, 81, 0
4, 34080, Note_on_c, 0, 80, 88
4, 34196, Note_off_c, 0, 80, 0
4, 34200, Note_on_c, 0, 78, 88
4, 34316, Note_off_c, 0, 78, 0
4, 34320, Note_on_c, 0, 76, 88
4, 34436, Note_off_c, 0, 76, 0
4, 34440, Note_on_c, 0, 80, 88
4, 34556, Note_off_c, 0, 80, 0
4, 34560, Note_on_c, 0, 78, 88
4, 34676, Note_off_c, 0, 78, 0
4, 34680, Note_on_c, 0, 76, 88
4, 34796, Note_off_c, 0, 76, 0
4, 34800, Note_on_c, 0, 78, 88
4, 34916, Note_off_c, 0, 78, 0
4, 34920, Note_on_c, 0, 80, 88
4, 35036, Note_off_c, 0, 80, 0
4, 35040, Note_on_c, 0, 78, 88
4, 35156, Note_off_c, 0, 78, 0
4, 35160, Note_on_c, 0, 76, 88
4, 35276, Note_off_c, 0, 76, 0
4, 35280, Note_on_c, 0, 75, 88
4, 35396, Note_off_c, 0, 75, 0
4, 35400, Note_on_c, 0, 78, 88
4, 35516, Note_off_c, 0, 78, 0
4, 35520, Note_on_c, 0, 76, 88
4, 35636, Note_off_c, 0, 76, 0
4, 35640, Note_on_c, 0, 75, 88
4, 35756, Note_off_c, 0, 75, 0
4, 35760, Note_on_c, 0, 76, 88
4, 35876, Note_off_c, 0, 76, 0
4, 35880, Note_on_c, 0, 78, 88
4, 35996, Note_off_c, 0, 78, 0
4, 36000, Note_on_c, 0, 76, 88
4, 36116, Note_off_c, 0, 76, 0
4, 36120, Note_on_c, 0, 75, 88
4, 36236, Note_off_c, 0, 75, 0
4, 36240, Note_on_c, 0, 73, 88
4, 36356, Note_off_c, 0, 73, 0
4, 36360, Note_on_c, 0, 76, 88
4, 36476, Note_off_c, 0, 76, 0
4, 36480, Note_on_c, 0, 75, 88
4, 36596, Note_off_c, 0, 75, 0
4, 36600, Note_on_c, 0, 73, 88
4, 36716, Note_off_c, 0, 73, 0
4, 36720, Note_on_c, 0, 75, 88
4, 36836, Note_off_c, 0, 75, 0
4, 36840, Note_on_c, 0, 76, 88
4, 36956, Note_off_c, 0, 76, 0
4, 36960, Note_on_c, 0, 75, 88
4, 37076, Note_off_c, 0, 75, 0
4, 37080, Note_on_c, 0, 73, 88
4, 37196, Note_off_c, 0, 73, 0
4, 37200, Note_on_c, 0, 71, 88
4, 37316, Note_off_c, 0, 71, 0
4, 37320, Note_on_c, 0, 75, 88
4, 37436, Note_off_c, 0, 75, 0
4, 37440, Note_on_c, 0, 73, 88
4, 37556, Note_off_c, 0, 73, 0
4, 37560, Note_on_c, 0, 71, 88
4, 37676, Note_off_c, 0, 71, 0
4, 37680, Note_on_c, 0, 73, 88
4, 37796, Note_off_c, 0, 73, 0
4, 37800, Note_on_c, 0, 75, 88
4, 37916, Note_off_c, 0, 75, 0
4, 37920, Note_on_c, 0, 73, 88
4, 38036, Note_off_c, 0, 73, 0
4, 38040, Note_on_c, 0, 71, 88
4, 38156, Note_off_c, 0, 71, 0
4, 38160, Note_on_c, 0, 70, 88
4, 38276, Note_off_c, 0, 70, 0
4, 38280, Note_on_c, 0, 73, 88
4, 38396, Note_off_c, 0, 73, 0
4, 38400, Note_on_c, 0, 71, 88
4, 38990, Note_off_c, 0, 71, 0
4, 39000, Note_on_c, 0, 73, 88
4, 39116, Note_off_c, 0, 73, 0
4, 39120, Note_on_c, 0, 75, 88
4, 39236, Note_off_c, 0, 75, 0
4, 39240, Note_on_c, 0, 71, 88
4, 39356, Note_off_c, 0, 71, 0
4, 39360, Note_on_c, 0, 73, 88
4, 40068, Note_off_c, 0, 73, 0
4, 40080, Note_on_c, 0, 76, 88
4, 40314, Note_off_c, 0, 76, 0
4, 40320, Note_on_c, 0, 75, 88
4, 41028, Note_off_c, 0, 75, 0
4, 41040, Note_on_c, 0, 78, 88
4, 41274, Note_off_c, 0, 78, 0
4, 41280, Note_on_c, 0, 76, 88
4, 42474, Note_off_c, 0, 76, 0
4, 42480, Note_on_c, 0, 75, 88
4, 42950, Note_off_c, 0, 75, 0
4, 42960, Note_on_c, 0, 73, 88
4, 43434, Note_off_c, 0, 73, 0
4, 43440, Note_on_c, 0, 72, 88
4, 43556, Note_off_c, 0, 72, 0
4, 43560, Note_on_c, 0, 70, 88
4, 43676, Note_off_c, 0, 70, 0
4, 43680, Note_on_c, 0, 72, 88
4, 43914, Note_off_c, 0, 72, 0
4, 43920, Note_on_c, 0, 75, 88
4, 44154, Note_off_c, 0, 75, 0
4, 44160, Note_on_c, 0, 80, 88
4, 44276, Note_off_c, 0, 80, 0
4, 44280, Note_on_c, 0, 78, 88
4, 44396, Note_off_c, 0, 78, 0
4, 44400, Note_on_c, 0, 80, 88
4, 44516, Note_off_c, 0, 80, 0
4, 44520, Note_on_c, 0, 81, 88
4, 44636, Note_off_c, 0, 81, 0
4, 44640, Note_on_c, 0, 80, 88
4, 44756, Note_off_c, 0, 80, 0
4, 44760, Note_on_c, 0, 78, 88
4, 44876, Note_off_c, 0, 78, 0
4, 44880, Note_on_c, 0, 76, 88
4, 44996, Note_off_c, 0, 76, 0
4, 45000, Note_on_c, 0, 80, 88
4, 45116, Note_off_c, 0, 80, 0
4, 45120, Note_on_c, 0, 78, 88
4, 45236, Note_off_c, 0, 78, 0
4, 45240, Note_on_c, 0, 76, 88
4, 45356, Note_off_c, 0, 76, 0
4, 45360, Note_on_c, 0, 78, 88
4, 45476, Note_off_c, 0, 78, 0
4, 45480, Note_on_c, 0, 80, 88
4, 45596, Note_off_c, 0, 80, 0
4, 45600, Note_on_c, 0, 78, 88
4, 45716, Note_off_c, 0, 78, 0
4, 45720, Note_on_c, 0, 76, 88
4, 45836, Note_off_c, 0, 76, 0
4, 45840, Note_on_c, 0, 75, 88
4, 45956, Note_off_c, 0, 75, 0
4, 45960, Note_on_c, 0, 78, 88
4, 46076, Note_off_c, 0, 78, 0
4, 46080, Note_on_c, 0, 77, 88
4, 46550, Note_off_c, 0, 77, 0
4, 46560, Note_on_c, 0, 81, 88
4, 47030, Note_off_c, 0, 81, 0
4, 47040, Note_on_c, 0, 80, 88
4, 48234, Note_off_c, 0, 80, 0
4, 48240, Note_on_c, 0, 78, 88
4, 48356, Note_off_c, 0, 78, 0
4, 48360, Note_on_c, 0, 76, 88
4, 48476, Note_off_c, 0, 76, 0
4, 48480, Note_on_c, 0, 74, 88
4, 48950, Note_off_c, 0, 74, 0
4, 49200, Note_on_c, 0, 73, 88
4, 49434, Note_off_c, 0, 73, 0
4, 49440, Note_on_c, 0, 78, 88
4, 49650, Note_off_c, 0, 78, 0
4, 49680, Note_on_c, 0, 78, 88
4, 49914, Note_off_c, 0, 78, 0
4, 49920, Note_on_c, 0, 78, 88
4, 50154, Note_off_c, 0, 78, 0
4, 50160, Note_on_c, 0, 76, 88
4, 50276, Note_off_c, 0, 76, 0
4, 50280, Note_on_c, 0, 74, 88
4, 50396, Note_off_c, 0, 74, 0
4, 50400, Note_on_c, 0, 76, 88
4, 51114, Note_off_c, 0, 76, 0
4, 51120, Note_on_c, 0, 74, 88
4, 51236, Note_off_c, 0, 74, 0
4, 51240, Note_on_c, 0, 73, 88
4, 51356, Note_off_c, 0, 73, 0
4, 51360, Note_on_c, 0, 74, 88
4, 52310, Note_off_c, 0, 74, 0
4, 52320, Note_on_c, 0, 73, 88
4, 52790, Note_off_c, 0, 73, 0
4, 52800, Note_on_c, 0, 78, 88
4, 53270, Note_off_c, 0, 78, 0
4, 53280, Note_on_c, 0, 76, 88
4, 54113, Note_off_c, 0, 76, 0
4, 54120, Note_on_c, 0, 78, 88
4, 54236, Note_off_c, 0, 78, 0
4, 54240, Note_on_c, 0, 76, 88
4, 54356, Note_off_c, 0, 76, 0
4, 54360, Note_on_c, 0, 74, 88
4, 54476, Note_off_c, 0, 74, 0
4, 54480, Note_on_c, 0, 73, 88
4, 54596, Note_off_c, 0, 73, 0
4, 54600, Note_on_c, 0, 76, 88
4, 54716, Note_off_c, 0, 76, 0
4, 54720, Note_on_c, 0, 74, 88
4, 54836, Note_off_c, 0, 74, 0
4, 54840, Note_on_c, 0, 73, 88
4, 54956, Note_off_c, 0, 73, 0
4, 54960, Note_on_c, 0, 74, 88
4, 55076, Note_off_c, 0, 74, 0
4, 55080, Note_on_c, 0, 76, 88
4, 55196, Note_off_c, 0, 76, 0
4, 55200, Note_on_c, 0, 74, 88
4, 55316, Note_off_c, 0, 74, 0
4, 55320, Note_on_c, 0, 73, 88
4, 55436, Note_off_c, 0, 73, 0
4, 55440, Note_on_c, 0, 71, 88
4, 55556, Note_off_c, 0, 71, 0
4, 55560, Note_on_c, 0, 74, 88
4, 55676, Note_off_c, 0, 74, 0
4, 55680, Note_on_c, 0, 73, 88
4, 56625, Note_off_c, 0, 73, 0
4, 56640, Note_on_c, 0, 72, 88
4, 57110, Note_off_c, 0, 72, 0
4, 57120, Note_on_c, 0, 76, 88
4, 57590, Note_off_c, 0, 76, 0
4, 57600, Note_on_c, 0, 75, 88
4, 58794, Note_off_c, 0, 75, 0
4, 58800, Note_on_c, 0, 68, 88
4, 59034, Note_off_c, 0, 68, 0
4, 59040, Note_on_c, 0, 73, 88
4, 59250, Note_off_c, 0, 73, 0
4, 59280, Note_on_c, 0, 73, 88
4, 59514, Note_off_c, 0, 73, 0
4, 59520, Note_on_c, 0, 73, 88
4, 59754, Note_off_c, 0, 73, 0
4, 59760, Note_on_c, 0, 71, 88
4, 59876, Note_off_c, 0, 71, 0
4, 59880, Note_on_c, 0, 69, 88
4, 59996, Note_off_c, 0, 69, 0
4, 60000, Note_on_c, 0, 71, 88
4, 60950, Note_off_c, 0, 71, 0
4, 60960, Note_on_c, 0, 69, 88
4, 61430, Note_off_c, 0, 69, 0
4, 61440, Note_on_c, 0, 68, 88
4, 61910, Note_off_c, 0, 68, 0
4, 62400, Note_on_c, 0, 75, 88
4, 63345, Note_off_c, 0, 75, 0
4, 63360, Note_on_c, 0, 74, 88
4, 63830, Note_off_c, 0, 74, 0
4, 63840, Note_on_c, 0, 78, 88
4, 64310, Note_off_c, 0, 78, 0
4, 64320, Note_on_c, 0, 77, 88
4, 64790, Note_off_c, 0, 77, 0
4, 64800, Note_on_c, 0, 76, 88
4, 65270, Note_off_c, 0, 76, 0
4, 65280, Note_on_c, 0, 75, 88
4, 65396, Note_off_c, 0, 75, 0
4, 65400, Note_on_c, 0, 73, 88
4, 65516, Note_off_c, 0, 73, 0
4, 65520, Note_on_c, 0, 75, 88
4, 65636, Note_off_c, 0, 75, 0
4, 65640, Note_on_c, 0, 76, 88
4, 65756, Note_off_c, 0, 76, 0
4, 65760, Note_on_c, 0, 75, 88
4, 65876, Note_off_c, 0, 75, 0
4, 65880, Note_on_c, 0, 73, 88
4, 65996, Note_off_c, 0, 73, 0
4, 66000, Note_on_c, 0, 71, 88
4, 66116, Note_off_c, 0, 71, 0
4, 66120, Note_on_c, 0, 75, 88
4, 66236, Note_off_c, 0, 75, 0
4, 66240, Note_on_c, 0, 73, 88
4, 66356, Note_off_c, 0, 73, 0
4, 66360, Note_on_c, 0, 71, 88
4, 66476, Note_off_c, 0, 71, 0
4, 66480, Note_on_c, 0, 73, 88
4, 66596, Note_off_c, 0, 73, 0
4, 66600, Note_on_c, 0, 75, 88
4, 66716, Note_off_c, 0, 75, 0
4, 66720, Note_on_c, 0, 73, 88
4, 66836, Note_off_c, 0, 73, 0
4, 66840, Note_on_c, 0, 76, 88
4, 66956, Note_off_c, 0, 76, 0
4, 66960, Note_on_c, 0, 75, 88
4, 67076, Note_off_c, 0, 75, 0
4, 67080, Note_on_c, 0, 73, 88
4, 67196, Note_off_c, 0, 73, 0
4, 67200, Note_on_c, 0, 72, 88
4, 67670, Note_off_c, 0, 72, 0
4, 67680, Note_on_c, 0, 71, 88
4, 68150, Note_off_c, 0, 71, 0
4, 68160, Note_on_c, 0, 70, 88
4, 68630, Note_off_c, 0, 70, 0
4, 68640, Note_on_c, 0, 69, 88
4, 69110, Note_off_c, 0, 69, 0
4, 69120, Note_on_c, 0, 68, 88
4, 69590, Note_off_c, 0, 68, 0
4, 72000, Note_on_c, 0, 73, 88
4, 72945, Note_off_c, 0, 73, 0
4, 72960, Note_on_c, 0, 72, 88
4, 73430, Note_off_c, 0, 72, 0
4, 73440, Note_on_c, 0, 76, 88
4, 73910, Note_off_c, 0, 76, 0
4, 73920, Note_on_c, 0, 75, 88
4, 75350, Note_off_c, 0, 75, 0
4, 75360, Note_on_c, 0, 73, 88
4, 76310, Note_off_c, 0, 73, 0
4, 76320, Note_on_c, 0, 72, 88
4, 76790, Note_off_c, 0, 72, 0
4, 77040, Note_on_c, 0, 73, 88
4, 77156, Note_off_c, 0, 73, 0
4, 77160, Note_on_c, 0, 75, 88
4, 77276, Note_off_c, 0, 75, 0
4, 77280, Note_on_c, 0, 76, 88
4, 77514, Note_off_c, 0, 76, 0
4, 77520, Note_on_c, 0, 78, 88
4, 77754, Note_off_c, 0, 78, 0
4, 77760, Note_on_c, 0, 80, 88
4, 77876, Note_off_c, 0, 80, 0
4, 77880, Note_on_c, 0, 78, 88
4, 77996, Note_off_c, 0, 78, 0
4, 78000, Note_on_c, 0, 80, 88
4, 78116, Note_off_c, 0, 80, 0
4, 78120, Note_on_c, 0, 81, 88
4, 78236, Note_off_c, 0, 81, 0
4, 78240, Note_on_c, 0, 80, 88
4, 78356, Note_off_c, 0, 80, 0
4, 78360, Note_on_c, 0, 78, 88
4, 78476, Note_off_c, 0, 78, 0
4, 78480, Note_on_c, 0, 76, 88
4, 78596, Note_off_c, 0, 76, 0
4, 78600, Note_on_c, 0, 80, 88
4, 78716, Note_off_c, 0, 80, 0
4, 78720, Note_on_c, 0, 78, 88
4, 78836, Note_off_c, 0, 78, 0
4, 78840, Note_on_c, 0, 76, 88
4, 78956, Note_off_c, 0, 76, 0
4, 78960, Note_on_c, 0, 78, 88
4, 79076, Note_off_c, 0, 78, 0
4, 79080, Note_on_c, 0, 80, 88
4, 79196, Note_off_c, 0, 80, 0
4, 79200, Note_on_c, 0, 78, 88
4, 79316, Note_off_c, 0, 78, 0
4, 79320, Note_on_c, 0, 76, 88
4, 79436, Note_off_c, 0, 76, 0
4, 79440, Note_on_c, 0, 75, 88
4, 79556, Note_off_c, 0, 75, 0
4, 79560, Note_on_c, 0, 78, 88
4, 79676, Note_off_c, 0, 78, 0
4, 79680, Note_on_c, 0, 76, 88
4, 79796, Note_off_c, 0, 76, 0
4, 79800, Note_on_c, 0, 75, 88
4, 79916, Note_off_c, 0, 75, 0
4, 79920, Note_on_c, 0, 76, 88
4, 80036, Note_off_c, 0, 76, 0
4, 80040, Note_on_c, 0, 78, 88
4, 80156, Note_off_c, 0, 78, 0
4, 80160, Note_on_c, 0, 76, 88
4, 80276, Note_off_c, 0, 76, 0
4, 80280, Note_on_c, 0, 74, 88
4, 80396, Note_off_c, 0, 74, 0
4, 80400, Note_on_c, 0, 73, 88
4, 80516, Note_off_c, 0, 73, 0
4, 80520, Note_on_c, 0, 76, 88
4, 80636, Note_off_c, 0, 76, 0
4, 80640, Note_on_c, 0, 74, 88
4, 80756, Note_off_c, 0, 74, 0
4, 80760, Note_on_c, 0, 73, 88
4, 80876, Note_off_c, 0, 73, 0
4, 80880, Note_on_c, 0, 74, 88
4, 80996, Note_off_c, 0, 74, 0
4, 81000, Note_on_c, 0, 76, 88
4, 81116, Note_off_c, 0, 76, 0
4, 81120, Note_on_c, 0, 74, 88
4, 81236, Note_off_c, 0, 74, 0
4, 81240, Note_on_c, 0, 73, 88
4, 81356, Note_off_c, 0, 73, 0
4, 81360, Note_on_c, 0, 71, 88
4, 81476, Note_off_c, 0, 71, 0
4, 81480, Note_on_c, 0, 74, 88
4, 81596, Note_off_c, 0, 74, 0
4, 81600, Note_on_c, 0, 73, 88
4, 81716, Note_off_c, 0, 73, 0
4, 81720, Note_on_c, 0, 71, 88
4, 81836, Note_off_c, 0, 71, 0
4, 81840, Note_on_c, 0, 73, 88
4, 81956, Note_off_c, 0, 73, 0
4, 81960, Note_on_c, 0, 74, 88
4, 82076, Note_off_c, 0, 74, 0
4, 82080, Note_on_c, 0, 73, 88
4, 82196, Note_off_c, 0, 73, 0
4, 82200, Note_on_c, 0, 71, 88
4, 82316, Note_off_c, 0, 71, 0
4, 82320, Note_on_c, 0, 69, 88
4, 82436, Note_off_c, 0, 69, 0
4, 82440, Note_on_c, 0, 73, 88
4, 82556, Note_off_c, 0, 73, 0
4, 82560, Note_on_c, 0, 71, 88
4, 82676, Note_off_c, 0, 71, 0
4, 82680, Note_on_c, 0, 69, 88
4, 82796, Note_off_c, 0, 69, 0
4, 82800, Note_on_c, 0, 71, 88
4, 82916, Note_off_c, 0, 71, 0
4, 82920, Note_on_c, 0, 73, 88
4, 83036, Note_off_c, 0, 73, 0
4, 83040, Note_on_c, 0, 71, 88
4, 83156, Note_off_c, 0, 71, 0
4, 83160, Note_on_c, 0, 69, 88
4, 83276, Note_off_c, 0, 69, 0
4, 83280, Note_on_c, 0, 68, 88
4, 83396, Note_off_c, 0, 68, 0
4, 83400, Note_on_c, 0, 71, 88
4, 83516, Note_off_c, 0, 71, 0
4, 83520, Note_on_c, 0, 69, 88
4, 83990, Note_off_c, 0, 69, 0
4, 84480, Note_on_c, 0, 73, 88
4, 85425, Note_off_c, 0, 73, 0
4, 85440, Note_on_c, 0, 72, 88
4, 85910, Note_off_c, 0, 72, 0
4, 85920, Note_on_c, 0, 76, 88
4, 86390, Note_off_c, 0, 76, 0
4, 86400, Note_on_c, 0, 75, 88
4, 87594, Note_off_c, 0, 75, 0
4, 87600, Note_on_c, 0, 73, 88
4, 87834, Note_off_c, 0, 73, 0
4, 87840, Note_on_c, 0, 80, 88
4, 88050, Note_off_c, 0, 80, 0
4, 88080, Note_on_c, 0, 80, 88
4, 88314, Note_off_c, 0, 80, 0
4, 88320, Note_on_c, 0, 80, 88
4, 88554, Note_off_c, 0, 80, 0
4, 88560, Note_on_c, 0, 78, 88
4, 88676, Note_off_c, 0, 78, 0
4, 88680, Note_on_c, 0, 76, 88
4, 88796, Note_off_c, 0, 76, 0
4, 88800, Note_on_c, 0, 78, 88
4, 89270, Note_off_c, 0, 78, 0
4, 89280, Note_on_c, 0, 76, 88
4, 90225, Note_off_c, 0, 76, 0
4, 90240, Note_on_c, 0, 75, 88
4, 90710, Note_off_c, 0, 75, 0
4, 90720, Note_on_c, 0, 79, 88
4, 91190, Note_off_c, 0, 79, 0
4, 91200, Note_on_c, 0, 78, 88
4, 91670, Note_off_c, 0, 78, 0
4, 91680, Note_on_c, 0, 66, 88
4, 92150, Note_off_c, 0, 66, 0
4, 92160, Note_on_c, 0, 65, 88
4, 92630, Note_off_c, 0, 65, 0
4, 92640, Note_on_c, 0, 69, 88
4, 93110, Note_off_c, 0, 69, 0
4, 93120, Note_on_c, 0, 68, 88
4, 93354, Note_off_c, 0, 68, 0
4, 94320, Note_on_c, 0, 72, 88
4, 94554, Note_off_c, 0, 72, 0
4, 94560, Note_on_c, 0, 78, 88
4, 94770, Note_off_c, 0, 78, 0
4, 94800, Note_on_c, 0, 78, 88
4, 95034, Note_off_c, 0, 78, 0
4, 95040, Note_on_c, 0, 78, 88
4, 95274, Note_off_c, 0, 78, 0
4, 95280, Note_on_c, 0, 76, 88
4, 95396, Note_off_c, 0, 76, 0
4, 95400, Note_on_c, 0, 75, 88
4, 95516, Note_off_c, 0, 75, 0
4, 95520, Note_on_c, 0, 76, 88
4, 95754, Note_off_c, 0, 76, 0
4, 95760, Note_on_c, 0, 75, 88
4, 95876, Note_off_c, 0, 75, 0
4, 95880, Note_on_c, 0, 73, 88
4, 95996, Note_off_c, 0, 73, 0
4, 96000, Note_on_c, 0, 75, 88
4, 96234, Note_off_c, 0, 75, 0
4, 96240, Note_on_c, 0, 72, 88
4, 96474, Note_off_c, 0, 72, 0
4, 96480, Note_on_c, 0, 73, 88
4, 97905, Note_off_c, 0, 73, 0
4, 97920, Note_on_c, 0, 72, 88
4, 98390, Note_off_c, 0, 72, 0
4, 98400, Note_on_c, 0, 71, 88
4, 98870, Note_off_c, 0, 71, 0
4, 98880, Note_on_c, 0, 70, 88
4, 99350, Note_off_c, 0, 70, 0
4, 99360, Note_on_c, 0, 69, 88
4, 99830, Note_off_c, 0, 69, 0
4, 99840, Note_on_c, 0, 68, 88
4, 100785, Note_off_c, 0, 68, 0
4, 100800, Note_on_c, 0, 70, 88
4, 101270, Note_off_c, 0, 70, 0
4, 101280, Note_on_c, 0, 72, 88
4, 101750, Note_off_c, 0, 72, 0
4, 101760, Note_on_c, 0, 73, 88
4, 102705, Note_off_c, 0, 73, 0
4, 102720, Note_on_c, 0, 72, 88
4, 103190, Note_off_c, 0, 72, 0
4, 103200, Note_on_c, 0, 76, 88
4, 104150, Note_off_c, 0, 76, 0
4, 104160, Note_on_c, 0, 75, 88
4, 104394, Note_off_c, 0, 75, 0
4, 104400, Note_on_c, 0, 73, 88
4, 104634, Note_off_c, 0, 73, 0
4, 104640, Note_on_c, 0, 72, 88
4, 105110, Note_off_c, 0, 72, 0
4, 105120, Note_on_c, 0, 73, 88
4, 106070, Note_off_c, 0, 73, 0
4, 106080, Note_on_c, 0, 72, 88
4, 106550, Note_off_c, 0, 72, 0
4, 106560, Note_on_c, 0, 73, 88
4, 110385, Note_off_c, 0, 73, 0
4, 110385, End_track
5, 0, Start_track
5, 0, Title_t, "Track 2"
5, 0, Program_c, 1, 6
5, 11040, Note_on_c, 1, 68, 88
5, 11510, Note_off_c, 1, 68, 0
5, 11520, Note_on_c, 1, 65, 88
5, 11990, Note_off_c, 1, 65, 0
5, 12000, Note_on_c, 1, 69, 88
5, 12470, Note_off_c, 1, 69, 0
5, 12480, Note_on_c, 1, 68, 88
5, 12950, Note_off_c, 1, 68, 0
5, 12960, Note_on_c, 1, 66, 88
5, 13910, Note_off_c, 1, 66, 0
5, 13920, Note_on_c, 1, 73, 88
5, 14870, Note_off_c, 1, 73, 0
5, 14880, Note_on_c, 1, 71, 88
5, 15830, Note_off_c, 1, 71, 0
5, 15840, Note_on_c, 1, 69, 88
5, 16310, Note_off_c, 1, 69, 0
5, 16320, Note_on_c, 1, 68, 88
5, 16790, Note_off_c, 1, 68, 0
5, 16800, Note_on_c, 1, 69, 88
5, 17514, Note_off_c, 1, 69, 0
5, 17520, Note_on_c, 1, 68, 88
5, 17754, Note_off_c, 1, 68, 0
5, 17760, Note_on_c, 1, 66, 88
5, 17994, Note_off_c, 1, 66, 0
5, 18000, Note_on_c, 1, 64, 88
5, 18234, Note_off_c, 1, 64, 0
5, 18240, Note_on_c, 1, 63, 88
5, 18710, Note_off_c, 1, 63, 0
5, 18720, Note_on_c, 1, 68, 88
5, 19670, Note_off_c, 1, 68, 0
5, 19680, Note_on_c, 1, 67, 88
5, 20150, Note_off_c, 1, 67, 0
5, 20160, Note_on_c, 1, 68, 88
5, 20630, Note_off_c, 1, 68, 0
5, 20640, Note_on_c, 1, 59, 88
5, 21110, Note_off_c, 1, 59, 0
5, 21120, Note_on_c, 1, 61, 88
5, 21810, Note_off_c, 1, 61, 0
5, 21840, Note_on_c, 1, 61, 88
5, 22074, Note_off_c, 1, 61, 0
5, 22080, Note_on_c, 1, 63, 88
5, 22314, Note_off_c, 1, 63, 0
5, 22320, Note_on_c, 1, 61, 88
5, 22554, Note_off_c, 1, 61, 0
5, 22560, Note_on_c, 1, 63, 88
5, 22794, Note_off_c, 1, 63, 0
5, 22800, Note_on_c, 1, 65, 88
5, 23034, Note_off_c, 1, 65, 0
5, 23040, Note_on_c, 1, 66, 88
5, 23510, Note_off_c, 1, 66, 0
5, 23520, Note_on_c, 1, 69, 88
5, 23990, Note_off_c, 1, 69, 0
5, 24000, Note_on_c, 1, 68, 88
5, 24470, Note_off_c, 1, 68, 0
5, 24600, Note_on_c, 1, 71, 88
5, 24716, Note_off_c, 1, 71, 0
5, 24720, Note_on_c, 1, 69, 88
5, 24836, Note_off_c, 1, 69, 0
5, 24840, Note_on_c, 1, 68, 88
5, 24956, Note_off_c, 1, 68, 0
5, 24960, Note_on_c, 1, 66, 88
5, 25194, Note_off_c, 1, 66, 0
5, 25200, Note_on_c, 1, 69, 88
5, 25434, Note_off_c, 1, 69, 0
5, 25440, Note_on_c, 1, 68, 88
5, 25674, Note_off_c, 1, 68, 0
5, 25680, Note_on_c, 1, 66, 88
5, 25914, Note_off_c, 1, 66, 0
5, 25920, Note_on_c, 1, 65, 88
5, 26390, Note_off_c, 1, 65, 0
5, 26400, Note_on_c, 1, 66, 88
5, 27114, Note_off_c, 1, 66, 0
5, 27120, Note_on_c, 1, 64, 88
5, 28310, Note_off_c, 1, 64, 0
5, 28320, Note_on_c, 1, 63, 88
5, 28790, Note_off_c, 1, 63, 0
5, 28800, Note_on_c, 1, 64, 88
5, 29994, Note_off_c, 1, 64, 0
5, 30000, Note_on_c, 1, 63, 88
5, 30234, Note_off_c, 1, 63, 0
5, 30240, Note_on_c, 1, 64, 88
5, 30474, Note_off_c, 1, 64, 0
5, 30480, Note_on_c, 1, 66, 88
5, 30596, Note_off_c, 1, 66, 0
5, 30600, Note_on_c, 1, 68, 88
5, 30716, Note_off_c, 1, 68, 0
5, 30720, Note_on_c, 1, 66, 88
5, 31190, Note_off_c, 1, 66, 0
5, 31200, Note_on_c, 1, 71, 88
5, 31914, Note_off_c, 1, 71, 0
5, 31920, Note_on_c, 1, 73, 88
5, 32154, Note_off_c, 1, 73, 0
5, 32160, Note_on_c, 1, 71, 88
5, 32394, Note_off_c, 1, 71, 0
5, 32400, Note_on_c, 1, 69, 88
5, 32634, Note_off_c, 1, 69, 0
5, 32640, Note_on_c, 1, 68, 88
5, 33110, Note_off_c, 1, 68, 0
5, 41760, Note_on_c, 1, 73, 88
5, 42230, Note_off_c, 1, 73, 0
5, 42240, Note_on_c, 1, 72, 88
5, 42710, Note_off_c, 1, 72, 0
5, 42720, Note_on_c, 1, 76, 88
5, 43190, Note_off_c, 1, 76, 0
5, 43200, Note_on_c, 1, 75, 88
5, 44630, Note_off_c, 1, 75, 0
5, 44640, Note_on_c, 1, 73, 88
5, 45590, Note_off_c, 1, 73, 0
5, 45600, Note_on_c, 1, 72, 88
5, 45834, Note_off_c, 1, 72, 0
5, 45840, Note_on_c, 1, 71, 88
5, 46170, Note_off_c, 1, 71, 0
5, 46200, Note_on_c, 1, 71, 88
5, 46316, Note_off_c, 1, 71, 0
5, 46320, Note_on_c, 1, 73, 88
5, 46436, Note_off_c, 1, 73, 0
5, 46440, Note_on_c, 1, 74, 88
5, 46556, Note_off_c, 1, 74, 0
5, 46560, Note_on_c, 1, 73, 88
5, 46676, Note_off_c, 1, 73, 0
5, 46680, Note_on_c, 1, 71, 88
5, 46796, Note_off_c, 1, 71, 0
5, 46800, Note_on_c, 1, 69, 88
5, 46916, Note_off_c, 1, 69, 0
5, 46920, Note_on_c, 1, 73, 88
5, 47036, Note_off_c, 1, 73, 0
5, 47040, Note_on_c, 1, 71, 88
5, 47156, Note_off_c, 1, 71, 0
5, 47160, Note_on_c, 1, 69, 88
5, 47276, Note_off_c, 1, 69, 0
5, 47280, Note_on_c, 1, 71, 88
5, 47396, Note_off_c, 1, 71, 0
5, 47400, Note_on_c, 1, 73, 88
5, 47516, Note_off_c, 1, 73, 0
5, 47520, Note_on_c, 1, 71, 88
5, 47636, Note_off_c, 1, 71, 0
5, 47640, Note_on_c, 1, 69, 88
5, 47756, Note_off_c, 1, 69, 0
5, 47760, Note_on_c, 1, 68, 88
5, 47876, Note_off_c, 1, 68, 0
5, 47880, Note_on_c, 1, 71, 88
5, 47996, Note_off_c, 1, 71, 0
5, 48000, Note_on_c, 1, 69, 88
5, 48590, Note_off_c, 1, 69, 0
5, 48600, Note_on_c, 1, 73, 88
5, 48716, Note_off_c, 1, 73, 0
5, 48720, Note_on_c, 1, 71, 88
5, 48836, Note_off_c, 1, 71, 0
5, 48840, Note_on_c, 1, 69, 88
5, 48956, Note_off_c, 1, 69, 0
5, 48960, Note_on_c, 1, 68, 88
5, 49430, Note_off_c, 1, 68, 0
5, 51360, Note_on_c, 1, 69, 88
5, 51830, Note_off_c, 1, 69, 0
5, 51840, Note_on_c, 1, 68, 88
5, 52310, Note_off_c, 1, 68, 0
5, 52320, Note_on_c, 1, 73, 88
5, 52790, Note_off_c, 1, 73, 0
5, 52800, Note_on_c, 1, 71, 88
5, 53994, Note_off_c, 1, 71, 0
5, 54000, Note_on_c, 1, 64, 88
5, 54234, Note_off_c, 1, 64, 0
5, 54240, Note_on_c, 1, 69, 88
5, 54450, Note_off_c, 1, 69, 0
5, 54480, Note_on_c, 1, 69, 88
5, 54714, Note_off_c, 1, 69, 0
5, 54720, Note_on_c, 1, 69, 88
5, 54954, Note_off_c, 1, 69, 0
5, 54960, Note_on_c, 1, 68, 88
5, 55076, Note_off_c, 1, 68, 0
5, 55080, Note_on_c, 1, 66, 88
5, 55196, Note_off_c, 1, 66, 0
5, 55200, Note_on_c, 1, 68, 88
5, 55914, Note_off_c, 1, 68, 0
5, 55920, Note_on_c, 1, 61, 88
5, 56036, Note_off_c, 1, 61, 0
5, 56040, Note_on_c, 1, 63, 88
5, 56156, Note_off_c, 1, 63, 0
5, 56160, Note_on_c, 1, 64, 88
5, 56394, Note_off_c, 1, 64, 0
5, 56400, Note_on_c, 1, 66, 88
5, 56634, Note_off_c, 1, 66, 0
5, 56640, Note_on_c, 1, 68, 88
5, 56756, Note_off_c, 1, 68, 0
5, 56760, Note_on_c, 1, 66, 88
5, 56876, Note_off_c, 1, 66, 0
5, 56880, Note_on_c, 1, 68, 88
5, 56996, Note_off_c, 1, 68, 0
5, 57000, Note_on_c, 1, 69, 88
5, 57116, Note_off_c, 1, 69, 0
5, 57120, Note_on_c, 1, 68, 88
5, 57236, Note_off_c, 1, 68, 0
5, 57240, Note_on_c, 1, 66, 88
5, 57356, Note_off_c, 1, 66, 0
5, 57360, Note_on_c, 1, 64, 88
5, 57476, Note_off_c, 1, 64, 0
5, 57480, Note_on_c, 1, 68, 88
5, 57596, Note_off_c, 1, 68, 0
5, 57600, Note_on_c, 1, 66, 88
5, 57716, Note_off_c, 1, 66, 0
5, 57720, Note_on_c, 1, 64, 88
5, 57836, Note_off_c, 1, 64, 0
5, 57840, Note_on_c, 1, 66, 88
5, 57956, Note_off_c, 1, 66, 0
5, 57960, Note_on_c, 1, 68, 88
5, 58076, Note_off_c, 1, 68, 0
5, 58080, Note_on_c, 1, 66, 88
5, 58196, Note_off_c, 1, 66, 0
5, 58200, Note_on_c, 1, 64, 88
5, 58316, Note_off_c, 1, 64, 0
5, 58320, Note_on_c, 1, 63, 88
5, 58436, Note_off_c, 1, 63, 0
5, 58440, Note_on_c, 1, 66, 88
5, 58556, Note_off_c, 1, 66, 0
5, 58560, Note_on_c, 1, 64, 88
5, 58676, Note_off_c, 1, 64, 0
5, 58680, Note_on_c, 1, 63, 88
5, 58796, Note_off_c, 1, 63, 0
5, 58800, Note_on_c, 1, 64, 88
5, 58916, Note_off_c, 1, 64, 0
5, 58920, Note_on_c, 1, 66, 88
5, 59036, Note_off_c, 1, 66, 0
5, 59040, Note_on_c, 1, 64, 88
5, 59156, Note_off_c, 1, 64, 0
5, 59160, Note_on_c, 1, 63, 88
5, 59276, Note_off_c, 1, 63, 0
5, 59280, Note_on_c, 1, 61, 88
5, 59396, Note_off_c, 1, 61, 0
5, 59400, Note_on_c, 1, 64, 88
5, 59516, Note_off_c, 1, 64, 0
5, 59520, Note_on_c, 1, 63, 88
5, 59636, Note_off_c, 1, 63, 0
5, 59640, Note_on_c, 1, 61, 88
5, 59756, Note_off_c, 1, 61, 0
5, 59760, Note_on_c, 1, 63, 88
5, 59876, Note_off_c, 1, 63, 0
5, 59880, Note_on_c, 1, 64, 88
5, 59996, Note_off_c, 1, 64, 0
5, 60000, Note_on_c, 1, 62, 88
5, 60116, Note_off_c, 1, 62, 0
5, 60120, Note_on_c, 1, 61, 88
5, 60236, Note_off_c, 1, 61, 0
5, 60240, Note_on_c, 1, 59, 88
5, 60356, Note_off_c, 1, 59, 0
5, 60360, Note_on_c, 1, 62, 88
5, 60476, Note_off_c, 1, 62, 0
5, 60480, Note_on_c, 1, 61, 88
5, 60596, Note_off_c, 1, 61, 0
5, 60600, Note_on_c, 1, 59, 88
5, 60716, Note_off_c, 1, 59, 0
5, 60720, Note_on_c, 1, 61, 88
5, 60836, Note_off_c, 1, 61, 0
5, 60840, Note_on_c, 1, 62, 88
5, 60956, Note_off_c, 1, 62, 0
5, 60960, Note_on_c, 1, 61, 88
5, 61076, Note_off_c, 1, 61, 0
5, 61080, Note_on_c, 1, 64, 88
5, 61196, Note_off_c, 1, 64, 0
5, 61200, Note_on_c, 1, 63, 88
5, 61316, Note_off_c, 1, 63, 0
5, 61320, Note_on_c, 1, 61, 88
5, 61436, Note_off_c, 1, 61, 0
5, 61440, Note_on_c, 1, 60, 88
5, 61910, Note_off_c, 1, 60, 0
5, 61920, Note_on_c, 1, 61, 88
5, 62390, Note_off_c, 1, 61, 0
5, 62400, Note_on_c, 1, 63, 88
5, 62610, Note_off_c, 1, 63, 0
5, 62640, Note_on_c, 1, 63, 88
5, 62874, Note_off_c, 1, 63, 0
5, 62880, Note_on_c, 1, 68, 88
5, 62996, Note_off_c, 1, 68, 0
5, 63000, Note_on_c, 1, 70, 88
5, 63116, Note_off_c, 1, 70, 0
5, 63120, Note_on_c, 1, 71, 88
5, 63594, Note_off_c, 1, 71, 0
5, 63600, Note_on_c, 1, 70, 88
5, 63834, Note_off_c, 1, 70, 0
5, 63840, Note_on_c, 1, 75, 88
5, 64050, Note_off_c, 1, 75, 0
5, 64080, Note_on_c, 1, 75, 88
5, 64314, Note_off_c, 1, 75, 0
5, 64320, Note_on_c, 1, 75, 88
5, 64554, Note_off_c, 1, 75, 0
5, 64560, Note_on_c, 1, 73, 88
5, 64676, Note_off_c, 1, 73, 0
5, 64680, Note_on_c, 1, 72, 88
5, 64796, Note_off_c, 1, 72, 0
5, 64800, Note_on_c, 1, 73, 88
5, 65750, Note_off_c, 1, 73, 0
5, 65760, Note_on_c, 1, 71, 88
5, 66230, Note_off_c, 1, 71, 0
5, 66240, Note_on_c, 1, 70, 88
5, 66710, Note_off_c, 1, 70, 0
5, 66720, Note_on_c, 1, 69, 88
5, 67434, Note_off_c, 1, 69, 0
5, 67440, Note_on_c, 1, 63, 88
5, 67674, Note_off_c, 1, 63, 0
5, 67680, Note_on_c, 1, 68, 88
5, 67890, Note_off_c, 1, 68, 0
5, 67920, Note_on_c, 1, 68, 88
5, 68394, Note_off_c, 1, 68, 0
5, 68400, Note_on_c, 1, 66, 88
5, 68516, Note_off_c, 1, 66, 0
5, 68520, Note_on_c, 1, 65, 88
5, 68636, Note_off_c, 1, 65, 0
5, 68640, Note_on_c, 1, 66, 88
5, 69590, Note_off_c, 1, 66, 0
5, 69600, Note_on_c, 1, 64, 88
5, 70070, Note_off_c, 1, 64, 0
5, 70080, Note_on_c, 1, 63, 88
5, 70550, Note_off_c, 1, 63, 0
5, 70560, Note_on_c, 1, 61, 88
5, 71030, Note_off_c, 1, 61, 0
5, 71040, Note_on_c, 1, 63, 88
5, 71985, Note_off_c, 1, 63, 0
5, 73200, Note_on_c, 1, 68, 88
5, 73434, Note_off_c, 1, 68, 0
5, 73440, Note_on_c, 1, 73, 88
5, 73650, Note_off_c, 1, 73, 0
5, 73680, Note_on_c, 1, 73, 88
5, 73914, Note_off_c, 1, 73, 0
5, 73920, Note_on_c, 1, 73, 88
5, 74154, Note_off_c, 1, 73, 0
5, 74160, Note_on_c, 1, 72, 88
5, 74276, Note_off_c, 1, 72, 0
5, 74280, Note_on_c, 1, 70, 88
5, 74396, Note_off_c, 1, 70, 0
5, 74400, Note_on_c, 1, 72, 88
5, 74516, Note_off_c, 1, 72, 0
5, 74520, Note_on_c, 1, 73, 88
5, 74636, Note_off_c, 1, 73, 0
5, 74640, Note_on_c, 1, 75, 88
5, 74756, Note_off_c, 1, 75, 0
5, 74760, Note_on_c, 1, 72, 88
5, 74876, Note_off_c, 1, 72, 0
5, 74880, Note_on_c, 1, 68, 88
5, 74996, Note_off_c, 1, 68, 0
5, 75000, Note_on_c, 1, 66, 88
5, 75116, Note_off_c, 1, 66, 0
5, 75120, Note_on_c, 1, 68, 88
5, 75236, Note_off_c, 1, 68, 0
5, 75240, Note_on_c, 1, 69, 88
5, 75356, Note_off_c, 1, 69, 0
5, 75360, Note_on_c, 1, 68, 88
5, 75476, Note_off_c, 1, 68, 0
5, 75480, Note_on_c, 1, 66, 88
5, 75596, Note_off_c, 1, 66, 0
5, 75600, Note_on_c, 1, 64, 88
5, 75716, Note_off_c, 1, 64, 0
5, 75720, Note_on_c, 1, 68, 88
5, 75836, Note_off_c, 1, 68, 0
5, 75840, Note_on_c, 1, 66, 88
5, 75956, Note_off_c, 1, 66, 0
5, 75960, Note_on_c, 1, 64, 88
5, 76076, Note_off_c, 1, 64, 0
5, 76080, Note_on_c, 1, 66, 88
5, 76196, Note_off_c, 1, 66, 0
5, 76200, Note_on_c, 1, 68, 88
5, 76316, Note_off_c, 1, 68, 0
5, 76320, Note_on_c, 1, 66, 88
5, 76436, Note_off_c, 1, 66, 0
5, 76440, Note_on_c, 1, 64, 88
5, 76556, Note_off_c, 1, 64, 0
5, 76560, Note_on_c, 1, 63, 88
5, 76676, Note_off_c, 1, 63, 0
5, 76680, Note_on_c, 1, 66, 88
5, 76796, Note_off_c, 1, 66, 0
5, 76800, Note_on_c, 1, 64, 88
5, 76916, Note_off_c, 1, 64, 0
5, 76920, Note_on_c, 1, 68, 88
5, 77036, Note_off_c, 1, 68, 0
5, 77040, Note_on_c, 1, 69, 88
5, 77156, Note_off_c, 1, 69, 0
5, 77160, Note_on_c, 1, 71, 88
5, 77276, Note_off_c, 1, 71, 0
5, 77280, Note_on_c, 1, 73, 88
5, 77396, Note_off_c, 1, 73, 0
5, 77400, Note_on_c, 1, 75, 88
5, 77516, Note_off_c, 1, 75, 0
5, 77520, Note_on_c, 1, 72, 88
5, 77636, Note_off_c, 1, 72, 0
5, 77640, Note_on_c, 1, 73, 88
5, 77756, Note_off_c, 1, 73, 0
5, 77760, Note_on_c, 1, 75, 88
5, 77994, Note_off_c, 1, 75, 0
5, 80880, Note_on_c, 1, 66, 88
5, 81114, Note_off_c, 1, 66, 0
5, 81120, Note_on_c, 1, 71, 88
5, 81330, Note_off_c, 1, 71, 0
5, 81360, Note_on_c, 1, 71, 88
5, 81594, Note_off_c, 1, 71, 0
5, 81600, Note_on_c, 1, 71, 88
5, 81834, Note_off_c, 1, 71, 0
5, 81840, Note_on_c, 1, 69, 88
5, 81956, Note_off_c, 1, 69, 0
5, 81960, Note_on_c, 1, 68, 88
5, 82076, Note_off_c, 1, 68, 0
5, 82080, Note_on_c, 1, 69, 88
5, 82550, Note_off_c, 1, 69, 0
5, 82560, Note_on_c, 1, 68, 88
5, 83610, Note_off_c, 1, 68, 0
5, 83640, Note_on_c, 1, 68, 88
5, 83756, Note_off_c, 1, 68, 0
5, 83760, Note_on_c, 1, 66, 88
5, 83876, Note_off_c, 1, 66, 0
5, 83880, Note_on_c, 1, 65, 88
5, 83996, Note_off_c, 1, 65, 0
5, 84000, Note_on_c, 1, 66, 88
5, 84470, Note_off_c, 1, 66, 0
5, 84480, Note_on_c, 1, 68, 88
5, 85050, Note_off_c, 1, 68, 0
5, 85080, Note_on_c, 1, 68, 88
5, 85196, Note_off_c, 1, 68, 0
5, 85200, Note_on_c, 1, 66, 88
5, 85316, Note_off_c, 1, 66, 0
5, 85320, Note_on_c, 1, 64, 88
5, 85436, Note_off_c, 1, 64, 0
5, 85440, Note_on_c, 1, 63, 88
5, 85556, Note_off_c, 1, 63, 0
5, 85560, Note_on_c, 1, 69, 88
5, 85676, Note_off_c, 1, 69, 0
5, 85680, Note_on_c, 1, 68, 88
5, 85796, Note_off_c, 1, 68, 0
5, 85800, Note_on_c, 1, 66, 88
5, 85916, Note_off_c, 1, 66, 0
5, 85920, Note_on_c, 1, 64, 88
5, 86036, Note_off_c, 1, 64, 0
5, 86040, Note_on_c, 1, 68, 88
5, 86156, Note_off_c, 1, 68, 0
5, 86160, Note_on_c, 1, 73, 88
5, 86276, Note_off_c, 1, 73, 0
5, 86280, Note_on_c, 1, 71, 88
5, 86396, Note_off_c, 1, 71, 0
5, 86400, Note_on_c, 1, 69, 88
5, 86516, Note_off_c, 1, 69, 0
5, 86520, Note_on_c, 1, 68, 88
5, 86636, Note_off_c, 1, 68, 0
5, 86640, Note_on_c, 1, 69, 88
5, 86756, Note_off_c, 1, 69, 0
5, 86760, Note_on_c, 1, 66, 88
5, 86876, Note_off_c, 1, 66, 0
5, 86880, Note_on_c, 1, 68, 88
5, 87594, Note_off_c, 1, 68, 0
5, 87600, Note_on_c, 1, 73, 88
5, 87716, Note_off_c, 1, 73, 0
5, 87720, Note_on_c, 1, 72, 88
5, 87836, Note_off_c, 1, 72, 0
5, 87840, Note_on_c, 1, 73, 88
5, 88554, Note_off_c, 1, 73, 0
5, 88560, Note_on_c, 1, 70, 88
5, 88794, Note_off_c, 1, 70, 0
5, 88800, Note_on_c, 1, 75, 88
5, 89010, Note_off_c, 1, 75, 0
5, 89040, Note_on_c, 1, 75, 88
5, 89274, Note_off_c, 1, 75, 0
5, 89280, Note_on_c, 1, 75, 88
5, 89514, Note_off_c, 1, 75, 0
5, 89520, Note_on_c, 1, 73, 88
5, 89636, Note_off_c, 1, 73, 0
5, 89640, Note_on_c, 1, 71, 88
5, 89756, Note_off_c, 1, 71, 0
5, 89760, Note_on_c, 1, 73, 88
5, 90230, Note_off_c, 1, 73, 0
5, 90240, Note_on_c, 1, 71, 88
5, 90690, Note_off_c, 1, 71, 0
5, 90720, Note_on_c, 1, 71, 88
5, 91190, Note_off_c, 1, 71, 0
5, 91200, Note_on_c, 1, 70, 88
5, 91670, Note_off_c, 1, 70, 0
5, 91680, Note_on_c, 1, 74, 88
5, 92150, Note_off_c, 1, 74, 0
5, 92160, Note_on_c, 1, 73, 88
5, 93105, Note_off_c, 1, 73, 0
5, 93360, Note_on_c, 1, 68, 88
5, 93594, Note_off_c, 1, 68, 0
5, 93600, Note_on_c, 1, 73, 88
5, 93810, Note_off_c, 1, 73, 0
5, 93840, Note_on_c, 1, 73, 88
5, 94074, Note_off_c, 1, 73, 0
5, 94080, Note_on_c, 1, 73, 88
5, 94314, Note_off_c, 1, 73, 0
5, 94320, Note_on_c, 1, 72, 88
5, 94436, Note_off_c, 1, 72, 0
5, 94440, Note_on_c, 1, 70, 88
5, 94556, Note_off_c, 1, 70, 0
5, 94560, Note_on_c, 1, 72, 88
5, 94676, Note_off_c, 1, 72, 0
5, 94680, Note_on_c, 1, 73, 88
5, 94796, Note_off_c, 1, 73, 0
5, 94800, Note_on_c, 1, 75, 88
5, 95274, Note_off_c, 1, 75, 0
5, 95280, Note_on_c, 1, 73, 88
5, 95396, Note_off_c, 1, 73, 0
5, 95400, Note_on_c, 1, 72, 88
5, 95516, Note_off_c, 1, 72, 0
5, 95520, Note_on_c, 1, 73, 88
5, 95990, Note_off_c, 1, 73, 0
5, 96000, Note_on_c, 1, 66, 88
5, 96470, Note_off_c, 1, 66, 0
5, 96480, Note_on_c, 1, 68, 88
5, 97430, Note_off_c, 1, 68, 0
5, 97440, Note_on_c, 1, 66, 88
5, 98154, Note_off_c, 1, 66, 0
5, 99120, Note_on_c, 1, 61, 88
5, 99354, Note_off_c, 1, 61, 0
5, 99360, Note_on_c, 1, 66, 88
5, 99570, Note_off_c, 1, 66, 0
5, 99600, Note_on_c, 1, 66, 88
5, 99834, Note_off_c, 1, 66, 0
5, 99840, Note_on_c, 1, 66, 88
5, 100074, Note_off_c, 1, 66, 0
5, 100080, Note_on_c, 1, 64, 88
5, 100196, Note_off_c, 1, 64, 0
5, 100200, Note_on_c, 1, 63, 88
5, 100316, Note_off_c, 1, 63, 0
5, 100320, Note_on_c, 1, 64, 88
5, 101034, Note_off_c, 1, 64, 0
5, 101040, Note_on_c, 1, 66, 88
5, 101156, Note_off_c, 1, 66, 0
5, 101160, Note_on_c, 1, 68, 88
5, 101276, Note_off_c, 1, 68, 0
5, 101280, Note_on_c, 1, 69, 88
5, 101514, Note_off_c, 1, 69, 0
5, 101520, Note_on_c, 1, 68, 88
5, 101994, Note_off_c, 1, 68, 0
5, 102000, Note_on_c, 1, 64, 88
5, 102234, Note_off_c, 1, 64, 0
5, 102240, Note_on_c, 1, 69, 88
5, 102450, Note_off_c, 1, 69, 0
5, 102480, Note_on_c, 1, 69, 88
5, 102714, Note_off_c, 1, 69, 0
5, 102720, Note_on_c, 1, 69, 88
5, 102954, Note_off_c, 1, 69, 0
5, 102960, Note_on_c, 1, 68, 88
5, 103076, Note_off_c, 1, 68, 0
5, 103080, Note_on_c, 1, 66, 88
5, 103196, Note_off_c, 1, 66, 0
5, 103200, Note_on_c, 1, 68, 88
5, 103434, Note_off_c, 1, 68, 0
5, 103440, Note_on_c, 1, 70, 88
5, 103556, Note_off_c, 1, 70, 0
5, 103560, Note_on_c, 1, 72, 88
5, 103676, Note_off_c, 1, 72, 0
5, 103680, Note_on_c, 1, 73, 88
5, 104150, Note_off_c, 1, 73, 0
5, 104160, Note_on_c, 1, 70, 88
5, 104630, Note_off_c, 1, 70, 0
5, 104640, Note_on_c, 1, 68, 88
5, 105090, Note_off_c, 1, 68, 0
5, 105120, Note_on_c, 1, 68, 88
5, 107030, Note_off_c, 1, 68, 0
5, 107040, Note_on_c, 1, 66, 88
5, 107510, Note_off_c, 1, 66, 0
5, 107520, Note_on_c, 1, 65, 88
5, 107990, Note_off_c, 1, 65, 0
5, 108000, Note_on_c, 1, 69, 88
5, 108470, Note_off_c, 1, 69, 0
5, 108480, Note_on_c, 1, 68, 88
5, 110385, Note_off_c, 1, 68, 0
5, 110385, End_track
6, 0, Start_track
6, 0, Title_t, "Track 3"
6, 0, Program_c, 2, 6
6, 6240, Note_on_c, 2, 61, 88
6, 6710, Note_off_c, 2, 61, 0
6, 6720, Note_on_c, 2, 60, 88
6, 7190, Note_off_c, 2, 60, 0
6, 7200, Note_on_c, 2, 64, 88
6, 7670, Note_off_c, 2, 64, 0
6, 7680, Note_on_c, 2, 63, 88
6, 8625, Note_off_c, 2, 63, 0
6, 8640, Note_on_c, 2, 61, 88
6, 9110, Note_off_c, 2, 61, 0
6, 9120, Note_on_c, 2, 66, 88
6, 9834, Note_off_c, 2, 66, 0
6, 9840, Note_on_c, 2, 64, 88
6, 10074, Note_off_c, 2, 64, 0
6, 10080, Note_on_c, 2, 63, 88
6, 10314, Note_off_c, 2, 63, 0
6, 10320, Note_on_c, 2, 61, 88
6, 10554, Note_off_c, 2, 61, 0
6, 10560, Note_on_c, 2, 61, 88
6, 11030, Note_off_c, 2, 61, 0
6, 11040, Note_on_c, 2, 59, 88
6, 11510, Note_off_c, 2, 59, 0
6, 11520, Note_on_c, 2, 61, 88
6, 11990, Note_off_c, 2, 61, 0
6, 12000, Note_on_c, 2, 66, 88
6, 12714, Note_off_c, 2, 66, 0
6, 12720, Note_on_c, 2, 64, 88
6, 12954, Note_off_c, 2, 64, 0
6, 12960, Note_on_c, 2, 63, 88
6, 13194, Note_off_c, 2, 63, 0
6, 13200, Note_on_c, 2, 61, 88
6, 13434, Note_off_c, 2, 61, 0
6, 13440, Note_on_c, 2, 63, 88
6, 13910, Note_off_c, 2, 63, 0
6, 13920, Note_on_c, 2, 68, 88
6, 14390, Note_off_c, 2, 68, 0
6, 14640, Note_on_c, 2, 69, 88
6, 14874, Note_off_c, 2, 69, 0
6, 14880, Note_on_c, 2, 68, 88
6, 15114, Note_off_c, 2, 68, 0
6, 15120, Note_on_c, 2, 66, 88
6, 15354, Note_off_c, 2, 66, 0
6, 15360, Note_on_c, 2, 65, 88
6, 15594, Note_off_c, 2, 65, 0
6, 15600, Note_on_c, 2, 61, 88
6, 15834, Note_off_c, 2, 61, 0
6, 15840, Note_on_c, 2, 66, 88
6, 16310, Note_off_c, 2, 66, 0
6, 16320, Note_on_c, 2, 64, 88
6, 17750, Note_off_c, 2, 64, 0
6, 17760, Note_on_c, 2, 68, 88
6, 18230, Note_off_c, 2, 68, 0
6, 18240, Note_on_c, 2, 70, 88
6, 18710, Note_off_c, 2, 70, 0
6, 23520, Note_on_c, 2, 61, 88
6, 23990, Note_off_c, 2, 61, 0
6, 24000, Note_on_c, 2, 60, 88
6, 24470, Note_off_c, 2, 60, 0
6, 24480, Note_on_c, 2, 64, 88
6, 24950, Note_off_c, 2, 64, 0
6, 24960, Note_on_c, 2, 63, 88
6, 25905, Note_off_c, 2, 63, 0
6, 25920, Note_on_c, 2, 61, 88
6, 27825, Note_off_c, 2, 61, 0
6, 27840, Note_on_c, 2, 54, 88
6, 28074, Note_off_c, 2, 54, 0
6, 28080, Note_on_c, 2, 56, 88
6, 28314, Note_off_c, 2, 56, 0
6, 28320, Note_on_c, 2, 58, 88
6, 28554, Note_off_c, 2, 58, 0
6, 28560, Note_on_c, 2, 59, 88
6, 28794, Note_off_c, 2, 59, 0
6, 28800, Note_on_c, 2, 61, 88
6, 29745, Note_off_c, 2, 61, 0
6, 30240, Note_on_c, 2, 64, 88
6, 30710, Note_off_c, 2, 64, 0
6, 30720, Note_on_c, 2, 63, 88
6, 31190, Note_off_c, 2, 63, 0
6, 31200, Note_on_c, 2, 68, 88
6, 31670, Note_off_c, 2, 68, 0
6, 31680, Note_on_c, 2, 66, 88
6, 32625, Note_off_c, 2, 66, 0
6, 32640, Note_on_c, 2, 64, 88
6, 33110, Note_off_c, 2, 64, 0
6, 36000, Note_on_c, 2, 68, 88
6, 36470, Note_off_c, 2, 68, 0
6, 36480, Note_on_c, 2, 67, 88
6, 36950, Note_off_c, 2, 67, 0
6, 36960, Note_on_c, 2, 71, 88
6, 37430, Note_off_c, 2, 71, 0
6, 37440, Note_on_c, 2, 70, 88
6, 38634, Note_off_c, 2, 70, 0
6, 38640, Note_on_c, 2, 63, 88
6, 38874, Note_off_c, 2, 63, 0
6, 38880, Note_on_c, 2, 68, 88
6, 39594, Note_off_c, 2, 68, 0
6, 39600, Note_on_c, 2, 66, 88
6, 39716, Note_off_c, 2, 66, 0
6, 39720, Note_on_c, 2, 64, 88
6, 39836, Note_off_c, 2, 64, 0
6, 39840, Note_on_c, 2, 66, 88
6, 40554, Note_off_c, 2, 66, 0
6, 40560, Note_on_c, 2, 64, 88
6, 40676, Note_off_c, 2, 64, 0
6, 40680, Note_on_c, 2, 66, 88
6, 40796, Note_off_c, 2, 66, 0
6, 40800, Note_on_c, 2, 68, 88
6, 43185, Note_off_c, 2, 68, 0
6, 46320, Note_on_c, 2, 61, 88
6, 46554, Note_off_c, 2, 61, 0
6, 46560, Note_on_c, 2, 66, 88
6, 46770, Note_off_c, 2, 66, 0
6, 46800, Note_on_c, 2, 66, 88
6, 47034, Note_off_c, 2, 66, 0
6, 47040, Note_on_c, 2, 66, 88
6, 47274, Note_off_c, 2, 66, 0
6, 47280, Note_on_c, 2, 65, 88
6, 47396, Note_off_c, 2, 65, 0
6, 47400, Note_on_c, 2, 63, 88
6, 47516, Note_off_c, 2, 63, 0
6, 47520, Note_on_c, 2, 65, 88
6, 47990, Note_off_c, 2, 65, 0
6, 48000, Note_on_c, 2, 66, 88
6, 48234, Note_off_c, 2, 66, 0
6, 48240, Note_on_c, 2, 54, 88
6, 48356, Note_off_c, 2, 54, 0
6, 48360, Note_on_c, 2, 56, 88
6, 48476, Note_off_c, 2, 56, 0
6, 48480, Note_on_c, 2, 57, 88
6, 48714, Note_off_c, 2, 57, 0
6, 48720, Note_on_c, 2, 59, 88
6, 48954, Note_off_c, 2, 59, 0
6, 48960, Note_on_c, 2, 61, 88
6, 49076, Note_off_c, 2, 61, 0
6, 49080, Note_on_c, 2, 59, 88
6, 49196, Note_off_c, 2, 59, 0
6, 49200, Note_on_c, 2, 61, 88
6, 49316, Note_off_c, 2, 61, 0
6, 49320, Note_on_c, 2, 62, 88
6, 49436, Note_off_c, 2, 62, 0
6, 49440, Note_on_c, 2, 61, 88
6, 49556, Note_off_c, 2, 61, 0
6, 49560, Note_on_c, 2, 59, 88
6, 49676, Note_off_c, 2, 59, 0
6, 49680, Note_on_c, 2, 57, 88
6, 49796, Note_off_c, 2, 57, 0
6, 49800, Note_on_c, 2, 61, 88
6, 49916, Note_off_c, 2, 61, 0
6, 49920, Note_on_c, 2, 59, 88
6, 50036, Note_off_c, 2, 59, 0
6, 50040, Note_on_c, 2, 57, 88
6, 50156, Note_off_c, 2, 57, 0
6, 50160, Note_on_c, 2, 59, 88
6, 50276, Note_off_c, 2, 59, 0
6, 50280, Note_on_c, 2, 61, 88
6, 50396, Note_off_c, 2, 61, 0
6, 50400, Note_on_c, 2, 59, 88
6, 50516, Note_off_c, 2, 59, 0
6, 50520, Note_on_c, 2, 57, 88
6, 50636, Note_off_c, 2, 57, 0
6, 50640, Note_on_c, 2, 56, 88
6, 50756, Note_off_c, 2, 56, 0
6, 50760, Note_on_c, 2, 59, 88
6, 50876, Note_off_c, 2, 59, 0
6, 50880, Note_on_c, 2, 57, 88
6, 50996, Note_off_c, 2, 57, 0
6, 51000, Note_on_c, 2, 56, 88
6, 51116, Note_off_c, 2, 56, 0
6, 51120, Note_on_c, 2, 57, 88
6, 51236, Note_off_c, 2, 57, 0
6, 51240, Note_on_c, 2, 59, 88
6, 51356, Note_off_c, 2, 59, 0
6, 51360, Note_on_c, 2, 57, 88
6, 51476, Note_off_c, 2, 57, 0
6, 51480, Note_on_c, 2, 59, 88
6, 51596, Note_off_c, 2, 59, 0
6, 51600, Note_on_c, 2, 61, 88
6, 51716, Note_off_c, 2, 61, 0
6, 51720, Note_on_c, 2, 62, 88
6, 51836, Note_off_c, 2, 62, 0
6, 51840, Note_on_c, 2, 64, 88
6, 51956, Note_off_c, 2, 64, 0
6, 51960, Note_on_c, 2, 62, 88
6, 52076, Note_off_c, 2, 62, 0
6, 52080, Note_on_c, 2, 64, 88
6, 52196, Note_off_c, 2, 64, 0
6, 52200, Note_on_c, 2, 66, 88
6, 52316, Note_off_c, 2, 66, 0
6, 52320, Note_on_c, 2, 64, 88
6, 52436, Note_off_c, 2, 64, 0
6, 52440, Note_on_c, 2, 62, 88
6, 52556, Note_off_c, 2, 62, 0
6, 52560, Note_on_c, 2, 61, 88
6, 52676, Note_off_c, 2, 61, 0
6, 52680, Note_on_c, 2, 64, 88
6, 52796, Note_off_c, 2, 64, 0
6, 52800, Note_on_c, 2, 62, 88
6, 52916, Note_off_c, 2, 62, 0
6, 52920, Note_on_c, 2, 61, 88
6, 53036, Note_off_c, 2, 61, 0
6, 53040, Note_on_c, 2, 62, 88
6, 53156, Note_off_c, 2, 62, 0
6, 53160, Note_on_c, 2, 64, 88
6, 53276, Note_off_c, 2, 64, 0
6, 53280, Note_on_c, 2, 62, 88
6, 53396, Note_off_c, 2, 62, 0
6, 53400, Note_on_c, 2, 61, 88
6, 53516, Note_off_c, 2, 61, 0
6, 53520, Note_on_c, 2, 59, 88
6, 53636, Note_off_c, 2, 59, 0
6, 53640, Note_on_c, 2, 62, 88
6, 53756, Note_off_c, 2, 62, 0
6, 53760, Note_on_c, 2, 61, 88
6, 53876, Note_off_c, 2, 61, 0
6, 53880, Note_on_c, 2, 59, 88
6, 53996, Note_off_c, 2, 59, 0
6, 54000, Note_on_c, 2, 61, 88
6, 54116, Note_off_c, 2, 61, 0
6, 54120, Note_on_c, 2, 62, 88
6, 54236, Note_off_c, 2, 62, 0
6, 54240, Note_on_c, 2, 61, 88
6, 54356, Note_off_c, 2, 61, 0
6, 54360, Note_on_c, 2, 59, 88
6, 54476, Note_off_c, 2, 59, 0
6, 54480, Note_on_c, 2, 57, 88
6, 54596, Note_off_c, 2, 57, 0
6, 54600, Note_on_c, 2, 61, 88
6, 54716, Note_off_c, 2, 61, 0
6, 54720, Note_on_c, 2, 59, 88
6, 55665, Note_off_c, 2, 59, 0
6, 55680, Note_on_c, 2, 57, 88
6, 55796, Note_off_c, 2, 57, 0
6, 55800, Note_on_c, 2, 56, 88
6, 55916, Note_off_c, 2, 56, 0
6, 55920, Note_on_c, 2, 54, 88
6, 56036, Note_off_c, 2, 54, 0
6, 56040, Note_on_c, 2, 52, 88
6, 56156, Note_off_c, 2, 52, 0
6, 56160, Note_on_c, 2, 51, 88
6, 56276, Note_off_c, 2, 51, 0
6, 56280, Note_on_c, 2, 49, 88
6, 56396, Note_off_c, 2, 49, 0
6, 56400, Note_on_c, 2, 48, 88
6, 56516, Note_off_c, 2, 48, 0
6, 56520, Note_on_c, 2, 49, 88
6, 56636, Note_off_c, 2, 49, 0
6, 56640, Note_on_c, 2, 51, 88
6, 57110, Note_off_c, 2, 51, 0
6, 60720, Note_on_c, 2, 49, 88
6, 60954, Note_off_c, 2, 49, 0
6, 60960, Note_on_c, 2, 54, 88
6, 61170, Note_off_c, 2, 54, 0
6, 61200, Note_on_c, 2, 54, 88
6, 61434, Note_off_c, 2, 54, 0
6, 61440, Note_on_c, 2, 54, 88
6, 61674, Note_off_c, 2, 54, 0
6, 61680, Note_on_c, 2, 52, 88
6, 61796, Note_off_c, 2, 52, 0
6, 61800, Note_on_c, 2, 51, 88
6, 61916, Note_off_c, 2, 51, 0
6, 61920, Note_on_c, 2, 52, 88
6, 62390, Note_off_c, 2, 52, 0
6, 62400, Note_on_c, 2, 51, 88
6, 63345, Note_off_c, 2, 51, 0
6, 65520, Note_on_c, 2, 51, 88
6, 65754, Note_off_c, 2, 51, 0
6, 65760, Note_on_c, 2, 56, 88
6, 65970, Note_off_c, 2, 56, 0
6, 66000, Note_on_c, 2, 56, 88
6, 66234, Note_off_c, 2, 56, 0
6, 66240, Note_on_c, 2, 56, 88
6, 66474, Note_off_c, 2, 56, 0
6, 66480, Note_on_c, 2, 54, 88
6, 66596, Note_off_c, 2, 54, 0
6, 66600, Note_on_c, 2, 52, 88
6, 66716, Note_off_c, 2, 52, 0
6, 66720, Note_on_c, 2, 54, 88
6, 67316, Note_off_c, 2, 54, 0
6, 67320, Note_on_c, 2, 57, 88
6, 67436, Note_off_c, 2, 57, 0
6, 67440, Note_on_c, 2, 56, 88
6, 67556, Note_off_c, 2, 56, 0
6, 67560, Note_on_c, 2, 54, 88
6, 67676, Note_off_c, 2, 54, 0
6, 67680, Note_on_c, 2, 53, 88
6, 67796, Note_off_c, 2, 53, 0
6, 67800, Note_on_c, 2, 51, 88
6, 67916, Note_off_c, 2, 51, 0
6, 67920, Note_on_c, 2, 53, 88
6, 68036, Note_off_c, 2, 53, 0
6, 68040, Note_on_c, 2, 49, 88
6, 68156, Note_off_c, 2, 49, 0
6, 68160, Note_on_c, 2, 54, 88
6, 68276, Note_off_c, 2, 54, 0
6, 68280, Note_on_c, 2, 53, 88
6, 68396, Note_off_c, 2, 53, 0
6, 68400, Note_on_c, 2, 54, 88
6, 68516, Note_off_c, 2, 54, 0
6, 68520, Note_on_c, 2, 56, 88
6, 68636, Note_off_c, 2, 56, 0
6, 68640, Note_on_c, 2, 57, 88
6, 68756, Note_off_c, 2, 57, 0
6, 68760, Note_on_c, 2, 56, 88
6, 68876, Note_off_c, 2, 56, 0
6, 68880, Note_on_c, 2, 57, 88
6, 68996, Note_off_c, 2, 57, 0
6, 69000, Note_on_c, 2, 59, 88
6, 69116, Note_off_c, 2, 59, 0
6, 69120, Note_on_c, 2, 61, 88
6, 69236, Note_off_c, 2, 61, 0
6, 69240, Note_on_c, 2, 60, 88
6, 69356, Note_off_c, 2, 60, 0
6, 69360, Note_on_c, 2, 61, 88
6, 69476, Note_off_c, 2, 61, 0
6, 69480, Note_on_c, 2, 63, 88
6, 69596, Note_off_c, 2, 63, 0
6, 69600, Note_on_c, 2, 64, 88
6, 69716, Note_off_c, 2, 64, 0
6, 69720, Note_on_c, 2, 63, 88
6, 69836, Note_off_c, 2, 63, 0
6, 69840, Note_on_c, 2, 64, 88
6, 69956, Note_off_c, 2, 64, 0
6, 69960, Note_on_c, 2, 66, 88
6, 70076, Note_off_c, 2, 66, 0
6, 70080, Note_on_c, 2, 68, 88
6, 70196, Note_off_c, 2, 68, 0
6, 70200, Note_on_c, 2, 66, 88
6, 70316, Note_off_c, 2, 66, 0
6, 70320, Note_on_c, 2, 68, 88
6, 70436, Note_off_c, 2, 68, 0
6, 70440, Note_on_c, 2, 69, 88
6, 70556, Note_off_c, 2, 69, 0
6, 70560, Note_on_c, 2, 68, 88
6, 70676, Note_off_c, 2, 68, 0
6, 70680, Note_on_c, 2, 66, 88
6, 70796, Note_off_c, 2, 66, 0
6, 70800, Note_on_c, 2, 64, 88
6, 70916, Note_off_c, 2, 64, 0
6, 70920, Note_on_c, 2, 68, 88
6, 71036, Note_off_c, 2, 68, 0
6, 71040, Note_on_c, 2, 66, 88
6, 71156, Note_off_c, 2, 66, 0
6, 71160, Note_on_c, 2, 64, 88
6, 71276, Note_off_c, 2, 64, 0
6, 71280, Note_on_c, 2, 66, 88
6, 71396, Note_off_c, 2, 66, 0
6, 71400, Note_on_c, 2, 68, 88
6, 71516, Note_off_c, 2, 68, 0
6, 71520, Note_on_c, 2, 66, 88
6, 71636, Note_off_c, 2, 66, 0
6, 71640, Note_on_c, 2, 64, 88
6, 71756, Note_off_c, 2, 64, 0
6, 71760, Note_on_c, 2, 63, 88
6, 71876, Note_off_c, 2, 63, 0
6, 71880, Note_on_c, 2, 66, 88
6, 71996, Note_off_c, 2, 66, 0
6, 72000, Note_on_c, 2, 64, 88
6, 72116, Note_off_c, 2, 64, 0
6, 72120, Note_on_c, 2, 63, 88
6, 72236, Note_off_c, 2, 63, 0
6, 72240, Note_on_c, 2, 64, 88
6, 72356, Note_off_c, 2, 64, 0
6, 72360, Note_on_c, 2, 66, 88
6, 72476, Note_off_c, 2, 66, 0
6, 72480, Note_on_c, 2, 64, 88
6, 72596, Note_off_c, 2, 64, 0
6, 72600, Note_on_c, 2, 63, 88
6, 72716, Note_off_c, 2, 63, 0
6, 72720, Note_on_c, 2, 61, 88
6, 72836, Note_off_c, 2, 61, 0
6, 72840, Note_on_c, 2, 64, 88
6, 72956, Note_off_c, 2, 64, 0
6, 72960, Note_on_c, 2, 63, 88
6, 73430, Note_off_c, 2, 63, 0
6, 78000, Note_on_c, 2, 56, 88
6, 78234, Note_off_c, 2, 56, 0
6, 78240, Note_on_c, 2, 61, 88
6, 78450, Note_off_c, 2, 61, 0
6, 78480, Note_on_c, 2, 61, 88
6, 78714, Note_off_c, 2, 61, 0
6, 78720, Note_on_c, 2, 61, 88
6, 78954, Note_off_c, 2, 61, 0
6, 78960, Note_on_c, 2, 60, 88
6, 79076, Note_off_c, 2, 60, 0
6, 79080, Note_on_c, 2, 58, 88
6, 79196, Note_off_c, 2, 58, 0
6, 79200, Note_on_c, 2, 60, 88
6, 79670, Note_off_c, 2, 60, 0
6, 79680, Note_on_c, 2, 61, 88
6, 80625, Note_off_c, 2, 61, 0
6, 80640, Note_on_c, 2, 59, 88
6, 81348, Note_off_c, 2, 59, 0
6, 81360, Note_on_c, 2, 66, 88
6, 81594, Note_off_c, 2, 66, 0
6, 81600, Note_on_c, 2, 65, 88
6, 82070, Note_off_c, 2, 65, 0
6, 82080, Note_on_c, 2, 66, 88
6, 82550, Note_off_c, 2, 66, 0
6, 82560, Note_on_c, 2, 59, 88
6, 83030, Note_off_c, 2, 59, 0
6, 83040, Note_on_c, 2, 61, 88
6, 84090, Note_off_c, 2, 61, 0
6, 84120, Note_on_c, 2, 61, 88
6, 84236, Note_off_c, 2, 61, 0
6, 84240, Note_on_c, 2, 59, 88
6, 84356, Note_off_c, 2, 59, 0
6, 84360, Note_on_c, 2, 57, 88
6, 84476, Note_off_c, 2, 57, 0
6, 84480, Note_on_c, 2, 56, 88
6, 85425, Note_off_c, 2, 56, 0
6, 90480, Note_on_c, 2, 59, 88
6, 90714, Note_off_c, 2, 59, 0
6, 90720, Note_on_c, 2, 64, 88
6, 90930, Note_off_c, 2, 64, 0
6, 90960, Note_on_c, 2, 64, 88
6, 91194, Note_off_c, 2, 64, 0
6, 91200, Note_on_c, 2, 64, 88
6, 91434, Note_off_c, 2, 64, 0
6, 91440, Note_on_c, 2, 62, 88
6, 91556, Note_off_c, 2, 62, 0
6, 91560, Note_on_c, 2, 61, 88
6, 91676, Note_off_c, 2, 61, 0
6, 91680, Note_on_c, 2, 59, 88
6, 91914, Note_off_c, 2, 59, 0
6, 92400, Note_on_c, 2, 61, 88
6, 92634, Note_off_c, 2, 61, 0
6, 92640, Note_on_c, 2, 66, 88
6, 92850, Note_off_c, 2, 66, 0
6, 92880, Note_on_c, 2, 66, 88
6, 93114, Note_off_c, 2, 66, 0
6, 93120, Note_on_c, 2, 66, 88
6, 93354, Note_off_c, 2, 66, 0
6, 93360, Note_on_c, 2, 64, 88
6, 93476, Note_off_c, 2, 64, 0
6, 93480, Note_on_c, 2, 63, 88
6, 93596, Note_off_c, 2, 63, 0
6, 93600, Note_on_c, 2, 64, 88
6, 94070, Note_off_c, 2, 64, 0
6, 94080, Note_on_c, 2, 66, 88
6, 94907, Note_off_c, 2, 66, 0
6, 94920, Note_on_c, 2, 68, 88
6, 95036, Note_off_c, 2, 68, 0
6, 95040, Note_on_c, 2, 69, 88
6, 95274, Note_off_c, 2, 69, 0
6, 95280, Note_on_c, 2, 68, 88
6, 95396, Note_off_c, 2, 68, 0
6, 95400, Note_on_c, 2, 66, 88
6, 95516, Note_off_c, 2, 66, 0
6, 95520, Note_on_c, 2, 68, 88
6, 95754, Note_off_c, 2, 68, 0
6, 95760, Note_on_c, 2, 66, 88
6, 95876, Note_off_c, 2, 66, 0
6, 95880, Note_on_c, 2, 64, 88
6, 95996, Note_off_c, 2, 64, 0
6, 96000, Note_on_c, 2, 63, 88
6, 96470, Note_off_c, 2, 63, 0
6, 96480, Note_on_c, 2, 64, 88
6, 97430, Note_off_c, 2, 64, 0
6, 97440, Note_on_c, 2, 63, 88
6, 97674, Note_off_c, 2, 63, 0
6, 97680, Note_on_c, 2, 61, 88
6, 97914, Note_off_c, 2, 61, 0
6, 97920, Note_on_c, 2, 63, 88
6, 98154, Note_off_c, 2, 63, 0
6, 98160, Note_on_c, 2, 65, 88
6, 98276, Note_off_c, 2, 65, 0
6, 98280, Note_on_c, 2, 66, 88
6, 98396, Note_off_c, 2, 66, 0
6, 98400, Note_on_c, 2, 68, 88
6, 98610, Note_off_c, 2, 68, 0
6, 98640, Note_on_c, 2, 68, 88
6, 98874, Note_off_c, 2, 68, 0
6, 98880, Note_on_c, 2, 68, 88
6, 99114, Note_off_c, 2, 68, 0
6, 99120, Note_on_c, 2, 66, 88
6, 99236, Note_off_c, 2, 66, 0
6, 99240, Note_on_c, 2, 64, 88
6, 99356, Note_off_c, 2, 64, 0
6, 99360, Note_on_c, 2, 63, 88
6, 99594, Note_off_c, 2, 63, 0
6, 99600, Note_on_c, 2, 61, 88
6, 99834, Note_off_c, 2, 61, 0
6, 99840, Note_on_c, 2, 60, 88
6, 100310, Note_off_c, 2, 60, 0
6, 100320, Note_on_c, 2, 61, 88
6, 101270, Note_off_c, 2, 61, 0
6, 101280, Note_on_c, 2, 63, 88
6, 101750, Note_off_c, 2, 63, 0
6, 101760, Note_on_c, 2, 61, 88
6, 101970, Note_off_c, 2, 61, 0
6, 102000, Note_on_c, 2, 61, 88
6, 102234, Note_off_c, 2, 61, 0
6, 102240, Note_on_c, 2, 66, 88
6, 102450, Note_off_c, 2, 66, 0
6, 102480, Note_on_c, 2, 66, 88
6, 102714, Note_off_c, 2, 66, 0
6, 102720, Note_on_c, 2, 66, 88
6, 102954, Note_off_c, 2, 66, 0
6, 102960, Note_on_c, 2, 64, 88
6, 103076, Note_off_c, 2, 64, 0
6, 103080, Note_on_c, 2, 63, 88
6, 103196, Note_off_c, 2, 63, 0
6, 103200, Note_on_c, 2, 64, 88
6, 103434, Note_off_c, 2, 64, 0
6, 103440, Note_on_c, 2, 66, 88
6, 103556, Note_off_c, 2, 66, 0
6, 103560, Note_on_c, 2, 68, 88
6, 103676, Note_off_c, 2, 68, 0
6, 103680, Note_on_c, 2, 70, 88
6, 104150, Note_off_c, 2, 70, 0
6, 104160, Note_on_c, 2, 63, 88
6, 105110, Note_off_c, 2, 63, 0
6, 105120, Note_on_c, 2, 64, 88
6, 105590, Note_off_c, 2, 64, 0
6, 105600, Note_on_c, 2, 63, 88
6, 106308, Note_off_c, 2, 63, 0
6, 106320, Note_on_c, 2, 64, 88
6, 106436, Note_off_c, 2, 64, 0
6, 106440, Note_on_c, 2, 66, 88
6, 106556, Note_off_c, 2, 66, 0
6, 106560, Note_on_c, 2, 65, 88
6, 106794, Note_off_c, 2, 65, 0
6, 106800, Note_on_c, 2, 61, 88
6, 107730, Note_off_c, 2, 61, 0
6, 107760, Note_on_c, 2, 61, 88
6, 107994, Note_off_c, 2, 61, 0
6, 108000, Note_on_c, 2, 66, 88
6, 108210, Note_off_c, 2, 66, 0
6, 108240, Note_on_c, 2, 66, 88
6, 108474, Note_off_c, 2, 66, 0
6, 108480, Note_on_c, 2, 66, 88
6, 108950, Note_off_c, 2, 66, 0
6, 108960, Note_on_c, 2, 65, 88
6, 109194, Note_off_c, 2, 65, 0
6, 109200, Note_on_c, 2, 63, 88
6, 109434, Note_off_c, 2, 63, 0
6, 109440, Note_on_c, 2, 65, 88
6, 110385, Note_off_c, 2, 65, 0
6, 110385, End_track
7, 0, Start_track
7, 0, Title_t, "Track 4"
7, 0, Program_c, 3, 6
7, 2880, Note_on_c, 3, 56, 88
7, 3825, Note_off_c, 3, 56, 0
7, 3840, Note_on_c, 3, 55, 88
7, 4310, Note_off_c, 3, 55, 0
7, 4320, Note_on_c, 3, 59, 88
7, 4790, Note_off_c, 3, 59, 0
7, 4800, Note_on_c, 3, 58, 88
7, 5745, Note_off_c, 3, 58, 0
7, 5760, Note_on_c, 3, 56, 88
7, 6230, Note_off_c, 3, 56, 0
7, 6240, Note_on_c, 3, 57, 88
7, 6954, Note_off_c, 3, 57, 0
7, 6960, Note_on_c, 3, 56, 88
7, 7076, Note_off_c, 3, 56, 0
7, 7080, Note_on_c, 3, 54, 88
7, 7196, Note_off_c, 3, 54, 0
7, 7200, Note_on_c, 3, 56, 88
7, 7434, Note_off_c, 3, 56, 0
7, 7440, Note_on_c, 3, 61, 88
7, 7674, Note_off_c, 3, 61, 0
7, 7680, Note_on_c, 3, 54, 88
7, 7914, Note_off_c, 3, 54, 0
7, 7920, Note_on_c, 3, 56, 88
7, 8036, Note_off_c, 3, 56, 0
7, 8040, Note_on_c, 3, 57, 88
7, 8156, Note_off_c, 3, 57, 0
7, 8160, Note_on_c, 3, 59, 88
7, 8874, Note_off_c, 3, 59, 0
7, 8880, Note_on_c, 3, 57, 88
7, 9114, Note_off_c, 3, 57, 0
7, 9120, Note_on_c, 3, 56, 88
7, 9354, Note_off_c, 3, 56, 0
7, 9360, Note_on_c, 3, 54, 88
7, 9594, Note_off_c, 3, 54, 0
7, 9600, Note_on_c, 3, 56, 88
7, 10070, Note_off_c, 3, 56, 0
7, 10080, Note_on_c, 3, 54, 88
7, 10314, Note_off_c, 3, 54, 0
7, 10320, Note_on_c, 3, 52, 88
7, 10554, Note_off_c, 3, 52, 0
7, 10560, Note_on_c, 3, 51, 88
7, 11268, Note_off_c, 3, 51, 0
7, 11280, Note_on_c, 3, 50, 88
7, 11514, Note_off_c, 3, 50, 0
7, 11520, Note_on_c, 3, 49, 88
7, 13425, Note_off_c, 3, 49, 0
7, 17760, Note_on_c, 3, 56, 88
7, 18230, Note_off_c, 3, 56, 0
7, 18240, Note_on_c, 3, 55, 88
7, 18710, Note_off_c, 3, 55, 0
7, 18720, Note_on_c, 3, 59, 88
7, 19190, Note_off_c, 3, 59, 0
7, 19200, Note_on_c, 3, 58, 88
7, 20145, Note_off_c, 3, 58, 0
7, 20160, Note_on_c, 3, 56, 88
7, 20394, Note_off_c, 3, 56, 0
7, 20400, Note_on_c, 3, 57, 88
7, 20634, Note_off_c, 3, 57, 0
7, 20640, Note_on_c, 3, 56, 88
7, 20874, Note_off_c, 3, 56, 0
7, 20880, Note_on_c, 3, 54, 88
7, 21114, Note_off_c, 3, 54, 0
7, 21120, Note_on_c, 3, 53, 88
7, 21590, Note_off_c, 3, 53, 0
7, 21600, Note_on_c, 3, 57, 88
7, 22070, Note_off_c, 3, 57, 0
7, 22080, Note_on_c, 3, 56, 88
7, 23025, Note_off_c, 3, 56, 0
7, 23040, Note_on_c, 3, 54, 88
7, 24234, Note_off_c, 3, 54, 0
7, 24240, Note_on_c, 3, 56, 88
7, 24356, Note_off_c, 3, 56, 0
7, 24360, Note_on_c, 3, 54, 88
7, 24476, Note_off_c, 3, 54, 0
7, 24480, Note_on_c, 3, 52, 88
7, 24714, Note_off_c, 3, 52, 0
7, 24720, Note_on_c, 3, 54, 88
7, 24836, Note_off_c, 3, 54, 0
7, 24840, Note_on_c, 3, 56, 88
7, 24956, Note_off_c, 3, 56, 0
7, 24960, Note_on_c, 3, 57, 88
7, 25194, Note_off_c, 3, 57, 0
7, 25200, Note_on_c, 3, 54, 88
7, 25434, Note_off_c, 3, 54, 0
7, 25440, Note_on_c, 3, 56, 88
7, 25910, Note_off_c, 3, 56, 0
7, 25920, Note_on_c, 3, 49, 88
7, 28310, Note_off_c, 3, 49, 0
7, 28320, Note_on_c, 3, 54, 88
7, 28790, Note_off_c, 3, 54, 0
7, 28800, Note_on_c, 3, 52, 88
7, 29034, Note_off_c, 3, 52, 0
7, 29040, Note_on_c, 3, 51, 88
7, 29274, Note_off_c, 3, 51, 0
7, 29280, Note_on_c, 3, 52, 88
7, 29514, Note_off_c, 3, 52, 0
7, 29520, Note_on_c, 3, 54, 88
7, 29754, Note_off_c, 3, 54, 0
7, 29760, Note_on_c, 3, 56, 88
7, 29994, Note_off_c, 3, 56, 0
7, 30000, Note_on_c, 3, 54, 88
7, 30234, Note_off_c, 3, 54, 0
7, 30240, Note_on_c, 3, 56, 88
7, 30474, Note_off_c, 3, 56, 0
7, 30480, Note_on_c, 3, 57, 88
7, 30714, Note_off_c, 3, 57, 0
7, 30720, Note_on_c, 3, 59, 88
7, 33110, Note_off_c, 3, 59, 0
7, 33120, Note_on_c, 3, 61, 88
7, 33590, Note_off_c, 3, 61, 0
7, 33600, Note_on_c, 3, 60, 88
7, 34070, Note_off_c, 3, 60, 0
7, 34080, Note_on_c, 3, 64, 88
7, 34550, Note_off_c, 3, 64, 0
7, 34560, Note_on_c, 3, 63, 88
7, 35505, Note_off_c, 3, 63, 0
7, 35520, Note_on_c, 3, 61, 88
7, 36714, Note_off_c, 3, 61, 0
7, 36720, Note_on_c, 3, 59, 88
7, 36954, Note_off_c, 3, 59, 0
7, 36960, Note_on_c, 3, 58, 88
7, 37194, Note_off_c, 3, 58, 0
7, 37200, Note_on_c, 3, 56, 88
7, 37674, Note_off_c, 3, 56, 0
7, 37680, Note_on_c, 3, 55, 88
7, 37796, Note_off_c, 3, 55, 0
7, 37800, Note_on_c, 3, 53, 88
7, 37916, Note_off_c, 3, 53, 0
7, 37920, Note_on_c, 3, 55, 88
7, 38390, Note_off_c, 3, 55, 0
7, 38400, Note_on_c, 3, 56, 88
7, 38516, Note_off_c, 3, 56, 0
7, 38520, Note_on_c, 3, 58, 88
7, 38636, Note_off_c, 3, 58, 0
7, 38640, Note_on_c, 3, 56, 88
7, 38756, Note_off_c, 3, 56, 0
7, 38760, Note_on_c, 3, 55, 88
7, 38876, Note_off_c, 3, 55, 0
7, 38880, Note_on_c, 3, 56, 88
7, 38996, Note_off_c, 3, 56, 0
7, 39000, Note_on_c, 3, 58, 88
7, 39116, Note_off_c, 3, 58, 0
7, 39120, Note_on_c, 3, 59, 88
7, 39236, Note_off_c, 3, 59, 0
7, 39240, Note_on_c, 3, 56, 88
7, 39356, Note_off_c, 3, 56, 0
7, 39360, Note_on_c, 3, 57, 88
7, 39476, Note_off_c, 3, 57, 0
7, 39480, Note_on_c, 3, 59, 88
7, 39596, Note_off_c, 3, 59, 0
7, 39600, Note_on_c, 3, 57, 88
7, 39716, Note_off_c, 3, 57, 0
7, 39720, Note_on_c, 3, 56, 88
7, 39836, Note_off_c, 3, 56, 0
7, 39840, Note_on_c, 3, 58, 88
7, 39956, Note_off_c, 3, 58, 0
7, 39960, Note_on_c, 3, 59, 88
7, 40076, Note_off_c, 3, 59, 0
7, 40080, Note_on_c, 3, 61, 88
7, 40196, Note_off_c, 3, 61, 0
7, 40200, Note_on_c, 3, 58, 88
7, 40316, Note_off_c, 3, 58, 0
7, 40320, Note_on_c, 3, 59, 88
7, 40436, Note_off_c, 3, 59, 0
7, 40440, Note_on_c, 3, 61, 88
7, 40556, Note_off_c, 3, 61, 0
7, 40560, Note_on_c, 3, 59, 88
7, 40676, Note_off_c, 3, 59, 0
7, 40680, Note_on_c, 3, 58, 88
7, 40796, Note_off_c, 3, 58, 0
7, 40800, Note_on_c, 3, 60, 88
7, 40916, Note_off_c, 3, 60, 0
7, 40920, Note_on_c, 3, 61, 88
7, 41036, Note_off_c, 3, 61, 0
7, 41040, Note_on_c, 3, 63, 88
7, 41156, Note_off_c, 3, 63, 0
7, 41160, Note_on_c, 3, 60, 88
7, 41276, Note_off_c, 3, 60, 0
7, 41280, Note_on_c, 3, 61, 88
7, 42225, Note_off_c, 3, 61, 0
7, 48480, Note_on_c, 3, 54, 88
7, 48950, Note_off_c, 3, 54, 0
7, 48960, Note_on_c, 3, 53, 88
7, 49430, Note_off_c, 3, 53, 0
7, 49440, Note_on_c, 3, 57, 88
7, 49910, Note_off_c, 3, 57, 0
7, 49920, Note_on_c, 3, 56, 88
7, 50865, Note_off_c, 3, 56, 0
7, 50880, Note_on_c, 3, 54, 88
7, 51825, Note_off_c, 3, 54, 0
7, 56880, Note_on_c, 3, 56, 88
7, 57114, Note_off_c, 3, 56, 0
7, 57120, Note_on_c, 3, 61, 88
7, 57330, Note_off_c, 3, 61, 0
7, 57360, Note_on_c, 3, 61, 88
7, 57594, Note_off_c, 3, 61, 0
7, 57600, Note_on_c, 3, 61, 88
7, 57834, Note_off_c, 3, 61, 0
7, 57840, Note_on_c, 3, 60, 88
7, 57956, Note_off_c, 3, 60, 0
7, 57960, Note_on_c, 3, 58, 88
7, 58076, Note_off_c, 3, 58, 0
7, 58080, Note_on_c, 3, 60, 88
7, 58550, Note_off_c, 3, 60, 0
7, 58560, Note_on_c, 3, 61, 88
7, 59030, Note_off_c, 3, 61, 0
7, 59040, Note_on_c, 3, 57, 88
7, 59510, Note_off_c, 3, 57, 0
7, 59520, Note_on_c, 3, 54, 88
7, 59990, Note_off_c, 3, 54, 0
7, 60000, Note_on_c, 3, 56, 88
7, 60470, Note_off_c, 3, 56, 0
7, 60480, Note_on_c, 3, 53, 88
7, 60950, Note_off_c, 3, 53, 0
7, 60960, Note_on_c, 3, 54, 88
7, 61430, Note_off_c, 3, 54, 0
7, 61440, Note_on_c, 3, 56, 88
7, 62385, Note_off_c, 3, 56, 0
7, 62400, Note_on_c, 3, 55, 88
7, 62870, Note_off_c, 3, 55, 0
7, 62880, Note_on_c, 3, 56, 88
7, 63350, Note_off_c, 3, 56, 0
7, 63360, Note_on_c, 3, 53, 88
7, 63594, Note_off_c, 3, 53, 0
7, 70320, Note_on_c, 3, 44, 88
7, 70554, Note_off_c, 3, 44, 0
7, 70560, Note_on_c, 3, 49, 88
7, 70770, Note_off_c, 3, 49, 0
7, 70800, Note_on_c, 3, 49, 88
7, 71034, Note_off_c, 3, 49, 0
7, 71040, Note_on_c, 3, 49, 88
7, 71274, Note_off_c, 3, 49, 0
7, 71280, Note_on_c, 3, 48, 88
7, 71396, Note_off_c, 3, 48, 0
7, 71400, Note_on_c, 3, 46, 88
7, 71516, Note_off_c, 3, 46, 0
7, 71520, Note_on_c, 3, 48, 88
7, 71990, Note_off_c, 3, 48, 0
7, 72000, Note_on_c, 3, 49, 88
7, 72470, Note_off_c, 3, 49, 0
7, 76800, Note_on_c, 3, 49, 88
7, 77745, Note_off_c, 3, 49, 0
7, 77760, Note_on_c, 3, 48, 88
7, 78230, Note_off_c, 3, 48, 0
7, 78240, Note_on_c, 3, 52, 88
7, 78710, Note_off_c, 3, 52, 0
7, 78720, Note_on_c, 3, 51, 88
7, 79665, Note_off_c, 3, 51, 0
7, 79680, Note_on_c, 3, 49, 88
7, 79914, Note_off_c, 3, 49, 0
7, 79920, Note_on_c, 3, 52, 88
7, 80154, Note_off_c, 3, 52, 0
7, 80160, Note_on_c, 3, 57, 88
7, 80370, Note_off_c, 3, 57, 0
7, 80400, Note_on_c, 3, 57, 88
7, 80634, Note_off_c, 3, 57, 0
7, 80640, Note_on_c, 3, 57, 88
7, 80874, Note_off_c, 3, 57, 0
7, 80880, Note_on_c, 3, 56, 88
7, 80996, Note_off_c, 3, 56, 0
7, 81000, Note_on_c, 3, 54, 88
7, 81116, Note_off_c, 3, 54, 0
7, 81120, Note_on_c, 3, 56, 88
7, 82070, Note_off_c, 3, 56, 0
7, 82080, Note_on_c, 3, 54, 88
7, 82550, Note_off_c, 3, 54, 0
7, 82560, Note_on_c, 3, 56, 88
7, 83505, Note_off_c, 3, 56, 0
7, 83520, Note_on_c, 3, 57, 88
7, 83990, Note_off_c, 3, 57, 0
7, 84000, Note_on_c, 3, 54, 88
7, 84570, Note_off_c, 3, 54, 0
7, 84600, Note_on_c, 3, 54, 88
7, 84716, Note_off_c, 3, 54, 0
7, 84720, Note_on_c, 3, 52, 88
7, 84836, Note_off_c, 3, 52, 0
7, 84840, Note_on_c, 3, 51, 88
7, 84956, Note_off_c, 3, 51, 0
7, 84960, Note_on_c, 3, 52, 88
7, 85194, Note_off_c, 3, 52, 0
7, 85200, Note_on_c, 3, 49, 88
7, 85434, Note_off_c, 3, 49, 0
7, 85440, Note_on_c, 3, 56, 88
7, 86385, Note_off_c, 3, 56, 0
7, 86400, Note_on_c, 3, 54, 88
7, 86870, Note_off_c, 3, 54, 0
7, 86880, Note_on_c, 3, 51, 88
7, 87350, Note_off_c, 3, 51, 0
7, 87360, Note_on_c, 3, 52, 88
7, 87476, Note_off_c, 3, 52, 0
7, 87480, Note_on_c, 3, 51, 88
7, 87596, Note_off_c, 3, 51, 0
7, 87600, Note_on_c, 3, 52, 88
7, 87716, Note_off_c, 3, 52, 0
7, 87720, Note_on_c, 3, 54, 88
7, 87836, Note_off_c, 3, 54, 0
7, 87840, Note_on_c, 3, 52, 88
7, 87956, Note_off_c, 3, 52, 0
7, 87960, Note_on_c, 3, 51, 88
7, 88076, Note_off_c, 3, 51, 0
7, 88080, Note_on_c, 3, 49, 88
7, 88196, Note_off_c, 3, 49, 0
7, 88200, Note_on_c, 3, 52, 88
7, 88316, Note_off_c, 3, 52, 0
7, 88320, Note_on_c, 3, 51, 88
7, 88436, Note_off_c, 3, 51, 0
7, 88440, Note_on_c, 3, 49, 88
7, 88556, Note_off_c, 3, 49, 0
7, 88560, Note_on_c, 3, 51, 88
7, 88676, Note_off_c, 3, 51, 0
7, 88680, Note_on_c, 3, 52, 88
7, 88796, Note_off_c, 3, 52, 0
7, 88800, Note_on_c, 3, 51, 88
7, 88916, Note_off_c, 3, 51, 0
7, 88920, Note_on_c, 3, 49, 88
7, 89036, Note_off_c, 3, 49, 0
7, 89040, Note_on_c, 3, 48, 88
7, 89156, Note_off_c, 3, 48, 0
7, 89160, Note_on_c, 3, 51, 88
7, 89276, Note_off_c, 3, 51, 0
7, 89280, Note_on_c, 3, 49, 88
7, 89514, Note_off_c, 3, 49, 0
7, 89520, Note_on_c, 3, 52, 88
7, 89754, Note_off_c, 3, 52, 0
7, 89760, Note_on_c, 3, 57, 88
7, 89970, Note_off_c, 3, 57, 0
7, 90000, Note_on_c, 3, 57, 88
7, 90234, Note_off_c, 3, 57, 0
7, 90240, Note_on_c, 3, 57, 88
7, 90474, Note_off_c, 3, 57, 0
7, 90480, Note_on_c, 3, 55, 88
7, 90596, Note_off_c, 3, 55, 0
7, 90600, Note_on_c, 3, 54, 88
7, 90716, Note_off_c, 3, 54, 0
7, 90720, Note_on_c, 3, 52, 88
7, 91190, Note_off_c, 3, 52, 0
7, 91440, Note_on_c, 3, 54, 88
7, 91674, Note_off_c, 3, 54, 0
7, 91680, Note_on_c, 3, 59, 88
7, 91890, Note_off_c, 3, 59, 0
7, 91920, Note_on_c, 3, 59, 88
7, 92154, Note_off_c, 3, 59, 0
7, 92160, Note_on_c, 3, 59, 88
7, 92394, Note_off_c, 3, 59, 0
7, 92400, Note_on_c, 3, 57, 88
7, 92516, Note_off_c, 3, 57, 0
7, 92520, Note_on_c, 3, 56, 88
7, 92636, Note_off_c, 3, 56, 0
7, 92640, Note_on_c, 3, 57, 88
7, 92756, Note_off_c, 3, 57, 0
7, 92760, Note_on_c, 3, 56, 88
7, 92876, Note_off_c, 3, 56, 0
7, 92880, Note_on_c, 3, 54, 88
7, 92996, Note_off_c, 3, 54, 0
7, 93000, Note_on_c, 3, 52, 88
7, 93116, Note_off_c, 3, 52, 0
7, 93120, Note_on_c, 3, 51, 88
7, 93590, Note_off_c, 3, 51, 0
7, 93840, Note_on_c, 3, 56, 88
7, 94074, Note_off_c, 3, 56, 0
7, 94080, Note_on_c, 3, 63, 88
7, 94290, Note_off_c, 3, 63, 0
7, 94320, Note_on_c, 3, 63, 88
7, 94530, Note_off_c, 3, 63, 0
7, 94560, Note_on_c, 3, 63, 88
7, 94794, Note_off_c, 3, 63, 0
7, 94800, Note_on_c, 3, 61, 88
7, 94916, Note_off_c, 3, 61, 0
7, 94920, Note_on_c, 3, 60, 88
7, 95036, Note_off_c, 3, 60, 0
7, 95040, Note_on_c, 3, 61, 88
7, 95985, Note_off_c, 3, 61, 0
7, 96000, Note_on_c, 3, 60, 88
7, 96470, Note_off_c, 3, 60, 0
7, 96480, Note_on_c, 3, 64, 88
7, 96950, Note_off_c, 3, 64, 0
7, 97200, Note_on_c, 3, 49, 88
7, 97434, Note_off_c, 3, 49, 0
7, 97440, Note_on_c, 3, 54, 88
7, 97650, Note_off_c, 3, 54, 0
7, 97680, Note_on_c, 3, 54, 88
7, 97914, Note_off_c, 3, 54, 0
7, 97920, Note_on_c, 3, 54, 88
7, 98154, Note_off_c, 3, 54, 0
7, 98160, Note_on_c, 3, 53, 88
7, 98276, Note_off_c, 3, 53, 0
7, 98280, Note_on_c, 3, 51, 88
7, 98396, Note_off_c, 3, 51, 0
7, 98400, Note_on_c, 3, 49, 88
7, 99350, Note_off_c, 3, 49, 0
7, 99360, Note_on_c, 3, 51, 88
7, 100050, Note_off_c, 3, 51, 0
7, 100080, Note_on_c, 3, 51, 88
7, 100314, Note_off_c, 3, 51, 0
7, 100320, Note_on_c, 3, 56, 88
7, 100530, Note_off_c, 3, 56, 0
7, 100560, Note_on_c, 3, 56, 88
7, 100794, Note_off_c, 3, 56, 0
7, 100800, Note_on_c, 3, 56, 88
7, 101034, Note_off_c, 3, 56, 0
7, 101040, Note_on_c, 3, 54, 88
7, 101156, Note_off_c, 3, 54, 0
7, 101160, Note_on_c, 3, 52, 88
7, 101276, Note_off_c, 3, 52, 0
7, 101280, Note_on_c, 3, 54, 88
7, 101490, Note_off_c, 3, 54, 0
7, 101520, Note_on_c, 3, 54, 88
7, 101754, Note_off_c, 3, 54, 0
7, 101760, Note_on_c, 3, 54, 88
7, 101994, Note_off_c, 3, 54, 0
7, 102000, Note_on_c, 3, 52, 88
7, 102116, Note_off_c, 3, 52, 0
7, 102120, Note_on_c, 3, 51, 88
7, 102236, Note_off_c, 3, 51, 0
7, 102240, Note_on_c, 3, 52, 88
7, 102474, Note_off_c, 3, 52, 0
7, 102480, Note_on_c, 3, 51, 88
7, 102596, Note_off_c, 3, 51, 0
7, 102600, Note_on_c, 3, 49, 88
7, 102716, Note_off_c, 3, 49, 0
7, 102720, Note_on_c, 3, 51, 88
7, 102954, Note_off_c, 3, 51, 0
7, 102960, Note_on_c, 3, 44, 88
7, 103194, Note_off_c, 3, 44, 0
7, 103200, Note_on_c, 3, 49, 88
7, 103410, Note_off_c, 3, 49, 0
7, 103440, Note_on_c, 3, 49, 88
7, 103674, Note_off_c, 3, 49, 0
7, 103680, Note_on_c, 3, 49, 88
7, 103914, Note_off_c, 3, 49, 0
7, 103920, Note_on_c, 3, 47, 88
7, 104036, Note_off_c, 3, 47, 0
7, 104040, Note_on_c, 3, 46, 88
7, 104156, Note_off_c, 3, 46, 0
7, 104160, Note_on_c, 3, 51, 88
7, 104756, Note_off_c, 3, 51, 0
7, 104760, Note_on_c, 3, 52, 88
7, 104876, Note_off_c, 3, 52, 0
7, 104880, Note_on_c, 3, 54, 88
7, 105233, Note_off_c, 3, 54, 0
7, 105240, Note_on_c, 3, 52, 88
7, 105356, Note_off_c, 3, 52, 0
7, 105360, Note_on_c, 3, 51, 88
7, 105476, Note_off_c, 3, 51, 0
7, 105480, Note_on_c, 3, 49, 88
7, 105596, Note_off_c, 3, 49, 0
7, 105600, Note_on_c, 3, 56, 88
7, 106545, Note_off_c, 3, 56, 0
7, 106560, Note_on_c, 3, 57, 88
7, 107268, Note_off_c, 3, 57, 0
7, 107280, Note_on_c, 3, 56, 88
7, 107396, Note_off_c, 3, 56, 0
7, 107400, Note_on_c, 3, 57, 88
7, 107516, Note_off_c, 3, 57, 0
7, 107520, Note_on_c, 3, 59, 88
7, 107754, Note_off_c, 3, 59, 0
7, 107760, Note_on_c, 3, 57, 88
7, 107994, Note_off_c, 3, 57, 0
7, 108000, Note_on_c, 3, 56, 88
7, 108234, Note_off_c, 3, 56, 0
7, 108240, Note_on_c, 3, 54, 88
7, 108474, Note_off_c, 3, 54, 0
7, 108480, Note_on_c, 3, 61, 88
7, 108714, Note_off_c, 3, 61, 0
7, 108720, Note_on_c, 3, 59, 88
7, 108836, Note_off_c, 3, 59, 0
7, 108840, Note_on_c, 3, 57, 88
7, 108956, Note_off_c, 3, 57, 0
7, 108960, Note_on_c, 3, 56, 88
7, 109194, Note_off_c, 3, 56, 0
7, 109200, Note_on_c, 3, 54, 88
7, 109434, Note_off_c, 3, 54, 0
7, 109440, Note_on_c, 3, 56, 88
7, 110385, Note_off_c, 3, 56, 0
7, 110385, End_track
8, 0, Start_track
8, 0, Title_t, "Track 5"
8, 0, Program_c, 4, 6
8, 0, Note_on_c, 4, 49, 88
8, 945, Note_off_c, 4, 49, 0
8, 960, Note_on_c, 4, 48, 88
8, 1430, Note_off_c, 4, 48, 0
8, 1440, Note_on_c, 4, 52, 88
8, 1910, Note_off_c, 4, 52, 0
8, 1920, Note_on_c, 4, 51, 88
8, 2865, Note_off_c, 4, 51, 0
8, 2880, Note_on_c, 4, 49, 88
8, 3114, Note_off_c, 4, 49, 0
8, 3120, Note_on_c, 4, 51, 88
8, 3354, Note_off_c, 4, 51, 0
8, 3360, Note_on_c, 4, 52, 88
8, 4074, Note_off_c, 4, 52, 0
8, 4080, Note_on_c, 4, 51, 88
8, 4196, Note_off_c, 4, 51, 0
8, 4200, Note_on_c, 4, 49, 88
8, 4316, Note_off_c, 4, 49, 0
8, 4320, Note_on_c, 4, 51, 88
8, 4554, Note_off_c, 4, 51, 0
8, 4560, Note_on_c, 4, 56, 88
8, 4794, Note_off_c, 4, 56, 0
8, 4800, Note_on_c, 4, 49, 88
8, 5034, Note_off_c, 4, 49, 0
8, 5040, Note_on_c, 4, 51, 88
8, 5156, Note_off_c, 4, 51, 0
8, 5160, Note_on_c, 4, 52, 88
8, 5276, Note_off_c, 4, 52, 0
8, 5280, Note_on_c, 4, 54, 88
8, 5994, Note_off_c, 4, 54, 0
8, 6000, Note_on_c, 4, 52, 88
8, 6234, Note_off_c, 4, 52, 0
8, 6240, Note_on_c, 4, 51, 88
8, 6474, Note_off_c, 4, 51, 0
8, 6480, Note_on_c, 4, 49, 88
8, 6714, Note_off_c, 4, 49, 0
8, 6720, Note_on_c, 4, 51, 88
8, 7190, Note_off_c, 4, 51, 0
8, 7200, Note_on_c, 4, 49, 88
8, 7914, Note_off_c, 4, 49, 0
8, 7920, Note_on_c, 4, 47, 88
8, 8154, Note_off_c, 4, 47, 0
8, 8160, Note_on_c, 4, 45, 88
8, 8394, Note_off_c, 4, 45, 0
8, 8400, Note_on_c, 4, 44, 88
8, 8634, Note_off_c, 4, 44, 0
8, 8640, Note_on_c, 4, 45, 88
8, 9110, Note_off_c, 4, 45, 0
8, 9120, Note_on_c, 4, 46, 88
8, 9590, Note_off_c, 4, 46, 0
8, 9600, Note_on_c, 4, 48, 88
8, 10070, Note_off_c, 4, 48, 0
8, 10080, Note_on_c, 4, 49, 88
8, 10550, Note_off_c, 4, 49, 0
8, 10560, Note_on_c, 4, 44, 88
8, 10794, Note_off_c, 4, 44, 0
8, 10800, Note_on_c, 4, 45, 88
8, 11034, Note_off_c, 4, 45, 0
8, 11040, Note_on_c, 4, 47, 88
8, 11754, Note_off_c, 4, 47, 0
8, 11760, Note_on_c, 4, 45, 88
8, 11994, Note_off_c, 4, 45, 0
8, 12000, Note_on_c, 4, 44, 88
8, 12234, Note_off_c, 4, 44, 0
8, 12240, Note_on_c, 4, 42, 88
8, 12474, Note_off_c, 4, 42, 0
8, 12480, Note_on_c, 4, 49, 88
8, 12950, Note_off_c, 4, 49, 0
8, 12960, Note_on_c, 4, 45, 88
8, 13674, Note_off_c, 4, 45, 0
8, 13680, Note_on_c, 4, 44, 88
8, 13914, Note_off_c, 4, 44, 0
8, 13920, Note_on_c, 4, 42, 88
8, 14154, Note_off_c, 4, 42, 0
8, 14160, Note_on_c, 4, 40, 88
8, 14394, Note_off_c, 4, 40, 0
8, 14400, Note_on_c, 4, 42, 88
8, 14870, Note_off_c, 4, 42, 0
8, 14880, Note_on_c, 4, 44, 88
8, 15350, Note_off_c, 4, 44, 0
8, 15360, Note_on_c, 4, 45, 88
8, 15594, Note_off_c, 4, 45, 0
8, 15600, Note_on_c, 4, 44, 88
8, 15834, Note_off_c, 4, 44, 0
8, 15840, Note_on_c, 4, 45, 88
8, 16074, Note_off_c, 4, 45, 0
8, 16080, Note_on_c, 4, 47, 88
8, 16314, Note_off_c, 4, 47, 0
8, 16320, Note_on_c, 4, 49, 88
8, 16554, Note_off_c, 4, 49, 0
8, 16560, Note_on_c, 4, 47, 88
8, 16794, Note_off_c, 4, 47, 0
8, 16800, Note_on_c, 4, 49, 88
8, 17034, Note_off_c, 4, 49, 0
8, 17040, Note_on_c, 4, 51, 88
8, 17274, Note_off_c, 4, 51, 0
8, 17280, Note_on_c, 4, 52, 88
8, 17750, Note_off_c, 4, 52, 0
8, 17760, Note_on_c, 4, 49, 88
8, 18474, Note_off_c, 4, 49, 0
8, 18480, Note_on_c, 4, 47, 88
8, 18714, Note_off_c, 4, 47, 0
8, 18720, Note_on_c, 4, 46, 88
8, 18954, Note_off_c, 4, 46, 0
8, 18960, Note_on_c, 4, 44, 88
8, 19194, Note_off_c, 4, 44, 0
8, 19200, Note_on_c, 4, 49, 88
8, 19670, Note_off_c, 4, 49, 0
8, 19680, Note_on_c, 4, 51, 88
8, 20150, Note_off_c, 4, 51, 0
8, 20160, Note_on_c, 4, 44, 88
8, 20630, Note_off_c, 4, 44, 0
8, 27360, Note_on_c, 4, 47, 88
8, 27830, Note_off_c, 4, 47, 0
8, 27840, Note_on_c, 4, 46, 88
8, 28310, Note_off_c, 4, 46, 0
8, 28320, Note_on_c, 4, 51, 88
8, 28790, Note_off_c, 4, 51, 0
8, 28800, Note_on_c, 4, 49, 88
8, 29745, Note_off_c, 4, 49, 0
8, 29760, Note_on_c, 4, 47, 88
8, 30954, Note_off_c, 4, 47, 0
8, 30960, Note_on_c, 4, 56, 88
8, 31194, Note_off_c, 4, 56, 0
8, 31200, Note_on_c, 4, 54, 88
8, 31434, Note_off_c, 4, 54, 0
8, 31440, Note_on_c, 4, 52, 88
8, 31674, Note_off_c, 4, 52, 0
8, 31680, Note_on_c, 4, 59, 88
8, 32150, Note_off_c, 4, 59, 0
8, 32160, Note_on_c, 4, 47, 88
8, 32630, Note_off_c, 4, 47, 0
8, 32640, Note_on_c, 4, 52, 88
8, 33110, Note_off_c, 4, 52, 0
8, 33120, Note_on_c, 4, 57, 88
8, 33590, Note_off_c, 4, 57, 0
8, 33600, Note_on_c, 4, 56, 88
8, 34070, Note_off_c, 4, 56, 0
8, 34080, Note_on_c, 4, 61, 88
8, 35030, Note_off_c, 4, 61, 0
8, 35040, Note_on_c, 4, 60, 88
8, 35510, Note_off_c, 4, 60, 0
8, 35520, Note_on_c, 4, 61, 88
8, 35990, Note_off_c, 4, 61, 0
8, 41520, Note_on_c, 4, 49, 88
8, 41636, Note_off_c, 4, 49, 0
8, 41640, Note_on_c, 4, 51, 88
8, 41756, Note_off_c, 4, 51, 0
8, 41760, Note_on_c, 4, 52, 88
8, 41994, Note_off_c, 4, 52, 0
8, 42000, Note_on_c, 4, 54, 88
8, 42234, Note_off_c, 4, 54, 0
8, 42240, Note_on_c, 4, 56, 88
8, 42356, Note_off_c, 4, 56, 0
8, 42360, Note_on_c, 4, 54, 88
8, 42476, Note_off_c, 4, 54, 0
8, 42480, Note_on_c, 4, 56, 88
8, 42596, Note_off_c, 4, 56, 0
8, 42600, Note_on_c, 4, 57, 88
8, 42716, Note_off_c, 4, 57, 0
8, 42720, Note_on_c, 4, 56, 88
8, 42836, Note_off_c, 4, 56, 0
8, 42840, Note_on_c, 4, 54, 88
8, 42956, Note_off_c, 4, 54, 0
8, 42960, Note_on_c, 4, 52, 88
8, 43076, Note_off_c, 4, 52, 0
8, 43080, Note_on_c, 4, 56, 88
8, 43196, Note_off_c, 4, 56, 0
8, 43200, Note_on_c, 4, 54, 88
8, 43316, Note_off_c, 4, 54, 0
8, 43320, Note_on_c, 4, 52, 88
8, 43436, Note_off_c, 4, 52, 0
8, 43440, Note_on_c, 4, 54, 88
8, 43556, Note_off_c, 4, 54, 0
8, 43560, Note_on_c, 4, 56, 88
8, 43676, Note_off_c, 4, 56, 0
8, 43680, Note_on_c, 4, 54, 88
8, 43796, Note_off_c, 4, 54, 0
8, 43800, Note_on_c, 4, 52, 88
8, 43916, Note_off_c, 4, 52, 0
8, 43920, Note_on_c, 4, 51, 88
8, 44036, Note_off_c, 4, 51, 0
8, 44040, Note_on_c, 4, 54, 88
8, 44156, Note_off_c, 4, 54, 0
8, 44160, Note_on_c, 4, 52, 88
8, 44276, Note_off_c, 4, 52, 0
8, 44280, Note_on_c, 4, 51, 88
8, 44396, Note_off_c, 4, 51, 0
8, 44400, Note_on_c, 4, 52, 88
8, 44516, Note_off_c, 4, 52, 0
8, 44520, Note_on_c, 4, 54, 88
8, 44636, Note_off_c, 4, 54, 0
8, 44640, Note_on_c, 4, 52, 88
8, 44756, Note_off_c, 4, 52, 0
8, 44760, Note_on_c, 4, 57, 88
8, 44876, Note_off_c, 4, 57, 0
8, 44880, Note_on_c, 4, 56, 88
8, 44996, Note_off_c, 4, 56, 0
8, 45000, Note_on_c, 4, 57, 88
8, 45116, Note_off_c, 4, 57, 0
8, 45120, Note_on_c, 4, 51, 88
8, 45236, Note_off_c, 4, 51, 0
8, 45240, Note_on_c, 4, 49, 88
8, 45356, Note_off_c, 4, 49, 0
8, 45360, Note_on_c, 4, 51, 88
8, 45476, Note_off_c, 4, 51, 0
8, 45480, Note_on_c, 4, 52, 88
8, 45596, Note_off_c, 4, 52, 0
8, 45600, Note_on_c, 4, 51, 88
8, 45716, Note_off_c, 4, 51, 0
8, 45720, Note_on_c, 4, 56, 88
8, 45836, Note_off_c, 4, 56, 0
8, 45840, Note_on_c, 4, 54, 88
8, 45956, Note_off_c, 4, 54, 0
8, 45960, Note_on_c, 4, 56, 88
8, 46076, Note_off_c, 4, 56, 0
8, 46080, Note_on_c, 4, 49, 88
8, 46550, Note_off_c, 4, 49, 0
8, 52080, Note_on_c, 4, 52, 88
8, 52314, Note_off_c, 4, 52, 0
8, 52320, Note_on_c, 4, 57, 88
8, 52530, Note_off_c, 4, 57, 0
8, 52560, Note_on_c, 4, 57, 88
8, 52794, Note_off_c, 4, 57, 0
8, 52800, Note_on_c, 4, 57, 88
8, 53034, Note_off_c, 4, 57, 0
8, 53040, Note_on_c, 4, 56, 88
8, 53156, Note_off_c, 4, 56, 0
8, 53160, Note_on_c, 4, 54, 88
8, 53276, Note_off_c, 4, 54, 0
8, 53280, Note_on_c, 4, 56, 88
8, 53750, Note_off_c, 4, 56, 0
8, 53760, Note_on_c, 4, 57, 88
8, 54230, Note_off_c, 4, 57, 0
8, 54240, Note_on_c, 4, 54, 88
8, 54710, Note_off_c, 4, 54, 0
8, 54720, Note_on_c, 4, 47, 88
8, 55190, Note_off_c, 4, 47, 0
8, 55200, Note_on_c, 4, 52, 88
8, 55670, Note_off_c, 4, 52, 0
8, 55680, Note_on_c, 4, 45, 88
8, 56625, Note_off_c, 4, 45, 0
8, 56640, Note_on_c, 4, 44, 88
8, 57110, Note_off_c, 4, 44, 0
8, 61680, Note_on_c, 4, 44, 88
8, 61914, Note_off_c, 4, 44, 0
8, 61920, Note_on_c, 4, 49, 88
8, 62130, Note_off_c, 4, 49, 0
8, 62160, Note_on_c, 4, 49, 88
8, 62394, Note_off_c, 4, 49, 0
8, 62400, Note_on_c, 4, 49, 88
8, 62634, Note_off_c, 4, 49, 0
8, 62640, Note_on_c, 4, 47, 88
8, 62756, Note_off_c, 4, 47, 0
8, 62760, Note_on_c, 4, 46, 88
8, 62876, Note_off_c, 4, 46, 0
8, 62880, Note_on_c, 4, 47, 88
8, 62996, Note_off_c, 4, 47, 0
8, 63000, Note_on_c, 4, 46, 88
8, 63116, Note_off_c, 4, 46, 0
8, 63120, Note_on_c, 4, 44, 88
8, 63236, Note_off_c, 4, 44, 0
8, 63240, Note_on_c, 4, 47, 88
8, 63356, Note_off_c, 4, 47, 0
8, 63360, Note_on_c, 4, 46, 88
8, 63476, Note_off_c, 4, 46, 0
8, 63480, Note_on_c, 4, 44, 88
8, 63596, Note_off_c, 4, 44, 0
8, 63600, Note_on_c, 4, 46, 88
8, 63716, Note_off_c, 4, 46, 0
8, 63720, Note_on_c, 4, 47, 88
8, 63836, Note_off_c, 4, 47, 0
8, 63840, Note_on_c, 4, 46, 88
8, 63956, Note_off_c, 4, 46, 0
8, 63960, Note_on_c, 4, 44, 88
8, 64076, Note_off_c, 4, 44, 0
8, 64080, Note_on_c, 4, 42, 88
8, 64196, Note_off_c, 4, 42, 0
8, 64200, Note_on_c, 4, 46, 88
8, 64316, Note_off_c, 4, 46, 0
8, 64320, Note_on_c, 4, 44, 88
8, 64436, Note_off_c, 4, 44, 0
8, 64440, Note_on_c, 4, 42, 88
8, 64556, Note_off_c, 4, 42, 0
8, 64560, Note_on_c, 4, 44, 88
8, 64676, Note_off_c, 4, 44, 0
8, 64680, Note_on_c, 4, 46, 88
8, 64796, Note_off_c, 4, 46, 0
8, 64800, Note_on_c, 4, 44, 88
8, 64916, Note_off_c, 4, 44, 0
8, 64920, Note_on_c, 4, 47, 88
8, 65036, Note_off_c, 4, 47, 0
8, 65040, Note_on_c, 4, 46, 88
8, 65156, Note_off_c, 4, 46, 0
8, 65160, Note_on_c, 4, 44, 88
8, 65276, Note_off_c, 4, 44, 0
8, 65280, Note_on_c, 4, 43, 88
8, 65750, Note_off_c, 4, 43, 0
8, 65760, Note_on_c, 4, 44, 88
8, 66230, Note_off_c, 4, 44, 0
8, 66240, Note_on_c, 4, 46, 88
8, 66710, Note_off_c, 4, 46, 0
8, 66720, Note_on_c, 4, 51, 88
8, 67190, Note_off_c, 4, 51, 0
8, 67200, Note_on_c, 4, 44, 88
8, 67670, Note_off_c, 4, 44, 0
8, 69120, Note_on_c, 4, 37, 88
8, 70065, Note_off_c, 4, 37, 0
8, 70080, Note_on_c, 4, 36, 88
8, 70550, Note_off_c, 4, 36, 0
8, 70560, Note_on_c, 4, 40, 88
8, 71030, Note_off_c, 4, 40, 0
8, 71040, Note_on_c, 4, 39, 88
8, 71985, Note_off_c, 4, 39, 0
8, 72000, Note_on_c, 4, 37, 88
8, 72210, Note_off_c, 4, 37, 0
8, 72240, Note_on_c, 4, 37, 88
8, 72356, Note_off_c, 4, 37, 0
8, 72360, Note_on_c, 4, 39, 88
8, 72476, Note_off_c, 4, 39, 0
8, 72480, Note_on_c, 4, 40, 88
8, 72714, Note_off_c, 4, 40, 0
8, 72720, Note_on_c, 4, 42, 88
8, 72954, Note_off_c, 4, 42, 0
8, 72960, Note_on_c, 4, 44, 88
8, 73076, Note_off_c, 4, 44, 0
8, 73080, Note_on_c, 4, 42, 88
8, 73196, Note_off_c, 4, 42, 0
8, 73200, Note_on_c, 4, 44, 88
8, 73316, Note_off_c, 4, 44, 0
8, 73320, Note_on_c, 4, 45, 88
8, 73436, Note_off_c, 4, 45, 0
8, 73440, Note_on_c, 4, 44, 88
8, 73556, Note_off_c, 4, 44, 0
8, 73560, Note_on_c, 4, 42, 88
8, 73676, Note_off_c, 4, 42, 0
8, 73680, Note_on_c, 4, 40, 88
8, 73796, Note_off_c, 4, 40, 0
8, 73800, Note_on_c, 4, 44, 88
8, 73916, Note_off_c, 4, 44, 0
8, 73920, Note_on_c, 4, 42, 88
8, 74036, Note_off_c, 4, 42, 0
8, 74040, Note_on_c, 4, 40, 88
8, 74156, Note_off_c, 4, 40, 0
8, 74160, Note_on_c, 4, 42, 88
8, 74276, Note_off_c, 4, 42, 0
8, 74280, Note_on_c, 4, 44, 88
8, 74396, Note_off_c, 4, 44, 0
8, 74400, Note_on_c, 4, 42, 88
8, 74516, Note_off_c, 4, 42, 0
8, 74520, Note_on_c, 4, 40, 88
8, 74636, Note_off_c, 4, 40, 0
8, 74640, Note_on_c, 4, 39, 88
8, 74756, Note_off_c, 4, 39, 0
8, 74760, Note_on_c, 4, 42, 88
8, 74876, Note_off_c, 4, 42, 0
8, 74880, Note_on_c, 4, 40, 88
8, 75114, Note_off_c, 4, 40, 0
8, 75120, Note_on_c, 4, 52, 88
8, 75354, Note_off_c, 4, 52, 0
8, 75360, Note_on_c, 4, 57, 88
8, 75570, Note_off_c, 4, 57, 0
8, 75600, Note_on_c, 4, 57, 88
8, 75834, Note_off_c, 4, 57, 0
8, 75840, Note_on_c, 4, 57, 88
8, 76074, Note_off_c, 4, 57, 0
8, 76080, Note_on_c, 4, 56, 88
8, 76196, Note_off_c, 4, 56, 0
8, 76200, Note_on_c, 4, 54, 88
8, 76316, Note_off_c, 4, 54, 0
8, 76320, Note_on_c, 4, 56, 88
8, 76554, Note_off_c, 4, 56, 0
8, 76560, Note_on_c, 4, 44, 88
8, 76794, Note_off_c, 4, 44, 0
8, 76800, Note_on_c, 4, 49, 88
8, 77034, Note_off_c, 4, 49, 0
8, 77040, Note_on_c, 4, 47, 88
8, 77274, Note_off_c, 4, 47, 0
8, 77280, Note_on_c, 4, 45, 88
8, 77750, Note_off_c, 4, 45, 0
8, 77760, Note_on_c, 4, 44, 88
8, 77994, Note_off_c, 4, 44, 0
8, 81840, Note_on_c, 4, 49, 88
8, 82074, Note_off_c, 4, 49, 0
8, 82080, Note_on_c, 4, 54, 88
8, 82290, Note_off_c, 4, 54, 0
8, 82320, Note_on_c, 4, 54, 88
8, 82554, Note_off_c, 4, 54, 0
8, 82560, Note_on_c, 4, 54, 88
8, 82794, Note_off_c, 4, 54, 0
8, 82800, Note_on_c, 4, 53, 88
8, 82916, Note_off_c, 4, 53, 0
8, 82920, Note_on_c, 4, 51, 88
8, 83036, Note_off_c, 4, 51, 0
8, 83040, Note_on_c, 4, 53, 88
8, 83510, Note_off_c, 4, 53, 0
8, 83520, Note_on_c, 4, 54, 88
8, 83990, Note_off_c, 4, 54, 0
8, 85680, Note_on_c, 4, 44, 88
8, 85914, Note_off_c, 4, 44, 0
8, 85920, Note_on_c, 4, 49, 88
8, 86130, Note_off_c, 4, 49, 0
8, 86160, Note_on_c, 4, 49, 88
8, 86394, Note_off_c, 4, 49, 0
8, 86400, Note_on_c, 4, 49, 88
8, 86634, Note_off_c, 4, 49, 0
8, 86640, Note_on_c, 4, 48, 88
8, 86756, Note_off_c, 4, 48, 0
8, 86760, Note_on_c, 4, 46, 88
8, 86876, Note_off_c, 4, 46, 0
8, 86880, Note_on_c, 4, 48, 88
8, 86996, Note_off_c, 4, 48, 0
8, 87000, Note_on_c, 4, 49, 88
8, 87116, Note_off_c, 4, 49, 0
8, 87120, Note_on_c, 4, 51, 88
8, 87236, Note_off_c, 4, 51, 0
8, 87240, Note_on_c, 4, 48, 88
8, 87356, Note_off_c, 4, 48, 0
8, 87360, Note_on_c, 4, 40, 88
8, 87830, Note_off_c, 4, 40, 0
8, 88080, Note_on_c, 4, 45, 88
8, 88314, Note_off_c, 4, 45, 0
8, 88320, Note_on_c, 4, 39, 88
8, 88790, Note_off_c, 4, 39, 0
8, 89040, Note_on_c, 4, 44, 88
8, 89274, Note_off_c, 4, 44, 0
8, 89280, Note_on_c, 4, 37, 88
8, 89514, Note_off_c, 4, 37, 0
8, 92640, Note_on_c, 4, 49, 88
8, 93110, Note_off_c, 4, 49, 0
8, 93120, Note_on_c, 4, 48, 88
8, 93590, Note_off_c, 4, 48, 0
8, 93600, Note_on_c, 4, 52, 88
8, 94070, Note_off_c, 4, 52, 0
8, 94080, Note_on_c, 4, 51, 88
8, 95025, Note_off_c, 4, 51, 0
8, 95040, Note_on_c, 4, 49, 88
8, 95274, Note_off_c, 4, 49, 0
8, 95280, Note_on_c, 4, 52, 88
8, 95514, Note_off_c, 4, 52, 0
8, 95520, Note_on_c, 4, 57, 88
8, 95730, Note_off_c, 4, 57, 0
8, 95760, Note_on_c, 4, 57, 88
8, 95994, Note_off_c, 4, 57, 0
8, 96000, Note_on_c, 4, 57, 88
8, 96234, Note_off_c, 4, 57, 0
8, 96240, Note_on_c, 4, 56, 88
8, 96356, Note_off_c, 4, 56, 0
8, 96360, Note_on_c, 4, 54, 88
8, 96476, Note_off_c, 4, 54, 0
8, 96480, Note_on_c, 4, 52, 88
8, 96596, Note_off_c, 4, 52, 0
8, 96600, Note_on_c, 4, 51, 88
8, 96716, Note_off_c, 4, 51, 0
8, 96720, Note_on_c, 4, 49, 88
8, 96836, Note_off_c, 4, 49, 0
8, 96840, Note_on_c, 4, 47, 88
8, 96956, Note_off_c, 4, 47, 0
8, 96960, Note_on_c, 4, 46, 88
8, 97430, Note_off_c, 4, 46, 0
8, 97440, Note_on_c, 4, 45, 88
8, 98154, Note_off_c, 4, 45, 0
8, 98160, Note_on_c, 4, 44, 88
8, 98276, Note_off_c, 4, 44, 0
8, 98280, Note_on_c, 4, 42, 88
8, 98396, Note_off_c, 4, 42, 0
8, 98400, Note_on_c, 4, 41, 88
8, 98870, Note_off_c, 4, 41, 0
8, 98880, Note_on_c, 4, 42, 88
8, 99825, Note_off_c, 4, 42, 0
8, 99840, Note_on_c, 4, 44, 88
8, 103665, Note_off_c, 4, 44, 0
8, 103680, Note_on_c, 4, 43, 88
8, 104625, Note_off_c, 4, 43, 0
8, 104640, Note_on_c, 4, 44, 88
8, 106545, Note_off_c, 4, 44, 0
8, 106560, Note_on_c, 4, 49, 88
8, 110385, Note_off_c, 4, 49, 0
8, 110385, End_track
0, 0, End_of_file
