0, 0, Header, 1, 7, 240
1, 0, Start_track
1, 0, Time_signature, 6, 3, 24, 8
1, 0, Tempo, 1052631
1, 0, SMPTE_offset, 64, 0, 0, 0, 93
1, 0, End_track
2, 0, Start_track
2, 0, Title_t, "(C) & (P) 1993"
2, 127, End_track
3, 0, Start_track
3, 0, Title_t, "CCARH,Stanford"
3, 0, End_track
4, 0, Start_track
4, 0, Title_t, "Track 1"
4, 0, Program_c, 0, 6
4, 0, Note_on_c, 0, 68, 88
4, 58, Note_off_c, 0, 68, 0
4, 60, Note_on_c, 0, 70, 88
4, 118, Note_off_c, 0, 70, 0
4, 120, Note_on_c, 0, 71, 88
4, 178, Note_off_c, 0, 71, 0
4, 180, Note_on_c, 0, 68, 88
4, 238, Note_off_c, 0, 68, 0
4, 240, Note_on_c, 0, 70, 88
4, 298, Note_off_c, 0, 70, 0
4, 300, Note_on_c, 0, 73, 88
4, 358, Note_off_c, 0, 73, 0
4, 360, Note_on_c, 0, 76, 88
4, 476, Note_off_c, 0, 76, 0
4, 480, Note_on_c, 0, 75, 88
4, 596, Note_off_c, 0, 75, 0
4, 600, Note_on_c, 0, 73, 88
4, 716, Note_off_c, 0, 73, 0
4, 720, Note_on_c, 0, 71, 88
4, 836, Note_off_c, 0, 71, 0
4, 840, Note_on_c, 0, 80, 88
4, 1066, Note_off_c, 0, 80, 0
4, 1080, Note_on_c, 0, 80, 88
4, 1116, Note_off_c, 0, 80, 0
4, 1118, Note_on_c, 0, 79, 88
4, 1147, Note_off_c, 0, 79, 0
4, 1148, Note_on_c, 0, 80, 88
4, 1177, Note_off_c, 0, 80, 0
4, 1178, Note_on_c, 0, 79, 88
4, 1207, Note_off_c, 0, 79, 0
4, 1208, Note_on_c, 0, 80, 88
4, 1237, Note_off_c, 0, 80, 0
4, 1238, Note_on_c, 0, 79, 88
4, 1259, Note_off_c, 0, 79, 0
4, 1260, Note_on_c, 0, 80, 88
4, 1282, Note_off_c, 0, 80, 0
4, 1283, Note_on_c, 0, 79, 88
4, 1304, Note_off_c, 0, 79, 0
4, 1305, Note_on_c, 0, 80, 88
4, 1327, Note_off_c, 0, 80, 0
4, 1328, Note_on_c, 0, 79, 88
4, 1349, Note_off_c, 0, 79, 0
4, 1350, Note_on_c, 0, 80, 88
4, 1372, Note_off_c, 0, 80, 0
4, 1373, Note_on_c, 0, 79, 88
4, 1438, Note_off_c, 0, 79, 0
4, 1440, Note_on_c, 0, 80, 88
4, 1498, Note_off_c, 0, 80, 0
4, 1500, Note_on_c, 0, 82, 88
4, 1558, Note_off_c, 0, 82, 0
4, 1560, Note_on_c, 0, 83, 88
4, 1618, Note_off_c, 0, 83, 0
4, 1620, Note_on_c, 0, 75, 88
4, 1678, Note_off_c, 0, 75, 0
4, 1680, Note_on_c, 0, 76, 88
4, 1738, Note_off_c, 0, 76, 0
4, 1740, Note_on_c, 0, 80, 88
4, 1798, Note_off_c, 0, 80, 0
4, 1800, Note_on_c, 0, 78, 88
4, 1858, Note_off_c, 0, 78, 0
4, 1860, Note_on_c, 0, 80, 88
4, 1918, Note_off_c, 0, 80, 0
4, 1920, Note_on_c, 0, 82, 88
4, 1978, Note_off_c, 0, 82, 0
4, 1980, Note_on_c, 0, 73, 88
4, 2038, Note_off_c, 0, 73, 0
4, 2040, Note_on_c, 0, 75, 88
4, 2098, Note_off_c, 0, 75, 0
4, 2100, Note_on_c, 0, 78, 88
4, 2158, Note_off_c, 0, 78, 0
4, 2160, Note_on_c, 0, 76, 88
4, 2218, Note_off_c, 0, 76, 0
4, 2220, Note_on_c, 0, 78, 88
4, 2278, Note_off_c, 0, 78, 0
4, 2280, Note_on_c, 0, 80, 88
4, 2338, Note_off_c, 0, 80, 0
4, 2340, Note_on_c, 0, 71, 88
4, 2398, Note_off_c, 0, 71, 0
4, 2400, Note_on_c, 0, 73, 88
4, 2458, Note_off_c, 0, 73, 0
4, 2460, Note_on_c, 0, 76, 88
4, 2518, Note_off_c, 0, 76, 0
4, 2520, Note_on_c, 0, 70, 88
4, 2578, Note_off_c, 0, 70, 0
4, 2580, Note_on_c, 0, 71, 88
4, 2638, Note_off_c, 0, 71, 0
4, 2640, Note_on_c, 0, 73, 88
4, 2698, Note_off_c, 0, 73, 0
4, 2700, Note_on_c, 0, 66, 88
4, 2758, Note_off_c, 0, 66, 0
4, 2760, Note_on_c, 0, 73, 88
4, 2818, Note_off_c, 0, 73, 0
4, 2820, Note_on_c, 0, 76, 88
4, 2878, Note_off_c, 0, 76, 0
4, 2880, Note_on_c, 0, 75, 88
4, 2938, Note_off_c, 0, 75, 0
4, 2940, Note_on_c, 0, 76, 88
4, 2998, Note_off_c, 0, 76, 0
4, 3000, Note_on_c, 0, 78, 88
4, 3058, Note_off_c, 0, 78, 0
4, 3060, Note_on_c, 0, 75, 88
4, 3118, Note_off_c, 0, 75, 0
4, 3120, Note_on_c, 0, 76, 88
4, 3178, Note_off_c, 0, 76, 0
4, 3180, Note_on_c, 0, 80, 88
4, 3238, Note_off_c, 0, 80, 0
4, 3240, Note_on_c, 0, 71, 88
4, 3298, Note_off_c, 0, 71, 0
4, 3300, Note_on_c, 0, 70, 88
4, 3358, Note_off_c, 0, 70, 0
4, 3360, Note_on_c, 0, 71, 88
4, 3418, Note_off_c, 0, 71, 0
4, 3420, Note_on_c, 0, 70, 88
4, 3478, Note_off_c, 0, 70, 0
4, 3480, Note_on_c, 0, 71, 88
4, 3538, Note_off_c, 0, 71, 0
4, 3540, Note_on_c, 0, 73, 88
4, 3716, Note_off_c, 0, 73, 0
4, 3720, Note_on_c, 0, 71, 88
4, 4006, Note_off_c, 0, 71, 0
4, 4020, Note_on_c, 0, 71, 88
4, 4078, Note_off_c, 0, 71, 0
4, 4080, Note_on_c, 0, 70, 88
4, 4138, Note_off_c, 0, 70, 0
4, 4140, Note_on_c, 0, 71, 88
4, 4198, Note_off_c, 0, 71, 0
4, 4200, Note_on_c, 0, 73, 88
4, 4258, Note_off_c, 0, 73, 0
4, 4260, Note_on_c, 0, 70, 88
4, 4318, Note_off_c, 0, 70, 0
4, 4320, Note_on_c, 0, 66, 88
4, 4732, Note_off_c, 0, 66, 0
4, 4740, Note_on_c, 0, 65, 88
4, 4798, Note_off_c, 0, 65, 0
4, 4800, Note_on_c, 0, 66, 88
4, 4858, Note_off_c, 0, 66, 0
4, 4860, Note_on_c, 0, 65, 88
4, 4918, Note_off_c, 0, 65, 0
4, 4920, Note_on_c, 0, 66, 88
4, 4978, Note_off_c, 0, 66, 0
4, 4980, Note_on_c, 0, 68, 88
4, 5038, Note_off_c, 0, 68, 0
4, 5040, Note_on_c, 0, 61, 88
4, 5098, Note_off_c, 0, 61, 0
4, 5100, Note_on_c, 0, 63, 88
4, 5158, Note_off_c, 0, 63, 0
4, 5160, Note_on_c, 0, 64, 88
4, 5218, Note_off_c, 0, 64, 0
4, 5220, Note_on_c, 0, 61, 88
4, 5278, Note_off_c, 0, 61, 0
4, 5280, Note_on_c, 0, 63, 88
4, 5338, Note_off_c, 0, 63, 0
4, 5340, Note_on_c, 0, 66, 88
4, 5398, Note_off_c, 0, 66, 0
4, 5400, Note_on_c, 0, 69, 88
4, 5516, Note_off_c, 0, 69, 0
4, 5520, Note_on_c, 0, 68, 88
4, 5636, Note_off_c, 0, 68, 0
4, 5640, Note_on_c, 0, 66, 88
4, 5756, Note_off_c, 0, 66, 0
4, 5760, Note_on_c, 0, 64, 88
4, 5994, Note_off_c, 0, 64, 0
4, 6000, Note_on_c, 0, 73, 88
4, 6116, Note_off_c, 0, 73, 0
4, 6120, Note_on_c, 0, 70, 88
4, 6538, Note_off_c, 0, 70, 0
4, 6540, Note_on_c, 0, 68, 88
4, 6598, Note_off_c, 0, 68, 0
4, 6600, Note_on_c, 0, 67, 88
4, 6658, Note_off_c, 0, 67, 0
4, 6660, Note_on_c, 0, 70, 88
4, 6718, Note_off_c, 0, 70, 0
4, 6720, Note_on_c, 0, 68, 88
4, 6778, Note_off_c, 0, 68, 0
4, 6780, Note_on_c, 0, 65, 88
4, 6838, Note_off_c, 0, 65, 0
4, 6840, Note_on_c, 0, 62, 88
4, 6956, Note_off_c, 0, 62, 0
4, 6960, Note_on_c, 0, 63, 88
4, 7076, Note_off_c, 0, 63, 0
4, 7080, Note_on_c, 0, 65, 88
4, 7196, Note_off_c, 0, 65, 0
4, 7200, Note_on_c, 0, 66, 88
4, 7553, Note_off_c, 0, 66, 0
4, 7560, Note_on_c, 0, 65, 88
4, 7913, Note_off_c, 0, 65, 0
4, 7920, Note_on_c, 0, 63, 88
4, 8086, Note_off_c, 0, 63, 0
4, 8100, Note_on_c, 0, 63, 88
4, 8158, Note_off_c, 0, 63, 0
4, 8160, Note_on_c, 0, 65, 88
4, 8218, Note_off_c, 0, 65, 0
4, 8220, Note_on_c, 0, 66, 88
4, 8278, Note_off_c, 0, 66, 0
4, 8280, Note_on_c, 0, 68, 88
4, 8455, Note_off_c, 0, 68, 0
4, 8460, Note_on_c, 0, 62, 88
4, 8518, Note_off_c, 0, 62, 0
4, 8520, Note_on_c, 0, 65, 88
4, 8578, Note_off_c, 0, 65, 0
4, 8580, Note_on_c, 0, 68, 88
4, 8638, Note_off_c, 0, 68, 0
4, 8640, Note_on_c, 0, 66, 88
4, 8806, Note_off_c, 0, 66, 0
4, 8820, Note_on_c, 0, 66, 88
4, 8878, Note_off_c, 0, 66, 0
4, 8880, Note_on_c, 0, 68, 88
4, 8938, Note_off_c, 0, 68, 0
4, 8940, Note_on_c, 0, 71, 88
4, 8998, Note_off_c, 0, 71, 0
4, 9000, Note_on_c, 0, 66, 88
4, 9036, Note_off_c, 0, 66, 0
4, 9038, Note_on_c, 0, 65, 88
4, 9067, Note_off_c, 0, 65, 0
4, 9068, Note_on_c, 0, 66, 88
4, 9097, Note_off_c, 0, 66, 0
4, 9098, Note_on_c, 0, 65, 88
4, 9127, Note_off_c, 0, 65, 0
4, 9128, Note_on_c, 0, 66, 88
4, 9149, Note_off_c, 0, 66, 0
4, 9150, Note_on_c, 0, 65, 88
4, 9172, Note_off_c, 0, 65, 0
4, 9173, Note_on_c, 0, 66, 88
4, 9194, Note_off_c, 0, 66, 0
4, 9195, Note_on_c, 0, 65, 88
4, 9217, Note_off_c, 0, 65, 0
4, 9218, Note_on_c, 0, 66, 88
4, 9239, Note_off_c, 0, 66, 0
4, 9240, Note_on_c, 0, 65, 88
4, 9356, Note_off_c, 0, 65, 0
4, 9360, Note_on_c, 0, 63, 88
4, 9418, Note_off_c, 0, 63, 0
4, 9420, Note_on_c, 0, 65, 88
4, 9478, Note_off_c, 0, 65, 0
4, 9480, Note_on_c, 0, 66, 88
4, 9538, Note_off_c, 0, 66, 0
4, 9540, Note_on_c, 0, 63, 88
4, 9598, Note_off_c, 0, 63, 0
4, 9600, Note_on_c, 0, 65, 88
4, 9658, Note_off_c, 0, 65, 0
4, 9660, Note_on_c, 0, 68, 88
4, 9718, Note_off_c, 0, 68, 0
4, 9720, Note_on_c, 0, 71, 88
4, 9836, Note_off_c, 0, 71, 0
4, 9840, Note_on_c, 0, 70, 88
4, 9956, Note_off_c, 0, 70, 0
4, 9960, Note_on_c, 0, 68, 88
4, 10076, Note_off_c, 0, 68, 0
4, 10080, Note_on_c, 0, 66, 88
4, 10374, Note_off_c, 0, 66, 0
4, 10380, Note_on_c, 0, 68, 88
4, 10438, Note_off_c, 0, 68, 0
4, 10440, Note_on_c, 0, 70, 88
4, 10498, Note_off_c, 0, 70, 0
4, 10500, Note_on_c, 0, 71, 88
4, 10558, Note_off_c, 0, 71, 0
4, 10560, Note_on_c, 0, 73, 88
4, 10618, Note_off_c, 0, 73, 0
4, 10620, Note_on_c, 0, 70, 88
4, 10678, Note_off_c, 0, 70, 0
4, 10680, Note_on_c, 0, 71, 88
4, 10738, Note_off_c, 0, 71, 0
4, 10740, Note_on_c, 0, 73, 88
4, 10798, Note_off_c, 0, 73, 0
4, 10800, Note_on_c, 0, 75, 88
4, 10858, Note_off_c, 0, 75, 0
4, 10860, Note_on_c, 0, 73, 88
4, 10918, Note_off_c, 0, 73, 0
4, 10920, Note_on_c, 0, 71, 88
4, 10978, Note_off_c, 0, 71, 0
4, 10980, Note_on_c, 0, 75, 88
4, 11038, Note_off_c, 0, 75, 0
4, 11040, Note_on_c, 0, 73, 88
4, 11098, Note_off_c, 0, 73, 0
4, 11100, Note_on_c, 0, 70, 88
4, 11158, Note_off_c, 0, 70, 0
4, 11160, Note_on_c, 0, 67, 88
4, 11276, Note_off_c, 0, 67, 0
4, 11280, Note_on_c, 0, 68, 88
4, 11396, Note_off_c, 0, 68, 0
4, 11400, Note_on_c, 0, 70, 88
4, 11516, Note_off_c, 0, 70, 0
4, 11520, Note_on_c, 0, 71, 88
4, 11695, Note_off_c, 0, 71, 0
4, 11700, Note_on_c, 0, 70, 88
4, 11758, Note_off_c, 0, 70, 0
4, 11760, Note_on_c, 0, 72, 88
4, 11818, Note_off_c, 0, 72, 0
4, 11820, Note_on_c, 0, 73, 88
4, 11878, Note_off_c, 0, 73, 0
4, 11880, Note_on_c, 0, 75, 88
4, 12233, Note_off_c, 0, 75, 0
4, 12240, Note_on_c, 0, 73, 88
4, 12298, Note_off_c, 0, 73, 0
4, 12300, Note_on_c, 0, 75, 88
4, 12358, Note_off_c, 0, 75, 0
4, 12360, Note_on_c, 0, 76, 88
4, 12418, Note_off_c, 0, 76, 0
4, 12420, Note_on_c, 0, 73, 88
4, 12478, Note_off_c, 0, 73, 0
4, 12480, Note_on_c, 0, 75, 88
4, 12538, Note_off_c, 0, 75, 0
4, 12540, Note_on_c, 0, 78, 88
4, 12598, Note_off_c, 0, 78, 0
4, 12600, Note_on_c, 0, 81, 88
4, 12716, Note_off_c, 0, 81, 0
4, 12720, Note_on_c, 0, 80, 88
4, 12836, Note_off_c, 0, 80, 0
4, 12840, Note_on_c, 0, 78, 88
4, 12956, Note_off_c, 0, 78, 0
4, 12960, Note_on_c, 0, 76, 88
4, 13430, Note_off_c, 0, 76, 0
4, 13440, Note_on_c, 0, 78, 88
4, 13556, Note_off_c, 0, 78, 0
4, 13560, Note_on_c, 0, 76, 88
4, 13676, Note_off_c, 0, 76, 0
4, 13680, Note_on_c, 0, 76, 88
4, 13716, Note_off_c, 0, 76, 0
4, 13718, Note_on_c, 0, 75, 88
4, 13739, Note_off_c, 0, 75, 0
4, 13740, Note_on_c, 0, 76, 88
4, 13762, Note_off_c, 0, 76, 0
4, 13763, Note_on_c, 0, 75, 88
4, 13784, Note_off_c, 0, 75, 0
4, 13785, Note_on_c, 0, 76, 88
4, 13800, Note_on_c, 0, 75, 88
4, 13800, Note_off_c, 0, 76, 0
4, 14153, Note_off_c, 0, 75, 0
4, 14160, Note_on_c, 0, 76, 88
4, 14276, Note_off_c, 0, 76, 0
4, 14280, Note_on_c, 0, 75, 88
4, 14396, Note_off_c, 0, 75, 0
4, 14400, Note_on_c, 0, 75, 88
4, 14436, Note_off_c, 0, 75, 0
4, 14438, Note_on_c, 0, 73, 88
4, 14459, Note_off_c, 0, 73, 0
4, 14460, Note_on_c, 0, 75, 88
4, 14482, Note_off_c, 0, 75, 0
4, 14483, Note_on_c, 0, 73, 88
4, 14504, Note_off_c, 0, 73, 0
4, 14505, Note_on_c, 0, 75, 88
4, 14520, Note_on_c, 0, 73, 88
4, 14520, Note_off_c, 0, 75, 0
4, 14873, Note_off_c, 0, 73, 0
4, 14880, Note_on_c, 0, 75, 88
4, 14996, Note_off_c, 0, 75, 0
4, 15000, Note_on_c, 0, 73, 88
4, 15116, Note_off_c, 0, 73, 0
4, 15120, Note_on_c, 0, 71, 88
4, 15178, Note_off_c, 0, 71, 0
4, 15180, Note_on_c, 0, 70, 88
4, 15238, Note_off_c, 0, 70, 0
4, 15240, Note_on_c, 0, 68, 88
4, 15298, Note_off_c, 0, 68, 0
4, 15300, Note_on_c, 0, 71, 88
4, 15358, Note_off_c, 0, 71, 0
4, 15360, Note_on_c, 0, 73, 88
4, 15418, Note_off_c, 0, 73, 0
4, 15420, Note_on_c, 0, 76, 88
4, 15478, Note_off_c, 0, 76, 0
4, 15480, Note_on_c, 0, 70, 88
4, 15538, Note_off_c, 0, 70, 0
4, 15540, Note_on_c, 0, 68, 88
4, 15598, Note_off_c, 0, 68, 0
4, 15600, Note_on_c, 0, 66, 88
4, 15658, Note_off_c, 0, 66, 0
4, 15660, Note_on_c, 0, 70, 88
4, 15718, Note_off_c, 0, 70, 0
4, 15720, Note_on_c, 0, 71, 88
4, 15778, Note_off_c, 0, 71, 0
4, 15780, Note_on_c, 0, 75, 88
4, 15838, Note_off_c, 0, 75, 0
4, 15840, Note_on_c, 0, 68, 88
4, 15898, Note_off_c, 0, 68, 0
4, 15900, Note_on_c, 0, 75, 88
4, 15958, Note_off_c, 0, 75, 0
4, 15960, Note_on_c, 0, 73, 88
4, 16018, Note_off_c, 0, 73, 0
4, 16020, Note_on_c, 0, 71, 88
4, 16078, Note_off_c, 0, 71, 0
4, 16080, Note_on_c, 0, 70, 88
4, 16138, Note_off_c, 0, 70, 0
4, 16140, Note_on_c, 0, 68, 88
4, 16198, Note_off_c, 0, 68, 0
4, 16200, Note_on_c, 0, 67, 88
4, 16258, Note_off_c, 0, 67, 0
4, 16260, Note_on_c, 0, 68, 88
4, 16318, Note_off_c, 0, 68, 0
4, 16320, Note_on_c, 0, 70, 88
4, 16378, Note_off_c, 0, 70, 0
4, 16380, Note_on_c, 0, 67, 88
4, 16438, Note_off_c, 0, 67, 0
4, 16440, Note_on_c, 0, 68, 88
4, 16498, Note_off_c, 0, 68, 0
4, 16500, Note_on_c, 0, 71, 88
4, 16558, Note_off_c, 0, 71, 0
4, 16560, Note_on_c, 0, 76, 88
4, 16666, Note_off_c, 0, 76, 0
4, 16680, Note_on_c, 0, 76, 88
4, 16786, Note_off_c, 0, 76, 0
4, 16800, Note_on_c, 0, 76, 88
4, 16906, Note_off_c, 0, 76, 0
4, 16920, Note_on_c, 0, 76, 88
4, 17026, Note_off_c, 0, 76, 0
4, 17040, Note_on_c, 0, 76, 88
4, 17146, Note_off_c, 0, 76, 0
4, 17160, Note_on_c, 0, 76, 88
4, 17276, Note_off_c, 0, 76, 0
4, 17280, Note_on_c, 0, 76, 88
4, 17692, Note_off_c, 0, 76, 0
4, 17700, Note_on_c, 0, 75, 88
4, 17758, Note_off_c, 0, 75, 0
4, 17760, Note_on_c, 0, 73, 88
4, 17818, Note_off_c, 0, 73, 0
4, 17820, Note_on_c, 0, 82, 88
4, 17878, Note_off_c, 0, 82, 0
4, 17880, Note_on_c, 0, 76, 88
4, 17938, Note_off_c, 0, 76, 0
4, 17940, Note_on_c, 0, 73, 88
4, 17998, Note_off_c, 0, 73, 0
4, 18000, Note_on_c, 0, 75, 88
4, 18058, Note_off_c, 0, 75, 0
4, 18060, Note_on_c, 0, 73, 88
4, 18118, Note_off_c, 0, 73, 0
4, 18120, Note_on_c, 0, 71, 88
4, 18178, Note_off_c, 0, 71, 0
4, 18180, Note_on_c, 0, 75, 88
4, 18238, Note_off_c, 0, 75, 0
4, 18240, Note_on_c, 0, 73, 88
4, 18298, Note_off_c, 0, 73, 0
4, 18300, Note_on_c, 0, 70, 88
4, 18358, Note_off_c, 0, 70, 0
4, 18360, Note_on_c, 0, 71, 88
4, 18418, Note_off_c, 0, 71, 0
4, 18420, Note_on_c, 0, 70, 88
4, 18478, Note_off_c, 0, 70, 0
4, 18480, Note_on_c, 0, 68, 88
4, 18538, Note_off_c, 0, 68, 0
4, 18540, Note_on_c, 0, 71, 88
4, 18598, Note_off_c, 0, 71, 0
4, 18600, Note_on_c, 0, 70, 88
4, 18658, Note_off_c, 0, 70, 0
4, 18660, Note_on_c, 0, 67, 88
4, 18718, Note_off_c, 0, 67, 0
4, 18720, Note_on_c, 0, 68, 88
4, 20868, Note_off_c, 0, 68, 0
4, 20868, End_track
5, 0, Start_track
5, 0, Title_t, "Track 2"
5, 0, Program_c, 1, 6
5, 720, Note_on_c, 1, 71, 88
5, 836, Note_off_c, 1, 71, 0
5, 840, Note_on_c, 1, 75, 88
5, 956, Note_off_c, 1, 75, 0
5, 960, Note_on_c, 1, 73, 88
5, 1194, Note_off_c, 1, 73, 0
5, 1200, Note_on_c, 1, 71, 88
5, 1316, Note_off_c, 1, 71, 0
5, 1320, Note_on_c, 1, 70, 88
5, 1436, Note_off_c, 1, 70, 0
5, 1440, Note_on_c, 1, 75, 88
5, 1556, Note_off_c, 1, 75, 0
5, 19860, Note_on_c, 1, 64, 88
5, 19918, Note_off_c, 1, 64, 0
5, 19920, Note_on_c, 1, 63, 88
5, 19978, Note_off_c, 1, 63, 0
5, 19980, Note_on_c, 1, 61, 88
5, 20038, Note_off_c, 1, 61, 0
5, 20040, Note_on_c, 1, 60, 88
5, 20098, Note_off_c, 1, 60, 0
5, 20100, Note_on_c, 1, 61, 88
5, 20158, Note_off_c, 1, 61, 0
5, 20160, Note_on_c, 1, 63, 88
5, 20868, Note_off_c, 1, 63, 0
5, 20868, End_track
6, 0, Start_track
6, 0, Title_t, "Track 3"
6, 0, Program_c, 2, 6
6, 0, Note_on_c, 2, 59, 88
6, 116, Note_off_c, 2, 59, 0
6, 120, Note_on_c, 2, 63, 88
6, 236, Note_off_c, 2, 63, 0
6, 240, Note_on_c, 2, 61, 88
6, 474, Note_off_c, 2, 61, 0
6, 480, Note_on_c, 2, 59, 88
6, 596, Note_off_c, 2, 59, 0
6, 600, Note_on_c, 2, 58, 88
6, 716, Note_off_c, 2, 58, 0
6, 720, Note_on_c, 2, 71, 88
6, 954, Note_off_c, 2, 71, 0
6, 960, Note_on_c, 2, 70, 88
6, 1194, Note_off_c, 2, 70, 0
6, 1200, Note_on_c, 2, 63, 88
6, 1556, Note_off_c, 2, 63, 0
6, 1560, Note_on_c, 2, 68, 88
6, 1676, Note_off_c, 2, 68, 0
6, 1680, Note_on_c, 2, 61, 88
6, 1914, Note_off_c, 2, 61, 0
6, 1920, Note_on_c, 2, 66, 88
6, 2036, Note_off_c, 2, 66, 0
6, 2040, Note_on_c, 2, 59, 88
6, 2276, Note_off_c, 2, 59, 0
6, 2280, Note_on_c, 2, 64, 88
6, 2633, Note_off_c, 2, 64, 0
6, 2640, Note_on_c, 2, 63, 88
6, 2756, Note_off_c, 2, 63, 0
6, 2760, Note_on_c, 2, 61, 88
6, 2876, Note_off_c, 2, 61, 0
6, 2880, Note_on_c, 2, 59, 88
6, 2938, Note_off_c, 2, 59, 0
6, 2940, Note_on_c, 2, 61, 88
6, 2998, Note_off_c, 2, 61, 0
6, 3000, Note_on_c, 2, 63, 88
6, 3058, Note_off_c, 2, 63, 0
6, 3060, Note_on_c, 2, 59, 88
6, 3118, Note_off_c, 2, 59, 0
6, 3120, Note_on_c, 2, 61, 88
6, 3178, Note_off_c, 2, 61, 0
6, 3180, Note_on_c, 2, 64, 88
6, 3238, Note_off_c, 2, 64, 0
6, 3240, Note_on_c, 2, 68, 88
6, 3356, Note_off_c, 2, 68, 0
6, 3360, Note_on_c, 2, 66, 88
6, 3476, Note_off_c, 2, 66, 0
6, 3480, Note_on_c, 2, 64, 88
6, 3596, Note_off_c, 2, 64, 0
6, 3600, Note_on_c, 2, 63, 88
6, 3658, Note_off_c, 2, 63, 0
6, 3660, Note_on_c, 2, 64, 88
6, 3718, Note_off_c, 2, 64, 0
6, 3720, Note_on_c, 2, 66, 88
6, 3778, Note_off_c, 2, 66, 0
6, 3780, Note_on_c, 2, 63, 88
6, 3838, Note_off_c, 2, 63, 0
6, 3840, Note_on_c, 2, 64, 88
6, 3898, Note_off_c, 2, 64, 0
6, 3900, Note_on_c, 2, 68, 88
6, 3958, Note_off_c, 2, 68, 0
6, 3960, Note_on_c, 2, 61, 88
6, 4436, Note_off_c, 2, 61, 0
6, 4440, Note_on_c, 2, 59, 88
6, 4498, Note_off_c, 2, 59, 0
6, 4500, Note_on_c, 2, 57, 88
6, 4558, Note_off_c, 2, 57, 0
6, 4560, Note_on_c, 2, 61, 88
6, 4618, Note_off_c, 2, 61, 0
6, 4620, Note_on_c, 2, 59, 88
6, 4678, Note_off_c, 2, 59, 0
6, 4680, Note_on_c, 2, 62, 88
6, 4796, Note_off_c, 2, 62, 0
6, 4800, Note_on_c, 2, 61, 88
6, 4916, Note_off_c, 2, 61, 0
6, 4920, Note_on_c, 2, 59, 88
6, 5156, Note_off_c, 2, 59, 0
6, 5160, Note_on_c, 2, 57, 88
6, 5218, Note_off_c, 2, 57, 0
6, 5220, Note_on_c, 2, 56, 88
6, 5278, Note_off_c, 2, 56, 0
6, 5280, Note_on_c, 2, 57, 88
6, 5338, Note_off_c, 2, 57, 0
6, 5340, Note_on_c, 2, 54, 88
6, 5398, Note_off_c, 2, 54, 0
6, 5400, Note_on_c, 2, 60, 88
6, 5516, Note_off_c, 2, 60, 0
6, 5520, Note_on_c, 2, 61, 88
6, 5636, Note_off_c, 2, 61, 0
6, 5640, Note_on_c, 2, 63, 88
6, 5756, Note_off_c, 2, 63, 0
6, 5760, Note_on_c, 2, 56, 88
6, 5818, Note_off_c, 2, 56, 0
6, 5820, Note_on_c, 2, 58, 88
6, 5878, Note_off_c, 2, 58, 0
6, 5880, Note_on_c, 2, 59, 88
6, 5938, Note_off_c, 2, 59, 0
6, 5940, Note_on_c, 2, 56, 88
6, 5998, Note_off_c, 2, 56, 0
6, 6000, Note_on_c, 2, 58, 88
6, 6058, Note_off_c, 2, 58, 0
6, 6060, Note_on_c, 2, 61, 88
6, 6118, Note_off_c, 2, 61, 0
6, 6120, Note_on_c, 2, 64, 88
6, 6236, Note_off_c, 2, 64, 0
6, 6240, Note_on_c, 2, 63, 88
6, 6356, Note_off_c, 2, 63, 0
6, 6360, Note_on_c, 2, 61, 88
6, 6476, Note_off_c, 2, 61, 0
6, 6480, Note_on_c, 2, 59, 88
6, 6833, Note_off_c, 2, 59, 0
6, 6840, Note_on_c, 2, 58, 88
6, 7316, Note_off_c, 2, 58, 0
6, 7320, Note_on_c, 2, 63, 88
6, 7436, Note_off_c, 2, 63, 0
6, 7440, Note_on_c, 2, 56, 88
6, 7674, Note_off_c, 2, 56, 0
6, 7680, Note_on_c, 2, 61, 88
6, 7796, Note_off_c, 2, 61, 0
6, 7800, Note_on_c, 2, 54, 88
6, 8036, Note_off_c, 2, 54, 0
6, 8040, Note_on_c, 2, 59, 88
6, 8326, Note_off_c, 2, 59, 0
6, 8340, Note_on_c, 2, 59, 88
6, 8398, Note_off_c, 2, 59, 0
6, 8400, Note_on_c, 2, 58, 88
6, 8686, Note_off_c, 2, 58, 0
6, 8700, Note_on_c, 2, 58, 88
6, 8758, Note_off_c, 2, 58, 0
6, 8760, Note_on_c, 2, 63, 88
6, 8994, Note_off_c, 2, 63, 0
6, 9000, Note_on_c, 2, 62, 88
6, 9353, Note_off_c, 2, 62, 0
6, 9360, Note_on_c, 2, 63, 88
6, 9476, Note_off_c, 2, 63, 0
6, 10080, Note_on_c, 2, 63, 88
6, 10138, Note_off_c, 2, 63, 0
6, 10140, Note_on_c, 2, 61, 88
6, 10198, Note_off_c, 2, 61, 0
6, 10200, Note_on_c, 2, 59, 88
6, 10258, Note_off_c, 2, 59, 0
6, 10260, Note_on_c, 2, 63, 88
6, 10318, Note_off_c, 2, 63, 0
6, 10320, Note_on_c, 2, 61, 88
6, 10378, Note_off_c, 2, 61, 0
6, 10380, Note_on_c, 2, 58, 88
6, 10438, Note_off_c, 2, 58, 0
6, 10440, Note_on_c, 2, 55, 88
6, 10556, Note_off_c, 2, 55, 0
6, 10560, Note_on_c, 2, 56, 88
6, 10676, Note_off_c, 2, 56, 0
6, 10680, Note_on_c, 2, 58, 88
6, 10916, Note_off_c, 2, 58, 0
6, 10920, Note_on_c, 2, 56, 88
6, 11036, Note_off_c, 2, 56, 0
6, 11040, Note_on_c, 2, 64, 88
6, 11274, Note_off_c, 2, 64, 0
6, 11280, Note_on_c, 2, 63, 88
6, 11396, Note_off_c, 2, 63, 0
6, 11400, Note_on_c, 2, 61, 88
6, 11516, Note_off_c, 2, 61, 0
6, 11520, Note_on_c, 2, 59, 88
6, 11578, Note_off_c, 2, 59, 0
6, 11580, Note_on_c, 2, 63, 88
6, 11638, Note_off_c, 2, 63, 0
6, 11640, Note_on_c, 2, 68, 88
6, 11874, Note_off_c, 2, 68, 0
6, 11880, Note_on_c, 2, 66, 88
6, 11938, Note_off_c, 2, 66, 0
6, 11940, Note_on_c, 2, 68, 88
6, 11998, Note_off_c, 2, 68, 0
6, 12000, Note_on_c, 2, 69, 88
6, 12058, Note_off_c, 2, 69, 0
6, 12060, Note_on_c, 2, 66, 88
6, 12118, Note_off_c, 2, 66, 0
6, 12120, Note_on_c, 2, 73, 88
6, 12178, Note_off_c, 2, 73, 0
6, 12180, Note_on_c, 2, 72, 88
6, 12238, Note_off_c, 2, 72, 0
6, 12240, Note_on_c, 2, 73, 88
6, 12593, Note_off_c, 2, 73, 0
6, 12600, Note_on_c, 2, 72, 88
6, 12716, Note_off_c, 2, 72, 0
6, 12720, Note_on_c, 2, 73, 88
6, 12836, Note_off_c, 2, 73, 0
6, 12840, Note_on_c, 2, 75, 88
6, 13076, Note_off_c, 2, 75, 0
6, 13080, Note_on_c, 2, 73, 88
6, 13196, Note_off_c, 2, 73, 0
6, 13200, Note_on_c, 2, 71, 88
6, 13316, Note_off_c, 2, 71, 0
6, 13320, Note_on_c, 2, 70, 88
6, 13796, Note_off_c, 2, 70, 0
6, 13800, Note_on_c, 2, 71, 88
6, 13916, Note_off_c, 2, 71, 0
6, 13920, Note_on_c, 2, 70, 88
6, 14026, Note_off_c, 2, 70, 0
6, 14040, Note_on_c, 2, 70, 88
6, 14076, Note_off_c, 2, 70, 0
6, 14078, Note_on_c, 2, 68, 88
6, 14099, Note_off_c, 2, 68, 0
6, 14100, Note_on_c, 2, 70, 88
6, 14122, Note_off_c, 2, 70, 0
6, 14123, Note_on_c, 2, 68, 88
6, 14144, Note_off_c, 2, 68, 0
6, 14145, Note_on_c, 2, 70, 88
6, 14167, Note_off_c, 2, 70, 0
6, 14168, Note_on_c, 2, 68, 88
6, 14394, Note_off_c, 2, 68, 0
6, 14400, Note_on_c, 2, 68, 88
6, 14516, Note_off_c, 2, 68, 0
6, 14520, Note_on_c, 2, 70, 88
6, 14636, Note_off_c, 2, 70, 0
6, 14640, Note_on_c, 2, 68, 88
6, 14746, Note_off_c, 2, 68, 0
6, 14760, Note_on_c, 2, 68, 88
6, 14796, Note_off_c, 2, 68, 0
6, 14798, Note_on_c, 2, 67, 88
6, 14819, Note_off_c, 2, 67, 0
6, 14820, Note_on_c, 2, 68, 88
6, 14842, Note_off_c, 2, 68, 0
6, 14843, Note_on_c, 2, 67, 88
6, 14864, Note_off_c, 2, 67, 0
6, 14865, Note_on_c, 2, 68, 88
6, 14887, Note_off_c, 2, 68, 0
6, 14888, Note_on_c, 2, 67, 88
6, 15114, Note_off_c, 2, 67, 0
6, 15120, Note_on_c, 2, 68, 88
6, 15236, Note_off_c, 2, 68, 0
6, 16440, Note_on_c, 2, 68, 88
6, 16666, Note_off_c, 2, 68, 0
6, 16680, Note_on_c, 2, 68, 88
6, 16786, Note_off_c, 2, 68, 0
6, 16800, Note_on_c, 2, 68, 88
6, 16916, Note_off_c, 2, 68, 0
6, 16920, Note_on_c, 2, 73, 88
6, 17026, Note_off_c, 2, 73, 0
6, 17040, Note_on_c, 2, 73, 88
6, 17146, Note_off_c, 2, 73, 0
6, 17160, Note_on_c, 2, 73, 88
6, 17276, Note_off_c, 2, 73, 0
6, 17280, Note_on_c, 2, 73, 88
6, 17338, Note_off_c, 2, 73, 0
6, 17340, Note_on_c, 2, 71, 88
6, 17398, Note_off_c, 2, 71, 0
6, 17400, Note_on_c, 2, 70, 88
6, 17458, Note_off_c, 2, 70, 0
6, 17460, Note_on_c, 2, 73, 88
6, 17518, Note_off_c, 2, 73, 0
6, 17520, Note_on_c, 2, 71, 88
6, 17578, Note_off_c, 2, 71, 0
6, 17580, Note_on_c, 2, 68, 88
6, 17638, Note_off_c, 2, 68, 0
6, 17640, Note_on_c, 2, 70, 88
6, 18116, Note_off_c, 2, 70, 0
6, 18120, Note_on_c, 2, 68, 88
6, 18354, Note_off_c, 2, 68, 0
6, 18840, Note_on_c, 2, 66, 88
6, 18956, Note_off_c, 2, 66, 0
6, 18960, Note_on_c, 2, 63, 88
6, 19076, Note_off_c, 2, 63, 0
6, 19080, Note_on_c, 2, 61, 88
6, 19138, Note_off_c, 2, 61, 0
6, 19140, Note_on_c, 2, 60, 88
6, 19198, Note_off_c, 2, 60, 0
6, 19200, Note_on_c, 2, 61, 88
6, 19258, Note_off_c, 2, 61, 0
6, 19260, Note_on_c, 2, 63, 88
6, 19318, Note_off_c, 2, 63, 0
6, 19320, Note_on_c, 2, 64, 88
6, 19378, Note_off_c, 2, 64, 0
6, 19380, Note_on_c, 2, 66, 88
6, 19438, Note_off_c, 2, 66, 0
6, 19440, Note_on_c, 2, 64, 88
6, 19498, Note_off_c, 2, 64, 0
6, 19500, Note_on_c, 2, 63, 88
6, 19558, Note_off_c, 2, 63, 0
6, 19560, Note_on_c, 2, 61, 88
6, 19618, Note_off_c, 2, 61, 0
6, 19620, Note_on_c, 2, 64, 88
6, 19678, Note_off_c, 2, 64, 0
6, 19680, Note_on_c, 2, 61, 88
6, 19738, Note_off_c, 2, 61, 0
6, 19740, Note_on_c, 2, 58, 88
6, 19798, Note_off_c, 2, 58, 0
6, 19800, Note_on_c, 2, 55, 88
6, 19916, Note_off_c, 2, 55, 0
6, 19920, Note_on_c, 2, 56, 88
6, 20036, Note_off_c, 2, 56, 0
6, 20040, Note_on_c, 2, 58, 88
6, 20156, Note_off_c, 2, 58, 0
6, 20160, Note_on_c, 2, 60, 88
6, 20868, Note_off_c, 2, 60, 0
6, 20868, End_track
7, 0, Start_track
7, 0, Title_t, "Track 4"
7, 0, Program_c, 3, 6
7, 0, Note_on_c, 3, 56, 88
7, 346, Note_off_c, 3, 56, 0
7, 360, Note_on_c, 3, 56, 88
7, 396, Note_off_c, 3, 56, 0
7, 398, Note_on_c, 3, 55, 88
7, 427, Note_off_c, 3, 55, 0
7, 428, Note_on_c, 3, 56, 88
7, 457, Note_off_c, 3, 56, 0
7, 458, Note_on_c, 3, 55, 88
7, 487, Note_off_c, 3, 55, 0
7, 488, Note_on_c, 3, 56, 88
7, 517, Note_off_c, 3, 56, 0
7, 518, Note_on_c, 3, 55, 88
7, 539, Note_off_c, 3, 55, 0
7, 540, Note_on_c, 3, 56, 88
7, 562, Note_off_c, 3, 56, 0
7, 563, Note_on_c, 3, 55, 88
7, 584, Note_off_c, 3, 55, 0
7, 585, Note_on_c, 3, 56, 88
7, 607, Note_off_c, 3, 56, 0
7, 608, Note_on_c, 3, 55, 88
7, 629, Note_off_c, 3, 55, 0
7, 630, Note_on_c, 3, 56, 88
7, 652, Note_off_c, 3, 56, 0
7, 653, Note_on_c, 3, 55, 88
7, 718, Note_off_c, 3, 55, 0
7, 720, Note_on_c, 3, 56, 88
7, 778, Note_off_c, 3, 56, 0
7, 780, Note_on_c, 3, 58, 88
7, 838, Note_off_c, 3, 58, 0
7, 840, Note_on_c, 3, 59, 88
7, 898, Note_off_c, 3, 59, 0
7, 900, Note_on_c, 3, 56, 88
7, 958, Note_off_c, 3, 56, 0
7, 960, Note_on_c, 3, 58, 88
7, 1018, Note_off_c, 3, 58, 0
7, 1020, Note_on_c, 3, 61, 88
7, 1078, Note_off_c, 3, 61, 0
7, 1080, Note_on_c, 3, 64, 88
7, 1196, Note_off_c, 3, 64, 0
7, 1200, Note_on_c, 3, 63, 88
7, 1316, Note_off_c, 3, 63, 0
7, 1320, Note_on_c, 3, 61, 88
7, 1436, Note_off_c, 3, 61, 0
7, 1440, Note_on_c, 3, 59, 88
7, 1793, Note_off_c, 3, 59, 0
7, 1800, Note_on_c, 3, 58, 88
7, 2153, Note_off_c, 3, 58, 0
7, 2160, Note_on_c, 3, 56, 88
7, 2394, Note_off_c, 3, 56, 0
7, 2400, Note_on_c, 3, 52, 88
7, 2516, Note_off_c, 3, 52, 0
7, 2520, Note_on_c, 3, 54, 88
7, 2636, Note_off_c, 3, 54, 0
7, 2640, Note_on_c, 3, 56, 88
7, 2756, Note_off_c, 3, 56, 0
7, 2760, Note_on_c, 3, 58, 88
7, 2876, Note_off_c, 3, 58, 0
7, 2880, Note_on_c, 3, 59, 88
7, 2996, Note_off_c, 3, 59, 0
7, 3600, Note_on_c, 3, 47, 88
7, 3658, Note_off_c, 3, 47, 0
7, 3660, Note_on_c, 3, 49, 88
7, 3718, Note_off_c, 3, 49, 0
7, 3720, Note_on_c, 3, 51, 88
7, 3778, Note_off_c, 3, 51, 0
7, 3780, Note_on_c, 3, 47, 88
7, 3838, Note_off_c, 3, 47, 0
7, 3840, Note_on_c, 3, 49, 88
7, 3898, Note_off_c, 3, 49, 0
7, 3900, Note_on_c, 3, 52, 88
7, 3958, Note_off_c, 3, 52, 0
7, 3960, Note_on_c, 3, 56, 88
7, 4076, Note_off_c, 3, 56, 0
7, 4080, Note_on_c, 3, 54, 88
7, 4196, Note_off_c, 3, 54, 0
7, 4200, Note_on_c, 3, 52, 88
7, 4316, Note_off_c, 3, 52, 0
7, 4320, Note_on_c, 3, 51, 88
7, 4378, Note_off_c, 3, 51, 0
7, 4380, Note_on_c, 3, 52, 88
7, 4438, Note_off_c, 3, 52, 0
7, 4440, Note_on_c, 3, 54, 88
7, 4498, Note_off_c, 3, 54, 0
7, 4500, Note_on_c, 3, 51, 88
7, 4558, Note_off_c, 3, 51, 0
7, 4560, Note_on_c, 3, 53, 88
7, 4618, Note_off_c, 3, 53, 0
7, 4620, Note_on_c, 3, 56, 88
7, 4678, Note_off_c, 3, 56, 0
7, 4680, Note_on_c, 3, 59, 88
7, 4796, Note_off_c, 3, 59, 0
7, 4800, Note_on_c, 3, 57, 88
7, 4916, Note_off_c, 3, 57, 0
7, 4920, Note_on_c, 3, 56, 88
7, 5036, Note_off_c, 3, 56, 0
7, 5040, Note_on_c, 3, 54, 88
7, 5446, Note_off_c, 3, 54, 0
7, 5460, Note_on_c, 3, 54, 88
7, 5518, Note_off_c, 3, 54, 0
7, 5520, Note_on_c, 3, 52, 88
7, 5578, Note_off_c, 3, 52, 0
7, 5580, Note_on_c, 3, 51, 88
7, 5638, Note_off_c, 3, 51, 0
7, 5640, Note_on_c, 3, 49, 88
7, 5698, Note_off_c, 3, 49, 0
7, 5700, Note_on_c, 3, 48, 88
7, 5758, Note_off_c, 3, 48, 0
7, 5760, Note_on_c, 3, 49, 88
7, 6113, Note_off_c, 3, 49, 0
7, 6120, Note_on_c, 3, 43, 88
7, 6178, Note_off_c, 3, 43, 0
7, 6180, Note_on_c, 3, 61, 88
7, 6238, Note_off_c, 3, 61, 0
7, 6240, Note_on_c, 3, 59, 88
7, 6298, Note_off_c, 3, 59, 0
7, 6300, Note_on_c, 3, 58, 88
7, 6358, Note_off_c, 3, 58, 0
7, 6360, Note_on_c, 3, 56, 88
7, 6418, Note_off_c, 3, 56, 0
7, 6420, Note_on_c, 3, 55, 88
7, 6478, Note_off_c, 3, 55, 0
7, 6480, Note_on_c, 3, 56, 88
7, 6886, Note_off_c, 3, 56, 0
7, 6900, Note_on_c, 3, 56, 88
7, 6958, Note_off_c, 3, 56, 0
7, 6960, Note_on_c, 3, 54, 88
7, 7018, Note_off_c, 3, 54, 0
7, 7020, Note_on_c, 3, 53, 88
7, 7078, Note_off_c, 3, 53, 0
7, 7080, Note_on_c, 3, 51, 88
7, 7138, Note_off_c, 3, 51, 0
7, 7140, Note_on_c, 3, 50, 88
7, 7198, Note_off_c, 3, 50, 0
7, 7200, Note_on_c, 3, 51, 88
7, 7258, Note_off_c, 3, 51, 0
7, 7260, Note_on_c, 3, 53, 88
7, 7318, Note_off_c, 3, 53, 0
7, 7320, Note_on_c, 3, 54, 88
7, 7378, Note_off_c, 3, 54, 0
7, 7380, Note_on_c, 3, 46, 88
7, 7438, Note_off_c, 3, 46, 0
7, 7440, Note_on_c, 3, 47, 88
7, 7498, Note_off_c, 3, 47, 0
7, 7500, Note_on_c, 3, 51, 88
7, 7558, Note_off_c, 3, 51, 0
7, 7560, Note_on_c, 3, 49, 88
7, 7618, Note_off_c, 3, 49, 0
7, 7620, Note_on_c, 3, 51, 88
7, 7678, Note_off_c, 3, 51, 0
7, 7680, Note_on_c, 3, 53, 88
7, 7738, Note_off_c, 3, 53, 0
7, 7740, Note_on_c, 3, 44, 88
7, 7798, Note_off_c, 3, 44, 0
7, 7800, Note_on_c, 3, 46, 88
7, 7858, Note_off_c, 3, 46, 0
7, 7860, Note_on_c, 3, 49, 88
7, 7918, Note_off_c, 3, 49, 0
7, 7920, Note_on_c, 3, 47, 88
7, 7978, Note_off_c, 3, 47, 0
7, 7980, Note_on_c, 3, 49, 88
7, 8038, Note_off_c, 3, 49, 0
7, 8040, Note_on_c, 3, 51, 88
7, 8098, Note_off_c, 3, 51, 0
7, 8100, Note_on_c, 3, 42, 88
7, 8158, Note_off_c, 3, 42, 0
7, 8160, Note_on_c, 3, 44, 88
7, 8218, Note_off_c, 3, 44, 0
7, 8220, Note_on_c, 3, 47, 88
7, 8278, Note_off_c, 3, 47, 0
7, 8280, Note_on_c, 3, 38, 88
7, 8396, Note_off_c, 3, 38, 0
7, 8400, Note_on_c, 3, 50, 88
7, 8516, Note_off_c, 3, 50, 0
7, 8520, Note_on_c, 3, 46, 88
7, 8636, Note_off_c, 3, 46, 0
7, 8640, Note_on_c, 3, 51, 88
7, 8698, Note_off_c, 3, 51, 0
7, 8700, Note_on_c, 3, 53, 88
7, 8758, Note_off_c, 3, 53, 0
7, 8760, Note_on_c, 3, 54, 88
7, 8818, Note_off_c, 3, 54, 0
7, 8820, Note_on_c, 3, 51, 88
7, 8878, Note_off_c, 3, 51, 0
7, 8880, Note_on_c, 3, 53, 88
7, 8938, Note_off_c, 3, 53, 0
7, 8940, Note_on_c, 3, 56, 88
7, 8998, Note_off_c, 3, 56, 0
7, 9000, Note_on_c, 3, 59, 88
7, 9116, Note_off_c, 3, 59, 0
7, 9120, Note_on_c, 3, 58, 88
7, 9236, Note_off_c, 3, 58, 0
7, 9240, Note_on_c, 3, 56, 88
7, 9356, Note_off_c, 3, 56, 0
7, 9360, Note_on_c, 3, 54, 88
7, 9418, Note_off_c, 3, 54, 0
7, 9420, Note_on_c, 3, 56, 88
7, 9478, Note_off_c, 3, 56, 0
7, 9480, Note_on_c, 3, 58, 88
7, 9538, Note_off_c, 3, 58, 0
7, 9540, Note_on_c, 3, 54, 88
7, 9598, Note_off_c, 3, 54, 0
7, 9600, Note_on_c, 3, 56, 88
7, 9658, Note_off_c, 3, 56, 0
7, 9660, Note_on_c, 3, 59, 88
7, 9718, Note_off_c, 3, 59, 0
7, 9720, Note_on_c, 3, 50, 88
7, 9778, Note_off_c, 3, 50, 0
7, 9780, Note_on_c, 3, 51, 88
7, 9838, Note_off_c, 3, 51, 0
7, 9840, Note_on_c, 3, 53, 88
7, 9898, Note_off_c, 3, 53, 0
7, 9900, Note_on_c, 3, 46, 88
7, 9958, Note_off_c, 3, 46, 0
7, 9960, Note_on_c, 3, 50, 88
7, 10018, Note_off_c, 3, 50, 0
7, 10020, Note_on_c, 3, 53, 88
7, 10078, Note_off_c, 3, 53, 0
7, 10080, Note_on_c, 3, 51, 88
7, 10433, Note_off_c, 3, 51, 0
7, 10440, Note_on_c, 3, 49, 88
7, 10793, Note_off_c, 3, 49, 0
7, 10800, Note_on_c, 3, 47, 88
7, 11153, Note_off_c, 3, 47, 0
7, 11160, Note_on_c, 3, 46, 88
7, 11218, Note_off_c, 3, 46, 0
7, 11220, Note_on_c, 3, 49, 88
7, 11278, Note_off_c, 3, 49, 0
7, 11280, Note_on_c, 3, 47, 88
7, 11338, Note_off_c, 3, 47, 0
7, 11340, Note_on_c, 3, 46, 88
7, 11398, Note_off_c, 3, 46, 0
7, 11400, Note_on_c, 3, 44, 88
7, 11458, Note_off_c, 3, 44, 0
7, 11460, Note_on_c, 3, 43, 88
7, 11518, Note_off_c, 3, 43, 0
7, 11520, Note_on_c, 3, 44, 88
7, 11578, Note_off_c, 3, 44, 0
7, 11580, Note_on_c, 3, 42, 88
7, 11638, Note_off_c, 3, 42, 0
7, 11640, Note_on_c, 3, 40, 88
7, 11698, Note_off_c, 3, 40, 0
7, 11700, Note_on_c, 3, 44, 88
7, 11758, Note_off_c, 3, 44, 0
7, 11760, Note_on_c, 3, 42, 88
7, 11818, Note_off_c, 3, 42, 0
7, 11820, Note_on_c, 3, 39, 88
7, 11878, Note_off_c, 3, 39, 0
7, 11880, Note_on_c, 3, 36, 88
7, 11996, Note_off_c, 3, 36, 0
7, 12000, Note_on_c, 3, 37, 88
7, 12116, Note_off_c, 3, 37, 0
7, 12120, Note_on_c, 3, 39, 88
7, 12236, Note_off_c, 3, 39, 0
7, 12240, Note_on_c, 3, 40, 88
7, 12298, Note_off_c, 3, 40, 0
7, 12300, Note_on_c, 3, 42, 88
7, 12358, Note_off_c, 3, 42, 0
7, 12360, Note_on_c, 3, 44, 88
7, 12418, Note_off_c, 3, 44, 0
7, 12420, Note_on_c, 3, 40, 88
7, 12478, Note_off_c, 3, 40, 0
7, 12480, Note_on_c, 3, 42, 88
7, 12538, Note_off_c, 3, 42, 0
7, 12540, Note_on_c, 3, 45, 88
7, 12598, Note_off_c, 3, 45, 0
7, 12600, Note_on_c, 3, 39, 88
7, 12658, Note_off_c, 3, 39, 0
7, 12660, Note_on_c, 3, 40, 88
7, 12718, Note_off_c, 3, 40, 0
7, 12720, Note_on_c, 3, 42, 88
7, 12778, Note_off_c, 3, 42, 0
7, 12780, Note_on_c, 3, 44, 88
7, 12838, Note_off_c, 3, 44, 0
7, 12840, Note_on_c, 3, 46, 88
7, 12898, Note_off_c, 3, 46, 0
7, 12900, Note_on_c, 3, 48, 88
7, 12958, Note_off_c, 3, 48, 0
7, 12960, Note_on_c, 3, 49, 88
7, 13018, Note_off_c, 3, 49, 0
7, 13020, Note_on_c, 3, 51, 88
7, 13078, Note_off_c, 3, 51, 0
7, 13080, Note_on_c, 3, 52, 88
7, 13138, Note_off_c, 3, 52, 0
7, 13140, Note_on_c, 3, 49, 88
7, 13198, Note_off_c, 3, 49, 0
7, 13200, Note_on_c, 3, 52, 88
7, 13258, Note_off_c, 3, 52, 0
7, 13260, Note_on_c, 3, 56, 88
7, 13318, Note_off_c, 3, 56, 0
7, 13320, Note_on_c, 3, 54, 88
7, 13378, Note_off_c, 3, 54, 0
7, 13380, Note_on_c, 3, 56, 88
7, 13438, Note_off_c, 3, 56, 0
7, 13440, Note_on_c, 3, 58, 88
7, 13498, Note_off_c, 3, 58, 0
7, 13500, Note_on_c, 3, 54, 88
7, 13558, Note_off_c, 3, 54, 0
7, 13560, Note_on_c, 3, 58, 88
7, 13618, Note_off_c, 3, 58, 0
7, 13620, Note_on_c, 3, 61, 88
7, 13678, Note_off_c, 3, 61, 0
7, 13680, Note_on_c, 3, 47, 88
7, 13738, Note_off_c, 3, 47, 0
7, 13740, Note_on_c, 3, 49, 88
7, 13798, Note_off_c, 3, 49, 0
7, 13800, Note_on_c, 3, 51, 88
7, 13858, Note_off_c, 3, 51, 0
7, 13860, Note_on_c, 3, 47, 88
7, 13918, Note_off_c, 3, 47, 0
7, 13920, Note_on_c, 3, 51, 88
7, 13978, Note_off_c, 3, 51, 0
7, 13980, Note_on_c, 3, 54, 88
7, 14038, Note_off_c, 3, 54, 0
7, 14040, Note_on_c, 3, 52, 88
7, 14098, Note_off_c, 3, 52, 0
7, 14100, Note_on_c, 3, 54, 88
7, 14158, Note_off_c, 3, 54, 0
7, 14160, Note_on_c, 3, 56, 88
7, 14218, Note_off_c, 3, 56, 0
7, 14220, Note_on_c, 3, 52, 88
7, 14278, Note_off_c, 3, 52, 0
7, 14280, Note_on_c, 3, 56, 88
7, 14338, Note_off_c, 3, 56, 0
7, 14340, Note_on_c, 3, 59, 88
7, 14398, Note_off_c, 3, 59, 0
7, 14400, Note_on_c, 3, 46, 88
7, 14458, Note_off_c, 3, 46, 0
7, 14460, Note_on_c, 3, 47, 88
7, 14518, Note_off_c, 3, 47, 0
7, 14520, Note_on_c, 3, 49, 88
7, 14578, Note_off_c, 3, 49, 0
7, 14580, Note_on_c, 3, 46, 88
7, 14638, Note_off_c, 3, 46, 0
7, 14640, Note_on_c, 3, 49, 88
7, 14698, Note_off_c, 3, 49, 0
7, 14700, Note_on_c, 3, 52, 88
7, 14758, Note_off_c, 3, 52, 0
7, 14760, Note_on_c, 3, 51, 88
7, 14818, Note_off_c, 3, 51, 0
7, 14820, Note_on_c, 3, 53, 88
7, 14878, Note_off_c, 3, 53, 0
7, 14880, Note_on_c, 3, 55, 88
7, 14938, Note_off_c, 3, 55, 0
7, 14940, Note_on_c, 3, 51, 88
7, 14998, Note_off_c, 3, 51, 0
7, 15000, Note_on_c, 3, 55, 88
7, 15058, Note_off_c, 3, 55, 0
7, 15060, Note_on_c, 3, 58, 88
7, 15118, Note_off_c, 3, 58, 0
7, 15120, Note_on_c, 3, 56, 88
7, 15178, Note_off_c, 3, 56, 0
7, 15180, Note_on_c, 3, 58, 88
7, 15238, Note_off_c, 3, 58, 0
7, 15240, Note_on_c, 3, 59, 88
7, 15298, Note_off_c, 3, 59, 0
7, 15300, Note_on_c, 3, 51, 88
7, 15358, Note_off_c, 3, 51, 0
7, 15360, Note_on_c, 3, 52, 88
7, 15418, Note_off_c, 3, 52, 0
7, 15420, Note_on_c, 3, 56, 88
7, 15478, Note_off_c, 3, 56, 0
7, 15480, Note_on_c, 3, 54, 88
7, 15538, Note_off_c, 3, 54, 0
7, 15540, Note_on_c, 3, 56, 88
7, 15598, Note_off_c, 3, 56, 0
7, 15600, Note_on_c, 3, 58, 88
7, 15658, Note_off_c, 3, 58, 0
7, 15660, Note_on_c, 3, 49, 88
7, 15718, Note_off_c, 3, 49, 0
7, 15720, Note_on_c, 3, 51, 88
7, 15778, Note_off_c, 3, 51, 0
7, 15780, Note_on_c, 3, 54, 88
7, 15838, Note_off_c, 3, 54, 0
7, 15840, Note_on_c, 3, 52, 88
7, 15898, Note_off_c, 3, 52, 0
7, 15900, Note_on_c, 3, 54, 88
7, 15958, Note_off_c, 3, 54, 0
7, 15960, Note_on_c, 3, 56, 88
7, 16018, Note_off_c, 3, 56, 0
7, 16020, Note_on_c, 3, 47, 88
7, 16078, Note_off_c, 3, 47, 0
7, 16080, Note_on_c, 3, 49, 88
7, 16138, Note_off_c, 3, 49, 0
7, 16140, Note_on_c, 3, 52, 88
7, 16198, Note_off_c, 3, 52, 0
7, 16200, Note_on_c, 3, 51, 88
7, 16258, Note_off_c, 3, 51, 0
7, 16260, Note_on_c, 3, 53, 88
7, 16318, Note_off_c, 3, 53, 0
7, 16320, Note_on_c, 3, 55, 88
7, 16378, Note_off_c, 3, 55, 0
7, 16380, Note_on_c, 3, 46, 88
7, 16438, Note_off_c, 3, 46, 0
7, 16440, Note_on_c, 3, 47, 88
7, 16498, Note_off_c, 3, 47, 0
7, 16500, Note_on_c, 3, 51, 88
7, 16558, Note_off_c, 3, 51, 0
7, 16560, Note_on_c, 3, 49, 88
7, 16618, Note_off_c, 3, 49, 0
7, 16620, Note_on_c, 3, 51, 88
7, 16678, Note_off_c, 3, 51, 0
7, 16680, Note_on_c, 3, 52, 88
7, 16738, Note_off_c, 3, 52, 0
7, 16740, Note_on_c, 3, 47, 88
7, 16798, Note_off_c, 3, 47, 0
7, 16800, Note_on_c, 3, 49, 88
7, 16858, Note_off_c, 3, 49, 0
7, 16860, Note_on_c, 3, 52, 88
7, 16918, Note_off_c, 3, 52, 0
7, 16920, Note_on_c, 3, 45, 88
7, 16978, Note_off_c, 3, 45, 0
7, 16980, Note_on_c, 3, 49, 88
7, 17038, Note_off_c, 3, 49, 0
7, 17040, Note_on_c, 3, 52, 88
7, 17098, Note_off_c, 3, 52, 0
7, 17100, Note_on_c, 3, 44, 88
7, 17158, Note_off_c, 3, 44, 0
7, 17160, Note_on_c, 3, 49, 88
7, 17218, Note_off_c, 3, 49, 0
7, 17220, Note_on_c, 3, 52, 88
7, 17278, Note_off_c, 3, 52, 0
7, 17280, Note_on_c, 3, 43, 88
7, 17811, Note_off_c, 3, 43, 0
7, 17820, Note_on_c, 3, 55, 88
7, 17878, Note_off_c, 3, 55, 0
7, 17880, Note_on_c, 3, 56, 88
7, 17938, Note_off_c, 3, 56, 0
7, 17940, Note_on_c, 3, 58, 88
7, 17998, Note_off_c, 3, 58, 0
7, 18000, Note_on_c, 3, 47, 88
7, 18234, Note_off_c, 3, 47, 0
7, 18240, Note_on_c, 3, 52, 88
7, 18356, Note_off_c, 3, 52, 0
7, 18360, Note_on_c, 3, 49, 88
7, 18476, Note_off_c, 3, 49, 0
7, 18480, Note_on_c, 3, 51, 88
7, 18596, Note_off_c, 3, 51, 0
7, 18600, Note_on_c, 3, 39, 88
7, 18716, Note_off_c, 3, 39, 0
7, 18720, Note_on_c, 3, 44, 88
7, 18778, Note_off_c, 3, 44, 0
7, 18780, Note_on_c, 3, 46, 88
7, 18838, Note_off_c, 3, 46, 0
7, 18840, Note_on_c, 3, 48, 88
7, 18898, Note_off_c, 3, 48, 0
7, 18900, Note_on_c, 3, 44, 88
7, 18958, Note_off_c, 3, 44, 0
7, 18960, Note_on_c, 3, 48, 88
7, 19018, Note_off_c, 3, 48, 0
7, 19020, Note_on_c, 3, 51, 88
7, 19078, Note_off_c, 3, 51, 0
7, 19080, Note_on_c, 3, 54, 88
7, 19196, Note_off_c, 3, 54, 0
7, 19200, Note_on_c, 3, 52, 88
7, 19316, Note_off_c, 3, 52, 0
7, 19320, Note_on_c, 3, 51, 88
7, 19436, Note_off_c, 3, 51, 0
7, 19440, Note_on_c, 3, 49, 88
7, 20148, Note_off_c, 3, 49, 0
7, 20160, Note_on_c, 3, 44, 88
7, 20868, Note_off_c, 3, 44, 0
7, 20868, End_track
0, 0, End_of_file
