0, 0, Header, 1, 8, 240
1, 0, Start_track
1, 0, Time_signature, 4, 2, 24, 8
1, 0, Tempo, 869565
1, 0, SMPTE_offset, 64, 0, 0, 0, 93
1, 0, End_track
2, 0, Start_track
2, 0, Title_t, "(C) & (P) 1993"
2, 127, End_track
3, 0, Start_track
3, 0, Title_t, "CCARH,Stanford"
3, 0, End_track
4, 0, Start_track
4, 0, Title_t, "Track 1"
4, 0, Program_c, 0, 6
4, 7800, Note_on_c, 0, 70, 88
4, 7905, Note_off_c, 0, 70, 0
4, 7920, Note_on_c, 0, 70, 88
4, 8025, Note_off_c, 0, 70, 0
4, 8040, Note_on_c, 0, 70, 88
4, 8156, Note_off_c, 0, 70, 0
4, 8160, Note_on_c, 0, 69, 88
4, 8276, Note_off_c, 0, 69, 0
4, 8280, Note_on_c, 0, 70, 88
4, 8396, Note_off_c, 0, 70, 0
4, 8400, Note_on_c, 0, 72, 88
4, 8756, Note_off_c, 0, 72, 0
4, 8760, Note_on_c, 0, 70, 88
4, 8876, Note_off_c, 0, 70, 0
4, 8880, Note_on_c, 0, 75, 88
4, 9233, Note_off_c, 0, 75, 0
4, 9240, Note_on_c, 0, 73, 88
4, 9298, Note_off_c, 0, 73, 0
4, 9300, Note_on_c, 0, 72, 88
4, 9358, Note_off_c, 0, 72, 0
4, 9360, Note_on_c, 0, 77, 88
4, 9476, Note_off_c, 0, 77, 0
4, 9480, Note_on_c, 0, 75, 88
4, 9596, Note_off_c, 0, 75, 0
4, 9600, Note_on_c, 0, 73, 88
4, 9953, Note_off_c, 0, 73, 0
4, 9960, Note_on_c, 0, 75, 88
4, 10018, Note_off_c, 0, 75, 0
4, 10020, Note_on_c, 0, 76, 88
4, 10078, Note_off_c, 0, 76, 0
4, 10080, Note_on_c, 0, 70, 88
4, 10196, Note_off_c, 0, 70, 0
4, 10200, Note_on_c, 0, 75, 88
4, 10434, Note_off_c, 0, 75, 0
4, 10440, Note_on_c, 0, 73, 88
4, 10676, Note_off_c, 0, 73, 0
4, 10680, Note_on_c, 0, 71, 88
4, 10796, Note_off_c, 0, 71, 0
4, 10800, Note_on_c, 0, 70, 88
4, 11153, Note_off_c, 0, 70, 0
4, 11160, Note_on_c, 0, 68, 88
4, 11276, Note_off_c, 0, 68, 0
4, 11280, Note_on_c, 0, 80, 88
4, 11636, Note_off_c, 0, 80, 0
4, 11640, Note_on_c, 0, 78, 88
4, 11874, Note_off_c, 0, 78, 0
4, 11880, Note_on_c, 0, 77, 88
4, 11938, Note_off_c, 0, 77, 0
4, 11940, Note_on_c, 0, 75, 88
4, 11998, Note_off_c, 0, 75, 0
4, 12000, Note_on_c, 0, 74, 88
4, 12116, Note_off_c, 0, 74, 0
4, 12120, Note_on_c, 0, 77, 88
4, 12236, Note_off_c, 0, 77, 0
4, 12240, Note_on_c, 0, 78, 88
4, 12356, Note_off_c, 0, 78, 0
4, 12360, Note_on_c, 0, 74, 88
4, 12476, Note_off_c, 0, 74, 0
4, 12480, Note_on_c, 0, 75, 88
4, 12538, Note_off_c, 0, 75, 0
4, 12540, Note_on_c, 0, 73, 88
4, 12598, Note_off_c, 0, 73, 0
4, 12600, Note_on_c, 0, 71, 88
4, 12658, Note_off_c, 0, 71, 0
4, 12660, Note_on_c, 0, 70, 88
4, 12718, Note_off_c, 0, 70, 0
4, 12720, Note_on_c, 0, 68, 88
4, 12836, Note_off_c, 0, 68, 0
4, 12840, Note_on_c, 0, 70, 88
4, 12956, Note_off_c, 0, 70, 0
4, 12960, Note_on_c, 0, 71, 88
4, 13076, Note_off_c, 0, 71, 0
4, 13080, Note_on_c, 0, 70, 88
4, 13196, Note_off_c, 0, 70, 0
4, 13200, Note_on_c, 0, 68, 88
4, 13556, Note_off_c, 0, 68, 0
4, 13560, Note_on_c, 0, 66, 88
4, 13676, Note_off_c, 0, 66, 0
4, 13680, Note_on_c, 0, 65, 88
4, 13796, Note_off_c, 0, 65, 0
4, 13800, Note_on_c, 0, 64, 88
4, 13916, Note_off_c, 0, 64, 0
4, 13920, Note_on_c, 0, 63, 88
4, 14273, Note_off_c, 0, 63, 0
4, 14280, Note_on_c, 0, 61, 88
4, 14338, Note_off_c, 0, 61, 0
4, 14340, Note_on_c, 0, 63, 88
4, 14398, Note_off_c, 0, 63, 0
4, 14400, Note_on_c, 0, 64, 88
4, 14753, Note_off_c, 0, 64, 0
4, 14760, Note_on_c, 0, 63, 88
4, 14818, Note_off_c, 0, 63, 0
4, 14820, Note_on_c, 0, 65, 88
4, 14878, Note_off_c, 0, 65, 0
4, 14880, Note_on_c, 0, 66, 88
4, 15233, Note_off_c, 0, 66, 0
4, 15240, Note_on_c, 0, 65, 88
4, 15298, Note_off_c, 0, 65, 0
4, 15300, Note_on_c, 0, 67, 88
4, 15358, Note_off_c, 0, 67, 0
4, 15360, Note_on_c, 0, 68, 88
4, 15476, Note_off_c, 0, 68, 0
4, 19320, Note_on_c, 0, 75, 88
4, 19425, Note_off_c, 0, 75, 0
4, 19440, Note_on_c, 0, 75, 88
4, 19545, Note_off_c, 0, 75, 0
4, 19560, Note_on_c, 0, 75, 88
4, 19676, Note_off_c, 0, 75, 0
4, 19680, Note_on_c, 0, 74, 88
4, 19796, Note_off_c, 0, 74, 0
4, 19800, Note_on_c, 0, 75, 88
4, 19916, Note_off_c, 0, 75, 0
4, 19920, Note_on_c, 0, 77, 88
4, 20276, Note_off_c, 0, 77, 0
4, 20280, Note_on_c, 0, 75, 88
4, 20396, Note_off_c, 0, 75, 0
4, 20400, Note_on_c, 0, 80, 88
4, 20753, Note_off_c, 0, 80, 0
4, 20760, Note_on_c, 0, 78, 88
4, 20818, Note_off_c, 0, 78, 0
4, 20820, Note_on_c, 0, 77, 88
4, 20878, Note_off_c, 0, 77, 0
4, 20880, Note_on_c, 0, 82, 88
4, 20996, Note_off_c, 0, 82, 0
4, 21000, Note_on_c, 0, 80, 88
4, 21116, Note_off_c, 0, 80, 0
4, 21120, Note_on_c, 0, 78, 88
4, 21236, Note_off_c, 0, 78, 0
4, 21240, Note_on_c, 0, 82, 88
4, 21356, Note_off_c, 0, 82, 0
4, 21360, Note_on_c, 0, 75, 88
4, 21950, Note_off_c, 0, 75, 0
4, 21960, Note_on_c, 0, 74, 88
4, 22076, Note_off_c, 0, 74, 0
4, 22080, Note_on_c, 0, 75, 88
4, 22196, Note_off_c, 0, 75, 0
4, 25560, Note_on_c, 0, 73, 88
4, 25665, Note_off_c, 0, 73, 0
4, 25680, Note_on_c, 0, 73, 88
4, 25785, Note_off_c, 0, 73, 0
4, 25800, Note_on_c, 0, 73, 88
4, 25916, Note_off_c, 0, 73, 0
4, 25920, Note_on_c, 0, 72, 88
4, 26036, Note_off_c, 0, 72, 0
4, 26040, Note_on_c, 0, 73, 88
4, 26156, Note_off_c, 0, 73, 0
4, 26160, Note_on_c, 0, 75, 88
4, 26513, Note_off_c, 0, 75, 0
4, 26520, Note_on_c, 0, 73, 88
4, 26636, Note_off_c, 0, 73, 0
4, 26640, Note_on_c, 0, 78, 88
4, 26996, Note_off_c, 0, 78, 0
4, 27000, Note_on_c, 0, 76, 88
4, 27058, Note_off_c, 0, 76, 0
4, 27060, Note_on_c, 0, 75, 88
4, 27118, Note_off_c, 0, 75, 0
4, 27120, Note_on_c, 0, 80, 88
4, 27236, Note_off_c, 0, 80, 0
4, 27240, Note_on_c, 0, 78, 88
4, 27356, Note_off_c, 0, 78, 0
4, 27360, Note_on_c, 0, 77, 88
4, 27476, Note_off_c, 0, 77, 0
4, 27480, Note_on_c, 0, 73, 88
4, 27596, Note_off_c, 0, 73, 0
4, 27600, Note_on_c, 0, 78, 88
4, 28065, Note_off_c, 0, 78, 0
4, 28080, Note_on_c, 0, 78, 88
4, 28102, Note_off_c, 0, 78, 0
4, 28103, Note_on_c, 0, 77, 88
4, 28132, Note_off_c, 0, 77, 0
4, 28133, Note_on_c, 0, 78, 88
4, 28154, Note_off_c, 0, 78, 0
4, 28155, Note_on_c, 0, 77, 88
4, 28177, Note_off_c, 0, 77, 0
4, 28178, Note_on_c, 0, 78, 88
4, 28199, Note_off_c, 0, 78, 0
4, 28200, Note_on_c, 0, 77, 88
4, 28316, Note_off_c, 0, 77, 0
4, 28320, Note_on_c, 0, 78, 88
4, 28673, Note_off_c, 0, 78, 0
4, 28680, Note_on_c, 0, 76, 88
4, 28796, Note_off_c, 0, 76, 0
4, 28800, Note_on_c, 0, 75, 88
4, 29153, Note_off_c, 0, 75, 0
4, 29160, Note_on_c, 0, 73, 88
4, 29218, Note_off_c, 0, 73, 0
4, 29220, Note_on_c, 0, 71, 88
4, 29278, Note_off_c, 0, 71, 0
4, 29280, Note_on_c, 0, 70, 88
4, 29514, Note_off_c, 0, 70, 0
4, 29520, Note_on_c, 0, 82, 88
4, 29876, Note_off_c, 0, 82, 0
4, 29880, Note_on_c, 0, 80, 88
4, 29938, Note_off_c, 0, 80, 0
4, 29940, Note_on_c, 0, 79, 88
4, 29998, Note_off_c, 0, 79, 0
4, 30000, Note_on_c, 0, 80, 88
4, 30590, Note_off_c, 0, 80, 0
4, 30600, Note_on_c, 0, 79, 88
4, 30716, Note_off_c, 0, 79, 0
4, 30720, Note_on_c, 0, 80, 88
4, 31073, Note_off_c, 0, 80, 0
4, 31080, Note_on_c, 0, 78, 88
4, 31196, Note_off_c, 0, 78, 0
4, 31200, Note_on_c, 0, 77, 88
4, 31796, Note_off_c, 0, 77, 0
4, 31800, Note_on_c, 0, 75, 88
4, 31858, Note_off_c, 0, 75, 0
4, 31860, Note_on_c, 0, 73, 88
4, 31918, Note_off_c, 0, 73, 0
4, 31920, Note_on_c, 0, 71, 88
4, 32036, Note_off_c, 0, 71, 0
4, 32040, Note_on_c, 0, 70, 88
4, 32156, Note_off_c, 0, 70, 0
4, 32160, Note_on_c, 0, 69, 88
4, 32394, Note_off_c, 0, 69, 0
4, 32400, Note_on_c, 0, 70, 88
4, 32865, Note_off_c, 0, 70, 0
4, 32880, Note_on_c, 0, 70, 88
4, 32902, Note_off_c, 0, 70, 0
4, 32903, Note_on_c, 0, 69, 88
4, 32932, Note_off_c, 0, 69, 0
4, 32933, Note_on_c, 0, 70, 88
4, 32954, Note_off_c, 0, 70, 0
4, 32955, Note_on_c, 0, 69, 88
4, 32977, Note_off_c, 0, 69, 0
4, 32978, Note_on_c, 0, 70, 88
4, 32999, Note_off_c, 0, 70, 0
4, 33000, Note_on_c, 0, 69, 88
4, 33116, Note_off_c, 0, 69, 0
4, 33120, Note_on_c, 0, 70, 88
4, 33473, Note_off_c, 0, 70, 0
4, 33480, Note_on_c, 0, 68, 88
4, 33596, Note_off_c, 0, 68, 0
4, 33600, Note_on_c, 0, 67, 88
4, 33716, Note_off_c, 0, 67, 0
4, 33720, Note_on_c, 0, 73, 88
4, 33836, Note_off_c, 0, 73, 0
4, 33840, Note_on_c, 0, 71, 88
4, 33956, Note_off_c, 0, 71, 0
4, 33960, Note_on_c, 0, 70, 88
4, 34194, Note_off_c, 0, 70, 0
4, 34200, Note_on_c, 0, 68, 88
4, 34316, Note_off_c, 0, 68, 0
4, 34320, Note_on_c, 0, 73, 88
4, 34676, Note_off_c, 0, 73, 0
4, 34680, Note_on_c, 0, 71, 88
4, 34738, Note_off_c, 0, 71, 0
4, 34740, Note_on_c, 0, 70, 88
4, 34798, Note_off_c, 0, 70, 0
4, 34800, Note_on_c, 0, 71, 88
4, 34916, Note_off_c, 0, 71, 0
4, 34920, Note_on_c, 0, 76, 88
4, 35036, Note_off_c, 0, 76, 0
4, 35040, Note_on_c, 0, 74, 88
4, 35156, Note_off_c, 0, 74, 0
4, 35160, Note_on_c, 0, 70, 88
4, 35276, Note_off_c, 0, 70, 0
4, 35280, Note_on_c, 0, 80, 88
4, 35636, Note_off_c, 0, 80, 0
4, 35640, Note_on_c, 0, 78, 88
4, 35698, Note_off_c, 0, 78, 0
4, 35700, Note_on_c, 0, 77, 88
4, 35758, Note_off_c, 0, 77, 0
4, 35760, Note_on_c, 0, 78, 88
4, 35876, Note_off_c, 0, 78, 0
4, 35880, Note_on_c, 0, 83, 88
4, 35996, Note_off_c, 0, 83, 0
4, 36000, Note_on_c, 0, 81, 88
4, 36116, Note_off_c, 0, 81, 0
4, 36120, Note_on_c, 0, 77, 88
4, 36236, Note_off_c, 0, 77, 0
4, 36240, Note_on_c, 0, 82, 88
4, 36298, Note_off_c, 0, 82, 0
4, 36300, Note_on_c, 0, 80, 88
4, 36358, Note_off_c, 0, 80, 0
4, 36360, Note_on_c, 0, 79, 88
4, 36418, Note_off_c, 0, 79, 0
4, 36420, Note_on_c, 0, 77, 88
4, 36478, Note_off_c, 0, 77, 0
4, 36480, Note_on_c, 0, 75, 88
4, 36774, Note_off_c, 0, 75, 0
4, 36780, Note_on_c, 0, 78, 88
4, 36838, Note_off_c, 0, 78, 0
4, 36840, Note_on_c, 0, 77, 88
4, 36898, Note_off_c, 0, 77, 0
4, 36900, Note_on_c, 0, 75, 88
4, 36958, Note_off_c, 0, 75, 0
4, 36960, Note_on_c, 0, 74, 88
4, 37018, Note_off_c, 0, 74, 0
4, 37020, Note_on_c, 0, 77, 88
4, 37078, Note_off_c, 0, 77, 0
4, 37080, Note_on_c, 0, 75, 88
4, 37138, Note_off_c, 0, 75, 0
4, 37140, Note_on_c, 0, 73, 88
4, 37198, Note_off_c, 0, 73, 0
4, 37200, Note_on_c, 0, 72, 88
4, 37258, Note_off_c, 0, 72, 0
4, 37260, Note_on_c, 0, 75, 88
4, 37318, Note_off_c, 0, 75, 0
4, 37320, Note_on_c, 0, 73, 88
4, 37378, Note_off_c, 0, 73, 0
4, 37380, Note_on_c, 0, 71, 88
4, 37438, Note_off_c, 0, 71, 0
4, 37440, Note_on_c, 0, 70, 88
4, 37793, Note_off_c, 0, 70, 0
4, 37800, Note_on_c, 0, 68, 88
4, 37975, Note_off_c, 0, 68, 0
4, 37980, Note_on_c, 0, 65, 88
4, 38038, Note_off_c, 0, 65, 0
4, 38040, Note_on_c, 0, 66, 88
4, 38098, Note_off_c, 0, 66, 0
4, 38100, Note_on_c, 0, 70, 88
4, 38158, Note_off_c, 0, 70, 0
4, 38160, Note_on_c, 0, 75, 88
4, 38218, Note_off_c, 0, 75, 0
4, 38220, Note_on_c, 0, 70, 88
4, 38278, Note_off_c, 0, 70, 0
4, 38280, Note_on_c, 0, 78, 88
4, 38396, Note_off_c, 0, 78, 0
4, 38400, Note_on_c, 0, 78, 88
4, 38415, Note_on_c, 0, 77, 88
4, 38415, Note_off_c, 0, 78, 0
4, 38437, Note_off_c, 0, 77, 0
4, 38438, Note_on_c, 0, 78, 88
4, 38459, Note_off_c, 0, 78, 0
4, 38460, Note_on_c, 0, 77, 88
4, 38518, Note_off_c, 0, 77, 0
4, 38760, Note_on_c, 0, 83, 88
4, 38865, Note_off_c, 0, 83, 0
4, 38880, Note_on_c, 0, 83, 88
4, 38895, Note_on_c, 0, 82, 88
4, 38895, Note_off_c, 0, 83, 0
4, 38917, Note_off_c, 0, 82, 0
4, 38918, Note_on_c, 0, 83, 88
4, 38939, Note_off_c, 0, 83, 0
4, 38940, Note_on_c, 0, 82, 88
4, 38998, Note_off_c, 0, 82, 0
4, 39240, Note_on_c, 0, 80, 88
4, 39356, Note_off_c, 0, 80, 0
4, 39360, Note_on_c, 0, 75, 88
4, 39375, Note_on_c, 0, 74, 88
4, 39375, Note_off_c, 0, 75, 0
4, 39397, Note_off_c, 0, 74, 0
4, 39398, Note_on_c, 0, 75, 88
4, 39419, Note_off_c, 0, 75, 0
4, 39420, Note_on_c, 0, 74, 88
4, 39478, Note_off_c, 0, 74, 0
4, 39720, Note_on_c, 0, 77, 88
4, 39836, Note_off_c, 0, 77, 0
4, 39840, Note_on_c, 0, 70, 88
4, 39956, Note_off_c, 0, 70, 0
4, 39960, Note_on_c, 0, 75, 88
4, 40018, Note_off_c, 0, 75, 0
4, 40020, Note_on_c, 0, 74, 88
4, 40078, Note_off_c, 0, 74, 0
4, 40080, Note_on_c, 0, 75, 88
4, 40196, Note_off_c, 0, 75, 0
4, 40200, Note_on_c, 0, 68, 88
4, 40316, Note_off_c, 0, 68, 0
4, 40320, Note_on_c, 0, 66, 88
4, 40545, Note_off_c, 0, 66, 0
4, 40560, Note_on_c, 0, 66, 88
4, 40582, Note_off_c, 0, 66, 0
4, 40583, Note_on_c, 0, 65, 88
4, 40612, Note_off_c, 0, 65, 0
4, 40613, Note_on_c, 0, 66, 88
4, 40634, Note_off_c, 0, 66, 0
4, 40635, Note_on_c, 0, 65, 88
4, 40657, Note_off_c, 0, 65, 0
4, 40658, Note_on_c, 0, 66, 88
4, 40679, Note_off_c, 0, 66, 0
4, 40680, Note_on_c, 0, 65, 88
4, 40796, Note_off_c, 0, 65, 0
4, 40800, Note_on_c, 0, 63, 88
4, 40916, Note_off_c, 0, 63, 0
4, 40920, Note_on_c, 0, 75, 88
4, 41025, Note_off_c, 0, 75, 0
4, 41040, Note_on_c, 0, 75, 88
4, 41145, Note_off_c, 0, 75, 0
4, 41160, Note_on_c, 0, 75, 88
4, 41276, Note_off_c, 0, 75, 0
4, 41280, Note_on_c, 0, 74, 88
4, 41396, Note_off_c, 0, 74, 0
4, 41400, Note_on_c, 0, 75, 88
4, 41516, Note_off_c, 0, 75, 0
4, 41520, Note_on_c, 0, 77, 88
4, 41873, Note_off_c, 0, 77, 0
4, 41880, Note_on_c, 0, 75, 88
4, 41996, Note_off_c, 0, 75, 0
4, 42000, Note_on_c, 0, 80, 88
4, 42356, Note_off_c, 0, 80, 0
4, 42360, Note_on_c, 0, 78, 88
4, 42418, Note_off_c, 0, 78, 0
4, 42420, Note_on_c, 0, 77, 88
4, 42478, Note_off_c, 0, 77, 0
4, 42480, Note_on_c, 0, 82, 88
4, 42596, Note_off_c, 0, 82, 0
4, 42600, Note_on_c, 0, 80, 88
4, 42716, Note_off_c, 0, 80, 0
4, 42720, Note_on_c, 0, 78, 88
4, 42836, Note_off_c, 0, 78, 0
4, 42840, Note_on_c, 0, 74, 88
4, 42956, Note_off_c, 0, 74, 0
4, 42960, Note_on_c, 0, 75, 88
4, 43425, Note_off_c, 0, 75, 0
4, 43440, Note_on_c, 0, 75, 88
4, 43462, Note_off_c, 0, 75, 0
4, 43463, Note_on_c, 0, 74, 88
4, 43492, Note_off_c, 0, 74, 0
4, 43493, Note_on_c, 0, 75, 88
4, 43514, Note_off_c, 0, 75, 0
4, 43515, Note_on_c, 0, 74, 88
4, 43537, Note_off_c, 0, 74, 0
4, 43538, Note_on_c, 0, 75, 88
4, 43559, Note_off_c, 0, 75, 0
4, 43560, Note_on_c, 0, 74, 88
4, 43676, Note_off_c, 0, 74, 0
4, 43680, Note_on_c, 0, 75, 88
4, 44150, Note_off_c, 0, 75, 0
4, 44150, End_track
5, 0, Start_track
5, 0, Title_t, "Track 2"
5, 0, Program_c, 1, 6
5, 43200, Note_on_c, 1, 70, 88
5, 43665, Note_off_c, 1, 70, 0
5, 43680, Note_on_c, 1, 70, 88
5, 44150, Note_off_c, 1, 70, 0
5, 44150, End_track
6, 0, Start_track
6, 0, Title_t, "Track 3"
6, 0, Program_c, 2, 6
6, 120, Note_on_c, 2, 63, 88
6, 225, Note_off_c, 2, 63, 0
6, 240, Note_on_c, 2, 63, 88
6, 345, Note_off_c, 2, 63, 0
6, 360, Note_on_c, 2, 63, 88
6, 476, Note_off_c, 2, 63, 0
6, 480, Note_on_c, 2, 62, 88
6, 596, Note_off_c, 2, 62, 0
6, 600, Note_on_c, 2, 63, 88
6, 716, Note_off_c, 2, 63, 0
6, 720, Note_on_c, 2, 65, 88
6, 1076, Note_off_c, 2, 65, 0
6, 1080, Note_on_c, 2, 63, 88
6, 1196, Note_off_c, 2, 63, 0
6, 1200, Note_on_c, 2, 68, 88
6, 1553, Note_off_c, 2, 68, 0
6, 1560, Note_on_c, 2, 66, 88
6, 1618, Note_off_c, 2, 66, 0
6, 1620, Note_on_c, 2, 65, 88
6, 1678, Note_off_c, 2, 65, 0
6, 1680, Note_on_c, 2, 70, 88
6, 1796, Note_off_c, 2, 70, 0
6, 1800, Note_on_c, 2, 68, 88
6, 1916, Note_off_c, 2, 68, 0
6, 1920, Note_on_c, 2, 66, 88
6, 2036, Note_off_c, 2, 66, 0
6, 2040, Note_on_c, 2, 65, 88
6, 2156, Note_off_c, 2, 65, 0
6, 2160, Note_on_c, 2, 63, 88
6, 2276, Note_off_c, 2, 63, 0
6, 2280, Note_on_c, 2, 61, 88
6, 2338, Note_off_c, 2, 61, 0
6, 2340, Note_on_c, 2, 63, 88
6, 2398, Note_off_c, 2, 63, 0
6, 2400, Note_on_c, 2, 65, 88
6, 2753, Note_off_c, 2, 65, 0
6, 2760, Note_on_c, 2, 63, 88
6, 2818, Note_off_c, 2, 63, 0
6, 2820, Note_on_c, 2, 65, 88
6, 2878, Note_off_c, 2, 65, 0
6, 2880, Note_on_c, 2, 66, 88
6, 3233, Note_off_c, 2, 66, 0
6, 3240, Note_on_c, 2, 65, 88
6, 3298, Note_off_c, 2, 65, 0
6, 3300, Note_on_c, 2, 67, 88
6, 3358, Note_off_c, 2, 67, 0
6, 3360, Note_on_c, 2, 68, 88
6, 3713, Note_off_c, 2, 68, 0
6, 3720, Note_on_c, 2, 67, 88
6, 3778, Note_off_c, 2, 67, 0
6, 3780, Note_on_c, 2, 69, 88
6, 3838, Note_off_c, 2, 69, 0
6, 3840, Note_on_c, 2, 70, 88
6, 3956, Note_off_c, 2, 70, 0
6, 3960, Note_on_c, 2, 72, 88
6, 4076, Note_off_c, 2, 72, 0
6, 4080, Note_on_c, 2, 73, 88
6, 4433, Note_off_c, 2, 73, 0
6, 4440, Note_on_c, 2, 67, 88
6, 4556, Note_off_c, 2, 67, 0
6, 4560, Note_on_c, 2, 68, 88
6, 4676, Note_off_c, 2, 68, 0
6, 4680, Note_on_c, 2, 70, 88
6, 4796, Note_off_c, 2, 70, 0
6, 4800, Note_on_c, 2, 63, 88
6, 4916, Note_off_c, 2, 63, 0
6, 4920, Note_on_c, 2, 68, 88
6, 5154, Note_off_c, 2, 68, 0
6, 5160, Note_on_c, 2, 67, 88
6, 5276, Note_off_c, 2, 67, 0
6, 5280, Note_on_c, 2, 71, 88
6, 5633, Note_off_c, 2, 71, 0
6, 5640, Note_on_c, 2, 70, 88
6, 5698, Note_off_c, 2, 70, 0
6, 5700, Note_on_c, 2, 68, 88
6, 5758, Note_off_c, 2, 68, 0
6, 5760, Note_on_c, 2, 66, 88
6, 5876, Note_off_c, 2, 66, 0
6, 5880, Note_on_c, 2, 68, 88
6, 5996, Note_off_c, 2, 68, 0
6, 6000, Note_on_c, 2, 70, 88
6, 6116, Note_off_c, 2, 70, 0
6, 6120, Note_on_c, 2, 71, 88
6, 6236, Note_off_c, 2, 71, 0
6, 6240, Note_on_c, 2, 65, 88
6, 6298, Note_off_c, 2, 65, 0
6, 6300, Note_on_c, 2, 66, 88
6, 6358, Note_off_c, 2, 66, 0
6, 6360, Note_on_c, 2, 65, 88
6, 6418, Note_off_c, 2, 65, 0
6, 6420, Note_on_c, 2, 63, 88
6, 6478, Note_off_c, 2, 63, 0
6, 6480, Note_on_c, 2, 62, 88
6, 6538, Note_off_c, 2, 62, 0
6, 6540, Note_on_c, 2, 63, 88
6, 6598, Note_off_c, 2, 63, 0
6, 6600, Note_on_c, 2, 65, 88
6, 6658, Note_off_c, 2, 65, 0
6, 6660, Note_on_c, 2, 66, 88
6, 6718, Note_off_c, 2, 66, 0
6, 6720, Note_on_c, 2, 68, 88
6, 6778, Note_off_c, 2, 68, 0
6, 6780, Note_on_c, 2, 70, 88
6, 6838, Note_off_c, 2, 70, 0
6, 6840, Note_on_c, 2, 68, 88
6, 6898, Note_off_c, 2, 68, 0
6, 6900, Note_on_c, 2, 66, 88
6, 6958, Note_off_c, 2, 66, 0
6, 6960, Note_on_c, 2, 65, 88
6, 7313, Note_off_c, 2, 65, 0
6, 7320, Note_on_c, 2, 66, 88
6, 7378, Note_off_c, 2, 66, 0
6, 7380, Note_on_c, 2, 68, 88
6, 7438, Note_off_c, 2, 68, 0
6, 7440, Note_on_c, 2, 66, 88
6, 7556, Note_off_c, 2, 66, 0
6, 7560, Note_on_c, 2, 65, 88
6, 7676, Note_off_c, 2, 65, 0
6, 7680, Note_on_c, 2, 63, 88
6, 7796, Note_off_c, 2, 63, 0
6, 7800, Note_on_c, 2, 62, 88
6, 7916, Note_off_c, 2, 62, 0
6, 7920, Note_on_c, 2, 63, 88
6, 7978, Note_off_c, 2, 63, 0
6, 7980, Note_on_c, 2, 65, 88
6, 8038, Note_off_c, 2, 65, 0
6, 8040, Note_on_c, 2, 66, 88
6, 8156, Note_off_c, 2, 66, 0
6, 8160, Note_on_c, 2, 65, 88
6, 8513, Note_off_c, 2, 65, 0
6, 8520, Note_on_c, 2, 66, 88
6, 8578, Note_off_c, 2, 66, 0
6, 8580, Note_on_c, 2, 65, 88
6, 8638, Note_off_c, 2, 65, 0
6, 8640, Note_on_c, 2, 63, 88
6, 8756, Note_off_c, 2, 63, 0
6, 8760, Note_on_c, 2, 61, 88
6, 8876, Note_off_c, 2, 61, 0
6, 9000, Note_on_c, 2, 73, 88
6, 9116, Note_off_c, 2, 73, 0
6, 9120, Note_on_c, 2, 72, 88
6, 9236, Note_off_c, 2, 72, 0
6, 9240, Note_on_c, 2, 70, 88
6, 9356, Note_off_c, 2, 70, 0
6, 9360, Note_on_c, 2, 68, 88
6, 9418, Note_off_c, 2, 68, 0
6, 9420, Note_on_c, 2, 70, 88
6, 9478, Note_off_c, 2, 70, 0
6, 9480, Note_on_c, 2, 72, 88
6, 9716, Note_off_c, 2, 72, 0
6, 9720, Note_on_c, 2, 70, 88
6, 9778, Note_off_c, 2, 70, 0
6, 9780, Note_on_c, 2, 69, 88
6, 9838, Note_off_c, 2, 69, 0
6, 9840, Note_on_c, 2, 70, 88
6, 9956, Note_off_c, 2, 70, 0
6, 9960, Note_on_c, 2, 68, 88
6, 10076, Note_off_c, 2, 68, 0
6, 10080, Note_on_c, 2, 67, 88
6, 10196, Note_off_c, 2, 67, 0
6, 10200, Note_on_c, 2, 70, 88
6, 10316, Note_off_c, 2, 70, 0
6, 10320, Note_on_c, 2, 65, 88
6, 10436, Note_off_c, 2, 65, 0
6, 10440, Note_on_c, 2, 67, 88
6, 10498, Note_off_c, 2, 67, 0
6, 10500, Note_on_c, 2, 68, 88
6, 10558, Note_off_c, 2, 68, 0
6, 10560, Note_on_c, 2, 70, 88
6, 10676, Note_off_c, 2, 70, 0
6, 10680, Note_on_c, 2, 68, 88
6, 10796, Note_off_c, 2, 68, 0
6, 15480, Note_on_c, 2, 68, 88
6, 15585, Note_off_c, 2, 68, 0
6, 15600, Note_on_c, 2, 68, 88
6, 15705, Note_off_c, 2, 68, 0
6, 15720, Note_on_c, 2, 68, 88
6, 15836, Note_off_c, 2, 68, 0
6, 15840, Note_on_c, 2, 65, 88
6, 15956, Note_off_c, 2, 65, 0
6, 15960, Note_on_c, 2, 66, 88
6, 16076, Note_off_c, 2, 66, 0
6, 16080, Note_on_c, 2, 68, 88
6, 16436, Note_off_c, 2, 68, 0
6, 16440, Note_on_c, 2, 66, 88
6, 16556, Note_off_c, 2, 66, 0
6, 16560, Note_on_c, 2, 71, 88
6, 16913, Note_off_c, 2, 71, 0
6, 16920, Note_on_c, 2, 70, 88
6, 16978, Note_off_c, 2, 70, 0
6, 16980, Note_on_c, 2, 68, 88
6, 17038, Note_off_c, 2, 68, 0
6, 17040, Note_on_c, 2, 73, 88
6, 17156, Note_off_c, 2, 73, 0
6, 17160, Note_on_c, 2, 71, 88
6, 17276, Note_off_c, 2, 71, 0
6, 17280, Note_on_c, 2, 70, 88
6, 17396, Note_off_c, 2, 70, 0
6, 17400, Note_on_c, 2, 68, 88
6, 17458, Note_off_c, 2, 68, 0
6, 17460, Note_on_c, 2, 66, 88
6, 17518, Note_off_c, 2, 66, 0
6, 17520, Note_on_c, 2, 65, 88
6, 17578, Note_off_c, 2, 65, 0
6, 17580, Note_on_c, 2, 67, 88
6, 17638, Note_off_c, 2, 67, 0
6, 17640, Note_on_c, 2, 68, 88
6, 17874, Note_off_c, 2, 68, 0
6, 17880, Note_on_c, 2, 67, 88
6, 17938, Note_off_c, 2, 67, 0
6, 17940, Note_on_c, 2, 68, 88
6, 17998, Note_off_c, 2, 68, 0
6, 18000, Note_on_c, 2, 70, 88
6, 18356, Note_off_c, 2, 70, 0
6, 18360, Note_on_c, 2, 68, 88
6, 18418, Note_off_c, 2, 68, 0
6, 18420, Note_on_c, 2, 67, 88
6, 18478, Note_off_c, 2, 67, 0
6, 18480, Note_on_c, 2, 68, 88
6, 18596, Note_off_c, 2, 68, 0
6, 18600, Note_on_c, 2, 70, 88
6, 18658, Note_off_c, 2, 70, 0
6, 18660, Note_on_c, 2, 71, 88
6, 18718, Note_off_c, 2, 71, 0
6, 18720, Note_on_c, 2, 73, 88
6, 19316, Note_off_c, 2, 73, 0
6, 19320, Note_on_c, 2, 71, 88
6, 19378, Note_off_c, 2, 71, 0
6, 19380, Note_on_c, 2, 70, 88
6, 19438, Note_off_c, 2, 70, 0
6, 19440, Note_on_c, 2, 71, 88
6, 19498, Note_off_c, 2, 71, 0
6, 19500, Note_on_c, 2, 68, 88
6, 19558, Note_off_c, 2, 68, 0
6, 19560, Note_on_c, 2, 66, 88
6, 19618, Note_off_c, 2, 66, 0
6, 19620, Note_on_c, 2, 65, 88
6, 19678, Note_off_c, 2, 65, 0
6, 19680, Note_on_c, 2, 66, 88
6, 19845, Note_off_c, 2, 66, 0
6, 19860, Note_on_c, 2, 66, 88
6, 19918, Note_off_c, 2, 66, 0
6, 19920, Note_on_c, 2, 65, 88
6, 19978, Note_off_c, 2, 65, 0
6, 19980, Note_on_c, 2, 66, 88
6, 20038, Note_off_c, 2, 66, 0
6, 20040, Note_on_c, 2, 68, 88
6, 20276, Note_off_c, 2, 68, 0
6, 20280, Note_on_c, 2, 66, 88
6, 20396, Note_off_c, 2, 66, 0
6, 20520, Note_on_c, 2, 78, 88
6, 20636, Note_off_c, 2, 78, 0
6, 20640, Note_on_c, 2, 77, 88
6, 20756, Note_off_c, 2, 77, 0
6, 21000, Note_on_c, 2, 77, 88
6, 21116, Note_off_c, 2, 77, 0
6, 21120, Note_on_c, 2, 75, 88
6, 21236, Note_off_c, 2, 75, 0
6, 21240, Note_on_c, 2, 73, 88
6, 21474, Note_off_c, 2, 73, 0
6, 21480, Note_on_c, 2, 71, 88
6, 21538, Note_off_c, 2, 71, 0
6, 21540, Note_on_c, 2, 70, 88
6, 21598, Note_off_c, 2, 70, 0
6, 21600, Note_on_c, 2, 68, 88
6, 21658, Note_off_c, 2, 68, 0
6, 21660, Note_on_c, 2, 63, 88
6, 21718, Note_off_c, 2, 63, 0
6, 21720, Note_on_c, 2, 68, 88
6, 21825, Note_off_c, 2, 68, 0
6, 21840, Note_on_c, 2, 68, 88
6, 21945, Note_off_c, 2, 68, 0
6, 21960, Note_on_c, 2, 68, 88
6, 22076, Note_off_c, 2, 68, 0
6, 22080, Note_on_c, 2, 67, 88
6, 22196, Note_off_c, 2, 67, 0
6, 22200, Note_on_c, 2, 68, 88
6, 22316, Note_off_c, 2, 68, 0
6, 22320, Note_on_c, 2, 70, 88
6, 22673, Note_off_c, 2, 70, 0
6, 22680, Note_on_c, 2, 68, 88
6, 22796, Note_off_c, 2, 68, 0
6, 22800, Note_on_c, 2, 73, 88
6, 23156, Note_off_c, 2, 73, 0
6, 23160, Note_on_c, 2, 71, 88
6, 23218, Note_off_c, 2, 71, 0
6, 23220, Note_on_c, 2, 70, 88
6, 23278, Note_off_c, 2, 70, 0
6, 23280, Note_on_c, 2, 75, 88
6, 23396, Note_off_c, 2, 75, 0
6, 23400, Note_on_c, 2, 73, 88
6, 23516, Note_off_c, 2, 73, 0
6, 23520, Note_on_c, 2, 71, 88
6, 23636, Note_off_c, 2, 71, 0
6, 23640, Note_on_c, 2, 70, 88
6, 23756, Note_off_c, 2, 70, 0
6, 23760, Note_on_c, 2, 68, 88
6, 24116, Note_off_c, 2, 68, 0
6, 24120, Note_on_c, 2, 66, 88
6, 24236, Note_off_c, 2, 66, 0
6, 24240, Note_on_c, 2, 65, 88
6, 24593, Note_off_c, 2, 65, 0
6, 24600, Note_on_c, 2, 70, 88
6, 24658, Note_off_c, 2, 70, 0
6, 24660, Note_on_c, 2, 68, 88
6, 24718, Note_off_c, 2, 68, 0
6, 24720, Note_on_c, 2, 66, 88
6, 24836, Note_off_c, 2, 66, 0
6, 24840, Note_on_c, 2, 64, 88
6, 24956, Note_off_c, 2, 64, 0
6, 24960, Note_on_c, 2, 63, 88
6, 25076, Note_off_c, 2, 63, 0
6, 25080, Note_on_c, 2, 75, 88
6, 25255, Note_off_c, 2, 75, 0
6, 25260, Note_on_c, 2, 71, 88
6, 25318, Note_off_c, 2, 71, 0
6, 25320, Note_on_c, 2, 70, 88
6, 25378, Note_off_c, 2, 70, 0
6, 25380, Note_on_c, 2, 68, 88
6, 25438, Note_off_c, 2, 68, 0
6, 25440, Note_on_c, 2, 70, 88
6, 25793, Note_off_c, 2, 70, 0
6, 25800, Note_on_c, 2, 69, 88
6, 25916, Note_off_c, 2, 69, 0
6, 25920, Note_on_c, 2, 68, 88
6, 26154, Note_off_c, 2, 68, 0
6, 26160, Note_on_c, 2, 69, 88
6, 26276, Note_off_c, 2, 69, 0
6, 26280, Note_on_c, 2, 68, 88
6, 26338, Note_off_c, 2, 68, 0
6, 26340, Note_on_c, 2, 66, 88
6, 26398, Note_off_c, 2, 66, 0
6, 26400, Note_on_c, 2, 64, 88
6, 26458, Note_off_c, 2, 64, 0
6, 26460, Note_on_c, 2, 66, 88
6, 26518, Note_off_c, 2, 66, 0
6, 26520, Note_on_c, 2, 68, 88
6, 26636, Note_off_c, 2, 68, 0
6, 26640, Note_on_c, 2, 69, 88
6, 26874, Note_off_c, 2, 69, 0
6, 26880, Note_on_c, 2, 68, 88
6, 27233, Note_off_c, 2, 68, 0
6, 27240, Note_on_c, 2, 69, 88
6, 27298, Note_off_c, 2, 69, 0
6, 27300, Note_on_c, 2, 71, 88
6, 27358, Note_off_c, 2, 71, 0
6, 27360, Note_on_c, 2, 73, 88
6, 27713, Note_off_c, 2, 73, 0
6, 27720, Note_on_c, 2, 75, 88
6, 27836, Note_off_c, 2, 75, 0
6, 27840, Note_on_c, 2, 73, 88
6, 27956, Note_off_c, 2, 73, 0
6, 27960, Note_on_c, 2, 71, 88
6, 28065, Note_off_c, 2, 71, 0
6, 28080, Note_on_c, 2, 71, 88
6, 28185, Note_off_c, 2, 71, 0
6, 28200, Note_on_c, 2, 71, 88
6, 28316, Note_off_c, 2, 71, 0
6, 28320, Note_on_c, 2, 70, 88
6, 28436, Note_off_c, 2, 70, 0
6, 28440, Note_on_c, 2, 71, 88
6, 28556, Note_off_c, 2, 71, 0
6, 28560, Note_on_c, 2, 73, 88
6, 28916, Note_off_c, 2, 73, 0
6, 28920, Note_on_c, 2, 71, 88
6, 29036, Note_off_c, 2, 71, 0
6, 29040, Note_on_c, 2, 76, 88
6, 29393, Note_off_c, 2, 76, 0
6, 29400, Note_on_c, 2, 75, 88
6, 29458, Note_off_c, 2, 75, 0
6, 29460, Note_on_c, 2, 73, 88
6, 29518, Note_off_c, 2, 73, 0
6, 29520, Note_on_c, 2, 78, 88
6, 29636, Note_off_c, 2, 78, 0
6, 29640, Note_on_c, 2, 76, 88
6, 29756, Note_off_c, 2, 76, 0
6, 29760, Note_on_c, 2, 75, 88
6, 29994, Note_off_c, 2, 75, 0
6, 30120, Note_on_c, 2, 68, 88
6, 30236, Note_off_c, 2, 68, 0
6, 30240, Note_on_c, 2, 70, 88
6, 30356, Note_off_c, 2, 70, 0
6, 30360, Note_on_c, 2, 71, 88
6, 30476, Note_off_c, 2, 71, 0
6, 30480, Note_on_c, 2, 73, 88
6, 30836, Note_off_c, 2, 73, 0
6, 30840, Note_on_c, 2, 71, 88
6, 30898, Note_off_c, 2, 71, 0
6, 30900, Note_on_c, 2, 70, 88
6, 30958, Note_off_c, 2, 70, 0
6, 30960, Note_on_c, 2, 71, 88
6, 31313, Note_off_c, 2, 71, 0
6, 31320, Note_on_c, 2, 70, 88
6, 31378, Note_off_c, 2, 70, 0
6, 31380, Note_on_c, 2, 68, 88
6, 31438, Note_off_c, 2, 68, 0
6, 31440, Note_on_c, 2, 70, 88
6, 31855, Note_off_c, 2, 70, 0
6, 31860, Note_on_c, 2, 68, 88
6, 31918, Note_off_c, 2, 68, 0
6, 31920, Note_on_c, 2, 66, 88
6, 32036, Note_off_c, 2, 66, 0
6, 32040, Note_on_c, 2, 65, 88
6, 32156, Note_off_c, 2, 65, 0
6, 32160, Note_on_c, 2, 63, 88
6, 32276, Note_off_c, 2, 63, 0
6, 32280, Note_on_c, 2, 65, 88
6, 32338, Note_off_c, 2, 65, 0
6, 32340, Note_on_c, 2, 66, 88
6, 32398, Note_off_c, 2, 66, 0
6, 32400, Note_on_c, 2, 65, 88
6, 32516, Note_off_c, 2, 65, 0
6, 32520, Note_on_c, 2, 66, 88
6, 32578, Note_off_c, 2, 66, 0
6, 32580, Note_on_c, 2, 64, 88
6, 32638, Note_off_c, 2, 64, 0
6, 32640, Note_on_c, 2, 65, 88
6, 32993, Note_off_c, 2, 65, 0
6, 33000, Note_on_c, 2, 63, 88
6, 33116, Note_off_c, 2, 63, 0
6, 33120, Note_on_c, 2, 61, 88
6, 33236, Note_off_c, 2, 61, 0
6, 33240, Note_on_c, 2, 63, 88
6, 33356, Note_off_c, 2, 63, 0
6, 33360, Note_on_c, 2, 65, 88
6, 33476, Note_off_c, 2, 65, 0
6, 33480, Note_on_c, 2, 64, 88
6, 33596, Note_off_c, 2, 64, 0
6, 33600, Note_on_c, 2, 63, 88
6, 33953, Note_off_c, 2, 63, 0
6, 33960, Note_on_c, 2, 61, 88
6, 34076, Note_off_c, 2, 61, 0
6, 34080, Note_on_c, 2, 59, 88
6, 34314, Note_off_c, 2, 59, 0
6, 34320, Note_on_c, 2, 58, 88
6, 34436, Note_off_c, 2, 58, 0
6, 34440, Note_on_c, 2, 70, 88
6, 34556, Note_off_c, 2, 70, 0
6, 34560, Note_on_c, 2, 63, 88
6, 34676, Note_off_c, 2, 63, 0
6, 34680, Note_on_c, 2, 68, 88
6, 34738, Note_off_c, 2, 68, 0
6, 34740, Note_on_c, 2, 67, 88
6, 34798, Note_off_c, 2, 67, 0
6, 34800, Note_on_c, 2, 68, 88
6, 35153, Note_off_c, 2, 68, 0
6, 35160, Note_on_c, 2, 66, 88
6, 35276, Note_off_c, 2, 66, 0
6, 35280, Note_on_c, 2, 65, 88
6, 35396, Note_off_c, 2, 65, 0
6, 35400, Note_on_c, 2, 77, 88
6, 35516, Note_off_c, 2, 77, 0
6, 35520, Note_on_c, 2, 70, 88
6, 35636, Note_off_c, 2, 70, 0
6, 35640, Note_on_c, 2, 75, 88
6, 35698, Note_off_c, 2, 75, 0
6, 35700, Note_on_c, 2, 74, 88
6, 35758, Note_off_c, 2, 74, 0
6, 35760, Note_on_c, 2, 75, 88
6, 36113, Note_off_c, 2, 75, 0
6, 36120, Note_on_c, 2, 73, 88
6, 36178, Note_off_c, 2, 73, 0
6, 36180, Note_on_c, 2, 72, 88
6, 36238, Note_off_c, 2, 72, 0
6, 36240, Note_on_c, 2, 73, 88
6, 36525, Note_off_c, 2, 73, 0
6, 36540, Note_on_c, 2, 73, 88
6, 36598, Note_off_c, 2, 73, 0
6, 36600, Note_on_c, 2, 71, 88
6, 36658, Note_off_c, 2, 71, 0
6, 36660, Note_on_c, 2, 70, 88
6, 36718, Note_off_c, 2, 70, 0
6, 36720, Note_on_c, 2, 71, 88
6, 36954, Note_off_c, 2, 71, 0
6, 36960, Note_on_c, 2, 70, 88
6, 37194, Note_off_c, 2, 70, 0
6, 37200, Note_on_c, 2, 68, 88
6, 37485, Note_off_c, 2, 68, 0
6, 37500, Note_on_c, 2, 68, 88
6, 37558, Note_off_c, 2, 68, 0
6, 37560, Note_on_c, 2, 66, 88
6, 37618, Note_off_c, 2, 66, 0
6, 37620, Note_on_c, 2, 65, 88
6, 37678, Note_off_c, 2, 65, 0
6, 37680, Note_on_c, 2, 63, 88
6, 37738, Note_off_c, 2, 63, 0
6, 37740, Note_on_c, 2, 66, 88
6, 37798, Note_off_c, 2, 66, 0
6, 37800, Note_on_c, 2, 65, 88
6, 37858, Note_off_c, 2, 65, 0
6, 37860, Note_on_c, 2, 63, 88
6, 37918, Note_off_c, 2, 63, 0
6, 37920, Note_on_c, 2, 62, 88
6, 38036, Note_off_c, 2, 62, 0
6, 38040, Note_on_c, 2, 63, 88
6, 38156, Note_off_c, 2, 63, 0
6, 38280, Note_on_c, 2, 69, 88
6, 38396, Note_off_c, 2, 69, 0
6, 38400, Note_on_c, 2, 70, 88
6, 38516, Note_off_c, 2, 70, 0
6, 38760, Note_on_c, 2, 74, 88
6, 38876, Note_off_c, 2, 74, 0
6, 38880, Note_on_c, 2, 78, 88
6, 38996, Note_off_c, 2, 78, 0
6, 39240, Note_on_c, 2, 71, 88
6, 39356, Note_off_c, 2, 71, 0
6, 39360, Note_on_c, 2, 70, 88
6, 39476, Note_off_c, 2, 70, 0
6, 39720, Note_on_c, 2, 65, 88
6, 39836, Note_off_c, 2, 65, 0
6, 39840, Note_on_c, 2, 66, 88
6, 39945, Note_off_c, 2, 66, 0
6, 39960, Note_on_c, 2, 66, 88
6, 40018, Note_off_c, 2, 66, 0
6, 40020, Note_on_c, 2, 65, 88
6, 40078, Note_off_c, 2, 65, 0
6, 40080, Note_on_c, 2, 63, 88
6, 40196, Note_off_c, 2, 63, 0
6, 40200, Note_on_c, 2, 65, 88
6, 40436, Note_off_c, 2, 65, 0
6, 40440, Note_on_c, 2, 63, 88
6, 40674, Note_off_c, 2, 63, 0
6, 40680, Note_on_c, 2, 62, 88
6, 40796, Note_off_c, 2, 62, 0
6, 40800, Note_on_c, 2, 63, 88
6, 40916, Note_off_c, 2, 63, 0
6, 40920, Note_on_c, 2, 66, 88
6, 40978, Note_off_c, 2, 66, 0
6, 40980, Note_on_c, 2, 65, 88
6, 41038, Note_off_c, 2, 65, 0
6, 41040, Note_on_c, 2, 66, 88
6, 41098, Note_off_c, 2, 66, 0
6, 41100, Note_on_c, 2, 70, 88
6, 41158, Note_off_c, 2, 70, 0
6, 41160, Note_on_c, 2, 68, 88
6, 41218, Note_off_c, 2, 68, 0
6, 41220, Note_on_c, 2, 66, 88
6, 41278, Note_off_c, 2, 66, 0
6, 41280, Note_on_c, 2, 65, 88
6, 41338, Note_off_c, 2, 65, 0
6, 41340, Note_on_c, 2, 68, 88
6, 41398, Note_off_c, 2, 68, 0
6, 41400, Note_on_c, 2, 66, 88
6, 41458, Note_off_c, 2, 66, 0
6, 41460, Note_on_c, 2, 70, 88
6, 41518, Note_off_c, 2, 70, 0
6, 41520, Note_on_c, 2, 71, 88
6, 41578, Note_off_c, 2, 71, 0
6, 41580, Note_on_c, 2, 70, 88
6, 41638, Note_off_c, 2, 70, 0
6, 41640, Note_on_c, 2, 71, 88
6, 41874, Note_off_c, 2, 71, 0
6, 41880, Note_on_c, 2, 70, 88
6, 41996, Note_off_c, 2, 70, 0
6, 42060, Note_on_c, 2, 75, 88
6, 42118, Note_off_c, 2, 75, 0
6, 42120, Note_on_c, 2, 74, 88
6, 42178, Note_off_c, 2, 74, 0
6, 42180, Note_on_c, 2, 72, 88
6, 42238, Note_off_c, 2, 72, 0
6, 42240, Note_on_c, 2, 74, 88
6, 42356, Note_off_c, 2, 74, 0
6, 42360, Note_on_c, 2, 75, 88
6, 42418, Note_off_c, 2, 75, 0
6, 42420, Note_on_c, 2, 77, 88
6, 42478, Note_off_c, 2, 77, 0
6, 42480, Note_on_c, 2, 78, 88
6, 42596, Note_off_c, 2, 78, 0
6, 42600, Note_on_c, 2, 74, 88
6, 42716, Note_off_c, 2, 74, 0
6, 42720, Note_on_c, 2, 75, 88
6, 42836, Note_off_c, 2, 75, 0
6, 42840, Note_on_c, 2, 68, 88
6, 42956, Note_off_c, 2, 68, 0
6, 42960, Note_on_c, 2, 66, 88
6, 43018, Note_off_c, 2, 66, 0
6, 43020, Note_on_c, 2, 65, 88
6, 43078, Note_off_c, 2, 65, 0
6, 43080, Note_on_c, 2, 66, 88
6, 43316, Note_off_c, 2, 66, 0
6, 43320, Note_on_c, 2, 68, 88
6, 43378, Note_off_c, 2, 68, 0
6, 43380, Note_on_c, 2, 66, 88
6, 43438, Note_off_c, 2, 66, 0
6, 43440, Note_on_c, 2, 65, 88
6, 43498, Note_off_c, 2, 65, 0
6, 43500, Note_on_c, 2, 66, 88
6, 43558, Note_off_c, 2, 66, 0
6, 43560, Note_on_c, 2, 68, 88
6, 43676, Note_off_c, 2, 68, 0
6, 43680, Note_on_c, 2, 67, 88
6, 44150, Note_off_c, 2, 67, 0
6, 44150, End_track
7, 0, Start_track
7, 0, Title_t, "Track 4"
7, 0, Program_c, 3, 6
7, 2040, Note_on_c, 3, 58, 88
7, 2145, Note_off_c, 3, 58, 0
7, 2160, Note_on_c, 3, 58, 88
7, 2265, Note_off_c, 3, 58, 0
7, 2280, Note_on_c, 3, 58, 88
7, 2396, Note_off_c, 3, 58, 0
7, 2400, Note_on_c, 3, 57, 88
7, 2516, Note_off_c, 3, 57, 0
7, 2520, Note_on_c, 3, 58, 88
7, 2636, Note_off_c, 3, 58, 0
7, 2640, Note_on_c, 3, 60, 88
7, 2996, Note_off_c, 3, 60, 0
7, 3000, Note_on_c, 3, 58, 88
7, 3116, Note_off_c, 3, 58, 0
7, 3120, Note_on_c, 3, 63, 88
7, 3473, Note_off_c, 3, 63, 0
7, 3480, Note_on_c, 3, 61, 88
7, 3538, Note_off_c, 3, 61, 0
7, 3540, Note_on_c, 3, 60, 88
7, 3598, Note_off_c, 3, 60, 0
7, 3600, Note_on_c, 3, 65, 88
7, 3716, Note_off_c, 3, 65, 0
7, 3720, Note_on_c, 3, 63, 88
7, 3836, Note_off_c, 3, 63, 0
7, 3840, Note_on_c, 3, 61, 88
7, 3956, Note_off_c, 3, 61, 0
7, 3960, Note_on_c, 3, 60, 88
7, 4076, Note_off_c, 3, 60, 0
7, 4080, Note_on_c, 3, 58, 88
7, 4196, Note_off_c, 3, 58, 0
7, 4200, Note_on_c, 3, 70, 88
7, 4316, Note_off_c, 3, 70, 0
7, 4320, Note_on_c, 3, 63, 88
7, 4673, Note_off_c, 3, 63, 0
7, 4680, Note_on_c, 3, 61, 88
7, 4796, Note_off_c, 3, 61, 0
7, 4800, Note_on_c, 3, 59, 88
7, 5034, Note_off_c, 3, 59, 0
7, 5040, Note_on_c, 3, 58, 88
7, 5274, Note_off_c, 3, 58, 0
7, 5280, Note_on_c, 3, 56, 88
7, 5396, Note_off_c, 3, 56, 0
7, 5400, Note_on_c, 3, 68, 88
7, 5516, Note_off_c, 3, 68, 0
7, 5520, Note_on_c, 3, 63, 88
7, 5542, Note_off_c, 3, 63, 0
7, 5543, Note_on_c, 3, 62, 88
7, 5572, Note_off_c, 3, 62, 0
7, 5573, Note_on_c, 3, 63, 88
7, 5594, Note_off_c, 3, 63, 0
7, 5595, Note_on_c, 3, 62, 88
7, 5617, Note_off_c, 3, 62, 0
7, 5618, Note_on_c, 3, 63, 88
7, 5639, Note_off_c, 3, 63, 0
7, 5640, Note_on_c, 3, 62, 88
7, 5756, Note_off_c, 3, 62, 0
7, 5760, Note_on_c, 3, 63, 88
7, 5876, Note_off_c, 3, 63, 0
7, 5880, Note_on_c, 3, 53, 88
7, 5996, Note_off_c, 3, 53, 0
7, 6000, Note_on_c, 3, 54, 88
7, 6116, Note_off_c, 3, 54, 0
7, 6120, Note_on_c, 3, 56, 88
7, 6236, Note_off_c, 3, 56, 0
7, 6240, Note_on_c, 3, 58, 88
7, 6593, Note_off_c, 3, 58, 0
7, 6600, Note_on_c, 3, 56, 88
7, 6658, Note_off_c, 3, 56, 0
7, 6660, Note_on_c, 3, 58, 88
7, 6718, Note_off_c, 3, 58, 0
7, 6720, Note_on_c, 3, 59, 88
7, 7073, Note_off_c, 3, 59, 0
7, 7080, Note_on_c, 3, 58, 88
7, 7138, Note_off_c, 3, 58, 0
7, 7140, Note_on_c, 3, 60, 88
7, 7198, Note_off_c, 3, 60, 0
7, 7200, Note_on_c, 3, 61, 88
7, 7553, Note_off_c, 3, 61, 0
7, 7560, Note_on_c, 3, 60, 88
7, 7618, Note_off_c, 3, 60, 0
7, 7620, Note_on_c, 3, 62, 88
7, 7678, Note_off_c, 3, 62, 0
7, 7680, Note_on_c, 3, 63, 88
7, 7796, Note_off_c, 3, 63, 0
7, 7800, Note_on_c, 3, 56, 88
7, 7916, Note_off_c, 3, 56, 0
7, 7920, Note_on_c, 3, 54, 88
7, 7978, Note_off_c, 3, 54, 0
7, 7980, Note_on_c, 3, 56, 88
7, 8038, Note_off_c, 3, 56, 0
7, 8040, Note_on_c, 3, 58, 88
7, 8098, Note_off_c, 3, 58, 0
7, 8100, Note_on_c, 3, 60, 88
7, 8158, Note_off_c, 3, 60, 0
7, 8160, Note_on_c, 3, 61, 88
7, 8276, Note_off_c, 3, 61, 0
7, 8280, Note_on_c, 3, 60, 88
7, 8338, Note_off_c, 3, 60, 0
7, 8340, Note_on_c, 3, 58, 88
7, 8398, Note_off_c, 3, 58, 0
7, 8400, Note_on_c, 3, 57, 88
7, 8756, Note_off_c, 3, 57, 0
7, 8760, Note_on_c, 3, 58, 88
7, 8818, Note_off_c, 3, 58, 0
7, 8820, Note_on_c, 3, 57, 88
7, 8878, Note_off_c, 3, 57, 0
7, 8880, Note_on_c, 3, 58, 88
7, 8996, Note_off_c, 3, 58, 0
7, 9240, Note_on_c, 3, 63, 88
7, 9356, Note_off_c, 3, 63, 0
7, 9360, Note_on_c, 3, 60, 88
7, 9476, Note_off_c, 3, 60, 0
7, 9480, Note_on_c, 3, 65, 88
7, 9596, Note_off_c, 3, 65, 0
7, 9600, Note_on_c, 3, 65, 88
7, 9834, Note_off_c, 3, 65, 0
7, 10200, Note_on_c, 3, 61, 88
7, 10316, Note_off_c, 3, 61, 0
7, 10320, Note_on_c, 3, 59, 88
7, 10436, Note_off_c, 3, 59, 0
7, 10440, Note_on_c, 3, 61, 88
7, 10556, Note_off_c, 3, 61, 0
7, 10560, Note_on_c, 3, 55, 88
7, 10676, Note_off_c, 3, 55, 0
7, 10680, Note_on_c, 3, 64, 88
7, 10914, Note_off_c, 3, 64, 0
7, 10920, Note_on_c, 3, 63, 88
7, 10978, Note_off_c, 3, 63, 0
7, 10980, Note_on_c, 3, 62, 88
7, 11038, Note_off_c, 3, 62, 0
7, 11040, Note_on_c, 3, 63, 88
7, 11393, Note_off_c, 3, 63, 0
7, 11400, Note_on_c, 3, 71, 88
7, 11516, Note_off_c, 3, 71, 0
7, 11520, Note_on_c, 3, 70, 88
7, 11636, Note_off_c, 3, 70, 0
7, 11640, Note_on_c, 3, 63, 88
7, 11756, Note_off_c, 3, 63, 0
7, 11760, Note_on_c, 3, 68, 88
7, 12113, Note_off_c, 3, 68, 0
7, 12120, Note_on_c, 3, 62, 88
7, 12236, Note_off_c, 3, 62, 0
7, 12240, Note_on_c, 3, 63, 88
7, 12356, Note_off_c, 3, 63, 0
7, 12360, Note_on_c, 3, 65, 88
7, 12476, Note_off_c, 3, 65, 0
7, 12480, Note_on_c, 3, 58, 88
7, 12596, Note_off_c, 3, 58, 0
7, 12600, Note_on_c, 3, 63, 88
7, 12834, Note_off_c, 3, 63, 0
7, 12840, Note_on_c, 3, 62, 88
7, 12956, Note_off_c, 3, 62, 0
7, 12960, Note_on_c, 3, 66, 88
7, 13313, Note_off_c, 3, 66, 0
7, 13320, Note_on_c, 3, 65, 88
7, 13378, Note_off_c, 3, 65, 0
7, 13380, Note_on_c, 3, 63, 88
7, 13438, Note_off_c, 3, 63, 0
7, 13440, Note_on_c, 3, 62, 88
7, 13556, Note_off_c, 3, 62, 0
7, 13560, Note_on_c, 3, 63, 88
7, 13794, Note_off_c, 3, 63, 0
7, 13800, Note_on_c, 3, 61, 88
7, 13975, Note_off_c, 3, 61, 0
7, 13980, Note_on_c, 3, 59, 88
7, 14038, Note_off_c, 3, 59, 0
7, 14040, Note_on_c, 3, 58, 88
7, 14098, Note_off_c, 3, 58, 0
7, 14100, Note_on_c, 3, 56, 88
7, 14158, Note_off_c, 3, 56, 0
7, 14160, Note_on_c, 3, 55, 88
7, 14218, Note_off_c, 3, 55, 0
7, 14220, Note_on_c, 3, 56, 88
7, 14278, Note_off_c, 3, 56, 0
7, 14280, Note_on_c, 3, 58, 88
7, 14338, Note_off_c, 3, 58, 0
7, 14340, Note_on_c, 3, 59, 88
7, 14398, Note_off_c, 3, 59, 0
7, 14400, Note_on_c, 3, 61, 88
7, 14458, Note_off_c, 3, 61, 0
7, 14460, Note_on_c, 3, 63, 88
7, 14518, Note_off_c, 3, 63, 0
7, 14520, Note_on_c, 3, 61, 88
7, 14578, Note_off_c, 3, 61, 0
7, 14580, Note_on_c, 3, 59, 88
7, 14638, Note_off_c, 3, 59, 0
7, 14640, Note_on_c, 3, 58, 88
7, 14698, Note_off_c, 3, 58, 0
7, 14700, Note_on_c, 3, 56, 88
7, 14758, Note_off_c, 3, 56, 0
7, 14760, Note_on_c, 3, 54, 88
7, 14818, Note_off_c, 3, 54, 0
7, 14820, Note_on_c, 3, 53, 88
7, 14878, Note_off_c, 3, 53, 0
7, 14880, Note_on_c, 3, 51, 88
7, 15114, Note_off_c, 3, 51, 0
7, 15240, Note_on_c, 3, 58, 88
7, 15356, Note_off_c, 3, 58, 0
7, 15360, Note_on_c, 3, 63, 88
7, 15418, Note_off_c, 3, 63, 0
7, 15420, Note_on_c, 3, 64, 88
7, 15478, Note_off_c, 3, 64, 0
7, 15480, Note_on_c, 3, 63, 88
7, 15538, Note_off_c, 3, 63, 0
7, 15540, Note_on_c, 3, 61, 88
7, 15598, Note_off_c, 3, 61, 0
7, 15600, Note_on_c, 3, 59, 88
7, 15658, Note_off_c, 3, 59, 0
7, 15660, Note_on_c, 3, 61, 88
7, 15718, Note_off_c, 3, 61, 0
7, 15720, Note_on_c, 3, 63, 88
7, 15895, Note_off_c, 3, 63, 0
7, 15900, Note_on_c, 3, 61, 88
7, 15958, Note_off_c, 3, 61, 0
7, 15960, Note_on_c, 3, 59, 88
7, 16018, Note_off_c, 3, 59, 0
7, 16020, Note_on_c, 3, 58, 88
7, 16078, Note_off_c, 3, 58, 0
7, 16080, Note_on_c, 3, 56, 88
7, 16138, Note_off_c, 3, 56, 0
7, 16140, Note_on_c, 3, 58, 88
7, 16198, Note_off_c, 3, 58, 0
7, 16200, Note_on_c, 3, 59, 88
7, 16258, Note_off_c, 3, 59, 0
7, 16260, Note_on_c, 3, 56, 88
7, 16318, Note_off_c, 3, 56, 0
7, 16320, Note_on_c, 3, 58, 88
7, 16436, Note_off_c, 3, 58, 0
7, 16440, Note_on_c, 3, 63, 88
7, 16556, Note_off_c, 3, 63, 0
7, 16560, Note_on_c, 3, 56, 88
7, 16676, Note_off_c, 3, 56, 0
7, 16680, Note_on_c, 3, 68, 88
7, 16796, Note_off_c, 3, 68, 0
7, 16800, Note_on_c, 3, 61, 88
7, 17385, Note_off_c, 3, 61, 0
7, 17400, Note_on_c, 3, 61, 88
7, 17505, Note_off_c, 3, 61, 0
7, 17520, Note_on_c, 3, 61, 88
7, 17625, Note_off_c, 3, 61, 0
7, 17640, Note_on_c, 3, 61, 88
7, 17756, Note_off_c, 3, 61, 0
7, 17760, Note_on_c, 3, 58, 88
7, 17876, Note_off_c, 3, 58, 0
7, 17880, Note_on_c, 3, 59, 88
7, 17996, Note_off_c, 3, 59, 0
7, 18000, Note_on_c, 3, 61, 88
7, 18356, Note_off_c, 3, 61, 0
7, 18360, Note_on_c, 3, 59, 88
7, 18476, Note_off_c, 3, 59, 0
7, 18480, Note_on_c, 3, 64, 88
7, 18833, Note_off_c, 3, 64, 0
7, 18840, Note_on_c, 3, 63, 88
7, 18898, Note_off_c, 3, 63, 0
7, 18900, Note_on_c, 3, 61, 88
7, 18958, Note_off_c, 3, 61, 0
7, 18960, Note_on_c, 3, 66, 88
7, 19076, Note_off_c, 3, 66, 0
7, 19080, Note_on_c, 3, 64, 88
7, 19196, Note_off_c, 3, 64, 0
7, 19200, Note_on_c, 3, 63, 88
7, 19316, Note_off_c, 3, 63, 0
7, 19320, Note_on_c, 3, 55, 88
7, 19436, Note_off_c, 3, 55, 0
7, 19440, Note_on_c, 3, 56, 88
7, 19556, Note_off_c, 3, 56, 0
7, 19560, Note_on_c, 3, 57, 88
7, 19676, Note_off_c, 3, 57, 0
7, 19680, Note_on_c, 3, 58, 88
7, 20033, Note_off_c, 3, 58, 0
7, 20040, Note_on_c, 3, 56, 88
7, 20098, Note_off_c, 3, 56, 0
7, 20100, Note_on_c, 3, 58, 88
7, 20158, Note_off_c, 3, 58, 0
7, 20160, Note_on_c, 3, 59, 88
7, 20513, Note_off_c, 3, 59, 0
7, 20520, Note_on_c, 3, 58, 88
7, 20578, Note_off_c, 3, 58, 0
7, 20580, Note_on_c, 3, 60, 88
7, 20638, Note_off_c, 3, 60, 0
7, 20640, Note_on_c, 3, 61, 88
7, 20993, Note_off_c, 3, 61, 0
7, 21000, Note_on_c, 3, 60, 88
7, 21058, Note_off_c, 3, 60, 0
7, 21060, Note_on_c, 3, 62, 88
7, 21118, Note_off_c, 3, 62, 0
7, 21120, Note_on_c, 3, 63, 88
7, 21414, Note_off_c, 3, 63, 0
7, 21420, Note_on_c, 3, 64, 88
7, 21478, Note_off_c, 3, 64, 0
7, 21480, Note_on_c, 3, 63, 88
7, 21538, Note_off_c, 3, 63, 0
7, 21540, Note_on_c, 3, 61, 88
7, 21598, Note_off_c, 3, 61, 0
7, 21600, Note_on_c, 3, 59, 88
7, 21953, Note_off_c, 3, 59, 0
7, 21960, Note_on_c, 3, 58, 88
7, 22018, Note_off_c, 3, 58, 0
7, 22020, Note_on_c, 3, 56, 88
7, 22078, Note_off_c, 3, 56, 0
7, 22080, Note_on_c, 3, 58, 88
7, 22196, Note_off_c, 3, 58, 0
7, 22200, Note_on_c, 3, 64, 88
7, 22305, Note_off_c, 3, 64, 0
7, 22320, Note_on_c, 3, 64, 88
7, 22425, Note_off_c, 3, 64, 0
7, 22440, Note_on_c, 3, 64, 88
7, 22556, Note_off_c, 3, 64, 0
7, 22560, Note_on_c, 3, 63, 88
7, 22676, Note_off_c, 3, 63, 0
7, 22680, Note_on_c, 3, 65, 88
7, 22796, Note_off_c, 3, 65, 0
7, 22800, Note_on_c, 3, 67, 88
7, 22916, Note_off_c, 3, 67, 0
7, 22920, Note_on_c, 3, 68, 88
7, 23036, Note_off_c, 3, 68, 0
7, 23040, Note_on_c, 3, 70, 88
7, 23156, Note_off_c, 3, 70, 0
7, 23160, Note_on_c, 3, 68, 88
7, 23276, Note_off_c, 3, 68, 0
7, 23280, Note_on_c, 3, 67, 88
7, 23514, Note_off_c, 3, 67, 0
7, 23520, Note_on_c, 3, 68, 88
7, 23636, Note_off_c, 3, 68, 0
7, 23640, Note_on_c, 3, 66, 88
7, 23874, Note_off_c, 3, 66, 0
7, 23880, Note_on_c, 3, 65, 88
7, 23938, Note_off_c, 3, 65, 0
7, 23940, Note_on_c, 3, 63, 88
7, 23998, Note_off_c, 3, 63, 0
7, 24000, Note_on_c, 3, 62, 88
7, 24116, Note_off_c, 3, 62, 0
7, 24120, Note_on_c, 3, 63, 88
7, 24354, Note_off_c, 3, 63, 0
7, 24360, Note_on_c, 3, 62, 88
7, 24418, Note_off_c, 3, 62, 0
7, 24420, Note_on_c, 3, 60, 88
7, 24478, Note_off_c, 3, 60, 0
7, 24480, Note_on_c, 3, 62, 88
7, 24714, Note_off_c, 3, 62, 0
7, 24720, Note_on_c, 3, 61, 88
7, 25076, Note_off_c, 3, 61, 0
7, 25080, Note_on_c, 3, 59, 88
7, 25138, Note_off_c, 3, 59, 0
7, 25140, Note_on_c, 3, 58, 88
7, 25198, Note_off_c, 3, 58, 0
7, 25200, Note_on_c, 3, 59, 88
7, 25316, Note_off_c, 3, 59, 0
7, 25320, Note_on_c, 3, 64, 88
7, 25436, Note_off_c, 3, 64, 0
7, 25440, Note_on_c, 3, 61, 88
7, 25556, Note_off_c, 3, 61, 0
7, 25560, Note_on_c, 3, 58, 88
7, 25676, Note_off_c, 3, 58, 0
7, 25680, Note_on_c, 3, 63, 88
7, 25796, Note_off_c, 3, 63, 0
7, 25800, Note_on_c, 3, 64, 88
7, 25916, Note_off_c, 3, 64, 0
7, 25920, Note_on_c, 3, 63, 88
7, 26036, Note_off_c, 3, 63, 0
7, 26040, Note_on_c, 3, 61, 88
7, 26274, Note_off_c, 3, 61, 0
7, 26280, Note_on_c, 3, 60, 88
7, 26396, Note_off_c, 3, 60, 0
7, 26400, Note_on_c, 3, 61, 88
7, 26753, Note_off_c, 3, 61, 0
7, 26760, Note_on_c, 3, 63, 88
7, 26876, Note_off_c, 3, 63, 0
7, 26880, Note_on_c, 3, 60, 88
7, 26996, Note_off_c, 3, 60, 0
7, 27000, Note_on_c, 3, 61, 88
7, 27116, Note_off_c, 3, 61, 0
7, 27120, Note_on_c, 3, 62, 88
7, 27354, Note_off_c, 3, 62, 0
7, 27360, Note_on_c, 3, 61, 88
7, 27476, Note_off_c, 3, 61, 0
7, 27480, Note_on_c, 3, 63, 88
7, 27538, Note_off_c, 3, 63, 0
7, 27540, Note_on_c, 3, 65, 88
7, 27598, Note_off_c, 3, 65, 0
7, 27600, Note_on_c, 3, 66, 88
7, 27658, Note_off_c, 3, 66, 0
7, 27660, Note_on_c, 3, 68, 88
7, 27718, Note_off_c, 3, 68, 0
7, 27720, Note_on_c, 3, 69, 88
7, 27956, Note_off_c, 3, 69, 0
7, 27960, Note_on_c, 3, 68, 88
7, 28018, Note_off_c, 3, 68, 0
7, 28020, Note_on_c, 3, 66, 88
7, 28078, Note_off_c, 3, 66, 0
7, 28080, Note_on_c, 3, 68, 88
7, 28314, Note_off_c, 3, 68, 0
7, 28320, Note_on_c, 3, 66, 88
7, 28436, Note_off_c, 3, 66, 0
7, 29880, Note_on_c, 3, 63, 88
7, 29985, Note_off_c, 3, 63, 0
7, 30000, Note_on_c, 3, 63, 88
7, 30105, Note_off_c, 3, 63, 0
7, 30120, Note_on_c, 3, 63, 88
7, 30236, Note_off_c, 3, 63, 0
7, 30240, Note_on_c, 3, 61, 88
7, 30356, Note_off_c, 3, 61, 0
7, 30360, Note_on_c, 3, 63, 88
7, 30476, Note_off_c, 3, 63, 0
7, 30480, Note_on_c, 3, 64, 88
7, 30836, Note_off_c, 3, 64, 0
7, 30840, Note_on_c, 3, 63, 88
7, 30956, Note_off_c, 3, 63, 0
7, 30960, Note_on_c, 3, 68, 88
7, 31313, Note_off_c, 3, 68, 0
7, 31320, Note_on_c, 3, 66, 88
7, 31378, Note_off_c, 3, 66, 0
7, 31380, Note_on_c, 3, 65, 88
7, 31438, Note_off_c, 3, 65, 0
7, 31440, Note_on_c, 3, 70, 88
7, 31556, Note_off_c, 3, 70, 0
7, 31560, Note_on_c, 3, 68, 88
7, 31676, Note_off_c, 3, 68, 0
7, 31680, Note_on_c, 3, 66, 88
7, 31855, Note_off_c, 3, 66, 0
7, 31860, Note_on_c, 3, 65, 88
7, 31918, Note_off_c, 3, 65, 0
7, 31920, Note_on_c, 3, 63, 88
7, 32036, Note_off_c, 3, 63, 0
7, 32040, Note_on_c, 3, 61, 88
7, 32156, Note_off_c, 3, 61, 0
7, 32160, Note_on_c, 3, 60, 88
7, 32394, Note_off_c, 3, 60, 0
7, 32400, Note_on_c, 3, 61, 88
7, 32634, Note_off_c, 3, 61, 0
7, 32640, Note_on_c, 3, 60, 88
7, 32756, Note_off_c, 3, 60, 0
7, 32760, Note_on_c, 3, 61, 88
7, 32818, Note_off_c, 3, 61, 0
7, 32820, Note_on_c, 3, 58, 88
7, 32878, Note_off_c, 3, 58, 0
7, 32880, Note_on_c, 3, 60, 88
7, 33114, Note_off_c, 3, 60, 0
7, 33120, Note_on_c, 3, 58, 88
7, 33236, Note_off_c, 3, 58, 0
7, 33240, Note_on_c, 3, 60, 88
7, 33356, Note_off_c, 3, 60, 0
7, 33360, Note_on_c, 3, 61, 88
7, 33716, Note_off_c, 3, 61, 0
7, 33720, Note_on_c, 3, 55, 88
7, 33836, Note_off_c, 3, 55, 0
7, 33840, Note_on_c, 3, 56, 88
7, 33956, Note_off_c, 3, 56, 0
7, 33960, Note_on_c, 3, 58, 88
7, 34076, Note_off_c, 3, 58, 0
7, 34080, Note_on_c, 3, 51, 88
7, 34196, Note_off_c, 3, 51, 0
7, 34200, Note_on_c, 3, 56, 88
7, 34434, Note_off_c, 3, 56, 0
7, 34440, Note_on_c, 3, 55, 88
7, 34556, Note_off_c, 3, 55, 0
7, 34560, Note_on_c, 3, 59, 88
7, 34913, Note_off_c, 3, 59, 0
7, 34920, Note_on_c, 3, 58, 88
7, 34978, Note_off_c, 3, 58, 0
7, 34980, Note_on_c, 3, 56, 88
7, 35038, Note_off_c, 3, 56, 0
7, 35040, Note_on_c, 3, 58, 88
7, 35156, Note_off_c, 3, 58, 0
7, 35160, Note_on_c, 3, 63, 88
7, 35394, Note_off_c, 3, 63, 0
7, 35400, Note_on_c, 3, 62, 88
7, 35516, Note_off_c, 3, 62, 0
7, 35520, Note_on_c, 3, 66, 88
7, 35873, Note_off_c, 3, 66, 0
7, 35880, Note_on_c, 3, 65, 88
7, 35938, Note_off_c, 3, 65, 0
7, 35940, Note_on_c, 3, 63, 88
7, 35998, Note_off_c, 3, 63, 0
7, 36000, Note_on_c, 3, 65, 88
7, 36116, Note_off_c, 3, 65, 0
7, 36120, Note_on_c, 3, 70, 88
7, 36354, Note_off_c, 3, 70, 0
7, 36360, Note_on_c, 3, 68, 88
7, 36476, Note_off_c, 3, 68, 0
7, 36480, Note_on_c, 3, 67, 88
7, 36596, Note_off_c, 3, 67, 0
7, 36600, Note_on_c, 3, 63, 88
7, 36716, Note_off_c, 3, 63, 0
7, 36720, Note_on_c, 3, 68, 88
7, 37073, Note_off_c, 3, 68, 0
7, 37080, Note_on_c, 3, 66, 88
7, 37245, Note_off_c, 3, 66, 0
7, 37260, Note_on_c, 3, 66, 88
7, 37318, Note_off_c, 3, 66, 0
7, 37320, Note_on_c, 3, 65, 88
7, 37378, Note_off_c, 3, 65, 0
7, 37380, Note_on_c, 3, 63, 88
7, 37438, Note_off_c, 3, 63, 0
7, 37440, Note_on_c, 3, 62, 88
7, 37498, Note_off_c, 3, 62, 0
7, 37500, Note_on_c, 3, 65, 88
7, 37558, Note_off_c, 3, 65, 0
7, 37560, Note_on_c, 3, 63, 88
7, 37618, Note_off_c, 3, 63, 0
7, 37620, Note_on_c, 3, 61, 88
7, 37678, Note_off_c, 3, 61, 0
7, 37680, Note_on_c, 3, 60, 88
7, 37796, Note_off_c, 3, 60, 0
7, 37800, Note_on_c, 3, 59, 88
7, 37916, Note_off_c, 3, 59, 0
7, 37920, Note_on_c, 3, 58, 88
7, 38154, Note_off_c, 3, 58, 0
7, 38280, Note_on_c, 3, 60, 88
7, 38396, Note_off_c, 3, 60, 0
7, 38400, Note_on_c, 3, 65, 88
7, 38516, Note_off_c, 3, 65, 0
7, 38760, Note_on_c, 3, 65, 88
7, 38876, Note_off_c, 3, 65, 0
7, 38880, Note_on_c, 3, 58, 88
7, 38996, Note_off_c, 3, 58, 0
7, 39240, Note_on_c, 3, 63, 88
7, 39356, Note_off_c, 3, 63, 0
7, 39360, Note_on_c, 3, 65, 88
7, 39476, Note_off_c, 3, 65, 0
7, 39720, Note_on_c, 3, 62, 88
7, 39836, Note_off_c, 3, 62, 0
7, 39840, Note_on_c, 3, 63, 88
7, 39956, Note_off_c, 3, 63, 0
7, 39960, Note_on_c, 3, 58, 88
7, 40018, Note_off_c, 3, 58, 0
7, 40020, Note_on_c, 3, 56, 88
7, 40078, Note_off_c, 3, 56, 0
7, 40080, Note_on_c, 3, 58, 88
7, 40196, Note_off_c, 3, 58, 0
7, 40200, Note_on_c, 3, 59, 88
7, 40316, Note_off_c, 3, 59, 0
7, 40320, Note_on_c, 3, 58, 88
7, 40732, Note_off_c, 3, 58, 0
7, 40740, Note_on_c, 3, 56, 88
7, 40798, Note_off_c, 3, 56, 0
7, 40800, Note_on_c, 3, 54, 88
7, 40916, Note_off_c, 3, 54, 0
7, 40920, Note_on_c, 3, 58, 88
7, 41025, Note_off_c, 3, 58, 0
7, 41040, Note_on_c, 3, 58, 88
7, 41145, Note_off_c, 3, 58, 0
7, 41160, Note_on_c, 3, 58, 88
7, 41276, Note_off_c, 3, 58, 0
7, 41280, Note_on_c, 3, 59, 88
7, 41396, Note_off_c, 3, 59, 0
7, 41400, Note_on_c, 3, 58, 88
7, 41516, Note_off_c, 3, 58, 0
7, 41520, Note_on_c, 3, 56, 88
7, 41873, Note_off_c, 3, 56, 0
7, 41880, Note_on_c, 3, 58, 88
7, 41996, Note_off_c, 3, 58, 0
7, 42000, Note_on_c, 3, 53, 88
7, 42356, Note_off_c, 3, 53, 0
7, 42360, Note_on_c, 3, 54, 88
7, 42418, Note_off_c, 3, 54, 0
7, 42420, Note_on_c, 3, 56, 88
7, 42478, Note_off_c, 3, 56, 0
7, 42480, Note_on_c, 3, 51, 88
7, 42596, Note_off_c, 3, 51, 0
7, 42600, Note_on_c, 3, 53, 88
7, 42716, Note_off_c, 3, 53, 0
7, 42720, Note_on_c, 3, 54, 88
7, 42836, Note_off_c, 3, 54, 0
7, 42840, Note_on_c, 3, 59, 88
7, 42956, Note_off_c, 3, 59, 0
7, 42960, Note_on_c, 3, 58, 88
7, 43076, Note_off_c, 3, 58, 0
7, 43080, Note_on_c, 3, 51, 88
7, 43138, Note_off_c, 3, 51, 0
7, 43140, Note_on_c, 3, 53, 88
7, 43198, Note_off_c, 3, 53, 0
7, 43200, Note_on_c, 3, 54, 88
7, 43316, Note_off_c, 3, 54, 0
7, 43320, Note_on_c, 3, 53, 88
7, 43378, Note_off_c, 3, 53, 0
7, 43380, Note_on_c, 3, 51, 88
7, 43438, Note_off_c, 3, 51, 0
7, 43440, Note_on_c, 3, 58, 88
7, 43556, Note_off_c, 3, 58, 0
7, 43560, Note_on_c, 3, 65, 88
7, 43676, Note_off_c, 3, 65, 0
7, 43680, Note_on_c, 3, 63, 88
7, 44150, Note_off_c, 3, 63, 0
7, 44150, End_track
8, 0, Start_track
8, 0, Title_t, "Track 5"
8, 0, Program_c, 4, 6
8, 5880, Note_on_c, 4, 51, 88
8, 5985, Note_off_c, 4, 51, 0
8, 6000, Note_on_c, 4, 51, 88
8, 6105, Note_off_c, 4, 51, 0
8, 6120, Note_on_c, 4, 51, 88
8, 6236, Note_off_c, 4, 51, 0
8, 6240, Note_on_c, 4, 50, 88
8, 6356, Note_off_c, 4, 50, 0
8, 6360, Note_on_c, 4, 51, 88
8, 6476, Note_off_c, 4, 51, 0
8, 6480, Note_on_c, 4, 53, 88
8, 6836, Note_off_c, 4, 53, 0
8, 6840, Note_on_c, 4, 51, 88
8, 6956, Note_off_c, 4, 51, 0
8, 6960, Note_on_c, 4, 56, 88
8, 7313, Note_off_c, 4, 56, 0
8, 7320, Note_on_c, 4, 54, 88
8, 7378, Note_off_c, 4, 54, 0
8, 7380, Note_on_c, 4, 53, 88
8, 7438, Note_off_c, 4, 53, 0
8, 7440, Note_on_c, 4, 58, 88
8, 7556, Note_off_c, 4, 58, 0
8, 7560, Note_on_c, 4, 56, 88
8, 7676, Note_off_c, 4, 56, 0
8, 7680, Note_on_c, 4, 54, 88
8, 7796, Note_off_c, 4, 54, 0
8, 7800, Note_on_c, 4, 53, 88
8, 7916, Note_off_c, 4, 53, 0
8, 7920, Note_on_c, 4, 51, 88
8, 8036, Note_off_c, 4, 51, 0
8, 8040, Note_on_c, 4, 49, 88
8, 8098, Note_off_c, 4, 49, 0
8, 8100, Note_on_c, 4, 51, 88
8, 8158, Note_off_c, 4, 51, 0
8, 8160, Note_on_c, 4, 53, 88
8, 8513, Note_off_c, 4, 53, 0
8, 8520, Note_on_c, 4, 51, 88
8, 8578, Note_off_c, 4, 51, 0
8, 8580, Note_on_c, 4, 53, 88
8, 8638, Note_off_c, 4, 53, 0
8, 8640, Note_on_c, 4, 54, 88
8, 8993, Note_off_c, 4, 54, 0
8, 9000, Note_on_c, 4, 53, 88
8, 9058, Note_off_c, 4, 53, 0
8, 9060, Note_on_c, 4, 55, 88
8, 9118, Note_off_c, 4, 55, 0
8, 9120, Note_on_c, 4, 56, 88
8, 9473, Note_off_c, 4, 56, 0
8, 9480, Note_on_c, 4, 55, 88
8, 9538, Note_off_c, 4, 55, 0
8, 9540, Note_on_c, 4, 57, 88
8, 9598, Note_off_c, 4, 57, 0
8, 9600, Note_on_c, 4, 58, 88
8, 9716, Note_off_c, 4, 58, 0
8, 9720, Note_on_c, 4, 60, 88
8, 9836, Note_off_c, 4, 60, 0
8, 9840, Note_on_c, 4, 61, 88
8, 10193, Note_off_c, 4, 61, 0
8, 10200, Note_on_c, 4, 55, 88
8, 10316, Note_off_c, 4, 55, 0
8, 10320, Note_on_c, 4, 56, 88
8, 10436, Note_off_c, 4, 56, 0
8, 10440, Note_on_c, 4, 58, 88
8, 10556, Note_off_c, 4, 58, 0
8, 10560, Note_on_c, 4, 51, 88
8, 10676, Note_off_c, 4, 51, 0
8, 10680, Note_on_c, 4, 56, 88
8, 10914, Note_off_c, 4, 56, 0
8, 10920, Note_on_c, 4, 55, 88
8, 11036, Note_off_c, 4, 55, 0
8, 11040, Note_on_c, 4, 59, 88
8, 11393, Note_off_c, 4, 59, 0
8, 11400, Note_on_c, 4, 58, 88
8, 11458, Note_off_c, 4, 58, 0
8, 11460, Note_on_c, 4, 56, 88
8, 11518, Note_off_c, 4, 56, 0
8, 11520, Note_on_c, 4, 63, 88
8, 11636, Note_off_c, 4, 63, 0
8, 11640, Note_on_c, 4, 61, 88
8, 11756, Note_off_c, 4, 61, 0
8, 11760, Note_on_c, 4, 59, 88
8, 11994, Note_off_c, 4, 59, 0
8, 12000, Note_on_c, 4, 58, 88
8, 12353, Note_off_c, 4, 58, 0
8, 12360, Note_on_c, 4, 56, 88
8, 12476, Note_off_c, 4, 56, 0
8, 12480, Note_on_c, 4, 54, 88
8, 12714, Note_off_c, 4, 54, 0
8, 12720, Note_on_c, 4, 53, 88
8, 12954, Note_off_c, 4, 53, 0
8, 12960, Note_on_c, 4, 51, 88
8, 13076, Note_off_c, 4, 51, 0
8, 13080, Note_on_c, 4, 49, 88
8, 13196, Note_off_c, 4, 49, 0
8, 13200, Note_on_c, 4, 47, 88
8, 13316, Note_off_c, 4, 47, 0
8, 13320, Note_on_c, 4, 59, 88
8, 13436, Note_off_c, 4, 59, 0
8, 13440, Note_on_c, 4, 58, 88
8, 13556, Note_off_c, 4, 58, 0
8, 13560, Note_on_c, 4, 46, 88
8, 13665, Note_off_c, 4, 46, 0
8, 13680, Note_on_c, 4, 46, 88
8, 13785, Note_off_c, 4, 46, 0
8, 13800, Note_on_c, 4, 46, 88
8, 13916, Note_off_c, 4, 46, 0
8, 13920, Note_on_c, 4, 43, 88
8, 14036, Note_off_c, 4, 43, 0
8, 14040, Note_on_c, 4, 44, 88
8, 14156, Note_off_c, 4, 44, 0
8, 14160, Note_on_c, 4, 46, 88
8, 14516, Note_off_c, 4, 46, 0
8, 14520, Note_on_c, 4, 44, 88
8, 14636, Note_off_c, 4, 44, 0
8, 14640, Note_on_c, 4, 49, 88
8, 14993, Note_off_c, 4, 49, 0
8, 15000, Note_on_c, 4, 47, 88
8, 15058, Note_off_c, 4, 47, 0
8, 15060, Note_on_c, 4, 46, 88
8, 15118, Note_off_c, 4, 46, 0
8, 15120, Note_on_c, 4, 51, 88
8, 15236, Note_off_c, 4, 51, 0
8, 15240, Note_on_c, 4, 49, 88
8, 15356, Note_off_c, 4, 49, 0
8, 15360, Note_on_c, 4, 47, 88
8, 15535, Note_off_c, 4, 47, 0
8, 15540, Note_on_c, 4, 46, 88
8, 15598, Note_off_c, 4, 46, 0
8, 15600, Note_on_c, 4, 44, 88
8, 15658, Note_off_c, 4, 44, 0
8, 15660, Note_on_c, 4, 46, 88
8, 15718, Note_off_c, 4, 46, 0
8, 15720, Note_on_c, 4, 47, 88
8, 15778, Note_off_c, 4, 47, 0
8, 15780, Note_on_c, 4, 44, 88
8, 15838, Note_off_c, 4, 44, 0
8, 15840, Note_on_c, 4, 49, 88
8, 15956, Note_off_c, 4, 49, 0
8, 15960, Note_on_c, 4, 51, 88
8, 16076, Note_off_c, 4, 51, 0
8, 16080, Note_on_c, 4, 53, 88
8, 16196, Note_off_c, 4, 53, 0
8, 16200, Note_on_c, 4, 49, 88
8, 16316, Note_off_c, 4, 49, 0
8, 16320, Note_on_c, 4, 54, 88
8, 16673, Note_off_c, 4, 54, 0
8, 16680, Note_on_c, 4, 53, 88
8, 16738, Note_off_c, 4, 53, 0
8, 16740, Note_on_c, 4, 51, 88
8, 16798, Note_off_c, 4, 51, 0
8, 16800, Note_on_c, 4, 53, 88
8, 16858, Note_off_c, 4, 53, 0
8, 16860, Note_on_c, 4, 56, 88
8, 16918, Note_off_c, 4, 56, 0
8, 16920, Note_on_c, 4, 49, 88
8, 16978, Note_off_c, 4, 49, 0
8, 16980, Note_on_c, 4, 51, 88
8, 17038, Note_off_c, 4, 51, 0
8, 17040, Note_on_c, 4, 53, 88
8, 17098, Note_off_c, 4, 53, 0
8, 17100, Note_on_c, 4, 54, 88
8, 17158, Note_off_c, 4, 54, 0
8, 17160, Note_on_c, 4, 56, 88
8, 17218, Note_off_c, 4, 56, 0
8, 17220, Note_on_c, 4, 53, 88
8, 17278, Note_off_c, 4, 53, 0
8, 17280, Note_on_c, 4, 54, 88
8, 17396, Note_off_c, 4, 54, 0
8, 17400, Note_on_c, 4, 53, 88
8, 17458, Note_off_c, 4, 53, 0
8, 17460, Note_on_c, 4, 51, 88
8, 17518, Note_off_c, 4, 51, 0
8, 17520, Note_on_c, 4, 49, 88
8, 17578, Note_off_c, 4, 49, 0
8, 17580, Note_on_c, 4, 51, 88
8, 17638, Note_off_c, 4, 51, 0
8, 17640, Note_on_c, 4, 52, 88
8, 17698, Note_off_c, 4, 52, 0
8, 17700, Note_on_c, 4, 49, 88
8, 17758, Note_off_c, 4, 49, 0
8, 17760, Note_on_c, 4, 51, 88
8, 18054, Note_off_c, 4, 51, 0
8, 18060, Note_on_c, 4, 39, 88
8, 18118, Note_off_c, 4, 39, 0
8, 18120, Note_on_c, 4, 41, 88
8, 18178, Note_off_c, 4, 41, 0
8, 18180, Note_on_c, 4, 43, 88
8, 18238, Note_off_c, 4, 43, 0
8, 18240, Note_on_c, 4, 44, 88
8, 18593, Note_off_c, 4, 44, 0
8, 18600, Note_on_c, 4, 43, 88
8, 18658, Note_off_c, 4, 43, 0
8, 18660, Note_on_c, 4, 44, 88
8, 18718, Note_off_c, 4, 44, 0
8, 18720, Note_on_c, 4, 46, 88
8, 19073, Note_off_c, 4, 46, 0
8, 19080, Note_on_c, 4, 44, 88
8, 19138, Note_off_c, 4, 44, 0
8, 19140, Note_on_c, 4, 46, 88
8, 19198, Note_off_c, 4, 46, 0
8, 19200, Note_on_c, 4, 47, 88
8, 19670, Note_off_c, 4, 47, 0
8, 19680, Note_on_c, 4, 46, 88
8, 19796, Note_off_c, 4, 46, 0
8, 19800, Note_on_c, 4, 48, 88
8, 19916, Note_off_c, 4, 48, 0
8, 19920, Note_on_c, 4, 50, 88
8, 20036, Note_off_c, 4, 50, 0
8, 20040, Note_on_c, 4, 48, 88
8, 20098, Note_off_c, 4, 48, 0
8, 20100, Note_on_c, 4, 50, 88
8, 20158, Note_off_c, 4, 50, 0
8, 20160, Note_on_c, 4, 51, 88
8, 20276, Note_off_c, 4, 51, 0
8, 20280, Note_on_c, 4, 50, 88
8, 20338, Note_off_c, 4, 50, 0
8, 20340, Note_on_c, 4, 51, 88
8, 20398, Note_off_c, 4, 51, 0
8, 20400, Note_on_c, 4, 53, 88
8, 20753, Note_off_c, 4, 53, 0
8, 20760, Note_on_c, 4, 51, 88
8, 20818, Note_off_c, 4, 51, 0
8, 20820, Note_on_c, 4, 53, 88
8, 20878, Note_off_c, 4, 53, 0
8, 20880, Note_on_c, 4, 54, 88
8, 21236, Note_off_c, 4, 54, 0
8, 21240, Note_on_c, 4, 53, 88
8, 21298, Note_off_c, 4, 53, 0
8, 21300, Note_on_c, 4, 55, 88
8, 21358, Note_off_c, 4, 55, 0
8, 21360, Note_on_c, 4, 56, 88
8, 21713, Note_off_c, 4, 56, 0
8, 21720, Note_on_c, 4, 54, 88
8, 21836, Note_off_c, 4, 54, 0
8, 21840, Note_on_c, 4, 52, 88
8, 22074, Note_off_c, 4, 52, 0
8, 22080, Note_on_c, 4, 51, 88
8, 22314, Note_off_c, 4, 51, 0
8, 22320, Note_on_c, 4, 49, 88
8, 22554, Note_off_c, 4, 49, 0
8, 22560, Note_on_c, 4, 47, 88
8, 22913, Note_off_c, 4, 47, 0
8, 22920, Note_on_c, 4, 46, 88
8, 22978, Note_off_c, 4, 46, 0
8, 22980, Note_on_c, 4, 44, 88
8, 23038, Note_off_c, 4, 44, 0
8, 23040, Note_on_c, 4, 43, 88
8, 23156, Note_off_c, 4, 43, 0
8, 23160, Note_on_c, 4, 51, 88
8, 23265, Note_off_c, 4, 51, 0
8, 23280, Note_on_c, 4, 51, 88
8, 23385, Note_off_c, 4, 51, 0
8, 23400, Note_on_c, 4, 51, 88
8, 23516, Note_off_c, 4, 51, 0
8, 23520, Note_on_c, 4, 50, 88
8, 23636, Note_off_c, 4, 50, 0
8, 23640, Note_on_c, 4, 51, 88
8, 23756, Note_off_c, 4, 51, 0
8, 23760, Note_on_c, 4, 53, 88
8, 24116, Note_off_c, 4, 53, 0
8, 24120, Note_on_c, 4, 51, 88
8, 24236, Note_off_c, 4, 51, 0
8, 24240, Note_on_c, 4, 56, 88
8, 24593, Note_off_c, 4, 56, 0
8, 24600, Note_on_c, 4, 54, 88
8, 24658, Note_off_c, 4, 54, 0
8, 24660, Note_on_c, 4, 53, 88
8, 24718, Note_off_c, 4, 53, 0
8, 24720, Note_on_c, 4, 58, 88
8, 24836, Note_off_c, 4, 58, 0
8, 24840, Note_on_c, 4, 56, 88
8, 24956, Note_off_c, 4, 56, 0
8, 24960, Note_on_c, 4, 55, 88
8, 25076, Note_off_c, 4, 55, 0
8, 25080, Note_on_c, 4, 51, 88
8, 25196, Note_off_c, 4, 51, 0
8, 25200, Note_on_c, 4, 56, 88
8, 25553, Note_off_c, 4, 56, 0
8, 25560, Note_on_c, 4, 55, 88
8, 25618, Note_off_c, 4, 55, 0
8, 25620, Note_on_c, 4, 53, 88
8, 25678, Note_off_c, 4, 53, 0
8, 25680, Note_on_c, 4, 55, 88
8, 25796, Note_off_c, 4, 55, 0
8, 25800, Note_on_c, 4, 54, 88
8, 26036, Note_off_c, 4, 54, 0
8, 26040, Note_on_c, 4, 52, 88
8, 26156, Note_off_c, 4, 52, 0
8, 26160, Note_on_c, 4, 54, 88
8, 26276, Note_off_c, 4, 54, 0
8, 26280, Note_on_c, 4, 56, 88
8, 26396, Note_off_c, 4, 56, 0
8, 26400, Note_on_c, 4, 57, 88
8, 26753, Note_off_c, 4, 57, 0
8, 26760, Note_on_c, 4, 56, 88
8, 26818, Note_off_c, 4, 56, 0
8, 26820, Note_on_c, 4, 54, 88
8, 26878, Note_off_c, 4, 54, 0
8, 26880, Note_on_c, 4, 56, 88
8, 26996, Note_off_c, 4, 56, 0
8, 27000, Note_on_c, 4, 58, 88
8, 27116, Note_off_c, 4, 58, 0
8, 27120, Note_on_c, 4, 59, 88
8, 27473, Note_off_c, 4, 59, 0
8, 27480, Note_on_c, 4, 58, 88
8, 27538, Note_off_c, 4, 58, 0
8, 27540, Note_on_c, 4, 56, 88
8, 27598, Note_off_c, 4, 56, 0
8, 27600, Note_on_c, 4, 58, 88
8, 27716, Note_off_c, 4, 58, 0
8, 27720, Note_on_c, 4, 60, 88
8, 27836, Note_off_c, 4, 60, 0
8, 27840, Note_on_c, 4, 61, 88
8, 28074, Note_off_c, 4, 61, 0
8, 28080, Note_on_c, 4, 49, 88
8, 28314, Note_off_c, 4, 49, 0
8, 28320, Note_on_c, 4, 54, 88
8, 28378, Note_off_c, 4, 54, 0
8, 28380, Note_on_c, 4, 53, 88
8, 28438, Note_off_c, 4, 53, 0
8, 28440, Note_on_c, 4, 54, 88
8, 28498, Note_off_c, 4, 54, 0
8, 28500, Note_on_c, 4, 56, 88
8, 28558, Note_off_c, 4, 56, 0
8, 28560, Note_on_c, 4, 58, 88
8, 28618, Note_off_c, 4, 58, 0
8, 28620, Note_on_c, 4, 54, 88
8, 28678, Note_off_c, 4, 54, 0
8, 28680, Note_on_c, 4, 56, 88
8, 28738, Note_off_c, 4, 56, 0
8, 28740, Note_on_c, 4, 58, 88
8, 28798, Note_off_c, 4, 58, 0
8, 28800, Note_on_c, 4, 59, 88
8, 28858, Note_off_c, 4, 59, 0
8, 28860, Note_on_c, 4, 61, 88
8, 28918, Note_off_c, 4, 61, 0
8, 28920, Note_on_c, 4, 63, 88
8, 28978, Note_off_c, 4, 63, 0
8, 28980, Note_on_c, 4, 59, 88
8, 29038, Note_off_c, 4, 59, 0
8, 29040, Note_on_c, 4, 61, 88
8, 29098, Note_off_c, 4, 61, 0
8, 29100, Note_on_c, 4, 59, 88
8, 29158, Note_off_c, 4, 59, 0
8, 29160, Note_on_c, 4, 58, 88
8, 29218, Note_off_c, 4, 58, 0
8, 29220, Note_on_c, 4, 56, 88
8, 29278, Note_off_c, 4, 56, 0
8, 29280, Note_on_c, 4, 54, 88
8, 29338, Note_off_c, 4, 54, 0
8, 29340, Note_on_c, 4, 56, 88
8, 29398, Note_off_c, 4, 56, 0
8, 29400, Note_on_c, 4, 54, 88
8, 29458, Note_off_c, 4, 54, 0
8, 29460, Note_on_c, 4, 52, 88
8, 29518, Note_off_c, 4, 52, 0
8, 29520, Note_on_c, 4, 51, 88
8, 29578, Note_off_c, 4, 51, 0
8, 29580, Note_on_c, 4, 49, 88
8, 29638, Note_off_c, 4, 49, 0
8, 29640, Note_on_c, 4, 47, 88
8, 29698, Note_off_c, 4, 47, 0
8, 29700, Note_on_c, 4, 46, 88
8, 29758, Note_off_c, 4, 46, 0
8, 29760, Note_on_c, 4, 47, 88
8, 29876, Note_off_c, 4, 47, 0
8, 29880, Note_on_c, 4, 59, 88
8, 29938, Note_off_c, 4, 59, 0
8, 29940, Note_on_c, 4, 58, 88
8, 29998, Note_off_c, 4, 58, 0
8, 30000, Note_on_c, 4, 59, 88
8, 30116, Note_off_c, 4, 59, 0
8, 30120, Note_on_c, 4, 61, 88
8, 30178, Note_off_c, 4, 61, 0
8, 30180, Note_on_c, 4, 59, 88
8, 30238, Note_off_c, 4, 59, 0
8, 30240, Note_on_c, 4, 58, 88
8, 30474, Note_off_c, 4, 58, 0
8, 30480, Note_on_c, 4, 57, 88
8, 30714, Note_off_c, 4, 57, 0
8, 30720, Note_on_c, 4, 56, 88
8, 31014, Note_off_c, 4, 56, 0
8, 31020, Note_on_c, 4, 54, 88
8, 31078, Note_off_c, 4, 54, 0
8, 31080, Note_on_c, 4, 53, 88
8, 31138, Note_off_c, 4, 53, 0
8, 31140, Note_on_c, 4, 51, 88
8, 31198, Note_off_c, 4, 51, 0
8, 31200, Note_on_c, 4, 50, 88
8, 31553, Note_off_c, 4, 50, 0
8, 31560, Note_on_c, 4, 48, 88
8, 31618, Note_off_c, 4, 48, 0
8, 31620, Note_on_c, 4, 46, 88
8, 31678, Note_off_c, 4, 46, 0
8, 31680, Note_on_c, 4, 51, 88
8, 31796, Note_off_c, 4, 51, 0
8, 31800, Note_on_c, 4, 39, 88
8, 31916, Note_off_c, 4, 39, 0
8, 31920, Note_on_c, 4, 51, 88
8, 32036, Note_off_c, 4, 51, 0
8, 32040, Note_on_c, 4, 53, 88
8, 32156, Note_off_c, 4, 53, 0
8, 32160, Note_on_c, 4, 54, 88
8, 32276, Note_off_c, 4, 54, 0
8, 32280, Note_on_c, 4, 53, 88
8, 32338, Note_off_c, 4, 53, 0
8, 32340, Note_on_c, 4, 51, 88
8, 32398, Note_off_c, 4, 51, 0
8, 32400, Note_on_c, 4, 49, 88
8, 32458, Note_off_c, 4, 49, 0
8, 32460, Note_on_c, 4, 48, 88
8, 32518, Note_off_c, 4, 48, 0
8, 32520, Note_on_c, 4, 46, 88
8, 32578, Note_off_c, 4, 46, 0
8, 32580, Note_on_c, 4, 49, 88
8, 32638, Note_off_c, 4, 49, 0
8, 32640, Note_on_c, 4, 41, 88
8, 33110, Note_off_c, 4, 41, 0
8, 33120, Note_on_c, 4, 46, 88
8, 33236, Note_off_c, 4, 46, 0
8, 38040, Note_on_c, 4, 51, 88
8, 38145, Note_off_c, 4, 51, 0
8, 38160, Note_on_c, 4, 51, 88
8, 38265, Note_off_c, 4, 51, 0
8, 38280, Note_on_c, 4, 51, 88
8, 38396, Note_off_c, 4, 51, 0
8, 38400, Note_on_c, 4, 50, 88
8, 38516, Note_off_c, 4, 50, 0
8, 38520, Note_on_c, 4, 51, 88
8, 38636, Note_off_c, 4, 51, 0
8, 38640, Note_on_c, 4, 53, 88
8, 38993, Note_off_c, 4, 53, 0
8, 39000, Note_on_c, 4, 51, 88
8, 39116, Note_off_c, 4, 51, 0
8, 39120, Note_on_c, 4, 56, 88
8, 39476, Note_off_c, 4, 56, 0
8, 39480, Note_on_c, 4, 54, 88
8, 39538, Note_off_c, 4, 54, 0
8, 39540, Note_on_c, 4, 53, 88
8, 39598, Note_off_c, 4, 53, 0
8, 39600, Note_on_c, 4, 58, 88
8, 39716, Note_off_c, 4, 58, 0
8, 39720, Note_on_c, 4, 56, 88
8, 39836, Note_off_c, 4, 56, 0
8, 39840, Note_on_c, 4, 54, 88
8, 39956, Note_off_c, 4, 54, 0
8, 39960, Note_on_c, 4, 51, 88
8, 40018, Note_off_c, 4, 51, 0
8, 40020, Note_on_c, 4, 53, 88
8, 40078, Note_off_c, 4, 53, 0
8, 40080, Note_on_c, 4, 54, 88
8, 40196, Note_off_c, 4, 54, 0
8, 40200, Note_on_c, 4, 56, 88
8, 40316, Note_off_c, 4, 56, 0
8, 40320, Note_on_c, 4, 58, 88
8, 40554, Note_off_c, 4, 58, 0
8, 40560, Note_on_c, 4, 46, 88
8, 40794, Note_off_c, 4, 46, 0
8, 40800, Note_on_c, 4, 51, 88
8, 41385, Note_off_c, 4, 51, 0
8, 41400, Note_on_c, 4, 51, 88
8, 41458, Note_off_c, 4, 51, 0
8, 41460, Note_on_c, 4, 50, 88
8, 41518, Note_off_c, 4, 50, 0
8, 41520, Note_on_c, 4, 51, 88
8, 41578, Note_off_c, 4, 51, 0
8, 41580, Note_on_c, 4, 54, 88
8, 41638, Note_off_c, 4, 54, 0
8, 41640, Note_on_c, 4, 53, 88
8, 41698, Note_off_c, 4, 53, 0
8, 41700, Note_on_c, 4, 51, 88
8, 41758, Note_off_c, 4, 51, 0
8, 41760, Note_on_c, 4, 50, 88
8, 41876, Note_off_c, 4, 50, 0
8, 41880, Note_on_c, 4, 54, 88
8, 41996, Note_off_c, 4, 54, 0
8, 42060, Note_on_c, 4, 47, 88
8, 42118, Note_off_c, 4, 47, 0
8, 42120, Note_on_c, 4, 46, 88
8, 42178, Note_off_c, 4, 46, 0
8, 42180, Note_on_c, 4, 44, 88
8, 42238, Note_off_c, 4, 44, 0
8, 42240, Note_on_c, 4, 46, 88
8, 42415, Note_off_c, 4, 46, 0
8, 42420, Note_on_c, 4, 44, 88
8, 42478, Note_off_c, 4, 44, 0
8, 42480, Note_on_c, 4, 42, 88
8, 42596, Note_off_c, 4, 42, 0
8, 42600, Note_on_c, 4, 46, 88
8, 42716, Note_off_c, 4, 46, 0
8, 42720, Note_on_c, 4, 51, 88
8, 42836, Note_off_c, 4, 51, 0
8, 42840, Note_on_c, 4, 53, 88
8, 42956, Note_off_c, 4, 53, 0
8, 42960, Note_on_c, 4, 54, 88
8, 43076, Note_off_c, 4, 54, 0
8, 43080, Note_on_c, 4, 45, 88
8, 43196, Note_off_c, 4, 45, 0
8, 43200, Note_on_c, 4, 46, 88
8, 43670, Note_off_c, 4, 46, 0
8, 43680, Note_on_c, 4, 39, 88
8, 44150, Note_off_c, 4, 39, 0
8, 44150, End_track
0, 0, End_of_file
