0, 0, Header, 1, 7, 240
1, 0, Start_track
1, 0, Time_signature, 4, 1, 24, 8
1, 0, Tempo, 468750
1, 0, SMPTE_offset, 64, 0, 0, 0, 93
1, 0, End_track
2, 0, Start_track
2, 0, Title_t, "(C) & (P) 1993"
2, 127, End_track
3, 0, Start_track
3, 0, Title_t, "CCARH,Stanford"
3, 0, End_track
4, 0, Start_track
4, 0, Title_t, "Track 1"
4, 0, Program_c, 0, 6
4, 8640, Note_on_c, 0, 71, 88
4, 9585, Note_off_c, 0, 71, 0
4, 9600, Note_on_c, 0, 73, 88
4, 10070, Note_off_c, 0, 73, 0
4, 10080, Note_on_c, 0, 76, 88
4, 10550, Note_off_c, 0, 76, 0
4, 10560, Note_on_c, 0, 75, 88
4, 11030, Note_off_c, 0, 75, 0
4, 11040, Note_on_c, 0, 73, 88
4, 11510, Note_off_c, 0, 73, 0
4, 11520, Note_on_c, 0, 71, 88
4, 12701, Note_off_c, 0, 71, 0
4, 12720, Note_on_c, 0, 69, 88
4, 12836, Note_off_c, 0, 69, 0
4, 12840, Note_on_c, 0, 68, 88
4, 12956, Note_off_c, 0, 68, 0
4, 12960, Note_on_c, 0, 69, 88
4, 13910, Note_off_c, 0, 69, 0
4, 13920, Note_on_c, 0, 68, 88
4, 14390, Note_off_c, 0, 68, 0
4, 14400, Note_on_c, 0, 66, 88
4, 14870, Note_off_c, 0, 66, 0
4, 14880, Note_on_c, 0, 64, 88
4, 15350, Note_off_c, 0, 64, 0
4, 15360, Note_on_c, 0, 63, 88
4, 15830, Note_off_c, 0, 63, 0
4, 19200, Note_on_c, 0, 64, 88
4, 20145, Note_off_c, 0, 64, 0
4, 20160, Note_on_c, 0, 66, 88
4, 20630, Note_off_c, 0, 66, 0
4, 20640, Note_on_c, 0, 69, 88
4, 21110, Note_off_c, 0, 69, 0
4, 21120, Note_on_c, 0, 68, 88
4, 21590, Note_off_c, 0, 68, 0
4, 21600, Note_on_c, 0, 66, 88
4, 22070, Note_off_c, 0, 66, 0
4, 22080, Note_on_c, 0, 65, 88
4, 22314, Note_off_c, 0, 65, 0
4, 22320, Note_on_c, 0, 66, 88
4, 22554, Note_off_c, 0, 66, 0
4, 22560, Note_on_c, 0, 68, 88
4, 22794, Note_off_c, 0, 68, 0
4, 22800, Note_on_c, 0, 69, 88
4, 23034, Note_off_c, 0, 69, 0
4, 23040, Note_on_c, 0, 71, 88
4, 23274, Note_off_c, 0, 71, 0
4, 23280, Note_on_c, 0, 66, 88
4, 23514, Note_off_c, 0, 66, 0
4, 23520, Note_on_c, 0, 71, 88
4, 24465, Note_off_c, 0, 71, 0
4, 24480, Note_on_c, 0, 69, 88
4, 24950, Note_off_c, 0, 69, 0
4, 24960, Note_on_c, 0, 68, 88
4, 26613, Note_off_c, 0, 68, 0
4, 26640, Note_on_c, 0, 69, 88
4, 26756, Note_off_c, 0, 69, 0
4, 26760, Note_on_c, 0, 71, 88
4, 26876, Note_off_c, 0, 71, 0
4, 26880, Note_on_c, 0, 73, 88
4, 27114, Note_off_c, 0, 73, 0
4, 27120, Note_on_c, 0, 72, 88
4, 27354, Note_off_c, 0, 72, 0
4, 27360, Note_on_c, 0, 73, 88
4, 27594, Note_off_c, 0, 73, 0
4, 27600, Note_on_c, 0, 75, 88
4, 27834, Note_off_c, 0, 75, 0
4, 27840, Note_on_c, 0, 72, 88
4, 28074, Note_off_c, 0, 72, 0
4, 28080, Note_on_c, 0, 73, 88
4, 28550, Note_off_c, 0, 73, 0
4, 28560, Note_on_c, 0, 73, 88
4, 28589, Note_off_c, 0, 73, 0
4, 28590, Note_on_c, 0, 72, 88
4, 28634, Note_off_c, 0, 72, 0
4, 28635, Note_on_c, 0, 73, 88
4, 28679, Note_off_c, 0, 73, 0
4, 28680, Note_on_c, 0, 72, 88
4, 28709, Note_off_c, 0, 72, 0
4, 28710, Note_on_c, 0, 73, 88
4, 28739, Note_off_c, 0, 73, 0
4, 28740, Note_on_c, 0, 72, 88
4, 28798, Note_off_c, 0, 72, 0
4, 28800, Note_on_c, 0, 73, 88
4, 29745, Note_off_c, 0, 73, 0
4, 30720, Note_on_c, 0, 71, 88
4, 31665, Note_off_c, 0, 71, 0
4, 31680, Note_on_c, 0, 73, 88
4, 32150, Note_off_c, 0, 73, 0
4, 32160, Note_on_c, 0, 76, 88
4, 32630, Note_off_c, 0, 76, 0
4, 32640, Note_on_c, 0, 75, 88
4, 33110, Note_off_c, 0, 75, 0
4, 33120, Note_on_c, 0, 73, 88
4, 33590, Note_off_c, 0, 73, 0
4, 33600, Note_on_c, 0, 71, 88
4, 34070, Note_off_c, 0, 71, 0
4, 34080, Note_on_c, 0, 73, 88
4, 34550, Note_off_c, 0, 73, 0
4, 34560, Note_on_c, 0, 66, 88
4, 34794, Note_off_c, 0, 66, 0
4, 34800, Note_on_c, 0, 63, 88
4, 35034, Note_off_c, 0, 63, 0
4, 35040, Note_on_c, 0, 68, 88
4, 35748, Note_off_c, 0, 68, 0
4, 35760, Note_on_c, 0, 66, 88
4, 35876, Note_off_c, 0, 66, 0
4, 35880, Note_on_c, 0, 65, 88
4, 35996, Note_off_c, 0, 65, 0
4, 36000, Note_on_c, 0, 66, 88
4, 36714, Note_off_c, 0, 66, 0
4, 36720, Note_on_c, 0, 64, 88
4, 36836, Note_off_c, 0, 64, 0
4, 36840, Note_on_c, 0, 63, 88
4, 36956, Note_off_c, 0, 63, 0
4, 36960, Note_on_c, 0, 64, 88
4, 37194, Note_off_c, 0, 64, 0
4, 37200, Note_on_c, 0, 66, 88
4, 37316, Note_off_c, 0, 66, 0
4, 37320, Note_on_c, 0, 64, 88
4, 37436, Note_off_c, 0, 64, 0
4, 37440, Note_on_c, 0, 63, 88
4, 37674, Note_off_c, 0, 63, 0
4, 37680, Note_on_c, 0, 71, 88
4, 37914, Note_off_c, 0, 71, 0
4, 37920, Note_on_c, 0, 65, 88
4, 38634, Note_off_c, 0, 65, 0
4, 38640, Note_on_c, 0, 66, 88
4, 39110, Note_off_c, 0, 66, 0
4, 39120, Note_on_c, 0, 65, 88
4, 39354, Note_off_c, 0, 65, 0
4, 39360, Note_on_c, 0, 73, 88
4, 39830, Note_off_c, 0, 73, 0
4, 39840, Note_on_c, 0, 71, 88
4, 40554, Note_off_c, 0, 71, 0
4, 40560, Note_on_c, 0, 69, 88
4, 41030, Note_off_c, 0, 69, 0
4, 41040, Note_on_c, 0, 68, 88
4, 41510, Note_off_c, 0, 68, 0
4, 41520, Note_on_c, 0, 66, 88
4, 41990, Note_off_c, 0, 66, 0
4, 42000, Note_on_c, 0, 66, 88
4, 42029, Note_off_c, 0, 66, 0
4, 42030, Note_on_c, 0, 65, 88
4, 42074, Note_off_c, 0, 65, 0
4, 42075, Note_on_c, 0, 66, 88
4, 42119, Note_off_c, 0, 66, 0
4, 42120, Note_on_c, 0, 65, 88
4, 42149, Note_off_c, 0, 65, 0
4, 42150, Note_on_c, 0, 66, 88
4, 42179, Note_off_c, 0, 66, 0
4, 42180, Note_on_c, 0, 65, 88
4, 42238, Note_off_c, 0, 65, 0
4, 42240, Note_on_c, 0, 66, 88
4, 43185, Note_off_c, 0, 66, 0
4, 43200, Note_on_c, 0, 68, 88
4, 43434, Note_off_c, 0, 68, 0
4, 43440, Note_on_c, 0, 69, 88
4, 43674, Note_off_c, 0, 69, 0
4, 43680, Note_on_c, 0, 71, 88
4, 44394, Note_off_c, 0, 71, 0
4, 44400, Note_on_c, 0, 69, 88
4, 44634, Note_off_c, 0, 69, 0
4, 44640, Note_on_c, 0, 68, 88
4, 45110, Note_off_c, 0, 68, 0
4, 45120, Note_on_c, 0, 66, 88
4, 45590, Note_off_c, 0, 66, 0
4, 45600, Note_on_c, 0, 64, 88
4, 45834, Note_off_c, 0, 64, 0
4, 45840, Note_on_c, 0, 66, 88
4, 46074, Note_off_c, 0, 66, 0
4, 46080, Note_on_c, 0, 68, 88
4, 46788, Note_off_c, 0, 68, 0
4, 46800, Note_on_c, 0, 69, 88
4, 47034, Note_off_c, 0, 69, 0
4, 47040, Note_on_c, 0, 68, 88
4, 47274, Note_off_c, 0, 68, 0
4, 47280, Note_on_c, 0, 66, 88
4, 47514, Note_off_c, 0, 66, 0
4, 47520, Note_on_c, 0, 64, 88
4, 47990, Note_off_c, 0, 64, 0
4, 49440, Note_on_c, 0, 68, 88
4, 49910, Note_off_c, 0, 68, 0
4, 49920, Note_on_c, 0, 69, 88
4, 50154, Note_off_c, 0, 69, 0
4, 50160, Note_on_c, 0, 73, 88
4, 50394, Note_off_c, 0, 73, 0
4, 50400, Note_on_c, 0, 71, 88
4, 50634, Note_off_c, 0, 71, 0
4, 50640, Note_on_c, 0, 69, 88
4, 50874, Note_off_c, 0, 69, 0
4, 50880, Note_on_c, 0, 68, 88
4, 51350, Note_off_c, 0, 68, 0
4, 51360, Note_on_c, 0, 70, 88
4, 51830, Note_off_c, 0, 70, 0
4, 51840, Note_on_c, 0, 71, 88
4, 53493, Note_off_c, 0, 71, 0
4, 53520, Note_on_c, 0, 70, 88
4, 53754, Note_off_c, 0, 70, 0
4, 53760, Note_on_c, 0, 71, 88
4, 53994, Note_off_c, 0, 71, 0
4, 54000, Note_on_c, 0, 68, 88
4, 54234, Note_off_c, 0, 68, 0
4, 54240, Note_on_c, 0, 69, 88
4, 54474, Note_off_c, 0, 69, 0
4, 54480, Note_on_c, 0, 71, 88
4, 54714, Note_off_c, 0, 71, 0
4, 54720, Note_on_c, 0, 73, 88
4, 54954, Note_off_c, 0, 73, 0
4, 54960, Note_on_c, 0, 75, 88
4, 55194, Note_off_c, 0, 75, 0
4, 55200, Note_on_c, 0, 76, 88
4, 56388, Note_off_c, 0, 76, 0
4, 56400, Note_on_c, 0, 75, 88
4, 56634, Note_off_c, 0, 75, 0
4, 56640, Note_on_c, 0, 76, 88
4, 56874, Note_off_c, 0, 76, 0
4, 56880, Note_on_c, 0, 71, 88
4, 57350, Note_off_c, 0, 71, 0
4, 57360, Note_on_c, 0, 70, 88
4, 57594, Note_off_c, 0, 70, 0
4, 57600, Note_on_c, 0, 71, 88
4, 58070, Note_off_c, 0, 71, 0
4, 58320, Note_on_c, 0, 78, 88
4, 58554, Note_off_c, 0, 78, 0
4, 58560, Note_on_c, 0, 71, 88
4, 58794, Note_off_c, 0, 71, 0
4, 58800, Note_on_c, 0, 68, 88
4, 59034, Note_off_c, 0, 68, 0
4, 59040, Note_on_c, 0, 69, 88
4, 59274, Note_off_c, 0, 69, 0
4, 59280, Note_on_c, 0, 71, 88
4, 59514, Note_off_c, 0, 71, 0
4, 59520, Note_on_c, 0, 73, 88
4, 59990, Note_off_c, 0, 73, 0
4, 60000, Note_on_c, 0, 71, 88
4, 60470, Note_off_c, 0, 71, 0
4, 60480, Note_on_c, 0, 69, 88
4, 60950, Note_off_c, 0, 69, 0
4, 60960, Note_on_c, 0, 68, 88
4, 61430, Note_off_c, 0, 68, 0
4, 61440, Note_on_c, 0, 66, 88
4, 61674, Note_off_c, 0, 66, 0
4, 61680, Note_on_c, 0, 76, 88
4, 61914, Note_off_c, 0, 76, 0
4, 61920, Note_on_c, 0, 75, 88
4, 62154, Note_off_c, 0, 75, 0
4, 62160, Note_on_c, 0, 73, 88
4, 62394, Note_off_c, 0, 73, 0
4, 62400, Note_on_c, 0, 71, 88
4, 62870, Note_off_c, 0, 71, 0
4, 62880, Note_on_c, 0, 70, 88
4, 63594, Note_off_c, 0, 70, 0
4, 63600, Note_on_c, 0, 68, 88
4, 63716, Note_off_c, 0, 68, 0
4, 63720, Note_on_c, 0, 67, 88
4, 63836, Note_off_c, 0, 67, 0
4, 63840, Note_on_c, 0, 68, 88
4, 65021, Note_off_c, 0, 68, 0
4, 65040, Note_on_c, 0, 68, 88
4, 65069, Note_off_c, 0, 68, 0
4, 65070, Note_on_c, 0, 67, 88
4, 65114, Note_off_c, 0, 67, 0
4, 65115, Note_on_c, 0, 68, 88
4, 65159, Note_off_c, 0, 68, 0
4, 65160, Note_on_c, 0, 67, 88
4, 65189, Note_off_c, 0, 67, 0
4, 65190, Note_on_c, 0, 68, 88
4, 65219, Note_off_c, 0, 68, 0
4, 65220, Note_on_c, 0, 67, 88
4, 65278, Note_off_c, 0, 67, 0
4, 65280, Note_on_c, 0, 68, 88
4, 65750, Note_off_c, 0, 68, 0
4, 66000, Note_on_c, 0, 71, 88
4, 66234, Note_off_c, 0, 71, 0
4, 66240, Note_on_c, 0, 68, 88
4, 66474, Note_off_c, 0, 68, 0
4, 66480, Note_on_c, 0, 64, 88
4, 66714, Note_off_c, 0, 64, 0
4, 66720, Note_on_c, 0, 66, 88
4, 66954, Note_off_c, 0, 66, 0
4, 66960, Note_on_c, 0, 68, 88
4, 67194, Note_off_c, 0, 68, 0
4, 67200, Note_on_c, 0, 69, 88
4, 67434, Note_off_c, 0, 69, 0
4, 67440, Note_on_c, 0, 71, 88
4, 67674, Note_off_c, 0, 71, 0
4, 67680, Note_on_c, 0, 73, 88
4, 67914, Note_off_c, 0, 73, 0
4, 67920, Note_on_c, 0, 75, 88
4, 68154, Note_off_c, 0, 75, 0
4, 68160, Note_on_c, 0, 76, 88
4, 68276, Note_off_c, 0, 76, 0
4, 68280, Note_on_c, 0, 71, 88
4, 68396, Note_off_c, 0, 71, 0
4, 68400, Note_on_c, 0, 76, 88
4, 68870, Note_off_c, 0, 76, 0
4, 68880, Note_on_c, 0, 75, 88
4, 69354, Note_off_c, 0, 75, 0
4, 69360, Note_on_c, 0, 73, 88
4, 69476, Note_off_c, 0, 73, 0
4, 69480, Note_on_c, 0, 71, 88
4, 69596, Note_off_c, 0, 71, 0
4, 69600, Note_on_c, 0, 73, 88
4, 70070, Note_off_c, 0, 73, 0
4, 70080, Note_on_c, 0, 71, 88
4, 70314, Note_off_c, 0, 71, 0
4, 70560, Note_on_c, 0, 76, 88
4, 71030, Note_off_c, 0, 76, 0
4, 71040, Note_on_c, 0, 78, 88
4, 71510, Note_off_c, 0, 78, 0
4, 71520, Note_on_c, 0, 81, 88
4, 71990, Note_off_c, 0, 81, 0
4, 72000, Note_on_c, 0, 80, 88
4, 72470, Note_off_c, 0, 80, 0
4, 72480, Note_on_c, 0, 78, 88
4, 72950, Note_off_c, 0, 78, 0
4, 72960, Note_on_c, 0, 76, 88
4, 73430, Note_off_c, 0, 76, 0
4, 73440, Note_on_c, 0, 75, 88
4, 73910, Note_off_c, 0, 75, 0
4, 73920, Note_on_c, 0, 73, 88
4, 74390, Note_off_c, 0, 73, 0
4, 74400, Note_on_c, 0, 71, 88
4, 75114, Note_off_c, 0, 71, 0
4, 75120, Note_on_c, 0, 73, 88
4, 75354, Note_off_c, 0, 73, 0
4, 75360, Note_on_c, 0, 71, 88
4, 75594, Note_off_c, 0, 71, 0
4, 75600, Note_on_c, 0, 69, 88
4, 75834, Note_off_c, 0, 69, 0
4, 75840, Note_on_c, 0, 68, 88
4, 76310, Note_off_c, 0, 68, 0
4, 77280, Note_on_c, 0, 76, 88
4, 77750, Note_off_c, 0, 76, 0
4, 77760, Note_on_c, 0, 75, 88
4, 78230, Note_off_c, 0, 75, 0
4, 78240, Note_on_c, 0, 73, 88
4, 78710, Note_off_c, 0, 73, 0
4, 78720, Note_on_c, 0, 71, 88
4, 79190, Note_off_c, 0, 71, 0
4, 79200, Note_on_c, 0, 69, 88
4, 79670, Note_off_c, 0, 69, 0
4, 79680, Note_on_c, 0, 68, 88
4, 79796, Note_off_c, 0, 68, 0
4, 79800, Note_on_c, 0, 66, 88
4, 79916, Note_off_c, 0, 66, 0
4, 79920, Note_on_c, 0, 68, 88
4, 80036, Note_off_c, 0, 68, 0
4, 80040, Note_on_c, 0, 69, 88
4, 80156, Note_off_c, 0, 69, 0
4, 80160, Note_on_c, 0, 71, 88
4, 80394, Note_off_c, 0, 71, 0
4, 80400, Note_on_c, 0, 69, 88
4, 80634, Note_off_c, 0, 69, 0
4, 80640, Note_on_c, 0, 68, 88
4, 81110, Note_off_c, 0, 68, 0
4, 81120, Note_on_c, 0, 68, 88
4, 81149, Note_off_c, 0, 68, 0
4, 81150, Note_on_c, 0, 66, 88
4, 81194, Note_off_c, 0, 66, 0
4, 81195, Note_on_c, 0, 68, 88
4, 81239, Note_off_c, 0, 68, 0
4, 81240, Note_on_c, 0, 66, 88
4, 81284, Note_off_c, 0, 66, 0
4, 81285, Note_on_c, 0, 68, 88
4, 81329, Note_off_c, 0, 68, 0
4, 81330, Note_on_c, 0, 66, 88
4, 81359, Note_off_c, 0, 66, 0
4, 81360, Note_on_c, 0, 68, 88
4, 81389, Note_off_c, 0, 68, 0
4, 81390, Note_on_c, 0, 66, 88
4, 81595, Note_off_c, 0, 66, 0
4, 81600, Note_on_c, 0, 64, 88
4, 82545, Note_off_c, 0, 64, 0
4, 82545, End_track
5, 0, Start_track
5, 0, Title_t, "Track 2"
5, 0, Program_c, 1, 6
5, 5760, Note_on_c, 1, 64, 88
5, 6705, Note_off_c, 1, 64, 0
5, 6720, Note_on_c, 1, 66, 88
5, 7190, Note_off_c, 1, 66, 0
5, 7200, Note_on_c, 1, 69, 88
5, 7670, Note_off_c, 1, 69, 0
5, 7680, Note_on_c, 1, 68, 88
5, 8150, Note_off_c, 1, 68, 0
5, 8160, Note_on_c, 1, 66, 88
5, 8630, Note_off_c, 1, 66, 0
5, 8640, Note_on_c, 1, 64, 88
5, 9110, Note_off_c, 1, 64, 0
5, 9360, Note_on_c, 1, 59, 88
5, 9594, Note_off_c, 1, 59, 0
5, 9600, Note_on_c, 1, 64, 88
5, 9834, Note_off_c, 1, 64, 0
5, 9840, Note_on_c, 1, 66, 88
5, 10074, Note_off_c, 1, 66, 0
5, 10080, Note_on_c, 1, 68, 88
5, 10314, Note_off_c, 1, 68, 0
5, 10320, Note_on_c, 1, 70, 88
5, 10554, Note_off_c, 1, 70, 0
5, 10560, Note_on_c, 1, 71, 88
5, 10676, Note_off_c, 1, 71, 0
5, 10680, Note_on_c, 1, 66, 88
5, 10796, Note_off_c, 1, 66, 0
5, 10800, Note_on_c, 1, 71, 88
5, 11270, Note_off_c, 1, 71, 0
5, 11280, Note_on_c, 1, 69, 88
5, 11754, Note_off_c, 1, 69, 0
5, 11760, Note_on_c, 1, 68, 88
5, 11876, Note_off_c, 1, 68, 0
5, 11880, Note_on_c, 1, 66, 88
5, 11996, Note_off_c, 1, 66, 0
5, 12000, Note_on_c, 1, 68, 88
5, 12470, Note_off_c, 1, 68, 0
5, 12480, Note_on_c, 1, 61, 88
5, 13188, Note_off_c, 1, 61, 0
5, 13200, Note_on_c, 1, 63, 88
5, 13316, Note_off_c, 1, 63, 0
5, 13320, Note_on_c, 1, 64, 88
5, 13436, Note_off_c, 1, 64, 0
5, 13440, Note_on_c, 1, 63, 88
5, 13910, Note_off_c, 1, 63, 0
5, 13920, Note_on_c, 1, 64, 88
5, 14628, Note_off_c, 1, 64, 0
5, 14640, Note_on_c, 1, 63, 88
5, 14874, Note_off_c, 1, 63, 0
5, 14880, Note_on_c, 1, 61, 88
5, 15350, Note_off_c, 1, 61, 0
5, 15360, Note_on_c, 1, 54, 88
5, 15830, Note_off_c, 1, 54, 0
5, 15840, Note_on_c, 1, 59, 88
5, 16310, Note_off_c, 1, 59, 0
5, 16320, Note_on_c, 1, 61, 88
5, 16790, Note_off_c, 1, 61, 0
5, 16800, Note_on_c, 1, 64, 88
5, 17270, Note_off_c, 1, 64, 0
5, 17280, Note_on_c, 1, 63, 88
5, 17750, Note_off_c, 1, 63, 0
5, 17760, Note_on_c, 1, 61, 88
5, 18230, Note_off_c, 1, 61, 0
5, 18240, Note_on_c, 1, 59, 88
5, 18474, Note_off_c, 1, 59, 0
5, 18480, Note_on_c, 1, 64, 88
5, 18950, Note_off_c, 1, 64, 0
5, 18960, Note_on_c, 1, 63, 88
5, 19434, Note_off_c, 1, 63, 0
5, 19440, Note_on_c, 1, 61, 88
5, 19910, Note_off_c, 1, 61, 0
5, 19920, Note_on_c, 1, 59, 88
5, 20036, Note_off_c, 1, 59, 0
5, 20040, Note_on_c, 1, 58, 88
5, 20156, Note_off_c, 1, 58, 0
5, 20160, Note_on_c, 1, 59, 88
5, 20394, Note_off_c, 1, 59, 0
5, 20400, Note_on_c, 1, 66, 88
5, 20870, Note_off_c, 1, 66, 0
5, 20880, Note_on_c, 1, 64, 88
5, 20996, Note_off_c, 1, 64, 0
5, 21000, Note_on_c, 1, 63, 88
5, 21116, Note_off_c, 1, 63, 0
5, 21120, Note_on_c, 1, 64, 88
5, 21828, Note_off_c, 1, 64, 0
5, 21840, Note_on_c, 1, 63, 88
5, 22074, Note_off_c, 1, 63, 0
5, 22080, Note_on_c, 1, 61, 88
5, 23025, Note_off_c, 1, 61, 0
5, 23040, Note_on_c, 1, 59, 88
5, 23274, Note_off_c, 1, 59, 0
5, 23280, Note_on_c, 1, 61, 88
5, 23514, Note_off_c, 1, 61, 0
5, 23520, Note_on_c, 1, 63, 88
5, 23754, Note_off_c, 1, 63, 0
5, 23760, Note_on_c, 1, 64, 88
5, 23994, Note_off_c, 1, 64, 0
5, 24000, Note_on_c, 1, 66, 88
5, 24234, Note_off_c, 1, 66, 0
5, 24240, Note_on_c, 1, 61, 88
5, 24474, Note_off_c, 1, 61, 0
5, 24480, Note_on_c, 1, 66, 88
5, 25430, Note_off_c, 1, 66, 0
5, 25440, Note_on_c, 1, 64, 88
5, 25910, Note_off_c, 1, 64, 0
5, 25920, Note_on_c, 1, 63, 88
5, 26865, Note_off_c, 1, 63, 0
5, 26880, Note_on_c, 1, 61, 88
5, 27114, Note_off_c, 1, 61, 0
5, 27120, Note_on_c, 1, 63, 88
5, 27354, Note_off_c, 1, 63, 0
5, 27360, Note_on_c, 1, 64, 88
5, 27594, Note_off_c, 1, 64, 0
5, 27600, Note_on_c, 1, 66, 88
5, 27834, Note_off_c, 1, 66, 0
5, 27840, Note_on_c, 1, 68, 88
5, 28310, Note_off_c, 1, 68, 0
5, 28320, Note_on_c, 1, 66, 88
5, 28790, Note_off_c, 1, 66, 0
5, 28800, Note_on_c, 1, 64, 88
5, 29745, Note_off_c, 1, 64, 0
5, 29760, Note_on_c, 1, 66, 88
5, 30230, Note_off_c, 1, 66, 0
5, 30240, Note_on_c, 1, 69, 88
5, 30710, Note_off_c, 1, 69, 0
5, 30720, Note_on_c, 1, 68, 88
5, 31190, Note_off_c, 1, 68, 0
5, 31200, Note_on_c, 1, 66, 88
5, 31670, Note_off_c, 1, 66, 0
5, 31680, Note_on_c, 1, 64, 88
5, 31914, Note_off_c, 1, 64, 0
5, 31920, Note_on_c, 1, 61, 88
5, 32154, Note_off_c, 1, 61, 0
5, 32160, Note_on_c, 1, 68, 88
5, 32874, Note_off_c, 1, 68, 0
5, 32880, Note_on_c, 1, 66, 88
5, 32996, Note_off_c, 1, 66, 0
5, 33000, Note_on_c, 1, 65, 88
5, 33116, Note_off_c, 1, 65, 0
5, 33120, Note_on_c, 1, 66, 88
5, 33828, Note_off_c, 1, 66, 0
5, 33840, Note_on_c, 1, 64, 88
5, 33956, Note_off_c, 1, 64, 0
5, 33960, Note_on_c, 1, 63, 88
5, 34076, Note_off_c, 1, 63, 0
5, 34080, Note_on_c, 1, 64, 88
5, 34314, Note_off_c, 1, 64, 0
5, 34320, Note_on_c, 1, 66, 88
5, 34436, Note_off_c, 1, 66, 0
5, 34440, Note_on_c, 1, 64, 88
5, 34556, Note_off_c, 1, 64, 0
5, 34560, Note_on_c, 1, 63, 88
5, 35268, Note_off_c, 1, 63, 0
5, 35280, Note_on_c, 1, 56, 88
5, 35514, Note_off_c, 1, 56, 0
5, 35520, Note_on_c, 1, 57, 88
5, 36228, Note_off_c, 1, 57, 0
5, 36240, Note_on_c, 1, 58, 88
5, 36474, Note_off_c, 1, 58, 0
5, 36480, Note_on_c, 1, 59, 88
5, 37188, Note_off_c, 1, 59, 0
5, 37200, Note_on_c, 1, 58, 88
5, 37434, Note_off_c, 1, 58, 0
5, 37440, Note_on_c, 1, 59, 88
5, 37910, Note_off_c, 1, 59, 0
5, 37920, Note_on_c, 1, 62, 88
5, 38390, Note_off_c, 1, 62, 0
5, 38400, Note_on_c, 1, 61, 88
5, 39817, Note_off_c, 1, 61, 0
5, 39840, Note_on_c, 1, 68, 88
5, 40310, Note_off_c, 1, 68, 0
5, 40320, Note_on_c, 1, 61, 88
5, 40790, Note_off_c, 1, 61, 0
5, 40800, Note_on_c, 1, 59, 88
5, 41270, Note_off_c, 1, 59, 0
5, 41280, Note_on_c, 1, 57, 88
5, 41750, Note_off_c, 1, 57, 0
5, 41760, Note_on_c, 1, 56, 88
5, 42230, Note_off_c, 1, 56, 0
5, 42240, Note_on_c, 1, 57, 88
5, 42474, Note_off_c, 1, 57, 0
5, 42480, Note_on_c, 1, 59, 88
5, 42714, Note_off_c, 1, 59, 0
5, 42720, Note_on_c, 1, 61, 88
5, 43665, Note_off_c, 1, 61, 0
5, 43680, Note_on_c, 1, 63, 88
5, 43914, Note_off_c, 1, 63, 0
5, 43920, Note_on_c, 1, 65, 88
5, 44154, Note_off_c, 1, 65, 0
5, 44160, Note_on_c, 1, 66, 88
5, 44868, Note_off_c, 1, 66, 0
5, 44880, Note_on_c, 1, 64, 88
5, 45114, Note_off_c, 1, 64, 0
5, 45120, Note_on_c, 1, 63, 88
5, 45590, Note_off_c, 1, 63, 0
5, 45600, Note_on_c, 1, 61, 88
5, 46314, Note_off_c, 1, 61, 0
5, 46320, Note_on_c, 1, 63, 88
5, 46436, Note_off_c, 1, 63, 0
5, 46440, Note_on_c, 1, 61, 88
5, 46556, Note_off_c, 1, 61, 0
5, 46560, Note_on_c, 1, 60, 88
5, 47030, Note_off_c, 1, 60, 0
5, 47040, Note_on_c, 1, 61, 88
5, 47274, Note_off_c, 1, 61, 0
5, 47280, Note_on_c, 1, 63, 88
5, 47514, Note_off_c, 1, 63, 0
5, 47520, Note_on_c, 1, 56, 88
5, 47990, Note_off_c, 1, 56, 0
5, 48000, Note_on_c, 1, 63, 88
5, 48234, Note_off_c, 1, 63, 0
5, 48240, Note_on_c, 1, 64, 88
5, 48356, Note_off_c, 1, 64, 0
5, 48360, Note_on_c, 1, 63, 88
5, 48476, Note_off_c, 1, 63, 0
5, 48480, Note_on_c, 1, 61, 88
5, 48714, Note_off_c, 1, 61, 0
5, 48720, Note_on_c, 1, 69, 88
5, 48954, Note_off_c, 1, 69, 0
5, 48960, Note_on_c, 1, 60, 88
5, 49194, Note_off_c, 1, 60, 0
5, 49200, Note_on_c, 1, 61, 88
5, 49670, Note_off_c, 1, 61, 0
5, 49680, Note_on_c, 1, 60, 88
5, 49914, Note_off_c, 1, 60, 0
5, 49920, Note_on_c, 1, 61, 88
5, 50390, Note_off_c, 1, 61, 0
5, 50400, Note_on_c, 1, 63, 88
5, 50870, Note_off_c, 1, 63, 0
5, 50880, Note_on_c, 1, 64, 88
5, 51114, Note_off_c, 1, 64, 0
5, 51120, Note_on_c, 1, 68, 88
5, 51354, Note_off_c, 1, 68, 0
5, 51360, Note_on_c, 1, 66, 88
5, 51594, Note_off_c, 1, 66, 0
5, 51600, Note_on_c, 1, 64, 88
5, 51834, Note_off_c, 1, 64, 0
5, 51840, Note_on_c, 1, 63, 88
5, 52074, Note_off_c, 1, 63, 0
5, 52080, Note_on_c, 1, 69, 88
5, 52314, Note_off_c, 1, 69, 0
5, 52320, Note_on_c, 1, 68, 88
5, 52554, Note_off_c, 1, 68, 0
5, 52560, Note_on_c, 1, 66, 88
5, 52794, Note_off_c, 1, 66, 0
5, 52800, Note_on_c, 1, 64, 88
5, 53034, Note_off_c, 1, 64, 0
5, 53040, Note_on_c, 1, 68, 88
5, 53274, Note_off_c, 1, 68, 0
5, 53280, Note_on_c, 1, 66, 88
5, 53514, Note_off_c, 1, 66, 0
5, 53520, Note_on_c, 1, 64, 88
5, 53754, Note_off_c, 1, 64, 0
5, 53760, Note_on_c, 1, 63, 88
5, 53994, Note_off_c, 1, 63, 0
5, 54000, Note_on_c, 1, 64, 88
5, 54234, Note_off_c, 1, 64, 0
5, 54240, Note_on_c, 1, 66, 88
5, 54474, Note_off_c, 1, 66, 0
5, 54480, Note_on_c, 1, 68, 88
5, 54714, Note_off_c, 1, 68, 0
5, 54720, Note_on_c, 1, 69, 88
5, 55428, Note_off_c, 1, 69, 0
5, 55440, Note_on_c, 1, 68, 88
5, 55674, Note_off_c, 1, 68, 0
5, 55680, Note_on_c, 1, 66, 88
5, 55914, Note_off_c, 1, 66, 0
5, 55920, Note_on_c, 1, 64, 88
5, 56154, Note_off_c, 1, 64, 0
5, 56160, Note_on_c, 1, 66, 88
5, 56630, Note_off_c, 1, 66, 0
5, 56640, Note_on_c, 1, 64, 88
5, 57585, Note_off_c, 1, 64, 0
5, 57600, Note_on_c, 1, 66, 88
5, 58070, Note_off_c, 1, 66, 0
5, 58080, Note_on_c, 1, 69, 88
5, 58550, Note_off_c, 1, 69, 0
5, 58560, Note_on_c, 1, 68, 88
5, 59030, Note_off_c, 1, 68, 0
5, 59040, Note_on_c, 1, 66, 88
5, 59510, Note_off_c, 1, 66, 0
5, 59520, Note_on_c, 1, 64, 88
5, 59754, Note_off_c, 1, 64, 0
5, 59760, Note_on_c, 1, 69, 88
5, 60230, Note_off_c, 1, 69, 0
5, 60240, Note_on_c, 1, 68, 88
5, 60474, Note_off_c, 1, 68, 0
5, 60480, Note_on_c, 1, 66, 88
5, 60714, Note_off_c, 1, 66, 0
5, 60720, Note_on_c, 1, 74, 88
5, 60954, Note_off_c, 1, 74, 0
5, 60960, Note_on_c, 1, 73, 88
5, 61194, Note_off_c, 1, 73, 0
5, 61200, Note_on_c, 1, 71, 88
5, 61434, Note_off_c, 1, 71, 0
5, 61440, Note_on_c, 1, 69, 88
5, 61674, Note_off_c, 1, 69, 0
5, 61680, Note_on_c, 1, 67, 88
5, 61914, Note_off_c, 1, 67, 0
5, 61920, Note_on_c, 1, 68, 88
5, 62154, Note_off_c, 1, 68, 0
5, 62160, Note_on_c, 1, 70, 88
5, 62394, Note_off_c, 1, 70, 0
5, 62400, Note_on_c, 1, 68, 88
5, 62634, Note_off_c, 1, 68, 0
5, 62640, Note_on_c, 1, 66, 88
5, 62874, Note_off_c, 1, 66, 0
5, 62880, Note_on_c, 1, 64, 88
5, 63350, Note_off_c, 1, 64, 0
5, 63360, Note_on_c, 1, 63, 88
5, 63830, Note_off_c, 1, 63, 0
5, 63840, Note_on_c, 1, 62, 88
5, 64310, Note_off_c, 1, 62, 0
5, 64320, Note_on_c, 1, 63, 88
5, 65265, Note_off_c, 1, 63, 0
5, 65280, Note_on_c, 1, 63, 88
5, 65750, Note_off_c, 1, 63, 0
5, 65760, Note_on_c, 1, 59, 88
5, 66230, Note_off_c, 1, 59, 0
5, 66240, Note_on_c, 1, 61, 88
5, 66710, Note_off_c, 1, 61, 0
5, 66720, Note_on_c, 1, 64, 88
5, 67190, Note_off_c, 1, 64, 0
5, 67200, Note_on_c, 1, 63, 88
5, 67670, Note_off_c, 1, 63, 0
5, 67680, Note_on_c, 1, 61, 88
5, 68150, Note_off_c, 1, 61, 0
5, 68160, Note_on_c, 1, 59, 88
5, 68630, Note_off_c, 1, 59, 0
5, 68640, Note_on_c, 1, 71, 88
5, 69110, Note_off_c, 1, 71, 0
5, 69120, Note_on_c, 1, 68, 88
5, 69354, Note_off_c, 1, 68, 0
5, 69360, Note_on_c, 1, 64, 88
5, 69594, Note_off_c, 1, 64, 0
5, 69600, Note_on_c, 1, 68, 88
5, 69834, Note_off_c, 1, 68, 0
5, 69840, Note_on_c, 1, 70, 88
5, 70074, Note_off_c, 1, 70, 0
5, 70080, Note_on_c, 1, 71, 88
5, 70196, Note_off_c, 1, 71, 0
5, 70200, Note_on_c, 1, 66, 88
5, 70316, Note_off_c, 1, 66, 0
5, 70320, Note_on_c, 1, 71, 88
5, 70790, Note_off_c, 1, 71, 0
5, 70800, Note_on_c, 1, 69, 88
5, 71274, Note_off_c, 1, 69, 0
5, 71280, Note_on_c, 1, 63, 88
5, 71514, Note_off_c, 1, 63, 0
5, 71520, Note_on_c, 1, 64, 88
5, 71754, Note_off_c, 1, 64, 0
5, 71760, Note_on_c, 1, 66, 88
5, 71994, Note_off_c, 1, 66, 0
5, 72000, Note_on_c, 1, 68, 88
5, 72234, Note_off_c, 1, 68, 0
5, 72240, Note_on_c, 1, 73, 88
5, 72474, Note_off_c, 1, 73, 0
5, 72480, Note_on_c, 1, 69, 88
5, 72714, Note_off_c, 1, 69, 0
5, 72720, Note_on_c, 1, 71, 88
5, 72954, Note_off_c, 1, 71, 0
5, 72960, Note_on_c, 1, 68, 88
5, 73194, Note_off_c, 1, 68, 0
5, 73200, Note_on_c, 1, 69, 88
5, 73434, Note_off_c, 1, 69, 0
5, 73440, Note_on_c, 1, 66, 88
5, 73674, Note_off_c, 1, 66, 0
5, 73680, Note_on_c, 1, 68, 88
5, 73914, Note_off_c, 1, 68, 0
5, 73920, Note_on_c, 1, 64, 88
5, 74154, Note_off_c, 1, 64, 0
5, 74160, Note_on_c, 1, 66, 88
5, 74394, Note_off_c, 1, 66, 0
5, 74400, Note_on_c, 1, 63, 88
5, 74634, Note_off_c, 1, 63, 0
5, 74640, Note_on_c, 1, 64, 88
5, 75114, Note_off_c, 1, 64, 0
5, 75120, Note_on_c, 1, 63, 88
5, 75236, Note_off_c, 1, 63, 0
5, 75240, Note_on_c, 1, 61, 88
5, 75356, Note_off_c, 1, 61, 0
5, 75360, Note_on_c, 1, 63, 88
5, 75830, Note_off_c, 1, 63, 0
5, 76080, Note_on_c, 1, 64, 88
5, 76196, Note_off_c, 1, 64, 0
5, 76200, Note_on_c, 1, 66, 88
5, 76316, Note_off_c, 1, 66, 0
5, 76320, Note_on_c, 1, 68, 88
5, 76554, Note_off_c, 1, 68, 0
5, 76560, Note_on_c, 1, 70, 88
5, 76794, Note_off_c, 1, 70, 0
5, 76800, Note_on_c, 1, 71, 88
5, 76916, Note_off_c, 1, 71, 0
5, 76920, Note_on_c, 1, 66, 88
5, 77036, Note_off_c, 1, 66, 0
5, 77040, Note_on_c, 1, 71, 88
5, 77510, Note_off_c, 1, 71, 0
5, 77520, Note_on_c, 1, 69, 88
5, 77873, Note_off_c, 1, 69, 0
5, 77880, Note_on_c, 1, 63, 88
5, 77996, Note_off_c, 1, 63, 0
5, 78000, Note_on_c, 1, 68, 88
5, 78470, Note_off_c, 1, 68, 0
5, 78480, Note_on_c, 1, 66, 88
5, 78836, Note_off_c, 1, 66, 0
5, 78840, Note_on_c, 1, 59, 88
5, 78956, Note_off_c, 1, 59, 0
5, 78960, Note_on_c, 1, 64, 88
5, 79430, Note_off_c, 1, 64, 0
5, 79440, Note_on_c, 1, 63, 88
5, 79674, Note_off_c, 1, 63, 0
5, 79680, Note_on_c, 1, 64, 88
5, 79914, Note_off_c, 1, 64, 0
5, 80400, Note_on_c, 1, 64, 88
5, 80634, Note_off_c, 1, 64, 0
5, 80640, Note_on_c, 1, 64, 88
5, 81110, Note_off_c, 1, 64, 0
5, 81120, Note_on_c, 1, 64, 88
5, 81149, Note_off_c, 1, 64, 0
5, 81150, Note_on_c, 1, 63, 88
5, 81194, Note_off_c, 1, 63, 0
5, 81195, Note_on_c, 1, 64, 88
5, 81239, Note_off_c, 1, 64, 0
5, 81240, Note_on_c, 1, 63, 88
5, 81284, Note_off_c, 1, 63, 0
5, 81285, Note_on_c, 1, 64, 88
5, 81329, Note_off_c, 1, 64, 0
5, 81330, Note_on_c, 1, 63, 88
5, 81359, Note_off_c, 1, 63, 0
5, 81360, Note_on_c, 1, 64, 88
5, 81389, Note_off_c, 1, 64, 0
5, 81390, Note_on_c, 1, 63, 88
5, 81595, Note_off_c, 1, 63, 0
5, 81600, Note_on_c, 1, 59, 88
5, 82545, Note_off_c, 1, 59, 0
5, 82545, End_track
6, 0, Start_track
6, 0, Title_t, "Track 3"
6, 0, Program_c, 2, 6
6, 2880, Note_on_c, 2, 59, 88
6, 3825, Note_off_c, 2, 59, 0
6, 3840, Note_on_c, 2, 61, 88
6, 4310, Note_off_c, 2, 61, 0
6, 4320, Note_on_c, 2, 64, 88
6, 4790, Note_off_c, 2, 64, 0
6, 4800, Note_on_c, 2, 63, 88
6, 5270, Note_off_c, 2, 63, 0
6, 5280, Note_on_c, 2, 61, 88
6, 5750, Note_off_c, 2, 61, 0
6, 5760, Note_on_c, 2, 59, 88
6, 6468, Note_off_c, 2, 59, 0
6, 6480, Note_on_c, 2, 59, 88
6, 6714, Note_off_c, 2, 59, 0
6, 6720, Note_on_c, 2, 57, 88
6, 6954, Note_off_c, 2, 57, 0
6, 6960, Note_on_c, 2, 59, 88
6, 7194, Note_off_c, 2, 59, 0
6, 7200, Note_on_c, 2, 61, 88
6, 7434, Note_off_c, 2, 61, 0
6, 7440, Note_on_c, 2, 63, 88
6, 7674, Note_off_c, 2, 63, 0
6, 7680, Note_on_c, 2, 64, 88
6, 7796, Note_off_c, 2, 64, 0
6, 7800, Note_on_c, 2, 59, 88
6, 7916, Note_off_c, 2, 59, 0
6, 7920, Note_on_c, 2, 64, 88
6, 8390, Note_off_c, 2, 64, 0
6, 8400, Note_on_c, 2, 63, 88
6, 8634, Note_off_c, 2, 63, 0
6, 8640, Note_on_c, 2, 64, 88
6, 9110, Note_off_c, 2, 64, 0
6, 9120, Note_on_c, 2, 56, 88
6, 9354, Note_off_c, 2, 56, 0
6, 9360, Note_on_c, 2, 54, 88
6, 9594, Note_off_c, 2, 54, 0
6, 9600, Note_on_c, 2, 56, 88
6, 10070, Note_off_c, 2, 56, 0
6, 10080, Note_on_c, 2, 52, 88
6, 10550, Note_off_c, 2, 52, 0
6, 10560, Note_on_c, 2, 54, 88
6, 11754, Note_off_c, 2, 54, 0
6, 11760, Note_on_c, 2, 47, 88
6, 11994, Note_off_c, 2, 47, 0
6, 12000, Note_on_c, 2, 52, 88
6, 12708, Note_off_c, 2, 52, 0
6, 12720, Note_on_c, 2, 49, 88
6, 12954, Note_off_c, 2, 49, 0
6, 12960, Note_on_c, 2, 54, 88
6, 13674, Note_off_c, 2, 54, 0
6, 13680, Note_on_c, 2, 52, 88
6, 13796, Note_off_c, 2, 52, 0
6, 13800, Note_on_c, 2, 54, 88
6, 13916, Note_off_c, 2, 54, 0
6, 13920, Note_on_c, 2, 56, 88
6, 14154, Note_off_c, 2, 56, 0
6, 14160, Note_on_c, 2, 57, 88
6, 14394, Note_off_c, 2, 57, 0
6, 14400, Note_on_c, 2, 59, 88
6, 14516, Note_off_c, 2, 59, 0
6, 14520, Note_on_c, 2, 54, 88
6, 14636, Note_off_c, 2, 54, 0
6, 14640, Note_on_c, 2, 59, 88
6, 15110, Note_off_c, 2, 59, 0
6, 15120, Note_on_c, 2, 59, 88
6, 15149, Note_off_c, 2, 59, 0
6, 15150, Note_on_c, 2, 58, 88
6, 15194, Note_off_c, 2, 58, 0
6, 15195, Note_on_c, 2, 59, 88
6, 15239, Note_off_c, 2, 59, 0
6, 15240, Note_on_c, 2, 58, 88
6, 15269, Note_off_c, 2, 58, 0
6, 15270, Note_on_c, 2, 59, 88
6, 15299, Note_off_c, 2, 59, 0
6, 15300, Note_on_c, 2, 58, 88
6, 15358, Note_off_c, 2, 58, 0
6, 15360, Note_on_c, 2, 59, 88
6, 15830, Note_off_c, 2, 59, 0
6, 16320, Note_on_c, 2, 52, 88
6, 17265, Note_off_c, 2, 52, 0
6, 17280, Note_on_c, 2, 54, 88
6, 17750, Note_off_c, 2, 54, 0
6, 17760, Note_on_c, 2, 57, 88
6, 18230, Note_off_c, 2, 57, 0
6, 18240, Note_on_c, 2, 56, 88
6, 18710, Note_off_c, 2, 56, 0
6, 18720, Note_on_c, 2, 54, 88
6, 19190, Note_off_c, 2, 54, 0
6, 19200, Note_on_c, 2, 52, 88
6, 19434, Note_off_c, 2, 52, 0
6, 19440, Note_on_c, 2, 57, 88
6, 19910, Note_off_c, 2, 57, 0
6, 19920, Note_on_c, 2, 56, 88
6, 20154, Note_off_c, 2, 56, 0
6, 20160, Note_on_c, 2, 54, 88
6, 20394, Note_off_c, 2, 54, 0
6, 20400, Note_on_c, 2, 52, 88
6, 20516, Note_off_c, 2, 52, 0
6, 20520, Note_on_c, 2, 51, 88
6, 20636, Note_off_c, 2, 51, 0
6, 20640, Note_on_c, 2, 52, 88
6, 20874, Note_off_c, 2, 52, 0
6, 20880, Note_on_c, 2, 54, 88
6, 21114, Note_off_c, 2, 54, 0
6, 21120, Note_on_c, 2, 56, 88
6, 21354, Note_off_c, 2, 56, 0
6, 21360, Note_on_c, 2, 57, 88
6, 21594, Note_off_c, 2, 57, 0
6, 21600, Note_on_c, 2, 59, 88
6, 21716, Note_off_c, 2, 59, 0
6, 21720, Note_on_c, 2, 54, 88
6, 21836, Note_off_c, 2, 54, 0
6, 21840, Note_on_c, 2, 59, 88
6, 21956, Note_off_c, 2, 59, 0
6, 21960, Note_on_c, 2, 57, 88
6, 22076, Note_off_c, 2, 57, 0
6, 22080, Note_on_c, 2, 56, 88
6, 22550, Note_off_c, 2, 56, 0
6, 22560, Note_on_c, 2, 54, 88
6, 23510, Note_off_c, 2, 54, 0
6, 23520, Note_on_c, 2, 52, 88
6, 23990, Note_off_c, 2, 52, 0
6, 24000, Note_on_c, 2, 51, 88
6, 24234, Note_off_c, 2, 51, 0
6, 24240, Note_on_c, 2, 53, 88
6, 24474, Note_off_c, 2, 53, 0
6, 24480, Note_on_c, 2, 54, 88
6, 24950, Note_off_c, 2, 54, 0
6, 24960, Note_on_c, 2, 49, 88
6, 25194, Note_off_c, 2, 49, 0
6, 25200, Note_on_c, 2, 51, 88
6, 25434, Note_off_c, 2, 51, 0
6, 25440, Note_on_c, 2, 52, 88
6, 25674, Note_off_c, 2, 52, 0
6, 25680, Note_on_c, 2, 54, 88
6, 25914, Note_off_c, 2, 54, 0
6, 25920, Note_on_c, 2, 56, 88
6, 26154, Note_off_c, 2, 56, 0
6, 26160, Note_on_c, 2, 51, 88
6, 26394, Note_off_c, 2, 51, 0
6, 26400, Note_on_c, 2, 56, 88
6, 27350, Note_off_c, 2, 56, 0
6, 27360, Note_on_c, 2, 54, 88
6, 28068, Note_off_c, 2, 54, 0
6, 28080, Note_on_c, 2, 52, 88
6, 28314, Note_off_c, 2, 52, 0
6, 28320, Note_on_c, 2, 51, 88
6, 28790, Note_off_c, 2, 51, 0
6, 28800, Note_on_c, 2, 49, 88
6, 29034, Note_off_c, 2, 49, 0
6, 29040, Note_on_c, 2, 56, 88
6, 29274, Note_off_c, 2, 56, 0
6, 29280, Note_on_c, 2, 61, 88
6, 29988, Note_off_c, 2, 61, 0
6, 30000, Note_on_c, 2, 59, 88
6, 30116, Note_off_c, 2, 59, 0
6, 30120, Note_on_c, 2, 58, 88
6, 30236, Note_off_c, 2, 58, 0
6, 30240, Note_on_c, 2, 59, 88
6, 30954, Note_off_c, 2, 59, 0
6, 30960, Note_on_c, 2, 57, 88
6, 31076, Note_off_c, 2, 57, 0
6, 31080, Note_on_c, 2, 56, 88
6, 31196, Note_off_c, 2, 56, 0
6, 31200, Note_on_c, 2, 57, 88
6, 31434, Note_off_c, 2, 57, 0
6, 31440, Note_on_c, 2, 59, 88
6, 31556, Note_off_c, 2, 59, 0
6, 31560, Note_on_c, 2, 57, 88
6, 31676, Note_off_c, 2, 57, 0
6, 31680, Note_on_c, 2, 56, 88
6, 32388, Note_off_c, 2, 56, 0
6, 32400, Note_on_c, 2, 56, 88
6, 32634, Note_off_c, 2, 56, 0
6, 32640, Note_on_c, 2, 57, 88
6, 33348, Note_off_c, 2, 57, 0
6, 33360, Note_on_c, 2, 58, 88
6, 33594, Note_off_c, 2, 58, 0
6, 33600, Note_on_c, 2, 59, 88
6, 34308, Note_off_c, 2, 59, 0
6, 34320, Note_on_c, 2, 58, 88
6, 34554, Note_off_c, 2, 58, 0
6, 34560, Note_on_c, 2, 59, 88
6, 34913, Note_off_c, 2, 59, 0
6, 34920, Note_on_c, 2, 57, 88
6, 35036, Note_off_c, 2, 57, 0
6, 35040, Note_on_c, 2, 56, 88
6, 35156, Note_off_c, 2, 56, 0
6, 35160, Note_on_c, 2, 54, 88
6, 35276, Note_off_c, 2, 54, 0
6, 35280, Note_on_c, 2, 52, 88
6, 35396, Note_off_c, 2, 52, 0
6, 35400, Note_on_c, 2, 51, 88
6, 35516, Note_off_c, 2, 51, 0
6, 35520, Note_on_c, 2, 52, 88
6, 35990, Note_off_c, 2, 52, 0
6, 36480, Note_on_c, 2, 54, 88
6, 37425, Note_off_c, 2, 54, 0
6, 37440, Note_on_c, 2, 56, 88
6, 37910, Note_off_c, 2, 56, 0
6, 37920, Note_on_c, 2, 59, 88
6, 38390, Note_off_c, 2, 59, 0
6, 38400, Note_on_c, 2, 57, 88
6, 38870, Note_off_c, 2, 57, 0
6, 38880, Note_on_c, 2, 56, 88
6, 39588, Note_off_c, 2, 56, 0
6, 39600, Note_on_c, 2, 54, 88
6, 40070, Note_off_c, 2, 54, 0
6, 40080, Note_on_c, 2, 53, 88
6, 40314, Note_off_c, 2, 53, 0
6, 40320, Note_on_c, 2, 54, 88
6, 40790, Note_off_c, 2, 54, 0
6, 40800, Note_on_c, 2, 50, 88
6, 41270, Note_off_c, 2, 50, 0
6, 41280, Note_on_c, 2, 49, 88
6, 42948, Note_off_c, 2, 49, 0
6, 42960, Note_on_c, 2, 51, 88
6, 43194, Note_off_c, 2, 51, 0
6, 43200, Note_on_c, 2, 53, 88
6, 43434, Note_off_c, 2, 53, 0
6, 43440, Note_on_c, 2, 49, 88
6, 43674, Note_off_c, 2, 49, 0
6, 43680, Note_on_c, 2, 56, 88
6, 44150, Note_off_c, 2, 56, 0
6, 44160, Note_on_c, 2, 54, 88
6, 44630, Note_off_c, 2, 54, 0
6, 44640, Note_on_c, 2, 56, 88
6, 44874, Note_off_c, 2, 56, 0
6, 44880, Note_on_c, 2, 49, 88
6, 45350, Note_off_c, 2, 49, 0
6, 45360, Note_on_c, 2, 48, 88
6, 45594, Note_off_c, 2, 48, 0
6, 45600, Note_on_c, 2, 49, 88
6, 45834, Note_off_c, 2, 49, 0
6, 45840, Note_on_c, 2, 51, 88
6, 46074, Note_off_c, 2, 51, 0
6, 46080, Note_on_c, 2, 52, 88
6, 46314, Note_off_c, 2, 52, 0
6, 46320, Note_on_c, 2, 54, 88
6, 46436, Note_off_c, 2, 54, 0
6, 46440, Note_on_c, 2, 52, 88
6, 46556, Note_off_c, 2, 52, 0
6, 46560, Note_on_c, 2, 51, 88
6, 47505, Note_off_c, 2, 51, 0
6, 47520, Note_on_c, 2, 52, 88
6, 47754, Note_off_c, 2, 52, 0
6, 47760, Note_on_c, 2, 54, 88
6, 47994, Note_off_c, 2, 54, 0
6, 48000, Note_on_c, 2, 56, 88
6, 48708, Note_off_c, 2, 56, 0
6, 48720, Note_on_c, 2, 54, 88
6, 48954, Note_off_c, 2, 54, 0
6, 48960, Note_on_c, 2, 52, 88
6, 49430, Note_off_c, 2, 52, 0
6, 49440, Note_on_c, 2, 51, 88
6, 49910, Note_off_c, 2, 51, 0
6, 49920, Note_on_c, 2, 52, 88
6, 50390, Note_off_c, 2, 52, 0
6, 52320, Note_on_c, 2, 59, 88
6, 52790, Note_off_c, 2, 59, 0
6, 52800, Note_on_c, 2, 61, 88
6, 53034, Note_off_c, 2, 61, 0
6, 53040, Note_on_c, 2, 64, 88
6, 53274, Note_off_c, 2, 64, 0
6, 53280, Note_on_c, 2, 63, 88
6, 53514, Note_off_c, 2, 63, 0
6, 53520, Note_on_c, 2, 61, 88
6, 53754, Note_off_c, 2, 61, 0
6, 53760, Note_on_c, 2, 59, 88
6, 53994, Note_off_c, 2, 59, 0
6, 54000, Note_on_c, 2, 62, 88
6, 54234, Note_off_c, 2, 62, 0
6, 54240, Note_on_c, 2, 61, 88
6, 54474, Note_off_c, 2, 61, 0
6, 54480, Note_on_c, 2, 59, 88
6, 54714, Note_off_c, 2, 59, 0
6, 54720, Note_on_c, 2, 57, 88
6, 55190, Note_off_c, 2, 57, 0
6, 55200, Note_on_c, 2, 59, 88
6, 55670, Note_off_c, 2, 59, 0
6, 55680, Note_on_c, 2, 59, 88
6, 56388, Note_off_c, 2, 59, 0
6, 56400, Note_on_c, 2, 57, 88
6, 56634, Note_off_c, 2, 57, 0
6, 56640, Note_on_c, 2, 56, 88
6, 57348, Note_off_c, 2, 56, 0
6, 57360, Note_on_c, 2, 61, 88
6, 57594, Note_off_c, 2, 61, 0
6, 57600, Note_on_c, 2, 54, 88
6, 57834, Note_off_c, 2, 54, 0
6, 57840, Note_on_c, 2, 51, 88
6, 58074, Note_off_c, 2, 51, 0
6, 58080, Note_on_c, 2, 52, 88
6, 58314, Note_off_c, 2, 52, 0
6, 58320, Note_on_c, 2, 54, 88
6, 58554, Note_off_c, 2, 54, 0
6, 58560, Note_on_c, 2, 56, 88
6, 58794, Note_off_c, 2, 56, 0
6, 58800, Note_on_c, 2, 59, 88
6, 59034, Note_off_c, 2, 59, 0
6, 59040, Note_on_c, 2, 61, 88
6, 59274, Note_off_c, 2, 61, 0
6, 59280, Note_on_c, 2, 63, 88
6, 59514, Note_off_c, 2, 63, 0
6, 59520, Note_on_c, 2, 56, 88
6, 59754, Note_off_c, 2, 56, 0
6, 59760, Note_on_c, 2, 52, 88
6, 59994, Note_off_c, 2, 52, 0
6, 60000, Note_on_c, 2, 54, 88
6, 60234, Note_off_c, 2, 54, 0
6, 60240, Note_on_c, 2, 56, 88
6, 60474, Note_off_c, 2, 56, 0
6, 60480, Note_on_c, 2, 57, 88
6, 60714, Note_off_c, 2, 57, 0
6, 60720, Note_on_c, 2, 59, 88
6, 60954, Note_off_c, 2, 59, 0
6, 60960, Note_on_c, 2, 61, 88
6, 61673, Note_off_c, 2, 61, 0
6, 61680, Note_on_c, 2, 61, 88
6, 61914, Note_off_c, 2, 61, 0
6, 61920, Note_on_c, 2, 59, 88
6, 62154, Note_off_c, 2, 59, 0
6, 62160, Note_on_c, 2, 58, 88
6, 62394, Note_off_c, 2, 58, 0
6, 62400, Note_on_c, 2, 59, 88
6, 62634, Note_off_c, 2, 59, 0
6, 62640, Note_on_c, 2, 63, 88
6, 62874, Note_off_c, 2, 63, 0
6, 62880, Note_on_c, 2, 61, 88
6, 63350, Note_off_c, 2, 61, 0
6, 63360, Note_on_c, 2, 59, 88
6, 64068, Note_off_c, 2, 59, 0
6, 64080, Note_on_c, 2, 58, 88
6, 64196, Note_off_c, 2, 58, 0
6, 64200, Note_on_c, 2, 56, 88
6, 64316, Note_off_c, 2, 56, 0
6, 64320, Note_on_c, 2, 58, 88
6, 64554, Note_off_c, 2, 58, 0
6, 64560, Note_on_c, 2, 59, 88
6, 64794, Note_off_c, 2, 59, 0
6, 64800, Note_on_c, 2, 61, 88
6, 65270, Note_off_c, 2, 61, 0
6, 65280, Note_on_c, 2, 59, 88
6, 65750, Note_off_c, 2, 59, 0
6, 66240, Note_on_c, 2, 52, 88
6, 67185, Note_off_c, 2, 52, 0
6, 67200, Note_on_c, 2, 54, 88
6, 67670, Note_off_c, 2, 54, 0
6, 67680, Note_on_c, 2, 57, 88
6, 68150, Note_off_c, 2, 57, 0
6, 68160, Note_on_c, 2, 56, 88
6, 68630, Note_off_c, 2, 56, 0
6, 68640, Note_on_c, 2, 54, 88
6, 69110, Note_off_c, 2, 54, 0
6, 69120, Note_on_c, 2, 52, 88
6, 69590, Note_off_c, 2, 52, 0
6, 70800, Note_on_c, 2, 52, 88
6, 71034, Note_off_c, 2, 52, 0
6, 71040, Note_on_c, 2, 51, 88
6, 71274, Note_off_c, 2, 51, 0
6, 71280, Note_on_c, 2, 59, 88
6, 71514, Note_off_c, 2, 59, 0
6, 71520, Note_on_c, 2, 61, 88
6, 71754, Note_off_c, 2, 61, 0
6, 71760, Note_on_c, 2, 63, 88
6, 71994, Note_off_c, 2, 63, 0
6, 72000, Note_on_c, 2, 64, 88
6, 72116, Note_off_c, 2, 64, 0
6, 72120, Note_on_c, 2, 59, 88
6, 72236, Note_off_c, 2, 59, 0
6, 72240, Note_on_c, 2, 64, 88
6, 72710, Note_off_c, 2, 64, 0
6, 72720, Note_on_c, 2, 63, 88
6, 73076, Note_off_c, 2, 63, 0
6, 73080, Note_on_c, 2, 56, 88
6, 73196, Note_off_c, 2, 56, 0
6, 73200, Note_on_c, 2, 61, 88
6, 73670, Note_off_c, 2, 61, 0
6, 73680, Note_on_c, 2, 59, 88
6, 74033, Note_off_c, 2, 59, 0
6, 74040, Note_on_c, 2, 52, 88
6, 74156, Note_off_c, 2, 52, 0
6, 74160, Note_on_c, 2, 57, 88
6, 74630, Note_off_c, 2, 57, 0
6, 74640, Note_on_c, 2, 56, 88
6, 74874, Note_off_c, 2, 56, 0
6, 74880, Note_on_c, 2, 54, 88
6, 75825, Note_off_c, 2, 54, 0
6, 75840, Note_on_c, 2, 52, 88
6, 76074, Note_off_c, 2, 52, 0
6, 76080, Note_on_c, 2, 56, 88
6, 76314, Note_off_c, 2, 56, 0
6, 76320, Note_on_c, 2, 61, 88
6, 76554, Note_off_c, 2, 61, 0
6, 76560, Note_on_c, 2, 54, 88
6, 77033, Note_off_c, 2, 54, 0
6, 77040, Note_on_c, 2, 54, 88
6, 77274, Note_off_c, 2, 54, 0
6, 77280, Note_on_c, 2, 56, 88
6, 77514, Note_off_c, 2, 56, 0
6, 77520, Note_on_c, 2, 57, 88
6, 77754, Note_off_c, 2, 57, 0
6, 77760, Note_on_c, 2, 59, 88
6, 77994, Note_off_c, 2, 59, 0
6, 78000, Note_on_c, 2, 51, 88
6, 78234, Note_off_c, 2, 51, 0
6, 78240, Note_on_c, 2, 52, 88
6, 78474, Note_off_c, 2, 52, 0
6, 78480, Note_on_c, 2, 54, 88
6, 78714, Note_off_c, 2, 54, 0
6, 78720, Note_on_c, 2, 56, 88
6, 79190, Note_off_c, 2, 56, 0
6, 79200, Note_on_c, 2, 57, 88
6, 79670, Note_off_c, 2, 57, 0
6, 79680, Note_on_c, 2, 59, 88
6, 79914, Note_off_c, 2, 59, 0
6, 80400, Note_on_c, 2, 61, 88
6, 80634, Note_off_c, 2, 61, 0
6, 80640, Note_on_c, 2, 59, 88
6, 81348, Note_off_c, 2, 59, 0
6, 81360, Note_on_c, 2, 57, 88
6, 81594, Note_off_c, 2, 57, 0
6, 81600, Note_on_c, 2, 56, 88
6, 82545, Note_off_c, 2, 56, 0
6, 82545, End_track
7, 0, Start_track
7, 0, Title_t, "Track 4"
7, 0, Program_c, 3, 6
7, 0, Note_on_c, 3, 52, 88
7, 945, Note_off_c, 3, 52, 0
7, 960, Note_on_c, 3, 54, 88
7, 1430, Note_off_c, 3, 54, 0
7, 1440, Note_on_c, 3, 57, 88
7, 1910, Note_off_c, 3, 57, 0
7, 1920, Note_on_c, 3, 56, 88
7, 2390, Note_off_c, 3, 56, 0
7, 2400, Note_on_c, 3, 54, 88
7, 2870, Note_off_c, 3, 54, 0
7, 2880, Note_on_c, 3, 52, 88
7, 3114, Note_off_c, 3, 52, 0
7, 3120, Note_on_c, 3, 51, 88
7, 3236, Note_off_c, 3, 51, 0
7, 3240, Note_on_c, 3, 49, 88
7, 3356, Note_off_c, 3, 49, 0
7, 3360, Note_on_c, 3, 51, 88
7, 3594, Note_off_c, 3, 51, 0
7, 3600, Note_on_c, 3, 47, 88
7, 3834, Note_off_c, 3, 47, 0
7, 3840, Note_on_c, 3, 52, 88
7, 4074, Note_off_c, 3, 52, 0
7, 4080, Note_on_c, 3, 54, 88
7, 4314, Note_off_c, 3, 54, 0
7, 4320, Note_on_c, 3, 56, 88
7, 4554, Note_off_c, 3, 56, 0
7, 4560, Note_on_c, 3, 58, 88
7, 4794, Note_off_c, 3, 58, 0
7, 4800, Note_on_c, 3, 59, 88
7, 4916, Note_off_c, 3, 59, 0
7, 4920, Note_on_c, 3, 54, 88
7, 5036, Note_off_c, 3, 54, 0
7, 5040, Note_on_c, 3, 59, 88
7, 5510, Note_off_c, 3, 59, 0
7, 5520, Note_on_c, 3, 57, 88
7, 5994, Note_off_c, 3, 57, 0
7, 6000, Note_on_c, 3, 56, 88
7, 6116, Note_off_c, 3, 56, 0
7, 6120, Note_on_c, 3, 54, 88
7, 6236, Note_off_c, 3, 54, 0
7, 6240, Note_on_c, 3, 56, 88
7, 7185, Note_off_c, 3, 56, 0
7, 7200, Note_on_c, 3, 54, 88
7, 7670, Note_off_c, 3, 54, 0
7, 7680, Note_on_c, 3, 56, 88
7, 8150, Note_off_c, 3, 56, 0
7, 8160, Note_on_c, 3, 57, 88
7, 8394, Note_off_c, 3, 57, 0
7, 8400, Note_on_c, 3, 59, 88
7, 8516, Note_off_c, 3, 59, 0
7, 8520, Note_on_c, 3, 57, 88
7, 8636, Note_off_c, 3, 57, 0
7, 8640, Note_on_c, 3, 56, 88
7, 8874, Note_off_c, 3, 56, 0
7, 8880, Note_on_c, 3, 54, 88
7, 9114, Note_off_c, 3, 54, 0
7, 9120, Note_on_c, 3, 52, 88
7, 9354, Note_off_c, 3, 52, 0
7, 9360, Note_on_c, 3, 51, 88
7, 9594, Note_off_c, 3, 51, 0
7, 9600, Note_on_c, 3, 49, 88
7, 10545, Note_off_c, 3, 49, 0
7, 10560, Note_on_c, 3, 47, 88
7, 11030, Note_off_c, 3, 47, 0
7, 11040, Note_on_c, 3, 42, 88
7, 11510, Note_off_c, 3, 42, 0
7, 11520, Note_on_c, 3, 44, 88
7, 12228, Note_off_c, 3, 44, 0
7, 12240, Note_on_c, 3, 40, 88
7, 12474, Note_off_c, 3, 40, 0
7, 12480, Note_on_c, 3, 45, 88
7, 13188, Note_off_c, 3, 45, 0
7, 13200, Note_on_c, 3, 42, 88
7, 13434, Note_off_c, 3, 42, 0
7, 13440, Note_on_c, 3, 47, 88
7, 15830, Note_off_c, 3, 47, 0
7, 18240, Note_on_c, 3, 47, 88
7, 19185, Note_off_c, 3, 47, 0
7, 19200, Note_on_c, 3, 49, 88
7, 19670, Note_off_c, 3, 49, 0
7, 19680, Note_on_c, 3, 52, 88
7, 20150, Note_off_c, 3, 52, 0
7, 20160, Note_on_c, 3, 51, 88
7, 20630, Note_off_c, 3, 51, 0
7, 20640, Note_on_c, 3, 49, 88
7, 21110, Note_off_c, 3, 49, 0
7, 21120, Note_on_c, 3, 47, 88
7, 22537, Note_off_c, 3, 47, 0
7, 22560, Note_on_c, 3, 45, 88
7, 23030, Note_off_c, 3, 45, 0
7, 23040, Note_on_c, 3, 44, 88
7, 23985, Note_off_c, 3, 44, 0
7, 24000, Note_on_c, 3, 42, 88
7, 24234, Note_off_c, 3, 42, 0
7, 24240, Note_on_c, 3, 44, 88
7, 24474, Note_off_c, 3, 44, 0
7, 24480, Note_on_c, 3, 45, 88
7, 24714, Note_off_c, 3, 45, 0
7, 24720, Note_on_c, 3, 47, 88
7, 24954, Note_off_c, 3, 47, 0
7, 24960, Note_on_c, 3, 49, 88
7, 25194, Note_off_c, 3, 49, 0
7, 25200, Note_on_c, 3, 44, 88
7, 25434, Note_off_c, 3, 44, 0
7, 25440, Note_on_c, 3, 49, 88
7, 26385, Note_off_c, 3, 49, 0
7, 26400, Note_on_c, 3, 47, 88
7, 26870, Note_off_c, 3, 47, 0
7, 26880, Note_on_c, 3, 45, 88
7, 27825, Note_off_c, 3, 45, 0
7, 27840, Note_on_c, 3, 44, 88
7, 28785, Note_off_c, 3, 44, 0
7, 28800, Note_on_c, 3, 49, 88
7, 29270, Note_off_c, 3, 49, 0
7, 29520, Note_on_c, 3, 49, 88
7, 29754, Note_off_c, 3, 49, 0
7, 29760, Note_on_c, 3, 50, 88
7, 30468, Note_off_c, 3, 50, 0
7, 30480, Note_on_c, 3, 51, 88
7, 30714, Note_off_c, 3, 51, 0
7, 30720, Note_on_c, 3, 52, 88
7, 31428, Note_off_c, 3, 52, 0
7, 31440, Note_on_c, 3, 51, 88
7, 31674, Note_off_c, 3, 51, 0
7, 31680, Note_on_c, 3, 52, 88
7, 32150, Note_off_c, 3, 52, 0
7, 32160, Note_on_c, 3, 49, 88
7, 32630, Note_off_c, 3, 49, 0
7, 32640, Note_on_c, 3, 54, 88
7, 33110, Note_off_c, 3, 54, 0
7, 33120, Note_on_c, 3, 52, 88
7, 33590, Note_off_c, 3, 52, 0
7, 33600, Note_on_c, 3, 51, 88
7, 34070, Note_off_c, 3, 51, 0
7, 34080, Note_on_c, 3, 49, 88
7, 34550, Note_off_c, 3, 49, 0
7, 34560, Note_on_c, 3, 47, 88
7, 35505, Note_off_c, 3, 47, 0
7, 35520, Note_on_c, 3, 49, 88
7, 35990, Note_off_c, 3, 49, 0
7, 36000, Note_on_c, 3, 52, 88
7, 36470, Note_off_c, 3, 52, 0
7, 36480, Note_on_c, 3, 51, 88
7, 36950, Note_off_c, 3, 51, 0
7, 36960, Note_on_c, 3, 49, 88
7, 37430, Note_off_c, 3, 49, 0
7, 37440, Note_on_c, 3, 47, 88
7, 37674, Note_off_c, 3, 47, 0
7, 37680, Note_on_c, 3, 44, 88
7, 38150, Note_off_c, 3, 44, 0
7, 38160, Note_on_c, 3, 45, 88
7, 38276, Note_off_c, 3, 45, 0
7, 38280, Note_on_c, 3, 47, 88
7, 38396, Note_off_c, 3, 47, 0
7, 38400, Note_on_c, 3, 49, 88
7, 38870, Note_off_c, 3, 49, 0
7, 38880, Note_on_c, 3, 47, 88
7, 39350, Note_off_c, 3, 47, 0
7, 39360, Note_on_c, 3, 45, 88
7, 39830, Note_off_c, 3, 45, 0
7, 39840, Note_on_c, 3, 44, 88
7, 40310, Note_off_c, 3, 44, 0
7, 40320, Note_on_c, 3, 42, 88
7, 40790, Note_off_c, 3, 42, 0
7, 40800, Note_on_c, 3, 47, 88
7, 41270, Note_off_c, 3, 47, 0
7, 41280, Note_on_c, 3, 49, 88
7, 41750, Note_off_c, 3, 49, 0
7, 41760, Note_on_c, 3, 37, 88
7, 42230, Note_off_c, 3, 37, 0
7, 42240, Note_on_c, 3, 42, 88
7, 42474, Note_off_c, 3, 42, 0
7, 42480, Note_on_c, 3, 44, 88
7, 42714, Note_off_c, 3, 44, 0
7, 42720, Note_on_c, 3, 45, 88
7, 42954, Note_off_c, 3, 45, 0
7, 42960, Note_on_c, 3, 42, 88
7, 43194, Note_off_c, 3, 42, 0
7, 43200, Note_on_c, 3, 49, 88
7, 43670, Note_off_c, 3, 49, 0
7, 43680, Note_on_c, 3, 47, 88
7, 43914, Note_off_c, 3, 47, 0
7, 43920, Note_on_c, 3, 49, 88
7, 44154, Note_off_c, 3, 49, 0
7, 44160, Note_on_c, 3, 50, 88
7, 44394, Note_off_c, 3, 50, 0
7, 44400, Note_on_c, 3, 49, 88
7, 44634, Note_off_c, 3, 49, 0
7, 44640, Note_on_c, 3, 48, 88
7, 44874, Note_off_c, 3, 48, 0
7, 44880, Note_on_c, 3, 49, 88
7, 45114, Note_off_c, 3, 49, 0
7, 45120, Note_on_c, 3, 42, 88
7, 45354, Note_off_c, 3, 42, 0
7, 45360, Note_on_c, 3, 44, 88
7, 45594, Note_off_c, 3, 44, 0
7, 45600, Note_on_c, 3, 45, 88
7, 46070, Note_off_c, 3, 45, 0
7, 46080, Note_on_c, 3, 44, 88
7, 47025, Note_off_c, 3, 44, 0
7, 47040, Note_on_c, 3, 46, 88
7, 47274, Note_off_c, 3, 46, 0
7, 47280, Note_on_c, 3, 48, 88
7, 47514, Note_off_c, 3, 48, 0
7, 47520, Note_on_c, 3, 49, 88
7, 48234, Note_off_c, 3, 49, 0
7, 48240, Note_on_c, 3, 47, 88
7, 48474, Note_off_c, 3, 47, 0
7, 48480, Note_on_c, 3, 45, 88
7, 48950, Note_off_c, 3, 45, 0
7, 48960, Note_on_c, 3, 44, 88
7, 50390, Note_off_c, 3, 44, 0
7, 50400, Note_on_c, 3, 42, 88
7, 50870, Note_off_c, 3, 42, 0
7, 50880, Note_on_c, 3, 40, 88
7, 51114, Note_off_c, 3, 40, 0
7, 51120, Note_on_c, 3, 37, 88
7, 51354, Note_off_c, 3, 37, 0
7, 51360, Note_on_c, 3, 42, 88
7, 51830, Note_off_c, 3, 42, 0
7, 51840, Note_on_c, 3, 47, 88
7, 52310, Note_off_c, 3, 47, 0
7, 53280, Note_on_c, 3, 54, 88
7, 53750, Note_off_c, 3, 54, 0
7, 53760, Note_on_c, 3, 56, 88
7, 53994, Note_off_c, 3, 56, 0
7, 54000, Note_on_c, 3, 59, 88
7, 54234, Note_off_c, 3, 59, 0
7, 54240, Note_on_c, 3, 57, 88
7, 54474, Note_off_c, 3, 57, 0
7, 54480, Note_on_c, 3, 56, 88
7, 54714, Note_off_c, 3, 56, 0
7, 54720, Note_on_c, 3, 54, 88
7, 55190, Note_off_c, 3, 54, 0
7, 55200, Note_on_c, 3, 52, 88
7, 55670, Note_off_c, 3, 52, 0
7, 55680, Note_on_c, 3, 59, 88
7, 56150, Note_off_c, 3, 59, 0
7, 56160, Note_on_c, 3, 47, 88
7, 56630, Note_off_c, 3, 47, 0
7, 56640, Note_on_c, 3, 49, 88
7, 56874, Note_off_c, 3, 49, 0
7, 56880, Note_on_c, 3, 52, 88
7, 57114, Note_off_c, 3, 52, 0
7, 57120, Note_on_c, 3, 51, 88
7, 57354, Note_off_c, 3, 51, 0
7, 57360, Note_on_c, 3, 49, 88
7, 57594, Note_off_c, 3, 49, 0
7, 57600, Note_on_c, 3, 51, 88
7, 57834, Note_off_c, 3, 51, 0
7, 57840, Note_on_c, 3, 47, 88
7, 58074, Note_off_c, 3, 47, 0
7, 58080, Note_on_c, 3, 49, 88
7, 58314, Note_off_c, 3, 49, 0
7, 58320, Note_on_c, 3, 51, 88
7, 58554, Note_off_c, 3, 51, 0
7, 58560, Note_on_c, 3, 52, 88
7, 59268, Note_off_c, 3, 52, 0
7, 59280, Note_on_c, 3, 51, 88
7, 59514, Note_off_c, 3, 51, 0
7, 59520, Note_on_c, 3, 52, 88
7, 59754, Note_off_c, 3, 52, 0
7, 59760, Note_on_c, 3, 49, 88
7, 59994, Note_off_c, 3, 49, 0
7, 60000, Note_on_c, 3, 51, 88
7, 60234, Note_off_c, 3, 51, 0
7, 60240, Note_on_c, 3, 53, 88
7, 60474, Note_off_c, 3, 53, 0
7, 60480, Note_on_c, 3, 54, 88
7, 61188, Note_off_c, 3, 54, 0
7, 61200, Note_on_c, 3, 53, 88
7, 61434, Note_off_c, 3, 53, 0
7, 61440, Note_on_c, 3, 54, 88
7, 61674, Note_off_c, 3, 54, 0
7, 61680, Note_on_c, 3, 51, 88
7, 61914, Note_off_c, 3, 51, 0
7, 61920, Note_on_c, 3, 53, 88
7, 62154, Note_off_c, 3, 53, 0
7, 62160, Note_on_c, 3, 55, 88
7, 62394, Note_off_c, 3, 55, 0
7, 62400, Note_on_c, 3, 56, 88
7, 63108, Note_off_c, 3, 56, 0
7, 63120, Note_on_c, 3, 55, 88
7, 63354, Note_off_c, 3, 55, 0
7, 63360, Note_on_c, 3, 56, 88
7, 63830, Note_off_c, 3, 56, 0
7, 63840, Note_on_c, 3, 53, 88
7, 64310, Note_off_c, 3, 53, 0
7, 64320, Note_on_c, 3, 51, 88
7, 64790, Note_off_c, 3, 51, 0
7, 64800, Note_on_c, 3, 39, 88
7, 65270, Note_off_c, 3, 39, 0
7, 65280, Note_on_c, 3, 44, 88
7, 65750, Note_off_c, 3, 44, 0
7, 68160, Note_on_c, 3, 47, 88
7, 69105, Note_off_c, 3, 47, 0
7, 69120, Note_on_c, 3, 49, 88
7, 69590, Note_off_c, 3, 49, 0
7, 69600, Note_on_c, 3, 52, 88
7, 70070, Note_off_c, 3, 52, 0
7, 70080, Note_on_c, 3, 51, 88
7, 70550, Note_off_c, 3, 51, 0
7, 70560, Note_on_c, 3, 49, 88
7, 71030, Note_off_c, 3, 49, 0
7, 71040, Note_on_c, 3, 47, 88
7, 71274, Note_off_c, 3, 47, 0
7, 74880, Note_on_c, 3, 47, 88
7, 75825, Note_off_c, 3, 47, 0
7, 75840, Note_on_c, 3, 49, 88
7, 76310, Note_off_c, 3, 49, 0
7, 76320, Note_on_c, 3, 52, 88
7, 76790, Note_off_c, 3, 52, 0
7, 76800, Note_on_c, 3, 51, 88
7, 77270, Note_off_c, 3, 51, 0
7, 77280, Note_on_c, 3, 49, 88
7, 77750, Note_off_c, 3, 49, 0
7, 77760, Note_on_c, 3, 47, 88
7, 78230, Note_off_c, 3, 47, 0
7, 78240, Note_on_c, 3, 45, 88
7, 78710, Note_off_c, 3, 45, 0
7, 78720, Note_on_c, 3, 44, 88
7, 79190, Note_off_c, 3, 44, 0
7, 79200, Note_on_c, 3, 42, 88
7, 79670, Note_off_c, 3, 42, 0
7, 79680, Note_on_c, 3, 40, 88
7, 79914, Note_off_c, 3, 40, 0
7, 79920, Note_on_c, 3, 42, 88
7, 80154, Note_off_c, 3, 42, 0
7, 80160, Note_on_c, 3, 44, 88
7, 80394, Note_off_c, 3, 44, 0
7, 80400, Note_on_c, 3, 45, 88
7, 80634, Note_off_c, 3, 45, 0
7, 80640, Note_on_c, 3, 47, 88
7, 81585, Note_off_c, 3, 47, 0
7, 81600, Note_on_c, 3, 40, 88
7, 82545, Note_off_c, 3, 40, 0
7, 82545, End_track
0, 0, End_of_file
