0, 0, Header, 1, 7, 240
1, 0, Start_track
1, 0, Time_signature, 2, 1, 24, 8
1, 0, Tempo, 576923
1, 0, SMPTE_offset, 64, 0, 0, 0, 202
1, 66000, Tempo, 612244
1, 66480, Tempo, 857142
1, 66960, Tempo, 1500000
1, 67040, Tempo, 576923
1, 78960, Tempo, 612244
1, 79440, Tempo, 1500000
1, 79520, Tempo, 3000000
1, 79600, Tempo, 1500000
1, 79680, Tempo, 612244
1, 80880, Tempo, 638297
1, 81120, Tempo, 681818
1, 81360, Tempo, 731707
1, 81520, Tempo, 789473
1, 82320, Tempo, 1200000
1, 82320, End_track
2, 0, Start_track
2, 0, Title_t, "(C) & (P) 1993"
2, 127, End_track
3, 0, Start_track
3, 0, Title_t, "CCARH,Stanford"
3, 0, End_track
4, 0, Start_track
4, 0, Title_t, "Track 1"
4, 0, Program_c, 0, 6
4, 80, Note_on_c, 0, 64, 88
4, 157, Note_off_c, 0, 64, 0
4, 160, Note_on_c, 0, 66, 88
4, 237, Note_off_c, 0, 66, 0
4, 240, Note_on_c, 0, 67, 88
4, 474, Note_off_c, 0, 67, 0
4, 480, Note_on_c, 0, 69, 88
4, 538, Note_off_c, 0, 69, 0
4, 540, Note_on_c, 0, 67, 88
4, 598, Note_off_c, 0, 67, 0
4, 600, Note_on_c, 0, 66, 88
4, 658, Note_off_c, 0, 66, 0
4, 660, Note_on_c, 0, 67, 88
4, 718, Note_off_c, 0, 67, 0
4, 720, Note_on_c, 0, 69, 88
4, 954, Note_off_c, 0, 69, 0
4, 960, Note_on_c, 0, 71, 88
4, 1018, Note_off_c, 0, 71, 0
4, 1020, Note_on_c, 0, 69, 88
4, 1078, Note_off_c, 0, 69, 0
4, 1080, Note_on_c, 0, 67, 88
4, 1138, Note_off_c, 0, 67, 0
4, 1140, Note_on_c, 0, 69, 88
4, 1198, Note_off_c, 0, 69, 0
4, 1200, Note_on_c, 0, 71, 88
4, 1434, Note_off_c, 0, 71, 0
4, 1440, Note_on_c, 0, 67, 88
4, 1674, Note_off_c, 0, 67, 0
4, 1680, Note_on_c, 0, 64, 88
4, 1914, Note_off_c, 0, 64, 0
4, 1920, Note_on_c, 0, 72, 88
4, 2394, Note_off_c, 0, 72, 0
4, 2400, Note_on_c, 0, 71, 88
4, 2556, Note_off_c, 0, 71, 0
4, 2560, Note_on_c, 0, 75, 88
4, 2637, Note_off_c, 0, 75, 0
4, 2640, Note_on_c, 0, 76, 88
4, 2874, Note_off_c, 0, 76, 0
4, 2880, Note_on_c, 0, 69, 88
4, 3354, Note_off_c, 0, 69, 0
4, 3360, Note_on_c, 0, 67, 88
4, 3516, Note_off_c, 0, 67, 0
4, 3520, Note_on_c, 0, 75, 88
4, 3597, Note_off_c, 0, 75, 0
4, 3600, Note_on_c, 0, 76, 88
4, 3834, Note_off_c, 0, 76, 0
4, 3840, Note_on_c, 0, 66, 88
4, 4157, Note_off_c, 0, 66, 0
4, 4160, Note_on_c, 0, 67, 88
4, 4237, Note_off_c, 0, 67, 0
4, 4240, Note_on_c, 0, 69, 88
4, 4317, Note_off_c, 0, 69, 0
4, 4320, Note_on_c, 0, 67, 88
4, 4397, Note_off_c, 0, 67, 0
4, 4400, Note_on_c, 0, 66, 88
4, 4477, Note_off_c, 0, 66, 0
4, 4480, Note_on_c, 0, 64, 88
4, 4557, Note_off_c, 0, 64, 0
4, 4560, Note_on_c, 0, 63, 88
4, 4637, Note_off_c, 0, 63, 0
4, 4640, Note_on_c, 0, 72, 88
4, 4717, Note_off_c, 0, 72, 0
4, 4720, Note_on_c, 0, 71, 88
4, 4797, Note_off_c, 0, 71, 0
4, 4800, Note_on_c, 0, 69, 88
4, 4877, Note_off_c, 0, 69, 0
4, 4880, Note_on_c, 0, 67, 88
4, 4957, Note_off_c, 0, 67, 0
4, 4960, Note_on_c, 0, 66, 88
4, 5037, Note_off_c, 0, 66, 0
4, 5040, Note_on_c, 0, 67, 88
4, 5117, Note_off_c, 0, 67, 0
4, 5120, Note_on_c, 0, 69, 88
4, 5197, Note_off_c, 0, 69, 0
4, 5200, Note_on_c, 0, 71, 88
4, 5277, Note_off_c, 0, 71, 0
4, 5280, Note_on_c, 0, 69, 88
4, 5357, Note_off_c, 0, 69, 0
4, 5360, Note_on_c, 0, 67, 88
4, 5437, Note_off_c, 0, 67, 0
4, 5440, Note_on_c, 0, 66, 88
4, 5517, Note_off_c, 0, 66, 0
4, 5520, Note_on_c, 0, 64, 88
4, 5597, Note_off_c, 0, 64, 0
4, 5600, Note_on_c, 0, 76, 88
4, 5677, Note_off_c, 0, 76, 0
4, 5680, Note_on_c, 0, 74, 88
4, 5757, Note_off_c, 0, 74, 0
4, 5760, Note_on_c, 0, 73, 88
4, 5837, Note_off_c, 0, 73, 0
4, 5840, Note_on_c, 0, 71, 88
4, 5917, Note_off_c, 0, 71, 0
4, 5920, Note_on_c, 0, 70, 88
4, 5997, Note_off_c, 0, 70, 0
4, 6000, Note_on_c, 0, 71, 88
4, 6077, Note_off_c, 0, 71, 0
4, 6080, Note_on_c, 0, 74, 88
4, 6157, Note_off_c, 0, 74, 0
4, 6160, Note_on_c, 0, 78, 88
4, 6237, Note_off_c, 0, 78, 0
4, 6240, Note_on_c, 0, 80, 88
4, 6474, Note_off_c, 0, 80, 0
4, 6480, Note_on_c, 0, 73, 88
4, 6557, Note_off_c, 0, 73, 0
4, 6560, Note_on_c, 0, 76, 88
4, 6637, Note_off_c, 0, 76, 0
4, 6640, Note_on_c, 0, 79, 88
4, 6717, Note_off_c, 0, 79, 0
4, 6720, Note_on_c, 0, 82, 88
4, 6954, Note_off_c, 0, 82, 0
4, 6960, Note_on_c, 0, 74, 88
4, 7037, Note_off_c, 0, 74, 0
4, 7040, Note_on_c, 0, 78, 88
4, 7117, Note_off_c, 0, 78, 0
4, 7120, Note_on_c, 0, 82, 88
4, 7197, Note_off_c, 0, 82, 0
4, 7200, Note_on_c, 0, 83, 88
4, 7514, Note_off_c, 0, 83, 0
4, 7520, Note_on_c, 0, 81, 88
4, 7597, Note_off_c, 0, 81, 0
4, 7600, Note_on_c, 0, 79, 88
4, 7677, Note_off_c, 0, 79, 0
4, 7680, Note_on_c, 0, 78, 88
4, 7757, Note_off_c, 0, 78, 0
4, 7760, Note_on_c, 0, 76, 88
4, 7837, Note_off_c, 0, 76, 0
4, 7840, Note_on_c, 0, 75, 88
4, 7917, Note_off_c, 0, 75, 0
4, 7920, Note_on_c, 0, 76, 88
4, 8390, Note_off_c, 0, 76, 0
4, 8400, Note_on_c, 0, 74, 88
4, 8870, Note_off_c, 0, 74, 0
4, 8880, Note_on_c, 0, 73, 88
4, 9350, Note_off_c, 0, 73, 0
4, 9360, Note_on_c, 0, 71, 88
4, 9830, Note_off_c, 0, 71, 0
4, 9840, Note_on_c, 0, 70, 88
4, 10074, Note_off_c, 0, 70, 0
4, 10080, Note_on_c, 0, 71, 88
4, 10314, Note_off_c, 0, 71, 0
4, 10320, Note_on_c, 0, 73, 88
4, 11034, Note_off_c, 0, 73, 0
4, 11040, Note_on_c, 0, 78, 88
4, 11196, Note_off_c, 0, 78, 0
4, 11200, Note_on_c, 0, 70, 88
4, 11277, Note_off_c, 0, 70, 0
4, 11280, Note_on_c, 0, 71, 88
4, 11837, Note_off_c, 0, 71, 0
4, 11840, Note_on_c, 0, 67, 88
4, 11917, Note_off_c, 0, 67, 0
4, 11920, Note_on_c, 0, 71, 88
4, 11997, Note_off_c, 0, 71, 0
4, 12000, Note_on_c, 0, 73, 88
4, 12314, Note_off_c, 0, 73, 0
4, 12320, Note_on_c, 0, 69, 88
4, 12397, Note_off_c, 0, 69, 0
4, 12400, Note_on_c, 0, 72, 88
4, 12477, Note_off_c, 0, 72, 0
4, 12480, Note_on_c, 0, 75, 88
4, 12797, Note_off_c, 0, 75, 0
4, 12800, Note_on_c, 0, 71, 88
4, 12877, Note_off_c, 0, 71, 0
4, 12880, Note_on_c, 0, 75, 88
4, 12957, Note_off_c, 0, 75, 0
4, 12960, Note_on_c, 0, 76, 88
4, 13757, Note_off_c, 0, 76, 0
4, 13760, Note_on_c, 0, 75, 88
4, 13837, Note_off_c, 0, 75, 0
4, 13840, Note_on_c, 0, 76, 88
4, 13917, Note_off_c, 0, 76, 0
4, 13920, Note_on_c, 0, 78, 88
4, 14234, Note_off_c, 0, 78, 0
4, 14240, Note_on_c, 0, 76, 88
4, 14317, Note_off_c, 0, 76, 0
4, 14320, Note_on_c, 0, 74, 88
4, 14397, Note_off_c, 0, 74, 0
4, 14400, Note_on_c, 0, 73, 88
4, 14477, Note_off_c, 0, 73, 0
4, 14480, Note_on_c, 0, 75, 88
4, 14557, Note_off_c, 0, 75, 0
4, 14560, Note_on_c, 0, 76, 88
4, 14637, Note_off_c, 0, 76, 0
4, 14640, Note_on_c, 0, 75, 88
4, 14717, Note_off_c, 0, 75, 0
4, 14720, Note_on_c, 0, 76, 88
4, 14797, Note_off_c, 0, 76, 0
4, 14800, Note_on_c, 0, 78, 88
4, 14877, Note_off_c, 0, 78, 0
4, 14880, Note_on_c, 0, 71, 88
4, 15194, Note_off_c, 0, 71, 0
4, 15200, Note_on_c, 0, 69, 88
4, 15277, Note_off_c, 0, 69, 0
4, 15280, Note_on_c, 0, 67, 88
4, 15357, Note_off_c, 0, 67, 0
4, 15360, Note_on_c, 0, 69, 88
4, 15437, Note_off_c, 0, 69, 0
4, 15440, Note_on_c, 0, 71, 88
4, 15517, Note_off_c, 0, 71, 0
4, 15520, Note_on_c, 0, 72, 88
4, 15834, Note_off_c, 0, 72, 0
4, 15840, Note_on_c, 0, 71, 88
4, 15917, Note_off_c, 0, 71, 0
4, 15920, Note_on_c, 0, 69, 88
4, 15997, Note_off_c, 0, 69, 0
4, 16000, Note_on_c, 0, 67, 88
4, 16077, Note_off_c, 0, 67, 0
4, 16080, Note_on_c, 0, 69, 88
4, 16314, Note_off_c, 0, 69, 0
4, 16320, Note_on_c, 0, 63, 88
4, 16554, Note_off_c, 0, 63, 0
4, 16560, Note_on_c, 0, 71, 88
4, 17190, Note_off_c, 0, 71, 0
4, 17200, Note_on_c, 0, 64, 88
4, 17277, Note_off_c, 0, 64, 0
4, 17280, Note_on_c, 0, 63, 88
4, 17436, Note_off_c, 0, 63, 0
4, 17440, Note_on_c, 0, 64, 88
4, 17517, Note_off_c, 0, 64, 0
4, 17520, Note_on_c, 0, 72, 88
4, 18150, Note_off_c, 0, 72, 0
4, 18160, Note_on_c, 0, 66, 88
4, 18237, Note_off_c, 0, 66, 0
4, 18240, Note_on_c, 0, 64, 88
4, 18396, Note_off_c, 0, 64, 0
4, 18400, Note_on_c, 0, 66, 88
4, 18477, Note_off_c, 0, 66, 0
4, 18480, Note_on_c, 0, 74, 88
4, 19031, Note_off_c, 0, 74, 0
4, 19040, Note_on_c, 0, 67, 88
4, 19117, Note_off_c, 0, 67, 0
4, 19120, Note_on_c, 0, 69, 88
4, 19197, Note_off_c, 0, 69, 0
4, 19200, Note_on_c, 0, 71, 88
4, 19277, Note_off_c, 0, 71, 0
4, 19280, Note_on_c, 0, 72, 88
4, 19357, Note_off_c, 0, 72, 0
4, 19360, Note_on_c, 0, 74, 88
4, 19437, Note_off_c, 0, 74, 0
4, 19440, Note_on_c, 0, 76, 88
4, 19991, Note_off_c, 0, 76, 0
4, 20000, Note_on_c, 0, 66, 88
4, 20077, Note_off_c, 0, 66, 0
4, 20080, Note_on_c, 0, 67, 88
4, 20157, Note_off_c, 0, 67, 0
4, 20160, Note_on_c, 0, 69, 88
4, 20237, Note_off_c, 0, 69, 0
4, 20240, Note_on_c, 0, 71, 88
4, 20317, Note_off_c, 0, 71, 0
4, 20320, Note_on_c, 0, 72, 88
4, 20397, Note_off_c, 0, 72, 0
4, 20400, Note_on_c, 0, 74, 88
4, 20951, Note_off_c, 0, 74, 0
4, 20960, Note_on_c, 0, 64, 88
4, 21037, Note_off_c, 0, 64, 0
4, 21040, Note_on_c, 0, 66, 88
4, 21117, Note_off_c, 0, 66, 0
4, 21120, Note_on_c, 0, 67, 88
4, 21197, Note_off_c, 0, 67, 0
4, 21200, Note_on_c, 0, 69, 88
4, 21277, Note_off_c, 0, 69, 0
4, 21280, Note_on_c, 0, 71, 88
4, 21357, Note_off_c, 0, 71, 0
4, 21360, Note_on_c, 0, 72, 88
4, 21911, Note_off_c, 0, 72, 0
4, 21920, Note_on_c, 0, 62, 88
4, 21997, Note_off_c, 0, 62, 0
4, 22000, Note_on_c, 0, 64, 88
4, 22077, Note_off_c, 0, 64, 0
4, 22080, Note_on_c, 0, 66, 88
4, 22157, Note_off_c, 0, 66, 0
4, 22160, Note_on_c, 0, 67, 88
4, 22237, Note_off_c, 0, 67, 0
4, 22240, Note_on_c, 0, 69, 88
4, 22317, Note_off_c, 0, 69, 0
4, 22320, Note_on_c, 0, 71, 88
4, 22554, Note_off_c, 0, 71, 0
4, 22560, Note_on_c, 0, 72, 88
4, 22618, Note_off_c, 0, 72, 0
4, 22620, Note_on_c, 0, 71, 88
4, 22678, Note_off_c, 0, 71, 0
4, 22680, Note_on_c, 0, 69, 88
4, 22738, Note_off_c, 0, 69, 0
4, 22740, Note_on_c, 0, 71, 88
4, 22798, Note_off_c, 0, 71, 0
4, 22800, Note_on_c, 0, 72, 88
4, 23034, Note_off_c, 0, 72, 0
4, 23040, Note_on_c, 0, 74, 88
4, 23098, Note_off_c, 0, 74, 0
4, 23100, Note_on_c, 0, 72, 88
4, 23158, Note_off_c, 0, 72, 0
4, 23160, Note_on_c, 0, 71, 88
4, 23218, Note_off_c, 0, 71, 0
4, 23220, Note_on_c, 0, 72, 88
4, 23278, Note_off_c, 0, 72, 0
4, 23280, Note_on_c, 0, 74, 88
4, 23514, Note_off_c, 0, 74, 0
4, 23520, Note_on_c, 0, 71, 88
4, 23754, Note_off_c, 0, 71, 0
4, 23760, Note_on_c, 0, 67, 88
4, 23994, Note_off_c, 0, 67, 0
4, 24000, Note_on_c, 0, 76, 88
4, 24474, Note_off_c, 0, 76, 0
4, 24480, Note_on_c, 0, 74, 88
4, 24636, Note_off_c, 0, 74, 0
4, 24640, Note_on_c, 0, 78, 88
4, 24717, Note_off_c, 0, 78, 0
4, 24720, Note_on_c, 0, 79, 88
4, 24954, Note_off_c, 0, 79, 0
4, 24960, Note_on_c, 0, 72, 88
4, 25434, Note_off_c, 0, 72, 0
4, 25440, Note_on_c, 0, 71, 88
4, 25596, Note_off_c, 0, 71, 0
4, 25600, Note_on_c, 0, 78, 88
4, 25677, Note_off_c, 0, 78, 0
4, 25680, Note_on_c, 0, 79, 88
4, 25914, Note_off_c, 0, 79, 0
4, 25920, Note_on_c, 0, 69, 88
4, 26237, Note_off_c, 0, 69, 0
4, 26240, Note_on_c, 0, 71, 88
4, 26317, Note_off_c, 0, 71, 0
4, 26320, Note_on_c, 0, 72, 88
4, 26397, Note_off_c, 0, 72, 0
4, 26400, Note_on_c, 0, 71, 88
4, 26477, Note_off_c, 0, 71, 0
4, 26480, Note_on_c, 0, 69, 88
4, 26557, Note_off_c, 0, 69, 0
4, 26560, Note_on_c, 0, 67, 88
4, 26637, Note_off_c, 0, 67, 0
4, 26640, Note_on_c, 0, 66, 88
4, 26717, Note_off_c, 0, 66, 0
4, 26720, Note_on_c, 0, 76, 88
4, 26797, Note_off_c, 0, 76, 0
4, 26800, Note_on_c, 0, 74, 88
4, 26877, Note_off_c, 0, 74, 0
4, 26880, Note_on_c, 0, 72, 88
4, 26957, Note_off_c, 0, 72, 0
4, 26960, Note_on_c, 0, 71, 88
4, 27037, Note_off_c, 0, 71, 0
4, 27040, Note_on_c, 0, 69, 88
4, 27117, Note_off_c, 0, 69, 0
4, 27120, Note_on_c, 0, 71, 88
4, 27197, Note_off_c, 0, 71, 0
4, 27200, Note_on_c, 0, 72, 88
4, 27277, Note_off_c, 0, 72, 0
4, 27280, Note_on_c, 0, 74, 88
4, 27357, Note_off_c, 0, 74, 0
4, 27360, Note_on_c, 0, 72, 88
4, 27437, Note_off_c, 0, 72, 0
4, 27440, Note_on_c, 0, 71, 88
4, 27517, Note_off_c, 0, 71, 0
4, 27520, Note_on_c, 0, 69, 88
4, 27597, Note_off_c, 0, 69, 0
4, 27600, Note_on_c, 0, 67, 88
4, 27677, Note_off_c, 0, 67, 0
4, 27680, Note_on_c, 0, 79, 88
4, 27757, Note_off_c, 0, 79, 0
4, 27760, Note_on_c, 0, 78, 88
4, 27837, Note_off_c, 0, 78, 0
4, 27840, Note_on_c, 0, 76, 88
4, 27917, Note_off_c, 0, 76, 0
4, 27920, Note_on_c, 0, 74, 88
4, 27997, Note_off_c, 0, 74, 0
4, 28000, Note_on_c, 0, 73, 88
4, 28077, Note_off_c, 0, 73, 0
4, 28080, Note_on_c, 0, 74, 88
4, 28314, Note_off_c, 0, 74, 0
4, 28560, Note_on_c, 0, 73, 88
4, 28794, Note_off_c, 0, 73, 0
4, 29040, Note_on_c, 0, 72, 88
4, 29274, Note_off_c, 0, 72, 0
4, 29520, Note_on_c, 0, 71, 88
4, 29754, Note_off_c, 0, 71, 0
4, 29760, Note_on_c, 0, 74, 88
4, 29994, Note_off_c, 0, 74, 0
4, 30000, Note_on_c, 0, 79, 88
4, 30470, Note_off_c, 0, 79, 0
4, 30480, Note_on_c, 0, 78, 88
4, 30950, Note_off_c, 0, 78, 0
4, 30960, Note_on_c, 0, 76, 88
4, 31430, Note_off_c, 0, 76, 0
4, 31440, Note_on_c, 0, 74, 88
4, 31910, Note_off_c, 0, 74, 0
4, 31920, Note_on_c, 0, 73, 88
4, 32154, Note_off_c, 0, 73, 0
4, 32160, Note_on_c, 0, 74, 88
4, 32394, Note_off_c, 0, 74, 0
4, 32400, Note_on_c, 0, 76, 88
4, 33036, Note_off_c, 0, 76, 0
4, 33040, Note_on_c, 0, 73, 88
4, 33117, Note_off_c, 0, 73, 0
4, 33120, Note_on_c, 0, 74, 88
4, 33276, Note_off_c, 0, 74, 0
4, 33280, Note_on_c, 0, 76, 88
4, 33357, Note_off_c, 0, 76, 0
4, 33360, Note_on_c, 0, 78, 88
4, 33996, Note_off_c, 0, 78, 0
4, 34000, Note_on_c, 0, 75, 88
4, 34077, Note_off_c, 0, 75, 0
4, 34080, Note_on_c, 0, 76, 88
4, 34236, Note_off_c, 0, 76, 0
4, 34240, Note_on_c, 0, 78, 88
4, 34317, Note_off_c, 0, 78, 0
4, 34320, Note_on_c, 0, 79, 88
4, 34554, Note_off_c, 0, 79, 0
4, 34560, Note_on_c, 0, 73, 88
4, 34877, Note_off_c, 0, 73, 0
4, 34880, Note_on_c, 0, 74, 88
4, 34957, Note_off_c, 0, 74, 0
4, 34960, Note_on_c, 0, 76, 88
4, 35037, Note_off_c, 0, 76, 0
4, 35040, Note_on_c, 0, 74, 88
4, 35117, Note_off_c, 0, 74, 0
4, 35120, Note_on_c, 0, 73, 88
4, 35197, Note_off_c, 0, 73, 0
4, 35200, Note_on_c, 0, 71, 88
4, 35277, Note_off_c, 0, 71, 0
4, 35280, Note_on_c, 0, 82, 88
4, 35514, Note_off_c, 0, 82, 0
4, 35520, Note_on_c, 0, 73, 88
4, 35559, Note_off_c, 0, 73, 0
4, 35560, Note_on_c, 0, 74, 88
4, 35601, Note_off_c, 0, 74, 0
4, 35603, Note_on_c, 0, 73, 88
4, 35641, Note_off_c, 0, 73, 0
4, 35643, Note_on_c, 0, 71, 88
4, 35681, Note_off_c, 0, 71, 0
4, 35683, Note_on_c, 0, 73, 88
4, 35757, Note_off_c, 0, 73, 0
4, 35760, Note_on_c, 0, 78, 88
4, 36468, Note_off_c, 0, 78, 0
4, 36480, Note_on_c, 0, 76, 88
4, 36797, Note_off_c, 0, 76, 0
4, 36800, Note_on_c, 0, 78, 88
4, 36877, Note_off_c, 0, 78, 0
4, 36880, Note_on_c, 0, 76, 88
4, 36957, Note_off_c, 0, 76, 0
4, 36960, Note_on_c, 0, 74, 88
4, 37037, Note_off_c, 0, 74, 0
4, 37040, Note_on_c, 0, 73, 88
4, 37117, Note_off_c, 0, 73, 0
4, 37120, Note_on_c, 0, 71, 88
4, 37197, Note_off_c, 0, 71, 0
4, 37200, Note_on_c, 0, 78, 88
4, 37757, Note_off_c, 0, 78, 0
4, 37760, Note_on_c, 0, 79, 88
4, 37837, Note_off_c, 0, 79, 0
4, 37840, Note_on_c, 0, 78, 88
4, 37917, Note_off_c, 0, 78, 0
4, 37920, Note_on_c, 0, 76, 88
4, 37997, Note_off_c, 0, 76, 0
4, 38000, Note_on_c, 0, 75, 88
4, 38077, Note_off_c, 0, 75, 0
4, 38080, Note_on_c, 0, 73, 88
4, 38157, Note_off_c, 0, 73, 0
4, 38160, Note_on_c, 0, 81, 88
4, 38874, Note_off_c, 0, 81, 0
4, 38880, Note_on_c, 0, 79, 88
4, 39114, Note_off_c, 0, 79, 0
4, 39120, Note_on_c, 0, 78, 88
4, 40070, Note_off_c, 0, 78, 0
4, 40160, Note_on_c, 0, 76, 88
4, 40237, Note_off_c, 0, 76, 0
4, 40240, Note_on_c, 0, 68, 88
4, 40317, Note_off_c, 0, 68, 0
4, 40320, Note_on_c, 0, 70, 88
4, 40554, Note_off_c, 0, 70, 0
4, 40560, Note_on_c, 0, 74, 88
4, 40637, Note_off_c, 0, 74, 0
4, 40640, Note_on_c, 0, 78, 88
4, 40717, Note_off_c, 0, 78, 0
4, 40720, Note_on_c, 0, 70, 88
4, 40797, Note_off_c, 0, 70, 0
4, 40800, Note_on_c, 0, 71, 88
4, 41597, Note_off_c, 0, 71, 0
4, 41600, Note_on_c, 0, 73, 88
4, 41677, Note_off_c, 0, 73, 0
4, 41680, Note_on_c, 0, 71, 88
4, 41757, Note_off_c, 0, 71, 0
4, 41760, Note_on_c, 0, 70, 88
4, 41837, Note_off_c, 0, 70, 0
4, 41840, Note_on_c, 0, 68, 88
4, 41917, Note_off_c, 0, 68, 0
4, 41920, Note_on_c, 0, 66, 88
4, 41997, Note_off_c, 0, 66, 0
4, 42080, Note_on_c, 0, 71, 88
4, 42157, Note_off_c, 0, 71, 0
4, 42160, Note_on_c, 0, 69, 88
4, 42237, Note_off_c, 0, 69, 0
4, 42240, Note_on_c, 0, 67, 88
4, 42317, Note_off_c, 0, 67, 0
4, 42320, Note_on_c, 0, 66, 88
4, 42397, Note_off_c, 0, 66, 0
4, 42400, Note_on_c, 0, 64, 88
4, 42477, Note_off_c, 0, 64, 0
4, 42480, Note_on_c, 0, 70, 88
4, 42557, Note_off_c, 0, 70, 0
4, 42560, Note_on_c, 0, 66, 88
4, 42637, Note_off_c, 0, 66, 0
4, 42640, Note_on_c, 0, 68, 88
4, 42717, Note_off_c, 0, 68, 0
4, 42720, Note_on_c, 0, 70, 88
4, 42797, Note_off_c, 0, 70, 0
4, 42800, Note_on_c, 0, 71, 88
4, 42877, Note_off_c, 0, 71, 0
4, 42880, Note_on_c, 0, 73, 88
4, 42957, Note_off_c, 0, 73, 0
4, 42960, Note_on_c, 0, 74, 88
4, 43037, Note_off_c, 0, 74, 0
4, 43040, Note_on_c, 0, 61, 88
4, 43117, Note_off_c, 0, 61, 0
4, 43120, Note_on_c, 0, 62, 88
4, 43197, Note_off_c, 0, 62, 0
4, 43200, Note_on_c, 0, 64, 88
4, 43277, Note_off_c, 0, 64, 0
4, 43280, Note_on_c, 0, 66, 88
4, 43357, Note_off_c, 0, 66, 0
4, 43360, Note_on_c, 0, 67, 88
4, 43674, Note_off_c, 0, 67, 0
4, 43680, Note_on_c, 0, 66, 88
4, 43757, Note_off_c, 0, 66, 0
4, 43760, Note_on_c, 0, 64, 88
4, 43837, Note_off_c, 0, 64, 0
4, 43840, Note_on_c, 0, 62, 88
4, 43917, Note_off_c, 0, 62, 0
4, 43920, Note_on_c, 0, 64, 88
4, 44154, Note_off_c, 0, 64, 0
4, 44160, Note_on_c, 0, 58, 88
4, 44394, Note_off_c, 0, 58, 0
4, 44400, Note_on_c, 0, 66, 88
4, 45030, Note_off_c, 0, 66, 0
4, 45040, Note_on_c, 0, 59, 88
4, 45117, Note_off_c, 0, 59, 0
4, 45120, Note_on_c, 0, 58, 88
4, 45276, Note_off_c, 0, 58, 0
4, 45280, Note_on_c, 0, 59, 88
4, 45357, Note_off_c, 0, 59, 0
4, 45360, Note_on_c, 0, 67, 88
4, 45990, Note_off_c, 0, 67, 0
4, 46000, Note_on_c, 0, 61, 88
4, 46077, Note_off_c, 0, 61, 0
4, 46080, Note_on_c, 0, 59, 88
4, 46236, Note_off_c, 0, 59, 0
4, 46240, Note_on_c, 0, 61, 88
4, 46317, Note_off_c, 0, 61, 0
4, 46320, Note_on_c, 0, 69, 88
4, 46950, Note_off_c, 0, 69, 0
4, 46960, Note_on_c, 0, 64, 88
4, 47037, Note_off_c, 0, 64, 0
4, 47040, Note_on_c, 0, 63, 88
4, 47274, Note_off_c, 0, 63, 0
4, 47280, Note_on_c, 0, 64, 88
4, 47514, Note_off_c, 0, 64, 0
4, 47760, Note_on_c, 0, 72, 88
4, 47994, Note_off_c, 0, 72, 0
4, 48240, Note_on_c, 0, 71, 88
4, 48474, Note_off_c, 0, 71, 0
4, 48560, Note_on_c, 0, 76, 88
4, 48637, Note_off_c, 0, 76, 0
4, 48640, Note_on_c, 0, 74, 88
4, 48717, Note_off_c, 0, 74, 0
4, 48720, Note_on_c, 0, 72, 88
4, 48797, Note_off_c, 0, 72, 0
4, 48800, Note_on_c, 0, 71, 88
4, 48877, Note_off_c, 0, 71, 0
4, 48880, Note_on_c, 0, 69, 88
4, 48957, Note_off_c, 0, 69, 0
4, 48960, Note_on_c, 0, 68, 88
4, 49037, Note_off_c, 0, 68, 0
4, 49040, Note_on_c, 0, 69, 88
4, 49117, Note_off_c, 0, 69, 0
4, 49120, Note_on_c, 0, 71, 88
4, 49197, Note_off_c, 0, 71, 0
4, 49200, Note_on_c, 0, 64, 88
4, 49277, Note_off_c, 0, 64, 0
4, 49280, Note_on_c, 0, 66, 88
4, 49357, Note_off_c, 0, 66, 0
4, 49360, Note_on_c, 0, 64, 88
4, 49437, Note_off_c, 0, 64, 0
4, 49440, Note_on_c, 0, 63, 88
4, 49517, Note_off_c, 0, 63, 0
4, 49520, Note_on_c, 0, 64, 88
4, 49597, Note_off_c, 0, 64, 0
4, 49600, Note_on_c, 0, 66, 88
4, 49677, Note_off_c, 0, 66, 0
4, 49680, Note_on_c, 0, 59, 88
4, 49757, Note_off_c, 0, 59, 0
4, 49760, Note_on_c, 0, 64, 88
4, 49837, Note_off_c, 0, 64, 0
4, 49840, Note_on_c, 0, 62, 88
4, 49917, Note_off_c, 0, 62, 0
4, 49920, Note_on_c, 0, 61, 88
4, 49997, Note_off_c, 0, 61, 0
4, 50000, Note_on_c, 0, 63, 88
4, 50077, Note_off_c, 0, 63, 0
4, 50080, Note_on_c, 0, 64, 88
4, 50157, Note_off_c, 0, 64, 0
4, 50160, Note_on_c, 0, 63, 88
4, 50237, Note_off_c, 0, 63, 0
4, 50240, Note_on_c, 0, 64, 88
4, 50317, Note_off_c, 0, 64, 0
4, 50320, Note_on_c, 0, 66, 88
4, 50397, Note_off_c, 0, 66, 0
4, 50400, Note_on_c, 0, 59, 88
4, 50477, Note_off_c, 0, 59, 0
4, 50480, Note_on_c, 0, 60, 88
4, 50557, Note_off_c, 0, 60, 0
4, 50560, Note_on_c, 0, 57, 88
4, 50637, Note_off_c, 0, 57, 0
4, 50640, Note_on_c, 0, 55, 88
4, 50717, Note_off_c, 0, 55, 0
4, 50720, Note_on_c, 0, 57, 88
4, 50797, Note_off_c, 0, 57, 0
4, 50800, Note_on_c, 0, 59, 88
4, 50877, Note_off_c, 0, 59, 0
4, 50880, Note_on_c, 0, 60, 88
4, 50957, Note_off_c, 0, 60, 0
4, 50960, Note_on_c, 0, 59, 88
4, 51037, Note_off_c, 0, 59, 0
4, 51040, Note_on_c, 0, 57, 88
4, 51117, Note_off_c, 0, 57, 0
4, 51120, Note_on_c, 0, 59, 88
4, 51590, Note_off_c, 0, 59, 0
4, 51840, Note_on_c, 0, 75, 88
4, 52074, Note_off_c, 0, 75, 0
4, 52080, Note_on_c, 0, 76, 88
4, 52550, Note_off_c, 0, 76, 0
4, 52640, Note_on_c, 0, 77, 88
4, 52717, Note_off_c, 0, 77, 0
4, 52720, Note_on_c, 0, 76, 88
4, 52797, Note_off_c, 0, 76, 0
4, 52800, Note_on_c, 0, 74, 88
4, 52877, Note_off_c, 0, 74, 0
4, 52880, Note_on_c, 0, 72, 88
4, 52957, Note_off_c, 0, 72, 0
4, 52960, Note_on_c, 0, 71, 88
4, 53037, Note_off_c, 0, 71, 0
4, 53040, Note_on_c, 0, 72, 88
4, 53117, Note_off_c, 0, 72, 0
4, 53120, Note_on_c, 0, 74, 88
4, 53197, Note_off_c, 0, 74, 0
4, 53200, Note_on_c, 0, 76, 88
4, 53277, Note_off_c, 0, 76, 0
4, 53280, Note_on_c, 0, 74, 88
4, 53357, Note_off_c, 0, 74, 0
4, 53360, Note_on_c, 0, 72, 88
4, 53437, Note_off_c, 0, 72, 0
4, 53440, Note_on_c, 0, 71, 88
4, 53517, Note_off_c, 0, 71, 0
4, 53520, Note_on_c, 0, 69, 88
4, 53597, Note_off_c, 0, 69, 0
4, 53600, Note_on_c, 0, 83, 88
4, 53677, Note_off_c, 0, 83, 0
4, 53680, Note_on_c, 0, 81, 88
4, 53757, Note_off_c, 0, 81, 0
4, 53760, Note_on_c, 0, 79, 88
4, 53837, Note_off_c, 0, 79, 0
4, 53840, Note_on_c, 0, 78, 88
4, 53917, Note_off_c, 0, 78, 0
4, 53920, Note_on_c, 0, 76, 88
4, 53997, Note_off_c, 0, 76, 0
4, 54000, Note_on_c, 0, 78, 88
4, 54077, Note_off_c, 0, 78, 0
4, 54080, Note_on_c, 0, 79, 88
4, 54157, Note_off_c, 0, 79, 0
4, 54160, Note_on_c, 0, 81, 88
4, 54237, Note_off_c, 0, 81, 0
4, 54240, Note_on_c, 0, 79, 88
4, 54317, Note_off_c, 0, 79, 0
4, 54320, Note_on_c, 0, 78, 88
4, 54397, Note_off_c, 0, 78, 0
4, 54400, Note_on_c, 0, 76, 88
4, 54477, Note_off_c, 0, 76, 0
4, 54480, Note_on_c, 0, 74, 88
4, 54557, Note_off_c, 0, 74, 0
4, 54560, Note_on_c, 0, 76, 88
4, 54637, Note_off_c, 0, 76, 0
4, 54640, Note_on_c, 0, 74, 88
4, 54717, Note_off_c, 0, 74, 0
4, 54720, Note_on_c, 0, 72, 88
4, 54797, Note_off_c, 0, 72, 0
4, 54800, Note_on_c, 0, 71, 88
4, 54877, Note_off_c, 0, 71, 0
4, 54880, Note_on_c, 0, 69, 88
4, 54957, Note_off_c, 0, 69, 0
4, 54960, Note_on_c, 0, 71, 88
4, 55037, Note_off_c, 0, 71, 0
4, 55040, Note_on_c, 0, 72, 88
4, 55117, Note_off_c, 0, 72, 0
4, 55120, Note_on_c, 0, 74, 88
4, 55197, Note_off_c, 0, 74, 0
4, 55200, Note_on_c, 0, 72, 88
4, 55277, Note_off_c, 0, 72, 0
4, 55280, Note_on_c, 0, 71, 88
4, 55357, Note_off_c, 0, 71, 0
4, 55360, Note_on_c, 0, 69, 88
4, 55437, Note_off_c, 0, 69, 0
4, 55440, Note_on_c, 0, 67, 88
4, 55556, Note_off_c, 0, 67, 0
4, 56720, Note_on_c, 0, 69, 88
4, 56797, Note_off_c, 0, 69, 0
4, 56800, Note_on_c, 0, 71, 88
4, 56877, Note_off_c, 0, 71, 0
4, 56880, Note_on_c, 0, 72, 88
4, 57114, Note_off_c, 0, 72, 0
4, 57120, Note_on_c, 0, 74, 88
4, 57178, Note_off_c, 0, 74, 0
4, 57180, Note_on_c, 0, 72, 88
4, 57238, Note_off_c, 0, 72, 0
4, 57240, Note_on_c, 0, 71, 88
4, 57298, Note_off_c, 0, 71, 0
4, 57300, Note_on_c, 0, 72, 88
4, 57358, Note_off_c, 0, 72, 0
4, 57360, Note_on_c, 0, 74, 88
4, 57594, Note_off_c, 0, 74, 0
4, 57600, Note_on_c, 0, 76, 88
4, 57658, Note_off_c, 0, 76, 0
4, 57660, Note_on_c, 0, 74, 88
4, 57718, Note_off_c, 0, 74, 0
4, 57720, Note_on_c, 0, 72, 88
4, 57778, Note_off_c, 0, 72, 0
4, 57780, Note_on_c, 0, 74, 88
4, 57838, Note_off_c, 0, 74, 0
4, 57840, Note_on_c, 0, 76, 88
4, 58074, Note_off_c, 0, 76, 0
4, 58080, Note_on_c, 0, 72, 88
4, 58314, Note_off_c, 0, 72, 0
4, 58320, Note_on_c, 0, 69, 88
4, 58554, Note_off_c, 0, 69, 0
4, 58560, Note_on_c, 0, 77, 88
4, 59034, Note_off_c, 0, 77, 0
4, 59040, Note_on_c, 0, 76, 88
4, 59196, Note_off_c, 0, 76, 0
4, 59200, Note_on_c, 0, 80, 88
4, 59277, Note_off_c, 0, 80, 0
4, 59280, Note_on_c, 0, 81, 88
4, 59514, Note_off_c, 0, 81, 0
4, 59520, Note_on_c, 0, 74, 88
4, 59994, Note_off_c, 0, 74, 0
4, 60000, Note_on_c, 0, 72, 88
4, 60156, Note_off_c, 0, 72, 0
4, 60160, Note_on_c, 0, 80, 88
4, 60237, Note_off_c, 0, 80, 0
4, 60240, Note_on_c, 0, 81, 88
4, 60474, Note_off_c, 0, 81, 0
4, 60480, Note_on_c, 0, 71, 88
4, 60797, Note_off_c, 0, 71, 0
4, 60800, Note_on_c, 0, 72, 88
4, 60877, Note_off_c, 0, 72, 0
4, 60880, Note_on_c, 0, 74, 88
4, 60957, Note_off_c, 0, 74, 0
4, 60960, Note_on_c, 0, 72, 88
4, 61037, Note_off_c, 0, 72, 0
4, 61040, Note_on_c, 0, 71, 88
4, 61117, Note_off_c, 0, 71, 0
4, 61120, Note_on_c, 0, 69, 88
4, 61197, Note_off_c, 0, 69, 0
4, 61200, Note_on_c, 0, 68, 88
4, 61277, Note_off_c, 0, 68, 0
4, 61280, Note_on_c, 0, 77, 88
4, 61357, Note_off_c, 0, 77, 0
4, 61360, Note_on_c, 0, 76, 88
4, 61437, Note_off_c, 0, 76, 0
4, 61440, Note_on_c, 0, 74, 88
4, 61517, Note_off_c, 0, 74, 0
4, 61520, Note_on_c, 0, 72, 88
4, 61597, Note_off_c, 0, 72, 0
4, 61600, Note_on_c, 0, 71, 88
4, 61677, Note_off_c, 0, 71, 0
4, 61680, Note_on_c, 0, 72, 88
4, 61757, Note_off_c, 0, 72, 0
4, 61760, Note_on_c, 0, 74, 88
4, 61837, Note_off_c, 0, 74, 0
4, 61840, Note_on_c, 0, 76, 88
4, 61917, Note_off_c, 0, 76, 0
4, 61920, Note_on_c, 0, 74, 88
4, 61997, Note_off_c, 0, 74, 0
4, 62000, Note_on_c, 0, 72, 88
4, 62077, Note_off_c, 0, 72, 0
4, 62080, Note_on_c, 0, 71, 88
4, 62157, Note_off_c, 0, 71, 0
4, 62160, Note_on_c, 0, 69, 88
4, 63191, Note_off_c, 0, 69, 0
4, 63200, Note_on_c, 0, 63, 88
4, 63277, Note_off_c, 0, 63, 0
4, 63280, Note_on_c, 0, 64, 88
4, 63357, Note_off_c, 0, 64, 0
4, 63360, Note_on_c, 0, 66, 88
4, 63437, Note_off_c, 0, 66, 0
4, 63440, Note_on_c, 0, 67, 88
4, 63517, Note_off_c, 0, 67, 0
4, 63520, Note_on_c, 0, 69, 88
4, 63597, Note_off_c, 0, 69, 0
4, 63600, Note_on_c, 0, 67, 88
4, 64151, Note_off_c, 0, 67, 0
4, 64160, Note_on_c, 0, 63, 88
4, 64237, Note_off_c, 0, 63, 0
4, 64240, Note_on_c, 0, 64, 88
4, 64317, Note_off_c, 0, 64, 0
4, 64320, Note_on_c, 0, 67, 88
4, 64397, Note_off_c, 0, 67, 0
4, 64400, Note_on_c, 0, 66, 88
4, 64477, Note_off_c, 0, 66, 0
4, 64480, Note_on_c, 0, 69, 88
4, 64557, Note_off_c, 0, 69, 0
4, 64560, Note_on_c, 0, 63, 88
4, 64716, Note_off_c, 0, 63, 0
4, 64720, Note_on_c, 0, 64, 88
4, 64797, Note_off_c, 0, 64, 0
4, 64800, Note_on_c, 0, 66, 88
4, 65114, Note_off_c, 0, 66, 0
4, 65120, Note_on_c, 0, 59, 88
4, 65197, Note_off_c, 0, 59, 0
4, 65200, Note_on_c, 0, 63, 88
4, 65277, Note_off_c, 0, 63, 0
4, 65280, Note_on_c, 0, 66, 88
4, 65357, Note_off_c, 0, 66, 0
4, 65360, Note_on_c, 0, 71, 88
4, 65437, Note_off_c, 0, 71, 0
4, 65440, Note_on_c, 0, 63, 88
4, 65517, Note_off_c, 0, 63, 0
4, 65520, Note_on_c, 0, 64, 88
4, 66071, Note_off_c, 0, 64, 0
4, 66080, Note_on_c, 0, 67, 88
4, 66157, Note_off_c, 0, 67, 0
4, 66160, Note_on_c, 0, 70, 88
4, 66237, Note_off_c, 0, 70, 0
4, 66240, Note_on_c, 0, 73, 88
4, 66317, Note_off_c, 0, 73, 0
4, 66320, Note_on_c, 0, 75, 88
4, 66397, Note_off_c, 0, 75, 0
4, 66400, Note_on_c, 0, 76, 88
4, 66477, Note_off_c, 0, 76, 0
4, 66480, Note_on_c, 0, 64, 88
4, 66714, Note_off_c, 0, 64, 0
4, 66720, Note_on_c, 0, 63, 88
4, 66954, Note_off_c, 0, 63, 0
4, 67520, Note_on_c, 0, 59, 88
4, 67597, Note_off_c, 0, 59, 0
4, 67600, Note_on_c, 0, 61, 88
4, 67677, Note_off_c, 0, 61, 0
4, 67680, Note_on_c, 0, 63, 88
4, 67757, Note_off_c, 0, 63, 0
4, 67760, Note_on_c, 0, 64, 88
4, 67837, Note_off_c, 0, 64, 0
4, 67840, Note_on_c, 0, 66, 88
4, 67917, Note_off_c, 0, 66, 0
4, 67920, Note_on_c, 0, 67, 88
4, 67997, Note_off_c, 0, 67, 0
4, 68000, Note_on_c, 0, 72, 88
4, 68077, Note_off_c, 0, 72, 0
4, 68080, Note_on_c, 0, 71, 88
4, 68157, Note_off_c, 0, 71, 0
4, 68160, Note_on_c, 0, 69, 88
4, 68237, Note_off_c, 0, 69, 0
4, 68240, Note_on_c, 0, 67, 88
4, 68317, Note_off_c, 0, 67, 0
4, 68320, Note_on_c, 0, 66, 88
4, 68397, Note_off_c, 0, 66, 0
4, 68400, Note_on_c, 0, 64, 88
4, 68477, Note_off_c, 0, 64, 0
4, 68480, Note_on_c, 0, 79, 88
4, 68557, Note_off_c, 0, 79, 0
4, 68560, Note_on_c, 0, 76, 88
4, 68637, Note_off_c, 0, 76, 0
4, 68640, Note_on_c, 0, 73, 88
4, 68874, Note_off_c, 0, 73, 0
4, 68880, Note_on_c, 0, 66, 88
4, 68957, Note_off_c, 0, 66, 0
4, 68960, Note_on_c, 0, 81, 88
4, 69037, Note_off_c, 0, 81, 0
4, 69040, Note_on_c, 0, 78, 88
4, 69117, Note_off_c, 0, 78, 0
4, 69120, Note_on_c, 0, 75, 88
4, 69354, Note_off_c, 0, 75, 0
4, 69360, Note_on_c, 0, 67, 88
4, 69437, Note_off_c, 0, 67, 0
4, 69440, Note_on_c, 0, 83, 88
4, 69517, Note_off_c, 0, 83, 0
4, 69520, Note_on_c, 0, 79, 88
4, 69597, Note_off_c, 0, 79, 0
4, 69600, Note_on_c, 0, 76, 88
4, 69677, Note_off_c, 0, 76, 0
4, 69680, Note_on_c, 0, 74, 88
4, 69757, Note_off_c, 0, 74, 0
4, 69760, Note_on_c, 0, 73, 88
4, 69837, Note_off_c, 0, 73, 0
4, 69840, Note_on_c, 0, 74, 88
4, 70310, Note_off_c, 0, 74, 0
4, 70320, Note_on_c, 0, 72, 88
4, 70397, Note_off_c, 0, 72, 0
4, 70400, Note_on_c, 0, 66, 88
4, 70477, Note_off_c, 0, 66, 0
4, 70480, Note_on_c, 0, 64, 88
4, 70557, Note_off_c, 0, 64, 0
4, 70560, Note_on_c, 0, 63, 88
4, 70637, Note_off_c, 0, 63, 0
4, 70640, Note_on_c, 0, 64, 88
4, 70717, Note_off_c, 0, 64, 0
4, 70720, Note_on_c, 0, 66, 88
4, 70797, Note_off_c, 0, 66, 0
4, 70800, Note_on_c, 0, 67, 88
4, 70877, Note_off_c, 0, 67, 0
4, 70880, Note_on_c, 0, 69, 88
4, 70957, Note_off_c, 0, 69, 0
4, 70960, Note_on_c, 0, 71, 88
4, 71037, Note_off_c, 0, 71, 0
4, 71040, Note_on_c, 0, 72, 88
4, 71117, Note_off_c, 0, 72, 0
4, 71120, Note_on_c, 0, 71, 88
4, 71197, Note_off_c, 0, 71, 0
4, 71200, Note_on_c, 0, 69, 88
4, 71277, Note_off_c, 0, 69, 0
4, 71280, Note_on_c, 0, 75, 88
4, 71357, Note_off_c, 0, 75, 0
4, 71360, Note_on_c, 0, 76, 88
4, 71437, Note_off_c, 0, 76, 0
4, 71440, Note_on_c, 0, 78, 88
4, 71517, Note_off_c, 0, 78, 0
4, 71520, Note_on_c, 0, 71, 88
4, 71597, Note_off_c, 0, 71, 0
4, 71600, Note_on_c, 0, 72, 88
4, 71677, Note_off_c, 0, 72, 0
4, 71680, Note_on_c, 0, 69, 88
4, 71757, Note_off_c, 0, 69, 0
4, 71760, Note_on_c, 0, 67, 88
4, 71837, Note_off_c, 0, 67, 0
4, 71840, Note_on_c, 0, 66, 88
4, 71917, Note_off_c, 0, 66, 0
4, 71920, Note_on_c, 0, 67, 88
4, 71997, Note_off_c, 0, 67, 0
4, 72000, Note_on_c, 0, 69, 88
4, 72077, Note_off_c, 0, 69, 0
4, 72080, Note_on_c, 0, 71, 88
4, 72157, Note_off_c, 0, 71, 0
4, 72160, Note_on_c, 0, 72, 88
4, 72474, Note_off_c, 0, 72, 0
4, 72480, Note_on_c, 0, 71, 88
4, 72557, Note_off_c, 0, 71, 0
4, 72560, Note_on_c, 0, 69, 88
4, 72637, Note_off_c, 0, 69, 0
4, 72640, Note_on_c, 0, 67, 88
4, 72717, Note_off_c, 0, 67, 0
4, 72720, Note_on_c, 0, 69, 88
4, 73356, Note_off_c, 0, 69, 0
4, 73360, Note_on_c, 0, 66, 88
4, 73437, Note_off_c, 0, 66, 0
4, 73440, Note_on_c, 0, 71, 88
4, 73596, Note_off_c, 0, 71, 0
4, 73600, Note_on_c, 0, 69, 88
4, 73677, Note_off_c, 0, 69, 0
4, 73680, Note_on_c, 0, 67, 88
4, 74237, Note_off_c, 0, 67, 0
4, 74240, Note_on_c, 0, 71, 88
4, 74317, Note_off_c, 0, 71, 0
4, 74320, Note_on_c, 0, 69, 88
4, 74397, Note_off_c, 0, 69, 0
4, 74400, Note_on_c, 0, 67, 88
4, 74477, Note_off_c, 0, 67, 0
4, 74480, Note_on_c, 0, 66, 88
4, 74557, Note_off_c, 0, 66, 0
4, 74560, Note_on_c, 0, 64, 88
4, 74637, Note_off_c, 0, 64, 0
4, 74640, Note_on_c, 0, 63, 88
4, 74717, Note_off_c, 0, 63, 0
4, 74720, Note_on_c, 0, 72, 88
4, 74954, Note_off_c, 0, 72, 0
4, 74960, Note_on_c, 0, 64, 88
4, 75037, Note_off_c, 0, 64, 0
4, 75040, Note_on_c, 0, 63, 88
4, 75117, Note_off_c, 0, 63, 0
4, 75120, Note_on_c, 0, 71, 88
4, 75197, Note_off_c, 0, 71, 0
4, 75200, Note_on_c, 0, 64, 88
4, 75277, Note_off_c, 0, 64, 0
4, 75280, Note_on_c, 0, 67, 88
4, 75357, Note_off_c, 0, 67, 0
4, 75360, Note_on_c, 0, 73, 88
4, 75752, Note_off_c, 0, 73, 0
4, 75760, Note_on_c, 0, 69, 88
4, 75837, Note_off_c, 0, 69, 0
4, 75840, Note_on_c, 0, 75, 88
4, 76236, Note_off_c, 0, 75, 0
4, 76240, Note_on_c, 0, 71, 88
4, 76317, Note_off_c, 0, 71, 0
4, 76320, Note_on_c, 0, 76, 88
4, 76712, Note_off_c, 0, 76, 0
4, 76720, Note_on_c, 0, 75, 88
4, 76797, Note_off_c, 0, 75, 0
4, 76800, Note_on_c, 0, 78, 88
4, 77196, Note_off_c, 0, 78, 0
4, 77200, Note_on_c, 0, 76, 88
4, 77277, Note_off_c, 0, 76, 0
4, 77280, Note_on_c, 0, 79, 88
4, 77514, Note_off_c, 0, 79, 0
4, 78080, Note_on_c, 0, 72, 88
4, 78157, Note_off_c, 0, 72, 0
4, 78160, Note_on_c, 0, 78, 88
4, 78237, Note_off_c, 0, 78, 0
4, 78240, Note_on_c, 0, 81, 88
4, 78317, Note_off_c, 0, 81, 0
4, 78320, Note_on_c, 0, 75, 88
4, 78397, Note_off_c, 0, 75, 0
4, 78400, Note_on_c, 0, 78, 88
4, 78477, Note_off_c, 0, 78, 0
4, 78480, Note_on_c, 0, 72, 88
4, 78557, Note_off_c, 0, 72, 0
4, 78560, Note_on_c, 0, 71, 88
4, 78637, Note_off_c, 0, 71, 0
4, 78640, Note_on_c, 0, 75, 88
4, 78717, Note_off_c, 0, 75, 0
4, 78720, Note_on_c, 0, 78, 88
4, 78797, Note_off_c, 0, 78, 0
4, 78800, Note_on_c, 0, 69, 88
4, 78877, Note_off_c, 0, 69, 0
4, 78880, Note_on_c, 0, 72, 88
4, 78957, Note_off_c, 0, 72, 0
4, 78960, Note_on_c, 0, 67, 88
4, 79037, Note_off_c, 0, 67, 0
4, 79040, Note_on_c, 0, 66, 88
4, 79117, Note_off_c, 0, 66, 0
4, 79120, Note_on_c, 0, 69, 88
4, 79197, Note_off_c, 0, 69, 0
4, 79200, Note_on_c, 0, 72, 88
4, 79277, Note_off_c, 0, 72, 0
4, 79280, Note_on_c, 0, 66, 88
4, 79357, Note_off_c, 0, 66, 0
4, 79360, Note_on_c, 0, 69, 88
4, 79437, Note_off_c, 0, 69, 0
4, 79440, Note_on_c, 0, 64, 88
4, 79510, Note_off_c, 0, 64, 0
4, 79520, Note_on_c, 0, 63, 88
4, 79525, Note_off_c, 0, 63, 0
4, 79525, Note_on_c, 0, 64, 88
4, 79532, Note_off_c, 0, 64, 0
4, 79533, Note_on_c, 0, 63, 88
4, 79540, Note_off_c, 0, 63, 0
4, 79540, Note_on_c, 0, 64, 88
4, 79547, Note_off_c, 0, 64, 0
4, 79548, Note_on_c, 0, 63, 88
4, 79598, Note_off_c, 0, 63, 0
4, 79600, Note_on_c, 0, 75, 88
4, 79615, Note_off_c, 0, 75, 0
4, 79615, Note_on_c, 0, 76, 88
4, 79632, Note_off_c, 0, 76, 0
4, 79633, Note_on_c, 0, 75, 88
4, 79649, Note_off_c, 0, 75, 0
4, 79650, Note_on_c, 0, 73, 88
4, 79665, Note_off_c, 0, 73, 0
4, 79665, Note_on_c, 0, 75, 88
4, 79680, Note_off_c, 0, 75, 0
4, 79680, Note_on_c, 0, 76, 88
4, 79997, Note_off_c, 0, 76, 0
4, 80000, Note_on_c, 0, 74, 88
4, 80077, Note_off_c, 0, 74, 0
4, 80080, Note_on_c, 0, 72, 88
4, 80157, Note_off_c, 0, 72, 0
4, 80160, Note_on_c, 0, 71, 88
4, 80237, Note_off_c, 0, 71, 0
4, 80240, Note_on_c, 0, 69, 88
4, 80317, Note_off_c, 0, 69, 0
4, 80320, Note_on_c, 0, 67, 88
4, 80397, Note_off_c, 0, 67, 0
4, 80400, Note_on_c, 0, 69, 88
4, 80477, Note_off_c, 0, 69, 0
4, 80480, Note_on_c, 0, 66, 88
4, 80557, Note_off_c, 0, 66, 0
4, 80560, Note_on_c, 0, 67, 88
4, 80637, Note_off_c, 0, 67, 0
4, 80640, Note_on_c, 0, 69, 88
4, 80717, Note_off_c, 0, 69, 0
4, 80720, Note_on_c, 0, 71, 88
4, 80797, Note_off_c, 0, 71, 0
4, 80800, Note_on_c, 0, 72, 88
4, 80957, Note_off_c, 0, 72, 0
4, 80960, Note_on_c, 0, 71, 88
4, 81037, Note_off_c, 0, 71, 0
4, 81040, Note_on_c, 0, 69, 88
4, 81117, Note_off_c, 0, 69, 0
4, 81120, Note_on_c, 0, 67, 88
4, 81197, Note_off_c, 0, 67, 0
4, 81200, Note_on_c, 0, 63, 88
4, 81277, Note_off_c, 0, 63, 0
4, 81280, Note_on_c, 0, 64, 88
4, 81436, Note_off_c, 0, 64, 0
4, 81440, Note_on_c, 0, 66, 88
4, 81479, Note_off_c, 0, 66, 0
4, 81480, Note_on_c, 0, 69, 88
4, 81519, Note_off_c, 0, 69, 0
4, 81520, Note_on_c, 0, 72, 88
4, 81597, Note_off_c, 0, 72, 0
4, 81600, Note_on_c, 0, 64, 88
4, 81622, Note_off_c, 0, 64, 0
4, 81623, Note_on_c, 0, 63, 88
4, 81647, Note_off_c, 0, 63, 0
4, 81648, Note_on_c, 0, 64, 88
4, 81672, Note_off_c, 0, 64, 0
4, 81673, Note_on_c, 0, 63, 88
4, 81697, Note_off_c, 0, 63, 0
4, 81698, Note_on_c, 0, 64, 88
4, 81719, Note_off_c, 0, 64, 0
4, 81720, Note_on_c, 0, 63, 88
4, 81759, Note_off_c, 0, 63, 0
4, 81760, Note_on_c, 0, 64, 88
4, 81837, Note_off_c, 0, 64, 0
4, 81840, Note_on_c, 0, 64, 88
4, 82785, Note_off_c, 0, 64, 0
4, 82785, End_track
5, 0, Start_track
5, 0, Title_t, "Track 2"
5, 0, Program_c, 1, 6
5, 81920, Note_on_c, 1, 59, 88
5, 81997, Note_off_c, 1, 59, 0
5, 82000, Note_on_c, 1, 62, 88
5, 82077, Note_off_c, 1, 62, 0
5, 82080, Note_on_c, 1, 60, 88
5, 82314, Note_off_c, 1, 60, 0
5, 82320, Note_on_c, 1, 59, 88
5, 82790, Note_off_c, 1, 59, 0
5, 82790, End_track
6, 0, Start_track
6, 0, Title_t, "Track 3"
6, 0, Program_c, 2, 6
6, 5840, Note_on_c, 2, 59, 88
6, 5917, Note_off_c, 2, 59, 0
6, 5920, Note_on_c, 2, 61, 88
6, 5997, Note_off_c, 2, 61, 0
6, 6000, Note_on_c, 2, 62, 88
6, 6234, Note_off_c, 2, 62, 0
6, 6240, Note_on_c, 2, 64, 88
6, 6298, Note_off_c, 2, 64, 0
6, 6300, Note_on_c, 2, 62, 88
6, 6358, Note_off_c, 2, 62, 0
6, 6360, Note_on_c, 2, 61, 88
6, 6418, Note_off_c, 2, 61, 0
6, 6420, Note_on_c, 2, 62, 88
6, 6478, Note_off_c, 2, 62, 0
6, 6480, Note_on_c, 2, 64, 88
6, 6714, Note_off_c, 2, 64, 0
6, 6720, Note_on_c, 2, 66, 88
6, 6778, Note_off_c, 2, 66, 0
6, 6780, Note_on_c, 2, 64, 88
6, 6838, Note_off_c, 2, 64, 0
6, 6840, Note_on_c, 2, 62, 88
6, 6898, Note_off_c, 2, 62, 0
6, 6900, Note_on_c, 2, 64, 88
6, 6958, Note_off_c, 2, 64, 0
6, 6960, Note_on_c, 2, 66, 88
6, 7194, Note_off_c, 2, 66, 0
6, 7200, Note_on_c, 2, 62, 88
6, 7434, Note_off_c, 2, 62, 0
6, 7440, Note_on_c, 2, 59, 88
6, 7674, Note_off_c, 2, 59, 0
6, 7680, Note_on_c, 2, 67, 88
6, 8154, Note_off_c, 2, 67, 0
6, 8160, Note_on_c, 2, 66, 88
6, 8316, Note_off_c, 2, 66, 0
6, 8320, Note_on_c, 2, 70, 88
6, 8397, Note_off_c, 2, 70, 0
6, 8400, Note_on_c, 2, 71, 88
6, 8634, Note_off_c, 2, 71, 0
6, 8640, Note_on_c, 2, 64, 88
6, 9114, Note_off_c, 2, 64, 0
6, 9120, Note_on_c, 2, 62, 88
6, 9276, Note_off_c, 2, 62, 0
6, 9280, Note_on_c, 2, 70, 88
6, 9357, Note_off_c, 2, 70, 0
6, 9360, Note_on_c, 2, 71, 88
6, 9594, Note_off_c, 2, 71, 0
6, 9600, Note_on_c, 2, 61, 88
6, 9917, Note_off_c, 2, 61, 0
6, 9920, Note_on_c, 2, 62, 88
6, 9997, Note_off_c, 2, 62, 0
6, 10000, Note_on_c, 2, 64, 88
6, 10077, Note_off_c, 2, 64, 0
6, 10080, Note_on_c, 2, 62, 88
6, 10157, Note_off_c, 2, 62, 0
6, 10160, Note_on_c, 2, 61, 88
6, 10237, Note_off_c, 2, 61, 0
6, 10240, Note_on_c, 2, 59, 88
6, 10317, Note_off_c, 2, 59, 0
6, 10320, Note_on_c, 2, 58, 88
6, 10397, Note_off_c, 2, 58, 0
6, 10400, Note_on_c, 2, 67, 88
6, 10477, Note_off_c, 2, 67, 0
6, 10480, Note_on_c, 2, 66, 88
6, 10557, Note_off_c, 2, 66, 0
6, 10560, Note_on_c, 2, 64, 88
6, 10637, Note_off_c, 2, 64, 0
6, 10640, Note_on_c, 2, 62, 88
6, 10717, Note_off_c, 2, 62, 0
6, 10720, Note_on_c, 2, 61, 88
6, 10797, Note_off_c, 2, 61, 0
6, 10800, Note_on_c, 2, 62, 88
6, 10877, Note_off_c, 2, 62, 0
6, 10880, Note_on_c, 2, 64, 88
6, 10957, Note_off_c, 2, 64, 0
6, 10960, Note_on_c, 2, 66, 88
6, 11037, Note_off_c, 2, 66, 0
6, 11040, Note_on_c, 2, 64, 88
6, 11117, Note_off_c, 2, 64, 0
6, 11120, Note_on_c, 2, 62, 88
6, 11197, Note_off_c, 2, 62, 0
6, 11200, Note_on_c, 2, 61, 88
6, 11277, Note_off_c, 2, 61, 0
6, 11280, Note_on_c, 2, 59, 88
6, 11357, Note_off_c, 2, 59, 0
6, 11360, Note_on_c, 2, 69, 88
6, 11437, Note_off_c, 2, 69, 0
6, 11440, Note_on_c, 2, 67, 88
6, 11517, Note_off_c, 2, 67, 0
6, 11520, Note_on_c, 2, 66, 88
6, 11597, Note_off_c, 2, 66, 0
6, 11600, Note_on_c, 2, 64, 88
6, 11677, Note_off_c, 2, 64, 0
6, 11680, Note_on_c, 2, 63, 88
6, 11757, Note_off_c, 2, 63, 0
6, 11760, Note_on_c, 2, 64, 88
6, 12230, Note_off_c, 2, 64, 0
6, 12240, Note_on_c, 2, 66, 88
6, 12710, Note_off_c, 2, 66, 0
6, 12720, Note_on_c, 2, 67, 88
6, 13190, Note_off_c, 2, 67, 0
6, 13200, Note_on_c, 2, 68, 88
6, 13277, Note_off_c, 2, 68, 0
6, 13280, Note_on_c, 2, 74, 88
6, 13357, Note_off_c, 2, 74, 0
6, 13360, Note_on_c, 2, 72, 88
6, 13437, Note_off_c, 2, 72, 0
6, 13440, Note_on_c, 2, 71, 88
6, 13517, Note_off_c, 2, 71, 0
6, 13520, Note_on_c, 2, 69, 88
6, 13597, Note_off_c, 2, 69, 0
6, 13600, Note_on_c, 2, 68, 88
6, 13677, Note_off_c, 2, 68, 0
6, 13680, Note_on_c, 2, 69, 88
6, 14150, Note_off_c, 2, 69, 0
6, 14160, Note_on_c, 2, 67, 88
6, 14630, Note_off_c, 2, 67, 0
6, 14640, Note_on_c, 2, 66, 88
6, 15110, Note_off_c, 2, 66, 0
6, 15120, Note_on_c, 2, 64, 88
6, 15590, Note_off_c, 2, 64, 0
6, 15600, Note_on_c, 2, 63, 88
6, 15834, Note_off_c, 2, 63, 0
6, 15840, Note_on_c, 2, 64, 88
6, 16074, Note_off_c, 2, 64, 0
6, 16080, Note_on_c, 2, 66, 88
6, 16716, Note_off_c, 2, 66, 0
6, 16720, Note_on_c, 2, 63, 88
6, 16797, Note_off_c, 2, 63, 0
6, 16800, Note_on_c, 2, 64, 88
6, 16956, Note_off_c, 2, 64, 0
6, 16960, Note_on_c, 2, 66, 88
6, 17037, Note_off_c, 2, 66, 0
6, 17040, Note_on_c, 2, 67, 88
6, 17676, Note_off_c, 2, 67, 0
6, 17680, Note_on_c, 2, 64, 88
6, 17757, Note_off_c, 2, 64, 0
6, 17760, Note_on_c, 2, 66, 88
6, 17916, Note_off_c, 2, 66, 0
6, 17920, Note_on_c, 2, 67, 88
6, 17997, Note_off_c, 2, 67, 0
6, 18000, Note_on_c, 2, 69, 88
6, 18636, Note_off_c, 2, 69, 0
6, 18640, Note_on_c, 2, 66, 88
6, 18717, Note_off_c, 2, 66, 0
6, 18720, Note_on_c, 2, 67, 88
6, 18876, Note_off_c, 2, 67, 0
6, 18880, Note_on_c, 2, 69, 88
6, 18957, Note_off_c, 2, 69, 0
6, 18960, Note_on_c, 2, 71, 88
6, 19194, Note_off_c, 2, 71, 0
6, 19520, Note_on_c, 2, 74, 88
6, 19597, Note_off_c, 2, 74, 0
6, 19600, Note_on_c, 2, 72, 88
6, 19677, Note_off_c, 2, 72, 0
6, 19680, Note_on_c, 2, 71, 88
6, 19757, Note_off_c, 2, 71, 0
6, 19760, Note_on_c, 2, 69, 88
6, 19837, Note_off_c, 2, 69, 0
6, 19840, Note_on_c, 2, 67, 88
6, 19917, Note_off_c, 2, 67, 0
6, 19920, Note_on_c, 2, 69, 88
6, 20154, Note_off_c, 2, 69, 0
6, 20480, Note_on_c, 2, 72, 88
6, 20557, Note_off_c, 2, 72, 0
6, 20560, Note_on_c, 2, 71, 88
6, 20637, Note_off_c, 2, 71, 0
6, 20640, Note_on_c, 2, 69, 88
6, 20717, Note_off_c, 2, 69, 0
6, 20720, Note_on_c, 2, 67, 88
6, 20797, Note_off_c, 2, 67, 0
6, 20800, Note_on_c, 2, 66, 88
6, 20877, Note_off_c, 2, 66, 0
6, 20880, Note_on_c, 2, 67, 88
6, 21114, Note_off_c, 2, 67, 0
6, 21440, Note_on_c, 2, 71, 88
6, 21517, Note_off_c, 2, 71, 0
6, 21520, Note_on_c, 2, 69, 88
6, 21597, Note_off_c, 2, 69, 0
6, 21600, Note_on_c, 2, 67, 88
6, 21677, Note_off_c, 2, 67, 0
6, 21680, Note_on_c, 2, 66, 88
6, 21757, Note_off_c, 2, 66, 0
6, 21760, Note_on_c, 2, 64, 88
6, 21837, Note_off_c, 2, 64, 0
6, 21840, Note_on_c, 2, 66, 88
6, 22074, Note_off_c, 2, 66, 0
6, 22400, Note_on_c, 2, 59, 88
6, 22477, Note_off_c, 2, 59, 0
6, 22480, Note_on_c, 2, 62, 88
6, 22557, Note_off_c, 2, 62, 0
6, 22560, Note_on_c, 2, 64, 88
6, 22874, Note_off_c, 2, 64, 0
6, 22880, Note_on_c, 2, 60, 88
6, 22957, Note_off_c, 2, 60, 0
6, 22960, Note_on_c, 2, 64, 88
6, 23037, Note_off_c, 2, 64, 0
6, 23040, Note_on_c, 2, 66, 88
6, 23357, Note_off_c, 2, 66, 0
6, 23360, Note_on_c, 2, 62, 88
6, 23437, Note_off_c, 2, 62, 0
6, 23440, Note_on_c, 2, 66, 88
6, 23517, Note_off_c, 2, 66, 0
6, 23520, Note_on_c, 2, 67, 88
6, 23597, Note_off_c, 2, 67, 0
6, 23600, Note_on_c, 2, 55, 88
6, 23677, Note_off_c, 2, 55, 0
6, 23680, Note_on_c, 2, 59, 88
6, 23757, Note_off_c, 2, 59, 0
6, 23760, Note_on_c, 2, 64, 88
6, 23837, Note_off_c, 2, 64, 0
6, 23840, Note_on_c, 2, 52, 88
6, 23917, Note_off_c, 2, 52, 0
6, 23920, Note_on_c, 2, 54, 88
6, 23997, Note_off_c, 2, 54, 0
6, 24000, Note_on_c, 2, 55, 88
6, 24077, Note_off_c, 2, 55, 0
6, 24080, Note_on_c, 2, 57, 88
6, 24157, Note_off_c, 2, 57, 0
6, 24160, Note_on_c, 2, 59, 88
6, 24237, Note_off_c, 2, 59, 0
6, 24240, Note_on_c, 2, 60, 88
6, 24710, Note_off_c, 2, 60, 0
6, 24720, Note_on_c, 2, 59, 88
6, 25190, Note_off_c, 2, 59, 0
6, 25200, Note_on_c, 2, 57, 88
6, 25670, Note_off_c, 2, 57, 0
6, 25760, Note_on_c, 2, 50, 88
6, 25837, Note_off_c, 2, 50, 0
6, 25840, Note_on_c, 2, 55, 88
6, 25996, Note_off_c, 2, 55, 0
6, 26000, Note_on_c, 2, 54, 88
6, 26077, Note_off_c, 2, 54, 0
6, 26080, Note_on_c, 2, 55, 88
6, 26157, Note_off_c, 2, 55, 0
6, 26160, Note_on_c, 2, 54, 88
6, 26394, Note_off_c, 2, 54, 0
6, 26400, Note_on_c, 2, 55, 88
6, 26634, Note_off_c, 2, 55, 0
6, 26640, Note_on_c, 2, 57, 88
6, 26874, Note_off_c, 2, 57, 0
6, 26880, Note_on_c, 2, 54, 88
6, 27114, Note_off_c, 2, 54, 0
6, 27120, Note_on_c, 2, 55, 88
6, 27276, Note_off_c, 2, 55, 0
6, 27280, Note_on_c, 2, 59, 88
6, 27357, Note_off_c, 2, 59, 0
6, 27360, Note_on_c, 2, 62, 88
6, 27830, Note_off_c, 2, 62, 0
6, 27840, Note_on_c, 2, 61, 88
6, 27917, Note_off_c, 2, 61, 0
6, 27920, Note_on_c, 2, 62, 88
6, 27997, Note_off_c, 2, 62, 0
6, 28000, Note_on_c, 2, 64, 88
6, 28077, Note_off_c, 2, 64, 0
6, 28080, Note_on_c, 2, 66, 88
6, 28314, Note_off_c, 2, 66, 0
6, 28320, Note_on_c, 2, 67, 88
6, 28378, Note_off_c, 2, 67, 0
6, 28380, Note_on_c, 2, 66, 88
6, 28438, Note_off_c, 2, 66, 0
6, 28440, Note_on_c, 2, 64, 88
6, 28498, Note_off_c, 2, 64, 0
6, 28500, Note_on_c, 2, 66, 88
6, 28558, Note_off_c, 2, 66, 0
6, 28560, Note_on_c, 2, 67, 88
6, 28794, Note_off_c, 2, 67, 0
6, 28800, Note_on_c, 2, 69, 88
6, 28858, Note_off_c, 2, 69, 0
6, 28860, Note_on_c, 2, 67, 88
6, 28918, Note_off_c, 2, 67, 0
6, 28920, Note_on_c, 2, 66, 88
6, 28978, Note_off_c, 2, 66, 0
6, 28980, Note_on_c, 2, 67, 88
6, 29038, Note_off_c, 2, 67, 0
6, 29040, Note_on_c, 2, 69, 88
6, 29274, Note_off_c, 2, 69, 0
6, 29280, Note_on_c, 2, 66, 88
6, 29514, Note_off_c, 2, 66, 0
6, 29520, Note_on_c, 2, 62, 88
6, 29754, Note_off_c, 2, 62, 0
6, 29760, Note_on_c, 2, 71, 88
6, 30234, Note_off_c, 2, 71, 0
6, 30240, Note_on_c, 2, 69, 88
6, 30396, Note_off_c, 2, 69, 0
6, 30400, Note_on_c, 2, 73, 88
6, 30477, Note_off_c, 2, 73, 0
6, 30480, Note_on_c, 2, 74, 88
6, 30714, Note_off_c, 2, 74, 0
6, 30720, Note_on_c, 2, 67, 88
6, 31194, Note_off_c, 2, 67, 0
6, 31200, Note_on_c, 2, 66, 88
6, 31356, Note_off_c, 2, 66, 0
6, 31360, Note_on_c, 2, 73, 88
6, 31437, Note_off_c, 2, 73, 0
6, 31440, Note_on_c, 2, 74, 88
6, 31674, Note_off_c, 2, 74, 0
6, 31680, Note_on_c, 2, 64, 88
6, 31997, Note_off_c, 2, 64, 0
6, 32000, Note_on_c, 2, 66, 88
6, 32077, Note_off_c, 2, 66, 0
6, 32080, Note_on_c, 2, 67, 88
6, 32157, Note_off_c, 2, 67, 0
6, 32160, Note_on_c, 2, 66, 88
6, 32237, Note_off_c, 2, 66, 0
6, 32240, Note_on_c, 2, 64, 88
6, 32317, Note_off_c, 2, 64, 0
6, 32320, Note_on_c, 2, 62, 88
6, 32397, Note_off_c, 2, 62, 0
6, 32400, Note_on_c, 2, 61, 88
6, 32477, Note_off_c, 2, 61, 0
6, 32480, Note_on_c, 2, 71, 88
6, 32557, Note_off_c, 2, 71, 0
6, 32560, Note_on_c, 2, 69, 88
6, 32637, Note_off_c, 2, 69, 0
6, 32640, Note_on_c, 2, 67, 88
6, 32717, Note_off_c, 2, 67, 0
6, 32720, Note_on_c, 2, 66, 88
6, 32797, Note_off_c, 2, 66, 0
6, 32800, Note_on_c, 2, 64, 88
6, 32877, Note_off_c, 2, 64, 0
6, 32880, Note_on_c, 2, 66, 88
6, 32957, Note_off_c, 2, 66, 0
6, 32960, Note_on_c, 2, 67, 88
6, 33037, Note_off_c, 2, 67, 0
6, 33040, Note_on_c, 2, 69, 88
6, 33117, Note_off_c, 2, 69, 0
6, 33120, Note_on_c, 2, 67, 88
6, 33197, Note_off_c, 2, 67, 0
6, 33200, Note_on_c, 2, 66, 88
6, 33277, Note_off_c, 2, 66, 0
6, 33280, Note_on_c, 2, 64, 88
6, 33357, Note_off_c, 2, 64, 0
6, 33360, Note_on_c, 2, 62, 88
6, 33437, Note_off_c, 2, 62, 0
6, 33440, Note_on_c, 2, 72, 88
6, 33517, Note_off_c, 2, 72, 0
6, 33520, Note_on_c, 2, 71, 88
6, 33597, Note_off_c, 2, 71, 0
6, 33600, Note_on_c, 2, 69, 88
6, 33677, Note_off_c, 2, 69, 0
6, 33680, Note_on_c, 2, 67, 88
6, 33757, Note_off_c, 2, 67, 0
6, 33760, Note_on_c, 2, 66, 88
6, 33837, Note_off_c, 2, 66, 0
6, 33840, Note_on_c, 2, 67, 88
6, 33917, Note_off_c, 2, 67, 0
6, 33920, Note_on_c, 2, 69, 88
6, 33997, Note_off_c, 2, 69, 0
6, 34000, Note_on_c, 2, 71, 88
6, 34077, Note_off_c, 2, 71, 0
6, 34080, Note_on_c, 2, 69, 88
6, 34157, Note_off_c, 2, 69, 0
6, 34160, Note_on_c, 2, 67, 88
6, 34237, Note_off_c, 2, 67, 0
6, 34240, Note_on_c, 2, 66, 88
6, 34317, Note_off_c, 2, 66, 0
6, 34320, Note_on_c, 2, 64, 88
6, 34397, Note_off_c, 2, 64, 0
6, 34400, Note_on_c, 2, 74, 88
6, 34477, Note_off_c, 2, 74, 0
6, 34480, Note_on_c, 2, 73, 88
6, 34557, Note_off_c, 2, 73, 0
6, 34560, Note_on_c, 2, 71, 88
6, 34637, Note_off_c, 2, 71, 0
6, 34640, Note_on_c, 2, 70, 88
6, 34717, Note_off_c, 2, 70, 0
6, 34720, Note_on_c, 2, 68, 88
6, 34797, Note_off_c, 2, 68, 0
6, 34800, Note_on_c, 2, 70, 88
6, 35034, Note_off_c, 2, 70, 0
6, 35040, Note_on_c, 2, 71, 88
6, 35274, Note_off_c, 2, 71, 0
6, 35280, Note_on_c, 2, 73, 88
6, 35505, Note_off_c, 2, 73, 0
6, 35520, Note_on_c, 2, 73, 88
6, 35837, Note_off_c, 2, 73, 0
6, 35840, Note_on_c, 2, 76, 88
6, 35917, Note_off_c, 2, 76, 0
6, 35920, Note_on_c, 2, 74, 88
6, 35997, Note_off_c, 2, 74, 0
6, 36000, Note_on_c, 2, 73, 88
6, 36077, Note_off_c, 2, 73, 0
6, 36080, Note_on_c, 2, 71, 88
6, 36157, Note_off_c, 2, 71, 0
6, 36160, Note_on_c, 2, 70, 88
6, 36237, Note_off_c, 2, 70, 0
6, 36240, Note_on_c, 2, 71, 88
6, 36474, Note_off_c, 2, 71, 0
6, 36480, Note_on_c, 2, 73, 88
6, 36714, Note_off_c, 2, 73, 0
6, 36720, Note_on_c, 2, 66, 88
6, 37190, Note_off_c, 2, 66, 0
6, 37440, Note_on_c, 2, 66, 88
6, 37674, Note_off_c, 2, 66, 0
6, 37680, Note_on_c, 2, 71, 88
6, 38150, Note_off_c, 2, 71, 0
6, 38160, Note_on_c, 2, 73, 88
6, 38394, Note_off_c, 2, 73, 0
6, 38400, Note_on_c, 2, 75, 88
6, 38477, Note_off_c, 2, 75, 0
6, 38480, Note_on_c, 2, 76, 88
6, 38557, Note_off_c, 2, 76, 0
6, 38560, Note_on_c, 2, 78, 88
6, 38637, Note_off_c, 2, 78, 0
6, 38640, Note_on_c, 2, 71, 88
6, 38874, Note_off_c, 2, 71, 0
6, 38880, Note_on_c, 2, 76, 88
6, 39185, Note_off_c, 2, 76, 0
6, 39200, Note_on_c, 2, 76, 88
6, 39277, Note_off_c, 2, 76, 0
6, 39280, Note_on_c, 2, 74, 88
6, 39357, Note_off_c, 2, 74, 0
6, 39360, Note_on_c, 2, 73, 88
6, 39437, Note_off_c, 2, 73, 0
6, 39440, Note_on_c, 2, 71, 88
6, 39517, Note_off_c, 2, 71, 0
6, 39520, Note_on_c, 2, 70, 88
6, 39597, Note_off_c, 2, 70, 0
6, 39600, Note_on_c, 2, 71, 88
6, 39677, Note_off_c, 2, 71, 0
6, 39680, Note_on_c, 2, 74, 88
6, 39757, Note_off_c, 2, 74, 0
6, 39760, Note_on_c, 2, 71, 88
6, 39837, Note_off_c, 2, 71, 0
6, 39840, Note_on_c, 2, 68, 88
6, 40074, Note_off_c, 2, 68, 0
6, 40080, Note_on_c, 2, 73, 88
6, 40794, Note_off_c, 2, 73, 0
6, 40800, Note_on_c, 2, 71, 88
6, 41114, Note_off_c, 2, 71, 0
6, 41120, Note_on_c, 2, 69, 88
6, 41197, Note_off_c, 2, 69, 0
6, 41200, Note_on_c, 2, 67, 88
6, 41277, Note_off_c, 2, 67, 0
6, 41280, Note_on_c, 2, 66, 88
6, 41357, Note_off_c, 2, 66, 0
6, 41360, Note_on_c, 2, 64, 88
6, 41437, Note_off_c, 2, 64, 0
6, 41440, Note_on_c, 2, 63, 88
6, 41517, Note_off_c, 2, 63, 0
6, 41520, Note_on_c, 2, 64, 88
6, 41990, Note_off_c, 2, 64, 0
6, 42000, Note_on_c, 2, 62, 88
6, 42470, Note_off_c, 2, 62, 0
6, 42480, Note_on_c, 2, 61, 88
6, 42950, Note_off_c, 2, 61, 0
6, 42960, Note_on_c, 2, 59, 88
6, 43430, Note_off_c, 2, 59, 0
6, 43440, Note_on_c, 2, 58, 88
6, 43674, Note_off_c, 2, 58, 0
6, 43680, Note_on_c, 2, 59, 88
6, 43914, Note_off_c, 2, 59, 0
6, 43920, Note_on_c, 2, 61, 88
6, 44556, Note_off_c, 2, 61, 0
6, 44560, Note_on_c, 2, 58, 88
6, 44637, Note_off_c, 2, 58, 0
6, 44640, Note_on_c, 2, 59, 88
6, 44796, Note_off_c, 2, 59, 0
6, 44800, Note_on_c, 2, 61, 88
6, 44877, Note_off_c, 2, 61, 0
6, 44880, Note_on_c, 2, 62, 88
6, 45516, Note_off_c, 2, 62, 0
6, 45520, Note_on_c, 2, 59, 88
6, 45597, Note_off_c, 2, 59, 0
6, 45600, Note_on_c, 2, 61, 88
6, 45756, Note_off_c, 2, 61, 0
6, 45760, Note_on_c, 2, 62, 88
6, 45837, Note_off_c, 2, 62, 0
6, 45840, Note_on_c, 2, 64, 88
6, 46476, Note_off_c, 2, 64, 0
6, 46480, Note_on_c, 2, 61, 88
6, 46557, Note_off_c, 2, 61, 0
6, 46560, Note_on_c, 2, 63, 88
6, 46716, Note_off_c, 2, 63, 0
6, 46720, Note_on_c, 2, 64, 88
6, 46797, Note_off_c, 2, 64, 0
6, 46800, Note_on_c, 2, 66, 88
6, 47114, Note_off_c, 2, 66, 0
6, 47120, Note_on_c, 2, 64, 88
6, 47197, Note_off_c, 2, 64, 0
6, 47200, Note_on_c, 2, 66, 88
6, 47277, Note_off_c, 2, 66, 0
6, 47280, Note_on_c, 2, 67, 88
6, 47514, Note_off_c, 2, 67, 0
6, 47520, Note_on_c, 2, 69, 88
6, 47578, Note_off_c, 2, 69, 0
6, 47580, Note_on_c, 2, 67, 88
6, 47638, Note_off_c, 2, 67, 0
6, 47640, Note_on_c, 2, 66, 88
6, 47698, Note_off_c, 2, 66, 0
6, 47700, Note_on_c, 2, 67, 88
6, 47758, Note_off_c, 2, 67, 0
6, 47760, Note_on_c, 2, 69, 88
6, 47994, Note_off_c, 2, 69, 0
6, 48000, Note_on_c, 2, 71, 88
6, 48058, Note_off_c, 2, 71, 0
6, 48060, Note_on_c, 2, 69, 88
6, 48118, Note_off_c, 2, 69, 0
6, 48120, Note_on_c, 2, 67, 88
6, 48178, Note_off_c, 2, 67, 0
6, 48180, Note_on_c, 2, 69, 88
6, 48238, Note_off_c, 2, 69, 0
6, 48240, Note_on_c, 2, 71, 88
6, 48474, Note_off_c, 2, 71, 0
6, 48480, Note_on_c, 2, 67, 88
6, 48714, Note_off_c, 2, 67, 0
6, 48720, Note_on_c, 2, 64, 88
6, 48954, Note_off_c, 2, 64, 0
6, 48960, Note_on_c, 2, 72, 88
6, 49434, Note_off_c, 2, 72, 0
6, 49440, Note_on_c, 2, 71, 88
6, 49596, Note_off_c, 2, 71, 0
6, 49600, Note_on_c, 2, 75, 88
6, 49677, Note_off_c, 2, 75, 0
6, 49680, Note_on_c, 2, 76, 88
6, 49914, Note_off_c, 2, 76, 0
6, 49920, Note_on_c, 2, 69, 88
6, 50394, Note_off_c, 2, 69, 0
6, 50400, Note_on_c, 2, 67, 88
6, 50556, Note_off_c, 2, 67, 0
6, 50560, Note_on_c, 2, 75, 88
6, 50637, Note_off_c, 2, 75, 0
6, 50640, Note_on_c, 2, 76, 88
6, 50874, Note_off_c, 2, 76, 0
6, 50880, Note_on_c, 2, 66, 88
6, 51197, Note_off_c, 2, 66, 0
6, 51200, Note_on_c, 2, 67, 88
6, 51277, Note_off_c, 2, 67, 0
6, 51280, Note_on_c, 2, 69, 88
6, 51357, Note_off_c, 2, 69, 0
6, 51360, Note_on_c, 2, 67, 88
6, 51437, Note_off_c, 2, 67, 0
6, 51440, Note_on_c, 2, 66, 88
6, 51517, Note_off_c, 2, 66, 0
6, 51520, Note_on_c, 2, 64, 88
6, 51597, Note_off_c, 2, 64, 0
6, 51600, Note_on_c, 2, 63, 88
6, 51677, Note_off_c, 2, 63, 0
6, 51680, Note_on_c, 2, 72, 88
6, 51757, Note_off_c, 2, 72, 0
6, 51760, Note_on_c, 2, 71, 88
6, 51837, Note_off_c, 2, 71, 0
6, 51840, Note_on_c, 2, 69, 88
6, 51917, Note_off_c, 2, 69, 0
6, 51920, Note_on_c, 2, 67, 88
6, 51997, Note_off_c, 2, 67, 0
6, 52000, Note_on_c, 2, 66, 88
6, 52077, Note_off_c, 2, 66, 0
6, 52080, Note_on_c, 2, 67, 88
6, 52157, Note_off_c, 2, 67, 0
6, 52160, Note_on_c, 2, 69, 88
6, 52237, Note_off_c, 2, 69, 0
6, 52240, Note_on_c, 2, 71, 88
6, 52317, Note_off_c, 2, 71, 0
6, 52320, Note_on_c, 2, 69, 88
6, 52397, Note_off_c, 2, 69, 0
6, 52400, Note_on_c, 2, 67, 88
6, 52477, Note_off_c, 2, 67, 0
6, 52480, Note_on_c, 2, 66, 88
6, 52557, Note_off_c, 2, 66, 0
6, 52560, Note_on_c, 2, 64, 88
6, 53196, Note_off_c, 2, 64, 0
6, 53200, Note_on_c, 2, 66, 88
6, 53434, Note_off_c, 2, 66, 0
6, 53440, Note_on_c, 2, 68, 88
6, 53517, Note_off_c, 2, 68, 0
6, 53520, Note_on_c, 2, 69, 88
6, 53754, Note_off_c, 2, 69, 0
6, 53760, Note_on_c, 2, 64, 88
6, 54156, Note_off_c, 2, 64, 0
6, 54160, Note_on_c, 2, 62, 88
6, 54394, Note_off_c, 2, 62, 0
6, 54400, Note_on_c, 2, 61, 88
6, 54477, Note_off_c, 2, 61, 0
6, 54480, Note_on_c, 2, 62, 88
6, 55116, Note_off_c, 2, 62, 0
6, 55120, Note_on_c, 2, 64, 88
6, 55354, Note_off_c, 2, 64, 0
6, 55360, Note_on_c, 2, 66, 88
6, 55437, Note_off_c, 2, 66, 0
6, 55440, Note_on_c, 2, 67, 88
6, 55517, Note_off_c, 2, 67, 0
6, 55520, Note_on_c, 2, 69, 88
6, 55597, Note_off_c, 2, 69, 0
6, 55600, Note_on_c, 2, 67, 88
6, 55677, Note_off_c, 2, 67, 0
6, 55680, Note_on_c, 2, 65, 88
6, 55757, Note_off_c, 2, 65, 0
6, 55760, Note_on_c, 2, 64, 88
6, 55837, Note_off_c, 2, 64, 0
6, 55840, Note_on_c, 2, 62, 88
6, 55917, Note_off_c, 2, 62, 0
6, 55920, Note_on_c, 2, 64, 88
6, 55997, Note_off_c, 2, 64, 0
6, 56000, Note_on_c, 2, 65, 88
6, 56077, Note_off_c, 2, 65, 0
6, 56080, Note_on_c, 2, 67, 88
6, 56157, Note_off_c, 2, 67, 0
6, 56160, Note_on_c, 2, 65, 88
6, 56237, Note_off_c, 2, 65, 0
6, 56240, Note_on_c, 2, 64, 88
6, 56317, Note_off_c, 2, 64, 0
6, 56320, Note_on_c, 2, 62, 88
6, 56397, Note_off_c, 2, 62, 0
6, 56400, Note_on_c, 2, 60, 88
6, 56477, Note_off_c, 2, 60, 0
6, 56480, Note_on_c, 2, 62, 88
6, 56557, Note_off_c, 2, 62, 0
6, 56560, Note_on_c, 2, 60, 88
6, 56637, Note_off_c, 2, 60, 0
6, 56640, Note_on_c, 2, 59, 88
6, 56717, Note_off_c, 2, 59, 0
6, 56720, Note_on_c, 2, 57, 88
6, 56797, Note_off_c, 2, 57, 0
6, 56800, Note_on_c, 2, 56, 88
6, 56877, Note_off_c, 2, 56, 0
6, 56880, Note_on_c, 2, 57, 88
6, 57431, Note_off_c, 2, 57, 0
6, 57440, Note_on_c, 2, 50, 88
6, 57517, Note_off_c, 2, 50, 0
6, 57520, Note_on_c, 2, 53, 88
6, 57597, Note_off_c, 2, 53, 0
6, 57600, Note_on_c, 2, 56, 88
6, 57834, Note_off_c, 2, 56, 0
6, 57920, Note_on_c, 2, 48, 88
6, 57997, Note_off_c, 2, 48, 0
6, 58000, Note_on_c, 2, 50, 88
6, 58077, Note_off_c, 2, 50, 0
6, 58080, Note_on_c, 2, 52, 88
6, 58157, Note_off_c, 2, 52, 0
6, 58160, Note_on_c, 2, 54, 88
6, 58237, Note_off_c, 2, 54, 0
6, 58240, Note_on_c, 2, 56, 88
6, 58317, Note_off_c, 2, 56, 0
6, 58320, Note_on_c, 2, 57, 88
6, 58436, Note_off_c, 2, 57, 0
6, 58800, Note_on_c, 2, 74, 88
6, 59270, Note_off_c, 2, 74, 0
6, 59280, Note_on_c, 2, 72, 88
6, 59750, Note_off_c, 2, 72, 0
6, 59760, Note_on_c, 2, 71, 88
6, 60230, Note_off_c, 2, 71, 0
6, 60240, Note_on_c, 2, 69, 88
6, 60710, Note_off_c, 2, 69, 0
6, 60720, Note_on_c, 2, 68, 88
6, 60876, Note_off_c, 2, 68, 0
6, 60880, Note_on_c, 2, 56, 88
6, 60957, Note_off_c, 2, 56, 0
6, 60960, Note_on_c, 2, 57, 88
6, 61116, Note_off_c, 2, 57, 0
6, 61120, Note_on_c, 2, 60, 88
6, 61197, Note_off_c, 2, 60, 0
6, 61200, Note_on_c, 2, 59, 88
6, 61277, Note_off_c, 2, 59, 0
6, 61280, Note_on_c, 2, 62, 88
6, 61357, Note_off_c, 2, 62, 0
6, 61360, Note_on_c, 2, 60, 88
6, 61437, Note_off_c, 2, 60, 0
6, 61440, Note_on_c, 2, 59, 88
6, 61517, Note_off_c, 2, 59, 0
6, 61520, Note_on_c, 2, 57, 88
6, 61597, Note_off_c, 2, 57, 0
6, 61600, Note_on_c, 2, 56, 88
6, 61677, Note_off_c, 2, 56, 0
6, 61680, Note_on_c, 2, 57, 88
6, 61796, Note_off_c, 2, 57, 0
6, 62240, Note_on_c, 2, 67, 88
6, 62317, Note_off_c, 2, 67, 0
6, 62320, Note_on_c, 2, 66, 88
6, 62397, Note_off_c, 2, 66, 0
6, 62400, Note_on_c, 2, 64, 88
6, 62477, Note_off_c, 2, 64, 0
6, 62480, Note_on_c, 2, 63, 88
6, 62557, Note_off_c, 2, 63, 0
6, 62560, Note_on_c, 2, 61, 88
6, 62637, Note_off_c, 2, 61, 0
6, 62640, Note_on_c, 2, 63, 88
6, 62717, Note_off_c, 2, 63, 0
6, 62720, Note_on_c, 2, 64, 88
6, 62797, Note_off_c, 2, 64, 0
6, 62800, Note_on_c, 2, 66, 88
6, 62877, Note_off_c, 2, 66, 0
6, 62880, Note_on_c, 2, 64, 88
6, 62957, Note_off_c, 2, 64, 0
6, 62960, Note_on_c, 2, 63, 88
6, 63037, Note_off_c, 2, 63, 0
6, 63040, Note_on_c, 2, 61, 88
6, 63117, Note_off_c, 2, 61, 0
6, 63120, Note_on_c, 2, 59, 88
6, 63745, Note_off_c, 2, 59, 0
6, 63760, Note_on_c, 2, 59, 88
6, 63837, Note_off_c, 2, 59, 0
6, 63840, Note_on_c, 2, 60, 88
6, 63996, Note_off_c, 2, 60, 0
6, 64000, Note_on_c, 2, 59, 88
6, 64077, Note_off_c, 2, 59, 0
6, 64080, Note_on_c, 2, 58, 88
6, 64314, Note_off_c, 2, 58, 0
6, 64320, Note_on_c, 2, 57, 88
6, 64637, Note_off_c, 2, 57, 0
6, 64640, Note_on_c, 2, 60, 88
6, 64717, Note_off_c, 2, 60, 0
6, 64720, Note_on_c, 2, 59, 88
6, 64797, Note_off_c, 2, 59, 0
6, 64800, Note_on_c, 2, 57, 88
6, 64877, Note_off_c, 2, 57, 0
6, 64880, Note_on_c, 2, 55, 88
6, 64957, Note_off_c, 2, 55, 0
6, 64960, Note_on_c, 2, 54, 88
6, 65037, Note_off_c, 2, 54, 0
6, 65040, Note_on_c, 2, 55, 88
6, 65754, Note_off_c, 2, 55, 0
6, 65920, Note_on_c, 2, 55, 88
6, 66312, Note_off_c, 2, 55, 0
6, 66320, Note_on_c, 2, 54, 88
6, 66397, Note_off_c, 2, 54, 0
6, 66400, Note_on_c, 2, 55, 88
6, 66477, Note_off_c, 2, 55, 0
6, 66480, Note_on_c, 2, 55, 88
6, 66714, Note_off_c, 2, 55, 0
6, 66720, Note_on_c, 2, 54, 88
6, 66954, Note_off_c, 2, 54, 0
6, 69920, Note_on_c, 2, 71, 88
6, 69997, Note_off_c, 2, 71, 0
6, 70000, Note_on_c, 2, 68, 88
6, 70077, Note_off_c, 2, 68, 0
6, 70080, Note_on_c, 2, 64, 88
6, 70157, Note_off_c, 2, 64, 0
6, 70160, Note_on_c, 2, 66, 88
6, 70237, Note_off_c, 2, 66, 0
6, 70240, Note_on_c, 2, 68, 88
6, 70317, Note_off_c, 2, 68, 0
6, 70320, Note_on_c, 2, 69, 88
6, 70790, Note_off_c, 2, 69, 0
6, 70800, Note_on_c, 2, 67, 88
6, 71270, Note_off_c, 2, 67, 0
6, 71280, Note_on_c, 2, 66, 88
6, 71750, Note_off_c, 2, 66, 0
6, 71760, Note_on_c, 2, 64, 88
6, 72230, Note_off_c, 2, 64, 0
6, 72240, Note_on_c, 2, 63, 88
6, 72474, Note_off_c, 2, 63, 0
6, 72480, Note_on_c, 2, 64, 88
6, 72714, Note_off_c, 2, 64, 0
6, 72720, Note_on_c, 2, 66, 88
6, 73356, Note_off_c, 2, 66, 0
6, 73360, Note_on_c, 2, 63, 88
6, 73437, Note_off_c, 2, 63, 0
6, 73440, Note_on_c, 2, 59, 88
6, 73596, Note_off_c, 2, 59, 0
6, 73600, Note_on_c, 2, 63, 88
6, 73677, Note_off_c, 2, 63, 0
6, 73680, Note_on_c, 2, 64, 88
6, 74394, Note_off_c, 2, 64, 0
6, 74720, Note_on_c, 2, 51, 88
6, 74797, Note_off_c, 2, 51, 0
6, 74800, Note_on_c, 2, 52, 88
6, 74877, Note_off_c, 2, 52, 0
6, 74880, Note_on_c, 2, 54, 88
6, 74957, Note_off_c, 2, 54, 0
6, 74960, Note_on_c, 2, 55, 88
6, 75037, Note_off_c, 2, 55, 0
6, 75040, Note_on_c, 2, 57, 88
6, 75117, Note_off_c, 2, 57, 0
6, 75120, Note_on_c, 2, 55, 88
6, 75197, Note_off_c, 2, 55, 0
6, 75200, Note_on_c, 2, 64, 88
6, 75670, Note_off_c, 2, 64, 0
6, 75680, Note_on_c, 2, 66, 88
6, 76157, Note_off_c, 2, 66, 0
6, 76160, Note_on_c, 2, 67, 88
6, 76630, Note_off_c, 2, 67, 0
6, 76640, Note_on_c, 2, 69, 88
6, 77117, Note_off_c, 2, 69, 0
6, 77120, Note_on_c, 2, 71, 88
6, 77512, Note_off_c, 2, 71, 0
6, 79440, Note_on_c, 2, 54, 88
6, 79440, Note_on_c, 2, 57, 88
6, 79674, Note_off_c, 2, 54, 0
6, 79674, Note_off_c, 2, 57, 0
6, 79840, Note_on_c, 2, 66, 88
6, 79917, Note_off_c, 2, 66, 0
6, 79920, Note_on_c, 2, 67, 88
6, 80234, Note_off_c, 2, 67, 0
6, 80240, Note_on_c, 2, 66, 88
6, 80317, Note_off_c, 2, 66, 0
6, 80320, Note_on_c, 2, 64, 88
6, 80397, Note_off_c, 2, 64, 0
6, 80400, Note_on_c, 2, 63, 88
6, 80556, Note_off_c, 2, 63, 0
6, 80560, Note_on_c, 2, 64, 88
6, 80637, Note_off_c, 2, 64, 0
6, 80640, Note_on_c, 2, 66, 88
6, 80796, Note_off_c, 2, 66, 0
6, 80800, Note_on_c, 2, 64, 88
6, 80877, Note_off_c, 2, 64, 0
6, 80880, Note_on_c, 2, 63, 88
6, 80996, Note_off_c, 2, 63, 0
6, 81200, Note_on_c, 2, 54, 88
6, 81277, Note_off_c, 2, 54, 0
6, 81280, Note_on_c, 2, 55, 88
6, 81357, Note_off_c, 2, 55, 0
6, 81360, Note_on_c, 2, 54, 88
6, 81674, Note_off_c, 2, 54, 0
6, 81680, Note_on_c, 2, 55, 88
6, 81757, Note_off_c, 2, 55, 0
6, 81760, Note_on_c, 2, 57, 88
6, 81917, Note_off_c, 2, 57, 0
6, 81920, Note_on_c, 2, 56, 88
6, 82145, Note_off_c, 2, 56, 0
6, 82160, Note_on_c, 2, 56, 88
6, 82237, Note_off_c, 2, 56, 0
6, 82240, Note_on_c, 2, 57, 88
6, 82554, Note_off_c, 2, 57, 0
6, 82560, Note_on_c, 2, 56, 88
6, 82794, Note_off_c, 2, 56, 0
6, 82794, End_track
7, 0, Start_track
7, 0, Title_t, "Track 4"
7, 0, Program_c, 3, 6
7, 11600, Note_on_c, 3, 52, 88
7, 11677, Note_off_c, 3, 52, 0
7, 11680, Note_on_c, 3, 54, 88
7, 11757, Note_off_c, 3, 54, 0
7, 11760, Note_on_c, 3, 55, 88
7, 11994, Note_off_c, 3, 55, 0
7, 12000, Note_on_c, 3, 57, 88
7, 12058, Note_off_c, 3, 57, 0
7, 12060, Note_on_c, 3, 55, 88
7, 12118, Note_off_c, 3, 55, 0
7, 12120, Note_on_c, 3, 54, 88
7, 12178, Note_off_c, 3, 54, 0
7, 12180, Note_on_c, 3, 55, 88
7, 12238, Note_off_c, 3, 55, 0
7, 12240, Note_on_c, 3, 57, 88
7, 12474, Note_off_c, 3, 57, 0
7, 12480, Note_on_c, 3, 59, 88
7, 12538, Note_off_c, 3, 59, 0
7, 12540, Note_on_c, 3, 57, 88
7, 12598, Note_off_c, 3, 57, 0
7, 12600, Note_on_c, 3, 55, 88
7, 12658, Note_off_c, 3, 55, 0
7, 12660, Note_on_c, 3, 57, 88
7, 12718, Note_off_c, 3, 57, 0
7, 12720, Note_on_c, 3, 59, 88
7, 12954, Note_off_c, 3, 59, 0
7, 12960, Note_on_c, 3, 55, 88
7, 13194, Note_off_c, 3, 55, 0
7, 13200, Note_on_c, 3, 52, 88
7, 13434, Note_off_c, 3, 52, 0
7, 13440, Note_on_c, 3, 60, 88
7, 13914, Note_off_c, 3, 60, 0
7, 13920, Note_on_c, 3, 59, 88
7, 14076, Note_off_c, 3, 59, 0
7, 14080, Note_on_c, 3, 63, 88
7, 14157, Note_off_c, 3, 63, 0
7, 14160, Note_on_c, 3, 64, 88
7, 14394, Note_off_c, 3, 64, 0
7, 14400, Note_on_c, 3, 57, 88
7, 14874, Note_off_c, 3, 57, 0
7, 14880, Note_on_c, 3, 55, 88
7, 15036, Note_off_c, 3, 55, 0
7, 15040, Note_on_c, 3, 63, 88
7, 15117, Note_off_c, 3, 63, 0
7, 15120, Note_on_c, 3, 64, 88
7, 15354, Note_off_c, 3, 64, 0
7, 15360, Note_on_c, 3, 54, 88
7, 15677, Note_off_c, 3, 54, 0
7, 15680, Note_on_c, 3, 55, 88
7, 15757, Note_off_c, 3, 55, 0
7, 15760, Note_on_c, 3, 57, 88
7, 15837, Note_off_c, 3, 57, 0
7, 15840, Note_on_c, 3, 55, 88
7, 15917, Note_off_c, 3, 55, 0
7, 15920, Note_on_c, 3, 54, 88
7, 15997, Note_off_c, 3, 54, 0
7, 16000, Note_on_c, 3, 52, 88
7, 16077, Note_off_c, 3, 52, 0
7, 16080, Note_on_c, 3, 51, 88
7, 16157, Note_off_c, 3, 51, 0
7, 16160, Note_on_c, 3, 60, 88
7, 16237, Note_off_c, 3, 60, 0
7, 16240, Note_on_c, 3, 59, 88
7, 16317, Note_off_c, 3, 59, 0
7, 16320, Note_on_c, 3, 57, 88
7, 16397, Note_off_c, 3, 57, 0
7, 16400, Note_on_c, 3, 55, 88
7, 16477, Note_off_c, 3, 55, 0
7, 16480, Note_on_c, 3, 54, 88
7, 16557, Note_off_c, 3, 54, 0
7, 16560, Note_on_c, 3, 55, 88
7, 16637, Note_off_c, 3, 55, 0
7, 16640, Note_on_c, 3, 57, 88
7, 16717, Note_off_c, 3, 57, 0
7, 16720, Note_on_c, 3, 59, 88
7, 16797, Note_off_c, 3, 59, 0
7, 16800, Note_on_c, 3, 57, 88
7, 16877, Note_off_c, 3, 57, 0
7, 16880, Note_on_c, 3, 55, 88
7, 16957, Note_off_c, 3, 55, 0
7, 16960, Note_on_c, 3, 54, 88
7, 17037, Note_off_c, 3, 54, 0
7, 17040, Note_on_c, 3, 52, 88
7, 17117, Note_off_c, 3, 52, 0
7, 17120, Note_on_c, 3, 62, 88
7, 17197, Note_off_c, 3, 62, 0
7, 17200, Note_on_c, 3, 60, 88
7, 17277, Note_off_c, 3, 60, 0
7, 17280, Note_on_c, 3, 59, 88
7, 17357, Note_off_c, 3, 59, 0
7, 17360, Note_on_c, 3, 57, 88
7, 17437, Note_off_c, 3, 57, 0
7, 17440, Note_on_c, 3, 55, 88
7, 17517, Note_off_c, 3, 55, 0
7, 17520, Note_on_c, 3, 57, 88
7, 17597, Note_off_c, 3, 57, 0
7, 17600, Note_on_c, 3, 59, 88
7, 17677, Note_off_c, 3, 59, 0
7, 17680, Note_on_c, 3, 60, 88
7, 17757, Note_off_c, 3, 60, 0
7, 17760, Note_on_c, 3, 59, 88
7, 17837, Note_off_c, 3, 59, 0
7, 17840, Note_on_c, 3, 57, 88
7, 17917, Note_off_c, 3, 57, 0
7, 17920, Note_on_c, 3, 55, 88
7, 17997, Note_off_c, 3, 55, 0
7, 18000, Note_on_c, 3, 54, 88
7, 18077, Note_off_c, 3, 54, 0
7, 18080, Note_on_c, 3, 64, 88
7, 18157, Note_off_c, 3, 64, 0
7, 18160, Note_on_c, 3, 62, 88
7, 18237, Note_off_c, 3, 62, 0
7, 18240, Note_on_c, 3, 60, 88
7, 18317, Note_off_c, 3, 60, 0
7, 18320, Note_on_c, 3, 59, 88
7, 18397, Note_off_c, 3, 59, 0
7, 18400, Note_on_c, 3, 57, 88
7, 18477, Note_off_c, 3, 57, 0
7, 18480, Note_on_c, 3, 59, 88
7, 18557, Note_off_c, 3, 59, 0
7, 18560, Note_on_c, 3, 60, 88
7, 18637, Note_off_c, 3, 60, 0
7, 18640, Note_on_c, 3, 62, 88
7, 18717, Note_off_c, 3, 62, 0
7, 18720, Note_on_c, 3, 60, 88
7, 18797, Note_off_c, 3, 60, 0
7, 18800, Note_on_c, 3, 59, 88
7, 18877, Note_off_c, 3, 59, 0
7, 18880, Note_on_c, 3, 57, 88
7, 18957, Note_off_c, 3, 57, 0
7, 18960, Note_on_c, 3, 55, 88
7, 19037, Note_off_c, 3, 55, 0
7, 19040, Note_on_c, 3, 59, 88
7, 19117, Note_off_c, 3, 59, 0
7, 19120, Note_on_c, 3, 62, 88
7, 19197, Note_off_c, 3, 62, 0
7, 19200, Note_on_c, 3, 67, 88
7, 19434, Note_off_c, 3, 67, 0
7, 19440, Note_on_c, 3, 60, 88
7, 19674, Note_off_c, 3, 60, 0
7, 19680, Note_on_c, 3, 64, 88
7, 19914, Note_off_c, 3, 64, 0
7, 19920, Note_on_c, 3, 54, 88
7, 19997, Note_off_c, 3, 54, 0
7, 20000, Note_on_c, 3, 57, 88
7, 20077, Note_off_c, 3, 57, 0
7, 20080, Note_on_c, 3, 60, 88
7, 20157, Note_off_c, 3, 60, 0
7, 20160, Note_on_c, 3, 66, 88
7, 20394, Note_off_c, 3, 66, 0
7, 20400, Note_on_c, 3, 59, 88
7, 20634, Note_off_c, 3, 59, 0
7, 20640, Note_on_c, 3, 62, 88
7, 20874, Note_off_c, 3, 62, 0
7, 20880, Note_on_c, 3, 52, 88
7, 20957, Note_off_c, 3, 52, 0
7, 20960, Note_on_c, 3, 55, 88
7, 21037, Note_off_c, 3, 55, 0
7, 21040, Note_on_c, 3, 59, 88
7, 21117, Note_off_c, 3, 59, 0
7, 21120, Note_on_c, 3, 64, 88
7, 21354, Note_off_c, 3, 64, 0
7, 21360, Note_on_c, 3, 57, 88
7, 21594, Note_off_c, 3, 57, 0
7, 21600, Note_on_c, 3, 60, 88
7, 21834, Note_off_c, 3, 60, 0
7, 21840, Note_on_c, 3, 50, 88
7, 21917, Note_off_c, 3, 50, 0
7, 21920, Note_on_c, 3, 54, 88
7, 21997, Note_off_c, 3, 54, 0
7, 22000, Note_on_c, 3, 57, 88
7, 22077, Note_off_c, 3, 57, 0
7, 22080, Note_on_c, 3, 62, 88
7, 22314, Note_off_c, 3, 62, 0
7, 22320, Note_on_c, 3, 55, 88
7, 22790, Note_off_c, 3, 55, 0
7, 22800, Note_on_c, 3, 57, 88
7, 23270, Note_off_c, 3, 57, 0
7, 23280, Note_on_c, 3, 59, 88
7, 23514, Note_off_c, 3, 59, 0
7, 24320, Note_on_c, 3, 57, 88
7, 24397, Note_off_c, 3, 57, 0
7, 24400, Note_on_c, 3, 55, 88
7, 24477, Note_off_c, 3, 55, 0
7, 24480, Note_on_c, 3, 54, 88
7, 24557, Note_off_c, 3, 54, 0
7, 24560, Note_on_c, 3, 55, 88
7, 24637, Note_off_c, 3, 55, 0
7, 24640, Note_on_c, 3, 57, 88
7, 24717, Note_off_c, 3, 57, 0
7, 24800, Note_on_c, 3, 55, 88
7, 24877, Note_off_c, 3, 55, 0
7, 24880, Note_on_c, 3, 54, 88
7, 24957, Note_off_c, 3, 54, 0
7, 24960, Note_on_c, 3, 52, 88
7, 25037, Note_off_c, 3, 52, 0
7, 25040, Note_on_c, 3, 54, 88
7, 25117, Note_off_c, 3, 54, 0
7, 25120, Note_on_c, 3, 55, 88
7, 25197, Note_off_c, 3, 55, 0
7, 25280, Note_on_c, 3, 54, 88
7, 25357, Note_off_c, 3, 54, 0
7, 25360, Note_on_c, 3, 52, 88
7, 25437, Note_off_c, 3, 52, 0
7, 25440, Note_on_c, 3, 50, 88
7, 25517, Note_off_c, 3, 50, 0
7, 25520, Note_on_c, 3, 52, 88
7, 25597, Note_off_c, 3, 52, 0
7, 25600, Note_on_c, 3, 48, 88
7, 25677, Note_off_c, 3, 48, 0
7, 25680, Note_on_c, 3, 47, 88
7, 25914, Note_off_c, 3, 47, 0
7, 25920, Note_on_c, 3, 49, 88
7, 26154, Note_off_c, 3, 49, 0
7, 26160, Note_on_c, 3, 50, 88
7, 26630, Note_off_c, 3, 50, 0
7, 26880, Note_on_c, 3, 50, 88
7, 27114, Note_off_c, 3, 50, 0
7, 27120, Note_on_c, 3, 55, 88
7, 27512, Note_off_c, 3, 55, 0
7, 27520, Note_on_c, 3, 54, 88
7, 27597, Note_off_c, 3, 54, 0
7, 27600, Note_on_c, 3, 52, 88
7, 27834, Note_off_c, 3, 52, 0
7, 27840, Note_on_c, 3, 57, 88
7, 28074, Note_off_c, 3, 57, 0
7, 28080, Note_on_c, 3, 50, 88
7, 28157, Note_off_c, 3, 50, 0
7, 28160, Note_on_c, 3, 54, 88
7, 28237, Note_off_c, 3, 54, 0
7, 28240, Note_on_c, 3, 57, 88
7, 28317, Note_off_c, 3, 57, 0
7, 28320, Note_on_c, 3, 59, 88
7, 28554, Note_off_c, 3, 59, 0
7, 28560, Note_on_c, 3, 52, 88
7, 28637, Note_off_c, 3, 52, 0
7, 28640, Note_on_c, 3, 55, 88
7, 28717, Note_off_c, 3, 55, 0
7, 28720, Note_on_c, 3, 57, 88
7, 28797, Note_off_c, 3, 57, 0
7, 28800, Note_on_c, 3, 61, 88
7, 29034, Note_off_c, 3, 61, 0
7, 29040, Note_on_c, 3, 54, 88
7, 29117, Note_off_c, 3, 54, 0
7, 29120, Note_on_c, 3, 55, 88
7, 29197, Note_off_c, 3, 55, 0
7, 29200, Note_on_c, 3, 57, 88
7, 29277, Note_off_c, 3, 57, 0
7, 29280, Note_on_c, 3, 62, 88
7, 29514, Note_off_c, 3, 62, 0
7, 29600, Note_on_c, 3, 60, 88
7, 29677, Note_off_c, 3, 60, 0
7, 29680, Note_on_c, 3, 59, 88
7, 29757, Note_off_c, 3, 59, 0
7, 29760, Note_on_c, 3, 57, 88
7, 29837, Note_off_c, 3, 57, 0
7, 29840, Note_on_c, 3, 55, 88
7, 29917, Note_off_c, 3, 55, 0
7, 29920, Note_on_c, 3, 54, 88
7, 29997, Note_off_c, 3, 54, 0
7, 30000, Note_on_c, 3, 52, 88
7, 30077, Note_off_c, 3, 52, 0
7, 30080, Note_on_c, 3, 55, 88
7, 30157, Note_off_c, 3, 55, 0
7, 30160, Note_on_c, 3, 59, 88
7, 30237, Note_off_c, 3, 59, 0
7, 30240, Note_on_c, 3, 61, 88
7, 30317, Note_off_c, 3, 61, 0
7, 30320, Note_on_c, 3, 64, 88
7, 30397, Note_off_c, 3, 64, 0
7, 30400, Note_on_c, 3, 57, 88
7, 30477, Note_off_c, 3, 57, 0
7, 30480, Note_on_c, 3, 50, 88
7, 30557, Note_off_c, 3, 50, 0
7, 30560, Note_on_c, 3, 62, 88
7, 30637, Note_off_c, 3, 62, 0
7, 30640, Note_on_c, 3, 61, 88
7, 30717, Note_off_c, 3, 61, 0
7, 30720, Note_on_c, 3, 59, 88
7, 30797, Note_off_c, 3, 59, 0
7, 30800, Note_on_c, 3, 57, 88
7, 30877, Note_off_c, 3, 57, 0
7, 30880, Note_on_c, 3, 55, 88
7, 30957, Note_off_c, 3, 55, 0
7, 30960, Note_on_c, 3, 49, 88
7, 31037, Note_off_c, 3, 49, 0
7, 31040, Note_on_c, 3, 52, 88
7, 31117, Note_off_c, 3, 52, 0
7, 31120, Note_on_c, 3, 55, 88
7, 31197, Note_off_c, 3, 55, 0
7, 31200, Note_on_c, 3, 57, 88
7, 31277, Note_off_c, 3, 57, 0
7, 31280, Note_on_c, 3, 61, 88
7, 31357, Note_off_c, 3, 61, 0
7, 31360, Note_on_c, 3, 54, 88
7, 31437, Note_off_c, 3, 54, 0
7, 31440, Note_on_c, 3, 47, 88
7, 31517, Note_off_c, 3, 47, 0
7, 31520, Note_on_c, 3, 59, 88
7, 31597, Note_off_c, 3, 59, 0
7, 31600, Note_on_c, 3, 57, 88
7, 31677, Note_off_c, 3, 57, 0
7, 31680, Note_on_c, 3, 55, 88
7, 31757, Note_off_c, 3, 55, 0
7, 31760, Note_on_c, 3, 54, 88
7, 31837, Note_off_c, 3, 54, 0
7, 31840, Note_on_c, 3, 52, 88
7, 31917, Note_off_c, 3, 52, 0
7, 31920, Note_on_c, 3, 57, 88
7, 32390, Note_off_c, 3, 57, 0
7, 32640, Note_on_c, 3, 61, 88
7, 32874, Note_off_c, 3, 61, 0
7, 32880, Note_on_c, 3, 62, 88
7, 33350, Note_off_c, 3, 62, 0
7, 33600, Note_on_c, 3, 63, 88
7, 33834, Note_off_c, 3, 63, 0
7, 33840, Note_on_c, 3, 64, 88
7, 34310, Note_off_c, 3, 64, 0
7, 34560, Note_on_c, 3, 65, 88
7, 34794, Note_off_c, 3, 65, 0
7, 34800, Note_on_c, 3, 66, 88
7, 35351, Note_off_c, 3, 66, 0
7, 35360, Note_on_c, 3, 67, 88
7, 35437, Note_off_c, 3, 67, 0
7, 35440, Note_on_c, 3, 66, 88
7, 35517, Note_off_c, 3, 66, 0
7, 35520, Note_on_c, 3, 64, 88
7, 35597, Note_off_c, 3, 64, 0
7, 35600, Note_on_c, 3, 62, 88
7, 35677, Note_off_c, 3, 62, 0
7, 35680, Note_on_c, 3, 61, 88
7, 35757, Note_off_c, 3, 61, 0
7, 35760, Note_on_c, 3, 62, 88
7, 36311, Note_off_c, 3, 62, 0
7, 36320, Note_on_c, 3, 64, 88
7, 36397, Note_off_c, 3, 64, 0
7, 36400, Note_on_c, 3, 62, 88
7, 36477, Note_off_c, 3, 62, 0
7, 36480, Note_on_c, 3, 61, 88
7, 36557, Note_off_c, 3, 61, 0
7, 36560, Note_on_c, 3, 59, 88
7, 36637, Note_off_c, 3, 59, 0
7, 36640, Note_on_c, 3, 58, 88
7, 36717, Note_off_c, 3, 58, 0
7, 36720, Note_on_c, 3, 59, 88
7, 37271, Note_off_c, 3, 59, 0
7, 37280, Note_on_c, 3, 60, 88
7, 37357, Note_off_c, 3, 60, 0
7, 37360, Note_on_c, 3, 59, 88
7, 37437, Note_off_c, 3, 59, 0
7, 37440, Note_on_c, 3, 57, 88
7, 37517, Note_off_c, 3, 57, 0
7, 37520, Note_on_c, 3, 55, 88
7, 37597, Note_off_c, 3, 55, 0
7, 37600, Note_on_c, 3, 54, 88
7, 37677, Note_off_c, 3, 54, 0
7, 37680, Note_on_c, 3, 55, 88
7, 38231, Note_off_c, 3, 55, 0
7, 38240, Note_on_c, 3, 57, 88
7, 38317, Note_off_c, 3, 57, 0
7, 38320, Note_on_c, 3, 55, 88
7, 38397, Note_off_c, 3, 55, 0
7, 38400, Note_on_c, 3, 54, 88
7, 38477, Note_off_c, 3, 54, 0
7, 38480, Note_on_c, 3, 52, 88
7, 38557, Note_off_c, 3, 52, 0
7, 38560, Note_on_c, 3, 51, 88
7, 38637, Note_off_c, 3, 51, 0
7, 38640, Note_on_c, 3, 52, 88
7, 38717, Note_off_c, 3, 52, 0
7, 38720, Note_on_c, 3, 54, 88
7, 38797, Note_off_c, 3, 54, 0
7, 38800, Note_on_c, 3, 52, 88
7, 38877, Note_off_c, 3, 52, 0
7, 38880, Note_on_c, 3, 50, 88
7, 38957, Note_off_c, 3, 50, 0
7, 38960, Note_on_c, 3, 49, 88
7, 39037, Note_off_c, 3, 49, 0
7, 39040, Note_on_c, 3, 47, 88
7, 39117, Note_off_c, 3, 47, 0
7, 39120, Note_on_c, 3, 46, 88
7, 39197, Note_off_c, 3, 46, 0
7, 39200, Note_on_c, 3, 42, 88
7, 39277, Note_off_c, 3, 42, 0
7, 39280, Note_on_c, 3, 44, 88
7, 39357, Note_off_c, 3, 44, 0
7, 39360, Note_on_c, 3, 46, 88
7, 39437, Note_off_c, 3, 46, 0
7, 39440, Note_on_c, 3, 47, 88
7, 39517, Note_off_c, 3, 47, 0
7, 39520, Note_on_c, 3, 49, 88
7, 39597, Note_off_c, 3, 49, 0
7, 39600, Note_on_c, 3, 50, 88
7, 39834, Note_off_c, 3, 50, 0
7, 39840, Note_on_c, 3, 52, 88
7, 39898, Note_off_c, 3, 52, 0
7, 39900, Note_on_c, 3, 50, 88
7, 39958, Note_off_c, 3, 50, 0
7, 39960, Note_on_c, 3, 49, 88
7, 40018, Note_off_c, 3, 49, 0
7, 40020, Note_on_c, 3, 50, 88
7, 40078, Note_off_c, 3, 50, 0
7, 40080, Note_on_c, 3, 52, 88
7, 40314, Note_off_c, 3, 52, 0
7, 40320, Note_on_c, 3, 54, 88
7, 40378, Note_off_c, 3, 54, 0
7, 40380, Note_on_c, 3, 52, 88
7, 40438, Note_off_c, 3, 52, 0
7, 40440, Note_on_c, 3, 50, 88
7, 40498, Note_off_c, 3, 50, 0
7, 40500, Note_on_c, 3, 52, 88
7, 40558, Note_off_c, 3, 52, 0
7, 40560, Note_on_c, 3, 54, 88
7, 40794, Note_off_c, 3, 54, 0
7, 40800, Note_on_c, 3, 50, 88
7, 41034, Note_off_c, 3, 50, 0
7, 41040, Note_on_c, 3, 47, 88
7, 41274, Note_off_c, 3, 47, 0
7, 41280, Note_on_c, 3, 55, 88
7, 41754, Note_off_c, 3, 55, 0
7, 41760, Note_on_c, 3, 54, 88
7, 41916, Note_off_c, 3, 54, 0
7, 41920, Note_on_c, 3, 58, 88
7, 41997, Note_off_c, 3, 58, 0
7, 42000, Note_on_c, 3, 59, 88
7, 42234, Note_off_c, 3, 59, 0
7, 42240, Note_on_c, 3, 52, 88
7, 42714, Note_off_c, 3, 52, 0
7, 42720, Note_on_c, 3, 50, 88
7, 42876, Note_off_c, 3, 50, 0
7, 42880, Note_on_c, 3, 58, 88
7, 42957, Note_off_c, 3, 58, 0
7, 42960, Note_on_c, 3, 59, 88
7, 43194, Note_off_c, 3, 59, 0
7, 43200, Note_on_c, 3, 49, 88
7, 43517, Note_off_c, 3, 49, 0
7, 43520, Note_on_c, 3, 50, 88
7, 43597, Note_off_c, 3, 50, 0
7, 43600, Note_on_c, 3, 52, 88
7, 43677, Note_off_c, 3, 52, 0
7, 43680, Note_on_c, 3, 50, 88
7, 43757, Note_off_c, 3, 50, 0
7, 43760, Note_on_c, 3, 49, 88
7, 43837, Note_off_c, 3, 49, 0
7, 43840, Note_on_c, 3, 47, 88
7, 43917, Note_off_c, 3, 47, 0
7, 43920, Note_on_c, 3, 46, 88
7, 43997, Note_off_c, 3, 46, 0
7, 44000, Note_on_c, 3, 55, 88
7, 44077, Note_off_c, 3, 55, 0
7, 44080, Note_on_c, 3, 54, 88
7, 44157, Note_off_c, 3, 54, 0
7, 44160, Note_on_c, 3, 52, 88
7, 44237, Note_off_c, 3, 52, 0
7, 44240, Note_on_c, 3, 50, 88
7, 44317, Note_off_c, 3, 50, 0
7, 44320, Note_on_c, 3, 49, 88
7, 44397, Note_off_c, 3, 49, 0
7, 44400, Note_on_c, 3, 50, 88
7, 44477, Note_off_c, 3, 50, 0
7, 44480, Note_on_c, 3, 52, 88
7, 44557, Note_off_c, 3, 52, 0
7, 44560, Note_on_c, 3, 54, 88
7, 44637, Note_off_c, 3, 54, 0
7, 44640, Note_on_c, 3, 52, 88
7, 44717, Note_off_c, 3, 52, 0
7, 44720, Note_on_c, 3, 50, 88
7, 44797, Note_off_c, 3, 50, 0
7, 44800, Note_on_c, 3, 49, 88
7, 44877, Note_off_c, 3, 49, 0
7, 44880, Note_on_c, 3, 47, 88
7, 44957, Note_off_c, 3, 47, 0
7, 44960, Note_on_c, 3, 57, 88
7, 45037, Note_off_c, 3, 57, 0
7, 45040, Note_on_c, 3, 55, 88
7, 45117, Note_off_c, 3, 55, 0
7, 45120, Note_on_c, 3, 54, 88
7, 45197, Note_off_c, 3, 54, 0
7, 45200, Note_on_c, 3, 52, 88
7, 45277, Note_off_c, 3, 52, 0
7, 45280, Note_on_c, 3, 50, 88
7, 45357, Note_off_c, 3, 50, 0
7, 45360, Note_on_c, 3, 52, 88
7, 45437, Note_off_c, 3, 52, 0
7, 45440, Note_on_c, 3, 54, 88
7, 45517, Note_off_c, 3, 54, 0
7, 45520, Note_on_c, 3, 55, 88
7, 45597, Note_off_c, 3, 55, 0
7, 45600, Note_on_c, 3, 54, 88
7, 45677, Note_off_c, 3, 54, 0
7, 45680, Note_on_c, 3, 52, 88
7, 45757, Note_off_c, 3, 52, 0
7, 45760, Note_on_c, 3, 50, 88
7, 45837, Note_off_c, 3, 50, 0
7, 45840, Note_on_c, 3, 49, 88
7, 45917, Note_off_c, 3, 49, 0
7, 45920, Note_on_c, 3, 59, 88
7, 45997, Note_off_c, 3, 59, 0
7, 46000, Note_on_c, 3, 57, 88
7, 46077, Note_off_c, 3, 57, 0
7, 46080, Note_on_c, 3, 55, 88
7, 46157, Note_off_c, 3, 55, 0
7, 46160, Note_on_c, 3, 54, 88
7, 46237, Note_off_c, 3, 54, 0
7, 46240, Note_on_c, 3, 52, 88
7, 46317, Note_off_c, 3, 52, 0
7, 46320, Note_on_c, 3, 54, 88
7, 46397, Note_off_c, 3, 54, 0
7, 46400, Note_on_c, 3, 55, 88
7, 46477, Note_off_c, 3, 55, 0
7, 46480, Note_on_c, 3, 57, 88
7, 46557, Note_off_c, 3, 57, 0
7, 46560, Note_on_c, 3, 55, 88
7, 46637, Note_off_c, 3, 55, 0
7, 46640, Note_on_c, 3, 54, 88
7, 46717, Note_off_c, 3, 54, 0
7, 46720, Note_on_c, 3, 52, 88
7, 46797, Note_off_c, 3, 52, 0
7, 46800, Note_on_c, 3, 51, 88
7, 46877, Note_off_c, 3, 51, 0
7, 46880, Note_on_c, 3, 60, 88
7, 46957, Note_off_c, 3, 60, 0
7, 46960, Note_on_c, 3, 59, 88
7, 47037, Note_off_c, 3, 59, 0
7, 47040, Note_on_c, 3, 57, 88
7, 47117, Note_off_c, 3, 57, 0
7, 47120, Note_on_c, 3, 55, 88
7, 47197, Note_off_c, 3, 55, 0
7, 47200, Note_on_c, 3, 54, 88
7, 47277, Note_off_c, 3, 54, 0
7, 47280, Note_on_c, 3, 52, 88
7, 47357, Note_off_c, 3, 52, 0
7, 47360, Note_on_c, 3, 55, 88
7, 47437, Note_off_c, 3, 55, 0
7, 47440, Note_on_c, 3, 59, 88
7, 47517, Note_off_c, 3, 59, 0
7, 47520, Note_on_c, 3, 61, 88
7, 47754, Note_off_c, 3, 61, 0
7, 47760, Note_on_c, 3, 54, 88
7, 47837, Note_off_c, 3, 54, 0
7, 47840, Note_on_c, 3, 57, 88
7, 47917, Note_off_c, 3, 57, 0
7, 47920, Note_on_c, 3, 60, 88
7, 47997, Note_off_c, 3, 60, 0
7, 48000, Note_on_c, 3, 63, 88
7, 48234, Note_off_c, 3, 63, 0
7, 48240, Note_on_c, 3, 55, 88
7, 48317, Note_off_c, 3, 55, 0
7, 48320, Note_on_c, 3, 59, 88
7, 48397, Note_off_c, 3, 59, 0
7, 48400, Note_on_c, 3, 63, 88
7, 48477, Note_off_c, 3, 63, 0
7, 48480, Note_on_c, 3, 64, 88
7, 48714, Note_off_c, 3, 64, 0
7, 48720, Note_on_c, 3, 52, 88
7, 48797, Note_off_c, 3, 52, 0
7, 48800, Note_on_c, 3, 62, 88
7, 48877, Note_off_c, 3, 62, 0
7, 48880, Note_on_c, 3, 60, 88
7, 48957, Note_off_c, 3, 60, 0
7, 48960, Note_on_c, 3, 59, 88
7, 49037, Note_off_c, 3, 59, 0
7, 49040, Note_on_c, 3, 57, 88
7, 49117, Note_off_c, 3, 57, 0
7, 49120, Note_on_c, 3, 56, 88
7, 49197, Note_off_c, 3, 56, 0
7, 49200, Note_on_c, 3, 57, 88
7, 49670, Note_off_c, 3, 57, 0
7, 49680, Note_on_c, 3, 55, 88
7, 50150, Note_off_c, 3, 55, 0
7, 50160, Note_on_c, 3, 54, 88
7, 50630, Note_off_c, 3, 54, 0
7, 50640, Note_on_c, 3, 52, 88
7, 51110, Note_off_c, 3, 52, 0
7, 51120, Note_on_c, 3, 51, 88
7, 51354, Note_off_c, 3, 51, 0
7, 51360, Note_on_c, 3, 52, 88
7, 51594, Note_off_c, 3, 52, 0
7, 51600, Note_on_c, 3, 54, 88
7, 51834, Note_off_c, 3, 54, 0
7, 51840, Note_on_c, 3, 47, 88
7, 52074, Note_off_c, 3, 47, 0
7, 52080, Note_on_c, 3, 52, 88
7, 52314, Note_off_c, 3, 52, 0
7, 52320, Note_on_c, 3, 54, 88
7, 52554, Note_off_c, 3, 54, 0
7, 52560, Note_on_c, 3, 55, 88
7, 52794, Note_off_c, 3, 55, 0
7, 52800, Note_on_c, 3, 56, 88
7, 53034, Note_off_c, 3, 56, 0
7, 53040, Note_on_c, 3, 57, 88
7, 53274, Note_off_c, 3, 57, 0
7, 53280, Note_on_c, 3, 59, 88
7, 53514, Note_off_c, 3, 59, 0
7, 53520, Note_on_c, 3, 60, 88
7, 53754, Note_off_c, 3, 60, 0
7, 53760, Note_on_c, 3, 61, 88
7, 53994, Note_off_c, 3, 61, 0
7, 54000, Note_on_c, 3, 50, 88
7, 54234, Note_off_c, 3, 50, 0
7, 54240, Note_on_c, 3, 52, 88
7, 54474, Note_off_c, 3, 52, 0
7, 54480, Note_on_c, 3, 54, 88
7, 54714, Note_off_c, 3, 54, 0
7, 54720, Note_on_c, 3, 50, 88
7, 54954, Note_off_c, 3, 50, 0
7, 54960, Note_on_c, 3, 55, 88
7, 55194, Note_off_c, 3, 55, 0
7, 55200, Note_on_c, 3, 57, 88
7, 55434, Note_off_c, 3, 57, 0
7, 55440, Note_on_c, 3, 59, 88
7, 55674, Note_off_c, 3, 59, 0
7, 55680, Note_on_c, 3, 55, 88
7, 55914, Note_off_c, 3, 55, 0
7, 55920, Note_on_c, 3, 48, 88
7, 55997, Note_off_c, 3, 48, 0
7, 56000, Note_on_c, 3, 50, 88
7, 56077, Note_off_c, 3, 50, 0
7, 56080, Note_on_c, 3, 52, 88
7, 56157, Note_off_c, 3, 52, 0
7, 56160, Note_on_c, 3, 50, 88
7, 56237, Note_off_c, 3, 50, 0
7, 56240, Note_on_c, 3, 52, 88
7, 56317, Note_off_c, 3, 52, 0
7, 56320, Note_on_c, 3, 53, 88
7, 56397, Note_off_c, 3, 53, 0
7, 56400, Note_on_c, 3, 52, 88
7, 56477, Note_off_c, 3, 52, 0
7, 56480, Note_on_c, 3, 56, 88
7, 56557, Note_off_c, 3, 56, 0
7, 56560, Note_on_c, 3, 57, 88
7, 56637, Note_off_c, 3, 57, 0
7, 56640, Note_on_c, 3, 50, 88
7, 56874, Note_off_c, 3, 50, 0
7, 56880, Note_on_c, 3, 48, 88
7, 56957, Note_off_c, 3, 48, 0
7, 56960, Note_on_c, 3, 50, 88
7, 57037, Note_off_c, 3, 50, 0
7, 57040, Note_on_c, 3, 52, 88
7, 57117, Note_off_c, 3, 52, 0
7, 57120, Note_on_c, 3, 53, 88
7, 57354, Note_off_c, 3, 53, 0
7, 57360, Note_on_c, 3, 47, 88
7, 57830, Note_off_c, 3, 47, 0
7, 57840, Note_on_c, 3, 45, 88
7, 58074, Note_off_c, 3, 45, 0
7, 58400, Note_on_c, 3, 59, 88
7, 58477, Note_off_c, 3, 59, 0
7, 58480, Note_on_c, 3, 60, 88
7, 58557, Note_off_c, 3, 60, 0
7, 58560, Note_on_c, 3, 62, 88
7, 58637, Note_off_c, 3, 62, 0
7, 58640, Note_on_c, 3, 64, 88
7, 58717, Note_off_c, 3, 64, 0
7, 58720, Note_on_c, 3, 65, 88
7, 58797, Note_off_c, 3, 65, 0
7, 58800, Note_on_c, 3, 56, 88
7, 58877, Note_off_c, 3, 56, 0
7, 58880, Note_on_c, 3, 57, 88
7, 58957, Note_off_c, 3, 57, 0
7, 58960, Note_on_c, 3, 59, 88
7, 59037, Note_off_c, 3, 59, 0
7, 59040, Note_on_c, 3, 60, 88
7, 59117, Note_off_c, 3, 60, 0
7, 59120, Note_on_c, 3, 62, 88
7, 59197, Note_off_c, 3, 62, 0
7, 59200, Note_on_c, 3, 64, 88
7, 59277, Note_off_c, 3, 64, 0
7, 59280, Note_on_c, 3, 54, 88
7, 59357, Note_off_c, 3, 54, 0
7, 59360, Note_on_c, 3, 56, 88
7, 59437, Note_off_c, 3, 56, 0
7, 59440, Note_on_c, 3, 57, 88
7, 59517, Note_off_c, 3, 57, 0
7, 59520, Note_on_c, 3, 59, 88
7, 59597, Note_off_c, 3, 59, 0
7, 59600, Note_on_c, 3, 60, 88
7, 59677, Note_off_c, 3, 60, 0
7, 59680, Note_on_c, 3, 57, 88
7, 59757, Note_off_c, 3, 57, 0
7, 59760, Note_on_c, 3, 56, 88
7, 59837, Note_off_c, 3, 56, 0
7, 59840, Note_on_c, 3, 54, 88
7, 59917, Note_off_c, 3, 54, 0
7, 59920, Note_on_c, 3, 52, 88
7, 59997, Note_off_c, 3, 52, 0
7, 60000, Note_on_c, 3, 57, 88
7, 60077, Note_off_c, 3, 57, 0
7, 60080, Note_on_c, 3, 59, 88
7, 60157, Note_off_c, 3, 59, 0
7, 60160, Note_on_c, 3, 60, 88
7, 60237, Note_off_c, 3, 60, 0
7, 60240, Note_on_c, 3, 53, 88
7, 60317, Note_off_c, 3, 53, 0
7, 60320, Note_on_c, 3, 57, 88
7, 60397, Note_off_c, 3, 57, 0
7, 60400, Note_on_c, 3, 55, 88
7, 60477, Note_off_c, 3, 55, 0
7, 60480, Note_on_c, 3, 53, 88
7, 60557, Note_off_c, 3, 53, 0
7, 60560, Note_on_c, 3, 55, 88
7, 60637, Note_off_c, 3, 55, 0
7, 60640, Note_on_c, 3, 52, 88
7, 60717, Note_off_c, 3, 52, 0
7, 60720, Note_on_c, 3, 50, 88
7, 60876, Note_off_c, 3, 50, 0
7, 60880, Note_on_c, 3, 53, 88
7, 60957, Note_off_c, 3, 53, 0
7, 60960, Note_on_c, 3, 52, 88
7, 61116, Note_off_c, 3, 52, 0
7, 61120, Note_on_c, 3, 51, 88
7, 61197, Note_off_c, 3, 51, 0
7, 61200, Note_on_c, 3, 52, 88
7, 61670, Note_off_c, 3, 52, 0
7, 61680, Note_on_c, 3, 45, 88
7, 61836, Note_off_c, 3, 45, 0
7, 61840, Note_on_c, 3, 52, 88
7, 61917, Note_off_c, 3, 52, 0
7, 61920, Note_on_c, 3, 57, 88
7, 62076, Note_off_c, 3, 57, 0
7, 62080, Note_on_c, 3, 59, 88
7, 62157, Note_off_c, 3, 59, 0
7, 62160, Note_on_c, 3, 60, 88
7, 62316, Note_off_c, 3, 60, 0
7, 62320, Note_on_c, 3, 57, 88
7, 62397, Note_off_c, 3, 57, 0
7, 62400, Note_on_c, 3, 54, 88
7, 62556, Note_off_c, 3, 54, 0
7, 62560, Note_on_c, 3, 57, 88
7, 62637, Note_off_c, 3, 57, 0
7, 62640, Note_on_c, 3, 47, 88
7, 62717, Note_off_c, 3, 47, 0
7, 62720, Note_on_c, 3, 49, 88
7, 62797, Note_off_c, 3, 49, 0
7, 62800, Note_on_c, 3, 51, 88
7, 62877, Note_off_c, 3, 51, 0
7, 62880, Note_on_c, 3, 49, 88
7, 62957, Note_off_c, 3, 49, 0
7, 62960, Note_on_c, 3, 54, 88
7, 63037, Note_off_c, 3, 54, 0
7, 63040, Note_on_c, 3, 52, 88
7, 63117, Note_off_c, 3, 52, 0
7, 63120, Note_on_c, 3, 51, 88
7, 63197, Note_off_c, 3, 51, 0
7, 63200, Note_on_c, 3, 57, 88
7, 63277, Note_off_c, 3, 57, 0
7, 63280, Note_on_c, 3, 55, 88
7, 63357, Note_off_c, 3, 55, 0
7, 63360, Note_on_c, 3, 54, 88
7, 63437, Note_off_c, 3, 54, 0
7, 63440, Note_on_c, 3, 52, 88
7, 63517, Note_off_c, 3, 52, 0
7, 63520, Note_on_c, 3, 51, 88
7, 63597, Note_off_c, 3, 51, 0
7, 63600, Note_on_c, 3, 52, 88
7, 63677, Note_off_c, 3, 52, 0
7, 63680, Note_on_c, 3, 54, 88
7, 63757, Note_off_c, 3, 54, 0
7, 63760, Note_on_c, 3, 55, 88
7, 63837, Note_off_c, 3, 55, 0
7, 63840, Note_on_c, 3, 54, 88
7, 63917, Note_off_c, 3, 54, 0
7, 63920, Note_on_c, 3, 52, 88
7, 63997, Note_off_c, 3, 52, 0
7, 64000, Note_on_c, 3, 50, 88
7, 64077, Note_off_c, 3, 50, 0
7, 64080, Note_on_c, 3, 49, 88
7, 64314, Note_off_c, 3, 49, 0
7, 64320, Note_on_c, 3, 48, 88
7, 64554, Note_off_c, 3, 48, 0
7, 64560, Note_on_c, 3, 47, 88
7, 65597, Note_off_c, 3, 47, 0
7, 65600, Note_on_c, 3, 49, 88
7, 65677, Note_off_c, 3, 49, 0
7, 65680, Note_on_c, 3, 51, 88
7, 65757, Note_off_c, 3, 51, 0
7, 65760, Note_on_c, 3, 52, 88
7, 65837, Note_off_c, 3, 52, 0
7, 65840, Note_on_c, 3, 54, 88
7, 65917, Note_off_c, 3, 54, 0
7, 65920, Note_on_c, 3, 55, 88
7, 65997, Note_off_c, 3, 55, 0
7, 66000, Note_on_c, 3, 46, 88
7, 66470, Note_off_c, 3, 46, 0
7, 66480, Note_on_c, 3, 47, 88
7, 66950, Note_off_c, 3, 47, 0
7, 67040, Note_on_c, 3, 48, 88
7, 67117, Note_off_c, 3, 48, 0
7, 67120, Note_on_c, 3, 47, 88
7, 67197, Note_off_c, 3, 47, 0
7, 67200, Note_on_c, 3, 45, 88
7, 67277, Note_off_c, 3, 45, 0
7, 67280, Note_on_c, 3, 43, 88
7, 67357, Note_off_c, 3, 43, 0
7, 67360, Note_on_c, 3, 42, 88
7, 67437, Note_off_c, 3, 42, 0
7, 67440, Note_on_c, 3, 43, 88
7, 67517, Note_off_c, 3, 43, 0
7, 67520, Note_on_c, 3, 45, 88
7, 67597, Note_off_c, 3, 45, 0
7, 67600, Note_on_c, 3, 43, 88
7, 67677, Note_off_c, 3, 43, 0
7, 67680, Note_on_c, 3, 42, 88
7, 67757, Note_off_c, 3, 42, 0
7, 67760, Note_on_c, 3, 40, 88
7, 67837, Note_off_c, 3, 40, 0
7, 67840, Note_on_c, 3, 39, 88
7, 67917, Note_off_c, 3, 39, 0
7, 67920, Note_on_c, 3, 40, 88
7, 68154, Note_off_c, 3, 40, 0
7, 68240, Note_on_c, 3, 40, 88
7, 68317, Note_off_c, 3, 40, 0
7, 68320, Note_on_c, 3, 42, 88
7, 68397, Note_off_c, 3, 42, 0
7, 68400, Note_on_c, 3, 43, 88
7, 68634, Note_off_c, 3, 43, 0
7, 68640, Note_on_c, 3, 45, 88
7, 68698, Note_off_c, 3, 45, 0
7, 68700, Note_on_c, 3, 43, 88
7, 68758, Note_off_c, 3, 43, 0
7, 68760, Note_on_c, 3, 42, 88
7, 68818, Note_off_c, 3, 42, 0
7, 68820, Note_on_c, 3, 43, 88
7, 68878, Note_off_c, 3, 43, 0
7, 68880, Note_on_c, 3, 45, 88
7, 69114, Note_off_c, 3, 45, 0
7, 69120, Note_on_c, 3, 47, 88
7, 69178, Note_off_c, 3, 47, 0
7, 69180, Note_on_c, 3, 45, 88
7, 69238, Note_off_c, 3, 45, 0
7, 69240, Note_on_c, 3, 43, 88
7, 69298, Note_off_c, 3, 43, 0
7, 69300, Note_on_c, 3, 45, 88
7, 69358, Note_off_c, 3, 45, 0
7, 69360, Note_on_c, 3, 47, 88
7, 69594, Note_off_c, 3, 47, 0
7, 69600, Note_on_c, 3, 43, 88
7, 69834, Note_off_c, 3, 43, 0
7, 69840, Note_on_c, 3, 40, 88
7, 70074, Note_off_c, 3, 40, 0
7, 70080, Note_on_c, 3, 48, 88
7, 70554, Note_off_c, 3, 48, 0
7, 70560, Note_on_c, 3, 47, 88
7, 70716, Note_off_c, 3, 47, 0
7, 70720, Note_on_c, 3, 51, 88
7, 70797, Note_off_c, 3, 51, 0
7, 70800, Note_on_c, 3, 52, 88
7, 71034, Note_off_c, 3, 52, 0
7, 71040, Note_on_c, 3, 45, 88
7, 71514, Note_off_c, 3, 45, 0
7, 71520, Note_on_c, 3, 43, 88
7, 71676, Note_off_c, 3, 43, 0
7, 71680, Note_on_c, 3, 51, 88
7, 71757, Note_off_c, 3, 51, 0
7, 71760, Note_on_c, 3, 52, 88
7, 71994, Note_off_c, 3, 52, 0
7, 72000, Note_on_c, 3, 42, 88
7, 72317, Note_off_c, 3, 42, 0
7, 72320, Note_on_c, 3, 43, 88
7, 72397, Note_off_c, 3, 43, 0
7, 72400, Note_on_c, 3, 45, 88
7, 72477, Note_off_c, 3, 45, 0
7, 72480, Note_on_c, 3, 43, 88
7, 72557, Note_off_c, 3, 43, 0
7, 72560, Note_on_c, 3, 42, 88
7, 72637, Note_off_c, 3, 42, 0
7, 72640, Note_on_c, 3, 40, 88
7, 72717, Note_off_c, 3, 40, 0
7, 72720, Note_on_c, 3, 39, 88
7, 72797, Note_off_c, 3, 39, 0
7, 72800, Note_on_c, 3, 48, 88
7, 72877, Note_off_c, 3, 48, 0
7, 72880, Note_on_c, 3, 47, 88
7, 72957, Note_off_c, 3, 47, 0
7, 72960, Note_on_c, 3, 45, 88
7, 73037, Note_off_c, 3, 45, 0
7, 73040, Note_on_c, 3, 43, 88
7, 73117, Note_off_c, 3, 43, 0
7, 73120, Note_on_c, 3, 42, 88
7, 73197, Note_off_c, 3, 42, 0
7, 73200, Note_on_c, 3, 43, 88
7, 73277, Note_off_c, 3, 43, 0
7, 73280, Note_on_c, 3, 45, 88
7, 73357, Note_off_c, 3, 45, 0
7, 73360, Note_on_c, 3, 47, 88
7, 73437, Note_off_c, 3, 47, 0
7, 73440, Note_on_c, 3, 45, 88
7, 73517, Note_off_c, 3, 45, 0
7, 73520, Note_on_c, 3, 43, 88
7, 73597, Note_off_c, 3, 43, 0
7, 73600, Note_on_c, 3, 42, 88
7, 73677, Note_off_c, 3, 42, 0
7, 73680, Note_on_c, 3, 40, 88
7, 73757, Note_off_c, 3, 40, 0
7, 73760, Note_on_c, 3, 52, 88
7, 73837, Note_off_c, 3, 52, 0
7, 73840, Note_on_c, 3, 50, 88
7, 73917, Note_off_c, 3, 50, 0
7, 73920, Note_on_c, 3, 48, 88
7, 73997, Note_off_c, 3, 48, 0
7, 74000, Note_on_c, 3, 47, 88
7, 74077, Note_off_c, 3, 47, 0
7, 74080, Note_on_c, 3, 46, 88
7, 74157, Note_off_c, 3, 46, 0
7, 74160, Note_on_c, 3, 47, 88
7, 75434, Note_off_c, 3, 47, 0
7, 75440, Note_on_c, 3, 58, 88
7, 75517, Note_off_c, 3, 58, 0
7, 75520, Note_on_c, 3, 59, 88
7, 75597, Note_off_c, 3, 59, 0
7, 75600, Note_on_c, 3, 47, 88
7, 75914, Note_off_c, 3, 47, 0
7, 75920, Note_on_c, 3, 58, 88
7, 75997, Note_off_c, 3, 58, 0
7, 76000, Note_on_c, 3, 59, 88
7, 76077, Note_off_c, 3, 59, 0
7, 76080, Note_on_c, 3, 47, 88
7, 76394, Note_off_c, 3, 47, 0
7, 76400, Note_on_c, 3, 58, 88
7, 76477, Note_off_c, 3, 58, 0
7, 76480, Note_on_c, 3, 59, 88
7, 76557, Note_off_c, 3, 59, 0
7, 76560, Note_on_c, 3, 47, 88
7, 76874, Note_off_c, 3, 47, 0
7, 76880, Note_on_c, 3, 58, 88
7, 76957, Note_off_c, 3, 58, 0
7, 76960, Note_on_c, 3, 59, 88
7, 77037, Note_off_c, 3, 59, 0
7, 77040, Note_on_c, 3, 47, 88
7, 77354, Note_off_c, 3, 47, 0
7, 77360, Note_on_c, 3, 58, 88
7, 77437, Note_off_c, 3, 58, 0
7, 77440, Note_on_c, 3, 59, 88
7, 77517, Note_off_c, 3, 59, 0
7, 77520, Note_on_c, 3, 54, 88
7, 77597, Note_off_c, 3, 54, 0
7, 77600, Note_on_c, 3, 55, 88
7, 77677, Note_off_c, 3, 55, 0
7, 77680, Note_on_c, 3, 51, 88
7, 77757, Note_off_c, 3, 51, 0
7, 77760, Note_on_c, 3, 52, 88
7, 77837, Note_off_c, 3, 52, 0
7, 77840, Note_on_c, 3, 47, 88
7, 77917, Note_off_c, 3, 47, 0
7, 77920, Note_on_c, 3, 48, 88
7, 77997, Note_off_c, 3, 48, 0
7, 78000, Note_on_c, 3, 39, 88
7, 78234, Note_off_c, 3, 39, 0
7, 79440, Note_on_c, 3, 48, 88
7, 79674, Note_off_c, 3, 48, 0
7, 79840, Note_on_c, 3, 58, 88
7, 79917, Note_off_c, 3, 58, 0
7, 79920, Note_on_c, 3, 59, 88
7, 80957, Note_off_c, 3, 59, 0
7, 80960, Note_on_c, 3, 61, 88
7, 81037, Note_off_c, 3, 61, 0
7, 81040, Note_on_c, 3, 63, 88
7, 81117, Note_off_c, 3, 63, 0
7, 81120, Note_on_c, 3, 64, 88
7, 81197, Note_off_c, 3, 64, 0
7, 81280, Note_on_c, 3, 46, 88
7, 81357, Note_off_c, 3, 46, 0
7, 81360, Note_on_c, 3, 47, 88
7, 81830, Note_off_c, 3, 47, 0
7, 81840, Note_on_c, 3, 52, 88
7, 82391, Note_off_c, 3, 52, 0
7, 82400, Note_on_c, 3, 51, 88
7, 82477, Note_off_c, 3, 51, 0
7, 82480, Note_on_c, 3, 52, 88
7, 82557, Note_off_c, 3, 52, 0
7, 82560, Note_on_c, 3, 40, 88
7, 82794, Note_off_c, 3, 40, 0
7, 82794, End_track
0, 0, End_of_file
