0, 0, Header, 1, 8, 240
1, 0, Start_track
1, 0, Time_signature, 6, 4, 24, 8
1, 0, Tempo, 869565
1, 0, SMPTE_offset, 64, 0, 0, 0, 93
1, 0, End_track
2, 0, Start_track
2, 0, Title_t, "(C) & (P) 1993"
2, 127, End_track
3, 0, Start_track
3, 0, Title_t, "CCARH,Stanford"
3, 0, End_track
4, 0, Start_track
4, 0, Title_t, "Track 1"
4, 0, Program_c, 0, 6
4, 180, Note_on_c, 0, 65, 88
4, 238, Note_off_c, 0, 65, 0
4, 240, Note_on_c, 0, 64, 88
4, 298, Note_off_c, 0, 64, 0
4, 300, Note_on_c, 0, 65, 88
4, 358, Note_off_c, 0, 65, 0
4, 360, Note_on_c, 0, 72, 88
4, 476, Note_off_c, 0, 72, 0
4, 540, Note_on_c, 0, 69, 88
4, 598, Note_off_c, 0, 69, 0
4, 600, Note_on_c, 0, 67, 88
4, 658, Note_off_c, 0, 67, 0
4, 660, Note_on_c, 0, 69, 88
4, 718, Note_off_c, 0, 69, 0
4, 720, Note_on_c, 0, 74, 88
4, 836, Note_off_c, 0, 74, 0
4, 900, Note_on_c, 0, 72, 88
4, 958, Note_off_c, 0, 72, 0
4, 960, Note_on_c, 0, 74, 88
4, 1018, Note_off_c, 0, 74, 0
4, 1020, Note_on_c, 0, 76, 88
4, 1078, Note_off_c, 0, 76, 0
4, 1080, Note_on_c, 0, 77, 88
4, 1138, Note_off_c, 0, 77, 0
4, 1140, Note_on_c, 0, 76, 88
4, 1198, Note_off_c, 0, 76, 0
4, 1200, Note_on_c, 0, 74, 88
4, 1258, Note_off_c, 0, 74, 0
4, 1260, Note_on_c, 0, 72, 88
4, 1318, Note_off_c, 0, 72, 0
4, 1320, Note_on_c, 0, 74, 88
4, 1378, Note_off_c, 0, 74, 0
4, 1380, Note_on_c, 0, 70, 88
4, 1438, Note_off_c, 0, 70, 0
4, 1440, Note_on_c, 0, 69, 88
4, 1498, Note_off_c, 0, 69, 0
4, 1500, Note_on_c, 0, 67, 88
4, 1558, Note_off_c, 0, 67, 0
4, 1560, Note_on_c, 0, 65, 88
4, 1618, Note_off_c, 0, 65, 0
4, 1620, Note_on_c, 0, 64, 88
4, 1736, Note_off_c, 0, 64, 0
4, 1740, Note_on_c, 0, 70, 88
4, 1798, Note_off_c, 0, 70, 0
4, 1800, Note_on_c, 0, 69, 88
4, 1916, Note_off_c, 0, 69, 0
4, 1920, Note_on_c, 0, 74, 88
4, 1978, Note_off_c, 0, 74, 0
4, 1980, Note_on_c, 0, 67, 88
4, 2096, Note_off_c, 0, 67, 0
4, 2100, Note_on_c, 0, 74, 88
4, 2158, Note_off_c, 0, 74, 0
4, 2160, Note_on_c, 0, 72, 88
4, 2276, Note_off_c, 0, 72, 0
4, 2280, Note_on_c, 0, 77, 88
4, 2338, Note_off_c, 0, 77, 0
4, 2340, Note_on_c, 0, 71, 88
4, 2456, Note_off_c, 0, 71, 0
4, 2460, Note_on_c, 0, 77, 88
4, 2518, Note_off_c, 0, 77, 0
4, 2520, Note_on_c, 0, 76, 88
4, 2578, Note_off_c, 0, 76, 0
4, 2580, Note_on_c, 0, 74, 88
4, 2638, Note_off_c, 0, 74, 0
4, 2640, Note_on_c, 0, 72, 88
4, 2698, Note_off_c, 0, 72, 0
4, 2700, Note_on_c, 0, 79, 88
4, 2816, Note_off_c, 0, 79, 0
4, 2820, Note_on_c, 0, 71, 88
4, 2878, Note_off_c, 0, 71, 0
4, 2880, Note_on_c, 0, 72, 88
4, 3114, Note_off_c, 0, 72, 0
4, 3120, Note_on_c, 0, 70, 88
4, 3178, Note_off_c, 0, 70, 0
4, 3180, Note_on_c, 0, 69, 88
4, 3238, Note_off_c, 0, 69, 0
4, 3240, Note_on_c, 0, 70, 88
4, 3298, Note_off_c, 0, 70, 0
4, 3300, Note_on_c, 0, 72, 88
4, 3358, Note_off_c, 0, 72, 0
4, 3360, Note_on_c, 0, 74, 88
4, 3418, Note_off_c, 0, 74, 0
4, 3420, Note_on_c, 0, 75, 88
4, 3658, Note_off_c, 0, 75, 0
4, 3660, Note_on_c, 0, 74, 88
4, 3718, Note_off_c, 0, 74, 0
4, 3720, Note_on_c, 0, 72, 88
4, 3778, Note_off_c, 0, 72, 0
4, 3780, Note_on_c, 0, 74, 88
4, 3838, Note_off_c, 0, 74, 0
4, 3840, Note_on_c, 0, 76, 88
4, 3898, Note_off_c, 0, 76, 0
4, 3900, Note_on_c, 0, 77, 88
4, 3958, Note_off_c, 0, 77, 0
4, 3960, Note_on_c, 0, 79, 88
4, 4194, Note_off_c, 0, 79, 0
4, 4200, Note_on_c, 0, 77, 88
4, 4258, Note_off_c, 0, 77, 0
4, 4260, Note_on_c, 0, 76, 88
4, 4318, Note_off_c, 0, 76, 0
4, 4320, Note_on_c, 0, 77, 88
4, 4378, Note_off_c, 0, 77, 0
4, 4380, Note_on_c, 0, 79, 88
4, 4438, Note_off_c, 0, 79, 0
4, 4440, Note_on_c, 0, 81, 88
4, 4498, Note_off_c, 0, 81, 0
4, 4500, Note_on_c, 0, 82, 88
4, 4738, Note_off_c, 0, 82, 0
4, 4740, Note_on_c, 0, 81, 88
4, 4798, Note_off_c, 0, 81, 0
4, 4800, Note_on_c, 0, 79, 88
4, 4858, Note_off_c, 0, 79, 0
4, 4860, Note_on_c, 0, 81, 88
4, 4918, Note_off_c, 0, 81, 0
4, 4920, Note_on_c, 0, 82, 88
4, 4978, Note_off_c, 0, 82, 0
4, 4980, Note_on_c, 0, 81, 88
4, 5038, Note_off_c, 0, 81, 0
4, 5040, Note_on_c, 0, 79, 88
4, 5274, Note_off_c, 0, 79, 0
4, 5280, Note_on_c, 0, 84, 88
4, 5338, Note_off_c, 0, 84, 0
4, 5340, Note_on_c, 0, 76, 88
4, 5398, Note_off_c, 0, 76, 0
4, 5400, Note_on_c, 0, 77, 88
4, 5575, Note_off_c, 0, 77, 0
4, 5580, Note_on_c, 0, 76, 88
4, 5638, Note_off_c, 0, 76, 0
4, 5640, Note_on_c, 0, 77, 88
4, 5698, Note_off_c, 0, 77, 0
4, 5700, Note_on_c, 0, 79, 88
4, 5758, Note_off_c, 0, 79, 0
4, 5760, Note_on_c, 0, 72, 88
4, 5876, Note_off_c, 0, 72, 0
4, 5880, Note_on_c, 0, 77, 88
4, 5921, Note_off_c, 0, 77, 0
4, 5940, Note_on_c, 0, 77, 88
4, 6056, Note_off_c, 0, 77, 0
4, 6060, Note_on_c, 0, 76, 88
4, 6118, Note_off_c, 0, 76, 0
4, 6120, Note_on_c, 0, 77, 88
4, 6236, Note_off_c, 0, 77, 0
4, 6480, Note_on_c, 0, 79, 88
4, 6538, Note_off_c, 0, 79, 0
4, 6540, Note_on_c, 0, 77, 88
4, 6598, Note_off_c, 0, 77, 0
4, 6600, Note_on_c, 0, 76, 88
4, 6658, Note_off_c, 0, 76, 0
4, 6660, Note_on_c, 0, 74, 88
4, 6718, Note_off_c, 0, 74, 0
4, 6720, Note_on_c, 0, 75, 88
4, 6778, Note_off_c, 0, 75, 0
4, 6780, Note_on_c, 0, 72, 88
4, 6838, Note_off_c, 0, 72, 0
4, 6840, Note_on_c, 0, 70, 88
4, 6898, Note_off_c, 0, 70, 0
4, 6900, Note_on_c, 0, 69, 88
4, 6958, Note_off_c, 0, 69, 0
4, 6960, Note_on_c, 0, 67, 88
4, 7018, Note_off_c, 0, 67, 0
4, 7020, Note_on_c, 0, 69, 88
4, 7136, Note_off_c, 0, 69, 0
4, 7140, Note_on_c, 0, 74, 88
4, 7198, Note_off_c, 0, 74, 0
4, 7200, Note_on_c, 0, 67, 88
4, 7316, Note_off_c, 0, 67, 0
4, 7320, Note_on_c, 0, 74, 88
4, 7378, Note_off_c, 0, 74, 0
4, 7380, Note_on_c, 0, 67, 88
4, 7496, Note_off_c, 0, 67, 0
4, 7500, Note_on_c, 0, 76, 88
4, 7618, Note_off_c, 0, 76, 0
4, 7620, Note_on_c, 0, 73, 88
4, 7678, Note_off_c, 0, 73, 0
4, 7680, Note_on_c, 0, 74, 88
4, 7796, Note_off_c, 0, 74, 0
4, 7800, Note_on_c, 0, 71, 88
4, 7858, Note_off_c, 0, 71, 0
4, 7860, Note_on_c, 0, 72, 88
4, 7978, Note_off_c, 0, 72, 0
4, 7980, Note_on_c, 0, 76, 88
4, 8038, Note_off_c, 0, 76, 0
4, 8040, Note_on_c, 0, 77, 88
4, 8098, Note_off_c, 0, 77, 0
4, 8100, Note_on_c, 0, 71, 88
4, 8158, Note_off_c, 0, 71, 0
4, 8160, Note_on_c, 0, 72, 88
4, 8218, Note_off_c, 0, 72, 0
4, 8220, Note_on_c, 0, 74, 88
4, 8278, Note_off_c, 0, 74, 0
4, 8280, Note_on_c, 0, 67, 88
4, 8396, Note_off_c, 0, 67, 0
4, 8400, Note_on_c, 0, 72, 88
4, 8441, Note_off_c, 0, 72, 0
4, 8460, Note_on_c, 0, 72, 88
4, 8576, Note_off_c, 0, 72, 0
4, 8580, Note_on_c, 0, 71, 88
4, 8638, Note_off_c, 0, 71, 0
4, 8640, Note_on_c, 0, 72, 88
4, 8756, Note_off_c, 0, 72, 0
4, 8760, Note_on_c, 0, 67, 88
4, 8818, Note_off_c, 0, 67, 0
4, 8820, Note_on_c, 0, 70, 88
4, 8995, Note_off_c, 0, 70, 0
4, 9000, Note_on_c, 0, 69, 88
4, 9294, Note_off_c, 0, 69, 0
4, 9300, Note_on_c, 0, 74, 88
4, 9358, Note_off_c, 0, 74, 0
4, 9360, Note_on_c, 0, 67, 88
4, 9641, Note_off_c, 0, 67, 0
4, 9660, Note_on_c, 0, 67, 88
4, 9718, Note_off_c, 0, 67, 0
4, 9720, Note_on_c, 0, 72, 88
4, 9941, Note_off_c, 0, 72, 0
4, 9960, Note_on_c, 0, 72, 88
4, 10018, Note_off_c, 0, 72, 0
4, 10020, Note_on_c, 0, 71, 88
4, 10078, Note_off_c, 0, 71, 0
4, 10080, Note_on_c, 0, 72, 88
4, 10196, Note_off_c, 0, 72, 0
4, 10440, Note_on_c, 0, 79, 88
4, 10498, Note_off_c, 0, 79, 0
4, 10500, Note_on_c, 0, 77, 88
4, 10558, Note_off_c, 0, 77, 0
4, 10560, Note_on_c, 0, 76, 88
4, 10618, Note_off_c, 0, 76, 0
4, 10620, Note_on_c, 0, 74, 88
4, 10678, Note_off_c, 0, 74, 0
4, 10680, Note_on_c, 0, 76, 88
4, 10738, Note_off_c, 0, 76, 0
4, 10740, Note_on_c, 0, 72, 88
4, 10798, Note_off_c, 0, 72, 0
4, 10800, Note_on_c, 0, 71, 88
4, 10858, Note_off_c, 0, 71, 0
4, 10860, Note_on_c, 0, 69, 88
4, 10918, Note_off_c, 0, 69, 0
4, 10920, Note_on_c, 0, 67, 88
4, 10978, Note_off_c, 0, 67, 0
4, 10980, Note_on_c, 0, 73, 88
4, 11096, Note_off_c, 0, 73, 0
4, 11160, Note_on_c, 0, 81, 88
4, 11218, Note_off_c, 0, 81, 0
4, 11220, Note_on_c, 0, 79, 88
4, 11278, Note_off_c, 0, 79, 0
4, 11280, Note_on_c, 0, 77, 88
4, 11338, Note_off_c, 0, 77, 0
4, 11340, Note_on_c, 0, 76, 88
4, 11398, Note_off_c, 0, 76, 0
4, 11400, Note_on_c, 0, 77, 88
4, 11458, Note_off_c, 0, 77, 0
4, 11460, Note_on_c, 0, 74, 88
4, 11518, Note_off_c, 0, 74, 0
4, 11520, Note_on_c, 0, 73, 88
4, 11578, Note_off_c, 0, 73, 0
4, 11580, Note_on_c, 0, 71, 88
4, 11638, Note_off_c, 0, 71, 0
4, 11640, Note_on_c, 0, 69, 88
4, 11698, Note_off_c, 0, 69, 0
4, 11700, Note_on_c, 0, 74, 88
4, 11938, Note_off_c, 0, 74, 0
4, 11940, Note_on_c, 0, 72, 88
4, 11998, Note_off_c, 0, 72, 0
4, 12000, Note_on_c, 0, 71, 88
4, 12058, Note_off_c, 0, 71, 0
4, 12060, Note_on_c, 0, 72, 88
4, 12298, Note_off_c, 0, 72, 0
4, 12300, Note_on_c, 0, 70, 88
4, 12358, Note_off_c, 0, 70, 0
4, 12360, Note_on_c, 0, 69, 88
4, 12418, Note_off_c, 0, 69, 0
4, 12420, Note_on_c, 0, 70, 88
4, 12658, Note_off_c, 0, 70, 0
4, 12660, Note_on_c, 0, 72, 88
4, 12718, Note_off_c, 0, 72, 0
4, 12720, Note_on_c, 0, 70, 88
4, 12778, Note_off_c, 0, 70, 0
4, 12780, Note_on_c, 0, 69, 88
4, 12838, Note_off_c, 0, 69, 0
4, 12840, Note_on_c, 0, 70, 88
4, 12898, Note_off_c, 0, 70, 0
4, 12900, Note_on_c, 0, 67, 88
4, 12958, Note_off_c, 0, 67, 0
4, 12960, Note_on_c, 0, 66, 88
4, 13018, Note_off_c, 0, 66, 0
4, 13020, Note_on_c, 0, 64, 88
4, 13078, Note_off_c, 0, 64, 0
4, 13080, Note_on_c, 0, 62, 88
4, 13138, Note_off_c, 0, 62, 0
4, 13140, Note_on_c, 0, 67, 88
4, 13378, Note_off_c, 0, 67, 0
4, 13380, Note_on_c, 0, 65, 88
4, 13438, Note_off_c, 0, 65, 0
4, 13440, Note_on_c, 0, 64, 88
4, 13498, Note_off_c, 0, 64, 0
4, 13500, Note_on_c, 0, 65, 88
4, 13558, Note_off_c, 0, 65, 0
4, 13560, Note_on_c, 0, 67, 88
4, 13618, Note_off_c, 0, 67, 0
4, 13620, Note_on_c, 0, 69, 88
4, 13678, Note_off_c, 0, 69, 0
4, 13680, Note_on_c, 0, 70, 88
4, 13914, Note_off_c, 0, 70, 0
4, 13920, Note_on_c, 0, 69, 88
4, 13978, Note_off_c, 0, 69, 0
4, 13980, Note_on_c, 0, 67, 88
4, 14038, Note_off_c, 0, 67, 0
4, 14040, Note_on_c, 0, 69, 88
4, 14274, Note_off_c, 0, 69, 0
4, 14280, Note_on_c, 0, 70, 88
4, 14338, Note_off_c, 0, 70, 0
4, 14340, Note_on_c, 0, 72, 88
4, 14398, Note_off_c, 0, 72, 0
4, 14400, Note_on_c, 0, 74, 88
4, 14634, Note_off_c, 0, 74, 0
4, 14640, Note_on_c, 0, 72, 88
4, 14698, Note_off_c, 0, 72, 0
4, 14700, Note_on_c, 0, 70, 88
4, 14758, Note_off_c, 0, 70, 0
4, 14760, Note_on_c, 0, 72, 88
4, 14994, Note_off_c, 0, 72, 0
4, 15000, Note_on_c, 0, 74, 88
4, 15058, Note_off_c, 0, 74, 0
4, 15060, Note_on_c, 0, 76, 88
4, 15118, Note_off_c, 0, 76, 0
4, 15120, Note_on_c, 0, 77, 88
4, 15354, Note_off_c, 0, 77, 0
4, 15360, Note_on_c, 0, 76, 88
4, 15418, Note_off_c, 0, 76, 0
4, 15420, Note_on_c, 0, 74, 88
4, 15478, Note_off_c, 0, 74, 0
4, 15480, Note_on_c, 0, 76, 88
4, 15714, Note_off_c, 0, 76, 0
4, 15720, Note_on_c, 0, 77, 88
4, 15778, Note_off_c, 0, 77, 0
4, 15780, Note_on_c, 0, 79, 88
4, 15838, Note_off_c, 0, 79, 0
4, 15840, Note_on_c, 0, 81, 88
4, 15898, Note_off_c, 0, 81, 0
4, 15900, Note_on_c, 0, 79, 88
4, 15958, Note_off_c, 0, 79, 0
4, 15960, Note_on_c, 0, 77, 88
4, 16018, Note_off_c, 0, 77, 0
4, 16020, Note_on_c, 0, 76, 88
4, 16078, Note_off_c, 0, 76, 0
4, 16080, Note_on_c, 0, 77, 88
4, 16109, Note_off_c, 0, 77, 0
4, 16110, Note_on_c, 0, 76, 88
4, 16139, Note_off_c, 0, 76, 0
4, 16140, Note_on_c, 0, 74, 88
4, 16169, Note_off_c, 0, 74, 0
4, 16170, Note_on_c, 0, 72, 88
4, 16199, Note_off_c, 0, 72, 0
4, 16200, Note_on_c, 0, 77, 88
4, 16553, Note_off_c, 0, 77, 0
4, 16560, Note_on_c, 0, 75, 88
4, 16618, Note_off_c, 0, 75, 0
4, 16620, Note_on_c, 0, 79, 88
4, 16678, Note_off_c, 0, 79, 0
4, 16680, Note_on_c, 0, 78, 88
4, 16738, Note_off_c, 0, 78, 0
4, 16740, Note_on_c, 0, 79, 88
4, 17095, Note_off_c, 0, 79, 0
4, 17100, Note_on_c, 0, 78, 88
4, 17158, Note_off_c, 0, 78, 0
4, 17160, Note_on_c, 0, 79, 88
4, 17218, Note_off_c, 0, 79, 0
4, 17220, Note_on_c, 0, 81, 88
4, 17278, Note_off_c, 0, 81, 0
4, 17280, Note_on_c, 0, 70, 88
4, 17338, Note_off_c, 0, 70, 0
4, 17340, Note_on_c, 0, 74, 88
4, 17398, Note_off_c, 0, 74, 0
4, 17400, Note_on_c, 0, 72, 88
4, 17458, Note_off_c, 0, 72, 0
4, 17460, Note_on_c, 0, 70, 88
4, 17518, Note_off_c, 0, 70, 0
4, 17520, Note_on_c, 0, 72, 88
4, 17578, Note_off_c, 0, 72, 0
4, 17580, Note_on_c, 0, 69, 88
4, 17638, Note_off_c, 0, 69, 0
4, 17640, Note_on_c, 0, 67, 88
4, 17756, Note_off_c, 0, 67, 0
4, 17760, Note_on_c, 0, 75, 88
4, 17818, Note_off_c, 0, 75, 0
4, 17820, Note_on_c, 0, 73, 88
4, 17936, Note_off_c, 0, 73, 0
4, 17940, Note_on_c, 0, 69, 88
4, 18041, Note_off_c, 0, 69, 0
4, 18060, Note_on_c, 0, 69, 88
4, 18118, Note_off_c, 0, 69, 0
4, 18120, Note_on_c, 0, 74, 88
4, 18178, Note_off_c, 0, 74, 0
4, 18180, Note_on_c, 0, 73, 88
4, 18238, Note_off_c, 0, 73, 0
4, 18240, Note_on_c, 0, 74, 88
4, 18298, Note_off_c, 0, 74, 0
4, 18300, Note_on_c, 0, 76, 88
4, 18358, Note_off_c, 0, 76, 0
4, 18360, Note_on_c, 0, 74, 88
4, 18418, Note_off_c, 0, 74, 0
4, 18420, Note_on_c, 0, 76, 88
4, 18478, Note_off_c, 0, 76, 0
4, 18480, Note_on_c, 0, 77, 88
4, 18538, Note_off_c, 0, 77, 0
4, 18540, Note_on_c, 0, 70, 88
4, 18778, Note_off_c, 0, 70, 0
4, 18780, Note_on_c, 0, 76, 88
4, 18838, Note_off_c, 0, 76, 0
4, 18840, Note_on_c, 0, 79, 88
4, 18898, Note_off_c, 0, 79, 0
4, 18900, Note_on_c, 0, 72, 88
4, 19138, Note_off_c, 0, 72, 0
4, 19140, Note_on_c, 0, 70, 88
4, 19198, Note_off_c, 0, 70, 0
4, 19200, Note_on_c, 0, 69, 88
4, 19258, Note_off_c, 0, 69, 0
4, 19260, Note_on_c, 0, 70, 88
4, 19376, Note_off_c, 0, 70, 0
4, 19560, Note_on_c, 0, 70, 88
4, 19618, Note_off_c, 0, 70, 0
4, 19620, Note_on_c, 0, 69, 88
4, 19736, Note_off_c, 0, 69, 0
4, 19740, Note_on_c, 0, 67, 88
4, 19798, Note_off_c, 0, 67, 0
4, 19800, Note_on_c, 0, 65, 88
4, 20034, Note_off_c, 0, 65, 0
4, 20040, Note_on_c, 0, 63, 88
4, 20098, Note_off_c, 0, 63, 0
4, 20100, Note_on_c, 0, 62, 88
4, 20158, Note_off_c, 0, 62, 0
4, 20160, Note_on_c, 0, 60, 88
4, 20394, Note_off_c, 0, 60, 0
4, 20400, Note_on_c, 0, 62, 88
4, 20458, Note_off_c, 0, 62, 0
4, 20460, Note_on_c, 0, 63, 88
4, 20518, Note_off_c, 0, 63, 0
4, 20520, Note_on_c, 0, 65, 88
4, 20754, Note_off_c, 0, 65, 0
4, 20760, Note_on_c, 0, 67, 88
4, 20818, Note_off_c, 0, 67, 0
4, 20820, Note_on_c, 0, 69, 88
4, 20878, Note_off_c, 0, 69, 0
4, 20880, Note_on_c, 0, 70, 88
4, 21114, Note_off_c, 0, 70, 0
4, 21120, Note_on_c, 0, 72, 88
4, 21178, Note_off_c, 0, 72, 0
4, 21180, Note_on_c, 0, 74, 88
4, 21238, Note_off_c, 0, 74, 0
4, 21240, Note_on_c, 0, 75, 88
4, 21658, Note_off_c, 0, 75, 0
4, 21660, Note_on_c, 0, 74, 88
4, 21718, Note_off_c, 0, 74, 0
4, 21720, Note_on_c, 0, 72, 88
4, 21778, Note_off_c, 0, 72, 0
4, 21780, Note_on_c, 0, 74, 88
4, 21838, Note_off_c, 0, 74, 0
4, 21840, Note_on_c, 0, 75, 88
4, 21898, Note_off_c, 0, 75, 0
4, 21900, Note_on_c, 0, 74, 88
4, 21958, Note_off_c, 0, 74, 0
4, 21960, Note_on_c, 0, 72, 88
4, 22181, Note_off_c, 0, 72, 0
4, 22200, Note_on_c, 0, 72, 88
4, 22258, Note_off_c, 0, 72, 0
4, 22260, Note_on_c, 0, 77, 88
4, 22318, Note_off_c, 0, 77, 0
4, 22320, Note_on_c, 0, 70, 88
4, 22541, Note_off_c, 0, 70, 0
4, 22560, Note_on_c, 0, 70, 88
4, 22618, Note_off_c, 0, 70, 0
4, 22620, Note_on_c, 0, 75, 88
4, 22678, Note_off_c, 0, 75, 0
4, 22680, Note_on_c, 0, 69, 88
4, 22901, Note_off_c, 0, 69, 0
4, 22920, Note_on_c, 0, 69, 88
4, 22978, Note_off_c, 0, 69, 0
4, 22980, Note_on_c, 0, 74, 88
4, 23038, Note_off_c, 0, 74, 0
4, 23040, Note_on_c, 0, 67, 88
4, 23261, Note_off_c, 0, 67, 0
4, 23280, Note_on_c, 0, 67, 88
4, 23338, Note_off_c, 0, 67, 0
4, 23340, Note_on_c, 0, 72, 88
4, 23398, Note_off_c, 0, 72, 0
4, 23400, Note_on_c, 0, 65, 88
4, 23694, Note_off_c, 0, 65, 0
4, 23700, Note_on_c, 0, 70, 88
4, 23818, Note_off_c, 0, 70, 0
4, 23820, Note_on_c, 0, 67, 88
4, 23878, Note_off_c, 0, 67, 0
4, 23880, Note_on_c, 0, 69, 88
4, 24055, Note_off_c, 0, 69, 0
4, 24060, Note_on_c, 0, 74, 88
4, 24118, Note_off_c, 0, 74, 0
4, 24120, Note_on_c, 0, 70, 88
4, 24295, Note_off_c, 0, 70, 0
4, 24300, Note_on_c, 0, 69, 88
4, 24358, Note_off_c, 0, 69, 0
4, 24360, Note_on_c, 0, 70, 88
4, 24418, Note_off_c, 0, 70, 0
4, 24420, Note_on_c, 0, 72, 88
4, 24478, Note_off_c, 0, 72, 0
4, 24480, Note_on_c, 0, 74, 88
4, 24538, Note_off_c, 0, 74, 0
4, 24540, Note_on_c, 0, 72, 88
4, 24598, Note_off_c, 0, 72, 0
4, 24600, Note_on_c, 0, 75, 88
4, 24658, Note_off_c, 0, 75, 0
4, 24660, Note_on_c, 0, 74, 88
4, 24718, Note_off_c, 0, 74, 0
4, 24720, Note_on_c, 0, 75, 88
4, 24778, Note_off_c, 0, 75, 0
4, 24780, Note_on_c, 0, 72, 88
4, 24838, Note_off_c, 0, 72, 0
4, 24840, Note_on_c, 0, 70, 88
4, 25794, Note_off_c, 0, 70, 0
4, 25800, Note_on_c, 0, 67, 88
4, 25858, Note_off_c, 0, 67, 0
4, 25860, Note_on_c, 0, 68, 88
4, 25918, Note_off_c, 0, 68, 0
4, 25920, Note_on_c, 0, 68, 88
4, 26154, Note_off_c, 0, 68, 0
4, 26160, Note_on_c, 0, 65, 88
4, 26218, Note_off_c, 0, 65, 0
4, 26220, Note_on_c, 0, 67, 88
4, 26278, Note_off_c, 0, 67, 0
4, 26280, Note_on_c, 0, 67, 88
4, 26514, Note_off_c, 0, 67, 0
4, 26520, Note_on_c, 0, 64, 88
4, 26578, Note_off_c, 0, 64, 0
4, 26580, Note_on_c, 0, 65, 88
4, 26638, Note_off_c, 0, 65, 0
4, 26640, Note_on_c, 0, 65, 88
4, 26874, Note_off_c, 0, 65, 0
4, 26880, Note_on_c, 0, 62, 88
4, 26938, Note_off_c, 0, 62, 0
4, 26940, Note_on_c, 0, 64, 88
4, 26998, Note_off_c, 0, 64, 0
4, 27000, Note_on_c, 0, 64, 88
4, 27116, Note_off_c, 0, 64, 0
4, 27180, Note_on_c, 0, 68, 88
4, 27418, Note_off_c, 0, 68, 0
4, 27420, Note_on_c, 0, 67, 88
4, 27478, Note_off_c, 0, 67, 0
4, 27480, Note_on_c, 0, 65, 88
4, 27538, Note_off_c, 0, 65, 0
4, 27540, Note_on_c, 0, 67, 88
4, 27778, Note_off_c, 0, 67, 0
4, 27780, Note_on_c, 0, 65, 88
4, 27838, Note_off_c, 0, 65, 0
4, 27840, Note_on_c, 0, 64, 88
4, 27898, Note_off_c, 0, 64, 0
4, 27900, Note_on_c, 0, 65, 88
4, 27958, Note_off_c, 0, 65, 0
4, 27960, Note_on_c, 0, 72, 88
4, 28018, Note_off_c, 0, 72, 0
4, 28020, Note_on_c, 0, 77, 88
4, 28078, Note_off_c, 0, 77, 0
4, 28080, Note_on_c, 0, 70, 88
4, 28314, Note_off_c, 0, 70, 0
4, 28320, Note_on_c, 0, 76, 88
4, 28378, Note_off_c, 0, 76, 0
4, 28380, Note_on_c, 0, 79, 88
4, 28438, Note_off_c, 0, 79, 0
4, 28440, Note_on_c, 0, 72, 88
4, 28674, Note_off_c, 0, 72, 0
4, 28680, Note_on_c, 0, 77, 88
4, 28738, Note_off_c, 0, 77, 0
4, 28740, Note_on_c, 0, 80, 88
4, 28798, Note_off_c, 0, 80, 0
4, 28800, Note_on_c, 0, 73, 88
4, 28916, Note_off_c, 0, 73, 0
4, 28920, Note_on_c, 0, 77, 88
4, 28978, Note_off_c, 0, 77, 0
4, 28980, Note_on_c, 0, 82, 88
4, 29096, Note_off_c, 0, 82, 0
4, 29100, Note_on_c, 0, 73, 88
4, 29158, Note_off_c, 0, 73, 0
4, 29160, Note_on_c, 0, 72, 88
4, 29276, Note_off_c, 0, 72, 0
4, 29280, Note_on_c, 0, 82, 88
4, 29338, Note_off_c, 0, 82, 0
4, 29340, Note_on_c, 0, 80, 88
4, 29456, Note_off_c, 0, 80, 0
4, 29460, Note_on_c, 0, 77, 88
4, 29518, Note_off_c, 0, 77, 0
4, 29520, Note_on_c, 0, 71, 88
4, 29578, Note_off_c, 0, 71, 0
4, 29580, Note_on_c, 0, 77, 88
4, 29638, Note_off_c, 0, 77, 0
4, 29640, Note_on_c, 0, 79, 88
4, 29698, Note_off_c, 0, 79, 0
4, 29700, Note_on_c, 0, 80, 88
4, 29758, Note_off_c, 0, 80, 0
4, 29760, Note_on_c, 0, 79, 88
4, 29818, Note_off_c, 0, 79, 0
4, 29820, Note_on_c, 0, 77, 88
4, 29938, Note_off_c, 0, 77, 0
4, 29940, Note_on_c, 0, 76, 88
4, 29998, Note_off_c, 0, 76, 0
4, 30000, Note_on_c, 0, 73, 88
4, 30116, Note_off_c, 0, 73, 0
4, 30120, Note_on_c, 0, 72, 88
4, 30178, Note_off_c, 0, 72, 0
4, 30180, Note_on_c, 0, 70, 88
4, 30298, Note_off_c, 0, 70, 0
4, 30300, Note_on_c, 0, 68, 88
4, 30358, Note_off_c, 0, 68, 0
4, 30360, Note_on_c, 0, 67, 88
4, 30418, Note_off_c, 0, 67, 0
4, 30420, Note_on_c, 0, 65, 88
4, 30478, Note_off_c, 0, 65, 0
4, 30480, Note_on_c, 0, 64, 88
4, 30538, Note_off_c, 0, 64, 0
4, 30540, Note_on_c, 0, 65, 88
4, 30658, Note_off_c, 0, 65, 0
4, 30660, Note_on_c, 0, 62, 88
4, 30718, Note_off_c, 0, 62, 0
4, 30720, Note_on_c, 0, 64, 88
4, 30778, Note_off_c, 0, 64, 0
4, 30780, Note_on_c, 0, 69, 88
4, 30838, Note_off_c, 0, 69, 0
4, 30840, Note_on_c, 0, 67, 88
4, 30898, Note_off_c, 0, 67, 0
4, 30900, Note_on_c, 0, 69, 88
4, 30958, Note_off_c, 0, 69, 0
4, 30960, Note_on_c, 0, 70, 88
4, 30960, Note_on_c, 0, 73, 88
4, 31076, Note_off_c, 0, 70, 0
4, 31076, Note_off_c, 0, 73, 0
4, 31140, Note_on_c, 0, 72, 88
4, 31198, Note_off_c, 0, 72, 0
4, 31200, Note_on_c, 0, 74, 88
4, 31258, Note_off_c, 0, 74, 0
4, 31260, Note_on_c, 0, 76, 88
4, 31318, Note_off_c, 0, 76, 0
4, 31320, Note_on_c, 0, 77, 88
4, 31378, Note_off_c, 0, 77, 0
4, 31380, Note_on_c, 0, 76, 88
4, 31438, Note_off_c, 0, 76, 0
4, 31440, Note_on_c, 0, 74, 88
4, 31498, Note_off_c, 0, 74, 0
4, 31500, Note_on_c, 0, 72, 88
4, 31558, Note_off_c, 0, 72, 0
4, 31560, Note_on_c, 0, 74, 88
4, 31618, Note_off_c, 0, 74, 0
4, 31620, Note_on_c, 0, 70, 88
4, 31678, Note_off_c, 0, 70, 0
4, 31680, Note_on_c, 0, 69, 88
4, 31738, Note_off_c, 0, 69, 0
4, 31740, Note_on_c, 0, 65, 88
4, 31769, Note_off_c, 0, 65, 0
4, 31770, Note_on_c, 0, 67, 88
4, 31799, Note_off_c, 0, 67, 0
4, 31800, Note_on_c, 0, 69, 88
4, 31829, Note_off_c, 0, 69, 0
4, 31830, Note_on_c, 0, 70, 88
4, 31859, Note_off_c, 0, 70, 0
4, 31860, Note_on_c, 0, 72, 88
4, 32215, Note_off_c, 0, 72, 0
4, 32220, Note_on_c, 0, 70, 88
4, 32487, Note_off_c, 0, 70, 0
4, 32490, Note_on_c, 0, 67, 88
4, 32519, Note_off_c, 0, 67, 0
4, 32520, Note_on_c, 0, 69, 88
4, 32549, Note_off_c, 0, 69, 0
4, 32550, Note_on_c, 0, 70, 88
4, 32579, Note_off_c, 0, 70, 0
4, 32580, Note_on_c, 0, 72, 88
4, 32847, Note_off_c, 0, 72, 0
4, 32850, Note_on_c, 0, 69, 88
4, 32879, Note_off_c, 0, 69, 0
4, 32880, Note_on_c, 0, 70, 88
4, 32909, Note_off_c, 0, 70, 0
4, 32910, Note_on_c, 0, 72, 88
4, 32939, Note_off_c, 0, 72, 0
4, 32940, Note_on_c, 0, 74, 88
4, 33149, Note_off_c, 0, 74, 0
4, 33150, Note_on_c, 0, 70, 88
4, 33179, Note_off_c, 0, 70, 0
4, 33180, Note_on_c, 0, 72, 88
4, 33209, Note_off_c, 0, 72, 0
4, 33210, Note_on_c, 0, 74, 88
4, 33239, Note_off_c, 0, 74, 0
4, 33240, Note_on_c, 0, 76, 88
4, 33269, Note_off_c, 0, 76, 0
4, 33270, Note_on_c, 0, 77, 88
4, 33299, Note_off_c, 0, 77, 0
4, 33300, Note_on_c, 0, 79, 88
4, 33329, Note_off_c, 0, 79, 0
4, 33330, Note_on_c, 0, 77, 88
4, 33359, Note_off_c, 0, 77, 0
4, 33360, Note_on_c, 0, 76, 88
4, 33389, Note_off_c, 0, 76, 0
4, 33390, Note_on_c, 0, 74, 88
4, 33419, Note_off_c, 0, 74, 0
4, 33420, Note_on_c, 0, 72, 88
4, 33449, Note_off_c, 0, 72, 0
4, 33450, Note_on_c, 0, 70, 88
4, 33479, Note_off_c, 0, 70, 0
4, 33480, Note_on_c, 0, 69, 88
4, 33538, Note_off_c, 0, 69, 0
4, 33540, Note_on_c, 0, 72, 88
4, 33598, Note_off_c, 0, 72, 0
4, 33600, Note_on_c, 0, 70, 88
4, 33658, Note_off_c, 0, 70, 0
4, 33660, Note_on_c, 0, 72, 88
4, 33956, Note_off_c, 0, 72, 0
4, 33960, Note_on_c, 0, 74, 88
4, 34018, Note_off_c, 0, 74, 0
4, 34020, Note_on_c, 0, 75, 88
4, 34195, Note_off_c, 0, 75, 0
4, 34200, Note_on_c, 0, 74, 88
4, 34494, Note_off_c, 0, 74, 0
4, 34500, Note_on_c, 0, 79, 88
4, 34558, Note_off_c, 0, 79, 0
4, 34560, Note_on_c, 0, 76, 88
4, 34854, Note_off_c, 0, 76, 0
4, 34860, Note_on_c, 0, 81, 88
4, 34918, Note_off_c, 0, 81, 0
4, 34920, Note_on_c, 0, 77, 88
4, 35036, Note_off_c, 0, 77, 0
4, 35040, Note_on_c, 0, 74, 88
4, 35098, Note_off_c, 0, 74, 0
4, 35100, Note_on_c, 0, 69, 88
4, 35158, Note_off_c, 0, 69, 0
4, 35160, Note_on_c, 0, 70, 88
4, 35218, Note_off_c, 0, 70, 0
4, 35220, Note_on_c, 0, 67, 88
4, 35278, Note_off_c, 0, 67, 0
4, 35280, Note_on_c, 0, 65, 88
4, 35455, Note_off_c, 0, 65, 0
4, 35455, End_track
5, 0, Start_track
5, 0, Title_t, "Track 2"
5, 0, Program_c, 1, 6
5, 30600, Note_on_c, 1, 72, 88
5, 30716, Note_off_c, 1, 72, 0
5, 30780, Note_on_c, 1, 63, 88
5, 30896, Note_off_c, 1, 63, 0
5, 30960, Note_on_c, 1, 65, 88
5, 31076, Note_off_c, 1, 65, 0
5, 31076, End_track
6, 0, Start_track
6, 0, Title_t, "Track 3"
6, 0, Program_c, 2, 6
6, 1620, Note_on_c, 2, 60, 88
6, 1678, Note_off_c, 2, 60, 0
6, 1680, Note_on_c, 2, 58, 88
6, 1738, Note_off_c, 2, 58, 0
6, 1740, Note_on_c, 2, 60, 88
6, 1798, Note_off_c, 2, 60, 0
6, 1800, Note_on_c, 2, 65, 88
6, 1916, Note_off_c, 2, 65, 0
6, 1980, Note_on_c, 2, 64, 88
6, 2038, Note_off_c, 2, 64, 0
6, 2040, Note_on_c, 2, 62, 88
6, 2098, Note_off_c, 2, 62, 0
6, 2100, Note_on_c, 2, 64, 88
6, 2158, Note_off_c, 2, 64, 0
6, 2160, Note_on_c, 2, 69, 88
6, 2276, Note_off_c, 2, 69, 0
6, 2340, Note_on_c, 2, 67, 88
6, 2398, Note_off_c, 2, 67, 0
6, 2400, Note_on_c, 2, 69, 88
6, 2458, Note_off_c, 2, 69, 0
6, 2460, Note_on_c, 2, 71, 88
6, 2518, Note_off_c, 2, 71, 0
6, 2520, Note_on_c, 2, 72, 88
6, 2578, Note_off_c, 2, 72, 0
6, 2580, Note_on_c, 2, 71, 88
6, 2638, Note_off_c, 2, 71, 0
6, 2640, Note_on_c, 2, 69, 88
6, 2698, Note_off_c, 2, 69, 0
6, 2700, Note_on_c, 2, 67, 88
6, 2758, Note_off_c, 2, 67, 0
6, 2760, Note_on_c, 2, 69, 88
6, 2818, Note_off_c, 2, 69, 0
6, 2820, Note_on_c, 2, 65, 88
6, 2878, Note_off_c, 2, 65, 0
6, 2880, Note_on_c, 2, 64, 88
6, 2938, Note_off_c, 2, 64, 0
6, 2940, Note_on_c, 2, 62, 88
6, 2998, Note_off_c, 2, 62, 0
6, 3000, Note_on_c, 2, 60, 88
6, 3058, Note_off_c, 2, 60, 0
6, 3060, Note_on_c, 2, 62, 88
6, 3118, Note_off_c, 2, 62, 0
6, 3120, Note_on_c, 2, 64, 88
6, 3178, Note_off_c, 2, 64, 0
6, 3180, Note_on_c, 2, 66, 88
6, 3238, Note_off_c, 2, 66, 0
6, 3240, Note_on_c, 2, 67, 88
6, 3474, Note_off_c, 2, 67, 0
6, 3480, Note_on_c, 2, 65, 88
6, 3538, Note_off_c, 2, 65, 0
6, 3540, Note_on_c, 2, 63, 88
6, 3598, Note_off_c, 2, 63, 0
6, 3600, Note_on_c, 2, 65, 88
6, 3658, Note_off_c, 2, 65, 0
6, 3660, Note_on_c, 2, 67, 88
6, 3718, Note_off_c, 2, 67, 0
6, 3720, Note_on_c, 2, 69, 88
6, 3778, Note_off_c, 2, 69, 0
6, 3780, Note_on_c, 2, 70, 88
6, 4018, Note_off_c, 2, 70, 0
6, 4020, Note_on_c, 2, 69, 88
6, 4078, Note_off_c, 2, 69, 0
6, 4080, Note_on_c, 2, 67, 88
6, 4138, Note_off_c, 2, 67, 0
6, 4140, Note_on_c, 2, 69, 88
6, 4198, Note_off_c, 2, 69, 0
6, 4200, Note_on_c, 2, 71, 88
6, 4258, Note_off_c, 2, 71, 0
6, 4260, Note_on_c, 2, 73, 88
6, 4318, Note_off_c, 2, 73, 0
6, 4320, Note_on_c, 2, 74, 88
6, 4554, Note_off_c, 2, 74, 0
6, 4560, Note_on_c, 2, 72, 88
6, 4618, Note_off_c, 2, 72, 0
6, 4620, Note_on_c, 2, 70, 88
6, 4678, Note_off_c, 2, 70, 0
6, 4680, Note_on_c, 2, 72, 88
6, 4738, Note_off_c, 2, 72, 0
6, 4740, Note_on_c, 2, 74, 88
6, 4798, Note_off_c, 2, 74, 0
6, 4800, Note_on_c, 2, 76, 88
6, 4858, Note_off_c, 2, 76, 0
6, 4860, Note_on_c, 2, 77, 88
6, 5098, Note_off_c, 2, 77, 0
6, 5100, Note_on_c, 2, 76, 88
6, 5158, Note_off_c, 2, 76, 0
6, 5160, Note_on_c, 2, 74, 88
6, 5218, Note_off_c, 2, 74, 0
6, 5220, Note_on_c, 2, 72, 88
6, 5458, Note_off_c, 2, 72, 0
6, 5460, Note_on_c, 2, 69, 88
6, 5518, Note_off_c, 2, 69, 0
6, 5520, Note_on_c, 2, 70, 88
6, 5754, Note_off_c, 2, 70, 0
6, 5760, Note_on_c, 2, 69, 88
6, 5876, Note_off_c, 2, 69, 0
6, 5880, Note_on_c, 2, 70, 88
6, 5938, Note_off_c, 2, 70, 0
6, 5940, Note_on_c, 2, 69, 88
6, 6056, Note_off_c, 2, 69, 0
6, 6060, Note_on_c, 2, 67, 88
6, 6118, Note_off_c, 2, 67, 0
6, 6120, Note_on_c, 2, 72, 88
6, 6178, Note_off_c, 2, 72, 0
6, 6180, Note_on_c, 2, 70, 88
6, 6238, Note_off_c, 2, 70, 0
6, 6240, Note_on_c, 2, 69, 88
6, 6298, Note_off_c, 2, 69, 0
6, 6300, Note_on_c, 2, 67, 88
6, 6358, Note_off_c, 2, 67, 0
6, 6360, Note_on_c, 2, 69, 88
6, 6418, Note_off_c, 2, 69, 0
6, 6420, Note_on_c, 2, 65, 88
6, 6478, Note_off_c, 2, 65, 0
6, 6480, Note_on_c, 2, 64, 88
6, 6538, Note_off_c, 2, 64, 0
6, 6540, Note_on_c, 2, 62, 88
6, 6598, Note_off_c, 2, 62, 0
6, 6600, Note_on_c, 2, 60, 88
6, 6658, Note_off_c, 2, 60, 0
6, 6660, Note_on_c, 2, 66, 88
6, 6835, Note_off_c, 2, 66, 0
6, 6840, Note_on_c, 2, 67, 88
6, 6956, Note_off_c, 2, 67, 0
6, 7020, Note_on_c, 2, 65, 88
6, 7375, Note_off_c, 2, 65, 0
6, 7380, Note_on_c, 2, 64, 88
6, 7555, Note_off_c, 2, 64, 0
6, 7560, Note_on_c, 2, 69, 88
6, 7735, Note_off_c, 2, 69, 0
6, 7740, Note_on_c, 2, 67, 88
6, 7915, Note_off_c, 2, 67, 0
6, 7920, Note_on_c, 2, 65, 88
6, 8338, Note_off_c, 2, 65, 0
6, 8340, Note_on_c, 2, 64, 88
6, 8398, Note_off_c, 2, 64, 0
6, 8400, Note_on_c, 2, 65, 88
6, 8458, Note_off_c, 2, 65, 0
6, 8460, Note_on_c, 2, 64, 88
6, 8576, Note_off_c, 2, 64, 0
6, 8580, Note_on_c, 2, 62, 88
6, 8638, Note_off_c, 2, 62, 0
6, 8640, Note_on_c, 2, 60, 88
6, 8934, Note_off_c, 2, 60, 0
6, 8940, Note_on_c, 2, 67, 88
6, 9116, Note_off_c, 2, 67, 0
6, 9120, Note_on_c, 2, 60, 88
6, 9178, Note_off_c, 2, 60, 0
6, 9180, Note_on_c, 2, 65, 88
6, 9476, Note_off_c, 2, 65, 0
6, 9480, Note_on_c, 2, 59, 88
6, 9538, Note_off_c, 2, 59, 0
6, 9540, Note_on_c, 2, 60, 88
6, 9598, Note_off_c, 2, 60, 0
6, 9600, Note_on_c, 2, 62, 88
6, 9658, Note_off_c, 2, 62, 0
6, 9660, Note_on_c, 2, 64, 88
6, 9718, Note_off_c, 2, 64, 0
6, 9720, Note_on_c, 2, 65, 88
6, 9778, Note_off_c, 2, 65, 0
6, 9780, Note_on_c, 2, 67, 88
6, 9838, Note_off_c, 2, 67, 0
6, 9840, Note_on_c, 2, 69, 88
6, 9898, Note_off_c, 2, 69, 0
6, 9900, Note_on_c, 2, 62, 88
6, 10075, Note_off_c, 2, 62, 0
6, 10080, Note_on_c, 2, 64, 88
6, 10138, Note_off_c, 2, 64, 0
6, 10140, Note_on_c, 2, 67, 88
6, 10198, Note_off_c, 2, 67, 0
6, 10200, Note_on_c, 2, 65, 88
6, 10258, Note_off_c, 2, 65, 0
6, 10260, Note_on_c, 2, 64, 88
6, 10318, Note_off_c, 2, 64, 0
6, 10320, Note_on_c, 2, 65, 88
6, 10378, Note_off_c, 2, 65, 0
6, 10380, Note_on_c, 2, 62, 88
6, 10438, Note_off_c, 2, 62, 0
6, 10440, Note_on_c, 2, 60, 88
6, 10556, Note_off_c, 2, 60, 0
6, 10800, Note_on_c, 2, 62, 88
6, 10858, Note_off_c, 2, 62, 0
6, 10860, Note_on_c, 2, 60, 88
6, 10918, Note_off_c, 2, 60, 0
6, 10920, Note_on_c, 2, 59, 88
6, 10978, Note_off_c, 2, 59, 0
6, 10980, Note_on_c, 2, 57, 88
6, 11038, Note_off_c, 2, 57, 0
6, 11040, Note_on_c, 2, 58, 88
6, 11098, Note_off_c, 2, 58, 0
6, 11100, Note_on_c, 2, 55, 88
6, 11158, Note_off_c, 2, 55, 0
6, 11160, Note_on_c, 2, 53, 88
6, 11218, Note_off_c, 2, 53, 0
6, 11220, Note_on_c, 2, 52, 88
6, 11278, Note_off_c, 2, 52, 0
6, 11280, Note_on_c, 2, 50, 88
6, 11338, Note_off_c, 2, 50, 0
6, 11340, Note_on_c, 2, 55, 88
6, 11695, Note_off_c, 2, 55, 0
6, 11700, Note_on_c, 2, 53, 88
6, 11758, Note_off_c, 2, 53, 0
6, 11760, Note_on_c, 2, 52, 88
6, 11818, Note_off_c, 2, 52, 0
6, 11820, Note_on_c, 2, 50, 88
6, 11878, Note_off_c, 2, 50, 0
6, 11880, Note_on_c, 2, 52, 88
6, 11938, Note_off_c, 2, 52, 0
6, 11940, Note_on_c, 2, 54, 88
6, 11998, Note_off_c, 2, 54, 0
6, 12000, Note_on_c, 2, 56, 88
6, 12058, Note_off_c, 2, 56, 0
6, 12060, Note_on_c, 2, 57, 88
6, 12176, Note_off_c, 2, 57, 0
6, 12420, Note_on_c, 2, 55, 88
6, 12478, Note_off_c, 2, 55, 0
6, 12480, Note_on_c, 2, 57, 88
6, 12538, Note_off_c, 2, 57, 0
6, 12540, Note_on_c, 2, 58, 88
6, 12598, Note_off_c, 2, 58, 0
6, 12600, Note_on_c, 2, 60, 88
6, 13135, Note_off_c, 2, 60, 0
6, 13140, Note_on_c, 2, 58, 88
6, 13198, Note_off_c, 2, 58, 0
6, 13200, Note_on_c, 2, 57, 88
6, 13258, Note_off_c, 2, 57, 0
6, 13260, Note_on_c, 2, 55, 88
6, 13318, Note_off_c, 2, 55, 0
6, 13320, Note_on_c, 2, 57, 88
6, 13378, Note_off_c, 2, 57, 0
6, 13380, Note_on_c, 2, 59, 88
6, 13438, Note_off_c, 2, 59, 0
6, 13440, Note_on_c, 2, 61, 88
6, 13498, Note_off_c, 2, 61, 0
6, 13500, Note_on_c, 2, 62, 88
6, 13738, Note_off_c, 2, 62, 0
6, 13740, Note_on_c, 2, 60, 88
6, 13798, Note_off_c, 2, 60, 0
6, 13800, Note_on_c, 2, 58, 88
6, 13858, Note_off_c, 2, 58, 0
6, 13860, Note_on_c, 2, 60, 88
6, 14098, Note_off_c, 2, 60, 0
6, 14100, Note_on_c, 2, 62, 88
6, 14158, Note_off_c, 2, 62, 0
6, 14160, Note_on_c, 2, 64, 88
6, 14218, Note_off_c, 2, 64, 0
6, 14220, Note_on_c, 2, 65, 88
6, 14458, Note_off_c, 2, 65, 0
6, 14460, Note_on_c, 2, 64, 88
6, 14518, Note_off_c, 2, 64, 0
6, 14520, Note_on_c, 2, 62, 88
6, 14578, Note_off_c, 2, 62, 0
6, 14580, Note_on_c, 2, 64, 88
6, 14818, Note_off_c, 2, 64, 0
6, 14820, Note_on_c, 2, 65, 88
6, 14878, Note_off_c, 2, 65, 0
6, 14880, Note_on_c, 2, 67, 88
6, 14938, Note_off_c, 2, 67, 0
6, 14940, Note_on_c, 2, 69, 88
6, 15178, Note_off_c, 2, 69, 0
6, 15180, Note_on_c, 2, 67, 88
6, 15238, Note_off_c, 2, 67, 0
6, 15240, Note_on_c, 2, 65, 88
6, 15298, Note_off_c, 2, 65, 0
6, 15300, Note_on_c, 2, 67, 88
6, 15538, Note_off_c, 2, 67, 0
6, 15540, Note_on_c, 2, 69, 88
6, 15598, Note_off_c, 2, 69, 0
6, 15600, Note_on_c, 2, 71, 88
6, 15658, Note_off_c, 2, 71, 0
6, 15660, Note_on_c, 2, 72, 88
6, 15776, Note_off_c, 2, 72, 0
6, 16320, Note_on_c, 2, 74, 88
6, 16378, Note_off_c, 2, 74, 0
6, 16380, Note_on_c, 2, 71, 88
6, 16496, Note_off_c, 2, 71, 0
6, 16500, Note_on_c, 2, 67, 88
6, 16676, Note_off_c, 2, 67, 0
6, 16680, Note_on_c, 2, 72, 88
6, 16738, Note_off_c, 2, 72, 0
6, 16740, Note_on_c, 2, 71, 88
6, 16798, Note_off_c, 2, 71, 0
6, 16800, Note_on_c, 2, 72, 88
6, 16858, Note_off_c, 2, 72, 0
6, 16860, Note_on_c, 2, 74, 88
6, 16918, Note_off_c, 2, 74, 0
6, 16920, Note_on_c, 2, 72, 88
6, 16978, Note_off_c, 2, 72, 0
6, 16980, Note_on_c, 2, 74, 88
6, 17038, Note_off_c, 2, 74, 0
6, 17040, Note_on_c, 2, 75, 88
6, 17098, Note_off_c, 2, 75, 0
6, 17100, Note_on_c, 2, 69, 88
6, 17396, Note_off_c, 2, 69, 0
6, 17400, Note_on_c, 2, 67, 88
6, 17441, Note_off_c, 2, 67, 0
6, 17460, Note_on_c, 2, 67, 88
6, 17576, Note_off_c, 2, 67, 0
6, 17580, Note_on_c, 2, 66, 88
6, 17638, Note_off_c, 2, 66, 0
6, 17640, Note_on_c, 2, 67, 88
6, 17993, Note_off_c, 2, 67, 0
6, 18000, Note_on_c, 2, 65, 88
6, 18116, Note_off_c, 2, 65, 0
6, 18120, Note_on_c, 2, 67, 88
6, 18178, Note_off_c, 2, 67, 0
6, 18180, Note_on_c, 2, 69, 88
6, 18296, Note_off_c, 2, 69, 0
6, 18540, Note_on_c, 2, 53, 88
6, 18598, Note_off_c, 2, 53, 0
6, 18600, Note_on_c, 2, 52, 88
6, 18658, Note_off_c, 2, 52, 0
6, 18660, Note_on_c, 2, 53, 88
6, 18718, Note_off_c, 2, 53, 0
6, 18720, Note_on_c, 2, 60, 88
6, 18836, Note_off_c, 2, 60, 0
6, 18900, Note_on_c, 2, 57, 88
6, 18958, Note_off_c, 2, 57, 0
6, 18960, Note_on_c, 2, 55, 88
6, 19018, Note_off_c, 2, 55, 0
6, 19020, Note_on_c, 2, 57, 88
6, 19078, Note_off_c, 2, 57, 0
6, 19080, Note_on_c, 2, 62, 88
6, 19196, Note_off_c, 2, 62, 0
6, 19260, Note_on_c, 2, 60, 88
6, 19318, Note_off_c, 2, 60, 0
6, 19320, Note_on_c, 2, 62, 88
6, 19378, Note_off_c, 2, 62, 0
6, 19380, Note_on_c, 2, 64, 88
6, 19438, Note_off_c, 2, 64, 0
6, 19440, Note_on_c, 2, 65, 88
6, 19498, Note_off_c, 2, 65, 0
6, 19500, Note_on_c, 2, 64, 88
6, 19558, Note_off_c, 2, 64, 0
6, 19560, Note_on_c, 2, 62, 88
6, 19618, Note_off_c, 2, 62, 0
6, 19620, Note_on_c, 2, 60, 88
6, 19678, Note_off_c, 2, 60, 0
6, 19680, Note_on_c, 2, 62, 88
6, 19738, Note_off_c, 2, 62, 0
6, 19740, Note_on_c, 2, 58, 88
6, 19798, Note_off_c, 2, 58, 0
6, 19800, Note_on_c, 2, 57, 88
6, 19858, Note_off_c, 2, 57, 0
6, 19860, Note_on_c, 2, 55, 88
6, 19918, Note_off_c, 2, 55, 0
6, 19920, Note_on_c, 2, 53, 88
6, 19978, Note_off_c, 2, 53, 0
6, 19980, Note_on_c, 2, 58, 88
6, 20218, Note_off_c, 2, 58, 0
6, 20220, Note_on_c, 2, 57, 88
6, 20278, Note_off_c, 2, 57, 0
6, 20280, Note_on_c, 2, 55, 88
6, 20338, Note_off_c, 2, 55, 0
6, 20340, Note_on_c, 2, 57, 88
6, 20578, Note_off_c, 2, 57, 0
6, 20580, Note_on_c, 2, 58, 88
6, 20638, Note_off_c, 2, 58, 0
6, 20640, Note_on_c, 2, 60, 88
6, 20698, Note_off_c, 2, 60, 0
6, 20700, Note_on_c, 2, 62, 88
6, 20938, Note_off_c, 2, 62, 0
6, 20940, Note_on_c, 2, 63, 88
6, 20998, Note_off_c, 2, 63, 0
6, 21000, Note_on_c, 2, 65, 88
6, 21058, Note_off_c, 2, 65, 0
6, 21060, Note_on_c, 2, 67, 88
6, 21298, Note_off_c, 2, 67, 0
6, 21300, Note_on_c, 2, 69, 88
6, 21358, Note_off_c, 2, 69, 0
6, 21360, Note_on_c, 2, 70, 88
6, 21418, Note_off_c, 2, 70, 0
6, 21420, Note_on_c, 2, 72, 88
6, 21536, Note_off_c, 2, 72, 0
6, 21540, Note_on_c, 2, 70, 88
6, 21598, Note_off_c, 2, 70, 0
6, 21600, Note_on_c, 2, 69, 88
6, 21775, Note_off_c, 2, 69, 0
6, 21780, Note_on_c, 2, 70, 88
6, 22018, Note_off_c, 2, 70, 0
6, 22020, Note_on_c, 2, 69, 88
6, 22078, Note_off_c, 2, 69, 0
6, 22080, Note_on_c, 2, 67, 88
6, 22138, Note_off_c, 2, 67, 0
6, 22140, Note_on_c, 2, 69, 88
6, 22378, Note_off_c, 2, 69, 0
6, 22380, Note_on_c, 2, 67, 88
6, 22438, Note_off_c, 2, 67, 0
6, 22440, Note_on_c, 2, 65, 88
6, 22498, Note_off_c, 2, 65, 0
6, 22500, Note_on_c, 2, 67, 88
6, 22738, Note_off_c, 2, 67, 0
6, 22740, Note_on_c, 2, 65, 88
6, 22798, Note_off_c, 2, 65, 0
6, 22800, Note_on_c, 2, 64, 88
6, 22858, Note_off_c, 2, 64, 0
6, 22860, Note_on_c, 2, 65, 88
6, 23098, Note_off_c, 2, 65, 0
6, 23100, Note_on_c, 2, 63, 88
6, 23158, Note_off_c, 2, 63, 0
6, 23160, Note_on_c, 2, 62, 88
6, 23218, Note_off_c, 2, 62, 0
6, 23220, Note_on_c, 2, 63, 88
6, 23458, Note_off_c, 2, 63, 0
6, 23460, Note_on_c, 2, 62, 88
6, 23518, Note_off_c, 2, 62, 0
6, 23520, Note_on_c, 2, 60, 88
6, 23578, Note_off_c, 2, 60, 0
6, 23580, Note_on_c, 2, 62, 88
6, 23755, Note_off_c, 2, 62, 0
6, 23760, Note_on_c, 2, 60, 88
6, 23935, Note_off_c, 2, 60, 0
6, 23940, Note_on_c, 2, 65, 88
6, 24178, Note_off_c, 2, 65, 0
6, 24180, Note_on_c, 2, 62, 88
6, 24238, Note_off_c, 2, 62, 0
6, 24240, Note_on_c, 2, 63, 88
6, 24298, Note_off_c, 2, 63, 0
6, 25020, Note_on_c, 2, 62, 88
6, 25078, Note_off_c, 2, 62, 0
6, 25080, Note_on_c, 2, 63, 88
6, 25138, Note_off_c, 2, 63, 0
6, 25140, Note_on_c, 2, 65, 88
6, 25198, Note_off_c, 2, 65, 0
6, 25200, Note_on_c, 2, 67, 88
6, 25258, Note_off_c, 2, 67, 0
6, 25260, Note_on_c, 2, 65, 88
6, 25318, Note_off_c, 2, 65, 0
6, 25320, Note_on_c, 2, 68, 88
6, 25378, Note_off_c, 2, 68, 0
6, 25380, Note_on_c, 2, 67, 88
6, 25438, Note_off_c, 2, 67, 0
6, 25440, Note_on_c, 2, 68, 88
6, 25498, Note_off_c, 2, 68, 0
6, 25500, Note_on_c, 2, 65, 88
6, 25558, Note_off_c, 2, 65, 0
6, 25560, Note_on_c, 2, 64, 88
6, 25618, Note_off_c, 2, 64, 0
6, 25620, Note_on_c, 2, 65, 88
6, 25678, Note_off_c, 2, 65, 0
6, 25680, Note_on_c, 2, 67, 88
6, 25738, Note_off_c, 2, 67, 0
6, 25740, Note_on_c, 2, 60, 88
6, 25978, Note_off_c, 2, 60, 0
6, 25980, Note_on_c, 2, 56, 88
6, 26038, Note_off_c, 2, 56, 0
6, 26040, Note_on_c, 2, 58, 88
6, 26081, Note_off_c, 2, 58, 0
6, 26100, Note_on_c, 2, 58, 88
6, 26338, Note_off_c, 2, 58, 0
6, 26340, Note_on_c, 2, 55, 88
6, 26398, Note_off_c, 2, 55, 0
6, 26400, Note_on_c, 2, 56, 88
6, 26441, Note_off_c, 2, 56, 0
6, 26460, Note_on_c, 2, 56, 88
6, 26698, Note_off_c, 2, 56, 0
6, 26700, Note_on_c, 2, 53, 88
6, 26758, Note_off_c, 2, 53, 0
6, 26760, Note_on_c, 2, 55, 88
6, 26801, Note_off_c, 2, 55, 0
6, 26820, Note_on_c, 2, 55, 88
6, 27058, Note_off_c, 2, 55, 0
6, 27060, Note_on_c, 2, 59, 88
6, 27118, Note_off_c, 2, 59, 0
6, 27120, Note_on_c, 2, 60, 88
6, 27236, Note_off_c, 2, 60, 0
6, 27240, Note_on_c, 2, 64, 88
6, 27298, Note_off_c, 2, 64, 0
6, 27300, Note_on_c, 2, 65, 88
6, 27358, Note_off_c, 2, 65, 0
6, 27360, Note_on_c, 2, 58, 88
6, 27594, Note_off_c, 2, 58, 0
6, 27600, Note_on_c, 2, 52, 88
6, 27658, Note_off_c, 2, 52, 0
6, 27660, Note_on_c, 2, 55, 88
6, 27718, Note_off_c, 2, 55, 0
6, 27720, Note_on_c, 2, 56, 88
6, 28138, Note_off_c, 2, 56, 0
6, 28140, Note_on_c, 2, 55, 88
6, 28198, Note_off_c, 2, 55, 0
6, 28200, Note_on_c, 2, 53, 88
6, 28258, Note_off_c, 2, 53, 0
6, 28260, Note_on_c, 2, 52, 88
6, 28318, Note_off_c, 2, 52, 0
6, 28320, Note_on_c, 2, 55, 88
6, 28378, Note_off_c, 2, 55, 0
6, 28380, Note_on_c, 2, 58, 88
6, 28498, Note_off_c, 2, 58, 0
6, 28500, Note_on_c, 2, 56, 88
6, 28558, Note_off_c, 2, 56, 0
6, 28560, Note_on_c, 2, 55, 88
6, 28618, Note_off_c, 2, 55, 0
6, 28620, Note_on_c, 2, 53, 88
6, 28678, Note_off_c, 2, 53, 0
6, 28680, Note_on_c, 2, 56, 88
6, 28738, Note_off_c, 2, 56, 0
6, 28740, Note_on_c, 2, 60, 88
6, 28858, Note_off_c, 2, 60, 0
6, 28860, Note_on_c, 2, 58, 88
6, 28918, Note_off_c, 2, 58, 0
6, 28920, Note_on_c, 2, 56, 88
6, 28978, Note_off_c, 2, 56, 0
6, 28980, Note_on_c, 2, 55, 88
6, 29038, Note_off_c, 2, 55, 0
6, 29040, Note_on_c, 2, 56, 88
6, 29098, Note_off_c, 2, 56, 0
6, 29100, Note_on_c, 2, 53, 88
6, 29158, Note_off_c, 2, 53, 0
6, 29160, Note_on_c, 2, 52, 88
6, 29276, Note_off_c, 2, 52, 0
6, 30480, Note_on_c, 2, 60, 88
6, 30538, Note_off_c, 2, 60, 0
6, 30540, Note_on_c, 2, 59, 88
6, 30598, Note_off_c, 2, 59, 0
6, 30600, Note_on_c, 2, 60, 88
6, 30716, Note_off_c, 2, 60, 0
6, 30780, Note_on_c, 2, 60, 88
6, 30896, Note_off_c, 2, 60, 0
6, 30960, Note_on_c, 2, 61, 88
6, 31076, Note_off_c, 2, 61, 0
6, 31440, Note_on_c, 2, 70, 88
6, 31498, Note_off_c, 2, 70, 0
6, 31500, Note_on_c, 2, 69, 88
6, 31616, Note_off_c, 2, 69, 0
6, 31620, Note_on_c, 2, 67, 88
6, 31678, Note_off_c, 2, 67, 0
6, 31680, Note_on_c, 2, 65, 88
6, 31738, Note_off_c, 2, 65, 0
6, 31920, Note_on_c, 2, 69, 88
6, 31978, Note_off_c, 2, 69, 0
6, 31980, Note_on_c, 2, 63, 88
6, 32038, Note_off_c, 2, 63, 0
6, 32040, Note_on_c, 2, 63, 88
6, 32098, Note_off_c, 2, 63, 0
6, 32100, Note_on_c, 2, 62, 88
6, 32129, Note_off_c, 2, 62, 0
6, 32130, Note_on_c, 2, 65, 88
6, 32159, Note_off_c, 2, 65, 0
6, 32160, Note_on_c, 2, 67, 88
6, 32189, Note_off_c, 2, 67, 0
6, 32190, Note_on_c, 2, 69, 88
6, 32219, Note_off_c, 2, 69, 0
6, 32220, Note_on_c, 2, 70, 88
6, 32278, Note_off_c, 2, 70, 0
6, 32280, Note_on_c, 2, 62, 88
6, 32338, Note_off_c, 2, 62, 0
6, 32340, Note_on_c, 2, 65, 88
6, 32398, Note_off_c, 2, 65, 0
6, 32400, Note_on_c, 2, 65, 88
6, 32458, Note_off_c, 2, 65, 0
6, 32460, Note_on_c, 2, 64, 88
6, 32621, Note_off_c, 2, 64, 0
6, 32640, Note_on_c, 2, 64, 88
6, 32698, Note_off_c, 2, 64, 0
6, 32700, Note_on_c, 2, 67, 88
6, 32758, Note_off_c, 2, 67, 0
6, 32760, Note_on_c, 2, 67, 88
6, 32818, Note_off_c, 2, 67, 0
6, 32820, Note_on_c, 2, 65, 88
6, 32966, Note_off_c, 2, 65, 0
6, 32970, Note_on_c, 2, 72, 88
6, 32999, Note_off_c, 2, 72, 0
6, 33000, Note_on_c, 2, 70, 88
6, 33029, Note_off_c, 2, 70, 0
6, 33030, Note_on_c, 2, 69, 88
6, 33059, Note_off_c, 2, 69, 0
6, 33060, Note_on_c, 2, 67, 88
6, 33089, Note_off_c, 2, 67, 0
6, 33090, Note_on_c, 2, 65, 88
6, 33119, Note_off_c, 2, 65, 0
6, 33120, Note_on_c, 2, 67, 88
6, 33178, Note_off_c, 2, 67, 0
6, 33780, Note_on_c, 2, 64, 88
6, 33838, Note_off_c, 2, 64, 0
6, 33840, Note_on_c, 2, 65, 88
6, 33956, Note_off_c, 2, 65, 0
6, 33960, Note_on_c, 2, 70, 88
6, 34018, Note_off_c, 2, 70, 0
6, 34020, Note_on_c, 2, 69, 88
6, 34078, Note_off_c, 2, 69, 0
6, 34080, Note_on_c, 2, 70, 88
6, 34138, Note_off_c, 2, 70, 0
6, 34140, Note_on_c, 2, 72, 88
6, 34316, Note_off_c, 2, 72, 0
6, 34320, Note_on_c, 2, 65, 88
6, 34378, Note_off_c, 2, 65, 0
6, 34380, Note_on_c, 2, 70, 88
6, 34676, Note_off_c, 2, 70, 0
6, 34680, Note_on_c, 2, 67, 88
6, 34738, Note_off_c, 2, 67, 0
6, 34740, Note_on_c, 2, 72, 88
6, 34978, Note_off_c, 2, 72, 0
6, 34980, Note_on_c, 2, 69, 88
6, 35038, Note_off_c, 2, 69, 0
6, 35040, Note_on_c, 2, 70, 88
6, 35098, Note_off_c, 2, 70, 0
6, 35100, Note_on_c, 2, 65, 88
6, 35216, Note_off_c, 2, 65, 0
6, 35220, Note_on_c, 2, 64, 88
6, 35278, Note_off_c, 2, 64, 0
6, 35280, Note_on_c, 2, 65, 88
6, 35455, Note_off_c, 2, 65, 0
6, 35455, End_track
7, 0, Start_track
7, 0, Title_t, "Track 4"
7, 0, Program_c, 3, 6
7, 29700, Note_on_c, 3, 47, 88
7, 29875, Note_off_c, 3, 47, 0
7, 29880, Note_on_c, 3, 48, 88
7, 29996, Note_off_c, 3, 48, 0
7, 30000, Note_on_c, 3, 50, 88
7, 30058, Note_off_c, 3, 50, 0
7, 30060, Note_on_c, 3, 52, 88
7, 30176, Note_off_c, 3, 52, 0
7, 30180, Note_on_c, 3, 48, 88
7, 30238, Note_off_c, 3, 48, 0
7, 30240, Note_on_c, 3, 53, 88
7, 30356, Note_off_c, 3, 53, 0
7, 30360, Note_on_c, 3, 55, 88
7, 30418, Note_off_c, 3, 55, 0
7, 30420, Note_on_c, 3, 56, 88
7, 30595, Note_off_c, 3, 56, 0
7, 30600, Note_on_c, 3, 55, 88
7, 30716, Note_off_c, 3, 55, 0
7, 30780, Note_on_c, 3, 53, 88
7, 30896, Note_off_c, 3, 53, 0
7, 30960, Note_on_c, 3, 58, 88
7, 31076, Note_off_c, 3, 58, 0
7, 31076, End_track
8, 0, Start_track
8, 0, Title_t, "Track 5"
8, 0, Program_c, 4, 6
8, 4860, Note_on_c, 4, 53, 88
8, 4918, Note_off_c, 4, 53, 0
8, 4920, Note_on_c, 4, 52, 88
8, 4978, Note_off_c, 4, 52, 0
8, 4980, Note_on_c, 4, 53, 88
8, 5038, Note_off_c, 4, 53, 0
8, 5040, Note_on_c, 4, 60, 88
8, 5156, Note_off_c, 4, 60, 0
8, 5220, Note_on_c, 4, 57, 88
8, 5278, Note_off_c, 4, 57, 0
8, 5280, Note_on_c, 4, 55, 88
8, 5338, Note_off_c, 4, 55, 0
8, 5340, Note_on_c, 4, 57, 88
8, 5398, Note_off_c, 4, 57, 0
8, 5400, Note_on_c, 4, 62, 88
8, 5516, Note_off_c, 4, 62, 0
8, 5580, Note_on_c, 4, 60, 88
8, 5638, Note_off_c, 4, 60, 0
8, 5640, Note_on_c, 4, 62, 88
8, 5698, Note_off_c, 4, 62, 0
8, 5700, Note_on_c, 4, 64, 88
8, 5758, Note_off_c, 4, 64, 0
8, 5760, Note_on_c, 4, 65, 88
8, 5818, Note_off_c, 4, 65, 0
8, 5820, Note_on_c, 4, 64, 88
8, 5878, Note_off_c, 4, 64, 0
8, 5880, Note_on_c, 4, 62, 88
8, 5938, Note_off_c, 4, 62, 0
8, 5940, Note_on_c, 4, 60, 88
8, 5998, Note_off_c, 4, 60, 0
8, 6000, Note_on_c, 4, 62, 88
8, 6058, Note_off_c, 4, 62, 0
8, 6060, Note_on_c, 4, 58, 88
8, 6118, Note_off_c, 4, 58, 0
8, 6120, Note_on_c, 4, 57, 88
8, 6178, Note_off_c, 4, 57, 0
8, 6180, Note_on_c, 4, 55, 88
8, 6238, Note_off_c, 4, 55, 0
8, 6240, Note_on_c, 4, 53, 88
8, 6298, Note_off_c, 4, 53, 0
8, 6300, Note_on_c, 4, 58, 88
8, 6655, Note_off_c, 4, 58, 0
8, 6660, Note_on_c, 4, 57, 88
8, 6835, Note_off_c, 4, 57, 0
8, 6840, Note_on_c, 4, 55, 88
8, 6898, Note_off_c, 4, 55, 0
8, 6900, Note_on_c, 4, 53, 88
8, 6958, Note_off_c, 4, 53, 0
8, 6960, Note_on_c, 4, 52, 88
8, 7018, Note_off_c, 4, 52, 0
8, 7020, Note_on_c, 4, 50, 88
8, 7078, Note_off_c, 4, 50, 0
8, 7080, Note_on_c, 4, 52, 88
8, 7138, Note_off_c, 4, 52, 0
8, 7140, Note_on_c, 4, 48, 88
8, 7198, Note_off_c, 4, 48, 0
8, 7200, Note_on_c, 4, 47, 88
8, 7258, Note_off_c, 4, 47, 0
8, 7260, Note_on_c, 4, 45, 88
8, 7318, Note_off_c, 4, 45, 0
8, 7320, Note_on_c, 4, 43, 88
8, 7378, Note_off_c, 4, 43, 0
8, 7380, Note_on_c, 4, 48, 88
8, 7438, Note_off_c, 4, 48, 0
8, 7440, Note_on_c, 4, 47, 88
8, 7498, Note_off_c, 4, 47, 0
8, 7500, Note_on_c, 4, 48, 88
8, 7558, Note_off_c, 4, 48, 0
8, 7560, Note_on_c, 4, 53, 88
8, 7676, Note_off_c, 4, 53, 0
8, 7740, Note_on_c, 4, 52, 88
8, 7798, Note_off_c, 4, 52, 0
8, 7800, Note_on_c, 4, 50, 88
8, 7858, Note_off_c, 4, 50, 0
8, 7860, Note_on_c, 4, 52, 88
8, 7918, Note_off_c, 4, 52, 0
8, 7920, Note_on_c, 4, 57, 88
8, 8036, Note_off_c, 4, 57, 0
8, 8100, Note_on_c, 4, 55, 88
8, 8158, Note_off_c, 4, 55, 0
8, 8160, Note_on_c, 4, 57, 88
8, 8218, Note_off_c, 4, 57, 0
8, 8220, Note_on_c, 4, 59, 88
8, 8278, Note_off_c, 4, 59, 0
8, 8280, Note_on_c, 4, 60, 88
8, 8338, Note_off_c, 4, 60, 0
8, 8340, Note_on_c, 4, 59, 88
8, 8398, Note_off_c, 4, 59, 0
8, 8400, Note_on_c, 4, 57, 88
8, 8458, Note_off_c, 4, 57, 0
8, 8460, Note_on_c, 4, 55, 88
8, 8518, Note_off_c, 4, 55, 0
8, 8520, Note_on_c, 4, 57, 88
8, 8578, Note_off_c, 4, 57, 0
8, 8580, Note_on_c, 4, 53, 88
8, 8638, Note_off_c, 4, 53, 0
8, 8640, Note_on_c, 4, 52, 88
8, 8698, Note_off_c, 4, 52, 0
8, 8700, Note_on_c, 4, 53, 88
8, 8758, Note_off_c, 4, 53, 0
8, 8760, Note_on_c, 4, 50, 88
8, 8818, Note_off_c, 4, 50, 0
8, 8820, Note_on_c, 4, 48, 88
8, 8878, Note_off_c, 4, 48, 0
8, 8880, Note_on_c, 4, 50, 88
8, 8938, Note_off_c, 4, 50, 0
8, 8940, Note_on_c, 4, 52, 88
8, 8998, Note_off_c, 4, 52, 0
8, 9000, Note_on_c, 4, 53, 88
8, 9058, Note_off_c, 4, 53, 0
8, 9060, Note_on_c, 4, 55, 88
8, 9118, Note_off_c, 4, 55, 0
8, 9120, Note_on_c, 4, 52, 88
8, 9178, Note_off_c, 4, 52, 0
8, 9180, Note_on_c, 4, 50, 88
8, 9238, Note_off_c, 4, 50, 0
8, 9240, Note_on_c, 4, 52, 88
8, 9298, Note_off_c, 4, 52, 0
8, 9300, Note_on_c, 4, 53, 88
8, 9358, Note_off_c, 4, 53, 0
8, 9360, Note_on_c, 4, 55, 88
8, 9418, Note_off_c, 4, 55, 0
8, 9420, Note_on_c, 4, 57, 88
8, 9478, Note_off_c, 4, 57, 0
8, 9480, Note_on_c, 4, 53, 88
8, 9538, Note_off_c, 4, 53, 0
8, 9540, Note_on_c, 4, 52, 88
8, 9598, Note_off_c, 4, 52, 0
8, 9600, Note_on_c, 4, 53, 88
8, 9658, Note_off_c, 4, 53, 0
8, 9660, Note_on_c, 4, 55, 88
8, 9718, Note_off_c, 4, 55, 0
8, 9720, Note_on_c, 4, 57, 88
8, 9778, Note_off_c, 4, 57, 0
8, 9780, Note_on_c, 4, 55, 88
8, 9838, Note_off_c, 4, 55, 0
8, 9840, Note_on_c, 4, 53, 88
8, 9898, Note_off_c, 4, 53, 0
8, 9900, Note_on_c, 4, 55, 88
8, 10016, Note_off_c, 4, 55, 0
8, 10020, Note_on_c, 4, 43, 88
8, 10078, Note_off_c, 4, 43, 0
8, 10080, Note_on_c, 4, 60, 88
8, 10138, Note_off_c, 4, 60, 0
8, 10140, Note_on_c, 4, 59, 88
8, 10198, Note_off_c, 4, 59, 0
8, 10200, Note_on_c, 4, 57, 88
8, 10258, Note_off_c, 4, 57, 0
8, 10260, Note_on_c, 4, 55, 88
8, 10318, Note_off_c, 4, 55, 0
8, 10320, Note_on_c, 4, 57, 88
8, 10378, Note_off_c, 4, 57, 0
8, 10380, Note_on_c, 4, 53, 88
8, 10438, Note_off_c, 4, 53, 0
8, 10440, Note_on_c, 4, 52, 88
8, 10498, Note_off_c, 4, 52, 0
8, 10500, Note_on_c, 4, 50, 88
8, 10558, Note_off_c, 4, 50, 0
8, 10560, Note_on_c, 4, 48, 88
8, 10618, Note_off_c, 4, 48, 0
8, 10620, Note_on_c, 4, 53, 88
8, 10975, Note_off_c, 4, 53, 0
8, 10980, Note_on_c, 4, 52, 88
8, 11155, Note_off_c, 4, 52, 0
8, 11160, Note_on_c, 4, 50, 88
8, 11335, Note_off_c, 4, 50, 0
8, 11340, Note_on_c, 4, 46, 88
8, 11515, Note_off_c, 4, 46, 0
8, 11520, Note_on_c, 4, 45, 88
8, 12114, Note_off_c, 4, 45, 0
8, 12120, Note_on_c, 4, 46, 88
8, 12178, Note_off_c, 4, 46, 0
8, 12180, Note_on_c, 4, 48, 88
8, 12238, Note_off_c, 4, 48, 0
8, 12240, Note_on_c, 4, 50, 88
8, 12298, Note_off_c, 4, 50, 0
8, 12300, Note_on_c, 4, 52, 88
8, 12358, Note_off_c, 4, 52, 0
8, 12360, Note_on_c, 4, 54, 88
8, 12418, Note_off_c, 4, 54, 0
8, 12420, Note_on_c, 4, 55, 88
8, 12536, Note_off_c, 4, 55, 0
8, 12540, Note_on_c, 4, 53, 88
8, 12598, Note_off_c, 4, 53, 0
8, 12600, Note_on_c, 4, 52, 88
8, 12775, Note_off_c, 4, 52, 0
8, 12780, Note_on_c, 4, 51, 88
8, 12955, Note_off_c, 4, 51, 0
8, 12960, Note_on_c, 4, 50, 88
8, 13554, Note_off_c, 4, 50, 0
8, 13560, Note_on_c, 4, 52, 88
8, 13618, Note_off_c, 4, 52, 0
8, 13620, Note_on_c, 4, 53, 88
8, 13678, Note_off_c, 4, 53, 0
8, 13680, Note_on_c, 4, 55, 88
8, 13855, Note_off_c, 4, 55, 0
8, 13860, Note_on_c, 4, 52, 88
8, 14035, Note_off_c, 4, 52, 0
8, 14040, Note_on_c, 4, 53, 88
8, 14274, Note_off_c, 4, 53, 0
8, 14280, Note_on_c, 4, 55, 88
8, 14338, Note_off_c, 4, 55, 0
8, 14340, Note_on_c, 4, 57, 88
8, 14398, Note_off_c, 4, 57, 0
8, 14400, Note_on_c, 4, 58, 88
8, 14575, Note_off_c, 4, 58, 0
8, 14580, Note_on_c, 4, 55, 88
8, 14755, Note_off_c, 4, 55, 0
8, 14760, Note_on_c, 4, 57, 88
8, 14994, Note_off_c, 4, 57, 0
8, 15000, Note_on_c, 4, 58, 88
8, 15058, Note_off_c, 4, 58, 0
8, 15060, Note_on_c, 4, 60, 88
8, 15118, Note_off_c, 4, 60, 0
8, 15120, Note_on_c, 4, 62, 88
8, 15295, Note_off_c, 4, 62, 0
8, 15300, Note_on_c, 4, 59, 88
8, 15475, Note_off_c, 4, 59, 0
8, 15480, Note_on_c, 4, 60, 88
8, 15714, Note_off_c, 4, 60, 0
8, 15720, Note_on_c, 4, 62, 88
8, 15778, Note_off_c, 4, 62, 0
8, 15780, Note_on_c, 4, 64, 88
8, 15838, Note_off_c, 4, 64, 0
8, 15840, Note_on_c, 4, 65, 88
8, 15898, Note_off_c, 4, 65, 0
8, 15900, Note_on_c, 4, 64, 88
8, 15958, Note_off_c, 4, 64, 0
8, 15960, Note_on_c, 4, 62, 88
8, 16018, Note_off_c, 4, 62, 0
8, 16020, Note_on_c, 4, 60, 88
8, 16078, Note_off_c, 4, 60, 0
8, 16080, Note_on_c, 4, 62, 88
8, 16138, Note_off_c, 4, 62, 0
8, 16140, Note_on_c, 4, 58, 88
8, 16198, Note_off_c, 4, 58, 0
8, 16200, Note_on_c, 4, 57, 88
8, 16258, Note_off_c, 4, 57, 0
8, 16260, Note_on_c, 4, 55, 88
8, 16318, Note_off_c, 4, 55, 0
8, 16320, Note_on_c, 4, 53, 88
8, 16378, Note_off_c, 4, 53, 0
8, 16380, Note_on_c, 4, 55, 88
8, 16438, Note_off_c, 4, 55, 0
8, 16440, Note_on_c, 4, 57, 88
8, 16498, Note_off_c, 4, 57, 0
8, 16500, Note_on_c, 4, 59, 88
8, 16558, Note_off_c, 4, 59, 0
8, 16560, Note_on_c, 4, 60, 88
8, 16618, Note_off_c, 4, 60, 0
8, 16620, Note_on_c, 4, 59, 88
8, 16678, Note_off_c, 4, 59, 0
8, 16680, Note_on_c, 4, 57, 88
8, 16738, Note_off_c, 4, 57, 0
8, 16740, Note_on_c, 4, 55, 88
8, 16798, Note_off_c, 4, 55, 0
8, 16800, Note_on_c, 4, 56, 88
8, 16858, Note_off_c, 4, 56, 0
8, 16860, Note_on_c, 4, 53, 88
8, 16918, Note_off_c, 4, 53, 0
8, 16920, Note_on_c, 4, 51, 88
8, 16978, Note_off_c, 4, 51, 0
8, 16980, Note_on_c, 4, 50, 88
8, 17038, Note_off_c, 4, 50, 0
8, 17040, Note_on_c, 4, 48, 88
8, 17098, Note_off_c, 4, 48, 0
8, 17100, Note_on_c, 4, 50, 88
8, 17158, Note_off_c, 4, 50, 0
8, 17160, Note_on_c, 4, 52, 88
8, 17218, Note_off_c, 4, 52, 0
8, 17220, Note_on_c, 4, 54, 88
8, 17278, Note_off_c, 4, 54, 0
8, 17280, Note_on_c, 4, 55, 88
8, 17338, Note_off_c, 4, 55, 0
8, 17340, Note_on_c, 4, 53, 88
8, 17398, Note_off_c, 4, 53, 0
8, 17400, Note_on_c, 4, 51, 88
8, 17458, Note_off_c, 4, 51, 0
8, 17460, Note_on_c, 4, 50, 88
8, 17518, Note_off_c, 4, 50, 0
8, 17520, Note_on_c, 4, 51, 88
8, 17578, Note_off_c, 4, 51, 0
8, 17580, Note_on_c, 4, 48, 88
8, 17638, Note_off_c, 4, 48, 0
8, 17640, Note_on_c, 4, 46, 88
8, 17698, Note_off_c, 4, 46, 0
8, 17700, Note_on_c, 4, 45, 88
8, 17758, Note_off_c, 4, 45, 0
8, 17760, Note_on_c, 4, 43, 88
8, 17818, Note_off_c, 4, 43, 0
8, 17820, Note_on_c, 4, 45, 88
8, 17878, Note_off_c, 4, 45, 0
8, 17880, Note_on_c, 4, 47, 88
8, 17938, Note_off_c, 4, 47, 0
8, 17940, Note_on_c, 4, 49, 88
8, 17998, Note_off_c, 4, 49, 0
8, 18000, Note_on_c, 4, 50, 88
8, 18058, Note_off_c, 4, 50, 0
8, 18060, Note_on_c, 4, 48, 88
8, 18118, Note_off_c, 4, 48, 0
8, 18120, Note_on_c, 4, 46, 88
8, 18178, Note_off_c, 4, 46, 0
8, 18180, Note_on_c, 4, 45, 88
8, 18238, Note_off_c, 4, 45, 0
8, 18240, Note_on_c, 4, 46, 88
8, 18298, Note_off_c, 4, 46, 0
8, 18300, Note_on_c, 4, 43, 88
8, 18358, Note_off_c, 4, 43, 0
8, 18360, Note_on_c, 4, 41, 88
8, 18418, Note_off_c, 4, 41, 0
8, 18420, Note_on_c, 4, 40, 88
8, 18478, Note_off_c, 4, 40, 0
8, 18480, Note_on_c, 4, 38, 88
8, 18538, Note_off_c, 4, 38, 0
8, 18540, Note_on_c, 4, 50, 88
8, 18656, Note_off_c, 4, 50, 0
8, 18720, Note_on_c, 4, 52, 88
8, 18836, Note_off_c, 4, 52, 0
8, 18900, Note_on_c, 4, 51, 88
8, 19016, Note_off_c, 4, 51, 0
8, 19080, Note_on_c, 4, 50, 88
8, 19138, Note_off_c, 4, 50, 0
8, 19140, Note_on_c, 4, 52, 88
8, 19198, Note_off_c, 4, 52, 0
8, 19200, Note_on_c, 4, 53, 88
8, 19258, Note_off_c, 4, 53, 0
8, 19260, Note_on_c, 4, 52, 88
8, 19318, Note_off_c, 4, 52, 0
8, 19320, Note_on_c, 4, 53, 88
8, 19378, Note_off_c, 4, 53, 0
8, 19380, Note_on_c, 4, 55, 88
8, 19438, Note_off_c, 4, 55, 0
8, 19440, Note_on_c, 4, 45, 88
8, 19556, Note_off_c, 4, 45, 0
8, 19560, Note_on_c, 4, 46, 88
8, 19618, Note_off_c, 4, 46, 0
8, 19620, Note_on_c, 4, 48, 88
8, 19736, Note_off_c, 4, 48, 0
8, 19740, Note_on_c, 4, 49, 88
8, 19798, Note_off_c, 4, 49, 0
8, 19800, Note_on_c, 4, 50, 88
8, 20034, Note_off_c, 4, 50, 0
8, 20040, Note_on_c, 4, 48, 88
8, 20098, Note_off_c, 4, 48, 0
8, 20100, Note_on_c, 4, 46, 88
8, 20158, Note_off_c, 4, 46, 0
8, 20160, Note_on_c, 4, 53, 88
8, 20454, Note_off_c, 4, 53, 0
8, 20460, Note_on_c, 4, 51, 88
8, 20518, Note_off_c, 4, 51, 0
8, 20520, Note_on_c, 4, 50, 88
8, 20636, Note_off_c, 4, 50, 0
8, 20640, Note_on_c, 4, 48, 88
8, 20698, Note_off_c, 4, 48, 0
8, 20700, Note_on_c, 4, 46, 88
8, 20816, Note_off_c, 4, 46, 0
8, 20820, Note_on_c, 4, 45, 88
8, 20878, Note_off_c, 4, 45, 0
8, 20880, Note_on_c, 4, 43, 88
8, 20996, Note_off_c, 4, 43, 0
8, 21000, Note_on_c, 4, 41, 88
8, 21058, Note_off_c, 4, 41, 0
8, 21060, Note_on_c, 4, 39, 88
8, 21176, Note_off_c, 4, 39, 0
8, 21180, Note_on_c, 4, 38, 88
8, 21238, Note_off_c, 4, 38, 0
8, 21240, Note_on_c, 4, 36, 88
8, 21474, Note_off_c, 4, 36, 0
8, 21480, Note_on_c, 4, 38, 88
8, 21538, Note_off_c, 4, 38, 0
8, 21540, Note_on_c, 4, 39, 88
8, 21598, Note_off_c, 4, 39, 0
8, 21600, Note_on_c, 4, 41, 88
8, 23156, Note_off_c, 4, 41, 0
8, 23580, Note_on_c, 4, 46, 88
8, 23638, Note_off_c, 4, 46, 0
8, 23640, Note_on_c, 4, 45, 88
8, 23698, Note_off_c, 4, 45, 0
8, 23700, Note_on_c, 4, 46, 88
8, 23758, Note_off_c, 4, 46, 0
8, 23760, Note_on_c, 4, 53, 88
8, 23876, Note_off_c, 4, 53, 0
8, 23940, Note_on_c, 4, 50, 88
8, 23998, Note_off_c, 4, 50, 0
8, 24000, Note_on_c, 4, 48, 88
8, 24058, Note_off_c, 4, 48, 0
8, 24060, Note_on_c, 4, 50, 88
8, 24118, Note_off_c, 4, 50, 0
8, 24120, Note_on_c, 4, 55, 88
8, 24236, Note_off_c, 4, 55, 0
8, 24300, Note_on_c, 4, 53, 88
8, 24358, Note_off_c, 4, 53, 0
8, 24360, Note_on_c, 4, 55, 88
8, 24418, Note_off_c, 4, 55, 0
8, 24420, Note_on_c, 4, 57, 88
8, 24478, Note_off_c, 4, 57, 0
8, 24480, Note_on_c, 4, 58, 88
8, 24538, Note_off_c, 4, 58, 0
8, 24540, Note_on_c, 4, 57, 88
8, 24598, Note_off_c, 4, 57, 0
8, 24600, Note_on_c, 4, 55, 88
8, 24658, Note_off_c, 4, 55, 0
8, 24660, Note_on_c, 4, 53, 88
8, 24718, Note_off_c, 4, 53, 0
8, 24720, Note_on_c, 4, 55, 88
8, 24778, Note_off_c, 4, 55, 0
8, 24780, Note_on_c, 4, 51, 88
8, 24838, Note_off_c, 4, 51, 0
8, 24840, Note_on_c, 4, 50, 88
8, 24898, Note_off_c, 4, 50, 0
8, 24900, Note_on_c, 4, 48, 88
8, 24958, Note_off_c, 4, 48, 0
8, 24960, Note_on_c, 4, 46, 88
8, 25018, Note_off_c, 4, 46, 0
8, 25020, Note_on_c, 4, 58, 88
8, 25078, Note_off_c, 4, 58, 0
8, 25080, Note_on_c, 4, 60, 88
8, 25138, Note_off_c, 4, 60, 0
8, 25140, Note_on_c, 4, 62, 88
8, 25198, Note_off_c, 4, 62, 0
8, 25200, Note_on_c, 4, 63, 88
8, 25258, Note_off_c, 4, 63, 0
8, 25260, Note_on_c, 4, 62, 88
8, 25318, Note_off_c, 4, 62, 0
8, 25320, Note_on_c, 4, 60, 88
8, 25378, Note_off_c, 4, 60, 0
8, 25380, Note_on_c, 4, 58, 88
8, 25438, Note_off_c, 4, 58, 0
8, 25440, Note_on_c, 4, 60, 88
8, 25498, Note_off_c, 4, 60, 0
8, 25500, Note_on_c, 4, 56, 88
8, 25558, Note_off_c, 4, 56, 0
8, 25560, Note_on_c, 4, 55, 88
8, 25676, Note_off_c, 4, 55, 0
8, 25680, Note_on_c, 4, 53, 88
8, 25738, Note_off_c, 4, 53, 0
8, 25740, Note_on_c, 4, 52, 88
8, 25856, Note_off_c, 4, 52, 0
8, 25860, Note_on_c, 4, 48, 88
8, 25918, Note_off_c, 4, 48, 0
8, 25920, Note_on_c, 4, 53, 88
8, 26036, Note_off_c, 4, 53, 0
8, 26100, Note_on_c, 4, 50, 88
8, 26216, Note_off_c, 4, 50, 0
8, 26280, Note_on_c, 4, 52, 88
8, 26396, Note_off_c, 4, 52, 0
8, 26460, Note_on_c, 4, 53, 88
8, 26576, Note_off_c, 4, 53, 0
8, 26640, Note_on_c, 4, 49, 88
8, 26756, Note_off_c, 4, 49, 0
8, 26820, Note_on_c, 4, 47, 88
8, 26936, Note_off_c, 4, 47, 0
8, 27000, Note_on_c, 4, 48, 88
8, 29218, Note_off_c, 4, 48, 0
8, 29220, Note_on_c, 4, 50, 88
8, 29278, Note_off_c, 4, 50, 0
8, 29280, Note_on_c, 4, 52, 88
8, 29338, Note_off_c, 4, 52, 0
8, 29340, Note_on_c, 4, 53, 88
8, 29398, Note_off_c, 4, 53, 0
8, 29400, Note_on_c, 4, 55, 88
8, 29458, Note_off_c, 4, 55, 0
8, 29460, Note_on_c, 4, 56, 88
8, 29518, Note_off_c, 4, 56, 0
8, 29520, Note_on_c, 4, 38, 88
8, 29873, Note_off_c, 4, 38, 0
8, 29880, Note_on_c, 4, 36, 88
8, 29996, Note_off_c, 4, 36, 0
8, 30180, Note_on_c, 4, 48, 88
8, 30356, Note_off_c, 4, 48, 0
8, 30600, Note_on_c, 4, 48, 88
8, 30716, Note_off_c, 4, 48, 0
8, 30780, Note_on_c, 4, 48, 88
8, 30896, Note_off_c, 4, 48, 0
8, 30960, Note_on_c, 4, 46, 88
8, 31018, Note_off_c, 4, 46, 0
8, 31020, Note_on_c, 4, 49, 88
8, 31078, Note_off_c, 4, 49, 0
8, 31080, Note_on_c, 4, 53, 88
8, 31138, Note_off_c, 4, 53, 0
8, 31140, Note_on_c, 4, 58, 88
8, 31198, Note_off_c, 4, 58, 0
8, 31200, Note_on_c, 4, 57, 88
8, 31258, Note_off_c, 4, 57, 0
8, 31260, Note_on_c, 4, 55, 88
8, 31318, Note_off_c, 4, 55, 0
8, 31320, Note_on_c, 4, 57, 88
8, 31436, Note_off_c, 4, 57, 0
8, 31440, Note_on_c, 4, 58, 88
8, 31498, Note_off_c, 4, 58, 0
8, 31500, Note_on_c, 4, 60, 88
8, 31616, Note_off_c, 4, 60, 0
8, 31620, Note_on_c, 4, 48, 88
8, 31678, Note_off_c, 4, 48, 0
8, 31680, Note_on_c, 4, 53, 88
8, 31796, Note_off_c, 4, 53, 0
8, 31860, Note_on_c, 4, 41, 88
8, 31918, Note_off_c, 4, 41, 0
8, 31920, Note_on_c, 4, 40, 88
8, 31978, Note_off_c, 4, 40, 0
8, 31980, Note_on_c, 4, 41, 88
8, 32038, Note_off_c, 4, 41, 0
8, 32040, Note_on_c, 4, 46, 88
8, 32156, Note_off_c, 4, 46, 0
8, 32220, Note_on_c, 4, 43, 88
8, 32278, Note_off_c, 4, 43, 0
8, 32280, Note_on_c, 4, 41, 88
8, 32338, Note_off_c, 4, 41, 0
8, 32340, Note_on_c, 4, 43, 88
8, 32398, Note_off_c, 4, 43, 0
8, 32400, Note_on_c, 4, 48, 88
8, 32516, Note_off_c, 4, 48, 0
8, 32580, Note_on_c, 4, 45, 88
8, 32638, Note_off_c, 4, 45, 0
8, 32640, Note_on_c, 4, 43, 88
8, 32698, Note_off_c, 4, 43, 0
8, 32700, Note_on_c, 4, 45, 88
8, 32758, Note_off_c, 4, 45, 0
8, 32760, Note_on_c, 4, 50, 88
8, 32876, Note_off_c, 4, 50, 0
8, 32940, Note_on_c, 4, 46, 88
8, 32998, Note_off_c, 4, 46, 0
8, 33000, Note_on_c, 4, 45, 88
8, 33058, Note_off_c, 4, 45, 0
8, 33060, Note_on_c, 4, 46, 88
8, 33118, Note_off_c, 4, 46, 0
8, 33120, Note_on_c, 4, 52, 88
8, 33236, Note_off_c, 4, 52, 0
8, 33300, Note_on_c, 4, 48, 88
8, 33358, Note_off_c, 4, 48, 0
8, 33360, Note_on_c, 4, 50, 88
8, 33418, Note_off_c, 4, 50, 0
8, 33420, Note_on_c, 4, 52, 88
8, 33478, Note_off_c, 4, 52, 0
8, 33480, Note_on_c, 4, 53, 88
8, 33538, Note_off_c, 4, 53, 0
8, 33540, Note_on_c, 4, 52, 88
8, 33598, Note_off_c, 4, 52, 0
8, 33600, Note_on_c, 4, 50, 88
8, 33658, Note_off_c, 4, 50, 0
8, 33660, Note_on_c, 4, 48, 88
8, 33718, Note_off_c, 4, 48, 0
8, 33720, Note_on_c, 4, 50, 88
8, 33778, Note_off_c, 4, 50, 0
8, 33780, Note_on_c, 4, 46, 88
8, 33838, Note_off_c, 4, 46, 0
8, 33840, Note_on_c, 4, 45, 88
8, 33898, Note_off_c, 4, 45, 0
8, 33900, Note_on_c, 4, 46, 88
8, 33958, Note_off_c, 4, 46, 0
8, 33960, Note_on_c, 4, 43, 88
8, 34018, Note_off_c, 4, 43, 0
8, 34020, Note_on_c, 4, 41, 88
8, 34078, Note_off_c, 4, 41, 0
8, 34080, Note_on_c, 4, 43, 88
8, 34138, Note_off_c, 4, 43, 0
8, 34140, Note_on_c, 4, 45, 88
8, 34198, Note_off_c, 4, 45, 0
8, 34200, Note_on_c, 4, 46, 88
8, 34258, Note_off_c, 4, 46, 0
8, 34260, Note_on_c, 4, 48, 88
8, 34318, Note_off_c, 4, 48, 0
8, 34320, Note_on_c, 4, 45, 88
8, 34378, Note_off_c, 4, 45, 0
8, 34380, Note_on_c, 4, 43, 88
8, 34438, Note_off_c, 4, 43, 0
8, 34440, Note_on_c, 4, 45, 88
8, 34498, Note_off_c, 4, 45, 0
8, 34500, Note_on_c, 4, 46, 88
8, 34558, Note_off_c, 4, 46, 0
8, 34560, Note_on_c, 4, 48, 88
8, 34618, Note_off_c, 4, 48, 0
8, 34620, Note_on_c, 4, 50, 88
8, 34678, Note_off_c, 4, 50, 0
8, 34680, Note_on_c, 4, 46, 88
8, 34738, Note_off_c, 4, 46, 0
8, 34740, Note_on_c, 4, 45, 88
8, 34798, Note_off_c, 4, 45, 0
8, 34800, Note_on_c, 4, 46, 88
8, 34858, Note_off_c, 4, 46, 0
8, 34860, Note_on_c, 4, 48, 88
8, 34918, Note_off_c, 4, 48, 0
8, 34920, Note_on_c, 4, 50, 88
8, 34978, Note_off_c, 4, 50, 0
8, 34980, Note_on_c, 4, 48, 88
8, 35038, Note_off_c, 4, 48, 0
8, 35040, Note_on_c, 4, 46, 88
8, 35098, Note_off_c, 4, 46, 0
8, 35100, Note_on_c, 4, 48, 88
8, 35216, Note_off_c, 4, 48, 0
8, 35220, Note_on_c, 4, 36, 88
8, 35278, Note_off_c, 4, 36, 0
8, 35280, Note_on_c, 4, 41, 88
8, 35455, Note_off_c, 4, 41, 0
8, 35455, End_track
0, 0, End_of_file
