0, 0, Header, 1, 6, 240
1, 0, Start_track
1, 0, Time_signature, 2, 2, 24, 8
1, 0, Tempo, 789473
1, 0, SMPTE_offset, 64, 0, 0, 0, 93
1, 0, End_track
2, 0, Start_track
2, 0, Title_t, "(C) & (P) 1993"
2, 127, End_track
3, 0, Start_track
3, 0, Title_t, "CCARH,Stanford"
3, 0, End_track
4, 0, Start_track
4, 0, Title_t, "Track 1"
4, 0, Program_c, 0, 6
4, 0, Note_on_c, 0, 72, 88
4, 116, Note_off_c, 0, 72, 0
4, 120, Note_on_c, 0, 65, 88
4, 142, Note_off_c, 0, 65, 0
4, 143, Note_on_c, 0, 64, 88
4, 172, Note_off_c, 0, 64, 0
4, 173, Note_on_c, 0, 65, 88
4, 221, Note_off_c, 0, 65, 0
4, 240, Note_on_c, 0, 65, 88
4, 341, Note_off_c, 0, 65, 0
4, 360, Note_on_c, 0, 65, 88
4, 476, Note_off_c, 0, 65, 0
4, 480, Note_on_c, 0, 73, 88
4, 538, Note_off_c, 0, 73, 0
4, 540, Note_on_c, 0, 70, 88
4, 598, Note_off_c, 0, 70, 0
4, 600, Note_on_c, 0, 64, 88
4, 701, Note_off_c, 0, 64, 0
4, 720, Note_on_c, 0, 64, 88
4, 821, Note_off_c, 0, 64, 0
4, 840, Note_on_c, 0, 64, 88
4, 898, Note_off_c, 0, 64, 0
4, 900, Note_on_c, 0, 65, 88
4, 958, Note_off_c, 0, 65, 0
4, 960, Note_on_c, 0, 67, 88
4, 1018, Note_off_c, 0, 67, 0
4, 1020, Note_on_c, 0, 68, 88
4, 1078, Note_off_c, 0, 68, 0
4, 1080, Note_on_c, 0, 70, 88
4, 1138, Note_off_c, 0, 70, 0
4, 1140, Note_on_c, 0, 68, 88
4, 1198, Note_off_c, 0, 68, 0
4, 1200, Note_on_c, 0, 67, 88
4, 1258, Note_off_c, 0, 67, 0
4, 1260, Note_on_c, 0, 68, 88
4, 1318, Note_off_c, 0, 68, 0
4, 1320, Note_on_c, 0, 70, 88
4, 1378, Note_off_c, 0, 70, 0
4, 1380, Note_on_c, 0, 73, 88
4, 1438, Note_off_c, 0, 73, 0
4, 1440, Note_on_c, 0, 72, 88
4, 1498, Note_off_c, 0, 72, 0
4, 1500, Note_on_c, 0, 70, 88
4, 1558, Note_off_c, 0, 70, 0
4, 1560, Note_on_c, 0, 68, 88
4, 1618, Note_off_c, 0, 68, 0
4, 1620, Note_on_c, 0, 67, 88
4, 1678, Note_off_c, 0, 67, 0
4, 1680, Note_on_c, 0, 65, 88
4, 1738, Note_off_c, 0, 65, 0
4, 1740, Note_on_c, 0, 67, 88
4, 1798, Note_off_c, 0, 67, 0
4, 1800, Note_on_c, 0, 68, 88
4, 1858, Note_off_c, 0, 68, 0
4, 1860, Note_on_c, 0, 70, 88
4, 1918, Note_off_c, 0, 70, 0
4, 1920, Note_on_c, 0, 72, 88
4, 1978, Note_off_c, 0, 72, 0
4, 1980, Note_on_c, 0, 74, 88
4, 2038, Note_off_c, 0, 74, 0
4, 2040, Note_on_c, 0, 75, 88
4, 2098, Note_off_c, 0, 75, 0
4, 2100, Note_on_c, 0, 74, 88
4, 2158, Note_off_c, 0, 74, 0
4, 2160, Note_on_c, 0, 72, 88
4, 2218, Note_off_c, 0, 72, 0
4, 2220, Note_on_c, 0, 74, 88
4, 2278, Note_off_c, 0, 74, 0
4, 2280, Note_on_c, 0, 75, 88
4, 2338, Note_off_c, 0, 75, 0
4, 2340, Note_on_c, 0, 79, 88
4, 2398, Note_off_c, 0, 79, 0
4, 2400, Note_on_c, 0, 77, 88
4, 2458, Note_off_c, 0, 77, 0
4, 2460, Note_on_c, 0, 75, 88
4, 2518, Note_off_c, 0, 75, 0
4, 2520, Note_on_c, 0, 74, 88
4, 2578, Note_off_c, 0, 74, 0
4, 2580, Note_on_c, 0, 72, 88
4, 2638, Note_off_c, 0, 72, 0
4, 2640, Note_on_c, 0, 71, 88
4, 2698, Note_off_c, 0, 71, 0
4, 2700, Note_on_c, 0, 69, 88
4, 2758, Note_off_c, 0, 69, 0
4, 2760, Note_on_c, 0, 67, 88
4, 2818, Note_off_c, 0, 67, 0
4, 2820, Note_on_c, 0, 69, 88
4, 2878, Note_off_c, 0, 69, 0
4, 2880, Note_on_c, 0, 71, 88
4, 2938, Note_off_c, 0, 71, 0
4, 2940, Note_on_c, 0, 72, 88
4, 2998, Note_off_c, 0, 72, 0
4, 3000, Note_on_c, 0, 74, 88
4, 3116, Note_off_c, 0, 74, 0
4, 3120, Note_on_c, 0, 77, 88
4, 3236, Note_off_c, 0, 77, 0
4, 3240, Note_on_c, 0, 80, 88
4, 3356, Note_off_c, 0, 80, 0
4, 3360, Note_on_c, 0, 71, 88
4, 3476, Note_off_c, 0, 71, 0
4, 3480, Note_on_c, 0, 72, 88
4, 3596, Note_off_c, 0, 72, 0
4, 3600, Note_on_c, 0, 75, 88
4, 3716, Note_off_c, 0, 75, 0
4, 3720, Note_on_c, 0, 79, 88
4, 3836, Note_off_c, 0, 79, 0
4, 3840, Note_on_c, 0, 84, 88
4, 3956, Note_off_c, 0, 84, 0
4, 3960, Note_on_c, 0, 73, 88
4, 4076, Note_off_c, 0, 73, 0
4, 4080, Note_on_c, 0, 84, 88
4, 4196, Note_off_c, 0, 84, 0
4, 4200, Note_on_c, 0, 82, 88
4, 4316, Note_off_c, 0, 82, 0
4, 4320, Note_on_c, 0, 73, 88
4, 4436, Note_off_c, 0, 73, 0
4, 4440, Note_on_c, 0, 72, 88
4, 4556, Note_off_c, 0, 72, 0
4, 4560, Note_on_c, 0, 75, 88
4, 4676, Note_off_c, 0, 75, 0
4, 4680, Note_on_c, 0, 80, 88
4, 4796, Note_off_c, 0, 80, 0
4, 4800, Note_on_c, 0, 72, 88
4, 4916, Note_off_c, 0, 72, 0
4, 4920, Note_on_c, 0, 70, 88
4, 5036, Note_off_c, 0, 70, 0
4, 5040, Note_on_c, 0, 80, 88
4, 5156, Note_off_c, 0, 80, 0
4, 5160, Note_on_c, 0, 79, 88
4, 5276, Note_off_c, 0, 79, 0
4, 5280, Note_on_c, 0, 70, 88
4, 5396, Note_off_c, 0, 70, 0
4, 5400, Note_on_c, 0, 68, 88
4, 5458, Note_off_c, 0, 68, 0
4, 5460, Note_on_c, 0, 72, 88
4, 5518, Note_off_c, 0, 72, 0
4, 5520, Note_on_c, 0, 77, 88
4, 5578, Note_off_c, 0, 77, 0
4, 5580, Note_on_c, 0, 75, 88
4, 5638, Note_off_c, 0, 75, 0
4, 5640, Note_on_c, 0, 73, 88
4, 5938, Note_off_c, 0, 73, 0
4, 5940, Note_on_c, 0, 72, 88
4, 5998, Note_off_c, 0, 72, 0
4, 6000, Note_on_c, 0, 70, 88
4, 6058, Note_off_c, 0, 70, 0
4, 6060, Note_on_c, 0, 68, 88
4, 6118, Note_off_c, 0, 68, 0
4, 6120, Note_on_c, 0, 67, 88
4, 6476, Note_off_c, 0, 67, 0
4, 6480, Note_on_c, 0, 73, 88
4, 6596, Note_off_c, 0, 73, 0
4, 6600, Note_on_c, 0, 72, 88
4, 6956, Note_off_c, 0, 72, 0
4, 6960, Note_on_c, 0, 73, 88
4, 7076, Note_off_c, 0, 73, 0
4, 7080, Note_on_c, 0, 72, 88
4, 7436, Note_off_c, 0, 72, 0
4, 7440, Note_on_c, 0, 73, 88
4, 7556, Note_off_c, 0, 73, 0
4, 7560, Note_on_c, 0, 72, 88
4, 7901, Note_off_c, 0, 72, 0
4, 7920, Note_on_c, 0, 72, 88
4, 8021, Note_off_c, 0, 72, 0
4, 8040, Note_on_c, 0, 72, 88
4, 8156, Note_off_c, 0, 72, 0
4, 8160, Note_on_c, 0, 80, 88
4, 8276, Note_off_c, 0, 80, 0
4, 8280, Note_on_c, 0, 70, 88
4, 8338, Note_off_c, 0, 70, 0
4, 8340, Note_on_c, 0, 72, 88
4, 8398, Note_off_c, 0, 72, 0
4, 8400, Note_on_c, 0, 73, 88
4, 8458, Note_off_c, 0, 73, 0
4, 8460, Note_on_c, 0, 72, 88
4, 8518, Note_off_c, 0, 72, 0
4, 8520, Note_on_c, 0, 70, 88
4, 8578, Note_off_c, 0, 70, 0
4, 8580, Note_on_c, 0, 72, 88
4, 8638, Note_off_c, 0, 72, 0
4, 8640, Note_on_c, 0, 73, 88
4, 8698, Note_off_c, 0, 73, 0
4, 8700, Note_on_c, 0, 72, 88
4, 8758, Note_off_c, 0, 72, 0
4, 8760, Note_on_c, 0, 70, 88
4, 8861, Note_off_c, 0, 70, 0
4, 8880, Note_on_c, 0, 70, 88
4, 8981, Note_off_c, 0, 70, 0
4, 9000, Note_on_c, 0, 70, 88
4, 9116, Note_off_c, 0, 70, 0
4, 9120, Note_on_c, 0, 79, 88
4, 9236, Note_off_c, 0, 79, 0
4, 9240, Note_on_c, 0, 68, 88
4, 9298, Note_off_c, 0, 68, 0
4, 9300, Note_on_c, 0, 70, 88
4, 9358, Note_off_c, 0, 70, 0
4, 9360, Note_on_c, 0, 72, 88
4, 9418, Note_off_c, 0, 72, 0
4, 9420, Note_on_c, 0, 70, 88
4, 9478, Note_off_c, 0, 70, 0
4, 9480, Note_on_c, 0, 68, 88
4, 9538, Note_off_c, 0, 68, 0
4, 9540, Note_on_c, 0, 70, 88
4, 9598, Note_off_c, 0, 70, 0
4, 9600, Note_on_c, 0, 72, 88
4, 9658, Note_off_c, 0, 72, 0
4, 9660, Note_on_c, 0, 70, 88
4, 9718, Note_off_c, 0, 70, 0
4, 9720, Note_on_c, 0, 68, 88
4, 9821, Note_off_c, 0, 68, 0
4, 9840, Note_on_c, 0, 68, 88
4, 9941, Note_off_c, 0, 68, 0
4, 9960, Note_on_c, 0, 68, 88
4, 10076, Note_off_c, 0, 68, 0
4, 10080, Note_on_c, 0, 73, 88
4, 10258, Note_off_c, 0, 73, 0
4, 10260, Note_on_c, 0, 65, 88
4, 10318, Note_off_c, 0, 65, 0
4, 10320, Note_on_c, 0, 67, 88
4, 10378, Note_off_c, 0, 67, 0
4, 10380, Note_on_c, 0, 68, 88
4, 10438, Note_off_c, 0, 68, 0
4, 10440, Note_on_c, 0, 70, 88
4, 10498, Note_off_c, 0, 70, 0
4, 10500, Note_on_c, 0, 72, 88
4, 10558, Note_off_c, 0, 72, 0
4, 10560, Note_on_c, 0, 73, 88
4, 10618, Note_off_c, 0, 73, 0
4, 10620, Note_on_c, 0, 70, 88
4, 10678, Note_off_c, 0, 70, 0
4, 10680, Note_on_c, 0, 72, 88
4, 10738, Note_off_c, 0, 72, 0
4, 10740, Note_on_c, 0, 73, 88
4, 10798, Note_off_c, 0, 73, 0
4, 10800, Note_on_c, 0, 70, 88
4, 10858, Note_off_c, 0, 70, 0
4, 10860, Note_on_c, 0, 72, 88
4, 10918, Note_off_c, 0, 72, 0
4, 10920, Note_on_c, 0, 73, 88
4, 10978, Note_off_c, 0, 73, 0
4, 10980, Note_on_c, 0, 72, 88
4, 11038, Note_off_c, 0, 72, 0
4, 11040, Note_on_c, 0, 70, 88
4, 11098, Note_off_c, 0, 70, 0
4, 11100, Note_on_c, 0, 68, 88
4, 11158, Note_off_c, 0, 68, 0
4, 11160, Note_on_c, 0, 67, 88
4, 11218, Note_off_c, 0, 67, 0
4, 11220, Note_on_c, 0, 68, 88
4, 11278, Note_off_c, 0, 68, 0
4, 11280, Note_on_c, 0, 70, 88
4, 11338, Note_off_c, 0, 70, 0
4, 11340, Note_on_c, 0, 67, 88
4, 11398, Note_off_c, 0, 67, 0
4, 11400, Note_on_c, 0, 63, 88
4, 11516, Note_off_c, 0, 63, 0
4, 11520, Note_on_c, 0, 75, 88
4, 11636, Note_off_c, 0, 75, 0
4, 11640, Note_on_c, 0, 68, 88
4, 11662, Note_off_c, 0, 68, 0
4, 11663, Note_on_c, 0, 67, 88
4, 11692, Note_off_c, 0, 67, 0
4, 11693, Note_on_c, 0, 68, 88
4, 11741, Note_off_c, 0, 68, 0
4, 11760, Note_on_c, 0, 68, 88
4, 11861, Note_off_c, 0, 68, 0
4, 11880, Note_on_c, 0, 68, 88
4, 11996, Note_off_c, 0, 68, 0
4, 12000, Note_on_c, 0, 77, 88
4, 12058, Note_off_c, 0, 77, 0
4, 12060, Note_on_c, 0, 73, 88
4, 12118, Note_off_c, 0, 73, 0
4, 12120, Note_on_c, 0, 67, 88
4, 12221, Note_off_c, 0, 67, 0
4, 12240, Note_on_c, 0, 67, 88
4, 12341, Note_off_c, 0, 67, 0
4, 12360, Note_on_c, 0, 67, 88
4, 12418, Note_off_c, 0, 67, 0
4, 12420, Note_on_c, 0, 68, 88
4, 12478, Note_off_c, 0, 68, 0
4, 12480, Note_on_c, 0, 70, 88
4, 12538, Note_off_c, 0, 70, 0
4, 12540, Note_on_c, 0, 72, 88
4, 12598, Note_off_c, 0, 72, 0
4, 12600, Note_on_c, 0, 73, 88
4, 12658, Note_off_c, 0, 73, 0
4, 12660, Note_on_c, 0, 72, 88
4, 12718, Note_off_c, 0, 72, 0
4, 12720, Note_on_c, 0, 70, 88
4, 12778, Note_off_c, 0, 70, 0
4, 12780, Note_on_c, 0, 72, 88
4, 12838, Note_off_c, 0, 72, 0
4, 12840, Note_on_c, 0, 73, 88
4, 12898, Note_off_c, 0, 73, 0
4, 12900, Note_on_c, 0, 77, 88
4, 12958, Note_off_c, 0, 77, 0
4, 12960, Note_on_c, 0, 75, 88
4, 13018, Note_off_c, 0, 75, 0
4, 13020, Note_on_c, 0, 73, 88
4, 13078, Note_off_c, 0, 73, 0
4, 13080, Note_on_c, 0, 72, 88
4, 13138, Note_off_c, 0, 72, 0
4, 13140, Note_on_c, 0, 70, 88
4, 13198, Note_off_c, 0, 70, 0
4, 13200, Note_on_c, 0, 68, 88
4, 13258, Note_off_c, 0, 68, 0
4, 13260, Note_on_c, 0, 67, 88
4, 13318, Note_off_c, 0, 67, 0
4, 13320, Note_on_c, 0, 68, 88
4, 13378, Note_off_c, 0, 68, 0
4, 13380, Note_on_c, 0, 70, 88
4, 13438, Note_off_c, 0, 70, 0
4, 13440, Note_on_c, 0, 72, 88
4, 13498, Note_off_c, 0, 72, 0
4, 13500, Note_on_c, 0, 74, 88
4, 13558, Note_off_c, 0, 74, 0
4, 13560, Note_on_c, 0, 75, 88
4, 13901, Note_off_c, 0, 75, 0
4, 13920, Note_on_c, 0, 75, 88
4, 14036, Note_off_c, 0, 75, 0
4, 14040, Note_on_c, 0, 80, 88
4, 14098, Note_off_c, 0, 80, 0
4, 14100, Note_on_c, 0, 79, 88
4, 14158, Note_off_c, 0, 79, 0
4, 14160, Note_on_c, 0, 80, 88
4, 14218, Note_off_c, 0, 80, 0
4, 14220, Note_on_c, 0, 82, 88
4, 14278, Note_off_c, 0, 82, 0
4, 14280, Note_on_c, 0, 80, 88
4, 14338, Note_off_c, 0, 80, 0
4, 14340, Note_on_c, 0, 79, 88
4, 14398, Note_off_c, 0, 79, 0
4, 14400, Note_on_c, 0, 77, 88
4, 14458, Note_off_c, 0, 77, 0
4, 14460, Note_on_c, 0, 75, 88
4, 14518, Note_off_c, 0, 75, 0
4, 14520, Note_on_c, 0, 74, 88
4, 15058, Note_off_c, 0, 74, 0
4, 15060, Note_on_c, 0, 72, 88
4, 15118, Note_off_c, 0, 72, 0
4, 15120, Note_on_c, 0, 71, 88
4, 15178, Note_off_c, 0, 71, 0
4, 15180, Note_on_c, 0, 72, 88
4, 15238, Note_off_c, 0, 72, 0
4, 15240, Note_on_c, 0, 74, 88
4, 15298, Note_off_c, 0, 74, 0
4, 15300, Note_on_c, 0, 77, 88
4, 15358, Note_off_c, 0, 77, 0
4, 15360, Note_on_c, 0, 75, 88
4, 15418, Note_off_c, 0, 75, 0
4, 15420, Note_on_c, 0, 74, 88
4, 15478, Note_off_c, 0, 74, 0
4, 15480, Note_on_c, 0, 75, 88
4, 15581, Note_off_c, 0, 75, 0
4, 15600, Note_on_c, 0, 75, 88
4, 15701, Note_off_c, 0, 75, 0
4, 15720, Note_on_c, 0, 75, 88
4, 16430, Note_off_c, 0, 75, 0
4, 16440, Note_on_c, 0, 74, 88
4, 16541, Note_off_c, 0, 74, 0
4, 16560, Note_on_c, 0, 74, 88
4, 16661, Note_off_c, 0, 74, 0
4, 16680, Note_on_c, 0, 74, 88
4, 17390, Note_off_c, 0, 74, 0
4, 17400, Note_on_c, 0, 72, 88
4, 17501, Note_off_c, 0, 72, 0
4, 17520, Note_on_c, 0, 72, 88
4, 17621, Note_off_c, 0, 72, 0
4, 17640, Note_on_c, 0, 72, 88
4, 17756, Note_off_c, 0, 72, 0
4, 17760, Note_on_c, 0, 77, 88
4, 17876, Note_off_c, 0, 77, 0
4, 17880, Note_on_c, 0, 71, 88
4, 17938, Note_off_c, 0, 71, 0
4, 17940, Note_on_c, 0, 72, 88
4, 17998, Note_off_c, 0, 72, 0
4, 18000, Note_on_c, 0, 74, 88
4, 18353, Note_off_c, 0, 74, 0
4, 18420, Note_on_c, 0, 67, 88
4, 18478, Note_off_c, 0, 67, 0
4, 18480, Note_on_c, 0, 72, 88
4, 18641, Note_off_c, 0, 72, 0
4, 18660, Note_on_c, 0, 72, 88
4, 18776, Note_off_c, 0, 72, 0
4, 18780, Note_on_c, 0, 71, 88
4, 18838, Note_off_c, 0, 71, 0
4, 18840, Note_on_c, 0, 72, 88
4, 19074, Note_off_c, 0, 72, 0
4, 19200, Note_on_c, 0, 72, 88
4, 19258, Note_off_c, 0, 72, 0
4, 19260, Note_on_c, 0, 70, 88
4, 19318, Note_off_c, 0, 70, 0
4, 19320, Note_on_c, 0, 68, 88
4, 19554, Note_off_c, 0, 68, 0
4, 19620, Note_on_c, 0, 68, 88
4, 19678, Note_off_c, 0, 68, 0
4, 19680, Note_on_c, 0, 70, 88
4, 19738, Note_off_c, 0, 70, 0
4, 19740, Note_on_c, 0, 73, 88
4, 19841, Note_off_c, 0, 73, 0
4, 19860, Note_on_c, 0, 73, 88
4, 19918, Note_off_c, 0, 73, 0
4, 19920, Note_on_c, 0, 72, 88
4, 19978, Note_off_c, 0, 72, 0
4, 19980, Note_on_c, 0, 70, 88
4, 20038, Note_off_c, 0, 70, 0
4, 20040, Note_on_c, 0, 79, 88
4, 20633, Note_off_c, 0, 79, 0
4, 20640, Note_on_c, 0, 76, 88
4, 20756, Note_off_c, 0, 76, 0
4, 20760, Note_on_c, 0, 77, 88
4, 20876, Note_off_c, 0, 77, 0
4, 21600, Note_on_c, 0, 81, 88
4, 21716, Note_off_c, 0, 81, 0
4, 21720, Note_on_c, 0, 82, 88
4, 21836, Note_off_c, 0, 82, 0
4, 21840, Note_on_c, 0, 75, 88
4, 21956, Note_off_c, 0, 75, 0
4, 21960, Note_on_c, 0, 73, 88
4, 22076, Note_off_c, 0, 73, 0
4, 22080, Note_on_c, 0, 82, 88
4, 22316, Note_off_c, 0, 82, 0
4, 22320, Note_on_c, 0, 84, 88
4, 22378, Note_off_c, 0, 84, 0
4, 22380, Note_on_c, 0, 82, 88
4, 22438, Note_off_c, 0, 82, 0
4, 22440, Note_on_c, 0, 80, 88
4, 22498, Note_off_c, 0, 80, 0
4, 22500, Note_on_c, 0, 79, 88
4, 22558, Note_off_c, 0, 79, 0
4, 22560, Note_on_c, 0, 77, 88
4, 22618, Note_off_c, 0, 77, 0
4, 22620, Note_on_c, 0, 76, 88
4, 22678, Note_off_c, 0, 76, 0
4, 22680, Note_on_c, 0, 77, 88
4, 23276, Note_off_c, 0, 77, 0
4, 23280, Note_on_c, 0, 82, 88
4, 23338, Note_off_c, 0, 82, 0
4, 23340, Note_on_c, 0, 80, 88
4, 23398, Note_off_c, 0, 80, 0
4, 23400, Note_on_c, 0, 79, 88
4, 23458, Note_off_c, 0, 79, 0
4, 23460, Note_on_c, 0, 77, 88
4, 23518, Note_off_c, 0, 77, 0
4, 23520, Note_on_c, 0, 76, 88
4, 23578, Note_off_c, 0, 76, 0
4, 23580, Note_on_c, 0, 74, 88
4, 23638, Note_off_c, 0, 74, 0
4, 23640, Note_on_c, 0, 76, 88
4, 23698, Note_off_c, 0, 76, 0
4, 23700, Note_on_c, 0, 77, 88
4, 23758, Note_off_c, 0, 77, 0
4, 23760, Note_on_c, 0, 76, 88
4, 23818, Note_off_c, 0, 76, 0
4, 23820, Note_on_c, 0, 74, 88
4, 23878, Note_off_c, 0, 74, 0
4, 23880, Note_on_c, 0, 72, 88
4, 23938, Note_off_c, 0, 72, 0
4, 23940, Note_on_c, 0, 70, 88
4, 23998, Note_off_c, 0, 70, 0
4, 24000, Note_on_c, 0, 68, 88
4, 24058, Note_off_c, 0, 68, 0
4, 24060, Note_on_c, 0, 67, 88
4, 24118, Note_off_c, 0, 67, 0
4, 24120, Note_on_c, 0, 68, 88
4, 24178, Note_off_c, 0, 68, 0
4, 24180, Note_on_c, 0, 65, 88
4, 24238, Note_off_c, 0, 65, 0
4, 24240, Note_on_c, 0, 68, 88
4, 24298, Note_off_c, 0, 68, 0
4, 24300, Note_on_c, 0, 72, 88
4, 24358, Note_off_c, 0, 72, 0
4, 24360, Note_on_c, 0, 77, 88
4, 24418, Note_off_c, 0, 77, 0
4, 24420, Note_on_c, 0, 72, 88
4, 24478, Note_off_c, 0, 72, 0
4, 24480, Note_on_c, 0, 70, 88
4, 24538, Note_off_c, 0, 70, 0
4, 24540, Note_on_c, 0, 68, 88
4, 24598, Note_off_c, 0, 68, 0
4, 24600, Note_on_c, 0, 70, 88
4, 24658, Note_off_c, 0, 70, 0
4, 24660, Note_on_c, 0, 67, 88
4, 24718, Note_off_c, 0, 67, 0
4, 24720, Note_on_c, 0, 70, 88
4, 24778, Note_off_c, 0, 70, 0
4, 24780, Note_on_c, 0, 76, 88
4, 24838, Note_off_c, 0, 76, 0
4, 24840, Note_on_c, 0, 79, 88
4, 24898, Note_off_c, 0, 79, 0
4, 24900, Note_on_c, 0, 77, 88
4, 24958, Note_off_c, 0, 77, 0
4, 24960, Note_on_c, 0, 76, 88
4, 25018, Note_off_c, 0, 76, 0
4, 25020, Note_on_c, 0, 74, 88
4, 25078, Note_off_c, 0, 74, 0
4, 25080, Note_on_c, 0, 72, 88
4, 25138, Note_off_c, 0, 72, 0
4, 25140, Note_on_c, 0, 74, 88
4, 25198, Note_off_c, 0, 74, 0
4, 25200, Note_on_c, 0, 76, 88
4, 25258, Note_off_c, 0, 76, 0
4, 25260, Note_on_c, 0, 79, 88
4, 25318, Note_off_c, 0, 79, 0
4, 25320, Note_on_c, 0, 84, 88
4, 25378, Note_off_c, 0, 84, 0
4, 25380, Note_on_c, 0, 82, 88
4, 25438, Note_off_c, 0, 82, 0
4, 25440, Note_on_c, 0, 80, 88
4, 25498, Note_off_c, 0, 80, 0
4, 25500, Note_on_c, 0, 79, 88
4, 25558, Note_off_c, 0, 79, 0
4, 25560, Note_on_c, 0, 77, 88
4, 25618, Note_off_c, 0, 77, 0
4, 25620, Note_on_c, 0, 78, 88
4, 25678, Note_off_c, 0, 78, 0
4, 25680, Note_on_c, 0, 77, 88
4, 25738, Note_off_c, 0, 77, 0
4, 25740, Note_on_c, 0, 75, 88
4, 25798, Note_off_c, 0, 75, 0
4, 25800, Note_on_c, 0, 73, 88
4, 25858, Note_off_c, 0, 73, 0
4, 25860, Note_on_c, 0, 72, 88
4, 25918, Note_off_c, 0, 72, 0
4, 25920, Note_on_c, 0, 70, 88
4, 25978, Note_off_c, 0, 70, 0
4, 25980, Note_on_c, 0, 69, 88
4, 26038, Note_off_c, 0, 69, 0
4, 26040, Note_on_c, 0, 70, 88
4, 26156, Note_off_c, 0, 70, 0
4, 26160, Note_on_c, 0, 65, 88
4, 26276, Note_off_c, 0, 65, 0
4, 26280, Note_on_c, 0, 73, 88
4, 26561, Note_off_c, 0, 73, 0
4, 26580, Note_on_c, 0, 73, 88
4, 26801, Note_off_c, 0, 73, 0
4, 26820, Note_on_c, 0, 73, 88
4, 27058, Note_off_c, 0, 73, 0
4, 27060, Note_on_c, 0, 72, 88
4, 27281, Note_off_c, 0, 72, 0
4, 27300, Note_on_c, 0, 72, 88
4, 27538, Note_off_c, 0, 72, 0
4, 27540, Note_on_c, 0, 70, 88
4, 27598, Note_off_c, 0, 70, 0
4, 27600, Note_on_c, 0, 69, 88
4, 27658, Note_off_c, 0, 69, 0
4, 27660, Note_on_c, 0, 67, 88
4, 27718, Note_off_c, 0, 67, 0
4, 27720, Note_on_c, 0, 69, 88
4, 27778, Note_off_c, 0, 69, 0
4, 27780, Note_on_c, 0, 70, 88
4, 27838, Note_off_c, 0, 70, 0
4, 27840, Note_on_c, 0, 72, 88
4, 28076, Note_off_c, 0, 72, 0
4, 28080, Note_on_c, 0, 70, 88
4, 28138, Note_off_c, 0, 70, 0
4, 28140, Note_on_c, 0, 69, 88
4, 28198, Note_off_c, 0, 69, 0
4, 28200, Note_on_c, 0, 70, 88
4, 28316, Note_off_c, 0, 70, 0
4, 28320, Note_on_c, 0, 73, 88
4, 28436, Note_off_c, 0, 73, 0
4, 28440, Note_on_c, 0, 67, 88
4, 28556, Note_off_c, 0, 67, 0
4, 28560, Note_on_c, 0, 72, 88
4, 28618, Note_off_c, 0, 72, 0
4, 28620, Note_on_c, 0, 74, 88
4, 28678, Note_off_c, 0, 74, 0
4, 28680, Note_on_c, 0, 76, 88
4, 28796, Note_off_c, 0, 76, 0
4, 28800, Note_on_c, 0, 77, 88
4, 28916, Note_off_c, 0, 77, 0
4, 28920, Note_on_c, 0, 79, 88
4, 29036, Note_off_c, 0, 79, 0
4, 29040, Note_on_c, 0, 77, 88
4, 29156, Note_off_c, 0, 77, 0
4, 29160, Note_on_c, 0, 76, 88
4, 29276, Note_off_c, 0, 76, 0
4, 29280, Note_on_c, 0, 77, 88
4, 29396, Note_off_c, 0, 77, 0
4, 29400, Note_on_c, 0, 79, 88
4, 29694, Note_off_c, 0, 79, 0
4, 29700, Note_on_c, 0, 77, 88
4, 29758, Note_off_c, 0, 77, 0
4, 29760, Note_on_c, 0, 76, 88
4, 29818, Note_off_c, 0, 76, 0
4, 29820, Note_on_c, 0, 77, 88
4, 29878, Note_off_c, 0, 77, 0
4, 29880, Note_on_c, 0, 79, 88
4, 30174, Note_off_c, 0, 79, 0
4, 30180, Note_on_c, 0, 77, 88
4, 30238, Note_off_c, 0, 77, 0
4, 30240, Note_on_c, 0, 76, 88
4, 30298, Note_off_c, 0, 76, 0
4, 30300, Note_on_c, 0, 77, 88
4, 30358, Note_off_c, 0, 77, 0
4, 30360, Note_on_c, 0, 82, 88
4, 30418, Note_off_c, 0, 82, 0
4, 30420, Note_on_c, 0, 77, 88
4, 30478, Note_off_c, 0, 77, 0
4, 30480, Note_on_c, 0, 76, 88
4, 30538, Note_off_c, 0, 76, 0
4, 30540, Note_on_c, 0, 74, 88
4, 30598, Note_off_c, 0, 74, 0
4, 30600, Note_on_c, 0, 76, 88
4, 30658, Note_off_c, 0, 76, 0
4, 30660, Note_on_c, 0, 77, 88
4, 30718, Note_off_c, 0, 77, 0
4, 30720, Note_on_c, 0, 79, 88
4, 30956, Note_off_c, 0, 79, 0
4, 30960, Note_on_c, 0, 77, 88
4, 31018, Note_off_c, 0, 77, 0
4, 31020, Note_on_c, 0, 76, 88
4, 31078, Note_off_c, 0, 76, 0
4, 31080, Note_on_c, 0, 77, 88
4, 31196, Note_off_c, 0, 77, 0
4, 31200, Note_on_c, 0, 79, 88
4, 31316, Note_off_c, 0, 79, 0
4, 31320, Note_on_c, 0, 80, 88
4, 31421, Note_off_c, 0, 80, 0
4, 31440, Note_on_c, 0, 80, 88
4, 31541, Note_off_c, 0, 80, 0
4, 31560, Note_on_c, 0, 80, 88
4, 32270, Note_off_c, 0, 80, 0
4, 32280, Note_on_c, 0, 79, 88
4, 32381, Note_off_c, 0, 79, 0
4, 32400, Note_on_c, 0, 79, 88
4, 32501, Note_off_c, 0, 79, 0
4, 32520, Note_on_c, 0, 79, 88
4, 33230, Note_off_c, 0, 79, 0
4, 33240, Note_on_c, 0, 77, 88
4, 33474, Note_off_c, 0, 77, 0
4, 33600, Note_on_c, 0, 77, 88
4, 33716, Note_off_c, 0, 77, 0
4, 33720, Note_on_c, 0, 75, 88
4, 33954, Note_off_c, 0, 75, 0
4, 34080, Note_on_c, 0, 77, 88
4, 34196, Note_off_c, 0, 77, 0
4, 34200, Note_on_c, 0, 70, 88
4, 34301, Note_off_c, 0, 70, 0
4, 34320, Note_on_c, 0, 70, 88
4, 34421, Note_off_c, 0, 70, 0
4, 34440, Note_on_c, 0, 70, 88
4, 34556, Note_off_c, 0, 70, 0
4, 34560, Note_on_c, 0, 78, 88
4, 34618, Note_off_c, 0, 78, 0
4, 34620, Note_on_c, 0, 75, 88
4, 34678, Note_off_c, 0, 75, 0
4, 34680, Note_on_c, 0, 69, 88
4, 34781, Note_off_c, 0, 69, 0
4, 34800, Note_on_c, 0, 69, 88
4, 34901, Note_off_c, 0, 69, 0
4, 34920, Note_on_c, 0, 69, 88
4, 34978, Note_off_c, 0, 69, 0
4, 34980, Note_on_c, 0, 70, 88
4, 35038, Note_off_c, 0, 70, 0
4, 35040, Note_on_c, 0, 72, 88
4, 35098, Note_off_c, 0, 72, 0
4, 35100, Note_on_c, 0, 73, 88
4, 35158, Note_off_c, 0, 73, 0
4, 35160, Note_on_c, 0, 75, 88
4, 35218, Note_off_c, 0, 75, 0
4, 35220, Note_on_c, 0, 73, 88
4, 35278, Note_off_c, 0, 73, 0
4, 35280, Note_on_c, 0, 72, 88
4, 35338, Note_off_c, 0, 72, 0
4, 35340, Note_on_c, 0, 73, 88
4, 35398, Note_off_c, 0, 73, 0
4, 35400, Note_on_c, 0, 75, 88
4, 35458, Note_off_c, 0, 75, 0
4, 35460, Note_on_c, 0, 78, 88
4, 35518, Note_off_c, 0, 78, 0
4, 35520, Note_on_c, 0, 77, 88
4, 35578, Note_off_c, 0, 77, 0
4, 35580, Note_on_c, 0, 75, 88
4, 35638, Note_off_c, 0, 75, 0
4, 35640, Note_on_c, 0, 73, 88
4, 35741, Note_off_c, 0, 73, 0
4, 35760, Note_on_c, 0, 73, 88
4, 35861, Note_off_c, 0, 73, 0
4, 35880, Note_on_c, 0, 73, 88
4, 35996, Note_off_c, 0, 73, 0
4, 36120, Note_on_c, 0, 73, 88
4, 36221, Note_off_c, 0, 73, 0
4, 36240, Note_on_c, 0, 73, 88
4, 36341, Note_off_c, 0, 73, 0
4, 36360, Note_on_c, 0, 73, 88
4, 36476, Note_off_c, 0, 73, 0
4, 36600, Note_on_c, 0, 64, 88
4, 36716, Note_off_c, 0, 64, 0
4, 36960, Note_on_c, 0, 76, 88
4, 37076, Note_off_c, 0, 76, 0
4, 37080, Note_on_c, 0, 77, 88
4, 37196, Note_off_c, 0, 77, 0
4, 37200, Note_on_c, 0, 72, 88
4, 37301, Note_off_c, 0, 72, 0
4, 37320, Note_on_c, 0, 72, 88
4, 37436, Note_off_c, 0, 72, 0
4, 37440, Note_on_c, 0, 80, 88
4, 37556, Note_off_c, 0, 80, 0
4, 37560, Note_on_c, 0, 70, 88
4, 37618, Note_off_c, 0, 70, 0
4, 37620, Note_on_c, 0, 72, 88
4, 37678, Note_off_c, 0, 72, 0
4, 37680, Note_on_c, 0, 73, 88
4, 37738, Note_off_c, 0, 73, 0
4, 37740, Note_on_c, 0, 72, 88
4, 37798, Note_off_c, 0, 72, 0
4, 37800, Note_on_c, 0, 70, 88
4, 37858, Note_off_c, 0, 70, 0
4, 37860, Note_on_c, 0, 72, 88
4, 37918, Note_off_c, 0, 72, 0
4, 37920, Note_on_c, 0, 73, 88
4, 37978, Note_off_c, 0, 73, 0
4, 37980, Note_on_c, 0, 72, 88
4, 38038, Note_off_c, 0, 72, 0
4, 38040, Note_on_c, 0, 70, 88
4, 38141, Note_off_c, 0, 70, 0
4, 38160, Note_on_c, 0, 70, 88
4, 38261, Note_off_c, 0, 70, 0
4, 38280, Note_on_c, 0, 70, 88
4, 38396, Note_off_c, 0, 70, 0
4, 38400, Note_on_c, 0, 79, 88
4, 38516, Note_off_c, 0, 79, 0
4, 38520, Note_on_c, 0, 68, 88
4, 38578, Note_off_c, 0, 68, 0
4, 38580, Note_on_c, 0, 70, 88
4, 38638, Note_off_c, 0, 70, 0
4, 38640, Note_on_c, 0, 72, 88
4, 38698, Note_off_c, 0, 72, 0
4, 38700, Note_on_c, 0, 70, 88
4, 38758, Note_off_c, 0, 70, 0
4, 38760, Note_on_c, 0, 68, 88
4, 38818, Note_off_c, 0, 68, 0
4, 38820, Note_on_c, 0, 70, 88
4, 38878, Note_off_c, 0, 70, 0
4, 38880, Note_on_c, 0, 72, 88
4, 38938, Note_off_c, 0, 72, 0
4, 38940, Note_on_c, 0, 70, 88
4, 38998, Note_off_c, 0, 70, 0
4, 39000, Note_on_c, 0, 68, 88
4, 39101, Note_off_c, 0, 68, 0
4, 39120, Note_on_c, 0, 68, 88
4, 39221, Note_off_c, 0, 68, 0
4, 39240, Note_on_c, 0, 68, 88
4, 39356, Note_off_c, 0, 68, 0
4, 39360, Note_on_c, 0, 77, 88
4, 39476, Note_off_c, 0, 77, 0
4, 39480, Note_on_c, 0, 67, 88
4, 39538, Note_off_c, 0, 67, 0
4, 39540, Note_on_c, 0, 68, 88
4, 39598, Note_off_c, 0, 68, 0
4, 39600, Note_on_c, 0, 70, 88
4, 39658, Note_off_c, 0, 70, 0
4, 39660, Note_on_c, 0, 68, 88
4, 39718, Note_off_c, 0, 68, 0
4, 39720, Note_on_c, 0, 67, 88
4, 39778, Note_off_c, 0, 67, 0
4, 39780, Note_on_c, 0, 73, 88
4, 39838, Note_off_c, 0, 73, 0
4, 39840, Note_on_c, 0, 72, 88
4, 39898, Note_off_c, 0, 72, 0
4, 39900, Note_on_c, 0, 70, 88
4, 39958, Note_off_c, 0, 70, 0
4, 39960, Note_on_c, 0, 68, 88
4, 40135, Note_off_c, 0, 68, 0
4, 40140, Note_on_c, 0, 67, 88
4, 40198, Note_off_c, 0, 67, 0
4, 40200, Note_on_c, 0, 68, 88
4, 40222, Note_off_c, 0, 68, 0
4, 40223, Note_on_c, 0, 67, 88
4, 40252, Note_off_c, 0, 67, 0
4, 40253, Note_on_c, 0, 68, 88
4, 40274, Note_off_c, 0, 68, 0
4, 40275, Note_on_c, 0, 67, 88
4, 40297, Note_off_c, 0, 67, 0
4, 40298, Note_on_c, 0, 68, 88
4, 40319, Note_off_c, 0, 68, 0
4, 40320, Note_on_c, 0, 67, 88
4, 40378, Note_off_c, 0, 67, 0
4, 40380, Note_on_c, 0, 65, 88
4, 40438, Note_off_c, 0, 65, 0
4, 40440, Note_on_c, 0, 65, 88
4, 40793, Note_off_c, 0, 65, 0
4, 40793, End_track
5, 0, Start_track
5, 0, Title_t, "Track 2"
5, 0, Program_c, 1, 6
5, 1920, Note_on_c, 1, 65, 88
5, 2036, Note_off_c, 1, 65, 0
5, 2040, Note_on_c, 1, 60, 88
5, 2141, Note_off_c, 1, 60, 0
5, 2160, Note_on_c, 1, 60, 88
5, 2261, Note_off_c, 1, 60, 0
5, 2280, Note_on_c, 1, 60, 88
5, 2396, Note_off_c, 1, 60, 0
5, 2400, Note_on_c, 1, 68, 88
5, 2458, Note_off_c, 1, 68, 0
5, 2460, Note_on_c, 1, 65, 88
5, 2518, Note_off_c, 1, 65, 0
5, 2520, Note_on_c, 1, 59, 88
5, 2621, Note_off_c, 1, 59, 0
5, 2640, Note_on_c, 1, 59, 88
5, 2741, Note_off_c, 1, 59, 0
5, 2760, Note_on_c, 1, 59, 88
5, 2818, Note_off_c, 1, 59, 0
5, 2820, Note_on_c, 1, 60, 88
5, 2878, Note_off_c, 1, 60, 0
5, 2880, Note_on_c, 1, 62, 88
5, 2938, Note_off_c, 1, 62, 0
5, 2940, Note_on_c, 1, 63, 88
5, 2998, Note_off_c, 1, 63, 0
5, 3000, Note_on_c, 1, 65, 88
5, 3058, Note_off_c, 1, 65, 0
5, 3060, Note_on_c, 1, 63, 88
5, 3118, Note_off_c, 1, 63, 0
5, 3120, Note_on_c, 1, 62, 88
5, 3178, Note_off_c, 1, 62, 0
5, 3180, Note_on_c, 1, 63, 88
5, 3238, Note_off_c, 1, 63, 0
5, 3240, Note_on_c, 1, 65, 88
5, 3298, Note_off_c, 1, 65, 0
5, 3300, Note_on_c, 1, 68, 88
5, 3358, Note_off_c, 1, 68, 0
5, 3360, Note_on_c, 1, 67, 88
5, 3418, Note_off_c, 1, 67, 0
5, 3420, Note_on_c, 1, 65, 88
5, 3478, Note_off_c, 1, 65, 0
5, 3480, Note_on_c, 1, 63, 88
5, 3538, Note_off_c, 1, 63, 0
5, 3540, Note_on_c, 1, 62, 88
5, 3598, Note_off_c, 1, 62, 0
5, 3600, Note_on_c, 1, 60, 88
5, 3658, Note_off_c, 1, 60, 0
5, 3660, Note_on_c, 1, 62, 88
5, 3718, Note_off_c, 1, 62, 0
5, 3720, Note_on_c, 1, 63, 88
5, 3778, Note_off_c, 1, 63, 0
5, 3780, Note_on_c, 1, 65, 88
5, 3838, Note_off_c, 1, 65, 0
5, 3840, Note_on_c, 1, 67, 88
5, 3898, Note_off_c, 1, 67, 0
5, 3900, Note_on_c, 1, 69, 88
5, 3958, Note_off_c, 1, 69, 0
5, 3960, Note_on_c, 1, 70, 88
5, 4018, Note_off_c, 1, 70, 0
5, 4020, Note_on_c, 1, 68, 88
5, 4078, Note_off_c, 1, 68, 0
5, 4080, Note_on_c, 1, 67, 88
5, 4138, Note_off_c, 1, 67, 0
5, 4140, Note_on_c, 1, 65, 88
5, 4198, Note_off_c, 1, 65, 0
5, 4200, Note_on_c, 1, 67, 88
5, 4258, Note_off_c, 1, 67, 0
5, 4260, Note_on_c, 1, 70, 88
5, 4318, Note_off_c, 1, 70, 0
5, 4320, Note_on_c, 1, 68, 88
5, 4378, Note_off_c, 1, 68, 0
5, 4380, Note_on_c, 1, 67, 88
5, 4438, Note_off_c, 1, 67, 0
5, 4440, Note_on_c, 1, 68, 88
5, 4498, Note_off_c, 1, 68, 0
5, 4500, Note_on_c, 1, 70, 88
5, 4558, Note_off_c, 1, 70, 0
5, 4560, Note_on_c, 1, 72, 88
5, 4618, Note_off_c, 1, 72, 0
5, 4620, Note_on_c, 1, 70, 88
5, 4678, Note_off_c, 1, 70, 0
5, 4680, Note_on_c, 1, 68, 88
5, 4738, Note_off_c, 1, 68, 0
5, 4740, Note_on_c, 1, 67, 88
5, 4798, Note_off_c, 1, 67, 0
5, 4800, Note_on_c, 1, 65, 88
5, 4858, Note_off_c, 1, 65, 0
5, 4860, Note_on_c, 1, 63, 88
5, 4918, Note_off_c, 1, 63, 0
5, 4920, Note_on_c, 1, 62, 88
5, 4978, Note_off_c, 1, 62, 0
5, 4980, Note_on_c, 1, 65, 88
5, 5038, Note_off_c, 1, 65, 0
5, 5040, Note_on_c, 1, 64, 88
5, 5098, Note_off_c, 1, 64, 0
5, 5100, Note_on_c, 1, 62, 88
5, 5158, Note_off_c, 1, 62, 0
5, 5160, Note_on_c, 1, 64, 88
5, 5218, Note_off_c, 1, 64, 0
5, 5220, Note_on_c, 1, 67, 88
5, 5278, Note_off_c, 1, 67, 0
5, 5280, Note_on_c, 1, 65, 88
5, 5338, Note_off_c, 1, 65, 0
5, 5340, Note_on_c, 1, 64, 88
5, 5398, Note_off_c, 1, 64, 0
5, 5400, Note_on_c, 1, 65, 88
5, 5516, Note_off_c, 1, 65, 0
5, 5700, Note_on_c, 1, 72, 88
5, 5758, Note_off_c, 1, 72, 0
5, 5760, Note_on_c, 1, 70, 88
5, 5818, Note_off_c, 1, 70, 0
5, 5820, Note_on_c, 1, 68, 88
5, 5878, Note_off_c, 1, 68, 0
5, 5880, Note_on_c, 1, 67, 88
5, 6114, Note_off_c, 1, 67, 0
5, 6180, Note_on_c, 1, 65, 88
5, 6238, Note_off_c, 1, 65, 0
5, 6240, Note_on_c, 1, 64, 88
5, 6298, Note_off_c, 1, 64, 0
5, 6300, Note_on_c, 1, 62, 88
5, 6358, Note_off_c, 1, 62, 0
5, 6360, Note_on_c, 1, 64, 88
5, 6701, Note_off_c, 1, 64, 0
5, 6720, Note_on_c, 1, 64, 88
5, 6836, Note_off_c, 1, 64, 0
5, 6840, Note_on_c, 1, 65, 88
5, 7134, Note_off_c, 1, 65, 0
5, 7140, Note_on_c, 1, 68, 88
5, 7198, Note_off_c, 1, 68, 0
5, 7200, Note_on_c, 1, 67, 88
5, 7258, Note_off_c, 1, 67, 0
5, 7260, Note_on_c, 1, 65, 88
5, 7318, Note_off_c, 1, 65, 0
5, 7320, Note_on_c, 1, 64, 88
5, 7378, Note_off_c, 1, 64, 0
5, 7380, Note_on_c, 1, 67, 88
5, 7438, Note_off_c, 1, 67, 0
5, 7440, Note_on_c, 1, 70, 88
5, 7615, Note_off_c, 1, 70, 0
5, 7620, Note_on_c, 1, 67, 88
5, 7678, Note_off_c, 1, 67, 0
5, 7680, Note_on_c, 1, 65, 88
5, 7738, Note_off_c, 1, 65, 0
5, 7740, Note_on_c, 1, 64, 88
5, 7798, Note_off_c, 1, 64, 0
5, 7800, Note_on_c, 1, 68, 88
5, 7901, Note_off_c, 1, 68, 0
5, 7920, Note_on_c, 1, 68, 88
5, 8021, Note_off_c, 1, 68, 0
5, 8040, Note_on_c, 1, 68, 88
5, 8750, Note_off_c, 1, 68, 0
5, 8760, Note_on_c, 1, 67, 88
5, 8861, Note_off_c, 1, 67, 0
5, 8880, Note_on_c, 1, 67, 88
5, 8981, Note_off_c, 1, 67, 0
5, 9000, Note_on_c, 1, 67, 88
5, 9710, Note_off_c, 1, 67, 0
5, 9720, Note_on_c, 1, 65, 88
5, 9821, Note_off_c, 1, 65, 0
5, 9840, Note_on_c, 1, 65, 88
5, 9941, Note_off_c, 1, 65, 0
5, 9960, Note_on_c, 1, 65, 88
5, 10194, Note_off_c, 1, 65, 0
5, 10200, Note_on_c, 1, 63, 88
5, 10316, Note_off_c, 1, 63, 0
5, 13440, Note_on_c, 1, 68, 88
5, 13556, Note_off_c, 1, 68, 0
5, 13560, Note_on_c, 1, 63, 88
5, 13661, Note_off_c, 1, 63, 0
5, 13680, Note_on_c, 1, 63, 88
5, 13781, Note_off_c, 1, 63, 0
5, 13800, Note_on_c, 1, 63, 88
5, 13916, Note_off_c, 1, 63, 0
5, 13920, Note_on_c, 1, 72, 88
5, 13978, Note_off_c, 1, 72, 0
5, 13980, Note_on_c, 1, 68, 88
5, 14038, Note_off_c, 1, 68, 0
5, 14040, Note_on_c, 1, 62, 88
5, 14141, Note_off_c, 1, 62, 0
5, 14160, Note_on_c, 1, 62, 88
5, 14261, Note_off_c, 1, 62, 0
5, 14280, Note_on_c, 1, 62, 88
5, 14338, Note_off_c, 1, 62, 0
5, 14340, Note_on_c, 1, 63, 88
5, 14398, Note_off_c, 1, 63, 0
5, 14400, Note_on_c, 1, 65, 88
5, 14458, Note_off_c, 1, 65, 0
5, 14460, Note_on_c, 1, 67, 88
5, 14518, Note_off_c, 1, 67, 0
5, 14520, Note_on_c, 1, 68, 88
5, 14578, Note_off_c, 1, 68, 0
5, 14580, Note_on_c, 1, 67, 88
5, 14638, Note_off_c, 1, 67, 0
5, 14640, Note_on_c, 1, 65, 88
5, 14698, Note_off_c, 1, 65, 0
5, 14700, Note_on_c, 1, 67, 88
5, 14758, Note_off_c, 1, 67, 0
5, 14760, Note_on_c, 1, 68, 88
5, 14818, Note_off_c, 1, 68, 0
5, 14820, Note_on_c, 1, 72, 88
5, 14878, Note_off_c, 1, 72, 0
5, 14880, Note_on_c, 1, 70, 88
5, 14938, Note_off_c, 1, 70, 0
5, 14940, Note_on_c, 1, 68, 88
5, 14998, Note_off_c, 1, 68, 0
5, 15000, Note_on_c, 1, 67, 88
5, 15581, Note_off_c, 1, 67, 0
5, 15600, Note_on_c, 1, 67, 88
5, 15701, Note_off_c, 1, 67, 0
5, 15720, Note_on_c, 1, 67, 88
5, 15836, Note_off_c, 1, 67, 0
5, 15840, Note_on_c, 1, 75, 88
5, 15956, Note_off_c, 1, 75, 0
5, 15960, Note_on_c, 1, 65, 88
5, 16018, Note_off_c, 1, 65, 0
5, 16020, Note_on_c, 1, 67, 88
5, 16078, Note_off_c, 1, 67, 0
5, 16080, Note_on_c, 1, 68, 88
5, 16138, Note_off_c, 1, 68, 0
5, 16140, Note_on_c, 1, 67, 88
5, 16198, Note_off_c, 1, 67, 0
5, 16200, Note_on_c, 1, 65, 88
5, 16258, Note_off_c, 1, 65, 0
5, 16260, Note_on_c, 1, 67, 88
5, 16318, Note_off_c, 1, 67, 0
5, 16320, Note_on_c, 1, 68, 88
5, 16378, Note_off_c, 1, 68, 0
5, 16380, Note_on_c, 1, 67, 88
5, 16438, Note_off_c, 1, 67, 0
5, 16440, Note_on_c, 1, 65, 88
5, 16541, Note_off_c, 1, 65, 0
5, 16560, Note_on_c, 1, 65, 88
5, 16661, Note_off_c, 1, 65, 0
5, 16680, Note_on_c, 1, 65, 88
5, 16796, Note_off_c, 1, 65, 0
5, 16800, Note_on_c, 1, 74, 88
5, 16916, Note_off_c, 1, 74, 0
5, 16920, Note_on_c, 1, 63, 88
5, 16978, Note_off_c, 1, 63, 0
5, 16980, Note_on_c, 1, 65, 88
5, 17038, Note_off_c, 1, 65, 0
5, 17040, Note_on_c, 1, 67, 88
5, 17098, Note_off_c, 1, 67, 0
5, 17100, Note_on_c, 1, 65, 88
5, 17158, Note_off_c, 1, 65, 0
5, 17160, Note_on_c, 1, 63, 88
5, 17218, Note_off_c, 1, 63, 0
5, 17220, Note_on_c, 1, 65, 88
5, 17278, Note_off_c, 1, 65, 0
5, 17280, Note_on_c, 1, 67, 88
5, 17338, Note_off_c, 1, 67, 0
5, 17340, Note_on_c, 1, 65, 88
5, 17398, Note_off_c, 1, 65, 0
5, 17400, Note_on_c, 1, 63, 88
5, 17501, Note_off_c, 1, 63, 0
5, 17520, Note_on_c, 1, 63, 88
5, 17621, Note_off_c, 1, 63, 0
5, 17640, Note_on_c, 1, 63, 88
5, 17756, Note_off_c, 1, 63, 0
5, 17760, Note_on_c, 1, 68, 88
5, 18041, Note_off_c, 1, 68, 0
5, 18060, Note_on_c, 1, 68, 88
5, 18118, Note_off_c, 1, 68, 0
5, 18120, Note_on_c, 1, 67, 88
5, 18178, Note_off_c, 1, 67, 0
5, 18180, Note_on_c, 1, 65, 88
5, 18238, Note_off_c, 1, 65, 0
5, 18240, Note_on_c, 1, 63, 88
5, 18298, Note_off_c, 1, 63, 0
5, 18300, Note_on_c, 1, 62, 88
5, 18358, Note_off_c, 1, 62, 0
5, 18360, Note_on_c, 1, 63, 88
5, 18521, Note_off_c, 1, 63, 0
5, 18540, Note_on_c, 1, 63, 88
5, 18598, Note_off_c, 1, 63, 0
5, 18600, Note_on_c, 1, 62, 88
5, 18716, Note_off_c, 1, 62, 0
5, 18720, Note_on_c, 1, 65, 88
5, 18881, Note_off_c, 1, 65, 0
5, 18900, Note_on_c, 1, 65, 88
5, 18958, Note_off_c, 1, 65, 0
5, 18960, Note_on_c, 1, 64, 88
5, 19018, Note_off_c, 1, 64, 0
5, 19020, Note_on_c, 1, 62, 88
5, 19078, Note_off_c, 1, 62, 0
5, 19080, Note_on_c, 1, 64, 88
5, 19138, Note_off_c, 1, 64, 0
5, 19140, Note_on_c, 1, 67, 88
5, 19361, Note_off_c, 1, 67, 0
5, 19380, Note_on_c, 1, 67, 88
5, 19438, Note_off_c, 1, 67, 0
5, 19440, Note_on_c, 1, 65, 88
5, 19498, Note_off_c, 1, 65, 0
5, 19500, Note_on_c, 1, 64, 88
5, 19558, Note_off_c, 1, 64, 0
5, 19560, Note_on_c, 1, 65, 88
5, 19794, Note_off_c, 1, 65, 0
5, 19800, Note_on_c, 1, 67, 88
5, 20034, Note_off_c, 1, 67, 0
5, 20160, Note_on_c, 1, 76, 88
5, 20276, Note_off_c, 1, 76, 0
5, 20280, Note_on_c, 1, 73, 88
5, 20396, Note_off_c, 1, 73, 0
5, 20400, Note_on_c, 1, 70, 88
5, 20516, Note_off_c, 1, 70, 0
5, 20520, Note_on_c, 1, 67, 88
5, 20754, Note_off_c, 1, 67, 0
5, 20820, Note_on_c, 1, 70, 88
5, 20878, Note_off_c, 1, 70, 0
5, 20880, Note_on_c, 1, 68, 88
5, 20938, Note_off_c, 1, 68, 0
5, 20940, Note_on_c, 1, 67, 88
5, 20998, Note_off_c, 1, 67, 0
5, 21000, Note_on_c, 1, 65, 88
5, 21058, Note_off_c, 1, 65, 0
5, 21060, Note_on_c, 1, 67, 88
5, 21118, Note_off_c, 1, 67, 0
5, 21120, Note_on_c, 1, 68, 88
5, 21178, Note_off_c, 1, 68, 0
5, 21180, Note_on_c, 1, 70, 88
5, 21238, Note_off_c, 1, 70, 0
5, 21240, Note_on_c, 1, 72, 88
5, 21356, Note_off_c, 1, 72, 0
5, 21360, Note_on_c, 1, 75, 88
5, 21476, Note_off_c, 1, 75, 0
5, 21480, Note_on_c, 1, 78, 88
5, 21836, Note_off_c, 1, 78, 0
5, 21840, Note_on_c, 1, 69, 88
5, 21956, Note_off_c, 1, 69, 0
5, 21960, Note_on_c, 1, 70, 88
5, 22076, Note_off_c, 1, 70, 0
5, 22080, Note_on_c, 1, 73, 88
5, 22196, Note_off_c, 1, 73, 0
5, 22200, Note_on_c, 1, 72, 88
5, 22316, Note_off_c, 1, 72, 0
5, 22800, Note_on_c, 1, 68, 88
5, 22916, Note_off_c, 1, 68, 0
5, 22920, Note_on_c, 1, 73, 88
5, 23036, Note_off_c, 1, 73, 0
5, 23040, Note_on_c, 1, 72, 88
5, 23156, Note_off_c, 1, 72, 0
5, 23160, Note_on_c, 1, 70, 88
5, 23276, Note_off_c, 1, 70, 0
5, 23760, Note_on_c, 1, 55, 88
5, 23818, Note_off_c, 1, 55, 0
5, 23820, Note_on_c, 1, 56, 88
5, 23878, Note_off_c, 1, 56, 0
5, 23880, Note_on_c, 1, 58, 88
5, 23996, Note_off_c, 1, 58, 0
5, 24000, Note_on_c, 1, 60, 88
5, 24116, Note_off_c, 1, 60, 0
5, 24120, Note_on_c, 1, 53, 88
5, 24221, Note_off_c, 1, 53, 0
5, 24240, Note_on_c, 1, 53, 88
5, 24341, Note_off_c, 1, 53, 0
5, 24360, Note_on_c, 1, 53, 88
5, 24476, Note_off_c, 1, 53, 0
5, 24480, Note_on_c, 1, 61, 88
5, 24538, Note_off_c, 1, 61, 0
5, 24540, Note_on_c, 1, 58, 88
5, 24598, Note_off_c, 1, 58, 0
5, 24600, Note_on_c, 1, 52, 88
5, 24701, Note_off_c, 1, 52, 0
5, 24720, Note_on_c, 1, 52, 88
5, 24821, Note_off_c, 1, 52, 0
5, 24840, Note_on_c, 1, 52, 88
5, 24898, Note_off_c, 1, 52, 0
5, 24900, Note_on_c, 1, 53, 88
5, 24958, Note_off_c, 1, 53, 0
5, 24960, Note_on_c, 1, 55, 88
5, 25018, Note_off_c, 1, 55, 0
5, 25020, Note_on_c, 1, 56, 88
5, 25078, Note_off_c, 1, 56, 0
5, 25080, Note_on_c, 1, 58, 88
5, 25138, Note_off_c, 1, 58, 0
5, 25140, Note_on_c, 1, 56, 88
5, 25198, Note_off_c, 1, 56, 0
5, 25200, Note_on_c, 1, 55, 88
5, 25258, Note_off_c, 1, 55, 0
5, 25260, Note_on_c, 1, 56, 88
5, 25318, Note_off_c, 1, 56, 0
5, 25320, Note_on_c, 1, 58, 88
5, 25378, Note_off_c, 1, 58, 0
5, 25380, Note_on_c, 1, 61, 88
5, 25438, Note_off_c, 1, 61, 0
5, 25440, Note_on_c, 1, 60, 88
5, 25498, Note_off_c, 1, 60, 0
5, 25500, Note_on_c, 1, 58, 88
5, 25558, Note_off_c, 1, 58, 0
5, 25560, Note_on_c, 1, 56, 88
5, 25676, Note_off_c, 1, 56, 0
5, 25680, Note_on_c, 1, 57, 88
5, 25796, Note_off_c, 1, 57, 0
5, 25800, Note_on_c, 1, 58, 88
5, 25916, Note_off_c, 1, 58, 0
5, 25920, Note_on_c, 1, 60, 88
5, 26036, Note_off_c, 1, 60, 0
5, 26040, Note_on_c, 1, 61, 88
5, 26156, Note_off_c, 1, 61, 0
5, 26400, Note_on_c, 1, 70, 88
5, 26458, Note_off_c, 1, 70, 0
5, 26460, Note_on_c, 1, 68, 88
5, 26518, Note_off_c, 1, 68, 0
5, 26520, Note_on_c, 1, 66, 88
5, 26621, Note_off_c, 1, 66, 0
5, 26640, Note_on_c, 1, 66, 88
5, 26698, Note_off_c, 1, 66, 0
5, 26700, Note_on_c, 1, 65, 88
5, 26758, Note_off_c, 1, 65, 0
5, 26760, Note_on_c, 1, 66, 88
5, 26861, Note_off_c, 1, 66, 0
5, 26880, Note_on_c, 1, 66, 88
5, 26938, Note_off_c, 1, 66, 0
5, 26940, Note_on_c, 1, 65, 88
5, 26998, Note_off_c, 1, 65, 0
5, 27000, Note_on_c, 1, 66, 88
5, 27116, Note_off_c, 1, 66, 0
5, 27120, Note_on_c, 1, 63, 88
5, 27178, Note_off_c, 1, 63, 0
5, 27180, Note_on_c, 1, 61, 88
5, 27238, Note_off_c, 1, 61, 0
5, 27240, Note_on_c, 1, 63, 88
5, 27341, Note_off_c, 1, 63, 0
5, 27360, Note_on_c, 1, 63, 88
5, 27418, Note_off_c, 1, 63, 0
5, 27420, Note_on_c, 1, 61, 88
5, 27478, Note_off_c, 1, 61, 0
5, 27480, Note_on_c, 1, 63, 88
5, 28018, Note_off_c, 1, 63, 0
5, 28020, Note_on_c, 1, 60, 88
5, 28078, Note_off_c, 1, 60, 0
5, 28080, Note_on_c, 1, 61, 88
5, 28138, Note_off_c, 1, 61, 0
5, 28140, Note_on_c, 1, 65, 88
5, 28198, Note_off_c, 1, 65, 0
5, 28200, Note_on_c, 1, 63, 88
5, 28258, Note_off_c, 1, 63, 0
5, 28260, Note_on_c, 1, 61, 88
5, 28318, Note_off_c, 1, 61, 0
5, 28320, Note_on_c, 1, 60, 88
5, 28378, Note_off_c, 1, 60, 0
5, 28380, Note_on_c, 1, 58, 88
5, 28438, Note_off_c, 1, 58, 0
5, 28440, Note_on_c, 1, 64, 88
5, 28556, Note_off_c, 1, 64, 0
5, 28560, Note_on_c, 1, 65, 88
5, 28676, Note_off_c, 1, 65, 0
5, 28680, Note_on_c, 1, 67, 88
5, 28796, Note_off_c, 1, 67, 0
5, 28800, Note_on_c, 1, 68, 88
5, 28916, Note_off_c, 1, 68, 0
5, 28920, Note_on_c, 1, 70, 88
5, 29021, Note_off_c, 1, 70, 0
5, 29040, Note_on_c, 1, 70, 88
5, 29098, Note_off_c, 1, 70, 0
5, 29100, Note_on_c, 1, 68, 88
5, 29158, Note_off_c, 1, 68, 0
5, 29160, Note_on_c, 1, 70, 88
5, 29458, Note_off_c, 1, 70, 0
5, 29460, Note_on_c, 1, 76, 88
5, 29518, Note_off_c, 1, 76, 0
5, 29520, Note_on_c, 1, 73, 88
5, 29578, Note_off_c, 1, 73, 0
5, 29580, Note_on_c, 1, 72, 88
5, 29638, Note_off_c, 1, 72, 0
5, 29640, Note_on_c, 1, 70, 88
5, 29938, Note_off_c, 1, 70, 0
5, 29940, Note_on_c, 1, 76, 88
5, 29998, Note_off_c, 1, 76, 0
5, 30000, Note_on_c, 1, 73, 88
5, 30058, Note_off_c, 1, 73, 0
5, 30060, Note_on_c, 1, 72, 88
5, 30118, Note_off_c, 1, 72, 0
5, 30120, Note_on_c, 1, 70, 88
5, 30354, Note_off_c, 1, 70, 0
5, 30600, Note_on_c, 1, 70, 88
5, 30898, Note_off_c, 1, 70, 0
5, 30900, Note_on_c, 1, 67, 88
5, 30958, Note_off_c, 1, 67, 0
5, 30960, Note_on_c, 1, 68, 88
5, 31018, Note_off_c, 1, 68, 0
5, 31020, Note_on_c, 1, 73, 88
5, 31078, Note_off_c, 1, 73, 0
5, 31080, Note_on_c, 1, 72, 88
5, 31138, Note_off_c, 1, 72, 0
5, 31140, Note_on_c, 1, 70, 88
5, 31198, Note_off_c, 1, 70, 0
5, 31200, Note_on_c, 1, 68, 88
5, 31258, Note_off_c, 1, 68, 0
5, 31260, Note_on_c, 1, 67, 88
5, 31318, Note_off_c, 1, 67, 0
5, 31320, Note_on_c, 1, 65, 88
5, 31436, Note_off_c, 1, 65, 0
5, 31440, Note_on_c, 1, 72, 88
5, 31541, Note_off_c, 1, 72, 0
5, 31560, Note_on_c, 1, 72, 88
5, 31676, Note_off_c, 1, 72, 0
5, 31680, Note_on_c, 1, 80, 88
5, 31796, Note_off_c, 1, 80, 0
5, 31800, Note_on_c, 1, 70, 88
5, 31858, Note_off_c, 1, 70, 0
5, 31860, Note_on_c, 1, 72, 88
5, 31918, Note_off_c, 1, 72, 0
5, 31920, Note_on_c, 1, 73, 88
5, 31978, Note_off_c, 1, 73, 0
5, 31980, Note_on_c, 1, 72, 88
5, 32038, Note_off_c, 1, 72, 0
5, 32040, Note_on_c, 1, 70, 88
5, 32098, Note_off_c, 1, 70, 0
5, 32100, Note_on_c, 1, 72, 88
5, 32158, Note_off_c, 1, 72, 0
5, 32160, Note_on_c, 1, 73, 88
5, 32218, Note_off_c, 1, 73, 0
5, 32220, Note_on_c, 1, 72, 88
5, 32278, Note_off_c, 1, 72, 0
5, 32280, Note_on_c, 1, 70, 88
5, 32381, Note_off_c, 1, 70, 0
5, 32400, Note_on_c, 1, 70, 88
5, 32501, Note_off_c, 1, 70, 0
5, 32520, Note_on_c, 1, 70, 88
5, 32636, Note_off_c, 1, 70, 0
5, 32640, Note_on_c, 1, 79, 88
5, 32756, Note_off_c, 1, 79, 0
5, 32760, Note_on_c, 1, 68, 88
5, 32818, Note_off_c, 1, 68, 0
5, 32820, Note_on_c, 1, 70, 88
5, 32878, Note_off_c, 1, 70, 0
5, 32880, Note_on_c, 1, 72, 88
5, 32938, Note_off_c, 1, 72, 0
5, 32940, Note_on_c, 1, 70, 88
5, 32998, Note_off_c, 1, 70, 0
5, 33000, Note_on_c, 1, 68, 88
5, 33058, Note_off_c, 1, 68, 0
5, 33060, Note_on_c, 1, 70, 88
5, 33118, Note_off_c, 1, 70, 0
5, 33120, Note_on_c, 1, 72, 88
5, 33178, Note_off_c, 1, 72, 0
5, 33180, Note_on_c, 1, 70, 88
5, 33238, Note_off_c, 1, 70, 0
5, 33240, Note_on_c, 1, 68, 88
5, 33341, Note_off_c, 1, 68, 0
5, 33360, Note_on_c, 1, 68, 88
5, 33476, Note_off_c, 1, 68, 0
5, 33480, Note_on_c, 1, 73, 88
5, 33836, Note_off_c, 1, 73, 0
5, 33840, Note_on_c, 1, 72, 88
5, 33898, Note_off_c, 1, 72, 0
5, 33900, Note_on_c, 1, 70, 88
5, 33958, Note_off_c, 1, 70, 0
5, 33960, Note_on_c, 1, 69, 88
5, 34076, Note_off_c, 1, 69, 0
5, 34260, Note_on_c, 1, 53, 88
5, 34318, Note_off_c, 1, 53, 0
5, 34320, Note_on_c, 1, 55, 88
5, 34378, Note_off_c, 1, 55, 0
5, 34380, Note_on_c, 1, 57, 88
5, 34438, Note_off_c, 1, 57, 0
5, 34440, Note_on_c, 1, 58, 88
5, 34556, Note_off_c, 1, 58, 0
5, 34740, Note_on_c, 1, 60, 88
5, 34798, Note_off_c, 1, 60, 0
5, 34800, Note_on_c, 1, 63, 88
5, 34858, Note_off_c, 1, 63, 0
5, 34860, Note_on_c, 1, 61, 88
5, 34918, Note_off_c, 1, 61, 0
5, 34920, Note_on_c, 1, 60, 88
5, 34978, Note_off_c, 1, 60, 0
5, 34980, Note_on_c, 1, 58, 88
5, 35038, Note_off_c, 1, 58, 0
5, 35040, Note_on_c, 1, 57, 88
5, 35098, Note_off_c, 1, 57, 0
5, 35100, Note_on_c, 1, 55, 88
5, 35158, Note_off_c, 1, 55, 0
5, 35160, Note_on_c, 1, 53, 88
5, 35218, Note_off_c, 1, 53, 0
5, 35520, Note_on_c, 1, 72, 88
5, 35636, Note_off_c, 1, 72, 0
5, 35640, Note_on_c, 1, 65, 88
5, 35741, Note_off_c, 1, 65, 0
5, 35760, Note_on_c, 1, 65, 88
5, 35861, Note_off_c, 1, 65, 0
5, 35880, Note_on_c, 1, 65, 88
5, 35996, Note_off_c, 1, 65, 0
5, 36000, Note_on_c, 1, 73, 88
5, 36058, Note_off_c, 1, 73, 0
5, 36060, Note_on_c, 1, 70, 88
5, 36118, Note_off_c, 1, 70, 0
5, 36120, Note_on_c, 1, 64, 88
5, 36221, Note_off_c, 1, 64, 0
5, 36240, Note_on_c, 1, 64, 88
5, 36341, Note_off_c, 1, 64, 0
5, 36360, Note_on_c, 1, 64, 88
5, 36418, Note_off_c, 1, 64, 0
5, 36420, Note_on_c, 1, 65, 88
5, 36478, Note_off_c, 1, 65, 0
5, 36480, Note_on_c, 1, 67, 88
5, 36538, Note_off_c, 1, 67, 0
5, 36540, Note_on_c, 1, 68, 88
5, 36598, Note_off_c, 1, 68, 0
5, 36600, Note_on_c, 1, 70, 88
5, 36658, Note_off_c, 1, 70, 0
5, 36660, Note_on_c, 1, 68, 88
5, 36718, Note_off_c, 1, 68, 0
5, 36720, Note_on_c, 1, 67, 88
5, 36778, Note_off_c, 1, 67, 0
5, 36780, Note_on_c, 1, 68, 88
5, 36838, Note_off_c, 1, 68, 0
5, 36840, Note_on_c, 1, 70, 88
5, 36898, Note_off_c, 1, 70, 0
5, 36900, Note_on_c, 1, 73, 88
5, 36958, Note_off_c, 1, 73, 0
5, 36960, Note_on_c, 1, 72, 88
5, 37018, Note_off_c, 1, 72, 0
5, 37020, Note_on_c, 1, 70, 88
5, 37078, Note_off_c, 1, 70, 0
5, 37080, Note_on_c, 1, 68, 88
5, 37181, Note_off_c, 1, 68, 0
5, 37200, Note_on_c, 1, 68, 88
5, 37301, Note_off_c, 1, 68, 0
5, 37320, Note_on_c, 1, 68, 88
5, 38030, Note_off_c, 1, 68, 0
5, 38040, Note_on_c, 1, 67, 88
5, 38141, Note_off_c, 1, 67, 0
5, 38160, Note_on_c, 1, 67, 88
5, 38261, Note_off_c, 1, 67, 0
5, 38280, Note_on_c, 1, 67, 88
5, 38990, Note_off_c, 1, 67, 0
5, 39000, Note_on_c, 1, 65, 88
5, 39101, Note_off_c, 1, 65, 0
5, 39120, Note_on_c, 1, 65, 88
5, 39221, Note_off_c, 1, 65, 0
5, 39240, Note_on_c, 1, 65, 88
5, 39596, Note_off_c, 1, 65, 0
5, 39600, Note_on_c, 1, 64, 88
5, 39716, Note_off_c, 1, 64, 0
5, 39840, Note_on_c, 1, 64, 88
5, 39956, Note_off_c, 1, 64, 0
5, 39960, Note_on_c, 1, 65, 88
5, 40194, Note_off_c, 1, 65, 0
5, 40200, Note_on_c, 1, 64, 88
5, 40434, Note_off_c, 1, 64, 0
5, 40440, Note_on_c, 1, 65, 88
5, 40793, Note_off_c, 1, 65, 0
5, 40793, End_track
6, 0, Start_track
6, 0, Title_t, "Track 3"
6, 0, Program_c, 2, 6
6, 5280, Note_on_c, 2, 60, 88
6, 5396, Note_off_c, 2, 60, 0
6, 5400, Note_on_c, 2, 53, 88
6, 5501, Note_off_c, 2, 53, 0
6, 5520, Note_on_c, 2, 53, 88
6, 5621, Note_off_c, 2, 53, 0
6, 5640, Note_on_c, 2, 53, 88
6, 5756, Note_off_c, 2, 53, 0
6, 5760, Note_on_c, 2, 61, 88
6, 5818, Note_off_c, 2, 61, 0
6, 5820, Note_on_c, 2, 58, 88
6, 5878, Note_off_c, 2, 58, 0
6, 5880, Note_on_c, 2, 52, 88
6, 5981, Note_off_c, 2, 52, 0
6, 6000, Note_on_c, 2, 52, 88
6, 6101, Note_off_c, 2, 52, 0
6, 6120, Note_on_c, 2, 52, 88
6, 6178, Note_off_c, 2, 52, 0
6, 6180, Note_on_c, 2, 53, 88
6, 6238, Note_off_c, 2, 53, 0
6, 6240, Note_on_c, 2, 55, 88
6, 6298, Note_off_c, 2, 55, 0
6, 6300, Note_on_c, 2, 56, 88
6, 6358, Note_off_c, 2, 56, 0
6, 6360, Note_on_c, 2, 58, 88
6, 6418, Note_off_c, 2, 58, 0
6, 6420, Note_on_c, 2, 56, 88
6, 6478, Note_off_c, 2, 56, 0
6, 6480, Note_on_c, 2, 55, 88
6, 6538, Note_off_c, 2, 55, 0
6, 6540, Note_on_c, 2, 56, 88
6, 6598, Note_off_c, 2, 56, 0
6, 6600, Note_on_c, 2, 58, 88
6, 6658, Note_off_c, 2, 58, 0
6, 6660, Note_on_c, 2, 61, 88
6, 6718, Note_off_c, 2, 61, 0
6, 6720, Note_on_c, 2, 60, 88
6, 6778, Note_off_c, 2, 60, 0
6, 6780, Note_on_c, 2, 58, 88
6, 6838, Note_off_c, 2, 58, 0
6, 6840, Note_on_c, 2, 56, 88
6, 6898, Note_off_c, 2, 56, 0
6, 6900, Note_on_c, 2, 55, 88
6, 6958, Note_off_c, 2, 55, 0
6, 6960, Note_on_c, 2, 53, 88
6, 7018, Note_off_c, 2, 53, 0
6, 7020, Note_on_c, 2, 55, 88
6, 7078, Note_off_c, 2, 55, 0
6, 7080, Note_on_c, 2, 56, 88
6, 7138, Note_off_c, 2, 56, 0
6, 7140, Note_on_c, 2, 60, 88
6, 7198, Note_off_c, 2, 60, 0
6, 7200, Note_on_c, 2, 58, 88
6, 7258, Note_off_c, 2, 58, 0
6, 7260, Note_on_c, 2, 56, 88
6, 7318, Note_off_c, 2, 56, 0
6, 7320, Note_on_c, 2, 55, 88
6, 7378, Note_off_c, 2, 55, 0
6, 7380, Note_on_c, 2, 53, 88
6, 7438, Note_off_c, 2, 53, 0
6, 7440, Note_on_c, 2, 52, 88
6, 7498, Note_off_c, 2, 52, 0
6, 7500, Note_on_c, 2, 53, 88
6, 7558, Note_off_c, 2, 53, 0
6, 7560, Note_on_c, 2, 55, 88
6, 7618, Note_off_c, 2, 55, 0
6, 7620, Note_on_c, 2, 58, 88
6, 7678, Note_off_c, 2, 58, 0
6, 7680, Note_on_c, 2, 56, 88
6, 7738, Note_off_c, 2, 56, 0
6, 7740, Note_on_c, 2, 55, 88
6, 7798, Note_off_c, 2, 55, 0
6, 7800, Note_on_c, 2, 53, 88
6, 7858, Note_off_c, 2, 53, 0
6, 7860, Note_on_c, 2, 56, 88
6, 7918, Note_off_c, 2, 56, 0
6, 7920, Note_on_c, 2, 60, 88
6, 7978, Note_off_c, 2, 60, 0
6, 7980, Note_on_c, 2, 65, 88
6, 8038, Note_off_c, 2, 65, 0
6, 8040, Note_on_c, 2, 60, 88
6, 8098, Note_off_c, 2, 60, 0
6, 8100, Note_on_c, 2, 56, 88
6, 8158, Note_off_c, 2, 56, 0
6, 8160, Note_on_c, 2, 53, 88
6, 8218, Note_off_c, 2, 53, 0
6, 8220, Note_on_c, 2, 56, 88
6, 8278, Note_off_c, 2, 56, 0
6, 8280, Note_on_c, 2, 49, 88
6, 8396, Note_off_c, 2, 49, 0
6, 8400, Note_on_c, 2, 53, 88
6, 8516, Note_off_c, 2, 53, 0
6, 8520, Note_on_c, 2, 49, 88
6, 8636, Note_off_c, 2, 49, 0
6, 8640, Note_on_c, 2, 46, 88
6, 8756, Note_off_c, 2, 46, 0
6, 8760, Note_on_c, 2, 51, 88
6, 8818, Note_off_c, 2, 51, 0
6, 8820, Note_on_c, 2, 55, 88
6, 8878, Note_off_c, 2, 55, 0
6, 8880, Note_on_c, 2, 58, 88
6, 8938, Note_off_c, 2, 58, 0
6, 8940, Note_on_c, 2, 63, 88
6, 8998, Note_off_c, 2, 63, 0
6, 9000, Note_on_c, 2, 58, 88
6, 9058, Note_off_c, 2, 58, 0
6, 9060, Note_on_c, 2, 55, 88
6, 9118, Note_off_c, 2, 55, 0
6, 9120, Note_on_c, 2, 51, 88
6, 9178, Note_off_c, 2, 51, 0
6, 9180, Note_on_c, 2, 55, 88
6, 9238, Note_off_c, 2, 55, 0
6, 9240, Note_on_c, 2, 48, 88
6, 9356, Note_off_c, 2, 48, 0
6, 9360, Note_on_c, 2, 51, 88
6, 9476, Note_off_c, 2, 51, 0
6, 9480, Note_on_c, 2, 48, 88
6, 9596, Note_off_c, 2, 48, 0
6, 9600, Note_on_c, 2, 44, 88
6, 9716, Note_off_c, 2, 44, 0
6, 9720, Note_on_c, 2, 49, 88
6, 9778, Note_off_c, 2, 49, 0
6, 9780, Note_on_c, 2, 51, 88
6, 9838, Note_off_c, 2, 51, 0
6, 9840, Note_on_c, 2, 53, 88
6, 9898, Note_off_c, 2, 53, 0
6, 9900, Note_on_c, 2, 51, 88
6, 9958, Note_off_c, 2, 51, 0
6, 9960, Note_on_c, 2, 49, 88
6, 10018, Note_off_c, 2, 49, 0
6, 10020, Note_on_c, 2, 48, 88
6, 10078, Note_off_c, 2, 48, 0
6, 10080, Note_on_c, 2, 46, 88
6, 10138, Note_off_c, 2, 46, 0
6, 10140, Note_on_c, 2, 44, 88
6, 10198, Note_off_c, 2, 44, 0
6, 10200, Note_on_c, 2, 43, 88
6, 10316, Note_off_c, 2, 43, 0
6, 10320, Note_on_c, 2, 46, 88
6, 10436, Note_off_c, 2, 46, 0
6, 10440, Note_on_c, 2, 43, 88
6, 10556, Note_off_c, 2, 43, 0
6, 10560, Note_on_c, 2, 39, 88
6, 10676, Note_off_c, 2, 39, 0
6, 10680, Note_on_c, 2, 44, 88
6, 10796, Note_off_c, 2, 44, 0
6, 10800, Note_on_c, 2, 43, 88
6, 10916, Note_off_c, 2, 43, 0
6, 10920, Note_on_c, 2, 41, 88
6, 11036, Note_off_c, 2, 41, 0
6, 11040, Note_on_c, 2, 50, 88
6, 11156, Note_off_c, 2, 50, 0
6, 11160, Note_on_c, 2, 51, 88
6, 11276, Note_off_c, 2, 51, 0
6, 11280, Note_on_c, 2, 39, 88
6, 11396, Note_off_c, 2, 39, 0
6, 11460, Note_on_c, 2, 61, 88
6, 11518, Note_off_c, 2, 61, 0
6, 11520, Note_on_c, 2, 60, 88
6, 11578, Note_off_c, 2, 60, 0
6, 11580, Note_on_c, 2, 58, 88
6, 11638, Note_off_c, 2, 58, 0
6, 11640, Note_on_c, 2, 60, 88
6, 11698, Note_off_c, 2, 60, 0
6, 11700, Note_on_c, 2, 63, 88
6, 11758, Note_off_c, 2, 63, 0
6, 11760, Note_on_c, 2, 60, 88
6, 11818, Note_off_c, 2, 60, 0
6, 11820, Note_on_c, 2, 56, 88
6, 11878, Note_off_c, 2, 56, 0
6, 11880, Note_on_c, 2, 53, 88
6, 11938, Note_off_c, 2, 53, 0
6, 11940, Note_on_c, 2, 63, 88
6, 11998, Note_off_c, 2, 63, 0
6, 12000, Note_on_c, 2, 61, 88
6, 12058, Note_off_c, 2, 61, 0
6, 12060, Note_on_c, 2, 60, 88
6, 12118, Note_off_c, 2, 60, 0
6, 12120, Note_on_c, 2, 58, 88
6, 12178, Note_off_c, 2, 58, 0
6, 12180, Note_on_c, 2, 61, 88
6, 12238, Note_off_c, 2, 61, 0
6, 12240, Note_on_c, 2, 58, 88
6, 12298, Note_off_c, 2, 58, 0
6, 12300, Note_on_c, 2, 55, 88
6, 12358, Note_off_c, 2, 55, 0
6, 12360, Note_on_c, 2, 51, 88
6, 12418, Note_off_c, 2, 51, 0
6, 12420, Note_on_c, 2, 60, 88
6, 12478, Note_off_c, 2, 60, 0
6, 12480, Note_on_c, 2, 58, 88
6, 12538, Note_off_c, 2, 58, 0
6, 12540, Note_on_c, 2, 56, 88
6, 12598, Note_off_c, 2, 56, 0
6, 12600, Note_on_c, 2, 55, 88
6, 12658, Note_off_c, 2, 55, 0
6, 12660, Note_on_c, 2, 56, 88
6, 12718, Note_off_c, 2, 56, 0
6, 12720, Note_on_c, 2, 55, 88
6, 12778, Note_off_c, 2, 55, 0
6, 12780, Note_on_c, 2, 53, 88
6, 12838, Note_off_c, 2, 53, 0
6, 12840, Note_on_c, 2, 51, 88
6, 12898, Note_off_c, 2, 51, 0
6, 12900, Note_on_c, 2, 49, 88
6, 12958, Note_off_c, 2, 49, 0
6, 12960, Note_on_c, 2, 48, 88
6, 13018, Note_off_c, 2, 48, 0
6, 13020, Note_on_c, 2, 46, 88
6, 13078, Note_off_c, 2, 46, 0
6, 13080, Note_on_c, 2, 44, 88
6, 13196, Note_off_c, 2, 44, 0
6, 13200, Note_on_c, 2, 56, 88
6, 13316, Note_off_c, 2, 56, 0
6, 13320, Note_on_c, 2, 55, 88
6, 13436, Note_off_c, 2, 55, 0
6, 13440, Note_on_c, 2, 53, 88
6, 13556, Note_off_c, 2, 53, 0
6, 13560, Note_on_c, 2, 60, 88
6, 13618, Note_off_c, 2, 60, 0
6, 13620, Note_on_c, 2, 58, 88
6, 13678, Note_off_c, 2, 58, 0
6, 13680, Note_on_c, 2, 60, 88
6, 13738, Note_off_c, 2, 60, 0
6, 13740, Note_on_c, 2, 61, 88
6, 13798, Note_off_c, 2, 61, 0
6, 13800, Note_on_c, 2, 60, 88
6, 13858, Note_off_c, 2, 60, 0
6, 13860, Note_on_c, 2, 58, 88
6, 13918, Note_off_c, 2, 58, 0
6, 13920, Note_on_c, 2, 56, 88
6, 13978, Note_off_c, 2, 56, 0
6, 13980, Note_on_c, 2, 55, 88
6, 14038, Note_off_c, 2, 55, 0
6, 14040, Note_on_c, 2, 53, 88
6, 14274, Note_off_c, 2, 53, 0
6, 14280, Note_on_c, 2, 58, 88
6, 14636, Note_off_c, 2, 58, 0
6, 14640, Note_on_c, 2, 56, 88
6, 14698, Note_off_c, 2, 56, 0
6, 14700, Note_on_c, 2, 55, 88
6, 14758, Note_off_c, 2, 55, 0
6, 14760, Note_on_c, 2, 53, 88
6, 14818, Note_off_c, 2, 53, 0
6, 14820, Note_on_c, 2, 51, 88
6, 14878, Note_off_c, 2, 51, 0
6, 14880, Note_on_c, 2, 50, 88
6, 14938, Note_off_c, 2, 50, 0
6, 14940, Note_on_c, 2, 48, 88
6, 14998, Note_off_c, 2, 48, 0
6, 15000, Note_on_c, 2, 47, 88
6, 15116, Note_off_c, 2, 47, 0
6, 15120, Note_on_c, 2, 50, 88
6, 15236, Note_off_c, 2, 50, 0
6, 15240, Note_on_c, 2, 47, 88
6, 15356, Note_off_c, 2, 47, 0
6, 15360, Note_on_c, 2, 43, 88
6, 15476, Note_off_c, 2, 43, 0
6, 15480, Note_on_c, 2, 48, 88
6, 15538, Note_off_c, 2, 48, 0
6, 15540, Note_on_c, 2, 51, 88
6, 15598, Note_off_c, 2, 51, 0
6, 15600, Note_on_c, 2, 55, 88
6, 15658, Note_off_c, 2, 55, 0
6, 15660, Note_on_c, 2, 60, 88
6, 15718, Note_off_c, 2, 60, 0
6, 15720, Note_on_c, 2, 55, 88
6, 15778, Note_off_c, 2, 55, 0
6, 15780, Note_on_c, 2, 51, 88
6, 15838, Note_off_c, 2, 51, 0
6, 15840, Note_on_c, 2, 48, 88
6, 15898, Note_off_c, 2, 48, 0
6, 15900, Note_on_c, 2, 51, 88
6, 15958, Note_off_c, 2, 51, 0
6, 15960, Note_on_c, 2, 44, 88
6, 16076, Note_off_c, 2, 44, 0
6, 16080, Note_on_c, 2, 48, 88
6, 16196, Note_off_c, 2, 48, 0
6, 16200, Note_on_c, 2, 44, 88
6, 16316, Note_off_c, 2, 44, 0
6, 16320, Note_on_c, 2, 41, 88
6, 16436, Note_off_c, 2, 41, 0
6, 16440, Note_on_c, 2, 46, 88
6, 16498, Note_off_c, 2, 46, 0
6, 16500, Note_on_c, 2, 50, 88
6, 16558, Note_off_c, 2, 50, 0
6, 16560, Note_on_c, 2, 53, 88
6, 16618, Note_off_c, 2, 53, 0
6, 16620, Note_on_c, 2, 58, 88
6, 16678, Note_off_c, 2, 58, 0
6, 16680, Note_on_c, 2, 53, 88
6, 16738, Note_off_c, 2, 53, 0
6, 16740, Note_on_c, 2, 50, 88
6, 16798, Note_off_c, 2, 50, 0
6, 16800, Note_on_c, 2, 46, 88
6, 16858, Note_off_c, 2, 46, 0
6, 16860, Note_on_c, 2, 50, 88
6, 16918, Note_off_c, 2, 50, 0
6, 16920, Note_on_c, 2, 43, 88
6, 17036, Note_off_c, 2, 43, 0
6, 17040, Note_on_c, 2, 46, 88
6, 17156, Note_off_c, 2, 46, 0
6, 17160, Note_on_c, 2, 43, 88
6, 17276, Note_off_c, 2, 43, 0
6, 17280, Note_on_c, 2, 39, 88
6, 17396, Note_off_c, 2, 39, 0
6, 17400, Note_on_c, 2, 44, 88
6, 17458, Note_off_c, 2, 44, 0
6, 17460, Note_on_c, 2, 46, 88
6, 17518, Note_off_c, 2, 46, 0
6, 17520, Note_on_c, 2, 48, 88
6, 17578, Note_off_c, 2, 48, 0
6, 17580, Note_on_c, 2, 46, 88
6, 17638, Note_off_c, 2, 46, 0
6, 17640, Note_on_c, 2, 44, 88
6, 17698, Note_off_c, 2, 44, 0
6, 17700, Note_on_c, 2, 43, 88
6, 17758, Note_off_c, 2, 43, 0
6, 17760, Note_on_c, 2, 41, 88
6, 17818, Note_off_c, 2, 41, 0
6, 17820, Note_on_c, 2, 39, 88
6, 17878, Note_off_c, 2, 39, 0
6, 17880, Note_on_c, 2, 38, 88
6, 17996, Note_off_c, 2, 38, 0
6, 18000, Note_on_c, 2, 48, 88
6, 18116, Note_off_c, 2, 48, 0
6, 18120, Note_on_c, 2, 47, 88
6, 18236, Note_off_c, 2, 47, 0
6, 18240, Note_on_c, 2, 43, 88
6, 18356, Note_off_c, 2, 43, 0
6, 18360, Note_on_c, 2, 48, 88
6, 18476, Note_off_c, 2, 48, 0
6, 18480, Note_on_c, 2, 44, 88
6, 18596, Note_off_c, 2, 44, 0
6, 18600, Note_on_c, 2, 41, 88
6, 18716, Note_off_c, 2, 41, 0
6, 18720, Note_on_c, 2, 43, 88
6, 18836, Note_off_c, 2, 43, 0
6, 18840, Note_on_c, 2, 36, 88
6, 19074, Note_off_c, 2, 36, 0
6, 19200, Note_on_c, 2, 60, 88
6, 19316, Note_off_c, 2, 60, 0
6, 19320, Note_on_c, 2, 53, 88
6, 19421, Note_off_c, 2, 53, 0
6, 19440, Note_on_c, 2, 53, 88
6, 19541, Note_off_c, 2, 53, 0
6, 19560, Note_on_c, 2, 53, 88
6, 19676, Note_off_c, 2, 53, 0
6, 19680, Note_on_c, 2, 61, 88
6, 19738, Note_off_c, 2, 61, 0
6, 19740, Note_on_c, 2, 58, 88
6, 19798, Note_off_c, 2, 58, 0
6, 19800, Note_on_c, 2, 52, 88
6, 19901, Note_off_c, 2, 52, 0
6, 19920, Note_on_c, 2, 52, 88
6, 20021, Note_off_c, 2, 52, 0
6, 20040, Note_on_c, 2, 52, 88
6, 20098, Note_off_c, 2, 52, 0
6, 20100, Note_on_c, 2, 53, 88
6, 20158, Note_off_c, 2, 53, 0
6, 20160, Note_on_c, 2, 55, 88
6, 20218, Note_off_c, 2, 55, 0
6, 20220, Note_on_c, 2, 56, 88
6, 20278, Note_off_c, 2, 56, 0
6, 20280, Note_on_c, 2, 58, 88
6, 20338, Note_off_c, 2, 58, 0
6, 20340, Note_on_c, 2, 56, 88
6, 20398, Note_off_c, 2, 56, 0
6, 20400, Note_on_c, 2, 55, 88
6, 20458, Note_off_c, 2, 55, 0
6, 20460, Note_on_c, 2, 56, 88
6, 20518, Note_off_c, 2, 56, 0
6, 20520, Note_on_c, 2, 58, 88
6, 20578, Note_off_c, 2, 58, 0
6, 20580, Note_on_c, 2, 61, 88
6, 20638, Note_off_c, 2, 61, 0
6, 20640, Note_on_c, 2, 60, 88
6, 20698, Note_off_c, 2, 60, 0
6, 20700, Note_on_c, 2, 58, 88
6, 20758, Note_off_c, 2, 58, 0
6, 20760, Note_on_c, 2, 56, 88
6, 20818, Note_off_c, 2, 56, 0
6, 20820, Note_on_c, 2, 55, 88
6, 20878, Note_off_c, 2, 55, 0
6, 20880, Note_on_c, 2, 53, 88
6, 20938, Note_off_c, 2, 53, 0
6, 20940, Note_on_c, 2, 55, 88
6, 20998, Note_off_c, 2, 55, 0
6, 21000, Note_on_c, 2, 56, 88
6, 21058, Note_off_c, 2, 56, 0
6, 21060, Note_on_c, 2, 58, 88
6, 21118, Note_off_c, 2, 58, 0
6, 21120, Note_on_c, 2, 60, 88
6, 21178, Note_off_c, 2, 60, 0
6, 21180, Note_on_c, 2, 61, 88
6, 21238, Note_off_c, 2, 61, 0
6, 21240, Note_on_c, 2, 63, 88
6, 21298, Note_off_c, 2, 63, 0
6, 21300, Note_on_c, 2, 61, 88
6, 21358, Note_off_c, 2, 61, 0
6, 21360, Note_on_c, 2, 60, 88
6, 21418, Note_off_c, 2, 60, 0
6, 21420, Note_on_c, 2, 61, 88
6, 21478, Note_off_c, 2, 61, 0
6, 21480, Note_on_c, 2, 63, 88
6, 21538, Note_off_c, 2, 63, 0
6, 21540, Note_on_c, 2, 66, 88
6, 21598, Note_off_c, 2, 66, 0
6, 21600, Note_on_c, 2, 65, 88
6, 21658, Note_off_c, 2, 65, 0
6, 21660, Note_on_c, 2, 63, 88
6, 21718, Note_off_c, 2, 63, 0
6, 21720, Note_on_c, 2, 61, 88
6, 21778, Note_off_c, 2, 61, 0
6, 21780, Note_on_c, 2, 60, 88
6, 21838, Note_off_c, 2, 60, 0
6, 21840, Note_on_c, 2, 58, 88
6, 21898, Note_off_c, 2, 58, 0
6, 21900, Note_on_c, 2, 60, 88
6, 21958, Note_off_c, 2, 60, 0
6, 21960, Note_on_c, 2, 61, 88
6, 22018, Note_off_c, 2, 61, 0
6, 22020, Note_on_c, 2, 63, 88
6, 22078, Note_off_c, 2, 63, 0
6, 22080, Note_on_c, 2, 65, 88
6, 22138, Note_off_c, 2, 65, 0
6, 22140, Note_on_c, 2, 67, 88
6, 22198, Note_off_c, 2, 67, 0
6, 22200, Note_on_c, 2, 68, 88
6, 22258, Note_off_c, 2, 68, 0
6, 22260, Note_on_c, 2, 70, 88
6, 22318, Note_off_c, 2, 70, 0
6, 22320, Note_on_c, 2, 68, 88
6, 22378, Note_off_c, 2, 68, 0
6, 22380, Note_on_c, 2, 67, 88
6, 22438, Note_off_c, 2, 67, 0
6, 22440, Note_on_c, 2, 65, 88
6, 22498, Note_off_c, 2, 65, 0
6, 22500, Note_on_c, 2, 63, 88
6, 22558, Note_off_c, 2, 63, 0
6, 22560, Note_on_c, 2, 61, 88
6, 22618, Note_off_c, 2, 61, 0
6, 22620, Note_on_c, 2, 60, 88
6, 22678, Note_off_c, 2, 60, 0
6, 22680, Note_on_c, 2, 61, 88
6, 22738, Note_off_c, 2, 61, 0
6, 22740, Note_on_c, 2, 63, 88
6, 22798, Note_off_c, 2, 63, 0
6, 22800, Note_on_c, 2, 61, 88
6, 22858, Note_off_c, 2, 61, 0
6, 22860, Note_on_c, 2, 60, 88
6, 22918, Note_off_c, 2, 60, 0
6, 22920, Note_on_c, 2, 58, 88
6, 22978, Note_off_c, 2, 58, 0
6, 22980, Note_on_c, 2, 56, 88
6, 23038, Note_off_c, 2, 56, 0
6, 23040, Note_on_c, 2, 55, 88
6, 23098, Note_off_c, 2, 55, 0
6, 23100, Note_on_c, 2, 53, 88
6, 23158, Note_off_c, 2, 53, 0
6, 23160, Note_on_c, 2, 55, 88
6, 23218, Note_off_c, 2, 55, 0
6, 23220, Note_on_c, 2, 56, 88
6, 23278, Note_off_c, 2, 56, 0
6, 23280, Note_on_c, 2, 55, 88
6, 23338, Note_off_c, 2, 55, 0
6, 23340, Note_on_c, 2, 53, 88
6, 23398, Note_off_c, 2, 53, 0
6, 23400, Note_on_c, 2, 52, 88
6, 23458, Note_off_c, 2, 52, 0
6, 23460, Note_on_c, 2, 50, 88
6, 23518, Note_off_c, 2, 50, 0
6, 23520, Note_on_c, 2, 48, 88
6, 23578, Note_off_c, 2, 48, 0
6, 23580, Note_on_c, 2, 47, 88
6, 23638, Note_off_c, 2, 47, 0
6, 23640, Note_on_c, 2, 48, 88
6, 23741, Note_off_c, 2, 48, 0
6, 23760, Note_on_c, 2, 48, 88
6, 23861, Note_off_c, 2, 48, 0
6, 23880, Note_on_c, 2, 48, 88
6, 23996, Note_off_c, 2, 48, 0
6, 24120, Note_on_c, 2, 48, 88
6, 24221, Note_off_c, 2, 48, 0
6, 24240, Note_on_c, 2, 48, 88
6, 24341, Note_off_c, 2, 48, 0
6, 24360, Note_on_c, 2, 48, 88
6, 24476, Note_off_c, 2, 48, 0
6, 24600, Note_on_c, 2, 48, 88
6, 24701, Note_off_c, 2, 48, 0
6, 24720, Note_on_c, 2, 48, 88
6, 24821, Note_off_c, 2, 48, 0
6, 24840, Note_on_c, 2, 48, 88
6, 24956, Note_off_c, 2, 48, 0
6, 25560, Note_on_c, 2, 49, 88
6, 26098, Note_off_c, 2, 49, 0
6, 26100, Note_on_c, 2, 51, 88
6, 26158, Note_off_c, 2, 51, 0
6, 26160, Note_on_c, 2, 49, 88
6, 26218, Note_off_c, 2, 49, 0
6, 26220, Note_on_c, 2, 48, 88
6, 26278, Note_off_c, 2, 48, 0
6, 26280, Note_on_c, 2, 46, 88
6, 26338, Note_off_c, 2, 46, 0
6, 26340, Note_on_c, 2, 44, 88
6, 26398, Note_off_c, 2, 44, 0
6, 26400, Note_on_c, 2, 42, 88
6, 26458, Note_off_c, 2, 42, 0
6, 26460, Note_on_c, 2, 41, 88
6, 26518, Note_off_c, 2, 41, 0
6, 26520, Note_on_c, 2, 39, 88
6, 26621, Note_off_c, 2, 39, 0
6, 26640, Note_on_c, 2, 39, 88
6, 26741, Note_off_c, 2, 39, 0
6, 26760, Note_on_c, 2, 39, 88
6, 26876, Note_off_c, 2, 39, 0
6, 26880, Note_on_c, 2, 51, 88
6, 26938, Note_off_c, 2, 51, 0
6, 26940, Note_on_c, 2, 48, 88
6, 26998, Note_off_c, 2, 48, 0
6, 27000, Note_on_c, 2, 45, 88
6, 27101, Note_off_c, 2, 45, 0
6, 27120, Note_on_c, 2, 45, 88
6, 27221, Note_off_c, 2, 45, 0
6, 27240, Note_on_c, 2, 45, 88
6, 27356, Note_off_c, 2, 45, 0
6, 27360, Note_on_c, 2, 54, 88
6, 27418, Note_off_c, 2, 54, 0
6, 27420, Note_on_c, 2, 51, 88
6, 27478, Note_off_c, 2, 51, 0
6, 27480, Note_on_c, 2, 48, 88
6, 27581, Note_off_c, 2, 48, 0
6, 27600, Note_on_c, 2, 48, 88
6, 27701, Note_off_c, 2, 48, 0
6, 27720, Note_on_c, 2, 48, 88
6, 27836, Note_off_c, 2, 48, 0
6, 27840, Note_on_c, 2, 58, 88
6, 27898, Note_off_c, 2, 58, 0
6, 27900, Note_on_c, 2, 57, 88
6, 27958, Note_off_c, 2, 57, 0
6, 27960, Note_on_c, 2, 58, 88
6, 28498, Note_off_c, 2, 58, 0
6, 28500, Note_on_c, 2, 55, 88
6, 28558, Note_off_c, 2, 55, 0
6, 28560, Note_on_c, 2, 56, 88
6, 28618, Note_off_c, 2, 56, 0
6, 28620, Note_on_c, 2, 60, 88
6, 28678, Note_off_c, 2, 60, 0
6, 28680, Note_on_c, 2, 58, 88
6, 28738, Note_off_c, 2, 58, 0
6, 28740, Note_on_c, 2, 56, 88
6, 28798, Note_off_c, 2, 56, 0
6, 28800, Note_on_c, 2, 55, 88
6, 28858, Note_off_c, 2, 55, 0
6, 28860, Note_on_c, 2, 53, 88
6, 28918, Note_off_c, 2, 53, 0
6, 28920, Note_on_c, 2, 52, 88
6, 28978, Note_off_c, 2, 52, 0
6, 28980, Note_on_c, 2, 53, 88
6, 29038, Note_off_c, 2, 53, 0
6, 29040, Note_on_c, 2, 55, 88
6, 29098, Note_off_c, 2, 55, 0
6, 29100, Note_on_c, 2, 56, 88
6, 29158, Note_off_c, 2, 56, 0
6, 29160, Note_on_c, 2, 55, 88
6, 29218, Note_off_c, 2, 55, 0
6, 29220, Note_on_c, 2, 53, 88
6, 29278, Note_off_c, 2, 53, 0
6, 29280, Note_on_c, 2, 52, 88
6, 29338, Note_off_c, 2, 52, 0
6, 29340, Note_on_c, 2, 50, 88
6, 29398, Note_off_c, 2, 50, 0
6, 29400, Note_on_c, 2, 48, 88
6, 29501, Note_off_c, 2, 48, 0
6, 29520, Note_on_c, 2, 48, 88
6, 29621, Note_off_c, 2, 48, 0
6, 29640, Note_on_c, 2, 48, 88
6, 29756, Note_off_c, 2, 48, 0
6, 29760, Note_on_c, 2, 58, 88
6, 29818, Note_off_c, 2, 58, 0
6, 29820, Note_on_c, 2, 55, 88
6, 29878, Note_off_c, 2, 55, 0
6, 29880, Note_on_c, 2, 52, 88
6, 29981, Note_off_c, 2, 52, 0
6, 30000, Note_on_c, 2, 52, 88
6, 30101, Note_off_c, 2, 52, 0
6, 30120, Note_on_c, 2, 52, 88
6, 30236, Note_off_c, 2, 52, 0
6, 30240, Note_on_c, 2, 61, 88
6, 30298, Note_off_c, 2, 61, 0
6, 30300, Note_on_c, 2, 58, 88
6, 30358, Note_off_c, 2, 58, 0
6, 30360, Note_on_c, 2, 55, 88
6, 30461, Note_off_c, 2, 55, 0
6, 30480, Note_on_c, 2, 55, 88
6, 30581, Note_off_c, 2, 55, 0
6, 30600, Note_on_c, 2, 55, 88
6, 30716, Note_off_c, 2, 55, 0
6, 30720, Note_on_c, 2, 65, 88
6, 30778, Note_off_c, 2, 65, 0
6, 30780, Note_on_c, 2, 64, 88
6, 30838, Note_off_c, 2, 64, 0
6, 30840, Note_on_c, 2, 65, 88
6, 31378, Note_off_c, 2, 65, 0
6, 31380, Note_on_c, 2, 64, 88
6, 31438, Note_off_c, 2, 64, 0
6, 31440, Note_on_c, 2, 65, 88
6, 31498, Note_off_c, 2, 65, 0
6, 31500, Note_on_c, 2, 67, 88
6, 31558, Note_off_c, 2, 67, 0
6, 31560, Note_on_c, 2, 65, 88
6, 31618, Note_off_c, 2, 65, 0
6, 31620, Note_on_c, 2, 63, 88
6, 31678, Note_off_c, 2, 63, 0
6, 31680, Note_on_c, 2, 61, 88
6, 31738, Note_off_c, 2, 61, 0
6, 31740, Note_on_c, 2, 60, 88
6, 31798, Note_off_c, 2, 60, 0
6, 31800, Note_on_c, 2, 61, 88
6, 31916, Note_off_c, 2, 61, 0
6, 31920, Note_on_c, 2, 65, 88
6, 32036, Note_off_c, 2, 65, 0
6, 32040, Note_on_c, 2, 61, 88
6, 32156, Note_off_c, 2, 61, 0
6, 32160, Note_on_c, 2, 58, 88
6, 32276, Note_off_c, 2, 58, 0
6, 32280, Note_on_c, 2, 63, 88
6, 32338, Note_off_c, 2, 63, 0
6, 32340, Note_on_c, 2, 61, 88
6, 32398, Note_off_c, 2, 61, 0
6, 32400, Note_on_c, 2, 63, 88
6, 32458, Note_off_c, 2, 63, 0
6, 32460, Note_on_c, 2, 65, 88
6, 32518, Note_off_c, 2, 65, 0
6, 32520, Note_on_c, 2, 63, 88
6, 32578, Note_off_c, 2, 63, 0
6, 32580, Note_on_c, 2, 61, 88
6, 32638, Note_off_c, 2, 61, 0
6, 32640, Note_on_c, 2, 60, 88
6, 32698, Note_off_c, 2, 60, 0
6, 32700, Note_on_c, 2, 58, 88
6, 32758, Note_off_c, 2, 58, 0
6, 32760, Note_on_c, 2, 60, 88
6, 32876, Note_off_c, 2, 60, 0
6, 32880, Note_on_c, 2, 63, 88
6, 32996, Note_off_c, 2, 63, 0
6, 33000, Note_on_c, 2, 60, 88
6, 33116, Note_off_c, 2, 60, 0
6, 33120, Note_on_c, 2, 56, 88
6, 33236, Note_off_c, 2, 56, 0
6, 33240, Note_on_c, 2, 61, 88
6, 33298, Note_off_c, 2, 61, 0
6, 33300, Note_on_c, 2, 63, 88
6, 33358, Note_off_c, 2, 63, 0
6, 33360, Note_on_c, 2, 61, 88
6, 33418, Note_off_c, 2, 61, 0
6, 33420, Note_on_c, 2, 60, 88
6, 33478, Note_off_c, 2, 60, 0
6, 33480, Note_on_c, 2, 58, 88
6, 33538, Note_off_c, 2, 58, 0
6, 33540, Note_on_c, 2, 56, 88
6, 33598, Note_off_c, 2, 56, 0
6, 33600, Note_on_c, 2, 55, 88
6, 33658, Note_off_c, 2, 55, 0
6, 33660, Note_on_c, 2, 53, 88
6, 33718, Note_off_c, 2, 53, 0
6, 33720, Note_on_c, 2, 55, 88
6, 33778, Note_off_c, 2, 55, 0
6, 33780, Note_on_c, 2, 58, 88
6, 33838, Note_off_c, 2, 58, 0
6, 33840, Note_on_c, 2, 57, 88
6, 33898, Note_off_c, 2, 57, 0
6, 33900, Note_on_c, 2, 55, 88
6, 33958, Note_off_c, 2, 55, 0
6, 33960, Note_on_c, 2, 53, 88
6, 34018, Note_off_c, 2, 53, 0
6, 34020, Note_on_c, 2, 51, 88
6, 34078, Note_off_c, 2, 51, 0
6, 34080, Note_on_c, 2, 49, 88
6, 34138, Note_off_c, 2, 49, 0
6, 34140, Note_on_c, 2, 48, 88
6, 34198, Note_off_c, 2, 48, 0
6, 34200, Note_on_c, 2, 49, 88
6, 34434, Note_off_c, 2, 49, 0
6, 34500, Note_on_c, 2, 49, 88
6, 34558, Note_off_c, 2, 49, 0
6, 34560, Note_on_c, 2, 51, 88
6, 34618, Note_off_c, 2, 51, 0
6, 34620, Note_on_c, 2, 53, 88
6, 34678, Note_off_c, 2, 53, 0
6, 34680, Note_on_c, 2, 54, 88
6, 34796, Note_off_c, 2, 54, 0
6, 35220, Note_on_c, 2, 58, 88
6, 35278, Note_off_c, 2, 58, 0
6, 35280, Note_on_c, 2, 57, 88
6, 35338, Note_off_c, 2, 57, 0
6, 35340, Note_on_c, 2, 55, 88
6, 35398, Note_off_c, 2, 55, 0
6, 35400, Note_on_c, 2, 53, 88
6, 35458, Note_off_c, 2, 53, 0
6, 35460, Note_on_c, 2, 51, 88
6, 35518, Note_off_c, 2, 51, 0
6, 35520, Note_on_c, 2, 49, 88
6, 35578, Note_off_c, 2, 49, 0
6, 35580, Note_on_c, 2, 48, 88
6, 35638, Note_off_c, 2, 48, 0
6, 35640, Note_on_c, 2, 46, 88
6, 35698, Note_off_c, 2, 46, 0
6, 35700, Note_on_c, 2, 48, 88
6, 35758, Note_off_c, 2, 48, 0
6, 35760, Note_on_c, 2, 49, 88
6, 35818, Note_off_c, 2, 49, 0
6, 35820, Note_on_c, 2, 48, 88
6, 35878, Note_off_c, 2, 48, 0
6, 35880, Note_on_c, 2, 46, 88
6, 35938, Note_off_c, 2, 46, 0
6, 35940, Note_on_c, 2, 44, 88
6, 35998, Note_off_c, 2, 44, 0
6, 36000, Note_on_c, 2, 43, 88
6, 36058, Note_off_c, 2, 43, 0
6, 36060, Note_on_c, 2, 41, 88
6, 36118, Note_off_c, 2, 41, 0
6, 36120, Note_on_c, 2, 43, 88
6, 36178, Note_off_c, 2, 43, 0
6, 36180, Note_on_c, 2, 44, 88
6, 36238, Note_off_c, 2, 44, 0
6, 36240, Note_on_c, 2, 46, 88
6, 36298, Note_off_c, 2, 46, 0
6, 36300, Note_on_c, 2, 44, 88
6, 36358, Note_off_c, 2, 44, 0
6, 36360, Note_on_c, 2, 43, 88
6, 36418, Note_off_c, 2, 43, 0
6, 36420, Note_on_c, 2, 41, 88
6, 36478, Note_off_c, 2, 41, 0
6, 36480, Note_on_c, 2, 40, 88
6, 36538, Note_off_c, 2, 40, 0
6, 36540, Note_on_c, 2, 38, 88
6, 36598, Note_off_c, 2, 38, 0
6, 36600, Note_on_c, 2, 36, 88
6, 36716, Note_off_c, 2, 36, 0
6, 36720, Note_on_c, 2, 40, 88
6, 36836, Note_off_c, 2, 40, 0
6, 36840, Note_on_c, 2, 43, 88
6, 36956, Note_off_c, 2, 43, 0
6, 36960, Note_on_c, 2, 48, 88
6, 37138, Note_off_c, 2, 48, 0
6, 37140, Note_on_c, 2, 41, 88
6, 37198, Note_off_c, 2, 41, 0
6, 37200, Note_on_c, 2, 44, 88
6, 37258, Note_off_c, 2, 44, 0
6, 37260, Note_on_c, 2, 48, 88
6, 37318, Note_off_c, 2, 48, 0
6, 37320, Note_on_c, 2, 53, 88
6, 37378, Note_off_c, 2, 53, 0
6, 37380, Note_on_c, 2, 56, 88
6, 37438, Note_off_c, 2, 56, 0
6, 37440, Note_on_c, 2, 55, 88
6, 37498, Note_off_c, 2, 55, 0
6, 37500, Note_on_c, 2, 53, 88
6, 37558, Note_off_c, 2, 53, 0
6, 37560, Note_on_c, 2, 61, 88
6, 37676, Note_off_c, 2, 61, 0
6, 37680, Note_on_c, 2, 58, 88
6, 37796, Note_off_c, 2, 58, 0
6, 37800, Note_on_c, 2, 55, 88
6, 37916, Note_off_c, 2, 55, 0
6, 37920, Note_on_c, 2, 53, 88
6, 38036, Note_off_c, 2, 53, 0
6, 38040, Note_on_c, 2, 36, 88
6, 38098, Note_off_c, 2, 36, 0
6, 38100, Note_on_c, 2, 40, 88
6, 38158, Note_off_c, 2, 40, 0
6, 38160, Note_on_c, 2, 43, 88
6, 38218, Note_off_c, 2, 43, 0
6, 38220, Note_on_c, 2, 48, 88
6, 38278, Note_off_c, 2, 48, 0
6, 38280, Note_on_c, 2, 52, 88
6, 38338, Note_off_c, 2, 52, 0
6, 38340, Note_on_c, 2, 55, 88
6, 38398, Note_off_c, 2, 55, 0
6, 38400, Note_on_c, 2, 53, 88
6, 38458, Note_off_c, 2, 53, 0
6, 38460, Note_on_c, 2, 52, 88
6, 38518, Note_off_c, 2, 52, 0
6, 38520, Note_on_c, 2, 60, 88
6, 38636, Note_off_c, 2, 60, 0
6, 38640, Note_on_c, 2, 56, 88
6, 38756, Note_off_c, 2, 56, 0
6, 38760, Note_on_c, 2, 53, 88
6, 38876, Note_off_c, 2, 53, 0
6, 38880, Note_on_c, 2, 52, 88
6, 38996, Note_off_c, 2, 52, 0
6, 39000, Note_on_c, 2, 36, 88
6, 39058, Note_off_c, 2, 36, 0
6, 39060, Note_on_c, 2, 41, 88
6, 39118, Note_off_c, 2, 41, 0
6, 39120, Note_on_c, 2, 44, 88
6, 39178, Note_off_c, 2, 44, 0
6, 39180, Note_on_c, 2, 48, 88
6, 39238, Note_off_c, 2, 48, 0
6, 39240, Note_on_c, 2, 53, 88
6, 39298, Note_off_c, 2, 53, 0
6, 39300, Note_on_c, 2, 56, 88
6, 39358, Note_off_c, 2, 56, 0
6, 39360, Note_on_c, 2, 55, 88
6, 39418, Note_off_c, 2, 55, 0
6, 39420, Note_on_c, 2, 53, 88
6, 39478, Note_off_c, 2, 53, 0
6, 39480, Note_on_c, 2, 58, 88
6, 39596, Note_off_c, 2, 58, 0
6, 39600, Note_on_c, 2, 55, 88
6, 39716, Note_off_c, 2, 55, 0
6, 39720, Note_on_c, 2, 52, 88
6, 39836, Note_off_c, 2, 52, 0
6, 39840, Note_on_c, 2, 48, 88
6, 39956, Note_off_c, 2, 48, 0
6, 39960, Note_on_c, 2, 49, 88
6, 40076, Note_off_c, 2, 49, 0
6, 40080, Note_on_c, 2, 46, 88
6, 40196, Note_off_c, 2, 46, 0
6, 40200, Note_on_c, 2, 48, 88
6, 40316, Note_off_c, 2, 48, 0
6, 40320, Note_on_c, 2, 36, 88
6, 40436, Note_off_c, 2, 36, 0
6, 40440, Note_on_c, 2, 41, 88
6, 40793, Note_off_c, 2, 41, 0
6, 40793, End_track
0, 0, End_of_file
