0, 0, Header, 1, 6, 240
1, 0, Start_track
1, 0, Time_signature, 2, 1, 24, 8
1, 0, Tempo, 517241
1, 0, SMPTE_offset, 64, 0, 0, 0, 93
1, 0, End_track
2, 0, Start_track
2, 0, Title_t, "(C) & (P) 1993"
2, 127, End_track
3, 0, Start_track
3, 0, Title_t, "CCARH,Stanford"
3, 0, End_track
4, 0, Start_track
4, 0, Title_t, "Track 1"
4, 0, Program_c, 0, 6
4, 3840, Note_on_c, 0, 73, 88
4, 3876, Note_off_c, 0, 73, 0
4, 3878, Note_on_c, 0, 72, 88
4, 3914, Note_off_c, 0, 72, 0
4, 3915, Note_on_c, 0, 73, 88
4, 3951, Note_off_c, 0, 73, 0
4, 3953, Note_on_c, 0, 72, 88
4, 3989, Note_off_c, 0, 72, 0
4, 3990, Note_on_c, 0, 73, 88
4, 4026, Note_off_c, 0, 73, 0
4, 4028, Note_on_c, 0, 72, 88
4, 4064, Note_off_c, 0, 72, 0
4, 4065, Note_on_c, 0, 73, 88
4, 4101, Note_off_c, 0, 73, 0
4, 4103, Note_on_c, 0, 72, 88
4, 4132, Note_off_c, 0, 72, 0
4, 4133, Note_on_c, 0, 73, 88
4, 4162, Note_off_c, 0, 73, 0
4, 4163, Note_on_c, 0, 72, 88
4, 4199, Note_off_c, 0, 72, 0
4, 4200, Note_on_c, 0, 70, 88
4, 4258, Note_off_c, 0, 70, 0
4, 4260, Note_on_c, 0, 72, 88
4, 4318, Note_off_c, 0, 72, 0
4, 4320, Note_on_c, 0, 73, 88
4, 4554, Note_off_c, 0, 73, 0
4, 4800, Note_on_c, 0, 68, 88
4, 5034, Note_off_c, 0, 68, 0
4, 5040, Note_on_c, 0, 70, 88
4, 5274, Note_off_c, 0, 70, 0
4, 5280, Note_on_c, 0, 71, 88
4, 5633, Note_off_c, 0, 71, 0
4, 5640, Note_on_c, 0, 70, 88
4, 5698, Note_off_c, 0, 70, 0
4, 5700, Note_on_c, 0, 68, 88
4, 5758, Note_off_c, 0, 68, 0
4, 5760, Note_on_c, 0, 66, 88
4, 5876, Note_off_c, 0, 66, 0
4, 5880, Note_on_c, 0, 65, 88
4, 5996, Note_off_c, 0, 65, 0
4, 6000, Note_on_c, 0, 66, 88
4, 6116, Note_off_c, 0, 66, 0
4, 6120, Note_on_c, 0, 68, 88
4, 6236, Note_off_c, 0, 68, 0
4, 6240, Note_on_c, 0, 70, 88
4, 6356, Note_off_c, 0, 70, 0
4, 6360, Note_on_c, 0, 72, 88
4, 6476, Note_off_c, 0, 72, 0
4, 6480, Note_on_c, 0, 73, 88
4, 6596, Note_off_c, 0, 73, 0
4, 6600, Note_on_c, 0, 70, 88
4, 6716, Note_off_c, 0, 70, 0
4, 6720, Note_on_c, 0, 75, 88
4, 6954, Note_off_c, 0, 75, 0
4, 6960, Note_on_c, 0, 66, 88
4, 7194, Note_off_c, 0, 66, 0
4, 7200, Note_on_c, 0, 66, 88
4, 7434, Note_off_c, 0, 66, 0
4, 7440, Note_on_c, 0, 65, 88
4, 7556, Note_off_c, 0, 65, 0
4, 7560, Note_on_c, 0, 63, 88
4, 7676, Note_off_c, 0, 63, 0
4, 7680, Note_on_c, 0, 61, 88
4, 7914, Note_off_c, 0, 61, 0
4, 7920, Note_on_c, 0, 71, 88
4, 8154, Note_off_c, 0, 71, 0
4, 8160, Note_on_c, 0, 71, 88
4, 8394, Note_off_c, 0, 71, 0
4, 8400, Note_on_c, 0, 70, 88
4, 8634, Note_off_c, 0, 70, 0
4, 8880, Note_on_c, 0, 69, 88
4, 9114, Note_off_c, 0, 69, 0
4, 9120, Note_on_c, 0, 69, 88
4, 9354, Note_off_c, 0, 69, 0
4, 9360, Note_on_c, 0, 68, 88
4, 9594, Note_off_c, 0, 68, 0
4, 9840, Note_on_c, 0, 68, 88
4, 9956, Note_off_c, 0, 68, 0
4, 9960, Note_on_c, 0, 70, 88
4, 10076, Note_off_c, 0, 70, 0
4, 10080, Note_on_c, 0, 71, 88
4, 10314, Note_off_c, 0, 71, 0
4, 10320, Note_on_c, 0, 63, 88
4, 10554, Note_off_c, 0, 63, 0
4, 10560, Note_on_c, 0, 65, 88
4, 11030, Note_off_c, 0, 65, 0
4, 11040, Note_on_c, 0, 66, 88
4, 11156, Note_off_c, 0, 66, 0
4, 11160, Note_on_c, 0, 65, 88
4, 11276, Note_off_c, 0, 65, 0
4, 11280, Note_on_c, 0, 66, 88
4, 11396, Note_off_c, 0, 66, 0
4, 11400, Note_on_c, 0, 68, 88
4, 11516, Note_off_c, 0, 68, 0
4, 11520, Note_on_c, 0, 70, 88
4, 11636, Note_off_c, 0, 70, 0
4, 11640, Note_on_c, 0, 68, 88
4, 11756, Note_off_c, 0, 68, 0
4, 11760, Note_on_c, 0, 70, 88
4, 11876, Note_off_c, 0, 70, 0
4, 11880, Note_on_c, 0, 66, 88
4, 11996, Note_off_c, 0, 66, 0
4, 12000, Note_on_c, 0, 63, 88
4, 12234, Note_off_c, 0, 63, 0
4, 12240, Note_on_c, 0, 68, 88
4, 12593, Note_off_c, 0, 68, 0
4, 12600, Note_on_c, 0, 66, 88
4, 12716, Note_off_c, 0, 66, 0
4, 12720, Note_on_c, 0, 68, 88
4, 12836, Note_off_c, 0, 68, 0
4, 12840, Note_on_c, 0, 65, 88
4, 12956, Note_off_c, 0, 65, 0
4, 12960, Note_on_c, 0, 66, 88
4, 13076, Note_off_c, 0, 66, 0
4, 13080, Note_on_c, 0, 70, 88
4, 13196, Note_off_c, 0, 70, 0
4, 13200, Note_on_c, 0, 72, 88
4, 13316, Note_off_c, 0, 72, 0
4, 13320, Note_on_c, 0, 74, 88
4, 13436, Note_off_c, 0, 74, 0
4, 13440, Note_on_c, 0, 75, 88
4, 13556, Note_off_c, 0, 75, 0
4, 13560, Note_on_c, 0, 77, 88
4, 13676, Note_off_c, 0, 77, 0
4, 13680, Note_on_c, 0, 78, 88
4, 13796, Note_off_c, 0, 78, 0
4, 13800, Note_on_c, 0, 75, 88
4, 13916, Note_off_c, 0, 75, 0
4, 13920, Note_on_c, 0, 77, 88
4, 14390, Note_off_c, 0, 77, 0
4, 14400, Note_on_c, 0, 80, 88
4, 14436, Note_off_c, 0, 80, 0
4, 14438, Note_on_c, 0, 79, 88
4, 14481, Note_off_c, 0, 79, 0
4, 14483, Note_on_c, 0, 80, 88
4, 14526, Note_off_c, 0, 80, 0
4, 14528, Note_on_c, 0, 79, 88
4, 14571, Note_off_c, 0, 79, 0
4, 14573, Note_on_c, 0, 80, 88
4, 14616, Note_off_c, 0, 80, 0
4, 14618, Note_on_c, 0, 79, 88
4, 14654, Note_off_c, 0, 79, 0
4, 14655, Note_on_c, 0, 80, 88
4, 14691, Note_off_c, 0, 80, 0
4, 14693, Note_on_c, 0, 79, 88
4, 14729, Note_off_c, 0, 79, 0
4, 14730, Note_on_c, 0, 80, 88
4, 14766, Note_off_c, 0, 80, 0
4, 14768, Note_on_c, 0, 79, 88
4, 14804, Note_off_c, 0, 79, 0
4, 14805, Note_on_c, 0, 77, 88
4, 14841, Note_off_c, 0, 77, 0
4, 14843, Note_on_c, 0, 79, 88
4, 14879, Note_off_c, 0, 79, 0
4, 14880, Note_on_c, 0, 80, 88
4, 15114, Note_off_c, 0, 80, 0
4, 15120, Note_on_c, 0, 75, 88
4, 15236, Note_off_c, 0, 75, 0
4, 15240, Note_on_c, 0, 73, 88
4, 15356, Note_off_c, 0, 73, 0
4, 15360, Note_on_c, 0, 71, 88
4, 15594, Note_off_c, 0, 71, 0
4, 15600, Note_on_c, 0, 76, 88
4, 16074, Note_off_c, 0, 76, 0
4, 16080, Note_on_c, 0, 75, 88
4, 16196, Note_off_c, 0, 75, 0
4, 16200, Note_on_c, 0, 73, 88
4, 16316, Note_off_c, 0, 73, 0
4, 16320, Note_on_c, 0, 75, 88
4, 16554, Note_off_c, 0, 75, 0
4, 16560, Note_on_c, 0, 80, 88
4, 16916, Note_off_c, 0, 80, 0
4, 16920, Note_on_c, 0, 78, 88
4, 17036, Note_off_c, 0, 78, 0
4, 17040, Note_on_c, 0, 77, 88
4, 17156, Note_off_c, 0, 77, 0
4, 17160, Note_on_c, 0, 75, 88
4, 17276, Note_off_c, 0, 75, 0
4, 17280, Note_on_c, 0, 73, 88
4, 17396, Note_off_c, 0, 73, 0
4, 17400, Note_on_c, 0, 71, 88
4, 17516, Note_off_c, 0, 71, 0
4, 17520, Note_on_c, 0, 73, 88
4, 17636, Note_off_c, 0, 73, 0
4, 17640, Note_on_c, 0, 70, 88
4, 17756, Note_off_c, 0, 70, 0
4, 17760, Note_on_c, 0, 66, 88
4, 17994, Note_off_c, 0, 66, 0
4, 18000, Note_on_c, 0, 71, 88
4, 18353, Note_off_c, 0, 71, 0
4, 18360, Note_on_c, 0, 70, 88
4, 18476, Note_off_c, 0, 70, 0
4, 18480, Note_on_c, 0, 71, 88
4, 18596, Note_off_c, 0, 71, 0
4, 18600, Note_on_c, 0, 68, 88
4, 18716, Note_off_c, 0, 68, 0
4, 18720, Note_on_c, 0, 70, 88
4, 18836, Note_off_c, 0, 70, 0
4, 18840, Note_on_c, 0, 71, 88
4, 18956, Note_off_c, 0, 71, 0
4, 18960, Note_on_c, 0, 73, 88
4, 19076, Note_off_c, 0, 73, 0
4, 19080, Note_on_c, 0, 75, 88
4, 19196, Note_off_c, 0, 75, 0
4, 19200, Note_on_c, 0, 77, 88
4, 19316, Note_off_c, 0, 77, 0
4, 19320, Note_on_c, 0, 78, 88
4, 19378, Note_off_c, 0, 78, 0
4, 19380, Note_on_c, 0, 77, 88
4, 19438, Note_off_c, 0, 77, 0
4, 19440, Note_on_c, 0, 75, 88
4, 19556, Note_off_c, 0, 75, 0
4, 19560, Note_on_c, 0, 77, 88
4, 19676, Note_off_c, 0, 77, 0
4, 19680, Note_on_c, 0, 78, 88
4, 19914, Note_off_c, 0, 78, 0
4, 20160, Note_on_c, 0, 73, 88
4, 20394, Note_off_c, 0, 73, 0
4, 20400, Note_on_c, 0, 75, 88
4, 20634, Note_off_c, 0, 75, 0
4, 20640, Note_on_c, 0, 76, 88
4, 20993, Note_off_c, 0, 76, 0
4, 21000, Note_on_c, 0, 75, 88
4, 21058, Note_off_c, 0, 75, 0
4, 21060, Note_on_c, 0, 73, 88
4, 21118, Note_off_c, 0, 73, 0
4, 21120, Note_on_c, 0, 71, 88
4, 21236, Note_off_c, 0, 71, 0
4, 21240, Note_on_c, 0, 70, 88
4, 21356, Note_off_c, 0, 70, 0
4, 21360, Note_on_c, 0, 71, 88
4, 21476, Note_off_c, 0, 71, 0
4, 21480, Note_on_c, 0, 73, 88
4, 21596, Note_off_c, 0, 73, 0
4, 21600, Note_on_c, 0, 75, 88
4, 21716, Note_off_c, 0, 75, 0
4, 21720, Note_on_c, 0, 77, 88
4, 21836, Note_off_c, 0, 77, 0
4, 21840, Note_on_c, 0, 78, 88
4, 21956, Note_off_c, 0, 78, 0
4, 21960, Note_on_c, 0, 75, 88
4, 22076, Note_off_c, 0, 75, 0
4, 22080, Note_on_c, 0, 80, 88
4, 22314, Note_off_c, 0, 80, 0
4, 22320, Note_on_c, 0, 71, 88
4, 22554, Note_off_c, 0, 71, 0
4, 22560, Note_on_c, 0, 73, 88
4, 22582, Note_off_c, 0, 73, 0
4, 22583, Note_on_c, 0, 71, 88
4, 22619, Note_off_c, 0, 71, 0
4, 22620, Note_on_c, 0, 73, 88
4, 22656, Note_off_c, 0, 73, 0
4, 22658, Note_on_c, 0, 71, 88
4, 22796, Note_off_c, 0, 71, 0
4, 22800, Note_on_c, 0, 70, 88
4, 23034, Note_off_c, 0, 70, 0
4, 23040, Note_on_c, 0, 78, 88
4, 23274, Note_off_c, 0, 78, 0
4, 23280, Note_on_c, 0, 70, 88
4, 23514, Note_off_c, 0, 70, 0
4, 23520, Note_on_c, 0, 71, 88
4, 23542, Note_off_c, 0, 71, 0
4, 23543, Note_on_c, 0, 70, 88
4, 23579, Note_off_c, 0, 70, 0
4, 23580, Note_on_c, 0, 71, 88
4, 23616, Note_off_c, 0, 71, 0
4, 23618, Note_on_c, 0, 70, 88
4, 23756, Note_off_c, 0, 70, 0
4, 23760, Note_on_c, 0, 68, 88
4, 23994, Note_off_c, 0, 68, 0
4, 24000, Note_on_c, 0, 77, 88
4, 24234, Note_off_c, 0, 77, 0
4, 24240, Note_on_c, 0, 68, 88
4, 24474, Note_off_c, 0, 68, 0
4, 24480, Note_on_c, 0, 70, 88
4, 24502, Note_off_c, 0, 70, 0
4, 24503, Note_on_c, 0, 68, 88
4, 24539, Note_off_c, 0, 68, 0
4, 24540, Note_on_c, 0, 70, 88
4, 24576, Note_off_c, 0, 70, 0
4, 24578, Note_on_c, 0, 68, 88
4, 24716, Note_off_c, 0, 68, 0
4, 24720, Note_on_c, 0, 66, 88
4, 24954, Note_off_c, 0, 66, 0
4, 25200, Note_on_c, 0, 71, 88
4, 25434, Note_off_c, 0, 71, 0
4, 25440, Note_on_c, 0, 71, 88
4, 25674, Note_off_c, 0, 71, 0
4, 25680, Note_on_c, 0, 70, 88
4, 25914, Note_off_c, 0, 70, 0
4, 26160, Note_on_c, 0, 70, 88
4, 26394, Note_off_c, 0, 70, 0
4, 26400, Note_on_c, 0, 70, 88
4, 26634, Note_off_c, 0, 70, 0
4, 26640, Note_on_c, 0, 68, 88
4, 26874, Note_off_c, 0, 68, 0
4, 26880, Note_on_c, 0, 80, 88
4, 27114, Note_off_c, 0, 80, 0
4, 27120, Note_on_c, 0, 72, 88
4, 27354, Note_off_c, 0, 72, 0
4, 27360, Note_on_c, 0, 73, 88
4, 27382, Note_off_c, 0, 73, 0
4, 27383, Note_on_c, 0, 72, 88
4, 27419, Note_off_c, 0, 72, 0
4, 27420, Note_on_c, 0, 73, 88
4, 27456, Note_off_c, 0, 73, 0
4, 27458, Note_on_c, 0, 72, 88
4, 27596, Note_off_c, 0, 72, 0
4, 27600, Note_on_c, 0, 70, 88
4, 27834, Note_off_c, 0, 70, 0
4, 27840, Note_on_c, 0, 79, 88
4, 28074, Note_off_c, 0, 79, 0
4, 28080, Note_on_c, 0, 70, 88
4, 28314, Note_off_c, 0, 70, 0
4, 28320, Note_on_c, 0, 72, 88
4, 28342, Note_off_c, 0, 72, 0
4, 28343, Note_on_c, 0, 70, 88
4, 28379, Note_off_c, 0, 70, 0
4, 28380, Note_on_c, 0, 72, 88
4, 28416, Note_off_c, 0, 72, 0
4, 28418, Note_on_c, 0, 70, 88
4, 28556, Note_off_c, 0, 70, 0
4, 28560, Note_on_c, 0, 68, 88
4, 28794, Note_off_c, 0, 68, 0
4, 29040, Note_on_c, 0, 73, 88
4, 29274, Note_off_c, 0, 73, 0
4, 29280, Note_on_c, 0, 73, 88
4, 29514, Note_off_c, 0, 73, 0
4, 29520, Note_on_c, 0, 72, 88
4, 29754, Note_off_c, 0, 72, 0
4, 30000, Note_on_c, 0, 72, 88
4, 30234, Note_off_c, 0, 72, 0
4, 30240, Note_on_c, 0, 72, 88
4, 30474, Note_off_c, 0, 72, 0
4, 30480, Note_on_c, 0, 70, 88
4, 30714, Note_off_c, 0, 70, 0
4, 30720, Note_on_c, 0, 75, 88
4, 30836, Note_off_c, 0, 75, 0
4, 30840, Note_on_c, 0, 73, 88
4, 30956, Note_off_c, 0, 73, 0
4, 30960, Note_on_c, 0, 75, 88
4, 31194, Note_off_c, 0, 75, 0
4, 31200, Note_on_c, 0, 68, 88
4, 31553, Note_off_c, 0, 68, 0
4, 31560, Note_on_c, 0, 70, 88
4, 31676, Note_off_c, 0, 70, 0
4, 31680, Note_on_c, 0, 71, 88
4, 31914, Note_off_c, 0, 71, 0
4, 31920, Note_on_c, 0, 73, 88
4, 32154, Note_off_c, 0, 73, 0
4, 32160, Note_on_c, 0, 66, 88
4, 32513, Note_off_c, 0, 66, 0
4, 32520, Note_on_c, 0, 68, 88
4, 32636, Note_off_c, 0, 68, 0
4, 32640, Note_on_c, 0, 70, 88
4, 32756, Note_off_c, 0, 70, 0
4, 32760, Note_on_c, 0, 68, 88
4, 32876, Note_off_c, 0, 68, 0
4, 32880, Note_on_c, 0, 70, 88
4, 32996, Note_off_c, 0, 70, 0
4, 33000, Note_on_c, 0, 72, 88
4, 33116, Note_off_c, 0, 72, 0
4, 33120, Note_on_c, 0, 73, 88
4, 33354, Note_off_c, 0, 73, 0
4, 33360, Note_on_c, 0, 70, 88
4, 33594, Note_off_c, 0, 70, 0
4, 33600, Note_on_c, 0, 72, 88
4, 34070, Note_off_c, 0, 72, 0
4, 34080, Note_on_c, 0, 73, 88
4, 34314, Note_off_c, 0, 73, 0
4, 35280, Note_on_c, 0, 73, 88
4, 35396, Note_off_c, 0, 73, 0
4, 35400, Note_on_c, 0, 75, 88
4, 35516, Note_off_c, 0, 75, 0
4, 35520, Note_on_c, 0, 76, 88
4, 35636, Note_off_c, 0, 76, 0
4, 35640, Note_on_c, 0, 75, 88
4, 35756, Note_off_c, 0, 75, 0
4, 35760, Note_on_c, 0, 78, 88
4, 35876, Note_off_c, 0, 78, 0
4, 35880, Note_on_c, 0, 73, 88
4, 35996, Note_off_c, 0, 73, 0
4, 36000, Note_on_c, 0, 71, 88
4, 36116, Note_off_c, 0, 71, 0
4, 36120, Note_on_c, 0, 70, 88
4, 36236, Note_off_c, 0, 70, 0
4, 36240, Note_on_c, 0, 71, 88
4, 36356, Note_off_c, 0, 71, 0
4, 36360, Note_on_c, 0, 73, 88
4, 36476, Note_off_c, 0, 73, 0
4, 36480, Note_on_c, 0, 75, 88
4, 36596, Note_off_c, 0, 75, 0
4, 36600, Note_on_c, 0, 73, 88
4, 36716, Note_off_c, 0, 73, 0
4, 36720, Note_on_c, 0, 76, 88
4, 36836, Note_off_c, 0, 76, 0
4, 36840, Note_on_c, 0, 68, 88
4, 36956, Note_off_c, 0, 68, 0
4, 36960, Note_on_c, 0, 66, 88
4, 37194, Note_off_c, 0, 66, 0
4, 37200, Note_on_c, 0, 71, 88
4, 37553, Note_off_c, 0, 71, 0
4, 37560, Note_on_c, 0, 70, 88
4, 37676, Note_off_c, 0, 70, 0
4, 37680, Note_on_c, 0, 68, 88
4, 37796, Note_off_c, 0, 68, 0
4, 37800, Note_on_c, 0, 80, 88
4, 37916, Note_off_c, 0, 80, 0
4, 37920, Note_on_c, 0, 73, 88
4, 38036, Note_off_c, 0, 73, 0
4, 38040, Note_on_c, 0, 77, 88
4, 38156, Note_off_c, 0, 77, 0
4, 38160, Note_on_c, 0, 78, 88
4, 38276, Note_off_c, 0, 78, 0
4, 38280, Note_on_c, 0, 82, 88
4, 38396, Note_off_c, 0, 82, 0
4, 38400, Note_on_c, 0, 75, 88
4, 38436, Note_off_c, 0, 75, 0
4, 38438, Note_on_c, 0, 74, 88
4, 38474, Note_off_c, 0, 74, 0
4, 38475, Note_on_c, 0, 75, 88
4, 38511, Note_off_c, 0, 75, 0
4, 38513, Note_on_c, 0, 74, 88
4, 38549, Note_off_c, 0, 74, 0
4, 38550, Note_on_c, 0, 75, 88
4, 38586, Note_off_c, 0, 75, 0
4, 38588, Note_on_c, 0, 74, 88
4, 38624, Note_off_c, 0, 74, 0
4, 38625, Note_on_c, 0, 75, 88
4, 38661, Note_off_c, 0, 75, 0
4, 38663, Note_on_c, 0, 74, 88
4, 38692, Note_off_c, 0, 74, 0
4, 38693, Note_on_c, 0, 75, 88
4, 38722, Note_off_c, 0, 75, 0
4, 38723, Note_on_c, 0, 74, 88
4, 38759, Note_off_c, 0, 74, 0
4, 38760, Note_on_c, 0, 72, 88
4, 38818, Note_off_c, 0, 72, 0
4, 38820, Note_on_c, 0, 74, 88
4, 38878, Note_off_c, 0, 74, 0
4, 38880, Note_on_c, 0, 75, 88
4, 39114, Note_off_c, 0, 75, 0
4, 39360, Note_on_c, 0, 70, 88
4, 39594, Note_off_c, 0, 70, 0
4, 39600, Note_on_c, 0, 72, 88
4, 39834, Note_off_c, 0, 72, 0
4, 39840, Note_on_c, 0, 73, 88
4, 40193, Note_off_c, 0, 73, 0
4, 40200, Note_on_c, 0, 72, 88
4, 40258, Note_off_c, 0, 72, 0
4, 40260, Note_on_c, 0, 70, 88
4, 40318, Note_off_c, 0, 70, 0
4, 40320, Note_on_c, 0, 68, 88
4, 40436, Note_off_c, 0, 68, 0
4, 40440, Note_on_c, 0, 67, 88
4, 40556, Note_off_c, 0, 67, 0
4, 40560, Note_on_c, 0, 68, 88
4, 40676, Note_off_c, 0, 68, 0
4, 40680, Note_on_c, 0, 70, 88
4, 40796, Note_off_c, 0, 70, 0
4, 40800, Note_on_c, 0, 72, 88
4, 40916, Note_off_c, 0, 72, 0
4, 40920, Note_on_c, 0, 74, 88
4, 41036, Note_off_c, 0, 74, 0
4, 41040, Note_on_c, 0, 75, 88
4, 41156, Note_off_c, 0, 75, 0
4, 41160, Note_on_c, 0, 72, 88
4, 41276, Note_off_c, 0, 72, 0
4, 41280, Note_on_c, 0, 77, 88
4, 41514, Note_off_c, 0, 77, 0
4, 41520, Note_on_c, 0, 68, 88
4, 41754, Note_off_c, 0, 68, 0
4, 41760, Note_on_c, 0, 70, 88
4, 41782, Note_off_c, 0, 70, 0
4, 41783, Note_on_c, 0, 68, 88
4, 41819, Note_off_c, 0, 68, 0
4, 41820, Note_on_c, 0, 70, 88
4, 41856, Note_off_c, 0, 70, 0
4, 41858, Note_on_c, 0, 68, 88
4, 41996, Note_off_c, 0, 68, 0
4, 42000, Note_on_c, 0, 66, 88
4, 42116, Note_off_c, 0, 66, 0
4, 42120, Note_on_c, 0, 65, 88
4, 42236, Note_off_c, 0, 65, 0
4, 42240, Note_on_c, 0, 66, 88
4, 42474, Note_off_c, 0, 66, 0
4, 42480, Note_on_c, 0, 68, 88
4, 42714, Note_off_c, 0, 68, 0
4, 42720, Note_on_c, 0, 65, 88
4, 43190, Note_off_c, 0, 65, 0
4, 43200, Note_on_c, 0, 68, 88
4, 43236, Note_off_c, 0, 68, 0
4, 43238, Note_on_c, 0, 67, 88
4, 43281, Note_off_c, 0, 67, 0
4, 43283, Note_on_c, 0, 68, 88
4, 43326, Note_off_c, 0, 68, 0
4, 43328, Note_on_c, 0, 67, 88
4, 43371, Note_off_c, 0, 67, 0
4, 43373, Note_on_c, 0, 68, 88
4, 43416, Note_off_c, 0, 68, 0
4, 43418, Note_on_c, 0, 67, 88
4, 43454, Note_off_c, 0, 67, 0
4, 43455, Note_on_c, 0, 68, 88
4, 43491, Note_off_c, 0, 68, 0
4, 43493, Note_on_c, 0, 67, 88
4, 43529, Note_off_c, 0, 67, 0
4, 43530, Note_on_c, 0, 68, 88
4, 43566, Note_off_c, 0, 68, 0
4, 43568, Note_on_c, 0, 67, 88
4, 43604, Note_off_c, 0, 67, 0
4, 43605, Note_on_c, 0, 65, 88
4, 43641, Note_off_c, 0, 65, 0
4, 43643, Note_on_c, 0, 67, 88
4, 43679, Note_off_c, 0, 67, 0
4, 43680, Note_on_c, 0, 68, 88
4, 44150, Note_off_c, 0, 68, 0
4, 44400, Note_on_c, 0, 76, 88
4, 44874, Note_off_c, 0, 76, 0
4, 44880, Note_on_c, 0, 75, 88
4, 44996, Note_off_c, 0, 75, 0
4, 45000, Note_on_c, 0, 73, 88
4, 45116, Note_off_c, 0, 73, 0
4, 45120, Note_on_c, 0, 75, 88
4, 45354, Note_off_c, 0, 75, 0
4, 45360, Note_on_c, 0, 80, 88
4, 45716, Note_off_c, 0, 80, 0
4, 45720, Note_on_c, 0, 78, 88
4, 45836, Note_off_c, 0, 78, 0
4, 45840, Note_on_c, 0, 77, 88
4, 45956, Note_off_c, 0, 77, 0
4, 45960, Note_on_c, 0, 75, 88
4, 46076, Note_off_c, 0, 75, 0
4, 46080, Note_on_c, 0, 73, 88
4, 46196, Note_off_c, 0, 73, 0
4, 46200, Note_on_c, 0, 72, 88
4, 46316, Note_off_c, 0, 72, 0
4, 46320, Note_on_c, 0, 73, 88
4, 46436, Note_off_c, 0, 73, 0
4, 46440, Note_on_c, 0, 77, 88
4, 46556, Note_off_c, 0, 77, 0
4, 46560, Note_on_c, 0, 78, 88
4, 46676, Note_off_c, 0, 78, 0
4, 46680, Note_on_c, 0, 71, 88
4, 46796, Note_off_c, 0, 71, 0
4, 46800, Note_on_c, 0, 83, 88
4, 47153, Note_off_c, 0, 83, 0
4, 47160, Note_on_c, 0, 82, 88
4, 47276, Note_off_c, 0, 82, 0
4, 47280, Note_on_c, 0, 83, 88
4, 47396, Note_off_c, 0, 83, 0
4, 47400, Note_on_c, 0, 80, 88
4, 47516, Note_off_c, 0, 80, 0
4, 47520, Note_on_c, 0, 82, 88
4, 47754, Note_off_c, 0, 82, 0
4, 47760, Note_on_c, 0, 78, 88
4, 47994, Note_off_c, 0, 78, 0
4, 48000, Note_on_c, 0, 83, 88
4, 48353, Note_off_c, 0, 83, 0
4, 48360, Note_on_c, 0, 78, 88
4, 48476, Note_off_c, 0, 78, 0
4, 48480, Note_on_c, 0, 80, 88
4, 48950, Note_off_c, 0, 80, 0
4, 48960, Note_on_c, 0, 83, 88
4, 48996, Note_off_c, 0, 83, 0
4, 48998, Note_on_c, 0, 82, 88
4, 49041, Note_off_c, 0, 82, 0
4, 49043, Note_on_c, 0, 83, 88
4, 49086, Note_off_c, 0, 83, 0
4, 49088, Note_on_c, 0, 82, 88
4, 49131, Note_off_c, 0, 82, 0
4, 49133, Note_on_c, 0, 83, 88
4, 49176, Note_off_c, 0, 83, 0
4, 49178, Note_on_c, 0, 82, 88
4, 49214, Note_off_c, 0, 82, 0
4, 49215, Note_on_c, 0, 83, 88
4, 49251, Note_off_c, 0, 83, 0
4, 49253, Note_on_c, 0, 82, 88
4, 49289, Note_off_c, 0, 82, 0
4, 49290, Note_on_c, 0, 83, 88
4, 49326, Note_off_c, 0, 83, 0
4, 49328, Note_on_c, 0, 82, 88
4, 49364, Note_off_c, 0, 82, 0
4, 49365, Note_on_c, 0, 80, 88
4, 49401, Note_off_c, 0, 80, 0
4, 49403, Note_on_c, 0, 82, 88
4, 49439, Note_off_c, 0, 82, 0
4, 49440, Note_on_c, 0, 83, 88
4, 49674, Note_off_c, 0, 83, 0
4, 49680, Note_on_c, 0, 75, 88
4, 49796, Note_off_c, 0, 75, 0
4, 49800, Note_on_c, 0, 71, 88
4, 49916, Note_off_c, 0, 71, 0
4, 49920, Note_on_c, 0, 73, 88
4, 50036, Note_off_c, 0, 73, 0
4, 50040, Note_on_c, 0, 75, 88
4, 50156, Note_off_c, 0, 75, 0
4, 50160, Note_on_c, 0, 76, 88
4, 50394, Note_off_c, 0, 76, 0
4, 50400, Note_on_c, 0, 76, 88
4, 50634, Note_off_c, 0, 76, 0
4, 50640, Note_on_c, 0, 75, 88
4, 50874, Note_off_c, 0, 75, 0
4, 51120, Note_on_c, 0, 74, 88
4, 51354, Note_off_c, 0, 74, 0
4, 51360, Note_on_c, 0, 74, 88
4, 51594, Note_off_c, 0, 74, 0
4, 51600, Note_on_c, 0, 73, 88
4, 51834, Note_off_c, 0, 73, 0
4, 52080, Note_on_c, 0, 73, 88
4, 52196, Note_off_c, 0, 73, 0
4, 52200, Note_on_c, 0, 75, 88
4, 52316, Note_off_c, 0, 75, 0
4, 52320, Note_on_c, 0, 76, 88
4, 52910, Note_off_c, 0, 76, 0
4, 52920, Note_on_c, 0, 71, 88
4, 53036, Note_off_c, 0, 71, 0
4, 53040, Note_on_c, 0, 70, 88
4, 53156, Note_off_c, 0, 70, 0
4, 53160, Note_on_c, 0, 73, 88
4, 53396, Note_off_c, 0, 73, 0
4, 53400, Note_on_c, 0, 66, 88
4, 53516, Note_off_c, 0, 66, 0
4, 53520, Note_on_c, 0, 71, 88
4, 53636, Note_off_c, 0, 71, 0
4, 53640, Note_on_c, 0, 70, 88
4, 53756, Note_off_c, 0, 70, 0
4, 53760, Note_on_c, 0, 71, 88
4, 53985, Note_off_c, 0, 71, 0
4, 54000, Note_on_c, 0, 71, 88
4, 54234, Note_off_c, 0, 71, 0
4, 54240, Note_on_c, 0, 71, 88
4, 54474, Note_off_c, 0, 71, 0
4, 54480, Note_on_c, 0, 70, 88
4, 54714, Note_off_c, 0, 70, 0
4, 54960, Note_on_c, 0, 70, 88
4, 55194, Note_off_c, 0, 70, 0
4, 55200, Note_on_c, 0, 70, 88
4, 55434, Note_off_c, 0, 70, 0
4, 55440, Note_on_c, 0, 68, 88
4, 55674, Note_off_c, 0, 68, 0
4, 55680, Note_on_c, 0, 76, 88
4, 55914, Note_off_c, 0, 76, 0
4, 55920, Note_on_c, 0, 68, 88
4, 56154, Note_off_c, 0, 68, 0
4, 56160, Note_on_c, 0, 69, 88
4, 56182, Note_off_c, 0, 69, 0
4, 56183, Note_on_c, 0, 68, 88
4, 56226, Note_off_c, 0, 68, 0
4, 56228, Note_on_c, 0, 69, 88
4, 56264, Note_off_c, 0, 69, 0
4, 56265, Note_on_c, 0, 68, 88
4, 56396, Note_off_c, 0, 68, 0
4, 56400, Note_on_c, 0, 66, 88
4, 56634, Note_off_c, 0, 66, 0
4, 56640, Note_on_c, 0, 75, 88
4, 56874, Note_off_c, 0, 75, 0
4, 56880, Note_on_c, 0, 66, 88
4, 57114, Note_off_c, 0, 66, 0
4, 57120, Note_on_c, 0, 68, 88
4, 57142, Note_off_c, 0, 68, 0
4, 57143, Note_on_c, 0, 66, 88
4, 57186, Note_off_c, 0, 66, 0
4, 57188, Note_on_c, 0, 68, 88
4, 57224, Note_off_c, 0, 68, 0
4, 57225, Note_on_c, 0, 66, 88
4, 57356, Note_off_c, 0, 66, 0
4, 57360, Note_on_c, 0, 65, 88
4, 57594, Note_off_c, 0, 65, 0
4, 57840, Note_on_c, 0, 73, 88
4, 58074, Note_off_c, 0, 73, 0
4, 58080, Note_on_c, 0, 73, 88
4, 58314, Note_off_c, 0, 73, 0
4, 58320, Note_on_c, 0, 72, 88
4, 58554, Note_off_c, 0, 72, 0
4, 58800, Note_on_c, 0, 72, 88
4, 59034, Note_off_c, 0, 72, 0
4, 59040, Note_on_c, 0, 72, 88
4, 59274, Note_off_c, 0, 72, 0
4, 59280, Note_on_c, 0, 70, 88
4, 59514, Note_off_c, 0, 70, 0
4, 59520, Note_on_c, 0, 78, 88
4, 59754, Note_off_c, 0, 78, 0
4, 59760, Note_on_c, 0, 70, 88
4, 59994, Note_off_c, 0, 70, 0
4, 60000, Note_on_c, 0, 71, 88
4, 60022, Note_off_c, 0, 71, 0
4, 60023, Note_on_c, 0, 70, 88
4, 60066, Note_off_c, 0, 70, 0
4, 60068, Note_on_c, 0, 71, 88
4, 60104, Note_off_c, 0, 71, 0
4, 60105, Note_on_c, 0, 70, 88
4, 60236, Note_off_c, 0, 70, 0
4, 60240, Note_on_c, 0, 68, 88
4, 60474, Note_off_c, 0, 68, 0
4, 60480, Note_on_c, 0, 77, 88
4, 60714, Note_off_c, 0, 77, 0
4, 60720, Note_on_c, 0, 68, 88
4, 60954, Note_off_c, 0, 68, 0
4, 60960, Note_on_c, 0, 70, 88
4, 60982, Note_off_c, 0, 70, 0
4, 60983, Note_on_c, 0, 68, 88
4, 61026, Note_off_c, 0, 68, 0
4, 61028, Note_on_c, 0, 70, 88
4, 61064, Note_off_c, 0, 70, 0
4, 61065, Note_on_c, 0, 68, 88
4, 61196, Note_off_c, 0, 68, 0
4, 61200, Note_on_c, 0, 66, 88
4, 61434, Note_off_c, 0, 66, 0
4, 61680, Note_on_c, 0, 71, 88
4, 61914, Note_off_c, 0, 71, 0
4, 61920, Note_on_c, 0, 71, 88
4, 62154, Note_off_c, 0, 71, 0
4, 62160, Note_on_c, 0, 70, 88
4, 62394, Note_off_c, 0, 70, 0
4, 62640, Note_on_c, 0, 69, 88
4, 62874, Note_off_c, 0, 69, 0
4, 62880, Note_on_c, 0, 69, 88
4, 63114, Note_off_c, 0, 69, 0
4, 63120, Note_on_c, 0, 68, 88
4, 63354, Note_off_c, 0, 68, 0
4, 63600, Note_on_c, 0, 68, 88
4, 63834, Note_off_c, 0, 68, 0
4, 63840, Note_on_c, 0, 66, 88
4, 64074, Note_off_c, 0, 66, 0
4, 64080, Note_on_c, 0, 71, 88
4, 64550, Note_off_c, 0, 71, 0
4, 64560, Note_on_c, 0, 70, 88
4, 64676, Note_off_c, 0, 70, 0
4, 64680, Note_on_c, 0, 68, 88
4, 64796, Note_off_c, 0, 68, 0
4, 64800, Note_on_c, 0, 66, 88
4, 65034, Note_off_c, 0, 66, 0
4, 72960, Note_on_c, 0, 78, 88
4, 72996, Note_off_c, 0, 78, 0
4, 72998, Note_on_c, 0, 77, 88
4, 73034, Note_off_c, 0, 77, 0
4, 73035, Note_on_c, 0, 78, 88
4, 73071, Note_off_c, 0, 78, 0
4, 73073, Note_on_c, 0, 77, 88
4, 73109, Note_off_c, 0, 77, 0
4, 73110, Note_on_c, 0, 78, 88
4, 73146, Note_off_c, 0, 78, 0
4, 73148, Note_on_c, 0, 77, 88
4, 73184, Note_off_c, 0, 77, 0
4, 73185, Note_on_c, 0, 78, 88
4, 73221, Note_off_c, 0, 78, 0
4, 73223, Note_on_c, 0, 77, 88
4, 73252, Note_off_c, 0, 77, 0
4, 73253, Note_on_c, 0, 78, 88
4, 73282, Note_off_c, 0, 78, 0
4, 73283, Note_on_c, 0, 77, 88
4, 73319, Note_off_c, 0, 77, 0
4, 73320, Note_on_c, 0, 75, 88
4, 73378, Note_off_c, 0, 75, 0
4, 73380, Note_on_c, 0, 77, 88
4, 73438, Note_off_c, 0, 77, 0
4, 73440, Note_on_c, 0, 78, 88
4, 73674, Note_off_c, 0, 78, 0
4, 73920, Note_on_c, 0, 73, 88
4, 74154, Note_off_c, 0, 73, 0
4, 74160, Note_on_c, 0, 75, 88
4, 74394, Note_off_c, 0, 75, 0
4, 74400, Note_on_c, 0, 76, 88
4, 74753, Note_off_c, 0, 76, 0
4, 74760, Note_on_c, 0, 75, 88
4, 74818, Note_off_c, 0, 75, 0
4, 74820, Note_on_c, 0, 73, 88
4, 74878, Note_off_c, 0, 73, 0
4, 74880, Note_on_c, 0, 71, 88
4, 74996, Note_off_c, 0, 71, 0
4, 75000, Note_on_c, 0, 70, 88
4, 75116, Note_off_c, 0, 70, 0
4, 75120, Note_on_c, 0, 71, 88
4, 75236, Note_off_c, 0, 71, 0
4, 75240, Note_on_c, 0, 73, 88
4, 75356, Note_off_c, 0, 73, 0
4, 75360, Note_on_c, 0, 75, 88
4, 75476, Note_off_c, 0, 75, 0
4, 75480, Note_on_c, 0, 77, 88
4, 75596, Note_off_c, 0, 77, 0
4, 75600, Note_on_c, 0, 78, 88
4, 75716, Note_off_c, 0, 78, 0
4, 75720, Note_on_c, 0, 75, 88
4, 75836, Note_off_c, 0, 75, 0
4, 75840, Note_on_c, 0, 80, 88
4, 76074, Note_off_c, 0, 80, 0
4, 76080, Note_on_c, 0, 71, 88
4, 76314, Note_off_c, 0, 71, 0
4, 76320, Note_on_c, 0, 71, 88
4, 76554, Note_off_c, 0, 71, 0
4, 76560, Note_on_c, 0, 70, 88
4, 76794, Note_off_c, 0, 70, 0
4, 76800, Note_on_c, 0, 82, 88
4, 77034, Note_off_c, 0, 82, 0
4, 77040, Note_on_c, 0, 73, 88
4, 77274, Note_off_c, 0, 73, 0
4, 77280, Note_on_c, 0, 75, 88
4, 77302, Note_off_c, 0, 75, 0
4, 77303, Note_on_c, 0, 73, 88
4, 77339, Note_off_c, 0, 73, 0
4, 77340, Note_on_c, 0, 75, 88
4, 77376, Note_off_c, 0, 75, 0
4, 77378, Note_on_c, 0, 73, 88
4, 77516, Note_off_c, 0, 73, 0
4, 77520, Note_on_c, 0, 71, 88
4, 77754, Note_off_c, 0, 71, 0
4, 77760, Note_on_c, 0, 83, 88
4, 77994, Note_off_c, 0, 83, 0
4, 78000, Note_on_c, 0, 75, 88
4, 78234, Note_off_c, 0, 75, 0
4, 78240, Note_on_c, 0, 77, 88
4, 78262, Note_off_c, 0, 77, 0
4, 78263, Note_on_c, 0, 75, 88
4, 78306, Note_off_c, 0, 75, 0
4, 78308, Note_on_c, 0, 77, 88
4, 78344, Note_off_c, 0, 77, 0
4, 78345, Note_on_c, 0, 75, 88
4, 78476, Note_off_c, 0, 75, 0
4, 78480, Note_on_c, 0, 73, 88
4, 78596, Note_off_c, 0, 73, 0
4, 78600, Note_on_c, 0, 75, 88
4, 78716, Note_off_c, 0, 75, 0
4, 78720, Note_on_c, 0, 77, 88
4, 78836, Note_off_c, 0, 77, 0
4, 78840, Note_on_c, 0, 78, 88
4, 78956, Note_off_c, 0, 78, 0
4, 78960, Note_on_c, 0, 80, 88
4, 79076, Note_off_c, 0, 80, 0
4, 79080, Note_on_c, 0, 77, 88
4, 79196, Note_off_c, 0, 77, 0
4, 79200, Note_on_c, 0, 78, 88
4, 79553, Note_off_c, 0, 78, 0
4, 79560, Note_on_c, 0, 80, 88
4, 79676, Note_off_c, 0, 80, 0
4, 79680, Note_on_c, 0, 78, 88
4, 79716, Note_off_c, 0, 78, 0
4, 79718, Note_on_c, 0, 77, 88
4, 79754, Note_off_c, 0, 77, 0
4, 79755, Note_on_c, 0, 78, 88
4, 79791, Note_off_c, 0, 78, 0
4, 79793, Note_on_c, 0, 77, 88
4, 79829, Note_off_c, 0, 77, 0
4, 79830, Note_on_c, 0, 78, 88
4, 79859, Note_off_c, 0, 78, 0
4, 79860, Note_on_c, 0, 77, 88
4, 79889, Note_off_c, 0, 77, 0
4, 79890, Note_on_c, 0, 78, 88
4, 79919, Note_off_c, 0, 78, 0
4, 79920, Note_on_c, 0, 77, 88
4, 80036, Note_off_c, 0, 77, 0
4, 80040, Note_on_c, 0, 78, 88
4, 80156, Note_off_c, 0, 78, 0
4, 80160, Note_on_c, 0, 78, 88
4, 80630, Note_off_c, 0, 78, 0
4, 80630, End_track
5, 0, Start_track
5, 0, Title_t, "Track 2"
5, 0, Program_c, 1, 6
5, 0, Note_on_c, 1, 66, 88
5, 36, Note_off_c, 1, 66, 0
5, 38, Note_on_c, 1, 65, 88
5, 74, Note_off_c, 1, 65, 0
5, 75, Note_on_c, 1, 66, 88
5, 111, Note_off_c, 1, 66, 0
5, 113, Note_on_c, 1, 65, 88
5, 149, Note_off_c, 1, 65, 0
5, 150, Note_on_c, 1, 66, 88
5, 186, Note_off_c, 1, 66, 0
5, 188, Note_on_c, 1, 65, 88
5, 224, Note_off_c, 1, 65, 0
5, 225, Note_on_c, 1, 66, 88
5, 261, Note_off_c, 1, 66, 0
5, 263, Note_on_c, 1, 65, 88
5, 292, Note_off_c, 1, 65, 0
5, 293, Note_on_c, 1, 66, 88
5, 322, Note_off_c, 1, 66, 0
5, 323, Note_on_c, 1, 65, 88
5, 359, Note_off_c, 1, 65, 0
5, 360, Note_on_c, 1, 63, 88
5, 418, Note_off_c, 1, 63, 0
5, 420, Note_on_c, 1, 65, 88
5, 478, Note_off_c, 1, 65, 0
5, 480, Note_on_c, 1, 66, 88
5, 714, Note_off_c, 1, 66, 0
5, 960, Note_on_c, 1, 61, 88
5, 1194, Note_off_c, 1, 61, 0
5, 1200, Note_on_c, 1, 63, 88
5, 1434, Note_off_c, 1, 63, 0
5, 1440, Note_on_c, 1, 64, 88
5, 1793, Note_off_c, 1, 64, 0
5, 1800, Note_on_c, 1, 63, 88
5, 1858, Note_off_c, 1, 63, 0
5, 1860, Note_on_c, 1, 61, 88
5, 1918, Note_off_c, 1, 61, 0
5, 1920, Note_on_c, 1, 59, 88
5, 2036, Note_off_c, 1, 59, 0
5, 2040, Note_on_c, 1, 58, 88
5, 2156, Note_off_c, 1, 58, 0
5, 2160, Note_on_c, 1, 59, 88
5, 2276, Note_off_c, 1, 59, 0
5, 2280, Note_on_c, 1, 61, 88
5, 2396, Note_off_c, 1, 61, 0
5, 2400, Note_on_c, 1, 63, 88
5, 2516, Note_off_c, 1, 63, 0
5, 2520, Note_on_c, 1, 65, 88
5, 2636, Note_off_c, 1, 65, 0
5, 2640, Note_on_c, 1, 66, 88
5, 2756, Note_off_c, 1, 66, 0
5, 2760, Note_on_c, 1, 63, 88
5, 2876, Note_off_c, 1, 63, 0
5, 2880, Note_on_c, 1, 68, 88
5, 3114, Note_off_c, 1, 68, 0
5, 3120, Note_on_c, 1, 59, 88
5, 3354, Note_off_c, 1, 59, 0
5, 3360, Note_on_c, 1, 61, 88
5, 3382, Note_off_c, 1, 61, 0
5, 3383, Note_on_c, 1, 59, 88
5, 3412, Note_off_c, 1, 59, 0
5, 3413, Note_on_c, 1, 61, 88
5, 3434, Note_off_c, 1, 61, 0
5, 3435, Note_on_c, 1, 59, 88
5, 3457, Note_off_c, 1, 59, 0
5, 3458, Note_on_c, 1, 61, 88
5, 3479, Note_off_c, 1, 61, 0
5, 3480, Note_on_c, 1, 59, 88
5, 3596, Note_off_c, 1, 59, 0
5, 3600, Note_on_c, 1, 58, 88
5, 3716, Note_off_c, 1, 58, 0
5, 3720, Note_on_c, 1, 56, 88
5, 3836, Note_off_c, 1, 56, 0
5, 3840, Note_on_c, 1, 54, 88
5, 4074, Note_off_c, 1, 54, 0
5, 4080, Note_on_c, 1, 66, 88
5, 4314, Note_off_c, 1, 66, 0
5, 4320, Note_on_c, 1, 66, 88
5, 4554, Note_off_c, 1, 66, 0
5, 4560, Note_on_c, 1, 65, 88
5, 4794, Note_off_c, 1, 65, 0
5, 5040, Note_on_c, 1, 64, 88
5, 5274, Note_off_c, 1, 64, 0
5, 5280, Note_on_c, 1, 64, 88
5, 5514, Note_off_c, 1, 64, 0
5, 5520, Note_on_c, 1, 63, 88
5, 5754, Note_off_c, 1, 63, 0
5, 6000, Note_on_c, 1, 63, 88
5, 6116, Note_off_c, 1, 63, 0
5, 6120, Note_on_c, 1, 65, 88
5, 6236, Note_off_c, 1, 65, 0
5, 6240, Note_on_c, 1, 66, 88
5, 6474, Note_off_c, 1, 66, 0
5, 6480, Note_on_c, 1, 58, 88
5, 6714, Note_off_c, 1, 58, 0
5, 6720, Note_on_c, 1, 61, 88
5, 6756, Note_off_c, 1, 61, 0
5, 6758, Note_on_c, 1, 60, 88
5, 6801, Note_off_c, 1, 60, 0
5, 6803, Note_on_c, 1, 61, 88
5, 6846, Note_off_c, 1, 61, 0
5, 6848, Note_on_c, 1, 60, 88
5, 6891, Note_off_c, 1, 60, 0
5, 6893, Note_on_c, 1, 61, 88
5, 6936, Note_off_c, 1, 61, 0
5, 6938, Note_on_c, 1, 60, 88
5, 6974, Note_off_c, 1, 60, 0
5, 6975, Note_on_c, 1, 61, 88
5, 7011, Note_off_c, 1, 61, 0
5, 7013, Note_on_c, 1, 60, 88
5, 7049, Note_off_c, 1, 60, 0
5, 7050, Note_on_c, 1, 61, 88
5, 7086, Note_off_c, 1, 61, 0
5, 7088, Note_on_c, 1, 60, 88
5, 7124, Note_off_c, 1, 60, 0
5, 7125, Note_on_c, 1, 58, 88
5, 7161, Note_off_c, 1, 58, 0
5, 7163, Note_on_c, 1, 60, 88
5, 7199, Note_off_c, 1, 60, 0
5, 7200, Note_on_c, 1, 61, 88
5, 7434, Note_off_c, 1, 61, 0
5, 7440, Note_on_c, 1, 56, 88
5, 7674, Note_off_c, 1, 56, 0
5, 7680, Note_on_c, 1, 61, 88
5, 8513, Note_off_c, 1, 61, 0
5, 8520, Note_on_c, 1, 63, 88
5, 8636, Note_off_c, 1, 63, 0
5, 8640, Note_on_c, 1, 64, 88
5, 8874, Note_off_c, 1, 64, 0
5, 8880, Note_on_c, 1, 66, 88
5, 9114, Note_off_c, 1, 66, 0
5, 9120, Note_on_c, 1, 59, 88
5, 9473, Note_off_c, 1, 59, 0
5, 9480, Note_on_c, 1, 61, 88
5, 9596, Note_off_c, 1, 61, 0
5, 9600, Note_on_c, 1, 63, 88
5, 9834, Note_off_c, 1, 63, 0
5, 9840, Note_on_c, 1, 65, 88
5, 10074, Note_off_c, 1, 65, 0
5, 10080, Note_on_c, 1, 66, 88
5, 10314, Note_off_c, 1, 66, 0
5, 10320, Note_on_c, 1, 59, 88
5, 10790, Note_off_c, 1, 59, 0
5, 10800, Note_on_c, 1, 58, 88
5, 10916, Note_off_c, 1, 58, 0
5, 10920, Note_on_c, 1, 56, 88
5, 11036, Note_off_c, 1, 56, 0
5, 11040, Note_on_c, 1, 54, 88
5, 11510, Note_off_c, 1, 54, 0
5, 11760, Note_on_c, 1, 61, 88
5, 11994, Note_off_c, 1, 61, 0
5, 12000, Note_on_c, 1, 60, 88
5, 12470, Note_off_c, 1, 60, 0
5, 12480, Note_on_c, 1, 63, 88
5, 12516, Note_off_c, 1, 63, 0
5, 12518, Note_on_c, 1, 62, 88
5, 12561, Note_off_c, 1, 62, 0
5, 12563, Note_on_c, 1, 63, 88
5, 12606, Note_off_c, 1, 63, 0
5, 12608, Note_on_c, 1, 62, 88
5, 12651, Note_off_c, 1, 62, 0
5, 12653, Note_on_c, 1, 63, 88
5, 12696, Note_off_c, 1, 63, 0
5, 12698, Note_on_c, 1, 62, 88
5, 12734, Note_off_c, 1, 62, 0
5, 12735, Note_on_c, 1, 63, 88
5, 12771, Note_off_c, 1, 63, 0
5, 12773, Note_on_c, 1, 62, 88
5, 12809, Note_off_c, 1, 62, 0
5, 12810, Note_on_c, 1, 63, 88
5, 12846, Note_off_c, 1, 63, 0
5, 12848, Note_on_c, 1, 62, 88
5, 12884, Note_off_c, 1, 62, 0
5, 12885, Note_on_c, 1, 60, 88
5, 12921, Note_off_c, 1, 60, 0
5, 12923, Note_on_c, 1, 62, 88
5, 12959, Note_off_c, 1, 62, 0
5, 12960, Note_on_c, 1, 63, 88
5, 13430, Note_off_c, 1, 63, 0
5, 13680, Note_on_c, 1, 71, 88
5, 14154, Note_off_c, 1, 71, 0
5, 14160, Note_on_c, 1, 70, 88
5, 14276, Note_off_c, 1, 70, 0
5, 14280, Note_on_c, 1, 68, 88
5, 14396, Note_off_c, 1, 68, 0
5, 14400, Note_on_c, 1, 70, 88
5, 14634, Note_off_c, 1, 70, 0
5, 14640, Note_on_c, 1, 75, 88
5, 14996, Note_off_c, 1, 75, 0
5, 15000, Note_on_c, 1, 73, 88
5, 15116, Note_off_c, 1, 73, 0
5, 15120, Note_on_c, 1, 71, 88
5, 15236, Note_off_c, 1, 71, 0
5, 15240, Note_on_c, 1, 70, 88
5, 15356, Note_off_c, 1, 70, 0
5, 15360, Note_on_c, 1, 68, 88
5, 15476, Note_off_c, 1, 68, 0
5, 15480, Note_on_c, 1, 67, 88
5, 15596, Note_off_c, 1, 67, 0
5, 15600, Note_on_c, 1, 68, 88
5, 15716, Note_off_c, 1, 68, 0
5, 15720, Note_on_c, 1, 64, 88
5, 15836, Note_off_c, 1, 64, 0
5, 15840, Note_on_c, 1, 61, 88
5, 16074, Note_off_c, 1, 61, 0
5, 16080, Note_on_c, 1, 66, 88
5, 16433, Note_off_c, 1, 66, 0
5, 16440, Note_on_c, 1, 65, 88
5, 16556, Note_off_c, 1, 65, 0
5, 16560, Note_on_c, 1, 66, 88
5, 16676, Note_off_c, 1, 66, 0
5, 16680, Note_on_c, 1, 63, 88
5, 16796, Note_off_c, 1, 63, 0
5, 16800, Note_on_c, 1, 65, 88
5, 17034, Note_off_c, 1, 65, 0
5, 17040, Note_on_c, 1, 61, 88
5, 17274, Note_off_c, 1, 61, 0
5, 17280, Note_on_c, 1, 66, 88
5, 17514, Note_off_c, 1, 66, 0
5, 17520, Note_on_c, 1, 64, 88
5, 17754, Note_off_c, 1, 64, 0
5, 17760, Note_on_c, 1, 63, 88
5, 18230, Note_off_c, 1, 63, 0
5, 18240, Note_on_c, 1, 66, 88
5, 18276, Note_off_c, 1, 66, 0
5, 18278, Note_on_c, 1, 65, 88
5, 18321, Note_off_c, 1, 65, 0
5, 18323, Note_on_c, 1, 66, 88
5, 18366, Note_off_c, 1, 66, 0
5, 18368, Note_on_c, 1, 65, 88
5, 18411, Note_off_c, 1, 65, 0
5, 18413, Note_on_c, 1, 66, 88
5, 18456, Note_off_c, 1, 66, 0
5, 18458, Note_on_c, 1, 65, 88
5, 18494, Note_off_c, 1, 65, 0
5, 18495, Note_on_c, 1, 66, 88
5, 18531, Note_off_c, 1, 66, 0
5, 18533, Note_on_c, 1, 65, 88
5, 18569, Note_off_c, 1, 65, 0
5, 18570, Note_on_c, 1, 66, 88
5, 18606, Note_off_c, 1, 66, 0
5, 18608, Note_on_c, 1, 65, 88
5, 18644, Note_off_c, 1, 65, 0
5, 18645, Note_on_c, 1, 63, 88
5, 18681, Note_off_c, 1, 63, 0
5, 18683, Note_on_c, 1, 65, 88
5, 18719, Note_off_c, 1, 65, 0
5, 18720, Note_on_c, 1, 66, 88
5, 18954, Note_off_c, 1, 66, 0
5, 19200, Note_on_c, 1, 68, 88
5, 19670, Note_off_c, 1, 68, 0
5, 19680, Note_on_c, 1, 61, 88
5, 20025, Note_off_c, 1, 61, 0
5, 20040, Note_on_c, 1, 61, 88
5, 20156, Note_off_c, 1, 61, 0
5, 20160, Note_on_c, 1, 66, 88
5, 20630, Note_off_c, 1, 66, 0
5, 20640, Note_on_c, 1, 59, 88
5, 20985, Note_off_c, 1, 59, 0
5, 21000, Note_on_c, 1, 59, 88
5, 21116, Note_off_c, 1, 59, 0
5, 21120, Note_on_c, 1, 64, 88
5, 21590, Note_off_c, 1, 64, 0
5, 21600, Note_on_c, 1, 63, 88
5, 22070, Note_off_c, 1, 63, 0
5, 22080, Note_on_c, 1, 61, 88
5, 23030, Note_off_c, 1, 61, 0
5, 23280, Note_on_c, 1, 66, 88
5, 23514, Note_off_c, 1, 66, 0
5, 23520, Note_on_c, 1, 66, 88
5, 23754, Note_off_c, 1, 66, 0
5, 23760, Note_on_c, 1, 65, 88
5, 23994, Note_off_c, 1, 65, 0
5, 24240, Note_on_c, 1, 65, 88
5, 24474, Note_off_c, 1, 65, 0
5, 24480, Note_on_c, 1, 65, 88
5, 24714, Note_off_c, 1, 65, 0
5, 24720, Note_on_c, 1, 63, 88
5, 24954, Note_off_c, 1, 63, 0
5, 24960, Note_on_c, 1, 71, 88
5, 25194, Note_off_c, 1, 71, 0
5, 25200, Note_on_c, 1, 63, 88
5, 25434, Note_off_c, 1, 63, 0
5, 25440, Note_on_c, 1, 64, 88
5, 25462, Note_off_c, 1, 64, 0
5, 25463, Note_on_c, 1, 63, 88
5, 25506, Note_off_c, 1, 63, 0
5, 25508, Note_on_c, 1, 64, 88
5, 25544, Note_off_c, 1, 64, 0
5, 25545, Note_on_c, 1, 63, 88
5, 25676, Note_off_c, 1, 63, 0
5, 25680, Note_on_c, 1, 61, 88
5, 25914, Note_off_c, 1, 61, 0
5, 25920, Note_on_c, 1, 70, 88
5, 26154, Note_off_c, 1, 70, 0
5, 26160, Note_on_c, 1, 61, 88
5, 26394, Note_off_c, 1, 61, 0
5, 26400, Note_on_c, 1, 63, 88
5, 26422, Note_off_c, 1, 63, 0
5, 26423, Note_on_c, 1, 61, 88
5, 26466, Note_off_c, 1, 61, 0
5, 26468, Note_on_c, 1, 63, 88
5, 26504, Note_off_c, 1, 63, 0
5, 26505, Note_on_c, 1, 61, 88
5, 26636, Note_off_c, 1, 61, 0
5, 26640, Note_on_c, 1, 60, 88
5, 26874, Note_off_c, 1, 60, 0
5, 27120, Note_on_c, 1, 68, 88
5, 27354, Note_off_c, 1, 68, 0
5, 27360, Note_on_c, 1, 68, 88
5, 27594, Note_off_c, 1, 68, 0
5, 27600, Note_on_c, 1, 67, 88
5, 27834, Note_off_c, 1, 67, 0
5, 28080, Note_on_c, 1, 67, 88
5, 28314, Note_off_c, 1, 67, 0
5, 28320, Note_on_c, 1, 67, 88
5, 28554, Note_off_c, 1, 67, 0
5, 28560, Note_on_c, 1, 65, 88
5, 28794, Note_off_c, 1, 65, 0
5, 28800, Note_on_c, 1, 73, 88
5, 29034, Note_off_c, 1, 73, 0
5, 29040, Note_on_c, 1, 65, 88
5, 29274, Note_off_c, 1, 65, 0
5, 29280, Note_on_c, 1, 66, 88
5, 29302, Note_off_c, 1, 66, 0
5, 29303, Note_on_c, 1, 65, 88
5, 29346, Note_off_c, 1, 65, 0
5, 29348, Note_on_c, 1, 66, 88
5, 29384, Note_off_c, 1, 66, 0
5, 29385, Note_on_c, 1, 65, 88
5, 29516, Note_off_c, 1, 65, 0
5, 29520, Note_on_c, 1, 63, 88
5, 29754, Note_off_c, 1, 63, 0
5, 29760, Note_on_c, 1, 72, 88
5, 29994, Note_off_c, 1, 72, 0
5, 30000, Note_on_c, 1, 63, 88
5, 30234, Note_off_c, 1, 63, 0
5, 30240, Note_on_c, 1, 65, 88
5, 30262, Note_off_c, 1, 65, 0
5, 30263, Note_on_c, 1, 63, 88
5, 30306, Note_off_c, 1, 63, 0
5, 30308, Note_on_c, 1, 65, 88
5, 30344, Note_off_c, 1, 65, 0
5, 30345, Note_on_c, 1, 63, 88
5, 30476, Note_off_c, 1, 63, 0
5, 30480, Note_on_c, 1, 61, 88
5, 30714, Note_off_c, 1, 61, 0
5, 30960, Note_on_c, 1, 66, 88
5, 31194, Note_off_c, 1, 66, 0
5, 31200, Note_on_c, 1, 66, 88
5, 31434, Note_off_c, 1, 66, 0
5, 31440, Note_on_c, 1, 65, 88
5, 31674, Note_off_c, 1, 65, 0
5, 31920, Note_on_c, 1, 64, 88
5, 32154, Note_off_c, 1, 64, 0
5, 32160, Note_on_c, 1, 64, 88
5, 32394, Note_off_c, 1, 64, 0
5, 32400, Note_on_c, 1, 63, 88
5, 32634, Note_off_c, 1, 63, 0
5, 32880, Note_on_c, 1, 63, 88
5, 33114, Note_off_c, 1, 63, 0
5, 33120, Note_on_c, 1, 61, 88
5, 33354, Note_off_c, 1, 61, 0
5, 33360, Note_on_c, 1, 66, 88
5, 33830, Note_off_c, 1, 66, 0
5, 33840, Note_on_c, 1, 65, 88
5, 33956, Note_off_c, 1, 65, 0
5, 33960, Note_on_c, 1, 63, 88
5, 34076, Note_off_c, 1, 63, 0
5, 34080, Note_on_c, 1, 68, 88
5, 34196, Note_off_c, 1, 68, 0
5, 34200, Note_on_c, 1, 66, 88
5, 34316, Note_off_c, 1, 66, 0
5, 34320, Note_on_c, 1, 68, 88
5, 34436, Note_off_c, 1, 68, 0
5, 34440, Note_on_c, 1, 71, 88
5, 34556, Note_off_c, 1, 71, 0
5, 34560, Note_on_c, 1, 66, 88
5, 34596, Note_off_c, 1, 66, 0
5, 34598, Note_on_c, 1, 65, 88
5, 34634, Note_off_c, 1, 65, 0
5, 34635, Note_on_c, 1, 66, 88
5, 34671, Note_off_c, 1, 66, 0
5, 34673, Note_on_c, 1, 65, 88
5, 34709, Note_off_c, 1, 65, 0
5, 34710, Note_on_c, 1, 66, 88
5, 34746, Note_off_c, 1, 66, 0
5, 34748, Note_on_c, 1, 65, 88
5, 34784, Note_off_c, 1, 65, 0
5, 34785, Note_on_c, 1, 66, 88
5, 34821, Note_off_c, 1, 66, 0
5, 34823, Note_on_c, 1, 65, 88
5, 34852, Note_off_c, 1, 65, 0
5, 34853, Note_on_c, 1, 66, 88
5, 34882, Note_off_c, 1, 66, 0
5, 34883, Note_on_c, 1, 65, 88
5, 34919, Note_off_c, 1, 65, 0
5, 34920, Note_on_c, 1, 63, 88
5, 34978, Note_off_c, 1, 63, 0
5, 34980, Note_on_c, 1, 65, 88
5, 35038, Note_off_c, 1, 65, 0
5, 35040, Note_on_c, 1, 66, 88
5, 35274, Note_off_c, 1, 66, 0
5, 35520, Note_on_c, 1, 61, 88
5, 35754, Note_off_c, 1, 61, 0
5, 35760, Note_on_c, 1, 63, 88
5, 35994, Note_off_c, 1, 63, 0
5, 36000, Note_on_c, 1, 64, 88
5, 36353, Note_off_c, 1, 64, 0
5, 36360, Note_on_c, 1, 63, 88
5, 36418, Note_off_c, 1, 63, 0
5, 36420, Note_on_c, 1, 61, 88
5, 36478, Note_off_c, 1, 61, 0
5, 36480, Note_on_c, 1, 59, 88
5, 36596, Note_off_c, 1, 59, 0
5, 36600, Note_on_c, 1, 58, 88
5, 36716, Note_off_c, 1, 58, 0
5, 36720, Note_on_c, 1, 59, 88
5, 36836, Note_off_c, 1, 59, 0
5, 36840, Note_on_c, 1, 61, 88
5, 36956, Note_off_c, 1, 61, 0
5, 36960, Note_on_c, 1, 63, 88
5, 37076, Note_off_c, 1, 63, 0
5, 37080, Note_on_c, 1, 65, 88
5, 37196, Note_off_c, 1, 65, 0
5, 37200, Note_on_c, 1, 66, 88
5, 37316, Note_off_c, 1, 66, 0
5, 37320, Note_on_c, 1, 63, 88
5, 37436, Note_off_c, 1, 63, 0
5, 37440, Note_on_c, 1, 68, 88
5, 37674, Note_off_c, 1, 68, 0
5, 37680, Note_on_c, 1, 59, 88
5, 37914, Note_off_c, 1, 59, 0
5, 37920, Note_on_c, 1, 61, 88
5, 37942, Note_off_c, 1, 61, 0
5, 37943, Note_on_c, 1, 59, 88
5, 37972, Note_off_c, 1, 59, 0
5, 37973, Note_on_c, 1, 61, 88
5, 37994, Note_off_c, 1, 61, 0
5, 37995, Note_on_c, 1, 59, 88
5, 38017, Note_off_c, 1, 59, 0
5, 38018, Note_on_c, 1, 61, 88
5, 38039, Note_off_c, 1, 61, 0
5, 38040, Note_on_c, 1, 59, 88
5, 38156, Note_off_c, 1, 59, 0
5, 38160, Note_on_c, 1, 58, 88
5, 38394, Note_off_c, 1, 58, 0
5, 38640, Note_on_c, 1, 68, 88
5, 38874, Note_off_c, 1, 68, 0
5, 38880, Note_on_c, 1, 68, 88
5, 39114, Note_off_c, 1, 68, 0
5, 39120, Note_on_c, 1, 67, 88
5, 39354, Note_off_c, 1, 67, 0
5, 39600, Note_on_c, 1, 66, 88
5, 39834, Note_off_c, 1, 66, 0
5, 39840, Note_on_c, 1, 66, 88
5, 40074, Note_off_c, 1, 66, 0
5, 40080, Note_on_c, 1, 65, 88
5, 40314, Note_off_c, 1, 65, 0
5, 40560, Note_on_c, 1, 65, 88
5, 40676, Note_off_c, 1, 65, 0
5, 40680, Note_on_c, 1, 67, 88
5, 40796, Note_off_c, 1, 67, 0
5, 40800, Note_on_c, 1, 68, 88
5, 41034, Note_off_c, 1, 68, 0
5, 41040, Note_on_c, 1, 60, 88
5, 41274, Note_off_c, 1, 60, 0
5, 41280, Note_on_c, 1, 62, 88
5, 41750, Note_off_c, 1, 62, 0
5, 41760, Note_on_c, 1, 63, 88
5, 41876, Note_off_c, 1, 63, 0
5, 41880, Note_on_c, 1, 58, 88
5, 41996, Note_off_c, 1, 58, 0
5, 42000, Note_on_c, 1, 60, 88
5, 42116, Note_off_c, 1, 60, 0
5, 42120, Note_on_c, 1, 62, 88
5, 42236, Note_off_c, 1, 62, 0
5, 42240, Note_on_c, 1, 63, 88
5, 42356, Note_off_c, 1, 63, 0
5, 42360, Note_on_c, 1, 62, 88
5, 42476, Note_off_c, 1, 62, 0
5, 42480, Note_on_c, 1, 63, 88
5, 42596, Note_off_c, 1, 63, 0
5, 42600, Note_on_c, 1, 59, 88
5, 42716, Note_off_c, 1, 59, 0
5, 42720, Note_on_c, 1, 56, 88
5, 42954, Note_off_c, 1, 56, 0
5, 42960, Note_on_c, 1, 61, 88
5, 43313, Note_off_c, 1, 61, 0
5, 43320, Note_on_c, 1, 59, 88
5, 43436, Note_off_c, 1, 59, 0
5, 43440, Note_on_c, 1, 61, 88
5, 43556, Note_off_c, 1, 61, 0
5, 43560, Note_on_c, 1, 58, 88
5, 43676, Note_off_c, 1, 58, 0
5, 43680, Note_on_c, 1, 59, 88
5, 43796, Note_off_c, 1, 59, 0
5, 43800, Note_on_c, 1, 63, 88
5, 43916, Note_off_c, 1, 63, 0
5, 43920, Note_on_c, 1, 65, 88
5, 44036, Note_off_c, 1, 65, 0
5, 44040, Note_on_c, 1, 67, 88
5, 44156, Note_off_c, 1, 67, 0
5, 44160, Note_on_c, 1, 68, 88
5, 44276, Note_off_c, 1, 68, 0
5, 44280, Note_on_c, 1, 70, 88
5, 44396, Note_off_c, 1, 70, 0
5, 44400, Note_on_c, 1, 71, 88
5, 44516, Note_off_c, 1, 71, 0
5, 44520, Note_on_c, 1, 68, 88
5, 44636, Note_off_c, 1, 68, 0
5, 44640, Note_on_c, 1, 70, 88
5, 45110, Note_off_c, 1, 70, 0
5, 45120, Note_on_c, 1, 73, 88
5, 45156, Note_off_c, 1, 73, 0
5, 45158, Note_on_c, 1, 72, 88
5, 45201, Note_off_c, 1, 72, 0
5, 45203, Note_on_c, 1, 73, 88
5, 45246, Note_off_c, 1, 73, 0
5, 45248, Note_on_c, 1, 72, 88
5, 45291, Note_off_c, 1, 72, 0
5, 45293, Note_on_c, 1, 73, 88
5, 45336, Note_off_c, 1, 73, 0
5, 45338, Note_on_c, 1, 72, 88
5, 45374, Note_off_c, 1, 72, 0
5, 45375, Note_on_c, 1, 73, 88
5, 45411, Note_off_c, 1, 73, 0
5, 45413, Note_on_c, 1, 72, 88
5, 45449, Note_off_c, 1, 72, 0
5, 45450, Note_on_c, 1, 73, 88
5, 45486, Note_off_c, 1, 73, 0
5, 45488, Note_on_c, 1, 72, 88
5, 45524, Note_off_c, 1, 72, 0
5, 45525, Note_on_c, 1, 70, 88
5, 45561, Note_off_c, 1, 70, 0
5, 45563, Note_on_c, 1, 72, 88
5, 45599, Note_off_c, 1, 72, 0
5, 45600, Note_on_c, 1, 73, 88
5, 45834, Note_off_c, 1, 73, 0
5, 45840, Note_on_c, 1, 68, 88
5, 45956, Note_off_c, 1, 68, 0
5, 45960, Note_on_c, 1, 66, 88
5, 46076, Note_off_c, 1, 66, 0
5, 46080, Note_on_c, 1, 65, 88
5, 46314, Note_off_c, 1, 65, 0
5, 46320, Note_on_c, 1, 70, 88
5, 46794, Note_off_c, 1, 70, 0
5, 46800, Note_on_c, 1, 68, 88
5, 46916, Note_off_c, 1, 68, 0
5, 46920, Note_on_c, 1, 66, 88
5, 47036, Note_off_c, 1, 66, 0
5, 47040, Note_on_c, 1, 68, 88
5, 47274, Note_off_c, 1, 68, 0
5, 47280, Note_on_c, 1, 73, 88
5, 47636, Note_off_c, 1, 73, 0
5, 47640, Note_on_c, 1, 71, 88
5, 47756, Note_off_c, 1, 71, 0
5, 47760, Note_on_c, 1, 70, 88
5, 47876, Note_off_c, 1, 70, 0
5, 47880, Note_on_c, 1, 68, 88
5, 47996, Note_off_c, 1, 68, 0
5, 48000, Note_on_c, 1, 66, 88
5, 48116, Note_off_c, 1, 66, 0
5, 48120, Note_on_c, 1, 64, 88
5, 48236, Note_off_c, 1, 64, 0
5, 48240, Note_on_c, 1, 66, 88
5, 48356, Note_off_c, 1, 66, 0
5, 48360, Note_on_c, 1, 70, 88
5, 48476, Note_off_c, 1, 70, 0
5, 48480, Note_on_c, 1, 71, 88
5, 48596, Note_off_c, 1, 71, 0
5, 48600, Note_on_c, 1, 64, 88
5, 48716, Note_off_c, 1, 64, 0
5, 48720, Note_on_c, 1, 76, 88
5, 49073, Note_off_c, 1, 76, 0
5, 49080, Note_on_c, 1, 75, 88
5, 49196, Note_off_c, 1, 75, 0
5, 49200, Note_on_c, 1, 76, 88
5, 49316, Note_off_c, 1, 76, 0
5, 49320, Note_on_c, 1, 73, 88
5, 49436, Note_off_c, 1, 73, 0
5, 49440, Note_on_c, 1, 75, 88
5, 49556, Note_off_c, 1, 75, 0
5, 49560, Note_on_c, 1, 71, 88
5, 49676, Note_off_c, 1, 71, 0
5, 49680, Note_on_c, 1, 66, 88
5, 49796, Note_off_c, 1, 66, 0
5, 49800, Note_on_c, 1, 68, 88
5, 49916, Note_off_c, 1, 68, 0
5, 49920, Note_on_c, 1, 71, 88
5, 49956, Note_off_c, 1, 71, 0
5, 49958, Note_on_c, 1, 70, 88
5, 49994, Note_off_c, 1, 70, 0
5, 49995, Note_on_c, 1, 71, 88
5, 50031, Note_off_c, 1, 71, 0
5, 50033, Note_on_c, 1, 70, 88
5, 50069, Note_off_c, 1, 70, 0
5, 50070, Note_on_c, 1, 71, 88
5, 50106, Note_off_c, 1, 71, 0
5, 50108, Note_on_c, 1, 70, 88
5, 50144, Note_off_c, 1, 70, 0
5, 50145, Note_on_c, 1, 71, 88
5, 50181, Note_off_c, 1, 71, 0
5, 50183, Note_on_c, 1, 70, 88
5, 50212, Note_off_c, 1, 70, 0
5, 50213, Note_on_c, 1, 71, 88
5, 50242, Note_off_c, 1, 71, 0
5, 50243, Note_on_c, 1, 70, 88
5, 50279, Note_off_c, 1, 70, 0
5, 50280, Note_on_c, 1, 68, 88
5, 50338, Note_off_c, 1, 68, 0
5, 50340, Note_on_c, 1, 70, 88
5, 50398, Note_off_c, 1, 70, 0
5, 50400, Note_on_c, 1, 71, 88
5, 50634, Note_off_c, 1, 71, 0
5, 50880, Note_on_c, 1, 66, 88
5, 51114, Note_off_c, 1, 66, 0
5, 51120, Note_on_c, 1, 68, 88
5, 51354, Note_off_c, 1, 68, 0
5, 51360, Note_on_c, 1, 69, 88
5, 51713, Note_off_c, 1, 69, 0
5, 51720, Note_on_c, 1, 68, 88
5, 51778, Note_off_c, 1, 68, 0
5, 51780, Note_on_c, 1, 66, 88
5, 51838, Note_off_c, 1, 66, 0
5, 51840, Note_on_c, 1, 64, 88
5, 51956, Note_off_c, 1, 64, 0
5, 51960, Note_on_c, 1, 63, 88
5, 52076, Note_off_c, 1, 63, 0
5, 52080, Note_on_c, 1, 64, 88
5, 52196, Note_off_c, 1, 64, 0
5, 52200, Note_on_c, 1, 66, 88
5, 52316, Note_off_c, 1, 66, 0
5, 52320, Note_on_c, 1, 68, 88
5, 52436, Note_off_c, 1, 68, 0
5, 52440, Note_on_c, 1, 70, 88
5, 52556, Note_off_c, 1, 70, 0
5, 52560, Note_on_c, 1, 71, 88
5, 52676, Note_off_c, 1, 71, 0
5, 52680, Note_on_c, 1, 68, 88
5, 52796, Note_off_c, 1, 68, 0
5, 52800, Note_on_c, 1, 73, 88
5, 53034, Note_off_c, 1, 73, 0
5, 53040, Note_on_c, 1, 64, 88
5, 53274, Note_off_c, 1, 64, 0
5, 53280, Note_on_c, 1, 64, 88
5, 53514, Note_off_c, 1, 64, 0
5, 53520, Note_on_c, 1, 63, 88
5, 53754, Note_off_c, 1, 63, 0
5, 53760, Note_on_c, 1, 71, 88
5, 53994, Note_off_c, 1, 71, 0
5, 54000, Note_on_c, 1, 63, 88
5, 54234, Note_off_c, 1, 63, 0
5, 54240, Note_on_c, 1, 64, 88
5, 54262, Note_off_c, 1, 64, 0
5, 54263, Note_on_c, 1, 63, 88
5, 54306, Note_off_c, 1, 63, 0
5, 54308, Note_on_c, 1, 64, 88
5, 54344, Note_off_c, 1, 64, 0
5, 54345, Note_on_c, 1, 63, 88
5, 54476, Note_off_c, 1, 63, 0
5, 54480, Note_on_c, 1, 61, 88
5, 54714, Note_off_c, 1, 61, 0
5, 54720, Note_on_c, 1, 70, 88
5, 54954, Note_off_c, 1, 70, 0
5, 54960, Note_on_c, 1, 61, 88
5, 55194, Note_off_c, 1, 61, 0
5, 55200, Note_on_c, 1, 63, 88
5, 55222, Note_off_c, 1, 63, 0
5, 55223, Note_on_c, 1, 61, 88
5, 55266, Note_off_c, 1, 61, 0
5, 55268, Note_on_c, 1, 63, 88
5, 55304, Note_off_c, 1, 63, 0
5, 55305, Note_on_c, 1, 61, 88
5, 55436, Note_off_c, 1, 61, 0
5, 55440, Note_on_c, 1, 59, 88
5, 55674, Note_off_c, 1, 59, 0
5, 55920, Note_on_c, 1, 64, 88
5, 56154, Note_off_c, 1, 64, 0
5, 56160, Note_on_c, 1, 64, 88
5, 56394, Note_off_c, 1, 64, 0
5, 56400, Note_on_c, 1, 63, 88
5, 56634, Note_off_c, 1, 63, 0
5, 56880, Note_on_c, 1, 63, 88
5, 57114, Note_off_c, 1, 63, 0
5, 57120, Note_on_c, 1, 63, 88
5, 57354, Note_off_c, 1, 63, 0
5, 57360, Note_on_c, 1, 61, 88
5, 57594, Note_off_c, 1, 61, 0
5, 57600, Note_on_c, 1, 73, 88
5, 57834, Note_off_c, 1, 73, 0
5, 57840, Note_on_c, 1, 65, 88
5, 58074, Note_off_c, 1, 65, 0
5, 58080, Note_on_c, 1, 66, 88
5, 58102, Note_off_c, 1, 66, 0
5, 58103, Note_on_c, 1, 65, 88
5, 58146, Note_off_c, 1, 65, 0
5, 58148, Note_on_c, 1, 66, 88
5, 58184, Note_off_c, 1, 66, 0
5, 58185, Note_on_c, 1, 65, 88
5, 58316, Note_off_c, 1, 65, 0
5, 58320, Note_on_c, 1, 63, 88
5, 58554, Note_off_c, 1, 63, 0
5, 58560, Note_on_c, 1, 72, 88
5, 58794, Note_off_c, 1, 72, 0
5, 58800, Note_on_c, 1, 63, 88
5, 59034, Note_off_c, 1, 63, 0
5, 59040, Note_on_c, 1, 65, 88
5, 59062, Note_off_c, 1, 65, 0
5, 59063, Note_on_c, 1, 63, 88
5, 59106, Note_off_c, 1, 63, 0
5, 59108, Note_on_c, 1, 65, 88
5, 59144, Note_off_c, 1, 65, 0
5, 59145, Note_on_c, 1, 63, 88
5, 59276, Note_off_c, 1, 63, 0
5, 59280, Note_on_c, 1, 61, 88
5, 59514, Note_off_c, 1, 61, 0
5, 59760, Note_on_c, 1, 66, 88
5, 59994, Note_off_c, 1, 66, 0
5, 60000, Note_on_c, 1, 66, 88
5, 60234, Note_off_c, 1, 66, 0
5, 60240, Note_on_c, 1, 65, 88
5, 60474, Note_off_c, 1, 65, 0
5, 60720, Note_on_c, 1, 65, 88
5, 60954, Note_off_c, 1, 65, 0
5, 60960, Note_on_c, 1, 65, 88
5, 61194, Note_off_c, 1, 65, 0
5, 61200, Note_on_c, 1, 63, 88
5, 61434, Note_off_c, 1, 63, 0
5, 61440, Note_on_c, 1, 68, 88
5, 61556, Note_off_c, 1, 68, 0
5, 61560, Note_on_c, 1, 66, 88
5, 61676, Note_off_c, 1, 66, 0
5, 61680, Note_on_c, 1, 68, 88
5, 61914, Note_off_c, 1, 68, 0
5, 61920, Note_on_c, 1, 61, 88
5, 62273, Note_off_c, 1, 61, 0
5, 62280, Note_on_c, 1, 63, 88
5, 62396, Note_off_c, 1, 63, 0
5, 62400, Note_on_c, 1, 64, 88
5, 62634, Note_off_c, 1, 64, 0
5, 62640, Note_on_c, 1, 66, 88
5, 62874, Note_off_c, 1, 66, 0
5, 62880, Note_on_c, 1, 59, 88
5, 63233, Note_off_c, 1, 59, 0
5, 63240, Note_on_c, 1, 61, 88
5, 63356, Note_off_c, 1, 61, 0
5, 63360, Note_on_c, 1, 63, 88
5, 63476, Note_off_c, 1, 63, 0
5, 63480, Note_on_c, 1, 61, 88
5, 63596, Note_off_c, 1, 61, 0
5, 63600, Note_on_c, 1, 63, 88
5, 63716, Note_off_c, 1, 63, 0
5, 63720, Note_on_c, 1, 65, 88
5, 63836, Note_off_c, 1, 65, 0
5, 63840, Note_on_c, 1, 66, 88
5, 64074, Note_off_c, 1, 66, 0
5, 64080, Note_on_c, 1, 63, 88
5, 64314, Note_off_c, 1, 63, 0
5, 64320, Note_on_c, 1, 65, 88
5, 64790, Note_off_c, 1, 65, 0
5, 64800, Note_on_c, 1, 66, 88
5, 64916, Note_off_c, 1, 66, 0
5, 64920, Note_on_c, 1, 65, 88
5, 65036, Note_off_c, 1, 65, 0
5, 65040, Note_on_c, 1, 66, 88
5, 65156, Note_off_c, 1, 66, 0
5, 65160, Note_on_c, 1, 70, 88
5, 65276, Note_off_c, 1, 70, 0
5, 65280, Note_on_c, 1, 73, 88
5, 65396, Note_off_c, 1, 73, 0
5, 65400, Note_on_c, 1, 70, 88
5, 65516, Note_off_c, 1, 70, 0
5, 65520, Note_on_c, 1, 66, 88
5, 65636, Note_off_c, 1, 66, 0
5, 65640, Note_on_c, 1, 64, 88
5, 65756, Note_off_c, 1, 64, 0
5, 65760, Note_on_c, 1, 63, 88
5, 65876, Note_off_c, 1, 63, 0
5, 65880, Note_on_c, 1, 61, 88
5, 65996, Note_off_c, 1, 61, 0
5, 66000, Note_on_c, 1, 63, 88
5, 66116, Note_off_c, 1, 63, 0
5, 66120, Note_on_c, 1, 66, 88
5, 66236, Note_off_c, 1, 66, 0
5, 66240, Note_on_c, 1, 68, 88
5, 66356, Note_off_c, 1, 68, 0
5, 66360, Note_on_c, 1, 70, 88
5, 66476, Note_off_c, 1, 70, 0
5, 66480, Note_on_c, 1, 71, 88
5, 66596, Note_off_c, 1, 71, 0
5, 66600, Note_on_c, 1, 66, 88
5, 66716, Note_off_c, 1, 66, 0
5, 66720, Note_on_c, 1, 65, 88
5, 66836, Note_off_c, 1, 65, 0
5, 66840, Note_on_c, 1, 63, 88
5, 66956, Note_off_c, 1, 63, 0
5, 66960, Note_on_c, 1, 65, 88
5, 67076, Note_off_c, 1, 65, 0
5, 67080, Note_on_c, 1, 68, 88
5, 67196, Note_off_c, 1, 68, 0
5, 67200, Note_on_c, 1, 72, 88
5, 67316, Note_off_c, 1, 72, 0
5, 67320, Note_on_c, 1, 73, 88
5, 67378, Note_off_c, 1, 73, 0
5, 67380, Note_on_c, 1, 72, 88
5, 67438, Note_off_c, 1, 72, 0
5, 67440, Note_on_c, 1, 70, 88
5, 67556, Note_off_c, 1, 70, 0
5, 67560, Note_on_c, 1, 72, 88
5, 67676, Note_off_c, 1, 72, 0
5, 67680, Note_on_c, 1, 73, 88
5, 67914, Note_off_c, 1, 73, 0
5, 68160, Note_on_c, 1, 68, 88
5, 68394, Note_off_c, 1, 68, 0
5, 68400, Note_on_c, 1, 70, 88
5, 68634, Note_off_c, 1, 70, 0
5, 68640, Note_on_c, 1, 71, 88
5, 68993, Note_off_c, 1, 71, 0
5, 69000, Note_on_c, 1, 70, 88
5, 69058, Note_off_c, 1, 70, 0
5, 69060, Note_on_c, 1, 68, 88
5, 69118, Note_off_c, 1, 68, 0
5, 69120, Note_on_c, 1, 66, 88
5, 69236, Note_off_c, 1, 66, 0
5, 69240, Note_on_c, 1, 65, 88
5, 69356, Note_off_c, 1, 65, 0
5, 69360, Note_on_c, 1, 66, 88
5, 69476, Note_off_c, 1, 66, 0
5, 69480, Note_on_c, 1, 68, 88
5, 69596, Note_off_c, 1, 68, 0
5, 69600, Note_on_c, 1, 70, 88
5, 69716, Note_off_c, 1, 70, 0
5, 69720, Note_on_c, 1, 72, 88
5, 69836, Note_off_c, 1, 72, 0
5, 69840, Note_on_c, 1, 73, 88
5, 69956, Note_off_c, 1, 73, 0
5, 69960, Note_on_c, 1, 70, 88
5, 70076, Note_off_c, 1, 70, 0
5, 70080, Note_on_c, 1, 75, 88
5, 70314, Note_off_c, 1, 75, 0
5, 70320, Note_on_c, 1, 66, 88
5, 70554, Note_off_c, 1, 66, 0
5, 70560, Note_on_c, 1, 68, 88
5, 70582, Note_off_c, 1, 68, 0
5, 70583, Note_on_c, 1, 66, 88
5, 70619, Note_off_c, 1, 66, 0
5, 70620, Note_on_c, 1, 68, 88
5, 70656, Note_off_c, 1, 68, 0
5, 70658, Note_on_c, 1, 66, 88
5, 70796, Note_off_c, 1, 66, 0
5, 70800, Note_on_c, 1, 65, 88
5, 71034, Note_off_c, 1, 65, 0
5, 71040, Note_on_c, 1, 73, 88
5, 71274, Note_off_c, 1, 73, 0
5, 71280, Note_on_c, 1, 64, 88
5, 71514, Note_off_c, 1, 64, 0
5, 71520, Note_on_c, 1, 66, 88
5, 71542, Note_off_c, 1, 66, 0
5, 71543, Note_on_c, 1, 64, 88
5, 71579, Note_off_c, 1, 64, 0
5, 71580, Note_on_c, 1, 66, 88
5, 71616, Note_off_c, 1, 66, 0
5, 71618, Note_on_c, 1, 64, 88
5, 71756, Note_off_c, 1, 64, 0
5, 71760, Note_on_c, 1, 63, 88
5, 71994, Note_off_c, 1, 63, 0
5, 72000, Note_on_c, 1, 71, 88
5, 72234, Note_off_c, 1, 71, 0
5, 72240, Note_on_c, 1, 63, 88
5, 72474, Note_off_c, 1, 63, 0
5, 72480, Note_on_c, 1, 65, 88
5, 72502, Note_off_c, 1, 65, 0
5, 72503, Note_on_c, 1, 63, 88
5, 72539, Note_off_c, 1, 63, 0
5, 72540, Note_on_c, 1, 65, 88
5, 72576, Note_off_c, 1, 65, 0
5, 72578, Note_on_c, 1, 63, 88
5, 72716, Note_off_c, 1, 63, 0
5, 72720, Note_on_c, 1, 61, 88
5, 72954, Note_off_c, 1, 61, 0
5, 73200, Note_on_c, 1, 71, 88
5, 73434, Note_off_c, 1, 71, 0
5, 73440, Note_on_c, 1, 71, 88
5, 73674, Note_off_c, 1, 71, 0
5, 73680, Note_on_c, 1, 70, 88
5, 73914, Note_off_c, 1, 70, 0
5, 74160, Note_on_c, 1, 69, 88
5, 74394, Note_off_c, 1, 69, 0
5, 74400, Note_on_c, 1, 69, 88
5, 74634, Note_off_c, 1, 69, 0
5, 74640, Note_on_c, 1, 68, 88
5, 74874, Note_off_c, 1, 68, 0
5, 75120, Note_on_c, 1, 68, 88
5, 75236, Note_off_c, 1, 68, 0
5, 75240, Note_on_c, 1, 70, 88
5, 75356, Note_off_c, 1, 70, 0
5, 75360, Note_on_c, 1, 71, 88
5, 75594, Note_off_c, 1, 71, 0
5, 75840, Note_on_c, 1, 77, 88
5, 76310, Note_off_c, 1, 77, 0
5, 76320, Note_on_c, 1, 78, 88
5, 76790, Note_off_c, 1, 78, 0
5, 77040, Note_on_c, 1, 70, 88
5, 77274, Note_off_c, 1, 70, 0
5, 77280, Note_on_c, 1, 70, 88
5, 77514, Note_off_c, 1, 70, 0
5, 77520, Note_on_c, 1, 71, 88
5, 77754, Note_off_c, 1, 71, 0
5, 78000, Note_on_c, 1, 71, 88
5, 78234, Note_off_c, 1, 71, 0
5, 78240, Note_on_c, 1, 72, 88
5, 78474, Note_off_c, 1, 72, 0
5, 78480, Note_on_c, 1, 73, 88
5, 78714, Note_off_c, 1, 73, 0
5, 78960, Note_on_c, 1, 71, 88
5, 79194, Note_off_c, 1, 71, 0
5, 79200, Note_on_c, 1, 70, 88
5, 79553, Note_off_c, 1, 70, 0
5, 79560, Note_on_c, 1, 71, 88
5, 79676, Note_off_c, 1, 71, 0
5, 79680, Note_on_c, 1, 70, 88
5, 79716, Note_off_c, 1, 70, 0
5, 79718, Note_on_c, 1, 68, 88
5, 79754, Note_off_c, 1, 68, 0
5, 79755, Note_on_c, 1, 70, 88
5, 79791, Note_off_c, 1, 70, 0
5, 79793, Note_on_c, 1, 68, 88
5, 79829, Note_off_c, 1, 68, 0
5, 79830, Note_on_c, 1, 70, 88
5, 79859, Note_off_c, 1, 70, 0
5, 79860, Note_on_c, 1, 68, 88
5, 79889, Note_off_c, 1, 68, 0
5, 79890, Note_on_c, 1, 70, 88
5, 79919, Note_off_c, 1, 70, 0
5, 79920, Note_on_c, 1, 68, 88
5, 80036, Note_off_c, 1, 68, 0
5, 80040, Note_on_c, 1, 70, 88
5, 80156, Note_off_c, 1, 70, 0
5, 80160, Note_on_c, 1, 70, 88
5, 80630, Note_off_c, 1, 70, 0
5, 80630, End_track
6, 0, Start_track
6, 0, Title_t, "Track 3"
6, 0, Program_c, 2, 6
6, 7680, Note_on_c, 2, 54, 88
6, 7716, Note_off_c, 2, 54, 0
6, 7718, Note_on_c, 2, 53, 88
6, 7754, Note_off_c, 2, 53, 0
6, 7755, Note_on_c, 2, 54, 88
6, 7791, Note_off_c, 2, 54, 0
6, 7793, Note_on_c, 2, 53, 88
6, 7829, Note_off_c, 2, 53, 0
6, 7830, Note_on_c, 2, 54, 88
6, 7866, Note_off_c, 2, 54, 0
6, 7868, Note_on_c, 2, 53, 88
6, 7904, Note_off_c, 2, 53, 0
6, 7905, Note_on_c, 2, 54, 88
6, 7941, Note_off_c, 2, 54, 0
6, 7943, Note_on_c, 2, 53, 88
6, 7972, Note_off_c, 2, 53, 0
6, 7973, Note_on_c, 2, 54, 88
6, 8002, Note_off_c, 2, 54, 0
6, 8003, Note_on_c, 2, 53, 88
6, 8039, Note_off_c, 2, 53, 0
6, 8040, Note_on_c, 2, 51, 88
6, 8098, Note_off_c, 2, 51, 0
6, 8100, Note_on_c, 2, 53, 88
6, 8158, Note_off_c, 2, 53, 0
6, 8160, Note_on_c, 2, 54, 88
6, 8394, Note_off_c, 2, 54, 0
6, 8640, Note_on_c, 2, 49, 88
6, 8874, Note_off_c, 2, 49, 0
6, 8880, Note_on_c, 2, 51, 88
6, 9114, Note_off_c, 2, 51, 0
6, 9120, Note_on_c, 2, 52, 88
6, 9473, Note_off_c, 2, 52, 0
6, 9480, Note_on_c, 2, 51, 88
6, 9538, Note_off_c, 2, 51, 0
6, 9540, Note_on_c, 2, 49, 88
6, 9598, Note_off_c, 2, 49, 0
6, 9600, Note_on_c, 2, 47, 88
6, 9716, Note_off_c, 2, 47, 0
6, 9720, Note_on_c, 2, 46, 88
6, 9836, Note_off_c, 2, 46, 0
6, 9840, Note_on_c, 2, 47, 88
6, 9956, Note_off_c, 2, 47, 0
6, 9960, Note_on_c, 2, 49, 88
6, 10076, Note_off_c, 2, 49, 0
6, 10080, Note_on_c, 2, 51, 88
6, 10196, Note_off_c, 2, 51, 0
6, 10200, Note_on_c, 2, 53, 88
6, 10316, Note_off_c, 2, 53, 0
6, 10320, Note_on_c, 2, 54, 88
6, 10436, Note_off_c, 2, 54, 0
6, 10440, Note_on_c, 2, 51, 88
6, 10556, Note_off_c, 2, 51, 0
6, 10560, Note_on_c, 2, 56, 88
6, 10794, Note_off_c, 2, 56, 0
6, 10800, Note_on_c, 2, 47, 88
6, 11034, Note_off_c, 2, 47, 0
6, 11040, Note_on_c, 2, 47, 88
6, 11274, Note_off_c, 2, 47, 0
6, 11280, Note_on_c, 2, 46, 88
6, 11396, Note_off_c, 2, 46, 0
6, 11400, Note_on_c, 2, 44, 88
6, 11516, Note_off_c, 2, 44, 0
6, 11520, Note_on_c, 2, 42, 88
6, 11754, Note_off_c, 2, 42, 0
6, 11760, Note_on_c, 2, 54, 88
6, 12234, Note_off_c, 2, 54, 0
6, 12240, Note_on_c, 2, 53, 88
6, 12356, Note_off_c, 2, 53, 0
6, 12360, Note_on_c, 2, 51, 88
6, 12476, Note_off_c, 2, 51, 0
6, 12480, Note_on_c, 2, 53, 88
6, 12714, Note_off_c, 2, 53, 0
6, 12720, Note_on_c, 2, 46, 88
6, 12954, Note_off_c, 2, 46, 0
6, 12960, Note_on_c, 2, 39, 88
6, 13194, Note_off_c, 2, 39, 0
6, 13200, Note_on_c, 2, 51, 88
6, 13553, Note_off_c, 2, 51, 0
6, 13560, Note_on_c, 2, 50, 88
6, 13676, Note_off_c, 2, 50, 0
6, 13680, Note_on_c, 2, 51, 88
6, 13796, Note_off_c, 2, 51, 0
6, 13800, Note_on_c, 2, 47, 88
6, 13916, Note_off_c, 2, 47, 0
6, 13920, Note_on_c, 2, 44, 88
6, 14154, Note_off_c, 2, 44, 0
6, 14160, Note_on_c, 2, 49, 88
6, 14513, Note_off_c, 2, 49, 0
6, 14520, Note_on_c, 2, 47, 88
6, 14636, Note_off_c, 2, 47, 0
6, 14640, Note_on_c, 2, 49, 88
6, 14756, Note_off_c, 2, 49, 0
6, 14760, Note_on_c, 2, 46, 88
6, 14876, Note_off_c, 2, 46, 0
6, 14880, Note_on_c, 2, 47, 88
6, 14996, Note_off_c, 2, 47, 0
6, 15000, Note_on_c, 2, 51, 88
6, 15116, Note_off_c, 2, 51, 0
6, 15120, Note_on_c, 2, 53, 88
6, 15236, Note_off_c, 2, 53, 0
6, 15240, Note_on_c, 2, 55, 88
6, 15356, Note_off_c, 2, 55, 0
6, 15360, Note_on_c, 2, 56, 88
6, 15594, Note_off_c, 2, 56, 0
6, 15600, Note_on_c, 2, 61, 88
6, 15834, Note_off_c, 2, 61, 0
6, 15840, Note_on_c, 2, 58, 88
6, 16310, Note_off_c, 2, 58, 0
6, 16320, Note_on_c, 2, 61, 88
6, 16356, Note_off_c, 2, 61, 0
6, 16358, Note_on_c, 2, 60, 88
6, 16401, Note_off_c, 2, 60, 0
6, 16403, Note_on_c, 2, 61, 88
6, 16446, Note_off_c, 2, 61, 0
6, 16448, Note_on_c, 2, 60, 88
6, 16491, Note_off_c, 2, 60, 0
6, 16493, Note_on_c, 2, 61, 88
6, 16536, Note_off_c, 2, 61, 0
6, 16538, Note_on_c, 2, 60, 88
6, 16574, Note_off_c, 2, 60, 0
6, 16575, Note_on_c, 2, 61, 88
6, 16611, Note_off_c, 2, 61, 0
6, 16613, Note_on_c, 2, 60, 88
6, 16649, Note_off_c, 2, 60, 0
6, 16650, Note_on_c, 2, 61, 88
6, 16686, Note_off_c, 2, 61, 0
6, 16688, Note_on_c, 2, 60, 88
6, 16724, Note_off_c, 2, 60, 0
6, 16725, Note_on_c, 2, 58, 88
6, 16761, Note_off_c, 2, 58, 0
6, 16763, Note_on_c, 2, 60, 88
6, 16799, Note_off_c, 2, 60, 0
6, 16800, Note_on_c, 2, 61, 88
6, 17034, Note_off_c, 2, 61, 0
6, 17040, Note_on_c, 2, 59, 88
6, 17274, Note_off_c, 2, 59, 0
6, 17280, Note_on_c, 2, 58, 88
6, 17994, Note_off_c, 2, 58, 0
6, 18000, Note_on_c, 2, 56, 88
6, 18116, Note_off_c, 2, 56, 0
6, 18120, Note_on_c, 2, 54, 88
6, 18236, Note_off_c, 2, 54, 0
6, 18240, Note_on_c, 2, 56, 88
6, 18474, Note_off_c, 2, 56, 0
6, 18480, Note_on_c, 2, 61, 88
6, 18714, Note_off_c, 2, 61, 0
6, 18720, Note_on_c, 2, 54, 88
6, 18954, Note_off_c, 2, 54, 0
6, 18960, Note_on_c, 2, 53, 88
6, 19076, Note_off_c, 2, 53, 0
6, 19080, Note_on_c, 2, 51, 88
6, 19196, Note_off_c, 2, 51, 0
6, 19200, Note_on_c, 2, 49, 88
6, 19434, Note_off_c, 2, 49, 0
6, 19440, Note_on_c, 2, 59, 88
6, 19674, Note_off_c, 2, 59, 0
6, 19680, Note_on_c, 2, 59, 88
6, 19914, Note_off_c, 2, 59, 0
6, 19920, Note_on_c, 2, 58, 88
6, 20154, Note_off_c, 2, 58, 0
6, 20400, Note_on_c, 2, 57, 88
6, 20634, Note_off_c, 2, 57, 0
6, 20640, Note_on_c, 2, 57, 88
6, 20874, Note_off_c, 2, 57, 0
6, 20880, Note_on_c, 2, 56, 88
6, 21114, Note_off_c, 2, 56, 0
6, 21360, Note_on_c, 2, 56, 88
6, 21476, Note_off_c, 2, 56, 0
6, 21480, Note_on_c, 2, 58, 88
6, 21596, Note_off_c, 2, 58, 0
6, 21600, Note_on_c, 2, 59, 88
6, 21834, Note_off_c, 2, 59, 0
6, 21840, Note_on_c, 2, 51, 88
6, 22074, Note_off_c, 2, 51, 0
6, 22080, Note_on_c, 2, 53, 88
6, 22550, Note_off_c, 2, 53, 0
6, 22560, Note_on_c, 2, 54, 88
6, 22676, Note_off_c, 2, 54, 0
6, 22680, Note_on_c, 2, 53, 88
6, 22796, Note_off_c, 2, 53, 0
6, 22800, Note_on_c, 2, 54, 88
6, 22916, Note_off_c, 2, 54, 0
6, 22920, Note_on_c, 2, 56, 88
6, 23036, Note_off_c, 2, 56, 0
6, 23040, Note_on_c, 2, 58, 88
6, 23156, Note_off_c, 2, 58, 0
6, 23160, Note_on_c, 2, 54, 88
6, 23276, Note_off_c, 2, 54, 0
6, 23280, Note_on_c, 2, 51, 88
6, 23396, Note_off_c, 2, 51, 0
6, 23400, Note_on_c, 2, 54, 88
6, 23516, Note_off_c, 2, 54, 0
6, 23520, Note_on_c, 2, 59, 88
6, 23636, Note_off_c, 2, 59, 0
6, 23640, Note_on_c, 2, 58, 88
6, 23756, Note_off_c, 2, 58, 0
6, 23760, Note_on_c, 2, 59, 88
6, 23876, Note_off_c, 2, 59, 0
6, 23880, Note_on_c, 2, 56, 88
6, 23996, Note_off_c, 2, 56, 0
6, 24000, Note_on_c, 2, 62, 88
6, 24116, Note_off_c, 2, 62, 0
6, 24120, Note_on_c, 2, 60, 88
6, 24236, Note_off_c, 2, 60, 0
6, 24240, Note_on_c, 2, 62, 88
6, 24356, Note_off_c, 2, 62, 0
6, 24360, Note_on_c, 2, 58, 88
6, 24476, Note_off_c, 2, 58, 0
6, 24480, Note_on_c, 2, 63, 88
6, 24596, Note_off_c, 2, 63, 0
6, 24600, Note_on_c, 2, 58, 88
6, 24716, Note_off_c, 2, 58, 0
6, 24720, Note_on_c, 2, 51, 88
6, 24836, Note_off_c, 2, 51, 0
6, 24840, Note_on_c, 2, 50, 88
6, 24956, Note_off_c, 2, 50, 0
6, 24960, Note_on_c, 2, 51, 88
6, 25076, Note_off_c, 2, 51, 0
6, 25080, Note_on_c, 2, 47, 88
6, 25196, Note_off_c, 2, 47, 0
6, 25200, Note_on_c, 2, 44, 88
6, 25316, Note_off_c, 2, 44, 0
6, 25320, Note_on_c, 2, 47, 88
6, 25436, Note_off_c, 2, 47, 0
6, 25440, Note_on_c, 2, 52, 88
6, 25556, Note_off_c, 2, 52, 0
6, 25560, Note_on_c, 2, 51, 88
6, 25676, Note_off_c, 2, 51, 0
6, 25680, Note_on_c, 2, 52, 88
6, 25796, Note_off_c, 2, 52, 0
6, 25800, Note_on_c, 2, 49, 88
6, 25916, Note_off_c, 2, 49, 0
6, 25920, Note_on_c, 2, 55, 88
6, 26036, Note_off_c, 2, 55, 0
6, 26040, Note_on_c, 2, 53, 88
6, 26156, Note_off_c, 2, 53, 0
6, 26160, Note_on_c, 2, 55, 88
6, 26276, Note_off_c, 2, 55, 0
6, 26280, Note_on_c, 2, 51, 88
6, 26396, Note_off_c, 2, 51, 0
6, 26400, Note_on_c, 2, 56, 88
6, 26516, Note_off_c, 2, 56, 0
6, 26520, Note_on_c, 2, 55, 88
6, 26636, Note_off_c, 2, 55, 0
6, 26640, Note_on_c, 2, 56, 88
6, 26756, Note_off_c, 2, 56, 0
6, 26760, Note_on_c, 2, 58, 88
6, 26876, Note_off_c, 2, 58, 0
6, 26880, Note_on_c, 2, 60, 88
6, 26996, Note_off_c, 2, 60, 0
6, 27000, Note_on_c, 2, 58, 88
6, 27116, Note_off_c, 2, 58, 0
6, 27120, Note_on_c, 2, 60, 88
6, 27236, Note_off_c, 2, 60, 0
6, 27240, Note_on_c, 2, 56, 88
6, 27356, Note_off_c, 2, 56, 0
6, 27360, Note_on_c, 2, 61, 88
6, 27476, Note_off_c, 2, 61, 0
6, 27480, Note_on_c, 2, 60, 88
6, 27596, Note_off_c, 2, 60, 0
6, 27600, Note_on_c, 2, 61, 88
6, 27716, Note_off_c, 2, 61, 0
6, 27720, Note_on_c, 2, 58, 88
6, 27836, Note_off_c, 2, 58, 0
6, 27840, Note_on_c, 2, 64, 88
6, 27956, Note_off_c, 2, 64, 0
6, 27960, Note_on_c, 2, 62, 88
6, 28076, Note_off_c, 2, 62, 0
6, 28080, Note_on_c, 2, 64, 88
6, 28196, Note_off_c, 2, 64, 0
6, 28200, Note_on_c, 2, 60, 88
6, 28316, Note_off_c, 2, 60, 0
6, 28320, Note_on_c, 2, 65, 88
6, 28436, Note_off_c, 2, 65, 0
6, 28440, Note_on_c, 2, 60, 88
6, 28556, Note_off_c, 2, 60, 0
6, 28560, Note_on_c, 2, 53, 88
6, 28676, Note_off_c, 2, 53, 0
6, 28680, Note_on_c, 2, 52, 88
6, 28796, Note_off_c, 2, 52, 0
6, 28800, Note_on_c, 2, 53, 88
6, 28916, Note_off_c, 2, 53, 0
6, 28920, Note_on_c, 2, 49, 88
6, 29036, Note_off_c, 2, 49, 0
6, 29040, Note_on_c, 2, 46, 88
6, 29156, Note_off_c, 2, 46, 0
6, 29160, Note_on_c, 2, 49, 88
6, 29276, Note_off_c, 2, 49, 0
6, 29280, Note_on_c, 2, 54, 88
6, 29396, Note_off_c, 2, 54, 0
6, 29400, Note_on_c, 2, 53, 88
6, 29516, Note_off_c, 2, 53, 0
6, 29520, Note_on_c, 2, 54, 88
6, 29636, Note_off_c, 2, 54, 0
6, 29640, Note_on_c, 2, 51, 88
6, 29756, Note_off_c, 2, 51, 0
6, 29760, Note_on_c, 2, 57, 88
6, 29876, Note_off_c, 2, 57, 0
6, 29880, Note_on_c, 2, 55, 88
6, 29996, Note_off_c, 2, 55, 0
6, 30000, Note_on_c, 2, 57, 88
6, 30116, Note_off_c, 2, 57, 0
6, 30120, Note_on_c, 2, 53, 88
6, 30236, Note_off_c, 2, 53, 0
6, 30240, Note_on_c, 2, 58, 88
6, 30356, Note_off_c, 2, 58, 0
6, 30360, Note_on_c, 2, 57, 88
6, 30476, Note_off_c, 2, 57, 0
6, 30480, Note_on_c, 2, 58, 88
6, 30596, Note_off_c, 2, 58, 0
6, 30600, Note_on_c, 2, 60, 88
6, 30716, Note_off_c, 2, 60, 0
6, 30720, Note_on_c, 2, 61, 88
6, 30756, Note_off_c, 2, 61, 0
6, 30758, Note_on_c, 2, 60, 88
6, 30794, Note_off_c, 2, 60, 0
6, 30795, Note_on_c, 2, 61, 88
6, 30831, Note_off_c, 2, 61, 0
6, 30833, Note_on_c, 2, 60, 88
6, 30869, Note_off_c, 2, 60, 0
6, 30870, Note_on_c, 2, 61, 88
6, 30906, Note_off_c, 2, 61, 0
6, 30908, Note_on_c, 2, 60, 88
6, 30944, Note_off_c, 2, 60, 0
6, 30945, Note_on_c, 2, 61, 88
6, 30981, Note_off_c, 2, 61, 0
6, 30983, Note_on_c, 2, 60, 88
6, 31012, Note_off_c, 2, 60, 0
6, 31013, Note_on_c, 2, 61, 88
6, 31042, Note_off_c, 2, 61, 0
6, 31043, Note_on_c, 2, 60, 88
6, 31079, Note_off_c, 2, 60, 0
6, 31080, Note_on_c, 2, 58, 88
6, 31138, Note_off_c, 2, 58, 0
6, 31140, Note_on_c, 2, 60, 88
6, 31198, Note_off_c, 2, 60, 0
6, 31200, Note_on_c, 2, 61, 88
6, 31434, Note_off_c, 2, 61, 0
6, 31680, Note_on_c, 2, 56, 88
6, 31914, Note_off_c, 2, 56, 0
6, 31920, Note_on_c, 2, 58, 88
6, 32154, Note_off_c, 2, 58, 0
6, 32160, Note_on_c, 2, 59, 88
6, 32513, Note_off_c, 2, 59, 0
6, 32520, Note_on_c, 2, 58, 88
6, 32578, Note_off_c, 2, 58, 0
6, 32580, Note_on_c, 2, 56, 88
6, 32638, Note_off_c, 2, 56, 0
6, 32640, Note_on_c, 2, 54, 88
6, 32756, Note_off_c, 2, 54, 0
6, 32760, Note_on_c, 2, 53, 88
6, 32876, Note_off_c, 2, 53, 0
6, 32880, Note_on_c, 2, 54, 88
6, 32996, Note_off_c, 2, 54, 0
6, 33000, Note_on_c, 2, 56, 88
6, 33116, Note_off_c, 2, 56, 0
6, 33120, Note_on_c, 2, 58, 88
6, 33236, Note_off_c, 2, 58, 0
6, 33240, Note_on_c, 2, 60, 88
6, 33356, Note_off_c, 2, 60, 0
6, 33360, Note_on_c, 2, 61, 88
6, 33476, Note_off_c, 2, 61, 0
6, 33480, Note_on_c, 2, 58, 88
6, 33596, Note_off_c, 2, 58, 0
6, 33600, Note_on_c, 2, 63, 88
6, 33834, Note_off_c, 2, 63, 0
6, 33840, Note_on_c, 2, 54, 88
6, 34074, Note_off_c, 2, 54, 0
6, 34080, Note_on_c, 2, 54, 88
6, 34314, Note_off_c, 2, 54, 0
6, 34320, Note_on_c, 2, 53, 88
6, 34436, Note_off_c, 2, 53, 0
6, 34440, Note_on_c, 2, 51, 88
6, 34556, Note_off_c, 2, 51, 0
6, 34560, Note_on_c, 2, 49, 88
6, 34676, Note_off_c, 2, 49, 0
6, 34680, Note_on_c, 2, 53, 88
6, 34796, Note_off_c, 2, 53, 0
6, 34800, Note_on_c, 2, 56, 88
6, 34916, Note_off_c, 2, 56, 0
6, 34920, Note_on_c, 2, 59, 88
6, 35036, Note_off_c, 2, 59, 0
6, 35040, Note_on_c, 2, 61, 88
6, 35062, Note_off_c, 2, 61, 0
6, 35063, Note_on_c, 2, 59, 88
6, 35106, Note_off_c, 2, 59, 0
6, 35108, Note_on_c, 2, 61, 88
6, 35144, Note_off_c, 2, 61, 0
6, 35145, Note_on_c, 2, 59, 88
6, 35276, Note_off_c, 2, 59, 0
6, 35280, Note_on_c, 2, 58, 88
6, 35514, Note_off_c, 2, 58, 0
6, 35760, Note_on_c, 2, 57, 88
6, 35994, Note_off_c, 2, 57, 0
6, 36000, Note_on_c, 2, 57, 88
6, 36234, Note_off_c, 2, 57, 0
6, 36240, Note_on_c, 2, 56, 88
6, 36474, Note_off_c, 2, 56, 0
6, 36720, Note_on_c, 2, 56, 88
6, 36836, Note_off_c, 2, 56, 0
6, 36840, Note_on_c, 2, 58, 88
6, 36956, Note_off_c, 2, 58, 0
6, 36960, Note_on_c, 2, 59, 88
6, 37194, Note_off_c, 2, 59, 0
6, 37200, Note_on_c, 2, 51, 88
6, 37434, Note_off_c, 2, 51, 0
6, 37440, Note_on_c, 2, 53, 88
6, 37910, Note_off_c, 2, 53, 0
6, 37920, Note_on_c, 2, 54, 88
6, 38265, Note_off_c, 2, 54, 0
6, 38280, Note_on_c, 2, 54, 88
6, 38396, Note_off_c, 2, 54, 0
6, 38400, Note_on_c, 2, 53, 88
6, 38516, Note_off_c, 2, 53, 0
6, 38520, Note_on_c, 2, 51, 88
6, 38636, Note_off_c, 2, 51, 0
6, 38640, Note_on_c, 2, 53, 88
6, 38756, Note_off_c, 2, 53, 0
6, 38760, Note_on_c, 2, 46, 88
6, 38876, Note_off_c, 2, 46, 0
6, 38880, Note_on_c, 2, 51, 88
6, 38996, Note_off_c, 2, 51, 0
6, 39000, Note_on_c, 2, 50, 88
6, 39116, Note_off_c, 2, 50, 0
6, 39120, Note_on_c, 2, 51, 88
6, 39236, Note_off_c, 2, 51, 0
6, 39240, Note_on_c, 2, 53, 88
6, 39356, Note_off_c, 2, 53, 0
6, 39360, Note_on_c, 2, 54, 88
6, 39476, Note_off_c, 2, 54, 0
6, 39480, Note_on_c, 2, 51, 88
6, 39596, Note_off_c, 2, 51, 0
6, 39600, Note_on_c, 2, 45, 88
6, 39716, Note_off_c, 2, 45, 0
6, 39720, Note_on_c, 2, 57, 88
6, 39836, Note_off_c, 2, 57, 0
6, 39840, Note_on_c, 2, 58, 88
6, 39956, Note_off_c, 2, 58, 0
6, 39960, Note_on_c, 2, 57, 88
6, 40076, Note_off_c, 2, 57, 0
6, 40080, Note_on_c, 2, 58, 88
6, 40196, Note_off_c, 2, 58, 0
6, 40200, Note_on_c, 2, 60, 88
6, 40316, Note_off_c, 2, 60, 0
6, 40320, Note_on_c, 2, 61, 88
6, 40673, Note_off_c, 2, 61, 0
6, 40680, Note_on_c, 2, 60, 88
6, 40738, Note_off_c, 2, 60, 0
6, 40740, Note_on_c, 2, 58, 88
6, 40798, Note_off_c, 2, 58, 0
6, 40800, Note_on_c, 2, 56, 88
6, 41153, Note_off_c, 2, 56, 0
6, 41160, Note_on_c, 2, 54, 88
6, 41276, Note_off_c, 2, 54, 0
6, 41280, Note_on_c, 2, 53, 88
6, 41396, Note_off_c, 2, 53, 0
6, 41400, Note_on_c, 2, 51, 88
6, 41516, Note_off_c, 2, 51, 0
6, 41520, Note_on_c, 2, 53, 88
6, 41636, Note_off_c, 2, 53, 0
6, 41640, Note_on_c, 2, 58, 88
6, 41756, Note_off_c, 2, 58, 0
6, 41760, Note_on_c, 2, 51, 88
6, 42230, Note_off_c, 2, 51, 0
6, 42480, Note_on_c, 2, 47, 88
6, 42954, Note_off_c, 2, 47, 0
6, 42960, Note_on_c, 2, 46, 88
6, 43076, Note_off_c, 2, 46, 0
6, 43080, Note_on_c, 2, 44, 88
6, 43196, Note_off_c, 2, 44, 0
6, 43200, Note_on_c, 2, 46, 88
6, 43434, Note_off_c, 2, 46, 0
6, 43440, Note_on_c, 2, 39, 88
6, 43674, Note_off_c, 2, 39, 0
6, 43680, Note_on_c, 2, 44, 88
6, 43914, Note_off_c, 2, 44, 0
6, 43920, Note_on_c, 2, 56, 88
6, 44273, Note_off_c, 2, 56, 0
6, 44280, Note_on_c, 2, 55, 88
6, 44396, Note_off_c, 2, 55, 0
6, 44400, Note_on_c, 2, 56, 88
6, 44516, Note_off_c, 2, 56, 0
6, 44520, Note_on_c, 2, 52, 88
6, 44636, Note_off_c, 2, 52, 0
6, 44640, Note_on_c, 2, 49, 88
6, 44874, Note_off_c, 2, 49, 0
6, 44880, Note_on_c, 2, 54, 88
6, 45233, Note_off_c, 2, 54, 0
6, 45240, Note_on_c, 2, 53, 88
6, 45356, Note_off_c, 2, 53, 0
6, 45360, Note_on_c, 2, 54, 88
6, 45476, Note_off_c, 2, 54, 0
6, 45480, Note_on_c, 2, 51, 88
6, 45596, Note_off_c, 2, 51, 0
6, 45600, Note_on_c, 2, 53, 88
6, 45716, Note_off_c, 2, 53, 0
6, 45720, Note_on_c, 2, 56, 88
6, 45836, Note_off_c, 2, 56, 0
6, 45840, Note_on_c, 2, 58, 88
6, 45956, Note_off_c, 2, 58, 0
6, 45960, Note_on_c, 2, 60, 88
6, 46076, Note_off_c, 2, 60, 0
6, 46080, Note_on_c, 2, 61, 88
6, 46550, Note_off_c, 2, 61, 0
6, 46560, Note_on_c, 2, 63, 88
6, 47030, Note_off_c, 2, 63, 0
6, 47040, Note_on_c, 2, 66, 88
6, 47076, Note_off_c, 2, 66, 0
6, 47078, Note_on_c, 2, 65, 88
6, 47121, Note_off_c, 2, 65, 0
6, 47123, Note_on_c, 2, 66, 88
6, 47166, Note_off_c, 2, 66, 0
6, 47168, Note_on_c, 2, 65, 88
6, 47211, Note_off_c, 2, 65, 0
6, 47213, Note_on_c, 2, 66, 88
6, 47256, Note_off_c, 2, 66, 0
6, 47258, Note_on_c, 2, 65, 88
6, 47294, Note_off_c, 2, 65, 0
6, 47295, Note_on_c, 2, 66, 88
6, 47331, Note_off_c, 2, 66, 0
6, 47333, Note_on_c, 2, 65, 88
6, 47369, Note_off_c, 2, 65, 0
6, 47370, Note_on_c, 2, 66, 88
6, 47406, Note_off_c, 2, 66, 0
6, 47408, Note_on_c, 2, 65, 88
6, 47444, Note_off_c, 2, 65, 0
6, 47445, Note_on_c, 2, 63, 88
6, 47481, Note_off_c, 2, 63, 0
6, 47483, Note_on_c, 2, 65, 88
6, 47519, Note_off_c, 2, 65, 0
6, 47520, Note_on_c, 2, 66, 88
6, 47754, Note_off_c, 2, 66, 0
6, 47760, Note_on_c, 2, 64, 88
6, 47994, Note_off_c, 2, 64, 0
6, 48000, Note_on_c, 2, 63, 88
6, 48714, Note_off_c, 2, 63, 0
6, 48720, Note_on_c, 2, 61, 88
6, 48836, Note_off_c, 2, 61, 0
6, 48840, Note_on_c, 2, 59, 88
6, 48956, Note_off_c, 2, 59, 0
6, 48960, Note_on_c, 2, 61, 88
6, 49194, Note_off_c, 2, 61, 0
6, 49200, Note_on_c, 2, 54, 88
6, 49434, Note_off_c, 2, 54, 0
6, 49440, Note_on_c, 2, 59, 88
6, 49910, Note_off_c, 2, 59, 0
6, 50520, Note_on_c, 2, 58, 88
6, 50636, Note_off_c, 2, 58, 0
6, 50640, Note_on_c, 2, 59, 88
6, 50756, Note_off_c, 2, 59, 0
6, 50760, Note_on_c, 2, 61, 88
6, 50876, Note_off_c, 2, 61, 0
6, 50880, Note_on_c, 2, 63, 88
6, 50996, Note_off_c, 2, 63, 0
6, 51000, Note_on_c, 2, 59, 88
6, 51116, Note_off_c, 2, 59, 0
6, 51120, Note_on_c, 2, 53, 88
6, 51236, Note_off_c, 2, 53, 0
6, 51240, Note_on_c, 2, 65, 88
6, 51356, Note_off_c, 2, 65, 0
6, 51360, Note_on_c, 2, 66, 88
6, 51476, Note_off_c, 2, 66, 0
6, 51480, Note_on_c, 2, 53, 88
6, 51596, Note_off_c, 2, 53, 0
6, 51600, Note_on_c, 2, 54, 88
6, 51716, Note_off_c, 2, 54, 0
6, 51720, Note_on_c, 2, 56, 88
6, 51836, Note_off_c, 2, 56, 0
6, 51840, Note_on_c, 2, 57, 88
6, 52193, Note_off_c, 2, 57, 0
6, 52200, Note_on_c, 2, 56, 88
6, 52258, Note_off_c, 2, 56, 0
6, 52260, Note_on_c, 2, 54, 88
6, 52318, Note_off_c, 2, 54, 0
6, 52320, Note_on_c, 2, 61, 88
6, 52554, Note_off_c, 2, 61, 0
6, 52560, Note_on_c, 2, 56, 88
6, 52794, Note_off_c, 2, 56, 0
6, 52800, Note_on_c, 2, 58, 88
6, 53034, Note_off_c, 2, 58, 0
6, 53040, Note_on_c, 2, 54, 88
6, 53274, Note_off_c, 2, 54, 0
6, 53280, Note_on_c, 2, 59, 88
6, 53514, Note_off_c, 2, 59, 0
6, 53520, Note_on_c, 2, 47, 88
6, 53636, Note_off_c, 2, 47, 0
6, 53640, Note_on_c, 2, 49, 88
6, 53756, Note_off_c, 2, 49, 0
6, 53760, Note_on_c, 2, 51, 88
6, 53876, Note_off_c, 2, 51, 0
6, 53880, Note_on_c, 2, 47, 88
6, 53996, Note_off_c, 2, 47, 0
6, 54000, Note_on_c, 2, 44, 88
6, 54116, Note_off_c, 2, 44, 0
6, 54120, Note_on_c, 2, 47, 88
6, 54236, Note_off_c, 2, 47, 0
6, 54240, Note_on_c, 2, 52, 88
6, 54356, Note_off_c, 2, 52, 0
6, 54360, Note_on_c, 2, 51, 88
6, 54476, Note_off_c, 2, 51, 0
6, 54480, Note_on_c, 2, 52, 88
6, 54596, Note_off_c, 2, 52, 0
6, 54600, Note_on_c, 2, 49, 88
6, 54716, Note_off_c, 2, 49, 0
6, 54720, Note_on_c, 2, 55, 88
6, 54836, Note_off_c, 2, 55, 0
6, 54840, Note_on_c, 2, 53, 88
6, 54956, Note_off_c, 2, 53, 0
6, 54960, Note_on_c, 2, 55, 88
6, 55076, Note_off_c, 2, 55, 0
6, 55080, Note_on_c, 2, 51, 88
6, 55196, Note_off_c, 2, 51, 0
6, 55200, Note_on_c, 2, 56, 88
6, 55316, Note_off_c, 2, 56, 0
6, 55320, Note_on_c, 2, 55, 88
6, 55436, Note_off_c, 2, 55, 0
6, 55440, Note_on_c, 2, 56, 88
6, 55556, Note_off_c, 2, 56, 0
6, 55560, Note_on_c, 2, 55, 88
6, 55676, Note_off_c, 2, 55, 0
6, 55680, Note_on_c, 2, 56, 88
6, 55796, Note_off_c, 2, 56, 0
6, 55800, Note_on_c, 2, 52, 88
6, 55916, Note_off_c, 2, 52, 0
6, 55920, Note_on_c, 2, 49, 88
6, 56036, Note_off_c, 2, 49, 0
6, 56040, Note_on_c, 2, 52, 88
6, 56156, Note_off_c, 2, 52, 0
6, 56160, Note_on_c, 2, 57, 88
6, 56276, Note_off_c, 2, 57, 0
6, 56280, Note_on_c, 2, 56, 88
6, 56396, Note_off_c, 2, 56, 0
6, 56400, Note_on_c, 2, 57, 88
6, 56516, Note_off_c, 2, 57, 0
6, 56520, Note_on_c, 2, 54, 88
6, 56636, Note_off_c, 2, 54, 0
6, 56640, Note_on_c, 2, 60, 88
6, 56756, Note_off_c, 2, 60, 0
6, 56760, Note_on_c, 2, 58, 88
6, 56876, Note_off_c, 2, 58, 0
6, 56880, Note_on_c, 2, 60, 88
6, 56996, Note_off_c, 2, 60, 0
6, 57000, Note_on_c, 2, 56, 88
6, 57116, Note_off_c, 2, 56, 0
6, 57120, Note_on_c, 2, 61, 88
6, 57236, Note_off_c, 2, 61, 0
6, 57240, Note_on_c, 2, 56, 88
6, 57356, Note_off_c, 2, 56, 0
6, 57360, Note_on_c, 2, 49, 88
6, 57476, Note_off_c, 2, 49, 0
6, 57480, Note_on_c, 2, 51, 88
6, 57596, Note_off_c, 2, 51, 0
6, 57600, Note_on_c, 2, 53, 88
6, 57716, Note_off_c, 2, 53, 0
6, 57720, Note_on_c, 2, 49, 88
6, 57836, Note_off_c, 2, 49, 0
6, 57840, Note_on_c, 2, 46, 88
6, 57956, Note_off_c, 2, 46, 0
6, 57960, Note_on_c, 2, 49, 88
6, 58076, Note_off_c, 2, 49, 0
6, 58080, Note_on_c, 2, 54, 88
6, 58196, Note_off_c, 2, 54, 0
6, 58200, Note_on_c, 2, 53, 88
6, 58316, Note_off_c, 2, 53, 0
6, 58320, Note_on_c, 2, 54, 88
6, 58436, Note_off_c, 2, 54, 0
6, 58440, Note_on_c, 2, 51, 88
6, 58556, Note_off_c, 2, 51, 0
6, 58560, Note_on_c, 2, 57, 88
6, 58676, Note_off_c, 2, 57, 0
6, 58680, Note_on_c, 2, 55, 88
6, 58796, Note_off_c, 2, 55, 0
6, 58800, Note_on_c, 2, 57, 88
6, 58916, Note_off_c, 2, 57, 0
6, 58920, Note_on_c, 2, 53, 88
6, 59036, Note_off_c, 2, 53, 0
6, 59040, Note_on_c, 2, 58, 88
6, 59156, Note_off_c, 2, 58, 0
6, 59160, Note_on_c, 2, 57, 88
6, 59276, Note_off_c, 2, 57, 0
6, 59280, Note_on_c, 2, 58, 88
6, 59396, Note_off_c, 2, 58, 0
6, 59400, Note_on_c, 2, 57, 88
6, 59516, Note_off_c, 2, 57, 0
6, 59520, Note_on_c, 2, 58, 88
6, 59636, Note_off_c, 2, 58, 0
6, 59640, Note_on_c, 2, 54, 88
6, 59756, Note_off_c, 2, 54, 0
6, 59760, Note_on_c, 2, 51, 88
6, 59876, Note_off_c, 2, 51, 0
6, 59880, Note_on_c, 2, 54, 88
6, 59996, Note_off_c, 2, 54, 0
6, 60000, Note_on_c, 2, 59, 88
6, 60116, Note_off_c, 2, 59, 0
6, 60120, Note_on_c, 2, 58, 88
6, 60236, Note_off_c, 2, 58, 0
6, 60240, Note_on_c, 2, 59, 88
6, 60356, Note_off_c, 2, 59, 0
6, 60360, Note_on_c, 2, 56, 88
6, 60476, Note_off_c, 2, 56, 0
6, 60480, Note_on_c, 2, 62, 88
6, 60596, Note_off_c, 2, 62, 0
6, 60600, Note_on_c, 2, 60, 88
6, 60716, Note_off_c, 2, 60, 0
6, 60720, Note_on_c, 2, 62, 88
6, 60836, Note_off_c, 2, 62, 0
6, 60840, Note_on_c, 2, 58, 88
6, 60956, Note_off_c, 2, 58, 0
6, 60960, Note_on_c, 2, 63, 88
6, 61076, Note_off_c, 2, 63, 0
6, 61080, Note_on_c, 2, 58, 88
6, 61196, Note_off_c, 2, 58, 0
6, 61200, Note_on_c, 2, 51, 88
6, 61316, Note_off_c, 2, 51, 0
6, 61320, Note_on_c, 2, 53, 88
6, 61436, Note_off_c, 2, 53, 0
6, 61440, Note_on_c, 2, 54, 88
6, 61476, Note_off_c, 2, 54, 0
6, 61478, Note_on_c, 2, 53, 88
6, 61514, Note_off_c, 2, 53, 0
6, 61515, Note_on_c, 2, 54, 88
6, 61551, Note_off_c, 2, 54, 0
6, 61553, Note_on_c, 2, 53, 88
6, 61589, Note_off_c, 2, 53, 0
6, 61590, Note_on_c, 2, 54, 88
6, 61626, Note_off_c, 2, 54, 0
6, 61628, Note_on_c, 2, 53, 88
6, 61664, Note_off_c, 2, 53, 0
6, 61665, Note_on_c, 2, 54, 88
6, 61701, Note_off_c, 2, 54, 0
6, 61703, Note_on_c, 2, 53, 88
6, 61732, Note_off_c, 2, 53, 0
6, 61733, Note_on_c, 2, 54, 88
6, 61762, Note_off_c, 2, 54, 0
6, 61763, Note_on_c, 2, 53, 88
6, 61799, Note_off_c, 2, 53, 0
6, 61800, Note_on_c, 2, 51, 88
6, 61858, Note_off_c, 2, 51, 0
6, 61860, Note_on_c, 2, 53, 88
6, 61918, Note_off_c, 2, 53, 0
6, 61920, Note_on_c, 2, 54, 88
6, 62154, Note_off_c, 2, 54, 0
6, 62400, Note_on_c, 2, 49, 88
6, 62634, Note_off_c, 2, 49, 0
6, 62640, Note_on_c, 2, 51, 88
6, 62874, Note_off_c, 2, 51, 0
6, 62880, Note_on_c, 2, 52, 88
6, 63233, Note_off_c, 2, 52, 0
6, 63240, Note_on_c, 2, 51, 88
6, 63298, Note_off_c, 2, 51, 0
6, 63300, Note_on_c, 2, 49, 88
6, 63358, Note_off_c, 2, 49, 0
6, 63360, Note_on_c, 2, 47, 88
6, 63476, Note_off_c, 2, 47, 0
6, 63480, Note_on_c, 2, 46, 88
6, 63596, Note_off_c, 2, 46, 0
6, 63600, Note_on_c, 2, 47, 88
6, 63716, Note_off_c, 2, 47, 0
6, 63720, Note_on_c, 2, 49, 88
6, 63836, Note_off_c, 2, 49, 0
6, 63840, Note_on_c, 2, 51, 88
6, 63956, Note_off_c, 2, 51, 0
6, 63960, Note_on_c, 2, 53, 88
6, 64076, Note_off_c, 2, 53, 0
6, 64080, Note_on_c, 2, 54, 88
6, 64196, Note_off_c, 2, 54, 0
6, 64200, Note_on_c, 2, 51, 88
6, 64316, Note_off_c, 2, 51, 0
6, 64320, Note_on_c, 2, 56, 88
6, 64554, Note_off_c, 2, 56, 0
6, 64560, Note_on_c, 2, 47, 88
6, 64794, Note_off_c, 2, 47, 0
6, 64800, Note_on_c, 2, 47, 88
6, 65034, Note_off_c, 2, 47, 0
6, 65040, Note_on_c, 2, 46, 88
6, 65274, Note_off_c, 2, 46, 0
6, 65280, Note_on_c, 2, 58, 88
6, 65514, Note_off_c, 2, 58, 0
6, 65520, Note_on_c, 2, 49, 88
6, 65754, Note_off_c, 2, 49, 0
6, 65760, Note_on_c, 2, 49, 88
6, 65994, Note_off_c, 2, 49, 0
6, 66000, Note_on_c, 2, 47, 88
6, 66234, Note_off_c, 2, 47, 0
6, 66240, Note_on_c, 2, 59, 88
6, 66474, Note_off_c, 2, 59, 0
6, 66480, Note_on_c, 2, 51, 88
6, 66714, Note_off_c, 2, 51, 0
6, 66720, Note_on_c, 2, 51, 88
6, 66954, Note_off_c, 2, 51, 0
6, 66960, Note_on_c, 2, 49, 88
6, 67076, Note_off_c, 2, 49, 0
6, 67080, Note_on_c, 2, 51, 88
6, 67196, Note_off_c, 2, 51, 0
6, 67200, Note_on_c, 2, 53, 88
6, 67236, Note_off_c, 2, 53, 0
6, 67238, Note_on_c, 2, 51, 88
6, 67274, Note_off_c, 2, 51, 0
6, 67275, Note_on_c, 2, 53, 88
6, 67311, Note_off_c, 2, 53, 0
6, 67313, Note_on_c, 2, 51, 88
6, 67349, Note_off_c, 2, 51, 0
6, 67350, Note_on_c, 2, 53, 88
6, 67386, Note_off_c, 2, 53, 0
6, 67388, Note_on_c, 2, 51, 88
6, 67424, Note_off_c, 2, 51, 0
6, 67425, Note_on_c, 2, 53, 88
6, 67461, Note_off_c, 2, 53, 0
6, 67463, Note_on_c, 2, 51, 88
6, 67492, Note_off_c, 2, 51, 0
6, 67493, Note_on_c, 2, 53, 88
6, 67522, Note_off_c, 2, 53, 0
6, 67523, Note_on_c, 2, 51, 88
6, 67559, Note_off_c, 2, 51, 0
6, 67560, Note_on_c, 2, 49, 88
6, 67618, Note_off_c, 2, 49, 0
6, 67620, Note_on_c, 2, 51, 88
6, 67678, Note_off_c, 2, 51, 0
6, 67680, Note_on_c, 2, 53, 88
6, 67796, Note_off_c, 2, 53, 0
6, 67800, Note_on_c, 2, 56, 88
6, 67916, Note_off_c, 2, 56, 0
6, 67920, Note_on_c, 2, 58, 88
6, 68036, Note_off_c, 2, 58, 0
6, 68040, Note_on_c, 2, 59, 88
6, 68156, Note_off_c, 2, 59, 0
6, 68160, Note_on_c, 2, 61, 88
6, 68276, Note_off_c, 2, 61, 0
6, 68280, Note_on_c, 2, 52, 88
6, 68396, Note_off_c, 2, 52, 0
6, 68400, Note_on_c, 2, 51, 88
6, 68516, Note_off_c, 2, 51, 0
6, 68520, Note_on_c, 2, 49, 88
6, 68636, Note_off_c, 2, 49, 0
6, 68640, Note_on_c, 2, 51, 88
6, 68756, Note_off_c, 2, 51, 0
6, 68760, Note_on_c, 2, 54, 88
6, 68876, Note_off_c, 2, 54, 0
6, 68880, Note_on_c, 2, 56, 88
6, 68996, Note_off_c, 2, 56, 0
6, 69000, Note_on_c, 2, 58, 88
6, 69116, Note_off_c, 2, 58, 0
6, 69120, Note_on_c, 2, 59, 88
6, 69236, Note_off_c, 2, 59, 0
6, 69240, Note_on_c, 2, 61, 88
6, 69298, Note_off_c, 2, 61, 0
6, 69300, Note_on_c, 2, 59, 88
6, 69358, Note_off_c, 2, 59, 0
6, 69360, Note_on_c, 2, 58, 88
6, 69476, Note_off_c, 2, 58, 0
6, 69480, Note_on_c, 2, 59, 88
6, 69596, Note_off_c, 2, 59, 0
6, 69600, Note_on_c, 2, 61, 88
6, 69716, Note_off_c, 2, 61, 0
6, 69720, Note_on_c, 2, 63, 88
6, 69836, Note_off_c, 2, 63, 0
6, 69840, Note_on_c, 2, 65, 88
6, 69956, Note_off_c, 2, 65, 0
6, 69960, Note_on_c, 2, 66, 88
6, 70076, Note_off_c, 2, 66, 0
6, 70080, Note_on_c, 2, 65, 88
6, 70196, Note_off_c, 2, 65, 0
6, 70200, Note_on_c, 2, 63, 88
6, 70316, Note_off_c, 2, 63, 0
6, 70320, Note_on_c, 2, 61, 88
6, 70436, Note_off_c, 2, 61, 0
6, 70440, Note_on_c, 2, 60, 88
6, 70556, Note_off_c, 2, 60, 0
6, 70560, Note_on_c, 2, 61, 88
6, 70676, Note_off_c, 2, 61, 0
6, 70680, Note_on_c, 2, 49, 88
6, 70796, Note_off_c, 2, 49, 0
6, 70800, Note_on_c, 2, 61, 88
6, 70916, Note_off_c, 2, 61, 0
6, 70920, Note_on_c, 2, 59, 88
6, 71036, Note_off_c, 2, 59, 0
6, 71040, Note_on_c, 2, 58, 88
6, 71156, Note_off_c, 2, 58, 0
6, 71160, Note_on_c, 2, 59, 88
6, 71276, Note_off_c, 2, 59, 0
6, 71280, Note_on_c, 2, 61, 88
6, 71396, Note_off_c, 2, 61, 0
6, 71400, Note_on_c, 2, 58, 88
6, 71516, Note_off_c, 2, 58, 0
6, 71520, Note_on_c, 2, 59, 88
6, 71636, Note_off_c, 2, 59, 0
6, 71640, Note_on_c, 2, 47, 88
6, 71756, Note_off_c, 2, 47, 0
6, 71760, Note_on_c, 2, 59, 88
6, 71876, Note_off_c, 2, 59, 0
6, 71880, Note_on_c, 2, 58, 88
6, 71996, Note_off_c, 2, 58, 0
6, 72000, Note_on_c, 2, 56, 88
6, 72116, Note_off_c, 2, 56, 0
6, 72120, Note_on_c, 2, 58, 88
6, 72236, Note_off_c, 2, 58, 0
6, 72240, Note_on_c, 2, 59, 88
6, 72356, Note_off_c, 2, 59, 0
6, 72360, Note_on_c, 2, 56, 88
6, 72476, Note_off_c, 2, 56, 0
6, 72480, Note_on_c, 2, 53, 88
6, 72596, Note_off_c, 2, 53, 0
6, 72600, Note_on_c, 2, 54, 88
6, 72716, Note_off_c, 2, 54, 0
6, 72720, Note_on_c, 2, 56, 88
6, 72836, Note_off_c, 2, 56, 0
6, 72840, Note_on_c, 2, 53, 88
6, 72956, Note_off_c, 2, 53, 0
6, 72960, Note_on_c, 2, 49, 88
6, 73076, Note_off_c, 2, 49, 0
6, 73080, Note_on_c, 2, 53, 88
6, 73196, Note_off_c, 2, 53, 0
6, 73200, Note_on_c, 2, 56, 88
6, 73316, Note_off_c, 2, 56, 0
6, 73320, Note_on_c, 2, 61, 88
6, 73436, Note_off_c, 2, 61, 0
6, 73440, Note_on_c, 2, 54, 88
6, 73556, Note_off_c, 2, 54, 0
6, 73560, Note_on_c, 2, 53, 88
6, 73676, Note_off_c, 2, 53, 0
6, 73680, Note_on_c, 2, 54, 88
6, 73796, Note_off_c, 2, 54, 0
6, 73800, Note_on_c, 2, 56, 88
6, 73916, Note_off_c, 2, 56, 0
6, 73920, Note_on_c, 2, 57, 88
6, 74036, Note_off_c, 2, 57, 0
6, 74040, Note_on_c, 2, 54, 88
6, 74156, Note_off_c, 2, 54, 0
6, 74160, Note_on_c, 2, 48, 88
6, 74276, Note_off_c, 2, 48, 0
6, 74280, Note_on_c, 2, 60, 88
6, 74396, Note_off_c, 2, 60, 0
6, 74400, Note_on_c, 2, 61, 88
6, 74516, Note_off_c, 2, 61, 0
6, 74520, Note_on_c, 2, 60, 88
6, 74636, Note_off_c, 2, 60, 0
6, 74640, Note_on_c, 2, 61, 88
6, 74756, Note_off_c, 2, 61, 0
6, 74760, Note_on_c, 2, 63, 88
6, 74876, Note_off_c, 2, 63, 0
6, 74880, Note_on_c, 2, 64, 88
6, 74996, Note_off_c, 2, 64, 0
6, 75000, Note_on_c, 2, 52, 88
6, 75116, Note_off_c, 2, 52, 0
6, 75120, Note_on_c, 2, 51, 88
6, 75236, Note_off_c, 2, 51, 0
6, 75240, Note_on_c, 2, 49, 88
6, 75356, Note_off_c, 2, 49, 0
6, 75360, Note_on_c, 2, 47, 88
6, 75476, Note_off_c, 2, 47, 0
6, 75480, Note_on_c, 2, 49, 88
6, 75596, Note_off_c, 2, 49, 0
6, 75600, Note_on_c, 2, 47, 88
6, 75716, Note_off_c, 2, 47, 0
6, 75720, Note_on_c, 2, 46, 88
6, 75836, Note_off_c, 2, 46, 0
6, 75840, Note_on_c, 2, 44, 88
6, 75956, Note_off_c, 2, 44, 0
6, 75960, Note_on_c, 2, 42, 88
6, 76076, Note_off_c, 2, 42, 0
6, 76080, Note_on_c, 2, 44, 88
6, 76196, Note_off_c, 2, 44, 0
6, 76200, Note_on_c, 2, 49, 88
6, 76316, Note_off_c, 2, 49, 0
6, 76320, Note_on_c, 2, 42, 88
6, 76436, Note_off_c, 2, 42, 0
6, 76440, Note_on_c, 2, 41, 88
6, 76556, Note_off_c, 2, 41, 0
6, 76560, Note_on_c, 2, 42, 88
6, 76676, Note_off_c, 2, 42, 0
6, 76680, Note_on_c, 2, 46, 88
6, 76796, Note_off_c, 2, 46, 0
6, 76800, Note_on_c, 2, 49, 88
6, 76916, Note_off_c, 2, 49, 0
6, 76920, Note_on_c, 2, 46, 88
6, 77036, Note_off_c, 2, 46, 0
6, 77040, Note_on_c, 2, 54, 88
6, 77156, Note_off_c, 2, 54, 0
6, 77160, Note_on_c, 2, 53, 88
6, 77276, Note_off_c, 2, 53, 0
6, 77280, Note_on_c, 2, 51, 88
6, 77396, Note_off_c, 2, 51, 0
6, 77400, Note_on_c, 2, 49, 88
6, 77516, Note_off_c, 2, 49, 0
6, 77520, Note_on_c, 2, 51, 88
6, 77636, Note_off_c, 2, 51, 0
6, 77640, Note_on_c, 2, 54, 88
6, 77756, Note_off_c, 2, 54, 0
6, 77760, Note_on_c, 2, 56, 88
6, 77876, Note_off_c, 2, 56, 0
6, 77880, Note_on_c, 2, 51, 88
6, 77996, Note_off_c, 2, 51, 0
6, 78000, Note_on_c, 2, 59, 88
6, 78116, Note_off_c, 2, 59, 0
6, 78120, Note_on_c, 2, 56, 88
6, 78236, Note_off_c, 2, 56, 0
6, 78240, Note_on_c, 2, 53, 88
6, 78356, Note_off_c, 2, 53, 0
6, 78360, Note_on_c, 2, 51, 88
6, 78476, Note_off_c, 2, 51, 0
6, 78480, Note_on_c, 2, 53, 88
6, 78596, Note_off_c, 2, 53, 0
6, 78600, Note_on_c, 2, 56, 88
6, 78716, Note_off_c, 2, 56, 0
6, 78720, Note_on_c, 2, 61, 88
6, 78836, Note_off_c, 2, 61, 0
6, 78840, Note_on_c, 2, 56, 88
6, 78956, Note_off_c, 2, 56, 0
6, 78960, Note_on_c, 2, 65, 88
6, 79076, Note_off_c, 2, 65, 0
6, 79080, Note_on_c, 2, 61, 88
6, 79196, Note_off_c, 2, 61, 0
6, 79200, Note_on_c, 2, 63, 88
6, 79434, Note_off_c, 2, 63, 0
6, 79440, Note_on_c, 2, 59, 88
6, 79674, Note_off_c, 2, 59, 0
6, 79680, Note_on_c, 2, 61, 88
6, 79914, Note_off_c, 2, 61, 0
6, 79920, Note_on_c, 2, 49, 88
6, 80154, Note_off_c, 2, 49, 0
6, 80160, Note_on_c, 2, 42, 88
6, 80630, Note_off_c, 2, 42, 0
6, 80630, End_track
0, 0, End_of_file
