0, 0, Header, 1, 6, 240
1, 0, Start_track
1, 0, Time_signature, 4, 2, 24, 8
1, 0, Tempo, 821917
1, 0, SMPTE_offset, 64, 0, 0, 0, 110
1, 66240, Tempo, 882352
1, 66600, Tempo, 1153846
1, 66600, End_track
2, 0, Start_track
2, 0, Title_t, "(C) & (P) 1993"
2, 127, End_track
3, 0, Start_track
3, 0, Title_t, "CCARH,Stanford"
3, 0, End_track
4, 0, Start_track
4, 0, Title_t, "Track 1"
4, 0, Program_c, 0, 6
4, 3240, Note_on_c, 0, 66, 88
4, 3356, Note_off_c, 0, 66, 0
4, 3360, Note_on_c, 0, 64, 88
4, 3476, Note_off_c, 0, 64, 0
4, 3480, Note_on_c, 0, 61, 88
4, 3596, Note_off_c, 0, 61, 0
4, 3600, Note_on_c, 0, 69, 88
4, 3956, Note_off_c, 0, 69, 0
4, 3960, Note_on_c, 0, 68, 88
4, 4018, Note_off_c, 0, 68, 0
4, 4020, Note_on_c, 0, 66, 88
4, 4078, Note_off_c, 0, 66, 0
4, 4080, Note_on_c, 0, 68, 88
4, 4433, Note_off_c, 0, 68, 0
4, 4440, Note_on_c, 0, 73, 88
4, 4556, Note_off_c, 0, 73, 0
4, 4560, Note_on_c, 0, 66, 88
4, 4916, Note_off_c, 0, 66, 0
4, 4920, Note_on_c, 0, 64, 88
4, 4978, Note_off_c, 0, 64, 0
4, 4980, Note_on_c, 0, 63, 88
4, 5038, Note_off_c, 0, 63, 0
4, 5040, Note_on_c, 0, 64, 88
4, 5156, Note_off_c, 0, 64, 0
4, 5160, Note_on_c, 0, 61, 88
4, 5276, Note_off_c, 0, 61, 0
4, 5280, Note_on_c, 0, 63, 88
4, 5750, Note_off_c, 0, 63, 0
4, 5760, Note_on_c, 0, 61, 88
4, 5876, Note_off_c, 0, 61, 0
4, 5880, Note_on_c, 0, 73, 88
4, 5996, Note_off_c, 0, 73, 0
4, 6000, Note_on_c, 0, 66, 88
4, 6353, Note_off_c, 0, 66, 0
4, 6360, Note_on_c, 0, 71, 88
4, 6476, Note_off_c, 0, 71, 0
4, 6480, Note_on_c, 0, 64, 88
4, 6836, Note_off_c, 0, 64, 0
4, 6840, Note_on_c, 0, 69, 88
4, 7074, Note_off_c, 0, 69, 0
4, 7080, Note_on_c, 0, 68, 88
4, 7314, Note_off_c, 0, 68, 0
4, 7320, Note_on_c, 0, 66, 88
4, 7554, Note_off_c, 0, 66, 0
4, 7560, Note_on_c, 0, 65, 88
4, 7676, Note_off_c, 0, 65, 0
4, 7680, Note_on_c, 0, 66, 88
4, 7914, Note_off_c, 0, 66, 0
4, 8040, Note_on_c, 0, 71, 88
4, 8156, Note_off_c, 0, 71, 0
4, 8160, Note_on_c, 0, 68, 88
4, 8276, Note_off_c, 0, 68, 0
4, 8280, Note_on_c, 0, 64, 88
4, 8396, Note_off_c, 0, 64, 0
4, 8520, Note_on_c, 0, 69, 88
4, 8636, Note_off_c, 0, 69, 0
4, 8640, Note_on_c, 0, 66, 88
4, 8756, Note_off_c, 0, 66, 0
4, 8760, Note_on_c, 0, 63, 88
4, 8876, Note_off_c, 0, 63, 0
4, 9000, Note_on_c, 0, 68, 88
4, 9116, Note_off_c, 0, 68, 0
4, 9120, Note_on_c, 0, 65, 88
4, 9236, Note_off_c, 0, 65, 0
4, 9240, Note_on_c, 0, 61, 88
4, 9356, Note_off_c, 0, 61, 0
4, 9360, Note_on_c, 0, 66, 88
4, 9834, Note_off_c, 0, 66, 0
4, 9840, Note_on_c, 0, 65, 88
4, 10074, Note_off_c, 0, 65, 0
4, 10080, Note_on_c, 0, 66, 88
4, 10196, Note_off_c, 0, 66, 0
4, 10200, Note_on_c, 0, 69, 88
4, 10316, Note_off_c, 0, 69, 0
4, 10320, Note_on_c, 0, 71, 88
4, 10436, Note_off_c, 0, 71, 0
4, 10440, Note_on_c, 0, 74, 88
4, 10556, Note_off_c, 0, 74, 0
4, 10680, Note_on_c, 0, 68, 88
4, 10796, Note_off_c, 0, 68, 0
4, 10800, Note_on_c, 0, 69, 88
4, 10916, Note_off_c, 0, 69, 0
4, 10920, Note_on_c, 0, 73, 88
4, 11036, Note_off_c, 0, 73, 0
4, 11160, Note_on_c, 0, 66, 88
4, 11218, Note_off_c, 0, 66, 0
4, 11220, Note_on_c, 0, 68, 88
4, 11278, Note_off_c, 0, 68, 0
4, 11280, Note_on_c, 0, 69, 88
4, 11302, Note_off_c, 0, 69, 0
4, 11303, Note_on_c, 0, 68, 88
4, 11324, Note_off_c, 0, 68, 0
4, 11325, Note_on_c, 0, 69, 88
4, 11347, Note_off_c, 0, 69, 0
4, 11348, Note_on_c, 0, 68, 88
4, 11369, Note_off_c, 0, 68, 0
4, 11370, Note_on_c, 0, 69, 88
4, 11392, Note_off_c, 0, 69, 0
4, 11393, Note_on_c, 0, 68, 88
4, 11414, Note_off_c, 0, 68, 0
4, 11415, Note_on_c, 0, 69, 88
4, 11437, Note_off_c, 0, 69, 0
4, 11438, Note_on_c, 0, 68, 88
4, 11459, Note_off_c, 0, 68, 0
4, 11460, Note_on_c, 0, 66, 88
4, 11489, Note_off_c, 0, 66, 0
4, 11490, Note_on_c, 0, 68, 88
4, 11519, Note_off_c, 0, 68, 0
4, 11520, Note_on_c, 0, 69, 88
4, 11754, Note_off_c, 0, 69, 0
4, 11880, Note_on_c, 0, 75, 88
4, 11996, Note_off_c, 0, 75, 0
4, 12000, Note_on_c, 0, 72, 88
4, 12116, Note_off_c, 0, 72, 0
4, 12120, Note_on_c, 0, 68, 88
4, 12236, Note_off_c, 0, 68, 0
4, 12360, Note_on_c, 0, 73, 88
4, 12476, Note_off_c, 0, 73, 0
4, 12480, Note_on_c, 0, 78, 88
4, 12714, Note_off_c, 0, 78, 0
4, 12720, Note_on_c, 0, 75, 88
4, 12954, Note_off_c, 0, 75, 0
4, 12960, Note_on_c, 0, 80, 88
4, 13076, Note_off_c, 0, 80, 0
4, 13080, Note_on_c, 0, 76, 88
4, 13196, Note_off_c, 0, 76, 0
4, 13200, Note_on_c, 0, 78, 88
4, 13316, Note_off_c, 0, 78, 0
4, 13320, Note_on_c, 0, 81, 88
4, 13436, Note_off_c, 0, 81, 0
4, 13560, Note_on_c, 0, 74, 88
4, 13676, Note_off_c, 0, 74, 0
4, 13680, Note_on_c, 0, 76, 88
4, 13796, Note_off_c, 0, 76, 0
4, 13800, Note_on_c, 0, 80, 88
4, 13916, Note_off_c, 0, 80, 0
4, 14040, Note_on_c, 0, 73, 88
4, 14156, Note_off_c, 0, 73, 0
4, 14160, Note_on_c, 0, 71, 88
4, 14276, Note_off_c, 0, 71, 0
4, 14280, Note_on_c, 0, 69, 88
4, 14396, Note_off_c, 0, 69, 0
4, 14400, Note_on_c, 0, 68, 88
4, 14634, Note_off_c, 0, 68, 0
4, 14760, Note_on_c, 0, 73, 88
4, 14876, Note_off_c, 0, 73, 0
4, 14880, Note_on_c, 0, 69, 88
4, 14996, Note_off_c, 0, 69, 0
4, 15000, Note_on_c, 0, 66, 88
4, 15116, Note_off_c, 0, 66, 0
4, 15120, Note_on_c, 0, 74, 88
4, 15476, Note_off_c, 0, 74, 0
4, 15480, Note_on_c, 0, 73, 88
4, 15538, Note_off_c, 0, 73, 0
4, 15540, Note_on_c, 0, 71, 88
4, 15598, Note_off_c, 0, 71, 0
4, 15600, Note_on_c, 0, 73, 88
4, 15953, Note_off_c, 0, 73, 0
4, 15960, Note_on_c, 0, 78, 88
4, 16076, Note_off_c, 0, 78, 0
4, 16080, Note_on_c, 0, 71, 88
4, 16436, Note_off_c, 0, 71, 0
4, 16440, Note_on_c, 0, 69, 88
4, 16498, Note_off_c, 0, 69, 0
4, 16500, Note_on_c, 0, 68, 88
4, 16558, Note_off_c, 0, 68, 0
4, 16560, Note_on_c, 0, 69, 88
4, 16676, Note_off_c, 0, 69, 0
4, 16680, Note_on_c, 0, 66, 88
4, 16796, Note_off_c, 0, 66, 0
4, 16800, Note_on_c, 0, 68, 88
4, 17270, Note_off_c, 0, 68, 0
4, 17280, Note_on_c, 0, 66, 88
4, 17633, Note_off_c, 0, 66, 0
4, 17640, Note_on_c, 0, 71, 88
4, 17756, Note_off_c, 0, 71, 0
4, 17760, Note_on_c, 0, 64, 88
4, 17876, Note_off_c, 0, 64, 0
4, 17880, Note_on_c, 0, 68, 88
4, 17996, Note_off_c, 0, 68, 0
4, 18000, Note_on_c, 0, 69, 88
4, 18116, Note_off_c, 0, 69, 0
4, 18120, Note_on_c, 0, 73, 88
4, 18236, Note_off_c, 0, 73, 0
4, 18240, Note_on_c, 0, 66, 88
4, 18474, Note_off_c, 0, 66, 0
4, 18480, Note_on_c, 0, 69, 88
4, 18502, Note_off_c, 0, 69, 0
4, 18503, Note_on_c, 0, 68, 88
4, 18528, Note_off_c, 0, 68, 0
4, 18529, Note_on_c, 0, 69, 88
4, 18554, Note_off_c, 0, 69, 0
4, 18555, Note_on_c, 0, 68, 88
4, 18580, Note_off_c, 0, 68, 0
4, 18581, Note_on_c, 0, 69, 88
4, 18607, Note_off_c, 0, 69, 0
4, 18608, Note_on_c, 0, 68, 88
4, 18629, Note_off_c, 0, 68, 0
4, 18630, Note_on_c, 0, 69, 88
4, 18652, Note_off_c, 0, 69, 0
4, 18653, Note_on_c, 0, 68, 88
4, 18674, Note_off_c, 0, 68, 0
4, 18675, Note_on_c, 0, 66, 88
4, 18697, Note_off_c, 0, 66, 0
4, 18698, Note_on_c, 0, 68, 88
4, 18719, Note_off_c, 0, 68, 0
4, 18720, Note_on_c, 0, 69, 88
4, 18954, Note_off_c, 0, 69, 0
4, 19800, Note_on_c, 0, 74, 88
4, 19916, Note_off_c, 0, 74, 0
4, 19920, Note_on_c, 0, 73, 88
4, 20095, Note_off_c, 0, 73, 0
4, 20100, Note_on_c, 0, 71, 88
4, 20158, Note_off_c, 0, 71, 0
4, 20160, Note_on_c, 0, 70, 88
4, 20276, Note_off_c, 0, 70, 0
4, 20280, Note_on_c, 0, 66, 88
4, 20396, Note_off_c, 0, 66, 0
4, 20400, Note_on_c, 0, 71, 88
4, 20870, Note_off_c, 0, 71, 0
4, 20880, Note_on_c, 0, 70, 88
4, 20996, Note_off_c, 0, 70, 0
4, 21000, Note_on_c, 0, 69, 88
4, 21236, Note_off_c, 0, 69, 0
4, 21240, Note_on_c, 0, 71, 88
4, 21356, Note_off_c, 0, 71, 0
4, 21360, Note_on_c, 0, 69, 88
4, 21535, Note_off_c, 0, 69, 0
4, 21540, Note_on_c, 0, 68, 88
4, 21598, Note_off_c, 0, 68, 0
4, 21600, Note_on_c, 0, 66, 88
4, 22070, Note_off_c, 0, 66, 0
4, 22080, Note_on_c, 0, 64, 88
4, 22433, Note_off_c, 0, 64, 0
4, 22440, Note_on_c, 0, 69, 88
4, 22556, Note_off_c, 0, 69, 0
4, 22560, Note_on_c, 0, 71, 88
4, 22913, Note_off_c, 0, 71, 0
4, 22920, Note_on_c, 0, 68, 88
4, 23036, Note_off_c, 0, 68, 0
4, 23040, Note_on_c, 0, 73, 88
4, 23393, Note_off_c, 0, 73, 0
4, 23400, Note_on_c, 0, 69, 88
4, 23516, Note_off_c, 0, 69, 0
4, 23520, Note_on_c, 0, 74, 88
4, 24102, Note_off_c, 0, 74, 0
4, 24120, Note_on_c, 0, 74, 88
4, 24236, Note_off_c, 0, 74, 0
4, 24240, Note_on_c, 0, 73, 88
4, 24415, Note_off_c, 0, 73, 0
4, 24420, Note_on_c, 0, 71, 88
4, 24478, Note_off_c, 0, 71, 0
4, 24480, Note_on_c, 0, 69, 88
4, 24714, Note_off_c, 0, 69, 0
4, 24720, Note_on_c, 0, 78, 88
4, 25076, Note_off_c, 0, 78, 0
4, 25080, Note_on_c, 0, 76, 88
4, 25196, Note_off_c, 0, 76, 0
4, 25200, Note_on_c, 0, 74, 88
4, 25375, Note_off_c, 0, 74, 0
4, 25380, Note_on_c, 0, 73, 88
4, 25438, Note_off_c, 0, 73, 0
4, 25440, Note_on_c, 0, 74, 88
4, 25556, Note_off_c, 0, 74, 0
4, 25560, Note_on_c, 0, 71, 88
4, 25676, Note_off_c, 0, 71, 0
4, 25680, Note_on_c, 0, 76, 88
4, 26036, Note_off_c, 0, 76, 0
4, 26040, Note_on_c, 0, 78, 88
4, 26156, Note_off_c, 0, 78, 0
4, 26160, Note_on_c, 0, 74, 88
4, 26276, Note_off_c, 0, 74, 0
4, 26280, Note_on_c, 0, 71, 88
4, 26396, Note_off_c, 0, 71, 0
4, 26400, Note_on_c, 0, 73, 88
4, 26634, Note_off_c, 0, 73, 0
4, 26760, Note_on_c, 0, 70, 88
4, 26876, Note_off_c, 0, 70, 0
4, 26880, Note_on_c, 0, 71, 88
4, 26996, Note_off_c, 0, 71, 0
4, 27000, Note_on_c, 0, 74, 88
4, 27116, Note_off_c, 0, 74, 0
4, 27120, Note_on_c, 0, 73, 88
4, 27295, Note_off_c, 0, 73, 0
4, 27300, Note_on_c, 0, 71, 88
4, 27358, Note_off_c, 0, 71, 0
4, 27360, Note_on_c, 0, 69, 88
4, 27713, Note_off_c, 0, 69, 0
4, 27720, Note_on_c, 0, 74, 88
4, 27836, Note_off_c, 0, 74, 0
4, 27840, Note_on_c, 0, 67, 88
4, 28193, Note_off_c, 0, 67, 0
4, 28200, Note_on_c, 0, 73, 88
4, 28316, Note_off_c, 0, 73, 0
4, 28320, Note_on_c, 0, 66, 88
4, 28554, Note_off_c, 0, 66, 0
4, 28920, Note_on_c, 0, 65, 88
4, 29036, Note_off_c, 0, 65, 0
4, 29040, Note_on_c, 0, 66, 88
4, 29156, Note_off_c, 0, 66, 0
4, 29160, Note_on_c, 0, 69, 88
4, 29276, Note_off_c, 0, 69, 0
4, 29280, Note_on_c, 0, 63, 88
4, 29396, Note_off_c, 0, 63, 0
4, 29400, Note_on_c, 0, 66, 88
4, 29516, Note_off_c, 0, 66, 0
4, 29520, Note_on_c, 0, 71, 88
4, 29876, Note_off_c, 0, 71, 0
4, 29880, Note_on_c, 0, 69, 88
4, 29938, Note_off_c, 0, 69, 0
4, 29940, Note_on_c, 0, 68, 88
4, 29998, Note_off_c, 0, 68, 0
4, 30000, Note_on_c, 0, 69, 88
4, 30116, Note_off_c, 0, 69, 0
4, 30120, Note_on_c, 0, 73, 88
4, 30236, Note_off_c, 0, 73, 0
4, 30240, Note_on_c, 0, 66, 88
4, 30356, Note_off_c, 0, 66, 0
4, 30360, Note_on_c, 0, 69, 88
4, 30476, Note_off_c, 0, 69, 0
4, 30480, Note_on_c, 0, 74, 88
4, 30822, Note_off_c, 0, 74, 0
4, 30840, Note_on_c, 0, 74, 88
4, 30956, Note_off_c, 0, 74, 0
4, 30960, Note_on_c, 0, 73, 88
4, 31135, Note_off_c, 0, 73, 0
4, 31140, Note_on_c, 0, 71, 88
4, 31198, Note_off_c, 0, 71, 0
4, 31200, Note_on_c, 0, 69, 88
4, 31796, Note_off_c, 0, 69, 0
4, 31800, Note_on_c, 0, 68, 88
4, 31858, Note_off_c, 0, 68, 0
4, 31860, Note_on_c, 0, 66, 88
4, 31918, Note_off_c, 0, 66, 0
4, 31920, Note_on_c, 0, 68, 88
4, 32036, Note_off_c, 0, 68, 0
4, 32040, Note_on_c, 0, 63, 88
4, 32156, Note_off_c, 0, 63, 0
4, 32160, Note_on_c, 0, 64, 88
4, 32276, Note_off_c, 0, 64, 0
4, 32280, Note_on_c, 0, 76, 88
4, 32396, Note_off_c, 0, 76, 0
4, 32400, Note_on_c, 0, 75, 88
4, 32575, Note_off_c, 0, 75, 0
4, 32580, Note_on_c, 0, 73, 88
4, 32638, Note_off_c, 0, 73, 0
4, 32640, Note_on_c, 0, 72, 88
4, 32756, Note_off_c, 0, 72, 0
4, 32760, Note_on_c, 0, 78, 88
4, 32876, Note_off_c, 0, 78, 0
4, 32880, Note_on_c, 0, 76, 88
4, 32996, Note_off_c, 0, 76, 0
4, 33000, Note_on_c, 0, 75, 88
4, 33116, Note_off_c, 0, 75, 0
4, 33120, Note_on_c, 0, 76, 88
4, 33473, Note_off_c, 0, 76, 0
4, 33480, Note_on_c, 0, 75, 88
4, 33538, Note_off_c, 0, 75, 0
4, 33540, Note_on_c, 0, 73, 88
4, 33598, Note_off_c, 0, 73, 0
4, 33600, Note_on_c, 0, 80, 88
4, 33716, Note_off_c, 0, 80, 0
4, 33720, Note_on_c, 0, 72, 88
4, 33836, Note_off_c, 0, 72, 0
4, 33840, Note_on_c, 0, 73, 88
4, 34302, Note_off_c, 0, 73, 0
4, 34320, Note_on_c, 0, 73, 88
4, 34349, Note_off_c, 0, 73, 0
4, 34350, Note_on_c, 0, 72, 88
4, 34379, Note_off_c, 0, 72, 0
4, 34380, Note_on_c, 0, 73, 88
4, 34409, Note_off_c, 0, 73, 0
4, 34410, Note_on_c, 0, 72, 88
4, 34439, Note_off_c, 0, 72, 0
4, 34440, Note_on_c, 0, 73, 88
4, 34469, Note_off_c, 0, 73, 0
4, 34470, Note_on_c, 0, 72, 88
4, 34499, Note_off_c, 0, 72, 0
4, 34500, Note_on_c, 0, 70, 88
4, 34529, Note_off_c, 0, 70, 0
4, 34530, Note_on_c, 0, 72, 88
4, 34559, Note_off_c, 0, 72, 0
4, 34560, Note_on_c, 0, 73, 88
4, 34794, Note_off_c, 0, 73, 0
4, 34920, Note_on_c, 0, 73, 88
4, 35036, Note_off_c, 0, 73, 0
4, 35040, Note_on_c, 0, 71, 88
4, 35098, Note_off_c, 0, 71, 0
4, 35100, Note_on_c, 0, 73, 88
4, 35158, Note_off_c, 0, 73, 0
4, 35160, Note_on_c, 0, 71, 88
4, 35218, Note_off_c, 0, 71, 0
4, 35220, Note_on_c, 0, 69, 88
4, 35278, Note_off_c, 0, 69, 0
4, 35280, Note_on_c, 0, 71, 88
4, 35338, Note_off_c, 0, 71, 0
4, 35340, Note_on_c, 0, 69, 88
4, 35398, Note_off_c, 0, 69, 0
4, 35400, Note_on_c, 0, 68, 88
4, 35458, Note_off_c, 0, 68, 0
4, 35460, Note_on_c, 0, 71, 88
4, 35518, Note_off_c, 0, 71, 0
4, 35520, Note_on_c, 0, 69, 88
4, 35578, Note_off_c, 0, 69, 0
4, 35580, Note_on_c, 0, 71, 88
4, 35638, Note_off_c, 0, 71, 0
4, 35640, Note_on_c, 0, 69, 88
4, 35698, Note_off_c, 0, 69, 0
4, 35700, Note_on_c, 0, 68, 88
4, 35758, Note_off_c, 0, 68, 0
4, 35760, Note_on_c, 0, 69, 88
4, 35818, Note_off_c, 0, 69, 0
4, 35820, Note_on_c, 0, 68, 88
4, 35878, Note_off_c, 0, 68, 0
4, 35880, Note_on_c, 0, 66, 88
4, 35938, Note_off_c, 0, 66, 0
4, 35940, Note_on_c, 0, 69, 88
4, 35998, Note_off_c, 0, 69, 0
4, 36000, Note_on_c, 0, 68, 88
4, 36116, Note_off_c, 0, 68, 0
4, 36120, Note_on_c, 0, 73, 88
4, 36236, Note_off_c, 0, 73, 0
4, 36240, Note_on_c, 0, 66, 88
4, 36356, Note_off_c, 0, 66, 0
4, 36360, Note_on_c, 0, 70, 88
4, 36476, Note_off_c, 0, 70, 0
4, 36480, Note_on_c, 0, 71, 88
4, 36596, Note_off_c, 0, 71, 0
4, 36600, Note_on_c, 0, 66, 88
4, 36716, Note_off_c, 0, 66, 0
4, 36720, Note_on_c, 0, 71, 88
4, 37190, Note_off_c, 0, 71, 0
4, 37200, Note_on_c, 0, 69, 88
4, 37674, Note_off_c, 0, 69, 0
4, 37680, Note_on_c, 0, 68, 88
4, 38150, Note_off_c, 0, 68, 0
4, 38160, Note_on_c, 0, 66, 88
4, 38394, Note_off_c, 0, 66, 0
4, 38400, Note_on_c, 0, 68, 88
4, 38516, Note_off_c, 0, 68, 0
4, 38520, Note_on_c, 0, 72, 88
4, 38636, Note_off_c, 0, 72, 0
4, 38640, Note_on_c, 0, 73, 88
4, 38756, Note_off_c, 0, 73, 0
4, 38760, Note_on_c, 0, 76, 88
4, 38876, Note_off_c, 0, 76, 0
4, 39000, Note_on_c, 0, 76, 88
4, 39116, Note_off_c, 0, 76, 0
4, 39120, Note_on_c, 0, 75, 88
4, 39236, Note_off_c, 0, 75, 0
4, 39240, Note_on_c, 0, 78, 88
4, 39476, Note_off_c, 0, 78, 0
4, 39480, Note_on_c, 0, 72, 88
4, 39596, Note_off_c, 0, 72, 0
4, 39600, Note_on_c, 0, 73, 88
4, 39953, Note_off_c, 0, 73, 0
4, 39960, Note_on_c, 0, 67, 88
4, 40076, Note_off_c, 0, 67, 0
4, 40080, Note_on_c, 0, 68, 88
4, 40436, Note_off_c, 0, 68, 0
4, 40440, Note_on_c, 0, 70, 88
4, 40556, Note_off_c, 0, 70, 0
4, 40560, Note_on_c, 0, 63, 88
4, 40676, Note_off_c, 0, 63, 0
4, 40680, Note_on_c, 0, 67, 88
4, 40796, Note_off_c, 0, 67, 0
4, 40800, Note_on_c, 0, 68, 88
4, 41034, Note_off_c, 0, 68, 0
4, 41100, Note_on_c, 0, 69, 88
4, 41158, Note_off_c, 0, 69, 0
4, 41160, Note_on_c, 0, 71, 88
4, 41218, Note_off_c, 0, 71, 0
4, 41220, Note_on_c, 0, 68, 88
4, 41278, Note_off_c, 0, 68, 0
4, 41280, Note_on_c, 0, 69, 88
4, 41338, Note_off_c, 0, 69, 0
4, 41340, Note_on_c, 0, 71, 88
4, 41398, Note_off_c, 0, 71, 0
4, 41400, Note_on_c, 0, 69, 88
4, 41458, Note_off_c, 0, 69, 0
4, 41460, Note_on_c, 0, 68, 88
4, 41518, Note_off_c, 0, 68, 0
4, 41520, Note_on_c, 0, 69, 88
4, 41578, Note_off_c, 0, 69, 0
4, 41580, Note_on_c, 0, 68, 88
4, 41638, Note_off_c, 0, 68, 0
4, 41640, Note_on_c, 0, 66, 88
4, 41698, Note_off_c, 0, 66, 0
4, 41700, Note_on_c, 0, 69, 88
4, 41758, Note_off_c, 0, 69, 0
4, 41760, Note_on_c, 0, 68, 88
4, 41818, Note_off_c, 0, 68, 0
4, 41820, Note_on_c, 0, 69, 88
4, 41878, Note_off_c, 0, 69, 0
4, 41880, Note_on_c, 0, 71, 88
4, 41938, Note_off_c, 0, 71, 0
4, 41940, Note_on_c, 0, 68, 88
4, 41998, Note_off_c, 0, 68, 0
4, 42000, Note_on_c, 0, 73, 88
4, 42342, Note_off_c, 0, 73, 0
4, 42360, Note_on_c, 0, 73, 88
4, 42476, Note_off_c, 0, 73, 0
4, 42480, Note_on_c, 0, 71, 88
4, 42762, Note_off_c, 0, 71, 0
4, 42780, Note_on_c, 0, 71, 88
4, 42838, Note_off_c, 0, 71, 0
4, 42840, Note_on_c, 0, 69, 88
4, 42898, Note_off_c, 0, 69, 0
4, 42900, Note_on_c, 0, 68, 88
4, 42958, Note_off_c, 0, 68, 0
4, 42960, Note_on_c, 0, 69, 88
4, 43018, Note_off_c, 0, 69, 0
4, 43020, Note_on_c, 0, 71, 88
4, 43078, Note_off_c, 0, 71, 0
4, 43080, Note_on_c, 0, 73, 88
4, 43138, Note_off_c, 0, 73, 0
4, 43140, Note_on_c, 0, 69, 88
4, 43198, Note_off_c, 0, 69, 0
4, 43200, Note_on_c, 0, 74, 88
4, 43258, Note_off_c, 0, 74, 0
4, 43260, Note_on_c, 0, 76, 88
4, 43318, Note_off_c, 0, 76, 0
4, 43320, Note_on_c, 0, 74, 88
4, 43378, Note_off_c, 0, 74, 0
4, 43380, Note_on_c, 0, 73, 88
4, 43438, Note_off_c, 0, 73, 0
4, 43440, Note_on_c, 0, 74, 88
4, 43498, Note_off_c, 0, 74, 0
4, 43500, Note_on_c, 0, 73, 88
4, 43558, Note_off_c, 0, 73, 0
4, 43560, Note_on_c, 0, 71, 88
4, 43618, Note_off_c, 0, 71, 0
4, 43620, Note_on_c, 0, 74, 88
4, 43678, Note_off_c, 0, 74, 0
4, 43680, Note_on_c, 0, 73, 88
4, 43738, Note_off_c, 0, 73, 0
4, 43740, Note_on_c, 0, 74, 88
4, 43798, Note_off_c, 0, 74, 0
4, 43800, Note_on_c, 0, 73, 88
4, 43858, Note_off_c, 0, 73, 0
4, 43860, Note_on_c, 0, 71, 88
4, 43918, Note_off_c, 0, 71, 0
4, 43920, Note_on_c, 0, 73, 88
4, 43978, Note_off_c, 0, 73, 0
4, 43980, Note_on_c, 0, 71, 88
4, 44038, Note_off_c, 0, 71, 0
4, 44040, Note_on_c, 0, 69, 88
4, 44098, Note_off_c, 0, 69, 0
4, 44100, Note_on_c, 0, 73, 88
4, 44158, Note_off_c, 0, 73, 0
4, 44160, Note_on_c, 0, 71, 88
4, 44691, Note_off_c, 0, 71, 0
4, 44700, Note_on_c, 0, 68, 88
4, 44758, Note_off_c, 0, 68, 0
4, 44760, Note_on_c, 0, 70, 88
4, 44818, Note_off_c, 0, 70, 0
4, 44820, Note_on_c, 0, 71, 88
4, 44878, Note_off_c, 0, 71, 0
4, 44880, Note_on_c, 0, 70, 88
4, 44938, Note_off_c, 0, 70, 0
4, 44940, Note_on_c, 0, 71, 88
4, 44998, Note_off_c, 0, 71, 0
4, 45000, Note_on_c, 0, 73, 88
4, 45058, Note_off_c, 0, 73, 0
4, 45060, Note_on_c, 0, 70, 88
4, 45118, Note_off_c, 0, 70, 0
4, 45120, Note_on_c, 0, 71, 88
4, 45178, Note_off_c, 0, 71, 0
4, 45180, Note_on_c, 0, 70, 88
4, 45238, Note_off_c, 0, 70, 0
4, 45240, Note_on_c, 0, 71, 88
4, 45298, Note_off_c, 0, 71, 0
4, 45300, Note_on_c, 0, 73, 88
4, 45358, Note_off_c, 0, 73, 0
4, 45360, Note_on_c, 0, 71, 88
4, 45418, Note_off_c, 0, 71, 0
4, 45420, Note_on_c, 0, 73, 88
4, 45478, Note_off_c, 0, 73, 0
4, 45480, Note_on_c, 0, 74, 88
4, 45538, Note_off_c, 0, 74, 0
4, 45540, Note_on_c, 0, 71, 88
4, 45598, Note_off_c, 0, 71, 0
4, 45600, Note_on_c, 0, 73, 88
4, 45658, Note_off_c, 0, 73, 0
4, 45660, Note_on_c, 0, 71, 88
4, 45718, Note_off_c, 0, 71, 0
4, 45720, Note_on_c, 0, 73, 88
4, 45778, Note_off_c, 0, 73, 0
4, 45780, Note_on_c, 0, 74, 88
4, 45838, Note_off_c, 0, 74, 0
4, 45840, Note_on_c, 0, 73, 88
4, 45898, Note_off_c, 0, 73, 0
4, 45900, Note_on_c, 0, 74, 88
4, 45958, Note_off_c, 0, 74, 0
4, 45960, Note_on_c, 0, 76, 88
4, 46018, Note_off_c, 0, 76, 0
4, 46020, Note_on_c, 0, 73, 88
4, 46078, Note_off_c, 0, 73, 0
4, 46080, Note_on_c, 0, 74, 88
4, 46138, Note_off_c, 0, 74, 0
4, 46140, Note_on_c, 0, 76, 88
4, 46198, Note_off_c, 0, 76, 0
4, 46200, Note_on_c, 0, 74, 88
4, 46258, Note_off_c, 0, 74, 0
4, 46260, Note_on_c, 0, 73, 88
4, 46318, Note_off_c, 0, 73, 0
4, 46320, Note_on_c, 0, 74, 88
4, 46378, Note_off_c, 0, 74, 0
4, 46380, Note_on_c, 0, 73, 88
4, 46438, Note_off_c, 0, 73, 0
4, 46440, Note_on_c, 0, 71, 88
4, 46498, Note_off_c, 0, 71, 0
4, 46500, Note_on_c, 0, 74, 88
4, 46558, Note_off_c, 0, 74, 0
4, 46560, Note_on_c, 0, 67, 88
4, 47082, Note_off_c, 0, 67, 0
4, 47100, Note_on_c, 0, 67, 88
4, 47158, Note_off_c, 0, 67, 0
4, 47160, Note_on_c, 0, 66, 88
4, 47218, Note_off_c, 0, 66, 0
4, 47220, Note_on_c, 0, 64, 88
4, 47278, Note_off_c, 0, 64, 0
4, 47280, Note_on_c, 0, 66, 88
4, 47338, Note_off_c, 0, 66, 0
4, 47340, Note_on_c, 0, 64, 88
4, 47398, Note_off_c, 0, 64, 0
4, 47400, Note_on_c, 0, 62, 88
4, 47458, Note_off_c, 0, 62, 0
4, 47460, Note_on_c, 0, 66, 88
4, 47518, Note_off_c, 0, 66, 0
4, 47520, Note_on_c, 0, 59, 88
4, 47754, Note_off_c, 0, 59, 0
4, 47760, Note_on_c, 0, 62, 88
4, 47782, Note_off_c, 0, 62, 0
4, 47783, Note_on_c, 0, 61, 88
4, 47808, Note_off_c, 0, 61, 0
4, 47809, Note_on_c, 0, 62, 88
4, 47834, Note_off_c, 0, 62, 0
4, 47835, Note_on_c, 0, 61, 88
4, 47860, Note_off_c, 0, 61, 0
4, 47861, Note_on_c, 0, 62, 88
4, 47887, Note_off_c, 0, 62, 0
4, 47888, Note_on_c, 0, 61, 88
4, 47909, Note_off_c, 0, 61, 0
4, 47910, Note_on_c, 0, 62, 88
4, 47932, Note_off_c, 0, 62, 0
4, 47933, Note_on_c, 0, 61, 88
4, 47954, Note_off_c, 0, 61, 0
4, 47955, Note_on_c, 0, 59, 88
4, 47977, Note_off_c, 0, 59, 0
4, 47978, Note_on_c, 0, 61, 88
4, 47999, Note_off_c, 0, 61, 0
4, 48000, Note_on_c, 0, 62, 88
4, 48116, Note_off_c, 0, 62, 0
4, 48120, Note_on_c, 0, 66, 88
4, 48236, Note_off_c, 0, 66, 0
4, 48240, Note_on_c, 0, 71, 88
4, 48593, Note_off_c, 0, 71, 0
4, 48600, Note_on_c, 0, 70, 88
4, 48658, Note_off_c, 0, 70, 0
4, 48660, Note_on_c, 0, 68, 88
4, 48718, Note_off_c, 0, 68, 0
4, 48720, Note_on_c, 0, 70, 88
4, 48954, Note_off_c, 0, 70, 0
4, 48960, Note_on_c, 0, 71, 88
4, 49194, Note_off_c, 0, 71, 0
4, 49320, Note_on_c, 0, 76, 88
4, 49436, Note_off_c, 0, 76, 0
4, 49440, Note_on_c, 0, 69, 88
4, 49793, Note_off_c, 0, 69, 0
4, 49800, Note_on_c, 0, 74, 88
4, 49916, Note_off_c, 0, 74, 0
4, 49920, Note_on_c, 0, 67, 88
4, 50273, Note_off_c, 0, 67, 0
4, 50280, Note_on_c, 0, 72, 88
4, 50396, Note_off_c, 0, 72, 0
4, 50400, Note_on_c, 0, 70, 88
4, 50516, Note_off_c, 0, 70, 0
4, 50520, Note_on_c, 0, 66, 88
4, 50695, Note_off_c, 0, 66, 0
4, 50700, Note_on_c, 0, 71, 88
4, 50758, Note_off_c, 0, 71, 0
4, 50760, Note_on_c, 0, 73, 88
4, 50818, Note_off_c, 0, 73, 0
4, 50820, Note_on_c, 0, 74, 88
4, 50878, Note_off_c, 0, 74, 0
4, 50880, Note_on_c, 0, 65, 88
4, 50996, Note_off_c, 0, 65, 0
4, 51000, Note_on_c, 0, 73, 88
4, 51116, Note_off_c, 0, 73, 0
4, 51120, Note_on_c, 0, 66, 88
4, 51473, Note_off_c, 0, 66, 0
4, 51480, Note_on_c, 0, 65, 88
4, 51538, Note_off_c, 0, 65, 0
4, 51540, Note_on_c, 0, 66, 88
4, 51598, Note_off_c, 0, 66, 0
4, 51600, Note_on_c, 0, 68, 88
4, 51658, Note_off_c, 0, 68, 0
4, 51660, Note_on_c, 0, 69, 88
4, 51718, Note_off_c, 0, 69, 0
4, 51720, Note_on_c, 0, 71, 88
4, 51778, Note_off_c, 0, 71, 0
4, 51780, Note_on_c, 0, 68, 88
4, 51838, Note_off_c, 0, 68, 0
4, 51840, Note_on_c, 0, 71, 88
4, 51898, Note_off_c, 0, 71, 0
4, 51900, Note_on_c, 0, 69, 88
4, 51958, Note_off_c, 0, 69, 0
4, 51960, Note_on_c, 0, 68, 88
4, 52018, Note_off_c, 0, 68, 0
4, 52020, Note_on_c, 0, 66, 88
4, 52078, Note_off_c, 0, 66, 0
4, 52080, Note_on_c, 0, 74, 88
4, 52433, Note_off_c, 0, 74, 0
4, 52440, Note_on_c, 0, 73, 88
4, 52498, Note_off_c, 0, 73, 0
4, 52500, Note_on_c, 0, 71, 88
4, 52558, Note_off_c, 0, 71, 0
4, 52560, Note_on_c, 0, 73, 88
4, 52916, Note_off_c, 0, 73, 0
4, 52920, Note_on_c, 0, 78, 88
4, 53036, Note_off_c, 0, 78, 0
4, 53040, Note_on_c, 0, 71, 88
4, 53393, Note_off_c, 0, 71, 0
4, 53400, Note_on_c, 0, 69, 88
4, 53458, Note_off_c, 0, 69, 0
4, 53460, Note_on_c, 0, 68, 88
4, 53518, Note_off_c, 0, 68, 0
4, 53520, Note_on_c, 0, 69, 88
4, 53636, Note_off_c, 0, 69, 0
4, 53640, Note_on_c, 0, 66, 88
4, 53756, Note_off_c, 0, 66, 0
4, 53760, Note_on_c, 0, 68, 88
4, 54230, Note_off_c, 0, 68, 0
4, 54240, Note_on_c, 0, 66, 88
4, 54356, Note_off_c, 0, 66, 0
4, 54360, Note_on_c, 0, 73, 88
4, 54476, Note_off_c, 0, 73, 0
4, 54480, Note_on_c, 0, 78, 88
4, 54596, Note_off_c, 0, 78, 0
4, 54600, Note_on_c, 0, 81, 88
4, 54716, Note_off_c, 0, 81, 0
4, 54720, Note_on_c, 0, 80, 88
4, 55310, Note_off_c, 0, 80, 0
4, 55320, Note_on_c, 0, 81, 88
4, 55436, Note_off_c, 0, 81, 0
4, 55440, Note_on_c, 0, 80, 88
4, 55556, Note_off_c, 0, 80, 0
4, 55560, Note_on_c, 0, 78, 88
4, 55676, Note_off_c, 0, 78, 0
4, 55680, Note_on_c, 0, 76, 88
4, 56262, Note_off_c, 0, 76, 0
4, 56280, Note_on_c, 0, 76, 88
4, 56396, Note_off_c, 0, 76, 0
4, 56400, Note_on_c, 0, 75, 88
4, 56516, Note_off_c, 0, 75, 0
4, 56520, Note_on_c, 0, 78, 88
4, 56636, Note_off_c, 0, 78, 0
4, 56640, Note_on_c, 0, 72, 88
4, 56993, Note_off_c, 0, 72, 0
4, 57000, Note_on_c, 0, 75, 88
4, 57116, Note_off_c, 0, 75, 0
4, 57120, Note_on_c, 0, 68, 88
4, 57354, Note_off_c, 0, 68, 0
4, 57480, Note_on_c, 0, 73, 88
4, 57596, Note_off_c, 0, 73, 0
4, 57600, Note_on_c, 0, 71, 88
4, 57658, Note_off_c, 0, 71, 0
4, 57660, Note_on_c, 0, 73, 88
4, 57718, Note_off_c, 0, 73, 0
4, 57720, Note_on_c, 0, 71, 88
4, 57778, Note_off_c, 0, 71, 0
4, 57780, Note_on_c, 0, 69, 88
4, 57838, Note_off_c, 0, 69, 0
4, 57840, Note_on_c, 0, 71, 88
4, 57898, Note_off_c, 0, 71, 0
4, 57900, Note_on_c, 0, 69, 88
4, 57958, Note_off_c, 0, 69, 0
4, 57960, Note_on_c, 0, 68, 88
4, 58018, Note_off_c, 0, 68, 0
4, 58020, Note_on_c, 0, 71, 88
4, 58078, Note_off_c, 0, 71, 0
4, 58080, Note_on_c, 0, 69, 88
4, 58138, Note_off_c, 0, 69, 0
4, 58140, Note_on_c, 0, 71, 88
4, 58198, Note_off_c, 0, 71, 0
4, 58200, Note_on_c, 0, 69, 88
4, 58258, Note_off_c, 0, 69, 0
4, 58260, Note_on_c, 0, 68, 88
4, 58318, Note_off_c, 0, 68, 0
4, 58320, Note_on_c, 0, 69, 88
4, 58378, Note_off_c, 0, 69, 0
4, 58380, Note_on_c, 0, 68, 88
4, 58438, Note_off_c, 0, 68, 0
4, 58440, Note_on_c, 0, 66, 88
4, 58498, Note_off_c, 0, 66, 0
4, 58500, Note_on_c, 0, 69, 88
4, 58558, Note_off_c, 0, 69, 0
4, 58560, Note_on_c, 0, 68, 88
4, 58618, Note_off_c, 0, 68, 0
4, 58620, Note_on_c, 0, 69, 88
4, 58678, Note_off_c, 0, 69, 0
4, 58680, Note_on_c, 0, 68, 88
4, 58738, Note_off_c, 0, 68, 0
4, 58740, Note_on_c, 0, 66, 88
4, 58798, Note_off_c, 0, 66, 0
4, 58800, Note_on_c, 0, 68, 88
4, 58858, Note_off_c, 0, 68, 0
4, 58860, Note_on_c, 0, 66, 88
4, 58918, Note_off_c, 0, 66, 0
4, 58920, Note_on_c, 0, 64, 88
4, 58978, Note_off_c, 0, 64, 0
4, 58980, Note_on_c, 0, 68, 88
4, 59038, Note_off_c, 0, 68, 0
4, 59040, Note_on_c, 0, 66, 88
4, 59098, Note_off_c, 0, 66, 0
4, 59100, Note_on_c, 0, 68, 88
4, 59158, Note_off_c, 0, 68, 0
4, 59160, Note_on_c, 0, 66, 88
4, 59218, Note_off_c, 0, 66, 0
4, 59220, Note_on_c, 0, 64, 88
4, 59278, Note_off_c, 0, 64, 0
4, 59280, Note_on_c, 0, 66, 88
4, 59338, Note_off_c, 0, 66, 0
4, 59340, Note_on_c, 0, 64, 88
4, 59398, Note_off_c, 0, 64, 0
4, 59400, Note_on_c, 0, 63, 88
4, 59458, Note_off_c, 0, 63, 0
4, 59460, Note_on_c, 0, 66, 88
4, 59518, Note_off_c, 0, 66, 0
4, 59520, Note_on_c, 0, 64, 88
4, 59754, Note_off_c, 0, 64, 0
4, 60120, Note_on_c, 0, 67, 88
4, 60236, Note_off_c, 0, 67, 0
4, 60240, Note_on_c, 0, 66, 88
4, 60356, Note_off_c, 0, 66, 0
4, 60360, Note_on_c, 0, 64, 88
4, 60476, Note_off_c, 0, 64, 0
4, 60480, Note_on_c, 0, 62, 88
4, 60714, Note_off_c, 0, 62, 0
4, 61080, Note_on_c, 0, 66, 88
4, 61196, Note_off_c, 0, 66, 0
4, 61200, Note_on_c, 0, 64, 88
4, 61316, Note_off_c, 0, 64, 0
4, 61320, Note_on_c, 0, 62, 88
4, 61436, Note_off_c, 0, 62, 0
4, 61440, Note_on_c, 0, 61, 88
4, 61782, Note_off_c, 0, 61, 0
4, 61800, Note_on_c, 0, 61, 88
4, 61916, Note_off_c, 0, 61, 0
4, 61920, Note_on_c, 0, 66, 88
4, 62273, Note_off_c, 0, 66, 0
4, 62280, Note_on_c, 0, 65, 88
4, 62338, Note_off_c, 0, 65, 0
4, 62340, Note_on_c, 0, 66, 88
4, 62398, Note_off_c, 0, 66, 0
4, 62400, Note_on_c, 0, 68, 88
4, 62516, Note_off_c, 0, 68, 0
4, 62520, Note_on_c, 0, 66, 88
4, 62578, Note_off_c, 0, 66, 0
4, 62580, Note_on_c, 0, 68, 88
4, 62638, Note_off_c, 0, 68, 0
4, 62640, Note_on_c, 0, 69, 88
4, 62756, Note_off_c, 0, 69, 0
4, 63240, Note_on_c, 0, 73, 88
4, 63356, Note_off_c, 0, 73, 0
4, 63360, Note_on_c, 0, 69, 88
4, 63476, Note_off_c, 0, 69, 0
4, 63480, Note_on_c, 0, 66, 88
4, 63596, Note_off_c, 0, 66, 0
4, 63600, Note_on_c, 0, 74, 88
4, 63953, Note_off_c, 0, 74, 0
4, 63960, Note_on_c, 0, 73, 88
4, 64018, Note_off_c, 0, 73, 0
4, 64020, Note_on_c, 0, 71, 88
4, 64078, Note_off_c, 0, 71, 0
4, 64080, Note_on_c, 0, 73, 88
4, 64436, Note_off_c, 0, 73, 0
4, 64440, Note_on_c, 0, 78, 88
4, 64556, Note_off_c, 0, 78, 0
4, 64560, Note_on_c, 0, 71, 88
4, 64913, Note_off_c, 0, 71, 0
4, 64920, Note_on_c, 0, 69, 88
4, 64978, Note_off_c, 0, 69, 0
4, 64980, Note_on_c, 0, 68, 88
4, 65038, Note_off_c, 0, 68, 0
4, 65040, Note_on_c, 0, 69, 88
4, 65156, Note_off_c, 0, 69, 0
4, 65160, Note_on_c, 0, 66, 88
4, 65276, Note_off_c, 0, 66, 0
4, 65280, Note_on_c, 0, 68, 88
4, 65811, Note_off_c, 0, 68, 0
4, 65820, Note_on_c, 0, 66, 88
4, 65936, Note_off_c, 0, 66, 0
4, 65940, Note_on_c, 0, 65, 88
4, 66056, Note_off_c, 0, 65, 0
4, 66060, Note_on_c, 0, 66, 88
4, 66176, Note_off_c, 0, 66, 0
4, 66180, Note_on_c, 0, 68, 88
4, 66238, Note_off_c, 0, 68, 0
4, 66240, Note_on_c, 0, 61, 88
4, 66356, Note_off_c, 0, 61, 0
4, 66360, Note_on_c, 0, 66, 88
4, 66582, Note_off_c, 0, 66, 0
4, 66600, Note_on_c, 0, 66, 88
4, 66611, Note_on_c, 0, 65, 88
4, 66611, Note_off_c, 0, 66, 0
4, 66624, Note_off_c, 0, 65, 0
4, 66626, Note_on_c, 0, 66, 88
4, 66637, Note_off_c, 0, 66, 0
4, 66638, Note_on_c, 0, 65, 88
4, 66648, Note_off_c, 0, 65, 0
4, 66649, Note_on_c, 0, 66, 88
4, 66660, Note_on_c, 0, 65, 88
4, 66660, Note_off_c, 0, 66, 0
4, 66718, Note_off_c, 0, 65, 0
4, 66720, Note_on_c, 0, 66, 88
4, 67190, Note_off_c, 0, 66, 0
4, 67190, End_track
5, 0, Start_track
5, 0, Title_t, "Track 2"
5, 0, Program_c, 1, 6
5, 360, Note_on_c, 1, 61, 88
5, 476, Note_off_c, 1, 61, 0
5, 480, Note_on_c, 1, 57, 88
5, 596, Note_off_c, 1, 57, 0
5, 600, Note_on_c, 1, 54, 88
5, 716, Note_off_c, 1, 54, 0
5, 720, Note_on_c, 1, 62, 88
5, 1076, Note_off_c, 1, 62, 0
5, 1080, Note_on_c, 1, 61, 88
5, 1138, Note_off_c, 1, 61, 0
5, 1140, Note_on_c, 1, 59, 88
5, 1198, Note_off_c, 1, 59, 0
5, 1200, Note_on_c, 1, 61, 88
5, 1553, Note_off_c, 1, 61, 0
5, 1560, Note_on_c, 1, 66, 88
5, 1676, Note_off_c, 1, 66, 0
5, 1680, Note_on_c, 1, 59, 88
5, 2036, Note_off_c, 1, 59, 0
5, 2040, Note_on_c, 1, 57, 88
5, 2098, Note_off_c, 1, 57, 0
5, 2100, Note_on_c, 1, 56, 88
5, 2158, Note_off_c, 1, 56, 0
5, 2160, Note_on_c, 1, 57, 88
5, 2276, Note_off_c, 1, 57, 0
5, 2280, Note_on_c, 1, 54, 88
5, 2396, Note_off_c, 1, 54, 0
5, 2400, Note_on_c, 1, 56, 88
5, 2870, Note_off_c, 1, 56, 0
5, 2880, Note_on_c, 1, 54, 88
5, 2996, Note_off_c, 1, 54, 0
5, 3000, Note_on_c, 1, 56, 88
5, 3116, Note_off_c, 1, 56, 0
5, 3120, Note_on_c, 1, 57, 88
5, 3236, Note_off_c, 1, 57, 0
5, 3240, Note_on_c, 1, 59, 88
5, 3356, Note_off_c, 1, 59, 0
5, 3360, Note_on_c, 1, 61, 88
5, 3594, Note_off_c, 1, 61, 0
5, 3720, Note_on_c, 1, 63, 88
5, 3836, Note_off_c, 1, 63, 0
5, 3840, Note_on_c, 1, 64, 88
5, 4074, Note_off_c, 1, 64, 0
5, 4200, Note_on_c, 1, 64, 88
5, 4316, Note_off_c, 1, 64, 0
5, 4320, Note_on_c, 1, 58, 88
5, 4554, Note_off_c, 1, 58, 0
5, 4680, Note_on_c, 1, 60, 88
5, 4796, Note_off_c, 1, 60, 0
5, 4800, Note_on_c, 1, 61, 88
5, 5034, Note_off_c, 1, 61, 0
5, 5160, Note_on_c, 1, 61, 88
5, 5394, Note_off_c, 1, 61, 0
5, 5400, Note_on_c, 1, 60, 88
5, 5458, Note_off_c, 1, 60, 0
5, 5460, Note_on_c, 1, 58, 88
5, 5518, Note_off_c, 1, 58, 0
5, 5520, Note_on_c, 1, 60, 88
5, 5636, Note_off_c, 1, 60, 0
5, 5640, Note_on_c, 1, 56, 88
5, 5756, Note_off_c, 1, 56, 0
5, 5760, Note_on_c, 1, 64, 88
5, 6113, Note_off_c, 1, 64, 0
5, 6120, Note_on_c, 1, 57, 88
5, 6236, Note_off_c, 1, 57, 0
5, 6240, Note_on_c, 1, 62, 88
5, 6593, Note_off_c, 1, 62, 0
5, 6600, Note_on_c, 1, 56, 88
5, 6716, Note_off_c, 1, 56, 0
5, 6720, Note_on_c, 1, 61, 88
5, 6954, Note_off_c, 1, 61, 0
5, 6960, Note_on_c, 1, 59, 88
5, 7194, Note_off_c, 1, 59, 0
5, 7200, Note_on_c, 1, 57, 88
5, 7434, Note_off_c, 1, 57, 0
5, 7440, Note_on_c, 1, 56, 88
5, 7674, Note_off_c, 1, 56, 0
5, 7680, Note_on_c, 1, 54, 88
5, 7914, Note_off_c, 1, 54, 0
5, 8400, Note_on_c, 1, 52, 88
5, 8634, Note_off_c, 1, 52, 0
5, 8640, Note_on_c, 1, 57, 88
5, 8874, Note_off_c, 1, 57, 0
5, 8880, Note_on_c, 1, 62, 88
5, 8996, Note_off_c, 1, 62, 0
5, 9000, Note_on_c, 1, 59, 88
5, 9116, Note_off_c, 1, 59, 0
5, 9120, Note_on_c, 1, 56, 88
5, 9354, Note_off_c, 1, 56, 0
5, 9480, Note_on_c, 1, 57, 88
5, 9596, Note_off_c, 1, 57, 0
5, 9600, Note_on_c, 1, 59, 88
5, 9716, Note_off_c, 1, 59, 0
5, 9720, Note_on_c, 1, 62, 88
5, 9836, Note_off_c, 1, 62, 0
5, 9960, Note_on_c, 1, 56, 88
5, 10076, Note_off_c, 1, 56, 0
5, 10080, Note_on_c, 1, 57, 88
5, 10196, Note_off_c, 1, 57, 0
5, 10200, Note_on_c, 1, 61, 88
5, 10316, Note_off_c, 1, 61, 0
5, 10440, Note_on_c, 1, 54, 88
5, 10556, Note_off_c, 1, 54, 0
5, 10560, Note_on_c, 1, 56, 88
5, 10676, Note_off_c, 1, 56, 0
5, 10680, Note_on_c, 1, 59, 88
5, 10796, Note_off_c, 1, 59, 0
5, 10920, Note_on_c, 1, 57, 88
5, 11036, Note_off_c, 1, 57, 0
5, 11040, Note_on_c, 1, 62, 88
5, 11274, Note_off_c, 1, 62, 0
5, 11280, Note_on_c, 1, 59, 88
5, 11514, Note_off_c, 1, 59, 0
5, 11520, Note_on_c, 1, 64, 88
5, 11636, Note_off_c, 1, 64, 0
5, 11640, Note_on_c, 1, 61, 88
5, 11756, Note_off_c, 1, 61, 0
5, 11760, Note_on_c, 1, 63, 88
5, 11876, Note_off_c, 1, 63, 0
5, 11880, Note_on_c, 1, 66, 88
5, 11996, Note_off_c, 1, 66, 0
5, 12120, Note_on_c, 1, 60, 88
5, 12236, Note_off_c, 1, 60, 0
5, 12240, Note_on_c, 1, 61, 88
5, 12356, Note_off_c, 1, 61, 0
5, 12360, Note_on_c, 1, 64, 88
5, 12476, Note_off_c, 1, 64, 0
5, 12600, Note_on_c, 1, 58, 88
5, 12658, Note_off_c, 1, 58, 0
5, 12660, Note_on_c, 1, 60, 88
5, 12718, Note_off_c, 1, 60, 0
5, 12720, Note_on_c, 1, 61, 88
5, 12742, Note_off_c, 1, 61, 0
5, 12743, Note_on_c, 1, 60, 88
5, 12764, Note_off_c, 1, 60, 0
5, 12765, Note_on_c, 1, 61, 88
5, 12787, Note_off_c, 1, 61, 0
5, 12788, Note_on_c, 1, 60, 88
5, 12809, Note_off_c, 1, 60, 0
5, 12810, Note_on_c, 1, 61, 88
5, 12832, Note_off_c, 1, 61, 0
5, 12833, Note_on_c, 1, 60, 88
5, 12854, Note_off_c, 1, 60, 0
5, 12855, Note_on_c, 1, 61, 88
5, 12877, Note_off_c, 1, 61, 0
5, 12878, Note_on_c, 1, 60, 88
5, 12899, Note_off_c, 1, 60, 0
5, 12900, Note_on_c, 1, 58, 88
5, 12929, Note_off_c, 1, 58, 0
5, 12930, Note_on_c, 1, 60, 88
5, 12959, Note_off_c, 1, 60, 0
5, 12960, Note_on_c, 1, 61, 88
5, 13194, Note_off_c, 1, 61, 0
5, 13320, Note_on_c, 1, 66, 88
5, 13436, Note_off_c, 1, 66, 0
5, 13440, Note_on_c, 1, 62, 88
5, 13556, Note_off_c, 1, 62, 0
5, 13560, Note_on_c, 1, 59, 88
5, 13676, Note_off_c, 1, 59, 0
5, 13800, Note_on_c, 1, 64, 88
5, 13916, Note_off_c, 1, 64, 0
5, 13920, Note_on_c, 1, 61, 88
5, 14036, Note_off_c, 1, 61, 0
5, 14040, Note_on_c, 1, 57, 88
5, 14156, Note_off_c, 1, 57, 0
5, 14280, Note_on_c, 1, 62, 88
5, 14338, Note_off_c, 1, 62, 0
5, 14340, Note_on_c, 1, 61, 88
5, 14398, Note_off_c, 1, 61, 0
5, 14400, Note_on_c, 1, 59, 88
5, 14516, Note_off_c, 1, 59, 0
5, 14520, Note_on_c, 1, 57, 88
5, 14636, Note_off_c, 1, 57, 0
5, 14640, Note_on_c, 1, 56, 88
5, 14874, Note_off_c, 1, 56, 0
5, 14880, Note_on_c, 1, 54, 88
5, 15114, Note_off_c, 1, 54, 0
5, 15240, Note_on_c, 1, 71, 88
5, 15356, Note_off_c, 1, 71, 0
5, 15360, Note_on_c, 1, 64, 88
5, 15702, Note_off_c, 1, 64, 0
5, 15720, Note_on_c, 1, 64, 88
5, 15836, Note_off_c, 1, 64, 0
5, 15840, Note_on_c, 1, 69, 88
5, 16193, Note_off_c, 1, 69, 0
5, 16200, Note_on_c, 1, 68, 88
5, 16258, Note_off_c, 1, 68, 0
5, 16260, Note_on_c, 1, 66, 88
5, 16318, Note_off_c, 1, 66, 0
5, 16320, Note_on_c, 1, 68, 88
5, 16436, Note_off_c, 1, 68, 0
5, 16440, Note_on_c, 1, 65, 88
5, 16556, Note_off_c, 1, 65, 0
5, 16560, Note_on_c, 1, 66, 88
5, 16913, Note_off_c, 1, 66, 0
5, 16920, Note_on_c, 1, 64, 88
5, 16978, Note_off_c, 1, 64, 0
5, 16980, Note_on_c, 1, 63, 88
5, 17038, Note_off_c, 1, 63, 0
5, 17040, Note_on_c, 1, 64, 88
5, 17396, Note_off_c, 1, 64, 0
5, 17400, Note_on_c, 1, 62, 88
5, 17458, Note_off_c, 1, 62, 0
5, 17460, Note_on_c, 1, 61, 88
5, 17518, Note_off_c, 1, 61, 0
5, 17520, Note_on_c, 1, 62, 88
5, 17990, Note_off_c, 1, 62, 0
5, 18000, Note_on_c, 1, 61, 88
5, 18356, Note_off_c, 1, 61, 0
5, 18360, Note_on_c, 1, 62, 88
5, 18476, Note_off_c, 1, 62, 0
5, 18480, Note_on_c, 1, 59, 88
5, 18596, Note_off_c, 1, 59, 0
5, 18600, Note_on_c, 1, 64, 88
5, 18716, Note_off_c, 1, 64, 0
5, 18720, Note_on_c, 1, 61, 88
5, 18954, Note_off_c, 1, 61, 0
5, 19320, Note_on_c, 1, 61, 88
5, 19436, Note_off_c, 1, 61, 0
5, 19440, Note_on_c, 1, 59, 88
5, 19615, Note_off_c, 1, 59, 0
5, 19620, Note_on_c, 1, 57, 88
5, 19678, Note_off_c, 1, 57, 0
5, 19680, Note_on_c, 1, 56, 88
5, 20033, Note_off_c, 1, 56, 0
5, 20040, Note_on_c, 1, 61, 88
5, 20156, Note_off_c, 1, 61, 0
5, 20160, Note_on_c, 1, 54, 88
5, 20276, Note_off_c, 1, 54, 0
5, 20280, Note_on_c, 1, 66, 88
5, 20396, Note_off_c, 1, 66, 0
5, 20400, Note_on_c, 1, 64, 88
5, 20575, Note_off_c, 1, 64, 0
5, 20580, Note_on_c, 1, 62, 88
5, 20638, Note_off_c, 1, 62, 0
5, 20640, Note_on_c, 1, 61, 88
5, 20756, Note_off_c, 1, 61, 0
5, 20760, Note_on_c, 1, 67, 88
5, 20876, Note_off_c, 1, 67, 0
5, 20880, Note_on_c, 1, 66, 88
5, 21055, Note_off_c, 1, 66, 0
5, 21060, Note_on_c, 1, 64, 88
5, 21118, Note_off_c, 1, 64, 0
5, 21120, Note_on_c, 1, 63, 88
5, 21236, Note_off_c, 1, 63, 0
5, 21240, Note_on_c, 1, 59, 88
5, 21356, Note_off_c, 1, 59, 0
5, 21360, Note_on_c, 1, 64, 88
5, 21830, Note_off_c, 1, 64, 0
5, 21840, Note_on_c, 1, 63, 88
5, 21956, Note_off_c, 1, 63, 0
5, 21960, Note_on_c, 1, 62, 88
5, 22196, Note_off_c, 1, 62, 0
5, 22200, Note_on_c, 1, 61, 88
5, 22258, Note_off_c, 1, 61, 0
5, 22260, Note_on_c, 1, 59, 88
5, 22318, Note_off_c, 1, 59, 0
5, 22320, Note_on_c, 1, 61, 88
5, 22436, Note_off_c, 1, 61, 0
5, 22440, Note_on_c, 1, 66, 88
5, 22556, Note_off_c, 1, 66, 0
5, 22560, Note_on_c, 1, 62, 88
5, 22676, Note_off_c, 1, 62, 0
5, 22680, Note_on_c, 1, 59, 88
5, 22796, Note_off_c, 1, 59, 0
5, 22800, Note_on_c, 1, 64, 88
5, 23156, Note_off_c, 1, 64, 0
5, 23160, Note_on_c, 1, 61, 88
5, 23276, Note_off_c, 1, 61, 0
5, 23280, Note_on_c, 1, 66, 88
5, 23633, Note_off_c, 1, 66, 0
5, 23640, Note_on_c, 1, 69, 88
5, 23756, Note_off_c, 1, 69, 0
5, 23760, Note_on_c, 1, 68, 88
5, 23935, Note_off_c, 1, 68, 0
5, 23940, Note_on_c, 1, 66, 88
5, 23998, Note_off_c, 1, 66, 0
5, 24000, Note_on_c, 1, 64, 88
5, 24116, Note_off_c, 1, 64, 0
5, 24120, Note_on_c, 1, 71, 88
5, 24236, Note_off_c, 1, 71, 0
5, 24240, Note_on_c, 1, 69, 88
5, 24356, Note_off_c, 1, 69, 0
5, 24360, Note_on_c, 1, 68, 88
5, 24476, Note_off_c, 1, 68, 0
5, 24480, Note_on_c, 1, 66, 88
5, 24596, Note_off_c, 1, 66, 0
5, 24600, Note_on_c, 1, 64, 88
5, 24716, Note_off_c, 1, 64, 0
5, 24720, Note_on_c, 1, 62, 88
5, 24836, Note_off_c, 1, 62, 0
5, 24840, Note_on_c, 1, 61, 88
5, 24956, Note_off_c, 1, 61, 0
5, 24960, Note_on_c, 1, 59, 88
5, 25194, Note_off_c, 1, 59, 0
5, 25200, Note_on_c, 1, 66, 88
5, 25553, Note_off_c, 1, 66, 0
5, 25560, Note_on_c, 1, 62, 88
5, 25676, Note_off_c, 1, 62, 0
5, 25680, Note_on_c, 1, 61, 88
5, 25855, Note_off_c, 1, 61, 0
5, 25860, Note_on_c, 1, 59, 88
5, 25918, Note_off_c, 1, 59, 0
5, 25920, Note_on_c, 1, 58, 88
5, 26036, Note_off_c, 1, 58, 0
5, 26040, Note_on_c, 1, 54, 88
5, 26156, Note_off_c, 1, 54, 0
5, 26160, Note_on_c, 1, 59, 88
5, 26630, Note_off_c, 1, 59, 0
5, 26640, Note_on_c, 1, 58, 88
5, 26756, Note_off_c, 1, 58, 0
5, 26760, Note_on_c, 1, 66, 88
5, 26876, Note_off_c, 1, 66, 0
5, 26880, Note_on_c, 1, 62, 88
5, 26996, Note_off_c, 1, 62, 0
5, 27000, Note_on_c, 1, 59, 88
5, 27116, Note_off_c, 1, 59, 0
5, 27120, Note_on_c, 1, 67, 88
5, 27473, Note_off_c, 1, 67, 0
5, 27480, Note_on_c, 1, 66, 88
5, 27538, Note_off_c, 1, 66, 0
5, 27540, Note_on_c, 1, 64, 88
5, 27598, Note_off_c, 1, 64, 0
5, 27600, Note_on_c, 1, 66, 88
5, 27956, Note_off_c, 1, 66, 0
5, 27960, Note_on_c, 1, 71, 88
5, 28076, Note_off_c, 1, 71, 0
5, 28080, Note_on_c, 1, 64, 88
5, 28433, Note_off_c, 1, 64, 0
5, 28440, Note_on_c, 1, 62, 88
5, 28498, Note_off_c, 1, 62, 0
5, 28500, Note_on_c, 1, 61, 88
5, 28558, Note_off_c, 1, 61, 0
5, 28560, Note_on_c, 1, 62, 88
5, 28676, Note_off_c, 1, 62, 0
5, 28680, Note_on_c, 1, 59, 88
5, 28796, Note_off_c, 1, 59, 0
5, 28800, Note_on_c, 1, 61, 88
5, 29270, Note_off_c, 1, 61, 0
5, 29280, Note_on_c, 1, 59, 88
5, 29633, Note_off_c, 1, 59, 0
5, 29640, Note_on_c, 1, 68, 88
5, 29756, Note_off_c, 1, 68, 0
5, 29760, Note_on_c, 1, 64, 88
5, 30230, Note_off_c, 1, 64, 0
5, 30240, Note_on_c, 1, 62, 88
5, 30593, Note_off_c, 1, 62, 0
5, 30600, Note_on_c, 1, 71, 88
5, 30716, Note_off_c, 1, 71, 0
5, 30720, Note_on_c, 1, 68, 88
5, 30836, Note_off_c, 1, 68, 0
5, 30840, Note_on_c, 1, 65, 88
5, 30956, Note_off_c, 1, 65, 0
5, 31080, Note_on_c, 1, 68, 88
5, 31314, Note_off_c, 1, 68, 0
5, 31320, Note_on_c, 1, 66, 88
5, 31378, Note_off_c, 1, 66, 0
5, 31380, Note_on_c, 1, 65, 88
5, 31438, Note_off_c, 1, 65, 0
5, 31440, Note_on_c, 1, 66, 88
5, 31556, Note_off_c, 1, 66, 0
5, 31560, Note_on_c, 1, 63, 88
5, 31676, Note_off_c, 1, 63, 0
5, 31680, Note_on_c, 1, 60, 88
5, 32150, Note_off_c, 1, 60, 0
5, 32160, Note_on_c, 1, 61, 88
5, 32276, Note_off_c, 1, 61, 0
5, 32760, Note_on_c, 1, 75, 88
5, 32876, Note_off_c, 1, 75, 0
5, 32880, Note_on_c, 1, 73, 88
5, 33055, Note_off_c, 1, 73, 0
5, 33060, Note_on_c, 1, 72, 88
5, 33118, Note_off_c, 1, 72, 0
5, 33120, Note_on_c, 1, 73, 88
5, 33236, Note_off_c, 1, 73, 0
5, 33240, Note_on_c, 1, 71, 88
5, 33356, Note_off_c, 1, 71, 0
5, 33360, Note_on_c, 1, 69, 88
5, 33476, Note_off_c, 1, 69, 0
5, 33480, Note_on_c, 1, 66, 88
5, 33596, Note_off_c, 1, 66, 0
5, 33600, Note_on_c, 1, 60, 88
5, 33716, Note_off_c, 1, 60, 0
5, 33720, Note_on_c, 1, 63, 88
5, 33836, Note_off_c, 1, 63, 0
5, 33840, Note_on_c, 1, 56, 88
5, 33956, Note_off_c, 1, 56, 0
5, 33960, Note_on_c, 1, 68, 88
5, 34076, Note_off_c, 1, 68, 0
5, 34080, Note_on_c, 1, 66, 88
5, 34138, Note_off_c, 1, 66, 0
5, 34140, Note_on_c, 1, 68, 88
5, 34198, Note_off_c, 1, 68, 0
5, 34200, Note_on_c, 1, 66, 88
5, 34258, Note_off_c, 1, 66, 0
5, 34260, Note_on_c, 1, 64, 88
5, 34318, Note_off_c, 1, 64, 0
5, 34320, Note_on_c, 1, 66, 88
5, 34378, Note_off_c, 1, 66, 0
5, 34380, Note_on_c, 1, 64, 88
5, 34438, Note_off_c, 1, 64, 0
5, 34440, Note_on_c, 1, 63, 88
5, 34498, Note_off_c, 1, 63, 0
5, 34500, Note_on_c, 1, 66, 88
5, 34558, Note_off_c, 1, 66, 0
5, 34560, Note_on_c, 1, 64, 88
5, 34618, Note_off_c, 1, 64, 0
5, 34620, Note_on_c, 1, 66, 88
5, 34678, Note_off_c, 1, 66, 0
5, 34680, Note_on_c, 1, 64, 88
5, 34738, Note_off_c, 1, 64, 0
5, 34740, Note_on_c, 1, 63, 88
5, 34798, Note_off_c, 1, 63, 0
5, 34800, Note_on_c, 1, 64, 88
5, 34858, Note_off_c, 1, 64, 0
5, 34860, Note_on_c, 1, 63, 88
5, 34918, Note_off_c, 1, 63, 0
5, 34920, Note_on_c, 1, 61, 88
5, 34978, Note_off_c, 1, 61, 0
5, 34980, Note_on_c, 1, 64, 88
5, 35038, Note_off_c, 1, 64, 0
5, 35040, Note_on_c, 1, 63, 88
5, 35156, Note_off_c, 1, 63, 0
5, 35160, Note_on_c, 1, 68, 88
5, 35276, Note_off_c, 1, 68, 0
5, 35280, Note_on_c, 1, 61, 88
5, 35396, Note_off_c, 1, 61, 0
5, 35400, Note_on_c, 1, 65, 88
5, 35516, Note_off_c, 1, 65, 0
5, 35520, Note_on_c, 1, 66, 88
5, 35578, Note_off_c, 1, 66, 0
5, 35580, Note_on_c, 1, 62, 88
5, 35638, Note_off_c, 1, 62, 0
5, 35640, Note_on_c, 1, 61, 88
5, 35698, Note_off_c, 1, 61, 0
5, 35700, Note_on_c, 1, 59, 88
5, 35758, Note_off_c, 1, 59, 0
5, 35760, Note_on_c, 1, 61, 88
5, 35818, Note_off_c, 1, 61, 0
5, 35820, Note_on_c, 1, 57, 88
5, 35878, Note_off_c, 1, 57, 0
5, 35880, Note_on_c, 1, 62, 88
5, 36114, Note_off_c, 1, 62, 0
5, 36120, Note_on_c, 1, 56, 88
5, 36236, Note_off_c, 1, 56, 0
5, 36240, Note_on_c, 1, 58, 88
5, 36356, Note_off_c, 1, 58, 0
5, 36360, Note_on_c, 1, 61, 88
5, 36476, Note_off_c, 1, 61, 0
5, 36480, Note_on_c, 1, 54, 88
5, 36596, Note_off_c, 1, 54, 0
5, 36840, Note_on_c, 1, 66, 88
5, 36956, Note_off_c, 1, 66, 0
5, 36960, Note_on_c, 1, 64, 88
5, 37018, Note_off_c, 1, 64, 0
5, 37020, Note_on_c, 1, 66, 88
5, 37078, Note_off_c, 1, 66, 0
5, 37080, Note_on_c, 1, 64, 88
5, 37138, Note_off_c, 1, 64, 0
5, 37140, Note_on_c, 1, 63, 88
5, 37198, Note_off_c, 1, 63, 0
5, 37200, Note_on_c, 1, 64, 88
5, 37258, Note_off_c, 1, 64, 0
5, 37260, Note_on_c, 1, 63, 88
5, 37318, Note_off_c, 1, 63, 0
5, 37320, Note_on_c, 1, 61, 88
5, 37378, Note_off_c, 1, 61, 0
5, 37380, Note_on_c, 1, 64, 88
5, 37438, Note_off_c, 1, 64, 0
5, 37440, Note_on_c, 1, 63, 88
5, 37498, Note_off_c, 1, 63, 0
5, 37500, Note_on_c, 1, 64, 88
5, 37558, Note_off_c, 1, 64, 0
5, 37560, Note_on_c, 1, 63, 88
5, 37618, Note_off_c, 1, 63, 0
5, 37620, Note_on_c, 1, 61, 88
5, 37678, Note_off_c, 1, 61, 0
5, 37680, Note_on_c, 1, 63, 88
5, 37738, Note_off_c, 1, 63, 0
5, 37740, Note_on_c, 1, 61, 88
5, 37798, Note_off_c, 1, 61, 0
5, 37800, Note_on_c, 1, 60, 88
5, 37858, Note_off_c, 1, 60, 0
5, 37860, Note_on_c, 1, 63, 88
5, 37918, Note_off_c, 1, 63, 0
5, 37920, Note_on_c, 1, 61, 88
5, 37978, Note_off_c, 1, 61, 0
5, 37980, Note_on_c, 1, 63, 88
5, 38038, Note_off_c, 1, 63, 0
5, 38040, Note_on_c, 1, 61, 88
5, 38098, Note_off_c, 1, 61, 0
5, 38100, Note_on_c, 1, 60, 88
5, 38158, Note_off_c, 1, 60, 0
5, 38160, Note_on_c, 1, 61, 88
5, 38218, Note_off_c, 1, 61, 0
5, 38220, Note_on_c, 1, 64, 88
5, 38278, Note_off_c, 1, 64, 0
5, 38280, Note_on_c, 1, 63, 88
5, 38338, Note_off_c, 1, 63, 0
5, 38340, Note_on_c, 1, 61, 88
5, 38398, Note_off_c, 1, 61, 0
5, 38400, Note_on_c, 1, 60, 88
5, 38516, Note_off_c, 1, 60, 0
5, 38520, Note_on_c, 1, 63, 88
5, 38636, Note_off_c, 1, 63, 0
5, 38640, Note_on_c, 1, 64, 88
5, 38756, Note_off_c, 1, 64, 0
5, 38760, Note_on_c, 1, 68, 88
5, 38876, Note_off_c, 1, 68, 0
5, 39000, Note_on_c, 1, 68, 88
5, 39116, Note_off_c, 1, 68, 0
5, 39120, Note_on_c, 1, 66, 88
5, 39236, Note_off_c, 1, 66, 0
5, 39240, Note_on_c, 1, 69, 88
5, 39476, Note_off_c, 1, 69, 0
5, 39480, Note_on_c, 1, 68, 88
5, 39538, Note_off_c, 1, 68, 0
5, 39540, Note_on_c, 1, 66, 88
5, 39598, Note_off_c, 1, 66, 0
5, 39600, Note_on_c, 1, 68, 88
5, 39716, Note_off_c, 1, 68, 0
5, 39720, Note_on_c, 1, 70, 88
5, 39836, Note_off_c, 1, 70, 0
5, 39840, Note_on_c, 1, 63, 88
5, 39898, Note_off_c, 1, 63, 0
5, 39900, Note_on_c, 1, 64, 88
5, 39958, Note_off_c, 1, 64, 0
5, 39960, Note_on_c, 1, 63, 88
5, 40018, Note_off_c, 1, 63, 0
5, 40020, Note_on_c, 1, 61, 88
5, 40078, Note_off_c, 1, 61, 0
5, 40080, Note_on_c, 1, 63, 88
5, 40138, Note_off_c, 1, 63, 0
5, 40140, Note_on_c, 1, 61, 88
5, 40198, Note_off_c, 1, 61, 0
5, 40200, Note_on_c, 1, 59, 88
5, 40258, Note_off_c, 1, 59, 0
5, 40260, Note_on_c, 1, 63, 88
5, 40318, Note_off_c, 1, 63, 0
5, 40320, Note_on_c, 1, 61, 88
5, 40378, Note_off_c, 1, 61, 0
5, 40380, Note_on_c, 1, 63, 88
5, 40438, Note_off_c, 1, 63, 0
5, 40440, Note_on_c, 1, 61, 88
5, 40498, Note_off_c, 1, 61, 0
5, 40500, Note_on_c, 1, 59, 88
5, 40558, Note_off_c, 1, 59, 0
5, 40560, Note_on_c, 1, 61, 88
5, 40618, Note_off_c, 1, 61, 0
5, 40620, Note_on_c, 1, 59, 88
5, 40678, Note_off_c, 1, 59, 0
5, 40680, Note_on_c, 1, 58, 88
5, 40738, Note_off_c, 1, 58, 0
5, 40740, Note_on_c, 1, 61, 88
5, 40798, Note_off_c, 1, 61, 0
5, 40800, Note_on_c, 1, 59, 88
5, 40858, Note_off_c, 1, 59, 0
5, 40860, Note_on_c, 1, 61, 88
5, 40918, Note_off_c, 1, 61, 0
5, 40920, Note_on_c, 1, 63, 88
5, 40978, Note_off_c, 1, 63, 0
5, 40980, Note_on_c, 1, 59, 88
5, 41038, Note_off_c, 1, 59, 0
5, 41040, Note_on_c, 1, 64, 88
5, 41514, Note_off_c, 1, 64, 0
5, 41520, Note_on_c, 1, 63, 88
5, 41754, Note_off_c, 1, 63, 0
5, 41760, Note_on_c, 1, 64, 88
5, 41994, Note_off_c, 1, 64, 0
5, 42060, Note_on_c, 1, 71, 88
5, 42118, Note_off_c, 1, 71, 0
5, 42120, Note_on_c, 1, 69, 88
5, 42178, Note_off_c, 1, 69, 0
5, 42180, Note_on_c, 1, 68, 88
5, 42238, Note_off_c, 1, 68, 0
5, 42240, Note_on_c, 1, 66, 88
5, 42582, Note_off_c, 1, 66, 0
5, 42600, Note_on_c, 1, 66, 88
5, 42716, Note_off_c, 1, 66, 0
5, 42720, Note_on_c, 1, 64, 88
5, 42954, Note_off_c, 1, 64, 0
5, 43320, Note_on_c, 1, 69, 88
5, 43436, Note_off_c, 1, 69, 0
5, 43440, Note_on_c, 1, 68, 88
5, 43793, Note_off_c, 1, 68, 0
5, 43800, Note_on_c, 1, 61, 88
5, 43916, Note_off_c, 1, 61, 0
5, 43920, Note_on_c, 1, 66, 88
5, 44218, Note_off_c, 1, 66, 0
5, 44220, Note_on_c, 1, 69, 88
5, 44278, Note_off_c, 1, 69, 0
5, 44280, Note_on_c, 1, 68, 88
5, 44338, Note_off_c, 1, 68, 0
5, 44340, Note_on_c, 1, 66, 88
5, 44398, Note_off_c, 1, 66, 0
5, 44400, Note_on_c, 1, 68, 88
5, 44458, Note_off_c, 1, 68, 0
5, 44460, Note_on_c, 1, 66, 88
5, 44518, Note_off_c, 1, 66, 0
5, 44520, Note_on_c, 1, 65, 88
5, 44578, Note_off_c, 1, 65, 0
5, 44580, Note_on_c, 1, 68, 88
5, 44638, Note_off_c, 1, 68, 0
5, 44640, Note_on_c, 1, 66, 88
5, 44756, Note_off_c, 1, 66, 0
5, 44760, Note_on_c, 1, 61, 88
5, 44876, Note_off_c, 1, 61, 0
5, 44880, Note_on_c, 1, 62, 88
5, 45236, Note_off_c, 1, 62, 0
5, 45240, Note_on_c, 1, 63, 88
5, 45356, Note_off_c, 1, 63, 0
5, 45360, Note_on_c, 1, 64, 88
5, 45713, Note_off_c, 1, 64, 0
5, 45720, Note_on_c, 1, 65, 88
5, 45836, Note_off_c, 1, 65, 0
5, 45840, Note_on_c, 1, 66, 88
5, 46602, Note_off_c, 1, 66, 0
5, 46620, Note_on_c, 1, 66, 88
5, 46678, Note_off_c, 1, 66, 0
5, 46680, Note_on_c, 1, 64, 88
5, 46738, Note_off_c, 1, 64, 0
5, 46740, Note_on_c, 1, 62, 88
5, 46798, Note_off_c, 1, 62, 0
5, 46800, Note_on_c, 1, 64, 88
5, 46858, Note_off_c, 1, 64, 0
5, 46860, Note_on_c, 1, 62, 88
5, 46918, Note_off_c, 1, 62, 0
5, 46920, Note_on_c, 1, 61, 88
5, 46978, Note_off_c, 1, 61, 0
5, 46980, Note_on_c, 1, 64, 88
5, 47038, Note_off_c, 1, 64, 0
5, 47040, Note_on_c, 1, 57, 88
5, 47562, Note_off_c, 1, 57, 0
5, 47580, Note_on_c, 1, 57, 88
5, 47638, Note_off_c, 1, 57, 0
5, 47640, Note_on_c, 1, 55, 88
5, 47698, Note_off_c, 1, 55, 0
5, 47700, Note_on_c, 1, 54, 88
5, 47758, Note_off_c, 1, 54, 0
5, 47760, Note_on_c, 1, 55, 88
5, 47818, Note_off_c, 1, 55, 0
5, 47820, Note_on_c, 1, 54, 88
5, 47878, Note_off_c, 1, 54, 0
5, 47880, Note_on_c, 1, 52, 88
5, 47938, Note_off_c, 1, 52, 0
5, 47940, Note_on_c, 1, 55, 88
5, 47998, Note_off_c, 1, 55, 0
5, 48000, Note_on_c, 1, 54, 88
5, 48116, Note_off_c, 1, 54, 0
5, 48360, Note_on_c, 1, 59, 88
5, 48476, Note_off_c, 1, 59, 0
5, 48480, Note_on_c, 1, 64, 88
5, 48714, Note_off_c, 1, 64, 0
5, 48840, Note_on_c, 1, 66, 88
5, 48956, Note_off_c, 1, 66, 0
5, 48960, Note_on_c, 1, 62, 88
5, 49076, Note_off_c, 1, 62, 0
5, 49080, Note_on_c, 1, 59, 88
5, 49196, Note_off_c, 1, 59, 0
5, 49200, Note_on_c, 1, 67, 88
5, 49553, Note_off_c, 1, 67, 0
5, 49560, Note_on_c, 1, 66, 88
5, 49618, Note_off_c, 1, 66, 0
5, 49620, Note_on_c, 1, 64, 88
5, 49678, Note_off_c, 1, 64, 0
5, 49680, Note_on_c, 1, 66, 88
5, 50036, Note_off_c, 1, 66, 0
5, 50040, Note_on_c, 1, 71, 88
5, 50156, Note_off_c, 1, 71, 0
5, 50160, Note_on_c, 1, 64, 88
5, 50513, Note_off_c, 1, 64, 0
5, 50520, Note_on_c, 1, 62, 88
5, 50578, Note_off_c, 1, 62, 0
5, 50580, Note_on_c, 1, 61, 88
5, 50638, Note_off_c, 1, 61, 0
5, 50640, Note_on_c, 1, 62, 88
5, 50756, Note_off_c, 1, 62, 0
5, 50760, Note_on_c, 1, 59, 88
5, 50876, Note_off_c, 1, 59, 0
5, 50880, Note_on_c, 1, 61, 88
5, 51350, Note_off_c, 1, 61, 0
5, 51360, Note_on_c, 1, 59, 88
5, 51594, Note_off_c, 1, 59, 0
5, 52140, Note_on_c, 1, 73, 88
5, 52198, Note_off_c, 1, 73, 0
5, 52200, Note_on_c, 1, 71, 88
5, 52258, Note_off_c, 1, 71, 0
5, 52260, Note_on_c, 1, 69, 88
5, 52318, Note_off_c, 1, 69, 0
5, 52320, Note_on_c, 1, 68, 88
5, 52614, Note_off_c, 1, 68, 0
5, 52620, Note_on_c, 1, 71, 88
5, 52678, Note_off_c, 1, 71, 0
5, 52680, Note_on_c, 1, 69, 88
5, 52738, Note_off_c, 1, 69, 0
5, 52740, Note_on_c, 1, 68, 88
5, 52798, Note_off_c, 1, 68, 0
5, 52800, Note_on_c, 1, 66, 88
5, 52916, Note_off_c, 1, 66, 0
5, 52920, Note_on_c, 1, 69, 88
5, 53036, Note_off_c, 1, 69, 0
5, 53040, Note_on_c, 1, 68, 88
5, 53215, Note_off_c, 1, 68, 0
5, 53220, Note_on_c, 1, 66, 88
5, 53278, Note_off_c, 1, 66, 0
5, 53280, Note_on_c, 1, 65, 88
5, 53396, Note_off_c, 1, 65, 0
5, 53400, Note_on_c, 1, 61, 88
5, 53516, Note_off_c, 1, 61, 0
5, 53520, Note_on_c, 1, 66, 88
5, 53982, Note_off_c, 1, 66, 0
5, 54000, Note_on_c, 1, 66, 88
5, 54022, Note_off_c, 1, 66, 0
5, 54023, Note_on_c, 1, 65, 88
5, 54048, Note_off_c, 1, 65, 0
5, 54049, Note_on_c, 1, 66, 88
5, 54074, Note_off_c, 1, 66, 0
5, 54075, Note_on_c, 1, 65, 88
5, 54100, Note_off_c, 1, 65, 0
5, 54101, Note_on_c, 1, 66, 88
5, 54127, Note_off_c, 1, 66, 0
5, 54128, Note_on_c, 1, 65, 88
5, 54149, Note_off_c, 1, 65, 0
5, 54150, Note_on_c, 1, 66, 88
5, 54172, Note_off_c, 1, 66, 0
5, 54173, Note_on_c, 1, 65, 88
5, 54194, Note_off_c, 1, 65, 0
5, 54195, Note_on_c, 1, 63, 88
5, 54217, Note_off_c, 1, 63, 0
5, 54218, Note_on_c, 1, 65, 88
5, 54239, Note_off_c, 1, 65, 0
5, 54240, Note_on_c, 1, 66, 88
5, 54474, Note_off_c, 1, 66, 0
5, 54840, Note_on_c, 1, 68, 88
5, 54956, Note_off_c, 1, 68, 0
5, 54960, Note_on_c, 1, 73, 88
5, 55076, Note_off_c, 1, 73, 0
5, 55080, Note_on_c, 1, 76, 88
5, 55196, Note_off_c, 1, 76, 0
5, 55200, Note_on_c, 1, 75, 88
5, 55796, Note_off_c, 1, 75, 0
5, 55800, Note_on_c, 1, 68, 88
5, 55916, Note_off_c, 1, 68, 0
5, 55920, Note_on_c, 1, 73, 88
5, 56036, Note_off_c, 1, 73, 0
5, 56040, Note_on_c, 1, 71, 88
5, 56156, Note_off_c, 1, 71, 0
5, 56160, Note_on_c, 1, 69, 88
5, 56756, Note_off_c, 1, 69, 0
5, 56760, Note_on_c, 1, 63, 88
5, 56876, Note_off_c, 1, 63, 0
5, 56880, Note_on_c, 1, 68, 88
5, 56996, Note_off_c, 1, 68, 0
5, 57000, Note_on_c, 1, 66, 88
5, 57162, Note_off_c, 1, 66, 0
5, 57180, Note_on_c, 1, 66, 88
5, 57238, Note_off_c, 1, 66, 0
5, 57240, Note_on_c, 1, 64, 88
5, 57298, Note_off_c, 1, 64, 0
5, 57300, Note_on_c, 1, 63, 88
5, 57358, Note_off_c, 1, 63, 0
5, 57360, Note_on_c, 1, 61, 88
5, 57418, Note_off_c, 1, 61, 0
5, 57420, Note_on_c, 1, 63, 88
5, 57478, Note_off_c, 1, 63, 0
5, 57480, Note_on_c, 1, 64, 88
5, 57538, Note_off_c, 1, 64, 0
5, 57540, Note_on_c, 1, 61, 88
5, 57598, Note_off_c, 1, 61, 0
5, 57600, Note_on_c, 1, 63, 88
5, 57834, Note_off_c, 1, 63, 0
5, 57960, Note_on_c, 1, 64, 88
5, 58076, Note_off_c, 1, 64, 0
5, 58080, Note_on_c, 1, 61, 88
5, 58196, Note_off_c, 1, 61, 0
5, 58200, Note_on_c, 1, 64, 88
5, 58316, Note_off_c, 1, 64, 0
5, 58320, Note_on_c, 1, 63, 88
5, 58495, Note_off_c, 1, 63, 0
5, 58500, Note_on_c, 1, 61, 88
5, 58558, Note_off_c, 1, 61, 0
5, 58560, Note_on_c, 1, 60, 88
5, 58676, Note_off_c, 1, 60, 0
5, 58680, Note_on_c, 1, 56, 88
5, 58796, Note_off_c, 1, 56, 0
5, 58800, Note_on_c, 1, 61, 88
5, 59262, Note_off_c, 1, 61, 0
5, 59280, Note_on_c, 1, 61, 88
5, 59309, Note_off_c, 1, 61, 0
5, 59310, Note_on_c, 1, 60, 88
5, 59339, Note_off_c, 1, 60, 0
5, 59340, Note_on_c, 1, 61, 88
5, 59369, Note_off_c, 1, 61, 0
5, 59370, Note_on_c, 1, 60, 88
5, 59399, Note_off_c, 1, 60, 0
5, 59400, Note_on_c, 1, 61, 88
5, 59429, Note_off_c, 1, 61, 0
5, 59430, Note_on_c, 1, 60, 88
5, 59459, Note_off_c, 1, 60, 0
5, 59460, Note_on_c, 1, 58, 88
5, 59489, Note_off_c, 1, 58, 0
5, 59490, Note_on_c, 1, 60, 88
5, 59519, Note_off_c, 1, 60, 0
5, 59520, Note_on_c, 1, 61, 88
5, 59636, Note_off_c, 1, 61, 0
5, 59640, Note_on_c, 1, 56, 88
5, 59756, Note_off_c, 1, 56, 0
5, 59760, Note_on_c, 1, 61, 88
5, 59876, Note_off_c, 1, 61, 0
5, 59880, Note_on_c, 1, 64, 88
5, 59996, Note_off_c, 1, 64, 0
5, 60000, Note_on_c, 1, 58, 88
5, 60234, Note_off_c, 1, 58, 0
5, 60240, Note_on_c, 1, 59, 88
5, 60356, Note_off_c, 1, 59, 0
5, 60360, Note_on_c, 1, 61, 88
5, 60596, Note_off_c, 1, 61, 0
5, 60600, Note_on_c, 1, 54, 88
5, 60716, Note_off_c, 1, 54, 0
5, 60720, Note_on_c, 1, 59, 88
5, 60836, Note_off_c, 1, 59, 0
5, 60840, Note_on_c, 1, 62, 88
5, 60956, Note_off_c, 1, 62, 0
5, 60960, Note_on_c, 1, 56, 88
5, 61194, Note_off_c, 1, 56, 0
5, 61200, Note_on_c, 1, 57, 88
5, 61316, Note_off_c, 1, 57, 0
5, 61320, Note_on_c, 1, 59, 88
5, 61556, Note_off_c, 1, 59, 0
5, 61560, Note_on_c, 1, 57, 88
5, 61618, Note_off_c, 1, 57, 0
5, 61620, Note_on_c, 1, 56, 88
5, 61678, Note_off_c, 1, 56, 0
5, 61680, Note_on_c, 1, 57, 88
5, 62033, Note_off_c, 1, 57, 0
5, 62040, Note_on_c, 1, 59, 88
5, 62098, Note_off_c, 1, 59, 0
5, 62100, Note_on_c, 1, 61, 88
5, 62158, Note_off_c, 1, 61, 0
5, 62160, Note_on_c, 1, 62, 88
5, 62458, Note_off_c, 1, 62, 0
5, 62460, Note_on_c, 1, 61, 88
5, 62518, Note_off_c, 1, 61, 0
5, 62520, Note_on_c, 1, 63, 88
5, 62578, Note_off_c, 1, 63, 0
5, 62580, Note_on_c, 1, 65, 88
5, 62638, Note_off_c, 1, 65, 0
5, 62640, Note_on_c, 1, 66, 88
5, 62698, Note_off_c, 1, 66, 0
5, 62700, Note_on_c, 1, 68, 88
5, 62758, Note_off_c, 1, 68, 0
5, 62760, Note_on_c, 1, 69, 88
5, 62818, Note_off_c, 1, 69, 0
5, 62820, Note_on_c, 1, 66, 88
5, 62878, Note_off_c, 1, 66, 0
5, 62880, Note_on_c, 1, 71, 88
5, 62938, Note_off_c, 1, 71, 0
5, 62940, Note_on_c, 1, 73, 88
5, 62998, Note_off_c, 1, 73, 0
5, 63000, Note_on_c, 1, 71, 88
5, 63058, Note_off_c, 1, 71, 0
5, 63060, Note_on_c, 1, 69, 88
5, 63118, Note_off_c, 1, 69, 0
5, 63120, Note_on_c, 1, 71, 88
5, 63178, Note_off_c, 1, 71, 0
5, 63180, Note_on_c, 1, 69, 88
5, 63238, Note_off_c, 1, 69, 0
5, 63240, Note_on_c, 1, 68, 88
5, 63298, Note_off_c, 1, 68, 0
5, 63300, Note_on_c, 1, 69, 88
5, 63358, Note_off_c, 1, 69, 0
5, 63360, Note_on_c, 1, 66, 88
5, 63476, Note_off_c, 1, 66, 0
5, 63720, Note_on_c, 1, 66, 88
5, 63836, Note_off_c, 1, 66, 0
5, 63840, Note_on_c, 1, 64, 88
5, 63898, Note_off_c, 1, 64, 0
5, 63900, Note_on_c, 1, 66, 88
5, 63958, Note_off_c, 1, 66, 0
5, 63960, Note_on_c, 1, 64, 88
5, 64018, Note_off_c, 1, 64, 0
5, 64020, Note_on_c, 1, 62, 88
5, 64078, Note_off_c, 1, 62, 0
5, 64080, Note_on_c, 1, 64, 88
5, 64138, Note_off_c, 1, 64, 0
5, 64140, Note_on_c, 1, 62, 88
5, 64198, Note_off_c, 1, 62, 0
5, 64200, Note_on_c, 1, 61, 88
5, 64258, Note_off_c, 1, 61, 0
5, 64260, Note_on_c, 1, 64, 88
5, 64318, Note_off_c, 1, 64, 0
5, 64320, Note_on_c, 1, 62, 88
5, 64378, Note_off_c, 1, 62, 0
5, 64380, Note_on_c, 1, 64, 88
5, 64438, Note_off_c, 1, 64, 0
5, 64440, Note_on_c, 1, 62, 88
5, 64498, Note_off_c, 1, 62, 0
5, 64500, Note_on_c, 1, 61, 88
5, 64558, Note_off_c, 1, 61, 0
5, 64560, Note_on_c, 1, 62, 88
5, 64618, Note_off_c, 1, 62, 0
5, 64620, Note_on_c, 1, 61, 88
5, 64678, Note_off_c, 1, 61, 0
5, 64680, Note_on_c, 1, 59, 88
5, 64738, Note_off_c, 1, 59, 0
5, 64740, Note_on_c, 1, 62, 88
5, 64798, Note_off_c, 1, 62, 0
5, 64800, Note_on_c, 1, 61, 88
5, 64858, Note_off_c, 1, 61, 0
5, 64860, Note_on_c, 1, 62, 88
5, 64918, Note_off_c, 1, 62, 0
5, 64920, Note_on_c, 1, 61, 88
5, 64978, Note_off_c, 1, 61, 0
5, 64980, Note_on_c, 1, 59, 88
5, 65038, Note_off_c, 1, 59, 0
5, 65040, Note_on_c, 1, 61, 88
5, 65098, Note_off_c, 1, 61, 0
5, 65100, Note_on_c, 1, 59, 88
5, 65158, Note_off_c, 1, 59, 0
5, 65160, Note_on_c, 1, 57, 88
5, 65218, Note_off_c, 1, 57, 0
5, 65220, Note_on_c, 1, 61, 88
5, 65278, Note_off_c, 1, 61, 0
5, 65280, Note_on_c, 1, 59, 88
5, 65338, Note_off_c, 1, 59, 0
5, 65340, Note_on_c, 1, 61, 88
5, 65398, Note_off_c, 1, 61, 0
5, 65400, Note_on_c, 1, 59, 88
5, 65458, Note_off_c, 1, 59, 0
5, 65460, Note_on_c, 1, 57, 88
5, 65518, Note_off_c, 1, 57, 0
5, 65520, Note_on_c, 1, 59, 88
5, 65578, Note_off_c, 1, 59, 0
5, 65580, Note_on_c, 1, 57, 88
5, 65638, Note_off_c, 1, 57, 0
5, 65640, Note_on_c, 1, 56, 88
5, 65698, Note_off_c, 1, 56, 0
5, 65700, Note_on_c, 1, 59, 88
5, 65758, Note_off_c, 1, 59, 0
5, 65760, Note_on_c, 1, 57, 88
5, 65876, Note_off_c, 1, 57, 0
5, 65880, Note_on_c, 1, 59, 88
5, 65996, Note_off_c, 1, 59, 0
5, 66000, Note_on_c, 1, 61, 88
5, 66116, Note_off_c, 1, 61, 0
5, 66120, Note_on_c, 1, 62, 88
5, 66236, Note_off_c, 1, 62, 0
5, 66240, Note_on_c, 1, 57, 88
5, 66474, Note_off_c, 1, 57, 0
5, 66480, Note_on_c, 1, 56, 88
5, 66714, Note_off_c, 1, 56, 0
5, 66720, Note_on_c, 1, 54, 88
5, 67190, Note_off_c, 1, 54, 0
5, 67190, End_track
6, 0, Start_track
6, 0, Title_t, "Track 3"
6, 0, Program_c, 2, 6
6, 7560, Note_on_c, 2, 49, 88
6, 7676, Note_off_c, 2, 49, 0
6, 7680, Note_on_c, 2, 45, 88
6, 7796, Note_off_c, 2, 45, 0
6, 7800, Note_on_c, 2, 42, 88
6, 7916, Note_off_c, 2, 42, 0
6, 7920, Note_on_c, 2, 50, 88
6, 8273, Note_off_c, 2, 50, 0
6, 8280, Note_on_c, 2, 49, 88
6, 8338, Note_off_c, 2, 49, 0
6, 8340, Note_on_c, 2, 47, 88
6, 8398, Note_off_c, 2, 47, 0
6, 8400, Note_on_c, 2, 49, 88
6, 8756, Note_off_c, 2, 49, 0
6, 8760, Note_on_c, 2, 54, 88
6, 8876, Note_off_c, 2, 54, 0
6, 8880, Note_on_c, 2, 47, 88
6, 9233, Note_off_c, 2, 47, 0
6, 9240, Note_on_c, 2, 45, 88
6, 9298, Note_off_c, 2, 45, 0
6, 9300, Note_on_c, 2, 44, 88
6, 9358, Note_off_c, 2, 44, 0
6, 9360, Note_on_c, 2, 45, 88
6, 9476, Note_off_c, 2, 45, 0
6, 9480, Note_on_c, 2, 42, 88
6, 9596, Note_off_c, 2, 42, 0
6, 9600, Note_on_c, 2, 44, 88
6, 10070, Note_off_c, 2, 44, 0
6, 10080, Note_on_c, 2, 42, 88
6, 10314, Note_off_c, 2, 42, 0
6, 10320, Note_on_c, 2, 50, 88
6, 10794, Note_off_c, 2, 50, 0
6, 10800, Note_on_c, 2, 49, 88
6, 11034, Note_off_c, 2, 49, 0
6, 11040, Note_on_c, 2, 47, 88
6, 11274, Note_off_c, 2, 47, 0
6, 11400, Note_on_c, 2, 52, 88
6, 11516, Note_off_c, 2, 52, 0
6, 11520, Note_on_c, 2, 49, 88
6, 11636, Note_off_c, 2, 49, 0
6, 11640, Note_on_c, 2, 45, 88
6, 11756, Note_off_c, 2, 45, 0
6, 11760, Note_on_c, 2, 54, 88
6, 12230, Note_off_c, 2, 54, 0
6, 12240, Note_on_c, 2, 52, 88
6, 12474, Note_off_c, 2, 52, 0
6, 12480, Note_on_c, 2, 51, 88
6, 12714, Note_off_c, 2, 51, 0
6, 12840, Note_on_c, 2, 56, 88
6, 12956, Note_off_c, 2, 56, 0
6, 12960, Note_on_c, 2, 52, 88
6, 13076, Note_off_c, 2, 52, 0
6, 13080, Note_on_c, 2, 49, 88
6, 13196, Note_off_c, 2, 49, 0
6, 13200, Note_on_c, 2, 57, 88
6, 13674, Note_off_c, 2, 57, 0
6, 13680, Note_on_c, 2, 56, 88
6, 14033, Note_off_c, 2, 56, 0
6, 14040, Note_on_c, 2, 49, 88
6, 14156, Note_off_c, 2, 49, 0
6, 14160, Note_on_c, 2, 54, 88
6, 14622, Note_off_c, 2, 54, 0
6, 14640, Note_on_c, 2, 54, 88
6, 14662, Note_off_c, 2, 54, 0
6, 14663, Note_on_c, 2, 53, 88
6, 14692, Note_off_c, 2, 53, 0
6, 14693, Note_on_c, 2, 54, 88
6, 14722, Note_off_c, 2, 54, 0
6, 14723, Note_on_c, 2, 53, 88
6, 14744, Note_off_c, 2, 53, 0
6, 14745, Note_on_c, 2, 54, 88
6, 14767, Note_off_c, 2, 54, 0
6, 14768, Note_on_c, 2, 53, 88
6, 14789, Note_off_c, 2, 53, 0
6, 14790, Note_on_c, 2, 54, 88
6, 14812, Note_off_c, 2, 54, 0
6, 14813, Note_on_c, 2, 53, 88
6, 14834, Note_off_c, 2, 53, 0
6, 14835, Note_on_c, 2, 51, 88
6, 14857, Note_off_c, 2, 51, 0
6, 14858, Note_on_c, 2, 53, 88
6, 14879, Note_off_c, 2, 53, 0
6, 14880, Note_on_c, 2, 54, 88
6, 14996, Note_off_c, 2, 54, 0
6, 15000, Note_on_c, 2, 57, 88
6, 15116, Note_off_c, 2, 57, 0
6, 15120, Note_on_c, 2, 59, 88
6, 15236, Note_off_c, 2, 59, 0
6, 15240, Note_on_c, 2, 62, 88
6, 15356, Note_off_c, 2, 62, 0
6, 15360, Note_on_c, 2, 56, 88
6, 15476, Note_off_c, 2, 56, 0
6, 15480, Note_on_c, 2, 52, 88
6, 15596, Note_off_c, 2, 52, 0
6, 15600, Note_on_c, 2, 57, 88
6, 15716, Note_off_c, 2, 57, 0
6, 15720, Note_on_c, 2, 61, 88
6, 15836, Note_off_c, 2, 61, 0
6, 15840, Note_on_c, 2, 54, 88
6, 15956, Note_off_c, 2, 54, 0
6, 15960, Note_on_c, 2, 51, 88
6, 16076, Note_off_c, 2, 51, 0
6, 16080, Note_on_c, 2, 56, 88
6, 16196, Note_off_c, 2, 56, 0
6, 16200, Note_on_c, 2, 59, 88
6, 16316, Note_off_c, 2, 59, 0
6, 16320, Note_on_c, 2, 53, 88
6, 16436, Note_off_c, 2, 53, 0
6, 16440, Note_on_c, 2, 49, 88
6, 16556, Note_off_c, 2, 49, 0
6, 16560, Note_on_c, 2, 54, 88
6, 16676, Note_off_c, 2, 54, 0
6, 16680, Note_on_c, 2, 57, 88
6, 16796, Note_off_c, 2, 57, 0
6, 16800, Note_on_c, 2, 59, 88
6, 16916, Note_off_c, 2, 59, 0
6, 16920, Note_on_c, 2, 56, 88
6, 17036, Note_off_c, 2, 56, 0
6, 17040, Note_on_c, 2, 61, 88
6, 17156, Note_off_c, 2, 61, 0
6, 17160, Note_on_c, 2, 59, 88
6, 17276, Note_off_c, 2, 59, 0
6, 17280, Note_on_c, 2, 58, 88
6, 17396, Note_off_c, 2, 58, 0
6, 17400, Note_on_c, 2, 54, 88
6, 17516, Note_off_c, 2, 54, 0
6, 17520, Note_on_c, 2, 59, 88
6, 17636, Note_off_c, 2, 59, 0
6, 17640, Note_on_c, 2, 57, 88
6, 17756, Note_off_c, 2, 57, 0
6, 17760, Note_on_c, 2, 56, 88
6, 17876, Note_off_c, 2, 56, 0
6, 17880, Note_on_c, 2, 52, 88
6, 17996, Note_off_c, 2, 52, 0
6, 18000, Note_on_c, 2, 54, 88
6, 18116, Note_off_c, 2, 54, 0
6, 18120, Note_on_c, 2, 57, 88
6, 18236, Note_off_c, 2, 57, 0
6, 18240, Note_on_c, 2, 50, 88
6, 18356, Note_off_c, 2, 50, 0
6, 18360, Note_on_c, 2, 47, 88
6, 18476, Note_off_c, 2, 47, 0
6, 18480, Note_on_c, 2, 52, 88
6, 18596, Note_off_c, 2, 52, 0
6, 18600, Note_on_c, 2, 40, 88
6, 18716, Note_off_c, 2, 40, 0
6, 18720, Note_on_c, 2, 45, 88
6, 18836, Note_off_c, 2, 45, 0
6, 18840, Note_on_c, 2, 57, 88
6, 18956, Note_off_c, 2, 57, 0
6, 18960, Note_on_c, 2, 56, 88
6, 19135, Note_off_c, 2, 56, 0
6, 19140, Note_on_c, 2, 54, 88
6, 19198, Note_off_c, 2, 54, 0
6, 19200, Note_on_c, 2, 53, 88
6, 19316, Note_off_c, 2, 53, 0
6, 19320, Note_on_c, 2, 49, 88
6, 19436, Note_off_c, 2, 49, 0
6, 19440, Note_on_c, 2, 54, 88
6, 19910, Note_off_c, 2, 54, 0
6, 19920, Note_on_c, 2, 53, 88
6, 20036, Note_off_c, 2, 53, 0
6, 20040, Note_on_c, 2, 52, 88
6, 20276, Note_off_c, 2, 52, 0
6, 20280, Note_on_c, 2, 50, 88
6, 20396, Note_off_c, 2, 50, 0
6, 20400, Note_on_c, 2, 49, 88
6, 20516, Note_off_c, 2, 49, 0
6, 20520, Note_on_c, 2, 47, 88
6, 20636, Note_off_c, 2, 47, 0
6, 20640, Note_on_c, 2, 52, 88
6, 20756, Note_off_c, 2, 52, 0
6, 20760, Note_on_c, 2, 49, 88
6, 20876, Note_off_c, 2, 49, 0
6, 20880, Note_on_c, 2, 54, 88
6, 20996, Note_off_c, 2, 54, 0
6, 21000, Note_on_c, 2, 42, 88
6, 21116, Note_off_c, 2, 42, 0
6, 21120, Note_on_c, 2, 47, 88
6, 21354, Note_off_c, 2, 47, 0
6, 21480, Note_on_c, 2, 49, 88
6, 21596, Note_off_c, 2, 49, 0
6, 21600, Note_on_c, 2, 45, 88
6, 21716, Note_off_c, 2, 45, 0
6, 21720, Note_on_c, 2, 61, 88
6, 21836, Note_off_c, 2, 61, 0
6, 21840, Note_on_c, 2, 59, 88
6, 22015, Note_off_c, 2, 59, 0
6, 22020, Note_on_c, 2, 57, 88
6, 22078, Note_off_c, 2, 57, 0
6, 22080, Note_on_c, 2, 56, 88
6, 22196, Note_off_c, 2, 56, 0
6, 22200, Note_on_c, 2, 52, 88
6, 22316, Note_off_c, 2, 52, 0
6, 22320, Note_on_c, 2, 57, 88
6, 22790, Note_off_c, 2, 57, 0
6, 22800, Note_on_c, 2, 56, 88
6, 22916, Note_off_c, 2, 56, 0
6, 22920, Note_on_c, 2, 52, 88
6, 23036, Note_off_c, 2, 52, 0
6, 23040, Note_on_c, 2, 57, 88
6, 23393, Note_off_c, 2, 57, 0
6, 23400, Note_on_c, 2, 54, 88
6, 23516, Note_off_c, 2, 54, 0
6, 23520, Note_on_c, 2, 59, 88
6, 23873, Note_off_c, 2, 59, 0
6, 23880, Note_on_c, 2, 56, 88
6, 23996, Note_off_c, 2, 56, 0
6, 24000, Note_on_c, 2, 61, 88
6, 24582, Note_off_c, 2, 61, 0
6, 24600, Note_on_c, 2, 61, 88
6, 24716, Note_off_c, 2, 61, 0
6, 24720, Note_on_c, 2, 59, 88
6, 24895, Note_off_c, 2, 59, 0
6, 24900, Note_on_c, 2, 57, 88
6, 24958, Note_off_c, 2, 57, 0
6, 24960, Note_on_c, 2, 56, 88
6, 25194, Note_off_c, 2, 56, 0
6, 25200, Note_on_c, 2, 58, 88
6, 25434, Note_off_c, 2, 58, 0
6, 25440, Note_on_c, 2, 59, 88
6, 25674, Note_off_c, 2, 59, 0
6, 25680, Note_on_c, 2, 55, 88
6, 25914, Note_off_c, 2, 55, 0
6, 25920, Note_on_c, 2, 54, 88
6, 26154, Note_off_c, 2, 54, 0
6, 26280, Note_on_c, 2, 55, 88
6, 26396, Note_off_c, 2, 55, 0
6, 26400, Note_on_c, 2, 52, 88
6, 26516, Note_off_c, 2, 52, 0
6, 26520, Note_on_c, 2, 49, 88
6, 26636, Note_off_c, 2, 49, 0
6, 26640, Note_on_c, 2, 54, 88
6, 27114, Note_off_c, 2, 54, 0
6, 27120, Note_on_c, 2, 52, 88
6, 27236, Note_off_c, 2, 52, 0
6, 27240, Note_on_c, 2, 50, 88
6, 27356, Note_off_c, 2, 50, 0
6, 27360, Note_on_c, 2, 49, 88
6, 27476, Note_off_c, 2, 49, 0
6, 27480, Note_on_c, 2, 45, 88
6, 27596, Note_off_c, 2, 45, 0
6, 27600, Note_on_c, 2, 50, 88
6, 27716, Note_off_c, 2, 50, 0
6, 27720, Note_on_c, 2, 49, 88
6, 27836, Note_off_c, 2, 49, 0
6, 27840, Note_on_c, 2, 47, 88
6, 27956, Note_off_c, 2, 47, 0
6, 27960, Note_on_c, 2, 50, 88
6, 28076, Note_off_c, 2, 50, 0
6, 28080, Note_on_c, 2, 49, 88
6, 28255, Note_off_c, 2, 49, 0
6, 28260, Note_on_c, 2, 47, 88
6, 28318, Note_off_c, 2, 47, 0
6, 28320, Note_on_c, 2, 46, 88
6, 28436, Note_off_c, 2, 46, 0
6, 28440, Note_on_c, 2, 42, 88
6, 28556, Note_off_c, 2, 42, 0
6, 28560, Note_on_c, 2, 47, 88
6, 28916, Note_off_c, 2, 47, 0
6, 28920, Note_on_c, 2, 45, 88
6, 28978, Note_off_c, 2, 45, 0
6, 28980, Note_on_c, 2, 44, 88
6, 29038, Note_off_c, 2, 44, 0
6, 29040, Note_on_c, 2, 45, 88
6, 29393, Note_off_c, 2, 45, 0
6, 29400, Note_on_c, 2, 44, 88
6, 29458, Note_off_c, 2, 44, 0
6, 29460, Note_on_c, 2, 42, 88
6, 29518, Note_off_c, 2, 42, 0
6, 29520, Note_on_c, 2, 44, 88
6, 29636, Note_off_c, 2, 44, 0
6, 29640, Note_on_c, 2, 40, 88
6, 29756, Note_off_c, 2, 40, 0
6, 29760, Note_on_c, 2, 49, 88
6, 29876, Note_off_c, 2, 49, 0
6, 29880, Note_on_c, 2, 37, 88
6, 29996, Note_off_c, 2, 37, 0
6, 30000, Note_on_c, 2, 49, 88
6, 30353, Note_off_c, 2, 49, 0
6, 30360, Note_on_c, 2, 47, 88
6, 30418, Note_off_c, 2, 47, 0
6, 30420, Note_on_c, 2, 45, 88
6, 30478, Note_off_c, 2, 45, 0
6, 30480, Note_on_c, 2, 47, 88
6, 30596, Note_off_c, 2, 47, 0
6, 30600, Note_on_c, 2, 44, 88
6, 30716, Note_off_c, 2, 44, 0
6, 30720, Note_on_c, 2, 41, 88
6, 30836, Note_off_c, 2, 41, 0
6, 30840, Note_on_c, 2, 56, 88
6, 30956, Note_off_c, 2, 56, 0
6, 30960, Note_on_c, 2, 53, 88
6, 31076, Note_off_c, 2, 53, 0
6, 31080, Note_on_c, 2, 49, 88
6, 31196, Note_off_c, 2, 49, 0
6, 31200, Note_on_c, 2, 54, 88
6, 31316, Note_off_c, 2, 54, 0
6, 31320, Note_on_c, 2, 56, 88
6, 31436, Note_off_c, 2, 56, 0
6, 31440, Note_on_c, 2, 57, 88
6, 31556, Note_off_c, 2, 57, 0
6, 31560, Note_on_c, 2, 54, 88
6, 31676, Note_off_c, 2, 54, 0
6, 31680, Note_on_c, 2, 56, 88
6, 31796, Note_off_c, 2, 56, 0
6, 31800, Note_on_c, 2, 44, 88
6, 31916, Note_off_c, 2, 44, 0
6, 32040, Note_on_c, 2, 56, 88
6, 32156, Note_off_c, 2, 56, 0
6, 32160, Note_on_c, 2, 52, 88
6, 32276, Note_off_c, 2, 52, 0
6, 32280, Note_on_c, 2, 49, 88
6, 32396, Note_off_c, 2, 49, 0
6, 32400, Note_on_c, 2, 57, 88
6, 32756, Note_off_c, 2, 57, 0
6, 32760, Note_on_c, 2, 56, 88
6, 32818, Note_off_c, 2, 56, 0
6, 32820, Note_on_c, 2, 54, 88
6, 32878, Note_off_c, 2, 54, 0
6, 32880, Note_on_c, 2, 56, 88
6, 33233, Note_off_c, 2, 56, 0
6, 33240, Note_on_c, 2, 61, 88
6, 33356, Note_off_c, 2, 61, 0
6, 33360, Note_on_c, 2, 54, 88
6, 33716, Note_off_c, 2, 54, 0
6, 33720, Note_on_c, 2, 52, 88
6, 33778, Note_off_c, 2, 52, 0
6, 33780, Note_on_c, 2, 51, 88
6, 33838, Note_off_c, 2, 51, 0
6, 33840, Note_on_c, 2, 52, 88
6, 33956, Note_off_c, 2, 52, 0
6, 33960, Note_on_c, 2, 49, 88
6, 34076, Note_off_c, 2, 49, 0
6, 34080, Note_on_c, 2, 51, 88
6, 34314, Note_off_c, 2, 51, 0
6, 34320, Note_on_c, 2, 56, 88
6, 34554, Note_off_c, 2, 56, 0
6, 34560, Note_on_c, 2, 49, 88
6, 34794, Note_off_c, 2, 49, 0
6, 35880, Note_on_c, 2, 54, 88
6, 35996, Note_off_c, 2, 54, 0
6, 36000, Note_on_c, 2, 52, 88
6, 36058, Note_off_c, 2, 52, 0
6, 36060, Note_on_c, 2, 54, 88
6, 36118, Note_off_c, 2, 54, 0
6, 36120, Note_on_c, 2, 52, 88
6, 36178, Note_off_c, 2, 52, 0
6, 36180, Note_on_c, 2, 50, 88
6, 36238, Note_off_c, 2, 50, 0
6, 36240, Note_on_c, 2, 52, 88
6, 36298, Note_off_c, 2, 52, 0
6, 36300, Note_on_c, 2, 50, 88
6, 36358, Note_off_c, 2, 50, 0
6, 36360, Note_on_c, 2, 49, 88
6, 36418, Note_off_c, 2, 49, 0
6, 36420, Note_on_c, 2, 52, 88
6, 36478, Note_off_c, 2, 52, 0
6, 36480, Note_on_c, 2, 50, 88
6, 36538, Note_off_c, 2, 50, 0
6, 36540, Note_on_c, 2, 52, 88
6, 36598, Note_off_c, 2, 52, 0
6, 36600, Note_on_c, 2, 50, 88
6, 36658, Note_off_c, 2, 50, 0
6, 36660, Note_on_c, 2, 49, 88
6, 36718, Note_off_c, 2, 49, 0
6, 36720, Note_on_c, 2, 50, 88
6, 36778, Note_off_c, 2, 50, 0
6, 36780, Note_on_c, 2, 49, 88
6, 36838, Note_off_c, 2, 49, 0
6, 36840, Note_on_c, 2, 47, 88
6, 36898, Note_off_c, 2, 47, 0
6, 36900, Note_on_c, 2, 50, 88
6, 36958, Note_off_c, 2, 50, 0
6, 36960, Note_on_c, 2, 49, 88
6, 37076, Note_off_c, 2, 49, 0
6, 37080, Note_on_c, 2, 42, 88
6, 37196, Note_off_c, 2, 42, 0
6, 37200, Note_on_c, 2, 54, 88
6, 37316, Note_off_c, 2, 54, 0
6, 37320, Note_on_c, 2, 57, 88
6, 37436, Note_off_c, 2, 57, 0
6, 37440, Note_on_c, 2, 47, 88
6, 37556, Note_off_c, 2, 47, 0
6, 37560, Note_on_c, 2, 59, 88
6, 37676, Note_off_c, 2, 59, 0
6, 37680, Note_on_c, 2, 52, 88
6, 37796, Note_off_c, 2, 52, 0
6, 37800, Note_on_c, 2, 56, 88
6, 37916, Note_off_c, 2, 56, 0
6, 37920, Note_on_c, 2, 45, 88
6, 38036, Note_off_c, 2, 45, 0
6, 38040, Note_on_c, 2, 44, 88
6, 38156, Note_off_c, 2, 44, 0
6, 38160, Note_on_c, 2, 45, 88
6, 38276, Note_off_c, 2, 45, 0
6, 38280, Note_on_c, 2, 57, 88
6, 38396, Note_off_c, 2, 57, 0
6, 38400, Note_on_c, 2, 56, 88
6, 38458, Note_off_c, 2, 56, 0
6, 38460, Note_on_c, 2, 57, 88
6, 38518, Note_off_c, 2, 57, 0
6, 38520, Note_on_c, 2, 56, 88
6, 38578, Note_off_c, 2, 56, 0
6, 38580, Note_on_c, 2, 54, 88
6, 38638, Note_off_c, 2, 54, 0
6, 38640, Note_on_c, 2, 56, 88
6, 38698, Note_off_c, 2, 56, 0
6, 38700, Note_on_c, 2, 54, 88
6, 38758, Note_off_c, 2, 54, 0
6, 38760, Note_on_c, 2, 52, 88
6, 38818, Note_off_c, 2, 52, 0
6, 38820, Note_on_c, 2, 56, 88
6, 38878, Note_off_c, 2, 56, 0
6, 38880, Note_on_c, 2, 54, 88
6, 38938, Note_off_c, 2, 54, 0
6, 38940, Note_on_c, 2, 56, 88
6, 38998, Note_off_c, 2, 56, 0
6, 39000, Note_on_c, 2, 54, 88
6, 39058, Note_off_c, 2, 54, 0
6, 39060, Note_on_c, 2, 52, 88
6, 39118, Note_off_c, 2, 52, 0
6, 39120, Note_on_c, 2, 54, 88
6, 39178, Note_off_c, 2, 54, 0
6, 39180, Note_on_c, 2, 52, 88
6, 39238, Note_off_c, 2, 52, 0
6, 39240, Note_on_c, 2, 51, 88
6, 39298, Note_off_c, 2, 51, 0
6, 39300, Note_on_c, 2, 54, 88
6, 39358, Note_off_c, 2, 54, 0
6, 39360, Note_on_c, 2, 52, 88
6, 39418, Note_off_c, 2, 52, 0
6, 39420, Note_on_c, 2, 54, 88
6, 39478, Note_off_c, 2, 54, 0
6, 39480, Note_on_c, 2, 52, 88
6, 39538, Note_off_c, 2, 52, 0
6, 39540, Note_on_c, 2, 51, 88
6, 39598, Note_off_c, 2, 51, 0
6, 39600, Note_on_c, 2, 52, 88
6, 39658, Note_off_c, 2, 52, 0
6, 39660, Note_on_c, 2, 51, 88
6, 39718, Note_off_c, 2, 51, 0
6, 39720, Note_on_c, 2, 49, 88
6, 39778, Note_off_c, 2, 49, 0
6, 39780, Note_on_c, 2, 52, 88
6, 39838, Note_off_c, 2, 52, 0
6, 39840, Note_on_c, 2, 43, 88
6, 39956, Note_off_c, 2, 43, 0
6, 39960, Note_on_c, 2, 46, 88
6, 40076, Note_off_c, 2, 46, 0
6, 40080, Note_on_c, 2, 47, 88
6, 40196, Note_off_c, 2, 47, 0
6, 40200, Note_on_c, 2, 52, 88
6, 40316, Note_off_c, 2, 52, 0
6, 40320, Note_on_c, 2, 46, 88
6, 40436, Note_off_c, 2, 46, 0
6, 40440, Note_on_c, 2, 49, 88
6, 40556, Note_off_c, 2, 49, 0
6, 40560, Note_on_c, 2, 51, 88
6, 40676, Note_off_c, 2, 51, 0
6, 40680, Note_on_c, 2, 39, 88
6, 40796, Note_off_c, 2, 39, 0
6, 40800, Note_on_c, 2, 44, 88
6, 40916, Note_off_c, 2, 44, 0
6, 40920, Note_on_c, 2, 56, 88
6, 40978, Note_off_c, 2, 56, 0
6, 40980, Note_on_c, 2, 54, 88
6, 41038, Note_off_c, 2, 54, 0
6, 41040, Note_on_c, 2, 56, 88
6, 41156, Note_off_c, 2, 56, 0
6, 41160, Note_on_c, 2, 49, 88
6, 41276, Note_off_c, 2, 49, 0
6, 41280, Note_on_c, 2, 42, 88
6, 41396, Note_off_c, 2, 42, 0
6, 41400, Note_on_c, 2, 54, 88
6, 41458, Note_off_c, 2, 54, 0
6, 41460, Note_on_c, 2, 52, 88
6, 41518, Note_off_c, 2, 52, 0
6, 41520, Note_on_c, 2, 54, 88
6, 41636, Note_off_c, 2, 54, 0
6, 41640, Note_on_c, 2, 47, 88
6, 41756, Note_off_c, 2, 47, 0
6, 41760, Note_on_c, 2, 52, 88
6, 41818, Note_off_c, 2, 52, 0
6, 41820, Note_on_c, 2, 54, 88
6, 41878, Note_off_c, 2, 54, 0
6, 41880, Note_on_c, 2, 56, 88
6, 41938, Note_off_c, 2, 56, 0
6, 41940, Note_on_c, 2, 52, 88
6, 41998, Note_off_c, 2, 52, 0
6, 42000, Note_on_c, 2, 57, 88
6, 42058, Note_off_c, 2, 57, 0
6, 42060, Note_on_c, 2, 59, 88
6, 42118, Note_off_c, 2, 59, 0
6, 42120, Note_on_c, 2, 61, 88
6, 42178, Note_off_c, 2, 61, 0
6, 42180, Note_on_c, 2, 57, 88
6, 42238, Note_off_c, 2, 57, 0
6, 42240, Note_on_c, 2, 62, 88
6, 42298, Note_off_c, 2, 62, 0
6, 42300, Note_on_c, 2, 64, 88
6, 42358, Note_off_c, 2, 64, 0
6, 42360, Note_on_c, 2, 62, 88
6, 42418, Note_off_c, 2, 62, 0
6, 42420, Note_on_c, 2, 61, 88
6, 42478, Note_off_c, 2, 61, 0
6, 42480, Note_on_c, 2, 62, 88
6, 42538, Note_off_c, 2, 62, 0
6, 42540, Note_on_c, 2, 61, 88
6, 42598, Note_off_c, 2, 61, 0
6, 42600, Note_on_c, 2, 59, 88
6, 42658, Note_off_c, 2, 59, 0
6, 42660, Note_on_c, 2, 62, 88
6, 42718, Note_off_c, 2, 62, 0
6, 42720, Note_on_c, 2, 61, 88
6, 42778, Note_off_c, 2, 61, 0
6, 42780, Note_on_c, 2, 62, 88
6, 42838, Note_off_c, 2, 62, 0
6, 42840, Note_on_c, 2, 61, 88
6, 42898, Note_off_c, 2, 61, 0
6, 42900, Note_on_c, 2, 59, 88
6, 42958, Note_off_c, 2, 59, 0
6, 42960, Note_on_c, 2, 61, 88
6, 43018, Note_off_c, 2, 61, 0
6, 43020, Note_on_c, 2, 59, 88
6, 43078, Note_off_c, 2, 59, 0
6, 43080, Note_on_c, 2, 57, 88
6, 43138, Note_off_c, 2, 57, 0
6, 43140, Note_on_c, 2, 61, 88
6, 43198, Note_off_c, 2, 61, 0
6, 43200, Note_on_c, 2, 59, 88
6, 43553, Note_off_c, 2, 59, 0
6, 43560, Note_on_c, 2, 64, 88
6, 43676, Note_off_c, 2, 64, 0
6, 43680, Note_on_c, 2, 57, 88
6, 44033, Note_off_c, 2, 57, 0
6, 44040, Note_on_c, 2, 62, 88
6, 44156, Note_off_c, 2, 62, 0
6, 44160, Note_on_c, 2, 56, 88
6, 44276, Note_off_c, 2, 56, 0
6, 44280, Note_on_c, 2, 59, 88
6, 44396, Note_off_c, 2, 59, 0
6, 44400, Note_on_c, 2, 53, 88
6, 44516, Note_off_c, 2, 53, 0
6, 44520, Note_on_c, 2, 49, 88
6, 44636, Note_off_c, 2, 49, 0
6, 44640, Note_on_c, 2, 54, 88
6, 44982, Note_off_c, 2, 54, 0
6, 45000, Note_on_c, 2, 54, 88
6, 45116, Note_off_c, 2, 54, 0
6, 45120, Note_on_c, 2, 55, 88
6, 45473, Note_off_c, 2, 55, 0
6, 45480, Note_on_c, 2, 56, 88
6, 45596, Note_off_c, 2, 56, 0
6, 45600, Note_on_c, 2, 57, 88
6, 45953, Note_off_c, 2, 57, 0
6, 45960, Note_on_c, 2, 58, 88
6, 46076, Note_off_c, 2, 58, 0
6, 46080, Note_on_c, 2, 59, 88
6, 46196, Note_off_c, 2, 59, 0
6, 46200, Note_on_c, 2, 54, 88
6, 46316, Note_off_c, 2, 54, 0
6, 46320, Note_on_c, 2, 47, 88
6, 46436, Note_off_c, 2, 47, 0
6, 46440, Note_on_c, 2, 50, 88
6, 46556, Note_off_c, 2, 50, 0
6, 46560, Note_on_c, 2, 52, 88
6, 46676, Note_off_c, 2, 52, 0
6, 46680, Note_on_c, 2, 54, 88
6, 46796, Note_off_c, 2, 54, 0
6, 46800, Note_on_c, 2, 55, 88
6, 46916, Note_off_c, 2, 55, 0
6, 46920, Note_on_c, 2, 52, 88
6, 47036, Note_off_c, 2, 52, 0
6, 47040, Note_on_c, 2, 49, 88
6, 47156, Note_off_c, 2, 49, 0
6, 47160, Note_on_c, 2, 45, 88
6, 47276, Note_off_c, 2, 45, 0
6, 47280, Note_on_c, 2, 50, 88
6, 47396, Note_off_c, 2, 50, 0
6, 47400, Note_on_c, 2, 42, 88
6, 47516, Note_off_c, 2, 42, 0
6, 47520, Note_on_c, 2, 43, 88
6, 47636, Note_off_c, 2, 43, 0
6, 47640, Note_on_c, 2, 47, 88
6, 47756, Note_off_c, 2, 47, 0
6, 47760, Note_on_c, 2, 40, 88
6, 47876, Note_off_c, 2, 40, 0
6, 47880, Note_on_c, 2, 45, 88
6, 47996, Note_off_c, 2, 45, 0
6, 48000, Note_on_c, 2, 50, 88
6, 48058, Note_off_c, 2, 50, 0
6, 48060, Note_on_c, 2, 49, 88
6, 48118, Note_off_c, 2, 49, 0
6, 48120, Note_on_c, 2, 50, 88
6, 48178, Note_off_c, 2, 50, 0
6, 48180, Note_on_c, 2, 52, 88
6, 48238, Note_off_c, 2, 52, 0
6, 48240, Note_on_c, 2, 50, 88
6, 48298, Note_off_c, 2, 50, 0
6, 48300, Note_on_c, 2, 55, 88
6, 48358, Note_off_c, 2, 55, 0
6, 48360, Note_on_c, 2, 54, 88
6, 48418, Note_off_c, 2, 54, 0
6, 48420, Note_on_c, 2, 55, 88
6, 48478, Note_off_c, 2, 55, 0
6, 48480, Note_on_c, 2, 49, 88
6, 48538, Note_off_c, 2, 49, 0
6, 48540, Note_on_c, 2, 47, 88
6, 48598, Note_off_c, 2, 47, 0
6, 48600, Note_on_c, 2, 49, 88
6, 48658, Note_off_c, 2, 49, 0
6, 48660, Note_on_c, 2, 50, 88
6, 48718, Note_off_c, 2, 50, 0
6, 48720, Note_on_c, 2, 49, 88
6, 48778, Note_off_c, 2, 49, 0
6, 48780, Note_on_c, 2, 54, 88
6, 48838, Note_off_c, 2, 54, 0
6, 48840, Note_on_c, 2, 52, 88
6, 48898, Note_off_c, 2, 52, 0
6, 48900, Note_on_c, 2, 54, 88
6, 48958, Note_off_c, 2, 54, 0
6, 48960, Note_on_c, 2, 47, 88
6, 49018, Note_off_c, 2, 47, 0
6, 49020, Note_on_c, 2, 49, 88
6, 49078, Note_off_c, 2, 49, 0
6, 49080, Note_on_c, 2, 50, 88
6, 49138, Note_off_c, 2, 50, 0
6, 49140, Note_on_c, 2, 47, 88
6, 49198, Note_off_c, 2, 47, 0
6, 49200, Note_on_c, 2, 52, 88
6, 49258, Note_off_c, 2, 52, 0
6, 49260, Note_on_c, 2, 50, 88
6, 49318, Note_off_c, 2, 50, 0
6, 49320, Note_on_c, 2, 49, 88
6, 49378, Note_off_c, 2, 49, 0
6, 49380, Note_on_c, 2, 47, 88
6, 49438, Note_off_c, 2, 47, 0
6, 49440, Note_on_c, 2, 49, 88
6, 49498, Note_off_c, 2, 49, 0
6, 49500, Note_on_c, 2, 52, 88
6, 49558, Note_off_c, 2, 52, 0
6, 49560, Note_on_c, 2, 50, 88
6, 49618, Note_off_c, 2, 50, 0
6, 49620, Note_on_c, 2, 49, 88
6, 49678, Note_off_c, 2, 49, 0
6, 49680, Note_on_c, 2, 50, 88
6, 49738, Note_off_c, 2, 50, 0
6, 49740, Note_on_c, 2, 52, 88
6, 49798, Note_off_c, 2, 52, 0
6, 49800, Note_on_c, 2, 54, 88
6, 49858, Note_off_c, 2, 54, 0
6, 49860, Note_on_c, 2, 50, 88
6, 49918, Note_off_c, 2, 50, 0
6, 49920, Note_on_c, 2, 52, 88
6, 49978, Note_off_c, 2, 52, 0
6, 49980, Note_on_c, 2, 50, 88
6, 50038, Note_off_c, 2, 50, 0
6, 50040, Note_on_c, 2, 52, 88
6, 50098, Note_off_c, 2, 52, 0
6, 50100, Note_on_c, 2, 54, 88
6, 50158, Note_off_c, 2, 54, 0
6, 50160, Note_on_c, 2, 55, 88
6, 50218, Note_off_c, 2, 55, 0
6, 50220, Note_on_c, 2, 54, 88
6, 50278, Note_off_c, 2, 54, 0
6, 50280, Note_on_c, 2, 52, 88
6, 50338, Note_off_c, 2, 52, 0
6, 50340, Note_on_c, 2, 55, 88
6, 50398, Note_off_c, 2, 55, 0
6, 50400, Note_on_c, 2, 54, 88
6, 50458, Note_off_c, 2, 54, 0
6, 50460, Note_on_c, 2, 56, 88
6, 50518, Note_off_c, 2, 56, 0
6, 50520, Note_on_c, 2, 58, 88
6, 50578, Note_off_c, 2, 58, 0
6, 50580, Note_on_c, 2, 54, 88
6, 50638, Note_off_c, 2, 54, 0
6, 50640, Note_on_c, 2, 59, 88
6, 50698, Note_off_c, 2, 59, 0
6, 50700, Note_on_c, 2, 47, 88
6, 50758, Note_off_c, 2, 47, 0
6, 50760, Note_on_c, 2, 59, 88
6, 50938, Note_off_c, 2, 59, 0
6, 50940, Note_on_c, 2, 57, 88
6, 50998, Note_off_c, 2, 57, 0
6, 51000, Note_on_c, 2, 56, 88
6, 51058, Note_off_c, 2, 56, 0
6, 51060, Note_on_c, 2, 59, 88
6, 51118, Note_off_c, 2, 59, 0
6, 51120, Note_on_c, 2, 57, 88
6, 51178, Note_off_c, 2, 57, 0
6, 51180, Note_on_c, 2, 56, 88
6, 51238, Note_off_c, 2, 56, 0
6, 51240, Note_on_c, 2, 54, 88
6, 51298, Note_off_c, 2, 54, 0
6, 51300, Note_on_c, 2, 57, 88
6, 51358, Note_off_c, 2, 57, 0
6, 51360, Note_on_c, 2, 56, 88
6, 51418, Note_off_c, 2, 56, 0
6, 51420, Note_on_c, 2, 57, 88
6, 51478, Note_off_c, 2, 57, 0
6, 51480, Note_on_c, 2, 56, 88
6, 51538, Note_off_c, 2, 56, 0
6, 51540, Note_on_c, 2, 54, 88
6, 51598, Note_off_c, 2, 54, 0
6, 51600, Note_on_c, 2, 53, 88
6, 51658, Note_off_c, 2, 53, 0
6, 51660, Note_on_c, 2, 54, 88
6, 51718, Note_off_c, 2, 54, 0
6, 51720, Note_on_c, 2, 56, 88
6, 51778, Note_off_c, 2, 56, 0
6, 51780, Note_on_c, 2, 53, 88
6, 51838, Note_off_c, 2, 53, 0
6, 51840, Note_on_c, 2, 54, 88
6, 51956, Note_off_c, 2, 54, 0
6, 51960, Note_on_c, 2, 56, 88
6, 52018, Note_off_c, 2, 56, 0
6, 52020, Note_on_c, 2, 57, 88
6, 52078, Note_off_c, 2, 57, 0
6, 52080, Note_on_c, 2, 59, 88
6, 52138, Note_off_c, 2, 59, 0
6, 52140, Note_on_c, 2, 57, 88
6, 52198, Note_off_c, 2, 57, 0
6, 52200, Note_on_c, 2, 56, 88
6, 52258, Note_off_c, 2, 56, 0
6, 52260, Note_on_c, 2, 54, 88
6, 52318, Note_off_c, 2, 54, 0
6, 52320, Note_on_c, 2, 52, 88
6, 52378, Note_off_c, 2, 52, 0
6, 52380, Note_on_c, 2, 54, 88
6, 52438, Note_off_c, 2, 54, 0
6, 52440, Note_on_c, 2, 52, 88
6, 52498, Note_off_c, 2, 52, 0
6, 52500, Note_on_c, 2, 50, 88
6, 52558, Note_off_c, 2, 50, 0
6, 52560, Note_on_c, 2, 52, 88
6, 52618, Note_off_c, 2, 52, 0
6, 52620, Note_on_c, 2, 50, 88
6, 52678, Note_off_c, 2, 50, 0
6, 52680, Note_on_c, 2, 49, 88
6, 52738, Note_off_c, 2, 49, 0
6, 52740, Note_on_c, 2, 52, 88
6, 52798, Note_off_c, 2, 52, 0
6, 52800, Note_on_c, 2, 50, 88
6, 52858, Note_off_c, 2, 50, 0
6, 52860, Note_on_c, 2, 52, 88
6, 52918, Note_off_c, 2, 52, 0
6, 52920, Note_on_c, 2, 50, 88
6, 52978, Note_off_c, 2, 50, 0
6, 52980, Note_on_c, 2, 49, 88
6, 53038, Note_off_c, 2, 49, 0
6, 53040, Note_on_c, 2, 50, 88
6, 53098, Note_off_c, 2, 50, 0
6, 53100, Note_on_c, 2, 49, 88
6, 53158, Note_off_c, 2, 49, 0
6, 53160, Note_on_c, 2, 47, 88
6, 53218, Note_off_c, 2, 47, 0
6, 53220, Note_on_c, 2, 50, 88
6, 53278, Note_off_c, 2, 50, 0
6, 53280, Note_on_c, 2, 49, 88
6, 53338, Note_off_c, 2, 49, 0
6, 53340, Note_on_c, 2, 50, 88
6, 53398, Note_off_c, 2, 50, 0
6, 53400, Note_on_c, 2, 49, 88
6, 53458, Note_off_c, 2, 49, 0
6, 53460, Note_on_c, 2, 47, 88
6, 53518, Note_off_c, 2, 47, 0
6, 53520, Note_on_c, 2, 49, 88
6, 53578, Note_off_c, 2, 49, 0
6, 53580, Note_on_c, 2, 47, 88
6, 53638, Note_off_c, 2, 47, 0
6, 53640, Note_on_c, 2, 45, 88
6, 53698, Note_off_c, 2, 45, 0
6, 53700, Note_on_c, 2, 49, 88
6, 53758, Note_off_c, 2, 49, 0
6, 53760, Note_on_c, 2, 47, 88
6, 53818, Note_off_c, 2, 47, 0
6, 53820, Note_on_c, 2, 49, 88
6, 53878, Note_off_c, 2, 49, 0
6, 53880, Note_on_c, 2, 47, 88
6, 53938, Note_off_c, 2, 47, 0
6, 53940, Note_on_c, 2, 45, 88
6, 53998, Note_off_c, 2, 45, 0
6, 54000, Note_on_c, 2, 47, 88
6, 54058, Note_off_c, 2, 47, 0
6, 54060, Note_on_c, 2, 45, 88
6, 54118, Note_off_c, 2, 45, 0
6, 54120, Note_on_c, 2, 44, 88
6, 54178, Note_off_c, 2, 44, 0
6, 54180, Note_on_c, 2, 47, 88
6, 54238, Note_off_c, 2, 47, 0
6, 54240, Note_on_c, 2, 45, 88
6, 54298, Note_off_c, 2, 45, 0
6, 54300, Note_on_c, 2, 44, 88
6, 54358, Note_off_c, 2, 44, 0
6, 54360, Note_on_c, 2, 42, 88
6, 54418, Note_off_c, 2, 42, 0
6, 54420, Note_on_c, 2, 44, 88
6, 54478, Note_off_c, 2, 44, 0
6, 54480, Note_on_c, 2, 45, 88
6, 54538, Note_off_c, 2, 45, 0
6, 54540, Note_on_c, 2, 47, 88
6, 54598, Note_off_c, 2, 47, 0
6, 54600, Note_on_c, 2, 49, 88
6, 54658, Note_off_c, 2, 49, 0
6, 54660, Note_on_c, 2, 51, 88
6, 54718, Note_off_c, 2, 51, 0
6, 54720, Note_on_c, 2, 52, 88
6, 54778, Note_off_c, 2, 52, 0
6, 54780, Note_on_c, 2, 51, 88
6, 54838, Note_off_c, 2, 51, 0
6, 54840, Note_on_c, 2, 49, 88
6, 54898, Note_off_c, 2, 49, 0
6, 54900, Note_on_c, 2, 51, 88
6, 54958, Note_off_c, 2, 51, 0
6, 54960, Note_on_c, 2, 52, 88
6, 55018, Note_off_c, 2, 52, 0
6, 55020, Note_on_c, 2, 54, 88
6, 55078, Note_off_c, 2, 54, 0
6, 55080, Note_on_c, 2, 56, 88
6, 55138, Note_off_c, 2, 56, 0
6, 55140, Note_on_c, 2, 58, 88
6, 55198, Note_off_c, 2, 58, 0
6, 55200, Note_on_c, 2, 60, 88
6, 55258, Note_off_c, 2, 60, 0
6, 55260, Note_on_c, 2, 58, 88
6, 55318, Note_off_c, 2, 58, 0
6, 55320, Note_on_c, 2, 60, 88
6, 55378, Note_off_c, 2, 60, 0
6, 55380, Note_on_c, 2, 61, 88
6, 55438, Note_off_c, 2, 61, 0
6, 55440, Note_on_c, 2, 60, 88
6, 55498, Note_off_c, 2, 60, 0
6, 55500, Note_on_c, 2, 61, 88
6, 55558, Note_off_c, 2, 61, 0
6, 55560, Note_on_c, 2, 63, 88
6, 55618, Note_off_c, 2, 63, 0
6, 55620, Note_on_c, 2, 60, 88
6, 55678, Note_off_c, 2, 60, 0
6, 55680, Note_on_c, 2, 61, 88
6, 55738, Note_off_c, 2, 61, 0
6, 55740, Note_on_c, 2, 63, 88
6, 55798, Note_off_c, 2, 63, 0
6, 55800, Note_on_c, 2, 64, 88
6, 55858, Note_off_c, 2, 64, 0
6, 55860, Note_on_c, 2, 63, 88
6, 55918, Note_off_c, 2, 63, 0
6, 55920, Note_on_c, 2, 61, 88
6, 55978, Note_off_c, 2, 61, 0
6, 55980, Note_on_c, 2, 59, 88
6, 56038, Note_off_c, 2, 59, 0
6, 56040, Note_on_c, 2, 57, 88
6, 56098, Note_off_c, 2, 57, 0
6, 56100, Note_on_c, 2, 56, 88
6, 56158, Note_off_c, 2, 56, 0
6, 56160, Note_on_c, 2, 54, 88
6, 56218, Note_off_c, 2, 54, 0
6, 56220, Note_on_c, 2, 52, 88
6, 56278, Note_off_c, 2, 52, 0
6, 56280, Note_on_c, 2, 54, 88
6, 56338, Note_off_c, 2, 54, 0
6, 56340, Note_on_c, 2, 56, 88
6, 56398, Note_off_c, 2, 56, 0
6, 56400, Note_on_c, 2, 54, 88
6, 56458, Note_off_c, 2, 54, 0
6, 56460, Note_on_c, 2, 56, 88
6, 56518, Note_off_c, 2, 56, 0
6, 56520, Note_on_c, 2, 57, 88
6, 56578, Note_off_c, 2, 57, 0
6, 56580, Note_on_c, 2, 54, 88
6, 56638, Note_off_c, 2, 54, 0
6, 56640, Note_on_c, 2, 56, 88
6, 56698, Note_off_c, 2, 56, 0
6, 56700, Note_on_c, 2, 54, 88
6, 56758, Note_off_c, 2, 54, 0
6, 56760, Note_on_c, 2, 56, 88
6, 56818, Note_off_c, 2, 56, 0
6, 56820, Note_on_c, 2, 57, 88
6, 56878, Note_off_c, 2, 57, 0
6, 56880, Note_on_c, 2, 56, 88
6, 56938, Note_off_c, 2, 56, 0
6, 56940, Note_on_c, 2, 54, 88
6, 56998, Note_off_c, 2, 54, 0
6, 57000, Note_on_c, 2, 52, 88
6, 57058, Note_off_c, 2, 52, 0
6, 57060, Note_on_c, 2, 51, 88
6, 57118, Note_off_c, 2, 51, 0
6, 57120, Note_on_c, 2, 52, 88
6, 57236, Note_off_c, 2, 52, 0
6, 57240, Note_on_c, 2, 49, 88
6, 57356, Note_off_c, 2, 49, 0
6, 57360, Note_on_c, 2, 57, 88
6, 57716, Note_off_c, 2, 57, 0
6, 57720, Note_on_c, 2, 56, 88
6, 57778, Note_off_c, 2, 56, 0
6, 57780, Note_on_c, 2, 54, 88
6, 57838, Note_off_c, 2, 54, 0
6, 57840, Note_on_c, 2, 56, 88
6, 58193, Note_off_c, 2, 56, 0
6, 58200, Note_on_c, 2, 61, 88
6, 58316, Note_off_c, 2, 61, 0
6, 58320, Note_on_c, 2, 54, 88
6, 58676, Note_off_c, 2, 54, 0
6, 58680, Note_on_c, 2, 52, 88
6, 58738, Note_off_c, 2, 52, 0
6, 58740, Note_on_c, 2, 51, 88
6, 58798, Note_off_c, 2, 51, 0
6, 58800, Note_on_c, 2, 52, 88
6, 58916, Note_off_c, 2, 52, 0
6, 58920, Note_on_c, 2, 49, 88
6, 59036, Note_off_c, 2, 49, 0
6, 59040, Note_on_c, 2, 51, 88
6, 59510, Note_off_c, 2, 51, 0
6, 59520, Note_on_c, 2, 49, 88
6, 59578, Note_off_c, 2, 49, 0
6, 59580, Note_on_c, 2, 48, 88
6, 59638, Note_off_c, 2, 48, 0
6, 59640, Note_on_c, 2, 49, 88
6, 59698, Note_off_c, 2, 49, 0
6, 59700, Note_on_c, 2, 51, 88
6, 59758, Note_off_c, 2, 51, 0
6, 59760, Note_on_c, 2, 52, 88
6, 59818, Note_off_c, 2, 52, 0
6, 59820, Note_on_c, 2, 54, 88
6, 59878, Note_off_c, 2, 54, 0
6, 59880, Note_on_c, 2, 55, 88
6, 59938, Note_off_c, 2, 55, 0
6, 59940, Note_on_c, 2, 52, 88
6, 59998, Note_off_c, 2, 52, 0
6, 60000, Note_on_c, 2, 54, 88
6, 60058, Note_off_c, 2, 54, 0
6, 60060, Note_on_c, 2, 55, 88
6, 60118, Note_off_c, 2, 55, 0
6, 60120, Note_on_c, 2, 54, 88
6, 60178, Note_off_c, 2, 54, 0
6, 60180, Note_on_c, 2, 52, 88
6, 60238, Note_off_c, 2, 52, 0
6, 60240, Note_on_c, 2, 50, 88
6, 60298, Note_off_c, 2, 50, 0
6, 60300, Note_on_c, 2, 49, 88
6, 60358, Note_off_c, 2, 49, 0
6, 60360, Note_on_c, 2, 47, 88
6, 60418, Note_off_c, 2, 47, 0
6, 60420, Note_on_c, 2, 46, 88
6, 60478, Note_off_c, 2, 46, 0
6, 60480, Note_on_c, 2, 47, 88
6, 60538, Note_off_c, 2, 47, 0
6, 60540, Note_on_c, 2, 42, 88
6, 60598, Note_off_c, 2, 42, 0
6, 60600, Note_on_c, 2, 47, 88
6, 60658, Note_off_c, 2, 47, 0
6, 60660, Note_on_c, 2, 49, 88
6, 60718, Note_off_c, 2, 49, 0
6, 60720, Note_on_c, 2, 50, 88
6, 60778, Note_off_c, 2, 50, 0
6, 60780, Note_on_c, 2, 52, 88
6, 60838, Note_off_c, 2, 52, 0
6, 60840, Note_on_c, 2, 54, 88
6, 60898, Note_off_c, 2, 54, 0
6, 60900, Note_on_c, 2, 50, 88
6, 60958, Note_off_c, 2, 50, 0
6, 60960, Note_on_c, 2, 52, 88
6, 61018, Note_off_c, 2, 52, 0
6, 61020, Note_on_c, 2, 54, 88
6, 61078, Note_off_c, 2, 54, 0
6, 61080, Note_on_c, 2, 52, 88
6, 61138, Note_off_c, 2, 52, 0
6, 61140, Note_on_c, 2, 50, 88
6, 61198, Note_off_c, 2, 50, 0
6, 61200, Note_on_c, 2, 49, 88
6, 61258, Note_off_c, 2, 49, 0
6, 61260, Note_on_c, 2, 47, 88
6, 61318, Note_off_c, 2, 47, 0
6, 61320, Note_on_c, 2, 45, 88
6, 61378, Note_off_c, 2, 45, 0
6, 61380, Note_on_c, 2, 44, 88
6, 61438, Note_off_c, 2, 44, 0
6, 61440, Note_on_c, 2, 45, 88
6, 61498, Note_off_c, 2, 45, 0
6, 61500, Note_on_c, 2, 40, 88
6, 61558, Note_off_c, 2, 40, 0
6, 61560, Note_on_c, 2, 45, 88
6, 61618, Note_off_c, 2, 45, 0
6, 61620, Note_on_c, 2, 47, 88
6, 61678, Note_off_c, 2, 47, 0
6, 61680, Note_on_c, 2, 49, 88
6, 61738, Note_off_c, 2, 49, 0
6, 61740, Note_on_c, 2, 50, 88
6, 61798, Note_off_c, 2, 50, 0
6, 61800, Note_on_c, 2, 52, 88
6, 61858, Note_off_c, 2, 52, 0
6, 61860, Note_on_c, 2, 49, 88
6, 61918, Note_off_c, 2, 49, 0
6, 61920, Note_on_c, 2, 50, 88
6, 61978, Note_off_c, 2, 50, 0
6, 61980, Note_on_c, 2, 52, 88
6, 62038, Note_off_c, 2, 52, 0
6, 62040, Note_on_c, 2, 50, 88
6, 62098, Note_off_c, 2, 50, 0
6, 62100, Note_on_c, 2, 49, 88
6, 62158, Note_off_c, 2, 49, 0
6, 62160, Note_on_c, 2, 47, 88
6, 62218, Note_off_c, 2, 47, 0
6, 62220, Note_on_c, 2, 45, 88
6, 62278, Note_off_c, 2, 45, 0
6, 62280, Note_on_c, 2, 44, 88
6, 62338, Note_off_c, 2, 44, 0
6, 62340, Note_on_c, 2, 42, 88
6, 62398, Note_off_c, 2, 42, 0
6, 62400, Note_on_c, 2, 41, 88
6, 62516, Note_off_c, 2, 41, 0
6, 62520, Note_on_c, 2, 37, 88
6, 62636, Note_off_c, 2, 37, 0
6, 62640, Note_on_c, 2, 42, 88
6, 63102, Note_off_c, 2, 42, 0
6, 63120, Note_on_c, 2, 42, 88
6, 63142, Note_off_c, 2, 42, 0
6, 63143, Note_on_c, 2, 41, 88
6, 63172, Note_off_c, 2, 41, 0
6, 63173, Note_on_c, 2, 42, 88
6, 63202, Note_off_c, 2, 42, 0
6, 63203, Note_on_c, 2, 41, 88
6, 63224, Note_off_c, 2, 41, 0
6, 63225, Note_on_c, 2, 42, 88
6, 63247, Note_off_c, 2, 42, 0
6, 63248, Note_on_c, 2, 41, 88
6, 63269, Note_off_c, 2, 41, 0
6, 63270, Note_on_c, 2, 42, 88
6, 63292, Note_off_c, 2, 42, 0
6, 63293, Note_on_c, 2, 41, 88
6, 63314, Note_off_c, 2, 41, 0
6, 63315, Note_on_c, 2, 39, 88
6, 63337, Note_off_c, 2, 39, 0
6, 63338, Note_on_c, 2, 41, 88
6, 63359, Note_off_c, 2, 41, 0
6, 63360, Note_on_c, 2, 42, 88
6, 63418, Note_off_c, 2, 42, 0
6, 63420, Note_on_c, 2, 54, 88
6, 63478, Note_off_c, 2, 54, 0
6, 63480, Note_on_c, 2, 56, 88
6, 63538, Note_off_c, 2, 56, 0
6, 63540, Note_on_c, 2, 57, 88
6, 63598, Note_off_c, 2, 57, 0
6, 63600, Note_on_c, 2, 59, 88
6, 63658, Note_off_c, 2, 59, 0
6, 63660, Note_on_c, 2, 61, 88
6, 63718, Note_off_c, 2, 61, 0
6, 63720, Note_on_c, 2, 59, 88
6, 63778, Note_off_c, 2, 59, 0
6, 63780, Note_on_c, 2, 57, 88
6, 63838, Note_off_c, 2, 57, 0
6, 63840, Note_on_c, 2, 56, 88
6, 64074, Note_off_c, 2, 56, 0
6, 64200, Note_on_c, 2, 58, 88
6, 64316, Note_off_c, 2, 58, 0
6, 64320, Note_on_c, 2, 59, 88
6, 64436, Note_off_c, 2, 59, 0
6, 64440, Note_on_c, 2, 57, 88
6, 64556, Note_off_c, 2, 57, 0
6, 64560, Note_on_c, 2, 56, 88
6, 64735, Note_off_c, 2, 56, 0
6, 64740, Note_on_c, 2, 54, 88
6, 64798, Note_off_c, 2, 54, 0
6, 64800, Note_on_c, 2, 53, 88
6, 64916, Note_off_c, 2, 53, 0
6, 64920, Note_on_c, 2, 49, 88
6, 65036, Note_off_c, 2, 49, 0
6, 65040, Note_on_c, 2, 54, 88
6, 65514, Note_off_c, 2, 54, 0
6, 65520, Note_on_c, 2, 53, 88
6, 65754, Note_off_c, 2, 53, 0
6, 65760, Note_on_c, 2, 54, 88
6, 65876, Note_off_c, 2, 54, 0
6, 65880, Note_on_c, 2, 50, 88
6, 65996, Note_off_c, 2, 50, 0
6, 66000, Note_on_c, 2, 45, 88
6, 66116, Note_off_c, 2, 45, 0
6, 66120, Note_on_c, 2, 47, 88
6, 66236, Note_off_c, 2, 47, 0
6, 66240, Note_on_c, 2, 49, 88
6, 66474, Note_off_c, 2, 49, 0
6, 66480, Note_on_c, 2, 37, 88
6, 66714, Note_off_c, 2, 37, 0
6, 66720, Note_on_c, 2, 42, 88
6, 67190, Note_off_c, 2, 42, 0
6, 67190, End_track
0, 0, End_of_file
