0, 0, Header, 1, 7, 240
1, 0, Start_track
1, 0, Time_signature, 3, 3, 24, 8
1, 0, Tempo, 769230
1, 0, SMPTE_offset, 64, 0, 0, 0, 118
1, 24840, Tempo, 810810
1, 25200, Tempo, 937500
1, 25560, Tempo, 1111111
1, 25560, End_track
2, 0, Start_track
2, 0, Title_t, "(C) & (P) 1993"
2, 127, End_track
3, 0, Start_track
3, 0, Title_t, "CCARH,Stanford"
3, 0, End_track
4, 0, Start_track
4, 0, Title_t, "Track 1"
4, 0, Program_c, 0, 6
4, 60, Note_on_c, 0, 74, 88
4, 118, Note_off_c, 0, 74, 0
4, 120, Note_on_c, 0, 71, 88
4, 178, Note_off_c, 0, 71, 0
4, 180, Note_on_c, 0, 74, 88
4, 238, Note_off_c, 0, 74, 0
4, 240, Note_on_c, 0, 79, 88
4, 298, Note_off_c, 0, 79, 0
4, 300, Note_on_c, 0, 74, 88
4, 358, Note_off_c, 0, 74, 0
4, 360, Note_on_c, 0, 71, 88
4, 418, Note_off_c, 0, 71, 0
4, 420, Note_on_c, 0, 74, 88
4, 478, Note_off_c, 0, 74, 0
4, 480, Note_on_c, 0, 67, 88
4, 538, Note_off_c, 0, 67, 0
4, 540, Note_on_c, 0, 74, 88
4, 598, Note_off_c, 0, 74, 0
4, 600, Note_on_c, 0, 71, 88
4, 658, Note_off_c, 0, 71, 0
4, 660, Note_on_c, 0, 74, 88
4, 718, Note_off_c, 0, 74, 0
4, 720, Note_on_c, 0, 76, 88
4, 778, Note_off_c, 0, 76, 0
4, 780, Note_on_c, 0, 72, 88
4, 838, Note_off_c, 0, 72, 0
4, 840, Note_on_c, 0, 69, 88
4, 898, Note_off_c, 0, 69, 0
4, 900, Note_on_c, 0, 72, 88
4, 958, Note_off_c, 0, 72, 0
4, 960, Note_on_c, 0, 66, 88
4, 1018, Note_off_c, 0, 66, 0
4, 1020, Note_on_c, 0, 69, 88
4, 1078, Note_off_c, 0, 69, 0
4, 1080, Note_on_c, 0, 74, 88
4, 1138, Note_off_c, 0, 74, 0
4, 1140, Note_on_c, 0, 71, 88
4, 1198, Note_off_c, 0, 71, 0
4, 1200, Note_on_c, 0, 67, 88
4, 1258, Note_off_c, 0, 67, 0
4, 1260, Note_on_c, 0, 71, 88
4, 1318, Note_off_c, 0, 71, 0
4, 1320, Note_on_c, 0, 64, 88
4, 1378, Note_off_c, 0, 64, 0
4, 1380, Note_on_c, 0, 67, 88
4, 1438, Note_off_c, 0, 67, 0
4, 1440, Note_on_c, 0, 72, 88
4, 1498, Note_off_c, 0, 72, 0
4, 1500, Note_on_c, 0, 69, 88
4, 1558, Note_off_c, 0, 69, 0
4, 1560, Note_on_c, 0, 66, 88
4, 1618, Note_off_c, 0, 66, 0
4, 1620, Note_on_c, 0, 69, 88
4, 1678, Note_off_c, 0, 69, 0
4, 1680, Note_on_c, 0, 62, 88
4, 1738, Note_off_c, 0, 62, 0
4, 1740, Note_on_c, 0, 66, 88
4, 1798, Note_off_c, 0, 66, 0
4, 1800, Note_on_c, 0, 71, 88
4, 1858, Note_off_c, 0, 71, 0
4, 1860, Note_on_c, 0, 69, 88
4, 1918, Note_off_c, 0, 69, 0
4, 1920, Note_on_c, 0, 67, 88
4, 1978, Note_off_c, 0, 67, 0
4, 1980, Note_on_c, 0, 69, 88
4, 2038, Note_off_c, 0, 69, 0
4, 2040, Note_on_c, 0, 71, 88
4, 2098, Note_off_c, 0, 71, 0
4, 2100, Note_on_c, 0, 72, 88
4, 2158, Note_off_c, 0, 72, 0
4, 2160, Note_on_c, 0, 74, 88
4, 2218, Note_off_c, 0, 74, 0
4, 2220, Note_on_c, 0, 69, 88
4, 2278, Note_off_c, 0, 69, 0
4, 2280, Note_on_c, 0, 71, 88
4, 2338, Note_off_c, 0, 71, 0
4, 2340, Note_on_c, 0, 73, 88
4, 2398, Note_off_c, 0, 73, 0
4, 2400, Note_on_c, 0, 74, 88
4, 2458, Note_off_c, 0, 74, 0
4, 2460, Note_on_c, 0, 76, 88
4, 2518, Note_off_c, 0, 76, 0
4, 2520, Note_on_c, 0, 78, 88
4, 2578, Note_off_c, 0, 78, 0
4, 2580, Note_on_c, 0, 76, 88
4, 2638, Note_off_c, 0, 76, 0
4, 2640, Note_on_c, 0, 74, 88
4, 2698, Note_off_c, 0, 74, 0
4, 2700, Note_on_c, 0, 76, 88
4, 2758, Note_off_c, 0, 76, 0
4, 2760, Note_on_c, 0, 78, 88
4, 2818, Note_off_c, 0, 78, 0
4, 2820, Note_on_c, 0, 79, 88
4, 2878, Note_off_c, 0, 79, 0
4, 2880, Note_on_c, 0, 81, 88
4, 2996, Note_off_c, 0, 81, 0
4, 3120, Note_on_c, 0, 81, 88
4, 3236, Note_off_c, 0, 81, 0
4, 3240, Note_on_c, 0, 74, 88
4, 3356, Note_off_c, 0, 74, 0
4, 3360, Note_on_c, 0, 79, 88
4, 3716, Note_off_c, 0, 79, 0
4, 3720, Note_on_c, 0, 78, 88
4, 3836, Note_off_c, 0, 78, 0
4, 3840, Note_on_c, 0, 74, 88
4, 3956, Note_off_c, 0, 74, 0
4, 3960, Note_on_c, 0, 71, 88
4, 4076, Note_off_c, 0, 71, 0
4, 4080, Note_on_c, 0, 76, 88
4, 4378, Note_off_c, 0, 76, 0
4, 4380, Note_on_c, 0, 79, 88
4, 4438, Note_off_c, 0, 79, 0
4, 4440, Note_on_c, 0, 78, 88
4, 4498, Note_off_c, 0, 78, 0
4, 4500, Note_on_c, 0, 76, 88
4, 4558, Note_off_c, 0, 76, 0
4, 4560, Note_on_c, 0, 74, 88
4, 4618, Note_off_c, 0, 74, 0
4, 4620, Note_on_c, 0, 76, 88
4, 4678, Note_off_c, 0, 76, 0
4, 4680, Note_on_c, 0, 78, 88
4, 4738, Note_off_c, 0, 78, 0
4, 4740, Note_on_c, 0, 81, 88
4, 4798, Note_off_c, 0, 81, 0
4, 4800, Note_on_c, 0, 79, 88
4, 4858, Note_off_c, 0, 79, 0
4, 4860, Note_on_c, 0, 78, 88
4, 4918, Note_off_c, 0, 78, 0
4, 4920, Note_on_c, 0, 76, 88
4, 4978, Note_off_c, 0, 76, 0
4, 4980, Note_on_c, 0, 78, 88
4, 5038, Note_off_c, 0, 78, 0
4, 5040, Note_on_c, 0, 79, 88
4, 5156, Note_off_c, 0, 79, 0
4, 5520, Note_on_c, 0, 83, 88
4, 5818, Note_off_c, 0, 83, 0
4, 5820, Note_on_c, 0, 76, 88
4, 5878, Note_off_c, 0, 76, 0
4, 5880, Note_on_c, 0, 78, 88
4, 5938, Note_off_c, 0, 78, 0
4, 5940, Note_on_c, 0, 81, 88
4, 6178, Note_off_c, 0, 81, 0
4, 6180, Note_on_c, 0, 74, 88
4, 6238, Note_off_c, 0, 74, 0
4, 6240, Note_on_c, 0, 76, 88
4, 6298, Note_off_c, 0, 76, 0
4, 6300, Note_on_c, 0, 79, 88
4, 6538, Note_off_c, 0, 79, 0
4, 6540, Note_on_c, 0, 72, 88
4, 6598, Note_off_c, 0, 72, 0
4, 6600, Note_on_c, 0, 74, 88
4, 6658, Note_off_c, 0, 74, 0
4, 6660, Note_on_c, 0, 78, 88
4, 6956, Note_off_c, 0, 78, 0
4, 6960, Note_on_c, 0, 76, 88
4, 7316, Note_off_c, 0, 76, 0
4, 7320, Note_on_c, 0, 74, 88
4, 7676, Note_off_c, 0, 74, 0
4, 7680, Note_on_c, 0, 73, 88
4, 7738, Note_off_c, 0, 73, 0
4, 7740, Note_on_c, 0, 71, 88
4, 7798, Note_off_c, 0, 71, 0
4, 7800, Note_on_c, 0, 73, 88
4, 7916, Note_off_c, 0, 73, 0
4, 7920, Note_on_c, 0, 74, 88
4, 8036, Note_off_c, 0, 74, 0
4, 8400, Note_on_c, 0, 81, 88
4, 8516, Note_off_c, 0, 81, 0
4, 8520, Note_on_c, 0, 72, 88
4, 8698, Note_off_c, 0, 72, 0
4, 8700, Note_on_c, 0, 74, 88
4, 8758, Note_off_c, 0, 74, 0
4, 8760, Note_on_c, 0, 71, 88
4, 8818, Note_off_c, 0, 71, 0
4, 8820, Note_on_c, 0, 74, 88
4, 8878, Note_off_c, 0, 74, 0
4, 8880, Note_on_c, 0, 79, 88
4, 8938, Note_off_c, 0, 79, 0
4, 8940, Note_on_c, 0, 74, 88
4, 8998, Note_off_c, 0, 74, 0
4, 9000, Note_on_c, 0, 71, 88
4, 9058, Note_off_c, 0, 71, 0
4, 9060, Note_on_c, 0, 74, 88
4, 9118, Note_off_c, 0, 74, 0
4, 9120, Note_on_c, 0, 67, 88
4, 9178, Note_off_c, 0, 67, 0
4, 9180, Note_on_c, 0, 74, 88
4, 9238, Note_off_c, 0, 74, 0
4, 9240, Note_on_c, 0, 71, 88
4, 9298, Note_off_c, 0, 71, 0
4, 9300, Note_on_c, 0, 74, 88
4, 9476, Note_off_c, 0, 74, 0
4, 9840, Note_on_c, 0, 83, 88
4, 9956, Note_off_c, 0, 83, 0
4, 9960, Note_on_c, 0, 74, 88
4, 10138, Note_off_c, 0, 74, 0
4, 10140, Note_on_c, 0, 76, 88
4, 10198, Note_off_c, 0, 76, 0
4, 10200, Note_on_c, 0, 72, 88
4, 10258, Note_off_c, 0, 72, 0
4, 10260, Note_on_c, 0, 76, 88
4, 10318, Note_off_c, 0, 76, 0
4, 10320, Note_on_c, 0, 81, 88
4, 10378, Note_off_c, 0, 81, 0
4, 10380, Note_on_c, 0, 76, 88
4, 10438, Note_off_c, 0, 76, 0
4, 10440, Note_on_c, 0, 72, 88
4, 10498, Note_off_c, 0, 72, 0
4, 10500, Note_on_c, 0, 76, 88
4, 10558, Note_off_c, 0, 76, 0
4, 10560, Note_on_c, 0, 69, 88
4, 10618, Note_off_c, 0, 69, 0
4, 10620, Note_on_c, 0, 76, 88
4, 10678, Note_off_c, 0, 76, 0
4, 10680, Note_on_c, 0, 72, 88
4, 10738, Note_off_c, 0, 72, 0
4, 10740, Note_on_c, 0, 76, 88
4, 10798, Note_off_c, 0, 76, 0
4, 10800, Note_on_c, 0, 78, 88
4, 10916, Note_off_c, 0, 78, 0
4, 11280, Note_on_c, 0, 81, 88
4, 11636, Note_off_c, 0, 81, 0
4, 11640, Note_on_c, 0, 83, 88
4, 11698, Note_off_c, 0, 83, 0
4, 11700, Note_on_c, 0, 81, 88
4, 11758, Note_off_c, 0, 81, 0
4, 11760, Note_on_c, 0, 79, 88
4, 11818, Note_off_c, 0, 79, 0
4, 11820, Note_on_c, 0, 78, 88
4, 11878, Note_off_c, 0, 78, 0
4, 11880, Note_on_c, 0, 76, 88
4, 11938, Note_off_c, 0, 76, 0
4, 11940, Note_on_c, 0, 78, 88
4, 11998, Note_off_c, 0, 78, 0
4, 12000, Note_on_c, 0, 79, 88
4, 12298, Note_off_c, 0, 79, 0
4, 12300, Note_on_c, 0, 72, 88
4, 12358, Note_off_c, 0, 72, 0
4, 12360, Note_on_c, 0, 74, 88
4, 12418, Note_off_c, 0, 74, 0
4, 12420, Note_on_c, 0, 78, 88
4, 12658, Note_off_c, 0, 78, 0
4, 12660, Note_on_c, 0, 71, 88
4, 12718, Note_off_c, 0, 71, 0
4, 12720, Note_on_c, 0, 72, 88
4, 12778, Note_off_c, 0, 72, 0
4, 12780, Note_on_c, 0, 76, 88
4, 13018, Note_off_c, 0, 76, 0
4, 13020, Note_on_c, 0, 69, 88
4, 13078, Note_off_c, 0, 69, 0
4, 13080, Note_on_c, 0, 71, 88
4, 13138, Note_off_c, 0, 71, 0
4, 13140, Note_on_c, 0, 75, 88
4, 13436, Note_off_c, 0, 75, 0
4, 13440, Note_on_c, 0, 76, 88
4, 13498, Note_off_c, 0, 76, 0
4, 13500, Note_on_c, 0, 75, 88
4, 13558, Note_off_c, 0, 75, 0
4, 13560, Note_on_c, 0, 76, 88
4, 13796, Note_off_c, 0, 76, 0
4, 13800, Note_on_c, 0, 74, 88
4, 13858, Note_off_c, 0, 74, 0
4, 13860, Note_on_c, 0, 73, 88
4, 13918, Note_off_c, 0, 73, 0
4, 13920, Note_on_c, 0, 74, 88
4, 13978, Note_off_c, 0, 74, 0
4, 13980, Note_on_c, 0, 76, 88
4, 14038, Note_off_c, 0, 76, 0
4, 14040, Note_on_c, 0, 78, 88
4, 14098, Note_off_c, 0, 78, 0
4, 14100, Note_on_c, 0, 76, 88
4, 14158, Note_off_c, 0, 76, 0
4, 14160, Note_on_c, 0, 74, 88
4, 14218, Note_off_c, 0, 74, 0
4, 14220, Note_on_c, 0, 78, 88
4, 14278, Note_off_c, 0, 78, 0
4, 14280, Note_on_c, 0, 83, 88
4, 14338, Note_off_c, 0, 83, 0
4, 14340, Note_on_c, 0, 78, 88
4, 14398, Note_off_c, 0, 78, 0
4, 14400, Note_on_c, 0, 74, 88
4, 14458, Note_off_c, 0, 74, 0
4, 14460, Note_on_c, 0, 78, 88
4, 14518, Note_off_c, 0, 78, 0
4, 14520, Note_on_c, 0, 71, 88
4, 14578, Note_off_c, 0, 71, 0
4, 14580, Note_on_c, 0, 78, 88
4, 14638, Note_off_c, 0, 78, 0
4, 14640, Note_on_c, 0, 74, 88
4, 14698, Note_off_c, 0, 74, 0
4, 14700, Note_on_c, 0, 78, 88
4, 14758, Note_off_c, 0, 78, 0
4, 14760, Note_on_c, 0, 79, 88
4, 14818, Note_off_c, 0, 79, 0
4, 14820, Note_on_c, 0, 76, 88
4, 14878, Note_off_c, 0, 76, 0
4, 14880, Note_on_c, 0, 73, 88
4, 14938, Note_off_c, 0, 73, 0
4, 14940, Note_on_c, 0, 76, 88
4, 14998, Note_off_c, 0, 76, 0
4, 15000, Note_on_c, 0, 69, 88
4, 15058, Note_off_c, 0, 69, 0
4, 15060, Note_on_c, 0, 73, 88
4, 15118, Note_off_c, 0, 73, 0
4, 15120, Note_on_c, 0, 78, 88
4, 15178, Note_off_c, 0, 78, 0
4, 15180, Note_on_c, 0, 74, 88
4, 15238, Note_off_c, 0, 74, 0
4, 15240, Note_on_c, 0, 71, 88
4, 15298, Note_off_c, 0, 71, 0
4, 15300, Note_on_c, 0, 74, 88
4, 15358, Note_off_c, 0, 74, 0
4, 15360, Note_on_c, 0, 67, 88
4, 15418, Note_off_c, 0, 67, 0
4, 15420, Note_on_c, 0, 71, 88
4, 15478, Note_off_c, 0, 71, 0
4, 15480, Note_on_c, 0, 76, 88
4, 15538, Note_off_c, 0, 76, 0
4, 15540, Note_on_c, 0, 73, 88
4, 15598, Note_off_c, 0, 73, 0
4, 15600, Note_on_c, 0, 70, 88
4, 15658, Note_off_c, 0, 70, 0
4, 15660, Note_on_c, 0, 73, 88
4, 15718, Note_off_c, 0, 73, 0
4, 15720, Note_on_c, 0, 66, 88
4, 15778, Note_off_c, 0, 66, 0
4, 15780, Note_on_c, 0, 70, 88
4, 15838, Note_off_c, 0, 70, 0
4, 15840, Note_on_c, 0, 74, 88
4, 15898, Note_off_c, 0, 74, 0
4, 15900, Note_on_c, 0, 78, 88
4, 15958, Note_off_c, 0, 78, 0
4, 15960, Note_on_c, 0, 71, 88
4, 16018, Note_off_c, 0, 71, 0
4, 16020, Note_on_c, 0, 74, 88
4, 16078, Note_off_c, 0, 74, 0
4, 16080, Note_on_c, 0, 78, 88
4, 16138, Note_off_c, 0, 78, 0
4, 16140, Note_on_c, 0, 74, 88
4, 16198, Note_off_c, 0, 74, 0
4, 16200, Note_on_c, 0, 71, 88
4, 16258, Note_off_c, 0, 71, 0
4, 16260, Note_on_c, 0, 74, 88
4, 16318, Note_off_c, 0, 74, 0
4, 16320, Note_on_c, 0, 66, 88
4, 16378, Note_off_c, 0, 66, 0
4, 16380, Note_on_c, 0, 71, 88
4, 16438, Note_off_c, 0, 71, 0
4, 16440, Note_on_c, 0, 74, 88
4, 17396, Note_off_c, 0, 74, 0
4, 17400, Note_on_c, 0, 72, 88
4, 17501, Note_off_c, 0, 72, 0
4, 17520, Note_on_c, 0, 72, 88
4, 17636, Note_off_c, 0, 72, 0
4, 17640, Note_on_c, 0, 74, 88
4, 17658, Note_off_c, 0, 74, 0
4, 17659, Note_on_c, 0, 72, 88
4, 17681, Note_off_c, 0, 72, 0
4, 17681, Note_on_c, 0, 74, 88
4, 17703, Note_off_c, 0, 74, 0
4, 17704, Note_on_c, 0, 72, 88
4, 17726, Note_off_c, 0, 72, 0
4, 17726, Note_on_c, 0, 74, 88
4, 17748, Note_off_c, 0, 74, 0
4, 17749, Note_on_c, 0, 72, 88
4, 17771, Note_off_c, 0, 72, 0
4, 17771, Note_on_c, 0, 74, 88
4, 17793, Note_off_c, 0, 74, 0
4, 17794, Note_on_c, 0, 72, 88
4, 17812, Note_off_c, 0, 72, 0
4, 17813, Note_on_c, 0, 74, 88
4, 17831, Note_on_c, 0, 72, 88
4, 17831, Note_off_c, 0, 74, 0
4, 17849, Note_off_c, 0, 72, 0
4, 17850, Note_on_c, 0, 74, 88
4, 17868, Note_off_c, 0, 74, 0
4, 17869, Note_on_c, 0, 72, 88
4, 17887, Note_off_c, 0, 72, 0
4, 17888, Note_on_c, 0, 74, 88
4, 17906, Note_on_c, 0, 72, 88
4, 17906, Note_off_c, 0, 74, 0
4, 17924, Note_off_c, 0, 72, 0
4, 17925, Note_on_c, 0, 74, 88
4, 17943, Note_off_c, 0, 74, 0
4, 17944, Note_on_c, 0, 72, 88
4, 17962, Note_off_c, 0, 72, 0
4, 17963, Note_on_c, 0, 74, 88
4, 17981, Note_on_c, 0, 72, 88
4, 17981, Note_off_c, 0, 74, 0
4, 17999, Note_off_c, 0, 72, 0
4, 18000, Note_on_c, 0, 72, 88
4, 18101, Note_off_c, 0, 72, 0
4, 18120, Note_on_c, 0, 72, 88
4, 18221, Note_off_c, 0, 72, 0
4, 18240, Note_on_c, 0, 72, 88
4, 18356, Note_off_c, 0, 72, 0
4, 18360, Note_on_c, 0, 72, 88
4, 18836, Note_off_c, 0, 72, 0
4, 18840, Note_on_c, 0, 71, 88
4, 18941, Note_off_c, 0, 71, 0
4, 18960, Note_on_c, 0, 71, 88
4, 19076, Note_off_c, 0, 71, 0
4, 19080, Note_on_c, 0, 71, 88
4, 19361, Note_off_c, 0, 71, 0
4, 19380, Note_on_c, 0, 71, 88
4, 19481, Note_off_c, 0, 71, 0
4, 19500, Note_on_c, 0, 71, 88
4, 19558, Note_off_c, 0, 71, 0
4, 19560, Note_on_c, 0, 69, 88
4, 19618, Note_off_c, 0, 69, 0
4, 19620, Note_on_c, 0, 66, 88
4, 19678, Note_off_c, 0, 66, 0
4, 19680, Note_on_c, 0, 67, 88
4, 19738, Note_off_c, 0, 67, 0
4, 19740, Note_on_c, 0, 64, 88
4, 19798, Note_off_c, 0, 64, 0
4, 19800, Note_on_c, 0, 66, 88
4, 19858, Note_off_c, 0, 66, 0
4, 19860, Note_on_c, 0, 69, 88
4, 19918, Note_off_c, 0, 69, 0
4, 19920, Note_on_c, 0, 62, 88
4, 19978, Note_off_c, 0, 62, 0
4, 19980, Note_on_c, 0, 66, 88
4, 20038, Note_off_c, 0, 66, 0
4, 20040, Note_on_c, 0, 69, 88
4, 20098, Note_off_c, 0, 69, 0
4, 20100, Note_on_c, 0, 66, 88
4, 20158, Note_off_c, 0, 66, 0
4, 20160, Note_on_c, 0, 62, 88
4, 20218, Note_off_c, 0, 62, 0
4, 20220, Note_on_c, 0, 66, 88
4, 20278, Note_off_c, 0, 66, 0
4, 20280, Note_on_c, 0, 57, 88
4, 20338, Note_off_c, 0, 57, 0
4, 20340, Note_on_c, 0, 62, 88
4, 20398, Note_off_c, 0, 62, 0
4, 20400, Note_on_c, 0, 66, 88
4, 20458, Note_off_c, 0, 66, 0
4, 20460, Note_on_c, 0, 60, 88
4, 20518, Note_off_c, 0, 60, 0
4, 20520, Note_on_c, 0, 59, 88
4, 20578, Note_off_c, 0, 59, 0
4, 20580, Note_on_c, 0, 62, 88
4, 20638, Note_off_c, 0, 62, 0
4, 20640, Note_on_c, 0, 59, 88
4, 20698, Note_off_c, 0, 59, 0
4, 20700, Note_on_c, 0, 62, 88
4, 20758, Note_off_c, 0, 62, 0
4, 20760, Note_on_c, 0, 67, 88
4, 20818, Note_off_c, 0, 67, 0
4, 20820, Note_on_c, 0, 62, 88
4, 20878, Note_off_c, 0, 62, 0
4, 20880, Note_on_c, 0, 59, 88
4, 20938, Note_off_c, 0, 59, 0
4, 20940, Note_on_c, 0, 62, 88
4, 20998, Note_off_c, 0, 62, 0
4, 21000, Note_on_c, 0, 55, 88
4, 21058, Note_off_c, 0, 55, 0
4, 21060, Note_on_c, 0, 59, 88
4, 21118, Note_off_c, 0, 59, 0
4, 21120, Note_on_c, 0, 62, 88
4, 21178, Note_off_c, 0, 62, 0
4, 21180, Note_on_c, 0, 59, 88
4, 21238, Note_off_c, 0, 59, 0
4, 21660, Note_on_c, 0, 58, 88
4, 21718, Note_off_c, 0, 58, 0
4, 21720, Note_on_c, 0, 57, 88
4, 21778, Note_off_c, 0, 57, 0
4, 21780, Note_on_c, 0, 55, 88
4, 21838, Note_off_c, 0, 55, 0
4, 21840, Note_on_c, 0, 64, 88
4, 21898, Note_off_c, 0, 64, 0
4, 21900, Note_on_c, 0, 55, 88
4, 21958, Note_off_c, 0, 55, 0
4, 21960, Note_on_c, 0, 55, 88
4, 21975, Note_on_c, 0, 54, 88
4, 21975, Note_off_c, 0, 55, 0
4, 21990, Note_off_c, 0, 54, 0
4, 21990, Note_on_c, 0, 55, 88
4, 22005, Note_on_c, 0, 54, 88
4, 22005, Note_off_c, 0, 55, 0
4, 22020, Note_on_c, 0, 52, 88
4, 22020, Note_off_c, 0, 54, 0
4, 22078, Note_off_c, 0, 52, 0
4, 22080, Note_on_c, 0, 50, 88
4, 22196, Note_off_c, 0, 50, 0
4, 22680, Note_on_c, 0, 59, 88
4, 22709, Note_off_c, 0, 59, 0
4, 22710, Note_on_c, 0, 61, 88
4, 22739, Note_off_c, 0, 61, 0
4, 22740, Note_on_c, 0, 62, 88
4, 22769, Note_off_c, 0, 62, 0
4, 22770, Note_on_c, 0, 64, 88
4, 22799, Note_off_c, 0, 64, 0
4, 22800, Note_on_c, 0, 66, 88
4, 22829, Note_off_c, 0, 66, 0
4, 22830, Note_on_c, 0, 62, 88
4, 22859, Note_off_c, 0, 62, 0
4, 22860, Note_on_c, 0, 64, 88
4, 22889, Note_off_c, 0, 64, 0
4, 22890, Note_on_c, 0, 66, 88
4, 22919, Note_off_c, 0, 66, 0
4, 22920, Note_on_c, 0, 67, 88
4, 22949, Note_off_c, 0, 67, 0
4, 22950, Note_on_c, 0, 69, 88
4, 22979, Note_off_c, 0, 69, 0
4, 22980, Note_on_c, 0, 71, 88
4, 23009, Note_off_c, 0, 71, 0
4, 23010, Note_on_c, 0, 72, 88
4, 23039, Note_off_c, 0, 72, 0
4, 23040, Note_on_c, 0, 74, 88
4, 23876, Note_off_c, 0, 74, 0
4, 23880, Note_on_c, 0, 72, 88
4, 24236, Note_off_c, 0, 72, 0
4, 24240, Note_on_c, 0, 71, 88
4, 24596, Note_off_c, 0, 71, 0
4, 24600, Note_on_c, 0, 69, 88
4, 24658, Note_off_c, 0, 69, 0
4, 24660, Note_on_c, 0, 72, 88
4, 24718, Note_off_c, 0, 72, 0
4, 24720, Note_on_c, 0, 78, 88
4, 24778, Note_off_c, 0, 78, 0
4, 24780, Note_on_c, 0, 81, 88
4, 24898, Note_off_c, 0, 81, 0
4, 24900, Note_on_c, 0, 79, 88
4, 25016, Note_off_c, 0, 79, 0
4, 25020, Note_on_c, 0, 78, 88
4, 25078, Note_off_c, 0, 78, 0
4, 25080, Note_on_c, 0, 79, 88
4, 25138, Note_off_c, 0, 79, 0
4, 25140, Note_on_c, 0, 78, 88
4, 25169, Note_off_c, 0, 78, 0
4, 25170, Note_on_c, 0, 76, 88
4, 25199, Note_off_c, 0, 76, 0
4, 25200, Note_on_c, 0, 74, 88
4, 25229, Note_off_c, 0, 74, 0
4, 25230, Note_on_c, 0, 72, 88
4, 25259, Note_off_c, 0, 72, 0
4, 25260, Note_on_c, 0, 71, 88
4, 25289, Note_off_c, 0, 71, 0
4, 25290, Note_on_c, 0, 69, 88
4, 25319, Note_off_c, 0, 69, 0
4, 25320, Note_on_c, 0, 67, 88
4, 25349, Note_off_c, 0, 67, 0
4, 25350, Note_on_c, 0, 71, 88
4, 25379, Note_off_c, 0, 71, 0
4, 25380, Note_on_c, 0, 69, 88
4, 25409, Note_off_c, 0, 69, 0
4, 25410, Note_on_c, 0, 67, 88
4, 25439, Note_off_c, 0, 67, 0
4, 25440, Note_on_c, 0, 66, 88
4, 25469, Note_off_c, 0, 66, 0
4, 25470, Note_on_c, 0, 64, 88
4, 25499, Note_off_c, 0, 64, 0
4, 25500, Note_on_c, 0, 62, 88
4, 25529, Note_off_c, 0, 62, 0
4, 25530, Note_on_c, 0, 60, 88
4, 25559, Note_off_c, 0, 60, 0
4, 25560, Note_on_c, 0, 60, 88
4, 25676, Note_off_c, 0, 60, 0
4, 25680, Note_on_c, 0, 59, 88
4, 25914, Note_off_c, 0, 59, 0
4, 25914, End_track
5, 0, Start_track
5, 0, Title_t, "Track 2"
5, 0, Program_c, 1, 6
5, 10680, Note_on_c, 1, 72, 88
5, 10916, Note_off_c, 1, 72, 0
5, 10920, Note_on_c, 1, 71, 88
5, 11036, Note_off_c, 1, 71, 0
5, 11036, End_track
6, 0, Start_track
6, 0, Title_t, "Track 3"
6, 0, Program_c, 2, 6
6, 2580, Note_on_c, 2, 67, 88
6, 2638, Note_off_c, 2, 67, 0
6, 2640, Note_on_c, 2, 66, 88
6, 2698, Note_off_c, 2, 66, 0
6, 2700, Note_on_c, 2, 69, 88
6, 2758, Note_off_c, 2, 69, 0
6, 2760, Note_on_c, 2, 74, 88
6, 2818, Note_off_c, 2, 74, 0
6, 2820, Note_on_c, 2, 69, 88
6, 2878, Note_off_c, 2, 69, 0
6, 2880, Note_on_c, 2, 66, 88
6, 2938, Note_off_c, 2, 66, 0
6, 2940, Note_on_c, 2, 69, 88
6, 2998, Note_off_c, 2, 69, 0
6, 3000, Note_on_c, 2, 62, 88
6, 3058, Note_off_c, 2, 62, 0
6, 3060, Note_on_c, 2, 69, 88
6, 3118, Note_off_c, 2, 69, 0
6, 3120, Note_on_c, 2, 66, 88
6, 3178, Note_off_c, 2, 66, 0
6, 3180, Note_on_c, 2, 69, 88
6, 3238, Note_off_c, 2, 69, 0
6, 3240, Note_on_c, 2, 71, 88
6, 3298, Note_off_c, 2, 71, 0
6, 3300, Note_on_c, 2, 67, 88
6, 3358, Note_off_c, 2, 67, 0
6, 3360, Note_on_c, 2, 64, 88
6, 3418, Note_off_c, 2, 64, 0
6, 3420, Note_on_c, 2, 67, 88
6, 3478, Note_off_c, 2, 67, 0
6, 3480, Note_on_c, 2, 61, 88
6, 3538, Note_off_c, 2, 61, 0
6, 3540, Note_on_c, 2, 64, 88
6, 3598, Note_off_c, 2, 64, 0
6, 3600, Note_on_c, 2, 69, 88
6, 3658, Note_off_c, 2, 69, 0
6, 3660, Note_on_c, 2, 66, 88
6, 3718, Note_off_c, 2, 66, 0
6, 3720, Note_on_c, 2, 62, 88
6, 3778, Note_off_c, 2, 62, 0
6, 3780, Note_on_c, 2, 66, 88
6, 3838, Note_off_c, 2, 66, 0
6, 3840, Note_on_c, 2, 59, 88
6, 3898, Note_off_c, 2, 59, 0
6, 3900, Note_on_c, 2, 62, 88
6, 3958, Note_off_c, 2, 62, 0
6, 3960, Note_on_c, 2, 67, 88
6, 4018, Note_off_c, 2, 67, 0
6, 4020, Note_on_c, 2, 64, 88
6, 4078, Note_off_c, 2, 64, 0
6, 4080, Note_on_c, 2, 61, 88
6, 4138, Note_off_c, 2, 61, 0
6, 4140, Note_on_c, 2, 64, 88
6, 4198, Note_off_c, 2, 64, 0
6, 4200, Note_on_c, 2, 57, 88
6, 4258, Note_off_c, 2, 57, 0
6, 4260, Note_on_c, 2, 61, 88
6, 4318, Note_off_c, 2, 61, 0
6, 4320, Note_on_c, 2, 66, 88
6, 4378, Note_off_c, 2, 66, 0
6, 4380, Note_on_c, 2, 64, 88
6, 4438, Note_off_c, 2, 64, 0
6, 4440, Note_on_c, 2, 62, 88
6, 4498, Note_off_c, 2, 62, 0
6, 4500, Note_on_c, 2, 64, 88
6, 4558, Note_off_c, 2, 64, 0
6, 4560, Note_on_c, 2, 66, 88
6, 4618, Note_off_c, 2, 66, 0
6, 4620, Note_on_c, 2, 67, 88
6, 4678, Note_off_c, 2, 67, 0
6, 4680, Note_on_c, 2, 69, 88
6, 4738, Note_off_c, 2, 69, 0
6, 4740, Note_on_c, 2, 62, 88
6, 4798, Note_off_c, 2, 62, 0
6, 4800, Note_on_c, 2, 64, 88
6, 4858, Note_off_c, 2, 64, 0
6, 4860, Note_on_c, 2, 66, 88
6, 4918, Note_off_c, 2, 66, 0
6, 4920, Note_on_c, 2, 67, 88
6, 4978, Note_off_c, 2, 67, 0
6, 4980, Note_on_c, 2, 69, 88
6, 5038, Note_off_c, 2, 69, 0
6, 5040, Note_on_c, 2, 71, 88
6, 5098, Note_off_c, 2, 71, 0
6, 5100, Note_on_c, 2, 69, 88
6, 5158, Note_off_c, 2, 69, 0
6, 5160, Note_on_c, 2, 67, 88
6, 5218, Note_off_c, 2, 67, 0
6, 5220, Note_on_c, 2, 69, 88
6, 5278, Note_off_c, 2, 69, 0
6, 5280, Note_on_c, 2, 71, 88
6, 5338, Note_off_c, 2, 71, 0
6, 5340, Note_on_c, 2, 72, 88
6, 5398, Note_off_c, 2, 72, 0
6, 5400, Note_on_c, 2, 74, 88
6, 5621, Note_off_c, 2, 74, 0
6, 5640, Note_on_c, 2, 74, 88
6, 5756, Note_off_c, 2, 74, 0
6, 5760, Note_on_c, 2, 72, 88
6, 5981, Note_off_c, 2, 72, 0
6, 6000, Note_on_c, 2, 72, 88
6, 6116, Note_off_c, 2, 72, 0
6, 6120, Note_on_c, 2, 71, 88
6, 6341, Note_off_c, 2, 71, 0
6, 6360, Note_on_c, 2, 71, 88
6, 6476, Note_off_c, 2, 71, 0
6, 6480, Note_on_c, 2, 69, 88
6, 6701, Note_off_c, 2, 69, 0
6, 6720, Note_on_c, 2, 69, 88
6, 6836, Note_off_c, 2, 69, 0
6, 6840, Note_on_c, 2, 67, 88
6, 7061, Note_off_c, 2, 67, 0
6, 7080, Note_on_c, 2, 67, 88
6, 7196, Note_off_c, 2, 67, 0
6, 7200, Note_on_c, 2, 66, 88
6, 7421, Note_off_c, 2, 66, 0
6, 7440, Note_on_c, 2, 66, 88
6, 7556, Note_off_c, 2, 66, 0
6, 7560, Note_on_c, 2, 64, 88
6, 7794, Note_off_c, 2, 64, 0
6, 7800, Note_on_c, 2, 67, 88
6, 7916, Note_off_c, 2, 67, 0
6, 7920, Note_on_c, 2, 66, 88
6, 8036, Note_off_c, 2, 66, 0
6, 8400, Note_on_c, 2, 72, 88
6, 8516, Note_off_c, 2, 72, 0
6, 8520, Note_on_c, 2, 69, 88
6, 8756, Note_off_c, 2, 69, 0
6, 8760, Note_on_c, 2, 67, 88
6, 8876, Note_off_c, 2, 67, 0
6, 9120, Note_on_c, 2, 62, 88
6, 9236, Note_off_c, 2, 62, 0
6, 9240, Note_on_c, 2, 65, 88
6, 9476, Note_off_c, 2, 65, 0
6, 9480, Note_on_c, 2, 64, 88
6, 9596, Note_off_c, 2, 64, 0
6, 9840, Note_on_c, 2, 74, 88
6, 9956, Note_off_c, 2, 74, 0
6, 9960, Note_on_c, 2, 71, 88
6, 10196, Note_off_c, 2, 71, 0
6, 10200, Note_on_c, 2, 69, 88
6, 10316, Note_off_c, 2, 69, 0
6, 10560, Note_on_c, 2, 60, 88
6, 10676, Note_off_c, 2, 60, 0
6, 10680, Note_on_c, 2, 69, 88
6, 10916, Note_off_c, 2, 69, 0
6, 11280, Note_on_c, 2, 75, 88
6, 11396, Note_off_c, 2, 75, 0
6, 11400, Note_on_c, 2, 78, 88
6, 11516, Note_off_c, 2, 78, 0
6, 11520, Note_on_c, 2, 71, 88
6, 11636, Note_off_c, 2, 71, 0
6, 11640, Note_on_c, 2, 76, 88
6, 11815, Note_off_c, 2, 76, 0
6, 11820, Note_on_c, 2, 75, 88
6, 11878, Note_off_c, 2, 75, 0
6, 11880, Note_on_c, 2, 76, 88
6, 12114, Note_off_c, 2, 76, 0
6, 12120, Note_on_c, 2, 71, 88
6, 12236, Note_off_c, 2, 71, 0
6, 12240, Note_on_c, 2, 69, 88
6, 12461, Note_off_c, 2, 69, 0
6, 12480, Note_on_c, 2, 69, 88
6, 12596, Note_off_c, 2, 69, 0
6, 12600, Note_on_c, 2, 67, 88
6, 12821, Note_off_c, 2, 67, 0
6, 12840, Note_on_c, 2, 67, 88
6, 12956, Note_off_c, 2, 67, 0
6, 12960, Note_on_c, 2, 66, 88
6, 13194, Note_off_c, 2, 66, 0
6, 13200, Note_on_c, 2, 69, 88
6, 13436, Note_off_c, 2, 69, 0
6, 13440, Note_on_c, 2, 67, 88
6, 13601, Note_off_c, 2, 67, 0
6, 13620, Note_on_c, 2, 67, 88
6, 13678, Note_off_c, 2, 67, 0
6, 13680, Note_on_c, 2, 66, 88
6, 13914, Note_off_c, 2, 66, 0
6, 14640, Note_on_c, 2, 66, 88
6, 14756, Note_off_c, 2, 66, 0
6, 14760, Note_on_c, 2, 64, 88
6, 14981, Note_off_c, 2, 64, 0
6, 15000, Note_on_c, 2, 64, 88
6, 15116, Note_off_c, 2, 64, 0
6, 15120, Note_on_c, 2, 62, 88
6, 15341, Note_off_c, 2, 62, 0
6, 15360, Note_on_c, 2, 62, 88
6, 15476, Note_off_c, 2, 62, 0
6, 15480, Note_on_c, 2, 61, 88
6, 15701, Note_off_c, 2, 61, 0
6, 15720, Note_on_c, 2, 61, 88
6, 15836, Note_off_c, 2, 61, 0
6, 15840, Note_on_c, 2, 59, 88
6, 16074, Note_off_c, 2, 59, 0
6, 16500, Note_on_c, 2, 69, 88
6, 16558, Note_off_c, 2, 69, 0
6, 16560, Note_on_c, 2, 68, 88
6, 16618, Note_off_c, 2, 68, 0
6, 16620, Note_on_c, 2, 71, 88
6, 16678, Note_off_c, 2, 71, 0
6, 16680, Note_on_c, 2, 64, 88
6, 16738, Note_off_c, 2, 64, 0
6, 16740, Note_on_c, 2, 68, 88
6, 16798, Note_off_c, 2, 68, 0
6, 16800, Note_on_c, 2, 71, 88
6, 16858, Note_off_c, 2, 71, 0
6, 16860, Note_on_c, 2, 68, 88
6, 16918, Note_off_c, 2, 68, 0
6, 16920, Note_on_c, 2, 64, 88
6, 16978, Note_off_c, 2, 64, 0
6, 16980, Note_on_c, 2, 68, 88
6, 17038, Note_off_c, 2, 68, 0
6, 17040, Note_on_c, 2, 59, 88
6, 17098, Note_off_c, 2, 59, 0
6, 17100, Note_on_c, 2, 64, 88
6, 17158, Note_off_c, 2, 64, 0
6, 17160, Note_on_c, 2, 68, 88
6, 17396, Note_off_c, 2, 68, 0
6, 17400, Note_on_c, 2, 69, 88
6, 17501, Note_off_c, 2, 69, 0
6, 17520, Note_on_c, 2, 69, 88
6, 17636, Note_off_c, 2, 69, 0
6, 17640, Note_on_c, 2, 69, 88
6, 18116, Note_off_c, 2, 69, 0
6, 18120, Note_on_c, 2, 66, 88
6, 18221, Note_off_c, 2, 66, 0
6, 18240, Note_on_c, 2, 66, 88
6, 18356, Note_off_c, 2, 66, 0
6, 18360, Note_on_c, 2, 67, 88
6, 18378, Note_off_c, 2, 67, 0
6, 18379, Note_on_c, 2, 66, 88
6, 18401, Note_off_c, 2, 66, 0
6, 18401, Note_on_c, 2, 67, 88
6, 18423, Note_off_c, 2, 67, 0
6, 18424, Note_on_c, 2, 66, 88
6, 18446, Note_off_c, 2, 66, 0
6, 18446, Note_on_c, 2, 67, 88
6, 18468, Note_off_c, 2, 67, 0
6, 18469, Note_on_c, 2, 66, 88
6, 18491, Note_off_c, 2, 66, 0
6, 18491, Note_on_c, 2, 67, 88
6, 18513, Note_off_c, 2, 67, 0
6, 18514, Note_on_c, 2, 66, 88
6, 18532, Note_off_c, 2, 66, 0
6, 18533, Note_on_c, 2, 67, 88
6, 18551, Note_on_c, 2, 66, 88
6, 18551, Note_off_c, 2, 67, 0
6, 18569, Note_off_c, 2, 66, 0
6, 18570, Note_on_c, 2, 67, 88
6, 18588, Note_off_c, 2, 67, 0
6, 18589, Note_on_c, 2, 66, 88
6, 18607, Note_off_c, 2, 66, 0
6, 18608, Note_on_c, 2, 67, 88
6, 18626, Note_on_c, 2, 66, 88
6, 18626, Note_off_c, 2, 67, 0
6, 18644, Note_off_c, 2, 66, 0
6, 18645, Note_on_c, 2, 67, 88
6, 18663, Note_off_c, 2, 67, 0
6, 18664, Note_on_c, 2, 66, 88
6, 18682, Note_off_c, 2, 66, 0
6, 18683, Note_on_c, 2, 67, 88
6, 18701, Note_on_c, 2, 66, 88
6, 18701, Note_off_c, 2, 67, 0
6, 18719, Note_off_c, 2, 66, 0
6, 18720, Note_on_c, 2, 66, 88
6, 18836, Note_off_c, 2, 66, 0
6, 18840, Note_on_c, 2, 67, 88
6, 18941, Note_off_c, 2, 67, 0
6, 18960, Note_on_c, 2, 67, 88
6, 19076, Note_off_c, 2, 67, 0
6, 19080, Note_on_c, 2, 67, 88
6, 19196, Note_off_c, 2, 67, 0
6, 19200, Note_on_c, 2, 65, 88
6, 19258, Note_off_c, 2, 65, 0
6, 19260, Note_on_c, 2, 64, 88
6, 19318, Note_off_c, 2, 64, 0
6, 19320, Note_on_c, 2, 62, 88
6, 19436, Note_off_c, 2, 62, 0
6, 19440, Note_on_c, 2, 60, 88
6, 19916, Note_off_c, 2, 60, 0
6, 19920, Note_on_c, 2, 54, 88
6, 20021, Note_off_c, 2, 54, 0
6, 20040, Note_on_c, 2, 54, 88
6, 20156, Note_off_c, 2, 54, 0
6, 20160, Note_on_c, 2, 55, 88
6, 20182, Note_off_c, 2, 55, 0
6, 20183, Note_on_c, 2, 54, 88
6, 20204, Note_off_c, 2, 54, 0
6, 20205, Note_on_c, 2, 55, 88
6, 20227, Note_off_c, 2, 55, 0
6, 20228, Note_on_c, 2, 54, 88
6, 20249, Note_off_c, 2, 54, 0
6, 20250, Note_on_c, 2, 55, 88
6, 20272, Note_off_c, 2, 55, 0
6, 20273, Note_on_c, 2, 54, 88
6, 20294, Note_off_c, 2, 54, 0
6, 20295, Note_on_c, 2, 55, 88
6, 20317, Note_off_c, 2, 55, 0
6, 20318, Note_on_c, 2, 54, 88
6, 20339, Note_off_c, 2, 54, 0
6, 20340, Note_on_c, 2, 55, 88
6, 20362, Note_off_c, 2, 55, 0
6, 20363, Note_on_c, 2, 54, 88
6, 20381, Note_off_c, 2, 54, 0
6, 20381, Note_on_c, 2, 55, 88
6, 20399, Note_off_c, 2, 55, 0
6, 20400, Note_on_c, 2, 54, 88
6, 20418, Note_off_c, 2, 54, 0
6, 20419, Note_on_c, 2, 55, 88
6, 20437, Note_off_c, 2, 55, 0
6, 20438, Note_on_c, 2, 54, 88
6, 20459, Note_off_c, 2, 54, 0
6, 20460, Note_on_c, 2, 52, 88
6, 20489, Note_off_c, 2, 52, 0
6, 20490, Note_on_c, 2, 54, 88
6, 20519, Note_off_c, 2, 54, 0
6, 20520, Note_on_c, 2, 55, 88
6, 20621, Note_off_c, 2, 55, 0
6, 20640, Note_on_c, 2, 55, 88
6, 20741, Note_off_c, 2, 55, 0
6, 20760, Note_on_c, 2, 55, 88
6, 20876, Note_off_c, 2, 55, 0
6, 20880, Note_on_c, 2, 55, 88
6, 20996, Note_off_c, 2, 55, 0
6, 21240, Note_on_c, 2, 55, 88
6, 21298, Note_off_c, 2, 55, 0
6, 21300, Note_on_c, 2, 58, 88
6, 21358, Note_off_c, 2, 58, 0
6, 21360, Note_on_c, 2, 52, 88
6, 21418, Note_off_c, 2, 52, 0
6, 21420, Note_on_c, 2, 55, 88
6, 21478, Note_off_c, 2, 55, 0
6, 21480, Note_on_c, 2, 58, 88
6, 21538, Note_off_c, 2, 58, 0
6, 21540, Note_on_c, 2, 50, 88
6, 21598, Note_off_c, 2, 50, 0
6, 21600, Note_on_c, 2, 50, 88
6, 21622, Note_off_c, 2, 50, 0
6, 21623, Note_on_c, 2, 49, 88
6, 21644, Note_off_c, 2, 49, 0
6, 21645, Note_on_c, 2, 50, 88
6, 21667, Note_off_c, 2, 50, 0
6, 21668, Note_on_c, 2, 49, 88
6, 21689, Note_off_c, 2, 49, 0
6, 21690, Note_on_c, 2, 50, 88
6, 21712, Note_off_c, 2, 50, 0
6, 21713, Note_on_c, 2, 49, 88
6, 21734, Note_off_c, 2, 49, 0
6, 21735, Note_on_c, 2, 50, 88
6, 21757, Note_off_c, 2, 50, 0
6, 21758, Note_on_c, 2, 49, 88
6, 21779, Note_off_c, 2, 49, 0
6, 21780, Note_on_c, 2, 50, 88
6, 21802, Note_off_c, 2, 50, 0
6, 21803, Note_on_c, 2, 49, 88
6, 21821, Note_off_c, 2, 49, 0
6, 21821, Note_on_c, 2, 50, 88
6, 21839, Note_off_c, 2, 50, 0
6, 21840, Note_on_c, 2, 49, 88
6, 21858, Note_off_c, 2, 49, 0
6, 21859, Note_on_c, 2, 50, 88
6, 21877, Note_off_c, 2, 50, 0
6, 21878, Note_on_c, 2, 49, 88
6, 21899, Note_off_c, 2, 49, 0
6, 21900, Note_on_c, 2, 47, 88
6, 21929, Note_off_c, 2, 47, 0
6, 21930, Note_on_c, 2, 49, 88
6, 21959, Note_off_c, 2, 49, 0
6, 21960, Note_on_c, 2, 50, 88
6, 22076, Note_off_c, 2, 50, 0
6, 23100, Note_on_c, 2, 62, 88
6, 23158, Note_off_c, 2, 62, 0
6, 23160, Note_on_c, 2, 59, 88
6, 23218, Note_off_c, 2, 59, 0
6, 23220, Note_on_c, 2, 62, 88
6, 23278, Note_off_c, 2, 62, 0
6, 23280, Note_on_c, 2, 67, 88
6, 23338, Note_off_c, 2, 67, 0
6, 23340, Note_on_c, 2, 62, 88
6, 23398, Note_off_c, 2, 62, 0
6, 23400, Note_on_c, 2, 59, 88
6, 23458, Note_off_c, 2, 59, 0
6, 23460, Note_on_c, 2, 62, 88
6, 23518, Note_off_c, 2, 62, 0
6, 23520, Note_on_c, 2, 55, 88
6, 23578, Note_off_c, 2, 55, 0
6, 23580, Note_on_c, 2, 62, 88
6, 23638, Note_off_c, 2, 62, 0
6, 23640, Note_on_c, 2, 59, 88
6, 23698, Note_off_c, 2, 59, 0
6, 23700, Note_on_c, 2, 62, 88
6, 23758, Note_off_c, 2, 62, 0
6, 23760, Note_on_c, 2, 64, 88
6, 23818, Note_off_c, 2, 64, 0
6, 23820, Note_on_c, 2, 60, 88
6, 23878, Note_off_c, 2, 60, 0
6, 23880, Note_on_c, 2, 57, 88
6, 23938, Note_off_c, 2, 57, 0
6, 23940, Note_on_c, 2, 60, 88
6, 23998, Note_off_c, 2, 60, 0
6, 24000, Note_on_c, 2, 54, 88
6, 24058, Note_off_c, 2, 54, 0
6, 24060, Note_on_c, 2, 57, 88
6, 24118, Note_off_c, 2, 57, 0
6, 24120, Note_on_c, 2, 62, 88
6, 24178, Note_off_c, 2, 62, 0
6, 24180, Note_on_c, 2, 59, 88
6, 24238, Note_off_c, 2, 59, 0
6, 24240, Note_on_c, 2, 55, 88
6, 24298, Note_off_c, 2, 55, 0
6, 24300, Note_on_c, 2, 59, 88
6, 24358, Note_off_c, 2, 59, 0
6, 24360, Note_on_c, 2, 52, 88
6, 24418, Note_off_c, 2, 52, 0
6, 24420, Note_on_c, 2, 55, 88
6, 24478, Note_off_c, 2, 55, 0
6, 24480, Note_on_c, 2, 60, 88
6, 24538, Note_off_c, 2, 60, 0
6, 24540, Note_on_c, 2, 57, 88
6, 24598, Note_off_c, 2, 57, 0
6, 24600, Note_on_c, 2, 54, 88
6, 24658, Note_off_c, 2, 54, 0
6, 24660, Note_on_c, 2, 57, 88
6, 24718, Note_off_c, 2, 57, 0
6, 24720, Note_on_c, 2, 50, 88
6, 24778, Note_off_c, 2, 50, 0
6, 24780, Note_on_c, 2, 54, 88
6, 24838, Note_off_c, 2, 54, 0
6, 24840, Note_on_c, 2, 59, 88
6, 24956, Note_off_c, 2, 59, 0
6, 24960, Note_on_c, 2, 60, 88
6, 25076, Note_off_c, 2, 60, 0
6, 25080, Note_on_c, 2, 62, 88
6, 25196, Note_off_c, 2, 62, 0
6, 25320, Note_on_c, 2, 59, 88
6, 25436, Note_off_c, 2, 59, 0
6, 25440, Note_on_c, 2, 57, 88
6, 25556, Note_off_c, 2, 57, 0
6, 25560, Note_on_c, 2, 55, 88
6, 25913, Note_off_c, 2, 55, 0
6, 25913, End_track
7, 0, Start_track
7, 0, Title_t, "Track 4"
7, 0, Program_c, 3, 6
7, 5100, Note_on_c, 3, 62, 88
7, 5158, Note_off_c, 3, 62, 0
7, 5160, Note_on_c, 3, 59, 88
7, 5218, Note_off_c, 3, 59, 0
7, 5220, Note_on_c, 3, 62, 88
7, 5278, Note_off_c, 3, 62, 0
7, 5280, Note_on_c, 3, 67, 88
7, 5338, Note_off_c, 3, 67, 0
7, 5340, Note_on_c, 3, 62, 88
7, 5398, Note_off_c, 3, 62, 0
7, 5400, Note_on_c, 3, 59, 88
7, 5458, Note_off_c, 3, 59, 0
7, 5460, Note_on_c, 3, 62, 88
7, 5518, Note_off_c, 3, 62, 0
7, 5520, Note_on_c, 3, 55, 88
7, 5578, Note_off_c, 3, 55, 0
7, 5580, Note_on_c, 3, 62, 88
7, 5638, Note_off_c, 3, 62, 0
7, 5640, Note_on_c, 3, 59, 88
7, 5698, Note_off_c, 3, 59, 0
7, 5700, Note_on_c, 3, 62, 88
7, 5758, Note_off_c, 3, 62, 0
7, 5760, Note_on_c, 3, 64, 88
7, 5818, Note_off_c, 3, 64, 0
7, 5820, Note_on_c, 3, 60, 88
7, 5878, Note_off_c, 3, 60, 0
7, 5880, Note_on_c, 3, 57, 88
7, 5938, Note_off_c, 3, 57, 0
7, 5940, Note_on_c, 3, 60, 88
7, 5998, Note_off_c, 3, 60, 0
7, 6000, Note_on_c, 3, 54, 88
7, 6058, Note_off_c, 3, 54, 0
7, 6060, Note_on_c, 3, 57, 88
7, 6118, Note_off_c, 3, 57, 0
7, 6120, Note_on_c, 3, 62, 88
7, 6178, Note_off_c, 3, 62, 0
7, 6180, Note_on_c, 3, 59, 88
7, 6238, Note_off_c, 3, 59, 0
7, 6240, Note_on_c, 3, 55, 88
7, 6298, Note_off_c, 3, 55, 0
7, 6300, Note_on_c, 3, 59, 88
7, 6358, Note_off_c, 3, 59, 0
7, 6360, Note_on_c, 3, 52, 88
7, 6418, Note_off_c, 3, 52, 0
7, 6420, Note_on_c, 3, 55, 88
7, 6478, Note_off_c, 3, 55, 0
7, 6480, Note_on_c, 3, 60, 88
7, 6538, Note_off_c, 3, 60, 0
7, 6540, Note_on_c, 3, 57, 88
7, 6598, Note_off_c, 3, 57, 0
7, 6600, Note_on_c, 3, 54, 88
7, 6658, Note_off_c, 3, 54, 0
7, 6660, Note_on_c, 3, 57, 88
7, 6718, Note_off_c, 3, 57, 0
7, 6720, Note_on_c, 3, 50, 88
7, 6778, Note_off_c, 3, 50, 0
7, 6780, Note_on_c, 3, 54, 88
7, 6838, Note_off_c, 3, 54, 0
7, 6840, Note_on_c, 3, 59, 88
7, 6898, Note_off_c, 3, 59, 0
7, 6900, Note_on_c, 3, 57, 88
7, 6958, Note_off_c, 3, 57, 0
7, 6960, Note_on_c, 3, 55, 88
7, 7018, Note_off_c, 3, 55, 0
7, 7020, Note_on_c, 3, 57, 88
7, 7078, Note_off_c, 3, 57, 0
7, 7080, Note_on_c, 3, 59, 88
7, 7138, Note_off_c, 3, 59, 0
7, 7140, Note_on_c, 3, 61, 88
7, 7198, Note_off_c, 3, 61, 0
7, 7200, Note_on_c, 3, 62, 88
7, 7258, Note_off_c, 3, 62, 0
7, 7260, Note_on_c, 3, 61, 88
7, 7318, Note_off_c, 3, 61, 0
7, 7320, Note_on_c, 3, 59, 88
7, 7378, Note_off_c, 3, 59, 0
7, 7380, Note_on_c, 3, 57, 88
7, 7438, Note_off_c, 3, 57, 0
7, 7440, Note_on_c, 3, 55, 88
7, 7498, Note_off_c, 3, 55, 0
7, 7500, Note_on_c, 3, 54, 88
7, 7558, Note_off_c, 3, 54, 0
7, 7560, Note_on_c, 3, 55, 88
7, 7618, Note_off_c, 3, 55, 0
7, 7620, Note_on_c, 3, 52, 88
7, 7678, Note_off_c, 3, 52, 0
7, 7680, Note_on_c, 3, 57, 88
7, 7738, Note_off_c, 3, 57, 0
7, 7740, Note_on_c, 3, 55, 88
7, 7798, Note_off_c, 3, 55, 0
7, 7800, Note_on_c, 3, 54, 88
7, 7858, Note_off_c, 3, 54, 0
7, 7860, Note_on_c, 3, 52, 88
7, 7918, Note_off_c, 3, 52, 0
7, 7920, Note_on_c, 3, 50, 88
7, 7978, Note_off_c, 3, 50, 0
7, 7980, Note_on_c, 3, 57, 88
7, 8038, Note_off_c, 3, 57, 0
7, 8040, Note_on_c, 3, 54, 88
7, 8098, Note_off_c, 3, 54, 0
7, 8100, Note_on_c, 3, 57, 88
7, 8158, Note_off_c, 3, 57, 0
7, 8160, Note_on_c, 3, 62, 88
7, 8218, Note_off_c, 3, 62, 0
7, 8220, Note_on_c, 3, 57, 88
7, 8278, Note_off_c, 3, 57, 0
7, 8280, Note_on_c, 3, 54, 88
7, 8338, Note_off_c, 3, 54, 0
7, 8340, Note_on_c, 3, 57, 88
7, 8398, Note_off_c, 3, 57, 0
7, 8400, Note_on_c, 3, 50, 88
7, 8458, Note_off_c, 3, 50, 0
7, 8460, Note_on_c, 3, 57, 88
7, 8518, Note_off_c, 3, 57, 0
7, 8520, Note_on_c, 3, 54, 88
7, 8578, Note_off_c, 3, 54, 0
7, 8580, Note_on_c, 3, 57, 88
7, 8638, Note_off_c, 3, 57, 0
7, 8640, Note_on_c, 3, 59, 88
7, 8756, Note_off_c, 3, 59, 0
7, 9120, Note_on_c, 3, 59, 88
7, 9236, Note_off_c, 3, 59, 0
7, 9240, Note_on_c, 3, 57, 88
7, 9356, Note_off_c, 3, 57, 0
7, 9360, Note_on_c, 3, 56, 88
7, 9418, Note_off_c, 3, 56, 0
7, 9420, Note_on_c, 3, 59, 88
7, 9478, Note_off_c, 3, 59, 0
7, 9480, Note_on_c, 3, 56, 88
7, 9538, Note_off_c, 3, 56, 0
7, 9540, Note_on_c, 3, 59, 88
7, 9598, Note_off_c, 3, 59, 0
7, 9600, Note_on_c, 3, 64, 88
7, 9658, Note_off_c, 3, 64, 0
7, 9660, Note_on_c, 3, 59, 88
7, 9718, Note_off_c, 3, 59, 0
7, 9720, Note_on_c, 3, 56, 88
7, 9778, Note_off_c, 3, 56, 0
7, 9780, Note_on_c, 3, 59, 88
7, 9838, Note_off_c, 3, 59, 0
7, 9840, Note_on_c, 3, 52, 88
7, 9898, Note_off_c, 3, 52, 0
7, 9900, Note_on_c, 3, 59, 88
7, 9958, Note_off_c, 3, 59, 0
7, 9960, Note_on_c, 3, 56, 88
7, 10018, Note_off_c, 3, 56, 0
7, 10020, Note_on_c, 3, 59, 88
7, 10078, Note_off_c, 3, 59, 0
7, 10080, Note_on_c, 3, 60, 88
7, 10196, Note_off_c, 3, 60, 0
7, 10560, Note_on_c, 3, 54, 88
7, 10676, Note_off_c, 3, 54, 0
7, 10680, Note_on_c, 3, 52, 88
7, 10796, Note_off_c, 3, 52, 0
7, 10800, Note_on_c, 3, 51, 88
7, 10858, Note_off_c, 3, 51, 0
7, 10860, Note_on_c, 3, 54, 88
7, 10918, Note_off_c, 3, 54, 0
7, 10920, Note_on_c, 3, 51, 88
7, 10978, Note_off_c, 3, 51, 0
7, 10980, Note_on_c, 3, 54, 88
7, 11038, Note_off_c, 3, 54, 0
7, 11040, Note_on_c, 3, 59, 88
7, 11098, Note_off_c, 3, 59, 0
7, 11100, Note_on_c, 3, 54, 88
7, 11158, Note_off_c, 3, 54, 0
7, 11160, Note_on_c, 3, 51, 88
7, 11218, Note_off_c, 3, 51, 0
7, 11220, Note_on_c, 3, 54, 88
7, 11278, Note_off_c, 3, 54, 0
7, 11280, Note_on_c, 3, 47, 88
7, 11338, Note_off_c, 3, 47, 0
7, 11340, Note_on_c, 3, 54, 88
7, 11398, Note_off_c, 3, 54, 0
7, 11400, Note_on_c, 3, 51, 88
7, 11458, Note_off_c, 3, 51, 0
7, 11460, Note_on_c, 3, 54, 88
7, 11518, Note_off_c, 3, 54, 0
7, 11520, Note_on_c, 3, 55, 88
7, 11578, Note_off_c, 3, 55, 0
7, 11580, Note_on_c, 3, 59, 88
7, 11638, Note_off_c, 3, 59, 0
7, 11640, Note_on_c, 3, 55, 88
7, 11698, Note_off_c, 3, 55, 0
7, 11700, Note_on_c, 3, 59, 88
7, 11758, Note_off_c, 3, 59, 0
7, 11760, Note_on_c, 3, 64, 88
7, 11818, Note_off_c, 3, 64, 0
7, 11820, Note_on_c, 3, 59, 88
7, 11878, Note_off_c, 3, 59, 0
7, 11880, Note_on_c, 3, 55, 88
7, 11938, Note_off_c, 3, 55, 0
7, 11940, Note_on_c, 3, 59, 88
7, 11998, Note_off_c, 3, 59, 0
7, 12000, Note_on_c, 3, 52, 88
7, 12058, Note_off_c, 3, 52, 0
7, 12060, Note_on_c, 3, 59, 88
7, 12118, Note_off_c, 3, 59, 0
7, 12120, Note_on_c, 3, 55, 88
7, 12178, Note_off_c, 3, 55, 0
7, 12180, Note_on_c, 3, 59, 88
7, 12238, Note_off_c, 3, 59, 0
7, 12240, Note_on_c, 3, 60, 88
7, 12298, Note_off_c, 3, 60, 0
7, 12300, Note_on_c, 3, 57, 88
7, 12358, Note_off_c, 3, 57, 0
7, 12360, Note_on_c, 3, 54, 88
7, 12418, Note_off_c, 3, 54, 0
7, 12420, Note_on_c, 3, 57, 88
7, 12478, Note_off_c, 3, 57, 0
7, 12480, Note_on_c, 3, 50, 88
7, 12538, Note_off_c, 3, 50, 0
7, 12540, Note_on_c, 3, 54, 88
7, 12598, Note_off_c, 3, 54, 0
7, 12600, Note_on_c, 3, 59, 88
7, 12658, Note_off_c, 3, 59, 0
7, 12660, Note_on_c, 3, 55, 88
7, 12718, Note_off_c, 3, 55, 0
7, 12720, Note_on_c, 3, 52, 88
7, 12778, Note_off_c, 3, 52, 0
7, 12780, Note_on_c, 3, 55, 88
7, 12838, Note_off_c, 3, 55, 0
7, 12840, Note_on_c, 3, 48, 88
7, 12898, Note_off_c, 3, 48, 0
7, 12900, Note_on_c, 3, 52, 88
7, 12958, Note_off_c, 3, 52, 0
7, 12960, Note_on_c, 3, 57, 88
7, 13018, Note_off_c, 3, 57, 0
7, 13020, Note_on_c, 3, 54, 88
7, 13078, Note_off_c, 3, 54, 0
7, 13080, Note_on_c, 3, 51, 88
7, 13138, Note_off_c, 3, 51, 0
7, 13140, Note_on_c, 3, 54, 88
7, 13198, Note_off_c, 3, 54, 0
7, 13200, Note_on_c, 3, 47, 88
7, 13258, Note_off_c, 3, 47, 0
7, 13260, Note_on_c, 3, 51, 88
7, 13318, Note_off_c, 3, 51, 0
7, 13320, Note_on_c, 3, 55, 88
7, 13378, Note_off_c, 3, 55, 0
7, 13380, Note_on_c, 3, 54, 88
7, 13438, Note_off_c, 3, 54, 0
7, 13440, Note_on_c, 3, 52, 88
7, 13498, Note_off_c, 3, 52, 0
7, 13500, Note_on_c, 3, 54, 88
7, 13558, Note_off_c, 3, 54, 0
7, 13560, Note_on_c, 3, 55, 88
7, 13618, Note_off_c, 3, 55, 0
7, 13620, Note_on_c, 3, 57, 88
7, 13678, Note_off_c, 3, 57, 0
7, 13680, Note_on_c, 3, 59, 88
7, 13738, Note_off_c, 3, 59, 0
7, 13740, Note_on_c, 3, 54, 88
7, 13798, Note_off_c, 3, 54, 0
7, 13800, Note_on_c, 3, 56, 88
7, 13858, Note_off_c, 3, 56, 0
7, 13860, Note_on_c, 3, 58, 88
7, 13918, Note_off_c, 3, 58, 0
7, 13920, Note_on_c, 3, 59, 88
7, 13978, Note_off_c, 3, 59, 0
7, 13980, Note_on_c, 3, 61, 88
7, 14038, Note_off_c, 3, 61, 0
7, 14040, Note_on_c, 3, 62, 88
7, 14098, Note_off_c, 3, 62, 0
7, 14100, Note_on_c, 3, 61, 88
7, 14158, Note_off_c, 3, 61, 0
7, 14160, Note_on_c, 3, 59, 88
7, 14218, Note_off_c, 3, 59, 0
7, 14220, Note_on_c, 3, 61, 88
7, 14278, Note_off_c, 3, 61, 0
7, 14280, Note_on_c, 3, 62, 88
7, 14338, Note_off_c, 3, 62, 0
7, 14340, Note_on_c, 3, 64, 88
7, 14398, Note_off_c, 3, 64, 0
7, 14400, Note_on_c, 3, 66, 88
7, 14458, Note_off_c, 3, 66, 0
7, 14460, Note_on_c, 3, 64, 88
7, 14518, Note_off_c, 3, 64, 0
7, 14520, Note_on_c, 3, 62, 88
7, 14818, Note_off_c, 3, 62, 0
7, 14820, Note_on_c, 3, 55, 88
7, 14878, Note_off_c, 3, 55, 0
7, 14880, Note_on_c, 3, 57, 88
7, 14938, Note_off_c, 3, 57, 0
7, 14940, Note_on_c, 3, 61, 88
7, 15178, Note_off_c, 3, 61, 0
7, 15180, Note_on_c, 3, 54, 88
7, 15238, Note_off_c, 3, 54, 0
7, 15240, Note_on_c, 3, 55, 88
7, 15298, Note_off_c, 3, 55, 0
7, 15300, Note_on_c, 3, 59, 88
7, 15538, Note_off_c, 3, 59, 0
7, 15540, Note_on_c, 3, 52, 88
7, 15598, Note_off_c, 3, 52, 0
7, 15600, Note_on_c, 3, 54, 88
7, 15658, Note_off_c, 3, 54, 0
7, 15660, Note_on_c, 3, 58, 88
7, 15776, Note_off_c, 3, 58, 0
7, 15780, Note_on_c, 3, 54, 88
7, 15838, Note_off_c, 3, 54, 0
7, 15840, Note_on_c, 3, 59, 88
7, 15956, Note_off_c, 3, 59, 0
7, 15960, Note_on_c, 3, 47, 88
7, 16076, Note_off_c, 3, 47, 0
7, 16320, Note_on_c, 3, 50, 88
7, 16436, Note_off_c, 3, 50, 0
7, 16440, Note_on_c, 3, 47, 88
7, 16556, Note_off_c, 3, 47, 0
7, 16560, Note_on_c, 3, 52, 88
7, 16676, Note_off_c, 3, 52, 0
7, 16680, Note_on_c, 3, 40, 88
7, 16796, Note_off_c, 3, 40, 0
7, 17040, Note_on_c, 3, 56, 88
7, 17156, Note_off_c, 3, 56, 0
7, 17160, Note_on_c, 3, 52, 88
7, 17218, Note_off_c, 3, 52, 0
7, 17220, Note_on_c, 3, 62, 88
7, 17278, Note_off_c, 3, 62, 0
7, 17280, Note_on_c, 3, 60, 88
7, 17338, Note_off_c, 3, 60, 0
7, 17340, Note_on_c, 3, 64, 88
7, 17398, Note_off_c, 3, 64, 0
7, 17400, Note_on_c, 3, 57, 88
7, 17458, Note_off_c, 3, 57, 0
7, 17460, Note_on_c, 3, 60, 88
7, 17518, Note_off_c, 3, 60, 0
7, 17520, Note_on_c, 3, 64, 88
7, 17578, Note_off_c, 3, 64, 0
7, 17580, Note_on_c, 3, 60, 88
7, 17638, Note_off_c, 3, 60, 0
7, 17640, Note_on_c, 3, 57, 88
7, 17698, Note_off_c, 3, 57, 0
7, 17700, Note_on_c, 3, 60, 88
7, 17758, Note_off_c, 3, 60, 0
7, 17760, Note_on_c, 3, 52, 88
7, 17818, Note_off_c, 3, 52, 0
7, 17820, Note_on_c, 3, 57, 88
7, 17878, Note_off_c, 3, 57, 0
7, 17880, Note_on_c, 3, 60, 88
7, 17938, Note_off_c, 3, 60, 0
7, 17940, Note_on_c, 3, 55, 88
7, 17998, Note_off_c, 3, 55, 0
7, 18000, Note_on_c, 3, 54, 88
7, 18058, Note_off_c, 3, 54, 0
7, 18060, Note_on_c, 3, 57, 88
7, 18118, Note_off_c, 3, 57, 0
7, 18120, Note_on_c, 3, 50, 88
7, 18178, Note_off_c, 3, 50, 0
7, 18180, Note_on_c, 3, 54, 88
7, 18238, Note_off_c, 3, 54, 0
7, 18240, Note_on_c, 3, 57, 88
7, 18298, Note_off_c, 3, 57, 0
7, 18300, Note_on_c, 3, 54, 88
7, 18358, Note_off_c, 3, 54, 0
7, 18360, Note_on_c, 3, 50, 88
7, 18418, Note_off_c, 3, 50, 0
7, 18420, Note_on_c, 3, 54, 88
7, 18478, Note_off_c, 3, 54, 0
7, 18480, Note_on_c, 3, 45, 88
7, 18538, Note_off_c, 3, 45, 0
7, 18540, Note_on_c, 3, 50, 88
7, 18598, Note_off_c, 3, 50, 0
7, 18600, Note_on_c, 3, 54, 88
7, 18658, Note_off_c, 3, 54, 0
7, 18660, Note_on_c, 3, 48, 88
7, 18718, Note_off_c, 3, 48, 0
7, 18720, Note_on_c, 3, 47, 88
7, 18778, Note_off_c, 3, 47, 0
7, 18780, Note_on_c, 3, 50, 88
7, 18838, Note_off_c, 3, 50, 0
7, 18840, Note_on_c, 3, 43, 88
7, 18898, Note_off_c, 3, 43, 0
7, 18900, Note_on_c, 3, 47, 88
7, 18958, Note_off_c, 3, 47, 0
7, 18960, Note_on_c, 3, 50, 88
7, 19018, Note_off_c, 3, 50, 0
7, 19020, Note_on_c, 3, 47, 88
7, 19078, Note_off_c, 3, 47, 0
7, 19080, Note_on_c, 3, 43, 88
7, 19138, Note_off_c, 3, 43, 0
7, 19140, Note_on_c, 3, 47, 88
7, 19198, Note_off_c, 3, 47, 0
7, 19200, Note_on_c, 3, 38, 88
7, 19258, Note_off_c, 3, 38, 0
7, 19260, Note_on_c, 3, 43, 88
7, 19318, Note_off_c, 3, 43, 0
7, 19320, Note_on_c, 3, 47, 88
7, 19378, Note_off_c, 3, 47, 0
7, 19380, Note_on_c, 3, 41, 88
7, 19438, Note_off_c, 3, 41, 0
7, 19440, Note_on_c, 3, 40, 88
7, 19498, Note_off_c, 3, 40, 0
7, 19500, Note_on_c, 3, 43, 88
7, 19558, Note_off_c, 3, 43, 0
7, 19560, Note_on_c, 3, 36, 88
7, 19618, Note_off_c, 3, 36, 0
7, 19620, Note_on_c, 3, 38, 88
7, 19678, Note_off_c, 3, 38, 0
7, 19680, Note_on_c, 3, 40, 88
7, 19738, Note_off_c, 3, 40, 0
7, 19740, Note_on_c, 3, 36, 88
7, 19798, Note_off_c, 3, 36, 0
7, 19800, Note_on_c, 3, 38, 88
7, 19916, Note_off_c, 3, 38, 0
7, 19920, Note_on_c, 3, 50, 88
7, 20021, Note_off_c, 3, 50, 0
7, 20040, Note_on_c, 3, 50, 88
7, 20156, Note_off_c, 3, 50, 0
7, 20160, Note_on_c, 3, 50, 88
7, 20621, Note_off_c, 3, 50, 0
7, 20640, Note_on_c, 3, 50, 88
7, 20741, Note_off_c, 3, 50, 0
7, 20760, Note_on_c, 3, 50, 88
7, 20876, Note_off_c, 3, 50, 0
7, 20880, Note_on_c, 3, 52, 88
7, 20902, Note_off_c, 3, 52, 0
7, 20903, Note_on_c, 3, 50, 88
7, 20924, Note_off_c, 3, 50, 0
7, 20925, Note_on_c, 3, 52, 88
7, 20947, Note_off_c, 3, 52, 0
7, 20948, Note_on_c, 3, 50, 88
7, 20969, Note_off_c, 3, 50, 0
7, 20970, Note_on_c, 3, 52, 88
7, 20992, Note_off_c, 3, 52, 0
7, 20993, Note_on_c, 3, 50, 88
7, 21014, Note_off_c, 3, 50, 0
7, 21015, Note_on_c, 3, 52, 88
7, 21037, Note_off_c, 3, 52, 0
7, 21038, Note_on_c, 3, 50, 88
7, 21059, Note_off_c, 3, 50, 0
7, 21060, Note_on_c, 3, 52, 88
7, 21082, Note_off_c, 3, 52, 0
7, 21083, Note_on_c, 3, 50, 88
7, 21101, Note_off_c, 3, 50, 0
7, 21101, Note_on_c, 3, 52, 88
7, 21119, Note_off_c, 3, 52, 0
7, 21120, Note_on_c, 3, 50, 88
7, 21138, Note_off_c, 3, 50, 0
7, 21139, Note_on_c, 3, 52, 88
7, 21157, Note_off_c, 3, 52, 0
7, 21158, Note_on_c, 3, 50, 88
7, 21179, Note_off_c, 3, 50, 0
7, 21180, Note_on_c, 3, 49, 88
7, 21209, Note_off_c, 3, 49, 0
7, 21210, Note_on_c, 3, 50, 88
7, 21239, Note_off_c, 3, 50, 0
7, 21240, Note_on_c, 3, 52, 88
7, 21356, Note_off_c, 3, 52, 0
7, 21360, Note_on_c, 3, 38, 88
7, 21360, Note_on_c, 3, 43, 88
7, 21360, Note_on_c, 3, 46, 88
7, 21461, Note_off_c, 3, 38, 0
7, 21461, Note_off_c, 3, 43, 0
7, 21461, Note_off_c, 3, 46, 0
7, 21480, Note_on_c, 3, 38, 88
7, 21480, Note_on_c, 3, 43, 88
7, 21480, Note_on_c, 3, 46, 88
7, 21596, Note_off_c, 3, 38, 0
7, 21596, Note_off_c, 3, 43, 0
7, 21596, Note_off_c, 3, 46, 0
7, 21600, Note_on_c, 3, 38, 88
7, 21716, Note_off_c, 3, 38, 0
7, 22140, Note_on_c, 3, 38, 88
7, 22169, Note_off_c, 3, 38, 0
7, 22170, Note_on_c, 3, 40, 88
7, 22199, Note_off_c, 3, 40, 0
7, 22200, Note_on_c, 3, 42, 88
7, 22229, Note_off_c, 3, 42, 0
7, 22230, Note_on_c, 3, 43, 88
7, 22259, Note_off_c, 3, 43, 0
7, 22260, Note_on_c, 3, 45, 88
7, 22289, Note_off_c, 3, 45, 0
7, 22290, Note_on_c, 3, 47, 88
7, 22319, Note_off_c, 3, 47, 0
7, 22320, Note_on_c, 3, 48, 88
7, 22349, Note_off_c, 3, 48, 0
7, 22350, Note_on_c, 3, 45, 88
7, 22379, Note_off_c, 3, 45, 0
7, 22380, Note_on_c, 3, 47, 88
7, 22409, Note_off_c, 3, 47, 0
7, 22410, Note_on_c, 3, 48, 88
7, 22439, Note_off_c, 3, 48, 0
7, 22440, Note_on_c, 3, 50, 88
7, 22469, Note_off_c, 3, 50, 0
7, 22470, Note_on_c, 3, 52, 88
7, 22499, Note_off_c, 3, 52, 0
7, 22500, Note_on_c, 3, 54, 88
7, 22529, Note_off_c, 3, 54, 0
7, 22530, Note_on_c, 3, 55, 88
7, 22559, Note_off_c, 3, 55, 0
7, 22560, Note_on_c, 3, 57, 88
7, 22589, Note_off_c, 3, 57, 0
7, 22590, Note_on_c, 3, 54, 88
7, 22619, Note_off_c, 3, 54, 0
7, 22620, Note_on_c, 3, 55, 88
7, 22649, Note_off_c, 3, 55, 0
7, 22650, Note_on_c, 3, 57, 88
7, 22679, Note_off_c, 3, 57, 0
7, 22800, Note_on_c, 3, 50, 88
7, 22916, Note_off_c, 3, 50, 0
7, 22920, Note_on_c, 3, 48, 88
7, 23036, Note_off_c, 3, 48, 0
7, 23040, Note_on_c, 3, 47, 88
7, 23156, Note_off_c, 3, 47, 0
7, 23160, Note_on_c, 3, 59, 88
7, 23276, Note_off_c, 3, 59, 0
7, 23640, Note_on_c, 3, 55, 88
7, 23756, Note_off_c, 3, 55, 0
7, 23760, Note_on_c, 3, 48, 88
7, 23876, Note_off_c, 3, 48, 0
7, 24000, Note_on_c, 3, 45, 88
7, 24116, Note_off_c, 3, 45, 0
7, 24120, Note_on_c, 3, 47, 88
7, 24236, Note_off_c, 3, 47, 0
7, 24360, Note_on_c, 3, 43, 88
7, 24476, Note_off_c, 3, 43, 0
7, 24480, Note_on_c, 3, 45, 88
7, 24596, Note_off_c, 3, 45, 0
7, 24720, Note_on_c, 3, 50, 88
7, 24836, Note_off_c, 3, 50, 0
7, 24840, Note_on_c, 3, 55, 88
7, 24956, Note_off_c, 3, 55, 0
7, 24960, Note_on_c, 3, 57, 88
7, 25076, Note_off_c, 3, 57, 0
7, 25080, Note_on_c, 3, 59, 88
7, 25196, Note_off_c, 3, 59, 0
7, 25320, Note_on_c, 3, 48, 88
7, 25436, Note_off_c, 3, 48, 0
7, 25440, Note_on_c, 3, 50, 88
7, 25556, Note_off_c, 3, 50, 0
7, 25560, Note_on_c, 3, 43, 88
7, 25913, Note_off_c, 3, 43, 0
7, 25913, End_track
0, 0, End_of_file
