0, 0, Header, 1, 7, 240
1, 0, Start_track
1, 0, Time_signature, 3, 2, 24, 8
1, 0, Tempo, 833333
1, 0, SMPTE_offset, 64, 0, 0, 0, 93
1, 0, End_track
2, 0, Start_track
2, 0, Title_t, "(C) & (P) 1993"
2, 127, End_track
3, 0, Start_track
3, 0, Title_t, "CCARH,Stanford"
3, 0, End_track
4, 0, Start_track
4, 0, Title_t, "Track 1"
4, 0, Program_c, 0, 6
4, 6000, Note_on_c, 0, 74, 88
4, 6234, Note_off_c, 0, 74, 0
4, 6360, Note_on_c, 0, 70, 88
4, 6476, Note_off_c, 0, 70, 0
4, 6480, Note_on_c, 0, 75, 88
4, 6714, Note_off_c, 0, 75, 0
4, 6720, Note_on_c, 0, 72, 88
4, 6954, Note_off_c, 0, 72, 0
4, 7080, Note_on_c, 0, 69, 88
4, 7196, Note_off_c, 0, 69, 0
4, 7200, Note_on_c, 0, 74, 88
4, 7434, Note_off_c, 0, 74, 0
4, 7440, Note_on_c, 0, 70, 88
4, 7674, Note_off_c, 0, 70, 0
4, 7800, Note_on_c, 0, 67, 88
4, 7916, Note_off_c, 0, 67, 0
4, 7920, Note_on_c, 0, 72, 88
4, 8022, Note_off_c, 0, 72, 0
4, 8040, Note_on_c, 0, 72, 88
4, 8142, Note_off_c, 0, 72, 0
4, 8160, Note_on_c, 0, 72, 88
4, 8262, Note_off_c, 0, 72, 0
4, 8280, Note_on_c, 0, 72, 88
4, 8382, Note_off_c, 0, 72, 0
4, 8400, Note_on_c, 0, 72, 88
4, 8502, Note_off_c, 0, 72, 0
4, 8520, Note_on_c, 0, 72, 88
4, 8636, Note_off_c, 0, 72, 0
4, 8640, Note_on_c, 0, 72, 88
4, 8756, Note_off_c, 0, 72, 0
4, 8760, Note_on_c, 0, 70, 88
4, 8818, Note_off_c, 0, 70, 0
4, 8820, Note_on_c, 0, 69, 88
4, 8878, Note_off_c, 0, 69, 0
4, 8880, Note_on_c, 0, 70, 88
4, 8938, Note_off_c, 0, 70, 0
4, 8940, Note_on_c, 0, 67, 88
4, 8998, Note_off_c, 0, 67, 0
4, 9000, Note_on_c, 0, 70, 88
4, 9058, Note_off_c, 0, 70, 0
4, 9060, Note_on_c, 0, 72, 88
4, 9118, Note_off_c, 0, 72, 0
4, 9120, Note_on_c, 0, 74, 88
4, 9178, Note_off_c, 0, 74, 0
4, 9180, Note_on_c, 0, 73, 88
4, 9238, Note_off_c, 0, 73, 0
4, 9240, Note_on_c, 0, 74, 88
4, 9356, Note_off_c, 0, 74, 0
4, 9360, Note_on_c, 0, 74, 88
4, 9476, Note_off_c, 0, 74, 0
4, 9480, Note_on_c, 0, 67, 88
4, 9596, Note_off_c, 0, 67, 0
4, 9660, Note_on_c, 0, 67, 88
4, 9718, Note_off_c, 0, 67, 0
4, 9720, Note_on_c, 0, 69, 88
4, 9778, Note_off_c, 0, 69, 0
4, 9780, Note_on_c, 0, 70, 88
4, 9838, Note_off_c, 0, 70, 0
4, 9840, Note_on_c, 0, 72, 88
4, 9898, Note_off_c, 0, 72, 0
4, 9900, Note_on_c, 0, 70, 88
4, 9958, Note_off_c, 0, 70, 0
4, 9960, Note_on_c, 0, 72, 88
4, 10076, Note_off_c, 0, 72, 0
4, 10080, Note_on_c, 0, 72, 88
4, 10196, Note_off_c, 0, 72, 0
4, 10200, Note_on_c, 0, 65, 88
4, 10316, Note_off_c, 0, 65, 0
4, 10380, Note_on_c, 0, 65, 88
4, 10438, Note_off_c, 0, 65, 0
4, 10440, Note_on_c, 0, 67, 88
4, 10498, Note_off_c, 0, 67, 0
4, 10500, Note_on_c, 0, 69, 88
4, 10558, Note_off_c, 0, 69, 0
4, 10560, Note_on_c, 0, 70, 88
4, 10618, Note_off_c, 0, 70, 0
4, 10620, Note_on_c, 0, 69, 88
4, 10678, Note_off_c, 0, 69, 0
4, 10680, Note_on_c, 0, 70, 88
4, 10858, Note_off_c, 0, 70, 0
4, 10860, Note_on_c, 0, 69, 88
4, 10918, Note_off_c, 0, 69, 0
4, 10920, Note_on_c, 0, 70, 88
4, 10978, Note_off_c, 0, 70, 0
4, 10980, Note_on_c, 0, 69, 88
4, 11038, Note_off_c, 0, 69, 0
4, 11040, Note_on_c, 0, 67, 88
4, 11098, Note_off_c, 0, 67, 0
4, 11100, Note_on_c, 0, 65, 88
4, 11158, Note_off_c, 0, 65, 0
4, 11160, Note_on_c, 0, 67, 88
4, 11218, Note_off_c, 0, 67, 0
4, 11220, Note_on_c, 0, 65, 88
4, 11278, Note_off_c, 0, 65, 0
4, 11280, Note_on_c, 0, 64, 88
4, 11338, Note_off_c, 0, 64, 0
4, 11340, Note_on_c, 0, 62, 88
4, 11398, Note_off_c, 0, 62, 0
4, 11400, Note_on_c, 0, 64, 88
4, 11458, Note_off_c, 0, 64, 0
4, 11460, Note_on_c, 0, 62, 88
4, 11518, Note_off_c, 0, 62, 0
4, 11520, Note_on_c, 0, 61, 88
4, 11636, Note_off_c, 0, 61, 0
4, 11640, Note_on_c, 0, 69, 88
4, 11756, Note_off_c, 0, 69, 0
4, 11760, Note_on_c, 0, 62, 88
4, 11876, Note_off_c, 0, 62, 0
4, 11880, Note_on_c, 0, 72, 88
4, 11996, Note_off_c, 0, 72, 0
4, 12000, Note_on_c, 0, 71, 88
4, 12058, Note_off_c, 0, 71, 0
4, 12060, Note_on_c, 0, 74, 88
4, 12118, Note_off_c, 0, 74, 0
4, 12120, Note_on_c, 0, 77, 88
4, 12236, Note_off_c, 0, 77, 0
4, 12240, Note_on_c, 0, 75, 88
4, 12474, Note_off_c, 0, 75, 0
4, 12900, Note_on_c, 0, 81, 88
4, 12958, Note_off_c, 0, 81, 0
4, 12960, Note_on_c, 0, 82, 88
4, 13135, Note_off_c, 0, 82, 0
4, 13140, Note_on_c, 0, 81, 88
4, 13198, Note_off_c, 0, 81, 0
4, 13200, Note_on_c, 0, 79, 88
4, 13258, Note_off_c, 0, 79, 0
4, 13260, Note_on_c, 0, 78, 88
4, 13318, Note_off_c, 0, 78, 0
4, 13320, Note_on_c, 0, 79, 88
4, 13378, Note_off_c, 0, 79, 0
4, 13380, Note_on_c, 0, 78, 88
4, 13438, Note_off_c, 0, 78, 0
4, 13440, Note_on_c, 0, 79, 88
4, 13914, Note_off_c, 0, 79, 0
4, 13920, Note_on_c, 0, 78, 88
4, 14095, Note_off_c, 0, 78, 0
4, 14100, Note_on_c, 0, 81, 88
4, 14158, Note_off_c, 0, 81, 0
4, 14160, Note_on_c, 0, 74, 88
4, 14335, Note_off_c, 0, 74, 0
4, 14340, Note_on_c, 0, 72, 88
4, 14398, Note_off_c, 0, 72, 0
4, 14400, Note_on_c, 0, 70, 88
4, 14870, Note_off_c, 0, 70, 0
4, 14880, Note_on_c, 0, 69, 88
4, 15162, Note_off_c, 0, 69, 0
4, 15180, Note_on_c, 0, 69, 88
4, 15238, Note_off_c, 0, 69, 0
4, 15240, Note_on_c, 0, 70, 88
4, 15298, Note_off_c, 0, 70, 0
4, 15300, Note_on_c, 0, 69, 88
4, 15358, Note_off_c, 0, 69, 0
4, 15360, Note_on_c, 0, 67, 88
4, 15535, Note_off_c, 0, 67, 0
4, 15540, Note_on_c, 0, 66, 88
4, 15598, Note_off_c, 0, 66, 0
4, 15600, Note_on_c, 0, 67, 88
4, 16015, Note_off_c, 0, 67, 0
4, 16020, Note_on_c, 0, 70, 88
4, 16078, Note_off_c, 0, 70, 0
4, 16080, Note_on_c, 0, 69, 88
4, 16255, Note_off_c, 0, 69, 0
4, 16260, Note_on_c, 0, 72, 88
4, 16318, Note_off_c, 0, 72, 0
4, 16320, Note_on_c, 0, 66, 88
4, 16495, Note_off_c, 0, 66, 0
4, 16500, Note_on_c, 0, 69, 88
4, 16558, Note_off_c, 0, 69, 0
4, 16560, Note_on_c, 0, 62, 88
4, 16735, Note_off_c, 0, 62, 0
4, 16740, Note_on_c, 0, 66, 88
4, 16798, Note_off_c, 0, 66, 0
4, 16800, Note_on_c, 0, 67, 88
4, 16916, Note_off_c, 0, 67, 0
4, 17220, Note_on_c, 0, 70, 88
4, 17322, Note_off_c, 0, 70, 0
4, 17340, Note_on_c, 0, 70, 88
4, 17398, Note_off_c, 0, 70, 0
4, 17400, Note_on_c, 0, 69, 88
4, 17458, Note_off_c, 0, 69, 0
4, 17460, Note_on_c, 0, 67, 88
4, 17518, Note_off_c, 0, 67, 0
4, 17520, Note_on_c, 0, 69, 88
4, 17562, Note_off_c, 0, 69, 0
4, 17580, Note_on_c, 0, 69, 88
4, 17638, Note_off_c, 0, 69, 0
4, 17640, Note_on_c, 0, 71, 88
4, 17698, Note_off_c, 0, 71, 0
4, 17700, Note_on_c, 0, 72, 88
4, 17758, Note_off_c, 0, 72, 0
4, 17760, Note_on_c, 0, 74, 88
4, 17818, Note_off_c, 0, 74, 0
4, 17820, Note_on_c, 0, 72, 88
4, 17878, Note_off_c, 0, 72, 0
4, 17880, Note_on_c, 0, 74, 88
4, 17996, Note_off_c, 0, 74, 0
4, 18000, Note_on_c, 0, 74, 88
4, 18116, Note_off_c, 0, 74, 0
4, 18120, Note_on_c, 0, 72, 88
4, 18178, Note_off_c, 0, 72, 0
4, 18180, Note_on_c, 0, 71, 88
4, 18238, Note_off_c, 0, 71, 0
4, 18240, Note_on_c, 0, 72, 88
4, 18474, Note_off_c, 0, 72, 0
4, 18660, Note_on_c, 0, 72, 88
4, 18762, Note_off_c, 0, 72, 0
4, 18780, Note_on_c, 0, 72, 88
4, 18838, Note_off_c, 0, 72, 0
4, 18840, Note_on_c, 0, 70, 88
4, 18898, Note_off_c, 0, 70, 0
4, 18900, Note_on_c, 0, 69, 88
4, 18958, Note_off_c, 0, 69, 0
4, 18960, Note_on_c, 0, 70, 88
4, 19018, Note_off_c, 0, 70, 0
4, 19020, Note_on_c, 0, 74, 88
4, 19078, Note_off_c, 0, 74, 0
4, 19080, Note_on_c, 0, 76, 88
4, 19138, Note_off_c, 0, 76, 0
4, 19140, Note_on_c, 0, 77, 88
4, 19198, Note_off_c, 0, 77, 0
4, 19200, Note_on_c, 0, 79, 88
4, 19258, Note_off_c, 0, 79, 0
4, 19260, Note_on_c, 0, 77, 88
4, 19318, Note_off_c, 0, 77, 0
4, 19320, Note_on_c, 0, 79, 88
4, 19556, Note_off_c, 0, 79, 0
4, 19560, Note_on_c, 0, 77, 88
4, 19618, Note_off_c, 0, 77, 0
4, 19620, Note_on_c, 0, 76, 88
4, 19678, Note_off_c, 0, 76, 0
4, 19680, Note_on_c, 0, 77, 88
4, 19738, Note_off_c, 0, 77, 0
4, 19740, Note_on_c, 0, 74, 88
4, 19798, Note_off_c, 0, 74, 0
4, 19800, Note_on_c, 0, 77, 88
4, 19858, Note_off_c, 0, 77, 0
4, 19860, Note_on_c, 0, 79, 88
4, 19918, Note_off_c, 0, 79, 0
4, 19920, Note_on_c, 0, 81, 88
4, 19978, Note_off_c, 0, 81, 0
4, 19980, Note_on_c, 0, 79, 88
4, 20038, Note_off_c, 0, 79, 0
4, 20040, Note_on_c, 0, 81, 88
4, 20156, Note_off_c, 0, 81, 0
4, 20160, Note_on_c, 0, 81, 88
4, 20276, Note_off_c, 0, 81, 0
4, 20280, Note_on_c, 0, 74, 88
4, 20396, Note_off_c, 0, 74, 0
4, 20460, Note_on_c, 0, 74, 88
4, 20518, Note_off_c, 0, 74, 0
4, 20520, Note_on_c, 0, 76, 88
4, 20578, Note_off_c, 0, 76, 0
4, 20580, Note_on_c, 0, 77, 88
4, 20638, Note_off_c, 0, 77, 0
4, 20640, Note_on_c, 0, 79, 88
4, 20698, Note_off_c, 0, 79, 0
4, 20700, Note_on_c, 0, 77, 88
4, 20758, Note_off_c, 0, 77, 0
4, 20760, Note_on_c, 0, 79, 88
4, 20876, Note_off_c, 0, 79, 0
4, 20880, Note_on_c, 0, 79, 88
4, 20996, Note_off_c, 0, 79, 0
4, 21000, Note_on_c, 0, 72, 88
4, 21116, Note_off_c, 0, 72, 0
4, 21180, Note_on_c, 0, 72, 88
4, 21238, Note_off_c, 0, 72, 0
4, 21240, Note_on_c, 0, 74, 88
4, 21298, Note_off_c, 0, 74, 0
4, 21300, Note_on_c, 0, 76, 88
4, 21358, Note_off_c, 0, 76, 0
4, 21360, Note_on_c, 0, 77, 88
4, 21418, Note_off_c, 0, 77, 0
4, 21420, Note_on_c, 0, 76, 88
4, 21478, Note_off_c, 0, 76, 0
4, 21480, Note_on_c, 0, 77, 88
4, 21762, Note_off_c, 0, 77, 0
4, 21780, Note_on_c, 0, 77, 88
4, 21838, Note_off_c, 0, 77, 0
4, 21840, Note_on_c, 0, 76, 88
4, 21898, Note_off_c, 0, 76, 0
4, 21900, Note_on_c, 0, 74, 88
4, 21958, Note_off_c, 0, 74, 0
4, 21960, Note_on_c, 0, 76, 88
4, 22018, Note_off_c, 0, 76, 0
4, 22020, Note_on_c, 0, 74, 88
4, 22078, Note_off_c, 0, 74, 0
4, 22080, Note_on_c, 0, 73, 88
4, 22138, Note_off_c, 0, 73, 0
4, 22140, Note_on_c, 0, 74, 88
4, 22198, Note_off_c, 0, 74, 0
4, 22200, Note_on_c, 0, 76, 88
4, 22436, Note_off_c, 0, 76, 0
4, 22440, Note_on_c, 0, 74, 88
4, 22556, Note_off_c, 0, 74, 0
4, 22560, Note_on_c, 0, 77, 88
4, 22794, Note_off_c, 0, 77, 0
4, 22920, Note_on_c, 0, 74, 88
4, 23036, Note_off_c, 0, 74, 0
4, 23040, Note_on_c, 0, 79, 88
4, 23274, Note_off_c, 0, 79, 0
4, 23280, Note_on_c, 0, 75, 88
4, 23514, Note_off_c, 0, 75, 0
4, 23640, Note_on_c, 0, 72, 88
4, 23756, Note_off_c, 0, 72, 0
4, 23760, Note_on_c, 0, 77, 88
4, 23994, Note_off_c, 0, 77, 0
4, 24000, Note_on_c, 0, 74, 88
4, 24234, Note_off_c, 0, 74, 0
4, 24360, Note_on_c, 0, 70, 88
4, 24476, Note_off_c, 0, 70, 0
4, 24480, Note_on_c, 0, 75, 88
4, 24582, Note_off_c, 0, 75, 0
4, 24600, Note_on_c, 0, 75, 88
4, 24702, Note_off_c, 0, 75, 0
4, 24720, Note_on_c, 0, 75, 88
4, 24822, Note_off_c, 0, 75, 0
4, 24840, Note_on_c, 0, 75, 88
4, 24942, Note_off_c, 0, 75, 0
4, 24960, Note_on_c, 0, 75, 88
4, 25062, Note_off_c, 0, 75, 0
4, 25080, Note_on_c, 0, 75, 88
4, 25196, Note_off_c, 0, 75, 0
4, 25200, Note_on_c, 0, 75, 88
4, 25316, Note_off_c, 0, 75, 0
4, 25320, Note_on_c, 0, 74, 88
4, 25378, Note_off_c, 0, 74, 0
4, 25380, Note_on_c, 0, 75, 88
4, 25438, Note_off_c, 0, 75, 0
4, 25440, Note_on_c, 0, 77, 88
4, 25498, Note_off_c, 0, 77, 0
4, 25500, Note_on_c, 0, 70, 88
4, 25558, Note_off_c, 0, 70, 0
4, 25560, Note_on_c, 0, 77, 88
4, 25618, Note_off_c, 0, 77, 0
4, 25620, Note_on_c, 0, 79, 88
4, 25678, Note_off_c, 0, 79, 0
4, 25680, Note_on_c, 0, 81, 88
4, 25738, Note_off_c, 0, 81, 0
4, 25740, Note_on_c, 0, 79, 88
4, 25798, Note_off_c, 0, 79, 0
4, 25800, Note_on_c, 0, 81, 88
4, 25916, Note_off_c, 0, 81, 0
4, 25920, Note_on_c, 0, 81, 88
4, 26036, Note_off_c, 0, 81, 0
4, 26040, Note_on_c, 0, 74, 88
4, 26156, Note_off_c, 0, 74, 0
4, 26220, Note_on_c, 0, 74, 88
4, 26278, Note_off_c, 0, 74, 0
4, 26280, Note_on_c, 0, 76, 88
4, 26338, Note_off_c, 0, 76, 0
4, 26340, Note_on_c, 0, 77, 88
4, 26398, Note_off_c, 0, 77, 0
4, 26400, Note_on_c, 0, 79, 88
4, 26458, Note_off_c, 0, 79, 0
4, 26460, Note_on_c, 0, 77, 88
4, 26518, Note_off_c, 0, 77, 0
4, 26520, Note_on_c, 0, 79, 88
4, 26636, Note_off_c, 0, 79, 0
4, 26640, Note_on_c, 0, 79, 88
4, 26756, Note_off_c, 0, 79, 0
4, 26760, Note_on_c, 0, 72, 88
4, 26876, Note_off_c, 0, 72, 0
4, 26940, Note_on_c, 0, 72, 88
4, 26998, Note_off_c, 0, 72, 0
4, 27000, Note_on_c, 0, 74, 88
4, 27058, Note_off_c, 0, 74, 0
4, 27060, Note_on_c, 0, 76, 88
4, 27118, Note_off_c, 0, 76, 0
4, 27120, Note_on_c, 0, 77, 88
4, 27178, Note_off_c, 0, 77, 0
4, 27180, Note_on_c, 0, 76, 88
4, 27238, Note_off_c, 0, 76, 0
4, 27240, Note_on_c, 0, 77, 88
4, 27418, Note_off_c, 0, 77, 0
4, 27420, Note_on_c, 0, 74, 88
4, 27478, Note_off_c, 0, 74, 0
4, 27480, Note_on_c, 0, 76, 88
4, 27538, Note_off_c, 0, 76, 0
4, 27540, Note_on_c, 0, 77, 88
4, 27598, Note_off_c, 0, 77, 0
4, 27600, Note_on_c, 0, 79, 88
4, 27658, Note_off_c, 0, 79, 0
4, 27660, Note_on_c, 0, 81, 88
4, 27718, Note_off_c, 0, 81, 0
4, 27720, Note_on_c, 0, 82, 88
4, 27778, Note_off_c, 0, 82, 0
4, 27780, Note_on_c, 0, 79, 88
4, 27838, Note_off_c, 0, 79, 0
4, 27840, Note_on_c, 0, 77, 88
4, 27898, Note_off_c, 0, 77, 0
4, 27900, Note_on_c, 0, 76, 88
4, 27958, Note_off_c, 0, 76, 0
4, 27960, Note_on_c, 0, 74, 88
4, 28018, Note_off_c, 0, 74, 0
4, 28020, Note_on_c, 0, 72, 88
4, 28078, Note_off_c, 0, 72, 0
4, 28080, Note_on_c, 0, 77, 88
4, 28196, Note_off_c, 0, 77, 0
4, 28200, Note_on_c, 0, 72, 88
4, 28316, Note_off_c, 0, 72, 0
4, 28320, Note_on_c, 0, 77, 88
4, 28436, Note_off_c, 0, 77, 0
4, 28440, Note_on_c, 0, 75, 88
4, 28498, Note_off_c, 0, 75, 0
4, 28500, Note_on_c, 0, 74, 88
4, 28558, Note_off_c, 0, 74, 0
4, 28560, Note_on_c, 0, 75, 88
4, 28676, Note_off_c, 0, 75, 0
4, 28680, Note_on_c, 0, 72, 88
4, 28796, Note_off_c, 0, 72, 0
4, 28800, Note_on_c, 0, 74, 88
4, 28916, Note_off_c, 0, 74, 0
4, 28920, Note_on_c, 0, 67, 88
4, 29036, Note_off_c, 0, 67, 0
4, 29040, Note_on_c, 0, 79, 88
4, 29156, Note_off_c, 0, 79, 0
4, 29160, Note_on_c, 0, 77, 88
4, 29218, Note_off_c, 0, 77, 0
4, 29220, Note_on_c, 0, 75, 88
4, 29278, Note_off_c, 0, 75, 0
4, 29280, Note_on_c, 0, 77, 88
4, 29396, Note_off_c, 0, 77, 0
4, 29400, Note_on_c, 0, 74, 88
4, 29516, Note_off_c, 0, 74, 0
4, 29520, Note_on_c, 0, 75, 88
4, 29636, Note_off_c, 0, 75, 0
4, 29640, Note_on_c, 0, 72, 88
4, 29756, Note_off_c, 0, 72, 0
4, 29760, Note_on_c, 0, 80, 88
4, 29876, Note_off_c, 0, 80, 0
4, 29880, Note_on_c, 0, 79, 88
4, 29938, Note_off_c, 0, 79, 0
4, 29940, Note_on_c, 0, 77, 88
4, 29998, Note_off_c, 0, 77, 0
4, 30000, Note_on_c, 0, 79, 88
4, 30116, Note_off_c, 0, 79, 0
4, 30120, Note_on_c, 0, 75, 88
4, 30236, Note_off_c, 0, 75, 0
4, 30240, Note_on_c, 0, 77, 88
4, 30771, Note_off_c, 0, 77, 0
4, 30780, Note_on_c, 0, 75, 88
4, 30838, Note_off_c, 0, 75, 0
4, 30840, Note_on_c, 0, 74, 88
4, 30898, Note_off_c, 0, 74, 0
4, 30900, Note_on_c, 0, 72, 88
4, 30958, Note_off_c, 0, 72, 0
4, 30960, Note_on_c, 0, 71, 88
4, 31076, Note_off_c, 0, 71, 0
4, 31080, Note_on_c, 0, 74, 88
4, 31255, Note_off_c, 0, 74, 0
4, 31260, Note_on_c, 0, 67, 88
4, 31318, Note_off_c, 0, 67, 0
4, 31320, Note_on_c, 0, 72, 88
4, 31482, Note_off_c, 0, 72, 0
4, 31500, Note_on_c, 0, 72, 88
4, 31558, Note_off_c, 0, 72, 0
4, 31560, Note_on_c, 0, 71, 88
4, 31676, Note_off_c, 0, 71, 0
4, 31680, Note_on_c, 0, 72, 88
4, 31914, Note_off_c, 0, 72, 0
4, 31980, Note_on_c, 0, 70, 88
4, 32038, Note_off_c, 0, 70, 0
4, 32040, Note_on_c, 0, 69, 88
4, 32098, Note_off_c, 0, 69, 0
4, 32100, Note_on_c, 0, 67, 88
4, 32158, Note_off_c, 0, 67, 0
4, 32160, Note_on_c, 0, 69, 88
4, 32458, Note_off_c, 0, 69, 0
4, 32460, Note_on_c, 0, 67, 88
4, 32518, Note_off_c, 0, 67, 0
4, 32520, Note_on_c, 0, 69, 88
4, 32578, Note_off_c, 0, 69, 0
4, 32580, Note_on_c, 0, 70, 88
4, 32638, Note_off_c, 0, 70, 0
4, 32640, Note_on_c, 0, 67, 88
4, 33178, Note_off_c, 0, 67, 0
4, 33180, Note_on_c, 0, 65, 88
4, 33238, Note_off_c, 0, 65, 0
4, 33240, Note_on_c, 0, 67, 88
4, 33298, Note_off_c, 0, 67, 0
4, 33300, Note_on_c, 0, 69, 88
4, 33358, Note_off_c, 0, 69, 0
4, 33360, Note_on_c, 0, 65, 88
4, 34015, Note_off_c, 0, 65, 0
4, 34020, Note_on_c, 0, 69, 88
4, 34078, Note_off_c, 0, 69, 0
4, 34080, Note_on_c, 0, 67, 88
4, 34255, Note_off_c, 0, 67, 0
4, 34260, Note_on_c, 0, 65, 88
4, 34318, Note_off_c, 0, 65, 0
4, 34320, Note_on_c, 0, 70, 88
4, 34495, Note_off_c, 0, 70, 0
4, 34500, Note_on_c, 0, 69, 88
4, 34558, Note_off_c, 0, 69, 0
4, 34560, Note_on_c, 0, 67, 88
4, 34794, Note_off_c, 0, 67, 0
4, 34800, Note_on_c, 0, 65, 88
4, 34916, Note_off_c, 0, 65, 0
4, 36240, Note_on_c, 0, 75, 88
4, 36474, Note_off_c, 0, 75, 0
4, 36600, Note_on_c, 0, 72, 88
4, 36716, Note_off_c, 0, 72, 0
4, 36720, Note_on_c, 0, 77, 88
4, 36954, Note_off_c, 0, 77, 0
4, 36960, Note_on_c, 0, 74, 88
4, 37194, Note_off_c, 0, 74, 0
4, 37320, Note_on_c, 0, 70, 88
4, 37436, Note_off_c, 0, 70, 0
4, 37440, Note_on_c, 0, 75, 88
4, 37674, Note_off_c, 0, 75, 0
4, 37680, Note_on_c, 0, 72, 88
4, 37914, Note_off_c, 0, 72, 0
4, 38040, Note_on_c, 0, 68, 88
4, 38156, Note_off_c, 0, 68, 0
4, 38160, Note_on_c, 0, 74, 88
4, 38262, Note_off_c, 0, 74, 0
4, 38280, Note_on_c, 0, 74, 88
4, 38382, Note_off_c, 0, 74, 0
4, 38400, Note_on_c, 0, 74, 88
4, 38502, Note_off_c, 0, 74, 0
4, 38520, Note_on_c, 0, 74, 88
4, 38622, Note_off_c, 0, 74, 0
4, 38640, Note_on_c, 0, 74, 88
4, 38742, Note_off_c, 0, 74, 0
4, 38760, Note_on_c, 0, 74, 88
4, 38876, Note_off_c, 0, 74, 0
4, 38880, Note_on_c, 0, 74, 88
4, 38938, Note_off_c, 0, 74, 0
4, 38940, Note_on_c, 0, 72, 88
4, 38998, Note_off_c, 0, 72, 0
4, 39000, Note_on_c, 0, 74, 88
4, 39058, Note_off_c, 0, 74, 0
4, 39060, Note_on_c, 0, 72, 88
4, 39118, Note_off_c, 0, 72, 0
4, 39120, Note_on_c, 0, 71, 88
4, 39178, Note_off_c, 0, 71, 0
4, 39180, Note_on_c, 0, 69, 88
4, 39238, Note_off_c, 0, 69, 0
4, 39240, Note_on_c, 0, 71, 88
4, 39298, Note_off_c, 0, 71, 0
4, 39300, Note_on_c, 0, 69, 88
4, 39358, Note_off_c, 0, 69, 0
4, 39360, Note_on_c, 0, 67, 88
4, 39882, Note_off_c, 0, 67, 0
4, 39900, Note_on_c, 0, 67, 88
4, 39958, Note_off_c, 0, 67, 0
4, 39960, Note_on_c, 0, 69, 88
4, 40018, Note_off_c, 0, 69, 0
4, 40020, Note_on_c, 0, 71, 88
4, 40078, Note_off_c, 0, 71, 0
4, 40080, Note_on_c, 0, 72, 88
4, 40436, Note_off_c, 0, 72, 0
4, 40440, Note_on_c, 0, 71, 88
4, 40498, Note_off_c, 0, 71, 0
4, 40500, Note_on_c, 0, 69, 88
4, 40558, Note_off_c, 0, 69, 0
4, 40560, Note_on_c, 0, 71, 88
4, 40794, Note_off_c, 0, 71, 0
4, 40800, Note_on_c, 0, 70, 88
4, 41156, Note_off_c, 0, 70, 0
4, 41160, Note_on_c, 0, 69, 88
4, 41218, Note_off_c, 0, 69, 0
4, 41220, Note_on_c, 0, 67, 88
4, 41278, Note_off_c, 0, 67, 0
4, 41280, Note_on_c, 0, 69, 88
4, 41514, Note_off_c, 0, 69, 0
4, 41520, Note_on_c, 0, 68, 88
4, 41876, Note_off_c, 0, 68, 0
4, 41880, Note_on_c, 0, 67, 88
4, 41938, Note_off_c, 0, 67, 0
4, 41940, Note_on_c, 0, 65, 88
4, 41998, Note_off_c, 0, 65, 0
4, 42000, Note_on_c, 0, 67, 88
4, 42058, Note_off_c, 0, 67, 0
4, 42060, Note_on_c, 0, 77, 88
4, 42118, Note_off_c, 0, 77, 0
4, 42120, Note_on_c, 0, 79, 88
4, 42178, Note_off_c, 0, 79, 0
4, 42180, Note_on_c, 0, 80, 88
4, 42238, Note_off_c, 0, 80, 0
4, 42240, Note_on_c, 0, 82, 88
4, 42298, Note_off_c, 0, 82, 0
4, 42300, Note_on_c, 0, 80, 88
4, 42358, Note_off_c, 0, 80, 0
4, 42360, Note_on_c, 0, 82, 88
4, 42476, Note_off_c, 0, 82, 0
4, 42480, Note_on_c, 0, 82, 88
4, 42596, Note_off_c, 0, 82, 0
4, 42600, Note_on_c, 0, 75, 88
4, 42716, Note_off_c, 0, 75, 0
4, 42780, Note_on_c, 0, 75, 88
4, 42838, Note_off_c, 0, 75, 0
4, 42840, Note_on_c, 0, 77, 88
4, 42898, Note_off_c, 0, 77, 0
4, 42900, Note_on_c, 0, 79, 88
4, 42958, Note_off_c, 0, 79, 0
4, 42960, Note_on_c, 0, 80, 88
4, 43018, Note_off_c, 0, 80, 0
4, 43020, Note_on_c, 0, 79, 88
4, 43078, Note_off_c, 0, 79, 0
4, 43080, Note_on_c, 0, 80, 88
4, 43196, Note_off_c, 0, 80, 0
4, 43200, Note_on_c, 0, 80, 88
4, 43316, Note_off_c, 0, 80, 0
4, 43320, Note_on_c, 0, 74, 88
4, 43436, Note_off_c, 0, 74, 0
4, 43500, Note_on_c, 0, 74, 88
4, 43558, Note_off_c, 0, 74, 0
4, 43560, Note_on_c, 0, 75, 88
4, 43618, Note_off_c, 0, 75, 0
4, 43620, Note_on_c, 0, 77, 88
4, 43678, Note_off_c, 0, 77, 0
4, 43680, Note_on_c, 0, 79, 88
4, 43738, Note_off_c, 0, 79, 0
4, 43740, Note_on_c, 0, 77, 88
4, 43798, Note_off_c, 0, 77, 0
4, 43800, Note_on_c, 0, 79, 88
4, 44036, Note_off_c, 0, 79, 0
4, 44040, Note_on_c, 0, 82, 88
4, 44156, Note_off_c, 0, 82, 0
4, 44160, Note_on_c, 0, 80, 88
4, 44276, Note_off_c, 0, 80, 0
4, 44280, Note_on_c, 0, 79, 88
4, 44396, Note_off_c, 0, 79, 0
4, 44400, Note_on_c, 0, 77, 88
4, 44516, Note_off_c, 0, 77, 0
4, 44520, Note_on_c, 0, 75, 88
4, 44636, Note_off_c, 0, 75, 0
4, 44640, Note_on_c, 0, 74, 88
4, 44742, Note_off_c, 0, 74, 0
4, 44760, Note_on_c, 0, 74, 88
4, 44876, Note_off_c, 0, 74, 0
4, 44880, Note_on_c, 0, 75, 88
4, 44996, Note_off_c, 0, 75, 0
4, 45000, Note_on_c, 0, 77, 88
4, 45116, Note_off_c, 0, 77, 0
4, 45120, Note_on_c, 0, 79, 88
4, 45418, Note_off_c, 0, 79, 0
4, 45420, Note_on_c, 0, 77, 88
4, 45478, Note_off_c, 0, 77, 0
4, 45480, Note_on_c, 0, 79, 88
4, 45538, Note_off_c, 0, 79, 0
4, 45540, Note_on_c, 0, 77, 88
4, 45598, Note_off_c, 0, 77, 0
4, 45600, Note_on_c, 0, 75, 88
4, 45658, Note_off_c, 0, 75, 0
4, 45660, Note_on_c, 0, 74, 88
4, 45718, Note_off_c, 0, 74, 0
4, 45720, Note_on_c, 0, 75, 88
4, 45778, Note_off_c, 0, 75, 0
4, 45780, Note_on_c, 0, 74, 88
4, 45838, Note_off_c, 0, 74, 0
4, 45840, Note_on_c, 0, 72, 88
4, 45898, Note_off_c, 0, 72, 0
4, 45900, Note_on_c, 0, 70, 88
4, 45958, Note_off_c, 0, 70, 0
4, 45960, Note_on_c, 0, 72, 88
4, 46018, Note_off_c, 0, 72, 0
4, 46020, Note_on_c, 0, 70, 88
4, 46078, Note_off_c, 0, 70, 0
4, 46080, Note_on_c, 0, 69, 88
4, 46433, Note_off_c, 0, 69, 0
4, 46440, Note_on_c, 0, 70, 88
4, 46556, Note_off_c, 0, 70, 0
4, 46560, Note_on_c, 0, 72, 88
4, 47034, Note_off_c, 0, 72, 0
4, 47040, Note_on_c, 0, 70, 88
4, 47322, Note_off_c, 0, 70, 0
4, 47340, Note_on_c, 0, 70, 88
4, 47398, Note_off_c, 0, 70, 0
4, 47400, Note_on_c, 0, 69, 88
4, 47458, Note_off_c, 0, 69, 0
4, 47460, Note_on_c, 0, 67, 88
4, 47518, Note_off_c, 0, 67, 0
4, 47520, Note_on_c, 0, 66, 88
4, 47636, Note_off_c, 0, 66, 0
4, 49200, Note_on_c, 0, 74, 88
4, 49434, Note_off_c, 0, 74, 0
4, 49560, Note_on_c, 0, 70, 88
4, 49676, Note_off_c, 0, 70, 0
4, 49680, Note_on_c, 0, 75, 88
4, 49914, Note_off_c, 0, 75, 0
4, 49920, Note_on_c, 0, 72, 88
4, 50154, Note_off_c, 0, 72, 0
4, 50280, Note_on_c, 0, 69, 88
4, 50396, Note_off_c, 0, 69, 0
4, 50400, Note_on_c, 0, 74, 88
4, 50634, Note_off_c, 0, 74, 0
4, 50640, Note_on_c, 0, 70, 88
4, 50874, Note_off_c, 0, 70, 0
4, 51000, Note_on_c, 0, 67, 88
4, 51116, Note_off_c, 0, 67, 0
4, 51120, Note_on_c, 0, 72, 88
4, 51222, Note_off_c, 0, 72, 0
4, 51240, Note_on_c, 0, 72, 88
4, 51342, Note_off_c, 0, 72, 0
4, 51360, Note_on_c, 0, 72, 88
4, 51462, Note_off_c, 0, 72, 0
4, 51480, Note_on_c, 0, 72, 88
4, 51582, Note_off_c, 0, 72, 0
4, 51600, Note_on_c, 0, 72, 88
4, 51702, Note_off_c, 0, 72, 0
4, 51720, Note_on_c, 0, 72, 88
4, 51836, Note_off_c, 0, 72, 0
4, 51840, Note_on_c, 0, 72, 88
4, 52074, Note_off_c, 0, 72, 0
4, 52200, Note_on_c, 0, 74, 88
4, 52316, Note_off_c, 0, 74, 0
4, 52320, Note_on_c, 0, 70, 88
4, 52554, Note_off_c, 0, 70, 0
4, 52680, Note_on_c, 0, 72, 88
4, 52796, Note_off_c, 0, 72, 0
4, 52800, Note_on_c, 0, 70, 88
4, 52916, Note_off_c, 0, 70, 0
4, 52920, Note_on_c, 0, 69, 88
4, 53022, Note_off_c, 0, 69, 0
4, 53040, Note_on_c, 0, 69, 88
4, 53156, Note_off_c, 0, 69, 0
4, 53160, Note_on_c, 0, 67, 88
4, 53276, Note_off_c, 0, 67, 0
4, 53280, Note_on_c, 0, 67, 88
4, 53514, Note_off_c, 0, 67, 0
4, 53580, Note_on_c, 0, 69, 88
4, 53638, Note_off_c, 0, 69, 0
4, 53640, Note_on_c, 0, 70, 88
4, 53698, Note_off_c, 0, 70, 0
4, 53700, Note_on_c, 0, 72, 88
4, 53758, Note_off_c, 0, 72, 0
4, 53760, Note_on_c, 0, 74, 88
4, 53818, Note_off_c, 0, 74, 0
4, 53820, Note_on_c, 0, 72, 88
4, 53878, Note_off_c, 0, 72, 0
4, 53880, Note_on_c, 0, 74, 88
4, 53938, Note_off_c, 0, 74, 0
4, 53940, Note_on_c, 0, 75, 88
4, 53998, Note_off_c, 0, 75, 0
4, 54000, Note_on_c, 0, 69, 88
4, 54234, Note_off_c, 0, 69, 0
4, 54300, Note_on_c, 0, 70, 88
4, 54358, Note_off_c, 0, 70, 0
4, 54360, Note_on_c, 0, 72, 88
4, 54418, Note_off_c, 0, 72, 0
4, 54420, Note_on_c, 0, 74, 88
4, 54478, Note_off_c, 0, 74, 0
4, 54480, Note_on_c, 0, 75, 88
4, 54538, Note_off_c, 0, 75, 0
4, 54540, Note_on_c, 0, 74, 88
4, 54598, Note_off_c, 0, 74, 0
4, 54600, Note_on_c, 0, 75, 88
4, 54658, Note_off_c, 0, 75, 0
4, 54660, Note_on_c, 0, 77, 88
4, 54718, Note_off_c, 0, 77, 0
4, 54720, Note_on_c, 0, 71, 88
4, 54778, Note_off_c, 0, 71, 0
4, 54780, Note_on_c, 0, 67, 88
4, 54838, Note_off_c, 0, 67, 0
4, 54840, Note_on_c, 0, 69, 88
4, 54898, Note_off_c, 0, 69, 0
4, 54900, Note_on_c, 0, 71, 88
4, 54958, Note_off_c, 0, 71, 0
4, 54960, Note_on_c, 0, 72, 88
4, 55018, Note_off_c, 0, 72, 0
4, 55020, Note_on_c, 0, 71, 88
4, 55078, Note_off_c, 0, 71, 0
4, 55080, Note_on_c, 0, 72, 88
4, 55182, Note_off_c, 0, 72, 0
4, 55200, Note_on_c, 0, 72, 88
4, 55302, Note_off_c, 0, 72, 0
4, 55320, Note_on_c, 0, 72, 88
4, 55436, Note_off_c, 0, 72, 0
4, 55440, Note_on_c, 0, 72, 88
4, 55674, Note_off_c, 0, 72, 0
4, 55800, Note_on_c, 0, 78, 88
4, 55916, Note_off_c, 0, 78, 0
4, 55920, Note_on_c, 0, 79, 88
4, 56154, Note_off_c, 0, 79, 0
4, 56220, Note_on_c, 0, 82, 88
4, 56278, Note_off_c, 0, 82, 0
4, 56280, Note_on_c, 0, 81, 88
4, 56338, Note_off_c, 0, 81, 0
4, 56340, Note_on_c, 0, 79, 88
4, 56398, Note_off_c, 0, 79, 0
4, 56400, Note_on_c, 0, 78, 88
4, 56458, Note_off_c, 0, 78, 0
4, 56460, Note_on_c, 0, 76, 88
4, 56518, Note_off_c, 0, 76, 0
4, 56520, Note_on_c, 0, 74, 88
4, 56578, Note_off_c, 0, 74, 0
4, 56580, Note_on_c, 0, 72, 88
4, 56638, Note_off_c, 0, 72, 0
4, 56640, Note_on_c, 0, 70, 88
4, 56698, Note_off_c, 0, 70, 0
4, 56700, Note_on_c, 0, 69, 88
4, 56758, Note_off_c, 0, 69, 0
4, 56760, Note_on_c, 0, 67, 88
4, 56818, Note_off_c, 0, 67, 0
4, 56820, Note_on_c, 0, 66, 88
4, 56878, Note_off_c, 0, 66, 0
4, 56880, Note_on_c, 0, 67, 88
4, 58436, Note_off_c, 0, 67, 0
4, 58500, Note_on_c, 0, 74, 88
4, 58616, Note_off_c, 0, 74, 0
4, 58620, Note_on_c, 0, 72, 88
4, 58736, Note_off_c, 0, 72, 0
4, 58740, Note_on_c, 0, 70, 88
4, 58856, Note_off_c, 0, 70, 0
4, 58860, Note_on_c, 0, 69, 88
4, 58976, Note_off_c, 0, 69, 0
4, 58980, Note_on_c, 0, 67, 88
4, 59038, Note_off_c, 0, 67, 0
4, 59040, Note_on_c, 0, 66, 88
4, 59156, Note_off_c, 0, 66, 0
4, 59160, Note_on_c, 0, 72, 88
4, 59218, Note_off_c, 0, 72, 0
4, 59220, Note_on_c, 0, 74, 88
4, 59249, Note_off_c, 0, 74, 0
4, 59250, Note_on_c, 0, 75, 88
4, 59279, Note_off_c, 0, 75, 0
4, 59280, Note_on_c, 0, 74, 88
4, 59396, Note_off_c, 0, 74, 0
4, 59400, Note_on_c, 0, 67, 88
4, 59634, Note_off_c, 0, 67, 0
4, 59640, Note_on_c, 0, 66, 88
4, 59756, Note_off_c, 0, 66, 0
4, 59760, Note_on_c, 0, 67, 88
4, 59994, Note_off_c, 0, 67, 0
4, 59994, End_track
5, 0, Start_track
5, 0, Title_t, "Track 2"
5, 0, Program_c, 1, 6
5, 3120, Note_on_c, 1, 67, 88
5, 3354, Note_off_c, 1, 67, 0
5, 3480, Note_on_c, 1, 65, 88
5, 3596, Note_off_c, 1, 65, 0
5, 3600, Note_on_c, 1, 70, 88
5, 3834, Note_off_c, 1, 70, 0
5, 3840, Note_on_c, 1, 67, 88
5, 4074, Note_off_c, 1, 67, 0
5, 4200, Note_on_c, 1, 64, 88
5, 4316, Note_off_c, 1, 64, 0
5, 4320, Note_on_c, 1, 69, 88
5, 4554, Note_off_c, 1, 69, 0
5, 4560, Note_on_c, 1, 65, 88
5, 4794, Note_off_c, 1, 65, 0
5, 4920, Note_on_c, 1, 62, 88
5, 5036, Note_off_c, 1, 62, 0
5, 5040, Note_on_c, 1, 67, 88
5, 5142, Note_off_c, 1, 67, 0
5, 5160, Note_on_c, 1, 67, 88
5, 5262, Note_off_c, 1, 67, 0
5, 5280, Note_on_c, 1, 67, 88
5, 5382, Note_off_c, 1, 67, 0
5, 5400, Note_on_c, 1, 67, 88
5, 5502, Note_off_c, 1, 67, 0
5, 5520, Note_on_c, 1, 67, 88
5, 5622, Note_off_c, 1, 67, 0
5, 5640, Note_on_c, 1, 67, 88
5, 5756, Note_off_c, 1, 67, 0
5, 5760, Note_on_c, 1, 67, 88
5, 5876, Note_off_c, 1, 67, 0
5, 5880, Note_on_c, 1, 65, 88
5, 5938, Note_off_c, 1, 65, 0
5, 5940, Note_on_c, 1, 64, 88
5, 5998, Note_off_c, 1, 64, 0
5, 6000, Note_on_c, 1, 65, 88
5, 6058, Note_off_c, 1, 65, 0
5, 6060, Note_on_c, 1, 62, 88
5, 6118, Note_off_c, 1, 62, 0
5, 6120, Note_on_c, 1, 64, 88
5, 6178, Note_off_c, 1, 64, 0
5, 6180, Note_on_c, 1, 66, 88
5, 6238, Note_off_c, 1, 66, 0
5, 6240, Note_on_c, 1, 67, 88
5, 6298, Note_off_c, 1, 67, 0
5, 6300, Note_on_c, 1, 66, 88
5, 6358, Note_off_c, 1, 66, 0
5, 6360, Note_on_c, 1, 67, 88
5, 6476, Note_off_c, 1, 67, 0
5, 6480, Note_on_c, 1, 67, 88
5, 6596, Note_off_c, 1, 67, 0
5, 6600, Note_on_c, 1, 60, 88
5, 6716, Note_off_c, 1, 60, 0
5, 6780, Note_on_c, 1, 60, 88
5, 6838, Note_off_c, 1, 60, 0
5, 6840, Note_on_c, 1, 62, 88
5, 6898, Note_off_c, 1, 62, 0
5, 6900, Note_on_c, 1, 63, 88
5, 6958, Note_off_c, 1, 63, 0
5, 6960, Note_on_c, 1, 65, 88
5, 7018, Note_off_c, 1, 65, 0
5, 7020, Note_on_c, 1, 63, 88
5, 7078, Note_off_c, 1, 63, 0
5, 7080, Note_on_c, 1, 65, 88
5, 7196, Note_off_c, 1, 65, 0
5, 7200, Note_on_c, 1, 65, 88
5, 7316, Note_off_c, 1, 65, 0
5, 7320, Note_on_c, 1, 58, 88
5, 7436, Note_off_c, 1, 58, 0
5, 7500, Note_on_c, 1, 58, 88
5, 7558, Note_off_c, 1, 58, 0
5, 7560, Note_on_c, 1, 60, 88
5, 7618, Note_off_c, 1, 60, 0
5, 7620, Note_on_c, 1, 62, 88
5, 7678, Note_off_c, 1, 62, 0
5, 7680, Note_on_c, 1, 63, 88
5, 7738, Note_off_c, 1, 63, 0
5, 7740, Note_on_c, 1, 62, 88
5, 7798, Note_off_c, 1, 62, 0
5, 7800, Note_on_c, 1, 63, 88
5, 7978, Note_off_c, 1, 63, 0
5, 7980, Note_on_c, 1, 62, 88
5, 8038, Note_off_c, 1, 62, 0
5, 8040, Note_on_c, 1, 63, 88
5, 8098, Note_off_c, 1, 63, 0
5, 8100, Note_on_c, 1, 62, 88
5, 8158, Note_off_c, 1, 62, 0
5, 8160, Note_on_c, 1, 60, 88
5, 8218, Note_off_c, 1, 60, 0
5, 8220, Note_on_c, 1, 58, 88
5, 8278, Note_off_c, 1, 58, 0
5, 8280, Note_on_c, 1, 60, 88
5, 8338, Note_off_c, 1, 60, 0
5, 8340, Note_on_c, 1, 58, 88
5, 8398, Note_off_c, 1, 58, 0
5, 8400, Note_on_c, 1, 57, 88
5, 8458, Note_off_c, 1, 57, 0
5, 8460, Note_on_c, 1, 55, 88
5, 8518, Note_off_c, 1, 55, 0
5, 8520, Note_on_c, 1, 57, 88
5, 8578, Note_off_c, 1, 57, 0
5, 8580, Note_on_c, 1, 55, 88
5, 8638, Note_off_c, 1, 55, 0
5, 8640, Note_on_c, 1, 54, 88
5, 8756, Note_off_c, 1, 54, 0
5, 8760, Note_on_c, 1, 62, 88
5, 8994, Note_off_c, 1, 62, 0
5, 9000, Note_on_c, 1, 67, 88
5, 9116, Note_off_c, 1, 67, 0
5, 9300, Note_on_c, 1, 69, 88
5, 9402, Note_off_c, 1, 69, 0
5, 9420, Note_on_c, 1, 69, 88
5, 9478, Note_off_c, 1, 69, 0
5, 9480, Note_on_c, 1, 67, 88
5, 9538, Note_off_c, 1, 67, 0
5, 9540, Note_on_c, 1, 65, 88
5, 9598, Note_off_c, 1, 65, 0
5, 9600, Note_on_c, 1, 64, 88
5, 9834, Note_off_c, 1, 64, 0
5, 10020, Note_on_c, 1, 67, 88
5, 10122, Note_off_c, 1, 67, 0
5, 10140, Note_on_c, 1, 67, 88
5, 10198, Note_off_c, 1, 67, 0
5, 10200, Note_on_c, 1, 65, 88
5, 10258, Note_off_c, 1, 65, 0
5, 10260, Note_on_c, 1, 64, 88
5, 10318, Note_off_c, 1, 64, 0
5, 10320, Note_on_c, 1, 62, 88
5, 10554, Note_off_c, 1, 62, 0
5, 10740, Note_on_c, 1, 65, 88
5, 10798, Note_off_c, 1, 65, 0
5, 10800, Note_on_c, 1, 64, 88
5, 10975, Note_off_c, 1, 64, 0
5, 10980, Note_on_c, 1, 65, 88
5, 11038, Note_off_c, 1, 65, 0
5, 11040, Note_on_c, 1, 64, 88
5, 11215, Note_off_c, 1, 64, 0
5, 11220, Note_on_c, 1, 62, 88
5, 11278, Note_off_c, 1, 62, 0
5, 11280, Note_on_c, 1, 61, 88
5, 11455, Note_off_c, 1, 61, 0
5, 11460, Note_on_c, 1, 62, 88
5, 11518, Note_off_c, 1, 62, 0
5, 11520, Note_on_c, 1, 57, 88
5, 11754, Note_off_c, 1, 57, 0
5, 12180, Note_on_c, 1, 74, 88
5, 12356, Note_off_c, 1, 74, 0
5, 12360, Note_on_c, 1, 67, 88
5, 12476, Note_off_c, 1, 67, 0
5, 12480, Note_on_c, 1, 60, 88
5, 12596, Note_off_c, 1, 60, 0
5, 12600, Note_on_c, 1, 70, 88
5, 12716, Note_off_c, 1, 70, 0
5, 12720, Note_on_c, 1, 69, 88
5, 12778, Note_off_c, 1, 69, 0
5, 12780, Note_on_c, 1, 72, 88
5, 12838, Note_off_c, 1, 72, 0
5, 12840, Note_on_c, 1, 75, 88
5, 13076, Note_off_c, 1, 75, 0
5, 13080, Note_on_c, 1, 74, 88
5, 13196, Note_off_c, 1, 74, 0
5, 13620, Note_on_c, 1, 74, 88
5, 13678, Note_off_c, 1, 74, 0
5, 13680, Note_on_c, 1, 72, 88
5, 13738, Note_off_c, 1, 72, 0
5, 13740, Note_on_c, 1, 70, 88
5, 13798, Note_off_c, 1, 70, 0
5, 13800, Note_on_c, 1, 72, 88
5, 13858, Note_off_c, 1, 72, 0
5, 13860, Note_on_c, 1, 70, 88
5, 13918, Note_off_c, 1, 70, 0
5, 13920, Note_on_c, 1, 72, 88
5, 14082, Note_off_c, 1, 72, 0
5, 14100, Note_on_c, 1, 72, 88
5, 14158, Note_off_c, 1, 72, 0
5, 14160, Note_on_c, 1, 70, 88
5, 14218, Note_off_c, 1, 70, 0
5, 14220, Note_on_c, 1, 69, 88
5, 14278, Note_off_c, 1, 69, 0
5, 14280, Note_on_c, 1, 70, 88
5, 14338, Note_off_c, 1, 70, 0
5, 14340, Note_on_c, 1, 69, 88
5, 14398, Note_off_c, 1, 69, 0
5, 14400, Note_on_c, 1, 67, 88
5, 14458, Note_off_c, 1, 67, 0
5, 14460, Note_on_c, 1, 65, 88
5, 14518, Note_off_c, 1, 65, 0
5, 14520, Note_on_c, 1, 67, 88
5, 14578, Note_off_c, 1, 67, 0
5, 14580, Note_on_c, 1, 65, 88
5, 14622, Note_off_c, 1, 65, 0
5, 14640, Note_on_c, 1, 65, 88
5, 14655, Note_on_c, 1, 63, 88
5, 14655, Note_off_c, 1, 65, 0
5, 14677, Note_off_c, 1, 63, 0
5, 14678, Note_on_c, 1, 65, 88
5, 14696, Note_off_c, 1, 65, 0
5, 14700, Note_on_c, 1, 63, 88
5, 14715, Note_off_c, 1, 63, 0
5, 14715, Note_on_c, 1, 65, 88
5, 14730, Note_on_c, 1, 63, 88
5, 14730, Note_off_c, 1, 65, 0
5, 14745, Note_off_c, 1, 63, 0
5, 14745, Note_on_c, 1, 65, 88
5, 14760, Note_on_c, 1, 63, 88
5, 14760, Note_off_c, 1, 65, 0
5, 14818, Note_off_c, 1, 63, 0
5, 14820, Note_on_c, 1, 62, 88
5, 14878, Note_off_c, 1, 62, 0
5, 14880, Note_on_c, 1, 60, 88
5, 15114, Note_off_c, 1, 60, 0
5, 15120, Note_on_c, 1, 65, 88
5, 15354, Note_off_c, 1, 65, 0
5, 15360, Note_on_c, 1, 62, 88
5, 15594, Note_off_c, 1, 62, 0
5, 19680, Note_on_c, 1, 69, 88
5, 19914, Note_off_c, 1, 69, 0
5, 20040, Note_on_c, 1, 65, 88
5, 20156, Note_off_c, 1, 65, 0
5, 20160, Note_on_c, 1, 70, 88
5, 20394, Note_off_c, 1, 70, 0
5, 20400, Note_on_c, 1, 67, 88
5, 20634, Note_off_c, 1, 67, 0
5, 20760, Note_on_c, 1, 64, 88
5, 20876, Note_off_c, 1, 64, 0
5, 20880, Note_on_c, 1, 69, 88
5, 21114, Note_off_c, 1, 69, 0
5, 21120, Note_on_c, 1, 65, 88
5, 21354, Note_off_c, 1, 65, 0
5, 21480, Note_on_c, 1, 62, 88
5, 21596, Note_off_c, 1, 62, 0
5, 21600, Note_on_c, 1, 67, 88
5, 21702, Note_off_c, 1, 67, 0
5, 21720, Note_on_c, 1, 67, 88
5, 21822, Note_off_c, 1, 67, 0
5, 21840, Note_on_c, 1, 67, 88
5, 21942, Note_off_c, 1, 67, 0
5, 21960, Note_on_c, 1, 67, 88
5, 22062, Note_off_c, 1, 67, 0
5, 22080, Note_on_c, 1, 67, 88
5, 22182, Note_off_c, 1, 67, 0
5, 22200, Note_on_c, 1, 67, 88
5, 22316, Note_off_c, 1, 67, 0
5, 22320, Note_on_c, 1, 67, 88
5, 22436, Note_off_c, 1, 67, 0
5, 22440, Note_on_c, 1, 65, 88
5, 22556, Note_off_c, 1, 65, 0
5, 22620, Note_on_c, 1, 69, 88
5, 22678, Note_off_c, 1, 69, 0
5, 22680, Note_on_c, 1, 70, 88
5, 22738, Note_off_c, 1, 70, 0
5, 22740, Note_on_c, 1, 72, 88
5, 22798, Note_off_c, 1, 72, 0
5, 22800, Note_on_c, 1, 74, 88
5, 22858, Note_off_c, 1, 74, 0
5, 22860, Note_on_c, 1, 72, 88
5, 22918, Note_off_c, 1, 72, 0
5, 22920, Note_on_c, 1, 74, 88
5, 23036, Note_off_c, 1, 74, 0
5, 23040, Note_on_c, 1, 74, 88
5, 23156, Note_off_c, 1, 74, 0
5, 23160, Note_on_c, 1, 67, 88
5, 23276, Note_off_c, 1, 67, 0
5, 23340, Note_on_c, 1, 67, 88
5, 23398, Note_off_c, 1, 67, 0
5, 23400, Note_on_c, 1, 69, 88
5, 23458, Note_off_c, 1, 69, 0
5, 23460, Note_on_c, 1, 70, 88
5, 23518, Note_off_c, 1, 70, 0
5, 23520, Note_on_c, 1, 72, 88
5, 23578, Note_off_c, 1, 72, 0
5, 23580, Note_on_c, 1, 70, 88
5, 23638, Note_off_c, 1, 70, 0
5, 23640, Note_on_c, 1, 72, 88
5, 23756, Note_off_c, 1, 72, 0
5, 23760, Note_on_c, 1, 72, 88
5, 23876, Note_off_c, 1, 72, 0
5, 23880, Note_on_c, 1, 65, 88
5, 23996, Note_off_c, 1, 65, 0
5, 24060, Note_on_c, 1, 65, 88
5, 24118, Note_off_c, 1, 65, 0
5, 24120, Note_on_c, 1, 67, 88
5, 24178, Note_off_c, 1, 67, 0
5, 24180, Note_on_c, 1, 69, 88
5, 24238, Note_off_c, 1, 69, 0
5, 24240, Note_on_c, 1, 70, 88
5, 24298, Note_off_c, 1, 70, 0
5, 24300, Note_on_c, 1, 69, 88
5, 24358, Note_off_c, 1, 69, 0
5, 24360, Note_on_c, 1, 70, 88
5, 24642, Note_off_c, 1, 70, 0
5, 24660, Note_on_c, 1, 70, 88
5, 24718, Note_off_c, 1, 70, 0
5, 24720, Note_on_c, 1, 69, 88
5, 24778, Note_off_c, 1, 69, 0
5, 24780, Note_on_c, 1, 67, 88
5, 24838, Note_off_c, 1, 67, 0
5, 24840, Note_on_c, 1, 69, 88
5, 24898, Note_off_c, 1, 69, 0
5, 24900, Note_on_c, 1, 67, 88
5, 24958, Note_off_c, 1, 67, 0
5, 24960, Note_on_c, 1, 65, 88
5, 25434, Note_off_c, 1, 65, 0
5, 25860, Note_on_c, 1, 72, 88
5, 25918, Note_off_c, 1, 72, 0
5, 25920, Note_on_c, 1, 70, 88
5, 25978, Note_off_c, 1, 70, 0
5, 25980, Note_on_c, 1, 72, 88
5, 26038, Note_off_c, 1, 72, 0
5, 26040, Note_on_c, 1, 70, 88
5, 26098, Note_off_c, 1, 70, 0
5, 26100, Note_on_c, 1, 69, 88
5, 26158, Note_off_c, 1, 69, 0
5, 26160, Note_on_c, 1, 67, 88
5, 26394, Note_off_c, 1, 67, 0
5, 26580, Note_on_c, 1, 70, 88
5, 26638, Note_off_c, 1, 70, 0
5, 26640, Note_on_c, 1, 69, 88
5, 26698, Note_off_c, 1, 69, 0
5, 26700, Note_on_c, 1, 70, 88
5, 26758, Note_off_c, 1, 70, 0
5, 26760, Note_on_c, 1, 69, 88
5, 26818, Note_off_c, 1, 69, 0
5, 26820, Note_on_c, 1, 67, 88
5, 26878, Note_off_c, 1, 67, 0
5, 26880, Note_on_c, 1, 65, 88
5, 27114, Note_off_c, 1, 65, 0
5, 27300, Note_on_c, 1, 69, 88
5, 27358, Note_off_c, 1, 69, 0
5, 27360, Note_on_c, 1, 67, 88
5, 28068, Note_off_c, 1, 67, 0
5, 28080, Note_on_c, 1, 65, 88
5, 28314, Note_off_c, 1, 65, 0
5, 28620, Note_on_c, 1, 67, 88
5, 28678, Note_off_c, 1, 67, 0
5, 28680, Note_on_c, 1, 68, 88
5, 28738, Note_off_c, 1, 68, 0
5, 28740, Note_on_c, 1, 67, 88
5, 28798, Note_off_c, 1, 67, 0
5, 28800, Note_on_c, 1, 65, 88
5, 28916, Note_off_c, 1, 65, 0
5, 28920, Note_on_c, 1, 62, 88
5, 29036, Note_off_c, 1, 62, 0
5, 29340, Note_on_c, 1, 69, 88
5, 29398, Note_off_c, 1, 69, 0
5, 29400, Note_on_c, 1, 71, 88
5, 29458, Note_off_c, 1, 71, 0
5, 29460, Note_on_c, 1, 69, 88
5, 29518, Note_off_c, 1, 69, 0
5, 29520, Note_on_c, 1, 67, 88
5, 29636, Note_off_c, 1, 67, 0
5, 29640, Note_on_c, 1, 63, 88
5, 29756, Note_off_c, 1, 63, 0
5, 30060, Note_on_c, 1, 71, 88
5, 30118, Note_off_c, 1, 71, 0
5, 30120, Note_on_c, 1, 72, 88
5, 30178, Note_off_c, 1, 72, 0
5, 30180, Note_on_c, 1, 70, 88
5, 30238, Note_off_c, 1, 70, 0
5, 30240, Note_on_c, 1, 68, 88
5, 30298, Note_off_c, 1, 68, 0
5, 30300, Note_on_c, 1, 67, 88
5, 30358, Note_off_c, 1, 67, 0
5, 30360, Note_on_c, 1, 68, 88
5, 30535, Note_off_c, 1, 68, 0
5, 30540, Note_on_c, 1, 67, 88
5, 30598, Note_off_c, 1, 67, 0
5, 30600, Note_on_c, 1, 68, 88
5, 31002, Note_off_c, 1, 68, 0
5, 31020, Note_on_c, 1, 68, 88
5, 31078, Note_off_c, 1, 68, 0
5, 31080, Note_on_c, 1, 67, 88
5, 31138, Note_off_c, 1, 67, 0
5, 31140, Note_on_c, 1, 65, 88
5, 31198, Note_off_c, 1, 65, 0
5, 31200, Note_on_c, 1, 63, 88
5, 31362, Note_off_c, 1, 63, 0
5, 31380, Note_on_c, 1, 63, 88
5, 31438, Note_off_c, 1, 63, 0
5, 31440, Note_on_c, 1, 62, 88
5, 31615, Note_off_c, 1, 62, 0
5, 31620, Note_on_c, 1, 65, 88
5, 31722, Note_off_c, 1, 65, 0
5, 31740, Note_on_c, 1, 65, 88
5, 31798, Note_off_c, 1, 65, 0
5, 31800, Note_on_c, 1, 63, 88
5, 31858, Note_off_c, 1, 63, 0
5, 31860, Note_on_c, 1, 62, 88
5, 31918, Note_off_c, 1, 62, 0
5, 31920, Note_on_c, 1, 63, 88
5, 32154, Note_off_c, 1, 63, 0
5, 32280, Note_on_c, 1, 60, 88
5, 32396, Note_off_c, 1, 60, 0
5, 32400, Note_on_c, 1, 65, 88
5, 32634, Note_off_c, 1, 65, 0
5, 32640, Note_on_c, 1, 62, 88
5, 32874, Note_off_c, 1, 62, 0
5, 33000, Note_on_c, 1, 58, 88
5, 33116, Note_off_c, 1, 58, 0
5, 33120, Note_on_c, 1, 63, 88
5, 33354, Note_off_c, 1, 63, 0
5, 33360, Note_on_c, 1, 60, 88
5, 33594, Note_off_c, 1, 60, 0
5, 33720, Note_on_c, 1, 57, 88
5, 33836, Note_off_c, 1, 57, 0
5, 33840, Note_on_c, 1, 62, 88
5, 33942, Note_off_c, 1, 62, 0
5, 33960, Note_on_c, 1, 62, 88
5, 34062, Note_off_c, 1, 62, 0
5, 34080, Note_on_c, 1, 62, 88
5, 34182, Note_off_c, 1, 62, 0
5, 34200, Note_on_c, 1, 62, 88
5, 34302, Note_off_c, 1, 62, 0
5, 34320, Note_on_c, 1, 62, 88
5, 34422, Note_off_c, 1, 62, 0
5, 34440, Note_on_c, 1, 62, 88
5, 34556, Note_off_c, 1, 62, 0
5, 34560, Note_on_c, 1, 62, 88
5, 34676, Note_off_c, 1, 62, 0
5, 34680, Note_on_c, 1, 60, 88
5, 34796, Note_off_c, 1, 60, 0
5, 35220, Note_on_c, 1, 65, 88
5, 35278, Note_off_c, 1, 65, 0
5, 35280, Note_on_c, 1, 63, 88
5, 35396, Note_off_c, 1, 63, 0
5, 35400, Note_on_c, 1, 62, 88
5, 35516, Note_off_c, 1, 62, 0
5, 35940, Note_on_c, 1, 67, 88
5, 35998, Note_off_c, 1, 67, 0
5, 36000, Note_on_c, 1, 65, 88
5, 36116, Note_off_c, 1, 65, 0
5, 36120, Note_on_c, 1, 63, 88
5, 36178, Note_off_c, 1, 63, 0
5, 36180, Note_on_c, 1, 65, 88
5, 36238, Note_off_c, 1, 65, 0
5, 36240, Note_on_c, 1, 67, 88
5, 36474, Note_off_c, 1, 67, 0
5, 36600, Note_on_c, 1, 63, 88
5, 36716, Note_off_c, 1, 63, 0
5, 36720, Note_on_c, 1, 68, 88
5, 36954, Note_off_c, 1, 68, 0
5, 36960, Note_on_c, 1, 65, 88
5, 37194, Note_off_c, 1, 65, 0
5, 37320, Note_on_c, 1, 62, 88
5, 37436, Note_off_c, 1, 62, 0
5, 37440, Note_on_c, 1, 67, 88
5, 37674, Note_off_c, 1, 67, 0
5, 37680, Note_on_c, 1, 63, 88
5, 37914, Note_off_c, 1, 63, 0
5, 38040, Note_on_c, 1, 60, 88
5, 38156, Note_off_c, 1, 60, 0
5, 38160, Note_on_c, 1, 65, 88
5, 38262, Note_off_c, 1, 65, 0
5, 38280, Note_on_c, 1, 65, 88
5, 38382, Note_off_c, 1, 65, 0
5, 38400, Note_on_c, 1, 65, 88
5, 38502, Note_off_c, 1, 65, 0
5, 38520, Note_on_c, 1, 65, 88
5, 38622, Note_off_c, 1, 65, 0
5, 38640, Note_on_c, 1, 65, 88
5, 38742, Note_off_c, 1, 65, 0
5, 38760, Note_on_c, 1, 65, 88
5, 38876, Note_off_c, 1, 65, 0
5, 38880, Note_on_c, 1, 65, 88
5, 38982, Note_off_c, 1, 65, 0
5, 39000, Note_on_c, 1, 65, 88
5, 39102, Note_off_c, 1, 65, 0
5, 39120, Note_on_c, 1, 65, 88
5, 39222, Note_off_c, 1, 65, 0
5, 39240, Note_on_c, 1, 65, 88
5, 39356, Note_off_c, 1, 65, 0
5, 39420, Note_on_c, 1, 65, 88
5, 39478, Note_off_c, 1, 65, 0
5, 39480, Note_on_c, 1, 67, 88
5, 39538, Note_off_c, 1, 67, 0
5, 39540, Note_on_c, 1, 65, 88
5, 39658, Note_off_c, 1, 65, 0
5, 39660, Note_on_c, 1, 63, 88
5, 39718, Note_off_c, 1, 63, 0
5, 39720, Note_on_c, 1, 65, 88
5, 39778, Note_off_c, 1, 65, 0
5, 39780, Note_on_c, 1, 62, 88
5, 39838, Note_off_c, 1, 62, 0
5, 39840, Note_on_c, 1, 63, 88
5, 40193, Note_off_c, 1, 63, 0
5, 40200, Note_on_c, 1, 68, 88
5, 40316, Note_off_c, 1, 68, 0
5, 40320, Note_on_c, 1, 65, 88
5, 40554, Note_off_c, 1, 65, 0
5, 40620, Note_on_c, 1, 68, 88
5, 40678, Note_off_c, 1, 68, 0
5, 40680, Note_on_c, 1, 67, 88
5, 40738, Note_off_c, 1, 67, 0
5, 40740, Note_on_c, 1, 65, 88
5, 40798, Note_off_c, 1, 65, 0
5, 40800, Note_on_c, 1, 64, 88
5, 40858, Note_off_c, 1, 64, 0
5, 40860, Note_on_c, 1, 65, 88
5, 40918, Note_off_c, 1, 65, 0
5, 40920, Note_on_c, 1, 64, 88
5, 40978, Note_off_c, 1, 64, 0
5, 40980, Note_on_c, 1, 65, 88
5, 41038, Note_off_c, 1, 65, 0
5, 41040, Note_on_c, 1, 64, 88
5, 41274, Note_off_c, 1, 64, 0
5, 41340, Note_on_c, 1, 67, 88
5, 41398, Note_off_c, 1, 67, 0
5, 41400, Note_on_c, 1, 65, 88
5, 41458, Note_off_c, 1, 65, 0
5, 41460, Note_on_c, 1, 63, 88
5, 41518, Note_off_c, 1, 63, 0
5, 41520, Note_on_c, 1, 62, 88
5, 41578, Note_off_c, 1, 62, 0
5, 41580, Note_on_c, 1, 63, 88
5, 41638, Note_off_c, 1, 63, 0
5, 41640, Note_on_c, 1, 62, 88
5, 41698, Note_off_c, 1, 62, 0
5, 41700, Note_on_c, 1, 63, 88
5, 41758, Note_off_c, 1, 63, 0
5, 41760, Note_on_c, 1, 62, 88
5, 41994, Note_off_c, 1, 62, 0
5, 42060, Note_on_c, 1, 74, 88
5, 42118, Note_off_c, 1, 74, 0
5, 42120, Note_on_c, 1, 75, 88
5, 42178, Note_off_c, 1, 75, 0
5, 42180, Note_on_c, 1, 77, 88
5, 42238, Note_off_c, 1, 77, 0
5, 42240, Note_on_c, 1, 79, 88
5, 42298, Note_off_c, 1, 79, 0
5, 42300, Note_on_c, 1, 77, 88
5, 42358, Note_off_c, 1, 77, 0
5, 42360, Note_on_c, 1, 79, 88
5, 42476, Note_off_c, 1, 79, 0
5, 42480, Note_on_c, 1, 79, 88
5, 42596, Note_off_c, 1, 79, 0
5, 42600, Note_on_c, 1, 72, 88
5, 42716, Note_off_c, 1, 72, 0
5, 42780, Note_on_c, 1, 72, 88
5, 42838, Note_off_c, 1, 72, 0
5, 42840, Note_on_c, 1, 74, 88
5, 42898, Note_off_c, 1, 74, 0
5, 42900, Note_on_c, 1, 75, 88
5, 42958, Note_off_c, 1, 75, 0
5, 42960, Note_on_c, 1, 77, 88
5, 43018, Note_off_c, 1, 77, 0
5, 43020, Note_on_c, 1, 75, 88
5, 43078, Note_off_c, 1, 75, 0
5, 43080, Note_on_c, 1, 77, 88
5, 43196, Note_off_c, 1, 77, 0
5, 43200, Note_on_c, 1, 77, 88
5, 43316, Note_off_c, 1, 77, 0
5, 43320, Note_on_c, 1, 70, 88
5, 43436, Note_off_c, 1, 70, 0
5, 43500, Note_on_c, 1, 70, 88
5, 43558, Note_off_c, 1, 70, 0
5, 43560, Note_on_c, 1, 72, 88
5, 43618, Note_off_c, 1, 72, 0
5, 43620, Note_on_c, 1, 74, 88
5, 43678, Note_off_c, 1, 74, 0
5, 43680, Note_on_c, 1, 75, 88
5, 43738, Note_off_c, 1, 75, 0
5, 43740, Note_on_c, 1, 74, 88
5, 43798, Note_off_c, 1, 74, 0
5, 43800, Note_on_c, 1, 75, 88
5, 43978, Note_off_c, 1, 75, 0
5, 43980, Note_on_c, 1, 73, 88
5, 44038, Note_off_c, 1, 73, 0
5, 44040, Note_on_c, 1, 75, 88
5, 44098, Note_off_c, 1, 75, 0
5, 44100, Note_on_c, 1, 73, 88
5, 44158, Note_off_c, 1, 73, 0
5, 44160, Note_on_c, 1, 72, 88
5, 44218, Note_off_c, 1, 72, 0
5, 44220, Note_on_c, 1, 70, 88
5, 44278, Note_off_c, 1, 70, 0
5, 44280, Note_on_c, 1, 72, 88
5, 44338, Note_off_c, 1, 72, 0
5, 44340, Note_on_c, 1, 70, 88
5, 44398, Note_off_c, 1, 70, 0
5, 44400, Note_on_c, 1, 68, 88
5, 44458, Note_off_c, 1, 68, 0
5, 44460, Note_on_c, 1, 67, 88
5, 44518, Note_off_c, 1, 67, 0
5, 44520, Note_on_c, 1, 68, 88
5, 44578, Note_off_c, 1, 68, 0
5, 44580, Note_on_c, 1, 67, 88
5, 44638, Note_off_c, 1, 67, 0
5, 44640, Note_on_c, 1, 65, 88
5, 44742, Note_off_c, 1, 65, 0
5, 44760, Note_on_c, 1, 65, 88
5, 44876, Note_off_c, 1, 65, 0
5, 44880, Note_on_c, 1, 67, 88
5, 44996, Note_off_c, 1, 67, 0
5, 45000, Note_on_c, 1, 68, 88
5, 45116, Note_off_c, 1, 68, 0
5, 45120, Note_on_c, 1, 70, 88
5, 45236, Note_off_c, 1, 70, 0
5, 45240, Note_on_c, 1, 71, 88
5, 45356, Note_off_c, 1, 71, 0
5, 45360, Note_on_c, 1, 72, 88
5, 45418, Note_off_c, 1, 72, 0
5, 45420, Note_on_c, 1, 74, 88
5, 45478, Note_off_c, 1, 74, 0
5, 45480, Note_on_c, 1, 75, 88
5, 45538, Note_off_c, 1, 75, 0
5, 45540, Note_on_c, 1, 74, 88
5, 45598, Note_off_c, 1, 74, 0
5, 45600, Note_on_c, 1, 72, 88
5, 45658, Note_off_c, 1, 72, 0
5, 45660, Note_on_c, 1, 70, 88
5, 45718, Note_off_c, 1, 70, 0
5, 45720, Note_on_c, 1, 72, 88
5, 45778, Note_off_c, 1, 72, 0
5, 45780, Note_on_c, 1, 70, 88
5, 45838, Note_off_c, 1, 70, 0
5, 45840, Note_on_c, 1, 68, 88
5, 45898, Note_off_c, 1, 68, 0
5, 45900, Note_on_c, 1, 67, 88
5, 45958, Note_off_c, 1, 67, 0
5, 45960, Note_on_c, 1, 68, 88
5, 46018, Note_off_c, 1, 68, 0
5, 46020, Note_on_c, 1, 67, 88
5, 46078, Note_off_c, 1, 67, 0
5, 46080, Note_on_c, 1, 66, 88
5, 46433, Note_off_c, 1, 66, 0
5, 46440, Note_on_c, 1, 67, 88
5, 46556, Note_off_c, 1, 67, 0
5, 46560, Note_on_c, 1, 69, 88
5, 46858, Note_off_c, 1, 69, 0
5, 46860, Note_on_c, 1, 62, 88
5, 46918, Note_off_c, 1, 62, 0
5, 46920, Note_on_c, 1, 63, 88
5, 46978, Note_off_c, 1, 63, 0
5, 46980, Note_on_c, 1, 62, 88
5, 47082, Note_off_c, 1, 62, 0
5, 47100, Note_on_c, 1, 62, 88
5, 47158, Note_off_c, 1, 62, 0
5, 47160, Note_on_c, 1, 63, 88
5, 47218, Note_off_c, 1, 63, 0
5, 47220, Note_on_c, 1, 62, 88
5, 47278, Note_off_c, 1, 62, 0
5, 47280, Note_on_c, 1, 60, 88
5, 47396, Note_off_c, 1, 60, 0
5, 47400, Note_on_c, 1, 61, 88
5, 47516, Note_off_c, 1, 61, 0
5, 47520, Note_on_c, 1, 62, 88
5, 47636, Note_off_c, 1, 62, 0
5, 47820, Note_on_c, 1, 69, 88
5, 47878, Note_off_c, 1, 69, 0
5, 47880, Note_on_c, 1, 70, 88
5, 47938, Note_off_c, 1, 70, 0
5, 47940, Note_on_c, 1, 72, 88
5, 47998, Note_off_c, 1, 72, 0
5, 48000, Note_on_c, 1, 74, 88
5, 48058, Note_off_c, 1, 74, 0
5, 48060, Note_on_c, 1, 72, 88
5, 48118, Note_off_c, 1, 72, 0
5, 48120, Note_on_c, 1, 74, 88
5, 48236, Note_off_c, 1, 74, 0
5, 48240, Note_on_c, 1, 74, 88
5, 48356, Note_off_c, 1, 74, 0
5, 48360, Note_on_c, 1, 67, 88
5, 48476, Note_off_c, 1, 67, 0
5, 48540, Note_on_c, 1, 67, 88
5, 48598, Note_off_c, 1, 67, 0
5, 48600, Note_on_c, 1, 69, 88
5, 48658, Note_off_c, 1, 69, 0
5, 48660, Note_on_c, 1, 70, 88
5, 48718, Note_off_c, 1, 70, 0
5, 48720, Note_on_c, 1, 72, 88
5, 48778, Note_off_c, 1, 72, 0
5, 48780, Note_on_c, 1, 70, 88
5, 48838, Note_off_c, 1, 70, 0
5, 48840, Note_on_c, 1, 72, 88
5, 48956, Note_off_c, 1, 72, 0
5, 48960, Note_on_c, 1, 72, 88
5, 49076, Note_off_c, 1, 72, 0
5, 49080, Note_on_c, 1, 66, 88
5, 49196, Note_off_c, 1, 66, 0
5, 49260, Note_on_c, 1, 66, 88
5, 49318, Note_off_c, 1, 66, 0
5, 49320, Note_on_c, 1, 67, 88
5, 49378, Note_off_c, 1, 67, 0
5, 49380, Note_on_c, 1, 69, 88
5, 49438, Note_off_c, 1, 69, 0
5, 49440, Note_on_c, 1, 70, 88
5, 49498, Note_off_c, 1, 70, 0
5, 49500, Note_on_c, 1, 69, 88
5, 49558, Note_off_c, 1, 69, 0
5, 49560, Note_on_c, 1, 70, 88
5, 49676, Note_off_c, 1, 70, 0
5, 49680, Note_on_c, 1, 70, 88
5, 49796, Note_off_c, 1, 70, 0
5, 49800, Note_on_c, 1, 63, 88
5, 49916, Note_off_c, 1, 63, 0
5, 49980, Note_on_c, 1, 64, 88
5, 50038, Note_off_c, 1, 64, 0
5, 50040, Note_on_c, 1, 65, 88
5, 50098, Note_off_c, 1, 65, 0
5, 50100, Note_on_c, 1, 67, 88
5, 50158, Note_off_c, 1, 67, 0
5, 50160, Note_on_c, 1, 69, 88
5, 50218, Note_off_c, 1, 69, 0
5, 50220, Note_on_c, 1, 67, 88
5, 50278, Note_off_c, 1, 67, 0
5, 50280, Note_on_c, 1, 69, 88
5, 50396, Note_off_c, 1, 69, 0
5, 50400, Note_on_c, 1, 69, 88
5, 50516, Note_off_c, 1, 69, 0
5, 50520, Note_on_c, 1, 62, 88
5, 50636, Note_off_c, 1, 62, 0
5, 50700, Note_on_c, 1, 62, 88
5, 50758, Note_off_c, 1, 62, 0
5, 50760, Note_on_c, 1, 64, 88
5, 50818, Note_off_c, 1, 64, 0
5, 50820, Note_on_c, 1, 66, 88
5, 50878, Note_off_c, 1, 66, 0
5, 50880, Note_on_c, 1, 67, 88
5, 50938, Note_off_c, 1, 67, 0
5, 50940, Note_on_c, 1, 66, 88
5, 50998, Note_off_c, 1, 66, 0
5, 51000, Note_on_c, 1, 67, 88
5, 51236, Note_off_c, 1, 67, 0
5, 51240, Note_on_c, 1, 70, 88
5, 51356, Note_off_c, 1, 70, 0
5, 51360, Note_on_c, 1, 69, 88
5, 51476, Note_off_c, 1, 69, 0
5, 51480, Note_on_c, 1, 67, 88
5, 51596, Note_off_c, 1, 67, 0
5, 51600, Note_on_c, 1, 66, 88
5, 51716, Note_off_c, 1, 66, 0
5, 51720, Note_on_c, 1, 67, 88
5, 51836, Note_off_c, 1, 67, 0
5, 51840, Note_on_c, 1, 69, 88
5, 52074, Note_off_c, 1, 69, 0
5, 52200, Note_on_c, 1, 66, 88
5, 52316, Note_off_c, 1, 66, 0
5, 52320, Note_on_c, 1, 67, 88
5, 52554, Note_off_c, 1, 67, 0
5, 52680, Note_on_c, 1, 69, 88
5, 52796, Note_off_c, 1, 69, 0
5, 52800, Note_on_c, 1, 67, 88
5, 53034, Note_off_c, 1, 67, 0
5, 53040, Note_on_c, 1, 66, 88
5, 53274, Note_off_c, 1, 66, 0
5, 53280, Note_on_c, 1, 62, 88
5, 53514, Note_off_c, 1, 62, 0
5, 54060, Note_on_c, 1, 64, 88
5, 54118, Note_off_c, 1, 64, 0
5, 54120, Note_on_c, 1, 65, 88
5, 54178, Note_off_c, 1, 65, 0
5, 54180, Note_on_c, 1, 67, 88
5, 54238, Note_off_c, 1, 67, 0
5, 54240, Note_on_c, 1, 69, 88
5, 54298, Note_off_c, 1, 69, 0
5, 54300, Note_on_c, 1, 67, 88
5, 54358, Note_off_c, 1, 67, 0
5, 54360, Note_on_c, 1, 69, 88
5, 54594, Note_off_c, 1, 69, 0
5, 54600, Note_on_c, 1, 68, 88
5, 54716, Note_off_c, 1, 68, 0
5, 54720, Note_on_c, 1, 67, 88
5, 54836, Note_off_c, 1, 67, 0
5, 55140, Note_on_c, 1, 70, 88
5, 55198, Note_off_c, 1, 70, 0
5, 55200, Note_on_c, 1, 69, 88
5, 55258, Note_off_c, 1, 69, 0
5, 55260, Note_on_c, 1, 67, 88
5, 55318, Note_off_c, 1, 67, 0
5, 55320, Note_on_c, 1, 69, 88
5, 55378, Note_off_c, 1, 69, 0
5, 55380, Note_on_c, 1, 67, 88
5, 55438, Note_off_c, 1, 67, 0
5, 55440, Note_on_c, 1, 66, 88
5, 55674, Note_off_c, 1, 66, 0
5, 55800, Note_on_c, 1, 69, 88
5, 55916, Note_off_c, 1, 69, 0
5, 55920, Note_on_c, 1, 70, 88
5, 56154, Note_off_c, 1, 70, 0
5, 56940, Note_on_c, 1, 59, 88
5, 56998, Note_off_c, 1, 59, 0
5, 57000, Note_on_c, 1, 60, 88
5, 57058, Note_off_c, 1, 60, 0
5, 57060, Note_on_c, 1, 62, 88
5, 57118, Note_off_c, 1, 62, 0
5, 57120, Note_on_c, 1, 63, 88
5, 57178, Note_off_c, 1, 63, 0
5, 57180, Note_on_c, 1, 62, 88
5, 57238, Note_off_c, 1, 62, 0
5, 57240, Note_on_c, 1, 63, 88
5, 57342, Note_off_c, 1, 63, 0
5, 57360, Note_on_c, 1, 63, 88
5, 57594, Note_off_c, 1, 63, 0
5, 57660, Note_on_c, 1, 60, 88
5, 57718, Note_off_c, 1, 60, 0
5, 57720, Note_on_c, 1, 62, 88
5, 57778, Note_off_c, 1, 62, 0
5, 57780, Note_on_c, 1, 63, 88
5, 57838, Note_off_c, 1, 63, 0
5, 57840, Note_on_c, 1, 65, 88
5, 57898, Note_off_c, 1, 65, 0
5, 57900, Note_on_c, 1, 63, 88
5, 57958, Note_off_c, 1, 63, 0
5, 57960, Note_on_c, 1, 65, 88
5, 58062, Note_off_c, 1, 65, 0
5, 58080, Note_on_c, 1, 65, 88
5, 58436, Note_off_c, 1, 65, 0
5, 58440, Note_on_c, 1, 68, 88
5, 58556, Note_off_c, 1, 68, 0
5, 58560, Note_on_c, 1, 67, 88
5, 58676, Note_off_c, 1, 67, 0
5, 58680, Note_on_c, 1, 65, 88
5, 58796, Note_off_c, 1, 65, 0
5, 58800, Note_on_c, 1, 63, 88
5, 59034, Note_off_c, 1, 63, 0
5, 59040, Note_on_c, 1, 62, 88
5, 59156, Note_off_c, 1, 62, 0
5, 59400, Note_on_c, 1, 63, 88
5, 59516, Note_off_c, 1, 63, 0
5, 59520, Note_on_c, 1, 62, 88
5, 59994, Note_off_c, 1, 62, 0
5, 59994, End_track
6, 0, Start_track
6, 0, Title_t, "Track 3"
6, 0, Program_c, 2, 6
6, 240, Note_on_c, 2, 62, 88
6, 474, Note_off_c, 2, 62, 0
6, 600, Note_on_c, 2, 58, 88
6, 716, Note_off_c, 2, 58, 0
6, 720, Note_on_c, 2, 63, 88
6, 954, Note_off_c, 2, 63, 0
6, 960, Note_on_c, 2, 60, 88
6, 1194, Note_off_c, 2, 60, 0
6, 1320, Note_on_c, 2, 57, 88
6, 1436, Note_off_c, 2, 57, 0
6, 1440, Note_on_c, 2, 62, 88
6, 1674, Note_off_c, 2, 62, 0
6, 1680, Note_on_c, 2, 58, 88
6, 1914, Note_off_c, 2, 58, 0
6, 2040, Note_on_c, 2, 55, 88
6, 2156, Note_off_c, 2, 55, 0
6, 2160, Note_on_c, 2, 60, 88
6, 2262, Note_off_c, 2, 60, 0
6, 2280, Note_on_c, 2, 60, 88
6, 2382, Note_off_c, 2, 60, 0
6, 2400, Note_on_c, 2, 60, 88
6, 2502, Note_off_c, 2, 60, 0
6, 2520, Note_on_c, 2, 60, 88
6, 2622, Note_off_c, 2, 60, 0
6, 2640, Note_on_c, 2, 60, 88
6, 2742, Note_off_c, 2, 60, 0
6, 2760, Note_on_c, 2, 60, 88
6, 2876, Note_off_c, 2, 60, 0
6, 2880, Note_on_c, 2, 60, 88
6, 2996, Note_off_c, 2, 60, 0
6, 3000, Note_on_c, 2, 58, 88
6, 3058, Note_off_c, 2, 58, 0
6, 3060, Note_on_c, 2, 57, 88
6, 3118, Note_off_c, 2, 57, 0
6, 3120, Note_on_c, 2, 58, 88
6, 3178, Note_off_c, 2, 58, 0
6, 3180, Note_on_c, 2, 55, 88
6, 3238, Note_off_c, 2, 55, 0
6, 3240, Note_on_c, 2, 58, 88
6, 3298, Note_off_c, 2, 58, 0
6, 3300, Note_on_c, 2, 60, 88
6, 3358, Note_off_c, 2, 60, 0
6, 3360, Note_on_c, 2, 62, 88
6, 3418, Note_off_c, 2, 62, 0
6, 3420, Note_on_c, 2, 61, 88
6, 3478, Note_off_c, 2, 61, 0
6, 3480, Note_on_c, 2, 62, 88
6, 3596, Note_off_c, 2, 62, 0
6, 3600, Note_on_c, 2, 62, 88
6, 3716, Note_off_c, 2, 62, 0
6, 3720, Note_on_c, 2, 55, 88
6, 3836, Note_off_c, 2, 55, 0
6, 3900, Note_on_c, 2, 55, 88
6, 3958, Note_off_c, 2, 55, 0
6, 3960, Note_on_c, 2, 57, 88
6, 4018, Note_off_c, 2, 57, 0
6, 4020, Note_on_c, 2, 58, 88
6, 4078, Note_off_c, 2, 58, 0
6, 4080, Note_on_c, 2, 60, 88
6, 4138, Note_off_c, 2, 60, 0
6, 4140, Note_on_c, 2, 58, 88
6, 4198, Note_off_c, 2, 58, 0
6, 4200, Note_on_c, 2, 60, 88
6, 4316, Note_off_c, 2, 60, 0
6, 4320, Note_on_c, 2, 60, 88
6, 4436, Note_off_c, 2, 60, 0
6, 4440, Note_on_c, 2, 53, 88
6, 4556, Note_off_c, 2, 53, 0
6, 4620, Note_on_c, 2, 53, 88
6, 4678, Note_off_c, 2, 53, 0
6, 4680, Note_on_c, 2, 55, 88
6, 4738, Note_off_c, 2, 55, 0
6, 4740, Note_on_c, 2, 57, 88
6, 4798, Note_off_c, 2, 57, 0
6, 4800, Note_on_c, 2, 58, 88
6, 4858, Note_off_c, 2, 58, 0
6, 4860, Note_on_c, 2, 57, 88
6, 4918, Note_off_c, 2, 57, 0
6, 4920, Note_on_c, 2, 58, 88
6, 5098, Note_off_c, 2, 58, 0
6, 5100, Note_on_c, 2, 57, 88
6, 5158, Note_off_c, 2, 57, 0
6, 5160, Note_on_c, 2, 58, 88
6, 5218, Note_off_c, 2, 58, 0
6, 5220, Note_on_c, 2, 57, 88
6, 5278, Note_off_c, 2, 57, 0
6, 5280, Note_on_c, 2, 55, 88
6, 5338, Note_off_c, 2, 55, 0
6, 5340, Note_on_c, 2, 53, 88
6, 5398, Note_off_c, 2, 53, 0
6, 5400, Note_on_c, 2, 55, 88
6, 5458, Note_off_c, 2, 55, 0
6, 5460, Note_on_c, 2, 53, 88
6, 5518, Note_off_c, 2, 53, 0
6, 5520, Note_on_c, 2, 52, 88
6, 5578, Note_off_c, 2, 52, 0
6, 5580, Note_on_c, 2, 50, 88
6, 5638, Note_off_c, 2, 50, 0
6, 5640, Note_on_c, 2, 52, 88
6, 5698, Note_off_c, 2, 52, 0
6, 5700, Note_on_c, 2, 50, 88
6, 5758, Note_off_c, 2, 50, 0
6, 5760, Note_on_c, 2, 49, 88
6, 5876, Note_off_c, 2, 49, 0
6, 5880, Note_on_c, 2, 57, 88
6, 5996, Note_off_c, 2, 57, 0
6, 6000, Note_on_c, 2, 50, 88
6, 6116, Note_off_c, 2, 50, 0
6, 6120, Note_on_c, 2, 60, 88
6, 6236, Note_off_c, 2, 60, 0
6, 6240, Note_on_c, 2, 58, 88
6, 6356, Note_off_c, 2, 58, 0
6, 6360, Note_on_c, 2, 55, 88
6, 6476, Note_off_c, 2, 55, 0
6, 6480, Note_on_c, 2, 60, 88
6, 6538, Note_off_c, 2, 60, 0
6, 6540, Note_on_c, 2, 58, 88
6, 6598, Note_off_c, 2, 58, 0
6, 6600, Note_on_c, 2, 60, 88
6, 6658, Note_off_c, 2, 60, 0
6, 6660, Note_on_c, 2, 58, 88
6, 6718, Note_off_c, 2, 58, 0
6, 6720, Note_on_c, 2, 57, 88
6, 6895, Note_off_c, 2, 57, 0
6, 6900, Note_on_c, 2, 55, 88
6, 6958, Note_off_c, 2, 55, 0
6, 6960, Note_on_c, 2, 57, 88
6, 7135, Note_off_c, 2, 57, 0
6, 7140, Note_on_c, 2, 53, 88
6, 7198, Note_off_c, 2, 53, 0
6, 7200, Note_on_c, 2, 58, 88
6, 7258, Note_off_c, 2, 58, 0
6, 7260, Note_on_c, 2, 57, 88
6, 7318, Note_off_c, 2, 57, 0
6, 7320, Note_on_c, 2, 58, 88
6, 7378, Note_off_c, 2, 58, 0
6, 7380, Note_on_c, 2, 57, 88
6, 7438, Note_off_c, 2, 57, 0
6, 7440, Note_on_c, 2, 55, 88
6, 7556, Note_off_c, 2, 55, 0
6, 7560, Note_on_c, 2, 57, 88
6, 7618, Note_off_c, 2, 57, 0
6, 7620, Note_on_c, 2, 58, 88
6, 7678, Note_off_c, 2, 58, 0
6, 7680, Note_on_c, 2, 60, 88
6, 7855, Note_off_c, 2, 60, 0
6, 7860, Note_on_c, 2, 58, 88
6, 7918, Note_off_c, 2, 58, 0
6, 7920, Note_on_c, 2, 57, 88
6, 8154, Note_off_c, 2, 57, 0
6, 8280, Note_on_c, 2, 55, 88
6, 8396, Note_off_c, 2, 55, 0
6, 8400, Note_on_c, 2, 54, 88
6, 8516, Note_off_c, 2, 54, 0
6, 8520, Note_on_c, 2, 52, 88
6, 8636, Note_off_c, 2, 52, 0
6, 8640, Note_on_c, 2, 50, 88
6, 8756, Note_off_c, 2, 50, 0
6, 8760, Note_on_c, 2, 54, 88
6, 8876, Note_off_c, 2, 54, 0
6, 8880, Note_on_c, 2, 55, 88
6, 8996, Note_off_c, 2, 55, 0
6, 9000, Note_on_c, 2, 62, 88
6, 9058, Note_off_c, 2, 62, 0
6, 9060, Note_on_c, 2, 64, 88
6, 9118, Note_off_c, 2, 64, 0
6, 9120, Note_on_c, 2, 65, 88
6, 9178, Note_off_c, 2, 65, 0
6, 9180, Note_on_c, 2, 64, 88
6, 9238, Note_off_c, 2, 64, 0
6, 9240, Note_on_c, 2, 65, 88
6, 9356, Note_off_c, 2, 65, 0
6, 9360, Note_on_c, 2, 62, 88
6, 9713, Note_off_c, 2, 62, 0
6, 9720, Note_on_c, 2, 60, 88
6, 9778, Note_off_c, 2, 60, 0
6, 9780, Note_on_c, 2, 58, 88
6, 9838, Note_off_c, 2, 58, 0
6, 9840, Note_on_c, 2, 57, 88
6, 9956, Note_off_c, 2, 57, 0
6, 9960, Note_on_c, 2, 55, 88
6, 10076, Note_off_c, 2, 55, 0
6, 10080, Note_on_c, 2, 60, 88
6, 10433, Note_off_c, 2, 60, 0
6, 10440, Note_on_c, 2, 58, 88
6, 10498, Note_off_c, 2, 58, 0
6, 10500, Note_on_c, 2, 57, 88
6, 10558, Note_off_c, 2, 57, 0
6, 10560, Note_on_c, 2, 55, 88
6, 10676, Note_off_c, 2, 55, 0
6, 10680, Note_on_c, 2, 53, 88
6, 10796, Note_off_c, 2, 53, 0
6, 10800, Note_on_c, 2, 58, 88
6, 11034, Note_off_c, 2, 58, 0
6, 13920, Note_on_c, 2, 62, 88
6, 14154, Note_off_c, 2, 62, 0
6, 14280, Note_on_c, 2, 58, 88
6, 14396, Note_off_c, 2, 58, 0
6, 14400, Note_on_c, 2, 63, 88
6, 14634, Note_off_c, 2, 63, 0
6, 14640, Note_on_c, 2, 60, 88
6, 14874, Note_off_c, 2, 60, 0
6, 15000, Note_on_c, 2, 57, 88
6, 15116, Note_off_c, 2, 57, 0
6, 15120, Note_on_c, 2, 62, 88
6, 15354, Note_off_c, 2, 62, 0
6, 15360, Note_on_c, 2, 58, 88
6, 15594, Note_off_c, 2, 58, 0
6, 15720, Note_on_c, 2, 55, 88
6, 15836, Note_off_c, 2, 55, 0
6, 15840, Note_on_c, 2, 60, 88
6, 15942, Note_off_c, 2, 60, 0
6, 15960, Note_on_c, 2, 60, 88
6, 16062, Note_off_c, 2, 60, 0
6, 16080, Note_on_c, 2, 60, 88
6, 16182, Note_off_c, 2, 60, 0
6, 16200, Note_on_c, 2, 60, 88
6, 16302, Note_off_c, 2, 60, 0
6, 16320, Note_on_c, 2, 60, 88
6, 16422, Note_off_c, 2, 60, 0
6, 16440, Note_on_c, 2, 60, 88
6, 16676, Note_off_c, 2, 60, 0
6, 16680, Note_on_c, 2, 58, 88
6, 16738, Note_off_c, 2, 58, 0
6, 16740, Note_on_c, 2, 57, 88
6, 16798, Note_off_c, 2, 57, 0
6, 16800, Note_on_c, 2, 58, 88
6, 16858, Note_off_c, 2, 58, 0
6, 16860, Note_on_c, 2, 55, 88
6, 16918, Note_off_c, 2, 55, 0
6, 16920, Note_on_c, 2, 57, 88
6, 16978, Note_off_c, 2, 57, 0
6, 16980, Note_on_c, 2, 58, 88
6, 17038, Note_off_c, 2, 58, 0
6, 17040, Note_on_c, 2, 60, 88
6, 17098, Note_off_c, 2, 60, 0
6, 17100, Note_on_c, 2, 58, 88
6, 17158, Note_off_c, 2, 58, 0
6, 17160, Note_on_c, 2, 60, 88
6, 17276, Note_off_c, 2, 60, 0
6, 17280, Note_on_c, 2, 60, 88
6, 17396, Note_off_c, 2, 60, 0
6, 17400, Note_on_c, 2, 65, 88
6, 17458, Note_off_c, 2, 65, 0
6, 17460, Note_on_c, 2, 64, 88
6, 17518, Note_off_c, 2, 64, 0
6, 17520, Note_on_c, 2, 65, 88
6, 17636, Note_off_c, 2, 65, 0
6, 17940, Note_on_c, 2, 65, 88
6, 18042, Note_off_c, 2, 65, 0
6, 18060, Note_on_c, 2, 65, 88
6, 18118, Note_off_c, 2, 65, 0
6, 18120, Note_on_c, 2, 63, 88
6, 18178, Note_off_c, 2, 63, 0
6, 18180, Note_on_c, 2, 62, 88
6, 18238, Note_off_c, 2, 62, 0
6, 18240, Note_on_c, 2, 63, 88
6, 18298, Note_off_c, 2, 63, 0
6, 18300, Note_on_c, 2, 60, 88
6, 18358, Note_off_c, 2, 60, 0
6, 18360, Note_on_c, 2, 66, 88
6, 18418, Note_off_c, 2, 66, 0
6, 18420, Note_on_c, 2, 67, 88
6, 18478, Note_off_c, 2, 67, 0
6, 18480, Note_on_c, 2, 69, 88
6, 18538, Note_off_c, 2, 69, 0
6, 18540, Note_on_c, 2, 67, 88
6, 18598, Note_off_c, 2, 67, 0
6, 18600, Note_on_c, 2, 69, 88
6, 18716, Note_off_c, 2, 69, 0
6, 18720, Note_on_c, 2, 69, 88
6, 18836, Note_off_c, 2, 69, 0
6, 18840, Note_on_c, 2, 67, 88
6, 18898, Note_off_c, 2, 67, 0
6, 18900, Note_on_c, 2, 66, 88
6, 18958, Note_off_c, 2, 66, 0
6, 18960, Note_on_c, 2, 67, 88
6, 19076, Note_off_c, 2, 67, 0
6, 19380, Note_on_c, 2, 61, 88
6, 19438, Note_off_c, 2, 61, 0
6, 19440, Note_on_c, 2, 62, 88
6, 19498, Note_off_c, 2, 62, 0
6, 19500, Note_on_c, 2, 61, 88
6, 19558, Note_off_c, 2, 61, 0
6, 19560, Note_on_c, 2, 62, 88
6, 19618, Note_off_c, 2, 62, 0
6, 19620, Note_on_c, 2, 57, 88
6, 19678, Note_off_c, 2, 57, 0
6, 19680, Note_on_c, 2, 50, 88
6, 19796, Note_off_c, 2, 50, 0
6, 19800, Note_on_c, 2, 62, 88
6, 19858, Note_off_c, 2, 62, 0
6, 19860, Note_on_c, 2, 64, 88
6, 19918, Note_off_c, 2, 64, 0
6, 19920, Note_on_c, 2, 65, 88
6, 20036, Note_off_c, 2, 65, 0
6, 20040, Note_on_c, 2, 62, 88
6, 20156, Note_off_c, 2, 62, 0
6, 20160, Note_on_c, 2, 67, 88
6, 20218, Note_off_c, 2, 67, 0
6, 20220, Note_on_c, 2, 55, 88
6, 20278, Note_off_c, 2, 55, 0
6, 20280, Note_on_c, 2, 57, 88
6, 20338, Note_off_c, 2, 57, 0
6, 20340, Note_on_c, 2, 58, 88
6, 20398, Note_off_c, 2, 58, 0
6, 20400, Note_on_c, 2, 60, 88
6, 20458, Note_off_c, 2, 60, 0
6, 20460, Note_on_c, 2, 55, 88
6, 20518, Note_off_c, 2, 55, 0
6, 20520, Note_on_c, 2, 60, 88
6, 20578, Note_off_c, 2, 60, 0
6, 20580, Note_on_c, 2, 62, 88
6, 20638, Note_off_c, 2, 62, 0
6, 20640, Note_on_c, 2, 64, 88
6, 20756, Note_off_c, 2, 64, 0
6, 20760, Note_on_c, 2, 60, 88
6, 20876, Note_off_c, 2, 60, 0
6, 20880, Note_on_c, 2, 65, 88
6, 20938, Note_off_c, 2, 65, 0
6, 20940, Note_on_c, 2, 53, 88
6, 20998, Note_off_c, 2, 53, 0
6, 21000, Note_on_c, 2, 55, 88
6, 21058, Note_off_c, 2, 55, 0
6, 21060, Note_on_c, 2, 57, 88
6, 21118, Note_off_c, 2, 57, 0
6, 21120, Note_on_c, 2, 58, 88
6, 21178, Note_off_c, 2, 58, 0
6, 21180, Note_on_c, 2, 53, 88
6, 21238, Note_off_c, 2, 53, 0
6, 21240, Note_on_c, 2, 58, 88
6, 21298, Note_off_c, 2, 58, 0
6, 21300, Note_on_c, 2, 60, 88
6, 21358, Note_off_c, 2, 60, 0
6, 21360, Note_on_c, 2, 62, 88
6, 21418, Note_off_c, 2, 62, 0
6, 21420, Note_on_c, 2, 60, 88
6, 21478, Note_off_c, 2, 60, 0
6, 21480, Note_on_c, 2, 58, 88
6, 21538, Note_off_c, 2, 58, 0
6, 21540, Note_on_c, 2, 57, 88
6, 21598, Note_off_c, 2, 57, 0
6, 21600, Note_on_c, 2, 58, 88
6, 21658, Note_off_c, 2, 58, 0
6, 21660, Note_on_c, 2, 62, 88
6, 21718, Note_off_c, 2, 62, 0
6, 21720, Note_on_c, 2, 61, 88
6, 21778, Note_off_c, 2, 61, 0
6, 21780, Note_on_c, 2, 62, 88
6, 21838, Note_off_c, 2, 62, 0
6, 21840, Note_on_c, 2, 55, 88
6, 21898, Note_off_c, 2, 55, 0
6, 21900, Note_on_c, 2, 58, 88
6, 21958, Note_off_c, 2, 58, 0
6, 21960, Note_on_c, 2, 57, 88
6, 22018, Note_off_c, 2, 57, 0
6, 22020, Note_on_c, 2, 58, 88
6, 22078, Note_off_c, 2, 58, 0
6, 22080, Note_on_c, 2, 52, 88
6, 22138, Note_off_c, 2, 52, 0
6, 22140, Note_on_c, 2, 64, 88
6, 22198, Note_off_c, 2, 64, 0
6, 22200, Note_on_c, 2, 61, 88
6, 22258, Note_off_c, 2, 61, 0
6, 22260, Note_on_c, 2, 57, 88
6, 22318, Note_off_c, 2, 57, 0
6, 22320, Note_on_c, 2, 62, 88
6, 22378, Note_off_c, 2, 62, 0
6, 22380, Note_on_c, 2, 50, 88
6, 22438, Note_off_c, 2, 50, 0
6, 22440, Note_on_c, 2, 53, 88
6, 22498, Note_off_c, 2, 53, 0
6, 22500, Note_on_c, 2, 57, 88
6, 22558, Note_off_c, 2, 57, 0
6, 22560, Note_on_c, 2, 62, 88
6, 22618, Note_off_c, 2, 62, 0
6, 22620, Note_on_c, 2, 60, 88
6, 22678, Note_off_c, 2, 60, 0
6, 22680, Note_on_c, 2, 62, 88
6, 22738, Note_off_c, 2, 62, 0
6, 22740, Note_on_c, 2, 60, 88
6, 22798, Note_off_c, 2, 60, 0
6, 22800, Note_on_c, 2, 58, 88
6, 22858, Note_off_c, 2, 58, 0
6, 22860, Note_on_c, 2, 62, 88
6, 22918, Note_off_c, 2, 62, 0
6, 22920, Note_on_c, 2, 55, 88
6, 22978, Note_off_c, 2, 55, 0
6, 22980, Note_on_c, 2, 58, 88
6, 23038, Note_off_c, 2, 58, 0
6, 23040, Note_on_c, 2, 51, 88
6, 23098, Note_off_c, 2, 51, 0
6, 23100, Note_on_c, 2, 55, 88
6, 23158, Note_off_c, 2, 55, 0
6, 23160, Note_on_c, 2, 57, 88
6, 23218, Note_off_c, 2, 57, 0
6, 23220, Note_on_c, 2, 58, 88
6, 23278, Note_off_c, 2, 58, 0
6, 23280, Note_on_c, 2, 60, 88
6, 23338, Note_off_c, 2, 60, 0
6, 23340, Note_on_c, 2, 58, 88
6, 23398, Note_off_c, 2, 58, 0
6, 23400, Note_on_c, 2, 60, 88
6, 23458, Note_off_c, 2, 60, 0
6, 23460, Note_on_c, 2, 58, 88
6, 23518, Note_off_c, 2, 58, 0
6, 23520, Note_on_c, 2, 57, 88
6, 23578, Note_off_c, 2, 57, 0
6, 23580, Note_on_c, 2, 60, 88
6, 23638, Note_off_c, 2, 60, 0
6, 23640, Note_on_c, 2, 53, 88
6, 23698, Note_off_c, 2, 53, 0
6, 23700, Note_on_c, 2, 57, 88
6, 23758, Note_off_c, 2, 57, 0
6, 23760, Note_on_c, 2, 50, 88
6, 23818, Note_off_c, 2, 50, 0
6, 23820, Note_on_c, 2, 53, 88
6, 23878, Note_off_c, 2, 53, 0
6, 23880, Note_on_c, 2, 55, 88
6, 23938, Note_off_c, 2, 55, 0
6, 23940, Note_on_c, 2, 57, 88
6, 23998, Note_off_c, 2, 57, 0
6, 24000, Note_on_c, 2, 58, 88
6, 24058, Note_off_c, 2, 58, 0
6, 24060, Note_on_c, 2, 57, 88
6, 24118, Note_off_c, 2, 57, 0
6, 24120, Note_on_c, 2, 58, 88
6, 24178, Note_off_c, 2, 58, 0
6, 24180, Note_on_c, 2, 57, 88
6, 24238, Note_off_c, 2, 57, 0
6, 24240, Note_on_c, 2, 55, 88
6, 24298, Note_off_c, 2, 55, 0
6, 24300, Note_on_c, 2, 58, 88
6, 24358, Note_off_c, 2, 58, 0
6, 24360, Note_on_c, 2, 51, 88
6, 24418, Note_off_c, 2, 51, 0
6, 24420, Note_on_c, 2, 55, 88
6, 24478, Note_off_c, 2, 55, 0
6, 24480, Note_on_c, 2, 48, 88
6, 24538, Note_off_c, 2, 48, 0
6, 24540, Note_on_c, 2, 55, 88
6, 24598, Note_off_c, 2, 55, 0
6, 24600, Note_on_c, 2, 57, 88
6, 24658, Note_off_c, 2, 57, 0
6, 24660, Note_on_c, 2, 58, 88
6, 24718, Note_off_c, 2, 58, 0
6, 24720, Note_on_c, 2, 60, 88
6, 24778, Note_off_c, 2, 60, 0
6, 24780, Note_on_c, 2, 58, 88
6, 24838, Note_off_c, 2, 58, 0
6, 24840, Note_on_c, 2, 60, 88
6, 24898, Note_off_c, 2, 60, 0
6, 24900, Note_on_c, 2, 58, 88
6, 24958, Note_off_c, 2, 58, 0
6, 24960, Note_on_c, 2, 57, 88
6, 25018, Note_off_c, 2, 57, 0
6, 25020, Note_on_c, 2, 53, 88
6, 25078, Note_off_c, 2, 53, 0
6, 25080, Note_on_c, 2, 55, 88
6, 25138, Note_off_c, 2, 55, 0
6, 25140, Note_on_c, 2, 57, 88
6, 25198, Note_off_c, 2, 57, 0
6, 25200, Note_on_c, 2, 58, 88
6, 25258, Note_off_c, 2, 58, 0
6, 25260, Note_on_c, 2, 57, 88
6, 25318, Note_off_c, 2, 57, 0
6, 25320, Note_on_c, 2, 58, 88
6, 25378, Note_off_c, 2, 58, 0
6, 25380, Note_on_c, 2, 60, 88
6, 25438, Note_off_c, 2, 60, 0
6, 25440, Note_on_c, 2, 62, 88
6, 25498, Note_off_c, 2, 62, 0
6, 25500, Note_on_c, 2, 60, 88
6, 25558, Note_off_c, 2, 60, 0
6, 25560, Note_on_c, 2, 62, 88
6, 25618, Note_off_c, 2, 62, 0
6, 25620, Note_on_c, 2, 64, 88
6, 25678, Note_off_c, 2, 64, 0
6, 25680, Note_on_c, 2, 65, 88
6, 25738, Note_off_c, 2, 65, 0
6, 25740, Note_on_c, 2, 64, 88
6, 25798, Note_off_c, 2, 64, 0
6, 25800, Note_on_c, 2, 65, 88
6, 26154, Note_off_c, 2, 65, 0
6, 26160, Note_on_c, 2, 62, 88
6, 26394, Note_off_c, 2, 62, 0
6, 26400, Note_on_c, 2, 64, 88
6, 26874, Note_off_c, 2, 64, 0
6, 26880, Note_on_c, 2, 60, 88
6, 27114, Note_off_c, 2, 60, 0
6, 27120, Note_on_c, 2, 62, 88
6, 27830, Note_off_c, 2, 62, 0
6, 27840, Note_on_c, 2, 60, 88
6, 28314, Note_off_c, 2, 60, 0
6, 31920, Note_on_c, 2, 60, 88
6, 32154, Note_off_c, 2, 60, 0
6, 32280, Note_on_c, 2, 57, 88
6, 32396, Note_off_c, 2, 57, 0
6, 32400, Note_on_c, 2, 62, 88
6, 32634, Note_off_c, 2, 62, 0
6, 32640, Note_on_c, 2, 58, 88
6, 32874, Note_off_c, 2, 58, 0
6, 33000, Note_on_c, 2, 55, 88
6, 33116, Note_off_c, 2, 55, 0
6, 33120, Note_on_c, 2, 60, 88
6, 33354, Note_off_c, 2, 60, 0
6, 33360, Note_on_c, 2, 57, 88
6, 33594, Note_off_c, 2, 57, 0
6, 33720, Note_on_c, 2, 53, 88
6, 33836, Note_off_c, 2, 53, 0
6, 33840, Note_on_c, 2, 58, 88
6, 33942, Note_off_c, 2, 58, 0
6, 33960, Note_on_c, 2, 58, 88
6, 34062, Note_off_c, 2, 58, 0
6, 34080, Note_on_c, 2, 58, 88
6, 34182, Note_off_c, 2, 58, 0
6, 34200, Note_on_c, 2, 58, 88
6, 34302, Note_off_c, 2, 58, 0
6, 34320, Note_on_c, 2, 58, 88
6, 34422, Note_off_c, 2, 58, 0
6, 34440, Note_on_c, 2, 58, 88
6, 34556, Note_off_c, 2, 58, 0
6, 34560, Note_on_c, 2, 58, 88
6, 34676, Note_off_c, 2, 58, 0
6, 34680, Note_on_c, 2, 57, 88
6, 34738, Note_off_c, 2, 57, 0
6, 34740, Note_on_c, 2, 55, 88
6, 34798, Note_off_c, 2, 55, 0
6, 34800, Note_on_c, 2, 57, 88
6, 34858, Note_off_c, 2, 57, 0
6, 34860, Note_on_c, 2, 55, 88
6, 34918, Note_off_c, 2, 55, 0
6, 34920, Note_on_c, 2, 57, 88
6, 34978, Note_off_c, 2, 57, 0
6, 34980, Note_on_c, 2, 59, 88
6, 35038, Note_off_c, 2, 59, 0
6, 35040, Note_on_c, 2, 60, 88
6, 35098, Note_off_c, 2, 60, 0
6, 35100, Note_on_c, 2, 59, 88
6, 35158, Note_off_c, 2, 59, 0
6, 35160, Note_on_c, 2, 60, 88
6, 35396, Note_off_c, 2, 60, 0
6, 35400, Note_on_c, 2, 59, 88
6, 35458, Note_off_c, 2, 59, 0
6, 35460, Note_on_c, 2, 57, 88
6, 35518, Note_off_c, 2, 57, 0
6, 35520, Note_on_c, 2, 55, 88
6, 35578, Note_off_c, 2, 55, 0
6, 35580, Note_on_c, 2, 50, 88
6, 35638, Note_off_c, 2, 50, 0
6, 35640, Note_on_c, 2, 55, 88
6, 35698, Note_off_c, 2, 55, 0
6, 35700, Note_on_c, 2, 57, 88
6, 35758, Note_off_c, 2, 57, 0
6, 35760, Note_on_c, 2, 59, 88
6, 35818, Note_off_c, 2, 59, 0
6, 35820, Note_on_c, 2, 60, 88
6, 35878, Note_off_c, 2, 60, 0
6, 35880, Note_on_c, 2, 62, 88
6, 36116, Note_off_c, 2, 62, 0
6, 36120, Note_on_c, 2, 60, 88
6, 36236, Note_off_c, 2, 60, 0
6, 36300, Note_on_c, 2, 55, 88
6, 36358, Note_off_c, 2, 55, 0
6, 36360, Note_on_c, 2, 57, 88
6, 36418, Note_off_c, 2, 57, 0
6, 36420, Note_on_c, 2, 59, 88
6, 36478, Note_off_c, 2, 59, 0
6, 36480, Note_on_c, 2, 60, 88
6, 36538, Note_off_c, 2, 60, 0
6, 36540, Note_on_c, 2, 59, 88
6, 36598, Note_off_c, 2, 59, 0
6, 36600, Note_on_c, 2, 60, 88
6, 36716, Note_off_c, 2, 60, 0
6, 36720, Note_on_c, 2, 60, 88
6, 36836, Note_off_c, 2, 60, 0
6, 36840, Note_on_c, 2, 53, 88
6, 36956, Note_off_c, 2, 53, 0
6, 37020, Note_on_c, 2, 53, 88
6, 37078, Note_off_c, 2, 53, 0
6, 37080, Note_on_c, 2, 55, 88
6, 37138, Note_off_c, 2, 55, 0
6, 37140, Note_on_c, 2, 56, 88
6, 37198, Note_off_c, 2, 56, 0
6, 37200, Note_on_c, 2, 58, 88
6, 37258, Note_off_c, 2, 58, 0
6, 37260, Note_on_c, 2, 56, 88
6, 37318, Note_off_c, 2, 56, 0
6, 37320, Note_on_c, 2, 58, 88
6, 37436, Note_off_c, 2, 58, 0
6, 37440, Note_on_c, 2, 58, 88
6, 37556, Note_off_c, 2, 58, 0
6, 37560, Note_on_c, 2, 51, 88
6, 37676, Note_off_c, 2, 51, 0
6, 37740, Note_on_c, 2, 51, 88
6, 37798, Note_off_c, 2, 51, 0
6, 37800, Note_on_c, 2, 53, 88
6, 37858, Note_off_c, 2, 53, 0
6, 37860, Note_on_c, 2, 55, 88
6, 37918, Note_off_c, 2, 55, 0
6, 37920, Note_on_c, 2, 56, 88
6, 37978, Note_off_c, 2, 56, 0
6, 37980, Note_on_c, 2, 55, 88
6, 38038, Note_off_c, 2, 55, 0
6, 38040, Note_on_c, 2, 56, 88
6, 38218, Note_off_c, 2, 56, 0
6, 38220, Note_on_c, 2, 55, 88
6, 38278, Note_off_c, 2, 55, 0
6, 38280, Note_on_c, 2, 56, 88
6, 38338, Note_off_c, 2, 56, 0
6, 38340, Note_on_c, 2, 55, 88
6, 38398, Note_off_c, 2, 55, 0
6, 38400, Note_on_c, 2, 53, 88
6, 38458, Note_off_c, 2, 53, 0
6, 38460, Note_on_c, 2, 51, 88
6, 38518, Note_off_c, 2, 51, 0
6, 38520, Note_on_c, 2, 53, 88
6, 38578, Note_off_c, 2, 53, 0
6, 38580, Note_on_c, 2, 51, 88
6, 38638, Note_off_c, 2, 51, 0
6, 38640, Note_on_c, 2, 50, 88
6, 38698, Note_off_c, 2, 50, 0
6, 38700, Note_on_c, 2, 48, 88
6, 38758, Note_off_c, 2, 48, 0
6, 38760, Note_on_c, 2, 50, 88
6, 38818, Note_off_c, 2, 50, 0
6, 38820, Note_on_c, 2, 48, 88
6, 38878, Note_off_c, 2, 48, 0
6, 38880, Note_on_c, 2, 47, 88
6, 38996, Note_off_c, 2, 47, 0
6, 39000, Note_on_c, 2, 59, 88
6, 39102, Note_off_c, 2, 59, 0
6, 39120, Note_on_c, 2, 59, 88
6, 39222, Note_off_c, 2, 59, 0
6, 39240, Note_on_c, 2, 59, 88
6, 39356, Note_off_c, 2, 59, 0
6, 39360, Note_on_c, 2, 60, 88
6, 39476, Note_off_c, 2, 60, 0
6, 39480, Note_on_c, 2, 62, 88
6, 39716, Note_off_c, 2, 62, 0
6, 39720, Note_on_c, 2, 55, 88
6, 39836, Note_off_c, 2, 55, 0
6, 39840, Note_on_c, 2, 60, 88
6, 40193, Note_off_c, 2, 60, 0
6, 40200, Note_on_c, 2, 65, 88
6, 40316, Note_off_c, 2, 65, 0
6, 40320, Note_on_c, 2, 62, 88
6, 40790, Note_off_c, 2, 62, 0
6, 40800, Note_on_c, 2, 61, 88
6, 41034, Note_off_c, 2, 61, 0
6, 41040, Note_on_c, 2, 60, 88
6, 41510, Note_off_c, 2, 60, 0
6, 41520, Note_on_c, 2, 59, 88
6, 41754, Note_off_c, 2, 59, 0
6, 41760, Note_on_c, 2, 58, 88
6, 41994, Note_off_c, 2, 58, 0
6, 42000, Note_on_c, 2, 62, 88
6, 42234, Note_off_c, 2, 62, 0
6, 42360, Note_on_c, 2, 58, 88
6, 42476, Note_off_c, 2, 58, 0
6, 42480, Note_on_c, 2, 63, 88
6, 42714, Note_off_c, 2, 63, 0
6, 42720, Note_on_c, 2, 60, 88
6, 42954, Note_off_c, 2, 60, 0
6, 43080, Note_on_c, 2, 56, 88
6, 43196, Note_off_c, 2, 56, 0
6, 43200, Note_on_c, 2, 62, 88
6, 43434, Note_off_c, 2, 62, 0
6, 43440, Note_on_c, 2, 58, 88
6, 43674, Note_off_c, 2, 58, 0
6, 43800, Note_on_c, 2, 55, 88
6, 43916, Note_off_c, 2, 55, 0
6, 43920, Note_on_c, 2, 60, 88
6, 44022, Note_off_c, 2, 60, 0
6, 44040, Note_on_c, 2, 60, 88
6, 44142, Note_off_c, 2, 60, 0
6, 44160, Note_on_c, 2, 60, 88
6, 44262, Note_off_c, 2, 60, 0
6, 44280, Note_on_c, 2, 60, 88
6, 44382, Note_off_c, 2, 60, 0
6, 44400, Note_on_c, 2, 60, 88
6, 44502, Note_off_c, 2, 60, 0
6, 44520, Note_on_c, 2, 60, 88
6, 44636, Note_off_c, 2, 60, 0
6, 44640, Note_on_c, 2, 62, 88
6, 44698, Note_off_c, 2, 62, 0
6, 44700, Note_on_c, 2, 60, 88
6, 44758, Note_off_c, 2, 60, 0
6, 44760, Note_on_c, 2, 62, 88
6, 44818, Note_off_c, 2, 62, 0
6, 44820, Note_on_c, 2, 60, 88
6, 44878, Note_off_c, 2, 60, 0
6, 44880, Note_on_c, 2, 58, 88
6, 44938, Note_off_c, 2, 58, 0
6, 44940, Note_on_c, 2, 56, 88
6, 44998, Note_off_c, 2, 56, 0
6, 45000, Note_on_c, 2, 58, 88
6, 45058, Note_off_c, 2, 58, 0
6, 45060, Note_on_c, 2, 56, 88
6, 45118, Note_off_c, 2, 56, 0
6, 45120, Note_on_c, 2, 55, 88
6, 45178, Note_off_c, 2, 55, 0
6, 45180, Note_on_c, 2, 53, 88
6, 45238, Note_off_c, 2, 53, 0
6, 45240, Note_on_c, 2, 55, 88
6, 45298, Note_off_c, 2, 55, 0
6, 45300, Note_on_c, 2, 53, 88
6, 45358, Note_off_c, 2, 53, 0
6, 45360, Note_on_c, 2, 51, 88
6, 45476, Note_off_c, 2, 51, 0
6, 45480, Note_on_c, 2, 63, 88
6, 45582, Note_off_c, 2, 63, 0
6, 45600, Note_on_c, 2, 63, 88
6, 45702, Note_off_c, 2, 63, 0
6, 45720, Note_on_c, 2, 63, 88
6, 45822, Note_off_c, 2, 63, 0
6, 45840, Note_on_c, 2, 63, 88
6, 45942, Note_off_c, 2, 63, 0
6, 45960, Note_on_c, 2, 63, 88
6, 46076, Note_off_c, 2, 63, 0
6, 46080, Note_on_c, 2, 63, 88
6, 46138, Note_off_c, 2, 63, 0
6, 46140, Note_on_c, 2, 62, 88
6, 46198, Note_off_c, 2, 62, 0
6, 46200, Note_on_c, 2, 63, 88
6, 46258, Note_off_c, 2, 63, 0
6, 46260, Note_on_c, 2, 62, 88
6, 46318, Note_off_c, 2, 62, 0
6, 46320, Note_on_c, 2, 60, 88
6, 46378, Note_off_c, 2, 60, 0
6, 46380, Note_on_c, 2, 58, 88
6, 46438, Note_off_c, 2, 58, 0
6, 46440, Note_on_c, 2, 60, 88
6, 46498, Note_off_c, 2, 60, 0
6, 46500, Note_on_c, 2, 58, 88
6, 46558, Note_off_c, 2, 58, 0
6, 46560, Note_on_c, 2, 57, 88
6, 46618, Note_off_c, 2, 57, 0
6, 46620, Note_on_c, 2, 55, 88
6, 46678, Note_off_c, 2, 55, 0
6, 46680, Note_on_c, 2, 57, 88
6, 46738, Note_off_c, 2, 57, 0
6, 46740, Note_on_c, 2, 55, 88
6, 46798, Note_off_c, 2, 55, 0
6, 46800, Note_on_c, 2, 54, 88
6, 46916, Note_off_c, 2, 54, 0
6, 46920, Note_on_c, 2, 57, 88
6, 47036, Note_off_c, 2, 57, 0
6, 47040, Note_on_c, 2, 58, 88
6, 47156, Note_off_c, 2, 58, 0
6, 47160, Note_on_c, 2, 54, 88
6, 47276, Note_off_c, 2, 54, 0
6, 47280, Note_on_c, 2, 55, 88
6, 47514, Note_off_c, 2, 55, 0
6, 47520, Note_on_c, 2, 57, 88
6, 47636, Note_off_c, 2, 57, 0
6, 47760, Note_on_c, 2, 62, 88
6, 47994, Note_off_c, 2, 62, 0
6, 48120, Note_on_c, 2, 58, 88
6, 48236, Note_off_c, 2, 58, 0
6, 48240, Note_on_c, 2, 63, 88
6, 48474, Note_off_c, 2, 63, 0
6, 48480, Note_on_c, 2, 60, 88
6, 48714, Note_off_c, 2, 60, 0
6, 48840, Note_on_c, 2, 57, 88
6, 48956, Note_off_c, 2, 57, 0
6, 48960, Note_on_c, 2, 62, 88
6, 49194, Note_off_c, 2, 62, 0
6, 49200, Note_on_c, 2, 58, 88
6, 49434, Note_off_c, 2, 58, 0
6, 49560, Note_on_c, 2, 55, 88
6, 49676, Note_off_c, 2, 55, 0
6, 49680, Note_on_c, 2, 60, 88
6, 49914, Note_off_c, 2, 60, 0
6, 49920, Note_on_c, 2, 57, 88
6, 50154, Note_off_c, 2, 57, 0
6, 50280, Note_on_c, 2, 53, 88
6, 50396, Note_off_c, 2, 53, 0
6, 50400, Note_on_c, 2, 58, 88
6, 50634, Note_off_c, 2, 58, 0
6, 50640, Note_on_c, 2, 55, 88
6, 50874, Note_off_c, 2, 55, 0
6, 51000, Note_on_c, 2, 58, 88
6, 51116, Note_off_c, 2, 58, 0
6, 51120, Note_on_c, 2, 57, 88
6, 51236, Note_off_c, 2, 57, 0
6, 51240, Note_on_c, 2, 55, 88
6, 51356, Note_off_c, 2, 55, 0
6, 51360, Note_on_c, 2, 63, 88
6, 51462, Note_off_c, 2, 63, 0
6, 51480, Note_on_c, 2, 63, 88
6, 51582, Note_off_c, 2, 63, 0
6, 51600, Note_on_c, 2, 63, 88
6, 51702, Note_off_c, 2, 63, 0
6, 51720, Note_on_c, 2, 63, 88
6, 51836, Note_off_c, 2, 63, 0
6, 51840, Note_on_c, 2, 62, 88
6, 52074, Note_off_c, 2, 62, 0
6, 52200, Note_on_c, 2, 62, 88
6, 52302, Note_off_c, 2, 62, 0
6, 52320, Note_on_c, 2, 62, 88
6, 52554, Note_off_c, 2, 62, 0
6, 52680, Note_on_c, 2, 63, 88
6, 52796, Note_off_c, 2, 63, 0
6, 52800, Note_on_c, 2, 62, 88
6, 53034, Note_off_c, 2, 62, 0
6, 53040, Note_on_c, 2, 60, 88
6, 53274, Note_off_c, 2, 60, 0
6, 53280, Note_on_c, 2, 58, 88
6, 53514, Note_off_c, 2, 58, 0
6, 53820, Note_on_c, 2, 57, 88
6, 53878, Note_off_c, 2, 57, 0
6, 53880, Note_on_c, 2, 58, 88
6, 53938, Note_off_c, 2, 58, 0
6, 53940, Note_on_c, 2, 60, 88
6, 53998, Note_off_c, 2, 60, 0
6, 54000, Note_on_c, 2, 62, 88
6, 54058, Note_off_c, 2, 62, 0
6, 54060, Note_on_c, 2, 61, 88
6, 54118, Note_off_c, 2, 61, 0
6, 54120, Note_on_c, 2, 62, 88
6, 54354, Note_off_c, 2, 62, 0
6, 54360, Note_on_c, 2, 57, 88
6, 54418, Note_off_c, 2, 57, 0
6, 54420, Note_on_c, 2, 59, 88
6, 54478, Note_off_c, 2, 59, 0
6, 54480, Note_on_c, 2, 60, 88
6, 54538, Note_off_c, 2, 60, 0
6, 54540, Note_on_c, 2, 59, 88
6, 54598, Note_off_c, 2, 59, 0
6, 54600, Note_on_c, 2, 60, 88
6, 54716, Note_off_c, 2, 60, 0
6, 54720, Note_on_c, 2, 62, 88
6, 54836, Note_off_c, 2, 62, 0
6, 55140, Note_on_c, 2, 62, 88
6, 55198, Note_off_c, 2, 62, 0
6, 55200, Note_on_c, 2, 60, 88
6, 55258, Note_off_c, 2, 60, 0
6, 55260, Note_on_c, 2, 58, 88
6, 55318, Note_off_c, 2, 58, 0
6, 55320, Note_on_c, 2, 60, 88
6, 55378, Note_off_c, 2, 60, 0
6, 55380, Note_on_c, 2, 58, 88
6, 55438, Note_off_c, 2, 58, 0
6, 55440, Note_on_c, 2, 57, 88
6, 55674, Note_off_c, 2, 57, 0
6, 55800, Note_on_c, 2, 60, 88
6, 55916, Note_off_c, 2, 60, 0
6, 55920, Note_on_c, 2, 62, 88
6, 56154, Note_off_c, 2, 62, 0
6, 56460, Note_on_c, 2, 57, 88
6, 56518, Note_off_c, 2, 57, 0
6, 56520, Note_on_c, 2, 58, 88
6, 56578, Note_off_c, 2, 58, 0
6, 56580, Note_on_c, 2, 60, 88
6, 56638, Note_off_c, 2, 60, 0
6, 56640, Note_on_c, 2, 62, 88
6, 56938, Note_off_c, 2, 62, 0
6, 56940, Note_on_c, 2, 55, 88
6, 56998, Note_off_c, 2, 55, 0
6, 57000, Note_on_c, 2, 57, 88
6, 57058, Note_off_c, 2, 57, 0
6, 57060, Note_on_c, 2, 59, 88
6, 57118, Note_off_c, 2, 59, 0
6, 57120, Note_on_c, 2, 60, 88
6, 57178, Note_off_c, 2, 60, 0
6, 57180, Note_on_c, 2, 59, 88
6, 57238, Note_off_c, 2, 59, 0
6, 57240, Note_on_c, 2, 60, 88
6, 57342, Note_off_c, 2, 60, 0
6, 57360, Note_on_c, 2, 60, 88
6, 57594, Note_off_c, 2, 60, 0
6, 57660, Note_on_c, 2, 57, 88
6, 57718, Note_off_c, 2, 57, 0
6, 57720, Note_on_c, 2, 59, 88
6, 57778, Note_off_c, 2, 59, 0
6, 57780, Note_on_c, 2, 60, 88
6, 57838, Note_off_c, 2, 60, 0
6, 57840, Note_on_c, 2, 62, 88
6, 57898, Note_off_c, 2, 62, 0
6, 57900, Note_on_c, 2, 60, 88
6, 57958, Note_off_c, 2, 60, 0
6, 57960, Note_on_c, 2, 62, 88
6, 58062, Note_off_c, 2, 62, 0
6, 58080, Note_on_c, 2, 62, 88
6, 58436, Note_off_c, 2, 62, 0
6, 58440, Note_on_c, 2, 65, 88
6, 58556, Note_off_c, 2, 65, 0
6, 58560, Note_on_c, 2, 63, 88
6, 58676, Note_off_c, 2, 63, 0
6, 58680, Note_on_c, 2, 62, 88
6, 58796, Note_off_c, 2, 62, 0
6, 58800, Note_on_c, 2, 60, 88
6, 58916, Note_off_c, 2, 60, 0
6, 58920, Note_on_c, 2, 58, 88
6, 59036, Note_off_c, 2, 58, 0
6, 59040, Note_on_c, 2, 57, 88
6, 59156, Note_off_c, 2, 57, 0
6, 59400, Note_on_c, 2, 58, 88
6, 59516, Note_off_c, 2, 58, 0
6, 59520, Note_on_c, 2, 57, 88
6, 59578, Note_off_c, 2, 57, 0
6, 59580, Note_on_c, 2, 58, 88
6, 59638, Note_off_c, 2, 58, 0
6, 59640, Note_on_c, 2, 60, 88
6, 59876, Note_off_c, 2, 60, 0
6, 59880, Note_on_c, 2, 59, 88
6, 59996, Note_off_c, 2, 59, 0
6, 59996, End_track
7, 0, Start_track
7, 0, Title_t, "Track 4"
7, 0, Program_c, 3, 6
7, 8880, Note_on_c, 3, 55, 88
7, 9114, Note_off_c, 3, 55, 0
7, 9240, Note_on_c, 3, 53, 88
7, 9356, Note_off_c, 3, 53, 0
7, 9360, Note_on_c, 3, 58, 88
7, 9594, Note_off_c, 3, 58, 0
7, 9600, Note_on_c, 3, 55, 88
7, 9834, Note_off_c, 3, 55, 0
7, 9960, Note_on_c, 3, 52, 88
7, 10076, Note_off_c, 3, 52, 0
7, 10080, Note_on_c, 3, 57, 88
7, 10314, Note_off_c, 3, 57, 0
7, 10320, Note_on_c, 3, 53, 88
7, 10554, Note_off_c, 3, 53, 0
7, 10680, Note_on_c, 3, 50, 88
7, 10796, Note_off_c, 3, 50, 0
7, 10800, Note_on_c, 3, 55, 88
7, 10902, Note_off_c, 3, 55, 0
7, 10920, Note_on_c, 3, 55, 88
7, 11022, Note_off_c, 3, 55, 0
7, 11040, Note_on_c, 3, 55, 88
7, 11142, Note_off_c, 3, 55, 0
7, 11160, Note_on_c, 3, 55, 88
7, 11262, Note_off_c, 3, 55, 0
7, 11280, Note_on_c, 3, 55, 88
7, 11382, Note_off_c, 3, 55, 0
7, 11400, Note_on_c, 3, 55, 88
7, 11516, Note_off_c, 3, 55, 0
7, 11520, Note_on_c, 3, 55, 88
7, 11636, Note_off_c, 3, 55, 0
7, 11640, Note_on_c, 3, 53, 88
7, 11698, Note_off_c, 3, 53, 0
7, 11700, Note_on_c, 3, 52, 88
7, 11758, Note_off_c, 3, 52, 0
7, 11760, Note_on_c, 3, 53, 88
7, 11818, Note_off_c, 3, 53, 0
7, 11820, Note_on_c, 3, 50, 88
7, 11878, Note_off_c, 3, 50, 0
7, 11880, Note_on_c, 3, 51, 88
7, 11938, Note_off_c, 3, 51, 0
7, 11940, Note_on_c, 3, 53, 88
7, 11998, Note_off_c, 3, 53, 0
7, 12000, Note_on_c, 3, 55, 88
7, 12058, Note_off_c, 3, 55, 0
7, 12060, Note_on_c, 3, 53, 88
7, 12118, Note_off_c, 3, 53, 0
7, 12120, Note_on_c, 3, 55, 88
7, 12236, Note_off_c, 3, 55, 0
7, 12240, Note_on_c, 3, 48, 88
7, 12298, Note_off_c, 3, 48, 0
7, 12300, Note_on_c, 3, 47, 88
7, 12358, Note_off_c, 3, 47, 0
7, 12360, Note_on_c, 3, 48, 88
7, 12418, Note_off_c, 3, 48, 0
7, 12420, Note_on_c, 3, 50, 88
7, 12478, Note_off_c, 3, 50, 0
7, 12480, Note_on_c, 3, 51, 88
7, 12538, Note_off_c, 3, 51, 0
7, 12540, Note_on_c, 3, 48, 88
7, 12598, Note_off_c, 3, 48, 0
7, 12600, Note_on_c, 3, 50, 88
7, 12658, Note_off_c, 3, 50, 0
7, 12660, Note_on_c, 3, 51, 88
7, 12718, Note_off_c, 3, 51, 0
7, 12720, Note_on_c, 3, 53, 88
7, 12778, Note_off_c, 3, 53, 0
7, 12780, Note_on_c, 3, 51, 88
7, 12838, Note_off_c, 3, 51, 0
7, 12840, Note_on_c, 3, 53, 88
7, 12956, Note_off_c, 3, 53, 0
7, 12960, Note_on_c, 3, 46, 88
7, 13018, Note_off_c, 3, 46, 0
7, 13020, Note_on_c, 3, 53, 88
7, 13078, Note_off_c, 3, 53, 0
7, 13080, Note_on_c, 3, 55, 88
7, 13138, Note_off_c, 3, 55, 0
7, 13140, Note_on_c, 3, 57, 88
7, 13198, Note_off_c, 3, 57, 0
7, 13200, Note_on_c, 3, 58, 88
7, 13258, Note_off_c, 3, 58, 0
7, 13260, Note_on_c, 3, 57, 88
7, 13318, Note_off_c, 3, 57, 0
7, 13320, Note_on_c, 3, 58, 88
7, 13436, Note_off_c, 3, 58, 0
7, 13500, Note_on_c, 3, 52, 88
7, 13558, Note_off_c, 3, 52, 0
7, 13560, Note_on_c, 3, 54, 88
7, 13618, Note_off_c, 3, 54, 0
7, 13620, Note_on_c, 3, 55, 88
7, 13678, Note_off_c, 3, 55, 0
7, 13680, Note_on_c, 3, 57, 88
7, 13738, Note_off_c, 3, 57, 0
7, 13740, Note_on_c, 3, 55, 88
7, 13798, Note_off_c, 3, 55, 0
7, 13800, Note_on_c, 3, 57, 88
7, 13916, Note_off_c, 3, 57, 0
7, 13980, Note_on_c, 3, 50, 88
7, 14038, Note_off_c, 3, 50, 0
7, 14040, Note_on_c, 3, 52, 88
7, 14098, Note_off_c, 3, 52, 0
7, 14100, Note_on_c, 3, 54, 88
7, 14158, Note_off_c, 3, 54, 0
7, 14160, Note_on_c, 3, 55, 88
7, 14218, Note_off_c, 3, 55, 0
7, 14220, Note_on_c, 3, 54, 88
7, 14278, Note_off_c, 3, 54, 0
7, 14280, Note_on_c, 3, 55, 88
7, 14396, Note_off_c, 3, 55, 0
7, 14400, Note_on_c, 3, 55, 88
7, 14516, Note_off_c, 3, 55, 0
7, 14520, Note_on_c, 3, 48, 88
7, 14636, Note_off_c, 3, 48, 0
7, 14700, Note_on_c, 3, 48, 88
7, 14758, Note_off_c, 3, 48, 0
7, 14760, Note_on_c, 3, 50, 88
7, 14818, Note_off_c, 3, 50, 0
7, 14820, Note_on_c, 3, 51, 88
7, 14878, Note_off_c, 3, 51, 0
7, 14880, Note_on_c, 3, 53, 88
7, 14938, Note_off_c, 3, 53, 0
7, 14940, Note_on_c, 3, 51, 88
7, 14998, Note_off_c, 3, 51, 0
7, 15000, Note_on_c, 3, 53, 88
7, 15116, Note_off_c, 3, 53, 0
7, 15120, Note_on_c, 3, 53, 88
7, 15236, Note_off_c, 3, 53, 0
7, 15240, Note_on_c, 3, 46, 88
7, 15356, Note_off_c, 3, 46, 0
7, 15420, Note_on_c, 3, 46, 88
7, 15478, Note_off_c, 3, 46, 0
7, 15480, Note_on_c, 3, 48, 88
7, 15538, Note_off_c, 3, 48, 0
7, 15540, Note_on_c, 3, 50, 88
7, 15598, Note_off_c, 3, 50, 0
7, 15600, Note_on_c, 3, 51, 88
7, 15658, Note_off_c, 3, 51, 0
7, 15660, Note_on_c, 3, 50, 88
7, 15718, Note_off_c, 3, 50, 0
7, 15720, Note_on_c, 3, 51, 88
7, 15898, Note_off_c, 3, 51, 0
7, 15900, Note_on_c, 3, 50, 88
7, 15958, Note_off_c, 3, 50, 0
7, 15960, Note_on_c, 3, 51, 88
7, 16018, Note_off_c, 3, 51, 0
7, 16020, Note_on_c, 3, 50, 88
7, 16078, Note_off_c, 3, 50, 0
7, 16080, Note_on_c, 3, 48, 88
7, 16138, Note_off_c, 3, 48, 0
7, 16140, Note_on_c, 3, 46, 88
7, 16198, Note_off_c, 3, 46, 0
7, 16200, Note_on_c, 3, 48, 88
7, 16258, Note_off_c, 3, 48, 0
7, 16260, Note_on_c, 3, 46, 88
7, 16318, Note_off_c, 3, 46, 0
7, 16320, Note_on_c, 3, 45, 88
7, 16378, Note_off_c, 3, 45, 0
7, 16380, Note_on_c, 3, 43, 88
7, 16438, Note_off_c, 3, 43, 0
7, 16440, Note_on_c, 3, 45, 88
7, 16498, Note_off_c, 3, 45, 0
7, 16500, Note_on_c, 3, 43, 88
7, 16558, Note_off_c, 3, 43, 0
7, 16560, Note_on_c, 3, 42, 88
7, 16676, Note_off_c, 3, 42, 0
7, 16680, Note_on_c, 3, 50, 88
7, 16796, Note_off_c, 3, 50, 0
7, 16800, Note_on_c, 3, 43, 88
7, 16916, Note_off_c, 3, 43, 0
7, 16920, Note_on_c, 3, 53, 88
7, 17036, Note_off_c, 3, 53, 0
7, 17040, Note_on_c, 3, 52, 88
7, 17156, Note_off_c, 3, 52, 0
7, 17160, Note_on_c, 3, 48, 88
7, 17276, Note_off_c, 3, 48, 0
7, 17280, Note_on_c, 3, 53, 88
7, 17396, Note_off_c, 3, 53, 0
7, 17400, Note_on_c, 3, 57, 88
7, 17516, Note_off_c, 3, 57, 0
7, 17520, Note_on_c, 3, 50, 88
7, 17636, Note_off_c, 3, 50, 0
7, 17640, Note_on_c, 3, 60, 88
7, 17756, Note_off_c, 3, 60, 0
7, 17760, Note_on_c, 3, 59, 88
7, 17876, Note_off_c, 3, 59, 0
7, 17880, Note_on_c, 3, 55, 88
7, 17996, Note_off_c, 3, 55, 0
7, 18000, Note_on_c, 3, 60, 88
7, 18116, Note_off_c, 3, 60, 0
7, 18120, Note_on_c, 3, 55, 88
7, 18236, Note_off_c, 3, 55, 0
7, 18240, Note_on_c, 3, 48, 88
7, 18356, Note_off_c, 3, 48, 0
7, 18360, Note_on_c, 3, 57, 88
7, 18476, Note_off_c, 3, 57, 0
7, 18480, Note_on_c, 3, 54, 88
7, 18596, Note_off_c, 3, 54, 0
7, 18600, Note_on_c, 3, 50, 88
7, 18716, Note_off_c, 3, 50, 0
7, 18720, Note_on_c, 3, 55, 88
7, 18836, Note_off_c, 3, 55, 0
7, 18840, Note_on_c, 3, 58, 88
7, 18956, Note_off_c, 3, 58, 0
7, 18960, Note_on_c, 3, 52, 88
7, 19076, Note_off_c, 3, 52, 0
7, 19080, Note_on_c, 3, 62, 88
7, 19196, Note_off_c, 3, 62, 0
7, 19200, Note_on_c, 3, 61, 88
7, 19316, Note_off_c, 3, 61, 0
7, 19320, Note_on_c, 3, 57, 88
7, 19436, Note_off_c, 3, 57, 0
7, 19440, Note_on_c, 3, 62, 88
7, 19498, Note_off_c, 3, 62, 0
7, 25440, Note_on_c, 3, 58, 88
7, 25674, Note_off_c, 3, 58, 0
7, 25800, Note_on_c, 3, 57, 88
7, 25916, Note_off_c, 3, 57, 0
7, 25920, Note_on_c, 3, 62, 88
7, 26154, Note_off_c, 3, 62, 0
7, 26160, Note_on_c, 3, 58, 88
7, 26394, Note_off_c, 3, 58, 0
7, 26520, Note_on_c, 3, 55, 88
7, 26636, Note_off_c, 3, 55, 0
7, 26640, Note_on_c, 3, 60, 88
7, 26874, Note_off_c, 3, 60, 0
7, 26880, Note_on_c, 3, 57, 88
7, 27114, Note_off_c, 3, 57, 0
7, 27240, Note_on_c, 3, 53, 88
7, 27356, Note_off_c, 3, 53, 0
7, 27360, Note_on_c, 3, 58, 88
7, 27462, Note_off_c, 3, 58, 0
7, 27480, Note_on_c, 3, 58, 88
7, 27582, Note_off_c, 3, 58, 0
7, 27600, Note_on_c, 3, 58, 88
7, 27702, Note_off_c, 3, 58, 0
7, 27720, Note_on_c, 3, 58, 88
7, 27822, Note_off_c, 3, 58, 0
7, 27840, Note_on_c, 3, 58, 88
7, 27942, Note_off_c, 3, 58, 0
7, 27960, Note_on_c, 3, 58, 88
7, 28076, Note_off_c, 3, 58, 0
7, 28080, Note_on_c, 3, 58, 88
7, 28196, Note_off_c, 3, 58, 0
7, 28200, Note_on_c, 3, 57, 88
7, 28258, Note_off_c, 3, 57, 0
7, 28260, Note_on_c, 3, 55, 88
7, 28318, Note_off_c, 3, 55, 0
7, 28320, Note_on_c, 3, 57, 88
7, 28378, Note_off_c, 3, 57, 0
7, 28380, Note_on_c, 3, 53, 88
7, 28438, Note_off_c, 3, 53, 0
7, 28440, Note_on_c, 3, 57, 88
7, 28498, Note_off_c, 3, 57, 0
7, 28500, Note_on_c, 3, 59, 88
7, 28558, Note_off_c, 3, 59, 0
7, 28560, Note_on_c, 3, 60, 88
7, 28618, Note_off_c, 3, 60, 0
7, 28620, Note_on_c, 3, 59, 88
7, 28678, Note_off_c, 3, 59, 0
7, 28680, Note_on_c, 3, 60, 88
7, 28842, Note_off_c, 3, 60, 0
7, 28860, Note_on_c, 3, 60, 88
7, 28918, Note_off_c, 3, 60, 0
7, 28920, Note_on_c, 3, 59, 88
7, 28978, Note_off_c, 3, 59, 0
7, 28980, Note_on_c, 3, 57, 88
7, 29038, Note_off_c, 3, 57, 0
7, 29040, Note_on_c, 3, 59, 88
7, 29098, Note_off_c, 3, 59, 0
7, 29100, Note_on_c, 3, 55, 88
7, 29158, Note_off_c, 3, 55, 0
7, 29160, Note_on_c, 3, 59, 88
7, 29218, Note_off_c, 3, 59, 0
7, 29220, Note_on_c, 3, 60, 88
7, 29278, Note_off_c, 3, 60, 0
7, 29280, Note_on_c, 3, 62, 88
7, 29338, Note_off_c, 3, 62, 0
7, 29340, Note_on_c, 3, 60, 88
7, 29398, Note_off_c, 3, 60, 0
7, 29400, Note_on_c, 3, 62, 88
7, 29578, Note_off_c, 3, 62, 0
7, 29580, Note_on_c, 3, 55, 88
7, 29638, Note_off_c, 3, 55, 0
7, 29640, Note_on_c, 3, 60, 88
7, 29698, Note_off_c, 3, 60, 0
7, 29700, Note_on_c, 3, 59, 88
7, 29758, Note_off_c, 3, 59, 0
7, 29760, Note_on_c, 3, 60, 88
7, 29818, Note_off_c, 3, 60, 0
7, 29820, Note_on_c, 3, 55, 88
7, 29878, Note_off_c, 3, 55, 0
7, 29880, Note_on_c, 3, 60, 88
7, 29938, Note_off_c, 3, 60, 0
7, 29940, Note_on_c, 3, 62, 88
7, 29998, Note_off_c, 3, 62, 0
7, 30000, Note_on_c, 3, 63, 88
7, 30058, Note_off_c, 3, 63, 0
7, 30060, Note_on_c, 3, 62, 88
7, 30118, Note_off_c, 3, 62, 0
7, 30120, Note_on_c, 3, 63, 88
7, 30402, Note_off_c, 3, 63, 0
7, 30420, Note_on_c, 3, 63, 88
7, 30478, Note_off_c, 3, 63, 0
7, 30480, Note_on_c, 3, 62, 88
7, 30655, Note_off_c, 3, 62, 0
7, 30660, Note_on_c, 3, 60, 88
7, 30718, Note_off_c, 3, 60, 0
7, 30720, Note_on_c, 3, 59, 88
7, 30895, Note_off_c, 3, 59, 0
7, 30900, Note_on_c, 3, 62, 88
7, 30958, Note_off_c, 3, 62, 0
7, 30960, Note_on_c, 3, 55, 88
7, 31076, Note_off_c, 3, 55, 0
7, 31080, Note_on_c, 3, 59, 88
7, 31196, Note_off_c, 3, 59, 0
7, 31200, Note_on_c, 3, 60, 88
7, 31316, Note_off_c, 3, 60, 0
7, 31320, Note_on_c, 3, 56, 88
7, 31436, Note_off_c, 3, 56, 0
7, 31440, Note_on_c, 3, 53, 88
7, 31556, Note_off_c, 3, 53, 0
7, 31560, Note_on_c, 3, 55, 88
7, 31676, Note_off_c, 3, 55, 0
7, 31680, Note_on_c, 3, 48, 88
7, 31914, Note_off_c, 3, 48, 0
7, 31980, Note_on_c, 3, 48, 88
7, 32038, Note_off_c, 3, 48, 0
7, 32040, Note_on_c, 3, 50, 88
7, 32098, Note_off_c, 3, 50, 0
7, 32100, Note_on_c, 3, 51, 88
7, 32158, Note_off_c, 3, 51, 0
7, 32160, Note_on_c, 3, 53, 88
7, 32218, Note_off_c, 3, 53, 0
7, 32220, Note_on_c, 3, 51, 88
7, 32278, Note_off_c, 3, 51, 0
7, 32280, Note_on_c, 3, 53, 88
7, 32396, Note_off_c, 3, 53, 0
7, 32400, Note_on_c, 3, 53, 88
7, 32516, Note_off_c, 3, 53, 0
7, 32520, Note_on_c, 3, 46, 88
7, 32636, Note_off_c, 3, 46, 0
7, 32700, Note_on_c, 3, 46, 88
7, 32758, Note_off_c, 3, 46, 0
7, 32760, Note_on_c, 3, 48, 88
7, 32818, Note_off_c, 3, 48, 0
7, 32820, Note_on_c, 3, 50, 88
7, 32878, Note_off_c, 3, 50, 0
7, 32880, Note_on_c, 3, 51, 88
7, 32938, Note_off_c, 3, 51, 0
7, 32940, Note_on_c, 3, 50, 88
7, 32998, Note_off_c, 3, 50, 0
7, 33000, Note_on_c, 3, 51, 88
7, 33116, Note_off_c, 3, 51, 0
7, 33120, Note_on_c, 3, 51, 88
7, 33236, Note_off_c, 3, 51, 0
7, 33240, Note_on_c, 3, 45, 88
7, 33356, Note_off_c, 3, 45, 0
7, 33420, Note_on_c, 3, 45, 88
7, 33478, Note_off_c, 3, 45, 0
7, 33480, Note_on_c, 3, 46, 88
7, 33538, Note_off_c, 3, 46, 0
7, 33540, Note_on_c, 3, 48, 88
7, 33598, Note_off_c, 3, 48, 0
7, 33600, Note_on_c, 3, 50, 88
7, 33658, Note_off_c, 3, 50, 0
7, 33660, Note_on_c, 3, 48, 88
7, 33718, Note_off_c, 3, 48, 0
7, 33720, Note_on_c, 3, 50, 88
7, 33898, Note_off_c, 3, 50, 0
7, 33900, Note_on_c, 3, 48, 88
7, 33958, Note_off_c, 3, 48, 0
7, 33960, Note_on_c, 3, 50, 88
7, 34018, Note_off_c, 3, 50, 0
7, 34020, Note_on_c, 3, 48, 88
7, 34078, Note_off_c, 3, 48, 0
7, 34080, Note_on_c, 3, 46, 88
7, 34138, Note_off_c, 3, 46, 0
7, 34140, Note_on_c, 3, 45, 88
7, 34198, Note_off_c, 3, 45, 0
7, 34200, Note_on_c, 3, 46, 88
7, 34258, Note_off_c, 3, 46, 0
7, 34260, Note_on_c, 3, 45, 88
7, 34318, Note_off_c, 3, 45, 0
7, 34320, Note_on_c, 3, 43, 88
7, 34378, Note_off_c, 3, 43, 0
7, 34380, Note_on_c, 3, 41, 88
7, 34438, Note_off_c, 3, 41, 0
7, 34440, Note_on_c, 3, 43, 88
7, 34498, Note_off_c, 3, 43, 0
7, 34500, Note_on_c, 3, 41, 88
7, 34558, Note_off_c, 3, 41, 0
7, 34560, Note_on_c, 3, 40, 88
7, 34618, Note_off_c, 3, 40, 0
7, 34620, Note_on_c, 3, 36, 88
7, 34678, Note_off_c, 3, 36, 0
7, 34680, Note_on_c, 3, 38, 88
7, 34738, Note_off_c, 3, 38, 0
7, 34740, Note_on_c, 3, 40, 88
7, 34798, Note_off_c, 3, 40, 0
7, 34800, Note_on_c, 3, 41, 88
7, 34858, Note_off_c, 3, 41, 0
7, 34860, Note_on_c, 3, 36, 88
7, 34918, Note_off_c, 3, 36, 0
7, 34920, Note_on_c, 3, 41, 88
7, 34978, Note_off_c, 3, 41, 0
7, 34980, Note_on_c, 3, 43, 88
7, 35038, Note_off_c, 3, 43, 0
7, 35040, Note_on_c, 3, 44, 88
7, 35156, Note_off_c, 3, 44, 0
7, 35160, Note_on_c, 3, 38, 88
7, 35276, Note_off_c, 3, 38, 0
7, 35280, Note_on_c, 3, 43, 88
7, 35338, Note_off_c, 3, 43, 0
7, 35340, Note_on_c, 3, 42, 88
7, 35398, Note_off_c, 3, 42, 0
7, 35400, Note_on_c, 3, 43, 88
7, 35458, Note_off_c, 3, 43, 0
7, 35460, Note_on_c, 3, 45, 88
7, 35518, Note_off_c, 3, 45, 0
7, 35520, Note_on_c, 3, 47, 88
7, 35578, Note_off_c, 3, 47, 0
7, 35580, Note_on_c, 3, 43, 88
7, 35638, Note_off_c, 3, 43, 0
7, 35640, Note_on_c, 3, 47, 88
7, 35698, Note_off_c, 3, 47, 0
7, 35700, Note_on_c, 3, 50, 88
7, 35758, Note_off_c, 3, 50, 0
7, 35760, Note_on_c, 3, 55, 88
7, 35876, Note_off_c, 3, 55, 0
7, 35880, Note_on_c, 3, 47, 88
7, 35996, Note_off_c, 3, 47, 0
7, 36000, Note_on_c, 3, 48, 88
7, 36058, Note_off_c, 3, 48, 0
7, 36060, Note_on_c, 3, 60, 88
7, 36118, Note_off_c, 3, 60, 0
7, 36120, Note_on_c, 3, 55, 88
7, 36178, Note_off_c, 3, 55, 0
7, 36180, Note_on_c, 3, 51, 88
7, 36238, Note_off_c, 3, 51, 0
7, 36240, Note_on_c, 3, 48, 88
7, 36474, Note_off_c, 3, 48, 0
7, 36660, Note_on_c, 3, 56, 88
7, 36778, Note_off_c, 3, 56, 0
7, 36780, Note_on_c, 3, 50, 88
7, 36896, Note_off_c, 3, 50, 0
7, 36900, Note_on_c, 3, 56, 88
7, 36958, Note_off_c, 3, 56, 0
7, 36960, Note_on_c, 3, 58, 88
7, 37194, Note_off_c, 3, 58, 0
7, 37380, Note_on_c, 3, 55, 88
7, 37498, Note_off_c, 3, 55, 0
7, 37500, Note_on_c, 3, 48, 88
7, 37616, Note_off_c, 3, 48, 0
7, 37620, Note_on_c, 3, 55, 88
7, 37678, Note_off_c, 3, 55, 0
7, 37680, Note_on_c, 3, 56, 88
7, 37914, Note_off_c, 3, 56, 0
7, 38100, Note_on_c, 3, 53, 88
7, 38158, Note_off_c, 3, 53, 0
7, 38160, Note_on_c, 3, 47, 88
7, 38394, Note_off_c, 3, 47, 0
7, 38520, Note_on_c, 3, 50, 88
7, 38636, Note_off_c, 3, 50, 0
7, 38640, Note_on_c, 3, 41, 88
7, 38756, Note_off_c, 3, 41, 0
7, 38760, Note_on_c, 3, 44, 88
7, 38876, Note_off_c, 3, 44, 0
7, 38880, Note_on_c, 3, 43, 88
7, 38996, Note_off_c, 3, 43, 0
7, 39000, Note_on_c, 3, 55, 88
7, 39102, Note_off_c, 3, 55, 0
7, 39120, Note_on_c, 3, 55, 88
7, 39222, Note_off_c, 3, 55, 0
7, 39240, Note_on_c, 3, 55, 88
7, 39356, Note_off_c, 3, 55, 0
7, 39360, Note_on_c, 3, 57, 88
7, 39476, Note_off_c, 3, 57, 0
7, 39480, Note_on_c, 3, 59, 88
7, 39596, Note_off_c, 3, 59, 0
7, 39600, Note_on_c, 3, 51, 88
7, 39882, Note_off_c, 3, 51, 0
7, 39900, Note_on_c, 3, 51, 88
7, 39958, Note_off_c, 3, 51, 0
7, 39960, Note_on_c, 3, 53, 88
7, 40018, Note_off_c, 3, 53, 0
7, 40020, Note_on_c, 3, 55, 88
7, 40078, Note_off_c, 3, 55, 0
7, 40080, Note_on_c, 3, 56, 88
7, 40138, Note_off_c, 3, 56, 0
7, 40140, Note_on_c, 3, 55, 88
7, 40198, Note_off_c, 3, 55, 0
7, 40200, Note_on_c, 3, 56, 88
7, 40316, Note_off_c, 3, 56, 0
7, 40320, Note_on_c, 3, 56, 88
7, 40436, Note_off_c, 3, 56, 0
7, 40440, Note_on_c, 3, 50, 88
7, 40556, Note_off_c, 3, 50, 0
7, 40620, Note_on_c, 3, 50, 88
7, 40678, Note_off_c, 3, 50, 0
7, 40680, Note_on_c, 3, 51, 88
7, 40738, Note_off_c, 3, 51, 0
7, 40740, Note_on_c, 3, 53, 88
7, 40798, Note_off_c, 3, 53, 0
7, 40800, Note_on_c, 3, 55, 88
7, 40858, Note_off_c, 3, 55, 0
7, 40860, Note_on_c, 3, 53, 88
7, 40918, Note_off_c, 3, 53, 0
7, 40920, Note_on_c, 3, 55, 88
7, 41036, Note_off_c, 3, 55, 0
7, 41040, Note_on_c, 3, 55, 88
7, 41156, Note_off_c, 3, 55, 0
7, 41160, Note_on_c, 3, 48, 88
7, 41276, Note_off_c, 3, 48, 0
7, 41340, Note_on_c, 3, 48, 88
7, 41398, Note_off_c, 3, 48, 0
7, 41400, Note_on_c, 3, 50, 88
7, 41458, Note_off_c, 3, 50, 0
7, 41460, Note_on_c, 3, 51, 88
7, 41518, Note_off_c, 3, 51, 0
7, 41520, Note_on_c, 3, 53, 88
7, 41578, Note_off_c, 3, 53, 0
7, 41580, Note_on_c, 3, 51, 88
7, 41638, Note_off_c, 3, 51, 0
7, 41640, Note_on_c, 3, 53, 88
7, 41756, Note_off_c, 3, 53, 0
7, 41760, Note_on_c, 3, 53, 88
7, 41876, Note_off_c, 3, 53, 0
7, 41880, Note_on_c, 3, 46, 88
7, 41996, Note_off_c, 3, 46, 0
7, 42000, Note_on_c, 3, 58, 88
7, 42234, Note_off_c, 3, 58, 0
7, 42360, Note_on_c, 3, 55, 88
7, 42476, Note_off_c, 3, 55, 0
7, 42480, Note_on_c, 3, 60, 88
7, 42714, Note_off_c, 3, 60, 0
7, 42720, Note_on_c, 3, 56, 88
7, 42954, Note_off_c, 3, 56, 0
7, 43080, Note_on_c, 3, 53, 88
7, 43196, Note_off_c, 3, 53, 0
7, 43200, Note_on_c, 3, 58, 88
7, 43434, Note_off_c, 3, 58, 0
7, 43440, Note_on_c, 3, 55, 88
7, 43674, Note_off_c, 3, 55, 0
7, 43800, Note_on_c, 3, 51, 88
7, 43916, Note_off_c, 3, 51, 0
7, 43920, Note_on_c, 3, 56, 88
7, 44022, Note_off_c, 3, 56, 0
7, 44040, Note_on_c, 3, 56, 88
7, 44142, Note_off_c, 3, 56, 0
7, 44160, Note_on_c, 3, 56, 88
7, 44262, Note_off_c, 3, 56, 0
7, 44280, Note_on_c, 3, 56, 88
7, 44382, Note_off_c, 3, 56, 0
7, 44400, Note_on_c, 3, 56, 88
7, 44502, Note_off_c, 3, 56, 0
7, 44520, Note_on_c, 3, 56, 88
7, 44636, Note_off_c, 3, 56, 0
7, 44640, Note_on_c, 3, 58, 88
7, 44756, Note_off_c, 3, 58, 0
7, 44760, Note_on_c, 3, 56, 88
7, 44876, Note_off_c, 3, 56, 0
7, 44880, Note_on_c, 3, 55, 88
7, 44996, Note_off_c, 3, 55, 0
7, 45000, Note_on_c, 3, 53, 88
7, 45116, Note_off_c, 3, 53, 0
7, 45120, Note_on_c, 3, 51, 88
7, 45236, Note_off_c, 3, 51, 0
7, 45240, Note_on_c, 3, 50, 88
7, 45356, Note_off_c, 3, 50, 0
7, 45360, Note_on_c, 3, 48, 88
7, 45476, Note_off_c, 3, 48, 0
7, 45480, Note_on_c, 3, 60, 88
7, 45582, Note_off_c, 3, 60, 0
7, 45600, Note_on_c, 3, 60, 88
7, 45702, Note_off_c, 3, 60, 0
7, 45720, Note_on_c, 3, 60, 88
7, 45822, Note_off_c, 3, 60, 0
7, 45840, Note_on_c, 3, 60, 88
7, 45942, Note_off_c, 3, 60, 0
7, 45960, Note_on_c, 3, 60, 88
7, 46076, Note_off_c, 3, 60, 0
7, 46080, Note_on_c, 3, 60, 88
7, 46196, Note_off_c, 3, 60, 0
7, 46200, Note_on_c, 3, 58, 88
7, 46316, Note_off_c, 3, 58, 0
7, 46320, Note_on_c, 3, 57, 88
7, 46436, Note_off_c, 3, 57, 0
7, 46440, Note_on_c, 3, 55, 88
7, 46556, Note_off_c, 3, 55, 0
7, 46560, Note_on_c, 3, 54, 88
7, 46676, Note_off_c, 3, 54, 0
7, 46680, Note_on_c, 3, 52, 88
7, 46796, Note_off_c, 3, 52, 0
7, 46800, Note_on_c, 3, 50, 88
7, 46916, Note_off_c, 3, 50, 0
7, 46920, Note_on_c, 3, 54, 88
7, 47036, Note_off_c, 3, 54, 0
7, 47040, Note_on_c, 3, 55, 88
7, 47156, Note_off_c, 3, 55, 0
7, 47160, Note_on_c, 3, 50, 88
7, 47276, Note_off_c, 3, 50, 0
7, 47280, Note_on_c, 3, 51, 88
7, 47514, Note_off_c, 3, 51, 0
7, 47520, Note_on_c, 3, 50, 88
7, 47636, Note_off_c, 3, 50, 0
7, 47640, Note_on_c, 3, 38, 88
7, 47756, Note_off_c, 3, 38, 0
7, 49260, Note_on_c, 3, 50, 88
7, 49318, Note_off_c, 3, 50, 0
7, 49320, Note_on_c, 3, 52, 88
7, 49378, Note_off_c, 3, 52, 0
7, 49380, Note_on_c, 3, 54, 88
7, 49438, Note_off_c, 3, 54, 0
7, 49440, Note_on_c, 3, 55, 88
7, 49498, Note_off_c, 3, 55, 0
7, 49500, Note_on_c, 3, 54, 88
7, 49558, Note_off_c, 3, 54, 0
7, 49560, Note_on_c, 3, 55, 88
7, 49676, Note_off_c, 3, 55, 0
7, 49680, Note_on_c, 3, 55, 88
7, 49796, Note_off_c, 3, 55, 0
7, 49800, Note_on_c, 3, 48, 88
7, 49916, Note_off_c, 3, 48, 0
7, 49980, Note_on_c, 3, 48, 88
7, 50038, Note_off_c, 3, 48, 0
7, 50040, Note_on_c, 3, 50, 88
7, 50098, Note_off_c, 3, 50, 0
7, 50100, Note_on_c, 3, 52, 88
7, 50158, Note_off_c, 3, 52, 0
7, 50160, Note_on_c, 3, 53, 88
7, 50218, Note_off_c, 3, 53, 0
7, 50220, Note_on_c, 3, 52, 88
7, 50278, Note_off_c, 3, 52, 0
7, 50280, Note_on_c, 3, 53, 88
7, 50396, Note_off_c, 3, 53, 0
7, 50400, Note_on_c, 3, 53, 88
7, 50516, Note_off_c, 3, 53, 0
7, 50520, Note_on_c, 3, 46, 88
7, 50636, Note_off_c, 3, 46, 0
7, 50700, Note_on_c, 3, 46, 88
7, 50758, Note_off_c, 3, 46, 0
7, 50760, Note_on_c, 3, 48, 88
7, 50818, Note_off_c, 3, 48, 0
7, 50820, Note_on_c, 3, 50, 88
7, 50878, Note_off_c, 3, 50, 0
7, 50880, Note_on_c, 3, 51, 88
7, 50938, Note_off_c, 3, 51, 0
7, 50940, Note_on_c, 3, 50, 88
7, 50998, Note_off_c, 3, 50, 0
7, 51000, Note_on_c, 3, 51, 88
7, 51178, Note_off_c, 3, 51, 0
7, 51180, Note_on_c, 3, 50, 88
7, 51238, Note_off_c, 3, 50, 0
7, 51240, Note_on_c, 3, 51, 88
7, 51298, Note_off_c, 3, 51, 0
7, 51300, Note_on_c, 3, 50, 88
7, 51358, Note_off_c, 3, 50, 0
7, 51360, Note_on_c, 3, 48, 88
7, 51418, Note_off_c, 3, 48, 0
7, 51420, Note_on_c, 3, 46, 88
7, 51478, Note_off_c, 3, 46, 0
7, 51480, Note_on_c, 3, 48, 88
7, 51538, Note_off_c, 3, 48, 0
7, 51540, Note_on_c, 3, 46, 88
7, 51598, Note_off_c, 3, 46, 0
7, 51600, Note_on_c, 3, 45, 88
7, 51658, Note_off_c, 3, 45, 0
7, 51660, Note_on_c, 3, 43, 88
7, 51718, Note_off_c, 3, 43, 0
7, 51720, Note_on_c, 3, 45, 88
7, 51778, Note_off_c, 3, 45, 0
7, 51780, Note_on_c, 3, 43, 88
7, 51838, Note_off_c, 3, 43, 0
7, 51840, Note_on_c, 3, 42, 88
7, 52074, Note_off_c, 3, 42, 0
7, 52200, Note_on_c, 3, 38, 88
7, 52316, Note_off_c, 3, 38, 0
7, 52320, Note_on_c, 3, 43, 88
7, 52554, Note_off_c, 3, 43, 0
7, 52680, Note_on_c, 3, 48, 88
7, 52796, Note_off_c, 3, 48, 0
7, 52800, Note_on_c, 3, 50, 88
7, 53034, Note_off_c, 3, 50, 0
7, 53040, Note_on_c, 3, 38, 88
7, 53274, Note_off_c, 3, 38, 0
7, 53280, Note_on_c, 3, 43, 88
7, 53338, Note_off_c, 3, 43, 0
7, 53340, Note_on_c, 3, 50, 88
7, 53398, Note_off_c, 3, 50, 0
7, 53400, Note_on_c, 3, 52, 88
7, 53458, Note_off_c, 3, 52, 0
7, 53460, Note_on_c, 3, 54, 88
7, 53518, Note_off_c, 3, 54, 0
7, 53520, Note_on_c, 3, 55, 88
7, 53578, Note_off_c, 3, 55, 0
7, 53580, Note_on_c, 3, 54, 88
7, 53638, Note_off_c, 3, 54, 0
7, 53640, Note_on_c, 3, 55, 88
7, 53742, Note_off_c, 3, 55, 0
7, 53760, Note_on_c, 3, 55, 88
7, 54116, Note_off_c, 3, 55, 0
7, 54120, Note_on_c, 3, 53, 88
7, 54222, Note_off_c, 3, 53, 0
7, 54240, Note_on_c, 3, 53, 88
7, 54778, Note_off_c, 3, 53, 0
7, 54780, Note_on_c, 3, 47, 88
7, 54838, Note_off_c, 3, 47, 0
7, 54840, Note_on_c, 3, 48, 88
7, 54898, Note_off_c, 3, 48, 0
7, 54900, Note_on_c, 3, 50, 88
7, 54958, Note_off_c, 3, 50, 0
7, 54960, Note_on_c, 3, 51, 88
7, 55018, Note_off_c, 3, 51, 0
7, 55020, Note_on_c, 3, 50, 88
7, 55078, Note_off_c, 3, 50, 0
7, 55080, Note_on_c, 3, 51, 88
7, 55182, Note_off_c, 3, 51, 0
7, 55200, Note_on_c, 3, 51, 88
7, 55674, Note_off_c, 3, 51, 0
7, 55800, Note_on_c, 3, 51, 88
7, 55916, Note_off_c, 3, 51, 0
7, 55920, Note_on_c, 3, 50, 88
7, 56154, Note_off_c, 3, 50, 0
7, 56280, Note_on_c, 3, 49, 88
7, 56396, Note_off_c, 3, 49, 0
7, 56400, Note_on_c, 3, 50, 88
7, 56634, Note_off_c, 3, 50, 0
7, 56760, Note_on_c, 3, 50, 88
7, 56876, Note_off_c, 3, 50, 0
7, 56880, Note_on_c, 3, 51, 88
7, 57114, Note_off_c, 3, 51, 0
7, 57120, Note_on_c, 3, 48, 88
7, 57354, Note_off_c, 3, 48, 0
7, 57420, Note_on_c, 3, 45, 88
7, 57478, Note_off_c, 3, 45, 0
7, 57480, Note_on_c, 3, 47, 88
7, 57538, Note_off_c, 3, 47, 0
7, 57540, Note_on_c, 3, 48, 88
7, 57598, Note_off_c, 3, 48, 0
7, 57600, Note_on_c, 3, 50, 88
7, 57834, Note_off_c, 3, 50, 0
7, 57840, Note_on_c, 3, 47, 88
7, 58074, Note_off_c, 3, 47, 0
7, 58140, Note_on_c, 3, 43, 88
7, 58198, Note_off_c, 3, 43, 0
7, 58200, Note_on_c, 3, 45, 88
7, 58258, Note_off_c, 3, 45, 0
7, 58260, Note_on_c, 3, 47, 88
7, 58318, Note_off_c, 3, 47, 0
7, 58320, Note_on_c, 3, 48, 88
7, 58422, Note_off_c, 3, 48, 0
7, 58440, Note_on_c, 3, 48, 88
7, 58542, Note_off_c, 3, 48, 0
7, 58560, Note_on_c, 3, 48, 88
7, 58662, Note_off_c, 3, 48, 0
7, 58680, Note_on_c, 3, 48, 88
7, 58782, Note_off_c, 3, 48, 0
7, 58800, Note_on_c, 3, 48, 88
7, 58902, Note_off_c, 3, 48, 0
7, 58920, Note_on_c, 3, 48, 88
7, 59036, Note_off_c, 3, 48, 0
7, 59040, Note_on_c, 3, 48, 88
7, 59156, Note_off_c, 3, 48, 0
7, 59160, Note_on_c, 3, 46, 88
7, 59218, Note_off_c, 3, 46, 0
7, 59220, Note_on_c, 3, 45, 88
7, 59278, Note_off_c, 3, 45, 0
7, 59280, Note_on_c, 3, 46, 88
7, 59396, Note_off_c, 3, 46, 0
7, 59400, Note_on_c, 3, 48, 88
7, 59516, Note_off_c, 3, 48, 0
7, 59520, Note_on_c, 3, 50, 88
7, 59636, Note_off_c, 3, 50, 0
7, 59640, Note_on_c, 3, 38, 88
7, 59756, Note_off_c, 3, 38, 0
7, 59760, Note_on_c, 3, 43, 88
7, 59994, Note_off_c, 3, 43, 0
7, 59994, End_track
0, 0, End_of_file
