0, 0, Header, 1, 6, 240
1, 0, Start_track
1, 0, Time_signature, 4, 2, 24, 8
1, 0, Tempo, 909090
1, 0, SMPTE_offset, 64, 0, 0, 0, 118
1, 22080, Tempo, 967741
1, 22320, Tempo, 1111111
1, 22500, Tempo, 1500000
1, 22500, End_track
2, 0, Start_track
2, 0, Title_t, "(C) & (P) 1993"
2, 127, End_track
3, 0, Start_track
3, 0, Title_t, "CCARH,Stanford"
3, 0, End_track
4, 0, Start_track
4, 0, Title_t, "Track 1"
4, 0, Program_c, 0, 6
4, 0, Note_on_c, 0, 69, 88
4, 58, Note_off_c, 0, 69, 0
4, 60, Note_on_c, 0, 71, 88
4, 118, Note_off_c, 0, 71, 0
4, 120, Note_on_c, 0, 73, 88
4, 178, Note_off_c, 0, 73, 0
4, 180, Note_on_c, 0, 69, 88
4, 238, Note_off_c, 0, 69, 0
4, 240, Note_on_c, 0, 78, 88
4, 344, Note_off_c, 0, 78, 0
4, 360, Note_on_c, 0, 78, 88
4, 464, Note_off_c, 0, 78, 0
4, 480, Note_on_c, 0, 78, 88
4, 538, Note_off_c, 0, 78, 0
4, 540, Note_on_c, 0, 75, 88
4, 598, Note_off_c, 0, 75, 0
4, 600, Note_on_c, 0, 76, 88
4, 716, Note_off_c, 0, 76, 0
4, 780, Note_on_c, 0, 76, 88
4, 838, Note_off_c, 0, 76, 0
4, 840, Note_on_c, 0, 78, 88
4, 898, Note_off_c, 0, 78, 0
4, 900, Note_on_c, 0, 79, 88
4, 958, Note_off_c, 0, 79, 0
4, 960, Note_on_c, 0, 81, 88
4, 1018, Note_off_c, 0, 81, 0
4, 1020, Note_on_c, 0, 79, 88
4, 1078, Note_off_c, 0, 79, 0
4, 1080, Note_on_c, 0, 78, 88
4, 1138, Note_off_c, 0, 78, 0
4, 1140, Note_on_c, 0, 81, 88
4, 1198, Note_off_c, 0, 81, 0
4, 1200, Note_on_c, 0, 74, 88
4, 1258, Note_off_c, 0, 74, 0
4, 1260, Note_on_c, 0, 73, 88
4, 1318, Note_off_c, 0, 73, 0
4, 1320, Note_on_c, 0, 71, 88
4, 1378, Note_off_c, 0, 71, 0
4, 1380, Note_on_c, 0, 81, 88
4, 1438, Note_off_c, 0, 81, 0
4, 1440, Note_on_c, 0, 80, 88
4, 1498, Note_off_c, 0, 80, 0
4, 1500, Note_on_c, 0, 78, 88
4, 1558, Note_off_c, 0, 78, 0
4, 1560, Note_on_c, 0, 76, 88
4, 1618, Note_off_c, 0, 76, 0
4, 1620, Note_on_c, 0, 80, 88
4, 1678, Note_off_c, 0, 80, 0
4, 1680, Note_on_c, 0, 73, 88
4, 1738, Note_off_c, 0, 73, 0
4, 1740, Note_on_c, 0, 71, 88
4, 1798, Note_off_c, 0, 71, 0
4, 1800, Note_on_c, 0, 69, 88
4, 1858, Note_off_c, 0, 69, 0
4, 1860, Note_on_c, 0, 79, 88
4, 1918, Note_off_c, 0, 79, 0
4, 1920, Note_on_c, 0, 78, 88
4, 1978, Note_off_c, 0, 78, 0
4, 1980, Note_on_c, 0, 76, 88
4, 2038, Note_off_c, 0, 76, 0
4, 2040, Note_on_c, 0, 74, 88
4, 2098, Note_off_c, 0, 74, 0
4, 2100, Note_on_c, 0, 78, 88
4, 2158, Note_off_c, 0, 78, 0
4, 2160, Note_on_c, 0, 71, 88
4, 2218, Note_off_c, 0, 71, 0
4, 2220, Note_on_c, 0, 78, 88
4, 2278, Note_off_c, 0, 78, 0
4, 2280, Note_on_c, 0, 76, 88
4, 2338, Note_off_c, 0, 76, 0
4, 2340, Note_on_c, 0, 74, 88
4, 2398, Note_off_c, 0, 74, 0
4, 2400, Note_on_c, 0, 73, 88
4, 2458, Note_off_c, 0, 73, 0
4, 2460, Note_on_c, 0, 71, 88
4, 2518, Note_off_c, 0, 71, 0
4, 2520, Note_on_c, 0, 69, 88
4, 2578, Note_off_c, 0, 69, 0
4, 2580, Note_on_c, 0, 71, 88
4, 2638, Note_off_c, 0, 71, 0
4, 2640, Note_on_c, 0, 73, 88
4, 2698, Note_off_c, 0, 73, 0
4, 2700, Note_on_c, 0, 75, 88
4, 2758, Note_off_c, 0, 75, 0
4, 2760, Note_on_c, 0, 76, 88
4, 2818, Note_off_c, 0, 76, 0
4, 2820, Note_on_c, 0, 78, 88
4, 2878, Note_off_c, 0, 78, 0
4, 2880, Note_on_c, 0, 80, 88
4, 2938, Note_off_c, 0, 80, 0
4, 2940, Note_on_c, 0, 81, 88
4, 2998, Note_off_c, 0, 81, 0
4, 3000, Note_on_c, 0, 83, 88
4, 3058, Note_off_c, 0, 83, 0
4, 3060, Note_on_c, 0, 80, 88
4, 3118, Note_off_c, 0, 80, 0
4, 3120, Note_on_c, 0, 76, 88
4, 3178, Note_off_c, 0, 76, 0
4, 3180, Note_on_c, 0, 78, 88
4, 3238, Note_off_c, 0, 78, 0
4, 3240, Note_on_c, 0, 80, 88
4, 3298, Note_off_c, 0, 80, 0
4, 3300, Note_on_c, 0, 76, 88
4, 3358, Note_off_c, 0, 76, 0
4, 3360, Note_on_c, 0, 78, 88
4, 3418, Note_off_c, 0, 78, 0
4, 3420, Note_on_c, 0, 80, 88
4, 3478, Note_off_c, 0, 80, 0
4, 3480, Note_on_c, 0, 81, 88
4, 3538, Note_off_c, 0, 81, 0
4, 3540, Note_on_c, 0, 78, 88
4, 3598, Note_off_c, 0, 78, 0
4, 3600, Note_on_c, 0, 71, 88
4, 3716, Note_off_c, 0, 71, 0
4, 3720, Note_on_c, 0, 83, 88
4, 3956, Note_off_c, 0, 83, 0
4, 3960, Note_on_c, 0, 76, 88
4, 4076, Note_off_c, 0, 76, 0
4, 4200, Note_on_c, 0, 81, 88
4, 4434, Note_off_c, 0, 81, 0
4, 4440, Note_on_c, 0, 75, 88
4, 4556, Note_off_c, 0, 75, 0
4, 4680, Note_on_c, 0, 80, 88
4, 4796, Note_off_c, 0, 80, 0
4, 4800, Note_on_c, 0, 81, 88
4, 4858, Note_off_c, 0, 81, 0
4, 4860, Note_on_c, 0, 80, 88
4, 4918, Note_off_c, 0, 80, 0
4, 4920, Note_on_c, 0, 78, 88
4, 4978, Note_off_c, 0, 78, 0
4, 4980, Note_on_c, 0, 81, 88
4, 5038, Note_off_c, 0, 81, 0
4, 5040, Note_on_c, 0, 75, 88
4, 5098, Note_off_c, 0, 75, 0
4, 5100, Note_on_c, 0, 81, 88
4, 5158, Note_off_c, 0, 81, 0
4, 5160, Note_on_c, 0, 80, 88
4, 5218, Note_off_c, 0, 80, 0
4, 5220, Note_on_c, 0, 78, 88
4, 5278, Note_off_c, 0, 78, 0
4, 5280, Note_on_c, 0, 76, 88
4, 5514, Note_off_c, 0, 76, 0
4, 5640, Note_on_c, 0, 79, 88
4, 5756, Note_off_c, 0, 79, 0
4, 5760, Note_on_c, 0, 79, 88
4, 5876, Note_off_c, 0, 79, 0
4, 5880, Note_on_c, 0, 78, 88
4, 5996, Note_off_c, 0, 78, 0
4, 6120, Note_on_c, 0, 78, 88
4, 6224, Note_off_c, 0, 78, 0
4, 6240, Note_on_c, 0, 78, 88
4, 6356, Note_off_c, 0, 78, 0
4, 6360, Note_on_c, 0, 76, 88
4, 6476, Note_off_c, 0, 76, 0
4, 6600, Note_on_c, 0, 76, 88
4, 6716, Note_off_c, 0, 76, 0
4, 6720, Note_on_c, 0, 76, 88
4, 6836, Note_off_c, 0, 76, 0
4, 6840, Note_on_c, 0, 74, 88
4, 6956, Note_off_c, 0, 74, 0
4, 7080, Note_on_c, 0, 74, 88
4, 7184, Note_off_c, 0, 74, 0
4, 7200, Note_on_c, 0, 74, 88
4, 7316, Note_off_c, 0, 74, 0
4, 7320, Note_on_c, 0, 73, 88
4, 7436, Note_off_c, 0, 73, 0
4, 7440, Note_on_c, 0, 81, 88
4, 7674, Note_off_c, 0, 81, 0
4, 7680, Note_on_c, 0, 80, 88
4, 7914, Note_off_c, 0, 80, 0
4, 7920, Note_on_c, 0, 79, 88
4, 8154, Note_off_c, 0, 79, 0
4, 8160, Note_on_c, 0, 78, 88
4, 8394, Note_off_c, 0, 78, 0
4, 8400, Note_on_c, 0, 83, 88
4, 8634, Note_off_c, 0, 83, 0
4, 8640, Note_on_c, 0, 76, 88
4, 8874, Note_off_c, 0, 76, 0
4, 8880, Note_on_c, 0, 81, 88
4, 9350, Note_off_c, 0, 81, 0
4, 9360, Note_on_c, 0, 80, 88
4, 9658, Note_off_c, 0, 80, 0
4, 9660, Note_on_c, 0, 78, 88
4, 9718, Note_off_c, 0, 78, 0
4, 9720, Note_on_c, 0, 77, 88
4, 9778, Note_off_c, 0, 77, 0
4, 9780, Note_on_c, 0, 80, 88
4, 9838, Note_off_c, 0, 80, 0
4, 9840, Note_on_c, 0, 78, 88
4, 10310, Note_off_c, 0, 78, 0
4, 10320, Note_on_c, 0, 77, 88
4, 10554, Note_off_c, 0, 77, 0
4, 10560, Note_on_c, 0, 78, 88
4, 10618, Note_off_c, 0, 78, 0
4, 10620, Note_on_c, 0, 80, 88
4, 10678, Note_off_c, 0, 80, 0
4, 10680, Note_on_c, 0, 81, 88
4, 10738, Note_off_c, 0, 81, 0
4, 10740, Note_on_c, 0, 78, 88
4, 10798, Note_off_c, 0, 78, 0
4, 10800, Note_on_c, 0, 74, 88
4, 10904, Note_off_c, 0, 74, 0
4, 10920, Note_on_c, 0, 74, 88
4, 11024, Note_off_c, 0, 74, 0
4, 11040, Note_on_c, 0, 74, 88
4, 11098, Note_off_c, 0, 74, 0
4, 11100, Note_on_c, 0, 72, 88
4, 11158, Note_off_c, 0, 72, 0
4, 11160, Note_on_c, 0, 73, 88
4, 11276, Note_off_c, 0, 73, 0
4, 11340, Note_on_c, 0, 73, 88
4, 11398, Note_off_c, 0, 73, 0
4, 11400, Note_on_c, 0, 74, 88
4, 11458, Note_off_c, 0, 74, 0
4, 11460, Note_on_c, 0, 76, 88
4, 11518, Note_off_c, 0, 76, 0
4, 11520, Note_on_c, 0, 78, 88
4, 11578, Note_off_c, 0, 78, 0
4, 11580, Note_on_c, 0, 76, 88
4, 11638, Note_off_c, 0, 76, 0
4, 11640, Note_on_c, 0, 75, 88
4, 11698, Note_off_c, 0, 75, 0
4, 11700, Note_on_c, 0, 78, 88
4, 11758, Note_off_c, 0, 78, 0
4, 11760, Note_on_c, 0, 71, 88
4, 11818, Note_off_c, 0, 71, 0
4, 11820, Note_on_c, 0, 69, 88
4, 11878, Note_off_c, 0, 69, 0
4, 11880, Note_on_c, 0, 68, 88
4, 11938, Note_off_c, 0, 68, 0
4, 11940, Note_on_c, 0, 78, 88
4, 11998, Note_off_c, 0, 78, 0
4, 12000, Note_on_c, 0, 77, 88
4, 12058, Note_off_c, 0, 77, 0
4, 12060, Note_on_c, 0, 75, 88
4, 12118, Note_off_c, 0, 75, 0
4, 12120, Note_on_c, 0, 73, 88
4, 12178, Note_off_c, 0, 73, 0
4, 12180, Note_on_c, 0, 83, 88
4, 12238, Note_off_c, 0, 83, 0
4, 12240, Note_on_c, 0, 81, 88
4, 12298, Note_off_c, 0, 81, 0
4, 12300, Note_on_c, 0, 80, 88
4, 12358, Note_off_c, 0, 80, 0
4, 12360, Note_on_c, 0, 78, 88
4, 12418, Note_off_c, 0, 78, 0
4, 12420, Note_on_c, 0, 77, 88
4, 12478, Note_off_c, 0, 77, 0
4, 12480, Note_on_c, 0, 78, 88
4, 12538, Note_off_c, 0, 78, 0
4, 12540, Note_on_c, 0, 77, 88
4, 12598, Note_off_c, 0, 77, 0
4, 12600, Note_on_c, 0, 78, 88
4, 12658, Note_off_c, 0, 78, 0
4, 12660, Note_on_c, 0, 80, 88
4, 12718, Note_off_c, 0, 80, 0
4, 12720, Note_on_c, 0, 81, 88
4, 12749, Note_off_c, 0, 81, 0
4, 12750, Note_on_c, 0, 80, 88
4, 12772, Note_off_c, 0, 80, 0
4, 12773, Note_on_c, 0, 81, 88
4, 12794, Note_off_c, 0, 81, 0
4, 12795, Note_on_c, 0, 80, 88
4, 12817, Note_off_c, 0, 80, 0
4, 12818, Note_on_c, 0, 81, 88
4, 12839, Note_off_c, 0, 81, 0
4, 12840, Note_on_c, 0, 80, 88
4, 12898, Note_off_c, 0, 80, 0
4, 12900, Note_on_c, 0, 78, 88
4, 12944, Note_off_c, 0, 78, 0
4, 12960, Note_on_c, 0, 78, 88
4, 13194, Note_off_c, 0, 78, 0
4, 13320, Note_on_c, 0, 81, 88
4, 13436, Note_off_c, 0, 81, 0
4, 13440, Note_on_c, 0, 81, 88
4, 13556, Note_off_c, 0, 81, 0
4, 13560, Note_on_c, 0, 80, 88
4, 13676, Note_off_c, 0, 80, 0
4, 13800, Note_on_c, 0, 80, 88
4, 13904, Note_off_c, 0, 80, 0
4, 13920, Note_on_c, 0, 80, 88
4, 14036, Note_off_c, 0, 80, 0
4, 14040, Note_on_c, 0, 78, 88
4, 14156, Note_off_c, 0, 78, 0
4, 14280, Note_on_c, 0, 83, 88
4, 14396, Note_off_c, 0, 83, 0
4, 14400, Note_on_c, 0, 83, 88
4, 14516, Note_off_c, 0, 83, 0
4, 14520, Note_on_c, 0, 81, 88
4, 14636, Note_off_c, 0, 81, 0
4, 14760, Note_on_c, 0, 81, 88
4, 14864, Note_off_c, 0, 81, 0
4, 14880, Note_on_c, 0, 81, 88
4, 14996, Note_off_c, 0, 81, 0
4, 15000, Note_on_c, 0, 80, 88
4, 15116, Note_off_c, 0, 80, 0
4, 15240, Note_on_c, 0, 76, 88
4, 15356, Note_off_c, 0, 76, 0
4, 15360, Note_on_c, 0, 76, 88
4, 15476, Note_off_c, 0, 76, 0
4, 15480, Note_on_c, 0, 69, 88
4, 15596, Note_off_c, 0, 69, 0
4, 15600, Note_on_c, 0, 74, 88
4, 15704, Note_off_c, 0, 74, 0
4, 15720, Note_on_c, 0, 74, 88
4, 15824, Note_off_c, 0, 74, 0
4, 15840, Note_on_c, 0, 74, 88
4, 15956, Note_off_c, 0, 74, 0
4, 15960, Note_on_c, 0, 73, 88
4, 16076, Note_off_c, 0, 73, 0
4, 16140, Note_on_c, 0, 76, 88
4, 16198, Note_off_c, 0, 76, 0
4, 16200, Note_on_c, 0, 74, 88
4, 16258, Note_off_c, 0, 74, 0
4, 16260, Note_on_c, 0, 73, 88
4, 16318, Note_off_c, 0, 73, 0
4, 16320, Note_on_c, 0, 71, 88
4, 16378, Note_off_c, 0, 71, 0
4, 16380, Note_on_c, 0, 73, 88
4, 16438, Note_off_c, 0, 73, 0
4, 16440, Note_on_c, 0, 74, 88
4, 16498, Note_off_c, 0, 74, 0
4, 16500, Note_on_c, 0, 71, 88
4, 16558, Note_off_c, 0, 71, 0
4, 16560, Note_on_c, 0, 64, 88
4, 16676, Note_off_c, 0, 64, 0
4, 16680, Note_on_c, 0, 76, 88
4, 16914, Note_off_c, 0, 76, 0
4, 16920, Note_on_c, 0, 69, 88
4, 17036, Note_off_c, 0, 69, 0
4, 17160, Note_on_c, 0, 74, 88
4, 17396, Note_off_c, 0, 74, 0
4, 17400, Note_on_c, 0, 68, 88
4, 17516, Note_off_c, 0, 68, 0
4, 17640, Note_on_c, 0, 73, 88
4, 17756, Note_off_c, 0, 73, 0
4, 17760, Note_on_c, 0, 74, 88
4, 17818, Note_off_c, 0, 74, 0
4, 17820, Note_on_c, 0, 73, 88
4, 17878, Note_off_c, 0, 73, 0
4, 17880, Note_on_c, 0, 71, 88
4, 17938, Note_off_c, 0, 71, 0
4, 17940, Note_on_c, 0, 73, 88
4, 17998, Note_off_c, 0, 73, 0
4, 18000, Note_on_c, 0, 74, 88
4, 18058, Note_off_c, 0, 74, 0
4, 18060, Note_on_c, 0, 73, 88
4, 18118, Note_off_c, 0, 73, 0
4, 18120, Note_on_c, 0, 74, 88
4, 18178, Note_off_c, 0, 74, 0
4, 18180, Note_on_c, 0, 76, 88
4, 18238, Note_off_c, 0, 76, 0
4, 18240, Note_on_c, 0, 69, 88
4, 18298, Note_off_c, 0, 69, 0
4, 18300, Note_on_c, 0, 71, 88
4, 18358, Note_off_c, 0, 71, 0
4, 18360, Note_on_c, 0, 73, 88
4, 18418, Note_off_c, 0, 73, 0
4, 18420, Note_on_c, 0, 69, 88
4, 18478, Note_off_c, 0, 69, 0
4, 18480, Note_on_c, 0, 78, 88
4, 18584, Note_off_c, 0, 78, 0
4, 18600, Note_on_c, 0, 78, 88
4, 18704, Note_off_c, 0, 78, 0
4, 18720, Note_on_c, 0, 78, 88
4, 18778, Note_off_c, 0, 78, 0
4, 18780, Note_on_c, 0, 75, 88
4, 18838, Note_off_c, 0, 75, 0
4, 18840, Note_on_c, 0, 76, 88
4, 18956, Note_off_c, 0, 76, 0
4, 19020, Note_on_c, 0, 76, 88
4, 19078, Note_off_c, 0, 76, 0
4, 19080, Note_on_c, 0, 78, 88
4, 19138, Note_off_c, 0, 78, 0
4, 19140, Note_on_c, 0, 79, 88
4, 19198, Note_off_c, 0, 79, 0
4, 19200, Note_on_c, 0, 81, 88
4, 19258, Note_off_c, 0, 81, 0
4, 19260, Note_on_c, 0, 79, 88
4, 19318, Note_off_c, 0, 79, 0
4, 19320, Note_on_c, 0, 78, 88
4, 19378, Note_off_c, 0, 78, 0
4, 19380, Note_on_c, 0, 81, 88
4, 19438, Note_off_c, 0, 81, 0
4, 19440, Note_on_c, 0, 74, 88
4, 19498, Note_off_c, 0, 74, 0
4, 19500, Note_on_c, 0, 73, 88
4, 19558, Note_off_c, 0, 73, 0
4, 19560, Note_on_c, 0, 71, 88
4, 19618, Note_off_c, 0, 71, 0
4, 19620, Note_on_c, 0, 81, 88
4, 19678, Note_off_c, 0, 81, 0
4, 19680, Note_on_c, 0, 80, 88
4, 19738, Note_off_c, 0, 80, 0
4, 19740, Note_on_c, 0, 78, 88
4, 19798, Note_off_c, 0, 78, 0
4, 19800, Note_on_c, 0, 76, 88
4, 19858, Note_off_c, 0, 76, 0
4, 19860, Note_on_c, 0, 80, 88
4, 19918, Note_off_c, 0, 80, 0
4, 19920, Note_on_c, 0, 73, 88
4, 19978, Note_off_c, 0, 73, 0
4, 19980, Note_on_c, 0, 71, 88
4, 20038, Note_off_c, 0, 71, 0
4, 20040, Note_on_c, 0, 69, 88
4, 20098, Note_off_c, 0, 69, 0
4, 20100, Note_on_c, 0, 79, 88
4, 20158, Note_off_c, 0, 79, 0
4, 20160, Note_on_c, 0, 78, 88
4, 20218, Note_off_c, 0, 78, 0
4, 20220, Note_on_c, 0, 76, 88
4, 20278, Note_off_c, 0, 76, 0
4, 20280, Note_on_c, 0, 74, 88
4, 20338, Note_off_c, 0, 74, 0
4, 20340, Note_on_c, 0, 78, 88
4, 20398, Note_off_c, 0, 78, 0
4, 20400, Note_on_c, 0, 71, 88
4, 20458, Note_off_c, 0, 71, 0
4, 20460, Note_on_c, 0, 78, 88
4, 20518, Note_off_c, 0, 78, 0
4, 20520, Note_on_c, 0, 76, 88
4, 20578, Note_off_c, 0, 76, 0
4, 20580, Note_on_c, 0, 74, 88
4, 20638, Note_off_c, 0, 74, 0
4, 20640, Note_on_c, 0, 73, 88
4, 20698, Note_off_c, 0, 73, 0
4, 20700, Note_on_c, 0, 71, 88
4, 20758, Note_off_c, 0, 71, 0
4, 20760, Note_on_c, 0, 69, 88
4, 20818, Note_off_c, 0, 69, 0
4, 20820, Note_on_c, 0, 73, 88
4, 20878, Note_off_c, 0, 73, 0
4, 20880, Note_on_c, 0, 66, 88
4, 20938, Note_off_c, 0, 66, 0
4, 20940, Note_on_c, 0, 64, 88
4, 20998, Note_off_c, 0, 64, 0
4, 21000, Note_on_c, 0, 62, 88
4, 21058, Note_off_c, 0, 62, 0
4, 21060, Note_on_c, 0, 66, 88
4, 21118, Note_off_c, 0, 66, 0
4, 21120, Note_on_c, 0, 59, 88
4, 21178, Note_off_c, 0, 59, 0
4, 21180, Note_on_c, 0, 61, 88
4, 21238, Note_off_c, 0, 61, 0
4, 21240, Note_on_c, 0, 62, 88
4, 21298, Note_off_c, 0, 62, 0
4, 21300, Note_on_c, 0, 64, 88
4, 21358, Note_off_c, 0, 64, 0
4, 21360, Note_on_c, 0, 66, 88
4, 21418, Note_off_c, 0, 66, 0
4, 21420, Note_on_c, 0, 68, 88
4, 21478, Note_off_c, 0, 68, 0
4, 21480, Note_on_c, 0, 69, 88
4, 21538, Note_off_c, 0, 69, 0
4, 21540, Note_on_c, 0, 71, 88
4, 21598, Note_off_c, 0, 71, 0
4, 21600, Note_on_c, 0, 73, 88
4, 21658, Note_off_c, 0, 73, 0
4, 21660, Note_on_c, 0, 74, 88
4, 21718, Note_off_c, 0, 74, 0
4, 21720, Note_on_c, 0, 76, 88
4, 21778, Note_off_c, 0, 76, 0
4, 21780, Note_on_c, 0, 78, 88
4, 21838, Note_off_c, 0, 78, 0
4, 21840, Note_on_c, 0, 80, 88
4, 21898, Note_off_c, 0, 80, 0
4, 21900, Note_on_c, 0, 81, 88
4, 21958, Note_off_c, 0, 81, 0
4, 21960, Note_on_c, 0, 83, 88
4, 22018, Note_off_c, 0, 83, 0
4, 22020, Note_on_c, 0, 80, 88
4, 22078, Note_off_c, 0, 80, 0
4, 22080, Note_on_c, 0, 81, 88
4, 22492, Note_off_c, 0, 81, 0
4, 22500, Note_on_c, 0, 80, 88
4, 22558, Note_off_c, 0, 80, 0
4, 22560, Note_on_c, 0, 81, 88
4, 23030, Note_off_c, 0, 81, 0
4, 23030, End_track
5, 0, Start_track
5, 0, Title_t, "Track 2"
5, 0, Program_c, 1, 6
5, 840, Note_on_c, 1, 64, 88
5, 1076, Note_off_c, 1, 64, 0
5, 1080, Note_on_c, 1, 57, 88
5, 1196, Note_off_c, 1, 57, 0
5, 1320, Note_on_c, 1, 62, 88
5, 1554, Note_off_c, 1, 62, 0
5, 1560, Note_on_c, 1, 56, 88
5, 1676, Note_off_c, 1, 56, 0
5, 1800, Note_on_c, 1, 61, 88
5, 2036, Note_off_c, 1, 61, 0
5, 2040, Note_on_c, 1, 59, 88
5, 2098, Note_off_c, 1, 59, 0
5, 2100, Note_on_c, 1, 57, 88
5, 2144, Note_off_c, 1, 57, 0
5, 2160, Note_on_c, 1, 57, 88
5, 2189, Note_off_c, 1, 57, 0
5, 2190, Note_on_c, 1, 56, 88
5, 2212, Note_off_c, 1, 56, 0
5, 2213, Note_on_c, 1, 57, 88
5, 2234, Note_off_c, 1, 57, 0
5, 2235, Note_on_c, 1, 56, 88
5, 2257, Note_off_c, 1, 56, 0
5, 2258, Note_on_c, 1, 57, 88
5, 2279, Note_off_c, 1, 57, 0
5, 2280, Note_on_c, 1, 56, 88
5, 2324, Note_off_c, 1, 56, 0
5, 2340, Note_on_c, 1, 56, 88
5, 2398, Note_off_c, 1, 56, 0
5, 2400, Note_on_c, 1, 57, 88
5, 2516, Note_off_c, 1, 57, 0
5, 3120, Note_on_c, 1, 76, 88
5, 3354, Note_off_c, 1, 76, 0
5, 3360, Note_on_c, 1, 75, 88
5, 3594, Note_off_c, 1, 75, 0
5, 3600, Note_on_c, 1, 74, 88
5, 3834, Note_off_c, 1, 74, 0
5, 3840, Note_on_c, 1, 73, 88
5, 4074, Note_off_c, 1, 73, 0
5, 4080, Note_on_c, 1, 78, 88
5, 4314, Note_off_c, 1, 78, 0
5, 4320, Note_on_c, 1, 71, 88
5, 4554, Note_off_c, 1, 71, 0
5, 4560, Note_on_c, 1, 76, 88
5, 5034, Note_off_c, 1, 76, 0
5, 5040, Note_on_c, 1, 75, 88
5, 5274, Note_off_c, 1, 75, 0
5, 5280, Note_on_c, 1, 76, 88
5, 5396, Note_off_c, 1, 76, 0
5, 5400, Note_on_c, 1, 71, 88
5, 5516, Note_off_c, 1, 71, 0
5, 5520, Note_on_c, 1, 76, 88
5, 5624, Note_off_c, 1, 76, 0
5, 5640, Note_on_c, 1, 76, 88
5, 5756, Note_off_c, 1, 76, 0
5, 5760, Note_on_c, 1, 76, 88
5, 5876, Note_off_c, 1, 76, 0
5, 5880, Note_on_c, 1, 74, 88
5, 5996, Note_off_c, 1, 74, 0
5, 6120, Note_on_c, 1, 74, 88
5, 6224, Note_off_c, 1, 74, 0
5, 6240, Note_on_c, 1, 74, 88
5, 6356, Note_off_c, 1, 74, 0
5, 6360, Note_on_c, 1, 73, 88
5, 6476, Note_off_c, 1, 73, 0
5, 6600, Note_on_c, 1, 73, 88
5, 6716, Note_off_c, 1, 73, 0
5, 6720, Note_on_c, 1, 73, 88
5, 6836, Note_off_c, 1, 73, 0
5, 6840, Note_on_c, 1, 71, 88
5, 6956, Note_off_c, 1, 71, 0
5, 7200, Note_on_c, 1, 57, 88
5, 7258, Note_off_c, 1, 57, 0
5, 7260, Note_on_c, 1, 59, 88
5, 7318, Note_off_c, 1, 59, 0
5, 7320, Note_on_c, 1, 61, 88
5, 7378, Note_off_c, 1, 61, 0
5, 7380, Note_on_c, 1, 57, 88
5, 7438, Note_off_c, 1, 57, 0
5, 7440, Note_on_c, 1, 66, 88
5, 7544, Note_off_c, 1, 66, 0
5, 7560, Note_on_c, 1, 66, 88
5, 7676, Note_off_c, 1, 66, 0
5, 7680, Note_on_c, 1, 66, 88
5, 7738, Note_off_c, 1, 66, 0
5, 7740, Note_on_c, 1, 63, 88
5, 7798, Note_off_c, 1, 63, 0
5, 7800, Note_on_c, 1, 64, 88
5, 7916, Note_off_c, 1, 64, 0
5, 7980, Note_on_c, 1, 64, 88
5, 8038, Note_off_c, 1, 64, 0
5, 8040, Note_on_c, 1, 66, 88
5, 8098, Note_off_c, 1, 66, 0
5, 8100, Note_on_c, 1, 67, 88
5, 8158, Note_off_c, 1, 67, 0
5, 8160, Note_on_c, 1, 69, 88
5, 8218, Note_off_c, 1, 69, 0
5, 8220, Note_on_c, 1, 67, 88
5, 8278, Note_off_c, 1, 67, 0
5, 8280, Note_on_c, 1, 66, 88
5, 8338, Note_off_c, 1, 66, 0
5, 8340, Note_on_c, 1, 69, 88
5, 8398, Note_off_c, 1, 69, 0
5, 8400, Note_on_c, 1, 62, 88
5, 8458, Note_off_c, 1, 62, 0
5, 8460, Note_on_c, 1, 61, 88
5, 8518, Note_off_c, 1, 61, 0
5, 8520, Note_on_c, 1, 59, 88
5, 8578, Note_off_c, 1, 59, 0
5, 8580, Note_on_c, 1, 69, 88
5, 8638, Note_off_c, 1, 69, 0
5, 8640, Note_on_c, 1, 68, 88
5, 8698, Note_off_c, 1, 68, 0
5, 8700, Note_on_c, 1, 66, 88
5, 8758, Note_off_c, 1, 66, 0
5, 8760, Note_on_c, 1, 64, 88
5, 8818, Note_off_c, 1, 64, 0
5, 8820, Note_on_c, 1, 68, 88
5, 8878, Note_off_c, 1, 68, 0
5, 8880, Note_on_c, 1, 61, 88
5, 8938, Note_off_c, 1, 61, 0
5, 8940, Note_on_c, 1, 59, 88
5, 8998, Note_off_c, 1, 59, 0
5, 9000, Note_on_c, 1, 57, 88
5, 9058, Note_off_c, 1, 57, 0
5, 9060, Note_on_c, 1, 67, 88
5, 9118, Note_off_c, 1, 67, 0
5, 9120, Note_on_c, 1, 66, 88
5, 9178, Note_off_c, 1, 66, 0
5, 9180, Note_on_c, 1, 64, 88
5, 9238, Note_off_c, 1, 64, 0
5, 9240, Note_on_c, 1, 62, 88
5, 9298, Note_off_c, 1, 62, 0
5, 9300, Note_on_c, 1, 66, 88
5, 9358, Note_off_c, 1, 66, 0
5, 9360, Note_on_c, 1, 59, 88
5, 9418, Note_off_c, 1, 59, 0
5, 9420, Note_on_c, 1, 66, 88
5, 9478, Note_off_c, 1, 66, 0
5, 9480, Note_on_c, 1, 64, 88
5, 9538, Note_off_c, 1, 64, 0
5, 9540, Note_on_c, 1, 62, 88
5, 9598, Note_off_c, 1, 62, 0
5, 9600, Note_on_c, 1, 61, 88
5, 9834, Note_off_c, 1, 61, 0
5, 9900, Note_on_c, 1, 76, 88
5, 9958, Note_off_c, 1, 76, 0
5, 9960, Note_on_c, 1, 74, 88
5, 10018, Note_off_c, 1, 74, 0
5, 10020, Note_on_c, 1, 73, 88
5, 10078, Note_off_c, 1, 73, 0
5, 10080, Note_on_c, 1, 71, 88
5, 10138, Note_off_c, 1, 71, 0
5, 10140, Note_on_c, 1, 69, 88
5, 10198, Note_off_c, 1, 69, 0
5, 10200, Note_on_c, 1, 68, 88
5, 10258, Note_off_c, 1, 68, 0
5, 10260, Note_on_c, 1, 71, 88
5, 10318, Note_off_c, 1, 71, 0
5, 10320, Note_on_c, 1, 61, 88
5, 10378, Note_off_c, 1, 61, 0
5, 10380, Note_on_c, 1, 74, 88
5, 10438, Note_off_c, 1, 74, 0
5, 10440, Note_on_c, 1, 73, 88
5, 10498, Note_off_c, 1, 73, 0
5, 10500, Note_on_c, 1, 71, 88
5, 10558, Note_off_c, 1, 71, 0
5, 10560, Note_on_c, 1, 69, 88
5, 10794, Note_off_c, 1, 69, 0
5, 10860, Note_on_c, 1, 73, 88
5, 10918, Note_off_c, 1, 73, 0
5, 10920, Note_on_c, 1, 71, 88
5, 10978, Note_off_c, 1, 71, 0
5, 10980, Note_on_c, 1, 69, 88
5, 11038, Note_off_c, 1, 69, 0
5, 11040, Note_on_c, 1, 68, 88
5, 11215, Note_off_c, 1, 68, 0
5, 11220, Note_on_c, 1, 56, 88
5, 11278, Note_off_c, 1, 56, 0
5, 11280, Note_on_c, 1, 61, 88
5, 11636, Note_off_c, 1, 61, 0
5, 11640, Note_on_c, 1, 54, 88
5, 11756, Note_off_c, 1, 54, 0
5, 11880, Note_on_c, 1, 59, 88
5, 12114, Note_off_c, 1, 59, 0
5, 12120, Note_on_c, 1, 53, 88
5, 12236, Note_off_c, 1, 53, 0
5, 12360, Note_on_c, 1, 57, 88
5, 12596, Note_off_c, 1, 57, 0
5, 12600, Note_on_c, 1, 56, 88
5, 12658, Note_off_c, 1, 56, 0
5, 12660, Note_on_c, 1, 54, 88
5, 12718, Note_off_c, 1, 54, 0
5, 12720, Note_on_c, 1, 53, 88
5, 12836, Note_off_c, 1, 53, 0
5, 12840, Note_on_c, 1, 59, 88
5, 12956, Note_off_c, 1, 59, 0
5, 12960, Note_on_c, 1, 57, 88
5, 13018, Note_off_c, 1, 57, 0
5, 13020, Note_on_c, 1, 74, 88
5, 13078, Note_off_c, 1, 74, 0
5, 13080, Note_on_c, 1, 73, 88
5, 13138, Note_off_c, 1, 73, 0
5, 13140, Note_on_c, 1, 71, 88
5, 13198, Note_off_c, 1, 71, 0
5, 13200, Note_on_c, 1, 69, 88
5, 13258, Note_off_c, 1, 69, 0
5, 13260, Note_on_c, 1, 68, 88
5, 13318, Note_off_c, 1, 68, 0
5, 13320, Note_on_c, 1, 66, 88
5, 13378, Note_off_c, 1, 66, 0
5, 13380, Note_on_c, 1, 64, 88
5, 13438, Note_off_c, 1, 64, 0
5, 13440, Note_on_c, 1, 63, 88
5, 13674, Note_off_c, 1, 63, 0
5, 13800, Note_on_c, 1, 76, 88
5, 13964, Note_off_c, 1, 76, 0
5, 13980, Note_on_c, 1, 76, 88
5, 14038, Note_off_c, 1, 76, 0
5, 14040, Note_on_c, 1, 75, 88
5, 14098, Note_off_c, 1, 75, 0
5, 14100, Note_on_c, 1, 73, 88
5, 14158, Note_off_c, 1, 73, 0
5, 14160, Note_on_c, 1, 71, 88
5, 14218, Note_off_c, 1, 71, 0
5, 14220, Note_on_c, 1, 69, 88
5, 14278, Note_off_c, 1, 69, 0
5, 14280, Note_on_c, 1, 68, 88
5, 14338, Note_off_c, 1, 68, 0
5, 14340, Note_on_c, 1, 66, 88
5, 14398, Note_off_c, 1, 66, 0
5, 14400, Note_on_c, 1, 64, 88
5, 14634, Note_off_c, 1, 64, 0
5, 14760, Note_on_c, 1, 78, 88
5, 14924, Note_off_c, 1, 78, 0
5, 14940, Note_on_c, 1, 78, 88
5, 14998, Note_off_c, 1, 78, 0
5, 15000, Note_on_c, 1, 76, 88
5, 15058, Note_off_c, 1, 76, 0
5, 15060, Note_on_c, 1, 74, 88
5, 15118, Note_off_c, 1, 74, 0
5, 15120, Note_on_c, 1, 73, 88
5, 15178, Note_off_c, 1, 73, 0
5, 15180, Note_on_c, 1, 71, 88
5, 15238, Note_off_c, 1, 71, 0
5, 15240, Note_on_c, 1, 69, 88
5, 15298, Note_off_c, 1, 69, 0
5, 15300, Note_on_c, 1, 68, 88
5, 15358, Note_off_c, 1, 68, 0
5, 15360, Note_on_c, 1, 66, 88
5, 15594, Note_off_c, 1, 66, 0
5, 15720, Note_on_c, 1, 71, 88
5, 15824, Note_off_c, 1, 71, 0
5, 15840, Note_on_c, 1, 71, 88
5, 15956, Note_off_c, 1, 71, 0
5, 15960, Note_on_c, 1, 64, 88
5, 16076, Note_off_c, 1, 64, 0
5, 16080, Note_on_c, 1, 69, 88
5, 16314, Note_off_c, 1, 69, 0
5, 16320, Note_on_c, 1, 68, 88
5, 16554, Note_off_c, 1, 68, 0
5, 16560, Note_on_c, 1, 67, 88
5, 16794, Note_off_c, 1, 67, 0
5, 16800, Note_on_c, 1, 66, 88
5, 17034, Note_off_c, 1, 66, 0
5, 17040, Note_on_c, 1, 71, 88
5, 17274, Note_off_c, 1, 71, 0
5, 17280, Note_on_c, 1, 64, 88
5, 17514, Note_off_c, 1, 64, 0
5, 17520, Note_on_c, 1, 69, 88
5, 17990, Note_off_c, 1, 69, 0
5, 18000, Note_on_c, 1, 68, 88
5, 18234, Note_off_c, 1, 68, 0
5, 18240, Note_on_c, 1, 69, 88
5, 18474, Note_off_c, 1, 69, 0
5, 18480, Note_on_c, 1, 57, 88
5, 18714, Note_off_c, 1, 57, 0
5, 18720, Note_on_c, 1, 56, 88
5, 18954, Note_off_c, 1, 56, 0
5, 18960, Note_on_c, 1, 55, 88
5, 19194, Note_off_c, 1, 55, 0
5, 19200, Note_on_c, 1, 54, 88
5, 19434, Note_off_c, 1, 54, 0
5, 19440, Note_on_c, 1, 59, 88
5, 19674, Note_off_c, 1, 59, 0
5, 19680, Note_on_c, 1, 52, 88
5, 19914, Note_off_c, 1, 52, 0
5, 19920, Note_on_c, 1, 57, 88
5, 20154, Note_off_c, 1, 57, 0
5, 20160, Note_on_c, 1, 50, 88
5, 20444, Note_off_c, 1, 50, 0
5, 20460, Note_on_c, 1, 50, 88
5, 20518, Note_off_c, 1, 50, 0
5, 20520, Note_on_c, 1, 49, 88
5, 20578, Note_off_c, 1, 49, 0
5, 20580, Note_on_c, 1, 47, 88
5, 20638, Note_off_c, 1, 47, 0
5, 20640, Note_on_c, 1, 45, 88
5, 20698, Note_off_c, 1, 45, 0
5, 20700, Note_on_c, 1, 47, 88
5, 20758, Note_off_c, 1, 47, 0
5, 20760, Note_on_c, 1, 49, 88
5, 20818, Note_off_c, 1, 49, 0
5, 20820, Note_on_c, 1, 45, 88
5, 20878, Note_off_c, 1, 45, 0
5, 20880, Note_on_c, 1, 50, 88
5, 20938, Note_off_c, 1, 50, 0
5, 20940, Note_on_c, 1, 52, 88
5, 20998, Note_off_c, 1, 52, 0
5, 21000, Note_on_c, 1, 54, 88
5, 21058, Note_off_c, 1, 54, 0
5, 21060, Note_on_c, 1, 50, 88
5, 21118, Note_off_c, 1, 50, 0
5, 21120, Note_on_c, 1, 56, 88
5, 21178, Note_off_c, 1, 56, 0
5, 21180, Note_on_c, 1, 57, 88
5, 21238, Note_off_c, 1, 57, 0
5, 21240, Note_on_c, 1, 56, 88
5, 21298, Note_off_c, 1, 56, 0
5, 21300, Note_on_c, 1, 54, 88
5, 21358, Note_off_c, 1, 54, 0
5, 21360, Note_on_c, 1, 52, 88
5, 21418, Note_off_c, 1, 52, 0
5, 21420, Note_on_c, 1, 62, 88
5, 21478, Note_off_c, 1, 62, 0
5, 21480, Note_on_c, 1, 61, 88
5, 21538, Note_off_c, 1, 61, 0
5, 21540, Note_on_c, 1, 59, 88
5, 21598, Note_off_c, 1, 59, 0
5, 21600, Note_on_c, 1, 57, 88
5, 21658, Note_off_c, 1, 57, 0
5, 22140, Note_on_c, 1, 80, 88
5, 22198, Note_off_c, 1, 80, 0
5, 22200, Note_on_c, 1, 78, 88
5, 22258, Note_off_c, 1, 78, 0
5, 22260, Note_on_c, 1, 76, 88
5, 22318, Note_off_c, 1, 76, 0
5, 22320, Note_on_c, 1, 74, 88
5, 22378, Note_off_c, 1, 74, 0
5, 22380, Note_on_c, 1, 73, 88
5, 22438, Note_off_c, 1, 73, 0
5, 22440, Note_on_c, 1, 71, 88
5, 22556, Note_off_c, 1, 71, 0
5, 22560, Note_on_c, 1, 73, 88
5, 23030, Note_off_c, 1, 73, 0
5, 23030, End_track
6, 0, Start_track
6, 0, Title_t, "Track 3"
6, 0, Program_c, 2, 6
6, 0, Note_on_c, 2, 45, 88
6, 234, Note_off_c, 2, 45, 0
6, 240, Note_on_c, 2, 57, 88
6, 474, Note_off_c, 2, 57, 0
6, 480, Note_on_c, 2, 56, 88
6, 714, Note_off_c, 2, 56, 0
6, 720, Note_on_c, 2, 55, 88
6, 954, Note_off_c, 2, 55, 0
6, 960, Note_on_c, 2, 54, 88
6, 1194, Note_off_c, 2, 54, 0
6, 1200, Note_on_c, 2, 59, 88
6, 1434, Note_off_c, 2, 59, 0
6, 1440, Note_on_c, 2, 52, 88
6, 1674, Note_off_c, 2, 52, 0
6, 1680, Note_on_c, 2, 57, 88
6, 1914, Note_off_c, 2, 57, 0
6, 1920, Note_on_c, 2, 50, 88
6, 2154, Note_off_c, 2, 50, 0
6, 2160, Note_on_c, 2, 52, 88
6, 2394, Note_off_c, 2, 52, 0
6, 2400, Note_on_c, 2, 45, 88
6, 2516, Note_off_c, 2, 45, 0
6, 2520, Note_on_c, 2, 57, 88
6, 2636, Note_off_c, 2, 57, 0
6, 2640, Note_on_c, 2, 56, 88
6, 2756, Note_off_c, 2, 56, 0
6, 2760, Note_on_c, 2, 54, 88
6, 2876, Note_off_c, 2, 54, 0
6, 2880, Note_on_c, 2, 52, 88
6, 2938, Note_off_c, 2, 52, 0
6, 2940, Note_on_c, 2, 54, 88
6, 2998, Note_off_c, 2, 54, 0
6, 3000, Note_on_c, 2, 56, 88
6, 3058, Note_off_c, 2, 56, 0
6, 3060, Note_on_c, 2, 52, 88
6, 3118, Note_off_c, 2, 52, 0
6, 3120, Note_on_c, 2, 61, 88
6, 3224, Note_off_c, 2, 61, 0
6, 3240, Note_on_c, 2, 61, 88
6, 3344, Note_off_c, 2, 61, 0
6, 3360, Note_on_c, 2, 61, 88
6, 3418, Note_off_c, 2, 61, 0
6, 3420, Note_on_c, 2, 58, 88
6, 3478, Note_off_c, 2, 58, 0
6, 3480, Note_on_c, 2, 59, 88
6, 3596, Note_off_c, 2, 59, 0
6, 3660, Note_on_c, 2, 59, 88
6, 3718, Note_off_c, 2, 59, 0
6, 3720, Note_on_c, 2, 61, 88
6, 3778, Note_off_c, 2, 61, 0
6, 3780, Note_on_c, 2, 62, 88
6, 3838, Note_off_c, 2, 62, 0
6, 3840, Note_on_c, 2, 64, 88
6, 3898, Note_off_c, 2, 64, 0
6, 3900, Note_on_c, 2, 62, 88
6, 3958, Note_off_c, 2, 62, 0
6, 3960, Note_on_c, 2, 61, 88
6, 4018, Note_off_c, 2, 61, 0
6, 4020, Note_on_c, 2, 64, 88
6, 4078, Note_off_c, 2, 64, 0
6, 4080, Note_on_c, 2, 57, 88
6, 4138, Note_off_c, 2, 57, 0
6, 4140, Note_on_c, 2, 56, 88
6, 4198, Note_off_c, 2, 56, 0
6, 4200, Note_on_c, 2, 54, 88
6, 4258, Note_off_c, 2, 54, 0
6, 4260, Note_on_c, 2, 64, 88
6, 4318, Note_off_c, 2, 64, 0
6, 4320, Note_on_c, 2, 63, 88
6, 4378, Note_off_c, 2, 63, 0
6, 4380, Note_on_c, 2, 61, 88
6, 4438, Note_off_c, 2, 61, 0
6, 4440, Note_on_c, 2, 59, 88
6, 4498, Note_off_c, 2, 59, 0
6, 4500, Note_on_c, 2, 63, 88
6, 4558, Note_off_c, 2, 63, 0
6, 4560, Note_on_c, 2, 56, 88
6, 4618, Note_off_c, 2, 56, 0
6, 4620, Note_on_c, 2, 54, 88
6, 4678, Note_off_c, 2, 54, 0
6, 4680, Note_on_c, 2, 52, 88
6, 4738, Note_off_c, 2, 52, 0
6, 4740, Note_on_c, 2, 62, 88
6, 4798, Note_off_c, 2, 62, 0
6, 4800, Note_on_c, 2, 61, 88
6, 4858, Note_off_c, 2, 61, 0
6, 4860, Note_on_c, 2, 59, 88
6, 4918, Note_off_c, 2, 59, 0
6, 4920, Note_on_c, 2, 57, 88
6, 4978, Note_off_c, 2, 57, 0
6, 4980, Note_on_c, 2, 61, 88
6, 5038, Note_off_c, 2, 61, 0
6, 5040, Note_on_c, 2, 54, 88
6, 5098, Note_off_c, 2, 54, 0
6, 5100, Note_on_c, 2, 61, 88
6, 5158, Note_off_c, 2, 61, 0
6, 5160, Note_on_c, 2, 59, 88
6, 5218, Note_off_c, 2, 59, 0
6, 5220, Note_on_c, 2, 57, 88
6, 5278, Note_off_c, 2, 57, 0
6, 5280, Note_on_c, 2, 56, 88
6, 5338, Note_off_c, 2, 56, 0
6, 5340, Note_on_c, 2, 54, 88
6, 5398, Note_off_c, 2, 54, 0
6, 5400, Note_on_c, 2, 52, 88
6, 5458, Note_off_c, 2, 52, 0
6, 5460, Note_on_c, 2, 54, 88
6, 5518, Note_off_c, 2, 54, 0
6, 5520, Note_on_c, 2, 56, 88
6, 5578, Note_off_c, 2, 56, 0
6, 5580, Note_on_c, 2, 57, 88
6, 5638, Note_off_c, 2, 57, 0
6, 5640, Note_on_c, 2, 59, 88
6, 5698, Note_off_c, 2, 59, 0
6, 5700, Note_on_c, 2, 61, 88
6, 5758, Note_off_c, 2, 61, 0
6, 5760, Note_on_c, 2, 62, 88
6, 5818, Note_off_c, 2, 62, 0
6, 5820, Note_on_c, 2, 64, 88
6, 5878, Note_off_c, 2, 64, 0
6, 5880, Note_on_c, 2, 66, 88
6, 5938, Note_off_c, 2, 66, 0
6, 5940, Note_on_c, 2, 62, 88
6, 5998, Note_off_c, 2, 62, 0
6, 6000, Note_on_c, 2, 59, 88
6, 6058, Note_off_c, 2, 59, 0
6, 6060, Note_on_c, 2, 61, 88
6, 6118, Note_off_c, 2, 61, 0
6, 6120, Note_on_c, 2, 62, 88
6, 6178, Note_off_c, 2, 62, 0
6, 6180, Note_on_c, 2, 59, 88
6, 6238, Note_off_c, 2, 59, 0
6, 6240, Note_on_c, 2, 61, 88
6, 6298, Note_off_c, 2, 61, 0
6, 6300, Note_on_c, 2, 62, 88
6, 6358, Note_off_c, 2, 62, 0
6, 6360, Note_on_c, 2, 64, 88
6, 6418, Note_off_c, 2, 64, 0
6, 6420, Note_on_c, 2, 61, 88
6, 6478, Note_off_c, 2, 61, 0
6, 6480, Note_on_c, 2, 57, 88
6, 6538, Note_off_c, 2, 57, 0
6, 6540, Note_on_c, 2, 59, 88
6, 6598, Note_off_c, 2, 59, 0
6, 6600, Note_on_c, 2, 61, 88
6, 6658, Note_off_c, 2, 61, 0
6, 6660, Note_on_c, 2, 57, 88
6, 6718, Note_off_c, 2, 57, 0
6, 6720, Note_on_c, 2, 59, 88
6, 6778, Note_off_c, 2, 59, 0
6, 6780, Note_on_c, 2, 61, 88
6, 6838, Note_off_c, 2, 61, 0
6, 6840, Note_on_c, 2, 62, 88
6, 6898, Note_off_c, 2, 62, 0
6, 6900, Note_on_c, 2, 59, 88
6, 6958, Note_off_c, 2, 59, 0
6, 6960, Note_on_c, 2, 56, 88
6, 7018, Note_off_c, 2, 56, 0
6, 7020, Note_on_c, 2, 57, 88
6, 7078, Note_off_c, 2, 57, 0
6, 7080, Note_on_c, 2, 59, 88
6, 7138, Note_off_c, 2, 59, 0
6, 7140, Note_on_c, 2, 56, 88
6, 7198, Note_off_c, 2, 56, 0
6, 7200, Note_on_c, 2, 57, 88
6, 7494, Note_off_c, 2, 57, 0
6, 7500, Note_on_c, 2, 61, 88
6, 7558, Note_off_c, 2, 61, 0
6, 7560, Note_on_c, 2, 57, 88
6, 7618, Note_off_c, 2, 57, 0
6, 7620, Note_on_c, 2, 54, 88
6, 7678, Note_off_c, 2, 54, 0
6, 7680, Note_on_c, 2, 61, 88
6, 7914, Note_off_c, 2, 61, 0
6, 7980, Note_on_c, 2, 64, 88
6, 8274, Note_off_c, 2, 64, 0
6, 8280, Note_on_c, 2, 57, 88
6, 8396, Note_off_c, 2, 57, 0
6, 8520, Note_on_c, 2, 62, 88
6, 8756, Note_off_c, 2, 62, 0
6, 8760, Note_on_c, 2, 56, 88
6, 8876, Note_off_c, 2, 56, 0
6, 9000, Note_on_c, 2, 61, 88
6, 9116, Note_off_c, 2, 61, 0
6, 9120, Note_on_c, 2, 62, 88
6, 9236, Note_off_c, 2, 62, 0
6, 9240, Note_on_c, 2, 59, 88
6, 9356, Note_off_c, 2, 59, 0
6, 9480, Note_on_c, 2, 52, 88
6, 9596, Note_off_c, 2, 52, 0
6, 9600, Note_on_c, 2, 57, 88
6, 9716, Note_off_c, 2, 57, 0
6, 9720, Note_on_c, 2, 56, 88
6, 9836, Note_off_c, 2, 56, 0
6, 9840, Note_on_c, 2, 57, 88
6, 9956, Note_off_c, 2, 57, 0
6, 9960, Note_on_c, 2, 54, 88
6, 10076, Note_off_c, 2, 54, 0
6, 10080, Note_on_c, 2, 56, 88
6, 10196, Note_off_c, 2, 56, 0
6, 10200, Note_on_c, 2, 59, 88
6, 10316, Note_off_c, 2, 59, 0
6, 10320, Note_on_c, 2, 61, 88
6, 10436, Note_off_c, 2, 61, 0
6, 10440, Note_on_c, 2, 49, 88
6, 10556, Note_off_c, 2, 49, 0
6, 10560, Note_on_c, 2, 54, 88
6, 10676, Note_off_c, 2, 54, 0
6, 10680, Note_on_c, 2, 42, 88
6, 10796, Note_off_c, 2, 42, 0
6, 10800, Note_on_c, 2, 54, 88
6, 11034, Note_off_c, 2, 54, 0
6, 11040, Note_on_c, 2, 53, 88
6, 11274, Note_off_c, 2, 53, 0
6, 11280, Note_on_c, 2, 52, 88
6, 11514, Note_off_c, 2, 52, 0
6, 11520, Note_on_c, 2, 51, 88
6, 11754, Note_off_c, 2, 51, 0
6, 11760, Note_on_c, 2, 56, 88
6, 11994, Note_off_c, 2, 56, 0
6, 12000, Note_on_c, 2, 49, 88
6, 12234, Note_off_c, 2, 49, 0
6, 12240, Note_on_c, 2, 54, 88
6, 12474, Note_off_c, 2, 54, 0
6, 12480, Note_on_c, 2, 50, 88
6, 12596, Note_off_c, 2, 50, 0
6, 12600, Note_on_c, 2, 47, 88
6, 12716, Note_off_c, 2, 47, 0
6, 12720, Note_on_c, 2, 49, 88
6, 12954, Note_off_c, 2, 49, 0
6, 12960, Note_on_c, 2, 54, 88
6, 13194, Note_off_c, 2, 54, 0
6, 13500, Note_on_c, 2, 61, 88
6, 13558, Note_off_c, 2, 61, 0
6, 13560, Note_on_c, 2, 59, 88
6, 13618, Note_off_c, 2, 59, 0
6, 13620, Note_on_c, 2, 57, 88
6, 13678, Note_off_c, 2, 57, 0
6, 13680, Note_on_c, 2, 56, 88
6, 13738, Note_off_c, 2, 56, 0
6, 13740, Note_on_c, 2, 54, 88
6, 13798, Note_off_c, 2, 54, 0
6, 13800, Note_on_c, 2, 52, 88
6, 13858, Note_off_c, 2, 52, 0
6, 13860, Note_on_c, 2, 58, 88
6, 13918, Note_off_c, 2, 58, 0
6, 13920, Note_on_c, 2, 47, 88
6, 14154, Note_off_c, 2, 47, 0
6, 14460, Note_on_c, 2, 63, 88
6, 14518, Note_off_c, 2, 63, 0
6, 14520, Note_on_c, 2, 61, 88
6, 14578, Note_off_c, 2, 61, 0
6, 14580, Note_on_c, 2, 59, 88
6, 14638, Note_off_c, 2, 59, 0
6, 14640, Note_on_c, 2, 57, 88
6, 14698, Note_off_c, 2, 57, 0
6, 14700, Note_on_c, 2, 56, 88
6, 14758, Note_off_c, 2, 56, 0
6, 14760, Note_on_c, 2, 54, 88
6, 14818, Note_off_c, 2, 54, 0
6, 14820, Note_on_c, 2, 63, 88
6, 14878, Note_off_c, 2, 63, 0
6, 14880, Note_on_c, 2, 52, 88
6, 15114, Note_off_c, 2, 52, 0
6, 15420, Note_on_c, 2, 64, 88
6, 15478, Note_off_c, 2, 64, 0
6, 15480, Note_on_c, 2, 62, 88
6, 15538, Note_off_c, 2, 62, 0
6, 15540, Note_on_c, 2, 61, 88
6, 15598, Note_off_c, 2, 61, 0
6, 15600, Note_on_c, 2, 59, 88
6, 15658, Note_off_c, 2, 59, 0
6, 15660, Note_on_c, 2, 57, 88
6, 15718, Note_off_c, 2, 57, 0
6, 15720, Note_on_c, 2, 56, 88
6, 15778, Note_off_c, 2, 56, 0
6, 15780, Note_on_c, 2, 59, 88
6, 15838, Note_off_c, 2, 59, 0
6, 15840, Note_on_c, 2, 45, 88
6, 15898, Note_off_c, 2, 45, 0
6, 15900, Note_on_c, 2, 47, 88
6, 15958, Note_off_c, 2, 47, 0
6, 15960, Note_on_c, 2, 49, 88
6, 16018, Note_off_c, 2, 49, 0
6, 16020, Note_on_c, 2, 45, 88
6, 16078, Note_off_c, 2, 45, 0
6, 16080, Note_on_c, 2, 54, 88
6, 16184, Note_off_c, 2, 54, 0
6, 16200, Note_on_c, 2, 54, 88
6, 16316, Note_off_c, 2, 54, 0
6, 16320, Note_on_c, 2, 54, 88
6, 16378, Note_off_c, 2, 54, 0
6, 16380, Note_on_c, 2, 51, 88
6, 16438, Note_off_c, 2, 51, 0
6, 16440, Note_on_c, 2, 52, 88
6, 16556, Note_off_c, 2, 52, 0
6, 16620, Note_on_c, 2, 52, 88
6, 16678, Note_off_c, 2, 52, 0
6, 16680, Note_on_c, 2, 54, 88
6, 16738, Note_off_c, 2, 54, 0
6, 16740, Note_on_c, 2, 55, 88
6, 16798, Note_off_c, 2, 55, 0
6, 16800, Note_on_c, 2, 57, 88
6, 16858, Note_off_c, 2, 57, 0
6, 16860, Note_on_c, 2, 55, 88
6, 16918, Note_off_c, 2, 55, 0
6, 16920, Note_on_c, 2, 54, 88
6, 16978, Note_off_c, 2, 54, 0
6, 16980, Note_on_c, 2, 57, 88
6, 17038, Note_off_c, 2, 57, 0
6, 17040, Note_on_c, 2, 50, 88
6, 17098, Note_off_c, 2, 50, 0
6, 17100, Note_on_c, 2, 49, 88
6, 17158, Note_off_c, 2, 49, 0
6, 17160, Note_on_c, 2, 47, 88
6, 17218, Note_off_c, 2, 47, 0
6, 17220, Note_on_c, 2, 57, 88
6, 17278, Note_off_c, 2, 57, 0
6, 17280, Note_on_c, 2, 56, 88
6, 17338, Note_off_c, 2, 56, 0
6, 17340, Note_on_c, 2, 54, 88
6, 17398, Note_off_c, 2, 54, 0
6, 17400, Note_on_c, 2, 52, 88
6, 17458, Note_off_c, 2, 52, 0
6, 17460, Note_on_c, 2, 56, 88
6, 17518, Note_off_c, 2, 56, 0
6, 17520, Note_on_c, 2, 49, 88
6, 17578, Note_off_c, 2, 49, 0
6, 17580, Note_on_c, 2, 47, 88
6, 17638, Note_off_c, 2, 47, 0
6, 17640, Note_on_c, 2, 45, 88
6, 17698, Note_off_c, 2, 45, 0
6, 17700, Note_on_c, 2, 55, 88
6, 17758, Note_off_c, 2, 55, 0
6, 17760, Note_on_c, 2, 54, 88
6, 17818, Note_off_c, 2, 54, 0
6, 17820, Note_on_c, 2, 52, 88
6, 17878, Note_off_c, 2, 52, 0
6, 17880, Note_on_c, 2, 50, 88
6, 17938, Note_off_c, 2, 50, 0
6, 17940, Note_on_c, 2, 54, 88
6, 17998, Note_off_c, 2, 54, 0
6, 18000, Note_on_c, 2, 47, 88
6, 18058, Note_off_c, 2, 47, 0
6, 18060, Note_on_c, 2, 54, 88
6, 18118, Note_off_c, 2, 54, 0
6, 18120, Note_on_c, 2, 52, 88
6, 18178, Note_off_c, 2, 52, 0
6, 18180, Note_on_c, 2, 50, 88
6, 18238, Note_off_c, 2, 50, 0
6, 18240, Note_on_c, 2, 49, 88
6, 18298, Note_off_c, 2, 49, 0
6, 18300, Note_on_c, 2, 47, 88
6, 18358, Note_off_c, 2, 47, 0
6, 18360, Note_on_c, 2, 45, 88
6, 18418, Note_off_c, 2, 45, 0
6, 18420, Note_on_c, 2, 49, 88
6, 18478, Note_off_c, 2, 49, 0
6, 18480, Note_on_c, 2, 50, 88
6, 18538, Note_off_c, 2, 50, 0
6, 18540, Note_on_c, 2, 52, 88
6, 18598, Note_off_c, 2, 52, 0
6, 18600, Note_on_c, 2, 50, 88
6, 18658, Note_off_c, 2, 50, 0
6, 18660, Note_on_c, 2, 49, 88
6, 18718, Note_off_c, 2, 49, 0
6, 18720, Note_on_c, 2, 47, 88
6, 18778, Note_off_c, 2, 47, 0
6, 18780, Note_on_c, 2, 45, 88
6, 18838, Note_off_c, 2, 45, 0
6, 18840, Note_on_c, 2, 44, 88
6, 18898, Note_off_c, 2, 44, 0
6, 18900, Note_on_c, 2, 47, 88
6, 18958, Note_off_c, 2, 47, 0
6, 18960, Note_on_c, 2, 49, 88
6, 19076, Note_off_c, 2, 49, 0
6, 19080, Note_on_c, 2, 52, 88
6, 19316, Note_off_c, 2, 52, 0
6, 19320, Note_on_c, 2, 45, 88
6, 19436, Note_off_c, 2, 45, 0
6, 19560, Note_on_c, 2, 50, 88
6, 19794, Note_off_c, 2, 50, 0
6, 19800, Note_on_c, 2, 44, 88
6, 19916, Note_off_c, 2, 44, 0
6, 20040, Note_on_c, 2, 49, 88
6, 20276, Note_off_c, 2, 49, 0
6, 20280, Note_on_c, 2, 47, 88
6, 20338, Note_off_c, 2, 47, 0
6, 20340, Note_on_c, 2, 45, 88
6, 20398, Note_off_c, 2, 45, 0
6, 20400, Note_on_c, 2, 44, 88
6, 20634, Note_off_c, 2, 44, 0
6, 20640, Note_on_c, 2, 45, 88
6, 20756, Note_off_c, 2, 45, 0
6, 21660, Note_on_c, 2, 54, 88
6, 21718, Note_off_c, 2, 54, 0
6, 21720, Note_on_c, 2, 52, 88
6, 21778, Note_off_c, 2, 52, 0
6, 21780, Note_on_c, 2, 50, 88
6, 21838, Note_off_c, 2, 50, 0
6, 21840, Note_on_c, 2, 49, 88
6, 21898, Note_off_c, 2, 49, 0
6, 21900, Note_on_c, 2, 47, 88
6, 21958, Note_off_c, 2, 47, 0
6, 21960, Note_on_c, 2, 45, 88
6, 22018, Note_off_c, 2, 45, 0
6, 22020, Note_on_c, 2, 44, 88
6, 22078, Note_off_c, 2, 44, 0
6, 22080, Note_on_c, 2, 42, 88
6, 22138, Note_off_c, 2, 42, 0
6, 22140, Note_on_c, 2, 40, 88
6, 22198, Note_off_c, 2, 40, 0
6, 22200, Note_on_c, 2, 38, 88
6, 22316, Note_off_c, 2, 38, 0
6, 22320, Note_on_c, 2, 40, 88
6, 22436, Note_off_c, 2, 40, 0
6, 22440, Note_on_c, 2, 52, 88
6, 22556, Note_off_c, 2, 52, 0
6, 22560, Note_on_c, 2, 45, 88
6, 23030, Note_off_c, 2, 45, 0
6, 23030, End_track
0, 0, End_of_file
