0, 0, Header, 1, 7, 240
1, 0, Start_track
1, 0, Time_signature, 4, 2, 24, 8
1, 0, Tempo, 909090
1, 0, SMPTE_offset, 64, 0, 0, 0, 93
1, 0, End_track
2, 0, Start_track
2, 0, Title_t, "(C) & (P) 1993"
2, 127, End_track
3, 0, Start_track
3, 0, Title_t, "CCARH,Stanford"
3, 0, End_track
4, 0, Start_track
4, 0, Title_t, "Track 1"
4, 0, Program_c, 0, 6
4, 4080, Note_on_c, 0, 69, 88
4, 4109, Note_off_c, 0, 69, 0
4, 4110, Note_on_c, 0, 71, 88
4, 4139, Note_off_c, 0, 71, 0
4, 4140, Note_on_c, 0, 73, 88
4, 4169, Note_off_c, 0, 73, 0
4, 4170, Note_on_c, 0, 74, 88
4, 4199, Note_off_c, 0, 74, 0
4, 4200, Note_on_c, 0, 73, 88
4, 4229, Note_off_c, 0, 73, 0
4, 4230, Note_on_c, 0, 71, 88
4, 4259, Note_off_c, 0, 71, 0
4, 4260, Note_on_c, 0, 73, 88
4, 4289, Note_off_c, 0, 73, 0
4, 4290, Note_on_c, 0, 69, 88
4, 4319, Note_off_c, 0, 69, 0
4, 4320, Note_on_c, 0, 78, 88
4, 4484, Note_off_c, 0, 78, 0
4, 4500, Note_on_c, 0, 78, 88
4, 4558, Note_off_c, 0, 78, 0
4, 4560, Note_on_c, 0, 76, 88
4, 4735, Note_off_c, 0, 76, 0
4, 4740, Note_on_c, 0, 74, 88
4, 4798, Note_off_c, 0, 74, 0
4, 4800, Note_on_c, 0, 73, 88
4, 4946, Note_off_c, 0, 73, 0
4, 4950, Note_on_c, 0, 76, 88
4, 4979, Note_off_c, 0, 76, 0
4, 4980, Note_on_c, 0, 78, 88
4, 5009, Note_off_c, 0, 78, 0
4, 5010, Note_on_c, 0, 79, 88
4, 5039, Note_off_c, 0, 79, 0
4, 5040, Note_on_c, 0, 81, 88
4, 5204, Note_off_c, 0, 81, 0
4, 5220, Note_on_c, 0, 81, 88
4, 5264, Note_off_c, 0, 81, 0
4, 5280, Note_on_c, 0, 81, 88
4, 5426, Note_off_c, 0, 81, 0
4, 5430, Note_on_c, 0, 74, 88
4, 5459, Note_off_c, 0, 74, 0
4, 5460, Note_on_c, 0, 76, 88
4, 5489, Note_off_c, 0, 76, 0
4, 5490, Note_on_c, 0, 78, 88
4, 5519, Note_off_c, 0, 78, 0
4, 5520, Note_on_c, 0, 79, 88
4, 5684, Note_off_c, 0, 79, 0
4, 5700, Note_on_c, 0, 79, 88
4, 5758, Note_off_c, 0, 79, 0
4, 5760, Note_on_c, 0, 79, 88
4, 5994, Note_off_c, 0, 79, 0
4, 6000, Note_on_c, 0, 78, 88
4, 6175, Note_off_c, 0, 78, 0
4, 6180, Note_on_c, 0, 76, 88
4, 6238, Note_off_c, 0, 76, 0
4, 6240, Note_on_c, 0, 74, 88
4, 6415, Note_off_c, 0, 74, 0
4, 6420, Note_on_c, 0, 76, 88
4, 6478, Note_off_c, 0, 76, 0
4, 6480, Note_on_c, 0, 73, 88
4, 6644, Note_off_c, 0, 73, 0
4, 6660, Note_on_c, 0, 73, 88
4, 6718, Note_off_c, 0, 73, 0
4, 6720, Note_on_c, 0, 73, 88
4, 6954, Note_off_c, 0, 73, 0
4, 6960, Note_on_c, 0, 71, 88
4, 6989, Note_off_c, 0, 71, 0
4, 6990, Note_on_c, 0, 73, 88
4, 7019, Note_off_c, 0, 73, 0
4, 7020, Note_on_c, 0, 74, 88
4, 7049, Note_off_c, 0, 74, 0
4, 7050, Note_on_c, 0, 76, 88
4, 7079, Note_off_c, 0, 76, 0
4, 7080, Note_on_c, 0, 74, 88
4, 7109, Note_off_c, 0, 74, 0
4, 7110, Note_on_c, 0, 73, 88
4, 7139, Note_off_c, 0, 73, 0
4, 7140, Note_on_c, 0, 74, 88
4, 7169, Note_off_c, 0, 74, 0
4, 7170, Note_on_c, 0, 71, 88
4, 7199, Note_off_c, 0, 71, 0
4, 7200, Note_on_c, 0, 79, 88
4, 7364, Note_off_c, 0, 79, 0
4, 7380, Note_on_c, 0, 79, 88
4, 7438, Note_off_c, 0, 79, 0
4, 7440, Note_on_c, 0, 78, 88
4, 7615, Note_off_c, 0, 78, 0
4, 7620, Note_on_c, 0, 76, 88
4, 7678, Note_off_c, 0, 76, 0
4, 7680, Note_on_c, 0, 74, 88
4, 7914, Note_off_c, 0, 74, 0
4, 7920, Note_on_c, 0, 83, 88
4, 7978, Note_off_c, 0, 83, 0
4, 7980, Note_on_c, 0, 81, 88
4, 8038, Note_off_c, 0, 81, 0
4, 8040, Note_on_c, 0, 83, 88
4, 8098, Note_off_c, 0, 83, 0
4, 8100, Note_on_c, 0, 80, 88
4, 8144, Note_off_c, 0, 80, 0
4, 8160, Note_on_c, 0, 80, 88
4, 8218, Note_off_c, 0, 80, 0
4, 8220, Note_on_c, 0, 78, 88
4, 8278, Note_off_c, 0, 78, 0
4, 8280, Note_on_c, 0, 80, 88
4, 8338, Note_off_c, 0, 80, 0
4, 8340, Note_on_c, 0, 76, 88
4, 8384, Note_off_c, 0, 76, 0
4, 8400, Note_on_c, 0, 76, 88
4, 8458, Note_off_c, 0, 76, 0
4, 8460, Note_on_c, 0, 74, 88
4, 8518, Note_off_c, 0, 74, 0
4, 8520, Note_on_c, 0, 76, 88
4, 8578, Note_off_c, 0, 76, 0
4, 8580, Note_on_c, 0, 73, 88
4, 8638, Note_off_c, 0, 73, 0
4, 8640, Note_on_c, 0, 74, 88
4, 8756, Note_off_c, 0, 74, 0
4, 8760, Note_on_c, 0, 73, 88
4, 8876, Note_off_c, 0, 73, 0
4, 8880, Note_on_c, 0, 81, 88
4, 8938, Note_off_c, 0, 81, 0
4, 8940, Note_on_c, 0, 79, 88
4, 8998, Note_off_c, 0, 79, 0
4, 9000, Note_on_c, 0, 81, 88
4, 9058, Note_off_c, 0, 81, 0
4, 9060, Note_on_c, 0, 78, 88
4, 9104, Note_off_c, 0, 78, 0
4, 9120, Note_on_c, 0, 78, 88
4, 9178, Note_off_c, 0, 78, 0
4, 9180, Note_on_c, 0, 76, 88
4, 9238, Note_off_c, 0, 76, 0
4, 9240, Note_on_c, 0, 78, 88
4, 9298, Note_off_c, 0, 78, 0
4, 9300, Note_on_c, 0, 74, 88
4, 9344, Note_off_c, 0, 74, 0
4, 9360, Note_on_c, 0, 74, 88
4, 9418, Note_off_c, 0, 74, 0
4, 9420, Note_on_c, 0, 72, 88
4, 9478, Note_off_c, 0, 72, 0
4, 9480, Note_on_c, 0, 74, 88
4, 9538, Note_off_c, 0, 74, 0
4, 9540, Note_on_c, 0, 71, 88
4, 9598, Note_off_c, 0, 71, 0
4, 9600, Note_on_c, 0, 71, 88
4, 9834, Note_off_c, 0, 71, 0
4, 9840, Note_on_c, 0, 67, 88
4, 9869, Note_off_c, 0, 67, 0
4, 9870, Note_on_c, 0, 69, 88
4, 9899, Note_off_c, 0, 69, 0
4, 9900, Note_on_c, 0, 71, 88
4, 9929, Note_off_c, 0, 71, 0
4, 9930, Note_on_c, 0, 72, 88
4, 9959, Note_off_c, 0, 72, 0
4, 9960, Note_on_c, 0, 71, 88
4, 9989, Note_off_c, 0, 71, 0
4, 9990, Note_on_c, 0, 69, 88
4, 10019, Note_off_c, 0, 69, 0
4, 10020, Note_on_c, 0, 71, 88
4, 10049, Note_off_c, 0, 71, 0
4, 10050, Note_on_c, 0, 67, 88
4, 10079, Note_off_c, 0, 67, 0
4, 10080, Note_on_c, 0, 76, 88
4, 10244, Note_off_c, 0, 76, 0
4, 10260, Note_on_c, 0, 76, 88
4, 10318, Note_off_c, 0, 76, 0
4, 10320, Note_on_c, 0, 74, 88
4, 10495, Note_off_c, 0, 74, 0
4, 10500, Note_on_c, 0, 72, 88
4, 10558, Note_off_c, 0, 72, 0
4, 10560, Note_on_c, 0, 71, 88
4, 10735, Note_off_c, 0, 71, 0
4, 10740, Note_on_c, 0, 73, 88
4, 10798, Note_off_c, 0, 73, 0
4, 10800, Note_on_c, 0, 74, 88
4, 11270, Note_off_c, 0, 74, 0
4, 11280, Note_on_c, 0, 73, 88
4, 11514, Note_off_c, 0, 73, 0
4, 11520, Note_on_c, 0, 74, 88
4, 11744, Note_off_c, 0, 74, 0
4, 11760, Note_on_c, 0, 74, 88
4, 11789, Note_off_c, 0, 74, 0
4, 11790, Note_on_c, 0, 76, 88
4, 11819, Note_off_c, 0, 76, 0
4, 11820, Note_on_c, 0, 78, 88
4, 11849, Note_off_c, 0, 78, 0
4, 11850, Note_on_c, 0, 79, 88
4, 11879, Note_off_c, 0, 79, 0
4, 11880, Note_on_c, 0, 78, 88
4, 11909, Note_off_c, 0, 78, 0
4, 11910, Note_on_c, 0, 76, 88
4, 11939, Note_off_c, 0, 76, 0
4, 11940, Note_on_c, 0, 78, 88
4, 11969, Note_off_c, 0, 78, 0
4, 11970, Note_on_c, 0, 74, 88
4, 11999, Note_off_c, 0, 74, 0
4, 12000, Note_on_c, 0, 83, 88
4, 12164, Note_off_c, 0, 83, 0
4, 12180, Note_on_c, 0, 83, 88
4, 12238, Note_off_c, 0, 83, 0
4, 12240, Note_on_c, 0, 81, 88
4, 12415, Note_off_c, 0, 81, 0
4, 12420, Note_on_c, 0, 79, 88
4, 12478, Note_off_c, 0, 79, 0
4, 12480, Note_on_c, 0, 78, 88
4, 12626, Note_off_c, 0, 78, 0
4, 12630, Note_on_c, 0, 74, 88
4, 12659, Note_off_c, 0, 74, 0
4, 12660, Note_on_c, 0, 76, 88
4, 12689, Note_off_c, 0, 76, 0
4, 12690, Note_on_c, 0, 78, 88
4, 12719, Note_off_c, 0, 78, 0
4, 12720, Note_on_c, 0, 79, 88
4, 12884, Note_off_c, 0, 79, 0
4, 12900, Note_on_c, 0, 79, 88
4, 12944, Note_off_c, 0, 79, 0
4, 12960, Note_on_c, 0, 79, 88
4, 13135, Note_off_c, 0, 79, 0
4, 13140, Note_on_c, 0, 81, 88
4, 13198, Note_off_c, 0, 81, 0
4, 13200, Note_on_c, 0, 78, 88
4, 13364, Note_off_c, 0, 78, 0
4, 13380, Note_on_c, 0, 78, 88
4, 13438, Note_off_c, 0, 78, 0
4, 13440, Note_on_c, 0, 78, 88
4, 13615, Note_off_c, 0, 78, 0
4, 13620, Note_on_c, 0, 76, 88
4, 13649, Note_off_c, 0, 76, 0
4, 13650, Note_on_c, 0, 75, 88
4, 13679, Note_off_c, 0, 75, 0
4, 13680, Note_on_c, 0, 76, 88
4, 14092, Note_off_c, 0, 76, 0
4, 14100, Note_on_c, 0, 75, 88
4, 14158, Note_off_c, 0, 75, 0
4, 14160, Note_on_c, 0, 76, 88
4, 14335, Note_off_c, 0, 76, 0
4, 14340, Note_on_c, 0, 78, 88
4, 14398, Note_off_c, 0, 78, 0
4, 14400, Note_on_c, 0, 71, 88
4, 14575, Note_off_c, 0, 71, 0
4, 14580, Note_on_c, 0, 72, 88
4, 14609, Note_off_c, 0, 72, 0
4, 14610, Note_on_c, 0, 69, 88
4, 14639, Note_off_c, 0, 69, 0
4, 14640, Note_on_c, 0, 71, 88
4, 14815, Note_off_c, 0, 71, 0
4, 14820, Note_on_c, 0, 72, 88
4, 14878, Note_off_c, 0, 72, 0
4, 14880, Note_on_c, 0, 67, 88
4, 15114, Note_off_c, 0, 67, 0
4, 15120, Note_on_c, 0, 66, 88
4, 15354, Note_off_c, 0, 66, 0
4, 15360, Note_on_c, 0, 64, 88
4, 15389, Note_off_c, 0, 64, 0
4, 15390, Note_on_c, 0, 66, 88
4, 15419, Note_off_c, 0, 66, 0
4, 15420, Note_on_c, 0, 67, 88
4, 15449, Note_off_c, 0, 67, 0
4, 15450, Note_on_c, 0, 69, 88
4, 15479, Note_off_c, 0, 69, 0
4, 15480, Note_on_c, 0, 67, 88
4, 15509, Note_off_c, 0, 67, 0
4, 15510, Note_on_c, 0, 66, 88
4, 15539, Note_off_c, 0, 66, 0
4, 15540, Note_on_c, 0, 67, 88
4, 15569, Note_off_c, 0, 67, 0
4, 15570, Note_on_c, 0, 64, 88
4, 15599, Note_off_c, 0, 64, 0
4, 15600, Note_on_c, 0, 79, 88
4, 15716, Note_off_c, 0, 79, 0
4, 16320, Note_on_c, 0, 69, 88
4, 16349, Note_off_c, 0, 69, 0
4, 16350, Note_on_c, 0, 71, 88
4, 16379, Note_off_c, 0, 71, 0
4, 16380, Note_on_c, 0, 73, 88
4, 16409, Note_off_c, 0, 73, 0
4, 16410, Note_on_c, 0, 74, 88
4, 16439, Note_off_c, 0, 74, 0
4, 16440, Note_on_c, 0, 73, 88
4, 16469, Note_off_c, 0, 73, 0
4, 16470, Note_on_c, 0, 71, 88
4, 16499, Note_off_c, 0, 71, 0
4, 16500, Note_on_c, 0, 73, 88
4, 16529, Note_off_c, 0, 73, 0
4, 16530, Note_on_c, 0, 69, 88
4, 16559, Note_off_c, 0, 69, 0
4, 16560, Note_on_c, 0, 78, 88
4, 16676, Note_off_c, 0, 78, 0
4, 17280, Note_on_c, 0, 67, 88
4, 17309, Note_off_c, 0, 67, 0
4, 17310, Note_on_c, 0, 69, 88
4, 17339, Note_off_c, 0, 69, 0
4, 17340, Note_on_c, 0, 71, 88
4, 17369, Note_off_c, 0, 71, 0
4, 17370, Note_on_c, 0, 72, 88
4, 17399, Note_off_c, 0, 72, 0
4, 17400, Note_on_c, 0, 71, 88
4, 17429, Note_off_c, 0, 71, 0
4, 17430, Note_on_c, 0, 69, 88
4, 17459, Note_off_c, 0, 69, 0
4, 17460, Note_on_c, 0, 71, 88
4, 17489, Note_off_c, 0, 71, 0
4, 17490, Note_on_c, 0, 67, 88
4, 17519, Note_off_c, 0, 67, 0
4, 17520, Note_on_c, 0, 76, 88
4, 17636, Note_off_c, 0, 76, 0
4, 18240, Note_on_c, 0, 66, 88
4, 18269, Note_off_c, 0, 66, 0
4, 18270, Note_on_c, 0, 67, 88
4, 18299, Note_off_c, 0, 67, 0
4, 18300, Note_on_c, 0, 69, 88
4, 18329, Note_off_c, 0, 69, 0
4, 18330, Note_on_c, 0, 71, 88
4, 18359, Note_off_c, 0, 71, 0
4, 18360, Note_on_c, 0, 69, 88
4, 18389, Note_off_c, 0, 69, 0
4, 18390, Note_on_c, 0, 67, 88
4, 18419, Note_off_c, 0, 67, 0
4, 18420, Note_on_c, 0, 69, 88
4, 18449, Note_off_c, 0, 69, 0
4, 18450, Note_on_c, 0, 66, 88
4, 18479, Note_off_c, 0, 66, 0
4, 18480, Note_on_c, 0, 74, 88
4, 18644, Note_off_c, 0, 74, 0
4, 18660, Note_on_c, 0, 74, 88
4, 18704, Note_off_c, 0, 74, 0
4, 18720, Note_on_c, 0, 74, 88
4, 18895, Note_off_c, 0, 74, 0
4, 18900, Note_on_c, 0, 76, 88
4, 18958, Note_off_c, 0, 76, 0
4, 18960, Note_on_c, 0, 74, 88
4, 18978, Note_off_c, 0, 74, 0
4, 18979, Note_on_c, 0, 73, 88
4, 18997, Note_off_c, 0, 73, 0
4, 18998, Note_on_c, 0, 74, 88
4, 19016, Note_on_c, 0, 73, 88
4, 19016, Note_off_c, 0, 74, 0
4, 19034, Note_off_c, 0, 73, 0
4, 19035, Note_on_c, 0, 74, 88
4, 19050, Note_on_c, 0, 73, 88
4, 19050, Note_off_c, 0, 74, 0
4, 19137, Note_off_c, 0, 73, 0
4, 19140, Note_on_c, 0, 74, 88
4, 19169, Note_off_c, 0, 74, 0
4, 19170, Note_on_c, 0, 76, 88
4, 19199, Note_off_c, 0, 76, 0
4, 19200, Note_on_c, 0, 78, 88
4, 19434, Note_off_c, 0, 78, 0
4, 19440, Note_on_c, 0, 83, 88
4, 19498, Note_off_c, 0, 83, 0
4, 19500, Note_on_c, 0, 81, 88
4, 19558, Note_off_c, 0, 81, 0
4, 19560, Note_on_c, 0, 83, 88
4, 19618, Note_off_c, 0, 83, 0
4, 19620, Note_on_c, 0, 79, 88
4, 19664, Note_off_c, 0, 79, 0
4, 19680, Note_on_c, 0, 79, 88
4, 19738, Note_off_c, 0, 79, 0
4, 19740, Note_on_c, 0, 78, 88
4, 19798, Note_off_c, 0, 78, 0
4, 19800, Note_on_c, 0, 79, 88
4, 19858, Note_off_c, 0, 79, 0
4, 19860, Note_on_c, 0, 76, 88
4, 19904, Note_off_c, 0, 76, 0
4, 19920, Note_on_c, 0, 76, 88
4, 19978, Note_off_c, 0, 76, 0
4, 19980, Note_on_c, 0, 74, 88
4, 20038, Note_off_c, 0, 74, 0
4, 20040, Note_on_c, 0, 76, 88
4, 20098, Note_off_c, 0, 76, 0
4, 20100, Note_on_c, 0, 73, 88
4, 20158, Note_off_c, 0, 73, 0
4, 20160, Note_on_c, 0, 73, 88
4, 20394, Note_off_c, 0, 73, 0
4, 20400, Note_on_c, 0, 74, 88
4, 20564, Note_off_c, 0, 74, 0
4, 20580, Note_on_c, 0, 74, 88
4, 20624, Note_off_c, 0, 74, 0
4, 20640, Note_on_c, 0, 74, 88
4, 20815, Note_off_c, 0, 74, 0
4, 20820, Note_on_c, 0, 76, 88
4, 20878, Note_off_c, 0, 76, 0
4, 20880, Note_on_c, 0, 74, 88
4, 20905, Note_off_c, 0, 74, 0
4, 20906, Note_on_c, 0, 73, 88
4, 20932, Note_off_c, 0, 73, 0
4, 20933, Note_on_c, 0, 74, 88
4, 20954, Note_off_c, 0, 74, 0
4, 20955, Note_on_c, 0, 73, 88
4, 20977, Note_off_c, 0, 73, 0
4, 20978, Note_on_c, 0, 74, 88
4, 20999, Note_off_c, 0, 74, 0
4, 21000, Note_on_c, 0, 73, 88
4, 21058, Note_off_c, 0, 73, 0
4, 21060, Note_on_c, 0, 74, 88
4, 21118, Note_off_c, 0, 74, 0
4, 21120, Note_on_c, 0, 74, 88
4, 21354, Note_off_c, 0, 74, 0
4, 21360, Note_on_c, 0, 71, 88
4, 21389, Note_off_c, 0, 71, 0
4, 21390, Note_on_c, 0, 73, 88
4, 21419, Note_off_c, 0, 73, 0
4, 21420, Note_on_c, 0, 74, 88
4, 21449, Note_off_c, 0, 74, 0
4, 21450, Note_on_c, 0, 76, 88
4, 21479, Note_off_c, 0, 76, 0
4, 21480, Note_on_c, 0, 74, 88
4, 21509, Note_off_c, 0, 74, 0
4, 21510, Note_on_c, 0, 73, 88
4, 21539, Note_off_c, 0, 73, 0
4, 21540, Note_on_c, 0, 74, 88
4, 21569, Note_off_c, 0, 74, 0
4, 21570, Note_on_c, 0, 71, 88
4, 21599, Note_off_c, 0, 71, 0
4, 21600, Note_on_c, 0, 76, 88
4, 21834, Note_off_c, 0, 76, 0
4, 21840, Note_on_c, 0, 69, 88
4, 21869, Note_off_c, 0, 69, 0
4, 21870, Note_on_c, 0, 71, 88
4, 21899, Note_off_c, 0, 71, 0
4, 21900, Note_on_c, 0, 73, 88
4, 21929, Note_off_c, 0, 73, 0
4, 21930, Note_on_c, 0, 74, 88
4, 21959, Note_off_c, 0, 74, 0
4, 21960, Note_on_c, 0, 73, 88
4, 21989, Note_off_c, 0, 73, 0
4, 21990, Note_on_c, 0, 71, 88
4, 22019, Note_off_c, 0, 71, 0
4, 22020, Note_on_c, 0, 73, 88
4, 22049, Note_off_c, 0, 73, 0
4, 22050, Note_on_c, 0, 69, 88
4, 22079, Note_off_c, 0, 69, 0
4, 22080, Note_on_c, 0, 74, 88
4, 22314, Note_off_c, 0, 74, 0
4, 22320, Note_on_c, 0, 67, 88
4, 22349, Note_off_c, 0, 67, 0
4, 22350, Note_on_c, 0, 69, 88
4, 22379, Note_off_c, 0, 69, 0
4, 22380, Note_on_c, 0, 71, 88
4, 22409, Note_off_c, 0, 71, 0
4, 22410, Note_on_c, 0, 72, 88
4, 22439, Note_off_c, 0, 72, 0
4, 22440, Note_on_c, 0, 71, 88
4, 22469, Note_off_c, 0, 71, 0
4, 22470, Note_on_c, 0, 69, 88
4, 22499, Note_off_c, 0, 69, 0
4, 22500, Note_on_c, 0, 71, 88
4, 22529, Note_off_c, 0, 71, 0
4, 22530, Note_on_c, 0, 67, 88
4, 22559, Note_off_c, 0, 67, 0
4, 22560, Note_on_c, 0, 73, 88
4, 22589, Note_off_c, 0, 73, 0
4, 22590, Note_on_c, 0, 74, 88
4, 22619, Note_off_c, 0, 74, 0
4, 22620, Note_on_c, 0, 76, 88
4, 22649, Note_off_c, 0, 76, 0
4, 22650, Note_on_c, 0, 78, 88
4, 22679, Note_off_c, 0, 78, 0
4, 22680, Note_on_c, 0, 76, 88
4, 22709, Note_off_c, 0, 76, 0
4, 22710, Note_on_c, 0, 74, 88
4, 22739, Note_off_c, 0, 74, 0
4, 22740, Note_on_c, 0, 76, 88
4, 22769, Note_off_c, 0, 76, 0
4, 22770, Note_on_c, 0, 73, 88
4, 22799, Note_off_c, 0, 73, 0
4, 22800, Note_on_c, 0, 78, 88
4, 22829, Note_off_c, 0, 78, 0
4, 22830, Note_on_c, 0, 79, 88
4, 22859, Note_off_c, 0, 79, 0
4, 22860, Note_on_c, 0, 81, 88
4, 22889, Note_off_c, 0, 81, 0
4, 22890, Note_on_c, 0, 83, 88
4, 22919, Note_off_c, 0, 83, 0
4, 22920, Note_on_c, 0, 81, 88
4, 22949, Note_off_c, 0, 81, 0
4, 22950, Note_on_c, 0, 79, 88
4, 22979, Note_off_c, 0, 79, 0
4, 22980, Note_on_c, 0, 81, 88
4, 23009, Note_off_c, 0, 81, 0
4, 23010, Note_on_c, 0, 78, 88
4, 23039, Note_off_c, 0, 78, 0
4, 23040, Note_on_c, 0, 83, 88
4, 23215, Note_off_c, 0, 83, 0
4, 23220, Note_on_c, 0, 73, 88
4, 23278, Note_off_c, 0, 73, 0
4, 23280, Note_on_c, 0, 74, 88
4, 23455, Note_off_c, 0, 74, 0
4, 23460, Note_on_c, 0, 76, 88
4, 23518, Note_off_c, 0, 76, 0
4, 23520, Note_on_c, 0, 78, 88
4, 23695, Note_off_c, 0, 78, 0
4, 23700, Note_on_c, 0, 66, 88
4, 23758, Note_off_c, 0, 66, 0
4, 23760, Note_on_c, 0, 67, 88
4, 23935, Note_off_c, 0, 67, 0
4, 23940, Note_on_c, 0, 69, 88
4, 23998, Note_off_c, 0, 69, 0
4, 24000, Note_on_c, 0, 71, 88
4, 24164, Note_off_c, 0, 71, 0
4, 24180, Note_on_c, 0, 71, 88
4, 24238, Note_off_c, 0, 71, 0
4, 24240, Note_on_c, 0, 73, 88
4, 24415, Note_off_c, 0, 73, 0
4, 24420, Note_on_c, 0, 74, 88
4, 24478, Note_off_c, 0, 74, 0
4, 24480, Note_on_c, 0, 66, 88
4, 24714, Note_off_c, 0, 66, 0
4, 24720, Note_on_c, 0, 64, 88
4, 24954, Note_off_c, 0, 64, 0
4, 24960, Note_on_c, 0, 62, 88
4, 25905, Note_off_c, 0, 62, 0
4, 25905, End_track
5, 0, Start_track
5, 0, Title_t, "Track 2"
5, 0, Program_c, 1, 6
5, 3120, Note_on_c, 1, 62, 88
5, 3149, Note_off_c, 1, 62, 0
5, 3150, Note_on_c, 1, 64, 88
5, 3179, Note_off_c, 1, 64, 0
5, 3180, Note_on_c, 1, 66, 88
5, 3209, Note_off_c, 1, 66, 0
5, 3210, Note_on_c, 1, 67, 88
5, 3239, Note_off_c, 1, 67, 0
5, 3240, Note_on_c, 1, 66, 88
5, 3269, Note_off_c, 1, 66, 0
5, 3270, Note_on_c, 1, 64, 88
5, 3299, Note_off_c, 1, 64, 0
5, 3300, Note_on_c, 1, 66, 88
5, 3329, Note_off_c, 1, 66, 0
5, 3330, Note_on_c, 1, 62, 88
5, 3359, Note_off_c, 1, 62, 0
5, 3360, Note_on_c, 1, 71, 88
5, 3524, Note_off_c, 1, 71, 0
5, 3540, Note_on_c, 1, 71, 88
5, 3598, Note_off_c, 1, 71, 0
5, 3600, Note_on_c, 1, 69, 88
5, 3775, Note_off_c, 1, 69, 0
5, 3780, Note_on_c, 1, 67, 88
5, 3838, Note_off_c, 1, 67, 0
5, 3840, Note_on_c, 1, 66, 88
5, 4015, Note_off_c, 1, 66, 0
5, 4020, Note_on_c, 1, 68, 88
5, 4078, Note_off_c, 1, 68, 0
5, 4080, Note_on_c, 1, 69, 88
5, 4550, Note_off_c, 1, 69, 0
5, 4560, Note_on_c, 1, 68, 88
5, 4794, Note_off_c, 1, 68, 0
5, 4800, Note_on_c, 1, 69, 88
5, 5034, Note_off_c, 1, 69, 0
5, 5040, Note_on_c, 1, 73, 88
5, 5274, Note_off_c, 1, 73, 0
5, 5280, Note_on_c, 1, 74, 88
5, 5504, Note_off_c, 1, 74, 0
5, 5520, Note_on_c, 1, 74, 88
5, 5754, Note_off_c, 1, 74, 0
5, 5760, Note_on_c, 1, 73, 88
5, 5906, Note_off_c, 1, 73, 0
5, 5910, Note_on_c, 1, 76, 88
5, 5939, Note_off_c, 1, 76, 0
5, 5940, Note_on_c, 1, 74, 88
5, 5969, Note_off_c, 1, 74, 0
5, 5970, Note_on_c, 1, 73, 88
5, 5999, Note_off_c, 1, 73, 0
5, 6000, Note_on_c, 1, 74, 88
5, 6175, Note_off_c, 1, 74, 0
5, 6180, Note_on_c, 1, 73, 88
5, 6238, Note_off_c, 1, 73, 0
5, 6240, Note_on_c, 1, 71, 88
5, 6474, Note_off_c, 1, 71, 0
5, 6480, Note_on_c, 1, 64, 88
5, 6714, Note_off_c, 1, 64, 0
5, 6720, Note_on_c, 1, 69, 88
5, 6954, Note_off_c, 1, 69, 0
5, 6960, Note_on_c, 1, 71, 88
5, 7430, Note_off_c, 1, 71, 0
5, 7440, Note_on_c, 1, 70, 88
5, 7674, Note_off_c, 1, 70, 0
5, 7680, Note_on_c, 1, 71, 88
5, 7914, Note_off_c, 1, 71, 0
5, 8160, Note_on_c, 1, 74, 88
5, 8335, Note_off_c, 1, 74, 0
5, 8340, Note_on_c, 1, 71, 88
5, 8384, Note_off_c, 1, 71, 0
5, 8400, Note_on_c, 1, 71, 88
5, 8575, Note_off_c, 1, 71, 0
5, 8580, Note_on_c, 1, 69, 88
5, 8638, Note_off_c, 1, 69, 0
5, 8640, Note_on_c, 1, 69, 88
5, 8874, Note_off_c, 1, 69, 0
5, 9120, Note_on_c, 1, 72, 88
5, 9295, Note_off_c, 1, 72, 0
5, 9300, Note_on_c, 1, 69, 88
5, 9344, Note_off_c, 1, 69, 0
5, 9360, Note_on_c, 1, 69, 88
5, 9535, Note_off_c, 1, 69, 0
5, 9540, Note_on_c, 1, 67, 88
5, 9598, Note_off_c, 1, 67, 0
5, 9600, Note_on_c, 1, 67, 88
5, 9834, Note_off_c, 1, 67, 0
5, 10800, Note_on_c, 1, 62, 88
5, 10829, Note_off_c, 1, 62, 0
5, 10830, Note_on_c, 1, 64, 88
5, 10859, Note_off_c, 1, 64, 0
5, 10860, Note_on_c, 1, 66, 88
5, 10889, Note_off_c, 1, 66, 0
5, 10890, Note_on_c, 1, 67, 88
5, 10919, Note_off_c, 1, 67, 0
5, 10920, Note_on_c, 1, 66, 88
5, 10949, Note_off_c, 1, 66, 0
5, 10950, Note_on_c, 1, 64, 88
5, 10979, Note_off_c, 1, 64, 0
5, 10980, Note_on_c, 1, 66, 88
5, 11009, Note_off_c, 1, 66, 0
5, 11010, Note_on_c, 1, 62, 88
5, 11039, Note_off_c, 1, 62, 0
5, 11040, Note_on_c, 1, 71, 88
5, 11204, Note_off_c, 1, 71, 0
5, 11220, Note_on_c, 1, 71, 88
5, 11278, Note_off_c, 1, 71, 0
5, 11280, Note_on_c, 1, 69, 88
5, 11455, Note_off_c, 1, 69, 0
5, 11460, Note_on_c, 1, 67, 88
5, 11518, Note_off_c, 1, 67, 0
5, 11520, Note_on_c, 1, 66, 88
5, 11695, Note_off_c, 1, 66, 0
5, 11700, Note_on_c, 1, 69, 88
5, 11758, Note_off_c, 1, 69, 0
5, 11760, Note_on_c, 1, 74, 88
5, 12230, Note_off_c, 1, 74, 0
5, 12240, Note_on_c, 1, 72, 88
5, 12714, Note_off_c, 1, 72, 0
5, 12720, Note_on_c, 1, 71, 88
5, 12954, Note_off_c, 1, 71, 0
5, 12960, Note_on_c, 1, 69, 88
5, 13430, Note_off_c, 1, 69, 0
5, 13440, Note_on_c, 1, 67, 88
5, 13674, Note_off_c, 1, 67, 0
5, 13680, Note_on_c, 1, 71, 88
5, 13914, Note_off_c, 1, 71, 0
5, 13920, Note_on_c, 1, 69, 88
5, 14634, Note_off_c, 1, 69, 0
5, 14640, Note_on_c, 1, 67, 88
5, 14815, Note_off_c, 1, 67, 0
5, 14820, Note_on_c, 1, 64, 88
5, 14864, Note_off_c, 1, 64, 0
5, 14880, Note_on_c, 1, 64, 88
5, 15114, Note_off_c, 1, 64, 0
5, 15120, Note_on_c, 1, 63, 88
5, 15354, Note_off_c, 1, 63, 0
5, 15360, Note_on_c, 1, 64, 88
5, 15594, Note_off_c, 1, 64, 0
5, 15840, Note_on_c, 1, 64, 88
5, 16015, Note_off_c, 1, 64, 0
5, 16020, Note_on_c, 1, 61, 88
5, 16064, Note_off_c, 1, 61, 0
5, 16080, Note_on_c, 1, 61, 88
5, 16255, Note_off_c, 1, 61, 0
5, 16260, Note_on_c, 1, 57, 88
5, 16318, Note_off_c, 1, 57, 0
5, 16320, Note_on_c, 1, 57, 88
5, 16554, Note_off_c, 1, 57, 0
5, 16800, Note_on_c, 1, 62, 88
5, 16975, Note_off_c, 1, 62, 0
5, 16980, Note_on_c, 1, 59, 88
5, 17024, Note_off_c, 1, 59, 0
5, 17040, Note_on_c, 1, 59, 88
5, 17215, Note_off_c, 1, 59, 0
5, 17220, Note_on_c, 1, 55, 88
5, 17278, Note_off_c, 1, 55, 0
5, 17280, Note_on_c, 1, 55, 88
5, 17514, Note_off_c, 1, 55, 0
5, 17760, Note_on_c, 1, 61, 88
5, 17935, Note_off_c, 1, 61, 0
5, 17940, Note_on_c, 1, 57, 88
5, 17984, Note_off_c, 1, 57, 0
5, 18000, Note_on_c, 1, 57, 88
5, 18175, Note_off_c, 1, 57, 0
5, 18180, Note_on_c, 1, 54, 88
5, 18238, Note_off_c, 1, 54, 0
5, 18240, Note_on_c, 1, 54, 88
5, 18474, Note_off_c, 1, 54, 0
5, 18480, Note_on_c, 1, 59, 88
5, 18509, Note_off_c, 1, 59, 0
5, 18510, Note_on_c, 1, 61, 88
5, 18539, Note_off_c, 1, 61, 0
5, 18540, Note_on_c, 1, 62, 88
5, 18569, Note_off_c, 1, 62, 0
5, 18570, Note_on_c, 1, 64, 88
5, 18599, Note_off_c, 1, 64, 0
5, 18600, Note_on_c, 1, 62, 88
5, 18629, Note_off_c, 1, 62, 0
5, 18630, Note_on_c, 1, 61, 88
5, 18659, Note_off_c, 1, 61, 0
5, 18660, Note_on_c, 1, 62, 88
5, 18689, Note_off_c, 1, 62, 0
5, 18690, Note_on_c, 1, 59, 88
5, 18719, Note_off_c, 1, 59, 0
5, 18720, Note_on_c, 1, 67, 88
5, 19190, Note_off_c, 1, 67, 0
5, 19200, Note_on_c, 1, 66, 88
5, 19434, Note_off_c, 1, 66, 0
5, 19680, Note_on_c, 1, 74, 88
5, 19855, Note_off_c, 1, 74, 0
5, 19860, Note_on_c, 1, 71, 88
5, 19904, Note_off_c, 1, 71, 0
5, 19920, Note_on_c, 1, 71, 88
5, 20095, Note_off_c, 1, 71, 0
5, 20100, Note_on_c, 1, 69, 88
5, 20158, Note_off_c, 1, 69, 0
5, 20160, Note_on_c, 1, 69, 88
5, 20384, Note_off_c, 1, 69, 0
5, 20400, Note_on_c, 1, 69, 88
5, 20564, Note_off_c, 1, 69, 0
5, 20580, Note_on_c, 1, 69, 88
5, 20638, Note_off_c, 1, 69, 0
5, 20640, Note_on_c, 1, 71, 88
5, 20804, Note_off_c, 1, 71, 0
5, 20820, Note_on_c, 1, 71, 88
5, 20878, Note_off_c, 1, 71, 0
5, 20880, Note_on_c, 1, 69, 88
5, 21114, Note_off_c, 1, 69, 0
5, 21120, Note_on_c, 1, 69, 88
5, 21354, Note_off_c, 1, 69, 0
5, 21600, Note_on_c, 1, 71, 88
5, 21834, Note_off_c, 1, 71, 0
5, 22080, Note_on_c, 1, 69, 88
5, 22314, Note_off_c, 1, 69, 0
5, 23220, Note_on_c, 1, 69, 88
5, 23264, Note_off_c, 1, 69, 0
5, 23280, Note_on_c, 1, 69, 88
5, 23455, Note_off_c, 1, 69, 0
5, 23460, Note_on_c, 1, 73, 88
5, 23518, Note_off_c, 1, 73, 0
5, 23520, Note_on_c, 1, 74, 88
5, 23695, Note_off_c, 1, 74, 0
5, 23700, Note_on_c, 1, 62, 88
5, 23744, Note_off_c, 1, 62, 0
5, 23760, Note_on_c, 1, 62, 88
5, 23935, Note_off_c, 1, 62, 0
5, 23940, Note_on_c, 1, 66, 88
5, 23998, Note_off_c, 1, 66, 0
5, 24000, Note_on_c, 1, 67, 88
5, 24175, Note_off_c, 1, 67, 0
5, 24180, Note_on_c, 1, 62, 88
5, 24238, Note_off_c, 1, 62, 0
5, 24240, Note_on_c, 1, 64, 88
5, 24415, Note_off_c, 1, 64, 0
5, 24420, Note_on_c, 1, 66, 88
5, 24478, Note_off_c, 1, 66, 0
5, 24480, Note_on_c, 1, 62, 88
5, 24714, Note_off_c, 1, 62, 0
5, 24720, Note_on_c, 1, 61, 88
5, 24954, Note_off_c, 1, 61, 0
5, 24960, Note_on_c, 1, 57, 88
5, 25905, Note_off_c, 1, 57, 0
5, 25905, End_track
6, 0, Start_track
6, 0, Title_t, "Track 3"
6, 0, Program_c, 2, 6
6, 1200, Note_on_c, 2, 57, 88
6, 1229, Note_off_c, 2, 57, 0
6, 1230, Note_on_c, 2, 59, 88
6, 1259, Note_off_c, 2, 59, 0
6, 1260, Note_on_c, 2, 61, 88
6, 1289, Note_off_c, 2, 61, 0
6, 1290, Note_on_c, 2, 62, 88
6, 1319, Note_off_c, 2, 62, 0
6, 1320, Note_on_c, 2, 61, 88
6, 1349, Note_off_c, 2, 61, 0
6, 1350, Note_on_c, 2, 59, 88
6, 1379, Note_off_c, 2, 59, 0
6, 1380, Note_on_c, 2, 61, 88
6, 1409, Note_off_c, 2, 61, 0
6, 1410, Note_on_c, 2, 57, 88
6, 1439, Note_off_c, 2, 57, 0
6, 1440, Note_on_c, 2, 66, 88
6, 1604, Note_off_c, 2, 66, 0
6, 1620, Note_on_c, 2, 66, 88
6, 1678, Note_off_c, 2, 66, 0
6, 1680, Note_on_c, 2, 64, 88
6, 1855, Note_off_c, 2, 64, 0
6, 1860, Note_on_c, 2, 62, 88
6, 1918, Note_off_c, 2, 62, 0
6, 1920, Note_on_c, 2, 61, 88
6, 2154, Note_off_c, 2, 61, 0
6, 2160, Note_on_c, 2, 66, 88
6, 2324, Note_off_c, 2, 66, 0
6, 2340, Note_on_c, 2, 66, 88
6, 2398, Note_off_c, 2, 66, 0
6, 2400, Note_on_c, 2, 59, 88
6, 2534, Note_off_c, 2, 59, 0
6, 2550, Note_on_c, 2, 59, 88
6, 2579, Note_off_c, 2, 59, 0
6, 2580, Note_on_c, 2, 61, 88
6, 2609, Note_off_c, 2, 61, 0
6, 2610, Note_on_c, 2, 62, 88
6, 2639, Note_off_c, 2, 62, 0
6, 2640, Note_on_c, 2, 64, 88
6, 2698, Note_off_c, 2, 64, 0
6, 2700, Note_on_c, 2, 62, 88
6, 2758, Note_off_c, 2, 62, 0
6, 2760, Note_on_c, 2, 64, 88
6, 2818, Note_off_c, 2, 64, 0
6, 2820, Note_on_c, 2, 61, 88
6, 2878, Note_off_c, 2, 61, 0
6, 2880, Note_on_c, 2, 57, 88
6, 3114, Note_off_c, 2, 57, 0
6, 3120, Note_on_c, 2, 62, 88
6, 3590, Note_off_c, 2, 62, 0
6, 3600, Note_on_c, 2, 61, 88
6, 3834, Note_off_c, 2, 61, 0
6, 3840, Note_on_c, 2, 62, 88
6, 4074, Note_off_c, 2, 62, 0
6, 4080, Note_on_c, 2, 61, 88
6, 4314, Note_off_c, 2, 61, 0
6, 4320, Note_on_c, 2, 59, 88
6, 4790, Note_off_c, 2, 59, 0
6, 4800, Note_on_c, 2, 57, 88
6, 5034, Note_off_c, 2, 57, 0
6, 5040, Note_on_c, 2, 66, 88
6, 5069, Note_off_c, 2, 66, 0
6, 5070, Note_on_c, 2, 67, 88
6, 5099, Note_off_c, 2, 67, 0
6, 5100, Note_on_c, 2, 69, 88
6, 5129, Note_off_c, 2, 69, 0
6, 5130, Note_on_c, 2, 71, 88
6, 5159, Note_off_c, 2, 71, 0
6, 5160, Note_on_c, 2, 69, 88
6, 5189, Note_off_c, 2, 69, 0
6, 5190, Note_on_c, 2, 67, 88
6, 5219, Note_off_c, 2, 67, 0
6, 5220, Note_on_c, 2, 69, 88
6, 5249, Note_off_c, 2, 69, 0
6, 5250, Note_on_c, 2, 66, 88
6, 5279, Note_off_c, 2, 66, 0
6, 5280, Note_on_c, 2, 71, 88
6, 5514, Note_off_c, 2, 71, 0
6, 5520, Note_on_c, 2, 64, 88
6, 5549, Note_off_c, 2, 64, 0
6, 5550, Note_on_c, 2, 66, 88
6, 5579, Note_off_c, 2, 66, 0
6, 5580, Note_on_c, 2, 67, 88
6, 5609, Note_off_c, 2, 67, 0
6, 5610, Note_on_c, 2, 69, 88
6, 5639, Note_off_c, 2, 69, 0
6, 5640, Note_on_c, 2, 67, 88
6, 5669, Note_off_c, 2, 67, 0
6, 5670, Note_on_c, 2, 66, 88
6, 5699, Note_off_c, 2, 66, 0
6, 5700, Note_on_c, 2, 67, 88
6, 5729, Note_off_c, 2, 67, 0
6, 5730, Note_on_c, 2, 64, 88
6, 5759, Note_off_c, 2, 64, 0
6, 5760, Note_on_c, 2, 69, 88
6, 5984, Note_off_c, 2, 69, 0
6, 6000, Note_on_c, 2, 69, 88
6, 6175, Note_off_c, 2, 69, 0
6, 6180, Note_on_c, 2, 67, 88
6, 6238, Note_off_c, 2, 67, 0
6, 6240, Note_on_c, 2, 66, 88
6, 6415, Note_off_c, 2, 66, 0
6, 6420, Note_on_c, 2, 67, 88
6, 6478, Note_off_c, 2, 67, 0
6, 6480, Note_on_c, 2, 69, 88
6, 6714, Note_off_c, 2, 69, 0
6, 6720, Note_on_c, 2, 62, 88
6, 6944, Note_off_c, 2, 62, 0
6, 6960, Note_on_c, 2, 62, 88
6, 7194, Note_off_c, 2, 62, 0
6, 7200, Note_on_c, 2, 61, 88
6, 7670, Note_off_c, 2, 61, 0
6, 7680, Note_on_c, 2, 59, 88
6, 7914, Note_off_c, 2, 59, 0
6, 8160, Note_on_c, 2, 71, 88
6, 8335, Note_off_c, 2, 71, 0
6, 8340, Note_on_c, 2, 68, 88
6, 8384, Note_off_c, 2, 68, 0
6, 8400, Note_on_c, 2, 68, 88
6, 8575, Note_off_c, 2, 68, 0
6, 8580, Note_on_c, 2, 64, 88
6, 8638, Note_off_c, 2, 64, 0
6, 8640, Note_on_c, 2, 64, 88
6, 8874, Note_off_c, 2, 64, 0
6, 9120, Note_on_c, 2, 69, 88
6, 9295, Note_off_c, 2, 69, 0
6, 9300, Note_on_c, 2, 66, 88
6, 9344, Note_off_c, 2, 66, 0
6, 9360, Note_on_c, 2, 66, 88
6, 9535, Note_off_c, 2, 66, 0
6, 9540, Note_on_c, 2, 62, 88
6, 9598, Note_off_c, 2, 62, 0
6, 9600, Note_on_c, 2, 62, 88
6, 9834, Note_off_c, 2, 62, 0
6, 12720, Note_on_c, 2, 55, 88
6, 12749, Note_off_c, 2, 55, 0
6, 12750, Note_on_c, 2, 57, 88
6, 12779, Note_off_c, 2, 57, 0
6, 12780, Note_on_c, 2, 59, 88
6, 12809, Note_off_c, 2, 59, 0
6, 12810, Note_on_c, 2, 60, 88
6, 12839, Note_off_c, 2, 60, 0
6, 12840, Note_on_c, 2, 59, 88
6, 12869, Note_off_c, 2, 59, 0
6, 12870, Note_on_c, 2, 57, 88
6, 12899, Note_off_c, 2, 57, 0
6, 12900, Note_on_c, 2, 59, 88
6, 12929, Note_off_c, 2, 59, 0
6, 12930, Note_on_c, 2, 55, 88
6, 12959, Note_off_c, 2, 55, 0
6, 12960, Note_on_c, 2, 64, 88
6, 13124, Note_off_c, 2, 64, 0
6, 13140, Note_on_c, 2, 64, 88
6, 13198, Note_off_c, 2, 64, 0
6, 13200, Note_on_c, 2, 62, 88
6, 13375, Note_off_c, 2, 62, 0
6, 13380, Note_on_c, 2, 60, 88
6, 13438, Note_off_c, 2, 60, 0
6, 13440, Note_on_c, 2, 59, 88
6, 13674, Note_off_c, 2, 59, 0
6, 13680, Note_on_c, 2, 67, 88
6, 13914, Note_off_c, 2, 67, 0
6, 13920, Note_on_c, 2, 66, 88
6, 14634, Note_off_c, 2, 66, 0
6, 14640, Note_on_c, 2, 64, 88
6, 14815, Note_off_c, 2, 64, 0
6, 14820, Note_on_c, 2, 54, 88
6, 14878, Note_off_c, 2, 54, 0
6, 14880, Note_on_c, 2, 55, 88
6, 15055, Note_off_c, 2, 55, 0
6, 15060, Note_on_c, 2, 57, 88
6, 15118, Note_off_c, 2, 57, 0
6, 15120, Note_on_c, 2, 59, 88
6, 15295, Note_off_c, 2, 59, 0
6, 15300, Note_on_c, 2, 57, 88
6, 15358, Note_off_c, 2, 57, 0
6, 15360, Note_on_c, 2, 55, 88
6, 15594, Note_off_c, 2, 55, 0
6, 15840, Note_on_c, 2, 59, 88
6, 16015, Note_off_c, 2, 59, 0
6, 16020, Note_on_c, 2, 55, 88
6, 16064, Note_off_c, 2, 55, 0
6, 16080, Note_on_c, 2, 55, 88
6, 16255, Note_off_c, 2, 55, 0
6, 16260, Note_on_c, 2, 52, 88
6, 16318, Note_off_c, 2, 52, 0
6, 16320, Note_on_c, 2, 52, 88
6, 16554, Note_off_c, 2, 52, 0
6, 16800, Note_on_c, 2, 57, 88
6, 16975, Note_off_c, 2, 57, 0
6, 16980, Note_on_c, 2, 54, 88
6, 17024, Note_off_c, 2, 54, 0
6, 17040, Note_on_c, 2, 54, 88
6, 17215, Note_off_c, 2, 54, 0
6, 17220, Note_on_c, 2, 50, 88
6, 17278, Note_off_c, 2, 50, 0
6, 17280, Note_on_c, 2, 50, 88
6, 17514, Note_off_c, 2, 50, 0
6, 17760, Note_on_c, 2, 55, 88
6, 17935, Note_off_c, 2, 55, 0
6, 17940, Note_on_c, 2, 52, 88
6, 17984, Note_off_c, 2, 52, 0
6, 18000, Note_on_c, 2, 52, 88
6, 18175, Note_off_c, 2, 52, 0
6, 18180, Note_on_c, 2, 49, 88
6, 18238, Note_off_c, 2, 49, 0
6, 18240, Note_on_c, 2, 49, 88
6, 18474, Note_off_c, 2, 49, 0
6, 18960, Note_on_c, 2, 57, 88
6, 18989, Note_off_c, 2, 57, 0
6, 18990, Note_on_c, 2, 59, 88
6, 19019, Note_off_c, 2, 59, 0
6, 19020, Note_on_c, 2, 61, 88
6, 19049, Note_off_c, 2, 61, 0
6, 19050, Note_on_c, 2, 62, 88
6, 19079, Note_off_c, 2, 62, 0
6, 19080, Note_on_c, 2, 61, 88
6, 19109, Note_off_c, 2, 61, 0
6, 19110, Note_on_c, 2, 59, 88
6, 19139, Note_off_c, 2, 59, 0
6, 19140, Note_on_c, 2, 61, 88
6, 19169, Note_off_c, 2, 61, 0
6, 19170, Note_on_c, 2, 57, 88
6, 19199, Note_off_c, 2, 57, 0
6, 19200, Note_on_c, 2, 62, 88
6, 19434, Note_off_c, 2, 62, 0
6, 19680, Note_on_c, 2, 71, 88
6, 19855, Note_off_c, 2, 71, 0
6, 19860, Note_on_c, 2, 67, 88
6, 19904, Note_off_c, 2, 67, 0
6, 19920, Note_on_c, 2, 67, 88
6, 20095, Note_off_c, 2, 67, 0
6, 20100, Note_on_c, 2, 64, 88
6, 20158, Note_off_c, 2, 64, 0
6, 20160, Note_on_c, 2, 64, 88
6, 20394, Note_off_c, 2, 64, 0
6, 20400, Note_on_c, 2, 66, 88
6, 20564, Note_off_c, 2, 66, 0
6, 20580, Note_on_c, 2, 66, 88
6, 20624, Note_off_c, 2, 66, 0
6, 20640, Note_on_c, 2, 66, 88
6, 20815, Note_off_c, 2, 66, 0
6, 20820, Note_on_c, 2, 67, 88
6, 20878, Note_off_c, 2, 67, 0
6, 20880, Note_on_c, 2, 64, 88
6, 21114, Note_off_c, 2, 64, 0
6, 21120, Note_on_c, 2, 66, 88
6, 21354, Note_off_c, 2, 66, 0
6, 21600, Note_on_c, 2, 64, 88
6, 21834, Note_off_c, 2, 64, 0
6, 22080, Note_on_c, 2, 62, 88
6, 22314, Note_off_c, 2, 62, 0
6, 23220, Note_on_c, 2, 64, 88
6, 23278, Note_off_c, 2, 64, 0
6, 23280, Note_on_c, 2, 66, 88
6, 23455, Note_off_c, 2, 66, 0
6, 23460, Note_on_c, 2, 67, 88
6, 23518, Note_off_c, 2, 67, 0
6, 23520, Note_on_c, 2, 69, 88
6, 23695, Note_off_c, 2, 69, 0
6, 23700, Note_on_c, 2, 57, 88
6, 23758, Note_off_c, 2, 57, 0
6, 23760, Note_on_c, 2, 59, 88
6, 23935, Note_off_c, 2, 59, 0
6, 23940, Note_on_c, 2, 60, 88
6, 23998, Note_off_c, 2, 60, 0
6, 24000, Note_on_c, 2, 62, 88
6, 24175, Note_off_c, 2, 62, 0
6, 24180, Note_on_c, 2, 67, 88
6, 24224, Note_off_c, 2, 67, 0
6, 24240, Note_on_c, 2, 67, 88
6, 24415, Note_off_c, 2, 67, 0
6, 24420, Note_on_c, 2, 69, 88
6, 24478, Note_off_c, 2, 69, 0
6, 24480, Note_on_c, 2, 57, 88
6, 24714, Note_off_c, 2, 57, 0
6, 24720, Note_on_c, 2, 55, 88
6, 24954, Note_off_c, 2, 55, 0
6, 24960, Note_on_c, 2, 54, 88
6, 25905, Note_off_c, 2, 54, 0
6, 25905, End_track
7, 0, Start_track
7, 0, Title_t, "Track 4"
7, 0, Program_c, 3, 6
7, 240, Note_on_c, 3, 50, 88
7, 269, Note_off_c, 3, 50, 0
7, 270, Note_on_c, 3, 52, 88
7, 299, Note_off_c, 3, 52, 0
7, 300, Note_on_c, 3, 54, 88
7, 329, Note_off_c, 3, 54, 0
7, 330, Note_on_c, 3, 55, 88
7, 359, Note_off_c, 3, 55, 0
7, 360, Note_on_c, 3, 54, 88
7, 389, Note_off_c, 3, 54, 0
7, 390, Note_on_c, 3, 52, 88
7, 419, Note_off_c, 3, 52, 0
7, 420, Note_on_c, 3, 54, 88
7, 449, Note_off_c, 3, 54, 0
7, 450, Note_on_c, 3, 50, 88
7, 479, Note_off_c, 3, 50, 0
7, 480, Note_on_c, 3, 59, 88
7, 644, Note_off_c, 3, 59, 0
7, 660, Note_on_c, 3, 59, 88
7, 718, Note_off_c, 3, 59, 0
7, 720, Note_on_c, 3, 57, 88
7, 895, Note_off_c, 3, 57, 0
7, 900, Note_on_c, 3, 55, 88
7, 958, Note_off_c, 3, 55, 0
7, 960, Note_on_c, 3, 54, 88
7, 1135, Note_off_c, 3, 54, 0
7, 1140, Note_on_c, 3, 55, 88
7, 1198, Note_off_c, 3, 55, 0
7, 1200, Note_on_c, 3, 54, 88
7, 1375, Note_off_c, 3, 54, 0
7, 1380, Note_on_c, 3, 52, 88
7, 1438, Note_off_c, 3, 52, 0
7, 1440, Note_on_c, 3, 50, 88
7, 1674, Note_off_c, 3, 50, 0
7, 1680, Note_on_c, 3, 52, 88
7, 1914, Note_off_c, 3, 52, 0
7, 1920, Note_on_c, 3, 45, 88
7, 2066, Note_off_c, 3, 45, 0
7, 2070, Note_on_c, 3, 52, 88
7, 2099, Note_off_c, 3, 52, 0
7, 2100, Note_on_c, 3, 54, 88
7, 2129, Note_off_c, 3, 54, 0
7, 2130, Note_on_c, 3, 55, 88
7, 2159, Note_off_c, 3, 55, 0
7, 2160, Note_on_c, 3, 57, 88
7, 2630, Note_off_c, 3, 57, 0
7, 2640, Note_on_c, 3, 55, 88
7, 3055, Note_off_c, 3, 55, 0
7, 3060, Note_on_c, 3, 54, 88
7, 3089, Note_off_c, 3, 54, 0
7, 3090, Note_on_c, 3, 52, 88
7, 3119, Note_off_c, 3, 52, 0
7, 3120, Note_on_c, 3, 54, 88
7, 3295, Note_off_c, 3, 54, 0
7, 3300, Note_on_c, 3, 50, 88
7, 3358, Note_off_c, 3, 50, 0
7, 3360, Note_on_c, 3, 55, 88
7, 3535, Note_off_c, 3, 55, 0
7, 3540, Note_on_c, 3, 52, 88
7, 3598, Note_off_c, 3, 52, 0
7, 3600, Note_on_c, 3, 57, 88
7, 3775, Note_off_c, 3, 57, 0
7, 3780, Note_on_c, 3, 45, 88
7, 3838, Note_off_c, 3, 45, 0
7, 3840, Note_on_c, 3, 50, 88
7, 4015, Note_off_c, 3, 50, 0
7, 4020, Note_on_c, 3, 52, 88
7, 4078, Note_off_c, 3, 52, 0
7, 4080, Note_on_c, 3, 54, 88
7, 4255, Note_off_c, 3, 54, 0
7, 4260, Note_on_c, 3, 52, 88
7, 4318, Note_off_c, 3, 52, 0
7, 4320, Note_on_c, 3, 50, 88
7, 4495, Note_off_c, 3, 50, 0
7, 4500, Note_on_c, 3, 47, 88
7, 4558, Note_off_c, 3, 47, 0
7, 4560, Note_on_c, 3, 52, 88
7, 4794, Note_off_c, 3, 52, 0
7, 4800, Note_on_c, 3, 45, 88
7, 5034, Note_off_c, 3, 45, 0
7, 6000, Note_on_c, 3, 38, 88
7, 6029, Note_off_c, 3, 38, 0
7, 6030, Note_on_c, 3, 40, 88
7, 6059, Note_off_c, 3, 40, 0
7, 6060, Note_on_c, 3, 42, 88
7, 6089, Note_off_c, 3, 42, 0
7, 6090, Note_on_c, 3, 43, 88
7, 6119, Note_off_c, 3, 43, 0
7, 6120, Note_on_c, 3, 42, 88
7, 6149, Note_off_c, 3, 42, 0
7, 6150, Note_on_c, 3, 40, 88
7, 6179, Note_off_c, 3, 40, 0
7, 6180, Note_on_c, 3, 42, 88
7, 6209, Note_off_c, 3, 42, 0
7, 6210, Note_on_c, 3, 38, 88
7, 6239, Note_off_c, 3, 38, 0
7, 6240, Note_on_c, 3, 47, 88
7, 6404, Note_off_c, 3, 47, 0
7, 6420, Note_on_c, 3, 47, 88
7, 6478, Note_off_c, 3, 47, 0
7, 6480, Note_on_c, 3, 45, 88
7, 6655, Note_off_c, 3, 45, 0
7, 6660, Note_on_c, 3, 43, 88
7, 6718, Note_off_c, 3, 43, 0
7, 6720, Note_on_c, 3, 42, 88
7, 6866, Note_off_c, 3, 42, 0
7, 6870, Note_on_c, 3, 50, 88
7, 6899, Note_off_c, 3, 50, 0
7, 6900, Note_on_c, 3, 52, 88
7, 6929, Note_off_c, 3, 52, 0
7, 6930, Note_on_c, 3, 54, 88
7, 6959, Note_off_c, 3, 54, 0
7, 6960, Note_on_c, 3, 55, 88
7, 7135, Note_off_c, 3, 55, 0
7, 7140, Note_on_c, 3, 54, 88
7, 7198, Note_off_c, 3, 54, 0
7, 7200, Note_on_c, 3, 52, 88
7, 7375, Note_off_c, 3, 52, 0
7, 7380, Note_on_c, 3, 49, 88
7, 7438, Note_off_c, 3, 49, 0
7, 7440, Note_on_c, 3, 54, 88
7, 7674, Note_off_c, 3, 54, 0
7, 7680, Note_on_c, 3, 47, 88
7, 7709, Note_off_c, 3, 47, 0
7, 7710, Note_on_c, 3, 49, 88
7, 7739, Note_off_c, 3, 49, 0
7, 7740, Note_on_c, 3, 50, 88
7, 7769, Note_off_c, 3, 50, 0
7, 7770, Note_on_c, 3, 52, 88
7, 7799, Note_off_c, 3, 52, 0
7, 7800, Note_on_c, 3, 50, 88
7, 7829, Note_off_c, 3, 50, 0
7, 7830, Note_on_c, 3, 49, 88
7, 7859, Note_off_c, 3, 49, 0
7, 7860, Note_on_c, 3, 50, 88
7, 7889, Note_off_c, 3, 50, 0
7, 7890, Note_on_c, 3, 47, 88
7, 7919, Note_off_c, 3, 47, 0
7, 7920, Note_on_c, 3, 56, 88
7, 8036, Note_off_c, 3, 56, 0
7, 8640, Note_on_c, 3, 45, 88
7, 8669, Note_off_c, 3, 45, 0
7, 8670, Note_on_c, 3, 47, 88
7, 8699, Note_off_c, 3, 47, 0
7, 8700, Note_on_c, 3, 49, 88
7, 8729, Note_off_c, 3, 49, 0
7, 8730, Note_on_c, 3, 50, 88
7, 8759, Note_off_c, 3, 50, 0
7, 8760, Note_on_c, 3, 49, 88
7, 8789, Note_off_c, 3, 49, 0
7, 8790, Note_on_c, 3, 47, 88
7, 8819, Note_off_c, 3, 47, 0
7, 8820, Note_on_c, 3, 49, 88
7, 8849, Note_off_c, 3, 49, 0
7, 8850, Note_on_c, 3, 45, 88
7, 8879, Note_off_c, 3, 45, 0
7, 8880, Note_on_c, 3, 54, 88
7, 8996, Note_off_c, 3, 54, 0
7, 9600, Note_on_c, 3, 43, 88
7, 9629, Note_off_c, 3, 43, 0
7, 9630, Note_on_c, 3, 45, 88
7, 9659, Note_off_c, 3, 45, 0
7, 9660, Note_on_c, 3, 47, 88
7, 9689, Note_off_c, 3, 47, 0
7, 9690, Note_on_c, 3, 48, 88
7, 9719, Note_off_c, 3, 48, 0
7, 9720, Note_on_c, 3, 47, 88
7, 9749, Note_off_c, 3, 47, 0
7, 9750, Note_on_c, 3, 45, 88
7, 9779, Note_off_c, 3, 45, 0
7, 9780, Note_on_c, 3, 47, 88
7, 9809, Note_off_c, 3, 47, 0
7, 9810, Note_on_c, 3, 43, 88
7, 9839, Note_off_c, 3, 43, 0
7, 9840, Note_on_c, 3, 52, 88
7, 10015, Note_off_c, 3, 52, 0
7, 10020, Note_on_c, 3, 50, 88
7, 10078, Note_off_c, 3, 50, 0
7, 10080, Note_on_c, 3, 48, 88
7, 10314, Note_off_c, 3, 48, 0
7, 10320, Note_on_c, 3, 50, 88
7, 10554, Note_off_c, 3, 50, 0
7, 10560, Note_on_c, 3, 55, 88
7, 10735, Note_off_c, 3, 55, 0
7, 10740, Note_on_c, 3, 57, 88
7, 10798, Note_off_c, 3, 57, 0
7, 10800, Note_on_c, 3, 59, 88
7, 10975, Note_off_c, 3, 59, 0
7, 10980, Note_on_c, 3, 57, 88
7, 11038, Note_off_c, 3, 57, 0
7, 11040, Note_on_c, 3, 55, 88
7, 11215, Note_off_c, 3, 55, 0
7, 11220, Note_on_c, 3, 52, 88
7, 11278, Note_off_c, 3, 52, 0
7, 11280, Note_on_c, 3, 57, 88
7, 11455, Note_off_c, 3, 57, 0
7, 11460, Note_on_c, 3, 45, 88
7, 11518, Note_off_c, 3, 45, 0
7, 11520, Note_on_c, 3, 47, 88
7, 11549, Note_off_c, 3, 47, 0
7, 11550, Note_on_c, 3, 49, 88
7, 11579, Note_off_c, 3, 49, 0
7, 11580, Note_on_c, 3, 50, 88
7, 11609, Note_off_c, 3, 50, 0
7, 11610, Note_on_c, 3, 52, 88
7, 11639, Note_off_c, 3, 52, 0
7, 11640, Note_on_c, 3, 50, 88
7, 11669, Note_off_c, 3, 50, 0
7, 11670, Note_on_c, 3, 49, 88
7, 11699, Note_off_c, 3, 49, 0
7, 11700, Note_on_c, 3, 50, 88
7, 11729, Note_off_c, 3, 50, 0
7, 11730, Note_on_c, 3, 47, 88
7, 11759, Note_off_c, 3, 47, 0
7, 11760, Note_on_c, 3, 59, 88
7, 11935, Note_off_c, 3, 59, 0
7, 11940, Note_on_c, 3, 57, 88
7, 11998, Note_off_c, 3, 57, 0
7, 12000, Note_on_c, 3, 55, 88
7, 12175, Note_off_c, 3, 55, 0
7, 12180, Note_on_c, 3, 52, 88
7, 12238, Note_off_c, 3, 52, 0
7, 12240, Note_on_c, 3, 57, 88
7, 12415, Note_off_c, 3, 57, 0
7, 12420, Note_on_c, 3, 45, 88
7, 12478, Note_off_c, 3, 45, 0
7, 12480, Note_on_c, 3, 50, 88
7, 12714, Note_off_c, 3, 50, 0
7, 12720, Note_on_c, 3, 52, 88
7, 12954, Note_off_c, 3, 52, 0
7, 12960, Note_on_c, 3, 60, 88
7, 13135, Note_off_c, 3, 60, 0
7, 13140, Note_on_c, 3, 57, 88
7, 13198, Note_off_c, 3, 57, 0
7, 13200, Note_on_c, 3, 62, 88
7, 13375, Note_off_c, 3, 62, 0
7, 13380, Note_on_c, 3, 50, 88
7, 13438, Note_off_c, 3, 50, 0
7, 13440, Note_on_c, 3, 55, 88
7, 13674, Note_off_c, 3, 55, 0
7, 13680, Note_on_c, 3, 40, 88
7, 13709, Note_off_c, 3, 40, 0
7, 13710, Note_on_c, 3, 42, 88
7, 13739, Note_off_c, 3, 42, 0
7, 13740, Note_on_c, 3, 43, 88
7, 13769, Note_off_c, 3, 43, 0
7, 13770, Note_on_c, 3, 45, 88
7, 13799, Note_off_c, 3, 45, 0
7, 13800, Note_on_c, 3, 43, 88
7, 13829, Note_off_c, 3, 43, 0
7, 13830, Note_on_c, 3, 42, 88
7, 13859, Note_off_c, 3, 42, 0
7, 13860, Note_on_c, 3, 43, 88
7, 13889, Note_off_c, 3, 43, 0
7, 13890, Note_on_c, 3, 40, 88
7, 13919, Note_off_c, 3, 40, 0
7, 13920, Note_on_c, 3, 48, 88
7, 14084, Note_off_c, 3, 48, 0
7, 14100, Note_on_c, 3, 48, 88
7, 14158, Note_off_c, 3, 48, 0
7, 14160, Note_on_c, 3, 47, 88
7, 14335, Note_off_c, 3, 47, 0
7, 14340, Note_on_c, 3, 45, 88
7, 14398, Note_off_c, 3, 45, 0
7, 14400, Note_on_c, 3, 43, 88
7, 14575, Note_off_c, 3, 43, 0
7, 14580, Note_on_c, 3, 42, 88
7, 14638, Note_off_c, 3, 42, 0
7, 14640, Note_on_c, 3, 43, 88
7, 14815, Note_off_c, 3, 43, 0
7, 14820, Note_on_c, 3, 45, 88
7, 14878, Note_off_c, 3, 45, 0
7, 14880, Note_on_c, 3, 47, 88
7, 15350, Note_off_c, 3, 47, 0
7, 15360, Note_on_c, 3, 52, 88
7, 15594, Note_off_c, 3, 52, 0
7, 15600, Note_on_c, 3, 59, 88
7, 15658, Note_off_c, 3, 59, 0
7, 15660, Note_on_c, 3, 57, 88
7, 15718, Note_off_c, 3, 57, 0
7, 15720, Note_on_c, 3, 59, 88
7, 15778, Note_off_c, 3, 59, 0
7, 15780, Note_on_c, 3, 55, 88
7, 15824, Note_off_c, 3, 55, 0
7, 15840, Note_on_c, 3, 55, 88
7, 15898, Note_off_c, 3, 55, 0
7, 15900, Note_on_c, 3, 54, 88
7, 15958, Note_off_c, 3, 54, 0
7, 15960, Note_on_c, 3, 55, 88
7, 16018, Note_off_c, 3, 55, 0
7, 16020, Note_on_c, 3, 52, 88
7, 16064, Note_off_c, 3, 52, 0
7, 16080, Note_on_c, 3, 52, 88
7, 16138, Note_off_c, 3, 52, 0
7, 16140, Note_on_c, 3, 50, 88
7, 16198, Note_off_c, 3, 50, 0
7, 16200, Note_on_c, 3, 52, 88
7, 16258, Note_off_c, 3, 52, 0
7, 16260, Note_on_c, 3, 49, 88
7, 16318, Note_off_c, 3, 49, 0
7, 16320, Note_on_c, 3, 49, 88
7, 16554, Note_off_c, 3, 49, 0
7, 16560, Note_on_c, 3, 57, 88
7, 16618, Note_off_c, 3, 57, 0
7, 16620, Note_on_c, 3, 55, 88
7, 16678, Note_off_c, 3, 55, 0
7, 16680, Note_on_c, 3, 57, 88
7, 16738, Note_off_c, 3, 57, 0
7, 16740, Note_on_c, 3, 54, 88
7, 16784, Note_off_c, 3, 54, 0
7, 16800, Note_on_c, 3, 54, 88
7, 16858, Note_off_c, 3, 54, 0
7, 16860, Note_on_c, 3, 52, 88
7, 16918, Note_off_c, 3, 52, 0
7, 16920, Note_on_c, 3, 54, 88
7, 16978, Note_off_c, 3, 54, 0
7, 16980, Note_on_c, 3, 50, 88
7, 17024, Note_off_c, 3, 50, 0
7, 17040, Note_on_c, 3, 50, 88
7, 17098, Note_off_c, 3, 50, 0
7, 17100, Note_on_c, 3, 49, 88
7, 17158, Note_off_c, 3, 49, 0
7, 17160, Note_on_c, 3, 50, 88
7, 17218, Note_off_c, 3, 50, 0
7, 17220, Note_on_c, 3, 47, 88
7, 17278, Note_off_c, 3, 47, 0
7, 17280, Note_on_c, 3, 47, 88
7, 17514, Note_off_c, 3, 47, 0
7, 17520, Note_on_c, 3, 55, 88
7, 17578, Note_off_c, 3, 55, 0
7, 17580, Note_on_c, 3, 54, 88
7, 17638, Note_off_c, 3, 54, 0
7, 17640, Note_on_c, 3, 55, 88
7, 17698, Note_off_c, 3, 55, 0
7, 17700, Note_on_c, 3, 52, 88
7, 17744, Note_off_c, 3, 52, 0
7, 17760, Note_on_c, 3, 52, 88
7, 17818, Note_off_c, 3, 52, 0
7, 17820, Note_on_c, 3, 50, 88
7, 17878, Note_off_c, 3, 50, 0
7, 17880, Note_on_c, 3, 52, 88
7, 17938, Note_off_c, 3, 52, 0
7, 17940, Note_on_c, 3, 49, 88
7, 17984, Note_off_c, 3, 49, 0
7, 18000, Note_on_c, 3, 49, 88
7, 18058, Note_off_c, 3, 49, 0
7, 18060, Note_on_c, 3, 47, 88
7, 18118, Note_off_c, 3, 47, 0
7, 18120, Note_on_c, 3, 49, 88
7, 18178, Note_off_c, 3, 49, 0
7, 18180, Note_on_c, 3, 45, 88
7, 18238, Note_off_c, 3, 45, 0
7, 18240, Note_on_c, 3, 45, 88
7, 18474, Note_off_c, 3, 45, 0
7, 18720, Note_on_c, 3, 52, 88
7, 18749, Note_off_c, 3, 52, 0
7, 18750, Note_on_c, 3, 54, 88
7, 18779, Note_off_c, 3, 54, 0
7, 18780, Note_on_c, 3, 55, 88
7, 18809, Note_off_c, 3, 55, 0
7, 18810, Note_on_c, 3, 57, 88
7, 18839, Note_off_c, 3, 57, 0
7, 18840, Note_on_c, 3, 55, 88
7, 18869, Note_off_c, 3, 55, 0
7, 18870, Note_on_c, 3, 54, 88
7, 18899, Note_off_c, 3, 54, 0
7, 18900, Note_on_c, 3, 55, 88
7, 18929, Note_off_c, 3, 55, 0
7, 18930, Note_on_c, 3, 52, 88
7, 18959, Note_off_c, 3, 52, 0
7, 18960, Note_on_c, 3, 57, 88
7, 19194, Note_off_c, 3, 57, 0
7, 19200, Note_on_c, 3, 50, 88
7, 19229, Note_off_c, 3, 50, 0
7, 19230, Note_on_c, 3, 52, 88
7, 19259, Note_off_c, 3, 52, 0
7, 19260, Note_on_c, 3, 54, 88
7, 19289, Note_off_c, 3, 54, 0
7, 19290, Note_on_c, 3, 55, 88
7, 19319, Note_off_c, 3, 55, 0
7, 19320, Note_on_c, 3, 54, 88
7, 19349, Note_off_c, 3, 54, 0
7, 19350, Note_on_c, 3, 52, 88
7, 19379, Note_off_c, 3, 52, 0
7, 19380, Note_on_c, 3, 54, 88
7, 19409, Note_off_c, 3, 54, 0
7, 19410, Note_on_c, 3, 50, 88
7, 19439, Note_off_c, 3, 50, 0
7, 19440, Note_on_c, 3, 55, 88
7, 19556, Note_off_c, 3, 55, 0
7, 20160, Note_on_c, 3, 43, 88
7, 20160, Note_on_c, 3, 55, 88
7, 20394, Note_off_c, 3, 43, 0
7, 20394, Note_off_c, 3, 55, 0
7, 20400, Note_on_c, 3, 54, 88
7, 20429, Note_off_c, 3, 54, 0
7, 20430, Note_on_c, 3, 55, 88
7, 20459, Note_off_c, 3, 55, 0
7, 20460, Note_on_c, 3, 57, 88
7, 20489, Note_off_c, 3, 57, 0
7, 20490, Note_on_c, 3, 55, 88
7, 20519, Note_off_c, 3, 55, 0
7, 20520, Note_on_c, 3, 54, 88
7, 20549, Note_off_c, 3, 54, 0
7, 20550, Note_on_c, 3, 52, 88
7, 20579, Note_off_c, 3, 52, 0
7, 20580, Note_on_c, 3, 50, 88
7, 20609, Note_off_c, 3, 50, 0
7, 20610, Note_on_c, 3, 49, 88
7, 20639, Note_off_c, 3, 49, 0
7, 20640, Note_on_c, 3, 47, 88
7, 20669, Note_off_c, 3, 47, 0
7, 20670, Note_on_c, 3, 49, 88
7, 20699, Note_off_c, 3, 49, 0
7, 20700, Note_on_c, 3, 50, 88
7, 20729, Note_off_c, 3, 50, 0
7, 20730, Note_on_c, 3, 49, 88
7, 20759, Note_off_c, 3, 49, 0
7, 20760, Note_on_c, 3, 47, 88
7, 20789, Note_off_c, 3, 47, 0
7, 20790, Note_on_c, 3, 45, 88
7, 20819, Note_off_c, 3, 45, 0
7, 20820, Note_on_c, 3, 47, 88
7, 20849, Note_off_c, 3, 47, 0
7, 20850, Note_on_c, 3, 43, 88
7, 20879, Note_off_c, 3, 43, 0
7, 20880, Note_on_c, 3, 45, 88
7, 21044, Note_off_c, 3, 45, 0
7, 21060, Note_on_c, 3, 45, 88
7, 21118, Note_off_c, 3, 45, 0
7, 21120, Note_on_c, 3, 38, 88
7, 21266, Note_off_c, 3, 38, 0
7, 21270, Note_on_c, 3, 50, 88
7, 21299, Note_off_c, 3, 50, 0
7, 21300, Note_on_c, 3, 52, 88
7, 21329, Note_off_c, 3, 52, 0
7, 21330, Note_on_c, 3, 54, 88
7, 21359, Note_off_c, 3, 54, 0
7, 21360, Note_on_c, 3, 55, 88
7, 21594, Note_off_c, 3, 55, 0
7, 21600, Note_on_c, 3, 49, 88
7, 21629, Note_off_c, 3, 49, 0
7, 21630, Note_on_c, 3, 50, 88
7, 21659, Note_off_c, 3, 50, 0
7, 21660, Note_on_c, 3, 52, 88
7, 21689, Note_off_c, 3, 52, 0
7, 21690, Note_on_c, 3, 54, 88
7, 21719, Note_off_c, 3, 54, 0
7, 21720, Note_on_c, 3, 52, 88
7, 21749, Note_off_c, 3, 52, 0
7, 21750, Note_on_c, 3, 50, 88
7, 21779, Note_off_c, 3, 50, 0
7, 21780, Note_on_c, 3, 52, 88
7, 21809, Note_off_c, 3, 52, 0
7, 21810, Note_on_c, 3, 49, 88
7, 21839, Note_off_c, 3, 49, 0
7, 21840, Note_on_c, 3, 54, 88
7, 22074, Note_off_c, 3, 54, 0
7, 22080, Note_on_c, 3, 47, 88
7, 22109, Note_off_c, 3, 47, 0
7, 22110, Note_on_c, 3, 49, 88
7, 22139, Note_off_c, 3, 49, 0
7, 22140, Note_on_c, 3, 50, 88
7, 22169, Note_off_c, 3, 50, 0
7, 22170, Note_on_c, 3, 52, 88
7, 22199, Note_off_c, 3, 52, 0
7, 22200, Note_on_c, 3, 50, 88
7, 22229, Note_off_c, 3, 50, 0
7, 22230, Note_on_c, 3, 49, 88
7, 22259, Note_off_c, 3, 49, 0
7, 22260, Note_on_c, 3, 50, 88
7, 22289, Note_off_c, 3, 50, 0
7, 22290, Note_on_c, 3, 47, 88
7, 22319, Note_off_c, 3, 47, 0
7, 22320, Note_on_c, 3, 52, 88
7, 22349, Note_off_c, 3, 52, 0
7, 22350, Note_on_c, 3, 54, 88
7, 22379, Note_off_c, 3, 54, 0
7, 22380, Note_on_c, 3, 55, 88
7, 22409, Note_off_c, 3, 55, 0
7, 22410, Note_on_c, 3, 57, 88
7, 22439, Note_off_c, 3, 57, 0
7, 22440, Note_on_c, 3, 55, 88
7, 22469, Note_off_c, 3, 55, 0
7, 22470, Note_on_c, 3, 54, 88
7, 22499, Note_off_c, 3, 54, 0
7, 22500, Note_on_c, 3, 55, 88
7, 22529, Note_off_c, 3, 55, 0
7, 22530, Note_on_c, 3, 52, 88
7, 22559, Note_off_c, 3, 52, 0
7, 22560, Note_on_c, 3, 57, 88
7, 22589, Note_off_c, 3, 57, 0
7, 22590, Note_on_c, 3, 59, 88
7, 22619, Note_off_c, 3, 59, 0
7, 22620, Note_on_c, 3, 61, 88
7, 22649, Note_off_c, 3, 61, 0
7, 22650, Note_on_c, 3, 62, 88
7, 22679, Note_off_c, 3, 62, 0
7, 22680, Note_on_c, 3, 61, 88
7, 22709, Note_off_c, 3, 61, 0
7, 22710, Note_on_c, 3, 59, 88
7, 22739, Note_off_c, 3, 59, 0
7, 22740, Note_on_c, 3, 61, 88
7, 22769, Note_off_c, 3, 61, 0
7, 22770, Note_on_c, 3, 57, 88
7, 22799, Note_off_c, 3, 57, 0
7, 22800, Note_on_c, 3, 62, 88
7, 22829, Note_off_c, 3, 62, 0
7, 22830, Note_on_c, 3, 64, 88
7, 22859, Note_off_c, 3, 64, 0
7, 22860, Note_on_c, 3, 66, 88
7, 22889, Note_off_c, 3, 66, 0
7, 22890, Note_on_c, 3, 67, 88
7, 22919, Note_off_c, 3, 67, 0
7, 22920, Note_on_c, 3, 66, 88
7, 22949, Note_off_c, 3, 66, 0
7, 22950, Note_on_c, 3, 64, 88
7, 22979, Note_off_c, 3, 64, 0
7, 22980, Note_on_c, 3, 66, 88
7, 23009, Note_off_c, 3, 66, 0
7, 23010, Note_on_c, 3, 62, 88
7, 23039, Note_off_c, 3, 62, 0
7, 23040, Note_on_c, 3, 67, 88
7, 23215, Note_off_c, 3, 67, 0
7, 23220, Note_on_c, 3, 55, 88
7, 23278, Note_off_c, 3, 55, 0
7, 23280, Note_on_c, 3, 54, 88
7, 23455, Note_off_c, 3, 54, 0
7, 23460, Note_on_c, 3, 52, 88
7, 23518, Note_off_c, 3, 52, 0
7, 23520, Note_on_c, 3, 50, 88
7, 23695, Note_off_c, 3, 50, 0
7, 23700, Note_on_c, 3, 48, 88
7, 23758, Note_off_c, 3, 48, 0
7, 23760, Note_on_c, 3, 47, 88
7, 23935, Note_off_c, 3, 47, 0
7, 23940, Note_on_c, 3, 45, 88
7, 23998, Note_off_c, 3, 45, 0
7, 24000, Note_on_c, 3, 43, 88
7, 24175, Note_off_c, 3, 43, 0
7, 24180, Note_on_c, 3, 42, 88
7, 24238, Note_off_c, 3, 42, 0
7, 24240, Note_on_c, 3, 40, 88
7, 24415, Note_off_c, 3, 40, 0
7, 24420, Note_on_c, 3, 38, 88
7, 24478, Note_off_c, 3, 38, 0
7, 24480, Note_on_c, 3, 45, 88
7, 24950, Note_off_c, 3, 45, 0
7, 24960, Note_on_c, 3, 38, 88
7, 25905, Note_off_c, 3, 38, 0
7, 25905, End_track
0, 0, End_of_file
