0, 0, Header, 1, 8, 240
1, 0, Start_track
1, 0, Time_signature, 4, 2, 24, 8
1, 0, Tempo, 923076
1, 0, SMPTE_offset, 64, 0, 0, 0, 93
1, 0, End_track
2, 0, Start_track
2, 0, Title_t, "(C) & (P) 1993"
2, 127, End_track
3, 0, Start_track
3, 0, Title_t, "CCARH,Stanford"
3, 0, End_track
4, 0, Start_track
4, 0, Title_t, "Track 1"
4, 0, Program_c, 0, 6
4, 2040, Note_on_c, 0, 80, 88
4, 2156, Note_off_c, 0, 80, 0
4, 2160, Note_on_c, 0, 79, 88
4, 2276, Note_off_c, 0, 79, 0
4, 2280, Note_on_c, 0, 84, 88
4, 2396, Note_off_c, 0, 84, 0
4, 2400, Note_on_c, 0, 77, 88
4, 2516, Note_off_c, 0, 77, 0
4, 2520, Note_on_c, 0, 79, 88
4, 2578, Note_off_c, 0, 79, 0
4, 2580, Note_on_c, 0, 80, 88
4, 2638, Note_off_c, 0, 80, 0
4, 2640, Note_on_c, 0, 82, 88
4, 2756, Note_off_c, 0, 82, 0
4, 2760, Note_on_c, 0, 70, 88
4, 2876, Note_off_c, 0, 70, 0
4, 2880, Note_on_c, 0, 75, 88
4, 2996, Note_off_c, 0, 75, 0
4, 3000, Note_on_c, 0, 77, 88
4, 3058, Note_off_c, 0, 77, 0
4, 3060, Note_on_c, 0, 79, 88
4, 3118, Note_off_c, 0, 79, 0
4, 3120, Note_on_c, 0, 80, 88
4, 3414, Note_off_c, 0, 80, 0
4, 3420, Note_on_c, 0, 82, 88
4, 3478, Note_off_c, 0, 82, 0
4, 3480, Note_on_c, 0, 79, 88
4, 3538, Note_off_c, 0, 79, 0
4, 3540, Note_on_c, 0, 80, 88
4, 3598, Note_off_c, 0, 80, 0
4, 3600, Note_on_c, 0, 77, 88
4, 3658, Note_off_c, 0, 77, 0
4, 3660, Note_on_c, 0, 79, 88
4, 3718, Note_off_c, 0, 79, 0
4, 3720, Note_on_c, 0, 80, 88
4, 3778, Note_off_c, 0, 80, 0
4, 3780, Note_on_c, 0, 82, 88
4, 3838, Note_off_c, 0, 82, 0
4, 3840, Note_on_c, 0, 79, 88
4, 3898, Note_off_c, 0, 79, 0
4, 3900, Note_on_c, 0, 77, 88
4, 3958, Note_off_c, 0, 77, 0
4, 3960, Note_on_c, 0, 79, 88
4, 4018, Note_off_c, 0, 79, 0
4, 4020, Note_on_c, 0, 80, 88
4, 4078, Note_off_c, 0, 80, 0
4, 4080, Note_on_c, 0, 82, 88
4, 4138, Note_off_c, 0, 82, 0
4, 4140, Note_on_c, 0, 80, 88
4, 4198, Note_off_c, 0, 80, 0
4, 4200, Note_on_c, 0, 79, 88
4, 4258, Note_off_c, 0, 79, 0
4, 4260, Note_on_c, 0, 82, 88
4, 4318, Note_off_c, 0, 82, 0
4, 4320, Note_on_c, 0, 80, 88
4, 4378, Note_off_c, 0, 80, 0
4, 4380, Note_on_c, 0, 79, 88
4, 4438, Note_off_c, 0, 79, 0
4, 4440, Note_on_c, 0, 77, 88
4, 4498, Note_off_c, 0, 77, 0
4, 4500, Note_on_c, 0, 75, 88
4, 4558, Note_off_c, 0, 75, 0
4, 4560, Note_on_c, 0, 73, 88
4, 4618, Note_off_c, 0, 73, 0
4, 4620, Note_on_c, 0, 72, 88
4, 4678, Note_off_c, 0, 72, 0
4, 4680, Note_on_c, 0, 73, 88
4, 4738, Note_off_c, 0, 73, 0
4, 4740, Note_on_c, 0, 75, 88
4, 4798, Note_off_c, 0, 75, 0
4, 4800, Note_on_c, 0, 72, 88
4, 5034, Note_off_c, 0, 72, 0
4, 5040, Note_on_c, 0, 80, 88
4, 5274, Note_off_c, 0, 80, 0
4, 5280, Note_on_c, 0, 79, 88
4, 5514, Note_off_c, 0, 79, 0
4, 5520, Note_on_c, 0, 78, 88
4, 5754, Note_off_c, 0, 78, 0
4, 5760, Note_on_c, 0, 77, 88
4, 5994, Note_off_c, 0, 77, 0
4, 6000, Note_on_c, 0, 76, 88
4, 6234, Note_off_c, 0, 76, 0
4, 6240, Note_on_c, 0, 75, 88
4, 6356, Note_off_c, 0, 75, 0
4, 6360, Note_on_c, 0, 80, 88
4, 6594, Note_off_c, 0, 80, 0
4, 6600, Note_on_c, 0, 79, 88
4, 6716, Note_off_c, 0, 79, 0
4, 6720, Note_on_c, 0, 80, 88
4, 6836, Note_off_c, 0, 80, 0
4, 20280, Note_on_c, 0, 75, 88
4, 20396, Note_off_c, 0, 75, 0
4, 20400, Note_on_c, 0, 72, 88
4, 20516, Note_off_c, 0, 72, 0
4, 20520, Note_on_c, 0, 77, 88
4, 20636, Note_off_c, 0, 77, 0
4, 20640, Note_on_c, 0, 70, 88
4, 20756, Note_off_c, 0, 70, 0
4, 20760, Note_on_c, 0, 72, 88
4, 20818, Note_off_c, 0, 72, 0
4, 20820, Note_on_c, 0, 73, 88
4, 20878, Note_off_c, 0, 73, 0
4, 20880, Note_on_c, 0, 75, 88
4, 20996, Note_off_c, 0, 75, 0
4, 21000, Note_on_c, 0, 63, 88
4, 21116, Note_off_c, 0, 63, 0
4, 21120, Note_on_c, 0, 68, 88
4, 21236, Note_off_c, 0, 68, 0
4, 21240, Note_on_c, 0, 70, 88
4, 21298, Note_off_c, 0, 70, 0
4, 21300, Note_on_c, 0, 72, 88
4, 21358, Note_off_c, 0, 72, 0
4, 21360, Note_on_c, 0, 73, 88
4, 21654, Note_off_c, 0, 73, 0
4, 21660, Note_on_c, 0, 75, 88
4, 21718, Note_off_c, 0, 75, 0
4, 21720, Note_on_c, 0, 72, 88
4, 21778, Note_off_c, 0, 72, 0
4, 21780, Note_on_c, 0, 73, 88
4, 21838, Note_off_c, 0, 73, 0
4, 21840, Note_on_c, 0, 70, 88
4, 21898, Note_off_c, 0, 70, 0
4, 21900, Note_on_c, 0, 72, 88
4, 21958, Note_off_c, 0, 72, 0
4, 21960, Note_on_c, 0, 73, 88
4, 22018, Note_off_c, 0, 73, 0
4, 22020, Note_on_c, 0, 75, 88
4, 22078, Note_off_c, 0, 75, 0
4, 22080, Note_on_c, 0, 72, 88
4, 22196, Note_off_c, 0, 72, 0
4, 22200, Note_on_c, 0, 76, 88
4, 22316, Note_off_c, 0, 76, 0
4, 22320, Note_on_c, 0, 77, 88
4, 22554, Note_off_c, 0, 77, 0
4, 22560, Note_on_c, 0, 76, 88
4, 22794, Note_off_c, 0, 76, 0
4, 22800, Note_on_c, 0, 75, 88
4, 23034, Note_off_c, 0, 75, 0
4, 23040, Note_on_c, 0, 74, 88
4, 23274, Note_off_c, 0, 74, 0
4, 23280, Note_on_c, 0, 73, 88
4, 23514, Note_off_c, 0, 73, 0
4, 23520, Note_on_c, 0, 72, 88
4, 23636, Note_off_c, 0, 72, 0
4, 23640, Note_on_c, 0, 77, 88
4, 23874, Note_off_c, 0, 77, 0
4, 23880, Note_on_c, 0, 75, 88
4, 24116, Note_off_c, 0, 75, 0
4, 24120, Note_on_c, 0, 63, 88
4, 24236, Note_off_c, 0, 63, 0
4, 24240, Note_on_c, 0, 62, 88
4, 24356, Note_off_c, 0, 62, 0
4, 24360, Note_on_c, 0, 74, 88
4, 24594, Note_off_c, 0, 74, 0
4, 24600, Note_on_c, 0, 62, 88
4, 24716, Note_off_c, 0, 62, 0
4, 24720, Note_on_c, 0, 60, 88
4, 24836, Note_off_c, 0, 60, 0
4, 24840, Note_on_c, 0, 72, 88
4, 25076, Note_off_c, 0, 72, 0
4, 25080, Note_on_c, 0, 60, 88
4, 25196, Note_off_c, 0, 60, 0
4, 25200, Note_on_c, 0, 59, 88
4, 25316, Note_off_c, 0, 59, 0
4, 25320, Note_on_c, 0, 71, 88
4, 25436, Note_off_c, 0, 71, 0
4, 25440, Note_on_c, 0, 72, 88
4, 25498, Note_off_c, 0, 72, 0
4, 25500, Note_on_c, 0, 71, 88
4, 25558, Note_off_c, 0, 71, 0
4, 25560, Note_on_c, 0, 72, 88
4, 25618, Note_off_c, 0, 72, 0
4, 25620, Note_on_c, 0, 74, 88
4, 25678, Note_off_c, 0, 74, 0
4, 25680, Note_on_c, 0, 75, 88
4, 25738, Note_off_c, 0, 75, 0
4, 25740, Note_on_c, 0, 74, 88
4, 25798, Note_off_c, 0, 74, 0
4, 25800, Note_on_c, 0, 72, 88
4, 25858, Note_off_c, 0, 72, 0
4, 25860, Note_on_c, 0, 75, 88
4, 25918, Note_off_c, 0, 75, 0
4, 25920, Note_on_c, 0, 74, 88
4, 25978, Note_off_c, 0, 74, 0
4, 25980, Note_on_c, 0, 72, 88
4, 26038, Note_off_c, 0, 72, 0
4, 26040, Note_on_c, 0, 74, 88
4, 26098, Note_off_c, 0, 74, 0
4, 26100, Note_on_c, 0, 75, 88
4, 26158, Note_off_c, 0, 75, 0
4, 26160, Note_on_c, 0, 77, 88
4, 26218, Note_off_c, 0, 77, 0
4, 26220, Note_on_c, 0, 75, 88
4, 26278, Note_off_c, 0, 75, 0
4, 26280, Note_on_c, 0, 74, 88
4, 26338, Note_off_c, 0, 74, 0
4, 26340, Note_on_c, 0, 77, 88
4, 26398, Note_off_c, 0, 77, 0
4, 26400, Note_on_c, 0, 76, 88
4, 26458, Note_off_c, 0, 76, 0
4, 26460, Note_on_c, 0, 74, 88
4, 26518, Note_off_c, 0, 74, 0
4, 26520, Note_on_c, 0, 76, 88
4, 26578, Note_off_c, 0, 76, 0
4, 26580, Note_on_c, 0, 77, 88
4, 26638, Note_off_c, 0, 77, 0
4, 26640, Note_on_c, 0, 79, 88
4, 26698, Note_off_c, 0, 79, 0
4, 26700, Note_on_c, 0, 77, 88
4, 26758, Note_off_c, 0, 77, 0
4, 26760, Note_on_c, 0, 76, 88
4, 26818, Note_off_c, 0, 76, 0
4, 26820, Note_on_c, 0, 79, 88
4, 26878, Note_off_c, 0, 79, 0
4, 26880, Note_on_c, 0, 77, 88
4, 26996, Note_off_c, 0, 77, 0
4, 27000, Note_on_c, 0, 72, 88
4, 27116, Note_off_c, 0, 72, 0
4, 27120, Note_on_c, 0, 77, 88
4, 27590, Note_off_c, 0, 77, 0
4, 27600, Note_on_c, 0, 76, 88
4, 27716, Note_off_c, 0, 76, 0
4, 27720, Note_on_c, 0, 75, 88
4, 27956, Note_off_c, 0, 75, 0
4, 27960, Note_on_c, 0, 84, 88
4, 28018, Note_off_c, 0, 84, 0
4, 28020, Note_on_c, 0, 82, 88
4, 28078, Note_off_c, 0, 82, 0
4, 28080, Note_on_c, 0, 81, 88
4, 28138, Note_off_c, 0, 81, 0
4, 28140, Note_on_c, 0, 79, 88
4, 28198, Note_off_c, 0, 79, 0
4, 28200, Note_on_c, 0, 77, 88
4, 28258, Note_off_c, 0, 77, 0
4, 28260, Note_on_c, 0, 75, 88
4, 28318, Note_off_c, 0, 75, 0
4, 28320, Note_on_c, 0, 73, 88
4, 28554, Note_off_c, 0, 73, 0
4, 28680, Note_on_c, 0, 73, 88
4, 28796, Note_off_c, 0, 73, 0
4, 28800, Note_on_c, 0, 75, 88
4, 28916, Note_off_c, 0, 75, 0
4, 28920, Note_on_c, 0, 78, 88
4, 29036, Note_off_c, 0, 78, 0
4, 29040, Note_on_c, 0, 72, 88
4, 29156, Note_off_c, 0, 72, 0
4, 29160, Note_on_c, 0, 77, 88
4, 29276, Note_off_c, 0, 77, 0
4, 29280, Note_on_c, 0, 70, 88
4, 29396, Note_off_c, 0, 70, 0
4, 29760, Note_on_c, 0, 70, 88
4, 30285, Note_off_c, 0, 70, 0
4, 30300, Note_on_c, 0, 70, 88
4, 30358, Note_off_c, 0, 70, 0
4, 30360, Note_on_c, 0, 68, 88
4, 30418, Note_off_c, 0, 68, 0
4, 30420, Note_on_c, 0, 66, 88
4, 30478, Note_off_c, 0, 66, 0
4, 30480, Note_on_c, 0, 65, 88
4, 30538, Note_off_c, 0, 65, 0
4, 30540, Note_on_c, 0, 66, 88
4, 30598, Note_off_c, 0, 66, 0
4, 30600, Note_on_c, 0, 68, 88
4, 30658, Note_off_c, 0, 68, 0
4, 30660, Note_on_c, 0, 65, 88
4, 30718, Note_off_c, 0, 65, 0
4, 30720, Note_on_c, 0, 66, 88
4, 30778, Note_off_c, 0, 66, 0
4, 30780, Note_on_c, 0, 68, 88
4, 30838, Note_off_c, 0, 68, 0
4, 30840, Note_on_c, 0, 66, 88
4, 30898, Note_off_c, 0, 66, 0
4, 30900, Note_on_c, 0, 65, 88
4, 30958, Note_off_c, 0, 65, 0
4, 30960, Note_on_c, 0, 63, 88
4, 31018, Note_off_c, 0, 63, 0
4, 31020, Note_on_c, 0, 65, 88
4, 31078, Note_off_c, 0, 65, 0
4, 31080, Note_on_c, 0, 66, 88
4, 31138, Note_off_c, 0, 66, 0
4, 31140, Note_on_c, 0, 63, 88
4, 31198, Note_off_c, 0, 63, 0
4, 31200, Note_on_c, 0, 65, 88
4, 31316, Note_off_c, 0, 65, 0
4, 31320, Note_on_c, 0, 66, 88
4, 31436, Note_off_c, 0, 66, 0
4, 31440, Note_on_c, 0, 68, 88
4, 31556, Note_off_c, 0, 68, 0
4, 31560, Note_on_c, 0, 65, 88
4, 31676, Note_off_c, 0, 65, 0
4, 31680, Note_on_c, 0, 70, 88
4, 31796, Note_off_c, 0, 70, 0
4, 31800, Note_on_c, 0, 74, 88
4, 31916, Note_off_c, 0, 74, 0
4, 31920, Note_on_c, 0, 75, 88
4, 32095, Note_off_c, 0, 75, 0
4, 32100, Note_on_c, 0, 77, 88
4, 32158, Note_off_c, 0, 77, 0
4, 32160, Note_on_c, 0, 73, 88
4, 32276, Note_off_c, 0, 73, 0
4, 32280, Note_on_c, 0, 72, 88
4, 32396, Note_off_c, 0, 72, 0
4, 32400, Note_on_c, 0, 70, 88
4, 32516, Note_off_c, 0, 70, 0
4, 32520, Note_on_c, 0, 75, 88
4, 32636, Note_off_c, 0, 75, 0
4, 32640, Note_on_c, 0, 72, 88
4, 32756, Note_off_c, 0, 72, 0
4, 32760, Note_on_c, 0, 77, 88
4, 32876, Note_off_c, 0, 77, 0
4, 32880, Note_on_c, 0, 73, 88
4, 32996, Note_off_c, 0, 73, 0
4, 33000, Note_on_c, 0, 78, 88
4, 33116, Note_off_c, 0, 78, 0
4, 33120, Note_on_c, 0, 72, 88
4, 33236, Note_off_c, 0, 72, 0
4, 33240, Note_on_c, 0, 73, 88
4, 33298, Note_off_c, 0, 73, 0
4, 33300, Note_on_c, 0, 75, 88
4, 33358, Note_off_c, 0, 75, 0
4, 33360, Note_on_c, 0, 77, 88
4, 33476, Note_off_c, 0, 77, 0
4, 33480, Note_on_c, 0, 65, 88
4, 33596, Note_off_c, 0, 65, 0
4, 33600, Note_on_c, 0, 70, 88
4, 33716, Note_off_c, 0, 70, 0
4, 33720, Note_on_c, 0, 72, 88
4, 33778, Note_off_c, 0, 72, 0
4, 33780, Note_on_c, 0, 73, 88
4, 33838, Note_off_c, 0, 73, 0
4, 33840, Note_on_c, 0, 75, 88
4, 34134, Note_off_c, 0, 75, 0
4, 34140, Note_on_c, 0, 77, 88
4, 34198, Note_off_c, 0, 77, 0
4, 34200, Note_on_c, 0, 73, 88
4, 34258, Note_off_c, 0, 73, 0
4, 34260, Note_on_c, 0, 75, 88
4, 34318, Note_off_c, 0, 75, 0
4, 34320, Note_on_c, 0, 72, 88
4, 34378, Note_off_c, 0, 72, 0
4, 34380, Note_on_c, 0, 73, 88
4, 34438, Note_off_c, 0, 73, 0
4, 34440, Note_on_c, 0, 75, 88
4, 34498, Note_off_c, 0, 75, 0
4, 34500, Note_on_c, 0, 77, 88
4, 34558, Note_off_c, 0, 77, 0
4, 34560, Note_on_c, 0, 70, 88
4, 34794, Note_off_c, 0, 70, 0
4, 34800, Note_on_c, 0, 72, 88
4, 35034, Note_off_c, 0, 72, 0
4, 35040, Note_on_c, 0, 73, 88
4, 35510, Note_off_c, 0, 73, 0
4, 35520, Note_on_c, 0, 72, 88
4, 35754, Note_off_c, 0, 72, 0
4, 35760, Note_on_c, 0, 71, 88
4, 35994, Note_off_c, 0, 71, 0
4, 36000, Note_on_c, 0, 70, 88
4, 36234, Note_off_c, 0, 70, 0
4, 36240, Note_on_c, 0, 69, 88
4, 36596, Note_off_c, 0, 69, 0
4, 36600, Note_on_c, 0, 68, 88
4, 37070, Note_off_c, 0, 68, 0
4, 37080, Note_on_c, 0, 67, 88
4, 37196, Note_off_c, 0, 67, 0
4, 37200, Note_on_c, 0, 68, 88
4, 37316, Note_off_c, 0, 68, 0
4, 37320, Note_on_c, 0, 70, 88
4, 37436, Note_off_c, 0, 70, 0
4, 37440, Note_on_c, 0, 72, 88
4, 37556, Note_off_c, 0, 72, 0
4, 37560, Note_on_c, 0, 74, 88
4, 37676, Note_off_c, 0, 74, 0
4, 37680, Note_on_c, 0, 75, 88
4, 37738, Note_off_c, 0, 75, 0
4, 37740, Note_on_c, 0, 76, 88
4, 37798, Note_off_c, 0, 76, 0
4, 37800, Note_on_c, 0, 73, 88
4, 37858, Note_off_c, 0, 73, 0
4, 37860, Note_on_c, 0, 75, 88
4, 37918, Note_off_c, 0, 75, 0
4, 37920, Note_on_c, 0, 71, 88
4, 37978, Note_off_c, 0, 71, 0
4, 37980, Note_on_c, 0, 73, 88
4, 38038, Note_off_c, 0, 73, 0
4, 38040, Note_on_c, 0, 75, 88
4, 38098, Note_off_c, 0, 75, 0
4, 38100, Note_on_c, 0, 76, 88
4, 38158, Note_off_c, 0, 76, 0
4, 38160, Note_on_c, 0, 73, 88
4, 38218, Note_off_c, 0, 73, 0
4, 38220, Note_on_c, 0, 75, 88
4, 38278, Note_off_c, 0, 75, 0
4, 38280, Note_on_c, 0, 71, 88
4, 38338, Note_off_c, 0, 71, 0
4, 38340, Note_on_c, 0, 73, 88
4, 38398, Note_off_c, 0, 73, 0
4, 38400, Note_on_c, 0, 70, 88
4, 38458, Note_off_c, 0, 70, 0
4, 38460, Note_on_c, 0, 75, 88
4, 38518, Note_off_c, 0, 75, 0
4, 38520, Note_on_c, 0, 77, 88
4, 38578, Note_off_c, 0, 77, 0
4, 38580, Note_on_c, 0, 79, 88
4, 38638, Note_off_c, 0, 79, 0
4, 38640, Note_on_c, 0, 80, 88
4, 38925, Note_off_c, 0, 80, 0
4, 38940, Note_on_c, 0, 80, 88
4, 38998, Note_off_c, 0, 80, 0
4, 39000, Note_on_c, 0, 79, 88
4, 39058, Note_off_c, 0, 79, 0
4, 39060, Note_on_c, 0, 77, 88
4, 39118, Note_off_c, 0, 77, 0
4, 39120, Note_on_c, 0, 79, 88
4, 39236, Note_off_c, 0, 79, 0
4, 39240, Note_on_c, 0, 78, 88
4, 39405, Note_off_c, 0, 78, 0
4, 39420, Note_on_c, 0, 78, 88
4, 39478, Note_off_c, 0, 78, 0
4, 39480, Note_on_c, 0, 77, 88
4, 39538, Note_off_c, 0, 77, 0
4, 39540, Note_on_c, 0, 75, 88
4, 39598, Note_off_c, 0, 75, 0
4, 39600, Note_on_c, 0, 77, 88
4, 39716, Note_off_c, 0, 77, 0
4, 39720, Note_on_c, 0, 76, 88
4, 39836, Note_off_c, 0, 76, 0
4, 39840, Note_on_c, 0, 75, 88
4, 40365, Note_off_c, 0, 75, 0
4, 40380, Note_on_c, 0, 75, 88
4, 40438, Note_off_c, 0, 75, 0
4, 40440, Note_on_c, 0, 74, 88
4, 40498, Note_off_c, 0, 74, 0
4, 40500, Note_on_c, 0, 72, 88
4, 40558, Note_off_c, 0, 72, 0
4, 40560, Note_on_c, 0, 74, 88
4, 40676, Note_off_c, 0, 74, 0
4, 40680, Note_on_c, 0, 73, 88
4, 40845, Note_off_c, 0, 73, 0
4, 40860, Note_on_c, 0, 73, 88
4, 40918, Note_off_c, 0, 73, 0
4, 40920, Note_on_c, 0, 72, 88
4, 40978, Note_off_c, 0, 72, 0
4, 40980, Note_on_c, 0, 70, 88
4, 41038, Note_off_c, 0, 70, 0
4, 41040, Note_on_c, 0, 72, 88
4, 41156, Note_off_c, 0, 72, 0
4, 41160, Note_on_c, 0, 71, 88
4, 41276, Note_off_c, 0, 71, 0
4, 41280, Note_on_c, 0, 70, 88
4, 41396, Note_off_c, 0, 70, 0
4, 41400, Note_on_c, 0, 72, 88
4, 41516, Note_off_c, 0, 72, 0
4, 41520, Note_on_c, 0, 73, 88
4, 42110, Note_off_c, 0, 73, 0
4, 42120, Note_on_c, 0, 72, 88
4, 42236, Note_off_c, 0, 72, 0
4, 42240, Note_on_c, 0, 73, 88
4, 42474, Note_off_c, 0, 73, 0
4, 42720, Note_on_c, 0, 76, 88
4, 42954, Note_off_c, 0, 76, 0
4, 43200, Note_on_c, 0, 79, 88
4, 43434, Note_off_c, 0, 79, 0
4, 43680, Note_on_c, 0, 82, 88
4, 43914, Note_off_c, 0, 82, 0
4, 43980, Note_on_c, 0, 73, 88
4, 44038, Note_off_c, 0, 73, 0
4, 44040, Note_on_c, 0, 72, 88
4, 44098, Note_off_c, 0, 72, 0
4, 44100, Note_on_c, 0, 70, 88
4, 44158, Note_off_c, 0, 70, 0
4, 44160, Note_on_c, 0, 72, 88
4, 44218, Note_off_c, 0, 72, 0
4, 44220, Note_on_c, 0, 68, 88
4, 44278, Note_off_c, 0, 68, 0
4, 44280, Note_on_c, 0, 70, 88
4, 44338, Note_off_c, 0, 70, 0
4, 44340, Note_on_c, 0, 72, 88
4, 44398, Note_off_c, 0, 72, 0
4, 44400, Note_on_c, 0, 73, 88
4, 44458, Note_off_c, 0, 73, 0
4, 44460, Note_on_c, 0, 75, 88
4, 44518, Note_off_c, 0, 75, 0
4, 44520, Note_on_c, 0, 77, 88
4, 44578, Note_off_c, 0, 77, 0
4, 44580, Note_on_c, 0, 79, 88
4, 44638, Note_off_c, 0, 79, 0
4, 44640, Note_on_c, 0, 80, 88
4, 44698, Note_off_c, 0, 80, 0
4, 44700, Note_on_c, 0, 75, 88
4, 44758, Note_off_c, 0, 75, 0
4, 44760, Note_on_c, 0, 77, 88
4, 44818, Note_off_c, 0, 77, 0
4, 44820, Note_on_c, 0, 73, 88
4, 44878, Note_off_c, 0, 73, 0
4, 44880, Note_on_c, 0, 72, 88
4, 44938, Note_off_c, 0, 72, 0
4, 44940, Note_on_c, 0, 77, 88
4, 44998, Note_off_c, 0, 77, 0
4, 45000, Note_on_c, 0, 74, 88
4, 45058, Note_off_c, 0, 74, 0
4, 45060, Note_on_c, 0, 75, 88
4, 45118, Note_off_c, 0, 75, 0
4, 45120, Note_on_c, 0, 68, 88
4, 45295, Note_off_c, 0, 68, 0
4, 45300, Note_on_c, 0, 65, 88
4, 45329, Note_off_c, 0, 65, 0
4, 45330, Note_on_c, 0, 67, 88
4, 45359, Note_off_c, 0, 67, 0
4, 45360, Note_on_c, 0, 68, 88
4, 45382, Note_off_c, 0, 68, 0
4, 45383, Note_on_c, 0, 67, 88
4, 45404, Note_off_c, 0, 67, 0
4, 45405, Note_on_c, 0, 68, 88
4, 45427, Note_off_c, 0, 68, 0
4, 45428, Note_on_c, 0, 67, 88
4, 45449, Note_off_c, 0, 67, 0
4, 45450, Note_on_c, 0, 68, 88
4, 45472, Note_off_c, 0, 68, 0
4, 45473, Note_on_c, 0, 67, 88
4, 45494, Note_off_c, 0, 67, 0
4, 45495, Note_on_c, 0, 68, 88
4, 45517, Note_off_c, 0, 68, 0
4, 45518, Note_on_c, 0, 67, 88
4, 45539, Note_off_c, 0, 67, 0
4, 45540, Note_on_c, 0, 65, 88
4, 45569, Note_off_c, 0, 65, 0
4, 45570, Note_on_c, 0, 67, 88
4, 45599, Note_off_c, 0, 67, 0
4, 45600, Note_on_c, 0, 68, 88
4, 45775, Note_off_c, 0, 68, 0
4, 45780, Note_on_c, 0, 70, 88
4, 45838, Note_off_c, 0, 70, 0
4, 45840, Note_on_c, 0, 72, 88
4, 46015, Note_off_c, 0, 72, 0
4, 46020, Note_on_c, 0, 74, 88
4, 46078, Note_off_c, 0, 74, 0
4, 46080, Note_on_c, 0, 75, 88
4, 46670, Note_off_c, 0, 75, 0
4, 46680, Note_on_c, 0, 73, 88
4, 46738, Note_off_c, 0, 73, 0
4, 46740, Note_on_c, 0, 72, 88
4, 46798, Note_off_c, 0, 72, 0
4, 46800, Note_on_c, 0, 70, 88
4, 46858, Note_off_c, 0, 70, 0
4, 46860, Note_on_c, 0, 67, 88
4, 46918, Note_off_c, 0, 67, 0
4, 46920, Note_on_c, 0, 68, 88
4, 47036, Note_off_c, 0, 68, 0
4, 47040, Note_on_c, 0, 70, 88
4, 47156, Note_off_c, 0, 70, 0
4, 47160, Note_on_c, 0, 68, 88
4, 47394, Note_off_c, 0, 68, 0
4, 47400, Note_on_c, 0, 67, 88
4, 47516, Note_off_c, 0, 67, 0
4, 47520, Note_on_c, 0, 68, 88
4, 47990, Note_off_c, 0, 68, 0
4, 47990, End_track
5, 0, Start_track
5, 0, Title_t, "Track 2"
5, 0, Program_c, 1, 6
5, 120, Note_on_c, 1, 75, 88
5, 236, Note_off_c, 1, 75, 0
5, 240, Note_on_c, 1, 72, 88
5, 356, Note_off_c, 1, 72, 0
5, 360, Note_on_c, 1, 77, 88
5, 476, Note_off_c, 1, 77, 0
5, 480, Note_on_c, 1, 70, 88
5, 596, Note_off_c, 1, 70, 0
5, 600, Note_on_c, 1, 72, 88
5, 658, Note_off_c, 1, 72, 0
5, 660, Note_on_c, 1, 73, 88
5, 718, Note_off_c, 1, 73, 0
5, 720, Note_on_c, 1, 75, 88
5, 836, Note_off_c, 1, 75, 0
5, 840, Note_on_c, 1, 63, 88
5, 956, Note_off_c, 1, 63, 0
5, 960, Note_on_c, 1, 68, 88
5, 1076, Note_off_c, 1, 68, 0
5, 1080, Note_on_c, 1, 70, 88
5, 1138, Note_off_c, 1, 70, 0
5, 1140, Note_on_c, 1, 72, 88
5, 1198, Note_off_c, 1, 72, 0
5, 1200, Note_on_c, 1, 73, 88
5, 1494, Note_off_c, 1, 73, 0
5, 1500, Note_on_c, 1, 75, 88
5, 1558, Note_off_c, 1, 75, 0
5, 1560, Note_on_c, 1, 72, 88
5, 1618, Note_off_c, 1, 72, 0
5, 1620, Note_on_c, 1, 73, 88
5, 1678, Note_off_c, 1, 73, 0
5, 1680, Note_on_c, 1, 70, 88
5, 1738, Note_off_c, 1, 70, 0
5, 1740, Note_on_c, 1, 72, 88
5, 1798, Note_off_c, 1, 72, 0
5, 1800, Note_on_c, 1, 73, 88
5, 1858, Note_off_c, 1, 73, 0
5, 1860, Note_on_c, 1, 75, 88
5, 1918, Note_off_c, 1, 75, 0
5, 1920, Note_on_c, 1, 72, 88
5, 1978, Note_off_c, 1, 72, 0
5, 1980, Note_on_c, 1, 70, 88
5, 2038, Note_off_c, 1, 70, 0
5, 2040, Note_on_c, 1, 72, 88
5, 2098, Note_off_c, 1, 72, 0
5, 2100, Note_on_c, 1, 74, 88
5, 2158, Note_off_c, 1, 74, 0
5, 2160, Note_on_c, 1, 75, 88
5, 2394, Note_off_c, 1, 75, 0
5, 2400, Note_on_c, 1, 74, 88
5, 2634, Note_off_c, 1, 74, 0
5, 2640, Note_on_c, 1, 73, 88
5, 2874, Note_off_c, 1, 73, 0
5, 2880, Note_on_c, 1, 72, 88
5, 3114, Note_off_c, 1, 72, 0
5, 3120, Note_on_c, 1, 71, 88
5, 3354, Note_off_c, 1, 71, 0
5, 3360, Note_on_c, 1, 70, 88
5, 3476, Note_off_c, 1, 70, 0
5, 3480, Note_on_c, 1, 75, 88
5, 3714, Note_off_c, 1, 75, 0
5, 3720, Note_on_c, 1, 74, 88
5, 3836, Note_off_c, 1, 74, 0
5, 3840, Note_on_c, 1, 75, 88
5, 3956, Note_off_c, 1, 75, 0
5, 3960, Note_on_c, 1, 70, 88
5, 4076, Note_off_c, 1, 70, 0
5, 4080, Note_on_c, 1, 67, 88
5, 4196, Note_off_c, 1, 67, 0
5, 4200, Note_on_c, 1, 72, 88
5, 4316, Note_off_c, 1, 72, 0
5, 4320, Note_on_c, 1, 65, 88
5, 4436, Note_off_c, 1, 65, 0
5, 4440, Note_on_c, 1, 67, 88
5, 4498, Note_off_c, 1, 67, 0
5, 4500, Note_on_c, 1, 68, 88
5, 4558, Note_off_c, 1, 68, 0
5, 4560, Note_on_c, 1, 70, 88
5, 4845, Note_off_c, 1, 70, 0
5, 4860, Note_on_c, 1, 70, 88
5, 4918, Note_off_c, 1, 70, 0
5, 4920, Note_on_c, 1, 68, 88
5, 4978, Note_off_c, 1, 68, 0
5, 4980, Note_on_c, 1, 67, 88
5, 5038, Note_off_c, 1, 67, 0
5, 5040, Note_on_c, 1, 68, 88
5, 5098, Note_off_c, 1, 68, 0
5, 5100, Note_on_c, 1, 75, 88
5, 5158, Note_off_c, 1, 75, 0
5, 5160, Note_on_c, 1, 73, 88
5, 5218, Note_off_c, 1, 73, 0
5, 5220, Note_on_c, 1, 72, 88
5, 5278, Note_off_c, 1, 72, 0
5, 5280, Note_on_c, 1, 73, 88
5, 5338, Note_off_c, 1, 73, 0
5, 5340, Note_on_c, 1, 75, 88
5, 5398, Note_off_c, 1, 75, 0
5, 5400, Note_on_c, 1, 73, 88
5, 5458, Note_off_c, 1, 73, 0
5, 5460, Note_on_c, 1, 72, 88
5, 5518, Note_off_c, 1, 72, 0
5, 5520, Note_on_c, 1, 70, 88
5, 5578, Note_off_c, 1, 70, 0
5, 5580, Note_on_c, 1, 73, 88
5, 5638, Note_off_c, 1, 73, 0
5, 5640, Note_on_c, 1, 72, 88
5, 5698, Note_off_c, 1, 72, 0
5, 5700, Note_on_c, 1, 70, 88
5, 5758, Note_off_c, 1, 70, 0
5, 5760, Note_on_c, 1, 72, 88
5, 5818, Note_off_c, 1, 72, 0
5, 5820, Note_on_c, 1, 73, 88
5, 5878, Note_off_c, 1, 73, 0
5, 5880, Note_on_c, 1, 72, 88
5, 5938, Note_off_c, 1, 72, 0
5, 5940, Note_on_c, 1, 70, 88
5, 5998, Note_off_c, 1, 70, 0
5, 6000, Note_on_c, 1, 68, 88
5, 6058, Note_off_c, 1, 68, 0
5, 6060, Note_on_c, 1, 71, 88
5, 6118, Note_off_c, 1, 71, 0
5, 6120, Note_on_c, 1, 70, 88
5, 6178, Note_off_c, 1, 70, 0
5, 6180, Note_on_c, 1, 68, 88
5, 6238, Note_off_c, 1, 68, 0
5, 6240, Note_on_c, 1, 67, 88
5, 6356, Note_off_c, 1, 67, 0
5, 6360, Note_on_c, 1, 75, 88
5, 6476, Note_off_c, 1, 75, 0
5, 6480, Note_on_c, 1, 73, 88
5, 6596, Note_off_c, 1, 73, 0
5, 6600, Note_on_c, 1, 70, 88
5, 6716, Note_off_c, 1, 70, 0
5, 6720, Note_on_c, 1, 75, 88
5, 6778, Note_off_c, 1, 75, 0
5, 6780, Note_on_c, 1, 77, 88
5, 6838, Note_off_c, 1, 77, 0
5, 6840, Note_on_c, 1, 75, 88
5, 6898, Note_off_c, 1, 75, 0
5, 6900, Note_on_c, 1, 73, 88
5, 6958, Note_off_c, 1, 73, 0
5, 6960, Note_on_c, 1, 72, 88
5, 7018, Note_off_c, 1, 72, 0
5, 7020, Note_on_c, 1, 70, 88
5, 7078, Note_off_c, 1, 70, 0
5, 7080, Note_on_c, 1, 68, 88
5, 7138, Note_off_c, 1, 68, 0
5, 7140, Note_on_c, 1, 67, 88
5, 7198, Note_off_c, 1, 67, 0
5, 7200, Note_on_c, 1, 68, 88
5, 7258, Note_off_c, 1, 68, 0
5, 7260, Note_on_c, 1, 70, 88
5, 7318, Note_off_c, 1, 70, 0
5, 7320, Note_on_c, 1, 68, 88
5, 7378, Note_off_c, 1, 68, 0
5, 7380, Note_on_c, 1, 67, 88
5, 7438, Note_off_c, 1, 67, 0
5, 7440, Note_on_c, 1, 65, 88
5, 7498, Note_off_c, 1, 65, 0
5, 7500, Note_on_c, 1, 67, 88
5, 7558, Note_off_c, 1, 67, 0
5, 7560, Note_on_c, 1, 63, 88
5, 7618, Note_off_c, 1, 63, 0
5, 7620, Note_on_c, 1, 65, 88
5, 7678, Note_off_c, 1, 65, 0
5, 7680, Note_on_c, 1, 67, 88
5, 7738, Note_off_c, 1, 67, 0
5, 7740, Note_on_c, 1, 68, 88
5, 7798, Note_off_c, 1, 68, 0
5, 7800, Note_on_c, 1, 67, 88
5, 7858, Note_off_c, 1, 67, 0
5, 7860, Note_on_c, 1, 65, 88
5, 7918, Note_off_c, 1, 65, 0
5, 7920, Note_on_c, 1, 63, 88
5, 7978, Note_off_c, 1, 63, 0
5, 7980, Note_on_c, 1, 66, 88
5, 8038, Note_off_c, 1, 66, 0
5, 8040, Note_on_c, 1, 65, 88
5, 8098, Note_off_c, 1, 65, 0
5, 8100, Note_on_c, 1, 63, 88
5, 8158, Note_off_c, 1, 63, 0
5, 8160, Note_on_c, 1, 62, 88
5, 8276, Note_off_c, 1, 62, 0
5, 8280, Note_on_c, 1, 70, 88
5, 8396, Note_off_c, 1, 70, 0
5, 8400, Note_on_c, 1, 68, 88
5, 8516, Note_off_c, 1, 68, 0
5, 8520, Note_on_c, 1, 65, 88
5, 8636, Note_off_c, 1, 65, 0
5, 8640, Note_on_c, 1, 67, 88
5, 8756, Note_off_c, 1, 67, 0
5, 8760, Note_on_c, 1, 70, 88
5, 8876, Note_off_c, 1, 70, 0
5, 8880, Note_on_c, 1, 75, 88
5, 9350, Note_off_c, 1, 75, 0
5, 9360, Note_on_c, 1, 74, 88
5, 9476, Note_off_c, 1, 74, 0
5, 9480, Note_on_c, 1, 73, 88
5, 9716, Note_off_c, 1, 73, 0
5, 9720, Note_on_c, 1, 82, 88
5, 9778, Note_off_c, 1, 82, 0
5, 9780, Note_on_c, 1, 80, 88
5, 9838, Note_off_c, 1, 80, 0
5, 9840, Note_on_c, 1, 79, 88
5, 9898, Note_off_c, 1, 79, 0
5, 9900, Note_on_c, 1, 77, 88
5, 9958, Note_off_c, 1, 77, 0
5, 9960, Note_on_c, 1, 75, 88
5, 10018, Note_off_c, 1, 75, 0
5, 10020, Note_on_c, 1, 73, 88
5, 10078, Note_off_c, 1, 73, 0
5, 10080, Note_on_c, 1, 72, 88
5, 10314, Note_off_c, 1, 72, 0
5, 10440, Note_on_c, 1, 72, 88
5, 10556, Note_off_c, 1, 72, 0
5, 10560, Note_on_c, 1, 73, 88
5, 10676, Note_off_c, 1, 73, 0
5, 10680, Note_on_c, 1, 77, 88
5, 10796, Note_off_c, 1, 77, 0
5, 10800, Note_on_c, 1, 70, 88
5, 10916, Note_off_c, 1, 70, 0
5, 10920, Note_on_c, 1, 75, 88
5, 11036, Note_off_c, 1, 75, 0
5, 11040, Note_on_c, 1, 68, 88
5, 11156, Note_off_c, 1, 68, 0
5, 11640, Note_on_c, 1, 77, 88
5, 11698, Note_off_c, 1, 77, 0
5, 11700, Note_on_c, 1, 75, 88
5, 11758, Note_off_c, 1, 75, 0
5, 11760, Note_on_c, 1, 73, 88
5, 11818, Note_off_c, 1, 73, 0
5, 11820, Note_on_c, 1, 72, 88
5, 11878, Note_off_c, 1, 72, 0
5, 11880, Note_on_c, 1, 70, 88
5, 11938, Note_off_c, 1, 70, 0
5, 11940, Note_on_c, 1, 68, 88
5, 11998, Note_off_c, 1, 68, 0
5, 12000, Note_on_c, 1, 67, 88
5, 12058, Note_off_c, 1, 67, 0
5, 12060, Note_on_c, 1, 68, 88
5, 12118, Note_off_c, 1, 68, 0
5, 12120, Note_on_c, 1, 65, 88
5, 12178, Note_off_c, 1, 65, 0
5, 12180, Note_on_c, 1, 67, 88
5, 12238, Note_off_c, 1, 67, 0
5, 12240, Note_on_c, 1, 68, 88
5, 12298, Note_off_c, 1, 68, 0
5, 12300, Note_on_c, 1, 67, 88
5, 12358, Note_off_c, 1, 67, 0
5, 12360, Note_on_c, 1, 68, 88
5, 12538, Note_off_c, 1, 68, 0
5, 12540, Note_on_c, 1, 67, 88
5, 12598, Note_off_c, 1, 67, 0
5, 12600, Note_on_c, 1, 68, 88
5, 12658, Note_off_c, 1, 68, 0
5, 12660, Note_on_c, 1, 70, 88
5, 12718, Note_off_c, 1, 70, 0
5, 12720, Note_on_c, 1, 67, 88
5, 12778, Note_off_c, 1, 67, 0
5, 12780, Note_on_c, 1, 65, 88
5, 12838, Note_off_c, 1, 65, 0
5, 12840, Note_on_c, 1, 66, 88
5, 13015, Note_off_c, 1, 66, 0
5, 13020, Note_on_c, 1, 65, 88
5, 13078, Note_off_c, 1, 65, 0
5, 13080, Note_on_c, 1, 66, 88
5, 13138, Note_off_c, 1, 66, 0
5, 13140, Note_on_c, 1, 68, 88
5, 13198, Note_off_c, 1, 68, 0
5, 13200, Note_on_c, 1, 65, 88
5, 13258, Note_off_c, 1, 65, 0
5, 13260, Note_on_c, 1, 63, 88
5, 13318, Note_off_c, 1, 63, 0
5, 13320, Note_on_c, 1, 65, 88
5, 13378, Note_off_c, 1, 65, 0
5, 13380, Note_on_c, 1, 68, 88
5, 13438, Note_off_c, 1, 68, 0
5, 13440, Note_on_c, 1, 67, 88
5, 13556, Note_off_c, 1, 67, 0
5, 13560, Note_on_c, 1, 68, 88
5, 13794, Note_off_c, 1, 68, 0
5, 13800, Note_on_c, 1, 67, 88
5, 14034, Note_off_c, 1, 67, 0
5, 14040, Note_on_c, 1, 64, 88
5, 14156, Note_off_c, 1, 64, 0
5, 14160, Note_on_c, 1, 65, 88
5, 14625, Note_off_c, 1, 65, 0
5, 14640, Note_on_c, 1, 65, 88
5, 14662, Note_off_c, 1, 65, 0
5, 14663, Note_on_c, 1, 64, 88
5, 14692, Note_off_c, 1, 64, 0
5, 14693, Note_on_c, 1, 65, 88
5, 14722, Note_off_c, 1, 65, 0
5, 14723, Note_on_c, 1, 64, 88
5, 14744, Note_off_c, 1, 64, 0
5, 14745, Note_on_c, 1, 65, 88
5, 14767, Note_off_c, 1, 65, 0
5, 14768, Note_on_c, 1, 64, 88
5, 14789, Note_off_c, 1, 64, 0
5, 14790, Note_on_c, 1, 65, 88
5, 14812, Note_off_c, 1, 65, 0
5, 14813, Note_on_c, 1, 64, 88
5, 14834, Note_off_c, 1, 64, 0
5, 14835, Note_on_c, 1, 62, 88
5, 14857, Note_off_c, 1, 62, 0
5, 14858, Note_on_c, 1, 64, 88
5, 14879, Note_off_c, 1, 64, 0
5, 14880, Note_on_c, 1, 65, 88
5, 14996, Note_off_c, 1, 65, 0
5, 15000, Note_on_c, 1, 68, 88
5, 15116, Note_off_c, 1, 68, 0
5, 15120, Note_on_c, 1, 67, 88
5, 15236, Note_off_c, 1, 67, 0
5, 15240, Note_on_c, 1, 72, 88
5, 15356, Note_off_c, 1, 72, 0
5, 15360, Note_on_c, 1, 65, 88
5, 15476, Note_off_c, 1, 65, 0
5, 15480, Note_on_c, 1, 67, 88
5, 15538, Note_off_c, 1, 67, 0
5, 15540, Note_on_c, 1, 68, 88
5, 15598, Note_off_c, 1, 68, 0
5, 15600, Note_on_c, 1, 70, 88
5, 15716, Note_off_c, 1, 70, 0
5, 15720, Note_on_c, 1, 58, 88
5, 15836, Note_off_c, 1, 58, 0
5, 15840, Note_on_c, 1, 63, 88
5, 15956, Note_off_c, 1, 63, 0
5, 15960, Note_on_c, 1, 65, 88
5, 16018, Note_off_c, 1, 65, 0
5, 16020, Note_on_c, 1, 67, 88
5, 16078, Note_off_c, 1, 67, 0
5, 16080, Note_on_c, 1, 68, 88
5, 16378, Note_off_c, 1, 68, 0
5, 16380, Note_on_c, 1, 70, 88
5, 16438, Note_off_c, 1, 70, 0
5, 16440, Note_on_c, 1, 67, 88
5, 16498, Note_off_c, 1, 67, 0
5, 16500, Note_on_c, 1, 68, 88
5, 16558, Note_off_c, 1, 68, 0
5, 16560, Note_on_c, 1, 65, 88
5, 16618, Note_off_c, 1, 65, 0
5, 16620, Note_on_c, 1, 67, 88
5, 16678, Note_off_c, 1, 67, 0
5, 16680, Note_on_c, 1, 68, 88
5, 16738, Note_off_c, 1, 68, 0
5, 16740, Note_on_c, 1, 70, 88
5, 16798, Note_off_c, 1, 70, 0
5, 16800, Note_on_c, 1, 67, 88
5, 17034, Note_off_c, 1, 67, 0
5, 17040, Note_on_c, 1, 68, 88
5, 17274, Note_off_c, 1, 68, 0
5, 17280, Note_on_c, 1, 67, 88
5, 17514, Note_off_c, 1, 67, 0
5, 17520, Note_on_c, 1, 66, 88
5, 17754, Note_off_c, 1, 66, 0
5, 17760, Note_on_c, 1, 65, 88
5, 17994, Note_off_c, 1, 65, 0
5, 18000, Note_on_c, 1, 64, 88
5, 18234, Note_off_c, 1, 64, 0
5, 18240, Note_on_c, 1, 63, 88
5, 18356, Note_off_c, 1, 63, 0
5, 18360, Note_on_c, 1, 68, 88
5, 18594, Note_off_c, 1, 68, 0
5, 18600, Note_on_c, 1, 66, 88
5, 18775, Note_off_c, 1, 66, 0
5, 18780, Note_on_c, 1, 68, 88
5, 18838, Note_off_c, 1, 68, 0
5, 18840, Note_on_c, 1, 65, 88
5, 18898, Note_off_c, 1, 65, 0
5, 18900, Note_on_c, 1, 66, 88
5, 18958, Note_off_c, 1, 66, 0
5, 18960, Note_on_c, 1, 63, 88
5, 19018, Note_off_c, 1, 63, 0
5, 19020, Note_on_c, 1, 65, 88
5, 19078, Note_off_c, 1, 65, 0
5, 19080, Note_on_c, 1, 66, 88
5, 19138, Note_off_c, 1, 66, 0
5, 19140, Note_on_c, 1, 68, 88
5, 19198, Note_off_c, 1, 68, 0
5, 19200, Note_on_c, 1, 65, 88
5, 19316, Note_off_c, 1, 65, 0
5, 19320, Note_on_c, 1, 70, 88
5, 19554, Note_off_c, 1, 70, 0
5, 19560, Note_on_c, 1, 68, 88
5, 19735, Note_off_c, 1, 68, 0
5, 19740, Note_on_c, 1, 70, 88
5, 19798, Note_off_c, 1, 70, 0
5, 19800, Note_on_c, 1, 67, 88
5, 19858, Note_off_c, 1, 67, 0
5, 19860, Note_on_c, 1, 68, 88
5, 19918, Note_off_c, 1, 68, 0
5, 19920, Note_on_c, 1, 65, 88
5, 19978, Note_off_c, 1, 65, 0
5, 19980, Note_on_c, 1, 67, 88
5, 20038, Note_off_c, 1, 67, 0
5, 20040, Note_on_c, 1, 68, 88
5, 20098, Note_off_c, 1, 68, 0
5, 20100, Note_on_c, 1, 70, 88
5, 20158, Note_off_c, 1, 70, 0
5, 20160, Note_on_c, 1, 67, 88
5, 20394, Note_off_c, 1, 67, 0
5, 20520, Note_on_c, 1, 65, 88
5, 20636, Note_off_c, 1, 65, 0
5, 20640, Note_on_c, 1, 67, 88
5, 20874, Note_off_c, 1, 67, 0
5, 21000, Note_on_c, 1, 68, 88
5, 21116, Note_off_c, 1, 68, 0
5, 21120, Note_on_c, 1, 68, 88
5, 21236, Note_off_c, 1, 68, 0
5, 21480, Note_on_c, 1, 70, 88
5, 21714, Note_off_c, 1, 70, 0
5, 21720, Note_on_c, 1, 68, 88
5, 21836, Note_off_c, 1, 68, 0
5, 21840, Note_on_c, 1, 65, 88
5, 21956, Note_off_c, 1, 65, 0
5, 21960, Note_on_c, 1, 63, 88
5, 22196, Note_off_c, 1, 63, 0
5, 22200, Note_on_c, 1, 72, 88
5, 22316, Note_off_c, 1, 72, 0
5, 22320, Note_on_c, 1, 68, 88
5, 22436, Note_off_c, 1, 68, 0
5, 22440, Note_on_c, 1, 73, 88
5, 22556, Note_off_c, 1, 73, 0
5, 22560, Note_on_c, 1, 67, 88
5, 22676, Note_off_c, 1, 67, 0
5, 22680, Note_on_c, 1, 68, 88
5, 22738, Note_off_c, 1, 68, 0
5, 22740, Note_on_c, 1, 70, 88
5, 22798, Note_off_c, 1, 70, 0
5, 22800, Note_on_c, 1, 72, 88
5, 22916, Note_off_c, 1, 72, 0
5, 22920, Note_on_c, 1, 60, 88
5, 23036, Note_off_c, 1, 60, 0
5, 23040, Note_on_c, 1, 65, 88
5, 23156, Note_off_c, 1, 65, 0
5, 23160, Note_on_c, 1, 67, 88
5, 23218, Note_off_c, 1, 67, 0
5, 23220, Note_on_c, 1, 68, 88
5, 23278, Note_off_c, 1, 68, 0
5, 23280, Note_on_c, 1, 70, 88
5, 23574, Note_off_c, 1, 70, 0
5, 23580, Note_on_c, 1, 72, 88
5, 23638, Note_off_c, 1, 72, 0
5, 23640, Note_on_c, 1, 68, 88
5, 23698, Note_off_c, 1, 68, 0
5, 23700, Note_on_c, 1, 70, 88
5, 23758, Note_off_c, 1, 70, 0
5, 23760, Note_on_c, 1, 67, 88
5, 23818, Note_off_c, 1, 67, 0
5, 23820, Note_on_c, 1, 68, 88
5, 23878, Note_off_c, 1, 68, 0
5, 23880, Note_on_c, 1, 70, 88
5, 23938, Note_off_c, 1, 70, 0
5, 23940, Note_on_c, 1, 72, 88
5, 23998, Note_off_c, 1, 72, 0
5, 24000, Note_on_c, 1, 68, 88
5, 24058, Note_off_c, 1, 68, 0
5, 24060, Note_on_c, 1, 70, 88
5, 24118, Note_off_c, 1, 70, 0
5, 24120, Note_on_c, 1, 67, 88
5, 24178, Note_off_c, 1, 67, 0
5, 24180, Note_on_c, 1, 68, 88
5, 24238, Note_off_c, 1, 68, 0
5, 24240, Note_on_c, 1, 65, 88
5, 24298, Note_off_c, 1, 65, 0
5, 24300, Note_on_c, 1, 67, 88
5, 24358, Note_off_c, 1, 67, 0
5, 24360, Note_on_c, 1, 68, 88
5, 24418, Note_off_c, 1, 68, 0
5, 24420, Note_on_c, 1, 70, 88
5, 24478, Note_off_c, 1, 70, 0
5, 24480, Note_on_c, 1, 67, 88
5, 24538, Note_off_c, 1, 67, 0
5, 24540, Note_on_c, 1, 68, 88
5, 24598, Note_off_c, 1, 68, 0
5, 24600, Note_on_c, 1, 65, 88
5, 24658, Note_off_c, 1, 65, 0
5, 24660, Note_on_c, 1, 67, 88
5, 24718, Note_off_c, 1, 67, 0
5, 24720, Note_on_c, 1, 63, 88
5, 24778, Note_off_c, 1, 63, 0
5, 24780, Note_on_c, 1, 65, 88
5, 24838, Note_off_c, 1, 65, 0
5, 24840, Note_on_c, 1, 67, 88
5, 24898, Note_off_c, 1, 67, 0
5, 24900, Note_on_c, 1, 68, 88
5, 24958, Note_off_c, 1, 68, 0
5, 24960, Note_on_c, 1, 65, 88
5, 25018, Note_off_c, 1, 65, 0
5, 25020, Note_on_c, 1, 67, 88
5, 25078, Note_off_c, 1, 67, 0
5, 25080, Note_on_c, 1, 63, 88
5, 25138, Note_off_c, 1, 63, 0
5, 25140, Note_on_c, 1, 65, 88
5, 25198, Note_off_c, 1, 65, 0
5, 25200, Note_on_c, 1, 62, 88
5, 25258, Note_off_c, 1, 62, 0
5, 25260, Note_on_c, 1, 63, 88
5, 25318, Note_off_c, 1, 63, 0
5, 25320, Note_on_c, 1, 65, 88
5, 25378, Note_off_c, 1, 65, 0
5, 25380, Note_on_c, 1, 67, 88
5, 25438, Note_off_c, 1, 67, 0
5, 25440, Note_on_c, 1, 63, 88
5, 25674, Note_off_c, 1, 63, 0
5, 25800, Note_on_c, 1, 63, 88
5, 25916, Note_off_c, 1, 63, 0
5, 25920, Note_on_c, 1, 65, 88
5, 26036, Note_off_c, 1, 65, 0
5, 26040, Note_on_c, 1, 68, 88
5, 26156, Note_off_c, 1, 68, 0
5, 26160, Note_on_c, 1, 62, 88
5, 26276, Note_off_c, 1, 62, 0
5, 26280, Note_on_c, 1, 67, 88
5, 26396, Note_off_c, 1, 67, 0
5, 26400, Note_on_c, 1, 60, 88
5, 26516, Note_off_c, 1, 60, 0
5, 26940, Note_on_c, 1, 64, 88
5, 26998, Note_off_c, 1, 64, 0
5, 27000, Note_on_c, 1, 65, 88
5, 27058, Note_off_c, 1, 65, 0
5, 27060, Note_on_c, 1, 67, 88
5, 27118, Note_off_c, 1, 67, 0
5, 27120, Note_on_c, 1, 68, 88
5, 27178, Note_off_c, 1, 68, 0
5, 27180, Note_on_c, 1, 67, 88
5, 27238, Note_off_c, 1, 67, 0
5, 27240, Note_on_c, 1, 65, 88
5, 27298, Note_off_c, 1, 65, 0
5, 27300, Note_on_c, 1, 68, 88
5, 27358, Note_off_c, 1, 68, 0
5, 27360, Note_on_c, 1, 67, 88
5, 27418, Note_off_c, 1, 67, 0
5, 27420, Note_on_c, 1, 65, 88
5, 27478, Note_off_c, 1, 65, 0
5, 27480, Note_on_c, 1, 67, 88
5, 27538, Note_off_c, 1, 67, 0
5, 27540, Note_on_c, 1, 68, 88
5, 27598, Note_off_c, 1, 68, 0
5, 27600, Note_on_c, 1, 70, 88
5, 27658, Note_off_c, 1, 70, 0
5, 27660, Note_on_c, 1, 68, 88
5, 27718, Note_off_c, 1, 68, 0
5, 27720, Note_on_c, 1, 67, 88
5, 27778, Note_off_c, 1, 67, 0
5, 27780, Note_on_c, 1, 70, 88
5, 27838, Note_off_c, 1, 70, 0
5, 27840, Note_on_c, 1, 69, 88
5, 27898, Note_off_c, 1, 69, 0
5, 27900, Note_on_c, 1, 67, 88
5, 27958, Note_off_c, 1, 67, 0
5, 27960, Note_on_c, 1, 69, 88
5, 28018, Note_off_c, 1, 69, 0
5, 28020, Note_on_c, 1, 70, 88
5, 28078, Note_off_c, 1, 70, 0
5, 28080, Note_on_c, 1, 72, 88
5, 28138, Note_off_c, 1, 72, 0
5, 28140, Note_on_c, 1, 70, 88
5, 28198, Note_off_c, 1, 70, 0
5, 28200, Note_on_c, 1, 69, 88
5, 28258, Note_off_c, 1, 69, 0
5, 28260, Note_on_c, 1, 72, 88
5, 28318, Note_off_c, 1, 72, 0
5, 28320, Note_on_c, 1, 70, 88
5, 28436, Note_off_c, 1, 70, 0
5, 28440, Note_on_c, 1, 65, 88
5, 28556, Note_off_c, 1, 65, 0
5, 28560, Note_on_c, 1, 70, 88
5, 29034, Note_off_c, 1, 70, 0
5, 29040, Note_on_c, 1, 69, 88
5, 29156, Note_off_c, 1, 69, 0
5, 29160, Note_on_c, 1, 68, 88
5, 29394, Note_off_c, 1, 68, 0
5, 29400, Note_on_c, 1, 77, 88
5, 29458, Note_off_c, 1, 77, 0
5, 29460, Note_on_c, 1, 75, 88
5, 29518, Note_off_c, 1, 75, 0
5, 29520, Note_on_c, 1, 74, 88
5, 29578, Note_off_c, 1, 74, 0
5, 29580, Note_on_c, 1, 72, 88
5, 29638, Note_off_c, 1, 72, 0
5, 29640, Note_on_c, 1, 70, 88
5, 29698, Note_off_c, 1, 70, 0
5, 29700, Note_on_c, 1, 68, 88
5, 29758, Note_off_c, 1, 68, 0
5, 29760, Note_on_c, 1, 66, 88
5, 29818, Note_off_c, 1, 66, 0
5, 29820, Note_on_c, 1, 68, 88
5, 29878, Note_off_c, 1, 68, 0
5, 29880, Note_on_c, 1, 66, 88
5, 29938, Note_off_c, 1, 66, 0
5, 29940, Note_on_c, 1, 65, 88
5, 29998, Note_off_c, 1, 65, 0
5, 30000, Note_on_c, 1, 63, 88
5, 30058, Note_off_c, 1, 63, 0
5, 30060, Note_on_c, 1, 65, 88
5, 30118, Note_off_c, 1, 65, 0
5, 30120, Note_on_c, 1, 66, 88
5, 30178, Note_off_c, 1, 66, 0
5, 30180, Note_on_c, 1, 63, 88
5, 30238, Note_off_c, 1, 63, 0
5, 30240, Note_on_c, 1, 65, 88
5, 30298, Note_off_c, 1, 65, 0
5, 30300, Note_on_c, 1, 66, 88
5, 30358, Note_off_c, 1, 66, 0
5, 30360, Note_on_c, 1, 65, 88
5, 30418, Note_off_c, 1, 65, 0
5, 30420, Note_on_c, 1, 63, 88
5, 30478, Note_off_c, 1, 63, 0
5, 30480, Note_on_c, 1, 62, 88
5, 30538, Note_off_c, 1, 62, 0
5, 30540, Note_on_c, 1, 63, 88
5, 30598, Note_off_c, 1, 63, 0
5, 30600, Note_on_c, 1, 65, 88
5, 30658, Note_off_c, 1, 65, 0
5, 30660, Note_on_c, 1, 62, 88
5, 30718, Note_off_c, 1, 62, 0
5, 30720, Note_on_c, 1, 63, 88
5, 30778, Note_off_c, 1, 63, 0
5, 30780, Note_on_c, 1, 65, 88
5, 30838, Note_off_c, 1, 65, 0
5, 30840, Note_on_c, 1, 63, 88
5, 30898, Note_off_c, 1, 63, 0
5, 30900, Note_on_c, 1, 61, 88
5, 30958, Note_off_c, 1, 61, 0
5, 30960, Note_on_c, 1, 60, 88
5, 31018, Note_off_c, 1, 60, 0
5, 31020, Note_on_c, 1, 62, 88
5, 31078, Note_off_c, 1, 62, 0
5, 31080, Note_on_c, 1, 63, 88
5, 31138, Note_off_c, 1, 63, 0
5, 31140, Note_on_c, 1, 60, 88
5, 31198, Note_off_c, 1, 60, 0
5, 31200, Note_on_c, 1, 62, 88
5, 31316, Note_off_c, 1, 62, 0
5, 31320, Note_on_c, 1, 63, 88
5, 31554, Note_off_c, 1, 63, 0
5, 31560, Note_on_c, 1, 62, 88
5, 31676, Note_off_c, 1, 62, 0
5, 31680, Note_on_c, 1, 63, 88
5, 31796, Note_off_c, 1, 63, 0
5, 31800, Note_on_c, 1, 68, 88
5, 31916, Note_off_c, 1, 68, 0
5, 31920, Note_on_c, 1, 66, 88
5, 32036, Note_off_c, 1, 66, 0
5, 32040, Note_on_c, 1, 72, 88
5, 32156, Note_off_c, 1, 72, 0
5, 32160, Note_on_c, 1, 65, 88
5, 32276, Note_off_c, 1, 65, 0
5, 32880, Note_on_c, 1, 70, 88
5, 33114, Note_off_c, 1, 70, 0
5, 33120, Note_on_c, 1, 69, 88
5, 33354, Note_off_c, 1, 69, 0
5, 33360, Note_on_c, 1, 68, 88
5, 33594, Note_off_c, 1, 68, 0
5, 33600, Note_on_c, 1, 67, 88
5, 33834, Note_off_c, 1, 67, 0
5, 33840, Note_on_c, 1, 66, 88
5, 34074, Note_off_c, 1, 66, 0
5, 34080, Note_on_c, 1, 65, 88
5, 34196, Note_off_c, 1, 65, 0
5, 34200, Note_on_c, 1, 70, 88
5, 34434, Note_off_c, 1, 70, 0
5, 34440, Note_on_c, 1, 68, 88
5, 34556, Note_off_c, 1, 68, 0
5, 34560, Note_on_c, 1, 66, 88
5, 34913, Note_off_c, 1, 66, 0
5, 34920, Note_on_c, 1, 63, 88
5, 35036, Note_off_c, 1, 63, 0
5, 35040, Note_on_c, 1, 68, 88
5, 35098, Note_off_c, 1, 68, 0
5, 35100, Note_on_c, 1, 66, 88
5, 35158, Note_off_c, 1, 66, 0
5, 35160, Note_on_c, 1, 65, 88
5, 35218, Note_off_c, 1, 65, 0
5, 35220, Note_on_c, 1, 68, 88
5, 35278, Note_off_c, 1, 68, 0
5, 35280, Note_on_c, 1, 66, 88
5, 35338, Note_off_c, 1, 66, 0
5, 35340, Note_on_c, 1, 68, 88
5, 35398, Note_off_c, 1, 68, 0
5, 35400, Note_on_c, 1, 66, 88
5, 35458, Note_off_c, 1, 66, 0
5, 35460, Note_on_c, 1, 65, 88
5, 35518, Note_off_c, 1, 65, 0
5, 35520, Note_on_c, 1, 63, 88
5, 35578, Note_off_c, 1, 63, 0
5, 35580, Note_on_c, 1, 65, 88
5, 35638, Note_off_c, 1, 65, 0
5, 35640, Note_on_c, 1, 66, 88
5, 35698, Note_off_c, 1, 66, 0
5, 35700, Note_on_c, 1, 63, 88
5, 35758, Note_off_c, 1, 63, 0
5, 35760, Note_on_c, 1, 65, 88
5, 35818, Note_off_c, 1, 65, 0
5, 35820, Note_on_c, 1, 66, 88
5, 35878, Note_off_c, 1, 66, 0
5, 35880, Note_on_c, 1, 65, 88
5, 35938, Note_off_c, 1, 65, 0
5, 35940, Note_on_c, 1, 63, 88
5, 35998, Note_off_c, 1, 63, 0
5, 36000, Note_on_c, 1, 61, 88
5, 36058, Note_off_c, 1, 61, 0
5, 36060, Note_on_c, 1, 63, 88
5, 36118, Note_off_c, 1, 63, 0
5, 36120, Note_on_c, 1, 65, 88
5, 36178, Note_off_c, 1, 65, 0
5, 36180, Note_on_c, 1, 61, 88
5, 36238, Note_off_c, 1, 61, 0
5, 36240, Note_on_c, 1, 63, 88
5, 36298, Note_off_c, 1, 63, 0
5, 36300, Note_on_c, 1, 64, 88
5, 36358, Note_off_c, 1, 64, 0
5, 36360, Note_on_c, 1, 63, 88
5, 36418, Note_off_c, 1, 63, 0
5, 36420, Note_on_c, 1, 61, 88
5, 36478, Note_off_c, 1, 61, 0
5, 36480, Note_on_c, 1, 60, 88
5, 36714, Note_off_c, 1, 60, 0
5, 36720, Note_on_c, 1, 64, 88
5, 37073, Note_off_c, 1, 64, 0
5, 37080, Note_on_c, 1, 63, 88
5, 37305, Note_off_c, 1, 63, 0
5, 37320, Note_on_c, 1, 63, 88
5, 37436, Note_off_c, 1, 63, 0
5, 37440, Note_on_c, 1, 68, 88
5, 37556, Note_off_c, 1, 68, 0
5, 37560, Note_on_c, 1, 65, 88
5, 37676, Note_off_c, 1, 65, 0
5, 37680, Note_on_c, 1, 66, 88
5, 37796, Note_off_c, 1, 66, 0
5, 37800, Note_on_c, 1, 67, 88
5, 37916, Note_off_c, 1, 67, 0
5, 37920, Note_on_c, 1, 68, 88
5, 37978, Note_off_c, 1, 68, 0
5, 37980, Note_on_c, 1, 70, 88
5, 38038, Note_off_c, 1, 70, 0
5, 38040, Note_on_c, 1, 66, 88
5, 38098, Note_off_c, 1, 66, 0
5, 38100, Note_on_c, 1, 68, 88
5, 38158, Note_off_c, 1, 68, 0
5, 38160, Note_on_c, 1, 65, 88
5, 38218, Note_off_c, 1, 65, 0
5, 38220, Note_on_c, 1, 67, 88
5, 38278, Note_off_c, 1, 67, 0
5, 38280, Note_on_c, 1, 68, 88
5, 38338, Note_off_c, 1, 68, 0
5, 38340, Note_on_c, 1, 70, 88
5, 38398, Note_off_c, 1, 70, 0
5, 38400, Note_on_c, 1, 67, 88
5, 38634, Note_off_c, 1, 67, 0
5, 38700, Note_on_c, 1, 75, 88
5, 38758, Note_off_c, 1, 75, 0
5, 38760, Note_on_c, 1, 74, 88
5, 38818, Note_off_c, 1, 74, 0
5, 38820, Note_on_c, 1, 72, 88
5, 38878, Note_off_c, 1, 72, 0
5, 38880, Note_on_c, 1, 74, 88
5, 38996, Note_off_c, 1, 74, 0
5, 39000, Note_on_c, 1, 70, 88
5, 39175, Note_off_c, 1, 70, 0
5, 39180, Note_on_c, 1, 73, 88
5, 39238, Note_off_c, 1, 73, 0
5, 39240, Note_on_c, 1, 72, 88
5, 39298, Note_off_c, 1, 72, 0
5, 39300, Note_on_c, 1, 70, 88
5, 39358, Note_off_c, 1, 70, 0
5, 39360, Note_on_c, 1, 72, 88
5, 39476, Note_off_c, 1, 72, 0
5, 39480, Note_on_c, 1, 68, 88
5, 39655, Note_off_c, 1, 68, 0
5, 39660, Note_on_c, 1, 71, 88
5, 39718, Note_off_c, 1, 71, 0
5, 39720, Note_on_c, 1, 70, 88
5, 39778, Note_off_c, 1, 70, 0
5, 39780, Note_on_c, 1, 68, 88
5, 39838, Note_off_c, 1, 68, 0
5, 39840, Note_on_c, 1, 67, 88
5, 39956, Note_off_c, 1, 67, 0
5, 39960, Note_on_c, 1, 68, 88
5, 40076, Note_off_c, 1, 68, 0
5, 40080, Note_on_c, 1, 70, 88
5, 40196, Note_off_c, 1, 70, 0
5, 40200, Note_on_c, 1, 67, 88
5, 40316, Note_off_c, 1, 67, 0
5, 40320, Note_on_c, 1, 68, 88
5, 40436, Note_off_c, 1, 68, 0
5, 40440, Note_on_c, 1, 65, 88
5, 40615, Note_off_c, 1, 65, 0
5, 40620, Note_on_c, 1, 68, 88
5, 40678, Note_off_c, 1, 68, 0
5, 40680, Note_on_c, 1, 67, 88
5, 40738, Note_off_c, 1, 67, 0
5, 40740, Note_on_c, 1, 65, 88
5, 40798, Note_off_c, 1, 65, 0
5, 40800, Note_on_c, 1, 67, 88
5, 40916, Note_off_c, 1, 67, 0
5, 40920, Note_on_c, 1, 63, 88
5, 41095, Note_off_c, 1, 63, 0
5, 41100, Note_on_c, 1, 70, 88
5, 41158, Note_off_c, 1, 70, 0
5, 41160, Note_on_c, 1, 68, 88
5, 41218, Note_off_c, 1, 68, 0
5, 41220, Note_on_c, 1, 66, 88
5, 41278, Note_off_c, 1, 66, 0
5, 41280, Note_on_c, 1, 65, 88
5, 41396, Note_off_c, 1, 65, 0
5, 41400, Note_on_c, 1, 69, 88
5, 41516, Note_off_c, 1, 69, 0
5, 41520, Note_on_c, 1, 68, 88
5, 41636, Note_off_c, 1, 68, 0
5, 41640, Note_on_c, 1, 64, 88
5, 41756, Note_off_c, 1, 64, 0
5, 41760, Note_on_c, 1, 69, 88
5, 41876, Note_off_c, 1, 69, 0
5, 41880, Note_on_c, 1, 68, 88
5, 41996, Note_off_c, 1, 68, 0
5, 42000, Note_on_c, 1, 69, 88
5, 42116, Note_off_c, 1, 69, 0
5, 42120, Note_on_c, 1, 68, 88
5, 42236, Note_off_c, 1, 68, 0
5, 42240, Note_on_c, 1, 69, 88
5, 42474, Note_off_c, 1, 69, 0
5, 42720, Note_on_c, 1, 73, 88
5, 42954, Note_off_c, 1, 73, 0
5, 43200, Note_on_c, 1, 76, 88
5, 43434, Note_off_c, 1, 76, 0
5, 43680, Note_on_c, 1, 73, 88
5, 43680, Note_on_c, 1, 75, 88
5, 43914, Note_off_c, 1, 73, 0
5, 43914, Note_off_c, 1, 75, 0
5, 45000, Note_on_c, 1, 58, 88
5, 45116, Note_off_c, 1, 58, 0
5, 45120, Note_on_c, 1, 60, 88
5, 45236, Note_off_c, 1, 60, 0
5, 45240, Note_on_c, 1, 59, 88
5, 45356, Note_off_c, 1, 59, 0
5, 45360, Note_on_c, 1, 58, 88
5, 45476, Note_off_c, 1, 58, 0
5, 45480, Note_on_c, 1, 61, 88
5, 45596, Note_off_c, 1, 61, 0
5, 45600, Note_on_c, 1, 60, 88
5, 45658, Note_off_c, 1, 60, 0
5, 45660, Note_on_c, 1, 65, 88
5, 45894, Note_off_c, 1, 65, 0
5, 45900, Note_on_c, 1, 63, 88
5, 45958, Note_off_c, 1, 63, 0
5, 45960, Note_on_c, 1, 68, 88
5, 46076, Note_off_c, 1, 68, 0
5, 46080, Note_on_c, 1, 70, 88
5, 46314, Note_off_c, 1, 70, 0
5, 46320, Note_on_c, 1, 69, 88
5, 46554, Note_off_c, 1, 69, 0
5, 46560, Note_on_c, 1, 68, 88
5, 46794, Note_off_c, 1, 68, 0
5, 46920, Note_on_c, 1, 56, 88
5, 47036, Note_off_c, 1, 56, 0
5, 47040, Note_on_c, 1, 63, 88
5, 47505, Note_off_c, 1, 63, 0
5, 47520, Note_on_c, 1, 63, 88
5, 47990, Note_off_c, 1, 63, 0
5, 47990, End_track
6, 0, Start_track
6, 0, Title_t, "Track 3"
6, 0, Program_c, 2, 6
6, 4920, Note_on_c, 2, 63, 88
6, 5036, Note_off_c, 2, 63, 0
6, 5040, Note_on_c, 2, 60, 88
6, 5156, Note_off_c, 2, 60, 0
6, 5160, Note_on_c, 2, 65, 88
6, 5276, Note_off_c, 2, 65, 0
6, 5280, Note_on_c, 2, 58, 88
6, 5396, Note_off_c, 2, 58, 0
6, 5400, Note_on_c, 2, 60, 88
6, 5458, Note_off_c, 2, 60, 0
6, 5460, Note_on_c, 2, 61, 88
6, 5518, Note_off_c, 2, 61, 0
6, 5520, Note_on_c, 2, 63, 88
6, 5636, Note_off_c, 2, 63, 0
6, 5640, Note_on_c, 2, 51, 88
6, 5756, Note_off_c, 2, 51, 0
6, 5760, Note_on_c, 2, 56, 88
6, 5876, Note_off_c, 2, 56, 0
6, 5880, Note_on_c, 2, 58, 88
6, 5938, Note_off_c, 2, 58, 0
6, 5940, Note_on_c, 2, 60, 88
6, 5998, Note_off_c, 2, 60, 0
6, 6000, Note_on_c, 2, 61, 88
6, 6294, Note_off_c, 2, 61, 0
6, 6300, Note_on_c, 2, 63, 88
6, 6358, Note_off_c, 2, 63, 0
6, 6360, Note_on_c, 2, 60, 88
6, 6418, Note_off_c, 2, 60, 0
6, 6420, Note_on_c, 2, 61, 88
6, 6478, Note_off_c, 2, 61, 0
6, 6480, Note_on_c, 2, 58, 88
6, 6538, Note_off_c, 2, 58, 0
6, 6540, Note_on_c, 2, 60, 88
6, 6598, Note_off_c, 2, 60, 0
6, 6600, Note_on_c, 2, 61, 88
6, 6658, Note_off_c, 2, 61, 0
6, 6660, Note_on_c, 2, 63, 88
6, 6718, Note_off_c, 2, 63, 0
6, 6720, Note_on_c, 2, 60, 88
6, 6778, Note_off_c, 2, 60, 0
6, 6780, Note_on_c, 2, 58, 88
6, 6838, Note_off_c, 2, 58, 0
6, 6840, Note_on_c, 2, 60, 88
6, 6898, Note_off_c, 2, 60, 0
6, 6900, Note_on_c, 2, 61, 88
6, 6958, Note_off_c, 2, 61, 0
6, 6960, Note_on_c, 2, 63, 88
6, 7194, Note_off_c, 2, 63, 0
6, 7200, Note_on_c, 2, 62, 88
6, 7434, Note_off_c, 2, 62, 0
6, 7440, Note_on_c, 2, 61, 88
6, 7674, Note_off_c, 2, 61, 0
6, 7680, Note_on_c, 2, 60, 88
6, 7914, Note_off_c, 2, 60, 0
6, 7920, Note_on_c, 2, 59, 88
6, 8154, Note_off_c, 2, 59, 0
6, 8160, Note_on_c, 2, 58, 88
6, 8276, Note_off_c, 2, 58, 0
6, 8280, Note_on_c, 2, 63, 88
6, 8514, Note_off_c, 2, 63, 0
6, 8520, Note_on_c, 2, 62, 88
6, 8636, Note_off_c, 2, 62, 0
6, 8640, Note_on_c, 2, 63, 88
6, 8874, Note_off_c, 2, 63, 0
6, 9000, Note_on_c, 2, 67, 88
6, 9116, Note_off_c, 2, 67, 0
6, 9120, Note_on_c, 2, 68, 88
6, 9236, Note_off_c, 2, 68, 0
6, 9240, Note_on_c, 2, 72, 88
6, 9356, Note_off_c, 2, 72, 0
6, 9360, Note_on_c, 2, 65, 88
6, 9476, Note_off_c, 2, 65, 0
6, 9480, Note_on_c, 2, 70, 88
6, 9596, Note_off_c, 2, 70, 0
6, 9600, Note_on_c, 2, 63, 88
6, 9716, Note_off_c, 2, 63, 0
6, 10200, Note_on_c, 2, 63, 88
6, 10316, Note_off_c, 2, 63, 0
6, 10320, Note_on_c, 2, 68, 88
6, 10794, Note_off_c, 2, 68, 0
6, 10800, Note_on_c, 2, 67, 88
6, 10916, Note_off_c, 2, 67, 0
6, 10920, Note_on_c, 2, 66, 88
6, 11154, Note_off_c, 2, 66, 0
6, 11160, Note_on_c, 2, 75, 88
6, 11218, Note_off_c, 2, 75, 0
6, 11220, Note_on_c, 2, 73, 88
6, 11278, Note_off_c, 2, 73, 0
6, 11280, Note_on_c, 2, 72, 88
6, 11338, Note_off_c, 2, 72, 0
6, 11340, Note_on_c, 2, 70, 88
6, 11398, Note_off_c, 2, 70, 0
6, 11400, Note_on_c, 2, 68, 88
6, 11458, Note_off_c, 2, 68, 0
6, 11460, Note_on_c, 2, 66, 88
6, 11518, Note_off_c, 2, 66, 0
6, 11520, Note_on_c, 2, 65, 88
6, 11636, Note_off_c, 2, 65, 0
6, 12240, Note_on_c, 2, 63, 88
6, 12474, Note_off_c, 2, 63, 0
6, 12480, Note_on_c, 2, 62, 88
6, 12714, Note_off_c, 2, 62, 0
6, 12720, Note_on_c, 2, 61, 88
6, 12954, Note_off_c, 2, 61, 0
6, 12960, Note_on_c, 2, 60, 88
6, 13194, Note_off_c, 2, 60, 0
6, 13200, Note_on_c, 2, 59, 88
6, 13434, Note_off_c, 2, 59, 0
6, 13440, Note_on_c, 2, 58, 88
6, 13556, Note_off_c, 2, 58, 0
6, 13560, Note_on_c, 2, 63, 88
6, 13676, Note_off_c, 2, 63, 0
6, 13680, Note_on_c, 2, 61, 88
6, 13796, Note_off_c, 2, 61, 0
6, 13800, Note_on_c, 2, 58, 88
6, 13916, Note_off_c, 2, 58, 0
6, 13920, Note_on_c, 2, 60, 88
6, 13978, Note_off_c, 2, 60, 0
6, 13980, Note_on_c, 2, 61, 88
6, 14038, Note_off_c, 2, 61, 0
6, 14040, Note_on_c, 2, 58, 88
6, 14098, Note_off_c, 2, 58, 0
6, 14100, Note_on_c, 2, 60, 88
6, 14158, Note_off_c, 2, 60, 0
6, 14160, Note_on_c, 2, 56, 88
6, 14218, Note_off_c, 2, 56, 0
6, 14220, Note_on_c, 2, 58, 88
6, 14278, Note_off_c, 2, 58, 0
6, 14280, Note_on_c, 2, 60, 88
6, 14338, Note_off_c, 2, 60, 0
6, 14340, Note_on_c, 2, 61, 88
6, 14398, Note_off_c, 2, 61, 0
6, 14400, Note_on_c, 2, 55, 88
6, 14870, Note_off_c, 2, 55, 0
6, 14880, Note_on_c, 2, 56, 88
6, 14996, Note_off_c, 2, 56, 0
6, 16920, Note_on_c, 2, 63, 88
6, 17036, Note_off_c, 2, 63, 0
6, 17040, Note_on_c, 2, 60, 88
6, 17156, Note_off_c, 2, 60, 0
6, 17160, Note_on_c, 2, 65, 88
6, 17276, Note_off_c, 2, 65, 0
6, 17280, Note_on_c, 2, 58, 88
6, 17396, Note_off_c, 2, 58, 0
6, 17400, Note_on_c, 2, 60, 88
6, 17458, Note_off_c, 2, 60, 0
6, 17460, Note_on_c, 2, 61, 88
6, 17518, Note_off_c, 2, 61, 0
6, 17520, Note_on_c, 2, 63, 88
6, 17636, Note_off_c, 2, 63, 0
6, 17640, Note_on_c, 2, 51, 88
6, 17756, Note_off_c, 2, 51, 0
6, 17760, Note_on_c, 2, 56, 88
6, 17876, Note_off_c, 2, 56, 0
6, 17880, Note_on_c, 2, 58, 88
6, 17938, Note_off_c, 2, 58, 0
6, 17940, Note_on_c, 2, 60, 88
6, 17998, Note_off_c, 2, 60, 0
6, 18000, Note_on_c, 2, 61, 88
6, 18298, Note_off_c, 2, 61, 0
6, 18300, Note_on_c, 2, 63, 88
6, 18358, Note_off_c, 2, 63, 0
6, 18360, Note_on_c, 2, 60, 88
6, 18418, Note_off_c, 2, 60, 0
6, 18420, Note_on_c, 2, 61, 88
6, 18478, Note_off_c, 2, 61, 0
6, 18480, Note_on_c, 2, 58, 88
6, 18538, Note_off_c, 2, 58, 0
6, 18540, Note_on_c, 2, 60, 88
6, 18598, Note_off_c, 2, 60, 0
6, 18600, Note_on_c, 2, 61, 88
6, 18658, Note_off_c, 2, 61, 0
6, 18660, Note_on_c, 2, 63, 88
6, 18718, Note_off_c, 2, 63, 0
6, 18720, Note_on_c, 2, 60, 88
6, 18836, Note_off_c, 2, 60, 0
6, 18840, Note_on_c, 2, 61, 88
6, 19074, Note_off_c, 2, 61, 0
6, 19080, Note_on_c, 2, 60, 88
6, 19258, Note_off_c, 2, 60, 0
6, 19260, Note_on_c, 2, 63, 88
6, 19318, Note_off_c, 2, 63, 0
6, 19320, Note_on_c, 2, 61, 88
6, 19378, Note_off_c, 2, 61, 0
6, 19380, Note_on_c, 2, 63, 88
6, 19438, Note_off_c, 2, 63, 0
6, 19440, Note_on_c, 2, 60, 88
6, 19498, Note_off_c, 2, 60, 0
6, 19500, Note_on_c, 2, 61, 88
6, 19558, Note_off_c, 2, 61, 0
6, 19560, Note_on_c, 2, 63, 88
6, 19618, Note_off_c, 2, 63, 0
6, 19620, Note_on_c, 2, 65, 88
6, 19678, Note_off_c, 2, 65, 0
6, 19680, Note_on_c, 2, 62, 88
6, 19796, Note_off_c, 2, 62, 0
6, 19800, Note_on_c, 2, 63, 88
6, 20034, Note_off_c, 2, 63, 0
6, 20040, Note_on_c, 2, 61, 88
6, 20205, Note_off_c, 2, 61, 0
6, 20220, Note_on_c, 2, 61, 88
6, 20278, Note_off_c, 2, 61, 0
6, 20280, Note_on_c, 2, 60, 88
6, 20338, Note_off_c, 2, 60, 0
6, 20340, Note_on_c, 2, 58, 88
6, 20398, Note_off_c, 2, 58, 0
6, 20400, Note_on_c, 2, 56, 88
6, 20458, Note_off_c, 2, 56, 0
6, 20460, Note_on_c, 2, 58, 88
6, 20518, Note_off_c, 2, 58, 0
6, 20520, Note_on_c, 2, 60, 88
6, 20578, Note_off_c, 2, 60, 0
6, 20580, Note_on_c, 2, 62, 88
6, 20638, Note_off_c, 2, 62, 0
6, 20640, Note_on_c, 2, 63, 88
6, 20698, Note_off_c, 2, 63, 0
6, 20700, Note_on_c, 2, 65, 88
6, 20758, Note_off_c, 2, 65, 0
6, 20760, Note_on_c, 2, 63, 88
6, 20818, Note_off_c, 2, 63, 0
6, 20820, Note_on_c, 2, 61, 88
6, 20878, Note_off_c, 2, 61, 0
6, 20880, Note_on_c, 2, 60, 88
6, 20938, Note_off_c, 2, 60, 0
6, 20940, Note_on_c, 2, 63, 88
6, 20998, Note_off_c, 2, 63, 0
6, 21000, Note_on_c, 2, 61, 88
6, 21058, Note_off_c, 2, 61, 0
6, 21060, Note_on_c, 2, 60, 88
6, 21118, Note_off_c, 2, 60, 0
6, 21120, Note_on_c, 2, 61, 88
6, 21178, Note_off_c, 2, 61, 0
6, 21180, Note_on_c, 2, 63, 88
6, 21238, Note_off_c, 2, 63, 0
6, 21240, Note_on_c, 2, 61, 88
6, 21298, Note_off_c, 2, 61, 0
6, 21300, Note_on_c, 2, 60, 88
6, 21358, Note_off_c, 2, 60, 0
6, 21360, Note_on_c, 2, 58, 88
6, 21418, Note_off_c, 2, 58, 0
6, 21420, Note_on_c, 2, 59, 88
6, 21478, Note_off_c, 2, 59, 0
6, 21480, Note_on_c, 2, 56, 88
6, 21538, Note_off_c, 2, 56, 0
6, 21540, Note_on_c, 2, 58, 88
6, 21598, Note_off_c, 2, 58, 0
6, 21600, Note_on_c, 2, 55, 88
6, 21716, Note_off_c, 2, 55, 0
6, 21720, Note_on_c, 2, 56, 88
6, 21954, Note_off_c, 2, 56, 0
6, 21960, Note_on_c, 2, 55, 88
6, 22196, Note_off_c, 2, 55, 0
6, 22380, Note_on_c, 2, 53, 88
6, 22438, Note_off_c, 2, 53, 0
6, 22440, Note_on_c, 2, 55, 88
6, 22498, Note_off_c, 2, 55, 0
6, 22500, Note_on_c, 2, 56, 88
6, 22558, Note_off_c, 2, 56, 0
6, 22560, Note_on_c, 2, 58, 88
6, 22676, Note_off_c, 2, 58, 0
6, 29880, Note_on_c, 2, 58, 88
6, 29996, Note_off_c, 2, 58, 0
6, 30000, Note_on_c, 2, 54, 88
6, 30116, Note_off_c, 2, 54, 0
6, 30120, Note_on_c, 2, 59, 88
6, 30236, Note_off_c, 2, 59, 0
6, 30240, Note_on_c, 2, 53, 88
6, 30356, Note_off_c, 2, 53, 0
6, 30360, Note_on_c, 2, 54, 88
6, 30418, Note_off_c, 2, 54, 0
6, 30420, Note_on_c, 2, 56, 88
6, 30478, Note_off_c, 2, 56, 0
6, 30480, Note_on_c, 2, 58, 88
6, 30596, Note_off_c, 2, 58, 0
6, 30600, Note_on_c, 2, 46, 88
6, 30716, Note_off_c, 2, 46, 0
6, 30720, Note_on_c, 2, 51, 88
6, 30836, Note_off_c, 2, 51, 0
6, 30840, Note_on_c, 2, 53, 88
6, 30898, Note_off_c, 2, 53, 0
6, 30900, Note_on_c, 2, 54, 88
6, 30958, Note_off_c, 2, 54, 0
6, 30960, Note_on_c, 2, 56, 88
6, 31254, Note_off_c, 2, 56, 0
6, 31260, Note_on_c, 2, 58, 88
6, 31318, Note_off_c, 2, 58, 0
6, 31320, Note_on_c, 2, 54, 88
6, 31378, Note_off_c, 2, 54, 0
6, 31380, Note_on_c, 2, 56, 88
6, 31438, Note_off_c, 2, 56, 0
6, 31440, Note_on_c, 2, 53, 88
6, 31498, Note_off_c, 2, 53, 0
6, 31500, Note_on_c, 2, 54, 88
6, 31558, Note_off_c, 2, 54, 0
6, 31560, Note_on_c, 2, 56, 88
6, 31618, Note_off_c, 2, 56, 0
6, 31620, Note_on_c, 2, 58, 88
6, 31678, Note_off_c, 2, 58, 0
6, 31680, Note_on_c, 2, 54, 88
6, 31738, Note_off_c, 2, 54, 0
6, 31740, Note_on_c, 2, 56, 88
6, 31798, Note_off_c, 2, 56, 0
6, 31800, Note_on_c, 2, 53, 88
6, 31858, Note_off_c, 2, 53, 0
6, 31860, Note_on_c, 2, 54, 88
6, 31918, Note_off_c, 2, 54, 0
6, 31920, Note_on_c, 2, 51, 88
6, 31978, Note_off_c, 2, 51, 0
6, 31980, Note_on_c, 2, 53, 88
6, 32038, Note_off_c, 2, 53, 0
6, 32040, Note_on_c, 2, 55, 88
6, 32098, Note_off_c, 2, 55, 0
6, 32100, Note_on_c, 2, 57, 88
6, 32158, Note_off_c, 2, 57, 0
6, 32160, Note_on_c, 2, 58, 88
6, 32218, Note_off_c, 2, 58, 0
6, 32220, Note_on_c, 2, 60, 88
6, 32278, Note_off_c, 2, 60, 0
6, 32280, Note_on_c, 2, 56, 88
6, 32338, Note_off_c, 2, 56, 0
6, 32340, Note_on_c, 2, 58, 88
6, 32398, Note_off_c, 2, 58, 0
6, 32400, Note_on_c, 2, 55, 88
6, 32458, Note_off_c, 2, 55, 0
6, 32460, Note_on_c, 2, 57, 88
6, 32518, Note_off_c, 2, 57, 0
6, 32520, Note_on_c, 2, 58, 88
6, 32578, Note_off_c, 2, 58, 0
6, 32580, Note_on_c, 2, 60, 88
6, 32638, Note_off_c, 2, 60, 0
6, 32640, Note_on_c, 2, 57, 88
6, 32698, Note_off_c, 2, 57, 0
6, 32700, Note_on_c, 2, 53, 88
6, 32758, Note_off_c, 2, 53, 0
6, 32760, Note_on_c, 2, 55, 88
6, 32818, Note_off_c, 2, 55, 0
6, 32820, Note_on_c, 2, 57, 88
6, 32878, Note_off_c, 2, 57, 0
6, 32880, Note_on_c, 2, 58, 88
6, 32938, Note_off_c, 2, 58, 0
6, 32940, Note_on_c, 2, 60, 88
6, 32998, Note_off_c, 2, 60, 0
6, 33000, Note_on_c, 2, 61, 88
6, 33058, Note_off_c, 2, 61, 0
6, 33060, Note_on_c, 2, 63, 88
6, 33118, Note_off_c, 2, 63, 0
6, 33120, Note_on_c, 2, 65, 88
6, 33178, Note_off_c, 2, 65, 0
6, 33180, Note_on_c, 2, 66, 88
6, 33238, Note_off_c, 2, 66, 0
6, 33240, Note_on_c, 2, 65, 88
6, 33298, Note_off_c, 2, 65, 0
6, 33300, Note_on_c, 2, 63, 88
6, 33358, Note_off_c, 2, 63, 0
6, 33360, Note_on_c, 2, 62, 88
6, 33418, Note_off_c, 2, 62, 0
6, 33420, Note_on_c, 2, 58, 88
6, 33478, Note_off_c, 2, 58, 0
6, 33480, Note_on_c, 2, 60, 88
6, 33538, Note_off_c, 2, 60, 0
6, 33540, Note_on_c, 2, 62, 88
6, 33598, Note_off_c, 2, 62, 0
6, 33600, Note_on_c, 2, 63, 88
6, 33658, Note_off_c, 2, 63, 0
6, 33660, Note_on_c, 2, 65, 88
6, 33718, Note_off_c, 2, 65, 0
6, 33720, Note_on_c, 2, 63, 88
6, 33778, Note_off_c, 2, 63, 0
6, 33780, Note_on_c, 2, 61, 88
6, 33838, Note_off_c, 2, 61, 0
6, 33840, Note_on_c, 2, 60, 88
6, 33898, Note_off_c, 2, 60, 0
6, 33900, Note_on_c, 2, 57, 88
6, 33958, Note_off_c, 2, 57, 0
6, 33960, Note_on_c, 2, 58, 88
6, 34018, Note_off_c, 2, 58, 0
6, 34020, Note_on_c, 2, 60, 88
6, 34078, Note_off_c, 2, 60, 0
6, 34080, Note_on_c, 2, 61, 88
6, 34196, Note_off_c, 2, 61, 0
6, 34200, Note_on_c, 2, 58, 88
6, 34316, Note_off_c, 2, 58, 0
6, 34320, Note_on_c, 2, 65, 88
6, 34605, Note_off_c, 2, 65, 0
6, 34620, Note_on_c, 2, 65, 88
6, 34678, Note_off_c, 2, 65, 0
6, 34680, Note_on_c, 2, 63, 88
6, 34738, Note_off_c, 2, 63, 0
6, 34740, Note_on_c, 2, 61, 88
6, 34798, Note_off_c, 2, 61, 0
6, 34800, Note_on_c, 2, 63, 88
6, 34858, Note_off_c, 2, 63, 0
6, 34860, Note_on_c, 2, 61, 88
6, 34918, Note_off_c, 2, 61, 0
6, 34920, Note_on_c, 2, 60, 88
6, 34978, Note_off_c, 2, 60, 0
6, 34980, Note_on_c, 2, 58, 88
6, 35038, Note_off_c, 2, 58, 0
6, 35040, Note_on_c, 2, 56, 88
6, 35156, Note_off_c, 2, 56, 0
6, 35160, Note_on_c, 2, 61, 88
6, 35276, Note_off_c, 2, 61, 0
6, 35280, Note_on_c, 2, 58, 88
6, 35396, Note_off_c, 2, 58, 0
6, 35520, Note_on_c, 2, 60, 88
6, 35636, Note_off_c, 2, 60, 0
6, 35760, Note_on_c, 2, 56, 88
6, 35876, Note_off_c, 2, 56, 0
6, 36000, Note_on_c, 2, 58, 88
6, 36116, Note_off_c, 2, 58, 0
6, 36600, Note_on_c, 2, 63, 88
6, 36834, Note_off_c, 2, 63, 0
6, 36840, Note_on_c, 2, 56, 88
6, 36956, Note_off_c, 2, 56, 0
6, 36960, Note_on_c, 2, 61, 88
6, 37076, Note_off_c, 2, 61, 0
6, 37080, Note_on_c, 2, 58, 88
6, 37196, Note_off_c, 2, 58, 0
6, 37200, Note_on_c, 2, 59, 88
6, 37316, Note_off_c, 2, 59, 0
6, 38520, Note_on_c, 2, 63, 88
6, 38636, Note_off_c, 2, 63, 0
6, 38640, Note_on_c, 2, 60, 88
6, 38756, Note_off_c, 2, 60, 0
6, 38760, Note_on_c, 2, 65, 88
6, 38876, Note_off_c, 2, 65, 0
6, 38880, Note_on_c, 2, 58, 88
6, 38996, Note_off_c, 2, 58, 0
6, 39000, Note_on_c, 2, 60, 88
6, 39058, Note_off_c, 2, 60, 0
6, 39060, Note_on_c, 2, 62, 88
6, 39118, Note_off_c, 2, 62, 0
6, 39120, Note_on_c, 2, 63, 88
6, 39236, Note_off_c, 2, 63, 0
6, 39240, Note_on_c, 2, 51, 88
6, 39356, Note_off_c, 2, 51, 0
6, 39360, Note_on_c, 2, 56, 88
6, 39476, Note_off_c, 2, 56, 0
6, 39480, Note_on_c, 2, 58, 88
6, 39538, Note_off_c, 2, 58, 0
6, 39540, Note_on_c, 2, 60, 88
6, 39598, Note_off_c, 2, 60, 0
6, 39600, Note_on_c, 2, 61, 88
6, 39894, Note_off_c, 2, 61, 0
6, 39900, Note_on_c, 2, 63, 88
6, 39958, Note_off_c, 2, 63, 0
6, 39960, Note_on_c, 2, 60, 88
6, 40018, Note_off_c, 2, 60, 0
6, 40020, Note_on_c, 2, 61, 88
6, 40078, Note_off_c, 2, 61, 0
6, 40080, Note_on_c, 2, 58, 88
6, 40138, Note_off_c, 2, 58, 0
6, 40140, Note_on_c, 2, 60, 88
6, 40198, Note_off_c, 2, 60, 0
6, 40200, Note_on_c, 2, 61, 88
6, 40258, Note_off_c, 2, 61, 0
6, 40260, Note_on_c, 2, 63, 88
6, 40318, Note_off_c, 2, 63, 0
6, 40320, Note_on_c, 2, 60, 88
6, 40554, Note_off_c, 2, 60, 0
6, 40560, Note_on_c, 2, 58, 88
6, 41030, Note_off_c, 2, 58, 0
6, 41040, Note_on_c, 2, 56, 88
6, 41098, Note_off_c, 2, 56, 0
6, 41100, Note_on_c, 2, 66, 88
6, 41158, Note_off_c, 2, 66, 0
6, 41160, Note_on_c, 2, 65, 88
6, 41218, Note_off_c, 2, 65, 0
6, 41220, Note_on_c, 2, 63, 88
6, 41278, Note_off_c, 2, 63, 0
6, 41280, Note_on_c, 2, 62, 88
6, 41396, Note_off_c, 2, 62, 0
6, 41400, Note_on_c, 2, 63, 88
6, 41516, Note_off_c, 2, 63, 0
6, 41520, Note_on_c, 2, 64, 88
6, 41636, Note_off_c, 2, 64, 0
6, 41640, Note_on_c, 2, 61, 88
6, 41756, Note_off_c, 2, 61, 0
6, 41760, Note_on_c, 2, 63, 88
6, 41876, Note_off_c, 2, 63, 0
6, 41880, Note_on_c, 2, 64, 88
6, 41996, Note_off_c, 2, 64, 0
6, 42000, Note_on_c, 2, 66, 88
6, 42116, Note_off_c, 2, 66, 0
6, 42120, Note_on_c, 2, 63, 88
6, 42236, Note_off_c, 2, 63, 0
6, 42240, Note_on_c, 2, 64, 88
6, 42474, Note_off_c, 2, 64, 0
6, 42720, Note_on_c, 2, 69, 88
6, 42954, Note_off_c, 2, 69, 0
6, 43200, Note_on_c, 2, 73, 88
6, 43434, Note_off_c, 2, 73, 0
6, 43680, Note_on_c, 2, 70, 88
6, 43914, Note_off_c, 2, 70, 0
6, 45000, Note_on_c, 2, 56, 88
6, 45116, Note_off_c, 2, 56, 0
6, 45120, Note_on_c, 2, 56, 88
6, 45354, Note_off_c, 2, 56, 0
6, 45360, Note_on_c, 2, 55, 88
6, 45476, Note_off_c, 2, 55, 0
6, 45480, Note_on_c, 2, 58, 88
6, 45596, Note_off_c, 2, 58, 0
6, 45600, Note_on_c, 2, 56, 88
6, 45716, Note_off_c, 2, 56, 0
6, 45720, Note_on_c, 2, 61, 88
6, 45836, Note_off_c, 2, 61, 0
6, 45840, Note_on_c, 2, 60, 88
6, 45956, Note_off_c, 2, 60, 0
6, 45960, Note_on_c, 2, 65, 88
6, 46076, Note_off_c, 2, 65, 0
6, 46080, Note_on_c, 2, 58, 88
6, 46196, Note_off_c, 2, 58, 0
6, 46200, Note_on_c, 2, 60, 88
6, 46258, Note_off_c, 2, 60, 0
6, 46260, Note_on_c, 2, 61, 88
6, 46318, Note_off_c, 2, 61, 0
6, 46320, Note_on_c, 2, 63, 88
6, 46436, Note_off_c, 2, 63, 0
6, 46440, Note_on_c, 2, 51, 88
6, 46556, Note_off_c, 2, 51, 0
6, 46560, Note_on_c, 2, 56, 88
6, 46676, Note_off_c, 2, 56, 0
6, 46680, Note_on_c, 2, 58, 88
6, 46738, Note_off_c, 2, 58, 0
6, 46740, Note_on_c, 2, 60, 88
6, 46798, Note_off_c, 2, 60, 0
6, 46800, Note_on_c, 2, 61, 88
6, 47098, Note_off_c, 2, 61, 0
6, 47100, Note_on_c, 2, 63, 88
6, 47158, Note_off_c, 2, 63, 0
6, 47160, Note_on_c, 2, 60, 88
6, 47218, Note_off_c, 2, 60, 0
6, 47220, Note_on_c, 2, 61, 88
6, 47278, Note_off_c, 2, 61, 0
6, 47280, Note_on_c, 2, 58, 88
6, 47338, Note_off_c, 2, 58, 0
6, 47340, Note_on_c, 2, 60, 88
6, 47398, Note_off_c, 2, 60, 0
6, 47400, Note_on_c, 2, 61, 88
6, 47458, Note_off_c, 2, 61, 0
6, 47460, Note_on_c, 2, 63, 88
6, 47518, Note_off_c, 2, 63, 0
6, 47520, Note_on_c, 2, 56, 88
6, 47520, Note_on_c, 2, 60, 88
6, 47990, Note_off_c, 2, 56, 0
6, 47990, Note_off_c, 2, 60, 0
6, 47990, End_track
7, 0, Start_track
7, 0, Title_t, "Track 4"
7, 0, Program_c, 3, 6
7, 45840, Note_on_c, 3, 56, 88
7, 46074, Note_off_c, 3, 56, 0
7, 46080, Note_on_c, 3, 55, 88
7, 46314, Note_off_c, 3, 55, 0
7, 46320, Note_on_c, 3, 54, 88
7, 46554, Note_off_c, 3, 54, 0
7, 46560, Note_on_c, 3, 53, 88
7, 46794, Note_off_c, 3, 53, 0
7, 46800, Note_on_c, 3, 52, 88
7, 47034, Note_off_c, 3, 52, 0
7, 47040, Note_on_c, 3, 51, 88
7, 47505, Note_off_c, 3, 51, 0
7, 47520, Note_on_c, 3, 51, 88
7, 47990, Note_off_c, 3, 51, 0
7, 47990, End_track
8, 0, Start_track
8, 0, Title_t, "Track 5"
8, 0, Program_c, 4, 6
8, 6840, Note_on_c, 4, 56, 88
8, 6956, Note_off_c, 4, 56, 0
8, 6960, Note_on_c, 4, 55, 88
8, 7076, Note_off_c, 4, 55, 0
8, 7080, Note_on_c, 4, 60, 88
8, 7196, Note_off_c, 4, 60, 0
8, 7200, Note_on_c, 4, 53, 88
8, 7316, Note_off_c, 4, 53, 0
8, 7320, Note_on_c, 4, 55, 88
8, 7378, Note_off_c, 4, 55, 0
8, 7380, Note_on_c, 4, 56, 88
8, 7438, Note_off_c, 4, 56, 0
8, 7440, Note_on_c, 4, 58, 88
8, 7556, Note_off_c, 4, 58, 0
8, 7560, Note_on_c, 4, 46, 88
8, 7676, Note_off_c, 4, 46, 0
8, 7680, Note_on_c, 4, 51, 88
8, 7796, Note_off_c, 4, 51, 0
8, 7800, Note_on_c, 4, 53, 88
8, 7858, Note_off_c, 4, 53, 0
8, 7860, Note_on_c, 4, 55, 88
8, 7918, Note_off_c, 4, 55, 0
8, 7920, Note_on_c, 4, 56, 88
8, 8214, Note_off_c, 4, 56, 0
8, 8220, Note_on_c, 4, 58, 88
8, 8278, Note_off_c, 4, 58, 0
8, 8280, Note_on_c, 4, 55, 88
8, 8338, Note_off_c, 4, 55, 0
8, 8340, Note_on_c, 4, 56, 88
8, 8398, Note_off_c, 4, 56, 0
8, 8400, Note_on_c, 4, 53, 88
8, 8458, Note_off_c, 4, 53, 0
8, 8460, Note_on_c, 4, 55, 88
8, 8518, Note_off_c, 4, 55, 0
8, 8520, Note_on_c, 4, 56, 88
8, 8578, Note_off_c, 4, 56, 0
8, 8580, Note_on_c, 4, 58, 88
8, 8638, Note_off_c, 4, 58, 0
8, 8640, Note_on_c, 4, 51, 88
8, 8698, Note_off_c, 4, 51, 0
8, 8700, Note_on_c, 4, 50, 88
8, 8758, Note_off_c, 4, 50, 0
8, 8760, Note_on_c, 4, 51, 88
8, 8818, Note_off_c, 4, 51, 0
8, 8820, Note_on_c, 4, 53, 88
8, 8878, Note_off_c, 4, 53, 0
8, 8880, Note_on_c, 4, 55, 88
8, 8938, Note_off_c, 4, 55, 0
8, 8940, Note_on_c, 4, 53, 88
8, 8998, Note_off_c, 4, 53, 0
8, 9000, Note_on_c, 4, 51, 88
8, 9058, Note_off_c, 4, 51, 0
8, 9060, Note_on_c, 4, 55, 88
8, 9118, Note_off_c, 4, 55, 0
8, 9120, Note_on_c, 4, 53, 88
8, 9178, Note_off_c, 4, 53, 0
8, 9180, Note_on_c, 4, 51, 88
8, 9238, Note_off_c, 4, 51, 0
8, 9240, Note_on_c, 4, 53, 88
8, 9298, Note_off_c, 4, 53, 0
8, 9300, Note_on_c, 4, 55, 88
8, 9358, Note_off_c, 4, 55, 0
8, 9360, Note_on_c, 4, 56, 88
8, 9418, Note_off_c, 4, 56, 0
8, 9420, Note_on_c, 4, 55, 88
8, 9478, Note_off_c, 4, 55, 0
8, 9480, Note_on_c, 4, 53, 88
8, 9538, Note_off_c, 4, 53, 0
8, 9540, Note_on_c, 4, 56, 88
8, 9598, Note_off_c, 4, 56, 0
8, 9600, Note_on_c, 4, 55, 88
8, 9658, Note_off_c, 4, 55, 0
8, 9660, Note_on_c, 4, 53, 88
8, 9718, Note_off_c, 4, 53, 0
8, 9720, Note_on_c, 4, 55, 88
8, 9778, Note_off_c, 4, 55, 0
8, 9780, Note_on_c, 4, 56, 88
8, 9838, Note_off_c, 4, 56, 0
8, 9840, Note_on_c, 4, 58, 88
8, 9898, Note_off_c, 4, 58, 0
8, 9900, Note_on_c, 4, 56, 88
8, 9958, Note_off_c, 4, 56, 0
8, 9960, Note_on_c, 4, 55, 88
8, 10018, Note_off_c, 4, 55, 0
8, 10020, Note_on_c, 4, 58, 88
8, 10078, Note_off_c, 4, 58, 0
8, 10080, Note_on_c, 4, 56, 88
8, 10138, Note_off_c, 4, 56, 0
8, 10140, Note_on_c, 4, 55, 88
8, 10198, Note_off_c, 4, 55, 0
8, 10200, Note_on_c, 4, 56, 88
8, 10258, Note_off_c, 4, 56, 0
8, 10260, Note_on_c, 4, 58, 88
8, 10318, Note_off_c, 4, 58, 0
8, 10320, Note_on_c, 4, 60, 88
8, 10378, Note_off_c, 4, 60, 0
8, 10380, Note_on_c, 4, 58, 88
8, 10438, Note_off_c, 4, 58, 0
8, 10440, Note_on_c, 4, 56, 88
8, 10498, Note_off_c, 4, 56, 0
8, 10500, Note_on_c, 4, 60, 88
8, 10558, Note_off_c, 4, 60, 0
8, 10560, Note_on_c, 4, 58, 88
8, 10618, Note_off_c, 4, 58, 0
8, 10620, Note_on_c, 4, 56, 88
8, 10678, Note_off_c, 4, 56, 0
8, 10680, Note_on_c, 4, 58, 88
8, 10738, Note_off_c, 4, 58, 0
8, 10740, Note_on_c, 4, 60, 88
8, 10798, Note_off_c, 4, 60, 0
8, 10800, Note_on_c, 4, 61, 88
8, 10858, Note_off_c, 4, 61, 0
8, 10860, Note_on_c, 4, 60, 88
8, 10918, Note_off_c, 4, 60, 0
8, 10920, Note_on_c, 4, 58, 88
8, 10978, Note_off_c, 4, 58, 0
8, 10980, Note_on_c, 4, 61, 88
8, 11038, Note_off_c, 4, 61, 0
8, 11040, Note_on_c, 4, 60, 88
8, 11098, Note_off_c, 4, 60, 0
8, 11100, Note_on_c, 4, 58, 88
8, 11158, Note_off_c, 4, 58, 0
8, 11160, Note_on_c, 4, 60, 88
8, 11218, Note_off_c, 4, 60, 0
8, 11220, Note_on_c, 4, 61, 88
8, 11278, Note_off_c, 4, 61, 0
8, 11280, Note_on_c, 4, 63, 88
8, 11338, Note_off_c, 4, 63, 0
8, 11340, Note_on_c, 4, 61, 88
8, 11398, Note_off_c, 4, 61, 0
8, 11400, Note_on_c, 4, 60, 88
8, 11458, Note_off_c, 4, 60, 0
8, 11460, Note_on_c, 4, 63, 88
8, 11518, Note_off_c, 4, 63, 0
8, 11520, Note_on_c, 4, 61, 88
8, 11578, Note_off_c, 4, 61, 0
8, 11580, Note_on_c, 4, 60, 88
8, 11638, Note_off_c, 4, 60, 0
8, 11640, Note_on_c, 4, 61, 88
8, 11698, Note_off_c, 4, 61, 0
8, 11700, Note_on_c, 4, 63, 88
8, 11758, Note_off_c, 4, 63, 0
8, 11760, Note_on_c, 4, 65, 88
8, 11818, Note_off_c, 4, 65, 0
8, 11820, Note_on_c, 4, 63, 88
8, 11878, Note_off_c, 4, 63, 0
8, 11880, Note_on_c, 4, 61, 88
8, 11938, Note_off_c, 4, 61, 0
8, 11940, Note_on_c, 4, 65, 88
8, 11998, Note_off_c, 4, 65, 0
8, 12000, Note_on_c, 4, 63, 88
8, 12116, Note_off_c, 4, 63, 0
8, 12120, Note_on_c, 4, 51, 88
8, 12236, Note_off_c, 4, 51, 0
8, 12240, Note_on_c, 4, 48, 88
8, 12356, Note_off_c, 4, 48, 0
8, 12360, Note_on_c, 4, 53, 88
8, 12476, Note_off_c, 4, 53, 0
8, 12480, Note_on_c, 4, 46, 88
8, 12596, Note_off_c, 4, 46, 0
8, 12600, Note_on_c, 4, 48, 88
8, 12658, Note_off_c, 4, 48, 0
8, 12660, Note_on_c, 4, 50, 88
8, 12718, Note_off_c, 4, 50, 0
8, 12720, Note_on_c, 4, 51, 88
8, 12836, Note_off_c, 4, 51, 0
8, 12840, Note_on_c, 4, 39, 88
8, 12956, Note_off_c, 4, 39, 0
8, 12960, Note_on_c, 4, 44, 88
8, 13076, Note_off_c, 4, 44, 0
8, 13080, Note_on_c, 4, 46, 88
8, 13138, Note_off_c, 4, 46, 0
8, 13140, Note_on_c, 4, 48, 88
8, 13198, Note_off_c, 4, 48, 0
8, 13200, Note_on_c, 4, 49, 88
8, 13498, Note_off_c, 4, 49, 0
8, 13500, Note_on_c, 4, 51, 88
8, 13558, Note_off_c, 4, 51, 0
8, 13560, Note_on_c, 4, 48, 88
8, 13618, Note_off_c, 4, 48, 0
8, 13620, Note_on_c, 4, 49, 88
8, 13678, Note_off_c, 4, 49, 0
8, 13680, Note_on_c, 4, 46, 88
8, 13738, Note_off_c, 4, 46, 0
8, 13740, Note_on_c, 4, 48, 88
8, 13798, Note_off_c, 4, 48, 0
8, 13800, Note_on_c, 4, 49, 88
8, 13858, Note_off_c, 4, 49, 0
8, 13860, Note_on_c, 4, 51, 88
8, 13918, Note_off_c, 4, 51, 0
8, 13920, Note_on_c, 4, 44, 88
8, 14036, Note_off_c, 4, 44, 0
8, 14040, Note_on_c, 4, 48, 88
8, 14156, Note_off_c, 4, 48, 0
8, 14160, Note_on_c, 4, 49, 88
8, 14276, Note_off_c, 4, 49, 0
8, 14280, Note_on_c, 4, 44, 88
8, 14396, Note_off_c, 4, 44, 0
8, 14400, Note_on_c, 4, 46, 88
8, 14458, Note_off_c, 4, 46, 0
8, 14460, Note_on_c, 4, 48, 88
8, 14518, Note_off_c, 4, 48, 0
8, 14520, Note_on_c, 4, 44, 88
8, 14578, Note_off_c, 4, 44, 0
8, 14580, Note_on_c, 4, 46, 88
8, 14638, Note_off_c, 4, 46, 0
8, 14640, Note_on_c, 4, 43, 88
8, 14698, Note_off_c, 4, 43, 0
8, 14700, Note_on_c, 4, 44, 88
8, 14758, Note_off_c, 4, 44, 0
8, 14760, Note_on_c, 4, 46, 88
8, 14818, Note_off_c, 4, 46, 0
8, 14820, Note_on_c, 4, 48, 88
8, 14878, Note_off_c, 4, 48, 0
8, 14880, Note_on_c, 4, 41, 88
8, 14938, Note_off_c, 4, 41, 0
8, 14940, Note_on_c, 4, 48, 88
8, 14998, Note_off_c, 4, 48, 0
8, 15000, Note_on_c, 4, 53, 88
8, 15175, Note_off_c, 4, 53, 0
8, 15180, Note_on_c, 4, 51, 88
8, 15238, Note_off_c, 4, 51, 0
8, 15240, Note_on_c, 4, 49, 88
8, 15298, Note_off_c, 4, 49, 0
8, 15300, Note_on_c, 4, 48, 88
8, 15358, Note_off_c, 4, 48, 0
8, 15360, Note_on_c, 4, 49, 88
8, 15418, Note_off_c, 4, 49, 0
8, 15420, Note_on_c, 4, 60, 88
8, 15478, Note_off_c, 4, 60, 0
8, 15480, Note_on_c, 4, 58, 88
8, 15538, Note_off_c, 4, 58, 0
8, 15540, Note_on_c, 4, 56, 88
8, 15598, Note_off_c, 4, 56, 0
8, 15600, Note_on_c, 4, 55, 88
8, 15658, Note_off_c, 4, 55, 0
8, 15660, Note_on_c, 4, 53, 88
8, 15718, Note_off_c, 4, 53, 0
8, 15720, Note_on_c, 4, 51, 88
8, 15778, Note_off_c, 4, 51, 0
8, 15780, Note_on_c, 4, 49, 88
8, 15838, Note_off_c, 4, 49, 0
8, 15840, Note_on_c, 4, 48, 88
8, 15898, Note_off_c, 4, 48, 0
8, 15900, Note_on_c, 4, 58, 88
8, 15958, Note_off_c, 4, 58, 0
8, 15960, Note_on_c, 4, 56, 88
8, 16018, Note_off_c, 4, 56, 0
8, 16020, Note_on_c, 4, 55, 88
8, 16078, Note_off_c, 4, 55, 0
8, 16080, Note_on_c, 4, 53, 88
8, 16138, Note_off_c, 4, 53, 0
8, 16140, Note_on_c, 4, 51, 88
8, 16198, Note_off_c, 4, 51, 0
8, 16200, Note_on_c, 4, 50, 88
8, 16258, Note_off_c, 4, 50, 0
8, 16260, Note_on_c, 4, 48, 88
8, 16318, Note_off_c, 4, 48, 0
8, 16320, Note_on_c, 4, 46, 88
8, 16436, Note_off_c, 4, 46, 0
8, 16440, Note_on_c, 4, 51, 88
8, 16674, Note_off_c, 4, 51, 0
8, 16680, Note_on_c, 4, 49, 88
8, 16855, Note_off_c, 4, 49, 0
8, 16860, Note_on_c, 4, 48, 88
8, 16918, Note_off_c, 4, 48, 0
8, 16920, Note_on_c, 4, 49, 88
8, 16978, Note_off_c, 4, 49, 0
8, 16980, Note_on_c, 4, 51, 88
8, 17038, Note_off_c, 4, 51, 0
8, 17040, Note_on_c, 4, 53, 88
8, 17098, Note_off_c, 4, 53, 0
8, 17100, Note_on_c, 4, 51, 88
8, 17158, Note_off_c, 4, 51, 0
8, 17160, Note_on_c, 4, 49, 88
8, 17218, Note_off_c, 4, 49, 0
8, 17220, Note_on_c, 4, 48, 88
8, 17278, Note_off_c, 4, 48, 0
8, 17280, Note_on_c, 4, 49, 88
8, 17338, Note_off_c, 4, 49, 0
8, 17340, Note_on_c, 4, 53, 88
8, 17398, Note_off_c, 4, 53, 0
8, 17400, Note_on_c, 4, 51, 88
8, 17458, Note_off_c, 4, 51, 0
8, 17460, Note_on_c, 4, 49, 88
8, 17518, Note_off_c, 4, 49, 0
8, 17520, Note_on_c, 4, 48, 88
8, 17578, Note_off_c, 4, 48, 0
8, 17580, Note_on_c, 4, 49, 88
8, 17638, Note_off_c, 4, 49, 0
8, 17640, Note_on_c, 4, 51, 88
8, 17805, Note_off_c, 4, 51, 0
8, 17820, Note_on_c, 4, 51, 88
8, 17878, Note_off_c, 4, 51, 0
8, 17880, Note_on_c, 4, 49, 88
8, 17938, Note_off_c, 4, 49, 0
8, 17940, Note_on_c, 4, 48, 88
8, 17998, Note_off_c, 4, 48, 0
8, 18000, Note_on_c, 4, 46, 88
8, 18058, Note_off_c, 4, 46, 0
8, 18060, Note_on_c, 4, 47, 88
8, 18118, Note_off_c, 4, 47, 0
8, 18120, Note_on_c, 4, 46, 88
8, 18178, Note_off_c, 4, 46, 0
8, 18180, Note_on_c, 4, 44, 88
8, 18238, Note_off_c, 4, 44, 0
8, 18240, Note_on_c, 4, 43, 88
8, 18356, Note_off_c, 4, 43, 0
8, 18360, Note_on_c, 4, 44, 88
8, 18476, Note_off_c, 4, 44, 0
8, 18480, Note_on_c, 4, 49, 88
8, 18596, Note_off_c, 4, 49, 0
8, 18600, Note_on_c, 4, 51, 88
8, 18716, Note_off_c, 4, 51, 0
8, 18720, Note_on_c, 4, 56, 88
8, 18836, Note_off_c, 4, 56, 0
8, 18840, Note_on_c, 4, 58, 88
8, 18956, Note_off_c, 4, 58, 0
8, 18960, Note_on_c, 4, 54, 88
8, 19076, Note_off_c, 4, 54, 0
8, 19080, Note_on_c, 4, 56, 88
8, 19196, Note_off_c, 4, 56, 0
8, 19200, Note_on_c, 4, 49, 88
8, 19316, Note_off_c, 4, 49, 0
8, 19320, Note_on_c, 4, 54, 88
8, 19436, Note_off_c, 4, 54, 0
8, 19440, Note_on_c, 4, 51, 88
8, 19556, Note_off_c, 4, 51, 0
8, 19560, Note_on_c, 4, 53, 88
8, 19676, Note_off_c, 4, 53, 0
8, 19680, Note_on_c, 4, 58, 88
8, 19796, Note_off_c, 4, 58, 0
8, 19800, Note_on_c, 4, 60, 88
8, 19916, Note_off_c, 4, 60, 0
8, 19920, Note_on_c, 4, 56, 88
8, 20036, Note_off_c, 4, 56, 0
8, 20040, Note_on_c, 4, 58, 88
8, 20156, Note_off_c, 4, 58, 0
8, 20160, Note_on_c, 4, 51, 88
8, 20394, Note_off_c, 4, 51, 0
8, 20400, Note_on_c, 4, 56, 88
8, 20634, Note_off_c, 4, 56, 0
8, 20640, Note_on_c, 4, 55, 88
8, 20874, Note_off_c, 4, 55, 0
8, 20880, Note_on_c, 4, 54, 88
8, 21114, Note_off_c, 4, 54, 0
8, 21120, Note_on_c, 4, 53, 88
8, 21354, Note_off_c, 4, 53, 0
8, 21360, Note_on_c, 4, 52, 88
8, 21594, Note_off_c, 4, 52, 0
8, 21600, Note_on_c, 4, 51, 88
8, 21716, Note_off_c, 4, 51, 0
8, 21720, Note_on_c, 4, 53, 88
8, 21836, Note_off_c, 4, 53, 0
8, 21840, Note_on_c, 4, 49, 88
8, 21956, Note_off_c, 4, 49, 0
8, 21960, Note_on_c, 4, 51, 88
8, 22076, Note_off_c, 4, 51, 0
8, 22080, Note_on_c, 4, 44, 88
8, 22138, Note_off_c, 4, 44, 0
8, 22140, Note_on_c, 4, 48, 88
8, 22198, Note_off_c, 4, 48, 0
8, 22200, Note_on_c, 4, 46, 88
8, 22258, Note_off_c, 4, 46, 0
8, 22260, Note_on_c, 4, 44, 88
8, 22318, Note_off_c, 4, 44, 0
8, 22320, Note_on_c, 4, 49, 88
8, 22614, Note_off_c, 4, 49, 0
8, 22620, Note_on_c, 4, 61, 88
8, 22678, Note_off_c, 4, 61, 0
8, 22680, Note_on_c, 4, 60, 88
8, 22738, Note_off_c, 4, 60, 0
8, 22740, Note_on_c, 4, 58, 88
8, 22798, Note_off_c, 4, 58, 0
8, 22800, Note_on_c, 4, 57, 88
8, 22858, Note_off_c, 4, 57, 0
8, 22860, Note_on_c, 4, 58, 88
8, 22918, Note_off_c, 4, 58, 0
8, 22920, Note_on_c, 4, 60, 88
8, 22978, Note_off_c, 4, 60, 0
8, 22980, Note_on_c, 4, 57, 88
8, 23038, Note_off_c, 4, 57, 0
8, 23040, Note_on_c, 4, 58, 88
8, 23098, Note_off_c, 4, 58, 0
8, 23100, Note_on_c, 4, 60, 88
8, 23158, Note_off_c, 4, 60, 0
8, 23160, Note_on_c, 4, 58, 88
8, 23218, Note_off_c, 4, 58, 0
8, 23220, Note_on_c, 4, 56, 88
8, 23278, Note_off_c, 4, 56, 0
8, 23280, Note_on_c, 4, 55, 88
8, 23338, Note_off_c, 4, 55, 0
8, 23340, Note_on_c, 4, 56, 88
8, 23398, Note_off_c, 4, 56, 0
8, 23400, Note_on_c, 4, 58, 88
8, 23458, Note_off_c, 4, 58, 0
8, 23460, Note_on_c, 4, 55, 88
8, 23518, Note_off_c, 4, 55, 0
8, 23520, Note_on_c, 4, 56, 88
8, 23636, Note_off_c, 4, 56, 0
8, 23640, Note_on_c, 4, 61, 88
8, 23756, Note_off_c, 4, 61, 0
8, 23760, Note_on_c, 4, 58, 88
8, 23876, Note_off_c, 4, 58, 0
8, 23880, Note_on_c, 4, 60, 88
8, 23996, Note_off_c, 4, 60, 0
8, 24000, Note_on_c, 4, 53, 88
8, 24234, Note_off_c, 4, 53, 0
8, 24360, Note_on_c, 4, 58, 88
8, 24476, Note_off_c, 4, 58, 0
8, 24480, Note_on_c, 4, 51, 88
8, 24714, Note_off_c, 4, 51, 0
8, 24840, Note_on_c, 4, 56, 88
8, 24956, Note_off_c, 4, 56, 0
8, 24960, Note_on_c, 4, 50, 88
8, 25076, Note_off_c, 4, 50, 0
8, 25080, Note_on_c, 4, 53, 88
8, 25196, Note_off_c, 4, 53, 0
8, 25200, Note_on_c, 4, 55, 88
8, 25316, Note_off_c, 4, 55, 0
8, 25320, Note_on_c, 4, 43, 88
8, 25436, Note_off_c, 4, 43, 0
8, 25440, Note_on_c, 4, 48, 88
8, 25556, Note_off_c, 4, 48, 0
8, 25560, Note_on_c, 4, 55, 88
8, 25676, Note_off_c, 4, 55, 0
8, 25680, Note_on_c, 4, 60, 88
8, 26154, Note_off_c, 4, 60, 0
8, 26160, Note_on_c, 4, 59, 88
8, 26276, Note_off_c, 4, 59, 0
8, 26280, Note_on_c, 4, 58, 88
8, 26514, Note_off_c, 4, 58, 0
8, 26520, Note_on_c, 4, 67, 88
8, 26578, Note_off_c, 4, 67, 0
8, 26580, Note_on_c, 4, 65, 88
8, 26638, Note_off_c, 4, 65, 0
8, 26640, Note_on_c, 4, 64, 88
8, 26698, Note_off_c, 4, 64, 0
8, 26700, Note_on_c, 4, 62, 88
8, 26758, Note_off_c, 4, 62, 0
8, 26760, Note_on_c, 4, 60, 88
8, 26818, Note_off_c, 4, 60, 0
8, 26820, Note_on_c, 4, 58, 88
8, 26878, Note_off_c, 4, 58, 0
8, 26880, Note_on_c, 4, 56, 88
8, 27114, Note_off_c, 4, 56, 0
8, 27240, Note_on_c, 4, 56, 88
8, 27356, Note_off_c, 4, 56, 0
8, 27360, Note_on_c, 4, 58, 88
8, 27476, Note_off_c, 4, 58, 0
8, 27480, Note_on_c, 4, 61, 88
8, 27596, Note_off_c, 4, 61, 0
8, 27600, Note_on_c, 4, 55, 88
8, 27716, Note_off_c, 4, 55, 0
8, 27720, Note_on_c, 4, 60, 88
8, 27836, Note_off_c, 4, 60, 0
8, 27840, Note_on_c, 4, 53, 88
8, 27956, Note_off_c, 4, 53, 0
8, 28380, Note_on_c, 4, 45, 88
8, 28438, Note_off_c, 4, 45, 0
8, 28440, Note_on_c, 4, 46, 88
8, 28498, Note_off_c, 4, 46, 0
8, 28500, Note_on_c, 4, 48, 88
8, 28558, Note_off_c, 4, 48, 0
8, 28560, Note_on_c, 4, 49, 88
8, 28618, Note_off_c, 4, 49, 0
8, 28620, Note_on_c, 4, 48, 88
8, 28678, Note_off_c, 4, 48, 0
8, 28680, Note_on_c, 4, 46, 88
8, 28738, Note_off_c, 4, 46, 0
8, 28740, Note_on_c, 4, 49, 88
8, 28798, Note_off_c, 4, 49, 0
8, 28800, Note_on_c, 4, 48, 88
8, 28858, Note_off_c, 4, 48, 0
8, 28860, Note_on_c, 4, 46, 88
8, 28918, Note_off_c, 4, 46, 0
8, 28920, Note_on_c, 4, 48, 88
8, 28978, Note_off_c, 4, 48, 0
8, 28980, Note_on_c, 4, 49, 88
8, 29038, Note_off_c, 4, 49, 0
8, 29040, Note_on_c, 4, 51, 88
8, 29098, Note_off_c, 4, 51, 0
8, 29100, Note_on_c, 4, 49, 88
8, 29158, Note_off_c, 4, 49, 0
8, 29160, Note_on_c, 4, 48, 88
8, 29218, Note_off_c, 4, 48, 0
8, 29220, Note_on_c, 4, 51, 88
8, 29278, Note_off_c, 4, 51, 0
8, 29280, Note_on_c, 4, 50, 88
8, 29338, Note_off_c, 4, 50, 0
8, 29340, Note_on_c, 4, 48, 88
8, 29398, Note_off_c, 4, 48, 0
8, 29400, Note_on_c, 4, 50, 88
8, 29458, Note_off_c, 4, 50, 0
8, 29460, Note_on_c, 4, 51, 88
8, 29518, Note_off_c, 4, 51, 0
8, 29520, Note_on_c, 4, 53, 88
8, 29578, Note_off_c, 4, 53, 0
8, 29580, Note_on_c, 4, 51, 88
8, 29638, Note_off_c, 4, 51, 0
8, 29640, Note_on_c, 4, 50, 88
8, 29698, Note_off_c, 4, 50, 0
8, 29700, Note_on_c, 4, 53, 88
8, 29758, Note_off_c, 4, 53, 0
8, 29760, Note_on_c, 4, 51, 88
8, 29994, Note_off_c, 4, 51, 0
8, 34920, Note_on_c, 4, 56, 88
8, 35036, Note_off_c, 4, 56, 0
8, 35040, Note_on_c, 4, 53, 88
8, 35156, Note_off_c, 4, 53, 0
8, 35160, Note_on_c, 4, 58, 88
8, 35276, Note_off_c, 4, 58, 0
8, 35280, Note_on_c, 4, 51, 88
8, 35396, Note_off_c, 4, 51, 0
8, 35400, Note_on_c, 4, 53, 88
8, 35458, Note_off_c, 4, 53, 0
8, 35460, Note_on_c, 4, 54, 88
8, 35518, Note_off_c, 4, 54, 0
8, 35520, Note_on_c, 4, 56, 88
8, 35636, Note_off_c, 4, 56, 0
8, 35640, Note_on_c, 4, 44, 88
8, 35756, Note_off_c, 4, 44, 0
8, 35760, Note_on_c, 4, 49, 88
8, 35876, Note_off_c, 4, 49, 0
8, 35880, Note_on_c, 4, 51, 88
8, 35938, Note_off_c, 4, 51, 0
8, 35940, Note_on_c, 4, 53, 88
8, 35998, Note_off_c, 4, 53, 0
8, 36000, Note_on_c, 4, 54, 88
8, 36294, Note_off_c, 4, 54, 0
8, 36300, Note_on_c, 4, 56, 88
8, 36358, Note_off_c, 4, 56, 0
8, 36360, Note_on_c, 4, 52, 88
8, 36418, Note_off_c, 4, 52, 0
8, 36420, Note_on_c, 4, 54, 88
8, 36478, Note_off_c, 4, 54, 0
8, 36480, Note_on_c, 4, 51, 88
8, 36538, Note_off_c, 4, 51, 0
8, 36540, Note_on_c, 4, 52, 88
8, 36598, Note_off_c, 4, 52, 0
8, 36600, Note_on_c, 4, 54, 88
8, 36658, Note_off_c, 4, 54, 0
8, 36660, Note_on_c, 4, 56, 88
8, 36718, Note_off_c, 4, 56, 0
8, 36720, Note_on_c, 4, 49, 88
8, 36778, Note_off_c, 4, 49, 0
8, 36780, Note_on_c, 4, 51, 88
8, 36838, Note_off_c, 4, 51, 0
8, 36840, Note_on_c, 4, 47, 88
8, 36898, Note_off_c, 4, 47, 0
8, 36900, Note_on_c, 4, 49, 88
8, 36958, Note_off_c, 4, 49, 0
8, 36960, Note_on_c, 4, 46, 88
8, 37018, Note_off_c, 4, 46, 0
8, 37020, Note_on_c, 4, 47, 88
8, 37078, Note_off_c, 4, 47, 0
8, 37080, Note_on_c, 4, 49, 88
8, 37138, Note_off_c, 4, 49, 0
8, 37140, Note_on_c, 4, 51, 88
8, 37198, Note_off_c, 4, 51, 0
8, 37200, Note_on_c, 4, 44, 88
8, 37258, Note_off_c, 4, 44, 0
8, 37260, Note_on_c, 4, 46, 88
8, 37318, Note_off_c, 4, 46, 0
8, 37320, Note_on_c, 4, 42, 88
8, 37378, Note_off_c, 4, 42, 0
8, 37380, Note_on_c, 4, 44, 88
8, 37438, Note_off_c, 4, 44, 0
8, 37440, Note_on_c, 4, 41, 88
8, 37498, Note_off_c, 4, 41, 0
8, 37500, Note_on_c, 4, 42, 88
8, 37558, Note_off_c, 4, 42, 0
8, 37560, Note_on_c, 4, 44, 88
8, 37618, Note_off_c, 4, 44, 0
8, 37620, Note_on_c, 4, 46, 88
8, 37678, Note_off_c, 4, 46, 0
8, 37680, Note_on_c, 4, 39, 88
8, 37796, Note_off_c, 4, 39, 0
8, 39960, Note_on_c, 4, 56, 88
8, 40076, Note_off_c, 4, 56, 0
8, 40080, Note_on_c, 4, 55, 88
8, 40196, Note_off_c, 4, 55, 0
8, 40200, Note_on_c, 4, 60, 88
8, 40316, Note_off_c, 4, 60, 0
8, 40320, Note_on_c, 4, 53, 88
8, 40436, Note_off_c, 4, 53, 0
8, 40440, Note_on_c, 4, 55, 88
8, 40498, Note_off_c, 4, 55, 0
8, 40500, Note_on_c, 4, 56, 88
8, 40558, Note_off_c, 4, 56, 0
8, 40560, Note_on_c, 4, 58, 88
8, 40676, Note_off_c, 4, 58, 0
8, 40680, Note_on_c, 4, 46, 88
8, 40796, Note_off_c, 4, 46, 0
8, 40800, Note_on_c, 4, 51, 88
8, 40916, Note_off_c, 4, 51, 0
8, 40920, Note_on_c, 4, 53, 88
8, 40978, Note_off_c, 4, 53, 0
8, 40980, Note_on_c, 4, 55, 88
8, 41038, Note_off_c, 4, 55, 0
8, 41040, Note_on_c, 4, 56, 88
8, 41338, Note_off_c, 4, 56, 0
8, 41340, Note_on_c, 4, 58, 88
8, 41398, Note_off_c, 4, 58, 0
8, 41400, Note_on_c, 4, 54, 88
8, 41458, Note_off_c, 4, 54, 0
8, 41460, Note_on_c, 4, 56, 88
8, 41518, Note_off_c, 4, 56, 0
8, 41520, Note_on_c, 4, 52, 88
8, 41578, Note_off_c, 4, 52, 0
8, 41580, Note_on_c, 4, 54, 88
8, 41638, Note_off_c, 4, 54, 0
8, 41640, Note_on_c, 4, 56, 88
8, 41698, Note_off_c, 4, 56, 0
8, 41700, Note_on_c, 4, 57, 88
8, 41758, Note_off_c, 4, 57, 0
8, 41760, Note_on_c, 4, 54, 88
8, 41818, Note_off_c, 4, 54, 0
8, 41820, Note_on_c, 4, 56, 88
8, 41878, Note_off_c, 4, 56, 0
8, 41880, Note_on_c, 4, 52, 88
8, 41938, Note_off_c, 4, 52, 0
8, 41940, Note_on_c, 4, 54, 88
8, 41998, Note_off_c, 4, 54, 0
8, 42000, Note_on_c, 4, 51, 88
8, 42058, Note_off_c, 4, 51, 0
8, 42060, Note_on_c, 4, 52, 88
8, 42118, Note_off_c, 4, 52, 0
8, 42120, Note_on_c, 4, 54, 88
8, 42178, Note_off_c, 4, 54, 0
8, 42180, Note_on_c, 4, 56, 88
8, 42238, Note_off_c, 4, 56, 0
8, 42240, Note_on_c, 4, 49, 88
8, 42298, Note_off_c, 4, 49, 0
8, 42300, Note_on_c, 4, 61, 88
8, 42358, Note_off_c, 4, 61, 0
8, 42360, Note_on_c, 4, 59, 88
8, 42418, Note_off_c, 4, 59, 0
8, 42420, Note_on_c, 4, 61, 88
8, 42478, Note_off_c, 4, 61, 0
8, 42480, Note_on_c, 4, 57, 88
8, 42538, Note_off_c, 4, 57, 0
8, 42540, Note_on_c, 4, 61, 88
8, 42598, Note_off_c, 4, 61, 0
8, 42600, Note_on_c, 4, 52, 88
8, 42658, Note_off_c, 4, 52, 0
8, 42660, Note_on_c, 4, 57, 88
8, 42718, Note_off_c, 4, 57, 0
8, 42720, Note_on_c, 4, 49, 88
8, 42778, Note_off_c, 4, 49, 0
8, 42780, Note_on_c, 4, 57, 88
8, 42838, Note_off_c, 4, 57, 0
8, 42840, Note_on_c, 4, 56, 88
8, 42898, Note_off_c, 4, 56, 0
8, 42900, Note_on_c, 4, 57, 88
8, 42958, Note_off_c, 4, 57, 0
8, 42960, Note_on_c, 4, 52, 88
8, 43018, Note_off_c, 4, 52, 0
8, 43020, Note_on_c, 4, 57, 88
8, 43078, Note_off_c, 4, 57, 0
8, 43080, Note_on_c, 4, 49, 88
8, 43138, Note_off_c, 4, 49, 0
8, 43140, Note_on_c, 4, 52, 88
8, 43198, Note_off_c, 4, 52, 0
8, 43200, Note_on_c, 4, 46, 88
8, 43258, Note_off_c, 4, 46, 0
8, 43260, Note_on_c, 4, 52, 88
8, 43318, Note_off_c, 4, 52, 0
8, 43320, Note_on_c, 4, 51, 88
8, 43378, Note_off_c, 4, 51, 0
8, 43380, Note_on_c, 4, 52, 88
8, 43438, Note_off_c, 4, 52, 0
8, 43440, Note_on_c, 4, 49, 88
8, 43498, Note_off_c, 4, 49, 0
8, 43500, Note_on_c, 4, 52, 88
8, 43558, Note_off_c, 4, 52, 0
8, 43560, Note_on_c, 4, 46, 88
8, 43618, Note_off_c, 4, 46, 0
8, 43620, Note_on_c, 4, 49, 88
8, 43678, Note_off_c, 4, 49, 0
8, 43680, Note_on_c, 4, 43, 88
8, 43914, Note_off_c, 4, 43, 0
8, 43980, Note_on_c, 4, 51, 88
8, 44038, Note_off_c, 4, 51, 0
8, 44040, Note_on_c, 4, 53, 88
8, 44098, Note_off_c, 4, 53, 0
8, 44100, Note_on_c, 4, 55, 88
8, 44158, Note_off_c, 4, 55, 0
8, 44160, Note_on_c, 4, 56, 88
8, 44218, Note_off_c, 4, 56, 0
8, 44220, Note_on_c, 4, 60, 88
8, 44278, Note_off_c, 4, 60, 0
8, 44280, Note_on_c, 4, 58, 88
8, 44338, Note_off_c, 4, 58, 0
8, 44340, Note_on_c, 4, 56, 88
8, 44398, Note_off_c, 4, 56, 0
8, 44400, Note_on_c, 4, 55, 88
8, 44458, Note_off_c, 4, 55, 0
8, 44460, Note_on_c, 4, 53, 88
8, 44518, Note_off_c, 4, 53, 0
8, 44520, Note_on_c, 4, 51, 88
8, 44578, Note_off_c, 4, 51, 0
8, 44580, Note_on_c, 4, 49, 88
8, 44638, Note_off_c, 4, 49, 0
8, 44640, Note_on_c, 4, 48, 88
8, 44756, Note_off_c, 4, 48, 0
8, 44760, Note_on_c, 4, 49, 88
8, 44876, Note_off_c, 4, 49, 0
8, 44880, Note_on_c, 4, 51, 88
8, 44996, Note_off_c, 4, 51, 0
8, 45000, Note_on_c, 4, 53, 88
8, 45116, Note_off_c, 4, 53, 0
8, 45120, Note_on_c, 4, 51, 88
8, 45236, Note_off_c, 4, 51, 0
8, 45240, Note_on_c, 4, 50, 88
8, 45356, Note_off_c, 4, 50, 0
8, 45360, Note_on_c, 4, 51, 88
8, 45476, Note_off_c, 4, 51, 0
8, 45480, Note_on_c, 4, 52, 88
8, 45596, Note_off_c, 4, 52, 0
8, 45600, Note_on_c, 4, 53, 88
8, 45775, Note_off_c, 4, 53, 0
8, 45780, Note_on_c, 4, 55, 88
8, 45838, Note_off_c, 4, 55, 0
8, 45840, Note_on_c, 4, 56, 88
8, 45956, Note_off_c, 4, 56, 0
8, 45960, Note_on_c, 4, 53, 88
8, 46076, Note_off_c, 4, 53, 0
8, 46080, Note_on_c, 4, 51, 88
8, 46314, Note_off_c, 4, 51, 0
8, 46440, Note_on_c, 4, 48, 88
8, 46556, Note_off_c, 4, 48, 0
8, 46560, Note_on_c, 4, 49, 88
8, 46794, Note_off_c, 4, 49, 0
8, 46860, Note_on_c, 4, 46, 88
8, 46918, Note_off_c, 4, 46, 0
8, 46920, Note_on_c, 4, 47, 88
8, 46978, Note_off_c, 4, 47, 0
8, 46980, Note_on_c, 4, 49, 88
8, 47038, Note_off_c, 4, 49, 0
8, 47040, Note_on_c, 4, 43, 88
8, 47156, Note_off_c, 4, 43, 0
8, 47160, Note_on_c, 4, 44, 88
8, 47276, Note_off_c, 4, 44, 0
8, 47280, Note_on_c, 4, 39, 88
8, 47514, Note_off_c, 4, 39, 0
8, 47520, Note_on_c, 4, 44, 88
8, 47990, Note_off_c, 4, 44, 0
8, 47990, End_track
0, 0, End_of_file
