0, 0, Header, 1, 6, 240
1, 0, Start_track
1, 0, Time_signature, 6, 3, 24, 8
1, 0, Tempo, 483870
1, 0, SMPTE_offset, 64, 0, 0, 0, 93
1, 0, End_track
2, 0, Start_track
2, 0, Title_t, "(C) & (P) 1993"
2, 127, End_track
3, 0, Start_track
3, 0, Title_t, "CCARH,Stanford"
3, 0, End_track
4, 0, Start_track
4, 0, Title_t, "Track 1"
4, 0, Program_c, 0, 6
4, 0, Note_on_c, 0, 68, 88
4, 116, Note_off_c, 0, 68, 0
4, 120, Note_on_c, 0, 70, 88
4, 236, Note_off_c, 0, 70, 0
4, 240, Note_on_c, 0, 71, 88
4, 356, Note_off_c, 0, 71, 0
4, 360, Note_on_c, 0, 70, 88
4, 476, Note_off_c, 0, 70, 0
4, 480, Note_on_c, 0, 75, 88
4, 596, Note_off_c, 0, 75, 0
4, 600, Note_on_c, 0, 63, 88
4, 716, Note_off_c, 0, 63, 0
4, 720, Note_on_c, 0, 68, 88
4, 836, Note_off_c, 0, 68, 0
4, 840, Note_on_c, 0, 71, 88
4, 956, Note_off_c, 0, 71, 0
4, 960, Note_on_c, 0, 70, 88
4, 1076, Note_off_c, 0, 70, 0
4, 1080, Note_on_c, 0, 71, 88
4, 1196, Note_off_c, 0, 71, 0
4, 1200, Note_on_c, 0, 70, 88
4, 1316, Note_off_c, 0, 70, 0
4, 1320, Note_on_c, 0, 68, 88
4, 1436, Note_off_c, 0, 68, 0
4, 1440, Note_on_c, 0, 70, 88
4, 1556, Note_off_c, 0, 70, 0
4, 1560, Note_on_c, 0, 71, 88
4, 1676, Note_off_c, 0, 71, 0
4, 1680, Note_on_c, 0, 73, 88
4, 1796, Note_off_c, 0, 73, 0
4, 1800, Note_on_c, 0, 71, 88
4, 1916, Note_off_c, 0, 71, 0
4, 1920, Note_on_c, 0, 76, 88
4, 2036, Note_off_c, 0, 76, 0
4, 2040, Note_on_c, 0, 68, 88
4, 2156, Note_off_c, 0, 68, 0
4, 2160, Note_on_c, 0, 70, 88
4, 2276, Note_off_c, 0, 70, 0
4, 2280, Note_on_c, 0, 73, 88
4, 2396, Note_off_c, 0, 73, 0
4, 2400, Note_on_c, 0, 71, 88
4, 2516, Note_off_c, 0, 71, 0
4, 2520, Note_on_c, 0, 73, 88
4, 2636, Note_off_c, 0, 73, 0
4, 2640, Note_on_c, 0, 71, 88
4, 2756, Note_off_c, 0, 71, 0
4, 2760, Note_on_c, 0, 70, 88
4, 2876, Note_off_c, 0, 70, 0
4, 2880, Note_on_c, 0, 71, 88
4, 3114, Note_off_c, 0, 71, 0
4, 3120, Note_on_c, 0, 72, 88
4, 3236, Note_off_c, 0, 72, 0
4, 3240, Note_on_c, 0, 73, 88
4, 3953, Note_off_c, 0, 73, 0
4, 3960, Note_on_c, 0, 72, 88
4, 4313, Note_off_c, 0, 72, 0
4, 4320, Note_on_c, 0, 73, 88
4, 4554, Note_off_c, 0, 73, 0
4, 4560, Note_on_c, 0, 74, 88
4, 4676, Note_off_c, 0, 74, 0
4, 4680, Note_on_c, 0, 75, 88
4, 5393, Note_off_c, 0, 75, 0
4, 5400, Note_on_c, 0, 74, 88
4, 5753, Note_off_c, 0, 74, 0
4, 5760, Note_on_c, 0, 75, 88
4, 5876, Note_off_c, 0, 75, 0
4, 5880, Note_on_c, 0, 73, 88
4, 6233, Note_off_c, 0, 73, 0
4, 6240, Note_on_c, 0, 70, 88
4, 6356, Note_off_c, 0, 70, 0
4, 6360, Note_on_c, 0, 72, 88
4, 6476, Note_off_c, 0, 72, 0
4, 6480, Note_on_c, 0, 73, 88
4, 6596, Note_off_c, 0, 73, 0
4, 6600, Note_on_c, 0, 71, 88
4, 6953, Note_off_c, 0, 71, 0
4, 6960, Note_on_c, 0, 68, 88
4, 7076, Note_off_c, 0, 68, 0
4, 7080, Note_on_c, 0, 70, 88
4, 7196, Note_off_c, 0, 70, 0
4, 7200, Note_on_c, 0, 71, 88
4, 7670, Note_off_c, 0, 71, 0
4, 7680, Note_on_c, 0, 70, 88
4, 7796, Note_off_c, 0, 70, 0
4, 7800, Note_on_c, 0, 73, 88
4, 7916, Note_off_c, 0, 73, 0
4, 7920, Note_on_c, 0, 67, 88
4, 8036, Note_off_c, 0, 67, 0
4, 8040, Note_on_c, 0, 75, 88
4, 8156, Note_off_c, 0, 75, 0
4, 8160, Note_on_c, 0, 68, 88
4, 8276, Note_off_c, 0, 68, 0
4, 8280, Note_on_c, 0, 73, 88
4, 8756, Note_off_c, 0, 73, 0
4, 8760, Note_on_c, 0, 76, 88
4, 8876, Note_off_c, 0, 76, 0
4, 8880, Note_on_c, 0, 75, 88
4, 8996, Note_off_c, 0, 75, 0
4, 9000, Note_on_c, 0, 73, 88
4, 9116, Note_off_c, 0, 73, 0
4, 9120, Note_on_c, 0, 71, 88
4, 9236, Note_off_c, 0, 71, 0
4, 9240, Note_on_c, 0, 70, 88
4, 9356, Note_off_c, 0, 70, 0
4, 9360, Note_on_c, 0, 71, 88
4, 9594, Note_off_c, 0, 71, 0
4, 9600, Note_on_c, 0, 75, 88
4, 9716, Note_off_c, 0, 75, 0
4, 9720, Note_on_c, 0, 80, 88
4, 10314, Note_off_c, 0, 80, 0
4, 10320, Note_on_c, 0, 79, 88
4, 10436, Note_off_c, 0, 79, 0
4, 10440, Note_on_c, 0, 80, 88
4, 10674, Note_off_c, 0, 80, 0
4, 10680, Note_on_c, 0, 83, 88
4, 10796, Note_off_c, 0, 83, 0
4, 10800, Note_on_c, 0, 73, 88
4, 11034, Note_off_c, 0, 73, 0
4, 11040, Note_on_c, 0, 75, 88
4, 11156, Note_off_c, 0, 75, 0
4, 11160, Note_on_c, 0, 76, 88
4, 11276, Note_off_c, 0, 76, 0
4, 11280, Note_on_c, 0, 75, 88
4, 11396, Note_off_c, 0, 75, 0
4, 11400, Note_on_c, 0, 73, 88
4, 11516, Note_off_c, 0, 73, 0
4, 11520, Note_on_c, 0, 75, 88
4, 11873, Note_off_c, 0, 75, 0
4, 11880, Note_on_c, 0, 73, 88
4, 12233, Note_off_c, 0, 73, 0
4, 12240, Note_on_c, 0, 71, 88
4, 12593, Note_off_c, 0, 71, 0
4, 12600, Note_on_c, 0, 70, 88
4, 12953, Note_off_c, 0, 70, 0
4, 12960, Note_on_c, 0, 68, 88
4, 13076, Note_off_c, 0, 68, 0
4, 13920, Note_on_c, 0, 75, 88
4, 14010, Note_off_c, 0, 75, 0
4, 14040, Note_on_c, 0, 75, 88
4, 14274, Note_off_c, 0, 75, 0
4, 14280, Note_on_c, 0, 74, 88
4, 14396, Note_off_c, 0, 74, 0
4, 14400, Note_on_c, 0, 75, 88
4, 14634, Note_off_c, 0, 75, 0
4, 15360, Note_on_c, 0, 76, 88
4, 15476, Note_off_c, 0, 76, 0
4, 15480, Note_on_c, 0, 75, 88
4, 15714, Note_off_c, 0, 75, 0
4, 15720, Note_on_c, 0, 73, 88
4, 15836, Note_off_c, 0, 73, 0
4, 15840, Note_on_c, 0, 71, 88
4, 16074, Note_off_c, 0, 71, 0
4, 16080, Note_on_c, 0, 68, 88
4, 16196, Note_off_c, 0, 68, 0
4, 16200, Note_on_c, 0, 70, 88
4, 16434, Note_off_c, 0, 70, 0
4, 16440, Note_on_c, 0, 72, 88
4, 16556, Note_off_c, 0, 72, 0
4, 16560, Note_on_c, 0, 73, 88
4, 16676, Note_off_c, 0, 73, 0
4, 16680, Note_on_c, 0, 68, 88
4, 16796, Note_off_c, 0, 68, 0
4, 16800, Note_on_c, 0, 73, 88
4, 17034, Note_off_c, 0, 73, 0
4, 17040, Note_on_c, 0, 70, 88
4, 17156, Note_off_c, 0, 70, 0
4, 17160, Note_on_c, 0, 72, 88
4, 17276, Note_off_c, 0, 72, 0
4, 17280, Note_on_c, 0, 76, 88
4, 17633, Note_off_c, 0, 76, 0
4, 17640, Note_on_c, 0, 75, 88
4, 18116, Note_off_c, 0, 75, 0
4, 18120, Note_on_c, 0, 73, 88
4, 18236, Note_off_c, 0, 73, 0
4, 18240, Note_on_c, 0, 81, 88
4, 18474, Note_off_c, 0, 81, 0
4, 18480, Note_on_c, 0, 79, 88
4, 18596, Note_off_c, 0, 79, 0
4, 18600, Note_on_c, 0, 80, 88
4, 18716, Note_off_c, 0, 80, 0
4, 18720, Note_on_c, 0, 73, 88
4, 19428, Note_off_c, 0, 73, 0
4, 19440, Note_on_c, 0, 71, 88
4, 20148, Note_off_c, 0, 71, 0
4, 20160, Note_on_c, 0, 70, 88
4, 20750, Note_off_c, 0, 70, 0
4, 20760, Note_on_c, 0, 74, 88
4, 20876, Note_off_c, 0, 74, 0
4, 20880, Note_on_c, 0, 75, 88
4, 20996, Note_off_c, 0, 75, 0
4, 21000, Note_on_c, 0, 77, 88
4, 21116, Note_off_c, 0, 77, 0
4, 21120, Note_on_c, 0, 78, 88
4, 21354, Note_off_c, 0, 78, 0
4, 21360, Note_on_c, 0, 77, 88
4, 21476, Note_off_c, 0, 77, 0
4, 21480, Note_on_c, 0, 80, 88
4, 21596, Note_off_c, 0, 80, 0
4, 21600, Note_on_c, 0, 74, 88
4, 21716, Note_off_c, 0, 74, 0
4, 21720, Note_on_c, 0, 77, 88
4, 21836, Note_off_c, 0, 77, 0
4, 21840, Note_on_c, 0, 70, 88
4, 21956, Note_off_c, 0, 70, 0
4, 21960, Note_on_c, 0, 75, 88
4, 22650, Note_off_c, 0, 75, 0
4, 22680, Note_on_c, 0, 75, 88
4, 22724, Note_off_c, 0, 75, 0
4, 22725, Note_on_c, 0, 74, 88
4, 22769, Note_off_c, 0, 74, 0
4, 22770, Note_on_c, 0, 75, 88
4, 22814, Note_off_c, 0, 75, 0
4, 22815, Note_on_c, 0, 74, 88
4, 22859, Note_off_c, 0, 74, 0
4, 22860, Note_on_c, 0, 75, 88
4, 22904, Note_off_c, 0, 75, 0
4, 22905, Note_on_c, 0, 74, 88
4, 22949, Note_off_c, 0, 74, 0
4, 22950, Note_on_c, 0, 72, 88
4, 22994, Note_off_c, 0, 72, 0
4, 22995, Note_on_c, 0, 74, 88
4, 23039, Note_off_c, 0, 74, 0
4, 23040, Note_on_c, 0, 75, 88
4, 23274, Note_off_c, 0, 75, 0
4, 23400, Note_on_c, 0, 68, 88
4, 23634, Note_off_c, 0, 68, 0
4, 23760, Note_on_c, 0, 66, 88
4, 23994, Note_off_c, 0, 66, 0
4, 26520, Note_on_c, 0, 64, 88
4, 26636, Note_off_c, 0, 64, 0
4, 26640, Note_on_c, 0, 66, 88
4, 26756, Note_off_c, 0, 66, 0
4, 26760, Note_on_c, 0, 69, 88
4, 26876, Note_off_c, 0, 69, 0
4, 26880, Note_on_c, 0, 68, 88
4, 26996, Note_off_c, 0, 68, 0
4, 27000, Note_on_c, 0, 69, 88
4, 27116, Note_off_c, 0, 69, 0
4, 27120, Note_on_c, 0, 68, 88
4, 27236, Note_off_c, 0, 68, 0
4, 27240, Note_on_c, 0, 66, 88
4, 27356, Note_off_c, 0, 66, 0
4, 27360, Note_on_c, 0, 64, 88
4, 27476, Note_off_c, 0, 64, 0
4, 27480, Note_on_c, 0, 68, 88
4, 27538, Note_off_c, 0, 68, 0
4, 27540, Note_on_c, 0, 66, 88
4, 27598, Note_off_c, 0, 66, 0
4, 27600, Note_on_c, 0, 68, 88
4, 27658, Note_off_c, 0, 68, 0
4, 27660, Note_on_c, 0, 70, 88
4, 27718, Note_off_c, 0, 70, 0
4, 27720, Note_on_c, 0, 71, 88
4, 28410, Note_off_c, 0, 71, 0
4, 28440, Note_on_c, 0, 71, 88
4, 28484, Note_off_c, 0, 71, 0
4, 28485, Note_on_c, 0, 70, 88
4, 28529, Note_off_c, 0, 70, 0
4, 28530, Note_on_c, 0, 71, 88
4, 28574, Note_off_c, 0, 71, 0
4, 28575, Note_on_c, 0, 70, 88
4, 28619, Note_off_c, 0, 70, 0
4, 28620, Note_on_c, 0, 71, 88
4, 28664, Note_off_c, 0, 71, 0
4, 28665, Note_on_c, 0, 70, 88
4, 28709, Note_off_c, 0, 70, 0
4, 28710, Note_on_c, 0, 68, 88
4, 28754, Note_off_c, 0, 68, 0
4, 28755, Note_on_c, 0, 70, 88
4, 28799, Note_off_c, 0, 70, 0
4, 28800, Note_on_c, 0, 71, 88
4, 29153, Note_off_c, 0, 71, 0
4, 29160, Note_on_c, 0, 73, 88
4, 29513, Note_off_c, 0, 73, 0
4, 29520, Note_on_c, 0, 75, 88
4, 29873, Note_off_c, 0, 75, 0
4, 29880, Note_on_c, 0, 76, 88
4, 29996, Note_off_c, 0, 76, 0
4, 30000, Note_on_c, 0, 75, 88
4, 30116, Note_off_c, 0, 75, 0
4, 30120, Note_on_c, 0, 73, 88
4, 30236, Note_off_c, 0, 73, 0
4, 30240, Note_on_c, 0, 71, 88
4, 30356, Note_off_c, 0, 71, 0
4, 30360, Note_on_c, 0, 75, 88
4, 30476, Note_off_c, 0, 75, 0
4, 30480, Note_on_c, 0, 78, 88
4, 30714, Note_off_c, 0, 78, 0
4, 30720, Note_on_c, 0, 75, 88
4, 30836, Note_off_c, 0, 75, 0
4, 30840, Note_on_c, 0, 77, 88
4, 31076, Note_off_c, 0, 77, 0
4, 31080, Note_on_c, 0, 70, 88
4, 31196, Note_off_c, 0, 70, 0
4, 31200, Note_on_c, 0, 75, 88
4, 31434, Note_off_c, 0, 75, 0
4, 31440, Note_on_c, 0, 72, 88
4, 31556, Note_off_c, 0, 72, 0
4, 31560, Note_on_c, 0, 74, 88
4, 31676, Note_off_c, 0, 74, 0
4, 31680, Note_on_c, 0, 75, 88
4, 31796, Note_off_c, 0, 75, 0
4, 31800, Note_on_c, 0, 77, 88
4, 31916, Note_off_c, 0, 77, 0
4, 31920, Note_on_c, 0, 78, 88
4, 32036, Note_off_c, 0, 78, 0
4, 32040, Note_on_c, 0, 77, 88
4, 32156, Note_off_c, 0, 77, 0
4, 32160, Note_on_c, 0, 82, 88
4, 32276, Note_off_c, 0, 82, 0
4, 32280, Note_on_c, 0, 70, 88
4, 32396, Note_off_c, 0, 70, 0
4, 32400, Note_on_c, 0, 75, 88
4, 32516, Note_off_c, 0, 75, 0
4, 32520, Note_on_c, 0, 78, 88
4, 32636, Note_off_c, 0, 78, 0
4, 32640, Note_on_c, 0, 77, 88
4, 32756, Note_off_c, 0, 77, 0
4, 32760, Note_on_c, 0, 78, 88
4, 32876, Note_off_c, 0, 78, 0
4, 32880, Note_on_c, 0, 77, 88
4, 32996, Note_off_c, 0, 77, 0
4, 33000, Note_on_c, 0, 75, 88
4, 33116, Note_off_c, 0, 75, 0
4, 33120, Note_on_c, 0, 77, 88
4, 33236, Note_off_c, 0, 77, 0
4, 33240, Note_on_c, 0, 78, 88
4, 33356, Note_off_c, 0, 78, 0
4, 33360, Note_on_c, 0, 80, 88
4, 33476, Note_off_c, 0, 80, 0
4, 33480, Note_on_c, 0, 78, 88
4, 33596, Note_off_c, 0, 78, 0
4, 33600, Note_on_c, 0, 83, 88
4, 33716, Note_off_c, 0, 83, 0
4, 33720, Note_on_c, 0, 75, 88
4, 33836, Note_off_c, 0, 75, 0
4, 33840, Note_on_c, 0, 77, 88
4, 33956, Note_off_c, 0, 77, 0
4, 33960, Note_on_c, 0, 80, 88
4, 34076, Note_off_c, 0, 80, 0
4, 34080, Note_on_c, 0, 78, 88
4, 34196, Note_off_c, 0, 78, 0
4, 34200, Note_on_c, 0, 80, 88
4, 34316, Note_off_c, 0, 80, 0
4, 34320, Note_on_c, 0, 78, 88
4, 34436, Note_off_c, 0, 78, 0
4, 34440, Note_on_c, 0, 77, 88
4, 34556, Note_off_c, 0, 77, 0
4, 34560, Note_on_c, 0, 78, 88
4, 34794, Note_off_c, 0, 78, 0
4, 34800, Note_on_c, 0, 79, 88
4, 34916, Note_off_c, 0, 79, 0
4, 34920, Note_on_c, 0, 80, 88
4, 35154, Note_off_c, 0, 80, 0
4, 35160, Note_on_c, 0, 78, 88
4, 35276, Note_off_c, 0, 78, 0
4, 35280, Note_on_c, 0, 76, 88
4, 35514, Note_off_c, 0, 76, 0
4, 35520, Note_on_c, 0, 77, 88
4, 35636, Note_off_c, 0, 77, 0
4, 35640, Note_on_c, 0, 78, 88
4, 35874, Note_off_c, 0, 78, 0
4, 35880, Note_on_c, 0, 76, 88
4, 35996, Note_off_c, 0, 76, 0
4, 36000, Note_on_c, 0, 75, 88
4, 36353, Note_off_c, 0, 75, 0
4, 36360, Note_on_c, 0, 73, 88
4, 36954, Note_off_c, 0, 73, 0
4, 36960, Note_on_c, 0, 71, 88
4, 37194, Note_off_c, 0, 71, 0
4, 37200, Note_on_c, 0, 70, 88
4, 37316, Note_off_c, 0, 70, 0
4, 37320, Note_on_c, 0, 73, 88
4, 37436, Note_off_c, 0, 73, 0
4, 37440, Note_on_c, 0, 67, 88
4, 37674, Note_off_c, 0, 67, 0
4, 37680, Note_on_c, 0, 70, 88
4, 37914, Note_off_c, 0, 70, 0
4, 37920, Note_on_c, 0, 63, 88
4, 38036, Note_off_c, 0, 63, 0
4, 38040, Note_on_c, 0, 68, 88
4, 38394, Note_off_c, 0, 68, 0
4, 38400, Note_on_c, 0, 73, 88
4, 38516, Note_off_c, 0, 73, 0
4, 38520, Note_on_c, 0, 68, 88
4, 38564, Note_off_c, 0, 68, 0
4, 38565, Note_on_c, 0, 67, 88
4, 38609, Note_off_c, 0, 67, 0
4, 38610, Note_on_c, 0, 68, 88
4, 38654, Note_off_c, 0, 68, 0
4, 38655, Note_on_c, 0, 67, 88
4, 38699, Note_off_c, 0, 67, 0
4, 38700, Note_on_c, 0, 68, 88
4, 38744, Note_off_c, 0, 68, 0
4, 38745, Note_on_c, 0, 67, 88
4, 38789, Note_off_c, 0, 67, 0
4, 38790, Note_on_c, 0, 68, 88
4, 38834, Note_off_c, 0, 68, 0
4, 38835, Note_on_c, 0, 67, 88
4, 38879, Note_off_c, 0, 67, 0
4, 38880, Note_on_c, 0, 68, 88
4, 39114, Note_off_c, 0, 68, 0
4, 39120, Note_on_c, 0, 63, 88
4, 39236, Note_off_c, 0, 63, 0
4, 39240, Note_on_c, 0, 61, 88
4, 39356, Note_off_c, 0, 61, 0
4, 39360, Note_on_c, 0, 59, 88
4, 39476, Note_off_c, 0, 59, 0
4, 39480, Note_on_c, 0, 58, 88
4, 39596, Note_off_c, 0, 58, 0
4, 39600, Note_on_c, 0, 59, 88
4, 39834, Note_off_c, 0, 59, 0
4, 40200, Note_on_c, 0, 71, 88
4, 40316, Note_off_c, 0, 71, 0
4, 40320, Note_on_c, 0, 73, 88
4, 40436, Note_off_c, 0, 73, 0
4, 40440, Note_on_c, 0, 75, 88
4, 40556, Note_off_c, 0, 75, 0
4, 40560, Note_on_c, 0, 76, 88
4, 40676, Note_off_c, 0, 76, 0
4, 40680, Note_on_c, 0, 75, 88
4, 40796, Note_off_c, 0, 75, 0
4, 40800, Note_on_c, 0, 73, 88
4, 40916, Note_off_c, 0, 73, 0
4, 40920, Note_on_c, 0, 71, 88
4, 41036, Note_off_c, 0, 71, 0
4, 41040, Note_on_c, 0, 73, 88
4, 41156, Note_off_c, 0, 73, 0
4, 41160, Note_on_c, 0, 70, 88
4, 41630, Note_off_c, 0, 70, 0
4, 41640, Note_on_c, 0, 75, 88
4, 41756, Note_off_c, 0, 75, 0
4, 41760, Note_on_c, 0, 75, 88
4, 42833, Note_off_c, 0, 75, 0
4, 42840, Note_on_c, 0, 74, 88
4, 43193, Note_off_c, 0, 74, 0
4, 43200, Note_on_c, 0, 75, 88
4, 43410, Note_off_c, 0, 75, 0
4, 43440, Note_on_c, 0, 75, 88
4, 43556, Note_off_c, 0, 75, 0
4, 43560, Note_on_c, 0, 74, 88
4, 43794, Note_off_c, 0, 74, 0
4, 43800, Note_on_c, 0, 73, 88
4, 43916, Note_off_c, 0, 73, 0
4, 43920, Note_on_c, 0, 72, 88
4, 44154, Note_off_c, 0, 72, 0
4, 44160, Note_on_c, 0, 71, 88
4, 44276, Note_off_c, 0, 71, 0
4, 44280, Note_on_c, 0, 70, 88
4, 44514, Note_off_c, 0, 70, 0
4, 44520, Note_on_c, 0, 72, 88
4, 44636, Note_off_c, 0, 72, 0
4, 44640, Note_on_c, 0, 73, 88
4, 44874, Note_off_c, 0, 73, 0
4, 44880, Note_on_c, 0, 74, 88
4, 44996, Note_off_c, 0, 74, 0
4, 45000, Note_on_c, 0, 75, 88
4, 45690, Note_off_c, 0, 75, 0
4, 45720, Note_on_c, 0, 75, 88
4, 45764, Note_off_c, 0, 75, 0
4, 45765, Note_on_c, 0, 74, 88
4, 45809, Note_off_c, 0, 74, 0
4, 45810, Note_on_c, 0, 75, 88
4, 45854, Note_off_c, 0, 75, 0
4, 45855, Note_on_c, 0, 74, 88
4, 45899, Note_off_c, 0, 74, 0
4, 45900, Note_on_c, 0, 75, 88
4, 45944, Note_off_c, 0, 75, 0
4, 45945, Note_on_c, 0, 74, 88
4, 45989, Note_off_c, 0, 74, 0
4, 45990, Note_on_c, 0, 72, 88
4, 46034, Note_off_c, 0, 72, 0
4, 46035, Note_on_c, 0, 74, 88
4, 46079, Note_off_c, 0, 74, 0
4, 46080, Note_on_c, 0, 75, 88
4, 46314, Note_off_c, 0, 75, 0
4, 46320, Note_on_c, 0, 73, 88
4, 46436, Note_off_c, 0, 73, 0
4, 46440, Note_on_c, 0, 71, 88
4, 46674, Note_off_c, 0, 71, 0
4, 46680, Note_on_c, 0, 70, 88
4, 46796, Note_off_c, 0, 70, 0
4, 46800, Note_on_c, 0, 68, 88
4, 47034, Note_off_c, 0, 68, 0
4, 47040, Note_on_c, 0, 73, 88
4, 47274, Note_off_c, 0, 73, 0
4, 47280, Note_on_c, 0, 70, 88
4, 47396, Note_off_c, 0, 70, 0
4, 47400, Note_on_c, 0, 72, 88
4, 47516, Note_off_c, 0, 72, 0
4, 47520, Note_on_c, 0, 73, 88
4, 47636, Note_off_c, 0, 73, 0
4, 47640, Note_on_c, 0, 68, 88
4, 47756, Note_off_c, 0, 68, 0
4, 47760, Note_on_c, 0, 70, 88
4, 47876, Note_off_c, 0, 70, 0
4, 47880, Note_on_c, 0, 71, 88
4, 47996, Note_off_c, 0, 71, 0
4, 48000, Note_on_c, 0, 73, 88
4, 48116, Note_off_c, 0, 73, 0
4, 48120, Note_on_c, 0, 71, 88
4, 48236, Note_off_c, 0, 71, 0
4, 48240, Note_on_c, 0, 70, 88
4, 48356, Note_off_c, 0, 70, 0
4, 48360, Note_on_c, 0, 75, 88
4, 48476, Note_off_c, 0, 75, 0
4, 48480, Note_on_c, 0, 73, 88
4, 48596, Note_off_c, 0, 73, 0
4, 48600, Note_on_c, 0, 71, 88
4, 48716, Note_off_c, 0, 71, 0
4, 48720, Note_on_c, 0, 76, 88
4, 48836, Note_off_c, 0, 76, 0
4, 48840, Note_on_c, 0, 75, 88
4, 48956, Note_off_c, 0, 75, 0
4, 48960, Note_on_c, 0, 73, 88
4, 49076, Note_off_c, 0, 73, 0
4, 49080, Note_on_c, 0, 75, 88
4, 49196, Note_off_c, 0, 75, 0
4, 49200, Note_on_c, 0, 76, 88
4, 49316, Note_off_c, 0, 76, 0
4, 49320, Note_on_c, 0, 70, 88
4, 49436, Note_off_c, 0, 70, 0
4, 49440, Note_on_c, 0, 75, 88
4, 49556, Note_off_c, 0, 75, 0
4, 49560, Note_on_c, 0, 73, 88
4, 49676, Note_off_c, 0, 73, 0
4, 49680, Note_on_c, 0, 71, 88
4, 49796, Note_off_c, 0, 71, 0
4, 49800, Note_on_c, 0, 73, 88
4, 49916, Note_off_c, 0, 73, 0
4, 49920, Note_on_c, 0, 75, 88
4, 50036, Note_off_c, 0, 75, 0
4, 50040, Note_on_c, 0, 68, 88
4, 50156, Note_off_c, 0, 68, 0
4, 50160, Note_on_c, 0, 73, 88
4, 50276, Note_off_c, 0, 73, 0
4, 50280, Note_on_c, 0, 75, 88
4, 50396, Note_off_c, 0, 75, 0
4, 50400, Note_on_c, 0, 76, 88
4, 50753, Note_off_c, 0, 76, 0
4, 50760, Note_on_c, 0, 75, 88
4, 51113, Note_off_c, 0, 75, 0
4, 51120, Note_on_c, 0, 73, 88
4, 51473, Note_off_c, 0, 73, 0
4, 51480, Note_on_c, 0, 71, 88
4, 51596, Note_off_c, 0, 71, 0
4, 51600, Note_on_c, 0, 80, 88
4, 51834, Note_off_c, 0, 80, 0
4, 51840, Note_on_c, 0, 78, 88
4, 51956, Note_off_c, 0, 78, 0
4, 51960, Note_on_c, 0, 76, 88
4, 52076, Note_off_c, 0, 76, 0
4, 52080, Note_on_c, 0, 75, 88
4, 52314, Note_off_c, 0, 75, 0
4, 52320, Note_on_c, 0, 73, 88
4, 52378, Note_off_c, 0, 73, 0
4, 52380, Note_on_c, 0, 72, 88
4, 52438, Note_off_c, 0, 72, 0
4, 52440, Note_on_c, 0, 73, 88
4, 52556, Note_off_c, 0, 73, 0
4, 52560, Note_on_c, 0, 75, 88
4, 53396, Note_off_c, 0, 75, 0
4, 53400, Note_on_c, 0, 68, 88
4, 53516, Note_off_c, 0, 68, 0
4, 53520, Note_on_c, 0, 73, 88
4, 53754, Note_off_c, 0, 73, 0
4, 53760, Note_on_c, 0, 71, 88
4, 53818, Note_off_c, 0, 71, 0
4, 53820, Note_on_c, 0, 70, 88
4, 53878, Note_off_c, 0, 70, 0
4, 53880, Note_on_c, 0, 71, 88
4, 53996, Note_off_c, 0, 71, 0
4, 54000, Note_on_c, 0, 70, 88
4, 54954, Note_off_c, 0, 70, 0
4, 54960, Note_on_c, 0, 68, 88
4, 55076, Note_off_c, 0, 68, 0
4, 55080, Note_on_c, 0, 73, 88
4, 55433, Note_off_c, 0, 73, 0
4, 55440, Note_on_c, 0, 71, 88
4, 55793, Note_off_c, 0, 71, 0
4, 55800, Note_on_c, 0, 70, 88
4, 56276, Note_off_c, 0, 70, 0
4, 56280, Note_on_c, 0, 68, 88
4, 56396, Note_off_c, 0, 68, 0
4, 56400, Note_on_c, 0, 80, 88
4, 56516, Note_off_c, 0, 80, 0
4, 56520, Note_on_c, 0, 79, 88
4, 56754, Note_off_c, 0, 79, 0
4, 56760, Note_on_c, 0, 78, 88
4, 56876, Note_off_c, 0, 78, 0
4, 56880, Note_on_c, 0, 77, 88
4, 57114, Note_off_c, 0, 77, 0
4, 57120, Note_on_c, 0, 76, 88
4, 57236, Note_off_c, 0, 76, 0
4, 57240, Note_on_c, 0, 75, 88
4, 57474, Note_off_c, 0, 75, 0
4, 57480, Note_on_c, 0, 77, 88
4, 57596, Note_off_c, 0, 77, 0
4, 57600, Note_on_c, 0, 78, 88
4, 57834, Note_off_c, 0, 78, 0
4, 57840, Note_on_c, 0, 79, 88
4, 57956, Note_off_c, 0, 79, 0
4, 57960, Note_on_c, 0, 80, 88
4, 58673, Note_off_c, 0, 80, 0
4, 58680, Note_on_c, 0, 79, 88
4, 59156, Note_off_c, 0, 79, 0
4, 59160, Note_on_c, 0, 77, 88
4, 59276, Note_off_c, 0, 77, 0
4, 59280, Note_on_c, 0, 79, 88
4, 59396, Note_off_c, 0, 79, 0
4, 59400, Note_on_c, 0, 80, 88
4, 59634, Note_off_c, 0, 80, 0
4, 59640, Note_on_c, 0, 81, 88
4, 59756, Note_off_c, 0, 81, 0
4, 59760, Note_on_c, 0, 82, 88
4, 60596, Note_off_c, 0, 82, 0
4, 60600, Note_on_c, 0, 78, 88
4, 60716, Note_off_c, 0, 78, 0
4, 60720, Note_on_c, 0, 80, 88
4, 60836, Note_off_c, 0, 80, 0
4, 60840, Note_on_c, 0, 82, 88
4, 61316, Note_off_c, 0, 82, 0
4, 61320, Note_on_c, 0, 80, 88
4, 61673, Note_off_c, 0, 80, 0
4, 61680, Note_on_c, 0, 77, 88
4, 61796, Note_off_c, 0, 77, 0
4, 61800, Note_on_c, 0, 78, 88
4, 61916, Note_off_c, 0, 78, 0
4, 61920, Note_on_c, 0, 77, 88
4, 62154, Note_off_c, 0, 77, 0
4, 62160, Note_on_c, 0, 78, 88
4, 62276, Note_off_c, 0, 78, 0
4, 62280, Note_on_c, 0, 80, 88
4, 62756, Note_off_c, 0, 80, 0
4, 62760, Note_on_c, 0, 78, 88
4, 63113, Note_off_c, 0, 78, 0
4, 63120, Note_on_c, 0, 75, 88
4, 63236, Note_off_c, 0, 75, 0
4, 63240, Note_on_c, 0, 76, 88
4, 63356, Note_off_c, 0, 76, 0
4, 63360, Note_on_c, 0, 75, 88
4, 63594, Note_off_c, 0, 75, 0
4, 63600, Note_on_c, 0, 73, 88
4, 63716, Note_off_c, 0, 73, 0
4, 63720, Note_on_c, 0, 71, 88
4, 64073, Note_off_c, 0, 71, 0
4, 64080, Note_on_c, 0, 70, 88
4, 64314, Note_off_c, 0, 70, 0
4, 64320, Note_on_c, 0, 72, 88
4, 64436, Note_off_c, 0, 72, 0
4, 64440, Note_on_c, 0, 73, 88
4, 64498, Note_off_c, 0, 73, 0
4, 64500, Note_on_c, 0, 75, 88
4, 64558, Note_off_c, 0, 75, 0
4, 64560, Note_on_c, 0, 76, 88
4, 64676, Note_off_c, 0, 76, 0
4, 64680, Note_on_c, 0, 75, 88
4, 64796, Note_off_c, 0, 75, 0
4, 64800, Note_on_c, 0, 68, 88
4, 65153, Note_off_c, 0, 68, 0
4, 65160, Note_on_c, 0, 73, 88
4, 65636, Note_off_c, 0, 73, 0
4, 65640, Note_on_c, 0, 71, 88
4, 65756, Note_off_c, 0, 71, 0
4, 65760, Note_on_c, 0, 73, 88
4, 65876, Note_off_c, 0, 73, 0
4, 65880, Note_on_c, 0, 75, 88
4, 65938, Note_off_c, 0, 75, 0
4, 65940, Note_on_c, 0, 73, 88
4, 65998, Note_off_c, 0, 73, 0
4, 66000, Note_on_c, 0, 71, 88
4, 66058, Note_off_c, 0, 71, 0
4, 66060, Note_on_c, 0, 70, 88
4, 66118, Note_off_c, 0, 70, 0
4, 66120, Note_on_c, 0, 71, 88
4, 66178, Note_off_c, 0, 71, 0
4, 66180, Note_on_c, 0, 76, 88
4, 66238, Note_off_c, 0, 76, 0
4, 66240, Note_on_c, 0, 70, 88
4, 66474, Note_off_c, 0, 70, 0
4, 66600, Note_on_c, 0, 76, 88
4, 66834, Note_off_c, 0, 76, 0
4, 66840, Note_on_c, 0, 82, 88
4, 66956, Note_off_c, 0, 82, 0
4, 66960, Note_on_c, 0, 75, 88
4, 67194, Note_off_c, 0, 75, 0
4, 67200, Note_on_c, 0, 80, 88
4, 67316, Note_off_c, 0, 80, 0
4, 67320, Note_on_c, 0, 73, 88
4, 67495, Note_off_c, 0, 73, 0
4, 67500, Note_on_c, 0, 76, 88
4, 67558, Note_off_c, 0, 76, 0
4, 67560, Note_on_c, 0, 75, 88
4, 67618, Note_off_c, 0, 75, 0
4, 67620, Note_on_c, 0, 73, 88
4, 67678, Note_off_c, 0, 73, 0
4, 67680, Note_on_c, 0, 71, 88
4, 68150, Note_off_c, 0, 71, 0
4, 68160, Note_on_c, 0, 70, 88
4, 68218, Note_off_c, 0, 70, 0
4, 68220, Note_on_c, 0, 68, 88
4, 68278, Note_off_c, 0, 68, 0
4, 68280, Note_on_c, 0, 67, 88
4, 68338, Note_off_c, 0, 67, 0
4, 68340, Note_on_c, 0, 65, 88
4, 68398, Note_off_c, 0, 65, 0
4, 68400, Note_on_c, 0, 63, 88
4, 68516, Note_off_c, 0, 63, 0
4, 68520, Note_on_c, 0, 75, 88
4, 68636, Note_off_c, 0, 75, 0
4, 68640, Note_on_c, 0, 68, 88
4, 68874, Note_off_c, 0, 68, 0
4, 68880, Note_on_c, 0, 67, 88
4, 68996, Note_off_c, 0, 67, 0
4, 69000, Note_on_c, 0, 73, 88
4, 69116, Note_off_c, 0, 73, 0
4, 69120, Note_on_c, 0, 71, 88
4, 69354, Note_off_c, 0, 71, 0
4, 73440, Note_on_c, 0, 75, 88
4, 73556, Note_off_c, 0, 75, 0
4, 73560, Note_on_c, 0, 77, 88
4, 73676, Note_off_c, 0, 77, 0
4, 73680, Note_on_c, 0, 78, 88
4, 73796, Note_off_c, 0, 78, 0
4, 73800, Note_on_c, 0, 77, 88
4, 73916, Note_off_c, 0, 77, 0
4, 73920, Note_on_c, 0, 82, 88
4, 74036, Note_off_c, 0, 82, 0
4, 74040, Note_on_c, 0, 70, 88
4, 74156, Note_off_c, 0, 70, 0
4, 74160, Note_on_c, 0, 75, 88
4, 74276, Note_off_c, 0, 75, 0
4, 74280, Note_on_c, 0, 78, 88
4, 74396, Note_off_c, 0, 78, 0
4, 74400, Note_on_c, 0, 77, 88
4, 74516, Note_off_c, 0, 77, 0
4, 74520, Note_on_c, 0, 78, 88
4, 74636, Note_off_c, 0, 78, 0
4, 74640, Note_on_c, 0, 77, 88
4, 74756, Note_off_c, 0, 77, 0
4, 74760, Note_on_c, 0, 75, 88
4, 74876, Note_off_c, 0, 75, 0
4, 74880, Note_on_c, 0, 77, 88
4, 74996, Note_off_c, 0, 77, 0
4, 75000, Note_on_c, 0, 78, 88
4, 75116, Note_off_c, 0, 78, 0
4, 75120, Note_on_c, 0, 80, 88
4, 75236, Note_off_c, 0, 80, 0
4, 75240, Note_on_c, 0, 78, 88
4, 75356, Note_off_c, 0, 78, 0
4, 75360, Note_on_c, 0, 83, 88
4, 75476, Note_off_c, 0, 83, 0
4, 75480, Note_on_c, 0, 75, 88
4, 75596, Note_off_c, 0, 75, 0
4, 75600, Note_on_c, 0, 77, 88
4, 75716, Note_off_c, 0, 77, 0
4, 75720, Note_on_c, 0, 80, 88
4, 75836, Note_off_c, 0, 80, 0
4, 75840, Note_on_c, 0, 78, 88
4, 75956, Note_off_c, 0, 78, 0
4, 75960, Note_on_c, 0, 80, 88
4, 76076, Note_off_c, 0, 80, 0
4, 76080, Note_on_c, 0, 78, 88
4, 76196, Note_off_c, 0, 78, 0
4, 76200, Note_on_c, 0, 77, 88
4, 76316, Note_off_c, 0, 77, 0
4, 76320, Note_on_c, 0, 78, 88
4, 76673, Note_off_c, 0, 78, 0
4, 76680, Note_on_c, 0, 77, 88
4, 76914, Note_off_c, 0, 77, 0
4, 76920, Note_on_c, 0, 76, 88
4, 77036, Note_off_c, 0, 76, 0
4, 77040, Note_on_c, 0, 75, 88
4, 77393, Note_off_c, 0, 75, 0
4, 77400, Note_on_c, 0, 74, 88
4, 77634, Note_off_c, 0, 74, 0
4, 77640, Note_on_c, 0, 73, 88
4, 77756, Note_off_c, 0, 73, 0
4, 77760, Note_on_c, 0, 71, 88
4, 77876, Note_off_c, 0, 71, 0
4, 77880, Note_on_c, 0, 75, 88
4, 77996, Note_off_c, 0, 75, 0
4, 78000, Note_on_c, 0, 80, 88
4, 78234, Note_off_c, 0, 80, 0
4, 78240, Note_on_c, 0, 78, 88
4, 78298, Note_off_c, 0, 78, 0
4, 78300, Note_on_c, 0, 76, 88
4, 78358, Note_off_c, 0, 76, 0
4, 78360, Note_on_c, 0, 78, 88
4, 78596, Note_off_c, 0, 78, 0
4, 78600, Note_on_c, 0, 71, 88
4, 78716, Note_off_c, 0, 71, 0
4, 78720, Note_on_c, 0, 76, 88
4, 78954, Note_off_c, 0, 76, 0
4, 78960, Note_on_c, 0, 75, 88
4, 79018, Note_off_c, 0, 75, 0
4, 79020, Note_on_c, 0, 73, 88
4, 79078, Note_off_c, 0, 73, 0
4, 79080, Note_on_c, 0, 75, 88
4, 79196, Note_off_c, 0, 75, 0
4, 79200, Note_on_c, 0, 73, 88
4, 79316, Note_off_c, 0, 73, 0
4, 79320, Note_on_c, 0, 75, 88
4, 79436, Note_off_c, 0, 75, 0
4, 79440, Note_on_c, 0, 76, 88
4, 79556, Note_off_c, 0, 76, 0
4, 79560, Note_on_c, 0, 75, 88
4, 79794, Note_off_c, 0, 75, 0
4, 79800, Note_on_c, 0, 74, 88
4, 79916, Note_off_c, 0, 74, 0
4, 79920, Note_on_c, 0, 73, 88
4, 80154, Note_off_c, 0, 73, 0
4, 80160, Note_on_c, 0, 72, 88
4, 80276, Note_off_c, 0, 72, 0
4, 80280, Note_on_c, 0, 71, 88
4, 80514, Note_off_c, 0, 71, 0
4, 80520, Note_on_c, 0, 73, 88
4, 80636, Note_off_c, 0, 73, 0
4, 80640, Note_on_c, 0, 74, 88
4, 80874, Note_off_c, 0, 74, 0
4, 80880, Note_on_c, 0, 75, 88
4, 80996, Note_off_c, 0, 75, 0
4, 81000, Note_on_c, 0, 76, 88
4, 81690, Note_off_c, 0, 76, 0
4, 81720, Note_on_c, 0, 76, 88
4, 81764, Note_off_c, 0, 76, 0
4, 81765, Note_on_c, 0, 75, 88
4, 81809, Note_off_c, 0, 75, 0
4, 81810, Note_on_c, 0, 76, 88
4, 81854, Note_off_c, 0, 76, 0
4, 81855, Note_on_c, 0, 75, 88
4, 81899, Note_off_c, 0, 75, 0
4, 81900, Note_on_c, 0, 76, 88
4, 81944, Note_off_c, 0, 76, 0
4, 81945, Note_on_c, 0, 75, 88
4, 81989, Note_off_c, 0, 75, 0
4, 81990, Note_on_c, 0, 73, 88
4, 82034, Note_off_c, 0, 73, 0
4, 82035, Note_on_c, 0, 75, 88
4, 82079, Note_off_c, 0, 75, 0
4, 82080, Note_on_c, 0, 76, 88
4, 82314, Note_off_c, 0, 76, 0
4, 82320, Note_on_c, 0, 68, 88
4, 82436, Note_off_c, 0, 68, 0
4, 82440, Note_on_c, 0, 70, 88
4, 82674, Note_off_c, 0, 70, 0
4, 82680, Note_on_c, 0, 72, 88
4, 82796, Note_off_c, 0, 72, 0
4, 82800, Note_on_c, 0, 73, 88
4, 83034, Note_off_c, 0, 73, 0
4, 83040, Note_on_c, 0, 69, 88
4, 83156, Note_off_c, 0, 69, 0
4, 83160, Note_on_c, 0, 66, 88
4, 83394, Note_off_c, 0, 66, 0
4, 83400, Note_on_c, 0, 68, 88
4, 83516, Note_off_c, 0, 68, 0
4, 83520, Note_on_c, 0, 64, 88
4, 83754, Note_off_c, 0, 64, 0
4, 84840, Note_on_c, 0, 71, 88
4, 85076, Note_off_c, 0, 71, 0
4, 85080, Note_on_c, 0, 70, 88
4, 85196, Note_off_c, 0, 70, 0
4, 85200, Note_on_c, 0, 72, 88
4, 85316, Note_off_c, 0, 72, 0
4, 85320, Note_on_c, 0, 73, 88
4, 85796, Note_off_c, 0, 73, 0
4, 85800, Note_on_c, 0, 72, 88
4, 85916, Note_off_c, 0, 72, 0
4, 85920, Note_on_c, 0, 74, 88
4, 86036, Note_off_c, 0, 74, 0
4, 86040, Note_on_c, 0, 75, 88
4, 86516, Note_off_c, 0, 75, 0
4, 86520, Note_on_c, 0, 74, 88
4, 86636, Note_off_c, 0, 74, 0
4, 86640, Note_on_c, 0, 75, 88
4, 86756, Note_off_c, 0, 75, 0
4, 86760, Note_on_c, 0, 77, 88
4, 87236, Note_off_c, 0, 77, 0
4, 87240, Note_on_c, 0, 75, 88
4, 87298, Note_off_c, 0, 75, 0
4, 87300, Note_on_c, 0, 74, 88
4, 87358, Note_off_c, 0, 74, 0
4, 87360, Note_on_c, 0, 75, 88
4, 87594, Note_off_c, 0, 75, 0
4, 87600, Note_on_c, 0, 73, 88
4, 87658, Note_off_c, 0, 73, 0
4, 87660, Note_on_c, 0, 71, 88
4, 87718, Note_off_c, 0, 71, 0
4, 87720, Note_on_c, 0, 73, 88
4, 87956, Note_off_c, 0, 73, 0
4, 87960, Note_on_c, 0, 75, 88
4, 88076, Note_off_c, 0, 75, 0
4, 88080, Note_on_c, 0, 73, 88
4, 88196, Note_off_c, 0, 73, 0
4, 88200, Note_on_c, 0, 71, 88
4, 88316, Note_off_c, 0, 71, 0
4, 88320, Note_on_c, 0, 76, 88
4, 88436, Note_off_c, 0, 76, 0
4, 88440, Note_on_c, 0, 75, 88
4, 88556, Note_off_c, 0, 75, 0
4, 88560, Note_on_c, 0, 73, 88
4, 88676, Note_off_c, 0, 73, 0
4, 88680, Note_on_c, 0, 75, 88
4, 88796, Note_off_c, 0, 75, 0
4, 88800, Note_on_c, 0, 76, 88
4, 88916, Note_off_c, 0, 76, 0
4, 88920, Note_on_c, 0, 70, 88
4, 89036, Note_off_c, 0, 70, 0
4, 89040, Note_on_c, 0, 75, 88
4, 89156, Note_off_c, 0, 75, 0
4, 89160, Note_on_c, 0, 73, 88
4, 89276, Note_off_c, 0, 73, 0
4, 89280, Note_on_c, 0, 71, 88
4, 89514, Note_off_c, 0, 71, 0
4, 90240, Note_on_c, 0, 61, 88
4, 90356, Note_off_c, 0, 61, 0
4, 90360, Note_on_c, 0, 66, 88
4, 90594, Note_off_c, 0, 66, 0
4, 90600, Note_on_c, 0, 68, 88
4, 90836, Note_off_c, 0, 68, 0
4, 90840, Note_on_c, 0, 66, 88
4, 90956, Note_off_c, 0, 66, 0
4, 90960, Note_on_c, 0, 64, 88
4, 91076, Note_off_c, 0, 64, 0
4, 91080, Note_on_c, 0, 63, 88
4, 91196, Note_off_c, 0, 63, 0
4, 91200, Note_on_c, 0, 68, 88
4, 91316, Note_off_c, 0, 68, 0
4, 91320, Note_on_c, 0, 71, 88
4, 91436, Note_off_c, 0, 71, 0
4, 91440, Note_on_c, 0, 65, 88
4, 91793, Note_off_c, 0, 65, 0
4, 91800, Note_on_c, 0, 70, 88
4, 92394, Note_off_c, 0, 70, 0
4, 92400, Note_on_c, 0, 68, 88
4, 92753, Note_off_c, 0, 68, 0
4, 92760, Note_on_c, 0, 67, 88
4, 92876, Note_off_c, 0, 67, 0
4, 92880, Note_on_c, 0, 68, 88
4, 93114, Note_off_c, 0, 68, 0
4, 93360, Note_on_c, 0, 75, 88
4, 93476, Note_off_c, 0, 75, 0
4, 93480, Note_on_c, 0, 73, 88
4, 93596, Note_off_c, 0, 73, 0
4, 93600, Note_on_c, 0, 75, 88
4, 93716, Note_off_c, 0, 75, 0
4, 93720, Note_on_c, 0, 73, 88
4, 93836, Note_off_c, 0, 73, 0
4, 93840, Note_on_c, 0, 71, 88
4, 93956, Note_off_c, 0, 71, 0
4, 93960, Note_on_c, 0, 73, 88
4, 94076, Note_off_c, 0, 73, 0
4, 94080, Note_on_c, 0, 71, 88
4, 94196, Note_off_c, 0, 71, 0
4, 94200, Note_on_c, 0, 70, 88
4, 94316, Note_off_c, 0, 70, 0
4, 94320, Note_on_c, 0, 71, 88
4, 94790, Note_off_c, 0, 71, 0
4, 94800, Note_on_c, 0, 70, 88
4, 94916, Note_off_c, 0, 70, 0
4, 94920, Note_on_c, 0, 68, 88
4, 95036, Note_off_c, 0, 68, 0
4, 95040, Note_on_c, 0, 70, 88
4, 95510, Note_off_c, 0, 70, 0
4, 95520, Note_on_c, 0, 68, 88
4, 95636, Note_off_c, 0, 68, 0
4, 95640, Note_on_c, 0, 67, 88
4, 95756, Note_off_c, 0, 67, 0
4, 95760, Note_on_c, 0, 68, 88
4, 96230, Note_off_c, 0, 68, 0
4, 96240, Note_on_c, 0, 65, 88
4, 96356, Note_off_c, 0, 65, 0
4, 96360, Note_on_c, 0, 67, 88
4, 96476, Note_off_c, 0, 67, 0
4, 96480, Note_on_c, 0, 68, 88
4, 96596, Note_off_c, 0, 68, 0
4, 96600, Note_on_c, 0, 70, 88
4, 96716, Note_off_c, 0, 70, 0
4, 96720, Note_on_c, 0, 71, 88
4, 96836, Note_off_c, 0, 71, 0
4, 96840, Note_on_c, 0, 70, 88
4, 96956, Note_off_c, 0, 70, 0
4, 96960, Note_on_c, 0, 75, 88
4, 97076, Note_off_c, 0, 75, 0
4, 97080, Note_on_c, 0, 63, 88
4, 97196, Note_off_c, 0, 63, 0
4, 97200, Note_on_c, 0, 68, 88
4, 97316, Note_off_c, 0, 68, 0
4, 97320, Note_on_c, 0, 71, 88
4, 97436, Note_off_c, 0, 71, 0
4, 97440, Note_on_c, 0, 70, 88
4, 97556, Note_off_c, 0, 70, 0
4, 97560, Note_on_c, 0, 71, 88
4, 97676, Note_off_c, 0, 71, 0
4, 97680, Note_on_c, 0, 70, 88
4, 97796, Note_off_c, 0, 70, 0
4, 97800, Note_on_c, 0, 68, 88
4, 97916, Note_off_c, 0, 68, 0
4, 97920, Note_on_c, 0, 70, 88
4, 98036, Note_off_c, 0, 70, 0
4, 98040, Note_on_c, 0, 71, 88
4, 98156, Note_off_c, 0, 71, 0
4, 98160, Note_on_c, 0, 73, 88
4, 98276, Note_off_c, 0, 73, 0
4, 98280, Note_on_c, 0, 71, 88
4, 98396, Note_off_c, 0, 71, 0
4, 98400, Note_on_c, 0, 76, 88
4, 98516, Note_off_c, 0, 76, 0
4, 98520, Note_on_c, 0, 68, 88
4, 98636, Note_off_c, 0, 68, 0
4, 98640, Note_on_c, 0, 70, 88
4, 98756, Note_off_c, 0, 70, 0
4, 98760, Note_on_c, 0, 73, 88
4, 98876, Note_off_c, 0, 73, 0
4, 98880, Note_on_c, 0, 71, 88
4, 98996, Note_off_c, 0, 71, 0
4, 99000, Note_on_c, 0, 73, 88
4, 99116, Note_off_c, 0, 73, 0
4, 99120, Note_on_c, 0, 71, 88
4, 99236, Note_off_c, 0, 71, 0
4, 99240, Note_on_c, 0, 70, 88
4, 99356, Note_off_c, 0, 70, 0
4, 99360, Note_on_c, 0, 71, 88
4, 99476, Note_off_c, 0, 71, 0
4, 99480, Note_on_c, 0, 73, 88
4, 99596, Note_off_c, 0, 73, 0
4, 99600, Note_on_c, 0, 75, 88
4, 99834, Note_off_c, 0, 75, 0
4, 99840, Note_on_c, 0, 73, 88
4, 99956, Note_off_c, 0, 73, 0
4, 99960, Note_on_c, 0, 71, 88
4, 100076, Note_off_c, 0, 71, 0
4, 100080, Note_on_c, 0, 70, 88
4, 100196, Note_off_c, 0, 70, 0
4, 100200, Note_on_c, 0, 77, 88
4, 100316, Note_off_c, 0, 77, 0
4, 100320, Note_on_c, 0, 70, 88
4, 100410, Note_off_c, 0, 70, 0
4, 100440, Note_on_c, 0, 70, 88
4, 100916, Note_off_c, 0, 70, 0
4, 100920, Note_on_c, 0, 76, 88
4, 101036, Note_off_c, 0, 76, 0
4, 101040, Note_on_c, 0, 75, 88
4, 101130, Note_off_c, 0, 75, 0
4, 101160, Note_on_c, 0, 75, 88
4, 101636, Note_off_c, 0, 75, 0
4, 101640, Note_on_c, 0, 73, 88
4, 101756, Note_off_c, 0, 73, 0
4, 101760, Note_on_c, 0, 71, 88
4, 101876, Note_off_c, 0, 71, 0
4, 101880, Note_on_c, 0, 75, 88
4, 101938, Note_off_c, 0, 75, 0
4, 101940, Note_on_c, 0, 73, 88
4, 101998, Note_off_c, 0, 73, 0
4, 102000, Note_on_c, 0, 71, 88
4, 102116, Note_off_c, 0, 71, 0
4, 102120, Note_on_c, 0, 70, 88
4, 102236, Note_off_c, 0, 70, 0
4, 102240, Note_on_c, 0, 68, 88
4, 102948, Note_off_c, 0, 68, 0
4, 102948, End_track
5, 0, Start_track
5, 0, Title_t, "Track 2"
5, 0, Program_c, 1, 6
5, 2880, Note_on_c, 1, 63, 88
5, 2996, Note_off_c, 1, 63, 0
5, 3000, Note_on_c, 1, 65, 88
5, 3116, Note_off_c, 1, 65, 0
5, 3120, Note_on_c, 1, 66, 88
5, 3236, Note_off_c, 1, 66, 0
5, 3240, Note_on_c, 1, 65, 88
5, 3356, Note_off_c, 1, 65, 0
5, 3360, Note_on_c, 1, 70, 88
5, 3476, Note_off_c, 1, 70, 0
5, 3480, Note_on_c, 1, 58, 88
5, 3596, Note_off_c, 1, 58, 0
5, 3600, Note_on_c, 1, 63, 88
5, 3716, Note_off_c, 1, 63, 0
5, 3720, Note_on_c, 1, 66, 88
5, 3836, Note_off_c, 1, 66, 0
5, 3840, Note_on_c, 1, 65, 88
5, 3956, Note_off_c, 1, 65, 0
5, 3960, Note_on_c, 1, 66, 88
5, 4076, Note_off_c, 1, 66, 0
5, 4080, Note_on_c, 1, 65, 88
5, 4196, Note_off_c, 1, 65, 0
5, 4200, Note_on_c, 1, 63, 88
5, 4316, Note_off_c, 1, 63, 0
5, 4320, Note_on_c, 1, 65, 88
5, 4436, Note_off_c, 1, 65, 0
5, 4440, Note_on_c, 1, 66, 88
5, 4556, Note_off_c, 1, 66, 0
5, 4560, Note_on_c, 1, 68, 88
5, 4676, Note_off_c, 1, 68, 0
5, 4680, Note_on_c, 1, 66, 88
5, 4796, Note_off_c, 1, 66, 0
5, 4800, Note_on_c, 1, 71, 88
5, 4916, Note_off_c, 1, 71, 0
5, 4920, Note_on_c, 1, 63, 88
5, 5036, Note_off_c, 1, 63, 0
5, 5040, Note_on_c, 1, 65, 88
5, 5156, Note_off_c, 1, 65, 0
5, 5160, Note_on_c, 1, 68, 88
5, 5276, Note_off_c, 1, 68, 0
5, 5280, Note_on_c, 1, 66, 88
5, 5396, Note_off_c, 1, 66, 0
5, 5400, Note_on_c, 1, 68, 88
5, 5516, Note_off_c, 1, 68, 0
5, 5520, Note_on_c, 1, 66, 88
5, 5636, Note_off_c, 1, 66, 0
5, 5640, Note_on_c, 1, 65, 88
5, 5756, Note_off_c, 1, 65, 0
5, 5760, Note_on_c, 1, 66, 88
5, 5994, Note_off_c, 1, 66, 0
5, 6000, Note_on_c, 1, 67, 88
5, 6116, Note_off_c, 1, 67, 0
5, 6120, Note_on_c, 1, 68, 88
5, 6354, Note_off_c, 1, 68, 0
5, 6360, Note_on_c, 1, 66, 88
5, 6476, Note_off_c, 1, 66, 0
5, 6480, Note_on_c, 1, 64, 88
5, 6714, Note_off_c, 1, 64, 0
5, 6720, Note_on_c, 1, 65, 88
5, 6836, Note_off_c, 1, 65, 0
5, 6840, Note_on_c, 1, 66, 88
5, 7074, Note_off_c, 1, 66, 0
5, 7080, Note_on_c, 1, 64, 88
5, 7196, Note_off_c, 1, 64, 0
5, 7200, Note_on_c, 1, 63, 88
5, 7316, Note_off_c, 1, 63, 0
5, 7320, Note_on_c, 1, 68, 88
5, 7436, Note_off_c, 1, 68, 0
5, 7440, Note_on_c, 1, 56, 88
5, 7556, Note_off_c, 1, 56, 0
5, 7560, Note_on_c, 1, 61, 88
5, 8154, Note_off_c, 1, 61, 0
5, 8160, Note_on_c, 1, 59, 88
5, 8276, Note_off_c, 1, 59, 0
5, 8280, Note_on_c, 1, 58, 88
5, 8396, Note_off_c, 1, 58, 0
5, 8400, Note_on_c, 1, 68, 88
5, 8516, Note_off_c, 1, 68, 0
5, 8520, Note_on_c, 1, 67, 88
5, 8636, Note_off_c, 1, 67, 0
5, 8640, Note_on_c, 1, 68, 88
5, 9230, Note_off_c, 1, 68, 0
5, 9240, Note_on_c, 1, 67, 88
5, 9356, Note_off_c, 1, 67, 0
5, 9360, Note_on_c, 1, 68, 88
5, 9594, Note_off_c, 1, 68, 0
5, 9960, Note_on_c, 1, 71, 88
5, 10076, Note_off_c, 1, 71, 0
5, 10080, Note_on_c, 1, 73, 88
5, 10196, Note_off_c, 1, 73, 0
5, 10200, Note_on_c, 1, 75, 88
5, 10316, Note_off_c, 1, 75, 0
5, 10320, Note_on_c, 1, 76, 88
5, 10436, Note_off_c, 1, 76, 0
5, 10440, Note_on_c, 1, 75, 88
5, 10556, Note_off_c, 1, 75, 0
5, 10560, Note_on_c, 1, 73, 88
5, 10676, Note_off_c, 1, 73, 0
5, 10680, Note_on_c, 1, 71, 88
5, 10916, Note_off_c, 1, 71, 0
5, 10920, Note_on_c, 1, 70, 88
5, 11036, Note_off_c, 1, 70, 0
5, 11040, Note_on_c, 1, 68, 88
5, 11156, Note_off_c, 1, 68, 0
5, 11160, Note_on_c, 1, 66, 88
5, 11610, Note_off_c, 1, 66, 0
5, 11640, Note_on_c, 1, 66, 88
5, 11756, Note_off_c, 1, 66, 0
5, 11760, Note_on_c, 1, 71, 88
5, 11994, Note_off_c, 1, 71, 0
5, 12000, Note_on_c, 1, 68, 88
5, 12116, Note_off_c, 1, 68, 0
5, 12120, Note_on_c, 1, 70, 88
5, 12356, Note_off_c, 1, 70, 0
5, 12360, Note_on_c, 1, 63, 88
5, 12476, Note_off_c, 1, 63, 0
5, 12480, Note_on_c, 1, 68, 88
5, 12714, Note_off_c, 1, 68, 0
5, 12720, Note_on_c, 1, 65, 88
5, 12836, Note_off_c, 1, 65, 0
5, 12840, Note_on_c, 1, 67, 88
5, 12956, Note_off_c, 1, 67, 0
5, 12960, Note_on_c, 1, 68, 88
5, 13076, Note_off_c, 1, 68, 0
5, 13080, Note_on_c, 1, 70, 88
5, 13196, Note_off_c, 1, 70, 0
5, 13200, Note_on_c, 1, 71, 88
5, 13316, Note_off_c, 1, 71, 0
5, 13320, Note_on_c, 1, 70, 88
5, 13436, Note_off_c, 1, 70, 0
5, 13440, Note_on_c, 1, 75, 88
5, 13556, Note_off_c, 1, 75, 0
5, 13560, Note_on_c, 1, 63, 88
5, 13676, Note_off_c, 1, 63, 0
5, 13680, Note_on_c, 1, 68, 88
5, 13796, Note_off_c, 1, 68, 0
5, 13800, Note_on_c, 1, 71, 88
5, 13916, Note_off_c, 1, 71, 0
5, 13920, Note_on_c, 1, 70, 88
5, 14036, Note_off_c, 1, 70, 0
5, 14040, Note_on_c, 1, 71, 88
5, 14156, Note_off_c, 1, 71, 0
5, 14160, Note_on_c, 1, 70, 88
5, 14276, Note_off_c, 1, 70, 0
5, 14280, Note_on_c, 1, 68, 88
5, 14396, Note_off_c, 1, 68, 0
5, 14400, Note_on_c, 1, 70, 88
5, 14516, Note_off_c, 1, 70, 0
5, 14520, Note_on_c, 1, 71, 88
5, 14636, Note_off_c, 1, 71, 0
5, 14640, Note_on_c, 1, 73, 88
5, 14756, Note_off_c, 1, 73, 0
5, 14760, Note_on_c, 1, 71, 88
5, 14876, Note_off_c, 1, 71, 0
5, 14880, Note_on_c, 1, 76, 88
5, 14996, Note_off_c, 1, 76, 0
5, 15000, Note_on_c, 1, 68, 88
5, 15116, Note_off_c, 1, 68, 0
5, 15120, Note_on_c, 1, 70, 88
5, 15236, Note_off_c, 1, 70, 0
5, 15240, Note_on_c, 1, 73, 88
5, 15356, Note_off_c, 1, 73, 0
5, 15360, Note_on_c, 1, 71, 88
5, 15476, Note_off_c, 1, 71, 0
5, 15480, Note_on_c, 1, 73, 88
5, 15596, Note_off_c, 1, 73, 0
5, 15600, Note_on_c, 1, 71, 88
5, 15716, Note_off_c, 1, 71, 0
5, 15720, Note_on_c, 1, 70, 88
5, 15836, Note_off_c, 1, 70, 0
5, 15840, Note_on_c, 1, 71, 88
5, 15956, Note_off_c, 1, 71, 0
5, 15960, Note_on_c, 1, 59, 88
5, 16076, Note_off_c, 1, 59, 0
5, 16080, Note_on_c, 1, 64, 88
5, 16314, Note_off_c, 1, 64, 0
5, 16320, Note_on_c, 1, 61, 88
5, 16436, Note_off_c, 1, 61, 0
5, 16440, Note_on_c, 1, 63, 88
5, 16556, Note_off_c, 1, 63, 0
5, 16560, Note_on_c, 1, 56, 88
5, 16913, Note_off_c, 1, 56, 0
5, 17520, Note_on_c, 1, 69, 88
5, 17636, Note_off_c, 1, 69, 0
5, 17640, Note_on_c, 1, 66, 88
5, 17874, Note_off_c, 1, 66, 0
5, 17880, Note_on_c, 1, 68, 88
5, 17996, Note_off_c, 1, 68, 0
5, 18000, Note_on_c, 1, 64, 88
5, 18353, Note_off_c, 1, 64, 0
5, 18360, Note_on_c, 1, 63, 88
5, 18713, Note_off_c, 1, 63, 0
5, 18720, Note_on_c, 1, 65, 88
5, 18836, Note_off_c, 1, 65, 0
5, 18840, Note_on_c, 1, 67, 88
5, 18956, Note_off_c, 1, 67, 0
5, 18960, Note_on_c, 1, 68, 88
5, 19076, Note_off_c, 1, 68, 0
5, 19080, Note_on_c, 1, 70, 88
5, 19556, Note_off_c, 1, 70, 0
5, 19560, Note_on_c, 1, 68, 88
5, 19676, Note_off_c, 1, 68, 0
5, 19680, Note_on_c, 1, 66, 88
5, 19796, Note_off_c, 1, 66, 0
5, 19800, Note_on_c, 1, 65, 88
5, 19916, Note_off_c, 1, 65, 0
5, 19920, Note_on_c, 1, 68, 88
5, 20036, Note_off_c, 1, 68, 0
5, 20040, Note_on_c, 1, 63, 88
5, 20156, Note_off_c, 1, 63, 0
5, 20160, Note_on_c, 1, 62, 88
5, 20276, Note_off_c, 1, 62, 0
5, 20280, Note_on_c, 1, 63, 88
5, 20396, Note_off_c, 1, 63, 0
5, 20400, Note_on_c, 1, 65, 88
5, 20516, Note_off_c, 1, 65, 0
5, 20520, Note_on_c, 1, 66, 88
5, 20996, Note_off_c, 1, 66, 0
5, 21000, Note_on_c, 1, 68, 88
5, 21116, Note_off_c, 1, 68, 0
5, 21120, Note_on_c, 1, 70, 88
5, 21236, Note_off_c, 1, 70, 0
5, 21240, Note_on_c, 1, 68, 88
5, 21953, Note_off_c, 1, 68, 0
5, 21960, Note_on_c, 1, 66, 88
5, 22076, Note_off_c, 1, 66, 0
5, 22080, Note_on_c, 1, 70, 88
5, 22196, Note_off_c, 1, 70, 0
5, 22200, Note_on_c, 1, 63, 88
5, 22316, Note_off_c, 1, 63, 0
5, 22320, Note_on_c, 1, 65, 88
5, 22436, Note_off_c, 1, 65, 0
5, 22440, Note_on_c, 1, 66, 88
5, 22556, Note_off_c, 1, 66, 0
5, 22560, Note_on_c, 1, 68, 88
5, 22794, Note_off_c, 1, 68, 0
5, 22800, Note_on_c, 1, 70, 88
5, 22916, Note_off_c, 1, 70, 0
5, 22920, Note_on_c, 1, 65, 88
5, 23036, Note_off_c, 1, 65, 0
5, 23040, Note_on_c, 1, 66, 88
5, 23156, Note_off_c, 1, 66, 0
5, 23160, Note_on_c, 1, 65, 88
5, 23276, Note_off_c, 1, 65, 0
5, 23280, Note_on_c, 1, 63, 88
5, 23514, Note_off_c, 1, 63, 0
5, 23520, Note_on_c, 1, 62, 88
5, 23636, Note_off_c, 1, 62, 0
5, 23640, Note_on_c, 1, 65, 88
5, 23876, Note_off_c, 1, 65, 0
5, 23880, Note_on_c, 1, 63, 88
5, 23996, Note_off_c, 1, 63, 0
5, 24000, Note_on_c, 1, 62, 88
5, 24116, Note_off_c, 1, 62, 0
5, 24120, Note_on_c, 1, 63, 88
5, 24354, Note_off_c, 1, 63, 0
5, 24360, Note_on_c, 1, 71, 88
5, 24476, Note_off_c, 1, 71, 0
5, 24480, Note_on_c, 1, 61, 88
5, 24714, Note_off_c, 1, 61, 0
5, 24720, Note_on_c, 1, 71, 88
5, 24836, Note_off_c, 1, 71, 0
5, 24840, Note_on_c, 1, 70, 88
5, 24956, Note_off_c, 1, 70, 0
5, 24960, Note_on_c, 1, 68, 88
5, 25076, Note_off_c, 1, 68, 0
5, 25080, Note_on_c, 1, 66, 88
5, 25196, Note_off_c, 1, 66, 0
5, 25200, Note_on_c, 1, 68, 88
5, 25316, Note_off_c, 1, 68, 0
5, 25320, Note_on_c, 1, 59, 88
5, 25436, Note_off_c, 1, 59, 0
5, 25440, Note_on_c, 1, 58, 88
5, 25556, Note_off_c, 1, 58, 0
5, 25560, Note_on_c, 1, 59, 88
5, 25676, Note_off_c, 1, 59, 0
5, 25680, Note_on_c, 1, 68, 88
5, 25796, Note_off_c, 1, 68, 0
5, 25800, Note_on_c, 1, 59, 88
5, 25916, Note_off_c, 1, 59, 0
5, 25920, Note_on_c, 1, 58, 88
5, 26154, Note_off_c, 1, 58, 0
5, 26160, Note_on_c, 1, 60, 88
5, 26276, Note_off_c, 1, 60, 0
5, 26280, Note_on_c, 1, 61, 88
5, 26970, Note_off_c, 1, 61, 0
5, 27000, Note_on_c, 1, 61, 88
5, 27044, Note_off_c, 1, 61, 0
5, 27045, Note_on_c, 1, 60, 88
5, 27089, Note_off_c, 1, 60, 0
5, 27090, Note_on_c, 1, 61, 88
5, 27134, Note_off_c, 1, 61, 0
5, 27135, Note_on_c, 1, 60, 88
5, 27179, Note_off_c, 1, 60, 0
5, 27180, Note_on_c, 1, 61, 88
5, 27224, Note_off_c, 1, 61, 0
5, 27225, Note_on_c, 1, 60, 88
5, 27269, Note_off_c, 1, 60, 0
5, 27270, Note_on_c, 1, 61, 88
5, 27314, Note_off_c, 1, 61, 0
5, 27315, Note_on_c, 1, 60, 88
5, 27359, Note_off_c, 1, 60, 0
5, 27360, Note_on_c, 1, 61, 88
5, 27594, Note_off_c, 1, 61, 0
5, 27840, Note_on_c, 1, 63, 88
5, 27956, Note_off_c, 1, 63, 0
5, 27960, Note_on_c, 1, 68, 88
5, 28076, Note_off_c, 1, 68, 0
5, 28080, Note_on_c, 1, 61, 88
5, 28196, Note_off_c, 1, 61, 0
5, 28200, Note_on_c, 1, 64, 88
5, 28316, Note_off_c, 1, 64, 0
5, 28320, Note_on_c, 1, 63, 88
5, 28436, Note_off_c, 1, 63, 0
5, 28440, Note_on_c, 1, 64, 88
5, 28556, Note_off_c, 1, 64, 0
5, 28560, Note_on_c, 1, 63, 88
5, 28676, Note_off_c, 1, 63, 0
5, 28680, Note_on_c, 1, 61, 88
5, 28796, Note_off_c, 1, 61, 0
5, 28800, Note_on_c, 1, 63, 88
5, 29034, Note_off_c, 1, 63, 0
5, 29040, Note_on_c, 1, 68, 88
5, 29156, Note_off_c, 1, 68, 0
5, 29160, Note_on_c, 1, 65, 88
5, 29394, Note_off_c, 1, 65, 0
5, 29400, Note_on_c, 1, 67, 88
5, 29516, Note_off_c, 1, 67, 0
5, 29520, Note_on_c, 1, 71, 88
5, 29873, Note_off_c, 1, 71, 0
5, 29880, Note_on_c, 1, 70, 88
5, 30233, Note_off_c, 1, 70, 0
5, 30240, Note_on_c, 1, 63, 88
5, 30474, Note_off_c, 1, 63, 0
5, 30480, Note_on_c, 1, 62, 88
5, 30596, Note_off_c, 1, 62, 0
5, 30600, Note_on_c, 1, 63, 88
5, 30834, Note_off_c, 1, 63, 0
5, 30840, Note_on_c, 1, 68, 88
5, 30956, Note_off_c, 1, 68, 0
5, 30960, Note_on_c, 1, 66, 88
5, 31313, Note_off_c, 1, 66, 0
5, 31320, Note_on_c, 1, 65, 88
5, 31673, Note_off_c, 1, 65, 0
5, 31680, Note_on_c, 1, 63, 88
5, 31796, Note_off_c, 1, 63, 0
5, 31800, Note_on_c, 1, 62, 88
5, 31916, Note_off_c, 1, 62, 0
5, 31920, Note_on_c, 1, 60, 88
5, 32036, Note_off_c, 1, 60, 0
5, 32040, Note_on_c, 1, 62, 88
5, 32156, Note_off_c, 1, 62, 0
5, 32160, Note_on_c, 1, 66, 88
5, 32516, Note_off_c, 1, 66, 0
5, 32520, Note_on_c, 1, 63, 88
5, 32636, Note_off_c, 1, 63, 0
5, 32640, Note_on_c, 1, 62, 88
5, 32756, Note_off_c, 1, 62, 0
5, 32760, Note_on_c, 1, 63, 88
5, 32876, Note_off_c, 1, 63, 0
5, 32880, Note_on_c, 1, 68, 88
5, 33354, Note_off_c, 1, 68, 0
5, 33360, Note_on_c, 1, 65, 88
5, 33476, Note_off_c, 1, 65, 0
5, 33480, Note_on_c, 1, 61, 88
5, 33596, Note_off_c, 1, 61, 0
5, 33600, Note_on_c, 1, 63, 88
5, 33716, Note_off_c, 1, 63, 0
5, 33720, Note_on_c, 1, 66, 88
5, 33836, Note_off_c, 1, 66, 0
5, 33840, Note_on_c, 1, 71, 88
5, 34193, Note_off_c, 1, 71, 0
5, 34200, Note_on_c, 1, 70, 88
5, 34676, Note_off_c, 1, 70, 0
5, 34680, Note_on_c, 1, 73, 88
5, 35033, Note_off_c, 1, 73, 0
5, 35040, Note_on_c, 1, 70, 88
5, 35156, Note_off_c, 1, 70, 0
5, 35160, Note_on_c, 1, 72, 88
5, 35276, Note_off_c, 1, 72, 0
5, 35280, Note_on_c, 1, 73, 88
5, 35396, Note_off_c, 1, 73, 0
5, 35400, Note_on_c, 1, 71, 88
5, 35753, Note_off_c, 1, 71, 0
5, 35760, Note_on_c, 1, 68, 88
5, 35876, Note_off_c, 1, 68, 0
5, 35880, Note_on_c, 1, 70, 88
5, 35996, Note_off_c, 1, 70, 0
5, 36000, Note_on_c, 1, 71, 88
5, 36353, Note_off_c, 1, 71, 0
5, 36360, Note_on_c, 1, 70, 88
5, 36836, Note_off_c, 1, 70, 0
5, 36840, Note_on_c, 1, 63, 88
5, 36956, Note_off_c, 1, 63, 0
5, 36960, Note_on_c, 1, 68, 88
5, 37076, Note_off_c, 1, 68, 0
5, 37080, Note_on_c, 1, 64, 88
5, 37556, Note_off_c, 1, 64, 0
5, 37560, Note_on_c, 1, 63, 88
5, 37676, Note_off_c, 1, 63, 0
5, 37680, Note_on_c, 1, 61, 88
5, 37796, Note_off_c, 1, 61, 0
5, 37800, Note_on_c, 1, 59, 88
5, 38153, Note_off_c, 1, 59, 0
5, 38160, Note_on_c, 1, 58, 88
5, 38276, Note_off_c, 1, 58, 0
5, 38280, Note_on_c, 1, 61, 88
5, 38396, Note_off_c, 1, 61, 0
5, 38400, Note_on_c, 1, 64, 88
5, 38634, Note_off_c, 1, 64, 0
5, 38640, Note_on_c, 1, 63, 88
5, 38756, Note_off_c, 1, 63, 0
5, 38760, Note_on_c, 1, 61, 88
5, 38876, Note_off_c, 1, 61, 0
5, 38880, Note_on_c, 1, 59, 88
5, 38996, Note_off_c, 1, 59, 0
5, 39000, Note_on_c, 1, 58, 88
5, 39116, Note_off_c, 1, 58, 0
5, 39120, Note_on_c, 1, 56, 88
5, 39473, Note_off_c, 1, 56, 0
5, 39480, Note_on_c, 1, 55, 88
5, 39596, Note_off_c, 1, 55, 0
5, 39600, Note_on_c, 1, 56, 88
5, 39834, Note_off_c, 1, 56, 0
5, 39840, Note_on_c, 1, 63, 88
5, 39956, Note_off_c, 1, 63, 0
5, 39960, Note_on_c, 1, 68, 88
5, 40554, Note_off_c, 1, 68, 0
5, 40560, Note_on_c, 1, 67, 88
5, 40676, Note_off_c, 1, 67, 0
5, 40680, Note_on_c, 1, 68, 88
5, 41250, Note_off_c, 1, 68, 0
5, 41280, Note_on_c, 1, 68, 88
5, 41396, Note_off_c, 1, 68, 0
5, 41400, Note_on_c, 1, 67, 88
5, 41634, Note_off_c, 1, 67, 0
5, 42000, Note_on_c, 1, 70, 88
5, 42116, Note_off_c, 1, 70, 0
5, 42120, Note_on_c, 1, 71, 88
5, 42354, Note_off_c, 1, 71, 0
5, 42360, Note_on_c, 1, 67, 88
5, 42476, Note_off_c, 1, 67, 0
5, 42480, Note_on_c, 1, 68, 88
5, 42596, Note_off_c, 1, 68, 0
5, 42600, Note_on_c, 1, 70, 88
5, 42716, Note_off_c, 1, 70, 0
5, 42720, Note_on_c, 1, 71, 88
5, 42954, Note_off_c, 1, 71, 0
5, 42960, Note_on_c, 1, 70, 88
5, 43076, Note_off_c, 1, 70, 0
5, 43080, Note_on_c, 1, 68, 88
5, 43316, Note_off_c, 1, 68, 0
5, 43320, Note_on_c, 1, 67, 88
5, 43436, Note_off_c, 1, 67, 0
5, 47040, Note_on_c, 1, 68, 88
5, 47156, Note_off_c, 1, 68, 0
5, 47160, Note_on_c, 1, 67, 88
5, 47394, Note_off_c, 1, 67, 0
5, 47400, Note_on_c, 1, 66, 88
5, 47516, Note_off_c, 1, 66, 0
5, 47520, Note_on_c, 1, 65, 88
5, 47754, Note_off_c, 1, 65, 0
5, 47760, Note_on_c, 1, 64, 88
5, 47876, Note_off_c, 1, 64, 0
5, 47880, Note_on_c, 1, 63, 88
5, 48114, Note_off_c, 1, 63, 0
5, 48120, Note_on_c, 1, 65, 88
5, 48236, Note_off_c, 1, 65, 0
5, 48240, Note_on_c, 1, 66, 88
5, 48474, Note_off_c, 1, 66, 0
5, 48480, Note_on_c, 1, 67, 88
5, 48596, Note_off_c, 1, 67, 0
5, 48600, Note_on_c, 1, 68, 88
5, 49290, Note_off_c, 1, 68, 0
5, 49320, Note_on_c, 1, 68, 88
5, 49364, Note_off_c, 1, 68, 0
5, 49365, Note_on_c, 1, 67, 88
5, 49409, Note_off_c, 1, 67, 0
5, 49410, Note_on_c, 1, 68, 88
5, 49454, Note_off_c, 1, 68, 0
5, 49455, Note_on_c, 1, 67, 88
5, 49499, Note_off_c, 1, 67, 0
5, 49500, Note_on_c, 1, 68, 88
5, 49544, Note_off_c, 1, 68, 0
5, 49545, Note_on_c, 1, 67, 88
5, 49589, Note_off_c, 1, 67, 0
5, 49590, Note_on_c, 1, 65, 88
5, 49634, Note_off_c, 1, 65, 0
5, 49635, Note_on_c, 1, 67, 88
5, 49679, Note_off_c, 1, 67, 0
5, 49680, Note_on_c, 1, 68, 88
5, 49914, Note_off_c, 1, 68, 0
5, 49920, Note_on_c, 1, 66, 88
5, 50036, Note_off_c, 1, 66, 0
5, 50040, Note_on_c, 1, 64, 88
5, 50274, Note_off_c, 1, 64, 0
5, 50280, Note_on_c, 1, 63, 88
5, 50396, Note_off_c, 1, 63, 0
5, 50400, Note_on_c, 1, 61, 88
5, 50516, Note_off_c, 1, 61, 0
5, 50520, Note_on_c, 1, 64, 88
5, 50636, Note_off_c, 1, 64, 0
5, 50640, Note_on_c, 1, 69, 88
5, 50874, Note_off_c, 1, 69, 0
5, 50880, Note_on_c, 1, 68, 88
5, 50938, Note_off_c, 1, 68, 0
5, 50940, Note_on_c, 1, 66, 88
5, 50998, Note_off_c, 1, 66, 0
5, 51000, Note_on_c, 1, 68, 88
5, 51236, Note_off_c, 1, 68, 0
5, 51240, Note_on_c, 1, 61, 88
5, 51356, Note_off_c, 1, 61, 0
5, 51360, Note_on_c, 1, 66, 88
5, 51594, Note_off_c, 1, 66, 0
5, 51600, Note_on_c, 1, 64, 88
5, 51658, Note_off_c, 1, 64, 0
5, 51660, Note_on_c, 1, 63, 88
5, 51718, Note_off_c, 1, 63, 0
5, 51720, Note_on_c, 1, 64, 88
5, 51836, Note_off_c, 1, 64, 0
5, 51840, Note_on_c, 1, 63, 88
5, 51956, Note_off_c, 1, 63, 0
5, 51960, Note_on_c, 1, 68, 88
5, 52076, Note_off_c, 1, 68, 0
5, 52080, Note_on_c, 1, 66, 88
5, 52196, Note_off_c, 1, 66, 0
5, 52200, Note_on_c, 1, 64, 88
5, 52316, Note_off_c, 1, 64, 0
5, 52320, Note_on_c, 1, 69, 88
5, 52436, Note_off_c, 1, 69, 0
5, 52440, Note_on_c, 1, 68, 88
5, 52556, Note_off_c, 1, 68, 0
5, 52560, Note_on_c, 1, 66, 88
5, 52676, Note_off_c, 1, 66, 0
5, 52680, Note_on_c, 1, 68, 88
5, 52796, Note_off_c, 1, 68, 0
5, 52800, Note_on_c, 1, 69, 88
5, 52916, Note_off_c, 1, 69, 0
5, 52920, Note_on_c, 1, 63, 88
5, 53036, Note_off_c, 1, 63, 0
5, 53040, Note_on_c, 1, 68, 88
5, 53156, Note_off_c, 1, 68, 0
5, 53160, Note_on_c, 1, 66, 88
5, 53276, Note_off_c, 1, 66, 0
5, 53280, Note_on_c, 1, 64, 88
5, 54116, Note_off_c, 1, 64, 0
5, 54120, Note_on_c, 1, 61, 88
5, 54236, Note_off_c, 1, 61, 0
5, 54240, Note_on_c, 1, 66, 88
5, 54474, Note_off_c, 1, 66, 0
5, 54480, Note_on_c, 1, 64, 88
5, 54538, Note_off_c, 1, 64, 0
5, 54540, Note_on_c, 1, 63, 88
5, 54598, Note_off_c, 1, 63, 0
5, 54600, Note_on_c, 1, 64, 88
5, 54716, Note_off_c, 1, 64, 0
5, 54720, Note_on_c, 1, 63, 88
5, 55073, Note_off_c, 1, 63, 0
5, 55080, Note_on_c, 1, 64, 88
5, 55433, Note_off_c, 1, 64, 0
5, 55440, Note_on_c, 1, 63, 88
5, 55793, Note_off_c, 1, 63, 0
5, 55800, Note_on_c, 1, 61, 88
5, 56153, Note_off_c, 1, 61, 0
5, 56160, Note_on_c, 1, 59, 88
5, 56394, Note_off_c, 1, 59, 0
5, 56400, Note_on_c, 1, 61, 88
5, 56634, Note_off_c, 1, 61, 0
5, 56640, Note_on_c, 1, 58, 88
5, 56756, Note_off_c, 1, 58, 0
5, 56760, Note_on_c, 1, 60, 88
5, 56876, Note_off_c, 1, 60, 0
5, 56880, Note_on_c, 1, 61, 88
5, 57350, Note_off_c, 1, 61, 0
5, 57360, Note_on_c, 1, 59, 88
5, 57716, Note_off_c, 1, 59, 0
5, 57720, Note_on_c, 1, 58, 88
5, 57954, Note_off_c, 1, 58, 0
5, 58080, Note_on_c, 1, 51, 88
5, 58196, Note_off_c, 1, 51, 0
5, 58200, Note_on_c, 1, 54, 88
5, 58436, Note_off_c, 1, 54, 0
5, 58440, Note_on_c, 1, 53, 88
5, 58556, Note_off_c, 1, 53, 0
5, 58560, Note_on_c, 1, 59, 88
5, 58794, Note_off_c, 1, 59, 0
5, 58800, Note_on_c, 1, 58, 88
5, 58858, Note_off_c, 1, 58, 0
5, 58860, Note_on_c, 1, 56, 88
5, 58918, Note_off_c, 1, 56, 0
5, 58920, Note_on_c, 1, 58, 88
5, 58978, Note_off_c, 1, 58, 0
5, 58980, Note_on_c, 1, 55, 88
5, 59038, Note_off_c, 1, 55, 0
5, 59040, Note_on_c, 1, 56, 88
5, 59274, Note_off_c, 1, 56, 0
5, 59280, Note_on_c, 1, 60, 88
5, 59396, Note_off_c, 1, 60, 0
5, 59400, Note_on_c, 1, 65, 88
5, 59634, Note_off_c, 1, 65, 0
5, 59880, Note_on_c, 1, 70, 88
5, 59996, Note_off_c, 1, 70, 0
5, 60000, Note_on_c, 1, 72, 88
5, 60116, Note_off_c, 1, 72, 0
5, 60120, Note_on_c, 1, 73, 88
5, 60354, Note_off_c, 1, 73, 0
5, 60360, Note_on_c, 1, 74, 88
5, 60476, Note_off_c, 1, 74, 0
5, 60480, Note_on_c, 1, 75, 88
5, 60930, Note_off_c, 1, 75, 0
5, 60960, Note_on_c, 1, 75, 88
5, 61076, Note_off_c, 1, 75, 0
5, 61080, Note_on_c, 1, 73, 88
5, 61196, Note_off_c, 1, 73, 0
5, 61200, Note_on_c, 1, 72, 88
5, 61434, Note_off_c, 1, 72, 0
5, 61440, Note_on_c, 1, 73, 88
5, 61556, Note_off_c, 1, 73, 0
5, 61560, Note_on_c, 1, 75, 88
5, 62036, Note_off_c, 1, 75, 0
5, 62040, Note_on_c, 1, 73, 88
5, 62393, Note_off_c, 1, 73, 0
5, 62400, Note_on_c, 1, 70, 88
5, 62516, Note_off_c, 1, 70, 0
5, 62520, Note_on_c, 1, 71, 88
5, 62636, Note_off_c, 1, 71, 0
5, 62640, Note_on_c, 1, 70, 88
5, 62874, Note_off_c, 1, 70, 0
5, 62880, Note_on_c, 1, 71, 88
5, 62996, Note_off_c, 1, 71, 0
5, 63000, Note_on_c, 1, 73, 88
5, 63476, Note_off_c, 1, 73, 0
5, 63480, Note_on_c, 1, 71, 88
5, 63596, Note_off_c, 1, 71, 0
5, 63600, Note_on_c, 1, 70, 88
5, 63834, Note_off_c, 1, 70, 0
5, 63840, Note_on_c, 1, 66, 88
5, 63956, Note_off_c, 1, 66, 0
5, 63960, Note_on_c, 1, 68, 88
5, 64196, Note_off_c, 1, 68, 0
5, 64200, Note_on_c, 1, 66, 88
5, 64916, Note_off_c, 1, 66, 0
5, 64920, Note_on_c, 1, 65, 88
5, 65036, Note_off_c, 1, 65, 0
5, 65040, Note_on_c, 1, 67, 88
5, 65156, Note_off_c, 1, 67, 0
5, 65160, Note_on_c, 1, 68, 88
5, 65218, Note_off_c, 1, 68, 0
5, 65220, Note_on_c, 1, 70, 88
5, 65278, Note_off_c, 1, 70, 0
5, 65280, Note_on_c, 1, 71, 88
5, 65396, Note_off_c, 1, 71, 0
5, 65400, Note_on_c, 1, 70, 88
5, 65516, Note_off_c, 1, 70, 0
5, 65520, Note_on_c, 1, 63, 88
5, 65873, Note_off_c, 1, 63, 0
5, 65880, Note_on_c, 1, 68, 88
5, 66356, Note_off_c, 1, 68, 0
5, 66360, Note_on_c, 1, 67, 88
5, 66476, Note_off_c, 1, 67, 0
5, 66480, Note_on_c, 1, 75, 88
5, 66714, Note_off_c, 1, 75, 0
5, 66720, Note_on_c, 1, 73, 88
5, 67076, Note_off_c, 1, 73, 0
5, 67080, Note_on_c, 1, 71, 88
5, 67433, Note_off_c, 1, 71, 0
5, 67440, Note_on_c, 1, 70, 88
5, 67796, Note_off_c, 1, 70, 0
5, 67800, Note_on_c, 1, 68, 88
5, 67858, Note_off_c, 1, 68, 0
5, 67860, Note_on_c, 1, 66, 88
5, 67918, Note_off_c, 1, 66, 0
5, 67920, Note_on_c, 1, 64, 88
5, 67978, Note_off_c, 1, 64, 0
5, 67980, Note_on_c, 1, 63, 88
5, 68038, Note_off_c, 1, 63, 0
5, 68040, Note_on_c, 1, 61, 88
5, 68634, Note_off_c, 1, 61, 0
5, 68640, Note_on_c, 1, 59, 88
5, 68756, Note_off_c, 1, 59, 0
5, 68760, Note_on_c, 1, 58, 88
5, 68818, Note_off_c, 1, 58, 0
5, 68820, Note_on_c, 1, 56, 88
5, 68878, Note_off_c, 1, 56, 0
5, 68880, Note_on_c, 1, 58, 88
5, 68996, Note_off_c, 1, 58, 0
5, 69000, Note_on_c, 1, 51, 88
5, 69116, Note_off_c, 1, 51, 0
5, 69120, Note_on_c, 1, 56, 88
5, 69354, Note_off_c, 1, 56, 0
5, 69360, Note_on_c, 1, 68, 88
5, 69476, Note_off_c, 1, 68, 0
5, 69480, Note_on_c, 1, 67, 88
5, 69714, Note_off_c, 1, 67, 0
5, 69720, Note_on_c, 1, 66, 88
5, 69836, Note_off_c, 1, 66, 0
5, 69840, Note_on_c, 1, 65, 88
5, 70074, Note_off_c, 1, 65, 0
5, 70080, Note_on_c, 1, 64, 88
5, 70196, Note_off_c, 1, 64, 0
5, 70200, Note_on_c, 1, 63, 88
5, 70434, Note_off_c, 1, 63, 0
5, 70440, Note_on_c, 1, 65, 88
5, 70556, Note_off_c, 1, 65, 0
5, 70560, Note_on_c, 1, 66, 88
5, 70794, Note_off_c, 1, 66, 0
5, 70800, Note_on_c, 1, 67, 88
5, 70916, Note_off_c, 1, 67, 0
5, 70920, Note_on_c, 1, 68, 88
5, 71633, Note_off_c, 1, 68, 0
5, 71640, Note_on_c, 1, 67, 88
5, 71993, Note_off_c, 1, 67, 0
5, 72000, Note_on_c, 1, 68, 88
5, 72116, Note_off_c, 1, 68, 0
5, 72120, Note_on_c, 1, 71, 88
5, 72236, Note_off_c, 1, 71, 0
5, 72240, Note_on_c, 1, 63, 88
5, 72356, Note_off_c, 1, 63, 0
5, 72360, Note_on_c, 1, 64, 88
5, 72476, Note_off_c, 1, 64, 0
5, 72480, Note_on_c, 1, 63, 88
5, 72596, Note_off_c, 1, 63, 0
5, 72600, Note_on_c, 1, 61, 88
5, 72716, Note_off_c, 1, 61, 0
5, 72720, Note_on_c, 1, 59, 88
5, 72778, Note_off_c, 1, 59, 0
5, 72780, Note_on_c, 1, 63, 88
5, 72838, Note_off_c, 1, 63, 0
5, 72840, Note_on_c, 1, 68, 88
5, 72956, Note_off_c, 1, 68, 0
5, 72960, Note_on_c, 1, 66, 88
5, 73076, Note_off_c, 1, 66, 0
5, 73080, Note_on_c, 1, 65, 88
5, 73196, Note_off_c, 1, 65, 0
5, 73200, Note_on_c, 1, 70, 88
5, 73316, Note_off_c, 1, 70, 0
5, 73320, Note_on_c, 1, 68, 88
5, 73436, Note_off_c, 1, 68, 0
5, 73440, Note_on_c, 1, 66, 88
5, 73674, Note_off_c, 1, 66, 0
5, 73680, Note_on_c, 1, 63, 88
5, 73796, Note_off_c, 1, 63, 0
5, 73800, Note_on_c, 1, 62, 88
5, 74034, Note_off_c, 1, 62, 0
5, 74040, Note_on_c, 1, 61, 88
5, 74156, Note_off_c, 1, 61, 0
5, 74160, Note_on_c, 1, 60, 88
5, 74394, Note_off_c, 1, 60, 0
5, 74400, Note_on_c, 1, 59, 88
5, 74516, Note_off_c, 1, 59, 0
5, 74520, Note_on_c, 1, 58, 88
5, 74754, Note_off_c, 1, 58, 0
5, 74760, Note_on_c, 1, 60, 88
5, 74876, Note_off_c, 1, 60, 0
5, 74880, Note_on_c, 1, 61, 88
5, 75114, Note_off_c, 1, 61, 0
5, 75120, Note_on_c, 1, 62, 88
5, 75236, Note_off_c, 1, 62, 0
5, 75240, Note_on_c, 1, 63, 88
5, 75930, Note_off_c, 1, 63, 0
5, 75960, Note_on_c, 1, 63, 88
5, 76004, Note_off_c, 1, 63, 0
5, 76005, Note_on_c, 1, 62, 88
5, 76049, Note_off_c, 1, 62, 0
5, 76050, Note_on_c, 1, 63, 88
5, 76094, Note_off_c, 1, 63, 0
5, 76095, Note_on_c, 1, 62, 88
5, 76139, Note_off_c, 1, 62, 0
5, 76140, Note_on_c, 1, 63, 88
5, 76184, Note_off_c, 1, 63, 0
5, 76185, Note_on_c, 1, 62, 88
5, 76229, Note_off_c, 1, 62, 0
5, 76230, Note_on_c, 1, 63, 88
5, 76274, Note_off_c, 1, 63, 0
5, 76275, Note_on_c, 1, 62, 88
5, 76319, Note_off_c, 1, 62, 0
5, 76320, Note_on_c, 1, 63, 88
5, 76436, Note_off_c, 1, 63, 0
5, 76440, Note_on_c, 1, 70, 88
5, 76556, Note_off_c, 1, 70, 0
5, 76560, Note_on_c, 1, 75, 88
5, 76794, Note_off_c, 1, 75, 0
5, 76800, Note_on_c, 1, 73, 88
5, 76858, Note_off_c, 1, 73, 0
5, 76860, Note_on_c, 1, 71, 88
5, 76918, Note_off_c, 1, 71, 0
5, 76920, Note_on_c, 1, 73, 88
5, 77156, Note_off_c, 1, 73, 0
5, 77160, Note_on_c, 1, 66, 88
5, 77276, Note_off_c, 1, 66, 0
5, 77280, Note_on_c, 1, 71, 88
5, 77514, Note_off_c, 1, 71, 0
5, 77520, Note_on_c, 1, 70, 88
5, 77578, Note_off_c, 1, 70, 0
5, 77580, Note_on_c, 1, 68, 88
5, 77638, Note_off_c, 1, 68, 0
5, 77640, Note_on_c, 1, 70, 88
5, 77756, Note_off_c, 1, 70, 0
5, 77760, Note_on_c, 1, 71, 88
5, 78113, Note_off_c, 1, 71, 0
5, 78120, Note_on_c, 1, 70, 88
5, 78354, Note_off_c, 1, 70, 0
5, 78360, Note_on_c, 1, 69, 88
5, 78476, Note_off_c, 1, 69, 0
5, 78480, Note_on_c, 1, 68, 88
5, 78833, Note_off_c, 1, 68, 0
5, 78840, Note_on_c, 1, 67, 88
5, 79074, Note_off_c, 1, 67, 0
5, 79080, Note_on_c, 1, 66, 88
5, 79196, Note_off_c, 1, 66, 0
5, 79200, Note_on_c, 1, 64, 88
5, 79316, Note_off_c, 1, 64, 0
5, 79320, Note_on_c, 1, 66, 88
5, 79436, Note_off_c, 1, 66, 0
5, 79440, Note_on_c, 1, 68, 88
5, 79556, Note_off_c, 1, 68, 0
5, 79560, Note_on_c, 1, 66, 88
5, 79676, Note_off_c, 1, 66, 0
5, 79680, Note_on_c, 1, 71, 88
5, 79796, Note_off_c, 1, 71, 0
5, 79800, Note_on_c, 1, 59, 88
5, 79916, Note_off_c, 1, 59, 0
5, 79920, Note_on_c, 1, 64, 88
5, 80036, Note_off_c, 1, 64, 0
5, 80040, Note_on_c, 1, 68, 88
5, 80156, Note_off_c, 1, 68, 0
5, 80160, Note_on_c, 1, 66, 88
5, 80276, Note_off_c, 1, 66, 0
5, 80280, Note_on_c, 1, 68, 88
5, 80396, Note_off_c, 1, 68, 0
5, 80400, Note_on_c, 1, 66, 88
5, 80516, Note_off_c, 1, 66, 0
5, 80520, Note_on_c, 1, 64, 88
5, 80636, Note_off_c, 1, 64, 0
5, 80640, Note_on_c, 1, 66, 88
5, 80756, Note_off_c, 1, 66, 0
5, 80760, Note_on_c, 1, 68, 88
5, 80876, Note_off_c, 1, 68, 0
5, 80880, Note_on_c, 1, 69, 88
5, 80996, Note_off_c, 1, 69, 0
5, 81000, Note_on_c, 1, 68, 88
5, 81116, Note_off_c, 1, 68, 0
5, 81120, Note_on_c, 1, 73, 88
5, 81236, Note_off_c, 1, 73, 0
5, 81240, Note_on_c, 1, 64, 88
5, 81356, Note_off_c, 1, 64, 0
5, 81360, Note_on_c, 1, 66, 88
5, 81476, Note_off_c, 1, 66, 0
5, 81480, Note_on_c, 1, 69, 88
5, 81596, Note_off_c, 1, 69, 0
5, 81600, Note_on_c, 1, 68, 88
5, 81716, Note_off_c, 1, 68, 0
5, 81720, Note_on_c, 1, 69, 88
5, 81836, Note_off_c, 1, 69, 0
5, 81840, Note_on_c, 1, 68, 88
5, 81956, Note_off_c, 1, 68, 0
5, 81960, Note_on_c, 1, 66, 88
5, 82076, Note_off_c, 1, 66, 0
5, 82080, Note_on_c, 1, 68, 88
5, 82290, Note_off_c, 1, 68, 0
5, 82320, Note_on_c, 1, 68, 88
5, 82436, Note_off_c, 1, 68, 0
5, 82440, Note_on_c, 1, 67, 88
5, 82674, Note_off_c, 1, 67, 0
5, 82680, Note_on_c, 1, 66, 88
5, 82796, Note_off_c, 1, 66, 0
5, 82800, Note_on_c, 1, 65, 88
5, 83034, Note_off_c, 1, 65, 0
5, 83040, Note_on_c, 1, 64, 88
5, 83156, Note_off_c, 1, 64, 0
5, 83160, Note_on_c, 1, 63, 88
5, 83636, Note_off_c, 1, 63, 0
5, 83640, Note_on_c, 1, 61, 88
5, 83756, Note_off_c, 1, 61, 0
5, 83760, Note_on_c, 1, 69, 88
5, 83994, Note_off_c, 1, 69, 0
5, 84000, Note_on_c, 1, 68, 88
5, 84058, Note_off_c, 1, 68, 0
5, 84060, Note_on_c, 1, 66, 88
5, 84118, Note_off_c, 1, 66, 0
5, 84120, Note_on_c, 1, 68, 88
5, 84356, Note_off_c, 1, 68, 0
5, 84360, Note_on_c, 1, 61, 88
5, 84476, Note_off_c, 1, 61, 0
5, 84480, Note_on_c, 1, 66, 88
5, 84714, Note_off_c, 1, 66, 0
5, 84720, Note_on_c, 1, 65, 88
5, 84778, Note_off_c, 1, 65, 0
5, 84780, Note_on_c, 1, 63, 88
5, 84838, Note_off_c, 1, 63, 0
5, 84840, Note_on_c, 1, 65, 88
5, 84956, Note_off_c, 1, 65, 0
5, 84960, Note_on_c, 1, 66, 88
5, 85430, Note_off_c, 1, 66, 0
5, 85440, Note_on_c, 1, 65, 88
5, 85556, Note_off_c, 1, 65, 0
5, 85560, Note_on_c, 1, 67, 88
5, 85676, Note_off_c, 1, 67, 0
5, 85680, Note_on_c, 1, 68, 88
5, 86150, Note_off_c, 1, 68, 0
5, 86160, Note_on_c, 1, 67, 88
5, 86276, Note_off_c, 1, 67, 0
5, 86280, Note_on_c, 1, 69, 88
5, 86396, Note_off_c, 1, 69, 0
5, 86400, Note_on_c, 1, 70, 88
5, 86990, Note_off_c, 1, 70, 0
5, 87000, Note_on_c, 1, 68, 88
5, 87116, Note_off_c, 1, 68, 0
5, 87120, Note_on_c, 1, 66, 88
5, 87236, Note_off_c, 1, 66, 0
5, 87720, Note_on_c, 1, 70, 88
5, 87836, Note_off_c, 1, 70, 0
5, 87840, Note_on_c, 1, 63, 88
5, 88310, Note_off_c, 1, 63, 0
5, 88320, Note_on_c, 1, 61, 88
5, 88436, Note_off_c, 1, 61, 0
5, 88440, Note_on_c, 1, 59, 88
5, 88556, Note_off_c, 1, 59, 0
5, 88560, Note_on_c, 1, 58, 88
5, 88676, Note_off_c, 1, 58, 0
5, 88680, Note_on_c, 1, 59, 88
5, 88796, Note_off_c, 1, 59, 0
5, 88800, Note_on_c, 1, 61, 88
5, 88916, Note_off_c, 1, 61, 0
5, 88920, Note_on_c, 1, 63, 88
5, 89154, Note_off_c, 1, 63, 0
5, 89160, Note_on_c, 1, 51, 88
5, 89276, Note_off_c, 1, 51, 0
5, 89280, Note_on_c, 1, 56, 88
5, 89396, Note_off_c, 1, 56, 0
5, 89400, Note_on_c, 1, 58, 88
5, 89516, Note_off_c, 1, 58, 0
5, 89520, Note_on_c, 1, 59, 88
5, 89636, Note_off_c, 1, 59, 0
5, 89640, Note_on_c, 1, 58, 88
5, 89756, Note_off_c, 1, 58, 0
5, 89760, Note_on_c, 1, 63, 88
5, 89876, Note_off_c, 1, 63, 0
5, 89880, Note_on_c, 1, 51, 88
5, 89996, Note_off_c, 1, 51, 0
5, 90000, Note_on_c, 1, 56, 88
5, 90116, Note_off_c, 1, 56, 0
5, 90120, Note_on_c, 1, 59, 88
5, 90236, Note_off_c, 1, 59, 0
5, 90240, Note_on_c, 1, 58, 88
5, 90356, Note_off_c, 1, 58, 0
5, 90360, Note_on_c, 1, 59, 88
5, 90476, Note_off_c, 1, 59, 0
5, 90480, Note_on_c, 1, 58, 88
5, 90596, Note_off_c, 1, 58, 0
5, 90600, Note_on_c, 1, 56, 88
5, 90716, Note_off_c, 1, 56, 0
5, 90720, Note_on_c, 1, 58, 88
5, 90836, Note_off_c, 1, 58, 0
5, 90840, Note_on_c, 1, 59, 88
5, 90956, Note_off_c, 1, 59, 0
5, 90960, Note_on_c, 1, 61, 88
5, 91076, Note_off_c, 1, 61, 0
5, 91080, Note_on_c, 1, 59, 88
5, 91196, Note_off_c, 1, 59, 0
5, 91200, Note_on_c, 1, 64, 88
5, 91316, Note_off_c, 1, 64, 0
5, 91320, Note_on_c, 1, 56, 88
5, 91436, Note_off_c, 1, 56, 0
5, 91440, Note_on_c, 1, 58, 88
5, 91556, Note_off_c, 1, 58, 0
5, 91560, Note_on_c, 1, 61, 88
5, 91676, Note_off_c, 1, 61, 0
5, 91680, Note_on_c, 1, 59, 88
5, 91796, Note_off_c, 1, 59, 0
5, 91800, Note_on_c, 1, 61, 88
5, 91916, Note_off_c, 1, 61, 0
5, 91920, Note_on_c, 1, 59, 88
5, 92036, Note_off_c, 1, 59, 0
5, 92040, Note_on_c, 1, 58, 88
5, 92156, Note_off_c, 1, 58, 0
5, 92160, Note_on_c, 1, 59, 88
5, 92513, Note_off_c, 1, 59, 0
5, 92520, Note_on_c, 1, 58, 88
5, 92636, Note_off_c, 1, 58, 0
5, 92640, Note_on_c, 1, 63, 88
5, 92756, Note_off_c, 1, 63, 0
5, 92760, Note_on_c, 1, 61, 88
5, 92876, Note_off_c, 1, 61, 0
5, 92880, Note_on_c, 1, 63, 88
5, 92996, Note_off_c, 1, 63, 0
5, 93000, Note_on_c, 1, 61, 88
5, 93116, Note_off_c, 1, 61, 0
5, 93120, Note_on_c, 1, 59, 88
5, 93236, Note_off_c, 1, 59, 0
5, 93240, Note_on_c, 1, 61, 88
5, 93356, Note_off_c, 1, 61, 0
5, 93360, Note_on_c, 1, 59, 88
5, 93476, Note_off_c, 1, 59, 0
5, 93480, Note_on_c, 1, 58, 88
5, 93596, Note_off_c, 1, 58, 0
5, 93600, Note_on_c, 1, 59, 88
5, 93716, Note_off_c, 1, 59, 0
5, 93720, Note_on_c, 1, 58, 88
5, 93836, Note_off_c, 1, 58, 0
5, 93840, Note_on_c, 1, 56, 88
5, 93956, Note_off_c, 1, 56, 0
5, 93960, Note_on_c, 1, 58, 88
5, 94076, Note_off_c, 1, 58, 0
5, 94080, Note_on_c, 1, 56, 88
5, 94196, Note_off_c, 1, 56, 0
5, 94200, Note_on_c, 1, 55, 88
5, 94316, Note_off_c, 1, 55, 0
5, 94320, Note_on_c, 1, 56, 88
5, 94790, Note_off_c, 1, 56, 0
5, 94800, Note_on_c, 1, 61, 88
5, 94916, Note_off_c, 1, 61, 0
5, 94920, Note_on_c, 1, 59, 88
5, 95036, Note_off_c, 1, 59, 0
5, 95040, Note_on_c, 1, 61, 88
5, 95156, Note_off_c, 1, 61, 0
5, 95160, Note_on_c, 1, 59, 88
5, 95276, Note_off_c, 1, 59, 0
5, 95280, Note_on_c, 1, 58, 88
5, 95396, Note_off_c, 1, 58, 0
5, 95400, Note_on_c, 1, 59, 88
5, 96113, Note_off_c, 1, 59, 0
5, 96120, Note_on_c, 1, 58, 88
5, 96473, Note_off_c, 1, 58, 0
5, 96480, Note_on_c, 1, 51, 88
5, 96714, Note_off_c, 1, 51, 0
5, 96720, Note_on_c, 1, 68, 88
5, 96836, Note_off_c, 1, 68, 0
5, 96840, Note_on_c, 1, 67, 88
5, 97074, Note_off_c, 1, 67, 0
5, 97080, Note_on_c, 1, 66, 88
5, 97196, Note_off_c, 1, 66, 0
5, 97200, Note_on_c, 1, 65, 88
5, 97434, Note_off_c, 1, 65, 0
5, 97440, Note_on_c, 1, 64, 88
5, 97556, Note_off_c, 1, 64, 0
5, 97560, Note_on_c, 1, 63, 88
5, 97794, Note_off_c, 1, 63, 0
5, 97800, Note_on_c, 1, 65, 88
5, 97916, Note_off_c, 1, 65, 0
5, 97920, Note_on_c, 1, 66, 88
5, 98154, Note_off_c, 1, 66, 0
5, 98160, Note_on_c, 1, 67, 88
5, 98276, Note_off_c, 1, 67, 0
5, 98280, Note_on_c, 1, 68, 88
5, 98993, Note_off_c, 1, 68, 0
5, 99000, Note_on_c, 1, 67, 88
5, 99353, Note_off_c, 1, 67, 0
5, 99360, Note_on_c, 1, 68, 88
5, 100550, Note_off_c, 1, 68, 0
5, 100560, Note_on_c, 1, 67, 88
5, 100676, Note_off_c, 1, 67, 0
5, 100680, Note_on_c, 1, 65, 88
5, 100796, Note_off_c, 1, 65, 0
5, 100800, Note_on_c, 1, 67, 88
5, 101508, Note_off_c, 1, 67, 0
5, 101520, Note_on_c, 1, 68, 88
5, 102110, Note_off_c, 1, 68, 0
5, 102120, Note_on_c, 1, 67, 88
5, 102236, Note_off_c, 1, 67, 0
5, 102240, Note_on_c, 1, 68, 88
5, 102948, Note_off_c, 1, 68, 0
5, 102948, End_track
6, 0, Start_track
6, 0, Title_t, "Track 3"
6, 0, Program_c, 2, 6
6, 8640, Note_on_c, 2, 56, 88
6, 8756, Note_off_c, 2, 56, 0
6, 8760, Note_on_c, 2, 58, 88
6, 8876, Note_off_c, 2, 58, 0
6, 8880, Note_on_c, 2, 59, 88
6, 8996, Note_off_c, 2, 59, 0
6, 9000, Note_on_c, 2, 58, 88
6, 9116, Note_off_c, 2, 58, 0
6, 9120, Note_on_c, 2, 63, 88
6, 9236, Note_off_c, 2, 63, 0
6, 9240, Note_on_c, 2, 51, 88
6, 9356, Note_off_c, 2, 51, 0
6, 9360, Note_on_c, 2, 56, 88
6, 9476, Note_off_c, 2, 56, 0
6, 9480, Note_on_c, 2, 59, 88
6, 9596, Note_off_c, 2, 59, 0
6, 9600, Note_on_c, 2, 58, 88
6, 9716, Note_off_c, 2, 58, 0
6, 9720, Note_on_c, 2, 59, 88
6, 9836, Note_off_c, 2, 59, 0
6, 9840, Note_on_c, 2, 58, 88
6, 9956, Note_off_c, 2, 58, 0
6, 9960, Note_on_c, 2, 56, 88
6, 10076, Note_off_c, 2, 56, 0
6, 10080, Note_on_c, 2, 58, 88
6, 10196, Note_off_c, 2, 58, 0
6, 10200, Note_on_c, 2, 59, 88
6, 10316, Note_off_c, 2, 59, 0
6, 10320, Note_on_c, 2, 61, 88
6, 10436, Note_off_c, 2, 61, 0
6, 10440, Note_on_c, 2, 59, 88
6, 10556, Note_off_c, 2, 59, 0
6, 10560, Note_on_c, 2, 64, 88
6, 10676, Note_off_c, 2, 64, 0
6, 10680, Note_on_c, 2, 56, 88
6, 10796, Note_off_c, 2, 56, 0
6, 10800, Note_on_c, 2, 58, 88
6, 10916, Note_off_c, 2, 58, 0
6, 10920, Note_on_c, 2, 61, 88
6, 11036, Note_off_c, 2, 61, 0
6, 11040, Note_on_c, 2, 59, 88
6, 11156, Note_off_c, 2, 59, 0
6, 11160, Note_on_c, 2, 61, 88
6, 11276, Note_off_c, 2, 61, 0
6, 11280, Note_on_c, 2, 59, 88
6, 11396, Note_off_c, 2, 59, 0
6, 11400, Note_on_c, 2, 58, 88
6, 11516, Note_off_c, 2, 58, 0
6, 11520, Note_on_c, 2, 59, 88
6, 11754, Note_off_c, 2, 59, 0
6, 11760, Note_on_c, 2, 56, 88
6, 11876, Note_off_c, 2, 56, 0
6, 11880, Note_on_c, 2, 53, 88
6, 12114, Note_off_c, 2, 53, 0
6, 12120, Note_on_c, 2, 55, 88
6, 12236, Note_off_c, 2, 55, 0
6, 12240, Note_on_c, 2, 56, 88
6, 12474, Note_off_c, 2, 56, 0
6, 12480, Note_on_c, 2, 52, 88
6, 12596, Note_off_c, 2, 52, 0
6, 12600, Note_on_c, 2, 49, 88
6, 12834, Note_off_c, 2, 49, 0
6, 12840, Note_on_c, 2, 51, 88
6, 12956, Note_off_c, 2, 51, 0
6, 12960, Note_on_c, 2, 52, 88
6, 13194, Note_off_c, 2, 52, 0
6, 13200, Note_on_c, 2, 53, 88
6, 13316, Note_off_c, 2, 53, 0
6, 13320, Note_on_c, 2, 54, 88
6, 14010, Note_off_c, 2, 54, 0
6, 14040, Note_on_c, 2, 54, 88
6, 14084, Note_off_c, 2, 54, 0
6, 14085, Note_on_c, 2, 53, 88
6, 14129, Note_off_c, 2, 53, 0
6, 14130, Note_on_c, 2, 54, 88
6, 14174, Note_off_c, 2, 54, 0
6, 14175, Note_on_c, 2, 53, 88
6, 14219, Note_off_c, 2, 53, 0
6, 14220, Note_on_c, 2, 54, 88
6, 14264, Note_off_c, 2, 54, 0
6, 14265, Note_on_c, 2, 53, 88
6, 14309, Note_off_c, 2, 53, 0
6, 14310, Note_on_c, 2, 54, 88
6, 14354, Note_off_c, 2, 54, 0
6, 14355, Note_on_c, 2, 53, 88
6, 14399, Note_off_c, 2, 53, 0
6, 14400, Note_on_c, 2, 54, 88
6, 14634, Note_off_c, 2, 54, 0
6, 14640, Note_on_c, 2, 55, 88
6, 14756, Note_off_c, 2, 55, 0
6, 14760, Note_on_c, 2, 56, 88
6, 15450, Note_off_c, 2, 56, 0
6, 15480, Note_on_c, 2, 56, 88
6, 15524, Note_off_c, 2, 56, 0
6, 15525, Note_on_c, 2, 55, 88
6, 15569, Note_off_c, 2, 55, 0
6, 15570, Note_on_c, 2, 56, 88
6, 15614, Note_off_c, 2, 56, 0
6, 15615, Note_on_c, 2, 55, 88
6, 15659, Note_off_c, 2, 55, 0
6, 15660, Note_on_c, 2, 56, 88
6, 15704, Note_off_c, 2, 56, 0
6, 15705, Note_on_c, 2, 55, 88
6, 15749, Note_off_c, 2, 55, 0
6, 15750, Note_on_c, 2, 56, 88
6, 15794, Note_off_c, 2, 56, 0
6, 15795, Note_on_c, 2, 55, 88
6, 15839, Note_off_c, 2, 55, 0
6, 15840, Note_on_c, 2, 56, 88
6, 16193, Note_off_c, 2, 56, 0
6, 16200, Note_on_c, 2, 54, 88
6, 16553, Note_off_c, 2, 54, 0
6, 16560, Note_on_c, 2, 52, 88
6, 16913, Note_off_c, 2, 52, 0
6, 16920, Note_on_c, 2, 51, 88
6, 17273, Note_off_c, 2, 51, 0
6, 17280, Note_on_c, 2, 49, 88
6, 17396, Note_off_c, 2, 49, 0
6, 17400, Note_on_c, 2, 56, 88
6, 17516, Note_off_c, 2, 56, 0
6, 17520, Note_on_c, 2, 61, 88
6, 17754, Note_off_c, 2, 61, 0
6, 17760, Note_on_c, 2, 58, 88
6, 17876, Note_off_c, 2, 58, 0
6, 17880, Note_on_c, 2, 60, 88
6, 17996, Note_off_c, 2, 60, 0
6, 18000, Note_on_c, 2, 61, 88
6, 18353, Note_off_c, 2, 61, 0
6, 18360, Note_on_c, 2, 59, 88
6, 18836, Note_off_c, 2, 59, 0
6, 18840, Note_on_c, 2, 58, 88
6, 18956, Note_off_c, 2, 58, 0
6, 18960, Note_on_c, 2, 56, 88
6, 19076, Note_off_c, 2, 56, 0
6, 19080, Note_on_c, 2, 55, 88
6, 19196, Note_off_c, 2, 55, 0
6, 19200, Note_on_c, 2, 58, 88
6, 19316, Note_off_c, 2, 58, 0
6, 19320, Note_on_c, 2, 51, 88
6, 19436, Note_off_c, 2, 51, 0
6, 19440, Note_on_c, 2, 56, 88
6, 19674, Note_off_c, 2, 56, 0
6, 19680, Note_on_c, 2, 44, 88
6, 19796, Note_off_c, 2, 44, 0
6, 19800, Note_on_c, 2, 56, 88
6, 20276, Note_off_c, 2, 56, 0
6, 20280, Note_on_c, 2, 54, 88
6, 20396, Note_off_c, 2, 54, 0
6, 20400, Note_on_c, 2, 53, 88
6, 20516, Note_off_c, 2, 53, 0
6, 20520, Note_on_c, 2, 51, 88
6, 20636, Note_off_c, 2, 51, 0
6, 20640, Note_on_c, 2, 54, 88
6, 20756, Note_off_c, 2, 54, 0
6, 20760, Note_on_c, 2, 46, 88
6, 20876, Note_off_c, 2, 46, 0
6, 20880, Note_on_c, 2, 49, 88
6, 20945, Note_off_c, 2, 49, 0
6, 20948, Note_on_c, 2, 47, 88
6, 20991, Note_off_c, 2, 47, 0
6, 20993, Note_on_c, 2, 49, 88
6, 21036, Note_off_c, 2, 49, 0
6, 21038, Note_on_c, 2, 47, 88
6, 21081, Note_off_c, 2, 47, 0
6, 21083, Note_on_c, 2, 49, 88
6, 21126, Note_off_c, 2, 49, 0
6, 21128, Note_on_c, 2, 47, 88
6, 21171, Note_off_c, 2, 47, 0
6, 21173, Note_on_c, 2, 49, 88
6, 21216, Note_off_c, 2, 49, 0
6, 21218, Note_on_c, 2, 47, 88
6, 21261, Note_off_c, 2, 47, 0
6, 21263, Note_on_c, 2, 49, 88
6, 21306, Note_off_c, 2, 49, 0
6, 21308, Note_on_c, 2, 47, 88
6, 21351, Note_off_c, 2, 47, 0
6, 21353, Note_on_c, 2, 49, 88
6, 21396, Note_off_c, 2, 49, 0
6, 21398, Note_on_c, 2, 47, 88
6, 21434, Note_off_c, 2, 47, 0
6, 21435, Note_on_c, 2, 49, 88
6, 21471, Note_off_c, 2, 49, 0
6, 21473, Note_on_c, 2, 47, 88
6, 21509, Note_off_c, 2, 47, 0
6, 21510, Note_on_c, 2, 46, 88
6, 21546, Note_off_c, 2, 46, 0
6, 21548, Note_on_c, 2, 47, 88
6, 21598, Note_off_c, 2, 47, 0
6, 21600, Note_on_c, 2, 46, 88
6, 22308, Note_off_c, 2, 46, 0
6, 23040, Note_on_c, 2, 51, 88
6, 23156, Note_off_c, 2, 51, 0
6, 23160, Note_on_c, 2, 53, 88
6, 23276, Note_off_c, 2, 53, 0
6, 23280, Note_on_c, 2, 54, 88
6, 23396, Note_off_c, 2, 54, 0
6, 23400, Note_on_c, 2, 53, 88
6, 23516, Note_off_c, 2, 53, 0
6, 23520, Note_on_c, 2, 58, 88
6, 23636, Note_off_c, 2, 58, 0
6, 23640, Note_on_c, 2, 46, 88
6, 23756, Note_off_c, 2, 46, 0
6, 23760, Note_on_c, 2, 51, 88
6, 23876, Note_off_c, 2, 51, 0
6, 23880, Note_on_c, 2, 54, 88
6, 23996, Note_off_c, 2, 54, 0
6, 24000, Note_on_c, 2, 53, 88
6, 24116, Note_off_c, 2, 53, 0
6, 24120, Note_on_c, 2, 54, 88
6, 24236, Note_off_c, 2, 54, 0
6, 24240, Note_on_c, 2, 53, 88
6, 24356, Note_off_c, 2, 53, 0
6, 24360, Note_on_c, 2, 51, 88
6, 24476, Note_off_c, 2, 51, 0
6, 24480, Note_on_c, 2, 53, 88
6, 24596, Note_off_c, 2, 53, 0
6, 24600, Note_on_c, 2, 54, 88
6, 24716, Note_off_c, 2, 54, 0
6, 24720, Note_on_c, 2, 56, 88
6, 24836, Note_off_c, 2, 56, 0
6, 24840, Note_on_c, 2, 54, 88
6, 24956, Note_off_c, 2, 54, 0
6, 24960, Note_on_c, 2, 59, 88
6, 25076, Note_off_c, 2, 59, 0
6, 25080, Note_on_c, 2, 51, 88
6, 25196, Note_off_c, 2, 51, 0
6, 25200, Note_on_c, 2, 53, 88
6, 25316, Note_off_c, 2, 53, 0
6, 25320, Note_on_c, 2, 56, 88
6, 25436, Note_off_c, 2, 56, 0
6, 25440, Note_on_c, 2, 54, 88
6, 25556, Note_off_c, 2, 54, 0
6, 25560, Note_on_c, 2, 56, 88
6, 25676, Note_off_c, 2, 56, 0
6, 25680, Note_on_c, 2, 54, 88
6, 25796, Note_off_c, 2, 54, 0
6, 25800, Note_on_c, 2, 53, 88
6, 25916, Note_off_c, 2, 53, 0
6, 25920, Note_on_c, 2, 54, 88
6, 26036, Note_off_c, 2, 54, 0
6, 26040, Note_on_c, 2, 52, 88
6, 26156, Note_off_c, 2, 52, 0
6, 26160, Note_on_c, 2, 51, 88
6, 26276, Note_off_c, 2, 51, 0
6, 26280, Note_on_c, 2, 52, 88
6, 26396, Note_off_c, 2, 52, 0
6, 26400, Note_on_c, 2, 57, 88
6, 26516, Note_off_c, 2, 57, 0
6, 26520, Note_on_c, 2, 49, 88
6, 26636, Note_off_c, 2, 49, 0
6, 26640, Note_on_c, 2, 51, 88
6, 26874, Note_off_c, 2, 51, 0
6, 27000, Note_on_c, 2, 44, 88
6, 27234, Note_off_c, 2, 44, 0
6, 27360, Note_on_c, 2, 49, 88
6, 27476, Note_off_c, 2, 49, 0
6, 27480, Note_on_c, 2, 52, 88
6, 27596, Note_off_c, 2, 52, 0
6, 27600, Note_on_c, 2, 49, 88
6, 27716, Note_off_c, 2, 49, 0
6, 27720, Note_on_c, 2, 56, 88
6, 27954, Note_off_c, 2, 56, 0
6, 27960, Note_on_c, 2, 54, 88
6, 28076, Note_off_c, 2, 54, 0
6, 28080, Note_on_c, 2, 52, 88
6, 28196, Note_off_c, 2, 52, 0
6, 28200, Note_on_c, 2, 54, 88
6, 28316, Note_off_c, 2, 54, 0
6, 28320, Note_on_c, 2, 56, 88
6, 28436, Note_off_c, 2, 56, 0
6, 28440, Note_on_c, 2, 49, 88
6, 28674, Note_off_c, 2, 49, 0
6, 28680, Note_on_c, 2, 54, 88
6, 28796, Note_off_c, 2, 54, 0
6, 28800, Note_on_c, 2, 47, 88
6, 28916, Note_off_c, 2, 47, 0
6, 28920, Note_on_c, 2, 54, 88
6, 29036, Note_off_c, 2, 54, 0
6, 29040, Note_on_c, 2, 59, 88
6, 29274, Note_off_c, 2, 59, 0
6, 29280, Note_on_c, 2, 56, 88
6, 29396, Note_off_c, 2, 56, 0
6, 29400, Note_on_c, 2, 58, 88
6, 29636, Note_off_c, 2, 58, 0
6, 29640, Note_on_c, 2, 51, 88
6, 29756, Note_off_c, 2, 51, 0
6, 29760, Note_on_c, 2, 56, 88
6, 29994, Note_off_c, 2, 56, 0
6, 30000, Note_on_c, 2, 53, 88
6, 30116, Note_off_c, 2, 53, 0
6, 30120, Note_on_c, 2, 55, 88
6, 30236, Note_off_c, 2, 55, 0
6, 30240, Note_on_c, 2, 56, 88
6, 30474, Note_off_c, 2, 56, 0
6, 30480, Note_on_c, 2, 58, 88
6, 30596, Note_off_c, 2, 58, 0
6, 30600, Note_on_c, 2, 59, 88
6, 30834, Note_off_c, 2, 59, 0
6, 30840, Note_on_c, 2, 50, 88
6, 30956, Note_off_c, 2, 50, 0
6, 30960, Note_on_c, 2, 51, 88
6, 31194, Note_off_c, 2, 51, 0
6, 31200, Note_on_c, 2, 47, 88
6, 31316, Note_off_c, 2, 47, 0
6, 31320, Note_on_c, 2, 44, 88
6, 31554, Note_off_c, 2, 44, 0
6, 31560, Note_on_c, 2, 46, 88
6, 31676, Note_off_c, 2, 46, 0
6, 31680, Note_on_c, 2, 51, 88
6, 32033, Note_off_c, 2, 51, 0
6, 32280, Note_on_c, 2, 54, 88
6, 32396, Note_off_c, 2, 54, 0
6, 32400, Note_on_c, 2, 59, 88
6, 32753, Note_off_c, 2, 59, 0
6, 33000, Note_on_c, 2, 60, 88
6, 33116, Note_off_c, 2, 60, 0
6, 33120, Note_on_c, 2, 61, 88
6, 33354, Note_off_c, 2, 61, 0
6, 33360, Note_on_c, 2, 59, 88
6, 33476, Note_off_c, 2, 59, 0
6, 33480, Note_on_c, 2, 58, 88
6, 33714, Note_off_c, 2, 58, 0
6, 33720, Note_on_c, 2, 57, 88
6, 33836, Note_off_c, 2, 57, 0
6, 33840, Note_on_c, 2, 56, 88
6, 33956, Note_off_c, 2, 56, 0
6, 33960, Note_on_c, 2, 59, 88
6, 34076, Note_off_c, 2, 59, 0
6, 34080, Note_on_c, 2, 51, 88
6, 34196, Note_off_c, 2, 51, 0
6, 34200, Note_on_c, 2, 50, 88
6, 34316, Note_off_c, 2, 50, 0
6, 34320, Note_on_c, 2, 46, 88
6, 34436, Note_off_c, 2, 46, 0
6, 34440, Note_on_c, 2, 50, 88
6, 34556, Note_off_c, 2, 50, 0
6, 34560, Note_on_c, 2, 51, 88
6, 34794, Note_off_c, 2, 51, 0
6, 34920, Note_on_c, 2, 44, 88
6, 35154, Note_off_c, 2, 44, 0
6, 35280, Note_on_c, 2, 49, 88
6, 35514, Note_off_c, 2, 49, 0
6, 35640, Note_on_c, 2, 42, 88
6, 35874, Note_off_c, 2, 42, 0
6, 36000, Note_on_c, 2, 47, 88
6, 36116, Note_off_c, 2, 47, 0
6, 36120, Note_on_c, 2, 51, 88
6, 36236, Note_off_c, 2, 51, 0
6, 36240, Note_on_c, 2, 56, 88
6, 36474, Note_off_c, 2, 56, 0
6, 36480, Note_on_c, 2, 55, 88
6, 36596, Note_off_c, 2, 55, 0
6, 36600, Note_on_c, 2, 58, 88
6, 36716, Note_off_c, 2, 58, 0
6, 36720, Note_on_c, 2, 47, 88
6, 36954, Note_off_c, 2, 47, 0
6, 37080, Note_on_c, 2, 49, 88
6, 37314, Note_off_c, 2, 49, 0
6, 37440, Note_on_c, 2, 51, 88
6, 37674, Note_off_c, 2, 51, 0
6, 37680, Note_on_c, 2, 43, 88
6, 37796, Note_off_c, 2, 43, 0
6, 37800, Note_on_c, 2, 44, 88
6, 38034, Note_off_c, 2, 44, 0
6, 38040, Note_on_c, 2, 47, 88
6, 38156, Note_off_c, 2, 47, 0
6, 38160, Note_on_c, 2, 49, 88
6, 38276, Note_off_c, 2, 49, 0
6, 38280, Note_on_c, 2, 52, 88
6, 38396, Note_off_c, 2, 52, 0
6, 38400, Note_on_c, 2, 46, 88
6, 38516, Note_off_c, 2, 46, 0
6, 38520, Note_on_c, 2, 51, 88
6, 38754, Note_off_c, 2, 51, 0
6, 38760, Note_on_c, 2, 39, 88
6, 38876, Note_off_c, 2, 39, 0
6, 38880, Note_on_c, 2, 44, 88
6, 38996, Note_off_c, 2, 44, 0
6, 39000, Note_on_c, 2, 46, 88
6, 39116, Note_off_c, 2, 46, 0
6, 39120, Note_on_c, 2, 47, 88
6, 39236, Note_off_c, 2, 47, 0
6, 39240, Note_on_c, 2, 46, 88
6, 39356, Note_off_c, 2, 46, 0
6, 39360, Note_on_c, 2, 51, 88
6, 39476, Note_off_c, 2, 51, 0
6, 39480, Note_on_c, 2, 39, 88
6, 39596, Note_off_c, 2, 39, 0
6, 39600, Note_on_c, 2, 44, 88
6, 39716, Note_off_c, 2, 44, 0
6, 39720, Note_on_c, 2, 47, 88
6, 39836, Note_off_c, 2, 47, 0
6, 39840, Note_on_c, 2, 46, 88
6, 39956, Note_off_c, 2, 46, 0
6, 39960, Note_on_c, 2, 47, 88
6, 40076, Note_off_c, 2, 47, 0
6, 40080, Note_on_c, 2, 46, 88
6, 40196, Note_off_c, 2, 46, 0
6, 40200, Note_on_c, 2, 44, 88
6, 40316, Note_off_c, 2, 44, 0
6, 40320, Note_on_c, 2, 46, 88
6, 40436, Note_off_c, 2, 46, 0
6, 40440, Note_on_c, 2, 47, 88
6, 40556, Note_off_c, 2, 47, 0
6, 40560, Note_on_c, 2, 49, 88
6, 40676, Note_off_c, 2, 49, 0
6, 40680, Note_on_c, 2, 47, 88
6, 40796, Note_off_c, 2, 47, 0
6, 40800, Note_on_c, 2, 52, 88
6, 40916, Note_off_c, 2, 52, 0
6, 40920, Note_on_c, 2, 44, 88
6, 41036, Note_off_c, 2, 44, 0
6, 41040, Note_on_c, 2, 46, 88
6, 41156, Note_off_c, 2, 46, 0
6, 41160, Note_on_c, 2, 49, 88
6, 41276, Note_off_c, 2, 49, 0
6, 41280, Note_on_c, 2, 47, 88
6, 41396, Note_off_c, 2, 47, 0
6, 41400, Note_on_c, 2, 49, 88
6, 41516, Note_off_c, 2, 49, 0
6, 41520, Note_on_c, 2, 47, 88
6, 41636, Note_off_c, 2, 47, 0
6, 41640, Note_on_c, 2, 46, 88
6, 41756, Note_off_c, 2, 46, 0
6, 41760, Note_on_c, 2, 47, 88
6, 41876, Note_off_c, 2, 47, 0
6, 41880, Note_on_c, 2, 51, 88
6, 41996, Note_off_c, 2, 51, 0
6, 42000, Note_on_c, 2, 43, 88
6, 42116, Note_off_c, 2, 43, 0
6, 42120, Note_on_c, 2, 44, 88
6, 42236, Note_off_c, 2, 44, 0
6, 42240, Note_on_c, 2, 47, 88
6, 42356, Note_off_c, 2, 47, 0
6, 42360, Note_on_c, 2, 39, 88
6, 42476, Note_off_c, 2, 39, 0
6, 42480, Note_on_c, 2, 42, 88
6, 42545, Note_off_c, 2, 42, 0
6, 42548, Note_on_c, 2, 40, 88
6, 42591, Note_off_c, 2, 40, 0
6, 42593, Note_on_c, 2, 42, 88
6, 42636, Note_off_c, 2, 42, 0
6, 42638, Note_on_c, 2, 40, 88
6, 42681, Note_off_c, 2, 40, 0
6, 42683, Note_on_c, 2, 42, 88
6, 42726, Note_off_c, 2, 42, 0
6, 42728, Note_on_c, 2, 40, 88
6, 42771, Note_off_c, 2, 40, 0
6, 42773, Note_on_c, 2, 42, 88
6, 42816, Note_off_c, 2, 42, 0
6, 42818, Note_on_c, 2, 40, 88
6, 42861, Note_off_c, 2, 40, 0
6, 42863, Note_on_c, 2, 42, 88
6, 42906, Note_off_c, 2, 42, 0
6, 42908, Note_on_c, 2, 40, 88
6, 42951, Note_off_c, 2, 40, 0
6, 42953, Note_on_c, 2, 42, 88
6, 42996, Note_off_c, 2, 42, 0
6, 42998, Note_on_c, 2, 40, 88
6, 43034, Note_off_c, 2, 40, 0
6, 43035, Note_on_c, 2, 42, 88
6, 43071, Note_off_c, 2, 42, 0
6, 43073, Note_on_c, 2, 40, 88
6, 43109, Note_off_c, 2, 40, 0
6, 43110, Note_on_c, 2, 39, 88
6, 43146, Note_off_c, 2, 39, 0
6, 43148, Note_on_c, 2, 40, 88
6, 43198, Note_off_c, 2, 40, 0
6, 43200, Note_on_c, 2, 39, 88
6, 43434, Note_off_c, 2, 39, 0
6, 43440, Note_on_c, 2, 51, 88
6, 43556, Note_off_c, 2, 51, 0
6, 43560, Note_on_c, 2, 53, 88
6, 43676, Note_off_c, 2, 53, 0
6, 43680, Note_on_c, 2, 56, 88
6, 43796, Note_off_c, 2, 56, 0
6, 43800, Note_on_c, 2, 55, 88
6, 43916, Note_off_c, 2, 55, 0
6, 43920, Note_on_c, 2, 56, 88
6, 44036, Note_off_c, 2, 56, 0
6, 44040, Note_on_c, 2, 51, 88
6, 44156, Note_off_c, 2, 51, 0
6, 44160, Note_on_c, 2, 56, 88
6, 44394, Note_off_c, 2, 56, 0
6, 44400, Note_on_c, 2, 54, 88
6, 44458, Note_off_c, 2, 54, 0
6, 44460, Note_on_c, 2, 53, 88
6, 44518, Note_off_c, 2, 53, 0
6, 44520, Note_on_c, 2, 54, 88
6, 44636, Note_off_c, 2, 54, 0
6, 44640, Note_on_c, 2, 53, 88
6, 44756, Note_off_c, 2, 53, 0
6, 44760, Note_on_c, 2, 58, 88
6, 44876, Note_off_c, 2, 58, 0
6, 44880, Note_on_c, 2, 56, 88
6, 44996, Note_off_c, 2, 56, 0
6, 45000, Note_on_c, 2, 54, 88
6, 45116, Note_off_c, 2, 54, 0
6, 45120, Note_on_c, 2, 59, 88
6, 45236, Note_off_c, 2, 59, 0
6, 45240, Note_on_c, 2, 58, 88
6, 45356, Note_off_c, 2, 58, 0
6, 45360, Note_on_c, 2, 56, 88
6, 45476, Note_off_c, 2, 56, 0
6, 45480, Note_on_c, 2, 58, 88
6, 45596, Note_off_c, 2, 58, 0
6, 45600, Note_on_c, 2, 59, 88
6, 45716, Note_off_c, 2, 59, 0
6, 45720, Note_on_c, 2, 53, 88
6, 45836, Note_off_c, 2, 53, 0
6, 45840, Note_on_c, 2, 58, 88
6, 45956, Note_off_c, 2, 58, 0
6, 45960, Note_on_c, 2, 56, 88
6, 46076, Note_off_c, 2, 56, 0
6, 46080, Note_on_c, 2, 55, 88
6, 46196, Note_off_c, 2, 55, 0
6, 46200, Note_on_c, 2, 56, 88
6, 46316, Note_off_c, 2, 56, 0
6, 46320, Note_on_c, 2, 58, 88
6, 46436, Note_off_c, 2, 58, 0
6, 46440, Note_on_c, 2, 51, 88
6, 46556, Note_off_c, 2, 51, 0
6, 46560, Note_on_c, 2, 56, 88
6, 46676, Note_off_c, 2, 56, 0
6, 46680, Note_on_c, 2, 54, 88
6, 46796, Note_off_c, 2, 54, 0
6, 46800, Note_on_c, 2, 52, 88
6, 46916, Note_off_c, 2, 52, 0
6, 46920, Note_on_c, 2, 54, 88
6, 47036, Note_off_c, 2, 54, 0
6, 47040, Note_on_c, 2, 52, 88
6, 47156, Note_off_c, 2, 52, 0
6, 47160, Note_on_c, 2, 51, 88
6, 47276, Note_off_c, 2, 51, 0
6, 47280, Note_on_c, 2, 52, 88
6, 47396, Note_off_c, 2, 52, 0
6, 47400, Note_on_c, 2, 51, 88
6, 47516, Note_off_c, 2, 51, 0
6, 47520, Note_on_c, 2, 49, 88
6, 47754, Note_off_c, 2, 49, 0
6, 47760, Note_on_c, 2, 37, 88
6, 47876, Note_off_c, 2, 37, 0
6, 47880, Note_on_c, 2, 44, 88
6, 47996, Note_off_c, 2, 44, 0
6, 48000, Note_on_c, 2, 43, 88
6, 48116, Note_off_c, 2, 43, 0
6, 48120, Note_on_c, 2, 44, 88
6, 48236, Note_off_c, 2, 44, 0
6, 48240, Note_on_c, 2, 39, 88
6, 48474, Note_off_c, 2, 39, 0
6, 50640, Note_on_c, 2, 61, 88
6, 50756, Note_off_c, 2, 61, 0
6, 50760, Note_on_c, 2, 60, 88
6, 50994, Note_off_c, 2, 60, 0
6, 51000, Note_on_c, 2, 59, 88
6, 51116, Note_off_c, 2, 59, 0
6, 51120, Note_on_c, 2, 58, 88
6, 51354, Note_off_c, 2, 58, 0
6, 51360, Note_on_c, 2, 57, 88
6, 51476, Note_off_c, 2, 57, 0
6, 51480, Note_on_c, 2, 56, 88
6, 51714, Note_off_c, 2, 56, 0
6, 51720, Note_on_c, 2, 58, 88
6, 51836, Note_off_c, 2, 58, 0
6, 51840, Note_on_c, 2, 59, 88
6, 52074, Note_off_c, 2, 59, 0
6, 52080, Note_on_c, 2, 60, 88
6, 52196, Note_off_c, 2, 60, 0
6, 52200, Note_on_c, 2, 61, 88
6, 52913, Note_off_c, 2, 61, 0
6, 52920, Note_on_c, 2, 60, 88
6, 53273, Note_off_c, 2, 60, 0
6, 53280, Note_on_c, 2, 61, 88
6, 53514, Note_off_c, 2, 61, 0
6, 53520, Note_on_c, 2, 59, 88
6, 53636, Note_off_c, 2, 59, 0
6, 53640, Note_on_c, 2, 58, 88
6, 53874, Note_off_c, 2, 58, 0
6, 53880, Note_on_c, 2, 56, 88
6, 53996, Note_off_c, 2, 56, 0
6, 54000, Note_on_c, 2, 54, 88
6, 54234, Note_off_c, 2, 54, 0
6, 54240, Note_on_c, 2, 52, 88
6, 54356, Note_off_c, 2, 52, 0
6, 54360, Note_on_c, 2, 51, 88
6, 54594, Note_off_c, 2, 51, 0
6, 54600, Note_on_c, 2, 49, 88
6, 54716, Note_off_c, 2, 49, 0
6, 54720, Note_on_c, 2, 47, 88
6, 54836, Note_off_c, 2, 47, 0
6, 54840, Note_on_c, 2, 54, 88
6, 54956, Note_off_c, 2, 54, 0
6, 54960, Note_on_c, 2, 59, 88
6, 55194, Note_off_c, 2, 59, 0
6, 55200, Note_on_c, 2, 58, 88
6, 55258, Note_off_c, 2, 58, 0
6, 55260, Note_on_c, 2, 56, 88
6, 55318, Note_off_c, 2, 56, 0
6, 55320, Note_on_c, 2, 58, 88
6, 55556, Note_off_c, 2, 58, 0
6, 55560, Note_on_c, 2, 51, 88
6, 55676, Note_off_c, 2, 51, 0
6, 55680, Note_on_c, 2, 56, 88
6, 55914, Note_off_c, 2, 56, 0
6, 55920, Note_on_c, 2, 55, 88
6, 55978, Note_off_c, 2, 55, 0
6, 55980, Note_on_c, 2, 53, 88
6, 56038, Note_off_c, 2, 53, 0
6, 56040, Note_on_c, 2, 55, 88
6, 56156, Note_off_c, 2, 55, 0
6, 56160, Note_on_c, 2, 56, 88
6, 56394, Note_off_c, 2, 56, 0
6, 56400, Note_on_c, 2, 52, 88
6, 56516, Note_off_c, 2, 52, 0
6, 56520, Note_on_c, 2, 51, 88
6, 56873, Note_off_c, 2, 51, 0
6, 56880, Note_on_c, 2, 58, 88
6, 56996, Note_off_c, 2, 58, 0
6, 57000, Note_on_c, 2, 56, 88
6, 57116, Note_off_c, 2, 56, 0
6, 57120, Note_on_c, 2, 55, 88
6, 57236, Note_off_c, 2, 55, 0
6, 57240, Note_on_c, 2, 56, 88
6, 57474, Note_off_c, 2, 56, 0
6, 57480, Note_on_c, 2, 50, 88
6, 57596, Note_off_c, 2, 50, 0
6, 57600, Note_on_c, 2, 51, 88
6, 57834, Note_off_c, 2, 51, 0
6, 57840, Note_on_c, 2, 46, 88
6, 57956, Note_off_c, 2, 46, 0
6, 57960, Note_on_c, 2, 47, 88
6, 58194, Note_off_c, 2, 47, 0
6, 58200, Note_on_c, 2, 48, 88
6, 58316, Note_off_c, 2, 48, 0
6, 58320, Note_on_c, 2, 49, 88
6, 58554, Note_off_c, 2, 49, 0
6, 58560, Note_on_c, 2, 50, 88
6, 58676, Note_off_c, 2, 50, 0
6, 58680, Note_on_c, 2, 51, 88
6, 58914, Note_off_c, 2, 51, 0
6, 58920, Note_on_c, 2, 52, 88
6, 59036, Note_off_c, 2, 52, 0
6, 59040, Note_on_c, 2, 53, 88
6, 59393, Note_off_c, 2, 53, 0
6, 59520, Note_on_c, 2, 53, 88
6, 59636, Note_off_c, 2, 53, 0
6, 59640, Note_on_c, 2, 51, 88
6, 59756, Note_off_c, 2, 51, 0
6, 59760, Note_on_c, 2, 49, 88
6, 59876, Note_off_c, 2, 49, 0
6, 59880, Note_on_c, 2, 61, 88
6, 59996, Note_off_c, 2, 61, 0
6, 60000, Note_on_c, 2, 60, 88
6, 60116, Note_off_c, 2, 60, 0
6, 60120, Note_on_c, 2, 58, 88
6, 60236, Note_off_c, 2, 58, 0
6, 60240, Note_on_c, 2, 70, 88
6, 60356, Note_off_c, 2, 70, 0
6, 60360, Note_on_c, 2, 68, 88
6, 60476, Note_off_c, 2, 68, 0
6, 60480, Note_on_c, 2, 66, 88
6, 60596, Note_off_c, 2, 66, 0
6, 60600, Note_on_c, 2, 63, 88
6, 60716, Note_off_c, 2, 63, 0
6, 60720, Note_on_c, 2, 65, 88
6, 60836, Note_off_c, 2, 65, 0
6, 60840, Note_on_c, 2, 66, 88
6, 61074, Note_off_c, 2, 66, 0
6, 61080, Note_on_c, 2, 67, 88
6, 61196, Note_off_c, 2, 67, 0
6, 61200, Note_on_c, 2, 68, 88
6, 61316, Note_off_c, 2, 68, 0
6, 61320, Note_on_c, 2, 56, 88
6, 61436, Note_off_c, 2, 56, 0
6, 61440, Note_on_c, 2, 58, 88
6, 61556, Note_off_c, 2, 58, 0
6, 61560, Note_on_c, 2, 59, 88
6, 61794, Note_off_c, 2, 59, 0
6, 61800, Note_on_c, 2, 60, 88
6, 61916, Note_off_c, 2, 60, 0
6, 61920, Note_on_c, 2, 61, 88
6, 62036, Note_off_c, 2, 61, 0
6, 62040, Note_on_c, 2, 49, 88
6, 62156, Note_off_c, 2, 49, 0
6, 62160, Note_on_c, 2, 51, 88
6, 62276, Note_off_c, 2, 51, 0
6, 62280, Note_on_c, 2, 52, 88
6, 62514, Note_off_c, 2, 52, 0
6, 62520, Note_on_c, 2, 53, 88
6, 62636, Note_off_c, 2, 53, 0
6, 62640, Note_on_c, 2, 54, 88
6, 62756, Note_off_c, 2, 54, 0
6, 62760, Note_on_c, 2, 42, 88
6, 62876, Note_off_c, 2, 42, 0
6, 62880, Note_on_c, 2, 44, 88
6, 62996, Note_off_c, 2, 44, 0
6, 63000, Note_on_c, 2, 45, 88
6, 63234, Note_off_c, 2, 45, 0
6, 63240, Note_on_c, 2, 46, 88
6, 63356, Note_off_c, 2, 46, 0
6, 63360, Note_on_c, 2, 47, 88
6, 63594, Note_off_c, 2, 47, 0
6, 63600, Note_on_c, 2, 49, 88
6, 63716, Note_off_c, 2, 49, 0
6, 63720, Note_on_c, 2, 51, 88
6, 63954, Note_off_c, 2, 51, 0
6, 63960, Note_on_c, 2, 53, 88
6, 64076, Note_off_c, 2, 53, 0
6, 64080, Note_on_c, 2, 54, 88
6, 64314, Note_off_c, 2, 54, 0
6, 64320, Note_on_c, 2, 56, 88
6, 64436, Note_off_c, 2, 56, 0
6, 64440, Note_on_c, 2, 58, 88
6, 64674, Note_off_c, 2, 58, 0
6, 64680, Note_on_c, 2, 60, 88
6, 64796, Note_off_c, 2, 60, 0
6, 64800, Note_on_c, 2, 61, 88
6, 64916, Note_off_c, 2, 61, 0
6, 64920, Note_on_c, 2, 49, 88
6, 65036, Note_off_c, 2, 49, 0
6, 65040, Note_on_c, 2, 51, 88
6, 65156, Note_off_c, 2, 51, 0
6, 65160, Note_on_c, 2, 53, 88
6, 65394, Note_off_c, 2, 53, 0
6, 65400, Note_on_c, 2, 55, 88
6, 65516, Note_off_c, 2, 55, 0
6, 65520, Note_on_c, 2, 56, 88
6, 65754, Note_off_c, 2, 56, 0
6, 65760, Note_on_c, 2, 58, 88
6, 65876, Note_off_c, 2, 58, 0
6, 65880, Note_on_c, 2, 59, 88
6, 65938, Note_off_c, 2, 59, 0
6, 65940, Note_on_c, 2, 61, 88
6, 65998, Note_off_c, 2, 61, 0
6, 66000, Note_on_c, 2, 63, 88
6, 66116, Note_off_c, 2, 63, 0
6, 66120, Note_on_c, 2, 61, 88
6, 66236, Note_off_c, 2, 61, 0
6, 66240, Note_on_c, 2, 63, 88
6, 67914, Note_off_c, 2, 63, 0
6, 69120, Note_on_c, 2, 44, 88
6, 69236, Note_off_c, 2, 44, 0
6, 69240, Note_on_c, 2, 46, 88
6, 69356, Note_off_c, 2, 46, 0
6, 69360, Note_on_c, 2, 47, 88
6, 69476, Note_off_c, 2, 47, 0
6, 69480, Note_on_c, 2, 46, 88
6, 69596, Note_off_c, 2, 46, 0
6, 69600, Note_on_c, 2, 51, 88
6, 69716, Note_off_c, 2, 51, 0
6, 69720, Note_on_c, 2, 39, 88
6, 69836, Note_off_c, 2, 39, 0
6, 69840, Note_on_c, 2, 44, 88
6, 69956, Note_off_c, 2, 44, 0
6, 69960, Note_on_c, 2, 47, 88
6, 70076, Note_off_c, 2, 47, 0
6, 70080, Note_on_c, 2, 46, 88
6, 70196, Note_off_c, 2, 46, 0
6, 70200, Note_on_c, 2, 47, 88
6, 70316, Note_off_c, 2, 47, 0
6, 70320, Note_on_c, 2, 46, 88
6, 70436, Note_off_c, 2, 46, 0
6, 70440, Note_on_c, 2, 44, 88
6, 70556, Note_off_c, 2, 44, 0
6, 70560, Note_on_c, 2, 46, 88
6, 70676, Note_off_c, 2, 46, 0
6, 70680, Note_on_c, 2, 47, 88
6, 70796, Note_off_c, 2, 47, 0
6, 70800, Note_on_c, 2, 49, 88
6, 70916, Note_off_c, 2, 49, 0
6, 70920, Note_on_c, 2, 47, 88
6, 71036, Note_off_c, 2, 47, 0
6, 71040, Note_on_c, 2, 52, 88
6, 71156, Note_off_c, 2, 52, 0
6, 71160, Note_on_c, 2, 44, 88
6, 71276, Note_off_c, 2, 44, 0
6, 71280, Note_on_c, 2, 46, 88
6, 71396, Note_off_c, 2, 46, 0
6, 71400, Note_on_c, 2, 49, 88
6, 71516, Note_off_c, 2, 49, 0
6, 71520, Note_on_c, 2, 47, 88
6, 71636, Note_off_c, 2, 47, 0
6, 71640, Note_on_c, 2, 49, 88
6, 71756, Note_off_c, 2, 49, 0
6, 71760, Note_on_c, 2, 47, 88
6, 71876, Note_off_c, 2, 47, 0
6, 71880, Note_on_c, 2, 46, 88
6, 71996, Note_off_c, 2, 46, 0
6, 72000, Note_on_c, 2, 47, 88
6, 72116, Note_off_c, 2, 47, 0
6, 72120, Note_on_c, 2, 51, 88
6, 72236, Note_off_c, 2, 51, 0
6, 72240, Note_on_c, 2, 56, 88
6, 72474, Note_off_c, 2, 56, 0
6, 72480, Note_on_c, 2, 55, 88
6, 72538, Note_off_c, 2, 55, 0
6, 72540, Note_on_c, 2, 53, 88
6, 72598, Note_off_c, 2, 53, 0
6, 72600, Note_on_c, 2, 55, 88
6, 72716, Note_off_c, 2, 55, 0
6, 72720, Note_on_c, 2, 56, 88
6, 72836, Note_off_c, 2, 56, 0
6, 72840, Note_on_c, 2, 59, 88
6, 72956, Note_off_c, 2, 59, 0
6, 72960, Note_on_c, 2, 63, 88
6, 73194, Note_off_c, 2, 63, 0
6, 73200, Note_on_c, 2, 62, 88
6, 73258, Note_off_c, 2, 62, 0
6, 73260, Note_on_c, 2, 60, 88
6, 73318, Note_off_c, 2, 60, 0
6, 73320, Note_on_c, 2, 62, 88
6, 73436, Note_off_c, 2, 62, 0
6, 73440, Note_on_c, 2, 63, 88
6, 73674, Note_off_c, 2, 63, 0
6, 73680, Note_on_c, 2, 51, 88
6, 73796, Note_off_c, 2, 51, 0
6, 73800, Note_on_c, 2, 58, 88
6, 74034, Note_off_c, 2, 58, 0
6, 74040, Note_on_c, 2, 55, 88
6, 74156, Note_off_c, 2, 55, 0
6, 74160, Note_on_c, 2, 56, 88
6, 74394, Note_off_c, 2, 56, 0
6, 74400, Note_on_c, 2, 50, 88
6, 74516, Note_off_c, 2, 50, 0
6, 74520, Note_on_c, 2, 51, 88
6, 74873, Note_off_c, 2, 51, 0
6, 74880, Note_on_c, 2, 58, 88
6, 75350, Note_off_c, 2, 58, 0
6, 75360, Note_on_c, 2, 56, 88
6, 75476, Note_off_c, 2, 56, 0
6, 75480, Note_on_c, 2, 54, 88
6, 75596, Note_off_c, 2, 54, 0
6, 75600, Note_on_c, 2, 56, 88
6, 75953, Note_off_c, 2, 56, 0
6, 75960, Note_on_c, 2, 58, 88
6, 76313, Note_off_c, 2, 58, 0
6, 76320, Note_on_c, 2, 51, 88
6, 76554, Note_off_c, 2, 51, 0
6, 76560, Note_on_c, 2, 47, 88
6, 76676, Note_off_c, 2, 47, 0
6, 76680, Note_on_c, 2, 44, 88
6, 76914, Note_off_c, 2, 44, 0
6, 76920, Note_on_c, 2, 46, 88
6, 77036, Note_off_c, 2, 46, 0
6, 77040, Note_on_c, 2, 47, 88
6, 77274, Note_off_c, 2, 47, 0
6, 77280, Note_on_c, 2, 51, 88
6, 77396, Note_off_c, 2, 51, 0
6, 77400, Note_on_c, 2, 53, 88
6, 77634, Note_off_c, 2, 53, 0
6, 77640, Note_on_c, 2, 55, 88
6, 77756, Note_off_c, 2, 55, 0
6, 77760, Note_on_c, 2, 56, 88
6, 77994, Note_off_c, 2, 56, 0
6, 78000, Note_on_c, 2, 59, 88
6, 78116, Note_off_c, 2, 59, 0
6, 78120, Note_on_c, 2, 61, 88
6, 78354, Note_off_c, 2, 61, 0
6, 78360, Note_on_c, 2, 63, 88
6, 78476, Note_off_c, 2, 63, 0
6, 78480, Note_on_c, 2, 64, 88
6, 78714, Note_off_c, 2, 64, 0
6, 78720, Note_on_c, 2, 61, 88
6, 78836, Note_off_c, 2, 61, 0
6, 78840, Note_on_c, 2, 58, 88
6, 79074, Note_off_c, 2, 58, 0
6, 79080, Note_on_c, 2, 60, 88
6, 79196, Note_off_c, 2, 60, 0
6, 79200, Note_on_c, 2, 61, 88
6, 79316, Note_off_c, 2, 61, 0
6, 79320, Note_on_c, 2, 60, 88
6, 79436, Note_off_c, 2, 60, 0
6, 79440, Note_on_c, 2, 58, 88
6, 79556, Note_off_c, 2, 58, 0
6, 79560, Note_on_c, 2, 59, 88
6, 79676, Note_off_c, 2, 59, 0
6, 79680, Note_on_c, 2, 58, 88
6, 79796, Note_off_c, 2, 58, 0
6, 79800, Note_on_c, 2, 56, 88
6, 79916, Note_off_c, 2, 56, 0
6, 79920, Note_on_c, 2, 57, 88
6, 80154, Note_off_c, 2, 57, 0
6, 80160, Note_on_c, 2, 51, 88
6, 80276, Note_off_c, 2, 51, 0
6, 80280, Note_on_c, 2, 52, 88
6, 80514, Note_off_c, 2, 52, 0
6, 80520, Note_on_c, 2, 40, 88
6, 80636, Note_off_c, 2, 40, 0
6, 80640, Note_on_c, 2, 47, 88
6, 80874, Note_off_c, 2, 47, 0
6, 80880, Note_on_c, 2, 48, 88
6, 80996, Note_off_c, 2, 48, 0
6, 81000, Note_on_c, 2, 49, 88
6, 81234, Note_off_c, 2, 49, 0
6, 81240, Note_on_c, 2, 56, 88
6, 81356, Note_off_c, 2, 56, 0
6, 81360, Note_on_c, 2, 57, 88
6, 81594, Note_off_c, 2, 57, 0
6, 81600, Note_on_c, 2, 61, 88
6, 81716, Note_off_c, 2, 61, 0
6, 81720, Note_on_c, 2, 54, 88
6, 81954, Note_off_c, 2, 54, 0
6, 81960, Note_on_c, 2, 59, 88
6, 82076, Note_off_c, 2, 59, 0
6, 82080, Note_on_c, 2, 52, 88
6, 82196, Note_off_c, 2, 52, 0
6, 82200, Note_on_c, 2, 59, 88
6, 82316, Note_off_c, 2, 59, 0
6, 82320, Note_on_c, 2, 64, 88
6, 82554, Note_off_c, 2, 64, 0
6, 82560, Note_on_c, 2, 63, 88
6, 82618, Note_off_c, 2, 63, 0
6, 82620, Note_on_c, 2, 61, 88
6, 82678, Note_off_c, 2, 61, 0
6, 82680, Note_on_c, 2, 63, 88
6, 82916, Note_off_c, 2, 63, 0
6, 82920, Note_on_c, 2, 56, 88
6, 83036, Note_off_c, 2, 56, 0
6, 83040, Note_on_c, 2, 61, 88
6, 83274, Note_off_c, 2, 61, 0
6, 83280, Note_on_c, 2, 60, 88
6, 83338, Note_off_c, 2, 60, 0
6, 83340, Note_on_c, 2, 58, 88
6, 83398, Note_off_c, 2, 58, 0
6, 83400, Note_on_c, 2, 60, 88
6, 83516, Note_off_c, 2, 60, 0
6, 83520, Note_on_c, 2, 61, 88
6, 83636, Note_off_c, 2, 61, 0
6, 83640, Note_on_c, 2, 49, 88
6, 83756, Note_off_c, 2, 49, 0
6, 83760, Note_on_c, 2, 61, 88
6, 83876, Note_off_c, 2, 61, 0
6, 83880, Note_on_c, 2, 60, 88
6, 84114, Note_off_c, 2, 60, 0
6, 84120, Note_on_c, 2, 59, 88
6, 84236, Note_off_c, 2, 59, 0
6, 84240, Note_on_c, 2, 58, 88
6, 84474, Note_off_c, 2, 58, 0
6, 84480, Note_on_c, 2, 57, 88
6, 84596, Note_off_c, 2, 57, 0
6, 84600, Note_on_c, 2, 56, 88
6, 84834, Note_off_c, 2, 56, 0
6, 84840, Note_on_c, 2, 61, 88
6, 84956, Note_off_c, 2, 61, 0
6, 84960, Note_on_c, 2, 54, 88
6, 85076, Note_off_c, 2, 54, 0
6, 85080, Note_on_c, 2, 52, 88
6, 85196, Note_off_c, 2, 52, 0
6, 85200, Note_on_c, 2, 51, 88
6, 85316, Note_off_c, 2, 51, 0
6, 85320, Note_on_c, 2, 49, 88
6, 85436, Note_off_c, 2, 49, 0
6, 85440, Note_on_c, 2, 47, 88
6, 85556, Note_off_c, 2, 47, 0
6, 85560, Note_on_c, 2, 46, 88
6, 85676, Note_off_c, 2, 46, 0
6, 85680, Note_on_c, 2, 44, 88
6, 85796, Note_off_c, 2, 44, 0
6, 85800, Note_on_c, 2, 56, 88
6, 85916, Note_off_c, 2, 56, 0
6, 85920, Note_on_c, 2, 58, 88
6, 86036, Note_off_c, 2, 58, 0
6, 86040, Note_on_c, 2, 59, 88
6, 86156, Note_off_c, 2, 59, 0
6, 86160, Note_on_c, 2, 61, 88
6, 86276, Note_off_c, 2, 61, 0
6, 86280, Note_on_c, 2, 59, 88
6, 86396, Note_off_c, 2, 59, 0
6, 86400, Note_on_c, 2, 58, 88
6, 86516, Note_off_c, 2, 58, 0
6, 86520, Note_on_c, 2, 46, 88
6, 86636, Note_off_c, 2, 46, 0
6, 86640, Note_on_c, 2, 48, 88
6, 86756, Note_off_c, 2, 48, 0
6, 86760, Note_on_c, 2, 50, 88
6, 86876, Note_off_c, 2, 50, 0
6, 86880, Note_on_c, 2, 48, 88
6, 86996, Note_off_c, 2, 48, 0
6, 87000, Note_on_c, 2, 50, 88
6, 87116, Note_off_c, 2, 50, 0
6, 87120, Note_on_c, 2, 51, 88
6, 87236, Note_off_c, 2, 51, 0
6, 87240, Note_on_c, 2, 56, 88
6, 87356, Note_off_c, 2, 56, 0
6, 87360, Note_on_c, 2, 54, 88
6, 87476, Note_off_c, 2, 54, 0
6, 87480, Note_on_c, 2, 53, 88
6, 87596, Note_off_c, 2, 53, 0
6, 87600, Note_on_c, 2, 58, 88
6, 87716, Note_off_c, 2, 58, 0
6, 87720, Note_on_c, 2, 56, 88
6, 87836, Note_off_c, 2, 56, 0
6, 87840, Note_on_c, 2, 55, 88
6, 87956, Note_off_c, 2, 55, 0
6, 87960, Note_on_c, 2, 51, 88
6, 88076, Note_off_c, 2, 51, 0
6, 88080, Note_on_c, 2, 55, 88
6, 88196, Note_off_c, 2, 55, 0
6, 88200, Note_on_c, 2, 56, 88
6, 88913, Note_off_c, 2, 56, 0
6, 88920, Note_on_c, 2, 55, 88
6, 89273, Note_off_c, 2, 55, 0
6, 89280, Note_on_c, 2, 56, 88
6, 89514, Note_off_c, 2, 56, 0
6, 89520, Note_on_c, 2, 44, 88
6, 89636, Note_off_c, 2, 44, 0
6, 89640, Note_on_c, 2, 43, 88
6, 89874, Note_off_c, 2, 43, 0
6, 89880, Note_on_c, 2, 42, 88
6, 89996, Note_off_c, 2, 42, 0
6, 90000, Note_on_c, 2, 41, 88
6, 90234, Note_off_c, 2, 41, 0
6, 90240, Note_on_c, 2, 40, 88
6, 90356, Note_off_c, 2, 40, 0
6, 90360, Note_on_c, 2, 39, 88
6, 90594, Note_off_c, 2, 39, 0
6, 90600, Note_on_c, 2, 41, 88
6, 90716, Note_off_c, 2, 41, 0
6, 90720, Note_on_c, 2, 42, 88
6, 90954, Note_off_c, 2, 42, 0
6, 90960, Note_on_c, 2, 43, 88
6, 91076, Note_off_c, 2, 43, 0
6, 91080, Note_on_c, 2, 44, 88
6, 91793, Note_off_c, 2, 44, 0
6, 91800, Note_on_c, 2, 43, 88
6, 91916, Note_off_c, 2, 43, 0
6, 91920, Note_on_c, 2, 51, 88
6, 92036, Note_off_c, 2, 51, 0
6, 92040, Note_on_c, 2, 49, 88
6, 92156, Note_off_c, 2, 49, 0
6, 92160, Note_on_c, 2, 51, 88
6, 92276, Note_off_c, 2, 51, 0
6, 92280, Note_on_c, 2, 49, 88
6, 92396, Note_off_c, 2, 49, 0
6, 92400, Note_on_c, 2, 47, 88
6, 92516, Note_off_c, 2, 47, 0
6, 92520, Note_on_c, 2, 49, 88
6, 92636, Note_off_c, 2, 49, 0
6, 92640, Note_on_c, 2, 47, 88
6, 92756, Note_off_c, 2, 47, 0
6, 92760, Note_on_c, 2, 46, 88
6, 92876, Note_off_c, 2, 46, 0
6, 92880, Note_on_c, 2, 47, 88
6, 92996, Note_off_c, 2, 47, 0
6, 93000, Note_on_c, 2, 46, 88
6, 93116, Note_off_c, 2, 46, 0
6, 93120, Note_on_c, 2, 44, 88
6, 93236, Note_off_c, 2, 44, 0
6, 93240, Note_on_c, 2, 51, 88
6, 93834, Note_off_c, 2, 51, 0
6, 93840, Note_on_c, 2, 44, 88
6, 93956, Note_off_c, 2, 44, 0
6, 93960, Note_on_c, 2, 52, 88
6, 94436, Note_off_c, 2, 52, 0
6, 94440, Note_on_c, 2, 51, 88
6, 94556, Note_off_c, 2, 51, 0
6, 94560, Note_on_c, 2, 50, 88
6, 94676, Note_off_c, 2, 50, 0
6, 94680, Note_on_c, 2, 51, 88
6, 95876, Note_off_c, 2, 51, 0
6, 95880, Note_on_c, 2, 49, 88
6, 95996, Note_off_c, 2, 49, 0
6, 96000, Note_on_c, 2, 47, 88
6, 96116, Note_off_c, 2, 47, 0
6, 96120, Note_on_c, 2, 49, 88
6, 96236, Note_off_c, 2, 49, 0
6, 96240, Note_on_c, 2, 47, 88
6, 96356, Note_off_c, 2, 47, 0
6, 96360, Note_on_c, 2, 46, 88
6, 96476, Note_off_c, 2, 46, 0
6, 96480, Note_on_c, 2, 47, 88
6, 96596, Note_off_c, 2, 47, 0
6, 96600, Note_on_c, 2, 49, 88
6, 96658, Note_off_c, 2, 49, 0
6, 96660, Note_on_c, 2, 47, 88
6, 96718, Note_off_c, 2, 47, 0
6, 96720, Note_on_c, 2, 46, 88
6, 96778, Note_off_c, 2, 46, 0
6, 96780, Note_on_c, 2, 44, 88
6, 96838, Note_off_c, 2, 44, 0
6, 96840, Note_on_c, 2, 39, 88
6, 97434, Note_off_c, 2, 39, 0
6, 97440, Note_on_c, 2, 37, 88
6, 97556, Note_off_c, 2, 37, 0
6, 97560, Note_on_c, 2, 44, 88
6, 97794, Note_off_c, 2, 44, 0
6, 97800, Note_on_c, 2, 37, 88
6, 97916, Note_off_c, 2, 37, 0
6, 97920, Note_on_c, 2, 42, 88
6, 98154, Note_off_c, 2, 42, 0
6, 98160, Note_on_c, 2, 39, 88
6, 98276, Note_off_c, 2, 39, 0
6, 98280, Note_on_c, 2, 44, 88
6, 98514, Note_off_c, 2, 44, 0
6, 98520, Note_on_c, 2, 47, 88
6, 98636, Note_off_c, 2, 47, 0
6, 98640, Note_on_c, 2, 52, 88
6, 98874, Note_off_c, 2, 52, 0
6, 98880, Note_on_c, 2, 49, 88
6, 98996, Note_off_c, 2, 49, 0
6, 99000, Note_on_c, 2, 46, 88
6, 99234, Note_off_c, 2, 46, 0
6, 99240, Note_on_c, 2, 51, 88
6, 99356, Note_off_c, 2, 51, 0
6, 99360, Note_on_c, 2, 44, 88
6, 99594, Note_off_c, 2, 44, 0
6, 99600, Note_on_c, 2, 47, 88
6, 99716, Note_off_c, 2, 47, 0
6, 99720, Note_on_c, 2, 40, 88
6, 99836, Note_off_c, 2, 40, 0
6, 99840, Note_on_c, 2, 52, 88
6, 99956, Note_off_c, 2, 52, 0
6, 99960, Note_on_c, 2, 51, 88
6, 100076, Note_off_c, 2, 51, 0
6, 100080, Note_on_c, 2, 50, 88
6, 100550, Note_off_c, 2, 50, 0
6, 100560, Note_on_c, 2, 46, 88
6, 100676, Note_off_c, 2, 46, 0
6, 100680, Note_on_c, 2, 48, 88
6, 100796, Note_off_c, 2, 48, 0
6, 100800, Note_on_c, 2, 49, 88
6, 101270, Note_off_c, 2, 49, 0
6, 101280, Note_on_c, 2, 47, 88
6, 101396, Note_off_c, 2, 47, 0
6, 101400, Note_on_c, 2, 46, 88
6, 101516, Note_off_c, 2, 46, 0
6, 101520, Note_on_c, 2, 47, 88
6, 101636, Note_off_c, 2, 47, 0
6, 101640, Note_on_c, 2, 46, 88
6, 101756, Note_off_c, 2, 46, 0
6, 101760, Note_on_c, 2, 44, 88
6, 101876, Note_off_c, 2, 44, 0
6, 101880, Note_on_c, 2, 51, 88
6, 102114, Note_off_c, 2, 51, 0
6, 102120, Note_on_c, 2, 39, 88
6, 102236, Note_off_c, 2, 39, 0
6, 102240, Note_on_c, 2, 44, 88
6, 102948, Note_off_c, 2, 44, 0
6, 102948, End_track
0, 0, End_of_file
