0, 0, Header, 1, 6, 240
1, 0, Start_track
1, 0, Time_signature, 4, 2, 24, 8
1, 0, Tempo, 1071428
1, 0, SMPTE_offset, 64, 0, 0, 0, 93
1, 0, End_track
2, 0, Start_track
2, 0, Title_t, "(C) & (P) 1993"
2, 127, End_track
3, 0, Start_track
3, 0, Title_t, "CCARH,Stanford"
3, 0, End_track
4, 0, Start_track
4, 0, Title_t, "Track 1"
4, 0, Program_c, 0, 6
4, 5040, Note_on_c, 0, 76, 88
4, 5274, Note_off_c, 0, 76, 0
4, 5280, Note_on_c, 0, 72, 88
4, 5514, Note_off_c, 0, 72, 0
4, 5520, Note_on_c, 0, 77, 88
4, 5754, Note_off_c, 0, 77, 0
4, 5760, Note_on_c, 0, 68, 88
4, 5994, Note_off_c, 0, 68, 0
4, 6360, Note_on_c, 0, 74, 88
4, 6476, Note_off_c, 0, 74, 0
4, 6480, Note_on_c, 0, 71, 88
4, 6596, Note_off_c, 0, 71, 0
4, 6600, Note_on_c, 0, 76, 88
4, 6716, Note_off_c, 0, 76, 0
4, 6720, Note_on_c, 0, 72, 88
4, 6836, Note_off_c, 0, 72, 0
4, 6840, Note_on_c, 0, 69, 88
4, 6956, Note_off_c, 0, 69, 0
4, 6960, Note_on_c, 0, 66, 88
4, 7076, Note_off_c, 0, 66, 0
4, 7080, Note_on_c, 0, 74, 88
4, 7196, Note_off_c, 0, 74, 0
4, 7200, Note_on_c, 0, 71, 88
4, 7316, Note_off_c, 0, 71, 0
4, 7320, Note_on_c, 0, 67, 88
4, 7436, Note_off_c, 0, 67, 0
4, 7440, Note_on_c, 0, 64, 88
4, 7556, Note_off_c, 0, 64, 0
4, 7560, Note_on_c, 0, 72, 88
4, 7676, Note_off_c, 0, 72, 0
4, 7680, Note_on_c, 0, 69, 88
4, 7796, Note_off_c, 0, 69, 0
4, 7800, Note_on_c, 0, 71, 88
4, 7916, Note_off_c, 0, 71, 0
4, 7920, Note_on_c, 0, 72, 88
4, 8175, Note_off_c, 0, 72, 0
4, 8190, Note_on_c, 0, 72, 88
4, 8219, Note_off_c, 0, 72, 0
4, 8220, Note_on_c, 0, 74, 88
4, 8249, Note_off_c, 0, 74, 0
4, 8250, Note_on_c, 0, 76, 88
4, 8279, Note_off_c, 0, 76, 0
4, 8280, Note_on_c, 0, 77, 88
4, 8309, Note_off_c, 0, 77, 0
4, 8310, Note_on_c, 0, 76, 88
4, 8339, Note_off_c, 0, 76, 0
4, 8340, Note_on_c, 0, 74, 88
4, 8369, Note_off_c, 0, 74, 0
4, 8370, Note_on_c, 0, 72, 88
4, 8399, Note_off_c, 0, 72, 0
4, 8400, Note_on_c, 0, 71, 88
4, 8634, Note_off_c, 0, 71, 0
4, 8760, Note_on_c, 0, 84, 88
4, 8789, Note_off_c, 0, 84, 0
4, 8790, Note_on_c, 0, 83, 88
4, 8819, Note_off_c, 0, 83, 0
4, 8820, Note_on_c, 0, 81, 88
4, 8849, Note_off_c, 0, 81, 0
4, 8850, Note_on_c, 0, 79, 88
4, 8879, Note_off_c, 0, 79, 0
4, 8880, Note_on_c, 0, 77, 88
4, 8996, Note_off_c, 0, 77, 0
4, 9000, Note_on_c, 0, 81, 88
4, 9029, Note_off_c, 0, 81, 0
4, 9030, Note_on_c, 0, 79, 88
4, 9059, Note_off_c, 0, 79, 0
4, 9060, Note_on_c, 0, 77, 88
4, 9089, Note_off_c, 0, 77, 0
4, 9090, Note_on_c, 0, 76, 88
4, 9119, Note_off_c, 0, 76, 0
4, 9120, Note_on_c, 0, 74, 88
4, 9149, Note_off_c, 0, 74, 0
4, 9150, Note_on_c, 0, 76, 88
4, 9179, Note_off_c, 0, 76, 0
4, 9180, Note_on_c, 0, 77, 88
4, 9267, Note_off_c, 0, 77, 0
4, 9270, Note_on_c, 0, 76, 88
4, 9299, Note_off_c, 0, 76, 0
4, 9300, Note_on_c, 0, 74, 88
4, 9329, Note_off_c, 0, 74, 0
4, 9330, Note_on_c, 0, 72, 88
4, 9359, Note_off_c, 0, 72, 0
4, 9360, Note_on_c, 0, 71, 88
4, 9389, Note_off_c, 0, 71, 0
4, 9390, Note_on_c, 0, 72, 88
4, 9419, Note_off_c, 0, 72, 0
4, 9420, Note_on_c, 0, 74, 88
4, 9507, Note_off_c, 0, 74, 0
4, 9510, Note_on_c, 0, 72, 88
4, 9539, Note_off_c, 0, 72, 0
4, 9540, Note_on_c, 0, 71, 88
4, 9569, Note_off_c, 0, 71, 0
4, 9570, Note_on_c, 0, 69, 88
4, 9599, Note_off_c, 0, 69, 0
4, 9600, Note_on_c, 0, 67, 88
4, 9775, Note_off_c, 0, 67, 0
4, 9780, Note_on_c, 0, 69, 88
4, 9809, Note_off_c, 0, 69, 0
4, 9810, Note_on_c, 0, 71, 88
4, 9839, Note_off_c, 0, 71, 0
4, 9840, Note_on_c, 0, 72, 88
4, 9862, Note_off_c, 0, 72, 0
4, 9863, Note_on_c, 0, 71, 88
4, 9884, Note_off_c, 0, 71, 0
4, 9885, Note_on_c, 0, 72, 88
4, 9907, Note_off_c, 0, 72, 0
4, 9908, Note_on_c, 0, 71, 88
4, 9929, Note_off_c, 0, 71, 0
4, 9930, Note_on_c, 0, 72, 88
4, 9952, Note_off_c, 0, 72, 0
4, 9953, Note_on_c, 0, 71, 88
4, 9974, Note_off_c, 0, 71, 0
4, 9975, Note_on_c, 0, 72, 88
4, 9997, Note_off_c, 0, 72, 0
4, 9998, Note_on_c, 0, 71, 88
4, 10019, Note_off_c, 0, 71, 0
4, 10020, Note_on_c, 0, 69, 88
4, 10049, Note_off_c, 0, 69, 0
4, 10050, Note_on_c, 0, 71, 88
4, 10079, Note_off_c, 0, 71, 0
4, 10080, Note_on_c, 0, 72, 88
4, 10314, Note_off_c, 0, 72, 0
4, 10680, Note_on_c, 0, 67, 88
4, 10796, Note_off_c, 0, 67, 0
4, 10800, Note_on_c, 0, 64, 88
4, 10916, Note_off_c, 0, 64, 0
4, 10920, Note_on_c, 0, 69, 88
4, 11036, Note_off_c, 0, 69, 0
4, 11040, Note_on_c, 0, 66, 88
4, 11205, Note_off_c, 0, 66, 0
4, 11220, Note_on_c, 0, 66, 88
4, 11249, Note_off_c, 0, 66, 0
4, 11250, Note_on_c, 0, 68, 88
4, 11279, Note_off_c, 0, 68, 0
4, 11280, Note_on_c, 0, 69, 88
4, 11302, Note_off_c, 0, 69, 0
4, 11303, Note_on_c, 0, 68, 88
4, 11324, Note_off_c, 0, 68, 0
4, 11325, Note_on_c, 0, 69, 88
4, 11347, Note_off_c, 0, 69, 0
4, 11348, Note_on_c, 0, 68, 88
4, 11369, Note_off_c, 0, 68, 0
4, 11370, Note_on_c, 0, 69, 88
4, 11392, Note_off_c, 0, 69, 0
4, 11393, Note_on_c, 0, 68, 88
4, 11414, Note_off_c, 0, 68, 0
4, 11415, Note_on_c, 0, 69, 88
4, 11437, Note_off_c, 0, 69, 0
4, 11438, Note_on_c, 0, 68, 88
4, 11459, Note_off_c, 0, 68, 0
4, 11460, Note_on_c, 0, 66, 88
4, 11489, Note_off_c, 0, 66, 0
4, 11490, Note_on_c, 0, 68, 88
4, 11519, Note_off_c, 0, 68, 0
4, 11520, Note_on_c, 0, 69, 88
4, 11578, Note_off_c, 0, 69, 0
4, 11580, Note_on_c, 0, 71, 88
4, 11609, Note_off_c, 0, 71, 0
4, 11610, Note_on_c, 0, 72, 88
4, 11639, Note_off_c, 0, 72, 0
4, 11640, Note_on_c, 0, 74, 88
4, 11669, Note_off_c, 0, 74, 0
4, 11670, Note_on_c, 0, 76, 88
4, 11699, Note_off_c, 0, 76, 0
4, 11700, Note_on_c, 0, 78, 88
4, 11729, Note_off_c, 0, 78, 0
4, 11730, Note_on_c, 0, 80, 88
4, 11759, Note_off_c, 0, 80, 0
4, 11760, Note_on_c, 0, 81, 88
4, 11994, Note_off_c, 0, 81, 0
4, 12000, Note_on_c, 0, 79, 88
4, 12234, Note_off_c, 0, 79, 0
4, 12240, Note_on_c, 0, 84, 88
4, 12474, Note_off_c, 0, 84, 0
4, 12480, Note_on_c, 0, 75, 88
4, 12714, Note_off_c, 0, 75, 0
4, 13080, Note_on_c, 0, 81, 88
4, 13196, Note_off_c, 0, 81, 0
4, 13200, Note_on_c, 0, 78, 88
4, 13316, Note_off_c, 0, 78, 0
4, 13320, Note_on_c, 0, 83, 88
4, 13436, Note_off_c, 0, 83, 0
4, 13440, Note_on_c, 0, 79, 88
4, 13556, Note_off_c, 0, 79, 0
4, 13560, Note_on_c, 0, 76, 88
4, 13676, Note_off_c, 0, 76, 0
4, 13680, Note_on_c, 0, 73, 88
4, 13796, Note_off_c, 0, 73, 0
4, 13800, Note_on_c, 0, 81, 88
4, 13916, Note_off_c, 0, 81, 0
4, 13920, Note_on_c, 0, 77, 88
4, 14036, Note_off_c, 0, 77, 0
4, 14070, Note_on_c, 0, 74, 88
4, 14099, Note_off_c, 0, 74, 0
4, 14100, Note_on_c, 0, 76, 88
4, 14129, Note_off_c, 0, 76, 0
4, 14130, Note_on_c, 0, 77, 88
4, 14159, Note_off_c, 0, 77, 0
4, 14160, Note_on_c, 0, 79, 88
4, 14276, Note_off_c, 0, 79, 0
4, 14310, Note_on_c, 0, 77, 88
4, 14339, Note_off_c, 0, 77, 0
4, 14340, Note_on_c, 0, 76, 88
4, 14369, Note_off_c, 0, 76, 0
4, 14370, Note_on_c, 0, 74, 88
4, 14399, Note_off_c, 0, 74, 0
4, 14400, Note_on_c, 0, 72, 88
4, 14516, Note_off_c, 0, 72, 0
4, 14550, Note_on_c, 0, 76, 88
4, 14579, Note_off_c, 0, 76, 0
4, 14580, Note_on_c, 0, 77, 88
4, 14609, Note_off_c, 0, 77, 0
4, 14610, Note_on_c, 0, 79, 88
4, 14639, Note_off_c, 0, 79, 0
4, 14640, Note_on_c, 0, 81, 88
4, 14669, Note_off_c, 0, 81, 0
4, 14670, Note_on_c, 0, 82, 88
4, 14699, Note_off_c, 0, 82, 0
4, 14700, Note_on_c, 0, 81, 88
4, 14729, Note_off_c, 0, 81, 0
4, 14730, Note_on_c, 0, 79, 88
4, 14759, Note_off_c, 0, 79, 0
4, 14760, Note_on_c, 0, 77, 88
4, 14789, Note_off_c, 0, 77, 0
4, 14790, Note_on_c, 0, 76, 88
4, 14819, Note_off_c, 0, 76, 0
4, 14820, Note_on_c, 0, 74, 88
4, 14849, Note_off_c, 0, 74, 0
4, 14850, Note_on_c, 0, 72, 88
4, 14879, Note_off_c, 0, 72, 0
4, 14880, Note_on_c, 0, 71, 88
4, 14909, Note_off_c, 0, 71, 0
4, 14910, Note_on_c, 0, 72, 88
4, 14939, Note_off_c, 0, 72, 0
4, 14940, Note_on_c, 0, 71, 88
4, 14969, Note_off_c, 0, 71, 0
4, 14970, Note_on_c, 0, 69, 88
4, 14999, Note_off_c, 0, 69, 0
4, 15000, Note_on_c, 0, 68, 88
4, 15029, Note_off_c, 0, 68, 0
4, 15030, Note_on_c, 0, 66, 88
4, 15059, Note_off_c, 0, 66, 0
4, 15060, Note_on_c, 0, 64, 88
4, 15089, Note_off_c, 0, 64, 0
4, 15090, Note_on_c, 0, 62, 88
4, 15119, Note_off_c, 0, 62, 0
4, 15120, Note_on_c, 0, 60, 88
4, 15236, Note_off_c, 0, 60, 0
4, 15240, Note_on_c, 0, 72, 88
4, 15356, Note_off_c, 0, 72, 0
4, 15360, Note_on_c, 0, 71, 88
4, 15891, Note_off_c, 0, 71, 0
4, 15900, Note_on_c, 0, 64, 88
4, 15958, Note_off_c, 0, 64, 0
4, 15960, Note_on_c, 0, 69, 88
4, 16135, Note_off_c, 0, 69, 0
4, 16140, Note_on_c, 0, 57, 88
4, 16198, Note_off_c, 0, 57, 0
4, 16200, Note_on_c, 0, 62, 88
4, 16436, Note_off_c, 0, 62, 0
4, 16440, Note_on_c, 0, 77, 88
4, 16556, Note_off_c, 0, 77, 0
4, 16560, Note_on_c, 0, 71, 88
4, 16676, Note_off_c, 0, 71, 0
4, 16680, Note_on_c, 0, 74, 88
4, 16796, Note_off_c, 0, 74, 0
4, 16800, Note_on_c, 0, 68, 88
4, 17034, Note_off_c, 0, 68, 0
4, 17040, Note_on_c, 0, 71, 88
4, 17396, Note_off_c, 0, 71, 0
4, 17400, Note_on_c, 0, 76, 88
4, 17429, Note_off_c, 0, 76, 0
4, 17430, Note_on_c, 0, 74, 88
4, 17459, Note_off_c, 0, 74, 0
4, 17460, Note_on_c, 0, 72, 88
4, 17489, Note_off_c, 0, 72, 0
4, 17490, Note_on_c, 0, 71, 88
4, 17519, Note_off_c, 0, 71, 0
4, 17520, Note_on_c, 0, 69, 88
4, 17578, Note_off_c, 0, 69, 0
4, 17580, Note_on_c, 0, 73, 88
4, 17609, Note_off_c, 0, 73, 0
4, 17610, Note_on_c, 0, 76, 88
4, 17639, Note_off_c, 0, 76, 0
4, 17640, Note_on_c, 0, 79, 88
4, 17756, Note_off_c, 0, 79, 0
4, 17760, Note_on_c, 0, 77, 88
4, 17876, Note_off_c, 0, 77, 0
4, 18300, Note_on_c, 0, 74, 88
4, 18329, Note_off_c, 0, 74, 0
4, 18330, Note_on_c, 0, 72, 88
4, 18359, Note_off_c, 0, 72, 0
4, 18360, Note_on_c, 0, 71, 88
4, 18418, Note_off_c, 0, 71, 0
4, 18420, Note_on_c, 0, 72, 88
4, 18449, Note_off_c, 0, 72, 0
4, 18450, Note_on_c, 0, 74, 88
4, 18479, Note_off_c, 0, 74, 0
4, 18480, Note_on_c, 0, 67, 88
4, 18596, Note_off_c, 0, 67, 0
4, 18600, Note_on_c, 0, 77, 88
4, 18716, Note_off_c, 0, 77, 0
4, 18720, Note_on_c, 0, 76, 88
4, 18836, Note_off_c, 0, 76, 0
4, 19440, Note_on_c, 0, 81, 88
4, 19674, Note_off_c, 0, 81, 0
4, 19680, Note_on_c, 0, 77, 88
4, 19914, Note_off_c, 0, 77, 0
4, 19920, Note_on_c, 0, 82, 88
4, 20154, Note_off_c, 0, 82, 0
4, 20160, Note_on_c, 0, 73, 88
4, 20394, Note_off_c, 0, 73, 0
4, 20760, Note_on_c, 0, 79, 88
4, 20876, Note_off_c, 0, 79, 0
4, 20880, Note_on_c, 0, 76, 88
4, 20996, Note_off_c, 0, 76, 0
4, 21000, Note_on_c, 0, 81, 88
4, 21116, Note_off_c, 0, 81, 0
4, 21120, Note_on_c, 0, 77, 88
4, 21236, Note_off_c, 0, 77, 0
4, 21240, Note_on_c, 0, 74, 88
4, 21356, Note_off_c, 0, 74, 0
4, 21720, Note_on_c, 0, 77, 88
4, 21836, Note_off_c, 0, 77, 0
4, 21840, Note_on_c, 0, 74, 88
4, 21956, Note_off_c, 0, 74, 0
4, 21960, Note_on_c, 0, 79, 88
4, 22076, Note_off_c, 0, 79, 0
4, 22080, Note_on_c, 0, 76, 88
4, 22196, Note_off_c, 0, 76, 0
4, 22200, Note_on_c, 0, 72, 88
4, 22316, Note_off_c, 0, 72, 0
4, 22320, Note_on_c, 0, 69, 88
4, 22436, Note_off_c, 0, 69, 0
4, 22440, Note_on_c, 0, 77, 88
4, 22556, Note_off_c, 0, 77, 0
4, 22560, Note_on_c, 0, 74, 88
4, 22676, Note_off_c, 0, 74, 0
4, 22680, Note_on_c, 0, 71, 88
4, 22796, Note_off_c, 0, 71, 0
4, 22800, Note_on_c, 0, 68, 88
4, 22916, Note_off_c, 0, 68, 0
4, 22920, Note_on_c, 0, 76, 88
4, 23036, Note_off_c, 0, 76, 0
4, 23040, Note_on_c, 0, 72, 88
4, 23393, Note_off_c, 0, 72, 0
4, 23550, Note_on_c, 0, 71, 88
4, 23579, Note_off_c, 0, 71, 0
4, 23580, Note_on_c, 0, 72, 88
4, 23609, Note_off_c, 0, 72, 0
4, 23610, Note_on_c, 0, 74, 88
4, 23639, Note_off_c, 0, 74, 0
4, 23640, Note_on_c, 0, 76, 88
4, 23669, Note_off_c, 0, 76, 0
4, 23670, Note_on_c, 0, 78, 88
4, 23699, Note_off_c, 0, 78, 0
4, 23700, Note_on_c, 0, 80, 88
4, 23729, Note_off_c, 0, 80, 0
4, 23730, Note_on_c, 0, 81, 88
4, 23759, Note_off_c, 0, 81, 0
4, 23760, Note_on_c, 0, 83, 88
4, 23789, Note_off_c, 0, 83, 0
4, 23790, Note_on_c, 0, 81, 88
4, 23819, Note_off_c, 0, 81, 0
4, 23820, Note_on_c, 0, 80, 88
4, 23849, Note_off_c, 0, 80, 0
4, 23850, Note_on_c, 0, 78, 88
4, 23879, Note_off_c, 0, 78, 0
4, 23880, Note_on_c, 0, 76, 88
4, 23909, Note_off_c, 0, 76, 0
4, 23910, Note_on_c, 0, 74, 88
4, 23939, Note_off_c, 0, 74, 0
4, 23940, Note_on_c, 0, 72, 88
4, 23969, Note_off_c, 0, 72, 0
4, 23970, Note_on_c, 0, 71, 88
4, 23999, Note_off_c, 0, 71, 0
4, 24000, Note_on_c, 0, 76, 88
4, 24029, Note_off_c, 0, 76, 0
4, 24030, Note_on_c, 0, 74, 88
4, 24059, Note_off_c, 0, 74, 0
4, 24060, Note_on_c, 0, 72, 88
4, 24089, Note_off_c, 0, 72, 0
4, 24090, Note_on_c, 0, 71, 88
4, 24119, Note_off_c, 0, 71, 0
4, 24120, Note_on_c, 0, 69, 88
4, 24149, Note_off_c, 0, 69, 0
4, 24150, Note_on_c, 0, 68, 88
4, 24179, Note_off_c, 0, 68, 0
4, 24180, Note_on_c, 0, 66, 88
4, 24209, Note_off_c, 0, 66, 0
4, 24210, Note_on_c, 0, 64, 88
4, 24239, Note_off_c, 0, 64, 0
4, 24240, Note_on_c, 0, 69, 88
4, 24269, Note_off_c, 0, 69, 0
4, 24270, Note_on_c, 0, 67, 88
4, 24299, Note_off_c, 0, 67, 0
4, 24300, Note_on_c, 0, 65, 88
4, 24329, Note_off_c, 0, 65, 0
4, 24330, Note_on_c, 0, 64, 88
4, 24359, Note_off_c, 0, 64, 0
4, 24360, Note_on_c, 0, 62, 88
4, 24389, Note_off_c, 0, 62, 0
4, 24390, Note_on_c, 0, 60, 88
4, 24419, Note_off_c, 0, 60, 0
4, 24420, Note_on_c, 0, 59, 88
4, 24449, Note_off_c, 0, 59, 0
4, 24450, Note_on_c, 0, 57, 88
4, 24479, Note_off_c, 0, 57, 0
4, 24480, Note_on_c, 0, 65, 88
4, 24509, Note_off_c, 0, 65, 0
4, 25110, Note_on_c, 0, 64, 88
4, 25139, Note_off_c, 0, 64, 0
4, 25140, Note_on_c, 0, 66, 88
4, 25169, Note_off_c, 0, 66, 0
4, 25170, Note_on_c, 0, 68, 88
4, 25199, Note_off_c, 0, 68, 0
4, 25200, Note_on_c, 0, 69, 88
4, 25222, Note_off_c, 0, 69, 0
4, 25223, Note_on_c, 0, 68, 88
4, 25244, Note_off_c, 0, 68, 0
4, 25245, Note_on_c, 0, 69, 88
4, 25267, Note_off_c, 0, 69, 0
4, 25268, Note_on_c, 0, 68, 88
4, 25289, Note_off_c, 0, 68, 0
4, 25290, Note_on_c, 0, 69, 88
4, 25312, Note_off_c, 0, 69, 0
4, 25313, Note_on_c, 0, 68, 88
4, 25334, Note_off_c, 0, 68, 0
4, 25335, Note_on_c, 0, 69, 88
4, 25357, Note_off_c, 0, 69, 0
4, 25358, Note_on_c, 0, 68, 88
4, 25379, Note_off_c, 0, 68, 0
4, 25380, Note_on_c, 0, 66, 88
4, 25409, Note_off_c, 0, 66, 0
4, 25410, Note_on_c, 0, 68, 88
4, 25439, Note_off_c, 0, 68, 0
4, 25440, Note_on_c, 0, 69, 88
4, 26036, Note_off_c, 0, 69, 0
4, 26040, Note_on_c, 0, 71, 88
4, 26156, Note_off_c, 0, 71, 0
4, 26160, Note_on_c, 0, 64, 88
4, 26276, Note_off_c, 0, 64, 0
4, 26280, Note_on_c, 0, 68, 88
4, 26396, Note_off_c, 0, 68, 0
4, 26400, Note_on_c, 0, 69, 88
4, 26870, Note_off_c, 0, 69, 0
4, 26870, End_track
5, 0, Start_track
5, 0, Title_t, "Track 2"
5, 0, Program_c, 1, 6
5, 2160, Note_on_c, 1, 69, 88
5, 2394, Note_off_c, 1, 69, 0
5, 2400, Note_on_c, 1, 67, 88
5, 2634, Note_off_c, 1, 67, 0
5, 2640, Note_on_c, 1, 72, 88
5, 2874, Note_off_c, 1, 72, 0
5, 2880, Note_on_c, 1, 63, 88
5, 3114, Note_off_c, 1, 63, 0
5, 3480, Note_on_c, 1, 69, 88
5, 3596, Note_off_c, 1, 69, 0
5, 3600, Note_on_c, 1, 66, 88
5, 3716, Note_off_c, 1, 66, 0
5, 3720, Note_on_c, 1, 71, 88
5, 3836, Note_off_c, 1, 71, 0
5, 3840, Note_on_c, 1, 67, 88
5, 3956, Note_off_c, 1, 67, 0
5, 3960, Note_on_c, 1, 64, 88
5, 4076, Note_off_c, 1, 64, 0
5, 4080, Note_on_c, 1, 61, 88
5, 4196, Note_off_c, 1, 61, 0
5, 4200, Note_on_c, 1, 69, 88
5, 4316, Note_off_c, 1, 69, 0
5, 4320, Note_on_c, 1, 65, 88
5, 4436, Note_off_c, 1, 65, 0
5, 4440, Note_on_c, 1, 62, 88
5, 4556, Note_off_c, 1, 62, 0
5, 4560, Note_on_c, 1, 59, 88
5, 4676, Note_off_c, 1, 59, 0
5, 4680, Note_on_c, 1, 67, 88
5, 4796, Note_off_c, 1, 67, 0
5, 4800, Note_on_c, 1, 64, 88
5, 4916, Note_off_c, 1, 64, 0
5, 4920, Note_on_c, 1, 69, 88
5, 5154, Note_off_c, 1, 69, 0
5, 5160, Note_on_c, 1, 68, 88
5, 5276, Note_off_c, 1, 68, 0
5, 5280, Note_on_c, 1, 57, 88
5, 5396, Note_off_c, 1, 57, 0
5, 5400, Note_on_c, 1, 69, 88
5, 5429, Note_off_c, 1, 69, 0
5, 5430, Note_on_c, 1, 67, 88
5, 5459, Note_off_c, 1, 67, 0
5, 5460, Note_on_c, 1, 65, 88
5, 5489, Note_off_c, 1, 65, 0
5, 5490, Note_on_c, 1, 64, 88
5, 5519, Note_off_c, 1, 64, 0
5, 5520, Note_on_c, 1, 62, 88
5, 5636, Note_off_c, 1, 62, 0
5, 5640, Note_on_c, 1, 65, 88
5, 5669, Note_off_c, 1, 65, 0
5, 5670, Note_on_c, 1, 64, 88
5, 5699, Note_off_c, 1, 64, 0
5, 5700, Note_on_c, 1, 62, 88
5, 5729, Note_off_c, 1, 62, 0
5, 5730, Note_on_c, 1, 60, 88
5, 5759, Note_off_c, 1, 60, 0
5, 5760, Note_on_c, 1, 59, 88
5, 5789, Note_off_c, 1, 59, 0
5, 5790, Note_on_c, 1, 60, 88
5, 5819, Note_off_c, 1, 60, 0
5, 5820, Note_on_c, 1, 62, 88
5, 5907, Note_off_c, 1, 62, 0
5, 5910, Note_on_c, 1, 60, 88
5, 5939, Note_off_c, 1, 60, 0
5, 5940, Note_on_c, 1, 59, 88
5, 5969, Note_off_c, 1, 59, 0
5, 5970, Note_on_c, 1, 57, 88
5, 5999, Note_off_c, 1, 57, 0
5, 6000, Note_on_c, 1, 56, 88
5, 6029, Note_off_c, 1, 56, 0
5, 6030, Note_on_c, 1, 57, 88
5, 6059, Note_off_c, 1, 57, 0
5, 6060, Note_on_c, 1, 59, 88
5, 6147, Note_off_c, 1, 59, 0
5, 6150, Note_on_c, 1, 57, 88
5, 6179, Note_off_c, 1, 57, 0
5, 6180, Note_on_c, 1, 56, 88
5, 6209, Note_off_c, 1, 56, 0
5, 6210, Note_on_c, 1, 54, 88
5, 6239, Note_off_c, 1, 54, 0
5, 6240, Note_on_c, 1, 52, 88
5, 6415, Note_off_c, 1, 52, 0
5, 6420, Note_on_c, 1, 54, 88
5, 6449, Note_off_c, 1, 54, 0
5, 6450, Note_on_c, 1, 56, 88
5, 6479, Note_off_c, 1, 56, 0
5, 6480, Note_on_c, 1, 57, 88
5, 6502, Note_off_c, 1, 57, 0
5, 6503, Note_on_c, 1, 56, 88
5, 6524, Note_off_c, 1, 56, 0
5, 6525, Note_on_c, 1, 57, 88
5, 6547, Note_off_c, 1, 57, 0
5, 6548, Note_on_c, 1, 56, 88
5, 6569, Note_off_c, 1, 56, 0
5, 6570, Note_on_c, 1, 57, 88
5, 6592, Note_off_c, 1, 57, 0
5, 6593, Note_on_c, 1, 56, 88
5, 6614, Note_off_c, 1, 56, 0
5, 6615, Note_on_c, 1, 57, 88
5, 6637, Note_off_c, 1, 57, 0
5, 6638, Note_on_c, 1, 56, 88
5, 6659, Note_off_c, 1, 56, 0
5, 6660, Note_on_c, 1, 54, 88
5, 6689, Note_off_c, 1, 54, 0
5, 6690, Note_on_c, 1, 56, 88
5, 6719, Note_off_c, 1, 56, 0
5, 6720, Note_on_c, 1, 57, 88
5, 6836, Note_off_c, 1, 57, 0
5, 6870, Note_on_c, 1, 57, 88
5, 6899, Note_off_c, 1, 57, 0
5, 6900, Note_on_c, 1, 59, 88
5, 6929, Note_off_c, 1, 59, 0
5, 6930, Note_on_c, 1, 60, 88
5, 6959, Note_off_c, 1, 60, 0
5, 6960, Note_on_c, 1, 62, 88
5, 7076, Note_off_c, 1, 62, 0
5, 7110, Note_on_c, 1, 60, 88
5, 7139, Note_off_c, 1, 60, 0
5, 7140, Note_on_c, 1, 59, 88
5, 7169, Note_off_c, 1, 59, 0
5, 7170, Note_on_c, 1, 57, 88
5, 7199, Note_off_c, 1, 57, 0
5, 7200, Note_on_c, 1, 55, 88
5, 7316, Note_off_c, 1, 55, 0
5, 7350, Note_on_c, 1, 55, 88
5, 7379, Note_off_c, 1, 55, 0
5, 7380, Note_on_c, 1, 57, 88
5, 7409, Note_off_c, 1, 57, 0
5, 7410, Note_on_c, 1, 59, 88
5, 7439, Note_off_c, 1, 59, 0
5, 7440, Note_on_c, 1, 60, 88
5, 7556, Note_off_c, 1, 60, 0
5, 7590, Note_on_c, 1, 58, 88
5, 7619, Note_off_c, 1, 58, 0
5, 7620, Note_on_c, 1, 57, 88
5, 7649, Note_off_c, 1, 57, 0
5, 7650, Note_on_c, 1, 55, 88
5, 7679, Note_off_c, 1, 55, 0
5, 7680, Note_on_c, 1, 53, 88
5, 7738, Note_off_c, 1, 53, 0
5, 7740, Note_on_c, 1, 65, 88
5, 7845, Note_off_c, 1, 65, 0
5, 7860, Note_on_c, 1, 65, 88
5, 7947, Note_off_c, 1, 65, 0
5, 7950, Note_on_c, 1, 64, 88
5, 7979, Note_off_c, 1, 64, 0
5, 7980, Note_on_c, 1, 65, 88
5, 8009, Note_off_c, 1, 65, 0
5, 8010, Note_on_c, 1, 67, 88
5, 8039, Note_off_c, 1, 67, 0
5, 8040, Note_on_c, 1, 69, 88
5, 8069, Note_off_c, 1, 69, 0
5, 8070, Note_on_c, 1, 67, 88
5, 8099, Note_off_c, 1, 67, 0
5, 8100, Note_on_c, 1, 65, 88
5, 8129, Note_off_c, 1, 65, 0
5, 8130, Note_on_c, 1, 64, 88
5, 8159, Note_off_c, 1, 64, 0
5, 8160, Note_on_c, 1, 62, 88
5, 8415, Note_off_c, 1, 62, 0
5, 8430, Note_on_c, 1, 62, 88
5, 8459, Note_off_c, 1, 62, 0
5, 8460, Note_on_c, 1, 64, 88
5, 8489, Note_off_c, 1, 64, 0
5, 8490, Note_on_c, 1, 65, 88
5, 8519, Note_off_c, 1, 65, 0
5, 8520, Note_on_c, 1, 67, 88
5, 8549, Note_off_c, 1, 67, 0
5, 8550, Note_on_c, 1, 65, 88
5, 8579, Note_off_c, 1, 65, 0
5, 8580, Note_on_c, 1, 64, 88
5, 8609, Note_off_c, 1, 64, 0
5, 8610, Note_on_c, 1, 62, 88
5, 8639, Note_off_c, 1, 62, 0
5, 8640, Note_on_c, 1, 60, 88
5, 8756, Note_off_c, 1, 60, 0
5, 8760, Note_on_c, 1, 55, 88
5, 8876, Note_off_c, 1, 55, 0
5, 8880, Note_on_c, 1, 60, 88
5, 8996, Note_off_c, 1, 60, 0
5, 9000, Note_on_c, 1, 65, 88
5, 9116, Note_off_c, 1, 65, 0
5, 9240, Note_on_c, 1, 69, 88
5, 9356, Note_off_c, 1, 69, 0
5, 9360, Note_on_c, 1, 62, 88
5, 9476, Note_off_c, 1, 62, 0
5, 9480, Note_on_c, 1, 65, 88
5, 9596, Note_off_c, 1, 65, 0
5, 9600, Note_on_c, 1, 59, 88
5, 9716, Note_off_c, 1, 59, 0
5, 9720, Note_on_c, 1, 62, 88
5, 9836, Note_off_c, 1, 62, 0
5, 9840, Note_on_c, 1, 65, 88
5, 9956, Note_off_c, 1, 65, 0
5, 9960, Note_on_c, 1, 62, 88
5, 10076, Note_off_c, 1, 62, 0
5, 10080, Note_on_c, 1, 67, 88
5, 10196, Note_off_c, 1, 67, 0
5, 10200, Note_on_c, 1, 60, 88
5, 10316, Note_off_c, 1, 60, 0
5, 10320, Note_on_c, 1, 57, 88
5, 10436, Note_off_c, 1, 57, 0
5, 10440, Note_on_c, 1, 62, 88
5, 10556, Note_off_c, 1, 62, 0
5, 10560, Note_on_c, 1, 59, 88
5, 10725, Note_off_c, 1, 59, 0
5, 10740, Note_on_c, 1, 59, 88
5, 10769, Note_off_c, 1, 59, 0
5, 10770, Note_on_c, 1, 61, 88
5, 10799, Note_off_c, 1, 61, 0
5, 10800, Note_on_c, 1, 62, 88
5, 10822, Note_off_c, 1, 62, 0
5, 10823, Note_on_c, 1, 61, 88
5, 10844, Note_off_c, 1, 61, 0
5, 10845, Note_on_c, 1, 62, 88
5, 10867, Note_off_c, 1, 62, 0
5, 10868, Note_on_c, 1, 61, 88
5, 10889, Note_off_c, 1, 61, 0
5, 10890, Note_on_c, 1, 62, 88
5, 10912, Note_off_c, 1, 62, 0
5, 10913, Note_on_c, 1, 61, 88
5, 10934, Note_off_c, 1, 61, 0
5, 10935, Note_on_c, 1, 62, 88
5, 10957, Note_off_c, 1, 62, 0
5, 10958, Note_on_c, 1, 61, 88
5, 10979, Note_off_c, 1, 61, 0
5, 10980, Note_on_c, 1, 59, 88
5, 11009, Note_off_c, 1, 59, 0
5, 11010, Note_on_c, 1, 61, 88
5, 11039, Note_off_c, 1, 61, 0
5, 11040, Note_on_c, 1, 62, 88
5, 11274, Note_off_c, 1, 62, 0
5, 11820, Note_on_c, 1, 72, 88
5, 11878, Note_off_c, 1, 72, 0
5, 11880, Note_on_c, 1, 71, 88
5, 11938, Note_off_c, 1, 71, 0
5, 11940, Note_on_c, 1, 78, 88
5, 12056, Note_off_c, 1, 78, 0
5, 12060, Note_on_c, 1, 71, 88
5, 12118, Note_off_c, 1, 71, 0
5, 12120, Note_on_c, 1, 76, 88
5, 12149, Note_off_c, 1, 76, 0
5, 12150, Note_on_c, 1, 74, 88
5, 12179, Note_off_c, 1, 74, 0
5, 12180, Note_on_c, 1, 72, 88
5, 12209, Note_off_c, 1, 72, 0
5, 12210, Note_on_c, 1, 71, 88
5, 12239, Note_off_c, 1, 71, 0
5, 12240, Note_on_c, 1, 69, 88
5, 12356, Note_off_c, 1, 69, 0
5, 12360, Note_on_c, 1, 72, 88
5, 12389, Note_off_c, 1, 72, 0
5, 12390, Note_on_c, 1, 71, 88
5, 12419, Note_off_c, 1, 71, 0
5, 12420, Note_on_c, 1, 69, 88
5, 12449, Note_off_c, 1, 69, 0
5, 12450, Note_on_c, 1, 67, 88
5, 12479, Note_off_c, 1, 67, 0
5, 12480, Note_on_c, 1, 66, 88
5, 12509, Note_off_c, 1, 66, 0
5, 12510, Note_on_c, 1, 67, 88
5, 12539, Note_off_c, 1, 67, 0
5, 12540, Note_on_c, 1, 69, 88
5, 12627, Note_off_c, 1, 69, 0
5, 12630, Note_on_c, 1, 67, 88
5, 12659, Note_off_c, 1, 67, 0
5, 12660, Note_on_c, 1, 66, 88
5, 12689, Note_off_c, 1, 66, 0
5, 12690, Note_on_c, 1, 64, 88
5, 12719, Note_off_c, 1, 64, 0
5, 12720, Note_on_c, 1, 63, 88
5, 12749, Note_off_c, 1, 63, 0
5, 12750, Note_on_c, 1, 64, 88
5, 12779, Note_off_c, 1, 64, 0
5, 12780, Note_on_c, 1, 66, 88
5, 12867, Note_off_c, 1, 66, 0
5, 12870, Note_on_c, 1, 64, 88
5, 12899, Note_off_c, 1, 64, 0
5, 12900, Note_on_c, 1, 63, 88
5, 12929, Note_off_c, 1, 63, 0
5, 12930, Note_on_c, 1, 61, 88
5, 12959, Note_off_c, 1, 61, 0
5, 12960, Note_on_c, 1, 59, 88
5, 13135, Note_off_c, 1, 59, 0
5, 13140, Note_on_c, 1, 61, 88
5, 13169, Note_off_c, 1, 61, 0
5, 13170, Note_on_c, 1, 63, 88
5, 13199, Note_off_c, 1, 63, 0
5, 13200, Note_on_c, 1, 64, 88
5, 13222, Note_off_c, 1, 64, 0
5, 13223, Note_on_c, 1, 63, 88
5, 13244, Note_off_c, 1, 63, 0
5, 13245, Note_on_c, 1, 64, 88
5, 13267, Note_off_c, 1, 64, 0
5, 13268, Note_on_c, 1, 63, 88
5, 13289, Note_off_c, 1, 63, 0
5, 13290, Note_on_c, 1, 64, 88
5, 13312, Note_off_c, 1, 64, 0
5, 13313, Note_on_c, 1, 63, 88
5, 13334, Note_off_c, 1, 63, 0
5, 13335, Note_on_c, 1, 64, 88
5, 13357, Note_off_c, 1, 64, 0
5, 13358, Note_on_c, 1, 63, 88
5, 13379, Note_off_c, 1, 63, 0
5, 13380, Note_on_c, 1, 61, 88
5, 13409, Note_off_c, 1, 61, 0
5, 13410, Note_on_c, 1, 63, 88
5, 13439, Note_off_c, 1, 63, 0
5, 13440, Note_on_c, 1, 64, 88
5, 13556, Note_off_c, 1, 64, 0
5, 14040, Note_on_c, 1, 62, 88
5, 14156, Note_off_c, 1, 62, 0
5, 14160, Note_on_c, 1, 59, 88
5, 14276, Note_off_c, 1, 59, 0
5, 14280, Note_on_c, 1, 67, 88
5, 14396, Note_off_c, 1, 67, 0
5, 14400, Note_on_c, 1, 64, 88
5, 14516, Note_off_c, 1, 64, 0
5, 15150, Note_on_c, 1, 64, 88
5, 15179, Note_off_c, 1, 64, 0
5, 15180, Note_on_c, 1, 65, 88
5, 15209, Note_off_c, 1, 65, 0
5, 15210, Note_on_c, 1, 67, 88
5, 15239, Note_off_c, 1, 67, 0
5, 15240, Note_on_c, 1, 69, 88
5, 15269, Note_off_c, 1, 69, 0
5, 15270, Note_on_c, 1, 67, 88
5, 15299, Note_off_c, 1, 67, 0
5, 15300, Note_on_c, 1, 65, 88
5, 15329, Note_off_c, 1, 65, 0
5, 15330, Note_on_c, 1, 64, 88
5, 15359, Note_off_c, 1, 64, 0
5, 15360, Note_on_c, 1, 62, 88
5, 15476, Note_off_c, 1, 62, 0
5, 15480, Note_on_c, 1, 65, 88
5, 15596, Note_off_c, 1, 65, 0
5, 15600, Note_on_c, 1, 59, 88
5, 15716, Note_off_c, 1, 59, 0
5, 15720, Note_on_c, 1, 62, 88
5, 15836, Note_off_c, 1, 62, 0
5, 15840, Note_on_c, 1, 60, 88
5, 16074, Note_off_c, 1, 60, 0
5, 16080, Note_on_c, 1, 65, 88
5, 16314, Note_off_c, 1, 65, 0
5, 16320, Note_on_c, 1, 56, 88
5, 16554, Note_off_c, 1, 56, 0
5, 16920, Note_on_c, 1, 62, 88
5, 17036, Note_off_c, 1, 62, 0
5, 17040, Note_on_c, 1, 59, 88
5, 17156, Note_off_c, 1, 59, 0
5, 17160, Note_on_c, 1, 64, 88
5, 17276, Note_off_c, 1, 64, 0
5, 17280, Note_on_c, 1, 60, 88
5, 17396, Note_off_c, 1, 60, 0
5, 17880, Note_on_c, 1, 69, 88
5, 17909, Note_off_c, 1, 69, 0
5, 17910, Note_on_c, 1, 67, 88
5, 17939, Note_off_c, 1, 67, 0
5, 17940, Note_on_c, 1, 65, 88
5, 17969, Note_off_c, 1, 65, 0
5, 17970, Note_on_c, 1, 64, 88
5, 17999, Note_off_c, 1, 64, 0
5, 18000, Note_on_c, 1, 62, 88
5, 18058, Note_off_c, 1, 62, 0
5, 18060, Note_on_c, 1, 66, 88
5, 18089, Note_off_c, 1, 66, 0
5, 18090, Note_on_c, 1, 69, 88
5, 18119, Note_off_c, 1, 69, 0
5, 18120, Note_on_c, 1, 72, 88
5, 18236, Note_off_c, 1, 72, 0
5, 18240, Note_on_c, 1, 71, 88
5, 18356, Note_off_c, 1, 71, 0
5, 18780, Note_on_c, 1, 67, 88
5, 18809, Note_off_c, 1, 67, 0
5, 18810, Note_on_c, 1, 65, 88
5, 18839, Note_off_c, 1, 65, 0
5, 18840, Note_on_c, 1, 64, 88
5, 18898, Note_off_c, 1, 64, 0
5, 18900, Note_on_c, 1, 65, 88
5, 18929, Note_off_c, 1, 65, 0
5, 18930, Note_on_c, 1, 67, 88
5, 18959, Note_off_c, 1, 67, 0
5, 18960, Note_on_c, 1, 60, 88
5, 19076, Note_off_c, 1, 60, 0
5, 19080, Note_on_c, 1, 70, 88
5, 19196, Note_off_c, 1, 70, 0
5, 19200, Note_on_c, 1, 69, 88
5, 19258, Note_off_c, 1, 69, 0
5, 19260, Note_on_c, 1, 71, 88
5, 19289, Note_off_c, 1, 71, 0
5, 19290, Note_on_c, 1, 73, 88
5, 19319, Note_off_c, 1, 73, 0
5, 19320, Note_on_c, 1, 74, 88
5, 19554, Note_off_c, 1, 74, 0
5, 19560, Note_on_c, 1, 73, 88
5, 19676, Note_off_c, 1, 73, 0
5, 19680, Note_on_c, 1, 74, 88
5, 19914, Note_off_c, 1, 74, 0
5, 20280, Note_on_c, 1, 70, 88
5, 20396, Note_off_c, 1, 70, 0
5, 20400, Note_on_c, 1, 64, 88
5, 20516, Note_off_c, 1, 64, 0
5, 20520, Note_on_c, 1, 67, 88
5, 20636, Note_off_c, 1, 67, 0
5, 20640, Note_on_c, 1, 61, 88
5, 20756, Note_off_c, 1, 61, 0
5, 20760, Note_on_c, 1, 76, 88
5, 20876, Note_off_c, 1, 76, 0
5, 20880, Note_on_c, 1, 69, 88
5, 21225, Note_off_c, 1, 69, 0
5, 21240, Note_on_c, 1, 69, 88
5, 21356, Note_off_c, 1, 69, 0
5, 21360, Note_on_c, 1, 62, 88
5, 21476, Note_off_c, 1, 62, 0
5, 21480, Note_on_c, 1, 65, 88
5, 21596, Note_off_c, 1, 65, 0
5, 21600, Note_on_c, 1, 59, 88
5, 21716, Note_off_c, 1, 59, 0
5, 21720, Note_on_c, 1, 74, 88
5, 21836, Note_off_c, 1, 74, 0
5, 21840, Note_on_c, 1, 67, 88
5, 22196, Note_off_c, 1, 67, 0
5, 22680, Note_on_c, 1, 62, 88
5, 22796, Note_off_c, 1, 62, 0
5, 22800, Note_on_c, 1, 59, 88
5, 22916, Note_off_c, 1, 59, 0
5, 22920, Note_on_c, 1, 68, 88
5, 23036, Note_off_c, 1, 68, 0
5, 23040, Note_on_c, 1, 69, 88
5, 23274, Note_off_c, 1, 69, 0
5, 23310, Note_on_c, 1, 71, 88
5, 23339, Note_off_c, 1, 71, 0
5, 23340, Note_on_c, 1, 69, 88
5, 23369, Note_off_c, 1, 69, 0
5, 23370, Note_on_c, 1, 67, 88
5, 23399, Note_off_c, 1, 67, 0
5, 23400, Note_on_c, 1, 65, 88
5, 23429, Note_off_c, 1, 65, 0
5, 23430, Note_on_c, 1, 64, 88
5, 23459, Note_off_c, 1, 64, 0
5, 23460, Note_on_c, 1, 62, 88
5, 23489, Note_off_c, 1, 62, 0
5, 23490, Note_on_c, 1, 60, 88
5, 23519, Note_off_c, 1, 60, 0
5, 23520, Note_on_c, 1, 62, 88
5, 23636, Note_off_c, 1, 62, 0
5, 23640, Note_on_c, 1, 59, 88
5, 23698, Note_off_c, 1, 59, 0
5, 23700, Note_on_c, 1, 57, 88
5, 23758, Note_off_c, 1, 57, 0
5, 23760, Note_on_c, 1, 56, 88
5, 23994, Note_off_c, 1, 56, 0
5, 24000, Note_on_c, 1, 57, 88
5, 24234, Note_off_c, 1, 57, 0
5, 24510, Note_on_c, 1, 64, 88
5, 24539, Note_off_c, 1, 64, 0
5, 24540, Note_on_c, 1, 62, 88
5, 24569, Note_off_c, 1, 62, 0
5, 24570, Note_on_c, 1, 60, 88
5, 24599, Note_off_c, 1, 60, 0
5, 24600, Note_on_c, 1, 59, 88
5, 24629, Note_off_c, 1, 59, 0
5, 24630, Note_on_c, 1, 57, 88
5, 24659, Note_off_c, 1, 57, 0
5, 24660, Note_on_c, 1, 56, 88
5, 24689, Note_off_c, 1, 56, 0
5, 24690, Note_on_c, 1, 54, 88
5, 24719, Note_off_c, 1, 54, 0
5, 24720, Note_on_c, 1, 62, 88
5, 24749, Note_off_c, 1, 62, 0
5, 24750, Note_on_c, 1, 60, 88
5, 24779, Note_off_c, 1, 60, 0
5, 24780, Note_on_c, 1, 59, 88
5, 24809, Note_off_c, 1, 59, 0
5, 24810, Note_on_c, 1, 57, 88
5, 24839, Note_off_c, 1, 57, 0
5, 24840, Note_on_c, 1, 56, 88
5, 24869, Note_off_c, 1, 56, 0
5, 24870, Note_on_c, 1, 54, 88
5, 24899, Note_off_c, 1, 54, 0
5, 24900, Note_on_c, 1, 52, 88
5, 24929, Note_off_c, 1, 52, 0
5, 24930, Note_on_c, 1, 51, 88
5, 24959, Note_off_c, 1, 51, 0
5, 24960, Note_on_c, 1, 52, 88
5, 25076, Note_off_c, 1, 52, 0
5, 25590, Note_on_c, 1, 59, 88
5, 25619, Note_off_c, 1, 59, 0
5, 25620, Note_on_c, 1, 60, 88
5, 25649, Note_off_c, 1, 60, 0
5, 25650, Note_on_c, 1, 62, 88
5, 25665, Note_off_c, 1, 62, 0
5, 25680, Note_on_c, 1, 62, 88
5, 25702, Note_off_c, 1, 62, 0
5, 25703, Note_on_c, 1, 61, 88
5, 25724, Note_off_c, 1, 61, 0
5, 25725, Note_on_c, 1, 62, 88
5, 25747, Note_off_c, 1, 62, 0
5, 25748, Note_on_c, 1, 61, 88
5, 25769, Note_off_c, 1, 61, 0
5, 25770, Note_on_c, 1, 62, 88
5, 25792, Note_off_c, 1, 62, 0
5, 25793, Note_on_c, 1, 61, 88
5, 25814, Note_off_c, 1, 61, 0
5, 25815, Note_on_c, 1, 62, 88
5, 25837, Note_off_c, 1, 62, 0
5, 25838, Note_on_c, 1, 61, 88
5, 25859, Note_off_c, 1, 61, 0
5, 25860, Note_on_c, 1, 59, 88
5, 25889, Note_off_c, 1, 59, 0
5, 25890, Note_on_c, 1, 61, 88
5, 25919, Note_off_c, 1, 61, 0
5, 25920, Note_on_c, 1, 62, 88
5, 26036, Note_off_c, 1, 62, 0
5, 26040, Note_on_c, 1, 65, 88
5, 26156, Note_off_c, 1, 65, 0
5, 26160, Note_on_c, 1, 56, 88
5, 26276, Note_off_c, 1, 56, 0
5, 26280, Note_on_c, 1, 59, 88
5, 26396, Note_off_c, 1, 59, 0
5, 26400, Note_on_c, 1, 60, 88
5, 26400, Note_on_c, 1, 64, 88
5, 26870, Note_off_c, 1, 60, 0
5, 26870, Note_off_c, 1, 64, 0
5, 26870, End_track
6, 0, Start_track
6, 0, Title_t, "Track 3"
6, 0, Program_c, 2, 6
6, 240, Note_on_c, 2, 64, 88
6, 474, Note_off_c, 2, 64, 0
6, 480, Note_on_c, 2, 60, 88
6, 714, Note_off_c, 2, 60, 0
6, 720, Note_on_c, 2, 65, 88
6, 954, Note_off_c, 2, 65, 0
6, 960, Note_on_c, 2, 56, 88
6, 1194, Note_off_c, 2, 56, 0
6, 1560, Note_on_c, 2, 62, 88
6, 1676, Note_off_c, 2, 62, 0
6, 1680, Note_on_c, 2, 59, 88
6, 1796, Note_off_c, 2, 59, 0
6, 1800, Note_on_c, 2, 64, 88
6, 1916, Note_off_c, 2, 64, 0
6, 1920, Note_on_c, 2, 60, 88
6, 2036, Note_off_c, 2, 60, 0
6, 2040, Note_on_c, 2, 57, 88
6, 2156, Note_off_c, 2, 57, 0
6, 2160, Note_on_c, 2, 54, 88
6, 2276, Note_off_c, 2, 54, 0
6, 2280, Note_on_c, 2, 63, 88
6, 2396, Note_off_c, 2, 63, 0
6, 2400, Note_on_c, 2, 52, 88
6, 2516, Note_off_c, 2, 52, 0
6, 2520, Note_on_c, 2, 64, 88
6, 2549, Note_off_c, 2, 64, 0
6, 2550, Note_on_c, 2, 62, 88
6, 2579, Note_off_c, 2, 62, 0
6, 2580, Note_on_c, 2, 60, 88
6, 2609, Note_off_c, 2, 60, 0
6, 2610, Note_on_c, 2, 59, 88
6, 2639, Note_off_c, 2, 59, 0
6, 2640, Note_on_c, 2, 57, 88
6, 2756, Note_off_c, 2, 57, 0
6, 2760, Note_on_c, 2, 60, 88
6, 2789, Note_off_c, 2, 60, 0
6, 2790, Note_on_c, 2, 59, 88
6, 2819, Note_off_c, 2, 59, 0
6, 2820, Note_on_c, 2, 57, 88
6, 2849, Note_off_c, 2, 57, 0
6, 2850, Note_on_c, 2, 55, 88
6, 2879, Note_off_c, 2, 55, 0
6, 2880, Note_on_c, 2, 54, 88
6, 2909, Note_off_c, 2, 54, 0
6, 2910, Note_on_c, 2, 55, 88
6, 2939, Note_off_c, 2, 55, 0
6, 2940, Note_on_c, 2, 57, 88
6, 3027, Note_off_c, 2, 57, 0
6, 3030, Note_on_c, 2, 55, 88
6, 3059, Note_off_c, 2, 55, 0
6, 3060, Note_on_c, 2, 54, 88
6, 3089, Note_off_c, 2, 54, 0
6, 3090, Note_on_c, 2, 52, 88
6, 3119, Note_off_c, 2, 52, 0
6, 3120, Note_on_c, 2, 51, 88
6, 3149, Note_off_c, 2, 51, 0
6, 3150, Note_on_c, 2, 52, 88
6, 3179, Note_off_c, 2, 52, 0
6, 3180, Note_on_c, 2, 54, 88
6, 3267, Note_off_c, 2, 54, 0
6, 3270, Note_on_c, 2, 52, 88
6, 3299, Note_off_c, 2, 52, 0
6, 3300, Note_on_c, 2, 51, 88
6, 3329, Note_off_c, 2, 51, 0
6, 3330, Note_on_c, 2, 49, 88
6, 3359, Note_off_c, 2, 49, 0
6, 3360, Note_on_c, 2, 47, 88
6, 3535, Note_off_c, 2, 47, 0
6, 3540, Note_on_c, 2, 49, 88
6, 3569, Note_off_c, 2, 49, 0
6, 3570, Note_on_c, 2, 51, 88
6, 3599, Note_off_c, 2, 51, 0
6, 3600, Note_on_c, 2, 52, 88
6, 3622, Note_off_c, 2, 52, 0
6, 3623, Note_on_c, 2, 51, 88
6, 3644, Note_off_c, 2, 51, 0
6, 3645, Note_on_c, 2, 52, 88
6, 3667, Note_off_c, 2, 52, 0
6, 3668, Note_on_c, 2, 51, 88
6, 3689, Note_off_c, 2, 51, 0
6, 3690, Note_on_c, 2, 52, 88
6, 3712, Note_off_c, 2, 52, 0
6, 3713, Note_on_c, 2, 51, 88
6, 3734, Note_off_c, 2, 51, 0
6, 3735, Note_on_c, 2, 52, 88
6, 3757, Note_off_c, 2, 52, 0
6, 3758, Note_on_c, 2, 51, 88
6, 3779, Note_off_c, 2, 51, 0
6, 3780, Note_on_c, 2, 49, 88
6, 3809, Note_off_c, 2, 49, 0
6, 3810, Note_on_c, 2, 51, 88
6, 3839, Note_off_c, 2, 51, 0
6, 3840, Note_on_c, 2, 52, 88
6, 3956, Note_off_c, 2, 52, 0
6, 3990, Note_on_c, 2, 52, 88
6, 4019, Note_off_c, 2, 52, 0
6, 4020, Note_on_c, 2, 53, 88
6, 4049, Note_off_c, 2, 53, 0
6, 4050, Note_on_c, 2, 55, 88
6, 4079, Note_off_c, 2, 55, 0
6, 4080, Note_on_c, 2, 57, 88
6, 4196, Note_off_c, 2, 57, 0
6, 4230, Note_on_c, 2, 55, 88
6, 4259, Note_off_c, 2, 55, 0
6, 4260, Note_on_c, 2, 53, 88
6, 4289, Note_off_c, 2, 53, 0
6, 4290, Note_on_c, 2, 52, 88
6, 4319, Note_off_c, 2, 52, 0
6, 4320, Note_on_c, 2, 50, 88
6, 4436, Note_off_c, 2, 50, 0
6, 4470, Note_on_c, 2, 50, 88
6, 4499, Note_off_c, 2, 50, 0
6, 4500, Note_on_c, 2, 52, 88
6, 4529, Note_off_c, 2, 52, 0
6, 4530, Note_on_c, 2, 53, 88
6, 4559, Note_off_c, 2, 53, 0
6, 4560, Note_on_c, 2, 55, 88
6, 4676, Note_off_c, 2, 55, 0
6, 4710, Note_on_c, 2, 53, 88
6, 4739, Note_off_c, 2, 53, 0
6, 4740, Note_on_c, 2, 52, 88
6, 4769, Note_off_c, 2, 52, 0
6, 4770, Note_on_c, 2, 50, 88
6, 4799, Note_off_c, 2, 50, 0
6, 4800, Note_on_c, 2, 48, 88
6, 4975, Note_off_c, 2, 48, 0
6, 4980, Note_on_c, 2, 50, 88
6, 5038, Note_off_c, 2, 50, 0
6, 5040, Note_on_c, 2, 52, 88
6, 5098, Note_off_c, 2, 52, 0
6, 5100, Note_on_c, 2, 53, 88
6, 5129, Note_off_c, 2, 53, 0
6, 5130, Note_on_c, 2, 52, 88
6, 5159, Note_off_c, 2, 52, 0
6, 5160, Note_on_c, 2, 50, 88
6, 5218, Note_off_c, 2, 50, 0
6, 5220, Note_on_c, 2, 52, 88
6, 5278, Note_off_c, 2, 52, 0
6, 5280, Note_on_c, 2, 53, 88
6, 5514, Note_off_c, 2, 53, 0
6, 5880, Note_on_c, 2, 53, 88
6, 5996, Note_off_c, 2, 53, 0
6, 6000, Note_on_c, 2, 47, 88
6, 6116, Note_off_c, 2, 47, 0
6, 6120, Note_on_c, 2, 50, 88
6, 6236, Note_off_c, 2, 50, 0
6, 6240, Note_on_c, 2, 44, 88
6, 6356, Note_off_c, 2, 44, 0
6, 6360, Note_on_c, 2, 47, 88
6, 6476, Note_off_c, 2, 47, 0
6, 6480, Note_on_c, 2, 52, 88
6, 6714, Note_off_c, 2, 52, 0
6, 6720, Note_on_c, 2, 45, 88
6, 6836, Note_off_c, 2, 45, 0
6, 7080, Note_on_c, 2, 54, 88
6, 7196, Note_off_c, 2, 54, 0
6, 7200, Note_on_c, 2, 55, 88
6, 7316, Note_off_c, 2, 55, 0
6, 7560, Note_on_c, 2, 52, 88
6, 7676, Note_off_c, 2, 52, 0
6, 7680, Note_on_c, 2, 53, 88
6, 7796, Note_off_c, 2, 53, 0
6, 7800, Note_on_c, 2, 55, 88
6, 7916, Note_off_c, 2, 55, 0
6, 7920, Note_on_c, 2, 57, 88
6, 8036, Note_off_c, 2, 57, 0
6, 8040, Note_on_c, 2, 55, 88
6, 8156, Note_off_c, 2, 55, 0
6, 8160, Note_on_c, 2, 53, 88
6, 8276, Note_off_c, 2, 53, 0
6, 8280, Note_on_c, 2, 50, 88
6, 8396, Note_off_c, 2, 50, 0
6, 8400, Note_on_c, 2, 55, 88
6, 8516, Note_off_c, 2, 55, 0
6, 8520, Note_on_c, 2, 53, 88
6, 8636, Note_off_c, 2, 53, 0
6, 8640, Note_on_c, 2, 52, 88
6, 8874, Note_off_c, 2, 52, 0
6, 8880, Note_on_c, 2, 57, 88
6, 9114, Note_off_c, 2, 57, 0
6, 9120, Note_on_c, 2, 47, 88
6, 9354, Note_off_c, 2, 47, 0
6, 9720, Note_on_c, 2, 53, 88
6, 9836, Note_off_c, 2, 53, 0
6, 9840, Note_on_c, 2, 50, 88
6, 9956, Note_off_c, 2, 50, 0
6, 9960, Note_on_c, 2, 55, 88
6, 10076, Note_off_c, 2, 55, 0
6, 10080, Note_on_c, 2, 52, 88
6, 10245, Note_off_c, 2, 52, 0
6, 10260, Note_on_c, 2, 52, 88
6, 10289, Note_off_c, 2, 52, 0
6, 10290, Note_on_c, 2, 54, 88
6, 10319, Note_off_c, 2, 54, 0
6, 10320, Note_on_c, 2, 55, 88
6, 10342, Note_off_c, 2, 55, 0
6, 10343, Note_on_c, 2, 54, 88
6, 10364, Note_off_c, 2, 54, 0
6, 10365, Note_on_c, 2, 55, 88
6, 10387, Note_off_c, 2, 55, 0
6, 10388, Note_on_c, 2, 54, 88
6, 10409, Note_off_c, 2, 54, 0
6, 10410, Note_on_c, 2, 55, 88
6, 10432, Note_off_c, 2, 55, 0
6, 10433, Note_on_c, 2, 54, 88
6, 10454, Note_off_c, 2, 54, 0
6, 10455, Note_on_c, 2, 55, 88
6, 10477, Note_off_c, 2, 55, 0
6, 10478, Note_on_c, 2, 54, 88
6, 10499, Note_off_c, 2, 54, 0
6, 10500, Note_on_c, 2, 52, 88
6, 10529, Note_off_c, 2, 52, 0
6, 10530, Note_on_c, 2, 54, 88
6, 10559, Note_off_c, 2, 54, 0
6, 10560, Note_on_c, 2, 55, 88
6, 10676, Note_off_c, 2, 55, 0
6, 10680, Note_on_c, 2, 52, 88
6, 10796, Note_off_c, 2, 52, 0
6, 10800, Note_on_c, 2, 57, 88
6, 11034, Note_off_c, 2, 57, 0
6, 11160, Note_on_c, 2, 50, 88
6, 11276, Note_off_c, 2, 50, 0
6, 11280, Note_on_c, 2, 47, 88
6, 11396, Note_off_c, 2, 47, 0
6, 11400, Note_on_c, 2, 52, 88
6, 11516, Note_off_c, 2, 52, 0
6, 11520, Note_on_c, 2, 48, 88
6, 11636, Note_off_c, 2, 48, 0
6, 11640, Note_on_c, 2, 45, 88
6, 11756, Note_off_c, 2, 45, 0
6, 11760, Note_on_c, 2, 42, 88
6, 11876, Note_off_c, 2, 42, 0
6, 11880, Note_on_c, 2, 51, 88
6, 11996, Note_off_c, 2, 51, 0
6, 12000, Note_on_c, 2, 40, 88
6, 12116, Note_off_c, 2, 40, 0
6, 12600, Note_on_c, 2, 60, 88
6, 12716, Note_off_c, 2, 60, 0
6, 12720, Note_on_c, 2, 54, 88
6, 12836, Note_off_c, 2, 54, 0
6, 12840, Note_on_c, 2, 57, 88
6, 12956, Note_off_c, 2, 57, 0
6, 12960, Note_on_c, 2, 51, 88
6, 13076, Note_off_c, 2, 51, 0
6, 13080, Note_on_c, 2, 54, 88
6, 13196, Note_off_c, 2, 54, 0
6, 13200, Note_on_c, 2, 59, 88
6, 13434, Note_off_c, 2, 59, 0
6, 13440, Note_on_c, 2, 52, 88
6, 13556, Note_off_c, 2, 52, 0
6, 13590, Note_on_c, 2, 40, 88
6, 13619, Note_off_c, 2, 40, 0
6, 13620, Note_on_c, 2, 41, 88
6, 13649, Note_off_c, 2, 41, 0
6, 13650, Note_on_c, 2, 43, 88
6, 13679, Note_off_c, 2, 43, 0
6, 13680, Note_on_c, 2, 45, 88
6, 13796, Note_off_c, 2, 45, 0
6, 13830, Note_on_c, 2, 43, 88
6, 13859, Note_off_c, 2, 43, 0
6, 13860, Note_on_c, 2, 41, 88
6, 13889, Note_off_c, 2, 41, 0
6, 13890, Note_on_c, 2, 40, 88
6, 13919, Note_off_c, 2, 40, 0
6, 13920, Note_on_c, 2, 38, 88
6, 14036, Note_off_c, 2, 38, 0
6, 14520, Note_on_c, 2, 57, 88
6, 14636, Note_off_c, 2, 57, 0
6, 14640, Note_on_c, 2, 53, 88
6, 14756, Note_off_c, 2, 53, 0
6, 14760, Note_on_c, 2, 62, 88
6, 14876, Note_off_c, 2, 62, 0
6, 14880, Note_on_c, 2, 56, 88
6, 14996, Note_off_c, 2, 56, 0
6, 15000, Note_on_c, 2, 52, 88
6, 15116, Note_off_c, 2, 52, 0
6, 15120, Note_on_c, 2, 57, 88
6, 15389, Note_off_c, 2, 57, 0
6, 15390, Note_on_c, 2, 57, 88
6, 15419, Note_off_c, 2, 57, 0
6, 15420, Note_on_c, 2, 59, 88
6, 15449, Note_off_c, 2, 59, 0
6, 15450, Note_on_c, 2, 60, 88
6, 15479, Note_off_c, 2, 60, 0
6, 15480, Note_on_c, 2, 62, 88
6, 15509, Note_off_c, 2, 62, 0
6, 15510, Note_on_c, 2, 60, 88
6, 15539, Note_off_c, 2, 60, 0
6, 15540, Note_on_c, 2, 59, 88
6, 15569, Note_off_c, 2, 59, 0
6, 15570, Note_on_c, 2, 57, 88
6, 15599, Note_off_c, 2, 57, 0
6, 15600, Note_on_c, 2, 56, 88
6, 15629, Note_off_c, 2, 56, 0
6, 15630, Note_on_c, 2, 57, 88
6, 15659, Note_off_c, 2, 57, 0
6, 15660, Note_on_c, 2, 56, 88
6, 15689, Note_off_c, 2, 56, 0
6, 15690, Note_on_c, 2, 54, 88
6, 15719, Note_off_c, 2, 54, 0
6, 15720, Note_on_c, 2, 52, 88
6, 15749, Note_off_c, 2, 52, 0
6, 15750, Note_on_c, 2, 50, 88
6, 15779, Note_off_c, 2, 50, 0
6, 15780, Note_on_c, 2, 48, 88
6, 15809, Note_off_c, 2, 48, 0
6, 15810, Note_on_c, 2, 47, 88
6, 15839, Note_off_c, 2, 47, 0
6, 15840, Note_on_c, 2, 45, 88
6, 15956, Note_off_c, 2, 45, 0
6, 15960, Note_on_c, 2, 57, 88
6, 15989, Note_off_c, 2, 57, 0
6, 15990, Note_on_c, 2, 55, 88
6, 16019, Note_off_c, 2, 55, 0
6, 16020, Note_on_c, 2, 53, 88
6, 16049, Note_off_c, 2, 53, 0
6, 16050, Note_on_c, 2, 52, 88
6, 16079, Note_off_c, 2, 52, 0
6, 16080, Note_on_c, 2, 50, 88
6, 16196, Note_off_c, 2, 50, 0
6, 16200, Note_on_c, 2, 53, 88
6, 16229, Note_off_c, 2, 53, 0
6, 16230, Note_on_c, 2, 52, 88
6, 16259, Note_off_c, 2, 52, 0
6, 16260, Note_on_c, 2, 50, 88
6, 16289, Note_off_c, 2, 50, 0
6, 16290, Note_on_c, 2, 48, 88
6, 16319, Note_off_c, 2, 48, 0
6, 16320, Note_on_c, 2, 47, 88
6, 16349, Note_off_c, 2, 47, 0
6, 16350, Note_on_c, 2, 48, 88
6, 16379, Note_off_c, 2, 48, 0
6, 16380, Note_on_c, 2, 50, 88
6, 16467, Note_off_c, 2, 50, 0
6, 16470, Note_on_c, 2, 48, 88
6, 16499, Note_off_c, 2, 48, 0
6, 16500, Note_on_c, 2, 47, 88
6, 16529, Note_off_c, 2, 47, 0
6, 16530, Note_on_c, 2, 45, 88
6, 16559, Note_off_c, 2, 45, 0
6, 16560, Note_on_c, 2, 44, 88
6, 16589, Note_off_c, 2, 44, 0
6, 16590, Note_on_c, 2, 45, 88
6, 16619, Note_off_c, 2, 45, 0
6, 16620, Note_on_c, 2, 47, 88
6, 16707, Note_off_c, 2, 47, 0
6, 16710, Note_on_c, 2, 45, 88
6, 16739, Note_off_c, 2, 45, 0
6, 16740, Note_on_c, 2, 44, 88
6, 16769, Note_off_c, 2, 44, 0
6, 16770, Note_on_c, 2, 42, 88
6, 16799, Note_off_c, 2, 42, 0
6, 16800, Note_on_c, 2, 40, 88
6, 16975, Note_off_c, 2, 40, 0
6, 16980, Note_on_c, 2, 42, 88
6, 17009, Note_off_c, 2, 42, 0
6, 17010, Note_on_c, 2, 44, 88
6, 17039, Note_off_c, 2, 44, 0
6, 17040, Note_on_c, 2, 45, 88
6, 17062, Note_off_c, 2, 45, 0
6, 17063, Note_on_c, 2, 44, 88
6, 17084, Note_off_c, 2, 44, 0
6, 17085, Note_on_c, 2, 45, 88
6, 17107, Note_off_c, 2, 45, 0
6, 17108, Note_on_c, 2, 44, 88
6, 17129, Note_off_c, 2, 44, 0
6, 17130, Note_on_c, 2, 45, 88
6, 17152, Note_off_c, 2, 45, 0
6, 17153, Note_on_c, 2, 44, 88
6, 17174, Note_off_c, 2, 44, 0
6, 17175, Note_on_c, 2, 45, 88
6, 17197, Note_off_c, 2, 45, 0
6, 17198, Note_on_c, 2, 44, 88
6, 17219, Note_off_c, 2, 44, 0
6, 17220, Note_on_c, 2, 42, 88
6, 17249, Note_off_c, 2, 42, 0
6, 17250, Note_on_c, 2, 44, 88
6, 17279, Note_off_c, 2, 44, 0
6, 17280, Note_on_c, 2, 45, 88
6, 17455, Note_off_c, 2, 45, 0
6, 17460, Note_on_c, 2, 47, 88
6, 17489, Note_off_c, 2, 47, 0
6, 17490, Note_on_c, 2, 48, 88
6, 17519, Note_off_c, 2, 48, 0
6, 17520, Note_on_c, 2, 50, 88
6, 17542, Note_off_c, 2, 50, 0
6, 17543, Note_on_c, 2, 49, 88
6, 17564, Note_off_c, 2, 49, 0
6, 17565, Note_on_c, 2, 50, 88
6, 17587, Note_off_c, 2, 50, 0
6, 17588, Note_on_c, 2, 49, 88
6, 17609, Note_off_c, 2, 49, 0
6, 17610, Note_on_c, 2, 50, 88
6, 17632, Note_off_c, 2, 50, 0
6, 17633, Note_on_c, 2, 49, 88
6, 17654, Note_off_c, 2, 49, 0
6, 17655, Note_on_c, 2, 50, 88
6, 17677, Note_off_c, 2, 50, 0
6, 17678, Note_on_c, 2, 49, 88
6, 17699, Note_off_c, 2, 49, 0
6, 17700, Note_on_c, 2, 47, 88
6, 17729, Note_off_c, 2, 47, 0
6, 17730, Note_on_c, 2, 49, 88
6, 17759, Note_off_c, 2, 49, 0
6, 17760, Note_on_c, 2, 50, 88
6, 17935, Note_off_c, 2, 50, 0
6, 17940, Note_on_c, 2, 52, 88
6, 17969, Note_off_c, 2, 52, 0
6, 17970, Note_on_c, 2, 53, 88
6, 17999, Note_off_c, 2, 53, 0
6, 18000, Note_on_c, 2, 55, 88
6, 18022, Note_off_c, 2, 55, 0
6, 18023, Note_on_c, 2, 54, 88
6, 18044, Note_off_c, 2, 54, 0
6, 18045, Note_on_c, 2, 55, 88
6, 18067, Note_off_c, 2, 55, 0
6, 18068, Note_on_c, 2, 54, 88
6, 18089, Note_off_c, 2, 54, 0
6, 18090, Note_on_c, 2, 55, 88
6, 18112, Note_off_c, 2, 55, 0
6, 18113, Note_on_c, 2, 54, 88
6, 18134, Note_off_c, 2, 54, 0
6, 18135, Note_on_c, 2, 55, 88
6, 18157, Note_off_c, 2, 55, 0
6, 18158, Note_on_c, 2, 54, 88
6, 18179, Note_off_c, 2, 54, 0
6, 18180, Note_on_c, 2, 52, 88
6, 18209, Note_off_c, 2, 52, 0
6, 18210, Note_on_c, 2, 54, 88
6, 18239, Note_off_c, 2, 54, 0
6, 18240, Note_on_c, 2, 55, 88
6, 18415, Note_off_c, 2, 55, 0
6, 18420, Note_on_c, 2, 57, 88
6, 18449, Note_off_c, 2, 57, 0
6, 18450, Note_on_c, 2, 59, 88
6, 18479, Note_off_c, 2, 59, 0
6, 18480, Note_on_c, 2, 60, 88
6, 18502, Note_off_c, 2, 60, 0
6, 18503, Note_on_c, 2, 59, 88
6, 18524, Note_off_c, 2, 59, 0
6, 18525, Note_on_c, 2, 60, 88
6, 18547, Note_off_c, 2, 60, 0
6, 18548, Note_on_c, 2, 59, 88
6, 18569, Note_off_c, 2, 59, 0
6, 18570, Note_on_c, 2, 60, 88
6, 18592, Note_off_c, 2, 60, 0
6, 18593, Note_on_c, 2, 59, 88
6, 18614, Note_off_c, 2, 59, 0
6, 18615, Note_on_c, 2, 60, 88
6, 18637, Note_off_c, 2, 60, 0
6, 18638, Note_on_c, 2, 59, 88
6, 18659, Note_off_c, 2, 59, 0
6, 18660, Note_on_c, 2, 57, 88
6, 18689, Note_off_c, 2, 57, 0
6, 18690, Note_on_c, 2, 59, 88
6, 18719, Note_off_c, 2, 59, 0
6, 18720, Note_on_c, 2, 60, 88
6, 18895, Note_off_c, 2, 60, 0
6, 18900, Note_on_c, 2, 62, 88
6, 18929, Note_off_c, 2, 62, 0
6, 18930, Note_on_c, 2, 64, 88
6, 18959, Note_off_c, 2, 64, 0
6, 18960, Note_on_c, 2, 65, 88
6, 18982, Note_off_c, 2, 65, 0
6, 18983, Note_on_c, 2, 64, 88
6, 19004, Note_off_c, 2, 64, 0
6, 19005, Note_on_c, 2, 65, 88
6, 19027, Note_off_c, 2, 65, 0
6, 19028, Note_on_c, 2, 64, 88
6, 19049, Note_off_c, 2, 64, 0
6, 19050, Note_on_c, 2, 65, 88
6, 19072, Note_off_c, 2, 65, 0
6, 19073, Note_on_c, 2, 64, 88
6, 19094, Note_off_c, 2, 64, 0
6, 19095, Note_on_c, 2, 65, 88
6, 19117, Note_off_c, 2, 65, 0
6, 19118, Note_on_c, 2, 64, 88
6, 19139, Note_off_c, 2, 64, 0
6, 19140, Note_on_c, 2, 62, 88
6, 19169, Note_off_c, 2, 62, 0
6, 19170, Note_on_c, 2, 64, 88
6, 19199, Note_off_c, 2, 64, 0
6, 19200, Note_on_c, 2, 65, 88
6, 19375, Note_off_c, 2, 65, 0
6, 19380, Note_on_c, 2, 67, 88
6, 19409, Note_off_c, 2, 67, 0
6, 19410, Note_on_c, 2, 69, 88
6, 19439, Note_off_c, 2, 69, 0
6, 19440, Note_on_c, 2, 70, 88
6, 19462, Note_off_c, 2, 70, 0
6, 19463, Note_on_c, 2, 69, 88
6, 19484, Note_off_c, 2, 69, 0
6, 19485, Note_on_c, 2, 70, 88
6, 19507, Note_off_c, 2, 70, 0
6, 19508, Note_on_c, 2, 69, 88
6, 19529, Note_off_c, 2, 69, 0
6, 19530, Note_on_c, 2, 70, 88
6, 19552, Note_off_c, 2, 70, 0
6, 19553, Note_on_c, 2, 69, 88
6, 19574, Note_off_c, 2, 69, 0
6, 19575, Note_on_c, 2, 70, 88
6, 19597, Note_off_c, 2, 70, 0
6, 19598, Note_on_c, 2, 69, 88
6, 19619, Note_off_c, 2, 69, 0
6, 19620, Note_on_c, 2, 67, 88
6, 19649, Note_off_c, 2, 67, 0
6, 19650, Note_on_c, 2, 69, 88
6, 19679, Note_off_c, 2, 69, 0
6, 19680, Note_on_c, 2, 70, 88
6, 19738, Note_off_c, 2, 70, 0
6, 19740, Note_on_c, 2, 58, 88
6, 19769, Note_off_c, 2, 58, 0
6, 19770, Note_on_c, 2, 60, 88
6, 19799, Note_off_c, 2, 60, 0
6, 19800, Note_on_c, 2, 62, 88
6, 19829, Note_off_c, 2, 62, 0
6, 19830, Note_on_c, 2, 60, 88
6, 19859, Note_off_c, 2, 60, 0
6, 19860, Note_on_c, 2, 58, 88
6, 19889, Note_off_c, 2, 58, 0
6, 19890, Note_on_c, 2, 57, 88
6, 19919, Note_off_c, 2, 57, 0
6, 19920, Note_on_c, 2, 55, 88
6, 19949, Note_off_c, 2, 55, 0
6, 19950, Note_on_c, 2, 53, 88
6, 19979, Note_off_c, 2, 53, 0
6, 19980, Note_on_c, 2, 55, 88
6, 20009, Note_off_c, 2, 55, 0
6, 20010, Note_on_c, 2, 57, 88
6, 20039, Note_off_c, 2, 57, 0
6, 20040, Note_on_c, 2, 58, 88
6, 20069, Note_off_c, 2, 58, 0
6, 20070, Note_on_c, 2, 57, 88
6, 20099, Note_off_c, 2, 57, 0
6, 20100, Note_on_c, 2, 55, 88
6, 20129, Note_off_c, 2, 55, 0
6, 20130, Note_on_c, 2, 53, 88
6, 20159, Note_off_c, 2, 53, 0
6, 20160, Note_on_c, 2, 52, 88
6, 20189, Note_off_c, 2, 52, 0
6, 20190, Note_on_c, 2, 53, 88
6, 20219, Note_off_c, 2, 53, 0
6, 20220, Note_on_c, 2, 55, 88
6, 20307, Note_off_c, 2, 55, 0
6, 20310, Note_on_c, 2, 53, 88
6, 20339, Note_off_c, 2, 53, 0
6, 20340, Note_on_c, 2, 52, 88
6, 20369, Note_off_c, 2, 52, 0
6, 20370, Note_on_c, 2, 50, 88
6, 20399, Note_off_c, 2, 50, 0
6, 20400, Note_on_c, 2, 49, 88
6, 20429, Note_off_c, 2, 49, 0
6, 20430, Note_on_c, 2, 50, 88
6, 20459, Note_off_c, 2, 50, 0
6, 20460, Note_on_c, 2, 52, 88
6, 20547, Note_off_c, 2, 52, 0
6, 20550, Note_on_c, 2, 50, 88
6, 20579, Note_off_c, 2, 50, 0
6, 20580, Note_on_c, 2, 49, 88
6, 20609, Note_off_c, 2, 49, 0
6, 20610, Note_on_c, 2, 47, 88
6, 20639, Note_off_c, 2, 47, 0
6, 20640, Note_on_c, 2, 45, 88
6, 20815, Note_off_c, 2, 45, 0
6, 20820, Note_on_c, 2, 47, 88
6, 20849, Note_off_c, 2, 47, 0
6, 20850, Note_on_c, 2, 49, 88
6, 20879, Note_off_c, 2, 49, 0
6, 20880, Note_on_c, 2, 50, 88
6, 20902, Note_off_c, 2, 50, 0
6, 20903, Note_on_c, 2, 49, 88
6, 20924, Note_off_c, 2, 49, 0
6, 20925, Note_on_c, 2, 50, 88
6, 20947, Note_off_c, 2, 50, 0
6, 20948, Note_on_c, 2, 49, 88
6, 20969, Note_off_c, 2, 49, 0
6, 20970, Note_on_c, 2, 50, 88
6, 20992, Note_off_c, 2, 50, 0
6, 20993, Note_on_c, 2, 49, 88
6, 21014, Note_off_c, 2, 49, 0
6, 21015, Note_on_c, 2, 50, 88
6, 21037, Note_off_c, 2, 50, 0
6, 21038, Note_on_c, 2, 49, 88
6, 21059, Note_off_c, 2, 49, 0
6, 21060, Note_on_c, 2, 47, 88
6, 21089, Note_off_c, 2, 47, 0
6, 21090, Note_on_c, 2, 49, 88
6, 21119, Note_off_c, 2, 49, 0
6, 21120, Note_on_c, 2, 50, 88
6, 21149, Note_off_c, 2, 50, 0
6, 21150, Note_on_c, 2, 52, 88
6, 21179, Note_off_c, 2, 52, 0
6, 21180, Note_on_c, 2, 53, 88
6, 21267, Note_off_c, 2, 53, 0
6, 21270, Note_on_c, 2, 52, 88
6, 21299, Note_off_c, 2, 52, 0
6, 21300, Note_on_c, 2, 50, 88
6, 21329, Note_off_c, 2, 50, 0
6, 21330, Note_on_c, 2, 48, 88
6, 21359, Note_off_c, 2, 48, 0
6, 21360, Note_on_c, 2, 47, 88
6, 21389, Note_off_c, 2, 47, 0
6, 21390, Note_on_c, 2, 48, 88
6, 21419, Note_off_c, 2, 48, 0
6, 21420, Note_on_c, 2, 50, 88
6, 21507, Note_off_c, 2, 50, 0
6, 21510, Note_on_c, 2, 48, 88
6, 21539, Note_off_c, 2, 48, 0
6, 21540, Note_on_c, 2, 47, 88
6, 21569, Note_off_c, 2, 47, 0
6, 21570, Note_on_c, 2, 45, 88
6, 21599, Note_off_c, 2, 45, 0
6, 21600, Note_on_c, 2, 43, 88
6, 21775, Note_off_c, 2, 43, 0
6, 21780, Note_on_c, 2, 45, 88
6, 21809, Note_off_c, 2, 45, 0
6, 21810, Note_on_c, 2, 47, 88
6, 21839, Note_off_c, 2, 47, 0
6, 21840, Note_on_c, 2, 48, 88
6, 21862, Note_off_c, 2, 48, 0
6, 21863, Note_on_c, 2, 47, 88
6, 21884, Note_off_c, 2, 47, 0
6, 21885, Note_on_c, 2, 48, 88
6, 21907, Note_off_c, 2, 48, 0
6, 21908, Note_on_c, 2, 47, 88
6, 21929, Note_off_c, 2, 47, 0
6, 21930, Note_on_c, 2, 48, 88
6, 21952, Note_off_c, 2, 48, 0
6, 21953, Note_on_c, 2, 47, 88
6, 21974, Note_off_c, 2, 47, 0
6, 21975, Note_on_c, 2, 48, 88
6, 21997, Note_off_c, 2, 48, 0
6, 21998, Note_on_c, 2, 47, 88
6, 22019, Note_off_c, 2, 47, 0
6, 22020, Note_on_c, 2, 45, 88
6, 22049, Note_off_c, 2, 45, 0
6, 22050, Note_on_c, 2, 47, 88
6, 22079, Note_off_c, 2, 47, 0
6, 22080, Note_on_c, 2, 48, 88
6, 22196, Note_off_c, 2, 48, 0
6, 22230, Note_on_c, 2, 60, 88
6, 22259, Note_off_c, 2, 60, 0
6, 22260, Note_on_c, 2, 62, 88
6, 22289, Note_off_c, 2, 62, 0
6, 22290, Note_on_c, 2, 64, 88
6, 22319, Note_off_c, 2, 64, 0
6, 22320, Note_on_c, 2, 65, 88
6, 22436, Note_off_c, 2, 65, 0
6, 22470, Note_on_c, 2, 64, 88
6, 22499, Note_off_c, 2, 64, 0
6, 22500, Note_on_c, 2, 62, 88
6, 22529, Note_off_c, 2, 62, 0
6, 22530, Note_on_c, 2, 60, 88
6, 22559, Note_off_c, 2, 60, 0
6, 22560, Note_on_c, 2, 59, 88
6, 22676, Note_off_c, 2, 59, 0
6, 22710, Note_on_c, 2, 47, 88
6, 22739, Note_off_c, 2, 47, 0
6, 22740, Note_on_c, 2, 48, 88
6, 22769, Note_off_c, 2, 48, 0
6, 22770, Note_on_c, 2, 50, 88
6, 22799, Note_off_c, 2, 50, 0
6, 22800, Note_on_c, 2, 52, 88
6, 22916, Note_off_c, 2, 52, 0
6, 22950, Note_on_c, 2, 50, 88
6, 22979, Note_off_c, 2, 50, 0
6, 22980, Note_on_c, 2, 48, 88
6, 23009, Note_off_c, 2, 48, 0
6, 23010, Note_on_c, 2, 47, 88
6, 23039, Note_off_c, 2, 47, 0
6, 23040, Note_on_c, 2, 45, 88
6, 23098, Note_off_c, 2, 45, 0
6, 23100, Note_on_c, 2, 47, 88
6, 23129, Note_off_c, 2, 47, 0
6, 23130, Note_on_c, 2, 48, 88
6, 23159, Note_off_c, 2, 48, 0
6, 23160, Note_on_c, 2, 50, 88
6, 23189, Note_off_c, 2, 50, 0
6, 23190, Note_on_c, 2, 52, 88
6, 23219, Note_off_c, 2, 52, 0
6, 23220, Note_on_c, 2, 54, 88
6, 23249, Note_off_c, 2, 54, 0
6, 23250, Note_on_c, 2, 56, 88
6, 23279, Note_off_c, 2, 56, 0
6, 23280, Note_on_c, 2, 57, 88
6, 23633, Note_off_c, 2, 57, 0
6, 23640, Note_on_c, 2, 56, 88
6, 23698, Note_off_c, 2, 56, 0
6, 23700, Note_on_c, 2, 54, 88
6, 23758, Note_off_c, 2, 54, 0
6, 23760, Note_on_c, 2, 52, 88
6, 23876, Note_off_c, 2, 52, 0
6, 23880, Note_on_c, 2, 50, 88
6, 23996, Note_off_c, 2, 50, 0
6, 24000, Note_on_c, 2, 48, 88
6, 24234, Note_off_c, 2, 48, 0
6, 24240, Note_on_c, 2, 53, 88
6, 24474, Note_off_c, 2, 53, 0
6, 24480, Note_on_c, 2, 44, 88
6, 24714, Note_off_c, 2, 44, 0
6, 25080, Note_on_c, 2, 50, 88
6, 25196, Note_off_c, 2, 50, 0
6, 25200, Note_on_c, 2, 47, 88
6, 25316, Note_off_c, 2, 47, 0
6, 25320, Note_on_c, 2, 52, 88
6, 25436, Note_off_c, 2, 52, 0
6, 25440, Note_on_c, 2, 48, 88
6, 25556, Note_off_c, 2, 48, 0
6, 25560, Note_on_c, 2, 45, 88
6, 25676, Note_off_c, 2, 45, 0
6, 25680, Note_on_c, 2, 40, 88
6, 25796, Note_off_c, 2, 40, 0
6, 25800, Note_on_c, 2, 43, 88
6, 25916, Note_off_c, 2, 43, 0
6, 25920, Note_on_c, 2, 41, 88
6, 25949, Note_off_c, 2, 41, 0
6, 25950, Note_on_c, 2, 40, 88
6, 25979, Note_off_c, 2, 40, 0
6, 25980, Note_on_c, 2, 38, 88
6, 26096, Note_off_c, 2, 38, 0
6, 26100, Note_on_c, 2, 40, 88
6, 26129, Note_off_c, 2, 40, 0
6, 26130, Note_on_c, 2, 41, 88
6, 26145, Note_off_c, 2, 41, 0
6, 26160, Note_on_c, 2, 41, 88
6, 26182, Note_off_c, 2, 41, 0
6, 26183, Note_on_c, 2, 40, 88
6, 26204, Note_off_c, 2, 40, 0
6, 26205, Note_on_c, 2, 41, 88
6, 26227, Note_off_c, 2, 41, 0
6, 26228, Note_on_c, 2, 40, 88
6, 26249, Note_off_c, 2, 40, 0
6, 26250, Note_on_c, 2, 41, 88
6, 26272, Note_off_c, 2, 41, 0
6, 26273, Note_on_c, 2, 40, 88
6, 26294, Note_off_c, 2, 40, 0
6, 26295, Note_on_c, 2, 41, 88
6, 26317, Note_off_c, 2, 41, 0
6, 26318, Note_on_c, 2, 40, 88
6, 26339, Note_off_c, 2, 40, 0
6, 26340, Note_on_c, 2, 38, 88
6, 26369, Note_off_c, 2, 38, 0
6, 26370, Note_on_c, 2, 40, 88
6, 26399, Note_off_c, 2, 40, 0
6, 26400, Note_on_c, 2, 33, 88
6, 26400, Note_on_c, 2, 45, 88
6, 26870, Note_off_c, 2, 33, 0
6, 26870, Note_off_c, 2, 45, 0
6, 26870, End_track
0, 0, End_of_file
