0, 0, Header, 1, 6, 240
1, 0, Start_track
1, 0, Time_signature, 3, 2, 24, 8
1, 0, Tempo, 576923
1, 0, SMPTE_offset, 64, 0, 0, 0, 93
1, 0, End_track
2, 0, Start_track
2, 0, Title_t, "(C) & (P) 1993"
2, 127, End_track
3, 0, Start_track
3, 0, Title_t, "CCARH,Stanford"
3, 0, End_track
4, 0, Start_track
4, 0, Title_t, "Track 1"
4, 0, Program_c, 0, 6
4, 3000, Note_on_c, 0, 79, 88
4, 3116, Note_off_c, 0, 79, 0
4, 3120, Note_on_c, 0, 77, 88
4, 3236, Note_off_c, 0, 77, 0
4, 3240, Note_on_c, 0, 75, 88
4, 3356, Note_off_c, 0, 75, 0
4, 3360, Note_on_c, 0, 77, 88
4, 3476, Note_off_c, 0, 77, 0
4, 3480, Note_on_c, 0, 70, 88
4, 3596, Note_off_c, 0, 70, 0
4, 3600, Note_on_c, 0, 69, 88
4, 3716, Note_off_c, 0, 69, 0
4, 3720, Note_on_c, 0, 74, 88
4, 3836, Note_off_c, 0, 74, 0
4, 3840, Note_on_c, 0, 72, 88
4, 3956, Note_off_c, 0, 72, 0
4, 3960, Note_on_c, 0, 70, 88
4, 4076, Note_off_c, 0, 70, 0
4, 4080, Note_on_c, 0, 72, 88
4, 4196, Note_off_c, 0, 72, 0
4, 4200, Note_on_c, 0, 69, 88
4, 4316, Note_off_c, 0, 69, 0
4, 4320, Note_on_c, 0, 65, 88
4, 4436, Note_off_c, 0, 65, 0
4, 4440, Note_on_c, 0, 70, 88
4, 4540, Note_off_c, 0, 70, 0
4, 4560, Note_on_c, 0, 70, 88
4, 4676, Note_off_c, 0, 70, 0
4, 4680, Note_on_c, 0, 69, 88
4, 4780, Note_off_c, 0, 69, 0
4, 4800, Note_on_c, 0, 69, 88
4, 4916, Note_off_c, 0, 69, 0
4, 4920, Note_on_c, 0, 67, 88
4, 5036, Note_off_c, 0, 67, 0
4, 5040, Note_on_c, 0, 67, 88
4, 5156, Note_off_c, 0, 67, 0
4, 5160, Note_on_c, 0, 72, 88
4, 5260, Note_off_c, 0, 72, 0
4, 5280, Note_on_c, 0, 72, 88
4, 5396, Note_off_c, 0, 72, 0
4, 5400, Note_on_c, 0, 70, 88
4, 5500, Note_off_c, 0, 70, 0
4, 5520, Note_on_c, 0, 70, 88
4, 5636, Note_off_c, 0, 70, 0
4, 5640, Note_on_c, 0, 69, 88
4, 5756, Note_off_c, 0, 69, 0
4, 5760, Note_on_c, 0, 69, 88
4, 5994, Note_off_c, 0, 69, 0
4, 6000, Note_on_c, 0, 68, 88
4, 6596, Note_off_c, 0, 68, 0
4, 6600, Note_on_c, 0, 79, 88
4, 6716, Note_off_c, 0, 79, 0
4, 6720, Note_on_c, 0, 77, 88
4, 6836, Note_off_c, 0, 77, 0
4, 6840, Note_on_c, 0, 75, 88
4, 6956, Note_off_c, 0, 75, 0
4, 6960, Note_on_c, 0, 77, 88
4, 7076, Note_off_c, 0, 77, 0
4, 7080, Note_on_c, 0, 68, 88
4, 7196, Note_off_c, 0, 68, 0
4, 7200, Note_on_c, 0, 67, 88
4, 7434, Note_off_c, 0, 67, 0
4, 7440, Note_on_c, 0, 79, 88
4, 8036, Note_off_c, 0, 79, 0
4, 8040, Note_on_c, 0, 77, 88
4, 8156, Note_off_c, 0, 77, 0
4, 8160, Note_on_c, 0, 75, 88
4, 8276, Note_off_c, 0, 75, 0
4, 8280, Note_on_c, 0, 74, 88
4, 8396, Note_off_c, 0, 74, 0
4, 8400, Note_on_c, 0, 75, 88
4, 8516, Note_off_c, 0, 75, 0
4, 8520, Note_on_c, 0, 84, 88
4, 8636, Note_off_c, 0, 84, 0
4, 8640, Note_on_c, 0, 74, 88
4, 9476, Note_off_c, 0, 74, 0
4, 9480, Note_on_c, 0, 75, 88
4, 9596, Note_off_c, 0, 75, 0
4, 9600, Note_on_c, 0, 74, 88
4, 9716, Note_off_c, 0, 74, 0
4, 9720, Note_on_c, 0, 72, 88
4, 9836, Note_off_c, 0, 72, 0
4, 9840, Note_on_c, 0, 74, 88
4, 9956, Note_off_c, 0, 74, 0
4, 9960, Note_on_c, 0, 77, 88
4, 10076, Note_off_c, 0, 77, 0
4, 10080, Note_on_c, 0, 80, 88
4, 10196, Note_off_c, 0, 80, 0
4, 10200, Note_on_c, 0, 79, 88
4, 10300, Note_off_c, 0, 79, 0
4, 10320, Note_on_c, 0, 79, 88
4, 10436, Note_off_c, 0, 79, 0
4, 10440, Note_on_c, 0, 77, 88
4, 10540, Note_off_c, 0, 77, 0
4, 10560, Note_on_c, 0, 77, 88
4, 10676, Note_off_c, 0, 77, 0
4, 10680, Note_on_c, 0, 75, 88
4, 10796, Note_off_c, 0, 75, 0
4, 10800, Note_on_c, 0, 75, 88
4, 10916, Note_off_c, 0, 75, 0
4, 10920, Note_on_c, 0, 74, 88
4, 11020, Note_off_c, 0, 74, 0
4, 11040, Note_on_c, 0, 74, 88
4, 11156, Note_off_c, 0, 74, 0
4, 11160, Note_on_c, 0, 72, 88
4, 11260, Note_off_c, 0, 72, 0
4, 11280, Note_on_c, 0, 72, 88
4, 11396, Note_off_c, 0, 72, 0
4, 11400, Note_on_c, 0, 70, 88
4, 11516, Note_off_c, 0, 70, 0
4, 11520, Note_on_c, 0, 70, 88
4, 12474, Note_off_c, 0, 70, 0
4, 12480, Note_on_c, 0, 69, 88
4, 13060, Note_off_c, 0, 69, 0
4, 13080, Note_on_c, 0, 69, 88
4, 13196, Note_off_c, 0, 69, 0
4, 13200, Note_on_c, 0, 67, 88
4, 13316, Note_off_c, 0, 67, 0
4, 13320, Note_on_c, 0, 65, 88
4, 13436, Note_off_c, 0, 65, 0
4, 13440, Note_on_c, 0, 67, 88
4, 13556, Note_off_c, 0, 67, 0
4, 13560, Note_on_c, 0, 70, 88
4, 13676, Note_off_c, 0, 70, 0
4, 13680, Note_on_c, 0, 64, 88
4, 13914, Note_off_c, 0, 64, 0
4, 13920, Note_on_c, 0, 65, 88
4, 14154, Note_off_c, 0, 65, 0
4, 14160, Note_on_c, 0, 67, 88
4, 14394, Note_off_c, 0, 67, 0
4, 14400, Note_on_c, 0, 69, 88
4, 14516, Note_off_c, 0, 69, 0
4, 14520, Note_on_c, 0, 70, 88
4, 14636, Note_off_c, 0, 70, 0
4, 14640, Note_on_c, 0, 69, 88
4, 14756, Note_off_c, 0, 69, 0
4, 14760, Note_on_c, 0, 67, 88
4, 14876, Note_off_c, 0, 67, 0
4, 14880, Note_on_c, 0, 69, 88
4, 14996, Note_off_c, 0, 69, 0
4, 15000, Note_on_c, 0, 72, 88
4, 15116, Note_off_c, 0, 72, 0
4, 15120, Note_on_c, 0, 77, 88
4, 17030, Note_off_c, 0, 77, 0
4, 17040, Note_on_c, 0, 75, 88
4, 17380, Note_off_c, 0, 75, 0
4, 17400, Note_on_c, 0, 75, 88
4, 17516, Note_off_c, 0, 75, 0
4, 17520, Note_on_c, 0, 74, 88
4, 17636, Note_off_c, 0, 74, 0
4, 17640, Note_on_c, 0, 72, 88
4, 17756, Note_off_c, 0, 72, 0
4, 17760, Note_on_c, 0, 74, 88
4, 17876, Note_off_c, 0, 74, 0
4, 17880, Note_on_c, 0, 70, 88
4, 17996, Note_off_c, 0, 70, 0
4, 18000, Note_on_c, 0, 67, 88
4, 18116, Note_off_c, 0, 67, 0
4, 18120, Note_on_c, 0, 74, 88
4, 18236, Note_off_c, 0, 74, 0
4, 18240, Note_on_c, 0, 72, 88
4, 18356, Note_off_c, 0, 72, 0
4, 18360, Note_on_c, 0, 70, 88
4, 18476, Note_off_c, 0, 70, 0
4, 18480, Note_on_c, 0, 72, 88
4, 18596, Note_off_c, 0, 72, 0
4, 18600, Note_on_c, 0, 69, 88
4, 18716, Note_off_c, 0, 69, 0
4, 18720, Note_on_c, 0, 65, 88
4, 18954, Note_off_c, 0, 65, 0
4, 18960, Note_on_c, 0, 70, 88
4, 19674, Note_off_c, 0, 70, 0
4, 19680, Note_on_c, 0, 69, 88
4, 19914, Note_off_c, 0, 69, 0
4, 21000, Note_on_c, 0, 74, 88
4, 21116, Note_off_c, 0, 74, 0
4, 21120, Note_on_c, 0, 72, 88
4, 21236, Note_off_c, 0, 72, 0
4, 21240, Note_on_c, 0, 70, 88
4, 21356, Note_off_c, 0, 70, 0
4, 21360, Note_on_c, 0, 72, 88
4, 21476, Note_off_c, 0, 72, 0
4, 21480, Note_on_c, 0, 69, 88
4, 21596, Note_off_c, 0, 69, 0
4, 21600, Note_on_c, 0, 65, 88
4, 21716, Note_off_c, 0, 65, 0
4, 21720, Note_on_c, 0, 69, 88
4, 21954, Note_off_c, 0, 69, 0
4, 21960, Note_on_c, 0, 67, 88
4, 22076, Note_off_c, 0, 67, 0
4, 22080, Note_on_c, 0, 65, 88
4, 22196, Note_off_c, 0, 65, 0
4, 22200, Note_on_c, 0, 64, 88
4, 22316, Note_off_c, 0, 64, 0
4, 22320, Note_on_c, 0, 65, 88
4, 22436, Note_off_c, 0, 65, 0
4, 23280, Note_on_c, 0, 60, 88
4, 23396, Note_off_c, 0, 60, 0
4, 23400, Note_on_c, 0, 62, 88
4, 23516, Note_off_c, 0, 62, 0
4, 23520, Note_on_c, 0, 63, 88
4, 23994, Note_off_c, 0, 63, 0
4, 24000, Note_on_c, 0, 62, 88
4, 24116, Note_off_c, 0, 62, 0
4, 24120, Note_on_c, 0, 64, 88
4, 24236, Note_off_c, 0, 64, 0
4, 24240, Note_on_c, 0, 65, 88
4, 24714, Note_off_c, 0, 65, 0
4, 24720, Note_on_c, 0, 64, 88
4, 24836, Note_off_c, 0, 64, 0
4, 24840, Note_on_c, 0, 65, 88
4, 24956, Note_off_c, 0, 65, 0
4, 24960, Note_on_c, 0, 67, 88
4, 25316, Note_off_c, 0, 67, 0
4, 25320, Note_on_c, 0, 65, 88
4, 25436, Note_off_c, 0, 65, 0
4, 25440, Note_on_c, 0, 67, 88
4, 25674, Note_off_c, 0, 67, 0
4, 25680, Note_on_c, 0, 69, 88
4, 25855, Note_off_c, 0, 69, 0
4, 25860, Note_on_c, 0, 70, 88
4, 25889, Note_off_c, 0, 70, 0
4, 25890, Note_on_c, 0, 72, 88
4, 25919, Note_off_c, 0, 72, 0
4, 25920, Note_on_c, 0, 65, 88
4, 26154, Note_off_c, 0, 65, 0
4, 26160, Note_on_c, 0, 63, 88
4, 26394, Note_off_c, 0, 63, 0
4, 26400, Note_on_c, 0, 62, 88
4, 26634, Note_off_c, 0, 62, 0
4, 26640, Note_on_c, 0, 63, 88
4, 26874, Note_off_c, 0, 63, 0
4, 26880, Note_on_c, 0, 60, 88
4, 27114, Note_off_c, 0, 60, 0
4, 27120, Note_on_c, 0, 62, 88
4, 27354, Note_off_c, 0, 62, 0
4, 27360, Note_on_c, 0, 63, 88
4, 27594, Note_off_c, 0, 63, 0
4, 27600, Note_on_c, 0, 62, 88
4, 27834, Note_off_c, 0, 62, 0
4, 27840, Note_on_c, 0, 60, 88
4, 28196, Note_off_c, 0, 60, 0
4, 28200, Note_on_c, 0, 84, 88
4, 28316, Note_off_c, 0, 84, 0
4, 28320, Note_on_c, 0, 82, 88
4, 28436, Note_off_c, 0, 82, 0
4, 28440, Note_on_c, 0, 81, 88
4, 28556, Note_off_c, 0, 81, 0
4, 28560, Note_on_c, 0, 82, 88
4, 28676, Note_off_c, 0, 82, 0
4, 28680, Note_on_c, 0, 77, 88
4, 28796, Note_off_c, 0, 77, 0
4, 28800, Note_on_c, 0, 74, 88
4, 28916, Note_off_c, 0, 74, 0
4, 28920, Note_on_c, 0, 79, 88
4, 29036, Note_off_c, 0, 79, 0
4, 29040, Note_on_c, 0, 77, 88
4, 29156, Note_off_c, 0, 77, 0
4, 29160, Note_on_c, 0, 75, 88
4, 29276, Note_off_c, 0, 75, 0
4, 29280, Note_on_c, 0, 77, 88
4, 29396, Note_off_c, 0, 77, 0
4, 29400, Note_on_c, 0, 74, 88
4, 29516, Note_off_c, 0, 74, 0
4, 29520, Note_on_c, 0, 70, 88
4, 29636, Note_off_c, 0, 70, 0
4, 29640, Note_on_c, 0, 75, 88
4, 29740, Note_off_c, 0, 75, 0
4, 29760, Note_on_c, 0, 75, 88
4, 29876, Note_off_c, 0, 75, 0
4, 29880, Note_on_c, 0, 74, 88
4, 29980, Note_off_c, 0, 74, 0
4, 30000, Note_on_c, 0, 74, 88
4, 30116, Note_off_c, 0, 74, 0
4, 30120, Note_on_c, 0, 72, 88
4, 30236, Note_off_c, 0, 72, 0
4, 30240, Note_on_c, 0, 72, 88
4, 30356, Note_off_c, 0, 72, 0
4, 30360, Note_on_c, 0, 77, 88
4, 30460, Note_off_c, 0, 77, 0
4, 30480, Note_on_c, 0, 77, 88
4, 30596, Note_off_c, 0, 77, 0
4, 30600, Note_on_c, 0, 75, 88
4, 30700, Note_off_c, 0, 75, 0
4, 30720, Note_on_c, 0, 75, 88
4, 30836, Note_off_c, 0, 75, 0
4, 30840, Note_on_c, 0, 74, 88
4, 30956, Note_off_c, 0, 74, 0
4, 30960, Note_on_c, 0, 74, 88
4, 31780, Note_off_c, 0, 74, 0
4, 31800, Note_on_c, 0, 74, 88
4, 31916, Note_off_c, 0, 74, 0
4, 31920, Note_on_c, 0, 72, 88
4, 32036, Note_off_c, 0, 72, 0
4, 32040, Note_on_c, 0, 70, 88
4, 32156, Note_off_c, 0, 70, 0
4, 32160, Note_on_c, 0, 72, 88
4, 32276, Note_off_c, 0, 72, 0
4, 32280, Note_on_c, 0, 69, 88
4, 32396, Note_off_c, 0, 69, 0
4, 32400, Note_on_c, 0, 66, 88
4, 32634, Note_off_c, 0, 66, 0
4, 32640, Note_on_c, 0, 67, 88
4, 32874, Note_off_c, 0, 67, 0
4, 32880, Note_on_c, 0, 69, 88
4, 33354, Note_off_c, 0, 69, 0
4, 33360, Note_on_c, 0, 74, 88
4, 33594, Note_off_c, 0, 74, 0
4, 33600, Note_on_c, 0, 70, 88
4, 33834, Note_off_c, 0, 70, 0
4, 33840, Note_on_c, 0, 67, 88
4, 34074, Note_off_c, 0, 67, 0
4, 34080, Note_on_c, 0, 69, 88
4, 34314, Note_off_c, 0, 69, 0
4, 34320, Note_on_c, 0, 66, 88
4, 34554, Note_off_c, 0, 66, 0
4, 34560, Note_on_c, 0, 67, 88
4, 35268, Note_off_c, 0, 67, 0
4, 35280, Note_on_c, 0, 69, 88
4, 35988, Note_off_c, 0, 69, 0
4, 36000, Note_on_c, 0, 62, 88
4, 36234, Note_off_c, 0, 62, 0
4, 36240, Note_on_c, 0, 74, 88
4, 36954, Note_off_c, 0, 74, 0
4, 36960, Note_on_c, 0, 72, 88
4, 37076, Note_off_c, 0, 72, 0
4, 37080, Note_on_c, 0, 74, 88
4, 37196, Note_off_c, 0, 74, 0
4, 37200, Note_on_c, 0, 75, 88
4, 37540, Note_off_c, 0, 75, 0
4, 37560, Note_on_c, 0, 75, 88
4, 37676, Note_off_c, 0, 75, 0
4, 37680, Note_on_c, 0, 74, 88
4, 37796, Note_off_c, 0, 74, 0
4, 37800, Note_on_c, 0, 72, 88
4, 37916, Note_off_c, 0, 72, 0
4, 37920, Note_on_c, 0, 74, 88
4, 38036, Note_off_c, 0, 74, 0
4, 38040, Note_on_c, 0, 70, 88
4, 38156, Note_off_c, 0, 70, 0
4, 38160, Note_on_c, 0, 67, 88
4, 38276, Note_off_c, 0, 67, 0
4, 38280, Note_on_c, 0, 68, 88
4, 38396, Note_off_c, 0, 68, 0
4, 38400, Note_on_c, 0, 67, 88
4, 38516, Note_off_c, 0, 67, 0
4, 38520, Note_on_c, 0, 65, 88
4, 38636, Note_off_c, 0, 65, 0
4, 38640, Note_on_c, 0, 67, 88
4, 38756, Note_off_c, 0, 67, 0
4, 38760, Note_on_c, 0, 70, 88
4, 38876, Note_off_c, 0, 70, 0
4, 38880, Note_on_c, 0, 63, 88
4, 38996, Note_off_c, 0, 63, 0
4, 39000, Note_on_c, 0, 65, 88
4, 39116, Note_off_c, 0, 65, 0
4, 39120, Note_on_c, 0, 63, 88
4, 39236, Note_off_c, 0, 63, 0
4, 39240, Note_on_c, 0, 62, 88
4, 39356, Note_off_c, 0, 62, 0
4, 39360, Note_on_c, 0, 63, 88
4, 39476, Note_off_c, 0, 63, 0
4, 39480, Note_on_c, 0, 70, 88
4, 39596, Note_off_c, 0, 70, 0
4, 39600, Note_on_c, 0, 75, 88
4, 40308, Note_off_c, 0, 75, 0
4, 40320, Note_on_c, 0, 77, 88
4, 41028, Note_off_c, 0, 77, 0
4, 41040, Note_on_c, 0, 70, 88
4, 41156, Note_off_c, 0, 70, 0
4, 41160, Note_on_c, 0, 73, 88
4, 41260, Note_off_c, 0, 73, 0
4, 41280, Note_on_c, 0, 73, 88
4, 41396, Note_off_c, 0, 73, 0
4, 41400, Note_on_c, 0, 72, 88
4, 41500, Note_off_c, 0, 72, 0
4, 41520, Note_on_c, 0, 72, 88
4, 41636, Note_off_c, 0, 72, 0
4, 41640, Note_on_c, 0, 70, 88
4, 41756, Note_off_c, 0, 70, 0
4, 41760, Note_on_c, 0, 68, 88
4, 42596, Note_off_c, 0, 68, 0
4, 42600, Note_on_c, 0, 67, 88
4, 42716, Note_off_c, 0, 67, 0
4, 42720, Note_on_c, 0, 65, 88
4, 42836, Note_off_c, 0, 65, 0
4, 42840, Note_on_c, 0, 63, 88
4, 42956, Note_off_c, 0, 63, 0
4, 42960, Note_on_c, 0, 65, 88
4, 43076, Note_off_c, 0, 65, 0
4, 43080, Note_on_c, 0, 62, 88
4, 43196, Note_off_c, 0, 62, 0
4, 43200, Note_on_c, 0, 63, 88
4, 43434, Note_off_c, 0, 63, 0
4, 43440, Note_on_c, 0, 67, 88
4, 43674, Note_off_c, 0, 67, 0
4, 43680, Note_on_c, 0, 72, 88
4, 43914, Note_off_c, 0, 72, 0
4, 43920, Note_on_c, 0, 71, 88
4, 44036, Note_off_c, 0, 71, 0
4, 44040, Note_on_c, 0, 72, 88
4, 44156, Note_off_c, 0, 72, 0
4, 44160, Note_on_c, 0, 74, 88
4, 44740, Note_off_c, 0, 74, 0
4, 44760, Note_on_c, 0, 74, 88
4, 44876, Note_off_c, 0, 74, 0
4, 44880, Note_on_c, 0, 72, 88
4, 44996, Note_off_c, 0, 72, 0
4, 45000, Note_on_c, 0, 71, 88
4, 45116, Note_off_c, 0, 71, 0
4, 45120, Note_on_c, 0, 72, 88
4, 45236, Note_off_c, 0, 72, 0
4, 45240, Note_on_c, 0, 67, 88
4, 45356, Note_off_c, 0, 67, 0
4, 45360, Note_on_c, 0, 63, 88
4, 45476, Note_off_c, 0, 63, 0
4, 45480, Note_on_c, 0, 68, 88
4, 45596, Note_off_c, 0, 68, 0
4, 45600, Note_on_c, 0, 67, 88
4, 45716, Note_off_c, 0, 67, 0
4, 45720, Note_on_c, 0, 65, 88
4, 45836, Note_off_c, 0, 65, 0
4, 45840, Note_on_c, 0, 67, 88
4, 45956, Note_off_c, 0, 67, 0
4, 45960, Note_on_c, 0, 63, 88
4, 46076, Note_off_c, 0, 63, 0
4, 46080, Note_on_c, 0, 60, 88
4, 46196, Note_off_c, 0, 60, 0
4, 46200, Note_on_c, 0, 65, 88
4, 46300, Note_off_c, 0, 65, 0
4, 46320, Note_on_c, 0, 65, 88
4, 46436, Note_off_c, 0, 65, 0
4, 46440, Note_on_c, 0, 63, 88
4, 46540, Note_off_c, 0, 63, 0
4, 46560, Note_on_c, 0, 63, 88
4, 46676, Note_off_c, 0, 63, 0
4, 46680, Note_on_c, 0, 62, 88
4, 46796, Note_off_c, 0, 62, 0
4, 46800, Note_on_c, 0, 62, 88
4, 46916, Note_off_c, 0, 62, 0
4, 46920, Note_on_c, 0, 67, 88
4, 47020, Note_off_c, 0, 67, 0
4, 47040, Note_on_c, 0, 67, 88
4, 47156, Note_off_c, 0, 67, 0
4, 47160, Note_on_c, 0, 65, 88
4, 47260, Note_off_c, 0, 65, 0
4, 47280, Note_on_c, 0, 65, 88
4, 47396, Note_off_c, 0, 65, 0
4, 47400, Note_on_c, 0, 63, 88
4, 47516, Note_off_c, 0, 63, 0
4, 47520, Note_on_c, 0, 63, 88
4, 47990, Note_off_c, 0, 63, 0
4, 48000, Note_on_c, 0, 75, 88
4, 48356, Note_off_c, 0, 75, 0
4, 48360, Note_on_c, 0, 77, 88
4, 48476, Note_off_c, 0, 77, 0
4, 48480, Note_on_c, 0, 75, 88
4, 48596, Note_off_c, 0, 75, 0
4, 48600, Note_on_c, 0, 74, 88
4, 48716, Note_off_c, 0, 74, 0
4, 48720, Note_on_c, 0, 75, 88
4, 48836, Note_off_c, 0, 75, 0
4, 48840, Note_on_c, 0, 72, 88
4, 48956, Note_off_c, 0, 72, 0
4, 48960, Note_on_c, 0, 74, 88
4, 49914, Note_off_c, 0, 74, 0
4, 49920, Note_on_c, 0, 72, 88
4, 50036, Note_off_c, 0, 72, 0
4, 50040, Note_on_c, 0, 70, 88
4, 50156, Note_off_c, 0, 70, 0
4, 50160, Note_on_c, 0, 72, 88
4, 50634, Note_off_c, 0, 72, 0
4, 50640, Note_on_c, 0, 70, 88
4, 50756, Note_off_c, 0, 70, 0
4, 50760, Note_on_c, 0, 69, 88
4, 50876, Note_off_c, 0, 69, 0
4, 50880, Note_on_c, 0, 70, 88
4, 51354, Note_off_c, 0, 70, 0
4, 51360, Note_on_c, 0, 68, 88
4, 51476, Note_off_c, 0, 68, 0
4, 51480, Note_on_c, 0, 67, 88
4, 51596, Note_off_c, 0, 67, 0
4, 51600, Note_on_c, 0, 68, 88
4, 52074, Note_off_c, 0, 68, 0
4, 52080, Note_on_c, 0, 67, 88
4, 52196, Note_off_c, 0, 67, 0
4, 52200, Note_on_c, 0, 65, 88
4, 52316, Note_off_c, 0, 65, 0
4, 52320, Note_on_c, 0, 67, 88
4, 52794, Note_off_c, 0, 67, 0
4, 52800, Note_on_c, 0, 65, 88
4, 52916, Note_off_c, 0, 65, 0
4, 52920, Note_on_c, 0, 63, 88
4, 53036, Note_off_c, 0, 63, 0
4, 53040, Note_on_c, 0, 65, 88
4, 53514, Note_off_c, 0, 65, 0
4, 53520, Note_on_c, 0, 63, 88
4, 53636, Note_off_c, 0, 63, 0
4, 53640, Note_on_c, 0, 62, 88
4, 53756, Note_off_c, 0, 62, 0
4, 53760, Note_on_c, 0, 63, 88
4, 54116, Note_off_c, 0, 63, 0
4, 54120, Note_on_c, 0, 65, 88
4, 54236, Note_off_c, 0, 65, 0
4, 54240, Note_on_c, 0, 63, 88
4, 54356, Note_off_c, 0, 63, 0
4, 54360, Note_on_c, 0, 62, 88
4, 54476, Note_off_c, 0, 62, 0
4, 54480, Note_on_c, 0, 63, 88
4, 54596, Note_off_c, 0, 63, 0
4, 54600, Note_on_c, 0, 60, 88
4, 54716, Note_off_c, 0, 60, 0
4, 54720, Note_on_c, 0, 62, 88
4, 54954, Note_off_c, 0, 62, 0
4, 54960, Note_on_c, 0, 64, 88
4, 55430, Note_off_c, 0, 64, 0
4, 55440, Note_on_c, 0, 65, 88
4, 55556, Note_off_c, 0, 65, 0
4, 55560, Note_on_c, 0, 79, 88
4, 55676, Note_off_c, 0, 79, 0
4, 55680, Note_on_c, 0, 77, 88
4, 55796, Note_off_c, 0, 77, 0
4, 55800, Note_on_c, 0, 76, 88
4, 55916, Note_off_c, 0, 76, 0
4, 55920, Note_on_c, 0, 77, 88
4, 56036, Note_off_c, 0, 77, 0
4, 56040, Note_on_c, 0, 70, 88
4, 56156, Note_off_c, 0, 70, 0
4, 56160, Note_on_c, 0, 69, 88
4, 56276, Note_off_c, 0, 69, 0
4, 56280, Note_on_c, 0, 74, 88
4, 56396, Note_off_c, 0, 74, 0
4, 56400, Note_on_c, 0, 72, 88
4, 56516, Note_off_c, 0, 72, 0
4, 56520, Note_on_c, 0, 70, 88
4, 56636, Note_off_c, 0, 70, 0
4, 56640, Note_on_c, 0, 72, 88
4, 56756, Note_off_c, 0, 72, 0
4, 56760, Note_on_c, 0, 69, 88
4, 56876, Note_off_c, 0, 69, 0
4, 56880, Note_on_c, 0, 65, 88
4, 56996, Note_off_c, 0, 65, 0
4, 57000, Note_on_c, 0, 70, 88
4, 57100, Note_off_c, 0, 70, 0
4, 57120, Note_on_c, 0, 70, 88
4, 57236, Note_off_c, 0, 70, 0
4, 57240, Note_on_c, 0, 68, 88
4, 57340, Note_off_c, 0, 68, 0
4, 57360, Note_on_c, 0, 68, 88
4, 57476, Note_off_c, 0, 68, 0
4, 57480, Note_on_c, 0, 67, 88
4, 57596, Note_off_c, 0, 67, 0
4, 57600, Note_on_c, 0, 67, 88
4, 57716, Note_off_c, 0, 67, 0
4, 57720, Note_on_c, 0, 72, 88
4, 57820, Note_off_c, 0, 72, 0
4, 57840, Note_on_c, 0, 72, 88
4, 57956, Note_off_c, 0, 72, 0
4, 57960, Note_on_c, 0, 70, 88
4, 58060, Note_off_c, 0, 70, 0
4, 58080, Note_on_c, 0, 70, 88
4, 58196, Note_off_c, 0, 70, 0
4, 58200, Note_on_c, 0, 69, 88
4, 58316, Note_off_c, 0, 69, 0
4, 58320, Note_on_c, 0, 69, 88
4, 58436, Note_off_c, 0, 69, 0
4, 58440, Note_on_c, 0, 70, 88
4, 58556, Note_off_c, 0, 70, 0
4, 58560, Note_on_c, 0, 72, 88
4, 59274, Note_off_c, 0, 72, 0
4, 59280, Note_on_c, 0, 70, 88
4, 59396, Note_off_c, 0, 70, 0
4, 59400, Note_on_c, 0, 72, 88
4, 59516, Note_off_c, 0, 72, 0
4, 59520, Note_on_c, 0, 74, 88
4, 59994, Note_off_c, 0, 74, 0
4, 60000, Note_on_c, 0, 72, 88
4, 60116, Note_off_c, 0, 72, 0
4, 60120, Note_on_c, 0, 74, 88
4, 60236, Note_off_c, 0, 74, 0
4, 60240, Note_on_c, 0, 75, 88
4, 60596, Note_off_c, 0, 75, 0
4, 60600, Note_on_c, 0, 74, 88
4, 60716, Note_off_c, 0, 74, 0
4, 60720, Note_on_c, 0, 72, 88
4, 60836, Note_off_c, 0, 72, 0
4, 60840, Note_on_c, 0, 70, 88
4, 60956, Note_off_c, 0, 70, 0
4, 60960, Note_on_c, 0, 72, 88
4, 61076, Note_off_c, 0, 72, 0
4, 61080, Note_on_c, 0, 69, 88
4, 61196, Note_off_c, 0, 69, 0
4, 61200, Note_on_c, 0, 70, 88
4, 61316, Note_off_c, 0, 70, 0
4, 61320, Note_on_c, 0, 72, 88
4, 61436, Note_off_c, 0, 72, 0
4, 61440, Note_on_c, 0, 70, 88
4, 61556, Note_off_c, 0, 70, 0
4, 61560, Note_on_c, 0, 69, 88
4, 61676, Note_off_c, 0, 69, 0
4, 61680, Note_on_c, 0, 70, 88
4, 61796, Note_off_c, 0, 70, 0
4, 61800, Note_on_c, 0, 67, 88
4, 61916, Note_off_c, 0, 67, 0
4, 61920, Note_on_c, 0, 75, 88
4, 62756, Note_off_c, 0, 75, 0
4, 62760, Note_on_c, 0, 70, 88
4, 62876, Note_off_c, 0, 70, 0
4, 62880, Note_on_c, 0, 69, 88
4, 62996, Note_off_c, 0, 69, 0
4, 63000, Note_on_c, 0, 67, 88
4, 63116, Note_off_c, 0, 67, 0
4, 63120, Note_on_c, 0, 69, 88
4, 63236, Note_off_c, 0, 69, 0
4, 63240, Note_on_c, 0, 65, 88
4, 63356, Note_off_c, 0, 65, 0
4, 63360, Note_on_c, 0, 74, 88
4, 63830, Note_off_c, 0, 74, 0
4, 64920, Note_on_c, 0, 79, 88
4, 65036, Note_off_c, 0, 79, 0
4, 65040, Note_on_c, 0, 77, 88
4, 65156, Note_off_c, 0, 77, 0
4, 65160, Note_on_c, 0, 75, 88
4, 65276, Note_off_c, 0, 75, 0
4, 65280, Note_on_c, 0, 77, 88
4, 65396, Note_off_c, 0, 77, 0
4, 65400, Note_on_c, 0, 74, 88
4, 65516, Note_off_c, 0, 74, 0
4, 65520, Note_on_c, 0, 70, 88
4, 65636, Note_off_c, 0, 70, 0
4, 65640, Note_on_c, 0, 74, 88
4, 65874, Note_off_c, 0, 74, 0
4, 65880, Note_on_c, 0, 72, 88
4, 65996, Note_off_c, 0, 72, 0
4, 66000, Note_on_c, 0, 70, 88
4, 66116, Note_off_c, 0, 70, 0
4, 66120, Note_on_c, 0, 69, 88
4, 66236, Note_off_c, 0, 69, 0
4, 66240, Note_on_c, 0, 70, 88
4, 66948, Note_off_c, 0, 70, 0
4, 66948, End_track
5, 0, Start_track
5, 0, Title_t, "Track 2"
5, 0, Program_c, 1, 6
5, 120, Note_on_c, 1, 72, 88
5, 236, Note_off_c, 1, 72, 0
5, 240, Note_on_c, 1, 70, 88
5, 356, Note_off_c, 1, 70, 0
5, 360, Note_on_c, 1, 69, 88
5, 476, Note_off_c, 1, 69, 0
5, 480, Note_on_c, 1, 70, 88
5, 596, Note_off_c, 1, 70, 0
5, 600, Note_on_c, 1, 65, 88
5, 716, Note_off_c, 1, 65, 0
5, 720, Note_on_c, 1, 62, 88
5, 836, Note_off_c, 1, 62, 0
5, 840, Note_on_c, 1, 67, 88
5, 956, Note_off_c, 1, 67, 0
5, 960, Note_on_c, 1, 65, 88
5, 1076, Note_off_c, 1, 65, 0
5, 1080, Note_on_c, 1, 63, 88
5, 1196, Note_off_c, 1, 63, 0
5, 1200, Note_on_c, 1, 65, 88
5, 1316, Note_off_c, 1, 65, 0
5, 1320, Note_on_c, 1, 62, 88
5, 1436, Note_off_c, 1, 62, 0
5, 1440, Note_on_c, 1, 58, 88
5, 1556, Note_off_c, 1, 58, 0
5, 1560, Note_on_c, 1, 63, 88
5, 1660, Note_off_c, 1, 63, 0
5, 1680, Note_on_c, 1, 63, 88
5, 1796, Note_off_c, 1, 63, 0
5, 1800, Note_on_c, 1, 62, 88
5, 1900, Note_off_c, 1, 62, 0
5, 1920, Note_on_c, 1, 62, 88
5, 2036, Note_off_c, 1, 62, 0
5, 2040, Note_on_c, 1, 60, 88
5, 2156, Note_off_c, 1, 60, 0
5, 2160, Note_on_c, 1, 60, 88
5, 2276, Note_off_c, 1, 60, 0
5, 2280, Note_on_c, 1, 65, 88
5, 2380, Note_off_c, 1, 65, 0
5, 2400, Note_on_c, 1, 65, 88
5, 2516, Note_off_c, 1, 65, 0
5, 2520, Note_on_c, 1, 63, 88
5, 2620, Note_off_c, 1, 63, 0
5, 2640, Note_on_c, 1, 63, 88
5, 2756, Note_off_c, 1, 63, 0
5, 2760, Note_on_c, 1, 62, 88
5, 2876, Note_off_c, 1, 62, 0
5, 2880, Note_on_c, 1, 62, 88
5, 3114, Note_off_c, 1, 62, 0
5, 3120, Note_on_c, 1, 60, 88
5, 3354, Note_off_c, 1, 60, 0
5, 3360, Note_on_c, 1, 58, 88
5, 3594, Note_off_c, 1, 58, 0
5, 3600, Note_on_c, 1, 60, 88
5, 3834, Note_off_c, 1, 60, 0
5, 3840, Note_on_c, 1, 62, 88
5, 4074, Note_off_c, 1, 62, 0
5, 4080, Note_on_c, 1, 63, 88
5, 4314, Note_off_c, 1, 63, 0
5, 4320, Note_on_c, 1, 62, 88
5, 4554, Note_off_c, 1, 62, 0
5, 4560, Note_on_c, 1, 64, 88
5, 4794, Note_off_c, 1, 64, 0
5, 4800, Note_on_c, 1, 65, 88
5, 5274, Note_off_c, 1, 65, 0
5, 5280, Note_on_c, 1, 64, 88
5, 5396, Note_off_c, 1, 64, 0
5, 5400, Note_on_c, 1, 62, 88
5, 5516, Note_off_c, 1, 62, 0
5, 5520, Note_on_c, 1, 64, 88
5, 5754, Note_off_c, 1, 64, 0
5, 5760, Note_on_c, 1, 65, 88
5, 5876, Note_off_c, 1, 65, 0
5, 5880, Note_on_c, 1, 63, 88
5, 5996, Note_off_c, 1, 63, 0
5, 6000, Note_on_c, 1, 62, 88
5, 6116, Note_off_c, 1, 62, 0
5, 6120, Note_on_c, 1, 60, 88
5, 6236, Note_off_c, 1, 60, 0
5, 6240, Note_on_c, 1, 62, 88
5, 6356, Note_off_c, 1, 62, 0
5, 6360, Note_on_c, 1, 65, 88
5, 6476, Note_off_c, 1, 65, 0
5, 6480, Note_on_c, 1, 58, 88
5, 6714, Note_off_c, 1, 58, 0
5, 6720, Note_on_c, 1, 62, 88
5, 6954, Note_off_c, 1, 62, 0
5, 6960, Note_on_c, 1, 58, 88
5, 7194, Note_off_c, 1, 58, 0
5, 7200, Note_on_c, 1, 63, 88
5, 7316, Note_off_c, 1, 63, 0
5, 7320, Note_on_c, 1, 62, 88
5, 7436, Note_off_c, 1, 62, 0
5, 7440, Note_on_c, 1, 60, 88
5, 7556, Note_off_c, 1, 60, 0
5, 7560, Note_on_c, 1, 58, 88
5, 7676, Note_off_c, 1, 58, 0
5, 7680, Note_on_c, 1, 60, 88
5, 7796, Note_off_c, 1, 60, 0
5, 7800, Note_on_c, 1, 63, 88
5, 7916, Note_off_c, 1, 63, 0
5, 7920, Note_on_c, 1, 57, 88
5, 8154, Note_off_c, 1, 57, 0
5, 8160, Note_on_c, 1, 60, 88
5, 8394, Note_off_c, 1, 60, 0
5, 8400, Note_on_c, 1, 65, 88
5, 8634, Note_off_c, 1, 65, 0
5, 8640, Note_on_c, 1, 58, 88
5, 8874, Note_off_c, 1, 58, 0
5, 8880, Note_on_c, 1, 62, 88
5, 9114, Note_off_c, 1, 62, 0
5, 9120, Note_on_c, 1, 65, 88
5, 9354, Note_off_c, 1, 65, 0
5, 9360, Note_on_c, 1, 70, 88
5, 11270, Note_off_c, 1, 70, 0
5, 11280, Note_on_c, 1, 69, 88
5, 11514, Note_off_c, 1, 69, 0
5, 11520, Note_on_c, 1, 70, 88
5, 11636, Note_off_c, 1, 70, 0
5, 11640, Note_on_c, 1, 63, 88
5, 11740, Note_off_c, 1, 63, 0
5, 11760, Note_on_c, 1, 63, 88
5, 11876, Note_off_c, 1, 63, 0
5, 11880, Note_on_c, 1, 62, 88
5, 11980, Note_off_c, 1, 62, 0
5, 12000, Note_on_c, 1, 62, 88
5, 12116, Note_off_c, 1, 62, 0
5, 12120, Note_on_c, 1, 60, 88
5, 12236, Note_off_c, 1, 60, 0
5, 12240, Note_on_c, 1, 60, 88
5, 12356, Note_off_c, 1, 60, 0
5, 12360, Note_on_c, 1, 65, 88
5, 12460, Note_off_c, 1, 65, 0
5, 12480, Note_on_c, 1, 65, 88
5, 12596, Note_off_c, 1, 65, 0
5, 12600, Note_on_c, 1, 63, 88
5, 12700, Note_off_c, 1, 63, 0
5, 12720, Note_on_c, 1, 63, 88
5, 12836, Note_off_c, 1, 63, 0
5, 12840, Note_on_c, 1, 62, 88
5, 12956, Note_off_c, 1, 62, 0
5, 12960, Note_on_c, 1, 62, 88
5, 13668, Note_off_c, 1, 62, 0
5, 13680, Note_on_c, 1, 60, 88
5, 13914, Note_off_c, 1, 60, 0
5, 13920, Note_on_c, 1, 62, 88
5, 14154, Note_off_c, 1, 62, 0
5, 14160, Note_on_c, 1, 64, 88
5, 14394, Note_off_c, 1, 64, 0
5, 14400, Note_on_c, 1, 65, 88
5, 14634, Note_off_c, 1, 65, 0
5, 15240, Note_on_c, 1, 70, 88
5, 15356, Note_off_c, 1, 70, 0
5, 15360, Note_on_c, 1, 69, 88
5, 15476, Note_off_c, 1, 69, 0
5, 15480, Note_on_c, 1, 67, 88
5, 15596, Note_off_c, 1, 67, 0
5, 15600, Note_on_c, 1, 69, 88
5, 15716, Note_off_c, 1, 69, 0
5, 15720, Note_on_c, 1, 65, 88
5, 15836, Note_off_c, 1, 65, 0
5, 15840, Note_on_c, 1, 75, 88
5, 15956, Note_off_c, 1, 75, 0
5, 15960, Note_on_c, 1, 74, 88
5, 16060, Note_off_c, 1, 74, 0
5, 16080, Note_on_c, 1, 74, 88
5, 16196, Note_off_c, 1, 74, 0
5, 16200, Note_on_c, 1, 72, 88
5, 16300, Note_off_c, 1, 72, 0
5, 16320, Note_on_c, 1, 72, 88
5, 16436, Note_off_c, 1, 72, 0
5, 16440, Note_on_c, 1, 70, 88
5, 16556, Note_off_c, 1, 70, 0
5, 16560, Note_on_c, 1, 70, 88
5, 16676, Note_off_c, 1, 70, 0
5, 16680, Note_on_c, 1, 69, 88
5, 16780, Note_off_c, 1, 69, 0
5, 16800, Note_on_c, 1, 69, 88
5, 16916, Note_off_c, 1, 69, 0
5, 16920, Note_on_c, 1, 67, 88
5, 17020, Note_off_c, 1, 67, 0
5, 17040, Note_on_c, 1, 67, 88
5, 17156, Note_off_c, 1, 67, 0
5, 17160, Note_on_c, 1, 65, 88
5, 17276, Note_off_c, 1, 65, 0
5, 17280, Note_on_c, 1, 65, 88
5, 17988, Note_off_c, 1, 65, 0
5, 18000, Note_on_c, 1, 64, 88
5, 18234, Note_off_c, 1, 64, 0
5, 18240, Note_on_c, 1, 63, 88
5, 18710, Note_off_c, 1, 63, 0
5, 18720, Note_on_c, 1, 62, 88
5, 18954, Note_off_c, 1, 62, 0
5, 18960, Note_on_c, 1, 61, 88
5, 19194, Note_off_c, 1, 61, 0
5, 19200, Note_on_c, 1, 58, 88
5, 19434, Note_off_c, 1, 58, 0
5, 19440, Note_on_c, 1, 64, 88
5, 19674, Note_off_c, 1, 64, 0
5, 19680, Note_on_c, 1, 65, 88
5, 19914, Note_off_c, 1, 65, 0
5, 20280, Note_on_c, 1, 68, 88
5, 20380, Note_off_c, 1, 68, 0
5, 20400, Note_on_c, 1, 68, 88
5, 20516, Note_off_c, 1, 68, 0
5, 20520, Note_on_c, 1, 67, 88
5, 20620, Note_off_c, 1, 67, 0
5, 20640, Note_on_c, 1, 67, 88
5, 20756, Note_off_c, 1, 67, 0
5, 20760, Note_on_c, 1, 65, 88
5, 20876, Note_off_c, 1, 65, 0
5, 20880, Note_on_c, 1, 64, 88
5, 21588, Note_off_c, 1, 64, 0
5, 21600, Note_on_c, 1, 65, 88
5, 21834, Note_off_c, 1, 65, 0
5, 21840, Note_on_c, 1, 62, 88
5, 22074, Note_off_c, 1, 62, 0
5, 22080, Note_on_c, 1, 55, 88
5, 22314, Note_off_c, 1, 55, 0
5, 22320, Note_on_c, 1, 57, 88
5, 22436, Note_off_c, 1, 57, 0
5, 22440, Note_on_c, 1, 67, 88
5, 22556, Note_off_c, 1, 67, 0
5, 22560, Note_on_c, 1, 65, 88
5, 22676, Note_off_c, 1, 65, 0
5, 22680, Note_on_c, 1, 64, 88
5, 22796, Note_off_c, 1, 64, 0
5, 22800, Note_on_c, 1, 65, 88
5, 22916, Note_off_c, 1, 65, 0
5, 22920, Note_on_c, 1, 60, 88
5, 23036, Note_off_c, 1, 60, 0
5, 23040, Note_on_c, 1, 57, 88
5, 23156, Note_off_c, 1, 57, 0
5, 23160, Note_on_c, 1, 62, 88
5, 23276, Note_off_c, 1, 62, 0
5, 23280, Note_on_c, 1, 60, 88
5, 23396, Note_off_c, 1, 60, 0
5, 23400, Note_on_c, 1, 58, 88
5, 23516, Note_off_c, 1, 58, 0
5, 23520, Note_on_c, 1, 60, 88
5, 23636, Note_off_c, 1, 60, 0
5, 23640, Note_on_c, 1, 57, 88
5, 23756, Note_off_c, 1, 57, 0
5, 23760, Note_on_c, 1, 53, 88
5, 23876, Note_off_c, 1, 53, 0
5, 23880, Note_on_c, 1, 58, 88
5, 23980, Note_off_c, 1, 58, 0
5, 24000, Note_on_c, 1, 58, 88
5, 24116, Note_off_c, 1, 58, 0
5, 24120, Note_on_c, 1, 57, 88
5, 24220, Note_off_c, 1, 57, 0
5, 24240, Note_on_c, 1, 57, 88
5, 24356, Note_off_c, 1, 57, 0
5, 24360, Note_on_c, 1, 55, 88
5, 24476, Note_off_c, 1, 55, 0
5, 24480, Note_on_c, 1, 55, 88
5, 24596, Note_off_c, 1, 55, 0
5, 24600, Note_on_c, 1, 60, 88
5, 24700, Note_off_c, 1, 60, 0
5, 24720, Note_on_c, 1, 60, 88
5, 24836, Note_off_c, 1, 60, 0
5, 24840, Note_on_c, 1, 58, 88
5, 24940, Note_off_c, 1, 58, 0
5, 24960, Note_on_c, 1, 58, 88
5, 25076, Note_off_c, 1, 58, 0
5, 25080, Note_on_c, 1, 57, 88
5, 25196, Note_off_c, 1, 57, 0
5, 25200, Note_on_c, 1, 57, 88
5, 25434, Note_off_c, 1, 57, 0
5, 25440, Note_on_c, 1, 58, 88
5, 25674, Note_off_c, 1, 58, 0
5, 25680, Note_on_c, 1, 60, 88
5, 26036, Note_off_c, 1, 60, 0
5, 26040, Note_on_c, 1, 58, 88
5, 26140, Note_off_c, 1, 58, 0
5, 26160, Note_on_c, 1, 58, 88
5, 26276, Note_off_c, 1, 58, 0
5, 26280, Note_on_c, 1, 56, 88
5, 26380, Note_off_c, 1, 56, 0
5, 26400, Note_on_c, 1, 56, 88
5, 26516, Note_off_c, 1, 56, 0
5, 26520, Note_on_c, 1, 55, 88
5, 26636, Note_off_c, 1, 55, 0
5, 26640, Note_on_c, 1, 55, 88
5, 26874, Note_off_c, 1, 55, 0
5, 26880, Note_on_c, 1, 57, 88
5, 27114, Note_off_c, 1, 57, 0
5, 27120, Note_on_c, 1, 58, 88
5, 27476, Note_off_c, 1, 58, 0
5, 27480, Note_on_c, 1, 57, 88
5, 27580, Note_off_c, 1, 57, 0
5, 27600, Note_on_c, 1, 57, 88
5, 27716, Note_off_c, 1, 57, 0
5, 27720, Note_on_c, 1, 55, 88
5, 27820, Note_off_c, 1, 55, 0
5, 27840, Note_on_c, 1, 55, 88
5, 27956, Note_off_c, 1, 55, 0
5, 27960, Note_on_c, 1, 53, 88
5, 28076, Note_off_c, 1, 53, 0
5, 28080, Note_on_c, 1, 53, 88
5, 28314, Note_off_c, 1, 53, 0
5, 29040, Note_on_c, 1, 65, 88
5, 29510, Note_off_c, 1, 65, 0
5, 29520, Note_on_c, 1, 67, 88
5, 30228, Note_off_c, 1, 67, 0
5, 30240, Note_on_c, 1, 69, 88
5, 30948, Note_off_c, 1, 69, 0
5, 30960, Note_on_c, 1, 62, 88
5, 31076, Note_off_c, 1, 62, 0
5, 31080, Note_on_c, 1, 72, 88
5, 31196, Note_off_c, 1, 72, 0
5, 31200, Note_on_c, 1, 70, 88
5, 31316, Note_off_c, 1, 70, 0
5, 31320, Note_on_c, 1, 69, 88
5, 31436, Note_off_c, 1, 69, 0
5, 31440, Note_on_c, 1, 70, 88
5, 31556, Note_off_c, 1, 70, 0
5, 31560, Note_on_c, 1, 67, 88
5, 31676, Note_off_c, 1, 67, 0
5, 31680, Note_on_c, 1, 63, 88
5, 32516, Note_off_c, 1, 63, 0
5, 32520, Note_on_c, 1, 62, 88
5, 32620, Note_off_c, 1, 62, 0
5, 32640, Note_on_c, 1, 62, 88
5, 32756, Note_off_c, 1, 62, 0
5, 32760, Note_on_c, 1, 60, 88
5, 32860, Note_off_c, 1, 60, 0
5, 32880, Note_on_c, 1, 60, 88
5, 32996, Note_off_c, 1, 60, 0
5, 33000, Note_on_c, 1, 58, 88
5, 33116, Note_off_c, 1, 58, 0
5, 33120, Note_on_c, 1, 58, 88
5, 33590, Note_off_c, 1, 58, 0
5, 34080, Note_on_c, 1, 60, 88
5, 34314, Note_off_c, 1, 60, 0
5, 34320, Note_on_c, 1, 57, 88
5, 34554, Note_off_c, 1, 57, 0
5, 34560, Note_on_c, 1, 58, 88
5, 34676, Note_off_c, 1, 58, 0
5, 34680, Note_on_c, 1, 55, 88
5, 34796, Note_off_c, 1, 55, 0
5, 34800, Note_on_c, 1, 64, 88
5, 34916, Note_off_c, 1, 64, 0
5, 34920, Note_on_c, 1, 66, 88
5, 35036, Note_off_c, 1, 66, 0
5, 35040, Note_on_c, 1, 67, 88
5, 35514, Note_off_c, 1, 67, 0
5, 35520, Note_on_c, 1, 66, 88
5, 35636, Note_off_c, 1, 66, 0
5, 35640, Note_on_c, 1, 67, 88
5, 35756, Note_off_c, 1, 67, 0
5, 35760, Note_on_c, 1, 69, 88
5, 36116, Note_off_c, 1, 69, 0
5, 36120, Note_on_c, 1, 67, 88
5, 36220, Note_off_c, 1, 67, 0
5, 36240, Note_on_c, 1, 67, 88
5, 36356, Note_off_c, 1, 67, 0
5, 36360, Note_on_c, 1, 65, 88
5, 36460, Note_off_c, 1, 65, 0
5, 36480, Note_on_c, 1, 65, 88
5, 36596, Note_off_c, 1, 65, 0
5, 36600, Note_on_c, 1, 63, 88
5, 36716, Note_off_c, 1, 63, 0
5, 36720, Note_on_c, 1, 63, 88
5, 36836, Note_off_c, 1, 63, 0
5, 36840, Note_on_c, 1, 68, 88
5, 36940, Note_off_c, 1, 68, 0
5, 36960, Note_on_c, 1, 68, 88
5, 37076, Note_off_c, 1, 68, 0
5, 37080, Note_on_c, 1, 67, 88
5, 37180, Note_off_c, 1, 67, 0
5, 37200, Note_on_c, 1, 67, 88
5, 37316, Note_off_c, 1, 67, 0
5, 37320, Note_on_c, 1, 65, 88
5, 37436, Note_off_c, 1, 65, 0
5, 37440, Note_on_c, 1, 65, 88
5, 38260, Note_off_c, 1, 65, 0
5, 38280, Note_on_c, 1, 65, 88
5, 38396, Note_off_c, 1, 65, 0
5, 38400, Note_on_c, 1, 63, 88
5, 38516, Note_off_c, 1, 63, 0
5, 38520, Note_on_c, 1, 62, 88
5, 38636, Note_off_c, 1, 62, 0
5, 38640, Note_on_c, 1, 63, 88
5, 38756, Note_off_c, 1, 63, 0
5, 38760, Note_on_c, 1, 58, 88
5, 38876, Note_off_c, 1, 58, 0
5, 38880, Note_on_c, 1, 55, 88
5, 38996, Note_off_c, 1, 55, 0
5, 39000, Note_on_c, 1, 60, 88
5, 39116, Note_off_c, 1, 60, 0
5, 39120, Note_on_c, 1, 58, 88
5, 39236, Note_off_c, 1, 58, 0
5, 39240, Note_on_c, 1, 56, 88
5, 39356, Note_off_c, 1, 56, 0
5, 39360, Note_on_c, 1, 58, 88
5, 39476, Note_off_c, 1, 58, 0
5, 39480, Note_on_c, 1, 55, 88
5, 39596, Note_off_c, 1, 55, 0
5, 39600, Note_on_c, 1, 51, 88
5, 39716, Note_off_c, 1, 51, 0
5, 39720, Note_on_c, 1, 56, 88
5, 39820, Note_off_c, 1, 56, 0
5, 39840, Note_on_c, 1, 56, 88
5, 39956, Note_off_c, 1, 56, 0
5, 39960, Note_on_c, 1, 55, 88
5, 40060, Note_off_c, 1, 55, 0
5, 40080, Note_on_c, 1, 55, 88
5, 40196, Note_off_c, 1, 55, 0
5, 40200, Note_on_c, 1, 53, 88
5, 40316, Note_off_c, 1, 53, 0
5, 40320, Note_on_c, 1, 53, 88
5, 40436, Note_off_c, 1, 53, 0
5, 40440, Note_on_c, 1, 58, 88
5, 40540, Note_off_c, 1, 58, 0
5, 40560, Note_on_c, 1, 58, 88
5, 40676, Note_off_c, 1, 58, 0
5, 40680, Note_on_c, 1, 56, 88
5, 40780, Note_off_c, 1, 56, 0
5, 40800, Note_on_c, 1, 56, 88
5, 40916, Note_off_c, 1, 56, 0
5, 40920, Note_on_c, 1, 55, 88
5, 41036, Note_off_c, 1, 55, 0
5, 41040, Note_on_c, 1, 55, 88
5, 41274, Note_off_c, 1, 55, 0
5, 41280, Note_on_c, 1, 67, 88
5, 41514, Note_off_c, 1, 67, 0
5, 41520, Note_on_c, 1, 64, 88
5, 41754, Note_off_c, 1, 64, 0
5, 41760, Note_on_c, 1, 60, 88
5, 41994, Note_off_c, 1, 60, 0
5, 42000, Note_on_c, 1, 62, 88
5, 42116, Note_off_c, 1, 62, 0
5, 42120, Note_on_c, 1, 63, 88
5, 42236, Note_off_c, 1, 63, 0
5, 42240, Note_on_c, 1, 65, 88
5, 42474, Note_off_c, 1, 65, 0
5, 42480, Note_on_c, 1, 59, 88
5, 43188, Note_off_c, 1, 59, 0
5, 43200, Note_on_c, 1, 60, 88
5, 43434, Note_off_c, 1, 60, 0
5, 43440, Note_on_c, 1, 63, 88
5, 43674, Note_off_c, 1, 63, 0
5, 43680, Note_on_c, 1, 65, 88
5, 44036, Note_off_c, 1, 65, 0
5, 44040, Note_on_c, 1, 68, 88
5, 44156, Note_off_c, 1, 68, 0
5, 44160, Note_on_c, 1, 67, 88
5, 44276, Note_off_c, 1, 67, 0
5, 44280, Note_on_c, 1, 65, 88
5, 44396, Note_off_c, 1, 65, 0
5, 44400, Note_on_c, 1, 67, 88
5, 44516, Note_off_c, 1, 67, 0
5, 44520, Note_on_c, 1, 62, 88
5, 44636, Note_off_c, 1, 62, 0
5, 44640, Note_on_c, 1, 63, 88
5, 44756, Note_off_c, 1, 63, 0
5, 44760, Note_on_c, 1, 53, 88
5, 44876, Note_off_c, 1, 53, 0
5, 44880, Note_on_c, 1, 51, 88
5, 44996, Note_off_c, 1, 51, 0
5, 45000, Note_on_c, 1, 50, 88
5, 45116, Note_off_c, 1, 50, 0
5, 45120, Note_on_c, 1, 51, 88
5, 45236, Note_off_c, 1, 51, 0
5, 45240, Note_on_c, 1, 55, 88
5, 45356, Note_off_c, 1, 55, 0
5, 45360, Note_on_c, 1, 60, 88
5, 45594, Note_off_c, 1, 60, 0
5, 45600, Note_on_c, 1, 55, 88
5, 45716, Note_off_c, 1, 55, 0
5, 45720, Note_on_c, 1, 56, 88
5, 45836, Note_off_c, 1, 56, 0
5, 45840, Note_on_c, 1, 58, 88
5, 46314, Note_off_c, 1, 58, 0
5, 46320, Note_on_c, 1, 57, 88
5, 46436, Note_off_c, 1, 57, 0
5, 46440, Note_on_c, 1, 59, 88
5, 46556, Note_off_c, 1, 59, 0
5, 46560, Note_on_c, 1, 60, 88
5, 47034, Note_off_c, 1, 60, 0
5, 47040, Note_on_c, 1, 59, 88
5, 47156, Note_off_c, 1, 59, 0
5, 47160, Note_on_c, 1, 60, 88
5, 47276, Note_off_c, 1, 60, 0
5, 47280, Note_on_c, 1, 62, 88
5, 47620, Note_off_c, 1, 62, 0
5, 47640, Note_on_c, 1, 62, 88
5, 47756, Note_off_c, 1, 62, 0
5, 47760, Note_on_c, 1, 60, 88
5, 47876, Note_off_c, 1, 60, 0
5, 47880, Note_on_c, 1, 59, 88
5, 47996, Note_off_c, 1, 59, 0
5, 48000, Note_on_c, 1, 60, 88
5, 48116, Note_off_c, 1, 60, 0
5, 48120, Note_on_c, 1, 55, 88
5, 48236, Note_off_c, 1, 55, 0
5, 48240, Note_on_c, 1, 57, 88
5, 48474, Note_off_c, 1, 57, 0
5, 48480, Note_on_c, 1, 60, 88
5, 48714, Note_off_c, 1, 60, 0
5, 48720, Note_on_c, 1, 65, 88
5, 49180, Note_off_c, 1, 65, 0
5, 49200, Note_on_c, 1, 65, 88
5, 49434, Note_off_c, 1, 65, 0
5, 49440, Note_on_c, 1, 70, 88
5, 49674, Note_off_c, 1, 70, 0
5, 49680, Note_on_c, 1, 67, 88
5, 49914, Note_off_c, 1, 67, 0
5, 49920, Note_on_c, 1, 64, 88
5, 50154, Note_off_c, 1, 64, 0
5, 50160, Note_on_c, 1, 69, 88
5, 50394, Note_off_c, 1, 69, 0
5, 50400, Note_on_c, 1, 62, 88
5, 50870, Note_off_c, 1, 62, 0
5, 50880, Note_on_c, 1, 67, 88
5, 51114, Note_off_c, 1, 67, 0
5, 51120, Note_on_c, 1, 63, 88
5, 51354, Note_off_c, 1, 63, 0
5, 51360, Note_on_c, 1, 60, 88
5, 51594, Note_off_c, 1, 60, 0
5, 51600, Note_on_c, 1, 65, 88
5, 51834, Note_off_c, 1, 65, 0
5, 51840, Note_on_c, 1, 58, 88
5, 52310, Note_off_c, 1, 58, 0
5, 52320, Note_on_c, 1, 63, 88
5, 52554, Note_off_c, 1, 63, 0
5, 52560, Note_on_c, 1, 60, 88
5, 52794, Note_off_c, 1, 60, 0
5, 52800, Note_on_c, 1, 57, 88
5, 53034, Note_off_c, 1, 57, 0
5, 53040, Note_on_c, 1, 62, 88
5, 53274, Note_off_c, 1, 62, 0
5, 53280, Note_on_c, 1, 55, 88
5, 53750, Note_off_c, 1, 55, 0
5, 53760, Note_on_c, 1, 60, 88
5, 53994, Note_off_c, 1, 60, 0
5, 54000, Note_on_c, 1, 53, 88
5, 54234, Note_off_c, 1, 53, 0
5, 54240, Note_on_c, 1, 48, 88
5, 54474, Note_off_c, 1, 48, 0
5, 54480, Note_on_c, 1, 53, 88
5, 54836, Note_off_c, 1, 53, 0
5, 54840, Note_on_c, 1, 60, 88
5, 54956, Note_off_c, 1, 60, 0
5, 54960, Note_on_c, 1, 58, 88
5, 55076, Note_off_c, 1, 58, 0
5, 55080, Note_on_c, 1, 57, 88
5, 55196, Note_off_c, 1, 57, 0
5, 55200, Note_on_c, 1, 58, 88
5, 55316, Note_off_c, 1, 58, 0
5, 55320, Note_on_c, 1, 55, 88
5, 55436, Note_off_c, 1, 55, 0
5, 55440, Note_on_c, 1, 57, 88
5, 55556, Note_off_c, 1, 57, 0
5, 57120, Note_on_c, 1, 62, 88
5, 57236, Note_off_c, 1, 62, 0
5, 57240, Note_on_c, 1, 63, 88
5, 57356, Note_off_c, 1, 63, 0
5, 57360, Note_on_c, 1, 65, 88
5, 57834, Note_off_c, 1, 65, 0
5, 57840, Note_on_c, 1, 63, 88
5, 57956, Note_off_c, 1, 63, 0
5, 57960, Note_on_c, 1, 65, 88
5, 58076, Note_off_c, 1, 65, 0
5, 58080, Note_on_c, 1, 67, 88
5, 58436, Note_off_c, 1, 67, 0
5, 58440, Note_on_c, 1, 65, 88
5, 58556, Note_off_c, 1, 65, 0
5, 58560, Note_on_c, 1, 63, 88
5, 58676, Note_off_c, 1, 63, 0
5, 58680, Note_on_c, 1, 62, 88
5, 58796, Note_off_c, 1, 62, 0
5, 58800, Note_on_c, 1, 63, 88
5, 58916, Note_off_c, 1, 63, 0
5, 58920, Note_on_c, 1, 60, 88
5, 59036, Note_off_c, 1, 60, 0
5, 59040, Note_on_c, 1, 62, 88
5, 59156, Note_off_c, 1, 62, 0
5, 59160, Note_on_c, 1, 67, 88
5, 59260, Note_off_c, 1, 67, 0
5, 59280, Note_on_c, 1, 67, 88
5, 59396, Note_off_c, 1, 67, 0
5, 59400, Note_on_c, 1, 65, 88
5, 59500, Note_off_c, 1, 65, 0
5, 59520, Note_on_c, 1, 65, 88
5, 59636, Note_off_c, 1, 65, 0
5, 59640, Note_on_c, 1, 64, 88
5, 59756, Note_off_c, 1, 64, 0
5, 59760, Note_on_c, 1, 64, 88
5, 59876, Note_off_c, 1, 64, 0
5, 59880, Note_on_c, 1, 69, 88
5, 59980, Note_off_c, 1, 69, 0
5, 60000, Note_on_c, 1, 69, 88
5, 60116, Note_off_c, 1, 69, 0
5, 60120, Note_on_c, 1, 67, 88
5, 60220, Note_off_c, 1, 67, 0
5, 60240, Note_on_c, 1, 67, 88
5, 60356, Note_off_c, 1, 67, 0
5, 60360, Note_on_c, 1, 66, 88
5, 60476, Note_off_c, 1, 66, 0
5, 60480, Note_on_c, 1, 66, 88
5, 60596, Note_off_c, 1, 66, 0
5, 60600, Note_on_c, 1, 67, 88
5, 60716, Note_off_c, 1, 67, 0
5, 60720, Note_on_c, 1, 69, 88
5, 60836, Note_off_c, 1, 69, 0
5, 60840, Note_on_c, 1, 67, 88
5, 60956, Note_off_c, 1, 67, 0
5, 60960, Note_on_c, 1, 69, 88
5, 61076, Note_off_c, 1, 69, 0
5, 61080, Note_on_c, 1, 66, 88
5, 61196, Note_off_c, 1, 66, 0
5, 61200, Note_on_c, 1, 67, 88
5, 61434, Note_off_c, 1, 67, 0
5, 62040, Note_on_c, 1, 70, 88
5, 62156, Note_off_c, 1, 70, 0
5, 62160, Note_on_c, 1, 69, 88
5, 62276, Note_off_c, 1, 69, 0
5, 62280, Note_on_c, 1, 67, 88
5, 62380, Note_off_c, 1, 67, 0
5, 62400, Note_on_c, 1, 67, 88
5, 62516, Note_off_c, 1, 67, 0
5, 62520, Note_on_c, 1, 65, 88
5, 62636, Note_off_c, 1, 65, 0
5, 62640, Note_on_c, 1, 65, 88
5, 62640, Note_on_c, 1, 69, 88
5, 62640, Note_on_c, 1, 72, 88
5, 62756, Note_off_c, 1, 65, 0
5, 62756, Note_off_c, 1, 69, 0
5, 62756, Note_off_c, 1, 72, 0
5, 63480, Note_on_c, 1, 69, 88
5, 63596, Note_off_c, 1, 69, 0
5, 63600, Note_on_c, 1, 70, 88
5, 63716, Note_off_c, 1, 70, 0
5, 63720, Note_on_c, 1, 72, 88
5, 63836, Note_off_c, 1, 72, 0
5, 63840, Note_on_c, 1, 74, 88
5, 63956, Note_off_c, 1, 74, 0
5, 63960, Note_on_c, 1, 77, 88
5, 64076, Note_off_c, 1, 77, 0
5, 64080, Note_on_c, 1, 82, 88
5, 64196, Note_off_c, 1, 82, 0
5, 64200, Note_on_c, 1, 73, 88
5, 64300, Note_off_c, 1, 73, 0
5, 64320, Note_on_c, 1, 73, 88
5, 64436, Note_off_c, 1, 73, 0
5, 64440, Note_on_c, 1, 72, 88
5, 64540, Note_off_c, 1, 72, 0
5, 64560, Note_on_c, 1, 72, 88
5, 64676, Note_off_c, 1, 72, 0
5, 64680, Note_on_c, 1, 70, 88
5, 64796, Note_off_c, 1, 70, 0
5, 64800, Note_on_c, 1, 69, 88
5, 65508, Note_off_c, 1, 69, 0
5, 65520, Note_on_c, 1, 70, 88
5, 65754, Note_off_c, 1, 70, 0
5, 65760, Note_on_c, 1, 67, 88
5, 65994, Note_off_c, 1, 67, 0
5, 66000, Note_on_c, 1, 60, 88
5, 66234, Note_off_c, 1, 60, 0
5, 66240, Note_on_c, 1, 62, 88
5, 66948, Note_off_c, 1, 62, 0
5, 66948, End_track
6, 0, Start_track
6, 0, Title_t, "Track 3"
6, 0, Program_c, 2, 6
6, 8760, Note_on_c, 2, 60, 88
6, 8876, Note_off_c, 2, 60, 0
6, 8880, Note_on_c, 2, 58, 88
6, 8996, Note_off_c, 2, 58, 0
6, 9000, Note_on_c, 2, 57, 88
6, 9116, Note_off_c, 2, 57, 0
6, 9120, Note_on_c, 2, 58, 88
6, 9236, Note_off_c, 2, 58, 0
6, 9240, Note_on_c, 2, 53, 88
6, 9356, Note_off_c, 2, 53, 0
6, 9360, Note_on_c, 2, 50, 88
6, 9476, Note_off_c, 2, 50, 0
6, 9480, Note_on_c, 2, 55, 88
6, 9596, Note_off_c, 2, 55, 0
6, 9600, Note_on_c, 2, 53, 88
6, 9716, Note_off_c, 2, 53, 0
6, 9720, Note_on_c, 2, 51, 88
6, 9836, Note_off_c, 2, 51, 0
6, 9840, Note_on_c, 2, 53, 88
6, 9956, Note_off_c, 2, 53, 0
6, 9960, Note_on_c, 2, 50, 88
6, 10076, Note_off_c, 2, 50, 0
6, 10080, Note_on_c, 2, 46, 88
6, 10196, Note_off_c, 2, 46, 0
6, 10200, Note_on_c, 2, 51, 88
6, 10300, Note_off_c, 2, 51, 0
6, 10320, Note_on_c, 2, 51, 88
6, 10436, Note_off_c, 2, 51, 0
6, 10440, Note_on_c, 2, 50, 88
6, 10540, Note_off_c, 2, 50, 0
6, 10560, Note_on_c, 2, 50, 88
6, 10676, Note_off_c, 2, 50, 0
6, 10680, Note_on_c, 2, 48, 88
6, 10796, Note_off_c, 2, 48, 0
6, 10800, Note_on_c, 2, 48, 88
6, 10916, Note_off_c, 2, 48, 0
6, 10920, Note_on_c, 2, 53, 88
6, 11020, Note_off_c, 2, 53, 0
6, 11040, Note_on_c, 2, 53, 88
6, 11156, Note_off_c, 2, 53, 0
6, 11160, Note_on_c, 2, 51, 88
6, 11260, Note_off_c, 2, 51, 0
6, 11280, Note_on_c, 2, 51, 88
6, 11396, Note_off_c, 2, 51, 0
6, 11400, Note_on_c, 2, 50, 88
6, 11516, Note_off_c, 2, 50, 0
6, 11520, Note_on_c, 2, 50, 88
6, 11636, Note_off_c, 2, 50, 0
6, 11640, Note_on_c, 2, 55, 88
6, 11740, Note_off_c, 2, 55, 0
6, 11760, Note_on_c, 2, 55, 88
6, 11876, Note_off_c, 2, 55, 0
6, 11880, Note_on_c, 2, 53, 88
6, 11980, Note_off_c, 2, 53, 0
6, 12000, Note_on_c, 2, 53, 88
6, 12116, Note_off_c, 2, 53, 0
6, 12120, Note_on_c, 2, 51, 88
6, 12236, Note_off_c, 2, 51, 0
6, 12240, Note_on_c, 2, 51, 88
6, 12474, Note_off_c, 2, 51, 0
6, 12480, Note_on_c, 2, 53, 88
6, 12714, Note_off_c, 2, 53, 0
6, 12720, Note_on_c, 2, 41, 88
6, 12954, Note_off_c, 2, 41, 0
6, 12960, Note_on_c, 2, 46, 88
6, 13194, Note_off_c, 2, 46, 0
6, 13200, Note_on_c, 2, 58, 88
6, 13796, Note_off_c, 2, 58, 0
6, 13800, Note_on_c, 2, 57, 88
6, 13900, Note_off_c, 2, 57, 0
6, 13920, Note_on_c, 2, 57, 88
6, 14036, Note_off_c, 2, 57, 0
6, 14040, Note_on_c, 2, 55, 88
6, 14140, Note_off_c, 2, 55, 0
6, 14160, Note_on_c, 2, 55, 88
6, 14276, Note_off_c, 2, 55, 0
6, 14280, Note_on_c, 2, 53, 88
6, 14396, Note_off_c, 2, 53, 0
6, 14400, Note_on_c, 2, 53, 88
6, 14516, Note_off_c, 2, 53, 0
6, 14520, Note_on_c, 2, 55, 88
6, 14636, Note_off_c, 2, 55, 0
6, 14640, Note_on_c, 2, 53, 88
6, 14756, Note_off_c, 2, 53, 0
6, 14760, Note_on_c, 2, 52, 88
6, 14876, Note_off_c, 2, 52, 0
6, 14880, Note_on_c, 2, 53, 88
6, 14996, Note_off_c, 2, 53, 0
6, 15000, Note_on_c, 2, 48, 88
6, 15116, Note_off_c, 2, 48, 0
6, 15120, Note_on_c, 2, 45, 88
6, 15236, Note_off_c, 2, 45, 0
6, 15240, Note_on_c, 2, 50, 88
6, 15356, Note_off_c, 2, 50, 0
6, 15360, Note_on_c, 2, 48, 88
6, 15476, Note_off_c, 2, 48, 0
6, 15480, Note_on_c, 2, 46, 88
6, 15596, Note_off_c, 2, 46, 0
6, 15600, Note_on_c, 2, 48, 88
6, 15716, Note_off_c, 2, 48, 0
6, 15720, Note_on_c, 2, 45, 88
6, 15836, Note_off_c, 2, 45, 0
6, 15840, Note_on_c, 2, 41, 88
6, 15956, Note_off_c, 2, 41, 0
6, 15960, Note_on_c, 2, 46, 88
6, 16060, Note_off_c, 2, 46, 0
6, 16080, Note_on_c, 2, 46, 88
6, 16196, Note_off_c, 2, 46, 0
6, 16200, Note_on_c, 2, 45, 88
6, 16300, Note_off_c, 2, 45, 0
6, 16320, Note_on_c, 2, 45, 88
6, 16436, Note_off_c, 2, 45, 0
6, 16440, Note_on_c, 2, 43, 88
6, 16556, Note_off_c, 2, 43, 0
6, 16560, Note_on_c, 2, 43, 88
6, 16676, Note_off_c, 2, 43, 0
6, 16680, Note_on_c, 2, 48, 88
6, 16780, Note_off_c, 2, 48, 0
6, 16800, Note_on_c, 2, 48, 88
6, 16916, Note_off_c, 2, 48, 0
6, 16920, Note_on_c, 2, 46, 88
6, 17020, Note_off_c, 2, 46, 0
6, 17040, Note_on_c, 2, 46, 88
6, 17156, Note_off_c, 2, 46, 0
6, 17160, Note_on_c, 2, 45, 88
6, 17276, Note_off_c, 2, 45, 0
6, 17280, Note_on_c, 2, 45, 88
6, 17514, Note_off_c, 2, 45, 0
6, 17520, Note_on_c, 2, 46, 88
6, 18234, Note_off_c, 2, 46, 0
6, 18240, Note_on_c, 2, 45, 88
6, 18710, Note_off_c, 2, 45, 0
6, 18720, Note_on_c, 2, 46, 88
6, 18836, Note_off_c, 2, 46, 0
6, 18840, Note_on_c, 2, 57, 88
6, 18956, Note_off_c, 2, 57, 0
6, 18960, Note_on_c, 2, 55, 88
6, 19076, Note_off_c, 2, 55, 0
6, 19080, Note_on_c, 2, 53, 88
6, 19196, Note_off_c, 2, 53, 0
6, 19200, Note_on_c, 2, 55, 88
6, 19316, Note_off_c, 2, 55, 0
6, 19320, Note_on_c, 2, 52, 88
6, 19436, Note_off_c, 2, 52, 0
6, 19440, Note_on_c, 2, 48, 88
6, 19556, Note_off_c, 2, 48, 0
6, 19560, Note_on_c, 2, 55, 88
6, 19676, Note_off_c, 2, 55, 0
6, 19680, Note_on_c, 2, 53, 88
6, 19796, Note_off_c, 2, 53, 0
6, 19800, Note_on_c, 2, 52, 88
6, 19916, Note_off_c, 2, 52, 0
6, 19920, Note_on_c, 2, 53, 88
6, 20036, Note_off_c, 2, 53, 0
6, 20040, Note_on_c, 2, 50, 88
6, 20156, Note_off_c, 2, 50, 0
6, 20160, Note_on_c, 2, 47, 88
6, 20380, Note_off_c, 2, 47, 0
6, 20400, Note_on_c, 2, 47, 88
6, 20620, Note_off_c, 2, 47, 0
6, 20640, Note_on_c, 2, 47, 88
6, 20874, Note_off_c, 2, 47, 0
6, 20880, Note_on_c, 2, 46, 88
6, 21100, Note_off_c, 2, 46, 0
6, 21120, Note_on_c, 2, 46, 88
6, 21340, Note_off_c, 2, 46, 0
6, 21360, Note_on_c, 2, 46, 88
6, 21594, Note_off_c, 2, 46, 0
6, 21600, Note_on_c, 2, 45, 88
6, 21834, Note_off_c, 2, 45, 0
6, 21840, Note_on_c, 2, 46, 88
6, 22074, Note_off_c, 2, 46, 0
6, 22080, Note_on_c, 2, 48, 88
6, 22314, Note_off_c, 2, 48, 0
6, 22320, Note_on_c, 2, 41, 88
6, 22554, Note_off_c, 2, 41, 0
6, 23280, Note_on_c, 2, 45, 88
6, 23750, Note_off_c, 2, 45, 0
6, 23760, Note_on_c, 2, 46, 88
6, 24468, Note_off_c, 2, 46, 0
6, 24480, Note_on_c, 2, 48, 88
6, 25188, Note_off_c, 2, 48, 0
6, 25200, Note_on_c, 2, 41, 88
6, 25316, Note_off_c, 2, 41, 0
6, 25320, Note_on_c, 2, 53, 88
6, 25420, Note_off_c, 2, 53, 0
6, 25440, Note_on_c, 2, 53, 88
6, 25556, Note_off_c, 2, 53, 0
6, 25560, Note_on_c, 2, 51, 88
6, 25660, Note_off_c, 2, 51, 0
6, 25680, Note_on_c, 2, 51, 88
6, 25796, Note_off_c, 2, 51, 0
6, 25800, Note_on_c, 2, 50, 88
6, 25916, Note_off_c, 2, 50, 0
6, 25920, Note_on_c, 2, 50, 88
6, 26154, Note_off_c, 2, 50, 0
6, 26160, Note_on_c, 2, 48, 88
6, 26394, Note_off_c, 2, 48, 0
6, 26400, Note_on_c, 2, 46, 88
6, 26634, Note_off_c, 2, 46, 0
6, 26640, Note_on_c, 2, 39, 88
6, 26756, Note_off_c, 2, 39, 0
6, 26760, Note_on_c, 2, 51, 88
6, 26860, Note_off_c, 2, 51, 0
6, 26880, Note_on_c, 2, 51, 88
6, 26996, Note_off_c, 2, 51, 0
6, 27000, Note_on_c, 2, 50, 88
6, 27100, Note_off_c, 2, 50, 0
6, 27120, Note_on_c, 2, 50, 88
6, 27236, Note_off_c, 2, 50, 0
6, 27240, Note_on_c, 2, 48, 88
6, 27356, Note_off_c, 2, 48, 0
6, 27360, Note_on_c, 2, 48, 88
6, 27476, Note_off_c, 2, 48, 0
6, 27480, Note_on_c, 2, 53, 88
6, 27580, Note_off_c, 2, 53, 0
6, 27600, Note_on_c, 2, 53, 88
6, 27716, Note_off_c, 2, 53, 0
6, 27720, Note_on_c, 2, 51, 88
6, 27820, Note_off_c, 2, 51, 0
6, 27840, Note_on_c, 2, 51, 88
6, 27956, Note_off_c, 2, 51, 0
6, 27960, Note_on_c, 2, 50, 88
6, 28076, Note_off_c, 2, 50, 0
6, 28080, Note_on_c, 2, 50, 88
6, 28196, Note_off_c, 2, 50, 0
6, 28200, Note_on_c, 2, 51, 88
6, 28316, Note_off_c, 2, 51, 0
6, 28320, Note_on_c, 2, 50, 88
6, 28436, Note_off_c, 2, 50, 0
6, 28440, Note_on_c, 2, 48, 88
6, 28556, Note_off_c, 2, 48, 0
6, 28560, Note_on_c, 2, 50, 88
6, 28676, Note_off_c, 2, 50, 0
6, 28680, Note_on_c, 2, 53, 88
6, 28796, Note_off_c, 2, 53, 0
6, 28800, Note_on_c, 2, 58, 88
6, 29034, Note_off_c, 2, 58, 0
6, 29040, Note_on_c, 2, 46, 88
6, 29156, Note_off_c, 2, 46, 0
6, 29160, Note_on_c, 2, 48, 88
6, 29276, Note_off_c, 2, 48, 0
6, 29280, Note_on_c, 2, 50, 88
6, 29754, Note_off_c, 2, 50, 0
6, 29760, Note_on_c, 2, 48, 88
6, 29876, Note_off_c, 2, 48, 0
6, 29880, Note_on_c, 2, 50, 88
6, 29996, Note_off_c, 2, 50, 0
6, 30000, Note_on_c, 2, 51, 88
6, 30474, Note_off_c, 2, 51, 0
6, 30480, Note_on_c, 2, 50, 88
6, 30596, Note_off_c, 2, 50, 0
6, 30600, Note_on_c, 2, 51, 88
6, 30716, Note_off_c, 2, 51, 0
6, 30720, Note_on_c, 2, 53, 88
6, 31076, Note_off_c, 2, 53, 0
6, 31080, Note_on_c, 2, 50, 88
6, 31196, Note_off_c, 2, 50, 0
6, 31200, Note_on_c, 2, 52, 88
6, 31316, Note_off_c, 2, 52, 0
6, 31320, Note_on_c, 2, 54, 88
6, 31436, Note_off_c, 2, 54, 0
6, 31440, Note_on_c, 2, 55, 88
6, 31796, Note_off_c, 2, 55, 0
6, 31800, Note_on_c, 2, 58, 88
6, 31916, Note_off_c, 2, 58, 0
6, 31920, Note_on_c, 2, 57, 88
6, 32036, Note_off_c, 2, 57, 0
6, 32040, Note_on_c, 2, 55, 88
6, 32156, Note_off_c, 2, 55, 0
6, 32160, Note_on_c, 2, 57, 88
6, 32276, Note_off_c, 2, 57, 0
6, 32280, Note_on_c, 2, 60, 88
6, 32396, Note_off_c, 2, 60, 0
6, 32400, Note_on_c, 2, 50, 88
6, 32634, Note_off_c, 2, 50, 0
6, 32640, Note_on_c, 2, 52, 88
6, 32874, Note_off_c, 2, 52, 0
6, 32880, Note_on_c, 2, 54, 88
6, 33114, Note_off_c, 2, 54, 0
6, 33120, Note_on_c, 2, 55, 88
6, 33236, Note_off_c, 2, 55, 0
6, 33240, Note_on_c, 2, 57, 88
6, 33356, Note_off_c, 2, 57, 0
6, 33360, Note_on_c, 2, 55, 88
6, 33476, Note_off_c, 2, 55, 0
6, 33480, Note_on_c, 2, 54, 88
6, 33596, Note_off_c, 2, 54, 0
6, 33600, Note_on_c, 2, 55, 88
6, 33716, Note_off_c, 2, 55, 0
6, 33720, Note_on_c, 2, 50, 88
6, 33836, Note_off_c, 2, 50, 0
6, 33840, Note_on_c, 2, 46, 88
6, 33956, Note_off_c, 2, 46, 0
6, 33960, Note_on_c, 2, 51, 88
6, 34076, Note_off_c, 2, 51, 0
6, 34080, Note_on_c, 2, 50, 88
6, 34196, Note_off_c, 2, 50, 0
6, 34200, Note_on_c, 2, 48, 88
6, 34316, Note_off_c, 2, 48, 0
6, 34320, Note_on_c, 2, 50, 88
6, 34436, Note_off_c, 2, 50, 0
6, 34440, Note_on_c, 2, 46, 88
6, 34556, Note_off_c, 2, 46, 0
6, 34560, Note_on_c, 2, 43, 88
6, 34676, Note_off_c, 2, 43, 0
6, 34680, Note_on_c, 2, 48, 88
6, 34780, Note_off_c, 2, 48, 0
6, 34800, Note_on_c, 2, 48, 88
6, 34916, Note_off_c, 2, 48, 0
6, 34920, Note_on_c, 2, 46, 88
6, 35020, Note_off_c, 2, 46, 0
6, 35040, Note_on_c, 2, 46, 88
6, 35156, Note_off_c, 2, 46, 0
6, 35160, Note_on_c, 2, 45, 88
6, 35276, Note_off_c, 2, 45, 0
6, 35280, Note_on_c, 2, 45, 88
6, 35396, Note_off_c, 2, 45, 0
6, 35400, Note_on_c, 2, 50, 88
6, 35500, Note_off_c, 2, 50, 0
6, 35520, Note_on_c, 2, 50, 88
6, 35636, Note_off_c, 2, 50, 0
6, 35640, Note_on_c, 2, 48, 88
6, 35740, Note_off_c, 2, 48, 0
6, 35760, Note_on_c, 2, 48, 88
6, 35876, Note_off_c, 2, 48, 0
6, 35880, Note_on_c, 2, 46, 88
6, 35996, Note_off_c, 2, 46, 0
6, 36000, Note_on_c, 2, 46, 88
6, 36470, Note_off_c, 2, 46, 0
6, 36480, Note_on_c, 2, 47, 88
6, 36714, Note_off_c, 2, 47, 0
6, 36720, Note_on_c, 2, 48, 88
6, 36954, Note_off_c, 2, 48, 0
6, 36960, Note_on_c, 2, 60, 88
6, 37194, Note_off_c, 2, 60, 0
6, 37200, Note_on_c, 2, 58, 88
6, 37434, Note_off_c, 2, 58, 0
6, 37440, Note_on_c, 2, 56, 88
6, 37674, Note_off_c, 2, 56, 0
6, 37680, Note_on_c, 2, 58, 88
6, 37914, Note_off_c, 2, 58, 0
6, 37920, Note_on_c, 2, 46, 88
6, 38154, Note_off_c, 2, 46, 0
6, 38160, Note_on_c, 2, 51, 88
6, 38996, Note_off_c, 2, 51, 0
6, 39000, Note_on_c, 2, 56, 88
6, 39116, Note_off_c, 2, 56, 0
6, 39120, Note_on_c, 2, 55, 88
6, 39236, Note_off_c, 2, 55, 0
6, 39240, Note_on_c, 2, 53, 88
6, 39356, Note_off_c, 2, 53, 0
6, 39360, Note_on_c, 2, 55, 88
6, 39476, Note_off_c, 2, 55, 0
6, 39480, Note_on_c, 2, 51, 88
6, 39596, Note_off_c, 2, 51, 0
6, 39600, Note_on_c, 2, 48, 88
6, 39953, Note_off_c, 2, 48, 0
6, 39960, Note_on_c, 2, 50, 88
6, 40076, Note_off_c, 2, 50, 0
6, 40080, Note_on_c, 2, 51, 88
6, 40554, Note_off_c, 2, 51, 0
6, 40560, Note_on_c, 2, 50, 88
6, 40676, Note_off_c, 2, 50, 0
6, 40680, Note_on_c, 2, 51, 88
6, 40796, Note_off_c, 2, 51, 0
6, 40800, Note_on_c, 2, 53, 88
6, 41274, Note_off_c, 2, 53, 0
6, 41280, Note_on_c, 2, 52, 88
6, 41396, Note_off_c, 2, 52, 0
6, 41400, Note_on_c, 2, 53, 88
6, 41516, Note_off_c, 2, 53, 0
6, 41520, Note_on_c, 2, 55, 88
6, 41876, Note_off_c, 2, 55, 0
6, 41880, Note_on_c, 2, 53, 88
6, 41980, Note_off_c, 2, 53, 0
6, 42000, Note_on_c, 2, 53, 88
6, 42116, Note_off_c, 2, 53, 0
6, 42120, Note_on_c, 2, 51, 88
6, 42220, Note_off_c, 2, 51, 0
6, 42240, Note_on_c, 2, 51, 88
6, 42356, Note_off_c, 2, 51, 0
6, 42360, Note_on_c, 2, 50, 88
6, 42476, Note_off_c, 2, 50, 0
6, 42480, Note_on_c, 2, 50, 88
6, 42714, Note_off_c, 2, 50, 0
6, 42720, Note_on_c, 2, 55, 88
6, 42954, Note_off_c, 2, 55, 0
6, 42960, Note_on_c, 2, 43, 88
6, 43194, Note_off_c, 2, 43, 0
6, 43200, Note_on_c, 2, 48, 88
6, 43316, Note_off_c, 2, 48, 0
6, 43320, Note_on_c, 2, 46, 88
6, 43420, Note_off_c, 2, 46, 0
6, 43440, Note_on_c, 2, 46, 88
6, 43556, Note_off_c, 2, 46, 0
6, 43560, Note_on_c, 2, 44, 88
6, 43660, Note_off_c, 2, 44, 0
6, 43680, Note_on_c, 2, 44, 88
6, 43796, Note_off_c, 2, 44, 0
6, 43800, Note_on_c, 2, 43, 88
6, 43916, Note_off_c, 2, 43, 0
6, 43920, Note_on_c, 2, 43, 88
6, 44154, Note_off_c, 2, 43, 0
6, 44160, Note_on_c, 2, 47, 88
6, 44394, Note_off_c, 2, 47, 0
6, 44400, Note_on_c, 2, 43, 88
6, 44634, Note_off_c, 2, 43, 0
6, 44640, Note_on_c, 2, 48, 88
6, 45476, Note_off_c, 2, 48, 0
6, 45480, Note_on_c, 2, 50, 88
6, 45596, Note_off_c, 2, 50, 0
6, 45600, Note_on_c, 2, 51, 88
6, 46070, Note_off_c, 2, 51, 0
6, 46080, Note_on_c, 2, 53, 88
6, 46788, Note_off_c, 2, 53, 0
6, 46800, Note_on_c, 2, 55, 88
6, 47508, Note_off_c, 2, 55, 0
6, 47520, Note_on_c, 2, 48, 88
6, 47754, Note_off_c, 2, 48, 0
6, 47760, Note_on_c, 2, 51, 88
6, 47994, Note_off_c, 2, 51, 0
6, 48000, Note_on_c, 2, 48, 88
6, 48234, Note_off_c, 2, 48, 0
6, 48240, Note_on_c, 2, 53, 88
6, 48474, Note_off_c, 2, 53, 0
6, 48480, Note_on_c, 2, 57, 88
6, 48714, Note_off_c, 2, 57, 0
6, 48720, Note_on_c, 2, 53, 88
6, 48954, Note_off_c, 2, 53, 0
6, 48960, Note_on_c, 2, 46, 88
6, 49076, Note_off_c, 2, 46, 0
6, 49080, Note_on_c, 2, 60, 88
6, 49196, Note_off_c, 2, 60, 0
6, 49200, Note_on_c, 2, 58, 88
6, 49316, Note_off_c, 2, 58, 0
6, 49320, Note_on_c, 2, 57, 88
6, 49436, Note_off_c, 2, 57, 0
6, 49440, Note_on_c, 2, 58, 88
6, 49556, Note_off_c, 2, 58, 0
6, 49560, Note_on_c, 2, 55, 88
6, 49676, Note_off_c, 2, 55, 0
6, 49680, Note_on_c, 2, 52, 88
6, 49796, Note_off_c, 2, 52, 0
6, 49800, Note_on_c, 2, 57, 88
6, 49900, Note_off_c, 2, 57, 0
6, 49920, Note_on_c, 2, 57, 88
6, 50036, Note_off_c, 2, 57, 0
6, 50040, Note_on_c, 2, 55, 88
6, 50140, Note_off_c, 2, 55, 0
6, 50160, Note_on_c, 2, 55, 88
6, 50276, Note_off_c, 2, 55, 0
6, 50280, Note_on_c, 2, 54, 88
6, 50396, Note_off_c, 2, 54, 0
6, 50400, Note_on_c, 2, 54, 88
6, 50516, Note_off_c, 2, 54, 0
6, 50520, Note_on_c, 2, 57, 88
6, 50636, Note_off_c, 2, 57, 0
6, 50640, Note_on_c, 2, 55, 88
6, 50756, Note_off_c, 2, 55, 0
6, 50760, Note_on_c, 2, 54, 88
6, 50876, Note_off_c, 2, 54, 0
6, 50880, Note_on_c, 2, 55, 88
6, 50996, Note_off_c, 2, 55, 0
6, 51000, Note_on_c, 2, 51, 88
6, 51116, Note_off_c, 2, 51, 0
6, 51120, Note_on_c, 2, 48, 88
6, 51236, Note_off_c, 2, 48, 0
6, 51240, Note_on_c, 2, 53, 88
6, 51340, Note_off_c, 2, 53, 0
6, 51360, Note_on_c, 2, 53, 88
6, 51476, Note_off_c, 2, 53, 0
6, 51480, Note_on_c, 2, 51, 88
6, 51580, Note_off_c, 2, 51, 0
6, 51600, Note_on_c, 2, 51, 88
6, 51716, Note_off_c, 2, 51, 0
6, 51720, Note_on_c, 2, 50, 88
6, 51836, Note_off_c, 2, 50, 0
6, 51840, Note_on_c, 2, 50, 88
6, 51956, Note_off_c, 2, 50, 0
6, 51960, Note_on_c, 2, 53, 88
6, 52076, Note_off_c, 2, 53, 0
6, 52080, Note_on_c, 2, 51, 88
6, 52196, Note_off_c, 2, 51, 0
6, 52200, Note_on_c, 2, 50, 88
6, 52316, Note_off_c, 2, 50, 0
6, 52320, Note_on_c, 2, 51, 88
6, 52436, Note_off_c, 2, 51, 0
6, 52440, Note_on_c, 2, 48, 88
6, 52556, Note_off_c, 2, 48, 0
6, 52560, Note_on_c, 2, 45, 88
6, 52676, Note_off_c, 2, 45, 0
6, 52680, Note_on_c, 2, 50, 88
6, 52780, Note_off_c, 2, 50, 0
6, 52800, Note_on_c, 2, 50, 88
6, 52916, Note_off_c, 2, 50, 0
6, 52920, Note_on_c, 2, 48, 88
6, 53020, Note_off_c, 2, 48, 0
6, 53040, Note_on_c, 2, 48, 88
6, 53156, Note_off_c, 2, 48, 0
6, 53160, Note_on_c, 2, 46, 88
6, 53276, Note_off_c, 2, 46, 0
6, 53280, Note_on_c, 2, 46, 88
6, 53396, Note_off_c, 2, 46, 0
6, 53400, Note_on_c, 2, 48, 88
6, 53500, Note_off_c, 2, 48, 0
6, 53520, Note_on_c, 2, 48, 88
6, 53636, Note_off_c, 2, 48, 0
6, 53640, Note_on_c, 2, 46, 88
6, 53740, Note_off_c, 2, 46, 0
6, 53760, Note_on_c, 2, 46, 88
6, 53876, Note_off_c, 2, 46, 0
6, 53880, Note_on_c, 2, 45, 88
6, 53996, Note_off_c, 2, 45, 0
6, 54000, Note_on_c, 2, 45, 88
6, 54708, Note_off_c, 2, 45, 0
6, 54720, Note_on_c, 2, 46, 88
6, 54954, Note_off_c, 2, 46, 0
6, 54960, Note_on_c, 2, 43, 88
6, 55194, Note_off_c, 2, 43, 0
6, 55200, Note_on_c, 2, 48, 88
6, 55434, Note_off_c, 2, 48, 0
6, 55440, Note_on_c, 2, 41, 88
6, 55793, Note_off_c, 2, 41, 0
6, 55800, Note_on_c, 2, 43, 88
6, 55916, Note_off_c, 2, 43, 0
6, 55920, Note_on_c, 2, 45, 88
6, 56036, Note_off_c, 2, 45, 0
6, 56040, Note_on_c, 2, 46, 88
6, 56156, Note_off_c, 2, 46, 0
6, 56160, Note_on_c, 2, 48, 88
6, 56276, Note_off_c, 2, 48, 0
6, 56280, Note_on_c, 2, 50, 88
6, 56396, Note_off_c, 2, 50, 0
6, 56400, Note_on_c, 2, 51, 88
6, 56516, Note_off_c, 2, 51, 0
6, 56520, Note_on_c, 2, 50, 88
6, 56636, Note_off_c, 2, 50, 0
6, 56640, Note_on_c, 2, 51, 88
6, 56756, Note_off_c, 2, 51, 0
6, 56760, Note_on_c, 2, 48, 88
6, 56876, Note_off_c, 2, 48, 0
6, 56880, Note_on_c, 2, 50, 88
6, 57588, Note_off_c, 2, 50, 0
6, 57600, Note_on_c, 2, 51, 88
6, 58308, Note_off_c, 2, 51, 0
6, 58320, Note_on_c, 2, 53, 88
6, 59028, Note_off_c, 2, 53, 0
6, 59040, Note_on_c, 2, 46, 88
6, 59748, Note_off_c, 2, 46, 0
6, 59760, Note_on_c, 2, 48, 88
6, 60468, Note_off_c, 2, 48, 0
6, 60480, Note_on_c, 2, 50, 88
6, 61188, Note_off_c, 2, 50, 0
6, 61200, Note_on_c, 2, 43, 88
6, 61316, Note_off_c, 2, 43, 0
6, 61320, Note_on_c, 2, 57, 88
6, 61436, Note_off_c, 2, 57, 0
6, 61440, Note_on_c, 2, 55, 88
6, 61556, Note_off_c, 2, 55, 0
6, 61560, Note_on_c, 2, 54, 88
6, 61676, Note_off_c, 2, 54, 0
6, 61680, Note_on_c, 2, 55, 88
6, 61796, Note_off_c, 2, 55, 0
6, 61800, Note_on_c, 2, 51, 88
6, 61916, Note_off_c, 2, 51, 0
6, 61920, Note_on_c, 2, 48, 88
6, 62036, Note_off_c, 2, 48, 0
6, 62040, Note_on_c, 2, 50, 88
6, 62156, Note_off_c, 2, 50, 0
6, 62160, Note_on_c, 2, 48, 88
6, 62276, Note_off_c, 2, 48, 0
6, 62280, Note_on_c, 2, 46, 88
6, 62396, Note_off_c, 2, 46, 0
6, 62400, Note_on_c, 2, 48, 88
6, 62516, Note_off_c, 2, 48, 0
6, 62520, Note_on_c, 2, 45, 88
6, 62636, Note_off_c, 2, 45, 0
6, 62640, Note_on_c, 2, 41, 88
6, 62756, Note_off_c, 2, 41, 0
6, 62760, Note_on_c, 2, 55, 88
6, 62876, Note_off_c, 2, 55, 0
6, 62880, Note_on_c, 2, 53, 88
6, 62996, Note_off_c, 2, 53, 0
6, 63000, Note_on_c, 2, 51, 88
6, 63116, Note_off_c, 2, 51, 0
6, 63120, Note_on_c, 2, 53, 88
6, 63236, Note_off_c, 2, 53, 0
6, 63240, Note_on_c, 2, 50, 88
6, 63356, Note_off_c, 2, 50, 0
6, 63360, Note_on_c, 2, 46, 88
6, 63476, Note_off_c, 2, 46, 0
6, 63480, Note_on_c, 2, 48, 88
6, 63596, Note_off_c, 2, 48, 0
6, 63600, Note_on_c, 2, 46, 88
6, 63716, Note_off_c, 2, 46, 0
6, 63720, Note_on_c, 2, 45, 88
6, 63836, Note_off_c, 2, 45, 0
6, 63840, Note_on_c, 2, 46, 88
6, 63956, Note_off_c, 2, 46, 0
6, 63960, Note_on_c, 2, 43, 88
6, 64076, Note_off_c, 2, 43, 0
6, 64080, Note_on_c, 2, 40, 88
6, 64300, Note_off_c, 2, 40, 0
6, 64320, Note_on_c, 2, 40, 88
6, 64540, Note_off_c, 2, 40, 0
6, 64560, Note_on_c, 2, 40, 88
6, 64794, Note_off_c, 2, 40, 0
6, 64800, Note_on_c, 2, 39, 88
6, 65020, Note_off_c, 2, 39, 0
6, 65040, Note_on_c, 2, 39, 88
6, 65260, Note_off_c, 2, 39, 0
6, 65280, Note_on_c, 2, 39, 88
6, 65514, Note_off_c, 2, 39, 0
6, 65520, Note_on_c, 2, 38, 88
6, 65754, Note_off_c, 2, 38, 0
6, 65760, Note_on_c, 2, 39, 88
6, 65994, Note_off_c, 2, 39, 0
6, 66000, Note_on_c, 2, 41, 88
6, 66234, Note_off_c, 2, 41, 0
6, 66240, Note_on_c, 2, 46, 88
6, 66948, Note_off_c, 2, 46, 0
6, 66948, End_track
0, 0, End_of_file
