0, 0, Header, 1, 7, 240
1, 0, Start_track
1, 0, Time_signature, 3, 1, 24, 8
1, 0, Tempo, 483870
1, 0, SMPTE_offset, 64, 0, 0, 0, 93
1, 0, End_track
2, 0, Start_track
2, 0, Title_t, "(C) & (P) 1993"
2, 127, End_track
3, 0, Start_track
3, 0, Title_t, "CCARH,Stanford"
3, 0, End_track
4, 0, Start_track
4, 0, Title_t, "Track 1"
4, 0, Program_c, 0, 6
4, 5760, Note_on_c, 0, 65, 88
4, 6230, Note_off_c, 0, 65, 0
4, 6240, Note_on_c, 0, 67, 88
4, 6710, Note_off_c, 0, 67, 0
4, 6960, Note_on_c, 0, 68, 88
4, 7194, Note_off_c, 0, 68, 0
4, 7200, Note_on_c, 0, 70, 88
4, 7434, Note_off_c, 0, 70, 0
4, 7440, Note_on_c, 0, 64, 88
4, 7674, Note_off_c, 0, 64, 0
4, 7680, Note_on_c, 0, 65, 88
4, 8150, Note_off_c, 0, 65, 0
4, 8400, Note_on_c, 0, 67, 88
4, 8634, Note_off_c, 0, 67, 0
4, 8640, Note_on_c, 0, 68, 88
4, 8756, Note_off_c, 0, 68, 0
4, 8760, Note_on_c, 0, 65, 88
4, 8876, Note_off_c, 0, 65, 0
4, 8880, Note_on_c, 0, 67, 88
4, 8996, Note_off_c, 0, 67, 0
4, 9000, Note_on_c, 0, 68, 88
4, 9116, Note_off_c, 0, 68, 0
4, 9120, Note_on_c, 0, 70, 88
4, 9236, Note_off_c, 0, 70, 0
4, 9240, Note_on_c, 0, 67, 88
4, 9356, Note_off_c, 0, 67, 0
4, 9360, Note_on_c, 0, 68, 88
4, 9476, Note_off_c, 0, 68, 0
4, 9480, Note_on_c, 0, 70, 88
4, 9596, Note_off_c, 0, 70, 0
4, 9600, Note_on_c, 0, 72, 88
4, 9716, Note_off_c, 0, 72, 0
4, 9720, Note_on_c, 0, 68, 88
4, 9836, Note_off_c, 0, 68, 0
4, 9840, Note_on_c, 0, 70, 88
4, 9956, Note_off_c, 0, 70, 0
4, 9960, Note_on_c, 0, 72, 88
4, 10076, Note_off_c, 0, 72, 0
4, 10080, Note_on_c, 0, 73, 88
4, 10196, Note_off_c, 0, 73, 0
4, 10200, Note_on_c, 0, 70, 88
4, 10316, Note_off_c, 0, 70, 0
4, 10320, Note_on_c, 0, 72, 88
4, 10554, Note_off_c, 0, 72, 0
4, 10800, Note_on_c, 0, 73, 88
4, 11034, Note_off_c, 0, 73, 0
4, 11040, Note_on_c, 0, 67, 88
4, 11274, Note_off_c, 0, 67, 0
4, 11280, Note_on_c, 0, 69, 88
4, 11396, Note_off_c, 0, 69, 0
4, 11400, Note_on_c, 0, 70, 88
4, 11516, Note_off_c, 0, 70, 0
4, 11520, Note_on_c, 0, 69, 88
4, 11754, Note_off_c, 0, 69, 0
4, 11760, Note_on_c, 0, 77, 88
4, 11994, Note_off_c, 0, 77, 0
4, 12240, Note_on_c, 0, 70, 88
4, 12474, Note_off_c, 0, 70, 0
4, 12480, Note_on_c, 0, 65, 88
4, 12714, Note_off_c, 0, 65, 0
4, 12720, Note_on_c, 0, 67, 88
4, 12836, Note_off_c, 0, 67, 0
4, 12840, Note_on_c, 0, 68, 88
4, 12956, Note_off_c, 0, 68, 0
4, 12960, Note_on_c, 0, 67, 88
4, 13194, Note_off_c, 0, 67, 0
4, 13200, Note_on_c, 0, 75, 88
4, 13670, Note_off_c, 0, 75, 0
4, 13680, Note_on_c, 0, 69, 88
4, 14150, Note_off_c, 0, 69, 0
4, 14160, Note_on_c, 0, 70, 88
4, 14276, Note_off_c, 0, 70, 0
4, 14280, Note_on_c, 0, 72, 88
4, 14396, Note_off_c, 0, 72, 0
4, 14400, Note_on_c, 0, 65, 88
4, 14634, Note_off_c, 0, 65, 0
4, 14640, Note_on_c, 0, 70, 88
4, 15110, Note_off_c, 0, 70, 0
4, 15120, Note_on_c, 0, 69, 88
4, 15236, Note_off_c, 0, 69, 0
4, 15240, Note_on_c, 0, 67, 88
4, 15356, Note_off_c, 0, 67, 0
4, 15360, Note_on_c, 0, 69, 88
4, 15594, Note_off_c, 0, 69, 0
4, 15600, Note_on_c, 0, 70, 88
4, 15834, Note_off_c, 0, 70, 0
4, 15840, Note_on_c, 0, 72, 88
4, 15956, Note_off_c, 0, 72, 0
4, 15960, Note_on_c, 0, 73, 88
4, 16076, Note_off_c, 0, 73, 0
4, 16080, Note_on_c, 0, 75, 88
4, 16550, Note_off_c, 0, 75, 0
4, 16560, Note_on_c, 0, 73, 88
4, 16794, Note_off_c, 0, 73, 0
4, 16800, Note_on_c, 0, 72, 88
4, 16916, Note_off_c, 0, 72, 0
4, 16920, Note_on_c, 0, 75, 88
4, 17036, Note_off_c, 0, 75, 0
4, 17040, Note_on_c, 0, 78, 88
4, 17274, Note_off_c, 0, 78, 0
4, 17280, Note_on_c, 0, 77, 88
4, 17514, Note_off_c, 0, 77, 0
4, 17760, Note_on_c, 0, 72, 88
4, 17994, Note_off_c, 0, 72, 0
4, 18240, Note_on_c, 0, 73, 88
4, 18474, Note_off_c, 0, 73, 0
4, 18720, Note_on_c, 0, 75, 88
4, 19310, Note_off_c, 0, 75, 0
4, 19320, Note_on_c, 0, 73, 88
4, 19436, Note_off_c, 0, 73, 0
4, 19440, Note_on_c, 0, 72, 88
4, 19556, Note_off_c, 0, 72, 0
4, 19560, Note_on_c, 0, 73, 88
4, 19676, Note_off_c, 0, 73, 0
4, 19680, Note_on_c, 0, 75, 88
4, 19914, Note_off_c, 0, 75, 0
4, 19920, Note_on_c, 0, 72, 88
4, 20154, Note_off_c, 0, 72, 0
4, 20160, Note_on_c, 0, 77, 88
4, 20394, Note_off_c, 0, 77, 0
4, 20400, Note_on_c, 0, 74, 88
4, 20634, Note_off_c, 0, 74, 0
4, 20640, Note_on_c, 0, 70, 88
4, 20756, Note_off_c, 0, 70, 0
4, 20760, Note_on_c, 0, 68, 88
4, 20876, Note_off_c, 0, 68, 0
4, 20880, Note_on_c, 0, 70, 88
4, 20996, Note_off_c, 0, 70, 0
4, 21000, Note_on_c, 0, 72, 88
4, 21116, Note_off_c, 0, 72, 0
4, 21120, Note_on_c, 0, 73, 88
4, 21354, Note_off_c, 0, 73, 0
4, 21360, Note_on_c, 0, 70, 88
4, 21594, Note_off_c, 0, 70, 0
4, 21600, Note_on_c, 0, 75, 88
4, 21834, Note_off_c, 0, 75, 0
4, 21840, Note_on_c, 0, 72, 88
4, 22074, Note_off_c, 0, 72, 0
4, 22080, Note_on_c, 0, 68, 88
4, 22314, Note_off_c, 0, 68, 0
4, 22320, Note_on_c, 0, 73, 88
4, 22554, Note_off_c, 0, 73, 0
4, 22560, Note_on_c, 0, 72, 88
4, 22794, Note_off_c, 0, 72, 0
4, 22800, Note_on_c, 0, 64, 88
4, 23034, Note_off_c, 0, 64, 0
4, 23040, Note_on_c, 0, 65, 88
4, 23748, Note_off_c, 0, 65, 0
4, 23760, Note_on_c, 0, 64, 88
4, 23876, Note_off_c, 0, 64, 0
4, 23880, Note_on_c, 0, 62, 88
4, 23996, Note_off_c, 0, 62, 0
4, 24000, Note_on_c, 0, 64, 88
4, 24234, Note_off_c, 0, 64, 0
4, 24240, Note_on_c, 0, 72, 88
4, 24474, Note_off_c, 0, 72, 0
4, 24480, Note_on_c, 0, 73, 88
4, 24714, Note_off_c, 0, 73, 0
4, 24720, Note_on_c, 0, 72, 88
4, 25190, Note_off_c, 0, 72, 0
4, 25200, Note_on_c, 0, 71, 88
4, 25434, Note_off_c, 0, 71, 0
4, 25440, Note_on_c, 0, 72, 88
4, 26154, Note_off_c, 0, 72, 0
4, 26400, Note_on_c, 0, 76, 88
4, 26634, Note_off_c, 0, 76, 0
4, 26880, Note_on_c, 0, 77, 88
4, 27114, Note_off_c, 0, 77, 0
4, 27360, Note_on_c, 0, 79, 88
4, 29034, Note_off_c, 0, 79, 0
4, 29040, Note_on_c, 0, 77, 88
4, 29156, Note_off_c, 0, 77, 0
4, 29160, Note_on_c, 0, 76, 88
4, 29276, Note_off_c, 0, 76, 0
4, 29280, Note_on_c, 0, 77, 88
4, 31914, Note_off_c, 0, 77, 0
4, 31920, Note_on_c, 0, 79, 88
4, 32036, Note_off_c, 0, 79, 0
4, 32040, Note_on_c, 0, 77, 88
4, 32156, Note_off_c, 0, 77, 0
4, 32160, Note_on_c, 0, 75, 88
4, 34794, Note_off_c, 0, 75, 0
4, 34800, Note_on_c, 0, 73, 88
4, 34916, Note_off_c, 0, 73, 0
4, 34920, Note_on_c, 0, 72, 88
4, 35036, Note_off_c, 0, 72, 0
4, 35040, Note_on_c, 0, 73, 88
4, 35274, Note_off_c, 0, 73, 0
4, 35280, Note_on_c, 0, 77, 88
4, 35514, Note_off_c, 0, 77, 0
4, 35520, Note_on_c, 0, 70, 88
4, 35754, Note_off_c, 0, 70, 0
4, 35760, Note_on_c, 0, 73, 88
4, 36234, Note_off_c, 0, 73, 0
4, 36240, Note_on_c, 0, 72, 88
4, 36356, Note_off_c, 0, 72, 0
4, 36360, Note_on_c, 0, 73, 88
4, 36476, Note_off_c, 0, 73, 0
4, 36480, Note_on_c, 0, 75, 88
4, 36714, Note_off_c, 0, 75, 0
4, 36720, Note_on_c, 0, 72, 88
4, 36954, Note_off_c, 0, 72, 0
4, 36960, Note_on_c, 0, 69, 88
4, 37194, Note_off_c, 0, 69, 0
4, 37200, Note_on_c, 0, 72, 88
4, 37674, Note_off_c, 0, 72, 0
4, 37680, Note_on_c, 0, 70, 88
4, 37914, Note_off_c, 0, 70, 0
4, 38160, Note_on_c, 0, 78, 88
4, 38513, Note_off_c, 0, 78, 0
4, 38520, Note_on_c, 0, 77, 88
4, 38636, Note_off_c, 0, 77, 0
4, 38640, Note_on_c, 0, 75, 88
4, 38756, Note_off_c, 0, 75, 0
4, 38760, Note_on_c, 0, 73, 88
4, 38876, Note_off_c, 0, 73, 0
4, 38880, Note_on_c, 0, 72, 88
4, 38996, Note_off_c, 0, 72, 0
4, 39000, Note_on_c, 0, 73, 88
4, 39116, Note_off_c, 0, 73, 0
4, 39120, Note_on_c, 0, 75, 88
4, 39354, Note_off_c, 0, 75, 0
4, 39600, Note_on_c, 0, 82, 88
4, 39834, Note_off_c, 0, 82, 0
4, 39840, Note_on_c, 0, 84, 88
4, 40074, Note_off_c, 0, 84, 0
4, 40080, Note_on_c, 0, 75, 88
4, 40554, Note_off_c, 0, 75, 0
4, 40560, Note_on_c, 0, 73, 88
4, 40794, Note_off_c, 0, 73, 0
4, 40800, Note_on_c, 0, 78, 88
4, 41034, Note_off_c, 0, 78, 0
4, 41280, Note_on_c, 0, 77, 88
4, 41514, Note_off_c, 0, 77, 0
4, 41760, Note_on_c, 0, 82, 88
4, 41994, Note_off_c, 0, 82, 0
4, 42240, Note_on_c, 0, 81, 88
4, 43185, Note_off_c, 0, 81, 0
4, 43200, Note_on_c, 0, 82, 88
4, 43434, Note_off_c, 0, 82, 0
4, 46080, Note_on_c, 0, 73, 88
4, 46550, Note_off_c, 0, 73, 0
4, 46560, Note_on_c, 0, 75, 88
4, 47030, Note_off_c, 0, 75, 0
4, 47280, Note_on_c, 0, 77, 88
4, 47514, Note_off_c, 0, 77, 0
4, 47520, Note_on_c, 0, 78, 88
4, 47754, Note_off_c, 0, 78, 0
4, 47760, Note_on_c, 0, 72, 88
4, 47994, Note_off_c, 0, 72, 0
4, 48000, Note_on_c, 0, 73, 88
4, 48470, Note_off_c, 0, 73, 0
4, 48720, Note_on_c, 0, 75, 88
4, 48954, Note_off_c, 0, 75, 0
4, 48960, Note_on_c, 0, 77, 88
4, 49076, Note_off_c, 0, 77, 0
4, 49080, Note_on_c, 0, 73, 88
4, 49196, Note_off_c, 0, 73, 0
4, 49200, Note_on_c, 0, 75, 88
4, 49316, Note_off_c, 0, 75, 0
4, 49320, Note_on_c, 0, 77, 88
4, 49436, Note_off_c, 0, 77, 0
4, 49440, Note_on_c, 0, 78, 88
4, 49556, Note_off_c, 0, 78, 0
4, 49560, Note_on_c, 0, 75, 88
4, 49676, Note_off_c, 0, 75, 0
4, 49680, Note_on_c, 0, 77, 88
4, 49796, Note_off_c, 0, 77, 0
4, 49800, Note_on_c, 0, 78, 88
4, 49916, Note_off_c, 0, 78, 0
4, 49920, Note_on_c, 0, 80, 88
4, 50036, Note_off_c, 0, 80, 0
4, 50040, Note_on_c, 0, 77, 88
4, 50156, Note_off_c, 0, 77, 0
4, 50160, Note_on_c, 0, 78, 88
4, 50276, Note_off_c, 0, 78, 0
4, 50280, Note_on_c, 0, 80, 88
4, 50396, Note_off_c, 0, 80, 0
4, 50400, Note_on_c, 0, 82, 88
4, 50516, Note_off_c, 0, 82, 0
4, 50520, Note_on_c, 0, 78, 88
4, 50636, Note_off_c, 0, 78, 0
4, 50640, Note_on_c, 0, 80, 88
4, 50874, Note_off_c, 0, 80, 0
4, 51120, Note_on_c, 0, 82, 88
4, 51354, Note_off_c, 0, 82, 0
4, 51360, Note_on_c, 0, 75, 88
4, 51594, Note_off_c, 0, 75, 0
4, 51600, Note_on_c, 0, 77, 88
4, 51716, Note_off_c, 0, 77, 0
4, 51720, Note_on_c, 0, 78, 88
4, 51836, Note_off_c, 0, 78, 0
4, 51840, Note_on_c, 0, 77, 88
4, 52074, Note_off_c, 0, 77, 0
4, 52320, Note_on_c, 0, 78, 88
4, 52554, Note_off_c, 0, 78, 0
4, 52800, Note_on_c, 0, 80, 88
4, 53034, Note_off_c, 0, 80, 0
4, 53520, Note_on_c, 0, 78, 88
4, 53754, Note_off_c, 0, 78, 0
4, 53760, Note_on_c, 0, 77, 88
4, 53994, Note_off_c, 0, 77, 0
4, 54000, Note_on_c, 0, 76, 88
4, 54470, Note_off_c, 0, 76, 0
4, 54480, Note_on_c, 0, 75, 88
4, 54596, Note_off_c, 0, 75, 0
4, 54600, Note_on_c, 0, 73, 88
4, 54716, Note_off_c, 0, 73, 0
4, 54720, Note_on_c, 0, 75, 88
4, 54954, Note_off_c, 0, 75, 0
4, 54960, Note_on_c, 0, 77, 88
4, 55076, Note_off_c, 0, 77, 0
4, 55080, Note_on_c, 0, 78, 88
4, 55196, Note_off_c, 0, 78, 0
4, 55200, Note_on_c, 0, 77, 88
4, 55434, Note_off_c, 0, 77, 0
4, 55440, Note_on_c, 0, 79, 88
4, 55556, Note_off_c, 0, 79, 0
4, 55560, Note_on_c, 0, 80, 88
4, 55676, Note_off_c, 0, 80, 0
4, 55680, Note_on_c, 0, 79, 88
4, 56150, Note_off_c, 0, 79, 0
4, 56160, Note_on_c, 0, 80, 88
4, 56394, Note_off_c, 0, 80, 0
4, 57840, Note_on_c, 0, 77, 88
4, 58074, Note_off_c, 0, 77, 0
4, 58080, Note_on_c, 0, 76, 88
4, 58314, Note_off_c, 0, 76, 0
4, 58320, Note_on_c, 0, 75, 88
4, 58790, Note_off_c, 0, 75, 0
4, 58800, Note_on_c, 0, 73, 88
4, 58916, Note_off_c, 0, 73, 0
4, 58920, Note_on_c, 0, 72, 88
4, 59036, Note_off_c, 0, 72, 0
4, 59040, Note_on_c, 0, 73, 88
4, 59274, Note_off_c, 0, 73, 0
4, 59280, Note_on_c, 0, 82, 88
4, 59514, Note_off_c, 0, 82, 0
4, 59520, Note_on_c, 0, 81, 88
4, 59754, Note_off_c, 0, 81, 0
4, 59760, Note_on_c, 0, 80, 88
4, 59994, Note_off_c, 0, 80, 0
4, 60000, Note_on_c, 0, 78, 88
4, 60116, Note_off_c, 0, 78, 0
4, 60120, Note_on_c, 0, 75, 88
4, 60236, Note_off_c, 0, 75, 0
4, 60240, Note_on_c, 0, 77, 88
4, 60474, Note_off_c, 0, 77, 0
4, 60480, Note_on_c, 0, 78, 88
4, 60714, Note_off_c, 0, 78, 0
4, 60720, Note_on_c, 0, 72, 88
4, 60954, Note_off_c, 0, 72, 0
4, 60960, Note_on_c, 0, 73, 88
4, 61194, Note_off_c, 0, 73, 0
4, 61200, Note_on_c, 0, 74, 88
4, 61434, Note_off_c, 0, 74, 0
4, 61440, Note_on_c, 0, 75, 88
4, 61674, Note_off_c, 0, 75, 0
4, 61680, Note_on_c, 0, 72, 88
4, 61914, Note_off_c, 0, 72, 0
4, 61920, Note_on_c, 0, 73, 88
4, 62154, Note_off_c, 0, 73, 0
4, 62400, Note_on_c, 0, 69, 88
4, 62634, Note_off_c, 0, 69, 0
4, 62880, Note_on_c, 0, 70, 88
4, 63114, Note_off_c, 0, 70, 0
4, 63360, Note_on_c, 0, 75, 88
4, 63594, Note_off_c, 0, 75, 0
4, 63600, Note_on_c, 0, 73, 88
4, 63953, Note_off_c, 0, 73, 0
4, 63960, Note_on_c, 0, 72, 88
4, 64076, Note_off_c, 0, 72, 0
4, 64080, Note_on_c, 0, 73, 88
4, 64196, Note_off_c, 0, 73, 0
4, 64200, Note_on_c, 0, 75, 88
4, 64316, Note_off_c, 0, 75, 0
4, 64320, Note_on_c, 0, 69, 88
4, 64790, Note_off_c, 0, 69, 0
4, 64800, Note_on_c, 0, 70, 88
4, 65270, Note_off_c, 0, 70, 0
4, 73440, Note_on_c, 0, 73, 88
4, 73910, Note_off_c, 0, 73, 0
4, 73920, Note_on_c, 0, 72, 88
4, 74390, Note_off_c, 0, 72, 0
4, 74640, Note_on_c, 0, 70, 88
4, 74874, Note_off_c, 0, 70, 0
4, 74880, Note_on_c, 0, 69, 88
4, 75114, Note_off_c, 0, 69, 0
4, 75120, Note_on_c, 0, 75, 88
4, 75354, Note_off_c, 0, 75, 0
4, 75360, Note_on_c, 0, 73, 88
4, 75830, Note_off_c, 0, 73, 0
4, 76080, Note_on_c, 0, 71, 88
4, 76314, Note_off_c, 0, 71, 0
4, 76320, Note_on_c, 0, 70, 88
4, 76436, Note_off_c, 0, 70, 0
4, 76440, Note_on_c, 0, 73, 88
4, 76556, Note_off_c, 0, 73, 0
4, 76560, Note_on_c, 0, 71, 88
4, 76676, Note_off_c, 0, 71, 0
4, 76680, Note_on_c, 0, 70, 88
4, 76796, Note_off_c, 0, 70, 0
4, 76800, Note_on_c, 0, 68, 88
4, 76916, Note_off_c, 0, 68, 0
4, 76920, Note_on_c, 0, 71, 88
4, 77036, Note_off_c, 0, 71, 0
4, 77040, Note_on_c, 0, 70, 88
4, 77156, Note_off_c, 0, 70, 0
4, 77160, Note_on_c, 0, 68, 88
4, 77276, Note_off_c, 0, 68, 0
4, 77280, Note_on_c, 0, 66, 88
4, 77396, Note_off_c, 0, 66, 0
4, 77400, Note_on_c, 0, 70, 88
4, 77516, Note_off_c, 0, 70, 0
4, 77520, Note_on_c, 0, 68, 88
4, 77636, Note_off_c, 0, 68, 0
4, 77640, Note_on_c, 0, 66, 88
4, 77756, Note_off_c, 0, 66, 0
4, 77760, Note_on_c, 0, 65, 88
4, 77876, Note_off_c, 0, 65, 0
4, 77880, Note_on_c, 0, 68, 88
4, 77996, Note_off_c, 0, 68, 0
4, 78000, Note_on_c, 0, 66, 88
4, 78234, Note_off_c, 0, 66, 0
4, 78480, Note_on_c, 0, 65, 88
4, 78714, Note_off_c, 0, 65, 0
4, 78720, Note_on_c, 0, 71, 88
4, 78954, Note_off_c, 0, 71, 0
4, 78960, Note_on_c, 0, 70, 88
4, 79076, Note_off_c, 0, 70, 0
4, 79080, Note_on_c, 0, 68, 88
4, 79196, Note_off_c, 0, 68, 0
4, 79200, Note_on_c, 0, 70, 88
4, 79434, Note_off_c, 0, 70, 0
4, 79440, Note_on_c, 0, 75, 88
4, 79910, Note_off_c, 0, 75, 0
4, 79920, Note_on_c, 0, 73, 88
4, 80036, Note_off_c, 0, 73, 0
4, 80040, Note_on_c, 0, 71, 88
4, 80156, Note_off_c, 0, 71, 0
4, 80160, Note_on_c, 0, 73, 88
4, 80394, Note_off_c, 0, 73, 0
4, 80400, Note_on_c, 0, 78, 88
4, 80874, Note_off_c, 0, 78, 0
4, 80880, Note_on_c, 0, 76, 88
4, 80996, Note_off_c, 0, 76, 0
4, 81000, Note_on_c, 0, 75, 88
4, 81116, Note_off_c, 0, 75, 0
4, 81120, Note_on_c, 0, 73, 88
4, 81236, Note_off_c, 0, 73, 0
4, 81240, Note_on_c, 0, 71, 88
4, 81356, Note_off_c, 0, 71, 0
4, 81360, Note_on_c, 0, 70, 88
4, 81476, Note_off_c, 0, 70, 0
4, 81480, Note_on_c, 0, 68, 88
4, 81596, Note_off_c, 0, 68, 0
4, 81600, Note_on_c, 0, 70, 88
4, 82314, Note_off_c, 0, 70, 0
4, 82320, Note_on_c, 0, 68, 88
4, 82790, Note_off_c, 0, 68, 0
4, 82800, Note_on_c, 0, 67, 88
4, 83034, Note_off_c, 0, 67, 0
4, 83040, Note_on_c, 0, 68, 88
4, 83754, Note_off_c, 0, 68, 0
4, 83760, Note_on_c, 0, 80, 88
4, 83994, Note_off_c, 0, 80, 0
4, 84000, Note_on_c, 0, 79, 88
4, 84234, Note_off_c, 0, 79, 0
4, 84240, Note_on_c, 0, 78, 88
4, 84474, Note_off_c, 0, 78, 0
4, 84480, Note_on_c, 0, 77, 88
4, 84714, Note_off_c, 0, 77, 0
4, 84720, Note_on_c, 0, 76, 88
4, 84954, Note_off_c, 0, 76, 0
4, 84960, Note_on_c, 0, 75, 88
4, 86634, Note_off_c, 0, 75, 0
4, 86640, Note_on_c, 0, 73, 88
4, 86756, Note_off_c, 0, 73, 0
4, 86760, Note_on_c, 0, 71, 88
4, 86876, Note_off_c, 0, 71, 0
4, 86880, Note_on_c, 0, 73, 88
4, 86996, Note_off_c, 0, 73, 0
4, 87000, Note_on_c, 0, 76, 88
4, 87116, Note_off_c, 0, 76, 0
4, 87120, Note_on_c, 0, 75, 88
4, 87236, Note_off_c, 0, 75, 0
4, 87240, Note_on_c, 0, 73, 88
4, 87356, Note_off_c, 0, 73, 0
4, 87360, Note_on_c, 0, 71, 88
4, 87476, Note_off_c, 0, 71, 0
4, 87480, Note_on_c, 0, 70, 88
4, 87596, Note_off_c, 0, 70, 0
4, 87600, Note_on_c, 0, 68, 88
4, 87716, Note_off_c, 0, 68, 0
4, 87720, Note_on_c, 0, 67, 88
4, 87836, Note_off_c, 0, 67, 0
4, 87840, Note_on_c, 0, 68, 88
4, 89396, Note_off_c, 0, 68, 0
4, 89400, Note_on_c, 0, 70, 88
4, 89516, Note_off_c, 0, 70, 0
4, 89520, Note_on_c, 0, 68, 88
4, 89636, Note_off_c, 0, 68, 0
4, 89640, Note_on_c, 0, 66, 88
4, 89756, Note_off_c, 0, 66, 0
4, 89760, Note_on_c, 0, 68, 88
4, 89876, Note_off_c, 0, 68, 0
4, 89880, Note_on_c, 0, 70, 88
4, 89996, Note_off_c, 0, 70, 0
4, 90000, Note_on_c, 0, 71, 88
4, 90470, Note_off_c, 0, 71, 0
4, 90480, Note_on_c, 0, 70, 88
4, 90596, Note_off_c, 0, 70, 0
4, 90600, Note_on_c, 0, 68, 88
4, 90716, Note_off_c, 0, 68, 0
4, 90720, Note_on_c, 0, 70, 88
4, 92276, Note_off_c, 0, 70, 0
4, 92280, Note_on_c, 0, 72, 88
4, 92396, Note_off_c, 0, 72, 0
4, 92400, Note_on_c, 0, 70, 88
4, 92516, Note_off_c, 0, 70, 0
4, 92520, Note_on_c, 0, 69, 88
4, 92636, Note_off_c, 0, 69, 0
4, 92640, Note_on_c, 0, 70, 88
4, 92756, Note_off_c, 0, 70, 0
4, 92760, Note_on_c, 0, 72, 88
4, 92876, Note_off_c, 0, 72, 0
4, 92880, Note_on_c, 0, 73, 88
4, 93350, Note_off_c, 0, 73, 0
4, 93360, Note_on_c, 0, 72, 88
4, 93476, Note_off_c, 0, 72, 0
4, 93480, Note_on_c, 0, 70, 88
4, 93596, Note_off_c, 0, 70, 0
4, 93600, Note_on_c, 0, 72, 88
4, 93716, Note_off_c, 0, 72, 0
4, 93720, Note_on_c, 0, 73, 88
4, 93836, Note_off_c, 0, 73, 0
4, 93840, Note_on_c, 0, 72, 88
4, 93956, Note_off_c, 0, 72, 0
4, 93960, Note_on_c, 0, 70, 88
4, 94076, Note_off_c, 0, 70, 0
4, 94080, Note_on_c, 0, 72, 88
4, 94196, Note_off_c, 0, 72, 0
4, 94200, Note_on_c, 0, 73, 88
4, 94316, Note_off_c, 0, 73, 0
4, 94320, Note_on_c, 0, 75, 88
4, 94790, Note_off_c, 0, 75, 0
4, 94800, Note_on_c, 0, 73, 88
4, 94916, Note_off_c, 0, 73, 0
4, 94920, Note_on_c, 0, 72, 88
4, 95036, Note_off_c, 0, 72, 0
4, 95040, Note_on_c, 0, 73, 88
4, 95274, Note_off_c, 0, 73, 0
4, 95520, Note_on_c, 0, 78, 88
4, 95990, Note_off_c, 0, 78, 0
4, 96000, Note_on_c, 0, 77, 88
4, 96470, Note_off_c, 0, 77, 0
4, 96720, Note_on_c, 0, 75, 88
4, 96954, Note_off_c, 0, 75, 0
4, 96960, Note_on_c, 0, 74, 88
4, 97194, Note_off_c, 0, 74, 0
4, 97200, Note_on_c, 0, 80, 88
4, 97434, Note_off_c, 0, 80, 0
4, 97440, Note_on_c, 0, 78, 88
4, 97910, Note_off_c, 0, 78, 0
4, 98160, Note_on_c, 0, 77, 88
4, 98394, Note_off_c, 0, 77, 0
4, 98400, Note_on_c, 0, 75, 88
4, 98516, Note_off_c, 0, 75, 0
4, 98520, Note_on_c, 0, 78, 88
4, 98636, Note_off_c, 0, 78, 0
4, 98640, Note_on_c, 0, 77, 88
4, 98756, Note_off_c, 0, 77, 0
4, 98760, Note_on_c, 0, 75, 88
4, 98876, Note_off_c, 0, 75, 0
4, 98880, Note_on_c, 0, 73, 88
4, 98996, Note_off_c, 0, 73, 0
4, 99000, Note_on_c, 0, 77, 88
4, 99116, Note_off_c, 0, 77, 0
4, 99120, Note_on_c, 0, 75, 88
4, 99236, Note_off_c, 0, 75, 0
4, 99240, Note_on_c, 0, 73, 88
4, 99356, Note_off_c, 0, 73, 0
4, 99360, Note_on_c, 0, 72, 88
4, 99476, Note_off_c, 0, 72, 0
4, 99480, Note_on_c, 0, 75, 88
4, 99596, Note_off_c, 0, 75, 0
4, 99600, Note_on_c, 0, 73, 88
4, 99716, Note_off_c, 0, 73, 0
4, 99720, Note_on_c, 0, 72, 88
4, 99836, Note_off_c, 0, 72, 0
4, 99840, Note_on_c, 0, 70, 88
4, 99956, Note_off_c, 0, 70, 0
4, 99960, Note_on_c, 0, 73, 88
4, 100076, Note_off_c, 0, 73, 0
4, 100080, Note_on_c, 0, 72, 88
4, 100314, Note_off_c, 0, 72, 0
4, 100560, Note_on_c, 0, 70, 88
4, 100794, Note_off_c, 0, 70, 0
4, 100800, Note_on_c, 0, 77, 88
4, 101034, Note_off_c, 0, 77, 0
4, 101040, Note_on_c, 0, 75, 88
4, 101156, Note_off_c, 0, 75, 0
4, 101160, Note_on_c, 0, 73, 88
4, 101276, Note_off_c, 0, 73, 0
4, 101280, Note_on_c, 0, 75, 88
4, 101988, Note_off_c, 0, 75, 0
4, 102000, Note_on_c, 0, 73, 88
4, 102116, Note_off_c, 0, 73, 0
4, 102120, Note_on_c, 0, 72, 88
4, 102236, Note_off_c, 0, 72, 0
4, 102240, Note_on_c, 0, 73, 88
4, 102356, Note_off_c, 0, 73, 0
4, 102360, Note_on_c, 0, 75, 88
4, 102476, Note_off_c, 0, 75, 0
4, 102480, Note_on_c, 0, 73, 88
4, 102596, Note_off_c, 0, 73, 0
4, 102600, Note_on_c, 0, 72, 88
4, 102716, Note_off_c, 0, 72, 0
4, 102720, Note_on_c, 0, 70, 88
4, 102954, Note_off_c, 0, 70, 0
4, 102960, Note_on_c, 0, 82, 88
4, 103430, Note_off_c, 0, 82, 0
4, 103440, Note_on_c, 0, 80, 88
4, 103556, Note_off_c, 0, 80, 0
4, 103560, Note_on_c, 0, 79, 88
4, 103676, Note_off_c, 0, 79, 0
4, 103680, Note_on_c, 0, 80, 88
4, 104388, Note_off_c, 0, 80, 0
4, 104400, Note_on_c, 0, 79, 88
4, 104870, Note_off_c, 0, 79, 0
4, 104880, Note_on_c, 0, 77, 88
4, 105114, Note_off_c, 0, 77, 0
4, 105120, Note_on_c, 0, 76, 88
4, 105590, Note_off_c, 0, 76, 0
4, 105600, Note_on_c, 0, 75, 88
4, 105834, Note_off_c, 0, 75, 0
4, 105840, Note_on_c, 0, 81, 88
4, 106074, Note_off_c, 0, 81, 0
4, 106080, Note_on_c, 0, 82, 88
4, 106314, Note_off_c, 0, 82, 0
4, 106320, Note_on_c, 0, 76, 88
4, 106554, Note_off_c, 0, 76, 0
4, 106560, Note_on_c, 0, 77, 88
4, 106794, Note_off_c, 0, 77, 0
4, 107040, Note_on_c, 0, 76, 88
4, 107274, Note_off_c, 0, 76, 0
4, 107520, Note_on_c, 0, 77, 88
4, 107754, Note_off_c, 0, 77, 0
4, 108000, Note_on_c, 0, 70, 88
4, 108234, Note_off_c, 0, 70, 0
4, 108240, Note_on_c, 0, 72, 88
4, 108356, Note_off_c, 0, 72, 0
4, 108360, Note_on_c, 0, 70, 88
4, 108476, Note_off_c, 0, 70, 0
4, 108480, Note_on_c, 0, 68, 88
4, 108714, Note_off_c, 0, 68, 0
4, 108720, Note_on_c, 0, 70, 88
4, 108836, Note_off_c, 0, 70, 0
4, 108840, Note_on_c, 0, 68, 88
4, 108956, Note_off_c, 0, 68, 0
4, 108960, Note_on_c, 0, 67, 88
4, 109194, Note_off_c, 0, 67, 0
4, 109680, Note_on_c, 0, 67, 88
4, 109914, Note_off_c, 0, 67, 0
4, 109920, Note_on_c, 0, 73, 88
4, 110154, Note_off_c, 0, 73, 0
4, 110160, Note_on_c, 0, 72, 88
4, 110276, Note_off_c, 0, 72, 0
4, 110280, Note_on_c, 0, 70, 88
4, 110396, Note_off_c, 0, 70, 0
4, 110400, Note_on_c, 0, 72, 88
4, 111114, Note_off_c, 0, 72, 0
4, 111120, Note_on_c, 0, 70, 88
4, 111236, Note_off_c, 0, 70, 0
4, 111240, Note_on_c, 0, 68, 88
4, 111356, Note_off_c, 0, 68, 0
4, 111360, Note_on_c, 0, 73, 88
4, 112068, Note_off_c, 0, 73, 0
4, 112080, Note_on_c, 0, 72, 88
4, 112196, Note_off_c, 0, 72, 0
4, 112200, Note_on_c, 0, 70, 88
4, 112316, Note_off_c, 0, 70, 0
4, 112320, Note_on_c, 0, 75, 88
4, 113028, Note_off_c, 0, 75, 0
4, 113040, Note_on_c, 0, 73, 88
4, 113156, Note_off_c, 0, 73, 0
4, 113160, Note_on_c, 0, 72, 88
4, 113276, Note_off_c, 0, 72, 0
4, 113280, Note_on_c, 0, 77, 88
4, 113514, Note_off_c, 0, 77, 0
4, 113760, Note_on_c, 0, 75, 88
4, 114230, Note_off_c, 0, 75, 0
4, 114240, Note_on_c, 0, 73, 88
4, 114710, Note_off_c, 0, 73, 0
4, 114960, Note_on_c, 0, 72, 88
4, 115194, Note_off_c, 0, 72, 0
4, 115200, Note_on_c, 0, 70, 88
4, 115434, Note_off_c, 0, 70, 0
4, 115440, Note_on_c, 0, 77, 88
4, 115674, Note_off_c, 0, 77, 0
4, 115680, Note_on_c, 0, 75, 88
4, 116150, Note_off_c, 0, 75, 0
4, 116400, Note_on_c, 0, 73, 88
4, 116634, Note_off_c, 0, 73, 0
4, 116640, Note_on_c, 0, 72, 88
4, 116756, Note_off_c, 0, 72, 0
4, 116760, Note_on_c, 0, 75, 88
4, 116876, Note_off_c, 0, 75, 0
4, 116880, Note_on_c, 0, 73, 88
4, 116996, Note_off_c, 0, 73, 0
4, 117000, Note_on_c, 0, 72, 88
4, 117116, Note_off_c, 0, 72, 0
4, 117120, Note_on_c, 0, 70, 88
4, 117236, Note_off_c, 0, 70, 0
4, 117240, Note_on_c, 0, 73, 88
4, 117356, Note_off_c, 0, 73, 0
4, 117360, Note_on_c, 0, 72, 88
4, 117476, Note_off_c, 0, 72, 0
4, 117480, Note_on_c, 0, 70, 88
4, 117596, Note_off_c, 0, 70, 0
4, 117600, Note_on_c, 0, 68, 88
4, 117716, Note_off_c, 0, 68, 0
4, 117720, Note_on_c, 0, 72, 88
4, 117836, Note_off_c, 0, 72, 0
4, 117840, Note_on_c, 0, 70, 88
4, 117956, Note_off_c, 0, 70, 0
4, 117960, Note_on_c, 0, 68, 88
4, 118076, Note_off_c, 0, 68, 0
4, 118080, Note_on_c, 0, 67, 88
4, 118196, Note_off_c, 0, 67, 0
4, 118200, Note_on_c, 0, 70, 88
4, 118316, Note_off_c, 0, 70, 0
4, 118320, Note_on_c, 0, 68, 88
4, 118554, Note_off_c, 0, 68, 0
4, 118800, Note_on_c, 0, 67, 88
4, 119034, Note_off_c, 0, 67, 0
4, 119040, Note_on_c, 0, 73, 88
4, 119274, Note_off_c, 0, 73, 0
4, 119280, Note_on_c, 0, 72, 88
4, 119396, Note_off_c, 0, 72, 0
4, 119400, Note_on_c, 0, 70, 88
4, 119516, Note_off_c, 0, 70, 0
4, 119520, Note_on_c, 0, 72, 88
4, 119754, Note_off_c, 0, 72, 0
4, 119760, Note_on_c, 0, 73, 88
4, 119994, Note_off_c, 0, 73, 0
4, 120000, Note_on_c, 0, 66, 88
4, 120698, Note_off_c, 0, 66, 0
4, 120720, Note_on_c, 0, 66, 88
4, 120954, Note_off_c, 0, 66, 0
4, 120960, Note_on_c, 0, 75, 88
4, 121194, Note_off_c, 0, 75, 0
4, 121200, Note_on_c, 0, 73, 88
4, 121316, Note_off_c, 0, 73, 0
4, 121320, Note_on_c, 0, 72, 88
4, 121436, Note_off_c, 0, 72, 0
4, 121440, Note_on_c, 0, 73, 88
4, 121674, Note_off_c, 0, 73, 0
4, 121680, Note_on_c, 0, 75, 88
4, 121914, Note_off_c, 0, 75, 0
4, 121920, Note_on_c, 0, 68, 88
4, 122618, Note_off_c, 0, 68, 0
4, 122640, Note_on_c, 0, 68, 88
4, 122874, Note_off_c, 0, 68, 0
4, 122880, Note_on_c, 0, 77, 88
4, 123114, Note_off_c, 0, 77, 0
4, 123120, Note_on_c, 0, 75, 88
4, 123236, Note_off_c, 0, 75, 0
4, 123240, Note_on_c, 0, 74, 88
4, 123356, Note_off_c, 0, 74, 0
4, 123360, Note_on_c, 0, 75, 88
4, 123594, Note_off_c, 0, 75, 0
4, 123600, Note_on_c, 0, 77, 88
4, 123834, Note_off_c, 0, 77, 0
4, 123840, Note_on_c, 0, 70, 88
4, 124548, Note_off_c, 0, 70, 0
4, 124560, Note_on_c, 0, 69, 88
4, 124676, Note_off_c, 0, 69, 0
4, 124680, Note_on_c, 0, 67, 88
4, 124796, Note_off_c, 0, 67, 0
4, 124800, Note_on_c, 0, 69, 88
4, 125034, Note_off_c, 0, 69, 0
4, 125040, Note_on_c, 0, 70, 88
4, 125274, Note_off_c, 0, 70, 0
4, 125280, Note_on_c, 0, 63, 88
4, 126461, Note_off_c, 0, 63, 0
4, 126480, Note_on_c, 0, 61, 88
4, 126596, Note_off_c, 0, 61, 0
4, 126600, Note_on_c, 0, 60, 88
4, 126716, Note_off_c, 0, 60, 0
4, 126720, Note_on_c, 0, 61, 88
4, 126954, Note_off_c, 0, 61, 0
4, 126960, Note_on_c, 0, 70, 88
4, 127430, Note_off_c, 0, 70, 0
4, 127440, Note_on_c, 0, 69, 88
4, 127674, Note_off_c, 0, 69, 0
4, 127680, Note_on_c, 0, 70, 88
4, 128033, Note_off_c, 0, 70, 0
4, 128040, Note_on_c, 0, 68, 88
4, 128156, Note_off_c, 0, 68, 0
4, 128160, Note_on_c, 0, 66, 88
4, 128630, Note_off_c, 0, 66, 0
4, 128640, Note_on_c, 0, 65, 88
4, 128874, Note_off_c, 0, 65, 0
4, 128880, Note_on_c, 0, 74, 88
4, 129114, Note_off_c, 0, 74, 0
4, 129120, Note_on_c, 0, 75, 88
4, 129354, Note_off_c, 0, 75, 0
4, 129360, Note_on_c, 0, 73, 88
4, 129476, Note_off_c, 0, 73, 0
4, 129480, Note_on_c, 0, 72, 88
4, 129596, Note_off_c, 0, 72, 0
4, 129600, Note_on_c, 0, 77, 88
4, 129834, Note_off_c, 0, 77, 0
4, 130080, Note_on_c, 0, 66, 88
4, 130314, Note_off_c, 0, 66, 0
4, 130560, Note_on_c, 0, 65, 88
4, 130794, Note_off_c, 0, 65, 0
4, 131040, Note_on_c, 0, 63, 88
4, 131274, Note_off_c, 0, 63, 0
4, 133200, Note_on_c, 0, 70, 88
4, 133434, Note_off_c, 0, 70, 0
4, 133440, Note_on_c, 0, 75, 88
4, 134154, Note_off_c, 0, 75, 0
4, 134160, Note_on_c, 0, 73, 88
4, 134276, Note_off_c, 0, 73, 0
4, 134280, Note_on_c, 0, 72, 88
4, 134396, Note_off_c, 0, 72, 0
4, 134400, Note_on_c, 0, 73, 88
4, 135594, Note_off_c, 0, 73, 0
4, 135600, Note_on_c, 0, 72, 88
4, 135716, Note_off_c, 0, 72, 0
4, 135720, Note_on_c, 0, 70, 88
4, 135836, Note_off_c, 0, 70, 0
4, 135840, Note_on_c, 0, 72, 88
4, 136310, Note_off_c, 0, 72, 0
4, 136800, Note_on_c, 0, 70, 88
4, 137270, Note_off_c, 0, 70, 0
4, 137280, Note_on_c, 0, 72, 88
4, 137750, Note_off_c, 0, 72, 0
4, 138000, Note_on_c, 0, 73, 88
4, 138234, Note_off_c, 0, 73, 0
4, 138240, Note_on_c, 0, 75, 88
4, 138474, Note_off_c, 0, 75, 0
4, 138480, Note_on_c, 0, 69, 88
4, 138714, Note_off_c, 0, 69, 0
4, 138720, Note_on_c, 0, 70, 88
4, 139190, Note_off_c, 0, 70, 0
4, 139440, Note_on_c, 0, 72, 88
4, 139674, Note_off_c, 0, 72, 0
4, 139680, Note_on_c, 0, 73, 88
4, 139796, Note_off_c, 0, 73, 0
4, 139800, Note_on_c, 0, 70, 88
4, 139916, Note_off_c, 0, 70, 0
4, 139920, Note_on_c, 0, 72, 88
4, 140036, Note_off_c, 0, 72, 0
4, 140040, Note_on_c, 0, 73, 88
4, 140156, Note_off_c, 0, 73, 0
4, 140160, Note_on_c, 0, 75, 88
4, 140276, Note_off_c, 0, 75, 0
4, 140280, Note_on_c, 0, 72, 88
4, 140396, Note_off_c, 0, 72, 0
4, 140400, Note_on_c, 0, 73, 88
4, 140516, Note_off_c, 0, 73, 0
4, 140520, Note_on_c, 0, 75, 88
4, 140636, Note_off_c, 0, 75, 0
4, 140640, Note_on_c, 0, 77, 88
4, 140756, Note_off_c, 0, 77, 0
4, 140760, Note_on_c, 0, 73, 88
4, 140876, Note_off_c, 0, 73, 0
4, 140880, Note_on_c, 0, 75, 88
4, 140996, Note_off_c, 0, 75, 0
4, 141000, Note_on_c, 0, 77, 88
4, 141116, Note_off_c, 0, 77, 0
4, 141120, Note_on_c, 0, 78, 88
4, 141236, Note_off_c, 0, 78, 0
4, 141240, Note_on_c, 0, 75, 88
4, 141356, Note_off_c, 0, 75, 0
4, 141360, Note_on_c, 0, 77, 88
4, 141594, Note_off_c, 0, 77, 0
4, 141840, Note_on_c, 0, 78, 88
4, 142074, Note_off_c, 0, 78, 0
4, 142080, Note_on_c, 0, 72, 88
4, 142314, Note_off_c, 0, 72, 0
4, 142320, Note_on_c, 0, 73, 88
4, 142436, Note_off_c, 0, 73, 0
4, 142440, Note_on_c, 0, 75, 88
4, 142556, Note_off_c, 0, 75, 0
4, 142560, Note_on_c, 0, 73, 88
4, 142794, Note_off_c, 0, 73, 0
4, 142800, Note_on_c, 0, 72, 88
4, 143034, Note_off_c, 0, 72, 0
4, 143040, Note_on_c, 0, 70, 88
4, 143498, Note_off_c, 0, 70, 0
4, 143520, Note_on_c, 0, 70, 88
4, 143549, Note_off_c, 0, 70, 0
4, 143550, Note_on_c, 0, 69, 88
4, 143579, Note_off_c, 0, 69, 0
4, 143580, Note_on_c, 0, 70, 88
4, 143609, Note_off_c, 0, 70, 0
4, 143610, Note_on_c, 0, 69, 88
4, 143639, Note_off_c, 0, 69, 0
4, 143640, Note_on_c, 0, 70, 88
4, 143669, Note_off_c, 0, 70, 0
4, 143670, Note_on_c, 0, 69, 88
4, 143699, Note_off_c, 0, 69, 0
4, 143700, Note_on_c, 0, 70, 88
4, 143722, Note_off_c, 0, 70, 0
4, 143730, Note_on_c, 0, 69, 88
4, 143745, Note_off_c, 0, 69, 0
4, 143745, Note_on_c, 0, 70, 88
4, 143760, Note_on_c, 0, 69, 88
4, 143760, Note_off_c, 0, 70, 0
4, 143876, Note_off_c, 0, 69, 0
4, 143880, Note_on_c, 0, 70, 88
4, 143996, Note_off_c, 0, 70, 0
4, 144000, Note_on_c, 0, 70, 88
4, 145417, Note_off_c, 0, 70, 0
4, 145417, End_track
5, 0, Start_track
5, 0, Title_t, "Track 2"
5, 0, Program_c, 1, 6
5, 0, Note_on_c, 1, 58, 88
5, 470, Note_off_c, 1, 58, 0
5, 480, Note_on_c, 1, 60, 88
5, 950, Note_off_c, 1, 60, 0
5, 1200, Note_on_c, 1, 61, 88
5, 1434, Note_off_c, 1, 61, 0
5, 1440, Note_on_c, 1, 63, 88
5, 1674, Note_off_c, 1, 63, 0
5, 1680, Note_on_c, 1, 57, 88
5, 1914, Note_off_c, 1, 57, 0
5, 1920, Note_on_c, 1, 58, 88
5, 2390, Note_off_c, 1, 58, 0
5, 2640, Note_on_c, 1, 60, 88
5, 2874, Note_off_c, 1, 60, 0
5, 2880, Note_on_c, 1, 61, 88
5, 2996, Note_off_c, 1, 61, 0
5, 3000, Note_on_c, 1, 58, 88
5, 3116, Note_off_c, 1, 58, 0
5, 3120, Note_on_c, 1, 60, 88
5, 3236, Note_off_c, 1, 60, 0
5, 3240, Note_on_c, 1, 61, 88
5, 3356, Note_off_c, 1, 61, 0
5, 3360, Note_on_c, 1, 63, 88
5, 3476, Note_off_c, 1, 63, 0
5, 3480, Note_on_c, 1, 60, 88
5, 3596, Note_off_c, 1, 60, 0
5, 3600, Note_on_c, 1, 61, 88
5, 3716, Note_off_c, 1, 61, 0
5, 3720, Note_on_c, 1, 63, 88
5, 3836, Note_off_c, 1, 63, 0
5, 3840, Note_on_c, 1, 65, 88
5, 3956, Note_off_c, 1, 65, 0
5, 3960, Note_on_c, 1, 61, 88
5, 4076, Note_off_c, 1, 61, 0
5, 4080, Note_on_c, 1, 63, 88
5, 4196, Note_off_c, 1, 63, 0
5, 4200, Note_on_c, 1, 65, 88
5, 4316, Note_off_c, 1, 65, 0
5, 4320, Note_on_c, 1, 66, 88
5, 4436, Note_off_c, 1, 66, 0
5, 4440, Note_on_c, 1, 63, 88
5, 4556, Note_off_c, 1, 63, 0
5, 4560, Note_on_c, 1, 65, 88
5, 4794, Note_off_c, 1, 65, 0
5, 5040, Note_on_c, 1, 66, 88
5, 5274, Note_off_c, 1, 66, 0
5, 5280, Note_on_c, 1, 60, 88
5, 5514, Note_off_c, 1, 60, 0
5, 5520, Note_on_c, 1, 61, 88
5, 5636, Note_off_c, 1, 61, 0
5, 5640, Note_on_c, 1, 63, 88
5, 5756, Note_off_c, 1, 63, 0
5, 5760, Note_on_c, 1, 61, 88
5, 5994, Note_off_c, 1, 61, 0
5, 6000, Note_on_c, 1, 57, 88
5, 6234, Note_off_c, 1, 57, 0
5, 6240, Note_on_c, 1, 58, 88
5, 6474, Note_off_c, 1, 58, 0
5, 6480, Note_on_c, 1, 59, 88
5, 6714, Note_off_c, 1, 59, 0
5, 6720, Note_on_c, 1, 60, 88
5, 7190, Note_off_c, 1, 60, 0
5, 7440, Note_on_c, 1, 60, 88
5, 7674, Note_off_c, 1, 60, 0
5, 7680, Note_on_c, 1, 61, 88
5, 7914, Note_off_c, 1, 61, 0
5, 7920, Note_on_c, 1, 62, 88
5, 8154, Note_off_c, 1, 62, 0
5, 8160, Note_on_c, 1, 63, 88
5, 8394, Note_off_c, 1, 63, 0
5, 8400, Note_on_c, 1, 64, 88
5, 8634, Note_off_c, 1, 64, 0
5, 8640, Note_on_c, 1, 65, 88
5, 10314, Note_off_c, 1, 65, 0
5, 10320, Note_on_c, 1, 64, 88
5, 10436, Note_off_c, 1, 64, 0
5, 10440, Note_on_c, 1, 62, 88
5, 10556, Note_off_c, 1, 62, 0
5, 10560, Note_on_c, 1, 64, 88
5, 11030, Note_off_c, 1, 64, 0
5, 11280, Note_on_c, 1, 63, 88
5, 11754, Note_off_c, 1, 63, 0
5, 11760, Note_on_c, 1, 62, 88
5, 11876, Note_off_c, 1, 62, 0
5, 11880, Note_on_c, 1, 60, 88
5, 11996, Note_off_c, 1, 60, 0
5, 12000, Note_on_c, 1, 62, 88
5, 12470, Note_off_c, 1, 62, 0
5, 12720, Note_on_c, 1, 61, 88
5, 13194, Note_off_c, 1, 61, 0
5, 13200, Note_on_c, 1, 60, 88
5, 13316, Note_off_c, 1, 60, 0
5, 13320, Note_on_c, 1, 58, 88
5, 13436, Note_off_c, 1, 58, 0
5, 13440, Note_on_c, 1, 60, 88
5, 13674, Note_off_c, 1, 60, 0
5, 13680, Note_on_c, 1, 66, 88
5, 13914, Note_off_c, 1, 66, 0
5, 13920, Note_on_c, 1, 65, 88
5, 14154, Note_off_c, 1, 65, 0
5, 14160, Note_on_c, 1, 63, 88
5, 14634, Note_off_c, 1, 63, 0
5, 14640, Note_on_c, 1, 62, 88
5, 14874, Note_off_c, 1, 62, 0
5, 14880, Note_on_c, 1, 63, 88
5, 15114, Note_off_c, 1, 63, 0
5, 15120, Note_on_c, 1, 64, 88
5, 15354, Note_off_c, 1, 64, 0
5, 15360, Note_on_c, 1, 65, 88
5, 15830, Note_off_c, 1, 65, 0
5, 16080, Note_on_c, 1, 65, 88
5, 16314, Note_off_c, 1, 65, 0
5, 16320, Note_on_c, 1, 66, 88
5, 16554, Note_off_c, 1, 66, 0
5, 16560, Note_on_c, 1, 67, 88
5, 16794, Note_off_c, 1, 67, 0
5, 16800, Note_on_c, 1, 68, 88
5, 17034, Note_off_c, 1, 68, 0
5, 17040, Note_on_c, 1, 69, 88
5, 17274, Note_off_c, 1, 69, 0
5, 17280, Note_on_c, 1, 70, 88
5, 18954, Note_off_c, 1, 70, 0
5, 18960, Note_on_c, 1, 69, 88
5, 19076, Note_off_c, 1, 69, 0
5, 19080, Note_on_c, 1, 67, 88
5, 19196, Note_off_c, 1, 67, 0
5, 19200, Note_on_c, 1, 69, 88
5, 19670, Note_off_c, 1, 69, 0
5, 19920, Note_on_c, 1, 68, 88
5, 20394, Note_off_c, 1, 68, 0
5, 20400, Note_on_c, 1, 67, 88
5, 20516, Note_off_c, 1, 67, 0
5, 20520, Note_on_c, 1, 65, 88
5, 20636, Note_off_c, 1, 65, 0
5, 20640, Note_on_c, 1, 67, 88
5, 21110, Note_off_c, 1, 67, 0
5, 21360, Note_on_c, 1, 66, 88
5, 21834, Note_off_c, 1, 66, 0
5, 21840, Note_on_c, 1, 65, 88
5, 21956, Note_off_c, 1, 65, 0
5, 21960, Note_on_c, 1, 63, 88
5, 22076, Note_off_c, 1, 63, 0
5, 22080, Note_on_c, 1, 65, 88
5, 22788, Note_off_c, 1, 65, 0
5, 22800, Note_on_c, 1, 58, 88
5, 23034, Note_off_c, 1, 58, 0
5, 23040, Note_on_c, 1, 60, 88
5, 23274, Note_off_c, 1, 60, 0
5, 23280, Note_on_c, 1, 61, 88
5, 23396, Note_off_c, 1, 61, 0
5, 23400, Note_on_c, 1, 63, 88
5, 23516, Note_off_c, 1, 63, 0
5, 23520, Note_on_c, 1, 61, 88
5, 23754, Note_off_c, 1, 61, 0
5, 24720, Note_on_c, 1, 68, 88
5, 25190, Note_off_c, 1, 68, 0
5, 25200, Note_on_c, 1, 67, 88
5, 25316, Note_off_c, 1, 67, 0
5, 25320, Note_on_c, 1, 65, 88
5, 25436, Note_off_c, 1, 65, 0
5, 25440, Note_on_c, 1, 67, 88
5, 25556, Note_off_c, 1, 67, 0
5, 25560, Note_on_c, 1, 68, 88
5, 25676, Note_off_c, 1, 68, 0
5, 25680, Note_on_c, 1, 70, 88
5, 25914, Note_off_c, 1, 70, 0
5, 25920, Note_on_c, 1, 68, 88
5, 26154, Note_off_c, 1, 68, 0
5, 26400, Note_on_c, 1, 67, 88
5, 26634, Note_off_c, 1, 67, 0
5, 26880, Note_on_c, 1, 68, 88
5, 27114, Note_off_c, 1, 68, 0
5, 27360, Note_on_c, 1, 70, 88
5, 27594, Note_off_c, 1, 70, 0
5, 27840, Note_on_c, 1, 67, 88
5, 28074, Note_off_c, 1, 67, 0
5, 28320, Note_on_c, 1, 72, 88
5, 28554, Note_off_c, 1, 72, 0
5, 28800, Note_on_c, 1, 60, 88
5, 29034, Note_off_c, 1, 60, 0
5, 29280, Note_on_c, 1, 72, 88
5, 29514, Note_off_c, 1, 72, 0
5, 29760, Note_on_c, 1, 65, 88
5, 29994, Note_off_c, 1, 65, 0
5, 30240, Note_on_c, 1, 70, 88
5, 30356, Note_off_c, 1, 70, 0
5, 30360, Note_on_c, 1, 72, 88
5, 30476, Note_off_c, 1, 72, 0
5, 30480, Note_on_c, 1, 73, 88
5, 30714, Note_off_c, 1, 73, 0
5, 30960, Note_on_c, 1, 70, 88
5, 31194, Note_off_c, 1, 70, 0
5, 31200, Note_on_c, 1, 65, 88
5, 31434, Note_off_c, 1, 65, 0
5, 31440, Note_on_c, 1, 66, 88
5, 31556, Note_off_c, 1, 66, 0
5, 31560, Note_on_c, 1, 68, 88
5, 31676, Note_off_c, 1, 68, 0
5, 31680, Note_on_c, 1, 66, 88
5, 31914, Note_off_c, 1, 66, 0
5, 31920, Note_on_c, 1, 63, 88
5, 32154, Note_off_c, 1, 63, 0
5, 32160, Note_on_c, 1, 70, 88
5, 32394, Note_off_c, 1, 70, 0
5, 32640, Note_on_c, 1, 63, 88
5, 32874, Note_off_c, 1, 63, 0
5, 33120, Note_on_c, 1, 68, 88
5, 33236, Note_off_c, 1, 68, 0
5, 33240, Note_on_c, 1, 70, 88
5, 33356, Note_off_c, 1, 70, 0
5, 33360, Note_on_c, 1, 72, 88
5, 33594, Note_off_c, 1, 72, 0
5, 33840, Note_on_c, 1, 68, 88
5, 34074, Note_off_c, 1, 68, 0
5, 34080, Note_on_c, 1, 63, 88
5, 34314, Note_off_c, 1, 63, 0
5, 34320, Note_on_c, 1, 65, 88
5, 34436, Note_off_c, 1, 65, 0
5, 34440, Note_on_c, 1, 66, 88
5, 34556, Note_off_c, 1, 66, 0
5, 34560, Note_on_c, 1, 65, 88
5, 34794, Note_off_c, 1, 65, 0
5, 34800, Note_on_c, 1, 66, 88
5, 35034, Note_off_c, 1, 66, 0
5, 35040, Note_on_c, 1, 68, 88
5, 35748, Note_off_c, 1, 68, 0
5, 35760, Note_on_c, 1, 66, 88
5, 35876, Note_off_c, 1, 66, 0
5, 35880, Note_on_c, 1, 65, 88
5, 35996, Note_off_c, 1, 65, 0
5, 36000, Note_on_c, 1, 66, 88
5, 36234, Note_off_c, 1, 66, 0
5, 36240, Note_on_c, 1, 63, 88
5, 36474, Note_off_c, 1, 63, 0
5, 36720, Note_on_c, 1, 66, 88
5, 37190, Note_off_c, 1, 66, 0
5, 37200, Note_on_c, 1, 65, 88
5, 37316, Note_off_c, 1, 65, 0
5, 37320, Note_on_c, 1, 63, 88
5, 37436, Note_off_c, 1, 63, 0
5, 37440, Note_on_c, 1, 61, 88
5, 37674, Note_off_c, 1, 61, 0
5, 37920, Note_on_c, 1, 69, 88
5, 38390, Note_off_c, 1, 69, 0
5, 38400, Note_on_c, 1, 70, 88
5, 38870, Note_off_c, 1, 70, 0
5, 39120, Note_on_c, 1, 72, 88
5, 39354, Note_off_c, 1, 72, 0
5, 39360, Note_on_c, 1, 73, 88
5, 39594, Note_off_c, 1, 73, 0
5, 39600, Note_on_c, 1, 67, 88
5, 39834, Note_off_c, 1, 67, 0
5, 39840, Note_on_c, 1, 69, 88
5, 40310, Note_off_c, 1, 69, 0
5, 40560, Note_on_c, 1, 70, 88
5, 40794, Note_off_c, 1, 70, 0
5, 40800, Note_on_c, 1, 72, 88
5, 40916, Note_off_c, 1, 72, 0
5, 40920, Note_on_c, 1, 69, 88
5, 41036, Note_off_c, 1, 69, 0
5, 41040, Note_on_c, 1, 70, 88
5, 41156, Note_off_c, 1, 70, 0
5, 41160, Note_on_c, 1, 72, 88
5, 41276, Note_off_c, 1, 72, 0
5, 41280, Note_on_c, 1, 73, 88
5, 41396, Note_off_c, 1, 73, 0
5, 41400, Note_on_c, 1, 70, 88
5, 41516, Note_off_c, 1, 70, 0
5, 41520, Note_on_c, 1, 72, 88
5, 41636, Note_off_c, 1, 72, 0
5, 41640, Note_on_c, 1, 73, 88
5, 41756, Note_off_c, 1, 73, 0
5, 41760, Note_on_c, 1, 75, 88
5, 41876, Note_off_c, 1, 75, 0
5, 41880, Note_on_c, 1, 72, 88
5, 41996, Note_off_c, 1, 72, 0
5, 42000, Note_on_c, 1, 73, 88
5, 42116, Note_off_c, 1, 73, 0
5, 42120, Note_on_c, 1, 75, 88
5, 42236, Note_off_c, 1, 75, 0
5, 42240, Note_on_c, 1, 77, 88
5, 42356, Note_off_c, 1, 77, 0
5, 42360, Note_on_c, 1, 73, 88
5, 42476, Note_off_c, 1, 73, 0
5, 42480, Note_on_c, 1, 75, 88
5, 42714, Note_off_c, 1, 75, 0
5, 42960, Note_on_c, 1, 77, 88
5, 43194, Note_off_c, 1, 77, 0
5, 43200, Note_on_c, 1, 70, 88
5, 43434, Note_off_c, 1, 70, 0
5, 43440, Note_on_c, 1, 72, 88
5, 43556, Note_off_c, 1, 72, 0
5, 43560, Note_on_c, 1, 73, 88
5, 43676, Note_off_c, 1, 73, 0
5, 43680, Note_on_c, 1, 72, 88
5, 43914, Note_off_c, 1, 72, 0
5, 43920, Note_on_c, 1, 70, 88
5, 44154, Note_off_c, 1, 70, 0
5, 44160, Note_on_c, 1, 69, 88
5, 44394, Note_off_c, 1, 69, 0
5, 44400, Note_on_c, 1, 70, 88
5, 44516, Note_off_c, 1, 70, 0
5, 44520, Note_on_c, 1, 72, 88
5, 44636, Note_off_c, 1, 72, 0
5, 44640, Note_on_c, 1, 70, 88
5, 44874, Note_off_c, 1, 70, 0
5, 44880, Note_on_c, 1, 68, 88
5, 45114, Note_off_c, 1, 68, 0
5, 45120, Note_on_c, 1, 67, 88
5, 45354, Note_off_c, 1, 67, 0
5, 45360, Note_on_c, 1, 68, 88
5, 45476, Note_off_c, 1, 68, 0
5, 45480, Note_on_c, 1, 70, 88
5, 45596, Note_off_c, 1, 70, 0
5, 45600, Note_on_c, 1, 68, 88
5, 45834, Note_off_c, 1, 68, 0
5, 45840, Note_on_c, 1, 66, 88
5, 46074, Note_off_c, 1, 66, 0
5, 46080, Note_on_c, 1, 65, 88
5, 46314, Note_off_c, 1, 65, 0
5, 46320, Note_on_c, 1, 63, 88
5, 46436, Note_off_c, 1, 63, 0
5, 46440, Note_on_c, 1, 65, 88
5, 46556, Note_off_c, 1, 65, 0
5, 46560, Note_on_c, 1, 66, 88
5, 46794, Note_off_c, 1, 66, 0
5, 46800, Note_on_c, 1, 65, 88
5, 46916, Note_off_c, 1, 65, 0
5, 46920, Note_on_c, 1, 63, 88
5, 47036, Note_off_c, 1, 63, 0
5, 47040, Note_on_c, 1, 61, 88
5, 47274, Note_off_c, 1, 61, 0
5, 47280, Note_on_c, 1, 73, 88
5, 47514, Note_off_c, 1, 73, 0
5, 47520, Note_on_c, 1, 72, 88
5, 47636, Note_off_c, 1, 72, 0
5, 47640, Note_on_c, 1, 70, 88
5, 47756, Note_off_c, 1, 70, 0
5, 47760, Note_on_c, 1, 68, 88
5, 47876, Note_off_c, 1, 68, 0
5, 47880, Note_on_c, 1, 66, 88
5, 47996, Note_off_c, 1, 66, 0
5, 48000, Note_on_c, 1, 65, 88
5, 48116, Note_off_c, 1, 65, 0
5, 48120, Note_on_c, 1, 63, 88
5, 48236, Note_off_c, 1, 63, 0
5, 48240, Note_on_c, 1, 61, 88
5, 48474, Note_off_c, 1, 61, 0
5, 48480, Note_on_c, 1, 68, 88
5, 49905, Note_off_c, 1, 68, 0
5, 49920, Note_on_c, 1, 73, 88
5, 51345, Note_off_c, 1, 73, 0
5, 51360, Note_on_c, 1, 72, 88
5, 51830, Note_off_c, 1, 72, 0
5, 52080, Note_on_c, 1, 73, 88
5, 52314, Note_off_c, 1, 73, 0
5, 52320, Note_on_c, 1, 72, 88
5, 52554, Note_off_c, 1, 72, 0
5, 52560, Note_on_c, 1, 71, 88
5, 53030, Note_off_c, 1, 71, 0
5, 53040, Note_on_c, 1, 70, 88
5, 53156, Note_off_c, 1, 70, 0
5, 53160, Note_on_c, 1, 68, 88
5, 53276, Note_off_c, 1, 68, 0
5, 53280, Note_on_c, 1, 70, 88
5, 53514, Note_off_c, 1, 70, 0
5, 53760, Note_on_c, 1, 71, 88
5, 53994, Note_off_c, 1, 71, 0
5, 54240, Note_on_c, 1, 73, 88
5, 54474, Note_off_c, 1, 73, 0
5, 54480, Note_on_c, 1, 70, 88
5, 54714, Note_off_c, 1, 70, 0
5, 54720, Note_on_c, 1, 66, 88
5, 54954, Note_off_c, 1, 66, 0
5, 55200, Note_on_c, 1, 68, 88
5, 55434, Note_off_c, 1, 68, 0
5, 55680, Note_on_c, 1, 70, 88
5, 55914, Note_off_c, 1, 70, 0
5, 56400, Note_on_c, 1, 68, 88
5, 56634, Note_off_c, 1, 68, 0
5, 56640, Note_on_c, 1, 67, 88
5, 56874, Note_off_c, 1, 67, 0
5, 56880, Note_on_c, 1, 66, 88
5, 57350, Note_off_c, 1, 66, 0
5, 57360, Note_on_c, 1, 65, 88
5, 57476, Note_off_c, 1, 65, 0
5, 57480, Note_on_c, 1, 63, 88
5, 57596, Note_off_c, 1, 63, 0
5, 57600, Note_on_c, 1, 65, 88
5, 57834, Note_off_c, 1, 65, 0
5, 57840, Note_on_c, 1, 67, 88
5, 57956, Note_off_c, 1, 67, 0
5, 57960, Note_on_c, 1, 68, 88
5, 58076, Note_off_c, 1, 68, 0
5, 58080, Note_on_c, 1, 67, 88
5, 58314, Note_off_c, 1, 67, 0
5, 58320, Note_on_c, 1, 69, 88
5, 58436, Note_off_c, 1, 69, 0
5, 58440, Note_on_c, 1, 70, 88
5, 58556, Note_off_c, 1, 70, 0
5, 58560, Note_on_c, 1, 72, 88
5, 58794, Note_off_c, 1, 72, 0
5, 58800, Note_on_c, 1, 69, 88
5, 59034, Note_off_c, 1, 69, 0
5, 59040, Note_on_c, 1, 70, 88
5, 59274, Note_off_c, 1, 70, 0
5, 59280, Note_on_c, 1, 73, 88
5, 59514, Note_off_c, 1, 73, 0
5, 59520, Note_on_c, 1, 72, 88
5, 59754, Note_off_c, 1, 72, 0
5, 59760, Note_on_c, 1, 71, 88
5, 59994, Note_off_c, 1, 71, 0
5, 60000, Note_on_c, 1, 70, 88
5, 60470, Note_off_c, 1, 70, 0
5, 60720, Note_on_c, 1, 70, 88
5, 60954, Note_off_c, 1, 70, 0
5, 60960, Note_on_c, 1, 69, 88
5, 61194, Note_off_c, 1, 69, 0
5, 61200, Note_on_c, 1, 68, 88
5, 61434, Note_off_c, 1, 68, 0
5, 61440, Note_on_c, 1, 67, 88
5, 61674, Note_off_c, 1, 67, 0
5, 61680, Note_on_c, 1, 66, 88
5, 61914, Note_off_c, 1, 66, 0
5, 61920, Note_on_c, 1, 65, 88
5, 63830, Note_off_c, 1, 65, 0
5, 64800, Note_on_c, 1, 70, 88
5, 65270, Note_off_c, 1, 70, 0
5, 65280, Note_on_c, 1, 68, 88
5, 65750, Note_off_c, 1, 68, 0
5, 66000, Note_on_c, 1, 66, 88
5, 66234, Note_off_c, 1, 66, 0
5, 66240, Note_on_c, 1, 65, 88
5, 66474, Note_off_c, 1, 65, 0
5, 66480, Note_on_c, 1, 71, 88
5, 66714, Note_off_c, 1, 71, 0
5, 66720, Note_on_c, 1, 70, 88
5, 67190, Note_off_c, 1, 70, 0
5, 67440, Note_on_c, 1, 68, 88
5, 67674, Note_off_c, 1, 68, 0
5, 67680, Note_on_c, 1, 66, 88
5, 67796, Note_off_c, 1, 66, 0
5, 67800, Note_on_c, 1, 70, 88
5, 67916, Note_off_c, 1, 70, 0
5, 67920, Note_on_c, 1, 68, 88
5, 68036, Note_off_c, 1, 68, 0
5, 68040, Note_on_c, 1, 66, 88
5, 68156, Note_off_c, 1, 66, 0
5, 68160, Note_on_c, 1, 65, 88
5, 68276, Note_off_c, 1, 65, 0
5, 68280, Note_on_c, 1, 68, 88
5, 68396, Note_off_c, 1, 68, 0
5, 68400, Note_on_c, 1, 66, 88
5, 68516, Note_off_c, 1, 66, 0
5, 68520, Note_on_c, 1, 65, 88
5, 68636, Note_off_c, 1, 65, 0
5, 68640, Note_on_c, 1, 63, 88
5, 68756, Note_off_c, 1, 63, 0
5, 68760, Note_on_c, 1, 66, 88
5, 68876, Note_off_c, 1, 66, 0
5, 68880, Note_on_c, 1, 65, 88
5, 68996, Note_off_c, 1, 65, 0
5, 69000, Note_on_c, 1, 63, 88
5, 69116, Note_off_c, 1, 63, 0
5, 69120, Note_on_c, 1, 62, 88
5, 69236, Note_off_c, 1, 62, 0
5, 69240, Note_on_c, 1, 65, 88
5, 69356, Note_off_c, 1, 65, 0
5, 69360, Note_on_c, 1, 63, 88
5, 69594, Note_off_c, 1, 63, 0
5, 69840, Note_on_c, 1, 62, 88
5, 70074, Note_off_c, 1, 62, 0
5, 70080, Note_on_c, 1, 68, 88
5, 70314, Note_off_c, 1, 68, 0
5, 70320, Note_on_c, 1, 66, 88
5, 70436, Note_off_c, 1, 66, 0
5, 70440, Note_on_c, 1, 65, 88
5, 70556, Note_off_c, 1, 65, 0
5, 70560, Note_on_c, 1, 66, 88
5, 70676, Note_off_c, 1, 66, 0
5, 70680, Note_on_c, 1, 68, 88
5, 70796, Note_off_c, 1, 68, 0
5, 70800, Note_on_c, 1, 70, 88
5, 71270, Note_off_c, 1, 70, 0
5, 71280, Note_on_c, 1, 69, 88
5, 71396, Note_off_c, 1, 69, 0
5, 71400, Note_on_c, 1, 70, 88
5, 71516, Note_off_c, 1, 70, 0
5, 71520, Note_on_c, 1, 72, 88
5, 71754, Note_off_c, 1, 72, 0
5, 71760, Note_on_c, 1, 63, 88
5, 72234, Note_off_c, 1, 63, 0
5, 72240, Note_on_c, 1, 61, 88
5, 72474, Note_off_c, 1, 61, 0
5, 72480, Note_on_c, 1, 70, 88
5, 73188, Note_off_c, 1, 70, 0
5, 73200, Note_on_c, 1, 68, 88
5, 73556, Note_off_c, 1, 68, 0
5, 73560, Note_on_c, 1, 65, 88
5, 73676, Note_off_c, 1, 65, 0
5, 73680, Note_on_c, 1, 70, 88
5, 73914, Note_off_c, 1, 70, 0
5, 73920, Note_on_c, 1, 69, 88
5, 74154, Note_off_c, 1, 69, 0
5, 74160, Note_on_c, 1, 68, 88
5, 74394, Note_off_c, 1, 68, 0
5, 74400, Note_on_c, 1, 67, 88
5, 74870, Note_off_c, 1, 67, 0
5, 75120, Note_on_c, 1, 66, 88
5, 75354, Note_off_c, 1, 66, 0
5, 75360, Note_on_c, 1, 65, 88
5, 75594, Note_off_c, 1, 65, 0
5, 75600, Note_on_c, 1, 64, 88
5, 75834, Note_off_c, 1, 64, 0
5, 75840, Note_on_c, 1, 63, 88
5, 76074, Note_off_c, 1, 63, 0
5, 76080, Note_on_c, 1, 62, 88
5, 76314, Note_off_c, 1, 62, 0
5, 76320, Note_on_c, 1, 61, 88
5, 77501, Note_off_c, 1, 61, 0
5, 77520, Note_on_c, 1, 59, 88
5, 77994, Note_off_c, 1, 59, 0
5, 78000, Note_on_c, 1, 58, 88
5, 78116, Note_off_c, 1, 58, 0
5, 78120, Note_on_c, 1, 56, 88
5, 78236, Note_off_c, 1, 56, 0
5, 78240, Note_on_c, 1, 54, 88
5, 78356, Note_off_c, 1, 54, 0
5, 78360, Note_on_c, 1, 58, 88
5, 78476, Note_off_c, 1, 58, 0
5, 78480, Note_on_c, 1, 56, 88
5, 78596, Note_off_c, 1, 56, 0
5, 78600, Note_on_c, 1, 54, 88
5, 78716, Note_off_c, 1, 54, 0
5, 78720, Note_on_c, 1, 53, 88
5, 78836, Note_off_c, 1, 53, 0
5, 78840, Note_on_c, 1, 56, 88
5, 78956, Note_off_c, 1, 56, 0
5, 78960, Note_on_c, 1, 55, 88
5, 79076, Note_off_c, 1, 55, 0
5, 79080, Note_on_c, 1, 53, 88
5, 79196, Note_off_c, 1, 53, 0
5, 79200, Note_on_c, 1, 55, 88
5, 79670, Note_off_c, 1, 55, 0
5, 79680, Note_on_c, 1, 56, 88
5, 80150, Note_off_c, 1, 56, 0
5, 80160, Note_on_c, 1, 58, 88
5, 80630, Note_off_c, 1, 58, 0
5, 80640, Note_on_c, 1, 59, 88
5, 81110, Note_off_c, 1, 59, 0
5, 81120, Note_on_c, 1, 58, 88
5, 81828, Note_off_c, 1, 58, 0
5, 81840, Note_on_c, 1, 64, 88
5, 82074, Note_off_c, 1, 64, 0
5, 82080, Note_on_c, 1, 63, 88
5, 83497, Note_off_c, 1, 63, 0
5, 83760, Note_on_c, 1, 74, 88
5, 83994, Note_off_c, 1, 74, 0
5, 84000, Note_on_c, 1, 75, 88
5, 84116, Note_off_c, 1, 75, 0
5, 84120, Note_on_c, 1, 70, 88
5, 84236, Note_off_c, 1, 70, 0
5, 84240, Note_on_c, 1, 75, 88
5, 84593, Note_off_c, 1, 75, 0
5, 84600, Note_on_c, 1, 73, 88
5, 84716, Note_off_c, 1, 73, 0
5, 84720, Note_on_c, 1, 71, 88
5, 84836, Note_off_c, 1, 71, 0
5, 84840, Note_on_c, 1, 70, 88
5, 84956, Note_off_c, 1, 70, 0
5, 84960, Note_on_c, 1, 71, 88
5, 85194, Note_off_c, 1, 71, 0
5, 85440, Note_on_c, 1, 73, 88
5, 85674, Note_off_c, 1, 73, 0
5, 85920, Note_on_c, 1, 71, 88
5, 86154, Note_off_c, 1, 71, 0
5, 86400, Note_on_c, 1, 70, 88
5, 86634, Note_off_c, 1, 70, 0
5, 87360, Note_on_c, 1, 64, 88
5, 88074, Note_off_c, 1, 64, 0
5, 88080, Note_on_c, 1, 63, 88
5, 88196, Note_off_c, 1, 63, 0
5, 88200, Note_on_c, 1, 61, 88
5, 88316, Note_off_c, 1, 61, 0
5, 88320, Note_on_c, 1, 63, 88
5, 88436, Note_off_c, 1, 63, 0
5, 88440, Note_on_c, 1, 65, 88
5, 88556, Note_off_c, 1, 65, 0
5, 88560, Note_on_c, 1, 66, 88
5, 89030, Note_off_c, 1, 66, 0
5, 89040, Note_on_c, 1, 65, 88
5, 89156, Note_off_c, 1, 65, 0
5, 89160, Note_on_c, 1, 63, 88
5, 89276, Note_off_c, 1, 63, 0
5, 89280, Note_on_c, 1, 65, 88
5, 90836, Note_off_c, 1, 65, 0
5, 90840, Note_on_c, 1, 66, 88
5, 90956, Note_off_c, 1, 66, 0
5, 90960, Note_on_c, 1, 65, 88
5, 91076, Note_off_c, 1, 65, 0
5, 91080, Note_on_c, 1, 63, 88
5, 91196, Note_off_c, 1, 63, 0
5, 91200, Note_on_c, 1, 65, 88
5, 91316, Note_off_c, 1, 65, 0
5, 91320, Note_on_c, 1, 66, 88
5, 91436, Note_off_c, 1, 66, 0
5, 91440, Note_on_c, 1, 68, 88
5, 91910, Note_off_c, 1, 68, 0
5, 91920, Note_on_c, 1, 66, 88
5, 92036, Note_off_c, 1, 66, 0
5, 92040, Note_on_c, 1, 65, 88
5, 92156, Note_off_c, 1, 65, 0
5, 92160, Note_on_c, 1, 66, 88
5, 94070, Note_off_c, 1, 66, 0
5, 94080, Note_on_c, 1, 65, 88
5, 94788, Note_off_c, 1, 65, 0
5, 94800, Note_on_c, 1, 69, 88
5, 95034, Note_off_c, 1, 69, 0
5, 95040, Note_on_c, 1, 70, 88
5, 95156, Note_off_c, 1, 70, 0
5, 95160, Note_on_c, 1, 72, 88
5, 95276, Note_off_c, 1, 72, 0
5, 95280, Note_on_c, 1, 73, 88
5, 95750, Note_off_c, 1, 73, 0
5, 95760, Note_on_c, 1, 72, 88
5, 95994, Note_off_c, 1, 72, 0
5, 96000, Note_on_c, 1, 73, 88
5, 96234, Note_off_c, 1, 73, 0
5, 96240, Note_on_c, 1, 65, 88
5, 96474, Note_off_c, 1, 65, 0
5, 96480, Note_on_c, 1, 63, 88
5, 96714, Note_off_c, 1, 63, 0
5, 96720, Note_on_c, 1, 72, 88
5, 96954, Note_off_c, 1, 72, 0
5, 96960, Note_on_c, 1, 70, 88
5, 97194, Note_off_c, 1, 70, 0
5, 97200, Note_on_c, 1, 74, 88
5, 97434, Note_off_c, 1, 74, 0
5, 97440, Note_on_c, 1, 75, 88
5, 97674, Note_off_c, 1, 75, 0
5, 97680, Note_on_c, 1, 72, 88
5, 98036, Note_off_c, 1, 72, 0
5, 98040, Note_on_c, 1, 69, 88
5, 98156, Note_off_c, 1, 69, 0
5, 98160, Note_on_c, 1, 70, 88
5, 98630, Note_off_c, 1, 70, 0
5, 98640, Note_on_c, 1, 69, 88
5, 98874, Note_off_c, 1, 69, 0
5, 98880, Note_on_c, 1, 70, 88
5, 99114, Note_off_c, 1, 70, 0
5, 103680, Note_on_c, 1, 72, 88
5, 104150, Note_off_c, 1, 72, 0
5, 104160, Note_on_c, 1, 70, 88
5, 104630, Note_off_c, 1, 70, 0
5, 104880, Note_on_c, 1, 68, 88
5, 105114, Note_off_c, 1, 68, 0
5, 105120, Note_on_c, 1, 67, 88
5, 105354, Note_off_c, 1, 67, 0
5, 105360, Note_on_c, 1, 73, 88
5, 105594, Note_off_c, 1, 73, 0
5, 105600, Note_on_c, 1, 72, 88
5, 106070, Note_off_c, 1, 72, 0
5, 106320, Note_on_c, 1, 70, 88
5, 106554, Note_off_c, 1, 70, 0
5, 106560, Note_on_c, 1, 68, 88
5, 106676, Note_off_c, 1, 68, 0
5, 106680, Note_on_c, 1, 72, 88
5, 106796, Note_off_c, 1, 72, 0
5, 106800, Note_on_c, 1, 70, 88
5, 106916, Note_off_c, 1, 70, 0
5, 106920, Note_on_c, 1, 68, 88
5, 107036, Note_off_c, 1, 68, 0
5, 107040, Note_on_c, 1, 67, 88
5, 107156, Note_off_c, 1, 67, 0
5, 107160, Note_on_c, 1, 70, 88
5, 107276, Note_off_c, 1, 70, 0
5, 107280, Note_on_c, 1, 68, 88
5, 107396, Note_off_c, 1, 68, 0
5, 107400, Note_on_c, 1, 67, 88
5, 107516, Note_off_c, 1, 67, 0
5, 107520, Note_on_c, 1, 65, 88
5, 107636, Note_off_c, 1, 65, 0
5, 107640, Note_on_c, 1, 68, 88
5, 107756, Note_off_c, 1, 68, 0
5, 107760, Note_on_c, 1, 67, 88
5, 107876, Note_off_c, 1, 67, 0
5, 107880, Note_on_c, 1, 65, 88
5, 107996, Note_off_c, 1, 65, 0
5, 108000, Note_on_c, 1, 64, 88
5, 108116, Note_off_c, 1, 64, 0
5, 108120, Note_on_c, 1, 67, 88
5, 108236, Note_off_c, 1, 67, 0
5, 108240, Note_on_c, 1, 65, 88
5, 108474, Note_off_c, 1, 65, 0
5, 108720, Note_on_c, 1, 64, 88
5, 108954, Note_off_c, 1, 64, 0
5, 108960, Note_on_c, 1, 70, 88
5, 109194, Note_off_c, 1, 70, 0
5, 109200, Note_on_c, 1, 68, 88
5, 109316, Note_off_c, 1, 68, 0
5, 109320, Note_on_c, 1, 67, 88
5, 109436, Note_off_c, 1, 67, 0
5, 109440, Note_on_c, 1, 68, 88
5, 109556, Note_off_c, 1, 68, 0
5, 109560, Note_on_c, 1, 65, 88
5, 109676, Note_off_c, 1, 65, 0
5, 109680, Note_on_c, 1, 67, 88
5, 109914, Note_off_c, 1, 67, 0
5, 110160, Note_on_c, 1, 67, 88
5, 110630, Note_off_c, 1, 67, 0
5, 110640, Note_on_c, 1, 65, 88
5, 110756, Note_off_c, 1, 65, 0
5, 110760, Note_on_c, 1, 64, 88
5, 110876, Note_off_c, 1, 64, 0
5, 110880, Note_on_c, 1, 68, 88
5, 111588, Note_off_c, 1, 68, 0
5, 111600, Note_on_c, 1, 67, 88
5, 111716, Note_off_c, 1, 67, 0
5, 111720, Note_on_c, 1, 65, 88
5, 111836, Note_off_c, 1, 65, 0
5, 111840, Note_on_c, 1, 70, 88
5, 112554, Note_off_c, 1, 70, 0
5, 112560, Note_on_c, 1, 68, 88
5, 112676, Note_off_c, 1, 68, 0
5, 112680, Note_on_c, 1, 67, 88
5, 112796, Note_off_c, 1, 67, 0
5, 112800, Note_on_c, 1, 72, 88
5, 113508, Note_off_c, 1, 72, 0
5, 113520, Note_on_c, 1, 70, 88
5, 113636, Note_off_c, 1, 70, 0
5, 113640, Note_on_c, 1, 68, 88
5, 113756, Note_off_c, 1, 68, 0
5, 113760, Note_on_c, 1, 67, 88
5, 113994, Note_off_c, 1, 67, 0
5, 114000, Note_on_c, 1, 68, 88
5, 114234, Note_off_c, 1, 68, 0
5, 114240, Note_on_c, 1, 70, 88
5, 114474, Note_off_c, 1, 70, 0
5, 114480, Note_on_c, 1, 58, 88
5, 114714, Note_off_c, 1, 58, 0
5, 114720, Note_on_c, 1, 60, 88
5, 114954, Note_off_c, 1, 60, 0
5, 114960, Note_on_c, 1, 68, 88
5, 115434, Note_off_c, 1, 68, 0
5, 115440, Note_on_c, 1, 67, 88
5, 115674, Note_off_c, 1, 67, 0
5, 115680, Note_on_c, 1, 68, 88
5, 115914, Note_off_c, 1, 68, 0
5, 116160, Note_on_c, 1, 70, 88
5, 116394, Note_off_c, 1, 70, 0
5, 116640, Note_on_c, 1, 63, 88
5, 116874, Note_off_c, 1, 63, 0
5, 116880, Note_on_c, 1, 68, 88
5, 117114, Note_off_c, 1, 68, 0
5, 117120, Note_on_c, 1, 67, 88
5, 117354, Note_off_c, 1, 67, 0
5, 117360, Note_on_c, 1, 66, 88
5, 117594, Note_off_c, 1, 66, 0
5, 117600, Note_on_c, 1, 65, 88
5, 117834, Note_off_c, 1, 65, 0
5, 117840, Note_on_c, 1, 64, 88
5, 118074, Note_off_c, 1, 64, 0
5, 118080, Note_on_c, 1, 63, 88
5, 118314, Note_off_c, 1, 63, 0
5, 127200, Note_on_c, 1, 66, 88
5, 127670, Note_off_c, 1, 66, 0
5, 127680, Note_on_c, 1, 65, 88
5, 128150, Note_off_c, 1, 65, 0
5, 128400, Note_on_c, 1, 63, 88
5, 128634, Note_off_c, 1, 63, 0
5, 128640, Note_on_c, 1, 62, 88
5, 128874, Note_off_c, 1, 62, 0
5, 128880, Note_on_c, 1, 68, 88
5, 129114, Note_off_c, 1, 68, 0
5, 129120, Note_on_c, 1, 66, 88
5, 129590, Note_off_c, 1, 66, 0
5, 129840, Note_on_c, 1, 65, 88
5, 130074, Note_off_c, 1, 65, 0
5, 130080, Note_on_c, 1, 63, 88
5, 130196, Note_off_c, 1, 63, 0
5, 130200, Note_on_c, 1, 66, 88
5, 130316, Note_off_c, 1, 66, 0
5, 130320, Note_on_c, 1, 65, 88
5, 130436, Note_off_c, 1, 65, 0
5, 130440, Note_on_c, 1, 63, 88
5, 130556, Note_off_c, 1, 63, 0
5, 130560, Note_on_c, 1, 61, 88
5, 130676, Note_off_c, 1, 61, 0
5, 130680, Note_on_c, 1, 65, 88
5, 130796, Note_off_c, 1, 65, 0
5, 130800, Note_on_c, 1, 63, 88
5, 130916, Note_off_c, 1, 63, 0
5, 130920, Note_on_c, 1, 61, 88
5, 131036, Note_off_c, 1, 61, 0
5, 131040, Note_on_c, 1, 60, 88
5, 131156, Note_off_c, 1, 60, 0
5, 131160, Note_on_c, 1, 63, 88
5, 131276, Note_off_c, 1, 63, 0
5, 131280, Note_on_c, 1, 61, 88
5, 131396, Note_off_c, 1, 61, 0
5, 131400, Note_on_c, 1, 60, 88
5, 131516, Note_off_c, 1, 60, 0
5, 131520, Note_on_c, 1, 58, 88
5, 131636, Note_off_c, 1, 58, 0
5, 131640, Note_on_c, 1, 61, 88
5, 131756, Note_off_c, 1, 61, 0
5, 131760, Note_on_c, 1, 60, 88
5, 131994, Note_off_c, 1, 60, 0
5, 132240, Note_on_c, 1, 58, 88
5, 132474, Note_off_c, 1, 58, 0
5, 132480, Note_on_c, 1, 65, 88
5, 132714, Note_off_c, 1, 65, 0
5, 132720, Note_on_c, 1, 63, 88
5, 132836, Note_off_c, 1, 63, 0
5, 132840, Note_on_c, 1, 62, 88
5, 132956, Note_off_c, 1, 62, 0
5, 132960, Note_on_c, 1, 63, 88
5, 133430, Note_off_c, 1, 63, 0
5, 133680, Note_on_c, 1, 63, 88
5, 133914, Note_off_c, 1, 63, 0
5, 133920, Note_on_c, 1, 72, 88
5, 134628, Note_off_c, 1, 72, 0
5, 134640, Note_on_c, 1, 70, 88
5, 134756, Note_off_c, 1, 70, 0
5, 134760, Note_on_c, 1, 69, 88
5, 134876, Note_off_c, 1, 69, 0
5, 134880, Note_on_c, 1, 70, 88
5, 136068, Note_off_c, 1, 70, 0
5, 136080, Note_on_c, 1, 69, 88
5, 136196, Note_off_c, 1, 69, 0
5, 136200, Note_on_c, 1, 67, 88
5, 136316, Note_off_c, 1, 67, 0
5, 136320, Note_on_c, 1, 69, 88
5, 136790, Note_off_c, 1, 69, 0
5, 136800, Note_on_c, 1, 61, 88
5, 137270, Note_off_c, 1, 61, 0
5, 137280, Note_on_c, 1, 63, 88
5, 137750, Note_off_c, 1, 63, 0
5, 138000, Note_on_c, 1, 65, 88
5, 138234, Note_off_c, 1, 65, 0
5, 138240, Note_on_c, 1, 66, 88
5, 138474, Note_off_c, 1, 66, 0
5, 138480, Note_on_c, 1, 60, 88
5, 138714, Note_off_c, 1, 60, 0
5, 138720, Note_on_c, 1, 62, 88
5, 139190, Note_off_c, 1, 62, 0
5, 139440, Note_on_c, 1, 69, 88
5, 139674, Note_off_c, 1, 69, 0
5, 139680, Note_on_c, 1, 70, 88
5, 139796, Note_off_c, 1, 70, 0
5, 139800, Note_on_c, 1, 67, 88
5, 139916, Note_off_c, 1, 67, 0
5, 139920, Note_on_c, 1, 69, 88
5, 140036, Note_off_c, 1, 69, 0
5, 140040, Note_on_c, 1, 70, 88
5, 140156, Note_off_c, 1, 70, 0
5, 140160, Note_on_c, 1, 72, 88
5, 140276, Note_off_c, 1, 72, 0
5, 140280, Note_on_c, 1, 69, 88
5, 140396, Note_off_c, 1, 69, 0
5, 140400, Note_on_c, 1, 70, 88
5, 140516, Note_off_c, 1, 70, 0
5, 140520, Note_on_c, 1, 72, 88
5, 140636, Note_off_c, 1, 72, 0
5, 140640, Note_on_c, 1, 73, 88
5, 140756, Note_off_c, 1, 73, 0
5, 140760, Note_on_c, 1, 70, 88
5, 140876, Note_off_c, 1, 70, 0
5, 140880, Note_on_c, 1, 72, 88
5, 140996, Note_off_c, 1, 72, 0
5, 141000, Note_on_c, 1, 73, 88
5, 141116, Note_off_c, 1, 73, 0
5, 141120, Note_on_c, 1, 75, 88
5, 141236, Note_off_c, 1, 75, 0
5, 141240, Note_on_c, 1, 72, 88
5, 141356, Note_off_c, 1, 72, 0
5, 141360, Note_on_c, 1, 73, 88
5, 141594, Note_off_c, 1, 73, 0
5, 141840, Note_on_c, 1, 75, 88
5, 142074, Note_off_c, 1, 75, 0
5, 142080, Note_on_c, 1, 69, 88
5, 142314, Note_off_c, 1, 69, 0
5, 142320, Note_on_c, 1, 70, 88
5, 142436, Note_off_c, 1, 70, 0
5, 142440, Note_on_c, 1, 72, 88
5, 142556, Note_off_c, 1, 72, 0
5, 142560, Note_on_c, 1, 70, 88
5, 142794, Note_off_c, 1, 70, 0
5, 142800, Note_on_c, 1, 66, 88
5, 143034, Note_off_c, 1, 66, 0
5, 143040, Note_on_c, 1, 65, 88
5, 143985, Note_off_c, 1, 65, 0
5, 144000, Note_on_c, 1, 65, 88
5, 145417, Note_off_c, 1, 65, 0
5, 145417, End_track
6, 0, Start_track
6, 0, Title_t, "Track 3"
6, 0, Program_c, 2, 6
6, 23040, Note_on_c, 2, 53, 88
6, 23510, Note_off_c, 2, 53, 0
6, 23520, Note_on_c, 2, 55, 88
6, 23990, Note_off_c, 2, 55, 0
6, 24240, Note_on_c, 2, 56, 88
6, 24474, Note_off_c, 2, 56, 0
6, 24480, Note_on_c, 2, 58, 88
6, 24714, Note_off_c, 2, 58, 0
6, 24720, Note_on_c, 2, 52, 88
6, 24954, Note_off_c, 2, 52, 0
6, 24960, Note_on_c, 2, 53, 88
6, 25430, Note_off_c, 2, 53, 0
6, 25680, Note_on_c, 2, 55, 88
6, 25914, Note_off_c, 2, 55, 0
6, 25920, Note_on_c, 2, 56, 88
6, 26036, Note_off_c, 2, 56, 0
6, 26040, Note_on_c, 2, 53, 88
6, 26156, Note_off_c, 2, 53, 0
6, 26160, Note_on_c, 2, 55, 88
6, 26276, Note_off_c, 2, 55, 0
6, 26280, Note_on_c, 2, 56, 88
6, 26396, Note_off_c, 2, 56, 0
6, 26400, Note_on_c, 2, 58, 88
6, 26516, Note_off_c, 2, 58, 0
6, 26520, Note_on_c, 2, 55, 88
6, 26636, Note_off_c, 2, 55, 0
6, 26640, Note_on_c, 2, 56, 88
6, 26756, Note_off_c, 2, 56, 0
6, 26760, Note_on_c, 2, 58, 88
6, 26876, Note_off_c, 2, 58, 0
6, 26880, Note_on_c, 2, 60, 88
6, 26996, Note_off_c, 2, 60, 0
6, 27000, Note_on_c, 2, 56, 88
6, 27116, Note_off_c, 2, 56, 0
6, 27120, Note_on_c, 2, 58, 88
6, 27236, Note_off_c, 2, 58, 0
6, 27240, Note_on_c, 2, 60, 88
6, 27356, Note_off_c, 2, 60, 0
6, 27360, Note_on_c, 2, 61, 88
6, 27476, Note_off_c, 2, 61, 0
6, 27480, Note_on_c, 2, 58, 88
6, 27596, Note_off_c, 2, 58, 0
6, 27600, Note_on_c, 2, 60, 88
6, 27834, Note_off_c, 2, 60, 0
6, 28080, Note_on_c, 2, 61, 88
6, 28314, Note_off_c, 2, 61, 0
6, 28320, Note_on_c, 2, 55, 88
6, 28554, Note_off_c, 2, 55, 0
6, 28560, Note_on_c, 2, 56, 88
6, 28676, Note_off_c, 2, 56, 0
6, 28680, Note_on_c, 2, 58, 88
6, 28796, Note_off_c, 2, 58, 0
6, 28800, Note_on_c, 2, 56, 88
6, 29034, Note_off_c, 2, 56, 0
6, 29520, Note_on_c, 2, 65, 88
6, 29754, Note_off_c, 2, 65, 0
6, 29760, Note_on_c, 2, 60, 88
6, 29994, Note_off_c, 2, 60, 0
6, 30000, Note_on_c, 2, 61, 88
6, 30116, Note_off_c, 2, 61, 0
6, 30120, Note_on_c, 2, 63, 88
6, 30236, Note_off_c, 2, 63, 0
6, 30240, Note_on_c, 2, 61, 88
6, 30474, Note_off_c, 2, 61, 0
6, 30480, Note_on_c, 2, 53, 88
6, 30714, Note_off_c, 2, 53, 0
6, 30720, Note_on_c, 2, 58, 88
6, 30954, Note_off_c, 2, 58, 0
6, 31200, Note_on_c, 2, 59, 88
6, 31434, Note_off_c, 2, 59, 0
6, 31680, Note_on_c, 2, 58, 88
6, 31914, Note_off_c, 2, 58, 0
6, 32400, Note_on_c, 2, 63, 88
6, 32634, Note_off_c, 2, 63, 0
6, 32640, Note_on_c, 2, 58, 88
6, 32874, Note_off_c, 2, 58, 0
6, 32880, Note_on_c, 2, 60, 88
6, 32996, Note_off_c, 2, 60, 0
6, 33000, Note_on_c, 2, 61, 88
6, 33116, Note_off_c, 2, 61, 0
6, 33120, Note_on_c, 2, 60, 88
6, 33354, Note_off_c, 2, 60, 0
6, 33360, Note_on_c, 2, 51, 88
6, 33594, Note_off_c, 2, 51, 0
6, 33600, Note_on_c, 2, 56, 88
6, 33834, Note_off_c, 2, 56, 0
6, 34080, Note_on_c, 2, 48, 88
6, 34314, Note_off_c, 2, 48, 0
6, 34560, Note_on_c, 2, 49, 88
6, 34794, Note_off_c, 2, 49, 0
6, 34800, Note_on_c, 2, 51, 88
6, 35034, Note_off_c, 2, 51, 0
6, 35040, Note_on_c, 2, 53, 88
6, 35274, Note_off_c, 2, 53, 0
6, 35280, Note_on_c, 2, 49, 88
6, 35514, Note_off_c, 2, 49, 0
6, 35520, Note_on_c, 2, 54, 88
6, 35754, Note_off_c, 2, 54, 0
6, 35760, Note_on_c, 2, 58, 88
6, 35994, Note_off_c, 2, 58, 0
6, 36000, Note_on_c, 2, 51, 88
6, 36234, Note_off_c, 2, 51, 0
6, 36240, Note_on_c, 2, 54, 88
6, 36474, Note_off_c, 2, 54, 0
6, 36480, Note_on_c, 2, 48, 88
6, 36714, Note_off_c, 2, 48, 0
6, 36720, Note_on_c, 2, 51, 88
6, 36954, Note_off_c, 2, 51, 0
6, 36960, Note_on_c, 2, 53, 88
6, 37194, Note_off_c, 2, 53, 0
6, 37200, Note_on_c, 2, 57, 88
6, 37434, Note_off_c, 2, 57, 0
6, 37440, Note_on_c, 2, 58, 88
6, 37910, Note_off_c, 2, 58, 0
6, 37920, Note_on_c, 2, 60, 88
6, 38390, Note_off_c, 2, 60, 0
6, 38640, Note_on_c, 2, 61, 88
6, 38874, Note_off_c, 2, 61, 0
6, 38880, Note_on_c, 2, 63, 88
6, 39114, Note_off_c, 2, 63, 0
6, 39120, Note_on_c, 2, 57, 88
6, 39354, Note_off_c, 2, 57, 0
6, 39360, Note_on_c, 2, 58, 88
6, 39830, Note_off_c, 2, 58, 0
6, 40080, Note_on_c, 2, 60, 88
6, 40314, Note_off_c, 2, 60, 0
6, 40320, Note_on_c, 2, 61, 88
6, 40436, Note_off_c, 2, 61, 0
6, 40440, Note_on_c, 2, 58, 88
6, 40556, Note_off_c, 2, 58, 0
6, 40560, Note_on_c, 2, 60, 88
6, 40676, Note_off_c, 2, 60, 0
6, 40680, Note_on_c, 2, 61, 88
6, 40796, Note_off_c, 2, 61, 0
6, 40800, Note_on_c, 2, 63, 88
6, 40916, Note_off_c, 2, 63, 0
6, 40920, Note_on_c, 2, 60, 88
6, 41036, Note_off_c, 2, 60, 0
6, 41040, Note_on_c, 2, 61, 88
6, 41156, Note_off_c, 2, 61, 0
6, 41160, Note_on_c, 2, 63, 88
6, 41276, Note_off_c, 2, 63, 0
6, 41280, Note_on_c, 2, 65, 88
6, 41396, Note_off_c, 2, 65, 0
6, 41400, Note_on_c, 2, 61, 88
6, 41516, Note_off_c, 2, 61, 0
6, 41520, Note_on_c, 2, 63, 88
6, 41636, Note_off_c, 2, 63, 0
6, 41640, Note_on_c, 2, 65, 88
6, 41756, Note_off_c, 2, 65, 0
6, 41760, Note_on_c, 2, 66, 88
6, 41876, Note_off_c, 2, 66, 0
6, 41880, Note_on_c, 2, 63, 88
6, 41996, Note_off_c, 2, 63, 0
6, 42000, Note_on_c, 2, 65, 88
6, 42234, Note_off_c, 2, 65, 0
6, 42480, Note_on_c, 2, 66, 88
6, 42714, Note_off_c, 2, 66, 0
6, 42720, Note_on_c, 2, 60, 88
6, 42954, Note_off_c, 2, 60, 0
6, 42960, Note_on_c, 2, 61, 88
6, 43076, Note_off_c, 2, 61, 0
6, 43080, Note_on_c, 2, 63, 88
6, 43196, Note_off_c, 2, 63, 0
6, 43200, Note_on_c, 2, 61, 88
6, 43434, Note_off_c, 2, 61, 0
6, 43440, Note_on_c, 2, 58, 88
6, 43674, Note_off_c, 2, 58, 0
6, 43680, Note_on_c, 2, 63, 88
6, 43914, Note_off_c, 2, 63, 0
6, 43920, Note_on_c, 2, 65, 88
6, 44036, Note_off_c, 2, 65, 0
6, 44040, Note_on_c, 2, 66, 88
6, 44156, Note_off_c, 2, 66, 0
6, 44160, Note_on_c, 2, 65, 88
6, 44394, Note_off_c, 2, 65, 0
6, 44400, Note_on_c, 2, 63, 88
6, 44634, Note_off_c, 2, 63, 0
6, 44640, Note_on_c, 2, 62, 88
6, 44874, Note_off_c, 2, 62, 0
6, 44880, Note_on_c, 2, 63, 88
6, 44996, Note_off_c, 2, 63, 0
6, 45000, Note_on_c, 2, 65, 88
6, 45116, Note_off_c, 2, 65, 0
6, 45120, Note_on_c, 2, 63, 88
6, 45354, Note_off_c, 2, 63, 0
6, 45360, Note_on_c, 2, 61, 88
6, 45594, Note_off_c, 2, 61, 0
6, 45600, Note_on_c, 2, 60, 88
6, 45834, Note_off_c, 2, 60, 0
6, 45840, Note_on_c, 2, 61, 88
6, 45956, Note_off_c, 2, 61, 0
6, 45960, Note_on_c, 2, 63, 88
6, 46076, Note_off_c, 2, 63, 0
6, 46080, Note_on_c, 2, 61, 88
6, 46314, Note_off_c, 2, 61, 0
6, 46320, Note_on_c, 2, 60, 88
6, 46436, Note_off_c, 2, 60, 0
6, 46440, Note_on_c, 2, 58, 88
6, 46556, Note_off_c, 2, 58, 0
6, 46560, Note_on_c, 2, 56, 88
6, 48583, Note_off_c, 2, 56, 0
6, 48600, Note_on_c, 2, 54, 88
6, 48716, Note_off_c, 2, 54, 0
6, 48720, Note_on_c, 2, 53, 88
6, 48836, Note_off_c, 2, 53, 0
6, 48840, Note_on_c, 2, 51, 88
6, 48956, Note_off_c, 2, 51, 0
6, 48960, Note_on_c, 2, 49, 88
6, 49194, Note_off_c, 2, 49, 0
6, 49200, Note_on_c, 2, 61, 88
6, 49434, Note_off_c, 2, 61, 0
6, 49440, Note_on_c, 2, 60, 88
6, 49674, Note_off_c, 2, 60, 0
6, 49920, Note_on_c, 2, 56, 88
6, 50154, Note_off_c, 2, 56, 0
6, 50400, Note_on_c, 2, 63, 88
6, 50634, Note_off_c, 2, 63, 0
6, 50880, Note_on_c, 2, 65, 88
6, 51114, Note_off_c, 2, 65, 0
6, 51120, Note_on_c, 2, 63, 88
6, 51236, Note_off_c, 2, 63, 0
6, 51240, Note_on_c, 2, 61, 88
6, 51356, Note_off_c, 2, 61, 0
6, 51360, Note_on_c, 2, 68, 88
6, 52310, Note_off_c, 2, 68, 0
6, 54960, Note_on_c, 2, 63, 88
6, 55194, Note_off_c, 2, 63, 0
6, 55200, Note_on_c, 2, 62, 88
6, 55434, Note_off_c, 2, 62, 0
6, 55440, Note_on_c, 2, 61, 88
6, 55910, Note_off_c, 2, 61, 0
6, 55920, Note_on_c, 2, 60, 88
6, 56036, Note_off_c, 2, 60, 0
6, 56040, Note_on_c, 2, 58, 88
6, 56156, Note_off_c, 2, 58, 0
6, 56160, Note_on_c, 2, 60, 88
6, 56394, Note_off_c, 2, 60, 0
6, 56400, Note_on_c, 2, 58, 88
6, 56516, Note_off_c, 2, 58, 0
6, 56520, Note_on_c, 2, 56, 88
6, 56636, Note_off_c, 2, 56, 0
6, 56640, Note_on_c, 2, 61, 88
6, 56874, Note_off_c, 2, 61, 0
6, 56880, Note_on_c, 2, 60, 88
6, 56996, Note_off_c, 2, 60, 0
6, 57000, Note_on_c, 2, 58, 88
6, 57116, Note_off_c, 2, 58, 0
6, 57120, Note_on_c, 2, 63, 88
6, 57354, Note_off_c, 2, 63, 0
6, 57360, Note_on_c, 2, 61, 88
6, 57476, Note_off_c, 2, 61, 0
6, 57480, Note_on_c, 2, 60, 88
6, 57596, Note_off_c, 2, 60, 0
6, 57600, Note_on_c, 2, 61, 88
6, 57834, Note_off_c, 2, 61, 0
6, 59040, Note_on_c, 2, 65, 88
6, 59510, Note_off_c, 2, 65, 0
6, 59520, Note_on_c, 2, 63, 88
6, 59990, Note_off_c, 2, 63, 0
6, 60240, Note_on_c, 2, 61, 88
6, 60474, Note_off_c, 2, 61, 0
6, 60480, Note_on_c, 2, 60, 88
6, 60714, Note_off_c, 2, 60, 0
6, 60720, Note_on_c, 2, 66, 88
6, 60954, Note_off_c, 2, 66, 0
6, 60960, Note_on_c, 2, 65, 88
6, 61430, Note_off_c, 2, 65, 0
6, 61680, Note_on_c, 2, 63, 88
6, 61914, Note_off_c, 2, 63, 0
6, 61920, Note_on_c, 2, 61, 88
6, 62036, Note_off_c, 2, 61, 0
6, 62040, Note_on_c, 2, 65, 88
6, 62156, Note_off_c, 2, 65, 0
6, 62160, Note_on_c, 2, 63, 88
6, 62276, Note_off_c, 2, 63, 0
6, 62280, Note_on_c, 2, 61, 88
6, 62396, Note_off_c, 2, 61, 0
6, 62400, Note_on_c, 2, 60, 88
6, 62516, Note_off_c, 2, 60, 0
6, 62520, Note_on_c, 2, 63, 88
6, 62636, Note_off_c, 2, 63, 0
6, 62640, Note_on_c, 2, 61, 88
6, 62756, Note_off_c, 2, 61, 0
6, 62760, Note_on_c, 2, 60, 88
6, 62876, Note_off_c, 2, 60, 0
6, 62880, Note_on_c, 2, 58, 88
6, 62996, Note_off_c, 2, 58, 0
6, 63000, Note_on_c, 2, 61, 88
6, 63116, Note_off_c, 2, 61, 0
6, 63120, Note_on_c, 2, 60, 88
6, 63236, Note_off_c, 2, 60, 0
6, 63240, Note_on_c, 2, 58, 88
6, 63356, Note_off_c, 2, 58, 0
6, 63360, Note_on_c, 2, 57, 88
6, 63476, Note_off_c, 2, 57, 0
6, 63480, Note_on_c, 2, 60, 88
6, 63596, Note_off_c, 2, 60, 0
6, 63600, Note_on_c, 2, 58, 88
6, 63834, Note_off_c, 2, 58, 0
6, 64080, Note_on_c, 2, 57, 88
6, 64314, Note_off_c, 2, 57, 0
6, 64320, Note_on_c, 2, 63, 88
6, 64554, Note_off_c, 2, 63, 0
6, 64560, Note_on_c, 2, 61, 88
6, 64676, Note_off_c, 2, 61, 0
6, 64680, Note_on_c, 2, 60, 88
6, 64796, Note_off_c, 2, 60, 0
6, 64800, Note_on_c, 2, 61, 88
6, 65034, Note_off_c, 2, 61, 0
6, 65040, Note_on_c, 2, 66, 88
6, 65274, Note_off_c, 2, 66, 0
6, 65280, Note_on_c, 2, 65, 88
6, 65514, Note_off_c, 2, 65, 0
6, 65520, Note_on_c, 2, 64, 88
6, 65754, Note_off_c, 2, 64, 0
6, 65760, Note_on_c, 2, 63, 88
6, 66230, Note_off_c, 2, 63, 0
6, 66480, Note_on_c, 2, 63, 88
6, 66714, Note_off_c, 2, 63, 0
6, 66720, Note_on_c, 2, 62, 88
6, 66954, Note_off_c, 2, 62, 0
6, 66960, Note_on_c, 2, 61, 88
6, 67194, Note_off_c, 2, 61, 0
6, 67200, Note_on_c, 2, 60, 88
6, 67434, Note_off_c, 2, 60, 0
6, 67440, Note_on_c, 2, 59, 88
6, 67674, Note_off_c, 2, 59, 0
6, 67680, Note_on_c, 2, 58, 88
6, 69338, Note_off_c, 2, 58, 0
6, 69360, Note_on_c, 2, 58, 88
6, 69594, Note_off_c, 2, 58, 0
6, 69600, Note_on_c, 2, 56, 88
6, 69716, Note_off_c, 2, 56, 0
6, 69720, Note_on_c, 2, 58, 88
6, 69836, Note_off_c, 2, 58, 0
6, 69840, Note_on_c, 2, 59, 88
6, 70074, Note_off_c, 2, 59, 0
6, 70080, Note_on_c, 2, 53, 88
6, 70314, Note_off_c, 2, 53, 0
6, 70320, Note_on_c, 2, 62, 88
6, 70554, Note_off_c, 2, 62, 0
6, 70560, Note_on_c, 2, 63, 88
6, 70794, Note_off_c, 2, 63, 0
6, 70800, Note_on_c, 2, 65, 88
6, 71034, Note_off_c, 2, 65, 0
6, 71040, Note_on_c, 2, 66, 88
6, 71274, Note_off_c, 2, 66, 0
6, 71280, Note_on_c, 2, 60, 88
6, 71396, Note_off_c, 2, 60, 0
6, 71400, Note_on_c, 2, 61, 88
6, 71516, Note_off_c, 2, 61, 0
6, 71520, Note_on_c, 2, 63, 88
6, 71754, Note_off_c, 2, 63, 0
6, 71760, Note_on_c, 2, 57, 88
6, 71994, Note_off_c, 2, 57, 0
6, 72000, Note_on_c, 2, 58, 88
6, 72116, Note_off_c, 2, 58, 0
6, 72120, Note_on_c, 2, 60, 88
6, 72236, Note_off_c, 2, 60, 0
6, 72240, Note_on_c, 2, 61, 88
6, 72710, Note_off_c, 2, 61, 0
6, 72720, Note_on_c, 2, 60, 88
6, 72836, Note_off_c, 2, 60, 0
6, 72840, Note_on_c, 2, 61, 88
6, 72956, Note_off_c, 2, 61, 0
6, 72960, Note_on_c, 2, 63, 88
6, 73194, Note_off_c, 2, 63, 0
6, 73200, Note_on_c, 2, 54, 88
6, 73434, Note_off_c, 2, 54, 0
6, 73440, Note_on_c, 2, 53, 88
6, 73674, Note_off_c, 2, 53, 0
6, 73680, Note_on_c, 2, 55, 88
6, 74150, Note_off_c, 2, 55, 0
6, 74160, Note_on_c, 2, 53, 88
6, 74630, Note_off_c, 2, 53, 0
6, 74640, Note_on_c, 2, 52, 88
6, 74874, Note_off_c, 2, 52, 0
6, 74880, Note_on_c, 2, 53, 88
6, 75114, Note_off_c, 2, 53, 0
6, 75120, Note_on_c, 2, 57, 88
6, 75354, Note_off_c, 2, 57, 0
6, 75360, Note_on_c, 2, 58, 88
6, 75594, Note_off_c, 2, 58, 0
6, 75600, Note_on_c, 2, 56, 88
6, 75716, Note_off_c, 2, 56, 0
6, 75720, Note_on_c, 2, 55, 88
6, 75836, Note_off_c, 2, 55, 0
6, 75840, Note_on_c, 2, 56, 88
6, 76074, Note_off_c, 2, 56, 0
6, 76080, Note_on_c, 2, 54, 88
6, 76196, Note_off_c, 2, 54, 0
6, 76200, Note_on_c, 2, 53, 88
6, 76316, Note_off_c, 2, 53, 0
6, 76320, Note_on_c, 2, 54, 88
6, 76554, Note_off_c, 2, 54, 0
6, 76800, Note_on_c, 2, 53, 88
6, 77034, Note_off_c, 2, 53, 0
6, 77280, Note_on_c, 2, 51, 88
6, 77514, Note_off_c, 2, 51, 0
6, 77760, Note_on_c, 2, 49, 88
6, 79434, Note_off_c, 2, 49, 0
6, 79440, Note_on_c, 2, 47, 88
6, 79556, Note_off_c, 2, 47, 0
6, 79560, Note_on_c, 2, 46, 88
6, 79676, Note_off_c, 2, 46, 0
6, 79680, Note_on_c, 2, 47, 88
6, 79914, Note_off_c, 2, 47, 0
6, 79920, Note_on_c, 2, 52, 88
6, 80390, Note_off_c, 2, 52, 0
6, 80400, Note_on_c, 2, 51, 88
6, 80516, Note_off_c, 2, 51, 0
6, 80520, Note_on_c, 2, 49, 88
6, 80636, Note_off_c, 2, 49, 0
6, 80640, Note_on_c, 2, 51, 88
6, 80874, Note_off_c, 2, 51, 0
6, 80880, Note_on_c, 2, 56, 88
6, 81350, Note_off_c, 2, 56, 0
6, 81360, Note_on_c, 2, 55, 88
6, 81476, Note_off_c, 2, 55, 0
6, 81480, Note_on_c, 2, 53, 88
6, 81596, Note_off_c, 2, 53, 0
6, 81600, Note_on_c, 2, 55, 88
6, 81834, Note_off_c, 2, 55, 0
6, 81840, Note_on_c, 2, 56, 88
6, 81956, Note_off_c, 2, 56, 0
6, 81960, Note_on_c, 2, 58, 88
6, 82076, Note_off_c, 2, 58, 0
6, 82080, Note_on_c, 2, 59, 88
6, 82550, Note_off_c, 2, 59, 0
6, 82560, Note_on_c, 2, 58, 88
6, 83030, Note_off_c, 2, 58, 0
6, 83040, Note_on_c, 2, 56, 88
6, 83274, Note_off_c, 2, 56, 0
6, 83280, Note_on_c, 2, 58, 88
6, 83396, Note_off_c, 2, 58, 0
6, 83400, Note_on_c, 2, 59, 88
6, 83516, Note_off_c, 2, 59, 0
6, 83520, Note_on_c, 2, 61, 88
6, 83754, Note_off_c, 2, 61, 0
6, 84240, Note_on_c, 2, 63, 88
6, 84474, Note_off_c, 2, 63, 0
6, 84480, Note_on_c, 2, 65, 88
6, 84714, Note_off_c, 2, 65, 0
6, 84720, Note_on_c, 2, 67, 88
6, 84954, Note_off_c, 2, 67, 0
6, 84960, Note_on_c, 2, 68, 88
6, 85194, Note_off_c, 2, 68, 0
6, 85440, Note_on_c, 2, 67, 88
6, 85674, Note_off_c, 2, 67, 0
6, 85920, Note_on_c, 2, 68, 88
6, 86154, Note_off_c, 2, 68, 0
6, 86400, Note_on_c, 2, 63, 88
6, 86634, Note_off_c, 2, 63, 0
6, 95040, Note_on_c, 2, 65, 88
6, 95510, Note_off_c, 2, 65, 0
6, 95520, Note_on_c, 2, 63, 88
6, 95990, Note_off_c, 2, 63, 0
6, 96240, Note_on_c, 2, 61, 88
6, 96474, Note_off_c, 2, 61, 0
6, 96480, Note_on_c, 2, 60, 88
6, 96714, Note_off_c, 2, 60, 0
6, 96720, Note_on_c, 2, 66, 88
6, 96954, Note_off_c, 2, 66, 0
6, 96960, Note_on_c, 2, 65, 88
6, 97430, Note_off_c, 2, 65, 0
6, 97680, Note_on_c, 2, 63, 88
6, 97914, Note_off_c, 2, 63, 0
6, 97920, Note_on_c, 2, 61, 88
6, 98036, Note_off_c, 2, 61, 0
6, 98040, Note_on_c, 2, 65, 88
6, 98156, Note_off_c, 2, 65, 0
6, 98160, Note_on_c, 2, 63, 88
6, 98276, Note_off_c, 2, 63, 0
6, 98280, Note_on_c, 2, 61, 88
6, 98396, Note_off_c, 2, 61, 0
6, 98400, Note_on_c, 2, 60, 88
6, 98516, Note_off_c, 2, 60, 0
6, 98520, Note_on_c, 2, 63, 88
6, 98636, Note_off_c, 2, 63, 0
6, 98640, Note_on_c, 2, 61, 88
6, 98756, Note_off_c, 2, 61, 0
6, 98760, Note_on_c, 2, 60, 88
6, 98876, Note_off_c, 2, 60, 0
6, 98880, Note_on_c, 2, 58, 88
6, 98996, Note_off_c, 2, 58, 0
6, 99000, Note_on_c, 2, 61, 88
6, 99116, Note_off_c, 2, 61, 0
6, 99120, Note_on_c, 2, 60, 88
6, 99236, Note_off_c, 2, 60, 0
6, 99240, Note_on_c, 2, 58, 88
6, 99356, Note_off_c, 2, 58, 0
6, 99360, Note_on_c, 2, 57, 88
6, 99476, Note_off_c, 2, 57, 0
6, 99480, Note_on_c, 2, 60, 88
6, 99596, Note_off_c, 2, 60, 0
6, 99600, Note_on_c, 2, 58, 88
6, 99834, Note_off_c, 2, 58, 0
6, 100080, Note_on_c, 2, 57, 88
6, 100314, Note_off_c, 2, 57, 0
6, 100320, Note_on_c, 2, 63, 88
6, 100554, Note_off_c, 2, 63, 0
6, 100560, Note_on_c, 2, 61, 88
6, 100676, Note_off_c, 2, 61, 0
6, 100680, Note_on_c, 2, 60, 88
6, 100796, Note_off_c, 2, 60, 0
6, 100800, Note_on_c, 2, 61, 88
6, 101508, Note_off_c, 2, 61, 0
6, 101520, Note_on_c, 2, 60, 88
6, 101636, Note_off_c, 2, 60, 0
6, 101640, Note_on_c, 2, 58, 88
6, 101756, Note_off_c, 2, 58, 0
6, 101760, Note_on_c, 2, 60, 88
6, 101994, Note_off_c, 2, 60, 0
6, 102000, Note_on_c, 2, 65, 88
6, 102474, Note_off_c, 2, 65, 0
6, 102480, Note_on_c, 2, 64, 88
6, 102714, Note_off_c, 2, 64, 0
6, 102720, Note_on_c, 2, 65, 88
6, 102954, Note_off_c, 2, 65, 0
6, 102960, Note_on_c, 2, 56, 88
6, 103194, Note_off_c, 2, 56, 0
6, 103200, Note_on_c, 2, 55, 88
6, 103316, Note_off_c, 2, 55, 0
6, 103320, Note_on_c, 2, 56, 88
6, 103436, Note_off_c, 2, 56, 0
6, 103440, Note_on_c, 2, 58, 88
6, 103674, Note_off_c, 2, 58, 0
6, 103680, Note_on_c, 2, 56, 88
6, 103796, Note_off_c, 2, 56, 0
6, 103800, Note_on_c, 2, 58, 88
6, 103916, Note_off_c, 2, 58, 0
6, 103920, Note_on_c, 2, 56, 88
6, 104036, Note_off_c, 2, 56, 0
6, 104040, Note_on_c, 2, 55, 88
6, 104156, Note_off_c, 2, 55, 0
6, 104160, Note_on_c, 2, 53, 88
6, 104276, Note_off_c, 2, 53, 0
6, 104280, Note_on_c, 2, 52, 88
6, 104396, Note_off_c, 2, 52, 0
6, 104400, Note_on_c, 2, 53, 88
6, 104516, Note_off_c, 2, 53, 0
6, 104520, Note_on_c, 2, 55, 88
6, 104636, Note_off_c, 2, 55, 0
6, 104640, Note_on_c, 2, 56, 88
6, 104756, Note_off_c, 2, 56, 0
6, 104760, Note_on_c, 2, 55, 88
6, 104876, Note_off_c, 2, 55, 0
6, 104880, Note_on_c, 2, 56, 88
6, 104996, Note_off_c, 2, 56, 0
6, 105000, Note_on_c, 2, 58, 88
6, 105116, Note_off_c, 2, 58, 0
6, 105120, Note_on_c, 2, 60, 88
6, 105354, Note_off_c, 2, 60, 0
6, 105840, Note_on_c, 2, 54, 88
6, 106074, Note_off_c, 2, 54, 0
6, 106080, Note_on_c, 2, 53, 88
6, 106314, Note_off_c, 2, 53, 0
6, 106320, Note_on_c, 2, 55, 88
6, 106554, Note_off_c, 2, 55, 0
6, 106560, Note_on_c, 2, 56, 88
6, 106676, Note_off_c, 2, 56, 0
6, 106680, Note_on_c, 2, 58, 88
6, 106796, Note_off_c, 2, 58, 0
6, 106800, Note_on_c, 2, 60, 88
6, 107034, Note_off_c, 2, 60, 0
6, 108240, Note_on_c, 2, 60, 88
6, 108474, Note_off_c, 2, 60, 0
6, 108480, Note_on_c, 2, 61, 88
6, 108714, Note_off_c, 2, 61, 0
6, 108720, Note_on_c, 2, 58, 88
6, 108954, Note_off_c, 2, 58, 0
6, 108960, Note_on_c, 2, 52, 88
6, 109194, Note_off_c, 2, 52, 0
6, 109200, Note_on_c, 2, 53, 88
6, 109674, Note_off_c, 2, 53, 0
6, 109680, Note_on_c, 2, 61, 88
6, 109914, Note_off_c, 2, 61, 0
6, 109920, Note_on_c, 2, 52, 88
6, 110628, Note_off_c, 2, 52, 0
6, 110640, Note_on_c, 2, 50, 88
6, 110756, Note_off_c, 2, 50, 0
6, 110760, Note_on_c, 2, 48, 88
6, 110876, Note_off_c, 2, 48, 0
6, 110880, Note_on_c, 2, 53, 88
6, 111588, Note_off_c, 2, 53, 0
6, 111600, Note_on_c, 2, 51, 88
6, 111716, Note_off_c, 2, 51, 0
6, 111720, Note_on_c, 2, 49, 88
6, 111836, Note_off_c, 2, 49, 0
6, 111840, Note_on_c, 2, 55, 88
6, 112554, Note_off_c, 2, 55, 0
6, 112560, Note_on_c, 2, 53, 88
6, 112676, Note_off_c, 2, 53, 0
6, 112680, Note_on_c, 2, 51, 88
6, 112796, Note_off_c, 2, 51, 0
6, 112800, Note_on_c, 2, 56, 88
6, 113508, Note_off_c, 2, 56, 0
6, 113520, Note_on_c, 2, 55, 88
6, 113636, Note_off_c, 2, 55, 0
6, 113640, Note_on_c, 2, 53, 88
6, 113756, Note_off_c, 2, 53, 0
6, 113760, Note_on_c, 2, 58, 88
6, 113994, Note_off_c, 2, 58, 0
6, 114000, Note_on_c, 2, 60, 88
6, 114234, Note_off_c, 2, 60, 0
6, 114240, Note_on_c, 2, 55, 88
6, 114710, Note_off_c, 2, 55, 0
6, 114720, Note_on_c, 2, 56, 88
6, 115190, Note_off_c, 2, 56, 0
6, 115440, Note_on_c, 2, 58, 88
6, 115674, Note_off_c, 2, 58, 0
6, 115680, Note_on_c, 2, 60, 88
6, 115914, Note_off_c, 2, 60, 0
6, 115920, Note_on_c, 2, 53, 88
6, 116154, Note_off_c, 2, 53, 0
6, 116160, Note_on_c, 2, 55, 88
6, 116630, Note_off_c, 2, 55, 0
6, 116880, Note_on_c, 2, 56, 88
6, 117114, Note_off_c, 2, 56, 0
6, 117120, Note_on_c, 2, 58, 88
6, 117236, Note_off_c, 2, 58, 0
6, 117240, Note_on_c, 2, 55, 88
6, 117356, Note_off_c, 2, 55, 0
6, 117360, Note_on_c, 2, 56, 88
6, 117476, Note_off_c, 2, 56, 0
6, 117480, Note_on_c, 2, 58, 88
6, 117596, Note_off_c, 2, 58, 0
6, 117600, Note_on_c, 2, 60, 88
6, 117716, Note_off_c, 2, 60, 0
6, 117720, Note_on_c, 2, 56, 88
6, 117836, Note_off_c, 2, 56, 0
6, 117840, Note_on_c, 2, 58, 88
6, 117956, Note_off_c, 2, 58, 0
6, 117960, Note_on_c, 2, 60, 88
6, 118076, Note_off_c, 2, 60, 0
6, 118080, Note_on_c, 2, 61, 88
6, 118196, Note_off_c, 2, 61, 0
6, 118200, Note_on_c, 2, 58, 88
6, 118316, Note_off_c, 2, 58, 0
6, 118320, Note_on_c, 2, 60, 88
6, 118436, Note_off_c, 2, 60, 0
6, 118440, Note_on_c, 2, 61, 88
6, 118556, Note_off_c, 2, 61, 0
6, 118560, Note_on_c, 2, 63, 88
6, 118676, Note_off_c, 2, 63, 0
6, 118680, Note_on_c, 2, 60, 88
6, 118796, Note_off_c, 2, 60, 0
6, 118800, Note_on_c, 2, 61, 88
6, 119034, Note_off_c, 2, 61, 0
6, 119280, Note_on_c, 2, 63, 88
6, 119514, Note_off_c, 2, 63, 0
6, 119520, Note_on_c, 2, 56, 88
6, 119754, Note_off_c, 2, 56, 0
6, 119760, Note_on_c, 2, 58, 88
6, 119876, Note_off_c, 2, 58, 0
6, 119880, Note_on_c, 2, 60, 88
6, 119996, Note_off_c, 2, 60, 0
6, 120000, Note_on_c, 2, 58, 88
6, 120234, Note_off_c, 2, 58, 0
6, 120240, Note_on_c, 2, 60, 88
6, 120356, Note_off_c, 2, 60, 0
6, 120360, Note_on_c, 2, 61, 88
6, 120476, Note_off_c, 2, 61, 0
6, 120480, Note_on_c, 2, 63, 88
6, 121194, Note_off_c, 2, 63, 0
6, 121200, Note_on_c, 2, 66, 88
6, 121670, Note_off_c, 2, 66, 0
6, 121680, Note_on_c, 2, 65, 88
6, 121796, Note_off_c, 2, 65, 0
6, 121800, Note_on_c, 2, 63, 88
6, 121916, Note_off_c, 2, 63, 0
6, 121920, Note_on_c, 2, 65, 88
6, 122154, Note_off_c, 2, 65, 0
6, 122160, Note_on_c, 2, 68, 88
6, 122394, Note_off_c, 2, 68, 0
6, 122400, Note_on_c, 2, 62, 88
6, 122634, Note_off_c, 2, 62, 0
6, 123120, Note_on_c, 2, 58, 88
6, 123354, Note_off_c, 2, 58, 0
6, 123360, Note_on_c, 2, 68, 88
6, 123594, Note_off_c, 2, 68, 0
6, 123600, Note_on_c, 2, 66, 88
6, 123716, Note_off_c, 2, 66, 0
6, 123720, Note_on_c, 2, 65, 88
6, 123836, Note_off_c, 2, 65, 0
6, 123840, Note_on_c, 2, 66, 88
6, 123956, Note_off_c, 2, 66, 0
6, 123960, Note_on_c, 2, 65, 88
6, 124076, Note_off_c, 2, 65, 0
6, 124080, Note_on_c, 2, 66, 88
6, 124314, Note_off_c, 2, 66, 0
6, 124320, Note_on_c, 2, 60, 88
6, 125028, Note_off_c, 2, 60, 0
6, 125040, Note_on_c, 2, 58, 88
6, 125514, Note_off_c, 2, 58, 0
6, 125520, Note_on_c, 2, 57, 88
6, 125636, Note_off_c, 2, 57, 0
6, 125640, Note_on_c, 2, 55, 88
6, 125756, Note_off_c, 2, 55, 0
6, 125760, Note_on_c, 2, 57, 88
6, 125994, Note_off_c, 2, 57, 0
6, 126000, Note_on_c, 2, 60, 88
6, 126234, Note_off_c, 2, 60, 0
6, 126240, Note_on_c, 2, 53, 88
6, 126954, Note_off_c, 2, 53, 0
6, 126960, Note_on_c, 2, 51, 88
6, 127076, Note_off_c, 2, 51, 0
6, 127080, Note_on_c, 2, 49, 88
6, 127196, Note_off_c, 2, 49, 0
6, 127200, Note_on_c, 2, 51, 88
6, 127434, Note_off_c, 2, 51, 0
6, 127440, Note_on_c, 2, 63, 88
6, 127910, Note_off_c, 2, 63, 0
6, 127920, Note_on_c, 2, 61, 88
6, 128394, Note_off_c, 2, 61, 0
6, 128400, Note_on_c, 2, 60, 88
6, 128870, Note_off_c, 2, 60, 0
6, 128880, Note_on_c, 2, 59, 88
6, 129114, Note_off_c, 2, 59, 0
6, 129120, Note_on_c, 2, 58, 88
6, 129354, Note_off_c, 2, 58, 0
6, 129360, Note_on_c, 2, 57, 88
6, 129594, Note_off_c, 2, 57, 0
6, 129600, Note_on_c, 2, 58, 88
6, 131274, Note_off_c, 2, 58, 0
6, 131280, Note_on_c, 2, 57, 88
6, 131514, Note_off_c, 2, 57, 0
6, 131520, Note_on_c, 2, 58, 88
6, 131990, Note_off_c, 2, 58, 0
6, 132000, Note_on_c, 2, 56, 88
6, 132950, Note_off_c, 2, 56, 0
6, 132960, Note_on_c, 2, 55, 88
6, 133430, Note_off_c, 2, 55, 0
6, 133440, Note_on_c, 2, 54, 88
6, 133910, Note_off_c, 2, 54, 0
6, 133920, Note_on_c, 2, 53, 88
6, 134983, Note_off_c, 2, 53, 0
6, 135000, Note_on_c, 2, 54, 88
6, 135116, Note_off_c, 2, 54, 0
6, 135120, Note_on_c, 2, 53, 88
6, 135236, Note_off_c, 2, 53, 0
6, 135240, Note_on_c, 2, 52, 88
6, 135356, Note_off_c, 2, 52, 0
6, 135360, Note_on_c, 2, 53, 88
6, 136068, Note_off_c, 2, 53, 0
6, 136080, Note_on_c, 2, 60, 88
6, 136314, Note_off_c, 2, 60, 0
6, 136320, Note_on_c, 2, 65, 88
6, 136790, Note_off_c, 2, 65, 0
6, 137280, Note_on_c, 2, 54, 88
6, 137750, Note_off_c, 2, 54, 0
6, 137760, Note_on_c, 2, 53, 88
6, 138230, Note_off_c, 2, 53, 0
6, 138480, Note_on_c, 2, 51, 88
6, 138714, Note_off_c, 2, 51, 0
6, 138720, Note_on_c, 2, 50, 88
6, 138954, Note_off_c, 2, 50, 0
6, 138960, Note_on_c, 2, 56, 88
6, 139194, Note_off_c, 2, 56, 0
6, 139200, Note_on_c, 2, 54, 88
6, 139670, Note_off_c, 2, 54, 0
6, 139920, Note_on_c, 2, 53, 88
6, 140154, Note_off_c, 2, 53, 0
6, 140160, Note_on_c, 2, 51, 88
6, 140276, Note_off_c, 2, 51, 0
6, 140280, Note_on_c, 2, 54, 88
6, 140396, Note_off_c, 2, 54, 0
6, 140400, Note_on_c, 2, 53, 88
6, 140516, Note_off_c, 2, 53, 0
6, 140520, Note_on_c, 2, 51, 88
6, 140636, Note_off_c, 2, 51, 0
6, 140640, Note_on_c, 2, 49, 88
6, 140756, Note_off_c, 2, 49, 0
6, 140760, Note_on_c, 2, 53, 88
6, 140876, Note_off_c, 2, 53, 0
6, 140880, Note_on_c, 2, 51, 88
6, 140996, Note_off_c, 2, 51, 0
6, 141000, Note_on_c, 2, 49, 88
6, 141116, Note_off_c, 2, 49, 0
6, 141120, Note_on_c, 2, 48, 88
6, 141236, Note_off_c, 2, 48, 0
6, 141240, Note_on_c, 2, 51, 88
6, 141356, Note_off_c, 2, 51, 0
6, 141360, Note_on_c, 2, 49, 88
6, 141476, Note_off_c, 2, 49, 0
6, 141480, Note_on_c, 2, 48, 88
6, 141596, Note_off_c, 2, 48, 0
6, 141600, Note_on_c, 2, 46, 88
6, 141716, Note_off_c, 2, 46, 0
6, 141720, Note_on_c, 2, 49, 88
6, 141836, Note_off_c, 2, 49, 0
6, 141840, Note_on_c, 2, 48, 88
6, 142074, Note_off_c, 2, 48, 0
6, 142320, Note_on_c, 2, 53, 88
6, 142554, Note_off_c, 2, 53, 0
6, 142560, Note_on_c, 2, 65, 88
6, 142794, Note_off_c, 2, 65, 0
6, 142800, Note_on_c, 2, 63, 88
6, 143034, Note_off_c, 2, 63, 0
6, 143040, Note_on_c, 2, 61, 88
6, 143510, Note_off_c, 2, 61, 0
6, 143520, Note_on_c, 2, 60, 88
6, 143990, Note_off_c, 2, 60, 0
6, 144000, Note_on_c, 2, 62, 88
6, 145417, Note_off_c, 2, 62, 0
6, 145417, End_track
7, 0, Start_track
7, 0, Title_t, "Track 4"
7, 0, Program_c, 3, 6
7, 14400, Note_on_c, 3, 46, 88
7, 14870, Note_off_c, 3, 46, 0
7, 14880, Note_on_c, 3, 48, 88
7, 15350, Note_off_c, 3, 48, 0
7, 15600, Note_on_c, 3, 49, 88
7, 15834, Note_off_c, 3, 49, 0
7, 15840, Note_on_c, 3, 51, 88
7, 16074, Note_off_c, 3, 51, 0
7, 16080, Note_on_c, 3, 45, 88
7, 16314, Note_off_c, 3, 45, 0
7, 16320, Note_on_c, 3, 46, 88
7, 16790, Note_off_c, 3, 46, 0
7, 17040, Note_on_c, 3, 48, 88
7, 17274, Note_off_c, 3, 48, 0
7, 17280, Note_on_c, 3, 49, 88
7, 17396, Note_off_c, 3, 49, 0
7, 17400, Note_on_c, 3, 46, 88
7, 17516, Note_off_c, 3, 46, 0
7, 17520, Note_on_c, 3, 48, 88
7, 17636, Note_off_c, 3, 48, 0
7, 17640, Note_on_c, 3, 49, 88
7, 17756, Note_off_c, 3, 49, 0
7, 17760, Note_on_c, 3, 51, 88
7, 17876, Note_off_c, 3, 51, 0
7, 17880, Note_on_c, 3, 48, 88
7, 17996, Note_off_c, 3, 48, 0
7, 18000, Note_on_c, 3, 49, 88
7, 18116, Note_off_c, 3, 49, 0
7, 18120, Note_on_c, 3, 51, 88
7, 18236, Note_off_c, 3, 51, 0
7, 18240, Note_on_c, 3, 53, 88
7, 18356, Note_off_c, 3, 53, 0
7, 18360, Note_on_c, 3, 49, 88
7, 18476, Note_off_c, 3, 49, 0
7, 18480, Note_on_c, 3, 51, 88
7, 18596, Note_off_c, 3, 51, 0
7, 18600, Note_on_c, 3, 53, 88
7, 18716, Note_off_c, 3, 53, 0
7, 18720, Note_on_c, 3, 54, 88
7, 18836, Note_off_c, 3, 54, 0
7, 18840, Note_on_c, 3, 51, 88
7, 18956, Note_off_c, 3, 51, 0
7, 18960, Note_on_c, 3, 53, 88
7, 19194, Note_off_c, 3, 53, 0
7, 19440, Note_on_c, 3, 54, 88
7, 19674, Note_off_c, 3, 54, 0
7, 19680, Note_on_c, 3, 48, 88
7, 19914, Note_off_c, 3, 48, 0
7, 19920, Note_on_c, 3, 50, 88
7, 20036, Note_off_c, 3, 50, 0
7, 20040, Note_on_c, 3, 51, 88
7, 20156, Note_off_c, 3, 51, 0
7, 20160, Note_on_c, 3, 50, 88
7, 20394, Note_off_c, 3, 50, 0
7, 20400, Note_on_c, 3, 58, 88
7, 20634, Note_off_c, 3, 58, 0
7, 20880, Note_on_c, 3, 51, 88
7, 21114, Note_off_c, 3, 51, 0
7, 21120, Note_on_c, 3, 46, 88
7, 21354, Note_off_c, 3, 46, 0
7, 21360, Note_on_c, 3, 48, 88
7, 21476, Note_off_c, 3, 48, 0
7, 21480, Note_on_c, 3, 49, 88
7, 21596, Note_off_c, 3, 49, 0
7, 21600, Note_on_c, 3, 48, 88
7, 21834, Note_off_c, 3, 48, 0
7, 21840, Note_on_c, 3, 44, 88
7, 22074, Note_off_c, 3, 44, 0
7, 22080, Note_on_c, 3, 49, 88
7, 22314, Note_off_c, 3, 49, 0
7, 22320, Note_on_c, 3, 48, 88
7, 22436, Note_off_c, 3, 48, 0
7, 22440, Note_on_c, 3, 46, 88
7, 22556, Note_off_c, 3, 46, 0
7, 22560, Note_on_c, 3, 44, 88
7, 22794, Note_off_c, 3, 44, 0
7, 22800, Note_on_c, 3, 43, 88
7, 23034, Note_off_c, 3, 43, 0
7, 23040, Note_on_c, 3, 44, 88
7, 23274, Note_off_c, 3, 44, 0
7, 23280, Note_on_c, 3, 45, 88
7, 23514, Note_off_c, 3, 45, 0
7, 23520, Note_on_c, 3, 46, 88
7, 23754, Note_off_c, 3, 46, 0
7, 23760, Note_on_c, 3, 47, 88
7, 23994, Note_off_c, 3, 47, 0
7, 24000, Note_on_c, 3, 48, 88
7, 24470, Note_off_c, 3, 48, 0
7, 24720, Note_on_c, 3, 48, 88
7, 24954, Note_off_c, 3, 48, 0
7, 24960, Note_on_c, 3, 49, 88
7, 25194, Note_off_c, 3, 49, 0
7, 25200, Note_on_c, 3, 50, 88
7, 25434, Note_off_c, 3, 50, 0
7, 25440, Note_on_c, 3, 51, 88
7, 25674, Note_off_c, 3, 51, 0
7, 25680, Note_on_c, 3, 52, 88
7, 25914, Note_off_c, 3, 52, 0
7, 25920, Note_on_c, 3, 53, 88
7, 27594, Note_off_c, 3, 53, 0
7, 27600, Note_on_c, 3, 52, 88
7, 27716, Note_off_c, 3, 52, 0
7, 27720, Note_on_c, 3, 50, 88
7, 27836, Note_off_c, 3, 50, 0
7, 27840, Note_on_c, 3, 52, 88
7, 28785, Note_off_c, 3, 52, 0
7, 28800, Note_on_c, 3, 53, 88
7, 28916, Note_off_c, 3, 53, 0
7, 28920, Note_on_c, 3, 52, 88
7, 29036, Note_off_c, 3, 52, 0
7, 29040, Note_on_c, 3, 53, 88
7, 29156, Note_off_c, 3, 53, 0
7, 29160, Note_on_c, 3, 55, 88
7, 29276, Note_off_c, 3, 55, 0
7, 29280, Note_on_c, 3, 56, 88
7, 29514, Note_off_c, 3, 56, 0
7, 29760, Note_on_c, 3, 57, 88
7, 29994, Note_off_c, 3, 57, 0
7, 30240, Note_on_c, 3, 58, 88
7, 30474, Note_off_c, 3, 58, 0
7, 30480, Note_on_c, 3, 46, 88
7, 30596, Note_off_c, 3, 46, 0
7, 30600, Note_on_c, 3, 48, 88
7, 30716, Note_off_c, 3, 48, 0
7, 30720, Note_on_c, 3, 49, 88
7, 30954, Note_off_c, 3, 49, 0
7, 31200, Note_on_c, 3, 50, 88
7, 31434, Note_off_c, 3, 50, 0
7, 31680, Note_on_c, 3, 51, 88
7, 31796, Note_off_c, 3, 51, 0
7, 31800, Note_on_c, 3, 50, 88
7, 31916, Note_off_c, 3, 50, 0
7, 31920, Note_on_c, 3, 51, 88
7, 32036, Note_off_c, 3, 51, 0
7, 32040, Note_on_c, 3, 53, 88
7, 32156, Note_off_c, 3, 53, 0
7, 32160, Note_on_c, 3, 54, 88
7, 32394, Note_off_c, 3, 54, 0
7, 32640, Note_on_c, 3, 55, 88
7, 32874, Note_off_c, 3, 55, 0
7, 33120, Note_on_c, 3, 56, 88
7, 33354, Note_off_c, 3, 56, 0
7, 33360, Note_on_c, 3, 44, 88
7, 33476, Note_off_c, 3, 44, 0
7, 33480, Note_on_c, 3, 46, 88
7, 33596, Note_off_c, 3, 46, 0
7, 33600, Note_on_c, 3, 48, 88
7, 33834, Note_off_c, 3, 48, 0
7, 34080, Note_on_c, 3, 44, 88
7, 34314, Note_off_c, 3, 44, 0
7, 34560, Note_on_c, 3, 37, 88
7, 34794, Note_off_c, 3, 37, 0
7, 46560, Note_on_c, 3, 48, 88
7, 47030, Note_off_c, 3, 48, 0
7, 47040, Note_on_c, 3, 49, 88
7, 47510, Note_off_c, 3, 49, 0
7, 47760, Note_on_c, 3, 51, 88
7, 47994, Note_off_c, 3, 51, 0
7, 48000, Note_on_c, 3, 53, 88
7, 48234, Note_off_c, 3, 53, 0
7, 48240, Note_on_c, 3, 46, 88
7, 48474, Note_off_c, 3, 46, 0
7, 48480, Note_on_c, 3, 48, 88
7, 48950, Note_off_c, 3, 48, 0
7, 49200, Note_on_c, 3, 49, 88
7, 49434, Note_off_c, 3, 49, 0
7, 49440, Note_on_c, 3, 51, 88
7, 49556, Note_off_c, 3, 51, 0
7, 49560, Note_on_c, 3, 48, 88
7, 49676, Note_off_c, 3, 48, 0
7, 49680, Note_on_c, 3, 49, 88
7, 49796, Note_off_c, 3, 49, 0
7, 49800, Note_on_c, 3, 51, 88
7, 49916, Note_off_c, 3, 51, 0
7, 49920, Note_on_c, 3, 53, 88
7, 50036, Note_off_c, 3, 53, 0
7, 50040, Note_on_c, 3, 49, 88
7, 50156, Note_off_c, 3, 49, 0
7, 50160, Note_on_c, 3, 51, 88
7, 50276, Note_off_c, 3, 51, 0
7, 50280, Note_on_c, 3, 53, 88
7, 50396, Note_off_c, 3, 53, 0
7, 50400, Note_on_c, 3, 54, 88
7, 50516, Note_off_c, 3, 54, 0
7, 50520, Note_on_c, 3, 51, 88
7, 50636, Note_off_c, 3, 51, 0
7, 50640, Note_on_c, 3, 53, 88
7, 50756, Note_off_c, 3, 53, 0
7, 50760, Note_on_c, 3, 54, 88
7, 50876, Note_off_c, 3, 54, 0
7, 50880, Note_on_c, 3, 56, 88
7, 50996, Note_off_c, 3, 56, 0
7, 51000, Note_on_c, 3, 53, 88
7, 51116, Note_off_c, 3, 53, 0
7, 51120, Note_on_c, 3, 54, 88
7, 51354, Note_off_c, 3, 54, 0
7, 51600, Note_on_c, 3, 56, 88
7, 51834, Note_off_c, 3, 56, 0
7, 51840, Note_on_c, 3, 49, 88
7, 52074, Note_off_c, 3, 49, 0
7, 52080, Note_on_c, 3, 51, 88
7, 52196, Note_off_c, 3, 51, 0
7, 52200, Note_on_c, 3, 53, 88
7, 52316, Note_off_c, 3, 53, 0
7, 52320, Note_on_c, 3, 51, 88
7, 52554, Note_off_c, 3, 51, 0
7, 52560, Note_on_c, 3, 53, 88
7, 52676, Note_off_c, 3, 53, 0
7, 52680, Note_on_c, 3, 54, 88
7, 52796, Note_off_c, 3, 54, 0
7, 52800, Note_on_c, 3, 53, 88
7, 53034, Note_off_c, 3, 53, 0
7, 53040, Note_on_c, 3, 49, 88
7, 53274, Note_off_c, 3, 49, 0
7, 53280, Note_on_c, 3, 54, 88
7, 53514, Note_off_c, 3, 54, 0
7, 53520, Note_on_c, 3, 56, 88
7, 53636, Note_off_c, 3, 56, 0
7, 53640, Note_on_c, 3, 58, 88
7, 53756, Note_off_c, 3, 58, 0
7, 53760, Note_on_c, 3, 56, 88
7, 53994, Note_off_c, 3, 56, 0
7, 54000, Note_on_c, 3, 58, 88
7, 54116, Note_off_c, 3, 58, 0
7, 54120, Note_on_c, 3, 59, 88
7, 54236, Note_off_c, 3, 59, 0
7, 54240, Note_on_c, 3, 58, 88
7, 54474, Note_off_c, 3, 58, 0
7, 54480, Note_on_c, 3, 54, 88
7, 54714, Note_off_c, 3, 54, 0
7, 54720, Note_on_c, 3, 59, 88
7, 54954, Note_off_c, 3, 59, 0
7, 55200, Note_on_c, 3, 59, 88
7, 55434, Note_off_c, 3, 59, 0
7, 55680, Note_on_c, 3, 58, 88
7, 55914, Note_off_c, 3, 58, 0
7, 55920, Note_on_c, 3, 51, 88
7, 56154, Note_off_c, 3, 51, 0
7, 56160, Note_on_c, 3, 56, 88
7, 56394, Note_off_c, 3, 56, 0
7, 56400, Note_on_c, 3, 53, 88
7, 56634, Note_off_c, 3, 53, 0
7, 56640, Note_on_c, 3, 46, 88
7, 56874, Note_off_c, 3, 46, 0
7, 56880, Note_on_c, 3, 51, 88
7, 57114, Note_off_c, 3, 51, 0
7, 57120, Note_on_c, 3, 48, 88
7, 57354, Note_off_c, 3, 48, 0
7, 57360, Note_on_c, 3, 44, 88
7, 57594, Note_off_c, 3, 44, 0
7, 57600, Note_on_c, 3, 49, 88
7, 57834, Note_off_c, 3, 49, 0
7, 57840, Note_on_c, 3, 61, 88
7, 58310, Note_off_c, 3, 61, 0
7, 58320, Note_on_c, 3, 60, 88
7, 58436, Note_off_c, 3, 60, 0
7, 58440, Note_on_c, 3, 58, 88
7, 58556, Note_off_c, 3, 58, 0
7, 58560, Note_on_c, 3, 57, 88
7, 58794, Note_off_c, 3, 57, 0
7, 58800, Note_on_c, 3, 53, 88
7, 59034, Note_off_c, 3, 53, 0
7, 59040, Note_on_c, 3, 58, 88
7, 60218, Note_off_c, 3, 58, 0
7, 60240, Note_on_c, 3, 58, 88
7, 60474, Note_off_c, 3, 58, 0
7, 60480, Note_on_c, 3, 51, 88
7, 60596, Note_off_c, 3, 51, 0
7, 60600, Note_on_c, 3, 49, 88
7, 60716, Note_off_c, 3, 49, 0
7, 60720, Note_on_c, 3, 51, 88
7, 60954, Note_off_c, 3, 51, 0
7, 60960, Note_on_c, 3, 53, 88
7, 61194, Note_off_c, 3, 53, 0
7, 61200, Note_on_c, 3, 41, 88
7, 61434, Note_off_c, 3, 41, 0
7, 61440, Note_on_c, 3, 43, 88
7, 61674, Note_off_c, 3, 43, 0
7, 61680, Note_on_c, 3, 45, 88
7, 61914, Note_off_c, 3, 45, 0
7, 61920, Note_on_c, 3, 46, 88
7, 62154, Note_off_c, 3, 46, 0
7, 62400, Note_on_c, 3, 51, 88
7, 62634, Note_off_c, 3, 51, 0
7, 62880, Note_on_c, 3, 49, 88
7, 63114, Note_off_c, 3, 49, 0
7, 63360, Note_on_c, 3, 48, 88
7, 63594, Note_off_c, 3, 48, 0
7, 63600, Note_on_c, 3, 49, 88
7, 63716, Note_off_c, 3, 49, 0
7, 63720, Note_on_c, 3, 51, 88
7, 63836, Note_off_c, 3, 51, 0
7, 63840, Note_on_c, 3, 53, 88
7, 64310, Note_off_c, 3, 53, 0
7, 64320, Note_on_c, 3, 41, 88
7, 64790, Note_off_c, 3, 41, 0
7, 64800, Note_on_c, 3, 46, 88
7, 65270, Note_off_c, 3, 46, 0
7, 65520, Note_on_c, 3, 46, 88
7, 65754, Note_off_c, 3, 46, 0
7, 65760, Note_on_c, 3, 47, 88
7, 65994, Note_off_c, 3, 47, 0
7, 66000, Note_on_c, 3, 48, 88
7, 66234, Note_off_c, 3, 48, 0
7, 66240, Note_on_c, 3, 50, 88
7, 66356, Note_off_c, 3, 50, 0
7, 66360, Note_on_c, 3, 53, 88
7, 66476, Note_off_c, 3, 53, 0
7, 66480, Note_on_c, 3, 56, 88
7, 66950, Note_off_c, 3, 56, 0
7, 66960, Note_on_c, 3, 55, 88
7, 67194, Note_off_c, 3, 55, 0
7, 67200, Note_on_c, 3, 56, 88
7, 67434, Note_off_c, 3, 56, 0
7, 67440, Note_on_c, 3, 50, 88
7, 67674, Note_off_c, 3, 50, 0
7, 67680, Note_on_c, 3, 51, 88
7, 67914, Note_off_c, 3, 51, 0
7, 68160, Note_on_c, 3, 53, 88
7, 68394, Note_off_c, 3, 53, 0
7, 68640, Note_on_c, 3, 54, 88
7, 68874, Note_off_c, 3, 54, 0
7, 69120, Note_on_c, 3, 56, 88
7, 69354, Note_off_c, 3, 56, 0
7, 69360, Note_on_c, 3, 54, 88
7, 69594, Note_off_c, 3, 54, 0
7, 69600, Note_on_c, 3, 53, 88
7, 69716, Note_off_c, 3, 53, 0
7, 69720, Note_on_c, 3, 54, 88
7, 69836, Note_off_c, 3, 54, 0
7, 69840, Note_on_c, 3, 56, 88
7, 70074, Note_off_c, 3, 56, 0
7, 70080, Note_on_c, 3, 50, 88
7, 70314, Note_off_c, 3, 50, 0
7, 70320, Note_on_c, 3, 46, 88
7, 70554, Note_off_c, 3, 46, 0
7, 70560, Note_on_c, 3, 51, 88
7, 70794, Note_off_c, 3, 51, 0
7, 70800, Note_on_c, 3, 49, 88
7, 71034, Note_off_c, 3, 49, 0
7, 71040, Note_on_c, 3, 48, 88
7, 71156, Note_off_c, 3, 48, 0
7, 71160, Note_on_c, 3, 49, 88
7, 71276, Note_off_c, 3, 49, 0
7, 71280, Note_on_c, 3, 51, 88
7, 71514, Note_off_c, 3, 51, 0
7, 71520, Note_on_c, 3, 45, 88
7, 71636, Note_off_c, 3, 45, 0
7, 71640, Note_on_c, 3, 48, 88
7, 71756, Note_off_c, 3, 48, 0
7, 71760, Note_on_c, 3, 53, 88
7, 71876, Note_off_c, 3, 53, 0
7, 71880, Note_on_c, 3, 51, 88
7, 71996, Note_off_c, 3, 51, 0
7, 72000, Note_on_c, 3, 49, 88
7, 72116, Note_off_c, 3, 49, 0
7, 72120, Note_on_c, 3, 53, 88
7, 72236, Note_off_c, 3, 53, 0
7, 72240, Note_on_c, 3, 58, 88
7, 72356, Note_off_c, 3, 58, 0
7, 72360, Note_on_c, 3, 56, 88
7, 72476, Note_off_c, 3, 56, 0
7, 72480, Note_on_c, 3, 54, 88
7, 72596, Note_off_c, 3, 54, 0
7, 72600, Note_on_c, 3, 53, 88
7, 72716, Note_off_c, 3, 53, 0
7, 72720, Note_on_c, 3, 51, 88
7, 72836, Note_off_c, 3, 51, 0
7, 72840, Note_on_c, 3, 49, 88
7, 72956, Note_off_c, 3, 49, 0
7, 72960, Note_on_c, 3, 48, 88
7, 73076, Note_off_c, 3, 48, 0
7, 73080, Note_on_c, 3, 49, 88
7, 73196, Note_off_c, 3, 49, 0
7, 73200, Note_on_c, 3, 51, 88
7, 73316, Note_off_c, 3, 51, 0
7, 73320, Note_on_c, 3, 48, 88
7, 73436, Note_off_c, 3, 48, 0
7, 73440, Note_on_c, 3, 49, 88
7, 73674, Note_off_c, 3, 49, 0
7, 73680, Note_on_c, 3, 46, 88
7, 73914, Note_off_c, 3, 46, 0
7, 73920, Note_on_c, 3, 48, 88
7, 74865, Note_off_c, 3, 48, 0
7, 74880, Note_on_c, 3, 41, 88
7, 75114, Note_off_c, 3, 41, 0
7, 82080, Note_on_c, 3, 51, 88
7, 82550, Note_off_c, 3, 51, 0
7, 82560, Note_on_c, 3, 49, 88
7, 83030, Note_off_c, 3, 49, 0
7, 83280, Note_on_c, 3, 47, 88
7, 83514, Note_off_c, 3, 47, 0
7, 83520, Note_on_c, 3, 46, 88
7, 83754, Note_off_c, 3, 46, 0
7, 83760, Note_on_c, 3, 52, 88
7, 83994, Note_off_c, 3, 52, 0
7, 84000, Note_on_c, 3, 51, 88
7, 84470, Note_off_c, 3, 51, 0
7, 84720, Note_on_c, 3, 49, 88
7, 84954, Note_off_c, 3, 49, 0
7, 84960, Note_on_c, 3, 47, 88
7, 85076, Note_off_c, 3, 47, 0
7, 85080, Note_on_c, 3, 51, 88
7, 85196, Note_off_c, 3, 51, 0
7, 85200, Note_on_c, 3, 49, 88
7, 85316, Note_off_c, 3, 49, 0
7, 85320, Note_on_c, 3, 47, 88
7, 85436, Note_off_c, 3, 47, 0
7, 85440, Note_on_c, 3, 46, 88
7, 85556, Note_off_c, 3, 46, 0
7, 85560, Note_on_c, 3, 49, 88
7, 85676, Note_off_c, 3, 49, 0
7, 85680, Note_on_c, 3, 47, 88
7, 85796, Note_off_c, 3, 47, 0
7, 85800, Note_on_c, 3, 46, 88
7, 85916, Note_off_c, 3, 46, 0
7, 85920, Note_on_c, 3, 44, 88
7, 86036, Note_off_c, 3, 44, 0
7, 86040, Note_on_c, 3, 47, 88
7, 86156, Note_off_c, 3, 47, 0
7, 86160, Note_on_c, 3, 46, 88
7, 86276, Note_off_c, 3, 46, 0
7, 86280, Note_on_c, 3, 44, 88
7, 86396, Note_off_c, 3, 44, 0
7, 86400, Note_on_c, 3, 43, 88
7, 86516, Note_off_c, 3, 43, 0
7, 86520, Note_on_c, 3, 46, 88
7, 86636, Note_off_c, 3, 46, 0
7, 86640, Note_on_c, 3, 44, 88
7, 86874, Note_off_c, 3, 44, 0
7, 87120, Note_on_c, 3, 43, 88
7, 87354, Note_off_c, 3, 43, 0
7, 87360, Note_on_c, 3, 49, 88
7, 87594, Note_off_c, 3, 49, 0
7, 87600, Note_on_c, 3, 47, 88
7, 87716, Note_off_c, 3, 47, 0
7, 87720, Note_on_c, 3, 46, 88
7, 87836, Note_off_c, 3, 46, 0
7, 87840, Note_on_c, 3, 47, 88
7, 88074, Note_off_c, 3, 47, 0
7, 88080, Note_on_c, 3, 59, 88
7, 88196, Note_off_c, 3, 59, 0
7, 88200, Note_on_c, 3, 58, 88
7, 88316, Note_off_c, 3, 58, 0
7, 88320, Note_on_c, 3, 59, 88
7, 88554, Note_off_c, 3, 59, 0
7, 88560, Note_on_c, 3, 63, 88
7, 88794, Note_off_c, 3, 63, 0
7, 88800, Note_on_c, 3, 60, 88
7, 89034, Note_off_c, 3, 60, 0
7, 89040, Note_on_c, 3, 56, 88
7, 89274, Note_off_c, 3, 56, 0
7, 89280, Note_on_c, 3, 61, 88
7, 89514, Note_off_c, 3, 61, 0
7, 89520, Note_on_c, 3, 56, 88
7, 89754, Note_off_c, 3, 56, 0
7, 89760, Note_on_c, 3, 53, 88
7, 89994, Note_off_c, 3, 53, 0
7, 90000, Note_on_c, 3, 49, 88
7, 90234, Note_off_c, 3, 49, 0
7, 90240, Note_on_c, 3, 53, 88
7, 90474, Note_off_c, 3, 53, 0
7, 90480, Note_on_c, 3, 56, 88
7, 90714, Note_off_c, 3, 56, 0
7, 90720, Note_on_c, 3, 50, 88
7, 90954, Note_off_c, 3, 50, 0
7, 90960, Note_on_c, 3, 62, 88
7, 91076, Note_off_c, 3, 62, 0
7, 91080, Note_on_c, 3, 60, 88
7, 91196, Note_off_c, 3, 60, 0
7, 91200, Note_on_c, 3, 62, 88
7, 91434, Note_off_c, 3, 62, 0
7, 91440, Note_on_c, 3, 65, 88
7, 91674, Note_off_c, 3, 65, 0
7, 91680, Note_on_c, 3, 62, 88
7, 91914, Note_off_c, 3, 62, 0
7, 91920, Note_on_c, 3, 58, 88
7, 92154, Note_off_c, 3, 58, 0
7, 92160, Note_on_c, 3, 63, 88
7, 92394, Note_off_c, 3, 63, 0
7, 92400, Note_on_c, 3, 51, 88
7, 92634, Note_off_c, 3, 51, 0
7, 92640, Note_on_c, 3, 54, 88
7, 92874, Note_off_c, 3, 54, 0
7, 92880, Note_on_c, 3, 58, 88
7, 93114, Note_off_c, 3, 58, 0
7, 93120, Note_on_c, 3, 51, 88
7, 93354, Note_off_c, 3, 51, 0
7, 93360, Note_on_c, 3, 54, 88
7, 93594, Note_off_c, 3, 54, 0
7, 93600, Note_on_c, 3, 45, 88
7, 93834, Note_off_c, 3, 45, 0
7, 93840, Note_on_c, 3, 57, 88
7, 94193, Note_off_c, 3, 57, 0
7, 94200, Note_on_c, 3, 58, 88
7, 94316, Note_off_c, 3, 58, 0
7, 94320, Note_on_c, 3, 57, 88
7, 94436, Note_off_c, 3, 57, 0
7, 94440, Note_on_c, 3, 55, 88
7, 94556, Note_off_c, 3, 55, 0
7, 94560, Note_on_c, 3, 57, 88
7, 94794, Note_off_c, 3, 57, 0
7, 94800, Note_on_c, 3, 53, 88
7, 95034, Note_off_c, 3, 53, 0
7, 95040, Note_on_c, 3, 58, 88
7, 95630, Note_off_c, 3, 58, 0
7, 95640, Note_on_c, 3, 60, 88
7, 95756, Note_off_c, 3, 60, 0
7, 95760, Note_on_c, 3, 58, 88
7, 95876, Note_off_c, 3, 58, 0
7, 95880, Note_on_c, 3, 57, 88
7, 95996, Note_off_c, 3, 57, 0
7, 96000, Note_on_c, 3, 58, 88
7, 96596, Note_off_c, 3, 58, 0
7, 96600, Note_on_c, 3, 60, 88
7, 96716, Note_off_c, 3, 60, 0
7, 96720, Note_on_c, 3, 58, 88
7, 96836, Note_off_c, 3, 58, 0
7, 96840, Note_on_c, 3, 57, 88
7, 96956, Note_off_c, 3, 57, 0
7, 96960, Note_on_c, 3, 58, 88
7, 97550, Note_off_c, 3, 58, 0
7, 97560, Note_on_c, 3, 60, 88
7, 97676, Note_off_c, 3, 60, 0
7, 97680, Note_on_c, 3, 58, 88
7, 97796, Note_off_c, 3, 58, 0
7, 97800, Note_on_c, 3, 57, 88
7, 97916, Note_off_c, 3, 57, 0
7, 97920, Note_on_c, 3, 58, 88
7, 98390, Note_off_c, 3, 58, 0
7, 98640, Note_on_c, 3, 53, 88
7, 98874, Note_off_c, 3, 53, 0
7, 98880, Note_on_c, 3, 54, 88
7, 99594, Note_off_c, 3, 54, 0
7, 99600, Note_on_c, 3, 53, 88
7, 99716, Note_off_c, 3, 53, 0
7, 99720, Note_on_c, 3, 51, 88
7, 99836, Note_off_c, 3, 51, 0
7, 99840, Note_on_c, 3, 53, 88
7, 101018, Note_off_c, 3, 53, 0
7, 101040, Note_on_c, 3, 53, 88
7, 101274, Note_off_c, 3, 53, 0
7, 101280, Note_on_c, 3, 54, 88
7, 101514, Note_off_c, 3, 54, 0
7, 101520, Note_on_c, 3, 55, 88
7, 101754, Note_off_c, 3, 55, 0
7, 101760, Note_on_c, 3, 56, 88
7, 101994, Note_off_c, 3, 56, 0
7, 102000, Note_on_c, 3, 57, 88
7, 102234, Note_off_c, 3, 57, 0
7, 102240, Note_on_c, 3, 58, 88
7, 102474, Note_off_c, 3, 58, 0
7, 102480, Note_on_c, 3, 46, 88
7, 102596, Note_off_c, 3, 46, 0
7, 102600, Note_on_c, 3, 48, 88
7, 102716, Note_off_c, 3, 48, 0
7, 102720, Note_on_c, 3, 49, 88
7, 102954, Note_off_c, 3, 49, 0
7, 102960, Note_on_c, 3, 50, 88
7, 103194, Note_off_c, 3, 50, 0
7, 103200, Note_on_c, 3, 51, 88
7, 103434, Note_off_c, 3, 51, 0
7, 103440, Note_on_c, 3, 52, 88
7, 103674, Note_off_c, 3, 52, 0
7, 103680, Note_on_c, 3, 53, 88
7, 103914, Note_off_c, 3, 53, 0
7, 103920, Note_on_c, 3, 51, 88
7, 104154, Note_off_c, 3, 51, 0
7, 104160, Note_on_c, 3, 49, 88
7, 104630, Note_off_c, 3, 49, 0
7, 104640, Note_on_c, 3, 48, 88
7, 105110, Note_off_c, 3, 48, 0
7, 105360, Note_on_c, 3, 46, 88
7, 105594, Note_off_c, 3, 46, 0
7, 105600, Note_on_c, 3, 45, 88
7, 105834, Note_off_c, 3, 45, 0
7, 105840, Note_on_c, 3, 51, 88
7, 106074, Note_off_c, 3, 51, 0
7, 106080, Note_on_c, 3, 49, 88
7, 106550, Note_off_c, 3, 49, 0
7, 106800, Note_on_c, 3, 48, 88
7, 107034, Note_off_c, 3, 48, 0
7, 107040, Note_on_c, 3, 46, 88
7, 107156, Note_off_c, 3, 46, 0
7, 107160, Note_on_c, 3, 49, 88
7, 107276, Note_off_c, 3, 49, 0
7, 107280, Note_on_c, 3, 48, 88
7, 107396, Note_off_c, 3, 48, 0
7, 107400, Note_on_c, 3, 46, 88
7, 107516, Note_off_c, 3, 46, 0
7, 107520, Note_on_c, 3, 44, 88
7, 107636, Note_off_c, 3, 44, 0
7, 107640, Note_on_c, 3, 48, 88
7, 107756, Note_off_c, 3, 48, 0
7, 107760, Note_on_c, 3, 46, 88
7, 107876, Note_off_c, 3, 46, 0
7, 107880, Note_on_c, 3, 44, 88
7, 107996, Note_off_c, 3, 44, 0
7, 108000, Note_on_c, 3, 43, 88
7, 108116, Note_off_c, 3, 43, 0
7, 108120, Note_on_c, 3, 46, 88
7, 108236, Note_off_c, 3, 46, 0
7, 108240, Note_on_c, 3, 44, 88
7, 108356, Note_off_c, 3, 44, 0
7, 108360, Note_on_c, 3, 43, 88
7, 108476, Note_off_c, 3, 43, 0
7, 108480, Note_on_c, 3, 41, 88
7, 108596, Note_off_c, 3, 41, 0
7, 108600, Note_on_c, 3, 44, 88
7, 108716, Note_off_c, 3, 44, 0
7, 108720, Note_on_c, 3, 43, 88
7, 108954, Note_off_c, 3, 43, 0
7, 109200, Note_on_c, 3, 41, 88
7, 109434, Note_off_c, 3, 41, 0
7, 109440, Note_on_c, 3, 48, 88
7, 109674, Note_off_c, 3, 48, 0
7, 109680, Note_on_c, 3, 46, 88
7, 109796, Note_off_c, 3, 46, 0
7, 109800, Note_on_c, 3, 44, 88
7, 109916, Note_off_c, 3, 44, 0
7, 109920, Note_on_c, 3, 46, 88
7, 110154, Note_off_c, 3, 46, 0
7, 110160, Note_on_c, 3, 43, 88
7, 110394, Note_off_c, 3, 43, 0
7, 110400, Note_on_c, 3, 44, 88
7, 111114, Note_off_c, 3, 44, 0
7, 111120, Note_on_c, 3, 43, 88
7, 111236, Note_off_c, 3, 43, 0
7, 111240, Note_on_c, 3, 41, 88
7, 111356, Note_off_c, 3, 41, 0
7, 111360, Note_on_c, 3, 46, 88
7, 112068, Note_off_c, 3, 46, 0
7, 112080, Note_on_c, 3, 44, 88
7, 112196, Note_off_c, 3, 44, 0
7, 112200, Note_on_c, 3, 43, 88
7, 112316, Note_off_c, 3, 43, 0
7, 112320, Note_on_c, 3, 48, 88
7, 113028, Note_off_c, 3, 48, 0
7, 113040, Note_on_c, 3, 46, 88
7, 113156, Note_off_c, 3, 46, 0
7, 113160, Note_on_c, 3, 44, 88
7, 113276, Note_off_c, 3, 44, 0
7, 113280, Note_on_c, 3, 49, 88
7, 113994, Note_off_c, 3, 49, 0
7, 114000, Note_on_c, 3, 48, 88
7, 114234, Note_off_c, 3, 48, 0
7, 114240, Note_on_c, 3, 46, 88
7, 114474, Note_off_c, 3, 46, 0
7, 114480, Note_on_c, 3, 51, 88
7, 114950, Note_off_c, 3, 51, 0
7, 114960, Note_on_c, 3, 50, 88
7, 115194, Note_off_c, 3, 50, 0
7, 115200, Note_on_c, 3, 51, 88
7, 115434, Note_off_c, 3, 51, 0
7, 115440, Note_on_c, 3, 49, 88
7, 115674, Note_off_c, 3, 49, 0
7, 115680, Note_on_c, 3, 48, 88
7, 115796, Note_off_c, 3, 48, 0
7, 115800, Note_on_c, 3, 51, 88
7, 115916, Note_off_c, 3, 51, 0
7, 115920, Note_on_c, 3, 49, 88
7, 116036, Note_off_c, 3, 49, 0
7, 116040, Note_on_c, 3, 48, 88
7, 116156, Note_off_c, 3, 48, 0
7, 116160, Note_on_c, 3, 46, 88
7, 116276, Note_off_c, 3, 46, 0
7, 116280, Note_on_c, 3, 49, 88
7, 116396, Note_off_c, 3, 49, 0
7, 116400, Note_on_c, 3, 48, 88
7, 116516, Note_off_c, 3, 48, 0
7, 116520, Note_on_c, 3, 46, 88
7, 116636, Note_off_c, 3, 46, 0
7, 116640, Note_on_c, 3, 44, 88
7, 116874, Note_off_c, 3, 44, 0
7, 117600, Note_on_c, 3, 56, 88
7, 118298, Note_off_c, 3, 56, 0
7, 118320, Note_on_c, 3, 56, 88
7, 118554, Note_off_c, 3, 56, 0
7, 118560, Note_on_c, 3, 55, 88
7, 118676, Note_off_c, 3, 55, 0
7, 118680, Note_on_c, 3, 56, 88
7, 118796, Note_off_c, 3, 56, 0
7, 118800, Note_on_c, 3, 58, 88
7, 119034, Note_off_c, 3, 58, 0
7, 119040, Note_on_c, 3, 51, 88
7, 119274, Note_off_c, 3, 51, 0
7, 119280, Note_on_c, 3, 54, 88
7, 119754, Note_off_c, 3, 54, 0
7, 119760, Note_on_c, 3, 53, 88
7, 120230, Note_off_c, 3, 53, 0
7, 120240, Note_on_c, 3, 51, 88
7, 120474, Note_off_c, 3, 51, 0
7, 120480, Note_on_c, 3, 46, 88
7, 120714, Note_off_c, 3, 46, 0
7, 120720, Note_on_c, 3, 48, 88
7, 120836, Note_off_c, 3, 48, 0
7, 120840, Note_on_c, 3, 49, 88
7, 120956, Note_off_c, 3, 49, 0
7, 120960, Note_on_c, 3, 48, 88
7, 121194, Note_off_c, 3, 48, 0
7, 121200, Note_on_c, 3, 44, 88
7, 121434, Note_off_c, 3, 44, 0
7, 121440, Note_on_c, 3, 46, 88
7, 121674, Note_off_c, 3, 46, 0
7, 121680, Note_on_c, 3, 48, 88
7, 121914, Note_off_c, 3, 48, 0
7, 121920, Note_on_c, 3, 49, 88
7, 122154, Note_off_c, 3, 49, 0
7, 122160, Note_on_c, 3, 47, 88
7, 122394, Note_off_c, 3, 47, 0
7, 122400, Note_on_c, 3, 46, 88
7, 122634, Note_off_c, 3, 46, 0
7, 122640, Note_on_c, 3, 44, 88
7, 122756, Note_off_c, 3, 44, 0
7, 122760, Note_on_c, 3, 42, 88
7, 122876, Note_off_c, 3, 42, 0
7, 122880, Note_on_c, 3, 44, 88
7, 123114, Note_off_c, 3, 44, 0
7, 123120, Note_on_c, 3, 46, 88
7, 123354, Note_off_c, 3, 46, 0
7, 123360, Note_on_c, 3, 48, 88
7, 123594, Note_off_c, 3, 48, 0
7, 123600, Note_on_c, 3, 50, 88
7, 123834, Note_off_c, 3, 50, 0
7, 123840, Note_on_c, 3, 51, 88
7, 123956, Note_off_c, 3, 51, 0
7, 123960, Note_on_c, 3, 50, 88
7, 124076, Note_off_c, 3, 50, 0
7, 124080, Note_on_c, 3, 51, 88
7, 124196, Note_off_c, 3, 51, 0
7, 124200, Note_on_c, 3, 53, 88
7, 124316, Note_off_c, 3, 53, 0
7, 124320, Note_on_c, 3, 54, 88
7, 124554, Note_off_c, 3, 54, 0
7, 124560, Note_on_c, 3, 53, 88
7, 124794, Note_off_c, 3, 53, 0
7, 124800, Note_on_c, 3, 51, 88
7, 125034, Note_off_c, 3, 51, 0
7, 125040, Note_on_c, 3, 49, 88
7, 125274, Note_off_c, 3, 49, 0
7, 125280, Note_on_c, 3, 48, 88
7, 125514, Note_off_c, 3, 48, 0
7, 125520, Note_on_c, 3, 49, 88
7, 125754, Note_off_c, 3, 49, 0
7, 125760, Note_on_c, 3, 48, 88
7, 125994, Note_off_c, 3, 48, 0
7, 126000, Note_on_c, 3, 46, 88
7, 126234, Note_off_c, 3, 46, 0
7, 126240, Note_on_c, 3, 45, 88
7, 126474, Note_off_c, 3, 45, 0
7, 126480, Note_on_c, 3, 41, 88
7, 126714, Note_off_c, 3, 41, 0
7, 126720, Note_on_c, 3, 46, 88
7, 127190, Note_off_c, 3, 46, 0
7, 127200, Note_on_c, 3, 48, 88
7, 127670, Note_off_c, 3, 48, 0
7, 127920, Note_on_c, 3, 49, 88
7, 128154, Note_off_c, 3, 49, 0
7, 128160, Note_on_c, 3, 51, 88
7, 128394, Note_off_c, 3, 51, 0
7, 128400, Note_on_c, 3, 45, 88
7, 128634, Note_off_c, 3, 45, 0
7, 128640, Note_on_c, 3, 46, 88
7, 129110, Note_off_c, 3, 46, 0
7, 129360, Note_on_c, 3, 48, 88
7, 129594, Note_off_c, 3, 48, 0
7, 129600, Note_on_c, 3, 49, 88
7, 129716, Note_off_c, 3, 49, 0
7, 129720, Note_on_c, 3, 46, 88
7, 129836, Note_off_c, 3, 46, 0
7, 129840, Note_on_c, 3, 48, 88
7, 129956, Note_off_c, 3, 48, 0
7, 129960, Note_on_c, 3, 49, 88
7, 130076, Note_off_c, 3, 49, 0
7, 130080, Note_on_c, 3, 51, 88
7, 130196, Note_off_c, 3, 51, 0
7, 130200, Note_on_c, 3, 48, 88
7, 130316, Note_off_c, 3, 48, 0
7, 130320, Note_on_c, 3, 49, 88
7, 130436, Note_off_c, 3, 49, 0
7, 130440, Note_on_c, 3, 51, 88
7, 130556, Note_off_c, 3, 51, 0
7, 130560, Note_on_c, 3, 53, 88
7, 130676, Note_off_c, 3, 53, 0
7, 130680, Note_on_c, 3, 49, 88
7, 130796, Note_off_c, 3, 49, 0
7, 130800, Note_on_c, 3, 51, 88
7, 130916, Note_off_c, 3, 51, 0
7, 130920, Note_on_c, 3, 53, 88
7, 131036, Note_off_c, 3, 53, 0
7, 131040, Note_on_c, 3, 54, 88
7, 131156, Note_off_c, 3, 54, 0
7, 131160, Note_on_c, 3, 51, 88
7, 131276, Note_off_c, 3, 51, 0
7, 131280, Note_on_c, 3, 53, 88
7, 131514, Note_off_c, 3, 53, 0
7, 131760, Note_on_c, 3, 54, 88
7, 131994, Note_off_c, 3, 54, 0
7, 132000, Note_on_c, 3, 48, 88
7, 132234, Note_off_c, 3, 48, 0
7, 132240, Note_on_c, 3, 50, 88
7, 132356, Note_off_c, 3, 50, 0
7, 132360, Note_on_c, 3, 51, 88
7, 132476, Note_off_c, 3, 51, 0
7, 132480, Note_on_c, 3, 50, 88
7, 132714, Note_off_c, 3, 50, 0
7, 132720, Note_on_c, 3, 46, 88
7, 132954, Note_off_c, 3, 46, 0
7, 132960, Note_on_c, 3, 51, 88
7, 133194, Note_off_c, 3, 51, 0
7, 133200, Note_on_c, 3, 49, 88
7, 133434, Note_off_c, 3, 49, 0
7, 133440, Note_on_c, 3, 48, 88
7, 133674, Note_off_c, 3, 48, 0
7, 133680, Note_on_c, 3, 46, 88
7, 133914, Note_off_c, 3, 46, 0
7, 133920, Note_on_c, 3, 45, 88
7, 134154, Note_off_c, 3, 45, 0
7, 134160, Note_on_c, 3, 41, 88
7, 134394, Note_off_c, 3, 41, 0
7, 134400, Note_on_c, 3, 46, 88
7, 134634, Note_off_c, 3, 46, 0
7, 134640, Note_on_c, 3, 48, 88
7, 134874, Note_off_c, 3, 48, 0
7, 134880, Note_on_c, 3, 49, 88
7, 135114, Note_off_c, 3, 49, 0
7, 135120, Note_on_c, 3, 46, 88
7, 135354, Note_off_c, 3, 46, 0
7, 135360, Note_on_c, 3, 53, 88
7, 135594, Note_off_c, 3, 53, 0
7, 135600, Note_on_c, 3, 41, 88
7, 135834, Note_off_c, 3, 41, 0
7, 135840, Note_on_c, 3, 53, 88
7, 136430, Note_off_c, 3, 53, 0
7, 136440, Note_on_c, 3, 54, 88
7, 136556, Note_off_c, 3, 54, 0
7, 136560, Note_on_c, 3, 51, 88
7, 136676, Note_off_c, 3, 51, 0
7, 136680, Note_on_c, 3, 53, 88
7, 136796, Note_off_c, 3, 53, 0
7, 136800, Note_on_c, 3, 54, 88
7, 136916, Note_off_c, 3, 54, 0
7, 136920, Note_on_c, 3, 56, 88
7, 137036, Note_off_c, 3, 56, 0
7, 137040, Note_on_c, 3, 54, 88
7, 137156, Note_off_c, 3, 54, 0
7, 137160, Note_on_c, 3, 53, 88
7, 137276, Note_off_c, 3, 53, 0
7, 137280, Note_on_c, 3, 51, 88
7, 137750, Note_off_c, 3, 51, 0
7, 137760, Note_on_c, 3, 49, 88
7, 138230, Note_off_c, 3, 49, 0
7, 138480, Note_on_c, 3, 48, 88
7, 138714, Note_off_c, 3, 48, 0
7, 138720, Note_on_c, 3, 46, 88
7, 138954, Note_off_c, 3, 46, 0
7, 138960, Note_on_c, 3, 53, 88
7, 139194, Note_off_c, 3, 53, 0
7, 139200, Note_on_c, 3, 51, 88
7, 139670, Note_off_c, 3, 51, 0
7, 139920, Note_on_c, 3, 49, 88
7, 140154, Note_off_c, 3, 49, 0
7, 140160, Note_on_c, 3, 48, 88
7, 140276, Note_off_c, 3, 48, 0
7, 140280, Note_on_c, 3, 51, 88
7, 140396, Note_off_c, 3, 51, 0
7, 140400, Note_on_c, 3, 49, 88
7, 140516, Note_off_c, 3, 49, 0
7, 140520, Note_on_c, 3, 48, 88
7, 140636, Note_off_c, 3, 48, 0
7, 140640, Note_on_c, 3, 46, 88
7, 140756, Note_off_c, 3, 46, 0
7, 140760, Note_on_c, 3, 49, 88
7, 140876, Note_off_c, 3, 49, 0
7, 140880, Note_on_c, 3, 48, 88
7, 140996, Note_off_c, 3, 48, 0
7, 141000, Note_on_c, 3, 46, 88
7, 141116, Note_off_c, 3, 46, 0
7, 141120, Note_on_c, 3, 45, 88
7, 141236, Note_off_c, 3, 45, 0
7, 141240, Note_on_c, 3, 48, 88
7, 141356, Note_off_c, 3, 48, 0
7, 141360, Note_on_c, 3, 46, 88
7, 141476, Note_off_c, 3, 46, 0
7, 141480, Note_on_c, 3, 45, 88
7, 141596, Note_off_c, 3, 45, 0
7, 141600, Note_on_c, 3, 43, 88
7, 141716, Note_off_c, 3, 43, 0
7, 141720, Note_on_c, 3, 46, 88
7, 141836, Note_off_c, 3, 46, 0
7, 141840, Note_on_c, 3, 45, 88
7, 142074, Note_off_c, 3, 45, 0
7, 142320, Note_on_c, 3, 41, 88
7, 142554, Note_off_c, 3, 41, 0
7, 142560, Note_on_c, 3, 46, 88
7, 142794, Note_off_c, 3, 46, 0
7, 142800, Note_on_c, 3, 51, 88
7, 143034, Note_off_c, 3, 51, 0
7, 143040, Note_on_c, 3, 53, 88
7, 143510, Note_off_c, 3, 53, 0
7, 143520, Note_on_c, 3, 41, 88
7, 143990, Note_off_c, 3, 41, 0
7, 144000, Note_on_c, 3, 46, 88
7, 145417, Note_off_c, 3, 46, 0
7, 145417, End_track
0, 0, End_of_file
