0, 0, Header, 1, 7, 240
1, 0, Start_track
1, 0, Time_signature, 2, 1, 24, 8
1, 0, Tempo, 517241
1, 0, SMPTE_offset, 64, 0, 0, 0, 93
1, 0, End_track
2, 0, Start_track
2, 0, Title_t, "(C) & (P) 1993"
2, 127, End_track
3, 0, Start_track
3, 0, Title_t, "CCARH,Stanford"
3, 0, End_track
4, 0, Start_track
4, 0, Title_t, "Track 1"
4, 0, Program_c, 0, 6
4, 12480, Note_on_c, 0, 66, 88
4, 12950, Note_off_c, 0, 66, 0
4, 12960, Note_on_c, 0, 70, 88
4, 13430, Note_off_c, 0, 70, 0
4, 13440, Note_on_c, 0, 75, 88
4, 13910, Note_off_c, 0, 75, 0
4, 13920, Note_on_c, 0, 71, 88
4, 14390, Note_off_c, 0, 71, 0
4, 14400, Note_on_c, 0, 68, 88
4, 14870, Note_off_c, 0, 68, 0
4, 14880, Note_on_c, 0, 77, 88
4, 15350, Note_off_c, 0, 77, 0
4, 15360, Note_on_c, 0, 78, 88
4, 15594, Note_off_c, 0, 78, 0
4, 15600, Note_on_c, 0, 77, 88
4, 15716, Note_off_c, 0, 77, 0
4, 15720, Note_on_c, 0, 75, 88
4, 15836, Note_off_c, 0, 75, 0
4, 15840, Note_on_c, 0, 73, 88
4, 16074, Note_off_c, 0, 73, 0
4, 16080, Note_on_c, 0, 71, 88
4, 16314, Note_off_c, 0, 71, 0
4, 16320, Note_on_c, 0, 70, 88
4, 16436, Note_off_c, 0, 70, 0
4, 16440, Note_on_c, 0, 68, 88
4, 16556, Note_off_c, 0, 68, 0
4, 16560, Note_on_c, 0, 71, 88
4, 17030, Note_off_c, 0, 71, 0
4, 17040, Note_on_c, 0, 70, 88
4, 17156, Note_off_c, 0, 70, 0
4, 17160, Note_on_c, 0, 68, 88
4, 17276, Note_off_c, 0, 68, 0
4, 17280, Note_on_c, 0, 66, 88
4, 17396, Note_off_c, 0, 66, 0
4, 17400, Note_on_c, 0, 68, 88
4, 17516, Note_off_c, 0, 68, 0
4, 17520, Note_on_c, 0, 69, 88
4, 17990, Note_off_c, 0, 69, 0
4, 18000, Note_on_c, 0, 68, 88
4, 18116, Note_off_c, 0, 68, 0
4, 18120, Note_on_c, 0, 66, 88
4, 18236, Note_off_c, 0, 66, 0
4, 18240, Note_on_c, 0, 64, 88
4, 18356, Note_off_c, 0, 64, 0
4, 18360, Note_on_c, 0, 71, 88
4, 18476, Note_off_c, 0, 71, 0
4, 18480, Note_on_c, 0, 75, 88
4, 18950, Note_off_c, 0, 75, 0
4, 18960, Note_on_c, 0, 73, 88
4, 19076, Note_off_c, 0, 73, 0
4, 19080, Note_on_c, 0, 71, 88
4, 19196, Note_off_c, 0, 71, 0
4, 19200, Note_on_c, 0, 70, 88
4, 19316, Note_off_c, 0, 70, 0
4, 19320, Note_on_c, 0, 76, 88
4, 19436, Note_off_c, 0, 76, 0
4, 19440, Note_on_c, 0, 80, 88
4, 19910, Note_off_c, 0, 80, 0
4, 19920, Note_on_c, 0, 78, 88
4, 20036, Note_off_c, 0, 78, 0
4, 20040, Note_on_c, 0, 76, 88
4, 20156, Note_off_c, 0, 76, 0
4, 20160, Note_on_c, 0, 75, 88
4, 21354, Note_off_c, 0, 75, 0
4, 21360, Note_on_c, 0, 79, 88
4, 21594, Note_off_c, 0, 79, 0
4, 21600, Note_on_c, 0, 80, 88
4, 21834, Note_off_c, 0, 80, 0
4, 21840, Note_on_c, 0, 73, 88
4, 22074, Note_off_c, 0, 73, 0
4, 22080, Note_on_c, 0, 71, 88
4, 23156, Note_off_c, 0, 71, 0
4, 23160, Note_on_c, 0, 70, 88
4, 23276, Note_off_c, 0, 70, 0
4, 23280, Note_on_c, 0, 71, 88
4, 23738, Note_off_c, 0, 71, 0
4, 23760, Note_on_c, 0, 71, 88
4, 23876, Note_off_c, 0, 71, 0
4, 23880, Note_on_c, 0, 70, 88
4, 23996, Note_off_c, 0, 70, 0
4, 24000, Note_on_c, 0, 68, 88
4, 24116, Note_off_c, 0, 68, 0
4, 24120, Note_on_c, 0, 71, 88
4, 24236, Note_off_c, 0, 71, 0
4, 24240, Note_on_c, 0, 75, 88
4, 24710, Note_off_c, 0, 75, 0
4, 24720, Note_on_c, 0, 73, 88
4, 24836, Note_off_c, 0, 73, 0
4, 24840, Note_on_c, 0, 71, 88
4, 24956, Note_off_c, 0, 71, 0
4, 24960, Note_on_c, 0, 70, 88
4, 25430, Note_off_c, 0, 70, 0
4, 26160, Note_on_c, 0, 78, 88
4, 26276, Note_off_c, 0, 78, 0
4, 26280, Note_on_c, 0, 76, 88
4, 26396, Note_off_c, 0, 76, 0
4, 26400, Note_on_c, 0, 75, 88
4, 26516, Note_off_c, 0, 75, 0
4, 26520, Note_on_c, 0, 76, 88
4, 26636, Note_off_c, 0, 76, 0
4, 26640, Note_on_c, 0, 78, 88
4, 26756, Note_off_c, 0, 78, 0
4, 26760, Note_on_c, 0, 75, 88
4, 26876, Note_off_c, 0, 75, 0
4, 26880, Note_on_c, 0, 71, 88
4, 26996, Note_off_c, 0, 71, 0
4, 27000, Note_on_c, 0, 73, 88
4, 27116, Note_off_c, 0, 73, 0
4, 27120, Note_on_c, 0, 75, 88
4, 27236, Note_off_c, 0, 75, 0
4, 27240, Note_on_c, 0, 71, 88
4, 27356, Note_off_c, 0, 71, 0
4, 27360, Note_on_c, 0, 68, 88
4, 27476, Note_off_c, 0, 68, 0
4, 27480, Note_on_c, 0, 70, 88
4, 27596, Note_off_c, 0, 70, 0
4, 27600, Note_on_c, 0, 71, 88
4, 27956, Note_off_c, 0, 71, 0
4, 27960, Note_on_c, 0, 68, 88
4, 28076, Note_off_c, 0, 68, 0
4, 28080, Note_on_c, 0, 70, 88
4, 28196, Note_off_c, 0, 70, 0
4, 28200, Note_on_c, 0, 71, 88
4, 28316, Note_off_c, 0, 71, 0
4, 28320, Note_on_c, 0, 73, 88
4, 28916, Note_off_c, 0, 73, 0
4, 28920, Note_on_c, 0, 66, 88
4, 29036, Note_off_c, 0, 66, 0
4, 29040, Note_on_c, 0, 68, 88
4, 29156, Note_off_c, 0, 68, 0
4, 29160, Note_on_c, 0, 70, 88
4, 29276, Note_off_c, 0, 70, 0
4, 29280, Note_on_c, 0, 71, 88
4, 30230, Note_off_c, 0, 71, 0
4, 30240, Note_on_c, 0, 70, 88
4, 30356, Note_off_c, 0, 70, 0
4, 30360, Note_on_c, 0, 71, 88
4, 30476, Note_off_c, 0, 71, 0
4, 30480, Note_on_c, 0, 73, 88
4, 30596, Note_off_c, 0, 73, 0
4, 30600, Note_on_c, 0, 70, 88
4, 30716, Note_off_c, 0, 70, 0
4, 30720, Note_on_c, 0, 66, 88
4, 30954, Note_off_c, 0, 66, 0
4, 30960, Note_on_c, 0, 83, 88
4, 31076, Note_off_c, 0, 83, 0
4, 31080, Note_on_c, 0, 82, 88
4, 31196, Note_off_c, 0, 82, 0
4, 31200, Note_on_c, 0, 80, 88
4, 31316, Note_off_c, 0, 80, 0
4, 31320, Note_on_c, 0, 82, 88
4, 31436, Note_off_c, 0, 82, 0
4, 31440, Note_on_c, 0, 83, 88
4, 31556, Note_off_c, 0, 83, 0
4, 31560, Note_on_c, 0, 80, 88
4, 31676, Note_off_c, 0, 80, 0
4, 31680, Note_on_c, 0, 76, 88
4, 31796, Note_off_c, 0, 76, 0
4, 31800, Note_on_c, 0, 78, 88
4, 31916, Note_off_c, 0, 78, 0
4, 31920, Note_on_c, 0, 80, 88
4, 32036, Note_off_c, 0, 80, 0
4, 32040, Note_on_c, 0, 76, 88
4, 32156, Note_off_c, 0, 76, 0
4, 32160, Note_on_c, 0, 73, 88
4, 32276, Note_off_c, 0, 73, 0
4, 32280, Note_on_c, 0, 75, 88
4, 32396, Note_off_c, 0, 75, 0
4, 32400, Note_on_c, 0, 76, 88
4, 32874, Note_off_c, 0, 76, 0
4, 32880, Note_on_c, 0, 75, 88
4, 32996, Note_off_c, 0, 75, 0
4, 33000, Note_on_c, 0, 73, 88
4, 33116, Note_off_c, 0, 73, 0
4, 33120, Note_on_c, 0, 71, 88
4, 33834, Note_off_c, 0, 71, 0
4, 33840, Note_on_c, 0, 73, 88
4, 33956, Note_off_c, 0, 73, 0
4, 33960, Note_on_c, 0, 71, 88
4, 34076, Note_off_c, 0, 71, 0
4, 34080, Note_on_c, 0, 70, 88
4, 34314, Note_off_c, 0, 70, 0
4, 34320, Note_on_c, 0, 68, 88
4, 34554, Note_off_c, 0, 68, 0
4, 34560, Note_on_c, 0, 67, 88
4, 34794, Note_off_c, 0, 67, 0
4, 35280, Note_on_c, 0, 68, 88
4, 35396, Note_off_c, 0, 68, 0
4, 35400, Note_on_c, 0, 67, 88
4, 35516, Note_off_c, 0, 67, 0
4, 35520, Note_on_c, 0, 68, 88
4, 35754, Note_off_c, 0, 68, 0
4, 39360, Note_on_c, 0, 66, 88
4, 39830, Note_off_c, 0, 66, 0
4, 39840, Note_on_c, 0, 70, 88
4, 40310, Note_off_c, 0, 70, 0
4, 40320, Note_on_c, 0, 75, 88
4, 40790, Note_off_c, 0, 75, 0
4, 40800, Note_on_c, 0, 71, 88
4, 41270, Note_off_c, 0, 71, 0
4, 41280, Note_on_c, 0, 68, 88
4, 41750, Note_off_c, 0, 68, 0
4, 41760, Note_on_c, 0, 77, 88
4, 42230, Note_off_c, 0, 77, 0
4, 42240, Note_on_c, 0, 78, 88
4, 42830, Note_off_c, 0, 78, 0
4, 42840, Note_on_c, 0, 77, 88
4, 42956, Note_off_c, 0, 77, 0
4, 42960, Note_on_c, 0, 78, 88
4, 43076, Note_off_c, 0, 78, 0
4, 43080, Note_on_c, 0, 80, 88
4, 43196, Note_off_c, 0, 80, 0
4, 43200, Note_on_c, 0, 82, 88
4, 43778, Note_off_c, 0, 82, 0
4, 43800, Note_on_c, 0, 82, 88
4, 43916, Note_off_c, 0, 82, 0
4, 43920, Note_on_c, 0, 80, 88
4, 44036, Note_off_c, 0, 80, 0
4, 44040, Note_on_c, 0, 78, 88
4, 44156, Note_off_c, 0, 78, 0
4, 44160, Note_on_c, 0, 77, 88
4, 44394, Note_off_c, 0, 77, 0
4, 44400, Note_on_c, 0, 79, 88
4, 44516, Note_off_c, 0, 79, 0
4, 44520, Note_on_c, 0, 80, 88
4, 44636, Note_off_c, 0, 80, 0
4, 44640, Note_on_c, 0, 79, 88
4, 44756, Note_off_c, 0, 79, 0
4, 44760, Note_on_c, 0, 80, 88
4, 44876, Note_off_c, 0, 80, 0
4, 44880, Note_on_c, 0, 82, 88
4, 44996, Note_off_c, 0, 82, 0
4, 45000, Note_on_c, 0, 79, 88
4, 45116, Note_off_c, 0, 79, 0
4, 45120, Note_on_c, 0, 75, 88
4, 45590, Note_off_c, 0, 75, 0
4, 46320, Note_on_c, 0, 80, 88
4, 46436, Note_off_c, 0, 80, 0
4, 46440, Note_on_c, 0, 78, 88
4, 46556, Note_off_c, 0, 78, 0
4, 46560, Note_on_c, 0, 76, 88
4, 46676, Note_off_c, 0, 76, 0
4, 46680, Note_on_c, 0, 78, 88
4, 46796, Note_off_c, 0, 78, 0
4, 46800, Note_on_c, 0, 80, 88
4, 46916, Note_off_c, 0, 80, 0
4, 46920, Note_on_c, 0, 76, 88
4, 47036, Note_off_c, 0, 76, 0
4, 47040, Note_on_c, 0, 73, 88
4, 47156, Note_off_c, 0, 73, 0
4, 47160, Note_on_c, 0, 75, 88
4, 47276, Note_off_c, 0, 75, 0
4, 47280, Note_on_c, 0, 76, 88
4, 47396, Note_off_c, 0, 76, 0
4, 47400, Note_on_c, 0, 73, 88
4, 47516, Note_off_c, 0, 73, 0
4, 47520, Note_on_c, 0, 70, 88
4, 47636, Note_off_c, 0, 70, 0
4, 47640, Note_on_c, 0, 71, 88
4, 47756, Note_off_c, 0, 71, 0
4, 47760, Note_on_c, 0, 73, 88
4, 48116, Note_off_c, 0, 73, 0
4, 48120, Note_on_c, 0, 70, 88
4, 48236, Note_off_c, 0, 70, 0
4, 48240, Note_on_c, 0, 71, 88
4, 48818, Note_off_c, 0, 71, 0
4, 48840, Note_on_c, 0, 71, 88
4, 49076, Note_off_c, 0, 71, 0
4, 49080, Note_on_c, 0, 68, 88
4, 49196, Note_off_c, 0, 68, 0
4, 49200, Note_on_c, 0, 70, 88
4, 49790, Note_off_c, 0, 70, 0
4, 49800, Note_on_c, 0, 69, 88
4, 50036, Note_off_c, 0, 69, 0
4, 50040, Note_on_c, 0, 67, 88
4, 50156, Note_off_c, 0, 67, 0
4, 50160, Note_on_c, 0, 68, 88
4, 50513, Note_off_c, 0, 68, 0
4, 50520, Note_on_c, 0, 72, 88
4, 50636, Note_off_c, 0, 72, 0
4, 50640, Note_on_c, 0, 73, 88
4, 51098, Note_off_c, 0, 73, 0
4, 51120, Note_on_c, 0, 73, 88
4, 51354, Note_off_c, 0, 73, 0
4, 51360, Note_on_c, 0, 75, 88
4, 52074, Note_off_c, 0, 75, 0
4, 52080, Note_on_c, 0, 69, 88
4, 52550, Note_off_c, 0, 69, 0
4, 52560, Note_on_c, 0, 68, 88
4, 52676, Note_off_c, 0, 68, 0
4, 52680, Note_on_c, 0, 66, 88
4, 52796, Note_off_c, 0, 66, 0
4, 52800, Note_on_c, 0, 64, 88
4, 53034, Note_off_c, 0, 64, 0
4, 53040, Note_on_c, 0, 68, 88
4, 53274, Note_off_c, 0, 68, 0
4, 53280, Note_on_c, 0, 73, 88
4, 53994, Note_off_c, 0, 73, 0
4, 54000, Note_on_c, 0, 78, 88
4, 54116, Note_off_c, 0, 78, 0
4, 54120, Note_on_c, 0, 76, 88
4, 54236, Note_off_c, 0, 76, 0
4, 54240, Note_on_c, 0, 78, 88
4, 54474, Note_off_c, 0, 78, 0
4, 54480, Note_on_c, 0, 75, 88
4, 54714, Note_off_c, 0, 75, 0
4, 54720, Note_on_c, 0, 71, 88
4, 54954, Note_off_c, 0, 71, 0
4, 54960, Note_on_c, 0, 73, 88
4, 55076, Note_off_c, 0, 73, 0
4, 55080, Note_on_c, 0, 75, 88
4, 55196, Note_off_c, 0, 75, 0
4, 55200, Note_on_c, 0, 76, 88
4, 55434, Note_off_c, 0, 76, 0
4, 55440, Note_on_c, 0, 69, 88
4, 55674, Note_off_c, 0, 69, 0
4, 55680, Note_on_c, 0, 68, 88
4, 56018, Note_off_c, 0, 68, 0
4, 56040, Note_on_c, 0, 68, 88
4, 56138, Note_off_c, 0, 68, 0
4, 56160, Note_on_c, 0, 68, 88
4, 56204, Note_off_c, 0, 68, 0
4, 56205, Note_on_c, 0, 66, 88
4, 56263, Note_off_c, 0, 66, 0
4, 56265, Note_on_c, 0, 68, 88
4, 56323, Note_off_c, 0, 68, 0
4, 56325, Note_on_c, 0, 66, 88
4, 56369, Note_off_c, 0, 66, 0
4, 56370, Note_on_c, 0, 68, 88
4, 56414, Note_off_c, 0, 68, 0
4, 56415, Note_on_c, 0, 66, 88
4, 56459, Note_off_c, 0, 66, 0
4, 56460, Note_on_c, 0, 68, 88
4, 56504, Note_off_c, 0, 68, 0
4, 56505, Note_on_c, 0, 66, 88
4, 56549, Note_off_c, 0, 66, 0
4, 56550, Note_on_c, 0, 64, 88
4, 56594, Note_off_c, 0, 64, 0
4, 56595, Note_on_c, 0, 66, 88
4, 56639, Note_off_c, 0, 66, 0
4, 56640, Note_on_c, 0, 64, 88
4, 57110, Note_off_c, 0, 64, 0
4, 57360, Note_on_c, 0, 83, 88
4, 57476, Note_off_c, 0, 83, 0
4, 57480, Note_on_c, 0, 81, 88
4, 57596, Note_off_c, 0, 81, 0
4, 57600, Note_on_c, 0, 80, 88
4, 57716, Note_off_c, 0, 80, 0
4, 57720, Note_on_c, 0, 81, 88
4, 57836, Note_off_c, 0, 81, 0
4, 57840, Note_on_c, 0, 83, 88
4, 57956, Note_off_c, 0, 83, 0
4, 57960, Note_on_c, 0, 80, 88
4, 58076, Note_off_c, 0, 80, 0
4, 58080, Note_on_c, 0, 76, 88
4, 58196, Note_off_c, 0, 76, 0
4, 58200, Note_on_c, 0, 78, 88
4, 58316, Note_off_c, 0, 78, 0
4, 58320, Note_on_c, 0, 80, 88
4, 58436, Note_off_c, 0, 80, 0
4, 58440, Note_on_c, 0, 76, 88
4, 58556, Note_off_c, 0, 76, 0
4, 58560, Note_on_c, 0, 73, 88
4, 58676, Note_off_c, 0, 73, 0
4, 58680, Note_on_c, 0, 75, 88
4, 58796, Note_off_c, 0, 75, 0
4, 58800, Note_on_c, 0, 76, 88
4, 59270, Note_off_c, 0, 76, 0
4, 59280, Note_on_c, 0, 75, 88
4, 59754, Note_off_c, 0, 75, 0
4, 59760, Note_on_c, 0, 80, 88
4, 60113, Note_off_c, 0, 80, 0
4, 60120, Note_on_c, 0, 78, 88
4, 60236, Note_off_c, 0, 78, 0
4, 60240, Note_on_c, 0, 80, 88
4, 60474, Note_off_c, 0, 80, 0
4, 60480, Note_on_c, 0, 78, 88
4, 61674, Note_off_c, 0, 78, 0
4, 61680, Note_on_c, 0, 76, 88
4, 62033, Note_off_c, 0, 76, 0
4, 62040, Note_on_c, 0, 75, 88
4, 62156, Note_off_c, 0, 75, 0
4, 62160, Note_on_c, 0, 76, 88
4, 62394, Note_off_c, 0, 76, 0
4, 62400, Note_on_c, 0, 75, 88
4, 63594, Note_off_c, 0, 75, 0
4, 63600, Note_on_c, 0, 73, 88
4, 63953, Note_off_c, 0, 73, 0
4, 63960, Note_on_c, 0, 71, 88
4, 64076, Note_off_c, 0, 71, 0
4, 64080, Note_on_c, 0, 73, 88
4, 64314, Note_off_c, 0, 73, 0
4, 64320, Note_on_c, 0, 71, 88
4, 64658, Note_off_c, 0, 71, 0
4, 64680, Note_on_c, 0, 71, 88
4, 64796, Note_off_c, 0, 71, 0
4, 64800, Note_on_c, 0, 76, 88
4, 65138, Note_off_c, 0, 76, 0
4, 65160, Note_on_c, 0, 76, 88
4, 65276, Note_off_c, 0, 76, 0
4, 65280, Note_on_c, 0, 75, 88
4, 65618, Note_off_c, 0, 75, 0
4, 65640, Note_on_c, 0, 75, 88
4, 65756, Note_off_c, 0, 75, 0
4, 65760, Note_on_c, 0, 80, 88
4, 66098, Note_off_c, 0, 80, 0
4, 66120, Note_on_c, 0, 80, 88
4, 66236, Note_off_c, 0, 80, 0
4, 66240, Note_on_c, 0, 78, 88
4, 66578, Note_off_c, 0, 78, 0
4, 66600, Note_on_c, 0, 78, 88
4, 66716, Note_off_c, 0, 78, 0
4, 66720, Note_on_c, 0, 83, 88
4, 67058, Note_off_c, 0, 83, 0
4, 67080, Note_on_c, 0, 83, 88
4, 67196, Note_off_c, 0, 83, 0
4, 67200, Note_on_c, 0, 82, 88
4, 67553, Note_off_c, 0, 82, 0
4, 67560, Note_on_c, 0, 73, 88
4, 67676, Note_off_c, 0, 73, 0
4, 67680, Note_on_c, 0, 81, 88
4, 68033, Note_off_c, 0, 81, 0
4, 68040, Note_on_c, 0, 78, 88
4, 68156, Note_off_c, 0, 78, 0
4, 68160, Note_on_c, 0, 80, 88
4, 69218, Note_off_c, 0, 80, 0
4, 69240, Note_on_c, 0, 80, 88
4, 69356, Note_off_c, 0, 80, 0
4, 69360, Note_on_c, 0, 78, 88
4, 69476, Note_off_c, 0, 78, 0
4, 69480, Note_on_c, 0, 76, 88
4, 69596, Note_off_c, 0, 76, 0
4, 69600, Note_on_c, 0, 75, 88
4, 69716, Note_off_c, 0, 75, 0
4, 69720, Note_on_c, 0, 76, 88
4, 69836, Note_off_c, 0, 76, 0
4, 69840, Note_on_c, 0, 78, 88
4, 69956, Note_off_c, 0, 78, 0
4, 69960, Note_on_c, 0, 75, 88
4, 70076, Note_off_c, 0, 75, 0
4, 70080, Note_on_c, 0, 76, 88
4, 71025, Note_off_c, 0, 76, 0
4, 71040, Note_on_c, 0, 75, 88
4, 71748, Note_off_c, 0, 75, 0
4, 71760, Note_on_c, 0, 73, 88
4, 71994, Note_off_c, 0, 73, 0
4, 72000, Note_on_c, 0, 71, 88
4, 72578, Note_off_c, 0, 71, 0
4, 72600, Note_on_c, 0, 71, 88
4, 72716, Note_off_c, 0, 71, 0
4, 72720, Note_on_c, 0, 76, 88
4, 72836, Note_off_c, 0, 76, 0
4, 72840, Note_on_c, 0, 78, 88
4, 72956, Note_off_c, 0, 78, 0
4, 72960, Note_on_c, 0, 80, 88
4, 73538, Note_off_c, 0, 80, 0
4, 73560, Note_on_c, 0, 80, 88
4, 73676, Note_off_c, 0, 80, 0
4, 73680, Note_on_c, 0, 78, 88
4, 73796, Note_off_c, 0, 78, 0
4, 73800, Note_on_c, 0, 76, 88
4, 73916, Note_off_c, 0, 76, 0
4, 73920, Note_on_c, 0, 75, 88
4, 75938, Note_off_c, 0, 75, 0
4, 75960, Note_on_c, 0, 75, 88
4, 76076, Note_off_c, 0, 75, 0
4, 76080, Note_on_c, 0, 74, 88
4, 76196, Note_off_c, 0, 74, 0
4, 76200, Note_on_c, 0, 72, 88
4, 76316, Note_off_c, 0, 72, 0
4, 76320, Note_on_c, 0, 74, 88
4, 76436, Note_off_c, 0, 74, 0
4, 76440, Note_on_c, 0, 75, 88
4, 76556, Note_off_c, 0, 75, 0
4, 76560, Note_on_c, 0, 77, 88
4, 76676, Note_off_c, 0, 77, 0
4, 76680, Note_on_c, 0, 78, 88
4, 76796, Note_off_c, 0, 78, 0
4, 76800, Note_on_c, 0, 80, 88
4, 77270, Note_off_c, 0, 80, 0
4, 77280, Note_on_c, 0, 78, 88
4, 78338, Note_off_c, 0, 78, 0
4, 78360, Note_on_c, 0, 78, 88
4, 78476, Note_off_c, 0, 78, 0
4, 78480, Note_on_c, 0, 77, 88
4, 78596, Note_off_c, 0, 77, 0
4, 78600, Note_on_c, 0, 75, 88
4, 78716, Note_off_c, 0, 75, 0
4, 78720, Note_on_c, 0, 74, 88
4, 79310, Note_off_c, 0, 74, 0
4, 79320, Note_on_c, 0, 70, 88
4, 79436, Note_off_c, 0, 70, 0
4, 79440, Note_on_c, 0, 75, 88
4, 79796, Note_off_c, 0, 75, 0
4, 79800, Note_on_c, 0, 72, 88
4, 79916, Note_off_c, 0, 72, 0
4, 79920, Note_on_c, 0, 74, 88
4, 80036, Note_off_c, 0, 74, 0
4, 80040, Note_on_c, 0, 77, 88
4, 80156, Note_off_c, 0, 77, 0
4, 80160, Note_on_c, 0, 68, 88
4, 80276, Note_off_c, 0, 68, 0
4, 80280, Note_on_c, 0, 71, 88
4, 80396, Note_off_c, 0, 71, 0
4, 80400, Note_on_c, 0, 70, 88
4, 80516, Note_off_c, 0, 70, 0
4, 80520, Note_on_c, 0, 68, 88
4, 80636, Note_off_c, 0, 68, 0
4, 80640, Note_on_c, 0, 66, 88
4, 81585, Note_off_c, 0, 66, 0
4, 88320, Note_on_c, 0, 71, 88
4, 88790, Note_off_c, 0, 71, 0
4, 88800, Note_on_c, 0, 75, 88
4, 89270, Note_off_c, 0, 75, 0
4, 89280, Note_on_c, 0, 80, 88
4, 89750, Note_off_c, 0, 80, 0
4, 89760, Note_on_c, 0, 76, 88
4, 90230, Note_off_c, 0, 76, 0
4, 90240, Note_on_c, 0, 73, 88
4, 90710, Note_off_c, 0, 73, 0
4, 90720, Note_on_c, 0, 82, 88
4, 91190, Note_off_c, 0, 82, 0
4, 91200, Note_on_c, 0, 83, 88
4, 91670, Note_off_c, 0, 83, 0
4, 91680, Note_on_c, 0, 76, 88
4, 93236, Note_off_c, 0, 76, 0
4, 93240, Note_on_c, 0, 75, 88
4, 93356, Note_off_c, 0, 75, 0
4, 93360, Note_on_c, 0, 76, 88
4, 93476, Note_off_c, 0, 76, 0
4, 93480, Note_on_c, 0, 75, 88
4, 93596, Note_off_c, 0, 75, 0
4, 93600, Note_on_c, 0, 76, 88
4, 93834, Note_off_c, 0, 76, 0
4, 94080, Note_on_c, 0, 75, 88
4, 94196, Note_off_c, 0, 75, 0
4, 94200, Note_on_c, 0, 73, 88
4, 94316, Note_off_c, 0, 73, 0
4, 94320, Note_on_c, 0, 75, 88
4, 94436, Note_off_c, 0, 75, 0
4, 94440, Note_on_c, 0, 73, 88
4, 94556, Note_off_c, 0, 73, 0
4, 94560, Note_on_c, 0, 75, 88
4, 94794, Note_off_c, 0, 75, 0
4, 95160, Note_on_c, 0, 65, 88
4, 95276, Note_off_c, 0, 65, 0
4, 95280, Note_on_c, 0, 74, 88
4, 95396, Note_off_c, 0, 74, 0
4, 95400, Note_on_c, 0, 73, 88
4, 95516, Note_off_c, 0, 73, 0
4, 95520, Note_on_c, 0, 71, 88
4, 95636, Note_off_c, 0, 71, 0
4, 95640, Note_on_c, 0, 73, 88
4, 95756, Note_off_c, 0, 73, 0
4, 95760, Note_on_c, 0, 74, 88
4, 95876, Note_off_c, 0, 74, 0
4, 95880, Note_on_c, 0, 71, 88
4, 95996, Note_off_c, 0, 71, 0
4, 96000, Note_on_c, 0, 68, 88
4, 96116, Note_off_c, 0, 68, 0
4, 96120, Note_on_c, 0, 69, 88
4, 96236, Note_off_c, 0, 69, 0
4, 96240, Note_on_c, 0, 71, 88
4, 96356, Note_off_c, 0, 71, 0
4, 96360, Note_on_c, 0, 68, 88
4, 96476, Note_off_c, 0, 68, 0
4, 96480, Note_on_c, 0, 65, 88
4, 96596, Note_off_c, 0, 65, 0
4, 96600, Note_on_c, 0, 74, 88
4, 96716, Note_off_c, 0, 74, 0
4, 96720, Note_on_c, 0, 73, 88
4, 96836, Note_off_c, 0, 73, 0
4, 96840, Note_on_c, 0, 71, 88
4, 96956, Note_off_c, 0, 71, 0
4, 96960, Note_on_c, 0, 70, 88
4, 97430, Note_off_c, 0, 70, 0
4, 97560, Note_on_c, 0, 66, 88
4, 97676, Note_off_c, 0, 66, 0
4, 97680, Note_on_c, 0, 71, 88
4, 98154, Note_off_c, 0, 71, 0
4, 98160, Note_on_c, 0, 70, 88
4, 98276, Note_off_c, 0, 70, 0
4, 98280, Note_on_c, 0, 68, 88
4, 98396, Note_off_c, 0, 68, 0
4, 98400, Note_on_c, 0, 71, 88
4, 98444, Note_off_c, 0, 71, 0
4, 98445, Note_on_c, 0, 70, 88
4, 98503, Note_off_c, 0, 70, 0
4, 98505, Note_on_c, 0, 71, 88
4, 98563, Note_off_c, 0, 71, 0
4, 98565, Note_on_c, 0, 70, 88
4, 98609, Note_off_c, 0, 70, 0
4, 98610, Note_on_c, 0, 71, 88
4, 98654, Note_off_c, 0, 71, 0
4, 98655, Note_on_c, 0, 70, 88
4, 98699, Note_off_c, 0, 70, 0
4, 98700, Note_on_c, 0, 71, 88
4, 98744, Note_off_c, 0, 71, 0
4, 98745, Note_on_c, 0, 70, 88
4, 98789, Note_off_c, 0, 70, 0
4, 98790, Note_on_c, 0, 68, 88
4, 98834, Note_off_c, 0, 68, 0
4, 98835, Note_on_c, 0, 70, 88
4, 98879, Note_off_c, 0, 70, 0
4, 98880, Note_on_c, 0, 71, 88
4, 99825, Note_off_c, 0, 71, 0
4, 99825, End_track
5, 0, Start_track
5, 0, Title_t, "Track 2"
5, 0, Program_c, 1, 6
5, 8640, Note_on_c, 1, 59, 88
5, 9110, Note_off_c, 1, 59, 0
5, 9120, Note_on_c, 1, 63, 88
5, 9590, Note_off_c, 1, 63, 0
5, 9600, Note_on_c, 1, 68, 88
5, 10070, Note_off_c, 1, 68, 0
5, 10080, Note_on_c, 1, 64, 88
5, 10550, Note_off_c, 1, 64, 0
5, 10560, Note_on_c, 1, 61, 88
5, 11030, Note_off_c, 1, 61, 0
5, 11040, Note_on_c, 1, 70, 88
5, 11510, Note_off_c, 1, 70, 0
5, 11520, Note_on_c, 1, 71, 88
5, 11754, Note_off_c, 1, 71, 0
5, 11760, Note_on_c, 1, 70, 88
5, 11876, Note_off_c, 1, 70, 0
5, 11880, Note_on_c, 1, 68, 88
5, 11996, Note_off_c, 1, 68, 0
5, 12000, Note_on_c, 1, 66, 88
5, 12234, Note_off_c, 1, 66, 0
5, 12240, Note_on_c, 1, 64, 88
5, 12474, Note_off_c, 1, 64, 0
5, 12480, Note_on_c, 1, 63, 88
5, 12596, Note_off_c, 1, 63, 0
5, 12600, Note_on_c, 1, 61, 88
5, 12716, Note_off_c, 1, 61, 0
5, 12720, Note_on_c, 1, 64, 88
5, 13190, Note_off_c, 1, 64, 0
5, 13200, Note_on_c, 1, 63, 88
5, 13316, Note_off_c, 1, 63, 0
5, 13320, Note_on_c, 1, 61, 88
5, 13436, Note_off_c, 1, 61, 0
5, 13440, Note_on_c, 1, 59, 88
5, 13556, Note_off_c, 1, 59, 0
5, 13560, Note_on_c, 1, 66, 88
5, 13676, Note_off_c, 1, 66, 0
5, 13680, Note_on_c, 1, 70, 88
5, 14150, Note_off_c, 1, 70, 0
5, 14160, Note_on_c, 1, 68, 88
5, 14276, Note_off_c, 1, 68, 0
5, 14280, Note_on_c, 1, 66, 88
5, 14396, Note_off_c, 1, 66, 0
5, 14400, Note_on_c, 1, 65, 88
5, 14516, Note_off_c, 1, 65, 0
5, 14520, Note_on_c, 1, 71, 88
5, 14636, Note_off_c, 1, 71, 0
5, 14640, Note_on_c, 1, 75, 88
5, 15110, Note_off_c, 1, 75, 0
5, 15120, Note_on_c, 1, 73, 88
5, 15236, Note_off_c, 1, 73, 0
5, 15240, Note_on_c, 1, 71, 88
5, 15356, Note_off_c, 1, 71, 0
5, 15360, Note_on_c, 1, 70, 88
5, 15594, Note_off_c, 1, 70, 0
5, 15600, Note_on_c, 1, 71, 88
5, 15834, Note_off_c, 1, 71, 0
5, 15840, Note_on_c, 1, 70, 88
5, 16074, Note_off_c, 1, 70, 0
5, 16080, Note_on_c, 1, 68, 88
5, 16314, Note_off_c, 1, 68, 0
5, 16320, Note_on_c, 1, 66, 88
5, 16554, Note_off_c, 1, 66, 0
5, 16560, Note_on_c, 1, 65, 88
5, 16676, Note_off_c, 1, 65, 0
5, 16680, Note_on_c, 1, 63, 88
5, 16796, Note_off_c, 1, 63, 0
5, 16800, Note_on_c, 1, 61, 88
5, 16916, Note_off_c, 1, 61, 0
5, 16920, Note_on_c, 1, 63, 88
5, 17036, Note_off_c, 1, 63, 0
5, 17040, Note_on_c, 1, 64, 88
5, 17514, Note_off_c, 1, 64, 0
5, 17520, Note_on_c, 1, 63, 88
5, 17636, Note_off_c, 1, 63, 0
5, 17640, Note_on_c, 1, 61, 88
5, 17756, Note_off_c, 1, 61, 0
5, 17760, Note_on_c, 1, 59, 88
5, 17876, Note_off_c, 1, 59, 0
5, 17880, Note_on_c, 1, 61, 88
5, 17996, Note_off_c, 1, 61, 0
5, 18000, Note_on_c, 1, 63, 88
5, 18234, Note_off_c, 1, 63, 0
5, 18240, Note_on_c, 1, 64, 88
5, 18593, Note_off_c, 1, 64, 0
5, 18600, Note_on_c, 1, 66, 88
5, 18716, Note_off_c, 1, 66, 0
5, 18720, Note_on_c, 1, 68, 88
5, 19190, Note_off_c, 1, 68, 0
5, 19200, Note_on_c, 1, 70, 88
5, 19553, Note_off_c, 1, 70, 0
5, 19560, Note_on_c, 1, 71, 88
5, 19676, Note_off_c, 1, 71, 0
5, 19680, Note_on_c, 1, 73, 88
5, 20258, Note_off_c, 1, 73, 0
5, 20280, Note_on_c, 1, 73, 88
5, 20396, Note_off_c, 1, 73, 0
5, 20400, Note_on_c, 1, 71, 88
5, 20516, Note_off_c, 1, 71, 0
5, 20520, Note_on_c, 1, 70, 88
5, 20636, Note_off_c, 1, 70, 0
5, 20640, Note_on_c, 1, 68, 88
5, 20756, Note_off_c, 1, 68, 0
5, 20760, Note_on_c, 1, 67, 88
5, 20876, Note_off_c, 1, 67, 0
5, 20880, Note_on_c, 1, 68, 88
5, 20996, Note_off_c, 1, 68, 0
5, 21000, Note_on_c, 1, 67, 88
5, 21116, Note_off_c, 1, 67, 0
5, 21120, Note_on_c, 1, 68, 88
5, 21236, Note_off_c, 1, 68, 0
5, 21240, Note_on_c, 1, 71, 88
5, 21356, Note_off_c, 1, 71, 0
5, 21360, Note_on_c, 1, 70, 88
5, 21476, Note_off_c, 1, 70, 0
5, 21480, Note_on_c, 1, 73, 88
5, 21596, Note_off_c, 1, 73, 0
5, 21600, Note_on_c, 1, 71, 88
5, 21834, Note_off_c, 1, 71, 0
5, 21840, Note_on_c, 1, 70, 88
5, 22178, Note_off_c, 1, 70, 0
5, 22200, Note_on_c, 1, 70, 88
5, 22316, Note_off_c, 1, 70, 0
5, 22320, Note_on_c, 1, 68, 88
5, 22436, Note_off_c, 1, 68, 0
5, 22440, Note_on_c, 1, 66, 88
5, 22556, Note_off_c, 1, 66, 0
5, 22560, Note_on_c, 1, 65, 88
5, 22676, Note_off_c, 1, 65, 0
5, 22680, Note_on_c, 1, 66, 88
5, 22796, Note_off_c, 1, 66, 0
5, 22800, Note_on_c, 1, 65, 88
5, 22916, Note_off_c, 1, 65, 0
5, 22920, Note_on_c, 1, 66, 88
5, 23036, Note_off_c, 1, 66, 0
5, 23040, Note_on_c, 1, 68, 88
5, 23510, Note_off_c, 1, 68, 0
5, 23520, Note_on_c, 1, 61, 88
5, 23754, Note_off_c, 1, 61, 0
5, 23760, Note_on_c, 1, 66, 88
5, 24458, Note_off_c, 1, 66, 0
5, 24480, Note_on_c, 1, 66, 88
5, 24524, Note_off_c, 1, 66, 0
5, 24525, Note_on_c, 1, 65, 88
5, 24576, Note_off_c, 1, 65, 0
5, 24578, Note_on_c, 1, 66, 88
5, 24628, Note_off_c, 1, 66, 0
5, 24630, Note_on_c, 1, 65, 88
5, 24681, Note_off_c, 1, 65, 0
5, 24683, Note_on_c, 1, 66, 88
5, 24733, Note_off_c, 1, 66, 0
5, 24735, Note_on_c, 1, 65, 88
5, 24779, Note_off_c, 1, 65, 0
5, 24780, Note_on_c, 1, 66, 88
5, 24824, Note_off_c, 1, 66, 0
5, 24825, Note_on_c, 1, 65, 88
5, 24869, Note_off_c, 1, 65, 0
5, 24870, Note_on_c, 1, 63, 88
5, 24914, Note_off_c, 1, 63, 0
5, 24915, Note_on_c, 1, 65, 88
5, 24959, Note_off_c, 1, 65, 0
5, 24960, Note_on_c, 1, 66, 88
5, 25430, Note_off_c, 1, 66, 0
5, 32640, Note_on_c, 1, 59, 88
5, 33110, Note_off_c, 1, 59, 0
5, 33120, Note_on_c, 1, 63, 88
5, 33590, Note_off_c, 1, 63, 0
5, 33600, Note_on_c, 1, 68, 88
5, 34070, Note_off_c, 1, 68, 0
5, 34080, Note_on_c, 1, 64, 88
5, 34550, Note_off_c, 1, 64, 0
5, 34560, Note_on_c, 1, 61, 88
5, 35030, Note_off_c, 1, 61, 0
5, 35040, Note_on_c, 1, 70, 88
5, 35510, Note_off_c, 1, 70, 0
5, 35520, Note_on_c, 1, 71, 88
5, 36098, Note_off_c, 1, 71, 0
5, 36120, Note_on_c, 1, 71, 88
5, 36236, Note_off_c, 1, 71, 0
5, 36240, Note_on_c, 1, 70, 88
5, 36356, Note_off_c, 1, 70, 0
5, 36360, Note_on_c, 1, 68, 88
5, 36476, Note_off_c, 1, 68, 0
5, 36480, Note_on_c, 1, 66, 88
5, 37070, Note_off_c, 1, 66, 0
5, 37080, Note_on_c, 1, 69, 88
5, 37196, Note_off_c, 1, 69, 0
5, 37200, Note_on_c, 1, 68, 88
5, 37316, Note_off_c, 1, 68, 0
5, 37320, Note_on_c, 1, 66, 88
5, 37436, Note_off_c, 1, 66, 0
5, 37440, Note_on_c, 1, 65, 88
5, 37556, Note_off_c, 1, 65, 0
5, 37560, Note_on_c, 1, 66, 88
5, 37676, Note_off_c, 1, 66, 0
5, 37680, Note_on_c, 1, 68, 88
5, 37796, Note_off_c, 1, 68, 0
5, 37800, Note_on_c, 1, 65, 88
5, 37916, Note_off_c, 1, 65, 0
5, 37920, Note_on_c, 1, 66, 88
5, 38858, Note_off_c, 1, 66, 0
5, 38880, Note_on_c, 1, 66, 88
5, 38924, Note_off_c, 1, 66, 0
5, 38925, Note_on_c, 1, 65, 88
5, 38976, Note_off_c, 1, 65, 0
5, 38978, Note_on_c, 1, 66, 88
5, 39028, Note_off_c, 1, 66, 0
5, 39030, Note_on_c, 1, 65, 88
5, 39081, Note_off_c, 1, 65, 0
5, 39083, Note_on_c, 1, 66, 88
5, 39133, Note_off_c, 1, 66, 0
5, 39135, Note_on_c, 1, 65, 88
5, 39179, Note_off_c, 1, 65, 0
5, 39180, Note_on_c, 1, 66, 88
5, 39224, Note_off_c, 1, 66, 0
5, 39225, Note_on_c, 1, 65, 88
5, 39269, Note_off_c, 1, 65, 0
5, 39270, Note_on_c, 1, 63, 88
5, 39314, Note_off_c, 1, 63, 0
5, 39315, Note_on_c, 1, 65, 88
5, 39359, Note_off_c, 1, 65, 0
5, 39360, Note_on_c, 1, 66, 88
5, 39830, Note_off_c, 1, 66, 0
5, 40560, Note_on_c, 1, 71, 88
5, 40676, Note_off_c, 1, 71, 0
5, 40680, Note_on_c, 1, 70, 88
5, 40796, Note_off_c, 1, 70, 0
5, 40800, Note_on_c, 1, 68, 88
5, 40916, Note_off_c, 1, 68, 0
5, 40920, Note_on_c, 1, 70, 88
5, 41036, Note_off_c, 1, 70, 0
5, 41040, Note_on_c, 1, 71, 88
5, 41156, Note_off_c, 1, 71, 0
5, 41160, Note_on_c, 1, 68, 88
5, 41276, Note_off_c, 1, 68, 0
5, 41280, Note_on_c, 1, 65, 88
5, 41396, Note_off_c, 1, 65, 0
5, 41400, Note_on_c, 1, 66, 88
5, 41516, Note_off_c, 1, 66, 0
5, 41520, Note_on_c, 1, 68, 88
5, 41636, Note_off_c, 1, 68, 0
5, 41640, Note_on_c, 1, 65, 88
5, 41756, Note_off_c, 1, 65, 0
5, 41760, Note_on_c, 1, 62, 88
5, 41876, Note_off_c, 1, 62, 0
5, 41880, Note_on_c, 1, 63, 88
5, 41996, Note_off_c, 1, 63, 0
5, 42000, Note_on_c, 1, 65, 88
5, 42356, Note_off_c, 1, 65, 0
5, 42360, Note_on_c, 1, 63, 88
5, 42476, Note_off_c, 1, 63, 0
5, 42480, Note_on_c, 1, 65, 88
5, 42596, Note_off_c, 1, 65, 0
5, 42600, Note_on_c, 1, 66, 88
5, 42716, Note_off_c, 1, 66, 0
5, 42720, Note_on_c, 1, 68, 88
5, 43316, Note_off_c, 1, 68, 0
5, 43320, Note_on_c, 1, 66, 88
5, 43436, Note_off_c, 1, 66, 0
5, 43440, Note_on_c, 1, 68, 88
5, 43556, Note_off_c, 1, 68, 0
5, 43560, Note_on_c, 1, 70, 88
5, 43676, Note_off_c, 1, 70, 0
5, 43680, Note_on_c, 1, 71, 88
5, 44258, Note_off_c, 1, 71, 0
5, 44280, Note_on_c, 1, 71, 88
5, 44396, Note_off_c, 1, 71, 0
5, 44400, Note_on_c, 1, 70, 88
5, 44516, Note_off_c, 1, 70, 0
5, 44520, Note_on_c, 1, 68, 88
5, 44636, Note_off_c, 1, 68, 0
5, 44640, Note_on_c, 1, 70, 88
5, 44756, Note_off_c, 1, 70, 0
5, 44760, Note_on_c, 1, 71, 88
5, 44876, Note_off_c, 1, 71, 0
5, 44880, Note_on_c, 1, 73, 88
5, 45218, Note_off_c, 1, 73, 0
5, 45240, Note_on_c, 1, 73, 88
5, 45356, Note_off_c, 1, 73, 0
5, 45360, Note_on_c, 1, 71, 88
5, 45476, Note_off_c, 1, 71, 0
5, 45480, Note_on_c, 1, 70, 88
5, 45596, Note_off_c, 1, 70, 0
5, 45600, Note_on_c, 1, 68, 88
5, 45716, Note_off_c, 1, 68, 0
5, 45720, Note_on_c, 1, 70, 88
5, 45836, Note_off_c, 1, 70, 0
5, 45840, Note_on_c, 1, 71, 88
5, 45956, Note_off_c, 1, 71, 0
5, 45960, Note_on_c, 1, 68, 88
5, 46076, Note_off_c, 1, 68, 0
5, 46080, Note_on_c, 1, 61, 88
5, 46196, Note_off_c, 1, 61, 0
5, 46200, Note_on_c, 1, 60, 88
5, 46316, Note_off_c, 1, 60, 0
5, 46320, Note_on_c, 1, 61, 88
5, 46790, Note_off_c, 1, 61, 0
5, 46800, Note_on_c, 1, 68, 88
5, 47274, Note_off_c, 1, 68, 0
5, 47280, Note_on_c, 1, 67, 88
5, 47514, Note_off_c, 1, 67, 0
5, 47880, Note_on_c, 1, 70, 88
5, 47996, Note_off_c, 1, 70, 0
5, 48000, Note_on_c, 1, 63, 88
5, 48353, Note_off_c, 1, 63, 0
5, 48360, Note_on_c, 1, 66, 88
5, 48476, Note_off_c, 1, 66, 0
5, 48480, Note_on_c, 1, 65, 88
5, 48596, Note_off_c, 1, 65, 0
5, 48600, Note_on_c, 1, 68, 88
5, 48716, Note_off_c, 1, 68, 0
5, 48720, Note_on_c, 1, 61, 88
5, 49313, Note_off_c, 1, 61, 0
5, 49320, Note_on_c, 1, 64, 88
5, 49436, Note_off_c, 1, 64, 0
5, 49440, Note_on_c, 1, 63, 88
5, 49556, Note_off_c, 1, 63, 0
5, 49560, Note_on_c, 1, 66, 88
5, 49676, Note_off_c, 1, 66, 0
5, 49680, Note_on_c, 1, 59, 88
5, 50273, Note_off_c, 1, 59, 0
5, 50280, Note_on_c, 1, 60, 88
5, 50396, Note_off_c, 1, 60, 0
5, 50400, Note_on_c, 1, 64, 88
5, 50753, Note_off_c, 1, 64, 0
5, 50760, Note_on_c, 1, 65, 88
5, 50876, Note_off_c, 1, 65, 0
5, 50880, Note_on_c, 1, 66, 88
5, 51114, Note_off_c, 1, 66, 0
5, 51120, Note_on_c, 1, 69, 88
5, 51236, Note_off_c, 1, 69, 0
5, 51240, Note_on_c, 1, 68, 88
5, 51356, Note_off_c, 1, 68, 0
5, 51360, Note_on_c, 1, 66, 88
5, 51476, Note_off_c, 1, 66, 0
5, 51480, Note_on_c, 1, 68, 88
5, 51596, Note_off_c, 1, 68, 0
5, 51600, Note_on_c, 1, 69, 88
5, 51716, Note_off_c, 1, 69, 0
5, 51720, Note_on_c, 1, 66, 88
5, 51836, Note_off_c, 1, 66, 0
5, 51840, Note_on_c, 1, 63, 88
5, 51956, Note_off_c, 1, 63, 0
5, 51960, Note_on_c, 1, 64, 88
5, 52076, Note_off_c, 1, 64, 0
5, 52080, Note_on_c, 1, 66, 88
5, 52196, Note_off_c, 1, 66, 0
5, 52200, Note_on_c, 1, 63, 88
5, 52316, Note_off_c, 1, 63, 0
5, 52320, Note_on_c, 1, 60, 88
5, 52436, Note_off_c, 1, 60, 0
5, 52440, Note_on_c, 1, 61, 88
5, 52556, Note_off_c, 1, 61, 0
5, 52560, Note_on_c, 1, 63, 88
5, 53034, Note_off_c, 1, 63, 0
5, 53040, Note_on_c, 1, 61, 88
5, 53510, Note_off_c, 1, 61, 0
5, 53520, Note_on_c, 1, 64, 88
5, 53754, Note_off_c, 1, 64, 0
5, 53760, Note_on_c, 1, 69, 88
5, 54230, Note_off_c, 1, 69, 0
5, 54480, Note_on_c, 1, 69, 88
5, 54954, Note_off_c, 1, 69, 0
5, 54960, Note_on_c, 1, 68, 88
5, 55076, Note_off_c, 1, 68, 0
5, 55080, Note_on_c, 1, 69, 88
5, 55196, Note_off_c, 1, 69, 0
5, 55200, Note_on_c, 1, 71, 88
5, 55434, Note_off_c, 1, 71, 0
5, 55440, Note_on_c, 1, 66, 88
5, 55796, Note_off_c, 1, 66, 0
5, 55800, Note_on_c, 1, 63, 88
5, 55916, Note_off_c, 1, 63, 0
5, 55920, Note_on_c, 1, 64, 88
5, 56273, Note_off_c, 1, 64, 0
5, 56280, Note_on_c, 1, 61, 88
5, 56396, Note_off_c, 1, 61, 0
5, 56400, Note_on_c, 1, 63, 88
5, 56634, Note_off_c, 1, 63, 0
5, 56640, Note_on_c, 1, 64, 88
5, 56756, Note_off_c, 1, 64, 0
5, 56760, Note_on_c, 1, 71, 88
5, 56876, Note_off_c, 1, 71, 0
5, 56880, Note_on_c, 1, 76, 88
5, 57233, Note_off_c, 1, 76, 0
5, 57240, Note_on_c, 1, 73, 88
5, 57356, Note_off_c, 1, 73, 0
5, 57360, Note_on_c, 1, 75, 88
5, 57594, Note_off_c, 1, 75, 0
5, 57840, Note_on_c, 1, 68, 88
5, 58310, Note_off_c, 1, 68, 0
5, 58320, Note_on_c, 1, 64, 88
5, 58794, Note_off_c, 1, 64, 0
5, 58800, Note_on_c, 1, 73, 88
5, 58916, Note_off_c, 1, 73, 0
5, 58920, Note_on_c, 1, 71, 88
5, 59036, Note_off_c, 1, 71, 0
5, 59040, Note_on_c, 1, 70, 88
5, 59156, Note_off_c, 1, 70, 0
5, 59160, Note_on_c, 1, 71, 88
5, 59276, Note_off_c, 1, 71, 0
5, 59280, Note_on_c, 1, 73, 88
5, 59396, Note_off_c, 1, 73, 0
5, 59400, Note_on_c, 1, 70, 88
5, 59516, Note_off_c, 1, 70, 0
5, 59520, Note_on_c, 1, 71, 88
5, 59990, Note_off_c, 1, 71, 0
5, 60000, Note_on_c, 1, 70, 88
5, 60596, Note_off_c, 1, 70, 0
5, 60600, Note_on_c, 1, 76, 88
5, 60716, Note_off_c, 1, 76, 0
5, 60720, Note_on_c, 1, 75, 88
5, 60836, Note_off_c, 1, 75, 0
5, 60840, Note_on_c, 1, 73, 88
5, 60956, Note_off_c, 1, 73, 0
5, 60960, Note_on_c, 1, 72, 88
5, 61076, Note_off_c, 1, 72, 0
5, 61080, Note_on_c, 1, 73, 88
5, 61196, Note_off_c, 1, 73, 0
5, 61200, Note_on_c, 1, 75, 88
5, 61316, Note_off_c, 1, 75, 0
5, 61320, Note_on_c, 1, 72, 88
5, 61436, Note_off_c, 1, 72, 0
5, 61440, Note_on_c, 1, 68, 88
5, 61910, Note_off_c, 1, 68, 0
5, 61920, Note_on_c, 1, 67, 88
5, 62273, Note_off_c, 1, 67, 0
5, 62280, Note_on_c, 1, 73, 88
5, 62498, Note_off_c, 1, 73, 0
5, 62520, Note_on_c, 1, 73, 88
5, 62636, Note_off_c, 1, 73, 0
5, 62640, Note_on_c, 1, 71, 88
5, 62756, Note_off_c, 1, 71, 0
5, 62760, Note_on_c, 1, 70, 88
5, 62876, Note_off_c, 1, 70, 0
5, 62880, Note_on_c, 1, 68, 88
5, 62996, Note_off_c, 1, 68, 0
5, 63000, Note_on_c, 1, 70, 88
5, 63116, Note_off_c, 1, 70, 0
5, 63120, Note_on_c, 1, 71, 88
5, 63236, Note_off_c, 1, 71, 0
5, 63240, Note_on_c, 1, 68, 88
5, 63356, Note_off_c, 1, 68, 0
5, 63360, Note_on_c, 1, 65, 88
5, 63594, Note_off_c, 1, 65, 0
5, 63600, Note_on_c, 1, 67, 88
5, 63716, Note_off_c, 1, 67, 0
5, 63720, Note_on_c, 1, 68, 88
5, 63836, Note_off_c, 1, 68, 0
5, 63840, Note_on_c, 1, 70, 88
5, 64178, Note_off_c, 1, 70, 0
5, 64200, Note_on_c, 1, 70, 88
5, 64436, Note_off_c, 1, 70, 0
5, 64440, Note_on_c, 1, 67, 88
5, 64556, Note_off_c, 1, 67, 0
5, 64560, Note_on_c, 1, 68, 88
5, 64898, Note_off_c, 1, 68, 0
5, 64920, Note_on_c, 1, 68, 88
5, 65036, Note_off_c, 1, 68, 0
5, 65040, Note_on_c, 1, 73, 88
5, 65396, Note_off_c, 1, 73, 0
5, 65400, Note_on_c, 1, 70, 88
5, 65516, Note_off_c, 1, 70, 0
5, 65520, Note_on_c, 1, 71, 88
5, 65858, Note_off_c, 1, 71, 0
5, 65880, Note_on_c, 1, 71, 88
5, 65996, Note_off_c, 1, 71, 0
5, 66000, Note_on_c, 1, 76, 88
5, 66356, Note_off_c, 1, 76, 0
5, 66360, Note_on_c, 1, 74, 88
5, 66476, Note_off_c, 1, 74, 0
5, 66480, Note_on_c, 1, 75, 88
5, 66818, Note_off_c, 1, 75, 0
5, 66840, Note_on_c, 1, 75, 88
5, 66956, Note_off_c, 1, 75, 0
5, 66960, Note_on_c, 1, 80, 88
5, 67316, Note_off_c, 1, 80, 0
5, 67320, Note_on_c, 1, 77, 88
5, 67436, Note_off_c, 1, 77, 0
5, 67440, Note_on_c, 1, 78, 88
5, 67734, Note_off_c, 1, 78, 0
5, 67740, Note_on_c, 1, 80, 88
5, 67798, Note_off_c, 1, 80, 0
5, 67800, Note_on_c, 1, 78, 88
5, 67858, Note_off_c, 1, 78, 0
5, 67860, Note_on_c, 1, 76, 88
5, 67918, Note_off_c, 1, 76, 0
5, 67920, Note_on_c, 1, 75, 88
5, 68276, Note_off_c, 1, 75, 0
5, 68280, Note_on_c, 1, 76, 88
5, 68396, Note_off_c, 1, 76, 0
5, 68400, Note_on_c, 1, 78, 88
5, 68516, Note_off_c, 1, 78, 0
5, 68520, Note_on_c, 1, 75, 88
5, 68636, Note_off_c, 1, 75, 0
5, 68640, Note_on_c, 1, 76, 88
5, 68756, Note_off_c, 1, 76, 0
5, 68760, Note_on_c, 1, 72, 88
5, 68876, Note_off_c, 1, 72, 0
5, 68880, Note_on_c, 1, 73, 88
5, 68996, Note_off_c, 1, 73, 0
5, 69000, Note_on_c, 1, 76, 88
5, 69116, Note_off_c, 1, 76, 0
5, 69120, Note_on_c, 1, 70, 88
5, 69590, Note_off_c, 1, 70, 0
5, 69600, Note_on_c, 1, 71, 88
5, 70196, Note_off_c, 1, 71, 0
5, 70200, Note_on_c, 1, 73, 88
5, 70316, Note_off_c, 1, 73, 0
5, 70320, Note_on_c, 1, 75, 88
5, 70436, Note_off_c, 1, 75, 0
5, 70440, Note_on_c, 1, 71, 88
5, 70556, Note_off_c, 1, 71, 0
5, 70560, Note_on_c, 1, 73, 88
5, 70676, Note_off_c, 1, 73, 0
5, 70680, Note_on_c, 1, 68, 88
5, 70796, Note_off_c, 1, 68, 0
5, 70800, Note_on_c, 1, 70, 88
5, 70916, Note_off_c, 1, 70, 0
5, 70920, Note_on_c, 1, 73, 88
5, 71036, Note_off_c, 1, 73, 0
5, 71040, Note_on_c, 1, 66, 88
5, 71274, Note_off_c, 1, 66, 0
5, 71280, Note_on_c, 1, 71, 88
5, 71514, Note_off_c, 1, 71, 0
5, 71520, Note_on_c, 1, 70, 88
5, 72234, Note_off_c, 1, 70, 0
5, 72240, Note_on_c, 1, 68, 88
5, 72356, Note_off_c, 1, 68, 0
5, 72360, Note_on_c, 1, 67, 88
5, 72476, Note_off_c, 1, 67, 0
5, 72480, Note_on_c, 1, 68, 88
5, 72833, Note_off_c, 1, 68, 0
5, 72840, Note_on_c, 1, 71, 88
5, 72956, Note_off_c, 1, 71, 0
5, 72960, Note_on_c, 1, 76, 88
5, 73538, Note_off_c, 1, 76, 0
5, 73560, Note_on_c, 1, 76, 88
5, 73676, Note_off_c, 1, 76, 0
5, 73680, Note_on_c, 1, 75, 88
5, 73796, Note_off_c, 1, 75, 0
5, 73800, Note_on_c, 1, 73, 88
5, 73916, Note_off_c, 1, 73, 0
5, 73920, Note_on_c, 1, 71, 88
5, 74510, Note_off_c, 1, 71, 0
5, 74520, Note_on_c, 1, 67, 88
5, 74636, Note_off_c, 1, 67, 0
5, 74640, Note_on_c, 1, 68, 88
5, 74756, Note_off_c, 1, 68, 0
5, 74760, Note_on_c, 1, 70, 88
5, 74876, Note_off_c, 1, 70, 0
5, 74880, Note_on_c, 1, 71, 88
5, 74996, Note_off_c, 1, 71, 0
5, 75000, Note_on_c, 1, 70, 88
5, 75116, Note_off_c, 1, 70, 0
5, 75120, Note_on_c, 1, 73, 88
5, 75236, Note_off_c, 1, 73, 0
5, 75240, Note_on_c, 1, 67, 88
5, 75356, Note_off_c, 1, 67, 0
5, 75360, Note_on_c, 1, 68, 88
5, 76074, Note_off_c, 1, 68, 0
5, 77040, Note_on_c, 1, 77, 88
5, 77510, Note_off_c, 1, 77, 0
5, 77520, Note_on_c, 1, 75, 88
5, 77636, Note_off_c, 1, 75, 0
5, 77640, Note_on_c, 1, 73, 88
5, 77756, Note_off_c, 1, 73, 0
5, 77760, Note_on_c, 1, 71, 88
5, 77994, Note_off_c, 1, 71, 0
5, 78000, Note_on_c, 1, 75, 88
5, 78234, Note_off_c, 1, 75, 0
5, 78240, Note_on_c, 1, 68, 88
5, 78836, Note_off_c, 1, 68, 0
5, 78840, Note_on_c, 1, 71, 88
5, 78956, Note_off_c, 1, 71, 0
5, 78960, Note_on_c, 1, 70, 88
5, 79076, Note_off_c, 1, 70, 0
5, 79080, Note_on_c, 1, 68, 88
5, 79196, Note_off_c, 1, 68, 0
5, 79200, Note_on_c, 1, 66, 88
5, 79670, Note_off_c, 1, 66, 0
5, 79680, Note_on_c, 1, 65, 88
5, 80738, Note_off_c, 1, 65, 0
5, 80760, Note_on_c, 1, 65, 88
5, 80876, Note_off_c, 1, 65, 0
5, 80880, Note_on_c, 1, 63, 88
5, 80996, Note_off_c, 1, 63, 0
5, 81000, Note_on_c, 1, 62, 88
5, 81116, Note_off_c, 1, 62, 0
5, 81120, Note_on_c, 1, 63, 88
5, 81590, Note_off_c, 1, 63, 0
5, 81840, Note_on_c, 1, 66, 88
5, 81956, Note_off_c, 1, 66, 0
5, 81960, Note_on_c, 1, 64, 88
5, 82076, Note_off_c, 1, 64, 0
5, 82080, Note_on_c, 1, 63, 88
5, 82196, Note_off_c, 1, 63, 0
5, 82200, Note_on_c, 1, 64, 88
5, 82316, Note_off_c, 1, 64, 0
5, 82320, Note_on_c, 1, 66, 88
5, 82436, Note_off_c, 1, 66, 0
5, 82440, Note_on_c, 1, 63, 88
5, 82556, Note_off_c, 1, 63, 0
5, 82560, Note_on_c, 1, 59, 88
5, 82676, Note_off_c, 1, 59, 0
5, 82680, Note_on_c, 1, 61, 88
5, 82796, Note_off_c, 1, 61, 0
5, 82800, Note_on_c, 1, 63, 88
5, 82916, Note_off_c, 1, 63, 0
5, 82920, Note_on_c, 1, 59, 88
5, 83036, Note_off_c, 1, 59, 0
5, 83040, Note_on_c, 1, 56, 88
5, 83156, Note_off_c, 1, 56, 0
5, 83160, Note_on_c, 1, 58, 88
5, 83276, Note_off_c, 1, 58, 0
5, 83280, Note_on_c, 1, 59, 88
5, 83618, Note_off_c, 1, 59, 0
5, 83640, Note_on_c, 1, 59, 88
5, 83756, Note_off_c, 1, 59, 0
5, 83760, Note_on_c, 1, 58, 88
5, 83876, Note_off_c, 1, 58, 0
5, 83880, Note_on_c, 1, 56, 88
5, 83996, Note_off_c, 1, 56, 0
5, 84000, Note_on_c, 1, 58, 88
5, 84234, Note_off_c, 1, 58, 0
5, 84240, Note_on_c, 1, 69, 88
5, 84698, Note_off_c, 1, 69, 0
5, 84720, Note_on_c, 1, 69, 88
5, 84954, Note_off_c, 1, 69, 0
5, 84960, Note_on_c, 1, 68, 88
5, 85194, Note_off_c, 1, 68, 0
5, 85200, Note_on_c, 1, 66, 88
5, 85674, Note_off_c, 1, 66, 0
5, 85680, Note_on_c, 1, 64, 88
5, 85796, Note_off_c, 1, 64, 0
5, 85800, Note_on_c, 1, 63, 88
5, 85916, Note_off_c, 1, 63, 0
5, 85920, Note_on_c, 1, 64, 88
5, 86036, Note_off_c, 1, 64, 0
5, 86040, Note_on_c, 1, 66, 88
5, 86156, Note_off_c, 1, 66, 0
5, 86160, Note_on_c, 1, 68, 88
5, 86618, Note_off_c, 1, 68, 0
5, 86640, Note_on_c, 1, 68, 88
5, 86874, Note_off_c, 1, 68, 0
5, 86880, Note_on_c, 1, 66, 88
5, 87114, Note_off_c, 1, 66, 0
5, 87120, Note_on_c, 1, 64, 88
5, 87594, Note_off_c, 1, 64, 0
5, 87600, Note_on_c, 1, 63, 88
5, 87716, Note_off_c, 1, 63, 0
5, 87720, Note_on_c, 1, 61, 88
5, 87836, Note_off_c, 1, 61, 0
5, 87840, Note_on_c, 1, 63, 88
5, 87956, Note_off_c, 1, 63, 0
5, 87960, Note_on_c, 1, 64, 88
5, 88076, Note_off_c, 1, 64, 0
5, 88080, Note_on_c, 1, 66, 88
5, 88436, Note_off_c, 1, 66, 0
5, 88440, Note_on_c, 1, 68, 88
5, 88556, Note_off_c, 1, 68, 0
5, 88560, Note_on_c, 1, 66, 88
5, 88676, Note_off_c, 1, 66, 0
5, 88680, Note_on_c, 1, 64, 88
5, 88796, Note_off_c, 1, 64, 0
5, 88800, Note_on_c, 1, 63, 88
5, 89034, Note_off_c, 1, 63, 0
5, 89040, Note_on_c, 1, 71, 88
5, 89514, Note_off_c, 1, 71, 0
5, 89520, Note_on_c, 1, 68, 88
5, 89990, Note_off_c, 1, 68, 0
5, 90000, Note_on_c, 1, 73, 88
5, 90234, Note_off_c, 1, 73, 0
5, 90240, Note_on_c, 1, 66, 88
5, 90356, Note_off_c, 1, 66, 0
5, 90360, Note_on_c, 1, 68, 88
5, 90476, Note_off_c, 1, 68, 0
5, 90480, Note_on_c, 1, 70, 88
5, 90596, Note_off_c, 1, 70, 0
5, 90600, Note_on_c, 1, 66, 88
5, 90716, Note_off_c, 1, 66, 0
5, 90720, Note_on_c, 1, 73, 88
5, 90836, Note_off_c, 1, 73, 0
5, 90840, Note_on_c, 1, 76, 88
5, 90956, Note_off_c, 1, 76, 0
5, 90960, Note_on_c, 1, 75, 88
5, 91076, Note_off_c, 1, 75, 0
5, 91080, Note_on_c, 1, 73, 88
5, 91196, Note_off_c, 1, 73, 0
5, 91200, Note_on_c, 1, 78, 88
5, 91316, Note_off_c, 1, 78, 0
5, 91320, Note_on_c, 1, 76, 88
5, 91436, Note_off_c, 1, 76, 0
5, 91440, Note_on_c, 1, 75, 88
5, 91556, Note_off_c, 1, 75, 0
5, 91560, Note_on_c, 1, 78, 88
5, 91676, Note_off_c, 1, 78, 0
5, 91680, Note_on_c, 1, 71, 88
5, 92276, Note_off_c, 1, 71, 0
5, 92280, Note_on_c, 1, 70, 88
5, 92396, Note_off_c, 1, 70, 0
5, 92400, Note_on_c, 1, 68, 88
5, 92516, Note_off_c, 1, 68, 0
5, 92520, Note_on_c, 1, 71, 88
5, 92636, Note_off_c, 1, 71, 0
5, 92640, Note_on_c, 1, 70, 88
5, 92756, Note_off_c, 1, 70, 0
5, 92760, Note_on_c, 1, 71, 88
5, 92876, Note_off_c, 1, 71, 0
5, 92880, Note_on_c, 1, 73, 88
5, 92996, Note_off_c, 1, 73, 0
5, 93000, Note_on_c, 1, 70, 88
5, 93116, Note_off_c, 1, 70, 0
5, 93120, Note_on_c, 1, 66, 88
5, 93828, Note_off_c, 1, 66, 0
5, 94080, Note_on_c, 1, 71, 88
5, 94788, Note_off_c, 1, 71, 0
5, 95760, Note_on_c, 1, 65, 88
5, 95994, Note_off_c, 1, 65, 0
5, 96000, Note_on_c, 1, 65, 88
5, 96470, Note_off_c, 1, 65, 0
5, 96720, Note_on_c, 1, 61, 88
5, 97076, Note_off_c, 1, 61, 0
5, 97080, Note_on_c, 1, 68, 88
5, 97196, Note_off_c, 1, 68, 0
5, 97200, Note_on_c, 1, 66, 88
5, 97316, Note_off_c, 1, 66, 0
5, 97320, Note_on_c, 1, 64, 88
5, 97436, Note_off_c, 1, 64, 0
5, 97440, Note_on_c, 1, 63, 88
5, 97793, Note_off_c, 1, 63, 0
5, 97800, Note_on_c, 1, 62, 88
5, 97916, Note_off_c, 1, 62, 0
5, 97920, Note_on_c, 1, 61, 88
5, 98036, Note_off_c, 1, 61, 0
5, 98040, Note_on_c, 1, 63, 88
5, 98156, Note_off_c, 1, 63, 0
5, 98160, Note_on_c, 1, 64, 88
5, 98513, Note_off_c, 1, 64, 0
5, 98520, Note_on_c, 1, 68, 88
5, 98636, Note_off_c, 1, 68, 0
5, 98640, Note_on_c, 1, 66, 88
5, 98756, Note_off_c, 1, 66, 0
5, 98760, Note_on_c, 1, 64, 88
5, 98876, Note_off_c, 1, 64, 0
5, 98880, Note_on_c, 1, 63, 88
5, 99825, Note_off_c, 1, 63, 0
5, 99825, End_track
6, 0, Start_track
6, 0, Title_t, "Track 3"
6, 0, Program_c, 2, 6
6, 3840, Note_on_c, 2, 54, 88
6, 4310, Note_off_c, 2, 54, 0
6, 4320, Note_on_c, 2, 58, 88
6, 4790, Note_off_c, 2, 58, 0
6, 4800, Note_on_c, 2, 63, 88
6, 5270, Note_off_c, 2, 63, 0
6, 5280, Note_on_c, 2, 59, 88
6, 5750, Note_off_c, 2, 59, 0
6, 5760, Note_on_c, 2, 56, 88
6, 6230, Note_off_c, 2, 56, 0
6, 6240, Note_on_c, 2, 65, 88
6, 6710, Note_off_c, 2, 65, 0
6, 6720, Note_on_c, 2, 66, 88
6, 6954, Note_off_c, 2, 66, 0
6, 6960, Note_on_c, 2, 65, 88
6, 7076, Note_off_c, 2, 65, 0
6, 7080, Note_on_c, 2, 63, 88
6, 7196, Note_off_c, 2, 63, 0
6, 7200, Note_on_c, 2, 61, 88
6, 7434, Note_off_c, 2, 61, 0
6, 7440, Note_on_c, 2, 59, 88
6, 7674, Note_off_c, 2, 59, 0
6, 7680, Note_on_c, 2, 58, 88
6, 7796, Note_off_c, 2, 58, 0
6, 7800, Note_on_c, 2, 56, 88
6, 7916, Note_off_c, 2, 56, 0
6, 7920, Note_on_c, 2, 59, 88
6, 8390, Note_off_c, 2, 59, 0
6, 8400, Note_on_c, 2, 58, 88
6, 8516, Note_off_c, 2, 58, 0
6, 8520, Note_on_c, 2, 56, 88
6, 8636, Note_off_c, 2, 56, 0
6, 8640, Note_on_c, 2, 54, 88
6, 8756, Note_off_c, 2, 54, 0
6, 8760, Note_on_c, 2, 56, 88
6, 8876, Note_off_c, 2, 56, 0
6, 8880, Note_on_c, 2, 57, 88
6, 9350, Note_off_c, 2, 57, 0
6, 9360, Note_on_c, 2, 56, 88
6, 9476, Note_off_c, 2, 56, 0
6, 9480, Note_on_c, 2, 54, 88
6, 9596, Note_off_c, 2, 54, 0
6, 9600, Note_on_c, 2, 52, 88
6, 9716, Note_off_c, 2, 52, 0
6, 9720, Note_on_c, 2, 59, 88
6, 9836, Note_off_c, 2, 59, 0
6, 9840, Note_on_c, 2, 63, 88
6, 10310, Note_off_c, 2, 63, 0
6, 10320, Note_on_c, 2, 61, 88
6, 10436, Note_off_c, 2, 61, 0
6, 10440, Note_on_c, 2, 59, 88
6, 10556, Note_off_c, 2, 59, 0
6, 10560, Note_on_c, 2, 58, 88
6, 10676, Note_off_c, 2, 58, 0
6, 10680, Note_on_c, 2, 64, 88
6, 10796, Note_off_c, 2, 64, 0
6, 10800, Note_on_c, 2, 68, 88
6, 11270, Note_off_c, 2, 68, 0
6, 11280, Note_on_c, 2, 66, 88
6, 11396, Note_off_c, 2, 66, 0
6, 11400, Note_on_c, 2, 64, 88
6, 11516, Note_off_c, 2, 64, 0
6, 11520, Note_on_c, 2, 63, 88
6, 11754, Note_off_c, 2, 63, 0
6, 11760, Note_on_c, 2, 64, 88
6, 11994, Note_off_c, 2, 64, 0
6, 12000, Note_on_c, 2, 63, 88
6, 12234, Note_off_c, 2, 63, 0
6, 12240, Note_on_c, 2, 61, 88
6, 12474, Note_off_c, 2, 61, 0
6, 12480, Note_on_c, 2, 59, 88
6, 12714, Note_off_c, 2, 59, 0
6, 12720, Note_on_c, 2, 58, 88
6, 12836, Note_off_c, 2, 58, 0
6, 12840, Note_on_c, 2, 56, 88
6, 12956, Note_off_c, 2, 56, 0
6, 12960, Note_on_c, 2, 54, 88
6, 13793, Note_off_c, 2, 54, 0
6, 13800, Note_on_c, 2, 55, 88
6, 13916, Note_off_c, 2, 55, 0
6, 13920, Note_on_c, 2, 56, 88
6, 14036, Note_off_c, 2, 56, 0
6, 14040, Note_on_c, 2, 58, 88
6, 14156, Note_off_c, 2, 58, 0
6, 14160, Note_on_c, 2, 59, 88
6, 14276, Note_off_c, 2, 59, 0
6, 14280, Note_on_c, 2, 56, 88
6, 14396, Note_off_c, 2, 56, 0
6, 14400, Note_on_c, 2, 61, 88
6, 14753, Note_off_c, 2, 61, 0
6, 14760, Note_on_c, 2, 59, 88
6, 14876, Note_off_c, 2, 59, 0
6, 14880, Note_on_c, 2, 58, 88
6, 14996, Note_off_c, 2, 58, 0
6, 15000, Note_on_c, 2, 56, 88
6, 15116, Note_off_c, 2, 56, 0
6, 15120, Note_on_c, 2, 58, 88
6, 15354, Note_off_c, 2, 58, 0
6, 15360, Note_on_c, 2, 63, 88
6, 15594, Note_off_c, 2, 63, 0
6, 15600, Note_on_c, 2, 51, 88
6, 16070, Note_off_c, 2, 51, 0
6, 16080, Note_on_c, 2, 53, 88
6, 16314, Note_off_c, 2, 53, 0
6, 16320, Note_on_c, 2, 54, 88
6, 16554, Note_off_c, 2, 54, 0
6, 16560, Note_on_c, 2, 56, 88
6, 16794, Note_off_c, 2, 56, 0
6, 16800, Note_on_c, 2, 58, 88
6, 17034, Note_off_c, 2, 58, 0
6, 17040, Note_on_c, 2, 54, 88
6, 17274, Note_off_c, 2, 54, 0
6, 17280, Note_on_c, 2, 59, 88
6, 17514, Note_off_c, 2, 59, 0
6, 17520, Note_on_c, 2, 54, 88
6, 17636, Note_off_c, 2, 54, 0
6, 17640, Note_on_c, 2, 52, 88
6, 17756, Note_off_c, 2, 52, 0
6, 17760, Note_on_c, 2, 54, 88
6, 17994, Note_off_c, 2, 54, 0
6, 18000, Note_on_c, 2, 59, 88
6, 18593, Note_off_c, 2, 59, 0
6, 18600, Note_on_c, 2, 58, 88
6, 18716, Note_off_c, 2, 58, 0
6, 18720, Note_on_c, 2, 59, 88
6, 18836, Note_off_c, 2, 59, 0
6, 18840, Note_on_c, 2, 56, 88
6, 18956, Note_off_c, 2, 56, 0
6, 18960, Note_on_c, 2, 58, 88
6, 19076, Note_off_c, 2, 58, 0
6, 19080, Note_on_c, 2, 59, 88
6, 19196, Note_off_c, 2, 59, 0
6, 19200, Note_on_c, 2, 61, 88
6, 19778, Note_off_c, 2, 61, 0
6, 19800, Note_on_c, 2, 61, 88
6, 19916, Note_off_c, 2, 61, 0
6, 19920, Note_on_c, 2, 66, 88
6, 20378, Note_off_c, 2, 66, 0
6, 20400, Note_on_c, 2, 66, 88
6, 20516, Note_off_c, 2, 66, 0
6, 20520, Note_on_c, 2, 64, 88
6, 20636, Note_off_c, 2, 64, 0
6, 20640, Note_on_c, 2, 63, 88
6, 20874, Note_off_c, 2, 63, 0
6, 20880, Note_on_c, 2, 61, 88
6, 21114, Note_off_c, 2, 61, 0
6, 21120, Note_on_c, 2, 59, 88
6, 21354, Note_off_c, 2, 59, 0
6, 21360, Note_on_c, 2, 61, 88
6, 21594, Note_off_c, 2, 61, 0
6, 21600, Note_on_c, 2, 63, 88
6, 21834, Note_off_c, 2, 63, 0
6, 21840, Note_on_c, 2, 64, 88
6, 22074, Note_off_c, 2, 64, 0
6, 22080, Note_on_c, 2, 63, 88
6, 22433, Note_off_c, 2, 63, 0
6, 22440, Note_on_c, 2, 61, 88
6, 22556, Note_off_c, 2, 61, 0
6, 22560, Note_on_c, 2, 59, 88
6, 22794, Note_off_c, 2, 59, 0
6, 22800, Note_on_c, 2, 62, 88
6, 23034, Note_off_c, 2, 62, 0
6, 23040, Note_on_c, 2, 61, 88
6, 23393, Note_off_c, 2, 61, 0
6, 23400, Note_on_c, 2, 56, 88
6, 23516, Note_off_c, 2, 56, 0
6, 23520, Note_on_c, 2, 58, 88
6, 23636, Note_off_c, 2, 58, 0
6, 23640, Note_on_c, 2, 59, 88
6, 23756, Note_off_c, 2, 59, 0
6, 23760, Note_on_c, 2, 61, 88
6, 24234, Note_off_c, 2, 61, 0
6, 24240, Note_on_c, 2, 59, 88
6, 24356, Note_off_c, 2, 59, 0
6, 24360, Note_on_c, 2, 58, 88
6, 24476, Note_off_c, 2, 58, 0
6, 24480, Note_on_c, 2, 56, 88
6, 24596, Note_off_c, 2, 56, 0
6, 24600, Note_on_c, 2, 54, 88
6, 24716, Note_off_c, 2, 54, 0
6, 24720, Note_on_c, 2, 56, 88
6, 24954, Note_off_c, 2, 56, 0
6, 24960, Note_on_c, 2, 54, 88
6, 25430, Note_off_c, 2, 54, 0
6, 25440, Note_on_c, 2, 58, 88
6, 25910, Note_off_c, 2, 58, 0
6, 25920, Note_on_c, 2, 63, 88
6, 26390, Note_off_c, 2, 63, 0
6, 26400, Note_on_c, 2, 59, 88
6, 26870, Note_off_c, 2, 59, 0
6, 26880, Note_on_c, 2, 56, 88
6, 27350, Note_off_c, 2, 56, 0
6, 27360, Note_on_c, 2, 65, 88
6, 27830, Note_off_c, 2, 65, 0
6, 27840, Note_on_c, 2, 66, 88
6, 28430, Note_off_c, 2, 66, 0
6, 28440, Note_on_c, 2, 64, 88
6, 28556, Note_off_c, 2, 64, 0
6, 28560, Note_on_c, 2, 63, 88
6, 28676, Note_off_c, 2, 63, 0
6, 28680, Note_on_c, 2, 61, 88
6, 28796, Note_off_c, 2, 61, 0
6, 28800, Note_on_c, 2, 63, 88
6, 29498, Note_off_c, 2, 63, 0
6, 29520, Note_on_c, 2, 63, 88
6, 29754, Note_off_c, 2, 63, 0
6, 29760, Note_on_c, 2, 61, 88
6, 29876, Note_off_c, 2, 61, 0
6, 29880, Note_on_c, 2, 63, 88
6, 29996, Note_off_c, 2, 63, 0
6, 30000, Note_on_c, 2, 64, 88
6, 30470, Note_off_c, 2, 64, 0
6, 30480, Note_on_c, 2, 58, 88
6, 30714, Note_off_c, 2, 58, 0
6, 30720, Note_on_c, 2, 59, 88
6, 32270, Note_off_c, 2, 59, 0
6, 32280, Note_on_c, 2, 58, 88
6, 32396, Note_off_c, 2, 58, 0
6, 32400, Note_on_c, 2, 56, 88
6, 32516, Note_off_c, 2, 56, 0
6, 32520, Note_on_c, 2, 58, 88
6, 32636, Note_off_c, 2, 58, 0
6, 32640, Note_on_c, 2, 59, 88
6, 32756, Note_off_c, 2, 59, 0
6, 32760, Note_on_c, 2, 54, 88
6, 32876, Note_off_c, 2, 54, 0
6, 32880, Note_on_c, 2, 59, 88
6, 32996, Note_off_c, 2, 59, 0
6, 33000, Note_on_c, 2, 58, 88
6, 33116, Note_off_c, 2, 58, 0
6, 33120, Note_on_c, 2, 56, 88
6, 33236, Note_off_c, 2, 56, 0
6, 33240, Note_on_c, 2, 58, 88
6, 33356, Note_off_c, 2, 58, 0
6, 33360, Note_on_c, 2, 59, 88
6, 33476, Note_off_c, 2, 59, 0
6, 33480, Note_on_c, 2, 56, 88
6, 33596, Note_off_c, 2, 56, 0
6, 33600, Note_on_c, 2, 52, 88
6, 33834, Note_off_c, 2, 52, 0
6, 34800, Note_on_c, 2, 64, 88
6, 35034, Note_off_c, 2, 64, 0
6, 35040, Note_on_c, 2, 63, 88
6, 35274, Note_off_c, 2, 63, 0
6, 35280, Note_on_c, 2, 61, 88
6, 35514, Note_off_c, 2, 61, 0
6, 35520, Note_on_c, 2, 63, 88
6, 35990, Note_off_c, 2, 63, 0
6, 36000, Note_on_c, 2, 64, 88
6, 36470, Note_off_c, 2, 64, 0
6, 36480, Note_on_c, 2, 63, 88
6, 36596, Note_off_c, 2, 63, 0
6, 36600, Note_on_c, 2, 61, 88
6, 36716, Note_off_c, 2, 61, 0
6, 36720, Note_on_c, 2, 59, 88
6, 36836, Note_off_c, 2, 59, 0
6, 36840, Note_on_c, 2, 61, 88
6, 36956, Note_off_c, 2, 61, 0
6, 36960, Note_on_c, 2, 62, 88
6, 37430, Note_off_c, 2, 62, 0
6, 37440, Note_on_c, 2, 61, 88
6, 38030, Note_off_c, 2, 61, 0
6, 38040, Note_on_c, 2, 59, 88
6, 38156, Note_off_c, 2, 59, 0
6, 38160, Note_on_c, 2, 58, 88
6, 38276, Note_off_c, 2, 58, 0
6, 38280, Note_on_c, 2, 59, 88
6, 38396, Note_off_c, 2, 59, 0
6, 38400, Note_on_c, 2, 56, 88
6, 38978, Note_off_c, 2, 56, 0
6, 39000, Note_on_c, 2, 56, 88
6, 39116, Note_off_c, 2, 56, 0
6, 39120, Note_on_c, 2, 58, 88
6, 39236, Note_off_c, 2, 58, 0
6, 39240, Note_on_c, 2, 59, 88
6, 39356, Note_off_c, 2, 59, 0
6, 39360, Note_on_c, 2, 61, 88
6, 39950, Note_off_c, 2, 61, 0
6, 39960, Note_on_c, 2, 64, 88
6, 40076, Note_off_c, 2, 64, 0
6, 40080, Note_on_c, 2, 63, 88
6, 40196, Note_off_c, 2, 63, 0
6, 40200, Note_on_c, 2, 61, 88
6, 40316, Note_off_c, 2, 61, 0
6, 40320, Note_on_c, 2, 59, 88
6, 40554, Note_off_c, 2, 59, 0
6, 41520, Note_on_c, 2, 59, 88
6, 41754, Note_off_c, 2, 59, 0
6, 41760, Note_on_c, 2, 58, 88
6, 42113, Note_off_c, 2, 58, 0
6, 42120, Note_on_c, 2, 56, 88
6, 42236, Note_off_c, 2, 56, 0
6, 42240, Note_on_c, 2, 54, 88
6, 42474, Note_off_c, 2, 54, 0
6, 49920, Note_on_c, 2, 52, 88
6, 50390, Note_off_c, 2, 52, 0
6, 50400, Note_on_c, 2, 56, 88
6, 50870, Note_off_c, 2, 56, 0
6, 50880, Note_on_c, 2, 61, 88
6, 51350, Note_off_c, 2, 61, 0
6, 51360, Note_on_c, 2, 57, 88
6, 51830, Note_off_c, 2, 57, 0
6, 51840, Note_on_c, 2, 54, 88
6, 52310, Note_off_c, 2, 54, 0
6, 52320, Note_on_c, 2, 63, 88
6, 52790, Note_off_c, 2, 63, 0
6, 52800, Note_on_c, 2, 64, 88
6, 53508, Note_off_c, 2, 64, 0
6, 53520, Note_on_c, 2, 61, 88
6, 53754, Note_off_c, 2, 61, 0
6, 53760, Note_on_c, 2, 66, 88
6, 54230, Note_off_c, 2, 66, 0
6, 54480, Note_on_c, 2, 66, 88
6, 54714, Note_off_c, 2, 66, 0
6, 54720, Note_on_c, 2, 63, 88
6, 54954, Note_off_c, 2, 63, 0
6, 54960, Note_on_c, 2, 64, 88
6, 55194, Note_off_c, 2, 64, 0
6, 55440, Note_on_c, 2, 61, 88
6, 55674, Note_off_c, 2, 61, 0
6, 55680, Note_on_c, 2, 59, 88
6, 56507, Note_off_c, 2, 59, 0
6, 56520, Note_on_c, 2, 57, 88
6, 56636, Note_off_c, 2, 57, 0
6, 56640, Note_on_c, 2, 56, 88
6, 57110, Note_off_c, 2, 56, 0
6, 57120, Note_on_c, 2, 59, 88
6, 57590, Note_off_c, 2, 59, 0
6, 57600, Note_on_c, 2, 64, 88
6, 58070, Note_off_c, 2, 64, 0
6, 58080, Note_on_c, 2, 61, 88
6, 58550, Note_off_c, 2, 61, 0
6, 58560, Note_on_c, 2, 58, 88
6, 59030, Note_off_c, 2, 58, 0
6, 59040, Note_on_c, 2, 67, 88
6, 59510, Note_off_c, 2, 67, 0
6, 59520, Note_on_c, 2, 68, 88
6, 59636, Note_off_c, 2, 68, 0
6, 59640, Note_on_c, 2, 66, 88
6, 59756, Note_off_c, 2, 66, 0
6, 59760, Note_on_c, 2, 65, 88
6, 59876, Note_off_c, 2, 65, 0
6, 59880, Note_on_c, 2, 63, 88
6, 59996, Note_off_c, 2, 63, 0
6, 60000, Note_on_c, 2, 62, 88
6, 60116, Note_off_c, 2, 62, 0
6, 60120, Note_on_c, 2, 63, 88
6, 60236, Note_off_c, 2, 63, 0
6, 60240, Note_on_c, 2, 65, 88
6, 60356, Note_off_c, 2, 65, 0
6, 60360, Note_on_c, 2, 62, 88
6, 60476, Note_off_c, 2, 62, 0
6, 60480, Note_on_c, 2, 63, 88
6, 61070, Note_off_c, 2, 63, 0
6, 61080, Note_on_c, 2, 64, 88
6, 61196, Note_off_c, 2, 64, 0
6, 61200, Note_on_c, 2, 66, 88
6, 61316, Note_off_c, 2, 66, 0
6, 61320, Note_on_c, 2, 63, 88
6, 61436, Note_off_c, 2, 63, 0
6, 61440, Note_on_c, 2, 64, 88
6, 61556, Note_off_c, 2, 64, 0
6, 61560, Note_on_c, 2, 63, 88
6, 61676, Note_off_c, 2, 63, 0
6, 61680, Note_on_c, 2, 61, 88
6, 61796, Note_off_c, 2, 61, 0
6, 61800, Note_on_c, 2, 59, 88
6, 61916, Note_off_c, 2, 59, 0
6, 61920, Note_on_c, 2, 58, 88
6, 62036, Note_off_c, 2, 58, 0
6, 62040, Note_on_c, 2, 59, 88
6, 62156, Note_off_c, 2, 59, 0
6, 62160, Note_on_c, 2, 61, 88
6, 62276, Note_off_c, 2, 61, 0
6, 62280, Note_on_c, 2, 58, 88
6, 62396, Note_off_c, 2, 58, 0
6, 62400, Note_on_c, 2, 59, 88
6, 62990, Note_off_c, 2, 59, 0
6, 63000, Note_on_c, 2, 61, 88
6, 63116, Note_off_c, 2, 61, 0
6, 63120, Note_on_c, 2, 63, 88
6, 63236, Note_off_c, 2, 63, 0
6, 63240, Note_on_c, 2, 59, 88
6, 63356, Note_off_c, 2, 59, 0
6, 63360, Note_on_c, 2, 61, 88
6, 63476, Note_off_c, 2, 61, 0
6, 63480, Note_on_c, 2, 59, 88
6, 63596, Note_off_c, 2, 59, 0
6, 63600, Note_on_c, 2, 58, 88
6, 63716, Note_off_c, 2, 58, 0
6, 63720, Note_on_c, 2, 56, 88
6, 63836, Note_off_c, 2, 56, 0
6, 63840, Note_on_c, 2, 55, 88
6, 63956, Note_off_c, 2, 55, 0
6, 63960, Note_on_c, 2, 56, 88
6, 64076, Note_off_c, 2, 56, 0
6, 64080, Note_on_c, 2, 58, 88
6, 64196, Note_off_c, 2, 58, 0
6, 64200, Note_on_c, 2, 55, 88
6, 64316, Note_off_c, 2, 55, 0
6, 64320, Note_on_c, 2, 56, 88
6, 64614, Note_off_c, 2, 56, 0
6, 64620, Note_on_c, 2, 54, 88
6, 64678, Note_off_c, 2, 54, 0
6, 64680, Note_on_c, 2, 52, 88
6, 64738, Note_off_c, 2, 52, 0
6, 64740, Note_on_c, 2, 51, 88
6, 64798, Note_off_c, 2, 51, 0
6, 64800, Note_on_c, 2, 49, 88
6, 64916, Note_off_c, 2, 49, 0
6, 64920, Note_on_c, 2, 59, 88
6, 65036, Note_off_c, 2, 59, 0
6, 65040, Note_on_c, 2, 58, 88
6, 65156, Note_off_c, 2, 58, 0
6, 65160, Note_on_c, 2, 54, 88
6, 65276, Note_off_c, 2, 54, 0
6, 65280, Note_on_c, 2, 59, 88
6, 65574, Note_off_c, 2, 59, 0
6, 65580, Note_on_c, 2, 58, 88
6, 65638, Note_off_c, 2, 58, 0
6, 65640, Note_on_c, 2, 56, 88
6, 65698, Note_off_c, 2, 56, 0
6, 65700, Note_on_c, 2, 54, 88
6, 65758, Note_off_c, 2, 54, 0
6, 65760, Note_on_c, 2, 52, 88
6, 65876, Note_off_c, 2, 52, 0
6, 65880, Note_on_c, 2, 63, 88
6, 65996, Note_off_c, 2, 63, 0
6, 66000, Note_on_c, 2, 61, 88
6, 66116, Note_off_c, 2, 61, 0
6, 66120, Note_on_c, 2, 58, 88
6, 66236, Note_off_c, 2, 58, 0
6, 66240, Note_on_c, 2, 63, 88
6, 66534, Note_off_c, 2, 63, 0
6, 66540, Note_on_c, 2, 61, 88
6, 66598, Note_off_c, 2, 61, 0
6, 66600, Note_on_c, 2, 59, 88
6, 66658, Note_off_c, 2, 59, 0
6, 66660, Note_on_c, 2, 58, 88
6, 66718, Note_off_c, 2, 58, 0
6, 66720, Note_on_c, 2, 56, 88
6, 66836, Note_off_c, 2, 56, 0
6, 66840, Note_on_c, 2, 66, 88
6, 66956, Note_off_c, 2, 66, 0
6, 66960, Note_on_c, 2, 65, 88
6, 67076, Note_off_c, 2, 65, 0
6, 67080, Note_on_c, 2, 61, 88
6, 67196, Note_off_c, 2, 61, 0
6, 67200, Note_on_c, 2, 66, 88
6, 67316, Note_off_c, 2, 66, 0
6, 67320, Note_on_c, 2, 68, 88
6, 67436, Note_off_c, 2, 68, 0
6, 67440, Note_on_c, 2, 70, 88
6, 67556, Note_off_c, 2, 70, 0
6, 67560, Note_on_c, 2, 66, 88
6, 67676, Note_off_c, 2, 66, 0
6, 67680, Note_on_c, 2, 63, 88
6, 67796, Note_off_c, 2, 63, 0
6, 67800, Note_on_c, 2, 64, 88
6, 67916, Note_off_c, 2, 64, 0
6, 67920, Note_on_c, 2, 66, 88
6, 68036, Note_off_c, 2, 66, 0
6, 68040, Note_on_c, 2, 63, 88
6, 68156, Note_off_c, 2, 63, 0
6, 68160, Note_on_c, 2, 60, 88
6, 68276, Note_off_c, 2, 60, 0
6, 68280, Note_on_c, 2, 61, 88
6, 68396, Note_off_c, 2, 61, 0
6, 68400, Note_on_c, 2, 63, 88
6, 68516, Note_off_c, 2, 63, 0
6, 68520, Note_on_c, 2, 60, 88
6, 68636, Note_off_c, 2, 60, 0
6, 68640, Note_on_c, 2, 61, 88
6, 68756, Note_off_c, 2, 61, 0
6, 68760, Note_on_c, 2, 63, 88
6, 68876, Note_off_c, 2, 63, 0
6, 68880, Note_on_c, 2, 64, 88
6, 69218, Note_off_c, 2, 64, 0
6, 69240, Note_on_c, 2, 64, 88
6, 69356, Note_off_c, 2, 64, 0
6, 69360, Note_on_c, 2, 63, 88
6, 69476, Note_off_c, 2, 63, 0
6, 69480, Note_on_c, 2, 61, 88
6, 69596, Note_off_c, 2, 61, 0
6, 69600, Note_on_c, 2, 59, 88
6, 69716, Note_off_c, 2, 59, 0
6, 69720, Note_on_c, 2, 61, 88
6, 69836, Note_off_c, 2, 61, 0
6, 69840, Note_on_c, 2, 63, 88
6, 69956, Note_off_c, 2, 63, 0
6, 69960, Note_on_c, 2, 59, 88
6, 70076, Note_off_c, 2, 59, 0
6, 70080, Note_on_c, 2, 56, 88
6, 70196, Note_off_c, 2, 56, 0
6, 70200, Note_on_c, 2, 58, 88
6, 70316, Note_off_c, 2, 58, 0
6, 70320, Note_on_c, 2, 59, 88
6, 70436, Note_off_c, 2, 59, 0
6, 70440, Note_on_c, 2, 56, 88
6, 70556, Note_off_c, 2, 56, 0
6, 70560, Note_on_c, 2, 58, 88
6, 70676, Note_off_c, 2, 58, 0
6, 70680, Note_on_c, 2, 59, 88
6, 70796, Note_off_c, 2, 59, 0
6, 70800, Note_on_c, 2, 61, 88
6, 71156, Note_off_c, 2, 61, 0
6, 71160, Note_on_c, 2, 59, 88
6, 71276, Note_off_c, 2, 59, 0
6, 71280, Note_on_c, 2, 58, 88
6, 71396, Note_off_c, 2, 58, 0
6, 71400, Note_on_c, 2, 56, 88
6, 71516, Note_off_c, 2, 56, 0
6, 71520, Note_on_c, 2, 55, 88
6, 71636, Note_off_c, 2, 55, 0
6, 71640, Note_on_c, 2, 56, 88
6, 71756, Note_off_c, 2, 56, 0
6, 71760, Note_on_c, 2, 58, 88
6, 71876, Note_off_c, 2, 58, 0
6, 71880, Note_on_c, 2, 55, 88
6, 71996, Note_off_c, 2, 55, 0
6, 72000, Note_on_c, 2, 56, 88
6, 72116, Note_off_c, 2, 56, 0
6, 72120, Note_on_c, 2, 59, 88
6, 72236, Note_off_c, 2, 59, 0
6, 72240, Note_on_c, 2, 61, 88
6, 72356, Note_off_c, 2, 61, 0
6, 72360, Note_on_c, 2, 63, 88
6, 72476, Note_off_c, 2, 63, 0
6, 72480, Note_on_c, 2, 64, 88
6, 72714, Note_off_c, 2, 64, 0
6, 72720, Note_on_c, 2, 59, 88
6, 73076, Note_off_c, 2, 59, 0
6, 73080, Note_on_c, 2, 56, 88
6, 73196, Note_off_c, 2, 56, 0
6, 73200, Note_on_c, 2, 58, 88
6, 73316, Note_off_c, 2, 58, 0
6, 73320, Note_on_c, 2, 59, 88
6, 73436, Note_off_c, 2, 59, 0
6, 73440, Note_on_c, 2, 61, 88
6, 73674, Note_off_c, 2, 61, 0
6, 73680, Note_on_c, 2, 66, 88
6, 74036, Note_off_c, 2, 66, 0
6, 74040, Note_on_c, 2, 68, 88
6, 74156, Note_off_c, 2, 68, 0
6, 74160, Note_on_c, 2, 66, 88
6, 74276, Note_off_c, 2, 66, 0
6, 74280, Note_on_c, 2, 64, 88
6, 74396, Note_off_c, 2, 64, 0
6, 74400, Note_on_c, 2, 63, 88
6, 74996, Note_off_c, 2, 63, 0
6, 75000, Note_on_c, 2, 64, 88
6, 75116, Note_off_c, 2, 64, 0
6, 75120, Note_on_c, 2, 63, 88
6, 75236, Note_off_c, 2, 63, 0
6, 75240, Note_on_c, 2, 61, 88
6, 75356, Note_off_c, 2, 61, 0
6, 75360, Note_on_c, 2, 59, 88
6, 76074, Note_off_c, 2, 59, 0
6, 80640, Note_on_c, 2, 54, 88
6, 81110, Note_off_c, 2, 54, 0
6, 81120, Note_on_c, 2, 58, 88
6, 81590, Note_off_c, 2, 58, 0
6, 81600, Note_on_c, 2, 63, 88
6, 82070, Note_off_c, 2, 63, 0
6, 82080, Note_on_c, 2, 59, 88
6, 82550, Note_off_c, 2, 59, 0
6, 82560, Note_on_c, 2, 56, 88
6, 83030, Note_off_c, 2, 56, 0
6, 83040, Note_on_c, 2, 65, 88
6, 83510, Note_off_c, 2, 65, 0
6, 83520, Note_on_c, 2, 66, 88
6, 84110, Note_off_c, 2, 66, 0
6, 84120, Note_on_c, 2, 61, 88
6, 84236, Note_off_c, 2, 61, 0
6, 84240, Note_on_c, 2, 66, 88
6, 84714, Note_off_c, 2, 66, 0
6, 84720, Note_on_c, 2, 60, 88
6, 84836, Note_off_c, 2, 60, 0
6, 84840, Note_on_c, 2, 66, 88
6, 84956, Note_off_c, 2, 66, 0
6, 84960, Note_on_c, 2, 64, 88
6, 85194, Note_off_c, 2, 64, 0
6, 85200, Note_on_c, 2, 63, 88
6, 85674, Note_off_c, 2, 63, 0
6, 85680, Note_on_c, 2, 61, 88
6, 85796, Note_off_c, 2, 61, 0
6, 85800, Note_on_c, 2, 60, 88
6, 85916, Note_off_c, 2, 60, 0
6, 85920, Note_on_c, 2, 61, 88
6, 86036, Note_off_c, 2, 61, 0
6, 86040, Note_on_c, 2, 63, 88
6, 86156, Note_off_c, 2, 63, 0
6, 86160, Note_on_c, 2, 64, 88
6, 86634, Note_off_c, 2, 64, 0
6, 86640, Note_on_c, 2, 58, 88
6, 86756, Note_off_c, 2, 58, 0
6, 86760, Note_on_c, 2, 64, 88
6, 86876, Note_off_c, 2, 64, 0
6, 86880, Note_on_c, 2, 63, 88
6, 87114, Note_off_c, 2, 63, 0
6, 87120, Note_on_c, 2, 61, 88
6, 87594, Note_off_c, 2, 61, 0
6, 87600, Note_on_c, 2, 59, 88
6, 87716, Note_off_c, 2, 59, 0
6, 87720, Note_on_c, 2, 58, 88
6, 87836, Note_off_c, 2, 58, 0
6, 87840, Note_on_c, 2, 59, 88
6, 87956, Note_off_c, 2, 59, 0
6, 87960, Note_on_c, 2, 61, 88
6, 88076, Note_off_c, 2, 61, 0
6, 88080, Note_on_c, 2, 63, 88
6, 88436, Note_off_c, 2, 63, 0
6, 88440, Note_on_c, 2, 64, 88
6, 88556, Note_off_c, 2, 64, 0
6, 88560, Note_on_c, 2, 63, 88
6, 88676, Note_off_c, 2, 63, 0
6, 88680, Note_on_c, 2, 61, 88
6, 88796, Note_off_c, 2, 61, 0
6, 88800, Note_on_c, 2, 59, 88
6, 88916, Note_off_c, 2, 59, 0
6, 88920, Note_on_c, 2, 61, 88
6, 89036, Note_off_c, 2, 61, 0
6, 89040, Note_on_c, 2, 59, 88
6, 89156, Note_off_c, 2, 59, 0
6, 89160, Note_on_c, 2, 57, 88
6, 89276, Note_off_c, 2, 57, 0
6, 89280, Note_on_c, 2, 56, 88
6, 89396, Note_off_c, 2, 56, 0
6, 89400, Note_on_c, 2, 59, 88
6, 89516, Note_off_c, 2, 59, 0
6, 89520, Note_on_c, 2, 64, 88
6, 89636, Note_off_c, 2, 64, 0
6, 89640, Note_on_c, 2, 63, 88
6, 89756, Note_off_c, 2, 63, 0
6, 89760, Note_on_c, 2, 61, 88
6, 89876, Note_off_c, 2, 61, 0
6, 89880, Note_on_c, 2, 63, 88
6, 89996, Note_off_c, 2, 63, 0
6, 90000, Note_on_c, 2, 64, 88
6, 90116, Note_off_c, 2, 64, 0
6, 90120, Note_on_c, 2, 61, 88
6, 90236, Note_off_c, 2, 61, 0
6, 90240, Note_on_c, 2, 58, 88
6, 90356, Note_off_c, 2, 58, 0
6, 90360, Note_on_c, 2, 59, 88
6, 90476, Note_off_c, 2, 59, 0
6, 90480, Note_on_c, 2, 61, 88
6, 90596, Note_off_c, 2, 61, 0
6, 90600, Note_on_c, 2, 58, 88
6, 90716, Note_off_c, 2, 58, 0
6, 90720, Note_on_c, 2, 54, 88
6, 90836, Note_off_c, 2, 54, 0
6, 90840, Note_on_c, 2, 56, 88
6, 90956, Note_off_c, 2, 56, 0
6, 90960, Note_on_c, 2, 58, 88
6, 91316, Note_off_c, 2, 58, 0
6, 91320, Note_on_c, 2, 54, 88
6, 91436, Note_off_c, 2, 54, 0
6, 91440, Note_on_c, 2, 59, 88
6, 91556, Note_off_c, 2, 59, 0
6, 91560, Note_on_c, 2, 58, 88
6, 91676, Note_off_c, 2, 58, 0
6, 91680, Note_on_c, 2, 56, 88
6, 92276, Note_off_c, 2, 56, 0
6, 92280, Note_on_c, 2, 54, 88
6, 92396, Note_off_c, 2, 54, 0
6, 92400, Note_on_c, 2, 52, 88
6, 92516, Note_off_c, 2, 52, 0
6, 92520, Note_on_c, 2, 56, 88
6, 92636, Note_off_c, 2, 56, 0
6, 92640, Note_on_c, 2, 61, 88
6, 93236, Note_off_c, 2, 61, 0
6, 93240, Note_on_c, 2, 59, 88
6, 93356, Note_off_c, 2, 59, 0
6, 93360, Note_on_c, 2, 61, 88
6, 93476, Note_off_c, 2, 61, 0
6, 93480, Note_on_c, 2, 59, 88
6, 93596, Note_off_c, 2, 59, 0
6, 93600, Note_on_c, 2, 61, 88
6, 93834, Note_off_c, 2, 61, 0
6, 94080, Note_on_c, 2, 66, 88
6, 94196, Note_off_c, 2, 66, 0
6, 94200, Note_on_c, 2, 64, 88
6, 94316, Note_off_c, 2, 64, 0
6, 94320, Note_on_c, 2, 66, 88
6, 94436, Note_off_c, 2, 66, 0
6, 94440, Note_on_c, 2, 64, 88
6, 94556, Note_off_c, 2, 64, 0
6, 94560, Note_on_c, 2, 66, 88
6, 94794, Note_off_c, 2, 66, 0
6, 95280, Note_on_c, 2, 59, 88
6, 95514, Note_off_c, 2, 59, 0
6, 95520, Note_on_c, 2, 62, 88
6, 95990, Note_off_c, 2, 62, 0
6, 96000, Note_on_c, 2, 62, 88
6, 96470, Note_off_c, 2, 62, 0
6, 96720, Note_on_c, 2, 56, 88
6, 96954, Note_off_c, 2, 56, 0
6, 96960, Note_on_c, 2, 54, 88
6, 97194, Note_off_c, 2, 54, 0
6, 98280, Note_on_c, 2, 49, 88
6, 98396, Note_off_c, 2, 49, 0
6, 98400, Note_on_c, 2, 54, 88
6, 98870, Note_off_c, 2, 54, 0
6, 98880, Note_on_c, 2, 54, 88
6, 99825, Note_off_c, 2, 54, 0
6, 99825, End_track
7, 0, Start_track
7, 0, Title_t, "Track 4"
7, 0, Program_c, 3, 6
7, 0, Note_on_c, 3, 47, 88
7, 470, Note_off_c, 3, 47, 0
7, 480, Note_on_c, 3, 51, 88
7, 950, Note_off_c, 3, 51, 0
7, 960, Note_on_c, 3, 56, 88
7, 1430, Note_off_c, 3, 56, 0
7, 1440, Note_on_c, 3, 52, 88
7, 1910, Note_off_c, 3, 52, 0
7, 1920, Note_on_c, 3, 49, 88
7, 2390, Note_off_c, 3, 49, 0
7, 2400, Note_on_c, 3, 58, 88
7, 2870, Note_off_c, 3, 58, 0
7, 2880, Note_on_c, 3, 59, 88
7, 3114, Note_off_c, 3, 59, 0
7, 3120, Note_on_c, 3, 58, 88
7, 3236, Note_off_c, 3, 58, 0
7, 3240, Note_on_c, 3, 56, 88
7, 3356, Note_off_c, 3, 56, 0
7, 3360, Note_on_c, 3, 54, 88
7, 3594, Note_off_c, 3, 54, 0
7, 3600, Note_on_c, 3, 52, 88
7, 3834, Note_off_c, 3, 52, 0
7, 3840, Note_on_c, 3, 51, 88
7, 3956, Note_off_c, 3, 51, 0
7, 3960, Note_on_c, 3, 49, 88
7, 4076, Note_off_c, 3, 49, 0
7, 4080, Note_on_c, 3, 52, 88
7, 4550, Note_off_c, 3, 52, 0
7, 4560, Note_on_c, 3, 51, 88
7, 4676, Note_off_c, 3, 51, 0
7, 4680, Note_on_c, 3, 49, 88
7, 4796, Note_off_c, 3, 49, 0
7, 4800, Note_on_c, 3, 47, 88
7, 4916, Note_off_c, 3, 47, 0
7, 4920, Note_on_c, 3, 54, 88
7, 5036, Note_off_c, 3, 54, 0
7, 5040, Note_on_c, 3, 58, 88
7, 5510, Note_off_c, 3, 58, 0
7, 5520, Note_on_c, 3, 56, 88
7, 5636, Note_off_c, 3, 56, 0
7, 5640, Note_on_c, 3, 54, 88
7, 5756, Note_off_c, 3, 54, 0
7, 5760, Note_on_c, 3, 53, 88
7, 5876, Note_off_c, 3, 53, 0
7, 5880, Note_on_c, 3, 59, 88
7, 5996, Note_off_c, 3, 59, 0
7, 6000, Note_on_c, 3, 63, 88
7, 6470, Note_off_c, 3, 63, 0
7, 6480, Note_on_c, 3, 61, 88
7, 6596, Note_off_c, 3, 61, 0
7, 6600, Note_on_c, 3, 59, 88
7, 6716, Note_off_c, 3, 59, 0
7, 6720, Note_on_c, 3, 58, 88
7, 6954, Note_off_c, 3, 58, 0
7, 6960, Note_on_c, 3, 59, 88
7, 7194, Note_off_c, 3, 59, 0
7, 7200, Note_on_c, 3, 58, 88
7, 7434, Note_off_c, 3, 58, 0
7, 7440, Note_on_c, 3, 56, 88
7, 7674, Note_off_c, 3, 56, 0
7, 7680, Note_on_c, 3, 54, 88
7, 7914, Note_off_c, 3, 54, 0
7, 7920, Note_on_c, 3, 53, 88
7, 8036, Note_off_c, 3, 53, 0
7, 8040, Note_on_c, 3, 51, 88
7, 8156, Note_off_c, 3, 51, 0
7, 8160, Note_on_c, 3, 49, 88
7, 8276, Note_off_c, 3, 49, 0
7, 8280, Note_on_c, 3, 51, 88
7, 8396, Note_off_c, 3, 51, 0
7, 8400, Note_on_c, 3, 52, 88
7, 8874, Note_off_c, 3, 52, 0
7, 8880, Note_on_c, 3, 51, 88
7, 8996, Note_off_c, 3, 51, 0
7, 9000, Note_on_c, 3, 49, 88
7, 9116, Note_off_c, 3, 49, 0
7, 9120, Note_on_c, 3, 47, 88
7, 9953, Note_off_c, 3, 47, 0
7, 9960, Note_on_c, 3, 48, 88
7, 10076, Note_off_c, 3, 48, 0
7, 10080, Note_on_c, 3, 49, 88
7, 10196, Note_off_c, 3, 49, 0
7, 10200, Note_on_c, 3, 51, 88
7, 10316, Note_off_c, 3, 51, 0
7, 10320, Note_on_c, 3, 52, 88
7, 10436, Note_off_c, 3, 52, 0
7, 10440, Note_on_c, 3, 49, 88
7, 10556, Note_off_c, 3, 49, 0
7, 10560, Note_on_c, 3, 54, 88
7, 10913, Note_off_c, 3, 54, 0
7, 10920, Note_on_c, 3, 52, 88
7, 11036, Note_off_c, 3, 52, 0
7, 11040, Note_on_c, 3, 51, 88
7, 11156, Note_off_c, 3, 51, 0
7, 11160, Note_on_c, 3, 49, 88
7, 11276, Note_off_c, 3, 49, 0
7, 11280, Note_on_c, 3, 51, 88
7, 11514, Note_off_c, 3, 51, 0
7, 11520, Note_on_c, 3, 56, 88
7, 11754, Note_off_c, 3, 56, 0
7, 11760, Note_on_c, 3, 44, 88
7, 12230, Note_off_c, 3, 44, 0
7, 12240, Note_on_c, 3, 46, 88
7, 12474, Note_off_c, 3, 46, 0
7, 12480, Note_on_c, 3, 47, 88
7, 12714, Note_off_c, 3, 47, 0
7, 17280, Note_on_c, 3, 47, 88
7, 17750, Note_off_c, 3, 47, 0
7, 17760, Note_on_c, 3, 51, 88
7, 18230, Note_off_c, 3, 51, 0
7, 18240, Note_on_c, 3, 56, 88
7, 18710, Note_off_c, 3, 56, 0
7, 18720, Note_on_c, 3, 52, 88
7, 19190, Note_off_c, 3, 52, 0
7, 19200, Note_on_c, 3, 49, 88
7, 19670, Note_off_c, 3, 49, 0
7, 19680, Note_on_c, 3, 58, 88
7, 20150, Note_off_c, 3, 58, 0
7, 20160, Note_on_c, 3, 59, 88
7, 20394, Note_off_c, 3, 59, 0
7, 20400, Note_on_c, 3, 63, 88
7, 20516, Note_off_c, 3, 63, 0
7, 20520, Note_on_c, 3, 61, 88
7, 20636, Note_off_c, 3, 61, 0
7, 20640, Note_on_c, 3, 59, 88
7, 20874, Note_off_c, 3, 59, 0
7, 20880, Note_on_c, 3, 58, 88
7, 21114, Note_off_c, 3, 58, 0
7, 21120, Note_on_c, 3, 56, 88
7, 21710, Note_off_c, 3, 56, 0
7, 21720, Note_on_c, 3, 55, 88
7, 21836, Note_off_c, 3, 55, 0
7, 21840, Note_on_c, 3, 56, 88
7, 21956, Note_off_c, 3, 56, 0
7, 21960, Note_on_c, 3, 55, 88
7, 22076, Note_off_c, 3, 55, 0
7, 22080, Note_on_c, 3, 56, 88
7, 22314, Note_off_c, 3, 56, 0
7, 22320, Note_on_c, 3, 59, 88
7, 22436, Note_off_c, 3, 59, 0
7, 22440, Note_on_c, 3, 58, 88
7, 22556, Note_off_c, 3, 58, 0
7, 22560, Note_on_c, 3, 56, 88
7, 22794, Note_off_c, 3, 56, 0
7, 22800, Note_on_c, 3, 54, 88
7, 23034, Note_off_c, 3, 54, 0
7, 23040, Note_on_c, 3, 53, 88
7, 23510, Note_off_c, 3, 53, 0
7, 23520, Note_on_c, 3, 54, 88
7, 23990, Note_off_c, 3, 54, 0
7, 24000, Note_on_c, 3, 49, 88
7, 24945, Note_off_c, 3, 49, 0
7, 24960, Note_on_c, 3, 42, 88
7, 25430, Note_off_c, 3, 42, 0
7, 29040, Note_on_c, 3, 59, 88
7, 29156, Note_off_c, 3, 59, 0
7, 29160, Note_on_c, 3, 58, 88
7, 29276, Note_off_c, 3, 58, 0
7, 29280, Note_on_c, 3, 56, 88
7, 29396, Note_off_c, 3, 56, 0
7, 29400, Note_on_c, 3, 58, 88
7, 29516, Note_off_c, 3, 58, 0
7, 29520, Note_on_c, 3, 59, 88
7, 29636, Note_off_c, 3, 59, 0
7, 29640, Note_on_c, 3, 56, 88
7, 29756, Note_off_c, 3, 56, 0
7, 29760, Note_on_c, 3, 52, 88
7, 29876, Note_off_c, 3, 52, 0
7, 29880, Note_on_c, 3, 54, 88
7, 29996, Note_off_c, 3, 54, 0
7, 30000, Note_on_c, 3, 56, 88
7, 30116, Note_off_c, 3, 56, 0
7, 30120, Note_on_c, 3, 52, 88
7, 30236, Note_off_c, 3, 52, 0
7, 30240, Note_on_c, 3, 49, 88
7, 30356, Note_off_c, 3, 49, 0
7, 30360, Note_on_c, 3, 51, 88
7, 30476, Note_off_c, 3, 51, 0
7, 30480, Note_on_c, 3, 52, 88
7, 30836, Note_off_c, 3, 52, 0
7, 30840, Note_on_c, 3, 49, 88
7, 30956, Note_off_c, 3, 49, 0
7, 30960, Note_on_c, 3, 51, 88
7, 31194, Note_off_c, 3, 51, 0
7, 31200, Note_on_c, 3, 52, 88
7, 31434, Note_off_c, 3, 52, 0
7, 31440, Note_on_c, 3, 47, 88
7, 31674, Note_off_c, 3, 47, 0
7, 31680, Note_on_c, 3, 49, 88
7, 31796, Note_off_c, 3, 49, 0
7, 31800, Note_on_c, 3, 51, 88
7, 31916, Note_off_c, 3, 51, 0
7, 31920, Note_on_c, 3, 52, 88
7, 32036, Note_off_c, 3, 52, 0
7, 32040, Note_on_c, 3, 49, 88
7, 32156, Note_off_c, 3, 49, 0
7, 32160, Note_on_c, 3, 54, 88
7, 32630, Note_off_c, 3, 54, 0
7, 32640, Note_on_c, 3, 47, 88
7, 32874, Note_off_c, 3, 47, 0
7, 33720, Note_on_c, 3, 47, 88
7, 33836, Note_off_c, 3, 47, 0
7, 33840, Note_on_c, 3, 52, 88
7, 33956, Note_off_c, 3, 52, 0
7, 33960, Note_on_c, 3, 51, 88
7, 34076, Note_off_c, 3, 51, 0
7, 34080, Note_on_c, 3, 49, 88
7, 34196, Note_off_c, 3, 49, 0
7, 34200, Note_on_c, 3, 51, 88
7, 34316, Note_off_c, 3, 51, 0
7, 34320, Note_on_c, 3, 52, 88
7, 34436, Note_off_c, 3, 52, 0
7, 34440, Note_on_c, 3, 49, 88
7, 34556, Note_off_c, 3, 49, 0
7, 34560, Note_on_c, 3, 46, 88
7, 34676, Note_off_c, 3, 46, 0
7, 34680, Note_on_c, 3, 47, 88
7, 34796, Note_off_c, 3, 47, 0
7, 34800, Note_on_c, 3, 49, 88
7, 34916, Note_off_c, 3, 49, 0
7, 34920, Note_on_c, 3, 46, 88
7, 35036, Note_off_c, 3, 46, 0
7, 35040, Note_on_c, 3, 43, 88
7, 35156, Note_off_c, 3, 43, 0
7, 35160, Note_on_c, 3, 44, 88
7, 35276, Note_off_c, 3, 44, 0
7, 35280, Note_on_c, 3, 46, 88
7, 35636, Note_off_c, 3, 46, 0
7, 35640, Note_on_c, 3, 44, 88
7, 35756, Note_off_c, 3, 44, 0
7, 35760, Note_on_c, 3, 46, 88
7, 35876, Note_off_c, 3, 46, 0
7, 35880, Note_on_c, 3, 47, 88
7, 35996, Note_off_c, 3, 47, 0
7, 36000, Note_on_c, 3, 49, 88
7, 36596, Note_off_c, 3, 49, 0
7, 36600, Note_on_c, 3, 42, 88
7, 36716, Note_off_c, 3, 42, 0
7, 36720, Note_on_c, 3, 44, 88
7, 36836, Note_off_c, 3, 44, 0
7, 36840, Note_on_c, 3, 46, 88
7, 36956, Note_off_c, 3, 46, 0
7, 36960, Note_on_c, 3, 47, 88
7, 37556, Note_off_c, 3, 47, 0
7, 37560, Note_on_c, 3, 46, 88
7, 37676, Note_off_c, 3, 46, 0
7, 37680, Note_on_c, 3, 47, 88
7, 37796, Note_off_c, 3, 47, 0
7, 37800, Note_on_c, 3, 49, 88
7, 37916, Note_off_c, 3, 49, 0
7, 37920, Note_on_c, 3, 51, 88
7, 38154, Note_off_c, 3, 51, 0
7, 38160, Note_on_c, 3, 49, 88
7, 38394, Note_off_c, 3, 49, 0
7, 38400, Note_on_c, 3, 47, 88
7, 38516, Note_off_c, 3, 47, 0
7, 38520, Note_on_c, 3, 44, 88
7, 38636, Note_off_c, 3, 44, 0
7, 38640, Note_on_c, 3, 46, 88
7, 38756, Note_off_c, 3, 46, 0
7, 38760, Note_on_c, 3, 47, 88
7, 38876, Note_off_c, 3, 47, 0
7, 38880, Note_on_c, 3, 49, 88
7, 39114, Note_off_c, 3, 49, 0
7, 39120, Note_on_c, 3, 47, 88
7, 39458, Note_off_c, 3, 47, 0
7, 39480, Note_on_c, 3, 47, 88
7, 39596, Note_off_c, 3, 47, 0
7, 39600, Note_on_c, 3, 46, 88
7, 39716, Note_off_c, 3, 46, 0
7, 39720, Note_on_c, 3, 44, 88
7, 39836, Note_off_c, 3, 44, 0
7, 39840, Note_on_c, 3, 42, 88
7, 40074, Note_off_c, 3, 42, 0
7, 40440, Note_on_c, 3, 51, 88
7, 40556, Note_off_c, 3, 51, 0
7, 40560, Note_on_c, 3, 53, 88
7, 40676, Note_off_c, 3, 53, 0
7, 40680, Note_on_c, 3, 55, 88
7, 40796, Note_off_c, 3, 55, 0
7, 40800, Note_on_c, 3, 56, 88
7, 40916, Note_off_c, 3, 56, 0
7, 40920, Note_on_c, 3, 55, 88
7, 41036, Note_off_c, 3, 55, 0
7, 41040, Note_on_c, 3, 56, 88
7, 41498, Note_off_c, 3, 56, 0
7, 41520, Note_on_c, 3, 56, 88
7, 41990, Note_off_c, 3, 56, 0
7, 42000, Note_on_c, 3, 50, 88
7, 42234, Note_off_c, 3, 50, 0
7, 42240, Note_on_c, 3, 51, 88
7, 42474, Note_off_c, 3, 51, 0
7, 45120, Note_on_c, 3, 44, 88
7, 45590, Note_off_c, 3, 44, 0
7, 45600, Note_on_c, 3, 47, 88
7, 46070, Note_off_c, 3, 47, 0
7, 46080, Note_on_c, 3, 52, 88
7, 46550, Note_off_c, 3, 52, 0
7, 46560, Note_on_c, 3, 49, 88
7, 47030, Note_off_c, 3, 49, 0
7, 47040, Note_on_c, 3, 46, 88
7, 47510, Note_off_c, 3, 46, 0
7, 47520, Note_on_c, 3, 55, 88
7, 47990, Note_off_c, 3, 55, 0
7, 48000, Note_on_c, 3, 56, 88
7, 48590, Note_off_c, 3, 56, 0
7, 48600, Note_on_c, 3, 54, 88
7, 48716, Note_off_c, 3, 54, 0
7, 48720, Note_on_c, 3, 53, 88
7, 48836, Note_off_c, 3, 53, 0
7, 48840, Note_on_c, 3, 56, 88
7, 48956, Note_off_c, 3, 56, 0
7, 48960, Note_on_c, 3, 54, 88
7, 49550, Note_off_c, 3, 54, 0
7, 49560, Note_on_c, 3, 52, 88
7, 49676, Note_off_c, 3, 52, 0
7, 49680, Note_on_c, 3, 51, 88
7, 49796, Note_off_c, 3, 51, 0
7, 49800, Note_on_c, 3, 54, 88
7, 49916, Note_off_c, 3, 54, 0
7, 49920, Note_on_c, 3, 52, 88
7, 50273, Note_off_c, 3, 52, 0
7, 50280, Note_on_c, 3, 51, 88
7, 50396, Note_off_c, 3, 51, 0
7, 50400, Note_on_c, 3, 49, 88
7, 50516, Note_off_c, 3, 49, 0
7, 50520, Note_on_c, 3, 51, 88
7, 50636, Note_off_c, 3, 51, 0
7, 50640, Note_on_c, 3, 52, 88
7, 50756, Note_off_c, 3, 52, 0
7, 50760, Note_on_c, 3, 49, 88
7, 50876, Note_off_c, 3, 49, 0
7, 50880, Note_on_c, 3, 45, 88
7, 50996, Note_off_c, 3, 45, 0
7, 51000, Note_on_c, 3, 49, 88
7, 51116, Note_off_c, 3, 49, 0
7, 51120, Note_on_c, 3, 54, 88
7, 51590, Note_off_c, 3, 54, 0
7, 51600, Note_on_c, 3, 48, 88
7, 51956, Note_off_c, 3, 48, 0
7, 51960, Note_on_c, 3, 49, 88
7, 52076, Note_off_c, 3, 49, 0
7, 52080, Note_on_c, 3, 51, 88
7, 52196, Note_off_c, 3, 51, 0
7, 52200, Note_on_c, 3, 48, 88
7, 52316, Note_off_c, 3, 48, 0
7, 52320, Note_on_c, 3, 44, 88
7, 52436, Note_off_c, 3, 44, 0
7, 52440, Note_on_c, 3, 46, 88
7, 52556, Note_off_c, 3, 46, 0
7, 52560, Note_on_c, 3, 48, 88
7, 52676, Note_off_c, 3, 48, 0
7, 52680, Note_on_c, 3, 44, 88
7, 52796, Note_off_c, 3, 44, 0
7, 52800, Note_on_c, 3, 49, 88
7, 52916, Note_off_c, 3, 49, 0
7, 52920, Note_on_c, 3, 51, 88
7, 53036, Note_off_c, 3, 51, 0
7, 53040, Note_on_c, 3, 52, 88
7, 53156, Note_off_c, 3, 52, 0
7, 53160, Note_on_c, 3, 49, 88
7, 53276, Note_off_c, 3, 49, 0
7, 53280, Note_on_c, 3, 45, 88
7, 53396, Note_off_c, 3, 45, 0
7, 53400, Note_on_c, 3, 47, 88
7, 53516, Note_off_c, 3, 47, 0
7, 53520, Note_on_c, 3, 49, 88
7, 53636, Note_off_c, 3, 49, 0
7, 53640, Note_on_c, 3, 45, 88
7, 53756, Note_off_c, 3, 45, 0
7, 53760, Note_on_c, 3, 42, 88
7, 53876, Note_off_c, 3, 42, 0
7, 53880, Note_on_c, 3, 44, 88
7, 53996, Note_off_c, 3, 44, 0
7, 54000, Note_on_c, 3, 45, 88
7, 54116, Note_off_c, 3, 45, 0
7, 54120, Note_on_c, 3, 42, 88
7, 54236, Note_off_c, 3, 42, 0
7, 54240, Note_on_c, 3, 39, 88
7, 54356, Note_off_c, 3, 39, 0
7, 54360, Note_on_c, 3, 40, 88
7, 54476, Note_off_c, 3, 40, 0
7, 54480, Note_on_c, 3, 42, 88
7, 54596, Note_off_c, 3, 42, 0
7, 54600, Note_on_c, 3, 39, 88
7, 54716, Note_off_c, 3, 39, 0
7, 54720, Note_on_c, 3, 44, 88
7, 54836, Note_off_c, 3, 44, 0
7, 54840, Note_on_c, 3, 42, 88
7, 54956, Note_off_c, 3, 42, 0
7, 54960, Note_on_c, 3, 40, 88
7, 55076, Note_off_c, 3, 40, 0
7, 55080, Note_on_c, 3, 42, 88
7, 55196, Note_off_c, 3, 42, 0
7, 55200, Note_on_c, 3, 44, 88
7, 55316, Note_off_c, 3, 44, 0
7, 55320, Note_on_c, 3, 42, 88
7, 55436, Note_off_c, 3, 42, 0
7, 55440, Note_on_c, 3, 44, 88
7, 55556, Note_off_c, 3, 44, 0
7, 55560, Note_on_c, 3, 45, 88
7, 55676, Note_off_c, 3, 45, 0
7, 55680, Note_on_c, 3, 47, 88
7, 56625, Note_off_c, 3, 47, 0
7, 56640, Note_on_c, 3, 52, 88
7, 57110, Note_off_c, 3, 52, 0
7, 71040, Note_on_c, 3, 47, 88
7, 71510, Note_off_c, 3, 47, 0
7, 71520, Note_on_c, 3, 51, 88
7, 71990, Note_off_c, 3, 51, 0
7, 72000, Note_on_c, 3, 56, 88
7, 72470, Note_off_c, 3, 56, 0
7, 72480, Note_on_c, 3, 52, 88
7, 72950, Note_off_c, 3, 52, 0
7, 72960, Note_on_c, 3, 49, 88
7, 73430, Note_off_c, 3, 49, 0
7, 73440, Note_on_c, 3, 58, 88
7, 73910, Note_off_c, 3, 58, 0
7, 73920, Note_on_c, 3, 59, 88
7, 74510, Note_off_c, 3, 59, 0
7, 74520, Note_on_c, 3, 61, 88
7, 74636, Note_off_c, 3, 61, 0
7, 74640, Note_on_c, 3, 59, 88
7, 74756, Note_off_c, 3, 59, 0
7, 74760, Note_on_c, 3, 58, 88
7, 74876, Note_off_c, 3, 58, 0
7, 74880, Note_on_c, 3, 56, 88
7, 75470, Note_off_c, 3, 56, 0
7, 75480, Note_on_c, 3, 58, 88
7, 75596, Note_off_c, 3, 58, 0
7, 75600, Note_on_c, 3, 56, 88
7, 75716, Note_off_c, 3, 56, 0
7, 75720, Note_on_c, 3, 54, 88
7, 75836, Note_off_c, 3, 54, 0
7, 75840, Note_on_c, 3, 53, 88
7, 76430, Note_off_c, 3, 53, 0
7, 76440, Note_on_c, 3, 54, 88
7, 76556, Note_off_c, 3, 54, 0
7, 76560, Note_on_c, 3, 53, 88
7, 76676, Note_off_c, 3, 53, 0
7, 76680, Note_on_c, 3, 51, 88
7, 76796, Note_off_c, 3, 51, 0
7, 76800, Note_on_c, 3, 50, 88
7, 76916, Note_off_c, 3, 50, 0
7, 76920, Note_on_c, 3, 46, 88
7, 77036, Note_off_c, 3, 46, 0
7, 77040, Note_on_c, 3, 48, 88
7, 77156, Note_off_c, 3, 48, 0
7, 77160, Note_on_c, 3, 50, 88
7, 77276, Note_off_c, 3, 50, 0
7, 77280, Note_on_c, 3, 51, 88
7, 77396, Note_off_c, 3, 51, 0
7, 77400, Note_on_c, 3, 53, 88
7, 77516, Note_off_c, 3, 53, 0
7, 77520, Note_on_c, 3, 54, 88
7, 77636, Note_off_c, 3, 54, 0
7, 77640, Note_on_c, 3, 51, 88
7, 77756, Note_off_c, 3, 51, 0
7, 77760, Note_on_c, 3, 56, 88
7, 77876, Note_off_c, 3, 56, 0
7, 77880, Note_on_c, 3, 54, 88
7, 77996, Note_off_c, 3, 54, 0
7, 78000, Note_on_c, 3, 56, 88
7, 78116, Note_off_c, 3, 56, 0
7, 78120, Note_on_c, 3, 58, 88
7, 78236, Note_off_c, 3, 58, 0
7, 78240, Note_on_c, 3, 59, 88
7, 78356, Note_off_c, 3, 59, 0
7, 78360, Note_on_c, 3, 58, 88
7, 78476, Note_off_c, 3, 58, 0
7, 78480, Note_on_c, 3, 59, 88
7, 78596, Note_off_c, 3, 59, 0
7, 78600, Note_on_c, 3, 56, 88
7, 78716, Note_off_c, 3, 56, 0
7, 78720, Note_on_c, 3, 58, 88
7, 79547, Note_off_c, 3, 58, 0
7, 79560, Note_on_c, 3, 57, 88
7, 79676, Note_off_c, 3, 57, 0
7, 79680, Note_on_c, 3, 58, 88
7, 80150, Note_off_c, 3, 58, 0
7, 80160, Note_on_c, 3, 46, 88
7, 80630, Note_off_c, 3, 46, 0
7, 80640, Note_on_c, 3, 51, 88
7, 81230, Note_off_c, 3, 51, 0
7, 81240, Note_on_c, 3, 52, 88
7, 81356, Note_off_c, 3, 52, 0
7, 81360, Note_on_c, 3, 51, 88
7, 81476, Note_off_c, 3, 51, 0
7, 81480, Note_on_c, 3, 49, 88
7, 81596, Note_off_c, 3, 49, 0
7, 81600, Note_on_c, 3, 47, 88
7, 81716, Note_off_c, 3, 47, 0
7, 81720, Note_on_c, 3, 46, 88
7, 81836, Note_off_c, 3, 46, 0
7, 81840, Note_on_c, 3, 47, 88
7, 82193, Note_off_c, 3, 47, 0
7, 82200, Note_on_c, 3, 49, 88
7, 82316, Note_off_c, 3, 49, 0
7, 82320, Note_on_c, 3, 51, 88
7, 82676, Note_off_c, 3, 51, 0
7, 82680, Note_on_c, 3, 49, 88
7, 82796, Note_off_c, 3, 49, 0
7, 82800, Note_on_c, 3, 47, 88
7, 82916, Note_off_c, 3, 47, 0
7, 82920, Note_on_c, 3, 51, 88
7, 83036, Note_off_c, 3, 51, 0
7, 83040, Note_on_c, 3, 49, 88
7, 83156, Note_off_c, 3, 49, 0
7, 83160, Note_on_c, 3, 47, 88
7, 83276, Note_off_c, 3, 47, 0
7, 83280, Note_on_c, 3, 46, 88
7, 83396, Note_off_c, 3, 46, 0
7, 83400, Note_on_c, 3, 44, 88
7, 83516, Note_off_c, 3, 44, 0
7, 83520, Note_on_c, 3, 42, 88
7, 83636, Note_off_c, 3, 42, 0
7, 83640, Note_on_c, 3, 49, 88
7, 83756, Note_off_c, 3, 49, 0
7, 83760, Note_on_c, 3, 54, 88
7, 84113, Note_off_c, 3, 54, 0
7, 84120, Note_on_c, 3, 52, 88
7, 84236, Note_off_c, 3, 52, 0
7, 84240, Note_on_c, 3, 51, 88
7, 84356, Note_off_c, 3, 51, 0
7, 84360, Note_on_c, 3, 49, 88
7, 84476, Note_off_c, 3, 49, 0
7, 84480, Note_on_c, 3, 48, 88
7, 84596, Note_off_c, 3, 48, 0
7, 84600, Note_on_c, 3, 49, 88
7, 84716, Note_off_c, 3, 49, 0
7, 84720, Note_on_c, 3, 51, 88
7, 84836, Note_off_c, 3, 51, 0
7, 84840, Note_on_c, 3, 48, 88
7, 84956, Note_off_c, 3, 48, 0
7, 84960, Note_on_c, 3, 44, 88
7, 85076, Note_off_c, 3, 44, 0
7, 85080, Note_on_c, 3, 46, 88
7, 85196, Note_off_c, 3, 46, 0
7, 85200, Note_on_c, 3, 48, 88
7, 85316, Note_off_c, 3, 48, 0
7, 85320, Note_on_c, 3, 44, 88
7, 85436, Note_off_c, 3, 44, 0
7, 85440, Note_on_c, 3, 49, 88
7, 85556, Note_off_c, 3, 49, 0
7, 85560, Note_on_c, 3, 51, 88
7, 85676, Note_off_c, 3, 51, 0
7, 85680, Note_on_c, 3, 52, 88
7, 86033, Note_off_c, 3, 52, 0
7, 86040, Note_on_c, 3, 51, 88
7, 86156, Note_off_c, 3, 51, 0
7, 86160, Note_on_c, 3, 49, 88
7, 86276, Note_off_c, 3, 49, 0
7, 86280, Note_on_c, 3, 47, 88
7, 86396, Note_off_c, 3, 47, 0
7, 86400, Note_on_c, 3, 46, 88
7, 86516, Note_off_c, 3, 46, 0
7, 86520, Note_on_c, 3, 47, 88
7, 86636, Note_off_c, 3, 47, 0
7, 86640, Note_on_c, 3, 49, 88
7, 86756, Note_off_c, 3, 49, 0
7, 86760, Note_on_c, 3, 46, 88
7, 86876, Note_off_c, 3, 46, 0
7, 86880, Note_on_c, 3, 42, 88
7, 86996, Note_off_c, 3, 42, 0
7, 87000, Note_on_c, 3, 44, 88
7, 87116, Note_off_c, 3, 44, 0
7, 87120, Note_on_c, 3, 46, 88
7, 87236, Note_off_c, 3, 46, 0
7, 87240, Note_on_c, 3, 42, 88
7, 87356, Note_off_c, 3, 42, 0
7, 87360, Note_on_c, 3, 47, 88
7, 87476, Note_off_c, 3, 47, 0
7, 87480, Note_on_c, 3, 49, 88
7, 87596, Note_off_c, 3, 49, 0
7, 87600, Note_on_c, 3, 51, 88
7, 87953, Note_off_c, 3, 51, 0
7, 87960, Note_on_c, 3, 49, 88
7, 88076, Note_off_c, 3, 49, 0
7, 88080, Note_on_c, 3, 47, 88
7, 88196, Note_off_c, 3, 47, 0
7, 88200, Note_on_c, 3, 51, 88
7, 88316, Note_off_c, 3, 51, 0
7, 88320, Note_on_c, 3, 56, 88
7, 88910, Note_off_c, 3, 56, 0
7, 88920, Note_on_c, 3, 57, 88
7, 89036, Note_off_c, 3, 57, 0
7, 89040, Note_on_c, 3, 56, 88
7, 89156, Note_off_c, 3, 56, 0
7, 89160, Note_on_c, 3, 54, 88
7, 89276, Note_off_c, 3, 54, 0
7, 89280, Note_on_c, 3, 52, 88
7, 90948, Note_off_c, 3, 52, 0
7, 90960, Note_on_c, 3, 54, 88
7, 91076, Note_off_c, 3, 54, 0
7, 91080, Note_on_c, 3, 52, 88
7, 91196, Note_off_c, 3, 52, 0
7, 91200, Note_on_c, 3, 51, 88
7, 91790, Note_off_c, 3, 51, 0
7, 91800, Note_on_c, 3, 49, 88
7, 91916, Note_off_c, 3, 49, 0
7, 91920, Note_on_c, 3, 47, 88
7, 92036, Note_off_c, 3, 47, 0
7, 92040, Note_on_c, 3, 51, 88
7, 92156, Note_off_c, 3, 51, 0
7, 92160, Note_on_c, 3, 49, 88
7, 92750, Note_off_c, 3, 49, 0
7, 92760, Note_on_c, 3, 51, 88
7, 92876, Note_off_c, 3, 51, 0
7, 92880, Note_on_c, 3, 52, 88
7, 92996, Note_off_c, 3, 52, 0
7, 93000, Note_on_c, 3, 49, 88
7, 93116, Note_off_c, 3, 49, 0
7, 93120, Note_on_c, 3, 58, 88
7, 93710, Note_off_c, 3, 58, 0
7, 93720, Note_on_c, 3, 56, 88
7, 93836, Note_off_c, 3, 56, 0
7, 93840, Note_on_c, 3, 54, 88
7, 93956, Note_off_c, 3, 54, 0
7, 93960, Note_on_c, 3, 56, 88
7, 94076, Note_off_c, 3, 56, 0
7, 94080, Note_on_c, 3, 57, 88
7, 94670, Note_off_c, 3, 57, 0
7, 94680, Note_on_c, 3, 56, 88
7, 94796, Note_off_c, 3, 56, 0
7, 94800, Note_on_c, 3, 54, 88
7, 94916, Note_off_c, 3, 54, 0
7, 94920, Note_on_c, 3, 57, 88
7, 95036, Note_off_c, 3, 57, 0
7, 95040, Note_on_c, 3, 56, 88
7, 95985, Note_off_c, 3, 56, 0
7, 96000, Note_on_c, 3, 59, 88
7, 96470, Note_off_c, 3, 59, 0
7, 96720, Note_on_c, 3, 53, 88
7, 96954, Note_off_c, 3, 53, 0
7, 96960, Note_on_c, 3, 54, 88
7, 97076, Note_off_c, 3, 54, 0
7, 97080, Note_on_c, 3, 52, 88
7, 97196, Note_off_c, 3, 52, 0
7, 97200, Note_on_c, 3, 51, 88
7, 97316, Note_off_c, 3, 51, 0
7, 97320, Note_on_c, 3, 49, 88
7, 97436, Note_off_c, 3, 49, 0
7, 97440, Note_on_c, 3, 47, 88
7, 97556, Note_off_c, 3, 47, 0
7, 97560, Note_on_c, 3, 49, 88
7, 97676, Note_off_c, 3, 49, 0
7, 97680, Note_on_c, 3, 51, 88
7, 97796, Note_off_c, 3, 51, 0
7, 97800, Note_on_c, 3, 41, 88
7, 97916, Note_off_c, 3, 41, 0
7, 97920, Note_on_c, 3, 42, 88
7, 98865, Note_off_c, 3, 42, 0
7, 98880, Note_on_c, 3, 47, 88
7, 99825, Note_off_c, 3, 47, 0
7, 99825, End_track
0, 0, End_of_file
