0, 0, Header, 1, 6, 240
1, 0, Start_track
1, 0, Time_signature, 3, 3, 24, 8
1, 0, Tempo, 833333
1, 0, SMPTE_offset, 64, 0, 0, 0, 93
1, 0, End_track
2, 0, Start_track
2, 0, Title_t, "(C) & (P) 1993"
2, 127, End_track
3, 0, Start_track
3, 0, Title_t, "CCARH,Stanford"
3, 0, End_track
4, 0, Start_track
4, 0, Title_t, "Track 1"
4, 0, Program_c, 0, 6
4, 2160, Note_on_c, 0, 71, 88
4, 2276, Note_off_c, 0, 71, 0
4, 2280, Note_on_c, 0, 69, 88
4, 2396, Note_off_c, 0, 69, 0
4, 2400, Note_on_c, 0, 66, 88
4, 2516, Note_off_c, 0, 66, 0
4, 2520, Note_on_c, 0, 65, 88
4, 2636, Note_off_c, 0, 65, 0
4, 2640, Note_on_c, 0, 66, 88
4, 2756, Note_off_c, 0, 66, 0
4, 2760, Note_on_c, 0, 68, 88
4, 2818, Note_off_c, 0, 68, 0
4, 2820, Note_on_c, 0, 69, 88
4, 2878, Note_off_c, 0, 69, 0
4, 2880, Note_on_c, 0, 71, 88
4, 2938, Note_off_c, 0, 71, 0
4, 2940, Note_on_c, 0, 73, 88
4, 2998, Note_off_c, 0, 73, 0
4, 3000, Note_on_c, 0, 74, 88
4, 3116, Note_off_c, 0, 74, 0
4, 3120, Note_on_c, 0, 62, 88
4, 3236, Note_off_c, 0, 62, 0
4, 3240, Note_on_c, 0, 74, 88
4, 3356, Note_off_c, 0, 74, 0
4, 3360, Note_on_c, 0, 73, 88
4, 3476, Note_off_c, 0, 73, 0
4, 3480, Note_on_c, 0, 61, 88
4, 3596, Note_off_c, 0, 61, 0
4, 3600, Note_on_c, 0, 73, 88
4, 3716, Note_off_c, 0, 73, 0
4, 3720, Note_on_c, 0, 71, 88
4, 3836, Note_off_c, 0, 71, 0
4, 3840, Note_on_c, 0, 73, 88
4, 3898, Note_off_c, 0, 73, 0
4, 3900, Note_on_c, 0, 71, 88
4, 3958, Note_off_c, 0, 71, 0
4, 3960, Note_on_c, 0, 69, 88
4, 4018, Note_off_c, 0, 69, 0
4, 4020, Note_on_c, 0, 68, 88
4, 4078, Note_off_c, 0, 68, 0
4, 4080, Note_on_c, 0, 69, 88
4, 4138, Note_off_c, 0, 69, 0
4, 4140, Note_on_c, 0, 73, 88
4, 4198, Note_off_c, 0, 73, 0
4, 4200, Note_on_c, 0, 71, 88
4, 4258, Note_off_c, 0, 71, 0
4, 4260, Note_on_c, 0, 69, 88
4, 4318, Note_off_c, 0, 69, 0
4, 4320, Note_on_c, 0, 68, 88
4, 4378, Note_off_c, 0, 68, 0
4, 4380, Note_on_c, 0, 66, 88
4, 4438, Note_off_c, 0, 66, 0
4, 4440, Note_on_c, 0, 67, 88
4, 4556, Note_off_c, 0, 67, 0
4, 4560, Note_on_c, 0, 69, 88
4, 4618, Note_off_c, 0, 69, 0
4, 4620, Note_on_c, 0, 67, 88
4, 4678, Note_off_c, 0, 67, 0
4, 4680, Note_on_c, 0, 66, 88
4, 4738, Note_off_c, 0, 66, 0
4, 4740, Note_on_c, 0, 64, 88
4, 4798, Note_off_c, 0, 64, 0
4, 4800, Note_on_c, 0, 66, 88
4, 4858, Note_off_c, 0, 66, 0
4, 4860, Note_on_c, 0, 69, 88
4, 4918, Note_off_c, 0, 69, 0
4, 4920, Note_on_c, 0, 67, 88
4, 4978, Note_off_c, 0, 67, 0
4, 4980, Note_on_c, 0, 66, 88
4, 5038, Note_off_c, 0, 66, 0
4, 5040, Note_on_c, 0, 64, 88
4, 5098, Note_off_c, 0, 64, 0
4, 5100, Note_on_c, 0, 62, 88
4, 5158, Note_off_c, 0, 62, 0
4, 5160, Note_on_c, 0, 64, 88
4, 5276, Note_off_c, 0, 64, 0
4, 5280, Note_on_c, 0, 66, 88
4, 5338, Note_off_c, 0, 66, 0
4, 5340, Note_on_c, 0, 64, 88
4, 5398, Note_off_c, 0, 64, 0
4, 5400, Note_on_c, 0, 62, 88
4, 5458, Note_off_c, 0, 62, 0
4, 5460, Note_on_c, 0, 61, 88
4, 5518, Note_off_c, 0, 61, 0
4, 5520, Note_on_c, 0, 62, 88
4, 5578, Note_off_c, 0, 62, 0
4, 5580, Note_on_c, 0, 64, 88
4, 5638, Note_off_c, 0, 64, 0
4, 5640, Note_on_c, 0, 66, 88
4, 5698, Note_off_c, 0, 66, 0
4, 5700, Note_on_c, 0, 67, 88
4, 5758, Note_off_c, 0, 67, 0
4, 5760, Note_on_c, 0, 66, 88
4, 6356, Note_off_c, 0, 66, 0
4, 6360, Note_on_c, 0, 64, 88
4, 6476, Note_off_c, 0, 64, 0
4, 6480, Note_on_c, 0, 69, 88
4, 6716, Note_off_c, 0, 69, 0
4, 6720, Note_on_c, 0, 66, 88
4, 6836, Note_off_c, 0, 66, 0
4, 6840, Note_on_c, 0, 62, 88
4, 7076, Note_off_c, 0, 62, 0
4, 7080, Note_on_c, 0, 61, 88
4, 7196, Note_off_c, 0, 61, 0
4, 7200, Note_on_c, 0, 66, 88
4, 7436, Note_off_c, 0, 66, 0
4, 7560, Note_on_c, 0, 68, 88
4, 7676, Note_off_c, 0, 68, 0
4, 7680, Note_on_c, 0, 69, 88
4, 7738, Note_off_c, 0, 69, 0
4, 7740, Note_on_c, 0, 73, 88
4, 7798, Note_off_c, 0, 73, 0
4, 7800, Note_on_c, 0, 71, 88
4, 7858, Note_off_c, 0, 71, 0
4, 7860, Note_on_c, 0, 69, 88
4, 7918, Note_off_c, 0, 69, 0
4, 7920, Note_on_c, 0, 68, 88
4, 7978, Note_off_c, 0, 68, 0
4, 7980, Note_on_c, 0, 66, 88
4, 8038, Note_off_c, 0, 66, 0
4, 8040, Note_on_c, 0, 68, 88
4, 8098, Note_off_c, 0, 68, 0
4, 8100, Note_on_c, 0, 70, 88
4, 8158, Note_off_c, 0, 70, 0
4, 8160, Note_on_c, 0, 71, 88
4, 8182, Note_off_c, 0, 71, 0
4, 8183, Note_on_c, 0, 70, 88
4, 8204, Note_off_c, 0, 70, 0
4, 8205, Note_on_c, 0, 71, 88
4, 8227, Note_off_c, 0, 71, 0
4, 8228, Note_on_c, 0, 70, 88
4, 8249, Note_off_c, 0, 70, 0
4, 8250, Note_on_c, 0, 71, 88
4, 8272, Note_off_c, 0, 71, 0
4, 8273, Note_on_c, 0, 70, 88
4, 8294, Note_off_c, 0, 70, 0
4, 8295, Note_on_c, 0, 71, 88
4, 8317, Note_off_c, 0, 71, 0
4, 8318, Note_on_c, 0, 70, 88
4, 8339, Note_off_c, 0, 70, 0
4, 8340, Note_on_c, 0, 68, 88
4, 8369, Note_off_c, 0, 68, 0
4, 8370, Note_on_c, 0, 70, 88
4, 8399, Note_off_c, 0, 70, 0
4, 8400, Note_on_c, 0, 71, 88
4, 8458, Note_off_c, 0, 71, 0
4, 8460, Note_on_c, 0, 74, 88
4, 8518, Note_off_c, 0, 74, 0
4, 8520, Note_on_c, 0, 73, 88
4, 8578, Note_off_c, 0, 73, 0
4, 8580, Note_on_c, 0, 71, 88
4, 8638, Note_off_c, 0, 71, 0
4, 8640, Note_on_c, 0, 69, 88
4, 8698, Note_off_c, 0, 69, 0
4, 8700, Note_on_c, 0, 68, 88
4, 8758, Note_off_c, 0, 68, 0
4, 8760, Note_on_c, 0, 69, 88
4, 8818, Note_off_c, 0, 69, 0
4, 8820, Note_on_c, 0, 71, 88
4, 8878, Note_off_c, 0, 71, 0
4, 8880, Note_on_c, 0, 73, 88
4, 8902, Note_off_c, 0, 73, 0
4, 8903, Note_on_c, 0, 71, 88
4, 8924, Note_off_c, 0, 71, 0
4, 8925, Note_on_c, 0, 73, 88
4, 8947, Note_off_c, 0, 73, 0
4, 8948, Note_on_c, 0, 71, 88
4, 8969, Note_off_c, 0, 71, 0
4, 8970, Note_on_c, 0, 73, 88
4, 8992, Note_off_c, 0, 73, 0
4, 8993, Note_on_c, 0, 71, 88
4, 9014, Note_off_c, 0, 71, 0
4, 9015, Note_on_c, 0, 73, 88
4, 9037, Note_off_c, 0, 73, 0
4, 9038, Note_on_c, 0, 71, 88
4, 9059, Note_off_c, 0, 71, 0
4, 9060, Note_on_c, 0, 69, 88
4, 9089, Note_off_c, 0, 69, 0
4, 9090, Note_on_c, 0, 71, 88
4, 9119, Note_off_c, 0, 71, 0
4, 9120, Note_on_c, 0, 73, 88
4, 9538, Note_off_c, 0, 73, 0
4, 9540, Note_on_c, 0, 74, 88
4, 9598, Note_off_c, 0, 74, 0
4, 9600, Note_on_c, 0, 73, 88
4, 9658, Note_off_c, 0, 73, 0
4, 9660, Note_on_c, 0, 71, 88
4, 9718, Note_off_c, 0, 71, 0
4, 9720, Note_on_c, 0, 69, 88
4, 9778, Note_off_c, 0, 69, 0
4, 9780, Note_on_c, 0, 68, 88
4, 9838, Note_off_c, 0, 68, 0
4, 9840, Note_on_c, 0, 69, 88
4, 9956, Note_off_c, 0, 69, 0
4, 9960, Note_on_c, 0, 66, 88
4, 10076, Note_off_c, 0, 66, 0
4, 10080, Note_on_c, 0, 65, 88
4, 10196, Note_off_c, 0, 65, 0
4, 10200, Note_on_c, 0, 66, 88
4, 10434, Note_off_c, 0, 66, 0
4, 10440, Note_on_c, 0, 71, 88
4, 10676, Note_off_c, 0, 71, 0
4, 10680, Note_on_c, 0, 65, 88
4, 10796, Note_off_c, 0, 65, 0
4, 10800, Note_on_c, 0, 66, 88
4, 10916, Note_off_c, 0, 66, 0
4, 10920, Note_on_c, 0, 62, 88
4, 11036, Note_off_c, 0, 62, 0
4, 11040, Note_on_c, 0, 61, 88
4, 11514, Note_off_c, 0, 61, 0
4, 11520, Note_on_c, 0, 66, 88
4, 11636, Note_off_c, 0, 66, 0
4, 11640, Note_on_c, 0, 62, 88
4, 11756, Note_off_c, 0, 62, 0
4, 11760, Note_on_c, 0, 64, 88
4, 11876, Note_off_c, 0, 64, 0
4, 11880, Note_on_c, 0, 66, 88
4, 12116, Note_off_c, 0, 66, 0
4, 12120, Note_on_c, 0, 64, 88
4, 12236, Note_off_c, 0, 64, 0
4, 12240, Note_on_c, 0, 62, 88
4, 12356, Note_off_c, 0, 62, 0
4, 12360, Note_on_c, 0, 61, 88
4, 12476, Note_off_c, 0, 61, 0
4, 12600, Note_on_c, 0, 81, 88
4, 12716, Note_off_c, 0, 81, 0
4, 12720, Note_on_c, 0, 78, 88
4, 12836, Note_off_c, 0, 78, 0
4, 12840, Note_on_c, 0, 74, 88
4, 12956, Note_off_c, 0, 74, 0
4, 12960, Note_on_c, 0, 73, 88
4, 13076, Note_off_c, 0, 73, 0
4, 13080, Note_on_c, 0, 74, 88
4, 13196, Note_off_c, 0, 74, 0
4, 13200, Note_on_c, 0, 76, 88
4, 13258, Note_off_c, 0, 76, 0
4, 13260, Note_on_c, 0, 78, 88
4, 13318, Note_off_c, 0, 78, 0
4, 13320, Note_on_c, 0, 79, 88
4, 13378, Note_off_c, 0, 79, 0
4, 13380, Note_on_c, 0, 81, 88
4, 13438, Note_off_c, 0, 81, 0
4, 13440, Note_on_c, 0, 83, 88
4, 13556, Note_off_c, 0, 83, 0
4, 13560, Note_on_c, 0, 71, 88
4, 13676, Note_off_c, 0, 71, 0
4, 13680, Note_on_c, 0, 83, 88
4, 13796, Note_off_c, 0, 83, 0
4, 13800, Note_on_c, 0, 81, 88
4, 13916, Note_off_c, 0, 81, 0
4, 13920, Note_on_c, 0, 69, 88
4, 14036, Note_off_c, 0, 69, 0
4, 14040, Note_on_c, 0, 81, 88
4, 14156, Note_off_c, 0, 81, 0
4, 14160, Note_on_c, 0, 79, 88
4, 14276, Note_off_c, 0, 79, 0
4, 14280, Note_on_c, 0, 81, 88
4, 14338, Note_off_c, 0, 81, 0
4, 14340, Note_on_c, 0, 79, 88
4, 14398, Note_off_c, 0, 79, 0
4, 14400, Note_on_c, 0, 78, 88
4, 14458, Note_off_c, 0, 78, 0
4, 14460, Note_on_c, 0, 76, 88
4, 14518, Note_off_c, 0, 76, 0
4, 14520, Note_on_c, 0, 78, 88
4, 14578, Note_off_c, 0, 78, 0
4, 14580, Note_on_c, 0, 81, 88
4, 14638, Note_off_c, 0, 81, 0
4, 14640, Note_on_c, 0, 79, 88
4, 14698, Note_off_c, 0, 79, 0
4, 14700, Note_on_c, 0, 78, 88
4, 14758, Note_off_c, 0, 78, 0
4, 14760, Note_on_c, 0, 76, 88
4, 14818, Note_off_c, 0, 76, 0
4, 14820, Note_on_c, 0, 74, 88
4, 14878, Note_off_c, 0, 74, 0
4, 14880, Note_on_c, 0, 73, 88
4, 14996, Note_off_c, 0, 73, 0
4, 15000, Note_on_c, 0, 74, 88
4, 15116, Note_off_c, 0, 74, 0
4, 15120, Note_on_c, 0, 76, 88
4, 15356, Note_off_c, 0, 76, 0
4, 15360, Note_on_c, 0, 74, 88
4, 15476, Note_off_c, 0, 74, 0
4, 15480, Note_on_c, 0, 73, 88
4, 15596, Note_off_c, 0, 73, 0
4, 15600, Note_on_c, 0, 71, 88
4, 15716, Note_off_c, 0, 71, 0
4, 15720, Note_on_c, 0, 69, 88
4, 15836, Note_off_c, 0, 69, 0
4, 15840, Note_on_c, 0, 71, 88
4, 15956, Note_off_c, 0, 71, 0
4, 15960, Note_on_c, 0, 73, 88
4, 16076, Note_off_c, 0, 73, 0
4, 16080, Note_on_c, 0, 76, 88
4, 16196, Note_off_c, 0, 76, 0
4, 16200, Note_on_c, 0, 74, 88
4, 16316, Note_off_c, 0, 74, 0
4, 16320, Note_on_c, 0, 73, 88
4, 16722, Note_off_c, 0, 73, 0
4, 16740, Note_on_c, 0, 73, 88
4, 16798, Note_off_c, 0, 73, 0
4, 16800, Note_on_c, 0, 62, 88
4, 16858, Note_off_c, 0, 62, 0
4, 16860, Note_on_c, 0, 73, 88
4, 16918, Note_off_c, 0, 73, 0
4, 16920, Note_on_c, 0, 62, 88
4, 16978, Note_off_c, 0, 62, 0
4, 16980, Note_on_c, 0, 71, 88
4, 17038, Note_off_c, 0, 71, 0
4, 17040, Note_on_c, 0, 61, 88
4, 17098, Note_off_c, 0, 61, 0
4, 17100, Note_on_c, 0, 71, 88
4, 17158, Note_off_c, 0, 71, 0
4, 17160, Note_on_c, 0, 61, 88
4, 17218, Note_off_c, 0, 61, 0
4, 17220, Note_on_c, 0, 71, 88
4, 17278, Note_off_c, 0, 71, 0
4, 17280, Note_on_c, 0, 61, 88
4, 17338, Note_off_c, 0, 61, 0
4, 17340, Note_on_c, 0, 69, 88
4, 17398, Note_off_c, 0, 69, 0
4, 17400, Note_on_c, 0, 59, 88
4, 17458, Note_off_c, 0, 59, 0
4, 17460, Note_on_c, 0, 69, 88
4, 17518, Note_off_c, 0, 69, 0
4, 17520, Note_on_c, 0, 68, 88
4, 17578, Note_off_c, 0, 68, 0
4, 17580, Note_on_c, 0, 71, 88
4, 17638, Note_off_c, 0, 71, 0
4, 17640, Note_on_c, 0, 64, 88
4, 17698, Note_off_c, 0, 64, 0
4, 17700, Note_on_c, 0, 68, 88
4, 17758, Note_off_c, 0, 68, 0
4, 17760, Note_on_c, 0, 69, 88
4, 17876, Note_off_c, 0, 69, 0
4, 17880, Note_on_c, 0, 64, 88
4, 17996, Note_off_c, 0, 64, 0
4, 18000, Note_on_c, 0, 66, 88
4, 18116, Note_off_c, 0, 66, 0
4, 18120, Note_on_c, 0, 67, 88
4, 18236, Note_off_c, 0, 67, 0
4, 18240, Note_on_c, 0, 68, 88
4, 18356, Note_off_c, 0, 68, 0
4, 18360, Note_on_c, 0, 70, 88
4, 18476, Note_off_c, 0, 70, 0
4, 18480, Note_on_c, 0, 71, 88
4, 18596, Note_off_c, 0, 71, 0
4, 18600, Note_on_c, 0, 66, 88
4, 18716, Note_off_c, 0, 66, 0
4, 18720, Note_on_c, 0, 68, 88
4, 18836, Note_off_c, 0, 68, 0
4, 18840, Note_on_c, 0, 69, 88
4, 18956, Note_off_c, 0, 69, 0
4, 18960, Note_on_c, 0, 70, 88
4, 19076, Note_off_c, 0, 70, 0
4, 19080, Note_on_c, 0, 72, 88
4, 19196, Note_off_c, 0, 72, 0
4, 19200, Note_on_c, 0, 73, 88
4, 19676, Note_off_c, 0, 73, 0
4, 19680, Note_on_c, 0, 69, 88
4, 19796, Note_off_c, 0, 69, 0
4, 19800, Note_on_c, 0, 68, 88
4, 19916, Note_off_c, 0, 68, 0
4, 19920, Note_on_c, 0, 66, 88
4, 20036, Note_off_c, 0, 66, 0
4, 20340, Note_on_c, 0, 81, 88
4, 20398, Note_off_c, 0, 81, 0
4, 20400, Note_on_c, 0, 71, 88
4, 20458, Note_off_c, 0, 71, 0
4, 20460, Note_on_c, 0, 81, 88
4, 20518, Note_off_c, 0, 81, 0
4, 20520, Note_on_c, 0, 71, 88
4, 20578, Note_off_c, 0, 71, 0
4, 20580, Note_on_c, 0, 80, 88
4, 20638, Note_off_c, 0, 80, 0
4, 20640, Note_on_c, 0, 69, 88
4, 20698, Note_off_c, 0, 69, 0
4, 20700, Note_on_c, 0, 80, 88
4, 20758, Note_off_c, 0, 80, 0
4, 20760, Note_on_c, 0, 69, 88
4, 20818, Note_off_c, 0, 69, 0
4, 20820, Note_on_c, 0, 80, 88
4, 20878, Note_off_c, 0, 80, 0
4, 20880, Note_on_c, 0, 69, 88
4, 20938, Note_off_c, 0, 69, 0
4, 20940, Note_on_c, 0, 78, 88
4, 20998, Note_off_c, 0, 78, 0
4, 21000, Note_on_c, 0, 68, 88
4, 21058, Note_off_c, 0, 68, 0
4, 21060, Note_on_c, 0, 78, 88
4, 21118, Note_off_c, 0, 78, 0
4, 21120, Note_on_c, 0, 77, 88
4, 21178, Note_off_c, 0, 77, 0
4, 21180, Note_on_c, 0, 80, 88
4, 21238, Note_off_c, 0, 80, 0
4, 21240, Note_on_c, 0, 73, 88
4, 21298, Note_off_c, 0, 73, 0
4, 21300, Note_on_c, 0, 77, 88
4, 21358, Note_off_c, 0, 77, 0
4, 21360, Note_on_c, 0, 78, 88
4, 21476, Note_off_c, 0, 78, 0
4, 21480, Note_on_c, 0, 73, 88
4, 21596, Note_off_c, 0, 73, 0
4, 21600, Note_on_c, 0, 78, 88
4, 21778, Note_off_c, 0, 78, 0
4, 21780, Note_on_c, 0, 76, 88
4, 21838, Note_off_c, 0, 76, 0
4, 21840, Note_on_c, 0, 75, 88
4, 21898, Note_off_c, 0, 75, 0
4, 21900, Note_on_c, 0, 73, 88
4, 21958, Note_off_c, 0, 73, 0
4, 21960, Note_on_c, 0, 71, 88
4, 22182, Note_off_c, 0, 71, 0
4, 22200, Note_on_c, 0, 71, 88
4, 22316, Note_off_c, 0, 71, 0
4, 22320, Note_on_c, 0, 76, 88
4, 22498, Note_off_c, 0, 76, 0
4, 22500, Note_on_c, 0, 74, 88
4, 22558, Note_off_c, 0, 74, 0
4, 22560, Note_on_c, 0, 73, 88
4, 22618, Note_off_c, 0, 73, 0
4, 22620, Note_on_c, 0, 71, 88
4, 22678, Note_off_c, 0, 71, 0
4, 22680, Note_on_c, 0, 69, 88
4, 22902, Note_off_c, 0, 69, 0
4, 22920, Note_on_c, 0, 69, 88
4, 23036, Note_off_c, 0, 69, 0
4, 23040, Note_on_c, 0, 74, 88
4, 23322, Note_off_c, 0, 74, 0
4, 23340, Note_on_c, 0, 74, 88
4, 23398, Note_off_c, 0, 74, 0
4, 23400, Note_on_c, 0, 73, 88
4, 23458, Note_off_c, 0, 73, 0
4, 23460, Note_on_c, 0, 71, 88
4, 23518, Note_off_c, 0, 71, 0
4, 23520, Note_on_c, 0, 70, 88
4, 23636, Note_off_c, 0, 70, 0
4, 23640, Note_on_c, 0, 71, 88
4, 23756, Note_off_c, 0, 71, 0
4, 23760, Note_on_c, 0, 73, 88
4, 23876, Note_off_c, 0, 73, 0
4, 23880, Note_on_c, 0, 74, 88
4, 24298, Note_off_c, 0, 74, 0
4, 24300, Note_on_c, 0, 73, 88
4, 24358, Note_off_c, 0, 73, 0
4, 24360, Note_on_c, 0, 74, 88
4, 24418, Note_off_c, 0, 74, 0
4, 24420, Note_on_c, 0, 76, 88
4, 24478, Note_off_c, 0, 76, 0
4, 24480, Note_on_c, 0, 78, 88
4, 24538, Note_off_c, 0, 78, 0
4, 24540, Note_on_c, 0, 79, 88
4, 24598, Note_off_c, 0, 79, 0
4, 24600, Note_on_c, 0, 70, 88
4, 24834, Note_off_c, 0, 70, 0
4, 26100, Note_on_c, 0, 79, 88
4, 26158, Note_off_c, 0, 79, 0
4, 26160, Note_on_c, 0, 69, 88
4, 26218, Note_off_c, 0, 69, 0
4, 26220, Note_on_c, 0, 79, 88
4, 26278, Note_off_c, 0, 79, 0
4, 26280, Note_on_c, 0, 69, 88
4, 26338, Note_off_c, 0, 69, 0
4, 26340, Note_on_c, 0, 78, 88
4, 26398, Note_off_c, 0, 78, 0
4, 26400, Note_on_c, 0, 67, 88
4, 26458, Note_off_c, 0, 67, 0
4, 26460, Note_on_c, 0, 78, 88
4, 26518, Note_off_c, 0, 78, 0
4, 26520, Note_on_c, 0, 67, 88
4, 26578, Note_off_c, 0, 67, 0
4, 26580, Note_on_c, 0, 78, 88
4, 26638, Note_off_c, 0, 78, 0
4, 26640, Note_on_c, 0, 67, 88
4, 26698, Note_off_c, 0, 67, 0
4, 26700, Note_on_c, 0, 76, 88
4, 26758, Note_off_c, 0, 76, 0
4, 26760, Note_on_c, 0, 66, 88
4, 26818, Note_off_c, 0, 66, 0
4, 26820, Note_on_c, 0, 76, 88
4, 26878, Note_off_c, 0, 76, 0
4, 26880, Note_on_c, 0, 75, 88
4, 26938, Note_off_c, 0, 75, 0
4, 26940, Note_on_c, 0, 78, 88
4, 26998, Note_off_c, 0, 78, 0
4, 27000, Note_on_c, 0, 71, 88
4, 27058, Note_off_c, 0, 71, 0
4, 27060, Note_on_c, 0, 75, 88
4, 27118, Note_off_c, 0, 75, 0
4, 27120, Note_on_c, 0, 76, 88
4, 27178, Note_off_c, 0, 76, 0
4, 27180, Note_on_c, 0, 75, 88
4, 27238, Note_off_c, 0, 75, 0
4, 27240, Note_on_c, 0, 76, 88
4, 27298, Note_off_c, 0, 76, 0
4, 27300, Note_on_c, 0, 79, 88
4, 27358, Note_off_c, 0, 79, 0
4, 27360, Note_on_c, 0, 83, 88
4, 27418, Note_off_c, 0, 83, 0
4, 27420, Note_on_c, 0, 74, 88
4, 27478, Note_off_c, 0, 74, 0
4, 27480, Note_on_c, 0, 73, 88
4, 27538, Note_off_c, 0, 73, 0
4, 27540, Note_on_c, 0, 71, 88
4, 27598, Note_off_c, 0, 71, 0
4, 27600, Note_on_c, 0, 73, 88
4, 27658, Note_off_c, 0, 73, 0
4, 27660, Note_on_c, 0, 76, 88
4, 27718, Note_off_c, 0, 76, 0
4, 27720, Note_on_c, 0, 69, 88
4, 27778, Note_off_c, 0, 69, 0
4, 27780, Note_on_c, 0, 73, 88
4, 27838, Note_off_c, 0, 73, 0
4, 27840, Note_on_c, 0, 74, 88
4, 27898, Note_off_c, 0, 74, 0
4, 27900, Note_on_c, 0, 73, 88
4, 27958, Note_off_c, 0, 73, 0
4, 27960, Note_on_c, 0, 74, 88
4, 28018, Note_off_c, 0, 74, 0
4, 28020, Note_on_c, 0, 78, 88
4, 28078, Note_off_c, 0, 78, 0
4, 28080, Note_on_c, 0, 81, 88
4, 28138, Note_off_c, 0, 81, 0
4, 28140, Note_on_c, 0, 73, 88
4, 28198, Note_off_c, 0, 73, 0
4, 28200, Note_on_c, 0, 71, 88
4, 28258, Note_off_c, 0, 71, 0
4, 28260, Note_on_c, 0, 70, 88
4, 28318, Note_off_c, 0, 70, 0
4, 28320, Note_on_c, 0, 71, 88
4, 28378, Note_off_c, 0, 71, 0
4, 28380, Note_on_c, 0, 74, 88
4, 28438, Note_off_c, 0, 74, 0
4, 28440, Note_on_c, 0, 73, 88
4, 28498, Note_off_c, 0, 73, 0
4, 28500, Note_on_c, 0, 71, 88
4, 28558, Note_off_c, 0, 71, 0
4, 28560, Note_on_c, 0, 70, 88
4, 28618, Note_off_c, 0, 70, 0
4, 28620, Note_on_c, 0, 71, 88
4, 28678, Note_off_c, 0, 71, 0
4, 28680, Note_on_c, 0, 73, 88
4, 28738, Note_off_c, 0, 73, 0
4, 28740, Note_on_c, 0, 74, 88
4, 28798, Note_off_c, 0, 74, 0
4, 28800, Note_on_c, 0, 76, 88
4, 29036, Note_off_c, 0, 76, 0
4, 29040, Note_on_c, 0, 73, 88
4, 29156, Note_off_c, 0, 73, 0
4, 29160, Note_on_c, 0, 78, 88
4, 29276, Note_off_c, 0, 78, 0
4, 29280, Note_on_c, 0, 74, 88
4, 29396, Note_off_c, 0, 74, 0
4, 29400, Note_on_c, 0, 71, 88
4, 29516, Note_off_c, 0, 71, 0
4, 29520, Note_on_c, 0, 70, 88
4, 29636, Note_off_c, 0, 70, 0
4, 29640, Note_on_c, 0, 71, 88
4, 29756, Note_off_c, 0, 71, 0
4, 29760, Note_on_c, 0, 73, 88
4, 29818, Note_off_c, 0, 73, 0
4, 29820, Note_on_c, 0, 74, 88
4, 29878, Note_off_c, 0, 74, 0
4, 29880, Note_on_c, 0, 76, 88
4, 29938, Note_off_c, 0, 76, 0
4, 29940, Note_on_c, 0, 78, 88
4, 29998, Note_off_c, 0, 78, 0
4, 30000, Note_on_c, 0, 79, 88
4, 30116, Note_off_c, 0, 79, 0
4, 30120, Note_on_c, 0, 67, 88
4, 30236, Note_off_c, 0, 67, 0
4, 30240, Note_on_c, 0, 79, 88
4, 30356, Note_off_c, 0, 79, 0
4, 30360, Note_on_c, 0, 78, 88
4, 30476, Note_off_c, 0, 78, 0
4, 30480, Note_on_c, 0, 66, 88
4, 30596, Note_off_c, 0, 66, 0
4, 30600, Note_on_c, 0, 78, 88
4, 30716, Note_off_c, 0, 78, 0
4, 30720, Note_on_c, 0, 76, 88
4, 30836, Note_off_c, 0, 76, 0
4, 30840, Note_on_c, 0, 78, 88
4, 30898, Note_off_c, 0, 78, 0
4, 30900, Note_on_c, 0, 76, 88
4, 30958, Note_off_c, 0, 76, 0
4, 30960, Note_on_c, 0, 74, 88
4, 31018, Note_off_c, 0, 74, 0
4, 31020, Note_on_c, 0, 73, 88
4, 31078, Note_off_c, 0, 73, 0
4, 31080, Note_on_c, 0, 74, 88
4, 31196, Note_off_c, 0, 74, 0
4, 31200, Note_on_c, 0, 76, 88
4, 31316, Note_off_c, 0, 76, 0
4, 31320, Note_on_c, 0, 78, 88
4, 31556, Note_off_c, 0, 78, 0
4, 31560, Note_on_c, 0, 76, 88
4, 31676, Note_off_c, 0, 76, 0
4, 31680, Note_on_c, 0, 74, 88
4, 31796, Note_off_c, 0, 74, 0
4, 31800, Note_on_c, 0, 73, 88
4, 31916, Note_off_c, 0, 73, 0
4, 31920, Note_on_c, 0, 74, 88
4, 32036, Note_off_c, 0, 74, 0
4, 32040, Note_on_c, 0, 76, 88
4, 32276, Note_off_c, 0, 76, 0
4, 32280, Note_on_c, 0, 74, 88
4, 32396, Note_off_c, 0, 74, 0
4, 32400, Note_on_c, 0, 73, 88
4, 32516, Note_off_c, 0, 73, 0
4, 32520, Note_on_c, 0, 71, 88
4, 32754, Note_off_c, 0, 71, 0
4, 32760, Note_on_c, 0, 73, 88
4, 32876, Note_off_c, 0, 73, 0
4, 32880, Note_on_c, 0, 74, 88
4, 32996, Note_off_c, 0, 74, 0
4, 33000, Note_on_c, 0, 69, 88
4, 33116, Note_off_c, 0, 69, 0
4, 33120, Note_on_c, 0, 71, 88
4, 33236, Note_off_c, 0, 71, 0
4, 33240, Note_on_c, 0, 72, 88
4, 33356, Note_off_c, 0, 72, 0
4, 33360, Note_on_c, 0, 73, 88
4, 33476, Note_off_c, 0, 73, 0
4, 33480, Note_on_c, 0, 75, 88
4, 33596, Note_off_c, 0, 75, 0
4, 33600, Note_on_c, 0, 76, 88
4, 33716, Note_off_c, 0, 76, 0
4, 33720, Note_on_c, 0, 71, 88
4, 33836, Note_off_c, 0, 71, 0
4, 33840, Note_on_c, 0, 73, 88
4, 33956, Note_off_c, 0, 73, 0
4, 33960, Note_on_c, 0, 74, 88
4, 34076, Note_off_c, 0, 74, 0
4, 34080, Note_on_c, 0, 75, 88
4, 34196, Note_off_c, 0, 75, 0
4, 34200, Note_on_c, 0, 77, 88
4, 34316, Note_off_c, 0, 77, 0
4, 34320, Note_on_c, 0, 78, 88
4, 34554, Note_off_c, 0, 78, 0
4, 35340, Note_on_c, 0, 78, 88
4, 35398, Note_off_c, 0, 78, 0
4, 35400, Note_on_c, 0, 76, 88
4, 35458, Note_off_c, 0, 76, 0
4, 35460, Note_on_c, 0, 74, 88
4, 35518, Note_off_c, 0, 74, 0
4, 35520, Note_on_c, 0, 73, 88
4, 35578, Note_off_c, 0, 73, 0
4, 35580, Note_on_c, 0, 71, 88
4, 35638, Note_off_c, 0, 71, 0
4, 35640, Note_on_c, 0, 73, 88
4, 35698, Note_off_c, 0, 73, 0
4, 35700, Note_on_c, 0, 70, 88
4, 35758, Note_off_c, 0, 70, 0
4, 35760, Note_on_c, 0, 70, 88
4, 35994, Note_off_c, 0, 70, 0
4, 36000, Note_on_c, 0, 71, 88
4, 36353, Note_off_c, 0, 71, 0
4, 36353, End_track
5, 0, Start_track
5, 0, Title_t, "Track 2"
5, 0, Program_c, 1, 6
5, 0, Note_on_c, 1, 66, 88
5, 116, Note_off_c, 1, 66, 0
5, 120, Note_on_c, 1, 62, 88
5, 236, Note_off_c, 1, 62, 0
5, 240, Note_on_c, 1, 59, 88
5, 356, Note_off_c, 1, 59, 0
5, 360, Note_on_c, 1, 58, 88
5, 476, Note_off_c, 1, 58, 0
5, 480, Note_on_c, 1, 59, 88
5, 596, Note_off_c, 1, 59, 0
5, 600, Note_on_c, 1, 61, 88
5, 658, Note_off_c, 1, 61, 0
5, 660, Note_on_c, 1, 62, 88
5, 718, Note_off_c, 1, 62, 0
5, 720, Note_on_c, 1, 64, 88
5, 778, Note_off_c, 1, 64, 0
5, 780, Note_on_c, 1, 66, 88
5, 838, Note_off_c, 1, 66, 0
5, 840, Note_on_c, 1, 67, 88
5, 956, Note_off_c, 1, 67, 0
5, 960, Note_on_c, 1, 55, 88
5, 1076, Note_off_c, 1, 55, 0
5, 1080, Note_on_c, 1, 67, 88
5, 1196, Note_off_c, 1, 67, 0
5, 1200, Note_on_c, 1, 66, 88
5, 1316, Note_off_c, 1, 66, 0
5, 1320, Note_on_c, 1, 54, 88
5, 1436, Note_off_c, 1, 54, 0
5, 1440, Note_on_c, 1, 66, 88
5, 1556, Note_off_c, 1, 66, 0
5, 1560, Note_on_c, 1, 64, 88
5, 1676, Note_off_c, 1, 64, 0
5, 1680, Note_on_c, 1, 66, 88
5, 1738, Note_off_c, 1, 66, 0
5, 1740, Note_on_c, 1, 64, 88
5, 1798, Note_off_c, 1, 64, 0
5, 1800, Note_on_c, 1, 62, 88
5, 1858, Note_off_c, 1, 62, 0
5, 1860, Note_on_c, 1, 61, 88
5, 1918, Note_off_c, 1, 61, 0
5, 1920, Note_on_c, 1, 62, 88
5, 1978, Note_off_c, 1, 62, 0
5, 1980, Note_on_c, 1, 66, 88
5, 2038, Note_off_c, 1, 66, 0
5, 2040, Note_on_c, 1, 64, 88
5, 2098, Note_off_c, 1, 64, 0
5, 2100, Note_on_c, 1, 62, 88
5, 2158, Note_off_c, 1, 62, 0
5, 2160, Note_on_c, 1, 61, 88
5, 2218, Note_off_c, 1, 61, 0
5, 2220, Note_on_c, 1, 59, 88
5, 2278, Note_off_c, 1, 59, 0
5, 2280, Note_on_c, 1, 61, 88
5, 2338, Note_off_c, 1, 61, 0
5, 2340, Note_on_c, 1, 59, 88
5, 2398, Note_off_c, 1, 59, 0
5, 2400, Note_on_c, 1, 61, 88
5, 2458, Note_off_c, 1, 61, 0
5, 2460, Note_on_c, 1, 62, 88
5, 2518, Note_off_c, 1, 62, 0
5, 2520, Note_on_c, 1, 61, 88
5, 2578, Note_off_c, 1, 61, 0
5, 2580, Note_on_c, 1, 59, 88
5, 2638, Note_off_c, 1, 59, 0
5, 2640, Note_on_c, 1, 57, 88
5, 2756, Note_off_c, 1, 57, 0
5, 2760, Note_on_c, 1, 54, 88
5, 2876, Note_off_c, 1, 54, 0
5, 2880, Note_on_c, 1, 53, 88
5, 2996, Note_off_c, 1, 53, 0
5, 3000, Note_on_c, 1, 54, 88
5, 3058, Note_off_c, 1, 54, 0
5, 3060, Note_on_c, 1, 56, 88
5, 3118, Note_off_c, 1, 56, 0
5, 3120, Note_on_c, 1, 57, 88
5, 3142, Note_off_c, 1, 57, 0
5, 3143, Note_on_c, 1, 56, 88
5, 3164, Note_off_c, 1, 56, 0
5, 3165, Note_on_c, 1, 57, 88
5, 3187, Note_off_c, 1, 57, 0
5, 3188, Note_on_c, 1, 56, 88
5, 3209, Note_off_c, 1, 56, 0
5, 3210, Note_on_c, 1, 57, 88
5, 3232, Note_off_c, 1, 57, 0
5, 3233, Note_on_c, 1, 56, 88
5, 3254, Note_off_c, 1, 56, 0
5, 3255, Note_on_c, 1, 57, 88
5, 3277, Note_off_c, 1, 57, 0
5, 3278, Note_on_c, 1, 56, 88
5, 3299, Note_off_c, 1, 56, 0
5, 3300, Note_on_c, 1, 54, 88
5, 3329, Note_off_c, 1, 54, 0
5, 3330, Note_on_c, 1, 56, 88
5, 3359, Note_off_c, 1, 56, 0
5, 3360, Note_on_c, 1, 57, 88
5, 3418, Note_off_c, 1, 57, 0
5, 3420, Note_on_c, 1, 59, 88
5, 3478, Note_off_c, 1, 59, 0
5, 3480, Note_on_c, 1, 57, 88
5, 3538, Note_off_c, 1, 57, 0
5, 3540, Note_on_c, 1, 56, 88
5, 3598, Note_off_c, 1, 56, 0
5, 3600, Note_on_c, 1, 54, 88
5, 3658, Note_off_c, 1, 54, 0
5, 3660, Note_on_c, 1, 52, 88
5, 3718, Note_off_c, 1, 52, 0
5, 3720, Note_on_c, 1, 51, 88
5, 3778, Note_off_c, 1, 51, 0
5, 3780, Note_on_c, 1, 53, 88
5, 3838, Note_off_c, 1, 53, 0
5, 3840, Note_on_c, 1, 54, 88
5, 3862, Note_off_c, 1, 54, 0
5, 3863, Note_on_c, 1, 53, 88
5, 3884, Note_off_c, 1, 53, 0
5, 3885, Note_on_c, 1, 54, 88
5, 3907, Note_off_c, 1, 54, 0
5, 3908, Note_on_c, 1, 53, 88
5, 3929, Note_off_c, 1, 53, 0
5, 3930, Note_on_c, 1, 54, 88
5, 3952, Note_off_c, 1, 54, 0
5, 3953, Note_on_c, 1, 53, 88
5, 3974, Note_off_c, 1, 53, 0
5, 3975, Note_on_c, 1, 54, 88
5, 3997, Note_off_c, 1, 54, 0
5, 3998, Note_on_c, 1, 53, 88
5, 4019, Note_off_c, 1, 53, 0
5, 4020, Note_on_c, 1, 51, 88
5, 4049, Note_off_c, 1, 51, 0
5, 4050, Note_on_c, 1, 53, 88
5, 4079, Note_off_c, 1, 53, 0
5, 4080, Note_on_c, 1, 54, 88
5, 4196, Note_off_c, 1, 54, 0
5, 4200, Note_on_c, 1, 56, 88
5, 4316, Note_off_c, 1, 56, 0
5, 4320, Note_on_c, 1, 57, 88
5, 4436, Note_off_c, 1, 57, 0
5, 4440, Note_on_c, 1, 59, 88
5, 4498, Note_off_c, 1, 59, 0
5, 4500, Note_on_c, 1, 61, 88
5, 4558, Note_off_c, 1, 61, 0
5, 4560, Note_on_c, 1, 62, 88
5, 4582, Note_off_c, 1, 62, 0
5, 4583, Note_on_c, 1, 61, 88
5, 4604, Note_off_c, 1, 61, 0
5, 4605, Note_on_c, 1, 62, 88
5, 4627, Note_off_c, 1, 62, 0
5, 4628, Note_on_c, 1, 61, 88
5, 4649, Note_off_c, 1, 61, 0
5, 4650, Note_on_c, 1, 62, 88
5, 4672, Note_off_c, 1, 62, 0
5, 4673, Note_on_c, 1, 61, 88
5, 4694, Note_off_c, 1, 61, 0
5, 4695, Note_on_c, 1, 62, 88
5, 4717, Note_off_c, 1, 62, 0
5, 4718, Note_on_c, 1, 61, 88
5, 4739, Note_off_c, 1, 61, 0
5, 4740, Note_on_c, 1, 59, 88
5, 4769, Note_off_c, 1, 59, 0
5, 4770, Note_on_c, 1, 61, 88
5, 4799, Note_off_c, 1, 61, 0
5, 4800, Note_on_c, 1, 62, 88
5, 4916, Note_off_c, 1, 62, 0
5, 4920, Note_on_c, 1, 58, 88
5, 5036, Note_off_c, 1, 58, 0
5, 5040, Note_on_c, 1, 59, 88
5, 5276, Note_off_c, 1, 59, 0
5, 5280, Note_on_c, 1, 58, 88
5, 5338, Note_off_c, 1, 58, 0
5, 5340, Note_on_c, 1, 56, 88
5, 5398, Note_off_c, 1, 56, 0
5, 5400, Note_on_c, 1, 58, 88
5, 5516, Note_off_c, 1, 58, 0
5, 5520, Note_on_c, 1, 59, 88
5, 5636, Note_off_c, 1, 59, 0
5, 5820, Note_on_c, 1, 64, 88
5, 5878, Note_off_c, 1, 64, 0
5, 5880, Note_on_c, 1, 62, 88
5, 5996, Note_off_c, 1, 62, 0
5, 6000, Note_on_c, 1, 59, 88
5, 6116, Note_off_c, 1, 59, 0
5, 6120, Note_on_c, 1, 58, 88
5, 6236, Note_off_c, 1, 58, 0
5, 6240, Note_on_c, 1, 59, 88
5, 6298, Note_off_c, 1, 59, 0
5, 6300, Note_on_c, 1, 61, 88
5, 6358, Note_off_c, 1, 61, 0
5, 6360, Note_on_c, 1, 62, 88
5, 6382, Note_off_c, 1, 62, 0
5, 6383, Note_on_c, 1, 61, 88
5, 6404, Note_off_c, 1, 61, 0
5, 6405, Note_on_c, 1, 62, 88
5, 6427, Note_off_c, 1, 62, 0
5, 6428, Note_on_c, 1, 61, 88
5, 6449, Note_off_c, 1, 61, 0
5, 6450, Note_on_c, 1, 62, 88
5, 6472, Note_off_c, 1, 62, 0
5, 6473, Note_on_c, 1, 61, 88
5, 6494, Note_off_c, 1, 61, 0
5, 6495, Note_on_c, 1, 62, 88
5, 6517, Note_off_c, 1, 62, 0
5, 6518, Note_on_c, 1, 61, 88
5, 6539, Note_off_c, 1, 61, 0
5, 6540, Note_on_c, 1, 59, 88
5, 6569, Note_off_c, 1, 59, 0
5, 6570, Note_on_c, 1, 61, 88
5, 6599, Note_off_c, 1, 61, 0
5, 6600, Note_on_c, 1, 62, 88
5, 6658, Note_off_c, 1, 62, 0
5, 6660, Note_on_c, 1, 64, 88
5, 6718, Note_off_c, 1, 64, 0
5, 6720, Note_on_c, 1, 62, 88
5, 6778, Note_off_c, 1, 62, 0
5, 6780, Note_on_c, 1, 61, 88
5, 6838, Note_off_c, 1, 61, 0
5, 6840, Note_on_c, 1, 59, 88
5, 6898, Note_off_c, 1, 59, 0
5, 6900, Note_on_c, 1, 57, 88
5, 6958, Note_off_c, 1, 57, 0
5, 6960, Note_on_c, 1, 56, 88
5, 7018, Note_off_c, 1, 56, 0
5, 7020, Note_on_c, 1, 58, 88
5, 7078, Note_off_c, 1, 58, 0
5, 7080, Note_on_c, 1, 59, 88
5, 7102, Note_off_c, 1, 59, 0
5, 7103, Note_on_c, 1, 58, 88
5, 7124, Note_off_c, 1, 58, 0
5, 7125, Note_on_c, 1, 59, 88
5, 7147, Note_off_c, 1, 59, 0
5, 7148, Note_on_c, 1, 58, 88
5, 7169, Note_off_c, 1, 58, 0
5, 7170, Note_on_c, 1, 59, 88
5, 7192, Note_off_c, 1, 59, 0
5, 7193, Note_on_c, 1, 58, 88
5, 7214, Note_off_c, 1, 58, 0
5, 7215, Note_on_c, 1, 59, 88
5, 7237, Note_off_c, 1, 59, 0
5, 7238, Note_on_c, 1, 58, 88
5, 7259, Note_off_c, 1, 58, 0
5, 7260, Note_on_c, 1, 56, 88
5, 7289, Note_off_c, 1, 56, 0
5, 7290, Note_on_c, 1, 58, 88
5, 7319, Note_off_c, 1, 58, 0
5, 7320, Note_on_c, 1, 59, 88
5, 7436, Note_off_c, 1, 59, 0
5, 9360, Note_on_c, 1, 61, 88
5, 9476, Note_off_c, 1, 61, 0
5, 9480, Note_on_c, 1, 57, 88
5, 9596, Note_off_c, 1, 57, 0
5, 9600, Note_on_c, 1, 54, 88
5, 9716, Note_off_c, 1, 54, 0
5, 9720, Note_on_c, 1, 53, 88
5, 9836, Note_off_c, 1, 53, 0
5, 9840, Note_on_c, 1, 54, 88
5, 9956, Note_off_c, 1, 54, 0
5, 9960, Note_on_c, 1, 56, 88
5, 10018, Note_off_c, 1, 56, 0
5, 10020, Note_on_c, 1, 57, 88
5, 10078, Note_off_c, 1, 57, 0
5, 10080, Note_on_c, 1, 59, 88
5, 10138, Note_off_c, 1, 59, 0
5, 10140, Note_on_c, 1, 61, 88
5, 10198, Note_off_c, 1, 61, 0
5, 10200, Note_on_c, 1, 62, 88
5, 10316, Note_off_c, 1, 62, 0
5, 10320, Note_on_c, 1, 50, 88
5, 10436, Note_off_c, 1, 50, 0
5, 10440, Note_on_c, 1, 62, 88
5, 10556, Note_off_c, 1, 62, 0
5, 10560, Note_on_c, 1, 61, 88
5, 10676, Note_off_c, 1, 61, 0
5, 10680, Note_on_c, 1, 49, 88
5, 10796, Note_off_c, 1, 49, 0
5, 10800, Note_on_c, 1, 61, 88
5, 10916, Note_off_c, 1, 61, 0
5, 10920, Note_on_c, 1, 59, 88
5, 11036, Note_off_c, 1, 59, 0
5, 11040, Note_on_c, 1, 61, 88
5, 11098, Note_off_c, 1, 61, 0
5, 11100, Note_on_c, 1, 59, 88
5, 11158, Note_off_c, 1, 59, 0
5, 11160, Note_on_c, 1, 57, 88
5, 11218, Note_off_c, 1, 57, 0
5, 11220, Note_on_c, 1, 56, 88
5, 11278, Note_off_c, 1, 56, 0
5, 11280, Note_on_c, 1, 57, 88
5, 11396, Note_off_c, 1, 57, 0
5, 11400, Note_on_c, 1, 59, 88
5, 11516, Note_off_c, 1, 59, 0
5, 11520, Note_on_c, 1, 61, 88
5, 11756, Note_off_c, 1, 61, 0
5, 11760, Note_on_c, 1, 59, 88
5, 11876, Note_off_c, 1, 59, 0
5, 11880, Note_on_c, 1, 57, 88
5, 11996, Note_off_c, 1, 57, 0
5, 12000, Note_on_c, 1, 55, 88
5, 12116, Note_off_c, 1, 55, 0
5, 12120, Note_on_c, 1, 57, 88
5, 12236, Note_off_c, 1, 57, 0
5, 12240, Note_on_c, 1, 59, 88
5, 12476, Note_off_c, 1, 59, 0
5, 12480, Note_on_c, 1, 57, 88
5, 12596, Note_off_c, 1, 57, 0
5, 13500, Note_on_c, 1, 66, 88
5, 13558, Note_off_c, 1, 66, 0
5, 13560, Note_on_c, 1, 55, 88
5, 13618, Note_off_c, 1, 55, 0
5, 13620, Note_on_c, 1, 66, 88
5, 13678, Note_off_c, 1, 66, 0
5, 13680, Note_on_c, 1, 55, 88
5, 13738, Note_off_c, 1, 55, 0
5, 13740, Note_on_c, 1, 64, 88
5, 13798, Note_off_c, 1, 64, 0
5, 13800, Note_on_c, 1, 54, 88
5, 13858, Note_off_c, 1, 54, 0
5, 13860, Note_on_c, 1, 64, 88
5, 13918, Note_off_c, 1, 64, 0
5, 13920, Note_on_c, 1, 54, 88
5, 13978, Note_off_c, 1, 54, 0
5, 13980, Note_on_c, 1, 64, 88
5, 14038, Note_off_c, 1, 64, 0
5, 14040, Note_on_c, 1, 54, 88
5, 14098, Note_off_c, 1, 54, 0
5, 14100, Note_on_c, 1, 62, 88
5, 14158, Note_off_c, 1, 62, 0
5, 14160, Note_on_c, 1, 52, 88
5, 14218, Note_off_c, 1, 52, 0
5, 14220, Note_on_c, 1, 62, 88
5, 14278, Note_off_c, 1, 62, 0
5, 14280, Note_on_c, 1, 61, 88
5, 14338, Note_off_c, 1, 61, 0
5, 14340, Note_on_c, 1, 64, 88
5, 14398, Note_off_c, 1, 64, 0
5, 14400, Note_on_c, 1, 57, 88
5, 14458, Note_off_c, 1, 57, 0
5, 14460, Note_on_c, 1, 61, 88
5, 14518, Note_off_c, 1, 61, 0
5, 14520, Note_on_c, 1, 62, 88
5, 14578, Note_off_c, 1, 62, 0
5, 14580, Note_on_c, 1, 61, 88
5, 14638, Note_off_c, 1, 61, 0
5, 14640, Note_on_c, 1, 62, 88
5, 14698, Note_off_c, 1, 62, 0
5, 14700, Note_on_c, 1, 64, 88
5, 14758, Note_off_c, 1, 64, 0
5, 14760, Note_on_c, 1, 66, 88
5, 14818, Note_off_c, 1, 66, 0
5, 14820, Note_on_c, 1, 68, 88
5, 14878, Note_off_c, 1, 68, 0
5, 14880, Note_on_c, 1, 69, 88
5, 14938, Note_off_c, 1, 69, 0
5, 14940, Note_on_c, 1, 68, 88
5, 14998, Note_off_c, 1, 68, 0
5, 15000, Note_on_c, 1, 69, 88
5, 15058, Note_off_c, 1, 69, 0
5, 15060, Note_on_c, 1, 71, 88
5, 15118, Note_off_c, 1, 71, 0
5, 15120, Note_on_c, 1, 69, 88
5, 15178, Note_off_c, 1, 69, 0
5, 15180, Note_on_c, 1, 68, 88
5, 15238, Note_off_c, 1, 68, 0
5, 15240, Note_on_c, 1, 66, 88
5, 15298, Note_off_c, 1, 66, 0
5, 15300, Note_on_c, 1, 64, 88
5, 15358, Note_off_c, 1, 64, 0
5, 15360, Note_on_c, 1, 66, 88
5, 15418, Note_off_c, 1, 66, 0
5, 15420, Note_on_c, 1, 68, 88
5, 15478, Note_off_c, 1, 68, 0
5, 15480, Note_on_c, 1, 69, 88
5, 15538, Note_off_c, 1, 69, 0
5, 15540, Note_on_c, 1, 66, 88
5, 15598, Note_off_c, 1, 66, 0
5, 15600, Note_on_c, 1, 68, 88
5, 15658, Note_off_c, 1, 68, 0
5, 15660, Note_on_c, 1, 64, 88
5, 15718, Note_off_c, 1, 64, 0
5, 15720, Note_on_c, 1, 66, 88
5, 15778, Note_off_c, 1, 66, 0
5, 15780, Note_on_c, 1, 64, 88
5, 15838, Note_off_c, 1, 64, 0
5, 15840, Note_on_c, 1, 68, 88
5, 15898, Note_off_c, 1, 68, 0
5, 15900, Note_on_c, 1, 64, 88
5, 15958, Note_off_c, 1, 64, 0
5, 15960, Note_on_c, 1, 69, 88
5, 16018, Note_off_c, 1, 69, 0
5, 16020, Note_on_c, 1, 64, 88
5, 16078, Note_off_c, 1, 64, 0
5, 16080, Note_on_c, 1, 73, 88
5, 16138, Note_off_c, 1, 73, 0
5, 16140, Note_on_c, 1, 64, 88
5, 16198, Note_off_c, 1, 64, 0
5, 16200, Note_on_c, 1, 71, 88
5, 16258, Note_off_c, 1, 71, 0
5, 16260, Note_on_c, 1, 64, 88
5, 16318, Note_off_c, 1, 64, 0
5, 16320, Note_on_c, 1, 69, 88
5, 16495, Note_off_c, 1, 69, 0
5, 16500, Note_on_c, 1, 68, 88
5, 16558, Note_off_c, 1, 68, 0
5, 16560, Note_on_c, 1, 66, 88
5, 16618, Note_off_c, 1, 66, 0
5, 16620, Note_on_c, 1, 64, 88
5, 16678, Note_off_c, 1, 64, 0
5, 16680, Note_on_c, 1, 62, 88
5, 16796, Note_off_c, 1, 62, 0
5, 16800, Note_on_c, 1, 69, 88
5, 16916, Note_off_c, 1, 69, 0
5, 16920, Note_on_c, 1, 68, 88
5, 17036, Note_off_c, 1, 68, 0
5, 17160, Note_on_c, 1, 68, 88
5, 17276, Note_off_c, 1, 68, 0
5, 17280, Note_on_c, 1, 66, 88
5, 17396, Note_off_c, 1, 66, 0
5, 17520, Note_on_c, 1, 64, 88
5, 17636, Note_off_c, 1, 64, 0
5, 17640, Note_on_c, 1, 62, 88
5, 17876, Note_off_c, 1, 62, 0
5, 17880, Note_on_c, 1, 61, 88
5, 17996, Note_off_c, 1, 61, 0
5, 18000, Note_on_c, 1, 60, 88
5, 18236, Note_off_c, 1, 60, 0
5, 18240, Note_on_c, 1, 59, 88
5, 18356, Note_off_c, 1, 59, 0
5, 18360, Note_on_c, 1, 64, 88
5, 18596, Note_off_c, 1, 64, 0
5, 18600, Note_on_c, 1, 63, 88
5, 18716, Note_off_c, 1, 63, 0
5, 18720, Note_on_c, 1, 62, 88
5, 18956, Note_off_c, 1, 62, 0
5, 18960, Note_on_c, 1, 61, 88
5, 19076, Note_off_c, 1, 61, 0
5, 19080, Note_on_c, 1, 66, 88
5, 19316, Note_off_c, 1, 66, 0
5, 19320, Note_on_c, 1, 65, 88
5, 19436, Note_off_c, 1, 65, 0
5, 19440, Note_on_c, 1, 73, 88
5, 19556, Note_off_c, 1, 73, 0
5, 19560, Note_on_c, 1, 69, 88
5, 19676, Note_off_c, 1, 69, 0
5, 19680, Note_on_c, 1, 66, 88
5, 19796, Note_off_c, 1, 66, 0
5, 19800, Note_on_c, 1, 65, 88
5, 19916, Note_off_c, 1, 65, 0
5, 19920, Note_on_c, 1, 66, 88
5, 20036, Note_off_c, 1, 66, 0
5, 20040, Note_on_c, 1, 68, 88
5, 20098, Note_off_c, 1, 68, 0
5, 20100, Note_on_c, 1, 70, 88
5, 20158, Note_off_c, 1, 70, 0
5, 20160, Note_on_c, 1, 71, 88
5, 20218, Note_off_c, 1, 71, 0
5, 20220, Note_on_c, 1, 73, 88
5, 20278, Note_off_c, 1, 73, 0
5, 20280, Note_on_c, 1, 74, 88
5, 20396, Note_off_c, 1, 74, 0
5, 20400, Note_on_c, 1, 62, 88
5, 20516, Note_off_c, 1, 62, 0
5, 20520, Note_on_c, 1, 74, 88
5, 20636, Note_off_c, 1, 74, 0
5, 20640, Note_on_c, 1, 73, 88
5, 20756, Note_off_c, 1, 73, 0
5, 20760, Note_on_c, 1, 61, 88
5, 20876, Note_off_c, 1, 61, 0
5, 20880, Note_on_c, 1, 73, 88
5, 20996, Note_off_c, 1, 73, 0
5, 21000, Note_on_c, 1, 71, 88
5, 21116, Note_off_c, 1, 71, 0
5, 21120, Note_on_c, 1, 73, 88
5, 21178, Note_off_c, 1, 73, 0
5, 21180, Note_on_c, 1, 71, 88
5, 21238, Note_off_c, 1, 71, 0
5, 21240, Note_on_c, 1, 69, 88
5, 21298, Note_off_c, 1, 69, 0
5, 21300, Note_on_c, 1, 68, 88
5, 21358, Note_off_c, 1, 68, 0
5, 21360, Note_on_c, 1, 69, 88
5, 22002, Note_off_c, 1, 69, 0
5, 22020, Note_on_c, 1, 69, 88
5, 22078, Note_off_c, 1, 69, 0
5, 22080, Note_on_c, 1, 67, 88
5, 22138, Note_off_c, 1, 67, 0
5, 22140, Note_on_c, 1, 66, 88
5, 22198, Note_off_c, 1, 66, 0
5, 22200, Note_on_c, 1, 64, 88
5, 22316, Note_off_c, 1, 64, 0
5, 22320, Note_on_c, 1, 67, 88
5, 22722, Note_off_c, 1, 67, 0
5, 22740, Note_on_c, 1, 67, 88
5, 22798, Note_off_c, 1, 67, 0
5, 22800, Note_on_c, 1, 66, 88
5, 22858, Note_off_c, 1, 66, 0
5, 22860, Note_on_c, 1, 64, 88
5, 22918, Note_off_c, 1, 64, 0
5, 22920, Note_on_c, 1, 62, 88
5, 23036, Note_off_c, 1, 62, 0
5, 23040, Note_on_c, 1, 66, 88
5, 23202, Note_off_c, 1, 66, 0
5, 23220, Note_on_c, 1, 66, 88
5, 23278, Note_off_c, 1, 66, 0
5, 23280, Note_on_c, 1, 64, 88
5, 23562, Note_off_c, 1, 64, 0
5, 23580, Note_on_c, 1, 64, 88
5, 23638, Note_off_c, 1, 64, 0
5, 23640, Note_on_c, 1, 62, 88
5, 23698, Note_off_c, 1, 62, 0
5, 23700, Note_on_c, 1, 61, 88
5, 23758, Note_off_c, 1, 61, 0
5, 23760, Note_on_c, 1, 59, 88
5, 23818, Note_off_c, 1, 59, 0
5, 23820, Note_on_c, 1, 58, 88
5, 23878, Note_off_c, 1, 58, 0
5, 23880, Note_on_c, 1, 59, 88
5, 23996, Note_off_c, 1, 59, 0
5, 24000, Note_on_c, 1, 66, 88
5, 24116, Note_off_c, 1, 66, 0
5, 24120, Note_on_c, 1, 71, 88
5, 24356, Note_off_c, 1, 71, 0
5, 24360, Note_on_c, 1, 59, 88
5, 24476, Note_off_c, 1, 59, 0
5, 24480, Note_on_c, 1, 64, 88
5, 24658, Note_off_c, 1, 64, 0
5, 24660, Note_on_c, 1, 67, 88
5, 24718, Note_off_c, 1, 67, 0
5, 24720, Note_on_c, 1, 66, 88
5, 24778, Note_off_c, 1, 66, 0
5, 24780, Note_on_c, 1, 64, 88
5, 24838, Note_off_c, 1, 64, 0
5, 24840, Note_on_c, 1, 62, 88
5, 24898, Note_off_c, 1, 62, 0
5, 24900, Note_on_c, 1, 61, 88
5, 24958, Note_off_c, 1, 61, 0
5, 24960, Note_on_c, 1, 62, 88
5, 25076, Note_off_c, 1, 62, 0
5, 25080, Note_on_c, 1, 59, 88
5, 25196, Note_off_c, 1, 59, 0
5, 25200, Note_on_c, 1, 58, 88
5, 25316, Note_off_c, 1, 58, 0
5, 25320, Note_on_c, 1, 59, 88
5, 25436, Note_off_c, 1, 59, 0
5, 25440, Note_on_c, 1, 61, 88
5, 25498, Note_off_c, 1, 61, 0
5, 25500, Note_on_c, 1, 63, 88
5, 25558, Note_off_c, 1, 63, 0
5, 25560, Note_on_c, 1, 64, 88
5, 25618, Note_off_c, 1, 64, 0
5, 25620, Note_on_c, 1, 66, 88
5, 25678, Note_off_c, 1, 66, 0
5, 25680, Note_on_c, 1, 67, 88
5, 25796, Note_off_c, 1, 67, 0
5, 25800, Note_on_c, 1, 64, 88
5, 25916, Note_off_c, 1, 64, 0
5, 25920, Note_on_c, 1, 63, 88
5, 26036, Note_off_c, 1, 63, 0
5, 26040, Note_on_c, 1, 64, 88
5, 26156, Note_off_c, 1, 64, 0
5, 26280, Note_on_c, 1, 64, 88
5, 26396, Note_off_c, 1, 64, 0
5, 26400, Note_on_c, 1, 63, 88
5, 26516, Note_off_c, 1, 63, 0
5, 26640, Note_on_c, 1, 64, 88
5, 26756, Note_off_c, 1, 64, 0
5, 26760, Note_on_c, 1, 66, 88
5, 27113, Note_off_c, 1, 66, 0
5, 27120, Note_on_c, 1, 59, 88
5, 27236, Note_off_c, 1, 59, 0
5, 27360, Note_on_c, 1, 64, 88
5, 27476, Note_off_c, 1, 64, 0
5, 27480, Note_on_c, 1, 69, 88
5, 27596, Note_off_c, 1, 69, 0
5, 27840, Note_on_c, 1, 57, 88
5, 27956, Note_off_c, 1, 57, 0
5, 28080, Note_on_c, 1, 62, 88
5, 28196, Note_off_c, 1, 62, 0
5, 28200, Note_on_c, 1, 67, 88
5, 28676, Note_off_c, 1, 67, 0
5, 28860, Note_on_c, 1, 67, 88
5, 28918, Note_off_c, 1, 67, 0
5, 28920, Note_on_c, 1, 66, 88
5, 29036, Note_off_c, 1, 66, 0
5, 29040, Note_on_c, 1, 70, 88
5, 29274, Note_off_c, 1, 70, 0
5, 29280, Note_on_c, 1, 71, 88
5, 29396, Note_off_c, 1, 71, 0
5, 30060, Note_on_c, 1, 74, 88
5, 30118, Note_off_c, 1, 74, 0
5, 30120, Note_on_c, 1, 64, 88
5, 30178, Note_off_c, 1, 64, 0
5, 30180, Note_on_c, 1, 74, 88
5, 30238, Note_off_c, 1, 74, 0
5, 30240, Note_on_c, 1, 64, 88
5, 30298, Note_off_c, 1, 64, 0
5, 30300, Note_on_c, 1, 73, 88
5, 30358, Note_off_c, 1, 73, 0
5, 30360, Note_on_c, 1, 62, 88
5, 30418, Note_off_c, 1, 62, 0
5, 30420, Note_on_c, 1, 73, 88
5, 30478, Note_off_c, 1, 73, 0
5, 30480, Note_on_c, 1, 62, 88
5, 30538, Note_off_c, 1, 62, 0
5, 30540, Note_on_c, 1, 73, 88
5, 30598, Note_off_c, 1, 73, 0
5, 30600, Note_on_c, 1, 62, 88
5, 30658, Note_off_c, 1, 62, 0
5, 30660, Note_on_c, 1, 71, 88
5, 30718, Note_off_c, 1, 71, 0
5, 30720, Note_on_c, 1, 61, 88
5, 30836, Note_off_c, 1, 61, 0
5, 30840, Note_on_c, 1, 73, 88
5, 31196, Note_off_c, 1, 73, 0
5, 31200, Note_on_c, 1, 71, 88
5, 31316, Note_off_c, 1, 71, 0
5, 31320, Note_on_c, 1, 69, 88
5, 31436, Note_off_c, 1, 69, 0
5, 31440, Note_on_c, 1, 67, 88
5, 31556, Note_off_c, 1, 67, 0
5, 31560, Note_on_c, 1, 69, 88
5, 31676, Note_off_c, 1, 69, 0
5, 31680, Note_on_c, 1, 71, 88
5, 31916, Note_off_c, 1, 71, 0
5, 31920, Note_on_c, 1, 69, 88
5, 32036, Note_off_c, 1, 69, 0
5, 32040, Note_on_c, 1, 67, 88
5, 32156, Note_off_c, 1, 67, 0
5, 32160, Note_on_c, 1, 66, 88
5, 32276, Note_off_c, 1, 66, 0
5, 32280, Note_on_c, 1, 67, 88
5, 32396, Note_off_c, 1, 67, 0
5, 32400, Note_on_c, 1, 69, 88
5, 32636, Note_off_c, 1, 69, 0
5, 32640, Note_on_c, 1, 62, 88
5, 32756, Note_off_c, 1, 62, 0
5, 32760, Note_on_c, 1, 67, 88
5, 32996, Note_off_c, 1, 67, 0
5, 33000, Note_on_c, 1, 66, 88
5, 33116, Note_off_c, 1, 66, 0
5, 33120, Note_on_c, 1, 65, 88
5, 33356, Note_off_c, 1, 65, 0
5, 33360, Note_on_c, 1, 64, 88
5, 33476, Note_off_c, 1, 64, 0
5, 33480, Note_on_c, 1, 69, 88
5, 33716, Note_off_c, 1, 69, 0
5, 33720, Note_on_c, 1, 68, 88
5, 33836, Note_off_c, 1, 68, 0
5, 33840, Note_on_c, 1, 67, 88
5, 34076, Note_off_c, 1, 67, 0
5, 34080, Note_on_c, 1, 66, 88
5, 34196, Note_off_c, 1, 66, 0
5, 34200, Note_on_c, 1, 71, 88
5, 34436, Note_off_c, 1, 71, 0
5, 34440, Note_on_c, 1, 70, 88
5, 34556, Note_off_c, 1, 70, 0
5, 34560, Note_on_c, 1, 66, 88
5, 34676, Note_off_c, 1, 66, 0
5, 34680, Note_on_c, 1, 62, 88
5, 34796, Note_off_c, 1, 62, 0
5, 34800, Note_on_c, 1, 59, 88
5, 34916, Note_off_c, 1, 59, 0
5, 34920, Note_on_c, 1, 58, 88
5, 35036, Note_off_c, 1, 58, 0
5, 35040, Note_on_c, 1, 59, 88
5, 35098, Note_off_c, 1, 59, 0
5, 35100, Note_on_c, 1, 71, 88
5, 35158, Note_off_c, 1, 71, 0
5, 35160, Note_on_c, 1, 70, 88
5, 35218, Note_off_c, 1, 70, 0
5, 35220, Note_on_c, 1, 71, 88
5, 35278, Note_off_c, 1, 71, 0
5, 35280, Note_on_c, 1, 73, 88
5, 35396, Note_off_c, 1, 73, 0
5, 35520, Note_on_c, 1, 66, 88
5, 35636, Note_off_c, 1, 66, 0
5, 35640, Note_on_c, 1, 64, 88
5, 35756, Note_off_c, 1, 64, 0
5, 35760, Note_on_c, 1, 64, 88
5, 35994, Note_off_c, 1, 64, 0
5, 36000, Note_on_c, 1, 63, 88
5, 36353, Note_off_c, 1, 63, 0
5, 36353, End_track
6, 0, Start_track
6, 0, Title_t, "Track 3"
6, 0, Program_c, 2, 6
6, 5400, Note_on_c, 2, 54, 88
6, 5516, Note_off_c, 2, 54, 0
6, 5520, Note_on_c, 2, 50, 88
6, 5636, Note_off_c, 2, 50, 0
6, 5640, Note_on_c, 2, 47, 88
6, 5756, Note_off_c, 2, 47, 0
6, 5760, Note_on_c, 2, 46, 88
6, 5876, Note_off_c, 2, 46, 0
6, 5880, Note_on_c, 2, 47, 88
6, 5996, Note_off_c, 2, 47, 0
6, 6000, Note_on_c, 2, 49, 88
6, 6058, Note_off_c, 2, 49, 0
6, 6060, Note_on_c, 2, 50, 88
6, 6118, Note_off_c, 2, 50, 0
6, 6120, Note_on_c, 2, 52, 88
6, 6178, Note_off_c, 2, 52, 0
6, 6180, Note_on_c, 2, 54, 88
6, 6238, Note_off_c, 2, 54, 0
6, 6240, Note_on_c, 2, 55, 88
6, 6356, Note_off_c, 2, 55, 0
6, 6360, Note_on_c, 2, 43, 88
6, 6476, Note_off_c, 2, 43, 0
6, 6480, Note_on_c, 2, 55, 88
6, 6596, Note_off_c, 2, 55, 0
6, 6600, Note_on_c, 2, 54, 88
6, 6716, Note_off_c, 2, 54, 0
6, 6720, Note_on_c, 2, 42, 88
6, 6836, Note_off_c, 2, 42, 0
6, 6840, Note_on_c, 2, 54, 88
6, 6956, Note_off_c, 2, 54, 0
6, 6960, Note_on_c, 2, 52, 88
6, 7076, Note_off_c, 2, 52, 0
6, 7080, Note_on_c, 2, 54, 88
6, 7138, Note_off_c, 2, 54, 0
6, 7140, Note_on_c, 2, 52, 88
6, 7198, Note_off_c, 2, 52, 0
6, 7200, Note_on_c, 2, 50, 88
6, 7258, Note_off_c, 2, 50, 0
6, 7260, Note_on_c, 2, 49, 88
6, 7318, Note_off_c, 2, 49, 0
6, 7320, Note_on_c, 2, 50, 88
6, 7378, Note_off_c, 2, 50, 0
6, 7380, Note_on_c, 2, 54, 88
6, 7438, Note_off_c, 2, 54, 0
6, 7440, Note_on_c, 2, 52, 88
6, 7498, Note_off_c, 2, 52, 0
6, 7500, Note_on_c, 2, 50, 88
6, 7558, Note_off_c, 2, 50, 0
6, 7560, Note_on_c, 2, 49, 88
6, 7618, Note_off_c, 2, 49, 0
6, 7620, Note_on_c, 2, 47, 88
6, 7678, Note_off_c, 2, 47, 0
6, 7680, Note_on_c, 2, 49, 88
6, 7738, Note_off_c, 2, 49, 0
6, 7740, Note_on_c, 2, 51, 88
6, 7798, Note_off_c, 2, 51, 0
6, 7800, Note_on_c, 2, 52, 88
6, 7822, Note_off_c, 2, 52, 0
6, 7823, Note_on_c, 2, 51, 88
6, 7844, Note_off_c, 2, 51, 0
6, 7845, Note_on_c, 2, 52, 88
6, 7867, Note_off_c, 2, 52, 0
6, 7868, Note_on_c, 2, 51, 88
6, 7889, Note_off_c, 2, 51, 0
6, 7890, Note_on_c, 2, 52, 88
6, 7912, Note_off_c, 2, 52, 0
6, 7913, Note_on_c, 2, 51, 88
6, 7934, Note_off_c, 2, 51, 0
6, 7935, Note_on_c, 2, 52, 88
6, 7957, Note_off_c, 2, 52, 0
6, 7958, Note_on_c, 2, 51, 88
6, 7979, Note_off_c, 2, 51, 0
6, 7980, Note_on_c, 2, 49, 88
6, 8009, Note_off_c, 2, 49, 0
6, 8010, Note_on_c, 2, 51, 88
6, 8039, Note_off_c, 2, 51, 0
6, 8040, Note_on_c, 2, 52, 88
6, 8098, Note_off_c, 2, 52, 0
6, 8100, Note_on_c, 2, 55, 88
6, 8158, Note_off_c, 2, 55, 0
6, 8160, Note_on_c, 2, 54, 88
6, 8218, Note_off_c, 2, 54, 0
6, 8220, Note_on_c, 2, 52, 88
6, 8278, Note_off_c, 2, 52, 0
6, 8280, Note_on_c, 2, 50, 88
6, 8338, Note_off_c, 2, 50, 0
6, 8340, Note_on_c, 2, 49, 88
6, 8398, Note_off_c, 2, 49, 0
6, 8400, Note_on_c, 2, 51, 88
6, 8458, Note_off_c, 2, 51, 0
6, 8460, Note_on_c, 2, 53, 88
6, 8518, Note_off_c, 2, 53, 0
6, 8520, Note_on_c, 2, 54, 88
6, 8542, Note_off_c, 2, 54, 0
6, 8543, Note_on_c, 2, 53, 88
6, 8564, Note_off_c, 2, 53, 0
6, 8565, Note_on_c, 2, 54, 88
6, 8587, Note_off_c, 2, 54, 0
6, 8588, Note_on_c, 2, 53, 88
6, 8609, Note_off_c, 2, 53, 0
6, 8610, Note_on_c, 2, 54, 88
6, 8632, Note_off_c, 2, 54, 0
6, 8633, Note_on_c, 2, 53, 88
6, 8654, Note_off_c, 2, 53, 0
6, 8655, Note_on_c, 2, 54, 88
6, 8677, Note_off_c, 2, 54, 0
6, 8678, Note_on_c, 2, 53, 88
6, 8699, Note_off_c, 2, 53, 0
6, 8700, Note_on_c, 2, 51, 88
6, 8729, Note_off_c, 2, 51, 0
6, 8730, Note_on_c, 2, 53, 88
6, 8759, Note_off_c, 2, 53, 0
6, 8760, Note_on_c, 2, 54, 88
6, 8818, Note_off_c, 2, 54, 0
6, 8820, Note_on_c, 2, 57, 88
6, 8878, Note_off_c, 2, 57, 0
6, 8880, Note_on_c, 2, 56, 88
6, 8938, Note_off_c, 2, 56, 0
6, 8940, Note_on_c, 2, 54, 88
6, 8998, Note_off_c, 2, 54, 0
6, 9000, Note_on_c, 2, 53, 88
6, 9058, Note_off_c, 2, 53, 0
6, 9060, Note_on_c, 2, 51, 88
6, 9118, Note_off_c, 2, 51, 0
6, 9120, Note_on_c, 2, 53, 88
6, 9178, Note_off_c, 2, 53, 0
6, 9180, Note_on_c, 2, 56, 88
6, 9238, Note_off_c, 2, 56, 0
6, 9240, Note_on_c, 2, 54, 88
6, 9298, Note_off_c, 2, 54, 0
6, 9300, Note_on_c, 2, 53, 88
6, 9358, Note_off_c, 2, 53, 0
6, 9360, Note_on_c, 2, 51, 88
6, 9418, Note_off_c, 2, 51, 0
6, 9420, Note_on_c, 2, 49, 88
6, 9478, Note_off_c, 2, 49, 0
6, 9480, Note_on_c, 2, 54, 88
6, 9596, Note_off_c, 2, 54, 0
6, 9600, Note_on_c, 2, 45, 88
6, 9716, Note_off_c, 2, 45, 0
6, 9720, Note_on_c, 2, 49, 88
6, 9836, Note_off_c, 2, 49, 0
6, 9840, Note_on_c, 2, 42, 88
6, 9956, Note_off_c, 2, 42, 0
6, 10260, Note_on_c, 2, 57, 88
6, 10318, Note_off_c, 2, 57, 0
6, 10320, Note_on_c, 2, 47, 88
6, 10378, Note_off_c, 2, 47, 0
6, 10380, Note_on_c, 2, 57, 88
6, 10438, Note_off_c, 2, 57, 0
6, 10440, Note_on_c, 2, 47, 88
6, 10498, Note_off_c, 2, 47, 0
6, 10500, Note_on_c, 2, 56, 88
6, 10558, Note_off_c, 2, 56, 0
6, 10560, Note_on_c, 2, 45, 88
6, 10618, Note_off_c, 2, 45, 0
6, 10620, Note_on_c, 2, 56, 88
6, 10678, Note_off_c, 2, 56, 0
6, 10680, Note_on_c, 2, 45, 88
6, 10738, Note_off_c, 2, 45, 0
6, 10740, Note_on_c, 2, 56, 88
6, 10798, Note_off_c, 2, 56, 0
6, 10800, Note_on_c, 2, 45, 88
6, 10858, Note_off_c, 2, 45, 0
6, 10860, Note_on_c, 2, 54, 88
6, 10918, Note_off_c, 2, 54, 0
6, 10920, Note_on_c, 2, 44, 88
6, 10978, Note_off_c, 2, 44, 0
6, 10980, Note_on_c, 2, 54, 88
6, 11038, Note_off_c, 2, 54, 0
6, 11040, Note_on_c, 2, 53, 88
6, 11098, Note_off_c, 2, 53, 0
6, 11100, Note_on_c, 2, 56, 88
6, 11158, Note_off_c, 2, 56, 0
6, 11160, Note_on_c, 2, 49, 88
6, 11218, Note_off_c, 2, 49, 0
6, 11220, Note_on_c, 2, 53, 88
6, 11278, Note_off_c, 2, 53, 0
6, 11280, Note_on_c, 2, 42, 88
6, 11338, Note_off_c, 2, 42, 0
6, 11340, Note_on_c, 2, 54, 88
6, 11398, Note_off_c, 2, 54, 0
6, 11400, Note_on_c, 2, 44, 88
6, 11458, Note_off_c, 2, 44, 0
6, 11460, Note_on_c, 2, 54, 88
6, 11518, Note_off_c, 2, 54, 0
6, 11520, Note_on_c, 2, 45, 88
6, 11578, Note_off_c, 2, 45, 0
6, 11580, Note_on_c, 2, 54, 88
6, 11638, Note_off_c, 2, 54, 0
6, 11640, Note_on_c, 2, 47, 88
6, 11698, Note_off_c, 2, 47, 0
6, 11700, Note_on_c, 2, 54, 88
6, 11758, Note_off_c, 2, 54, 0
6, 11760, Note_on_c, 2, 49, 88
6, 11818, Note_off_c, 2, 49, 0
6, 11820, Note_on_c, 2, 54, 88
6, 11878, Note_off_c, 2, 54, 0
6, 11880, Note_on_c, 2, 50, 88
6, 11938, Note_off_c, 2, 50, 0
6, 11940, Note_on_c, 2, 54, 88
6, 11998, Note_off_c, 2, 54, 0
6, 12000, Note_on_c, 2, 40, 88
6, 12058, Note_off_c, 2, 40, 0
6, 12060, Note_on_c, 2, 52, 88
6, 12118, Note_off_c, 2, 52, 0
6, 12120, Note_on_c, 2, 42, 88
6, 12178, Note_off_c, 2, 42, 0
6, 12180, Note_on_c, 2, 52, 88
6, 12238, Note_off_c, 2, 52, 0
6, 12240, Note_on_c, 2, 43, 88
6, 12298, Note_off_c, 2, 43, 0
6, 12300, Note_on_c, 2, 52, 88
6, 12358, Note_off_c, 2, 52, 0
6, 12360, Note_on_c, 2, 45, 88
6, 12418, Note_off_c, 2, 45, 0
6, 12420, Note_on_c, 2, 52, 88
6, 12478, Note_off_c, 2, 52, 0
6, 12480, Note_on_c, 2, 47, 88
6, 12538, Note_off_c, 2, 47, 0
6, 12540, Note_on_c, 2, 52, 88
6, 12598, Note_off_c, 2, 52, 0
6, 12600, Note_on_c, 2, 49, 88
6, 12658, Note_off_c, 2, 49, 0
6, 12660, Note_on_c, 2, 52, 88
6, 12718, Note_off_c, 2, 52, 0
6, 12720, Note_on_c, 2, 50, 88
6, 12778, Note_off_c, 2, 50, 0
6, 12780, Note_on_c, 2, 52, 88
6, 12838, Note_off_c, 2, 52, 0
6, 12840, Note_on_c, 2, 54, 88
6, 12898, Note_off_c, 2, 54, 0
6, 12900, Note_on_c, 2, 55, 88
6, 12958, Note_off_c, 2, 55, 0
6, 12960, Note_on_c, 2, 57, 88
6, 13018, Note_off_c, 2, 57, 0
6, 13020, Note_on_c, 2, 55, 88
6, 13078, Note_off_c, 2, 55, 0
6, 13080, Note_on_c, 2, 54, 88
6, 13138, Note_off_c, 2, 54, 0
6, 13140, Note_on_c, 2, 57, 88
6, 13198, Note_off_c, 2, 57, 0
6, 13200, Note_on_c, 2, 55, 88
6, 13258, Note_off_c, 2, 55, 0
6, 13260, Note_on_c, 2, 54, 88
6, 13318, Note_off_c, 2, 54, 0
6, 13320, Note_on_c, 2, 52, 88
6, 13378, Note_off_c, 2, 52, 0
6, 13380, Note_on_c, 2, 50, 88
6, 13438, Note_off_c, 2, 50, 0
6, 13440, Note_on_c, 2, 55, 88
6, 13556, Note_off_c, 2, 55, 0
6, 13680, Note_on_c, 2, 52, 88
6, 13796, Note_off_c, 2, 52, 0
6, 13800, Note_on_c, 2, 54, 88
6, 13916, Note_off_c, 2, 54, 0
6, 14040, Note_on_c, 2, 50, 88
6, 14156, Note_off_c, 2, 50, 0
6, 14160, Note_on_c, 2, 52, 88
6, 14276, Note_off_c, 2, 52, 0
6, 14280, Note_on_c, 2, 57, 88
6, 14514, Note_off_c, 2, 57, 0
6, 14520, Note_on_c, 2, 50, 88
6, 14636, Note_off_c, 2, 50, 0
6, 14760, Note_on_c, 2, 59, 88
6, 14876, Note_off_c, 2, 59, 0
6, 14880, Note_on_c, 2, 66, 88
6, 14996, Note_off_c, 2, 66, 0
6, 15120, Note_on_c, 2, 61, 88
6, 15236, Note_off_c, 2, 61, 0
6, 15240, Note_on_c, 2, 62, 88
6, 15356, Note_off_c, 2, 62, 0
6, 15480, Note_on_c, 2, 63, 88
6, 15596, Note_off_c, 2, 63, 0
6, 15600, Note_on_c, 2, 64, 88
6, 15716, Note_off_c, 2, 64, 0
6, 15840, Note_on_c, 2, 52, 88
6, 15956, Note_off_c, 2, 52, 0
6, 15960, Note_on_c, 2, 49, 88
6, 16076, Note_off_c, 2, 49, 0
6, 16080, Note_on_c, 2, 45, 88
6, 16196, Note_off_c, 2, 45, 0
6, 16200, Note_on_c, 2, 44, 88
6, 16316, Note_off_c, 2, 44, 0
6, 16320, Note_on_c, 2, 45, 88
6, 16436, Note_off_c, 2, 45, 0
6, 16440, Note_on_c, 2, 47, 88
6, 16498, Note_off_c, 2, 47, 0
6, 16500, Note_on_c, 2, 49, 88
6, 16558, Note_off_c, 2, 49, 0
6, 16560, Note_on_c, 2, 50, 88
6, 16618, Note_off_c, 2, 50, 0
6, 16620, Note_on_c, 2, 52, 88
6, 16678, Note_off_c, 2, 52, 0
6, 16680, Note_on_c, 2, 54, 88
6, 16796, Note_off_c, 2, 54, 0
6, 16800, Note_on_c, 2, 42, 88
6, 16916, Note_off_c, 2, 42, 0
6, 16920, Note_on_c, 2, 54, 88
6, 17036, Note_off_c, 2, 54, 0
6, 17040, Note_on_c, 2, 52, 88
6, 17156, Note_off_c, 2, 52, 0
6, 17160, Note_on_c, 2, 40, 88
6, 17276, Note_off_c, 2, 40, 0
6, 17280, Note_on_c, 2, 52, 88
6, 17396, Note_off_c, 2, 52, 0
6, 17400, Note_on_c, 2, 50, 88
6, 17516, Note_off_c, 2, 50, 0
6, 17520, Note_on_c, 2, 52, 88
6, 17578, Note_off_c, 2, 52, 0
6, 17580, Note_on_c, 2, 50, 88
6, 17638, Note_off_c, 2, 50, 0
6, 17640, Note_on_c, 2, 49, 88
6, 17698, Note_off_c, 2, 49, 0
6, 17700, Note_on_c, 2, 47, 88
6, 17758, Note_off_c, 2, 47, 0
6, 17760, Note_on_c, 2, 49, 88
6, 17818, Note_off_c, 2, 49, 0
6, 17820, Note_on_c, 2, 52, 88
6, 17878, Note_off_c, 2, 52, 0
6, 17880, Note_on_c, 2, 57, 88
6, 17938, Note_off_c, 2, 57, 0
6, 17940, Note_on_c, 2, 52, 88
6, 17998, Note_off_c, 2, 52, 0
6, 18000, Note_on_c, 2, 51, 88
6, 18058, Note_off_c, 2, 51, 0
6, 18060, Note_on_c, 2, 57, 88
6, 18118, Note_off_c, 2, 57, 0
6, 18120, Note_on_c, 2, 52, 88
6, 18178, Note_off_c, 2, 52, 0
6, 18180, Note_on_c, 2, 55, 88
6, 18238, Note_off_c, 2, 55, 0
6, 18240, Note_on_c, 2, 54, 88
6, 18298, Note_off_c, 2, 54, 0
6, 18300, Note_on_c, 2, 52, 88
6, 18358, Note_off_c, 2, 52, 0
6, 18360, Note_on_c, 2, 50, 88
6, 18418, Note_off_c, 2, 50, 0
6, 18420, Note_on_c, 2, 49, 88
6, 18478, Note_off_c, 2, 49, 0
6, 18480, Note_on_c, 2, 50, 88
6, 18538, Note_off_c, 2, 50, 0
6, 18540, Note_on_c, 2, 54, 88
6, 18598, Note_off_c, 2, 54, 0
6, 18600, Note_on_c, 2, 59, 88
6, 18658, Note_off_c, 2, 59, 0
6, 18660, Note_on_c, 2, 54, 88
6, 18718, Note_off_c, 2, 54, 0
6, 18720, Note_on_c, 2, 53, 88
6, 18778, Note_off_c, 2, 53, 0
6, 18780, Note_on_c, 2, 59, 88
6, 18838, Note_off_c, 2, 59, 0
6, 18840, Note_on_c, 2, 54, 88
6, 18898, Note_off_c, 2, 54, 0
6, 18900, Note_on_c, 2, 57, 88
6, 18958, Note_off_c, 2, 57, 0
6, 18960, Note_on_c, 2, 56, 88
6, 19018, Note_off_c, 2, 56, 0
6, 19020, Note_on_c, 2, 54, 88
6, 19078, Note_off_c, 2, 54, 0
6, 19080, Note_on_c, 2, 53, 88
6, 19138, Note_off_c, 2, 53, 0
6, 19140, Note_on_c, 2, 51, 88
6, 19198, Note_off_c, 2, 51, 0
6, 19200, Note_on_c, 2, 49, 88
6, 19258, Note_off_c, 2, 49, 0
6, 19260, Note_on_c, 2, 50, 88
6, 19318, Note_off_c, 2, 50, 0
6, 19320, Note_on_c, 2, 49, 88
6, 19378, Note_off_c, 2, 49, 0
6, 19380, Note_on_c, 2, 47, 88
6, 19438, Note_off_c, 2, 47, 0
6, 19440, Note_on_c, 2, 45, 88
6, 19498, Note_off_c, 2, 45, 0
6, 19500, Note_on_c, 2, 44, 88
6, 19558, Note_off_c, 2, 44, 0
6, 19560, Note_on_c, 2, 42, 88
6, 19618, Note_off_c, 2, 42, 0
6, 19620, Note_on_c, 2, 54, 88
6, 19678, Note_off_c, 2, 54, 0
6, 19680, Note_on_c, 2, 56, 88
6, 19738, Note_off_c, 2, 56, 0
6, 19740, Note_on_c, 2, 57, 88
6, 19798, Note_off_c, 2, 57, 0
6, 19800, Note_on_c, 2, 59, 88
6, 19858, Note_off_c, 2, 59, 0
6, 19860, Note_on_c, 2, 61, 88
6, 19918, Note_off_c, 2, 61, 0
6, 19920, Note_on_c, 2, 62, 88
6, 19978, Note_off_c, 2, 62, 0
6, 19980, Note_on_c, 2, 64, 88
6, 20038, Note_off_c, 2, 64, 0
6, 20040, Note_on_c, 2, 62, 88
6, 20098, Note_off_c, 2, 62, 0
6, 20100, Note_on_c, 2, 61, 88
6, 20158, Note_off_c, 2, 61, 0
6, 20160, Note_on_c, 2, 59, 88
6, 20218, Note_off_c, 2, 59, 0
6, 20220, Note_on_c, 2, 58, 88
6, 20278, Note_off_c, 2, 58, 0
6, 20280, Note_on_c, 2, 59, 88
6, 20396, Note_off_c, 2, 59, 0
6, 20520, Note_on_c, 2, 52, 88
6, 20636, Note_off_c, 2, 52, 0
6, 20640, Note_on_c, 2, 57, 88
6, 20756, Note_off_c, 2, 57, 0
6, 20880, Note_on_c, 2, 62, 88
6, 21116, Note_off_c, 2, 62, 0
6, 21120, Note_on_c, 2, 61, 88
6, 21418, Note_off_c, 2, 61, 0
6, 21420, Note_on_c, 2, 59, 88
6, 21478, Note_off_c, 2, 59, 0
6, 21480, Note_on_c, 2, 57, 88
6, 21538, Note_off_c, 2, 57, 0
6, 21540, Note_on_c, 2, 56, 88
6, 21598, Note_off_c, 2, 56, 0
6, 21600, Note_on_c, 2, 54, 88
6, 21658, Note_off_c, 2, 54, 0
6, 21660, Note_on_c, 2, 52, 88
6, 21718, Note_off_c, 2, 52, 0
6, 21720, Note_on_c, 2, 51, 88
6, 21836, Note_off_c, 2, 51, 0
6, 21840, Note_on_c, 2, 59, 88
6, 22138, Note_off_c, 2, 59, 0
6, 22140, Note_on_c, 2, 57, 88
6, 22198, Note_off_c, 2, 57, 0
6, 22200, Note_on_c, 2, 55, 88
6, 22258, Note_off_c, 2, 55, 0
6, 22260, Note_on_c, 2, 54, 88
6, 22318, Note_off_c, 2, 54, 0
6, 22320, Note_on_c, 2, 52, 88
6, 22378, Note_off_c, 2, 52, 0
6, 22380, Note_on_c, 2, 50, 88
6, 22438, Note_off_c, 2, 50, 0
6, 22440, Note_on_c, 2, 49, 88
6, 22556, Note_off_c, 2, 49, 0
6, 22560, Note_on_c, 2, 57, 88
6, 22858, Note_off_c, 2, 57, 0
6, 22860, Note_on_c, 2, 55, 88
6, 22918, Note_off_c, 2, 55, 0
6, 22920, Note_on_c, 2, 54, 88
6, 22978, Note_off_c, 2, 54, 0
6, 22980, Note_on_c, 2, 52, 88
6, 23038, Note_off_c, 2, 52, 0
6, 23040, Note_on_c, 2, 50, 88
6, 23098, Note_off_c, 2, 50, 0
6, 23100, Note_on_c, 2, 49, 88
6, 23158, Note_off_c, 2, 49, 0
6, 23160, Note_on_c, 2, 47, 88
6, 23276, Note_off_c, 2, 47, 0
6, 23280, Note_on_c, 2, 55, 88
6, 23636, Note_off_c, 2, 55, 0
6, 23640, Note_on_c, 2, 54, 88
6, 23938, Note_off_c, 2, 54, 0
6, 23940, Note_on_c, 2, 52, 88
6, 23998, Note_off_c, 2, 52, 0
6, 24000, Note_on_c, 2, 50, 88
6, 24058, Note_off_c, 2, 50, 0
6, 24060, Note_on_c, 2, 49, 88
6, 24118, Note_off_c, 2, 49, 0
6, 24120, Note_on_c, 2, 47, 88
6, 24178, Note_off_c, 2, 47, 0
6, 24180, Note_on_c, 2, 45, 88
6, 24238, Note_off_c, 2, 45, 0
6, 24240, Note_on_c, 2, 43, 88
6, 24356, Note_off_c, 2, 43, 0
6, 24360, Note_on_c, 2, 57, 88
6, 24382, Note_off_c, 2, 57, 0
6, 24383, Note_on_c, 2, 55, 88
6, 24408, Note_off_c, 2, 55, 0
6, 24409, Note_on_c, 2, 57, 88
6, 24434, Note_off_c, 2, 57, 0
6, 24435, Note_on_c, 2, 55, 88
6, 24457, Note_off_c, 2, 55, 0
6, 24458, Note_on_c, 2, 57, 88
6, 24479, Note_off_c, 2, 57, 0
6, 24480, Note_on_c, 2, 55, 88
6, 24596, Note_off_c, 2, 55, 0
6, 24600, Note_on_c, 2, 54, 88
6, 24834, Note_off_c, 2, 54, 0
6, 25020, Note_on_c, 2, 47, 88
6, 25078, Note_off_c, 2, 47, 0
6, 25080, Note_on_c, 2, 49, 88
6, 25138, Note_off_c, 2, 49, 0
6, 25140, Note_on_c, 2, 50, 88
6, 25198, Note_off_c, 2, 50, 0
6, 25200, Note_on_c, 2, 52, 88
6, 25258, Note_off_c, 2, 52, 0
6, 25260, Note_on_c, 2, 54, 88
6, 25318, Note_off_c, 2, 54, 0
6, 25320, Note_on_c, 2, 55, 88
6, 25436, Note_off_c, 2, 55, 0
6, 25440, Note_on_c, 2, 52, 88
6, 25556, Note_off_c, 2, 52, 0
6, 25560, Note_on_c, 2, 51, 88
6, 25676, Note_off_c, 2, 51, 0
6, 25680, Note_on_c, 2, 52, 88
6, 25796, Note_off_c, 2, 52, 0
6, 25800, Note_on_c, 2, 54, 88
6, 25858, Note_off_c, 2, 54, 0
6, 25860, Note_on_c, 2, 55, 88
6, 25918, Note_off_c, 2, 55, 0
6, 25920, Note_on_c, 2, 57, 88
6, 25978, Note_off_c, 2, 57, 0
6, 25980, Note_on_c, 2, 59, 88
6, 26038, Note_off_c, 2, 59, 0
6, 26040, Note_on_c, 2, 60, 88
6, 26156, Note_off_c, 2, 60, 0
6, 26160, Note_on_c, 2, 48, 88
6, 26276, Note_off_c, 2, 48, 0
6, 26280, Note_on_c, 2, 60, 88
6, 26396, Note_off_c, 2, 60, 0
6, 26400, Note_on_c, 2, 59, 88
6, 26516, Note_off_c, 2, 59, 0
6, 26520, Note_on_c, 2, 47, 88
6, 26636, Note_off_c, 2, 47, 0
6, 26640, Note_on_c, 2, 59, 88
6, 26756, Note_off_c, 2, 59, 0
6, 26760, Note_on_c, 2, 57, 88
6, 26876, Note_off_c, 2, 57, 0
6, 26880, Note_on_c, 2, 59, 88
6, 26938, Note_off_c, 2, 59, 0
6, 26940, Note_on_c, 2, 57, 88
6, 26998, Note_off_c, 2, 57, 0
6, 27000, Note_on_c, 2, 55, 88
6, 27058, Note_off_c, 2, 55, 0
6, 27060, Note_on_c, 2, 54, 88
6, 27118, Note_off_c, 2, 54, 0
6, 27120, Note_on_c, 2, 55, 88
6, 27236, Note_off_c, 2, 55, 0
6, 27240, Note_on_c, 2, 43, 88
6, 27356, Note_off_c, 2, 43, 0
6, 27360, Note_on_c, 2, 55, 88
6, 27596, Note_off_c, 2, 55, 0
6, 27600, Note_on_c, 2, 57, 88
6, 27658, Note_off_c, 2, 57, 0
6, 27660, Note_on_c, 2, 55, 88
6, 27718, Note_off_c, 2, 55, 0
6, 27720, Note_on_c, 2, 54, 88
6, 27778, Note_off_c, 2, 54, 0
6, 27780, Note_on_c, 2, 52, 88
6, 27838, Note_off_c, 2, 52, 0
6, 27840, Note_on_c, 2, 54, 88
6, 27956, Note_off_c, 2, 54, 0
6, 27960, Note_on_c, 2, 42, 88
6, 28076, Note_off_c, 2, 42, 0
6, 28080, Note_on_c, 2, 54, 88
6, 28316, Note_off_c, 2, 54, 0
6, 28320, Note_on_c, 2, 52, 88
6, 28436, Note_off_c, 2, 52, 0
6, 28440, Note_on_c, 2, 50, 88
6, 28556, Note_off_c, 2, 50, 0
6, 28560, Note_on_c, 2, 49, 88
6, 28618, Note_off_c, 2, 49, 0
6, 28620, Note_on_c, 2, 50, 88
6, 28678, Note_off_c, 2, 50, 0
6, 28680, Note_on_c, 2, 52, 88
6, 28738, Note_off_c, 2, 52, 0
6, 28740, Note_on_c, 2, 54, 88
6, 28798, Note_off_c, 2, 54, 0
6, 28800, Note_on_c, 2, 55, 88
6, 28858, Note_off_c, 2, 55, 0
6, 28860, Note_on_c, 2, 47, 88
6, 28918, Note_off_c, 2, 47, 0
6, 28920, Note_on_c, 2, 46, 88
6, 28978, Note_off_c, 2, 46, 0
6, 28980, Note_on_c, 2, 55, 88
6, 29038, Note_off_c, 2, 55, 0
6, 29040, Note_on_c, 2, 54, 88
6, 29098, Note_off_c, 2, 54, 0
6, 29100, Note_on_c, 2, 52, 88
6, 29158, Note_off_c, 2, 52, 0
6, 29160, Note_on_c, 2, 50, 88
6, 29218, Note_off_c, 2, 50, 0
6, 29220, Note_on_c, 2, 49, 88
6, 29278, Note_off_c, 2, 49, 0
6, 29280, Note_on_c, 2, 47, 88
6, 29338, Note_off_c, 2, 47, 0
6, 29340, Note_on_c, 2, 49, 88
6, 29398, Note_off_c, 2, 49, 0
6, 29400, Note_on_c, 2, 50, 88
6, 29458, Note_off_c, 2, 50, 0
6, 29460, Note_on_c, 2, 52, 88
6, 29518, Note_off_c, 2, 52, 0
6, 29520, Note_on_c, 2, 54, 88
6, 29578, Note_off_c, 2, 54, 0
6, 29580, Note_on_c, 2, 52, 88
6, 29638, Note_off_c, 2, 52, 0
6, 29640, Note_on_c, 2, 50, 88
6, 29698, Note_off_c, 2, 50, 0
6, 29700, Note_on_c, 2, 54, 88
6, 29758, Note_off_c, 2, 54, 0
6, 29760, Note_on_c, 2, 52, 88
6, 29818, Note_off_c, 2, 52, 0
6, 29820, Note_on_c, 2, 50, 88
6, 29878, Note_off_c, 2, 50, 0
6, 29880, Note_on_c, 2, 49, 88
6, 29938, Note_off_c, 2, 49, 0
6, 29940, Note_on_c, 2, 47, 88
6, 29998, Note_off_c, 2, 47, 0
6, 30000, Note_on_c, 2, 52, 88
6, 30116, Note_off_c, 2, 52, 0
6, 30240, Note_on_c, 2, 57, 88
6, 30356, Note_off_c, 2, 57, 0
6, 30360, Note_on_c, 2, 50, 88
6, 30476, Note_off_c, 2, 50, 0
6, 30600, Note_on_c, 2, 55, 88
6, 30716, Note_off_c, 2, 55, 0
6, 30720, Note_on_c, 2, 49, 88
6, 30778, Note_off_c, 2, 49, 0
6, 30780, Note_on_c, 2, 59, 88
6, 30838, Note_off_c, 2, 59, 0
6, 30840, Note_on_c, 2, 58, 88
6, 30898, Note_off_c, 2, 58, 0
6, 30900, Note_on_c, 2, 61, 88
6, 30958, Note_off_c, 2, 61, 0
6, 30960, Note_on_c, 2, 54, 88
6, 31018, Note_off_c, 2, 54, 0
6, 31020, Note_on_c, 2, 58, 88
6, 31078, Note_off_c, 2, 58, 0
6, 31080, Note_on_c, 2, 47, 88
6, 31138, Note_off_c, 2, 47, 0
6, 31140, Note_on_c, 2, 59, 88
6, 31198, Note_off_c, 2, 59, 0
6, 31200, Note_on_c, 2, 49, 88
6, 31258, Note_off_c, 2, 49, 0
6, 31260, Note_on_c, 2, 59, 88
6, 31318, Note_off_c, 2, 59, 0
6, 31320, Note_on_c, 2, 50, 88
6, 31378, Note_off_c, 2, 50, 0
6, 31380, Note_on_c, 2, 59, 88
6, 31438, Note_off_c, 2, 59, 0
6, 31440, Note_on_c, 2, 52, 88
6, 31498, Note_off_c, 2, 52, 0
6, 31500, Note_on_c, 2, 59, 88
6, 31558, Note_off_c, 2, 59, 0
6, 31560, Note_on_c, 2, 54, 88
6, 31618, Note_off_c, 2, 54, 0
6, 31620, Note_on_c, 2, 59, 88
6, 31678, Note_off_c, 2, 59, 0
6, 31680, Note_on_c, 2, 55, 88
6, 31738, Note_off_c, 2, 55, 0
6, 31740, Note_on_c, 2, 59, 88
6, 31798, Note_off_c, 2, 59, 0
6, 31800, Note_on_c, 2, 45, 88
6, 31858, Note_off_c, 2, 45, 0
6, 31860, Note_on_c, 2, 57, 88
6, 31918, Note_off_c, 2, 57, 0
6, 31920, Note_on_c, 2, 47, 88
6, 31978, Note_off_c, 2, 47, 0
6, 31980, Note_on_c, 2, 57, 88
6, 32038, Note_off_c, 2, 57, 0
6, 32040, Note_on_c, 2, 49, 88
6, 32098, Note_off_c, 2, 49, 0
6, 32100, Note_on_c, 2, 57, 88
6, 32158, Note_off_c, 2, 57, 0
6, 32160, Note_on_c, 2, 50, 88
6, 32218, Note_off_c, 2, 50, 0
6, 32220, Note_on_c, 2, 57, 88
6, 32278, Note_off_c, 2, 57, 0
6, 32280, Note_on_c, 2, 52, 88
6, 32338, Note_off_c, 2, 52, 0
6, 32340, Note_on_c, 2, 57, 88
6, 32398, Note_off_c, 2, 57, 0
6, 32400, Note_on_c, 2, 54, 88
6, 32458, Note_off_c, 2, 54, 0
6, 32460, Note_on_c, 2, 57, 88
6, 32518, Note_off_c, 2, 57, 0
6, 32520, Note_on_c, 2, 55, 88
6, 32578, Note_off_c, 2, 55, 0
6, 32580, Note_on_c, 2, 59, 88
6, 32638, Note_off_c, 2, 59, 0
6, 32640, Note_on_c, 2, 57, 88
6, 32698, Note_off_c, 2, 57, 0
6, 32700, Note_on_c, 2, 55, 88
6, 32758, Note_off_c, 2, 55, 0
6, 32760, Note_on_c, 2, 54, 88
6, 32818, Note_off_c, 2, 54, 0
6, 32820, Note_on_c, 2, 52, 88
6, 32878, Note_off_c, 2, 52, 0
6, 32880, Note_on_c, 2, 54, 88
6, 32938, Note_off_c, 2, 54, 0
6, 32940, Note_on_c, 2, 57, 88
6, 32998, Note_off_c, 2, 57, 0
6, 33000, Note_on_c, 2, 62, 88
6, 33058, Note_off_c, 2, 62, 0
6, 33060, Note_on_c, 2, 57, 88
6, 33118, Note_off_c, 2, 57, 0
6, 33120, Note_on_c, 2, 56, 88
6, 33178, Note_off_c, 2, 56, 0
6, 33180, Note_on_c, 2, 62, 88
6, 33238, Note_off_c, 2, 62, 0
6, 33240, Note_on_c, 2, 57, 88
6, 33298, Note_off_c, 2, 57, 0
6, 33300, Note_on_c, 2, 60, 88
6, 33358, Note_off_c, 2, 60, 0
6, 33360, Note_on_c, 2, 59, 88
6, 33418, Note_off_c, 2, 59, 0
6, 33420, Note_on_c, 2, 57, 88
6, 33478, Note_off_c, 2, 57, 0
6, 33480, Note_on_c, 2, 55, 88
6, 33538, Note_off_c, 2, 55, 0
6, 33540, Note_on_c, 2, 54, 88
6, 33598, Note_off_c, 2, 54, 0
6, 33600, Note_on_c, 2, 55, 88
6, 33658, Note_off_c, 2, 55, 0
6, 33660, Note_on_c, 2, 59, 88
6, 33718, Note_off_c, 2, 59, 0
6, 33720, Note_on_c, 2, 64, 88
6, 33778, Note_off_c, 2, 64, 0
6, 33780, Note_on_c, 2, 59, 88
6, 33838, Note_off_c, 2, 59, 0
6, 33840, Note_on_c, 2, 58, 88
6, 33898, Note_off_c, 2, 58, 0
6, 33900, Note_on_c, 2, 64, 88
6, 33958, Note_off_c, 2, 64, 0
6, 33960, Note_on_c, 2, 59, 88
6, 34018, Note_off_c, 2, 59, 0
6, 34020, Note_on_c, 2, 62, 88
6, 34078, Note_off_c, 2, 62, 0
6, 34080, Note_on_c, 2, 61, 88
6, 34138, Note_off_c, 2, 61, 0
6, 34140, Note_on_c, 2, 59, 88
6, 34198, Note_off_c, 2, 59, 0
6, 34200, Note_on_c, 2, 58, 88
6, 34258, Note_off_c, 2, 58, 0
6, 34260, Note_on_c, 2, 56, 88
6, 34318, Note_off_c, 2, 56, 0
6, 34320, Note_on_c, 2, 54, 88
6, 34378, Note_off_c, 2, 54, 0
6, 34380, Note_on_c, 2, 55, 88
6, 34438, Note_off_c, 2, 55, 0
6, 34440, Note_on_c, 2, 54, 88
6, 34498, Note_off_c, 2, 54, 0
6, 34500, Note_on_c, 2, 52, 88
6, 34558, Note_off_c, 2, 52, 0
6, 34560, Note_on_c, 2, 50, 88
6, 34618, Note_off_c, 2, 50, 0
6, 34620, Note_on_c, 2, 49, 88
6, 34678, Note_off_c, 2, 49, 0
6, 34680, Note_on_c, 2, 47, 88
6, 34738, Note_off_c, 2, 47, 0
6, 34740, Note_on_c, 2, 49, 88
6, 34798, Note_off_c, 2, 49, 0
6, 34800, Note_on_c, 2, 50, 88
6, 34858, Note_off_c, 2, 50, 0
6, 34860, Note_on_c, 2, 52, 88
6, 34918, Note_off_c, 2, 52, 0
6, 34920, Note_on_c, 2, 54, 88
6, 34978, Note_off_c, 2, 54, 0
6, 34980, Note_on_c, 2, 52, 88
6, 35038, Note_off_c, 2, 52, 0
6, 35040, Note_on_c, 2, 50, 88
6, 35156, Note_off_c, 2, 50, 0
6, 35160, Note_on_c, 2, 47, 88
6, 35276, Note_off_c, 2, 47, 0
6, 35280, Note_on_c, 2, 46, 88
6, 35396, Note_off_c, 2, 46, 0
6, 35400, Note_on_c, 2, 47, 88
6, 35516, Note_off_c, 2, 47, 0
6, 35520, Note_on_c, 2, 38, 88
6, 35636, Note_off_c, 2, 38, 0
6, 35640, Note_on_c, 2, 42, 88
6, 35756, Note_off_c, 2, 42, 0
6, 35760, Note_on_c, 2, 35, 88
6, 36350, Note_off_c, 2, 35, 0
6, 36350, End_track
0, 0, End_of_file
