0, 0, Header, 1, 7, 240
1, 0, Start_track
1, 0, Time_signature, 4, 2, 24, 8
1, 0, Tempo, 1034482
1, 0, SMPTE_offset, 64, 0, 0, 0, 93
1, 0, End_track
2, 0, Start_track
2, 0, Title_t, "(C) & (P) 1993"
2, 127, End_track
3, 0, Start_track
3, 0, Title_t, "CCARH,Stanford"
3, 0, End_track
4, 0, Start_track
4, 0, Title_t, "Track 1"
4, 0, Program_c, 0, 6
4, 1560, Note_on_c, 0, 67, 88
4, 1676, Note_off_c, 0, 67, 0
4, 1680, Note_on_c, 0, 69, 88
4, 1796, Note_off_c, 0, 69, 0
4, 1800, Note_on_c, 0, 71, 88
4, 1916, Note_off_c, 0, 71, 0
4, 1920, Note_on_c, 0, 72, 88
4, 2095, Note_off_c, 0, 72, 0
4, 2100, Note_on_c, 0, 74, 88
4, 2129, Note_off_c, 0, 74, 0
4, 2130, Note_on_c, 0, 72, 88
4, 2159, Note_off_c, 0, 72, 0
4, 2160, Note_on_c, 0, 71, 88
4, 2276, Note_off_c, 0, 71, 0
4, 2280, Note_on_c, 0, 76, 88
4, 2396, Note_off_c, 0, 76, 0
4, 2400, Note_on_c, 0, 69, 88
4, 2516, Note_off_c, 0, 69, 0
4, 2520, Note_on_c, 0, 74, 88
4, 2695, Note_off_c, 0, 74, 0
4, 2700, Note_on_c, 0, 76, 88
4, 2758, Note_off_c, 0, 76, 0
4, 2760, Note_on_c, 0, 74, 88
4, 2818, Note_off_c, 0, 74, 0
4, 2820, Note_on_c, 0, 72, 88
4, 2878, Note_off_c, 0, 72, 0
4, 2880, Note_on_c, 0, 71, 88
4, 2938, Note_off_c, 0, 71, 0
4, 2940, Note_on_c, 0, 67, 88
4, 2998, Note_off_c, 0, 67, 0
4, 3000, Note_on_c, 0, 69, 88
4, 3058, Note_off_c, 0, 69, 0
4, 3060, Note_on_c, 0, 71, 88
4, 3118, Note_off_c, 0, 71, 0
4, 3120, Note_on_c, 0, 72, 88
4, 3178, Note_off_c, 0, 72, 0
4, 3180, Note_on_c, 0, 71, 88
4, 3238, Note_off_c, 0, 71, 0
4, 3240, Note_on_c, 0, 72, 88
4, 3298, Note_off_c, 0, 72, 0
4, 3300, Note_on_c, 0, 74, 88
4, 3358, Note_off_c, 0, 74, 0
4, 3360, Note_on_c, 0, 76, 88
4, 3418, Note_off_c, 0, 76, 0
4, 3420, Note_on_c, 0, 74, 88
4, 3478, Note_off_c, 0, 74, 0
4, 3480, Note_on_c, 0, 76, 88
4, 3538, Note_off_c, 0, 76, 0
4, 3540, Note_on_c, 0, 78, 88
4, 3598, Note_off_c, 0, 78, 0
4, 3600, Note_on_c, 0, 79, 88
4, 3716, Note_off_c, 0, 79, 0
4, 3720, Note_on_c, 0, 71, 88
4, 3836, Note_off_c, 0, 71, 0
4, 3840, Note_on_c, 0, 72, 88
4, 3956, Note_off_c, 0, 72, 0
4, 3960, Note_on_c, 0, 69, 88
4, 4076, Note_off_c, 0, 69, 0
4, 4080, Note_on_c, 0, 74, 88
4, 4138, Note_off_c, 0, 74, 0
4, 4140, Note_on_c, 0, 72, 88
4, 4198, Note_off_c, 0, 72, 0
4, 4200, Note_on_c, 0, 71, 88
4, 4258, Note_off_c, 0, 71, 0
4, 4260, Note_on_c, 0, 69, 88
4, 4318, Note_off_c, 0, 69, 0
4, 4320, Note_on_c, 0, 67, 88
4, 4486, Note_off_c, 0, 67, 0
4, 4500, Note_on_c, 0, 67, 88
4, 4558, Note_off_c, 0, 67, 0
4, 4560, Note_on_c, 0, 65, 88
4, 4618, Note_off_c, 0, 65, 0
4, 4620, Note_on_c, 0, 64, 88
4, 4678, Note_off_c, 0, 64, 0
4, 4680, Note_on_c, 0, 65, 88
4, 4738, Note_off_c, 0, 65, 0
4, 4740, Note_on_c, 0, 67, 88
4, 4798, Note_off_c, 0, 67, 0
4, 4800, Note_on_c, 0, 69, 88
4, 4858, Note_off_c, 0, 69, 0
4, 4860, Note_on_c, 0, 67, 88
4, 4918, Note_off_c, 0, 67, 0
4, 4920, Note_on_c, 0, 69, 88
4, 4978, Note_off_c, 0, 69, 0
4, 4980, Note_on_c, 0, 71, 88
4, 5038, Note_off_c, 0, 71, 0
4, 5040, Note_on_c, 0, 72, 88
4, 5510, Note_off_c, 0, 72, 0
4, 5520, Note_on_c, 0, 71, 88
4, 5754, Note_off_c, 0, 71, 0
4, 5880, Note_on_c, 0, 72, 88
4, 5996, Note_off_c, 0, 72, 0
4, 6000, Note_on_c, 0, 74, 88
4, 6116, Note_off_c, 0, 74, 0
4, 6120, Note_on_c, 0, 76, 88
4, 6236, Note_off_c, 0, 76, 0
4, 6240, Note_on_c, 0, 77, 88
4, 6415, Note_off_c, 0, 77, 0
4, 6420, Note_on_c, 0, 79, 88
4, 6449, Note_off_c, 0, 79, 0
4, 6450, Note_on_c, 0, 77, 88
4, 6479, Note_off_c, 0, 77, 0
4, 6480, Note_on_c, 0, 76, 88
4, 6596, Note_off_c, 0, 76, 0
4, 6600, Note_on_c, 0, 81, 88
4, 6716, Note_off_c, 0, 81, 0
4, 6720, Note_on_c, 0, 74, 88
4, 6836, Note_off_c, 0, 74, 0
4, 6840, Note_on_c, 0, 79, 88
4, 7015, Note_off_c, 0, 79, 0
4, 7020, Note_on_c, 0, 81, 88
4, 7078, Note_off_c, 0, 81, 0
4, 7080, Note_on_c, 0, 79, 88
4, 7138, Note_off_c, 0, 79, 0
4, 7140, Note_on_c, 0, 77, 88
4, 7198, Note_off_c, 0, 77, 0
4, 7200, Note_on_c, 0, 76, 88
4, 7316, Note_off_c, 0, 76, 0
4, 7320, Note_on_c, 0, 81, 88
4, 7495, Note_off_c, 0, 81, 0
4, 7500, Note_on_c, 0, 83, 88
4, 7558, Note_off_c, 0, 83, 0
4, 7560, Note_on_c, 0, 81, 88
4, 7618, Note_off_c, 0, 81, 0
4, 7620, Note_on_c, 0, 79, 88
4, 7678, Note_off_c, 0, 79, 0
4, 7680, Note_on_c, 0, 77, 88
4, 8150, Note_off_c, 0, 77, 0
4, 8160, Note_on_c, 0, 76, 88
4, 8335, Note_off_c, 0, 76, 0
4, 8340, Note_on_c, 0, 78, 88
4, 8398, Note_off_c, 0, 78, 0
4, 8400, Note_on_c, 0, 79, 88
4, 8874, Note_off_c, 0, 79, 0
4, 8880, Note_on_c, 0, 78, 88
4, 9114, Note_off_c, 0, 78, 0
4, 9120, Note_on_c, 0, 79, 88
4, 9178, Note_off_c, 0, 79, 0
4, 9180, Note_on_c, 0, 77, 88
4, 9238, Note_off_c, 0, 77, 0
4, 9240, Note_on_c, 0, 76, 88
4, 9298, Note_off_c, 0, 76, 0
4, 9300, Note_on_c, 0, 74, 88
4, 9358, Note_off_c, 0, 74, 0
4, 9360, Note_on_c, 0, 72, 88
4, 9418, Note_off_c, 0, 72, 0
4, 9420, Note_on_c, 0, 74, 88
4, 9478, Note_off_c, 0, 74, 0
4, 9480, Note_on_c, 0, 72, 88
4, 9538, Note_off_c, 0, 72, 0
4, 9540, Note_on_c, 0, 71, 88
4, 9598, Note_off_c, 0, 71, 0
4, 9600, Note_on_c, 0, 69, 88
4, 9658, Note_off_c, 0, 69, 0
4, 9660, Note_on_c, 0, 72, 88
4, 9718, Note_off_c, 0, 72, 0
4, 9720, Note_on_c, 0, 71, 88
4, 9778, Note_off_c, 0, 71, 0
4, 9780, Note_on_c, 0, 69, 88
4, 9838, Note_off_c, 0, 69, 0
4, 9840, Note_on_c, 0, 67, 88
4, 9956, Note_off_c, 0, 67, 0
4, 10140, Note_on_c, 0, 72, 88
4, 10198, Note_off_c, 0, 72, 0
4, 10200, Note_on_c, 0, 71, 88
4, 10258, Note_off_c, 0, 71, 0
4, 10260, Note_on_c, 0, 69, 88
4, 10318, Note_off_c, 0, 69, 0
4, 10320, Note_on_c, 0, 68, 88
4, 10436, Note_off_c, 0, 68, 0
4, 10440, Note_on_c, 0, 76, 88
4, 10556, Note_off_c, 0, 76, 0
4, 10560, Note_on_c, 0, 74, 88
4, 10676, Note_off_c, 0, 74, 0
4, 10680, Note_on_c, 0, 72, 88
4, 10738, Note_off_c, 0, 72, 0
4, 10740, Note_on_c, 0, 71, 88
4, 10798, Note_off_c, 0, 71, 0
4, 10800, Note_on_c, 0, 69, 88
4, 10858, Note_off_c, 0, 69, 0
4, 10860, Note_on_c, 0, 68, 88
4, 10918, Note_off_c, 0, 68, 0
4, 10920, Note_on_c, 0, 69, 88
4, 10978, Note_off_c, 0, 69, 0
4, 10980, Note_on_c, 0, 71, 88
4, 11038, Note_off_c, 0, 71, 0
4, 11040, Note_on_c, 0, 72, 88
4, 11098, Note_off_c, 0, 72, 0
4, 11100, Note_on_c, 0, 66, 88
4, 11158, Note_off_c, 0, 66, 0
4, 11160, Note_on_c, 0, 69, 88
4, 11218, Note_off_c, 0, 69, 0
4, 11220, Note_on_c, 0, 68, 88
4, 11278, Note_off_c, 0, 68, 0
4, 11280, Note_on_c, 0, 71, 88
4, 11396, Note_off_c, 0, 71, 0
4, 11400, Note_on_c, 0, 69, 88
4, 11458, Note_off_c, 0, 69, 0
4, 11460, Note_on_c, 0, 71, 88
4, 11518, Note_off_c, 0, 71, 0
4, 11520, Note_on_c, 0, 72, 88
4, 11636, Note_off_c, 0, 72, 0
4, 11640, Note_on_c, 0, 77, 88
4, 11756, Note_off_c, 0, 77, 0
4, 11760, Note_on_c, 0, 76, 88
4, 11876, Note_off_c, 0, 76, 0
4, 11880, Note_on_c, 0, 74, 88
4, 12114, Note_off_c, 0, 74, 0
4, 12120, Note_on_c, 0, 72, 88
4, 12178, Note_off_c, 0, 72, 0
4, 12180, Note_on_c, 0, 71, 88
4, 12226, Note_off_c, 0, 71, 0
4, 12240, Note_on_c, 0, 71, 88
4, 12415, Note_off_c, 0, 71, 0
4, 12420, Note_on_c, 0, 69, 88
4, 12478, Note_off_c, 0, 69, 0
4, 12480, Note_on_c, 0, 69, 88
4, 12714, Note_off_c, 0, 69, 0
4, 14040, Note_on_c, 0, 67, 88
4, 14156, Note_off_c, 0, 67, 0
4, 14160, Note_on_c, 0, 69, 88
4, 14276, Note_off_c, 0, 69, 0
4, 14280, Note_on_c, 0, 71, 88
4, 14396, Note_off_c, 0, 71, 0
4, 14400, Note_on_c, 0, 72, 88
4, 14575, Note_off_c, 0, 72, 0
4, 14580, Note_on_c, 0, 74, 88
4, 14609, Note_off_c, 0, 74, 0
4, 14610, Note_on_c, 0, 72, 88
4, 14639, Note_off_c, 0, 72, 0
4, 14640, Note_on_c, 0, 71, 88
4, 14756, Note_off_c, 0, 71, 0
4, 14760, Note_on_c, 0, 72, 88
4, 14876, Note_off_c, 0, 72, 0
4, 14880, Note_on_c, 0, 74, 88
4, 14996, Note_off_c, 0, 74, 0
4, 15000, Note_on_c, 0, 76, 88
4, 15116, Note_off_c, 0, 76, 0
4, 15120, Note_on_c, 0, 77, 88
4, 15295, Note_off_c, 0, 77, 0
4, 15300, Note_on_c, 0, 79, 88
4, 15329, Note_off_c, 0, 79, 0
4, 15330, Note_on_c, 0, 77, 88
4, 15359, Note_off_c, 0, 77, 0
4, 15360, Note_on_c, 0, 76, 88
4, 15476, Note_off_c, 0, 76, 0
4, 15480, Note_on_c, 0, 81, 88
4, 15596, Note_off_c, 0, 81, 0
4, 15600, Note_on_c, 0, 74, 88
4, 15716, Note_off_c, 0, 74, 0
4, 15720, Note_on_c, 0, 79, 88
4, 15895, Note_off_c, 0, 79, 0
4, 15900, Note_on_c, 0, 81, 88
4, 15958, Note_off_c, 0, 81, 0
4, 15960, Note_on_c, 0, 79, 88
4, 16018, Note_off_c, 0, 79, 0
4, 16020, Note_on_c, 0, 77, 88
4, 16078, Note_off_c, 0, 77, 0
4, 16080, Note_on_c, 0, 76, 88
4, 16196, Note_off_c, 0, 76, 0
4, 16200, Note_on_c, 0, 81, 88
4, 16316, Note_off_c, 0, 81, 0
4, 16320, Note_on_c, 0, 74, 88
4, 16436, Note_off_c, 0, 74, 0
4, 16440, Note_on_c, 0, 82, 88
4, 16556, Note_off_c, 0, 82, 0
4, 16560, Note_on_c, 0, 81, 88
4, 16676, Note_off_c, 0, 81, 0
4, 16680, Note_on_c, 0, 79, 88
4, 16738, Note_off_c, 0, 79, 0
4, 16740, Note_on_c, 0, 77, 88
4, 16798, Note_off_c, 0, 77, 0
4, 16800, Note_on_c, 0, 79, 88
4, 16858, Note_off_c, 0, 79, 0
4, 16860, Note_on_c, 0, 77, 88
4, 16918, Note_off_c, 0, 77, 0
4, 16920, Note_on_c, 0, 79, 88
4, 16978, Note_off_c, 0, 79, 0
4, 16980, Note_on_c, 0, 76, 88
4, 17038, Note_off_c, 0, 76, 0
4, 17040, Note_on_c, 0, 77, 88
4, 17098, Note_off_c, 0, 77, 0
4, 17100, Note_on_c, 0, 79, 88
4, 17158, Note_off_c, 0, 79, 0
4, 17160, Note_on_c, 0, 81, 88
4, 17175, Note_on_c, 0, 79, 88
4, 17175, Note_off_c, 0, 81, 0
4, 17190, Note_off_c, 0, 79, 0
4, 17190, Note_on_c, 0, 81, 88
4, 17205, Note_on_c, 0, 79, 88
4, 17205, Note_off_c, 0, 81, 0
4, 17220, Note_on_c, 0, 77, 88
4, 17220, Note_off_c, 0, 79, 0
4, 17249, Note_off_c, 0, 77, 0
4, 17250, Note_on_c, 0, 79, 88
4, 17279, Note_off_c, 0, 79, 0
4, 17280, Note_on_c, 0, 81, 88
4, 17338, Note_off_c, 0, 81, 0
4, 17340, Note_on_c, 0, 73, 88
4, 17398, Note_off_c, 0, 73, 0
4, 17400, Note_on_c, 0, 74, 88
4, 17458, Note_off_c, 0, 74, 0
4, 17460, Note_on_c, 0, 79, 88
4, 17518, Note_off_c, 0, 79, 0
4, 17520, Note_on_c, 0, 76, 88
4, 17695, Note_off_c, 0, 76, 0
4, 17700, Note_on_c, 0, 74, 88
4, 17746, Note_off_c, 0, 74, 0
4, 17760, Note_on_c, 0, 74, 88
4, 17876, Note_off_c, 0, 74, 0
4, 19080, Note_on_c, 0, 67, 88
4, 19196, Note_off_c, 0, 67, 0
4, 19200, Note_on_c, 0, 69, 88
4, 19316, Note_off_c, 0, 69, 0
4, 19320, Note_on_c, 0, 71, 88
4, 19436, Note_off_c, 0, 71, 0
4, 19440, Note_on_c, 0, 72, 88
4, 19615, Note_off_c, 0, 72, 0
4, 19620, Note_on_c, 0, 74, 88
4, 19649, Note_off_c, 0, 74, 0
4, 19650, Note_on_c, 0, 72, 88
4, 19679, Note_off_c, 0, 72, 0
4, 19680, Note_on_c, 0, 71, 88
4, 19796, Note_off_c, 0, 71, 0
4, 19800, Note_on_c, 0, 76, 88
4, 19916, Note_off_c, 0, 76, 0
4, 19920, Note_on_c, 0, 69, 88
4, 20036, Note_off_c, 0, 69, 0
4, 20040, Note_on_c, 0, 74, 88
4, 20218, Note_off_c, 0, 74, 0
4, 20220, Note_on_c, 0, 76, 88
4, 20278, Note_off_c, 0, 76, 0
4, 20280, Note_on_c, 0, 74, 88
4, 20338, Note_off_c, 0, 74, 0
4, 20340, Note_on_c, 0, 72, 88
4, 20398, Note_off_c, 0, 72, 0
4, 20400, Note_on_c, 0, 71, 88
4, 20458, Note_off_c, 0, 71, 0
4, 20460, Note_on_c, 0, 72, 88
4, 20518, Note_off_c, 0, 72, 0
4, 20520, Note_on_c, 0, 74, 88
4, 20578, Note_off_c, 0, 74, 0
4, 20580, Note_on_c, 0, 76, 88
4, 20638, Note_off_c, 0, 76, 0
4, 20640, Note_on_c, 0, 77, 88
4, 20698, Note_off_c, 0, 77, 0
4, 20700, Note_on_c, 0, 79, 88
4, 20758, Note_off_c, 0, 79, 0
4, 20760, Note_on_c, 0, 81, 88
4, 20818, Note_off_c, 0, 81, 0
4, 20820, Note_on_c, 0, 79, 88
4, 20878, Note_off_c, 0, 79, 0
4, 20880, Note_on_c, 0, 77, 88
4, 20938, Note_off_c, 0, 77, 0
4, 20940, Note_on_c, 0, 76, 88
4, 20998, Note_off_c, 0, 76, 0
4, 21000, Note_on_c, 0, 74, 88
4, 21058, Note_off_c, 0, 74, 0
4, 21060, Note_on_c, 0, 72, 88
4, 21118, Note_off_c, 0, 72, 0
4, 21120, Note_on_c, 0, 71, 88
4, 21354, Note_off_c, 0, 71, 0
4, 21360, Note_on_c, 0, 72, 88
4, 21476, Note_off_c, 0, 72, 0
4, 21480, Note_on_c, 0, 74, 88
4, 21596, Note_off_c, 0, 74, 0
4, 21600, Note_on_c, 0, 67, 88
4, 21716, Note_off_c, 0, 67, 0
4, 21720, Note_on_c, 0, 72, 88
4, 21954, Note_off_c, 0, 72, 0
4, 21960, Note_on_c, 0, 71, 88
4, 22076, Note_off_c, 0, 71, 0
4, 22080, Note_on_c, 0, 72, 88
4, 22314, Note_off_c, 0, 72, 0
4, 22320, Note_on_c, 0, 71, 88
4, 22436, Note_off_c, 0, 71, 0
4, 22440, Note_on_c, 0, 70, 88
4, 22556, Note_off_c, 0, 70, 0
4, 22560, Note_on_c, 0, 69, 88
4, 22676, Note_off_c, 0, 69, 0
4, 22680, Note_on_c, 0, 74, 88
4, 22914, Note_off_c, 0, 74, 0
4, 22920, Note_on_c, 0, 72, 88
4, 23036, Note_off_c, 0, 72, 0
4, 23040, Note_on_c, 0, 74, 88
4, 23156, Note_off_c, 0, 74, 0
4, 23160, Note_on_c, 0, 76, 88
4, 23276, Note_off_c, 0, 76, 0
4, 23280, Note_on_c, 0, 77, 88
4, 23574, Note_off_c, 0, 77, 0
4, 23580, Note_on_c, 0, 81, 88
4, 23638, Note_off_c, 0, 81, 0
4, 23640, Note_on_c, 0, 79, 88
4, 23698, Note_off_c, 0, 79, 0
4, 23700, Note_on_c, 0, 77, 88
4, 23758, Note_off_c, 0, 77, 0
4, 23760, Note_on_c, 0, 76, 88
4, 23818, Note_off_c, 0, 76, 0
4, 23820, Note_on_c, 0, 77, 88
4, 23878, Note_off_c, 0, 77, 0
4, 23880, Note_on_c, 0, 76, 88
4, 23938, Note_off_c, 0, 76, 0
4, 23940, Note_on_c, 0, 74, 88
4, 23998, Note_off_c, 0, 74, 0
4, 24000, Note_on_c, 0, 72, 88
4, 24470, Note_off_c, 0, 72, 0
4, 24540, Note_on_c, 0, 67, 88
4, 24569, Note_off_c, 0, 67, 0
4, 24570, Note_on_c, 0, 69, 88
4, 24599, Note_off_c, 0, 69, 0
4, 24600, Note_on_c, 0, 71, 88
4, 24658, Note_off_c, 0, 71, 0
4, 24660, Note_on_c, 0, 72, 88
4, 24718, Note_off_c, 0, 72, 0
4, 24720, Note_on_c, 0, 74, 88
4, 24778, Note_off_c, 0, 74, 0
4, 24780, Note_on_c, 0, 76, 88
4, 24838, Note_off_c, 0, 76, 0
4, 24840, Note_on_c, 0, 77, 88
4, 24989, Note_off_c, 0, 77, 0
4, 24990, Note_on_c, 0, 72, 88
4, 25019, Note_off_c, 0, 72, 0
4, 25020, Note_on_c, 0, 74, 88
4, 25049, Note_off_c, 0, 74, 0
4, 25050, Note_on_c, 0, 76, 88
4, 25079, Note_off_c, 0, 76, 0
4, 25080, Note_on_c, 0, 77, 88
4, 25138, Note_off_c, 0, 77, 0
4, 25140, Note_on_c, 0, 79, 88
4, 25198, Note_off_c, 0, 79, 0
4, 25200, Note_on_c, 0, 81, 88
4, 25375, Note_off_c, 0, 81, 0
4, 25380, Note_on_c, 0, 83, 88
4, 25438, Note_off_c, 0, 83, 0
4, 25440, Note_on_c, 0, 84, 88
4, 25910, Note_off_c, 0, 84, 0
4, 25910, End_track
5, 0, Start_track
5, 0, Title_t, "Track 2"
5, 0, Program_c, 1, 6
5, 120, Note_on_c, 1, 60, 88
5, 236, Note_off_c, 1, 60, 0
5, 240, Note_on_c, 1, 62, 88
5, 356, Note_off_c, 1, 62, 0
5, 360, Note_on_c, 1, 64, 88
5, 476, Note_off_c, 1, 64, 0
5, 480, Note_on_c, 1, 65, 88
5, 655, Note_off_c, 1, 65, 0
5, 660, Note_on_c, 1, 67, 88
5, 689, Note_off_c, 1, 67, 0
5, 690, Note_on_c, 1, 65, 88
5, 719, Note_off_c, 1, 65, 0
5, 720, Note_on_c, 1, 64, 88
5, 836, Note_off_c, 1, 64, 0
5, 840, Note_on_c, 1, 69, 88
5, 956, Note_off_c, 1, 69, 0
5, 960, Note_on_c, 1, 62, 88
5, 1076, Note_off_c, 1, 62, 0
5, 1080, Note_on_c, 1, 67, 88
5, 1255, Note_off_c, 1, 67, 0
5, 1260, Note_on_c, 1, 69, 88
5, 1318, Note_off_c, 1, 69, 0
5, 1320, Note_on_c, 1, 67, 88
5, 1378, Note_off_c, 1, 67, 0
5, 1380, Note_on_c, 1, 65, 88
5, 1438, Note_off_c, 1, 65, 0
5, 1440, Note_on_c, 1, 64, 88
5, 1498, Note_off_c, 1, 64, 0
5, 1500, Note_on_c, 1, 65, 88
5, 1558, Note_off_c, 1, 65, 0
5, 1560, Note_on_c, 1, 64, 88
5, 1618, Note_off_c, 1, 64, 0
5, 1620, Note_on_c, 1, 62, 88
5, 1678, Note_off_c, 1, 62, 0
5, 1680, Note_on_c, 1, 60, 88
5, 1738, Note_off_c, 1, 60, 0
5, 1740, Note_on_c, 1, 62, 88
5, 1798, Note_off_c, 1, 62, 0
5, 1800, Note_on_c, 1, 60, 88
5, 1858, Note_off_c, 1, 60, 0
5, 1860, Note_on_c, 1, 59, 88
5, 1918, Note_off_c, 1, 59, 0
5, 1920, Note_on_c, 1, 57, 88
5, 2036, Note_off_c, 1, 57, 0
5, 2040, Note_on_c, 1, 66, 88
5, 2156, Note_off_c, 1, 66, 0
5, 2160, Note_on_c, 1, 67, 88
5, 2513, Note_off_c, 1, 67, 0
5, 2520, Note_on_c, 1, 66, 88
5, 2578, Note_off_c, 1, 66, 0
5, 2580, Note_on_c, 1, 64, 88
5, 2638, Note_off_c, 1, 64, 0
5, 2640, Note_on_c, 1, 66, 88
5, 2756, Note_off_c, 1, 66, 0
5, 2760, Note_on_c, 1, 62, 88
5, 2876, Note_off_c, 1, 62, 0
5, 2880, Note_on_c, 1, 67, 88
5, 2996, Note_off_c, 1, 67, 0
5, 3000, Note_on_c, 1, 65, 88
5, 3116, Note_off_c, 1, 65, 0
5, 3120, Note_on_c, 1, 64, 88
5, 3236, Note_off_c, 1, 64, 0
5, 3240, Note_on_c, 1, 62, 88
5, 3356, Note_off_c, 1, 62, 0
5, 3360, Note_on_c, 1, 60, 88
5, 3476, Note_off_c, 1, 60, 0
5, 3720, Note_on_c, 1, 67, 88
5, 3956, Note_off_c, 1, 67, 0
5, 3960, Note_on_c, 1, 65, 88
5, 4018, Note_off_c, 1, 65, 0
5, 4020, Note_on_c, 1, 64, 88
5, 4078, Note_off_c, 1, 64, 0
5, 4080, Note_on_c, 1, 65, 88
5, 4366, Note_off_c, 1, 65, 0
5, 4380, Note_on_c, 1, 65, 88
5, 4438, Note_off_c, 1, 65, 0
5, 4440, Note_on_c, 1, 64, 88
5, 4556, Note_off_c, 1, 64, 0
5, 4560, Note_on_c, 1, 62, 88
5, 4794, Note_off_c, 1, 62, 0
5, 4800, Note_on_c, 1, 60, 88
5, 4916, Note_off_c, 1, 60, 0
5, 4920, Note_on_c, 1, 65, 88
5, 5036, Note_off_c, 1, 65, 0
5, 5100, Note_on_c, 1, 67, 88
5, 5158, Note_off_c, 1, 67, 0
5, 5160, Note_on_c, 1, 65, 88
5, 5218, Note_off_c, 1, 65, 0
5, 5220, Note_on_c, 1, 64, 88
5, 5278, Note_off_c, 1, 64, 0
5, 5280, Note_on_c, 1, 65, 88
5, 5396, Note_off_c, 1, 65, 0
5, 5400, Note_on_c, 1, 62, 88
5, 5516, Note_off_c, 1, 62, 0
5, 5520, Note_on_c, 1, 67, 88
5, 5994, Note_off_c, 1, 67, 0
5, 7800, Note_on_c, 1, 67, 88
5, 7916, Note_off_c, 1, 67, 0
5, 7920, Note_on_c, 1, 69, 88
5, 8036, Note_off_c, 1, 69, 0
5, 8040, Note_on_c, 1, 71, 88
5, 8156, Note_off_c, 1, 71, 0
5, 8160, Note_on_c, 1, 72, 88
5, 8335, Note_off_c, 1, 72, 0
5, 8340, Note_on_c, 1, 74, 88
5, 8369, Note_off_c, 1, 74, 0
5, 8370, Note_on_c, 1, 72, 88
5, 8399, Note_off_c, 1, 72, 0
5, 8400, Note_on_c, 1, 71, 88
5, 8516, Note_off_c, 1, 71, 0
5, 8520, Note_on_c, 1, 76, 88
5, 8636, Note_off_c, 1, 76, 0
5, 8640, Note_on_c, 1, 69, 88
5, 8756, Note_off_c, 1, 69, 0
5, 8760, Note_on_c, 1, 74, 88
5, 8935, Note_off_c, 1, 74, 0
5, 8940, Note_on_c, 1, 76, 88
5, 8998, Note_off_c, 1, 76, 0
5, 9000, Note_on_c, 1, 74, 88
5, 9058, Note_off_c, 1, 74, 0
5, 9060, Note_on_c, 1, 72, 88
5, 9118, Note_off_c, 1, 72, 0
5, 9120, Note_on_c, 1, 71, 88
5, 9236, Note_off_c, 1, 71, 0
5, 9480, Note_on_c, 1, 62, 88
5, 9596, Note_off_c, 1, 62, 0
5, 9600, Note_on_c, 1, 64, 88
5, 9716, Note_off_c, 1, 64, 0
5, 9720, Note_on_c, 1, 66, 88
5, 9836, Note_off_c, 1, 66, 0
5, 9840, Note_on_c, 1, 67, 88
5, 10015, Note_off_c, 1, 67, 0
5, 10020, Note_on_c, 1, 69, 88
5, 10049, Note_off_c, 1, 69, 0
5, 10050, Note_on_c, 1, 67, 88
5, 10079, Note_off_c, 1, 67, 0
5, 10080, Note_on_c, 1, 66, 88
5, 10196, Note_off_c, 1, 66, 0
5, 10200, Note_on_c, 1, 71, 88
5, 10316, Note_off_c, 1, 71, 0
5, 10320, Note_on_c, 1, 64, 88
5, 10436, Note_off_c, 1, 64, 0
5, 10440, Note_on_c, 1, 69, 88
5, 10618, Note_off_c, 1, 69, 0
5, 10620, Note_on_c, 1, 71, 88
5, 10678, Note_off_c, 1, 71, 0
5, 10680, Note_on_c, 1, 69, 88
5, 10738, Note_off_c, 1, 69, 0
5, 10740, Note_on_c, 1, 68, 88
5, 10798, Note_off_c, 1, 68, 0
5, 10800, Note_on_c, 1, 66, 88
5, 10916, Note_off_c, 1, 66, 0
5, 10920, Note_on_c, 1, 65, 88
5, 11036, Note_off_c, 1, 65, 0
5, 11040, Note_on_c, 1, 64, 88
5, 11156, Note_off_c, 1, 64, 0
5, 11160, Note_on_c, 1, 62, 88
5, 11335, Note_off_c, 1, 62, 0
5, 11340, Note_on_c, 1, 64, 88
5, 11398, Note_off_c, 1, 64, 0
5, 11400, Note_on_c, 1, 66, 88
5, 11458, Note_off_c, 1, 66, 0
5, 11460, Note_on_c, 1, 68, 88
5, 11518, Note_off_c, 1, 68, 0
5, 11520, Note_on_c, 1, 69, 88
5, 11578, Note_off_c, 1, 69, 0
5, 11580, Note_on_c, 1, 68, 88
5, 11638, Note_off_c, 1, 68, 0
5, 11640, Note_on_c, 1, 69, 88
5, 11698, Note_off_c, 1, 69, 0
5, 11700, Note_on_c, 1, 71, 88
5, 11758, Note_off_c, 1, 71, 0
5, 11760, Note_on_c, 1, 68, 88
5, 11818, Note_off_c, 1, 68, 0
5, 11820, Note_on_c, 1, 66, 88
5, 11878, Note_off_c, 1, 66, 0
5, 11880, Note_on_c, 1, 68, 88
5, 11938, Note_off_c, 1, 68, 0
5, 11940, Note_on_c, 1, 69, 88
5, 11998, Note_off_c, 1, 69, 0
5, 12000, Note_on_c, 1, 71, 88
5, 12116, Note_off_c, 1, 71, 0
5, 12600, Note_on_c, 1, 60, 88
5, 12716, Note_off_c, 1, 60, 0
5, 12720, Note_on_c, 1, 62, 88
5, 12836, Note_off_c, 1, 62, 0
5, 12840, Note_on_c, 1, 64, 88
5, 12956, Note_off_c, 1, 64, 0
5, 12960, Note_on_c, 1, 65, 88
5, 13135, Note_off_c, 1, 65, 0
5, 13140, Note_on_c, 1, 67, 88
5, 13169, Note_off_c, 1, 67, 0
5, 13170, Note_on_c, 1, 65, 88
5, 13199, Note_off_c, 1, 65, 0
5, 13200, Note_on_c, 1, 64, 88
5, 13316, Note_off_c, 1, 64, 0
5, 13320, Note_on_c, 1, 69, 88
5, 13436, Note_off_c, 1, 69, 0
5, 13440, Note_on_c, 1, 62, 88
5, 13556, Note_off_c, 1, 62, 0
5, 13560, Note_on_c, 1, 67, 88
5, 13735, Note_off_c, 1, 67, 0
5, 13740, Note_on_c, 1, 69, 88
5, 13798, Note_off_c, 1, 69, 0
5, 13800, Note_on_c, 1, 67, 88
5, 13858, Note_off_c, 1, 67, 0
5, 13860, Note_on_c, 1, 65, 88
5, 13918, Note_off_c, 1, 65, 0
5, 13920, Note_on_c, 1, 64, 88
5, 14026, Note_off_c, 1, 64, 0
5, 14040, Note_on_c, 1, 64, 88
5, 14156, Note_off_c, 1, 64, 0
5, 14160, Note_on_c, 1, 66, 88
5, 14276, Note_off_c, 1, 66, 0
5, 14280, Note_on_c, 1, 67, 88
5, 14516, Note_off_c, 1, 67, 0
5, 14520, Note_on_c, 1, 66, 88
5, 14636, Note_off_c, 1, 66, 0
5, 14640, Note_on_c, 1, 68, 88
5, 14756, Note_off_c, 1, 68, 0
5, 14760, Note_on_c, 1, 69, 88
5, 14994, Note_off_c, 1, 69, 0
5, 15000, Note_on_c, 1, 67, 88
5, 15116, Note_off_c, 1, 67, 0
5, 15120, Note_on_c, 1, 69, 88
5, 15236, Note_off_c, 1, 69, 0
5, 15240, Note_on_c, 1, 71, 88
5, 15356, Note_off_c, 1, 71, 0
5, 15360, Note_on_c, 1, 72, 88
5, 15535, Note_off_c, 1, 72, 0
5, 15540, Note_on_c, 1, 74, 88
5, 15569, Note_off_c, 1, 74, 0
5, 15570, Note_on_c, 1, 72, 88
5, 15599, Note_off_c, 1, 72, 0
5, 15600, Note_on_c, 1, 71, 88
5, 15716, Note_off_c, 1, 71, 0
5, 15720, Note_on_c, 1, 76, 88
5, 15836, Note_off_c, 1, 76, 0
5, 15840, Note_on_c, 1, 69, 88
5, 15956, Note_off_c, 1, 69, 0
5, 15960, Note_on_c, 1, 74, 88
5, 16135, Note_off_c, 1, 74, 0
5, 16140, Note_on_c, 1, 76, 88
5, 16198, Note_off_c, 1, 76, 0
5, 16200, Note_on_c, 1, 74, 88
5, 16258, Note_off_c, 1, 74, 0
5, 16260, Note_on_c, 1, 72, 88
5, 16318, Note_off_c, 1, 72, 0
5, 16320, Note_on_c, 1, 71, 88
5, 16436, Note_off_c, 1, 71, 0
5, 16440, Note_on_c, 1, 79, 88
5, 16556, Note_off_c, 1, 79, 0
5, 16560, Note_on_c, 1, 73, 88
5, 16676, Note_off_c, 1, 73, 0
5, 16680, Note_on_c, 1, 74, 88
5, 16796, Note_off_c, 1, 74, 0
5, 16800, Note_on_c, 1, 76, 88
5, 16916, Note_off_c, 1, 76, 0
5, 16920, Note_on_c, 1, 73, 88
5, 17036, Note_off_c, 1, 73, 0
5, 17040, Note_on_c, 1, 74, 88
5, 17156, Note_off_c, 1, 74, 0
5, 17160, Note_on_c, 1, 76, 88
5, 17276, Note_off_c, 1, 76, 0
5, 17280, Note_on_c, 1, 69, 88
5, 17396, Note_off_c, 1, 69, 0
5, 17640, Note_on_c, 1, 64, 88
5, 17756, Note_off_c, 1, 64, 0
5, 17760, Note_on_c, 1, 66, 88
5, 17876, Note_off_c, 1, 66, 0
5, 17880, Note_on_c, 1, 67, 88
5, 17996, Note_off_c, 1, 67, 0
5, 18000, Note_on_c, 1, 69, 88
5, 18175, Note_off_c, 1, 69, 0
5, 18180, Note_on_c, 1, 71, 88
5, 18209, Note_off_c, 1, 71, 0
5, 18210, Note_on_c, 1, 69, 88
5, 18239, Note_off_c, 1, 69, 0
5, 18240, Note_on_c, 1, 67, 88
5, 18356, Note_off_c, 1, 67, 0
5, 18360, Note_on_c, 1, 72, 88
5, 18476, Note_off_c, 1, 72, 0
5, 18480, Note_on_c, 1, 66, 88
5, 18596, Note_off_c, 1, 66, 0
5, 18600, Note_on_c, 1, 71, 88
5, 18775, Note_off_c, 1, 71, 0
5, 18780, Note_on_c, 1, 72, 88
5, 18838, Note_off_c, 1, 72, 0
5, 18840, Note_on_c, 1, 71, 88
5, 18898, Note_off_c, 1, 71, 0
5, 18900, Note_on_c, 1, 69, 88
5, 18958, Note_off_c, 1, 69, 0
5, 18960, Note_on_c, 1, 67, 88
5, 19018, Note_off_c, 1, 67, 0
5, 19020, Note_on_c, 1, 66, 88
5, 19078, Note_off_c, 1, 66, 0
5, 19080, Note_on_c, 1, 64, 88
5, 19138, Note_off_c, 1, 64, 0
5, 19140, Note_on_c, 1, 62, 88
5, 19198, Note_off_c, 1, 62, 0
5, 19200, Note_on_c, 1, 64, 88
5, 19434, Note_off_c, 1, 64, 0
5, 19440, Note_on_c, 1, 62, 88
5, 19734, Note_off_c, 1, 62, 0
5, 19740, Note_on_c, 1, 69, 88
5, 19798, Note_off_c, 1, 69, 0
5, 19800, Note_on_c, 1, 67, 88
5, 19858, Note_off_c, 1, 67, 0
5, 19860, Note_on_c, 1, 65, 88
5, 19918, Note_off_c, 1, 65, 0
5, 19920, Note_on_c, 1, 64, 88
5, 19978, Note_off_c, 1, 64, 0
5, 19980, Note_on_c, 1, 67, 88
5, 20038, Note_off_c, 1, 67, 0
5, 20040, Note_on_c, 1, 65, 88
5, 20098, Note_off_c, 1, 65, 0
5, 20100, Note_on_c, 1, 69, 88
5, 20158, Note_off_c, 1, 69, 0
5, 20160, Note_on_c, 1, 67, 88
5, 20454, Note_off_c, 1, 67, 0
5, 20460, Note_on_c, 1, 69, 88
5, 20518, Note_off_c, 1, 69, 0
5, 20520, Note_on_c, 1, 70, 88
5, 20636, Note_off_c, 1, 70, 0
5, 20640, Note_on_c, 1, 72, 88
5, 20874, Note_off_c, 1, 72, 0
5, 20880, Note_on_c, 1, 74, 88
5, 20996, Note_off_c, 1, 74, 0
5, 21000, Note_on_c, 1, 67, 88
5, 21116, Note_off_c, 1, 67, 0
5, 21120, Note_on_c, 1, 67, 88
5, 21473, Note_off_c, 1, 67, 0
5, 21480, Note_on_c, 1, 65, 88
5, 21714, Note_off_c, 1, 65, 0
5, 21720, Note_on_c, 1, 64, 88
5, 21836, Note_off_c, 1, 64, 0
5, 21840, Note_on_c, 1, 62, 88
5, 22074, Note_off_c, 1, 62, 0
5, 22080, Note_on_c, 1, 64, 88
5, 22196, Note_off_c, 1, 64, 0
5, 22200, Note_on_c, 1, 69, 88
5, 22434, Note_off_c, 1, 69, 0
5, 22440, Note_on_c, 1, 67, 88
5, 22674, Note_off_c, 1, 67, 0
5, 22680, Note_on_c, 1, 65, 88
5, 22796, Note_off_c, 1, 65, 0
5, 22800, Note_on_c, 1, 67, 88
5, 22916, Note_off_c, 1, 67, 0
5, 22920, Note_on_c, 1, 69, 88
5, 23036, Note_off_c, 1, 69, 0
5, 23040, Note_on_c, 1, 70, 88
5, 23215, Note_off_c, 1, 70, 0
5, 23220, Note_on_c, 1, 72, 88
5, 23249, Note_off_c, 1, 72, 0
5, 23250, Note_on_c, 1, 70, 88
5, 23279, Note_off_c, 1, 70, 0
5, 23280, Note_on_c, 1, 69, 88
5, 23396, Note_off_c, 1, 69, 0
5, 23400, Note_on_c, 1, 74, 88
5, 23516, Note_off_c, 1, 74, 0
5, 23520, Note_on_c, 1, 67, 88
5, 23636, Note_off_c, 1, 67, 0
5, 23640, Note_on_c, 1, 72, 88
5, 23815, Note_off_c, 1, 72, 0
5, 23820, Note_on_c, 1, 74, 88
5, 23878, Note_off_c, 1, 74, 0
5, 23880, Note_on_c, 1, 72, 88
5, 23938, Note_off_c, 1, 72, 0
5, 23940, Note_on_c, 1, 70, 88
5, 23998, Note_off_c, 1, 70, 0
5, 24000, Note_on_c, 1, 69, 88
5, 24058, Note_off_c, 1, 69, 0
5, 24060, Note_on_c, 1, 70, 88
5, 24118, Note_off_c, 1, 70, 0
5, 24120, Note_on_c, 1, 69, 88
5, 24178, Note_off_c, 1, 69, 0
5, 24180, Note_on_c, 1, 67, 88
5, 24238, Note_off_c, 1, 67, 0
5, 24240, Note_on_c, 1, 65, 88
5, 24298, Note_off_c, 1, 65, 0
5, 24300, Note_on_c, 1, 67, 88
5, 24358, Note_off_c, 1, 67, 0
5, 24360, Note_on_c, 1, 65, 88
5, 24418, Note_off_c, 1, 65, 0
5, 24420, Note_on_c, 1, 64, 88
5, 24478, Note_off_c, 1, 64, 0
5, 24480, Note_on_c, 1, 62, 88
5, 24892, Note_off_c, 1, 62, 0
5, 24900, Note_on_c, 1, 67, 88
5, 24958, Note_off_c, 1, 67, 0
5, 24960, Note_on_c, 1, 69, 88
5, 25194, Note_off_c, 1, 69, 0
5, 25260, Note_on_c, 1, 77, 88
5, 25318, Note_off_c, 1, 77, 0
5, 25320, Note_on_c, 1, 74, 88
5, 25436, Note_off_c, 1, 74, 0
5, 25440, Note_on_c, 1, 76, 88
5, 25440, Note_on_c, 1, 79, 88
5, 25910, Note_off_c, 1, 76, 0
5, 25910, Note_off_c, 1, 79, 0
5, 25910, End_track
6, 0, Start_track
6, 0, Title_t, "Track 3"
6, 0, Program_c, 2, 6
6, 3000, Note_on_c, 2, 55, 88
6, 3116, Note_off_c, 2, 55, 0
6, 3120, Note_on_c, 2, 57, 88
6, 3236, Note_off_c, 2, 57, 0
6, 3240, Note_on_c, 2, 59, 88
6, 3356, Note_off_c, 2, 59, 0
6, 3360, Note_on_c, 2, 60, 88
6, 3535, Note_off_c, 2, 60, 0
6, 3540, Note_on_c, 2, 62, 88
6, 3569, Note_off_c, 2, 62, 0
6, 3570, Note_on_c, 2, 60, 88
6, 3599, Note_off_c, 2, 60, 0
6, 3600, Note_on_c, 2, 59, 88
6, 3716, Note_off_c, 2, 59, 0
6, 3720, Note_on_c, 2, 64, 88
6, 3836, Note_off_c, 2, 64, 0
6, 3840, Note_on_c, 2, 57, 88
6, 3956, Note_off_c, 2, 57, 0
6, 3960, Note_on_c, 2, 62, 88
6, 4135, Note_off_c, 2, 62, 0
6, 4140, Note_on_c, 2, 64, 88
6, 4198, Note_off_c, 2, 64, 0
6, 4200, Note_on_c, 2, 62, 88
6, 4258, Note_off_c, 2, 62, 0
6, 4260, Note_on_c, 2, 60, 88
6, 4318, Note_off_c, 2, 60, 0
6, 4320, Note_on_c, 2, 59, 88
6, 4436, Note_off_c, 2, 59, 0
6, 4440, Note_on_c, 2, 60, 88
6, 4674, Note_off_c, 2, 60, 0
6, 4680, Note_on_c, 2, 58, 88
6, 4796, Note_off_c, 2, 58, 0
6, 4800, Note_on_c, 2, 57, 88
6, 4916, Note_off_c, 2, 57, 0
6, 4920, Note_on_c, 2, 62, 88
6, 5036, Note_off_c, 2, 62, 0
6, 5040, Note_on_c, 2, 55, 88
6, 5156, Note_off_c, 2, 55, 0
6, 5160, Note_on_c, 2, 60, 88
6, 5276, Note_off_c, 2, 60, 0
6, 5340, Note_on_c, 2, 57, 88
6, 5398, Note_off_c, 2, 57, 0
6, 5400, Note_on_c, 2, 59, 88
6, 5458, Note_off_c, 2, 59, 0
6, 5460, Note_on_c, 2, 60, 88
6, 5518, Note_off_c, 2, 60, 0
6, 5520, Note_on_c, 2, 62, 88
6, 5754, Note_off_c, 2, 62, 0
6, 5760, Note_on_c, 2, 55, 88
6, 5994, Note_off_c, 2, 55, 0
6, 6120, Note_on_c, 2, 55, 88
6, 6236, Note_off_c, 2, 55, 0
6, 6240, Note_on_c, 2, 57, 88
6, 6356, Note_off_c, 2, 57, 0
6, 6360, Note_on_c, 2, 59, 88
6, 6476, Note_off_c, 2, 59, 0
6, 6480, Note_on_c, 2, 60, 88
6, 6655, Note_off_c, 2, 60, 0
6, 6660, Note_on_c, 2, 62, 88
6, 6689, Note_off_c, 2, 62, 0
6, 6690, Note_on_c, 2, 60, 88
6, 6719, Note_off_c, 2, 60, 0
6, 6720, Note_on_c, 2, 59, 88
6, 6836, Note_off_c, 2, 59, 0
6, 6840, Note_on_c, 2, 64, 88
6, 6956, Note_off_c, 2, 64, 0
6, 6960, Note_on_c, 2, 57, 88
6, 7076, Note_off_c, 2, 57, 0
6, 7080, Note_on_c, 2, 62, 88
6, 7255, Note_off_c, 2, 62, 0
6, 7260, Note_on_c, 2, 64, 88
6, 7318, Note_off_c, 2, 64, 0
6, 7320, Note_on_c, 2, 62, 88
6, 7378, Note_off_c, 2, 62, 0
6, 7380, Note_on_c, 2, 60, 88
6, 7438, Note_off_c, 2, 60, 0
6, 7440, Note_on_c, 2, 59, 88
6, 7556, Note_off_c, 2, 59, 0
6, 7560, Note_on_c, 2, 64, 88
6, 7914, Note_off_c, 2, 64, 0
6, 7920, Note_on_c, 2, 62, 88
6, 8154, Note_off_c, 2, 62, 0
6, 8160, Note_on_c, 2, 60, 88
6, 8218, Note_off_c, 2, 60, 0
6, 8220, Note_on_c, 2, 59, 88
6, 8278, Note_off_c, 2, 59, 0
6, 8280, Note_on_c, 2, 60, 88
6, 8338, Note_off_c, 2, 60, 0
6, 8340, Note_on_c, 2, 57, 88
6, 8398, Note_off_c, 2, 57, 0
6, 8400, Note_on_c, 2, 64, 88
6, 8458, Note_off_c, 2, 64, 0
6, 8460, Note_on_c, 2, 62, 88
6, 8518, Note_off_c, 2, 62, 0
6, 8520, Note_on_c, 2, 60, 88
6, 8578, Note_off_c, 2, 60, 0
6, 8580, Note_on_c, 2, 59, 88
6, 8638, Note_off_c, 2, 59, 0
6, 8640, Note_on_c, 2, 60, 88
6, 8698, Note_off_c, 2, 60, 0
6, 8700, Note_on_c, 2, 57, 88
6, 8758, Note_off_c, 2, 57, 0
6, 8760, Note_on_c, 2, 59, 88
6, 8818, Note_off_c, 2, 59, 0
6, 8820, Note_on_c, 2, 60, 88
6, 8878, Note_off_c, 2, 60, 0
6, 8880, Note_on_c, 2, 62, 88
6, 8938, Note_off_c, 2, 62, 0
6, 8940, Note_on_c, 2, 60, 88
6, 8998, Note_off_c, 2, 60, 0
6, 9000, Note_on_c, 2, 59, 88
6, 9058, Note_off_c, 2, 59, 0
6, 9060, Note_on_c, 2, 57, 88
6, 9118, Note_off_c, 2, 57, 0
6, 9120, Note_on_c, 2, 55, 88
6, 9354, Note_off_c, 2, 55, 0
6, 10680, Note_on_c, 2, 52, 88
6, 10796, Note_off_c, 2, 52, 0
6, 10800, Note_on_c, 2, 54, 88
6, 10916, Note_off_c, 2, 54, 0
6, 10920, Note_on_c, 2, 56, 88
6, 11036, Note_off_c, 2, 56, 0
6, 11040, Note_on_c, 2, 57, 88
6, 11215, Note_off_c, 2, 57, 0
6, 11220, Note_on_c, 2, 59, 88
6, 11249, Note_off_c, 2, 59, 0
6, 11250, Note_on_c, 2, 57, 88
6, 11279, Note_off_c, 2, 57, 0
6, 11280, Note_on_c, 2, 56, 88
6, 11396, Note_off_c, 2, 56, 0
6, 11400, Note_on_c, 2, 60, 88
6, 11516, Note_off_c, 2, 60, 0
6, 11520, Note_on_c, 2, 54, 88
6, 11636, Note_off_c, 2, 54, 0
6, 11640, Note_on_c, 2, 59, 88
6, 11815, Note_off_c, 2, 59, 0
6, 11820, Note_on_c, 2, 60, 88
6, 11878, Note_off_c, 2, 60, 0
6, 11880, Note_on_c, 2, 59, 88
6, 11938, Note_off_c, 2, 59, 0
6, 11940, Note_on_c, 2, 57, 88
6, 11998, Note_off_c, 2, 57, 0
6, 12000, Note_on_c, 2, 56, 88
6, 12116, Note_off_c, 2, 56, 0
6, 12120, Note_on_c, 2, 57, 88
6, 12354, Note_off_c, 2, 57, 0
6, 12360, Note_on_c, 2, 56, 88
6, 12476, Note_off_c, 2, 56, 0
6, 12480, Note_on_c, 2, 57, 88
6, 12714, Note_off_c, 2, 57, 0
6, 12840, Note_on_c, 2, 55, 88
6, 12956, Note_off_c, 2, 55, 0
6, 12960, Note_on_c, 2, 57, 88
6, 13076, Note_off_c, 2, 57, 0
6, 13080, Note_on_c, 2, 59, 88
6, 13196, Note_off_c, 2, 59, 0
6, 13200, Note_on_c, 2, 60, 88
6, 13375, Note_off_c, 2, 60, 0
6, 13380, Note_on_c, 2, 62, 88
6, 13409, Note_off_c, 2, 62, 0
6, 13410, Note_on_c, 2, 60, 88
6, 13439, Note_off_c, 2, 60, 0
6, 13440, Note_on_c, 2, 59, 88
6, 13556, Note_off_c, 2, 59, 0
6, 13560, Note_on_c, 2, 64, 88
6, 13676, Note_off_c, 2, 64, 0
6, 13680, Note_on_c, 2, 57, 88
6, 13796, Note_off_c, 2, 57, 0
6, 13800, Note_on_c, 2, 62, 88
6, 14034, Note_off_c, 2, 62, 0
6, 14040, Note_on_c, 2, 55, 88
6, 14156, Note_off_c, 2, 55, 0
6, 14160, Note_on_c, 2, 62, 88
6, 14394, Note_off_c, 2, 62, 0
6, 14400, Note_on_c, 2, 60, 88
6, 14516, Note_off_c, 2, 60, 0
6, 14520, Note_on_c, 2, 57, 88
6, 14636, Note_off_c, 2, 57, 0
6, 14640, Note_on_c, 2, 64, 88
6, 14874, Note_off_c, 2, 64, 0
6, 14880, Note_on_c, 2, 62, 88
6, 14996, Note_off_c, 2, 62, 0
6, 15480, Note_on_c, 2, 57, 88
6, 15596, Note_off_c, 2, 57, 0
6, 15600, Note_on_c, 2, 59, 88
6, 15716, Note_off_c, 2, 59, 0
6, 15720, Note_on_c, 2, 61, 88
6, 15836, Note_off_c, 2, 61, 0
6, 15840, Note_on_c, 2, 62, 88
6, 16015, Note_off_c, 2, 62, 0
6, 16020, Note_on_c, 2, 64, 88
6, 16049, Note_off_c, 2, 64, 0
6, 16050, Note_on_c, 2, 62, 88
6, 16079, Note_off_c, 2, 62, 0
6, 16080, Note_on_c, 2, 60, 88
6, 16196, Note_off_c, 2, 60, 0
6, 16200, Note_on_c, 2, 65, 88
6, 16316, Note_off_c, 2, 65, 0
6, 16320, Note_on_c, 2, 59, 88
6, 16436, Note_off_c, 2, 59, 0
6, 16440, Note_on_c, 2, 64, 88
6, 16615, Note_off_c, 2, 64, 0
6, 16620, Note_on_c, 2, 65, 88
6, 16678, Note_off_c, 2, 65, 0
6, 16680, Note_on_c, 2, 64, 88
6, 16738, Note_off_c, 2, 64, 0
6, 16740, Note_on_c, 2, 62, 88
6, 16798, Note_off_c, 2, 62, 0
6, 16800, Note_on_c, 2, 61, 88
6, 16916, Note_off_c, 2, 61, 0
6, 17400, Note_on_c, 2, 57, 88
6, 17516, Note_off_c, 2, 57, 0
6, 17520, Note_on_c, 2, 59, 88
6, 17636, Note_off_c, 2, 59, 0
6, 17640, Note_on_c, 2, 61, 88
6, 17756, Note_off_c, 2, 61, 0
6, 17760, Note_on_c, 2, 62, 88
6, 17935, Note_off_c, 2, 62, 0
6, 17940, Note_on_c, 2, 64, 88
6, 17969, Note_off_c, 2, 64, 0
6, 17970, Note_on_c, 2, 62, 88
6, 17999, Note_off_c, 2, 62, 0
6, 18000, Note_on_c, 2, 60, 88
6, 18116, Note_off_c, 2, 60, 0
6, 18120, Note_on_c, 2, 66, 88
6, 18236, Note_off_c, 2, 66, 0
6, 18240, Note_on_c, 2, 59, 88
6, 18356, Note_off_c, 2, 59, 0
6, 18360, Note_on_c, 2, 64, 88
6, 18535, Note_off_c, 2, 64, 0
6, 18540, Note_on_c, 2, 66, 88
6, 18598, Note_off_c, 2, 66, 0
6, 18600, Note_on_c, 2, 64, 88
6, 18658, Note_off_c, 2, 64, 0
6, 18660, Note_on_c, 2, 62, 88
6, 18718, Note_off_c, 2, 62, 0
6, 18720, Note_on_c, 2, 60, 88
6, 19258, Note_off_c, 2, 60, 0
6, 19260, Note_on_c, 2, 62, 88
6, 19318, Note_off_c, 2, 62, 0
6, 19320, Note_on_c, 2, 60, 88
6, 19378, Note_off_c, 2, 60, 0
6, 19380, Note_on_c, 2, 59, 88
6, 19438, Note_off_c, 2, 59, 0
6, 19440, Note_on_c, 2, 57, 88
6, 19498, Note_off_c, 2, 57, 0
6, 19500, Note_on_c, 2, 55, 88
6, 19558, Note_off_c, 2, 55, 0
6, 19560, Note_on_c, 2, 57, 88
6, 19618, Note_off_c, 2, 57, 0
6, 19620, Note_on_c, 2, 54, 88
6, 19678, Note_off_c, 2, 54, 0
6, 19680, Note_on_c, 2, 55, 88
6, 19796, Note_off_c, 2, 55, 0
6, 19800, Note_on_c, 2, 59, 88
6, 19916, Note_off_c, 2, 59, 0
6, 19920, Note_on_c, 2, 60, 88
6, 20036, Note_off_c, 2, 60, 0
6, 20040, Note_on_c, 2, 62, 88
6, 20156, Note_off_c, 2, 62, 0
6, 20160, Note_on_c, 2, 64, 88
6, 20335, Note_off_c, 2, 64, 0
6, 20340, Note_on_c, 2, 65, 88
6, 20369, Note_off_c, 2, 65, 0
6, 20370, Note_on_c, 2, 64, 88
6, 20399, Note_off_c, 2, 64, 0
6, 20400, Note_on_c, 2, 62, 88
6, 20516, Note_off_c, 2, 62, 0
6, 20520, Note_on_c, 2, 67, 88
6, 20636, Note_off_c, 2, 67, 0
6, 20640, Note_on_c, 2, 60, 88
6, 20756, Note_off_c, 2, 60, 0
6, 20760, Note_on_c, 2, 65, 88
6, 20935, Note_off_c, 2, 65, 0
6, 20940, Note_on_c, 2, 67, 88
6, 20998, Note_off_c, 2, 67, 0
6, 21000, Note_on_c, 2, 65, 88
6, 21058, Note_off_c, 2, 65, 0
6, 21060, Note_on_c, 2, 64, 88
6, 21118, Note_off_c, 2, 64, 0
6, 21120, Note_on_c, 2, 62, 88
6, 21354, Note_off_c, 2, 62, 0
6, 21360, Note_on_c, 2, 64, 88
6, 21476, Note_off_c, 2, 64, 0
6, 21480, Note_on_c, 2, 62, 88
6, 21714, Note_off_c, 2, 62, 0
6, 21720, Note_on_c, 2, 55, 88
6, 21826, Note_off_c, 2, 55, 0
6, 21840, Note_on_c, 2, 55, 88
6, 22196, Note_off_c, 2, 55, 0
6, 22200, Note_on_c, 2, 48, 88
6, 22316, Note_off_c, 2, 48, 0
6, 22320, Note_on_c, 2, 50, 88
6, 22436, Note_off_c, 2, 50, 0
6, 22440, Note_on_c, 2, 52, 88
6, 22556, Note_off_c, 2, 52, 0
6, 22560, Note_on_c, 2, 53, 88
6, 22735, Note_off_c, 2, 53, 0
6, 22740, Note_on_c, 2, 55, 88
6, 22769, Note_off_c, 2, 55, 0
6, 22770, Note_on_c, 2, 53, 88
6, 22799, Note_off_c, 2, 53, 0
6, 22800, Note_on_c, 2, 52, 88
6, 22916, Note_off_c, 2, 52, 0
6, 22920, Note_on_c, 2, 57, 88
6, 23036, Note_off_c, 2, 57, 0
6, 23040, Note_on_c, 2, 50, 88
6, 23156, Note_off_c, 2, 50, 0
6, 23160, Note_on_c, 2, 55, 88
6, 23335, Note_off_c, 2, 55, 0
6, 23340, Note_on_c, 2, 57, 88
6, 23398, Note_off_c, 2, 57, 0
6, 23400, Note_on_c, 2, 55, 88
6, 23458, Note_off_c, 2, 55, 0
6, 23460, Note_on_c, 2, 53, 88
6, 23518, Note_off_c, 2, 53, 0
6, 23520, Note_on_c, 2, 52, 88
6, 23578, Note_off_c, 2, 52, 0
6, 23580, Note_on_c, 2, 50, 88
6, 23638, Note_off_c, 2, 50, 0
6, 23640, Note_on_c, 2, 52, 88
6, 23698, Note_off_c, 2, 52, 0
6, 23700, Note_on_c, 2, 53, 88
6, 23758, Note_off_c, 2, 53, 0
6, 23760, Note_on_c, 2, 55, 88
6, 23818, Note_off_c, 2, 55, 0
6, 23820, Note_on_c, 2, 57, 88
6, 23878, Note_off_c, 2, 57, 0
6, 23880, Note_on_c, 2, 58, 88
6, 23938, Note_off_c, 2, 58, 0
6, 23940, Note_on_c, 2, 55, 88
6, 23998, Note_off_c, 2, 55, 0
6, 24000, Note_on_c, 2, 57, 88
6, 24058, Note_off_c, 2, 57, 0
6, 24060, Note_on_c, 2, 52, 88
6, 24118, Note_off_c, 2, 52, 0
6, 24120, Note_on_c, 2, 53, 88
6, 24178, Note_off_c, 2, 53, 0
6, 24180, Note_on_c, 2, 55, 88
6, 24238, Note_off_c, 2, 55, 0
6, 24240, Note_on_c, 2, 57, 88
6, 24298, Note_off_c, 2, 57, 0
6, 24300, Note_on_c, 2, 59, 88
6, 24358, Note_off_c, 2, 59, 0
6, 24360, Note_on_c, 2, 60, 88
6, 24418, Note_off_c, 2, 60, 0
6, 24420, Note_on_c, 2, 57, 88
6, 24478, Note_off_c, 2, 57, 0
6, 24480, Note_on_c, 2, 59, 88
6, 24950, Note_off_c, 2, 59, 0
6, 24960, Note_on_c, 2, 60, 88
6, 25905, Note_off_c, 2, 60, 0
6, 25905, End_track
7, 0, Start_track
7, 0, Title_t, "Track 4"
7, 0, Program_c, 3, 6
7, 4440, Note_on_c, 3, 48, 88
7, 4556, Note_off_c, 3, 48, 0
7, 4560, Note_on_c, 3, 50, 88
7, 4676, Note_off_c, 3, 50, 0
7, 4680, Note_on_c, 3, 52, 88
7, 4796, Note_off_c, 3, 52, 0
7, 4800, Note_on_c, 3, 53, 88
7, 4975, Note_off_c, 3, 53, 0
7, 4980, Note_on_c, 3, 55, 88
7, 5009, Note_off_c, 3, 55, 0
7, 5010, Note_on_c, 3, 53, 88
7, 5039, Note_off_c, 3, 53, 0
7, 5040, Note_on_c, 3, 52, 88
7, 5156, Note_off_c, 3, 52, 0
7, 5160, Note_on_c, 3, 57, 88
7, 5276, Note_off_c, 3, 57, 0
7, 5280, Note_on_c, 3, 50, 88
7, 5396, Note_off_c, 3, 50, 0
7, 5400, Note_on_c, 3, 55, 88
7, 5575, Note_off_c, 3, 55, 0
7, 5580, Note_on_c, 3, 57, 88
7, 5638, Note_off_c, 3, 57, 0
7, 5640, Note_on_c, 3, 55, 88
7, 5698, Note_off_c, 3, 55, 0
7, 5700, Note_on_c, 3, 53, 88
7, 5758, Note_off_c, 3, 53, 0
7, 5760, Note_on_c, 3, 52, 88
7, 5818, Note_off_c, 3, 52, 0
7, 5820, Note_on_c, 3, 53, 88
7, 5878, Note_off_c, 3, 53, 0
7, 5880, Note_on_c, 3, 52, 88
7, 5938, Note_off_c, 3, 52, 0
7, 5940, Note_on_c, 3, 50, 88
7, 5998, Note_off_c, 3, 50, 0
7, 6000, Note_on_c, 3, 48, 88
7, 6058, Note_off_c, 3, 48, 0
7, 6060, Note_on_c, 3, 50, 88
7, 6118, Note_off_c, 3, 50, 0
7, 6120, Note_on_c, 3, 48, 88
7, 6178, Note_off_c, 3, 48, 0
7, 6180, Note_on_c, 3, 47, 88
7, 6238, Note_off_c, 3, 47, 0
7, 6240, Note_on_c, 3, 45, 88
7, 6356, Note_off_c, 3, 45, 0
7, 6360, Note_on_c, 3, 50, 88
7, 6476, Note_off_c, 3, 50, 0
7, 6480, Note_on_c, 3, 57, 88
7, 6596, Note_off_c, 3, 57, 0
7, 6600, Note_on_c, 3, 54, 88
7, 6716, Note_off_c, 3, 54, 0
7, 6720, Note_on_c, 3, 55, 88
7, 6778, Note_off_c, 3, 55, 0
7, 6780, Note_on_c, 3, 57, 88
7, 6838, Note_off_c, 3, 57, 0
7, 6840, Note_on_c, 3, 58, 88
7, 6898, Note_off_c, 3, 58, 0
7, 6900, Note_on_c, 3, 55, 88
7, 6958, Note_off_c, 3, 55, 0
7, 6960, Note_on_c, 3, 49, 88
7, 7076, Note_off_c, 3, 49, 0
7, 7080, Note_on_c, 3, 50, 88
7, 7196, Note_off_c, 3, 50, 0
7, 7200, Note_on_c, 3, 57, 88
7, 7434, Note_off_c, 3, 57, 0
7, 7440, Note_on_c, 3, 52, 88
7, 7674, Note_off_c, 3, 52, 0
7, 7680, Note_on_c, 3, 57, 88
7, 7738, Note_off_c, 3, 57, 0
7, 7740, Note_on_c, 3, 59, 88
7, 7798, Note_off_c, 3, 59, 0
7, 7800, Note_on_c, 3, 60, 88
7, 7858, Note_off_c, 3, 60, 0
7, 7860, Note_on_c, 3, 62, 88
7, 7918, Note_off_c, 3, 62, 0
7, 7920, Note_on_c, 3, 60, 88
7, 7978, Note_off_c, 3, 60, 0
7, 7980, Note_on_c, 3, 59, 88
7, 8038, Note_off_c, 3, 59, 0
7, 8040, Note_on_c, 3, 57, 88
7, 8098, Note_off_c, 3, 57, 0
7, 8100, Note_on_c, 3, 55, 88
7, 8158, Note_off_c, 3, 55, 0
7, 8160, Note_on_c, 3, 60, 88
7, 8276, Note_off_c, 3, 60, 0
7, 9240, Note_on_c, 3, 43, 88
7, 9356, Note_off_c, 3, 43, 0
7, 9360, Note_on_c, 3, 45, 88
7, 9476, Note_off_c, 3, 45, 0
7, 9480, Note_on_c, 3, 47, 88
7, 9596, Note_off_c, 3, 47, 0
7, 9600, Note_on_c, 3, 48, 88
7, 9775, Note_off_c, 3, 48, 0
7, 9780, Note_on_c, 3, 50, 88
7, 9809, Note_off_c, 3, 50, 0
7, 9810, Note_on_c, 3, 48, 88
7, 9839, Note_off_c, 3, 48, 0
7, 9840, Note_on_c, 3, 47, 88
7, 9956, Note_off_c, 3, 47, 0
7, 9960, Note_on_c, 3, 52, 88
7, 10076, Note_off_c, 3, 52, 0
7, 10080, Note_on_c, 3, 45, 88
7, 10196, Note_off_c, 3, 45, 0
7, 10200, Note_on_c, 3, 50, 88
7, 10375, Note_off_c, 3, 50, 0
7, 10380, Note_on_c, 3, 52, 88
7, 10438, Note_off_c, 3, 52, 0
7, 10440, Note_on_c, 3, 50, 88
7, 10498, Note_off_c, 3, 50, 0
7, 10500, Note_on_c, 3, 48, 88
7, 10558, Note_off_c, 3, 48, 0
7, 10560, Note_on_c, 3, 47, 88
7, 10676, Note_off_c, 3, 47, 0
7, 10680, Note_on_c, 3, 52, 88
7, 10914, Note_off_c, 3, 52, 0
7, 10920, Note_on_c, 3, 50, 88
7, 11036, Note_off_c, 3, 50, 0
7, 11040, Note_on_c, 3, 48, 88
7, 11156, Note_off_c, 3, 48, 0
7, 11160, Note_on_c, 3, 53, 88
7, 11394, Note_off_c, 3, 53, 0
7, 11400, Note_on_c, 3, 52, 88
7, 11636, Note_off_c, 3, 52, 0
7, 11640, Note_on_c, 3, 50, 88
7, 11874, Note_off_c, 3, 50, 0
7, 11880, Note_on_c, 3, 52, 88
7, 11996, Note_off_c, 3, 52, 0
7, 12000, Note_on_c, 3, 53, 88
7, 12116, Note_off_c, 3, 53, 0
7, 12120, Note_on_c, 3, 52, 88
7, 12178, Note_off_c, 3, 52, 0
7, 12180, Note_on_c, 3, 50, 88
7, 12238, Note_off_c, 3, 50, 0
7, 12240, Note_on_c, 3, 52, 88
7, 12474, Note_off_c, 3, 52, 0
7, 12480, Note_on_c, 3, 45, 88
7, 12714, Note_off_c, 3, 45, 0
7, 13560, Note_on_c, 3, 43, 88
7, 13676, Note_off_c, 3, 43, 0
7, 13680, Note_on_c, 3, 45, 88
7, 13796, Note_off_c, 3, 45, 0
7, 13800, Note_on_c, 3, 47, 88
7, 13916, Note_off_c, 3, 47, 0
7, 13920, Note_on_c, 3, 48, 88
7, 14095, Note_off_c, 3, 48, 0
7, 14100, Note_on_c, 3, 50, 88
7, 14129, Note_off_c, 3, 50, 0
7, 14130, Note_on_c, 3, 48, 88
7, 14159, Note_off_c, 3, 48, 0
7, 14160, Note_on_c, 3, 47, 88
7, 14276, Note_off_c, 3, 47, 0
7, 14280, Note_on_c, 3, 52, 88
7, 14396, Note_off_c, 3, 52, 0
7, 14400, Note_on_c, 3, 45, 88
7, 14516, Note_off_c, 3, 45, 0
7, 14520, Note_on_c, 3, 50, 88
7, 14695, Note_off_c, 3, 50, 0
7, 14700, Note_on_c, 3, 52, 88
7, 14758, Note_off_c, 3, 52, 0
7, 14760, Note_on_c, 3, 50, 88
7, 14818, Note_off_c, 3, 50, 0
7, 14820, Note_on_c, 3, 48, 88
7, 14878, Note_off_c, 3, 48, 0
7, 14880, Note_on_c, 3, 47, 88
7, 14996, Note_off_c, 3, 47, 0
7, 15000, Note_on_c, 3, 46, 88
7, 15116, Note_off_c, 3, 46, 0
7, 15120, Note_on_c, 3, 45, 88
7, 15236, Note_off_c, 3, 45, 0
7, 15240, Note_on_c, 3, 43, 88
7, 15356, Note_off_c, 3, 43, 0
7, 15360, Note_on_c, 3, 45, 88
7, 15476, Note_off_c, 3, 45, 0
7, 15480, Note_on_c, 3, 54, 88
7, 15596, Note_off_c, 3, 54, 0
7, 15600, Note_on_c, 3, 55, 88
7, 15716, Note_off_c, 3, 55, 0
7, 15720, Note_on_c, 3, 52, 88
7, 15836, Note_off_c, 3, 52, 0
7, 15840, Note_on_c, 3, 50, 88
7, 16074, Note_off_c, 3, 50, 0
7, 16080, Note_on_c, 3, 52, 88
7, 16196, Note_off_c, 3, 52, 0
7, 16200, Note_on_c, 3, 53, 88
7, 16316, Note_off_c, 3, 53, 0
7, 16320, Note_on_c, 3, 55, 88
7, 16495, Note_off_c, 3, 55, 0
7, 16500, Note_on_c, 3, 57, 88
7, 16529, Note_off_c, 3, 57, 0
7, 16530, Note_on_c, 3, 55, 88
7, 16559, Note_off_c, 3, 55, 0
7, 16560, Note_on_c, 3, 53, 88
7, 16676, Note_off_c, 3, 53, 0
7, 16680, Note_on_c, 3, 58, 88
7, 16796, Note_off_c, 3, 58, 0
7, 16800, Note_on_c, 3, 52, 88
7, 16916, Note_off_c, 3, 52, 0
7, 16920, Note_on_c, 3, 57, 88
7, 17095, Note_off_c, 3, 57, 0
7, 17100, Note_on_c, 3, 58, 88
7, 17158, Note_off_c, 3, 58, 0
7, 17160, Note_on_c, 3, 57, 88
7, 17218, Note_off_c, 3, 57, 0
7, 17220, Note_on_c, 3, 55, 88
7, 17278, Note_off_c, 3, 55, 0
7, 17280, Note_on_c, 3, 53, 88
7, 17338, Note_off_c, 3, 53, 0
7, 17340, Note_on_c, 3, 52, 88
7, 17398, Note_off_c, 3, 52, 0
7, 17400, Note_on_c, 3, 53, 88
7, 17458, Note_off_c, 3, 53, 0
7, 17460, Note_on_c, 3, 50, 88
7, 17518, Note_off_c, 3, 50, 0
7, 17520, Note_on_c, 3, 55, 88
7, 17636, Note_off_c, 3, 55, 0
7, 17640, Note_on_c, 3, 57, 88
7, 17756, Note_off_c, 3, 57, 0
7, 17760, Note_on_c, 3, 50, 88
7, 18298, Note_off_c, 3, 50, 0
7, 18300, Note_on_c, 3, 52, 88
7, 18358, Note_off_c, 3, 52, 0
7, 18360, Note_on_c, 3, 50, 88
7, 18418, Note_off_c, 3, 50, 0
7, 18420, Note_on_c, 3, 48, 88
7, 18478, Note_off_c, 3, 48, 0
7, 18480, Note_on_c, 3, 47, 88
7, 18538, Note_off_c, 3, 47, 0
7, 18540, Note_on_c, 3, 45, 88
7, 18598, Note_off_c, 3, 45, 0
7, 18600, Note_on_c, 3, 43, 88
7, 18658, Note_off_c, 3, 43, 0
7, 18660, Note_on_c, 3, 42, 88
7, 18718, Note_off_c, 3, 42, 0
7, 18720, Note_on_c, 3, 40, 88
7, 18836, Note_off_c, 3, 40, 0
7, 18840, Note_on_c, 3, 52, 88
7, 18956, Note_off_c, 3, 52, 0
7, 18960, Note_on_c, 3, 54, 88
7, 19076, Note_off_c, 3, 54, 0
7, 19080, Note_on_c, 3, 55, 88
7, 19316, Note_off_c, 3, 55, 0
7, 19320, Note_on_c, 3, 57, 88
7, 19378, Note_off_c, 3, 57, 0
7, 19380, Note_on_c, 3, 55, 88
7, 19438, Note_off_c, 3, 55, 0
7, 19440, Note_on_c, 3, 54, 88
7, 19556, Note_off_c, 3, 54, 0
7, 19560, Note_on_c, 3, 50, 88
7, 19676, Note_off_c, 3, 50, 0
7, 19680, Note_on_c, 3, 55, 88
7, 20630, Note_off_c, 3, 55, 0
7, 20640, Note_on_c, 3, 57, 88
7, 20874, Note_off_c, 3, 57, 0
7, 20880, Note_on_c, 3, 59, 88
7, 20996, Note_off_c, 3, 59, 0
7, 21000, Note_on_c, 3, 60, 88
7, 21116, Note_off_c, 3, 60, 0
7, 21120, Note_on_c, 3, 53, 88
7, 21178, Note_off_c, 3, 53, 0
7, 21180, Note_on_c, 3, 57, 88
7, 21238, Note_off_c, 3, 57, 0
7, 21240, Note_on_c, 3, 55, 88
7, 21298, Note_off_c, 3, 55, 0
7, 21300, Note_on_c, 3, 53, 88
7, 21358, Note_off_c, 3, 53, 0
7, 21360, Note_on_c, 3, 52, 88
7, 21418, Note_off_c, 3, 52, 0
7, 21420, Note_on_c, 3, 50, 88
7, 21478, Note_off_c, 3, 50, 0
7, 21480, Note_on_c, 3, 48, 88
7, 21538, Note_off_c, 3, 48, 0
7, 21540, Note_on_c, 3, 47, 88
7, 21598, Note_off_c, 3, 47, 0
7, 21600, Note_on_c, 3, 48, 88
7, 21658, Note_off_c, 3, 48, 0
7, 21660, Note_on_c, 3, 50, 88
7, 21718, Note_off_c, 3, 50, 0
7, 21720, Note_on_c, 3, 52, 88
7, 21778, Note_off_c, 3, 52, 0
7, 21780, Note_on_c, 3, 53, 88
7, 21838, Note_off_c, 3, 53, 0
7, 21840, Note_on_c, 3, 55, 88
7, 21956, Note_off_c, 3, 55, 0
7, 21960, Note_on_c, 3, 43, 88
7, 22076, Note_off_c, 3, 43, 0
7, 22080, Note_on_c, 3, 48, 88
7, 25905, Note_off_c, 3, 48, 0
7, 25905, End_track
0, 0, End_of_file
