0, 0, Header, 1, 7, 240
1, 0, Start_track
1, 0, Time_signature, 3, 2, 24, 8
1, 0, Tempo, 769230
1, 0, SMPTE_offset, 64, 0, 0, 0, 110
1, 23760, Tempo, 789473
1, 30240, Tempo, 833333
1, 30240, End_track
2, 0, Start_track
2, 0, Title_t, "(C) & (P) 1993"
2, 127, End_track
3, 0, Start_track
3, 0, Title_t, "CCARH,Stanford"
3, 0, End_track
4, 0, Start_track
4, 0, Title_t, "Track 1"
4, 0, Program_c, 0, 6
4, 120, Note_on_c, 0, 62, 88
4, 236, Note_off_c, 0, 62, 0
4, 240, Note_on_c, 0, 64, 88
4, 356, Note_off_c, 0, 64, 0
4, 360, Note_on_c, 0, 65, 88
4, 476, Note_off_c, 0, 65, 0
4, 480, Note_on_c, 0, 67, 88
4, 596, Note_off_c, 0, 67, 0
4, 600, Note_on_c, 0, 64, 88
4, 716, Note_off_c, 0, 64, 0
4, 720, Note_on_c, 0, 65, 88
4, 778, Note_off_c, 0, 65, 0
4, 780, Note_on_c, 0, 62, 88
4, 838, Note_off_c, 0, 62, 0
4, 840, Note_on_c, 0, 61, 88
4, 898, Note_off_c, 0, 61, 0
4, 900, Note_on_c, 0, 62, 88
4, 958, Note_off_c, 0, 62, 0
4, 960, Note_on_c, 0, 70, 88
4, 1194, Note_off_c, 0, 70, 0
4, 1200, Note_on_c, 0, 69, 88
4, 1236, Note_off_c, 0, 69, 0
4, 1238, Note_on_c, 0, 67, 88
4, 1267, Note_off_c, 0, 67, 0
4, 1268, Note_on_c, 0, 69, 88
4, 1297, Note_off_c, 0, 69, 0
4, 1298, Note_on_c, 0, 67, 88
4, 1327, Note_off_c, 0, 67, 0
4, 1328, Note_on_c, 0, 69, 88
4, 1357, Note_off_c, 0, 69, 0
4, 1358, Note_on_c, 0, 67, 88
4, 1387, Note_off_c, 0, 67, 0
4, 1388, Note_on_c, 0, 65, 88
4, 1409, Note_off_c, 0, 65, 0
4, 1410, Note_on_c, 0, 67, 88
4, 1439, Note_off_c, 0, 67, 0
4, 1440, Note_on_c, 0, 69, 88
4, 1734, Note_off_c, 0, 69, 0
4, 1740, Note_on_c, 0, 67, 88
4, 1798, Note_off_c, 0, 67, 0
4, 1800, Note_on_c, 0, 65, 88
4, 1858, Note_off_c, 0, 65, 0
4, 1860, Note_on_c, 0, 64, 88
4, 1918, Note_off_c, 0, 64, 0
4, 1920, Note_on_c, 0, 67, 88
4, 1978, Note_off_c, 0, 67, 0
4, 1980, Note_on_c, 0, 65, 88
4, 2038, Note_off_c, 0, 65, 0
4, 2040, Note_on_c, 0, 64, 88
4, 2098, Note_off_c, 0, 64, 0
4, 2100, Note_on_c, 0, 62, 88
4, 2158, Note_off_c, 0, 62, 0
4, 2160, Note_on_c, 0, 64, 88
4, 2276, Note_off_c, 0, 64, 0
4, 2280, Note_on_c, 0, 72, 88
4, 2455, Note_off_c, 0, 72, 0
4, 2460, Note_on_c, 0, 71, 88
4, 2518, Note_off_c, 0, 71, 0
4, 2520, Note_on_c, 0, 69, 88
4, 2578, Note_off_c, 0, 69, 0
4, 2580, Note_on_c, 0, 71, 88
4, 2625, Note_off_c, 0, 71, 0
4, 2640, Note_on_c, 0, 71, 88
4, 2698, Note_off_c, 0, 71, 0
4, 2700, Note_on_c, 0, 69, 88
4, 2758, Note_off_c, 0, 69, 0
4, 2760, Note_on_c, 0, 68, 88
4, 2818, Note_off_c, 0, 68, 0
4, 2820, Note_on_c, 0, 69, 88
4, 2878, Note_off_c, 0, 69, 0
4, 2880, Note_on_c, 0, 69, 88
4, 2938, Note_off_c, 0, 69, 0
4, 2940, Note_on_c, 0, 67, 88
4, 2998, Note_off_c, 0, 67, 0
4, 3000, Note_on_c, 0, 66, 88
4, 3058, Note_off_c, 0, 66, 0
4, 3060, Note_on_c, 0, 67, 88
4, 3118, Note_off_c, 0, 67, 0
4, 3120, Note_on_c, 0, 76, 88
4, 3354, Note_off_c, 0, 76, 0
4, 3360, Note_on_c, 0, 67, 88
4, 3594, Note_off_c, 0, 67, 0
4, 3600, Note_on_c, 0, 65, 88
4, 3716, Note_off_c, 0, 65, 0
4, 3720, Note_on_c, 0, 74, 88
4, 3895, Note_off_c, 0, 74, 0
4, 3900, Note_on_c, 0, 72, 88
4, 3958, Note_off_c, 0, 72, 0
4, 3960, Note_on_c, 0, 70, 88
4, 4018, Note_off_c, 0, 70, 0
4, 4020, Note_on_c, 0, 69, 88
4, 4078, Note_off_c, 0, 69, 0
4, 4080, Note_on_c, 0, 72, 88
4, 4138, Note_off_c, 0, 72, 0
4, 4140, Note_on_c, 0, 70, 88
4, 4198, Note_off_c, 0, 70, 0
4, 4200, Note_on_c, 0, 69, 88
4, 4258, Note_off_c, 0, 69, 0
4, 4260, Note_on_c, 0, 67, 88
4, 4318, Note_off_c, 0, 67, 0
4, 4320, Note_on_c, 0, 69, 88
4, 4554, Note_off_c, 0, 69, 0
4, 4560, Note_on_c, 0, 67, 88
4, 5156, Note_off_c, 0, 67, 0
4, 5160, Note_on_c, 0, 64, 88
4, 5276, Note_off_c, 0, 64, 0
4, 5280, Note_on_c, 0, 65, 88
4, 5396, Note_off_c, 0, 65, 0
4, 5400, Note_on_c, 0, 67, 88
4, 5516, Note_off_c, 0, 67, 0
4, 5520, Note_on_c, 0, 69, 88
4, 5636, Note_off_c, 0, 69, 0
4, 5640, Note_on_c, 0, 65, 88
4, 5756, Note_off_c, 0, 65, 0
4, 5760, Note_on_c, 0, 70, 88
4, 5818, Note_off_c, 0, 70, 0
4, 5820, Note_on_c, 0, 67, 88
4, 5878, Note_off_c, 0, 67, 0
4, 5880, Note_on_c, 0, 66, 88
4, 5938, Note_off_c, 0, 66, 0
4, 5940, Note_on_c, 0, 67, 88
4, 5998, Note_off_c, 0, 67, 0
4, 6000, Note_on_c, 0, 75, 88
4, 6234, Note_off_c, 0, 75, 0
4, 6240, Note_on_c, 0, 73, 88
4, 6269, Note_off_c, 0, 73, 0
4, 6270, Note_on_c, 0, 74, 88
4, 6299, Note_off_c, 0, 74, 0
4, 6300, Note_on_c, 0, 73, 88
4, 6329, Note_off_c, 0, 73, 0
4, 6330, Note_on_c, 0, 71, 88
4, 6359, Note_off_c, 0, 71, 0
4, 6360, Note_on_c, 0, 73, 88
4, 6476, Note_off_c, 0, 73, 0
4, 6480, Note_on_c, 0, 74, 88
4, 6705, Note_off_c, 0, 74, 0
4, 6720, Note_on_c, 0, 74, 88
4, 6954, Note_off_c, 0, 74, 0
4, 6960, Note_on_c, 0, 71, 88
4, 6989, Note_off_c, 0, 71, 0
4, 6990, Note_on_c, 0, 72, 88
4, 7019, Note_off_c, 0, 72, 0
4, 7020, Note_on_c, 0, 71, 88
4, 7049, Note_off_c, 0, 71, 0
4, 7050, Note_on_c, 0, 69, 88
4, 7079, Note_off_c, 0, 69, 0
4, 7080, Note_on_c, 0, 71, 88
4, 7196, Note_off_c, 0, 71, 0
4, 7200, Note_on_c, 0, 72, 88
4, 7425, Note_off_c, 0, 72, 0
4, 7440, Note_on_c, 0, 72, 88
4, 7674, Note_off_c, 0, 72, 0
4, 7680, Note_on_c, 0, 69, 88
4, 7709, Note_off_c, 0, 69, 0
4, 7710, Note_on_c, 0, 70, 88
4, 7739, Note_off_c, 0, 70, 0
4, 7740, Note_on_c, 0, 69, 88
4, 7769, Note_off_c, 0, 69, 0
4, 7770, Note_on_c, 0, 67, 88
4, 7799, Note_off_c, 0, 67, 0
4, 7800, Note_on_c, 0, 69, 88
4, 7916, Note_off_c, 0, 69, 0
4, 7920, Note_on_c, 0, 70, 88
4, 8756, Note_off_c, 0, 70, 0
4, 8760, Note_on_c, 0, 69, 88
4, 8876, Note_off_c, 0, 69, 0
4, 8880, Note_on_c, 0, 71, 88
4, 8996, Note_off_c, 0, 71, 0
4, 9000, Note_on_c, 0, 73, 88
4, 9116, Note_off_c, 0, 73, 0
4, 9120, Note_on_c, 0, 74, 88
4, 9236, Note_off_c, 0, 74, 0
4, 9240, Note_on_c, 0, 71, 88
4, 9356, Note_off_c, 0, 71, 0
4, 9360, Note_on_c, 0, 73, 88
4, 9418, Note_off_c, 0, 73, 0
4, 9420, Note_on_c, 0, 69, 88
4, 9478, Note_off_c, 0, 69, 0
4, 9480, Note_on_c, 0, 68, 88
4, 9538, Note_off_c, 0, 68, 0
4, 9540, Note_on_c, 0, 69, 88
4, 9598, Note_off_c, 0, 69, 0
4, 9600, Note_on_c, 0, 77, 88
4, 9834, Note_off_c, 0, 77, 0
4, 9840, Note_on_c, 0, 76, 88
4, 9876, Note_off_c, 0, 76, 0
4, 9878, Note_on_c, 0, 74, 88
4, 9907, Note_off_c, 0, 74, 0
4, 9908, Note_on_c, 0, 76, 88
4, 9937, Note_off_c, 0, 76, 0
4, 9938, Note_on_c, 0, 74, 88
4, 9967, Note_off_c, 0, 74, 0
4, 9968, Note_on_c, 0, 76, 88
4, 9997, Note_off_c, 0, 76, 0
4, 9998, Note_on_c, 0, 74, 88
4, 10027, Note_off_c, 0, 74, 0
4, 10028, Note_on_c, 0, 72, 88
4, 10049, Note_off_c, 0, 72, 0
4, 10050, Note_on_c, 0, 74, 88
4, 10079, Note_off_c, 0, 74, 0
4, 10080, Note_on_c, 0, 76, 88
4, 10196, Note_off_c, 0, 76, 0
4, 10200, Note_on_c, 0, 81, 88
4, 10375, Note_off_c, 0, 81, 0
4, 10380, Note_on_c, 0, 79, 88
4, 10438, Note_off_c, 0, 79, 0
4, 10440, Note_on_c, 0, 78, 88
4, 10498, Note_off_c, 0, 78, 0
4, 10500, Note_on_c, 0, 76, 88
4, 10558, Note_off_c, 0, 76, 0
4, 10560, Note_on_c, 0, 79, 88
4, 10618, Note_off_c, 0, 79, 0
4, 10620, Note_on_c, 0, 78, 88
4, 10678, Note_off_c, 0, 78, 0
4, 10680, Note_on_c, 0, 76, 88
4, 10738, Note_off_c, 0, 76, 0
4, 10740, Note_on_c, 0, 74, 88
4, 10798, Note_off_c, 0, 74, 0
4, 10800, Note_on_c, 0, 75, 88
4, 10858, Note_off_c, 0, 75, 0
4, 10860, Note_on_c, 0, 84, 88
4, 10918, Note_off_c, 0, 84, 0
4, 10920, Note_on_c, 0, 82, 88
4, 11036, Note_off_c, 0, 82, 0
4, 11100, Note_on_c, 0, 81, 88
4, 11158, Note_off_c, 0, 81, 0
4, 11160, Note_on_c, 0, 80, 88
4, 11218, Note_off_c, 0, 80, 0
4, 11220, Note_on_c, 0, 78, 88
4, 11278, Note_off_c, 0, 78, 0
4, 11280, Note_on_c, 0, 81, 88
4, 11338, Note_off_c, 0, 81, 0
4, 11340, Note_on_c, 0, 80, 88
4, 11398, Note_off_c, 0, 80, 0
4, 11400, Note_on_c, 0, 78, 88
4, 11458, Note_off_c, 0, 78, 0
4, 11460, Note_on_c, 0, 76, 88
4, 11518, Note_off_c, 0, 76, 0
4, 11520, Note_on_c, 0, 74, 88
4, 11578, Note_off_c, 0, 74, 0
4, 11580, Note_on_c, 0, 72, 88
4, 11638, Note_off_c, 0, 72, 0
4, 11640, Note_on_c, 0, 71, 88
4, 11698, Note_off_c, 0, 71, 0
4, 11700, Note_on_c, 0, 72, 88
4, 11745, Note_off_c, 0, 72, 0
4, 11760, Note_on_c, 0, 72, 88
4, 11818, Note_off_c, 0, 72, 0
4, 11820, Note_on_c, 0, 71, 88
4, 11878, Note_off_c, 0, 71, 0
4, 11880, Note_on_c, 0, 69, 88
4, 11938, Note_off_c, 0, 69, 0
4, 11940, Note_on_c, 0, 71, 88
4, 11985, Note_off_c, 0, 71, 0
4, 12000, Note_on_c, 0, 71, 88
4, 12058, Note_off_c, 0, 71, 0
4, 12060, Note_on_c, 0, 69, 88
4, 12118, Note_off_c, 0, 69, 0
4, 12120, Note_on_c, 0, 68, 88
4, 12178, Note_off_c, 0, 68, 0
4, 12180, Note_on_c, 0, 69, 88
4, 12238, Note_off_c, 0, 69, 0
4, 12240, Note_on_c, 0, 67, 88
4, 12534, Note_off_c, 0, 67, 0
4, 12540, Note_on_c, 0, 65, 88
4, 12598, Note_off_c, 0, 65, 0
4, 12600, Note_on_c, 0, 64, 88
4, 12658, Note_off_c, 0, 64, 0
4, 12660, Note_on_c, 0, 65, 88
4, 12705, Note_off_c, 0, 65, 0
4, 12720, Note_on_c, 0, 65, 88
4, 12778, Note_off_c, 0, 65, 0
4, 12780, Note_on_c, 0, 64, 88
4, 12838, Note_off_c, 0, 64, 0
4, 12840, Note_on_c, 0, 62, 88
4, 12898, Note_off_c, 0, 62, 0
4, 12900, Note_on_c, 0, 69, 88
4, 12958, Note_off_c, 0, 69, 0
4, 12960, Note_on_c, 0, 69, 88
4, 13974, Note_off_c, 0, 69, 0
4, 13980, Note_on_c, 0, 75, 88
4, 14038, Note_off_c, 0, 75, 0
4, 14040, Note_on_c, 0, 76, 88
4, 14098, Note_off_c, 0, 76, 0
4, 14100, Note_on_c, 0, 69, 88
4, 14158, Note_off_c, 0, 69, 0
4, 14160, Note_on_c, 0, 72, 88
4, 14218, Note_off_c, 0, 72, 0
4, 14220, Note_on_c, 0, 71, 88
4, 14278, Note_off_c, 0, 71, 0
4, 14280, Note_on_c, 0, 69, 88
4, 14338, Note_off_c, 0, 69, 0
4, 14340, Note_on_c, 0, 68, 88
4, 14398, Note_off_c, 0, 68, 0
4, 14400, Note_on_c, 0, 69, 88
4, 14429, Note_off_c, 0, 69, 0
4, 14430, Note_on_c, 0, 68, 88
4, 14459, Note_off_c, 0, 68, 0
4, 14460, Note_on_c, 0, 69, 88
4, 14694, Note_off_c, 0, 69, 0
4, 14700, Note_on_c, 0, 67, 88
4, 14758, Note_off_c, 0, 67, 0
4, 14760, Note_on_c, 0, 65, 88
4, 14818, Note_off_c, 0, 65, 0
4, 14820, Note_on_c, 0, 64, 88
4, 14878, Note_off_c, 0, 64, 0
4, 14880, Note_on_c, 0, 67, 88
4, 14938, Note_off_c, 0, 67, 0
4, 14940, Note_on_c, 0, 65, 88
4, 14998, Note_off_c, 0, 65, 0
4, 15000, Note_on_c, 0, 64, 88
4, 15058, Note_off_c, 0, 64, 0
4, 15060, Note_on_c, 0, 62, 88
4, 15118, Note_off_c, 0, 62, 0
4, 15120, Note_on_c, 0, 64, 88
4, 15236, Note_off_c, 0, 64, 0
4, 15240, Note_on_c, 0, 76, 88
4, 15356, Note_off_c, 0, 76, 0
4, 15360, Note_on_c, 0, 74, 88
4, 15476, Note_off_c, 0, 74, 0
4, 15480, Note_on_c, 0, 73, 88
4, 15596, Note_off_c, 0, 73, 0
4, 15600, Note_on_c, 0, 71, 88
4, 15716, Note_off_c, 0, 71, 0
4, 15720, Note_on_c, 0, 74, 88
4, 15836, Note_off_c, 0, 74, 0
4, 15840, Note_on_c, 0, 73, 88
4, 15898, Note_off_c, 0, 73, 0
4, 15900, Note_on_c, 0, 76, 88
4, 15958, Note_off_c, 0, 76, 0
4, 15960, Note_on_c, 0, 77, 88
4, 16018, Note_off_c, 0, 77, 0
4, 16020, Note_on_c, 0, 76, 88
4, 16078, Note_off_c, 0, 76, 0
4, 16080, Note_on_c, 0, 67, 88
4, 16314, Note_off_c, 0, 67, 0
4, 16320, Note_on_c, 0, 70, 88
4, 16618, Note_off_c, 0, 70, 0
4, 16620, Note_on_c, 0, 69, 88
4, 16678, Note_off_c, 0, 69, 0
4, 16680, Note_on_c, 0, 67, 88
4, 16738, Note_off_c, 0, 67, 0
4, 16740, Note_on_c, 0, 69, 88
4, 16785, Note_off_c, 0, 69, 0
4, 16800, Note_on_c, 0, 69, 88
4, 16858, Note_off_c, 0, 69, 0
4, 16860, Note_on_c, 0, 67, 88
4, 16918, Note_off_c, 0, 67, 0
4, 16920, Note_on_c, 0, 65, 88
4, 16978, Note_off_c, 0, 65, 0
4, 16980, Note_on_c, 0, 67, 88
4, 17025, Note_off_c, 0, 67, 0
4, 17040, Note_on_c, 0, 67, 88
4, 17098, Note_off_c, 0, 67, 0
4, 17100, Note_on_c, 0, 65, 88
4, 17158, Note_off_c, 0, 65, 0
4, 17160, Note_on_c, 0, 64, 88
4, 17218, Note_off_c, 0, 64, 0
4, 17220, Note_on_c, 0, 65, 88
4, 17278, Note_off_c, 0, 65, 0
4, 17280, Note_on_c, 0, 65, 88
4, 17574, Note_off_c, 0, 65, 0
4, 17580, Note_on_c, 0, 64, 88
4, 17638, Note_off_c, 0, 64, 0
4, 17640, Note_on_c, 0, 66, 88
4, 17698, Note_off_c, 0, 66, 0
4, 17700, Note_on_c, 0, 67, 88
4, 17758, Note_off_c, 0, 67, 0
4, 17760, Note_on_c, 0, 66, 88
4, 17818, Note_off_c, 0, 66, 0
4, 17820, Note_on_c, 0, 67, 88
4, 17878, Note_off_c, 0, 67, 0
4, 17880, Note_on_c, 0, 69, 88
4, 17938, Note_off_c, 0, 69, 0
4, 17940, Note_on_c, 0, 67, 88
4, 17998, Note_off_c, 0, 67, 0
4, 18000, Note_on_c, 0, 67, 88
4, 18058, Note_off_c, 0, 67, 0
4, 18060, Note_on_c, 0, 69, 88
4, 18118, Note_off_c, 0, 69, 0
4, 18120, Note_on_c, 0, 70, 88
4, 18178, Note_off_c, 0, 70, 0
4, 18180, Note_on_c, 0, 69, 88
4, 18225, Note_off_c, 0, 69, 0
4, 18240, Note_on_c, 0, 69, 88
4, 18298, Note_off_c, 0, 69, 0
4, 18300, Note_on_c, 0, 71, 88
4, 18358, Note_off_c, 0, 71, 0
4, 18360, Note_on_c, 0, 72, 88
4, 18418, Note_off_c, 0, 72, 0
4, 18420, Note_on_c, 0, 71, 88
4, 18465, Note_off_c, 0, 71, 0
4, 18480, Note_on_c, 0, 71, 88
4, 18538, Note_off_c, 0, 71, 0
4, 18540, Note_on_c, 0, 73, 88
4, 18598, Note_off_c, 0, 73, 0
4, 18600, Note_on_c, 0, 74, 88
4, 18658, Note_off_c, 0, 74, 0
4, 18660, Note_on_c, 0, 73, 88
4, 18718, Note_off_c, 0, 73, 0
4, 18720, Note_on_c, 0, 73, 88
4, 18836, Note_off_c, 0, 73, 0
4, 18840, Note_on_c, 0, 81, 88
4, 18956, Note_off_c, 0, 81, 0
4, 18960, Note_on_c, 0, 79, 88
4, 19076, Note_off_c, 0, 79, 0
4, 19080, Note_on_c, 0, 77, 88
4, 19196, Note_off_c, 0, 77, 0
4, 19200, Note_on_c, 0, 76, 88
4, 19316, Note_off_c, 0, 76, 0
4, 19320, Note_on_c, 0, 79, 88
4, 19436, Note_off_c, 0, 79, 0
4, 19440, Note_on_c, 0, 77, 88
4, 19498, Note_off_c, 0, 77, 0
4, 19500, Note_on_c, 0, 81, 88
4, 19558, Note_off_c, 0, 81, 0
4, 19560, Note_on_c, 0, 82, 88
4, 19618, Note_off_c, 0, 82, 0
4, 19620, Note_on_c, 0, 81, 88
4, 19678, Note_off_c, 0, 81, 0
4, 19680, Note_on_c, 0, 73, 88
4, 19914, Note_off_c, 0, 73, 0
4, 19920, Note_on_c, 0, 76, 88
4, 20276, Note_off_c, 0, 76, 0
4, 20280, Note_on_c, 0, 69, 88
4, 20396, Note_off_c, 0, 69, 0
4, 20400, Note_on_c, 0, 74, 88
4, 20634, Note_off_c, 0, 74, 0
4, 20640, Note_on_c, 0, 72, 88
4, 20996, Note_off_c, 0, 72, 0
4, 21000, Note_on_c, 0, 75, 88
4, 21175, Note_off_c, 0, 75, 0
4, 21180, Note_on_c, 0, 74, 88
4, 21238, Note_off_c, 0, 74, 0
4, 21240, Note_on_c, 0, 72, 88
4, 21298, Note_off_c, 0, 72, 0
4, 21300, Note_on_c, 0, 74, 88
4, 21345, Note_off_c, 0, 74, 0
4, 21360, Note_on_c, 0, 74, 88
4, 21418, Note_off_c, 0, 74, 0
4, 21420, Note_on_c, 0, 72, 88
4, 21478, Note_off_c, 0, 72, 0
4, 21480, Note_on_c, 0, 70, 88
4, 21538, Note_off_c, 0, 70, 0
4, 21540, Note_on_c, 0, 72, 88
4, 21598, Note_off_c, 0, 72, 0
4, 21600, Note_on_c, 0, 72, 88
4, 21658, Note_off_c, 0, 72, 0
4, 21660, Note_on_c, 0, 70, 88
4, 21718, Note_off_c, 0, 70, 0
4, 21720, Note_on_c, 0, 69, 88
4, 21778, Note_off_c, 0, 69, 0
4, 21780, Note_on_c, 0, 70, 88
4, 21838, Note_off_c, 0, 70, 0
4, 21840, Note_on_c, 0, 74, 88
4, 21898, Note_off_c, 0, 74, 0
4, 21900, Note_on_c, 0, 72, 88
4, 21958, Note_off_c, 0, 72, 0
4, 21960, Note_on_c, 0, 70, 88
4, 22018, Note_off_c, 0, 70, 0
4, 22020, Note_on_c, 0, 72, 88
4, 22065, Note_off_c, 0, 72, 0
4, 22080, Note_on_c, 0, 72, 88
4, 22138, Note_off_c, 0, 72, 0
4, 22140, Note_on_c, 0, 70, 88
4, 22198, Note_off_c, 0, 70, 0
4, 22200, Note_on_c, 0, 69, 88
4, 22258, Note_off_c, 0, 69, 0
4, 22260, Note_on_c, 0, 70, 88
4, 22318, Note_off_c, 0, 70, 0
4, 22320, Note_on_c, 0, 70, 88
4, 22378, Note_off_c, 0, 70, 0
4, 22380, Note_on_c, 0, 69, 88
4, 22438, Note_off_c, 0, 69, 0
4, 22440, Note_on_c, 0, 67, 88
4, 22498, Note_off_c, 0, 67, 0
4, 22500, Note_on_c, 0, 69, 88
4, 22558, Note_off_c, 0, 69, 0
4, 22560, Note_on_c, 0, 72, 88
4, 22618, Note_off_c, 0, 72, 0
4, 22620, Note_on_c, 0, 70, 88
4, 22678, Note_off_c, 0, 70, 0
4, 22680, Note_on_c, 0, 69, 88
4, 22738, Note_off_c, 0, 69, 0
4, 22740, Note_on_c, 0, 70, 88
4, 22785, Note_off_c, 0, 70, 0
4, 22800, Note_on_c, 0, 70, 88
4, 22858, Note_off_c, 0, 70, 0
4, 22860, Note_on_c, 0, 69, 88
4, 22918, Note_off_c, 0, 69, 0
4, 22920, Note_on_c, 0, 67, 88
4, 22978, Note_off_c, 0, 67, 0
4, 22980, Note_on_c, 0, 69, 88
4, 23038, Note_off_c, 0, 69, 0
4, 23040, Note_on_c, 0, 69, 88
4, 23098, Note_off_c, 0, 69, 0
4, 23100, Note_on_c, 0, 67, 88
4, 23158, Note_off_c, 0, 67, 0
4, 23160, Note_on_c, 0, 65, 88
4, 23218, Note_off_c, 0, 65, 0
4, 23220, Note_on_c, 0, 67, 88
4, 23278, Note_off_c, 0, 67, 0
4, 23280, Note_on_c, 0, 76, 88
4, 23514, Note_off_c, 0, 76, 0
4, 23520, Note_on_c, 0, 74, 88
4, 23556, Note_off_c, 0, 74, 0
4, 23558, Note_on_c, 0, 73, 88
4, 23587, Note_off_c, 0, 73, 0
4, 23588, Note_on_c, 0, 74, 88
4, 23617, Note_off_c, 0, 74, 0
4, 23618, Note_on_c, 0, 73, 88
4, 23647, Note_off_c, 0, 73, 0
4, 23648, Note_on_c, 0, 74, 88
4, 23677, Note_off_c, 0, 74, 0
4, 23678, Note_on_c, 0, 73, 88
4, 23707, Note_off_c, 0, 73, 0
4, 23708, Note_on_c, 0, 71, 88
4, 23729, Note_off_c, 0, 71, 0
4, 23730, Note_on_c, 0, 73, 88
4, 23759, Note_off_c, 0, 73, 0
4, 23760, Note_on_c, 0, 74, 88
4, 24054, Note_off_c, 0, 74, 0
4, 24060, Note_on_c, 0, 72, 88
4, 24118, Note_off_c, 0, 72, 0
4, 24120, Note_on_c, 0, 70, 88
4, 24178, Note_off_c, 0, 70, 0
4, 24180, Note_on_c, 0, 69, 88
4, 24238, Note_off_c, 0, 69, 0
4, 24240, Note_on_c, 0, 72, 88
4, 24298, Note_off_c, 0, 72, 0
4, 24300, Note_on_c, 0, 70, 88
4, 24358, Note_off_c, 0, 70, 0
4, 24360, Note_on_c, 0, 69, 88
4, 24418, Note_off_c, 0, 69, 0
4, 24420, Note_on_c, 0, 67, 88
4, 24478, Note_off_c, 0, 67, 0
4, 24480, Note_on_c, 0, 69, 88
4, 24596, Note_off_c, 0, 69, 0
4, 24600, Note_on_c, 0, 66, 88
4, 24716, Note_off_c, 0, 66, 0
4, 24720, Note_on_c, 0, 67, 88
4, 24836, Note_off_c, 0, 67, 0
4, 24840, Note_on_c, 0, 69, 88
4, 24956, Note_off_c, 0, 69, 0
4, 24960, Note_on_c, 0, 70, 88
4, 25076, Note_off_c, 0, 70, 0
4, 25080, Note_on_c, 0, 67, 88
4, 25196, Note_off_c, 0, 67, 0
4, 25200, Note_on_c, 0, 69, 88
4, 25258, Note_off_c, 0, 69, 0
4, 25260, Note_on_c, 0, 72, 88
4, 25318, Note_off_c, 0, 72, 0
4, 25320, Note_on_c, 0, 75, 88
4, 25495, Note_off_c, 0, 75, 0
4, 25500, Note_on_c, 0, 74, 88
4, 25558, Note_off_c, 0, 74, 0
4, 25560, Note_on_c, 0, 72, 88
4, 25618, Note_off_c, 0, 72, 0
4, 25620, Note_on_c, 0, 70, 88
4, 25678, Note_off_c, 0, 70, 0
4, 25680, Note_on_c, 0, 74, 88
4, 25738, Note_off_c, 0, 74, 0
4, 25740, Note_on_c, 0, 72, 88
4, 25798, Note_off_c, 0, 72, 0
4, 25800, Note_on_c, 0, 70, 88
4, 25858, Note_off_c, 0, 70, 0
4, 25860, Note_on_c, 0, 69, 88
4, 25918, Note_off_c, 0, 69, 0
4, 25920, Note_on_c, 0, 70, 88
4, 25978, Note_off_c, 0, 70, 0
4, 25980, Note_on_c, 0, 74, 88
4, 26038, Note_off_c, 0, 74, 0
4, 26040, Note_on_c, 0, 77, 88
4, 26215, Note_off_c, 0, 77, 0
4, 26220, Note_on_c, 0, 76, 88
4, 26278, Note_off_c, 0, 76, 0
4, 26280, Note_on_c, 0, 74, 88
4, 26338, Note_off_c, 0, 74, 0
4, 26340, Note_on_c, 0, 73, 88
4, 26398, Note_off_c, 0, 73, 0
4, 26400, Note_on_c, 0, 76, 88
4, 26458, Note_off_c, 0, 76, 0
4, 26460, Note_on_c, 0, 74, 88
4, 26518, Note_off_c, 0, 74, 0
4, 26520, Note_on_c, 0, 73, 88
4, 26578, Note_off_c, 0, 73, 0
4, 26580, Note_on_c, 0, 71, 88
4, 26638, Note_off_c, 0, 71, 0
4, 26640, Note_on_c, 0, 73, 88
4, 26698, Note_off_c, 0, 73, 0
4, 26700, Note_on_c, 0, 76, 88
4, 26758, Note_off_c, 0, 76, 0
4, 26760, Note_on_c, 0, 82, 88
4, 26935, Note_off_c, 0, 82, 0
4, 26940, Note_on_c, 0, 81, 88
4, 26998, Note_off_c, 0, 81, 0
4, 27000, Note_on_c, 0, 79, 88
4, 27058, Note_off_c, 0, 79, 0
4, 27060, Note_on_c, 0, 77, 88
4, 27118, Note_off_c, 0, 77, 0
4, 27120, Note_on_c, 0, 81, 88
4, 27178, Note_off_c, 0, 81, 0
4, 27180, Note_on_c, 0, 79, 88
4, 27238, Note_off_c, 0, 79, 0
4, 27240, Note_on_c, 0, 77, 88
4, 27298, Note_off_c, 0, 77, 0
4, 27300, Note_on_c, 0, 76, 88
4, 27358, Note_off_c, 0, 76, 0
4, 27360, Note_on_c, 0, 79, 88
4, 27418, Note_off_c, 0, 79, 0
4, 27420, Note_on_c, 0, 77, 88
4, 27478, Note_off_c, 0, 77, 0
4, 27480, Note_on_c, 0, 76, 88
4, 27538, Note_off_c, 0, 76, 0
4, 27540, Note_on_c, 0, 77, 88
4, 27585, Note_off_c, 0, 77, 0
4, 27600, Note_on_c, 0, 77, 88
4, 27658, Note_off_c, 0, 77, 0
4, 27660, Note_on_c, 0, 76, 88
4, 27718, Note_off_c, 0, 76, 0
4, 27720, Note_on_c, 0, 74, 88
4, 27778, Note_off_c, 0, 74, 0
4, 27780, Note_on_c, 0, 76, 88
4, 27825, Note_off_c, 0, 76, 0
4, 27840, Note_on_c, 0, 76, 88
4, 27898, Note_off_c, 0, 76, 0
4, 27900, Note_on_c, 0, 74, 88
4, 27958, Note_off_c, 0, 74, 0
4, 27960, Note_on_c, 0, 73, 88
4, 28018, Note_off_c, 0, 73, 0
4, 28020, Note_on_c, 0, 74, 88
4, 28078, Note_off_c, 0, 74, 0
4, 28080, Note_on_c, 0, 72, 88
4, 28374, Note_off_c, 0, 72, 0
4, 28380, Note_on_c, 0, 70, 88
4, 28438, Note_off_c, 0, 70, 0
4, 28440, Note_on_c, 0, 69, 88
4, 28498, Note_off_c, 0, 69, 0
4, 28500, Note_on_c, 0, 70, 88
4, 28545, Note_off_c, 0, 70, 0
4, 28560, Note_on_c, 0, 70, 88
4, 28618, Note_off_c, 0, 70, 0
4, 28620, Note_on_c, 0, 69, 88
4, 28678, Note_off_c, 0, 69, 0
4, 28680, Note_on_c, 0, 67, 88
4, 28738, Note_off_c, 0, 67, 0
4, 28740, Note_on_c, 0, 74, 88
4, 28798, Note_off_c, 0, 74, 0
4, 28800, Note_on_c, 0, 74, 88
4, 29814, Note_off_c, 0, 74, 0
4, 29820, Note_on_c, 0, 80, 88
4, 29878, Note_off_c, 0, 80, 0
4, 29880, Note_on_c, 0, 81, 88
4, 29938, Note_off_c, 0, 81, 0
4, 29940, Note_on_c, 0, 74, 88
4, 29998, Note_off_c, 0, 74, 0
4, 30000, Note_on_c, 0, 77, 88
4, 30058, Note_off_c, 0, 77, 0
4, 30060, Note_on_c, 0, 76, 88
4, 30118, Note_off_c, 0, 76, 0
4, 30120, Note_on_c, 0, 74, 88
4, 30178, Note_off_c, 0, 74, 0
4, 30180, Note_on_c, 0, 73, 88
4, 30238, Note_off_c, 0, 73, 0
4, 30240, Note_on_c, 0, 74, 88
4, 30948, Note_off_c, 0, 74, 0
4, 30960, Note_on_c, 0, 74, 88
4, 31668, Note_off_c, 0, 74, 0
4, 31668, End_track
5, 0, Start_track
5, 0, Title_t, "Track 2"
5, 0, Program_c, 1, 6
5, 1560, Note_on_c, 1, 57, 88
5, 1676, Note_off_c, 1, 57, 0
5, 1680, Note_on_c, 1, 59, 88
5, 1796, Note_off_c, 1, 59, 0
5, 1800, Note_on_c, 1, 60, 88
5, 1916, Note_off_c, 1, 60, 0
5, 1920, Note_on_c, 1, 62, 88
5, 2036, Note_off_c, 1, 62, 0
5, 2040, Note_on_c, 1, 59, 88
5, 2156, Note_off_c, 1, 59, 0
5, 2160, Note_on_c, 1, 60, 88
5, 2218, Note_off_c, 1, 60, 0
5, 2220, Note_on_c, 1, 57, 88
5, 2278, Note_off_c, 1, 57, 0
5, 2280, Note_on_c, 1, 56, 88
5, 2338, Note_off_c, 1, 56, 0
5, 2340, Note_on_c, 1, 57, 88
5, 2398, Note_off_c, 1, 57, 0
5, 2400, Note_on_c, 1, 65, 88
5, 2634, Note_off_c, 1, 65, 0
5, 2640, Note_on_c, 1, 64, 88
5, 2669, Note_off_c, 1, 64, 0
5, 2670, Note_on_c, 1, 62, 88
5, 2699, Note_off_c, 1, 62, 0
5, 2700, Note_on_c, 1, 64, 88
5, 2729, Note_off_c, 1, 64, 0
5, 2730, Note_on_c, 1, 62, 88
5, 2759, Note_off_c, 1, 62, 0
5, 2760, Note_on_c, 1, 64, 88
5, 2789, Note_off_c, 1, 64, 0
5, 2790, Note_on_c, 1, 62, 88
5, 2819, Note_off_c, 1, 62, 0
5, 2820, Note_on_c, 1, 60, 88
5, 2849, Note_off_c, 1, 60, 0
5, 2850, Note_on_c, 1, 62, 88
5, 2879, Note_off_c, 1, 62, 0
5, 2880, Note_on_c, 1, 64, 88
5, 3174, Note_off_c, 1, 64, 0
5, 3180, Note_on_c, 1, 62, 88
5, 3238, Note_off_c, 1, 62, 0
5, 3240, Note_on_c, 1, 61, 88
5, 3298, Note_off_c, 1, 61, 0
5, 3300, Note_on_c, 1, 59, 88
5, 3358, Note_off_c, 1, 59, 0
5, 3360, Note_on_c, 1, 62, 88
5, 3418, Note_off_c, 1, 62, 0
5, 3420, Note_on_c, 1, 61, 88
5, 3478, Note_off_c, 1, 61, 0
5, 3480, Note_on_c, 1, 59, 88
5, 3538, Note_off_c, 1, 59, 0
5, 3540, Note_on_c, 1, 57, 88
5, 3598, Note_off_c, 1, 57, 0
5, 3600, Note_on_c, 1, 62, 88
5, 3834, Note_off_c, 1, 62, 0
5, 4440, Note_on_c, 1, 65, 88
5, 4615, Note_off_c, 1, 65, 0
5, 4620, Note_on_c, 1, 64, 88
5, 4678, Note_off_c, 1, 64, 0
5, 4680, Note_on_c, 1, 62, 88
5, 4738, Note_off_c, 1, 62, 0
5, 4740, Note_on_c, 1, 64, 88
5, 4785, Note_off_c, 1, 64, 0
5, 4800, Note_on_c, 1, 64, 88
5, 4858, Note_off_c, 1, 64, 0
5, 4860, Note_on_c, 1, 62, 88
5, 4918, Note_off_c, 1, 62, 0
5, 4920, Note_on_c, 1, 61, 88
5, 4978, Note_off_c, 1, 61, 0
5, 4980, Note_on_c, 1, 62, 88
5, 5038, Note_off_c, 1, 62, 0
5, 5040, Note_on_c, 1, 61, 88
5, 5274, Note_off_c, 1, 61, 0
5, 5280, Note_on_c, 1, 62, 88
5, 5396, Note_off_c, 1, 62, 0
5, 5400, Note_on_c, 1, 64, 88
5, 5516, Note_off_c, 1, 64, 0
5, 5520, Note_on_c, 1, 61, 88
5, 5636, Note_off_c, 1, 61, 0
5, 5640, Note_on_c, 1, 62, 88
5, 5756, Note_off_c, 1, 62, 0
5, 5760, Note_on_c, 1, 63, 88
5, 5876, Note_off_c, 1, 63, 0
5, 5880, Note_on_c, 1, 62, 88
5, 5996, Note_off_c, 1, 62, 0
5, 6000, Note_on_c, 1, 67, 88
5, 6234, Note_off_c, 1, 67, 0
5, 6240, Note_on_c, 1, 64, 88
5, 6474, Note_off_c, 1, 64, 0
5, 6540, Note_on_c, 1, 69, 88
5, 6598, Note_off_c, 1, 69, 0
5, 6600, Note_on_c, 1, 67, 88
5, 6658, Note_off_c, 1, 67, 0
5, 6660, Note_on_c, 1, 69, 88
5, 6718, Note_off_c, 1, 69, 0
5, 6720, Note_on_c, 1, 65, 88
5, 6954, Note_off_c, 1, 65, 0
5, 6960, Note_on_c, 1, 62, 88
5, 7194, Note_off_c, 1, 62, 0
5, 7260, Note_on_c, 1, 67, 88
5, 7318, Note_off_c, 1, 67, 0
5, 7320, Note_on_c, 1, 65, 88
5, 7378, Note_off_c, 1, 65, 0
5, 7380, Note_on_c, 1, 67, 88
5, 7438, Note_off_c, 1, 67, 0
5, 7440, Note_on_c, 1, 63, 88
5, 7674, Note_off_c, 1, 63, 0
5, 7680, Note_on_c, 1, 60, 88
5, 7914, Note_off_c, 1, 60, 0
5, 8040, Note_on_c, 1, 69, 88
5, 8156, Note_off_c, 1, 69, 0
5, 8160, Note_on_c, 1, 67, 88
5, 8276, Note_off_c, 1, 67, 0
5, 8280, Note_on_c, 1, 65, 88
5, 8396, Note_off_c, 1, 65, 0
5, 8400, Note_on_c, 1, 64, 88
5, 8516, Note_off_c, 1, 64, 0
5, 8520, Note_on_c, 1, 67, 88
5, 8636, Note_off_c, 1, 67, 0
5, 8640, Note_on_c, 1, 61, 88
5, 8874, Note_off_c, 1, 61, 0
5, 8880, Note_on_c, 1, 62, 88
5, 8996, Note_off_c, 1, 62, 0
5, 9000, Note_on_c, 1, 64, 88
5, 9116, Note_off_c, 1, 64, 0
5, 9120, Note_on_c, 1, 57, 88
5, 9354, Note_off_c, 1, 57, 0
5, 9480, Note_on_c, 1, 64, 88
5, 9596, Note_off_c, 1, 64, 0
5, 9600, Note_on_c, 1, 62, 88
5, 9716, Note_off_c, 1, 62, 0
5, 9720, Note_on_c, 1, 61, 88
5, 9836, Note_off_c, 1, 61, 0
5, 9840, Note_on_c, 1, 59, 88
5, 9956, Note_off_c, 1, 59, 0
5, 9960, Note_on_c, 1, 62, 88
5, 10076, Note_off_c, 1, 62, 0
5, 10080, Note_on_c, 1, 61, 88
5, 10138, Note_off_c, 1, 61, 0
5, 10140, Note_on_c, 1, 64, 88
5, 10198, Note_off_c, 1, 64, 0
5, 10200, Note_on_c, 1, 65, 88
5, 10258, Note_off_c, 1, 65, 0
5, 10260, Note_on_c, 1, 64, 88
5, 10318, Note_off_c, 1, 64, 0
5, 10320, Note_on_c, 1, 57, 88
5, 10554, Note_off_c, 1, 57, 0
5, 10560, Note_on_c, 1, 60, 88
5, 10794, Note_off_c, 1, 60, 0
5, 10800, Note_on_c, 1, 58, 88
5, 10858, Note_off_c, 1, 58, 0
5, 10860, Note_on_c, 1, 62, 88
5, 10918, Note_off_c, 1, 62, 0
5, 10920, Note_on_c, 1, 63, 88
5, 10978, Note_off_c, 1, 63, 0
5, 10980, Note_on_c, 1, 62, 88
5, 11038, Note_off_c, 1, 62, 0
5, 11040, Note_on_c, 1, 59, 88
5, 11274, Note_off_c, 1, 59, 0
5, 11280, Note_on_c, 1, 64, 88
5, 11636, Note_off_c, 1, 64, 0
5, 12360, Note_on_c, 1, 57, 88
5, 12476, Note_off_c, 1, 57, 0
5, 12480, Note_on_c, 1, 59, 88
5, 12596, Note_off_c, 1, 59, 0
5, 12600, Note_on_c, 1, 61, 88
5, 12716, Note_off_c, 1, 61, 0
5, 12720, Note_on_c, 1, 62, 88
5, 12836, Note_off_c, 1, 62, 0
5, 12840, Note_on_c, 1, 59, 88
5, 12956, Note_off_c, 1, 59, 0
5, 12960, Note_on_c, 1, 60, 88
5, 13018, Note_off_c, 1, 60, 0
5, 13020, Note_on_c, 1, 57, 88
5, 13078, Note_off_c, 1, 57, 0
5, 13080, Note_on_c, 1, 56, 88
5, 13138, Note_off_c, 1, 56, 0
5, 13140, Note_on_c, 1, 57, 88
5, 13198, Note_off_c, 1, 57, 0
5, 13200, Note_on_c, 1, 65, 88
5, 13434, Note_off_c, 1, 65, 0
5, 13440, Note_on_c, 1, 64, 88
5, 13469, Note_off_c, 1, 64, 0
5, 13470, Note_on_c, 1, 62, 88
5, 13499, Note_off_c, 1, 62, 0
5, 13500, Note_on_c, 1, 64, 88
5, 13529, Note_off_c, 1, 64, 0
5, 13530, Note_on_c, 1, 62, 88
5, 13559, Note_off_c, 1, 62, 0
5, 13560, Note_on_c, 1, 64, 88
5, 13589, Note_off_c, 1, 64, 0
5, 13590, Note_on_c, 1, 62, 88
5, 13619, Note_off_c, 1, 62, 0
5, 13620, Note_on_c, 1, 60, 88
5, 13649, Note_off_c, 1, 60, 0
5, 13650, Note_on_c, 1, 62, 88
5, 13679, Note_off_c, 1, 62, 0
5, 13680, Note_on_c, 1, 64, 88
5, 13796, Note_off_c, 1, 64, 0
5, 13800, Note_on_c, 1, 65, 88
5, 13916, Note_off_c, 1, 65, 0
5, 13920, Note_on_c, 1, 60, 88
5, 13949, Note_off_c, 1, 60, 0
5, 13950, Note_on_c, 1, 59, 88
5, 13979, Note_off_c, 1, 59, 0
5, 13980, Note_on_c, 1, 60, 88
5, 14009, Note_off_c, 1, 60, 0
5, 14010, Note_on_c, 1, 59, 88
5, 14039, Note_off_c, 1, 59, 0
5, 14040, Note_on_c, 1, 60, 88
5, 14069, Note_off_c, 1, 60, 0
5, 14070, Note_on_c, 1, 59, 88
5, 14099, Note_off_c, 1, 59, 0
5, 14100, Note_on_c, 1, 60, 88
5, 14129, Note_off_c, 1, 60, 0
5, 14130, Note_on_c, 1, 59, 88
5, 14159, Note_off_c, 1, 59, 0
5, 14160, Note_on_c, 1, 60, 88
5, 14189, Note_off_c, 1, 60, 0
5, 14190, Note_on_c, 1, 59, 88
5, 14212, Note_off_c, 1, 59, 0
5, 14213, Note_on_c, 1, 60, 88
5, 14234, Note_off_c, 1, 60, 0
5, 14235, Note_on_c, 1, 59, 88
5, 14257, Note_off_c, 1, 59, 0
5, 14258, Note_on_c, 1, 60, 88
5, 14279, Note_off_c, 1, 60, 0
5, 14280, Note_on_c, 1, 59, 88
5, 14302, Note_off_c, 1, 59, 0
5, 14303, Note_on_c, 1, 60, 88
5, 14324, Note_off_c, 1, 60, 0
5, 14325, Note_on_c, 1, 59, 88
5, 14347, Note_off_c, 1, 59, 0
5, 14348, Note_on_c, 1, 60, 88
5, 14369, Note_off_c, 1, 60, 0
5, 14370, Note_on_c, 1, 59, 88
5, 14399, Note_off_c, 1, 59, 0
5, 14400, Note_on_c, 1, 57, 88
5, 14634, Note_off_c, 1, 57, 0
5, 17400, Note_on_c, 1, 62, 88
5, 17516, Note_off_c, 1, 62, 0
5, 17520, Note_on_c, 1, 60, 88
5, 17636, Note_off_c, 1, 60, 0
5, 17640, Note_on_c, 1, 58, 88
5, 17756, Note_off_c, 1, 58, 0
5, 17760, Note_on_c, 1, 57, 88
5, 17876, Note_off_c, 1, 57, 0
5, 17880, Note_on_c, 1, 60, 88
5, 17996, Note_off_c, 1, 60, 0
5, 18000, Note_on_c, 1, 58, 88
5, 18234, Note_off_c, 1, 58, 0
5, 18240, Note_on_c, 1, 62, 88
5, 18710, Note_off_c, 1, 62, 0
5, 18720, Note_on_c, 1, 55, 88
5, 18954, Note_off_c, 1, 55, 0
5, 19560, Note_on_c, 1, 62, 88
5, 19676, Note_off_c, 1, 62, 0
5, 19680, Note_on_c, 1, 64, 88
5, 19796, Note_off_c, 1, 64, 0
5, 19800, Note_on_c, 1, 65, 88
5, 19916, Note_off_c, 1, 65, 0
5, 19920, Note_on_c, 1, 67, 88
5, 20036, Note_off_c, 1, 67, 0
5, 20040, Note_on_c, 1, 64, 88
5, 20156, Note_off_c, 1, 64, 0
5, 20160, Note_on_c, 1, 65, 88
5, 20218, Note_off_c, 1, 65, 0
5, 20220, Note_on_c, 1, 62, 88
5, 20278, Note_off_c, 1, 62, 0
5, 20280, Note_on_c, 1, 61, 88
5, 20338, Note_off_c, 1, 61, 0
5, 20340, Note_on_c, 1, 62, 88
5, 20398, Note_off_c, 1, 62, 0
5, 20400, Note_on_c, 1, 70, 88
5, 20634, Note_off_c, 1, 70, 0
5, 20640, Note_on_c, 1, 69, 88
5, 20669, Note_off_c, 1, 69, 0
5, 20670, Note_on_c, 1, 67, 88
5, 20699, Note_off_c, 1, 67, 0
5, 20700, Note_on_c, 1, 69, 88
5, 20729, Note_off_c, 1, 69, 0
5, 20730, Note_on_c, 1, 67, 88
5, 20759, Note_off_c, 1, 67, 0
5, 20760, Note_on_c, 1, 69, 88
5, 20789, Note_off_c, 1, 69, 0
5, 20790, Note_on_c, 1, 67, 88
5, 20819, Note_off_c, 1, 67, 0
5, 20820, Note_on_c, 1, 69, 88
5, 20849, Note_off_c, 1, 69, 0
5, 20850, Note_on_c, 1, 67, 88
5, 20879, Note_off_c, 1, 67, 0
5, 20880, Note_on_c, 1, 69, 88
5, 21114, Note_off_c, 1, 69, 0
5, 21120, Note_on_c, 1, 54, 88
5, 21354, Note_off_c, 1, 54, 0
5, 21360, Note_on_c, 1, 57, 88
5, 21594, Note_off_c, 1, 57, 0
5, 21660, Note_on_c, 1, 55, 88
5, 21718, Note_off_c, 1, 55, 0
5, 21720, Note_on_c, 1, 54, 88
5, 21778, Note_off_c, 1, 54, 0
5, 21780, Note_on_c, 1, 55, 88
5, 21838, Note_off_c, 1, 55, 0
5, 21840, Note_on_c, 1, 52, 88
5, 22074, Note_off_c, 1, 52, 0
5, 22080, Note_on_c, 1, 55, 88
5, 22314, Note_off_c, 1, 55, 0
5, 22380, Note_on_c, 1, 53, 88
5, 22438, Note_off_c, 1, 53, 0
5, 22440, Note_on_c, 1, 52, 88
5, 22498, Note_off_c, 1, 52, 0
5, 22500, Note_on_c, 1, 53, 88
5, 22558, Note_off_c, 1, 53, 0
5, 22560, Note_on_c, 1, 50, 88
5, 22794, Note_off_c, 1, 50, 0
5, 22800, Note_on_c, 1, 53, 88
5, 23034, Note_off_c, 1, 53, 0
5, 23160, Note_on_c, 1, 53, 88
5, 23276, Note_off_c, 1, 53, 0
5, 23280, Note_on_c, 1, 55, 88
5, 23396, Note_off_c, 1, 55, 0
5, 23400, Note_on_c, 1, 57, 88
5, 23516, Note_off_c, 1, 57, 0
5, 23520, Note_on_c, 1, 58, 88
5, 23636, Note_off_c, 1, 58, 0
5, 23640, Note_on_c, 1, 55, 88
5, 23756, Note_off_c, 1, 55, 0
5, 23760, Note_on_c, 1, 57, 88
5, 23876, Note_off_c, 1, 57, 0
5, 23880, Note_on_c, 1, 53, 88
5, 23996, Note_off_c, 1, 53, 0
5, 24000, Note_on_c, 1, 55, 88
5, 24116, Note_off_c, 1, 55, 0
5, 24120, Note_on_c, 1, 57, 88
5, 24236, Note_off_c, 1, 57, 0
5, 24240, Note_on_c, 1, 55, 88
5, 24474, Note_off_c, 1, 55, 0
5, 24600, Note_on_c, 1, 57, 88
5, 24716, Note_off_c, 1, 57, 0
5, 24720, Note_on_c, 1, 55, 88
5, 24836, Note_off_c, 1, 55, 0
5, 24840, Note_on_c, 1, 54, 88
5, 24956, Note_off_c, 1, 54, 0
5, 24960, Note_on_c, 1, 52, 88
5, 25076, Note_off_c, 1, 52, 0
5, 25080, Note_on_c, 1, 55, 88
5, 25196, Note_off_c, 1, 55, 0
5, 25200, Note_on_c, 1, 54, 88
5, 25316, Note_off_c, 1, 54, 0
5, 25320, Note_on_c, 1, 58, 88
5, 25436, Note_off_c, 1, 58, 0
5, 25440, Note_on_c, 1, 57, 88
5, 25556, Note_off_c, 1, 57, 0
5, 25560, Note_on_c, 1, 55, 88
5, 25676, Note_off_c, 1, 55, 0
5, 25680, Note_on_c, 1, 54, 88
5, 25796, Note_off_c, 1, 54, 0
5, 25800, Note_on_c, 1, 57, 88
5, 25916, Note_off_c, 1, 57, 0
5, 25920, Note_on_c, 1, 55, 88
5, 26036, Note_off_c, 1, 55, 0
5, 26040, Note_on_c, 1, 60, 88
5, 26156, Note_off_c, 1, 60, 0
5, 26160, Note_on_c, 1, 59, 88
5, 26276, Note_off_c, 1, 59, 0
5, 26280, Note_on_c, 1, 57, 88
5, 26396, Note_off_c, 1, 57, 0
5, 26400, Note_on_c, 1, 56, 88
5, 26516, Note_off_c, 1, 56, 0
5, 26520, Note_on_c, 1, 59, 88
5, 26636, Note_off_c, 1, 59, 0
5, 26640, Note_on_c, 1, 57, 88
5, 26756, Note_off_c, 1, 57, 0
5, 26760, Note_on_c, 1, 65, 88
5, 26876, Note_off_c, 1, 65, 0
5, 26880, Note_on_c, 1, 64, 88
5, 26996, Note_off_c, 1, 64, 0
5, 27000, Note_on_c, 1, 62, 88
5, 27116, Note_off_c, 1, 62, 0
5, 27120, Note_on_c, 1, 61, 88
5, 27236, Note_off_c, 1, 61, 0
5, 27240, Note_on_c, 1, 64, 88
5, 27356, Note_off_c, 1, 64, 0
5, 27360, Note_on_c, 1, 62, 88
5, 27476, Note_off_c, 1, 62, 0
5, 28200, Note_on_c, 1, 62, 88
5, 28316, Note_off_c, 1, 62, 0
5, 28320, Note_on_c, 1, 64, 88
5, 28436, Note_off_c, 1, 64, 0
5, 28440, Note_on_c, 1, 66, 88
5, 28556, Note_off_c, 1, 66, 0
5, 28560, Note_on_c, 1, 67, 88
5, 28676, Note_off_c, 1, 67, 0
5, 28680, Note_on_c, 1, 64, 88
5, 28796, Note_off_c, 1, 64, 0
5, 28800, Note_on_c, 1, 65, 88
5, 28858, Note_off_c, 1, 65, 0
5, 28860, Note_on_c, 1, 62, 88
5, 28918, Note_off_c, 1, 62, 0
5, 28920, Note_on_c, 1, 61, 88
5, 28978, Note_off_c, 1, 61, 0
5, 28980, Note_on_c, 1, 62, 88
5, 29038, Note_off_c, 1, 62, 0
5, 29040, Note_on_c, 1, 70, 88
5, 29274, Note_off_c, 1, 70, 0
5, 29280, Note_on_c, 1, 69, 88
5, 29309, Note_off_c, 1, 69, 0
5, 29310, Note_on_c, 1, 67, 88
5, 29339, Note_off_c, 1, 67, 0
5, 29340, Note_on_c, 1, 69, 88
5, 29369, Note_off_c, 1, 69, 0
5, 29370, Note_on_c, 1, 67, 88
5, 29399, Note_off_c, 1, 67, 0
5, 29400, Note_on_c, 1, 69, 88
5, 29429, Note_off_c, 1, 69, 0
5, 29430, Note_on_c, 1, 67, 88
5, 29459, Note_off_c, 1, 67, 0
5, 29460, Note_on_c, 1, 65, 88
5, 29489, Note_off_c, 1, 65, 0
5, 29490, Note_on_c, 1, 67, 88
5, 29519, Note_off_c, 1, 67, 0
5, 29520, Note_on_c, 1, 69, 88
5, 29636, Note_off_c, 1, 69, 0
5, 29640, Note_on_c, 1, 70, 88
5, 29756, Note_off_c, 1, 70, 0
5, 29760, Note_on_c, 1, 65, 88
5, 29789, Note_off_c, 1, 65, 0
5, 29790, Note_on_c, 1, 64, 88
5, 29819, Note_off_c, 1, 64, 0
5, 29820, Note_on_c, 1, 65, 88
5, 29849, Note_off_c, 1, 65, 0
5, 29850, Note_on_c, 1, 64, 88
5, 29879, Note_off_c, 1, 64, 0
5, 29880, Note_on_c, 1, 65, 88
5, 29909, Note_off_c, 1, 65, 0
5, 29910, Note_on_c, 1, 64, 88
5, 29939, Note_off_c, 1, 64, 0
5, 29940, Note_on_c, 1, 65, 88
5, 29969, Note_off_c, 1, 65, 0
5, 29970, Note_on_c, 1, 64, 88
5, 29999, Note_off_c, 1, 64, 0
5, 30000, Note_on_c, 1, 65, 88
5, 30029, Note_off_c, 1, 65, 0
5, 30030, Note_on_c, 1, 64, 88
5, 30052, Note_off_c, 1, 64, 0
5, 30053, Note_on_c, 1, 65, 88
5, 30074, Note_off_c, 1, 65, 0
5, 30075, Note_on_c, 1, 64, 88
5, 30097, Note_off_c, 1, 64, 0
5, 30098, Note_on_c, 1, 65, 88
5, 30119, Note_off_c, 1, 65, 0
5, 30120, Note_on_c, 1, 64, 88
5, 30142, Note_off_c, 1, 64, 0
5, 30143, Note_on_c, 1, 65, 88
5, 30164, Note_off_c, 1, 65, 0
5, 30165, Note_on_c, 1, 64, 88
5, 30187, Note_off_c, 1, 64, 0
5, 30188, Note_on_c, 1, 65, 88
5, 30209, Note_off_c, 1, 65, 0
5, 30210, Note_on_c, 1, 64, 88
5, 30239, Note_off_c, 1, 64, 0
5, 30360, Note_on_c, 1, 69, 88
5, 30360, Note_on_c, 1, 72, 88
5, 30476, Note_off_c, 1, 69, 0
5, 30476, Note_off_c, 1, 72, 0
5, 30480, Note_on_c, 1, 67, 88
5, 30480, Note_on_c, 1, 70, 88
5, 30596, Note_off_c, 1, 67, 0
5, 30596, Note_off_c, 1, 70, 0
5, 30600, Note_on_c, 1, 66, 88
5, 30600, Note_on_c, 1, 69, 88
5, 30716, Note_off_c, 1, 66, 0
5, 30716, Note_off_c, 1, 69, 0
5, 30720, Note_on_c, 1, 64, 88
5, 30720, Note_on_c, 1, 67, 88
5, 30825, Note_off_c, 1, 67, 0
5, 30836, Note_off_c, 1, 64, 0
5, 30840, Note_on_c, 1, 67, 88
5, 30840, Note_on_c, 1, 70, 88
5, 30956, Note_off_c, 1, 67, 0
5, 30956, Note_off_c, 1, 70, 0
5, 30960, Note_on_c, 1, 66, 88
5, 30960, Note_on_c, 1, 69, 88
5, 31668, Note_off_c, 1, 66, 0
5, 31668, Note_off_c, 1, 69, 0
5, 31668, End_track
6, 0, Start_track
6, 0, Title_t, "Track 3"
6, 0, Program_c, 2, 6
6, 30360, Note_on_c, 2, 50, 88
6, 30360, Note_on_c, 2, 54, 88
6, 30476, Note_off_c, 2, 50, 0
6, 30476, Note_off_c, 2, 54, 0
6, 30480, Note_on_c, 2, 52, 88
6, 30480, Note_on_c, 2, 55, 88
6, 30596, Note_off_c, 2, 52, 0
6, 30596, Note_off_c, 2, 55, 0
6, 30600, Note_on_c, 2, 54, 88
6, 30600, Note_on_c, 2, 57, 88
6, 30716, Note_off_c, 2, 54, 0
6, 30716, Note_off_c, 2, 57, 0
6, 30720, Note_on_c, 2, 55, 88
6, 30720, Note_on_c, 2, 58, 88
6, 30825, Note_off_c, 2, 55, 0
6, 30836, Note_off_c, 2, 58, 0
6, 30840, Note_on_c, 2, 52, 88
6, 30840, Note_on_c, 2, 55, 88
6, 30956, Note_off_c, 2, 52, 0
6, 30956, Note_off_c, 2, 55, 0
6, 30960, Note_on_c, 2, 54, 88
6, 30960, Note_on_c, 2, 57, 88
6, 31668, Note_off_c, 2, 54, 0
6, 31668, Note_off_c, 2, 57, 0
6, 31668, End_track
7, 0, Start_track
7, 0, Title_t, "Track 4"
7, 0, Program_c, 3, 6
7, 3720, Note_on_c, 3, 50, 88
7, 3836, Note_off_c, 3, 50, 0
7, 3840, Note_on_c, 3, 52, 88
7, 3956, Note_off_c, 3, 52, 0
7, 3960, Note_on_c, 3, 53, 88
7, 4076, Note_off_c, 3, 53, 0
7, 4080, Note_on_c, 3, 55, 88
7, 4196, Note_off_c, 3, 55, 0
7, 4200, Note_on_c, 3, 52, 88
7, 4316, Note_off_c, 3, 52, 0
7, 4320, Note_on_c, 3, 53, 88
7, 4378, Note_off_c, 3, 53, 0
7, 4380, Note_on_c, 3, 50, 88
7, 4438, Note_off_c, 3, 50, 0
7, 4440, Note_on_c, 3, 49, 88
7, 4498, Note_off_c, 3, 49, 0
7, 4500, Note_on_c, 3, 50, 88
7, 4558, Note_off_c, 3, 50, 0
7, 4560, Note_on_c, 3, 58, 88
7, 4794, Note_off_c, 3, 58, 0
7, 4800, Note_on_c, 3, 57, 88
7, 4836, Note_off_c, 3, 57, 0
7, 4838, Note_on_c, 3, 55, 88
7, 4867, Note_off_c, 3, 55, 0
7, 4868, Note_on_c, 3, 57, 88
7, 4897, Note_off_c, 3, 57, 0
7, 4898, Note_on_c, 3, 55, 88
7, 4927, Note_off_c, 3, 55, 0
7, 4928, Note_on_c, 3, 57, 88
7, 4957, Note_off_c, 3, 57, 0
7, 4958, Note_on_c, 3, 55, 88
7, 4987, Note_off_c, 3, 55, 0
7, 4988, Note_on_c, 3, 53, 88
7, 5009, Note_off_c, 3, 53, 0
7, 5010, Note_on_c, 3, 55, 88
7, 5039, Note_off_c, 3, 55, 0
7, 5040, Note_on_c, 3, 57, 88
7, 5334, Note_off_c, 3, 57, 0
7, 5340, Note_on_c, 3, 55, 88
7, 5398, Note_off_c, 3, 55, 0
7, 5400, Note_on_c, 3, 53, 88
7, 5458, Note_off_c, 3, 53, 0
7, 5460, Note_on_c, 3, 52, 88
7, 5518, Note_off_c, 3, 52, 0
7, 5520, Note_on_c, 3, 55, 88
7, 5578, Note_off_c, 3, 55, 0
7, 5580, Note_on_c, 3, 53, 88
7, 5638, Note_off_c, 3, 53, 0
7, 5640, Note_on_c, 3, 52, 88
7, 5698, Note_off_c, 3, 52, 0
7, 5700, Note_on_c, 3, 50, 88
7, 5758, Note_off_c, 3, 50, 0
7, 5760, Note_on_c, 3, 55, 88
7, 5876, Note_off_c, 3, 55, 0
7, 5880, Note_on_c, 3, 58, 88
7, 6055, Note_off_c, 3, 58, 0
7, 6060, Note_on_c, 3, 57, 88
7, 6118, Note_off_c, 3, 57, 0
7, 6120, Note_on_c, 3, 55, 88
7, 6178, Note_off_c, 3, 55, 0
7, 6180, Note_on_c, 3, 57, 88
7, 6225, Note_off_c, 3, 57, 0
7, 6240, Note_on_c, 3, 57, 88
7, 6298, Note_off_c, 3, 57, 0
7, 6300, Note_on_c, 3, 55, 88
7, 6358, Note_off_c, 3, 55, 0
7, 6360, Note_on_c, 3, 53, 88
7, 6418, Note_off_c, 3, 53, 0
7, 6420, Note_on_c, 3, 55, 88
7, 6478, Note_off_c, 3, 55, 0
7, 6480, Note_on_c, 3, 55, 88
7, 6538, Note_off_c, 3, 55, 0
7, 6540, Note_on_c, 3, 53, 88
7, 6598, Note_off_c, 3, 53, 0
7, 6600, Note_on_c, 3, 52, 88
7, 6658, Note_off_c, 3, 52, 0
7, 6660, Note_on_c, 3, 53, 88
7, 6718, Note_off_c, 3, 53, 0
7, 6720, Note_on_c, 3, 57, 88
7, 6778, Note_off_c, 3, 57, 0
7, 6780, Note_on_c, 3, 55, 88
7, 6838, Note_off_c, 3, 55, 0
7, 6840, Note_on_c, 3, 53, 88
7, 6898, Note_off_c, 3, 53, 0
7, 6900, Note_on_c, 3, 55, 88
7, 6945, Note_off_c, 3, 55, 0
7, 6960, Note_on_c, 3, 55, 88
7, 7018, Note_off_c, 3, 55, 0
7, 7020, Note_on_c, 3, 53, 88
7, 7078, Note_off_c, 3, 53, 0
7, 7080, Note_on_c, 3, 52, 88
7, 7138, Note_off_c, 3, 52, 0
7, 7140, Note_on_c, 3, 53, 88
7, 7198, Note_off_c, 3, 53, 0
7, 7200, Note_on_c, 3, 53, 88
7, 7258, Note_off_c, 3, 53, 0
7, 7260, Note_on_c, 3, 52, 88
7, 7318, Note_off_c, 3, 52, 0
7, 7320, Note_on_c, 3, 50, 88
7, 7378, Note_off_c, 3, 50, 0
7, 7380, Note_on_c, 3, 52, 88
7, 7438, Note_off_c, 3, 52, 0
7, 7440, Note_on_c, 3, 55, 88
7, 7498, Note_off_c, 3, 55, 0
7, 7500, Note_on_c, 3, 53, 88
7, 7558, Note_off_c, 3, 53, 0
7, 7560, Note_on_c, 3, 51, 88
7, 7618, Note_off_c, 3, 51, 0
7, 7620, Note_on_c, 3, 53, 88
7, 7665, Note_off_c, 3, 53, 0
7, 7680, Note_on_c, 3, 53, 88
7, 7738, Note_off_c, 3, 53, 0
7, 7740, Note_on_c, 3, 51, 88
7, 7798, Note_off_c, 3, 51, 0
7, 7800, Note_on_c, 3, 50, 88
7, 7858, Note_off_c, 3, 50, 0
7, 7860, Note_on_c, 3, 51, 88
7, 7918, Note_off_c, 3, 51, 0
7, 7920, Note_on_c, 3, 51, 88
7, 7978, Note_off_c, 3, 51, 0
7, 7980, Note_on_c, 3, 50, 88
7, 8038, Note_off_c, 3, 50, 0
7, 8040, Note_on_c, 3, 49, 88
7, 8098, Note_off_c, 3, 49, 0
7, 8100, Note_on_c, 3, 50, 88
7, 8158, Note_off_c, 3, 50, 0
7, 8160, Note_on_c, 3, 58, 88
7, 8394, Note_off_c, 3, 58, 0
7, 8400, Note_on_c, 3, 57, 88
7, 8436, Note_off_c, 3, 57, 0
7, 8438, Note_on_c, 3, 55, 88
7, 8467, Note_off_c, 3, 55, 0
7, 8468, Note_on_c, 3, 57, 88
7, 8497, Note_off_c, 3, 57, 0
7, 8498, Note_on_c, 3, 55, 88
7, 8527, Note_off_c, 3, 55, 0
7, 8528, Note_on_c, 3, 57, 88
7, 8557, Note_off_c, 3, 57, 0
7, 8558, Note_on_c, 3, 55, 88
7, 8587, Note_off_c, 3, 55, 0
7, 8588, Note_on_c, 3, 53, 88
7, 8609, Note_off_c, 3, 53, 0
7, 8610, Note_on_c, 3, 55, 88
7, 8639, Note_off_c, 3, 55, 0
7, 8640, Note_on_c, 3, 57, 88
7, 8934, Note_off_c, 3, 57, 0
7, 8940, Note_on_c, 3, 55, 88
7, 8998, Note_off_c, 3, 55, 0
7, 9000, Note_on_c, 3, 53, 88
7, 9058, Note_off_c, 3, 53, 0
7, 9060, Note_on_c, 3, 52, 88
7, 9118, Note_off_c, 3, 52, 0
7, 9120, Note_on_c, 3, 55, 88
7, 9178, Note_off_c, 3, 55, 0
7, 9180, Note_on_c, 3, 53, 88
7, 9238, Note_off_c, 3, 53, 0
7, 9240, Note_on_c, 3, 52, 88
7, 9298, Note_off_c, 3, 52, 0
7, 9300, Note_on_c, 3, 50, 88
7, 9358, Note_off_c, 3, 50, 0
7, 9360, Note_on_c, 3, 52, 88
7, 9476, Note_off_c, 3, 52, 0
7, 9480, Note_on_c, 3, 49, 88
7, 9596, Note_off_c, 3, 49, 0
7, 9600, Note_on_c, 3, 50, 88
7, 9716, Note_off_c, 3, 50, 0
7, 9720, Note_on_c, 3, 52, 88
7, 9836, Note_off_c, 3, 52, 0
7, 9840, Note_on_c, 3, 53, 88
7, 9956, Note_off_c, 3, 53, 0
7, 9960, Note_on_c, 3, 50, 88
7, 10076, Note_off_c, 3, 50, 0
7, 10080, Note_on_c, 3, 57, 88
7, 10314, Note_off_c, 3, 57, 0
7, 10320, Note_on_c, 3, 54, 88
7, 10436, Note_off_c, 3, 54, 0
7, 10440, Note_on_c, 3, 52, 88
7, 10556, Note_off_c, 3, 52, 0
7, 10560, Note_on_c, 3, 50, 88
7, 10676, Note_off_c, 3, 50, 0
7, 10680, Note_on_c, 3, 54, 88
7, 10796, Note_off_c, 3, 54, 0
7, 10800, Note_on_c, 3, 55, 88
7, 11034, Note_off_c, 3, 55, 0
7, 11040, Note_on_c, 3, 56, 88
7, 11156, Note_off_c, 3, 56, 0
7, 11160, Note_on_c, 3, 54, 88
7, 11276, Note_off_c, 3, 54, 0
7, 11280, Note_on_c, 3, 52, 88
7, 11396, Note_off_c, 3, 52, 0
7, 11400, Note_on_c, 3, 56, 88
7, 11516, Note_off_c, 3, 56, 0
7, 11520, Note_on_c, 3, 57, 88
7, 11636, Note_off_c, 3, 57, 0
7, 11640, Note_on_c, 3, 45, 88
7, 11756, Note_off_c, 3, 45, 0
7, 11760, Note_on_c, 3, 47, 88
7, 11876, Note_off_c, 3, 47, 0
7, 11880, Note_on_c, 3, 48, 88
7, 11996, Note_off_c, 3, 48, 0
7, 12000, Note_on_c, 3, 50, 88
7, 12116, Note_off_c, 3, 50, 0
7, 12120, Note_on_c, 3, 47, 88
7, 12236, Note_off_c, 3, 47, 0
7, 12240, Note_on_c, 3, 49, 88
7, 12298, Note_off_c, 3, 49, 0
7, 12300, Note_on_c, 3, 45, 88
7, 12358, Note_off_c, 3, 45, 0
7, 12360, Note_on_c, 3, 44, 88
7, 12418, Note_off_c, 3, 44, 0
7, 12420, Note_on_c, 3, 45, 88
7, 12478, Note_off_c, 3, 45, 0
7, 12480, Note_on_c, 3, 53, 88
7, 12714, Note_off_c, 3, 53, 0
7, 12720, Note_on_c, 3, 52, 88
7, 12756, Note_off_c, 3, 52, 0
7, 12758, Note_on_c, 3, 50, 88
7, 12787, Note_off_c, 3, 50, 0
7, 12788, Note_on_c, 3, 52, 88
7, 12817, Note_off_c, 3, 52, 0
7, 12818, Note_on_c, 3, 50, 88
7, 12847, Note_off_c, 3, 50, 0
7, 12848, Note_on_c, 3, 52, 88
7, 12877, Note_off_c, 3, 52, 0
7, 12878, Note_on_c, 3, 50, 88
7, 12907, Note_off_c, 3, 50, 0
7, 12908, Note_on_c, 3, 48, 88
7, 12929, Note_off_c, 3, 48, 0
7, 12930, Note_on_c, 3, 50, 88
7, 12959, Note_off_c, 3, 50, 0
7, 12960, Note_on_c, 3, 52, 88
7, 13076, Note_off_c, 3, 52, 0
7, 13080, Note_on_c, 3, 53, 88
7, 13196, Note_off_c, 3, 53, 0
7, 13200, Note_on_c, 3, 52, 88
7, 13258, Note_off_c, 3, 52, 0
7, 13260, Note_on_c, 3, 50, 88
7, 13318, Note_off_c, 3, 50, 0
7, 13320, Note_on_c, 3, 48, 88
7, 13378, Note_off_c, 3, 48, 0
7, 13380, Note_on_c, 3, 50, 88
7, 13425, Note_off_c, 3, 50, 0
7, 13440, Note_on_c, 3, 50, 88
7, 13498, Note_off_c, 3, 50, 0
7, 13500, Note_on_c, 3, 48, 88
7, 13558, Note_off_c, 3, 48, 0
7, 13560, Note_on_c, 3, 47, 88
7, 13618, Note_off_c, 3, 47, 0
7, 13620, Note_on_c, 3, 48, 88
7, 13678, Note_off_c, 3, 48, 0
7, 13680, Note_on_c, 3, 48, 88
7, 13796, Note_off_c, 3, 48, 0
7, 13800, Note_on_c, 3, 50, 88
7, 13916, Note_off_c, 3, 50, 0
7, 13920, Note_on_c, 3, 52, 88
7, 14036, Note_off_c, 3, 52, 0
7, 14040, Note_on_c, 3, 50, 88
7, 14156, Note_off_c, 3, 50, 0
7, 14160, Note_on_c, 3, 52, 88
7, 14394, Note_off_c, 3, 52, 0
7, 14400, Note_on_c, 3, 57, 88
7, 14516, Note_off_c, 3, 57, 0
7, 14520, Note_on_c, 3, 45, 88
7, 14636, Note_off_c, 3, 45, 0
7, 14640, Note_on_c, 3, 47, 88
7, 14756, Note_off_c, 3, 47, 0
7, 14760, Note_on_c, 3, 49, 88
7, 14876, Note_off_c, 3, 49, 0
7, 14880, Note_on_c, 3, 50, 88
7, 14996, Note_off_c, 3, 50, 0
7, 15000, Note_on_c, 3, 47, 88
7, 15116, Note_off_c, 3, 47, 0
7, 15120, Note_on_c, 3, 49, 88
7, 15178, Note_off_c, 3, 49, 0
7, 15180, Note_on_c, 3, 45, 88
7, 15238, Note_off_c, 3, 45, 0
7, 15240, Note_on_c, 3, 44, 88
7, 15298, Note_off_c, 3, 44, 0
7, 15300, Note_on_c, 3, 45, 88
7, 15358, Note_off_c, 3, 45, 0
7, 15360, Note_on_c, 3, 53, 88
7, 15594, Note_off_c, 3, 53, 0
7, 15600, Note_on_c, 3, 52, 88
7, 15629, Note_off_c, 3, 52, 0
7, 15630, Note_on_c, 3, 50, 88
7, 15659, Note_off_c, 3, 50, 0
7, 15660, Note_on_c, 3, 52, 88
7, 15689, Note_off_c, 3, 52, 0
7, 15690, Note_on_c, 3, 50, 88
7, 15836, Note_off_c, 3, 50, 0
7, 15840, Note_on_c, 3, 57, 88
7, 15956, Note_off_c, 3, 57, 0
7, 15960, Note_on_c, 3, 53, 88
7, 16076, Note_off_c, 3, 53, 0
7, 16080, Note_on_c, 3, 52, 88
7, 16196, Note_off_c, 3, 52, 0
7, 16200, Note_on_c, 3, 50, 88
7, 16316, Note_off_c, 3, 50, 0
7, 16320, Note_on_c, 3, 49, 88
7, 16436, Note_off_c, 3, 49, 0
7, 16440, Note_on_c, 3, 52, 88
7, 16556, Note_off_c, 3, 52, 0
7, 16560, Note_on_c, 3, 50, 88
7, 16618, Note_off_c, 3, 50, 0
7, 16620, Note_on_c, 3, 53, 88
7, 16678, Note_off_c, 3, 53, 0
7, 16680, Note_on_c, 3, 55, 88
7, 16738, Note_off_c, 3, 55, 0
7, 16740, Note_on_c, 3, 53, 88
7, 16798, Note_off_c, 3, 53, 0
7, 16800, Note_on_c, 3, 45, 88
7, 17034, Note_off_c, 3, 45, 0
7, 17040, Note_on_c, 3, 50, 88
7, 17076, Note_off_c, 3, 50, 0
7, 17078, Note_on_c, 3, 49, 88
7, 17107, Note_off_c, 3, 49, 0
7, 17108, Note_on_c, 3, 50, 88
7, 17137, Note_off_c, 3, 50, 0
7, 17138, Note_on_c, 3, 49, 88
7, 17167, Note_off_c, 3, 49, 0
7, 17168, Note_on_c, 3, 50, 88
7, 17197, Note_off_c, 3, 50, 0
7, 17198, Note_on_c, 3, 49, 88
7, 17227, Note_off_c, 3, 49, 0
7, 17228, Note_on_c, 3, 47, 88
7, 17249, Note_off_c, 3, 47, 0
7, 17250, Note_on_c, 3, 49, 88
7, 17279, Note_off_c, 3, 49, 0
7, 17280, Note_on_c, 3, 50, 88
7, 17988, Note_off_c, 3, 50, 0
7, 18120, Note_on_c, 3, 55, 88
7, 18236, Note_off_c, 3, 55, 0
7, 18240, Note_on_c, 3, 54, 88
7, 18356, Note_off_c, 3, 54, 0
7, 18360, Note_on_c, 3, 52, 88
7, 18476, Note_off_c, 3, 52, 0
7, 18480, Note_on_c, 3, 50, 88
7, 18596, Note_off_c, 3, 50, 0
7, 18600, Note_on_c, 3, 53, 88
7, 18716, Note_off_c, 3, 53, 0
7, 18720, Note_on_c, 3, 52, 88
7, 19014, Note_off_c, 3, 52, 0
7, 19020, Note_on_c, 3, 50, 88
7, 19078, Note_off_c, 3, 50, 0
7, 19080, Note_on_c, 3, 49, 88
7, 19138, Note_off_c, 3, 49, 0
7, 19140, Note_on_c, 3, 47, 88
7, 19198, Note_off_c, 3, 47, 0
7, 19200, Note_on_c, 3, 50, 88
7, 19258, Note_off_c, 3, 50, 0
7, 19260, Note_on_c, 3, 49, 88
7, 19318, Note_off_c, 3, 49, 0
7, 19320, Note_on_c, 3, 47, 88
7, 19378, Note_off_c, 3, 47, 0
7, 19380, Note_on_c, 3, 45, 88
7, 19438, Note_off_c, 3, 45, 0
7, 19440, Note_on_c, 3, 50, 88
7, 19674, Note_off_c, 3, 50, 0
7, 20280, Note_on_c, 3, 57, 88
7, 20396, Note_off_c, 3, 57, 0
7, 20400, Note_on_c, 3, 55, 88
7, 20516, Note_off_c, 3, 55, 0
7, 20520, Note_on_c, 3, 53, 88
7, 20636, Note_off_c, 3, 53, 0
7, 20640, Note_on_c, 3, 52, 88
7, 20756, Note_off_c, 3, 52, 0
7, 20760, Note_on_c, 3, 55, 88
7, 20876, Note_off_c, 3, 55, 0
7, 20880, Note_on_c, 3, 54, 88
7, 20938, Note_off_c, 3, 54, 0
7, 20940, Note_on_c, 3, 57, 88
7, 20998, Note_off_c, 3, 57, 0
7, 21000, Note_on_c, 3, 58, 88
7, 21058, Note_off_c, 3, 58, 0
7, 21060, Note_on_c, 3, 57, 88
7, 21118, Note_off_c, 3, 57, 0
7, 21120, Note_on_c, 3, 50, 88
7, 21354, Note_off_c, 3, 50, 0
7, 21360, Note_on_c, 3, 54, 88
7, 21594, Note_off_c, 3, 54, 0
7, 21600, Note_on_c, 3, 43, 88
7, 21834, Note_off_c, 3, 43, 0
7, 21840, Note_on_c, 3, 48, 88
7, 22074, Note_off_c, 3, 48, 0
7, 22080, Note_on_c, 3, 52, 88
7, 22314, Note_off_c, 3, 52, 0
7, 22320, Note_on_c, 3, 41, 88
7, 22554, Note_off_c, 3, 41, 0
7, 22560, Note_on_c, 3, 46, 88
7, 22794, Note_off_c, 3, 46, 0
7, 22800, Note_on_c, 3, 50, 88
7, 23034, Note_off_c, 3, 50, 0
7, 23040, Note_on_c, 3, 52, 88
7, 23748, Note_off_c, 3, 52, 0
7, 23760, Note_on_c, 3, 53, 88
7, 23876, Note_off_c, 3, 53, 0
7, 23880, Note_on_c, 3, 50, 88
7, 23996, Note_off_c, 3, 50, 0
7, 24000, Note_on_c, 3, 52, 88
7, 24116, Note_off_c, 3, 52, 0
7, 24120, Note_on_c, 3, 54, 88
7, 24236, Note_off_c, 3, 54, 0
7, 24240, Note_on_c, 3, 55, 88
7, 24356, Note_off_c, 3, 55, 0
7, 24360, Note_on_c, 3, 52, 88
7, 24476, Note_off_c, 3, 52, 0
7, 24480, Note_on_c, 3, 54, 88
7, 24538, Note_off_c, 3, 54, 0
7, 24540, Note_on_c, 3, 50, 88
7, 24598, Note_off_c, 3, 50, 0
7, 24600, Note_on_c, 3, 49, 88
7, 24658, Note_off_c, 3, 49, 0
7, 24660, Note_on_c, 3, 50, 88
7, 24718, Note_off_c, 3, 50, 0
7, 24720, Note_on_c, 3, 58, 88
7, 24836, Note_off_c, 3, 58, 0
7, 24840, Note_on_c, 3, 57, 88
7, 24956, Note_off_c, 3, 57, 0
7, 24960, Note_on_c, 3, 55, 88
7, 25076, Note_off_c, 3, 55, 0
7, 25080, Note_on_c, 3, 58, 88
7, 25196, Note_off_c, 3, 58, 0
7, 25200, Note_on_c, 3, 57, 88
7, 25316, Note_off_c, 3, 57, 0
7, 25320, Note_on_c, 3, 55, 88
7, 25436, Note_off_c, 3, 55, 0
7, 25440, Note_on_c, 3, 54, 88
7, 25556, Note_off_c, 3, 54, 0
7, 25560, Note_on_c, 3, 52, 88
7, 25676, Note_off_c, 3, 52, 0
7, 25680, Note_on_c, 3, 50, 88
7, 25796, Note_off_c, 3, 50, 0
7, 25800, Note_on_c, 3, 54, 88
7, 25916, Note_off_c, 3, 54, 0
7, 25920, Note_on_c, 3, 43, 88
7, 26036, Note_off_c, 3, 43, 0
7, 26040, Note_on_c, 3, 57, 88
7, 26156, Note_off_c, 3, 57, 0
7, 26160, Note_on_c, 3, 56, 88
7, 26276, Note_off_c, 3, 56, 0
7, 26280, Note_on_c, 3, 54, 88
7, 26396, Note_off_c, 3, 54, 0
7, 26400, Note_on_c, 3, 52, 88
7, 26516, Note_off_c, 3, 52, 0
7, 26520, Note_on_c, 3, 56, 88
7, 26636, Note_off_c, 3, 56, 0
7, 26640, Note_on_c, 3, 45, 88
7, 26756, Note_off_c, 3, 45, 0
7, 26760, Note_on_c, 3, 62, 88
7, 26876, Note_off_c, 3, 62, 0
7, 26880, Note_on_c, 3, 61, 88
7, 26996, Note_off_c, 3, 61, 0
7, 27000, Note_on_c, 3, 59, 88
7, 27116, Note_off_c, 3, 59, 0
7, 27120, Note_on_c, 3, 57, 88
7, 27236, Note_off_c, 3, 57, 0
7, 27240, Note_on_c, 3, 61, 88
7, 27356, Note_off_c, 3, 61, 0
7, 27360, Note_on_c, 3, 62, 88
7, 27476, Note_off_c, 3, 62, 0
7, 27480, Note_on_c, 3, 50, 88
7, 27596, Note_off_c, 3, 50, 0
7, 27600, Note_on_c, 3, 52, 88
7, 27716, Note_off_c, 3, 52, 0
7, 27720, Note_on_c, 3, 53, 88
7, 27836, Note_off_c, 3, 53, 0
7, 27840, Note_on_c, 3, 55, 88
7, 27956, Note_off_c, 3, 55, 0
7, 27960, Note_on_c, 3, 52, 88
7, 28076, Note_off_c, 3, 52, 0
7, 28080, Note_on_c, 3, 54, 88
7, 28138, Note_off_c, 3, 54, 0
7, 28140, Note_on_c, 3, 50, 88
7, 28198, Note_off_c, 3, 50, 0
7, 28200, Note_on_c, 3, 48, 88
7, 28258, Note_off_c, 3, 48, 0
7, 28260, Note_on_c, 3, 50, 88
7, 28318, Note_off_c, 3, 50, 0
7, 28320, Note_on_c, 3, 58, 88
7, 28554, Note_off_c, 3, 58, 0
7, 28560, Note_on_c, 3, 57, 88
7, 28589, Note_off_c, 3, 57, 0
7, 28590, Note_on_c, 3, 55, 88
7, 28619, Note_off_c, 3, 55, 0
7, 28620, Note_on_c, 3, 57, 88
7, 28649, Note_off_c, 3, 57, 0
7, 28650, Note_on_c, 3, 55, 88
7, 28679, Note_off_c, 3, 55, 0
7, 28680, Note_on_c, 3, 57, 88
7, 28709, Note_off_c, 3, 57, 0
7, 28710, Note_on_c, 3, 55, 88
7, 28739, Note_off_c, 3, 55, 0
7, 28740, Note_on_c, 3, 53, 88
7, 28769, Note_off_c, 3, 53, 0
7, 28770, Note_on_c, 3, 55, 88
7, 28799, Note_off_c, 3, 55, 0
7, 28800, Note_on_c, 3, 57, 88
7, 28916, Note_off_c, 3, 57, 0
7, 28920, Note_on_c, 3, 58, 88
7, 29036, Note_off_c, 3, 58, 0
7, 29040, Note_on_c, 3, 57, 88
7, 29098, Note_off_c, 3, 57, 0
7, 29100, Note_on_c, 3, 55, 88
7, 29158, Note_off_c, 3, 55, 0
7, 29160, Note_on_c, 3, 53, 88
7, 29218, Note_off_c, 3, 53, 0
7, 29220, Note_on_c, 3, 55, 88
7, 29265, Note_off_c, 3, 55, 0
7, 29280, Note_on_c, 3, 55, 88
7, 29338, Note_off_c, 3, 55, 0
7, 29340, Note_on_c, 3, 53, 88
7, 29398, Note_off_c, 3, 53, 0
7, 29400, Note_on_c, 3, 52, 88
7, 29458, Note_off_c, 3, 52, 0
7, 29460, Note_on_c, 3, 53, 88
7, 29518, Note_off_c, 3, 53, 0
7, 29520, Note_on_c, 3, 53, 88
7, 29636, Note_off_c, 3, 53, 0
7, 29640, Note_on_c, 3, 55, 88
7, 29756, Note_off_c, 3, 55, 0
7, 29760, Note_on_c, 3, 57, 88
7, 29876, Note_off_c, 3, 57, 0
7, 29880, Note_on_c, 3, 55, 88
7, 29996, Note_off_c, 3, 55, 0
7, 30000, Note_on_c, 3, 57, 88
7, 30234, Note_off_c, 3, 57, 0
7, 30240, Note_on_c, 3, 50, 88
7, 30948, Note_off_c, 3, 50, 0
7, 30960, Note_on_c, 3, 50, 88
7, 31668, Note_off_c, 3, 50, 0
7, 31668, End_track
0, 0, End_of_file
