0, 0, Header, 1, 7, 240
1, 0, Start_track
1, 0, Time_signature, 4, 2, 24, 8
1, 0, Tempo, 769230
1, 0, SMPTE_offset, 64, 0, 0, 0, 124
1, 34320, Tempo, 833333
1, 34800, Tempo, 937500
1, 34920, Tempo, 1200000
1, 34980, Tempo, 1500000
1, 34980, End_track
2, 0, Start_track
2, 0, Title_t, "(C) & (P) 1993"
2, 127, End_track
3, 0, Start_track
3, 0, Title_t, "CCARH,Stanford"
3, 0, End_track
4, 0, Start_track
4, 0, Title_t, "Track 1"
4, 0, Program_c, 0, 6
4, 0, Note_on_c, 0, 70, 88
4, 58, Note_off_c, 0, 70, 0
4, 60, Note_on_c, 0, 67, 88
4, 118, Note_off_c, 0, 67, 0
4, 120, Note_on_c, 0, 65, 88
4, 178, Note_off_c, 0, 65, 0
4, 180, Note_on_c, 0, 67, 88
4, 238, Note_off_c, 0, 67, 0
4, 240, Note_on_c, 0, 63, 88
4, 298, Note_off_c, 0, 63, 0
4, 300, Note_on_c, 0, 68, 88
4, 358, Note_off_c, 0, 68, 0
4, 360, Note_on_c, 0, 67, 88
4, 418, Note_off_c, 0, 67, 0
4, 420, Note_on_c, 0, 68, 88
4, 478, Note_off_c, 0, 68, 0
4, 480, Note_on_c, 0, 72, 88
4, 596, Note_off_c, 0, 72, 0
4, 600, Note_on_c, 0, 70, 88
4, 716, Note_off_c, 0, 70, 0
4, 840, Note_on_c, 0, 69, 88
4, 898, Note_off_c, 0, 69, 0
4, 900, Note_on_c, 0, 65, 88
4, 958, Note_off_c, 0, 65, 0
4, 960, Note_on_c, 0, 75, 88
4, 1076, Note_off_c, 0, 75, 0
4, 1080, Note_on_c, 0, 74, 88
4, 1181, Note_off_c, 0, 74, 0
4, 1200, Note_on_c, 0, 74, 88
4, 1222, Note_off_c, 0, 74, 0
4, 1223, Note_on_c, 0, 72, 88
4, 1252, Note_off_c, 0, 72, 0
4, 1253, Note_on_c, 0, 74, 88
4, 1282, Note_off_c, 0, 74, 0
4, 1283, Note_on_c, 0, 72, 88
4, 1304, Note_off_c, 0, 72, 0
4, 1305, Note_on_c, 0, 74, 88
4, 1327, Note_off_c, 0, 74, 0
4, 1328, Note_on_c, 0, 72, 88
4, 1349, Note_off_c, 0, 72, 0
4, 1350, Note_on_c, 0, 74, 88
4, 1372, Note_off_c, 0, 74, 0
4, 1373, Note_on_c, 0, 72, 88
4, 1394, Note_off_c, 0, 72, 0
4, 1395, Note_on_c, 0, 74, 88
4, 1417, Note_off_c, 0, 74, 0
4, 1418, Note_on_c, 0, 72, 88
4, 1439, Note_off_c, 0, 72, 0
4, 1440, Note_on_c, 0, 70, 88
4, 1498, Note_off_c, 0, 70, 0
4, 1500, Note_on_c, 0, 77, 88
4, 1558, Note_off_c, 0, 77, 0
4, 1560, Note_on_c, 0, 74, 88
4, 1618, Note_off_c, 0, 74, 0
4, 1620, Note_on_c, 0, 70, 88
4, 1678, Note_off_c, 0, 70, 0
4, 1680, Note_on_c, 0, 68, 88
4, 1738, Note_off_c, 0, 68, 0
4, 1740, Note_on_c, 0, 77, 88
4, 1798, Note_off_c, 0, 77, 0
4, 1800, Note_on_c, 0, 74, 88
4, 1858, Note_off_c, 0, 74, 0
4, 1860, Note_on_c, 0, 68, 88
4, 1918, Note_off_c, 0, 68, 0
4, 1920, Note_on_c, 0, 67, 88
4, 2036, Note_off_c, 0, 67, 0
4, 2040, Note_on_c, 0, 80, 88
4, 2156, Note_off_c, 0, 80, 0
4, 2160, Note_on_c, 0, 79, 88
4, 2276, Note_off_c, 0, 79, 0
4, 2280, Note_on_c, 0, 77, 88
4, 2396, Note_off_c, 0, 77, 0
4, 2400, Note_on_c, 0, 75, 88
4, 2458, Note_off_c, 0, 75, 0
4, 2460, Note_on_c, 0, 72, 88
4, 2518, Note_off_c, 0, 72, 0
4, 2520, Note_on_c, 0, 74, 88
4, 2578, Note_off_c, 0, 74, 0
4, 2580, Note_on_c, 0, 75, 88
4, 2638, Note_off_c, 0, 75, 0
4, 2640, Note_on_c, 0, 77, 88
4, 2938, Note_off_c, 0, 77, 0
4, 2940, Note_on_c, 0, 75, 88
4, 2998, Note_off_c, 0, 75, 0
4, 3000, Note_on_c, 0, 77, 88
4, 3058, Note_off_c, 0, 77, 0
4, 3060, Note_on_c, 0, 79, 88
4, 3118, Note_off_c, 0, 79, 0
4, 3120, Note_on_c, 0, 80, 88
4, 3178, Note_off_c, 0, 80, 0
4, 3180, Note_on_c, 0, 77, 88
4, 3238, Note_off_c, 0, 77, 0
4, 3240, Note_on_c, 0, 70, 88
4, 3298, Note_off_c, 0, 70, 0
4, 3300, Note_on_c, 0, 80, 88
4, 3358, Note_off_c, 0, 80, 0
4, 3360, Note_on_c, 0, 79, 88
4, 3476, Note_off_c, 0, 79, 0
4, 3480, Note_on_c, 0, 75, 88
4, 3538, Note_off_c, 0, 75, 0
4, 3540, Note_on_c, 0, 79, 88
4, 3598, Note_off_c, 0, 79, 0
4, 3600, Note_on_c, 0, 84, 88
4, 3956, Note_off_c, 0, 84, 0
4, 3960, Note_on_c, 0, 74, 88
4, 4018, Note_off_c, 0, 74, 0
4, 4020, Note_on_c, 0, 77, 88
4, 4078, Note_off_c, 0, 77, 0
4, 4080, Note_on_c, 0, 82, 88
4, 4433, Note_off_c, 0, 82, 0
4, 4440, Note_on_c, 0, 72, 88
4, 4498, Note_off_c, 0, 72, 0
4, 4500, Note_on_c, 0, 75, 88
4, 4558, Note_off_c, 0, 75, 0
4, 4560, Note_on_c, 0, 80, 88
4, 4676, Note_off_c, 0, 80, 0
4, 4680, Note_on_c, 0, 79, 88
4, 4796, Note_off_c, 0, 79, 0
4, 4800, Note_on_c, 0, 77, 88
4, 5034, Note_off_c, 0, 77, 0
4, 5040, Note_on_c, 0, 79, 88
4, 5156, Note_off_c, 0, 79, 0
4, 5160, Note_on_c, 0, 74, 88
4, 5276, Note_off_c, 0, 74, 0
4, 5280, Note_on_c, 0, 75, 88
4, 5633, Note_off_c, 0, 75, 0
4, 5640, Note_on_c, 0, 77, 88
4, 5756, Note_off_c, 0, 77, 0
4, 5760, Note_on_c, 0, 79, 88
4, 6113, Note_off_c, 0, 79, 0
4, 6120, Note_on_c, 0, 81, 88
4, 6236, Note_off_c, 0, 81, 0
4, 6240, Note_on_c, 0, 82, 88
4, 6761, Note_off_c, 0, 82, 0
4, 6780, Note_on_c, 0, 82, 88
4, 6838, Note_off_c, 0, 82, 0
4, 6840, Note_on_c, 0, 79, 88
4, 6898, Note_off_c, 0, 79, 0
4, 6900, Note_on_c, 0, 75, 88
4, 6958, Note_off_c, 0, 75, 0
4, 6960, Note_on_c, 0, 73, 88
4, 7018, Note_off_c, 0, 73, 0
4, 7020, Note_on_c, 0, 82, 88
4, 7078, Note_off_c, 0, 82, 0
4, 7080, Note_on_c, 0, 79, 88
4, 7138, Note_off_c, 0, 79, 0
4, 7140, Note_on_c, 0, 73, 88
4, 7198, Note_off_c, 0, 73, 0
4, 7200, Note_on_c, 0, 72, 88
4, 7316, Note_off_c, 0, 72, 0
4, 7320, Note_on_c, 0, 75, 88
4, 7436, Note_off_c, 0, 75, 0
4, 7440, Note_on_c, 0, 80, 88
4, 7721, Note_off_c, 0, 80, 0
4, 7740, Note_on_c, 0, 80, 88
4, 7798, Note_off_c, 0, 80, 0
4, 7800, Note_on_c, 0, 77, 88
4, 7858, Note_off_c, 0, 77, 0
4, 7860, Note_on_c, 0, 74, 88
4, 7918, Note_off_c, 0, 74, 0
4, 7920, Note_on_c, 0, 72, 88
4, 7978, Note_off_c, 0, 72, 0
4, 7980, Note_on_c, 0, 80, 88
4, 8038, Note_off_c, 0, 80, 0
4, 8040, Note_on_c, 0, 77, 88
4, 8098, Note_off_c, 0, 77, 0
4, 8100, Note_on_c, 0, 72, 88
4, 8158, Note_off_c, 0, 72, 0
4, 8160, Note_on_c, 0, 70, 88
4, 8276, Note_off_c, 0, 70, 0
4, 8280, Note_on_c, 0, 74, 88
4, 8396, Note_off_c, 0, 74, 0
4, 8400, Note_on_c, 0, 79, 88
4, 8934, Note_off_c, 0, 79, 0
4, 8940, Note_on_c, 0, 72, 88
4, 8998, Note_off_c, 0, 72, 0
4, 9000, Note_on_c, 0, 74, 88
4, 9058, Note_off_c, 0, 74, 0
4, 9060, Note_on_c, 0, 75, 88
4, 9118, Note_off_c, 0, 75, 0
4, 9120, Note_on_c, 0, 77, 88
4, 9473, Note_off_c, 0, 77, 0
4, 9480, Note_on_c, 0, 75, 88
4, 9658, Note_off_c, 0, 75, 0
4, 9660, Note_on_c, 0, 74, 88
4, 9718, Note_off_c, 0, 74, 0
4, 9720, Note_on_c, 0, 72, 88
4, 9778, Note_off_c, 0, 72, 0
4, 9780, Note_on_c, 0, 74, 88
4, 9838, Note_off_c, 0, 74, 0
4, 9840, Note_on_c, 0, 70, 88
4, 9898, Note_off_c, 0, 70, 0
4, 9900, Note_on_c, 0, 75, 88
4, 9958, Note_off_c, 0, 75, 0
4, 9960, Note_on_c, 0, 74, 88
4, 10018, Note_off_c, 0, 74, 0
4, 10020, Note_on_c, 0, 75, 88
4, 10078, Note_off_c, 0, 75, 0
4, 10080, Note_on_c, 0, 79, 88
4, 10196, Note_off_c, 0, 79, 0
4, 10200, Note_on_c, 0, 77, 88
4, 10316, Note_off_c, 0, 77, 0
4, 10440, Note_on_c, 0, 74, 88
4, 10498, Note_off_c, 0, 74, 0
4, 10500, Note_on_c, 0, 70, 88
4, 10558, Note_off_c, 0, 70, 0
4, 10560, Note_on_c, 0, 80, 88
4, 10676, Note_off_c, 0, 80, 0
4, 10680, Note_on_c, 0, 79, 88
4, 10781, Note_off_c, 0, 79, 0
4, 10800, Note_on_c, 0, 79, 88
4, 10822, Note_off_c, 0, 79, 0
4, 10823, Note_on_c, 0, 77, 88
4, 10852, Note_off_c, 0, 77, 0
4, 10853, Note_on_c, 0, 79, 88
4, 10882, Note_off_c, 0, 79, 0
4, 10883, Note_on_c, 0, 77, 88
4, 10904, Note_off_c, 0, 77, 0
4, 10905, Note_on_c, 0, 79, 88
4, 10927, Note_off_c, 0, 79, 0
4, 10928, Note_on_c, 0, 77, 88
4, 10949, Note_off_c, 0, 77, 0
4, 10950, Note_on_c, 0, 79, 88
4, 10972, Note_off_c, 0, 79, 0
4, 10973, Note_on_c, 0, 77, 88
4, 10994, Note_off_c, 0, 77, 0
4, 10995, Note_on_c, 0, 79, 88
4, 11017, Note_off_c, 0, 79, 0
4, 11018, Note_on_c, 0, 77, 88
4, 11039, Note_off_c, 0, 77, 0
4, 11040, Note_on_c, 0, 75, 88
4, 11098, Note_off_c, 0, 75, 0
4, 11100, Note_on_c, 0, 82, 88
4, 11158, Note_off_c, 0, 82, 0
4, 11160, Note_on_c, 0, 79, 88
4, 11218, Note_off_c, 0, 79, 0
4, 11220, Note_on_c, 0, 75, 88
4, 11278, Note_off_c, 0, 75, 0
4, 11280, Note_on_c, 0, 73, 88
4, 11338, Note_off_c, 0, 73, 0
4, 11340, Note_on_c, 0, 82, 88
4, 11398, Note_off_c, 0, 82, 0
4, 11400, Note_on_c, 0, 79, 88
4, 11458, Note_off_c, 0, 79, 0
4, 11460, Note_on_c, 0, 73, 88
4, 11518, Note_off_c, 0, 73, 0
4, 11520, Note_on_c, 0, 72, 88
4, 11636, Note_off_c, 0, 72, 0
4, 11640, Note_on_c, 0, 80, 88
4, 11756, Note_off_c, 0, 80, 0
4, 11880, Note_on_c, 0, 68, 88
4, 11996, Note_off_c, 0, 68, 0
4, 12000, Note_on_c, 0, 74, 88
4, 12058, Note_off_c, 0, 74, 0
4, 12060, Note_on_c, 0, 80, 88
4, 12118, Note_off_c, 0, 80, 0
4, 12120, Note_on_c, 0, 77, 88
4, 12178, Note_off_c, 0, 77, 0
4, 12180, Note_on_c, 0, 74, 88
4, 12238, Note_off_c, 0, 74, 0
4, 12240, Note_on_c, 0, 72, 88
4, 12298, Note_off_c, 0, 72, 0
4, 12300, Note_on_c, 0, 80, 88
4, 12358, Note_off_c, 0, 80, 0
4, 12360, Note_on_c, 0, 77, 88
4, 12418, Note_off_c, 0, 77, 0
4, 12420, Note_on_c, 0, 72, 88
4, 12478, Note_off_c, 0, 72, 0
4, 12480, Note_on_c, 0, 71, 88
4, 12596, Note_off_c, 0, 71, 0
4, 12600, Note_on_c, 0, 79, 88
4, 12716, Note_off_c, 0, 79, 0
4, 12840, Note_on_c, 0, 67, 88
4, 12956, Note_off_c, 0, 67, 0
4, 12960, Note_on_c, 0, 72, 88
4, 13018, Note_off_c, 0, 72, 0
4, 13020, Note_on_c, 0, 79, 88
4, 13078, Note_off_c, 0, 79, 0
4, 13080, Note_on_c, 0, 76, 88
4, 13138, Note_off_c, 0, 76, 0
4, 13140, Note_on_c, 0, 72, 88
4, 13198, Note_off_c, 0, 72, 0
4, 13200, Note_on_c, 0, 70, 88
4, 13258, Note_off_c, 0, 70, 0
4, 13260, Note_on_c, 0, 79, 88
4, 13318, Note_off_c, 0, 79, 0
4, 13320, Note_on_c, 0, 76, 88
4, 13378, Note_off_c, 0, 76, 0
4, 13380, Note_on_c, 0, 70, 88
4, 13438, Note_off_c, 0, 70, 0
4, 13440, Note_on_c, 0, 69, 88
4, 13498, Note_off_c, 0, 69, 0
4, 13500, Note_on_c, 0, 79, 88
4, 13558, Note_off_c, 0, 79, 0
4, 13560, Note_on_c, 0, 72, 88
4, 13618, Note_off_c, 0, 72, 0
4, 13620, Note_on_c, 0, 67, 88
4, 13678, Note_off_c, 0, 67, 0
4, 13680, Note_on_c, 0, 68, 88
4, 13738, Note_off_c, 0, 68, 0
4, 13740, Note_on_c, 0, 77, 88
4, 13798, Note_off_c, 0, 77, 0
4, 13800, Note_on_c, 0, 74, 88
4, 13858, Note_off_c, 0, 74, 0
4, 13860, Note_on_c, 0, 68, 88
4, 13918, Note_off_c, 0, 68, 0
4, 13920, Note_on_c, 0, 67, 88
4, 13978, Note_off_c, 0, 67, 0
4, 13980, Note_on_c, 0, 77, 88
4, 14038, Note_off_c, 0, 77, 0
4, 14040, Note_on_c, 0, 74, 88
4, 14098, Note_off_c, 0, 74, 0
4, 14100, Note_on_c, 0, 71, 88
4, 14158, Note_off_c, 0, 71, 0
4, 14160, Note_on_c, 0, 67, 88
4, 14218, Note_off_c, 0, 67, 0
4, 14220, Note_on_c, 0, 75, 88
4, 14278, Note_off_c, 0, 75, 0
4, 14280, Note_on_c, 0, 72, 88
4, 14338, Note_off_c, 0, 72, 0
4, 14340, Note_on_c, 0, 67, 88
4, 14398, Note_off_c, 0, 67, 0
4, 14400, Note_on_c, 0, 66, 88
4, 14458, Note_off_c, 0, 66, 0
4, 14460, Note_on_c, 0, 75, 88
4, 14518, Note_off_c, 0, 75, 0
4, 14520, Note_on_c, 0, 72, 88
4, 14578, Note_off_c, 0, 72, 0
4, 14580, Note_on_c, 0, 69, 88
4, 14638, Note_off_c, 0, 69, 0
4, 14640, Note_on_c, 0, 65, 88
4, 14698, Note_off_c, 0, 65, 0
4, 14700, Note_on_c, 0, 74, 88
4, 14758, Note_off_c, 0, 74, 0
4, 14760, Note_on_c, 0, 71, 88
4, 14818, Note_off_c, 0, 71, 0
4, 14820, Note_on_c, 0, 65, 88
4, 14878, Note_off_c, 0, 65, 0
4, 14880, Note_on_c, 0, 64, 88
4, 14938, Note_off_c, 0, 64, 0
4, 14940, Note_on_c, 0, 74, 88
4, 14998, Note_off_c, 0, 74, 0
4, 15000, Note_on_c, 0, 71, 88
4, 15058, Note_off_c, 0, 71, 0
4, 15060, Note_on_c, 0, 67, 88
4, 15118, Note_off_c, 0, 67, 0
4, 15120, Note_on_c, 0, 63, 88
4, 15178, Note_off_c, 0, 63, 0
4, 15180, Note_on_c, 0, 72, 88
4, 15238, Note_off_c, 0, 72, 0
4, 15240, Note_on_c, 0, 67, 88
4, 15298, Note_off_c, 0, 67, 0
4, 15300, Note_on_c, 0, 63, 88
4, 15358, Note_off_c, 0, 63, 0
4, 15360, Note_on_c, 0, 62, 88
4, 15418, Note_off_c, 0, 62, 0
4, 15420, Note_on_c, 0, 72, 88
4, 15478, Note_off_c, 0, 72, 0
4, 15480, Note_on_c, 0, 68, 88
4, 15538, Note_off_c, 0, 68, 0
4, 15540, Note_on_c, 0, 65, 88
4, 15598, Note_off_c, 0, 65, 0
4, 15600, Note_on_c, 0, 62, 88
4, 15658, Note_off_c, 0, 62, 0
4, 15660, Note_on_c, 0, 71, 88
4, 15718, Note_off_c, 0, 71, 0
4, 15720, Note_on_c, 0, 69, 88
4, 15778, Note_off_c, 0, 69, 0
4, 15780, Note_on_c, 0, 71, 88
4, 15838, Note_off_c, 0, 71, 0
4, 15840, Note_on_c, 0, 72, 88
4, 15956, Note_off_c, 0, 72, 0
4, 15960, Note_on_c, 0, 77, 88
4, 16076, Note_off_c, 0, 77, 0
4, 16080, Note_on_c, 0, 75, 88
4, 16196, Note_off_c, 0, 75, 0
4, 16200, Note_on_c, 0, 74, 88
4, 16316, Note_off_c, 0, 74, 0
4, 16320, Note_on_c, 0, 72, 88
4, 16378, Note_off_c, 0, 72, 0
4, 16380, Note_on_c, 0, 69, 88
4, 16438, Note_off_c, 0, 69, 0
4, 16440, Note_on_c, 0, 71, 88
4, 16498, Note_off_c, 0, 71, 0
4, 16500, Note_on_c, 0, 72, 88
4, 16558, Note_off_c, 0, 72, 0
4, 16560, Note_on_c, 0, 74, 88
4, 16854, Note_off_c, 0, 74, 0
4, 16860, Note_on_c, 0, 72, 88
4, 16918, Note_off_c, 0, 72, 0
4, 16920, Note_on_c, 0, 74, 88
4, 16978, Note_off_c, 0, 74, 0
4, 16980, Note_on_c, 0, 75, 88
4, 17038, Note_off_c, 0, 75, 0
4, 17040, Note_on_c, 0, 77, 88
4, 17098, Note_off_c, 0, 77, 0
4, 17100, Note_on_c, 0, 74, 88
4, 17158, Note_off_c, 0, 74, 0
4, 17160, Note_on_c, 0, 67, 88
4, 17218, Note_off_c, 0, 67, 0
4, 17220, Note_on_c, 0, 77, 88
4, 17278, Note_off_c, 0, 77, 0
4, 17280, Note_on_c, 0, 75, 88
4, 17338, Note_off_c, 0, 75, 0
4, 17340, Note_on_c, 0, 79, 88
4, 17398, Note_off_c, 0, 79, 0
4, 17400, Note_on_c, 0, 75, 88
4, 17458, Note_off_c, 0, 75, 0
4, 17460, Note_on_c, 0, 74, 88
4, 17518, Note_off_c, 0, 74, 0
4, 17520, Note_on_c, 0, 72, 88
4, 17578, Note_off_c, 0, 72, 0
4, 17580, Note_on_c, 0, 84, 88
4, 17638, Note_off_c, 0, 84, 0
4, 17640, Note_on_c, 0, 80, 88
4, 17698, Note_off_c, 0, 80, 0
4, 17700, Note_on_c, 0, 77, 88
4, 17758, Note_off_c, 0, 77, 0
4, 17760, Note_on_c, 0, 74, 88
4, 17818, Note_off_c, 0, 74, 0
4, 17820, Note_on_c, 0, 77, 88
4, 17878, Note_off_c, 0, 77, 0
4, 17880, Note_on_c, 0, 74, 88
4, 17938, Note_off_c, 0, 74, 0
4, 17940, Note_on_c, 0, 72, 88
4, 17998, Note_off_c, 0, 72, 0
4, 18000, Note_on_c, 0, 70, 88
4, 18058, Note_off_c, 0, 70, 0
4, 18060, Note_on_c, 0, 82, 88
4, 18118, Note_off_c, 0, 82, 0
4, 18120, Note_on_c, 0, 79, 88
4, 18178, Note_off_c, 0, 79, 0
4, 18180, Note_on_c, 0, 75, 88
4, 18238, Note_off_c, 0, 75, 0
4, 18240, Note_on_c, 0, 72, 88
4, 18298, Note_off_c, 0, 72, 0
4, 18300, Note_on_c, 0, 75, 88
4, 18358, Note_off_c, 0, 75, 0
4, 18360, Note_on_c, 0, 72, 88
4, 18418, Note_off_c, 0, 72, 0
4, 18420, Note_on_c, 0, 70, 88
4, 18478, Note_off_c, 0, 70, 0
4, 18480, Note_on_c, 0, 68, 88
4, 18538, Note_off_c, 0, 68, 0
4, 18540, Note_on_c, 0, 80, 88
4, 18598, Note_off_c, 0, 80, 0
4, 18600, Note_on_c, 0, 77, 88
4, 18658, Note_off_c, 0, 77, 0
4, 18660, Note_on_c, 0, 74, 88
4, 18718, Note_off_c, 0, 74, 0
4, 18720, Note_on_c, 0, 71, 88
4, 18954, Note_off_c, 0, 71, 0
4, 18960, Note_on_c, 0, 72, 88
4, 19316, Note_off_c, 0, 72, 0
4, 19320, Note_on_c, 0, 71, 88
4, 19436, Note_off_c, 0, 71, 0
4, 19440, Note_on_c, 0, 72, 88
4, 19498, Note_off_c, 0, 72, 0
4, 19500, Note_on_c, 0, 71, 88
4, 19558, Note_off_c, 0, 71, 0
4, 19560, Note_on_c, 0, 72, 88
4, 19618, Note_off_c, 0, 72, 0
4, 19620, Note_on_c, 0, 74, 88
4, 19678, Note_off_c, 0, 74, 0
4, 19680, Note_on_c, 0, 75, 88
4, 19796, Note_off_c, 0, 75, 0
4, 19800, Note_on_c, 0, 74, 88
4, 19916, Note_off_c, 0, 74, 0
4, 19920, Note_on_c, 0, 76, 88
4, 20036, Note_off_c, 0, 76, 0
4, 20040, Note_on_c, 0, 78, 88
4, 20156, Note_off_c, 0, 78, 0
4, 20160, Note_on_c, 0, 79, 88
4, 20218, Note_off_c, 0, 79, 0
4, 20220, Note_on_c, 0, 74, 88
4, 20278, Note_off_c, 0, 74, 0
4, 20280, Note_on_c, 0, 72, 88
4, 20338, Note_off_c, 0, 72, 0
4, 20340, Note_on_c, 0, 74, 88
4, 20398, Note_off_c, 0, 74, 0
4, 20400, Note_on_c, 0, 70, 88
4, 20458, Note_off_c, 0, 70, 0
4, 20460, Note_on_c, 0, 76, 88
4, 20518, Note_off_c, 0, 76, 0
4, 20520, Note_on_c, 0, 74, 88
4, 20578, Note_off_c, 0, 74, 0
4, 20580, Note_on_c, 0, 76, 88
4, 20638, Note_off_c, 0, 76, 0
4, 20640, Note_on_c, 0, 79, 88
4, 20756, Note_off_c, 0, 79, 0
4, 20760, Note_on_c, 0, 77, 88
4, 20876, Note_off_c, 0, 77, 0
4, 21120, Note_on_c, 0, 77, 88
4, 21178, Note_off_c, 0, 77, 0
4, 21180, Note_on_c, 0, 72, 88
4, 21238, Note_off_c, 0, 72, 0
4, 21240, Note_on_c, 0, 70, 88
4, 21298, Note_off_c, 0, 70, 0
4, 21300, Note_on_c, 0, 72, 88
4, 21358, Note_off_c, 0, 72, 0
4, 21360, Note_on_c, 0, 68, 88
4, 21418, Note_off_c, 0, 68, 0
4, 21420, Note_on_c, 0, 74, 88
4, 21478, Note_off_c, 0, 74, 0
4, 21480, Note_on_c, 0, 72, 88
4, 21538, Note_off_c, 0, 72, 0
4, 21540, Note_on_c, 0, 74, 88
4, 21598, Note_off_c, 0, 74, 0
4, 21600, Note_on_c, 0, 77, 88
4, 21716, Note_off_c, 0, 77, 0
4, 21720, Note_on_c, 0, 75, 88
4, 21836, Note_off_c, 0, 75, 0
4, 22140, Note_on_c, 0, 70, 88
4, 22198, Note_off_c, 0, 70, 0
4, 22200, Note_on_c, 0, 75, 88
4, 22258, Note_off_c, 0, 75, 0
4, 22260, Note_on_c, 0, 72, 88
4, 22318, Note_off_c, 0, 72, 0
4, 22320, Note_on_c, 0, 73, 88
4, 22554, Note_off_c, 0, 73, 0
4, 22620, Note_on_c, 0, 72, 88
4, 22678, Note_off_c, 0, 72, 0
4, 22680, Note_on_c, 0, 77, 88
4, 22738, Note_off_c, 0, 77, 0
4, 22740, Note_on_c, 0, 74, 88
4, 22798, Note_off_c, 0, 74, 0
4, 22800, Note_on_c, 0, 75, 88
4, 23034, Note_off_c, 0, 75, 0
4, 23100, Note_on_c, 0, 74, 88
4, 23158, Note_off_c, 0, 74, 0
4, 23160, Note_on_c, 0, 79, 88
4, 23218, Note_off_c, 0, 79, 0
4, 23220, Note_on_c, 0, 75, 88
4, 23278, Note_off_c, 0, 75, 0
4, 23280, Note_on_c, 0, 77, 88
4, 23514, Note_off_c, 0, 77, 0
4, 23580, Note_on_c, 0, 75, 88
4, 23638, Note_off_c, 0, 75, 0
4, 23640, Note_on_c, 0, 79, 88
4, 23698, Note_off_c, 0, 79, 0
4, 23700, Note_on_c, 0, 82, 88
4, 23758, Note_off_c, 0, 82, 0
4, 23760, Note_on_c, 0, 80, 88
4, 23818, Note_off_c, 0, 80, 0
4, 23820, Note_on_c, 0, 77, 88
4, 23878, Note_off_c, 0, 77, 0
4, 23880, Note_on_c, 0, 70, 88
4, 23938, Note_off_c, 0, 70, 0
4, 23940, Note_on_c, 0, 79, 88
4, 23998, Note_off_c, 0, 79, 0
4, 24000, Note_on_c, 0, 77, 88
4, 24116, Note_off_c, 0, 77, 0
4, 24120, Note_on_c, 0, 80, 88
4, 24236, Note_off_c, 0, 80, 0
4, 24240, Note_on_c, 0, 79, 88
4, 24356, Note_off_c, 0, 79, 0
4, 24360, Note_on_c, 0, 77, 88
4, 24476, Note_off_c, 0, 77, 0
4, 24480, Note_on_c, 0, 75, 88
4, 24538, Note_off_c, 0, 75, 0
4, 24540, Note_on_c, 0, 72, 88
4, 24598, Note_off_c, 0, 72, 0
4, 24600, Note_on_c, 0, 74, 88
4, 24658, Note_off_c, 0, 74, 0
4, 24660, Note_on_c, 0, 75, 88
4, 24718, Note_off_c, 0, 75, 0
4, 24720, Note_on_c, 0, 77, 88
4, 25018, Note_off_c, 0, 77, 0
4, 25020, Note_on_c, 0, 75, 88
4, 25078, Note_off_c, 0, 75, 0
4, 25080, Note_on_c, 0, 77, 88
4, 25138, Note_off_c, 0, 77, 0
4, 25140, Note_on_c, 0, 79, 88
4, 25198, Note_off_c, 0, 79, 0
4, 25200, Note_on_c, 0, 80, 88
4, 25258, Note_off_c, 0, 80, 0
4, 25260, Note_on_c, 0, 77, 88
4, 25318, Note_off_c, 0, 77, 0
4, 25320, Note_on_c, 0, 70, 88
4, 25378, Note_off_c, 0, 70, 0
4, 25380, Note_on_c, 0, 80, 88
4, 25438, Note_off_c, 0, 80, 0
4, 25440, Note_on_c, 0, 79, 88
4, 25498, Note_off_c, 0, 79, 0
4, 25500, Note_on_c, 0, 82, 88
4, 25558, Note_off_c, 0, 82, 0
4, 25560, Note_on_c, 0, 79, 88
4, 25618, Note_off_c, 0, 79, 0
4, 25620, Note_on_c, 0, 75, 88
4, 25678, Note_off_c, 0, 75, 0
4, 25680, Note_on_c, 0, 73, 88
4, 25914, Note_off_c, 0, 73, 0
4, 25920, Note_on_c, 0, 72, 88
4, 25978, Note_off_c, 0, 72, 0
4, 25980, Note_on_c, 0, 84, 88
4, 26038, Note_off_c, 0, 84, 0
4, 26040, Note_on_c, 0, 80, 88
4, 26098, Note_off_c, 0, 80, 0
4, 26100, Note_on_c, 0, 77, 88
4, 26158, Note_off_c, 0, 77, 0
4, 26160, Note_on_c, 0, 75, 88
4, 26394, Note_off_c, 0, 75, 0
4, 26400, Note_on_c, 0, 74, 88
4, 26458, Note_off_c, 0, 74, 0
4, 26460, Note_on_c, 0, 77, 88
4, 26518, Note_off_c, 0, 77, 0
4, 26520, Note_on_c, 0, 74, 88
4, 26578, Note_off_c, 0, 74, 0
4, 26580, Note_on_c, 0, 70, 88
4, 26638, Note_off_c, 0, 70, 0
4, 26640, Note_on_c, 0, 68, 88
4, 26938, Note_off_c, 0, 68, 0
4, 26940, Note_on_c, 0, 67, 88
4, 26998, Note_off_c, 0, 67, 0
4, 27000, Note_on_c, 0, 65, 88
4, 27058, Note_off_c, 0, 65, 0
4, 27060, Note_on_c, 0, 67, 88
4, 27118, Note_off_c, 0, 67, 0
4, 27120, Note_on_c, 0, 63, 88
4, 27178, Note_off_c, 0, 63, 0
4, 27180, Note_on_c, 0, 68, 88
4, 27238, Note_off_c, 0, 68, 0
4, 27240, Note_on_c, 0, 67, 88
4, 27298, Note_off_c, 0, 67, 0
4, 27300, Note_on_c, 0, 68, 88
4, 27358, Note_off_c, 0, 68, 0
4, 27360, Note_on_c, 0, 72, 88
4, 27476, Note_off_c, 0, 72, 0
4, 27480, Note_on_c, 0, 70, 88
4, 27596, Note_off_c, 0, 70, 0
4, 27720, Note_on_c, 0, 69, 88
4, 27778, Note_off_c, 0, 69, 0
4, 27780, Note_on_c, 0, 65, 88
4, 27838, Note_off_c, 0, 65, 0
4, 27840, Note_on_c, 0, 75, 88
4, 27956, Note_off_c, 0, 75, 0
4, 27960, Note_on_c, 0, 74, 88
4, 28061, Note_off_c, 0, 74, 0
4, 28080, Note_on_c, 0, 74, 88
4, 28102, Note_off_c, 0, 74, 0
4, 28103, Note_on_c, 0, 72, 88
4, 28132, Note_off_c, 0, 72, 0
4, 28133, Note_on_c, 0, 74, 88
4, 28162, Note_off_c, 0, 74, 0
4, 28163, Note_on_c, 0, 72, 88
4, 28184, Note_off_c, 0, 72, 0
4, 28185, Note_on_c, 0, 74, 88
4, 28207, Note_off_c, 0, 74, 0
4, 28208, Note_on_c, 0, 72, 88
4, 28229, Note_off_c, 0, 72, 0
4, 28230, Note_on_c, 0, 74, 88
4, 28252, Note_off_c, 0, 74, 0
4, 28253, Note_on_c, 0, 72, 88
4, 28274, Note_off_c, 0, 72, 0
4, 28275, Note_on_c, 0, 74, 88
4, 28297, Note_off_c, 0, 74, 0
4, 28298, Note_on_c, 0, 72, 88
4, 28319, Note_off_c, 0, 72, 0
4, 28320, Note_on_c, 0, 70, 88
4, 28436, Note_off_c, 0, 70, 0
4, 28440, Note_on_c, 0, 77, 88
4, 28556, Note_off_c, 0, 77, 0
4, 28560, Note_on_c, 0, 74, 88
4, 28676, Note_off_c, 0, 74, 0
4, 28680, Note_on_c, 0, 70, 88
4, 28796, Note_off_c, 0, 70, 0
4, 28800, Note_on_c, 0, 82, 88
4, 29390, Note_off_c, 0, 82, 0
4, 29400, Note_on_c, 0, 75, 88
4, 29516, Note_off_c, 0, 75, 0
4, 29520, Note_on_c, 0, 72, 88
4, 29636, Note_off_c, 0, 72, 0
4, 29640, Note_on_c, 0, 68, 88
4, 29756, Note_off_c, 0, 68, 0
4, 29760, Note_on_c, 0, 80, 88
4, 30350, Note_off_c, 0, 80, 0
4, 30360, Note_on_c, 0, 74, 88
4, 30476, Note_off_c, 0, 74, 0
4, 30480, Note_on_c, 0, 70, 88
4, 30596, Note_off_c, 0, 70, 0
4, 30600, Note_on_c, 0, 67, 88
4, 30716, Note_off_c, 0, 67, 0
4, 30720, Note_on_c, 0, 79, 88
4, 31014, Note_off_c, 0, 79, 0
4, 31020, Note_on_c, 0, 72, 88
4, 31078, Note_off_c, 0, 72, 0
4, 31080, Note_on_c, 0, 74, 88
4, 31138, Note_off_c, 0, 74, 0
4, 31140, Note_on_c, 0, 75, 88
4, 31198, Note_off_c, 0, 75, 0
4, 31200, Note_on_c, 0, 77, 88
4, 31258, Note_off_c, 0, 77, 0
4, 31260, Note_on_c, 0, 75, 88
4, 31318, Note_off_c, 0, 75, 0
4, 31320, Note_on_c, 0, 74, 88
4, 31378, Note_off_c, 0, 74, 0
4, 31380, Note_on_c, 0, 72, 88
4, 31438, Note_off_c, 0, 72, 0
4, 31440, Note_on_c, 0, 70, 88
4, 31498, Note_off_c, 0, 70, 0
4, 31500, Note_on_c, 0, 68, 88
4, 31558, Note_off_c, 0, 68, 0
4, 31560, Note_on_c, 0, 70, 88
4, 31618, Note_off_c, 0, 70, 0
4, 31620, Note_on_c, 0, 72, 88
4, 31678, Note_off_c, 0, 72, 0
4, 31680, Note_on_c, 0, 65, 88
4, 31914, Note_off_c, 0, 65, 0
4, 32040, Note_on_c, 0, 65, 88
4, 32156, Note_off_c, 0, 65, 0
4, 32160, Note_on_c, 0, 75, 88
4, 32276, Note_off_c, 0, 75, 0
4, 32280, Note_on_c, 0, 74, 88
4, 32396, Note_off_c, 0, 74, 0
4, 32640, Note_on_c, 0, 77, 88
4, 32756, Note_off_c, 0, 77, 0
4, 32760, Note_on_c, 0, 75, 88
4, 32994, Note_off_c, 0, 75, 0
4, 33000, Note_on_c, 0, 74, 88
4, 33116, Note_off_c, 0, 74, 0
4, 33120, Note_on_c, 0, 75, 88
4, 33178, Note_off_c, 0, 75, 0
4, 33180, Note_on_c, 0, 79, 88
4, 33238, Note_off_c, 0, 79, 0
4, 33240, Note_on_c, 0, 75, 88
4, 33298, Note_off_c, 0, 75, 0
4, 33300, Note_on_c, 0, 72, 88
4, 33358, Note_off_c, 0, 72, 0
4, 33360, Note_on_c, 0, 68, 88
4, 33658, Note_off_c, 0, 68, 0
4, 33660, Note_on_c, 0, 77, 88
4, 33718, Note_off_c, 0, 77, 0
4, 33720, Note_on_c, 0, 74, 88
4, 33778, Note_off_c, 0, 74, 0
4, 33780, Note_on_c, 0, 70, 88
4, 33838, Note_off_c, 0, 70, 0
4, 33840, Note_on_c, 0, 67, 88
4, 33956, Note_off_c, 0, 67, 0
4, 33960, Note_on_c, 0, 75, 88
4, 34076, Note_off_c, 0, 75, 0
4, 34080, Note_on_c, 0, 67, 88
4, 34314, Note_off_c, 0, 67, 0
4, 34320, Note_on_c, 0, 65, 88
4, 34554, Note_off_c, 0, 65, 0
4, 34560, Note_on_c, 0, 63, 88
4, 35505, Note_off_c, 0, 63, 0
4, 35505, End_track
5, 0, Start_track
5, 0, Title_t, "Track 2"
5, 0, Program_c, 1, 6
5, 34620, Note_on_c, 1, 61, 88
5, 34795, Note_off_c, 1, 61, 0
5, 34800, Note_on_c, 1, 60, 88
5, 34975, Note_off_c, 1, 60, 0
5, 34980, Note_on_c, 1, 59, 88
5, 35038, Note_off_c, 1, 59, 0
5, 35040, Note_on_c, 1, 58, 88
5, 35510, Note_off_c, 1, 58, 0
5, 35510, End_track
6, 0, Start_track
6, 0, Title_t, "Track 3"
6, 0, Program_c, 2, 6
6, 1920, Note_on_c, 2, 63, 88
6, 1978, Note_off_c, 2, 63, 0
6, 1980, Note_on_c, 2, 62, 88
6, 2038, Note_off_c, 2, 62, 0
6, 2040, Note_on_c, 2, 60, 88
6, 2098, Note_off_c, 2, 60, 0
6, 2100, Note_on_c, 2, 62, 88
6, 2158, Note_off_c, 2, 62, 0
6, 2160, Note_on_c, 2, 58, 88
6, 2218, Note_off_c, 2, 58, 0
6, 2220, Note_on_c, 2, 63, 88
6, 2278, Note_off_c, 2, 63, 0
6, 2280, Note_on_c, 2, 62, 88
6, 2338, Note_off_c, 2, 62, 0
6, 2340, Note_on_c, 2, 63, 88
6, 2398, Note_off_c, 2, 63, 0
6, 2400, Note_on_c, 2, 67, 88
6, 2516, Note_off_c, 2, 67, 0
6, 2520, Note_on_c, 2, 65, 88
6, 2636, Note_off_c, 2, 65, 0
6, 2760, Note_on_c, 2, 62, 88
6, 2818, Note_off_c, 2, 62, 0
6, 2820, Note_on_c, 2, 58, 88
6, 2878, Note_off_c, 2, 58, 0
6, 2880, Note_on_c, 2, 68, 88
6, 2996, Note_off_c, 2, 68, 0
6, 3000, Note_on_c, 2, 67, 88
6, 3101, Note_off_c, 2, 67, 0
6, 3120, Note_on_c, 2, 67, 88
6, 3142, Note_off_c, 2, 67, 0
6, 3143, Note_on_c, 2, 65, 88
6, 3172, Note_off_c, 2, 65, 0
6, 3173, Note_on_c, 2, 67, 88
6, 3194, Note_off_c, 2, 67, 0
6, 3195, Note_on_c, 2, 65, 88
6, 3217, Note_off_c, 2, 65, 0
6, 3218, Note_on_c, 2, 67, 88
6, 3239, Note_off_c, 2, 67, 0
6, 3240, Note_on_c, 2, 65, 88
6, 3356, Note_off_c, 2, 65, 0
6, 3360, Note_on_c, 2, 63, 88
6, 3418, Note_off_c, 2, 63, 0
6, 3420, Note_on_c, 2, 70, 88
6, 3478, Note_off_c, 2, 70, 0
6, 3480, Note_on_c, 2, 67, 88
6, 3538, Note_off_c, 2, 67, 0
6, 3540, Note_on_c, 2, 65, 88
6, 3598, Note_off_c, 2, 65, 0
6, 3600, Note_on_c, 2, 63, 88
6, 3658, Note_off_c, 2, 63, 0
6, 3660, Note_on_c, 2, 72, 88
6, 3718, Note_off_c, 2, 72, 0
6, 3720, Note_on_c, 2, 69, 88
6, 3778, Note_off_c, 2, 69, 0
6, 3780, Note_on_c, 2, 65, 88
6, 3838, Note_off_c, 2, 65, 0
6, 3840, Note_on_c, 2, 62, 88
6, 3898, Note_off_c, 2, 62, 0
6, 3900, Note_on_c, 2, 69, 88
6, 3958, Note_off_c, 2, 69, 0
6, 3960, Note_on_c, 2, 65, 88
6, 4018, Note_off_c, 2, 65, 0
6, 4020, Note_on_c, 2, 63, 88
6, 4078, Note_off_c, 2, 63, 0
6, 4080, Note_on_c, 2, 61, 88
6, 4138, Note_off_c, 2, 61, 0
6, 4140, Note_on_c, 2, 70, 88
6, 4198, Note_off_c, 2, 70, 0
6, 4200, Note_on_c, 2, 67, 88
6, 4258, Note_off_c, 2, 67, 0
6, 4260, Note_on_c, 2, 63, 88
6, 4318, Note_off_c, 2, 63, 0
6, 4320, Note_on_c, 2, 60, 88
6, 4378, Note_off_c, 2, 60, 0
6, 4380, Note_on_c, 2, 67, 88
6, 4438, Note_off_c, 2, 67, 0
6, 4440, Note_on_c, 2, 63, 88
6, 4498, Note_off_c, 2, 63, 0
6, 4500, Note_on_c, 2, 60, 88
6, 4558, Note_off_c, 2, 60, 0
6, 4560, Note_on_c, 2, 62, 88
6, 4618, Note_off_c, 2, 62, 0
6, 4620, Note_on_c, 2, 70, 88
6, 4678, Note_off_c, 2, 70, 0
6, 4680, Note_on_c, 2, 63, 88
6, 4738, Note_off_c, 2, 63, 0
6, 4740, Note_on_c, 2, 72, 88
6, 4798, Note_off_c, 2, 72, 0
6, 4800, Note_on_c, 2, 74, 88
6, 4916, Note_off_c, 2, 74, 0
6, 4920, Note_on_c, 2, 73, 88
6, 5036, Note_off_c, 2, 73, 0
6, 5040, Note_on_c, 2, 72, 88
6, 5156, Note_off_c, 2, 72, 0
6, 5160, Note_on_c, 2, 70, 88
6, 5276, Note_off_c, 2, 70, 0
6, 5280, Note_on_c, 2, 68, 88
6, 5338, Note_off_c, 2, 68, 0
6, 5340, Note_on_c, 2, 67, 88
6, 5398, Note_off_c, 2, 67, 0
6, 5400, Note_on_c, 2, 68, 88
6, 5458, Note_off_c, 2, 68, 0
6, 5460, Note_on_c, 2, 70, 88
6, 5518, Note_off_c, 2, 70, 0
6, 5520, Note_on_c, 2, 72, 88
6, 5818, Note_off_c, 2, 72, 0
6, 5820, Note_on_c, 2, 70, 88
6, 5878, Note_off_c, 2, 70, 0
6, 5880, Note_on_c, 2, 72, 88
6, 5938, Note_off_c, 2, 72, 0
6, 5940, Note_on_c, 2, 74, 88
6, 5998, Note_off_c, 2, 74, 0
6, 6000, Note_on_c, 2, 75, 88
6, 6058, Note_off_c, 2, 75, 0
6, 6060, Note_on_c, 2, 72, 88
6, 6118, Note_off_c, 2, 72, 0
6, 6120, Note_on_c, 2, 65, 88
6, 6178, Note_off_c, 2, 65, 0
6, 6180, Note_on_c, 2, 75, 88
6, 6238, Note_off_c, 2, 75, 0
6, 6240, Note_on_c, 2, 74, 88
6, 6356, Note_off_c, 2, 74, 0
6, 6360, Note_on_c, 2, 77, 88
6, 6476, Note_off_c, 2, 77, 0
6, 6480, Note_on_c, 2, 74, 88
6, 6596, Note_off_c, 2, 74, 0
6, 6600, Note_on_c, 2, 70, 88
6, 6716, Note_off_c, 2, 70, 0
6, 6720, Note_on_c, 2, 75, 88
6, 6836, Note_off_c, 2, 75, 0
6, 7320, Note_on_c, 2, 75, 88
6, 7436, Note_off_c, 2, 75, 0
6, 7440, Note_on_c, 2, 72, 88
6, 7556, Note_off_c, 2, 72, 0
6, 7560, Note_on_c, 2, 68, 88
6, 7676, Note_off_c, 2, 68, 0
6, 7680, Note_on_c, 2, 74, 88
6, 7796, Note_off_c, 2, 74, 0
6, 8280, Note_on_c, 2, 74, 88
6, 8396, Note_off_c, 2, 74, 0
6, 8400, Note_on_c, 2, 70, 88
6, 8516, Note_off_c, 2, 70, 0
6, 8520, Note_on_c, 2, 67, 88
6, 8636, Note_off_c, 2, 67, 0
6, 8640, Note_on_c, 2, 72, 88
6, 8756, Note_off_c, 2, 72, 0
6, 8760, Note_on_c, 2, 70, 88
6, 8876, Note_off_c, 2, 70, 0
6, 8880, Note_on_c, 2, 68, 88
6, 9174, Note_off_c, 2, 68, 0
6, 9180, Note_on_c, 2, 72, 88
6, 9238, Note_off_c, 2, 72, 0
6, 9240, Note_on_c, 2, 70, 88
6, 9298, Note_off_c, 2, 70, 0
6, 9300, Note_on_c, 2, 68, 88
6, 9358, Note_off_c, 2, 68, 0
6, 9360, Note_on_c, 2, 67, 88
6, 9594, Note_off_c, 2, 67, 0
6, 9600, Note_on_c, 2, 65, 88
6, 9834, Note_off_c, 2, 65, 0
6, 9840, Note_on_c, 2, 70, 88
6, 10193, Note_off_c, 2, 70, 0
6, 10200, Note_on_c, 2, 68, 88
6, 10258, Note_off_c, 2, 68, 0
6, 10260, Note_on_c, 2, 67, 88
6, 10318, Note_off_c, 2, 67, 0
6, 10320, Note_on_c, 2, 68, 88
6, 10436, Note_off_c, 2, 68, 0
6, 10440, Note_on_c, 2, 65, 88
6, 10556, Note_off_c, 2, 65, 0
6, 10560, Note_on_c, 2, 62, 88
6, 10676, Note_off_c, 2, 62, 0
6, 10680, Note_on_c, 2, 75, 88
6, 10914, Note_off_c, 2, 75, 0
6, 10920, Note_on_c, 2, 74, 88
6, 11036, Note_off_c, 2, 74, 0
6, 11040, Note_on_c, 2, 75, 88
6, 11156, Note_off_c, 2, 75, 0
6, 11280, Note_on_c, 2, 63, 88
6, 11561, Note_off_c, 2, 63, 0
6, 11580, Note_on_c, 2, 63, 88
6, 11638, Note_off_c, 2, 63, 0
6, 11640, Note_on_c, 2, 60, 88
6, 11698, Note_off_c, 2, 60, 0
6, 11700, Note_on_c, 2, 56, 88
6, 11758, Note_off_c, 2, 56, 0
6, 11760, Note_on_c, 2, 55, 88
6, 11818, Note_off_c, 2, 55, 0
6, 11820, Note_on_c, 2, 63, 88
6, 11878, Note_off_c, 2, 63, 0
6, 11880, Note_on_c, 2, 60, 88
6, 11938, Note_off_c, 2, 60, 0
6, 11940, Note_on_c, 2, 55, 88
6, 11998, Note_off_c, 2, 55, 0
6, 12000, Note_on_c, 2, 53, 88
6, 12116, Note_off_c, 2, 53, 0
6, 12120, Note_on_c, 2, 56, 88
6, 12236, Note_off_c, 2, 56, 0
6, 12240, Note_on_c, 2, 62, 88
6, 12521, Note_off_c, 2, 62, 0
6, 12540, Note_on_c, 2, 62, 88
6, 12598, Note_off_c, 2, 62, 0
6, 12600, Note_on_c, 2, 59, 88
6, 12658, Note_off_c, 2, 59, 0
6, 12660, Note_on_c, 2, 55, 88
6, 12718, Note_off_c, 2, 55, 0
6, 12720, Note_on_c, 2, 53, 88
6, 12778, Note_off_c, 2, 53, 0
6, 12780, Note_on_c, 2, 62, 88
6, 12838, Note_off_c, 2, 62, 0
6, 12840, Note_on_c, 2, 59, 88
6, 12898, Note_off_c, 2, 59, 0
6, 12900, Note_on_c, 2, 53, 88
6, 12958, Note_off_c, 2, 53, 0
6, 12960, Note_on_c, 2, 52, 88
6, 13076, Note_off_c, 2, 52, 0
6, 13080, Note_on_c, 2, 55, 88
6, 13196, Note_off_c, 2, 55, 0
6, 13200, Note_on_c, 2, 60, 88
6, 13674, Note_off_c, 2, 60, 0
6, 13680, Note_on_c, 2, 59, 88
6, 13796, Note_off_c, 2, 59, 0
6, 13800, Note_on_c, 2, 60, 88
6, 13916, Note_off_c, 2, 60, 0
6, 13920, Note_on_c, 2, 62, 88
6, 14036, Note_off_c, 2, 62, 0
6, 15840, Note_on_c, 2, 60, 88
6, 15898, Note_off_c, 2, 60, 0
6, 15900, Note_on_c, 2, 58, 88
6, 15958, Note_off_c, 2, 58, 0
6, 15960, Note_on_c, 2, 56, 88
6, 16018, Note_off_c, 2, 56, 0
6, 16020, Note_on_c, 2, 58, 88
6, 16078, Note_off_c, 2, 58, 0
6, 16080, Note_on_c, 2, 55, 88
6, 16138, Note_off_c, 2, 55, 0
6, 16140, Note_on_c, 2, 60, 88
6, 16198, Note_off_c, 2, 60, 0
6, 16200, Note_on_c, 2, 59, 88
6, 16258, Note_off_c, 2, 59, 0
6, 16260, Note_on_c, 2, 60, 88
6, 16318, Note_off_c, 2, 60, 0
6, 16320, Note_on_c, 2, 63, 88
6, 16436, Note_off_c, 2, 63, 0
6, 16440, Note_on_c, 2, 62, 88
6, 16556, Note_off_c, 2, 62, 0
6, 16680, Note_on_c, 2, 59, 88
6, 16738, Note_off_c, 2, 59, 0
6, 16740, Note_on_c, 2, 55, 88
6, 16798, Note_off_c, 2, 55, 0
6, 16800, Note_on_c, 2, 65, 88
6, 16916, Note_off_c, 2, 65, 0
6, 16920, Note_on_c, 2, 63, 88
6, 17021, Note_off_c, 2, 63, 0
6, 17040, Note_on_c, 2, 63, 88
6, 17062, Note_off_c, 2, 63, 0
6, 17063, Note_on_c, 2, 62, 88
6, 17092, Note_off_c, 2, 62, 0
6, 17093, Note_on_c, 2, 63, 88
6, 17114, Note_off_c, 2, 63, 0
6, 17115, Note_on_c, 2, 62, 88
6, 17137, Note_off_c, 2, 62, 0
6, 17138, Note_on_c, 2, 63, 88
6, 17159, Note_off_c, 2, 63, 0
6, 17160, Note_on_c, 2, 62, 88
6, 17276, Note_off_c, 2, 62, 0
6, 17280, Note_on_c, 2, 60, 88
6, 17338, Note_off_c, 2, 60, 0
6, 17340, Note_on_c, 2, 59, 88
6, 17398, Note_off_c, 2, 59, 0
6, 17400, Note_on_c, 2, 60, 88
6, 17458, Note_off_c, 2, 60, 0
6, 17460, Note_on_c, 2, 63, 88
6, 17518, Note_off_c, 2, 63, 0
6, 17520, Note_on_c, 2, 68, 88
6, 17873, Note_off_c, 2, 68, 0
6, 17880, Note_on_c, 2, 58, 88
6, 17938, Note_off_c, 2, 58, 0
6, 17940, Note_on_c, 2, 62, 88
6, 17998, Note_off_c, 2, 62, 0
6, 18000, Note_on_c, 2, 67, 88
6, 18356, Note_off_c, 2, 67, 0
6, 18360, Note_on_c, 2, 56, 88
6, 18418, Note_off_c, 2, 56, 0
6, 18420, Note_on_c, 2, 60, 88
6, 18478, Note_off_c, 2, 60, 0
6, 18480, Note_on_c, 2, 65, 88
6, 18774, Note_off_c, 2, 65, 0
6, 18780, Note_on_c, 2, 67, 88
6, 18838, Note_off_c, 2, 67, 0
6, 18840, Note_on_c, 2, 68, 88
6, 19074, Note_off_c, 2, 68, 0
6, 19080, Note_on_c, 2, 67, 88
6, 19196, Note_off_c, 2, 67, 0
6, 19200, Note_on_c, 2, 65, 88
6, 19258, Note_off_c, 2, 65, 0
6, 19260, Note_on_c, 2, 63, 88
6, 19318, Note_off_c, 2, 63, 0
6, 19320, Note_on_c, 2, 65, 88
6, 19378, Note_off_c, 2, 65, 0
6, 19380, Note_on_c, 2, 67, 88
6, 19438, Note_off_c, 2, 67, 0
6, 19440, Note_on_c, 2, 69, 88
6, 19734, Note_off_c, 2, 69, 0
6, 19740, Note_on_c, 2, 67, 88
6, 19798, Note_off_c, 2, 67, 0
6, 19800, Note_on_c, 2, 69, 88
6, 19858, Note_off_c, 2, 69, 0
6, 19860, Note_on_c, 2, 70, 88
6, 19918, Note_off_c, 2, 70, 0
6, 19920, Note_on_c, 2, 72, 88
6, 19978, Note_off_c, 2, 72, 0
6, 19980, Note_on_c, 2, 69, 88
6, 20038, Note_off_c, 2, 69, 0
6, 20040, Note_on_c, 2, 62, 88
6, 20098, Note_off_c, 2, 62, 0
6, 20100, Note_on_c, 2, 72, 88
6, 20158, Note_off_c, 2, 72, 0
6, 20160, Note_on_c, 2, 70, 88
6, 20381, Note_off_c, 2, 70, 0
6, 20400, Note_on_c, 2, 70, 88
6, 20694, Note_off_c, 2, 70, 0
6, 20700, Note_on_c, 2, 73, 88
6, 20758, Note_off_c, 2, 73, 0
6, 20760, Note_on_c, 2, 72, 88
6, 20818, Note_off_c, 2, 72, 0
6, 20820, Note_on_c, 2, 70, 88
6, 20878, Note_off_c, 2, 70, 0
6, 20880, Note_on_c, 2, 68, 88
6, 20938, Note_off_c, 2, 68, 0
6, 20940, Note_on_c, 2, 67, 88
6, 20998, Note_off_c, 2, 67, 0
6, 21000, Note_on_c, 2, 65, 88
6, 21058, Note_off_c, 2, 65, 0
6, 21060, Note_on_c, 2, 67, 88
6, 21118, Note_off_c, 2, 67, 0
6, 21120, Note_on_c, 2, 68, 88
6, 21341, Note_off_c, 2, 68, 0
6, 21360, Note_on_c, 2, 68, 88
6, 21654, Note_off_c, 2, 68, 0
6, 21660, Note_on_c, 2, 72, 88
6, 21718, Note_off_c, 2, 72, 0
6, 21720, Note_on_c, 2, 70, 88
6, 21778, Note_off_c, 2, 70, 0
6, 21780, Note_on_c, 2, 68, 88
6, 21838, Note_off_c, 2, 68, 0
6, 21840, Note_on_c, 2, 67, 88
6, 21898, Note_off_c, 2, 67, 0
6, 21900, Note_on_c, 2, 65, 88
6, 21958, Note_off_c, 2, 65, 0
6, 21960, Note_on_c, 2, 63, 88
6, 22018, Note_off_c, 2, 63, 0
6, 22020, Note_on_c, 2, 65, 88
6, 22078, Note_off_c, 2, 65, 0
6, 22080, Note_on_c, 2, 67, 88
6, 22314, Note_off_c, 2, 67, 0
6, 22380, Note_on_c, 2, 70, 88
6, 22438, Note_off_c, 2, 70, 0
6, 22440, Note_on_c, 2, 67, 88
6, 22498, Note_off_c, 2, 67, 0
6, 22500, Note_on_c, 2, 63, 88
6, 22558, Note_off_c, 2, 63, 0
6, 22560, Note_on_c, 2, 56, 88
6, 22676, Note_off_c, 2, 56, 0
6, 22860, Note_on_c, 2, 72, 88
6, 22918, Note_off_c, 2, 72, 0
6, 22920, Note_on_c, 2, 69, 88
6, 22978, Note_off_c, 2, 69, 0
6, 22980, Note_on_c, 2, 65, 88
6, 23038, Note_off_c, 2, 65, 0
6, 23040, Note_on_c, 2, 58, 88
6, 23156, Note_off_c, 2, 58, 0
6, 23340, Note_on_c, 2, 74, 88
6, 23398, Note_off_c, 2, 74, 0
6, 23400, Note_on_c, 2, 71, 88
6, 23458, Note_off_c, 2, 71, 0
6, 23460, Note_on_c, 2, 67, 88
6, 23518, Note_off_c, 2, 67, 0
6, 23520, Note_on_c, 2, 60, 88
6, 23636, Note_off_c, 2, 60, 0
6, 24120, Note_on_c, 2, 77, 88
6, 24236, Note_off_c, 2, 77, 0
6, 24240, Note_on_c, 2, 75, 88
6, 24356, Note_off_c, 2, 75, 0
6, 24360, Note_on_c, 2, 68, 88
6, 24476, Note_off_c, 2, 68, 0
6, 24480, Note_on_c, 2, 70, 88
6, 24596, Note_off_c, 2, 70, 0
6, 24600, Note_on_c, 2, 68, 88
6, 24658, Note_off_c, 2, 68, 0
6, 24660, Note_on_c, 2, 67, 88
6, 24718, Note_off_c, 2, 67, 0
6, 24720, Note_on_c, 2, 68, 88
6, 24778, Note_off_c, 2, 68, 0
6, 24780, Note_on_c, 2, 74, 88
6, 24838, Note_off_c, 2, 74, 0
6, 24840, Note_on_c, 2, 70, 88
6, 24898, Note_off_c, 2, 70, 0
6, 24900, Note_on_c, 2, 65, 88
6, 24958, Note_off_c, 2, 65, 0
6, 24960, Note_on_c, 2, 62, 88
6, 25076, Note_off_c, 2, 62, 0
6, 25080, Note_on_c, 2, 63, 88
6, 25314, Note_off_c, 2, 63, 0
6, 25320, Note_on_c, 2, 62, 88
6, 25436, Note_off_c, 2, 62, 0
6, 25440, Note_on_c, 2, 63, 88
6, 25556, Note_off_c, 2, 63, 0
6, 25740, Note_on_c, 2, 70, 88
6, 25798, Note_off_c, 2, 70, 0
6, 25800, Note_on_c, 2, 67, 88
6, 25858, Note_off_c, 2, 67, 0
6, 25860, Note_on_c, 2, 63, 88
6, 25918, Note_off_c, 2, 63, 0
6, 25920, Note_on_c, 2, 56, 88
6, 26036, Note_off_c, 2, 56, 0
6, 26220, Note_on_c, 2, 72, 88
6, 26278, Note_off_c, 2, 72, 0
6, 26280, Note_on_c, 2, 69, 88
6, 26338, Note_off_c, 2, 69, 0
6, 26340, Note_on_c, 2, 65, 88
6, 26398, Note_off_c, 2, 65, 0
6, 26400, Note_on_c, 2, 58, 88
6, 26516, Note_off_c, 2, 58, 0
6, 26700, Note_on_c, 2, 65, 88
6, 26758, Note_off_c, 2, 65, 0
6, 26760, Note_on_c, 2, 62, 88
6, 26818, Note_off_c, 2, 62, 0
6, 26820, Note_on_c, 2, 58, 88
6, 26878, Note_off_c, 2, 58, 0
6, 26880, Note_on_c, 2, 51, 88
6, 26996, Note_off_c, 2, 51, 0
6, 27000, Note_on_c, 2, 61, 88
6, 27116, Note_off_c, 2, 61, 0
6, 27120, Note_on_c, 2, 60, 88
6, 27236, Note_off_c, 2, 60, 0
6, 27240, Note_on_c, 2, 58, 88
6, 27356, Note_off_c, 2, 58, 0
6, 27360, Note_on_c, 2, 56, 88
6, 27418, Note_off_c, 2, 56, 0
6, 27420, Note_on_c, 2, 55, 88
6, 27478, Note_off_c, 2, 55, 0
6, 27480, Note_on_c, 2, 56, 88
6, 27538, Note_off_c, 2, 56, 0
6, 27540, Note_on_c, 2, 58, 88
6, 27598, Note_off_c, 2, 58, 0
6, 27600, Note_on_c, 2, 60, 88
6, 27898, Note_off_c, 2, 60, 0
6, 27900, Note_on_c, 2, 58, 88
6, 27958, Note_off_c, 2, 58, 0
6, 27960, Note_on_c, 2, 60, 88
6, 28018, Note_off_c, 2, 60, 0
6, 28020, Note_on_c, 2, 62, 88
6, 28078, Note_off_c, 2, 62, 0
6, 28080, Note_on_c, 2, 63, 88
6, 28138, Note_off_c, 2, 63, 0
6, 28140, Note_on_c, 2, 60, 88
6, 28198, Note_off_c, 2, 60, 0
6, 28200, Note_on_c, 2, 53, 88
6, 28258, Note_off_c, 2, 53, 0
6, 28260, Note_on_c, 2, 63, 88
6, 28318, Note_off_c, 2, 63, 0
6, 28320, Note_on_c, 2, 62, 88
6, 28436, Note_off_c, 2, 62, 0
6, 28860, Note_on_c, 2, 70, 88
6, 28918, Note_off_c, 2, 70, 0
6, 28920, Note_on_c, 2, 75, 88
6, 28978, Note_off_c, 2, 75, 0
6, 28980, Note_on_c, 2, 79, 88
6, 29038, Note_off_c, 2, 79, 0
6, 29040, Note_on_c, 2, 73, 88
6, 29098, Note_off_c, 2, 73, 0
6, 29100, Note_on_c, 2, 70, 88
6, 29158, Note_off_c, 2, 70, 0
6, 29160, Note_on_c, 2, 73, 88
6, 29218, Note_off_c, 2, 73, 0
6, 29220, Note_on_c, 2, 79, 88
6, 29278, Note_off_c, 2, 79, 0
6, 29280, Note_on_c, 2, 72, 88
6, 29396, Note_off_c, 2, 72, 0
6, 29820, Note_on_c, 2, 68, 88
6, 29878, Note_off_c, 2, 68, 0
6, 29880, Note_on_c, 2, 74, 88
6, 29938, Note_off_c, 2, 74, 0
6, 29940, Note_on_c, 2, 77, 88
6, 29998, Note_off_c, 2, 77, 0
6, 30000, Note_on_c, 2, 72, 88
6, 30058, Note_off_c, 2, 72, 0
6, 30060, Note_on_c, 2, 68, 88
6, 30118, Note_off_c, 2, 68, 0
6, 30120, Note_on_c, 2, 72, 88
6, 30178, Note_off_c, 2, 72, 0
6, 30180, Note_on_c, 2, 77, 88
6, 30238, Note_off_c, 2, 77, 0
6, 30240, Note_on_c, 2, 70, 88
6, 30356, Note_off_c, 2, 70, 0
6, 30840, Note_on_c, 2, 70, 88
6, 30956, Note_off_c, 2, 70, 0
6, 30960, Note_on_c, 2, 68, 88
6, 31430, Note_off_c, 2, 68, 0
6, 31440, Note_on_c, 2, 67, 88
6, 31556, Note_off_c, 2, 67, 0
6, 31560, Note_on_c, 2, 63, 88
6, 31738, Note_off_c, 2, 63, 0
6, 31740, Note_on_c, 2, 62, 88
6, 31798, Note_off_c, 2, 62, 0
6, 31800, Note_on_c, 2, 60, 88
6, 31858, Note_off_c, 2, 60, 0
6, 31860, Note_on_c, 2, 62, 88
6, 31918, Note_off_c, 2, 62, 0
6, 31920, Note_on_c, 2, 58, 88
6, 31978, Note_off_c, 2, 58, 0
6, 31980, Note_on_c, 2, 63, 88
6, 32038, Note_off_c, 2, 63, 0
6, 32040, Note_on_c, 2, 62, 88
6, 32098, Note_off_c, 2, 62, 0
6, 32100, Note_on_c, 2, 63, 88
6, 32158, Note_off_c, 2, 63, 0
6, 32160, Note_on_c, 2, 66, 88
6, 32276, Note_off_c, 2, 66, 0
6, 32280, Note_on_c, 2, 65, 88
6, 32396, Note_off_c, 2, 65, 0
6, 32520, Note_on_c, 2, 62, 88
6, 32578, Note_off_c, 2, 62, 0
6, 32580, Note_on_c, 2, 58, 88
6, 32638, Note_off_c, 2, 58, 0
6, 32640, Note_on_c, 2, 68, 88
6, 32756, Note_off_c, 2, 68, 0
6, 32760, Note_on_c, 2, 67, 88
6, 32861, Note_off_c, 2, 67, 0
6, 32880, Note_on_c, 2, 67, 88
6, 32902, Note_off_c, 2, 67, 0
6, 32903, Note_on_c, 2, 65, 88
6, 32932, Note_off_c, 2, 65, 0
6, 32933, Note_on_c, 2, 67, 88
6, 32954, Note_off_c, 2, 67, 0
6, 32955, Note_on_c, 2, 65, 88
6, 32977, Note_off_c, 2, 65, 0
6, 32978, Note_on_c, 2, 67, 88
6, 32999, Note_off_c, 2, 67, 0
6, 33000, Note_on_c, 2, 65, 88
6, 33116, Note_off_c, 2, 65, 0
6, 33120, Note_on_c, 2, 63, 88
6, 33354, Note_off_c, 2, 63, 0
6, 33480, Note_on_c, 2, 65, 88
6, 33596, Note_off_c, 2, 65, 0
6, 33600, Note_on_c, 2, 58, 88
6, 33953, Note_off_c, 2, 58, 0
6, 33960, Note_on_c, 2, 65, 88
6, 34135, Note_off_c, 2, 65, 0
6, 34140, Note_on_c, 2, 62, 88
6, 34198, Note_off_c, 2, 62, 0
6, 34200, Note_on_c, 2, 63, 88
6, 34258, Note_off_c, 2, 63, 0
6, 34260, Note_on_c, 2, 58, 88
6, 34376, Note_off_c, 2, 58, 0
6, 34380, Note_on_c, 2, 60, 88
6, 34438, Note_off_c, 2, 60, 0
6, 34440, Note_on_c, 2, 62, 88
6, 34498, Note_off_c, 2, 62, 0
6, 34500, Note_on_c, 2, 56, 88
6, 34618, Note_off_c, 2, 56, 0
6, 34620, Note_on_c, 2, 61, 88
6, 34678, Note_off_c, 2, 61, 0
6, 34680, Note_on_c, 2, 58, 88
6, 34738, Note_off_c, 2, 58, 0
6, 34740, Note_on_c, 2, 55, 88
6, 34856, Note_off_c, 2, 55, 0
6, 34860, Note_on_c, 2, 56, 88
6, 34918, Note_off_c, 2, 56, 0
6, 34920, Note_on_c, 2, 53, 88
6, 35036, Note_off_c, 2, 53, 0
6, 35040, Note_on_c, 2, 55, 88
6, 35510, Note_off_c, 2, 55, 0
6, 35510, End_track
7, 0, Start_track
7, 0, Title_t, "Track 4"
7, 0, Program_c, 3, 6
7, 4800, Note_on_c, 3, 58, 88
7, 4858, Note_off_c, 3, 58, 0
7, 4860, Note_on_c, 3, 55, 88
7, 4918, Note_off_c, 3, 55, 0
7, 4920, Note_on_c, 3, 53, 88
7, 4978, Note_off_c, 3, 53, 0
7, 4980, Note_on_c, 3, 55, 88
7, 5038, Note_off_c, 3, 55, 0
7, 5040, Note_on_c, 3, 51, 88
7, 5098, Note_off_c, 3, 51, 0
7, 5100, Note_on_c, 3, 56, 88
7, 5158, Note_off_c, 3, 56, 0
7, 5160, Note_on_c, 3, 55, 88
7, 5218, Note_off_c, 3, 55, 0
7, 5220, Note_on_c, 3, 56, 88
7, 5278, Note_off_c, 3, 56, 0
7, 5280, Note_on_c, 3, 60, 88
7, 5396, Note_off_c, 3, 60, 0
7, 5400, Note_on_c, 3, 58, 88
7, 5516, Note_off_c, 3, 58, 0
7, 5640, Note_on_c, 3, 57, 88
7, 5698, Note_off_c, 3, 57, 0
7, 5700, Note_on_c, 3, 53, 88
7, 5758, Note_off_c, 3, 53, 0
7, 5760, Note_on_c, 3, 63, 88
7, 5876, Note_off_c, 3, 63, 0
7, 5880, Note_on_c, 3, 62, 88
7, 5981, Note_off_c, 3, 62, 0
7, 6000, Note_on_c, 3, 62, 88
7, 6022, Note_off_c, 3, 62, 0
7, 6023, Note_on_c, 3, 60, 88
7, 6052, Note_off_c, 3, 60, 0
7, 6053, Note_on_c, 3, 62, 88
7, 6074, Note_off_c, 3, 62, 0
7, 6075, Note_on_c, 3, 60, 88
7, 6097, Note_off_c, 3, 60, 0
7, 6098, Note_on_c, 3, 62, 88
7, 6119, Note_off_c, 3, 62, 0
7, 6120, Note_on_c, 3, 60, 88
7, 6236, Note_off_c, 3, 60, 0
7, 6240, Note_on_c, 3, 58, 88
7, 6298, Note_off_c, 3, 58, 0
7, 6300, Note_on_c, 3, 65, 88
7, 6358, Note_off_c, 3, 65, 0
7, 6360, Note_on_c, 3, 62, 88
7, 6418, Note_off_c, 3, 62, 0
7, 6420, Note_on_c, 3, 58, 88
7, 6478, Note_off_c, 3, 58, 0
7, 6480, Note_on_c, 3, 56, 88
7, 6538, Note_off_c, 3, 56, 0
7, 6540, Note_on_c, 3, 65, 88
7, 6598, Note_off_c, 3, 65, 0
7, 6600, Note_on_c, 3, 62, 88
7, 6658, Note_off_c, 3, 62, 0
7, 6660, Note_on_c, 3, 56, 88
7, 6718, Note_off_c, 3, 56, 0
7, 6720, Note_on_c, 3, 55, 88
7, 6836, Note_off_c, 3, 55, 0
7, 6840, Note_on_c, 3, 63, 88
7, 6956, Note_off_c, 3, 63, 0
7, 7080, Note_on_c, 3, 51, 88
7, 7196, Note_off_c, 3, 51, 0
7, 7200, Note_on_c, 3, 56, 88
7, 7258, Note_off_c, 3, 56, 0
7, 7260, Note_on_c, 3, 63, 88
7, 7318, Note_off_c, 3, 63, 0
7, 7320, Note_on_c, 3, 60, 88
7, 7378, Note_off_c, 3, 60, 0
7, 7380, Note_on_c, 3, 56, 88
7, 7438, Note_off_c, 3, 56, 0
7, 7440, Note_on_c, 3, 55, 88
7, 7498, Note_off_c, 3, 55, 0
7, 7500, Note_on_c, 3, 63, 88
7, 7558, Note_off_c, 3, 63, 0
7, 7560, Note_on_c, 3, 60, 88
7, 7618, Note_off_c, 3, 60, 0
7, 7620, Note_on_c, 3, 55, 88
7, 7678, Note_off_c, 3, 55, 0
7, 7680, Note_on_c, 3, 53, 88
7, 7796, Note_off_c, 3, 53, 0
7, 7800, Note_on_c, 3, 62, 88
7, 7916, Note_off_c, 3, 62, 0
7, 8040, Note_on_c, 3, 50, 88
7, 8156, Note_off_c, 3, 50, 0
7, 8160, Note_on_c, 3, 55, 88
7, 8218, Note_off_c, 3, 55, 0
7, 8220, Note_on_c, 3, 62, 88
7, 8278, Note_off_c, 3, 62, 0
7, 8280, Note_on_c, 3, 58, 88
7, 8338, Note_off_c, 3, 58, 0
7, 8340, Note_on_c, 3, 55, 88
7, 8398, Note_off_c, 3, 55, 0
7, 8400, Note_on_c, 3, 53, 88
7, 8458, Note_off_c, 3, 53, 0
7, 8460, Note_on_c, 3, 61, 88
7, 8518, Note_off_c, 3, 61, 0
7, 8520, Note_on_c, 3, 58, 88
7, 8578, Note_off_c, 3, 58, 0
7, 8580, Note_on_c, 3, 55, 88
7, 8638, Note_off_c, 3, 55, 0
7, 8640, Note_on_c, 3, 52, 88
7, 8698, Note_off_c, 3, 52, 0
7, 8700, Note_on_c, 3, 60, 88
7, 8758, Note_off_c, 3, 60, 0
7, 8760, Note_on_c, 3, 55, 88
7, 8818, Note_off_c, 3, 55, 0
7, 8820, Note_on_c, 3, 52, 88
7, 8878, Note_off_c, 3, 52, 0
7, 8880, Note_on_c, 3, 53, 88
7, 8938, Note_off_c, 3, 53, 0
7, 8940, Note_on_c, 3, 60, 88
7, 8998, Note_off_c, 3, 60, 0
7, 9000, Note_on_c, 3, 56, 88
7, 9058, Note_off_c, 3, 56, 0
7, 9060, Note_on_c, 3, 53, 88
7, 9118, Note_off_c, 3, 53, 0
7, 9120, Note_on_c, 3, 50, 88
7, 9178, Note_off_c, 3, 50, 0
7, 9180, Note_on_c, 3, 58, 88
7, 9238, Note_off_c, 3, 58, 0
7, 9240, Note_on_c, 3, 53, 88
7, 9298, Note_off_c, 3, 53, 0
7, 9300, Note_on_c, 3, 50, 88
7, 9358, Note_off_c, 3, 50, 0
7, 9360, Note_on_c, 3, 51, 88
7, 9418, Note_off_c, 3, 51, 0
7, 9420, Note_on_c, 3, 58, 88
7, 9478, Note_off_c, 3, 58, 0
7, 9480, Note_on_c, 3, 55, 88
7, 9538, Note_off_c, 3, 55, 0
7, 9540, Note_on_c, 3, 51, 88
7, 9598, Note_off_c, 3, 51, 0
7, 9600, Note_on_c, 3, 46, 88
7, 9716, Note_off_c, 3, 46, 0
7, 9720, Note_on_c, 3, 56, 88
7, 9836, Note_off_c, 3, 56, 0
7, 9840, Note_on_c, 3, 55, 88
7, 9956, Note_off_c, 3, 55, 0
7, 9960, Note_on_c, 3, 53, 88
7, 10076, Note_off_c, 3, 53, 0
7, 10080, Note_on_c, 3, 51, 88
7, 10138, Note_off_c, 3, 51, 0
7, 10140, Note_on_c, 3, 48, 88
7, 10198, Note_off_c, 3, 48, 0
7, 10200, Note_on_c, 3, 50, 88
7, 10258, Note_off_c, 3, 50, 0
7, 10260, Note_on_c, 3, 51, 88
7, 10318, Note_off_c, 3, 51, 0
7, 10320, Note_on_c, 3, 53, 88
7, 10618, Note_off_c, 3, 53, 0
7, 10620, Note_on_c, 3, 51, 88
7, 10678, Note_off_c, 3, 51, 0
7, 10680, Note_on_c, 3, 53, 88
7, 10738, Note_off_c, 3, 53, 0
7, 10740, Note_on_c, 3, 55, 88
7, 10798, Note_off_c, 3, 55, 0
7, 10800, Note_on_c, 3, 56, 88
7, 10858, Note_off_c, 3, 56, 0
7, 10860, Note_on_c, 3, 53, 88
7, 10918, Note_off_c, 3, 53, 0
7, 10920, Note_on_c, 3, 46, 88
7, 10978, Note_off_c, 3, 46, 0
7, 10980, Note_on_c, 3, 56, 88
7, 11038, Note_off_c, 3, 56, 0
7, 11040, Note_on_c, 3, 55, 88
7, 11156, Note_off_c, 3, 55, 0
7, 11160, Note_on_c, 3, 58, 88
7, 11276, Note_off_c, 3, 58, 0
7, 11280, Note_on_c, 3, 55, 88
7, 11396, Note_off_c, 3, 55, 0
7, 11400, Note_on_c, 3, 51, 88
7, 11516, Note_off_c, 3, 51, 0
7, 11520, Note_on_c, 3, 56, 88
7, 11636, Note_off_c, 3, 56, 0
7, 12120, Note_on_c, 3, 56, 88
7, 12236, Note_off_c, 3, 56, 0
7, 12240, Note_on_c, 3, 53, 88
7, 12356, Note_off_c, 3, 53, 0
7, 12360, Note_on_c, 3, 50, 88
7, 12476, Note_off_c, 3, 50, 0
7, 12480, Note_on_c, 3, 55, 88
7, 12596, Note_off_c, 3, 55, 0
7, 13080, Note_on_c, 3, 55, 88
7, 13196, Note_off_c, 3, 55, 0
7, 13200, Note_on_c, 3, 52, 88
7, 13316, Note_off_c, 3, 52, 0
7, 13320, Note_on_c, 3, 48, 88
7, 13436, Note_off_c, 3, 48, 0
7, 13440, Note_on_c, 3, 53, 88
7, 13556, Note_off_c, 3, 53, 0
7, 13560, Note_on_c, 3, 51, 88
7, 13676, Note_off_c, 3, 51, 0
7, 13680, Note_on_c, 3, 50, 88
7, 13796, Note_off_c, 3, 50, 0
7, 13800, Note_on_c, 3, 48, 88
7, 13916, Note_off_c, 3, 48, 0
7, 13920, Note_on_c, 3, 47, 88
7, 14036, Note_off_c, 3, 47, 0
7, 14040, Note_on_c, 3, 43, 88
7, 14156, Note_off_c, 3, 43, 0
7, 14160, Note_on_c, 3, 48, 88
7, 14276, Note_off_c, 3, 48, 0
7, 14280, Note_on_c, 3, 46, 88
7, 14396, Note_off_c, 3, 46, 0
7, 14400, Note_on_c, 3, 45, 88
7, 14516, Note_off_c, 3, 45, 0
7, 14520, Note_on_c, 3, 57, 88
7, 14636, Note_off_c, 3, 57, 0
7, 14640, Note_on_c, 3, 59, 88
7, 14756, Note_off_c, 3, 59, 0
7, 14760, Note_on_c, 3, 55, 88
7, 14876, Note_off_c, 3, 55, 0
7, 14880, Note_on_c, 3, 60, 88
7, 14996, Note_off_c, 3, 60, 0
7, 15000, Note_on_c, 3, 55, 88
7, 15116, Note_off_c, 3, 55, 0
7, 15120, Note_on_c, 3, 56, 88
7, 15236, Note_off_c, 3, 56, 0
7, 15240, Note_on_c, 3, 51, 88
7, 15356, Note_off_c, 3, 51, 0
7, 15360, Note_on_c, 3, 53, 88
7, 15476, Note_off_c, 3, 53, 0
7, 15480, Note_on_c, 3, 51, 88
7, 15538, Note_off_c, 3, 51, 0
7, 15540, Note_on_c, 3, 53, 88
7, 15598, Note_off_c, 3, 53, 0
7, 15600, Note_on_c, 3, 55, 88
7, 15716, Note_off_c, 3, 55, 0
7, 15720, Note_on_c, 3, 43, 88
7, 15836, Note_off_c, 3, 43, 0
7, 15840, Note_on_c, 3, 48, 88
7, 15956, Note_off_c, 3, 48, 0
7, 18720, Note_on_c, 3, 55, 88
7, 18778, Note_off_c, 3, 55, 0
7, 18780, Note_on_c, 3, 51, 88
7, 18838, Note_off_c, 3, 51, 0
7, 18840, Note_on_c, 3, 50, 88
7, 18898, Note_off_c, 3, 50, 0
7, 18900, Note_on_c, 3, 51, 88
7, 18958, Note_off_c, 3, 51, 0
7, 18960, Note_on_c, 3, 48, 88
7, 19018, Note_off_c, 3, 48, 0
7, 19020, Note_on_c, 3, 53, 88
7, 19078, Note_off_c, 3, 53, 0
7, 19080, Note_on_c, 3, 51, 88
7, 19138, Note_off_c, 3, 51, 0
7, 19140, Note_on_c, 3, 53, 88
7, 19198, Note_off_c, 3, 53, 0
7, 19200, Note_on_c, 3, 56, 88
7, 19316, Note_off_c, 3, 56, 0
7, 19320, Note_on_c, 3, 55, 88
7, 19436, Note_off_c, 3, 55, 0
7, 19560, Note_on_c, 3, 54, 88
7, 19618, Note_off_c, 3, 54, 0
7, 19620, Note_on_c, 3, 50, 88
7, 19678, Note_off_c, 3, 50, 0
7, 19680, Note_on_c, 3, 60, 88
7, 19796, Note_off_c, 3, 60, 0
7, 19800, Note_on_c, 3, 58, 88
7, 19901, Note_off_c, 3, 58, 0
7, 19920, Note_on_c, 3, 58, 88
7, 19942, Note_off_c, 3, 58, 0
7, 19943, Note_on_c, 3, 57, 88
7, 19972, Note_off_c, 3, 57, 0
7, 19973, Note_on_c, 3, 58, 88
7, 19994, Note_off_c, 3, 58, 0
7, 19995, Note_on_c, 3, 57, 88
7, 20017, Note_off_c, 3, 57, 0
7, 20018, Note_on_c, 3, 58, 88
7, 20039, Note_off_c, 3, 58, 0
7, 20040, Note_on_c, 3, 57, 88
7, 20156, Note_off_c, 3, 57, 0
7, 20160, Note_on_c, 3, 55, 88
7, 20218, Note_off_c, 3, 55, 0
7, 20220, Note_on_c, 3, 58, 88
7, 20278, Note_off_c, 3, 58, 0
7, 20280, Note_on_c, 3, 56, 88
7, 20338, Note_off_c, 3, 56, 0
7, 20340, Note_on_c, 3, 58, 88
7, 20398, Note_off_c, 3, 58, 0
7, 20400, Note_on_c, 3, 55, 88
7, 20458, Note_off_c, 3, 55, 0
7, 20460, Note_on_c, 3, 56, 88
7, 20518, Note_off_c, 3, 56, 0
7, 20520, Note_on_c, 3, 53, 88
7, 20578, Note_off_c, 3, 53, 0
7, 20580, Note_on_c, 3, 55, 88
7, 20638, Note_off_c, 3, 55, 0
7, 20640, Note_on_c, 3, 52, 88
7, 20698, Note_off_c, 3, 52, 0
7, 20700, Note_on_c, 3, 60, 88
7, 20758, Note_off_c, 3, 60, 0
7, 20760, Note_on_c, 3, 56, 88
7, 20818, Note_off_c, 3, 56, 0
7, 20820, Note_on_c, 3, 53, 88
7, 20878, Note_off_c, 3, 53, 0
7, 20880, Note_on_c, 3, 48, 88
7, 20938, Note_off_c, 3, 48, 0
7, 20940, Note_on_c, 3, 53, 88
7, 20998, Note_off_c, 3, 53, 0
7, 21000, Note_on_c, 3, 48, 88
7, 21058, Note_off_c, 3, 48, 0
7, 21060, Note_on_c, 3, 44, 88
7, 21118, Note_off_c, 3, 44, 0
7, 21120, Note_on_c, 3, 41, 88
7, 21178, Note_off_c, 3, 41, 0
7, 21180, Note_on_c, 3, 56, 88
7, 21238, Note_off_c, 3, 56, 0
7, 21240, Note_on_c, 3, 55, 88
7, 21298, Note_off_c, 3, 55, 0
7, 21300, Note_on_c, 3, 56, 88
7, 21358, Note_off_c, 3, 56, 0
7, 21360, Note_on_c, 3, 53, 88
7, 21418, Note_off_c, 3, 53, 0
7, 21420, Note_on_c, 3, 55, 88
7, 21478, Note_off_c, 3, 55, 0
7, 21480, Note_on_c, 3, 51, 88
7, 21538, Note_off_c, 3, 51, 0
7, 21540, Note_on_c, 3, 53, 88
7, 21598, Note_off_c, 3, 53, 0
7, 21600, Note_on_c, 3, 50, 88
7, 21658, Note_off_c, 3, 50, 0
7, 21660, Note_on_c, 3, 58, 88
7, 21718, Note_off_c, 3, 58, 0
7, 21720, Note_on_c, 3, 55, 88
7, 21778, Note_off_c, 3, 55, 0
7, 21780, Note_on_c, 3, 51, 88
7, 21838, Note_off_c, 3, 51, 0
7, 21840, Note_on_c, 3, 46, 88
7, 21898, Note_off_c, 3, 46, 0
7, 21900, Note_on_c, 3, 51, 88
7, 21958, Note_off_c, 3, 51, 0
7, 21960, Note_on_c, 3, 46, 88
7, 22018, Note_off_c, 3, 46, 0
7, 22020, Note_on_c, 3, 43, 88
7, 22078, Note_off_c, 3, 43, 0
7, 22080, Note_on_c, 3, 39, 88
7, 22196, Note_off_c, 3, 39, 0
7, 22200, Note_on_c, 3, 51, 88
7, 22316, Note_off_c, 3, 51, 0
7, 22320, Note_on_c, 3, 53, 88
7, 22436, Note_off_c, 3, 53, 0
7, 22440, Note_on_c, 3, 55, 88
7, 22556, Note_off_c, 3, 55, 0
7, 22560, Note_on_c, 3, 56, 88
7, 22676, Note_off_c, 3, 56, 0
7, 22680, Note_on_c, 3, 53, 88
7, 22796, Note_off_c, 3, 53, 0
7, 22800, Note_on_c, 3, 55, 88
7, 22916, Note_off_c, 3, 55, 0
7, 22920, Note_on_c, 3, 57, 88
7, 23036, Note_off_c, 3, 57, 0
7, 23040, Note_on_c, 3, 58, 88
7, 23156, Note_off_c, 3, 58, 0
7, 23160, Note_on_c, 3, 55, 88
7, 23276, Note_off_c, 3, 55, 0
7, 23280, Note_on_c, 3, 57, 88
7, 23396, Note_off_c, 3, 57, 0
7, 23400, Note_on_c, 3, 59, 88
7, 23516, Note_off_c, 3, 59, 0
7, 23520, Note_on_c, 3, 60, 88
7, 23636, Note_off_c, 3, 60, 0
7, 23640, Note_on_c, 3, 48, 88
7, 23756, Note_off_c, 3, 48, 0
7, 23760, Note_on_c, 3, 50, 88
7, 23876, Note_off_c, 3, 50, 0
7, 23880, Note_on_c, 3, 51, 88
7, 24058, Note_off_c, 3, 51, 0
7, 24060, Note_on_c, 3, 50, 88
7, 24118, Note_off_c, 3, 50, 0
7, 24120, Note_on_c, 3, 48, 88
7, 24178, Note_off_c, 3, 48, 0
7, 24180, Note_on_c, 3, 50, 88
7, 24238, Note_off_c, 3, 50, 0
7, 24240, Note_on_c, 3, 46, 88
7, 24298, Note_off_c, 3, 46, 0
7, 24300, Note_on_c, 3, 51, 88
7, 24358, Note_off_c, 3, 51, 0
7, 24360, Note_on_c, 3, 50, 88
7, 24418, Note_off_c, 3, 50, 0
7, 24420, Note_on_c, 3, 51, 88
7, 24478, Note_off_c, 3, 51, 0
7, 24480, Note_on_c, 3, 55, 88
7, 24596, Note_off_c, 3, 55, 0
7, 24600, Note_on_c, 3, 53, 88
7, 24716, Note_off_c, 3, 53, 0
7, 24840, Note_on_c, 3, 50, 88
7, 24898, Note_off_c, 3, 50, 0
7, 24900, Note_on_c, 3, 46, 88
7, 24958, Note_off_c, 3, 46, 0
7, 24960, Note_on_c, 3, 56, 88
7, 25076, Note_off_c, 3, 56, 0
7, 25080, Note_on_c, 3, 55, 88
7, 25181, Note_off_c, 3, 55, 0
7, 25200, Note_on_c, 3, 55, 88
7, 25222, Note_off_c, 3, 55, 0
7, 25223, Note_on_c, 3, 53, 88
7, 25252, Note_off_c, 3, 53, 0
7, 25253, Note_on_c, 3, 55, 88
7, 25274, Note_off_c, 3, 55, 0
7, 25275, Note_on_c, 3, 53, 88
7, 25297, Note_off_c, 3, 53, 0
7, 25298, Note_on_c, 3, 55, 88
7, 25319, Note_off_c, 3, 55, 0
7, 25320, Note_on_c, 3, 53, 88
7, 25436, Note_off_c, 3, 53, 0
7, 25440, Note_on_c, 3, 51, 88
7, 25556, Note_off_c, 3, 51, 0
7, 25560, Note_on_c, 3, 39, 88
7, 25676, Note_off_c, 3, 39, 0
7, 25680, Note_on_c, 3, 41, 88
7, 25796, Note_off_c, 3, 41, 0
7, 25800, Note_on_c, 3, 43, 88
7, 25916, Note_off_c, 3, 43, 0
7, 25920, Note_on_c, 3, 44, 88
7, 26036, Note_off_c, 3, 44, 0
7, 26040, Note_on_c, 3, 41, 88
7, 26156, Note_off_c, 3, 41, 0
7, 26160, Note_on_c, 3, 43, 88
7, 26276, Note_off_c, 3, 43, 0
7, 26280, Note_on_c, 3, 45, 88
7, 26396, Note_off_c, 3, 45, 0
7, 26400, Note_on_c, 3, 46, 88
7, 26501, Note_off_c, 3, 46, 0
7, 26520, Note_on_c, 3, 46, 88
7, 26636, Note_off_c, 3, 46, 0
7, 26640, Note_on_c, 3, 48, 88
7, 26756, Note_off_c, 3, 48, 0
7, 26760, Note_on_c, 3, 50, 88
7, 26876, Note_off_c, 3, 50, 0
7, 26880, Note_on_c, 3, 51, 88
7, 27648, Note_off_c, 3, 51, 0
7, 27660, Note_on_c, 3, 50, 88
7, 27718, Note_off_c, 3, 50, 0
7, 27720, Note_on_c, 3, 51, 88
7, 27778, Note_off_c, 3, 51, 0
7, 27780, Note_on_c, 3, 53, 88
7, 27838, Note_off_c, 3, 53, 0
7, 27840, Note_on_c, 3, 55, 88
7, 28015, Note_off_c, 3, 55, 0
7, 28020, Note_on_c, 3, 53, 88
7, 28078, Note_off_c, 3, 53, 0
7, 28080, Note_on_c, 3, 51, 88
7, 28196, Note_off_c, 3, 51, 0
7, 28200, Note_on_c, 3, 53, 88
7, 28316, Note_off_c, 3, 53, 0
7, 28320, Note_on_c, 3, 46, 88
7, 28378, Note_off_c, 3, 46, 0
7, 28380, Note_on_c, 3, 53, 88
7, 28438, Note_off_c, 3, 53, 0
7, 28440, Note_on_c, 3, 50, 88
7, 28498, Note_off_c, 3, 50, 0
7, 28500, Note_on_c, 3, 46, 88
7, 28558, Note_off_c, 3, 46, 0
7, 28560, Note_on_c, 3, 44, 88
7, 28618, Note_off_c, 3, 44, 0
7, 28620, Note_on_c, 3, 53, 88
7, 28678, Note_off_c, 3, 53, 0
7, 28680, Note_on_c, 3, 50, 88
7, 28738, Note_off_c, 3, 50, 0
7, 28740, Note_on_c, 3, 44, 88
7, 28798, Note_off_c, 3, 44, 0
7, 28800, Note_on_c, 3, 43, 88
7, 28916, Note_off_c, 3, 43, 0
7, 28920, Note_on_c, 3, 55, 88
7, 29036, Note_off_c, 3, 55, 0
7, 29160, Note_on_c, 3, 39, 88
7, 29276, Note_off_c, 3, 39, 0
7, 29280, Note_on_c, 3, 44, 88
7, 29338, Note_off_c, 3, 44, 0
7, 29340, Note_on_c, 3, 51, 88
7, 29398, Note_off_c, 3, 51, 0
7, 29400, Note_on_c, 3, 48, 88
7, 29458, Note_off_c, 3, 48, 0
7, 29460, Note_on_c, 3, 44, 88
7, 29518, Note_off_c, 3, 44, 0
7, 29520, Note_on_c, 3, 43, 88
7, 29578, Note_off_c, 3, 43, 0
7, 29580, Note_on_c, 3, 51, 88
7, 29638, Note_off_c, 3, 51, 0
7, 29640, Note_on_c, 3, 48, 88
7, 29698, Note_off_c, 3, 48, 0
7, 29700, Note_on_c, 3, 43, 88
7, 29758, Note_off_c, 3, 43, 0
7, 29760, Note_on_c, 3, 41, 88
7, 29876, Note_off_c, 3, 41, 0
7, 29880, Note_on_c, 3, 53, 88
7, 29996, Note_off_c, 3, 53, 0
7, 30120, Note_on_c, 3, 38, 88
7, 30236, Note_off_c, 3, 38, 0
7, 30240, Note_on_c, 3, 43, 88
7, 30298, Note_off_c, 3, 43, 0
7, 30300, Note_on_c, 3, 50, 88
7, 30358, Note_off_c, 3, 50, 0
7, 30360, Note_on_c, 3, 46, 88
7, 30418, Note_off_c, 3, 46, 0
7, 30420, Note_on_c, 3, 43, 88
7, 30478, Note_off_c, 3, 43, 0
7, 30480, Note_on_c, 3, 41, 88
7, 30538, Note_off_c, 3, 41, 0
7, 30540, Note_on_c, 3, 50, 88
7, 30598, Note_off_c, 3, 50, 0
7, 30600, Note_on_c, 3, 46, 88
7, 30658, Note_off_c, 3, 46, 0
7, 30660, Note_on_c, 3, 41, 88
7, 30718, Note_off_c, 3, 41, 0
7, 30720, Note_on_c, 3, 40, 88
7, 30778, Note_off_c, 3, 40, 0
7, 30780, Note_on_c, 3, 48, 88
7, 30838, Note_off_c, 3, 48, 0
7, 30840, Note_on_c, 3, 43, 88
7, 30898, Note_off_c, 3, 43, 0
7, 30900, Note_on_c, 3, 40, 88
7, 30958, Note_off_c, 3, 40, 0
7, 30960, Note_on_c, 3, 41, 88
7, 31018, Note_off_c, 3, 41, 0
7, 31020, Note_on_c, 3, 48, 88
7, 31078, Note_off_c, 3, 48, 0
7, 31080, Note_on_c, 3, 44, 88
7, 31138, Note_off_c, 3, 44, 0
7, 31140, Note_on_c, 3, 41, 88
7, 31198, Note_off_c, 3, 41, 0
7, 31200, Note_on_c, 3, 38, 88
7, 31258, Note_off_c, 3, 38, 0
7, 31260, Note_on_c, 3, 46, 88
7, 31318, Note_off_c, 3, 46, 0
7, 31320, Note_on_c, 3, 41, 88
7, 31378, Note_off_c, 3, 41, 0
7, 31380, Note_on_c, 3, 38, 88
7, 31438, Note_off_c, 3, 38, 0
7, 31440, Note_on_c, 3, 39, 88
7, 31498, Note_off_c, 3, 39, 0
7, 31500, Note_on_c, 3, 46, 88
7, 31558, Note_off_c, 3, 46, 0
7, 31560, Note_on_c, 3, 43, 88
7, 31618, Note_off_c, 3, 43, 0
7, 31620, Note_on_c, 3, 39, 88
7, 31678, Note_off_c, 3, 39, 0
7, 31680, Note_on_c, 3, 46, 88
7, 31796, Note_off_c, 3, 46, 0
7, 31800, Note_on_c, 3, 53, 88
7, 31916, Note_off_c, 3, 53, 0
7, 31920, Note_on_c, 3, 50, 88
7, 32036, Note_off_c, 3, 50, 0
7, 32040, Note_on_c, 3, 46, 88
7, 32156, Note_off_c, 3, 46, 0
7, 32160, Note_on_c, 3, 57, 88
7, 32276, Note_off_c, 3, 57, 0
7, 32280, Note_on_c, 3, 56, 88
7, 32396, Note_off_c, 3, 56, 0
7, 32460, Note_on_c, 3, 56, 88
7, 32518, Note_off_c, 3, 56, 0
7, 32520, Note_on_c, 3, 53, 88
7, 32578, Note_off_c, 3, 53, 0
7, 32580, Note_on_c, 3, 50, 88
7, 32638, Note_off_c, 3, 50, 0
7, 32640, Note_on_c, 3, 46, 88
7, 32756, Note_off_c, 3, 46, 0
7, 32760, Note_on_c, 3, 51, 88
7, 32876, Note_off_c, 3, 51, 0
7, 32880, Note_on_c, 3, 58, 88
7, 32996, Note_off_c, 3, 58, 0
7, 33000, Note_on_c, 3, 59, 88
7, 33116, Note_off_c, 3, 59, 0
7, 33120, Note_on_c, 3, 60, 88
7, 33401, Note_off_c, 3, 60, 0
7, 33420, Note_on_c, 3, 60, 88
7, 33478, Note_off_c, 3, 60, 0
7, 33480, Note_on_c, 3, 56, 88
7, 33538, Note_off_c, 3, 56, 0
7, 33540, Note_on_c, 3, 53, 88
7, 33598, Note_off_c, 3, 53, 0
7, 33600, Note_on_c, 3, 50, 88
7, 33716, Note_off_c, 3, 50, 0
7, 33720, Note_on_c, 3, 46, 88
7, 33836, Note_off_c, 3, 46, 0
7, 33900, Note_on_c, 3, 51, 88
7, 33958, Note_off_c, 3, 51, 0
7, 33960, Note_on_c, 3, 48, 88
7, 34018, Note_off_c, 3, 48, 0
7, 34020, Note_on_c, 3, 44, 88
7, 34078, Note_off_c, 3, 44, 0
7, 34080, Note_on_c, 3, 46, 88
7, 34550, Note_off_c, 3, 46, 0
7, 34560, Note_on_c, 3, 39, 88
7, 35505, Note_off_c, 3, 39, 0
7, 35505, End_track
0, 0, End_of_file
