0, 0, Header, 1, 6, 240
1, 0, Start_track
1, 0, Time_signature, 4, 2, 24, 8
1, 0, Tempo, 810810
1, 0, SMPTE_offset, 64, 0, 0, 0, 93
1, 0, End_track
2, 0, Start_track
2, 0, Title_t, "(C) & (P) 1993"
2, 127, End_track
3, 0, Start_track
3, 0, Title_t, "CCARH,Stanford"
3, 0, End_track
4, 0, Start_track
4, 0, Title_t, "Track 1"
4, 0, Program_c, 0, 6
4, 2400, Note_on_c, 0, 70, 88
4, 2634, Note_off_c, 0, 70, 0
4, 2640, Note_on_c, 0, 75, 88
4, 2996, Note_off_c, 0, 75, 0
4, 3000, Note_on_c, 0, 78, 88
4, 3116, Note_off_c, 0, 78, 0
4, 3120, Note_on_c, 0, 77, 88
4, 3236, Note_off_c, 0, 77, 0
4, 3240, Note_on_c, 0, 75, 88
4, 3356, Note_off_c, 0, 75, 0
4, 3360, Note_on_c, 0, 73, 88
4, 3476, Note_off_c, 0, 73, 0
4, 3480, Note_on_c, 0, 75, 88
4, 3596, Note_off_c, 0, 75, 0
4, 3600, Note_on_c, 0, 77, 88
4, 3834, Note_off_c, 0, 77, 0
4, 3840, Note_on_c, 0, 70, 88
4, 4074, Note_off_c, 0, 70, 0
4, 4080, Note_on_c, 0, 75, 88
4, 4433, Note_off_c, 0, 75, 0
4, 4440, Note_on_c, 0, 73, 88
4, 4549, Note_off_c, 0, 73, 0
4, 4560, Note_on_c, 0, 73, 88
4, 4596, Note_off_c, 0, 73, 0
4, 4598, Note_on_c, 0, 72, 88
4, 4627, Note_off_c, 0, 72, 0
4, 4628, Note_on_c, 0, 73, 88
4, 4657, Note_off_c, 0, 73, 0
4, 4658, Note_on_c, 0, 72, 88
4, 4687, Note_off_c, 0, 72, 0
4, 4688, Note_on_c, 0, 73, 88
4, 4709, Note_off_c, 0, 73, 0
4, 4710, Note_on_c, 0, 72, 88
4, 4732, Note_off_c, 0, 72, 0
4, 4733, Note_on_c, 0, 73, 88
4, 4754, Note_off_c, 0, 73, 0
4, 4755, Note_on_c, 0, 72, 88
4, 4799, Note_off_c, 0, 72, 0
4, 4800, Note_on_c, 0, 70, 88
4, 4916, Note_off_c, 0, 70, 0
4, 4920, Note_on_c, 0, 72, 88
4, 5036, Note_off_c, 0, 72, 0
4, 5040, Note_on_c, 0, 73, 88
4, 5630, Note_off_c, 0, 73, 0
4, 5640, Note_on_c, 0, 71, 88
4, 5756, Note_off_c, 0, 71, 0
4, 5760, Note_on_c, 0, 70, 88
4, 5994, Note_off_c, 0, 70, 0
4, 6000, Note_on_c, 0, 75, 88
4, 6353, Note_off_c, 0, 75, 0
4, 6360, Note_on_c, 0, 74, 88
4, 6476, Note_off_c, 0, 74, 0
4, 6480, Note_on_c, 0, 75, 88
4, 6596, Note_off_c, 0, 75, 0
4, 6600, Note_on_c, 0, 77, 88
4, 6716, Note_off_c, 0, 77, 0
4, 6720, Note_on_c, 0, 78, 88
4, 6954, Note_off_c, 0, 78, 0
4, 6960, Note_on_c, 0, 77, 88
4, 7076, Note_off_c, 0, 77, 0
4, 7080, Note_on_c, 0, 78, 88
4, 7196, Note_off_c, 0, 78, 0
4, 7200, Note_on_c, 0, 80, 88
4, 7316, Note_off_c, 0, 80, 0
4, 7320, Note_on_c, 0, 77, 88
4, 7436, Note_off_c, 0, 77, 0
4, 7440, Note_on_c, 0, 78, 88
4, 7556, Note_off_c, 0, 78, 0
4, 7560, Note_on_c, 0, 80, 88
4, 7676, Note_off_c, 0, 80, 0
4, 7680, Note_on_c, 0, 82, 88
4, 7796, Note_off_c, 0, 82, 0
4, 7800, Note_on_c, 0, 80, 88
4, 7916, Note_off_c, 0, 80, 0
4, 7920, Note_on_c, 0, 78, 88
4, 8036, Note_off_c, 0, 78, 0
4, 8040, Note_on_c, 0, 77, 88
4, 8156, Note_off_c, 0, 77, 0
4, 8160, Note_on_c, 0, 78, 88
4, 8394, Note_off_c, 0, 78, 0
4, 8400, Note_on_c, 0, 77, 88
4, 8516, Note_off_c, 0, 77, 0
4, 8520, Note_on_c, 0, 75, 88
4, 8636, Note_off_c, 0, 75, 0
4, 8640, Note_on_c, 0, 74, 88
4, 8756, Note_off_c, 0, 74, 0
4, 8760, Note_on_c, 0, 75, 88
4, 8994, Note_off_c, 0, 75, 0
4, 9000, Note_on_c, 0, 74, 88
4, 9116, Note_off_c, 0, 74, 0
4, 9120, Note_on_c, 0, 75, 88
4, 9236, Note_off_c, 0, 75, 0
4, 9240, Note_on_c, 0, 73, 88
4, 9356, Note_off_c, 0, 73, 0
4, 9360, Note_on_c, 0, 71, 88
4, 9716, Note_off_c, 0, 71, 0
4, 9720, Note_on_c, 0, 70, 88
4, 9778, Note_off_c, 0, 70, 0
4, 9780, Note_on_c, 0, 68, 88
4, 9838, Note_off_c, 0, 68, 0
4, 9840, Note_on_c, 0, 70, 88
4, 9956, Note_off_c, 0, 70, 0
4, 9960, Note_on_c, 0, 71, 88
4, 10018, Note_off_c, 0, 71, 0
4, 10020, Note_on_c, 0, 73, 88
4, 10078, Note_off_c, 0, 73, 0
4, 10080, Note_on_c, 0, 75, 88
4, 10196, Note_off_c, 0, 75, 0
4, 10200, Note_on_c, 0, 77, 88
4, 10258, Note_off_c, 0, 77, 0
4, 10260, Note_on_c, 0, 78, 88
4, 10318, Note_off_c, 0, 78, 0
4, 10320, Note_on_c, 0, 77, 88
4, 10495, Note_off_c, 0, 77, 0
4, 10500, Note_on_c, 0, 75, 88
4, 10558, Note_off_c, 0, 75, 0
4, 10560, Note_on_c, 0, 74, 88
4, 10794, Note_off_c, 0, 74, 0
4, 10800, Note_on_c, 0, 75, 88
4, 10916, Note_off_c, 0, 75, 0
4, 10920, Note_on_c, 0, 73, 88
4, 11036, Note_off_c, 0, 73, 0
4, 11040, Note_on_c, 0, 71, 88
4, 11156, Note_off_c, 0, 71, 0
4, 11160, Note_on_c, 0, 70, 88
4, 11276, Note_off_c, 0, 70, 0
4, 11280, Note_on_c, 0, 68, 88
4, 11396, Note_off_c, 0, 68, 0
4, 11400, Note_on_c, 0, 66, 88
4, 11516, Note_off_c, 0, 66, 0
4, 11520, Note_on_c, 0, 65, 88
4, 11636, Note_off_c, 0, 65, 0
4, 11640, Note_on_c, 0, 66, 88
4, 11756, Note_off_c, 0, 66, 0
4, 11760, Note_on_c, 0, 68, 88
4, 12113, Note_off_c, 0, 68, 0
4, 12120, Note_on_c, 0, 66, 88
4, 12178, Note_off_c, 0, 66, 0
4, 12180, Note_on_c, 0, 65, 88
4, 12238, Note_off_c, 0, 65, 0
4, 12240, Note_on_c, 0, 66, 88
4, 12356, Note_off_c, 0, 66, 0
4, 12360, Note_on_c, 0, 68, 88
4, 12476, Note_off_c, 0, 68, 0
4, 12480, Note_on_c, 0, 70, 88
4, 12714, Note_off_c, 0, 70, 0
4, 12720, Note_on_c, 0, 71, 88
4, 12836, Note_off_c, 0, 71, 0
4, 12840, Note_on_c, 0, 73, 88
4, 12898, Note_off_c, 0, 73, 0
4, 12900, Note_on_c, 0, 75, 88
4, 12958, Note_off_c, 0, 75, 0
4, 12960, Note_on_c, 0, 68, 88
4, 13194, Note_off_c, 0, 68, 0
4, 13320, Note_on_c, 0, 70, 88
4, 13436, Note_off_c, 0, 70, 0
4, 13440, Note_on_c, 0, 71, 88
4, 13556, Note_off_c, 0, 71, 0
4, 13560, Note_on_c, 0, 73, 88
4, 13676, Note_off_c, 0, 73, 0
4, 13680, Note_on_c, 0, 75, 88
4, 13796, Note_off_c, 0, 75, 0
4, 13800, Note_on_c, 0, 77, 88
4, 13916, Note_off_c, 0, 77, 0
4, 13920, Note_on_c, 0, 78, 88
4, 14036, Note_off_c, 0, 78, 0
4, 14040, Note_on_c, 0, 80, 88
4, 14156, Note_off_c, 0, 80, 0
4, 14160, Note_on_c, 0, 82, 88
4, 14276, Note_off_c, 0, 82, 0
4, 14280, Note_on_c, 0, 83, 88
4, 14516, Note_off_c, 0, 83, 0
4, 14520, Note_on_c, 0, 73, 88
4, 14636, Note_off_c, 0, 73, 0
4, 14640, Note_on_c, 0, 78, 88
4, 15110, Note_off_c, 0, 78, 0
4, 15120, Note_on_c, 0, 77, 88
4, 15594, Note_off_c, 0, 77, 0
4, 15600, Note_on_c, 0, 75, 88
4, 15716, Note_off_c, 0, 75, 0
4, 15720, Note_on_c, 0, 73, 88
4, 15836, Note_off_c, 0, 73, 0
4, 15840, Note_on_c, 0, 72, 88
4, 15956, Note_off_c, 0, 72, 0
4, 15960, Note_on_c, 0, 74, 88
4, 16076, Note_off_c, 0, 74, 0
4, 16080, Note_on_c, 0, 75, 88
4, 16196, Note_off_c, 0, 75, 0
4, 16200, Note_on_c, 0, 77, 88
4, 16316, Note_off_c, 0, 77, 0
4, 16320, Note_on_c, 0, 78, 88
4, 16554, Note_off_c, 0, 78, 0
4, 16560, Note_on_c, 0, 77, 88
4, 16676, Note_off_c, 0, 77, 0
4, 16680, Note_on_c, 0, 75, 88
4, 16796, Note_off_c, 0, 75, 0
4, 16800, Note_on_c, 0, 73, 88
4, 16916, Note_off_c, 0, 73, 0
4, 16920, Note_on_c, 0, 75, 88
4, 17036, Note_off_c, 0, 75, 0
4, 17040, Note_on_c, 0, 77, 88
4, 17156, Note_off_c, 0, 77, 0
4, 17160, Note_on_c, 0, 78, 88
4, 17276, Note_off_c, 0, 78, 0
4, 17280, Note_on_c, 0, 73, 88
4, 17509, Note_off_c, 0, 73, 0
4, 17520, Note_on_c, 0, 73, 88
4, 17556, Note_off_c, 0, 73, 0
4, 17558, Note_on_c, 0, 72, 88
4, 17587, Note_off_c, 0, 72, 0
4, 17588, Note_on_c, 0, 73, 88
4, 17617, Note_off_c, 0, 73, 0
4, 17618, Note_on_c, 0, 72, 88
4, 17647, Note_off_c, 0, 72, 0
4, 17648, Note_on_c, 0, 73, 88
4, 17669, Note_off_c, 0, 73, 0
4, 17670, Note_on_c, 0, 72, 88
4, 17692, Note_off_c, 0, 72, 0
4, 17693, Note_on_c, 0, 73, 88
4, 17714, Note_off_c, 0, 73, 0
4, 17715, Note_on_c, 0, 72, 88
4, 17759, Note_off_c, 0, 72, 0
4, 17760, Note_on_c, 0, 70, 88
4, 17994, Note_off_c, 0, 70, 0
4, 18240, Note_on_c, 0, 70, 88
4, 18474, Note_off_c, 0, 70, 0
4, 18480, Note_on_c, 0, 77, 88
4, 18833, Note_off_c, 0, 77, 0
4, 18840, Note_on_c, 0, 78, 88
4, 18956, Note_off_c, 0, 78, 0
4, 18960, Note_on_c, 0, 77, 88
4, 19076, Note_off_c, 0, 77, 0
4, 19080, Note_on_c, 0, 75, 88
4, 19196, Note_off_c, 0, 75, 0
4, 19200, Note_on_c, 0, 73, 88
4, 19316, Note_off_c, 0, 73, 0
4, 19320, Note_on_c, 0, 75, 88
4, 19436, Note_off_c, 0, 75, 0
4, 19440, Note_on_c, 0, 77, 88
4, 19674, Note_off_c, 0, 77, 0
4, 19680, Note_on_c, 0, 70, 88
4, 19914, Note_off_c, 0, 70, 0
4, 19920, Note_on_c, 0, 75, 88
4, 20276, Note_off_c, 0, 75, 0
4, 20280, Note_on_c, 0, 73, 88
4, 20389, Note_off_c, 0, 73, 0
4, 20400, Note_on_c, 0, 73, 88
4, 20436, Note_off_c, 0, 73, 0
4, 20438, Note_on_c, 0, 72, 88
4, 20467, Note_off_c, 0, 72, 0
4, 20468, Note_on_c, 0, 73, 88
4, 20497, Note_off_c, 0, 73, 0
4, 20498, Note_on_c, 0, 72, 88
4, 20527, Note_off_c, 0, 72, 0
4, 20528, Note_on_c, 0, 73, 88
4, 20549, Note_off_c, 0, 73, 0
4, 20550, Note_on_c, 0, 72, 88
4, 20572, Note_off_c, 0, 72, 0
4, 20573, Note_on_c, 0, 73, 88
4, 20594, Note_off_c, 0, 73, 0
4, 20595, Note_on_c, 0, 72, 88
4, 20639, Note_off_c, 0, 72, 0
4, 20640, Note_on_c, 0, 70, 88
4, 20874, Note_off_c, 0, 70, 0
4, 21000, Note_on_c, 0, 80, 88
4, 21236, Note_off_c, 0, 80, 0
4, 21240, Note_on_c, 0, 78, 88
4, 21356, Note_off_c, 0, 78, 0
4, 21360, Note_on_c, 0, 77, 88
4, 21654, Note_off_c, 0, 77, 0
4, 21660, Note_on_c, 0, 75, 88
4, 21718, Note_off_c, 0, 75, 0
4, 21720, Note_on_c, 0, 77, 88
4, 21778, Note_off_c, 0, 77, 0
4, 21780, Note_on_c, 0, 78, 88
4, 21838, Note_off_c, 0, 78, 0
4, 21840, Note_on_c, 0, 77, 88
4, 21869, Note_off_c, 0, 77, 0
4, 21870, Note_on_c, 0, 75, 88
4, 21892, Note_off_c, 0, 75, 0
4, 21893, Note_on_c, 0, 77, 88
4, 21914, Note_off_c, 0, 77, 0
4, 21915, Note_on_c, 0, 75, 88
4, 21937, Note_off_c, 0, 75, 0
4, 21938, Note_on_c, 0, 77, 88
4, 21959, Note_off_c, 0, 77, 0
4, 21960, Note_on_c, 0, 75, 88
4, 22018, Note_off_c, 0, 75, 0
4, 22020, Note_on_c, 0, 77, 88
4, 22078, Note_off_c, 0, 77, 0
4, 22080, Note_on_c, 0, 77, 88
4, 22314, Note_off_c, 0, 77, 0
4, 22320, Note_on_c, 0, 82, 88
4, 22673, Note_off_c, 0, 82, 0
4, 22680, Note_on_c, 0, 83, 88
4, 22796, Note_off_c, 0, 83, 0
4, 22800, Note_on_c, 0, 82, 88
4, 22916, Note_off_c, 0, 82, 0
4, 22920, Note_on_c, 0, 80, 88
4, 23036, Note_off_c, 0, 80, 0
4, 23040, Note_on_c, 0, 79, 88
4, 23156, Note_off_c, 0, 79, 0
4, 23160, Note_on_c, 0, 80, 88
4, 23276, Note_off_c, 0, 80, 0
4, 23280, Note_on_c, 0, 82, 88
4, 23514, Note_off_c, 0, 82, 0
4, 23520, Note_on_c, 0, 75, 88
4, 23754, Note_off_c, 0, 75, 0
4, 23760, Note_on_c, 0, 80, 88
4, 24116, Note_off_c, 0, 80, 0
4, 24120, Note_on_c, 0, 78, 88
4, 24236, Note_off_c, 0, 78, 0
4, 24240, Note_on_c, 0, 77, 88
4, 24710, Note_off_c, 0, 77, 0
4, 24720, Note_on_c, 0, 75, 88
4, 25194, Note_off_c, 0, 75, 0
4, 25200, Note_on_c, 0, 80, 88
4, 25553, Note_off_c, 0, 80, 0
4, 25560, Note_on_c, 0, 82, 88
4, 25676, Note_off_c, 0, 82, 0
4, 25680, Note_on_c, 0, 80, 88
4, 25796, Note_off_c, 0, 80, 0
4, 25800, Note_on_c, 0, 78, 88
4, 25916, Note_off_c, 0, 78, 0
4, 25920, Note_on_c, 0, 77, 88
4, 26036, Note_off_c, 0, 77, 0
4, 26040, Note_on_c, 0, 78, 88
4, 26156, Note_off_c, 0, 78, 0
4, 26160, Note_on_c, 0, 80, 88
4, 26394, Note_off_c, 0, 80, 0
4, 26400, Note_on_c, 0, 73, 88
4, 26634, Note_off_c, 0, 73, 0
4, 26640, Note_on_c, 0, 78, 88
4, 26996, Note_off_c, 0, 78, 0
4, 27000, Note_on_c, 0, 76, 88
4, 27116, Note_off_c, 0, 76, 0
4, 27120, Note_on_c, 0, 75, 88
4, 27236, Note_off_c, 0, 75, 0
4, 27240, Note_on_c, 0, 80, 88
4, 27356, Note_off_c, 0, 80, 0
4, 27360, Note_on_c, 0, 73, 88
4, 27476, Note_off_c, 0, 73, 0
4, 27480, Note_on_c, 0, 78, 88
4, 27714, Note_off_c, 0, 78, 0
4, 27720, Note_on_c, 0, 77, 88
4, 27836, Note_off_c, 0, 77, 0
4, 27840, Note_on_c, 0, 78, 88
4, 28074, Note_off_c, 0, 78, 0
4, 28080, Note_on_c, 0, 73, 88
4, 28433, Note_off_c, 0, 73, 0
4, 28440, Note_on_c, 0, 71, 88
4, 28556, Note_off_c, 0, 71, 0
4, 28560, Note_on_c, 0, 73, 88
4, 28676, Note_off_c, 0, 73, 0
4, 28680, Note_on_c, 0, 75, 88
4, 28796, Note_off_c, 0, 75, 0
4, 28800, Note_on_c, 0, 77, 88
4, 28916, Note_off_c, 0, 77, 0
4, 28920, Note_on_c, 0, 75, 88
4, 29036, Note_off_c, 0, 75, 0
4, 29040, Note_on_c, 0, 73, 88
4, 29274, Note_off_c, 0, 73, 0
4, 29280, Note_on_c, 0, 80, 88
4, 29514, Note_off_c, 0, 80, 0
4, 29520, Note_on_c, 0, 73, 88
4, 29876, Note_off_c, 0, 73, 0
4, 29880, Note_on_c, 0, 75, 88
4, 29996, Note_off_c, 0, 75, 0
4, 30000, Note_on_c, 0, 77, 88
4, 30234, Note_off_c, 0, 77, 0
4, 30240, Note_on_c, 0, 78, 88
4, 30836, Note_off_c, 0, 78, 0
4, 30840, Note_on_c, 0, 77, 88
4, 30956, Note_off_c, 0, 77, 0
4, 30960, Note_on_c, 0, 75, 88
4, 31076, Note_off_c, 0, 75, 0
4, 31080, Note_on_c, 0, 73, 88
4, 31196, Note_off_c, 0, 73, 0
4, 31200, Note_on_c, 0, 72, 88
4, 31434, Note_off_c, 0, 72, 0
4, 31440, Note_on_c, 0, 74, 88
4, 31674, Note_off_c, 0, 74, 0
4, 31680, Note_on_c, 0, 75, 88
4, 32150, Note_off_c, 0, 75, 0
4, 32160, Note_on_c, 0, 73, 88
4, 32630, Note_off_c, 0, 73, 0
4, 32640, Note_on_c, 0, 71, 88
4, 32756, Note_off_c, 0, 71, 0
4, 32760, Note_on_c, 0, 73, 88
4, 32876, Note_off_c, 0, 73, 0
4, 32880, Note_on_c, 0, 75, 88
4, 32996, Note_off_c, 0, 75, 0
4, 33000, Note_on_c, 0, 76, 88
4, 33116, Note_off_c, 0, 76, 0
4, 33120, Note_on_c, 0, 70, 88
4, 33236, Note_off_c, 0, 70, 0
4, 33240, Note_on_c, 0, 71, 88
4, 33356, Note_off_c, 0, 71, 0
4, 33360, Note_on_c, 0, 73, 88
4, 33476, Note_off_c, 0, 73, 0
4, 33480, Note_on_c, 0, 75, 88
4, 33596, Note_off_c, 0, 75, 0
4, 33600, Note_on_c, 0, 71, 88
4, 33716, Note_off_c, 0, 71, 0
4, 33720, Note_on_c, 0, 70, 88
4, 33836, Note_off_c, 0, 70, 0
4, 33840, Note_on_c, 0, 68, 88
4, 33956, Note_off_c, 0, 68, 0
4, 33960, Note_on_c, 0, 66, 88
4, 34076, Note_off_c, 0, 66, 0
4, 34080, Note_on_c, 0, 65, 88
4, 34314, Note_off_c, 0, 65, 0
4, 34320, Note_on_c, 0, 66, 88
4, 34436, Note_off_c, 0, 66, 0
4, 34440, Note_on_c, 0, 68, 88
4, 34556, Note_off_c, 0, 68, 0
4, 34560, Note_on_c, 0, 70, 88
4, 34794, Note_off_c, 0, 70, 0
4, 34800, Note_on_c, 0, 72, 88
4, 34916, Note_off_c, 0, 72, 0
4, 34920, Note_on_c, 0, 74, 88
4, 35036, Note_off_c, 0, 74, 0
4, 35040, Note_on_c, 0, 75, 88
4, 35393, Note_off_c, 0, 75, 0
4, 35400, Note_on_c, 0, 73, 88
4, 35516, Note_off_c, 0, 73, 0
4, 35520, Note_on_c, 0, 72, 88
4, 35636, Note_off_c, 0, 72, 0
4, 35640, Note_on_c, 0, 74, 88
4, 35756, Note_off_c, 0, 74, 0
4, 35760, Note_on_c, 0, 75, 88
4, 36230, Note_off_c, 0, 75, 0
4, 36240, Note_on_c, 0, 74, 88
4, 36474, Note_off_c, 0, 74, 0
4, 36480, Note_on_c, 0, 75, 88
4, 36714, Note_off_c, 0, 75, 0
4, 36720, Note_on_c, 0, 74, 88
4, 36836, Note_off_c, 0, 74, 0
4, 36840, Note_on_c, 0, 75, 88
4, 36956, Note_off_c, 0, 75, 0
4, 36960, Note_on_c, 0, 77, 88
4, 37076, Note_off_c, 0, 77, 0
4, 37080, Note_on_c, 0, 80, 88
4, 37196, Note_off_c, 0, 80, 0
4, 37200, Note_on_c, 0, 78, 88
4, 37316, Note_off_c, 0, 78, 0
4, 37320, Note_on_c, 0, 77, 88
4, 37436, Note_off_c, 0, 77, 0
4, 37440, Note_on_c, 0, 75, 88
4, 37556, Note_off_c, 0, 75, 0
4, 37560, Note_on_c, 0, 73, 88
4, 37676, Note_off_c, 0, 73, 0
4, 37680, Note_on_c, 0, 71, 88
4, 37796, Note_off_c, 0, 71, 0
4, 37800, Note_on_c, 0, 70, 88
4, 37858, Note_off_c, 0, 70, 0
4, 37860, Note_on_c, 0, 71, 88
4, 37918, Note_off_c, 0, 71, 0
4, 37920, Note_on_c, 0, 70, 88
4, 38036, Note_off_c, 0, 70, 0
4, 38040, Note_on_c, 0, 72, 88
4, 38156, Note_off_c, 0, 72, 0
4, 38160, Note_on_c, 0, 74, 88
4, 38276, Note_off_c, 0, 74, 0
4, 38280, Note_on_c, 0, 75, 88
4, 38396, Note_off_c, 0, 75, 0
4, 38400, Note_on_c, 0, 77, 88
4, 38516, Note_off_c, 0, 77, 0
4, 38520, Note_on_c, 0, 70, 88
4, 38636, Note_off_c, 0, 70, 0
4, 38640, Note_on_c, 0, 82, 88
4, 38756, Note_off_c, 0, 82, 0
4, 38760, Note_on_c, 0, 80, 88
4, 38876, Note_off_c, 0, 80, 0
4, 38880, Note_on_c, 0, 78, 88
4, 38996, Note_off_c, 0, 78, 0
4, 39000, Note_on_c, 0, 80, 88
4, 39116, Note_off_c, 0, 80, 0
4, 39120, Note_on_c, 0, 82, 88
4, 39236, Note_off_c, 0, 82, 0
4, 39240, Note_on_c, 0, 83, 88
4, 39356, Note_off_c, 0, 83, 0
4, 39360, Note_on_c, 0, 77, 88
4, 39594, Note_off_c, 0, 77, 0
4, 39600, Note_on_c, 0, 79, 88
4, 39834, Note_off_c, 0, 79, 0
4, 39840, Note_on_c, 0, 80, 88
4, 39956, Note_off_c, 0, 80, 0
4, 39960, Note_on_c, 0, 78, 88
4, 40076, Note_off_c, 0, 78, 0
4, 40080, Note_on_c, 0, 77, 88
4, 40196, Note_off_c, 0, 77, 0
4, 40200, Note_on_c, 0, 75, 88
4, 40316, Note_off_c, 0, 75, 0
4, 40320, Note_on_c, 0, 74, 88
4, 40554, Note_off_c, 0, 74, 0
4, 40560, Note_on_c, 0, 75, 88
4, 40913, Note_off_c, 0, 75, 0
4, 40920, Note_on_c, 0, 73, 88
4, 41036, Note_off_c, 0, 73, 0
4, 41040, Note_on_c, 0, 71, 88
4, 41156, Note_off_c, 0, 71, 0
4, 41160, Note_on_c, 0, 70, 88
4, 41276, Note_off_c, 0, 70, 0
4, 41280, Note_on_c, 0, 71, 88
4, 41396, Note_off_c, 0, 71, 0
4, 41400, Note_on_c, 0, 70, 88
4, 41516, Note_off_c, 0, 70, 0
4, 41520, Note_on_c, 0, 68, 88
4, 41873, Note_off_c, 0, 68, 0
4, 41880, Note_on_c, 0, 66, 88
4, 41938, Note_off_c, 0, 66, 0
4, 41940, Note_on_c, 0, 65, 88
4, 41998, Note_off_c, 0, 65, 0
4, 42000, Note_on_c, 0, 66, 88
4, 42116, Note_off_c, 0, 66, 0
4, 42120, Note_on_c, 0, 68, 88
4, 42236, Note_off_c, 0, 68, 0
4, 42240, Note_on_c, 0, 70, 88
4, 42474, Note_off_c, 0, 70, 0
4, 42480, Note_on_c, 0, 63, 88
4, 42833, Note_off_c, 0, 63, 0
4, 42840, Note_on_c, 0, 62, 88
4, 42956, Note_off_c, 0, 62, 0
4, 42960, Note_on_c, 0, 63, 88
4, 43076, Note_off_c, 0, 63, 0
4, 43080, Note_on_c, 0, 65, 88
4, 43196, Note_off_c, 0, 65, 0
4, 43200, Note_on_c, 0, 66, 88
4, 43316, Note_off_c, 0, 66, 0
4, 43320, Note_on_c, 0, 65, 88
4, 43436, Note_off_c, 0, 65, 0
4, 43440, Note_on_c, 0, 63, 88
4, 43674, Note_off_c, 0, 63, 0
4, 43680, Note_on_c, 0, 70, 88
4, 43914, Note_off_c, 0, 70, 0
4, 43920, Note_on_c, 0, 63, 88
4, 44276, Note_off_c, 0, 63, 0
4, 44280, Note_on_c, 0, 65, 88
4, 44396, Note_off_c, 0, 65, 0
4, 44400, Note_on_c, 0, 67, 88
4, 44634, Note_off_c, 0, 67, 0
4, 44640, Note_on_c, 0, 68, 88
4, 44874, Note_off_c, 0, 68, 0
4, 44880, Note_on_c, 0, 80, 88
4, 45114, Note_off_c, 0, 80, 0
4, 45120, Note_on_c, 0, 75, 88
4, 45473, Note_off_c, 0, 75, 0
4, 45480, Note_on_c, 0, 73, 88
4, 45596, Note_off_c, 0, 73, 0
4, 45600, Note_on_c, 0, 75, 88
4, 45953, Note_off_c, 0, 75, 0
4, 45960, Note_on_c, 0, 77, 88
4, 46076, Note_off_c, 0, 77, 0
4, 46080, Note_on_c, 0, 78, 88
4, 46433, Note_off_c, 0, 78, 0
4, 46440, Note_on_c, 0, 77, 88
4, 46556, Note_off_c, 0, 77, 0
4, 46560, Note_on_c, 0, 75, 88
4, 46794, Note_off_c, 0, 75, 0
4, 46800, Note_on_c, 0, 82, 88
4, 47034, Note_off_c, 0, 82, 0
4, 47040, Note_on_c, 0, 75, 88
4, 47389, Note_off_c, 0, 75, 0
4, 47400, Note_on_c, 0, 75, 88
4, 47516, Note_off_c, 0, 75, 0
4, 47520, Note_on_c, 0, 74, 88
4, 47636, Note_off_c, 0, 74, 0
4, 47640, Note_on_c, 0, 75, 88
4, 47756, Note_off_c, 0, 75, 0
4, 47760, Note_on_c, 0, 77, 88
4, 47876, Note_off_c, 0, 77, 0
4, 47880, Note_on_c, 0, 74, 88
4, 47996, Note_off_c, 0, 74, 0
4, 48000, Note_on_c, 0, 75, 88
4, 48116, Note_off_c, 0, 75, 0
4, 48120, Note_on_c, 0, 77, 88
4, 48236, Note_off_c, 0, 77, 0
4, 48240, Note_on_c, 0, 78, 88
4, 48356, Note_off_c, 0, 78, 0
4, 48360, Note_on_c, 0, 80, 88
4, 48476, Note_off_c, 0, 80, 0
4, 48480, Note_on_c, 0, 82, 88
4, 48596, Note_off_c, 0, 82, 0
4, 48600, Note_on_c, 0, 70, 88
4, 48716, Note_off_c, 0, 70, 0
4, 48720, Note_on_c, 0, 75, 88
4, 48836, Note_off_c, 0, 75, 0
4, 48840, Note_on_c, 0, 77, 88
4, 48956, Note_off_c, 0, 77, 0
4, 48960, Note_on_c, 0, 74, 88
4, 49194, Note_off_c, 0, 74, 0
4, 49440, Note_on_c, 0, 70, 88
4, 49674, Note_off_c, 0, 70, 0
4, 49680, Note_on_c, 0, 75, 88
4, 50036, Note_off_c, 0, 75, 0
4, 50040, Note_on_c, 0, 76, 88
4, 50156, Note_off_c, 0, 76, 0
4, 50160, Note_on_c, 0, 75, 88
4, 50276, Note_off_c, 0, 75, 0
4, 50280, Note_on_c, 0, 73, 88
4, 50396, Note_off_c, 0, 73, 0
4, 50400, Note_on_c, 0, 71, 88
4, 50516, Note_off_c, 0, 71, 0
4, 50520, Note_on_c, 0, 73, 88
4, 50636, Note_off_c, 0, 73, 0
4, 50640, Note_on_c, 0, 75, 88
4, 50874, Note_off_c, 0, 75, 0
4, 50880, Note_on_c, 0, 68, 88
4, 50996, Note_off_c, 0, 68, 0
4, 51000, Note_on_c, 0, 70, 88
4, 51058, Note_off_c, 0, 70, 0
4, 51060, Note_on_c, 0, 71, 88
4, 51118, Note_off_c, 0, 71, 0
4, 51120, Note_on_c, 0, 70, 88
4, 51236, Note_off_c, 0, 70, 0
4, 51240, Note_on_c, 0, 71, 88
4, 51356, Note_off_c, 0, 71, 0
4, 51360, Note_on_c, 0, 73, 88
4, 51594, Note_off_c, 0, 73, 0
4, 51600, Note_on_c, 0, 66, 88
4, 51956, Note_off_c, 0, 66, 0
4, 51960, Note_on_c, 0, 65, 88
4, 52076, Note_off_c, 0, 65, 0
4, 52080, Note_on_c, 0, 66, 88
4, 52196, Note_off_c, 0, 66, 0
4, 52200, Note_on_c, 0, 68, 88
4, 52316, Note_off_c, 0, 68, 0
4, 52320, Note_on_c, 0, 70, 88
4, 52436, Note_off_c, 0, 70, 0
4, 52440, Note_on_c, 0, 68, 88
4, 52556, Note_off_c, 0, 68, 0
4, 52560, Note_on_c, 0, 66, 88
4, 52794, Note_off_c, 0, 66, 0
4, 52800, Note_on_c, 0, 76, 88
4, 53390, Note_off_c, 0, 76, 0
4, 53400, Note_on_c, 0, 74, 88
4, 53516, Note_off_c, 0, 74, 0
4, 53520, Note_on_c, 0, 75, 88
4, 53876, Note_off_c, 0, 75, 0
4, 53880, Note_on_c, 0, 78, 88
4, 53996, Note_off_c, 0, 78, 0
4, 54000, Note_on_c, 0, 77, 88
4, 54116, Note_off_c, 0, 77, 0
4, 54120, Note_on_c, 0, 75, 88
4, 54236, Note_off_c, 0, 75, 0
4, 54240, Note_on_c, 0, 74, 88
4, 54356, Note_off_c, 0, 74, 0
4, 54360, Note_on_c, 0, 77, 88
4, 54476, Note_off_c, 0, 77, 0
4, 54480, Note_on_c, 0, 82, 88
4, 54836, Note_off_c, 0, 82, 0
4, 54840, Note_on_c, 0, 83, 88
4, 54956, Note_off_c, 0, 83, 0
4, 54960, Note_on_c, 0, 82, 88
4, 55076, Note_off_c, 0, 82, 0
4, 55080, Note_on_c, 0, 80, 88
4, 55196, Note_off_c, 0, 80, 0
4, 55200, Note_on_c, 0, 78, 88
4, 55316, Note_off_c, 0, 78, 0
4, 55320, Note_on_c, 0, 80, 88
4, 55436, Note_off_c, 0, 80, 0
4, 55440, Note_on_c, 0, 82, 88
4, 55674, Note_off_c, 0, 82, 0
4, 55680, Note_on_c, 0, 75, 88
4, 55914, Note_off_c, 0, 75, 0
4, 55920, Note_on_c, 0, 80, 88
4, 56273, Note_off_c, 0, 80, 0
4, 56280, Note_on_c, 0, 78, 88
4, 56389, Note_off_c, 0, 78, 0
4, 56400, Note_on_c, 0, 78, 88
4, 56436, Note_off_c, 0, 78, 0
4, 56438, Note_on_c, 0, 77, 88
4, 56467, Note_off_c, 0, 77, 0
4, 56468, Note_on_c, 0, 78, 88
4, 56497, Note_off_c, 0, 78, 0
4, 56498, Note_on_c, 0, 77, 88
4, 56527, Note_off_c, 0, 77, 0
4, 56528, Note_on_c, 0, 78, 88
4, 56549, Note_off_c, 0, 78, 0
4, 56550, Note_on_c, 0, 77, 88
4, 56572, Note_off_c, 0, 77, 0
4, 56573, Note_on_c, 0, 78, 88
4, 56594, Note_off_c, 0, 78, 0
4, 56595, Note_on_c, 0, 77, 88
4, 56639, Note_off_c, 0, 77, 0
4, 56640, Note_on_c, 0, 75, 88
4, 56869, Note_off_c, 0, 75, 0
4, 56880, Note_on_c, 0, 75, 88
4, 56916, Note_off_c, 0, 75, 0
4, 56918, Note_on_c, 0, 73, 88
4, 56947, Note_off_c, 0, 73, 0
4, 56948, Note_on_c, 0, 75, 88
4, 56977, Note_off_c, 0, 75, 0
4, 56978, Note_on_c, 0, 73, 88
4, 57007, Note_off_c, 0, 73, 0
4, 57008, Note_on_c, 0, 75, 88
4, 57029, Note_off_c, 0, 75, 0
4, 57030, Note_on_c, 0, 73, 88
4, 57052, Note_off_c, 0, 73, 0
4, 57053, Note_on_c, 0, 75, 88
4, 57074, Note_off_c, 0, 75, 0
4, 57075, Note_on_c, 0, 73, 88
4, 57119, Note_off_c, 0, 73, 0
4, 57120, Note_on_c, 0, 71, 88
4, 57354, Note_off_c, 0, 71, 0
4, 57360, Note_on_c, 0, 70, 88
4, 57594, Note_off_c, 0, 70, 0
4, 57600, Note_on_c, 0, 68, 88
4, 57834, Note_off_c, 0, 68, 0
4, 57840, Note_on_c, 0, 66, 88
4, 58074, Note_off_c, 0, 66, 0
4, 58080, Note_on_c, 0, 65, 88
4, 58314, Note_off_c, 0, 65, 0
4, 58440, Note_on_c, 0, 72, 88
4, 58556, Note_off_c, 0, 72, 0
4, 58560, Note_on_c, 0, 74, 88
4, 58676, Note_off_c, 0, 74, 0
4, 58680, Note_on_c, 0, 75, 88
4, 58796, Note_off_c, 0, 75, 0
4, 58800, Note_on_c, 0, 77, 88
4, 59153, Note_off_c, 0, 77, 0
4, 59160, Note_on_c, 0, 75, 88
4, 59276, Note_off_c, 0, 75, 0
4, 59280, Note_on_c, 0, 73, 88
4, 59338, Note_off_c, 0, 73, 0
4, 59340, Note_on_c, 0, 71, 88
4, 59398, Note_off_c, 0, 71, 0
4, 59400, Note_on_c, 0, 73, 88
4, 59458, Note_off_c, 0, 73, 0
4, 59460, Note_on_c, 0, 79, 88
4, 59518, Note_off_c, 0, 79, 0
4, 59520, Note_on_c, 0, 80, 88
4, 59578, Note_off_c, 0, 80, 0
4, 59580, Note_on_c, 0, 82, 88
4, 59638, Note_off_c, 0, 82, 0
4, 59640, Note_on_c, 0, 83, 88
4, 59874, Note_off_c, 0, 83, 0
4, 59880, Note_on_c, 0, 82, 88
4, 59938, Note_off_c, 0, 82, 0
4, 59940, Note_on_c, 0, 80, 88
4, 59998, Note_off_c, 0, 80, 0
4, 60000, Note_on_c, 0, 82, 88
4, 60116, Note_off_c, 0, 82, 0
4, 60120, Note_on_c, 0, 75, 88
4, 60236, Note_off_c, 0, 75, 0
4, 60240, Note_on_c, 0, 77, 88
4, 60356, Note_off_c, 0, 77, 0
4, 60360, Note_on_c, 0, 79, 88
4, 60476, Note_off_c, 0, 79, 0
4, 60480, Note_on_c, 0, 80, 88
4, 60714, Note_off_c, 0, 80, 0
4, 60960, Note_on_c, 0, 82, 88
4, 61194, Note_off_c, 0, 82, 0
4, 61200, Note_on_c, 0, 75, 88
4, 61556, Note_off_c, 0, 75, 0
4, 61560, Note_on_c, 0, 71, 88
4, 61676, Note_off_c, 0, 71, 0
4, 61680, Note_on_c, 0, 73, 88
4, 61796, Note_off_c, 0, 73, 0
4, 61800, Note_on_c, 0, 75, 88
4, 61916, Note_off_c, 0, 75, 0
4, 61920, Note_on_c, 0, 76, 88
4, 62036, Note_off_c, 0, 76, 0
4, 62040, Note_on_c, 0, 75, 88
4, 62156, Note_off_c, 0, 75, 0
4, 62160, Note_on_c, 0, 73, 88
4, 62394, Note_off_c, 0, 73, 0
4, 62400, Note_on_c, 0, 80, 88
4, 62634, Note_off_c, 0, 80, 0
4, 62640, Note_on_c, 0, 75, 88
4, 62993, Note_off_c, 0, 75, 0
4, 63000, Note_on_c, 0, 77, 88
4, 63116, Note_off_c, 0, 77, 0
4, 63120, Note_on_c, 0, 80, 88
4, 63156, Note_off_c, 0, 80, 0
4, 63158, Note_on_c, 0, 79, 88
4, 63187, Note_off_c, 0, 79, 0
4, 63188, Note_on_c, 0, 80, 88
4, 63217, Note_off_c, 0, 80, 0
4, 63218, Note_on_c, 0, 79, 88
4, 63247, Note_off_c, 0, 79, 0
4, 63248, Note_on_c, 0, 80, 88
4, 63269, Note_off_c, 0, 80, 0
4, 63270, Note_on_c, 0, 79, 88
4, 63292, Note_off_c, 0, 79, 0
4, 63293, Note_on_c, 0, 80, 88
4, 63314, Note_off_c, 0, 80, 0
4, 63315, Note_on_c, 0, 79, 88
4, 63359, Note_off_c, 0, 79, 0
4, 63360, Note_on_c, 0, 80, 88
4, 63476, Note_off_c, 0, 80, 0
4, 63480, Note_on_c, 0, 82, 88
4, 63596, Note_off_c, 0, 82, 0
4, 63600, Note_on_c, 0, 80, 88
4, 63716, Note_off_c, 0, 80, 0
4, 63720, Note_on_c, 0, 78, 88
4, 63836, Note_off_c, 0, 78, 0
4, 63840, Note_on_c, 0, 77, 88
4, 63956, Note_off_c, 0, 77, 0
4, 63960, Note_on_c, 0, 78, 88
4, 64076, Note_off_c, 0, 78, 0
4, 64080, Note_on_c, 0, 80, 88
4, 64436, Note_off_c, 0, 80, 0
4, 64440, Note_on_c, 0, 78, 88
4, 64556, Note_off_c, 0, 78, 0
4, 64560, Note_on_c, 0, 77, 88
4, 64676, Note_off_c, 0, 77, 0
4, 64680, Note_on_c, 0, 78, 88
4, 64738, Note_off_c, 0, 78, 0
4, 64740, Note_on_c, 0, 80, 88
4, 64798, Note_off_c, 0, 80, 0
4, 64800, Note_on_c, 0, 82, 88
4, 64858, Note_off_c, 0, 82, 0
4, 64860, Note_on_c, 0, 80, 88
4, 64918, Note_off_c, 0, 80, 0
4, 64920, Note_on_c, 0, 82, 88
4, 65154, Note_off_c, 0, 82, 0
4, 65160, Note_on_c, 0, 80, 88
4, 65218, Note_off_c, 0, 80, 0
4, 65220, Note_on_c, 0, 78, 88
4, 65278, Note_off_c, 0, 78, 0
4, 65280, Note_on_c, 0, 77, 88
4, 65396, Note_off_c, 0, 77, 0
4, 65400, Note_on_c, 0, 78, 88
4, 65634, Note_off_c, 0, 78, 0
4, 65640, Note_on_c, 0, 77, 88
4, 65756, Note_off_c, 0, 77, 0
4, 65760, Note_on_c, 0, 78, 88
4, 65876, Note_off_c, 0, 78, 0
4, 65880, Note_on_c, 0, 73, 88
4, 65996, Note_off_c, 0, 73, 0
4, 66000, Note_on_c, 0, 78, 88
4, 66356, Note_off_c, 0, 78, 0
4, 66360, Note_on_c, 0, 80, 88
4, 66476, Note_off_c, 0, 80, 0
4, 66480, Note_on_c, 0, 78, 88
4, 66596, Note_off_c, 0, 78, 0
4, 66600, Note_on_c, 0, 76, 88
4, 66716, Note_off_c, 0, 76, 0
4, 66720, Note_on_c, 0, 75, 88
4, 66836, Note_off_c, 0, 75, 0
4, 66840, Note_on_c, 0, 76, 88
4, 66956, Note_off_c, 0, 76, 0
4, 66960, Note_on_c, 0, 78, 88
4, 67194, Note_off_c, 0, 78, 0
4, 67200, Note_on_c, 0, 71, 88
4, 67434, Note_off_c, 0, 71, 0
4, 67440, Note_on_c, 0, 76, 88
4, 67793, Note_off_c, 0, 76, 0
4, 67800, Note_on_c, 0, 75, 88
4, 67916, Note_off_c, 0, 75, 0
4, 67920, Note_on_c, 0, 73, 88
4, 68154, Note_off_c, 0, 73, 0
4, 68160, Note_on_c, 0, 71, 88
4, 68394, Note_off_c, 0, 71, 0
4, 68400, Note_on_c, 0, 76, 88
4, 68753, Note_off_c, 0, 76, 0
4, 68760, Note_on_c, 0, 74, 88
4, 68876, Note_off_c, 0, 74, 0
4, 68880, Note_on_c, 0, 75, 88
4, 69354, Note_off_c, 0, 75, 0
4, 69360, Note_on_c, 0, 80, 88
4, 69709, Note_off_c, 0, 80, 0
4, 69720, Note_on_c, 0, 80, 88
4, 69836, Note_off_c, 0, 80, 0
4, 69840, Note_on_c, 0, 79, 88
4, 69956, Note_off_c, 0, 79, 0
4, 69960, Note_on_c, 0, 78, 88
4, 70189, Note_off_c, 0, 78, 0
4, 70200, Note_on_c, 0, 78, 88
4, 70316, Note_off_c, 0, 78, 0
4, 70320, Note_on_c, 0, 77, 88
4, 70436, Note_off_c, 0, 77, 0
4, 70440, Note_on_c, 0, 76, 88
4, 70556, Note_off_c, 0, 76, 0
4, 70560, Note_on_c, 0, 75, 88
4, 70794, Note_off_c, 0, 75, 0
4, 70800, Note_on_c, 0, 73, 88
4, 71034, Note_off_c, 0, 73, 0
4, 71040, Note_on_c, 0, 71, 88
4, 71389, Note_off_c, 0, 71, 0
4, 71400, Note_on_c, 0, 71, 88
4, 71516, Note_off_c, 0, 71, 0
4, 71520, Note_on_c, 0, 70, 88
4, 71873, Note_off_c, 0, 70, 0
4, 71880, Note_on_c, 0, 78, 88
4, 71996, Note_off_c, 0, 78, 0
4, 72000, Note_on_c, 0, 68, 88
4, 72590, Note_off_c, 0, 68, 0
4, 72600, Note_on_c, 0, 66, 88
4, 72658, Note_off_c, 0, 66, 0
4, 72660, Note_on_c, 0, 65, 88
4, 72718, Note_off_c, 0, 65, 0
4, 72720, Note_on_c, 0, 66, 88
4, 72836, Note_off_c, 0, 66, 0
4, 72840, Note_on_c, 0, 68, 88
4, 72956, Note_off_c, 0, 68, 0
4, 72960, Note_on_c, 0, 70, 88
4, 73194, Note_off_c, 0, 70, 0
4, 73440, Note_on_c, 0, 77, 88
4, 73910, Note_off_c, 0, 77, 0
4, 73920, Note_on_c, 0, 82, 88
4, 74628, Note_off_c, 0, 82, 0
4, 74640, Note_on_c, 0, 83, 88
4, 74874, Note_off_c, 0, 83, 0
4, 74880, Note_on_c, 0, 82, 88
4, 75114, Note_off_c, 0, 82, 0
4, 75120, Note_on_c, 0, 80, 88
4, 75354, Note_off_c, 0, 80, 0
4, 75360, Note_on_c, 0, 78, 88
4, 75594, Note_off_c, 0, 78, 0
4, 75600, Note_on_c, 0, 80, 88
4, 75834, Note_off_c, 0, 80, 0
4, 75840, Note_on_c, 0, 82, 88
4, 76310, Note_off_c, 0, 82, 0
4, 76320, Note_on_c, 0, 75, 88
4, 76790, Note_off_c, 0, 75, 0
4, 76800, Note_on_c, 0, 80, 88
4, 77508, Note_off_c, 0, 80, 0
4, 77520, Note_on_c, 0, 78, 88
4, 77754, Note_off_c, 0, 78, 0
4, 77760, Note_on_c, 0, 76, 88
4, 78230, Note_off_c, 0, 76, 0
4, 78240, Note_on_c, 0, 75, 88
4, 78836, Note_off_c, 0, 75, 0
4, 78840, Note_on_c, 0, 71, 88
4, 78956, Note_off_c, 0, 71, 0
4, 78960, Note_on_c, 0, 68, 88
4, 79313, Note_off_c, 0, 68, 0
4, 79320, Note_on_c, 0, 70, 88
4, 79436, Note_off_c, 0, 70, 0
4, 79440, Note_on_c, 0, 71, 88
4, 79796, Note_off_c, 0, 71, 0
4, 79800, Note_on_c, 0, 68, 88
4, 79916, Note_off_c, 0, 68, 0
4, 79920, Note_on_c, 0, 65, 88
4, 80273, Note_off_c, 0, 65, 0
4, 80280, Note_on_c, 0, 66, 88
4, 80396, Note_off_c, 0, 66, 0
4, 80400, Note_on_c, 0, 68, 88
4, 80756, Note_off_c, 0, 68, 0
4, 80760, Note_on_c, 0, 65, 88
4, 80876, Note_off_c, 0, 65, 0
4, 80880, Note_on_c, 0, 62, 88
4, 81229, Note_off_c, 0, 62, 0
4, 81240, Note_on_c, 0, 62, 88
4, 81356, Note_off_c, 0, 62, 0
4, 81360, Note_on_c, 0, 63, 88
4, 81476, Note_off_c, 0, 63, 0
4, 81480, Note_on_c, 0, 65, 88
4, 81596, Note_off_c, 0, 65, 0
4, 81600, Note_on_c, 0, 66, 88
4, 81716, Note_off_c, 0, 66, 0
4, 81720, Note_on_c, 0, 67, 88
4, 81836, Note_off_c, 0, 67, 0
4, 81840, Note_on_c, 0, 68, 88
4, 81956, Note_off_c, 0, 68, 0
4, 81960, Note_on_c, 0, 70, 88
4, 82076, Note_off_c, 0, 70, 0
4, 82080, Note_on_c, 0, 71, 88
4, 82196, Note_off_c, 0, 71, 0
4, 82200, Note_on_c, 0, 72, 88
4, 82316, Note_off_c, 0, 72, 0
4, 82320, Note_on_c, 0, 74, 88
4, 82436, Note_off_c, 0, 74, 0
4, 82440, Note_on_c, 0, 75, 88
4, 82556, Note_off_c, 0, 75, 0
4, 82560, Note_on_c, 0, 75, 88
4, 82794, Note_off_c, 0, 75, 0
4, 82800, Note_on_c, 0, 74, 88
4, 83034, Note_off_c, 0, 74, 0
4, 83040, Note_on_c, 0, 75, 88
4, 83510, Note_off_c, 0, 75, 0
4, 83510, End_track
5, 0, Start_track
5, 0, Title_t, "Track 2"
5, 0, Program_c, 1, 6
5, 0, Note_on_c, 1, 63, 88
5, 234, Note_off_c, 1, 63, 0
5, 240, Note_on_c, 1, 70, 88
5, 593, Note_off_c, 1, 70, 0
5, 600, Note_on_c, 1, 71, 88
5, 716, Note_off_c, 1, 71, 0
5, 720, Note_on_c, 1, 70, 88
5, 836, Note_off_c, 1, 70, 0
5, 840, Note_on_c, 1, 68, 88
5, 956, Note_off_c, 1, 68, 0
5, 960, Note_on_c, 1, 66, 88
5, 1076, Note_off_c, 1, 66, 0
5, 1080, Note_on_c, 1, 68, 88
5, 1196, Note_off_c, 1, 68, 0
5, 1200, Note_on_c, 1, 70, 88
5, 1434, Note_off_c, 1, 70, 0
5, 1440, Note_on_c, 1, 63, 88
5, 1674, Note_off_c, 1, 63, 0
5, 1680, Note_on_c, 1, 68, 88
5, 2036, Note_off_c, 1, 68, 0
5, 2040, Note_on_c, 1, 66, 88
5, 2149, Note_off_c, 1, 66, 0
5, 2160, Note_on_c, 1, 66, 88
5, 2200, Note_off_c, 1, 66, 0
5, 2201, Note_on_c, 1, 65, 88
5, 2227, Note_off_c, 1, 65, 0
5, 2228, Note_on_c, 1, 66, 88
5, 2253, Note_off_c, 1, 66, 0
5, 2254, Note_on_c, 1, 65, 88
5, 2279, Note_off_c, 1, 65, 0
5, 2280, Note_on_c, 1, 66, 88
5, 2305, Note_off_c, 1, 66, 0
5, 2306, Note_on_c, 1, 65, 88
5, 2328, Note_off_c, 1, 65, 0
5, 2329, Note_on_c, 1, 66, 88
5, 2351, Note_on_c, 1, 65, 88
5, 2351, Note_off_c, 1, 66, 0
5, 2398, Note_off_c, 1, 65, 0
5, 2400, Note_on_c, 1, 63, 88
5, 2753, Note_off_c, 1, 63, 0
5, 2760, Note_on_c, 1, 65, 88
5, 2876, Note_off_c, 1, 65, 0
5, 2880, Note_on_c, 1, 66, 88
5, 3114, Note_off_c, 1, 66, 0
5, 3120, Note_on_c, 1, 68, 88
5, 3354, Note_off_c, 1, 68, 0
5, 3360, Note_on_c, 1, 70, 88
5, 3713, Note_off_c, 1, 70, 0
5, 3720, Note_on_c, 1, 68, 88
5, 3836, Note_off_c, 1, 68, 0
5, 3840, Note_on_c, 1, 66, 88
5, 3956, Note_off_c, 1, 66, 0
5, 3960, Note_on_c, 1, 65, 88
5, 4076, Note_off_c, 1, 65, 0
5, 4080, Note_on_c, 1, 66, 88
5, 4196, Note_off_c, 1, 66, 0
5, 4200, Note_on_c, 1, 65, 88
5, 4258, Note_off_c, 1, 65, 0
5, 4260, Note_on_c, 1, 63, 88
5, 4318, Note_off_c, 1, 63, 0
5, 4320, Note_on_c, 1, 65, 88
5, 4436, Note_off_c, 1, 65, 0
5, 4440, Note_on_c, 1, 70, 88
5, 4674, Note_off_c, 1, 70, 0
5, 4680, Note_on_c, 1, 69, 88
5, 4796, Note_off_c, 1, 69, 0
5, 4800, Note_on_c, 1, 70, 88
5, 5153, Note_off_c, 1, 70, 0
5, 5160, Note_on_c, 1, 68, 88
5, 5276, Note_off_c, 1, 68, 0
5, 5280, Note_on_c, 1, 67, 88
5, 5396, Note_off_c, 1, 67, 0
5, 5400, Note_on_c, 1, 63, 88
5, 5516, Note_off_c, 1, 63, 0
5, 5520, Note_on_c, 1, 68, 88
5, 5876, Note_off_c, 1, 68, 0
5, 5880, Note_on_c, 1, 66, 88
5, 5996, Note_off_c, 1, 66, 0
5, 6000, Note_on_c, 1, 65, 88
5, 6116, Note_off_c, 1, 65, 0
5, 6120, Note_on_c, 1, 63, 88
5, 6236, Note_off_c, 1, 63, 0
5, 6240, Note_on_c, 1, 65, 88
5, 6474, Note_off_c, 1, 65, 0
5, 6480, Note_on_c, 1, 66, 88
5, 6596, Note_off_c, 1, 66, 0
5, 6600, Note_on_c, 1, 68, 88
5, 6716, Note_off_c, 1, 68, 0
5, 6720, Note_on_c, 1, 70, 88
5, 6836, Note_off_c, 1, 70, 0
5, 6840, Note_on_c, 1, 72, 88
5, 6956, Note_off_c, 1, 72, 0
5, 6960, Note_on_c, 1, 74, 88
5, 7076, Note_off_c, 1, 74, 0
5, 7080, Note_on_c, 1, 75, 88
5, 7196, Note_off_c, 1, 75, 0
5, 7200, Note_on_c, 1, 77, 88
5, 7316, Note_off_c, 1, 77, 0
5, 7320, Note_on_c, 1, 74, 88
5, 7436, Note_off_c, 1, 74, 0
5, 7440, Note_on_c, 1, 75, 88
5, 7556, Note_off_c, 1, 75, 0
5, 7560, Note_on_c, 1, 77, 88
5, 7676, Note_off_c, 1, 77, 0
5, 7680, Note_on_c, 1, 78, 88
5, 7796, Note_off_c, 1, 78, 0
5, 7800, Note_on_c, 1, 77, 88
5, 7916, Note_off_c, 1, 77, 0
5, 7920, Note_on_c, 1, 75, 88
5, 8036, Note_off_c, 1, 75, 0
5, 8040, Note_on_c, 1, 74, 88
5, 8156, Note_off_c, 1, 74, 0
5, 8160, Note_on_c, 1, 75, 88
5, 8276, Note_off_c, 1, 75, 0
5, 8280, Note_on_c, 1, 73, 88
5, 8396, Note_off_c, 1, 73, 0
5, 8400, Note_on_c, 1, 71, 88
5, 8634, Note_off_c, 1, 71, 0
5, 8640, Note_on_c, 1, 70, 88
5, 8874, Note_off_c, 1, 70, 0
5, 8880, Note_on_c, 1, 68, 88
5, 9114, Note_off_c, 1, 68, 0
5, 9120, Note_on_c, 1, 66, 88
5, 9354, Note_off_c, 1, 66, 0
5, 9360, Note_on_c, 1, 68, 88
5, 9476, Note_off_c, 1, 68, 0
5, 9480, Note_on_c, 1, 66, 88
5, 9596, Note_off_c, 1, 66, 0
5, 9600, Note_on_c, 1, 65, 88
5, 9953, Note_off_c, 1, 65, 0
5, 9960, Note_on_c, 1, 63, 88
5, 10018, Note_off_c, 1, 63, 0
5, 10020, Note_on_c, 1, 65, 88
5, 10078, Note_off_c, 1, 65, 0
5, 10080, Note_on_c, 1, 66, 88
5, 10196, Note_off_c, 1, 66, 0
5, 10200, Note_on_c, 1, 68, 88
5, 10258, Note_off_c, 1, 68, 0
5, 10260, Note_on_c, 1, 70, 88
5, 10309, Note_off_c, 1, 70, 0
5, 10320, Note_on_c, 1, 70, 88
5, 10349, Note_off_c, 1, 70, 0
5, 10350, Note_on_c, 1, 68, 88
5, 10379, Note_off_c, 1, 68, 0
5, 10380, Note_on_c, 1, 70, 88
5, 10409, Note_off_c, 1, 70, 0
5, 10410, Note_on_c, 1, 68, 88
5, 10439, Note_off_c, 1, 68, 0
5, 10440, Note_on_c, 1, 70, 88
5, 10469, Note_off_c, 1, 70, 0
5, 10470, Note_on_c, 1, 68, 88
5, 10499, Note_off_c, 1, 68, 0
5, 10500, Note_on_c, 1, 66, 88
5, 10529, Note_off_c, 1, 66, 0
5, 10530, Note_on_c, 1, 68, 88
5, 10559, Note_off_c, 1, 68, 0
5, 10560, Note_on_c, 1, 70, 88
5, 10676, Note_off_c, 1, 70, 0
5, 10680, Note_on_c, 1, 68, 88
5, 10796, Note_off_c, 1, 68, 0
5, 10800, Note_on_c, 1, 66, 88
5, 10916, Note_off_c, 1, 66, 0
5, 10920, Note_on_c, 1, 65, 88
5, 11036, Note_off_c, 1, 65, 0
5, 11040, Note_on_c, 1, 63, 88
5, 11274, Note_off_c, 1, 63, 0
5, 11280, Note_on_c, 1, 62, 88
5, 11396, Note_off_c, 1, 62, 0
5, 11400, Note_on_c, 1, 63, 88
5, 11516, Note_off_c, 1, 63, 0
5, 11520, Note_on_c, 1, 65, 88
5, 11636, Note_off_c, 1, 65, 0
5, 11640, Note_on_c, 1, 63, 88
5, 11756, Note_off_c, 1, 63, 0
5, 11760, Note_on_c, 1, 62, 88
5, 11876, Note_off_c, 1, 62, 0
5, 11880, Note_on_c, 1, 60, 88
5, 11996, Note_off_c, 1, 60, 0
5, 12000, Note_on_c, 1, 62, 88
5, 12234, Note_off_c, 1, 62, 0
5, 12240, Note_on_c, 1, 63, 88
5, 12356, Note_off_c, 1, 63, 0
5, 12360, Note_on_c, 1, 65, 88
5, 12476, Note_off_c, 1, 65, 0
5, 12480, Note_on_c, 1, 66, 88
5, 12714, Note_off_c, 1, 66, 0
5, 12720, Note_on_c, 1, 68, 88
5, 12836, Note_off_c, 1, 68, 0
5, 12840, Note_on_c, 1, 66, 88
5, 12956, Note_off_c, 1, 66, 0
5, 12960, Note_on_c, 1, 65, 88
5, 13076, Note_off_c, 1, 65, 0
5, 13080, Note_on_c, 1, 61, 88
5, 13196, Note_off_c, 1, 61, 0
5, 13200, Note_on_c, 1, 66, 88
5, 13674, Note_off_c, 1, 66, 0
5, 13680, Note_on_c, 1, 65, 88
5, 14150, Note_off_c, 1, 65, 0
5, 14160, Note_on_c, 1, 63, 88
5, 14394, Note_off_c, 1, 63, 0
5, 14400, Note_on_c, 1, 61, 88
5, 14516, Note_off_c, 1, 61, 0
5, 14520, Note_on_c, 1, 65, 88
5, 14636, Note_off_c, 1, 65, 0
5, 14640, Note_on_c, 1, 66, 88
5, 14756, Note_off_c, 1, 66, 0
5, 14760, Note_on_c, 1, 68, 88
5, 14876, Note_off_c, 1, 68, 0
5, 14880, Note_on_c, 1, 70, 88
5, 14996, Note_off_c, 1, 70, 0
5, 15000, Note_on_c, 1, 71, 88
5, 15116, Note_off_c, 1, 71, 0
5, 15120, Note_on_c, 1, 73, 88
5, 15236, Note_off_c, 1, 73, 0
5, 15240, Note_on_c, 1, 71, 88
5, 15356, Note_off_c, 1, 71, 0
5, 15360, Note_on_c, 1, 70, 88
5, 15476, Note_off_c, 1, 70, 0
5, 15480, Note_on_c, 1, 68, 88
5, 15596, Note_off_c, 1, 68, 0
5, 15600, Note_on_c, 1, 66, 88
5, 15716, Note_off_c, 1, 66, 0
5, 15720, Note_on_c, 1, 65, 88
5, 15836, Note_off_c, 1, 65, 0
5, 15840, Note_on_c, 1, 63, 88
5, 15956, Note_off_c, 1, 63, 0
5, 15960, Note_on_c, 1, 65, 88
5, 16076, Note_off_c, 1, 65, 0
5, 16080, Note_on_c, 1, 66, 88
5, 16196, Note_off_c, 1, 66, 0
5, 16200, Note_on_c, 1, 70, 88
5, 16316, Note_off_c, 1, 70, 0
5, 16320, Note_on_c, 1, 75, 88
5, 16436, Note_off_c, 1, 75, 0
5, 16440, Note_on_c, 1, 73, 88
5, 16556, Note_off_c, 1, 73, 0
5, 16560, Note_on_c, 1, 72, 88
5, 17030, Note_off_c, 1, 72, 0
5, 17040, Note_on_c, 1, 70, 88
5, 17514, Note_off_c, 1, 70, 0
5, 17520, Note_on_c, 1, 69, 88
5, 17754, Note_off_c, 1, 69, 0
5, 17760, Note_on_c, 1, 58, 88
5, 17994, Note_off_c, 1, 58, 0
5, 18000, Note_on_c, 1, 65, 88
5, 18356, Note_off_c, 1, 65, 0
5, 18360, Note_on_c, 1, 66, 88
5, 18476, Note_off_c, 1, 66, 0
5, 18480, Note_on_c, 1, 65, 88
5, 18596, Note_off_c, 1, 65, 0
5, 18600, Note_on_c, 1, 63, 88
5, 18716, Note_off_c, 1, 63, 0
5, 18720, Note_on_c, 1, 61, 88
5, 18836, Note_off_c, 1, 61, 0
5, 18840, Note_on_c, 1, 63, 88
5, 18956, Note_off_c, 1, 63, 0
5, 18960, Note_on_c, 1, 65, 88
5, 19194, Note_off_c, 1, 65, 0
5, 19200, Note_on_c, 1, 58, 88
5, 19434, Note_off_c, 1, 58, 0
5, 19560, Note_on_c, 1, 63, 88
5, 19794, Note_off_c, 1, 63, 0
5, 19800, Note_on_c, 1, 61, 88
5, 19909, Note_off_c, 1, 61, 0
5, 19920, Note_on_c, 1, 61, 88
5, 19960, Note_off_c, 1, 61, 0
5, 19961, Note_on_c, 1, 60, 88
5, 19987, Note_off_c, 1, 60, 0
5, 19988, Note_on_c, 1, 61, 88
5, 20013, Note_off_c, 1, 61, 0
5, 20014, Note_on_c, 1, 60, 88
5, 20039, Note_off_c, 1, 60, 0
5, 20040, Note_on_c, 1, 61, 88
5, 20065, Note_off_c, 1, 61, 0
5, 20066, Note_on_c, 1, 60, 88
5, 20088, Note_off_c, 1, 60, 0
5, 20089, Note_on_c, 1, 61, 88
5, 20111, Note_on_c, 1, 60, 88
5, 20111, Note_off_c, 1, 61, 0
5, 20158, Note_off_c, 1, 60, 0
5, 20160, Note_on_c, 1, 58, 88
5, 20394, Note_off_c, 1, 58, 0
5, 20520, Note_on_c, 1, 68, 88
5, 20754, Note_off_c, 1, 68, 0
5, 20760, Note_on_c, 1, 66, 88
5, 20876, Note_off_c, 1, 66, 0
5, 20880, Note_on_c, 1, 65, 88
5, 21114, Note_off_c, 1, 65, 0
5, 21120, Note_on_c, 1, 63, 88
5, 21354, Note_off_c, 1, 63, 0
5, 21480, Note_on_c, 1, 61, 88
5, 21596, Note_off_c, 1, 61, 0
5, 21600, Note_on_c, 1, 70, 88
5, 21716, Note_off_c, 1, 70, 0
5, 21720, Note_on_c, 1, 69, 88
5, 21836, Note_off_c, 1, 69, 0
5, 21840, Note_on_c, 1, 70, 88
5, 22074, Note_off_c, 1, 70, 0
5, 22080, Note_on_c, 1, 69, 88
5, 22314, Note_off_c, 1, 69, 0
5, 22320, Note_on_c, 1, 70, 88
5, 22554, Note_off_c, 1, 70, 0
5, 22560, Note_on_c, 1, 75, 88
5, 22913, Note_off_c, 1, 75, 0
5, 22920, Note_on_c, 1, 77, 88
5, 23036, Note_off_c, 1, 77, 0
5, 23040, Note_on_c, 1, 75, 88
5, 23393, Note_off_c, 1, 75, 0
5, 23400, Note_on_c, 1, 73, 88
5, 23516, Note_off_c, 1, 73, 0
5, 23520, Note_on_c, 1, 72, 88
5, 23873, Note_off_c, 1, 72, 0
5, 23880, Note_on_c, 1, 73, 88
5, 23996, Note_off_c, 1, 73, 0
5, 24000, Note_on_c, 1, 75, 88
5, 24234, Note_off_c, 1, 75, 0
5, 24240, Note_on_c, 1, 68, 88
5, 24474, Note_off_c, 1, 68, 0
5, 24480, Note_on_c, 1, 73, 88
5, 24950, Note_off_c, 1, 73, 0
5, 24960, Note_on_c, 1, 72, 88
5, 25194, Note_off_c, 1, 72, 0
5, 25440, Note_on_c, 1, 68, 88
5, 25674, Note_off_c, 1, 68, 0
5, 25680, Note_on_c, 1, 73, 88
5, 26036, Note_off_c, 1, 73, 0
5, 26040, Note_on_c, 1, 75, 88
5, 26156, Note_off_c, 1, 75, 0
5, 26160, Note_on_c, 1, 73, 88
5, 26276, Note_off_c, 1, 73, 0
5, 26280, Note_on_c, 1, 71, 88
5, 26396, Note_off_c, 1, 71, 0
5, 26400, Note_on_c, 1, 70, 88
5, 26516, Note_off_c, 1, 70, 0
5, 26520, Note_on_c, 1, 71, 88
5, 26636, Note_off_c, 1, 71, 0
5, 26640, Note_on_c, 1, 73, 88
5, 26874, Note_off_c, 1, 73, 0
5, 26880, Note_on_c, 1, 66, 88
5, 27114, Note_off_c, 1, 66, 0
5, 27120, Note_on_c, 1, 71, 88
5, 27473, Note_off_c, 1, 71, 0
5, 27480, Note_on_c, 1, 70, 88
5, 27589, Note_off_c, 1, 70, 0
5, 27600, Note_on_c, 1, 70, 88
5, 27640, Note_off_c, 1, 70, 0
5, 27641, Note_on_c, 1, 68, 88
5, 27667, Note_off_c, 1, 68, 0
5, 27668, Note_on_c, 1, 70, 88
5, 27693, Note_off_c, 1, 70, 0
5, 27694, Note_on_c, 1, 68, 88
5, 27719, Note_off_c, 1, 68, 0
5, 27720, Note_on_c, 1, 70, 88
5, 27745, Note_off_c, 1, 70, 0
5, 27746, Note_on_c, 1, 68, 88
5, 27768, Note_off_c, 1, 68, 0
5, 27769, Note_on_c, 1, 70, 88
5, 27791, Note_on_c, 1, 68, 88
5, 27791, Note_off_c, 1, 70, 0
5, 27838, Note_off_c, 1, 68, 0
5, 27840, Note_on_c, 1, 66, 88
5, 27956, Note_off_c, 1, 66, 0
5, 27960, Note_on_c, 1, 65, 88
5, 28076, Note_off_c, 1, 65, 0
5, 28080, Note_on_c, 1, 66, 88
5, 28196, Note_off_c, 1, 66, 0
5, 28200, Note_on_c, 1, 68, 88
5, 28316, Note_off_c, 1, 68, 0
5, 28320, Note_on_c, 1, 70, 88
5, 28436, Note_off_c, 1, 70, 0
5, 28440, Note_on_c, 1, 68, 88
5, 28556, Note_off_c, 1, 68, 0
5, 28560, Note_on_c, 1, 70, 88
5, 28676, Note_off_c, 1, 70, 0
5, 28680, Note_on_c, 1, 72, 88
5, 28796, Note_off_c, 1, 72, 0
5, 28800, Note_on_c, 1, 73, 88
5, 28916, Note_off_c, 1, 73, 0
5, 28920, Note_on_c, 1, 71, 88
5, 29154, Note_off_c, 1, 71, 0
5, 29160, Note_on_c, 1, 70, 88
5, 29276, Note_off_c, 1, 70, 0
5, 29280, Note_on_c, 1, 71, 88
5, 29396, Note_off_c, 1, 71, 0
5, 29400, Note_on_c, 1, 70, 88
5, 29516, Note_off_c, 1, 70, 0
5, 29520, Note_on_c, 1, 68, 88
5, 29636, Note_off_c, 1, 68, 0
5, 29640, Note_on_c, 1, 71, 88
5, 29756, Note_off_c, 1, 71, 0
5, 29760, Note_on_c, 1, 70, 88
5, 30350, Note_off_c, 1, 70, 0
5, 30360, Note_on_c, 1, 72, 88
5, 30476, Note_off_c, 1, 72, 0
5, 30480, Note_on_c, 1, 73, 88
5, 30596, Note_off_c, 1, 73, 0
5, 30600, Note_on_c, 1, 75, 88
5, 30716, Note_off_c, 1, 75, 0
5, 30720, Note_on_c, 1, 68, 88
5, 30954, Note_off_c, 1, 68, 0
5, 30960, Note_on_c, 1, 70, 88
5, 31313, Note_off_c, 1, 70, 0
5, 31320, Note_on_c, 1, 68, 88
5, 31436, Note_off_c, 1, 68, 0
5, 31440, Note_on_c, 1, 66, 88
5, 31556, Note_off_c, 1, 66, 0
5, 31560, Note_on_c, 1, 65, 88
5, 31676, Note_off_c, 1, 65, 0
5, 31680, Note_on_c, 1, 63, 88
5, 31796, Note_off_c, 1, 63, 0
5, 31800, Note_on_c, 1, 66, 88
5, 31916, Note_off_c, 1, 66, 0
5, 31920, Note_on_c, 1, 71, 88
5, 32273, Note_off_c, 1, 71, 0
5, 32280, Note_on_c, 1, 70, 88
5, 32396, Note_off_c, 1, 70, 0
5, 32400, Note_on_c, 1, 68, 88
5, 32516, Note_off_c, 1, 68, 0
5, 32520, Note_on_c, 1, 67, 88
5, 32636, Note_off_c, 1, 67, 0
5, 32640, Note_on_c, 1, 68, 88
5, 33348, Note_off_c, 1, 68, 0
5, 33360, Note_on_c, 1, 67, 88
5, 33594, Note_off_c, 1, 67, 0
5, 33600, Note_on_c, 1, 68, 88
5, 33834, Note_off_c, 1, 68, 0
5, 33840, Note_on_c, 1, 63, 88
5, 34193, Note_off_c, 1, 63, 0
5, 34200, Note_on_c, 1, 62, 88
5, 34316, Note_off_c, 1, 62, 0
5, 34320, Note_on_c, 1, 63, 88
5, 34436, Note_off_c, 1, 63, 0
5, 34440, Note_on_c, 1, 65, 88
5, 34556, Note_off_c, 1, 65, 0
5, 34560, Note_on_c, 1, 66, 88
5, 34676, Note_off_c, 1, 66, 0
5, 34680, Note_on_c, 1, 65, 88
5, 34796, Note_off_c, 1, 65, 0
5, 34800, Note_on_c, 1, 63, 88
5, 35034, Note_off_c, 1, 63, 0
5, 35040, Note_on_c, 1, 70, 88
5, 35274, Note_off_c, 1, 70, 0
5, 35280, Note_on_c, 1, 63, 88
5, 35636, Note_off_c, 1, 63, 0
5, 35640, Note_on_c, 1, 65, 88
5, 35756, Note_off_c, 1, 65, 0
5, 35760, Note_on_c, 1, 66, 88
5, 35994, Note_off_c, 1, 66, 0
5, 36000, Note_on_c, 1, 68, 88
5, 36470, Note_off_c, 1, 68, 0
5, 36480, Note_on_c, 1, 66, 88
5, 36596, Note_off_c, 1, 66, 0
5, 36600, Note_on_c, 1, 68, 88
5, 36716, Note_off_c, 1, 68, 0
5, 36720, Note_on_c, 1, 70, 88
5, 36836, Note_off_c, 1, 70, 0
5, 36840, Note_on_c, 1, 72, 88
5, 36956, Note_off_c, 1, 72, 0
5, 36960, Note_on_c, 1, 74, 88
5, 37076, Note_off_c, 1, 74, 0
5, 37080, Note_on_c, 1, 58, 88
5, 37196, Note_off_c, 1, 58, 0
5, 37200, Note_on_c, 1, 60, 88
5, 37316, Note_off_c, 1, 60, 0
5, 37320, Note_on_c, 1, 62, 88
5, 37436, Note_off_c, 1, 62, 0
5, 37440, Note_on_c, 1, 63, 88
5, 37793, Note_off_c, 1, 63, 0
5, 37800, Note_on_c, 1, 65, 88
5, 37916, Note_off_c, 1, 65, 0
5, 37920, Note_on_c, 1, 66, 88
5, 38154, Note_off_c, 1, 66, 0
5, 38160, Note_on_c, 1, 65, 88
5, 38276, Note_off_c, 1, 65, 0
5, 38280, Note_on_c, 1, 63, 88
5, 38396, Note_off_c, 1, 63, 0
5, 38400, Note_on_c, 1, 62, 88
5, 38516, Note_off_c, 1, 62, 0
5, 38520, Note_on_c, 1, 63, 88
5, 38636, Note_off_c, 1, 63, 0
5, 38640, Note_on_c, 1, 65, 88
5, 38993, Note_off_c, 1, 65, 0
5, 39000, Note_on_c, 1, 63, 88
5, 39058, Note_off_c, 1, 63, 0
5, 39060, Note_on_c, 1, 62, 88
5, 39118, Note_off_c, 1, 62, 0
5, 39120, Note_on_c, 1, 63, 88
5, 39476, Note_off_c, 1, 63, 0
5, 39480, Note_on_c, 1, 61, 88
5, 39596, Note_off_c, 1, 61, 0
5, 39600, Note_on_c, 1, 59, 88
5, 39716, Note_off_c, 1, 59, 0
5, 39720, Note_on_c, 1, 58, 88
5, 39836, Note_off_c, 1, 58, 0
5, 39840, Note_on_c, 1, 59, 88
5, 39956, Note_off_c, 1, 59, 0
5, 39960, Note_on_c, 1, 63, 88
5, 40076, Note_off_c, 1, 63, 0
5, 40080, Note_on_c, 1, 68, 88
5, 40436, Note_off_c, 1, 68, 0
5, 40440, Note_on_c, 1, 66, 88
5, 40556, Note_off_c, 1, 66, 0
5, 40560, Note_on_c, 1, 65, 88
5, 40676, Note_off_c, 1, 65, 0
5, 40680, Note_on_c, 1, 63, 88
5, 40796, Note_off_c, 1, 63, 0
5, 40800, Note_on_c, 1, 65, 88
5, 41034, Note_off_c, 1, 65, 0
5, 41040, Note_on_c, 1, 67, 88
5, 41274, Note_off_c, 1, 67, 0
5, 41280, Note_on_c, 1, 68, 88
5, 41396, Note_off_c, 1, 68, 0
5, 41400, Note_on_c, 1, 66, 88
5, 41516, Note_off_c, 1, 66, 0
5, 41520, Note_on_c, 1, 65, 88
5, 41636, Note_off_c, 1, 65, 0
5, 41640, Note_on_c, 1, 63, 88
5, 41756, Note_off_c, 1, 63, 0
5, 41760, Note_on_c, 1, 62, 88
5, 41994, Note_off_c, 1, 62, 0
5, 42000, Note_on_c, 1, 63, 88
5, 42116, Note_off_c, 1, 63, 0
5, 42120, Note_on_c, 1, 65, 88
5, 42236, Note_off_c, 1, 65, 0
5, 42240, Note_on_c, 1, 66, 88
5, 42356, Note_off_c, 1, 66, 0
5, 42360, Note_on_c, 1, 65, 88
5, 42476, Note_off_c, 1, 65, 0
5, 42480, Note_on_c, 1, 66, 88
5, 42596, Note_off_c, 1, 66, 0
5, 42600, Note_on_c, 1, 68, 88
5, 42716, Note_off_c, 1, 68, 0
5, 42720, Note_on_c, 1, 70, 88
5, 42836, Note_off_c, 1, 70, 0
5, 42840, Note_on_c, 1, 68, 88
5, 42956, Note_off_c, 1, 68, 0
5, 42960, Note_on_c, 1, 66, 88
5, 43076, Note_off_c, 1, 66, 0
5, 43080, Note_on_c, 1, 65, 88
5, 43138, Note_off_c, 1, 65, 0
5, 43140, Note_on_c, 1, 63, 88
5, 43198, Note_off_c, 1, 63, 0
5, 43200, Note_on_c, 1, 62, 88
5, 43316, Note_off_c, 1, 62, 0
5, 43320, Note_on_c, 1, 68, 88
5, 43554, Note_off_c, 1, 68, 0
5, 43560, Note_on_c, 1, 66, 88
5, 43618, Note_off_c, 1, 66, 0
5, 43620, Note_on_c, 1, 65, 88
5, 43678, Note_off_c, 1, 65, 0
5, 43680, Note_on_c, 1, 67, 88
5, 43796, Note_off_c, 1, 67, 0
5, 43800, Note_on_c, 1, 68, 88
5, 43916, Note_off_c, 1, 68, 0
5, 43920, Note_on_c, 1, 70, 88
5, 44036, Note_off_c, 1, 70, 0
5, 44040, Note_on_c, 1, 61, 88
5, 44156, Note_off_c, 1, 61, 0
5, 44160, Note_on_c, 1, 59, 88
5, 44276, Note_off_c, 1, 59, 0
5, 44280, Note_on_c, 1, 61, 88
5, 44396, Note_off_c, 1, 61, 0
5, 44400, Note_on_c, 1, 63, 88
5, 44516, Note_off_c, 1, 63, 0
5, 44520, Note_on_c, 1, 64, 88
5, 44636, Note_off_c, 1, 64, 0
5, 44640, Note_on_c, 1, 63, 88
5, 44874, Note_off_c, 1, 63, 0
5, 44880, Note_on_c, 1, 56, 88
5, 45236, Note_off_c, 1, 56, 0
5, 45240, Note_on_c, 1, 55, 88
5, 45356, Note_off_c, 1, 55, 0
5, 45360, Note_on_c, 1, 56, 88
5, 45476, Note_off_c, 1, 56, 0
5, 45480, Note_on_c, 1, 58, 88
5, 45596, Note_off_c, 1, 58, 0
5, 45600, Note_on_c, 1, 59, 88
5, 45716, Note_off_c, 1, 59, 0
5, 45720, Note_on_c, 1, 58, 88
5, 45836, Note_off_c, 1, 58, 0
5, 45840, Note_on_c, 1, 56, 88
5, 46074, Note_off_c, 1, 56, 0
5, 46080, Note_on_c, 1, 63, 88
5, 46314, Note_off_c, 1, 63, 0
5, 46320, Note_on_c, 1, 58, 88
5, 46673, Note_off_c, 1, 58, 0
5, 46680, Note_on_c, 1, 59, 88
5, 46796, Note_off_c, 1, 59, 0
5, 46800, Note_on_c, 1, 61, 88
5, 47156, Note_off_c, 1, 61, 0
5, 47160, Note_on_c, 1, 73, 88
5, 47276, Note_off_c, 1, 73, 0
5, 47280, Note_on_c, 1, 71, 88
5, 47396, Note_off_c, 1, 71, 0
5, 47400, Note_on_c, 1, 70, 88
5, 47516, Note_off_c, 1, 70, 0
5, 47520, Note_on_c, 1, 68, 88
5, 47636, Note_off_c, 1, 68, 0
5, 47640, Note_on_c, 1, 66, 88
5, 47756, Note_off_c, 1, 66, 0
5, 47760, Note_on_c, 1, 68, 88
5, 47876, Note_off_c, 1, 68, 0
5, 47880, Note_on_c, 1, 65, 88
5, 47996, Note_off_c, 1, 65, 0
5, 48000, Note_on_c, 1, 66, 88
5, 48116, Note_off_c, 1, 66, 0
5, 48120, Note_on_c, 1, 68, 88
5, 48236, Note_off_c, 1, 68, 0
5, 48240, Note_on_c, 1, 70, 88
5, 48356, Note_off_c, 1, 70, 0
5, 48360, Note_on_c, 1, 68, 88
5, 48594, Note_off_c, 1, 68, 0
5, 48600, Note_on_c, 1, 66, 88
5, 48658, Note_off_c, 1, 66, 0
5, 48660, Note_on_c, 1, 65, 88
5, 48718, Note_off_c, 1, 65, 0
5, 48720, Note_on_c, 1, 66, 88
5, 48836, Note_off_c, 1, 66, 0
5, 48840, Note_on_c, 1, 68, 88
5, 48956, Note_off_c, 1, 68, 0
5, 48960, Note_on_c, 1, 70, 88
5, 49194, Note_off_c, 1, 70, 0
5, 49200, Note_on_c, 1, 58, 88
5, 49434, Note_off_c, 1, 58, 0
5, 49440, Note_on_c, 1, 63, 88
5, 49793, Note_off_c, 1, 63, 0
5, 49800, Note_on_c, 1, 64, 88
5, 49916, Note_off_c, 1, 64, 0
5, 49920, Note_on_c, 1, 63, 88
5, 50036, Note_off_c, 1, 63, 0
5, 50040, Note_on_c, 1, 61, 88
5, 50156, Note_off_c, 1, 61, 0
5, 50160, Note_on_c, 1, 59, 88
5, 50276, Note_off_c, 1, 59, 0
5, 50280, Note_on_c, 1, 61, 88
5, 50396, Note_off_c, 1, 61, 0
5, 50400, Note_on_c, 1, 63, 88
5, 50634, Note_off_c, 1, 63, 0
5, 50640, Note_on_c, 1, 56, 88
5, 50756, Note_off_c, 1, 56, 0
5, 50760, Note_on_c, 1, 54, 88
5, 50876, Note_off_c, 1, 54, 0
5, 50880, Note_on_c, 1, 53, 88
5, 51114, Note_off_c, 1, 53, 0
5, 51120, Note_on_c, 1, 61, 88
5, 51354, Note_off_c, 1, 61, 0
5, 51360, Note_on_c, 1, 54, 88
5, 51713, Note_off_c, 1, 54, 0
5, 51720, Note_on_c, 1, 53, 88
5, 51836, Note_off_c, 1, 53, 0
5, 51840, Note_on_c, 1, 54, 88
5, 51956, Note_off_c, 1, 54, 0
5, 51960, Note_on_c, 1, 56, 88
5, 52076, Note_off_c, 1, 56, 0
5, 52080, Note_on_c, 1, 58, 88
5, 52196, Note_off_c, 1, 58, 0
5, 52200, Note_on_c, 1, 56, 88
5, 52316, Note_off_c, 1, 56, 0
5, 52320, Note_on_c, 1, 54, 88
5, 52554, Note_off_c, 1, 54, 0
5, 52560, Note_on_c, 1, 59, 88
5, 52676, Note_off_c, 1, 59, 0
5, 52680, Note_on_c, 1, 58, 88
5, 52796, Note_off_c, 1, 58, 0
5, 52800, Note_on_c, 1, 56, 88
5, 53034, Note_off_c, 1, 56, 0
5, 53040, Note_on_c, 1, 73, 88
5, 53274, Note_off_c, 1, 73, 0
5, 53280, Note_on_c, 1, 66, 88
5, 53750, Note_off_c, 1, 66, 0
5, 53760, Note_on_c, 1, 71, 88
5, 53876, Note_off_c, 1, 71, 0
5, 53880, Note_on_c, 1, 70, 88
5, 53996, Note_off_c, 1, 70, 0
5, 54000, Note_on_c, 1, 68, 88
5, 54116, Note_off_c, 1, 68, 0
5, 54120, Note_on_c, 1, 66, 88
5, 54236, Note_off_c, 1, 66, 0
5, 54240, Note_on_c, 1, 65, 88
5, 54356, Note_off_c, 1, 65, 0
5, 54360, Note_on_c, 1, 63, 88
5, 54476, Note_off_c, 1, 63, 0
5, 54480, Note_on_c, 1, 62, 88
5, 54596, Note_off_c, 1, 62, 0
5, 54600, Note_on_c, 1, 65, 88
5, 54716, Note_off_c, 1, 65, 0
5, 54720, Note_on_c, 1, 58, 88
5, 54836, Note_off_c, 1, 58, 0
5, 54840, Note_on_c, 1, 68, 88
5, 54956, Note_off_c, 1, 68, 0
5, 54960, Note_on_c, 1, 66, 88
5, 55076, Note_off_c, 1, 66, 0
5, 55080, Note_on_c, 1, 65, 88
5, 55196, Note_off_c, 1, 65, 0
5, 55200, Note_on_c, 1, 63, 88
5, 55434, Note_off_c, 1, 63, 0
5, 55440, Note_on_c, 1, 75, 88
5, 55556, Note_off_c, 1, 75, 0
5, 55560, Note_on_c, 1, 73, 88
5, 55676, Note_off_c, 1, 73, 0
5, 55680, Note_on_c, 1, 71, 88
5, 55796, Note_off_c, 1, 71, 0
5, 55800, Note_on_c, 1, 70, 88
5, 55916, Note_off_c, 1, 70, 0
5, 55920, Note_on_c, 1, 68, 88
5, 56036, Note_off_c, 1, 68, 0
5, 56040, Note_on_c, 1, 71, 88
5, 56156, Note_off_c, 1, 71, 0
5, 56160, Note_on_c, 1, 70, 88
5, 56276, Note_off_c, 1, 70, 0
5, 56280, Note_on_c, 1, 75, 88
5, 56514, Note_off_c, 1, 75, 0
5, 56520, Note_on_c, 1, 73, 88
5, 56756, Note_off_c, 1, 73, 0
5, 56760, Note_on_c, 1, 71, 88
5, 56994, Note_off_c, 1, 71, 0
5, 57000, Note_on_c, 1, 70, 88
5, 57234, Note_off_c, 1, 70, 0
5, 57240, Note_on_c, 1, 68, 88
5, 57474, Note_off_c, 1, 68, 0
5, 57480, Note_on_c, 1, 66, 88
5, 57716, Note_off_c, 1, 66, 0
5, 57720, Note_on_c, 1, 65, 88
5, 57954, Note_off_c, 1, 65, 0
5, 57960, Note_on_c, 1, 63, 88
5, 58076, Note_off_c, 1, 63, 0
5, 58080, Note_on_c, 1, 62, 88
5, 58196, Note_off_c, 1, 62, 0
5, 58200, Note_on_c, 1, 65, 88
5, 58316, Note_off_c, 1, 65, 0
5, 58320, Note_on_c, 1, 70, 88
5, 58676, Note_off_c, 1, 70, 0
5, 58680, Note_on_c, 1, 71, 88
5, 58796, Note_off_c, 1, 71, 0
5, 58800, Note_on_c, 1, 70, 88
5, 58916, Note_off_c, 1, 70, 0
5, 58920, Note_on_c, 1, 68, 88
5, 59036, Note_off_c, 1, 68, 0
5, 59040, Note_on_c, 1, 66, 88
5, 59156, Note_off_c, 1, 66, 0
5, 59160, Note_on_c, 1, 68, 88
5, 59276, Note_off_c, 1, 68, 0
5, 59280, Note_on_c, 1, 70, 88
5, 59514, Note_off_c, 1, 70, 0
5, 59520, Note_on_c, 1, 63, 88
5, 59754, Note_off_c, 1, 63, 0
5, 59760, Note_on_c, 1, 68, 88
5, 60113, Note_off_c, 1, 68, 0
5, 60120, Note_on_c, 1, 67, 88
5, 60236, Note_off_c, 1, 67, 0
5, 60240, Note_on_c, 1, 65, 88
5, 60356, Note_off_c, 1, 65, 0
5, 60360, Note_on_c, 1, 64, 88
5, 60476, Note_off_c, 1, 64, 0
5, 60480, Note_on_c, 1, 63, 88
5, 60596, Note_off_c, 1, 63, 0
5, 60600, Note_on_c, 1, 71, 88
5, 60716, Note_off_c, 1, 71, 0
5, 60720, Note_on_c, 1, 70, 88
5, 60836, Note_off_c, 1, 70, 0
5, 60840, Note_on_c, 1, 68, 88
5, 60956, Note_off_c, 1, 68, 0
5, 60960, Note_on_c, 1, 67, 88
5, 61076, Note_off_c, 1, 67, 0
5, 61080, Note_on_c, 1, 63, 88
5, 61138, Note_off_c, 1, 63, 0
5, 61140, Note_on_c, 1, 65, 88
5, 61198, Note_off_c, 1, 65, 0
5, 61200, Note_on_c, 1, 67, 88
5, 61316, Note_off_c, 1, 67, 0
5, 61320, Note_on_c, 1, 68, 88
5, 61378, Note_off_c, 1, 68, 0
5, 61380, Note_on_c, 1, 70, 88
5, 61438, Note_off_c, 1, 70, 0
5, 61440, Note_on_c, 1, 71, 88
5, 61793, Note_off_c, 1, 71, 0
5, 61800, Note_on_c, 1, 70, 88
5, 61916, Note_off_c, 1, 70, 0
5, 61920, Note_on_c, 1, 68, 88
5, 62036, Note_off_c, 1, 68, 0
5, 62040, Note_on_c, 1, 67, 88
5, 62156, Note_off_c, 1, 67, 0
5, 62160, Note_on_c, 1, 68, 88
5, 62276, Note_off_c, 1, 68, 0
5, 62280, Note_on_c, 1, 70, 88
5, 62396, Note_off_c, 1, 70, 0
5, 62400, Note_on_c, 1, 63, 88
5, 62516, Note_off_c, 1, 63, 0
5, 62520, Note_on_c, 1, 65, 88
5, 62636, Note_off_c, 1, 65, 0
5, 62640, Note_on_c, 1, 67, 88
5, 62756, Note_off_c, 1, 67, 0
5, 62760, Note_on_c, 1, 68, 88
5, 62876, Note_off_c, 1, 68, 0
5, 62880, Note_on_c, 1, 70, 88
5, 62938, Note_off_c, 1, 70, 0
5, 62940, Note_on_c, 1, 71, 88
5, 62998, Note_off_c, 1, 71, 0
5, 63000, Note_on_c, 1, 73, 88
5, 63234, Note_off_c, 1, 73, 0
5, 63240, Note_on_c, 1, 71, 88
5, 63298, Note_off_c, 1, 71, 0
5, 63300, Note_on_c, 1, 70, 88
5, 63358, Note_off_c, 1, 70, 0
5, 63360, Note_on_c, 1, 71, 88
5, 63594, Note_off_c, 1, 71, 0
5, 63840, Note_on_c, 1, 68, 88
5, 64310, Note_off_c, 1, 68, 0
5, 64320, Note_on_c, 1, 73, 88
5, 65028, Note_off_c, 1, 73, 0
5, 65040, Note_on_c, 1, 75, 88
5, 65274, Note_off_c, 1, 75, 0
5, 65280, Note_on_c, 1, 73, 88
5, 65514, Note_off_c, 1, 73, 0
5, 65520, Note_on_c, 1, 71, 88
5, 65754, Note_off_c, 1, 71, 0
5, 65760, Note_on_c, 1, 70, 88
5, 65994, Note_off_c, 1, 70, 0
5, 66000, Note_on_c, 1, 71, 88
5, 66234, Note_off_c, 1, 71, 0
5, 66240, Note_on_c, 1, 73, 88
5, 66710, Note_off_c, 1, 73, 0
5, 66720, Note_on_c, 1, 66, 88
5, 67190, Note_off_c, 1, 66, 0
5, 67200, Note_on_c, 1, 71, 88
5, 67908, Note_off_c, 1, 71, 0
5, 67920, Note_on_c, 1, 70, 88
5, 68154, Note_off_c, 1, 70, 0
5, 68160, Note_on_c, 1, 68, 88
5, 68630, Note_off_c, 1, 68, 0
5, 68640, Note_on_c, 1, 66, 88
5, 68874, Note_off_c, 1, 66, 0
5, 68880, Note_on_c, 1, 71, 88
5, 69236, Note_off_c, 1, 71, 0
5, 69240, Note_on_c, 1, 75, 88
5, 69356, Note_off_c, 1, 75, 0
5, 69360, Note_on_c, 1, 73, 88
5, 69476, Note_off_c, 1, 73, 0
5, 69480, Note_on_c, 1, 71, 88
5, 69596, Note_off_c, 1, 71, 0
5, 69600, Note_on_c, 1, 70, 88
5, 69716, Note_off_c, 1, 70, 0
5, 69720, Note_on_c, 1, 71, 88
5, 69836, Note_off_c, 1, 71, 0
5, 69840, Note_on_c, 1, 73, 88
5, 70074, Note_off_c, 1, 73, 0
5, 70080, Note_on_c, 1, 68, 88
5, 70314, Note_off_c, 1, 68, 0
5, 70320, Note_on_c, 1, 73, 88
5, 70673, Note_off_c, 1, 73, 0
5, 70680, Note_on_c, 1, 71, 88
5, 70796, Note_off_c, 1, 71, 0
5, 70800, Note_on_c, 1, 70, 88
5, 71156, Note_off_c, 1, 70, 0
5, 71160, Note_on_c, 1, 63, 88
5, 71276, Note_off_c, 1, 63, 0
5, 71280, Note_on_c, 1, 68, 88
5, 71629, Note_off_c, 1, 68, 0
5, 71640, Note_on_c, 1, 68, 88
5, 71756, Note_off_c, 1, 68, 0
5, 71760, Note_on_c, 1, 66, 88
5, 72109, Note_off_c, 1, 66, 0
5, 72120, Note_on_c, 1, 66, 88
5, 72236, Note_off_c, 1, 66, 0
5, 72240, Note_on_c, 1, 64, 88
5, 72356, Note_off_c, 1, 64, 0
5, 72360, Note_on_c, 1, 63, 88
5, 72476, Note_off_c, 1, 63, 0
5, 72480, Note_on_c, 1, 62, 88
5, 72714, Note_off_c, 1, 62, 0
5, 72720, Note_on_c, 1, 63, 88
5, 73076, Note_off_c, 1, 63, 0
5, 73080, Note_on_c, 1, 62, 88
5, 73138, Note_off_c, 1, 62, 0
5, 73140, Note_on_c, 1, 60, 88
5, 73198, Note_off_c, 1, 60, 0
5, 73200, Note_on_c, 1, 62, 88
5, 73316, Note_off_c, 1, 62, 0
5, 73320, Note_on_c, 1, 65, 88
5, 73436, Note_off_c, 1, 65, 0
5, 73440, Note_on_c, 1, 70, 88
5, 73793, Note_off_c, 1, 70, 0
5, 73800, Note_on_c, 1, 71, 88
5, 73916, Note_off_c, 1, 71, 0
5, 73920, Note_on_c, 1, 70, 88
5, 74273, Note_off_c, 1, 70, 0
5, 74280, Note_on_c, 1, 68, 88
5, 74396, Note_off_c, 1, 68, 0
5, 74400, Note_on_c, 1, 66, 88
5, 74753, Note_off_c, 1, 66, 0
5, 74760, Note_on_c, 1, 68, 88
5, 74876, Note_off_c, 1, 68, 0
5, 74880, Note_on_c, 1, 70, 88
5, 75350, Note_off_c, 1, 70, 0
5, 75360, Note_on_c, 1, 63, 88
5, 75594, Note_off_c, 1, 63, 0
5, 75600, Note_on_c, 1, 68, 88
5, 75956, Note_off_c, 1, 68, 0
5, 75960, Note_on_c, 1, 66, 88
5, 76076, Note_off_c, 1, 66, 0
5, 76080, Note_on_c, 1, 65, 88
5, 76314, Note_off_c, 1, 65, 0
5, 76320, Note_on_c, 1, 67, 88
5, 76436, Note_off_c, 1, 67, 0
5, 76440, Note_on_c, 1, 58, 88
5, 76556, Note_off_c, 1, 58, 0
5, 76560, Note_on_c, 1, 63, 88
5, 76916, Note_off_c, 1, 63, 0
5, 76920, Note_on_c, 1, 64, 88
5, 77036, Note_off_c, 1, 64, 0
5, 77040, Note_on_c, 1, 63, 88
5, 77156, Note_off_c, 1, 63, 0
5, 77160, Note_on_c, 1, 61, 88
5, 77276, Note_off_c, 1, 61, 0
5, 77280, Note_on_c, 1, 59, 88
5, 77396, Note_off_c, 1, 59, 0
5, 77400, Note_on_c, 1, 61, 88
5, 77516, Note_off_c, 1, 61, 0
5, 77520, Note_on_c, 1, 63, 88
5, 77754, Note_off_c, 1, 63, 0
5, 77760, Note_on_c, 1, 56, 88
5, 77994, Note_off_c, 1, 56, 0
5, 78000, Note_on_c, 1, 61, 88
5, 78353, Note_off_c, 1, 61, 0
5, 78360, Note_on_c, 1, 59, 88
5, 78476, Note_off_c, 1, 59, 0
5, 78480, Note_on_c, 1, 58, 88
5, 78714, Note_off_c, 1, 58, 0
5, 78720, Note_on_c, 1, 56, 88
5, 79073, Note_off_c, 1, 56, 0
5, 79080, Note_on_c, 1, 58, 88
5, 79196, Note_off_c, 1, 58, 0
5, 79200, Note_on_c, 1, 59, 88
5, 79316, Note_off_c, 1, 59, 0
5, 79320, Note_on_c, 1, 58, 88
5, 79436, Note_off_c, 1, 58, 0
5, 79440, Note_on_c, 1, 56, 88
5, 79556, Note_off_c, 1, 56, 0
5, 79560, Note_on_c, 1, 54, 88
5, 79676, Note_off_c, 1, 54, 0
5, 79680, Note_on_c, 1, 53, 88
5, 80033, Note_off_c, 1, 53, 0
5, 80040, Note_on_c, 1, 54, 88
5, 80156, Note_off_c, 1, 54, 0
5, 80160, Note_on_c, 1, 56, 88
5, 80276, Note_off_c, 1, 56, 0
5, 80280, Note_on_c, 1, 54, 88
5, 80396, Note_off_c, 1, 54, 0
5, 80400, Note_on_c, 1, 53, 88
5, 80516, Note_off_c, 1, 53, 0
5, 80520, Note_on_c, 1, 51, 88
5, 80636, Note_off_c, 1, 51, 0
5, 80640, Note_on_c, 1, 50, 88
5, 80993, Note_off_c, 1, 50, 0
5, 81000, Note_on_c, 1, 51, 88
5, 81116, Note_off_c, 1, 51, 0
5, 81120, Note_on_c, 1, 53, 88
5, 81354, Note_off_c, 1, 53, 0
5, 81360, Note_on_c, 1, 54, 88
5, 81476, Note_off_c, 1, 54, 0
5, 81480, Note_on_c, 1, 56, 88
5, 81596, Note_off_c, 1, 56, 0
5, 81600, Note_on_c, 1, 58, 88
5, 81709, Note_off_c, 1, 58, 0
5, 81720, Note_on_c, 1, 58, 88
5, 81836, Note_off_c, 1, 58, 0
5, 81840, Note_on_c, 1, 59, 88
5, 81956, Note_off_c, 1, 59, 0
5, 81960, Note_on_c, 1, 61, 88
5, 82076, Note_off_c, 1, 61, 0
5, 82080, Note_on_c, 1, 63, 88
5, 82189, Note_off_c, 1, 63, 0
5, 82200, Note_on_c, 1, 63, 88
5, 82316, Note_off_c, 1, 63, 0
5, 82320, Note_on_c, 1, 65, 88
5, 82436, Note_off_c, 1, 65, 0
5, 82440, Note_on_c, 1, 66, 88
5, 82556, Note_off_c, 1, 66, 0
5, 82560, Note_on_c, 1, 65, 88
5, 82676, Note_off_c, 1, 65, 0
5, 82680, Note_on_c, 1, 71, 88
5, 82796, Note_off_c, 1, 71, 0
5, 82800, Note_on_c, 1, 70, 88
5, 82916, Note_off_c, 1, 70, 0
5, 82920, Note_on_c, 1, 68, 88
5, 83036, Note_off_c, 1, 68, 0
5, 83040, Note_on_c, 1, 67, 88
5, 83510, Note_off_c, 1, 67, 0
5, 83510, End_track
6, 0, Start_track
6, 0, Title_t, "Track 3"
6, 0, Program_c, 2, 6
6, 6720, Note_on_c, 2, 51, 88
6, 6954, Note_off_c, 2, 51, 0
6, 6960, Note_on_c, 2, 58, 88
6, 7313, Note_off_c, 2, 58, 0
6, 7320, Note_on_c, 2, 59, 88
6, 7436, Note_off_c, 2, 59, 0
6, 7440, Note_on_c, 2, 58, 88
6, 7556, Note_off_c, 2, 58, 0
6, 7560, Note_on_c, 2, 56, 88
6, 7676, Note_off_c, 2, 56, 0
6, 7680, Note_on_c, 2, 54, 88
6, 7796, Note_off_c, 2, 54, 0
6, 7800, Note_on_c, 2, 56, 88
6, 7916, Note_off_c, 2, 56, 0
6, 7920, Note_on_c, 2, 58, 88
6, 8154, Note_off_c, 2, 58, 0
6, 8160, Note_on_c, 2, 51, 88
6, 8394, Note_off_c, 2, 51, 0
6, 8400, Note_on_c, 2, 56, 88
6, 8756, Note_off_c, 2, 56, 0
6, 8760, Note_on_c, 2, 54, 88
6, 8869, Note_off_c, 2, 54, 0
6, 8880, Note_on_c, 2, 54, 88
6, 8895, Note_on_c, 2, 53, 88
6, 8895, Note_off_c, 2, 54, 0
6, 8931, Note_off_c, 2, 53, 0
6, 8933, Note_on_c, 2, 54, 88
6, 8962, Note_off_c, 2, 54, 0
6, 8963, Note_on_c, 2, 53, 88
6, 9116, Note_off_c, 2, 53, 0
6, 9120, Note_on_c, 2, 51, 88
6, 9354, Note_off_c, 2, 51, 0
6, 9360, Note_on_c, 2, 63, 88
6, 9594, Note_off_c, 2, 63, 0
6, 9600, Note_on_c, 2, 62, 88
6, 9834, Note_off_c, 2, 62, 0
6, 9840, Note_on_c, 2, 61, 88
6, 10074, Note_off_c, 2, 61, 0
6, 10080, Note_on_c, 2, 60, 88
6, 10314, Note_off_c, 2, 60, 0
6, 10320, Note_on_c, 2, 59, 88
6, 10554, Note_off_c, 2, 59, 0
6, 10560, Note_on_c, 2, 58, 88
6, 10676, Note_off_c, 2, 58, 0
6, 10680, Note_on_c, 2, 46, 88
6, 10796, Note_off_c, 2, 46, 0
6, 10800, Note_on_c, 2, 51, 88
6, 11153, Note_off_c, 2, 51, 0
6, 11160, Note_on_c, 2, 54, 88
6, 11276, Note_off_c, 2, 54, 0
6, 11280, Note_on_c, 2, 53, 88
6, 11396, Note_off_c, 2, 53, 0
6, 11400, Note_on_c, 2, 51, 88
6, 11516, Note_off_c, 2, 51, 0
6, 11520, Note_on_c, 2, 50, 88
6, 11636, Note_off_c, 2, 50, 0
6, 11640, Note_on_c, 2, 51, 88
6, 11756, Note_off_c, 2, 51, 0
6, 11760, Note_on_c, 2, 53, 88
6, 11994, Note_off_c, 2, 53, 0
6, 12000, Note_on_c, 2, 46, 88
6, 12234, Note_off_c, 2, 46, 0
6, 12240, Note_on_c, 2, 51, 88
6, 12596, Note_off_c, 2, 51, 0
6, 12600, Note_on_c, 2, 49, 88
6, 12716, Note_off_c, 2, 49, 0
6, 12720, Note_on_c, 2, 47, 88
6, 13190, Note_off_c, 2, 47, 0
6, 13200, Note_on_c, 2, 46, 88
6, 13434, Note_off_c, 2, 46, 0
6, 13440, Note_on_c, 2, 44, 88
6, 13556, Note_off_c, 2, 44, 0
6, 13560, Note_on_c, 2, 46, 88
6, 13676, Note_off_c, 2, 46, 0
6, 13680, Note_on_c, 2, 47, 88
6, 13796, Note_off_c, 2, 47, 0
6, 13800, Note_on_c, 2, 49, 88
6, 13916, Note_off_c, 2, 49, 0
6, 13920, Note_on_c, 2, 51, 88
6, 14036, Note_off_c, 2, 51, 0
6, 14040, Note_on_c, 2, 53, 88
6, 14156, Note_off_c, 2, 53, 0
6, 14160, Note_on_c, 2, 54, 88
6, 14276, Note_off_c, 2, 54, 0
6, 14280, Note_on_c, 2, 56, 88
6, 14396, Note_off_c, 2, 56, 0
6, 14400, Note_on_c, 2, 58, 88
6, 14516, Note_off_c, 2, 58, 0
6, 14520, Note_on_c, 2, 56, 88
6, 14636, Note_off_c, 2, 56, 0
6, 14640, Note_on_c, 2, 58, 88
6, 14756, Note_off_c, 2, 58, 0
6, 14760, Note_on_c, 2, 59, 88
6, 14876, Note_off_c, 2, 59, 0
6, 14880, Note_on_c, 2, 61, 88
6, 15114, Note_off_c, 2, 61, 0
6, 15120, Note_on_c, 2, 49, 88
6, 15354, Note_off_c, 2, 49, 0
6, 15360, Note_on_c, 2, 42, 88
6, 15594, Note_off_c, 2, 42, 0
6, 15600, Note_on_c, 2, 54, 88
6, 15953, Note_off_c, 2, 54, 0
6, 15960, Note_on_c, 2, 53, 88
6, 16076, Note_off_c, 2, 53, 0
6, 16080, Note_on_c, 2, 51, 88
6, 16196, Note_off_c, 2, 51, 0
6, 16200, Note_on_c, 2, 49, 88
6, 16316, Note_off_c, 2, 49, 0
6, 16320, Note_on_c, 2, 48, 88
6, 16436, Note_off_c, 2, 48, 0
6, 16440, Note_on_c, 2, 46, 88
6, 16556, Note_off_c, 2, 46, 0
6, 16560, Note_on_c, 2, 45, 88
6, 16676, Note_off_c, 2, 45, 0
6, 16680, Note_on_c, 2, 41, 88
6, 16796, Note_off_c, 2, 41, 0
6, 16800, Note_on_c, 2, 46, 88
6, 16916, Note_off_c, 2, 46, 0
6, 16920, Note_on_c, 2, 48, 88
6, 17036, Note_off_c, 2, 48, 0
6, 17040, Note_on_c, 2, 49, 88
6, 17156, Note_off_c, 2, 49, 0
6, 17160, Note_on_c, 2, 51, 88
6, 17276, Note_off_c, 2, 51, 0
6, 17280, Note_on_c, 2, 53, 88
6, 17396, Note_off_c, 2, 53, 0
6, 17400, Note_on_c, 2, 51, 88
6, 17516, Note_off_c, 2, 51, 0
6, 17520, Note_on_c, 2, 53, 88
6, 17636, Note_off_c, 2, 53, 0
6, 17640, Note_on_c, 2, 41, 88
6, 17756, Note_off_c, 2, 41, 0
6, 17760, Note_on_c, 2, 46, 88
6, 17876, Note_off_c, 2, 46, 0
6, 17880, Note_on_c, 2, 45, 88
6, 17996, Note_off_c, 2, 45, 0
6, 18000, Note_on_c, 2, 46, 88
6, 18116, Note_off_c, 2, 46, 0
6, 18120, Note_on_c, 2, 48, 88
6, 18236, Note_off_c, 2, 48, 0
6, 18240, Note_on_c, 2, 49, 88
6, 18356, Note_off_c, 2, 49, 0
6, 18360, Note_on_c, 2, 48, 88
6, 18476, Note_off_c, 2, 48, 0
6, 18480, Note_on_c, 2, 49, 88
6, 18596, Note_off_c, 2, 49, 0
6, 18600, Note_on_c, 2, 51, 88
6, 18716, Note_off_c, 2, 51, 0
6, 18720, Note_on_c, 2, 53, 88
6, 18836, Note_off_c, 2, 53, 0
6, 18840, Note_on_c, 2, 51, 88
6, 18956, Note_off_c, 2, 51, 0
6, 18960, Note_on_c, 2, 49, 88
6, 19076, Note_off_c, 2, 49, 0
6, 19080, Note_on_c, 2, 51, 88
6, 19138, Note_off_c, 2, 51, 0
6, 19140, Note_on_c, 2, 53, 88
6, 19198, Note_off_c, 2, 53, 0
6, 19200, Note_on_c, 2, 54, 88
6, 19258, Note_off_c, 2, 54, 0
6, 19260, Note_on_c, 2, 53, 88
6, 19318, Note_off_c, 2, 53, 0
6, 19320, Note_on_c, 2, 54, 88
6, 19436, Note_off_c, 2, 54, 0
6, 19440, Note_on_c, 2, 45, 88
6, 19674, Note_off_c, 2, 45, 0
6, 19680, Note_on_c, 2, 46, 88
6, 19914, Note_off_c, 2, 46, 0
6, 19920, Note_on_c, 2, 48, 88
6, 20154, Note_off_c, 2, 48, 0
6, 20160, Note_on_c, 2, 49, 88
6, 20276, Note_off_c, 2, 49, 0
6, 20280, Note_on_c, 2, 46, 88
6, 20396, Note_off_c, 2, 46, 0
6, 20400, Note_on_c, 2, 53, 88
6, 20516, Note_off_c, 2, 53, 0
6, 20520, Note_on_c, 2, 51, 88
6, 20636, Note_off_c, 2, 51, 0
6, 20640, Note_on_c, 2, 50, 88
6, 20756, Note_off_c, 2, 50, 0
6, 20760, Note_on_c, 2, 51, 88
6, 20994, Note_off_c, 2, 51, 0
6, 21000, Note_on_c, 2, 50, 88
6, 21116, Note_off_c, 2, 50, 0
6, 21120, Note_on_c, 2, 51, 88
6, 21236, Note_off_c, 2, 51, 0
6, 21240, Note_on_c, 2, 60, 88
6, 21356, Note_off_c, 2, 60, 0
6, 21360, Note_on_c, 2, 57, 88
6, 21476, Note_off_c, 2, 57, 0
6, 21480, Note_on_c, 2, 58, 88
6, 21596, Note_off_c, 2, 58, 0
6, 21600, Note_on_c, 2, 54, 88
6, 21716, Note_off_c, 2, 54, 0
6, 21720, Note_on_c, 2, 53, 88
6, 21836, Note_off_c, 2, 53, 0
6, 21840, Note_on_c, 2, 54, 88
6, 22074, Note_off_c, 2, 54, 0
6, 22080, Note_on_c, 2, 53, 88
6, 22314, Note_off_c, 2, 53, 0
6, 22560, Note_on_c, 2, 54, 88
6, 22794, Note_off_c, 2, 54, 0
6, 22800, Note_on_c, 2, 59, 88
6, 23156, Note_off_c, 2, 59, 0
6, 23160, Note_on_c, 2, 61, 88
6, 23276, Note_off_c, 2, 61, 0
6, 23280, Note_on_c, 2, 59, 88
6, 23396, Note_off_c, 2, 59, 0
6, 23400, Note_on_c, 2, 58, 88
6, 23516, Note_off_c, 2, 58, 0
6, 23520, Note_on_c, 2, 56, 88
6, 23636, Note_off_c, 2, 56, 0
6, 23640, Note_on_c, 2, 55, 88
6, 23756, Note_off_c, 2, 55, 0
6, 23760, Note_on_c, 2, 56, 88
6, 23876, Note_off_c, 2, 56, 0
6, 23880, Note_on_c, 2, 58, 88
6, 23996, Note_off_c, 2, 58, 0
6, 24000, Note_on_c, 2, 60, 88
6, 24234, Note_off_c, 2, 60, 0
6, 24240, Note_on_c, 2, 61, 88
6, 24356, Note_off_c, 2, 61, 0
6, 24360, Note_on_c, 2, 59, 88
6, 24476, Note_off_c, 2, 59, 0
6, 24480, Note_on_c, 2, 58, 88
6, 24596, Note_off_c, 2, 58, 0
6, 24600, Note_on_c, 2, 56, 88
6, 24716, Note_off_c, 2, 56, 0
6, 24720, Note_on_c, 2, 55, 88
6, 24836, Note_off_c, 2, 55, 0
6, 24840, Note_on_c, 2, 51, 88
6, 24956, Note_off_c, 2, 51, 0
6, 24960, Note_on_c, 2, 56, 88
6, 25076, Note_off_c, 2, 56, 0
6, 25080, Note_on_c, 2, 58, 88
6, 25196, Note_off_c, 2, 58, 0
6, 25200, Note_on_c, 2, 56, 88
6, 25316, Note_off_c, 2, 56, 0
6, 25320, Note_on_c, 2, 54, 88
6, 25436, Note_off_c, 2, 54, 0
6, 25440, Note_on_c, 2, 53, 88
6, 25556, Note_off_c, 2, 53, 0
6, 25560, Note_on_c, 2, 54, 88
6, 25676, Note_off_c, 2, 54, 0
6, 25680, Note_on_c, 2, 53, 88
6, 25796, Note_off_c, 2, 53, 0
6, 25800, Note_on_c, 2, 51, 88
6, 25916, Note_off_c, 2, 51, 0
6, 25920, Note_on_c, 2, 49, 88
6, 26036, Note_off_c, 2, 49, 0
6, 26040, Note_on_c, 2, 59, 88
6, 26156, Note_off_c, 2, 59, 0
6, 26160, Note_on_c, 2, 58, 88
6, 26276, Note_off_c, 2, 58, 0
6, 26280, Note_on_c, 2, 56, 88
6, 26396, Note_off_c, 2, 56, 0
6, 26400, Note_on_c, 2, 54, 88
6, 26516, Note_off_c, 2, 54, 0
6, 26520, Note_on_c, 2, 56, 88
6, 26636, Note_off_c, 2, 56, 0
6, 26640, Note_on_c, 2, 54, 88
6, 26756, Note_off_c, 2, 54, 0
6, 26760, Note_on_c, 2, 52, 88
6, 26876, Note_off_c, 2, 52, 0
6, 26880, Note_on_c, 2, 51, 88
6, 26996, Note_off_c, 2, 51, 0
6, 27000, Note_on_c, 2, 49, 88
6, 27116, Note_off_c, 2, 49, 0
6, 27120, Note_on_c, 2, 47, 88
6, 27236, Note_off_c, 2, 47, 0
6, 27240, Note_on_c, 2, 44, 88
6, 27356, Note_off_c, 2, 44, 0
6, 27360, Note_on_c, 2, 46, 88
6, 27476, Note_off_c, 2, 46, 0
6, 27480, Note_on_c, 2, 42, 88
6, 27596, Note_off_c, 2, 42, 0
6, 27600, Note_on_c, 2, 49, 88
6, 27716, Note_off_c, 2, 49, 0
6, 27720, Note_on_c, 2, 37, 88
6, 27836, Note_off_c, 2, 37, 0
6, 27840, Note_on_c, 2, 42, 88
6, 27956, Note_off_c, 2, 42, 0
6, 27960, Note_on_c, 2, 44, 88
6, 28076, Note_off_c, 2, 44, 0
6, 28080, Note_on_c, 2, 46, 88
6, 28196, Note_off_c, 2, 46, 0
6, 28200, Note_on_c, 2, 44, 88
6, 28316, Note_off_c, 2, 44, 0
6, 28320, Note_on_c, 2, 42, 88
6, 28436, Note_off_c, 2, 42, 0
6, 28440, Note_on_c, 2, 54, 88
6, 28556, Note_off_c, 2, 54, 0
6, 28560, Note_on_c, 2, 53, 88
6, 28676, Note_off_c, 2, 53, 0
6, 28680, Note_on_c, 2, 51, 88
6, 28796, Note_off_c, 2, 51, 0
6, 28800, Note_on_c, 2, 49, 88
6, 29034, Note_off_c, 2, 49, 0
6, 29040, Note_on_c, 2, 54, 88
6, 29510, Note_off_c, 2, 54, 0
6, 29520, Note_on_c, 2, 53, 88
6, 29754, Note_off_c, 2, 53, 0
6, 29760, Note_on_c, 2, 54, 88
6, 29876, Note_off_c, 2, 54, 0
6, 29880, Note_on_c, 2, 53, 88
6, 29996, Note_off_c, 2, 53, 0
6, 30000, Note_on_c, 2, 51, 88
6, 30116, Note_off_c, 2, 51, 0
6, 30120, Note_on_c, 2, 50, 88
6, 30236, Note_off_c, 2, 50, 0
6, 30240, Note_on_c, 2, 51, 88
6, 30474, Note_off_c, 2, 51, 0
6, 30480, Note_on_c, 2, 46, 88
6, 30596, Note_off_c, 2, 46, 0
6, 30600, Note_on_c, 2, 48, 88
6, 30716, Note_off_c, 2, 48, 0
6, 30720, Note_on_c, 2, 49, 88
6, 30954, Note_off_c, 2, 49, 0
6, 30960, Note_on_c, 2, 42, 88
6, 31194, Note_off_c, 2, 42, 0
6, 31200, Note_on_c, 2, 44, 88
6, 31434, Note_off_c, 2, 44, 0
6, 31440, Note_on_c, 2, 46, 88
6, 31674, Note_off_c, 2, 46, 0
6, 31680, Note_on_c, 2, 47, 88
6, 31796, Note_off_c, 2, 47, 0
6, 31800, Note_on_c, 2, 46, 88
6, 31916, Note_off_c, 2, 46, 0
6, 31920, Note_on_c, 2, 44, 88
6, 32036, Note_off_c, 2, 44, 0
6, 32040, Note_on_c, 2, 42, 88
6, 32156, Note_off_c, 2, 42, 0
6, 32160, Note_on_c, 2, 40, 88
6, 32394, Note_off_c, 2, 40, 0
6, 32400, Note_on_c, 2, 39, 88
6, 32634, Note_off_c, 2, 39, 0
6, 32640, Note_on_c, 2, 44, 88
6, 32756, Note_off_c, 2, 44, 0
6, 32760, Note_on_c, 2, 46, 88
6, 32876, Note_off_c, 2, 46, 0
6, 32880, Note_on_c, 2, 47, 88
6, 32996, Note_off_c, 2, 47, 0
6, 33000, Note_on_c, 2, 49, 88
6, 33116, Note_off_c, 2, 49, 0
6, 33120, Note_on_c, 2, 51, 88
6, 33354, Note_off_c, 2, 51, 0
6, 33480, Note_on_c, 2, 51, 88
6, 33596, Note_off_c, 2, 51, 0
6, 33600, Note_on_c, 2, 56, 88
6, 33716, Note_off_c, 2, 56, 0
6, 33720, Note_on_c, 2, 58, 88
6, 33836, Note_off_c, 2, 58, 0
6, 33840, Note_on_c, 2, 59, 88
6, 33956, Note_off_c, 2, 59, 0
6, 33960, Note_on_c, 2, 56, 88
6, 34076, Note_off_c, 2, 56, 0
6, 34080, Note_on_c, 2, 58, 88
6, 34196, Note_off_c, 2, 58, 0
6, 34200, Note_on_c, 2, 56, 88
6, 34316, Note_off_c, 2, 56, 0
6, 34320, Note_on_c, 2, 54, 88
6, 34436, Note_off_c, 2, 54, 0
6, 34440, Note_on_c, 2, 53, 88
6, 34556, Note_off_c, 2, 53, 0
6, 34560, Note_on_c, 2, 51, 88
6, 34794, Note_off_c, 2, 51, 0
6, 34800, Note_on_c, 2, 56, 88
6, 35153, Note_off_c, 2, 56, 0
6, 35160, Note_on_c, 2, 55, 88
6, 35218, Note_off_c, 2, 55, 0
6, 35220, Note_on_c, 2, 53, 88
6, 35278, Note_off_c, 2, 53, 0
6, 35280, Note_on_c, 2, 55, 88
6, 35514, Note_off_c, 2, 55, 0
6, 35520, Note_on_c, 2, 56, 88
6, 35636, Note_off_c, 2, 56, 0
6, 35640, Note_on_c, 2, 54, 88
6, 35756, Note_off_c, 2, 54, 0
6, 35760, Note_on_c, 2, 53, 88
6, 35876, Note_off_c, 2, 53, 0
6, 35880, Note_on_c, 2, 51, 88
6, 35996, Note_off_c, 2, 51, 0
6, 36000, Note_on_c, 2, 53, 88
6, 36116, Note_off_c, 2, 53, 0
6, 36120, Note_on_c, 2, 54, 88
6, 36236, Note_off_c, 2, 54, 0
6, 36240, Note_on_c, 2, 56, 88
6, 36356, Note_off_c, 2, 56, 0
6, 36360, Note_on_c, 2, 58, 88
6, 36476, Note_off_c, 2, 58, 0
6, 36480, Note_on_c, 2, 51, 88
6, 36538, Note_off_c, 2, 51, 0
6, 36540, Note_on_c, 2, 63, 88
6, 36598, Note_off_c, 2, 63, 0
6, 36600, Note_on_c, 2, 61, 88
6, 36658, Note_off_c, 2, 61, 0
6, 36660, Note_on_c, 2, 59, 88
6, 36718, Note_off_c, 2, 59, 0
6, 36720, Note_on_c, 2, 58, 88
6, 37073, Note_off_c, 2, 58, 0
6, 37080, Note_on_c, 2, 54, 88
6, 37196, Note_off_c, 2, 54, 0
6, 37200, Note_on_c, 2, 56, 88
6, 37316, Note_off_c, 2, 56, 0
6, 37320, Note_on_c, 2, 58, 88
6, 37436, Note_off_c, 2, 58, 0
6, 37440, Note_on_c, 2, 59, 88
6, 37556, Note_off_c, 2, 59, 0
6, 37560, Note_on_c, 2, 58, 88
6, 37676, Note_off_c, 2, 58, 0
6, 37680, Note_on_c, 2, 56, 88
6, 37914, Note_off_c, 2, 56, 0
6, 37920, Note_on_c, 2, 63, 88
6, 38154, Note_off_c, 2, 63, 0
6, 38160, Note_on_c, 2, 58, 88
6, 38516, Note_off_c, 2, 58, 0
6, 38520, Note_on_c, 2, 60, 88
6, 38636, Note_off_c, 2, 60, 0
6, 38640, Note_on_c, 2, 62, 88
6, 38874, Note_off_c, 2, 62, 0
6, 38880, Note_on_c, 2, 63, 88
6, 38996, Note_off_c, 2, 63, 0
6, 39000, Note_on_c, 2, 59, 88
6, 39116, Note_off_c, 2, 59, 0
6, 39120, Note_on_c, 2, 54, 88
6, 39236, Note_off_c, 2, 54, 0
6, 39240, Note_on_c, 2, 56, 88
6, 39356, Note_off_c, 2, 56, 0
6, 39360, Note_on_c, 2, 58, 88
6, 39594, Note_off_c, 2, 58, 0
6, 39600, Note_on_c, 2, 51, 88
6, 39834, Note_off_c, 2, 51, 0
6, 39840, Note_on_c, 2, 56, 88
6, 39956, Note_off_c, 2, 56, 0
6, 39960, Note_on_c, 2, 58, 88
6, 40076, Note_off_c, 2, 58, 0
6, 40080, Note_on_c, 2, 59, 88
6, 40314, Note_off_c, 2, 59, 0
6, 40320, Note_on_c, 2, 58, 88
6, 40790, Note_off_c, 2, 58, 0
6, 41760, Note_on_c, 2, 46, 88
6, 41994, Note_off_c, 2, 46, 0
6, 42000, Note_on_c, 2, 39, 88
6, 42356, Note_off_c, 2, 39, 0
6, 42360, Note_on_c, 2, 38, 88
6, 42476, Note_off_c, 2, 38, 0
6, 42480, Note_on_c, 2, 39, 88
6, 42596, Note_off_c, 2, 39, 0
6, 42600, Note_on_c, 2, 41, 88
6, 42716, Note_off_c, 2, 41, 0
6, 42720, Note_on_c, 2, 42, 88
6, 42836, Note_off_c, 2, 42, 0
6, 42840, Note_on_c, 2, 41, 88
6, 42956, Note_off_c, 2, 41, 0
6, 42960, Note_on_c, 2, 39, 88
6, 43194, Note_off_c, 2, 39, 0
6, 43200, Note_on_c, 2, 46, 88
6, 43434, Note_off_c, 2, 46, 0
6, 43440, Note_on_c, 2, 39, 88
6, 43793, Note_off_c, 2, 39, 0
6, 43800, Note_on_c, 2, 41, 88
6, 43916, Note_off_c, 2, 41, 0
6, 43920, Note_on_c, 2, 43, 88
6, 44154, Note_off_c, 2, 43, 0
6, 44160, Note_on_c, 2, 44, 88
6, 44394, Note_off_c, 2, 44, 0
6, 44400, Note_on_c, 2, 46, 88
6, 44634, Note_off_c, 2, 46, 0
6, 44640, Note_on_c, 2, 47, 88
6, 44756, Note_off_c, 2, 47, 0
6, 44760, Note_on_c, 2, 49, 88
6, 44876, Note_off_c, 2, 49, 0
6, 44880, Note_on_c, 2, 47, 88
6, 44996, Note_off_c, 2, 47, 0
6, 45000, Note_on_c, 2, 46, 88
6, 45116, Note_off_c, 2, 46, 0
6, 45120, Note_on_c, 2, 44, 88
6, 45236, Note_off_c, 2, 44, 0
6, 45240, Note_on_c, 2, 46, 88
6, 45356, Note_off_c, 2, 46, 0
6, 45360, Note_on_c, 2, 47, 88
6, 45476, Note_off_c, 2, 47, 0
6, 45480, Note_on_c, 2, 52, 88
6, 45538, Note_off_c, 2, 52, 0
6, 45540, Note_on_c, 2, 49, 88
6, 45598, Note_off_c, 2, 49, 0
6, 45600, Note_on_c, 2, 56, 88
6, 45834, Note_off_c, 2, 56, 0
6, 45840, Note_on_c, 2, 47, 88
6, 45956, Note_off_c, 2, 47, 0
6, 45960, Note_on_c, 2, 49, 88
6, 46076, Note_off_c, 2, 49, 0
6, 46080, Note_on_c, 2, 51, 88
6, 46196, Note_off_c, 2, 51, 0
6, 46200, Note_on_c, 2, 50, 88
6, 46316, Note_off_c, 2, 50, 0
6, 46320, Note_on_c, 2, 51, 88
6, 46436, Note_off_c, 2, 51, 0
6, 46440, Note_on_c, 2, 53, 88
6, 46556, Note_off_c, 2, 53, 0
6, 46560, Note_on_c, 2, 54, 88
6, 46676, Note_off_c, 2, 54, 0
6, 46680, Note_on_c, 2, 56, 88
6, 46796, Note_off_c, 2, 56, 0
6, 46800, Note_on_c, 2, 53, 88
6, 46916, Note_off_c, 2, 53, 0
6, 46920, Note_on_c, 2, 55, 88
6, 47036, Note_off_c, 2, 55, 0
6, 47040, Note_on_c, 2, 56, 88
6, 47156, Note_off_c, 2, 56, 0
6, 47160, Note_on_c, 2, 58, 88
6, 47276, Note_off_c, 2, 58, 0
6, 47280, Note_on_c, 2, 56, 88
6, 47396, Note_off_c, 2, 56, 0
6, 47400, Note_on_c, 2, 54, 88
6, 47516, Note_off_c, 2, 54, 0
6, 47520, Note_on_c, 2, 53, 88
6, 47636, Note_off_c, 2, 53, 0
6, 47640, Note_on_c, 2, 51, 88
6, 47756, Note_off_c, 2, 51, 0
6, 47760, Note_on_c, 2, 50, 88
6, 47876, Note_off_c, 2, 50, 0
6, 47880, Note_on_c, 2, 59, 88
6, 47996, Note_off_c, 2, 59, 0
6, 48000, Note_on_c, 2, 58, 88
6, 48116, Note_off_c, 2, 58, 0
6, 48120, Note_on_c, 2, 56, 88
6, 48236, Note_off_c, 2, 56, 0
6, 48240, Note_on_c, 2, 54, 88
6, 48356, Note_off_c, 2, 54, 0
6, 48360, Note_on_c, 2, 53, 88
6, 48476, Note_off_c, 2, 53, 0
6, 48480, Note_on_c, 2, 51, 88
6, 48596, Note_off_c, 2, 51, 0
6, 48600, Note_on_c, 2, 49, 88
6, 48709, Note_off_c, 2, 49, 0
6, 48720, Note_on_c, 2, 49, 88
6, 48756, Note_off_c, 2, 49, 0
6, 48758, Note_on_c, 2, 47, 88
6, 48787, Note_off_c, 2, 47, 0
6, 48788, Note_on_c, 2, 49, 88
6, 48817, Note_off_c, 2, 49, 0
6, 48818, Note_on_c, 2, 47, 88
6, 48847, Note_off_c, 2, 47, 0
6, 48848, Note_on_c, 2, 49, 88
6, 48869, Note_off_c, 2, 49, 0
6, 48870, Note_on_c, 2, 47, 88
6, 48892, Note_off_c, 2, 47, 0
6, 48893, Note_on_c, 2, 49, 88
6, 48914, Note_off_c, 2, 49, 0
6, 48915, Note_on_c, 2, 47, 88
6, 48959, Note_off_c, 2, 47, 0
6, 48960, Note_on_c, 2, 46, 88
6, 49194, Note_off_c, 2, 46, 0
6, 49200, Note_on_c, 2, 51, 88
6, 49553, Note_off_c, 2, 51, 0
6, 49560, Note_on_c, 2, 52, 88
6, 49676, Note_off_c, 2, 52, 0
6, 49680, Note_on_c, 2, 51, 88
6, 49796, Note_off_c, 2, 51, 0
6, 49800, Note_on_c, 2, 49, 88
6, 49916, Note_off_c, 2, 49, 0
6, 49920, Note_on_c, 2, 47, 88
6, 50036, Note_off_c, 2, 47, 0
6, 50040, Note_on_c, 2, 49, 88
6, 50156, Note_off_c, 2, 49, 0
6, 50160, Note_on_c, 2, 51, 88
6, 50394, Note_off_c, 2, 51, 0
6, 50400, Note_on_c, 2, 44, 88
6, 50516, Note_off_c, 2, 44, 0
6, 50520, Note_on_c, 2, 46, 88
6, 50636, Note_off_c, 2, 46, 0
6, 50640, Note_on_c, 2, 47, 88
6, 50874, Note_off_c, 2, 47, 0
6, 50880, Note_on_c, 2, 49, 88
6, 51114, Note_off_c, 2, 49, 0
6, 51120, Note_on_c, 2, 42, 88
6, 51473, Note_off_c, 2, 42, 0
6, 51480, Note_on_c, 2, 41, 88
6, 51596, Note_off_c, 2, 41, 0
6, 51600, Note_on_c, 2, 42, 88
6, 51716, Note_off_c, 2, 42, 0
6, 51720, Note_on_c, 2, 44, 88
6, 51836, Note_off_c, 2, 44, 0
6, 51840, Note_on_c, 2, 46, 88
6, 51956, Note_off_c, 2, 46, 0
6, 51960, Note_on_c, 2, 44, 88
6, 52076, Note_off_c, 2, 44, 0
6, 52080, Note_on_c, 2, 42, 88
6, 52196, Note_off_c, 2, 42, 0
6, 52200, Note_on_c, 2, 52, 88
6, 52316, Note_off_c, 2, 52, 0
6, 52320, Note_on_c, 2, 51, 88
6, 52916, Note_off_c, 2, 51, 0
6, 52920, Note_on_c, 2, 49, 88
6, 53036, Note_off_c, 2, 49, 0
6, 53040, Note_on_c, 2, 47, 88
6, 53156, Note_off_c, 2, 47, 0
6, 53160, Note_on_c, 2, 46, 88
6, 53276, Note_off_c, 2, 46, 0
6, 53280, Note_on_c, 2, 47, 88
6, 53514, Note_off_c, 2, 47, 0
6, 53520, Note_on_c, 2, 59, 88
6, 53636, Note_off_c, 2, 59, 0
6, 53640, Note_on_c, 2, 58, 88
6, 53756, Note_off_c, 2, 58, 0
6, 53760, Note_on_c, 2, 56, 88
6, 53876, Note_off_c, 2, 56, 0
6, 53880, Note_on_c, 2, 58, 88
6, 53996, Note_off_c, 2, 58, 0
6, 54000, Note_on_c, 2, 59, 88
6, 54116, Note_off_c, 2, 59, 0
6, 54120, Note_on_c, 2, 56, 88
6, 54236, Note_off_c, 2, 56, 0
6, 54240, Note_on_c, 2, 58, 88
6, 54593, Note_off_c, 2, 58, 0
6, 54600, Note_on_c, 2, 56, 88
6, 54716, Note_off_c, 2, 56, 0
6, 54720, Note_on_c, 2, 54, 88
6, 54836, Note_off_c, 2, 54, 0
6, 54840, Note_on_c, 2, 56, 88
6, 54956, Note_off_c, 2, 56, 0
6, 54960, Note_on_c, 2, 58, 88
6, 55194, Note_off_c, 2, 58, 0
6, 55200, Note_on_c, 2, 51, 88
6, 55316, Note_off_c, 2, 51, 0
6, 55320, Note_on_c, 2, 53, 88
6, 55436, Note_off_c, 2, 53, 0
6, 55440, Note_on_c, 2, 55, 88
6, 55674, Note_off_c, 2, 55, 0
6, 55680, Note_on_c, 2, 56, 88
6, 55796, Note_off_c, 2, 56, 0
6, 55800, Note_on_c, 2, 54, 88
6, 55916, Note_off_c, 2, 54, 0
6, 55920, Note_on_c, 2, 53, 88
6, 56036, Note_off_c, 2, 53, 0
6, 56040, Note_on_c, 2, 51, 88
6, 56156, Note_off_c, 2, 51, 0
6, 56160, Note_on_c, 2, 50, 88
6, 56276, Note_off_c, 2, 50, 0
6, 56280, Note_on_c, 2, 51, 88
6, 56396, Note_off_c, 2, 51, 0
6, 56400, Note_on_c, 2, 46, 88
6, 56516, Note_off_c, 2, 46, 0
6, 56520, Note_on_c, 2, 58, 88
6, 56636, Note_off_c, 2, 58, 0
6, 56640, Note_on_c, 2, 59, 88
6, 56756, Note_off_c, 2, 59, 0
6, 56760, Note_on_c, 2, 51, 88
6, 56876, Note_off_c, 2, 51, 0
6, 56880, Note_on_c, 2, 53, 88
6, 56996, Note_off_c, 2, 53, 0
6, 57000, Note_on_c, 2, 55, 88
6, 57116, Note_off_c, 2, 55, 0
6, 57120, Note_on_c, 2, 56, 88
6, 57236, Note_off_c, 2, 56, 0
6, 57240, Note_on_c, 2, 53, 88
6, 57356, Note_off_c, 2, 53, 0
6, 57360, Note_on_c, 2, 50, 88
6, 57476, Note_off_c, 2, 50, 0
6, 57480, Note_on_c, 2, 51, 88
6, 57596, Note_off_c, 2, 51, 0
6, 57600, Note_on_c, 2, 48, 88
6, 57716, Note_off_c, 2, 48, 0
6, 57720, Note_on_c, 2, 50, 88
6, 57836, Note_off_c, 2, 50, 0
6, 57840, Note_on_c, 2, 51, 88
6, 57956, Note_off_c, 2, 51, 0
6, 57960, Note_on_c, 2, 39, 88
6, 58076, Note_off_c, 2, 39, 0
6, 58080, Note_on_c, 2, 46, 88
6, 58314, Note_off_c, 2, 46, 0
6, 58560, Note_on_c, 2, 58, 88
6, 59030, Note_off_c, 2, 58, 0
6, 59040, Note_on_c, 2, 63, 88
6, 59754, Note_off_c, 2, 63, 0
6, 59760, Note_on_c, 2, 64, 88
6, 59994, Note_off_c, 2, 64, 0
6, 60000, Note_on_c, 2, 63, 88
6, 60234, Note_off_c, 2, 63, 0
6, 60240, Note_on_c, 2, 61, 88
6, 60474, Note_off_c, 2, 61, 0
6, 60480, Note_on_c, 2, 59, 88
6, 60714, Note_off_c, 2, 59, 0
6, 60720, Note_on_c, 2, 61, 88
6, 60954, Note_off_c, 2, 61, 0
6, 60960, Note_on_c, 2, 63, 88
6, 61430, Note_off_c, 2, 63, 0
6, 61440, Note_on_c, 2, 56, 88
6, 61910, Note_off_c, 2, 56, 0
6, 61920, Note_on_c, 2, 61, 88
6, 62634, Note_off_c, 2, 61, 0
6, 62640, Note_on_c, 2, 59, 88
6, 62874, Note_off_c, 2, 59, 0
6, 62880, Note_on_c, 2, 58, 88
6, 63350, Note_off_c, 2, 58, 0
6, 63360, Note_on_c, 2, 56, 88
6, 63594, Note_off_c, 2, 56, 0
6, 63600, Note_on_c, 2, 61, 88
6, 63953, Note_off_c, 2, 61, 0
6, 63960, Note_on_c, 2, 63, 88
6, 64076, Note_off_c, 2, 63, 0
6, 64080, Note_on_c, 2, 61, 88
6, 64196, Note_off_c, 2, 61, 0
6, 64200, Note_on_c, 2, 59, 88
6, 64316, Note_off_c, 2, 59, 0
6, 64320, Note_on_c, 2, 58, 88
6, 64436, Note_off_c, 2, 58, 0
6, 64440, Note_on_c, 2, 59, 88
6, 64556, Note_off_c, 2, 59, 0
6, 64560, Note_on_c, 2, 61, 88
6, 64794, Note_off_c, 2, 61, 0
6, 64800, Note_on_c, 2, 54, 88
6, 65034, Note_off_c, 2, 54, 0
6, 65040, Note_on_c, 2, 59, 88
6, 65396, Note_off_c, 2, 59, 0
6, 65400, Note_on_c, 2, 58, 88
6, 65509, Note_off_c, 2, 58, 0
6, 65520, Note_on_c, 2, 58, 88
6, 65556, Note_off_c, 2, 58, 0
6, 65558, Note_on_c, 2, 56, 88
6, 65587, Note_off_c, 2, 56, 0
6, 65588, Note_on_c, 2, 58, 88
6, 65617, Note_off_c, 2, 58, 0
6, 65618, Note_on_c, 2, 56, 88
6, 65647, Note_off_c, 2, 56, 0
6, 65648, Note_on_c, 2, 58, 88
6, 65669, Note_off_c, 2, 58, 0
6, 65670, Note_on_c, 2, 56, 88
6, 65692, Note_off_c, 2, 56, 0
6, 65693, Note_on_c, 2, 58, 88
6, 65714, Note_off_c, 2, 58, 0
6, 65715, Note_on_c, 2, 56, 88
6, 65759, Note_off_c, 2, 56, 0
6, 65760, Note_on_c, 2, 54, 88
6, 65876, Note_off_c, 2, 54, 0
6, 65880, Note_on_c, 2, 52, 88
6, 65996, Note_off_c, 2, 52, 0
6, 66000, Note_on_c, 2, 51, 88
6, 66058, Note_off_c, 2, 51, 0
6, 66060, Note_on_c, 2, 49, 88
6, 66118, Note_off_c, 2, 49, 0
6, 66120, Note_on_c, 2, 51, 88
6, 66178, Note_off_c, 2, 51, 0
6, 66180, Note_on_c, 2, 52, 88
6, 66238, Note_off_c, 2, 52, 0
6, 66240, Note_on_c, 2, 46, 88
6, 66356, Note_off_c, 2, 46, 0
6, 66360, Note_on_c, 2, 42, 88
6, 66476, Note_off_c, 2, 42, 0
6, 66480, Note_on_c, 2, 44, 88
6, 66596, Note_off_c, 2, 44, 0
6, 66600, Note_on_c, 2, 46, 88
6, 66716, Note_off_c, 2, 46, 0
6, 66720, Note_on_c, 2, 47, 88
6, 66836, Note_off_c, 2, 47, 0
6, 66840, Note_on_c, 2, 49, 88
6, 66956, Note_off_c, 2, 49, 0
6, 66960, Note_on_c, 2, 51, 88
6, 67076, Note_off_c, 2, 51, 0
6, 67080, Note_on_c, 2, 52, 88
6, 67138, Note_off_c, 2, 52, 0
6, 67140, Note_on_c, 2, 54, 88
6, 67198, Note_off_c, 2, 54, 0
6, 67200, Note_on_c, 2, 56, 88
6, 67316, Note_off_c, 2, 56, 0
6, 67320, Note_on_c, 2, 58, 88
6, 67378, Note_off_c, 2, 58, 0
6, 67380, Note_on_c, 2, 59, 88
6, 67438, Note_off_c, 2, 59, 0
6, 67440, Note_on_c, 2, 49, 88
6, 67556, Note_off_c, 2, 49, 0
6, 67560, Note_on_c, 2, 51, 88
6, 67618, Note_off_c, 2, 51, 0
6, 67620, Note_on_c, 2, 52, 88
6, 67678, Note_off_c, 2, 52, 0
6, 67680, Note_on_c, 2, 42, 88
6, 67796, Note_off_c, 2, 42, 0
6, 67800, Note_on_c, 2, 54, 88
6, 68034, Note_off_c, 2, 54, 0
6, 68040, Note_on_c, 2, 55, 88
6, 68156, Note_off_c, 2, 55, 0
6, 68160, Note_on_c, 2, 56, 88
6, 68276, Note_off_c, 2, 56, 0
6, 68280, Note_on_c, 2, 55, 88
6, 68396, Note_off_c, 2, 55, 0
6, 68400, Note_on_c, 2, 56, 88
6, 68516, Note_off_c, 2, 56, 0
6, 68520, Note_on_c, 2, 58, 88
6, 68636, Note_off_c, 2, 58, 0
6, 68640, Note_on_c, 2, 59, 88
6, 68756, Note_off_c, 2, 59, 0
6, 68760, Note_on_c, 2, 58, 88
6, 68876, Note_off_c, 2, 58, 0
6, 68880, Note_on_c, 2, 56, 88
6, 68996, Note_off_c, 2, 56, 0
6, 69000, Note_on_c, 2, 54, 88
6, 69116, Note_off_c, 2, 54, 0
6, 69120, Note_on_c, 2, 53, 88
6, 69236, Note_off_c, 2, 53, 0
6, 69240, Note_on_c, 2, 54, 88
6, 69356, Note_off_c, 2, 54, 0
6, 69360, Note_on_c, 2, 53, 88
6, 69476, Note_off_c, 2, 53, 0
6, 69480, Note_on_c, 2, 51, 88
6, 69596, Note_off_c, 2, 51, 0
6, 69600, Note_on_c, 2, 50, 88
6, 69716, Note_off_c, 2, 50, 0
6, 69720, Note_on_c, 2, 62, 88
6, 69778, Note_off_c, 2, 62, 0
6, 69780, Note_on_c, 2, 63, 88
6, 69838, Note_off_c, 2, 63, 0
6, 69840, Note_on_c, 2, 64, 88
6, 69956, Note_off_c, 2, 64, 0
6, 69960, Note_on_c, 2, 58, 88
6, 70076, Note_off_c, 2, 58, 0
6, 70080, Note_on_c, 2, 59, 88
6, 70196, Note_off_c, 2, 59, 0
6, 70200, Note_on_c, 2, 61, 88
6, 70215, Note_on_c, 2, 60, 88
6, 70215, Note_off_c, 2, 61, 0
6, 70237, Note_off_c, 2, 60, 0
6, 70238, Note_on_c, 2, 58, 88
6, 70259, Note_off_c, 2, 58, 0
6, 70260, Note_on_c, 2, 60, 88
6, 70318, Note_off_c, 2, 60, 0
6, 70320, Note_on_c, 2, 61, 88
6, 70436, Note_off_c, 2, 61, 0
6, 70440, Note_on_c, 2, 58, 88
6, 70556, Note_off_c, 2, 58, 0
6, 70560, Note_on_c, 2, 55, 88
6, 70676, Note_off_c, 2, 55, 0
6, 70680, Note_on_c, 2, 56, 88
6, 70914, Note_off_c, 2, 56, 0
6, 70920, Note_on_c, 2, 55, 88
6, 71036, Note_off_c, 2, 55, 0
6, 71040, Note_on_c, 2, 56, 88
6, 71156, Note_off_c, 2, 56, 0
6, 71160, Note_on_c, 2, 54, 88
6, 71276, Note_off_c, 2, 54, 0
6, 71280, Note_on_c, 2, 52, 88
6, 71396, Note_off_c, 2, 52, 0
6, 71400, Note_on_c, 2, 51, 88
6, 71516, Note_off_c, 2, 51, 0
6, 71520, Note_on_c, 2, 49, 88
6, 71636, Note_off_c, 2, 49, 0
6, 71640, Note_on_c, 2, 50, 88
6, 71756, Note_off_c, 2, 50, 0
6, 71760, Note_on_c, 2, 51, 88
6, 71876, Note_off_c, 2, 51, 0
6, 71880, Note_on_c, 2, 46, 88
6, 71996, Note_off_c, 2, 46, 0
6, 72000, Note_on_c, 2, 47, 88
6, 72116, Note_off_c, 2, 47, 0
6, 72120, Note_on_c, 2, 48, 88
6, 72236, Note_off_c, 2, 48, 0
6, 72240, Note_on_c, 2, 49, 88
6, 72356, Note_off_c, 2, 49, 0
6, 72360, Note_on_c, 2, 44, 88
6, 72476, Note_off_c, 2, 44, 0
6, 72480, Note_on_c, 2, 46, 88
6, 73076, Note_off_c, 2, 46, 0
6, 73080, Note_on_c, 2, 53, 88
6, 73196, Note_off_c, 2, 53, 0
6, 73200, Note_on_c, 2, 58, 88
6, 73553, Note_off_c, 2, 58, 0
6, 73560, Note_on_c, 2, 59, 88
6, 73676, Note_off_c, 2, 59, 0
6, 73680, Note_on_c, 2, 58, 88
6, 73796, Note_off_c, 2, 58, 0
6, 73800, Note_on_c, 2, 56, 88
6, 73916, Note_off_c, 2, 56, 0
6, 73920, Note_on_c, 2, 54, 88
6, 74036, Note_off_c, 2, 54, 0
6, 74040, Note_on_c, 2, 56, 88
6, 74156, Note_off_c, 2, 56, 0
6, 74160, Note_on_c, 2, 58, 88
6, 74394, Note_off_c, 2, 58, 0
6, 74400, Note_on_c, 2, 51, 88
6, 74516, Note_off_c, 2, 51, 0
6, 74520, Note_on_c, 2, 53, 88
6, 74578, Note_off_c, 2, 53, 0
6, 74580, Note_on_c, 2, 54, 88
6, 74638, Note_off_c, 2, 54, 0
6, 74640, Note_on_c, 2, 56, 88
6, 74996, Note_off_c, 2, 56, 0
6, 75000, Note_on_c, 2, 54, 88
6, 75116, Note_off_c, 2, 54, 0
6, 75120, Note_on_c, 2, 53, 88
6, 75236, Note_off_c, 2, 53, 0
6, 75240, Note_on_c, 2, 62, 88
6, 75356, Note_off_c, 2, 62, 0
6, 75360, Note_on_c, 2, 63, 88
6, 75476, Note_off_c, 2, 63, 0
6, 75480, Note_on_c, 2, 65, 88
6, 75538, Note_off_c, 2, 65, 0
6, 75540, Note_on_c, 2, 66, 88
6, 75598, Note_off_c, 2, 66, 0
6, 75600, Note_on_c, 2, 65, 88
6, 75716, Note_off_c, 2, 65, 0
6, 75720, Note_on_c, 2, 63, 88
6, 75836, Note_off_c, 2, 63, 0
6, 75840, Note_on_c, 2, 62, 88
6, 75956, Note_off_c, 2, 62, 0
6, 75960, Note_on_c, 2, 63, 88
6, 76194, Note_off_c, 2, 63, 0
6, 76200, Note_on_c, 2, 61, 88
6, 76434, Note_off_c, 2, 61, 0
6, 76440, Note_on_c, 2, 63, 88
6, 76498, Note_off_c, 2, 63, 0
6, 76500, Note_on_c, 2, 64, 88
6, 76558, Note_off_c, 2, 64, 0
6, 76560, Note_on_c, 2, 63, 88
6, 76676, Note_off_c, 2, 63, 0
6, 76680, Note_on_c, 2, 61, 88
6, 76796, Note_off_c, 2, 61, 0
6, 76800, Note_on_c, 2, 59, 88
6, 76916, Note_off_c, 2, 59, 0
6, 76920, Note_on_c, 2, 61, 88
6, 77036, Note_off_c, 2, 61, 0
6, 77040, Note_on_c, 2, 59, 88
6, 77156, Note_off_c, 2, 59, 0
6, 77160, Note_on_c, 2, 58, 88
6, 77276, Note_off_c, 2, 58, 0
6, 77280, Note_on_c, 2, 56, 88
6, 77396, Note_off_c, 2, 56, 0
6, 77400, Note_on_c, 2, 54, 88
6, 77516, Note_off_c, 2, 54, 0
6, 77520, Note_on_c, 2, 52, 88
6, 77636, Note_off_c, 2, 52, 0
6, 77640, Note_on_c, 2, 51, 88
6, 77756, Note_off_c, 2, 51, 0
6, 77760, Note_on_c, 2, 49, 88
6, 77876, Note_off_c, 2, 49, 0
6, 77880, Note_on_c, 2, 61, 88
6, 77938, Note_off_c, 2, 61, 0
6, 77940, Note_on_c, 2, 59, 88
6, 77998, Note_off_c, 2, 59, 0
6, 78000, Note_on_c, 2, 58, 88
6, 78116, Note_off_c, 2, 58, 0
6, 78120, Note_on_c, 2, 56, 88
6, 78236, Note_off_c, 2, 56, 0
6, 78240, Note_on_c, 2, 55, 88
6, 78356, Note_off_c, 2, 55, 0
6, 78360, Note_on_c, 2, 56, 88
6, 78594, Note_off_c, 2, 56, 0
6, 78600, Note_on_c, 2, 54, 88
6, 78716, Note_off_c, 2, 54, 0
6, 78720, Note_on_c, 2, 53, 88
6, 79310, Note_off_c, 2, 53, 0
6, 79320, Note_on_c, 2, 54, 88
6, 79436, Note_off_c, 2, 54, 0
6, 79440, Note_on_c, 2, 53, 88
6, 79556, Note_off_c, 2, 53, 0
6, 79560, Note_on_c, 2, 51, 88
6, 79676, Note_off_c, 2, 51, 0
6, 79680, Note_on_c, 2, 50, 88
6, 80270, Note_off_c, 2, 50, 0
6, 80280, Note_on_c, 2, 51, 88
6, 80396, Note_off_c, 2, 51, 0
6, 80400, Note_on_c, 2, 50, 88
6, 80516, Note_off_c, 2, 50, 0
6, 80520, Note_on_c, 2, 48, 88
6, 80636, Note_off_c, 2, 48, 0
6, 80640, Note_on_c, 2, 46, 88
6, 81230, Note_off_c, 2, 46, 0
6, 81240, Note_on_c, 2, 44, 88
6, 81356, Note_off_c, 2, 44, 0
6, 81360, Note_on_c, 2, 42, 88
6, 81476, Note_off_c, 2, 42, 0
6, 81480, Note_on_c, 2, 41, 88
6, 81596, Note_off_c, 2, 41, 0
6, 81600, Note_on_c, 2, 39, 88
6, 81716, Note_off_c, 2, 39, 0
6, 81720, Note_on_c, 2, 49, 88
6, 81836, Note_off_c, 2, 49, 0
6, 81840, Note_on_c, 2, 47, 88
6, 81956, Note_off_c, 2, 47, 0
6, 81960, Note_on_c, 2, 46, 88
6, 82076, Note_off_c, 2, 46, 0
6, 82080, Note_on_c, 2, 44, 88
6, 82196, Note_off_c, 2, 44, 0
6, 82200, Note_on_c, 2, 54, 88
6, 82316, Note_off_c, 2, 54, 0
6, 82320, Note_on_c, 2, 53, 88
6, 82436, Note_off_c, 2, 53, 0
6, 82440, Note_on_c, 2, 51, 88
6, 82556, Note_off_c, 2, 51, 0
6, 82560, Note_on_c, 2, 58, 88
6, 82794, Note_off_c, 2, 58, 0
6, 82800, Note_on_c, 2, 46, 88
6, 83034, Note_off_c, 2, 46, 0
6, 83040, Note_on_c, 2, 39, 88
6, 83510, Note_off_c, 2, 39, 0
6, 83510, End_track
0, 0, End_of_file
