0, 0, Header, 1, 6, 240
1, 0, Start_track
1, 0, Time_signature, 4, 2, 24, 8
1, 0, Tempo, 869565
1, 0, SMPTE_offset, 64, 0, 0, 0, 93
1, 0, End_track
2, 0, Start_track
2, 0, Title_t, "(C) & (P) 1993"
2, 127, End_track
3, 0, Start_track
3, 0, Title_t, "CCARH,Stanford"
3, 0, End_track
4, 0, Start_track
4, 0, Title_t, "Track 1"
4, 0, Program_c, 0, 6
4, 1320, Note_on_c, 0, 71, 88
4, 1436, Note_off_c, 0, 71, 0
4, 1440, Note_on_c, 0, 73, 88
4, 1674, Note_off_c, 0, 73, 0
4, 1740, Note_on_c, 0, 66, 88
4, 1798, Note_off_c, 0, 66, 0
4, 1800, Note_on_c, 0, 68, 88
4, 1858, Note_off_c, 0, 68, 0
4, 1860, Note_on_c, 0, 70, 88
4, 1918, Note_off_c, 0, 70, 0
4, 1920, Note_on_c, 0, 71, 88
4, 1978, Note_off_c, 0, 71, 0
4, 1980, Note_on_c, 0, 70, 88
4, 2038, Note_off_c, 0, 70, 0
4, 2040, Note_on_c, 0, 71, 88
4, 2098, Note_off_c, 0, 71, 0
4, 2100, Note_on_c, 0, 73, 88
4, 2158, Note_off_c, 0, 73, 0
4, 2160, Note_on_c, 0, 75, 88
4, 2218, Note_off_c, 0, 75, 0
4, 2220, Note_on_c, 0, 76, 88
4, 2278, Note_off_c, 0, 76, 0
4, 2280, Note_on_c, 0, 78, 88
4, 2338, Note_off_c, 0, 78, 0
4, 2340, Note_on_c, 0, 75, 88
4, 2398, Note_off_c, 0, 75, 0
4, 2400, Note_on_c, 0, 71, 88
4, 2458, Note_off_c, 0, 71, 0
4, 2460, Note_on_c, 0, 69, 88
4, 2518, Note_off_c, 0, 69, 0
4, 2520, Note_on_c, 0, 71, 88
4, 2578, Note_off_c, 0, 71, 0
4, 2580, Note_on_c, 0, 73, 88
4, 2638, Note_off_c, 0, 73, 0
4, 2640, Note_on_c, 0, 71, 88
4, 2698, Note_off_c, 0, 71, 0
4, 2700, Note_on_c, 0, 69, 88
4, 2758, Note_off_c, 0, 69, 0
4, 2760, Note_on_c, 0, 71, 88
4, 2818, Note_off_c, 0, 71, 0
4, 2820, Note_on_c, 0, 73, 88
4, 2878, Note_off_c, 0, 73, 0
4, 2880, Note_on_c, 0, 69, 88
4, 2938, Note_off_c, 0, 69, 0
4, 2940, Note_on_c, 0, 68, 88
4, 2998, Note_off_c, 0, 68, 0
4, 3000, Note_on_c, 0, 69, 88
4, 3058, Note_off_c, 0, 69, 0
4, 3060, Note_on_c, 0, 71, 88
4, 3118, Note_off_c, 0, 71, 0
4, 3120, Note_on_c, 0, 69, 88
4, 3178, Note_off_c, 0, 69, 0
4, 3180, Note_on_c, 0, 68, 88
4, 3238, Note_off_c, 0, 68, 0
4, 3240, Note_on_c, 0, 69, 88
4, 3298, Note_off_c, 0, 69, 0
4, 3300, Note_on_c, 0, 71, 88
4, 3358, Note_off_c, 0, 71, 0
4, 3360, Note_on_c, 0, 68, 88
4, 3418, Note_off_c, 0, 68, 0
4, 3420, Note_on_c, 0, 66, 88
4, 3478, Note_off_c, 0, 66, 0
4, 3480, Note_on_c, 0, 68, 88
4, 3538, Note_off_c, 0, 68, 0
4, 3540, Note_on_c, 0, 70, 88
4, 3598, Note_off_c, 0, 70, 0
4, 3600, Note_on_c, 0, 71, 88
4, 4074, Note_off_c, 0, 71, 0
4, 4080, Note_on_c, 0, 70, 88
4, 4314, Note_off_c, 0, 70, 0
4, 4320, Note_on_c, 0, 71, 88
4, 4436, Note_off_c, 0, 71, 0
4, 4440, Note_on_c, 0, 83, 88
4, 4556, Note_off_c, 0, 83, 0
4, 4560, Note_on_c, 0, 75, 88
4, 4676, Note_off_c, 0, 75, 0
4, 4680, Note_on_c, 0, 78, 88
4, 4796, Note_off_c, 0, 78, 0
4, 4800, Note_on_c, 0, 71, 88
4, 5390, Note_off_c, 0, 71, 0
4, 5400, Note_on_c, 0, 69, 88
4, 5516, Note_off_c, 0, 69, 0
4, 5520, Note_on_c, 0, 68, 88
4, 5636, Note_off_c, 0, 68, 0
4, 5640, Note_on_c, 0, 76, 88
4, 5756, Note_off_c, 0, 76, 0
4, 5760, Note_on_c, 0, 78, 88
4, 5994, Note_off_c, 0, 78, 0
4, 6060, Note_on_c, 0, 71, 88
4, 6118, Note_off_c, 0, 71, 0
4, 6120, Note_on_c, 0, 73, 88
4, 6178, Note_off_c, 0, 73, 0
4, 6180, Note_on_c, 0, 75, 88
4, 6238, Note_off_c, 0, 75, 0
4, 6240, Note_on_c, 0, 76, 88
4, 6298, Note_off_c, 0, 76, 0
4, 6300, Note_on_c, 0, 75, 88
4, 6358, Note_off_c, 0, 75, 0
4, 6360, Note_on_c, 0, 76, 88
4, 6418, Note_off_c, 0, 76, 0
4, 6420, Note_on_c, 0, 78, 88
4, 6478, Note_off_c, 0, 78, 0
4, 6480, Note_on_c, 0, 80, 88
4, 6538, Note_off_c, 0, 80, 0
4, 6540, Note_on_c, 0, 81, 88
4, 6598, Note_off_c, 0, 81, 0
4, 6600, Note_on_c, 0, 83, 88
4, 6658, Note_off_c, 0, 83, 0
4, 6660, Note_on_c, 0, 80, 88
4, 6718, Note_off_c, 0, 80, 0
4, 6720, Note_on_c, 0, 76, 88
4, 6778, Note_off_c, 0, 76, 0
4, 6780, Note_on_c, 0, 75, 88
4, 6838, Note_off_c, 0, 75, 0
4, 6840, Note_on_c, 0, 76, 88
4, 6898, Note_off_c, 0, 76, 0
4, 6900, Note_on_c, 0, 78, 88
4, 6958, Note_off_c, 0, 78, 0
4, 6960, Note_on_c, 0, 76, 88
4, 7018, Note_off_c, 0, 76, 0
4, 7020, Note_on_c, 0, 75, 88
4, 7078, Note_off_c, 0, 75, 0
4, 7080, Note_on_c, 0, 76, 88
4, 7138, Note_off_c, 0, 76, 0
4, 7140, Note_on_c, 0, 78, 88
4, 7198, Note_off_c, 0, 78, 0
4, 7200, Note_on_c, 0, 75, 88
4, 7258, Note_off_c, 0, 75, 0
4, 7260, Note_on_c, 0, 73, 88
4, 7318, Note_off_c, 0, 73, 0
4, 7320, Note_on_c, 0, 75, 88
4, 7378, Note_off_c, 0, 75, 0
4, 7380, Note_on_c, 0, 76, 88
4, 7438, Note_off_c, 0, 76, 0
4, 7440, Note_on_c, 0, 78, 88
4, 7498, Note_off_c, 0, 78, 0
4, 7500, Note_on_c, 0, 80, 88
4, 7558, Note_off_c, 0, 80, 0
4, 7560, Note_on_c, 0, 81, 88
4, 7796, Note_off_c, 0, 81, 0
4, 7800, Note_on_c, 0, 75, 88
4, 7916, Note_off_c, 0, 75, 0
4, 7920, Note_on_c, 0, 80, 88
4, 8273, Note_off_c, 0, 80, 0
4, 8280, Note_on_c, 0, 78, 88
4, 8338, Note_off_c, 0, 78, 0
4, 8340, Note_on_c, 0, 76, 88
4, 8398, Note_off_c, 0, 76, 0
4, 8400, Note_on_c, 0, 75, 88
4, 8634, Note_off_c, 0, 75, 0
4, 8640, Note_on_c, 0, 76, 88
4, 8698, Note_off_c, 0, 76, 0
4, 8700, Note_on_c, 0, 75, 88
4, 8758, Note_off_c, 0, 75, 0
4, 8760, Note_on_c, 0, 76, 88
4, 8818, Note_off_c, 0, 76, 0
4, 8820, Note_on_c, 0, 78, 88
4, 8878, Note_off_c, 0, 78, 0
4, 8880, Note_on_c, 0, 76, 88
4, 8938, Note_off_c, 0, 76, 0
4, 8940, Note_on_c, 0, 75, 88
4, 8998, Note_off_c, 0, 75, 0
4, 9000, Note_on_c, 0, 76, 88
4, 9058, Note_off_c, 0, 76, 0
4, 9060, Note_on_c, 0, 78, 88
4, 9118, Note_off_c, 0, 78, 0
4, 9120, Note_on_c, 0, 75, 88
4, 9178, Note_off_c, 0, 75, 0
4, 9180, Note_on_c, 0, 73, 88
4, 9238, Note_off_c, 0, 73, 0
4, 9240, Note_on_c, 0, 75, 88
4, 9298, Note_off_c, 0, 75, 0
4, 9300, Note_on_c, 0, 76, 88
4, 9358, Note_off_c, 0, 76, 0
4, 9360, Note_on_c, 0, 78, 88
4, 9716, Note_off_c, 0, 78, 0
4, 9720, Note_on_c, 0, 76, 88
4, 9778, Note_off_c, 0, 76, 0
4, 9780, Note_on_c, 0, 75, 88
4, 9838, Note_off_c, 0, 75, 0
4, 9840, Note_on_c, 0, 76, 88
4, 10183, Note_off_c, 0, 76, 0
4, 10200, Note_on_c, 0, 76, 88
4, 10316, Note_off_c, 0, 76, 0
4, 10320, Note_on_c, 0, 75, 88
4, 10436, Note_off_c, 0, 75, 0
4, 10440, Note_on_c, 0, 73, 88
4, 10556, Note_off_c, 0, 73, 0
4, 10560, Note_on_c, 0, 72, 88
4, 10676, Note_off_c, 0, 72, 0
4, 10680, Note_on_c, 0, 68, 88
4, 10796, Note_off_c, 0, 68, 0
4, 10800, Note_on_c, 0, 73, 88
4, 11153, Note_off_c, 0, 73, 0
4, 11160, Note_on_c, 0, 75, 88
4, 11276, Note_off_c, 0, 75, 0
4, 11280, Note_on_c, 0, 68, 88
4, 11396, Note_off_c, 0, 68, 0
4, 11400, Note_on_c, 0, 70, 88
4, 11458, Note_off_c, 0, 70, 0
4, 11460, Note_on_c, 0, 72, 88
4, 11518, Note_off_c, 0, 72, 0
4, 11520, Note_on_c, 0, 73, 88
4, 11578, Note_off_c, 0, 73, 0
4, 11580, Note_on_c, 0, 72, 88
4, 11638, Note_off_c, 0, 72, 0
4, 11640, Note_on_c, 0, 73, 88
4, 11698, Note_off_c, 0, 73, 0
4, 11700, Note_on_c, 0, 75, 88
4, 11758, Note_off_c, 0, 75, 0
4, 11760, Note_on_c, 0, 76, 88
4, 11818, Note_off_c, 0, 76, 0
4, 11820, Note_on_c, 0, 78, 88
4, 11878, Note_off_c, 0, 78, 0
4, 11880, Note_on_c, 0, 80, 88
4, 11938, Note_off_c, 0, 80, 0
4, 11940, Note_on_c, 0, 76, 88
4, 11998, Note_off_c, 0, 76, 0
4, 12000, Note_on_c, 0, 73, 88
4, 12058, Note_off_c, 0, 73, 0
4, 12060, Note_on_c, 0, 71, 88
4, 12118, Note_off_c, 0, 71, 0
4, 12120, Note_on_c, 0, 73, 88
4, 12178, Note_off_c, 0, 73, 0
4, 12180, Note_on_c, 0, 75, 88
4, 12238, Note_off_c, 0, 75, 0
4, 12240, Note_on_c, 0, 73, 88
4, 12298, Note_off_c, 0, 73, 0
4, 12300, Note_on_c, 0, 71, 88
4, 12358, Note_off_c, 0, 71, 0
4, 12360, Note_on_c, 0, 73, 88
4, 12418, Note_off_c, 0, 73, 0
4, 12420, Note_on_c, 0, 75, 88
4, 12478, Note_off_c, 0, 75, 0
4, 12480, Note_on_c, 0, 71, 88
4, 12538, Note_off_c, 0, 71, 0
4, 12540, Note_on_c, 0, 70, 88
4, 12598, Note_off_c, 0, 70, 0
4, 12600, Note_on_c, 0, 71, 88
4, 12658, Note_off_c, 0, 71, 0
4, 12660, Note_on_c, 0, 73, 88
4, 12718, Note_off_c, 0, 73, 0
4, 12720, Note_on_c, 0, 75, 88
4, 12778, Note_off_c, 0, 75, 0
4, 12780, Note_on_c, 0, 76, 88
4, 12838, Note_off_c, 0, 76, 0
4, 12840, Note_on_c, 0, 78, 88
4, 12898, Note_off_c, 0, 78, 0
4, 12900, Note_on_c, 0, 75, 88
4, 12958, Note_off_c, 0, 75, 0
4, 12960, Note_on_c, 0, 71, 88
4, 13018, Note_off_c, 0, 71, 0
4, 13020, Note_on_c, 0, 69, 88
4, 13078, Note_off_c, 0, 69, 0
4, 13080, Note_on_c, 0, 71, 88
4, 13138, Note_off_c, 0, 71, 0
4, 13140, Note_on_c, 0, 73, 88
4, 13198, Note_off_c, 0, 73, 0
4, 13200, Note_on_c, 0, 71, 88
4, 13258, Note_off_c, 0, 71, 0
4, 13260, Note_on_c, 0, 69, 88
4, 13318, Note_off_c, 0, 69, 0
4, 13320, Note_on_c, 0, 71, 88
4, 13378, Note_off_c, 0, 71, 0
4, 13380, Note_on_c, 0, 73, 88
4, 13438, Note_off_c, 0, 73, 0
4, 13440, Note_on_c, 0, 69, 88
4, 13498, Note_off_c, 0, 69, 0
4, 13500, Note_on_c, 0, 68, 88
4, 13558, Note_off_c, 0, 68, 0
4, 13560, Note_on_c, 0, 69, 88
4, 13618, Note_off_c, 0, 69, 0
4, 13620, Note_on_c, 0, 71, 88
4, 13678, Note_off_c, 0, 71, 0
4, 13680, Note_on_c, 0, 73, 88
4, 13738, Note_off_c, 0, 73, 0
4, 13740, Note_on_c, 0, 75, 88
4, 13798, Note_off_c, 0, 75, 0
4, 13800, Note_on_c, 0, 76, 88
4, 13858, Note_off_c, 0, 76, 0
4, 13860, Note_on_c, 0, 73, 88
4, 13918, Note_off_c, 0, 73, 0
4, 13920, Note_on_c, 0, 75, 88
4, 13978, Note_off_c, 0, 75, 0
4, 13980, Note_on_c, 0, 73, 88
4, 14038, Note_off_c, 0, 73, 0
4, 14040, Note_on_c, 0, 75, 88
4, 14098, Note_off_c, 0, 75, 0
4, 14100, Note_on_c, 0, 76, 88
4, 14158, Note_off_c, 0, 76, 0
4, 14160, Note_on_c, 0, 78, 88
4, 14218, Note_off_c, 0, 78, 0
4, 14220, Note_on_c, 0, 80, 88
4, 14278, Note_off_c, 0, 80, 0
4, 14280, Note_on_c, 0, 81, 88
4, 14338, Note_off_c, 0, 81, 0
4, 14340, Note_on_c, 0, 78, 88
4, 14398, Note_off_c, 0, 78, 0
4, 14400, Note_on_c, 0, 80, 88
4, 14458, Note_off_c, 0, 80, 0
4, 14460, Note_on_c, 0, 78, 88
4, 14518, Note_off_c, 0, 78, 0
4, 14520, Note_on_c, 0, 76, 88
4, 14578, Note_off_c, 0, 76, 0
4, 14580, Note_on_c, 0, 75, 88
4, 14638, Note_off_c, 0, 75, 0
4, 14640, Note_on_c, 0, 73, 88
4, 14698, Note_off_c, 0, 73, 0
4, 14700, Note_on_c, 0, 71, 88
4, 14758, Note_off_c, 0, 71, 0
4, 14760, Note_on_c, 0, 69, 88
4, 14818, Note_off_c, 0, 69, 0
4, 14820, Note_on_c, 0, 68, 88
4, 14878, Note_off_c, 0, 68, 0
4, 14880, Note_on_c, 0, 66, 88
4, 14938, Note_off_c, 0, 66, 0
4, 14940, Note_on_c, 0, 68, 88
4, 14998, Note_off_c, 0, 68, 0
4, 15000, Note_on_c, 0, 69, 88
4, 15058, Note_off_c, 0, 69, 0
4, 15060, Note_on_c, 0, 66, 88
4, 15118, Note_off_c, 0, 66, 0
4, 15120, Note_on_c, 0, 63, 88
4, 15236, Note_off_c, 0, 63, 0
4, 15240, Note_on_c, 0, 68, 88
4, 15356, Note_off_c, 0, 68, 0
4, 15360, Note_on_c, 0, 64, 88
4, 15476, Note_off_c, 0, 64, 0
4, 15480, Note_on_c, 0, 68, 88
4, 15596, Note_off_c, 0, 68, 0
4, 15600, Note_on_c, 0, 73, 88
4, 15716, Note_off_c, 0, 73, 0
4, 15720, Note_on_c, 0, 71, 88
4, 15836, Note_off_c, 0, 71, 0
4, 15840, Note_on_c, 0, 76, 88
4, 15898, Note_off_c, 0, 76, 0
4, 15900, Note_on_c, 0, 75, 88
4, 15958, Note_off_c, 0, 75, 0
4, 15960, Note_on_c, 0, 73, 88
4, 16018, Note_off_c, 0, 73, 0
4, 16020, Note_on_c, 0, 71, 88
4, 16078, Note_off_c, 0, 71, 0
4, 16080, Note_on_c, 0, 69, 88
4, 16436, Note_off_c, 0, 69, 0
4, 16440, Note_on_c, 0, 63, 88
4, 16556, Note_off_c, 0, 63, 0
4, 16560, Note_on_c, 0, 69, 88
4, 16676, Note_off_c, 0, 69, 0
4, 16680, Note_on_c, 0, 68, 88
4, 16796, Note_off_c, 0, 68, 0
4, 16800, Note_on_c, 0, 73, 88
4, 16858, Note_off_c, 0, 73, 0
4, 16860, Note_on_c, 0, 71, 88
4, 16918, Note_off_c, 0, 71, 0
4, 16920, Note_on_c, 0, 69, 88
4, 16978, Note_off_c, 0, 69, 0
4, 16980, Note_on_c, 0, 68, 88
4, 17038, Note_off_c, 0, 68, 0
4, 17040, Note_on_c, 0, 66, 88
4, 17396, Note_off_c, 0, 66, 0
4, 17400, Note_on_c, 0, 64, 88
4, 17458, Note_off_c, 0, 64, 0
4, 17460, Note_on_c, 0, 63, 88
4, 17518, Note_off_c, 0, 63, 0
4, 17520, Note_on_c, 0, 64, 88
4, 17578, Note_off_c, 0, 64, 0
4, 17580, Note_on_c, 0, 66, 88
4, 17638, Note_off_c, 0, 66, 0
4, 17640, Note_on_c, 0, 68, 88
4, 17698, Note_off_c, 0, 68, 0
4, 17700, Note_on_c, 0, 64, 88
4, 17758, Note_off_c, 0, 64, 0
4, 17760, Note_on_c, 0, 61, 88
4, 17818, Note_off_c, 0, 61, 0
4, 17820, Note_on_c, 0, 68, 88
4, 17878, Note_off_c, 0, 68, 0
4, 17880, Note_on_c, 0, 66, 88
4, 17938, Note_off_c, 0, 66, 0
4, 17940, Note_on_c, 0, 64, 88
4, 17998, Note_off_c, 0, 64, 0
4, 18000, Note_on_c, 0, 63, 88
4, 18116, Note_off_c, 0, 63, 0
4, 18300, Note_on_c, 0, 59, 88
4, 18358, Note_off_c, 0, 59, 0
4, 18360, Note_on_c, 0, 61, 88
4, 18418, Note_off_c, 0, 61, 0
4, 18420, Note_on_c, 0, 63, 88
4, 18478, Note_off_c, 0, 63, 0
4, 18480, Note_on_c, 0, 64, 88
4, 18538, Note_off_c, 0, 64, 0
4, 18540, Note_on_c, 0, 66, 88
4, 18598, Note_off_c, 0, 66, 0
4, 18600, Note_on_c, 0, 68, 88
4, 18658, Note_off_c, 0, 68, 0
4, 18660, Note_on_c, 0, 64, 88
4, 18718, Note_off_c, 0, 64, 0
4, 18720, Note_on_c, 0, 73, 88
4, 18954, Note_off_c, 0, 73, 0
4, 19020, Note_on_c, 0, 66, 88
4, 19078, Note_off_c, 0, 66, 0
4, 19080, Note_on_c, 0, 68, 88
4, 19138, Note_off_c, 0, 68, 0
4, 19140, Note_on_c, 0, 70, 88
4, 19198, Note_off_c, 0, 70, 0
4, 19200, Note_on_c, 0, 71, 88
4, 19258, Note_off_c, 0, 71, 0
4, 19260, Note_on_c, 0, 70, 88
4, 19318, Note_off_c, 0, 70, 0
4, 19320, Note_on_c, 0, 71, 88
4, 19378, Note_off_c, 0, 71, 0
4, 19380, Note_on_c, 0, 73, 88
4, 19438, Note_off_c, 0, 73, 0
4, 19440, Note_on_c, 0, 75, 88
4, 19498, Note_off_c, 0, 75, 0
4, 19500, Note_on_c, 0, 76, 88
4, 19558, Note_off_c, 0, 76, 0
4, 19560, Note_on_c, 0, 78, 88
4, 19618, Note_off_c, 0, 78, 0
4, 19620, Note_on_c, 0, 80, 88
4, 19678, Note_off_c, 0, 80, 0
4, 19680, Note_on_c, 0, 69, 88
4, 19738, Note_off_c, 0, 69, 0
4, 19740, Note_on_c, 0, 68, 88
4, 19798, Note_off_c, 0, 68, 0
4, 19800, Note_on_c, 0, 69, 88
4, 19858, Note_off_c, 0, 69, 0
4, 19860, Note_on_c, 0, 71, 88
4, 19918, Note_off_c, 0, 71, 0
4, 19920, Note_on_c, 0, 69, 88
4, 19978, Note_off_c, 0, 69, 0
4, 19980, Note_on_c, 0, 68, 88
4, 20038, Note_off_c, 0, 68, 0
4, 20040, Note_on_c, 0, 69, 88
4, 20098, Note_off_c, 0, 69, 0
4, 20100, Note_on_c, 0, 71, 88
4, 20158, Note_off_c, 0, 71, 0
4, 20160, Note_on_c, 0, 68, 88
4, 20218, Note_off_c, 0, 68, 0
4, 20220, Note_on_c, 0, 66, 88
4, 20278, Note_off_c, 0, 66, 0
4, 20280, Note_on_c, 0, 68, 88
4, 20338, Note_off_c, 0, 68, 0
4, 20340, Note_on_c, 0, 69, 88
4, 20398, Note_off_c, 0, 69, 0
4, 20400, Note_on_c, 0, 71, 88
4, 20458, Note_off_c, 0, 71, 0
4, 20460, Note_on_c, 0, 73, 88
4, 20518, Note_off_c, 0, 73, 0
4, 20520, Note_on_c, 0, 74, 88
4, 20754, Note_off_c, 0, 74, 0
4, 20760, Note_on_c, 0, 73, 88
4, 20818, Note_off_c, 0, 73, 0
4, 20820, Note_on_c, 0, 71, 88
4, 20878, Note_off_c, 0, 71, 0
4, 20880, Note_on_c, 0, 73, 88
4, 21354, Note_off_c, 0, 73, 0
4, 21360, Note_on_c, 0, 71, 88
4, 21594, Note_off_c, 0, 71, 0
4, 21840, Note_on_c, 0, 71, 88
4, 22314, Note_off_c, 0, 71, 0
4, 22320, Note_on_c, 0, 69, 88
4, 22554, Note_off_c, 0, 69, 0
4, 22800, Note_on_c, 0, 69, 88
4, 23274, Note_off_c, 0, 69, 0
4, 23280, Note_on_c, 0, 68, 88
4, 23396, Note_off_c, 0, 68, 0
4, 23400, Note_on_c, 0, 76, 88
4, 23516, Note_off_c, 0, 76, 0
4, 23520, Note_on_c, 0, 78, 88
4, 23754, Note_off_c, 0, 78, 0
4, 23820, Note_on_c, 0, 71, 88
4, 23878, Note_off_c, 0, 71, 0
4, 23880, Note_on_c, 0, 73, 88
4, 23938, Note_off_c, 0, 73, 0
4, 23940, Note_on_c, 0, 75, 88
4, 23998, Note_off_c, 0, 75, 0
4, 24000, Note_on_c, 0, 76, 88
4, 24058, Note_off_c, 0, 76, 0
4, 24060, Note_on_c, 0, 75, 88
4, 24118, Note_off_c, 0, 75, 0
4, 24120, Note_on_c, 0, 76, 88
4, 24178, Note_off_c, 0, 76, 0
4, 24180, Note_on_c, 0, 78, 88
4, 24238, Note_off_c, 0, 78, 0
4, 24240, Note_on_c, 0, 80, 88
4, 24298, Note_off_c, 0, 80, 0
4, 24300, Note_on_c, 0, 81, 88
4, 24358, Note_off_c, 0, 81, 0
4, 24360, Note_on_c, 0, 83, 88
4, 24418, Note_off_c, 0, 83, 0
4, 24420, Note_on_c, 0, 80, 88
4, 24478, Note_off_c, 0, 80, 0
4, 24480, Note_on_c, 0, 81, 88
4, 24538, Note_off_c, 0, 81, 0
4, 24540, Note_on_c, 0, 80, 88
4, 24598, Note_off_c, 0, 80, 0
4, 24600, Note_on_c, 0, 81, 88
4, 24658, Note_off_c, 0, 81, 0
4, 24660, Note_on_c, 0, 83, 88
4, 24718, Note_off_c, 0, 83, 0
4, 24720, Note_on_c, 0, 81, 88
4, 24778, Note_off_c, 0, 81, 0
4, 24780, Note_on_c, 0, 80, 88
4, 24838, Note_off_c, 0, 80, 0
4, 24840, Note_on_c, 0, 81, 88
4, 24898, Note_off_c, 0, 81, 0
4, 24900, Note_on_c, 0, 83, 88
4, 24958, Note_off_c, 0, 83, 0
4, 24960, Note_on_c, 0, 80, 88
4, 25018, Note_off_c, 0, 80, 0
4, 25020, Note_on_c, 0, 78, 88
4, 25078, Note_off_c, 0, 78, 0
4, 25080, Note_on_c, 0, 80, 88
4, 25138, Note_off_c, 0, 80, 0
4, 25140, Note_on_c, 0, 81, 88
4, 25198, Note_off_c, 0, 81, 0
4, 25200, Note_on_c, 0, 80, 88
4, 25258, Note_off_c, 0, 80, 0
4, 25260, Note_on_c, 0, 78, 88
4, 25318, Note_off_c, 0, 78, 0
4, 25320, Note_on_c, 0, 76, 88
4, 25378, Note_off_c, 0, 76, 0
4, 25380, Note_on_c, 0, 75, 88
4, 25438, Note_off_c, 0, 75, 0
4, 25440, Note_on_c, 0, 73, 88
4, 25498, Note_off_c, 0, 73, 0
4, 25500, Note_on_c, 0, 71, 88
4, 25558, Note_off_c, 0, 71, 0
4, 25560, Note_on_c, 0, 73, 88
4, 25618, Note_off_c, 0, 73, 0
4, 25620, Note_on_c, 0, 74, 88
4, 25678, Note_off_c, 0, 74, 0
4, 25680, Note_on_c, 0, 73, 88
4, 25738, Note_off_c, 0, 73, 0
4, 25740, Note_on_c, 0, 71, 88
4, 25798, Note_off_c, 0, 71, 0
4, 25800, Note_on_c, 0, 73, 88
4, 25858, Note_off_c, 0, 73, 0
4, 25860, Note_on_c, 0, 74, 88
4, 25918, Note_off_c, 0, 74, 0
4, 25920, Note_on_c, 0, 71, 88
4, 25978, Note_off_c, 0, 71, 0
4, 25980, Note_on_c, 0, 73, 88
4, 26038, Note_off_c, 0, 73, 0
4, 26040, Note_on_c, 0, 75, 88
4, 26098, Note_off_c, 0, 75, 0
4, 26100, Note_on_c, 0, 71, 88
4, 26158, Note_off_c, 0, 71, 0
4, 26160, Note_on_c, 0, 76, 88
4, 26630, Note_off_c, 0, 76, 0
4, 26640, Note_on_c, 0, 75, 88
4, 26874, Note_off_c, 0, 75, 0
4, 26880, Note_on_c, 0, 76, 88
4, 27825, Note_off_c, 0, 76, 0
4, 27825, End_track
5, 0, Start_track
5, 0, Title_t, "Track 2"
5, 0, Program_c, 1, 6
5, 360, Note_on_c, 1, 64, 88
5, 476, Note_off_c, 1, 64, 0
5, 480, Note_on_c, 1, 66, 88
5, 714, Note_off_c, 1, 66, 0
5, 780, Note_on_c, 1, 59, 88
5, 838, Note_off_c, 1, 59, 0
5, 840, Note_on_c, 1, 61, 88
5, 898, Note_off_c, 1, 61, 0
5, 900, Note_on_c, 1, 63, 88
5, 958, Note_off_c, 1, 63, 0
5, 960, Note_on_c, 1, 64, 88
5, 1018, Note_off_c, 1, 64, 0
5, 1020, Note_on_c, 1, 63, 88
5, 1078, Note_off_c, 1, 63, 0
5, 1080, Note_on_c, 1, 64, 88
5, 1138, Note_off_c, 1, 64, 0
5, 1140, Note_on_c, 1, 66, 88
5, 1198, Note_off_c, 1, 66, 0
5, 1200, Note_on_c, 1, 68, 88
5, 1258, Note_off_c, 1, 68, 0
5, 1260, Note_on_c, 1, 69, 88
5, 1318, Note_off_c, 1, 69, 0
5, 1320, Note_on_c, 1, 71, 88
5, 1378, Note_off_c, 1, 71, 0
5, 1380, Note_on_c, 1, 68, 88
5, 1438, Note_off_c, 1, 68, 0
5, 1440, Note_on_c, 1, 64, 88
5, 1498, Note_off_c, 1, 64, 0
5, 1500, Note_on_c, 1, 63, 88
5, 1558, Note_off_c, 1, 63, 0
5, 1560, Note_on_c, 1, 64, 88
5, 1618, Note_off_c, 1, 64, 0
5, 1620, Note_on_c, 1, 66, 88
5, 1678, Note_off_c, 1, 66, 0
5, 1680, Note_on_c, 1, 64, 88
5, 1738, Note_off_c, 1, 64, 0
5, 1740, Note_on_c, 1, 63, 88
5, 1798, Note_off_c, 1, 63, 0
5, 1800, Note_on_c, 1, 64, 88
5, 1858, Note_off_c, 1, 64, 0
5, 1860, Note_on_c, 1, 66, 88
5, 1918, Note_off_c, 1, 66, 0
5, 1920, Note_on_c, 1, 63, 88
5, 1978, Note_off_c, 1, 63, 0
5, 1980, Note_on_c, 1, 61, 88
5, 2038, Note_off_c, 1, 61, 0
5, 2040, Note_on_c, 1, 63, 88
5, 2098, Note_off_c, 1, 63, 0
5, 2100, Note_on_c, 1, 64, 88
5, 2158, Note_off_c, 1, 64, 0
5, 2160, Note_on_c, 1, 66, 88
5, 2218, Note_off_c, 1, 66, 0
5, 2220, Note_on_c, 1, 68, 88
5, 2278, Note_off_c, 1, 68, 0
5, 2280, Note_on_c, 1, 69, 88
5, 2338, Note_off_c, 1, 69, 0
5, 2340, Note_on_c, 1, 66, 88
5, 2398, Note_off_c, 1, 66, 0
5, 2400, Note_on_c, 1, 68, 88
5, 2516, Note_off_c, 1, 68, 0
5, 2520, Note_on_c, 1, 59, 88
5, 2636, Note_off_c, 1, 59, 0
5, 2640, Note_on_c, 1, 64, 88
5, 2996, Note_off_c, 1, 64, 0
5, 3000, Note_on_c, 1, 63, 88
5, 3116, Note_off_c, 1, 63, 0
5, 3120, Note_on_c, 1, 66, 88
5, 3473, Note_off_c, 1, 66, 0
5, 3480, Note_on_c, 1, 59, 88
5, 3596, Note_off_c, 1, 59, 0
5, 3600, Note_on_c, 1, 64, 88
5, 3716, Note_off_c, 1, 64, 0
5, 3720, Note_on_c, 1, 63, 88
5, 3836, Note_off_c, 1, 63, 0
5, 3840, Note_on_c, 1, 61, 88
5, 4310, Note_off_c, 1, 61, 0
5, 4320, Note_on_c, 1, 59, 88
5, 4436, Note_off_c, 1, 59, 0
5, 4920, Note_on_c, 1, 76, 88
5, 5036, Note_off_c, 1, 76, 0
5, 5040, Note_on_c, 1, 68, 88
5, 5156, Note_off_c, 1, 68, 0
5, 5160, Note_on_c, 1, 71, 88
5, 5276, Note_off_c, 1, 71, 0
5, 5280, Note_on_c, 1, 64, 88
5, 5396, Note_off_c, 1, 64, 0
5, 5400, Note_on_c, 1, 66, 88
5, 5634, Note_off_c, 1, 66, 0
5, 5640, Note_on_c, 1, 64, 88
5, 5756, Note_off_c, 1, 64, 0
5, 5760, Note_on_c, 1, 64, 88
5, 5994, Note_off_c, 1, 64, 0
5, 6000, Note_on_c, 1, 63, 88
5, 6116, Note_off_c, 1, 63, 0
5, 6120, Note_on_c, 1, 66, 88
5, 6236, Note_off_c, 1, 66, 0
5, 6240, Note_on_c, 1, 59, 88
5, 6474, Note_off_c, 1, 59, 0
5, 6600, Note_on_c, 1, 71, 88
5, 6716, Note_off_c, 1, 71, 0
5, 6720, Note_on_c, 1, 73, 88
5, 6954, Note_off_c, 1, 73, 0
5, 7020, Note_on_c, 1, 66, 88
5, 7078, Note_off_c, 1, 66, 0
5, 7080, Note_on_c, 1, 68, 88
5, 7138, Note_off_c, 1, 68, 0
5, 7140, Note_on_c, 1, 70, 88
5, 7198, Note_off_c, 1, 70, 0
5, 7200, Note_on_c, 1, 71, 88
5, 7258, Note_off_c, 1, 71, 0
5, 7260, Note_on_c, 1, 70, 88
5, 7318, Note_off_c, 1, 70, 0
5, 7320, Note_on_c, 1, 71, 88
5, 7378, Note_off_c, 1, 71, 0
5, 7380, Note_on_c, 1, 73, 88
5, 7438, Note_off_c, 1, 73, 0
5, 7440, Note_on_c, 1, 75, 88
5, 7498, Note_off_c, 1, 75, 0
5, 7500, Note_on_c, 1, 76, 88
5, 7558, Note_off_c, 1, 76, 0
5, 7560, Note_on_c, 1, 78, 88
5, 7618, Note_off_c, 1, 78, 0
5, 7620, Note_on_c, 1, 75, 88
5, 7678, Note_off_c, 1, 75, 0
5, 7680, Note_on_c, 1, 71, 88
5, 7738, Note_off_c, 1, 71, 0
5, 7740, Note_on_c, 1, 69, 88
5, 7798, Note_off_c, 1, 69, 0
5, 7800, Note_on_c, 1, 71, 88
5, 7858, Note_off_c, 1, 71, 0
5, 7860, Note_on_c, 1, 73, 88
5, 7918, Note_off_c, 1, 73, 0
5, 7920, Note_on_c, 1, 71, 88
5, 7978, Note_off_c, 1, 71, 0
5, 7980, Note_on_c, 1, 69, 88
5, 8038, Note_off_c, 1, 69, 0
5, 8040, Note_on_c, 1, 71, 88
5, 8098, Note_off_c, 1, 71, 0
5, 8100, Note_on_c, 1, 73, 88
5, 8158, Note_off_c, 1, 73, 0
5, 8160, Note_on_c, 1, 69, 88
5, 8218, Note_off_c, 1, 69, 0
5, 8220, Note_on_c, 1, 68, 88
5, 8278, Note_off_c, 1, 68, 0
5, 8280, Note_on_c, 1, 69, 88
5, 8338, Note_off_c, 1, 69, 0
5, 8340, Note_on_c, 1, 71, 88
5, 8398, Note_off_c, 1, 71, 0
5, 8400, Note_on_c, 1, 69, 88
5, 8458, Note_off_c, 1, 69, 0
5, 8460, Note_on_c, 1, 68, 88
5, 8518, Note_off_c, 1, 68, 0
5, 8520, Note_on_c, 1, 69, 88
5, 8578, Note_off_c, 1, 69, 0
5, 8580, Note_on_c, 1, 71, 88
5, 8638, Note_off_c, 1, 71, 0
5, 8640, Note_on_c, 1, 68, 88
5, 8756, Note_off_c, 1, 68, 0
5, 8760, Note_on_c, 1, 64, 88
5, 8876, Note_off_c, 1, 64, 0
5, 8880, Note_on_c, 1, 69, 88
5, 9411, Note_off_c, 1, 69, 0
5, 9420, Note_on_c, 1, 72, 88
5, 9478, Note_off_c, 1, 72, 0
5, 9480, Note_on_c, 1, 73, 88
5, 9538, Note_off_c, 1, 73, 0
5, 9540, Note_on_c, 1, 75, 88
5, 9598, Note_off_c, 1, 75, 0
5, 9600, Note_on_c, 1, 68, 88
5, 9953, Note_off_c, 1, 68, 0
5, 9960, Note_on_c, 1, 73, 88
5, 10076, Note_off_c, 1, 73, 0
5, 10080, Note_on_c, 1, 66, 88
5, 10794, Note_off_c, 1, 66, 0
5, 10800, Note_on_c, 1, 64, 88
5, 10916, Note_off_c, 1, 64, 0
5, 10920, Note_on_c, 1, 69, 88
5, 11036, Note_off_c, 1, 69, 0
5, 11040, Note_on_c, 1, 63, 88
5, 11156, Note_off_c, 1, 63, 0
5, 11160, Note_on_c, 1, 66, 88
5, 11276, Note_off_c, 1, 66, 0
5, 11280, Note_on_c, 1, 60, 88
5, 11396, Note_off_c, 1, 60, 0
5, 11400, Note_on_c, 1, 63, 88
5, 11516, Note_off_c, 1, 63, 0
5, 11520, Note_on_c, 1, 56, 88
5, 11636, Note_off_c, 1, 56, 0
5, 12240, Note_on_c, 1, 58, 88
5, 12714, Note_off_c, 1, 58, 0
5, 12720, Note_on_c, 1, 56, 88
5, 12954, Note_off_c, 1, 56, 0
5, 13200, Note_on_c, 1, 56, 88
5, 13674, Note_off_c, 1, 56, 0
5, 13680, Note_on_c, 1, 54, 88
5, 13914, Note_off_c, 1, 54, 0
5, 14160, Note_on_c, 1, 54, 88
5, 14634, Note_off_c, 1, 54, 0
5, 14640, Note_on_c, 1, 52, 88
5, 14756, Note_off_c, 1, 52, 0
5, 14760, Note_on_c, 1, 61, 88
5, 14876, Note_off_c, 1, 61, 0
5, 14880, Note_on_c, 1, 63, 88
5, 15114, Note_off_c, 1, 63, 0
5, 15180, Note_on_c, 1, 56, 88
5, 15238, Note_off_c, 1, 56, 0
5, 15240, Note_on_c, 1, 58, 88
5, 15298, Note_off_c, 1, 58, 0
5, 15300, Note_on_c, 1, 60, 88
5, 15358, Note_off_c, 1, 60, 0
5, 15360, Note_on_c, 1, 61, 88
5, 15418, Note_off_c, 1, 61, 0
5, 15420, Note_on_c, 1, 60, 88
5, 15478, Note_off_c, 1, 60, 0
5, 15480, Note_on_c, 1, 61, 88
5, 15538, Note_off_c, 1, 61, 0
5, 15540, Note_on_c, 1, 63, 88
5, 15598, Note_off_c, 1, 63, 0
5, 15600, Note_on_c, 1, 64, 88
5, 15658, Note_off_c, 1, 64, 0
5, 15660, Note_on_c, 1, 66, 88
5, 15718, Note_off_c, 1, 66, 0
5, 15720, Note_on_c, 1, 68, 88
5, 15778, Note_off_c, 1, 68, 0
5, 15780, Note_on_c, 1, 64, 88
5, 15838, Note_off_c, 1, 64, 0
5, 15840, Note_on_c, 1, 61, 88
5, 15898, Note_off_c, 1, 61, 0
5, 15900, Note_on_c, 1, 59, 88
5, 15958, Note_off_c, 1, 59, 0
5, 15960, Note_on_c, 1, 61, 88
5, 16018, Note_off_c, 1, 61, 0
5, 16020, Note_on_c, 1, 63, 88
5, 16078, Note_off_c, 1, 63, 0
5, 16080, Note_on_c, 1, 61, 88
5, 16138, Note_off_c, 1, 61, 0
5, 16140, Note_on_c, 1, 59, 88
5, 16198, Note_off_c, 1, 59, 0
5, 16200, Note_on_c, 1, 61, 88
5, 16258, Note_off_c, 1, 61, 0
5, 16260, Note_on_c, 1, 63, 88
5, 16318, Note_off_c, 1, 63, 0
5, 16320, Note_on_c, 1, 59, 88
5, 16378, Note_off_c, 1, 59, 0
5, 16380, Note_on_c, 1, 56, 88
5, 16438, Note_off_c, 1, 56, 0
5, 16440, Note_on_c, 1, 57, 88
5, 16498, Note_off_c, 1, 57, 0
5, 16500, Note_on_c, 1, 59, 88
5, 16558, Note_off_c, 1, 59, 0
5, 16560, Note_on_c, 1, 61, 88
5, 16618, Note_off_c, 1, 61, 0
5, 16620, Note_on_c, 1, 63, 88
5, 16678, Note_off_c, 1, 63, 0
5, 16680, Note_on_c, 1, 64, 88
5, 16738, Note_off_c, 1, 64, 0
5, 16740, Note_on_c, 1, 61, 88
5, 16798, Note_off_c, 1, 61, 0
5, 16800, Note_on_c, 1, 57, 88
5, 16858, Note_off_c, 1, 57, 0
5, 16860, Note_on_c, 1, 56, 88
5, 16918, Note_off_c, 1, 56, 0
5, 16920, Note_on_c, 1, 57, 88
5, 16978, Note_off_c, 1, 57, 0
5, 16980, Note_on_c, 1, 59, 88
5, 17038, Note_off_c, 1, 59, 0
5, 17040, Note_on_c, 1, 57, 88
5, 17098, Note_off_c, 1, 57, 0
5, 17100, Note_on_c, 1, 56, 88
5, 17158, Note_off_c, 1, 56, 0
5, 17160, Note_on_c, 1, 57, 88
5, 17218, Note_off_c, 1, 57, 0
5, 17220, Note_on_c, 1, 59, 88
5, 17278, Note_off_c, 1, 59, 0
5, 17280, Note_on_c, 1, 56, 88
5, 17338, Note_off_c, 1, 56, 0
5, 17340, Note_on_c, 1, 54, 88
5, 17398, Note_off_c, 1, 54, 0
5, 17400, Note_on_c, 1, 56, 88
5, 17458, Note_off_c, 1, 56, 0
5, 17460, Note_on_c, 1, 57, 88
5, 17518, Note_off_c, 1, 57, 0
5, 17520, Note_on_c, 1, 56, 88
5, 17636, Note_off_c, 1, 56, 0
5, 17640, Note_on_c, 1, 59, 88
5, 17874, Note_off_c, 1, 59, 0
5, 17880, Note_on_c, 1, 57, 88
5, 17938, Note_off_c, 1, 57, 0
5, 17940, Note_on_c, 1, 56, 88
5, 17998, Note_off_c, 1, 56, 0
5, 18000, Note_on_c, 1, 57, 88
5, 18058, Note_off_c, 1, 57, 0
5, 18060, Note_on_c, 1, 61, 88
5, 18118, Note_off_c, 1, 61, 0
5, 18120, Note_on_c, 1, 59, 88
5, 18178, Note_off_c, 1, 59, 0
5, 18180, Note_on_c, 1, 57, 88
5, 18238, Note_off_c, 1, 57, 0
5, 18240, Note_on_c, 1, 56, 88
5, 18356, Note_off_c, 1, 56, 0
5, 19560, Note_on_c, 1, 64, 88
5, 19676, Note_off_c, 1, 64, 0
5, 19680, Note_on_c, 1, 66, 88
5, 19914, Note_off_c, 1, 66, 0
5, 19980, Note_on_c, 1, 59, 88
5, 20038, Note_off_c, 1, 59, 0
5, 20040, Note_on_c, 1, 61, 88
5, 20098, Note_off_c, 1, 61, 0
5, 20100, Note_on_c, 1, 63, 88
5, 20158, Note_off_c, 1, 63, 0
5, 20160, Note_on_c, 1, 64, 88
5, 20218, Note_off_c, 1, 64, 0
5, 20220, Note_on_c, 1, 63, 88
5, 20278, Note_off_c, 1, 63, 0
5, 20280, Note_on_c, 1, 64, 88
5, 20338, Note_off_c, 1, 64, 0
5, 20340, Note_on_c, 1, 66, 88
5, 20398, Note_off_c, 1, 66, 0
5, 20400, Note_on_c, 1, 68, 88
5, 20458, Note_off_c, 1, 68, 0
5, 20460, Note_on_c, 1, 69, 88
5, 20518, Note_off_c, 1, 69, 0
5, 20520, Note_on_c, 1, 71, 88
5, 20578, Note_off_c, 1, 71, 0
5, 20580, Note_on_c, 1, 68, 88
5, 20638, Note_off_c, 1, 68, 0
5, 20640, Note_on_c, 1, 64, 88
5, 20698, Note_off_c, 1, 64, 0
5, 20700, Note_on_c, 1, 63, 88
5, 20758, Note_off_c, 1, 63, 0
5, 20760, Note_on_c, 1, 64, 88
5, 20818, Note_off_c, 1, 64, 0
5, 20820, Note_on_c, 1, 66, 88
5, 20878, Note_off_c, 1, 66, 0
5, 20880, Note_on_c, 1, 64, 88
5, 20938, Note_off_c, 1, 64, 0
5, 20940, Note_on_c, 1, 63, 88
5, 20998, Note_off_c, 1, 63, 0
5, 21000, Note_on_c, 1, 64, 88
5, 21058, Note_off_c, 1, 64, 0
5, 21060, Note_on_c, 1, 66, 88
5, 21118, Note_off_c, 1, 66, 0
5, 21120, Note_on_c, 1, 63, 88
5, 21178, Note_off_c, 1, 63, 0
5, 21180, Note_on_c, 1, 61, 88
5, 21238, Note_off_c, 1, 61, 0
5, 21240, Note_on_c, 1, 63, 88
5, 21298, Note_off_c, 1, 63, 0
5, 21300, Note_on_c, 1, 64, 88
5, 21358, Note_off_c, 1, 64, 0
5, 21360, Note_on_c, 1, 66, 88
5, 21418, Note_off_c, 1, 66, 0
5, 21420, Note_on_c, 1, 68, 88
5, 21478, Note_off_c, 1, 68, 0
5, 21480, Note_on_c, 1, 69, 88
5, 21538, Note_off_c, 1, 69, 0
5, 21540, Note_on_c, 1, 66, 88
5, 21598, Note_off_c, 1, 66, 0
5, 21600, Note_on_c, 1, 62, 88
5, 21658, Note_off_c, 1, 62, 0
5, 21660, Note_on_c, 1, 61, 88
5, 21718, Note_off_c, 1, 61, 0
5, 21720, Note_on_c, 1, 62, 88
5, 21778, Note_off_c, 1, 62, 0
5, 21780, Note_on_c, 1, 64, 88
5, 21838, Note_off_c, 1, 64, 0
5, 21840, Note_on_c, 1, 62, 88
5, 21898, Note_off_c, 1, 62, 0
5, 21900, Note_on_c, 1, 61, 88
5, 21958, Note_off_c, 1, 61, 0
5, 21960, Note_on_c, 1, 62, 88
5, 22018, Note_off_c, 1, 62, 0
5, 22020, Note_on_c, 1, 64, 88
5, 22078, Note_off_c, 1, 64, 0
5, 22080, Note_on_c, 1, 61, 88
5, 22138, Note_off_c, 1, 61, 0
5, 22140, Note_on_c, 1, 59, 88
5, 22198, Note_off_c, 1, 59, 0
5, 22200, Note_on_c, 1, 61, 88
5, 22258, Note_off_c, 1, 61, 0
5, 22260, Note_on_c, 1, 62, 88
5, 22318, Note_off_c, 1, 62, 0
5, 22320, Note_on_c, 1, 64, 88
5, 22378, Note_off_c, 1, 64, 0
5, 22380, Note_on_c, 1, 66, 88
5, 22438, Note_off_c, 1, 66, 0
5, 22440, Note_on_c, 1, 68, 88
5, 22498, Note_off_c, 1, 68, 0
5, 22500, Note_on_c, 1, 64, 88
5, 22558, Note_off_c, 1, 64, 0
5, 22560, Note_on_c, 1, 61, 88
5, 22618, Note_off_c, 1, 61, 0
5, 22620, Note_on_c, 1, 59, 88
5, 22678, Note_off_c, 1, 59, 0
5, 22680, Note_on_c, 1, 61, 88
5, 22738, Note_off_c, 1, 61, 0
5, 22740, Note_on_c, 1, 62, 88
5, 22798, Note_off_c, 1, 62, 0
5, 22800, Note_on_c, 1, 61, 88
5, 22858, Note_off_c, 1, 61, 0
5, 22860, Note_on_c, 1, 59, 88
5, 22918, Note_off_c, 1, 59, 0
5, 22920, Note_on_c, 1, 61, 88
5, 22978, Note_off_c, 1, 61, 0
5, 22980, Note_on_c, 1, 62, 88
5, 23038, Note_off_c, 1, 62, 0
5, 23040, Note_on_c, 1, 59, 88
5, 23098, Note_off_c, 1, 59, 0
5, 23100, Note_on_c, 1, 57, 88
5, 23158, Note_off_c, 1, 57, 0
5, 23160, Note_on_c, 1, 59, 88
5, 23218, Note_off_c, 1, 59, 0
5, 23220, Note_on_c, 1, 61, 88
5, 23278, Note_off_c, 1, 61, 0
5, 23280, Note_on_c, 1, 59, 88
5, 23338, Note_off_c, 1, 59, 0
5, 23340, Note_on_c, 1, 57, 88
5, 23398, Note_off_c, 1, 57, 0
5, 23400, Note_on_c, 1, 59, 88
5, 23458, Note_off_c, 1, 59, 0
5, 23460, Note_on_c, 1, 61, 88
5, 23518, Note_off_c, 1, 61, 0
5, 23520, Note_on_c, 1, 57, 88
5, 23578, Note_off_c, 1, 57, 0
5, 23580, Note_on_c, 1, 56, 88
5, 23638, Note_off_c, 1, 56, 0
5, 23640, Note_on_c, 1, 57, 88
5, 23698, Note_off_c, 1, 57, 0
5, 23700, Note_on_c, 1, 59, 88
5, 23758, Note_off_c, 1, 59, 0
5, 23760, Note_on_c, 1, 57, 88
5, 23818, Note_off_c, 1, 57, 0
5, 23820, Note_on_c, 1, 56, 88
5, 23878, Note_off_c, 1, 56, 0
5, 23880, Note_on_c, 1, 57, 88
5, 23938, Note_off_c, 1, 57, 0
5, 23940, Note_on_c, 1, 59, 88
5, 23998, Note_off_c, 1, 59, 0
5, 24000, Note_on_c, 1, 56, 88
5, 24116, Note_off_c, 1, 56, 0
5, 24120, Note_on_c, 1, 59, 88
5, 24236, Note_off_c, 1, 59, 0
5, 24240, Note_on_c, 1, 52, 88
5, 24356, Note_off_c, 1, 52, 0
5, 24360, Note_on_c, 1, 56, 88
5, 24594, Note_off_c, 1, 56, 0
5, 24600, Note_on_c, 1, 54, 88
5, 25194, Note_off_c, 1, 54, 0
5, 25200, Note_on_c, 1, 52, 88
5, 25553, Note_off_c, 1, 52, 0
5, 25560, Note_on_c, 1, 64, 88
5, 25676, Note_off_c, 1, 64, 0
5, 25680, Note_on_c, 1, 69, 88
5, 26154, Note_off_c, 1, 69, 0
5, 26160, Note_on_c, 1, 68, 88
5, 26218, Note_off_c, 1, 68, 0
5, 26220, Note_on_c, 1, 64, 88
5, 26278, Note_off_c, 1, 64, 0
5, 26280, Note_on_c, 1, 66, 88
5, 26338, Note_off_c, 1, 66, 0
5, 26340, Note_on_c, 1, 68, 88
5, 26398, Note_off_c, 1, 68, 0
5, 26400, Note_on_c, 1, 69, 88
5, 26458, Note_off_c, 1, 69, 0
5, 26460, Note_on_c, 1, 71, 88
5, 26518, Note_off_c, 1, 71, 0
5, 26520, Note_on_c, 1, 73, 88
5, 26683, Note_off_c, 1, 73, 0
5, 26700, Note_on_c, 1, 73, 88
5, 26758, Note_off_c, 1, 73, 0
5, 26760, Note_on_c, 1, 71, 88
5, 26818, Note_off_c, 1, 71, 0
5, 26820, Note_on_c, 1, 69, 88
5, 26878, Note_off_c, 1, 69, 0
5, 26880, Note_on_c, 1, 68, 88
5, 27825, Note_off_c, 1, 68, 0
5, 27825, End_track
6, 0, Start_track
6, 0, Title_t, "Track 3"
6, 0, Program_c, 2, 6
6, 2760, Note_on_c, 2, 52, 88
6, 2876, Note_off_c, 2, 52, 0
6, 2880, Note_on_c, 2, 54, 88
6, 3114, Note_off_c, 2, 54, 0
6, 3180, Note_on_c, 2, 47, 88
6, 3238, Note_off_c, 2, 47, 0
6, 3240, Note_on_c, 2, 49, 88
6, 3298, Note_off_c, 2, 49, 0
6, 3300, Note_on_c, 2, 51, 88
6, 3358, Note_off_c, 2, 51, 0
6, 3360, Note_on_c, 2, 52, 88
6, 3418, Note_off_c, 2, 52, 0
6, 3420, Note_on_c, 2, 51, 88
6, 3478, Note_off_c, 2, 51, 0
6, 3480, Note_on_c, 2, 52, 88
6, 3538, Note_off_c, 2, 52, 0
6, 3540, Note_on_c, 2, 54, 88
6, 3598, Note_off_c, 2, 54, 0
6, 3600, Note_on_c, 2, 56, 88
6, 3658, Note_off_c, 2, 56, 0
6, 3660, Note_on_c, 2, 57, 88
6, 3718, Note_off_c, 2, 57, 0
6, 3720, Note_on_c, 2, 59, 88
6, 3778, Note_off_c, 2, 59, 0
6, 3780, Note_on_c, 2, 56, 88
6, 3838, Note_off_c, 2, 56, 0
6, 3840, Note_on_c, 2, 52, 88
6, 3898, Note_off_c, 2, 52, 0
6, 3900, Note_on_c, 2, 51, 88
6, 3958, Note_off_c, 2, 51, 0
6, 3960, Note_on_c, 2, 52, 88
6, 4018, Note_off_c, 2, 52, 0
6, 4020, Note_on_c, 2, 54, 88
6, 4078, Note_off_c, 2, 54, 0
6, 4080, Note_on_c, 2, 52, 88
6, 4138, Note_off_c, 2, 52, 0
6, 4140, Note_on_c, 2, 51, 88
6, 4198, Note_off_c, 2, 51, 0
6, 4200, Note_on_c, 2, 52, 88
6, 4258, Note_off_c, 2, 52, 0
6, 4260, Note_on_c, 2, 54, 88
6, 4318, Note_off_c, 2, 54, 0
6, 4320, Note_on_c, 2, 51, 88
6, 4378, Note_off_c, 2, 51, 0
6, 4380, Note_on_c, 2, 49, 88
6, 4438, Note_off_c, 2, 49, 0
6, 4440, Note_on_c, 2, 51, 88
6, 4498, Note_off_c, 2, 51, 0
6, 4500, Note_on_c, 2, 52, 88
6, 4558, Note_off_c, 2, 52, 0
6, 4560, Note_on_c, 2, 54, 88
6, 4618, Note_off_c, 2, 54, 0
6, 4620, Note_on_c, 2, 56, 88
6, 4678, Note_off_c, 2, 56, 0
6, 4680, Note_on_c, 2, 57, 88
6, 4738, Note_off_c, 2, 57, 0
6, 4740, Note_on_c, 2, 54, 88
6, 4798, Note_off_c, 2, 54, 0
6, 4800, Note_on_c, 2, 56, 88
6, 4858, Note_off_c, 2, 56, 0
6, 4860, Note_on_c, 2, 54, 88
6, 4918, Note_off_c, 2, 54, 0
6, 4920, Note_on_c, 2, 56, 88
6, 4978, Note_off_c, 2, 56, 0
6, 4980, Note_on_c, 2, 57, 88
6, 5038, Note_off_c, 2, 57, 0
6, 5040, Note_on_c, 2, 59, 88
6, 5098, Note_off_c, 2, 59, 0
6, 5100, Note_on_c, 2, 61, 88
6, 5158, Note_off_c, 2, 61, 0
6, 5160, Note_on_c, 2, 62, 88
6, 5218, Note_off_c, 2, 62, 0
6, 5220, Note_on_c, 2, 59, 88
6, 5278, Note_off_c, 2, 59, 0
6, 5280, Note_on_c, 2, 61, 88
6, 5338, Note_off_c, 2, 61, 0
6, 5340, Note_on_c, 2, 59, 88
6, 5398, Note_off_c, 2, 59, 0
6, 5400, Note_on_c, 2, 61, 88
6, 5458, Note_off_c, 2, 61, 0
6, 5460, Note_on_c, 2, 63, 88
6, 5518, Note_off_c, 2, 63, 0
6, 5520, Note_on_c, 2, 64, 88
6, 5578, Note_off_c, 2, 64, 0
6, 5580, Note_on_c, 2, 63, 88
6, 5638, Note_off_c, 2, 63, 0
6, 5640, Note_on_c, 2, 61, 88
6, 5698, Note_off_c, 2, 61, 0
6, 5700, Note_on_c, 2, 59, 88
6, 5758, Note_off_c, 2, 59, 0
6, 5760, Note_on_c, 2, 57, 88
6, 5818, Note_off_c, 2, 57, 0
6, 5820, Note_on_c, 2, 56, 88
6, 5878, Note_off_c, 2, 56, 0
6, 5880, Note_on_c, 2, 57, 88
6, 5938, Note_off_c, 2, 57, 0
6, 5940, Note_on_c, 2, 59, 88
6, 5998, Note_off_c, 2, 59, 0
6, 6000, Note_on_c, 2, 57, 88
6, 6058, Note_off_c, 2, 57, 0
6, 6060, Note_on_c, 2, 56, 88
6, 6118, Note_off_c, 2, 56, 0
6, 6120, Note_on_c, 2, 57, 88
6, 6178, Note_off_c, 2, 57, 0
6, 6180, Note_on_c, 2, 59, 88
6, 6238, Note_off_c, 2, 59, 0
6, 6240, Note_on_c, 2, 56, 88
6, 6356, Note_off_c, 2, 56, 0
6, 6360, Note_on_c, 2, 54, 88
6, 6476, Note_off_c, 2, 54, 0
6, 6480, Note_on_c, 2, 52, 88
6, 6596, Note_off_c, 2, 52, 0
6, 6600, Note_on_c, 2, 51, 88
6, 6716, Note_off_c, 2, 51, 0
6, 6720, Note_on_c, 2, 49, 88
6, 6836, Note_off_c, 2, 49, 0
6, 6840, Note_on_c, 2, 59, 88
6, 6956, Note_off_c, 2, 59, 0
6, 6960, Note_on_c, 2, 58, 88
6, 7076, Note_off_c, 2, 58, 0
6, 7080, Note_on_c, 2, 54, 88
6, 7196, Note_off_c, 2, 54, 0
6, 7200, Note_on_c, 2, 59, 88
6, 7316, Note_off_c, 2, 59, 0
6, 8520, Note_on_c, 2, 59, 88
6, 8636, Note_off_c, 2, 59, 0
6, 8640, Note_on_c, 2, 61, 88
6, 8874, Note_off_c, 2, 61, 0
6, 8940, Note_on_c, 2, 54, 88
6, 8998, Note_off_c, 2, 54, 0
6, 9000, Note_on_c, 2, 56, 88
6, 9058, Note_off_c, 2, 56, 0
6, 9060, Note_on_c, 2, 57, 88
6, 9118, Note_off_c, 2, 57, 0
6, 9120, Note_on_c, 2, 59, 88
6, 9178, Note_off_c, 2, 59, 0
6, 9180, Note_on_c, 2, 57, 88
6, 9238, Note_off_c, 2, 57, 0
6, 9240, Note_on_c, 2, 59, 88
6, 9298, Note_off_c, 2, 59, 0
6, 9300, Note_on_c, 2, 61, 88
6, 9358, Note_off_c, 2, 61, 0
6, 9360, Note_on_c, 2, 63, 88
6, 9418, Note_off_c, 2, 63, 0
6, 9420, Note_on_c, 2, 64, 88
6, 9478, Note_off_c, 2, 64, 0
6, 9480, Note_on_c, 2, 63, 88
6, 9538, Note_off_c, 2, 63, 0
6, 9540, Note_on_c, 2, 61, 88
6, 9598, Note_off_c, 2, 61, 0
6, 9600, Note_on_c, 2, 60, 88
6, 9658, Note_off_c, 2, 60, 0
6, 9660, Note_on_c, 2, 56, 88
6, 9718, Note_off_c, 2, 56, 0
6, 9720, Note_on_c, 2, 58, 88
6, 9778, Note_off_c, 2, 58, 0
6, 9780, Note_on_c, 2, 60, 88
6, 9838, Note_off_c, 2, 60, 0
6, 9840, Note_on_c, 2, 61, 88
6, 9898, Note_off_c, 2, 61, 0
6, 9900, Note_on_c, 2, 63, 88
6, 9958, Note_off_c, 2, 63, 0
6, 9960, Note_on_c, 2, 64, 88
6, 10018, Note_off_c, 2, 64, 0
6, 10020, Note_on_c, 2, 61, 88
6, 10078, Note_off_c, 2, 61, 0
6, 10080, Note_on_c, 2, 57, 88
6, 10138, Note_off_c, 2, 57, 0
6, 10140, Note_on_c, 2, 56, 88
6, 10198, Note_off_c, 2, 56, 0
6, 10200, Note_on_c, 2, 57, 88
6, 10258, Note_off_c, 2, 57, 0
6, 10260, Note_on_c, 2, 59, 88
6, 10318, Note_off_c, 2, 59, 0
6, 10320, Note_on_c, 2, 57, 88
6, 10378, Note_off_c, 2, 57, 0
6, 10380, Note_on_c, 2, 56, 88
6, 10438, Note_off_c, 2, 56, 0
6, 10440, Note_on_c, 2, 57, 88
6, 10498, Note_off_c, 2, 57, 0
6, 10500, Note_on_c, 2, 59, 88
6, 10558, Note_off_c, 2, 59, 0
6, 10560, Note_on_c, 2, 56, 88
6, 10618, Note_off_c, 2, 56, 0
6, 10620, Note_on_c, 2, 52, 88
6, 10678, Note_off_c, 2, 52, 0
6, 10680, Note_on_c, 2, 54, 88
6, 10738, Note_off_c, 2, 54, 0
6, 10740, Note_on_c, 2, 56, 88
6, 10798, Note_off_c, 2, 56, 0
6, 10800, Note_on_c, 2, 57, 88
6, 10858, Note_off_c, 2, 57, 0
6, 10860, Note_on_c, 2, 59, 88
6, 10918, Note_off_c, 2, 59, 0
6, 10920, Note_on_c, 2, 61, 88
6, 10978, Note_off_c, 2, 61, 0
6, 10980, Note_on_c, 2, 57, 88
6, 11038, Note_off_c, 2, 57, 0
6, 11040, Note_on_c, 2, 54, 88
6, 11098, Note_off_c, 2, 54, 0
6, 11100, Note_on_c, 2, 52, 88
6, 11158, Note_off_c, 2, 52, 0
6, 11160, Note_on_c, 2, 54, 88
6, 11218, Note_off_c, 2, 54, 0
6, 11220, Note_on_c, 2, 56, 88
6, 11278, Note_off_c, 2, 56, 0
6, 11280, Note_on_c, 2, 54, 88
6, 11338, Note_off_c, 2, 54, 0
6, 11340, Note_on_c, 2, 52, 88
6, 11398, Note_off_c, 2, 52, 0
6, 11400, Note_on_c, 2, 54, 88
6, 11458, Note_off_c, 2, 54, 0
6, 11460, Note_on_c, 2, 56, 88
6, 11518, Note_off_c, 2, 56, 0
6, 11520, Note_on_c, 2, 52, 88
6, 11636, Note_off_c, 2, 52, 0
6, 11640, Note_on_c, 2, 51, 88
6, 11756, Note_off_c, 2, 51, 0
6, 11760, Note_on_c, 2, 49, 88
6, 11876, Note_off_c, 2, 49, 0
6, 11880, Note_on_c, 2, 52, 88
6, 11996, Note_off_c, 2, 52, 0
6, 12000, Note_on_c, 2, 46, 88
6, 12116, Note_off_c, 2, 46, 0
6, 12120, Note_on_c, 2, 56, 88
6, 12236, Note_off_c, 2, 56, 0
6, 12240, Note_on_c, 2, 55, 88
6, 12356, Note_off_c, 2, 55, 0
6, 12360, Note_on_c, 2, 51, 88
6, 12476, Note_off_c, 2, 51, 0
6, 12480, Note_on_c, 2, 44, 88
6, 12596, Note_off_c, 2, 44, 0
6, 12600, Note_on_c, 2, 46, 88
6, 12716, Note_off_c, 2, 46, 0
6, 12720, Note_on_c, 2, 47, 88
6, 12836, Note_off_c, 2, 47, 0
6, 12840, Note_on_c, 2, 46, 88
6, 12956, Note_off_c, 2, 46, 0
6, 12960, Note_on_c, 2, 44, 88
6, 13076, Note_off_c, 2, 44, 0
6, 13080, Note_on_c, 2, 54, 88
6, 13196, Note_off_c, 2, 54, 0
6, 13200, Note_on_c, 2, 53, 88
6, 13316, Note_off_c, 2, 53, 0
6, 13320, Note_on_c, 2, 49, 88
6, 13436, Note_off_c, 2, 49, 0
6, 13440, Note_on_c, 2, 42, 88
6, 13556, Note_off_c, 2, 42, 0
6, 13560, Note_on_c, 2, 44, 88
6, 13676, Note_off_c, 2, 44, 0
6, 13680, Note_on_c, 2, 45, 88
6, 13796, Note_off_c, 2, 45, 0
6, 13800, Note_on_c, 2, 44, 88
6, 13916, Note_off_c, 2, 44, 0
6, 13920, Note_on_c, 2, 42, 88
6, 14036, Note_off_c, 2, 42, 0
6, 14040, Note_on_c, 2, 52, 88
6, 14156, Note_off_c, 2, 52, 0
6, 14160, Note_on_c, 2, 51, 88
6, 14276, Note_off_c, 2, 51, 0
6, 14280, Note_on_c, 2, 49, 88
6, 14396, Note_off_c, 2, 49, 0
6, 14400, Note_on_c, 2, 48, 88
6, 14516, Note_off_c, 2, 48, 0
6, 14520, Note_on_c, 2, 44, 88
6, 14636, Note_off_c, 2, 44, 0
6, 14640, Note_on_c, 2, 45, 88
6, 14756, Note_off_c, 2, 45, 0
6, 14760, Note_on_c, 2, 52, 88
6, 14876, Note_off_c, 2, 52, 0
6, 14880, Note_on_c, 2, 54, 88
6, 14938, Note_off_c, 2, 54, 0
6, 14940, Note_on_c, 2, 52, 88
6, 14998, Note_off_c, 2, 52, 0
6, 15000, Note_on_c, 2, 54, 88
6, 15116, Note_off_c, 2, 54, 0
6, 15120, Note_on_c, 2, 56, 88
6, 15236, Note_off_c, 2, 56, 0
6, 15240, Note_on_c, 2, 44, 88
6, 15356, Note_off_c, 2, 44, 0
6, 15360, Note_on_c, 2, 49, 88
6, 15476, Note_off_c, 2, 49, 0
6, 17640, Note_on_c, 2, 52, 88
6, 17756, Note_off_c, 2, 52, 0
6, 17760, Note_on_c, 2, 54, 88
6, 17994, Note_off_c, 2, 54, 0
6, 18060, Note_on_c, 2, 47, 88
6, 18118, Note_off_c, 2, 47, 0
6, 18120, Note_on_c, 2, 49, 88
6, 18178, Note_off_c, 2, 49, 0
6, 18180, Note_on_c, 2, 51, 88
6, 18238, Note_off_c, 2, 51, 0
6, 18240, Note_on_c, 2, 52, 88
6, 18298, Note_off_c, 2, 52, 0
6, 18300, Note_on_c, 2, 51, 88
6, 18358, Note_off_c, 2, 51, 0
6, 18360, Note_on_c, 2, 52, 88
6, 18418, Note_off_c, 2, 52, 0
6, 18420, Note_on_c, 2, 54, 88
6, 18478, Note_off_c, 2, 54, 0
6, 18480, Note_on_c, 2, 56, 88
6, 18538, Note_off_c, 2, 56, 0
6, 18540, Note_on_c, 2, 57, 88
6, 18598, Note_off_c, 2, 57, 0
6, 18600, Note_on_c, 2, 59, 88
6, 18658, Note_off_c, 2, 59, 0
6, 18660, Note_on_c, 2, 56, 88
6, 18718, Note_off_c, 2, 56, 0
6, 18720, Note_on_c, 2, 52, 88
6, 18778, Note_off_c, 2, 52, 0
6, 18780, Note_on_c, 2, 51, 88
6, 18838, Note_off_c, 2, 51, 0
6, 18840, Note_on_c, 2, 52, 88
6, 18898, Note_off_c, 2, 52, 0
6, 18900, Note_on_c, 2, 54, 88
6, 18958, Note_off_c, 2, 54, 0
6, 18960, Note_on_c, 2, 52, 88
6, 19018, Note_off_c, 2, 52, 0
6, 19020, Note_on_c, 2, 51, 88
6, 19078, Note_off_c, 2, 51, 0
6, 19080, Note_on_c, 2, 52, 88
6, 19138, Note_off_c, 2, 52, 0
6, 19140, Note_on_c, 2, 54, 88
6, 19198, Note_off_c, 2, 54, 0
6, 19200, Note_on_c, 2, 51, 88
6, 19316, Note_off_c, 2, 51, 0
6, 19320, Note_on_c, 2, 54, 88
6, 19436, Note_off_c, 2, 54, 0
6, 19440, Note_on_c, 2, 47, 88
6, 19556, Note_off_c, 2, 47, 0
6, 19560, Note_on_c, 2, 52, 88
6, 19794, Note_off_c, 2, 52, 0
6, 19800, Note_on_c, 2, 51, 88
6, 19858, Note_off_c, 2, 51, 0
6, 19860, Note_on_c, 2, 49, 88
6, 19918, Note_off_c, 2, 49, 0
6, 19920, Note_on_c, 2, 51, 88
6, 20036, Note_off_c, 2, 51, 0
6, 20040, Note_on_c, 2, 59, 88
6, 20156, Note_off_c, 2, 59, 0
6, 20160, Note_on_c, 2, 61, 88
6, 20394, Note_off_c, 2, 61, 0
6, 20520, Note_on_c, 2, 56, 88
6, 20636, Note_off_c, 2, 56, 0
6, 20640, Note_on_c, 2, 57, 88
6, 20756, Note_off_c, 2, 57, 0
6, 20760, Note_on_c, 2, 56, 88
6, 20876, Note_off_c, 2, 56, 0
6, 20880, Note_on_c, 2, 57, 88
6, 20996, Note_off_c, 2, 57, 0
6, 21000, Note_on_c, 2, 52, 88
6, 21116, Note_off_c, 2, 52, 0
6, 21120, Note_on_c, 2, 54, 88
6, 21236, Note_off_c, 2, 54, 0
6, 21240, Note_on_c, 2, 51, 88
6, 21356, Note_off_c, 2, 51, 0
6, 21360, Note_on_c, 2, 56, 88
6, 21476, Note_off_c, 2, 56, 0
6, 21480, Note_on_c, 2, 54, 88
6, 21596, Note_off_c, 2, 54, 0
6, 21600, Note_on_c, 2, 52, 88
6, 21716, Note_off_c, 2, 52, 0
6, 21720, Note_on_c, 2, 54, 88
6, 21836, Note_off_c, 2, 54, 0
6, 21840, Note_on_c, 2, 56, 88
6, 21956, Note_off_c, 2, 56, 0
6, 21960, Note_on_c, 2, 52, 88
6, 22076, Note_off_c, 2, 52, 0
6, 22080, Note_on_c, 2, 57, 88
6, 22196, Note_off_c, 2, 57, 0
6, 22200, Note_on_c, 2, 59, 88
6, 22316, Note_off_c, 2, 59, 0
6, 22320, Note_on_c, 2, 61, 88
6, 22436, Note_off_c, 2, 61, 0
6, 22440, Note_on_c, 2, 59, 88
6, 22556, Note_off_c, 2, 59, 0
6, 22560, Note_on_c, 2, 57, 88
6, 22676, Note_off_c, 2, 57, 0
6, 22680, Note_on_c, 2, 52, 88
6, 22796, Note_off_c, 2, 52, 0
6, 22800, Note_on_c, 2, 54, 88
6, 22916, Note_off_c, 2, 54, 0
6, 22920, Note_on_c, 2, 49, 88
6, 23036, Note_off_c, 2, 49, 0
6, 23040, Note_on_c, 2, 51, 88
6, 23156, Note_off_c, 2, 51, 0
6, 23160, Note_on_c, 2, 47, 88
6, 23276, Note_off_c, 2, 47, 0
6, 23280, Note_on_c, 2, 52, 88
6, 23750, Note_off_c, 2, 52, 0
6, 23760, Note_on_c, 2, 51, 88
6, 24234, Note_off_c, 2, 51, 0
6, 24240, Note_on_c, 2, 49, 88
6, 24474, Note_off_c, 2, 49, 0
6, 24480, Note_on_c, 2, 42, 88
6, 24655, Note_off_c, 2, 42, 0
6, 24660, Note_on_c, 2, 49, 88
6, 24718, Note_off_c, 2, 49, 0
6, 24720, Note_on_c, 2, 51, 88
6, 24836, Note_off_c, 2, 51, 0
6, 24840, Note_on_c, 2, 47, 88
6, 24956, Note_off_c, 2, 47, 0
6, 24960, Note_on_c, 2, 52, 88
6, 25076, Note_off_c, 2, 52, 0
6, 25080, Note_on_c, 2, 47, 88
6, 25196, Note_off_c, 2, 47, 0
6, 25200, Note_on_c, 2, 49, 88
6, 25316, Note_off_c, 2, 49, 0
6, 25320, Note_on_c, 2, 44, 88
6, 25436, Note_off_c, 2, 44, 0
6, 25440, Note_on_c, 2, 45, 88
6, 25615, Note_off_c, 2, 45, 0
6, 25620, Note_on_c, 2, 40, 88
6, 25678, Note_off_c, 2, 40, 0
6, 25680, Note_on_c, 2, 42, 88
6, 25796, Note_off_c, 2, 42, 0
6, 25800, Note_on_c, 2, 37, 88
6, 25916, Note_off_c, 2, 37, 0
6, 25920, Note_on_c, 2, 39, 88
6, 26036, Note_off_c, 2, 39, 0
6, 26040, Note_on_c, 2, 59, 88
6, 26156, Note_off_c, 2, 59, 0
6, 26160, Note_on_c, 2, 61, 88
6, 26394, Note_off_c, 2, 61, 0
6, 26460, Note_on_c, 2, 54, 88
6, 26518, Note_off_c, 2, 54, 0
6, 26520, Note_on_c, 2, 56, 88
6, 26578, Note_off_c, 2, 56, 0
6, 26580, Note_on_c, 2, 57, 88
6, 26638, Note_off_c, 2, 57, 0
6, 26640, Note_on_c, 2, 59, 88
6, 26756, Note_off_c, 2, 59, 0
6, 26760, Note_on_c, 2, 47, 88
6, 26876, Note_off_c, 2, 47, 0
6, 26880, Note_on_c, 2, 40, 88
6, 27825, Note_off_c, 2, 40, 0
6, 27825, End_track
0, 0, End_of_file
