0, 0, Header, 1, 5, 240
1, 0, Start_track
1, 0, Time_signature, 3, 2, 24, 8
1, 0, Tempo, 833333
1, 0, SMPTE_offset, 64, 0, 0, 0, 93
1, 0, End_track
2, 0, Start_track
2, 0, Title_t, "(C) & (P) 1993"
2, 127, End_track
3, 0, Start_track
3, 0, Title_t, "CCARH,Stanford"
3, 0, End_track
4, 0, Start_track
4, 0, Title_t, "Track 1"
4, 0, Program_c, 0, 6
4, 0, Note_on_c, 0, 64, 88
4, 58, Note_off_c, 0, 64, 0
4, 60, Note_on_c, 0, 67, 88
4, 118, Note_off_c, 0, 67, 0
4, 120, Note_on_c, 0, 71, 88
4, 178, Note_off_c, 0, 71, 0
4, 180, Note_on_c, 0, 76, 88
4, 238, Note_off_c, 0, 76, 0
4, 240, Note_on_c, 0, 75, 88
4, 298, Note_off_c, 0, 75, 0
4, 300, Note_on_c, 0, 76, 88
4, 358, Note_off_c, 0, 76, 0
4, 360, Note_on_c, 0, 74, 88
4, 418, Note_off_c, 0, 74, 0
4, 420, Note_on_c, 0, 76, 88
4, 478, Note_off_c, 0, 76, 0
4, 480, Note_on_c, 0, 73, 88
4, 538, Note_off_c, 0, 73, 0
4, 540, Note_on_c, 0, 76, 88
4, 598, Note_off_c, 0, 76, 0
4, 600, Note_on_c, 0, 72, 88
4, 658, Note_off_c, 0, 72, 0
4, 660, Note_on_c, 0, 76, 88
4, 718, Note_off_c, 0, 76, 0
4, 720, Note_on_c, 0, 71, 88
4, 778, Note_off_c, 0, 71, 0
4, 780, Note_on_c, 0, 76, 88
4, 838, Note_off_c, 0, 76, 0
4, 840, Note_on_c, 0, 75, 88
4, 898, Note_off_c, 0, 75, 0
4, 900, Note_on_c, 0, 76, 88
4, 958, Note_off_c, 0, 76, 0
4, 960, Note_on_c, 0, 70, 88
4, 1018, Note_off_c, 0, 70, 0
4, 1020, Note_on_c, 0, 73, 88
4, 1078, Note_off_c, 0, 73, 0
4, 1080, Note_on_c, 0, 67, 88
4, 1138, Note_off_c, 0, 67, 0
4, 1140, Note_on_c, 0, 66, 88
4, 1198, Note_off_c, 0, 66, 0
4, 1200, Note_on_c, 0, 67, 88
4, 1258, Note_off_c, 0, 67, 0
4, 1260, Note_on_c, 0, 70, 88
4, 1318, Note_off_c, 0, 70, 0
4, 1320, Note_on_c, 0, 66, 88
4, 1378, Note_off_c, 0, 66, 0
4, 1380, Note_on_c, 0, 64, 88
4, 1438, Note_off_c, 0, 64, 0
4, 1440, Note_on_c, 0, 62, 88
4, 1556, Note_off_c, 0, 62, 0
4, 1560, Note_on_c, 0, 71, 88
4, 1676, Note_off_c, 0, 71, 0
4, 1740, Note_on_c, 0, 78, 88
4, 1798, Note_off_c, 0, 78, 0
4, 1800, Note_on_c, 0, 79, 88
4, 1858, Note_off_c, 0, 79, 0
4, 1860, Note_on_c, 0, 78, 88
4, 1918, Note_off_c, 0, 78, 0
4, 1920, Note_on_c, 0, 76, 88
4, 1978, Note_off_c, 0, 76, 0
4, 1980, Note_on_c, 0, 74, 88
4, 2038, Note_off_c, 0, 74, 0
4, 2040, Note_on_c, 0, 73, 88
4, 2098, Note_off_c, 0, 73, 0
4, 2100, Note_on_c, 0, 76, 88
4, 2158, Note_off_c, 0, 76, 0
4, 2160, Note_on_c, 0, 74, 88
4, 2454, Note_off_c, 0, 74, 0
4, 2460, Note_on_c, 0, 73, 88
4, 2518, Note_off_c, 0, 73, 0
4, 2520, Note_on_c, 0, 71, 88
4, 2578, Note_off_c, 0, 71, 0
4, 2580, Note_on_c, 0, 70, 88
4, 2638, Note_off_c, 0, 70, 0
4, 2640, Note_on_c, 0, 71, 88
4, 2698, Note_off_c, 0, 71, 0
4, 2700, Note_on_c, 0, 73, 88
4, 2758, Note_off_c, 0, 73, 0
4, 2760, Note_on_c, 0, 70, 88
4, 2818, Note_off_c, 0, 70, 0
4, 2820, Note_on_c, 0, 71, 88
4, 2878, Note_off_c, 0, 71, 0
4, 2880, Note_on_c, 0, 73, 88
4, 2938, Note_off_c, 0, 73, 0
4, 2940, Note_on_c, 0, 66, 88
4, 2998, Note_off_c, 0, 66, 0
4, 3000, Note_on_c, 0, 70, 88
4, 3058, Note_off_c, 0, 70, 0
4, 3060, Note_on_c, 0, 73, 88
4, 3118, Note_off_c, 0, 73, 0
4, 3120, Note_on_c, 0, 76, 88
4, 3178, Note_off_c, 0, 76, 0
4, 3180, Note_on_c, 0, 70, 88
4, 3238, Note_off_c, 0, 70, 0
4, 3240, Note_on_c, 0, 73, 88
4, 3298, Note_off_c, 0, 73, 0
4, 3300, Note_on_c, 0, 76, 88
4, 3358, Note_off_c, 0, 76, 0
4, 3360, Note_on_c, 0, 79, 88
4, 3418, Note_off_c, 0, 79, 0
4, 3420, Note_on_c, 0, 78, 88
4, 3478, Note_off_c, 0, 78, 0
4, 3480, Note_on_c, 0, 76, 88
4, 3538, Note_off_c, 0, 76, 0
4, 3540, Note_on_c, 0, 79, 88
4, 3598, Note_off_c, 0, 79, 0
4, 3600, Note_on_c, 0, 78, 88
4, 3658, Note_off_c, 0, 78, 0
4, 3660, Note_on_c, 0, 76, 88
4, 3718, Note_off_c, 0, 76, 0
4, 3720, Note_on_c, 0, 74, 88
4, 3778, Note_off_c, 0, 74, 0
4, 3780, Note_on_c, 0, 73, 88
4, 3838, Note_off_c, 0, 73, 0
4, 3840, Note_on_c, 0, 71, 88
4, 3898, Note_off_c, 0, 71, 0
4, 3900, Note_on_c, 0, 70, 88
4, 3958, Note_off_c, 0, 70, 0
4, 3960, Note_on_c, 0, 68, 88
4, 4018, Note_off_c, 0, 68, 0
4, 4020, Note_on_c, 0, 66, 88
4, 4078, Note_off_c, 0, 66, 0
4, 4080, Note_on_c, 0, 74, 88
4, 4378, Note_off_c, 0, 74, 0
4, 4380, Note_on_c, 0, 64, 88
4, 4438, Note_off_c, 0, 64, 0
4, 4440, Note_on_c, 0, 68, 88
4, 4498, Note_off_c, 0, 68, 0
4, 4500, Note_on_c, 0, 71, 88
4, 4558, Note_off_c, 0, 71, 0
4, 4560, Note_on_c, 0, 74, 88
4, 4618, Note_off_c, 0, 74, 0
4, 4620, Note_on_c, 0, 68, 88
4, 4678, Note_off_c, 0, 68, 0
4, 4680, Note_on_c, 0, 71, 88
4, 4738, Note_off_c, 0, 71, 0
4, 4740, Note_on_c, 0, 74, 88
4, 4798, Note_off_c, 0, 74, 0
4, 4800, Note_on_c, 0, 77, 88
4, 4858, Note_off_c, 0, 77, 0
4, 4860, Note_on_c, 0, 76, 88
4, 4918, Note_off_c, 0, 76, 0
4, 4920, Note_on_c, 0, 74, 88
4, 4978, Note_off_c, 0, 74, 0
4, 4980, Note_on_c, 0, 77, 88
4, 5038, Note_off_c, 0, 77, 0
4, 5040, Note_on_c, 0, 76, 88
4, 5098, Note_off_c, 0, 76, 0
4, 5100, Note_on_c, 0, 74, 88
4, 5158, Note_off_c, 0, 74, 0
4, 5160, Note_on_c, 0, 72, 88
4, 5218, Note_off_c, 0, 72, 0
4, 5220, Note_on_c, 0, 71, 88
4, 5278, Note_off_c, 0, 71, 0
4, 5280, Note_on_c, 0, 69, 88
4, 5338, Note_off_c, 0, 69, 0
4, 5340, Note_on_c, 0, 68, 88
4, 5398, Note_off_c, 0, 68, 0
4, 5400, Note_on_c, 0, 66, 88
4, 5458, Note_off_c, 0, 66, 0
4, 5460, Note_on_c, 0, 64, 88
4, 5518, Note_off_c, 0, 64, 0
4, 5520, Note_on_c, 0, 72, 88
4, 5818, Note_off_c, 0, 72, 0
4, 5820, Note_on_c, 0, 69, 88
4, 5878, Note_off_c, 0, 69, 0
4, 5880, Note_on_c, 0, 62, 88
4, 5938, Note_off_c, 0, 62, 0
4, 5940, Note_on_c, 0, 64, 88
4, 5998, Note_off_c, 0, 64, 0
4, 6000, Note_on_c, 0, 66, 88
4, 6058, Note_off_c, 0, 66, 0
4, 6060, Note_on_c, 0, 67, 88
4, 6118, Note_off_c, 0, 67, 0
4, 6120, Note_on_c, 0, 69, 88
4, 6178, Note_off_c, 0, 69, 0
4, 6180, Note_on_c, 0, 71, 88
4, 6238, Note_off_c, 0, 71, 0
4, 6240, Note_on_c, 0, 72, 88
4, 6298, Note_off_c, 0, 72, 0
4, 6300, Note_on_c, 0, 74, 88
4, 6358, Note_off_c, 0, 74, 0
4, 6360, Note_on_c, 0, 76, 88
4, 6418, Note_off_c, 0, 76, 0
4, 6420, Note_on_c, 0, 78, 88
4, 6478, Note_off_c, 0, 78, 0
4, 6480, Note_on_c, 0, 79, 88
4, 6538, Note_off_c, 0, 79, 0
4, 6540, Note_on_c, 0, 78, 88
4, 6598, Note_off_c, 0, 78, 0
4, 6600, Note_on_c, 0, 81, 88
4, 6658, Note_off_c, 0, 81, 0
4, 6660, Note_on_c, 0, 79, 88
4, 6718, Note_off_c, 0, 79, 0
4, 6720, Note_on_c, 0, 78, 88
4, 6778, Note_off_c, 0, 78, 0
4, 6780, Note_on_c, 0, 76, 88
4, 6838, Note_off_c, 0, 76, 0
4, 6840, Note_on_c, 0, 74, 88
4, 6898, Note_off_c, 0, 74, 0
4, 6900, Note_on_c, 0, 72, 88
4, 6958, Note_off_c, 0, 72, 0
4, 6960, Note_on_c, 0, 71, 88
4, 7018, Note_off_c, 0, 71, 0
4, 7020, Note_on_c, 0, 79, 88
4, 7078, Note_off_c, 0, 79, 0
4, 7080, Note_on_c, 0, 69, 88
4, 7138, Note_off_c, 0, 69, 0
4, 7140, Note_on_c, 0, 78, 88
4, 7198, Note_off_c, 0, 78, 0
4, 7200, Note_on_c, 0, 67, 88
4, 7258, Note_off_c, 0, 67, 0
4, 7260, Note_on_c, 0, 71, 88
4, 7318, Note_off_c, 0, 71, 0
4, 7320, Note_on_c, 0, 74, 88
4, 7378, Note_off_c, 0, 74, 0
4, 7380, Note_on_c, 0, 79, 88
4, 7438, Note_off_c, 0, 79, 0
4, 7440, Note_on_c, 0, 78, 88
4, 7498, Note_off_c, 0, 78, 0
4, 7500, Note_on_c, 0, 79, 88
4, 7558, Note_off_c, 0, 79, 0
4, 7560, Note_on_c, 0, 77, 88
4, 7618, Note_off_c, 0, 77, 0
4, 7620, Note_on_c, 0, 79, 88
4, 7678, Note_off_c, 0, 79, 0
4, 7680, Note_on_c, 0, 76, 88
4, 7738, Note_off_c, 0, 76, 0
4, 7740, Note_on_c, 0, 79, 88
4, 7798, Note_off_c, 0, 79, 0
4, 7800, Note_on_c, 0, 75, 88
4, 7858, Note_off_c, 0, 75, 0
4, 7860, Note_on_c, 0, 79, 88
4, 7918, Note_off_c, 0, 79, 0
4, 7920, Note_on_c, 0, 74, 88
4, 7978, Note_off_c, 0, 74, 0
4, 7980, Note_on_c, 0, 79, 88
4, 8038, Note_off_c, 0, 79, 0
4, 8040, Note_on_c, 0, 78, 88
4, 8098, Note_off_c, 0, 78, 0
4, 8100, Note_on_c, 0, 79, 88
4, 8158, Note_off_c, 0, 79, 0
4, 8160, Note_on_c, 0, 73, 88
4, 8218, Note_off_c, 0, 73, 0
4, 8220, Note_on_c, 0, 76, 88
4, 8278, Note_off_c, 0, 76, 0
4, 8280, Note_on_c, 0, 70, 88
4, 8338, Note_off_c, 0, 70, 0
4, 8340, Note_on_c, 0, 69, 88
4, 8398, Note_off_c, 0, 69, 0
4, 8400, Note_on_c, 0, 70, 88
4, 8458, Note_off_c, 0, 70, 0
4, 8460, Note_on_c, 0, 73, 88
4, 8518, Note_off_c, 0, 73, 0
4, 8520, Note_on_c, 0, 69, 88
4, 8578, Note_off_c, 0, 69, 0
4, 8580, Note_on_c, 0, 67, 88
4, 8638, Note_off_c, 0, 67, 0
4, 8640, Note_on_c, 0, 66, 88
4, 8756, Note_off_c, 0, 66, 0
4, 8760, Note_on_c, 0, 74, 88
4, 8876, Note_off_c, 0, 74, 0
4, 8940, Note_on_c, 0, 81, 88
4, 8998, Note_off_c, 0, 81, 0
4, 9000, Note_on_c, 0, 83, 88
4, 9058, Note_off_c, 0, 83, 0
4, 9060, Note_on_c, 0, 81, 88
4, 9118, Note_off_c, 0, 81, 0
4, 9120, Note_on_c, 0, 79, 88
4, 9178, Note_off_c, 0, 79, 0
4, 9180, Note_on_c, 0, 78, 88
4, 9238, Note_off_c, 0, 78, 0
4, 9240, Note_on_c, 0, 76, 88
4, 9298, Note_off_c, 0, 76, 0
4, 9300, Note_on_c, 0, 79, 88
4, 9358, Note_off_c, 0, 79, 0
4, 9360, Note_on_c, 0, 78, 88
4, 9654, Note_off_c, 0, 78, 0
4, 9660, Note_on_c, 0, 76, 88
4, 9718, Note_off_c, 0, 76, 0
4, 9720, Note_on_c, 0, 74, 88
4, 9778, Note_off_c, 0, 74, 0
4, 9780, Note_on_c, 0, 73, 88
4, 9838, Note_off_c, 0, 73, 0
4, 9840, Note_on_c, 0, 74, 88
4, 9898, Note_off_c, 0, 74, 0
4, 9900, Note_on_c, 0, 76, 88
4, 9958, Note_off_c, 0, 76, 0
4, 9960, Note_on_c, 0, 73, 88
4, 10018, Note_off_c, 0, 73, 0
4, 10020, Note_on_c, 0, 74, 88
4, 10078, Note_off_c, 0, 74, 0
4, 10080, Note_on_c, 0, 76, 88
4, 10138, Note_off_c, 0, 76, 0
4, 10140, Note_on_c, 0, 74, 88
4, 10198, Note_off_c, 0, 74, 0
4, 10200, Note_on_c, 0, 73, 88
4, 10258, Note_off_c, 0, 73, 0
4, 10260, Note_on_c, 0, 71, 88
4, 10318, Note_off_c, 0, 71, 0
4, 10320, Note_on_c, 0, 69, 88
4, 10378, Note_off_c, 0, 69, 0
4, 10380, Note_on_c, 0, 68, 88
4, 10438, Note_off_c, 0, 68, 0
4, 10440, Note_on_c, 0, 76, 88
4, 10498, Note_off_c, 0, 76, 0
4, 10500, Note_on_c, 0, 74, 88
4, 10558, Note_off_c, 0, 74, 0
4, 10560, Note_on_c, 0, 73, 88
4, 10618, Note_off_c, 0, 73, 0
4, 10620, Note_on_c, 0, 71, 88
4, 10678, Note_off_c, 0, 71, 0
4, 10680, Note_on_c, 0, 69, 88
4, 10738, Note_off_c, 0, 69, 0
4, 10740, Note_on_c, 0, 67, 88
4, 10798, Note_off_c, 0, 67, 0
4, 10800, Note_on_c, 0, 66, 88
4, 10916, Note_off_c, 0, 66, 0
4, 10920, Note_on_c, 0, 62, 88
4, 11036, Note_off_c, 0, 62, 0
4, 11040, Note_on_c, 0, 66, 88
4, 11156, Note_off_c, 0, 66, 0
4, 11160, Note_on_c, 0, 69, 88
4, 11276, Note_off_c, 0, 69, 0
4, 11280, Note_on_c, 0, 74, 88
4, 11396, Note_off_c, 0, 74, 0
4, 11400, Note_on_c, 0, 66, 88
4, 11516, Note_off_c, 0, 66, 0
4, 11520, Note_on_c, 0, 74, 88
4, 11578, Note_off_c, 0, 74, 0
4, 11580, Note_on_c, 0, 72, 88
4, 11638, Note_off_c, 0, 72, 0
4, 11640, Note_on_c, 0, 71, 88
4, 11698, Note_off_c, 0, 71, 0
4, 11700, Note_on_c, 0, 69, 88
4, 11758, Note_off_c, 0, 69, 0
4, 11760, Note_on_c, 0, 67, 88
4, 11818, Note_off_c, 0, 67, 0
4, 11820, Note_on_c, 0, 66, 88
4, 11878, Note_off_c, 0, 66, 0
4, 11880, Note_on_c, 0, 74, 88
4, 11938, Note_off_c, 0, 74, 0
4, 11940, Note_on_c, 0, 72, 88
4, 11998, Note_off_c, 0, 72, 0
4, 12000, Note_on_c, 0, 71, 88
4, 12058, Note_off_c, 0, 71, 0
4, 12060, Note_on_c, 0, 69, 88
4, 12118, Note_off_c, 0, 69, 0
4, 12120, Note_on_c, 0, 67, 88
4, 12178, Note_off_c, 0, 67, 0
4, 12180, Note_on_c, 0, 65, 88
4, 12238, Note_off_c, 0, 65, 0
4, 12240, Note_on_c, 0, 64, 88
4, 12356, Note_off_c, 0, 64, 0
4, 12360, Note_on_c, 0, 60, 88
4, 12476, Note_off_c, 0, 60, 0
4, 12480, Note_on_c, 0, 64, 88
4, 12596, Note_off_c, 0, 64, 0
4, 12600, Note_on_c, 0, 67, 88
4, 12716, Note_off_c, 0, 67, 0
4, 12720, Note_on_c, 0, 72, 88
4, 12836, Note_off_c, 0, 72, 0
4, 12840, Note_on_c, 0, 64, 88
4, 12956, Note_off_c, 0, 64, 0
4, 12960, Note_on_c, 0, 76, 88
4, 13018, Note_off_c, 0, 76, 0
4, 13020, Note_on_c, 0, 74, 88
4, 13078, Note_off_c, 0, 74, 0
4, 13080, Note_on_c, 0, 72, 88
4, 13138, Note_off_c, 0, 72, 0
4, 13140, Note_on_c, 0, 71, 88
4, 13198, Note_off_c, 0, 71, 0
4, 13200, Note_on_c, 0, 69, 88
4, 13258, Note_off_c, 0, 69, 0
4, 13260, Note_on_c, 0, 68, 88
4, 13318, Note_off_c, 0, 68, 0
4, 13320, Note_on_c, 0, 76, 88
4, 13378, Note_off_c, 0, 76, 0
4, 13380, Note_on_c, 0, 74, 88
4, 13438, Note_off_c, 0, 74, 0
4, 13440, Note_on_c, 0, 72, 88
4, 13498, Note_off_c, 0, 72, 0
4, 13500, Note_on_c, 0, 71, 88
4, 13558, Note_off_c, 0, 71, 0
4, 13560, Note_on_c, 0, 69, 88
4, 13618, Note_off_c, 0, 69, 0
4, 13620, Note_on_c, 0, 68, 88
4, 13678, Note_off_c, 0, 68, 0
4, 13680, Note_on_c, 0, 69, 88
4, 13738, Note_off_c, 0, 69, 0
4, 13740, Note_on_c, 0, 72, 88
4, 13798, Note_off_c, 0, 72, 0
4, 13800, Note_on_c, 0, 76, 88
4, 13858, Note_off_c, 0, 76, 0
4, 13860, Note_on_c, 0, 81, 88
4, 13918, Note_off_c, 0, 81, 0
4, 13980, Note_on_c, 0, 76, 88
4, 14038, Note_off_c, 0, 76, 0
4, 14040, Note_on_c, 0, 77, 88
4, 14098, Note_off_c, 0, 77, 0
4, 14100, Note_on_c, 0, 76, 88
4, 14158, Note_off_c, 0, 76, 0
4, 14160, Note_on_c, 0, 74, 88
4, 14218, Note_off_c, 0, 74, 0
4, 14220, Note_on_c, 0, 72, 88
4, 14278, Note_off_c, 0, 72, 0
4, 14280, Note_on_c, 0, 71, 88
4, 14338, Note_off_c, 0, 71, 0
4, 14340, Note_on_c, 0, 74, 88
4, 14398, Note_off_c, 0, 74, 0
4, 14400, Note_on_c, 0, 72, 88
4, 14694, Note_off_c, 0, 72, 0
4, 14700, Note_on_c, 0, 71, 88
4, 14758, Note_off_c, 0, 71, 0
4, 14760, Note_on_c, 0, 69, 88
4, 14818, Note_off_c, 0, 69, 0
4, 14820, Note_on_c, 0, 68, 88
4, 14878, Note_off_c, 0, 68, 0
4, 14880, Note_on_c, 0, 69, 88
4, 14938, Note_off_c, 0, 69, 0
4, 14940, Note_on_c, 0, 66, 88
4, 14998, Note_off_c, 0, 66, 0
4, 15000, Note_on_c, 0, 63, 88
4, 15058, Note_off_c, 0, 63, 0
4, 15060, Note_on_c, 0, 71, 88
4, 15118, Note_off_c, 0, 71, 0
4, 15120, Note_on_c, 0, 64, 88
4, 15178, Note_off_c, 0, 64, 0
4, 15180, Note_on_c, 0, 67, 88
4, 15238, Note_off_c, 0, 67, 0
4, 15240, Note_on_c, 0, 71, 88
4, 15298, Note_off_c, 0, 71, 0
4, 15300, Note_on_c, 0, 76, 88
4, 15358, Note_off_c, 0, 76, 0
4, 15360, Note_on_c, 0, 75, 88
4, 15418, Note_off_c, 0, 75, 0
4, 15420, Note_on_c, 0, 76, 88
4, 15478, Note_off_c, 0, 76, 0
4, 15480, Note_on_c, 0, 74, 88
4, 15538, Note_off_c, 0, 74, 0
4, 15540, Note_on_c, 0, 76, 88
4, 15598, Note_off_c, 0, 76, 0
4, 15600, Note_on_c, 0, 73, 88
4, 15658, Note_off_c, 0, 73, 0
4, 15660, Note_on_c, 0, 76, 88
4, 15718, Note_off_c, 0, 76, 0
4, 15720, Note_on_c, 0, 72, 88
4, 15778, Note_off_c, 0, 72, 0
4, 15780, Note_on_c, 0, 76, 88
4, 15838, Note_off_c, 0, 76, 0
4, 15840, Note_on_c, 0, 71, 88
4, 15898, Note_off_c, 0, 71, 0
4, 15900, Note_on_c, 0, 76, 88
4, 15958, Note_off_c, 0, 76, 0
4, 15960, Note_on_c, 0, 75, 88
4, 16018, Note_off_c, 0, 75, 0
4, 16020, Note_on_c, 0, 76, 88
4, 16078, Note_off_c, 0, 76, 0
4, 16080, Note_on_c, 0, 70, 88
4, 16138, Note_off_c, 0, 70, 0
4, 16140, Note_on_c, 0, 73, 88
4, 16198, Note_off_c, 0, 73, 0
4, 16200, Note_on_c, 0, 67, 88
4, 16258, Note_off_c, 0, 67, 0
4, 16260, Note_on_c, 0, 66, 88
4, 16318, Note_off_c, 0, 66, 0
4, 16320, Note_on_c, 0, 67, 88
4, 16378, Note_off_c, 0, 67, 0
4, 16380, Note_on_c, 0, 70, 88
4, 16438, Note_off_c, 0, 70, 0
4, 16440, Note_on_c, 0, 66, 88
4, 16498, Note_off_c, 0, 66, 0
4, 16500, Note_on_c, 0, 64, 88
4, 16558, Note_off_c, 0, 64, 0
4, 16560, Note_on_c, 0, 63, 88
4, 16676, Note_off_c, 0, 63, 0
4, 16680, Note_on_c, 0, 71, 88
4, 16796, Note_off_c, 0, 71, 0
4, 16860, Note_on_c, 0, 83, 88
4, 16918, Note_off_c, 0, 83, 0
4, 16920, Note_on_c, 0, 84, 88
4, 16978, Note_off_c, 0, 84, 0
4, 16980, Note_on_c, 0, 83, 88
4, 17038, Note_off_c, 0, 83, 0
4, 17040, Note_on_c, 0, 81, 88
4, 17098, Note_off_c, 0, 81, 0
4, 17100, Note_on_c, 0, 79, 88
4, 17158, Note_off_c, 0, 79, 0
4, 17160, Note_on_c, 0, 78, 88
4, 17218, Note_off_c, 0, 78, 0
4, 17220, Note_on_c, 0, 81, 88
4, 17278, Note_off_c, 0, 81, 0
4, 17280, Note_on_c, 0, 79, 88
4, 17574, Note_off_c, 0, 79, 0
4, 17580, Note_on_c, 0, 78, 88
4, 17638, Note_off_c, 0, 78, 0
4, 17640, Note_on_c, 0, 76, 88
4, 17698, Note_off_c, 0, 76, 0
4, 17700, Note_on_c, 0, 75, 88
4, 17758, Note_off_c, 0, 75, 0
4, 17760, Note_on_c, 0, 76, 88
4, 17818, Note_off_c, 0, 76, 0
4, 17820, Note_on_c, 0, 78, 88
4, 17878, Note_off_c, 0, 78, 0
4, 17880, Note_on_c, 0, 74, 88
4, 17938, Note_off_c, 0, 74, 0
4, 17940, Note_on_c, 0, 76, 88
4, 17998, Note_off_c, 0, 76, 0
4, 18000, Note_on_c, 0, 73, 88
4, 18116, Note_off_c, 0, 73, 0
4, 18120, Note_on_c, 0, 81, 88
4, 18236, Note_off_c, 0, 81, 0
4, 18300, Note_on_c, 0, 81, 88
4, 18358, Note_off_c, 0, 81, 0
4, 18360, Note_on_c, 0, 82, 88
4, 18418, Note_off_c, 0, 82, 0
4, 18420, Note_on_c, 0, 81, 88
4, 18478, Note_off_c, 0, 81, 0
4, 18480, Note_on_c, 0, 79, 88
4, 18538, Note_off_c, 0, 79, 0
4, 18540, Note_on_c, 0, 77, 88
4, 18598, Note_off_c, 0, 77, 0
4, 18600, Note_on_c, 0, 76, 88
4, 18658, Note_off_c, 0, 76, 0
4, 18660, Note_on_c, 0, 79, 88
4, 18718, Note_off_c, 0, 79, 0
4, 18720, Note_on_c, 0, 77, 88
4, 19014, Note_off_c, 0, 77, 0
4, 19020, Note_on_c, 0, 76, 88
4, 19078, Note_off_c, 0, 76, 0
4, 19080, Note_on_c, 0, 74, 88
4, 19138, Note_off_c, 0, 74, 0
4, 19140, Note_on_c, 0, 73, 88
4, 19198, Note_off_c, 0, 73, 0
4, 19200, Note_on_c, 0, 74, 88
4, 19258, Note_off_c, 0, 74, 0
4, 19260, Note_on_c, 0, 76, 88
4, 19318, Note_off_c, 0, 76, 0
4, 19320, Note_on_c, 0, 72, 88
4, 19378, Note_off_c, 0, 72, 0
4, 19380, Note_on_c, 0, 74, 88
4, 19438, Note_off_c, 0, 74, 0
4, 19440, Note_on_c, 0, 71, 88
4, 19556, Note_off_c, 0, 71, 0
4, 19560, Note_on_c, 0, 79, 88
4, 19676, Note_off_c, 0, 79, 0
4, 19740, Note_on_c, 0, 69, 88
4, 19798, Note_off_c, 0, 69, 0
4, 19800, Note_on_c, 0, 71, 88
4, 19858, Note_off_c, 0, 71, 0
4, 19860, Note_on_c, 0, 72, 88
4, 19918, Note_off_c, 0, 72, 0
4, 19920, Note_on_c, 0, 74, 88
4, 19978, Note_off_c, 0, 74, 0
4, 19980, Note_on_c, 0, 76, 88
4, 20038, Note_off_c, 0, 76, 0
4, 20040, Note_on_c, 0, 77, 88
4, 20098, Note_off_c, 0, 77, 0
4, 20100, Note_on_c, 0, 74, 88
4, 20158, Note_off_c, 0, 74, 0
4, 20160, Note_on_c, 0, 76, 88
4, 20218, Note_off_c, 0, 76, 0
4, 20220, Note_on_c, 0, 74, 88
4, 20278, Note_off_c, 0, 74, 0
4, 20280, Note_on_c, 0, 79, 88
4, 20338, Note_off_c, 0, 79, 0
4, 20340, Note_on_c, 0, 77, 88
4, 20398, Note_off_c, 0, 77, 0
4, 20400, Note_on_c, 0, 76, 88
4, 20458, Note_off_c, 0, 76, 0
4, 20460, Note_on_c, 0, 74, 88
4, 20518, Note_off_c, 0, 74, 0
4, 20520, Note_on_c, 0, 73, 88
4, 20578, Note_off_c, 0, 73, 0
4, 20580, Note_on_c, 0, 70, 88
4, 20638, Note_off_c, 0, 70, 0
4, 20640, Note_on_c, 0, 69, 88
4, 20698, Note_off_c, 0, 69, 0
4, 20700, Note_on_c, 0, 70, 88
4, 20758, Note_off_c, 0, 70, 0
4, 20760, Note_on_c, 0, 67, 88
4, 20818, Note_off_c, 0, 67, 0
4, 20820, Note_on_c, 0, 69, 88
4, 20878, Note_off_c, 0, 69, 0
4, 20880, Note_on_c, 0, 65, 88
4, 20996, Note_off_c, 0, 65, 0
4, 21000, Note_on_c, 0, 74, 88
4, 21116, Note_off_c, 0, 74, 0
4, 21180, Note_on_c, 0, 81, 88
4, 21238, Note_off_c, 0, 81, 0
4, 21240, Note_on_c, 0, 82, 88
4, 21298, Note_off_c, 0, 82, 0
4, 21300, Note_on_c, 0, 81, 88
4, 21358, Note_off_c, 0, 81, 0
4, 21360, Note_on_c, 0, 79, 88
4, 21418, Note_off_c, 0, 79, 0
4, 21420, Note_on_c, 0, 77, 88
4, 21478, Note_off_c, 0, 77, 0
4, 21480, Note_on_c, 0, 76, 88
4, 21538, Note_off_c, 0, 76, 0
4, 21540, Note_on_c, 0, 79, 88
4, 21598, Note_off_c, 0, 79, 0
4, 21600, Note_on_c, 0, 77, 88
4, 21894, Note_off_c, 0, 77, 0
4, 21900, Note_on_c, 0, 76, 88
4, 21958, Note_off_c, 0, 76, 0
4, 21960, Note_on_c, 0, 74, 88
4, 22018, Note_off_c, 0, 74, 0
4, 22020, Note_on_c, 0, 72, 88
4, 22078, Note_off_c, 0, 72, 0
4, 22080, Note_on_c, 0, 74, 88
4, 22138, Note_off_c, 0, 74, 0
4, 22140, Note_on_c, 0, 72, 88
4, 22198, Note_off_c, 0, 72, 0
4, 22200, Note_on_c, 0, 74, 88
4, 22258, Note_off_c, 0, 74, 0
4, 22260, Note_on_c, 0, 76, 88
4, 22318, Note_off_c, 0, 76, 0
4, 22320, Note_on_c, 0, 69, 88
4, 22378, Note_off_c, 0, 69, 0
4, 22380, Note_on_c, 0, 72, 88
4, 22438, Note_off_c, 0, 72, 0
4, 22440, Note_on_c, 0, 76, 88
4, 22498, Note_off_c, 0, 76, 0
4, 22500, Note_on_c, 0, 81, 88
4, 22558, Note_off_c, 0, 81, 0
4, 22560, Note_on_c, 0, 80, 88
4, 22618, Note_off_c, 0, 80, 0
4, 22620, Note_on_c, 0, 81, 88
4, 22678, Note_off_c, 0, 81, 0
4, 22680, Note_on_c, 0, 79, 88
4, 22738, Note_off_c, 0, 79, 0
4, 22740, Note_on_c, 0, 81, 88
4, 22798, Note_off_c, 0, 81, 0
4, 22800, Note_on_c, 0, 78, 88
4, 22858, Note_off_c, 0, 78, 0
4, 22860, Note_on_c, 0, 81, 88
4, 22918, Note_off_c, 0, 81, 0
4, 22920, Note_on_c, 0, 77, 88
4, 22978, Note_off_c, 0, 77, 0
4, 22980, Note_on_c, 0, 81, 88
4, 23038, Note_off_c, 0, 81, 0
4, 23040, Note_on_c, 0, 76, 88
4, 23098, Note_off_c, 0, 76, 0
4, 23100, Note_on_c, 0, 81, 88
4, 23158, Note_off_c, 0, 81, 0
4, 23160, Note_on_c, 0, 80, 88
4, 23218, Note_off_c, 0, 80, 0
4, 23220, Note_on_c, 0, 81, 88
4, 23278, Note_off_c, 0, 81, 0
4, 23280, Note_on_c, 0, 75, 88
4, 23338, Note_off_c, 0, 75, 0
4, 23340, Note_on_c, 0, 78, 88
4, 23398, Note_off_c, 0, 78, 0
4, 23400, Note_on_c, 0, 72, 88
4, 23458, Note_off_c, 0, 72, 0
4, 23460, Note_on_c, 0, 71, 88
4, 23518, Note_off_c, 0, 71, 0
4, 23520, Note_on_c, 0, 72, 88
4, 23578, Note_off_c, 0, 72, 0
4, 23580, Note_on_c, 0, 75, 88
4, 23638, Note_off_c, 0, 75, 0
4, 23640, Note_on_c, 0, 71, 88
4, 23698, Note_off_c, 0, 71, 0
4, 23700, Note_on_c, 0, 69, 88
4, 23758, Note_off_c, 0, 69, 0
4, 23760, Note_on_c, 0, 68, 88
4, 23876, Note_off_c, 0, 68, 0
4, 23880, Note_on_c, 0, 64, 88
4, 23996, Note_off_c, 0, 64, 0
4, 24000, Note_on_c, 0, 68, 88
4, 24116, Note_off_c, 0, 68, 0
4, 24120, Note_on_c, 0, 71, 88
4, 24236, Note_off_c, 0, 71, 0
4, 24240, Note_on_c, 0, 76, 88
4, 24356, Note_off_c, 0, 76, 0
4, 24360, Note_on_c, 0, 68, 88
4, 24476, Note_off_c, 0, 68, 0
4, 24480, Note_on_c, 0, 76, 88
4, 24538, Note_off_c, 0, 76, 0
4, 24540, Note_on_c, 0, 74, 88
4, 24598, Note_off_c, 0, 74, 0
4, 24600, Note_on_c, 0, 73, 88
4, 24658, Note_off_c, 0, 73, 0
4, 24660, Note_on_c, 0, 71, 88
4, 24718, Note_off_c, 0, 71, 0
4, 24720, Note_on_c, 0, 69, 88
4, 24778, Note_off_c, 0, 69, 0
4, 24780, Note_on_c, 0, 68, 88
4, 24838, Note_off_c, 0, 68, 0
4, 24840, Note_on_c, 0, 76, 88
4, 24898, Note_off_c, 0, 76, 0
4, 24900, Note_on_c, 0, 74, 88
4, 24958, Note_off_c, 0, 74, 0
4, 24960, Note_on_c, 0, 73, 88
4, 25018, Note_off_c, 0, 73, 0
4, 25020, Note_on_c, 0, 71, 88
4, 25078, Note_off_c, 0, 71, 0
4, 25080, Note_on_c, 0, 69, 88
4, 25138, Note_off_c, 0, 69, 0
4, 25140, Note_on_c, 0, 67, 88
4, 25198, Note_off_c, 0, 67, 0
4, 25200, Note_on_c, 0, 66, 88
4, 25316, Note_off_c, 0, 66, 0
4, 25320, Note_on_c, 0, 62, 88
4, 25436, Note_off_c, 0, 62, 0
4, 25440, Note_on_c, 0, 66, 88
4, 25556, Note_off_c, 0, 66, 0
4, 25560, Note_on_c, 0, 69, 88
4, 25676, Note_off_c, 0, 69, 0
4, 25680, Note_on_c, 0, 74, 88
4, 25796, Note_off_c, 0, 74, 0
4, 25800, Note_on_c, 0, 66, 88
4, 25916, Note_off_c, 0, 66, 0
4, 25920, Note_on_c, 0, 74, 88
4, 25978, Note_off_c, 0, 74, 0
4, 25980, Note_on_c, 0, 72, 88
4, 26038, Note_off_c, 0, 72, 0
4, 26040, Note_on_c, 0, 71, 88
4, 26098, Note_off_c, 0, 71, 0
4, 26100, Note_on_c, 0, 69, 88
4, 26158, Note_off_c, 0, 69, 0
4, 26160, Note_on_c, 0, 67, 88
4, 26218, Note_off_c, 0, 67, 0
4, 26220, Note_on_c, 0, 66, 88
4, 26278, Note_off_c, 0, 66, 0
4, 26280, Note_on_c, 0, 74, 88
4, 26338, Note_off_c, 0, 74, 0
4, 26340, Note_on_c, 0, 72, 88
4, 26398, Note_off_c, 0, 72, 0
4, 26400, Note_on_c, 0, 71, 88
4, 26458, Note_off_c, 0, 71, 0
4, 26460, Note_on_c, 0, 69, 88
4, 26518, Note_off_c, 0, 69, 0
4, 26520, Note_on_c, 0, 67, 88
4, 26578, Note_off_c, 0, 67, 0
4, 26580, Note_on_c, 0, 66, 88
4, 26638, Note_off_c, 0, 66, 0
4, 26640, Note_on_c, 0, 71, 88
4, 26698, Note_off_c, 0, 71, 0
4, 26700, Note_on_c, 0, 69, 88
4, 26758, Note_off_c, 0, 69, 0
4, 26760, Note_on_c, 0, 67, 88
4, 26818, Note_off_c, 0, 67, 0
4, 26820, Note_on_c, 0, 66, 88
4, 26878, Note_off_c, 0, 66, 0
4, 26880, Note_on_c, 0, 64, 88
4, 26938, Note_off_c, 0, 64, 0
4, 26940, Note_on_c, 0, 63, 88
4, 26998, Note_off_c, 0, 63, 0
4, 27000, Note_on_c, 0, 71, 88
4, 27058, Note_off_c, 0, 71, 0
4, 27060, Note_on_c, 0, 69, 88
4, 27118, Note_off_c, 0, 69, 0
4, 27120, Note_on_c, 0, 67, 88
4, 27178, Note_off_c, 0, 67, 0
4, 27180, Note_on_c, 0, 66, 88
4, 27238, Note_off_c, 0, 66, 0
4, 27240, Note_on_c, 0, 64, 88
4, 27298, Note_off_c, 0, 64, 0
4, 27300, Note_on_c, 0, 63, 88
4, 27358, Note_off_c, 0, 63, 0
4, 27360, Note_on_c, 0, 64, 88
4, 27418, Note_off_c, 0, 64, 0
4, 27420, Note_on_c, 0, 67, 88
4, 27478, Note_off_c, 0, 67, 0
4, 27480, Note_on_c, 0, 71, 88
4, 27538, Note_off_c, 0, 71, 0
4, 27540, Note_on_c, 0, 76, 88
4, 27598, Note_off_c, 0, 76, 0
4, 27600, Note_on_c, 0, 75, 88
4, 27658, Note_off_c, 0, 75, 0
4, 27660, Note_on_c, 0, 76, 88
4, 27718, Note_off_c, 0, 76, 0
4, 27720, Note_on_c, 0, 74, 88
4, 27778, Note_off_c, 0, 74, 0
4, 27780, Note_on_c, 0, 76, 88
4, 27838, Note_off_c, 0, 76, 0
4, 27840, Note_on_c, 0, 73, 88
4, 27898, Note_off_c, 0, 73, 0
4, 27900, Note_on_c, 0, 76, 88
4, 27958, Note_off_c, 0, 76, 0
4, 27960, Note_on_c, 0, 72, 88
4, 28018, Note_off_c, 0, 72, 0
4, 28020, Note_on_c, 0, 76, 88
4, 28078, Note_off_c, 0, 76, 0
4, 28080, Note_on_c, 0, 71, 88
4, 28138, Note_off_c, 0, 71, 0
4, 28140, Note_on_c, 0, 69, 88
4, 28198, Note_off_c, 0, 69, 0
4, 28200, Note_on_c, 0, 67, 88
4, 28258, Note_off_c, 0, 67, 0
4, 28260, Note_on_c, 0, 72, 88
4, 28318, Note_off_c, 0, 72, 0
4, 28320, Note_on_c, 0, 71, 88
4, 28378, Note_off_c, 0, 71, 0
4, 28380, Note_on_c, 0, 69, 88
4, 28438, Note_off_c, 0, 69, 0
4, 28440, Note_on_c, 0, 71, 88
4, 28498, Note_off_c, 0, 71, 0
4, 28500, Note_on_c, 0, 68, 88
4, 28558, Note_off_c, 0, 68, 0
4, 28560, Note_on_c, 0, 69, 88
4, 28618, Note_off_c, 0, 69, 0
4, 28620, Note_on_c, 0, 67, 88
4, 28678, Note_off_c, 0, 67, 0
4, 28680, Note_on_c, 0, 69, 88
4, 28738, Note_off_c, 0, 69, 0
4, 28740, Note_on_c, 0, 66, 88
4, 28798, Note_off_c, 0, 66, 0
4, 28800, Note_on_c, 0, 67, 88
4, 28858, Note_off_c, 0, 67, 0
4, 28860, Note_on_c, 0, 66, 88
4, 28918, Note_off_c, 0, 66, 0
4, 28920, Note_on_c, 0, 67, 88
4, 28978, Note_off_c, 0, 67, 0
4, 28980, Note_on_c, 0, 69, 88
4, 29038, Note_off_c, 0, 69, 0
4, 29040, Note_on_c, 0, 63, 88
4, 29098, Note_off_c, 0, 63, 0
4, 29100, Note_on_c, 0, 66, 88
4, 29158, Note_off_c, 0, 66, 0
4, 29160, Note_on_c, 0, 60, 88
4, 29218, Note_off_c, 0, 60, 0
4, 29220, Note_on_c, 0, 59, 88
4, 29278, Note_off_c, 0, 59, 0
4, 29280, Note_on_c, 0, 60, 88
4, 29338, Note_off_c, 0, 60, 0
4, 29340, Note_on_c, 0, 63, 88
4, 29398, Note_off_c, 0, 63, 0
4, 29400, Note_on_c, 0, 59, 88
4, 29458, Note_off_c, 0, 59, 0
4, 29460, Note_on_c, 0, 57, 88
4, 29518, Note_off_c, 0, 57, 0
4, 29520, Note_on_c, 0, 56, 88
4, 29549, Note_off_c, 0, 56, 0
4, 29550, Note_on_c, 0, 59, 88
4, 29579, Note_off_c, 0, 59, 0
4, 29580, Note_on_c, 0, 64, 88
4, 29638, Note_off_c, 0, 64, 0
4, 29638, End_track
5, 0, Start_track
5, 0, Title_t, "Track 2"
5, 0, Program_c, 1, 6
5, 1440, Note_on_c, 1, 47, 88
5, 1498, Note_off_c, 1, 47, 0
5, 1500, Note_on_c, 1, 50, 88
5, 1558, Note_off_c, 1, 50, 0
5, 1560, Note_on_c, 1, 54, 88
5, 1618, Note_off_c, 1, 54, 0
5, 1620, Note_on_c, 1, 59, 88
5, 1678, Note_off_c, 1, 59, 0
5, 1680, Note_on_c, 1, 58, 88
5, 1738, Note_off_c, 1, 58, 0
5, 1740, Note_on_c, 1, 59, 88
5, 1798, Note_off_c, 1, 59, 0
5, 1800, Note_on_c, 1, 57, 88
5, 1858, Note_off_c, 1, 57, 0
5, 1860, Note_on_c, 1, 59, 88
5, 1918, Note_off_c, 1, 59, 0
5, 1920, Note_on_c, 1, 56, 88
5, 1978, Note_off_c, 1, 56, 0
5, 1980, Note_on_c, 1, 59, 88
5, 2038, Note_off_c, 1, 59, 0
5, 2040, Note_on_c, 1, 55, 88
5, 2098, Note_off_c, 1, 55, 0
5, 2100, Note_on_c, 1, 59, 88
5, 2158, Note_off_c, 1, 59, 0
5, 2160, Note_on_c, 1, 54, 88
5, 2218, Note_off_c, 1, 54, 0
5, 2220, Note_on_c, 1, 59, 88
5, 2278, Note_off_c, 1, 59, 0
5, 2280, Note_on_c, 1, 58, 88
5, 2338, Note_off_c, 1, 58, 0
5, 2340, Note_on_c, 1, 59, 88
5, 2398, Note_off_c, 1, 59, 0
5, 2400, Note_on_c, 1, 53, 88
5, 2458, Note_off_c, 1, 53, 0
5, 2460, Note_on_c, 1, 56, 88
5, 2518, Note_off_c, 1, 56, 0
5, 2520, Note_on_c, 1, 50, 88
5, 2578, Note_off_c, 1, 50, 0
5, 2580, Note_on_c, 1, 49, 88
5, 2638, Note_off_c, 1, 49, 0
5, 2640, Note_on_c, 1, 50, 88
5, 2698, Note_off_c, 1, 50, 0
5, 2700, Note_on_c, 1, 53, 88
5, 2758, Note_off_c, 1, 53, 0
5, 2760, Note_on_c, 1, 49, 88
5, 2818, Note_off_c, 1, 49, 0
5, 2820, Note_on_c, 1, 47, 88
5, 2878, Note_off_c, 1, 47, 0
5, 2880, Note_on_c, 1, 46, 88
5, 2996, Note_off_c, 1, 46, 0
5, 3000, Note_on_c, 1, 54, 88
5, 3116, Note_off_c, 1, 54, 0
5, 3180, Note_on_c, 1, 66, 88
5, 3238, Note_off_c, 1, 66, 0
5, 3240, Note_on_c, 1, 67, 88
5, 3298, Note_off_c, 1, 67, 0
5, 3300, Note_on_c, 1, 66, 88
5, 3358, Note_off_c, 1, 66, 0
5, 3360, Note_on_c, 1, 64, 88
5, 3418, Note_off_c, 1, 64, 0
5, 3420, Note_on_c, 1, 62, 88
5, 3478, Note_off_c, 1, 62, 0
5, 3480, Note_on_c, 1, 61, 88
5, 3538, Note_off_c, 1, 61, 0
5, 3540, Note_on_c, 1, 64, 88
5, 3598, Note_off_c, 1, 64, 0
5, 3600, Note_on_c, 1, 62, 88
5, 3894, Note_off_c, 1, 62, 0
5, 3900, Note_on_c, 1, 61, 88
5, 3958, Note_off_c, 1, 61, 0
5, 3960, Note_on_c, 1, 59, 88
5, 4018, Note_off_c, 1, 59, 0
5, 4020, Note_on_c, 1, 58, 88
5, 4078, Note_off_c, 1, 58, 0
5, 4080, Note_on_c, 1, 59, 88
5, 4138, Note_off_c, 1, 59, 0
5, 4140, Note_on_c, 1, 61, 88
5, 4198, Note_off_c, 1, 61, 0
5, 4200, Note_on_c, 1, 57, 88
5, 4258, Note_off_c, 1, 57, 0
5, 4260, Note_on_c, 1, 59, 88
5, 4318, Note_off_c, 1, 59, 0
5, 4320, Note_on_c, 1, 44, 88
5, 4436, Note_off_c, 1, 44, 0
5, 4440, Note_on_c, 1, 52, 88
5, 4556, Note_off_c, 1, 52, 0
5, 4620, Note_on_c, 1, 64, 88
5, 4678, Note_off_c, 1, 64, 0
5, 4680, Note_on_c, 1, 65, 88
5, 4738, Note_off_c, 1, 65, 0
5, 4740, Note_on_c, 1, 64, 88
5, 4798, Note_off_c, 1, 64, 0
5, 4800, Note_on_c, 1, 62, 88
5, 4858, Note_off_c, 1, 62, 0
5, 4860, Note_on_c, 1, 60, 88
5, 4918, Note_off_c, 1, 60, 0
5, 4920, Note_on_c, 1, 59, 88
5, 4978, Note_off_c, 1, 59, 0
5, 4980, Note_on_c, 1, 62, 88
5, 5038, Note_off_c, 1, 62, 0
5, 5040, Note_on_c, 1, 60, 88
5, 5334, Note_off_c, 1, 60, 0
5, 5340, Note_on_c, 1, 59, 88
5, 5398, Note_off_c, 1, 59, 0
5, 5400, Note_on_c, 1, 57, 88
5, 5458, Note_off_c, 1, 57, 0
5, 5460, Note_on_c, 1, 56, 88
5, 5518, Note_off_c, 1, 56, 0
5, 5520, Note_on_c, 1, 57, 88
5, 5578, Note_off_c, 1, 57, 0
5, 5580, Note_on_c, 1, 59, 88
5, 5638, Note_off_c, 1, 59, 0
5, 5640, Note_on_c, 1, 55, 88
5, 5698, Note_off_c, 1, 55, 0
5, 5700, Note_on_c, 1, 57, 88
5, 5758, Note_off_c, 1, 57, 0
5, 5760, Note_on_c, 1, 42, 88
5, 5876, Note_off_c, 1, 42, 0
5, 5880, Note_on_c, 1, 50, 88
5, 5996, Note_off_c, 1, 50, 0
5, 6060, Note_on_c, 1, 52, 88
5, 6118, Note_off_c, 1, 52, 0
5, 6120, Note_on_c, 1, 54, 88
5, 6178, Note_off_c, 1, 54, 0
5, 6180, Note_on_c, 1, 55, 88
5, 6238, Note_off_c, 1, 55, 0
5, 6240, Note_on_c, 1, 57, 88
5, 6298, Note_off_c, 1, 57, 0
5, 6300, Note_on_c, 1, 59, 88
5, 6358, Note_off_c, 1, 59, 0
5, 6360, Note_on_c, 1, 60, 88
5, 6418, Note_off_c, 1, 60, 0
5, 6420, Note_on_c, 1, 57, 88
5, 6478, Note_off_c, 1, 57, 0
5, 6480, Note_on_c, 1, 59, 88
5, 6538, Note_off_c, 1, 59, 0
5, 6540, Note_on_c, 1, 57, 88
5, 6598, Note_off_c, 1, 57, 0
5, 6600, Note_on_c, 1, 60, 88
5, 6658, Note_off_c, 1, 60, 0
5, 6660, Note_on_c, 1, 59, 88
5, 6718, Note_off_c, 1, 59, 0
5, 6720, Note_on_c, 1, 57, 88
5, 6778, Note_off_c, 1, 57, 0
5, 6780, Note_on_c, 1, 55, 88
5, 6838, Note_off_c, 1, 55, 0
5, 6840, Note_on_c, 1, 54, 88
5, 6898, Note_off_c, 1, 54, 0
5, 6900, Note_on_c, 1, 52, 88
5, 6958, Note_off_c, 1, 52, 0
5, 6960, Note_on_c, 1, 50, 88
5, 7018, Note_off_c, 1, 50, 0
5, 7020, Note_on_c, 1, 52, 88
5, 7078, Note_off_c, 1, 52, 0
5, 7080, Note_on_c, 1, 48, 88
5, 7138, Note_off_c, 1, 48, 0
5, 7140, Note_on_c, 1, 50, 88
5, 7198, Note_off_c, 1, 50, 0
5, 7200, Note_on_c, 1, 47, 88
5, 7316, Note_off_c, 1, 47, 0
5, 7320, Note_on_c, 1, 55, 88
5, 7436, Note_off_c, 1, 55, 0
5, 7500, Note_on_c, 1, 62, 88
5, 7558, Note_off_c, 1, 62, 0
5, 7560, Note_on_c, 1, 64, 88
5, 7618, Note_off_c, 1, 64, 0
5, 7620, Note_on_c, 1, 62, 88
5, 7678, Note_off_c, 1, 62, 0
5, 7680, Note_on_c, 1, 60, 88
5, 7738, Note_off_c, 1, 60, 0
5, 7740, Note_on_c, 1, 59, 88
5, 7798, Note_off_c, 1, 59, 0
5, 7800, Note_on_c, 1, 57, 88
5, 7858, Note_off_c, 1, 57, 0
5, 7860, Note_on_c, 1, 60, 88
5, 7918, Note_off_c, 1, 60, 0
5, 7920, Note_on_c, 1, 59, 88
5, 8214, Note_off_c, 1, 59, 0
5, 8220, Note_on_c, 1, 57, 88
5, 8278, Note_off_c, 1, 57, 0
5, 8280, Note_on_c, 1, 55, 88
5, 8338, Note_off_c, 1, 55, 0
5, 8340, Note_on_c, 1, 54, 88
5, 8398, Note_off_c, 1, 54, 0
5, 8400, Note_on_c, 1, 55, 88
5, 8458, Note_off_c, 1, 55, 0
5, 8460, Note_on_c, 1, 54, 88
5, 8518, Note_off_c, 1, 54, 0
5, 8520, Note_on_c, 1, 55, 88
5, 8578, Note_off_c, 1, 55, 0
5, 8580, Note_on_c, 1, 57, 88
5, 8638, Note_off_c, 1, 57, 0
5, 8640, Note_on_c, 1, 50, 88
5, 8698, Note_off_c, 1, 50, 0
5, 8700, Note_on_c, 1, 54, 88
5, 8758, Note_off_c, 1, 54, 0
5, 8760, Note_on_c, 1, 57, 88
5, 8818, Note_off_c, 1, 57, 0
5, 8820, Note_on_c, 1, 62, 88
5, 8878, Note_off_c, 1, 62, 0
5, 8880, Note_on_c, 1, 61, 88
5, 8938, Note_off_c, 1, 61, 0
5, 8940, Note_on_c, 1, 62, 88
5, 8998, Note_off_c, 1, 62, 0
5, 9000, Note_on_c, 1, 60, 88
5, 9058, Note_off_c, 1, 60, 0
5, 9060, Note_on_c, 1, 62, 88
5, 9118, Note_off_c, 1, 62, 0
5, 9120, Note_on_c, 1, 59, 88
5, 9178, Note_off_c, 1, 59, 0
5, 9180, Note_on_c, 1, 62, 88
5, 9238, Note_off_c, 1, 62, 0
5, 9240, Note_on_c, 1, 58, 88
5, 9298, Note_off_c, 1, 58, 0
5, 9300, Note_on_c, 1, 62, 88
5, 9358, Note_off_c, 1, 62, 0
5, 9360, Note_on_c, 1, 57, 88
5, 9418, Note_off_c, 1, 57, 0
5, 9420, Note_on_c, 1, 62, 88
5, 9478, Note_off_c, 1, 62, 0
5, 9480, Note_on_c, 1, 61, 88
5, 9538, Note_off_c, 1, 61, 0
5, 9540, Note_on_c, 1, 62, 88
5, 9598, Note_off_c, 1, 62, 0
5, 9600, Note_on_c, 1, 56, 88
5, 9658, Note_off_c, 1, 56, 0
5, 9660, Note_on_c, 1, 59, 88
5, 9718, Note_off_c, 1, 59, 0
5, 9720, Note_on_c, 1, 53, 88
5, 9778, Note_off_c, 1, 53, 0
5, 9780, Note_on_c, 1, 52, 88
5, 9838, Note_off_c, 1, 52, 0
5, 9840, Note_on_c, 1, 53, 88
5, 9898, Note_off_c, 1, 53, 0
5, 9900, Note_on_c, 1, 56, 88
5, 9958, Note_off_c, 1, 56, 0
5, 9960, Note_on_c, 1, 52, 88
5, 10018, Note_off_c, 1, 52, 0
5, 10020, Note_on_c, 1, 50, 88
5, 10078, Note_off_c, 1, 50, 0
5, 10080, Note_on_c, 1, 49, 88
5, 10196, Note_off_c, 1, 49, 0
5, 10200, Note_on_c, 1, 45, 88
5, 10316, Note_off_c, 1, 45, 0
5, 10320, Note_on_c, 1, 49, 88
5, 10436, Note_off_c, 1, 49, 0
5, 10440, Note_on_c, 1, 52, 88
5, 10556, Note_off_c, 1, 52, 0
5, 10560, Note_on_c, 1, 57, 88
5, 10676, Note_off_c, 1, 57, 0
5, 10680, Note_on_c, 1, 49, 88
5, 10796, Note_off_c, 1, 49, 0
5, 10800, Note_on_c, 1, 57, 88
5, 10858, Note_off_c, 1, 57, 0
5, 10860, Note_on_c, 1, 55, 88
5, 10918, Note_off_c, 1, 55, 0
5, 10920, Note_on_c, 1, 54, 88
5, 10978, Note_off_c, 1, 54, 0
5, 10980, Note_on_c, 1, 52, 88
5, 11038, Note_off_c, 1, 52, 0
5, 11040, Note_on_c, 1, 50, 88
5, 11098, Note_off_c, 1, 50, 0
5, 11100, Note_on_c, 1, 49, 88
5, 11158, Note_off_c, 1, 49, 0
5, 11160, Note_on_c, 1, 57, 88
5, 11218, Note_off_c, 1, 57, 0
5, 11220, Note_on_c, 1, 55, 88
5, 11278, Note_off_c, 1, 55, 0
5, 11280, Note_on_c, 1, 54, 88
5, 11338, Note_off_c, 1, 54, 0
5, 11340, Note_on_c, 1, 52, 88
5, 11398, Note_off_c, 1, 52, 0
5, 11400, Note_on_c, 1, 50, 88
5, 11458, Note_off_c, 1, 50, 0
5, 11460, Note_on_c, 1, 48, 88
5, 11518, Note_off_c, 1, 48, 0
5, 11520, Note_on_c, 1, 47, 88
5, 11636, Note_off_c, 1, 47, 0
5, 11640, Note_on_c, 1, 43, 88
5, 11756, Note_off_c, 1, 43, 0
5, 11760, Note_on_c, 1, 47, 88
5, 11876, Note_off_c, 1, 47, 0
5, 11880, Note_on_c, 1, 50, 88
5, 11996, Note_off_c, 1, 50, 0
5, 12000, Note_on_c, 1, 55, 88
5, 12116, Note_off_c, 1, 55, 0
5, 12120, Note_on_c, 1, 47, 88
5, 12236, Note_off_c, 1, 47, 0
5, 12240, Note_on_c, 1, 55, 88
5, 12298, Note_off_c, 1, 55, 0
5, 12300, Note_on_c, 1, 53, 88
5, 12358, Note_off_c, 1, 53, 0
5, 12360, Note_on_c, 1, 52, 88
5, 12418, Note_off_c, 1, 52, 0
5, 12420, Note_on_c, 1, 50, 88
5, 12478, Note_off_c, 1, 50, 0
5, 12480, Note_on_c, 1, 48, 88
5, 12538, Note_off_c, 1, 48, 0
5, 12540, Note_on_c, 1, 47, 88
5, 12598, Note_off_c, 1, 47, 0
5, 12600, Note_on_c, 1, 55, 88
5, 12658, Note_off_c, 1, 55, 0
5, 12660, Note_on_c, 1, 53, 88
5, 12718, Note_off_c, 1, 53, 0
5, 12720, Note_on_c, 1, 52, 88
5, 12778, Note_off_c, 1, 52, 0
5, 12780, Note_on_c, 1, 50, 88
5, 12838, Note_off_c, 1, 50, 0
5, 12840, Note_on_c, 1, 48, 88
5, 12898, Note_off_c, 1, 48, 0
5, 12900, Note_on_c, 1, 47, 88
5, 12958, Note_off_c, 1, 47, 0
5, 12960, Note_on_c, 1, 52, 88
5, 13018, Note_off_c, 1, 52, 0
5, 13020, Note_on_c, 1, 50, 88
5, 13078, Note_off_c, 1, 50, 0
5, 13080, Note_on_c, 1, 48, 88
5, 13138, Note_off_c, 1, 48, 0
5, 13140, Note_on_c, 1, 47, 88
5, 13198, Note_off_c, 1, 47, 0
5, 13200, Note_on_c, 1, 45, 88
5, 13258, Note_off_c, 1, 45, 0
5, 13260, Note_on_c, 1, 44, 88
5, 13318, Note_off_c, 1, 44, 0
5, 13320, Note_on_c, 1, 52, 88
5, 13378, Note_off_c, 1, 52, 0
5, 13380, Note_on_c, 1, 50, 88
5, 13438, Note_off_c, 1, 50, 0
5, 13440, Note_on_c, 1, 48, 88
5, 13498, Note_off_c, 1, 48, 0
5, 13500, Note_on_c, 1, 47, 88
5, 13558, Note_off_c, 1, 47, 0
5, 13560, Note_on_c, 1, 45, 88
5, 13618, Note_off_c, 1, 45, 0
5, 13620, Note_on_c, 1, 44, 88
5, 13678, Note_off_c, 1, 44, 0
5, 13680, Note_on_c, 1, 45, 88
5, 13738, Note_off_c, 1, 45, 0
5, 13740, Note_on_c, 1, 48, 88
5, 13798, Note_off_c, 1, 48, 0
5, 13800, Note_on_c, 1, 52, 88
5, 13858, Note_off_c, 1, 52, 0
5, 13860, Note_on_c, 1, 57, 88
5, 13918, Note_off_c, 1, 57, 0
5, 13920, Note_on_c, 1, 56, 88
5, 13978, Note_off_c, 1, 56, 0
5, 13980, Note_on_c, 1, 57, 88
5, 14038, Note_off_c, 1, 57, 0
5, 14040, Note_on_c, 1, 55, 88
5, 14098, Note_off_c, 1, 55, 0
5, 14100, Note_on_c, 1, 57, 88
5, 14158, Note_off_c, 1, 57, 0
5, 14160, Note_on_c, 1, 54, 88
5, 14218, Note_off_c, 1, 54, 0
5, 14220, Note_on_c, 1, 57, 88
5, 14278, Note_off_c, 1, 57, 0
5, 14280, Note_on_c, 1, 53, 88
5, 14338, Note_off_c, 1, 53, 0
5, 14340, Note_on_c, 1, 57, 88
5, 14398, Note_off_c, 1, 57, 0
5, 14400, Note_on_c, 1, 52, 88
5, 14458, Note_off_c, 1, 52, 0
5, 14460, Note_on_c, 1, 57, 88
5, 14518, Note_off_c, 1, 57, 0
5, 14520, Note_on_c, 1, 56, 88
5, 14578, Note_off_c, 1, 56, 0
5, 14580, Note_on_c, 1, 57, 88
5, 14638, Note_off_c, 1, 57, 0
5, 14640, Note_on_c, 1, 51, 88
5, 14698, Note_off_c, 1, 51, 0
5, 14700, Note_on_c, 1, 54, 88
5, 14758, Note_off_c, 1, 54, 0
5, 14760, Note_on_c, 1, 48, 88
5, 14818, Note_off_c, 1, 48, 0
5, 14820, Note_on_c, 1, 47, 88
5, 14878, Note_off_c, 1, 47, 0
5, 14880, Note_on_c, 1, 48, 88
5, 14938, Note_off_c, 1, 48, 0
5, 14940, Note_on_c, 1, 51, 88
5, 14998, Note_off_c, 1, 51, 0
5, 15000, Note_on_c, 1, 47, 88
5, 15058, Note_off_c, 1, 47, 0
5, 15060, Note_on_c, 1, 45, 88
5, 15118, Note_off_c, 1, 45, 0
5, 15120, Note_on_c, 1, 43, 88
5, 15236, Note_off_c, 1, 43, 0
5, 15240, Note_on_c, 1, 52, 88
5, 15356, Note_off_c, 1, 52, 0
5, 15420, Note_on_c, 1, 59, 88
5, 15478, Note_off_c, 1, 59, 0
5, 15480, Note_on_c, 1, 60, 88
5, 15538, Note_off_c, 1, 60, 0
5, 15540, Note_on_c, 1, 59, 88
5, 15598, Note_off_c, 1, 59, 0
5, 15600, Note_on_c, 1, 57, 88
5, 15658, Note_off_c, 1, 57, 0
5, 15660, Note_on_c, 1, 55, 88
5, 15718, Note_off_c, 1, 55, 0
5, 15720, Note_on_c, 1, 54, 88
5, 15778, Note_off_c, 1, 54, 0
5, 15780, Note_on_c, 1, 57, 88
5, 15838, Note_off_c, 1, 57, 0
5, 15840, Note_on_c, 1, 55, 88
5, 16134, Note_off_c, 1, 55, 0
5, 16140, Note_on_c, 1, 54, 88
5, 16198, Note_off_c, 1, 54, 0
5, 16200, Note_on_c, 1, 52, 88
5, 16258, Note_off_c, 1, 52, 0
5, 16260, Note_on_c, 1, 51, 88
5, 16318, Note_off_c, 1, 51, 0
5, 16320, Note_on_c, 1, 52, 88
5, 16378, Note_off_c, 1, 52, 0
5, 16380, Note_on_c, 1, 54, 88
5, 16438, Note_off_c, 1, 54, 0
5, 16440, Note_on_c, 1, 51, 88
5, 16498, Note_off_c, 1, 51, 0
5, 16500, Note_on_c, 1, 52, 88
5, 16558, Note_off_c, 1, 52, 0
5, 16560, Note_on_c, 1, 54, 88
5, 16618, Note_off_c, 1, 54, 0
5, 16620, Note_on_c, 1, 47, 88
5, 16678, Note_off_c, 1, 47, 0
5, 16680, Note_on_c, 1, 51, 88
5, 16738, Note_off_c, 1, 51, 0
5, 16740, Note_on_c, 1, 54, 88
5, 16798, Note_off_c, 1, 54, 0
5, 16800, Note_on_c, 1, 57, 88
5, 16858, Note_off_c, 1, 57, 0
5, 16860, Note_on_c, 1, 51, 88
5, 16918, Note_off_c, 1, 51, 0
5, 16920, Note_on_c, 1, 54, 88
5, 16978, Note_off_c, 1, 54, 0
5, 16980, Note_on_c, 1, 57, 88
5, 17038, Note_off_c, 1, 57, 0
5, 17040, Note_on_c, 1, 60, 88
5, 17098, Note_off_c, 1, 60, 0
5, 17100, Note_on_c, 1, 59, 88
5, 17158, Note_off_c, 1, 59, 0
5, 17160, Note_on_c, 1, 57, 88
5, 17218, Note_off_c, 1, 57, 0
5, 17220, Note_on_c, 1, 60, 88
5, 17278, Note_off_c, 1, 60, 0
5, 17280, Note_on_c, 1, 59, 88
5, 17338, Note_off_c, 1, 59, 0
5, 17340, Note_on_c, 1, 57, 88
5, 17398, Note_off_c, 1, 57, 0
5, 17400, Note_on_c, 1, 55, 88
5, 17458, Note_off_c, 1, 55, 0
5, 17460, Note_on_c, 1, 54, 88
5, 17518, Note_off_c, 1, 54, 0
5, 17520, Note_on_c, 1, 52, 88
5, 17578, Note_off_c, 1, 52, 0
5, 17580, Note_on_c, 1, 51, 88
5, 17638, Note_off_c, 1, 51, 0
5, 17640, Note_on_c, 1, 49, 88
5, 17698, Note_off_c, 1, 49, 0
5, 17700, Note_on_c, 1, 47, 88
5, 17758, Note_off_c, 1, 47, 0
5, 17760, Note_on_c, 1, 55, 88
5, 18058, Note_off_c, 1, 55, 0
5, 18060, Note_on_c, 1, 45, 88
5, 18118, Note_off_c, 1, 45, 0
5, 18120, Note_on_c, 1, 49, 88
5, 18178, Note_off_c, 1, 49, 0
5, 18180, Note_on_c, 1, 52, 88
5, 18238, Note_off_c, 1, 52, 0
5, 18240, Note_on_c, 1, 55, 88
5, 18298, Note_off_c, 1, 55, 0
5, 18300, Note_on_c, 1, 49, 88
5, 18358, Note_off_c, 1, 49, 0
5, 18360, Note_on_c, 1, 52, 88
5, 18418, Note_off_c, 1, 52, 0
5, 18420, Note_on_c, 1, 55, 88
5, 18478, Note_off_c, 1, 55, 0
5, 18480, Note_on_c, 1, 58, 88
5, 18538, Note_off_c, 1, 58, 0
5, 18540, Note_on_c, 1, 57, 88
5, 18598, Note_off_c, 1, 57, 0
5, 18600, Note_on_c, 1, 55, 88
5, 18658, Note_off_c, 1, 55, 0
5, 18660, Note_on_c, 1, 58, 88
5, 18718, Note_off_c, 1, 58, 0
5, 18720, Note_on_c, 1, 57, 88
5, 18778, Note_off_c, 1, 57, 0
5, 18780, Note_on_c, 1, 55, 88
5, 18838, Note_off_c, 1, 55, 0
5, 18840, Note_on_c, 1, 53, 88
5, 18898, Note_off_c, 1, 53, 0
5, 18900, Note_on_c, 1, 52, 88
5, 18958, Note_off_c, 1, 52, 0
5, 18960, Note_on_c, 1, 50, 88
5, 19018, Note_off_c, 1, 50, 0
5, 19020, Note_on_c, 1, 49, 88
5, 19078, Note_off_c, 1, 49, 0
5, 19080, Note_on_c, 1, 47, 88
5, 19138, Note_off_c, 1, 47, 0
5, 19140, Note_on_c, 1, 45, 88
5, 19198, Note_off_c, 1, 45, 0
5, 19200, Note_on_c, 1, 53, 88
5, 19498, Note_off_c, 1, 53, 0
5, 19500, Note_on_c, 1, 50, 88
5, 19558, Note_off_c, 1, 50, 0
5, 19560, Note_on_c, 1, 43, 88
5, 19618, Note_off_c, 1, 43, 0
5, 19620, Note_on_c, 1, 45, 88
5, 19678, Note_off_c, 1, 45, 0
5, 19680, Note_on_c, 1, 47, 88
5, 19738, Note_off_c, 1, 47, 0
5, 19740, Note_on_c, 1, 48, 88
5, 19798, Note_off_c, 1, 48, 0
5, 19800, Note_on_c, 1, 50, 88
5, 19858, Note_off_c, 1, 50, 0
5, 19860, Note_on_c, 1, 52, 88
5, 19918, Note_off_c, 1, 52, 0
5, 19920, Note_on_c, 1, 53, 88
5, 19978, Note_off_c, 1, 53, 0
5, 19980, Note_on_c, 1, 55, 88
5, 20038, Note_off_c, 1, 55, 0
5, 20040, Note_on_c, 1, 57, 88
5, 20098, Note_off_c, 1, 57, 0
5, 20100, Note_on_c, 1, 59, 88
5, 20158, Note_off_c, 1, 59, 0
5, 20160, Note_on_c, 1, 60, 88
5, 20218, Note_off_c, 1, 60, 0
5, 20220, Note_on_c, 1, 59, 88
5, 20278, Note_off_c, 1, 59, 0
5, 20280, Note_on_c, 1, 64, 88
5, 20338, Note_off_c, 1, 64, 0
5, 20340, Note_on_c, 1, 62, 88
5, 20398, Note_off_c, 1, 62, 0
5, 20400, Note_on_c, 1, 61, 88
5, 20458, Note_off_c, 1, 61, 0
5, 20460, Note_on_c, 1, 58, 88
5, 20518, Note_off_c, 1, 58, 0
5, 20520, Note_on_c, 1, 57, 88
5, 20578, Note_off_c, 1, 57, 0
5, 20580, Note_on_c, 1, 55, 88
5, 20638, Note_off_c, 1, 55, 0
5, 20640, Note_on_c, 1, 53, 88
5, 20698, Note_off_c, 1, 53, 0
5, 20700, Note_on_c, 1, 62, 88
5, 20758, Note_off_c, 1, 62, 0
5, 20760, Note_on_c, 1, 52, 88
5, 20818, Note_off_c, 1, 52, 0
5, 20820, Note_on_c, 1, 61, 88
5, 20878, Note_off_c, 1, 61, 0
5, 20880, Note_on_c, 1, 50, 88
5, 20938, Note_off_c, 1, 50, 0
5, 20940, Note_on_c, 1, 53, 88
5, 20998, Note_off_c, 1, 53, 0
5, 21000, Note_on_c, 1, 57, 88
5, 21058, Note_off_c, 1, 57, 0
5, 21060, Note_on_c, 1, 62, 88
5, 21118, Note_off_c, 1, 62, 0
5, 21120, Note_on_c, 1, 61, 88
5, 21178, Note_off_c, 1, 61, 0
5, 21180, Note_on_c, 1, 62, 88
5, 21238, Note_off_c, 1, 62, 0
5, 21240, Note_on_c, 1, 60, 88
5, 21298, Note_off_c, 1, 60, 0
5, 21300, Note_on_c, 1, 62, 88
5, 21358, Note_off_c, 1, 62, 0
5, 21360, Note_on_c, 1, 59, 88
5, 21418, Note_off_c, 1, 59, 0
5, 21420, Note_on_c, 1, 62, 88
5, 21478, Note_off_c, 1, 62, 0
5, 21480, Note_on_c, 1, 58, 88
5, 21538, Note_off_c, 1, 58, 0
5, 21540, Note_on_c, 1, 62, 88
5, 21598, Note_off_c, 1, 62, 0
5, 21600, Note_on_c, 1, 57, 88
5, 21658, Note_off_c, 1, 57, 0
5, 21660, Note_on_c, 1, 62, 88
5, 21718, Note_off_c, 1, 62, 0
5, 21720, Note_on_c, 1, 61, 88
5, 21778, Note_off_c, 1, 61, 0
5, 21780, Note_on_c, 1, 62, 88
5, 21838, Note_off_c, 1, 62, 0
5, 21840, Note_on_c, 1, 56, 88
5, 21898, Note_off_c, 1, 56, 0
5, 21900, Note_on_c, 1, 59, 88
5, 21958, Note_off_c, 1, 59, 0
5, 21960, Note_on_c, 1, 53, 88
5, 22018, Note_off_c, 1, 53, 0
5, 22020, Note_on_c, 1, 52, 88
5, 22078, Note_off_c, 1, 52, 0
5, 22080, Note_on_c, 1, 53, 88
5, 22138, Note_off_c, 1, 53, 0
5, 22140, Note_on_c, 1, 56, 88
5, 22198, Note_off_c, 1, 56, 0
5, 22200, Note_on_c, 1, 52, 88
5, 22258, Note_off_c, 1, 52, 0
5, 22260, Note_on_c, 1, 50, 88
5, 22318, Note_off_c, 1, 50, 0
5, 22320, Note_on_c, 1, 48, 88
5, 22436, Note_off_c, 1, 48, 0
5, 22440, Note_on_c, 1, 57, 88
5, 22556, Note_off_c, 1, 57, 0
5, 22620, Note_on_c, 1, 64, 88
5, 22678, Note_off_c, 1, 64, 0
5, 22680, Note_on_c, 1, 65, 88
5, 22738, Note_off_c, 1, 65, 0
5, 22740, Note_on_c, 1, 64, 88
5, 22798, Note_off_c, 1, 64, 0
5, 22800, Note_on_c, 1, 62, 88
5, 22858, Note_off_c, 1, 62, 0
5, 22860, Note_on_c, 1, 60, 88
5, 22918, Note_off_c, 1, 60, 0
5, 22920, Note_on_c, 1, 59, 88
5, 22978, Note_off_c, 1, 59, 0
5, 22980, Note_on_c, 1, 62, 88
5, 23038, Note_off_c, 1, 62, 0
5, 23040, Note_on_c, 1, 60, 88
5, 23334, Note_off_c, 1, 60, 0
5, 23340, Note_on_c, 1, 59, 88
5, 23398, Note_off_c, 1, 59, 0
5, 23400, Note_on_c, 1, 57, 88
5, 23458, Note_off_c, 1, 57, 0
5, 23460, Note_on_c, 1, 56, 88
5, 23518, Note_off_c, 1, 56, 0
5, 23520, Note_on_c, 1, 57, 88
5, 23578, Note_off_c, 1, 57, 0
5, 23580, Note_on_c, 1, 54, 88
5, 23638, Note_off_c, 1, 54, 0
5, 23640, Note_on_c, 1, 51, 88
5, 23698, Note_off_c, 1, 51, 0
5, 23700, Note_on_c, 1, 54, 88
5, 23758, Note_off_c, 1, 54, 0
5, 23760, Note_on_c, 1, 59, 88
5, 23818, Note_off_c, 1, 59, 0
5, 23820, Note_on_c, 1, 57, 88
5, 23878, Note_off_c, 1, 57, 0
5, 23880, Note_on_c, 1, 56, 88
5, 23938, Note_off_c, 1, 56, 0
5, 23940, Note_on_c, 1, 54, 88
5, 23998, Note_off_c, 1, 54, 0
5, 24000, Note_on_c, 1, 52, 88
5, 24058, Note_off_c, 1, 52, 0
5, 24060, Note_on_c, 1, 51, 88
5, 24118, Note_off_c, 1, 51, 0
5, 24120, Note_on_c, 1, 59, 88
5, 24178, Note_off_c, 1, 59, 0
5, 24180, Note_on_c, 1, 57, 88
5, 24238, Note_off_c, 1, 57, 0
5, 24240, Note_on_c, 1, 56, 88
5, 24298, Note_off_c, 1, 56, 0
5, 24300, Note_on_c, 1, 54, 88
5, 24358, Note_off_c, 1, 54, 0
5, 24360, Note_on_c, 1, 52, 88
5, 24418, Note_off_c, 1, 52, 0
5, 24420, Note_on_c, 1, 50, 88
5, 24478, Note_off_c, 1, 50, 0
5, 24480, Note_on_c, 1, 49, 88
5, 24596, Note_off_c, 1, 49, 0
5, 24600, Note_on_c, 1, 45, 88
5, 24716, Note_off_c, 1, 45, 0
5, 24720, Note_on_c, 1, 49, 88
5, 24836, Note_off_c, 1, 49, 0
5, 24840, Note_on_c, 1, 52, 88
5, 24956, Note_off_c, 1, 52, 0
5, 24960, Note_on_c, 1, 57, 88
5, 25076, Note_off_c, 1, 57, 0
5, 25080, Note_on_c, 1, 49, 88
5, 25196, Note_off_c, 1, 49, 0
5, 25200, Note_on_c, 1, 57, 88
5, 25258, Note_off_c, 1, 57, 0
5, 25260, Note_on_c, 1, 55, 88
5, 25318, Note_off_c, 1, 55, 0
5, 25320, Note_on_c, 1, 54, 88
5, 25378, Note_off_c, 1, 54, 0
5, 25380, Note_on_c, 1, 52, 88
5, 25438, Note_off_c, 1, 52, 0
5, 25440, Note_on_c, 1, 50, 88
5, 25498, Note_off_c, 1, 50, 0
5, 25500, Note_on_c, 1, 49, 88
5, 25558, Note_off_c, 1, 49, 0
5, 25560, Note_on_c, 1, 57, 88
5, 25618, Note_off_c, 1, 57, 0
5, 25620, Note_on_c, 1, 55, 88
5, 25678, Note_off_c, 1, 55, 0
5, 25680, Note_on_c, 1, 54, 88
5, 25738, Note_off_c, 1, 54, 0
5, 25740, Note_on_c, 1, 52, 88
5, 25798, Note_off_c, 1, 52, 0
5, 25800, Note_on_c, 1, 50, 88
5, 25858, Note_off_c, 1, 50, 0
5, 25860, Note_on_c, 1, 48, 88
5, 25918, Note_off_c, 1, 48, 0
5, 25920, Note_on_c, 1, 47, 88
5, 26036, Note_off_c, 1, 47, 0
5, 26040, Note_on_c, 1, 43, 88
5, 26156, Note_off_c, 1, 43, 0
5, 26160, Note_on_c, 1, 47, 88
5, 26276, Note_off_c, 1, 47, 0
5, 26280, Note_on_c, 1, 50, 88
5, 26396, Note_off_c, 1, 50, 0
5, 26400, Note_on_c, 1, 55, 88
5, 26516, Note_off_c, 1, 55, 0
5, 26520, Note_on_c, 1, 47, 88
5, 26636, Note_off_c, 1, 47, 0
5, 26640, Note_on_c, 1, 59, 88
5, 26698, Note_off_c, 1, 59, 0
5, 26700, Note_on_c, 1, 57, 88
5, 26758, Note_off_c, 1, 57, 0
5, 26760, Note_on_c, 1, 55, 88
5, 26818, Note_off_c, 1, 55, 0
5, 26820, Note_on_c, 1, 54, 88
5, 26878, Note_off_c, 1, 54, 0
5, 26880, Note_on_c, 1, 52, 88
5, 26938, Note_off_c, 1, 52, 0
5, 26940, Note_on_c, 1, 51, 88
5, 26998, Note_off_c, 1, 51, 0
5, 27000, Note_on_c, 1, 59, 88
5, 27058, Note_off_c, 1, 59, 0
5, 27060, Note_on_c, 1, 57, 88
5, 27118, Note_off_c, 1, 57, 0
5, 27120, Note_on_c, 1, 55, 88
5, 27178, Note_off_c, 1, 55, 0
5, 27180, Note_on_c, 1, 54, 88
5, 27238, Note_off_c, 1, 54, 0
5, 27240, Note_on_c, 1, 52, 88
5, 27298, Note_off_c, 1, 52, 0
5, 27300, Note_on_c, 1, 51, 88
5, 27358, Note_off_c, 1, 51, 0
5, 27360, Note_on_c, 1, 52, 88
5, 27418, Note_off_c, 1, 52, 0
5, 27420, Note_on_c, 1, 47, 88
5, 27478, Note_off_c, 1, 47, 0
5, 27480, Note_on_c, 1, 43, 88
5, 27538, Note_off_c, 1, 43, 0
5, 27540, Note_on_c, 1, 40, 88
5, 27598, Note_off_c, 1, 40, 0
5, 27660, Note_on_c, 1, 59, 88
5, 27718, Note_off_c, 1, 59, 0
5, 27720, Note_on_c, 1, 60, 88
5, 27778, Note_off_c, 1, 60, 0
5, 27780, Note_on_c, 1, 59, 88
5, 27838, Note_off_c, 1, 59, 0
5, 27840, Note_on_c, 1, 57, 88
5, 27898, Note_off_c, 1, 57, 0
5, 27900, Note_on_c, 1, 55, 88
5, 27958, Note_off_c, 1, 55, 0
5, 27960, Note_on_c, 1, 57, 88
5, 28018, Note_off_c, 1, 57, 0
5, 28020, Note_on_c, 1, 54, 88
5, 28078, Note_off_c, 1, 54, 0
5, 28080, Note_on_c, 1, 55, 88
5, 28138, Note_off_c, 1, 55, 0
5, 28140, Note_on_c, 1, 54, 88
5, 28198, Note_off_c, 1, 54, 0
5, 28200, Note_on_c, 1, 52, 88
5, 28258, Note_off_c, 1, 52, 0
5, 28260, Note_on_c, 1, 64, 88
5, 28318, Note_off_c, 1, 64, 0
5, 28320, Note_on_c, 1, 63, 88
5, 28378, Note_off_c, 1, 63, 0
5, 28380, Note_on_c, 1, 64, 88
5, 28438, Note_off_c, 1, 64, 0
5, 28440, Note_on_c, 1, 62, 88
5, 28498, Note_off_c, 1, 62, 0
5, 28500, Note_on_c, 1, 64, 88
5, 28558, Note_off_c, 1, 64, 0
5, 28560, Note_on_c, 1, 61, 88
5, 28618, Note_off_c, 1, 61, 0
5, 28620, Note_on_c, 1, 64, 88
5, 28678, Note_off_c, 1, 64, 0
5, 28680, Note_on_c, 1, 60, 88
5, 28738, Note_off_c, 1, 60, 0
5, 28740, Note_on_c, 1, 64, 88
5, 28798, Note_off_c, 1, 64, 0
5, 28800, Note_on_c, 1, 59, 88
5, 28916, Note_off_c, 1, 59, 0
5, 28920, Note_on_c, 1, 57, 88
5, 29036, Note_off_c, 1, 57, 0
5, 29040, Note_on_c, 1, 59, 88
5, 29156, Note_off_c, 1, 59, 0
5, 29280, Note_on_c, 1, 47, 88
5, 29396, Note_off_c, 1, 47, 0
5, 29520, Note_on_c, 1, 40, 88
5, 29636, Note_off_c, 1, 40, 0
5, 29636, End_track
0, 0, End_of_file
