0, 0, Header, 1, 6, 240
1, 0, Start_track
1, 0, Time_signature, 4, 2, 24, 8
1, 0, Tempo, 789473
1, 0, SMPTE_offset, 64, 0, 0, 0, 93
1, 0, End_track
2, 0, Start_track
2, 0, Title_t, "(C) & (P) 1993"
2, 127, End_track
3, 0, Start_track
3, 0, Title_t, "CCARH,Stanford"
3, 0, End_track
4, 0, Start_track
4, 0, Title_t, "Track 1"
4, 0, Program_c, 0, 6
4, 2040, Note_on_c, 0, 79, 88
4, 2098, Note_off_c, 0, 79, 0
4, 2100, Note_on_c, 0, 78, 88
4, 2158, Note_off_c, 0, 78, 0
4, 2160, Note_on_c, 0, 79, 88
4, 2276, Note_off_c, 0, 79, 0
4, 2280, Note_on_c, 0, 72, 88
4, 2396, Note_off_c, 0, 72, 0
4, 2400, Note_on_c, 0, 75, 88
4, 2516, Note_off_c, 0, 75, 0
4, 2520, Note_on_c, 0, 79, 88
4, 2578, Note_off_c, 0, 79, 0
4, 2580, Note_on_c, 0, 78, 88
4, 2638, Note_off_c, 0, 78, 0
4, 2640, Note_on_c, 0, 79, 88
4, 2756, Note_off_c, 0, 79, 0
4, 2760, Note_on_c, 0, 81, 88
4, 2876, Note_off_c, 0, 81, 0
4, 2880, Note_on_c, 0, 74, 88
4, 2996, Note_off_c, 0, 74, 0
4, 3000, Note_on_c, 0, 79, 88
4, 3058, Note_off_c, 0, 79, 0
4, 3060, Note_on_c, 0, 78, 88
4, 3118, Note_off_c, 0, 78, 0
4, 3120, Note_on_c, 0, 79, 88
4, 3236, Note_off_c, 0, 79, 0
4, 3240, Note_on_c, 0, 81, 88
4, 3356, Note_off_c, 0, 81, 0
4, 3360, Note_on_c, 0, 72, 88
4, 3418, Note_off_c, 0, 72, 0
4, 3420, Note_on_c, 0, 74, 88
4, 3478, Note_off_c, 0, 74, 0
4, 3480, Note_on_c, 0, 75, 88
4, 3714, Note_off_c, 0, 75, 0
4, 3720, Note_on_c, 0, 74, 88
4, 3778, Note_off_c, 0, 74, 0
4, 3780, Note_on_c, 0, 72, 88
4, 3838, Note_off_c, 0, 72, 0
4, 3840, Note_on_c, 0, 70, 88
4, 3956, Note_off_c, 0, 70, 0
4, 3960, Note_on_c, 0, 75, 88
4, 4018, Note_off_c, 0, 75, 0
4, 4020, Note_on_c, 0, 74, 88
4, 4078, Note_off_c, 0, 74, 0
4, 4080, Note_on_c, 0, 75, 88
4, 4196, Note_off_c, 0, 75, 0
4, 4200, Note_on_c, 0, 67, 88
4, 4316, Note_off_c, 0, 67, 0
4, 4320, Note_on_c, 0, 68, 88
4, 4436, Note_off_c, 0, 68, 0
4, 4440, Note_on_c, 0, 77, 88
4, 4498, Note_off_c, 0, 77, 0
4, 4500, Note_on_c, 0, 75, 88
4, 4558, Note_off_c, 0, 75, 0
4, 4560, Note_on_c, 0, 77, 88
4, 4676, Note_off_c, 0, 77, 0
4, 4680, Note_on_c, 0, 69, 88
4, 4796, Note_off_c, 0, 69, 0
4, 4800, Note_on_c, 0, 70, 88
4, 4916, Note_off_c, 0, 70, 0
4, 4920, Note_on_c, 0, 79, 88
4, 4978, Note_off_c, 0, 79, 0
4, 4980, Note_on_c, 0, 77, 88
4, 5038, Note_off_c, 0, 77, 0
4, 5040, Note_on_c, 0, 79, 88
4, 5156, Note_off_c, 0, 79, 0
4, 5160, Note_on_c, 0, 71, 88
4, 5276, Note_off_c, 0, 71, 0
4, 5280, Note_on_c, 0, 72, 88
4, 5396, Note_off_c, 0, 72, 0
4, 5400, Note_on_c, 0, 74, 88
4, 5458, Note_off_c, 0, 74, 0
4, 5460, Note_on_c, 0, 75, 88
4, 5518, Note_off_c, 0, 75, 0
4, 5520, Note_on_c, 0, 77, 88
4, 5876, Note_off_c, 0, 77, 0
4, 5880, Note_on_c, 0, 75, 88
4, 5938, Note_off_c, 0, 75, 0
4, 5940, Note_on_c, 0, 74, 88
4, 5998, Note_off_c, 0, 74, 0
4, 6000, Note_on_c, 0, 72, 88
4, 6058, Note_off_c, 0, 72, 0
4, 6060, Note_on_c, 0, 70, 88
4, 6118, Note_off_c, 0, 70, 0
4, 6120, Note_on_c, 0, 68, 88
4, 6178, Note_off_c, 0, 68, 0
4, 6180, Note_on_c, 0, 67, 88
4, 6238, Note_off_c, 0, 67, 0
4, 6240, Note_on_c, 0, 65, 88
4, 6356, Note_off_c, 0, 65, 0
4, 6360, Note_on_c, 0, 80, 88
4, 6476, Note_off_c, 0, 80, 0
4, 6480, Note_on_c, 0, 79, 88
4, 6596, Note_off_c, 0, 79, 0
4, 6600, Note_on_c, 0, 77, 88
4, 6716, Note_off_c, 0, 77, 0
4, 6720, Note_on_c, 0, 75, 88
4, 6836, Note_off_c, 0, 75, 0
4, 6840, Note_on_c, 0, 74, 88
4, 6956, Note_off_c, 0, 74, 0
4, 6960, Note_on_c, 0, 75, 88
4, 7076, Note_off_c, 0, 75, 0
4, 7080, Note_on_c, 0, 77, 88
4, 7196, Note_off_c, 0, 77, 0
4, 7200, Note_on_c, 0, 71, 88
4, 7316, Note_off_c, 0, 71, 0
4, 7320, Note_on_c, 0, 72, 88
4, 7436, Note_off_c, 0, 72, 0
4, 7440, Note_on_c, 0, 74, 88
4, 7556, Note_off_c, 0, 74, 0
4, 7560, Note_on_c, 0, 71, 88
4, 7676, Note_off_c, 0, 71, 0
4, 7680, Note_on_c, 0, 72, 88
4, 7796, Note_off_c, 0, 72, 0
4, 7800, Note_on_c, 0, 79, 88
4, 7858, Note_off_c, 0, 79, 0
4, 7860, Note_on_c, 0, 78, 88
4, 7918, Note_off_c, 0, 78, 0
4, 7920, Note_on_c, 0, 79, 88
4, 8036, Note_off_c, 0, 79, 0
4, 8040, Note_on_c, 0, 74, 88
4, 8156, Note_off_c, 0, 74, 0
4, 8160, Note_on_c, 0, 75, 88
4, 8394, Note_off_c, 0, 75, 0
4, 8520, Note_on_c, 0, 76, 88
4, 8636, Note_off_c, 0, 76, 0
4, 8640, Note_on_c, 0, 77, 88
4, 8741, Note_off_c, 0, 77, 0
4, 8760, Note_on_c, 0, 77, 88
4, 8818, Note_off_c, 0, 77, 0
4, 8820, Note_on_c, 0, 76, 88
4, 8878, Note_off_c, 0, 76, 0
4, 8880, Note_on_c, 0, 77, 88
4, 8996, Note_off_c, 0, 77, 0
4, 9000, Note_on_c, 0, 72, 88
4, 9116, Note_off_c, 0, 72, 0
4, 9120, Note_on_c, 0, 74, 88
4, 9354, Note_off_c, 0, 74, 0
4, 9480, Note_on_c, 0, 74, 88
4, 9596, Note_off_c, 0, 74, 0
4, 9600, Note_on_c, 0, 75, 88
4, 9701, Note_off_c, 0, 75, 0
4, 9720, Note_on_c, 0, 75, 88
4, 9778, Note_off_c, 0, 75, 0
4, 9780, Note_on_c, 0, 74, 88
4, 9838, Note_off_c, 0, 74, 0
4, 9840, Note_on_c, 0, 75, 88
4, 9956, Note_off_c, 0, 75, 0
4, 9960, Note_on_c, 0, 70, 88
4, 10076, Note_off_c, 0, 70, 0
4, 10080, Note_on_c, 0, 72, 88
4, 10196, Note_off_c, 0, 72, 0
4, 10200, Note_on_c, 0, 75, 88
4, 10258, Note_off_c, 0, 75, 0
4, 10260, Note_on_c, 0, 74, 88
4, 10318, Note_off_c, 0, 74, 0
4, 10320, Note_on_c, 0, 75, 88
4, 10436, Note_off_c, 0, 75, 0
4, 10440, Note_on_c, 0, 77, 88
4, 10556, Note_off_c, 0, 77, 0
4, 10560, Note_on_c, 0, 70, 88
4, 10676, Note_off_c, 0, 70, 0
4, 10680, Note_on_c, 0, 75, 88
4, 10738, Note_off_c, 0, 75, 0
4, 10740, Note_on_c, 0, 74, 88
4, 10798, Note_off_c, 0, 74, 0
4, 10800, Note_on_c, 0, 75, 88
4, 10916, Note_off_c, 0, 75, 0
4, 10920, Note_on_c, 0, 77, 88
4, 11036, Note_off_c, 0, 77, 0
4, 11040, Note_on_c, 0, 68, 88
4, 11098, Note_off_c, 0, 68, 0
4, 11100, Note_on_c, 0, 70, 88
4, 11158, Note_off_c, 0, 70, 0
4, 11160, Note_on_c, 0, 72, 88
4, 11394, Note_off_c, 0, 72, 0
4, 11400, Note_on_c, 0, 70, 88
4, 11458, Note_off_c, 0, 70, 0
4, 11460, Note_on_c, 0, 68, 88
4, 11518, Note_off_c, 0, 68, 0
4, 11520, Note_on_c, 0, 67, 88
4, 11578, Note_off_c, 0, 67, 0
4, 11580, Note_on_c, 0, 63, 88
4, 11638, Note_off_c, 0, 63, 0
4, 11640, Note_on_c, 0, 65, 88
4, 11698, Note_off_c, 0, 65, 0
4, 11700, Note_on_c, 0, 67, 88
4, 11758, Note_off_c, 0, 67, 0
4, 11760, Note_on_c, 0, 68, 88
4, 11818, Note_off_c, 0, 68, 0
4, 11820, Note_on_c, 0, 70, 88
4, 11878, Note_off_c, 0, 70, 0
4, 11880, Note_on_c, 0, 72, 88
4, 11938, Note_off_c, 0, 72, 0
4, 11940, Note_on_c, 0, 74, 88
4, 11998, Note_off_c, 0, 74, 0
4, 12000, Note_on_c, 0, 75, 88
4, 12058, Note_off_c, 0, 75, 0
4, 12060, Note_on_c, 0, 74, 88
4, 12118, Note_off_c, 0, 74, 0
4, 12120, Note_on_c, 0, 72, 88
4, 12178, Note_off_c, 0, 72, 0
4, 12180, Note_on_c, 0, 74, 88
4, 12238, Note_off_c, 0, 74, 0
4, 12240, Note_on_c, 0, 75, 88
4, 12298, Note_off_c, 0, 75, 0
4, 12300, Note_on_c, 0, 77, 88
4, 12358, Note_off_c, 0, 77, 0
4, 12360, Note_on_c, 0, 79, 88
4, 12418, Note_off_c, 0, 79, 0
4, 12420, Note_on_c, 0, 81, 88
4, 12478, Note_off_c, 0, 81, 0
4, 12480, Note_on_c, 0, 82, 88
4, 12538, Note_off_c, 0, 82, 0
4, 12540, Note_on_c, 0, 65, 88
4, 12598, Note_off_c, 0, 65, 0
4, 12600, Note_on_c, 0, 67, 88
4, 12658, Note_off_c, 0, 67, 0
4, 12660, Note_on_c, 0, 68, 88
4, 12718, Note_off_c, 0, 68, 0
4, 12720, Note_on_c, 0, 70, 88
4, 12778, Note_off_c, 0, 70, 0
4, 12780, Note_on_c, 0, 72, 88
4, 12838, Note_off_c, 0, 72, 0
4, 12840, Note_on_c, 0, 74, 88
4, 12898, Note_off_c, 0, 74, 0
4, 12900, Note_on_c, 0, 76, 88
4, 12958, Note_off_c, 0, 76, 0
4, 12960, Note_on_c, 0, 77, 88
4, 13018, Note_off_c, 0, 77, 0
4, 13020, Note_on_c, 0, 75, 88
4, 13078, Note_off_c, 0, 75, 0
4, 13080, Note_on_c, 0, 74, 88
4, 13138, Note_off_c, 0, 74, 0
4, 13140, Note_on_c, 0, 75, 88
4, 13198, Note_off_c, 0, 75, 0
4, 13200, Note_on_c, 0, 77, 88
4, 13258, Note_off_c, 0, 77, 0
4, 13260, Note_on_c, 0, 79, 88
4, 13318, Note_off_c, 0, 79, 0
4, 13320, Note_on_c, 0, 81, 88
4, 13378, Note_off_c, 0, 81, 0
4, 13380, Note_on_c, 0, 83, 88
4, 13438, Note_off_c, 0, 83, 0
4, 13440, Note_on_c, 0, 84, 88
4, 13556, Note_off_c, 0, 84, 0
4, 13560, Note_on_c, 0, 83, 88
4, 13618, Note_off_c, 0, 83, 0
4, 13620, Note_on_c, 0, 81, 88
4, 13678, Note_off_c, 0, 81, 0
4, 13680, Note_on_c, 0, 79, 88
4, 13738, Note_off_c, 0, 79, 0
4, 13740, Note_on_c, 0, 77, 88
4, 13798, Note_off_c, 0, 77, 0
4, 13800, Note_on_c, 0, 75, 88
4, 13858, Note_off_c, 0, 75, 0
4, 13860, Note_on_c, 0, 74, 88
4, 13918, Note_off_c, 0, 74, 0
4, 13920, Note_on_c, 0, 72, 88
4, 14036, Note_off_c, 0, 72, 0
4, 14040, Note_on_c, 0, 75, 88
4, 14156, Note_off_c, 0, 75, 0
4, 14160, Note_on_c, 0, 74, 88
4, 14276, Note_off_c, 0, 74, 0
4, 14280, Note_on_c, 0, 72, 88
4, 14396, Note_off_c, 0, 72, 0
4, 14400, Note_on_c, 0, 70, 88
4, 14516, Note_off_c, 0, 70, 0
4, 14520, Note_on_c, 0, 69, 88
4, 14636, Note_off_c, 0, 69, 0
4, 14640, Note_on_c, 0, 70, 88
4, 14756, Note_off_c, 0, 70, 0
4, 14760, Note_on_c, 0, 72, 88
4, 14876, Note_off_c, 0, 72, 0
4, 14880, Note_on_c, 0, 66, 88
4, 14996, Note_off_c, 0, 66, 0
4, 15000, Note_on_c, 0, 67, 88
4, 15116, Note_off_c, 0, 67, 0
4, 15120, Note_on_c, 0, 69, 88
4, 15236, Note_off_c, 0, 69, 0
4, 15240, Note_on_c, 0, 66, 88
4, 15356, Note_off_c, 0, 66, 0
4, 15360, Note_on_c, 0, 67, 88
4, 15476, Note_off_c, 0, 67, 0
4, 15480, Note_on_c, 0, 74, 88
4, 15538, Note_off_c, 0, 74, 0
4, 15540, Note_on_c, 0, 72, 88
4, 15598, Note_off_c, 0, 72, 0
4, 15600, Note_on_c, 0, 74, 88
4, 15716, Note_off_c, 0, 74, 0
4, 15960, Note_on_c, 0, 76, 88
4, 16018, Note_off_c, 0, 76, 0
4, 16020, Note_on_c, 0, 74, 88
4, 16078, Note_off_c, 0, 74, 0
4, 16080, Note_on_c, 0, 76, 88
4, 16196, Note_off_c, 0, 76, 0
4, 16440, Note_on_c, 0, 78, 88
4, 16498, Note_off_c, 0, 78, 0
4, 16500, Note_on_c, 0, 76, 88
4, 16558, Note_off_c, 0, 76, 0
4, 16560, Note_on_c, 0, 78, 88
4, 16676, Note_off_c, 0, 78, 0
4, 16920, Note_on_c, 0, 67, 88
4, 16978, Note_off_c, 0, 67, 0
4, 16980, Note_on_c, 0, 65, 88
4, 17038, Note_off_c, 0, 65, 0
4, 17040, Note_on_c, 0, 67, 88
4, 17156, Note_off_c, 0, 67, 0
4, 17400, Note_on_c, 0, 69, 88
4, 17458, Note_off_c, 0, 69, 0
4, 17460, Note_on_c, 0, 67, 88
4, 17518, Note_off_c, 0, 67, 0
4, 17520, Note_on_c, 0, 69, 88
4, 17636, Note_off_c, 0, 69, 0
4, 17880, Note_on_c, 0, 71, 88
4, 17938, Note_off_c, 0, 71, 0
4, 17940, Note_on_c, 0, 69, 88
4, 17998, Note_off_c, 0, 69, 0
4, 18000, Note_on_c, 0, 71, 88
4, 18116, Note_off_c, 0, 71, 0
4, 18360, Note_on_c, 0, 72, 88
4, 18418, Note_off_c, 0, 72, 0
4, 18420, Note_on_c, 0, 71, 88
4, 18478, Note_off_c, 0, 71, 0
4, 18480, Note_on_c, 0, 72, 88
4, 18596, Note_off_c, 0, 72, 0
4, 18600, Note_on_c, 0, 67, 88
4, 18716, Note_off_c, 0, 67, 0
4, 18720, Note_on_c, 0, 68, 88
4, 18836, Note_off_c, 0, 68, 0
4, 18840, Note_on_c, 0, 72, 88
4, 18898, Note_off_c, 0, 72, 0
4, 18900, Note_on_c, 0, 71, 88
4, 18958, Note_off_c, 0, 71, 0
4, 18960, Note_on_c, 0, 72, 88
4, 19076, Note_off_c, 0, 72, 0
4, 19080, Note_on_c, 0, 74, 88
4, 19196, Note_off_c, 0, 74, 0
4, 19200, Note_on_c, 0, 67, 88
4, 19316, Note_off_c, 0, 67, 0
4, 19320, Note_on_c, 0, 72, 88
4, 19378, Note_off_c, 0, 72, 0
4, 19380, Note_on_c, 0, 71, 88
4, 19438, Note_off_c, 0, 71, 0
4, 19440, Note_on_c, 0, 72, 88
4, 19556, Note_off_c, 0, 72, 0
4, 19560, Note_on_c, 0, 74, 88
4, 19676, Note_off_c, 0, 74, 0
4, 19680, Note_on_c, 0, 65, 88
4, 19738, Note_off_c, 0, 65, 0
4, 19740, Note_on_c, 0, 67, 88
4, 19798, Note_off_c, 0, 67, 0
4, 19800, Note_on_c, 0, 68, 88
4, 20034, Note_off_c, 0, 68, 0
4, 20040, Note_on_c, 0, 67, 88
4, 20098, Note_off_c, 0, 67, 0
4, 20100, Note_on_c, 0, 65, 88
4, 20158, Note_off_c, 0, 65, 0
4, 20160, Note_on_c, 0, 63, 88
4, 20276, Note_off_c, 0, 63, 0
4, 20280, Note_on_c, 0, 72, 88
4, 20338, Note_off_c, 0, 72, 0
4, 20340, Note_on_c, 0, 71, 88
4, 20398, Note_off_c, 0, 71, 0
4, 20400, Note_on_c, 0, 72, 88
4, 20516, Note_off_c, 0, 72, 0
4, 20520, Note_on_c, 0, 67, 88
4, 20636, Note_off_c, 0, 67, 0
4, 20640, Note_on_c, 0, 68, 88
4, 20874, Note_off_c, 0, 68, 0
4, 21000, Note_on_c, 0, 69, 88
4, 21116, Note_off_c, 0, 69, 0
4, 21120, Note_on_c, 0, 70, 88
4, 21221, Note_off_c, 0, 70, 0
4, 21240, Note_on_c, 0, 70, 88
4, 21298, Note_off_c, 0, 70, 0
4, 21300, Note_on_c, 0, 69, 88
4, 21358, Note_off_c, 0, 69, 0
4, 21360, Note_on_c, 0, 70, 88
4, 21476, Note_off_c, 0, 70, 0
4, 21480, Note_on_c, 0, 65, 88
4, 21596, Note_off_c, 0, 65, 0
4, 21600, Note_on_c, 0, 67, 88
4, 21834, Note_off_c, 0, 67, 0
4, 21960, Note_on_c, 0, 67, 88
4, 22196, Note_off_c, 0, 67, 0
4, 22200, Note_on_c, 0, 68, 88
4, 22258, Note_off_c, 0, 68, 0
4, 22260, Note_on_c, 0, 70, 88
4, 22318, Note_off_c, 0, 70, 0
4, 22320, Note_on_c, 0, 72, 88
4, 22378, Note_off_c, 0, 72, 0
4, 22380, Note_on_c, 0, 71, 88
4, 22438, Note_off_c, 0, 71, 0
4, 22440, Note_on_c, 0, 72, 88
4, 22498, Note_off_c, 0, 72, 0
4, 22500, Note_on_c, 0, 68, 88
4, 22558, Note_off_c, 0, 68, 0
4, 22560, Note_on_c, 0, 65, 88
4, 23156, Note_off_c, 0, 65, 0
4, 23160, Note_on_c, 0, 74, 88
4, 23218, Note_off_c, 0, 74, 0
4, 23220, Note_on_c, 0, 72, 88
4, 23278, Note_off_c, 0, 72, 0
4, 23280, Note_on_c, 0, 74, 88
4, 23396, Note_off_c, 0, 74, 0
4, 23400, Note_on_c, 0, 65, 88
4, 23516, Note_off_c, 0, 65, 0
4, 23520, Note_on_c, 0, 63, 88
4, 23636, Note_off_c, 0, 63, 0
4, 23640, Note_on_c, 0, 75, 88
4, 23698, Note_off_c, 0, 75, 0
4, 23700, Note_on_c, 0, 74, 88
4, 23758, Note_off_c, 0, 74, 0
4, 23760, Note_on_c, 0, 75, 88
4, 23876, Note_off_c, 0, 75, 0
4, 23880, Note_on_c, 0, 67, 88
4, 23996, Note_off_c, 0, 67, 0
4, 24000, Note_on_c, 0, 65, 88
4, 24116, Note_off_c, 0, 65, 0
4, 24120, Note_on_c, 0, 77, 88
4, 24178, Note_off_c, 0, 77, 0
4, 24180, Note_on_c, 0, 75, 88
4, 24238, Note_off_c, 0, 75, 0
4, 24240, Note_on_c, 0, 77, 88
4, 24356, Note_off_c, 0, 77, 0
4, 24360, Note_on_c, 0, 68, 88
4, 24476, Note_off_c, 0, 68, 0
4, 24480, Note_on_c, 0, 67, 88
4, 24538, Note_off_c, 0, 67, 0
4, 24540, Note_on_c, 0, 77, 88
4, 24598, Note_off_c, 0, 77, 0
4, 24600, Note_on_c, 0, 75, 88
4, 24658, Note_off_c, 0, 75, 0
4, 24660, Note_on_c, 0, 74, 88
4, 24718, Note_off_c, 0, 74, 0
4, 24720, Note_on_c, 0, 72, 88
4, 24778, Note_off_c, 0, 72, 0
4, 24780, Note_on_c, 0, 71, 88
4, 24838, Note_off_c, 0, 71, 0
4, 24840, Note_on_c, 0, 69, 88
4, 24898, Note_off_c, 0, 69, 0
4, 24900, Note_on_c, 0, 67, 88
4, 24958, Note_off_c, 0, 67, 0
4, 24960, Note_on_c, 0, 72, 88
4, 25076, Note_off_c, 0, 72, 0
4, 25080, Note_on_c, 0, 77, 88
4, 25196, Note_off_c, 0, 77, 0
4, 25200, Note_on_c, 0, 75, 88
4, 25316, Note_off_c, 0, 75, 0
4, 25320, Note_on_c, 0, 74, 88
4, 25436, Note_off_c, 0, 74, 0
4, 25560, Note_on_c, 0, 68, 88
4, 25676, Note_off_c, 0, 68, 0
4, 25680, Note_on_c, 0, 67, 88
4, 25796, Note_off_c, 0, 67, 0
4, 25800, Note_on_c, 0, 65, 88
4, 25916, Note_off_c, 0, 65, 0
4, 25920, Note_on_c, 0, 67, 88
4, 26036, Note_off_c, 0, 67, 0
4, 26040, Note_on_c, 0, 65, 88
4, 26098, Note_off_c, 0, 65, 0
4, 26100, Note_on_c, 0, 63, 88
4, 26158, Note_off_c, 0, 63, 0
4, 26160, Note_on_c, 0, 65, 88
4, 26276, Note_off_c, 0, 65, 0
4, 26280, Note_on_c, 0, 62, 88
4, 26396, Note_off_c, 0, 62, 0
4, 26400, Note_on_c, 0, 68, 88
4, 26516, Note_off_c, 0, 68, 0
4, 26520, Note_on_c, 0, 67, 88
4, 26636, Note_off_c, 0, 67, 0
4, 26760, Note_on_c, 0, 69, 88
4, 26876, Note_off_c, 0, 69, 0
4, 26880, Note_on_c, 0, 71, 88
4, 26996, Note_off_c, 0, 71, 0
4, 27000, Note_on_c, 0, 72, 88
4, 27116, Note_off_c, 0, 72, 0
4, 27120, Note_on_c, 0, 65, 88
4, 27178, Note_off_c, 0, 65, 0
4, 27180, Note_on_c, 0, 63, 88
4, 27238, Note_off_c, 0, 63, 0
4, 27240, Note_on_c, 0, 62, 88
4, 27298, Note_off_c, 0, 62, 0
4, 27300, Note_on_c, 0, 60, 88
4, 27341, Note_off_c, 0, 60, 0
4, 27360, Note_on_c, 0, 60, 88
4, 27476, Note_off_c, 0, 60, 0
4, 27480, Note_on_c, 0, 72, 88
4, 27538, Note_off_c, 0, 72, 0
4, 27540, Note_on_c, 0, 71, 88
4, 27598, Note_off_c, 0, 71, 0
4, 27600, Note_on_c, 0, 72, 88
4, 27716, Note_off_c, 0, 72, 0
4, 27720, Note_on_c, 0, 67, 88
4, 27836, Note_off_c, 0, 67, 0
4, 27840, Note_on_c, 0, 68, 88
4, 27956, Note_off_c, 0, 68, 0
4, 27960, Note_on_c, 0, 72, 88
4, 28018, Note_off_c, 0, 72, 0
4, 28020, Note_on_c, 0, 71, 88
4, 28078, Note_off_c, 0, 71, 0
4, 28080, Note_on_c, 0, 72, 88
4, 28196, Note_off_c, 0, 72, 0
4, 28200, Note_on_c, 0, 68, 88
4, 28200, Note_on_c, 0, 71, 88
4, 28200, Note_on_c, 0, 74, 88
4, 28316, Note_off_c, 0, 68, 0
4, 28316, Note_off_c, 0, 71, 0
4, 28316, Note_off_c, 0, 74, 0
4, 28320, Note_on_c, 0, 67, 88
4, 28436, Note_off_c, 0, 67, 0
4, 28440, Note_on_c, 0, 72, 88
4, 28498, Note_off_c, 0, 72, 0
4, 28500, Note_on_c, 0, 71, 88
4, 28558, Note_off_c, 0, 71, 0
4, 28560, Note_on_c, 0, 72, 88
4, 28676, Note_off_c, 0, 72, 0
4, 28680, Note_on_c, 0, 74, 88
4, 28796, Note_off_c, 0, 74, 0
4, 28800, Note_on_c, 0, 65, 88
4, 28858, Note_off_c, 0, 65, 0
4, 28860, Note_on_c, 0, 67, 88
4, 28918, Note_off_c, 0, 67, 0
4, 28920, Note_on_c, 0, 68, 88
4, 29154, Note_off_c, 0, 68, 0
4, 29160, Note_on_c, 0, 67, 88
4, 29218, Note_off_c, 0, 67, 0
4, 29220, Note_on_c, 0, 65, 88
4, 29278, Note_off_c, 0, 65, 0
4, 29280, Note_on_c, 0, 64, 88
4, 29750, Note_off_c, 0, 64, 0
4, 29750, End_track
5, 0, Start_track
5, 0, Title_t, "Track 2"
5, 0, Program_c, 1, 6
5, 120, Note_on_c, 1, 72, 88
5, 178, Note_off_c, 1, 72, 0
5, 180, Note_on_c, 1, 71, 88
5, 238, Note_off_c, 1, 71, 0
5, 240, Note_on_c, 1, 72, 88
5, 356, Note_off_c, 1, 72, 0
5, 360, Note_on_c, 1, 67, 88
5, 476, Note_off_c, 1, 67, 0
5, 480, Note_on_c, 1, 68, 88
5, 596, Note_off_c, 1, 68, 0
5, 600, Note_on_c, 1, 72, 88
5, 658, Note_off_c, 1, 72, 0
5, 660, Note_on_c, 1, 71, 88
5, 718, Note_off_c, 1, 71, 0
5, 720, Note_on_c, 1, 72, 88
5, 836, Note_off_c, 1, 72, 0
5, 840, Note_on_c, 1, 74, 88
5, 956, Note_off_c, 1, 74, 0
5, 960, Note_on_c, 1, 67, 88
5, 1076, Note_off_c, 1, 67, 0
5, 1080, Note_on_c, 1, 72, 88
5, 1138, Note_off_c, 1, 72, 0
5, 1140, Note_on_c, 1, 71, 88
5, 1198, Note_off_c, 1, 71, 0
5, 1200, Note_on_c, 1, 72, 88
5, 1316, Note_off_c, 1, 72, 0
5, 1320, Note_on_c, 1, 74, 88
5, 1436, Note_off_c, 1, 74, 0
5, 1440, Note_on_c, 1, 65, 88
5, 1498, Note_off_c, 1, 65, 0
5, 1500, Note_on_c, 1, 67, 88
5, 1558, Note_off_c, 1, 67, 0
5, 1560, Note_on_c, 1, 68, 88
5, 1794, Note_off_c, 1, 68, 0
5, 1800, Note_on_c, 1, 67, 88
5, 1858, Note_off_c, 1, 67, 0
5, 1860, Note_on_c, 1, 65, 88
5, 1918, Note_off_c, 1, 65, 0
5, 1920, Note_on_c, 1, 63, 88
5, 1978, Note_off_c, 1, 63, 0
5, 1980, Note_on_c, 1, 72, 88
5, 2038, Note_off_c, 1, 72, 0
5, 2040, Note_on_c, 1, 71, 88
5, 2098, Note_off_c, 1, 71, 0
5, 2100, Note_on_c, 1, 69, 88
5, 2158, Note_off_c, 1, 69, 0
5, 2160, Note_on_c, 1, 67, 88
5, 2218, Note_off_c, 1, 67, 0
5, 2220, Note_on_c, 1, 65, 88
5, 2278, Note_off_c, 1, 65, 0
5, 2280, Note_on_c, 1, 63, 88
5, 2338, Note_off_c, 1, 63, 0
5, 2340, Note_on_c, 1, 62, 88
5, 2398, Note_off_c, 1, 62, 0
5, 2400, Note_on_c, 1, 60, 88
5, 2516, Note_off_c, 1, 60, 0
5, 2520, Note_on_c, 1, 75, 88
5, 2636, Note_off_c, 1, 75, 0
5, 2640, Note_on_c, 1, 74, 88
5, 2756, Note_off_c, 1, 74, 0
5, 2760, Note_on_c, 1, 72, 88
5, 2876, Note_off_c, 1, 72, 0
5, 2880, Note_on_c, 1, 70, 88
5, 2996, Note_off_c, 1, 70, 0
5, 3000, Note_on_c, 1, 69, 88
5, 3116, Note_off_c, 1, 69, 0
5, 3120, Note_on_c, 1, 70, 88
5, 3236, Note_off_c, 1, 70, 0
5, 3240, Note_on_c, 1, 72, 88
5, 3356, Note_off_c, 1, 72, 0
5, 3360, Note_on_c, 1, 66, 88
5, 3476, Note_off_c, 1, 66, 0
5, 3480, Note_on_c, 1, 67, 88
5, 3596, Note_off_c, 1, 67, 0
5, 3600, Note_on_c, 1, 69, 88
5, 3716, Note_off_c, 1, 69, 0
5, 3720, Note_on_c, 1, 66, 88
5, 3836, Note_off_c, 1, 66, 0
5, 3840, Note_on_c, 1, 67, 88
5, 4074, Note_off_c, 1, 67, 0
5, 4140, Note_on_c, 1, 60, 88
5, 4198, Note_off_c, 1, 60, 0
5, 4200, Note_on_c, 1, 62, 88
5, 4258, Note_off_c, 1, 62, 0
5, 4260, Note_on_c, 1, 63, 88
5, 4318, Note_off_c, 1, 63, 0
5, 4320, Note_on_c, 1, 65, 88
5, 4378, Note_off_c, 1, 65, 0
5, 4380, Note_on_c, 1, 67, 88
5, 4438, Note_off_c, 1, 67, 0
5, 4440, Note_on_c, 1, 68, 88
5, 4615, Note_off_c, 1, 68, 0
5, 4620, Note_on_c, 1, 62, 88
5, 4678, Note_off_c, 1, 62, 0
5, 4680, Note_on_c, 1, 63, 88
5, 4738, Note_off_c, 1, 63, 0
5, 4740, Note_on_c, 1, 65, 88
5, 4798, Note_off_c, 1, 65, 0
5, 4800, Note_on_c, 1, 67, 88
5, 4858, Note_off_c, 1, 67, 0
5, 4860, Note_on_c, 1, 69, 88
5, 4918, Note_off_c, 1, 69, 0
5, 4920, Note_on_c, 1, 70, 88
5, 5095, Note_off_c, 1, 70, 0
5, 5100, Note_on_c, 1, 63, 88
5, 5158, Note_off_c, 1, 63, 0
5, 5160, Note_on_c, 1, 65, 88
5, 5218, Note_off_c, 1, 65, 0
5, 5220, Note_on_c, 1, 67, 88
5, 5278, Note_off_c, 1, 67, 0
5, 5280, Note_on_c, 1, 68, 88
5, 5338, Note_off_c, 1, 68, 0
5, 5340, Note_on_c, 1, 67, 88
5, 5398, Note_off_c, 1, 67, 0
5, 5400, Note_on_c, 1, 65, 88
5, 5458, Note_off_c, 1, 65, 0
5, 5460, Note_on_c, 1, 63, 88
5, 5518, Note_off_c, 1, 63, 0
5, 5520, Note_on_c, 1, 62, 88
5, 5636, Note_off_c, 1, 62, 0
5, 5640, Note_on_c, 1, 72, 88
5, 5698, Note_off_c, 1, 72, 0
5, 5700, Note_on_c, 1, 71, 88
5, 5758, Note_off_c, 1, 71, 0
5, 5760, Note_on_c, 1, 72, 88
5, 5994, Note_off_c, 1, 72, 0
5, 6360, Note_on_c, 1, 77, 88
5, 6476, Note_off_c, 1, 77, 0
5, 6480, Note_on_c, 1, 75, 88
5, 6596, Note_off_c, 1, 75, 0
5, 6600, Note_on_c, 1, 74, 88
5, 6716, Note_off_c, 1, 74, 0
5, 6840, Note_on_c, 1, 68, 88
5, 6956, Note_off_c, 1, 68, 0
5, 6960, Note_on_c, 1, 67, 88
5, 7076, Note_off_c, 1, 67, 0
5, 7080, Note_on_c, 1, 65, 88
5, 7196, Note_off_c, 1, 65, 0
5, 7200, Note_on_c, 1, 67, 88
5, 7316, Note_off_c, 1, 67, 0
5, 7320, Note_on_c, 1, 65, 88
5, 7378, Note_off_c, 1, 65, 0
5, 7380, Note_on_c, 1, 63, 88
5, 7438, Note_off_c, 1, 63, 0
5, 7440, Note_on_c, 1, 65, 88
5, 7556, Note_off_c, 1, 65, 0
5, 7560, Note_on_c, 1, 62, 88
5, 7676, Note_off_c, 1, 62, 0
5, 7680, Note_on_c, 1, 67, 88
5, 7914, Note_off_c, 1, 67, 0
5, 8040, Note_on_c, 1, 71, 88
5, 8156, Note_off_c, 1, 71, 0
5, 8160, Note_on_c, 1, 72, 88
5, 8261, Note_off_c, 1, 72, 0
5, 8280, Note_on_c, 1, 72, 88
5, 8338, Note_off_c, 1, 72, 0
5, 8340, Note_on_c, 1, 71, 88
5, 8398, Note_off_c, 1, 71, 0
5, 8400, Note_on_c, 1, 72, 88
5, 8516, Note_off_c, 1, 72, 0
5, 8520, Note_on_c, 1, 67, 88
5, 8636, Note_off_c, 1, 67, 0
5, 8640, Note_on_c, 1, 68, 88
5, 8874, Note_off_c, 1, 68, 0
5, 9000, Note_on_c, 1, 69, 88
5, 9116, Note_off_c, 1, 69, 0
5, 9120, Note_on_c, 1, 70, 88
5, 9221, Note_off_c, 1, 70, 0
5, 9240, Note_on_c, 1, 70, 88
5, 9298, Note_off_c, 1, 70, 0
5, 9300, Note_on_c, 1, 69, 88
5, 9358, Note_off_c, 1, 69, 0
5, 9360, Note_on_c, 1, 70, 88
5, 9476, Note_off_c, 1, 70, 0
5, 9480, Note_on_c, 1, 65, 88
5, 9596, Note_off_c, 1, 65, 0
5, 9600, Note_on_c, 1, 67, 88
5, 9834, Note_off_c, 1, 67, 0
5, 9960, Note_on_c, 1, 67, 88
5, 10076, Note_off_c, 1, 67, 0
5, 10080, Note_on_c, 1, 68, 88
5, 10181, Note_off_c, 1, 68, 0
5, 10200, Note_on_c, 1, 68, 88
5, 10316, Note_off_c, 1, 68, 0
5, 10320, Note_on_c, 1, 67, 88
5, 10436, Note_off_c, 1, 67, 0
5, 10440, Note_on_c, 1, 65, 88
5, 10556, Note_off_c, 1, 65, 0
5, 10680, Note_on_c, 1, 56, 88
5, 10796, Note_off_c, 1, 56, 0
5, 10800, Note_on_c, 1, 58, 88
5, 10916, Note_off_c, 1, 58, 0
5, 10920, Note_on_c, 1, 60, 88
5, 11036, Note_off_c, 1, 60, 0
5, 11160, Note_on_c, 1, 56, 88
5, 11218, Note_off_c, 1, 56, 0
5, 11220, Note_on_c, 1, 55, 88
5, 11278, Note_off_c, 1, 55, 0
5, 11280, Note_on_c, 1, 56, 88
5, 11396, Note_off_c, 1, 56, 0
5, 11400, Note_on_c, 1, 53, 88
5, 11516, Note_off_c, 1, 53, 0
5, 11520, Note_on_c, 1, 58, 88
5, 11636, Note_off_c, 1, 58, 0
5, 11640, Note_on_c, 1, 60, 88
5, 11756, Note_off_c, 1, 60, 0
5, 11760, Note_on_c, 1, 58, 88
5, 11876, Note_off_c, 1, 58, 0
5, 11880, Note_on_c, 1, 56, 88
5, 11996, Note_off_c, 1, 56, 0
5, 12000, Note_on_c, 1, 58, 88
5, 12116, Note_off_c, 1, 58, 0
5, 12120, Note_on_c, 1, 55, 88
5, 12236, Note_off_c, 1, 55, 0
5, 12240, Note_on_c, 1, 53, 88
5, 12356, Note_off_c, 1, 53, 0
5, 12360, Note_on_c, 1, 51, 88
5, 12476, Note_off_c, 1, 51, 0
5, 12480, Note_on_c, 1, 53, 88
5, 12596, Note_off_c, 1, 53, 0
5, 12600, Note_on_c, 1, 61, 88
5, 12716, Note_off_c, 1, 61, 0
5, 12720, Note_on_c, 1, 60, 88
5, 12836, Note_off_c, 1, 60, 0
5, 12840, Note_on_c, 1, 58, 88
5, 12956, Note_off_c, 1, 58, 0
5, 12960, Note_on_c, 1, 60, 88
5, 13076, Note_off_c, 1, 60, 0
5, 13080, Note_on_c, 1, 56, 88
5, 13196, Note_off_c, 1, 56, 0
5, 13200, Note_on_c, 1, 55, 88
5, 13316, Note_off_c, 1, 55, 0
5, 13320, Note_on_c, 1, 53, 88
5, 13436, Note_off_c, 1, 53, 0
5, 13440, Note_on_c, 1, 55, 88
5, 13556, Note_off_c, 1, 55, 0
5, 13560, Note_on_c, 1, 67, 88
5, 13618, Note_off_c, 1, 67, 0
5, 13620, Note_on_c, 1, 66, 88
5, 13678, Note_off_c, 1, 66, 0
5, 13680, Note_on_c, 1, 67, 88
5, 13796, Note_off_c, 1, 67, 0
5, 13800, Note_on_c, 1, 60, 88
5, 13916, Note_off_c, 1, 60, 0
5, 13920, Note_on_c, 1, 63, 88
5, 14036, Note_off_c, 1, 63, 0
5, 14040, Note_on_c, 1, 67, 88
5, 14098, Note_off_c, 1, 67, 0
5, 14100, Note_on_c, 1, 66, 88
5, 14158, Note_off_c, 1, 66, 0
5, 14160, Note_on_c, 1, 67, 88
5, 14276, Note_off_c, 1, 67, 0
5, 14280, Note_on_c, 1, 69, 88
5, 14396, Note_off_c, 1, 69, 0
5, 14400, Note_on_c, 1, 62, 88
5, 14516, Note_off_c, 1, 62, 0
5, 14520, Note_on_c, 1, 67, 88
5, 14578, Note_off_c, 1, 67, 0
5, 14580, Note_on_c, 1, 66, 88
5, 14638, Note_off_c, 1, 66, 0
5, 14640, Note_on_c, 1, 67, 88
5, 14756, Note_off_c, 1, 67, 0
5, 14760, Note_on_c, 1, 69, 88
5, 14876, Note_off_c, 1, 69, 0
5, 14880, Note_on_c, 1, 60, 88
5, 14938, Note_off_c, 1, 60, 0
5, 14940, Note_on_c, 1, 62, 88
5, 14998, Note_off_c, 1, 62, 0
5, 15000, Note_on_c, 1, 63, 88
5, 15234, Note_off_c, 1, 63, 0
5, 15240, Note_on_c, 1, 62, 88
5, 15298, Note_off_c, 1, 62, 0
5, 15300, Note_on_c, 1, 60, 88
5, 15358, Note_off_c, 1, 60, 0
5, 15360, Note_on_c, 1, 58, 88
5, 15476, Note_off_c, 1, 58, 0
5, 15660, Note_on_c, 1, 62, 88
5, 15718, Note_off_c, 1, 62, 0
5, 15720, Note_on_c, 1, 64, 88
5, 15778, Note_off_c, 1, 64, 0
5, 15780, Note_on_c, 1, 66, 88
5, 15838, Note_off_c, 1, 66, 0
5, 15840, Note_on_c, 1, 67, 88
5, 15898, Note_off_c, 1, 67, 0
5, 15900, Note_on_c, 1, 69, 88
5, 15958, Note_off_c, 1, 69, 0
5, 15960, Note_on_c, 1, 70, 88
5, 16135, Note_off_c, 1, 70, 0
5, 16140, Note_on_c, 1, 64, 88
5, 16198, Note_off_c, 1, 64, 0
5, 16200, Note_on_c, 1, 65, 88
5, 16258, Note_off_c, 1, 65, 0
5, 16260, Note_on_c, 1, 67, 88
5, 16318, Note_off_c, 1, 67, 0
5, 16320, Note_on_c, 1, 69, 88
5, 16378, Note_off_c, 1, 69, 0
5, 16380, Note_on_c, 1, 70, 88
5, 16438, Note_off_c, 1, 70, 0
5, 16440, Note_on_c, 1, 72, 88
5, 16615, Note_off_c, 1, 72, 0
5, 16620, Note_on_c, 1, 66, 88
5, 16678, Note_off_c, 1, 66, 0
5, 16680, Note_on_c, 1, 67, 88
5, 16738, Note_off_c, 1, 67, 0
5, 16740, Note_on_c, 1, 69, 88
5, 16798, Note_off_c, 1, 69, 0
5, 16800, Note_on_c, 1, 70, 88
5, 16916, Note_off_c, 1, 70, 0
5, 16920, Note_on_c, 1, 63, 88
5, 16978, Note_off_c, 1, 63, 0
5, 16980, Note_on_c, 1, 62, 88
5, 17038, Note_off_c, 1, 62, 0
5, 17040, Note_on_c, 1, 63, 88
5, 17156, Note_off_c, 1, 63, 0
5, 17160, Note_on_c, 1, 55, 88
5, 17276, Note_off_c, 1, 55, 0
5, 17280, Note_on_c, 1, 56, 88
5, 17396, Note_off_c, 1, 56, 0
5, 17400, Note_on_c, 1, 65, 88
5, 17458, Note_off_c, 1, 65, 0
5, 17460, Note_on_c, 1, 63, 88
5, 17518, Note_off_c, 1, 63, 0
5, 17520, Note_on_c, 1, 65, 88
5, 17636, Note_off_c, 1, 65, 0
5, 17640, Note_on_c, 1, 57, 88
5, 17756, Note_off_c, 1, 57, 0
5, 17760, Note_on_c, 1, 58, 88
5, 17876, Note_off_c, 1, 58, 0
5, 17880, Note_on_c, 1, 67, 88
5, 17938, Note_off_c, 1, 67, 0
5, 17940, Note_on_c, 1, 65, 88
5, 17998, Note_off_c, 1, 65, 0
5, 18000, Note_on_c, 1, 67, 88
5, 18116, Note_off_c, 1, 67, 0
5, 18120, Note_on_c, 1, 59, 88
5, 18236, Note_off_c, 1, 59, 0
5, 18240, Note_on_c, 1, 60, 88
5, 18298, Note_off_c, 1, 60, 0
5, 18300, Note_on_c, 1, 65, 88
5, 18358, Note_off_c, 1, 65, 0
5, 18360, Note_on_c, 1, 63, 88
5, 18418, Note_off_c, 1, 63, 0
5, 18420, Note_on_c, 1, 62, 88
5, 18478, Note_off_c, 1, 62, 0
5, 18480, Note_on_c, 1, 60, 88
5, 18538, Note_off_c, 1, 60, 0
5, 18540, Note_on_c, 1, 58, 88
5, 18598, Note_off_c, 1, 58, 0
5, 18600, Note_on_c, 1, 56, 88
5, 18658, Note_off_c, 1, 56, 0
5, 18660, Note_on_c, 1, 55, 88
5, 18718, Note_off_c, 1, 55, 0
5, 18720, Note_on_c, 1, 53, 88
5, 18836, Note_off_c, 1, 53, 0
5, 18840, Note_on_c, 1, 68, 88
5, 18956, Note_off_c, 1, 68, 0
5, 18960, Note_on_c, 1, 67, 88
5, 19076, Note_off_c, 1, 67, 0
5, 19080, Note_on_c, 1, 65, 88
5, 19196, Note_off_c, 1, 65, 0
5, 19200, Note_on_c, 1, 63, 88
5, 19316, Note_off_c, 1, 63, 0
5, 19320, Note_on_c, 1, 62, 88
5, 19436, Note_off_c, 1, 62, 0
5, 19440, Note_on_c, 1, 63, 88
5, 19556, Note_off_c, 1, 63, 0
5, 19560, Note_on_c, 1, 65, 88
5, 19676, Note_off_c, 1, 65, 0
5, 19680, Note_on_c, 1, 59, 88
5, 19796, Note_off_c, 1, 59, 0
5, 19800, Note_on_c, 1, 60, 88
5, 19916, Note_off_c, 1, 60, 0
5, 19920, Note_on_c, 1, 62, 88
5, 20036, Note_off_c, 1, 62, 0
5, 20040, Note_on_c, 1, 59, 88
5, 20156, Note_off_c, 1, 59, 0
5, 20160, Note_on_c, 1, 60, 88
5, 20394, Note_off_c, 1, 60, 0
5, 20520, Note_on_c, 1, 64, 88
5, 20636, Note_off_c, 1, 64, 0
5, 20640, Note_on_c, 1, 65, 88
5, 20741, Note_off_c, 1, 65, 0
5, 20760, Note_on_c, 1, 65, 88
5, 20818, Note_off_c, 1, 65, 0
5, 20820, Note_on_c, 1, 64, 88
5, 20878, Note_off_c, 1, 64, 0
5, 20880, Note_on_c, 1, 65, 88
5, 20996, Note_off_c, 1, 65, 0
5, 21000, Note_on_c, 1, 60, 88
5, 21116, Note_off_c, 1, 60, 0
5, 21120, Note_on_c, 1, 62, 88
5, 21354, Note_off_c, 1, 62, 0
5, 21480, Note_on_c, 1, 62, 88
5, 21596, Note_off_c, 1, 62, 0
5, 21600, Note_on_c, 1, 63, 88
5, 21701, Note_off_c, 1, 63, 0
5, 21720, Note_on_c, 1, 63, 88
5, 21778, Note_off_c, 1, 63, 0
5, 21780, Note_on_c, 1, 62, 88
5, 21838, Note_off_c, 1, 62, 0
5, 21840, Note_on_c, 1, 63, 88
5, 21956, Note_off_c, 1, 63, 0
5, 21960, Note_on_c, 1, 58, 88
5, 22076, Note_off_c, 1, 58, 0
5, 22080, Note_on_c, 1, 60, 88
5, 22670, Note_off_c, 1, 60, 0
5, 22680, Note_on_c, 1, 62, 88
5, 22738, Note_off_c, 1, 62, 0
5, 22740, Note_on_c, 1, 63, 88
5, 22798, Note_off_c, 1, 63, 0
5, 22800, Note_on_c, 1, 65, 88
5, 22858, Note_off_c, 1, 65, 0
5, 22860, Note_on_c, 1, 63, 88
5, 22918, Note_off_c, 1, 63, 0
5, 22920, Note_on_c, 1, 65, 88
5, 22978, Note_off_c, 1, 65, 0
5, 22980, Note_on_c, 1, 62, 88
5, 23038, Note_off_c, 1, 62, 0
5, 23040, Note_on_c, 1, 59, 88
5, 23156, Note_off_c, 1, 59, 0
5, 23400, Note_on_c, 1, 59, 88
5, 23516, Note_off_c, 1, 59, 0
5, 23520, Note_on_c, 1, 60, 88
5, 23636, Note_off_c, 1, 60, 0
5, 23880, Note_on_c, 1, 63, 88
5, 23996, Note_off_c, 1, 63, 0
5, 24000, Note_on_c, 1, 62, 88
5, 24116, Note_off_c, 1, 62, 0
5, 24360, Note_on_c, 1, 65, 88
5, 24594, Note_off_c, 1, 65, 0
5, 24840, Note_on_c, 1, 65, 88
5, 24956, Note_off_c, 1, 65, 0
5, 24960, Note_on_c, 1, 63, 88
5, 25076, Note_off_c, 1, 63, 0
5, 25080, Note_on_c, 1, 68, 88
5, 25196, Note_off_c, 1, 68, 0
5, 25200, Note_on_c, 1, 67, 88
5, 25316, Note_off_c, 1, 67, 0
5, 25320, Note_on_c, 1, 65, 88
5, 25436, Note_off_c, 1, 65, 0
5, 25440, Note_on_c, 1, 63, 88
5, 25556, Note_off_c, 1, 63, 0
5, 25560, Note_on_c, 1, 62, 88
5, 25676, Note_off_c, 1, 62, 0
5, 25680, Note_on_c, 1, 63, 88
5, 25796, Note_off_c, 1, 63, 0
5, 25800, Note_on_c, 1, 65, 88
5, 25916, Note_off_c, 1, 65, 0
5, 25920, Note_on_c, 1, 59, 88
5, 26036, Note_off_c, 1, 59, 0
5, 26040, Note_on_c, 1, 60, 88
5, 26156, Note_off_c, 1, 60, 0
5, 26160, Note_on_c, 1, 62, 88
5, 26276, Note_off_c, 1, 62, 0
5, 26280, Note_on_c, 1, 59, 88
5, 26381, Note_off_c, 1, 59, 0
5, 26400, Note_on_c, 1, 59, 88
5, 26516, Note_off_c, 1, 59, 0
5, 26520, Note_on_c, 1, 60, 88
5, 26636, Note_off_c, 1, 60, 0
5, 26760, Note_on_c, 1, 60, 88
5, 26876, Note_off_c, 1, 60, 0
5, 26880, Note_on_c, 1, 65, 88
5, 26938, Note_off_c, 1, 65, 0
5, 26940, Note_on_c, 1, 62, 88
5, 26998, Note_off_c, 1, 62, 0
5, 27000, Note_on_c, 1, 63, 88
5, 27058, Note_off_c, 1, 63, 0
5, 27060, Note_on_c, 1, 60, 88
5, 27235, Note_off_c, 1, 60, 0
5, 27240, Note_on_c, 1, 59, 88
5, 27356, Note_off_c, 1, 59, 0
5, 27360, Note_on_c, 1, 60, 88
5, 27594, Note_off_c, 1, 60, 0
5, 27720, Note_on_c, 1, 64, 88
5, 27836, Note_off_c, 1, 64, 0
5, 27840, Note_on_c, 1, 65, 88
5, 28074, Note_off_c, 1, 65, 0
5, 28200, Note_on_c, 1, 65, 88
5, 28301, Note_off_c, 1, 65, 0
5, 28320, Note_on_c, 1, 65, 88
5, 28436, Note_off_c, 1, 65, 0
5, 28440, Note_on_c, 1, 63, 88
5, 28498, Note_off_c, 1, 63, 0
5, 28500, Note_on_c, 1, 62, 88
5, 28558, Note_off_c, 1, 62, 0
5, 28560, Note_on_c, 1, 63, 88
5, 28676, Note_off_c, 1, 63, 0
5, 28680, Note_on_c, 1, 65, 88
5, 28680, Note_on_c, 1, 68, 88
5, 28796, Note_off_c, 1, 65, 0
5, 28796, Note_off_c, 1, 68, 0
5, 28800, Note_on_c, 1, 59, 88
5, 28800, Note_on_c, 1, 62, 88
5, 28916, Note_off_c, 1, 59, 0
5, 28916, Note_off_c, 1, 62, 0
5, 29040, Note_on_c, 1, 59, 88
5, 29040, Note_on_c, 1, 62, 88
5, 29156, Note_off_c, 1, 59, 0
5, 29156, Note_off_c, 1, 62, 0
5, 29280, Note_on_c, 1, 55, 88
5, 29280, Note_on_c, 1, 60, 88
5, 29750, Note_off_c, 1, 55, 0
5, 29750, Note_off_c, 1, 60, 0
5, 29750, End_track
6, 0, Start_track
6, 0, Title_t, "Track 3"
6, 0, Program_c, 2, 6
6, 5880, Note_on_c, 2, 60, 88
6, 5938, Note_off_c, 2, 60, 0
6, 5940, Note_on_c, 2, 59, 88
6, 5998, Note_off_c, 2, 59, 0
6, 6000, Note_on_c, 2, 60, 88
6, 6116, Note_off_c, 2, 60, 0
6, 6120, Note_on_c, 2, 55, 88
6, 6236, Note_off_c, 2, 55, 0
6, 6240, Note_on_c, 2, 56, 88
6, 6356, Note_off_c, 2, 56, 0
6, 6360, Note_on_c, 2, 60, 88
6, 6418, Note_off_c, 2, 60, 0
6, 6420, Note_on_c, 2, 59, 88
6, 6478, Note_off_c, 2, 59, 0
6, 6480, Note_on_c, 2, 60, 88
6, 6596, Note_off_c, 2, 60, 0
6, 6600, Note_on_c, 2, 62, 88
6, 6716, Note_off_c, 2, 62, 0
6, 6720, Note_on_c, 2, 55, 88
6, 6836, Note_off_c, 2, 55, 0
6, 6840, Note_on_c, 2, 60, 88
6, 6898, Note_off_c, 2, 60, 0
6, 6900, Note_on_c, 2, 59, 88
6, 6958, Note_off_c, 2, 59, 0
6, 6960, Note_on_c, 2, 60, 88
6, 7076, Note_off_c, 2, 60, 0
6, 7080, Note_on_c, 2, 62, 88
6, 7196, Note_off_c, 2, 62, 0
6, 7200, Note_on_c, 2, 53, 88
6, 7258, Note_off_c, 2, 53, 0
6, 7260, Note_on_c, 2, 55, 88
6, 7318, Note_off_c, 2, 55, 0
6, 7320, Note_on_c, 2, 56, 88
6, 7554, Note_off_c, 2, 56, 0
6, 7560, Note_on_c, 2, 55, 88
6, 7618, Note_off_c, 2, 55, 0
6, 7620, Note_on_c, 2, 53, 88
6, 7678, Note_off_c, 2, 53, 0
6, 7680, Note_on_c, 2, 51, 88
6, 7738, Note_off_c, 2, 51, 0
6, 7740, Note_on_c, 2, 60, 88
6, 7798, Note_off_c, 2, 60, 0
6, 7800, Note_on_c, 2, 59, 88
6, 7858, Note_off_c, 2, 59, 0
6, 7860, Note_on_c, 2, 57, 88
6, 7918, Note_off_c, 2, 57, 0
6, 7920, Note_on_c, 2, 55, 88
6, 7978, Note_off_c, 2, 55, 0
6, 7980, Note_on_c, 2, 53, 88
6, 8038, Note_off_c, 2, 53, 0
6, 8040, Note_on_c, 2, 51, 88
6, 8098, Note_off_c, 2, 51, 0
6, 8100, Note_on_c, 2, 50, 88
6, 8158, Note_off_c, 2, 50, 0
6, 8160, Note_on_c, 2, 48, 88
6, 8218, Note_off_c, 2, 48, 0
6, 8220, Note_on_c, 2, 50, 88
6, 8278, Note_off_c, 2, 50, 0
6, 8280, Note_on_c, 2, 51, 88
6, 8338, Note_off_c, 2, 51, 0
6, 8340, Note_on_c, 2, 50, 88
6, 8398, Note_off_c, 2, 50, 0
6, 8400, Note_on_c, 2, 48, 88
6, 8458, Note_off_c, 2, 48, 0
6, 8460, Note_on_c, 2, 46, 88
6, 8518, Note_off_c, 2, 46, 0
6, 8520, Note_on_c, 2, 44, 88
6, 8578, Note_off_c, 2, 44, 0
6, 8580, Note_on_c, 2, 43, 88
6, 8638, Note_off_c, 2, 43, 0
6, 8640, Note_on_c, 2, 41, 88
6, 8698, Note_off_c, 2, 41, 0
6, 8700, Note_on_c, 2, 58, 88
6, 8758, Note_off_c, 2, 58, 0
6, 8760, Note_on_c, 2, 56, 88
6, 8818, Note_off_c, 2, 56, 0
6, 8820, Note_on_c, 2, 55, 88
6, 8878, Note_off_c, 2, 55, 0
6, 8880, Note_on_c, 2, 53, 88
6, 8938, Note_off_c, 2, 53, 0
6, 8940, Note_on_c, 2, 51, 88
6, 8998, Note_off_c, 2, 51, 0
6, 9000, Note_on_c, 2, 50, 88
6, 9058, Note_off_c, 2, 50, 0
6, 9060, Note_on_c, 2, 48, 88
6, 9118, Note_off_c, 2, 48, 0
6, 9120, Note_on_c, 2, 46, 88
6, 9178, Note_off_c, 2, 46, 0
6, 9180, Note_on_c, 2, 48, 88
6, 9238, Note_off_c, 2, 48, 0
6, 9240, Note_on_c, 2, 50, 88
6, 9298, Note_off_c, 2, 50, 0
6, 9300, Note_on_c, 2, 48, 88
6, 9358, Note_off_c, 2, 48, 0
6, 9360, Note_on_c, 2, 46, 88
6, 9418, Note_off_c, 2, 46, 0
6, 9420, Note_on_c, 2, 44, 88
6, 9478, Note_off_c, 2, 44, 0
6, 9480, Note_on_c, 2, 43, 88
6, 9538, Note_off_c, 2, 43, 0
6, 9540, Note_on_c, 2, 41, 88
6, 9598, Note_off_c, 2, 41, 0
6, 9600, Note_on_c, 2, 39, 88
6, 9658, Note_off_c, 2, 39, 0
6, 9660, Note_on_c, 2, 56, 88
6, 9718, Note_off_c, 2, 56, 0
6, 9720, Note_on_c, 2, 55, 88
6, 9778, Note_off_c, 2, 55, 0
6, 9780, Note_on_c, 2, 53, 88
6, 9838, Note_off_c, 2, 53, 0
6, 9840, Note_on_c, 2, 51, 88
6, 9898, Note_off_c, 2, 51, 0
6, 9900, Note_on_c, 2, 49, 88
6, 9958, Note_off_c, 2, 49, 0
6, 9960, Note_on_c, 2, 48, 88
6, 10018, Note_off_c, 2, 48, 0
6, 10020, Note_on_c, 2, 46, 88
6, 10078, Note_off_c, 2, 46, 0
6, 10080, Note_on_c, 2, 44, 88
6, 10196, Note_off_c, 2, 44, 0
6, 10200, Note_on_c, 2, 60, 88
6, 10316, Note_off_c, 2, 60, 0
6, 10320, Note_on_c, 2, 58, 88
6, 10436, Note_off_c, 2, 58, 0
6, 10440, Note_on_c, 2, 56, 88
6, 10556, Note_off_c, 2, 56, 0
6, 10560, Note_on_c, 2, 55, 88
6, 10676, Note_off_c, 2, 55, 0
6, 10680, Note_on_c, 2, 53, 88
6, 10796, Note_off_c, 2, 53, 0
6, 10800, Note_on_c, 2, 55, 88
6, 10916, Note_off_c, 2, 55, 0
6, 10920, Note_on_c, 2, 56, 88
6, 11036, Note_off_c, 2, 56, 0
6, 11040, Note_on_c, 2, 50, 88
6, 11156, Note_off_c, 2, 50, 0
6, 11160, Note_on_c, 2, 51, 88
6, 11276, Note_off_c, 2, 51, 0
6, 11280, Note_on_c, 2, 53, 88
6, 11396, Note_off_c, 2, 53, 0
6, 11400, Note_on_c, 2, 50, 88
6, 11516, Note_off_c, 2, 50, 0
6, 11520, Note_on_c, 2, 51, 88
6, 11636, Note_off_c, 2, 51, 0
6, 11640, Note_on_c, 2, 56, 88
6, 11756, Note_off_c, 2, 56, 0
6, 11760, Note_on_c, 2, 55, 88
6, 11876, Note_off_c, 2, 55, 0
6, 11880, Note_on_c, 2, 53, 88
6, 11996, Note_off_c, 2, 53, 0
6, 12000, Note_on_c, 2, 55, 88
6, 12116, Note_off_c, 2, 55, 0
6, 12120, Note_on_c, 2, 51, 88
6, 12236, Note_off_c, 2, 51, 0
6, 12240, Note_on_c, 2, 50, 88
6, 12356, Note_off_c, 2, 50, 0
6, 12360, Note_on_c, 2, 48, 88
6, 12476, Note_off_c, 2, 48, 0
6, 12480, Note_on_c, 2, 50, 88
6, 12596, Note_off_c, 2, 50, 0
6, 12600, Note_on_c, 2, 58, 88
6, 12716, Note_off_c, 2, 58, 0
6, 12720, Note_on_c, 2, 56, 88
6, 12836, Note_off_c, 2, 56, 0
6, 12840, Note_on_c, 2, 55, 88
6, 12956, Note_off_c, 2, 55, 0
6, 12960, Note_on_c, 2, 56, 88
6, 13076, Note_off_c, 2, 56, 0
6, 13080, Note_on_c, 2, 53, 88
6, 13196, Note_off_c, 2, 53, 0
6, 13200, Note_on_c, 2, 51, 88
6, 13316, Note_off_c, 2, 51, 0
6, 13320, Note_on_c, 2, 50, 88
6, 13436, Note_off_c, 2, 50, 0
6, 13440, Note_on_c, 2, 51, 88
6, 13556, Note_off_c, 2, 51, 0
6, 14040, Note_on_c, 2, 48, 88
6, 14156, Note_off_c, 2, 48, 0
6, 14160, Note_on_c, 2, 46, 88
6, 14276, Note_off_c, 2, 46, 0
6, 14280, Note_on_c, 2, 45, 88
6, 14396, Note_off_c, 2, 45, 0
6, 14520, Note_on_c, 2, 51, 88
6, 14636, Note_off_c, 2, 51, 0
6, 14640, Note_on_c, 2, 50, 88
6, 14756, Note_off_c, 2, 50, 0
6, 14760, Note_on_c, 2, 48, 88
6, 14876, Note_off_c, 2, 48, 0
6, 14880, Note_on_c, 2, 50, 88
6, 14996, Note_off_c, 2, 50, 0
6, 15000, Note_on_c, 2, 48, 88
6, 15058, Note_off_c, 2, 48, 0
6, 15060, Note_on_c, 2, 46, 88
6, 15118, Note_off_c, 2, 46, 0
6, 15120, Note_on_c, 2, 48, 88
6, 15236, Note_off_c, 2, 48, 0
6, 15240, Note_on_c, 2, 50, 88
6, 15356, Note_off_c, 2, 50, 0
6, 15360, Note_on_c, 2, 43, 88
6, 15476, Note_off_c, 2, 43, 0
6, 15480, Note_on_c, 2, 58, 88
6, 15538, Note_off_c, 2, 58, 0
6, 15540, Note_on_c, 2, 57, 88
6, 15598, Note_off_c, 2, 57, 0
6, 15600, Note_on_c, 2, 58, 88
6, 15716, Note_off_c, 2, 58, 0
6, 15720, Note_on_c, 2, 50, 88
6, 15836, Note_off_c, 2, 50, 0
6, 15840, Note_on_c, 2, 51, 88
6, 15956, Note_off_c, 2, 51, 0
6, 15960, Note_on_c, 2, 60, 88
6, 16018, Note_off_c, 2, 60, 0
6, 16020, Note_on_c, 2, 58, 88
6, 16078, Note_off_c, 2, 58, 0
6, 16080, Note_on_c, 2, 60, 88
6, 16196, Note_off_c, 2, 60, 0
6, 16200, Note_on_c, 2, 52, 88
6, 16316, Note_off_c, 2, 52, 0
6, 16320, Note_on_c, 2, 53, 88
6, 16436, Note_off_c, 2, 53, 0
6, 16440, Note_on_c, 2, 62, 88
6, 16498, Note_off_c, 2, 62, 0
6, 16500, Note_on_c, 2, 60, 88
6, 16558, Note_off_c, 2, 60, 0
6, 16560, Note_on_c, 2, 62, 88
6, 16676, Note_off_c, 2, 62, 0
6, 16680, Note_on_c, 2, 54, 88
6, 16796, Note_off_c, 2, 54, 0
6, 16800, Note_on_c, 2, 55, 88
6, 17034, Note_off_c, 2, 55, 0
6, 17100, Note_on_c, 2, 43, 88
6, 17158, Note_off_c, 2, 43, 0
6, 17160, Note_on_c, 2, 45, 88
6, 17218, Note_off_c, 2, 45, 0
6, 17220, Note_on_c, 2, 47, 88
6, 17278, Note_off_c, 2, 47, 0
6, 17280, Note_on_c, 2, 48, 88
6, 17338, Note_off_c, 2, 48, 0
6, 17340, Note_on_c, 2, 50, 88
6, 17398, Note_off_c, 2, 50, 0
6, 17400, Note_on_c, 2, 51, 88
6, 17575, Note_off_c, 2, 51, 0
6, 17580, Note_on_c, 2, 45, 88
6, 17638, Note_off_c, 2, 45, 0
6, 17640, Note_on_c, 2, 46, 88
6, 17698, Note_off_c, 2, 46, 0
6, 17700, Note_on_c, 2, 48, 88
6, 17758, Note_off_c, 2, 48, 0
6, 17760, Note_on_c, 2, 50, 88
6, 17818, Note_off_c, 2, 50, 0
6, 17820, Note_on_c, 2, 51, 88
6, 17878, Note_off_c, 2, 51, 0
6, 17880, Note_on_c, 2, 53, 88
6, 18055, Note_off_c, 2, 53, 0
6, 18060, Note_on_c, 2, 47, 88
6, 18118, Note_off_c, 2, 47, 0
6, 18120, Note_on_c, 2, 48, 88
6, 18178, Note_off_c, 2, 48, 0
6, 18180, Note_on_c, 2, 50, 88
6, 18238, Note_off_c, 2, 50, 0
6, 18240, Note_on_c, 2, 51, 88
6, 18356, Note_off_c, 2, 51, 0
6, 18600, Note_on_c, 2, 52, 88
6, 18716, Note_off_c, 2, 52, 0
6, 18720, Note_on_c, 2, 53, 88
6, 18836, Note_off_c, 2, 53, 0
6, 18840, Note_on_c, 2, 41, 88
6, 18956, Note_off_c, 2, 41, 0
6, 18960, Note_on_c, 2, 39, 88
6, 19076, Note_off_c, 2, 39, 0
6, 19080, Note_on_c, 2, 38, 88
6, 19196, Note_off_c, 2, 38, 0
6, 19320, Note_on_c, 2, 44, 88
6, 19436, Note_off_c, 2, 44, 0
6, 19440, Note_on_c, 2, 43, 88
6, 19556, Note_off_c, 2, 43, 0
6, 19560, Note_on_c, 2, 41, 88
6, 19676, Note_off_c, 2, 41, 0
6, 19680, Note_on_c, 2, 43, 88
6, 19796, Note_off_c, 2, 43, 0
6, 19800, Note_on_c, 2, 41, 88
6, 19858, Note_off_c, 2, 41, 0
6, 19860, Note_on_c, 2, 39, 88
6, 19918, Note_off_c, 2, 39, 0
6, 19920, Note_on_c, 2, 41, 88
6, 20036, Note_off_c, 2, 41, 0
6, 20040, Note_on_c, 2, 43, 88
6, 20156, Note_off_c, 2, 43, 0
6, 20160, Note_on_c, 2, 48, 88
6, 20218, Note_off_c, 2, 48, 0
6, 20220, Note_on_c, 2, 50, 88
6, 20278, Note_off_c, 2, 50, 0
6, 20280, Note_on_c, 2, 51, 88
6, 20338, Note_off_c, 2, 51, 0
6, 20340, Note_on_c, 2, 50, 88
6, 20398, Note_off_c, 2, 50, 0
6, 20400, Note_on_c, 2, 48, 88
6, 20458, Note_off_c, 2, 48, 0
6, 20460, Note_on_c, 2, 46, 88
6, 20518, Note_off_c, 2, 46, 0
6, 20520, Note_on_c, 2, 44, 88
6, 20578, Note_off_c, 2, 44, 0
6, 20580, Note_on_c, 2, 43, 88
6, 20638, Note_off_c, 2, 43, 0
6, 20640, Note_on_c, 2, 41, 88
6, 20698, Note_off_c, 2, 41, 0
6, 20700, Note_on_c, 2, 58, 88
6, 20758, Note_off_c, 2, 58, 0
6, 20760, Note_on_c, 2, 56, 88
6, 20818, Note_off_c, 2, 56, 0
6, 20820, Note_on_c, 2, 55, 88
6, 20878, Note_off_c, 2, 55, 0
6, 20880, Note_on_c, 2, 53, 88
6, 20938, Note_off_c, 2, 53, 0
6, 20940, Note_on_c, 2, 51, 88
6, 20998, Note_off_c, 2, 51, 0
6, 21000, Note_on_c, 2, 50, 88
6, 21058, Note_off_c, 2, 50, 0
6, 21060, Note_on_c, 2, 48, 88
6, 21118, Note_off_c, 2, 48, 0
6, 21120, Note_on_c, 2, 46, 88
6, 21178, Note_off_c, 2, 46, 0
6, 21180, Note_on_c, 2, 48, 88
6, 21238, Note_off_c, 2, 48, 0
6, 21240, Note_on_c, 2, 50, 88
6, 21298, Note_off_c, 2, 50, 0
6, 21300, Note_on_c, 2, 48, 88
6, 21358, Note_off_c, 2, 48, 0
6, 21360, Note_on_c, 2, 46, 88
6, 21418, Note_off_c, 2, 46, 0
6, 21420, Note_on_c, 2, 44, 88
6, 21478, Note_off_c, 2, 44, 0
6, 21480, Note_on_c, 2, 43, 88
6, 21538, Note_off_c, 2, 43, 0
6, 21540, Note_on_c, 2, 41, 88
6, 21598, Note_off_c, 2, 41, 0
6, 21600, Note_on_c, 2, 39, 88
6, 21658, Note_off_c, 2, 39, 0
6, 21660, Note_on_c, 2, 56, 88
6, 21718, Note_off_c, 2, 56, 0
6, 21720, Note_on_c, 2, 55, 88
6, 21778, Note_off_c, 2, 55, 0
6, 21780, Note_on_c, 2, 53, 88
6, 21838, Note_off_c, 2, 53, 0
6, 21840, Note_on_c, 2, 51, 88
6, 21898, Note_off_c, 2, 51, 0
6, 21900, Note_on_c, 2, 50, 88
6, 21958, Note_off_c, 2, 50, 0
6, 21960, Note_on_c, 2, 48, 88
6, 22018, Note_off_c, 2, 48, 0
6, 22020, Note_on_c, 2, 46, 88
6, 22078, Note_off_c, 2, 46, 0
6, 22080, Note_on_c, 2, 44, 88
6, 22138, Note_off_c, 2, 44, 0
6, 22140, Note_on_c, 2, 46, 88
6, 22198, Note_off_c, 2, 46, 0
6, 22200, Note_on_c, 2, 48, 88
6, 22258, Note_off_c, 2, 48, 0
6, 22260, Note_on_c, 2, 46, 88
6, 22318, Note_off_c, 2, 46, 0
6, 22320, Note_on_c, 2, 44, 88
6, 22378, Note_off_c, 2, 44, 0
6, 22380, Note_on_c, 2, 43, 88
6, 22438, Note_off_c, 2, 43, 0
6, 22440, Note_on_c, 2, 41, 88
6, 22498, Note_off_c, 2, 41, 0
6, 22500, Note_on_c, 2, 39, 88
6, 22558, Note_off_c, 2, 39, 0
6, 22560, Note_on_c, 2, 38, 88
6, 22618, Note_off_c, 2, 38, 0
6, 22620, Note_on_c, 2, 55, 88
6, 22678, Note_off_c, 2, 55, 0
6, 22680, Note_on_c, 2, 53, 88
6, 22738, Note_off_c, 2, 53, 0
6, 22740, Note_on_c, 2, 51, 88
6, 22798, Note_off_c, 2, 51, 0
6, 22800, Note_on_c, 2, 50, 88
6, 22858, Note_off_c, 2, 50, 0
6, 22860, Note_on_c, 2, 48, 88
6, 22918, Note_off_c, 2, 48, 0
6, 22920, Note_on_c, 2, 47, 88
6, 22978, Note_off_c, 2, 47, 0
6, 22980, Note_on_c, 2, 45, 88
6, 23038, Note_off_c, 2, 45, 0
6, 23040, Note_on_c, 2, 43, 88
6, 23274, Note_off_c, 2, 43, 0
6, 23580, Note_on_c, 2, 43, 88
6, 23638, Note_off_c, 2, 43, 0
6, 23640, Note_on_c, 2, 45, 88
6, 23698, Note_off_c, 2, 45, 0
6, 23700, Note_on_c, 2, 47, 88
6, 23758, Note_off_c, 2, 47, 0
6, 23760, Note_on_c, 2, 48, 88
6, 23818, Note_off_c, 2, 48, 0
6, 23820, Note_on_c, 2, 50, 88
6, 23878, Note_off_c, 2, 50, 0
6, 23880, Note_on_c, 2, 51, 88
6, 23938, Note_off_c, 2, 51, 0
6, 23940, Note_on_c, 2, 53, 88
6, 23998, Note_off_c, 2, 53, 0
6, 24000, Note_on_c, 2, 55, 88
6, 24058, Note_off_c, 2, 55, 0
6, 24060, Note_on_c, 2, 53, 88
6, 24118, Note_off_c, 2, 53, 0
6, 24120, Note_on_c, 2, 56, 88
6, 24178, Note_off_c, 2, 56, 0
6, 24180, Note_on_c, 2, 55, 88
6, 24238, Note_off_c, 2, 55, 0
6, 24240, Note_on_c, 2, 53, 88
6, 24298, Note_off_c, 2, 53, 0
6, 24300, Note_on_c, 2, 51, 88
6, 24358, Note_off_c, 2, 51, 0
6, 24360, Note_on_c, 2, 50, 88
6, 24418, Note_off_c, 2, 50, 0
6, 24420, Note_on_c, 2, 48, 88
6, 24478, Note_off_c, 2, 48, 0
6, 24480, Note_on_c, 2, 47, 88
6, 24596, Note_off_c, 2, 47, 0
6, 24600, Note_on_c, 2, 48, 88
6, 24658, Note_off_c, 2, 48, 0
6, 24660, Note_on_c, 2, 47, 88
6, 24718, Note_off_c, 2, 47, 0
6, 24720, Note_on_c, 2, 48, 88
6, 24836, Note_off_c, 2, 48, 0
6, 24840, Note_on_c, 2, 43, 88
6, 24956, Note_off_c, 2, 43, 0
6, 24960, Note_on_c, 2, 44, 88
6, 25076, Note_off_c, 2, 44, 0
6, 25080, Note_on_c, 2, 48, 88
6, 25138, Note_off_c, 2, 48, 0
6, 25140, Note_on_c, 2, 47, 88
6, 25198, Note_off_c, 2, 47, 0
6, 25200, Note_on_c, 2, 48, 88
6, 25316, Note_off_c, 2, 48, 0
6, 25320, Note_on_c, 2, 50, 88
6, 25436, Note_off_c, 2, 50, 0
6, 25440, Note_on_c, 2, 43, 88
6, 25556, Note_off_c, 2, 43, 0
6, 25560, Note_on_c, 2, 48, 88
6, 25618, Note_off_c, 2, 48, 0
6, 25620, Note_on_c, 2, 47, 88
6, 25678, Note_off_c, 2, 47, 0
6, 25680, Note_on_c, 2, 48, 88
6, 25796, Note_off_c, 2, 48, 0
6, 25800, Note_on_c, 2, 50, 88
6, 25916, Note_off_c, 2, 50, 0
6, 25920, Note_on_c, 2, 41, 88
6, 25978, Note_off_c, 2, 41, 0
6, 25980, Note_on_c, 2, 43, 88
6, 26038, Note_off_c, 2, 43, 0
6, 26040, Note_on_c, 2, 44, 88
6, 26274, Note_off_c, 2, 44, 0
6, 26280, Note_on_c, 2, 43, 88
6, 26338, Note_off_c, 2, 43, 0
6, 26340, Note_on_c, 2, 41, 88
6, 26398, Note_off_c, 2, 41, 0
6, 26400, Note_on_c, 2, 39, 88
6, 26634, Note_off_c, 2, 39, 0
6, 26760, Note_on_c, 2, 51, 88
6, 26876, Note_off_c, 2, 51, 0
6, 26880, Note_on_c, 2, 50, 88
6, 26996, Note_off_c, 2, 50, 0
6, 27000, Note_on_c, 2, 48, 88
6, 27116, Note_off_c, 2, 48, 0
6, 27120, Note_on_c, 2, 55, 88
6, 27236, Note_off_c, 2, 55, 0
6, 27240, Note_on_c, 2, 43, 88
6, 27356, Note_off_c, 2, 43, 0
6, 27360, Note_on_c, 2, 36, 88
6, 27360, Note_on_c, 2, 48, 88
6, 29745, Note_off_c, 2, 36, 0
6, 29745, Note_off_c, 2, 48, 0
6, 29745, End_track
0, 0, End_of_file
