0, 0, Header, 1, 2, 240
1, 0, Start_track
1, 0, Time_signature, 4, 2, 24, 8
1, 0, Tempo, 705882
1, 0, SMPTE_offset, 64, 0, 0, 0, 100
1, 0, End_track
2, 0, Start_track
2, 0, Title_t, "Track 1"
2, 0, Program_c, 0, 6
2, 0, Note_on_c, 0, 77, 88
2, 59, Note_off_c, 0, 77, 0
2, 60, Note_on_c, 0, 72, 88
2, 119, Note_off_c, 0, 72, 0
2, 120, Note_on_c, 0, 69, 88
2, 179, Note_off_c, 0, 69, 0
2, 180, Note_on_c, 0, 67, 88
2, 239, Note_off_c, 0, 67, 0
2, 240, Note_on_c, 0, 69, 88
2, 299, Note_off_c, 0, 69, 0
2, 300, Note_on_c, 0, 72, 88
2, 359, Note_off_c, 0, 72, 0
2, 360, Note_on_c, 0, 65, 88
2, 419, Note_off_c, 0, 65, 0
2, 420, Note_on_c, 0, 69, 88
2, 479, Note_off_c, 0, 69, 0
2, 480, Note_on_c, 0, 72, 88
2, 539, Note_off_c, 0, 72, 0
2, 540, Note_on_c, 0, 75, 88
2, 599, Note_off_c, 0, 75, 0
2, 600, Note_on_c, 0, 74, 88
2, 659, Note_off_c, 0, 74, 0
2, 660, Note_on_c, 0, 72, 88
2, 719, Note_off_c, 0, 72, 0
2, 720, Note_on_c, 0, 74, 88
2, 779, Note_off_c, 0, 74, 0
2, 780, Note_on_c, 0, 70, 88
2, 839, Note_off_c, 0, 70, 0
2, 840, Note_on_c, 0, 65, 88
2, 899, Note_off_c, 0, 65, 0
2, 900, Note_on_c, 0, 64, 88
2, 959, Note_off_c, 0, 64, 0
2, 960, Note_on_c, 0, 65, 88
2, 1019, Note_off_c, 0, 65, 0
2, 1020, Note_on_c, 0, 70, 88
2, 1079, Note_off_c, 0, 70, 0
2, 1080, Note_on_c, 0, 62, 88
2, 1139, Note_off_c, 0, 62, 0
2, 1140, Note_on_c, 0, 65, 88
2, 1199, Note_off_c, 0, 65, 0
2, 1200, Note_on_c, 0, 69, 88
2, 1259, Note_off_c, 0, 69, 0
2, 1260, Note_on_c, 0, 72, 88
2, 1319, Note_off_c, 0, 72, 0
2, 1320, Note_on_c, 0, 70, 88
2, 1379, Note_off_c, 0, 70, 0
2, 1380, Note_on_c, 0, 69, 88
2, 1439, Note_off_c, 0, 69, 0
2, 1440, Note_on_c, 0, 70, 88
2, 1499, Note_off_c, 0, 70, 0
2, 1500, Note_on_c, 0, 67, 88
2, 1559, Note_off_c, 0, 67, 0
2, 1560, Note_on_c, 0, 64, 88
2, 1619, Note_off_c, 0, 64, 0
2, 1620, Note_on_c, 0, 62, 88
2, 1679, Note_off_c, 0, 62, 0
2, 1680, Note_on_c, 0, 64, 88
2, 1739, Note_off_c, 0, 64, 0
2, 1740, Note_on_c, 0, 67, 88
2, 1799, Note_off_c, 0, 67, 0
2, 1800, Note_on_c, 0, 60, 88
2, 1859, Note_off_c, 0, 60, 0
2, 1860, Note_on_c, 0, 64, 88
2, 1919, Note_off_c, 0, 64, 0
2, 1920, Note_on_c, 0, 67, 88
2, 1979, Note_off_c, 0, 67, 0
2, 1980, Note_on_c, 0, 70, 88
2, 2039, Note_off_c, 0, 70, 0
2, 2040, Note_on_c, 0, 69, 88
2, 2099, Note_off_c, 0, 69, 0
2, 2100, Note_on_c, 0, 67, 88
2, 2159, Note_off_c, 0, 67, 0
2, 2160, Note_on_c, 0, 69, 88
2, 2219, Note_off_c, 0, 69, 0
2, 2220, Note_on_c, 0, 67, 88
2, 2279, Note_off_c, 0, 67, 0
2, 2280, Note_on_c, 0, 65, 88
2, 2339, Note_off_c, 0, 65, 0
2, 2340, Note_on_c, 0, 64, 88
2, 2399, Note_off_c, 0, 64, 0
2, 2400, Note_on_c, 0, 65, 88
2, 2459, Note_off_c, 0, 65, 0
2, 2460, Note_on_c, 0, 69, 88
2, 2519, Note_off_c, 0, 69, 0
2, 2520, Note_on_c, 0, 60, 88
2, 2579, Note_off_c, 0, 60, 0
2, 2580, Note_on_c, 0, 64, 88
2, 2639, Note_off_c, 0, 64, 0
2, 2640, Note_on_c, 0, 65, 88
2, 2699, Note_off_c, 0, 65, 0
2, 2700, Note_on_c, 0, 69, 88
2, 2759, Note_off_c, 0, 69, 0
2, 2760, Note_on_c, 0, 67, 88
2, 2819, Note_off_c, 0, 67, 0
2, 2820, Note_on_c, 0, 65, 88
2, 2879, Note_off_c, 0, 65, 0
2, 2880, Note_on_c, 0, 71, 88
2, 2947, Note_off_c, 0, 71, 0
2, 2948, Note_on_c, 0, 72, 88
2, 2977, Note_off_c, 0, 72, 0
2, 2978, Note_on_c, 0, 71, 88
2, 3007, Note_off_c, 0, 71, 0
2, 3008, Note_on_c, 0, 72, 88
2, 3037, Note_off_c, 0, 72, 0
2, 3038, Note_on_c, 0, 71, 88
2, 3067, Note_off_c, 0, 71, 0
2, 3068, Note_on_c, 0, 72, 88
2, 3097, Note_off_c, 0, 72, 0
2, 3098, Note_on_c, 0, 71, 88
2, 3127, Note_off_c, 0, 71, 0
2, 3128, Note_on_c, 0, 72, 88
2, 3157, Note_off_c, 0, 72, 0
2, 3158, Note_on_c, 0, 71, 88
2, 3187, Note_off_c, 0, 71, 0
2, 3188, Note_on_c, 0, 72, 88
2, 3217, Note_off_c, 0, 72, 0
2, 3218, Note_on_c, 0, 71, 88
2, 3239, Note_off_c, 0, 71, 0
2, 3240, Note_on_c, 0, 72, 88
2, 3262, Note_off_c, 0, 72, 0
2, 3263, Note_on_c, 0, 71, 88
2, 3284, Note_off_c, 0, 71, 0
2, 3285, Note_on_c, 0, 72, 88
2, 3307, Note_off_c, 0, 72, 0
2, 3308, Note_on_c, 0, 71, 88
2, 3329, Note_off_c, 0, 71, 0
2, 3330, Note_on_c, 0, 72, 88
2, 3352, Note_off_c, 0, 72, 0
2, 3353, Note_on_c, 0, 71, 88
2, 3374, Note_off_c, 0, 71, 0
2, 3375, Note_on_c, 0, 72, 88
2, 3397, Note_off_c, 0, 72, 0
2, 3398, Note_on_c, 0, 71, 88
2, 3419, Note_off_c, 0, 71, 0
2, 3420, Note_on_c, 0, 72, 88
2, 3442, Note_off_c, 0, 72, 0
2, 3443, Note_on_c, 0, 71, 88
2, 3464, Note_off_c, 0, 71, 0
2, 3465, Note_on_c, 0, 72, 88
2, 3487, Note_off_c, 0, 72, 0
2, 3488, Note_on_c, 0, 71, 88
2, 3509, Note_off_c, 0, 71, 0
2, 3510, Note_on_c, 0, 72, 88
2, 3532, Note_off_c, 0, 72, 0
2, 3533, Note_on_c, 0, 71, 88
2, 3599, Note_off_c, 0, 71, 0
2, 3600, Note_on_c, 0, 72, 88
2, 3659, Note_off_c, 0, 72, 0
2, 3660, Note_on_c, 0, 67, 88
2, 3719, Note_off_c, 0, 67, 0
2, 3720, Note_on_c, 0, 64, 88
2, 3779, Note_off_c, 0, 64, 0
2, 3780, Note_on_c, 0, 62, 88
2, 3839, Note_off_c, 0, 62, 0
2, 3840, Note_on_c, 0, 64, 88
2, 3899, Note_off_c, 0, 64, 0
2, 3900, Note_on_c, 0, 67, 88
2, 3959, Note_off_c, 0, 67, 0
2, 3960, Note_on_c, 0, 60, 88
2, 4019, Note_off_c, 0, 60, 0
2, 4020, Note_on_c, 0, 64, 88
2, 4079, Note_off_c, 0, 64, 0
2, 4080, Note_on_c, 0, 67, 88
2, 4139, Note_off_c, 0, 67, 0
2, 4140, Note_on_c, 0, 70, 88
2, 4199, Note_off_c, 0, 70, 0
2, 4200, Note_on_c, 0, 69, 88
2, 4259, Note_off_c, 0, 69, 0
2, 4260, Note_on_c, 0, 67, 88
2, 4319, Note_off_c, 0, 67, 0
2, 4320, Note_on_c, 0, 74, 88
2, 4387, Note_off_c, 0, 74, 0
2, 4388, Note_on_c, 0, 73, 88
2, 4417, Note_off_c, 0, 73, 0
2, 4418, Note_on_c, 0, 74, 88
2, 4447, Note_off_c, 0, 74, 0
2, 4448, Note_on_c, 0, 73, 88
2, 4477, Note_off_c, 0, 73, 0
2, 4478, Note_on_c, 0, 74, 88
2, 4507, Note_off_c, 0, 74, 0
2, 4508, Note_on_c, 0, 73, 88
2, 4537, Note_off_c, 0, 73, 0
2, 4538, Note_on_c, 0, 74, 88
2, 4567, Note_off_c, 0, 74, 0
2, 4568, Note_on_c, 0, 73, 88
2, 4589, Note_off_c, 0, 73, 0
2, 4590, Note_on_c, 0, 74, 88
2, 4612, Note_off_c, 0, 74, 0
2, 4613, Note_on_c, 0, 73, 88
2, 4634, Note_off_c, 0, 73, 0
2, 4635, Note_on_c, 0, 74, 88
2, 4657, Note_off_c, 0, 74, 0
2, 4658, Note_on_c, 0, 73, 88
2, 4679, Note_off_c, 0, 73, 0
2, 4680, Note_on_c, 0, 74, 88
2, 4702, Note_off_c, 0, 74, 0
2, 4703, Note_on_c, 0, 73, 88
2, 4724, Note_off_c, 0, 73, 0
2, 4725, Note_on_c, 0, 74, 88
2, 4747, Note_off_c, 0, 74, 0
2, 4748, Note_on_c, 0, 73, 88
2, 4769, Note_off_c, 0, 73, 0
2, 4770, Note_on_c, 0, 74, 88
2, 4792, Note_off_c, 0, 74, 0
2, 4793, Note_on_c, 0, 73, 88
2, 4814, Note_off_c, 0, 73, 0
2, 4815, Note_on_c, 0, 74, 88
2, 4837, Note_off_c, 0, 74, 0
2, 4838, Note_on_c, 0, 73, 88
2, 4859, Note_off_c, 0, 73, 0
2, 4860, Note_on_c, 0, 74, 88
2, 4882, Note_off_c, 0, 74, 0
2, 4883, Note_on_c, 0, 73, 88
2, 4904, Note_off_c, 0, 73, 0
2, 4905, Note_on_c, 0, 74, 88
2, 4927, Note_off_c, 0, 74, 0
2, 4928, Note_on_c, 0, 73, 88
2, 4949, Note_off_c, 0, 73, 0
2, 4950, Note_on_c, 0, 74, 88
2, 4972, Note_off_c, 0, 74, 0
2, 4973, Note_on_c, 0, 73, 88
2, 5039, Note_off_c, 0, 73, 0
2, 5040, Note_on_c, 0, 74, 88
2, 5099, Note_off_c, 0, 74, 0
2, 5100, Note_on_c, 0, 69, 88
2, 5159, Note_off_c, 0, 69, 0
2, 5160, Note_on_c, 0, 65, 88
2, 5219, Note_off_c, 0, 65, 0
2, 5220, Note_on_c, 0, 64, 88
2, 5279, Note_off_c, 0, 64, 0
2, 5280, Note_on_c, 0, 65, 88
2, 5339, Note_off_c, 0, 65, 0
2, 5340, Note_on_c, 0, 69, 88
2, 5399, Note_off_c, 0, 69, 0
2, 5400, Note_on_c, 0, 62, 88
2, 5459, Note_off_c, 0, 62, 0
2, 5460, Note_on_c, 0, 65, 88
2, 5519, Note_off_c, 0, 65, 0
2, 5520, Note_on_c, 0, 69, 88
2, 5579, Note_off_c, 0, 69, 0
2, 5580, Note_on_c, 0, 72, 88
2, 5639, Note_off_c, 0, 72, 0
2, 5640, Note_on_c, 0, 70, 88
2, 5699, Note_off_c, 0, 70, 0
2, 5700, Note_on_c, 0, 69, 88
2, 5759, Note_off_c, 0, 69, 0
2, 5760, Note_on_c, 0, 70, 88
2, 5819, Note_off_c, 0, 70, 0
2, 5820, Note_on_c, 0, 67, 88
2, 5879, Note_off_c, 0, 67, 0
2, 5880, Note_on_c, 0, 64, 88
2, 5939, Note_off_c, 0, 64, 0
2, 5940, Note_on_c, 0, 62, 88
2, 5999, Note_off_c, 0, 62, 0
2, 6000, Note_on_c, 0, 64, 88
2, 6059, Note_off_c, 0, 64, 0
2, 6060, Note_on_c, 0, 67, 88
2, 6119, Note_off_c, 0, 67, 0
2, 6120, Note_on_c, 0, 60, 88
2, 6179, Note_off_c, 0, 60, 0
2, 6180, Note_on_c, 0, 64, 88
2, 6239, Note_off_c, 0, 64, 0
2, 6240, Note_on_c, 0, 67, 88
2, 6299, Note_off_c, 0, 67, 0
2, 6300, Note_on_c, 0, 70, 88
2, 6359, Note_off_c, 0, 70, 0
2, 6360, Note_on_c, 0, 69, 88
2, 6419, Note_off_c, 0, 69, 0
2, 6420, Note_on_c, 0, 67, 88
2, 6479, Note_off_c, 0, 67, 0
2, 6480, Note_on_c, 0, 69, 88
2, 6539, Note_off_c, 0, 69, 0
2, 6540, Note_on_c, 0, 65, 88
2, 6599, Note_off_c, 0, 65, 0
2, 6600, Note_on_c, 0, 62, 88
2, 6659, Note_off_c, 0, 62, 0
2, 6660, Note_on_c, 0, 61, 88
2, 6719, Note_off_c, 0, 61, 0
2, 6720, Note_on_c, 0, 62, 88
2, 6779, Note_off_c, 0, 62, 0
2, 6780, Note_on_c, 0, 65, 88
2, 6839, Note_off_c, 0, 65, 0
2, 6840, Note_on_c, 0, 58, 88
2, 6899, Note_off_c, 0, 58, 0
2, 6900, Note_on_c, 0, 62, 88
2, 6959, Note_off_c, 0, 62, 0
2, 6960, Note_on_c, 0, 65, 88
2, 7019, Note_off_c, 0, 65, 0
2, 7020, Note_on_c, 0, 69, 88
2, 7079, Note_off_c, 0, 69, 0
2, 7080, Note_on_c, 0, 67, 88
2, 7139, Note_off_c, 0, 67, 0
2, 7140, Note_on_c, 0, 65, 88
2, 7199, Note_off_c, 0, 65, 0
2, 7200, Note_on_c, 0, 67, 88
2, 7259, Note_off_c, 0, 67, 0
2, 7260, Note_on_c, 0, 64, 88
2, 7319, Note_off_c, 0, 64, 0
2, 7320, Note_on_c, 0, 61, 88
2, 7379, Note_off_c, 0, 61, 0
2, 7380, Note_on_c, 0, 59, 88
2, 7439, Note_off_c, 0, 59, 0
2, 7440, Note_on_c, 0, 61, 88
2, 7499, Note_off_c, 0, 61, 0
2, 7500, Note_on_c, 0, 64, 88
2, 7559, Note_off_c, 0, 64, 0
2, 7560, Note_on_c, 0, 57, 88
2, 7619, Note_off_c, 0, 57, 0
2, 7620, Note_on_c, 0, 61, 88
2, 7679, Note_off_c, 0, 61, 0
2, 7680, Note_on_c, 0, 64, 88
2, 7739, Note_off_c, 0, 64, 0
2, 7740, Note_on_c, 0, 67, 88
2, 7799, Note_off_c, 0, 67, 0
2, 7800, Note_on_c, 0, 65, 88
2, 7859, Note_off_c, 0, 65, 0
2, 7860, Note_on_c, 0, 64, 88
2, 7919, Note_off_c, 0, 64, 0
2, 7920, Note_on_c, 0, 65, 88
2, 8039, Note_off_c, 0, 65, 0
2, 8040, Note_on_c, 0, 69, 88
2, 8159, Note_off_c, 0, 69, 0
2, 8160, Note_on_c, 0, 74, 88
2, 8279, Note_off_c, 0, 74, 0
2, 8280, Note_on_c, 0, 69, 88
2, 8399, Note_off_c, 0, 69, 0
2, 8400, Note_on_c, 0, 65, 88
2, 8519, Note_off_c, 0, 65, 0
2, 8520, Note_on_c, 0, 62, 88
2, 8639, Note_off_c, 0, 62, 0
2, 8640, Note_on_c, 0, 67, 88
2, 8759, Note_off_c, 0, 67, 0
2, 8760, Note_on_c, 0, 70, 88
2, 8879, Note_off_c, 0, 70, 0
2, 8880, Note_on_c, 0, 74, 88
2, 8999, Note_off_c, 0, 74, 0
2, 9000, Note_on_c, 0, 70, 88
2, 9119, Note_off_c, 0, 70, 0
2, 9120, Note_on_c, 0, 67, 88
2, 9239, Note_off_c, 0, 67, 0
2, 9240, Note_on_c, 0, 62, 88
2, 9359, Note_off_c, 0, 62, 0
2, 9360, Note_on_c, 0, 67, 88
2, 9479, Note_off_c, 0, 67, 0
2, 9480, Note_on_c, 0, 73, 88
2, 9599, Note_off_c, 0, 73, 0
2, 9600, Note_on_c, 0, 76, 88
2, 9719, Note_off_c, 0, 76, 0
2, 9720, Note_on_c, 0, 73, 88
2, 9839, Note_off_c, 0, 73, 0
2, 9840, Note_on_c, 0, 67, 88
2, 9959, Note_off_c, 0, 67, 0
2, 9960, Note_on_c, 0, 64, 88
2, 10079, Note_off_c, 0, 64, 0
2, 10080, Note_on_c, 0, 74, 88
2, 10139, Note_off_c, 0, 74, 0
2, 10140, Note_on_c, 0, 69, 88
2, 10199, Note_off_c, 0, 69, 0
2, 10200, Note_on_c, 0, 65, 88
2, 10259, Note_off_c, 0, 65, 0
2, 10260, Note_on_c, 0, 64, 88
2, 10319, Note_off_c, 0, 64, 0
2, 10320, Note_on_c, 0, 65, 88
2, 10379, Note_off_c, 0, 65, 0
2, 10380, Note_on_c, 0, 69, 88
2, 10439, Note_off_c, 0, 69, 0
2, 10440, Note_on_c, 0, 62, 88
2, 10499, Note_off_c, 0, 62, 0
2, 10500, Note_on_c, 0, 65, 88
2, 10559, Note_off_c, 0, 65, 0
2, 10560, Note_on_c, 0, 69, 88
2, 10619, Note_off_c, 0, 69, 0
2, 10620, Note_on_c, 0, 72, 88
2, 10679, Note_off_c, 0, 72, 0
2, 10680, Note_on_c, 0, 70, 88
2, 10739, Note_off_c, 0, 70, 0
2, 10740, Note_on_c, 0, 69, 88
2, 10799, Note_off_c, 0, 69, 0
2, 10800, Note_on_c, 0, 77, 88
2, 10859, Note_off_c, 0, 77, 0
2, 10860, Note_on_c, 0, 74, 88
2, 10919, Note_off_c, 0, 74, 0
2, 10920, Note_on_c, 0, 70, 88
2, 10979, Note_off_c, 0, 70, 0
2, 10980, Note_on_c, 0, 69, 88
2, 11039, Note_off_c, 0, 69, 0
2, 11040, Note_on_c, 0, 70, 88
2, 11099, Note_off_c, 0, 70, 0
2, 11100, Note_on_c, 0, 74, 88
2, 11159, Note_off_c, 0, 74, 0
2, 11160, Note_on_c, 0, 65, 88
2, 11219, Note_off_c, 0, 65, 0
2, 11220, Note_on_c, 0, 70, 88
2, 11279, Note_off_c, 0, 70, 0
2, 11280, Note_on_c, 0, 74, 88
2, 11339, Note_off_c, 0, 74, 0
2, 11340, Note_on_c, 0, 77, 88
2, 11399, Note_off_c, 0, 77, 0
2, 11400, Note_on_c, 0, 76, 88
2, 11459, Note_off_c, 0, 76, 0
2, 11460, Note_on_c, 0, 74, 88
2, 11519, Note_off_c, 0, 74, 0
2, 11520, Note_on_c, 0, 81, 88
2, 11587, Note_off_c, 0, 81, 0
2, 11588, Note_on_c, 0, 80, 88
2, 11617, Note_off_c, 0, 80, 0
2, 11618, Note_on_c, 0, 81, 88
2, 11647, Note_off_c, 0, 81, 0
2, 11648, Note_on_c, 0, 80, 88
2, 11677, Note_off_c, 0, 80, 0
2, 11678, Note_on_c, 0, 81, 88
2, 11707, Note_off_c, 0, 81, 0
2, 11708, Note_on_c, 0, 80, 88
2, 11737, Note_off_c, 0, 80, 0
2, 11738, Note_on_c, 0, 81, 88
2, 11767, Note_off_c, 0, 81, 0
2, 11768, Note_on_c, 0, 80, 88
2, 11789, Note_off_c, 0, 80, 0
2, 11790, Note_on_c, 0, 81, 88
2, 11812, Note_off_c, 0, 81, 0
2, 11813, Note_on_c, 0, 80, 88
2, 11834, Note_off_c, 0, 80, 0
2, 11835, Note_on_c, 0, 81, 88
2, 11857, Note_off_c, 0, 81, 0
2, 11858, Note_on_c, 0, 80, 88
2, 11879, Note_off_c, 0, 80, 0
2, 11880, Note_on_c, 0, 81, 88
2, 11902, Note_off_c, 0, 81, 0
2, 11903, Note_on_c, 0, 80, 88
2, 11924, Note_off_c, 0, 80, 0
2, 11925, Note_on_c, 0, 81, 88
2, 11947, Note_off_c, 0, 81, 0
2, 11948, Note_on_c, 0, 80, 88
2, 11969, Note_off_c, 0, 80, 0
2, 11970, Note_on_c, 0, 81, 88
2, 11992, Note_off_c, 0, 81, 0
2, 11993, Note_on_c, 0, 80, 88
2, 12014, Note_off_c, 0, 80, 0
2, 12015, Note_on_c, 0, 81, 88
2, 12037, Note_off_c, 0, 81, 0
2, 12038, Note_on_c, 0, 80, 88
2, 12059, Note_off_c, 0, 80, 0
2, 12060, Note_on_c, 0, 81, 88
2, 12082, Note_off_c, 0, 81, 0
2, 12083, Note_on_c, 0, 80, 88
2, 12104, Note_off_c, 0, 80, 0
2, 12105, Note_on_c, 0, 81, 88
2, 12127, Note_off_c, 0, 81, 0
2, 12128, Note_on_c, 0, 80, 88
2, 12149, Note_off_c, 0, 80, 0
2, 12150, Note_on_c, 0, 81, 88
2, 12172, Note_off_c, 0, 81, 0
2, 12173, Note_on_c, 0, 80, 88
2, 12239, Note_off_c, 0, 80, 0
2, 12240, Note_on_c, 0, 81, 88
2, 12299, Note_off_c, 0, 81, 0
2, 12300, Note_on_c, 0, 76, 88
2, 12359, Note_off_c, 0, 76, 0
2, 12360, Note_on_c, 0, 73, 88
2, 12419, Note_off_c, 0, 73, 0
2, 12420, Note_on_c, 0, 71, 88
2, 12479, Note_off_c, 0, 71, 0
2, 12480, Note_on_c, 0, 73, 88
2, 12539, Note_off_c, 0, 73, 0
2, 12540, Note_on_c, 0, 76, 88
2, 12599, Note_off_c, 0, 76, 0
2, 12600, Note_on_c, 0, 69, 88
2, 12659, Note_off_c, 0, 69, 0
2, 12660, Note_on_c, 0, 73, 88
2, 12719, Note_off_c, 0, 73, 0
2, 12720, Note_on_c, 0, 76, 88
2, 12779, Note_off_c, 0, 76, 0
2, 12780, Note_on_c, 0, 79, 88
2, 12839, Note_off_c, 0, 79, 0
2, 12840, Note_on_c, 0, 78, 88
2, 12899, Note_off_c, 0, 78, 0
2, 12900, Note_on_c, 0, 76, 88
2, 12959, Note_off_c, 0, 76, 0
2, 12960, Note_on_c, 0, 78, 88
2, 13027, Note_off_c, 0, 78, 0
2, 13028, Note_on_c, 0, 79, 88
2, 13057, Note_off_c, 0, 79, 0
2, 13058, Note_on_c, 0, 78, 88
2, 13087, Note_off_c, 0, 78, 0
2, 13088, Note_on_c, 0, 79, 88
2, 13117, Note_off_c, 0, 79, 0
2, 13118, Note_on_c, 0, 78, 88
2, 13147, Note_off_c, 0, 78, 0
2, 13148, Note_on_c, 0, 79, 88
2, 13177, Note_off_c, 0, 79, 0
2, 13178, Note_on_c, 0, 78, 88
2, 13207, Note_off_c, 0, 78, 0
2, 13208, Note_on_c, 0, 79, 88
2, 13237, Note_off_c, 0, 79, 0
2, 13238, Note_on_c, 0, 78, 88
2, 13267, Note_off_c, 0, 78, 0
2, 13268, Note_on_c, 0, 79, 88
2, 13297, Note_off_c, 0, 79, 0
2, 13298, Note_on_c, 0, 78, 88
2, 13319, Note_off_c, 0, 78, 0
2, 13320, Note_on_c, 0, 79, 88
2, 13342, Note_off_c, 0, 79, 0
2, 13343, Note_on_c, 0, 78, 88
2, 13364, Note_off_c, 0, 78, 0
2, 13365, Note_on_c, 0, 79, 88
2, 13387, Note_off_c, 0, 79, 0
2, 13388, Note_on_c, 0, 78, 88
2, 13409, Note_off_c, 0, 78, 0
2, 13410, Note_on_c, 0, 79, 88
2, 13432, Note_off_c, 0, 79, 0
2, 13433, Note_on_c, 0, 78, 88
2, 13454, Note_off_c, 0, 78, 0
2, 13455, Note_on_c, 0, 79, 88
2, 13477, Note_off_c, 0, 79, 0
2, 13478, Note_on_c, 0, 78, 88
2, 13499, Note_off_c, 0, 78, 0
2, 13500, Note_on_c, 0, 79, 88
2, 13522, Note_off_c, 0, 79, 0
2, 13523, Note_on_c, 0, 78, 88
2, 13544, Note_off_c, 0, 78, 0
2, 13545, Note_on_c, 0, 79, 88
2, 13567, Note_off_c, 0, 79, 0
2, 13568, Note_on_c, 0, 78, 88
2, 13589, Note_off_c, 0, 78, 0
2, 13590, Note_on_c, 0, 79, 88
2, 13612, Note_off_c, 0, 79, 0
2, 13613, Note_on_c, 0, 78, 88
2, 13679, Note_off_c, 0, 78, 0
2, 13680, Note_on_c, 0, 79, 88
2, 13739, Note_off_c, 0, 79, 0
2, 13740, Note_on_c, 0, 74, 88
2, 13799, Note_off_c, 0, 74, 0
2, 13800, Note_on_c, 0, 71, 88
2, 13859, Note_off_c, 0, 71, 0
2, 13860, Note_on_c, 0, 69, 88
2, 13919, Note_off_c, 0, 69, 0
2, 13920, Note_on_c, 0, 71, 88
2, 13979, Note_off_c, 0, 71, 0
2, 13980, Note_on_c, 0, 74, 88
2, 14039, Note_off_c, 0, 74, 0
2, 14040, Note_on_c, 0, 67, 88
2, 14099, Note_off_c, 0, 67, 0
2, 14100, Note_on_c, 0, 71, 88
2, 14159, Note_off_c, 0, 71, 0
2, 14160, Note_on_c, 0, 74, 88
2, 14219, Note_off_c, 0, 74, 0
2, 14220, Note_on_c, 0, 77, 88
2, 14279, Note_off_c, 0, 77, 0
2, 14280, Note_on_c, 0, 75, 88
2, 14339, Note_off_c, 0, 75, 0
2, 14340, Note_on_c, 0, 74, 88
2, 14399, Note_off_c, 0, 74, 0
2, 14400, Note_on_c, 0, 75, 88
2, 14459, Note_off_c, 0, 75, 0
2, 14460, Note_on_c, 0, 72, 88
2, 14519, Note_off_c, 0, 72, 0
2, 14520, Note_on_c, 0, 69, 88
2, 14579, Note_off_c, 0, 69, 0
2, 14580, Note_on_c, 0, 67, 88
2, 14639, Note_off_c, 0, 67, 0
2, 14640, Note_on_c, 0, 69, 88
2, 14699, Note_off_c, 0, 69, 0
2, 14700, Note_on_c, 0, 72, 88
2, 14759, Note_off_c, 0, 72, 0
2, 14760, Note_on_c, 0, 65, 88
2, 14819, Note_off_c, 0, 65, 0
2, 14820, Note_on_c, 0, 69, 88
2, 14879, Note_off_c, 0, 69, 0
2, 14880, Note_on_c, 0, 72, 88
2, 14939, Note_off_c, 0, 72, 0
2, 14940, Note_on_c, 0, 75, 88
2, 14999, Note_off_c, 0, 75, 0
2, 15000, Note_on_c, 0, 74, 88
2, 15059, Note_off_c, 0, 74, 0
2, 15060, Note_on_c, 0, 72, 88
2, 15119, Note_off_c, 0, 72, 0
2, 15120, Note_on_c, 0, 74, 88
2, 15179, Note_off_c, 0, 74, 0
2, 15180, Note_on_c, 0, 70, 88
2, 15239, Note_off_c, 0, 70, 0
2, 15240, Note_on_c, 0, 67, 88
2, 15299, Note_off_c, 0, 67, 0
2, 15300, Note_on_c, 0, 66, 88
2, 15359, Note_off_c, 0, 66, 0
2, 15360, Note_on_c, 0, 67, 88
2, 15419, Note_off_c, 0, 67, 0
2, 15420, Note_on_c, 0, 70, 88
2, 15479, Note_off_c, 0, 70, 0
2, 15480, Note_on_c, 0, 63, 88
2, 15539, Note_off_c, 0, 63, 0
2, 15540, Note_on_c, 0, 67, 88
2, 15599, Note_off_c, 0, 67, 0
2, 15600, Note_on_c, 0, 70, 88
2, 15659, Note_off_c, 0, 70, 0
2, 15660, Note_on_c, 0, 74, 88
2, 15719, Note_off_c, 0, 74, 0
2, 15720, Note_on_c, 0, 72, 88
2, 15779, Note_off_c, 0, 72, 0
2, 15780, Note_on_c, 0, 70, 88
2, 15839, Note_off_c, 0, 70, 0
2, 15840, Note_on_c, 0, 72, 88
2, 15899, Note_off_c, 0, 72, 0
2, 15900, Note_on_c, 0, 69, 88
2, 15959, Note_off_c, 0, 69, 0
2, 15960, Note_on_c, 0, 66, 88
2, 16019, Note_off_c, 0, 66, 0
2, 16020, Note_on_c, 0, 64, 88
2, 16079, Note_off_c, 0, 64, 0
2, 16080, Note_on_c, 0, 66, 88
2, 16139, Note_off_c, 0, 66, 0
2, 16140, Note_on_c, 0, 69, 88
2, 16199, Note_off_c, 0, 69, 0
2, 16200, Note_on_c, 0, 62, 88
2, 16259, Note_off_c, 0, 62, 0
2, 16260, Note_on_c, 0, 66, 88
2, 16319, Note_off_c, 0, 66, 0
2, 16320, Note_on_c, 0, 69, 88
2, 16379, Note_off_c, 0, 69, 0
2, 16380, Note_on_c, 0, 72, 88
2, 16439, Note_off_c, 0, 72, 0
2, 16440, Note_on_c, 0, 70, 88
2, 16499, Note_off_c, 0, 70, 0
2, 16500, Note_on_c, 0, 69, 88
2, 16559, Note_off_c, 0, 69, 0
2, 16560, Note_on_c, 0, 70, 88
2, 16627, Note_off_c, 0, 70, 0
2, 16628, Note_on_c, 0, 72, 88
2, 16657, Note_off_c, 0, 72, 0
2, 16658, Note_on_c, 0, 70, 88
2, 16687, Note_off_c, 0, 70, 0
2, 16688, Note_on_c, 0, 72, 88
2, 16717, Note_off_c, 0, 72, 0
2, 16718, Note_on_c, 0, 70, 88
2, 16747, Note_off_c, 0, 70, 0
2, 16748, Note_on_c, 0, 72, 88
2, 16777, Note_off_c, 0, 72, 0
2, 16778, Note_on_c, 0, 70, 88
2, 16807, Note_off_c, 0, 70, 0
2, 16808, Note_on_c, 0, 72, 88
2, 16837, Note_off_c, 0, 72, 0
2, 16838, Note_on_c, 0, 70, 88
2, 16867, Note_off_c, 0, 70, 0
2, 16868, Note_on_c, 0, 72, 88
2, 16897, Note_off_c, 0, 72, 0
2, 16898, Note_on_c, 0, 70, 88
2, 16919, Note_off_c, 0, 70, 0
2, 16920, Note_on_c, 0, 72, 88
2, 16942, Note_off_c, 0, 72, 0
2, 16943, Note_on_c, 0, 70, 88
2, 16964, Note_off_c, 0, 70, 0
2, 16965, Note_on_c, 0, 72, 88
2, 16987, Note_off_c, 0, 72, 0
2, 16988, Note_on_c, 0, 70, 88
2, 17009, Note_off_c, 0, 70, 0
2, 17010, Note_on_c, 0, 72, 88
2, 17032, Note_off_c, 0, 72, 0
2, 17033, Note_on_c, 0, 70, 88
2, 17054, Note_off_c, 0, 70, 0
2, 17055, Note_on_c, 0, 72, 88
2, 17077, Note_off_c, 0, 72, 0
2, 17078, Note_on_c, 0, 70, 88
2, 17099, Note_off_c, 0, 70, 0
2, 17100, Note_on_c, 0, 72, 88
2, 17122, Note_off_c, 0, 72, 0
2, 17123, Note_on_c, 0, 70, 88
2, 17144, Note_off_c, 0, 70, 0
2, 17145, Note_on_c, 0, 72, 88
2, 17167, Note_off_c, 0, 72, 0
2, 17168, Note_on_c, 0, 70, 88
2, 17189, Note_off_c, 0, 70, 0
2, 17190, Note_on_c, 0, 72, 88
2, 17212, Note_off_c, 0, 72, 0
2, 17213, Note_on_c, 0, 70, 88
2, 17279, Note_off_c, 0, 70, 0
2, 17280, Note_on_c, 0, 70, 88
2, 17999, Note_off_c, 0, 70, 0
2, 18000, Note_on_c, 0, 69, 88
2, 18779, Note_off_c, 0, 69, 0
2, 18780, Note_on_c, 0, 69, 88
2, 18839, Note_off_c, 0, 69, 0
2, 18840, Note_on_c, 0, 65, 88
2, 18899, Note_off_c, 0, 65, 0
2, 18900, Note_on_c, 0, 64, 88
2, 18959, Note_off_c, 0, 64, 0
2, 18960, Note_on_c, 0, 65, 88
2, 19019, Note_off_c, 0, 65, 0
2, 19020, Note_on_c, 0, 69, 88
2, 19079, Note_off_c, 0, 69, 0
2, 19080, Note_on_c, 0, 62, 88
2, 19139, Note_off_c, 0, 62, 0
2, 19140, Note_on_c, 0, 65, 88
2, 19199, Note_off_c, 0, 65, 0
2, 19200, Note_on_c, 0, 69, 88
2, 19259, Note_off_c, 0, 69, 0
2, 19260, Note_on_c, 0, 72, 88
2, 19319, Note_off_c, 0, 72, 0
2, 19320, Note_on_c, 0, 70, 88
2, 19379, Note_off_c, 0, 70, 0
2, 19380, Note_on_c, 0, 69, 88
2, 19439, Note_off_c, 0, 69, 0
2, 19440, Note_on_c, 0, 67, 88
2, 19499, Note_off_c, 0, 67, 0
2, 19500, Note_on_c, 0, 74, 88
2, 19559, Note_off_c, 0, 74, 0
2, 19560, Note_on_c, 0, 70, 88
2, 19619, Note_off_c, 0, 70, 0
2, 19620, Note_on_c, 0, 69, 88
2, 19679, Note_off_c, 0, 69, 0
2, 19680, Note_on_c, 0, 70, 88
2, 19739, Note_off_c, 0, 70, 0
2, 19740, Note_on_c, 0, 74, 88
2, 19799, Note_off_c, 0, 74, 0
2, 19800, Note_on_c, 0, 67, 88
2, 19859, Note_off_c, 0, 67, 0
2, 19860, Note_on_c, 0, 70, 88
2, 19919, Note_off_c, 0, 70, 0
2, 19920, Note_on_c, 0, 74, 88
2, 19979, Note_off_c, 0, 74, 0
2, 19980, Note_on_c, 0, 77, 88
2, 20039, Note_off_c, 0, 77, 0
2, 20040, Note_on_c, 0, 76, 88
2, 20099, Note_off_c, 0, 76, 0
2, 20100, Note_on_c, 0, 74, 88
2, 20159, Note_off_c, 0, 74, 0
2, 20160, Note_on_c, 0, 76, 88
2, 20219, Note_off_c, 0, 76, 0
2, 20220, Note_on_c, 0, 79, 88
2, 20279, Note_off_c, 0, 79, 0
2, 20280, Note_on_c, 0, 76, 88
2, 20339, Note_off_c, 0, 76, 0
2, 20340, Note_on_c, 0, 74, 88
2, 20399, Note_off_c, 0, 74, 0
2, 20400, Note_on_c, 0, 76, 88
2, 20459, Note_off_c, 0, 76, 0
2, 20460, Note_on_c, 0, 79, 88
2, 20519, Note_off_c, 0, 79, 0
2, 20520, Note_on_c, 0, 72, 88
2, 20579, Note_off_c, 0, 72, 0
2, 20580, Note_on_c, 0, 76, 88
2, 20639, Note_off_c, 0, 76, 0
2, 20640, Note_on_c, 0, 79, 88
2, 20699, Note_off_c, 0, 79, 0
2, 20700, Note_on_c, 0, 82, 88
2, 20759, Note_off_c, 0, 82, 0
2, 20760, Note_on_c, 0, 81, 88
2, 20819, Note_off_c, 0, 81, 0
2, 20820, Note_on_c, 0, 79, 88
2, 20879, Note_off_c, 0, 79, 0
2, 20880, Note_on_c, 0, 84, 88
2, 20939, Note_off_c, 0, 84, 0
2, 20940, Note_on_c, 0, 81, 88
2, 20999, Note_off_c, 0, 81, 0
2, 21000, Note_on_c, 0, 77, 88
2, 21059, Note_off_c, 0, 77, 0
2, 21060, Note_on_c, 0, 76, 88
2, 21119, Note_off_c, 0, 76, 0
2, 21120, Note_on_c, 0, 77, 88
2, 21179, Note_off_c, 0, 77, 0
2, 21180, Note_on_c, 0, 81, 88
2, 21239, Note_off_c, 0, 81, 0
2, 21240, Note_on_c, 0, 74, 88
2, 21299, Note_off_c, 0, 74, 0
2, 21300, Note_on_c, 0, 77, 88
2, 21359, Note_off_c, 0, 77, 0
2, 21360, Note_on_c, 0, 81, 88
2, 21419, Note_off_c, 0, 81, 0
2, 21420, Note_on_c, 0, 84, 88
2, 21479, Note_off_c, 0, 84, 0
2, 21480, Note_on_c, 0, 82, 88
2, 21539, Note_off_c, 0, 82, 0
2, 21540, Note_on_c, 0, 81, 88
2, 21599, Note_off_c, 0, 81, 0
2, 21600, Note_on_c, 0, 82, 88
2, 21659, Note_off_c, 0, 82, 0
2, 21660, Note_on_c, 0, 79, 88
2, 21719, Note_off_c, 0, 79, 0
2, 21720, Note_on_c, 0, 76, 88
2, 21779, Note_off_c, 0, 76, 0
2, 21780, Note_on_c, 0, 74, 88
2, 21839, Note_off_c, 0, 74, 0
2, 21840, Note_on_c, 0, 76, 88
2, 21899, Note_off_c, 0, 76, 0
2, 21900, Note_on_c, 0, 79, 88
2, 21959, Note_off_c, 0, 79, 0
2, 21960, Note_on_c, 0, 72, 88
2, 22019, Note_off_c, 0, 72, 0
2, 22020, Note_on_c, 0, 76, 88
2, 22079, Note_off_c, 0, 76, 0
2, 22080, Note_on_c, 0, 79, 88
2, 22139, Note_off_c, 0, 79, 0
2, 22140, Note_on_c, 0, 82, 88
2, 22199, Note_off_c, 0, 82, 0
2, 22200, Note_on_c, 0, 81, 88
2, 22259, Note_off_c, 0, 81, 0
2, 22260, Note_on_c, 0, 79, 88
2, 22319, Note_off_c, 0, 79, 0
2, 22320, Note_on_c, 0, 81, 88
2, 22379, Note_off_c, 0, 81, 0
2, 22380, Note_on_c, 0, 77, 88
2, 22439, Note_off_c, 0, 77, 0
2, 22440, Note_on_c, 0, 72, 88
2, 22499, Note_off_c, 0, 72, 0
2, 22500, Note_on_c, 0, 70, 88
2, 22559, Note_off_c, 0, 70, 0
2, 22560, Note_on_c, 0, 72, 88
2, 22619, Note_off_c, 0, 72, 0
2, 22620, Note_on_c, 0, 77, 88
2, 22679, Note_off_c, 0, 77, 0
2, 22680, Note_on_c, 0, 69, 88
2, 22739, Note_off_c, 0, 69, 0
2, 22740, Note_on_c, 0, 72, 88
2, 22799, Note_off_c, 0, 72, 0
2, 22800, Note_on_c, 0, 75, 88
2, 22859, Note_off_c, 0, 75, 0
2, 22860, Note_on_c, 0, 79, 88
2, 22919, Note_off_c, 0, 79, 0
2, 22920, Note_on_c, 0, 77, 88
2, 22979, Note_off_c, 0, 77, 0
2, 22980, Note_on_c, 0, 75, 88
2, 23039, Note_off_c, 0, 75, 0
2, 23040, Note_on_c, 0, 75, 88
2, 23069, Note_off_c, 0, 75, 0
2, 23070, Note_on_c, 0, 74, 88
2, 23099, Note_off_c, 0, 74, 0
2, 23100, Note_on_c, 0, 75, 88
2, 23129, Note_off_c, 0, 75, 0
2, 23130, Note_on_c, 0, 74, 88
2, 23159, Note_off_c, 0, 74, 0
2, 23160, Note_on_c, 0, 75, 88
2, 23189, Note_off_c, 0, 75, 0
2, 23190, Note_on_c, 0, 74, 88
2, 23219, Note_off_c, 0, 74, 0
2, 23220, Note_on_c, 0, 75, 88
2, 23249, Note_off_c, 0, 75, 0
2, 23250, Note_on_c, 0, 74, 88
2, 23279, Note_off_c, 0, 74, 0
2, 23280, Note_on_c, 0, 75, 88
2, 23309, Note_off_c, 0, 75, 0
2, 23310, Note_on_c, 0, 74, 88
2, 23332, Note_off_c, 0, 74, 0
2, 23333, Note_on_c, 0, 75, 88
2, 23354, Note_off_c, 0, 75, 0
2, 23355, Note_on_c, 0, 74, 88
2, 23377, Note_off_c, 0, 74, 0
2, 23378, Note_on_c, 0, 75, 88
2, 23399, Note_off_c, 0, 75, 0
2, 23400, Note_on_c, 0, 74, 88
2, 23459, Note_off_c, 0, 74, 0
2, 23460, Note_on_c, 0, 72, 88
2, 23519, Note_off_c, 0, 72, 0
2, 23520, Note_on_c, 0, 70, 88
2, 23579, Note_off_c, 0, 70, 0
2, 23580, Note_on_c, 0, 69, 88
2, 23639, Note_off_c, 0, 69, 0
2, 23640, Note_on_c, 0, 67, 88
2, 23699, Note_off_c, 0, 67, 0
2, 23700, Note_on_c, 0, 65, 88
2, 23759, Note_off_c, 0, 65, 0
2, 23760, Note_on_c, 0, 70, 88
2, 23879, Note_off_c, 0, 70, 0
2, 23880, Note_on_c, 0, 79, 88
2, 23999, Note_off_c, 0, 79, 0
2, 24000, Note_on_c, 0, 76, 88
2, 24119, Note_off_c, 0, 76, 0
2, 24120, Note_on_c, 0, 72, 88
2, 24239, Note_off_c, 0, 72, 0
2, 24240, Note_on_c, 0, 70, 88
2, 24359, Note_off_c, 0, 70, 0
2, 24360, Note_on_c, 0, 79, 88
2, 24479, Note_off_c, 0, 79, 0
2, 24480, Note_on_c, 0, 69, 88
2, 24539, Note_off_c, 0, 69, 0
2, 24540, Note_on_c, 0, 67, 88
2, 24599, Note_off_c, 0, 67, 0
2, 24600, Note_on_c, 0, 65, 88
2, 24659, Note_off_c, 0, 65, 0
2, 24660, Note_on_c, 0, 64, 88
2, 24719, Note_off_c, 0, 64, 0
2, 24720, Note_on_c, 0, 65, 88
2, 24779, Note_off_c, 0, 65, 0
2, 24780, Note_on_c, 0, 69, 88
2, 24839, Note_off_c, 0, 69, 0
2, 24840, Note_on_c, 0, 62, 88
2, 24899, Note_off_c, 0, 62, 0
2, 24900, Note_on_c, 0, 65, 88
2, 24959, Note_off_c, 0, 65, 0
2, 24960, Note_on_c, 0, 62, 88
2, 25019, Note_off_c, 0, 62, 0
2, 25020, Note_on_c, 0, 58, 88
2, 25079, Note_off_c, 0, 58, 0
2, 25080, Note_on_c, 0, 55, 88
2, 25139, Note_off_c, 0, 55, 0
2, 25140, Note_on_c, 0, 64, 88
2, 25199, Note_off_c, 0, 64, 0
2, 25200, Note_on_c, 0, 65, 88
2, 25259, Note_off_c, 0, 65, 0
2, 25260, Note_on_c, 0, 58, 88
2, 25319, Note_off_c, 0, 58, 0
2, 25320, Note_on_c, 0, 57, 88
2, 25379, Note_off_c, 0, 57, 0
2, 25380, Note_on_c, 0, 55, 88
2, 25439, Note_off_c, 0, 55, 0
2, 25440, Note_on_c, 0, 57, 88
2, 25499, Note_off_c, 0, 57, 0
2, 25500, Note_on_c, 0, 60, 88
2, 25559, Note_off_c, 0, 60, 0
2, 25560, Note_on_c, 0, 53, 88
2, 25600, Note_off_c, 0, 53, 0
2, 25600, End_track
0, 0, End_of_file