0, 0, Header, 1, 2, 240
1, 0, Start_track
1, 0, Time_signature, 4, 2, 24, 8
1, 0, Tempo, 882352
1, 0, SMPTE_offset, 64, 0, 0, 0, 100
1, 0, End_track
2, 0, Start_track
2, 0, Title_t, "Track 1"
2, 0, Program_c, 0, 6
2, 0, Note_on_c, 0, 58, 88
2, 29, Note_off_c, 0, 58, 0
2, 30, Note_on_c, 0, 65, 88
2, 59, Note_off_c, 0, 65, 0
2, 60, Note_on_c, 0, 74, 88
2, 89, Note_off_c, 0, 74, 0
2, 90, Note_on_c, 0, 65, 88
2, 119, Note_off_c, 0, 65, 0
2, 120, Note_on_c, 0, 57, 88
2, 149, Note_off_c, 0, 57, 0
2, 150, Note_on_c, 0, 65, 88
2, 179, Note_off_c, 0, 65, 0
2, 180, Note_on_c, 0, 72, 88
2, 209, Note_off_c, 0, 72, 0
2, 210, Note_on_c, 0, 65, 88
2, 239, Note_off_c, 0, 65, 0
2, 240, Note_on_c, 0, 58, 88
2, 269, Note_off_c, 0, 58, 0
2, 270, Note_on_c, 0, 65, 88
2, 299, Note_off_c, 0, 65, 0
2, 300, Note_on_c, 0, 74, 88
2, 329, Note_off_c, 0, 74, 0
2, 330, Note_on_c, 0, 65, 88
2, 359, Note_off_c, 0, 65, 0
2, 360, Note_on_c, 0, 53, 88
2, 389, Note_off_c, 0, 53, 0
2, 390, Note_on_c, 0, 69, 88
2, 419, Note_off_c, 0, 69, 0
2, 420, Note_on_c, 0, 77, 88
2, 449, Note_off_c, 0, 77, 0
2, 450, Note_on_c, 0, 69, 88
2, 479, Note_off_c, 0, 69, 0
2, 480, Note_on_c, 0, 55, 88
2, 509, Note_off_c, 0, 55, 0
2, 510, Note_on_c, 0, 62, 88
2, 539, Note_off_c, 0, 62, 0
2, 540, Note_on_c, 0, 70, 88
2, 569, Note_off_c, 0, 70, 0
2, 570, Note_on_c, 0, 62, 88
2, 599, Note_off_c, 0, 62, 0
2, 600, Note_on_c, 0, 53, 88
2, 629, Note_off_c, 0, 53, 0
2, 630, Note_on_c, 0, 62, 88
2, 659, Note_off_c, 0, 62, 0
2, 660, Note_on_c, 0, 69, 88
2, 689, Note_off_c, 0, 69, 0
2, 690, Note_on_c, 0, 62, 88
2, 719, Note_off_c, 0, 62, 0
2, 720, Note_on_c, 0, 55, 88
2, 749, Note_off_c, 0, 55, 0
2, 750, Note_on_c, 0, 62, 88
2, 779, Note_off_c, 0, 62, 0
2, 780, Note_on_c, 0, 70, 88
2, 809, Note_off_c, 0, 70, 0
2, 810, Note_on_c, 0, 62, 88
2, 839, Note_off_c, 0, 62, 0
2, 840, Note_on_c, 0, 50, 88
2, 869, Note_off_c, 0, 50, 0
2, 870, Note_on_c, 0, 65, 88
2, 899, Note_off_c, 0, 65, 0
2, 900, Note_on_c, 0, 74, 88
2, 929, Note_off_c, 0, 74, 0
2, 930, Note_on_c, 0, 65, 88
2, 959, Note_off_c, 0, 65, 0
2, 960, Note_on_c, 0, 51, 88
2, 989, Note_off_c, 0, 51, 0
2, 990, Note_on_c, 0, 58, 88
2, 1019, Note_off_c, 0, 58, 0
2, 1020, Note_on_c, 0, 67, 88
2, 1049, Note_off_c, 0, 67, 0
2, 1050, Note_on_c, 0, 58, 88
2, 1079, Note_off_c, 0, 58, 0
2, 1080, Note_on_c, 0, 50, 88
2, 1109, Note_off_c, 0, 50, 0
2, 1110, Note_on_c, 0, 58, 88
2, 1139, Note_off_c, 0, 58, 0
2, 1140, Note_on_c, 0, 65, 88
2, 1169, Note_off_c, 0, 65, 0
2, 1170, Note_on_c, 0, 58, 88
2, 1199, Note_off_c, 0, 58, 0
2, 1200, Note_on_c, 0, 51, 88
2, 1229, Note_off_c, 0, 51, 0
2, 1230, Note_on_c, 0, 58, 88
2, 1259, Note_off_c, 0, 58, 0
2, 1260, Note_on_c, 0, 67, 88
2, 1289, Note_off_c, 0, 67, 0
2, 1290, Note_on_c, 0, 58, 88
2, 1319, Note_off_c, 0, 58, 0
2, 1320, Note_on_c, 0, 46, 88
2, 1349, Note_off_c, 0, 46, 0
2, 1350, Note_on_c, 0, 62, 88
2, 1379, Note_off_c, 0, 62, 0
2, 1380, Note_on_c, 0, 70, 88
2, 1409, Note_off_c, 0, 70, 0
2, 1410, Note_on_c, 0, 62, 88
2, 1439, Note_off_c, 0, 62, 0
2, 1440, Note_on_c, 0, 48, 88
2, 1469, Note_off_c, 0, 48, 0
2, 1470, Note_on_c, 0, 62, 88
2, 1499, Note_off_c, 0, 62, 0
2, 1500, Note_on_c, 0, 63, 88
2, 1529, Note_off_c, 0, 63, 0
2, 1530, Note_on_c, 0, 62, 88
2, 1559, Note_off_c, 0, 62, 0
2, 1560, Note_on_c, 0, 46, 88
2, 1589, Note_off_c, 0, 46, 0
2, 1590, Note_on_c, 0, 62, 88
2, 1619, Note_off_c, 0, 62, 0
2, 1620, Note_on_c, 0, 67, 88
2, 1649, Note_off_c, 0, 67, 0
2, 1650, Note_on_c, 0, 62, 88
2, 1679, Note_off_c, 0, 62, 0
2, 1680, Note_on_c, 0, 45, 88
2, 1709, Note_off_c, 0, 45, 0
2, 1710, Note_on_c, 0, 60, 88
2, 1739, Note_off_c, 0, 60, 0
2, 1740, Note_on_c, 0, 65, 88
2, 1769, Note_off_c, 0, 65, 0
2, 1770, Note_on_c, 0, 60, 88
2, 1799, Note_off_c, 0, 60, 0
2, 1800, Note_on_c, 0, 41, 88
2, 1829, Note_off_c, 0, 41, 0
2, 1830, Note_on_c, 0, 57, 88
2, 1859, Note_off_c, 0, 57, 0
2, 1860, Note_on_c, 0, 63, 88
2, 1889, Note_off_c, 0, 63, 0
2, 1890, Note_on_c, 0, 57, 88
2, 1919, Note_off_c, 0, 57, 0
2, 1920, Note_on_c, 0, 58, 88
2, 1949, Note_off_c, 0, 58, 0
2, 1950, Note_on_c, 0, 62, 88
2, 1979, Note_off_c, 0, 62, 0
2, 1980, Note_on_c, 0, 65, 88
2, 2009, Note_off_c, 0, 65, 0
2, 2010, Note_on_c, 0, 62, 88
2, 2039, Note_off_c, 0, 62, 0
2, 2040, Note_on_c, 0, 53, 88
2, 2069, Note_off_c, 0, 53, 0
2, 2070, Note_on_c, 0, 58, 88
2, 2099, Note_off_c, 0, 58, 0
2, 2100, Note_on_c, 0, 62, 88
2, 2129, Note_off_c, 0, 62, 0
2, 2130, Note_on_c, 0, 58, 88
2, 2159, Note_off_c, 0, 58, 0
2, 2160, Note_on_c, 0, 50, 88
2, 2189, Note_off_c, 0, 50, 0
2, 2190, Note_on_c, 0, 53, 88
2, 2219, Note_off_c, 0, 53, 0
2, 2220, Note_on_c, 0, 58, 88
2, 2249, Note_off_c, 0, 58, 0
2, 2250, Note_on_c, 0, 53, 88
2, 2279, Note_off_c, 0, 53, 0
2, 2280, Note_on_c, 0, 46, 88
2, 2309, Note_off_c, 0, 46, 0
2, 2310, Note_on_c, 0, 50, 88
2, 2339, Note_off_c, 0, 50, 0
2, 2340, Note_on_c, 0, 53, 88
2, 2369, Note_off_c, 0, 53, 0
2, 2370, Note_on_c, 0, 50, 88
2, 2399, Note_off_c, 0, 50, 0
2, 2400, Note_on_c, 0, 43, 88
2, 2429, Note_off_c, 0, 43, 0
2, 2430, Note_on_c, 0, 50, 88
2, 2459, Note_off_c, 0, 50, 0
2, 2460, Note_on_c, 0, 52, 88
2, 2489, Note_off_c, 0, 52, 0
2, 2490, Note_on_c, 0, 54, 88
2, 2519, Note_off_c, 0, 54, 0
2, 2520, Note_on_c, 0, 55, 88
2, 2549, Note_off_c, 0, 55, 0
2, 2550, Note_on_c, 0, 57, 88
2, 2579, Note_off_c, 0, 57, 0
2, 2580, Note_on_c, 0, 58, 88
2, 2609, Note_off_c, 0, 58, 0
2, 2610, Note_on_c, 0, 60, 88
2, 2639, Note_off_c, 0, 60, 0
2, 2640, Note_on_c, 0, 58, 88
2, 2669, Note_off_c, 0, 58, 0
2, 2670, Note_on_c, 0, 55, 88
2, 2699, Note_off_c, 0, 55, 0
2, 2700, Note_on_c, 0, 57, 88
2, 2729, Note_off_c, 0, 57, 0
2, 2730, Note_on_c, 0, 58, 88
2, 2759, Note_off_c, 0, 58, 0
2, 2760, Note_on_c, 0, 60, 88
2, 2789, Note_off_c, 0, 60, 0
2, 2790, Note_on_c, 0, 62, 88
2, 2819, Note_off_c, 0, 62, 0
2, 2820, Note_on_c, 0, 64, 88
2, 2849, Note_off_c, 0, 64, 0
2, 2850, Note_on_c, 0, 65, 88
2, 2879, Note_off_c, 0, 65, 0
2, 2880, Note_on_c, 0, 60, 88
2, 2909, Note_off_c, 0, 60, 0
2, 2910, Note_on_c, 0, 64, 88
2, 2939, Note_off_c, 0, 64, 0
2, 2940, Note_on_c, 0, 67, 88
2, 2969, Note_off_c, 0, 67, 0
2, 2970, Note_on_c, 0, 64, 88
2, 2999, Note_off_c, 0, 64, 0
2, 3000, Note_on_c, 0, 55, 88
2, 3029, Note_off_c, 0, 55, 0
2, 3030, Note_on_c, 0, 60, 88
2, 3059, Note_off_c, 0, 60, 0
2, 3060, Note_on_c, 0, 64, 88
2, 3089, Note_off_c, 0, 64, 0
2, 3090, Note_on_c, 0, 60, 88
2, 3119, Note_off_c, 0, 60, 0
2, 3120, Note_on_c, 0, 52, 88
2, 3149, Note_off_c, 0, 52, 0
2, 3150, Note_on_c, 0, 55, 88
2, 3179, Note_off_c, 0, 55, 0
2, 3180, Note_on_c, 0, 60, 88
2, 3209, Note_off_c, 0, 60, 0
2, 3210, Note_on_c, 0, 55, 88
2, 3239, Note_off_c, 0, 55, 0
2, 3240, Note_on_c, 0, 48, 88
2, 3269, Note_off_c, 0, 48, 0
2, 3270, Note_on_c, 0, 52, 88
2, 3299, Note_off_c, 0, 52, 0
2, 3300, Note_on_c, 0, 55, 88
2, 3329, Note_off_c, 0, 55, 0
2, 3330, Note_on_c, 0, 52, 88
2, 3359, Note_off_c, 0, 52, 0
2, 3360, Note_on_c, 0, 45, 88
2, 3389, Note_off_c, 0, 45, 0
2, 3390, Note_on_c, 0, 52, 88
2, 3419, Note_off_c, 0, 52, 0
2, 3420, Note_on_c, 0, 53, 88
2, 3449, Note_off_c, 0, 53, 0
2, 3450, Note_on_c, 0, 55, 88
2, 3479, Note_off_c, 0, 55, 0
2, 3480, Note_on_c, 0, 57, 88
2, 3509, Note_off_c, 0, 57, 0
2, 3510, Note_on_c, 0, 59, 88
2, 3539, Note_off_c, 0, 59, 0
2, 3540, Note_on_c, 0, 60, 88
2, 3569, Note_off_c, 0, 60, 0
2, 3570, Note_on_c, 0, 62, 88
2, 3599, Note_off_c, 0, 62, 0
2, 3600, Note_on_c, 0, 60, 88
2, 3629, Note_off_c, 0, 60, 0
2, 3630, Note_on_c, 0, 57, 88
2, 3659, Note_off_c, 0, 57, 0
2, 3660, Note_on_c, 0, 59, 88
2, 3689, Note_off_c, 0, 59, 0
2, 3690, Note_on_c, 0, 60, 88
2, 3719, Note_off_c, 0, 60, 0
2, 3720, Note_on_c, 0, 62, 88
2, 3749, Note_off_c, 0, 62, 0
2, 3750, Note_on_c, 0, 64, 88
2, 3779, Note_off_c, 0, 64, 0
2, 3780, Note_on_c, 0, 65, 88
2, 3809, Note_off_c, 0, 65, 0
2, 3810, Note_on_c, 0, 67, 88
2, 3839, Note_off_c, 0, 67, 0
2, 3840, Note_on_c, 0, 62, 88
2, 3869, Note_off_c, 0, 62, 0
2, 3870, Note_on_c, 0, 65, 88
2, 3899, Note_off_c, 0, 65, 0
2, 3900, Note_on_c, 0, 69, 88
2, 3929, Note_off_c, 0, 69, 0
2, 3930, Note_on_c, 0, 65, 88
2, 3959, Note_off_c, 0, 65, 0
2, 3960, Note_on_c, 0, 57, 88
2, 3989, Note_off_c, 0, 57, 0
2, 3990, Note_on_c, 0, 62, 88
2, 4019, Note_off_c, 0, 62, 0
2, 4020, Note_on_c, 0, 65, 88
2, 4049, Note_off_c, 0, 65, 0
2, 4050, Note_on_c, 0, 62, 88
2, 4079, Note_off_c, 0, 62, 0
2, 4080, Note_on_c, 0, 53, 88
2, 4109, Note_off_c, 0, 53, 0
2, 4110, Note_on_c, 0, 57, 88
2, 4139, Note_off_c, 0, 57, 0
2, 4140, Note_on_c, 0, 62, 88
2, 4169, Note_off_c, 0, 62, 0
2, 4170, Note_on_c, 0, 57, 88
2, 4199, Note_off_c, 0, 57, 0
2, 4200, Note_on_c, 0, 50, 88
2, 4229, Note_off_c, 0, 50, 0
2, 4230, Note_on_c, 0, 53, 88
2, 4259, Note_off_c, 0, 53, 0
2, 4260, Note_on_c, 0, 57, 88
2, 4289, Note_off_c, 0, 57, 0
2, 4290, Note_on_c, 0, 53, 88
2, 4319, Note_off_c, 0, 53, 0
2, 4320, Note_on_c, 0, 46, 88
2, 4349, Note_off_c, 0, 46, 0
2, 4350, Note_on_c, 0, 53, 88
2, 4379, Note_off_c, 0, 53, 0
2, 4380, Note_on_c, 0, 62, 88
2, 4409, Note_off_c, 0, 62, 0
2, 4410, Note_on_c, 0, 53, 88
2, 4439, Note_off_c, 0, 53, 0
2, 4440, Note_on_c, 0, 43, 88
2, 4469, Note_off_c, 0, 43, 0
2, 4470, Note_on_c, 0, 53, 88
2, 4499, Note_off_c, 0, 53, 0
2, 4500, Note_on_c, 0, 58, 88
2, 4529, Note_off_c, 0, 58, 0
2, 4530, Note_on_c, 0, 53, 88
2, 4559, Note_off_c, 0, 53, 0
2, 4560, Note_on_c, 0, 45, 88
2, 4589, Note_off_c, 0, 45, 0
2, 4590, Note_on_c, 0, 53, 88
2, 4619, Note_off_c, 0, 53, 0
2, 4620, Note_on_c, 0, 60, 88
2, 4649, Note_off_c, 0, 60, 0
2, 4650, Note_on_c, 0, 53, 88
2, 4679, Note_off_c, 0, 53, 0
2, 4680, Note_on_c, 0, 41, 88
2, 4709, Note_off_c, 0, 41, 0
2, 4710, Note_on_c, 0, 53, 88
2, 4739, Note_off_c, 0, 53, 0
2, 4740, Note_on_c, 0, 63, 88
2, 4769, Note_off_c, 0, 63, 0
2, 4770, Note_on_c, 0, 53, 88
2, 4799, Note_off_c, 0, 53, 0
2, 4800, Note_on_c, 0, 46, 88
2, 4829, Note_off_c, 0, 46, 0
2, 4830, Note_on_c, 0, 53, 88
2, 4859, Note_off_c, 0, 53, 0
2, 4860, Note_on_c, 0, 62, 88
2, 4889, Note_off_c, 0, 62, 0
2, 4890, Note_on_c, 0, 53, 88
2, 4919, Note_off_c, 0, 53, 0
2, 4920, Note_on_c, 0, 43, 88
2, 4949, Note_off_c, 0, 43, 0
2, 4950, Note_on_c, 0, 53, 88
2, 4979, Note_off_c, 0, 53, 0
2, 4980, Note_on_c, 0, 58, 88
2, 5009, Note_off_c, 0, 58, 0
2, 5010, Note_on_c, 0, 53, 88
2, 5039, Note_off_c, 0, 53, 0
2, 5040, Note_on_c, 0, 45, 88
2, 5069, Note_off_c, 0, 45, 0
2, 5070, Note_on_c, 0, 53, 88
2, 5099, Note_off_c, 0, 53, 0
2, 5100, Note_on_c, 0, 60, 88
2, 5129, Note_off_c, 0, 60, 0
2, 5130, Note_on_c, 0, 53, 88
2, 5159, Note_off_c, 0, 53, 0
2, 5160, Note_on_c, 0, 41, 88
2, 5189, Note_off_c, 0, 41, 0
2, 5190, Note_on_c, 0, 53, 88
2, 5219, Note_off_c, 0, 53, 0
2, 5220, Note_on_c, 0, 63, 88
2, 5249, Note_off_c, 0, 63, 0
2, 5250, Note_on_c, 0, 53, 88
2, 5279, Note_off_c, 0, 53, 0
2, 5280, Note_on_c, 0, 46, 88
2, 5309, Note_off_c, 0, 46, 0
2, 5310, Note_on_c, 0, 53, 88
2, 5339, Note_off_c, 0, 53, 0
2, 5340, Note_on_c, 0, 62, 88
2, 5369, Note_off_c, 0, 62, 0
2, 5370, Note_on_c, 0, 53, 88
2, 5399, Note_off_c, 0, 53, 0
2, 5400, Note_on_c, 0, 47, 88
2, 5429, Note_off_c, 0, 47, 0
2, 5430, Note_on_c, 0, 55, 88
2, 5459, Note_off_c, 0, 55, 0
2, 5460, Note_on_c, 0, 65, 88
2, 5489, Note_off_c, 0, 65, 0
2, 5490, Note_on_c, 0, 55, 88
2, 5519, Note_off_c, 0, 55, 0
2, 5520, Note_on_c, 0, 48, 88
2, 5549, Note_off_c, 0, 48, 0
2, 5550, Note_on_c, 0, 55, 88
2, 5579, Note_off_c, 0, 55, 0
2, 5580, Note_on_c, 0, 64, 88
2, 5609, Note_off_c, 0, 64, 0
2, 5610, Note_on_c, 0, 55, 88
2, 5639, Note_off_c, 0, 55, 0
2, 5640, Note_on_c, 0, 49, 88
2, 5669, Note_off_c, 0, 49, 0
2, 5670, Note_on_c, 0, 57, 88
2, 5699, Note_off_c, 0, 57, 0
2, 5700, Note_on_c, 0, 67, 88
2, 5729, Note_off_c, 0, 67, 0
2, 5730, Note_on_c, 0, 57, 88
2, 5759, Note_off_c, 0, 57, 0
2, 5760, Note_on_c, 0, 50, 88
2, 5789, Note_off_c, 0, 50, 0
2, 5790, Note_on_c, 0, 57, 88
2, 5819, Note_off_c, 0, 57, 0
2, 5820, Note_on_c, 0, 65, 88
2, 5849, Note_off_c, 0, 65, 0
2, 5850, Note_on_c, 0, 57, 88
2, 5879, Note_off_c, 0, 57, 0
2, 5880, Note_on_c, 0, 38, 88
2, 5909, Note_off_c, 0, 38, 0
2, 5910, Note_on_c, 0, 58, 88
2, 5939, Note_off_c, 0, 58, 0
2, 5940, Note_on_c, 0, 69, 88
2, 5969, Note_off_c, 0, 69, 0
2, 5970, Note_on_c, 0, 58, 88
2, 5999, Note_off_c, 0, 58, 0
2, 6000, Note_on_c, 0, 40, 88
2, 6029, Note_off_c, 0, 40, 0
2, 6030, Note_on_c, 0, 58, 88
2, 6059, Note_off_c, 0, 58, 0
2, 6060, Note_on_c, 0, 67, 88
2, 6089, Note_off_c, 0, 67, 0
2, 6090, Note_on_c, 0, 58, 88
2, 6119, Note_off_c, 0, 58, 0
2, 6120, Note_on_c, 0, 52, 88
2, 6149, Note_off_c, 0, 52, 0
2, 6150, Note_on_c, 0, 60, 88
2, 6179, Note_off_c, 0, 60, 0
2, 6180, Note_on_c, 0, 70, 88
2, 6209, Note_off_c, 0, 70, 0
2, 6210, Note_on_c, 0, 60, 88
2, 6239, Note_off_c, 0, 60, 0
2, 6240, Note_on_c, 0, 53, 88
2, 6269, Note_off_c, 0, 53, 0
2, 6270, Note_on_c, 0, 60, 88
2, 6299, Note_off_c, 0, 60, 0
2, 6300, Note_on_c, 0, 69, 88
2, 6329, Note_off_c, 0, 69, 0
2, 6330, Note_on_c, 0, 60, 88
2, 6359, Note_off_c, 0, 60, 0
2, 6360, Note_on_c, 0, 41, 88
2, 6389, Note_off_c, 0, 41, 0
2, 6390, Note_on_c, 0, 62, 88
2, 6419, Note_off_c, 0, 62, 0
2, 6420, Note_on_c, 0, 72, 88
2, 6449, Note_off_c, 0, 72, 0
2, 6450, Note_on_c, 0, 62, 88
2, 6479, Note_off_c, 0, 62, 0
2, 6480, Note_on_c, 0, 43, 88
2, 6509, Note_off_c, 0, 43, 0
2, 6510, Note_on_c, 0, 62, 88
2, 6539, Note_off_c, 0, 62, 0
2, 6540, Note_on_c, 0, 70, 88
2, 6569, Note_off_c, 0, 70, 0
2, 6570, Note_on_c, 0, 62, 88
2, 6599, Note_off_c, 0, 62, 0
2, 6600, Note_on_c, 0, 55, 88
2, 6629, Note_off_c, 0, 55, 0
2, 6630, Note_on_c, 0, 64, 88
2, 6659, Note_off_c, 0, 64, 0
2, 6660, Note_on_c, 0, 74, 88
2, 6689, Note_off_c, 0, 74, 0
2, 6690, Note_on_c, 0, 64, 88
2, 6719, Note_off_c, 0, 64, 0
2, 6720, Note_on_c, 0, 57, 88
2, 6749, Note_off_c, 0, 57, 0
2, 6750, Note_on_c, 0, 60, 88
2, 6779, Note_off_c, 0, 60, 0
2, 6780, Note_on_c, 0, 62, 88
2, 6809, Note_off_c, 0, 62, 0
2, 6810, Note_on_c, 0, 64, 88
2, 6839, Note_off_c, 0, 64, 0
2, 6840, Note_on_c, 0, 65, 88
2, 6869, Note_off_c, 0, 65, 0
2, 6870, Note_on_c, 0, 67, 88
2, 6899, Note_off_c, 0, 67, 0
2, 6900, Note_on_c, 0, 69, 88
2, 6929, Note_off_c, 0, 69, 0
2, 6930, Note_on_c, 0, 70, 88
2, 6959, Note_off_c, 0, 70, 0
2, 6960, Note_on_c, 0, 72, 88
2, 6989, Note_off_c, 0, 72, 0
2, 6990, Note_on_c, 0, 70, 88
2, 7019, Note_off_c, 0, 70, 0
2, 7020, Note_on_c, 0, 69, 88
2, 7049, Note_off_c, 0, 69, 0
2, 7050, Note_on_c, 0, 67, 88
2, 7079, Note_off_c, 0, 67, 0
2, 7080, Note_on_c, 0, 65, 88
2, 7109, Note_off_c, 0, 65, 0
2, 7110, Note_on_c, 0, 63, 88
2, 7139, Note_off_c, 0, 63, 0
2, 7140, Note_on_c, 0, 62, 88
2, 7169, Note_off_c, 0, 62, 0
2, 7170, Note_on_c, 0, 60, 88
2, 7199, Note_off_c, 0, 60, 0
2, 7200, Note_on_c, 0, 62, 88
2, 7229, Note_off_c, 0, 62, 0
2, 7230, Note_on_c, 0, 58, 88
2, 7259, Note_off_c, 0, 58, 0
2, 7260, Note_on_c, 0, 57, 88
2, 7289, Note_off_c, 0, 57, 0
2, 7290, Note_on_c, 0, 55, 88
2, 7319, Note_off_c, 0, 55, 0
2, 7320, Note_on_c, 0, 53, 88
2, 7349, Note_off_c, 0, 53, 0
2, 7350, Note_on_c, 0, 51, 88
2, 7379, Note_off_c, 0, 51, 0
2, 7380, Note_on_c, 0, 50, 88
2, 7409, Note_off_c, 0, 50, 0
2, 7410, Note_on_c, 0, 48, 88
2, 7439, Note_off_c, 0, 48, 0
2, 7440, Note_on_c, 0, 46, 88
2, 7469, Note_off_c, 0, 46, 0
2, 7470, Note_on_c, 0, 48, 88
2, 7499, Note_off_c, 0, 48, 0
2, 7500, Note_on_c, 0, 50, 88
2, 7529, Note_off_c, 0, 50, 0
2, 7530, Note_on_c, 0, 48, 88
2, 7559, Note_off_c, 0, 48, 0
2, 7560, Note_on_c, 0, 46, 88
2, 7589, Note_off_c, 0, 46, 0
2, 7590, Note_on_c, 0, 45, 88
2, 7619, Note_off_c, 0, 45, 0
2, 7620, Note_on_c, 0, 43, 88
2, 7649, Note_off_c, 0, 43, 0
2, 7650, Note_on_c, 0, 41, 88
2, 7679, Note_off_c, 0, 41, 0
2, 7680, Note_on_c, 0, 40, 88
2, 7709, Note_off_c, 0, 40, 0
2, 7710, Note_on_c, 0, 60, 88
2, 7739, Note_off_c, 0, 60, 0
2, 7740, Note_on_c, 0, 70, 88
2, 7769, Note_off_c, 0, 70, 0
2, 7770, Note_on_c, 0, 60, 88
2, 7799, Note_off_c, 0, 60, 0
2, 7800, Note_on_c, 0, 41, 88
2, 7829, Note_off_c, 0, 41, 0
2, 7830, Note_on_c, 0, 60, 88
2, 7859, Note_off_c, 0, 60, 0
2, 7860, Note_on_c, 0, 69, 88
2, 7889, Note_off_c, 0, 69, 0
2, 7890, Note_on_c, 0, 60, 88
2, 7919, Note_off_c, 0, 60, 0
2, 7920, Note_on_c, 0, 38, 88
2, 7949, Note_off_c, 0, 38, 0
2, 7950, Note_on_c, 0, 58, 88
2, 7979, Note_off_c, 0, 58, 0
2, 7980, Note_on_c, 0, 69, 88
2, 8009, Note_off_c, 0, 69, 0
2, 8010, Note_on_c, 0, 58, 88
2, 8039, Note_off_c, 0, 58, 0
2, 8040, Note_on_c, 0, 40, 88
2, 8069, Note_off_c, 0, 40, 0
2, 8070, Note_on_c, 0, 58, 88
2, 8099, Note_off_c, 0, 58, 0
2, 8100, Note_on_c, 0, 67, 88
2, 8129, Note_off_c, 0, 67, 0
2, 8130, Note_on_c, 0, 58, 88
2, 8159, Note_off_c, 0, 58, 0
2, 8160, Note_on_c, 0, 41, 88
2, 8189, Note_off_c, 0, 41, 0
2, 8190, Note_on_c, 0, 57, 88
2, 8219, Note_off_c, 0, 57, 0
2, 8220, Note_on_c, 0, 67, 88
2, 8249, Note_off_c, 0, 67, 0
2, 8250, Note_on_c, 0, 57, 88
2, 8279, Note_off_c, 0, 57, 0
2, 8280, Note_on_c, 0, 45, 88
2, 8309, Note_off_c, 0, 45, 0
2, 8310, Note_on_c, 0, 57, 88
2, 8339, Note_off_c, 0, 57, 0
2, 8340, Note_on_c, 0, 65, 88
2, 8369, Note_off_c, 0, 65, 0
2, 8370, Note_on_c, 0, 57, 88
2, 8399, Note_off_c, 0, 57, 0
2, 8400, Note_on_c, 0, 46, 88
2, 8429, Note_off_c, 0, 46, 0
2, 8430, Note_on_c, 0, 55, 88
2, 8459, Note_off_c, 0, 55, 0
2, 8460, Note_on_c, 0, 65, 88
2, 8489, Note_off_c, 0, 65, 0
2, 8490, Note_on_c, 0, 55, 88
2, 8519, Note_off_c, 0, 55, 0
2, 8520, Note_on_c, 0, 48, 88
2, 8549, Note_off_c, 0, 48, 0
2, 8550, Note_on_c, 0, 55, 88
2, 8579, Note_off_c, 0, 55, 0
2, 8580, Note_on_c, 0, 64, 88
2, 8609, Note_off_c, 0, 64, 0
2, 8610, Note_on_c, 0, 55, 88
2, 8639, Note_off_c, 0, 55, 0
2, 8640, Note_on_c, 0, 57, 88
2, 8669, Note_off_c, 0, 57, 0
2, 8670, Note_on_c, 0, 60, 88
2, 8699, Note_off_c, 0, 60, 0
2, 8700, Note_on_c, 0, 65, 88
2, 8729, Note_off_c, 0, 65, 0
2, 8730, Note_on_c, 0, 60, 88
2, 8759, Note_off_c, 0, 60, 0
2, 8760, Note_on_c, 0, 57, 88
2, 8789, Note_off_c, 0, 57, 0
2, 8790, Note_on_c, 0, 65, 88
2, 8819, Note_off_c, 0, 65, 0
2, 8820, Note_on_c, 0, 60, 88
2, 8849, Note_off_c, 0, 60, 0
2, 8850, Note_on_c, 0, 57, 88
2, 8879, Note_off_c, 0, 57, 0
2, 8880, Note_on_c, 0, 53, 88
2, 8909, Note_off_c, 0, 53, 0
2, 8910, Note_on_c, 0, 57, 88
2, 8939, Note_off_c, 0, 57, 0
2, 8940, Note_on_c, 0, 60, 88
2, 8969, Note_off_c, 0, 60, 0
2, 8970, Note_on_c, 0, 57, 88
2, 8999, Note_off_c, 0, 57, 0
2, 9000, Note_on_c, 0, 53, 88
2, 9029, Note_off_c, 0, 53, 0
2, 9030, Note_on_c, 0, 60, 88
2, 9059, Note_off_c, 0, 60, 0
2, 9060, Note_on_c, 0, 57, 88
2, 9089, Note_off_c, 0, 57, 0
2, 9090, Note_on_c, 0, 53, 88
2, 9119, Note_off_c, 0, 53, 0
2, 9120, Note_on_c, 0, 48, 88
2, 9149, Note_off_c, 0, 48, 0
2, 9150, Note_on_c, 0, 53, 88
2, 9179, Note_off_c, 0, 53, 0
2, 9180, Note_on_c, 0, 52, 88
2, 9209, Note_off_c, 0, 52, 0
2, 9210, Note_on_c, 0, 50, 88
2, 9239, Note_off_c, 0, 50, 0
2, 9240, Note_on_c, 0, 48, 88
2, 9269, Note_off_c, 0, 48, 0
2, 9270, Note_on_c, 0, 46, 88
2, 9299, Note_off_c, 0, 46, 0
2, 9300, Note_on_c, 0, 45, 88
2, 9329, Note_off_c, 0, 45, 0
2, 9330, Note_on_c, 0, 43, 88
2, 9359, Note_off_c, 0, 43, 0
2, 9360, Note_on_c, 0, 41, 88
2, 9389, Note_off_c, 0, 41, 0
2, 9390, Note_on_c, 0, 45, 88
2, 9419, Note_off_c, 0, 45, 0
2, 9420, Note_on_c, 0, 48, 88
2, 9449, Note_off_c, 0, 48, 0
2, 9450, Note_on_c, 0, 53, 88
2, 9479, Note_off_c, 0, 53, 0
2, 9480, Note_on_c, 0, 57, 88
2, 9509, Note_off_c, 0, 57, 0
2, 9510, Note_on_c, 0, 60, 88
2, 9539, Note_off_c, 0, 60, 0
2, 9540, Note_on_c, 0, 63, 88
2, 9569, Note_off_c, 0, 63, 0
2, 9570, Note_on_c, 0, 66, 88
2, 9599, Note_off_c, 0, 66, 0
2, 9600, Note_on_c, 0, 38, 88
2, 9839, Note_off_c, 0, 38, 0
2, 9840, Note_on_c, 0, 77, 88
2, 10019, Note_off_c, 0, 77, 0
2, 10020, Note_on_c, 0, 77, 88
2, 10079, Note_off_c, 0, 77, 0
2, 10080, Note_on_c, 0, 77, 88
2, 10349, Note_off_c, 0, 77, 0
2, 10350, Note_on_c, 0, 79, 88
2, 10379, Note_off_c, 0, 79, 0
2, 10380, Note_on_c, 0, 80, 88
2, 10409, Note_off_c, 0, 80, 0
2, 10410, Note_on_c, 0, 79, 88
2, 10439, Note_off_c, 0, 79, 0
2, 10440, Note_on_c, 0, 77, 88
2, 10469, Note_off_c, 0, 77, 0
2, 10470, Note_on_c, 0, 75, 88
2, 10499, Note_off_c, 0, 75, 0
2, 10500, Note_on_c, 0, 74, 88
2, 10529, Note_off_c, 0, 74, 0
2, 10530, Note_on_c, 0, 75, 88
2, 10559, Note_off_c, 0, 75, 0
2, 10560, Note_on_c, 0, 77, 88
2, 10589, Note_off_c, 0, 77, 0
2, 10590, Note_on_c, 0, 75, 88
2, 10619, Note_off_c, 0, 75, 0
2, 10620, Note_on_c, 0, 74, 88
2, 10649, Note_off_c, 0, 74, 0
2, 10650, Note_on_c, 0, 72, 88
2, 10679, Note_off_c, 0, 72, 0
2, 10680, Note_on_c, 0, 71, 88
2, 10709, Note_off_c, 0, 71, 0
2, 10710, Note_on_c, 0, 72, 88
2, 10739, Note_off_c, 0, 72, 0
2, 10740, Note_on_c, 0, 74, 88
2, 10769, Note_off_c, 0, 74, 0
2, 10770, Note_on_c, 0, 72, 88
2, 10799, Note_off_c, 0, 72, 0
2, 10800, Note_on_c, 0, 71, 88
2, 10829, Note_off_c, 0, 71, 0
2, 10830, Note_on_c, 0, 69, 88
2, 10859, Note_off_c, 0, 69, 0
2, 10860, Note_on_c, 0, 67, 88
2, 10889, Note_off_c, 0, 67, 0
2, 10890, Note_on_c, 0, 69, 88
2, 10919, Note_off_c, 0, 69, 0
2, 10920, Note_on_c, 0, 71, 88
2, 10949, Note_off_c, 0, 71, 0
2, 10950, Note_on_c, 0, 69, 88
2, 10979, Note_off_c, 0, 69, 0
2, 10980, Note_on_c, 0, 67, 88
2, 11009, Note_off_c, 0, 67, 0
2, 11010, Note_on_c, 0, 65, 88
2, 11039, Note_off_c, 0, 65, 0
2, 11040, Note_on_c, 0, 63, 88
2, 11069, Note_off_c, 0, 63, 0
2, 11070, Note_on_c, 0, 62, 88
2, 11099, Note_off_c, 0, 62, 0
2, 11100, Note_on_c, 0, 60, 88
2, 11129, Note_off_c, 0, 60, 0
2, 11130, Note_on_c, 0, 58, 88
2, 11159, Note_off_c, 0, 58, 0
2, 11160, Note_on_c, 0, 56, 88
2, 11189, Note_off_c, 0, 56, 0
2, 11190, Note_on_c, 0, 55, 88
2, 11219, Note_off_c, 0, 55, 0
2, 11220, Note_on_c, 0, 53, 88
2, 11249, Note_off_c, 0, 53, 0
2, 11250, Note_on_c, 0, 51, 88
2, 11279, Note_off_c, 0, 51, 0
2, 11280, Note_on_c, 0, 50, 88
2, 11309, Note_off_c, 0, 50, 0
2, 11310, Note_on_c, 0, 48, 88
2, 11339, Note_off_c, 0, 48, 0
2, 11340, Note_on_c, 0, 47, 88
2, 11369, Note_off_c, 0, 47, 0
2, 11370, Note_on_c, 0, 45, 88
2, 11399, Note_off_c, 0, 45, 0
2, 11400, Note_on_c, 0, 43, 88
2, 11429, Note_off_c, 0, 43, 0
2, 11430, Note_on_c, 0, 41, 88
2, 11459, Note_off_c, 0, 41, 0
2, 11460, Note_on_c, 0, 39, 88
2, 11489, Note_off_c, 0, 39, 0
2, 11490, Note_on_c, 0, 38, 88
2, 11519, Note_off_c, 0, 38, 0
2, 11520, Note_on_c, 0, 36, 88
2, 11759, Note_off_c, 0, 36, 0
2, 11760, Note_on_c, 0, 48, 88
2, 11939, Note_off_c, 0, 48, 0
2, 11940, Note_on_c, 0, 48, 88
2, 11999, Note_off_c, 0, 48, 0
2, 12000, Note_on_c, 0, 53, 88
2, 12269, Note_off_c, 0, 53, 0
2, 12270, Note_on_c, 0, 48, 88
2, 12299, Note_off_c, 0, 48, 0
2, 12300, Note_on_c, 0, 50, 88
2, 12329, Note_off_c, 0, 50, 0
2, 12330, Note_on_c, 0, 51, 88
2, 12359, Note_off_c, 0, 51, 0
2, 12360, Note_on_c, 0, 53, 88
2, 12389, Note_off_c, 0, 53, 0
2, 12390, Note_on_c, 0, 55, 88
2, 12419, Note_off_c, 0, 55, 0
2, 12420, Note_on_c, 0, 57, 88
2, 12449, Note_off_c, 0, 57, 0
2, 12450, Note_on_c, 0, 58, 88
2, 12479, Note_off_c, 0, 58, 0
2, 12480, Note_on_c, 0, 57, 88
2, 12509, Note_off_c, 0, 57, 0
2, 12510, Note_on_c, 0, 55, 88
2, 12539, Note_off_c, 0, 55, 0
2, 12540, Note_on_c, 0, 53, 88
2, 12569, Note_off_c, 0, 53, 0
2, 12570, Note_on_c, 0, 55, 88
2, 12599, Note_off_c, 0, 55, 0
2, 12600, Note_on_c, 0, 57, 88
2, 12629, Note_off_c, 0, 57, 0
2, 12630, Note_on_c, 0, 58, 88
2, 12659, Note_off_c, 0, 58, 0
2, 12660, Note_on_c, 0, 60, 88
2, 12689, Note_off_c, 0, 60, 0
2, 12690, Note_on_c, 0, 62, 88
2, 12719, Note_off_c, 0, 62, 0
2, 12720, Note_on_c, 0, 60, 88
2, 12749, Note_off_c, 0, 60, 0
2, 12750, Note_on_c, 0, 58, 88
2, 12779, Note_off_c, 0, 58, 0
2, 12780, Note_on_c, 0, 57, 88
2, 12809, Note_off_c, 0, 57, 0
2, 12810, Note_on_c, 0, 58, 88
2, 12839, Note_off_c, 0, 58, 0
2, 12840, Note_on_c, 0, 60, 88
2, 12869, Note_off_c, 0, 60, 0
2, 12870, Note_on_c, 0, 62, 88
2, 12899, Note_off_c, 0, 62, 0
2, 12900, Note_on_c, 0, 63, 88
2, 12929, Note_off_c, 0, 63, 0
2, 12930, Note_on_c, 0, 65, 88
2, 12959, Note_off_c, 0, 65, 0
2, 12960, Note_on_c, 0, 63, 88
2, 12989, Note_off_c, 0, 63, 0
2, 12990, Note_on_c, 0, 62, 88
2, 13019, Note_off_c, 0, 62, 0
2, 13020, Note_on_c, 0, 60, 88
2, 13049, Note_off_c, 0, 60, 0
2, 13050, Note_on_c, 0, 62, 88
2, 13079, Note_off_c, 0, 62, 0
2, 13080, Note_on_c, 0, 63, 88
2, 13109, Note_off_c, 0, 63, 0
2, 13110, Note_on_c, 0, 65, 88
2, 13139, Note_off_c, 0, 65, 0
2, 13140, Note_on_c, 0, 67, 88
2, 13169, Note_off_c, 0, 67, 0
2, 13170, Note_on_c, 0, 69, 88
2, 13199, Note_off_c, 0, 69, 0
2, 13200, Note_on_c, 0, 70, 88
2, 13229, Note_off_c, 0, 70, 0
2, 13230, Note_on_c, 0, 72, 88
2, 13259, Note_off_c, 0, 72, 0
2, 13260, Note_on_c, 0, 74, 88
2, 13289, Note_off_c, 0, 74, 0
2, 13290, Note_on_c, 0, 75, 88
2, 13319, Note_off_c, 0, 75, 0
2, 13320, Note_on_c, 0, 77, 88
2, 13349, Note_off_c, 0, 77, 0
2, 13350, Note_on_c, 0, 79, 88
2, 13379, Note_off_c, 0, 79, 0
2, 13380, Note_on_c, 0, 81, 88
2, 13409, Note_off_c, 0, 81, 0
2, 13410, Note_on_c, 0, 77, 88
2, 13439, Note_off_c, 0, 77, 0
2, 13440, Note_on_c, 0, 82, 88
2, 13679, Note_off_c, 0, 82, 0
2, 13680, Note_on_c, 0, 74, 88
2, 13859, Note_off_c, 0, 74, 0
2, 13860, Note_on_c, 0, 74, 88
2, 13919, Note_off_c, 0, 74, 0
2, 13920, Note_on_c, 0, 74, 88
2, 14159, Note_off_c, 0, 74, 0
2, 14160, Note_on_c, 0, 73, 88
2, 14339, Note_off_c, 0, 73, 0
2, 14340, Note_on_c, 0, 72, 88
2, 14399, Note_off_c, 0, 72, 0
2, 14400, Note_on_c, 0, 69, 88
2, 14669, Note_off_c, 0, 69, 0
2, 14670, Note_on_c, 0, 72, 88
2, 14699, Note_off_c, 0, 72, 0
2, 14700, Note_on_c, 0, 69, 88
2, 14729, Note_off_c, 0, 69, 0
2, 14730, Note_on_c, 0, 65, 88
2, 14759, Note_off_c, 0, 65, 0
2, 14760, Note_on_c, 0, 63, 88
2, 14789, Note_off_c, 0, 63, 0
2, 14790, Note_on_c, 0, 65, 88
2, 14819, Note_off_c, 0, 65, 0
2, 14820, Note_on_c, 0, 69, 88
2, 14849, Note_off_c, 0, 69, 0
2, 14850, Note_on_c, 0, 72, 88
2, 14879, Note_off_c, 0, 72, 0
2, 14880, Note_on_c, 0, 69, 88
2, 14909, Note_off_c, 0, 69, 0
2, 14910, Note_on_c, 0, 72, 88
2, 14939, Note_off_c, 0, 72, 0
2, 14940, Note_on_c, 0, 69, 88
2, 14969, Note_off_c, 0, 69, 0
2, 14970, Note_on_c, 0, 65, 88
2, 14999, Note_off_c, 0, 65, 0
2, 15000, Note_on_c, 0, 63, 88
2, 15029, Note_off_c, 0, 63, 0
2, 15030, Note_on_c, 0, 65, 88
2, 15059, Note_off_c, 0, 65, 0
2, 15060, Note_on_c, 0, 69, 88
2, 15089, Note_off_c, 0, 69, 0
2, 15090, Note_on_c, 0, 72, 88
2, 15119, Note_off_c, 0, 72, 0
2, 15120, Note_on_c, 0, 78, 88
2, 15149, Note_off_c, 0, 78, 0
2, 15150, Note_on_c, 0, 77, 88
2, 15179, Note_off_c, 0, 77, 0
2, 15180, Note_on_c, 0, 75, 88
2, 15209, Note_off_c, 0, 75, 0
2, 15210, Note_on_c, 0, 73, 88
2, 15239, Note_off_c, 0, 73, 0
2, 15240, Note_on_c, 0, 72, 88
2, 15269, Note_off_c, 0, 72, 0
2, 15270, Note_on_c, 0, 70, 88
2, 15299, Note_off_c, 0, 70, 0
2, 15300, Note_on_c, 0, 69, 88
2, 15329, Note_off_c, 0, 69, 0
2, 15330, Note_on_c, 0, 67, 88
2, 15359, Note_off_c, 0, 67, 0
2, 15360, Note_on_c, 0, 69, 88
2, 15389, Note_off_c, 0, 69, 0
2, 15390, Note_on_c, 0, 65, 88
2, 15419, Note_off_c, 0, 65, 0
2, 15420, Note_on_c, 0, 69, 88
2, 15449, Note_off_c, 0, 69, 0
2, 15450, Note_on_c, 0, 72, 88
2, 15479, Note_off_c, 0, 72, 0
2, 15480, Note_on_c, 0, 75, 88
2, 15509, Note_off_c, 0, 75, 0
2, 15510, Note_on_c, 0, 78, 88
2, 15539, Note_off_c, 0, 78, 0
2, 15540, Note_on_c, 0, 81, 88
2, 15569, Note_off_c, 0, 81, 0
2, 15570, Note_on_c, 0, 84, 88
2, 15599, Note_off_c, 0, 84, 0
2, 15600, Note_on_c, 0, 82, 88
2, 15689, Note_off_c, 0, 82, 0
2, 15690, Note_on_c, 0, 72, 88
2, 15719, Note_off_c, 0, 72, 0
2, 15720, Note_on_c, 0, 73, 88
2, 15749, Note_off_c, 0, 73, 0
2, 15750, Note_on_c, 0, 69, 88
2, 15779, Note_off_c, 0, 69, 0
2, 15780, Note_on_c, 0, 70, 88
2, 15809, Note_off_c, 0, 70, 0
2, 15810, Note_on_c, 0, 64, 88
2, 15839, Note_off_c, 0, 64, 0
2, 15840, Note_on_c, 0, 60, 88
2, 15959, Note_off_c, 0, 60, 0
2, 15960, Note_on_c, 0, 62, 88
2, 16079, Note_off_c, 0, 62, 0
2, 16080, Note_on_c, 0, 63, 88
2, 16319, Note_off_c, 0, 63, 0
2, 16320, Note_on_c, 0, 62, 88
2, 16589, Note_off_c, 0, 62, 0
2, 16590, Note_on_c, 0, 65, 88
2, 16619, Note_off_c, 0, 65, 0
2, 16620, Note_on_c, 0, 62, 88
2, 16649, Note_off_c, 0, 62, 0
2, 16650, Note_on_c, 0, 58, 88
2, 16679, Note_off_c, 0, 58, 0
2, 16680, Note_on_c, 0, 56, 88
2, 16709, Note_off_c, 0, 56, 0
2, 16710, Note_on_c, 0, 58, 88
2, 16739, Note_off_c, 0, 58, 0
2, 16740, Note_on_c, 0, 62, 88
2, 16769, Note_off_c, 0, 62, 0
2, 16770, Note_on_c, 0, 65, 88
2, 16799, Note_off_c, 0, 65, 0
2, 16800, Note_on_c, 0, 62, 88
2, 16829, Note_off_c, 0, 62, 0
2, 16830, Note_on_c, 0, 65, 88
2, 16859, Note_off_c, 0, 65, 0
2, 16860, Note_on_c, 0, 62, 88
2, 16889, Note_off_c, 0, 62, 0
2, 16890, Note_on_c, 0, 58, 88
2, 16919, Note_off_c, 0, 58, 0
2, 16920, Note_on_c, 0, 56, 88
2, 16949, Note_off_c, 0, 56, 0
2, 16950, Note_on_c, 0, 58, 88
2, 16979, Note_off_c, 0, 58, 0
2, 16980, Note_on_c, 0, 62, 88
2, 17009, Note_off_c, 0, 62, 0
2, 17010, Note_on_c, 0, 65, 88
2, 17039, Note_off_c, 0, 65, 0
2, 17040, Note_on_c, 0, 71, 88
2, 17069, Note_off_c, 0, 71, 0
2, 17070, Note_on_c, 0, 68, 88
2, 17099, Note_off_c, 0, 68, 0
2, 17100, Note_on_c, 0, 65, 88
2, 17129, Note_off_c, 0, 65, 0
2, 17130, Note_on_c, 0, 62, 88
2, 17159, Note_off_c, 0, 62, 0
2, 17160, Note_on_c, 0, 59, 88
2, 17189, Note_off_c, 0, 59, 0
2, 17190, Note_on_c, 0, 56, 88
2, 17219, Note_off_c, 0, 56, 0
2, 17220, Note_on_c, 0, 53, 88
2, 17249, Note_off_c, 0, 53, 0
2, 17250, Note_on_c, 0, 62, 88
2, 17279, Note_off_c, 0, 62, 0
2, 17280, Note_on_c, 0, 65, 88
2, 17294, Note_off_c, 0, 65, 0
2, 17295, Note_on_c, 0, 63, 88
2, 17317, Note_off_c, 0, 63, 0
2, 17318, Note_on_c, 0, 65, 88
2, 17339, Note_off_c, 0, 65, 0
2, 17340, Note_on_c, 0, 63, 88
2, 17429, Note_off_c, 0, 63, 0
2, 17430, Note_on_c, 0, 62, 88
2, 17459, Note_off_c, 0, 62, 0
2, 17460, Note_on_c, 0, 60, 88
2, 17489, Note_off_c, 0, 60, 0
2, 17490, Note_on_c, 0, 62, 88
2, 17519, Note_off_c, 0, 62, 0
2, 17520, Note_on_c, 0, 63, 88
2, 17549, Note_off_c, 0, 63, 0
2, 17550, Note_on_c, 0, 62, 88
2, 17579, Note_off_c, 0, 62, 0
2, 17580, Note_on_c, 0, 60, 88
2, 17609, Note_off_c, 0, 60, 0
2, 17610, Note_on_c, 0, 58, 88
2, 17639, Note_off_c, 0, 58, 0
2, 17640, Note_on_c, 0, 57, 88
2, 17669, Note_off_c, 0, 57, 0
2, 17670, Note_on_c, 0, 58, 88
2, 17699, Note_off_c, 0, 58, 0
2, 17700, Note_on_c, 0, 60, 88
2, 17729, Note_off_c, 0, 60, 0
2, 17730, Note_on_c, 0, 58, 88
2, 17759, Note_off_c, 0, 58, 0
2, 17760, Note_on_c, 0, 57, 88
2, 17789, Note_off_c, 0, 57, 0
2, 17790, Note_on_c, 0, 55, 88
2, 17819, Note_off_c, 0, 55, 0
2, 17820, Note_on_c, 0, 53, 88
2, 17849, Note_off_c, 0, 53, 0
2, 17850, Note_on_c, 0, 55, 88
2, 17879, Note_off_c, 0, 55, 0
2, 17880, Note_on_c, 0, 57, 88
2, 17909, Note_off_c, 0, 57, 0
2, 17910, Note_on_c, 0, 55, 88
2, 17939, Note_off_c, 0, 55, 0
2, 17940, Note_on_c, 0, 53, 88
2, 17969, Note_off_c, 0, 53, 0
2, 17970, Note_on_c, 0, 51, 88
2, 17999, Note_off_c, 0, 51, 0
2, 18000, Note_on_c, 0, 50, 88
2, 18029, Note_off_c, 0, 50, 0
2, 18030, Note_on_c, 0, 51, 88
2, 18059, Note_off_c, 0, 51, 0
2, 18060, Note_on_c, 0, 53, 88
2, 18089, Note_off_c, 0, 53, 0
2, 18090, Note_on_c, 0, 51, 88
2, 18119, Note_off_c, 0, 51, 0
2, 18120, Note_on_c, 0, 50, 88
2, 18149, Note_off_c, 0, 50, 0
2, 18150, Note_on_c, 0, 48, 88
2, 18179, Note_off_c, 0, 48, 0
2, 18180, Note_on_c, 0, 46, 88
2, 18209, Note_off_c, 0, 46, 0
2, 18210, Note_on_c, 0, 45, 88
2, 18239, Note_off_c, 0, 45, 0
2, 18240, Note_on_c, 0, 46, 88
2, 18269, Note_off_c, 0, 46, 0
2, 18270, Note_on_c, 0, 50, 88
2, 18299, Note_off_c, 0, 50, 0
2, 18300, Note_on_c, 0, 53, 88
2, 18329, Note_off_c, 0, 53, 0
2, 18330, Note_on_c, 0, 50, 88
2, 18359, Note_off_c, 0, 50, 0
2, 18360, Note_on_c, 0, 50, 88
2, 18389, Note_off_c, 0, 50, 0
2, 18390, Note_on_c, 0, 53, 88
2, 18419, Note_off_c, 0, 53, 0
2, 18420, Note_on_c, 0, 58, 88
2, 18449, Note_off_c, 0, 58, 0
2, 18450, Note_on_c, 0, 53, 88
2, 18479, Note_off_c, 0, 53, 0
2, 18480, Note_on_c, 0, 53, 88
2, 18509, Note_off_c, 0, 53, 0
2, 18510, Note_on_c, 0, 58, 88
2, 18539, Note_off_c, 0, 58, 0
2, 18540, Note_on_c, 0, 62, 88
2, 18569, Note_off_c, 0, 62, 0
2, 18570, Note_on_c, 0, 58, 88
2, 18599, Note_off_c, 0, 58, 0
2, 18600, Note_on_c, 0, 58, 88
2, 18629, Note_off_c, 0, 58, 0
2, 18630, Note_on_c, 0, 62, 88
2, 18659, Note_off_c, 0, 62, 0
2, 18660, Note_on_c, 0, 65, 88
2, 18689, Note_off_c, 0, 65, 0
2, 18690, Note_on_c, 0, 62, 88
2, 18719, Note_off_c, 0, 62, 0
2, 18720, Note_on_c, 0, 62, 88
2, 18749, Note_off_c, 0, 62, 0
2, 18750, Note_on_c, 0, 65, 88
2, 18779, Note_off_c, 0, 65, 0
2, 18780, Note_on_c, 0, 70, 88
2, 18809, Note_off_c, 0, 70, 0
2, 18810, Note_on_c, 0, 65, 88
2, 18839, Note_off_c, 0, 65, 0
2, 18840, Note_on_c, 0, 65, 88
2, 18869, Note_off_c, 0, 65, 0
2, 18870, Note_on_c, 0, 70, 88
2, 18899, Note_off_c, 0, 70, 0
2, 18900, Note_on_c, 0, 74, 88
2, 18929, Note_off_c, 0, 74, 0
2, 18930, Note_on_c, 0, 70, 88
2, 18959, Note_off_c, 0, 70, 0
2, 18960, Note_on_c, 0, 70, 88
2, 18989, Note_off_c, 0, 70, 0
2, 18990, Note_on_c, 0, 74, 88
2, 19019, Note_off_c, 0, 74, 0
2, 19020, Note_on_c, 0, 77, 88
2, 19049, Note_off_c, 0, 77, 0
2, 19050, Note_on_c, 0, 74, 88
2, 19079, Note_off_c, 0, 74, 0
2, 19080, Note_on_c, 0, 82, 88
2, 19120, Note_off_c, 0, 82, 0
2, 19120, End_track
0, 0, End_of_file