0, 0, Header, 1, 2, 240
1, 0, Start_track
1, 0, Time_signature, 4, 2, 24, 8
1, 0, Tempo, 937500
1, 0, SMPTE_offset, 64, 0, 0, 0, 100
1, 0, End_track
2, 0, Start_track
2, 0, Title_t, "Track 1"
2, 0, Program_c, 0, 6
2, 480, Note_on_c, 0, 73, 88
2, 719, Note_off_c, 0, 73, 0
2, 720, Note_on_c, 0, 78, 88
2, 1199, Note_off_c, 0, 78, 0
2, 1200, Note_on_c, 0, 76, 88
2, 1439, Note_off_c, 0, 76, 0
2, 1440, Note_on_c, 0, 74, 88
2, 2159, Note_off_c, 0, 74, 0
2, 2160, Note_on_c, 0, 73, 88
2, 2279, Note_off_c, 0, 73, 0
2, 2280, Note_on_c, 0, 71, 88
2, 2399, Note_off_c, 0, 71, 0
2, 2400, Note_on_c, 0, 70, 88
2, 2639, Note_off_c, 0, 70, 0
2, 2640, Note_on_c, 0, 71, 88
2, 2759, Note_off_c, 0, 71, 0
2, 2760, Note_on_c, 0, 73, 88
2, 2879, Note_off_c, 0, 73, 0
2, 2880, Note_on_c, 0, 66, 88
2, 3119, Note_off_c, 0, 66, 0
2, 3120, Note_on_c, 0, 71, 88
2, 3599, Note_off_c, 0, 71, 0
2, 3600, Note_on_c, 0, 69, 88
2, 3839, Note_off_c, 0, 69, 0
2, 3840, Note_on_c, 0, 67, 88
2, 4319, Note_off_c, 0, 67, 0
2, 4320, Note_on_c, 0, 66, 88
2, 4799, Note_off_c, 0, 66, 0
2, 4800, Note_on_c, 0, 71, 88
2, 5039, Note_off_c, 0, 71, 0
2, 5040, Note_on_c, 0, 76, 88
2, 5279, Note_off_c, 0, 76, 0
2, 5280, Note_on_c, 0, 69, 88
2, 5519, Note_off_c, 0, 69, 0
2, 5520, Note_on_c, 0, 74, 88
2, 5999, Note_off_c, 0, 74, 0
2, 6000, Note_on_c, 0, 74, 88
2, 6029, Note_off_c, 0, 74, 0
2, 6030, Note_on_c, 0, 73, 88
2, 6059, Note_off_c, 0, 73, 0
2, 6060, Note_on_c, 0, 74, 88
2, 6089, Note_off_c, 0, 74, 0
2, 6090, Note_on_c, 0, 73, 88
2, 6119, Note_off_c, 0, 73, 0
2, 6120, Note_on_c, 0, 74, 88
2, 6149, Note_off_c, 0, 74, 0
2, 6150, Note_on_c, 0, 73, 88
2, 6179, Note_off_c, 0, 73, 0
2, 6180, Note_on_c, 0, 71, 88
2, 6209, Note_off_c, 0, 71, 0
2, 6210, Note_on_c, 0, 73, 88
2, 6239, Note_off_c, 0, 73, 0
2, 6240, Note_on_c, 0, 74, 88
2, 6299, Note_off_c, 0, 74, 0
2, 6300, Note_on_c, 0, 73, 88
2, 6359, Note_off_c, 0, 73, 0
2, 6360, Note_on_c, 0, 71, 88
2, 6419, Note_off_c, 0, 71, 0
2, 6420, Note_on_c, 0, 69, 88
2, 6479, Note_off_c, 0, 69, 0
2, 6480, Note_on_c, 0, 74, 88
2, 6959, Note_off_c, 0, 74, 0
2, 6960, Note_on_c, 0, 73, 88
2, 7199, Note_off_c, 0, 73, 0
2, 7200, Note_on_c, 0, 71, 88
2, 7439, Note_off_c, 0, 71, 0
2, 7440, Note_on_c, 0, 76, 88
2, 7919, Note_off_c, 0, 76, 0
2, 7920, Note_on_c, 0, 74, 88
2, 8159, Note_off_c, 0, 74, 0
2, 8160, Note_on_c, 0, 73, 88
2, 8399, Note_off_c, 0, 73, 0
2, 8400, Note_on_c, 0, 78, 88
2, 8879, Note_off_c, 0, 78, 0
2, 8880, Note_on_c, 0, 77, 88
2, 9119, Note_off_c, 0, 77, 0
2, 9120, Note_on_c, 0, 78, 88
2, 9359, Note_off_c, 0, 78, 0
2, 9360, Note_on_c, 0, 80, 88
2, 9599, Note_off_c, 0, 80, 0
2, 9600, Note_on_c, 0, 73, 88
2, 9839, Note_off_c, 0, 73, 0
2, 9840, Note_on_c, 0, 78, 88
2, 10319, Note_off_c, 0, 78, 0
2, 10320, Note_on_c, 0, 78, 88
2, 10349, Note_off_c, 0, 78, 0
2, 10350, Note_on_c, 0, 77, 88
2, 10379, Note_off_c, 0, 77, 0
2, 10380, Note_on_c, 0, 78, 88
2, 10409, Note_off_c, 0, 78, 0
2, 10410, Note_on_c, 0, 77, 88
2, 10439, Note_off_c, 0, 77, 0
2, 10440, Note_on_c, 0, 78, 88
2, 10469, Note_off_c, 0, 78, 0
2, 10470, Note_on_c, 0, 77, 88
2, 10499, Note_off_c, 0, 77, 0
2, 10500, Note_on_c, 0, 75, 88
2, 10529, Note_off_c, 0, 75, 0
2, 10530, Note_on_c, 0, 77, 88
2, 10559, Note_off_c, 0, 77, 0
2, 10560, Note_on_c, 0, 78, 88
2, 11039, Note_off_c, 0, 78, 0
2, 11040, Note_on_c, 0, 76, 88
2, 11279, Note_off_c, 0, 76, 0
2, 11280, Note_on_c, 0, 81, 88
2, 11759, Note_off_c, 0, 81, 0
2, 11760, Note_on_c, 0, 79, 88
2, 11999, Note_off_c, 0, 79, 0
2, 12000, Note_on_c, 0, 78, 88
2, 12239, Note_off_c, 0, 78, 0
2, 12240, Note_on_c, 0, 83, 88
2, 12719, Note_off_c, 0, 83, 0
2, 12720, Note_on_c, 0, 82, 88
2, 12959, Note_off_c, 0, 82, 0
2, 12960, Note_on_c, 0, 83, 88
2, 13319, Note_off_c, 0, 83, 0
2, 13320, Note_on_c, 0, 81, 88
2, 13379, Note_off_c, 0, 81, 0
2, 13380, Note_on_c, 0, 79, 88
2, 13439, Note_off_c, 0, 79, 0
2, 13440, Note_on_c, 0, 78, 88
2, 13799, Note_off_c, 0, 78, 0
2, 13800, Note_on_c, 0, 79, 88
2, 13919, Note_off_c, 0, 79, 0
2, 13920, Note_on_c, 0, 74, 88
2, 14159, Note_off_c, 0, 74, 0
2, 14160, Note_on_c, 0, 74, 88
2, 14189, Note_off_c, 0, 74, 0
2, 14190, Note_on_c, 0, 73, 88
2, 14212, Note_off_c, 0, 73, 0
2, 14213, Note_on_c, 0, 74, 88
2, 14234, Note_off_c, 0, 74, 0
2, 14235, Note_on_c, 0, 73, 88
2, 14257, Note_off_c, 0, 73, 0
2, 14258, Note_on_c, 0, 74, 88
2, 14279, Note_off_c, 0, 74, 0
2, 14280, Note_on_c, 0, 73, 88
2, 14399, Note_off_c, 0, 73, 0
2, 14400, Note_on_c, 0, 71, 88
2, 14519, Note_off_c, 0, 71, 0
2, 14520, Note_on_c, 0, 79, 88
2, 14759, Note_off_c, 0, 79, 0
2, 14760, Note_on_c, 0, 78, 88
2, 14999, Note_off_c, 0, 78, 0
2, 15000, Note_on_c, 0, 83, 88
2, 15059, Note_off_c, 0, 83, 0
2, 15060, Note_on_c, 0, 82, 88
2, 15119, Note_off_c, 0, 82, 0
2, 15120, Note_on_c, 0, 83, 88
2, 15359, Note_off_c, 0, 83, 0
2, 15360, Note_on_c, 0, 82, 88
2, 15479, Note_off_c, 0, 82, 0
2, 15480, Note_on_c, 0, 83, 88
2, 15599, Note_off_c, 0, 83, 0
2, 15600, Note_on_c, 0, 76, 88
2, 15719, Note_off_c, 0, 76, 0
2, 15720, Note_on_c, 0, 74, 88
2, 15839, Note_off_c, 0, 74, 0
2, 15840, Note_on_c, 0, 74, 88
2, 15914, Note_off_c, 0, 74, 0
2, 15915, Note_on_c, 0, 73, 88
2, 15937, Note_off_c, 0, 73, 0
2, 15938, Note_on_c, 0, 74, 88
2, 15959, Note_off_c, 0, 74, 0
2, 15960, Note_on_c, 0, 73, 88
2, 16799, Note_off_c, 0, 73, 0
2, 16800, Note_on_c, 0, 73, 88
2, 17039, Note_off_c, 0, 73, 0
2, 17040, Note_on_c, 0, 78, 88
2, 17519, Note_off_c, 0, 78, 0
2, 17520, Note_on_c, 0, 76, 88
2, 17759, Note_off_c, 0, 76, 0
2, 17760, Note_on_c, 0, 74, 88
2, 18479, Note_off_c, 0, 74, 0
2, 18480, Note_on_c, 0, 73, 88
2, 18599, Note_off_c, 0, 73, 0
2, 18600, Note_on_c, 0, 71, 88
2, 18719, Note_off_c, 0, 71, 0
2, 18720, Note_on_c, 0, 70, 88
2, 18959, Note_off_c, 0, 70, 0
2, 18960, Note_on_c, 0, 71, 88
2, 19079, Note_off_c, 0, 71, 0
2, 19080, Note_on_c, 0, 73, 88
2, 19199, Note_off_c, 0, 73, 0
2, 19200, Note_on_c, 0, 66, 88
2, 19439, Note_off_c, 0, 66, 0
2, 19440, Note_on_c, 0, 71, 88
2, 19919, Note_off_c, 0, 71, 0
2, 19920, Note_on_c, 0, 69, 88
2, 20159, Note_off_c, 0, 69, 0
2, 20160, Note_on_c, 0, 67, 88
2, 20639, Note_off_c, 0, 67, 0
2, 20640, Note_on_c, 0, 66, 88
2, 21119, Note_off_c, 0, 66, 0
2, 21120, Note_on_c, 0, 71, 88
2, 21359, Note_off_c, 0, 71, 0
2, 21360, Note_on_c, 0, 76, 88
2, 21599, Note_off_c, 0, 76, 0
2, 21600, Note_on_c, 0, 69, 88
2, 21839, Note_off_c, 0, 69, 0
2, 21840, Note_on_c, 0, 74, 88
2, 22319, Note_off_c, 0, 74, 0
2, 22320, Note_on_c, 0, 74, 88
2, 22349, Note_off_c, 0, 74, 0
2, 22350, Note_on_c, 0, 73, 88
2, 22379, Note_off_c, 0, 73, 0
2, 22380, Note_on_c, 0, 74, 88
2, 22409, Note_off_c, 0, 74, 0
2, 22410, Note_on_c, 0, 73, 88
2, 22439, Note_off_c, 0, 73, 0
2, 22440, Note_on_c, 0, 74, 88
2, 22469, Note_off_c, 0, 74, 0
2, 22470, Note_on_c, 0, 73, 88
2, 22499, Note_off_c, 0, 73, 0
2, 22500, Note_on_c, 0, 71, 88
2, 22529, Note_off_c, 0, 71, 0
2, 22530, Note_on_c, 0, 73, 88
2, 22559, Note_off_c, 0, 73, 0
2, 22560, Note_on_c, 0, 74, 88
2, 22619, Note_off_c, 0, 74, 0
2, 22620, Note_on_c, 0, 73, 88
2, 22679, Note_off_c, 0, 73, 0
2, 22680, Note_on_c, 0, 71, 88
2, 22739, Note_off_c, 0, 71, 0
2, 22740, Note_on_c, 0, 69, 88
2, 22799, Note_off_c, 0, 69, 0
2, 22800, Note_on_c, 0, 74, 88
2, 23279, Note_off_c, 0, 74, 0
2, 23280, Note_on_c, 0, 73, 88
2, 23519, Note_off_c, 0, 73, 0
2, 23520, Note_on_c, 0, 71, 88
2, 23759, Note_off_c, 0, 71, 0
2, 23760, Note_on_c, 0, 76, 88
2, 24239, Note_off_c, 0, 76, 0
2, 24240, Note_on_c, 0, 74, 88
2, 24479, Note_off_c, 0, 74, 0
2, 24480, Note_on_c, 0, 73, 88
2, 24719, Note_off_c, 0, 73, 0
2, 24720, Note_on_c, 0, 78, 88
2, 25199, Note_off_c, 0, 78, 0
2, 25200, Note_on_c, 0, 77, 88
2, 25439, Note_off_c, 0, 77, 0
2, 25440, Note_on_c, 0, 78, 88
2, 25679, Note_off_c, 0, 78, 0
2, 25680, Note_on_c, 0, 80, 88
2, 25919, Note_off_c, 0, 80, 0
2, 25920, Note_on_c, 0, 73, 88
2, 26159, Note_off_c, 0, 73, 0
2, 26160, Note_on_c, 0, 78, 88
2, 26639, Note_off_c, 0, 78, 0
2, 26640, Note_on_c, 0, 78, 88
2, 26669, Note_off_c, 0, 78, 0
2, 26670, Note_on_c, 0, 77, 88
2, 26699, Note_off_c, 0, 77, 0
2, 26700, Note_on_c, 0, 78, 88
2, 26729, Note_off_c, 0, 78, 0
2, 26730, Note_on_c, 0, 77, 88
2, 26759, Note_off_c, 0, 77, 0
2, 26760, Note_on_c, 0, 78, 88
2, 26789, Note_off_c, 0, 78, 0
2, 26790, Note_on_c, 0, 77, 88
2, 26819, Note_off_c, 0, 77, 0
2, 26820, Note_on_c, 0, 75, 88
2, 26849, Note_off_c, 0, 75, 0
2, 26850, Note_on_c, 0, 77, 88
2, 26879, Note_off_c, 0, 77, 0
2, 26880, Note_on_c, 0, 78, 88
2, 27359, Note_off_c, 0, 78, 0
2, 27360, Note_on_c, 0, 76, 88
2, 27599, Note_off_c, 0, 76, 0
2, 27600, Note_on_c, 0, 81, 88
2, 28079, Note_off_c, 0, 81, 0
2, 28080, Note_on_c, 0, 79, 88
2, 28319, Note_off_c, 0, 79, 0
2, 28320, Note_on_c, 0, 78, 88
2, 28559, Note_off_c, 0, 78, 0
2, 28560, Note_on_c, 0, 83, 88
2, 29039, Note_off_c, 0, 83, 0
2, 29040, Note_on_c, 0, 82, 88
2, 29279, Note_off_c, 0, 82, 0
2, 29280, Note_on_c, 0, 83, 88
2, 29639, Note_off_c, 0, 83, 0
2, 29640, Note_on_c, 0, 81, 88
2, 29699, Note_off_c, 0, 81, 0
2, 29700, Note_on_c, 0, 79, 88
2, 29759, Note_off_c, 0, 79, 0
2, 29760, Note_on_c, 0, 78, 88
2, 30119, Note_off_c, 0, 78, 0
2, 30120, Note_on_c, 0, 79, 88
2, 30239, Note_off_c, 0, 79, 0
2, 30240, Note_on_c, 0, 74, 88
2, 30479, Note_off_c, 0, 74, 0
2, 30480, Note_on_c, 0, 74, 88
2, 30509, Note_off_c, 0, 74, 0
2, 30510, Note_on_c, 0, 73, 88
2, 30532, Note_off_c, 0, 73, 0
2, 30533, Note_on_c, 0, 74, 88
2, 30554, Note_off_c, 0, 74, 0
2, 30555, Note_on_c, 0, 73, 88
2, 30577, Note_off_c, 0, 73, 0
2, 30578, Note_on_c, 0, 74, 88
2, 30599, Note_off_c, 0, 74, 0
2, 30600, Note_on_c, 0, 73, 88
2, 30719, Note_off_c, 0, 73, 0
2, 30720, Note_on_c, 0, 71, 88
2, 30839, Note_off_c, 0, 71, 0
2, 30840, Note_on_c, 0, 79, 88
2, 31079, Note_off_c, 0, 79, 0
2, 31080, Note_on_c, 0, 78, 88
2, 31319, Note_off_c, 0, 78, 0
2, 31320, Note_on_c, 0, 83, 88
2, 31379, Note_off_c, 0, 83, 0
2, 31380, Note_on_c, 0, 82, 88
2, 31439, Note_off_c, 0, 82, 0
2, 31440, Note_on_c, 0, 83, 88
2, 31679, Note_off_c, 0, 83, 0
2, 31680, Note_on_c, 0, 82, 88
2, 31799, Note_off_c, 0, 82, 0
2, 31800, Note_on_c, 0, 83, 88
2, 31919, Note_off_c, 0, 83, 0
2, 31920, Note_on_c, 0, 76, 88
2, 32039, Note_off_c, 0, 76, 0
2, 32040, Note_on_c, 0, 74, 88
2, 32159, Note_off_c, 0, 74, 0
2, 32160, Note_on_c, 0, 74, 88
2, 32234, Note_off_c, 0, 74, 0
2, 32235, Note_on_c, 0, 73, 88
2, 32257, Note_off_c, 0, 73, 0
2, 32258, Note_on_c, 0, 74, 88
2, 32279, Note_off_c, 0, 74, 0
2, 32280, Note_on_c, 0, 73, 88
2, 32639, Note_off_c, 0, 73, 0
2, 32640, Note_on_c, 0, 81, 88
2, 33239, Note_off_c, 0, 81, 0
2, 33240, Note_on_c, 0, 78, 88
2, 33359, Note_off_c, 0, 78, 0
2, 33360, Note_on_c, 0, 83, 88
2, 33479, Note_off_c, 0, 83, 0
2, 33480, Note_on_c, 0, 81, 88
2, 33599, Note_off_c, 0, 81, 0
2, 33600, Note_on_c, 0, 79, 88
2, 33839, Note_off_c, 0, 79, 0
2, 33840, Note_on_c, 0, 79, 88
2, 33862, Note_off_c, 0, 79, 0
2, 33863, Note_on_c, 0, 78, 88
2, 33892, Note_off_c, 0, 78, 0
2, 33893, Note_on_c, 0, 79, 88
2, 33922, Note_off_c, 0, 79, 0
2, 33923, Note_on_c, 0, 78, 88
2, 33944, Note_off_c, 0, 78, 0
2, 33945, Note_on_c, 0, 79, 88
2, 33967, Note_off_c, 0, 79, 0
2, 33968, Note_on_c, 0, 78, 88
2, 33989, Note_off_c, 0, 78, 0
2, 33990, Note_on_c, 0, 79, 88
2, 34012, Note_off_c, 0, 79, 0
2, 34013, Note_on_c, 0, 78, 88
2, 34034, Note_off_c, 0, 78, 0
2, 34035, Note_on_c, 0, 76, 88
2, 34057, Note_off_c, 0, 76, 0
2, 34058, Note_on_c, 0, 78, 88
2, 34079, Note_off_c, 0, 78, 0
2, 34080, Note_on_c, 0, 79, 88
2, 34679, Note_off_c, 0, 79, 0
2, 34680, Note_on_c, 0, 76, 88
2, 34799, Note_off_c, 0, 76, 0
2, 34800, Note_on_c, 0, 81, 88
2, 34919, Note_off_c, 0, 81, 0
2, 34920, Note_on_c, 0, 79, 88
2, 35039, Note_off_c, 0, 79, 0
2, 35040, Note_on_c, 0, 78, 88
2, 35279, Note_off_c, 0, 78, 0
2, 35280, Note_on_c, 0, 78, 88
2, 35302, Note_off_c, 0, 78, 0
2, 35303, Note_on_c, 0, 76, 88
2, 35332, Note_off_c, 0, 76, 0
2, 35333, Note_on_c, 0, 78, 88
2, 35362, Note_off_c, 0, 78, 0
2, 35363, Note_on_c, 0, 76, 88
2, 35384, Note_off_c, 0, 76, 0
2, 35385, Note_on_c, 0, 78, 88
2, 35407, Note_off_c, 0, 78, 0
2, 35408, Note_on_c, 0, 76, 88
2, 35429, Note_off_c, 0, 76, 0
2, 35430, Note_on_c, 0, 78, 88
2, 35452, Note_off_c, 0, 78, 0
2, 35453, Note_on_c, 0, 76, 88
2, 35474, Note_off_c, 0, 76, 0
2, 35475, Note_on_c, 0, 74, 88
2, 35497, Note_off_c, 0, 74, 0
2, 35498, Note_on_c, 0, 76, 88
2, 35519, Note_off_c, 0, 76, 0
2, 35520, Note_on_c, 0, 78, 88
2, 36119, Note_off_c, 0, 78, 0
2, 36120, Note_on_c, 0, 78, 88
2, 36239, Note_off_c, 0, 78, 0
2, 36240, Note_on_c, 0, 80, 88
2, 36359, Note_off_c, 0, 80, 0
2, 36360, Note_on_c, 0, 81, 88
2, 36479, Note_off_c, 0, 81, 0
2, 36480, Note_on_c, 0, 83, 88
2, 36719, Note_off_c, 0, 83, 0
2, 36720, Note_on_c, 0, 81, 88
2, 37199, Note_off_c, 0, 81, 0
2, 37200, Note_on_c, 0, 79, 88
2, 37319, Note_off_c, 0, 79, 0
2, 37320, Note_on_c, 0, 78, 88
2, 37439, Note_off_c, 0, 78, 0
2, 37440, Note_on_c, 0, 77, 88
2, 37559, Note_off_c, 0, 77, 0
2, 37560, Note_on_c, 0, 73, 88
2, 37679, Note_off_c, 0, 73, 0
2, 37680, Note_on_c, 0, 78, 88
2, 37799, Note_off_c, 0, 78, 0
2, 37800, Note_on_c, 0, 76, 88
2, 37919, Note_off_c, 0, 76, 0
2, 37920, Note_on_c, 0, 74, 88
2, 38639, Note_off_c, 0, 74, 0
2, 38640, Note_on_c, 0, 73, 88
2, 38759, Note_off_c, 0, 73, 0
2, 38760, Note_on_c, 0, 71, 88
2, 38879, Note_off_c, 0, 71, 0
2, 38880, Note_on_c, 0, 69, 88
2, 38999, Note_off_c, 0, 69, 0
2, 39000, Note_on_c, 0, 71, 88
2, 39119, Note_off_c, 0, 71, 0
2, 39120, Note_on_c, 0, 73, 88
2, 39599, Note_off_c, 0, 73, 0
2, 39600, Note_on_c, 0, 71, 88
2, 40079, Note_off_c, 0, 71, 0
2, 40080, Note_on_c, 0, 69, 88
2, 40559, Note_off_c, 0, 69, 0
2, 40560, Note_on_c, 0, 68, 88
2, 40679, Note_off_c, 0, 68, 0
2, 40680, Note_on_c, 0, 66, 88
2, 40799, Note_off_c, 0, 66, 0
2, 40800, Note_on_c, 0, 65, 88
2, 40919, Note_off_c, 0, 65, 0
2, 40920, Note_on_c, 0, 74, 88
2, 41039, Note_off_c, 0, 74, 0
2, 41040, Note_on_c, 0, 73, 88
2, 41159, Note_off_c, 0, 73, 0
2, 41160, Note_on_c, 0, 71, 88
2, 41279, Note_off_c, 0, 71, 0
2, 41280, Note_on_c, 0, 69, 88
2, 41519, Note_off_c, 0, 69, 0
2, 41520, Note_on_c, 0, 69, 88
2, 41549, Note_off_c, 0, 69, 0
2, 41550, Note_on_c, 0, 68, 88
2, 41572, Note_off_c, 0, 68, 0
2, 41573, Note_on_c, 0, 69, 88
2, 41594, Note_off_c, 0, 69, 0
2, 41595, Note_on_c, 0, 68, 88
2, 41617, Note_off_c, 0, 68, 0
2, 41618, Note_on_c, 0, 69, 88
2, 41639, Note_off_c, 0, 69, 0
2, 41640, Note_on_c, 0, 68, 88
2, 41759, Note_off_c, 0, 68, 0
2, 41760, Note_on_c, 0, 66, 88
2, 42239, Note_off_c, 0, 66, 0
2, 42240, Note_on_c, 0, 75, 88
2, 42479, Note_off_c, 0, 75, 0
2, 42480, Note_on_c, 0, 76, 88
2, 42599, Note_off_c, 0, 76, 0
2, 42600, Note_on_c, 0, 78, 88
2, 42719, Note_off_c, 0, 78, 0
2, 42720, Note_on_c, 0, 71, 88
2, 42839, Note_off_c, 0, 71, 0
2, 42840, Note_on_c, 0, 84, 88
2, 42959, Note_off_c, 0, 84, 0
2, 42960, Note_on_c, 0, 83, 88
2, 43079, Note_off_c, 0, 83, 0
2, 43080, Note_on_c, 0, 81, 88
2, 43199, Note_off_c, 0, 81, 0
2, 43200, Note_on_c, 0, 79, 88
2, 43439, Note_off_c, 0, 79, 0
2, 43440, Note_on_c, 0, 79, 88
2, 43469, Note_off_c, 0, 79, 0
2, 43470, Note_on_c, 0, 78, 88
2, 43492, Note_off_c, 0, 78, 0
2, 43493, Note_on_c, 0, 79, 88
2, 43514, Note_off_c, 0, 79, 0
2, 43515, Note_on_c, 0, 78, 88
2, 43537, Note_off_c, 0, 78, 0
2, 43538, Note_on_c, 0, 79, 88
2, 43559, Note_off_c, 0, 79, 0
2, 43560, Note_on_c, 0, 78, 88
2, 43679, Note_off_c, 0, 78, 0
2, 43680, Note_on_c, 0, 76, 88
2, 43919, Note_off_c, 0, 76, 0
2, 43920, Note_on_c, 0, 82, 88
2, 44399, Note_off_c, 0, 82, 0
2, 44400, Note_on_c, 0, 81, 88
2, 44519, Note_off_c, 0, 81, 0
2, 44520, Note_on_c, 0, 79, 88
2, 44639, Note_off_c, 0, 79, 0
2, 44640, Note_on_c, 0, 78, 88
2, 44759, Note_off_c, 0, 78, 0
2, 44760, Note_on_c, 0, 73, 88
2, 44879, Note_off_c, 0, 73, 0
2, 44880, Note_on_c, 0, 74, 88
2, 44999, Note_off_c, 0, 74, 0
2, 45000, Note_on_c, 0, 76, 88
2, 45119, Note_off_c, 0, 76, 0
2, 45120, Note_on_c, 0, 69, 88
2, 45239, Note_off_c, 0, 69, 0
2, 45240, Note_on_c, 0, 74, 88
2, 45479, Note_off_c, 0, 74, 0
2, 45480, Note_on_c, 0, 73, 88
2, 45599, Note_off_c, 0, 73, 0
2, 45600, Note_on_c, 0, 66, 88
2, 45719, Note_off_c, 0, 66, 0
2, 45720, Note_on_c, 0, 71, 88
2, 45959, Note_off_c, 0, 71, 0
2, 45960, Note_on_c, 0, 69, 88
2, 46079, Note_off_c, 0, 69, 0
2, 46080, Note_on_c, 0, 62, 88
2, 46199, Note_off_c, 0, 62, 0
2, 46200, Note_on_c, 0, 67, 88
2, 46439, Note_off_c, 0, 67, 0
2, 46440, Note_on_c, 0, 66, 88
2, 46559, Note_off_c, 0, 66, 0
2, 46560, Note_on_c, 0, 68, 88
2, 46799, Note_off_c, 0, 68, 0
2, 46800, Note_on_c, 0, 71, 88
2, 46822, Note_off_c, 0, 71, 0
2, 46823, Note_on_c, 0, 70, 88
2, 46852, Note_off_c, 0, 70, 0
2, 46853, Note_on_c, 0, 71, 88
2, 46874, Note_off_c, 0, 71, 0
2, 46875, Note_on_c, 0, 70, 88
2, 46919, Note_off_c, 0, 70, 0
2, 46920, Note_on_c, 0, 71, 88
2, 47039, Note_off_c, 0, 71, 0
2, 47040, Note_on_c, 0, 73, 88
2, 47639, Note_off_c, 0, 73, 0
2, 47640, Note_on_c, 0, 71, 88
2, 47759, Note_off_c, 0, 71, 0
2, 47760, Note_on_c, 0, 74, 88
2, 47782, Note_off_c, 0, 74, 0
2, 47783, Note_on_c, 0, 73, 88
2, 47812, Note_off_c, 0, 73, 0
2, 47813, Note_on_c, 0, 74, 88
2, 47834, Note_off_c, 0, 74, 0
2, 47835, Note_on_c, 0, 73, 88
2, 47879, Note_off_c, 0, 73, 0
2, 47880, Note_on_c, 0, 74, 88
2, 47999, Note_off_c, 0, 74, 0
2, 48000, Note_on_c, 0, 76, 88
2, 48599, Note_off_c, 0, 76, 0
2, 48600, Note_on_c, 0, 74, 88
2, 48719, Note_off_c, 0, 74, 0
2, 48720, Note_on_c, 0, 78, 88
2, 48742, Note_off_c, 0, 78, 0
2, 48743, Note_on_c, 0, 76, 88
2, 48772, Note_off_c, 0, 76, 0
2, 48773, Note_on_c, 0, 78, 88
2, 48794, Note_off_c, 0, 78, 0
2, 48795, Note_on_c, 0, 76, 88
2, 48839, Note_off_c, 0, 76, 0
2, 48840, Note_on_c, 0, 78, 88
2, 48959, Note_off_c, 0, 78, 0
2, 48960, Note_on_c, 0, 79, 88
2, 49679, Note_off_c, 0, 79, 0
2, 49680, Note_on_c, 0, 78, 88
2, 50039, Note_off_c, 0, 78, 0
2, 50040, Note_on_c, 0, 81, 88
2, 50159, Note_off_c, 0, 81, 0
2, 50160, Note_on_c, 0, 79, 88
2, 50279, Note_off_c, 0, 79, 0
2, 50280, Note_on_c, 0, 78, 88
2, 50399, Note_off_c, 0, 78, 0
2, 50400, Note_on_c, 0, 79, 88
2, 50639, Note_off_c, 0, 79, 0
2, 50640, Note_on_c, 0, 80, 88
2, 50999, Note_off_c, 0, 80, 0
2, 51000, Note_on_c, 0, 83, 88
2, 51119, Note_off_c, 0, 83, 0
2, 51120, Note_on_c, 0, 81, 88
2, 51239, Note_off_c, 0, 81, 0
2, 51240, Note_on_c, 0, 80, 88
2, 51359, Note_off_c, 0, 80, 0
2, 51360, Note_on_c, 0, 81, 88
2, 51599, Note_off_c, 0, 81, 0
2, 51600, Note_on_c, 0, 82, 88
2, 51959, Note_off_c, 0, 82, 0
2, 51960, Note_on_c, 0, 84, 88
2, 52079, Note_off_c, 0, 84, 0
2, 52080, Note_on_c, 0, 83, 88
2, 52199, Note_off_c, 0, 83, 0
2, 52200, Note_on_c, 0, 82, 88
2, 52319, Note_off_c, 0, 82, 0
2, 52320, Note_on_c, 0, 83, 88
2, 52679, Note_off_c, 0, 83, 0
2, 52680, Note_on_c, 0, 81, 88
2, 52799, Note_off_c, 0, 81, 0
2, 52800, Note_on_c, 0, 79, 88
2, 53279, Note_off_c, 0, 79, 0
2, 53280, Note_on_c, 0, 78, 88
2, 53759, Note_off_c, 0, 78, 0
2, 53760, Note_on_c, 0, 76, 88
2, 54239, Note_off_c, 0, 76, 0
2, 54240, Note_on_c, 0, 74, 88
2, 54959, Note_off_c, 0, 74, 0
2, 54960, Note_on_c, 0, 73, 88
2, 55079, Note_off_c, 0, 73, 0
2, 55080, Note_on_c, 0, 71, 88
2, 55199, Note_off_c, 0, 71, 0
2, 55200, Note_on_c, 0, 70, 88
2, 55319, Note_off_c, 0, 70, 0
2, 55320, Note_on_c, 0, 79, 88
2, 55439, Note_off_c, 0, 79, 0
2, 55440, Note_on_c, 0, 78, 88
2, 55559, Note_off_c, 0, 78, 0
2, 55560, Note_on_c, 0, 76, 88
2, 55679, Note_off_c, 0, 76, 0
2, 55680, Note_on_c, 0, 74, 88
2, 55919, Note_off_c, 0, 74, 0
2, 55920, Note_on_c, 0, 74, 88
2, 55949, Note_off_c, 0, 74, 0
2, 55950, Note_on_c, 0, 73, 88
2, 55972, Note_off_c, 0, 73, 0
2, 55973, Note_on_c, 0, 74, 88
2, 55994, Note_off_c, 0, 74, 0
2, 55995, Note_on_c, 0, 73, 88
2, 56017, Note_off_c, 0, 73, 0
2, 56018, Note_on_c, 0, 74, 88
2, 56039, Note_off_c, 0, 74, 0
2, 56040, Note_on_c, 0, 73, 88
2, 56159, Note_off_c, 0, 73, 0
2, 56160, Note_on_c, 0, 71, 88
2, 56759, Note_off_c, 0, 71, 0
2, 56760, Note_on_c, 0, 71, 88
2, 56999, Note_off_c, 0, 71, 0
2, 57000, Note_on_c, 0, 70, 88
2, 57119, Note_off_c, 0, 70, 0
2, 57120, Note_on_c, 0, 76, 88
2, 57719, Note_off_c, 0, 76, 0
2, 57720, Note_on_c, 0, 76, 88
2, 57959, Note_off_c, 0, 76, 0
2, 57960, Note_on_c, 0, 75, 88
2, 58079, Note_off_c, 0, 75, 0
2, 58080, Note_on_c, 0, 79, 88
2, 58679, Note_off_c, 0, 79, 0
2, 58680, Note_on_c, 0, 78, 88
2, 58919, Note_off_c, 0, 78, 0
2, 58920, Note_on_c, 0, 77, 88
2, 59039, Note_off_c, 0, 77, 0
2, 59040, Note_on_c, 0, 83, 88
2, 59159, Note_off_c, 0, 83, 0
2, 59160, Note_on_c, 0, 76, 88
2, 59219, Note_off_c, 0, 76, 0
2, 59220, Note_on_c, 0, 75, 88
2, 59279, Note_off_c, 0, 75, 0
2, 59280, Note_on_c, 0, 76, 88
2, 59399, Note_off_c, 0, 76, 0
2, 59400, Note_on_c, 0, 79, 88
2, 59519, Note_off_c, 0, 79, 0
2, 59520, Note_on_c, 0, 74, 88
2, 59759, Note_off_c, 0, 74, 0
2, 59760, Note_on_c, 0, 74, 88
2, 59789, Note_off_c, 0, 74, 0
2, 59790, Note_on_c, 0, 73, 88
2, 59812, Note_off_c, 0, 73, 0
2, 59813, Note_on_c, 0, 74, 88
2, 59834, Note_off_c, 0, 74, 0
2, 59835, Note_on_c, 0, 73, 88
2, 59857, Note_off_c, 0, 73, 0
2, 59858, Note_on_c, 0, 74, 88
2, 59879, Note_off_c, 0, 74, 0
2, 59880, Note_on_c, 0, 73, 88
2, 59999, Note_off_c, 0, 73, 0
2, 60000, Note_on_c, 0, 75, 88
2, 60119, Note_off_c, 0, 75, 0
2, 60120, Note_on_c, 0, 76, 88
2, 60239, Note_off_c, 0, 76, 0
2, 60240, Note_on_c, 0, 70, 88
2, 60359, Note_off_c, 0, 70, 0
2, 60360, Note_on_c, 0, 71, 88
2, 60839, Note_off_c, 0, 71, 0
2, 60840, Note_on_c, 0, 70, 88
2, 60959, Note_off_c, 0, 70, 0
2, 60960, Note_on_c, 0, 71, 88
2, 61439, Note_off_c, 0, 71, 0
2, 61440, Note_on_c, 0, 81, 88
2, 62039, Note_off_c, 0, 81, 0
2, 62040, Note_on_c, 0, 78, 88
2, 62159, Note_off_c, 0, 78, 0
2, 62160, Note_on_c, 0, 83, 88
2, 62279, Note_off_c, 0, 83, 0
2, 62280, Note_on_c, 0, 81, 88
2, 62399, Note_off_c, 0, 81, 0
2, 62400, Note_on_c, 0, 79, 88
2, 62639, Note_off_c, 0, 79, 0
2, 62640, Note_on_c, 0, 79, 88
2, 62662, Note_off_c, 0, 79, 0
2, 62663, Note_on_c, 0, 78, 88
2, 62692, Note_off_c, 0, 78, 0
2, 62693, Note_on_c, 0, 79, 88
2, 62722, Note_off_c, 0, 79, 0
2, 62723, Note_on_c, 0, 78, 88
2, 62744, Note_off_c, 0, 78, 0
2, 62745, Note_on_c, 0, 79, 88
2, 62767, Note_off_c, 0, 79, 0
2, 62768, Note_on_c, 0, 78, 88
2, 62789, Note_off_c, 0, 78, 0
2, 62790, Note_on_c, 0, 79, 88
2, 62812, Note_off_c, 0, 79, 0
2, 62813, Note_on_c, 0, 78, 88
2, 62834, Note_off_c, 0, 78, 0
2, 62835, Note_on_c, 0, 76, 88
2, 62857, Note_off_c, 0, 76, 0
2, 62858, Note_on_c, 0, 78, 88
2, 62879, Note_off_c, 0, 78, 0
2, 62880, Note_on_c, 0, 79, 88
2, 63479, Note_off_c, 0, 79, 0
2, 63480, Note_on_c, 0, 76, 88
2, 63599, Note_off_c, 0, 76, 0
2, 63600, Note_on_c, 0, 81, 88
2, 63719, Note_off_c, 0, 81, 0
2, 63720, Note_on_c, 0, 79, 88
2, 63839, Note_off_c, 0, 79, 0
2, 63840, Note_on_c, 0, 78, 88
2, 64079, Note_off_c, 0, 78, 0
2, 64080, Note_on_c, 0, 78, 88
2, 64102, Note_off_c, 0, 78, 0
2, 64103, Note_on_c, 0, 76, 88
2, 64132, Note_off_c, 0, 76, 0
2, 64133, Note_on_c, 0, 78, 88
2, 64162, Note_off_c, 0, 78, 0
2, 64163, Note_on_c, 0, 76, 88
2, 64184, Note_off_c, 0, 76, 0
2, 64185, Note_on_c, 0, 78, 88
2, 64207, Note_off_c, 0, 78, 0
2, 64208, Note_on_c, 0, 76, 88
2, 64229, Note_off_c, 0, 76, 0
2, 64230, Note_on_c, 0, 78, 88
2, 64252, Note_off_c, 0, 78, 0
2, 64253, Note_on_c, 0, 76, 88
2, 64274, Note_off_c, 0, 76, 0
2, 64275, Note_on_c, 0, 74, 88
2, 64297, Note_off_c, 0, 74, 0
2, 64298, Note_on_c, 0, 76, 88
2, 64319, Note_off_c, 0, 76, 0
2, 64320, Note_on_c, 0, 78, 88
2, 64919, Note_off_c, 0, 78, 0
2, 64920, Note_on_c, 0, 78, 88
2, 65039, Note_off_c, 0, 78, 0
2, 65040, Note_on_c, 0, 80, 88
2, 65159, Note_off_c, 0, 80, 0
2, 65160, Note_on_c, 0, 81, 88
2, 65279, Note_off_c, 0, 81, 0
2, 65280, Note_on_c, 0, 83, 88
2, 65519, Note_off_c, 0, 83, 0
2, 65520, Note_on_c, 0, 81, 88
2, 65999, Note_off_c, 0, 81, 0
2, 66000, Note_on_c, 0, 79, 88
2, 66119, Note_off_c, 0, 79, 0
2, 66120, Note_on_c, 0, 78, 88
2, 66239, Note_off_c, 0, 78, 0
2, 66240, Note_on_c, 0, 77, 88
2, 66359, Note_off_c, 0, 77, 0
2, 66360, Note_on_c, 0, 73, 88
2, 66479, Note_off_c, 0, 73, 0
2, 66480, Note_on_c, 0, 78, 88
2, 66599, Note_off_c, 0, 78, 0
2, 66600, Note_on_c, 0, 76, 88
2, 66719, Note_off_c, 0, 76, 0
2, 66720, Note_on_c, 0, 74, 88
2, 67439, Note_off_c, 0, 74, 0
2, 67440, Note_on_c, 0, 73, 88
2, 67559, Note_off_c, 0, 73, 0
2, 67560, Note_on_c, 0, 71, 88
2, 67679, Note_off_c, 0, 71, 0
2, 67680, Note_on_c, 0, 69, 88
2, 67799, Note_off_c, 0, 69, 0
2, 67800, Note_on_c, 0, 71, 88
2, 67919, Note_off_c, 0, 71, 0
2, 67920, Note_on_c, 0, 73, 88
2, 68399, Note_off_c, 0, 73, 0
2, 68400, Note_on_c, 0, 71, 88
2, 68879, Note_off_c, 0, 71, 0
2, 68880, Note_on_c, 0, 69, 88
2, 69359, Note_off_c, 0, 69, 0
2, 69360, Note_on_c, 0, 68, 88
2, 69479, Note_off_c, 0, 68, 0
2, 69480, Note_on_c, 0, 66, 88
2, 69599, Note_off_c, 0, 66, 0
2, 69600, Note_on_c, 0, 65, 88
2, 69719, Note_off_c, 0, 65, 0
2, 69720, Note_on_c, 0, 74, 88
2, 69839, Note_off_c, 0, 74, 0
2, 69840, Note_on_c, 0, 73, 88
2, 69959, Note_off_c, 0, 73, 0
2, 69960, Note_on_c, 0, 71, 88
2, 70079, Note_off_c, 0, 71, 0
2, 70080, Note_on_c, 0, 69, 88
2, 70319, Note_off_c, 0, 69, 0
2, 70320, Note_on_c, 0, 69, 88
2, 70349, Note_off_c, 0, 69, 0
2, 70350, Note_on_c, 0, 68, 88
2, 70372, Note_off_c, 0, 68, 0
2, 70373, Note_on_c, 0, 69, 88
2, 70394, Note_off_c, 0, 69, 0
2, 70395, Note_on_c, 0, 68, 88
2, 70417, Note_off_c, 0, 68, 0
2, 70418, Note_on_c, 0, 69, 88
2, 70439, Note_off_c, 0, 69, 0
2, 70440, Note_on_c, 0, 68, 88
2, 70559, Note_off_c, 0, 68, 0
2, 70560, Note_on_c, 0, 66, 88
2, 71039, Note_off_c, 0, 66, 0
2, 71040, Note_on_c, 0, 75, 88
2, 71279, Note_off_c, 0, 75, 0
2, 71280, Note_on_c, 0, 76, 88
2, 71399, Note_off_c, 0, 76, 0
2, 71400, Note_on_c, 0, 78, 88
2, 71519, Note_off_c, 0, 78, 0
2, 71520, Note_on_c, 0, 71, 88
2, 71639, Note_off_c, 0, 71, 0
2, 71640, Note_on_c, 0, 84, 88
2, 71759, Note_off_c, 0, 84, 0
2, 71760, Note_on_c, 0, 83, 88
2, 71879, Note_off_c, 0, 83, 0
2, 71880, Note_on_c, 0, 81, 88
2, 71999, Note_off_c, 0, 81, 0
2, 72000, Note_on_c, 0, 79, 88
2, 72239, Note_off_c, 0, 79, 0
2, 72240, Note_on_c, 0, 79, 88
2, 72269, Note_off_c, 0, 79, 0
2, 72270, Note_on_c, 0, 78, 88
2, 72292, Note_off_c, 0, 78, 0
2, 72293, Note_on_c, 0, 79, 88
2, 72314, Note_off_c, 0, 79, 0
2, 72315, Note_on_c, 0, 78, 88
2, 72337, Note_off_c, 0, 78, 0
2, 72338, Note_on_c, 0, 79, 88
2, 72359, Note_off_c, 0, 79, 0
2, 72360, Note_on_c, 0, 78, 88
2, 72479, Note_off_c, 0, 78, 0
2, 72480, Note_on_c, 0, 76, 88
2, 72719, Note_off_c, 0, 76, 0
2, 72720, Note_on_c, 0, 82, 88
2, 73199, Note_off_c, 0, 82, 0
2, 73200, Note_on_c, 0, 81, 88
2, 73319, Note_off_c, 0, 81, 0
2, 73320, Note_on_c, 0, 79, 88
2, 73439, Note_off_c, 0, 79, 0
2, 73440, Note_on_c, 0, 78, 88
2, 73559, Note_off_c, 0, 78, 0
2, 73560, Note_on_c, 0, 73, 88
2, 73679, Note_off_c, 0, 73, 0
2, 73680, Note_on_c, 0, 74, 88
2, 73799, Note_off_c, 0, 74, 0
2, 73800, Note_on_c, 0, 76, 88
2, 73919, Note_off_c, 0, 76, 0
2, 73920, Note_on_c, 0, 69, 88
2, 74039, Note_off_c, 0, 69, 0
2, 74040, Note_on_c, 0, 74, 88
2, 74279, Note_off_c, 0, 74, 0
2, 74280, Note_on_c, 0, 73, 88
2, 74399, Note_off_c, 0, 73, 0
2, 74400, Note_on_c, 0, 66, 88
2, 74519, Note_off_c, 0, 66, 0
2, 74520, Note_on_c, 0, 71, 88
2, 74759, Note_off_c, 0, 71, 0
2, 74760, Note_on_c, 0, 69, 88
2, 74879, Note_off_c, 0, 69, 0
2, 74880, Note_on_c, 0, 62, 88
2, 74999, Note_off_c, 0, 62, 0
2, 75000, Note_on_c, 0, 67, 88
2, 75239, Note_off_c, 0, 67, 0
2, 75240, Note_on_c, 0, 66, 88
2, 75359, Note_off_c, 0, 66, 0
2, 75360, Note_on_c, 0, 68, 88
2, 75599, Note_off_c, 0, 68, 0
2, 75600, Note_on_c, 0, 71, 88
2, 75622, Note_off_c, 0, 71, 0
2, 75623, Note_on_c, 0, 70, 88
2, 75652, Note_off_c, 0, 70, 0
2, 75653, Note_on_c, 0, 71, 88
2, 75674, Note_off_c, 0, 71, 0
2, 75675, Note_on_c, 0, 70, 88
2, 75719, Note_off_c, 0, 70, 0
2, 75720, Note_on_c, 0, 71, 88
2, 75839, Note_off_c, 0, 71, 0
2, 75840, Note_on_c, 0, 73, 88
2, 76439, Note_off_c, 0, 73, 0
2, 76440, Note_on_c, 0, 71, 88
2, 76559, Note_off_c, 0, 71, 0
2, 76560, Note_on_c, 0, 74, 88
2, 76582, Note_off_c, 0, 74, 0
2, 76583, Note_on_c, 0, 73, 88
2, 76612, Note_off_c, 0, 73, 0
2, 76613, Note_on_c, 0, 74, 88
2, 76634, Note_off_c, 0, 74, 0
2, 76635, Note_on_c, 0, 73, 88
2, 76679, Note_off_c, 0, 73, 0
2, 76680, Note_on_c, 0, 74, 88
2, 76799, Note_off_c, 0, 74, 0
2, 76800, Note_on_c, 0, 76, 88
2, 77399, Note_off_c, 0, 76, 0
2, 77400, Note_on_c, 0, 74, 88
2, 77519, Note_off_c, 0, 74, 0
2, 77520, Note_on_c, 0, 78, 88
2, 77542, Note_off_c, 0, 78, 0
2, 77543, Note_on_c, 0, 76, 88
2, 77572, Note_off_c, 0, 76, 0
2, 77573, Note_on_c, 0, 78, 88
2, 77594, Note_off_c, 0, 78, 0
2, 77595, Note_on_c, 0, 76, 88
2, 77639, Note_off_c, 0, 76, 0
2, 77640, Note_on_c, 0, 78, 88
2, 77759, Note_off_c, 0, 78, 0
2, 77760, Note_on_c, 0, 79, 88
2, 78479, Note_off_c, 0, 79, 0
2, 78480, Note_on_c, 0, 78, 88
2, 78839, Note_off_c, 0, 78, 0
2, 78840, Note_on_c, 0, 81, 88
2, 78959, Note_off_c, 0, 81, 0
2, 78960, Note_on_c, 0, 79, 88
2, 79079, Note_off_c, 0, 79, 0
2, 79080, Note_on_c, 0, 78, 88
2, 79199, Note_off_c, 0, 78, 0
2, 79200, Note_on_c, 0, 79, 88
2, 79439, Note_off_c, 0, 79, 0
2, 79440, Note_on_c, 0, 80, 88
2, 79799, Note_off_c, 0, 80, 0
2, 79800, Note_on_c, 0, 83, 88
2, 79919, Note_off_c, 0, 83, 0
2, 79920, Note_on_c, 0, 81, 88
2, 80039, Note_off_c, 0, 81, 0
2, 80040, Note_on_c, 0, 80, 88
2, 80159, Note_off_c, 0, 80, 0
2, 80160, Note_on_c, 0, 81, 88
2, 80399, Note_off_c, 0, 81, 0
2, 80400, Note_on_c, 0, 82, 88
2, 80759, Note_off_c, 0, 82, 0
2, 80760, Note_on_c, 0, 84, 88
2, 80879, Note_off_c, 0, 84, 0
2, 80880, Note_on_c, 0, 83, 88
2, 80999, Note_off_c, 0, 83, 0
2, 81000, Note_on_c, 0, 82, 88
2, 81119, Note_off_c, 0, 82, 0
2, 81120, Note_on_c, 0, 83, 88
2, 81479, Note_off_c, 0, 83, 0
2, 81480, Note_on_c, 0, 81, 88
2, 81599, Note_off_c, 0, 81, 0
2, 81600, Note_on_c, 0, 79, 88
2, 82079, Note_off_c, 0, 79, 0
2, 82080, Note_on_c, 0, 78, 88
2, 82559, Note_off_c, 0, 78, 0
2, 82560, Note_on_c, 0, 76, 88
2, 83039, Note_off_c, 0, 76, 0
2, 83040, Note_on_c, 0, 74, 88
2, 83759, Note_off_c, 0, 74, 0
2, 83760, Note_on_c, 0, 73, 88
2, 83879, Note_off_c, 0, 73, 0
2, 83880, Note_on_c, 0, 71, 88
2, 83999, Note_off_c, 0, 71, 0
2, 84000, Note_on_c, 0, 70, 88
2, 84119, Note_off_c, 0, 70, 0
2, 84120, Note_on_c, 0, 79, 88
2, 84239, Note_off_c, 0, 79, 0
2, 84240, Note_on_c, 0, 78, 88
2, 84359, Note_off_c, 0, 78, 0
2, 84360, Note_on_c, 0, 76, 88
2, 84479, Note_off_c, 0, 76, 0
2, 84480, Note_on_c, 0, 74, 88
2, 84719, Note_off_c, 0, 74, 0
2, 84720, Note_on_c, 0, 74, 88
2, 84749, Note_off_c, 0, 74, 0
2, 84750, Note_on_c, 0, 73, 88
2, 84772, Note_off_c, 0, 73, 0
2, 84773, Note_on_c, 0, 74, 88
2, 84794, Note_off_c, 0, 74, 0
2, 84795, Note_on_c, 0, 73, 88
2, 84817, Note_off_c, 0, 73, 0
2, 84818, Note_on_c, 0, 74, 88
2, 84839, Note_off_c, 0, 74, 0
2, 84840, Note_on_c, 0, 73, 88
2, 84959, Note_off_c, 0, 73, 0
2, 84960, Note_on_c, 0, 71, 88
2, 85559, Note_off_c, 0, 71, 0
2, 85560, Note_on_c, 0, 71, 88
2, 85799, Note_off_c, 0, 71, 0
2, 85800, Note_on_c, 0, 70, 88
2, 85919, Note_off_c, 0, 70, 0
2, 85920, Note_on_c, 0, 76, 88
2, 86519, Note_off_c, 0, 76, 0
2, 86520, Note_on_c, 0, 76, 88
2, 86759, Note_off_c, 0, 76, 0
2, 86760, Note_on_c, 0, 75, 88
2, 86879, Note_off_c, 0, 75, 0
2, 86880, Note_on_c, 0, 79, 88
2, 87479, Note_off_c, 0, 79, 0
2, 87480, Note_on_c, 0, 78, 88
2, 87719, Note_off_c, 0, 78, 0
2, 87720, Note_on_c, 0, 77, 88
2, 87839, Note_off_c, 0, 77, 0
2, 87840, Note_on_c, 0, 83, 88
2, 87959, Note_off_c, 0, 83, 0
2, 87960, Note_on_c, 0, 76, 88
2, 88019, Note_off_c, 0, 76, 0
2, 88020, Note_on_c, 0, 75, 88
2, 88079, Note_off_c, 0, 75, 0
2, 88080, Note_on_c, 0, 76, 88
2, 88199, Note_off_c, 0, 76, 0
2, 88200, Note_on_c, 0, 79, 88
2, 88319, Note_off_c, 0, 79, 0
2, 88320, Note_on_c, 0, 74, 88
2, 88559, Note_off_c, 0, 74, 0
2, 88560, Note_on_c, 0, 74, 88
2, 88589, Note_off_c, 0, 74, 0
2, 88590, Note_on_c, 0, 73, 88
2, 88612, Note_off_c, 0, 73, 0
2, 88613, Note_on_c, 0, 74, 88
2, 88634, Note_off_c, 0, 74, 0
2, 88635, Note_on_c, 0, 73, 88
2, 88657, Note_off_c, 0, 73, 0
2, 88658, Note_on_c, 0, 74, 88
2, 88679, Note_off_c, 0, 74, 0
2, 88680, Note_on_c, 0, 73, 88
2, 88799, Note_off_c, 0, 73, 0
2, 88800, Note_on_c, 0, 75, 88
2, 88919, Note_off_c, 0, 75, 0
2, 88920, Note_on_c, 0, 76, 88
2, 89039, Note_off_c, 0, 76, 0
2, 89040, Note_on_c, 0, 70, 88
2, 89159, Note_off_c, 0, 70, 0
2, 89160, Note_on_c, 0, 71, 88
2, 89639, Note_off_c, 0, 71, 0
2, 89640, Note_on_c, 0, 70, 88
2, 89759, Note_off_c, 0, 70, 0
2, 89760, Note_on_c, 0, 71, 88
2, 89800, Note_off_c, 0, 71, 0
2, 89800, End_track
0, 0, End_of_file