0, 0, Header, 1, 2, 240
1, 0, Start_track
1, 0, Time_signature, 4, 2, 24, 8
1, 0, Tempo, 1071428
1, 0, SMPTE_offset, 64, 0, 0, 0, 100
1, 0, End_track
2, 0, Start_track
2, 0, Title_t, "Track 1"
2, 0, Program_c, 0, 6
2, 60, Note_on_c, 0, 72, 88
2, 119, Note_off_c, 0, 72, 0
2, 120, Note_on_c, 0, 74, 88
2, 179, Note_off_c, 0, 74, 0
2, 180, Note_on_c, 0, 76, 88
2, 239, Note_off_c, 0, 76, 0
2, 240, Note_on_c, 0, 67, 88
2, 299, Note_off_c, 0, 67, 0
2, 300, Note_on_c, 0, 76, 88
2, 359, Note_off_c, 0, 76, 0
2, 360, Note_on_c, 0, 65, 88
2, 419, Note_off_c, 0, 65, 0
2, 420, Note_on_c, 0, 74, 88
2, 479, Note_off_c, 0, 74, 0
2, 480, Note_on_c, 0, 64, 88
2, 509, Note_off_c, 0, 64, 0
2, 510, Note_on_c, 0, 72, 88
2, 539, Note_off_c, 0, 72, 0
2, 540, Note_on_c, 0, 71, 88
2, 569, Note_off_c, 0, 71, 0
2, 570, Note_on_c, 0, 69, 88
2, 599, Note_off_c, 0, 69, 0
2, 600, Note_on_c, 0, 67, 88
2, 659, Note_off_c, 0, 67, 0
2, 660, Note_on_c, 0, 70, 88
2, 719, Note_off_c, 0, 70, 0
2, 720, Note_on_c, 0, 64, 88
2, 779, Note_off_c, 0, 64, 0
2, 780, Note_on_c, 0, 67, 88
2, 839, Note_off_c, 0, 67, 0
2, 840, Note_on_c, 0, 60, 88
2, 899, Note_off_c, 0, 60, 0
2, 900, Note_on_c, 0, 70, 88
2, 959, Note_off_c, 0, 70, 0
2, 960, Note_on_c, 0, 69, 88
2, 989, Note_off_c, 0, 69, 0
2, 990, Note_on_c, 0, 67, 88
2, 1019, Note_off_c, 0, 67, 0
2, 1020, Note_on_c, 0, 65, 88
2, 1049, Note_off_c, 0, 65, 0
2, 1050, Note_on_c, 0, 64, 88
2, 1079, Note_off_c, 0, 64, 0
2, 1080, Note_on_c, 0, 65, 88
2, 1139, Note_off_c, 0, 65, 0
2, 1140, Note_on_c, 0, 69, 88
2, 1199, Note_off_c, 0, 69, 0
2, 1200, Note_on_c, 0, 62, 88
2, 1259, Note_off_c, 0, 62, 0
2, 1260, Note_on_c, 0, 65, 88
2, 1319, Note_off_c, 0, 65, 0
2, 1320, Note_on_c, 0, 57, 88
2, 1379, Note_off_c, 0, 57, 0
2, 1380, Note_on_c, 0, 60, 88
2, 1439, Note_off_c, 0, 60, 0
2, 1440, Note_on_c, 0, 59, 88
2, 1499, Note_off_c, 0, 59, 0
2, 1500, Note_on_c, 0, 62, 88
2, 1559, Note_off_c, 0, 62, 0
2, 1560, Note_on_c, 0, 64, 88
2, 1619, Note_off_c, 0, 64, 0
2, 1620, Note_on_c, 0, 65, 88
2, 1679, Note_off_c, 0, 65, 0
2, 1680, Note_on_c, 0, 55, 88
2, 1739, Note_off_c, 0, 55, 0
2, 1740, Note_on_c, 0, 65, 88
2, 1799, Note_off_c, 0, 65, 0
2, 1800, Note_on_c, 0, 64, 88
2, 1859, Note_off_c, 0, 64, 0
2, 1860, Note_on_c, 0, 62, 88
2, 1919, Note_off_c, 0, 62, 0
2, 1920, Note_on_c, 0, 64, 88
2, 3179, Note_off_c, 0, 64, 0
2, 3180, Note_on_c, 0, 62, 88
2, 3299, Note_off_c, 0, 62, 0
2, 3300, Note_on_c, 0, 60, 88
2, 3359, Note_off_c, 0, 60, 0
2, 3360, Note_on_c, 0, 59, 88
2, 3419, Note_off_c, 0, 59, 0
2, 3420, Note_on_c, 0, 62, 88
2, 3479, Note_off_c, 0, 62, 0
2, 3480, Note_on_c, 0, 67, 88
2, 3659, Note_off_c, 0, 67, 0
2, 3660, Note_on_c, 0, 67, 88
2, 3719, Note_off_c, 0, 67, 0
2, 3720, Note_on_c, 0, 65, 88
2, 3779, Note_off_c, 0, 65, 0
2, 3780, Note_on_c, 0, 64, 88
2, 3839, Note_off_c, 0, 64, 0
2, 3840, Note_on_c, 0, 65, 88
2, 4139, Note_off_c, 0, 65, 0
2, 4140, Note_on_c, 0, 65, 88
2, 4199, Note_off_c, 0, 65, 0
2, 4200, Note_on_c, 0, 64, 88
2, 4259, Note_off_c, 0, 64, 0
2, 4260, Note_on_c, 0, 62, 88
2, 4319, Note_off_c, 0, 62, 0
2, 4320, Note_on_c, 0, 64, 88
2, 4799, Note_off_c, 0, 64, 0
2, 4800, Note_on_c, 0, 62, 88
2, 5099, Note_off_c, 0, 62, 0
2, 5100, Note_on_c, 0, 62, 88
2, 5159, Note_off_c, 0, 62, 0
2, 5160, Note_on_c, 0, 64, 88
2, 5219, Note_off_c, 0, 64, 0
2, 5220, Note_on_c, 0, 67, 88
2, 5279, Note_off_c, 0, 67, 0
2, 5280, Note_on_c, 0, 60, 88
2, 5579, Note_off_c, 0, 60, 0
2, 5580, Note_on_c, 0, 69, 88
2, 5609, Note_off_c, 0, 69, 0
2, 5610, Note_on_c, 0, 67, 88
2, 5639, Note_off_c, 0, 67, 0
2, 5640, Note_on_c, 0, 69, 88
2, 5699, Note_off_c, 0, 69, 0
2, 5700, Note_on_c, 0, 60, 88
2, 5759, Note_off_c, 0, 60, 0
2, 5760, Note_on_c, 0, 59, 88
2, 6059, Note_off_c, 0, 59, 0
2, 6060, Note_on_c, 0, 62, 88
2, 6119, Note_off_c, 0, 62, 0
2, 6120, Note_on_c, 0, 64, 88
2, 6179, Note_off_c, 0, 64, 0
2, 6180, Note_on_c, 0, 65, 88
2, 6239, Note_off_c, 0, 65, 0
2, 6240, Note_on_c, 0, 67, 88
2, 6659, Note_off_c, 0, 67, 0
2, 6660, Note_on_c, 0, 67, 88
2, 6719, Note_off_c, 0, 67, 0
2, 6720, Note_on_c, 0, 65, 88
2, 7199, Note_off_c, 0, 65, 0
2, 7200, Note_on_c, 0, 64, 88
2, 7499, Note_off_c, 0, 64, 0
2, 7500, Note_on_c, 0, 64, 88
2, 7559, Note_off_c, 0, 64, 0
2, 7560, Note_on_c, 0, 65, 88
2, 7619, Note_off_c, 0, 65, 0
2, 7620, Note_on_c, 0, 67, 88
2, 7679, Note_off_c, 0, 67, 0
2, 7680, Note_on_c, 0, 69, 88
2, 7709, Note_off_c, 0, 69, 0
2, 7710, Note_on_c, 0, 67, 88
2, 7739, Note_off_c, 0, 67, 0
2, 7740, Note_on_c, 0, 65, 88
2, 7769, Note_off_c, 0, 65, 0
2, 7770, Note_on_c, 0, 64, 88
2, 7799, Note_off_c, 0, 64, 0
2, 7800, Note_on_c, 0, 65, 88
2, 7859, Note_off_c, 0, 65, 0
2, 7860, Note_on_c, 0, 69, 88
2, 7919, Note_off_c, 0, 69, 0
2, 7920, Note_on_c, 0, 62, 88
2, 7979, Note_off_c, 0, 62, 0
2, 7980, Note_on_c, 0, 72, 88
2, 8039, Note_off_c, 0, 72, 0
2, 8040, Note_on_c, 0, 71, 88
2, 8099, Note_off_c, 0, 71, 0
2, 8100, Note_on_c, 0, 69, 88
2, 8159, Note_off_c, 0, 69, 0
2, 8160, Note_on_c, 0, 68, 88
2, 8459, Note_off_c, 0, 68, 0
2, 8460, Note_on_c, 0, 64, 88
2, 8519, Note_off_c, 0, 64, 0
2, 8520, Note_on_c, 0, 69, 88
2, 8759, Note_off_c, 0, 69, 0
2, 8760, Note_on_c, 0, 69, 88
2, 8879, Note_off_c, 0, 69, 0
2, 8880, Note_on_c, 0, 67, 88
2, 8999, Note_off_c, 0, 67, 0
2, 9000, Note_on_c, 0, 65, 88
2, 9119, Note_off_c, 0, 65, 0
2, 9120, Note_on_c, 0, 64, 88
2, 9299, Note_off_c, 0, 64, 0
2, 9300, Note_on_c, 0, 64, 88
2, 9419, Note_off_c, 0, 64, 0
2, 9420, Note_on_c, 0, 64, 88
2, 9479, Note_off_c, 0, 64, 0
2, 9480, Note_on_c, 0, 62, 88
2, 9539, Note_off_c, 0, 62, 0
2, 9540, Note_on_c, 0, 61, 88
2, 9599, Note_off_c, 0, 61, 0
2, 9600, Note_on_c, 0, 62, 88
2, 9659, Note_off_c, 0, 62, 0
2, 9660, Note_on_c, 0, 69, 88
2, 9719, Note_off_c, 0, 69, 0
2, 9720, Note_on_c, 0, 71, 88
2, 9779, Note_off_c, 0, 71, 0
2, 9780, Note_on_c, 0, 73, 88
2, 9839, Note_off_c, 0, 73, 0
2, 9840, Note_on_c, 0, 74, 88
2, 9899, Note_off_c, 0, 74, 0
2, 9900, Note_on_c, 0, 77, 88
2, 10139, Note_off_c, 0, 77, 0
2, 10140, Note_on_c, 0, 77, 88
2, 10199, Note_off_c, 0, 77, 0
2, 10200, Note_on_c, 0, 75, 88
2, 10259, Note_off_c, 0, 75, 0
2, 10260, Note_on_c, 0, 74, 88
2, 10319, Note_off_c, 0, 74, 0
2, 10320, Note_on_c, 0, 75, 88
2, 10379, Note_off_c, 0, 75, 0
2, 10380, Note_on_c, 0, 79, 88
2, 10439, Note_off_c, 0, 79, 0
2, 10440, Note_on_c, 0, 73, 88
2, 10499, Note_off_c, 0, 73, 0
2, 10500, Note_on_c, 0, 74, 88
2, 10559, Note_off_c, 0, 74, 0
2, 10560, Note_on_c, 0, 73, 88
2, 10919, Note_off_c, 0, 73, 0
2, 10920, Note_on_c, 0, 74, 88
2, 11099, Note_off_c, 0, 74, 0
2, 11100, Note_on_c, 0, 74, 88
2, 11159, Note_off_c, 0, 74, 0
2, 11160, Note_on_c, 0, 73, 88
2, 11219, Note_off_c, 0, 73, 0
2, 11220, Note_on_c, 0, 71, 88
2, 11279, Note_off_c, 0, 71, 0
2, 11280, Note_on_c, 0, 73, 88
2, 11339, Note_off_c, 0, 73, 0
2, 11340, Note_on_c, 0, 74, 88
2, 11399, Note_off_c, 0, 74, 0
2, 11400, Note_on_c, 0, 76, 88
2, 11579, Note_off_c, 0, 76, 0
2, 11580, Note_on_c, 0, 69, 88
2, 11639, Note_off_c, 0, 69, 0
2, 11640, Note_on_c, 0, 74, 88
2, 11699, Note_off_c, 0, 74, 0
2, 11700, Note_on_c, 0, 73, 88
2, 11759, Note_off_c, 0, 73, 0
2, 11760, Note_on_c, 0, 74, 88
2, 11939, Note_off_c, 0, 74, 0
2, 11940, Note_on_c, 0, 76, 88
2, 11999, Note_off_c, 0, 76, 0
2, 12000, Note_on_c, 0, 77, 88
2, 12299, Note_off_c, 0, 77, 0
2, 12300, Note_on_c, 0, 76, 88
2, 12359, Note_off_c, 0, 76, 0
2, 12360, Note_on_c, 0, 77, 88
2, 12479, Note_off_c, 0, 77, 0
2, 12480, Note_on_c, 0, 76, 88
2, 12779, Note_off_c, 0, 76, 0
2, 12780, Note_on_c, 0, 76, 88
2, 12839, Note_off_c, 0, 76, 0
2, 12840, Note_on_c, 0, 81, 88
2, 12899, Note_off_c, 0, 81, 0
2, 12900, Note_on_c, 0, 80, 88
2, 12959, Note_off_c, 0, 80, 0
2, 12960, Note_on_c, 0, 81, 88
2, 13259, Note_off_c, 0, 81, 0
2, 13260, Note_on_c, 0, 79, 88
2, 13319, Note_off_c, 0, 79, 0
2, 13320, Note_on_c, 0, 81, 88
2, 13379, Note_off_c, 0, 81, 0
2, 13380, Note_on_c, 0, 77, 88
2, 13439, Note_off_c, 0, 77, 0
2, 13440, Note_on_c, 0, 74, 88
2, 13739, Note_off_c, 0, 74, 0
2, 13740, Note_on_c, 0, 77, 88
2, 13799, Note_off_c, 0, 77, 0
2, 13800, Note_on_c, 0, 76, 88
2, 13859, Note_off_c, 0, 76, 0
2, 13860, Note_on_c, 0, 79, 88
2, 13919, Note_off_c, 0, 79, 0
2, 13920, Note_on_c, 0, 72, 88
2, 14339, Note_off_c, 0, 72, 0
2, 14340, Note_on_c, 0, 75, 88
2, 14399, Note_off_c, 0, 75, 0
2, 14400, Note_on_c, 0, 74, 88
2, 14699, Note_off_c, 0, 74, 0
2, 14700, Note_on_c, 0, 77, 88
2, 14819, Note_off_c, 0, 77, 0
2, 14820, Note_on_c, 0, 76, 88
2, 14879, Note_off_c, 0, 76, 0
2, 14880, Note_on_c, 0, 77, 88
2, 15059, Note_off_c, 0, 77, 0
2, 15060, Note_on_c, 0, 72, 88
2, 15119, Note_off_c, 0, 72, 0
2, 15120, Note_on_c, 0, 77, 88
2, 15179, Note_off_c, 0, 77, 0
2, 15180, Note_on_c, 0, 81, 88
2, 15239, Note_off_c, 0, 81, 0
2, 15240, Note_on_c, 0, 74, 88
2, 15299, Note_off_c, 0, 74, 0
2, 15300, Note_on_c, 0, 77, 88
2, 15359, Note_off_c, 0, 77, 0
2, 15360, Note_on_c, 0, 71, 88
2, 15419, Note_off_c, 0, 71, 0
2, 15420, Note_on_c, 0, 74, 88
2, 15479, Note_off_c, 0, 74, 0
2, 15480, Note_on_c, 0, 79, 88
2, 15659, Note_off_c, 0, 79, 0
2, 15660, Note_on_c, 0, 79, 88
2, 15719, Note_off_c, 0, 79, 0
2, 15720, Note_on_c, 0, 77, 88
2, 15779, Note_off_c, 0, 77, 0
2, 15780, Note_on_c, 0, 76, 88
2, 15839, Note_off_c, 0, 76, 0
2, 15840, Note_on_c, 0, 77, 88
2, 16139, Note_off_c, 0, 77, 0
2, 16140, Note_on_c, 0, 74, 88
2, 16199, Note_off_c, 0, 74, 0
2, 16200, Note_on_c, 0, 77, 88
2, 16379, Note_off_c, 0, 77, 0
2, 16380, Note_on_c, 0, 77, 88
2, 16439, Note_off_c, 0, 77, 0
2, 16440, Note_on_c, 0, 76, 88
2, 16619, Note_off_c, 0, 76, 0
2, 16620, Note_on_c, 0, 75, 88
2, 16679, Note_off_c, 0, 75, 0
2, 16680, Note_on_c, 0, 74, 88
2, 16739, Note_off_c, 0, 74, 0
2, 16740, Note_on_c, 0, 73, 88
2, 16799, Note_off_c, 0, 73, 0
2, 16800, Note_on_c, 0, 74, 88
2, 17219, Note_off_c, 0, 74, 0
2, 17220, Note_on_c, 0, 74, 88
2, 17279, Note_off_c, 0, 74, 0
2, 17280, Note_on_c, 0, 73, 88
2, 17399, Note_off_c, 0, 73, 0
2, 17400, Note_on_c, 0, 72, 88
2, 17699, Note_off_c, 0, 72, 0
2, 17700, Note_on_c, 0, 72, 88
2, 17759, Note_off_c, 0, 72, 0
2, 17760, Note_on_c, 0, 71, 88
2, 17879, Note_off_c, 0, 71, 0
2, 17880, Note_on_c, 0, 70, 88
2, 18179, Note_off_c, 0, 70, 0
2, 18180, Note_on_c, 0, 70, 88
2, 18239, Note_off_c, 0, 70, 0
2, 18240, Note_on_c, 0, 69, 88
2, 18719, Note_off_c, 0, 69, 0
2, 18720, Note_on_c, 0, 67, 88
2, 19019, Note_off_c, 0, 67, 0
2, 19020, Note_on_c, 0, 67, 88
2, 19079, Note_off_c, 0, 67, 0
2, 19080, Note_on_c, 0, 69, 88
2, 19139, Note_off_c, 0, 69, 0
2, 19140, Note_on_c, 0, 72, 88
2, 19199, Note_off_c, 0, 72, 0
2, 19200, Note_on_c, 0, 65, 88
2, 19499, Note_off_c, 0, 65, 0
2, 19500, Note_on_c, 0, 74, 88
2, 19529, Note_off_c, 0, 74, 0
2, 19530, Note_on_c, 0, 72, 88
2, 19559, Note_off_c, 0, 72, 0
2, 19560, Note_on_c, 0, 74, 88
2, 19619, Note_off_c, 0, 74, 0
2, 19620, Note_on_c, 0, 65, 88
2, 19679, Note_off_c, 0, 65, 0
2, 19680, Note_on_c, 0, 64, 88
2, 19979, Note_off_c, 0, 64, 0
2, 19980, Note_on_c, 0, 67, 88
2, 20039, Note_off_c, 0, 67, 0
2, 20040, Note_on_c, 0, 69, 88
2, 20099, Note_off_c, 0, 69, 0
2, 20100, Note_on_c, 0, 71, 88
2, 20159, Note_off_c, 0, 71, 0
2, 20160, Note_on_c, 0, 72, 88
2, 20579, Note_off_c, 0, 72, 0
2, 20580, Note_on_c, 0, 72, 88
2, 20639, Note_off_c, 0, 72, 0
2, 20640, Note_on_c, 0, 71, 88
2, 20999, Note_off_c, 0, 71, 0
2, 21000, Note_on_c, 0, 73, 88
2, 21029, Note_off_c, 0, 73, 0
2, 21030, Note_on_c, 0, 74, 88
2, 21059, Note_off_c, 0, 74, 0
2, 21060, Note_on_c, 0, 76, 88
2, 21119, Note_off_c, 0, 76, 0
2, 21120, Note_on_c, 0, 69, 88
2, 21419, Note_off_c, 0, 69, 0
2, 21420, Note_on_c, 0, 69, 88
2, 21479, Note_off_c, 0, 69, 0
2, 21480, Note_on_c, 0, 70, 88
2, 21539, Note_off_c, 0, 70, 0
2, 21540, Note_on_c, 0, 72, 88
2, 21599, Note_off_c, 0, 72, 0
2, 21600, Note_on_c, 0, 74, 88
2, 21629, Note_off_c, 0, 74, 0
2, 21630, Note_on_c, 0, 72, 88
2, 21659, Note_off_c, 0, 72, 0
2, 21660, Note_on_c, 0, 70, 88
2, 21689, Note_off_c, 0, 70, 0
2, 21690, Note_on_c, 0, 69, 88
2, 21719, Note_off_c, 0, 69, 0
2, 21720, Note_on_c, 0, 70, 88
2, 21779, Note_off_c, 0, 70, 0
2, 21780, Note_on_c, 0, 74, 88
2, 21839, Note_off_c, 0, 74, 0
2, 21840, Note_on_c, 0, 67, 88
2, 21899, Note_off_c, 0, 67, 0
2, 21900, Note_on_c, 0, 77, 88
2, 21959, Note_off_c, 0, 77, 0
2, 21960, Note_on_c, 0, 76, 88
2, 22019, Note_off_c, 0, 76, 0
2, 22020, Note_on_c, 0, 74, 88
2, 22079, Note_off_c, 0, 74, 0
2, 22080, Note_on_c, 0, 73, 88
2, 22379, Note_off_c, 0, 73, 0
2, 22380, Note_on_c, 0, 69, 88
2, 22439, Note_off_c, 0, 69, 0
2, 22440, Note_on_c, 0, 74, 88
2, 22679, Note_off_c, 0, 74, 0
2, 22680, Note_on_c, 0, 74, 88
2, 22799, Note_off_c, 0, 74, 0
2, 22800, Note_on_c, 0, 72, 88
2, 22919, Note_off_c, 0, 72, 0
2, 22920, Note_on_c, 0, 70, 88
2, 23039, Note_off_c, 0, 70, 0
2, 23040, Note_on_c, 0, 69, 88
2, 23219, Note_off_c, 0, 69, 0
2, 23220, Note_on_c, 0, 69, 88
2, 23339, Note_off_c, 0, 69, 0
2, 23340, Note_on_c, 0, 69, 88
2, 23399, Note_off_c, 0, 69, 0
2, 23400, Note_on_c, 0, 67, 88
2, 23459, Note_off_c, 0, 67, 0
2, 23460, Note_on_c, 0, 66, 88
2, 23519, Note_off_c, 0, 66, 0
2, 23520, Note_on_c, 0, 67, 88
2, 23579, Note_off_c, 0, 67, 0
2, 23580, Note_on_c, 0, 74, 88
2, 23639, Note_off_c, 0, 74, 0
2, 23640, Note_on_c, 0, 76, 88
2, 23699, Note_off_c, 0, 76, 0
2, 23700, Note_on_c, 0, 78, 88
2, 23759, Note_off_c, 0, 78, 0
2, 23760, Note_on_c, 0, 79, 88
2, 23819, Note_off_c, 0, 79, 0
2, 23820, Note_on_c, 0, 82, 88
2, 24059, Note_off_c, 0, 82, 0
2, 24060, Note_on_c, 0, 82, 88
2, 24119, Note_off_c, 0, 82, 0
2, 24120, Note_on_c, 0, 80, 88
2, 24179, Note_off_c, 0, 80, 0
2, 24180, Note_on_c, 0, 79, 88
2, 24239, Note_off_c, 0, 79, 0
2, 24240, Note_on_c, 0, 80, 88
2, 24299, Note_off_c, 0, 80, 0
2, 24300, Note_on_c, 0, 84, 88
2, 24359, Note_off_c, 0, 84, 0
2, 24360, Note_on_c, 0, 78, 88
2, 24419, Note_off_c, 0, 78, 0
2, 24420, Note_on_c, 0, 79, 88
2, 24479, Note_off_c, 0, 79, 0
2, 24480, Note_on_c, 0, 78, 88
2, 24839, Note_off_c, 0, 78, 0
2, 24840, Note_on_c, 0, 79, 88
2, 25019, Note_off_c, 0, 79, 0
2, 25020, Note_on_c, 0, 79, 88
2, 25079, Note_off_c, 0, 79, 0
2, 25080, Note_on_c, 0, 78, 88
2, 25139, Note_off_c, 0, 78, 0
2, 25140, Note_on_c, 0, 76, 88
2, 25199, Note_off_c, 0, 76, 0
2, 25200, Note_on_c, 0, 78, 88
2, 25259, Note_off_c, 0, 78, 0
2, 25260, Note_on_c, 0, 79, 88
2, 25319, Note_off_c, 0, 79, 0
2, 25320, Note_on_c, 0, 81, 88
2, 25499, Note_off_c, 0, 81, 0
2, 25500, Note_on_c, 0, 74, 88
2, 25559, Note_off_c, 0, 74, 0
2, 25560, Note_on_c, 0, 79, 88
2, 25619, Note_off_c, 0, 79, 0
2, 25620, Note_on_c, 0, 78, 88
2, 25679, Note_off_c, 0, 78, 0
2, 25680, Note_on_c, 0, 79, 88
2, 25859, Note_off_c, 0, 79, 0
2, 25860, Note_on_c, 0, 81, 88
2, 25919, Note_off_c, 0, 81, 0
2, 25920, Note_on_c, 0, 82, 88
2, 26219, Note_off_c, 0, 82, 0
2, 26220, Note_on_c, 0, 81, 88
2, 26279, Note_off_c, 0, 81, 0
2, 26280, Note_on_c, 0, 82, 88
2, 26399, Note_off_c, 0, 82, 0
2, 26400, Note_on_c, 0, 81, 88
2, 26819, Note_off_c, 0, 81, 0
2, 26820, Note_on_c, 0, 80, 88
2, 26879, Note_off_c, 0, 80, 0
2, 26880, Note_on_c, 0, 79, 88
2, 27299, Note_off_c, 0, 79, 0
2, 27300, Note_on_c, 0, 79, 88
2, 27359, Note_off_c, 0, 79, 0
2, 27360, Note_on_c, 0, 78, 88
2, 27659, Note_off_c, 0, 78, 0
2, 27660, Note_on_c, 0, 76, 88
2, 27719, Note_off_c, 0, 76, 0
2, 27720, Note_on_c, 0, 77, 88
2, 27959, Note_off_c, 0, 77, 0
2, 27960, Note_on_c, 0, 76, 88
2, 28019, Note_off_c, 0, 76, 0
2, 28020, Note_on_c, 0, 74, 88
2, 28079, Note_off_c, 0, 74, 0
2, 28080, Note_on_c, 0, 76, 88
2, 28379, Note_off_c, 0, 76, 0
2, 28380, Note_on_c, 0, 76, 88
2, 28439, Note_off_c, 0, 76, 0
2, 28440, Note_on_c, 0, 74, 88
2, 28499, Note_off_c, 0, 74, 0
2, 28500, Note_on_c, 0, 72, 88
2, 28559, Note_off_c, 0, 72, 0
2, 28560, Note_on_c, 0, 74, 88
2, 28619, Note_off_c, 0, 74, 0
2, 28620, Note_on_c, 0, 77, 88
2, 28679, Note_off_c, 0, 77, 0
2, 28680, Note_on_c, 0, 81, 88
2, 28739, Note_off_c, 0, 81, 0
2, 28740, Note_on_c, 0, 72, 88
2, 28799, Note_off_c, 0, 72, 0
2, 28800, Note_on_c, 0, 71, 88
2, 29039, Note_off_c, 0, 71, 0
2, 29040, Note_on_c, 0, 72, 88
2, 29699, Note_off_c, 0, 72, 0
2, 29700, Note_on_c, 0, 71, 88
2, 29759, Note_off_c, 0, 71, 0
2, 29760, Note_on_c, 0, 72, 88
2, 30299, Note_off_c, 0, 72, 0
2, 30300, Note_on_c, 0, 72, 88
2, 30359, Note_off_c, 0, 72, 0
2, 30360, Note_on_c, 0, 74, 88
2, 30419, Note_off_c, 0, 74, 0
2, 30420, Note_on_c, 0, 76, 88
2, 30479, Note_off_c, 0, 76, 0
2, 30480, Note_on_c, 0, 77, 88
2, 30539, Note_off_c, 0, 77, 0
2, 30540, Note_on_c, 0, 81, 88
2, 30599, Note_off_c, 0, 81, 0
2, 30600, Note_on_c, 0, 74, 88
2, 30659, Note_off_c, 0, 74, 0
2, 30660, Note_on_c, 0, 77, 88
2, 30719, Note_off_c, 0, 77, 0
2, 30720, Note_on_c, 0, 70, 88
2, 31019, Note_off_c, 0, 70, 0
2, 31020, Note_on_c, 0, 70, 88
2, 31139, Note_off_c, 0, 70, 0
2, 31140, Note_on_c, 0, 67, 88
2, 31259, Note_off_c, 0, 67, 0
2, 31260, Note_on_c, 0, 64, 88
2, 31319, Note_off_c, 0, 64, 0
2, 31320, Note_on_c, 0, 65, 88
2, 31379, Note_off_c, 0, 65, 0
2, 31380, Note_on_c, 0, 67, 88
2, 31439, Note_off_c, 0, 67, 0
2, 31440, Note_on_c, 0, 69, 88
2, 31619, Note_off_c, 0, 69, 0
2, 31620, Note_on_c, 0, 71, 88
2, 31679, Note_off_c, 0, 71, 0
2, 31680, Note_on_c, 0, 67, 88
2, 31720, Note_off_c, 0, 67, 0
2, 31720, End_track
0, 0, End_of_file