0, 0, Header, 1, 2, 240
1, 0, Start_track
1, 0, Time_signature, 4, 2, 24, 8
1, 0, Tempo, 845070
1, 0, SMPTE_offset, 64, 0, 0, 0, 100
1, 0, End_track
2, 0, Start_track
2, 0, Title_t, "Track 1"
2, 0, Program_c, 0, 6
2, 600, Note_on_c, 0, 68, 88
2, 719, Note_off_c, 0, 68, 0
2, 720, Note_on_c, 0, 73, 88
2, 753, Note_off_c, 0, 73, 0
2, 754, Note_on_c, 0, 72, 88
2, 794, Note_off_c, 0, 72, 0
2, 795, Note_on_c, 0, 73, 88
2, 959, Note_off_c, 0, 73, 0
2, 960, Note_on_c, 0, 76, 88
2, 1079, Note_off_c, 0, 76, 0
2, 1080, Note_on_c, 0, 75, 88
2, 1619, Note_off_c, 0, 75, 0
2, 1620, Note_on_c, 0, 75, 88
2, 1679, Note_off_c, 0, 75, 0
2, 1680, Note_on_c, 0, 76, 88
2, 1739, Note_off_c, 0, 76, 0
2, 1740, Note_on_c, 0, 78, 88
2, 1799, Note_off_c, 0, 78, 0
2, 1800, Note_on_c, 0, 80, 88
2, 1833, Note_off_c, 0, 80, 0
2, 1834, Note_on_c, 0, 78, 88
2, 1874, Note_off_c, 0, 78, 0
2, 1875, Note_on_c, 0, 80, 88
2, 2039, Note_off_c, 0, 80, 0
2, 2040, Note_on_c, 0, 80, 88
2, 2159, Note_off_c, 0, 80, 0
2, 2160, Note_on_c, 0, 80, 88
2, 2399, Note_off_c, 0, 80, 0
2, 2400, Note_on_c, 0, 73, 88
2, 2519, Note_off_c, 0, 73, 0
2, 2520, Note_on_c, 0, 78, 88
2, 2549, Note_off_c, 0, 78, 0
2, 2550, Note_on_c, 0, 76, 88
2, 2579, Note_off_c, 0, 76, 0
2, 2580, Note_on_c, 0, 78, 88
2, 3119, Note_off_c, 0, 78, 0
2, 3120, Note_on_c, 0, 78, 88
2, 3239, Note_off_c, 0, 78, 0
2, 3240, Note_on_c, 0, 78, 88
2, 3479, Note_off_c, 0, 78, 0
2, 3480, Note_on_c, 0, 80, 88
2, 3599, Note_off_c, 0, 80, 0
2, 3600, Note_on_c, 0, 78, 88
2, 3719, Note_off_c, 0, 78, 0
2, 3720, Note_on_c, 0, 76, 88
2, 4079, Note_off_c, 0, 76, 0
2, 4080, Note_on_c, 0, 75, 88
2, 4199, Note_off_c, 0, 75, 0
2, 4200, Note_on_c, 0, 76, 88
2, 4319, Note_off_c, 0, 76, 0
2, 4320, Note_on_c, 0, 75, 88
2, 4919, Note_off_c, 0, 75, 0
2, 4920, Note_on_c, 0, 75, 88
2, 5039, Note_off_c, 0, 75, 0
2, 5040, Note_on_c, 0, 75, 88
2, 5159, Note_off_c, 0, 75, 0
2, 5160, Note_on_c, 0, 76, 88
2, 5279, Note_off_c, 0, 76, 0
2, 5280, Note_on_c, 0, 72, 88
2, 5399, Note_off_c, 0, 72, 0
2, 5400, Note_on_c, 0, 72, 88
2, 5519, Note_off_c, 0, 72, 0
2, 5520, Note_on_c, 0, 73, 88
2, 5939, Note_off_c, 0, 73, 0
2, 5940, Note_on_c, 0, 76, 88
2, 5999, Note_off_c, 0, 76, 0
2, 6000, Note_on_c, 0, 75, 88
2, 6059, Note_off_c, 0, 75, 0
2, 6060, Note_on_c, 0, 73, 88
2, 6119, Note_off_c, 0, 73, 0
2, 6120, Note_on_c, 0, 73, 88
2, 6239, Note_off_c, 0, 73, 0
2, 6240, Note_on_c, 0, 81, 88
2, 6359, Note_off_c, 0, 81, 0
2, 6360, Note_on_c, 0, 73, 88
2, 6479, Note_off_c, 0, 73, 0
2, 6480, Note_on_c, 0, 73, 88
2, 6599, Note_off_c, 0, 73, 0
2, 6600, Note_on_c, 0, 72, 88
2, 6719, Note_off_c, 0, 72, 0
2, 6720, Note_on_c, 0, 68, 88
2, 6839, Note_off_c, 0, 68, 0
2, 6840, Note_on_c, 0, 68, 88
2, 6963, Note_off_c, 0, 68, 0
2, 6964, Note_on_c, 0, 73, 88
2, 7559, Note_off_c, 0, 73, 0
2, 7560, Note_on_c, 0, 73, 88
2, 7799, Note_off_c, 0, 73, 0
2, 7800, Note_on_c, 0, 75, 88
2, 7919, Note_off_c, 0, 75, 0
2, 7920, Note_on_c, 0, 73, 88
2, 8043, Note_off_c, 0, 73, 0
2, 8044, Note_on_c, 0, 71, 88
2, 8639, Note_off_c, 0, 71, 0
2, 8640, Note_on_c, 0, 71, 88
2, 8999, Note_off_c, 0, 71, 0
2, 9000, Note_on_c, 0, 71, 88
2, 9029, Note_off_c, 0, 71, 0
2, 9030, Note_on_c, 0, 69, 88
2, 9059, Note_off_c, 0, 69, 0
2, 9060, Note_on_c, 0, 71, 88
2, 9089, Note_off_c, 0, 71, 0
2, 9090, Note_on_c, 0, 69, 88
2, 9119, Note_off_c, 0, 69, 0
2, 9120, Note_on_c, 0, 71, 88
2, 9149, Note_off_c, 0, 71, 0
2, 9150, Note_on_c, 0, 69, 88
2, 9179, Note_off_c, 0, 69, 0
2, 9180, Note_on_c, 0, 71, 88
2, 9209, Note_off_c, 0, 71, 0
2, 9210, Note_on_c, 0, 69, 88
2, 9239, Note_off_c, 0, 69, 0
2, 9240, Note_on_c, 0, 68, 88
2, 9359, Note_off_c, 0, 68, 0
2, 9360, Note_on_c, 0, 68, 88
2, 9479, Note_off_c, 0, 68, 0
2, 9480, Note_on_c, 0, 69, 88
2, 9599, Note_off_c, 0, 69, 0
2, 9600, Note_on_c, 0, 71, 88
2, 9719, Note_off_c, 0, 71, 0
2, 9720, Note_on_c, 0, 69, 88
2, 9839, Note_off_c, 0, 69, 0
2, 9840, Note_on_c, 0, 68, 88
2, 10319, Note_off_c, 0, 68, 0
2, 10320, Note_on_c, 0, 68, 88
2, 10439, Note_off_c, 0, 68, 0
2, 10440, Note_on_c, 0, 73, 88
2, 11039, Note_off_c, 0, 73, 0
2, 11040, Note_on_c, 0, 75, 88
2, 11159, Note_off_c, 0, 75, 0
2, 11160, Note_on_c, 0, 73, 88
2, 11279, Note_off_c, 0, 73, 0
2, 11280, Note_on_c, 0, 71, 88
2, 11309, Note_off_c, 0, 71, 0
2, 11310, Note_on_c, 0, 73, 88
2, 11339, Note_off_c, 0, 73, 0
2, 11340, Note_on_c, 0, 71, 88
2, 11369, Note_off_c, 0, 71, 0
2, 11370, Note_on_c, 0, 73, 88
2, 11395, Note_off_c, 0, 73, 0
2, 11396, Note_on_c, 0, 71, 88
2, 11422, Note_off_c, 0, 71, 0
2, 11423, Note_on_c, 0, 73, 88
2, 11448, Note_off_c, 0, 73, 0
2, 11449, Note_on_c, 0, 71, 88
2, 11639, Note_off_c, 0, 71, 0
2, 11640, Note_on_c, 0, 70, 88
2, 11759, Note_off_c, 0, 70, 0
2, 11760, Note_on_c, 0, 71, 88
2, 11879, Note_off_c, 0, 71, 0
2, 11880, Note_on_c, 0, 71, 88
2, 11999, Note_off_c, 0, 71, 0
2, 12000, Note_on_c, 0, 70, 88
2, 12479, Note_off_c, 0, 70, 0
2, 12480, Note_on_c, 0, 71, 88
2, 12599, Note_off_c, 0, 71, 0
2, 12600, Note_on_c, 0, 73, 88
2, 13079, Note_off_c, 0, 73, 0
2, 13080, Note_on_c, 0, 76, 88
2, 13199, Note_off_c, 0, 76, 0
2, 13200, Note_on_c, 0, 75, 88
2, 13319, Note_off_c, 0, 75, 0
2, 13320, Note_on_c, 0, 75, 88
2, 13439, Note_off_c, 0, 75, 0
2, 13440, Note_on_c, 0, 76, 88
2, 13499, Note_off_c, 0, 76, 0
2, 13500, Note_on_c, 0, 75, 88
2, 13559, Note_off_c, 0, 75, 0
2, 13560, Note_on_c, 0, 76, 88
2, 13919, Note_off_c, 0, 76, 0
2, 13920, Note_on_c, 0, 73, 88
2, 14039, Note_off_c, 0, 73, 0
2, 14040, Note_on_c, 0, 75, 88
2, 14073, Note_off_c, 0, 75, 0
2, 14074, Note_on_c, 0, 73, 88
2, 14114, Note_off_c, 0, 73, 0
2, 14115, Note_on_c, 0, 75, 88
2, 14279, Note_off_c, 0, 75, 0
2, 14280, Note_on_c, 0, 76, 88
2, 14399, Note_off_c, 0, 76, 0
2, 14400, Note_on_c, 0, 78, 88
2, 14519, Note_off_c, 0, 78, 0
2, 14520, Note_on_c, 0, 76, 88
2, 14639, Note_off_c, 0, 76, 0
2, 14640, Note_on_c, 0, 75, 88
2, 14759, Note_off_c, 0, 75, 0
2, 14760, Note_on_c, 0, 77, 88
2, 14879, Note_off_c, 0, 77, 0
2, 14880, Note_on_c, 0, 80, 88
2, 14999, Note_off_c, 0, 80, 0
2, 15000, Note_on_c, 0, 79, 88
2, 15119, Note_off_c, 0, 79, 0
2, 15120, Note_on_c, 0, 80, 88
2, 15239, Note_off_c, 0, 80, 0
2, 15240, Note_on_c, 0, 79, 88
2, 15359, Note_off_c, 0, 79, 0
2, 15360, Note_on_c, 0, 77, 88
2, 15479, Note_off_c, 0, 77, 0
2, 15480, Note_on_c, 0, 79, 88
2, 15719, Note_off_c, 0, 79, 0
2, 15720, Note_on_c, 0, 80, 88
2, 15839, Note_off_c, 0, 80, 0
2, 15840, Note_on_c, 0, 82, 88
2, 16079, Note_off_c, 0, 82, 0
2, 16080, Note_on_c, 0, 79, 88
2, 16199, Note_off_c, 0, 79, 0
2, 16200, Note_on_c, 0, 80, 88
2, 16439, Note_off_c, 0, 80, 0
2, 16440, Note_on_c, 0, 82, 88
2, 16559, Note_off_c, 0, 82, 0
2, 16560, Note_on_c, 0, 80, 88
2, 16919, Note_off_c, 0, 80, 0
2, 16920, Note_on_c, 0, 80, 88
2, 16957, Note_off_c, 0, 80, 0
2, 16958, Note_on_c, 0, 79, 88
2, 16998, Note_off_c, 0, 79, 0
2, 16999, Note_on_c, 0, 80, 88
2, 17039, Note_off_c, 0, 80, 0
2, 17040, Note_on_c, 0, 79, 88
2, 17159, Note_off_c, 0, 79, 0
2, 17160, Note_on_c, 0, 80, 88
2, 17279, Note_off_c, 0, 80, 0
2, 17280, Note_on_c, 0, 80, 88
2, 20039, Note_off_c, 0, 80, 0
2, 20040, Note_on_c, 0, 80, 88
2, 20159, Note_off_c, 0, 80, 0
2, 20160, Note_on_c, 0, 80, 88
2, 20279, Note_off_c, 0, 80, 0
2, 20280, Note_on_c, 0, 81, 88
2, 20399, Note_off_c, 0, 81, 0
2, 20400, Note_on_c, 0, 78, 88
2, 20519, Note_off_c, 0, 78, 0
2, 20520, Note_on_c, 0, 76, 88
2, 20639, Note_off_c, 0, 76, 0
2, 20640, Note_on_c, 0, 75, 88
2, 21059, Note_off_c, 0, 75, 0
2, 21060, Note_on_c, 0, 78, 88
2, 21119, Note_off_c, 0, 78, 0
2, 21120, Note_on_c, 0, 77, 88
2, 21179, Note_off_c, 0, 77, 0
2, 21180, Note_on_c, 0, 75, 88
2, 21239, Note_off_c, 0, 75, 0
2, 21240, Note_on_c, 0, 80, 88
2, 21359, Note_off_c, 0, 80, 0
2, 21360, Note_on_c, 0, 83, 88
2, 21419, Note_off_c, 0, 83, 0
2, 21420, Note_on_c, 0, 81, 88
2, 21479, Note_off_c, 0, 81, 0
2, 21480, Note_on_c, 0, 83, 88
2, 21599, Note_off_c, 0, 83, 0
2, 21600, Note_on_c, 0, 78, 88
2, 21629, Note_off_c, 0, 78, 0
2, 21630, Note_on_c, 0, 77, 88
2, 21659, Note_off_c, 0, 77, 0
2, 21660, Note_on_c, 0, 78, 88
2, 21689, Note_off_c, 0, 78, 0
2, 21690, Note_on_c, 0, 77, 88
2, 21719, Note_off_c, 0, 77, 0
2, 21720, Note_on_c, 0, 75, 88
2, 21839, Note_off_c, 0, 75, 0
2, 21840, Note_on_c, 0, 73, 88
2, 21959, Note_off_c, 0, 73, 0
2, 21960, Note_on_c, 0, 78, 88
2, 22799, Note_off_c, 0, 78, 0
2, 22800, Note_on_c, 0, 76, 88
2, 22919, Note_off_c, 0, 76, 0
2, 22920, Note_on_c, 0, 75, 88
2, 23039, Note_off_c, 0, 75, 0
2, 23040, Note_on_c, 0, 76, 88
2, 24239, Note_off_c, 0, 76, 0
2, 24240, Note_on_c, 0, 75, 88
2, 24359, Note_off_c, 0, 75, 0
2, 24360, Note_on_c, 0, 73, 88
2, 24479, Note_off_c, 0, 73, 0
2, 24480, Note_on_c, 0, 75, 88
2, 24599, Note_off_c, 0, 75, 0
2, 24600, Note_on_c, 0, 73, 88
2, 24719, Note_off_c, 0, 73, 0
2, 24720, Note_on_c, 0, 71, 88
2, 24839, Note_off_c, 0, 71, 0
2, 24840, Note_on_c, 0, 73, 88
2, 25439, Note_off_c, 0, 73, 0
2, 25440, Note_on_c, 0, 78, 88
2, 25559, Note_off_c, 0, 78, 0
2, 25560, Note_on_c, 0, 76, 88
2, 25679, Note_off_c, 0, 76, 0
2, 25680, Note_on_c, 0, 75, 88
2, 25799, Note_off_c, 0, 75, 0
2, 25800, Note_on_c, 0, 73, 88
2, 25919, Note_off_c, 0, 73, 0
2, 25920, Note_on_c, 0, 71, 88
2, 26399, Note_off_c, 0, 71, 0
2, 26400, Note_on_c, 0, 69, 88
2, 26519, Note_off_c, 0, 69, 0
2, 26520, Note_on_c, 0, 68, 88
2, 26639, Note_off_c, 0, 68, 0
2, 26640, Note_on_c, 0, 73, 88
2, 26759, Note_off_c, 0, 73, 0
2, 26760, Note_on_c, 0, 75, 88
2, 26879, Note_off_c, 0, 75, 0
2, 26880, Note_on_c, 0, 76, 88
2, 26999, Note_off_c, 0, 76, 0
2, 27000, Note_on_c, 0, 69, 88
2, 27119, Note_off_c, 0, 69, 0
2, 27120, Note_on_c, 0, 71, 88
2, 27239, Note_off_c, 0, 71, 0
2, 27240, Note_on_c, 0, 73, 88
2, 27359, Note_off_c, 0, 73, 0
2, 27360, Note_on_c, 0, 69, 88
2, 27479, Note_off_c, 0, 69, 0
2, 27480, Note_on_c, 0, 68, 88
2, 27539, Note_off_c, 0, 68, 0
2, 27540, Note_on_c, 0, 66, 88
2, 27599, Note_off_c, 0, 66, 0
2, 27600, Note_on_c, 0, 64, 88
2, 27659, Note_off_c, 0, 64, 0
2, 27660, Note_on_c, 0, 66, 88
2, 27719, Note_off_c, 0, 66, 0
2, 27720, Note_on_c, 0, 68, 88
2, 27749, Note_off_c, 0, 68, 0
2, 27750, Note_on_c, 0, 66, 88
2, 27779, Note_off_c, 0, 66, 0
2, 27780, Note_on_c, 0, 68, 88
2, 27809, Note_off_c, 0, 68, 0
2, 27810, Note_on_c, 0, 66, 88
2, 27839, Note_off_c, 0, 66, 0
2, 27840, Note_on_c, 0, 68, 88
2, 27869, Note_off_c, 0, 68, 0
2, 27870, Note_on_c, 0, 66, 88
2, 27899, Note_off_c, 0, 66, 0
2, 27900, Note_on_c, 0, 68, 88
2, 27929, Note_off_c, 0, 68, 0
2, 27930, Note_on_c, 0, 66, 88
2, 27959, Note_off_c, 0, 66, 0
2, 27960, Note_on_c, 0, 68, 88
2, 27989, Note_off_c, 0, 68, 0
2, 27990, Note_on_c, 0, 66, 88
2, 28019, Note_off_c, 0, 66, 0
2, 28020, Note_on_c, 0, 64, 88
2, 28049, Note_off_c, 0, 64, 0
2, 28050, Note_on_c, 0, 66, 88
2, 28079, Note_off_c, 0, 66, 0
2, 28080, Note_on_c, 0, 64, 88
2, 28199, Note_off_c, 0, 64, 0
2, 28200, Note_on_c, 0, 68, 88
2, 28319, Note_off_c, 0, 68, 0
2, 28320, Note_on_c, 0, 71, 88
2, 28439, Note_off_c, 0, 71, 0
2, 28440, Note_on_c, 0, 76, 88
2, 28499, Note_off_c, 0, 76, 0
2, 28500, Note_on_c, 0, 75, 88
2, 28559, Note_off_c, 0, 75, 0
2, 28560, Note_on_c, 0, 76, 88
2, 28679, Note_off_c, 0, 76, 0
2, 28680, Note_on_c, 0, 76, 88
2, 28799, Note_off_c, 0, 76, 0
2, 28800, Note_on_c, 0, 76, 88
2, 28833, Note_off_c, 0, 76, 0
2, 28834, Note_on_c, 0, 75, 88
2, 28874, Note_off_c, 0, 75, 0
2, 28875, Note_on_c, 0, 76, 88
2, 29039, Note_off_c, 0, 76, 0
2, 29040, Note_on_c, 0, 76, 88
2, 29159, Note_off_c, 0, 76, 0
2, 29160, Note_on_c, 0, 76, 88
2, 29279, Note_off_c, 0, 76, 0
2, 29280, Note_on_c, 0, 78, 88
2, 29339, Note_off_c, 0, 78, 0
2, 29340, Note_on_c, 0, 76, 88
2, 29399, Note_off_c, 0, 76, 0
2, 29400, Note_on_c, 0, 75, 88
2, 29459, Note_off_c, 0, 75, 0
2, 29460, Note_on_c, 0, 73, 88
2, 29519, Note_off_c, 0, 73, 0
2, 29520, Note_on_c, 0, 75, 88
2, 29759, Note_off_c, 0, 75, 0
2, 29760, Note_on_c, 0, 77, 88
2, 29879, Note_off_c, 0, 77, 0
2, 29880, Note_on_c, 0, 78, 88
2, 29999, Note_off_c, 0, 78, 0
2, 30000, Note_on_c, 0, 77, 88
2, 30119, Note_off_c, 0, 77, 0
2, 30120, Note_on_c, 0, 78, 88
2, 30239, Note_off_c, 0, 78, 0
2, 30240, Note_on_c, 0, 78, 88
2, 30719, Note_off_c, 0, 78, 0
2, 30720, Note_on_c, 0, 81, 88
2, 30779, Note_off_c, 0, 81, 0
2, 30780, Note_on_c, 0, 80, 88
2, 30839, Note_off_c, 0, 80, 0
2, 30840, Note_on_c, 0, 78, 88
2, 30899, Note_off_c, 0, 78, 0
2, 30900, Note_on_c, 0, 76, 88
2, 30959, Note_off_c, 0, 76, 0
2, 30960, Note_on_c, 0, 75, 88
2, 31079, Note_off_c, 0, 75, 0
2, 31080, Note_on_c, 0, 78, 88
2, 31139, Note_off_c, 0, 78, 0
2, 31140, Note_on_c, 0, 76, 88
2, 31199, Note_off_c, 0, 76, 0
2, 31200, Note_on_c, 0, 78, 88
2, 31319, Note_off_c, 0, 78, 0
2, 31320, Note_on_c, 0, 73, 88
2, 31439, Note_off_c, 0, 73, 0
2, 31440, Note_on_c, 0, 72, 88
2, 31559, Note_off_c, 0, 72, 0
2, 31560, Note_on_c, 0, 75, 88
2, 31679, Note_off_c, 0, 75, 0
2, 31680, Note_on_c, 0, 80, 88
2, 32219, Note_off_c, 0, 80, 0
2, 32220, Note_on_c, 0, 80, 88
2, 32279, Note_off_c, 0, 80, 0
2, 32280, Note_on_c, 0, 82, 88
2, 32339, Note_off_c, 0, 82, 0
2, 32340, Note_on_c, 0, 83, 88
2, 32399, Note_off_c, 0, 83, 0
2, 32400, Note_on_c, 0, 83, 88
2, 32429, Note_off_c, 0, 83, 0
2, 32430, Note_on_c, 0, 82, 88
2, 32459, Note_off_c, 0, 82, 0
2, 32460, Note_on_c, 0, 83, 88
2, 32489, Note_off_c, 0, 83, 0
2, 32490, Note_on_c, 0, 82, 88
2, 32519, Note_off_c, 0, 82, 0
2, 32520, Note_on_c, 0, 83, 88
2, 32549, Note_off_c, 0, 83, 0
2, 32550, Note_on_c, 0, 82, 88
2, 32579, Note_off_c, 0, 82, 0
2, 32580, Note_on_c, 0, 83, 88
2, 32609, Note_off_c, 0, 83, 0
2, 32610, Note_on_c, 0, 82, 88
2, 32639, Note_off_c, 0, 82, 0
2, 32640, Note_on_c, 0, 83, 88
2, 32669, Note_off_c, 0, 83, 0
2, 32670, Note_on_c, 0, 82, 88
2, 32699, Note_off_c, 0, 82, 0
2, 32700, Note_on_c, 0, 80, 88
2, 32729, Note_off_c, 0, 80, 0
2, 32730, Note_on_c, 0, 82, 88
2, 32759, Note_off_c, 0, 82, 0
2, 32760, Note_on_c, 0, 83, 88
2, 32939, Note_off_c, 0, 83, 0
2, 32940, Note_on_c, 0, 81, 88
2, 32999, Note_off_c, 0, 81, 0
2, 33000, Note_on_c, 0, 80, 88
2, 33059, Note_off_c, 0, 80, 0
2, 33060, Note_on_c, 0, 78, 88
2, 33119, Note_off_c, 0, 78, 0
2, 33120, Note_on_c, 0, 78, 88
2, 33239, Note_off_c, 0, 78, 0
2, 33240, Note_on_c, 0, 80, 88
2, 33359, Note_off_c, 0, 80, 0
2, 33360, Note_on_c, 0, 77, 88
2, 33479, Note_off_c, 0, 77, 0
2, 33480, Note_on_c, 0, 77, 88
2, 33599, Note_off_c, 0, 77, 0
2, 33600, Note_on_c, 0, 78, 88
2, 33719, Note_off_c, 0, 78, 0
2, 33720, Note_on_c, 0, 80, 88
2, 33839, Note_off_c, 0, 80, 0
2, 33840, Note_on_c, 0, 78, 88
2, 33959, Note_off_c, 0, 78, 0
2, 33960, Note_on_c, 0, 77, 88
2, 34439, Note_off_c, 0, 77, 0
2, 34440, Note_on_c, 0, 78, 88
2, 34559, Note_off_c, 0, 78, 0
2, 34560, Note_on_c, 0, 78, 88
2, 35159, Note_off_c, 0, 78, 0
2, 35160, Note_on_c, 0, 78, 88
2, 35219, Note_off_c, 0, 78, 0
2, 35220, Note_on_c, 0, 80, 88
2, 35249, Note_off_c, 0, 80, 0
2, 35250, Note_on_c, 0, 81, 88
2, 35279, Note_off_c, 0, 81, 0
2, 35280, Note_on_c, 0, 76, 88
2, 35399, Note_off_c, 0, 76, 0
2, 35400, Note_on_c, 0, 74, 88
2, 35519, Note_off_c, 0, 74, 0
2, 35520, Note_on_c, 0, 73, 88
2, 35639, Note_off_c, 0, 73, 0
2, 35640, Note_on_c, 0, 73, 88
2, 35759, Note_off_c, 0, 73, 0
2, 35760, Note_on_c, 0, 71, 88
2, 35819, Note_off_c, 0, 71, 0
2, 35820, Note_on_c, 0, 74, 88
2, 35879, Note_off_c, 0, 74, 0
2, 35880, Note_on_c, 0, 73, 88
2, 35939, Note_off_c, 0, 73, 0
2, 35940, Note_on_c, 0, 71, 88
2, 35999, Note_off_c, 0, 71, 0
2, 36000, Note_on_c, 0, 80, 88
2, 36599, Note_off_c, 0, 80, 0
2, 36600, Note_on_c, 0, 81, 88
2, 36719, Note_off_c, 0, 81, 0
2, 36720, Note_on_c, 0, 80, 88
2, 36839, Note_off_c, 0, 80, 0
2, 36840, Note_on_c, 0, 78, 88
2, 37259, Note_off_c, 0, 78, 0
2, 37260, Note_on_c, 0, 81, 88
2, 37319, Note_off_c, 0, 81, 0
2, 37320, Note_on_c, 0, 80, 88
2, 37379, Note_off_c, 0, 80, 0
2, 37380, Note_on_c, 0, 78, 88
2, 37439, Note_off_c, 0, 78, 0
2, 37440, Note_on_c, 0, 78, 88
2, 37559, Note_off_c, 0, 78, 0
2, 37560, Note_on_c, 0, 77, 88
2, 37679, Note_off_c, 0, 77, 0
2, 37680, Note_on_c, 0, 80, 88
2, 37799, Note_off_c, 0, 80, 0
2, 37800, Note_on_c, 0, 74, 88
2, 37919, Note_off_c, 0, 74, 0
2, 37920, Note_on_c, 0, 73, 88
2, 38039, Note_off_c, 0, 73, 0
2, 38040, Note_on_c, 0, 77, 88
2, 38159, Note_off_c, 0, 77, 0
2, 38160, Note_on_c, 0, 78, 88
2, 38399, Note_off_c, 0, 78, 0
2, 38400, Note_on_c, 0, 81, 88
2, 38519, Note_off_c, 0, 81, 0
2, 38520, Note_on_c, 0, 75, 88
2, 38639, Note_off_c, 0, 75, 0
2, 38640, Note_on_c, 0, 76, 88
2, 38759, Note_off_c, 0, 76, 0
2, 38760, Note_on_c, 0, 78, 88
2, 38879, Note_off_c, 0, 78, 0
2, 38880, Note_on_c, 0, 73, 88
2, 38999, Note_off_c, 0, 73, 0
2, 39000, Note_on_c, 0, 72, 88
2, 39119, Note_off_c, 0, 72, 0
2, 39120, Note_on_c, 0, 68, 88
2, 39239, Note_off_c, 0, 68, 0
2, 39240, Note_on_c, 0, 73, 88
2, 40139, Note_off_c, 0, 73, 0
2, 40140, Note_on_c, 0, 76, 88
2, 40199, Note_off_c, 0, 76, 0
2, 40200, Note_on_c, 0, 75, 88
2, 40259, Note_off_c, 0, 75, 0
2, 40260, Note_on_c, 0, 73, 88
2, 40319, Note_off_c, 0, 73, 0
2, 40320, Note_on_c, 0, 73, 88
2, 40443, Note_off_c, 0, 73, 0
2, 40444, Note_on_c, 0, 72, 88
2, 41639, Note_off_c, 0, 72, 0
2, 41640, Note_on_c, 0, 68, 88
2, 41759, Note_off_c, 0, 68, 0
2, 41760, Note_on_c, 0, 73, 88
2, 41793, Note_off_c, 0, 73, 0
2, 41794, Note_on_c, 0, 72, 88
2, 41834, Note_off_c, 0, 72, 0
2, 41835, Note_on_c, 0, 73, 88
2, 41999, Note_off_c, 0, 73, 0
2, 42000, Note_on_c, 0, 76, 88
2, 42119, Note_off_c, 0, 76, 0
2, 42120, Note_on_c, 0, 76, 88
2, 42239, Note_off_c, 0, 76, 0
2, 42240, Note_on_c, 0, 75, 88
2, 42659, Note_off_c, 0, 75, 0
2, 42660, Note_on_c, 0, 75, 88
2, 42719, Note_off_c, 0, 75, 0
2, 42720, Note_on_c, 0, 76, 88
2, 42779, Note_off_c, 0, 76, 0
2, 42780, Note_on_c, 0, 78, 88
2, 42839, Note_off_c, 0, 78, 0
2, 42840, Note_on_c, 0, 80, 88
2, 43079, Note_off_c, 0, 80, 0
2, 43080, Note_on_c, 0, 80, 88
2, 43199, Note_off_c, 0, 80, 0
2, 43200, Note_on_c, 0, 81, 88
2, 43319, Note_off_c, 0, 81, 0
2, 43320, Note_on_c, 0, 80, 88
2, 43439, Note_off_c, 0, 80, 0
2, 43440, Note_on_c, 0, 73, 88
2, 43559, Note_off_c, 0, 73, 0
2, 43560, Note_on_c, 0, 78, 88
2, 44159, Note_off_c, 0, 78, 0
2, 44160, Note_on_c, 0, 78, 88
2, 44279, Note_off_c, 0, 78, 0
2, 44280, Note_on_c, 0, 78, 88
2, 44519, Note_off_c, 0, 78, 0
2, 44520, Note_on_c, 0, 80, 88
2, 44639, Note_off_c, 0, 80, 0
2, 44640, Note_on_c, 0, 78, 88
2, 44759, Note_off_c, 0, 78, 0
2, 44760, Note_on_c, 0, 76, 88
2, 44789, Note_off_c, 0, 76, 0
2, 44790, Note_on_c, 0, 78, 88
2, 44819, Note_off_c, 0, 78, 0
2, 44820, Note_on_c, 0, 76, 88
2, 44849, Note_off_c, 0, 76, 0
2, 44850, Note_on_c, 0, 78, 88
2, 44875, Note_off_c, 0, 78, 0
2, 44876, Note_on_c, 0, 76, 88
2, 44902, Note_off_c, 0, 76, 0
2, 44903, Note_on_c, 0, 78, 88
2, 44928, Note_off_c, 0, 78, 0
2, 44929, Note_on_c, 0, 76, 88
2, 45119, Note_off_c, 0, 76, 0
2, 45120, Note_on_c, 0, 75, 88
2, 45239, Note_off_c, 0, 75, 0
2, 45240, Note_on_c, 0, 76, 88
2, 45359, Note_off_c, 0, 76, 0
2, 45360, Note_on_c, 0, 76, 88
2, 45483, Note_off_c, 0, 76, 0
2, 45484, Note_on_c, 0, 75, 88
2, 45959, Note_off_c, 0, 75, 0
2, 45960, Note_on_c, 0, 75, 88
2, 46079, Note_off_c, 0, 75, 0
2, 46080, Note_on_c, 0, 75, 88
2, 46199, Note_off_c, 0, 75, 0
2, 46200, Note_on_c, 0, 76, 88
2, 46319, Note_off_c, 0, 76, 0
2, 46320, Note_on_c, 0, 72, 88
2, 46439, Note_off_c, 0, 72, 0
2, 46440, Note_on_c, 0, 72, 88
2, 46559, Note_off_c, 0, 72, 0
2, 46560, Note_on_c, 0, 73, 88
2, 46979, Note_off_c, 0, 73, 0
2, 46980, Note_on_c, 0, 76, 88
2, 47039, Note_off_c, 0, 76, 0
2, 47040, Note_on_c, 0, 75, 88
2, 47099, Note_off_c, 0, 75, 0
2, 47100, Note_on_c, 0, 73, 88
2, 47159, Note_off_c, 0, 73, 0
2, 47160, Note_on_c, 0, 73, 88
2, 47279, Note_off_c, 0, 73, 0
2, 47280, Note_on_c, 0, 81, 88
2, 47399, Note_off_c, 0, 81, 0
2, 47400, Note_on_c, 0, 73, 88
2, 47519, Note_off_c, 0, 73, 0
2, 47520, Note_on_c, 0, 73, 88
2, 47639, Note_off_c, 0, 73, 0
2, 47640, Note_on_c, 0, 72, 88
2, 47759, Note_off_c, 0, 72, 0
2, 47760, Note_on_c, 0, 68, 88
2, 47879, Note_off_c, 0, 68, 0
2, 47880, Note_on_c, 0, 80, 88
2, 48479, Note_off_c, 0, 80, 0
2, 48480, Note_on_c, 0, 80, 88
2, 48599, Note_off_c, 0, 80, 0
2, 48600, Note_on_c, 0, 80, 88
2, 48959, Note_off_c, 0, 80, 0
2, 48960, Note_on_c, 0, 79, 88
2, 49559, Note_off_c, 0, 79, 0
2, 49560, Note_on_c, 0, 78, 88
2, 49679, Note_off_c, 0, 78, 0
2, 49680, Note_on_c, 0, 78, 88
2, 49799, Note_off_c, 0, 78, 0
2, 49800, Note_on_c, 0, 77, 88
2, 49859, Note_off_c, 0, 77, 0
2, 49860, Note_on_c, 0, 75, 88
2, 49919, Note_off_c, 0, 75, 0
2, 49920, Note_on_c, 0, 73, 88
2, 49979, Note_off_c, 0, 73, 0
2, 49980, Note_on_c, 0, 75, 88
2, 50039, Note_off_c, 0, 75, 0
2, 50040, Note_on_c, 0, 75, 88
2, 50163, Note_off_c, 0, 75, 0
2, 50164, Note_on_c, 0, 76, 88
2, 50759, Note_off_c, 0, 76, 0
2, 50760, Note_on_c, 0, 76, 88
2, 50879, Note_off_c, 0, 76, 0
2, 50880, Note_on_c, 0, 75, 88
2, 50999, Note_off_c, 0, 75, 0
2, 51000, Note_on_c, 0, 73, 88
2, 51119, Note_off_c, 0, 73, 0
2, 51120, Note_on_c, 0, 73, 88
2, 51243, Note_off_c, 0, 73, 0
2, 51244, Note_on_c, 0, 72, 88
2, 51479, Note_off_c, 0, 72, 0
2, 51480, Note_on_c, 0, 71, 88
2, 52079, Note_off_c, 0, 71, 0
2, 52080, Note_on_c, 0, 73, 88
2, 52199, Note_off_c, 0, 73, 0
2, 52200, Note_on_c, 0, 71, 88
2, 52319, Note_off_c, 0, 71, 0
2, 52320, Note_on_c, 0, 69, 88
2, 52439, Note_off_c, 0, 69, 0
2, 52440, Note_on_c, 0, 68, 88
2, 52559, Note_off_c, 0, 68, 0
2, 52560, Note_on_c, 0, 68, 88
2, 52679, Note_off_c, 0, 68, 0
2, 52680, Note_on_c, 0, 66, 88
2, 52799, Note_off_c, 0, 66, 0
2, 52800, Note_on_c, 0, 64, 88
2, 52919, Note_off_c, 0, 64, 0
2, 52920, Note_on_c, 0, 64, 88
2, 53039, Note_off_c, 0, 64, 0
2, 53040, Note_on_c, 0, 63, 88
2, 53099, Note_off_c, 0, 63, 0
2, 53100, Note_on_c, 0, 68, 88
2, 53159, Note_off_c, 0, 68, 0
2, 53160, Note_on_c, 0, 72, 88
2, 53219, Note_off_c, 0, 72, 0
2, 53220, Note_on_c, 0, 75, 88
2, 53279, Note_off_c, 0, 75, 0
2, 53280, Note_on_c, 0, 80, 88
2, 53339, Note_off_c, 0, 80, 0
2, 53340, Note_on_c, 0, 78, 88
2, 53399, Note_off_c, 0, 78, 0
2, 53400, Note_on_c, 0, 80, 88
2, 53519, Note_off_c, 0, 80, 0
2, 53520, Note_on_c, 0, 80, 88
2, 53639, Note_off_c, 0, 80, 0
2, 53640, Note_on_c, 0, 80, 88
2, 53879, Note_off_c, 0, 80, 0
2, 53880, Note_on_c, 0, 80, 88
2, 53999, Note_off_c, 0, 80, 0
2, 54000, Note_on_c, 0, 80, 88
2, 54119, Note_off_c, 0, 80, 0
2, 54120, Note_on_c, 0, 81, 88
2, 54179, Note_off_c, 0, 81, 0
2, 54180, Note_on_c, 0, 80, 88
2, 54239, Note_off_c, 0, 80, 0
2, 54240, Note_on_c, 0, 78, 88
2, 54299, Note_off_c, 0, 78, 0
2, 54300, Note_on_c, 0, 76, 88
2, 54359, Note_off_c, 0, 76, 0
2, 54360, Note_on_c, 0, 78, 88
2, 54599, Note_off_c, 0, 78, 0
2, 54600, Note_on_c, 0, 78, 88
2, 54719, Note_off_c, 0, 78, 0
2, 54720, Note_on_c, 0, 78, 88
2, 54959, Note_off_c, 0, 78, 0
2, 54960, Note_on_c, 0, 78, 88
2, 55079, Note_off_c, 0, 78, 0
2, 55080, Note_on_c, 0, 78, 88
2, 55439, Note_off_c, 0, 78, 0
2, 55440, Note_on_c, 0, 76, 88
2, 55559, Note_off_c, 0, 76, 0
2, 55560, Note_on_c, 0, 78, 88
2, 55679, Note_off_c, 0, 78, 0
2, 55680, Note_on_c, 0, 80, 88
2, 55799, Note_off_c, 0, 80, 0
2, 55800, Note_on_c, 0, 73, 88
2, 55919, Note_off_c, 0, 73, 0
2, 55920, Note_on_c, 0, 75, 88
2, 56039, Note_off_c, 0, 75, 0
2, 56040, Note_on_c, 0, 76, 88
2, 56159, Note_off_c, 0, 76, 0
2, 56160, Note_on_c, 0, 71, 88
2, 56279, Note_off_c, 0, 71, 0
2, 56280, Note_on_c, 0, 70, 88
2, 56399, Note_off_c, 0, 70, 0
2, 56400, Note_on_c, 0, 63, 88
2, 56519, Note_off_c, 0, 63, 0
2, 56520, Note_on_c, 0, 75, 88
2, 56579, Note_off_c, 0, 75, 0
2, 56580, Note_on_c, 0, 73, 88
2, 56639, Note_off_c, 0, 73, 0
2, 56640, Note_on_c, 0, 75, 88
2, 57059, Note_off_c, 0, 75, 0
2, 57060, Note_on_c, 0, 75, 88
2, 57119, Note_off_c, 0, 75, 0
2, 57120, Note_on_c, 0, 77, 88
2, 57179, Note_off_c, 0, 77, 0
2, 57180, Note_on_c, 0, 78, 88
2, 57239, Note_off_c, 0, 78, 0
2, 57240, Note_on_c, 0, 78, 88
2, 57269, Note_off_c, 0, 78, 0
2, 57270, Note_on_c, 0, 77, 88
2, 57299, Note_off_c, 0, 77, 0
2, 57300, Note_on_c, 0, 78, 88
2, 57329, Note_off_c, 0, 78, 0
2, 57330, Note_on_c, 0, 77, 88
2, 57359, Note_off_c, 0, 77, 0
2, 57360, Note_on_c, 0, 78, 88
2, 57389, Note_off_c, 0, 78, 0
2, 57390, Note_on_c, 0, 77, 88
2, 57419, Note_off_c, 0, 77, 0
2, 57420, Note_on_c, 0, 78, 88
2, 57449, Note_off_c, 0, 78, 0
2, 57450, Note_on_c, 0, 77, 88
2, 57479, Note_off_c, 0, 77, 0
2, 57480, Note_on_c, 0, 78, 88
2, 57509, Note_off_c, 0, 78, 0
2, 57510, Note_on_c, 0, 77, 88
2, 57539, Note_off_c, 0, 77, 0
2, 57540, Note_on_c, 0, 75, 88
2, 57569, Note_off_c, 0, 75, 0
2, 57570, Note_on_c, 0, 77, 88
2, 57599, Note_off_c, 0, 77, 0
2, 57600, Note_on_c, 0, 78, 88
2, 57779, Note_off_c, 0, 78, 0
2, 57780, Note_on_c, 0, 76, 88
2, 57839, Note_off_c, 0, 76, 0
2, 57840, Note_on_c, 0, 74, 88
2, 57899, Note_off_c, 0, 74, 0
2, 57900, Note_on_c, 0, 73, 88
2, 57959, Note_off_c, 0, 73, 0
2, 57960, Note_on_c, 0, 71, 88
2, 58559, Note_off_c, 0, 71, 0
2, 58560, Note_on_c, 0, 73, 88
2, 58679, Note_off_c, 0, 73, 0
2, 58680, Note_on_c, 0, 71, 88
2, 59043, Note_off_c, 0, 71, 0
2, 59044, Note_on_c, 0, 69, 88
2, 59073, Note_off_c, 0, 69, 0
2, 59074, Note_on_c, 0, 71, 88
2, 59103, Note_off_c, 0, 71, 0
2, 59104, Note_on_c, 0, 69, 88
2, 59133, Note_off_c, 0, 69, 0
2, 59134, Note_on_c, 0, 71, 88
2, 59163, Note_off_c, 0, 71, 0
2, 59164, Note_on_c, 0, 69, 88
2, 59193, Note_off_c, 0, 69, 0
2, 59194, Note_on_c, 0, 71, 88
2, 59223, Note_off_c, 0, 71, 0
2, 59224, Note_on_c, 0, 69, 88
2, 59253, Note_off_c, 0, 69, 0
2, 59254, Note_on_c, 0, 71, 88
2, 59279, Note_off_c, 0, 71, 0
2, 59280, Note_on_c, 0, 69, 88
2, 59305, Note_off_c, 0, 69, 0
2, 59306, Note_on_c, 0, 71, 88
2, 59339, Note_off_c, 0, 71, 0
2, 59340, Note_on_c, 0, 68, 88
2, 59369, Note_off_c, 0, 68, 0
2, 59370, Note_on_c, 0, 69, 88
2, 59399, Note_off_c, 0, 69, 0
2, 59400, Note_on_c, 0, 68, 88
2, 59999, Note_off_c, 0, 68, 0
2, 60000, Note_on_c, 0, 68, 88
2, 60119, Note_off_c, 0, 68, 0
2, 60120, Note_on_c, 0, 73, 88
2, 60839, Note_off_c, 0, 73, 0
2, 60840, Note_on_c, 0, 72, 88
2, 61079, Note_off_c, 0, 72, 0
2, 61080, Note_on_c, 0, 73, 88
2, 61199, Note_off_c, 0, 73, 0
2, 61200, Note_on_c, 0, 75, 88
2, 61799, Note_off_c, 0, 75, 0
2, 61800, Note_on_c, 0, 76, 88
2, 61919, Note_off_c, 0, 76, 0
2, 61920, Note_on_c, 0, 76, 88
2, 62039, Note_off_c, 0, 76, 0
2, 62040, Note_on_c, 0, 78, 88
2, 62519, Note_off_c, 0, 78, 0
2, 62520, Note_on_c, 0, 75, 88
2, 62639, Note_off_c, 0, 75, 0
2, 62640, Note_on_c, 0, 75, 88
2, 62763, Note_off_c, 0, 75, 0
2, 62764, Note_on_c, 0, 76, 88
2, 62999, Note_off_c, 0, 76, 0
2, 63000, Note_on_c, 0, 77, 88
2, 63359, Note_off_c, 0, 77, 0
2, 63360, Note_on_c, 0, 78, 88
2, 63719, Note_off_c, 0, 78, 0
2, 63720, Note_on_c, 0, 76, 88
2, 64079, Note_off_c, 0, 76, 0
2, 64080, Note_on_c, 0, 75, 88
2, 64199, Note_off_c, 0, 75, 0
2, 64200, Note_on_c, 0, 78, 88
2, 64319, Note_off_c, 0, 78, 0
2, 64320, Note_on_c, 0, 76, 88
2, 64439, Note_off_c, 0, 76, 0
2, 64440, Note_on_c, 0, 78, 88
2, 64499, Note_off_c, 0, 78, 0
2, 64500, Note_on_c, 0, 80, 88
2, 64559, Note_off_c, 0, 80, 0
2, 64560, Note_on_c, 0, 81, 88
2, 64679, Note_off_c, 0, 81, 0
2, 64680, Note_on_c, 0, 80, 88
2, 64799, Note_off_c, 0, 80, 0
2, 64800, Note_on_c, 0, 78, 88
2, 64919, Note_off_c, 0, 78, 0
2, 64920, Note_on_c, 0, 76, 88
2, 65039, Note_off_c, 0, 76, 0
2, 65040, Note_on_c, 0, 75, 88
2, 65159, Note_off_c, 0, 75, 0
2, 65160, Note_on_c, 0, 73, 88
2, 65519, Note_off_c, 0, 73, 0
2, 65520, Note_on_c, 0, 73, 88
2, 65549, Note_off_c, 0, 73, 0
2, 65550, Note_on_c, 0, 72, 88
2, 65572, Note_off_c, 0, 72, 0
2, 65573, Note_on_c, 0, 73, 88
2, 65594, Note_off_c, 0, 73, 0
2, 65595, Note_on_c, 0, 72, 88
2, 65617, Note_off_c, 0, 72, 0
2, 65618, Note_on_c, 0, 73, 88
2, 65639, Note_off_c, 0, 73, 0
2, 65640, Note_on_c, 0, 72, 88
2, 65759, Note_off_c, 0, 72, 0
2, 65760, Note_on_c, 0, 73, 88
2, 65879, Note_off_c, 0, 73, 0
2, 65880, Note_on_c, 0, 73, 88
2, 65920, Note_off_c, 0, 73, 0
2, 65920, End_track
0, 0, End_of_file