0, 0, Header, 1, 2, 240
1, 0, Start_track
1, 0, Time_signature, 4, 2, 24, 8
1, 0, Tempo, 666666
1, 0, SMPTE_offset, 64, 0, 0, 0, 100
1, 0, End_track
2, 0, Start_track
2, 0, Title_t, "Track 1"
2, 0, Program_c, 0, 6
2, 120, Note_on_c, 0, 62, 88
2, 179, Note_off_c, 0, 62, 0
2, 180, Note_on_c, 0, 64, 88
2, 239, Note_off_c, 0, 64, 0
2, 240, Note_on_c, 0, 66, 88
2, 299, Note_off_c, 0, 66, 0
2, 300, Note_on_c, 0, 67, 88
2, 359, Note_off_c, 0, 67, 0
2, 360, Note_on_c, 0, 69, 88
2, 479, Note_off_c, 0, 69, 0
2, 480, Note_on_c, 0, 66, 88
2, 599, Note_off_c, 0, 66, 0
2, 600, Note_on_c, 0, 69, 88
2, 719, Note_off_c, 0, 69, 0
2, 720, Note_on_c, 0, 74, 88
2, 839, Note_off_c, 0, 74, 0
2, 840, Note_on_c, 0, 69, 88
2, 959, Note_off_c, 0, 69, 0
2, 960, Note_on_c, 0, 74, 88
2, 1079, Note_off_c, 0, 74, 0
2, 1080, Note_on_c, 0, 78, 88
2, 1199, Note_off_c, 0, 78, 0
2, 1200, Note_on_c, 0, 74, 88
2, 1319, Note_off_c, 0, 74, 0
2, 1320, Note_on_c, 0, 78, 88
2, 1439, Note_off_c, 0, 78, 0
2, 1440, Note_on_c, 0, 81, 88
2, 1799, Note_off_c, 0, 81, 0
2, 1800, Note_on_c, 0, 81, 88
2, 2159, Note_off_c, 0, 81, 0
2, 2160, Note_on_c, 0, 81, 88
2, 2339, Note_off_c, 0, 81, 0
2, 2340, Note_on_c, 0, 79, 88
2, 2519, Note_off_c, 0, 79, 0
2, 2520, Note_on_c, 0, 79, 88
2, 2699, Note_off_c, 0, 79, 0
2, 2700, Note_on_c, 0, 78, 88
2, 2879, Note_off_c, 0, 78, 0
2, 2880, Note_on_c, 0, 78, 88
2, 4679, Note_off_c, 0, 78, 0
2, 4680, Note_on_c, 0, 78, 88
2, 5039, Note_off_c, 0, 78, 0
2, 5040, Note_on_c, 0, 78, 88
2, 5219, Note_off_c, 0, 78, 0
2, 5220, Note_on_c, 0, 76, 88
2, 5399, Note_off_c, 0, 76, 0
2, 5400, Note_on_c, 0, 76, 88
2, 5579, Note_off_c, 0, 76, 0
2, 5580, Note_on_c, 0, 74, 88
2, 5759, Note_off_c, 0, 74, 0
2, 5760, Note_on_c, 0, 74, 88
2, 6599, Note_off_c, 0, 74, 0
2, 6600, Note_on_c, 0, 64, 88
2, 6659, Note_off_c, 0, 64, 0
2, 6660, Note_on_c, 0, 66, 88
2, 6719, Note_off_c, 0, 66, 0
2, 6720, Note_on_c, 0, 68, 88
2, 6779, Note_off_c, 0, 68, 0
2, 6780, Note_on_c, 0, 69, 88
2, 6839, Note_off_c, 0, 69, 0
2, 6840, Note_on_c, 0, 71, 88
2, 6959, Note_off_c, 0, 71, 0
2, 6960, Note_on_c, 0, 68, 88
2, 7079, Note_off_c, 0, 68, 0
2, 7080, Note_on_c, 0, 71, 88
2, 7199, Note_off_c, 0, 71, 0
2, 7200, Note_on_c, 0, 76, 88
2, 8039, Note_off_c, 0, 76, 0
2, 8040, Note_on_c, 0, 62, 88
2, 8099, Note_off_c, 0, 62, 0
2, 8100, Note_on_c, 0, 64, 88
2, 8159, Note_off_c, 0, 64, 0
2, 8160, Note_on_c, 0, 66, 88
2, 8219, Note_off_c, 0, 66, 0
2, 8220, Note_on_c, 0, 68, 88
2, 8279, Note_off_c, 0, 68, 0
2, 8280, Note_on_c, 0, 69, 88
2, 8399, Note_off_c, 0, 69, 0
2, 8400, Note_on_c, 0, 66, 88
2, 8519, Note_off_c, 0, 66, 0
2, 8520, Note_on_c, 0, 69, 88
2, 8639, Note_off_c, 0, 69, 0
2, 8640, Note_on_c, 0, 74, 88
2, 8879, Note_off_c, 0, 74, 0
2, 8880, Note_on_c, 0, 66, 88
2, 8999, Note_off_c, 0, 66, 0
2, 9000, Note_on_c, 0, 74, 88
2, 9239, Note_off_c, 0, 74, 0
2, 9240, Note_on_c, 0, 74, 88
2, 9359, Note_off_c, 0, 74, 0
2, 9360, Note_on_c, 0, 74, 88
2, 9839, Note_off_c, 0, 74, 0
2, 9840, Note_on_c, 0, 76, 88
2, 9899, Note_off_c, 0, 76, 0
2, 9900, Note_on_c, 0, 74, 88
2, 9959, Note_off_c, 0, 74, 0
2, 9960, Note_on_c, 0, 73, 88
2, 10019, Note_off_c, 0, 73, 0
2, 10020, Note_on_c, 0, 71, 88
2, 10079, Note_off_c, 0, 71, 0
2, 10080, Note_on_c, 0, 73, 88
2, 10199, Note_off_c, 0, 73, 0
2, 10200, Note_on_c, 0, 69, 88
2, 10259, Note_off_c, 0, 69, 0
2, 10260, Note_on_c, 0, 71, 88
2, 10319, Note_off_c, 0, 71, 0
2, 10320, Note_on_c, 0, 73, 88
2, 10379, Note_off_c, 0, 73, 0
2, 10380, Note_on_c, 0, 74, 88
2, 10439, Note_off_c, 0, 74, 0
2, 10440, Note_on_c, 0, 76, 88
2, 10559, Note_off_c, 0, 76, 0
2, 10560, Note_on_c, 0, 74, 88
2, 10619, Note_off_c, 0, 74, 0
2, 10620, Note_on_c, 0, 73, 88
2, 10679, Note_off_c, 0, 73, 0
2, 10680, Note_on_c, 0, 71, 88
2, 10739, Note_off_c, 0, 71, 0
2, 10740, Note_on_c, 0, 69, 88
2, 10799, Note_off_c, 0, 69, 0
2, 10800, Note_on_c, 0, 74, 88
2, 10919, Note_off_c, 0, 74, 0
2, 10920, Note_on_c, 0, 71, 88
2, 10979, Note_off_c, 0, 71, 0
2, 10980, Note_on_c, 0, 73, 88
2, 11039, Note_off_c, 0, 73, 0
2, 11040, Note_on_c, 0, 74, 88
2, 11099, Note_off_c, 0, 74, 0
2, 11100, Note_on_c, 0, 76, 88
2, 11159, Note_off_c, 0, 76, 0
2, 11160, Note_on_c, 0, 78, 88
2, 11279, Note_off_c, 0, 78, 0
2, 11280, Note_on_c, 0, 76, 88
2, 11339, Note_off_c, 0, 76, 0
2, 11340, Note_on_c, 0, 74, 88
2, 11399, Note_off_c, 0, 74, 0
2, 11400, Note_on_c, 0, 73, 88
2, 11459, Note_off_c, 0, 73, 0
2, 11460, Note_on_c, 0, 71, 88
2, 11519, Note_off_c, 0, 71, 0
2, 11520, Note_on_c, 0, 76, 88
2, 12599, Note_off_c, 0, 76, 0
2, 12600, Note_on_c, 0, 74, 88
2, 13319, Note_off_c, 0, 74, 0
2, 13320, Note_on_c, 0, 74, 88
2, 13679, Note_off_c, 0, 74, 0
2, 13680, Note_on_c, 0, 80, 88
2, 14039, Note_off_c, 0, 80, 0
2, 14040, Note_on_c, 0, 83, 88
2, 14519, Note_off_c, 0, 83, 0
2, 14520, Note_on_c, 0, 81, 88
2, 14579, Note_off_c, 0, 81, 0
2, 14580, Note_on_c, 0, 80, 88
2, 14639, Note_off_c, 0, 80, 0
2, 14640, Note_on_c, 0, 78, 88
2, 14699, Note_off_c, 0, 78, 0
2, 14700, Note_on_c, 0, 76, 88
2, 14759, Note_off_c, 0, 76, 0
2, 14760, Note_on_c, 0, 75, 88
2, 14879, Note_off_c, 0, 75, 0
2, 14880, Note_on_c, 0, 78, 88
2, 14999, Note_off_c, 0, 78, 0
2, 15000, Note_on_c, 0, 75, 88
2, 15119, Note_off_c, 0, 75, 0
2, 15120, Note_on_c, 0, 69, 88
2, 15239, Note_off_c, 0, 69, 0
2, 15240, Note_on_c, 0, 75, 88
2, 15359, Note_off_c, 0, 75, 0
2, 15360, Note_on_c, 0, 69, 88
2, 15479, Note_off_c, 0, 69, 0
2, 15480, Note_on_c, 0, 66, 88
2, 15599, Note_off_c, 0, 66, 0
2, 15600, Note_on_c, 0, 69, 88
2, 15719, Note_off_c, 0, 69, 0
2, 15720, Note_on_c, 0, 66, 88
2, 15839, Note_off_c, 0, 66, 0
2, 15840, Note_on_c, 0, 68, 88
2, 15959, Note_off_c, 0, 68, 0
2, 15960, Note_on_c, 0, 66, 88
2, 16079, Note_off_c, 0, 66, 0
2, 16080, Note_on_c, 0, 64, 88
2, 16199, Note_off_c, 0, 64, 0
2, 16200, Note_on_c, 0, 69, 88
2, 16439, Note_off_c, 0, 69, 0
2, 16440, Note_on_c, 0, 74, 88
2, 16559, Note_off_c, 0, 74, 0
2, 16560, Note_on_c, 0, 73, 88
2, 16919, Note_off_c, 0, 73, 0
2, 16920, Note_on_c, 0, 73, 88
2, 16949, Note_off_c, 0, 73, 0
2, 16950, Note_on_c, 0, 71, 88
2, 16979, Note_off_c, 0, 71, 0
2, 16980, Note_on_c, 0, 73, 88
2, 17009, Note_off_c, 0, 73, 0
2, 17010, Note_on_c, 0, 71, 88
2, 17039, Note_off_c, 0, 71, 0
2, 17040, Note_on_c, 0, 69, 88
2, 17159, Note_off_c, 0, 69, 0
2, 17160, Note_on_c, 0, 71, 88
2, 17279, Note_off_c, 0, 71, 0
2, 17280, Note_on_c, 0, 69, 88
2, 17399, Note_off_c, 0, 69, 0
2, 17400, Note_on_c, 0, 73, 88
2, 17459, Note_off_c, 0, 73, 0
2, 17460, Note_on_c, 0, 71, 88
2, 17519, Note_off_c, 0, 71, 0
2, 17520, Note_on_c, 0, 69, 88
2, 17579, Note_off_c, 0, 69, 0
2, 17580, Note_on_c, 0, 68, 88
2, 17639, Note_off_c, 0, 68, 0
2, 17640, Note_on_c, 0, 66, 88
2, 17759, Note_off_c, 0, 66, 0
2, 17760, Note_on_c, 0, 69, 88
2, 17819, Note_off_c, 0, 69, 0
2, 17820, Note_on_c, 0, 68, 88
2, 17879, Note_off_c, 0, 68, 0
2, 17880, Note_on_c, 0, 66, 88
2, 17939, Note_off_c, 0, 66, 0
2, 17940, Note_on_c, 0, 64, 88
2, 17999, Note_off_c, 0, 64, 0
2, 18000, Note_on_c, 0, 63, 88
2, 18119, Note_off_c, 0, 63, 0
2, 18120, Note_on_c, 0, 66, 88
2, 18239, Note_off_c, 0, 66, 0
2, 18240, Note_on_c, 0, 71, 88
2, 18359, Note_off_c, 0, 71, 0
2, 18360, Note_on_c, 0, 71, 88
2, 18839, Note_off_c, 0, 71, 0
2, 18840, Note_on_c, 0, 69, 88
2, 18899, Note_off_c, 0, 69, 0
2, 18900, Note_on_c, 0, 68, 88
2, 18959, Note_off_c, 0, 68, 0
2, 18960, Note_on_c, 0, 66, 88
2, 19019, Note_off_c, 0, 66, 0
2, 19020, Note_on_c, 0, 64, 88
2, 19079, Note_off_c, 0, 64, 0
2, 19080, Note_on_c, 0, 62, 88
2, 19199, Note_off_c, 0, 62, 0
2, 19200, Note_on_c, 0, 66, 88
2, 19259, Note_off_c, 0, 66, 0
2, 19260, Note_on_c, 0, 64, 88
2, 19319, Note_off_c, 0, 64, 0
2, 19320, Note_on_c, 0, 62, 88
2, 19379, Note_off_c, 0, 62, 0
2, 19380, Note_on_c, 0, 61, 88
2, 19439, Note_off_c, 0, 61, 0
2, 19440, Note_on_c, 0, 59, 88
2, 19559, Note_off_c, 0, 59, 0
2, 19560, Note_on_c, 0, 62, 88
2, 19679, Note_off_c, 0, 62, 0
2, 19680, Note_on_c, 0, 67, 88
2, 19799, Note_off_c, 0, 67, 0
2, 19800, Note_on_c, 0, 67, 88
2, 20279, Note_off_c, 0, 67, 0
2, 20280, Note_on_c, 0, 66, 88
2, 20339, Note_off_c, 0, 66, 0
2, 20340, Note_on_c, 0, 64, 88
2, 20399, Note_off_c, 0, 64, 0
2, 20400, Note_on_c, 0, 62, 88
2, 20459, Note_off_c, 0, 62, 0
2, 20460, Note_on_c, 0, 61, 88
2, 20519, Note_off_c, 0, 61, 0
2, 20520, Note_on_c, 0, 59, 88
2, 20639, Note_off_c, 0, 59, 0
2, 20640, Note_on_c, 0, 62, 88
2, 20699, Note_off_c, 0, 62, 0
2, 20700, Note_on_c, 0, 61, 88
2, 20759, Note_off_c, 0, 61, 0
2, 20760, Note_on_c, 0, 59, 88
2, 20819, Note_off_c, 0, 59, 0
2, 20820, Note_on_c, 0, 57, 88
2, 20879, Note_off_c, 0, 57, 0
2, 20880, Note_on_c, 0, 56, 88
2, 20999, Note_off_c, 0, 56, 0
2, 21000, Note_on_c, 0, 59, 88
2, 21119, Note_off_c, 0, 59, 0
2, 21120, Note_on_c, 0, 64, 88
2, 21239, Note_off_c, 0, 64, 0
2, 21240, Note_on_c, 0, 61, 88
2, 21359, Note_off_c, 0, 61, 0
2, 21360, Note_on_c, 0, 64, 88
2, 21479, Note_off_c, 0, 64, 0
2, 21480, Note_on_c, 0, 69, 88
2, 21599, Note_off_c, 0, 69, 0
2, 21600, Note_on_c, 0, 62, 88
2, 21839, Note_off_c, 0, 62, 0
2, 21840, Note_on_c, 0, 71, 88
2, 21959, Note_off_c, 0, 71, 0
2, 21960, Note_on_c, 0, 64, 88
2, 22079, Note_off_c, 0, 64, 0
2, 22080, Note_on_c, 0, 69, 88
2, 22199, Note_off_c, 0, 69, 0
2, 22200, Note_on_c, 0, 68, 88
2, 22319, Note_off_c, 0, 68, 0
2, 22320, Note_on_c, 0, 69, 88
2, 23159, Note_off_c, 0, 69, 0
2, 23160, Note_on_c, 0, 62, 88
2, 23219, Note_off_c, 0, 62, 0
2, 23220, Note_on_c, 0, 64, 88
2, 23279, Note_off_c, 0, 64, 0
2, 23280, Note_on_c, 0, 66, 88
2, 23339, Note_off_c, 0, 66, 0
2, 23340, Note_on_c, 0, 67, 88
2, 23399, Note_off_c, 0, 67, 0
2, 23400, Note_on_c, 0, 69, 88
2, 23519, Note_off_c, 0, 69, 0
2, 23520, Note_on_c, 0, 66, 88
2, 23639, Note_off_c, 0, 66, 0
2, 23640, Note_on_c, 0, 69, 88
2, 23759, Note_off_c, 0, 69, 0
2, 23760, Note_on_c, 0, 74, 88
2, 23879, Note_off_c, 0, 74, 0
2, 23880, Note_on_c, 0, 69, 88
2, 23999, Note_off_c, 0, 69, 0
2, 24000, Note_on_c, 0, 74, 88
2, 24119, Note_off_c, 0, 74, 0
2, 24120, Note_on_c, 0, 78, 88
2, 24239, Note_off_c, 0, 78, 0
2, 24240, Note_on_c, 0, 74, 88
2, 24359, Note_off_c, 0, 74, 0
2, 24360, Note_on_c, 0, 78, 88
2, 24479, Note_off_c, 0, 78, 0
2, 24480, Note_on_c, 0, 81, 88
2, 24839, Note_off_c, 0, 81, 0
2, 24840, Note_on_c, 0, 81, 88
2, 25199, Note_off_c, 0, 81, 0
2, 25200, Note_on_c, 0, 81, 88
2, 25379, Note_off_c, 0, 81, 0
2, 25380, Note_on_c, 0, 79, 88
2, 25559, Note_off_c, 0, 79, 0
2, 25560, Note_on_c, 0, 79, 88
2, 25739, Note_off_c, 0, 79, 0
2, 25740, Note_on_c, 0, 78, 88
2, 25919, Note_off_c, 0, 78, 0
2, 25920, Note_on_c, 0, 78, 88
2, 27719, Note_off_c, 0, 78, 0
2, 27720, Note_on_c, 0, 78, 88
2, 28079, Note_off_c, 0, 78, 0
2, 28080, Note_on_c, 0, 78, 88
2, 28259, Note_off_c, 0, 78, 0
2, 28260, Note_on_c, 0, 76, 88
2, 28439, Note_off_c, 0, 76, 0
2, 28440, Note_on_c, 0, 76, 88
2, 28619, Note_off_c, 0, 76, 0
2, 28620, Note_on_c, 0, 74, 88
2, 28799, Note_off_c, 0, 74, 0
2, 28800, Note_on_c, 0, 74, 88
2, 29639, Note_off_c, 0, 74, 0
2, 29640, Note_on_c, 0, 64, 88
2, 29699, Note_off_c, 0, 64, 0
2, 29700, Note_on_c, 0, 66, 88
2, 29759, Note_off_c, 0, 66, 0
2, 29760, Note_on_c, 0, 68, 88
2, 29819, Note_off_c, 0, 68, 0
2, 29820, Note_on_c, 0, 69, 88
2, 29879, Note_off_c, 0, 69, 0
2, 29880, Note_on_c, 0, 71, 88
2, 29999, Note_off_c, 0, 71, 0
2, 30000, Note_on_c, 0, 68, 88
2, 30119, Note_off_c, 0, 68, 0
2, 30120, Note_on_c, 0, 71, 88
2, 30239, Note_off_c, 0, 71, 0
2, 30240, Note_on_c, 0, 76, 88
2, 31079, Note_off_c, 0, 76, 0
2, 31080, Note_on_c, 0, 62, 88
2, 31139, Note_off_c, 0, 62, 0
2, 31140, Note_on_c, 0, 64, 88
2, 31199, Note_off_c, 0, 64, 0
2, 31200, Note_on_c, 0, 66, 88
2, 31259, Note_off_c, 0, 66, 0
2, 31260, Note_on_c, 0, 68, 88
2, 31319, Note_off_c, 0, 68, 0
2, 31320, Note_on_c, 0, 69, 88
2, 31439, Note_off_c, 0, 69, 0
2, 31440, Note_on_c, 0, 66, 88
2, 31559, Note_off_c, 0, 66, 0
2, 31560, Note_on_c, 0, 69, 88
2, 31679, Note_off_c, 0, 69, 0
2, 31680, Note_on_c, 0, 74, 88
2, 31919, Note_off_c, 0, 74, 0
2, 31920, Note_on_c, 0, 66, 88
2, 32039, Note_off_c, 0, 66, 0
2, 32040, Note_on_c, 0, 74, 88
2, 32279, Note_off_c, 0, 74, 0
2, 32280, Note_on_c, 0, 74, 88
2, 32399, Note_off_c, 0, 74, 0
2, 32400, Note_on_c, 0, 74, 88
2, 32879, Note_off_c, 0, 74, 0
2, 32880, Note_on_c, 0, 76, 88
2, 32939, Note_off_c, 0, 76, 0
2, 32940, Note_on_c, 0, 74, 88
2, 32999, Note_off_c, 0, 74, 0
2, 33000, Note_on_c, 0, 73, 88
2, 33059, Note_off_c, 0, 73, 0
2, 33060, Note_on_c, 0, 71, 88
2, 33119, Note_off_c, 0, 71, 0
2, 33120, Note_on_c, 0, 73, 88
2, 33239, Note_off_c, 0, 73, 0
2, 33240, Note_on_c, 0, 69, 88
2, 33299, Note_off_c, 0, 69, 0
2, 33300, Note_on_c, 0, 71, 88
2, 33359, Note_off_c, 0, 71, 0
2, 33360, Note_on_c, 0, 73, 88
2, 33419, Note_off_c, 0, 73, 0
2, 33420, Note_on_c, 0, 74, 88
2, 33479, Note_off_c, 0, 74, 0
2, 33480, Note_on_c, 0, 76, 88
2, 33599, Note_off_c, 0, 76, 0
2, 33600, Note_on_c, 0, 74, 88
2, 33659, Note_off_c, 0, 74, 0
2, 33660, Note_on_c, 0, 73, 88
2, 33719, Note_off_c, 0, 73, 0
2, 33720, Note_on_c, 0, 71, 88
2, 33779, Note_off_c, 0, 71, 0
2, 33780, Note_on_c, 0, 69, 88
2, 33839, Note_off_c, 0, 69, 0
2, 33840, Note_on_c, 0, 74, 88
2, 33959, Note_off_c, 0, 74, 0
2, 33960, Note_on_c, 0, 71, 88
2, 34019, Note_off_c, 0, 71, 0
2, 34020, Note_on_c, 0, 73, 88
2, 34079, Note_off_c, 0, 73, 0
2, 34080, Note_on_c, 0, 74, 88
2, 34139, Note_off_c, 0, 74, 0
2, 34140, Note_on_c, 0, 76, 88
2, 34199, Note_off_c, 0, 76, 0
2, 34200, Note_on_c, 0, 78, 88
2, 34319, Note_off_c, 0, 78, 0
2, 34320, Note_on_c, 0, 76, 88
2, 34379, Note_off_c, 0, 76, 0
2, 34380, Note_on_c, 0, 74, 88
2, 34439, Note_off_c, 0, 74, 0
2, 34440, Note_on_c, 0, 73, 88
2, 34499, Note_off_c, 0, 73, 0
2, 34500, Note_on_c, 0, 71, 88
2, 34559, Note_off_c, 0, 71, 0
2, 34560, Note_on_c, 0, 76, 88
2, 35639, Note_off_c, 0, 76, 0
2, 35640, Note_on_c, 0, 74, 88
2, 36359, Note_off_c, 0, 74, 0
2, 36360, Note_on_c, 0, 74, 88
2, 36719, Note_off_c, 0, 74, 0
2, 36720, Note_on_c, 0, 80, 88
2, 37079, Note_off_c, 0, 80, 0
2, 37080, Note_on_c, 0, 83, 88
2, 37559, Note_off_c, 0, 83, 0
2, 37560, Note_on_c, 0, 81, 88
2, 37619, Note_off_c, 0, 81, 0
2, 37620, Note_on_c, 0, 80, 88
2, 37679, Note_off_c, 0, 80, 0
2, 37680, Note_on_c, 0, 78, 88
2, 37739, Note_off_c, 0, 78, 0
2, 37740, Note_on_c, 0, 76, 88
2, 37799, Note_off_c, 0, 76, 0
2, 37800, Note_on_c, 0, 75, 88
2, 37919, Note_off_c, 0, 75, 0
2, 37920, Note_on_c, 0, 78, 88
2, 38039, Note_off_c, 0, 78, 0
2, 38040, Note_on_c, 0, 75, 88
2, 38159, Note_off_c, 0, 75, 0
2, 38160, Note_on_c, 0, 69, 88
2, 38279, Note_off_c, 0, 69, 0
2, 38280, Note_on_c, 0, 75, 88
2, 38399, Note_off_c, 0, 75, 0
2, 38400, Note_on_c, 0, 69, 88
2, 38519, Note_off_c, 0, 69, 0
2, 38520, Note_on_c, 0, 66, 88
2, 38639, Note_off_c, 0, 66, 0
2, 38640, Note_on_c, 0, 69, 88
2, 38759, Note_off_c, 0, 69, 0
2, 38760, Note_on_c, 0, 66, 88
2, 38879, Note_off_c, 0, 66, 0
2, 38880, Note_on_c, 0, 68, 88
2, 38999, Note_off_c, 0, 68, 0
2, 39000, Note_on_c, 0, 66, 88
2, 39119, Note_off_c, 0, 66, 0
2, 39120, Note_on_c, 0, 64, 88
2, 39239, Note_off_c, 0, 64, 0
2, 39240, Note_on_c, 0, 69, 88
2, 39479, Note_off_c, 0, 69, 0
2, 39480, Note_on_c, 0, 74, 88
2, 39599, Note_off_c, 0, 74, 0
2, 39600, Note_on_c, 0, 73, 88
2, 39959, Note_off_c, 0, 73, 0
2, 39960, Note_on_c, 0, 73, 88
2, 39989, Note_off_c, 0, 73, 0
2, 39990, Note_on_c, 0, 71, 88
2, 40019, Note_off_c, 0, 71, 0
2, 40020, Note_on_c, 0, 73, 88
2, 40049, Note_off_c, 0, 73, 0
2, 40050, Note_on_c, 0, 71, 88
2, 40079, Note_off_c, 0, 71, 0
2, 40080, Note_on_c, 0, 69, 88
2, 40199, Note_off_c, 0, 69, 0
2, 40200, Note_on_c, 0, 71, 88
2, 40319, Note_off_c, 0, 71, 0
2, 40320, Note_on_c, 0, 69, 88
2, 40439, Note_off_c, 0, 69, 0
2, 40440, Note_on_c, 0, 73, 88
2, 40499, Note_off_c, 0, 73, 0
2, 40500, Note_on_c, 0, 71, 88
2, 40559, Note_off_c, 0, 71, 0
2, 40560, Note_on_c, 0, 69, 88
2, 40619, Note_off_c, 0, 69, 0
2, 40620, Note_on_c, 0, 68, 88
2, 40679, Note_off_c, 0, 68, 0
2, 40680, Note_on_c, 0, 66, 88
2, 40799, Note_off_c, 0, 66, 0
2, 40800, Note_on_c, 0, 69, 88
2, 40859, Note_off_c, 0, 69, 0
2, 40860, Note_on_c, 0, 68, 88
2, 40919, Note_off_c, 0, 68, 0
2, 40920, Note_on_c, 0, 66, 88
2, 40979, Note_off_c, 0, 66, 0
2, 40980, Note_on_c, 0, 64, 88
2, 41039, Note_off_c, 0, 64, 0
2, 41040, Note_on_c, 0, 63, 88
2, 41159, Note_off_c, 0, 63, 0
2, 41160, Note_on_c, 0, 66, 88
2, 41279, Note_off_c, 0, 66, 0
2, 41280, Note_on_c, 0, 71, 88
2, 41399, Note_off_c, 0, 71, 0
2, 41400, Note_on_c, 0, 71, 88
2, 41879, Note_off_c, 0, 71, 0
2, 41880, Note_on_c, 0, 69, 88
2, 41939, Note_off_c, 0, 69, 0
2, 41940, Note_on_c, 0, 68, 88
2, 41999, Note_off_c, 0, 68, 0
2, 42000, Note_on_c, 0, 66, 88
2, 42059, Note_off_c, 0, 66, 0
2, 42060, Note_on_c, 0, 64, 88
2, 42119, Note_off_c, 0, 64, 0
2, 42120, Note_on_c, 0, 62, 88
2, 42239, Note_off_c, 0, 62, 0
2, 42240, Note_on_c, 0, 66, 88
2, 42299, Note_off_c, 0, 66, 0
2, 42300, Note_on_c, 0, 64, 88
2, 42359, Note_off_c, 0, 64, 0
2, 42360, Note_on_c, 0, 62, 88
2, 42419, Note_off_c, 0, 62, 0
2, 42420, Note_on_c, 0, 61, 88
2, 42479, Note_off_c, 0, 61, 0
2, 42480, Note_on_c, 0, 59, 88
2, 42599, Note_off_c, 0, 59, 0
2, 42600, Note_on_c, 0, 62, 88
2, 42719, Note_off_c, 0, 62, 0
2, 42720, Note_on_c, 0, 67, 88
2, 42839, Note_off_c, 0, 67, 0
2, 42840, Note_on_c, 0, 67, 88
2, 43319, Note_off_c, 0, 67, 0
2, 43320, Note_on_c, 0, 66, 88
2, 43379, Note_off_c, 0, 66, 0
2, 43380, Note_on_c, 0, 64, 88
2, 43439, Note_off_c, 0, 64, 0
2, 43440, Note_on_c, 0, 62, 88
2, 43499, Note_off_c, 0, 62, 0
2, 43500, Note_on_c, 0, 61, 88
2, 43559, Note_off_c, 0, 61, 0
2, 43560, Note_on_c, 0, 59, 88
2, 43679, Note_off_c, 0, 59, 0
2, 43680, Note_on_c, 0, 62, 88
2, 43739, Note_off_c, 0, 62, 0
2, 43740, Note_on_c, 0, 61, 88
2, 43799, Note_off_c, 0, 61, 0
2, 43800, Note_on_c, 0, 59, 88
2, 43859, Note_off_c, 0, 59, 0
2, 43860, Note_on_c, 0, 57, 88
2, 43919, Note_off_c, 0, 57, 0
2, 43920, Note_on_c, 0, 56, 88
2, 44039, Note_off_c, 0, 56, 0
2, 44040, Note_on_c, 0, 59, 88
2, 44159, Note_off_c, 0, 59, 0
2, 44160, Note_on_c, 0, 64, 88
2, 44279, Note_off_c, 0, 64, 0
2, 44280, Note_on_c, 0, 61, 88
2, 44399, Note_off_c, 0, 61, 0
2, 44400, Note_on_c, 0, 64, 88
2, 44519, Note_off_c, 0, 64, 0
2, 44520, Note_on_c, 0, 69, 88
2, 44639, Note_off_c, 0, 69, 0
2, 44640, Note_on_c, 0, 62, 88
2, 44879, Note_off_c, 0, 62, 0
2, 44880, Note_on_c, 0, 71, 88
2, 44999, Note_off_c, 0, 71, 0
2, 45000, Note_on_c, 0, 64, 88
2, 45119, Note_off_c, 0, 64, 0
2, 45120, Note_on_c, 0, 69, 88
2, 45239, Note_off_c, 0, 69, 0
2, 45240, Note_on_c, 0, 68, 88
2, 45359, Note_off_c, 0, 68, 0
2, 45360, Note_on_c, 0, 69, 88
2, 46199, Note_off_c, 0, 69, 0
2, 46200, Note_on_c, 0, 76, 88
2, 46259, Note_off_c, 0, 76, 0
2, 46260, Note_on_c, 0, 74, 88
2, 46319, Note_off_c, 0, 74, 0
2, 46320, Note_on_c, 0, 73, 88
2, 46379, Note_off_c, 0, 73, 0
2, 46380, Note_on_c, 0, 71, 88
2, 46439, Note_off_c, 0, 71, 0
2, 46440, Note_on_c, 0, 69, 88
2, 46559, Note_off_c, 0, 69, 0
2, 46560, Note_on_c, 0, 73, 88
2, 46679, Note_off_c, 0, 73, 0
2, 46680, Note_on_c, 0, 69, 88
2, 46799, Note_off_c, 0, 69, 0
2, 46800, Note_on_c, 0, 64, 88
2, 46919, Note_off_c, 0, 64, 0
2, 46920, Note_on_c, 0, 69, 88
2, 47039, Note_off_c, 0, 69, 0
2, 47040, Note_on_c, 0, 64, 88
2, 47159, Note_off_c, 0, 64, 0
2, 47160, Note_on_c, 0, 61, 88
2, 47279, Note_off_c, 0, 61, 0
2, 47280, Note_on_c, 0, 64, 88
2, 47399, Note_off_c, 0, 64, 0
2, 47400, Note_on_c, 0, 61, 88
2, 47639, Note_off_c, 0, 61, 0
2, 47640, Note_on_c, 0, 69, 88
2, 47699, Note_off_c, 0, 69, 0
2, 47700, Note_on_c, 0, 71, 88
2, 47759, Note_off_c, 0, 71, 0
2, 47760, Note_on_c, 0, 73, 88
2, 47819, Note_off_c, 0, 73, 0
2, 47820, Note_on_c, 0, 74, 88
2, 47879, Note_off_c, 0, 74, 0
2, 47880, Note_on_c, 0, 76, 88
2, 47999, Note_off_c, 0, 76, 0
2, 48000, Note_on_c, 0, 73, 88
2, 48119, Note_off_c, 0, 73, 0
2, 48120, Note_on_c, 0, 76, 88
2, 48239, Note_off_c, 0, 76, 0
2, 48240, Note_on_c, 0, 81, 88
2, 48299, Note_off_c, 0, 81, 0
2, 48300, Note_on_c, 0, 76, 88
2, 48359, Note_off_c, 0, 76, 0
2, 48360, Note_on_c, 0, 78, 88
2, 48419, Note_off_c, 0, 78, 0
2, 48420, Note_on_c, 0, 80, 88
2, 48479, Note_off_c, 0, 80, 0
2, 48480, Note_on_c, 0, 81, 88
2, 48539, Note_off_c, 0, 81, 0
2, 48540, Note_on_c, 0, 80, 88
2, 48599, Note_off_c, 0, 80, 0
2, 48600, Note_on_c, 0, 81, 88
2, 48659, Note_off_c, 0, 81, 0
2, 48660, Note_on_c, 0, 76, 88
2, 48719, Note_off_c, 0, 76, 0
2, 48720, Note_on_c, 0, 78, 88
2, 48779, Note_off_c, 0, 78, 0
2, 48780, Note_on_c, 0, 80, 88
2, 48839, Note_off_c, 0, 80, 0
2, 48840, Note_on_c, 0, 81, 88
2, 48899, Note_off_c, 0, 81, 0
2, 48900, Note_on_c, 0, 80, 88
2, 48959, Note_off_c, 0, 80, 0
2, 48960, Note_on_c, 0, 81, 88
2, 49079, Note_off_c, 0, 81, 0
2, 49080, Note_on_c, 0, 80, 88
2, 49139, Note_off_c, 0, 80, 0
2, 49140, Note_on_c, 0, 78, 88
2, 49199, Note_off_c, 0, 78, 0
2, 49200, Note_on_c, 0, 76, 88
2, 49259, Note_off_c, 0, 76, 0
2, 49260, Note_on_c, 0, 74, 88
2, 49319, Note_off_c, 0, 74, 0
2, 49320, Note_on_c, 0, 73, 88
2, 49379, Note_off_c, 0, 73, 0
2, 49380, Note_on_c, 0, 74, 88
2, 49439, Note_off_c, 0, 74, 0
2, 49440, Note_on_c, 0, 76, 88
2, 49499, Note_off_c, 0, 76, 0
2, 49500, Note_on_c, 0, 74, 88
2, 49559, Note_off_c, 0, 74, 0
2, 49560, Note_on_c, 0, 73, 88
2, 49619, Note_off_c, 0, 73, 0
2, 49620, Note_on_c, 0, 71, 88
2, 49679, Note_off_c, 0, 71, 0
2, 49680, Note_on_c, 0, 71, 88
2, 49717, Note_off_c, 0, 71, 0
2, 49718, Note_on_c, 0, 69, 88
2, 49747, Note_off_c, 0, 69, 0
2, 49748, Note_on_c, 0, 71, 88
2, 49777, Note_off_c, 0, 71, 0
2, 49778, Note_on_c, 0, 69, 88
2, 49807, Note_off_c, 0, 69, 0
2, 49808, Note_on_c, 0, 71, 88
2, 49837, Note_off_c, 0, 71, 0
2, 49838, Note_on_c, 0, 69, 88
2, 49867, Note_off_c, 0, 69, 0
2, 49868, Note_on_c, 0, 71, 88
2, 49897, Note_off_c, 0, 71, 0
2, 49898, Note_on_c, 0, 69, 88
2, 49927, Note_off_c, 0, 69, 0
2, 49928, Note_on_c, 0, 71, 88
2, 49957, Note_off_c, 0, 71, 0
2, 49958, Note_on_c, 0, 69, 88
2, 49987, Note_off_c, 0, 69, 0
2, 49988, Note_on_c, 0, 71, 88
2, 50017, Note_off_c, 0, 71, 0
2, 50018, Note_on_c, 0, 69, 88
2, 50047, Note_off_c, 0, 69, 0
2, 50048, Note_on_c, 0, 71, 88
2, 50077, Note_off_c, 0, 71, 0
2, 50078, Note_on_c, 0, 69, 88
2, 50107, Note_off_c, 0, 69, 0
2, 50108, Note_on_c, 0, 71, 88
2, 50137, Note_off_c, 0, 71, 0
2, 50138, Note_on_c, 0, 69, 88
2, 50167, Note_off_c, 0, 69, 0
2, 50168, Note_on_c, 0, 71, 88
2, 50197, Note_off_c, 0, 71, 0
2, 50198, Note_on_c, 0, 69, 88
2, 50227, Note_off_c, 0, 69, 0
2, 50228, Note_on_c, 0, 71, 88
2, 50257, Note_off_c, 0, 71, 0
2, 50258, Note_on_c, 0, 69, 88
2, 50287, Note_off_c, 0, 69, 0
2, 50288, Note_on_c, 0, 71, 88
2, 50317, Note_off_c, 0, 71, 0
2, 50318, Note_on_c, 0, 69, 88
2, 50347, Note_off_c, 0, 69, 0
2, 50348, Note_on_c, 0, 71, 88
2, 50369, Note_off_c, 0, 71, 0
2, 50370, Note_on_c, 0, 69, 88
2, 50399, Note_off_c, 0, 69, 0
2, 50400, Note_on_c, 0, 69, 88
2, 50459, Note_off_c, 0, 69, 0
2, 50460, Note_on_c, 0, 71, 88
2, 50519, Note_off_c, 0, 71, 0
2, 50520, Note_on_c, 0, 69, 88
2, 50579, Note_off_c, 0, 69, 0
2, 50580, Note_on_c, 0, 68, 88
2, 50639, Note_off_c, 0, 68, 0
2, 50640, Note_on_c, 0, 69, 88
2, 50699, Note_off_c, 0, 69, 0
2, 50700, Note_on_c, 0, 64, 88
2, 50759, Note_off_c, 0, 64, 0
2, 50760, Note_on_c, 0, 61, 88
2, 50819, Note_off_c, 0, 61, 0
2, 50820, Note_on_c, 0, 66, 88
2, 50879, Note_off_c, 0, 66, 0
2, 50880, Note_on_c, 0, 64, 88
2, 50939, Note_off_c, 0, 64, 0
2, 50940, Note_on_c, 0, 62, 88
2, 50999, Note_off_c, 0, 62, 0
2, 51000, Note_on_c, 0, 64, 88
2, 51059, Note_off_c, 0, 64, 0
2, 51060, Note_on_c, 0, 61, 88
2, 51119, Note_off_c, 0, 61, 0
2, 51120, Note_on_c, 0, 59, 88
2, 51157, Note_off_c, 0, 59, 0
2, 51158, Note_on_c, 0, 57, 88
2, 51187, Note_off_c, 0, 57, 0
2, 51188, Note_on_c, 0, 59, 88
2, 51217, Note_off_c, 0, 59, 0
2, 51218, Note_on_c, 0, 57, 88
2, 51247, Note_off_c, 0, 57, 0
2, 51248, Note_on_c, 0, 59, 88
2, 51277, Note_off_c, 0, 59, 0
2, 51278, Note_on_c, 0, 57, 88
2, 51307, Note_off_c, 0, 57, 0
2, 51308, Note_on_c, 0, 59, 88
2, 51337, Note_off_c, 0, 59, 0
2, 51338, Note_on_c, 0, 57, 88
2, 51367, Note_off_c, 0, 57, 0
2, 51368, Note_on_c, 0, 59, 88
2, 51397, Note_off_c, 0, 59, 0
2, 51398, Note_on_c, 0, 57, 88
2, 51427, Note_off_c, 0, 57, 0
2, 51428, Note_on_c, 0, 59, 88
2, 51457, Note_off_c, 0, 59, 0
2, 51458, Note_on_c, 0, 57, 88
2, 51487, Note_off_c, 0, 57, 0
2, 51488, Note_on_c, 0, 59, 88
2, 51517, Note_off_c, 0, 59, 0
2, 51518, Note_on_c, 0, 57, 88
2, 51547, Note_off_c, 0, 57, 0
2, 51548, Note_on_c, 0, 59, 88
2, 51577, Note_off_c, 0, 59, 0
2, 51578, Note_on_c, 0, 57, 88
2, 51607, Note_off_c, 0, 57, 0
2, 51608, Note_on_c, 0, 59, 88
2, 51637, Note_off_c, 0, 59, 0
2, 51638, Note_on_c, 0, 57, 88
2, 51667, Note_off_c, 0, 57, 0
2, 51668, Note_on_c, 0, 59, 88
2, 51697, Note_off_c, 0, 59, 0
2, 51698, Note_on_c, 0, 57, 88
2, 51727, Note_off_c, 0, 57, 0
2, 51728, Note_on_c, 0, 59, 88
2, 51757, Note_off_c, 0, 59, 0
2, 51758, Note_on_c, 0, 57, 88
2, 51787, Note_off_c, 0, 57, 0
2, 51788, Note_on_c, 0, 59, 88
2, 51809, Note_off_c, 0, 59, 0
2, 51810, Note_on_c, 0, 57, 88
2, 51839, Note_off_c, 0, 57, 0
2, 51840, Note_on_c, 0, 57, 88
2, 52679, Note_off_c, 0, 57, 0
2, 52680, Note_on_c, 0, 76, 88
2, 52739, Note_off_c, 0, 76, 0
2, 52740, Note_on_c, 0, 74, 88
2, 52799, Note_off_c, 0, 74, 0
2, 52800, Note_on_c, 0, 73, 88
2, 52859, Note_off_c, 0, 73, 0
2, 52860, Note_on_c, 0, 71, 88
2, 52919, Note_off_c, 0, 71, 0
2, 52920, Note_on_c, 0, 69, 88
2, 53039, Note_off_c, 0, 69, 0
2, 53040, Note_on_c, 0, 76, 88
2, 53159, Note_off_c, 0, 76, 0
2, 53160, Note_on_c, 0, 67, 88
2, 53279, Note_off_c, 0, 67, 0
2, 53280, Note_on_c, 0, 66, 88
2, 54119, Note_off_c, 0, 66, 0
2, 54120, Note_on_c, 0, 81, 88
2, 54179, Note_off_c, 0, 81, 0
2, 54180, Note_on_c, 0, 79, 88
2, 54239, Note_off_c, 0, 79, 0
2, 54240, Note_on_c, 0, 78, 88
2, 54299, Note_off_c, 0, 78, 0
2, 54300, Note_on_c, 0, 76, 88
2, 54359, Note_off_c, 0, 76, 0
2, 54360, Note_on_c, 0, 74, 88
2, 54479, Note_off_c, 0, 74, 0
2, 54480, Note_on_c, 0, 81, 88
2, 54599, Note_off_c, 0, 81, 0
2, 54600, Note_on_c, 0, 72, 88
2, 54719, Note_off_c, 0, 72, 0
2, 54720, Note_on_c, 0, 71, 88
2, 55559, Note_off_c, 0, 71, 0
2, 55560, Note_on_c, 0, 73, 88
2, 55619, Note_off_c, 0, 73, 0
2, 55620, Note_on_c, 0, 71, 88
2, 55679, Note_off_c, 0, 71, 0
2, 55680, Note_on_c, 0, 70, 88
2, 55739, Note_off_c, 0, 70, 0
2, 55740, Note_on_c, 0, 71, 88
2, 55799, Note_off_c, 0, 71, 0
2, 55800, Note_on_c, 0, 73, 88
2, 56279, Note_off_c, 0, 73, 0
2, 56280, Note_on_c, 0, 74, 88
2, 56339, Note_off_c, 0, 74, 0
2, 56340, Note_on_c, 0, 73, 88
2, 56399, Note_off_c, 0, 73, 0
2, 56400, Note_on_c, 0, 71, 88
2, 56459, Note_off_c, 0, 71, 0
2, 56460, Note_on_c, 0, 73, 88
2, 56519, Note_off_c, 0, 73, 0
2, 56520, Note_on_c, 0, 74, 88
2, 56999, Note_off_c, 0, 74, 0
2, 57000, Note_on_c, 0, 76, 88
2, 57059, Note_off_c, 0, 76, 0
2, 57060, Note_on_c, 0, 74, 88
2, 57119, Note_off_c, 0, 74, 0
2, 57120, Note_on_c, 0, 73, 88
2, 57179, Note_off_c, 0, 73, 0
2, 57180, Note_on_c, 0, 74, 88
2, 57239, Note_off_c, 0, 74, 0
2, 57240, Note_on_c, 0, 76, 88
2, 57719, Note_off_c, 0, 76, 0
2, 57720, Note_on_c, 0, 79, 88
2, 57779, Note_off_c, 0, 79, 0
2, 57780, Note_on_c, 0, 78, 88
2, 57839, Note_off_c, 0, 78, 0
2, 57840, Note_on_c, 0, 76, 88
2, 57899, Note_off_c, 0, 76, 0
2, 57900, Note_on_c, 0, 75, 88
2, 57959, Note_off_c, 0, 75, 0
2, 57960, Note_on_c, 0, 76, 88
2, 58079, Note_off_c, 0, 76, 0
2, 58080, Note_on_c, 0, 79, 88
2, 58199, Note_off_c, 0, 79, 0
2, 58200, Note_on_c, 0, 75, 88
2, 58319, Note_off_c, 0, 75, 0
2, 58320, Note_on_c, 0, 76, 88
2, 58439, Note_off_c, 0, 76, 0
2, 58440, Note_on_c, 0, 79, 88
2, 58499, Note_off_c, 0, 79, 0
2, 58500, Note_on_c, 0, 78, 88
2, 58559, Note_off_c, 0, 78, 0
2, 58560, Note_on_c, 0, 76, 88
2, 58619, Note_off_c, 0, 76, 0
2, 58620, Note_on_c, 0, 75, 88
2, 58679, Note_off_c, 0, 75, 0
2, 58680, Note_on_c, 0, 76, 88
2, 58799, Note_off_c, 0, 76, 0
2, 58800, Note_on_c, 0, 78, 88
2, 58859, Note_off_c, 0, 78, 0
2, 58860, Note_on_c, 0, 76, 88
2, 58919, Note_off_c, 0, 76, 0
2, 58920, Note_on_c, 0, 75, 88
2, 58979, Note_off_c, 0, 75, 0
2, 58980, Note_on_c, 0, 73, 88
2, 59039, Note_off_c, 0, 73, 0
2, 59040, Note_on_c, 0, 75, 88
2, 59759, Note_off_c, 0, 75, 0
2, 59760, Note_on_c, 0, 78, 88
2, 60539, Note_off_c, 0, 78, 0
2, 60540, Note_on_c, 0, 71, 88
2, 60599, Note_off_c, 0, 71, 0
2, 60600, Note_on_c, 0, 73, 88
2, 60659, Note_off_c, 0, 73, 0
2, 60660, Note_on_c, 0, 75, 88
2, 60719, Note_off_c, 0, 75, 0
2, 60720, Note_on_c, 0, 76, 88
2, 60779, Note_off_c, 0, 76, 0
2, 60780, Note_on_c, 0, 78, 88
2, 60839, Note_off_c, 0, 78, 0
2, 60840, Note_on_c, 0, 79, 88
2, 60899, Note_off_c, 0, 79, 0
2, 60900, Note_on_c, 0, 78, 88
2, 60959, Note_off_c, 0, 78, 0
2, 60960, Note_on_c, 0, 76, 88
2, 61019, Note_off_c, 0, 76, 0
2, 61020, Note_on_c, 0, 74, 88
2, 61079, Note_off_c, 0, 74, 0
2, 61080, Note_on_c, 0, 73, 88
2, 61139, Note_off_c, 0, 73, 0
2, 61140, Note_on_c, 0, 71, 88
2, 61199, Note_off_c, 0, 71, 0
2, 61200, Note_on_c, 0, 76, 88
2, 61259, Note_off_c, 0, 76, 0
2, 61260, Note_on_c, 0, 74, 88
2, 61319, Note_off_c, 0, 74, 0
2, 61320, Note_on_c, 0, 73, 88
2, 61379, Note_off_c, 0, 73, 0
2, 61380, Note_on_c, 0, 71, 88
2, 61439, Note_off_c, 0, 71, 0
2, 61440, Note_on_c, 0, 69, 88
2, 61499, Note_off_c, 0, 69, 0
2, 61500, Note_on_c, 0, 68, 88
2, 61559, Note_off_c, 0, 68, 0
2, 61560, Note_on_c, 0, 73, 88
2, 61619, Note_off_c, 0, 73, 0
2, 61620, Note_on_c, 0, 71, 88
2, 61679, Note_off_c, 0, 71, 0
2, 61680, Note_on_c, 0, 69, 88
2, 61739, Note_off_c, 0, 69, 0
2, 61740, Note_on_c, 0, 67, 88
2, 61799, Note_off_c, 0, 67, 0
2, 61800, Note_on_c, 0, 66, 88
2, 61859, Note_off_c, 0, 66, 0
2, 61860, Note_on_c, 0, 64, 88
2, 61919, Note_off_c, 0, 64, 0
2, 61920, Note_on_c, 0, 66, 88
2, 61979, Note_off_c, 0, 66, 0
2, 61980, Note_on_c, 0, 69, 88
2, 62039, Note_off_c, 0, 69, 0
2, 62040, Note_on_c, 0, 71, 88
2, 62099, Note_off_c, 0, 71, 0
2, 62100, Note_on_c, 0, 73, 88
2, 62159, Note_off_c, 0, 73, 0
2, 62160, Note_on_c, 0, 74, 88
2, 62219, Note_off_c, 0, 74, 0
2, 62220, Note_on_c, 0, 76, 88
2, 62279, Note_off_c, 0, 76, 0
2, 62280, Note_on_c, 0, 78, 88
2, 62339, Note_off_c, 0, 78, 0
2, 62340, Note_on_c, 0, 76, 88
2, 62399, Note_off_c, 0, 76, 0
2, 62400, Note_on_c, 0, 74, 88
2, 62459, Note_off_c, 0, 74, 0
2, 62460, Note_on_c, 0, 73, 88
2, 62519, Note_off_c, 0, 73, 0
2, 62520, Note_on_c, 0, 71, 88
2, 62579, Note_off_c, 0, 71, 0
2, 62580, Note_on_c, 0, 69, 88
2, 62639, Note_off_c, 0, 69, 0
2, 62640, Note_on_c, 0, 68, 88
2, 62699, Note_off_c, 0, 68, 0
2, 62700, Note_on_c, 0, 71, 88
2, 62759, Note_off_c, 0, 71, 0
2, 62760, Note_on_c, 0, 76, 88
2, 62819, Note_off_c, 0, 76, 0
2, 62820, Note_on_c, 0, 74, 88
2, 62879, Note_off_c, 0, 74, 0
2, 62880, Note_on_c, 0, 76, 88
2, 63059, Note_off_c, 0, 76, 0
2, 63060, Note_on_c, 0, 70, 88
2, 63119, Note_off_c, 0, 70, 0
2, 63120, Note_on_c, 0, 73, 88
2, 63179, Note_off_c, 0, 73, 0
2, 63180, Note_on_c, 0, 74, 88
2, 63239, Note_off_c, 0, 74, 0
2, 63240, Note_on_c, 0, 76, 88
2, 63419, Note_off_c, 0, 76, 0
2, 63420, Note_on_c, 0, 66, 88
2, 63479, Note_off_c, 0, 66, 0
2, 63480, Note_on_c, 0, 68, 88
2, 63539, Note_off_c, 0, 68, 0
2, 63540, Note_on_c, 0, 70, 88
2, 63599, Note_off_c, 0, 70, 0
2, 63600, Note_on_c, 0, 71, 88
2, 63659, Note_off_c, 0, 71, 0
2, 63660, Note_on_c, 0, 73, 88
2, 63719, Note_off_c, 0, 73, 0
2, 63720, Note_on_c, 0, 74, 88
2, 63779, Note_off_c, 0, 74, 0
2, 63780, Note_on_c, 0, 73, 88
2, 63839, Note_off_c, 0, 73, 0
2, 63840, Note_on_c, 0, 71, 88
2, 63899, Note_off_c, 0, 71, 0
2, 63900, Note_on_c, 0, 69, 88
2, 63959, Note_off_c, 0, 69, 0
2, 63960, Note_on_c, 0, 67, 88
2, 64019, Note_off_c, 0, 67, 0
2, 64020, Note_on_c, 0, 66, 88
2, 64079, Note_off_c, 0, 66, 0
2, 64080, Note_on_c, 0, 71, 88
2, 64139, Note_off_c, 0, 71, 0
2, 64140, Note_on_c, 0, 69, 88
2, 64199, Note_off_c, 0, 69, 0
2, 64200, Note_on_c, 0, 67, 88
2, 64259, Note_off_c, 0, 67, 0
2, 64260, Note_on_c, 0, 66, 88
2, 64319, Note_off_c, 0, 66, 0
2, 64320, Note_on_c, 0, 64, 88
2, 64379, Note_off_c, 0, 64, 0
2, 64380, Note_on_c, 0, 62, 88
2, 64439, Note_off_c, 0, 62, 0
2, 64440, Note_on_c, 0, 67, 88
2, 64499, Note_off_c, 0, 67, 0
2, 64500, Note_on_c, 0, 66, 88
2, 64559, Note_off_c, 0, 66, 0
2, 64560, Note_on_c, 0, 64, 88
2, 64619, Note_off_c, 0, 64, 0
2, 64620, Note_on_c, 0, 62, 88
2, 64679, Note_off_c, 0, 62, 0
2, 64680, Note_on_c, 0, 61, 88
2, 64739, Note_off_c, 0, 61, 0
2, 64740, Note_on_c, 0, 64, 88
2, 64799, Note_off_c, 0, 64, 0
2, 64800, Note_on_c, 0, 58, 88
2, 64919, Note_off_c, 0, 58, 0
2, 64920, Note_on_c, 0, 79, 88
2, 64979, Note_off_c, 0, 79, 0
2, 64980, Note_on_c, 0, 78, 88
2, 65039, Note_off_c, 0, 78, 0
2, 65040, Note_on_c, 0, 76, 88
2, 65099, Note_off_c, 0, 76, 0
2, 65100, Note_on_c, 0, 74, 88
2, 65159, Note_off_c, 0, 74, 0
2, 65160, Note_on_c, 0, 73, 88
2, 65279, Note_off_c, 0, 73, 0
2, 65280, Note_on_c, 0, 76, 88
2, 65399, Note_off_c, 0, 76, 0
2, 65400, Note_on_c, 0, 73, 88
2, 65519, Note_off_c, 0, 73, 0
2, 65520, Note_on_c, 0, 70, 88
2, 65639, Note_off_c, 0, 70, 0
2, 65640, Note_on_c, 0, 73, 88
2, 65759, Note_off_c, 0, 73, 0
2, 65760, Note_on_c, 0, 70, 88
2, 65879, Note_off_c, 0, 70, 0
2, 65880, Note_on_c, 0, 64, 88
2, 65999, Note_off_c, 0, 64, 0
2, 66000, Note_on_c, 0, 70, 88
2, 66119, Note_off_c, 0, 70, 0
2, 66120, Note_on_c, 0, 64, 88
2, 66239, Note_off_c, 0, 64, 0
2, 66240, Note_on_c, 0, 62, 88
2, 66599, Note_off_c, 0, 62, 0
2, 66600, Note_on_c, 0, 71, 88
2, 66959, Note_off_c, 0, 71, 0
2, 66960, Note_on_c, 0, 74, 88
2, 67319, Note_off_c, 0, 74, 0
2, 67320, Note_on_c, 0, 77, 88
2, 67679, Note_off_c, 0, 77, 0
2, 67680, Note_on_c, 0, 78, 88
2, 67919, Note_off_c, 0, 78, 0
2, 67920, Note_on_c, 0, 76, 88
2, 68039, Note_off_c, 0, 76, 0
2, 68040, Note_on_c, 0, 74, 88
2, 68279, Note_off_c, 0, 74, 0
2, 68280, Note_on_c, 0, 79, 88
2, 68399, Note_off_c, 0, 79, 0
2, 68400, Note_on_c, 0, 74, 88
2, 68759, Note_off_c, 0, 74, 0
2, 68760, Note_on_c, 0, 74, 88
2, 68789, Note_off_c, 0, 74, 0
2, 68790, Note_on_c, 0, 73, 88
2, 68819, Note_off_c, 0, 73, 0
2, 68820, Note_on_c, 0, 74, 88
2, 68849, Note_off_c, 0, 74, 0
2, 68850, Note_on_c, 0, 73, 88
2, 68879, Note_off_c, 0, 73, 0
2, 68880, Note_on_c, 0, 71, 88
2, 68999, Note_off_c, 0, 71, 0
2, 69000, Note_on_c, 0, 73, 88
2, 69119, Note_off_c, 0, 73, 0
2, 69120, Note_on_c, 0, 71, 88
2, 69239, Note_off_c, 0, 71, 0
2, 69240, Note_on_c, 0, 74, 88
2, 69299, Note_off_c, 0, 74, 0
2, 69300, Note_on_c, 0, 73, 88
2, 69359, Note_off_c, 0, 73, 0
2, 69360, Note_on_c, 0, 71, 88
2, 69419, Note_off_c, 0, 71, 0
2, 69420, Note_on_c, 0, 69, 88
2, 69479, Note_off_c, 0, 69, 0
2, 69480, Note_on_c, 0, 67, 88
2, 69599, Note_off_c, 0, 67, 0
2, 69600, Note_on_c, 0, 71, 88
2, 69659, Note_off_c, 0, 71, 0
2, 69660, Note_on_c, 0, 69, 88
2, 69719, Note_off_c, 0, 69, 0
2, 69720, Note_on_c, 0, 67, 88
2, 69779, Note_off_c, 0, 67, 0
2, 69780, Note_on_c, 0, 66, 88
2, 69839, Note_off_c, 0, 66, 0
2, 69840, Note_on_c, 0, 64, 88
2, 69959, Note_off_c, 0, 64, 0
2, 69960, Note_on_c, 0, 67, 88
2, 70079, Note_off_c, 0, 67, 0
2, 70080, Note_on_c, 0, 72, 88
2, 70199, Note_off_c, 0, 72, 0
2, 70200, Note_on_c, 0, 72, 88
2, 70799, Note_off_c, 0, 72, 0
2, 70800, Note_on_c, 0, 71, 88
2, 70919, Note_off_c, 0, 71, 0
2, 70920, Note_on_c, 0, 71, 88
2, 71519, Note_off_c, 0, 71, 0
2, 71520, Note_on_c, 0, 69, 88
2, 71639, Note_off_c, 0, 69, 0
2, 71640, Note_on_c, 0, 69, 88
2, 72239, Note_off_c, 0, 69, 0
2, 72240, Note_on_c, 0, 67, 88
2, 72359, Note_off_c, 0, 67, 0
2, 72360, Note_on_c, 0, 67, 88
2, 72959, Note_off_c, 0, 67, 0
2, 72960, Note_on_c, 0, 66, 88
2, 73199, Note_off_c, 0, 66, 0
2, 73200, Note_on_c, 0, 66, 88
2, 73319, Note_off_c, 0, 66, 0
2, 73320, Note_on_c, 0, 72, 88
2, 73439, Note_off_c, 0, 72, 0
2, 73440, Note_on_c, 0, 71, 88
2, 73919, Note_off_c, 0, 71, 0
2, 73920, Note_on_c, 0, 73, 88
2, 74039, Note_off_c, 0, 73, 0
2, 74040, Note_on_c, 0, 74, 88
2, 74279, Note_off_c, 0, 74, 0
2, 74280, Note_on_c, 0, 71, 88
2, 74399, Note_off_c, 0, 71, 0
2, 74400, Note_on_c, 0, 73, 88
2, 74519, Note_off_c, 0, 73, 0
2, 74520, Note_on_c, 0, 76, 88
2, 74999, Note_off_c, 0, 76, 0
2, 75000, Note_on_c, 0, 73, 88
2, 75119, Note_off_c, 0, 73, 0
2, 75120, Note_on_c, 0, 74, 88
2, 75239, Note_off_c, 0, 74, 0
2, 75240, Note_on_c, 0, 79, 88
2, 75719, Note_off_c, 0, 79, 0
2, 75720, Note_on_c, 0, 78, 88
2, 75839, Note_off_c, 0, 78, 0
2, 75840, Note_on_c, 0, 76, 88
2, 75959, Note_off_c, 0, 76, 0
2, 75960, Note_on_c, 0, 78, 88
2, 76439, Note_off_c, 0, 78, 0
2, 76440, Note_on_c, 0, 76, 88
2, 76559, Note_off_c, 0, 76, 0
2, 76560, Note_on_c, 0, 74, 88
2, 76679, Note_off_c, 0, 74, 0
2, 76680, Note_on_c, 0, 76, 88
2, 76799, Note_off_c, 0, 76, 0
2, 76800, Note_on_c, 0, 73, 88
2, 76919, Note_off_c, 0, 73, 0
2, 76920, Note_on_c, 0, 74, 88
2, 77039, Note_off_c, 0, 74, 0
2, 77040, Note_on_c, 0, 74, 88
2, 77062, Note_off_c, 0, 74, 0
2, 77063, Note_on_c, 0, 73, 88
2, 77092, Note_off_c, 0, 73, 0
2, 77093, Note_on_c, 0, 74, 88
2, 77122, Note_off_c, 0, 74, 0
2, 77123, Note_on_c, 0, 73, 88
2, 77152, Note_off_c, 0, 73, 0
2, 77153, Note_on_c, 0, 74, 88
2, 77182, Note_off_c, 0, 74, 0
2, 77183, Note_on_c, 0, 73, 88
2, 77212, Note_off_c, 0, 73, 0
2, 77213, Note_on_c, 0, 74, 88
2, 77234, Note_off_c, 0, 74, 0
2, 77235, Note_on_c, 0, 73, 88
2, 77257, Note_off_c, 0, 73, 0
2, 77258, Note_on_c, 0, 74, 88
2, 77279, Note_off_c, 0, 74, 0
2, 77280, Note_on_c, 0, 73, 88
2, 77759, Note_off_c, 0, 73, 0
2, 77760, Note_on_c, 0, 70, 88
2, 78119, Note_off_c, 0, 70, 0
2, 78120, Note_on_c, 0, 69, 88
2, 78479, Note_off_c, 0, 69, 0
2, 78480, Note_on_c, 0, 67, 88
2, 78839, Note_off_c, 0, 67, 0
2, 78840, Note_on_c, 0, 65, 88
2, 79259, Note_off_c, 0, 65, 0
2, 79260, Note_on_c, 0, 64, 88
2, 79319, Note_off_c, 0, 64, 0
2, 79320, Note_on_c, 0, 62, 88
2, 79379, Note_off_c, 0, 62, 0
2, 79380, Note_on_c, 0, 61, 88
2, 79439, Note_off_c, 0, 61, 0
2, 79440, Note_on_c, 0, 62, 88
2, 79499, Note_off_c, 0, 62, 0
2, 79500, Note_on_c, 0, 65, 88
2, 79559, Note_off_c, 0, 65, 0
2, 79560, Note_on_c, 0, 71, 88
2, 79619, Note_off_c, 0, 71, 0
2, 79620, Note_on_c, 0, 65, 88
2, 79679, Note_off_c, 0, 65, 0
2, 79680, Note_on_c, 0, 64, 88
2, 79739, Note_off_c, 0, 64, 0
2, 79740, Note_on_c, 0, 62, 88
2, 79799, Note_off_c, 0, 62, 0
2, 79800, Note_on_c, 0, 61, 88
2, 79859, Note_off_c, 0, 61, 0
2, 79860, Note_on_c, 0, 59, 88
2, 79919, Note_off_c, 0, 59, 0
2, 79920, Note_on_c, 0, 61, 88
2, 82439, Note_off_c, 0, 61, 0
2, 82440, Note_on_c, 0, 78, 88
2, 82799, Note_off_c, 0, 78, 0
2, 82800, Note_on_c, 0, 78, 88
2, 82979, Note_off_c, 0, 78, 0
2, 82980, Note_on_c, 0, 76, 88
2, 83159, Note_off_c, 0, 76, 0
2, 83160, Note_on_c, 0, 76, 88
2, 83339, Note_off_c, 0, 76, 0
2, 83340, Note_on_c, 0, 74, 88
2, 83519, Note_off_c, 0, 74, 0
2, 83520, Note_on_c, 0, 74, 88
2, 83639, Note_off_c, 0, 74, 0
2, 83640, Note_on_c, 0, 62, 88
2, 83699, Note_off_c, 0, 62, 0
2, 83700, Note_on_c, 0, 64, 88
2, 83759, Note_off_c, 0, 64, 0
2, 83760, Note_on_c, 0, 66, 88
2, 83819, Note_off_c, 0, 66, 0
2, 83820, Note_on_c, 0, 67, 88
2, 83879, Note_off_c, 0, 67, 0
2, 83880, Note_on_c, 0, 69, 88
2, 83999, Note_off_c, 0, 69, 0
2, 84000, Note_on_c, 0, 66, 88
2, 84119, Note_off_c, 0, 66, 0
2, 84120, Note_on_c, 0, 69, 88
2, 84239, Note_off_c, 0, 69, 0
2, 84240, Note_on_c, 0, 72, 88
2, 84359, Note_off_c, 0, 72, 0
2, 84360, Note_on_c, 0, 69, 88
2, 84479, Note_off_c, 0, 69, 0
2, 84480, Note_on_c, 0, 72, 88
2, 84599, Note_off_c, 0, 72, 0
2, 84600, Note_on_c, 0, 78, 88
2, 84719, Note_off_c, 0, 78, 0
2, 84720, Note_on_c, 0, 72, 88
2, 84839, Note_off_c, 0, 72, 0
2, 84840, Note_on_c, 0, 78, 88
2, 84959, Note_off_c, 0, 78, 0
2, 84960, Note_on_c, 0, 81, 88
2, 85319, Note_off_c, 0, 81, 0
2, 85320, Note_on_c, 0, 72, 88
2, 85679, Note_off_c, 0, 72, 0
2, 85680, Note_on_c, 0, 72, 88
2, 85859, Note_off_c, 0, 72, 0
2, 85860, Note_on_c, 0, 71, 88
2, 86039, Note_off_c, 0, 71, 0
2, 86040, Note_on_c, 0, 71, 88
2, 86219, Note_off_c, 0, 71, 0
2, 86220, Note_on_c, 0, 69, 88
2, 86399, Note_off_c, 0, 69, 0
2, 86400, Note_on_c, 0, 71, 88
2, 86519, Note_off_c, 0, 71, 0
2, 86520, Note_on_c, 0, 83, 88
2, 86579, Note_off_c, 0, 83, 0
2, 86580, Note_on_c, 0, 81, 88
2, 86639, Note_off_c, 0, 81, 0
2, 86640, Note_on_c, 0, 79, 88
2, 86699, Note_off_c, 0, 79, 0
2, 86700, Note_on_c, 0, 78, 88
2, 86759, Note_off_c, 0, 78, 0
2, 86760, Note_on_c, 0, 76, 88
2, 86879, Note_off_c, 0, 76, 0
2, 86880, Note_on_c, 0, 79, 88
2, 86999, Note_off_c, 0, 79, 0
2, 87000, Note_on_c, 0, 76, 88
2, 87119, Note_off_c, 0, 76, 0
2, 87120, Note_on_c, 0, 73, 88
2, 87959, Note_off_c, 0, 73, 0
2, 87960, Note_on_c, 0, 81, 88
2, 88019, Note_off_c, 0, 81, 0
2, 88020, Note_on_c, 0, 79, 88
2, 88079, Note_off_c, 0, 79, 0
2, 88080, Note_on_c, 0, 78, 88
2, 88139, Note_off_c, 0, 78, 0
2, 88140, Note_on_c, 0, 76, 88
2, 88199, Note_off_c, 0, 76, 0
2, 88200, Note_on_c, 0, 74, 88
2, 88319, Note_off_c, 0, 74, 0
2, 88320, Note_on_c, 0, 78, 88
2, 88439, Note_off_c, 0, 78, 0
2, 88440, Note_on_c, 0, 74, 88
2, 88559, Note_off_c, 0, 74, 0
2, 88560, Note_on_c, 0, 71, 88
2, 89519, Note_off_c, 0, 71, 0
2, 89520, Note_on_c, 0, 71, 88
2, 89639, Note_off_c, 0, 71, 0
2, 89640, Note_on_c, 0, 71, 88
2, 89879, Note_off_c, 0, 71, 0
2, 89880, Note_on_c, 0, 71, 88
2, 89999, Note_off_c, 0, 71, 0
2, 90000, Note_on_c, 0, 69, 88
2, 91079, Note_off_c, 0, 69, 0
2, 91080, Note_on_c, 0, 74, 88
2, 91439, Note_off_c, 0, 74, 0
2, 91440, Note_on_c, 0, 71, 88
2, 91799, Note_off_c, 0, 71, 0
2, 91800, Note_on_c, 0, 76, 88
2, 92519, Note_off_c, 0, 76, 0
2, 92520, Note_on_c, 0, 74, 88
2, 92759, Note_off_c, 0, 74, 0
2, 92760, Note_on_c, 0, 72, 88
2, 92879, Note_off_c, 0, 72, 0
2, 92880, Note_on_c, 0, 71, 88
2, 93119, Note_off_c, 0, 71, 0
2, 93120, Note_on_c, 0, 69, 88
2, 93239, Note_off_c, 0, 69, 0
2, 93240, Note_on_c, 0, 67, 88
2, 93959, Note_off_c, 0, 67, 0
2, 93960, Note_on_c, 0, 67, 88
2, 94319, Note_off_c, 0, 67, 0
2, 94320, Note_on_c, 0, 73, 88
2, 94679, Note_off_c, 0, 73, 0
2, 94680, Note_on_c, 0, 76, 88
2, 95159, Note_off_c, 0, 76, 0
2, 95160, Note_on_c, 0, 74, 88
2, 95219, Note_off_c, 0, 74, 0
2, 95220, Note_on_c, 0, 73, 88
2, 95279, Note_off_c, 0, 73, 0
2, 95280, Note_on_c, 0, 71, 88
2, 95339, Note_off_c, 0, 71, 0
2, 95340, Note_on_c, 0, 69, 88
2, 95399, Note_off_c, 0, 69, 0
2, 95400, Note_on_c, 0, 68, 88
2, 95519, Note_off_c, 0, 68, 0
2, 95520, Note_on_c, 0, 71, 88
2, 95639, Note_off_c, 0, 71, 0
2, 95640, Note_on_c, 0, 68, 88
2, 95759, Note_off_c, 0, 68, 0
2, 95760, Note_on_c, 0, 62, 88
2, 95879, Note_off_c, 0, 62, 0
2, 95880, Note_on_c, 0, 68, 88
2, 95999, Note_off_c, 0, 68, 0
2, 96000, Note_on_c, 0, 62, 88
2, 96119, Note_off_c, 0, 62, 0
2, 96120, Note_on_c, 0, 59, 88
2, 96239, Note_off_c, 0, 59, 0
2, 96240, Note_on_c, 0, 62, 88
2, 96359, Note_off_c, 0, 62, 0
2, 96360, Note_on_c, 0, 59, 88
2, 96479, Note_off_c, 0, 59, 0
2, 96480, Note_on_c, 0, 61, 88
2, 96599, Note_off_c, 0, 61, 0
2, 96600, Note_on_c, 0, 59, 88
2, 96719, Note_off_c, 0, 59, 0
2, 96720, Note_on_c, 0, 57, 88
2, 96839, Note_off_c, 0, 57, 0
2, 96840, Note_on_c, 0, 62, 88
2, 97079, Note_off_c, 0, 62, 0
2, 97080, Note_on_c, 0, 67, 88
2, 97319, Note_off_c, 0, 67, 0
2, 97320, Note_on_c, 0, 66, 88
2, 97379, Note_off_c, 0, 66, 0
2, 97380, Note_on_c, 0, 64, 88
2, 97439, Note_off_c, 0, 64, 0
2, 97440, Note_on_c, 0, 66, 88
2, 97559, Note_off_c, 0, 66, 0
2, 97560, Note_on_c, 0, 64, 88
2, 97799, Note_off_c, 0, 64, 0
2, 97800, Note_on_c, 0, 69, 88
2, 97919, Note_off_c, 0, 69, 0
2, 97920, Note_on_c, 0, 66, 88
2, 97979, Note_off_c, 0, 66, 0
2, 97980, Note_on_c, 0, 69, 88
2, 98039, Note_off_c, 0, 69, 0
2, 98040, Note_on_c, 0, 71, 88
2, 98099, Note_off_c, 0, 71, 0
2, 98100, Note_on_c, 0, 73, 88
2, 98159, Note_off_c, 0, 73, 0
2, 98160, Note_on_c, 0, 74, 88
2, 98219, Note_off_c, 0, 74, 0
2, 98220, Note_on_c, 0, 76, 88
2, 98279, Note_off_c, 0, 76, 0
2, 98280, Note_on_c, 0, 78, 88
2, 98339, Note_off_c, 0, 78, 0
2, 98340, Note_on_c, 0, 76, 88
2, 98399, Note_off_c, 0, 76, 0
2, 98400, Note_on_c, 0, 74, 88
2, 98459, Note_off_c, 0, 74, 0
2, 98460, Note_on_c, 0, 73, 88
2, 98519, Note_off_c, 0, 73, 0
2, 98520, Note_on_c, 0, 71, 88
2, 98579, Note_off_c, 0, 71, 0
2, 98580, Note_on_c, 0, 69, 88
2, 98639, Note_off_c, 0, 69, 0
2, 98640, Note_on_c, 0, 68, 88
2, 98759, Note_off_c, 0, 68, 0
2, 98760, Note_on_c, 0, 71, 88
2, 98879, Note_off_c, 0, 71, 0
2, 98880, Note_on_c, 0, 76, 88
2, 98999, Note_off_c, 0, 76, 0
2, 99000, Note_on_c, 0, 76, 88
2, 99719, Note_off_c, 0, 76, 0
2, 99720, Note_on_c, 0, 74, 88
2, 99779, Note_off_c, 0, 74, 0
2, 99780, Note_on_c, 0, 73, 88
2, 99839, Note_off_c, 0, 73, 0
2, 99840, Note_on_c, 0, 71, 88
2, 99899, Note_off_c, 0, 71, 0
2, 99900, Note_on_c, 0, 69, 88
2, 99959, Note_off_c, 0, 69, 0
2, 99960, Note_on_c, 0, 67, 88
2, 100019, Note_off_c, 0, 67, 0
2, 100020, Note_on_c, 0, 66, 88
2, 100079, Note_off_c, 0, 66, 0
2, 100080, Note_on_c, 0, 64, 88
2, 100199, Note_off_c, 0, 64, 0
2, 100200, Note_on_c, 0, 67, 88
2, 100319, Note_off_c, 0, 67, 0
2, 100320, Note_on_c, 0, 72, 88
2, 100439, Note_off_c, 0, 72, 0
2, 100440, Note_on_c, 0, 72, 88
2, 101159, Note_off_c, 0, 72, 0
2, 101160, Note_on_c, 0, 71, 88
2, 101219, Note_off_c, 0, 71, 0
2, 101220, Note_on_c, 0, 69, 88
2, 101279, Note_off_c, 0, 69, 0
2, 101280, Note_on_c, 0, 67, 88
2, 101339, Note_off_c, 0, 67, 0
2, 101340, Note_on_c, 0, 66, 88
2, 101399, Note_off_c, 0, 66, 0
2, 101400, Note_on_c, 0, 64, 88
2, 101459, Note_off_c, 0, 64, 0
2, 101460, Note_on_c, 0, 62, 88
2, 101519, Note_off_c, 0, 62, 0
2, 101520, Note_on_c, 0, 61, 88
2, 101639, Note_off_c, 0, 61, 0
2, 101640, Note_on_c, 0, 64, 88
2, 101759, Note_off_c, 0, 64, 0
2, 101760, Note_on_c, 0, 69, 88
2, 101879, Note_off_c, 0, 69, 0
2, 101880, Note_on_c, 0, 66, 88
2, 101999, Note_off_c, 0, 66, 0
2, 102000, Note_on_c, 0, 69, 88
2, 102119, Note_off_c, 0, 69, 0
2, 102120, Note_on_c, 0, 74, 88
2, 102239, Note_off_c, 0, 74, 0
2, 102240, Note_on_c, 0, 67, 88
2, 102479, Note_off_c, 0, 67, 0
2, 102480, Note_on_c, 0, 76, 88
2, 102599, Note_off_c, 0, 76, 0
2, 102600, Note_on_c, 0, 69, 88
2, 102719, Note_off_c, 0, 69, 0
2, 102720, Note_on_c, 0, 74, 88
2, 102839, Note_off_c, 0, 74, 0
2, 102840, Note_on_c, 0, 73, 88
2, 102959, Note_off_c, 0, 73, 0
2, 102960, Note_on_c, 0, 74, 88
2, 103799, Note_off_c, 0, 74, 0
2, 103800, Note_on_c, 0, 76, 88
2, 103859, Note_off_c, 0, 76, 0
2, 103860, Note_on_c, 0, 74, 88
2, 103919, Note_off_c, 0, 74, 0
2, 103920, Note_on_c, 0, 73, 88
2, 103979, Note_off_c, 0, 73, 0
2, 103980, Note_on_c, 0, 71, 88
2, 104039, Note_off_c, 0, 71, 0
2, 104040, Note_on_c, 0, 69, 88
2, 104159, Note_off_c, 0, 69, 0
2, 104160, Note_on_c, 0, 73, 88
2, 104279, Note_off_c, 0, 73, 0
2, 104280, Note_on_c, 0, 69, 88
2, 104399, Note_off_c, 0, 69, 0
2, 104400, Note_on_c, 0, 64, 88
2, 104519, Note_off_c, 0, 64, 0
2, 104520, Note_on_c, 0, 69, 88
2, 104639, Note_off_c, 0, 69, 0
2, 104640, Note_on_c, 0, 64, 88
2, 104759, Note_off_c, 0, 64, 0
2, 104760, Note_on_c, 0, 61, 88
2, 104879, Note_off_c, 0, 61, 0
2, 104880, Note_on_c, 0, 64, 88
2, 104999, Note_off_c, 0, 64, 0
2, 105000, Note_on_c, 0, 61, 88
2, 105239, Note_off_c, 0, 61, 0
2, 105240, Note_on_c, 0, 69, 88
2, 105299, Note_off_c, 0, 69, 0
2, 105300, Note_on_c, 0, 71, 88
2, 105359, Note_off_c, 0, 71, 0
2, 105360, Note_on_c, 0, 73, 88
2, 105419, Note_off_c, 0, 73, 0
2, 105420, Note_on_c, 0, 74, 88
2, 105479, Note_off_c, 0, 74, 0
2, 105480, Note_on_c, 0, 76, 88
2, 105599, Note_off_c, 0, 76, 0
2, 105600, Note_on_c, 0, 73, 88
2, 105719, Note_off_c, 0, 73, 0
2, 105720, Note_on_c, 0, 76, 88
2, 105839, Note_off_c, 0, 76, 0
2, 105840, Note_on_c, 0, 81, 88
2, 105899, Note_off_c, 0, 81, 0
2, 105900, Note_on_c, 0, 76, 88
2, 105959, Note_off_c, 0, 76, 0
2, 105960, Note_on_c, 0, 78, 88
2, 106019, Note_off_c, 0, 78, 0
2, 106020, Note_on_c, 0, 80, 88
2, 106079, Note_off_c, 0, 80, 0
2, 106080, Note_on_c, 0, 81, 88
2, 106139, Note_off_c, 0, 81, 0
2, 106140, Note_on_c, 0, 80, 88
2, 106199, Note_off_c, 0, 80, 0
2, 106200, Note_on_c, 0, 81, 88
2, 106259, Note_off_c, 0, 81, 0
2, 106260, Note_on_c, 0, 76, 88
2, 106319, Note_off_c, 0, 76, 0
2, 106320, Note_on_c, 0, 78, 88
2, 106379, Note_off_c, 0, 78, 0
2, 106380, Note_on_c, 0, 80, 88
2, 106439, Note_off_c, 0, 80, 0
2, 106440, Note_on_c, 0, 81, 88
2, 106499, Note_off_c, 0, 81, 0
2, 106500, Note_on_c, 0, 80, 88
2, 106559, Note_off_c, 0, 80, 0
2, 106560, Note_on_c, 0, 81, 88
2, 106679, Note_off_c, 0, 81, 0
2, 106680, Note_on_c, 0, 80, 88
2, 106739, Note_off_c, 0, 80, 0
2, 106740, Note_on_c, 0, 78, 88
2, 106799, Note_off_c, 0, 78, 0
2, 106800, Note_on_c, 0, 76, 88
2, 106859, Note_off_c, 0, 76, 0
2, 106860, Note_on_c, 0, 74, 88
2, 106919, Note_off_c, 0, 74, 0
2, 106920, Note_on_c, 0, 73, 88
2, 106979, Note_off_c, 0, 73, 0
2, 106980, Note_on_c, 0, 74, 88
2, 107039, Note_off_c, 0, 74, 0
2, 107040, Note_on_c, 0, 76, 88
2, 107099, Note_off_c, 0, 76, 0
2, 107100, Note_on_c, 0, 74, 88
2, 107159, Note_off_c, 0, 74, 0
2, 107160, Note_on_c, 0, 73, 88
2, 107219, Note_off_c, 0, 73, 0
2, 107220, Note_on_c, 0, 71, 88
2, 107279, Note_off_c, 0, 71, 0
2, 107280, Note_on_c, 0, 71, 88
2, 107317, Note_off_c, 0, 71, 0
2, 107318, Note_on_c, 0, 69, 88
2, 107347, Note_off_c, 0, 69, 0
2, 107348, Note_on_c, 0, 71, 88
2, 107377, Note_off_c, 0, 71, 0
2, 107378, Note_on_c, 0, 69, 88
2, 107407, Note_off_c, 0, 69, 0
2, 107408, Note_on_c, 0, 71, 88
2, 107437, Note_off_c, 0, 71, 0
2, 107438, Note_on_c, 0, 69, 88
2, 107467, Note_off_c, 0, 69, 0
2, 107468, Note_on_c, 0, 71, 88
2, 107497, Note_off_c, 0, 71, 0
2, 107498, Note_on_c, 0, 69, 88
2, 107527, Note_off_c, 0, 69, 0
2, 107528, Note_on_c, 0, 71, 88
2, 107557, Note_off_c, 0, 71, 0
2, 107558, Note_on_c, 0, 69, 88
2, 107587, Note_off_c, 0, 69, 0
2, 107588, Note_on_c, 0, 71, 88
2, 107617, Note_off_c, 0, 71, 0
2, 107618, Note_on_c, 0, 69, 88
2, 107647, Note_off_c, 0, 69, 0
2, 107648, Note_on_c, 0, 71, 88
2, 107677, Note_off_c, 0, 71, 0
2, 107678, Note_on_c, 0, 69, 88
2, 107707, Note_off_c, 0, 69, 0
2, 107708, Note_on_c, 0, 71, 88
2, 107737, Note_off_c, 0, 71, 0
2, 107738, Note_on_c, 0, 69, 88
2, 107767, Note_off_c, 0, 69, 0
2, 107768, Note_on_c, 0, 71, 88
2, 107797, Note_off_c, 0, 71, 0
2, 107798, Note_on_c, 0, 69, 88
2, 107827, Note_off_c, 0, 69, 0
2, 107828, Note_on_c, 0, 71, 88
2, 107857, Note_off_c, 0, 71, 0
2, 107858, Note_on_c, 0, 69, 88
2, 107887, Note_off_c, 0, 69, 0
2, 107888, Note_on_c, 0, 71, 88
2, 107917, Note_off_c, 0, 71, 0
2, 107918, Note_on_c, 0, 69, 88
2, 107947, Note_off_c, 0, 69, 0
2, 107948, Note_on_c, 0, 71, 88
2, 107969, Note_off_c, 0, 71, 0
2, 107970, Note_on_c, 0, 69, 88
2, 107999, Note_off_c, 0, 69, 0
2, 108000, Note_on_c, 0, 69, 88
2, 108059, Note_off_c, 0, 69, 0
2, 108060, Note_on_c, 0, 71, 88
2, 108119, Note_off_c, 0, 71, 0
2, 108120, Note_on_c, 0, 69, 88
2, 108179, Note_off_c, 0, 69, 0
2, 108180, Note_on_c, 0, 68, 88
2, 108239, Note_off_c, 0, 68, 0
2, 108240, Note_on_c, 0, 69, 88
2, 108299, Note_off_c, 0, 69, 0
2, 108300, Note_on_c, 0, 64, 88
2, 108359, Note_off_c, 0, 64, 0
2, 108360, Note_on_c, 0, 61, 88
2, 108419, Note_off_c, 0, 61, 0
2, 108420, Note_on_c, 0, 66, 88
2, 108479, Note_off_c, 0, 66, 0
2, 108480, Note_on_c, 0, 64, 88
2, 108539, Note_off_c, 0, 64, 0
2, 108540, Note_on_c, 0, 62, 88
2, 108599, Note_off_c, 0, 62, 0
2, 108600, Note_on_c, 0, 64, 88
2, 108659, Note_off_c, 0, 64, 0
2, 108660, Note_on_c, 0, 61, 88
2, 108719, Note_off_c, 0, 61, 0
2, 108720, Note_on_c, 0, 59, 88
2, 108757, Note_off_c, 0, 59, 0
2, 108758, Note_on_c, 0, 57, 88
2, 108787, Note_off_c, 0, 57, 0
2, 108788, Note_on_c, 0, 59, 88
2, 108817, Note_off_c, 0, 59, 0
2, 108818, Note_on_c, 0, 57, 88
2, 108847, Note_off_c, 0, 57, 0
2, 108848, Note_on_c, 0, 59, 88
2, 108877, Note_off_c, 0, 59, 0
2, 108878, Note_on_c, 0, 57, 88
2, 108907, Note_off_c, 0, 57, 0
2, 108908, Note_on_c, 0, 59, 88
2, 108937, Note_off_c, 0, 59, 0
2, 108938, Note_on_c, 0, 57, 88
2, 108967, Note_off_c, 0, 57, 0
2, 108968, Note_on_c, 0, 59, 88
2, 108997, Note_off_c, 0, 59, 0
2, 108998, Note_on_c, 0, 57, 88
2, 109027, Note_off_c, 0, 57, 0
2, 109028, Note_on_c, 0, 59, 88
2, 109057, Note_off_c, 0, 59, 0
2, 109058, Note_on_c, 0, 57, 88
2, 109087, Note_off_c, 0, 57, 0
2, 109088, Note_on_c, 0, 59, 88
2, 109117, Note_off_c, 0, 59, 0
2, 109118, Note_on_c, 0, 57, 88
2, 109147, Note_off_c, 0, 57, 0
2, 109148, Note_on_c, 0, 59, 88
2, 109177, Note_off_c, 0, 59, 0
2, 109178, Note_on_c, 0, 57, 88
2, 109207, Note_off_c, 0, 57, 0
2, 109208, Note_on_c, 0, 59, 88
2, 109237, Note_off_c, 0, 59, 0
2, 109238, Note_on_c, 0, 57, 88
2, 109267, Note_off_c, 0, 57, 0
2, 109268, Note_on_c, 0, 59, 88
2, 109297, Note_off_c, 0, 59, 0
2, 109298, Note_on_c, 0, 57, 88
2, 109327, Note_off_c, 0, 57, 0
2, 109328, Note_on_c, 0, 59, 88
2, 109357, Note_off_c, 0, 59, 0
2, 109358, Note_on_c, 0, 57, 88
2, 109387, Note_off_c, 0, 57, 0
2, 109388, Note_on_c, 0, 59, 88
2, 109409, Note_off_c, 0, 59, 0
2, 109410, Note_on_c, 0, 57, 88
2, 109439, Note_off_c, 0, 57, 0
2, 109440, Note_on_c, 0, 57, 88
2, 110279, Note_off_c, 0, 57, 0
2, 110280, Note_on_c, 0, 76, 88
2, 110339, Note_off_c, 0, 76, 0
2, 110340, Note_on_c, 0, 74, 88
2, 110399, Note_off_c, 0, 74, 0
2, 110400, Note_on_c, 0, 73, 88
2, 110459, Note_off_c, 0, 73, 0
2, 110460, Note_on_c, 0, 71, 88
2, 110519, Note_off_c, 0, 71, 0
2, 110520, Note_on_c, 0, 69, 88
2, 110639, Note_off_c, 0, 69, 0
2, 110640, Note_on_c, 0, 76, 88
2, 110759, Note_off_c, 0, 76, 0
2, 110760, Note_on_c, 0, 67, 88
2, 110879, Note_off_c, 0, 67, 0
2, 110880, Note_on_c, 0, 66, 88
2, 111719, Note_off_c, 0, 66, 0
2, 111720, Note_on_c, 0, 81, 88
2, 111779, Note_off_c, 0, 81, 0
2, 111780, Note_on_c, 0, 79, 88
2, 111839, Note_off_c, 0, 79, 0
2, 111840, Note_on_c, 0, 78, 88
2, 111899, Note_off_c, 0, 78, 0
2, 111900, Note_on_c, 0, 76, 88
2, 111959, Note_off_c, 0, 76, 0
2, 111960, Note_on_c, 0, 74, 88
2, 112079, Note_off_c, 0, 74, 0
2, 112080, Note_on_c, 0, 81, 88
2, 112199, Note_off_c, 0, 81, 0
2, 112200, Note_on_c, 0, 72, 88
2, 112319, Note_off_c, 0, 72, 0
2, 112320, Note_on_c, 0, 71, 88
2, 113159, Note_off_c, 0, 71, 0
2, 113160, Note_on_c, 0, 73, 88
2, 113219, Note_off_c, 0, 73, 0
2, 113220, Note_on_c, 0, 71, 88
2, 113279, Note_off_c, 0, 71, 0
2, 113280, Note_on_c, 0, 70, 88
2, 113339, Note_off_c, 0, 70, 0
2, 113340, Note_on_c, 0, 71, 88
2, 113399, Note_off_c, 0, 71, 0
2, 113400, Note_on_c, 0, 73, 88
2, 113879, Note_off_c, 0, 73, 0
2, 113880, Note_on_c, 0, 74, 88
2, 113939, Note_off_c, 0, 74, 0
2, 113940, Note_on_c, 0, 73, 88
2, 113999, Note_off_c, 0, 73, 0
2, 114000, Note_on_c, 0, 71, 88
2, 114059, Note_off_c, 0, 71, 0
2, 114060, Note_on_c, 0, 73, 88
2, 114119, Note_off_c, 0, 73, 0
2, 114120, Note_on_c, 0, 74, 88
2, 114599, Note_off_c, 0, 74, 0
2, 114600, Note_on_c, 0, 76, 88
2, 114659, Note_off_c, 0, 76, 0
2, 114660, Note_on_c, 0, 74, 88
2, 114719, Note_off_c, 0, 74, 0
2, 114720, Note_on_c, 0, 73, 88
2, 114779, Note_off_c, 0, 73, 0
2, 114780, Note_on_c, 0, 74, 88
2, 114839, Note_off_c, 0, 74, 0
2, 114840, Note_on_c, 0, 76, 88
2, 115319, Note_off_c, 0, 76, 0
2, 115320, Note_on_c, 0, 79, 88
2, 115379, Note_off_c, 0, 79, 0
2, 115380, Note_on_c, 0, 78, 88
2, 115439, Note_off_c, 0, 78, 0
2, 115440, Note_on_c, 0, 76, 88
2, 115499, Note_off_c, 0, 76, 0
2, 115500, Note_on_c, 0, 75, 88
2, 115559, Note_off_c, 0, 75, 0
2, 115560, Note_on_c, 0, 76, 88
2, 115679, Note_off_c, 0, 76, 0
2, 115680, Note_on_c, 0, 79, 88
2, 115799, Note_off_c, 0, 79, 0
2, 115800, Note_on_c, 0, 75, 88
2, 115919, Note_off_c, 0, 75, 0
2, 115920, Note_on_c, 0, 76, 88
2, 116039, Note_off_c, 0, 76, 0
2, 116040, Note_on_c, 0, 79, 88
2, 116099, Note_off_c, 0, 79, 0
2, 116100, Note_on_c, 0, 78, 88
2, 116159, Note_off_c, 0, 78, 0
2, 116160, Note_on_c, 0, 76, 88
2, 116219, Note_off_c, 0, 76, 0
2, 116220, Note_on_c, 0, 75, 88
2, 116279, Note_off_c, 0, 75, 0
2, 116280, Note_on_c, 0, 76, 88
2, 116399, Note_off_c, 0, 76, 0
2, 116400, Note_on_c, 0, 78, 88
2, 116459, Note_off_c, 0, 78, 0
2, 116460, Note_on_c, 0, 76, 88
2, 116519, Note_off_c, 0, 76, 0
2, 116520, Note_on_c, 0, 75, 88
2, 116579, Note_off_c, 0, 75, 0
2, 116580, Note_on_c, 0, 73, 88
2, 116639, Note_off_c, 0, 73, 0
2, 116640, Note_on_c, 0, 75, 88
2, 117359, Note_off_c, 0, 75, 0
2, 117360, Note_on_c, 0, 78, 88
2, 118139, Note_off_c, 0, 78, 0
2, 118140, Note_on_c, 0, 71, 88
2, 118199, Note_off_c, 0, 71, 0
2, 118200, Note_on_c, 0, 73, 88
2, 118259, Note_off_c, 0, 73, 0
2, 118260, Note_on_c, 0, 75, 88
2, 118319, Note_off_c, 0, 75, 0
2, 118320, Note_on_c, 0, 76, 88
2, 118379, Note_off_c, 0, 76, 0
2, 118380, Note_on_c, 0, 78, 88
2, 118439, Note_off_c, 0, 78, 0
2, 118440, Note_on_c, 0, 79, 88
2, 118499, Note_off_c, 0, 79, 0
2, 118500, Note_on_c, 0, 78, 88
2, 118559, Note_off_c, 0, 78, 0
2, 118560, Note_on_c, 0, 76, 88
2, 118619, Note_off_c, 0, 76, 0
2, 118620, Note_on_c, 0, 74, 88
2, 118679, Note_off_c, 0, 74, 0
2, 118680, Note_on_c, 0, 73, 88
2, 118739, Note_off_c, 0, 73, 0
2, 118740, Note_on_c, 0, 71, 88
2, 118799, Note_off_c, 0, 71, 0
2, 118800, Note_on_c, 0, 76, 88
2, 118859, Note_off_c, 0, 76, 0
2, 118860, Note_on_c, 0, 74, 88
2, 118919, Note_off_c, 0, 74, 0
2, 118920, Note_on_c, 0, 73, 88
2, 118979, Note_off_c, 0, 73, 0
2, 118980, Note_on_c, 0, 71, 88
2, 119039, Note_off_c, 0, 71, 0
2, 119040, Note_on_c, 0, 69, 88
2, 119099, Note_off_c, 0, 69, 0
2, 119100, Note_on_c, 0, 68, 88
2, 119159, Note_off_c, 0, 68, 0
2, 119160, Note_on_c, 0, 73, 88
2, 119219, Note_off_c, 0, 73, 0
2, 119220, Note_on_c, 0, 71, 88
2, 119279, Note_off_c, 0, 71, 0
2, 119280, Note_on_c, 0, 69, 88
2, 119339, Note_off_c, 0, 69, 0
2, 119340, Note_on_c, 0, 67, 88
2, 119399, Note_off_c, 0, 67, 0
2, 119400, Note_on_c, 0, 66, 88
2, 119459, Note_off_c, 0, 66, 0
2, 119460, Note_on_c, 0, 64, 88
2, 119519, Note_off_c, 0, 64, 0
2, 119520, Note_on_c, 0, 66, 88
2, 119579, Note_off_c, 0, 66, 0
2, 119580, Note_on_c, 0, 69, 88
2, 119639, Note_off_c, 0, 69, 0
2, 119640, Note_on_c, 0, 71, 88
2, 119699, Note_off_c, 0, 71, 0
2, 119700, Note_on_c, 0, 73, 88
2, 119759, Note_off_c, 0, 73, 0
2, 119760, Note_on_c, 0, 74, 88
2, 119819, Note_off_c, 0, 74, 0
2, 119820, Note_on_c, 0, 76, 88
2, 119879, Note_off_c, 0, 76, 0
2, 119880, Note_on_c, 0, 78, 88
2, 119939, Note_off_c, 0, 78, 0
2, 119940, Note_on_c, 0, 76, 88
2, 119999, Note_off_c, 0, 76, 0
2, 120000, Note_on_c, 0, 74, 88
2, 120059, Note_off_c, 0, 74, 0
2, 120060, Note_on_c, 0, 73, 88
2, 120119, Note_off_c, 0, 73, 0
2, 120120, Note_on_c, 0, 71, 88
2, 120179, Note_off_c, 0, 71, 0
2, 120180, Note_on_c, 0, 69, 88
2, 120239, Note_off_c, 0, 69, 0
2, 120240, Note_on_c, 0, 68, 88
2, 120299, Note_off_c, 0, 68, 0
2, 120300, Note_on_c, 0, 71, 88
2, 120359, Note_off_c, 0, 71, 0
2, 120360, Note_on_c, 0, 76, 88
2, 120419, Note_off_c, 0, 76, 0
2, 120420, Note_on_c, 0, 74, 88
2, 120479, Note_off_c, 0, 74, 0
2, 120480, Note_on_c, 0, 76, 88
2, 120659, Note_off_c, 0, 76, 0
2, 120660, Note_on_c, 0, 70, 88
2, 120719, Note_off_c, 0, 70, 0
2, 120720, Note_on_c, 0, 73, 88
2, 120779, Note_off_c, 0, 73, 0
2, 120780, Note_on_c, 0, 74, 88
2, 120839, Note_off_c, 0, 74, 0
2, 120840, Note_on_c, 0, 76, 88
2, 121019, Note_off_c, 0, 76, 0
2, 121020, Note_on_c, 0, 66, 88
2, 121079, Note_off_c, 0, 66, 0
2, 121080, Note_on_c, 0, 68, 88
2, 121139, Note_off_c, 0, 68, 0
2, 121140, Note_on_c, 0, 70, 88
2, 121199, Note_off_c, 0, 70, 0
2, 121200, Note_on_c, 0, 71, 88
2, 121259, Note_off_c, 0, 71, 0
2, 121260, Note_on_c, 0, 73, 88
2, 121319, Note_off_c, 0, 73, 0
2, 121320, Note_on_c, 0, 74, 88
2, 121379, Note_off_c, 0, 74, 0
2, 121380, Note_on_c, 0, 73, 88
2, 121439, Note_off_c, 0, 73, 0
2, 121440, Note_on_c, 0, 71, 88
2, 121499, Note_off_c, 0, 71, 0
2, 121500, Note_on_c, 0, 69, 88
2, 121559, Note_off_c, 0, 69, 0
2, 121560, Note_on_c, 0, 67, 88
2, 121619, Note_off_c, 0, 67, 0
2, 121620, Note_on_c, 0, 66, 88
2, 121679, Note_off_c, 0, 66, 0
2, 121680, Note_on_c, 0, 71, 88
2, 121739, Note_off_c, 0, 71, 0
2, 121740, Note_on_c, 0, 69, 88
2, 121799, Note_off_c, 0, 69, 0
2, 121800, Note_on_c, 0, 67, 88
2, 121859, Note_off_c, 0, 67, 0
2, 121860, Note_on_c, 0, 66, 88
2, 121919, Note_off_c, 0, 66, 0
2, 121920, Note_on_c, 0, 64, 88
2, 121979, Note_off_c, 0, 64, 0
2, 121980, Note_on_c, 0, 62, 88
2, 122039, Note_off_c, 0, 62, 0
2, 122040, Note_on_c, 0, 67, 88
2, 122099, Note_off_c, 0, 67, 0
2, 122100, Note_on_c, 0, 66, 88
2, 122159, Note_off_c, 0, 66, 0
2, 122160, Note_on_c, 0, 64, 88
2, 122219, Note_off_c, 0, 64, 0
2, 122220, Note_on_c, 0, 62, 88
2, 122279, Note_off_c, 0, 62, 0
2, 122280, Note_on_c, 0, 61, 88
2, 122339, Note_off_c, 0, 61, 0
2, 122340, Note_on_c, 0, 64, 88
2, 122399, Note_off_c, 0, 64, 0
2, 122400, Note_on_c, 0, 58, 88
2, 122519, Note_off_c, 0, 58, 0
2, 122520, Note_on_c, 0, 79, 88
2, 122579, Note_off_c, 0, 79, 0
2, 122580, Note_on_c, 0, 78, 88
2, 122639, Note_off_c, 0, 78, 0
2, 122640, Note_on_c, 0, 76, 88
2, 122699, Note_off_c, 0, 76, 0
2, 122700, Note_on_c, 0, 74, 88
2, 122759, Note_off_c, 0, 74, 0
2, 122760, Note_on_c, 0, 73, 88
2, 122879, Note_off_c, 0, 73, 0
2, 122880, Note_on_c, 0, 76, 88
2, 122999, Note_off_c, 0, 76, 0
2, 123000, Note_on_c, 0, 73, 88
2, 123119, Note_off_c, 0, 73, 0
2, 123120, Note_on_c, 0, 70, 88
2, 123239, Note_off_c, 0, 70, 0
2, 123240, Note_on_c, 0, 73, 88
2, 123359, Note_off_c, 0, 73, 0
2, 123360, Note_on_c, 0, 70, 88
2, 123479, Note_off_c, 0, 70, 0
2, 123480, Note_on_c, 0, 64, 88
2, 123599, Note_off_c, 0, 64, 0
2, 123600, Note_on_c, 0, 70, 88
2, 123719, Note_off_c, 0, 70, 0
2, 123720, Note_on_c, 0, 64, 88
2, 123839, Note_off_c, 0, 64, 0
2, 123840, Note_on_c, 0, 62, 88
2, 124199, Note_off_c, 0, 62, 0
2, 124200, Note_on_c, 0, 71, 88
2, 124559, Note_off_c, 0, 71, 0
2, 124560, Note_on_c, 0, 74, 88
2, 124919, Note_off_c, 0, 74, 0
2, 124920, Note_on_c, 0, 77, 88
2, 125279, Note_off_c, 0, 77, 0
2, 125280, Note_on_c, 0, 78, 88
2, 125519, Note_off_c, 0, 78, 0
2, 125520, Note_on_c, 0, 76, 88
2, 125639, Note_off_c, 0, 76, 0
2, 125640, Note_on_c, 0, 74, 88
2, 125879, Note_off_c, 0, 74, 0
2, 125880, Note_on_c, 0, 79, 88
2, 125999, Note_off_c, 0, 79, 0
2, 126000, Note_on_c, 0, 74, 88
2, 126359, Note_off_c, 0, 74, 0
2, 126360, Note_on_c, 0, 74, 88
2, 126389, Note_off_c, 0, 74, 0
2, 126390, Note_on_c, 0, 73, 88
2, 126419, Note_off_c, 0, 73, 0
2, 126420, Note_on_c, 0, 74, 88
2, 126449, Note_off_c, 0, 74, 0
2, 126450, Note_on_c, 0, 73, 88
2, 126479, Note_off_c, 0, 73, 0
2, 126480, Note_on_c, 0, 71, 88
2, 126599, Note_off_c, 0, 71, 0
2, 126600, Note_on_c, 0, 73, 88
2, 126719, Note_off_c, 0, 73, 0
2, 126720, Note_on_c, 0, 71, 88
2, 126839, Note_off_c, 0, 71, 0
2, 126840, Note_on_c, 0, 74, 88
2, 126899, Note_off_c, 0, 74, 0
2, 126900, Note_on_c, 0, 73, 88
2, 126959, Note_off_c, 0, 73, 0
2, 126960, Note_on_c, 0, 71, 88
2, 127019, Note_off_c, 0, 71, 0
2, 127020, Note_on_c, 0, 69, 88
2, 127079, Note_off_c, 0, 69, 0
2, 127080, Note_on_c, 0, 67, 88
2, 127199, Note_off_c, 0, 67, 0
2, 127200, Note_on_c, 0, 71, 88
2, 127259, Note_off_c, 0, 71, 0
2, 127260, Note_on_c, 0, 69, 88
2, 127319, Note_off_c, 0, 69, 0
2, 127320, Note_on_c, 0, 67, 88
2, 127379, Note_off_c, 0, 67, 0
2, 127380, Note_on_c, 0, 66, 88
2, 127439, Note_off_c, 0, 66, 0
2, 127440, Note_on_c, 0, 64, 88
2, 127559, Note_off_c, 0, 64, 0
2, 127560, Note_on_c, 0, 67, 88
2, 127679, Note_off_c, 0, 67, 0
2, 127680, Note_on_c, 0, 72, 88
2, 127799, Note_off_c, 0, 72, 0
2, 127800, Note_on_c, 0, 72, 88
2, 128399, Note_off_c, 0, 72, 0
2, 128400, Note_on_c, 0, 71, 88
2, 128519, Note_off_c, 0, 71, 0
2, 128520, Note_on_c, 0, 71, 88
2, 129119, Note_off_c, 0, 71, 0
2, 129120, Note_on_c, 0, 69, 88
2, 129239, Note_off_c, 0, 69, 0
2, 129240, Note_on_c, 0, 69, 88
2, 129839, Note_off_c, 0, 69, 0
2, 129840, Note_on_c, 0, 67, 88
2, 129959, Note_off_c, 0, 67, 0
2, 129960, Note_on_c, 0, 67, 88
2, 130559, Note_off_c, 0, 67, 0
2, 130560, Note_on_c, 0, 66, 88
2, 130799, Note_off_c, 0, 66, 0
2, 130800, Note_on_c, 0, 66, 88
2, 130919, Note_off_c, 0, 66, 0
2, 130920, Note_on_c, 0, 72, 88
2, 131039, Note_off_c, 0, 72, 0
2, 131040, Note_on_c, 0, 71, 88
2, 131519, Note_off_c, 0, 71, 0
2, 131520, Note_on_c, 0, 73, 88
2, 131639, Note_off_c, 0, 73, 0
2, 131640, Note_on_c, 0, 74, 88
2, 131879, Note_off_c, 0, 74, 0
2, 131880, Note_on_c, 0, 71, 88
2, 131999, Note_off_c, 0, 71, 0
2, 132000, Note_on_c, 0, 73, 88
2, 132119, Note_off_c, 0, 73, 0
2, 132120, Note_on_c, 0, 76, 88
2, 132599, Note_off_c, 0, 76, 0
2, 132600, Note_on_c, 0, 73, 88
2, 132719, Note_off_c, 0, 73, 0
2, 132720, Note_on_c, 0, 74, 88
2, 132839, Note_off_c, 0, 74, 0
2, 132840, Note_on_c, 0, 79, 88
2, 133319, Note_off_c, 0, 79, 0
2, 133320, Note_on_c, 0, 78, 88
2, 133439, Note_off_c, 0, 78, 0
2, 133440, Note_on_c, 0, 76, 88
2, 133559, Note_off_c, 0, 76, 0
2, 133560, Note_on_c, 0, 78, 88
2, 134039, Note_off_c, 0, 78, 0
2, 134040, Note_on_c, 0, 76, 88
2, 134159, Note_off_c, 0, 76, 0
2, 134160, Note_on_c, 0, 74, 88
2, 134279, Note_off_c, 0, 74, 0
2, 134280, Note_on_c, 0, 76, 88
2, 134399, Note_off_c, 0, 76, 0
2, 134400, Note_on_c, 0, 73, 88
2, 134519, Note_off_c, 0, 73, 0
2, 134520, Note_on_c, 0, 74, 88
2, 134639, Note_off_c, 0, 74, 0
2, 134640, Note_on_c, 0, 74, 88
2, 134662, Note_off_c, 0, 74, 0
2, 134663, Note_on_c, 0, 73, 88
2, 134692, Note_off_c, 0, 73, 0
2, 134693, Note_on_c, 0, 74, 88
2, 134722, Note_off_c, 0, 74, 0
2, 134723, Note_on_c, 0, 73, 88
2, 134752, Note_off_c, 0, 73, 0
2, 134753, Note_on_c, 0, 74, 88
2, 134782, Note_off_c, 0, 74, 0
2, 134783, Note_on_c, 0, 73, 88
2, 134812, Note_off_c, 0, 73, 0
2, 134813, Note_on_c, 0, 74, 88
2, 134834, Note_off_c, 0, 74, 0
2, 134835, Note_on_c, 0, 73, 88
2, 134857, Note_off_c, 0, 73, 0
2, 134858, Note_on_c, 0, 74, 88
2, 134879, Note_off_c, 0, 74, 0
2, 134880, Note_on_c, 0, 73, 88
2, 135359, Note_off_c, 0, 73, 0
2, 135360, Note_on_c, 0, 70, 88
2, 135719, Note_off_c, 0, 70, 0
2, 135720, Note_on_c, 0, 69, 88
2, 136079, Note_off_c, 0, 69, 0
2, 136080, Note_on_c, 0, 67, 88
2, 136439, Note_off_c, 0, 67, 0
2, 136440, Note_on_c, 0, 65, 88
2, 136859, Note_off_c, 0, 65, 0
2, 136860, Note_on_c, 0, 64, 88
2, 136919, Note_off_c, 0, 64, 0
2, 136920, Note_on_c, 0, 62, 88
2, 136979, Note_off_c, 0, 62, 0
2, 136980, Note_on_c, 0, 61, 88
2, 137039, Note_off_c, 0, 61, 0
2, 137040, Note_on_c, 0, 62, 88
2, 137099, Note_off_c, 0, 62, 0
2, 137100, Note_on_c, 0, 65, 88
2, 137159, Note_off_c, 0, 65, 0
2, 137160, Note_on_c, 0, 71, 88
2, 137219, Note_off_c, 0, 71, 0
2, 137220, Note_on_c, 0, 65, 88
2, 137279, Note_off_c, 0, 65, 0
2, 137280, Note_on_c, 0, 64, 88
2, 137339, Note_off_c, 0, 64, 0
2, 137340, Note_on_c, 0, 62, 88
2, 137399, Note_off_c, 0, 62, 0
2, 137400, Note_on_c, 0, 61, 88
2, 137459, Note_off_c, 0, 61, 0
2, 137460, Note_on_c, 0, 59, 88
2, 137519, Note_off_c, 0, 59, 0
2, 137520, Note_on_c, 0, 61, 88
2, 140039, Note_off_c, 0, 61, 0
2, 140040, Note_on_c, 0, 78, 88
2, 140399, Note_off_c, 0, 78, 0
2, 140400, Note_on_c, 0, 78, 88
2, 140579, Note_off_c, 0, 78, 0
2, 140580, Note_on_c, 0, 76, 88
2, 140759, Note_off_c, 0, 76, 0
2, 140760, Note_on_c, 0, 76, 88
2, 140939, Note_off_c, 0, 76, 0
2, 140940, Note_on_c, 0, 74, 88
2, 141119, Note_off_c, 0, 74, 0
2, 141120, Note_on_c, 0, 74, 88
2, 141239, Note_off_c, 0, 74, 0
2, 141240, Note_on_c, 0, 62, 88
2, 141299, Note_off_c, 0, 62, 0
2, 141300, Note_on_c, 0, 64, 88
2, 141359, Note_off_c, 0, 64, 0
2, 141360, Note_on_c, 0, 66, 88
2, 141419, Note_off_c, 0, 66, 0
2, 141420, Note_on_c, 0, 67, 88
2, 141479, Note_off_c, 0, 67, 0
2, 141480, Note_on_c, 0, 69, 88
2, 141599, Note_off_c, 0, 69, 0
2, 141600, Note_on_c, 0, 66, 88
2, 141719, Note_off_c, 0, 66, 0
2, 141720, Note_on_c, 0, 69, 88
2, 141839, Note_off_c, 0, 69, 0
2, 141840, Note_on_c, 0, 72, 88
2, 141959, Note_off_c, 0, 72, 0
2, 141960, Note_on_c, 0, 69, 88
2, 142079, Note_off_c, 0, 69, 0
2, 142080, Note_on_c, 0, 72, 88
2, 142199, Note_off_c, 0, 72, 0
2, 142200, Note_on_c, 0, 78, 88
2, 142319, Note_off_c, 0, 78, 0
2, 142320, Note_on_c, 0, 72, 88
2, 142439, Note_off_c, 0, 72, 0
2, 142440, Note_on_c, 0, 78, 88
2, 142559, Note_off_c, 0, 78, 0
2, 142560, Note_on_c, 0, 81, 88
2, 142919, Note_off_c, 0, 81, 0
2, 142920, Note_on_c, 0, 72, 88
2, 143279, Note_off_c, 0, 72, 0
2, 143280, Note_on_c, 0, 72, 88
2, 143459, Note_off_c, 0, 72, 0
2, 143460, Note_on_c, 0, 71, 88
2, 143639, Note_off_c, 0, 71, 0
2, 143640, Note_on_c, 0, 71, 88
2, 143819, Note_off_c, 0, 71, 0
2, 143820, Note_on_c, 0, 69, 88
2, 143999, Note_off_c, 0, 69, 0
2, 144000, Note_on_c, 0, 71, 88
2, 144119, Note_off_c, 0, 71, 0
2, 144120, Note_on_c, 0, 83, 88
2, 144179, Note_off_c, 0, 83, 0
2, 144180, Note_on_c, 0, 81, 88
2, 144239, Note_off_c, 0, 81, 0
2, 144240, Note_on_c, 0, 79, 88
2, 144299, Note_off_c, 0, 79, 0
2, 144300, Note_on_c, 0, 78, 88
2, 144359, Note_off_c, 0, 78, 0
2, 144360, Note_on_c, 0, 76, 88
2, 144479, Note_off_c, 0, 76, 0
2, 144480, Note_on_c, 0, 79, 88
2, 144599, Note_off_c, 0, 79, 0
2, 144600, Note_on_c, 0, 76, 88
2, 144719, Note_off_c, 0, 76, 0
2, 144720, Note_on_c, 0, 73, 88
2, 145559, Note_off_c, 0, 73, 0
2, 145560, Note_on_c, 0, 81, 88
2, 145619, Note_off_c, 0, 81, 0
2, 145620, Note_on_c, 0, 79, 88
2, 145679, Note_off_c, 0, 79, 0
2, 145680, Note_on_c, 0, 78, 88
2, 145739, Note_off_c, 0, 78, 0
2, 145740, Note_on_c, 0, 76, 88
2, 145799, Note_off_c, 0, 76, 0
2, 145800, Note_on_c, 0, 74, 88
2, 145919, Note_off_c, 0, 74, 0
2, 145920, Note_on_c, 0, 78, 88
2, 146039, Note_off_c, 0, 78, 0
2, 146040, Note_on_c, 0, 74, 88
2, 146159, Note_off_c, 0, 74, 0
2, 146160, Note_on_c, 0, 71, 88
2, 147119, Note_off_c, 0, 71, 0
2, 147120, Note_on_c, 0, 71, 88
2, 147239, Note_off_c, 0, 71, 0
2, 147240, Note_on_c, 0, 71, 88
2, 147479, Note_off_c, 0, 71, 0
2, 147480, Note_on_c, 0, 71, 88
2, 147599, Note_off_c, 0, 71, 0
2, 147600, Note_on_c, 0, 69, 88
2, 148679, Note_off_c, 0, 69, 0
2, 148680, Note_on_c, 0, 74, 88
2, 149039, Note_off_c, 0, 74, 0
2, 149040, Note_on_c, 0, 71, 88
2, 149399, Note_off_c, 0, 71, 0
2, 149400, Note_on_c, 0, 76, 88
2, 150119, Note_off_c, 0, 76, 0
2, 150120, Note_on_c, 0, 74, 88
2, 150359, Note_off_c, 0, 74, 0
2, 150360, Note_on_c, 0, 72, 88
2, 150479, Note_off_c, 0, 72, 0
2, 150480, Note_on_c, 0, 71, 88
2, 150719, Note_off_c, 0, 71, 0
2, 150720, Note_on_c, 0, 69, 88
2, 150839, Note_off_c, 0, 69, 0
2, 150840, Note_on_c, 0, 67, 88
2, 151559, Note_off_c, 0, 67, 0
2, 151560, Note_on_c, 0, 67, 88
2, 151919, Note_off_c, 0, 67, 0
2, 151920, Note_on_c, 0, 73, 88
2, 152279, Note_off_c, 0, 73, 0
2, 152280, Note_on_c, 0, 76, 88
2, 152759, Note_off_c, 0, 76, 0
2, 152760, Note_on_c, 0, 74, 88
2, 152819, Note_off_c, 0, 74, 0
2, 152820, Note_on_c, 0, 73, 88
2, 152879, Note_off_c, 0, 73, 0
2, 152880, Note_on_c, 0, 71, 88
2, 152939, Note_off_c, 0, 71, 0
2, 152940, Note_on_c, 0, 69, 88
2, 152999, Note_off_c, 0, 69, 0
2, 153000, Note_on_c, 0, 68, 88
2, 153119, Note_off_c, 0, 68, 0
2, 153120, Note_on_c, 0, 71, 88
2, 153239, Note_off_c, 0, 71, 0
2, 153240, Note_on_c, 0, 68, 88
2, 153359, Note_off_c, 0, 68, 0
2, 153360, Note_on_c, 0, 62, 88
2, 153479, Note_off_c, 0, 62, 0
2, 153480, Note_on_c, 0, 68, 88
2, 153599, Note_off_c, 0, 68, 0
2, 153600, Note_on_c, 0, 62, 88
2, 153719, Note_off_c, 0, 62, 0
2, 153720, Note_on_c, 0, 59, 88
2, 153839, Note_off_c, 0, 59, 0
2, 153840, Note_on_c, 0, 62, 88
2, 153959, Note_off_c, 0, 62, 0
2, 153960, Note_on_c, 0, 59, 88
2, 154079, Note_off_c, 0, 59, 0
2, 154080, Note_on_c, 0, 61, 88
2, 154199, Note_off_c, 0, 61, 0
2, 154200, Note_on_c, 0, 59, 88
2, 154319, Note_off_c, 0, 59, 0
2, 154320, Note_on_c, 0, 57, 88
2, 154439, Note_off_c, 0, 57, 0
2, 154440, Note_on_c, 0, 62, 88
2, 154679, Note_off_c, 0, 62, 0
2, 154680, Note_on_c, 0, 67, 88
2, 154919, Note_off_c, 0, 67, 0
2, 154920, Note_on_c, 0, 66, 88
2, 154979, Note_off_c, 0, 66, 0
2, 154980, Note_on_c, 0, 64, 88
2, 155039, Note_off_c, 0, 64, 0
2, 155040, Note_on_c, 0, 66, 88
2, 155159, Note_off_c, 0, 66, 0
2, 155160, Note_on_c, 0, 64, 88
2, 155399, Note_off_c, 0, 64, 0
2, 155400, Note_on_c, 0, 69, 88
2, 155519, Note_off_c, 0, 69, 0
2, 155520, Note_on_c, 0, 66, 88
2, 155579, Note_off_c, 0, 66, 0
2, 155580, Note_on_c, 0, 69, 88
2, 155639, Note_off_c, 0, 69, 0
2, 155640, Note_on_c, 0, 71, 88
2, 155699, Note_off_c, 0, 71, 0
2, 155700, Note_on_c, 0, 73, 88
2, 155759, Note_off_c, 0, 73, 0
2, 155760, Note_on_c, 0, 74, 88
2, 155819, Note_off_c, 0, 74, 0
2, 155820, Note_on_c, 0, 76, 88
2, 155879, Note_off_c, 0, 76, 0
2, 155880, Note_on_c, 0, 78, 88
2, 155939, Note_off_c, 0, 78, 0
2, 155940, Note_on_c, 0, 76, 88
2, 155999, Note_off_c, 0, 76, 0
2, 156000, Note_on_c, 0, 74, 88
2, 156059, Note_off_c, 0, 74, 0
2, 156060, Note_on_c, 0, 73, 88
2, 156119, Note_off_c, 0, 73, 0
2, 156120, Note_on_c, 0, 71, 88
2, 156179, Note_off_c, 0, 71, 0
2, 156180, Note_on_c, 0, 69, 88
2, 156239, Note_off_c, 0, 69, 0
2, 156240, Note_on_c, 0, 68, 88
2, 156359, Note_off_c, 0, 68, 0
2, 156360, Note_on_c, 0, 71, 88
2, 156479, Note_off_c, 0, 71, 0
2, 156480, Note_on_c, 0, 76, 88
2, 156599, Note_off_c, 0, 76, 0
2, 156600, Note_on_c, 0, 76, 88
2, 157319, Note_off_c, 0, 76, 0
2, 157320, Note_on_c, 0, 74, 88
2, 157379, Note_off_c, 0, 74, 0
2, 157380, Note_on_c, 0, 73, 88
2, 157439, Note_off_c, 0, 73, 0
2, 157440, Note_on_c, 0, 71, 88
2, 157499, Note_off_c, 0, 71, 0
2, 157500, Note_on_c, 0, 69, 88
2, 157559, Note_off_c, 0, 69, 0
2, 157560, Note_on_c, 0, 67, 88
2, 157619, Note_off_c, 0, 67, 0
2, 157620, Note_on_c, 0, 66, 88
2, 157679, Note_off_c, 0, 66, 0
2, 157680, Note_on_c, 0, 64, 88
2, 157799, Note_off_c, 0, 64, 0
2, 157800, Note_on_c, 0, 67, 88
2, 157919, Note_off_c, 0, 67, 0
2, 157920, Note_on_c, 0, 72, 88
2, 158039, Note_off_c, 0, 72, 0
2, 158040, Note_on_c, 0, 72, 88
2, 158759, Note_off_c, 0, 72, 0
2, 158760, Note_on_c, 0, 71, 88
2, 158819, Note_off_c, 0, 71, 0
2, 158820, Note_on_c, 0, 69, 88
2, 158879, Note_off_c, 0, 69, 0
2, 158880, Note_on_c, 0, 67, 88
2, 158939, Note_off_c, 0, 67, 0
2, 158940, Note_on_c, 0, 66, 88
2, 158999, Note_off_c, 0, 66, 0
2, 159000, Note_on_c, 0, 64, 88
2, 159059, Note_off_c, 0, 64, 0
2, 159060, Note_on_c, 0, 62, 88
2, 159119, Note_off_c, 0, 62, 0
2, 159120, Note_on_c, 0, 61, 88
2, 159239, Note_off_c, 0, 61, 0
2, 159240, Note_on_c, 0, 64, 88
2, 159359, Note_off_c, 0, 64, 0
2, 159360, Note_on_c, 0, 69, 88
2, 159479, Note_off_c, 0, 69, 0
2, 159480, Note_on_c, 0, 66, 88
2, 159599, Note_off_c, 0, 66, 0
2, 159600, Note_on_c, 0, 69, 88
2, 159719, Note_off_c, 0, 69, 0
2, 159720, Note_on_c, 0, 74, 88
2, 159839, Note_off_c, 0, 74, 0
2, 159840, Note_on_c, 0, 67, 88
2, 160079, Note_off_c, 0, 67, 0
2, 160080, Note_on_c, 0, 76, 88
2, 160199, Note_off_c, 0, 76, 0
2, 160200, Note_on_c, 0, 69, 88
2, 160319, Note_off_c, 0, 69, 0
2, 160320, Note_on_c, 0, 74, 88
2, 160439, Note_off_c, 0, 74, 0
2, 160440, Note_on_c, 0, 73, 88
2, 160559, Note_off_c, 0, 73, 0
2, 160560, Note_on_c, 0, 74, 88
2, 160600, Note_off_c, 0, 74, 0
2, 160600, End_track
0, 0, End_of_file