0, 0, Header, 1, 2, 240
1, 0, Start_track
1, 0, Time_signature, 4, 2, 24, 8
1, 0, Tempo, 1224489
1, 0, SMPTE_offset, 64, 0, 0, 0, 100
1, 0, End_track
2, 0, Start_track
2, 0, Title_t, "Track 1"
2, 0, Program_c, 0, 6
2, 0, Note_on_c, 0, 65, 88
2, 59, Note_off_c, 0, 65, 0
2, 60, Note_on_c, 0, 68, 88
2, 119, Note_off_c, 0, 68, 0
2, 120, Note_on_c, 0, 72, 88
2, 179, Note_off_c, 0, 72, 0
2, 180, Note_on_c, 0, 77, 88
2, 239, Note_off_c, 0, 77, 0
2, 240, Note_on_c, 0, 67, 88
2, 299, Note_off_c, 0, 67, 0
2, 300, Note_on_c, 0, 77, 88
2, 359, Note_off_c, 0, 77, 0
2, 360, Note_on_c, 0, 76, 88
2, 419, Note_off_c, 0, 76, 0
2, 420, Note_on_c, 0, 79, 88
2, 479, Note_off_c, 0, 79, 0
2, 480, Note_on_c, 0, 68, 88
2, 539, Note_off_c, 0, 68, 0
2, 540, Note_on_c, 0, 72, 88
2, 599, Note_off_c, 0, 72, 0
2, 600, Note_on_c, 0, 77, 88
2, 659, Note_off_c, 0, 77, 0
2, 660, Note_on_c, 0, 76, 88
2, 719, Note_off_c, 0, 76, 0
2, 720, Note_on_c, 0, 77, 88
2, 959, Note_off_c, 0, 77, 0
2, 960, Note_on_c, 0, 73, 88
2, 1259, Note_off_c, 0, 73, 0
2, 1260, Note_on_c, 0, 73, 88
2, 1319, Note_off_c, 0, 73, 0
2, 1320, Note_on_c, 0, 72, 88
2, 1379, Note_off_c, 0, 72, 0
2, 1380, Note_on_c, 0, 70, 88
2, 1439, Note_off_c, 0, 70, 0
2, 1440, Note_on_c, 0, 68, 88
2, 1619, Note_off_c, 0, 68, 0
2, 1620, Note_on_c, 0, 70, 88
2, 1679, Note_off_c, 0, 70, 0
2, 1680, Note_on_c, 0, 72, 88
2, 1705, Note_off_c, 0, 72, 0
2, 1706, Note_on_c, 0, 70, 88
2, 1724, Note_off_c, 0, 70, 0
2, 1725, Note_on_c, 0, 72, 88
2, 1743, Note_off_c, 0, 72, 0
2, 1744, Note_on_c, 0, 70, 88
2, 1762, Note_off_c, 0, 70, 0
2, 1763, Note_on_c, 0, 72, 88
2, 1780, Note_off_c, 0, 72, 0
2, 1781, Note_on_c, 0, 70, 88
2, 1795, Note_off_c, 0, 70, 0
2, 1796, Note_on_c, 0, 72, 88
2, 1810, Note_off_c, 0, 72, 0
2, 1811, Note_on_c, 0, 70, 88
2, 1825, Note_off_c, 0, 70, 0
2, 1826, Note_on_c, 0, 72, 88
2, 1840, Note_off_c, 0, 72, 0
2, 1841, Note_on_c, 0, 70, 88
2, 1859, Note_off_c, 0, 70, 0
2, 1860, Note_on_c, 0, 68, 88
2, 1889, Note_off_c, 0, 68, 0
2, 1890, Note_on_c, 0, 70, 88
2, 1919, Note_off_c, 0, 70, 0
2, 1920, Note_on_c, 0, 72, 88
2, 2219, Note_off_c, 0, 72, 0
2, 2220, Note_on_c, 0, 73, 88
2, 2279, Note_off_c, 0, 73, 0
2, 2280, Note_on_c, 0, 67, 88
2, 2339, Note_off_c, 0, 67, 0
2, 2340, Note_on_c, 0, 70, 88
2, 2399, Note_off_c, 0, 70, 0
2, 2400, Note_on_c, 0, 64, 88
2, 2579, Note_off_c, 0, 64, 0
2, 2580, Note_on_c, 0, 65, 88
2, 2639, Note_off_c, 0, 65, 0
2, 2640, Note_on_c, 0, 67, 88
2, 2665, Note_off_c, 0, 67, 0
2, 2666, Note_on_c, 0, 65, 88
2, 2684, Note_off_c, 0, 65, 0
2, 2685, Note_on_c, 0, 67, 88
2, 2703, Note_off_c, 0, 67, 0
2, 2704, Note_on_c, 0, 65, 88
2, 2722, Note_off_c, 0, 65, 0
2, 2723, Note_on_c, 0, 67, 88
2, 2740, Note_off_c, 0, 67, 0
2, 2741, Note_on_c, 0, 65, 88
2, 2755, Note_off_c, 0, 65, 0
2, 2756, Note_on_c, 0, 67, 88
2, 2770, Note_off_c, 0, 67, 0
2, 2771, Note_on_c, 0, 65, 88
2, 2785, Note_off_c, 0, 65, 0
2, 2786, Note_on_c, 0, 67, 88
2, 2800, Note_off_c, 0, 67, 0
2, 2801, Note_on_c, 0, 65, 88
2, 2819, Note_off_c, 0, 65, 0
2, 2820, Note_on_c, 0, 64, 88
2, 2849, Note_off_c, 0, 64, 0
2, 2850, Note_on_c, 0, 65, 88
2, 2879, Note_off_c, 0, 65, 0
2, 2880, Note_on_c, 0, 67, 88
2, 2939, Note_off_c, 0, 67, 0
2, 2940, Note_on_c, 0, 72, 88
2, 2999, Note_off_c, 0, 72, 0
2, 3000, Note_on_c, 0, 70, 88
2, 3059, Note_off_c, 0, 70, 0
2, 3060, Note_on_c, 0, 73, 88
2, 3179, Note_off_c, 0, 73, 0
2, 3180, Note_on_c, 0, 73, 88
2, 3239, Note_off_c, 0, 73, 0
2, 3240, Note_on_c, 0, 72, 88
2, 3299, Note_off_c, 0, 72, 0
2, 3300, Note_on_c, 0, 70, 88
2, 3359, Note_off_c, 0, 70, 0
2, 3360, Note_on_c, 0, 69, 88
2, 3539, Note_off_c, 0, 69, 0
2, 3540, Note_on_c, 0, 70, 88
2, 3599, Note_off_c, 0, 70, 0
2, 3600, Note_on_c, 0, 72, 88
2, 3625, Note_off_c, 0, 72, 0
2, 3626, Note_on_c, 0, 70, 88
2, 3644, Note_off_c, 0, 70, 0
2, 3645, Note_on_c, 0, 72, 88
2, 3663, Note_off_c, 0, 72, 0
2, 3664, Note_on_c, 0, 70, 88
2, 3682, Note_off_c, 0, 70, 0
2, 3683, Note_on_c, 0, 72, 88
2, 3700, Note_off_c, 0, 72, 0
2, 3701, Note_on_c, 0, 70, 88
2, 3715, Note_off_c, 0, 70, 0
2, 3716, Note_on_c, 0, 72, 88
2, 3730, Note_off_c, 0, 72, 0
2, 3731, Note_on_c, 0, 70, 88
2, 3745, Note_off_c, 0, 70, 0
2, 3746, Note_on_c, 0, 72, 88
2, 3760, Note_off_c, 0, 72, 0
2, 3761, Note_on_c, 0, 70, 88
2, 3779, Note_off_c, 0, 70, 0
2, 3780, Note_on_c, 0, 69, 88
2, 3809, Note_off_c, 0, 69, 0
2, 3810, Note_on_c, 0, 70, 88
2, 3839, Note_off_c, 0, 70, 0
2, 3840, Note_on_c, 0, 72, 88
2, 4379, Note_off_c, 0, 72, 0
2, 4380, Note_on_c, 0, 72, 88
2, 4439, Note_off_c, 0, 72, 0
2, 4440, Note_on_c, 0, 70, 88
2, 4499, Note_off_c, 0, 70, 0
2, 4500, Note_on_c, 0, 73, 88
2, 4559, Note_off_c, 0, 73, 0
2, 4560, Note_on_c, 0, 67, 88
2, 4679, Note_off_c, 0, 67, 0
2, 4680, Note_on_c, 0, 70, 88
2, 4694, Note_off_c, 0, 70, 0
2, 4695, Note_on_c, 0, 68, 88
2, 4709, Note_off_c, 0, 68, 0
2, 4710, Note_on_c, 0, 70, 88
2, 4724, Note_off_c, 0, 70, 0
2, 4725, Note_on_c, 0, 68, 88
2, 4739, Note_off_c, 0, 68, 0
2, 4740, Note_on_c, 0, 70, 88
2, 4754, Note_off_c, 0, 70, 0
2, 4755, Note_on_c, 0, 68, 88
2, 4769, Note_off_c, 0, 68, 0
2, 4770, Note_on_c, 0, 67, 88
2, 4784, Note_off_c, 0, 67, 0
2, 4785, Note_on_c, 0, 68, 88
2, 4799, Note_off_c, 0, 68, 0
2, 4800, Note_on_c, 0, 70, 88
2, 5339, Note_off_c, 0, 70, 0
2, 5340, Note_on_c, 0, 68, 88
2, 5399, Note_off_c, 0, 68, 0
2, 5400, Note_on_c, 0, 72, 88
2, 5579, Note_off_c, 0, 72, 0
2, 5580, Note_on_c, 0, 70, 88
2, 5639, Note_off_c, 0, 70, 0
2, 5640, Note_on_c, 0, 73, 88
2, 5819, Note_off_c, 0, 73, 0
2, 5820, Note_on_c, 0, 72, 88
2, 5879, Note_off_c, 0, 72, 0
2, 5880, Note_on_c, 0, 75, 88
2, 6059, Note_off_c, 0, 75, 0
2, 6060, Note_on_c, 0, 73, 88
2, 6119, Note_off_c, 0, 73, 0
2, 6120, Note_on_c, 0, 77, 88
2, 6299, Note_off_c, 0, 77, 0
2, 6300, Note_on_c, 0, 75, 88
2, 6359, Note_off_c, 0, 75, 0
2, 6360, Note_on_c, 0, 73, 88
2, 6419, Note_off_c, 0, 73, 0
2, 6420, Note_on_c, 0, 72, 88
2, 6479, Note_off_c, 0, 72, 0
2, 6480, Note_on_c, 0, 70, 88
2, 6539, Note_off_c, 0, 70, 0
2, 6540, Note_on_c, 0, 67, 88
2, 6599, Note_off_c, 0, 67, 0
2, 6600, Note_on_c, 0, 68, 88
2, 6659, Note_off_c, 0, 68, 0
2, 6660, Note_on_c, 0, 73, 88
2, 6719, Note_off_c, 0, 73, 0
2, 6720, Note_on_c, 0, 72, 88
2, 6742, Note_off_c, 0, 72, 0
2, 6743, Note_on_c, 0, 70, 88
2, 6760, Note_off_c, 0, 70, 0
2, 6761, Note_on_c, 0, 72, 88
2, 6779, Note_off_c, 0, 72, 0
2, 6780, Note_on_c, 0, 70, 88
2, 6794, Note_off_c, 0, 70, 0
2, 6795, Note_on_c, 0, 72, 88
2, 6809, Note_off_c, 0, 72, 0
2, 6810, Note_on_c, 0, 70, 88
2, 6824, Note_off_c, 0, 70, 0
2, 6825, Note_on_c, 0, 68, 88
2, 6839, Note_off_c, 0, 68, 0
2, 6840, Note_on_c, 0, 70, 88
2, 7019, Note_off_c, 0, 70, 0
2, 7020, Note_on_c, 0, 63, 88
2, 7079, Note_off_c, 0, 63, 0
2, 7080, Note_on_c, 0, 65, 88
2, 7139, Note_off_c, 0, 65, 0
2, 7140, Note_on_c, 0, 67, 88
2, 7199, Note_off_c, 0, 67, 0
2, 7200, Note_on_c, 0, 68, 88
2, 7259, Note_off_c, 0, 68, 0
2, 7260, Note_on_c, 0, 67, 88
2, 7319, Note_off_c, 0, 67, 0
2, 7320, Note_on_c, 0, 68, 88
2, 7379, Note_off_c, 0, 68, 0
2, 7380, Note_on_c, 0, 77, 88
2, 7439, Note_off_c, 0, 77, 0
2, 7440, Note_on_c, 0, 75, 88
2, 7619, Note_off_c, 0, 75, 0
2, 7620, Note_on_c, 0, 73, 88
2, 7679, Note_off_c, 0, 73, 0
2, 7680, Note_on_c, 0, 72, 88
2, 7739, Note_off_c, 0, 72, 0
2, 7740, Note_on_c, 0, 68, 88
2, 7799, Note_off_c, 0, 68, 0
2, 7800, Note_on_c, 0, 72, 88
2, 7859, Note_off_c, 0, 72, 0
2, 7860, Note_on_c, 0, 76, 88
2, 7919, Note_off_c, 0, 76, 0
2, 7920, Note_on_c, 0, 77, 88
2, 7979, Note_off_c, 0, 77, 0
2, 7980, Note_on_c, 0, 79, 88
2, 8039, Note_off_c, 0, 79, 0
2, 8040, Note_on_c, 0, 76, 88
2, 8099, Note_off_c, 0, 76, 0
2, 8100, Note_on_c, 0, 77, 88
2, 8159, Note_off_c, 0, 77, 0
2, 8160, Note_on_c, 0, 79, 88
2, 8699, Note_off_c, 0, 79, 0
2, 8700, Note_on_c, 0, 72, 88
2, 8759, Note_off_c, 0, 72, 0
2, 8760, Note_on_c, 0, 77, 88
2, 8819, Note_off_c, 0, 77, 0
2, 8820, Note_on_c, 0, 80, 88
2, 8879, Note_off_c, 0, 80, 0
2, 8880, Note_on_c, 0, 74, 88
2, 8939, Note_off_c, 0, 74, 0
2, 8940, Note_on_c, 0, 77, 88
2, 8999, Note_off_c, 0, 77, 0
2, 9000, Note_on_c, 0, 71, 88
2, 9059, Note_off_c, 0, 71, 0
2, 9060, Note_on_c, 0, 72, 88
2, 9119, Note_off_c, 0, 72, 0
2, 9120, Note_on_c, 0, 72, 88
2, 9138, Note_off_c, 0, 72, 0
2, 9139, Note_on_c, 0, 71, 88
2, 9157, Note_off_c, 0, 71, 0
2, 9158, Note_on_c, 0, 72, 88
2, 9175, Note_off_c, 0, 72, 0
2, 9176, Note_on_c, 0, 71, 88
2, 9194, Note_off_c, 0, 71, 0
2, 9195, Note_on_c, 0, 72, 88
2, 9209, Note_off_c, 0, 72, 0
2, 9210, Note_on_c, 0, 71, 88
2, 9224, Note_off_c, 0, 71, 0
2, 9225, Note_on_c, 0, 72, 88
2, 9239, Note_off_c, 0, 72, 0
2, 9240, Note_on_c, 0, 71, 88
2, 9299, Note_off_c, 0, 71, 0
2, 9300, Note_on_c, 0, 72, 88
2, 9359, Note_off_c, 0, 72, 0
2, 9360, Note_on_c, 0, 74, 88
2, 9382, Note_off_c, 0, 74, 0
2, 9383, Note_on_c, 0, 72, 88
2, 9400, Note_off_c, 0, 72, 0
2, 9401, Note_on_c, 0, 74, 88
2, 9419, Note_off_c, 0, 74, 0
2, 9420, Note_on_c, 0, 72, 88
2, 9438, Note_off_c, 0, 72, 0
2, 9439, Note_on_c, 0, 74, 88
2, 9457, Note_off_c, 0, 74, 0
2, 9458, Note_on_c, 0, 72, 88
2, 9475, Note_off_c, 0, 72, 0
2, 9476, Note_on_c, 0, 74, 88
2, 9490, Note_off_c, 0, 74, 0
2, 9491, Note_on_c, 0, 72, 88
2, 9505, Note_off_c, 0, 72, 0
2, 9506, Note_on_c, 0, 74, 88
2, 9520, Note_off_c, 0, 74, 0
2, 9521, Note_on_c, 0, 72, 88
2, 9539, Note_off_c, 0, 72, 0
2, 9540, Note_on_c, 0, 71, 88
2, 9569, Note_off_c, 0, 71, 0
2, 9570, Note_on_c, 0, 72, 88
2, 9599, Note_off_c, 0, 72, 0
2, 9600, Note_on_c, 0, 74, 88
2, 9659, Note_off_c, 0, 74, 0
2, 9660, Note_on_c, 0, 79, 88
2, 9719, Note_off_c, 0, 79, 0
2, 9720, Note_on_c, 0, 77, 88
2, 9779, Note_off_c, 0, 77, 0
2, 9780, Note_on_c, 0, 80, 88
2, 9899, Note_off_c, 0, 80, 0
2, 9900, Note_on_c, 0, 80, 88
2, 9959, Note_off_c, 0, 80, 0
2, 9960, Note_on_c, 0, 79, 88
2, 10019, Note_off_c, 0, 79, 0
2, 10020, Note_on_c, 0, 77, 88
2, 10139, Note_off_c, 0, 77, 0
2, 10140, Note_on_c, 0, 84, 88
2, 10259, Note_off_c, 0, 84, 0
2, 10260, Note_on_c, 0, 83, 88
2, 10319, Note_off_c, 0, 83, 0
2, 10320, Note_on_c, 0, 84, 88
2, 10559, Note_off_c, 0, 84, 0
2, 10560, Note_on_c, 0, 75, 88
2, 10859, Note_off_c, 0, 75, 0
2, 10860, Note_on_c, 0, 72, 88
2, 10919, Note_off_c, 0, 72, 0
2, 10920, Note_on_c, 0, 74, 88
2, 11039, Note_off_c, 0, 74, 0
2, 11040, Note_on_c, 0, 72, 88
2, 11519, Note_off_c, 0, 72, 0
2, 11520, Note_on_c, 0, 65, 88
2, 11579, Note_off_c, 0, 65, 0
2, 11580, Note_on_c, 0, 69, 88
2, 11639, Note_off_c, 0, 69, 0
2, 11640, Note_on_c, 0, 72, 88
2, 11699, Note_off_c, 0, 72, 0
2, 11700, Note_on_c, 0, 75, 88
2, 11819, Note_off_c, 0, 75, 0
2, 11820, Note_on_c, 0, 78, 88
2, 11879, Note_off_c, 0, 78, 0
2, 11880, Note_on_c, 0, 72, 88
2, 11939, Note_off_c, 0, 72, 0
2, 11940, Note_on_c, 0, 75, 88
2, 11999, Note_off_c, 0, 75, 0
2, 12000, Note_on_c, 0, 73, 88
2, 12359, Note_off_c, 0, 73, 0
2, 12360, Note_on_c, 0, 72, 88
2, 12539, Note_off_c, 0, 72, 0
2, 12540, Note_on_c, 0, 70, 88
2, 12599, Note_off_c, 0, 70, 0
2, 12600, Note_on_c, 0, 67, 88
2, 12659, Note_off_c, 0, 67, 0
2, 12660, Note_on_c, 0, 64, 88
2, 12719, Note_off_c, 0, 64, 0
2, 12720, Note_on_c, 0, 60, 88
2, 12779, Note_off_c, 0, 60, 0
2, 12780, Note_on_c, 0, 64, 88
2, 12839, Note_off_c, 0, 64, 0
2, 12840, Note_on_c, 0, 65, 88
2, 12899, Note_off_c, 0, 65, 0
2, 12900, Note_on_c, 0, 71, 88
2, 12959, Note_off_c, 0, 71, 0
2, 12960, Note_on_c, 0, 72, 88
2, 13199, Note_off_c, 0, 72, 0
2, 13200, Note_on_c, 0, 70, 88
2, 13259, Note_off_c, 0, 70, 0
2, 13260, Note_on_c, 0, 73, 88
2, 13319, Note_off_c, 0, 73, 0
2, 13320, Note_on_c, 0, 72, 88
2, 13379, Note_off_c, 0, 72, 0
2, 13380, Note_on_c, 0, 70, 88
2, 13439, Note_off_c, 0, 70, 0
2, 13440, Note_on_c, 0, 69, 88
2, 13499, Note_off_c, 0, 69, 0
2, 13500, Note_on_c, 0, 65, 88
2, 13559, Note_off_c, 0, 65, 0
2, 13560, Note_on_c, 0, 69, 88
2, 13619, Note_off_c, 0, 69, 0
2, 13620, Note_on_c, 0, 72, 88
2, 13679, Note_off_c, 0, 72, 0
2, 13680, Note_on_c, 0, 77, 88
2, 13859, Note_off_c, 0, 77, 0
2, 13860, Note_on_c, 0, 75, 88
2, 13919, Note_off_c, 0, 75, 0
2, 13920, Note_on_c, 0, 73, 88
2, 14219, Note_off_c, 0, 73, 0
2, 14220, Note_on_c, 0, 72, 88
2, 14339, Note_off_c, 0, 72, 0
2, 14340, Note_on_c, 0, 70, 88
2, 14459, Note_off_c, 0, 70, 0
2, 14460, Note_on_c, 0, 73, 88
2, 14519, Note_off_c, 0, 73, 0
2, 14520, Note_on_c, 0, 72, 88
2, 14639, Note_off_c, 0, 72, 0
2, 14640, Note_on_c, 0, 68, 88
2, 14819, Note_off_c, 0, 68, 0
2, 14820, Note_on_c, 0, 67, 88
2, 14879, Note_off_c, 0, 67, 0
2, 14880, Note_on_c, 0, 65, 88
2, 14939, Note_off_c, 0, 65, 0
2, 14940, Note_on_c, 0, 68, 88
2, 14999, Note_off_c, 0, 68, 0
2, 15000, Note_on_c, 0, 72, 88
2, 15059, Note_off_c, 0, 72, 0
2, 15060, Note_on_c, 0, 77, 88
2, 15179, Note_off_c, 0, 77, 0
2, 15180, Note_on_c, 0, 77, 88
2, 15239, Note_off_c, 0, 77, 0
2, 15240, Note_on_c, 0, 76, 88
2, 15299, Note_off_c, 0, 76, 0
2, 15300, Note_on_c, 0, 79, 88
2, 15359, Note_off_c, 0, 79, 0
2, 15360, Note_on_c, 0, 68, 88
2, 15419, Note_off_c, 0, 68, 0
2, 15420, Note_on_c, 0, 72, 88
2, 15479, Note_off_c, 0, 72, 0
2, 15480, Note_on_c, 0, 77, 88
2, 15539, Note_off_c, 0, 77, 0
2, 15540, Note_on_c, 0, 76, 88
2, 15599, Note_off_c, 0, 76, 0
2, 15600, Note_on_c, 0, 77, 88
2, 15839, Note_off_c, 0, 77, 0
2, 15840, Note_on_c, 0, 73, 88
2, 16139, Note_off_c, 0, 73, 0
2, 16140, Note_on_c, 0, 73, 88
2, 16199, Note_off_c, 0, 73, 0
2, 16200, Note_on_c, 0, 72, 88
2, 16259, Note_off_c, 0, 72, 0
2, 16260, Note_on_c, 0, 70, 88
2, 16319, Note_off_c, 0, 70, 0
2, 16320, Note_on_c, 0, 68, 88
2, 16619, Note_off_c, 0, 68, 0
2, 16620, Note_on_c, 0, 68, 88
2, 16679, Note_off_c, 0, 68, 0
2, 16680, Note_on_c, 0, 67, 88
2, 16739, Note_off_c, 0, 67, 0
2, 16740, Note_on_c, 0, 65, 88
2, 16799, Note_off_c, 0, 65, 0
2, 16800, Note_on_c, 0, 64, 88
2, 17339, Note_off_c, 0, 64, 0
2, 17340, Note_on_c, 0, 72, 88
2, 17399, Note_off_c, 0, 72, 0
2, 17400, Note_on_c, 0, 70, 88
2, 17459, Note_off_c, 0, 70, 0
2, 17460, Note_on_c, 0, 73, 88
2, 17519, Note_off_c, 0, 73, 0
2, 17520, Note_on_c, 0, 64, 88
2, 17579, Note_off_c, 0, 64, 0
2, 17580, Note_on_c, 0, 73, 88
2, 17639, Note_off_c, 0, 73, 0
2, 17640, Note_on_c, 0, 72, 88
2, 17699, Note_off_c, 0, 72, 0
2, 17700, Note_on_c, 0, 70, 88
2, 17759, Note_off_c, 0, 70, 0
2, 17760, Note_on_c, 0, 68, 88
2, 17819, Note_off_c, 0, 68, 0
2, 17820, Note_on_c, 0, 79, 88
2, 17879, Note_off_c, 0, 79, 0
2, 17880, Note_on_c, 0, 77, 88
2, 17939, Note_off_c, 0, 77, 0
2, 17940, Note_on_c, 0, 80, 88
2, 17999, Note_off_c, 0, 80, 0
2, 18000, Note_on_c, 0, 71, 88
2, 18059, Note_off_c, 0, 71, 0
2, 18060, Note_on_c, 0, 80, 88
2, 18119, Note_off_c, 0, 80, 0
2, 18120, Note_on_c, 0, 79, 88
2, 18179, Note_off_c, 0, 79, 0
2, 18180, Note_on_c, 0, 77, 88
2, 18239, Note_off_c, 0, 77, 0
2, 18240, Note_on_c, 0, 76, 88
2, 18299, Note_off_c, 0, 76, 0
2, 18300, Note_on_c, 0, 77, 88
2, 18359, Note_off_c, 0, 77, 0
2, 18360, Note_on_c, 0, 79, 88
2, 18419, Note_off_c, 0, 79, 0
2, 18420, Note_on_c, 0, 76, 88
2, 18479, Note_off_c, 0, 76, 0
2, 18480, Note_on_c, 0, 82, 88
2, 18539, Note_off_c, 0, 82, 0
2, 18540, Note_on_c, 0, 73, 88
2, 18599, Note_off_c, 0, 73, 0
2, 18600, Note_on_c, 0, 72, 88
2, 18659, Note_off_c, 0, 72, 0
2, 18660, Note_on_c, 0, 70, 88
2, 18719, Note_off_c, 0, 70, 0
2, 18720, Note_on_c, 0, 68, 88
2, 18779, Note_off_c, 0, 68, 0
2, 18780, Note_on_c, 0, 70, 88
2, 18839, Note_off_c, 0, 70, 0
2, 18840, Note_on_c, 0, 72, 88
2, 18899, Note_off_c, 0, 72, 0
2, 18900, Note_on_c, 0, 65, 88
2, 18959, Note_off_c, 0, 65, 0
2, 18960, Note_on_c, 0, 74, 88
2, 19019, Note_off_c, 0, 74, 0
2, 19020, Note_on_c, 0, 68, 88
2, 19079, Note_off_c, 0, 68, 0
2, 19080, Note_on_c, 0, 67, 88
2, 19139, Note_off_c, 0, 67, 0
2, 19140, Note_on_c, 0, 65, 88
2, 19199, Note_off_c, 0, 65, 0
2, 19200, Note_on_c, 0, 64, 88
2, 19439, Note_off_c, 0, 64, 0
2, 19440, Note_on_c, 0, 65, 88
2, 19979, Note_off_c, 0, 65, 0
2, 19980, Note_on_c, 0, 58, 88
2, 20039, Note_off_c, 0, 58, 0
2, 20040, Note_on_c, 0, 60, 88
2, 20099, Note_off_c, 0, 60, 0
2, 20100, Note_on_c, 0, 64, 88
2, 20159, Note_off_c, 0, 64, 0
2, 20160, Note_on_c, 0, 65, 88
2, 20200, Note_off_c, 0, 65, 0
2, 20200, End_track
0, 0, End_of_file