0, 0, Header, 1, 2, 240
1, 0, Start_track
1, 0, Time_signature, 4, 2, 24, 8
1, 0, Tempo, 389610
1, 0, SMPTE_offset, 64, 0, 0, 0, 100
1, 0, End_track
2, 0, Start_track
2, 0, Title_t, "Track 1"
2, 0, Program_c, 0, 6
2, 0, Note_on_c, 0, 70, 88
2, 839, Note_off_c, 0, 70, 0
2, 840, Note_on_c, 0, 67, 88
2, 959, Note_off_c, 0, 67, 0
2, 960, Note_on_c, 0, 75, 88
2, 1079, Note_off_c, 0, 75, 0
2, 1080, Note_on_c, 0, 75, 88
2, 1259, Note_off_c, 0, 75, 0
2, 1260, Note_on_c, 0, 74, 88
2, 1919, Note_off_c, 0, 74, 0
2, 1920, Note_on_c, 0, 65, 88
2, 2039, Note_off_c, 0, 65, 0
2, 2040, Note_on_c, 0, 67, 88
2, 2159, Note_off_c, 0, 67, 0
2, 2160, Note_on_c, 0, 68, 88
2, 2279, Note_off_c, 0, 68, 0
2, 2280, Note_on_c, 0, 60, 88
2, 2399, Note_off_c, 0, 60, 0
2, 2400, Note_on_c, 0, 63, 88
2, 2519, Note_off_c, 0, 63, 0
2, 2520, Note_on_c, 0, 62, 88
2, 2639, Note_off_c, 0, 62, 0
2, 2640, Note_on_c, 0, 65, 88
2, 2759, Note_off_c, 0, 65, 0
2, 2760, Note_on_c, 0, 70, 88
2, 2879, Note_off_c, 0, 70, 0
2, 2880, Note_on_c, 0, 58, 88
2, 2999, Note_off_c, 0, 58, 0
2, 3000, Note_on_c, 0, 65, 88
2, 3119, Note_off_c, 0, 65, 0
2, 3120, Note_on_c, 0, 68, 88
2, 3239, Note_off_c, 0, 68, 0
2, 3240, Note_on_c, 0, 68, 88
2, 3419, Note_off_c, 0, 68, 0
2, 3420, Note_on_c, 0, 67, 88
2, 4079, Note_off_c, 0, 67, 0
2, 4080, Note_on_c, 0, 51, 88
2, 4199, Note_off_c, 0, 51, 0
2, 4200, Note_on_c, 0, 50, 88
2, 4319, Note_off_c, 0, 50, 0
2, 4320, Note_on_c, 0, 51, 88
2, 4439, Note_off_c, 0, 51, 0
2, 4440, Note_on_c, 0, 55, 88
2, 4559, Note_off_c, 0, 55, 0
2, 4560, Note_on_c, 0, 53, 88
2, 4679, Note_off_c, 0, 53, 0
2, 4680, Note_on_c, 0, 55, 88
2, 4799, Note_off_c, 0, 55, 0
2, 4800, Note_on_c, 0, 58, 88
2, 4919, Note_off_c, 0, 58, 0
2, 4920, Note_on_c, 0, 56, 88
2, 5039, Note_off_c, 0, 56, 0
2, 5040, Note_on_c, 0, 58, 88
2, 5159, Note_off_c, 0, 58, 0
2, 5160, Note_on_c, 0, 61, 88
2, 5279, Note_off_c, 0, 61, 0
2, 5280, Note_on_c, 0, 55, 88
2, 5399, Note_off_c, 0, 55, 0
2, 5400, Note_on_c, 0, 56, 88
2, 5519, Note_off_c, 0, 56, 0
2, 5520, Note_on_c, 0, 60, 88
2, 5639, Note_off_c, 0, 60, 0
2, 5640, Note_on_c, 0, 58, 88
2, 5759, Note_off_c, 0, 58, 0
2, 5760, Note_on_c, 0, 60, 88
2, 5879, Note_off_c, 0, 60, 0
2, 5880, Note_on_c, 0, 63, 88
2, 5999, Note_off_c, 0, 63, 0
2, 6000, Note_on_c, 0, 61, 88
2, 6119, Note_off_c, 0, 61, 0
2, 6120, Note_on_c, 0, 63, 88
2, 6239, Note_off_c, 0, 63, 0
2, 6240, Note_on_c, 0, 68, 88
2, 6359, Note_off_c, 0, 68, 0
2, 6360, Note_on_c, 0, 60, 88
2, 6479, Note_off_c, 0, 60, 0
2, 6480, Note_on_c, 0, 62, 88
2, 6599, Note_off_c, 0, 62, 0
2, 6600, Note_on_c, 0, 65, 88
2, 6719, Note_off_c, 0, 65, 0
2, 6720, Note_on_c, 0, 63, 88
2, 6839, Note_off_c, 0, 63, 0
2, 6840, Note_on_c, 0, 65, 88
2, 6959, Note_off_c, 0, 65, 0
2, 6960, Note_on_c, 0, 68, 88
2, 7079, Note_off_c, 0, 68, 0
2, 7080, Note_on_c, 0, 67, 88
2, 7199, Note_off_c, 0, 67, 0
2, 7200, Note_on_c, 0, 68, 88
2, 7319, Note_off_c, 0, 68, 0
2, 7320, Note_on_c, 0, 77, 88
2, 7439, Note_off_c, 0, 77, 0
2, 7440, Note_on_c, 0, 68, 88
2, 7559, Note_off_c, 0, 68, 0
2, 7560, Note_on_c, 0, 67, 88
2, 7679, Note_off_c, 0, 67, 0
2, 7680, Note_on_c, 0, 70, 88
2, 7799, Note_off_c, 0, 70, 0
2, 7800, Note_on_c, 0, 68, 88
2, 7919, Note_off_c, 0, 68, 0
2, 7920, Note_on_c, 0, 70, 88
2, 8039, Note_off_c, 0, 70, 0
2, 8040, Note_on_c, 0, 75, 88
2, 8159, Note_off_c, 0, 75, 0
2, 8160, Note_on_c, 0, 74, 88
2, 8279, Note_off_c, 0, 74, 0
2, 8280, Note_on_c, 0, 75, 88
2, 8399, Note_off_c, 0, 75, 0
2, 8400, Note_on_c, 0, 79, 88
2, 8519, Note_off_c, 0, 79, 0
2, 8520, Note_on_c, 0, 77, 88
2, 8639, Note_off_c, 0, 77, 0
2, 8640, Note_on_c, 0, 79, 88
2, 8759, Note_off_c, 0, 79, 0
2, 8760, Note_on_c, 0, 75, 88
2, 8879, Note_off_c, 0, 75, 0
2, 8880, Note_on_c, 0, 74, 88
2, 8999, Note_off_c, 0, 74, 0
2, 9000, Note_on_c, 0, 75, 88
2, 10559, Note_off_c, 0, 75, 0
2, 10560, Note_on_c, 0, 69, 88
2, 10679, Note_off_c, 0, 69, 0
2, 10680, Note_on_c, 0, 75, 88
2, 10799, Note_off_c, 0, 75, 0
2, 10800, Note_on_c, 0, 74, 88
2, 10919, Note_off_c, 0, 74, 0
2, 10920, Note_on_c, 0, 70, 88
2, 11039, Note_off_c, 0, 70, 0
2, 11040, Note_on_c, 0, 65, 88
2, 11159, Note_off_c, 0, 65, 0
2, 11160, Note_on_c, 0, 67, 88
2, 11279, Note_off_c, 0, 67, 0
2, 11280, Note_on_c, 0, 63, 88
2, 11399, Note_off_c, 0, 63, 0
2, 11400, Note_on_c, 0, 62, 88
2, 11519, Note_off_c, 0, 62, 0
2, 11520, Note_on_c, 0, 60, 88
2, 11639, Note_off_c, 0, 60, 0
2, 11640, Note_on_c, 0, 70, 88
2, 11759, Note_off_c, 0, 70, 0
2, 11760, Note_on_c, 0, 69, 88
2, 11879, Note_off_c, 0, 69, 0
2, 11880, Note_on_c, 0, 70, 88
2, 12719, Note_off_c, 0, 70, 0
2, 12720, Note_on_c, 0, 58, 88
2, 12839, Note_off_c, 0, 58, 0
2, 12840, Note_on_c, 0, 57, 88
2, 12959, Note_off_c, 0, 57, 0
2, 12960, Note_on_c, 0, 58, 88
2, 13079, Note_off_c, 0, 58, 0
2, 13080, Note_on_c, 0, 62, 88
2, 13199, Note_off_c, 0, 62, 0
2, 13200, Note_on_c, 0, 60, 88
2, 13319, Note_off_c, 0, 60, 0
2, 13320, Note_on_c, 0, 62, 88
2, 13439, Note_off_c, 0, 62, 0
2, 13440, Note_on_c, 0, 65, 88
2, 13559, Note_off_c, 0, 65, 0
2, 13560, Note_on_c, 0, 63, 88
2, 13679, Note_off_c, 0, 63, 0
2, 13680, Note_on_c, 0, 65, 88
2, 13799, Note_off_c, 0, 65, 0
2, 13800, Note_on_c, 0, 68, 88
2, 13919, Note_off_c, 0, 68, 0
2, 13920, Note_on_c, 0, 62, 88
2, 14039, Note_off_c, 0, 62, 0
2, 14040, Note_on_c, 0, 63, 88
2, 14159, Note_off_c, 0, 63, 0
2, 14160, Note_on_c, 0, 67, 88
2, 14279, Note_off_c, 0, 67, 0
2, 14280, Note_on_c, 0, 65, 88
2, 14399, Note_off_c, 0, 65, 0
2, 14400, Note_on_c, 0, 67, 88
2, 14519, Note_off_c, 0, 67, 0
2, 14520, Note_on_c, 0, 70, 88
2, 14639, Note_off_c, 0, 70, 0
2, 14640, Note_on_c, 0, 68, 88
2, 14759, Note_off_c, 0, 68, 0
2, 14760, Note_on_c, 0, 70, 88
2, 14879, Note_off_c, 0, 70, 0
2, 14880, Note_on_c, 0, 75, 88
2, 14999, Note_off_c, 0, 75, 0
2, 15000, Note_on_c, 0, 67, 88
2, 15119, Note_off_c, 0, 67, 0
2, 15120, Note_on_c, 0, 69, 88
2, 15239, Note_off_c, 0, 69, 0
2, 15240, Note_on_c, 0, 72, 88
2, 15359, Note_off_c, 0, 72, 0
2, 15360, Note_on_c, 0, 70, 88
2, 15479, Note_off_c, 0, 70, 0
2, 15480, Note_on_c, 0, 72, 88
2, 15599, Note_off_c, 0, 72, 0
2, 15600, Note_on_c, 0, 75, 88
2, 15719, Note_off_c, 0, 75, 0
2, 15720, Note_on_c, 0, 74, 88
2, 15839, Note_off_c, 0, 74, 0
2, 15840, Note_on_c, 0, 75, 88
2, 15959, Note_off_c, 0, 75, 0
2, 15960, Note_on_c, 0, 84, 88
2, 16079, Note_off_c, 0, 84, 0
2, 16080, Note_on_c, 0, 75, 88
2, 16199, Note_off_c, 0, 75, 0
2, 16200, Note_on_c, 0, 74, 88
2, 16319, Note_off_c, 0, 74, 0
2, 16320, Note_on_c, 0, 70, 88
2, 16439, Note_off_c, 0, 70, 0
2, 16440, Note_on_c, 0, 69, 88
2, 16559, Note_off_c, 0, 69, 0
2, 16560, Note_on_c, 0, 70, 88
2, 16679, Note_off_c, 0, 70, 0
2, 16680, Note_on_c, 0, 74, 88
2, 16799, Note_off_c, 0, 74, 0
2, 16800, Note_on_c, 0, 72, 88
2, 16919, Note_off_c, 0, 72, 0
2, 16920, Note_on_c, 0, 74, 88
2, 17039, Note_off_c, 0, 74, 0
2, 17040, Note_on_c, 0, 77, 88
2, 17159, Note_off_c, 0, 77, 0
2, 17160, Note_on_c, 0, 75, 88
2, 17279, Note_off_c, 0, 75, 0
2, 17280, Note_on_c, 0, 77, 88
2, 18119, Note_off_c, 0, 77, 0
2, 18120, Note_on_c, 0, 67, 88
2, 18239, Note_off_c, 0, 67, 0
2, 18240, Note_on_c, 0, 65, 88
2, 18359, Note_off_c, 0, 65, 0
2, 18360, Note_on_c, 0, 67, 88
2, 19199, Note_off_c, 0, 67, 0
2, 19200, Note_on_c, 0, 74, 88
2, 19319, Note_off_c, 0, 74, 0
2, 19320, Note_on_c, 0, 75, 88
2, 19439, Note_off_c, 0, 75, 0
2, 19440, Note_on_c, 0, 77, 88
2, 20039, Note_off_c, 0, 77, 0
2, 20040, Note_on_c, 0, 77, 88
2, 20159, Note_off_c, 0, 77, 0
2, 20160, Note_on_c, 0, 71, 88
2, 20399, Note_off_c, 0, 71, 0
2, 20400, Note_on_c, 0, 72, 88
2, 20519, Note_off_c, 0, 72, 0
2, 20520, Note_on_c, 0, 71, 88
2, 20999, Note_off_c, 0, 71, 0
2, 21000, Note_on_c, 0, 59, 88
2, 21119, Note_off_c, 0, 59, 0
2, 21120, Note_on_c, 0, 62, 88
2, 21239, Note_off_c, 0, 62, 0
2, 21240, Note_on_c, 0, 65, 88
2, 21359, Note_off_c, 0, 65, 0
2, 21360, Note_on_c, 0, 63, 88
2, 21479, Note_off_c, 0, 63, 0
2, 21480, Note_on_c, 0, 62, 88
2, 21599, Note_off_c, 0, 62, 0
2, 21600, Note_on_c, 0, 63, 88
2, 21719, Note_off_c, 0, 63, 0
2, 21720, Note_on_c, 0, 67, 88
2, 21839, Note_off_c, 0, 67, 0
2, 21840, Note_on_c, 0, 72, 88
2, 21959, Note_off_c, 0, 72, 0
2, 21960, Note_on_c, 0, 75, 88
2, 22079, Note_off_c, 0, 75, 0
2, 22080, Note_on_c, 0, 74, 88
2, 22199, Note_off_c, 0, 74, 0
2, 22200, Note_on_c, 0, 72, 88
2, 22439, Note_off_c, 0, 72, 0
2, 22440, Note_on_c, 0, 63, 88
2, 22559, Note_off_c, 0, 63, 0
2, 22560, Note_on_c, 0, 72, 88
2, 22679, Note_off_c, 0, 72, 0
2, 22680, Note_on_c, 0, 65, 88
2, 22799, Note_off_c, 0, 65, 0
2, 22800, Note_on_c, 0, 68, 88
2, 22919, Note_off_c, 0, 68, 0
2, 22920, Note_on_c, 0, 72, 88
2, 23039, Note_off_c, 0, 72, 0
2, 23040, Note_on_c, 0, 75, 88
2, 23159, Note_off_c, 0, 75, 0
2, 23160, Note_on_c, 0, 74, 88
2, 23279, Note_off_c, 0, 74, 0
2, 23280, Note_on_c, 0, 72, 88
2, 23519, Note_off_c, 0, 72, 0
2, 23520, Note_on_c, 0, 67, 88
2, 23639, Note_off_c, 0, 67, 0
2, 23640, Note_on_c, 0, 72, 88
2, 23759, Note_off_c, 0, 72, 0
2, 23760, Note_on_c, 0, 68, 88
2, 23879, Note_off_c, 0, 68, 0
2, 23880, Note_on_c, 0, 71, 88
2, 23999, Note_off_c, 0, 71, 0
2, 24000, Note_on_c, 0, 72, 88
2, 24119, Note_off_c, 0, 72, 0
2, 24120, Note_on_c, 0, 75, 88
2, 24239, Note_off_c, 0, 75, 0
2, 24240, Note_on_c, 0, 74, 88
2, 24359, Note_off_c, 0, 74, 0
2, 24360, Note_on_c, 0, 72, 88
2, 24599, Note_off_c, 0, 72, 0
2, 24600, Note_on_c, 0, 65, 88
2, 24719, Note_off_c, 0, 65, 0
2, 24720, Note_on_c, 0, 71, 88
2, 24839, Note_off_c, 0, 71, 0
2, 24840, Note_on_c, 0, 72, 88
2, 24959, Note_off_c, 0, 72, 0
2, 24960, Note_on_c, 0, 67, 88
2, 25079, Note_off_c, 0, 67, 0
2, 25080, Note_on_c, 0, 63, 88
2, 25199, Note_off_c, 0, 63, 0
2, 25200, Note_on_c, 0, 60, 88
2, 26039, Note_off_c, 0, 60, 0
2, 26040, Note_on_c, 0, 75, 88
2, 26159, Note_off_c, 0, 75, 0
2, 26160, Note_on_c, 0, 74, 88
2, 26279, Note_off_c, 0, 74, 0
2, 26280, Note_on_c, 0, 75, 88
2, 26399, Note_off_c, 0, 75, 0
2, 26400, Note_on_c, 0, 72, 88
2, 26519, Note_off_c, 0, 72, 0
2, 26520, Note_on_c, 0, 69, 88
2, 26639, Note_off_c, 0, 69, 0
2, 26640, Note_on_c, 0, 65, 88
2, 27119, Note_off_c, 0, 65, 0
2, 27120, Note_on_c, 0, 65, 88
2, 27239, Note_off_c, 0, 65, 0
2, 27240, Note_on_c, 0, 63, 88
2, 27359, Note_off_c, 0, 63, 0
2, 27360, Note_on_c, 0, 65, 88
2, 27479, Note_off_c, 0, 65, 0
2, 27480, Note_on_c, 0, 70, 88
2, 27599, Note_off_c, 0, 70, 0
2, 27600, Note_on_c, 0, 72, 88
2, 27719, Note_off_c, 0, 72, 0
2, 27720, Note_on_c, 0, 73, 88
2, 28199, Note_off_c, 0, 73, 0
2, 28200, Note_on_c, 0, 73, 88
2, 28319, Note_off_c, 0, 73, 0
2, 28320, Note_on_c, 0, 72, 88
2, 28439, Note_off_c, 0, 72, 0
2, 28440, Note_on_c, 0, 73, 88
2, 28559, Note_off_c, 0, 73, 0
2, 28560, Note_on_c, 0, 70, 88
2, 28679, Note_off_c, 0, 70, 0
2, 28680, Note_on_c, 0, 67, 88
2, 28799, Note_off_c, 0, 67, 0
2, 28800, Note_on_c, 0, 63, 88
2, 29279, Note_off_c, 0, 63, 0
2, 29280, Note_on_c, 0, 63, 88
2, 29399, Note_off_c, 0, 63, 0
2, 29400, Note_on_c, 0, 61, 88
2, 29519, Note_off_c, 0, 61, 0
2, 29520, Note_on_c, 0, 63, 88
2, 29639, Note_off_c, 0, 63, 0
2, 29640, Note_on_c, 0, 68, 88
2, 29759, Note_off_c, 0, 68, 0
2, 29760, Note_on_c, 0, 70, 88
2, 29879, Note_off_c, 0, 70, 0
2, 29880, Note_on_c, 0, 72, 88
2, 30359, Note_off_c, 0, 72, 0
2, 30360, Note_on_c, 0, 62, 88
2, 30479, Note_off_c, 0, 62, 0
2, 30480, Note_on_c, 0, 68, 88
2, 30599, Note_off_c, 0, 68, 0
2, 30600, Note_on_c, 0, 72, 88
2, 30719, Note_off_c, 0, 72, 0
2, 30720, Note_on_c, 0, 70, 88
2, 30839, Note_off_c, 0, 70, 0
2, 30840, Note_on_c, 0, 68, 88
2, 31079, Note_off_c, 0, 68, 0
2, 31080, Note_on_c, 0, 61, 88
2, 31199, Note_off_c, 0, 61, 0
2, 31200, Note_on_c, 0, 70, 88
2, 31439, Note_off_c, 0, 70, 0
2, 31440, Note_on_c, 0, 60, 88
2, 31559, Note_off_c, 0, 60, 0
2, 31560, Note_on_c, 0, 67, 88
2, 31679, Note_off_c, 0, 67, 0
2, 31680, Note_on_c, 0, 70, 88
2, 31799, Note_off_c, 0, 70, 0
2, 31800, Note_on_c, 0, 68, 88
2, 31919, Note_off_c, 0, 68, 0
2, 31920, Note_on_c, 0, 67, 88
2, 32159, Note_off_c, 0, 67, 0
2, 32160, Note_on_c, 0, 60, 88
2, 32279, Note_off_c, 0, 60, 0
2, 32280, Note_on_c, 0, 68, 88
2, 32519, Note_off_c, 0, 68, 0
2, 32520, Note_on_c, 0, 58, 88
2, 32639, Note_off_c, 0, 58, 0
2, 32640, Note_on_c, 0, 68, 88
2, 32879, Note_off_c, 0, 68, 0
2, 32880, Note_on_c, 0, 68, 88
2, 32999, Note_off_c, 0, 68, 0
2, 33000, Note_on_c, 0, 67, 88
2, 33239, Note_off_c, 0, 67, 0
2, 33240, Note_on_c, 0, 72, 88
2, 33359, Note_off_c, 0, 72, 0
2, 33360, Note_on_c, 0, 63, 88
2, 33599, Note_off_c, 0, 63, 0
2, 33600, Note_on_c, 0, 62, 88
2, 33719, Note_off_c, 0, 62, 0
2, 33720, Note_on_c, 0, 60, 88
2, 33839, Note_off_c, 0, 60, 0
2, 33840, Note_on_c, 0, 62, 88
2, 33959, Note_off_c, 0, 62, 0
2, 33960, Note_on_c, 0, 58, 88
2, 34079, Note_off_c, 0, 58, 0
2, 34080, Note_on_c, 0, 57, 88
2, 34199, Note_off_c, 0, 57, 0
2, 34200, Note_on_c, 0, 58, 88
2, 34319, Note_off_c, 0, 58, 0
2, 34320, Note_on_c, 0, 62, 88
2, 34439, Note_off_c, 0, 62, 0
2, 34440, Note_on_c, 0, 65, 88
2, 34559, Note_off_c, 0, 65, 0
2, 34560, Note_on_c, 0, 68, 88
2, 34679, Note_off_c, 0, 68, 0
2, 34680, Note_on_c, 0, 65, 88
2, 34799, Note_off_c, 0, 65, 0
2, 34800, Note_on_c, 0, 63, 88
2, 34919, Note_off_c, 0, 63, 0
2, 34920, Note_on_c, 0, 65, 88
2, 35039, Note_off_c, 0, 65, 0
2, 35040, Note_on_c, 0, 62, 88
2, 35159, Note_off_c, 0, 62, 0
2, 35160, Note_on_c, 0, 60, 88
2, 35279, Note_off_c, 0, 60, 0
2, 35280, Note_on_c, 0, 62, 88
2, 35399, Note_off_c, 0, 62, 0
2, 35400, Note_on_c, 0, 65, 88
2, 35519, Note_off_c, 0, 65, 0
2, 35520, Note_on_c, 0, 68, 88
2, 35639, Note_off_c, 0, 68, 0
2, 35640, Note_on_c, 0, 72, 88
2, 35759, Note_off_c, 0, 72, 0
2, 35760, Note_on_c, 0, 63, 88
2, 35879, Note_off_c, 0, 63, 0
2, 35880, Note_on_c, 0, 62, 88
2, 35999, Note_off_c, 0, 62, 0
2, 36000, Note_on_c, 0, 70, 88
2, 36119, Note_off_c, 0, 70, 0
2, 36120, Note_on_c, 0, 61, 88
2, 36239, Note_off_c, 0, 61, 0
2, 36240, Note_on_c, 0, 60, 88
2, 36359, Note_off_c, 0, 60, 0
2, 36360, Note_on_c, 0, 68, 88
2, 36479, Note_off_c, 0, 68, 0
2, 36480, Note_on_c, 0, 59, 88
2, 36599, Note_off_c, 0, 59, 0
2, 36600, Note_on_c, 0, 58, 88
2, 36839, Note_off_c, 0, 58, 0
2, 36840, Note_on_c, 0, 67, 88
2, 36959, Note_off_c, 0, 67, 0
2, 36960, Note_on_c, 0, 65, 88
2, 37079, Note_off_c, 0, 65, 0
2, 37080, Note_on_c, 0, 67, 88
2, 37199, Note_off_c, 0, 67, 0
2, 37200, Note_on_c, 0, 63, 88
2, 37319, Note_off_c, 0, 63, 0
2, 37320, Note_on_c, 0, 62, 88
2, 37439, Note_off_c, 0, 62, 0
2, 37440, Note_on_c, 0, 63, 88
2, 37559, Note_off_c, 0, 63, 0
2, 37560, Note_on_c, 0, 67, 88
2, 37679, Note_off_c, 0, 67, 0
2, 37680, Note_on_c, 0, 70, 88
2, 37799, Note_off_c, 0, 70, 0
2, 37800, Note_on_c, 0, 73, 88
2, 37919, Note_off_c, 0, 73, 0
2, 37920, Note_on_c, 0, 70, 88
2, 38039, Note_off_c, 0, 70, 0
2, 38040, Note_on_c, 0, 68, 88
2, 38159, Note_off_c, 0, 68, 0
2, 38160, Note_on_c, 0, 70, 88
2, 38279, Note_off_c, 0, 70, 0
2, 38280, Note_on_c, 0, 67, 88
2, 38399, Note_off_c, 0, 67, 0
2, 38400, Note_on_c, 0, 65, 88
2, 38519, Note_off_c, 0, 65, 0
2, 38520, Note_on_c, 0, 67, 88
2, 38639, Note_off_c, 0, 67, 0
2, 38640, Note_on_c, 0, 70, 88
2, 38759, Note_off_c, 0, 70, 0
2, 38760, Note_on_c, 0, 73, 88
2, 38879, Note_off_c, 0, 73, 0
2, 38880, Note_on_c, 0, 77, 88
2, 38999, Note_off_c, 0, 77, 0
2, 39000, Note_on_c, 0, 68, 88
2, 39119, Note_off_c, 0, 68, 0
2, 39120, Note_on_c, 0, 67, 88
2, 39239, Note_off_c, 0, 67, 0
2, 39240, Note_on_c, 0, 75, 88
2, 39359, Note_off_c, 0, 75, 0
2, 39360, Note_on_c, 0, 66, 88
2, 39479, Note_off_c, 0, 66, 0
2, 39480, Note_on_c, 0, 65, 88
2, 39599, Note_off_c, 0, 65, 0
2, 39600, Note_on_c, 0, 73, 88
2, 39719, Note_off_c, 0, 73, 0
2, 39720, Note_on_c, 0, 64, 88
2, 39839, Note_off_c, 0, 64, 0
2, 39840, Note_on_c, 0, 63, 88
2, 40079, Note_off_c, 0, 63, 0
2, 40080, Note_on_c, 0, 72, 88
2, 40199, Note_off_c, 0, 72, 0
2, 40200, Note_on_c, 0, 70, 88
2, 40319, Note_off_c, 0, 70, 0
2, 40320, Note_on_c, 0, 72, 88
2, 40439, Note_off_c, 0, 72, 0
2, 40440, Note_on_c, 0, 68, 88
2, 40559, Note_off_c, 0, 68, 0
2, 40560, Note_on_c, 0, 67, 88
2, 40679, Note_off_c, 0, 67, 0
2, 40680, Note_on_c, 0, 68, 88
2, 40799, Note_off_c, 0, 68, 0
2, 40800, Note_on_c, 0, 72, 88
2, 40919, Note_off_c, 0, 72, 0
2, 40920, Note_on_c, 0, 75, 88
2, 41039, Note_off_c, 0, 75, 0
2, 41040, Note_on_c, 0, 79, 88
2, 41159, Note_off_c, 0, 79, 0
2, 41160, Note_on_c, 0, 70, 88
2, 41279, Note_off_c, 0, 70, 0
2, 41280, Note_on_c, 0, 69, 88
2, 41399, Note_off_c, 0, 69, 0
2, 41400, Note_on_c, 0, 77, 88
2, 41519, Note_off_c, 0, 77, 0
2, 41520, Note_on_c, 0, 68, 88
2, 41639, Note_off_c, 0, 68, 0
2, 41640, Note_on_c, 0, 67, 88
2, 41759, Note_off_c, 0, 67, 0
2, 41760, Note_on_c, 0, 75, 88
2, 41879, Note_off_c, 0, 75, 0
2, 41880, Note_on_c, 0, 66, 88
2, 41999, Note_off_c, 0, 66, 0
2, 42000, Note_on_c, 0, 65, 88
2, 42239, Note_off_c, 0, 65, 0
2, 42240, Note_on_c, 0, 74, 88
2, 42359, Note_off_c, 0, 74, 0
2, 42360, Note_on_c, 0, 72, 88
2, 42479, Note_off_c, 0, 72, 0
2, 42480, Note_on_c, 0, 74, 88
2, 42599, Note_off_c, 0, 74, 0
2, 42600, Note_on_c, 0, 70, 88
2, 42719, Note_off_c, 0, 70, 0
2, 42720, Note_on_c, 0, 69, 88
2, 42839, Note_off_c, 0, 69, 0
2, 42840, Note_on_c, 0, 70, 88
2, 42959, Note_off_c, 0, 70, 0
2, 42960, Note_on_c, 0, 74, 88
2, 43079, Note_off_c, 0, 74, 0
2, 43080, Note_on_c, 0, 77, 88
2, 43199, Note_off_c, 0, 77, 0
2, 43200, Note_on_c, 0, 80, 88
2, 43319, Note_off_c, 0, 80, 0
2, 43320, Note_on_c, 0, 72, 88
2, 43439, Note_off_c, 0, 72, 0
2, 43440, Note_on_c, 0, 71, 88
2, 43559, Note_off_c, 0, 71, 0
2, 43560, Note_on_c, 0, 79, 88
2, 43679, Note_off_c, 0, 79, 0
2, 43680, Note_on_c, 0, 70, 88
2, 43799, Note_off_c, 0, 70, 0
2, 43800, Note_on_c, 0, 69, 88
2, 43919, Note_off_c, 0, 69, 0
2, 43920, Note_on_c, 0, 77, 88
2, 44039, Note_off_c, 0, 77, 0
2, 44040, Note_on_c, 0, 68, 88
2, 44159, Note_off_c, 0, 68, 0
2, 44160, Note_on_c, 0, 67, 88
2, 44399, Note_off_c, 0, 67, 0
2, 44400, Note_on_c, 0, 75, 88
2, 44519, Note_off_c, 0, 75, 0
2, 44520, Note_on_c, 0, 74, 88
2, 44639, Note_off_c, 0, 74, 0
2, 44640, Note_on_c, 0, 75, 88
2, 44759, Note_off_c, 0, 75, 0
2, 44760, Note_on_c, 0, 72, 88
2, 44879, Note_off_c, 0, 72, 0
2, 44880, Note_on_c, 0, 71, 88
2, 44999, Note_off_c, 0, 71, 0
2, 45000, Note_on_c, 0, 72, 88
2, 45119, Note_off_c, 0, 72, 0
2, 45120, Note_on_c, 0, 75, 88
2, 45239, Note_off_c, 0, 75, 0
2, 45240, Note_on_c, 0, 79, 88
2, 45359, Note_off_c, 0, 79, 0
2, 45360, Note_on_c, 0, 84, 88
2, 45599, Note_off_c, 0, 84, 0
2, 45600, Note_on_c, 0, 83, 88
2, 45719, Note_off_c, 0, 83, 0
2, 45720, Note_on_c, 0, 84, 88
2, 45839, Note_off_c, 0, 84, 0
2, 45840, Note_on_c, 0, 79, 88
2, 45959, Note_off_c, 0, 79, 0
2, 45960, Note_on_c, 0, 80, 88
2, 46199, Note_off_c, 0, 80, 0
2, 46200, Note_on_c, 0, 78, 88
2, 46319, Note_off_c, 0, 78, 0
2, 46320, Note_on_c, 0, 79, 88
2, 46439, Note_off_c, 0, 79, 0
2, 46440, Note_on_c, 0, 84, 88
2, 46679, Note_off_c, 0, 84, 0
2, 46680, Note_on_c, 0, 78, 88
2, 46799, Note_off_c, 0, 78, 0
2, 46800, Note_on_c, 0, 79, 88
2, 46919, Note_off_c, 0, 79, 0
2, 46920, Note_on_c, 0, 74, 88
2, 47039, Note_off_c, 0, 74, 0
2, 47040, Note_on_c, 0, 75, 88
2, 47279, Note_off_c, 0, 75, 0
2, 47280, Note_on_c, 0, 73, 88
2, 47399, Note_off_c, 0, 73, 0
2, 47400, Note_on_c, 0, 74, 88
2, 47519, Note_off_c, 0, 74, 0
2, 47520, Note_on_c, 0, 82, 88
2, 47639, Note_off_c, 0, 82, 0
2, 47640, Note_on_c, 0, 79, 88
2, 47759, Note_off_c, 0, 79, 0
2, 47760, Note_on_c, 0, 74, 88
2, 47879, Note_off_c, 0, 74, 0
2, 47880, Note_on_c, 0, 75, 88
2, 47999, Note_off_c, 0, 75, 0
2, 48000, Note_on_c, 0, 79, 88
2, 48119, Note_off_c, 0, 79, 0
2, 48120, Note_on_c, 0, 84, 88
2, 48239, Note_off_c, 0, 84, 0
2, 48240, Note_on_c, 0, 82, 88
2, 48359, Note_off_c, 0, 82, 0
2, 48360, Note_on_c, 0, 81, 88
2, 48479, Note_off_c, 0, 81, 0
2, 48480, Note_on_c, 0, 79, 88
2, 48599, Note_off_c, 0, 79, 0
2, 48600, Note_on_c, 0, 78, 88
2, 48659, Note_off_c, 0, 78, 0
2, 48660, Note_on_c, 0, 79, 88
2, 48719, Note_off_c, 0, 79, 0
2, 48720, Note_on_c, 0, 81, 88
2, 48839, Note_off_c, 0, 81, 0
2, 48840, Note_on_c, 0, 74, 88
2, 48959, Note_off_c, 0, 74, 0
2, 48960, Note_on_c, 0, 75, 88
2, 49079, Note_off_c, 0, 75, 0
2, 49080, Note_on_c, 0, 74, 88
2, 49199, Note_off_c, 0, 74, 0
2, 49200, Note_on_c, 0, 72, 88
2, 49319, Note_off_c, 0, 72, 0
2, 49320, Note_on_c, 0, 70, 88
2, 49439, Note_off_c, 0, 70, 0
2, 49440, Note_on_c, 0, 72, 88
2, 49559, Note_off_c, 0, 72, 0
2, 49560, Note_on_c, 0, 69, 88
2, 49679, Note_off_c, 0, 69, 0
2, 49680, Note_on_c, 0, 70, 88
2, 49799, Note_off_c, 0, 70, 0
2, 49800, Note_on_c, 0, 74, 88
2, 49919, Note_off_c, 0, 74, 0
2, 49920, Note_on_c, 0, 79, 88
2, 50039, Note_off_c, 0, 79, 0
2, 50040, Note_on_c, 0, 82, 88
2, 50159, Note_off_c, 0, 82, 0
2, 50160, Note_on_c, 0, 81, 88
2, 50279, Note_off_c, 0, 81, 0
2, 50280, Note_on_c, 0, 79, 88
2, 50519, Note_off_c, 0, 79, 0
2, 50520, Note_on_c, 0, 70, 88
2, 50639, Note_off_c, 0, 70, 0
2, 50640, Note_on_c, 0, 79, 88
2, 50759, Note_off_c, 0, 79, 0
2, 50760, Note_on_c, 0, 72, 88
2, 50879, Note_off_c, 0, 72, 0
2, 50880, Note_on_c, 0, 75, 88
2, 50999, Note_off_c, 0, 75, 0
2, 51000, Note_on_c, 0, 79, 88
2, 51119, Note_off_c, 0, 79, 0
2, 51120, Note_on_c, 0, 82, 88
2, 51239, Note_off_c, 0, 82, 0
2, 51240, Note_on_c, 0, 81, 88
2, 51359, Note_off_c, 0, 81, 0
2, 51360, Note_on_c, 0, 79, 88
2, 51599, Note_off_c, 0, 79, 0
2, 51600, Note_on_c, 0, 74, 88
2, 51719, Note_off_c, 0, 74, 0
2, 51720, Note_on_c, 0, 79, 88
2, 51839, Note_off_c, 0, 79, 0
2, 51840, Note_on_c, 0, 75, 88
2, 51959, Note_off_c, 0, 75, 0
2, 51960, Note_on_c, 0, 78, 88
2, 52079, Note_off_c, 0, 78, 0
2, 52080, Note_on_c, 0, 79, 88
2, 52199, Note_off_c, 0, 79, 0
2, 52200, Note_on_c, 0, 70, 88
2, 52319, Note_off_c, 0, 70, 0
2, 52320, Note_on_c, 0, 69, 88
2, 52439, Note_off_c, 0, 69, 0
2, 52440, Note_on_c, 0, 67, 88
2, 52679, Note_off_c, 0, 67, 0
2, 52680, Note_on_c, 0, 72, 88
2, 52799, Note_off_c, 0, 72, 0
2, 52800, Note_on_c, 0, 66, 88
2, 52919, Note_off_c, 0, 66, 0
2, 52920, Note_on_c, 0, 67, 88
2, 53039, Note_off_c, 0, 67, 0
2, 53040, Note_on_c, 0, 70, 88
2, 53159, Note_off_c, 0, 70, 0
2, 53160, Note_on_c, 0, 74, 88
2, 53279, Note_off_c, 0, 74, 0
2, 53280, Note_on_c, 0, 79, 88
2, 53639, Note_off_c, 0, 79, 0
2, 53640, Note_on_c, 0, 70, 88
2, 54119, Note_off_c, 0, 70, 0
2, 54120, Note_on_c, 0, 73, 88
2, 54239, Note_off_c, 0, 73, 0
2, 54240, Note_on_c, 0, 72, 88
2, 54359, Note_off_c, 0, 72, 0
2, 54360, Note_on_c, 0, 73, 88
2, 54479, Note_off_c, 0, 73, 0
2, 54480, Note_on_c, 0, 70, 88
2, 54599, Note_off_c, 0, 70, 0
2, 54600, Note_on_c, 0, 67, 88
2, 54719, Note_off_c, 0, 67, 0
2, 54720, Note_on_c, 0, 64, 88
2, 54959, Note_off_c, 0, 64, 0
2, 54960, Note_on_c, 0, 70, 88
2, 55199, Note_off_c, 0, 70, 0
2, 55200, Note_on_c, 0, 68, 88
2, 55319, Note_off_c, 0, 68, 0
2, 55320, Note_on_c, 0, 67, 88
2, 55439, Note_off_c, 0, 67, 0
2, 55440, Note_on_c, 0, 68, 88
2, 55559, Note_off_c, 0, 68, 0
2, 55560, Note_on_c, 0, 72, 88
2, 55679, Note_off_c, 0, 72, 0
2, 55680, Note_on_c, 0, 77, 88
2, 55799, Note_off_c, 0, 77, 0
2, 55800, Note_on_c, 0, 80, 88
2, 56279, Note_off_c, 0, 80, 0
2, 56280, Note_on_c, 0, 80, 88
2, 56399, Note_off_c, 0, 80, 0
2, 56400, Note_on_c, 0, 79, 88
2, 56519, Note_off_c, 0, 79, 0
2, 56520, Note_on_c, 0, 80, 88
2, 56639, Note_off_c, 0, 80, 0
2, 56640, Note_on_c, 0, 77, 88
2, 56759, Note_off_c, 0, 77, 0
2, 56760, Note_on_c, 0, 74, 88
2, 56879, Note_off_c, 0, 74, 0
2, 56880, Note_on_c, 0, 70, 88
2, 57119, Note_off_c, 0, 70, 0
2, 57120, Note_on_c, 0, 80, 88
2, 57359, Note_off_c, 0, 80, 0
2, 57360, Note_on_c, 0, 79, 88
2, 57479, Note_off_c, 0, 79, 0
2, 57480, Note_on_c, 0, 77, 88
2, 57599, Note_off_c, 0, 77, 0
2, 57600, Note_on_c, 0, 79, 88
2, 57719, Note_off_c, 0, 79, 0
2, 57720, Note_on_c, 0, 75, 88
2, 57839, Note_off_c, 0, 75, 0
2, 57840, Note_on_c, 0, 70, 88
2, 57959, Note_off_c, 0, 70, 0
2, 57960, Note_on_c, 0, 67, 88
2, 58079, Note_off_c, 0, 67, 0
2, 58080, Note_on_c, 0, 70, 88
2, 58199, Note_off_c, 0, 70, 0
2, 58200, Note_on_c, 0, 73, 88
2, 58439, Note_off_c, 0, 73, 0
2, 58440, Note_on_c, 0, 72, 88
2, 58559, Note_off_c, 0, 72, 0
2, 58560, Note_on_c, 0, 70, 88
2, 58679, Note_off_c, 0, 70, 0
2, 58680, Note_on_c, 0, 68, 88
2, 58799, Note_off_c, 0, 68, 0
2, 58800, Note_on_c, 0, 67, 88
2, 58919, Note_off_c, 0, 67, 0
2, 58920, Note_on_c, 0, 65, 88
2, 59159, Note_off_c, 0, 65, 0
2, 59160, Note_on_c, 0, 63, 88
2, 59279, Note_off_c, 0, 63, 0
2, 59280, Note_on_c, 0, 66, 88
2, 59519, Note_off_c, 0, 66, 0
2, 59520, Note_on_c, 0, 65, 88
2, 59639, Note_off_c, 0, 65, 0
2, 59640, Note_on_c, 0, 63, 88
2, 59759, Note_off_c, 0, 63, 0
2, 59760, Note_on_c, 0, 62, 88
2, 59879, Note_off_c, 0, 62, 0
2, 59880, Note_on_c, 0, 60, 88
2, 59999, Note_off_c, 0, 60, 0
2, 60000, Note_on_c, 0, 58, 88
2, 60599, Note_off_c, 0, 58, 0
2, 60600, Note_on_c, 0, 63, 88
2, 60719, Note_off_c, 0, 63, 0
2, 60720, Note_on_c, 0, 62, 88
2, 60839, Note_off_c, 0, 62, 0
2, 60840, Note_on_c, 0, 63, 88
2, 60959, Note_off_c, 0, 63, 0
2, 60960, Note_on_c, 0, 58, 88
2, 61079, Note_off_c, 0, 58, 0
2, 61080, Note_on_c, 0, 56, 88
2, 61679, Note_off_c, 0, 56, 0
2, 61680, Note_on_c, 0, 65, 88
2, 61799, Note_off_c, 0, 65, 0
2, 61800, Note_on_c, 0, 63, 88
2, 61919, Note_off_c, 0, 63, 0
2, 61920, Note_on_c, 0, 65, 88
2, 62039, Note_off_c, 0, 65, 0
2, 62040, Note_on_c, 0, 62, 88
2, 62159, Note_off_c, 0, 62, 0
2, 62160, Note_on_c, 0, 58, 88
2, 62759, Note_off_c, 0, 58, 0
2, 62760, Note_on_c, 0, 67, 88
2, 62879, Note_off_c, 0, 67, 0
2, 62880, Note_on_c, 0, 65, 88
2, 62999, Note_off_c, 0, 65, 0
2, 63000, Note_on_c, 0, 67, 88
2, 63119, Note_off_c, 0, 67, 0
2, 63120, Note_on_c, 0, 63, 88
2, 63239, Note_off_c, 0, 63, 0
2, 63240, Note_on_c, 0, 60, 88
2, 63839, Note_off_c, 0, 60, 0
2, 63840, Note_on_c, 0, 68, 88
2, 63959, Note_off_c, 0, 68, 0
2, 63960, Note_on_c, 0, 67, 88
2, 64079, Note_off_c, 0, 67, 0
2, 64080, Note_on_c, 0, 68, 88
2, 64199, Note_off_c, 0, 68, 0
2, 64200, Note_on_c, 0, 65, 88
2, 64319, Note_off_c, 0, 65, 0
2, 64320, Note_on_c, 0, 62, 88
2, 64799, Note_off_c, 0, 62, 0
2, 64800, Note_on_c, 0, 70, 88
2, 65639, Note_off_c, 0, 70, 0
2, 65640, Note_on_c, 0, 67, 88
2, 65759, Note_off_c, 0, 67, 0
2, 65760, Note_on_c, 0, 75, 88
2, 65879, Note_off_c, 0, 75, 0
2, 65880, Note_on_c, 0, 75, 88
2, 66059, Note_off_c, 0, 75, 0
2, 66060, Note_on_c, 0, 74, 88
2, 66719, Note_off_c, 0, 74, 0
2, 66720, Note_on_c, 0, 65, 88
2, 66839, Note_off_c, 0, 65, 0
2, 66840, Note_on_c, 0, 67, 88
2, 66959, Note_off_c, 0, 67, 0
2, 66960, Note_on_c, 0, 68, 88
2, 67079, Note_off_c, 0, 68, 0
2, 67080, Note_on_c, 0, 60, 88
2, 67199, Note_off_c, 0, 60, 0
2, 67200, Note_on_c, 0, 63, 88
2, 67319, Note_off_c, 0, 63, 0
2, 67320, Note_on_c, 0, 62, 88
2, 67439, Note_off_c, 0, 62, 0
2, 67440, Note_on_c, 0, 65, 88
2, 67559, Note_off_c, 0, 65, 0
2, 67560, Note_on_c, 0, 70, 88
2, 67679, Note_off_c, 0, 70, 0
2, 67680, Note_on_c, 0, 58, 88
2, 67799, Note_off_c, 0, 58, 0
2, 67800, Note_on_c, 0, 65, 88
2, 67919, Note_off_c, 0, 65, 0
2, 67920, Note_on_c, 0, 68, 88
2, 68039, Note_off_c, 0, 68, 0
2, 68040, Note_on_c, 0, 67, 88
2, 68159, Note_off_c, 0, 67, 0
2, 68160, Note_on_c, 0, 58, 88
2, 68279, Note_off_c, 0, 58, 0
2, 68280, Note_on_c, 0, 61, 88
2, 68399, Note_off_c, 0, 61, 0
2, 68400, Note_on_c, 0, 60, 88
2, 68519, Note_off_c, 0, 60, 0
2, 68520, Note_on_c, 0, 63, 88
2, 68639, Note_off_c, 0, 63, 0
2, 68640, Note_on_c, 0, 68, 88
2, 68759, Note_off_c, 0, 68, 0
2, 68760, Note_on_c, 0, 56, 88
2, 68879, Note_off_c, 0, 56, 0
2, 68880, Note_on_c, 0, 63, 88
2, 68999, Note_off_c, 0, 63, 0
2, 69000, Note_on_c, 0, 67, 88
2, 69119, Note_off_c, 0, 67, 0
2, 69120, Note_on_c, 0, 65, 88
2, 69239, Note_off_c, 0, 65, 0
2, 69240, Note_on_c, 0, 56, 88
2, 69359, Note_off_c, 0, 56, 0
2, 69360, Note_on_c, 0, 60, 88
2, 69479, Note_off_c, 0, 60, 0
2, 69480, Note_on_c, 0, 58, 88
2, 69599, Note_off_c, 0, 58, 0
2, 69600, Note_on_c, 0, 62, 88
2, 69719, Note_off_c, 0, 62, 0
2, 69720, Note_on_c, 0, 67, 88
2, 69839, Note_off_c, 0, 67, 0
2, 69840, Note_on_c, 0, 55, 88
2, 69959, Note_off_c, 0, 55, 0
2, 69960, Note_on_c, 0, 62, 88
2, 70079, Note_off_c, 0, 62, 0
2, 70080, Note_on_c, 0, 65, 88
2, 70199, Note_off_c, 0, 65, 0
2, 70200, Note_on_c, 0, 63, 88
2, 70319, Note_off_c, 0, 63, 0
2, 70320, Note_on_c, 0, 55, 88
2, 70439, Note_off_c, 0, 55, 0
2, 70440, Note_on_c, 0, 58, 88
2, 70559, Note_off_c, 0, 58, 0
2, 70560, Note_on_c, 0, 56, 88
2, 70679, Note_off_c, 0, 56, 0
2, 70680, Note_on_c, 0, 60, 88
2, 70799, Note_off_c, 0, 60, 0
2, 70800, Note_on_c, 0, 65, 88
2, 70919, Note_off_c, 0, 65, 0
2, 70920, Note_on_c, 0, 53, 88
2, 71039, Note_off_c, 0, 53, 0
2, 71040, Note_on_c, 0, 60, 88
2, 71159, Note_off_c, 0, 60, 0
2, 71160, Note_on_c, 0, 63, 88
2, 71279, Note_off_c, 0, 63, 0
2, 71280, Note_on_c, 0, 62, 88
2, 71879, Note_off_c, 0, 62, 0
2, 71880, Note_on_c, 0, 80, 88
2, 71999, Note_off_c, 0, 80, 0
2, 72000, Note_on_c, 0, 79, 88
2, 72599, Note_off_c, 0, 79, 0
2, 72600, Note_on_c, 0, 77, 88
2, 72719, Note_off_c, 0, 77, 0
2, 72720, Note_on_c, 0, 75, 88
2, 73079, Note_off_c, 0, 75, 0
2, 73080, Note_on_c, 0, 75, 88
2, 73117, Note_off_c, 0, 75, 0
2, 73118, Note_on_c, 0, 74, 88
2, 73162, Note_off_c, 0, 74, 0
2, 73163, Note_on_c, 0, 75, 88
2, 73199, Note_off_c, 0, 75, 0
2, 73200, Note_on_c, 0, 74, 88
2, 73319, Note_off_c, 0, 74, 0
2, 73320, Note_on_c, 0, 75, 88
2, 73439, Note_off_c, 0, 75, 0
2, 73440, Note_on_c, 0, 75, 88
2, 73559, Note_off_c, 0, 75, 0
2, 73560, Note_on_c, 0, 70, 88
2, 73679, Note_off_c, 0, 70, 0
2, 73680, Note_on_c, 0, 68, 88
2, 73799, Note_off_c, 0, 68, 0
2, 73800, Note_on_c, 0, 70, 88
2, 73919, Note_off_c, 0, 70, 0
2, 73920, Note_on_c, 0, 67, 88
2, 74039, Note_off_c, 0, 67, 0
2, 74040, Note_on_c, 0, 65, 88
2, 74159, Note_off_c, 0, 65, 0
2, 74160, Note_on_c, 0, 67, 88
2, 74279, Note_off_c, 0, 67, 0
2, 74280, Note_on_c, 0, 63, 88
2, 74399, Note_off_c, 0, 63, 0
2, 74400, Note_on_c, 0, 62, 88
2, 74519, Note_off_c, 0, 62, 0
2, 74520, Note_on_c, 0, 63, 88
2, 74639, Note_off_c, 0, 63, 0
2, 74640, Note_on_c, 0, 58, 88
2, 74759, Note_off_c, 0, 58, 0
2, 74760, Note_on_c, 0, 56, 88
2, 74879, Note_off_c, 0, 56, 0
2, 74880, Note_on_c, 0, 58, 88
2, 74999, Note_off_c, 0, 58, 0
2, 75000, Note_on_c, 0, 55, 88
2, 75119, Note_off_c, 0, 55, 0
2, 75120, Note_on_c, 0, 53, 88
2, 75239, Note_off_c, 0, 53, 0
2, 75240, Note_on_c, 0, 55, 88
2, 75359, Note_off_c, 0, 55, 0
2, 75360, Note_on_c, 0, 51, 88
2, 75479, Note_off_c, 0, 51, 0
2, 75480, Note_on_c, 0, 50, 88
2, 75599, Note_off_c, 0, 50, 0
2, 75600, Note_on_c, 0, 51, 88
2, 75959, Note_off_c, 0, 51, 0
2, 75960, Note_on_c, 0, 39, 88
2, 76000, Note_off_c, 0, 39, 0
2, 76000, End_track
0, 0, End_of_file