0, 0, Header, 1, 2, 240
1, 0, Start_track
1, 0, Time_signature, 4, 2, 24, 8
1, 0, Tempo, 937500
1, 0, SMPTE_offset, 64, 0, 0, 0, 100
1, 0, End_track
2, 0, Start_track
2, 0, Title_t, "Track 1"
2, 0, Program_c, 0, 6
2, 120, Note_on_c, 0, 71, 88
2, 239, Note_off_c, 0, 71, 0
2, 240, Note_on_c, 0, 73, 88
2, 539, Note_off_c, 0, 73, 0
2, 540, Note_on_c, 0, 73, 88
2, 599, Note_off_c, 0, 73, 0
2, 600, Note_on_c, 0, 71, 88
2, 659, Note_off_c, 0, 71, 0
2, 660, Note_on_c, 0, 69, 88
2, 719, Note_off_c, 0, 69, 0
2, 720, Note_on_c, 0, 71, 88
2, 1019, Note_off_c, 0, 71, 0
2, 1020, Note_on_c, 0, 71, 88
2, 1079, Note_off_c, 0, 71, 0
2, 1080, Note_on_c, 0, 76, 88
2, 1139, Note_off_c, 0, 76, 0
2, 1140, Note_on_c, 0, 75, 88
2, 1199, Note_off_c, 0, 75, 0
2, 1200, Note_on_c, 0, 73, 88
2, 1259, Note_off_c, 0, 73, 0
2, 1260, Note_on_c, 0, 71, 88
2, 1319, Note_off_c, 0, 71, 0
2, 1320, Note_on_c, 0, 69, 88
2, 1379, Note_off_c, 0, 69, 0
2, 1380, Note_on_c, 0, 68, 88
2, 1439, Note_off_c, 0, 68, 0
2, 1440, Note_on_c, 0, 69, 88
2, 2219, Note_off_c, 0, 69, 0
2, 2220, Note_on_c, 0, 69, 88
2, 2279, Note_off_c, 0, 69, 0
2, 2280, Note_on_c, 0, 68, 88
2, 2339, Note_off_c, 0, 68, 0
2, 2340, Note_on_c, 0, 66, 88
2, 2399, Note_off_c, 0, 66, 0
2, 2400, Note_on_c, 0, 68, 88
2, 2699, Note_off_c, 0, 68, 0
2, 2700, Note_on_c, 0, 68, 88
2, 2759, Note_off_c, 0, 68, 0
2, 2760, Note_on_c, 0, 66, 88
2, 2819, Note_off_c, 0, 66, 0
2, 2820, Note_on_c, 0, 64, 88
2, 2879, Note_off_c, 0, 64, 0
2, 2880, Note_on_c, 0, 63, 88
2, 3239, Note_off_c, 0, 63, 0
2, 3240, Note_on_c, 0, 75, 88
2, 3359, Note_off_c, 0, 75, 0
2, 3360, Note_on_c, 0, 76, 88
2, 3659, Note_off_c, 0, 76, 0
2, 3660, Note_on_c, 0, 76, 88
2, 3719, Note_off_c, 0, 76, 0
2, 3720, Note_on_c, 0, 75, 88
2, 3779, Note_off_c, 0, 75, 0
2, 3780, Note_on_c, 0, 73, 88
2, 3839, Note_off_c, 0, 73, 0
2, 3840, Note_on_c, 0, 75, 88
2, 4379, Note_off_c, 0, 75, 0
2, 4380, Note_on_c, 0, 75, 88
2, 4439, Note_off_c, 0, 75, 0
2, 4440, Note_on_c, 0, 73, 88
2, 4499, Note_off_c, 0, 73, 0
2, 4500, Note_on_c, 0, 71, 88
2, 4559, Note_off_c, 0, 71, 0
2, 4560, Note_on_c, 0, 73, 88
2, 5339, Note_off_c, 0, 73, 0
2, 5340, Note_on_c, 0, 73, 88
2, 5399, Note_off_c, 0, 73, 0
2, 5400, Note_on_c, 0, 71, 88
2, 5459, Note_off_c, 0, 71, 0
2, 5460, Note_on_c, 0, 70, 88
2, 5519, Note_off_c, 0, 70, 0
2, 5520, Note_on_c, 0, 71, 88
2, 5819, Note_off_c, 0, 71, 0
2, 5820, Note_on_c, 0, 69, 88
2, 5879, Note_off_c, 0, 69, 0
2, 5880, Note_on_c, 0, 68, 88
2, 5939, Note_off_c, 0, 68, 0
2, 5940, Note_on_c, 0, 66, 88
2, 5999, Note_off_c, 0, 66, 0
2, 6000, Note_on_c, 0, 65, 88
2, 6059, Note_off_c, 0, 65, 0
2, 6060, Note_on_c, 0, 68, 88
2, 6119, Note_off_c, 0, 68, 0
2, 6120, Note_on_c, 0, 71, 88
2, 6179, Note_off_c, 0, 71, 0
2, 6180, Note_on_c, 0, 74, 88
2, 6299, Note_off_c, 0, 74, 0
2, 6300, Note_on_c, 0, 74, 88
2, 6359, Note_off_c, 0, 74, 0
2, 6360, Note_on_c, 0, 73, 88
2, 6419, Note_off_c, 0, 73, 0
2, 6420, Note_on_c, 0, 71, 88
2, 6539, Note_off_c, 0, 71, 0
2, 6540, Note_on_c, 0, 69, 88
2, 6599, Note_off_c, 0, 69, 0
2, 6600, Note_on_c, 0, 68, 88
2, 6659, Note_off_c, 0, 68, 0
2, 6660, Note_on_c, 0, 71, 88
2, 6719, Note_off_c, 0, 71, 0
2, 6720, Note_on_c, 0, 69, 88
2, 6779, Note_off_c, 0, 69, 0
2, 6780, Note_on_c, 0, 73, 88
2, 6839, Note_off_c, 0, 73, 0
2, 6840, Note_on_c, 0, 78, 88
2, 6899, Note_off_c, 0, 78, 0
2, 6900, Note_on_c, 0, 81, 88
2, 7019, Note_off_c, 0, 81, 0
2, 7020, Note_on_c, 0, 78, 88
2, 7079, Note_off_c, 0, 78, 0
2, 7080, Note_on_c, 0, 80, 88
2, 7139, Note_off_c, 0, 80, 0
2, 7140, Note_on_c, 0, 81, 88
2, 7199, Note_off_c, 0, 81, 0
2, 7200, Note_on_c, 0, 72, 88
2, 7319, Note_off_c, 0, 72, 0
2, 7320, Note_on_c, 0, 73, 88
2, 7439, Note_off_c, 0, 73, 0
2, 7440, Note_on_c, 0, 75, 88
2, 8039, Note_off_c, 0, 75, 0
2, 8040, Note_on_c, 0, 68, 88
2, 8159, Note_off_c, 0, 68, 0
2, 8160, Note_on_c, 0, 73, 88
2, 8279, Note_off_c, 0, 73, 0
2, 8280, Note_on_c, 0, 76, 88
2, 8399, Note_off_c, 0, 76, 0
2, 8400, Note_on_c, 0, 70, 88
2, 8519, Note_off_c, 0, 70, 0
2, 8520, Note_on_c, 0, 71, 88
2, 8579, Note_off_c, 0, 71, 0
2, 8580, Note_on_c, 0, 73, 88
2, 8699, Note_off_c, 0, 73, 0
2, 8700, Note_on_c, 0, 65, 88
2, 8759, Note_off_c, 0, 65, 0
2, 8760, Note_on_c, 0, 66, 88
2, 8819, Note_off_c, 0, 66, 0
2, 8820, Note_on_c, 0, 68, 88
2, 8879, Note_off_c, 0, 68, 0
2, 8880, Note_on_c, 0, 70, 88
2, 8939, Note_off_c, 0, 70, 0
2, 8940, Note_on_c, 0, 71, 88
2, 8999, Note_off_c, 0, 71, 0
2, 9000, Note_on_c, 0, 73, 88
2, 9059, Note_off_c, 0, 73, 0
2, 9060, Note_on_c, 0, 75, 88
2, 9119, Note_off_c, 0, 75, 0
2, 9120, Note_on_c, 0, 76, 88
2, 9179, Note_off_c, 0, 76, 0
2, 9180, Note_on_c, 0, 75, 88
2, 9239, Note_off_c, 0, 75, 0
2, 9240, Note_on_c, 0, 76, 88
2, 9299, Note_off_c, 0, 76, 0
2, 9300, Note_on_c, 0, 73, 88
2, 9359, Note_off_c, 0, 73, 0
2, 9360, Note_on_c, 0, 75, 88
2, 10319, Note_off_c, 0, 75, 0
2, 10320, Note_on_c, 0, 74, 88
2, 10439, Note_off_c, 0, 74, 0
2, 10440, Note_on_c, 0, 71, 88
2, 10559, Note_off_c, 0, 71, 0
2, 10560, Note_on_c, 0, 68, 88
2, 10679, Note_off_c, 0, 68, 0
2, 10680, Note_on_c, 0, 71, 88
2, 10859, Note_off_c, 0, 71, 0
2, 10860, Note_on_c, 0, 71, 88
2, 10919, Note_off_c, 0, 71, 0
2, 10920, Note_on_c, 0, 70, 88
2, 10979, Note_off_c, 0, 70, 0
2, 10980, Note_on_c, 0, 68, 88
2, 11039, Note_off_c, 0, 68, 0
2, 11040, Note_on_c, 0, 70, 88
2, 11099, Note_off_c, 0, 70, 0
2, 11100, Note_on_c, 0, 71, 88
2, 11159, Note_off_c, 0, 71, 0
2, 11160, Note_on_c, 0, 73, 88
2, 11219, Note_off_c, 0, 73, 0
2, 11220, Note_on_c, 0, 70, 88
2, 11279, Note_off_c, 0, 70, 0
2, 11280, Note_on_c, 0, 66, 88
2, 11399, Note_off_c, 0, 66, 0
2, 11400, Note_on_c, 0, 78, 88
2, 11579, Note_off_c, 0, 78, 0
2, 11580, Note_on_c, 0, 76, 88
2, 11639, Note_off_c, 0, 76, 0
2, 11640, Note_on_c, 0, 80, 88
2, 11699, Note_off_c, 0, 80, 0
2, 11700, Note_on_c, 0, 78, 88
2, 11759, Note_off_c, 0, 78, 0
2, 11760, Note_on_c, 0, 76, 88
2, 11819, Note_off_c, 0, 76, 0
2, 11820, Note_on_c, 0, 75, 88
2, 11879, Note_off_c, 0, 75, 0
2, 11880, Note_on_c, 0, 73, 88
2, 11939, Note_off_c, 0, 73, 0
2, 11940, Note_on_c, 0, 71, 88
2, 11999, Note_off_c, 0, 71, 0
2, 12000, Note_on_c, 0, 75, 88
2, 12059, Note_off_c, 0, 75, 0
2, 12060, Note_on_c, 0, 66, 88
2, 12119, Note_off_c, 0, 66, 0
2, 12120, Note_on_c, 0, 73, 88
2, 12179, Note_off_c, 0, 73, 0
2, 12180, Note_on_c, 0, 64, 88
2, 12239, Note_off_c, 0, 64, 0
2, 12240, Note_on_c, 0, 63, 88
2, 12299, Note_off_c, 0, 63, 0
2, 12300, Note_on_c, 0, 66, 88
2, 12359, Note_off_c, 0, 66, 0
2, 12360, Note_on_c, 0, 71, 88
2, 12419, Note_off_c, 0, 71, 0
2, 12420, Note_on_c, 0, 70, 88
2, 12479, Note_off_c, 0, 70, 0
2, 12480, Note_on_c, 0, 71, 88
2, 12719, Note_off_c, 0, 71, 0
2, 12720, Note_on_c, 0, 68, 88
2, 12959, Note_off_c, 0, 68, 0
2, 12960, Note_on_c, 0, 66, 88
2, 13019, Note_off_c, 0, 66, 0
2, 13020, Note_on_c, 0, 68, 88
2, 13079, Note_off_c, 0, 68, 0
2, 13080, Note_on_c, 0, 69, 88
2, 13139, Note_off_c, 0, 69, 0
2, 13140, Note_on_c, 0, 68, 88
2, 13199, Note_off_c, 0, 68, 0
2, 13200, Note_on_c, 0, 69, 88
2, 13439, Note_off_c, 0, 69, 0
2, 13440, Note_on_c, 0, 66, 88
2, 13679, Note_off_c, 0, 66, 0
2, 13680, Note_on_c, 0, 64, 88
2, 13739, Note_off_c, 0, 64, 0
2, 13740, Note_on_c, 0, 66, 88
2, 13799, Note_off_c, 0, 66, 0
2, 13800, Note_on_c, 0, 67, 88
2, 13859, Note_off_c, 0, 67, 0
2, 13860, Note_on_c, 0, 66, 88
2, 13919, Note_off_c, 0, 66, 0
2, 13920, Note_on_c, 0, 67, 88
2, 14159, Note_off_c, 0, 67, 0
2, 14160, Note_on_c, 0, 64, 88
2, 14519, Note_off_c, 0, 64, 0
2, 14520, Note_on_c, 0, 73, 88
2, 14639, Note_off_c, 0, 73, 0
2, 14640, Note_on_c, 0, 73, 88
2, 14759, Note_off_c, 0, 73, 0
2, 14760, Note_on_c, 0, 64, 88
2, 14879, Note_off_c, 0, 64, 0
2, 14880, Note_on_c, 0, 63, 88
2, 14999, Note_off_c, 0, 63, 0
2, 15000, Note_on_c, 0, 78, 88
2, 15119, Note_off_c, 0, 78, 0
2, 15120, Note_on_c, 0, 78, 88
2, 15239, Note_off_c, 0, 78, 0
2, 15240, Note_on_c, 0, 71, 88
2, 15359, Note_off_c, 0, 71, 0
2, 15360, Note_on_c, 0, 70, 88
2, 15479, Note_off_c, 0, 70, 0
2, 15480, Note_on_c, 0, 76, 88
2, 15599, Note_off_c, 0, 76, 0
2, 15600, Note_on_c, 0, 76, 88
2, 15719, Note_off_c, 0, 76, 0
2, 15720, Note_on_c, 0, 66, 88
2, 15839, Note_off_c, 0, 66, 0
2, 15840, Note_on_c, 0, 66, 88
2, 16199, Note_off_c, 0, 66, 0
2, 16200, Note_on_c, 0, 68, 88
2, 16259, Note_off_c, 0, 68, 0
2, 16260, Note_on_c, 0, 71, 88
2, 16379, Note_off_c, 0, 71, 0
2, 16380, Note_on_c, 0, 71, 88
2, 16499, Note_off_c, 0, 71, 0
2, 16500, Note_on_c, 0, 70, 88
2, 16559, Note_off_c, 0, 70, 0
2, 16560, Note_on_c, 0, 71, 88
2, 16679, Note_off_c, 0, 71, 0
2, 16680, Note_on_c, 0, 64, 88
2, 16799, Note_off_c, 0, 64, 0
2, 16800, Note_on_c, 0, 63, 88
2, 16919, Note_off_c, 0, 63, 0
2, 16920, Note_on_c, 0, 61, 88
2, 17039, Note_off_c, 0, 61, 0
2, 17040, Note_on_c, 0, 63, 88
2, 17399, Note_off_c, 0, 63, 0
2, 17400, Note_on_c, 0, 71, 88
2, 17519, Note_off_c, 0, 71, 0
2, 17520, Note_on_c, 0, 73, 88
2, 17819, Note_off_c, 0, 73, 0
2, 17820, Note_on_c, 0, 73, 88
2, 17879, Note_off_c, 0, 73, 0
2, 17880, Note_on_c, 0, 71, 88
2, 17939, Note_off_c, 0, 71, 0
2, 17940, Note_on_c, 0, 69, 88
2, 17999, Note_off_c, 0, 69, 0
2, 18000, Note_on_c, 0, 71, 88
2, 18299, Note_off_c, 0, 71, 0
2, 18300, Note_on_c, 0, 71, 88
2, 18359, Note_off_c, 0, 71, 0
2, 18360, Note_on_c, 0, 76, 88
2, 18419, Note_off_c, 0, 76, 0
2, 18420, Note_on_c, 0, 75, 88
2, 18479, Note_off_c, 0, 75, 0
2, 18480, Note_on_c, 0, 73, 88
2, 18539, Note_off_c, 0, 73, 0
2, 18540, Note_on_c, 0, 71, 88
2, 18599, Note_off_c, 0, 71, 0
2, 18600, Note_on_c, 0, 69, 88
2, 18659, Note_off_c, 0, 69, 0
2, 18660, Note_on_c, 0, 68, 88
2, 18719, Note_off_c, 0, 68, 0
2, 18720, Note_on_c, 0, 69, 88
2, 19499, Note_off_c, 0, 69, 0
2, 19500, Note_on_c, 0, 69, 88
2, 19559, Note_off_c, 0, 69, 0
2, 19560, Note_on_c, 0, 68, 88
2, 19619, Note_off_c, 0, 68, 0
2, 19620, Note_on_c, 0, 66, 88
2, 19679, Note_off_c, 0, 66, 0
2, 19680, Note_on_c, 0, 68, 88
2, 19979, Note_off_c, 0, 68, 0
2, 19980, Note_on_c, 0, 68, 88
2, 20039, Note_off_c, 0, 68, 0
2, 20040, Note_on_c, 0, 66, 88
2, 20099, Note_off_c, 0, 66, 0
2, 20100, Note_on_c, 0, 64, 88
2, 20159, Note_off_c, 0, 64, 0
2, 20160, Note_on_c, 0, 63, 88
2, 20519, Note_off_c, 0, 63, 0
2, 20520, Note_on_c, 0, 75, 88
2, 20639, Note_off_c, 0, 75, 0
2, 20640, Note_on_c, 0, 76, 88
2, 20939, Note_off_c, 0, 76, 0
2, 20940, Note_on_c, 0, 76, 88
2, 20999, Note_off_c, 0, 76, 0
2, 21000, Note_on_c, 0, 75, 88
2, 21059, Note_off_c, 0, 75, 0
2, 21060, Note_on_c, 0, 73, 88
2, 21119, Note_off_c, 0, 73, 0
2, 21120, Note_on_c, 0, 75, 88
2, 21659, Note_off_c, 0, 75, 0
2, 21660, Note_on_c, 0, 75, 88
2, 21719, Note_off_c, 0, 75, 0
2, 21720, Note_on_c, 0, 73, 88
2, 21779, Note_off_c, 0, 73, 0
2, 21780, Note_on_c, 0, 71, 88
2, 21839, Note_off_c, 0, 71, 0
2, 21840, Note_on_c, 0, 73, 88
2, 22619, Note_off_c, 0, 73, 0
2, 22620, Note_on_c, 0, 73, 88
2, 22679, Note_off_c, 0, 73, 0
2, 22680, Note_on_c, 0, 71, 88
2, 22739, Note_off_c, 0, 71, 0
2, 22740, Note_on_c, 0, 70, 88
2, 22799, Note_off_c, 0, 70, 0
2, 22800, Note_on_c, 0, 71, 88
2, 23099, Note_off_c, 0, 71, 0
2, 23100, Note_on_c, 0, 69, 88
2, 23159, Note_off_c, 0, 69, 0
2, 23160, Note_on_c, 0, 68, 88
2, 23219, Note_off_c, 0, 68, 0
2, 23220, Note_on_c, 0, 66, 88
2, 23279, Note_off_c, 0, 66, 0
2, 23280, Note_on_c, 0, 65, 88
2, 23339, Note_off_c, 0, 65, 0
2, 23340, Note_on_c, 0, 68, 88
2, 23399, Note_off_c, 0, 68, 0
2, 23400, Note_on_c, 0, 71, 88
2, 23459, Note_off_c, 0, 71, 0
2, 23460, Note_on_c, 0, 74, 88
2, 23579, Note_off_c, 0, 74, 0
2, 23580, Note_on_c, 0, 74, 88
2, 23639, Note_off_c, 0, 74, 0
2, 23640, Note_on_c, 0, 73, 88
2, 23699, Note_off_c, 0, 73, 0
2, 23700, Note_on_c, 0, 71, 88
2, 23819, Note_off_c, 0, 71, 0
2, 23820, Note_on_c, 0, 69, 88
2, 23879, Note_off_c, 0, 69, 0
2, 23880, Note_on_c, 0, 68, 88
2, 23939, Note_off_c, 0, 68, 0
2, 23940, Note_on_c, 0, 71, 88
2, 23999, Note_off_c, 0, 71, 0
2, 24000, Note_on_c, 0, 69, 88
2, 24059, Note_off_c, 0, 69, 0
2, 24060, Note_on_c, 0, 73, 88
2, 24119, Note_off_c, 0, 73, 0
2, 24120, Note_on_c, 0, 78, 88
2, 24179, Note_off_c, 0, 78, 0
2, 24180, Note_on_c, 0, 81, 88
2, 24299, Note_off_c, 0, 81, 0
2, 24300, Note_on_c, 0, 78, 88
2, 24359, Note_off_c, 0, 78, 0
2, 24360, Note_on_c, 0, 80, 88
2, 24419, Note_off_c, 0, 80, 0
2, 24420, Note_on_c, 0, 81, 88
2, 24479, Note_off_c, 0, 81, 0
2, 24480, Note_on_c, 0, 72, 88
2, 24599, Note_off_c, 0, 72, 0
2, 24600, Note_on_c, 0, 73, 88
2, 24719, Note_off_c, 0, 73, 0
2, 24720, Note_on_c, 0, 75, 88
2, 25319, Note_off_c, 0, 75, 0
2, 25320, Note_on_c, 0, 68, 88
2, 25439, Note_off_c, 0, 68, 0
2, 25440, Note_on_c, 0, 73, 88
2, 25559, Note_off_c, 0, 73, 0
2, 25560, Note_on_c, 0, 76, 88
2, 25679, Note_off_c, 0, 76, 0
2, 25680, Note_on_c, 0, 70, 88
2, 25799, Note_off_c, 0, 70, 0
2, 25800, Note_on_c, 0, 71, 88
2, 25859, Note_off_c, 0, 71, 0
2, 25860, Note_on_c, 0, 73, 88
2, 25979, Note_off_c, 0, 73, 0
2, 25980, Note_on_c, 0, 65, 88
2, 26039, Note_off_c, 0, 65, 0
2, 26040, Note_on_c, 0, 66, 88
2, 26099, Note_off_c, 0, 66, 0
2, 26100, Note_on_c, 0, 68, 88
2, 26159, Note_off_c, 0, 68, 0
2, 26160, Note_on_c, 0, 70, 88
2, 26219, Note_off_c, 0, 70, 0
2, 26220, Note_on_c, 0, 71, 88
2, 26279, Note_off_c, 0, 71, 0
2, 26280, Note_on_c, 0, 73, 88
2, 26339, Note_off_c, 0, 73, 0
2, 26340, Note_on_c, 0, 75, 88
2, 26399, Note_off_c, 0, 75, 0
2, 26400, Note_on_c, 0, 76, 88
2, 26459, Note_off_c, 0, 76, 0
2, 26460, Note_on_c, 0, 75, 88
2, 26519, Note_off_c, 0, 75, 0
2, 26520, Note_on_c, 0, 76, 88
2, 26579, Note_off_c, 0, 76, 0
2, 26580, Note_on_c, 0, 73, 88
2, 26639, Note_off_c, 0, 73, 0
2, 26640, Note_on_c, 0, 75, 88
2, 27599, Note_off_c, 0, 75, 0
2, 27600, Note_on_c, 0, 74, 88
2, 27719, Note_off_c, 0, 74, 0
2, 27720, Note_on_c, 0, 71, 88
2, 27839, Note_off_c, 0, 71, 0
2, 27840, Note_on_c, 0, 68, 88
2, 27959, Note_off_c, 0, 68, 0
2, 27960, Note_on_c, 0, 71, 88
2, 28139, Note_off_c, 0, 71, 0
2, 28140, Note_on_c, 0, 71, 88
2, 28199, Note_off_c, 0, 71, 0
2, 28200, Note_on_c, 0, 70, 88
2, 28259, Note_off_c, 0, 70, 0
2, 28260, Note_on_c, 0, 68, 88
2, 28319, Note_off_c, 0, 68, 0
2, 28320, Note_on_c, 0, 70, 88
2, 28379, Note_off_c, 0, 70, 0
2, 28380, Note_on_c, 0, 71, 88
2, 28439, Note_off_c, 0, 71, 0
2, 28440, Note_on_c, 0, 73, 88
2, 28499, Note_off_c, 0, 73, 0
2, 28500, Note_on_c, 0, 70, 88
2, 28559, Note_off_c, 0, 70, 0
2, 28560, Note_on_c, 0, 66, 88
2, 28679, Note_off_c, 0, 66, 0
2, 28680, Note_on_c, 0, 78, 88
2, 28859, Note_off_c, 0, 78, 0
2, 28860, Note_on_c, 0, 76, 88
2, 28919, Note_off_c, 0, 76, 0
2, 28920, Note_on_c, 0, 80, 88
2, 28979, Note_off_c, 0, 80, 0
2, 28980, Note_on_c, 0, 78, 88
2, 29039, Note_off_c, 0, 78, 0
2, 29040, Note_on_c, 0, 76, 88
2, 29099, Note_off_c, 0, 76, 0
2, 29100, Note_on_c, 0, 75, 88
2, 29159, Note_off_c, 0, 75, 0
2, 29160, Note_on_c, 0, 73, 88
2, 29219, Note_off_c, 0, 73, 0
2, 29220, Note_on_c, 0, 71, 88
2, 29279, Note_off_c, 0, 71, 0
2, 29280, Note_on_c, 0, 75, 88
2, 29339, Note_off_c, 0, 75, 0
2, 29340, Note_on_c, 0, 66, 88
2, 29399, Note_off_c, 0, 66, 0
2, 29400, Note_on_c, 0, 73, 88
2, 29459, Note_off_c, 0, 73, 0
2, 29460, Note_on_c, 0, 64, 88
2, 29519, Note_off_c, 0, 64, 0
2, 29520, Note_on_c, 0, 63, 88
2, 29579, Note_off_c, 0, 63, 0
2, 29580, Note_on_c, 0, 66, 88
2, 29639, Note_off_c, 0, 66, 0
2, 29640, Note_on_c, 0, 71, 88
2, 29699, Note_off_c, 0, 71, 0
2, 29700, Note_on_c, 0, 70, 88
2, 29759, Note_off_c, 0, 70, 0
2, 29760, Note_on_c, 0, 71, 88
2, 29999, Note_off_c, 0, 71, 0
2, 30000, Note_on_c, 0, 68, 88
2, 30239, Note_off_c, 0, 68, 0
2, 30240, Note_on_c, 0, 66, 88
2, 30299, Note_off_c, 0, 66, 0
2, 30300, Note_on_c, 0, 68, 88
2, 30359, Note_off_c, 0, 68, 0
2, 30360, Note_on_c, 0, 69, 88
2, 30419, Note_off_c, 0, 69, 0
2, 30420, Note_on_c, 0, 68, 88
2, 30479, Note_off_c, 0, 68, 0
2, 30480, Note_on_c, 0, 69, 88
2, 30719, Note_off_c, 0, 69, 0
2, 30720, Note_on_c, 0, 66, 88
2, 30959, Note_off_c, 0, 66, 0
2, 30960, Note_on_c, 0, 64, 88
2, 31019, Note_off_c, 0, 64, 0
2, 31020, Note_on_c, 0, 66, 88
2, 31079, Note_off_c, 0, 66, 0
2, 31080, Note_on_c, 0, 67, 88
2, 31139, Note_off_c, 0, 67, 0
2, 31140, Note_on_c, 0, 66, 88
2, 31199, Note_off_c, 0, 66, 0
2, 31200, Note_on_c, 0, 67, 88
2, 31439, Note_off_c, 0, 67, 0
2, 31440, Note_on_c, 0, 64, 88
2, 31799, Note_off_c, 0, 64, 0
2, 31800, Note_on_c, 0, 73, 88
2, 31919, Note_off_c, 0, 73, 0
2, 31920, Note_on_c, 0, 73, 88
2, 32039, Note_off_c, 0, 73, 0
2, 32040, Note_on_c, 0, 64, 88
2, 32159, Note_off_c, 0, 64, 0
2, 32160, Note_on_c, 0, 63, 88
2, 32279, Note_off_c, 0, 63, 0
2, 32280, Note_on_c, 0, 78, 88
2, 32399, Note_off_c, 0, 78, 0
2, 32400, Note_on_c, 0, 78, 88
2, 32519, Note_off_c, 0, 78, 0
2, 32520, Note_on_c, 0, 71, 88
2, 32639, Note_off_c, 0, 71, 0
2, 32640, Note_on_c, 0, 70, 88
2, 32759, Note_off_c, 0, 70, 0
2, 32760, Note_on_c, 0, 76, 88
2, 32879, Note_off_c, 0, 76, 0
2, 32880, Note_on_c, 0, 76, 88
2, 32999, Note_off_c, 0, 76, 0
2, 33000, Note_on_c, 0, 66, 88
2, 33119, Note_off_c, 0, 66, 0
2, 33120, Note_on_c, 0, 66, 88
2, 33479, Note_off_c, 0, 66, 0
2, 33480, Note_on_c, 0, 68, 88
2, 33539, Note_off_c, 0, 68, 0
2, 33540, Note_on_c, 0, 71, 88
2, 33659, Note_off_c, 0, 71, 0
2, 33660, Note_on_c, 0, 71, 88
2, 33779, Note_off_c, 0, 71, 0
2, 33780, Note_on_c, 0, 70, 88
2, 33839, Note_off_c, 0, 70, 0
2, 33840, Note_on_c, 0, 71, 88
2, 33959, Note_off_c, 0, 71, 0
2, 33960, Note_on_c, 0, 64, 88
2, 34079, Note_off_c, 0, 64, 0
2, 34080, Note_on_c, 0, 63, 88
2, 34199, Note_off_c, 0, 63, 0
2, 34200, Note_on_c, 0, 61, 88
2, 34319, Note_off_c, 0, 61, 0
2, 34320, Note_on_c, 0, 63, 88
2, 34679, Note_off_c, 0, 63, 0
2, 34680, Note_on_c, 0, 78, 88
2, 34799, Note_off_c, 0, 78, 0
2, 34800, Note_on_c, 0, 80, 88
2, 35099, Note_off_c, 0, 80, 0
2, 35100, Note_on_c, 0, 80, 88
2, 35159, Note_off_c, 0, 80, 0
2, 35160, Note_on_c, 0, 78, 88
2, 35219, Note_off_c, 0, 78, 0
2, 35220, Note_on_c, 0, 76, 88
2, 35279, Note_off_c, 0, 76, 0
2, 35280, Note_on_c, 0, 78, 88
2, 35579, Note_off_c, 0, 78, 0
2, 35580, Note_on_c, 0, 78, 88
2, 35639, Note_off_c, 0, 78, 0
2, 35640, Note_on_c, 0, 80, 88
2, 35699, Note_off_c, 0, 80, 0
2, 35700, Note_on_c, 0, 81, 88
2, 35759, Note_off_c, 0, 81, 0
2, 35760, Note_on_c, 0, 80, 88
2, 35819, Note_off_c, 0, 80, 0
2, 35820, Note_on_c, 0, 78, 88
2, 35879, Note_off_c, 0, 78, 0
2, 35880, Note_on_c, 0, 76, 88
2, 35939, Note_off_c, 0, 76, 0
2, 35940, Note_on_c, 0, 75, 88
2, 35999, Note_off_c, 0, 75, 0
2, 36000, Note_on_c, 0, 76, 88
2, 36359, Note_off_c, 0, 76, 0
2, 36360, Note_on_c, 0, 76, 88
2, 36479, Note_off_c, 0, 76, 0
2, 36480, Note_on_c, 0, 75, 88
2, 36599, Note_off_c, 0, 75, 0
2, 36600, Note_on_c, 0, 73, 88
2, 36719, Note_off_c, 0, 73, 0
2, 36720, Note_on_c, 0, 72, 88
2, 37499, Note_off_c, 0, 72, 0
2, 37500, Note_on_c, 0, 73, 88
2, 37559, Note_off_c, 0, 73, 0
2, 37560, Note_on_c, 0, 68, 88
2, 37619, Note_off_c, 0, 68, 0
2, 37620, Note_on_c, 0, 67, 88
2, 37679, Note_off_c, 0, 67, 0
2, 37680, Note_on_c, 0, 68, 88
2, 37739, Note_off_c, 0, 68, 0
2, 37740, Note_on_c, 0, 72, 88
2, 37799, Note_off_c, 0, 72, 0
2, 37800, Note_on_c, 0, 73, 88
2, 37859, Note_off_c, 0, 73, 0
2, 37860, Note_on_c, 0, 75, 88
2, 37919, Note_off_c, 0, 75, 0
2, 37920, Note_on_c, 0, 76, 88
2, 37979, Note_off_c, 0, 76, 0
2, 37980, Note_on_c, 0, 75, 88
2, 38039, Note_off_c, 0, 75, 0
2, 38040, Note_on_c, 0, 76, 88
2, 38099, Note_off_c, 0, 76, 0
2, 38100, Note_on_c, 0, 73, 88
2, 38159, Note_off_c, 0, 73, 0
2, 38160, Note_on_c, 0, 75, 88
2, 38219, Note_off_c, 0, 75, 0
2, 38220, Note_on_c, 0, 72, 88
2, 38279, Note_off_c, 0, 72, 0
2, 38280, Note_on_c, 0, 68, 88
2, 38339, Note_off_c, 0, 68, 0
2, 38340, Note_on_c, 0, 67, 88
2, 38399, Note_off_c, 0, 67, 0
2, 38400, Note_on_c, 0, 68, 88
2, 38459, Note_off_c, 0, 68, 0
2, 38460, Note_on_c, 0, 72, 88
2, 38519, Note_off_c, 0, 72, 0
2, 38520, Note_on_c, 0, 75, 88
2, 38579, Note_off_c, 0, 75, 0
2, 38580, Note_on_c, 0, 76, 88
2, 38639, Note_off_c, 0, 76, 0
2, 38640, Note_on_c, 0, 78, 88
2, 38699, Note_off_c, 0, 78, 0
2, 38700, Note_on_c, 0, 76, 88
2, 38759, Note_off_c, 0, 76, 0
2, 38760, Note_on_c, 0, 78, 88
2, 38819, Note_off_c, 0, 78, 0
2, 38820, Note_on_c, 0, 75, 88
2, 38879, Note_off_c, 0, 75, 0
2, 38880, Note_on_c, 0, 76, 88
2, 39299, Note_off_c, 0, 76, 0
2, 39300, Note_on_c, 0, 75, 88
2, 39419, Note_off_c, 0, 75, 0
2, 39420, Note_on_c, 0, 73, 88
2, 39539, Note_off_c, 0, 73, 0
2, 39540, Note_on_c, 0, 72, 88
2, 39599, Note_off_c, 0, 72, 0
2, 39600, Note_on_c, 0, 73, 88
2, 40379, Note_off_c, 0, 73, 0
2, 40380, Note_on_c, 0, 76, 88
2, 40439, Note_off_c, 0, 76, 0
2, 40440, Note_on_c, 0, 75, 88
2, 40499, Note_off_c, 0, 75, 0
2, 40500, Note_on_c, 0, 73, 88
2, 40559, Note_off_c, 0, 73, 0
2, 40560, Note_on_c, 0, 71, 88
2, 40619, Note_off_c, 0, 71, 0
2, 40620, Note_on_c, 0, 70, 88
2, 40679, Note_off_c, 0, 70, 0
2, 40680, Note_on_c, 0, 71, 88
2, 40739, Note_off_c, 0, 71, 0
2, 40740, Note_on_c, 0, 73, 88
2, 40799, Note_off_c, 0, 73, 0
2, 40800, Note_on_c, 0, 75, 88
2, 40859, Note_off_c, 0, 75, 0
2, 40860, Note_on_c, 0, 76, 88
2, 40919, Note_off_c, 0, 76, 0
2, 40920, Note_on_c, 0, 78, 88
2, 40949, Note_off_c, 0, 78, 0
2, 40950, Note_on_c, 0, 76, 88
2, 40979, Note_off_c, 0, 76, 0
2, 40980, Note_on_c, 0, 75, 88
2, 41009, Note_off_c, 0, 75, 0
2, 41010, Note_on_c, 0, 76, 88
2, 41039, Note_off_c, 0, 76, 0
2, 41040, Note_on_c, 0, 78, 88
2, 41099, Note_off_c, 0, 78, 0
2, 41100, Note_on_c, 0, 80, 88
2, 41159, Note_off_c, 0, 80, 0
2, 41160, Note_on_c, 0, 78, 88
2, 41219, Note_off_c, 0, 78, 0
2, 41220, Note_on_c, 0, 76, 88
2, 41279, Note_off_c, 0, 76, 0
2, 41280, Note_on_c, 0, 75, 88
2, 41339, Note_off_c, 0, 75, 0
2, 41340, Note_on_c, 0, 73, 88
2, 41399, Note_off_c, 0, 73, 0
2, 41400, Note_on_c, 0, 75, 88
2, 41459, Note_off_c, 0, 75, 0
2, 41460, Note_on_c, 0, 76, 88
2, 41519, Note_off_c, 0, 76, 0
2, 41520, Note_on_c, 0, 78, 88
2, 41579, Note_off_c, 0, 78, 0
2, 41580, Note_on_c, 0, 80, 88
2, 41639, Note_off_c, 0, 80, 0
2, 41640, Note_on_c, 0, 81, 88
2, 41669, Note_off_c, 0, 81, 0
2, 41670, Note_on_c, 0, 80, 88
2, 41699, Note_off_c, 0, 80, 0
2, 41700, Note_on_c, 0, 78, 88
2, 41729, Note_off_c, 0, 78, 0
2, 41730, Note_on_c, 0, 80, 88
2, 41759, Note_off_c, 0, 80, 0
2, 41760, Note_on_c, 0, 81, 88
2, 41819, Note_off_c, 0, 81, 0
2, 41820, Note_on_c, 0, 73, 88
2, 41879, Note_off_c, 0, 73, 0
2, 41880, Note_on_c, 0, 71, 88
2, 41939, Note_off_c, 0, 71, 0
2, 41940, Note_on_c, 0, 70, 88
2, 41999, Note_off_c, 0, 70, 0
2, 42000, Note_on_c, 0, 71, 88
2, 42059, Note_off_c, 0, 71, 0
2, 42060, Note_on_c, 0, 81, 88
2, 42119, Note_off_c, 0, 81, 0
2, 42120, Note_on_c, 0, 80, 88
2, 42179, Note_off_c, 0, 80, 0
2, 42180, Note_on_c, 0, 78, 88
2, 42239, Note_off_c, 0, 78, 0
2, 42240, Note_on_c, 0, 83, 88
2, 42299, Note_off_c, 0, 83, 0
2, 42300, Note_on_c, 0, 76, 88
2, 42359, Note_off_c, 0, 76, 0
2, 42360, Note_on_c, 0, 75, 88
2, 42419, Note_off_c, 0, 75, 0
2, 42420, Note_on_c, 0, 81, 88
2, 42479, Note_off_c, 0, 81, 0
2, 42480, Note_on_c, 0, 80, 88
2, 43259, Note_off_c, 0, 80, 0
2, 43260, Note_on_c, 0, 80, 88
2, 43319, Note_off_c, 0, 80, 0
2, 43320, Note_on_c, 0, 78, 88
2, 43379, Note_off_c, 0, 78, 0
2, 43380, Note_on_c, 0, 76, 88
2, 43439, Note_off_c, 0, 76, 0
2, 43440, Note_on_c, 0, 78, 88
2, 43559, Note_off_c, 0, 78, 0
2, 43560, Note_on_c, 0, 81, 88
2, 43799, Note_off_c, 0, 81, 0
2, 43800, Note_on_c, 0, 75, 88
2, 43979, Note_off_c, 0, 75, 0
2, 43980, Note_on_c, 0, 78, 88
2, 44039, Note_off_c, 0, 78, 0
2, 44040, Note_on_c, 0, 76, 88
2, 44099, Note_off_c, 0, 76, 0
2, 44100, Note_on_c, 0, 75, 88
2, 44159, Note_off_c, 0, 75, 0
2, 44160, Note_on_c, 0, 76, 88
2, 44279, Note_off_c, 0, 76, 0
2, 44280, Note_on_c, 0, 80, 88
2, 44519, Note_off_c, 0, 80, 0
2, 44520, Note_on_c, 0, 73, 88
2, 44699, Note_off_c, 0, 73, 0
2, 44700, Note_on_c, 0, 76, 88
2, 44759, Note_off_c, 0, 76, 0
2, 44760, Note_on_c, 0, 75, 88
2, 44819, Note_off_c, 0, 75, 0
2, 44820, Note_on_c, 0, 73, 88
2, 44879, Note_off_c, 0, 73, 0
2, 44880, Note_on_c, 0, 75, 88
2, 44999, Note_off_c, 0, 75, 0
2, 45000, Note_on_c, 0, 78, 88
2, 45119, Note_off_c, 0, 78, 0
2, 45120, Note_on_c, 0, 78, 88
2, 45239, Note_off_c, 0, 78, 0
2, 45240, Note_on_c, 0, 69, 88
2, 45359, Note_off_c, 0, 69, 0
2, 45360, Note_on_c, 0, 69, 88
2, 45479, Note_off_c, 0, 69, 0
2, 45480, Note_on_c, 0, 68, 88
2, 45539, Note_off_c, 0, 68, 0
2, 45540, Note_on_c, 0, 66, 88
2, 45599, Note_off_c, 0, 66, 0
2, 45600, Note_on_c, 0, 68, 88
2, 46139, Note_off_c, 0, 68, 0
2, 46140, Note_on_c, 0, 68, 88
2, 46199, Note_off_c, 0, 68, 0
2, 46200, Note_on_c, 0, 66, 88
2, 46259, Note_off_c, 0, 66, 0
2, 46260, Note_on_c, 0, 64, 88
2, 46319, Note_off_c, 0, 64, 0
2, 46320, Note_on_c, 0, 63, 88
2, 46379, Note_off_c, 0, 63, 0
2, 46380, Note_on_c, 0, 61, 88
2, 46439, Note_off_c, 0, 61, 0
2, 46440, Note_on_c, 0, 63, 88
2, 46499, Note_off_c, 0, 63, 0
2, 46500, Note_on_c, 0, 64, 88
2, 46559, Note_off_c, 0, 64, 0
2, 46560, Note_on_c, 0, 66, 88
2, 46619, Note_off_c, 0, 66, 0
2, 46620, Note_on_c, 0, 68, 88
2, 46679, Note_off_c, 0, 68, 0
2, 46680, Note_on_c, 0, 69, 88
2, 46709, Note_off_c, 0, 69, 0
2, 46710, Note_on_c, 0, 68, 88
2, 46739, Note_off_c, 0, 68, 0
2, 46740, Note_on_c, 0, 66, 88
2, 46769, Note_off_c, 0, 66, 0
2, 46770, Note_on_c, 0, 68, 88
2, 46799, Note_off_c, 0, 68, 0
2, 46800, Note_on_c, 0, 69, 88
2, 47639, Note_off_c, 0, 69, 0
2, 47640, Note_on_c, 0, 78, 88
2, 47759, Note_off_c, 0, 78, 0
2, 47760, Note_on_c, 0, 78, 88
2, 47879, Note_off_c, 0, 78, 0
2, 47880, Note_on_c, 0, 69, 88
2, 47999, Note_off_c, 0, 69, 0
2, 48000, Note_on_c, 0, 68, 88
2, 48119, Note_off_c, 0, 68, 0
2, 48120, Note_on_c, 0, 83, 88
2, 48239, Note_off_c, 0, 83, 0
2, 48240, Note_on_c, 0, 83, 88
2, 48359, Note_off_c, 0, 83, 0
2, 48360, Note_on_c, 0, 76, 88
2, 48479, Note_off_c, 0, 76, 0
2, 48480, Note_on_c, 0, 75, 88
2, 48599, Note_off_c, 0, 75, 0
2, 48600, Note_on_c, 0, 81, 88
2, 48719, Note_off_c, 0, 81, 0
2, 48720, Note_on_c, 0, 81, 88
2, 48839, Note_off_c, 0, 81, 0
2, 48840, Note_on_c, 0, 71, 88
2, 48959, Note_off_c, 0, 71, 0
2, 48960, Note_on_c, 0, 71, 88
2, 49319, Note_off_c, 0, 71, 0
2, 49320, Note_on_c, 0, 73, 88
2, 49379, Note_off_c, 0, 73, 0
2, 49380, Note_on_c, 0, 76, 88
2, 49499, Note_off_c, 0, 76, 0
2, 49500, Note_on_c, 0, 76, 88
2, 49619, Note_off_c, 0, 76, 0
2, 49620, Note_on_c, 0, 75, 88
2, 49739, Note_off_c, 0, 75, 0
2, 49740, Note_on_c, 0, 71, 88
2, 49799, Note_off_c, 0, 71, 0
2, 49800, Note_on_c, 0, 76, 88
2, 49859, Note_off_c, 0, 76, 0
2, 49860, Note_on_c, 0, 75, 88
2, 49919, Note_off_c, 0, 75, 0
2, 49920, Note_on_c, 0, 76, 88
2, 50159, Note_off_c, 0, 76, 0
2, 50160, Note_on_c, 0, 73, 88
2, 50399, Note_off_c, 0, 73, 0
2, 50400, Note_on_c, 0, 71, 88
2, 50459, Note_off_c, 0, 71, 0
2, 50460, Note_on_c, 0, 73, 88
2, 50519, Note_off_c, 0, 73, 0
2, 50520, Note_on_c, 0, 74, 88
2, 50579, Note_off_c, 0, 74, 0
2, 50580, Note_on_c, 0, 73, 88
2, 50639, Note_off_c, 0, 73, 0
2, 50640, Note_on_c, 0, 74, 88
2, 50879, Note_off_c, 0, 74, 0
2, 50880, Note_on_c, 0, 71, 88
2, 51119, Note_off_c, 0, 71, 0
2, 51120, Note_on_c, 0, 69, 88
2, 51179, Note_off_c, 0, 69, 0
2, 51180, Note_on_c, 0, 71, 88
2, 51239, Note_off_c, 0, 71, 0
2, 51240, Note_on_c, 0, 72, 88
2, 51299, Note_off_c, 0, 72, 0
2, 51300, Note_on_c, 0, 71, 88
2, 51359, Note_off_c, 0, 71, 0
2, 51360, Note_on_c, 0, 72, 88
2, 51599, Note_off_c, 0, 72, 0
2, 51600, Note_on_c, 0, 69, 88
2, 52559, Note_off_c, 0, 69, 0
2, 52560, Note_on_c, 0, 68, 88
2, 52859, Note_off_c, 0, 68, 0
2, 52860, Note_on_c, 0, 68, 88
2, 52919, Note_off_c, 0, 68, 0
2, 52920, Note_on_c, 0, 66, 88
2, 52979, Note_off_c, 0, 66, 0
2, 52980, Note_on_c, 0, 64, 88
2, 53039, Note_off_c, 0, 64, 0
2, 53040, Note_on_c, 0, 66, 88
2, 53339, Note_off_c, 0, 66, 0
2, 53340, Note_on_c, 0, 59, 88
2, 53399, Note_off_c, 0, 59, 0
2, 53400, Note_on_c, 0, 64, 88
2, 53459, Note_off_c, 0, 64, 0
2, 53460, Note_on_c, 0, 63, 88
2, 53519, Note_off_c, 0, 63, 0
2, 53520, Note_on_c, 0, 64, 88
2, 53579, Note_off_c, 0, 64, 0
2, 53580, Note_on_c, 0, 59, 88
2, 53639, Note_off_c, 0, 59, 0
2, 53640, Note_on_c, 0, 68, 88
2, 53699, Note_off_c, 0, 68, 0
2, 53700, Note_on_c, 0, 64, 88
2, 53759, Note_off_c, 0, 64, 0
2, 53760, Note_on_c, 0, 71, 88
2, 54059, Note_off_c, 0, 71, 0
2, 54060, Note_on_c, 0, 64, 88
2, 54119, Note_off_c, 0, 64, 0
2, 54120, Note_on_c, 0, 69, 88
2, 54179, Note_off_c, 0, 69, 0
2, 54180, Note_on_c, 0, 68, 88
2, 54239, Note_off_c, 0, 68, 0
2, 54240, Note_on_c, 0, 69, 88
2, 54299, Note_off_c, 0, 69, 0
2, 54300, Note_on_c, 0, 64, 88
2, 54359, Note_off_c, 0, 64, 0
2, 54360, Note_on_c, 0, 73, 88
2, 54419, Note_off_c, 0, 73, 0
2, 54420, Note_on_c, 0, 69, 88
2, 54479, Note_off_c, 0, 69, 0
2, 54480, Note_on_c, 0, 76, 88
2, 54779, Note_off_c, 0, 76, 0
2, 54780, Note_on_c, 0, 69, 88
2, 54839, Note_off_c, 0, 69, 0
2, 54840, Note_on_c, 0, 75, 88
2, 54899, Note_off_c, 0, 75, 0
2, 54900, Note_on_c, 0, 73, 88
2, 54959, Note_off_c, 0, 73, 0
2, 54960, Note_on_c, 0, 75, 88
2, 55019, Note_off_c, 0, 75, 0
2, 55020, Note_on_c, 0, 69, 88
2, 55079, Note_off_c, 0, 69, 0
2, 55080, Note_on_c, 0, 78, 88
2, 55139, Note_off_c, 0, 78, 0
2, 55140, Note_on_c, 0, 75, 88
2, 55199, Note_off_c, 0, 75, 0
2, 55200, Note_on_c, 0, 81, 88
2, 55259, Note_off_c, 0, 81, 0
2, 55260, Note_on_c, 0, 78, 88
2, 55319, Note_off_c, 0, 78, 0
2, 55320, Note_on_c, 0, 76, 88
2, 55379, Note_off_c, 0, 76, 0
2, 55380, Note_on_c, 0, 75, 88
2, 55439, Note_off_c, 0, 75, 0
2, 55440, Note_on_c, 0, 76, 88
2, 56279, Note_off_c, 0, 76, 0
2, 56280, Note_on_c, 0, 78, 88
2, 56399, Note_off_c, 0, 78, 0
2, 56400, Note_on_c, 0, 80, 88
2, 56699, Note_off_c, 0, 80, 0
2, 56700, Note_on_c, 0, 80, 88
2, 56759, Note_off_c, 0, 80, 0
2, 56760, Note_on_c, 0, 78, 88
2, 56819, Note_off_c, 0, 78, 0
2, 56820, Note_on_c, 0, 76, 88
2, 56879, Note_off_c, 0, 76, 0
2, 56880, Note_on_c, 0, 78, 88
2, 57179, Note_off_c, 0, 78, 0
2, 57180, Note_on_c, 0, 78, 88
2, 57239, Note_off_c, 0, 78, 0
2, 57240, Note_on_c, 0, 80, 88
2, 57299, Note_off_c, 0, 80, 0
2, 57300, Note_on_c, 0, 81, 88
2, 57359, Note_off_c, 0, 81, 0
2, 57360, Note_on_c, 0, 80, 88
2, 57419, Note_off_c, 0, 80, 0
2, 57420, Note_on_c, 0, 78, 88
2, 57479, Note_off_c, 0, 78, 0
2, 57480, Note_on_c, 0, 76, 88
2, 57539, Note_off_c, 0, 76, 0
2, 57540, Note_on_c, 0, 75, 88
2, 57599, Note_off_c, 0, 75, 0
2, 57600, Note_on_c, 0, 76, 88
2, 57959, Note_off_c, 0, 76, 0
2, 57960, Note_on_c, 0, 76, 88
2, 58079, Note_off_c, 0, 76, 0
2, 58080, Note_on_c, 0, 75, 88
2, 58199, Note_off_c, 0, 75, 0
2, 58200, Note_on_c, 0, 73, 88
2, 58319, Note_off_c, 0, 73, 0
2, 58320, Note_on_c, 0, 72, 88
2, 59099, Note_off_c, 0, 72, 0
2, 59100, Note_on_c, 0, 73, 88
2, 59159, Note_off_c, 0, 73, 0
2, 59160, Note_on_c, 0, 68, 88
2, 59219, Note_off_c, 0, 68, 0
2, 59220, Note_on_c, 0, 67, 88
2, 59279, Note_off_c, 0, 67, 0
2, 59280, Note_on_c, 0, 68, 88
2, 59339, Note_off_c, 0, 68, 0
2, 59340, Note_on_c, 0, 72, 88
2, 59399, Note_off_c, 0, 72, 0
2, 59400, Note_on_c, 0, 73, 88
2, 59459, Note_off_c, 0, 73, 0
2, 59460, Note_on_c, 0, 75, 88
2, 59519, Note_off_c, 0, 75, 0
2, 59520, Note_on_c, 0, 76, 88
2, 59579, Note_off_c, 0, 76, 0
2, 59580, Note_on_c, 0, 75, 88
2, 59639, Note_off_c, 0, 75, 0
2, 59640, Note_on_c, 0, 76, 88
2, 59699, Note_off_c, 0, 76, 0
2, 59700, Note_on_c, 0, 73, 88
2, 59759, Note_off_c, 0, 73, 0
2, 59760, Note_on_c, 0, 75, 88
2, 59819, Note_off_c, 0, 75, 0
2, 59820, Note_on_c, 0, 72, 88
2, 59879, Note_off_c, 0, 72, 0
2, 59880, Note_on_c, 0, 68, 88
2, 59939, Note_off_c, 0, 68, 0
2, 59940, Note_on_c, 0, 67, 88
2, 59999, Note_off_c, 0, 67, 0
2, 60000, Note_on_c, 0, 68, 88
2, 60059, Note_off_c, 0, 68, 0
2, 60060, Note_on_c, 0, 72, 88
2, 60119, Note_off_c, 0, 72, 0
2, 60120, Note_on_c, 0, 75, 88
2, 60179, Note_off_c, 0, 75, 0
2, 60180, Note_on_c, 0, 76, 88
2, 60239, Note_off_c, 0, 76, 0
2, 60240, Note_on_c, 0, 78, 88
2, 60299, Note_off_c, 0, 78, 0
2, 60300, Note_on_c, 0, 76, 88
2, 60359, Note_off_c, 0, 76, 0
2, 60360, Note_on_c, 0, 78, 88
2, 60419, Note_off_c, 0, 78, 0
2, 60420, Note_on_c, 0, 75, 88
2, 60479, Note_off_c, 0, 75, 0
2, 60480, Note_on_c, 0, 76, 88
2, 60899, Note_off_c, 0, 76, 0
2, 60900, Note_on_c, 0, 75, 88
2, 61019, Note_off_c, 0, 75, 0
2, 61020, Note_on_c, 0, 73, 88
2, 61139, Note_off_c, 0, 73, 0
2, 61140, Note_on_c, 0, 72, 88
2, 61199, Note_off_c, 0, 72, 0
2, 61200, Note_on_c, 0, 73, 88
2, 61979, Note_off_c, 0, 73, 0
2, 61980, Note_on_c, 0, 76, 88
2, 62039, Note_off_c, 0, 76, 0
2, 62040, Note_on_c, 0, 75, 88
2, 62099, Note_off_c, 0, 75, 0
2, 62100, Note_on_c, 0, 73, 88
2, 62159, Note_off_c, 0, 73, 0
2, 62160, Note_on_c, 0, 71, 88
2, 62219, Note_off_c, 0, 71, 0
2, 62220, Note_on_c, 0, 70, 88
2, 62279, Note_off_c, 0, 70, 0
2, 62280, Note_on_c, 0, 71, 88
2, 62339, Note_off_c, 0, 71, 0
2, 62340, Note_on_c, 0, 73, 88
2, 62399, Note_off_c, 0, 73, 0
2, 62400, Note_on_c, 0, 75, 88
2, 62459, Note_off_c, 0, 75, 0
2, 62460, Note_on_c, 0, 76, 88
2, 62519, Note_off_c, 0, 76, 0
2, 62520, Note_on_c, 0, 78, 88
2, 62549, Note_off_c, 0, 78, 0
2, 62550, Note_on_c, 0, 76, 88
2, 62579, Note_off_c, 0, 76, 0
2, 62580, Note_on_c, 0, 75, 88
2, 62609, Note_off_c, 0, 75, 0
2, 62610, Note_on_c, 0, 76, 88
2, 62639, Note_off_c, 0, 76, 0
2, 62640, Note_on_c, 0, 78, 88
2, 62699, Note_off_c, 0, 78, 0
2, 62700, Note_on_c, 0, 80, 88
2, 62759, Note_off_c, 0, 80, 0
2, 62760, Note_on_c, 0, 78, 88
2, 62819, Note_off_c, 0, 78, 0
2, 62820, Note_on_c, 0, 76, 88
2, 62879, Note_off_c, 0, 76, 0
2, 62880, Note_on_c, 0, 75, 88
2, 62939, Note_off_c, 0, 75, 0
2, 62940, Note_on_c, 0, 73, 88
2, 62999, Note_off_c, 0, 73, 0
2, 63000, Note_on_c, 0, 75, 88
2, 63059, Note_off_c, 0, 75, 0
2, 63060, Note_on_c, 0, 76, 88
2, 63119, Note_off_c, 0, 76, 0
2, 63120, Note_on_c, 0, 78, 88
2, 63179, Note_off_c, 0, 78, 0
2, 63180, Note_on_c, 0, 80, 88
2, 63239, Note_off_c, 0, 80, 0
2, 63240, Note_on_c, 0, 81, 88
2, 63269, Note_off_c, 0, 81, 0
2, 63270, Note_on_c, 0, 80, 88
2, 63299, Note_off_c, 0, 80, 0
2, 63300, Note_on_c, 0, 78, 88
2, 63329, Note_off_c, 0, 78, 0
2, 63330, Note_on_c, 0, 80, 88
2, 63359, Note_off_c, 0, 80, 0
2, 63360, Note_on_c, 0, 81, 88
2, 63419, Note_off_c, 0, 81, 0
2, 63420, Note_on_c, 0, 73, 88
2, 63479, Note_off_c, 0, 73, 0
2, 63480, Note_on_c, 0, 71, 88
2, 63539, Note_off_c, 0, 71, 0
2, 63540, Note_on_c, 0, 70, 88
2, 63599, Note_off_c, 0, 70, 0
2, 63600, Note_on_c, 0, 71, 88
2, 63659, Note_off_c, 0, 71, 0
2, 63660, Note_on_c, 0, 81, 88
2, 63719, Note_off_c, 0, 81, 0
2, 63720, Note_on_c, 0, 80, 88
2, 63779, Note_off_c, 0, 80, 0
2, 63780, Note_on_c, 0, 78, 88
2, 63839, Note_off_c, 0, 78, 0
2, 63840, Note_on_c, 0, 83, 88
2, 63899, Note_off_c, 0, 83, 0
2, 63900, Note_on_c, 0, 76, 88
2, 63959, Note_off_c, 0, 76, 0
2, 63960, Note_on_c, 0, 75, 88
2, 64019, Note_off_c, 0, 75, 0
2, 64020, Note_on_c, 0, 81, 88
2, 64079, Note_off_c, 0, 81, 0
2, 64080, Note_on_c, 0, 80, 88
2, 64859, Note_off_c, 0, 80, 0
2, 64860, Note_on_c, 0, 80, 88
2, 64919, Note_off_c, 0, 80, 0
2, 64920, Note_on_c, 0, 78, 88
2, 64979, Note_off_c, 0, 78, 0
2, 64980, Note_on_c, 0, 76, 88
2, 65039, Note_off_c, 0, 76, 0
2, 65040, Note_on_c, 0, 78, 88
2, 65159, Note_off_c, 0, 78, 0
2, 65160, Note_on_c, 0, 81, 88
2, 65399, Note_off_c, 0, 81, 0
2, 65400, Note_on_c, 0, 75, 88
2, 65579, Note_off_c, 0, 75, 0
2, 65580, Note_on_c, 0, 78, 88
2, 65639, Note_off_c, 0, 78, 0
2, 65640, Note_on_c, 0, 76, 88
2, 65699, Note_off_c, 0, 76, 0
2, 65700, Note_on_c, 0, 75, 88
2, 65759, Note_off_c, 0, 75, 0
2, 65760, Note_on_c, 0, 76, 88
2, 65879, Note_off_c, 0, 76, 0
2, 65880, Note_on_c, 0, 80, 88
2, 66119, Note_off_c, 0, 80, 0
2, 66120, Note_on_c, 0, 73, 88
2, 66299, Note_off_c, 0, 73, 0
2, 66300, Note_on_c, 0, 76, 88
2, 66359, Note_off_c, 0, 76, 0
2, 66360, Note_on_c, 0, 75, 88
2, 66419, Note_off_c, 0, 75, 0
2, 66420, Note_on_c, 0, 73, 88
2, 66479, Note_off_c, 0, 73, 0
2, 66480, Note_on_c, 0, 75, 88
2, 66599, Note_off_c, 0, 75, 0
2, 66600, Note_on_c, 0, 78, 88
2, 66719, Note_off_c, 0, 78, 0
2, 66720, Note_on_c, 0, 78, 88
2, 66839, Note_off_c, 0, 78, 0
2, 66840, Note_on_c, 0, 69, 88
2, 66959, Note_off_c, 0, 69, 0
2, 66960, Note_on_c, 0, 69, 88
2, 67079, Note_off_c, 0, 69, 0
2, 67080, Note_on_c, 0, 68, 88
2, 67139, Note_off_c, 0, 68, 0
2, 67140, Note_on_c, 0, 66, 88
2, 67199, Note_off_c, 0, 66, 0
2, 67200, Note_on_c, 0, 68, 88
2, 67739, Note_off_c, 0, 68, 0
2, 67740, Note_on_c, 0, 68, 88
2, 67799, Note_off_c, 0, 68, 0
2, 67800, Note_on_c, 0, 66, 88
2, 67859, Note_off_c, 0, 66, 0
2, 67860, Note_on_c, 0, 64, 88
2, 67919, Note_off_c, 0, 64, 0
2, 67920, Note_on_c, 0, 63, 88
2, 67979, Note_off_c, 0, 63, 0
2, 67980, Note_on_c, 0, 61, 88
2, 68039, Note_off_c, 0, 61, 0
2, 68040, Note_on_c, 0, 63, 88
2, 68099, Note_off_c, 0, 63, 0
2, 68100, Note_on_c, 0, 64, 88
2, 68159, Note_off_c, 0, 64, 0
2, 68160, Note_on_c, 0, 66, 88
2, 68219, Note_off_c, 0, 66, 0
2, 68220, Note_on_c, 0, 68, 88
2, 68279, Note_off_c, 0, 68, 0
2, 68280, Note_on_c, 0, 69, 88
2, 68309, Note_off_c, 0, 69, 0
2, 68310, Note_on_c, 0, 68, 88
2, 68339, Note_off_c, 0, 68, 0
2, 68340, Note_on_c, 0, 66, 88
2, 68369, Note_off_c, 0, 66, 0
2, 68370, Note_on_c, 0, 68, 88
2, 68399, Note_off_c, 0, 68, 0
2, 68400, Note_on_c, 0, 69, 88
2, 69239, Note_off_c, 0, 69, 0
2, 69240, Note_on_c, 0, 78, 88
2, 69359, Note_off_c, 0, 78, 0
2, 69360, Note_on_c, 0, 78, 88
2, 69479, Note_off_c, 0, 78, 0
2, 69480, Note_on_c, 0, 69, 88
2, 69599, Note_off_c, 0, 69, 0
2, 69600, Note_on_c, 0, 68, 88
2, 69719, Note_off_c, 0, 68, 0
2, 69720, Note_on_c, 0, 83, 88
2, 69839, Note_off_c, 0, 83, 0
2, 69840, Note_on_c, 0, 83, 88
2, 69959, Note_off_c, 0, 83, 0
2, 69960, Note_on_c, 0, 76, 88
2, 70079, Note_off_c, 0, 76, 0
2, 70080, Note_on_c, 0, 75, 88
2, 70199, Note_off_c, 0, 75, 0
2, 70200, Note_on_c, 0, 81, 88
2, 70319, Note_off_c, 0, 81, 0
2, 70320, Note_on_c, 0, 81, 88
2, 70439, Note_off_c, 0, 81, 0
2, 70440, Note_on_c, 0, 71, 88
2, 70559, Note_off_c, 0, 71, 0
2, 70560, Note_on_c, 0, 71, 88
2, 70919, Note_off_c, 0, 71, 0
2, 70920, Note_on_c, 0, 73, 88
2, 70979, Note_off_c, 0, 73, 0
2, 70980, Note_on_c, 0, 76, 88
2, 71099, Note_off_c, 0, 76, 0
2, 71100, Note_on_c, 0, 76, 88
2, 71219, Note_off_c, 0, 76, 0
2, 71220, Note_on_c, 0, 75, 88
2, 71339, Note_off_c, 0, 75, 0
2, 71340, Note_on_c, 0, 71, 88
2, 71399, Note_off_c, 0, 71, 0
2, 71400, Note_on_c, 0, 76, 88
2, 71459, Note_off_c, 0, 76, 0
2, 71460, Note_on_c, 0, 75, 88
2, 71519, Note_off_c, 0, 75, 0
2, 71520, Note_on_c, 0, 76, 88
2, 71759, Note_off_c, 0, 76, 0
2, 71760, Note_on_c, 0, 73, 88
2, 71999, Note_off_c, 0, 73, 0
2, 72000, Note_on_c, 0, 71, 88
2, 72059, Note_off_c, 0, 71, 0
2, 72060, Note_on_c, 0, 73, 88
2, 72119, Note_off_c, 0, 73, 0
2, 72120, Note_on_c, 0, 74, 88
2, 72179, Note_off_c, 0, 74, 0
2, 72180, Note_on_c, 0, 73, 88
2, 72239, Note_off_c, 0, 73, 0
2, 72240, Note_on_c, 0, 74, 88
2, 72479, Note_off_c, 0, 74, 0
2, 72480, Note_on_c, 0, 71, 88
2, 72719, Note_off_c, 0, 71, 0
2, 72720, Note_on_c, 0, 69, 88
2, 72779, Note_off_c, 0, 69, 0
2, 72780, Note_on_c, 0, 71, 88
2, 72839, Note_off_c, 0, 71, 0
2, 72840, Note_on_c, 0, 72, 88
2, 72899, Note_off_c, 0, 72, 0
2, 72900, Note_on_c, 0, 71, 88
2, 72959, Note_off_c, 0, 71, 0
2, 72960, Note_on_c, 0, 72, 88
2, 73199, Note_off_c, 0, 72, 0
2, 73200, Note_on_c, 0, 69, 88
2, 74159, Note_off_c, 0, 69, 0
2, 74160, Note_on_c, 0, 68, 88
2, 74459, Note_off_c, 0, 68, 0
2, 74460, Note_on_c, 0, 68, 88
2, 74519, Note_off_c, 0, 68, 0
2, 74520, Note_on_c, 0, 66, 88
2, 74579, Note_off_c, 0, 66, 0
2, 74580, Note_on_c, 0, 64, 88
2, 74639, Note_off_c, 0, 64, 0
2, 74640, Note_on_c, 0, 66, 88
2, 74939, Note_off_c, 0, 66, 0
2, 74940, Note_on_c, 0, 59, 88
2, 74999, Note_off_c, 0, 59, 0
2, 75000, Note_on_c, 0, 64, 88
2, 75059, Note_off_c, 0, 64, 0
2, 75060, Note_on_c, 0, 63, 88
2, 75119, Note_off_c, 0, 63, 0
2, 75120, Note_on_c, 0, 64, 88
2, 75179, Note_off_c, 0, 64, 0
2, 75180, Note_on_c, 0, 59, 88
2, 75239, Note_off_c, 0, 59, 0
2, 75240, Note_on_c, 0, 68, 88
2, 75299, Note_off_c, 0, 68, 0
2, 75300, Note_on_c, 0, 64, 88
2, 75359, Note_off_c, 0, 64, 0
2, 75360, Note_on_c, 0, 71, 88
2, 75659, Note_off_c, 0, 71, 0
2, 75660, Note_on_c, 0, 64, 88
2, 75719, Note_off_c, 0, 64, 0
2, 75720, Note_on_c, 0, 69, 88
2, 75779, Note_off_c, 0, 69, 0
2, 75780, Note_on_c, 0, 68, 88
2, 75839, Note_off_c, 0, 68, 0
2, 75840, Note_on_c, 0, 69, 88
2, 75899, Note_off_c, 0, 69, 0
2, 75900, Note_on_c, 0, 64, 88
2, 75959, Note_off_c, 0, 64, 0
2, 75960, Note_on_c, 0, 73, 88
2, 76019, Note_off_c, 0, 73, 0
2, 76020, Note_on_c, 0, 69, 88
2, 76079, Note_off_c, 0, 69, 0
2, 76080, Note_on_c, 0, 76, 88
2, 76379, Note_off_c, 0, 76, 0
2, 76380, Note_on_c, 0, 69, 88
2, 76439, Note_off_c, 0, 69, 0
2, 76440, Note_on_c, 0, 75, 88
2, 76499, Note_off_c, 0, 75, 0
2, 76500, Note_on_c, 0, 73, 88
2, 76559, Note_off_c, 0, 73, 0
2, 76560, Note_on_c, 0, 75, 88
2, 76619, Note_off_c, 0, 75, 0
2, 76620, Note_on_c, 0, 69, 88
2, 76679, Note_off_c, 0, 69, 0
2, 76680, Note_on_c, 0, 78, 88
2, 76739, Note_off_c, 0, 78, 0
2, 76740, Note_on_c, 0, 75, 88
2, 76799, Note_off_c, 0, 75, 0
2, 76800, Note_on_c, 0, 81, 88
2, 76859, Note_off_c, 0, 81, 0
2, 76860, Note_on_c, 0, 78, 88
2, 76919, Note_off_c, 0, 78, 0
2, 76920, Note_on_c, 0, 76, 88
2, 76979, Note_off_c, 0, 76, 0
2, 76980, Note_on_c, 0, 75, 88
2, 77039, Note_off_c, 0, 75, 0
2, 77040, Note_on_c, 0, 76, 88
2, 77080, Note_off_c, 0, 76, 0
2, 77080, End_track
0, 0, End_of_file