0, 0, Header, 1, 2, 240
1, 0, Start_track
1, 0, Time_signature, 4, 2, 24, 8
1, 0, Tempo, 789473
1, 0, SMPTE_offset, 64, 0, 0, 0, 100
1, 0, End_track
2, 0, Start_track
2, 0, Title_t, "Track 1"
2, 0, Program_c, 0, 6
2, 60, Note_on_c, 0, 67, 88
2, 119, Note_off_c, 0, 67, 0
2, 120, Note_on_c, 0, 69, 88
2, 179, Note_off_c, 0, 69, 0
2, 180, Note_on_c, 0, 71, 88
2, 239, Note_off_c, 0, 71, 0
2, 240, Note_on_c, 0, 72, 88
2, 299, Note_off_c, 0, 72, 0
2, 300, Note_on_c, 0, 69, 88
2, 359, Note_off_c, 0, 69, 0
2, 360, Note_on_c, 0, 71, 88
2, 419, Note_off_c, 0, 71, 0
2, 420, Note_on_c, 0, 67, 88
2, 479, Note_off_c, 0, 67, 0
2, 480, Note_on_c, 0, 66, 88
2, 539, Note_off_c, 0, 66, 0
2, 540, Note_on_c, 0, 64, 88
2, 599, Note_off_c, 0, 64, 0
2, 600, Note_on_c, 0, 63, 88
2, 659, Note_off_c, 0, 63, 0
2, 660, Note_on_c, 0, 69, 88
2, 719, Note_off_c, 0, 69, 0
2, 720, Note_on_c, 0, 67, 88
2, 749, Note_off_c, 0, 67, 0
2, 750, Note_on_c, 0, 66, 88
2, 779, Note_off_c, 0, 66, 0
2, 780, Note_on_c, 0, 64, 88
2, 839, Note_off_c, 0, 64, 0
2, 840, Note_on_c, 0, 76, 88
2, 1079, Note_off_c, 0, 76, 0
2, 1080, Note_on_c, 0, 75, 88
2, 1109, Note_off_c, 0, 75, 0
2, 1110, Note_on_c, 0, 73, 88
2, 1139, Note_off_c, 0, 73, 0
2, 1140, Note_on_c, 0, 71, 88
2, 1199, Note_off_c, 0, 71, 0
2, 1200, Note_on_c, 0, 81, 88
2, 1499, Note_off_c, 0, 81, 0
2, 1500, Note_on_c, 0, 67, 88
2, 1559, Note_off_c, 0, 67, 0
2, 1560, Note_on_c, 0, 69, 88
2, 1619, Note_off_c, 0, 69, 0
2, 1620, Note_on_c, 0, 71, 88
2, 1679, Note_off_c, 0, 71, 0
2, 1680, Note_on_c, 0, 72, 88
2, 1739, Note_off_c, 0, 72, 0
2, 1740, Note_on_c, 0, 69, 88
2, 1799, Note_off_c, 0, 69, 0
2, 1800, Note_on_c, 0, 71, 88
2, 1859, Note_off_c, 0, 71, 0
2, 1860, Note_on_c, 0, 67, 88
2, 1919, Note_off_c, 0, 67, 0
2, 1920, Note_on_c, 0, 66, 88
2, 1979, Note_off_c, 0, 66, 0
2, 1980, Note_on_c, 0, 64, 88
2, 2039, Note_off_c, 0, 64, 0
2, 2040, Note_on_c, 0, 63, 88
2, 2099, Note_off_c, 0, 63, 0
2, 2100, Note_on_c, 0, 69, 88
2, 2159, Note_off_c, 0, 69, 0
2, 2160, Note_on_c, 0, 67, 88
2, 2219, Note_off_c, 0, 67, 0
2, 2220, Note_on_c, 0, 71, 88
2, 2279, Note_off_c, 0, 71, 0
2, 2280, Note_on_c, 0, 72, 88
2, 2339, Note_off_c, 0, 72, 0
2, 2340, Note_on_c, 0, 74, 88
2, 2399, Note_off_c, 0, 74, 0
2, 2400, Note_on_c, 0, 76, 88
2, 2459, Note_off_c, 0, 76, 0
2, 2460, Note_on_c, 0, 72, 88
2, 2519, Note_off_c, 0, 72, 0
2, 2520, Note_on_c, 0, 74, 88
2, 2579, Note_off_c, 0, 74, 0
2, 2580, Note_on_c, 0, 71, 88
2, 2639, Note_off_c, 0, 71, 0
2, 2640, Note_on_c, 0, 69, 88
2, 2699, Note_off_c, 0, 69, 0
2, 2700, Note_on_c, 0, 67, 88
2, 2759, Note_off_c, 0, 67, 0
2, 2760, Note_on_c, 0, 66, 88
2, 2819, Note_off_c, 0, 66, 0
2, 2820, Note_on_c, 0, 72, 88
2, 2879, Note_off_c, 0, 72, 0
2, 2880, Note_on_c, 0, 71, 88
2, 2939, Note_off_c, 0, 71, 0
2, 2940, Note_on_c, 0, 74, 88
2, 2999, Note_off_c, 0, 74, 0
2, 3000, Note_on_c, 0, 76, 88
2, 3059, Note_off_c, 0, 76, 0
2, 3060, Note_on_c, 0, 78, 88
2, 3119, Note_off_c, 0, 78, 0
2, 3120, Note_on_c, 0, 79, 88
2, 3179, Note_off_c, 0, 79, 0
2, 3180, Note_on_c, 0, 76, 88
2, 3239, Note_off_c, 0, 76, 0
2, 3240, Note_on_c, 0, 78, 88
2, 3299, Note_off_c, 0, 78, 0
2, 3300, Note_on_c, 0, 74, 88
2, 3359, Note_off_c, 0, 74, 0
2, 3360, Note_on_c, 0, 73, 88
2, 3419, Note_off_c, 0, 73, 0
2, 3420, Note_on_c, 0, 71, 88
2, 3479, Note_off_c, 0, 71, 0
2, 3480, Note_on_c, 0, 70, 88
2, 3539, Note_off_c, 0, 70, 0
2, 3540, Note_on_c, 0, 76, 88
2, 3599, Note_off_c, 0, 76, 0
2, 3600, Note_on_c, 0, 74, 88
2, 3659, Note_off_c, 0, 74, 0
2, 3660, Note_on_c, 0, 78, 88
2, 3719, Note_off_c, 0, 78, 0
2, 3720, Note_on_c, 0, 76, 88
2, 3779, Note_off_c, 0, 76, 0
2, 3780, Note_on_c, 0, 74, 88
2, 3839, Note_off_c, 0, 74, 0
2, 3840, Note_on_c, 0, 73, 88
2, 3899, Note_off_c, 0, 73, 0
2, 3900, Note_on_c, 0, 71, 88
2, 3959, Note_off_c, 0, 71, 0
2, 3960, Note_on_c, 0, 70, 88
2, 3989, Note_off_c, 0, 70, 0
2, 3990, Note_on_c, 0, 68, 88
2, 4019, Note_off_c, 0, 68, 0
2, 4020, Note_on_c, 0, 66, 88
2, 4079, Note_off_c, 0, 66, 0
2, 4080, Note_on_c, 0, 76, 88
2, 4379, Note_off_c, 0, 76, 0
2, 4380, Note_on_c, 0, 74, 88
2, 4439, Note_off_c, 0, 74, 0
2, 4440, Note_on_c, 0, 76, 88
2, 4499, Note_off_c, 0, 76, 0
2, 4500, Note_on_c, 0, 78, 88
2, 4559, Note_off_c, 0, 78, 0
2, 4560, Note_on_c, 0, 79, 88
2, 4619, Note_off_c, 0, 79, 0
2, 4620, Note_on_c, 0, 76, 88
2, 4679, Note_off_c, 0, 76, 0
2, 4680, Note_on_c, 0, 78, 88
2, 4739, Note_off_c, 0, 78, 0
2, 4740, Note_on_c, 0, 74, 88
2, 4799, Note_off_c, 0, 74, 0
2, 4800, Note_on_c, 0, 73, 88
2, 4859, Note_off_c, 0, 73, 0
2, 4860, Note_on_c, 0, 71, 88
2, 4919, Note_off_c, 0, 71, 0
2, 4920, Note_on_c, 0, 70, 88
2, 4979, Note_off_c, 0, 70, 0
2, 4980, Note_on_c, 0, 76, 88
2, 5039, Note_off_c, 0, 76, 0
2, 5040, Note_on_c, 0, 74, 88
2, 5099, Note_off_c, 0, 74, 0
2, 5100, Note_on_c, 0, 71, 88
2, 5159, Note_off_c, 0, 71, 0
2, 5160, Note_on_c, 0, 73, 88
2, 5219, Note_off_c, 0, 73, 0
2, 5220, Note_on_c, 0, 74, 88
2, 5279, Note_off_c, 0, 74, 0
2, 5280, Note_on_c, 0, 76, 88
2, 5339, Note_off_c, 0, 76, 0
2, 5340, Note_on_c, 0, 73, 88
2, 5399, Note_off_c, 0, 73, 0
2, 5400, Note_on_c, 0, 74, 88
2, 5459, Note_off_c, 0, 74, 0
2, 5460, Note_on_c, 0, 71, 88
2, 5519, Note_off_c, 0, 71, 0
2, 5520, Note_on_c, 0, 69, 88
2, 5579, Note_off_c, 0, 69, 0
2, 5580, Note_on_c, 0, 67, 88
2, 5639, Note_off_c, 0, 67, 0
2, 5640, Note_on_c, 0, 66, 88
2, 5699, Note_off_c, 0, 66, 0
2, 5700, Note_on_c, 0, 72, 88
2, 5759, Note_off_c, 0, 72, 0
2, 5760, Note_on_c, 0, 71, 88
2, 5819, Note_off_c, 0, 71, 0
2, 5820, Note_on_c, 0, 67, 88
2, 5879, Note_off_c, 0, 67, 0
2, 5880, Note_on_c, 0, 76, 88
2, 5939, Note_off_c, 0, 76, 0
2, 5940, Note_on_c, 0, 71, 88
2, 5999, Note_off_c, 0, 71, 0
2, 6000, Note_on_c, 0, 72, 88
2, 6059, Note_off_c, 0, 72, 0
2, 6060, Note_on_c, 0, 81, 88
2, 6119, Note_off_c, 0, 81, 0
2, 6120, Note_on_c, 0, 71, 88
2, 6179, Note_off_c, 0, 71, 0
2, 6180, Note_on_c, 0, 74, 88
2, 6239, Note_off_c, 0, 74, 0
2, 6240, Note_on_c, 0, 79, 88
2, 6359, Note_off_c, 0, 79, 0
2, 6360, Note_on_c, 0, 71, 88
2, 6378, Note_off_c, 0, 71, 0
2, 6379, Note_on_c, 0, 69, 88
2, 6400, Note_off_c, 0, 69, 0
2, 6401, Note_on_c, 0, 71, 88
2, 6419, Note_off_c, 0, 71, 0
2, 6420, Note_on_c, 0, 69, 88
2, 6479, Note_off_c, 0, 69, 0
2, 6480, Note_on_c, 0, 67, 88
2, 6539, Note_off_c, 0, 67, 0
2, 6540, Note_on_c, 0, 64, 88
2, 6599, Note_off_c, 0, 64, 0
2, 6600, Note_on_c, 0, 72, 88
2, 6659, Note_off_c, 0, 72, 0
2, 6660, Note_on_c, 0, 67, 88
2, 6719, Note_off_c, 0, 67, 0
2, 6720, Note_on_c, 0, 69, 88
2, 6779, Note_off_c, 0, 69, 0
2, 6780, Note_on_c, 0, 78, 88
2, 6839, Note_off_c, 0, 78, 0
2, 6840, Note_on_c, 0, 67, 88
2, 6899, Note_off_c, 0, 67, 0
2, 6900, Note_on_c, 0, 71, 88
2, 6959, Note_off_c, 0, 71, 0
2, 6960, Note_on_c, 0, 76, 88
2, 7079, Note_off_c, 0, 76, 0
2, 7080, Note_on_c, 0, 67, 88
2, 7098, Note_off_c, 0, 67, 0
2, 7099, Note_on_c, 0, 66, 88
2, 7120, Note_off_c, 0, 66, 0
2, 7121, Note_on_c, 0, 67, 88
2, 7139, Note_off_c, 0, 67, 0
2, 7140, Note_on_c, 0, 66, 88
2, 7199, Note_off_c, 0, 66, 0
2, 7200, Note_on_c, 0, 64, 88
2, 7259, Note_off_c, 0, 64, 0
2, 7260, Note_on_c, 0, 67, 88
2, 7319, Note_off_c, 0, 67, 0
2, 7320, Note_on_c, 0, 69, 88
2, 7379, Note_off_c, 0, 69, 0
2, 7380, Note_on_c, 0, 71, 88
2, 7439, Note_off_c, 0, 71, 0
2, 7440, Note_on_c, 0, 72, 88
2, 7499, Note_off_c, 0, 72, 0
2, 7500, Note_on_c, 0, 69, 88
2, 7559, Note_off_c, 0, 69, 0
2, 7560, Note_on_c, 0, 71, 88
2, 7589, Note_off_c, 0, 71, 0
2, 7590, Note_on_c, 0, 69, 88
2, 7619, Note_off_c, 0, 69, 0
2, 7620, Note_on_c, 0, 67, 88
2, 7679, Note_off_c, 0, 67, 0
2, 7680, Note_on_c, 0, 77, 88
2, 7979, Note_off_c, 0, 77, 0
2, 7980, Note_on_c, 0, 64, 88
2, 8039, Note_off_c, 0, 64, 0
2, 8040, Note_on_c, 0, 66, 88
2, 8099, Note_off_c, 0, 66, 0
2, 8100, Note_on_c, 0, 67, 88
2, 8159, Note_off_c, 0, 67, 0
2, 8160, Note_on_c, 0, 69, 88
2, 8219, Note_off_c, 0, 69, 0
2, 8220, Note_on_c, 0, 66, 88
2, 8279, Note_off_c, 0, 66, 0
2, 8280, Note_on_c, 0, 67, 88
2, 8339, Note_off_c, 0, 67, 0
2, 8340, Note_on_c, 0, 62, 88
2, 8399, Note_off_c, 0, 62, 0
2, 8400, Note_on_c, 0, 64, 88
2, 8459, Note_off_c, 0, 64, 0
2, 8460, Note_on_c, 0, 66, 88
2, 8519, Note_off_c, 0, 66, 0
2, 8520, Note_on_c, 0, 67, 88
2, 8699, Note_off_c, 0, 67, 0
2, 8700, Note_on_c, 0, 66, 88
2, 8759, Note_off_c, 0, 66, 0
2, 8760, Note_on_c, 0, 68, 88
2, 8819, Note_off_c, 0, 68, 0
2, 8820, Note_on_c, 0, 69, 88
2, 8879, Note_off_c, 0, 69, 0
2, 8880, Note_on_c, 0, 71, 88
2, 8939, Note_off_c, 0, 71, 0
2, 8940, Note_on_c, 0, 68, 88
2, 8999, Note_off_c, 0, 68, 0
2, 9000, Note_on_c, 0, 69, 88
2, 9059, Note_off_c, 0, 69, 0
2, 9060, Note_on_c, 0, 64, 88
2, 9119, Note_off_c, 0, 64, 0
2, 9120, Note_on_c, 0, 66, 88
2, 9179, Note_off_c, 0, 66, 0
2, 9180, Note_on_c, 0, 67, 88
2, 9239, Note_off_c, 0, 67, 0
2, 9240, Note_on_c, 0, 69, 88
2, 9419, Note_off_c, 0, 69, 0
2, 9420, Note_on_c, 0, 68, 88
2, 9479, Note_off_c, 0, 68, 0
2, 9480, Note_on_c, 0, 70, 88
2, 9539, Note_off_c, 0, 70, 0
2, 9540, Note_on_c, 0, 71, 88
2, 9599, Note_off_c, 0, 71, 0
2, 9600, Note_on_c, 0, 73, 88
2, 9659, Note_off_c, 0, 73, 0
2, 9660, Note_on_c, 0, 70, 88
2, 9719, Note_off_c, 0, 70, 0
2, 9720, Note_on_c, 0, 71, 88
2, 9779, Note_off_c, 0, 71, 0
2, 9780, Note_on_c, 0, 66, 88
2, 9839, Note_off_c, 0, 66, 0
2, 9840, Note_on_c, 0, 68, 88
2, 9899, Note_off_c, 0, 68, 0
2, 9900, Note_on_c, 0, 70, 88
2, 9959, Note_off_c, 0, 70, 0
2, 9960, Note_on_c, 0, 71, 88
2, 10139, Note_off_c, 0, 71, 0
2, 10140, Note_on_c, 0, 70, 88
2, 10199, Note_off_c, 0, 70, 0
2, 10200, Note_on_c, 0, 71, 88
2, 10259, Note_off_c, 0, 71, 0
2, 10260, Note_on_c, 0, 73, 88
2, 10319, Note_off_c, 0, 73, 0
2, 10320, Note_on_c, 0, 74, 88
2, 10379, Note_off_c, 0, 74, 0
2, 10380, Note_on_c, 0, 71, 88
2, 10439, Note_off_c, 0, 71, 0
2, 10440, Note_on_c, 0, 73, 88
2, 10499, Note_off_c, 0, 73, 0
2, 10500, Note_on_c, 0, 71, 88
2, 10559, Note_off_c, 0, 71, 0
2, 10560, Note_on_c, 0, 70, 88
2, 10619, Note_off_c, 0, 70, 0
2, 10620, Note_on_c, 0, 68, 88
2, 10679, Note_off_c, 0, 68, 0
2, 10680, Note_on_c, 0, 66, 88
2, 10739, Note_off_c, 0, 66, 0
2, 10740, Note_on_c, 0, 64, 88
2, 10799, Note_off_c, 0, 64, 0
2, 10800, Note_on_c, 0, 62, 88
2, 10859, Note_off_c, 0, 62, 0
2, 10860, Note_on_c, 0, 66, 88
2, 10919, Note_off_c, 0, 66, 0
2, 10920, Note_on_c, 0, 68, 88
2, 10979, Note_off_c, 0, 68, 0
2, 10980, Note_on_c, 0, 70, 88
2, 11039, Note_off_c, 0, 70, 0
2, 11040, Note_on_c, 0, 71, 88
2, 11099, Note_off_c, 0, 71, 0
2, 11100, Note_on_c, 0, 68, 88
2, 11159, Note_off_c, 0, 68, 0
2, 11160, Note_on_c, 0, 70, 88
2, 11219, Note_off_c, 0, 70, 0
2, 11220, Note_on_c, 0, 68, 88
2, 11279, Note_off_c, 0, 68, 0
2, 11280, Note_on_c, 0, 66, 88
2, 11339, Note_off_c, 0, 66, 0
2, 11340, Note_on_c, 0, 64, 88
2, 11399, Note_off_c, 0, 64, 0
2, 11400, Note_on_c, 0, 62, 88
2, 11459, Note_off_c, 0, 62, 0
2, 11460, Note_on_c, 0, 61, 88
2, 11519, Note_off_c, 0, 61, 0
2, 11520, Note_on_c, 0, 61, 88
2, 11538, Note_off_c, 0, 61, 0
2, 11539, Note_on_c, 0, 59, 88
2, 11560, Note_off_c, 0, 59, 0
2, 11561, Note_on_c, 0, 61, 88
2, 11583, Note_off_c, 0, 61, 0
2, 11584, Note_on_c, 0, 59, 88
2, 11605, Note_off_c, 0, 59, 0
2, 11606, Note_on_c, 0, 61, 88
2, 11628, Note_off_c, 0, 61, 0
2, 11629, Note_on_c, 0, 59, 88
2, 11650, Note_off_c, 0, 59, 0
2, 11651, Note_on_c, 0, 61, 88
2, 11673, Note_off_c, 0, 61, 0
2, 11674, Note_on_c, 0, 59, 88
2, 11692, Note_off_c, 0, 59, 0
2, 11693, Note_on_c, 0, 61, 88
2, 11710, Note_off_c, 0, 61, 0
2, 11711, Note_on_c, 0, 59, 88
2, 11729, Note_off_c, 0, 59, 0
2, 11730, Note_on_c, 0, 61, 88
2, 11748, Note_off_c, 0, 61, 0
2, 11749, Note_on_c, 0, 59, 88
2, 11767, Note_off_c, 0, 59, 0
2, 11768, Note_on_c, 0, 61, 88
2, 11785, Note_off_c, 0, 61, 0
2, 11786, Note_on_c, 0, 59, 88
2, 11804, Note_off_c, 0, 59, 0
2, 11805, Note_on_c, 0, 61, 88
2, 11823, Note_off_c, 0, 61, 0
2, 11824, Note_on_c, 0, 59, 88
2, 11842, Note_off_c, 0, 59, 0
2, 11843, Note_on_c, 0, 61, 88
2, 11860, Note_off_c, 0, 61, 0
2, 11861, Note_on_c, 0, 59, 88
2, 11879, Note_off_c, 0, 59, 0
2, 11880, Note_on_c, 0, 61, 88
2, 11898, Note_off_c, 0, 61, 0
2, 11899, Note_on_c, 0, 59, 88
2, 11920, Note_off_c, 0, 59, 0
2, 11921, Note_on_c, 0, 61, 88
2, 11943, Note_off_c, 0, 61, 0
2, 11944, Note_on_c, 0, 59, 88
2, 11965, Note_off_c, 0, 59, 0
2, 11966, Note_on_c, 0, 61, 88
2, 11988, Note_off_c, 0, 61, 0
2, 11989, Note_on_c, 0, 59, 88
2, 12010, Note_off_c, 0, 59, 0
2, 12011, Note_on_c, 0, 61, 88
2, 12033, Note_off_c, 0, 61, 0
2, 12034, Note_on_c, 0, 59, 88
2, 12052, Note_off_c, 0, 59, 0
2, 12053, Note_on_c, 0, 61, 88
2, 12070, Note_off_c, 0, 61, 0
2, 12071, Note_on_c, 0, 59, 88
2, 12089, Note_off_c, 0, 59, 0
2, 12090, Note_on_c, 0, 61, 88
2, 12108, Note_off_c, 0, 61, 0
2, 12109, Note_on_c, 0, 59, 88
2, 12127, Note_off_c, 0, 59, 0
2, 12128, Note_on_c, 0, 61, 88
2, 12145, Note_off_c, 0, 61, 0
2, 12146, Note_on_c, 0, 59, 88
2, 12164, Note_off_c, 0, 59, 0
2, 12165, Note_on_c, 0, 61, 88
2, 12183, Note_off_c, 0, 61, 0
2, 12184, Note_on_c, 0, 59, 88
2, 12202, Note_off_c, 0, 59, 0
2, 12203, Note_on_c, 0, 61, 88
2, 12220, Note_off_c, 0, 61, 0
2, 12221, Note_on_c, 0, 59, 88
2, 12239, Note_off_c, 0, 59, 0
2, 12240, Note_on_c, 0, 61, 88
2, 12258, Note_off_c, 0, 61, 0
2, 12259, Note_on_c, 0, 59, 88
2, 12280, Note_off_c, 0, 59, 0
2, 12281, Note_on_c, 0, 61, 88
2, 12303, Note_off_c, 0, 61, 0
2, 12304, Note_on_c, 0, 59, 88
2, 12325, Note_off_c, 0, 59, 0
2, 12326, Note_on_c, 0, 61, 88
2, 12348, Note_off_c, 0, 61, 0
2, 12349, Note_on_c, 0, 59, 88
2, 12370, Note_off_c, 0, 59, 0
2, 12371, Note_on_c, 0, 61, 88
2, 12393, Note_off_c, 0, 61, 0
2, 12394, Note_on_c, 0, 59, 88
2, 12412, Note_off_c, 0, 59, 0
2, 12413, Note_on_c, 0, 61, 88
2, 12430, Note_off_c, 0, 61, 0
2, 12431, Note_on_c, 0, 59, 88
2, 12449, Note_off_c, 0, 59, 0
2, 12450, Note_on_c, 0, 61, 88
2, 12468, Note_off_c, 0, 61, 0
2, 12469, Note_on_c, 0, 59, 88
2, 12487, Note_off_c, 0, 59, 0
2, 12488, Note_on_c, 0, 61, 88
2, 12505, Note_off_c, 0, 61, 0
2, 12506, Note_on_c, 0, 59, 88
2, 12524, Note_off_c, 0, 59, 0
2, 12525, Note_on_c, 0, 61, 88
2, 12543, Note_off_c, 0, 61, 0
2, 12544, Note_on_c, 0, 59, 88
2, 12562, Note_off_c, 0, 59, 0
2, 12563, Note_on_c, 0, 61, 88
2, 12580, Note_off_c, 0, 61, 0
2, 12581, Note_on_c, 0, 59, 88
2, 12599, Note_off_c, 0, 59, 0
2, 12600, Note_on_c, 0, 61, 88
2, 12618, Note_off_c, 0, 61, 0
2, 12619, Note_on_c, 0, 59, 88
2, 12640, Note_off_c, 0, 59, 0
2, 12641, Note_on_c, 0, 61, 88
2, 12663, Note_off_c, 0, 61, 0
2, 12664, Note_on_c, 0, 59, 88
2, 12685, Note_off_c, 0, 59, 0
2, 12686, Note_on_c, 0, 61, 88
2, 12708, Note_off_c, 0, 61, 0
2, 12709, Note_on_c, 0, 59, 88
2, 12730, Note_off_c, 0, 59, 0
2, 12731, Note_on_c, 0, 61, 88
2, 12753, Note_off_c, 0, 61, 0
2, 12754, Note_on_c, 0, 59, 88
2, 12772, Note_off_c, 0, 59, 0
2, 12773, Note_on_c, 0, 61, 88
2, 12790, Note_off_c, 0, 61, 0
2, 12791, Note_on_c, 0, 59, 88
2, 12809, Note_off_c, 0, 59, 0
2, 12810, Note_on_c, 0, 61, 88
2, 12828, Note_off_c, 0, 61, 0
2, 12829, Note_on_c, 0, 59, 88
2, 12847, Note_off_c, 0, 59, 0
2, 12848, Note_on_c, 0, 61, 88
2, 12865, Note_off_c, 0, 61, 0
2, 12866, Note_on_c, 0, 59, 88
2, 12884, Note_off_c, 0, 59, 0
2, 12885, Note_on_c, 0, 61, 88
2, 12903, Note_off_c, 0, 61, 0
2, 12904, Note_on_c, 0, 59, 88
2, 12922, Note_off_c, 0, 59, 0
2, 12923, Note_on_c, 0, 61, 88
2, 12940, Note_off_c, 0, 61, 0
2, 12941, Note_on_c, 0, 59, 88
2, 12959, Note_off_c, 0, 59, 0
2, 12960, Note_on_c, 0, 59, 88
2, 13079, Note_off_c, 0, 59, 0
2, 13080, Note_on_c, 0, 64, 88
2, 13379, Note_off_c, 0, 64, 0
2, 13380, Note_on_c, 0, 66, 88
2, 13439, Note_off_c, 0, 66, 0
2, 13440, Note_on_c, 0, 64, 88
2, 13499, Note_off_c, 0, 64, 0
2, 13500, Note_on_c, 0, 62, 88
2, 13559, Note_off_c, 0, 62, 0
2, 13560, Note_on_c, 0, 61, 88
2, 13619, Note_off_c, 0, 61, 0
2, 13620, Note_on_c, 0, 64, 88
2, 13679, Note_off_c, 0, 64, 0
2, 13680, Note_on_c, 0, 58, 88
2, 13799, Note_off_c, 0, 58, 0
2, 13800, Note_on_c, 0, 73, 88
2, 14099, Note_off_c, 0, 73, 0
2, 14100, Note_on_c, 0, 74, 88
2, 14159, Note_off_c, 0, 74, 0
2, 14160, Note_on_c, 0, 73, 88
2, 14219, Note_off_c, 0, 73, 0
2, 14220, Note_on_c, 0, 71, 88
2, 14279, Note_off_c, 0, 71, 0
2, 14280, Note_on_c, 0, 70, 88
2, 14339, Note_off_c, 0, 70, 0
2, 14340, Note_on_c, 0, 73, 88
2, 14399, Note_off_c, 0, 73, 0
2, 14400, Note_on_c, 0, 66, 88
2, 14519, Note_off_c, 0, 66, 0
2, 14520, Note_on_c, 0, 79, 88
2, 14819, Note_off_c, 0, 79, 0
2, 14820, Note_on_c, 0, 78, 88
2, 14879, Note_off_c, 0, 78, 0
2, 14880, Note_on_c, 0, 76, 88
2, 14939, Note_off_c, 0, 76, 0
2, 14940, Note_on_c, 0, 74, 88
2, 14999, Note_off_c, 0, 74, 0
2, 15000, Note_on_c, 0, 73, 88
2, 15059, Note_off_c, 0, 73, 0
2, 15060, Note_on_c, 0, 76, 88
2, 15119, Note_off_c, 0, 76, 0
2, 15120, Note_on_c, 0, 74, 88
2, 15539, Note_off_c, 0, 74, 0
2, 15540, Note_on_c, 0, 73, 88
2, 15599, Note_off_c, 0, 73, 0
2, 15600, Note_on_c, 0, 71, 88
2, 15659, Note_off_c, 0, 71, 0
2, 15660, Note_on_c, 0, 69, 88
2, 15719, Note_off_c, 0, 69, 0
2, 15720, Note_on_c, 0, 68, 88
2, 15779, Note_off_c, 0, 68, 0
2, 15780, Note_on_c, 0, 71, 88
2, 15839, Note_off_c, 0, 71, 0
2, 15840, Note_on_c, 0, 65, 88
2, 15899, Note_off_c, 0, 65, 0
2, 15900, Note_on_c, 0, 74, 88
2, 15959, Note_off_c, 0, 74, 0
2, 15960, Note_on_c, 0, 73, 88
2, 16019, Note_off_c, 0, 73, 0
2, 16020, Note_on_c, 0, 71, 88
2, 16079, Note_off_c, 0, 71, 0
2, 16080, Note_on_c, 0, 70, 88
2, 16139, Note_off_c, 0, 70, 0
2, 16140, Note_on_c, 0, 73, 88
2, 16199, Note_off_c, 0, 73, 0
2, 16200, Note_on_c, 0, 76, 88
2, 16259, Note_off_c, 0, 76, 0
2, 16260, Note_on_c, 0, 79, 88
2, 16319, Note_off_c, 0, 79, 0
2, 16320, Note_on_c, 0, 78, 88
2, 16379, Note_off_c, 0, 78, 0
2, 16380, Note_on_c, 0, 76, 88
2, 16439, Note_off_c, 0, 76, 0
2, 16440, Note_on_c, 0, 74, 88
2, 16499, Note_off_c, 0, 74, 0
2, 16500, Note_on_c, 0, 78, 88
2, 16559, Note_off_c, 0, 78, 0
2, 16560, Note_on_c, 0, 71, 88
2, 16679, Note_off_c, 0, 71, 0
2, 16680, Note_on_c, 0, 73, 88
2, 16799, Note_off_c, 0, 73, 0
2, 16800, Note_on_c, 0, 70, 88
2, 16818, Note_off_c, 0, 70, 0
2, 16819, Note_on_c, 0, 71, 88
2, 16840, Note_off_c, 0, 71, 0
2, 16841, Note_on_c, 0, 70, 88
2, 16863, Note_off_c, 0, 70, 0
2, 16864, Note_on_c, 0, 68, 88
2, 16882, Note_off_c, 0, 68, 0
2, 16883, Note_on_c, 0, 70, 88
2, 16919, Note_off_c, 0, 70, 0
2, 16920, Note_on_c, 0, 71, 88
2, 17339, Note_off_c, 0, 71, 0
2, 17340, Note_on_c, 0, 67, 88
2, 17399, Note_off_c, 0, 67, 0
2, 17400, Note_on_c, 0, 69, 88
2, 17459, Note_off_c, 0, 69, 0
2, 17460, Note_on_c, 0, 71, 88
2, 17519, Note_off_c, 0, 71, 0
2, 17520, Note_on_c, 0, 72, 88
2, 17579, Note_off_c, 0, 72, 0
2, 17580, Note_on_c, 0, 69, 88
2, 17639, Note_off_c, 0, 69, 0
2, 17640, Note_on_c, 0, 71, 88
2, 17699, Note_off_c, 0, 71, 0
2, 17700, Note_on_c, 0, 67, 88
2, 17759, Note_off_c, 0, 67, 0
2, 17760, Note_on_c, 0, 66, 88
2, 17819, Note_off_c, 0, 66, 0
2, 17820, Note_on_c, 0, 64, 88
2, 17879, Note_off_c, 0, 64, 0
2, 17880, Note_on_c, 0, 63, 88
2, 17939, Note_off_c, 0, 63, 0
2, 17940, Note_on_c, 0, 69, 88
2, 17999, Note_off_c, 0, 69, 0
2, 18000, Note_on_c, 0, 67, 88
2, 18029, Note_off_c, 0, 67, 0
2, 18030, Note_on_c, 0, 66, 88
2, 18059, Note_off_c, 0, 66, 0
2, 18060, Note_on_c, 0, 64, 88
2, 18119, Note_off_c, 0, 64, 0
2, 18120, Note_on_c, 0, 76, 88
2, 18359, Note_off_c, 0, 76, 0
2, 18360, Note_on_c, 0, 75, 88
2, 18389, Note_off_c, 0, 75, 0
2, 18390, Note_on_c, 0, 73, 88
2, 18419, Note_off_c, 0, 73, 0
2, 18420, Note_on_c, 0, 71, 88
2, 18479, Note_off_c, 0, 71, 0
2, 18480, Note_on_c, 0, 81, 88
2, 18779, Note_off_c, 0, 81, 0
2, 18780, Note_on_c, 0, 67, 88
2, 18839, Note_off_c, 0, 67, 0
2, 18840, Note_on_c, 0, 69, 88
2, 18899, Note_off_c, 0, 69, 0
2, 18900, Note_on_c, 0, 71, 88
2, 18959, Note_off_c, 0, 71, 0
2, 18960, Note_on_c, 0, 72, 88
2, 19019, Note_off_c, 0, 72, 0
2, 19020, Note_on_c, 0, 69, 88
2, 19079, Note_off_c, 0, 69, 0
2, 19080, Note_on_c, 0, 71, 88
2, 19139, Note_off_c, 0, 71, 0
2, 19140, Note_on_c, 0, 67, 88
2, 19199, Note_off_c, 0, 67, 0
2, 19200, Note_on_c, 0, 66, 88
2, 19259, Note_off_c, 0, 66, 0
2, 19260, Note_on_c, 0, 64, 88
2, 19319, Note_off_c, 0, 64, 0
2, 19320, Note_on_c, 0, 63, 88
2, 19379, Note_off_c, 0, 63, 0
2, 19380, Note_on_c, 0, 69, 88
2, 19439, Note_off_c, 0, 69, 0
2, 19440, Note_on_c, 0, 67, 88
2, 19499, Note_off_c, 0, 67, 0
2, 19500, Note_on_c, 0, 71, 88
2, 19559, Note_off_c, 0, 71, 0
2, 19560, Note_on_c, 0, 72, 88
2, 19619, Note_off_c, 0, 72, 0
2, 19620, Note_on_c, 0, 74, 88
2, 19679, Note_off_c, 0, 74, 0
2, 19680, Note_on_c, 0, 76, 88
2, 19739, Note_off_c, 0, 76, 0
2, 19740, Note_on_c, 0, 72, 88
2, 19799, Note_off_c, 0, 72, 0
2, 19800, Note_on_c, 0, 74, 88
2, 19859, Note_off_c, 0, 74, 0
2, 19860, Note_on_c, 0, 71, 88
2, 19919, Note_off_c, 0, 71, 0
2, 19920, Note_on_c, 0, 69, 88
2, 19979, Note_off_c, 0, 69, 0
2, 19980, Note_on_c, 0, 67, 88
2, 20039, Note_off_c, 0, 67, 0
2, 20040, Note_on_c, 0, 66, 88
2, 20099, Note_off_c, 0, 66, 0
2, 20100, Note_on_c, 0, 72, 88
2, 20159, Note_off_c, 0, 72, 0
2, 20160, Note_on_c, 0, 71, 88
2, 20219, Note_off_c, 0, 71, 0
2, 20220, Note_on_c, 0, 74, 88
2, 20279, Note_off_c, 0, 74, 0
2, 20280, Note_on_c, 0, 76, 88
2, 20339, Note_off_c, 0, 76, 0
2, 20340, Note_on_c, 0, 78, 88
2, 20399, Note_off_c, 0, 78, 0
2, 20400, Note_on_c, 0, 79, 88
2, 20459, Note_off_c, 0, 79, 0
2, 20460, Note_on_c, 0, 76, 88
2, 20519, Note_off_c, 0, 76, 0
2, 20520, Note_on_c, 0, 78, 88
2, 20579, Note_off_c, 0, 78, 0
2, 20580, Note_on_c, 0, 74, 88
2, 20639, Note_off_c, 0, 74, 0
2, 20640, Note_on_c, 0, 73, 88
2, 20699, Note_off_c, 0, 73, 0
2, 20700, Note_on_c, 0, 71, 88
2, 20759, Note_off_c, 0, 71, 0
2, 20760, Note_on_c, 0, 70, 88
2, 20819, Note_off_c, 0, 70, 0
2, 20820, Note_on_c, 0, 76, 88
2, 20879, Note_off_c, 0, 76, 0
2, 20880, Note_on_c, 0, 74, 88
2, 20939, Note_off_c, 0, 74, 0
2, 20940, Note_on_c, 0, 78, 88
2, 20999, Note_off_c, 0, 78, 0
2, 21000, Note_on_c, 0, 76, 88
2, 21059, Note_off_c, 0, 76, 0
2, 21060, Note_on_c, 0, 74, 88
2, 21119, Note_off_c, 0, 74, 0
2, 21120, Note_on_c, 0, 73, 88
2, 21179, Note_off_c, 0, 73, 0
2, 21180, Note_on_c, 0, 71, 88
2, 21239, Note_off_c, 0, 71, 0
2, 21240, Note_on_c, 0, 70, 88
2, 21269, Note_off_c, 0, 70, 0
2, 21270, Note_on_c, 0, 68, 88
2, 21299, Note_off_c, 0, 68, 0
2, 21300, Note_on_c, 0, 66, 88
2, 21359, Note_off_c, 0, 66, 0
2, 21360, Note_on_c, 0, 76, 88
2, 21659, Note_off_c, 0, 76, 0
2, 21660, Note_on_c, 0, 74, 88
2, 21719, Note_off_c, 0, 74, 0
2, 21720, Note_on_c, 0, 76, 88
2, 21779, Note_off_c, 0, 76, 0
2, 21780, Note_on_c, 0, 78, 88
2, 21839, Note_off_c, 0, 78, 0
2, 21840, Note_on_c, 0, 79, 88
2, 21899, Note_off_c, 0, 79, 0
2, 21900, Note_on_c, 0, 76, 88
2, 21959, Note_off_c, 0, 76, 0
2, 21960, Note_on_c, 0, 78, 88
2, 22019, Note_off_c, 0, 78, 0
2, 22020, Note_on_c, 0, 74, 88
2, 22079, Note_off_c, 0, 74, 0
2, 22080, Note_on_c, 0, 73, 88
2, 22139, Note_off_c, 0, 73, 0
2, 22140, Note_on_c, 0, 71, 88
2, 22199, Note_off_c, 0, 71, 0
2, 22200, Note_on_c, 0, 70, 88
2, 22259, Note_off_c, 0, 70, 0
2, 22260, Note_on_c, 0, 76, 88
2, 22319, Note_off_c, 0, 76, 0
2, 22320, Note_on_c, 0, 74, 88
2, 22379, Note_off_c, 0, 74, 0
2, 22380, Note_on_c, 0, 71, 88
2, 22439, Note_off_c, 0, 71, 0
2, 22440, Note_on_c, 0, 73, 88
2, 22499, Note_off_c, 0, 73, 0
2, 22500, Note_on_c, 0, 74, 88
2, 22559, Note_off_c, 0, 74, 0
2, 22560, Note_on_c, 0, 76, 88
2, 22619, Note_off_c, 0, 76, 0
2, 22620, Note_on_c, 0, 73, 88
2, 22679, Note_off_c, 0, 73, 0
2, 22680, Note_on_c, 0, 74, 88
2, 22739, Note_off_c, 0, 74, 0
2, 22740, Note_on_c, 0, 71, 88
2, 22799, Note_off_c, 0, 71, 0
2, 22800, Note_on_c, 0, 69, 88
2, 22859, Note_off_c, 0, 69, 0
2, 22860, Note_on_c, 0, 67, 88
2, 22919, Note_off_c, 0, 67, 0
2, 22920, Note_on_c, 0, 66, 88
2, 22979, Note_off_c, 0, 66, 0
2, 22980, Note_on_c, 0, 72, 88
2, 23039, Note_off_c, 0, 72, 0
2, 23040, Note_on_c, 0, 71, 88
2, 23099, Note_off_c, 0, 71, 0
2, 23100, Note_on_c, 0, 67, 88
2, 23159, Note_off_c, 0, 67, 0
2, 23160, Note_on_c, 0, 76, 88
2, 23219, Note_off_c, 0, 76, 0
2, 23220, Note_on_c, 0, 71, 88
2, 23279, Note_off_c, 0, 71, 0
2, 23280, Note_on_c, 0, 72, 88
2, 23339, Note_off_c, 0, 72, 0
2, 23340, Note_on_c, 0, 81, 88
2, 23399, Note_off_c, 0, 81, 0
2, 23400, Note_on_c, 0, 71, 88
2, 23459, Note_off_c, 0, 71, 0
2, 23460, Note_on_c, 0, 74, 88
2, 23519, Note_off_c, 0, 74, 0
2, 23520, Note_on_c, 0, 79, 88
2, 23639, Note_off_c, 0, 79, 0
2, 23640, Note_on_c, 0, 71, 88
2, 23658, Note_off_c, 0, 71, 0
2, 23659, Note_on_c, 0, 69, 88
2, 23680, Note_off_c, 0, 69, 0
2, 23681, Note_on_c, 0, 71, 88
2, 23699, Note_off_c, 0, 71, 0
2, 23700, Note_on_c, 0, 69, 88
2, 23759, Note_off_c, 0, 69, 0
2, 23760, Note_on_c, 0, 67, 88
2, 23819, Note_off_c, 0, 67, 0
2, 23820, Note_on_c, 0, 64, 88
2, 23879, Note_off_c, 0, 64, 0
2, 23880, Note_on_c, 0, 72, 88
2, 23939, Note_off_c, 0, 72, 0
2, 23940, Note_on_c, 0, 67, 88
2, 23999, Note_off_c, 0, 67, 0
2, 24000, Note_on_c, 0, 69, 88
2, 24059, Note_off_c, 0, 69, 0
2, 24060, Note_on_c, 0, 78, 88
2, 24119, Note_off_c, 0, 78, 0
2, 24120, Note_on_c, 0, 67, 88
2, 24179, Note_off_c, 0, 67, 0
2, 24180, Note_on_c, 0, 71, 88
2, 24239, Note_off_c, 0, 71, 0
2, 24240, Note_on_c, 0, 76, 88
2, 24359, Note_off_c, 0, 76, 0
2, 24360, Note_on_c, 0, 67, 88
2, 24378, Note_off_c, 0, 67, 0
2, 24379, Note_on_c, 0, 66, 88
2, 24400, Note_off_c, 0, 66, 0
2, 24401, Note_on_c, 0, 67, 88
2, 24419, Note_off_c, 0, 67, 0
2, 24420, Note_on_c, 0, 66, 88
2, 24479, Note_off_c, 0, 66, 0
2, 24480, Note_on_c, 0, 64, 88
2, 24539, Note_off_c, 0, 64, 0
2, 24540, Note_on_c, 0, 67, 88
2, 24599, Note_off_c, 0, 67, 0
2, 24600, Note_on_c, 0, 69, 88
2, 24659, Note_off_c, 0, 69, 0
2, 24660, Note_on_c, 0, 71, 88
2, 24719, Note_off_c, 0, 71, 0
2, 24720, Note_on_c, 0, 72, 88
2, 24779, Note_off_c, 0, 72, 0
2, 24780, Note_on_c, 0, 69, 88
2, 24839, Note_off_c, 0, 69, 0
2, 24840, Note_on_c, 0, 71, 88
2, 24869, Note_off_c, 0, 71, 0
2, 24870, Note_on_c, 0, 69, 88
2, 24899, Note_off_c, 0, 69, 0
2, 24900, Note_on_c, 0, 67, 88
2, 24959, Note_off_c, 0, 67, 0
2, 24960, Note_on_c, 0, 77, 88
2, 25259, Note_off_c, 0, 77, 0
2, 25260, Note_on_c, 0, 64, 88
2, 25319, Note_off_c, 0, 64, 0
2, 25320, Note_on_c, 0, 66, 88
2, 25379, Note_off_c, 0, 66, 0
2, 25380, Note_on_c, 0, 67, 88
2, 25439, Note_off_c, 0, 67, 0
2, 25440, Note_on_c, 0, 69, 88
2, 25499, Note_off_c, 0, 69, 0
2, 25500, Note_on_c, 0, 66, 88
2, 25559, Note_off_c, 0, 66, 0
2, 25560, Note_on_c, 0, 67, 88
2, 25619, Note_off_c, 0, 67, 0
2, 25620, Note_on_c, 0, 62, 88
2, 25679, Note_off_c, 0, 62, 0
2, 25680, Note_on_c, 0, 64, 88
2, 25739, Note_off_c, 0, 64, 0
2, 25740, Note_on_c, 0, 66, 88
2, 25799, Note_off_c, 0, 66, 0
2, 25800, Note_on_c, 0, 67, 88
2, 25979, Note_off_c, 0, 67, 0
2, 25980, Note_on_c, 0, 66, 88
2, 26039, Note_off_c, 0, 66, 0
2, 26040, Note_on_c, 0, 68, 88
2, 26099, Note_off_c, 0, 68, 0
2, 26100, Note_on_c, 0, 69, 88
2, 26159, Note_off_c, 0, 69, 0
2, 26160, Note_on_c, 0, 71, 88
2, 26219, Note_off_c, 0, 71, 0
2, 26220, Note_on_c, 0, 68, 88
2, 26279, Note_off_c, 0, 68, 0
2, 26280, Note_on_c, 0, 69, 88
2, 26339, Note_off_c, 0, 69, 0
2, 26340, Note_on_c, 0, 64, 88
2, 26399, Note_off_c, 0, 64, 0
2, 26400, Note_on_c, 0, 66, 88
2, 26459, Note_off_c, 0, 66, 0
2, 26460, Note_on_c, 0, 67, 88
2, 26519, Note_off_c, 0, 67, 0
2, 26520, Note_on_c, 0, 69, 88
2, 26699, Note_off_c, 0, 69, 0
2, 26700, Note_on_c, 0, 68, 88
2, 26759, Note_off_c, 0, 68, 0
2, 26760, Note_on_c, 0, 70, 88
2, 26819, Note_off_c, 0, 70, 0
2, 26820, Note_on_c, 0, 71, 88
2, 26879, Note_off_c, 0, 71, 0
2, 26880, Note_on_c, 0, 73, 88
2, 26939, Note_off_c, 0, 73, 0
2, 26940, Note_on_c, 0, 70, 88
2, 26999, Note_off_c, 0, 70, 0
2, 27000, Note_on_c, 0, 71, 88
2, 27059, Note_off_c, 0, 71, 0
2, 27060, Note_on_c, 0, 66, 88
2, 27119, Note_off_c, 0, 66, 0
2, 27120, Note_on_c, 0, 68, 88
2, 27179, Note_off_c, 0, 68, 0
2, 27180, Note_on_c, 0, 70, 88
2, 27239, Note_off_c, 0, 70, 0
2, 27240, Note_on_c, 0, 71, 88
2, 27419, Note_off_c, 0, 71, 0
2, 27420, Note_on_c, 0, 70, 88
2, 27479, Note_off_c, 0, 70, 0
2, 27480, Note_on_c, 0, 71, 88
2, 27539, Note_off_c, 0, 71, 0
2, 27540, Note_on_c, 0, 73, 88
2, 27599, Note_off_c, 0, 73, 0
2, 27600, Note_on_c, 0, 74, 88
2, 27659, Note_off_c, 0, 74, 0
2, 27660, Note_on_c, 0, 71, 88
2, 27719, Note_off_c, 0, 71, 0
2, 27720, Note_on_c, 0, 73, 88
2, 27779, Note_off_c, 0, 73, 0
2, 27780, Note_on_c, 0, 71, 88
2, 27839, Note_off_c, 0, 71, 0
2, 27840, Note_on_c, 0, 70, 88
2, 27899, Note_off_c, 0, 70, 0
2, 27900, Note_on_c, 0, 68, 88
2, 27959, Note_off_c, 0, 68, 0
2, 27960, Note_on_c, 0, 66, 88
2, 28019, Note_off_c, 0, 66, 0
2, 28020, Note_on_c, 0, 64, 88
2, 28079, Note_off_c, 0, 64, 0
2, 28080, Note_on_c, 0, 62, 88
2, 28139, Note_off_c, 0, 62, 0
2, 28140, Note_on_c, 0, 66, 88
2, 28199, Note_off_c, 0, 66, 0
2, 28200, Note_on_c, 0, 68, 88
2, 28259, Note_off_c, 0, 68, 0
2, 28260, Note_on_c, 0, 70, 88
2, 28319, Note_off_c, 0, 70, 0
2, 28320, Note_on_c, 0, 71, 88
2, 28379, Note_off_c, 0, 71, 0
2, 28380, Note_on_c, 0, 68, 88
2, 28439, Note_off_c, 0, 68, 0
2, 28440, Note_on_c, 0, 70, 88
2, 28499, Note_off_c, 0, 70, 0
2, 28500, Note_on_c, 0, 68, 88
2, 28559, Note_off_c, 0, 68, 0
2, 28560, Note_on_c, 0, 66, 88
2, 28619, Note_off_c, 0, 66, 0
2, 28620, Note_on_c, 0, 64, 88
2, 28679, Note_off_c, 0, 64, 0
2, 28680, Note_on_c, 0, 62, 88
2, 28739, Note_off_c, 0, 62, 0
2, 28740, Note_on_c, 0, 61, 88
2, 28799, Note_off_c, 0, 61, 0
2, 28800, Note_on_c, 0, 61, 88
2, 28818, Note_off_c, 0, 61, 0
2, 28819, Note_on_c, 0, 59, 88
2, 28840, Note_off_c, 0, 59, 0
2, 28841, Note_on_c, 0, 61, 88
2, 28863, Note_off_c, 0, 61, 0
2, 28864, Note_on_c, 0, 59, 88
2, 28885, Note_off_c, 0, 59, 0
2, 28886, Note_on_c, 0, 61, 88
2, 28908, Note_off_c, 0, 61, 0
2, 28909, Note_on_c, 0, 59, 88
2, 28930, Note_off_c, 0, 59, 0
2, 28931, Note_on_c, 0, 61, 88
2, 28953, Note_off_c, 0, 61, 0
2, 28954, Note_on_c, 0, 59, 88
2, 28972, Note_off_c, 0, 59, 0
2, 28973, Note_on_c, 0, 61, 88
2, 28990, Note_off_c, 0, 61, 0
2, 28991, Note_on_c, 0, 59, 88
2, 29009, Note_off_c, 0, 59, 0
2, 29010, Note_on_c, 0, 61, 88
2, 29028, Note_off_c, 0, 61, 0
2, 29029, Note_on_c, 0, 59, 88
2, 29047, Note_off_c, 0, 59, 0
2, 29048, Note_on_c, 0, 61, 88
2, 29065, Note_off_c, 0, 61, 0
2, 29066, Note_on_c, 0, 59, 88
2, 29084, Note_off_c, 0, 59, 0
2, 29085, Note_on_c, 0, 61, 88
2, 29103, Note_off_c, 0, 61, 0
2, 29104, Note_on_c, 0, 59, 88
2, 29122, Note_off_c, 0, 59, 0
2, 29123, Note_on_c, 0, 61, 88
2, 29140, Note_off_c, 0, 61, 0
2, 29141, Note_on_c, 0, 59, 88
2, 29159, Note_off_c, 0, 59, 0
2, 29160, Note_on_c, 0, 61, 88
2, 29178, Note_off_c, 0, 61, 0
2, 29179, Note_on_c, 0, 59, 88
2, 29200, Note_off_c, 0, 59, 0
2, 29201, Note_on_c, 0, 61, 88
2, 29223, Note_off_c, 0, 61, 0
2, 29224, Note_on_c, 0, 59, 88
2, 29245, Note_off_c, 0, 59, 0
2, 29246, Note_on_c, 0, 61, 88
2, 29268, Note_off_c, 0, 61, 0
2, 29269, Note_on_c, 0, 59, 88
2, 29290, Note_off_c, 0, 59, 0
2, 29291, Note_on_c, 0, 61, 88
2, 29313, Note_off_c, 0, 61, 0
2, 29314, Note_on_c, 0, 59, 88
2, 29332, Note_off_c, 0, 59, 0
2, 29333, Note_on_c, 0, 61, 88
2, 29350, Note_off_c, 0, 61, 0
2, 29351, Note_on_c, 0, 59, 88
2, 29369, Note_off_c, 0, 59, 0
2, 29370, Note_on_c, 0, 61, 88
2, 29388, Note_off_c, 0, 61, 0
2, 29389, Note_on_c, 0, 59, 88
2, 29407, Note_off_c, 0, 59, 0
2, 29408, Note_on_c, 0, 61, 88
2, 29425, Note_off_c, 0, 61, 0
2, 29426, Note_on_c, 0, 59, 88
2, 29444, Note_off_c, 0, 59, 0
2, 29445, Note_on_c, 0, 61, 88
2, 29463, Note_off_c, 0, 61, 0
2, 29464, Note_on_c, 0, 59, 88
2, 29482, Note_off_c, 0, 59, 0
2, 29483, Note_on_c, 0, 61, 88
2, 29500, Note_off_c, 0, 61, 0
2, 29501, Note_on_c, 0, 59, 88
2, 29519, Note_off_c, 0, 59, 0
2, 29520, Note_on_c, 0, 61, 88
2, 29538, Note_off_c, 0, 61, 0
2, 29539, Note_on_c, 0, 59, 88
2, 29560, Note_off_c, 0, 59, 0
2, 29561, Note_on_c, 0, 61, 88
2, 29583, Note_off_c, 0, 61, 0
2, 29584, Note_on_c, 0, 59, 88
2, 29605, Note_off_c, 0, 59, 0
2, 29606, Note_on_c, 0, 61, 88
2, 29628, Note_off_c, 0, 61, 0
2, 29629, Note_on_c, 0, 59, 88
2, 29650, Note_off_c, 0, 59, 0
2, 29651, Note_on_c, 0, 61, 88
2, 29673, Note_off_c, 0, 61, 0
2, 29674, Note_on_c, 0, 59, 88
2, 29692, Note_off_c, 0, 59, 0
2, 29693, Note_on_c, 0, 61, 88
2, 29710, Note_off_c, 0, 61, 0
2, 29711, Note_on_c, 0, 59, 88
2, 29729, Note_off_c, 0, 59, 0
2, 29730, Note_on_c, 0, 61, 88
2, 29748, Note_off_c, 0, 61, 0
2, 29749, Note_on_c, 0, 59, 88
2, 29767, Note_off_c, 0, 59, 0
2, 29768, Note_on_c, 0, 61, 88
2, 29785, Note_off_c, 0, 61, 0
2, 29786, Note_on_c, 0, 59, 88
2, 29804, Note_off_c, 0, 59, 0
2, 29805, Note_on_c, 0, 61, 88
2, 29823, Note_off_c, 0, 61, 0
2, 29824, Note_on_c, 0, 59, 88
2, 29842, Note_off_c, 0, 59, 0
2, 29843, Note_on_c, 0, 61, 88
2, 29860, Note_off_c, 0, 61, 0
2, 29861, Note_on_c, 0, 59, 88
2, 29879, Note_off_c, 0, 59, 0
2, 29880, Note_on_c, 0, 61, 88
2, 29898, Note_off_c, 0, 61, 0
2, 29899, Note_on_c, 0, 59, 88
2, 29920, Note_off_c, 0, 59, 0
2, 29921, Note_on_c, 0, 61, 88
2, 29943, Note_off_c, 0, 61, 0
2, 29944, Note_on_c, 0, 59, 88
2, 29965, Note_off_c, 0, 59, 0
2, 29966, Note_on_c, 0, 61, 88
2, 29988, Note_off_c, 0, 61, 0
2, 29989, Note_on_c, 0, 59, 88
2, 30010, Note_off_c, 0, 59, 0
2, 30011, Note_on_c, 0, 61, 88
2, 30033, Note_off_c, 0, 61, 0
2, 30034, Note_on_c, 0, 59, 88
2, 30052, Note_off_c, 0, 59, 0
2, 30053, Note_on_c, 0, 61, 88
2, 30070, Note_off_c, 0, 61, 0
2, 30071, Note_on_c, 0, 59, 88
2, 30089, Note_off_c, 0, 59, 0
2, 30090, Note_on_c, 0, 61, 88
2, 30108, Note_off_c, 0, 61, 0
2, 30109, Note_on_c, 0, 59, 88
2, 30127, Note_off_c, 0, 59, 0
2, 30128, Note_on_c, 0, 61, 88
2, 30145, Note_off_c, 0, 61, 0
2, 30146, Note_on_c, 0, 59, 88
2, 30164, Note_off_c, 0, 59, 0
2, 30165, Note_on_c, 0, 61, 88
2, 30183, Note_off_c, 0, 61, 0
2, 30184, Note_on_c, 0, 59, 88
2, 30202, Note_off_c, 0, 59, 0
2, 30203, Note_on_c, 0, 61, 88
2, 30220, Note_off_c, 0, 61, 0
2, 30221, Note_on_c, 0, 59, 88
2, 30239, Note_off_c, 0, 59, 0
2, 30240, Note_on_c, 0, 59, 88
2, 30359, Note_off_c, 0, 59, 0
2, 30360, Note_on_c, 0, 64, 88
2, 30659, Note_off_c, 0, 64, 0
2, 30660, Note_on_c, 0, 66, 88
2, 30719, Note_off_c, 0, 66, 0
2, 30720, Note_on_c, 0, 64, 88
2, 30779, Note_off_c, 0, 64, 0
2, 30780, Note_on_c, 0, 62, 88
2, 30839, Note_off_c, 0, 62, 0
2, 30840, Note_on_c, 0, 61, 88
2, 30899, Note_off_c, 0, 61, 0
2, 30900, Note_on_c, 0, 64, 88
2, 30959, Note_off_c, 0, 64, 0
2, 30960, Note_on_c, 0, 58, 88
2, 31079, Note_off_c, 0, 58, 0
2, 31080, Note_on_c, 0, 73, 88
2, 31379, Note_off_c, 0, 73, 0
2, 31380, Note_on_c, 0, 74, 88
2, 31439, Note_off_c, 0, 74, 0
2, 31440, Note_on_c, 0, 73, 88
2, 31499, Note_off_c, 0, 73, 0
2, 31500, Note_on_c, 0, 71, 88
2, 31559, Note_off_c, 0, 71, 0
2, 31560, Note_on_c, 0, 70, 88
2, 31619, Note_off_c, 0, 70, 0
2, 31620, Note_on_c, 0, 73, 88
2, 31679, Note_off_c, 0, 73, 0
2, 31680, Note_on_c, 0, 66, 88
2, 31799, Note_off_c, 0, 66, 0
2, 31800, Note_on_c, 0, 79, 88
2, 32099, Note_off_c, 0, 79, 0
2, 32100, Note_on_c, 0, 78, 88
2, 32159, Note_off_c, 0, 78, 0
2, 32160, Note_on_c, 0, 76, 88
2, 32219, Note_off_c, 0, 76, 0
2, 32220, Note_on_c, 0, 74, 88
2, 32279, Note_off_c, 0, 74, 0
2, 32280, Note_on_c, 0, 73, 88
2, 32339, Note_off_c, 0, 73, 0
2, 32340, Note_on_c, 0, 76, 88
2, 32399, Note_off_c, 0, 76, 0
2, 32400, Note_on_c, 0, 74, 88
2, 32819, Note_off_c, 0, 74, 0
2, 32820, Note_on_c, 0, 73, 88
2, 32879, Note_off_c, 0, 73, 0
2, 32880, Note_on_c, 0, 71, 88
2, 32939, Note_off_c, 0, 71, 0
2, 32940, Note_on_c, 0, 69, 88
2, 32999, Note_off_c, 0, 69, 0
2, 33000, Note_on_c, 0, 68, 88
2, 33059, Note_off_c, 0, 68, 0
2, 33060, Note_on_c, 0, 71, 88
2, 33119, Note_off_c, 0, 71, 0
2, 33120, Note_on_c, 0, 65, 88
2, 33179, Note_off_c, 0, 65, 0
2, 33180, Note_on_c, 0, 74, 88
2, 33239, Note_off_c, 0, 74, 0
2, 33240, Note_on_c, 0, 73, 88
2, 33299, Note_off_c, 0, 73, 0
2, 33300, Note_on_c, 0, 71, 88
2, 33359, Note_off_c, 0, 71, 0
2, 33360, Note_on_c, 0, 70, 88
2, 33419, Note_off_c, 0, 70, 0
2, 33420, Note_on_c, 0, 73, 88
2, 33479, Note_off_c, 0, 73, 0
2, 33480, Note_on_c, 0, 76, 88
2, 33539, Note_off_c, 0, 76, 0
2, 33540, Note_on_c, 0, 79, 88
2, 33599, Note_off_c, 0, 79, 0
2, 33600, Note_on_c, 0, 78, 88
2, 33659, Note_off_c, 0, 78, 0
2, 33660, Note_on_c, 0, 76, 88
2, 33719, Note_off_c, 0, 76, 0
2, 33720, Note_on_c, 0, 74, 88
2, 33779, Note_off_c, 0, 74, 0
2, 33780, Note_on_c, 0, 78, 88
2, 33839, Note_off_c, 0, 78, 0
2, 33840, Note_on_c, 0, 71, 88
2, 33959, Note_off_c, 0, 71, 0
2, 33960, Note_on_c, 0, 73, 88
2, 34079, Note_off_c, 0, 73, 0
2, 34080, Note_on_c, 0, 70, 88
2, 34098, Note_off_c, 0, 70, 0
2, 34099, Note_on_c, 0, 71, 88
2, 34120, Note_off_c, 0, 71, 0
2, 34121, Note_on_c, 0, 70, 88
2, 34143, Note_off_c, 0, 70, 0
2, 34144, Note_on_c, 0, 68, 88
2, 34162, Note_off_c, 0, 68, 0
2, 34163, Note_on_c, 0, 70, 88
2, 34199, Note_off_c, 0, 70, 0
2, 34200, Note_on_c, 0, 71, 88
2, 34559, Note_off_c, 0, 71, 0
2, 34560, Note_on_c, 0, 78, 88
2, 35039, Note_off_c, 0, 78, 0
2, 35040, Note_on_c, 0, 76, 88
2, 35099, Note_off_c, 0, 76, 0
2, 35100, Note_on_c, 0, 78, 88
2, 35159, Note_off_c, 0, 78, 0
2, 35160, Note_on_c, 0, 79, 88
2, 35279, Note_off_c, 0, 79, 0
2, 35280, Note_on_c, 0, 78, 88
2, 35399, Note_off_c, 0, 78, 0
2, 35400, Note_on_c, 0, 76, 88
2, 35407, Note_off_c, 0, 76, 0
2, 35408, Note_on_c, 0, 78, 88
2, 35422, Note_off_c, 0, 78, 0
2, 35423, Note_on_c, 0, 76, 88
2, 35433, Note_off_c, 0, 76, 0
2, 35434, Note_on_c, 0, 78, 88
2, 35444, Note_off_c, 0, 78, 0
2, 35445, Note_on_c, 0, 76, 88
2, 35455, Note_off_c, 0, 76, 0
2, 35456, Note_on_c, 0, 78, 88
2, 35467, Note_off_c, 0, 78, 0
2, 35468, Note_on_c, 0, 76, 88
2, 35519, Note_off_c, 0, 76, 0
2, 35520, Note_on_c, 0, 69, 88
2, 35639, Note_off_c, 0, 69, 0
2, 35640, Note_on_c, 0, 74, 88
2, 35759, Note_off_c, 0, 74, 0
2, 35760, Note_on_c, 0, 72, 88
2, 35819, Note_off_c, 0, 72, 0
2, 35820, Note_on_c, 0, 71, 88
2, 35879, Note_off_c, 0, 71, 0
2, 35880, Note_on_c, 0, 72, 88
2, 36059, Note_off_c, 0, 72, 0
2, 36060, Note_on_c, 0, 71, 88
2, 36119, Note_off_c, 0, 71, 0
2, 36120, Note_on_c, 0, 69, 88
2, 36179, Note_off_c, 0, 69, 0
2, 36180, Note_on_c, 0, 67, 88
2, 36239, Note_off_c, 0, 67, 0
2, 36240, Note_on_c, 0, 66, 88
2, 36299, Note_off_c, 0, 66, 0
2, 36300, Note_on_c, 0, 69, 88
2, 36359, Note_off_c, 0, 69, 0
2, 36360, Note_on_c, 0, 67, 88
2, 36419, Note_off_c, 0, 67, 0
2, 36420, Note_on_c, 0, 71, 88
2, 36479, Note_off_c, 0, 71, 0
2, 36480, Note_on_c, 0, 72, 88
2, 36539, Note_off_c, 0, 72, 0
2, 36540, Note_on_c, 0, 74, 88
2, 36599, Note_off_c, 0, 74, 0
2, 36600, Note_on_c, 0, 76, 88
2, 36659, Note_off_c, 0, 76, 0
2, 36660, Note_on_c, 0, 69, 88
2, 36719, Note_off_c, 0, 69, 0
2, 36720, Note_on_c, 0, 74, 88
2, 36779, Note_off_c, 0, 74, 0
2, 36780, Note_on_c, 0, 68, 88
2, 36839, Note_off_c, 0, 68, 0
2, 36840, Note_on_c, 0, 69, 88
2, 36899, Note_off_c, 0, 69, 0
2, 36900, Note_on_c, 0, 71, 88
2, 36959, Note_off_c, 0, 71, 0
2, 36960, Note_on_c, 0, 72, 88
2, 37019, Note_off_c, 0, 72, 0
2, 37020, Note_on_c, 0, 66, 88
2, 37079, Note_off_c, 0, 66, 0
2, 37080, Note_on_c, 0, 71, 88
2, 37139, Note_off_c, 0, 71, 0
2, 37140, Note_on_c, 0, 64, 88
2, 37199, Note_off_c, 0, 64, 0
2, 37200, Note_on_c, 0, 66, 88
2, 37259, Note_off_c, 0, 66, 0
2, 37260, Note_on_c, 0, 68, 88
2, 37319, Note_off_c, 0, 68, 0
2, 37320, Note_on_c, 0, 69, 88
2, 37379, Note_off_c, 0, 69, 0
2, 37380, Note_on_c, 0, 63, 88
2, 37439, Note_off_c, 0, 63, 0
2, 37440, Note_on_c, 0, 68, 88
2, 37559, Note_off_c, 0, 68, 0
2, 37560, Note_on_c, 0, 69, 88
2, 37679, Note_off_c, 0, 69, 0
2, 37680, Note_on_c, 0, 71, 88
2, 37799, Note_off_c, 0, 71, 0
2, 37800, Note_on_c, 0, 64, 88
2, 37859, Note_off_c, 0, 64, 0
2, 37860, Note_on_c, 0, 76, 88
2, 37919, Note_off_c, 0, 76, 0
2, 37920, Note_on_c, 0, 74, 88
2, 37979, Note_off_c, 0, 74, 0
2, 37980, Note_on_c, 0, 72, 88
2, 38039, Note_off_c, 0, 72, 0
2, 38040, Note_on_c, 0, 71, 88
2, 38099, Note_off_c, 0, 71, 0
2, 38100, Note_on_c, 0, 74, 88
2, 38159, Note_off_c, 0, 74, 0
2, 38160, Note_on_c, 0, 72, 88
2, 38279, Note_off_c, 0, 72, 0
2, 38280, Note_on_c, 0, 74, 88
2, 38399, Note_off_c, 0, 74, 0
2, 38400, Note_on_c, 0, 76, 88
2, 38519, Note_off_c, 0, 76, 0
2, 38520, Note_on_c, 0, 69, 88
2, 38579, Note_off_c, 0, 69, 0
2, 38580, Note_on_c, 0, 81, 88
2, 38639, Note_off_c, 0, 81, 0
2, 38640, Note_on_c, 0, 79, 88
2, 38699, Note_off_c, 0, 79, 0
2, 38700, Note_on_c, 0, 77, 88
2, 38759, Note_off_c, 0, 77, 0
2, 38760, Note_on_c, 0, 76, 88
2, 38819, Note_off_c, 0, 76, 0
2, 38820, Note_on_c, 0, 79, 88
2, 38879, Note_off_c, 0, 79, 0
2, 38880, Note_on_c, 0, 77, 88
2, 38999, Note_off_c, 0, 77, 0
2, 39000, Note_on_c, 0, 79, 88
2, 39119, Note_off_c, 0, 79, 0
2, 39120, Note_on_c, 0, 81, 88
2, 39299, Note_off_c, 0, 81, 0
2, 39300, Note_on_c, 0, 74, 88
2, 39359, Note_off_c, 0, 74, 0
2, 39360, Note_on_c, 0, 72, 88
2, 39419, Note_off_c, 0, 72, 0
2, 39420, Note_on_c, 0, 71, 88
2, 39479, Note_off_c, 0, 71, 0
2, 39480, Note_on_c, 0, 69, 88
2, 39539, Note_off_c, 0, 69, 0
2, 39540, Note_on_c, 0, 72, 88
2, 39599, Note_off_c, 0, 72, 0
2, 39600, Note_on_c, 0, 71, 88
2, 39719, Note_off_c, 0, 71, 0
2, 39720, Note_on_c, 0, 72, 88
2, 39839, Note_off_c, 0, 72, 0
2, 39840, Note_on_c, 0, 74, 88
2, 40019, Note_off_c, 0, 74, 0
2, 40020, Note_on_c, 0, 67, 88
2, 40079, Note_off_c, 0, 67, 0
2, 40080, Note_on_c, 0, 72, 88
2, 40139, Note_off_c, 0, 72, 0
2, 40140, Note_on_c, 0, 74, 88
2, 40199, Note_off_c, 0, 74, 0
2, 40200, Note_on_c, 0, 76, 88
2, 40379, Note_off_c, 0, 76, 0
2, 40380, Note_on_c, 0, 72, 88
2, 40439, Note_off_c, 0, 72, 0
2, 40440, Note_on_c, 0, 74, 88
2, 40499, Note_off_c, 0, 74, 0
2, 40500, Note_on_c, 0, 76, 88
2, 40559, Note_off_c, 0, 76, 0
2, 40560, Note_on_c, 0, 77, 88
2, 40739, Note_off_c, 0, 77, 0
2, 40740, Note_on_c, 0, 79, 88
2, 40799, Note_off_c, 0, 79, 0
2, 40800, Note_on_c, 0, 77, 88
2, 40859, Note_off_c, 0, 77, 0
2, 40860, Note_on_c, 0, 76, 88
2, 40919, Note_off_c, 0, 76, 0
2, 40920, Note_on_c, 0, 74, 88
2, 40979, Note_off_c, 0, 74, 0
2, 40980, Note_on_c, 0, 77, 88
2, 41039, Note_off_c, 0, 77, 0
2, 41040, Note_on_c, 0, 76, 88
2, 41099, Note_off_c, 0, 76, 0
2, 41100, Note_on_c, 0, 64, 88
2, 41159, Note_off_c, 0, 64, 0
2, 41160, Note_on_c, 0, 66, 88
2, 41219, Note_off_c, 0, 66, 0
2, 41220, Note_on_c, 0, 68, 88
2, 41279, Note_off_c, 0, 68, 0
2, 41280, Note_on_c, 0, 69, 88
2, 41339, Note_off_c, 0, 69, 0
2, 41340, Note_on_c, 0, 66, 88
2, 41399, Note_off_c, 0, 66, 0
2, 41400, Note_on_c, 0, 74, 88
2, 41459, Note_off_c, 0, 74, 0
2, 41460, Note_on_c, 0, 66, 88
2, 41519, Note_off_c, 0, 66, 0
2, 41520, Note_on_c, 0, 68, 88
2, 41579, Note_off_c, 0, 68, 0
2, 41580, Note_on_c, 0, 69, 88
2, 41639, Note_off_c, 0, 69, 0
2, 41640, Note_on_c, 0, 71, 88
2, 41699, Note_off_c, 0, 71, 0
2, 41700, Note_on_c, 0, 68, 88
2, 41759, Note_off_c, 0, 68, 0
2, 41760, Note_on_c, 0, 72, 88
2, 41819, Note_off_c, 0, 72, 0
2, 41820, Note_on_c, 0, 68, 88
2, 41879, Note_off_c, 0, 68, 0
2, 41880, Note_on_c, 0, 69, 88
2, 41939, Note_off_c, 0, 69, 0
2, 41940, Note_on_c, 0, 71, 88
2, 41999, Note_off_c, 0, 71, 0
2, 42000, Note_on_c, 0, 72, 88
2, 42059, Note_off_c, 0, 72, 0
2, 42060, Note_on_c, 0, 69, 88
2, 42119, Note_off_c, 0, 69, 0
2, 42120, Note_on_c, 0, 72, 88
2, 42179, Note_off_c, 0, 72, 0
2, 42180, Note_on_c, 0, 71, 88
2, 42239, Note_off_c, 0, 71, 0
2, 42240, Note_on_c, 0, 69, 88
2, 42299, Note_off_c, 0, 69, 0
2, 42300, Note_on_c, 0, 68, 88
2, 42359, Note_off_c, 0, 68, 0
2, 42360, Note_on_c, 0, 69, 88
2, 42539, Note_off_c, 0, 69, 0
2, 42540, Note_on_c, 0, 71, 88
2, 42599, Note_off_c, 0, 71, 0
2, 42600, Note_on_c, 0, 72, 88
2, 42622, Note_off_c, 0, 72, 0
2, 42623, Note_on_c, 0, 71, 88
2, 42640, Note_off_c, 0, 71, 0
2, 42641, Note_on_c, 0, 72, 88
2, 42659, Note_off_c, 0, 72, 0
2, 42660, Note_on_c, 0, 71, 88
2, 42674, Note_off_c, 0, 71, 0
2, 42675, Note_on_c, 0, 72, 88
2, 42689, Note_off_c, 0, 72, 0
2, 42690, Note_on_c, 0, 71, 88
2, 42704, Note_off_c, 0, 71, 0
2, 42705, Note_on_c, 0, 72, 88
2, 42719, Note_off_c, 0, 72, 0
2, 42720, Note_on_c, 0, 71, 88
2, 42779, Note_off_c, 0, 71, 0
2, 42780, Note_on_c, 0, 69, 88
2, 42839, Note_off_c, 0, 69, 0
2, 42840, Note_on_c, 0, 69, 88
2, 43259, Note_off_c, 0, 69, 0
2, 43260, Note_on_c, 0, 74, 88
2, 43319, Note_off_c, 0, 74, 0
2, 43320, Note_on_c, 0, 72, 88
2, 43379, Note_off_c, 0, 72, 0
2, 43380, Note_on_c, 0, 71, 88
2, 43439, Note_off_c, 0, 71, 0
2, 43440, Note_on_c, 0, 69, 88
2, 43499, Note_off_c, 0, 69, 0
2, 43500, Note_on_c, 0, 72, 88
2, 43559, Note_off_c, 0, 72, 0
2, 43560, Note_on_c, 0, 71, 88
2, 43619, Note_off_c, 0, 71, 0
2, 43620, Note_on_c, 0, 74, 88
2, 43679, Note_off_c, 0, 74, 0
2, 43680, Note_on_c, 0, 76, 88
2, 43739, Note_off_c, 0, 76, 0
2, 43740, Note_on_c, 0, 78, 88
2, 43799, Note_off_c, 0, 78, 0
2, 43800, Note_on_c, 0, 79, 88
2, 43859, Note_off_c, 0, 79, 0
2, 43860, Note_on_c, 0, 73, 88
2, 43919, Note_off_c, 0, 73, 0
2, 43920, Note_on_c, 0, 78, 88
2, 43979, Note_off_c, 0, 78, 0
2, 43980, Note_on_c, 0, 71, 88
2, 44039, Note_off_c, 0, 71, 0
2, 44040, Note_on_c, 0, 72, 88
2, 44099, Note_off_c, 0, 72, 0
2, 44100, Note_on_c, 0, 74, 88
2, 44159, Note_off_c, 0, 74, 0
2, 44160, Note_on_c, 0, 76, 88
2, 44219, Note_off_c, 0, 76, 0
2, 44220, Note_on_c, 0, 69, 88
2, 44279, Note_off_c, 0, 69, 0
2, 44280, Note_on_c, 0, 74, 88
2, 44339, Note_off_c, 0, 74, 0
2, 44340, Note_on_c, 0, 67, 88
2, 44399, Note_off_c, 0, 67, 0
2, 44400, Note_on_c, 0, 69, 88
2, 44459, Note_off_c, 0, 69, 0
2, 44460, Note_on_c, 0, 71, 88
2, 44519, Note_off_c, 0, 71, 0
2, 44520, Note_on_c, 0, 72, 88
2, 44579, Note_off_c, 0, 72, 0
2, 44580, Note_on_c, 0, 66, 88
2, 44639, Note_off_c, 0, 66, 0
2, 44640, Note_on_c, 0, 71, 88
2, 44759, Note_off_c, 0, 71, 0
2, 44760, Note_on_c, 0, 76, 88
2, 44782, Note_off_c, 0, 76, 0
2, 44783, Note_on_c, 0, 75, 88
2, 44804, Note_off_c, 0, 75, 0
2, 44805, Note_on_c, 0, 76, 88
2, 44827, Note_off_c, 0, 76, 0
2, 44828, Note_on_c, 0, 75, 88
2, 44849, Note_off_c, 0, 75, 0
2, 44850, Note_on_c, 0, 76, 88
2, 44872, Note_off_c, 0, 76, 0
2, 44873, Note_on_c, 0, 75, 88
2, 44894, Note_off_c, 0, 75, 0
2, 44895, Note_on_c, 0, 76, 88
2, 44917, Note_off_c, 0, 76, 0
2, 44918, Note_on_c, 0, 75, 88
2, 44939, Note_off_c, 0, 75, 0
2, 44940, Note_on_c, 0, 73, 88
2, 44969, Note_off_c, 0, 73, 0
2, 44970, Note_on_c, 0, 75, 88
2, 44999, Note_off_c, 0, 75, 0
2, 45000, Note_on_c, 0, 76, 88
2, 45119, Note_off_c, 0, 76, 0
2, 45120, Note_on_c, 0, 78, 88
2, 45138, Note_off_c, 0, 78, 0
2, 45139, Note_on_c, 0, 79, 88
2, 45160, Note_off_c, 0, 79, 0
2, 45161, Note_on_c, 0, 78, 88
2, 45183, Note_off_c, 0, 78, 0
2, 45184, Note_on_c, 0, 76, 88
2, 45202, Note_off_c, 0, 76, 0
2, 45203, Note_on_c, 0, 78, 88
2, 45239, Note_off_c, 0, 78, 0
2, 45240, Note_on_c, 0, 79, 88
2, 45419, Note_off_c, 0, 79, 0
2, 45420, Note_on_c, 0, 78, 88
2, 45479, Note_off_c, 0, 78, 0
2, 45480, Note_on_c, 0, 76, 88
2, 45539, Note_off_c, 0, 76, 0
2, 45540, Note_on_c, 0, 75, 88
2, 45599, Note_off_c, 0, 75, 0
2, 45600, Note_on_c, 0, 76, 88
2, 45779, Note_off_c, 0, 76, 0
2, 45780, Note_on_c, 0, 74, 88
2, 45839, Note_off_c, 0, 74, 0
2, 45840, Note_on_c, 0, 72, 88
2, 45899, Note_off_c, 0, 72, 0
2, 45900, Note_on_c, 0, 71, 88
2, 45959, Note_off_c, 0, 71, 0
2, 45960, Note_on_c, 0, 72, 88
2, 46019, Note_off_c, 0, 72, 0
2, 46020, Note_on_c, 0, 81, 88
2, 46079, Note_off_c, 0, 81, 0
2, 46080, Note_on_c, 0, 71, 88
2, 46139, Note_off_c, 0, 71, 0
2, 46140, Note_on_c, 0, 62, 88
2, 46199, Note_off_c, 0, 62, 0
2, 46200, Note_on_c, 0, 64, 88
2, 46259, Note_off_c, 0, 64, 0
2, 46260, Note_on_c, 0, 66, 88
2, 46319, Note_off_c, 0, 66, 0
2, 46320, Note_on_c, 0, 67, 88
2, 46499, Note_off_c, 0, 67, 0
2, 46500, Note_on_c, 0, 66, 88
2, 46559, Note_off_c, 0, 66, 0
2, 46560, Note_on_c, 0, 68, 88
2, 46619, Note_off_c, 0, 68, 0
2, 46620, Note_on_c, 0, 69, 88
2, 46679, Note_off_c, 0, 69, 0
2, 46680, Note_on_c, 0, 71, 88
2, 46739, Note_off_c, 0, 71, 0
2, 46740, Note_on_c, 0, 68, 88
2, 46799, Note_off_c, 0, 68, 0
2, 46800, Note_on_c, 0, 69, 88
2, 46859, Note_off_c, 0, 69, 0
2, 46860, Note_on_c, 0, 64, 88
2, 46919, Note_off_c, 0, 64, 0
2, 46920, Note_on_c, 0, 66, 88
2, 46979, Note_off_c, 0, 66, 0
2, 46980, Note_on_c, 0, 67, 88
2, 47039, Note_off_c, 0, 67, 0
2, 47040, Note_on_c, 0, 69, 88
2, 47219, Note_off_c, 0, 69, 0
2, 47220, Note_on_c, 0, 67, 88
2, 47279, Note_off_c, 0, 67, 0
2, 47280, Note_on_c, 0, 69, 88
2, 47339, Note_off_c, 0, 69, 0
2, 47340, Note_on_c, 0, 71, 88
2, 47399, Note_off_c, 0, 71, 0
2, 47400, Note_on_c, 0, 72, 88
2, 47459, Note_off_c, 0, 72, 0
2, 47460, Note_on_c, 0, 69, 88
2, 47519, Note_off_c, 0, 69, 0
2, 47520, Note_on_c, 0, 71, 88
2, 47579, Note_off_c, 0, 71, 0
2, 47580, Note_on_c, 0, 75, 88
2, 47639, Note_off_c, 0, 75, 0
2, 47640, Note_on_c, 0, 76, 88
2, 47699, Note_off_c, 0, 76, 0
2, 47700, Note_on_c, 0, 78, 88
2, 47759, Note_off_c, 0, 78, 0
2, 47760, Note_on_c, 0, 79, 88
2, 47819, Note_off_c, 0, 79, 0
2, 47820, Note_on_c, 0, 76, 88
2, 47879, Note_off_c, 0, 76, 0
2, 47880, Note_on_c, 0, 78, 88
2, 47939, Note_off_c, 0, 78, 0
2, 47940, Note_on_c, 0, 76, 88
2, 47999, Note_off_c, 0, 76, 0
2, 48000, Note_on_c, 0, 75, 88
2, 48059, Note_off_c, 0, 75, 0
2, 48060, Note_on_c, 0, 73, 88
2, 48119, Note_off_c, 0, 73, 0
2, 48120, Note_on_c, 0, 71, 88
2, 48179, Note_off_c, 0, 71, 0
2, 48180, Note_on_c, 0, 69, 88
2, 48239, Note_off_c, 0, 69, 0
2, 48240, Note_on_c, 0, 67, 88
2, 48299, Note_off_c, 0, 67, 0
2, 48300, Note_on_c, 0, 71, 88
2, 48359, Note_off_c, 0, 71, 0
2, 48360, Note_on_c, 0, 73, 88
2, 48419, Note_off_c, 0, 73, 0
2, 48420, Note_on_c, 0, 75, 88
2, 48479, Note_off_c, 0, 75, 0
2, 48480, Note_on_c, 0, 76, 88
2, 48539, Note_off_c, 0, 76, 0
2, 48540, Note_on_c, 0, 73, 88
2, 48599, Note_off_c, 0, 73, 0
2, 48600, Note_on_c, 0, 75, 88
2, 48659, Note_off_c, 0, 75, 0
2, 48660, Note_on_c, 0, 73, 88
2, 48719, Note_off_c, 0, 73, 0
2, 48720, Note_on_c, 0, 71, 88
2, 48779, Note_off_c, 0, 71, 0
2, 48780, Note_on_c, 0, 69, 88
2, 48839, Note_off_c, 0, 69, 0
2, 48840, Note_on_c, 0, 67, 88
2, 48899, Note_off_c, 0, 67, 0
2, 48900, Note_on_c, 0, 66, 88
2, 48959, Note_off_c, 0, 66, 0
2, 48960, Note_on_c, 0, 66, 88
2, 48978, Note_off_c, 0, 66, 0
2, 48979, Note_on_c, 0, 64, 88
2, 49000, Note_off_c, 0, 64, 0
2, 49001, Note_on_c, 0, 66, 88
2, 49023, Note_off_c, 0, 66, 0
2, 49024, Note_on_c, 0, 64, 88
2, 49045, Note_off_c, 0, 64, 0
2, 49046, Note_on_c, 0, 66, 88
2, 49068, Note_off_c, 0, 66, 0
2, 49069, Note_on_c, 0, 64, 88
2, 49090, Note_off_c, 0, 64, 0
2, 49091, Note_on_c, 0, 66, 88
2, 49113, Note_off_c, 0, 66, 0
2, 49114, Note_on_c, 0, 64, 88
2, 49132, Note_off_c, 0, 64, 0
2, 49133, Note_on_c, 0, 66, 88
2, 49150, Note_off_c, 0, 66, 0
2, 49151, Note_on_c, 0, 64, 88
2, 49169, Note_off_c, 0, 64, 0
2, 49170, Note_on_c, 0, 66, 88
2, 49188, Note_off_c, 0, 66, 0
2, 49189, Note_on_c, 0, 64, 88
2, 49207, Note_off_c, 0, 64, 0
2, 49208, Note_on_c, 0, 66, 88
2, 49225, Note_off_c, 0, 66, 0
2, 49226, Note_on_c, 0, 64, 88
2, 49244, Note_off_c, 0, 64, 0
2, 49245, Note_on_c, 0, 66, 88
2, 49263, Note_off_c, 0, 66, 0
2, 49264, Note_on_c, 0, 64, 88
2, 49282, Note_off_c, 0, 64, 0
2, 49283, Note_on_c, 0, 66, 88
2, 49300, Note_off_c, 0, 66, 0
2, 49301, Note_on_c, 0, 64, 88
2, 49319, Note_off_c, 0, 64, 0
2, 49320, Note_on_c, 0, 66, 88
2, 49338, Note_off_c, 0, 66, 0
2, 49339, Note_on_c, 0, 64, 88
2, 49360, Note_off_c, 0, 64, 0
2, 49361, Note_on_c, 0, 66, 88
2, 49383, Note_off_c, 0, 66, 0
2, 49384, Note_on_c, 0, 64, 88
2, 49405, Note_off_c, 0, 64, 0
2, 49406, Note_on_c, 0, 66, 88
2, 49428, Note_off_c, 0, 66, 0
2, 49429, Note_on_c, 0, 64, 88
2, 49450, Note_off_c, 0, 64, 0
2, 49451, Note_on_c, 0, 66, 88
2, 49473, Note_off_c, 0, 66, 0
2, 49474, Note_on_c, 0, 64, 88
2, 49492, Note_off_c, 0, 64, 0
2, 49493, Note_on_c, 0, 66, 88
2, 49510, Note_off_c, 0, 66, 0
2, 49511, Note_on_c, 0, 64, 88
2, 49529, Note_off_c, 0, 64, 0
2, 49530, Note_on_c, 0, 66, 88
2, 49548, Note_off_c, 0, 66, 0
2, 49549, Note_on_c, 0, 64, 88
2, 49567, Note_off_c, 0, 64, 0
2, 49568, Note_on_c, 0, 66, 88
2, 49585, Note_off_c, 0, 66, 0
2, 49586, Note_on_c, 0, 64, 88
2, 49604, Note_off_c, 0, 64, 0
2, 49605, Note_on_c, 0, 66, 88
2, 49623, Note_off_c, 0, 66, 0
2, 49624, Note_on_c, 0, 64, 88
2, 49642, Note_off_c, 0, 64, 0
2, 49643, Note_on_c, 0, 66, 88
2, 49660, Note_off_c, 0, 66, 0
2, 49661, Note_on_c, 0, 64, 88
2, 49679, Note_off_c, 0, 64, 0
2, 49680, Note_on_c, 0, 66, 88
2, 49698, Note_off_c, 0, 66, 0
2, 49699, Note_on_c, 0, 64, 88
2, 49720, Note_off_c, 0, 64, 0
2, 49721, Note_on_c, 0, 66, 88
2, 49743, Note_off_c, 0, 66, 0
2, 49744, Note_on_c, 0, 64, 88
2, 49765, Note_off_c, 0, 64, 0
2, 49766, Note_on_c, 0, 66, 88
2, 49788, Note_off_c, 0, 66, 0
2, 49789, Note_on_c, 0, 64, 88
2, 49810, Note_off_c, 0, 64, 0
2, 49811, Note_on_c, 0, 66, 88
2, 49833, Note_off_c, 0, 66, 0
2, 49834, Note_on_c, 0, 64, 88
2, 49852, Note_off_c, 0, 64, 0
2, 49853, Note_on_c, 0, 66, 88
2, 49870, Note_off_c, 0, 66, 0
2, 49871, Note_on_c, 0, 64, 88
2, 49889, Note_off_c, 0, 64, 0
2, 49890, Note_on_c, 0, 66, 88
2, 49908, Note_off_c, 0, 66, 0
2, 49909, Note_on_c, 0, 64, 88
2, 49927, Note_off_c, 0, 64, 0
2, 49928, Note_on_c, 0, 66, 88
2, 49945, Note_off_c, 0, 66, 0
2, 49946, Note_on_c, 0, 64, 88
2, 49964, Note_off_c, 0, 64, 0
2, 49965, Note_on_c, 0, 66, 88
2, 49983, Note_off_c, 0, 66, 0
2, 49984, Note_on_c, 0, 64, 88
2, 50002, Note_off_c, 0, 64, 0
2, 50003, Note_on_c, 0, 66, 88
2, 50020, Note_off_c, 0, 66, 0
2, 50021, Note_on_c, 0, 64, 88
2, 50039, Note_off_c, 0, 64, 0
2, 50040, Note_on_c, 0, 64, 88
2, 50159, Note_off_c, 0, 64, 0
2, 50160, Note_on_c, 0, 74, 88
2, 50459, Note_off_c, 0, 74, 0
2, 50460, Note_on_c, 0, 76, 88
2, 50519, Note_off_c, 0, 76, 0
2, 50520, Note_on_c, 0, 74, 88
2, 50579, Note_off_c, 0, 74, 0
2, 50580, Note_on_c, 0, 72, 88
2, 50639, Note_off_c, 0, 72, 0
2, 50640, Note_on_c, 0, 71, 88
2, 50699, Note_off_c, 0, 71, 0
2, 50700, Note_on_c, 0, 74, 88
2, 50759, Note_off_c, 0, 74, 0
2, 50760, Note_on_c, 0, 72, 88
2, 50879, Note_off_c, 0, 72, 0
2, 50880, Note_on_c, 0, 76, 88
2, 50999, Note_off_c, 0, 76, 0
2, 51000, Note_on_c, 0, 81, 88
2, 51179, Note_off_c, 0, 81, 0
2, 51180, Note_on_c, 0, 83, 88
2, 51239, Note_off_c, 0, 83, 0
2, 51240, Note_on_c, 0, 81, 88
2, 51299, Note_off_c, 0, 81, 0
2, 51300, Note_on_c, 0, 79, 88
2, 51359, Note_off_c, 0, 79, 0
2, 51360, Note_on_c, 0, 78, 88
2, 51419, Note_off_c, 0, 78, 0
2, 51420, Note_on_c, 0, 81, 88
2, 51479, Note_off_c, 0, 81, 0
2, 51480, Note_on_c, 0, 75, 88
2, 51599, Note_off_c, 0, 75, 0
2, 51600, Note_on_c, 0, 84, 88
2, 51899, Note_off_c, 0, 84, 0
2, 51900, Note_on_c, 0, 83, 88
2, 51959, Note_off_c, 0, 83, 0
2, 51960, Note_on_c, 0, 81, 88
2, 52019, Note_off_c, 0, 81, 0
2, 52020, Note_on_c, 0, 79, 88
2, 52079, Note_off_c, 0, 79, 0
2, 52080, Note_on_c, 0, 78, 88
2, 52139, Note_off_c, 0, 78, 0
2, 52140, Note_on_c, 0, 81, 88
2, 52199, Note_off_c, 0, 81, 0
2, 52200, Note_on_c, 0, 79, 88
2, 52619, Note_off_c, 0, 79, 0
2, 52620, Note_on_c, 0, 78, 88
2, 52679, Note_off_c, 0, 78, 0
2, 52680, Note_on_c, 0, 76, 88
2, 52739, Note_off_c, 0, 76, 0
2, 52740, Note_on_c, 0, 74, 88
2, 52799, Note_off_c, 0, 74, 0
2, 52800, Note_on_c, 0, 73, 88
2, 52859, Note_off_c, 0, 73, 0
2, 52860, Note_on_c, 0, 76, 88
2, 52919, Note_off_c, 0, 76, 0
2, 52920, Note_on_c, 0, 70, 88
2, 52979, Note_off_c, 0, 70, 0
2, 52980, Note_on_c, 0, 79, 88
2, 53039, Note_off_c, 0, 79, 0
2, 53040, Note_on_c, 0, 78, 88
2, 53099, Note_off_c, 0, 78, 0
2, 53100, Note_on_c, 0, 76, 88
2, 53159, Note_off_c, 0, 76, 0
2, 53160, Note_on_c, 0, 75, 88
2, 53219, Note_off_c, 0, 75, 0
2, 53220, Note_on_c, 0, 78, 88
2, 53279, Note_off_c, 0, 78, 0
2, 53280, Note_on_c, 0, 69, 88
2, 53339, Note_off_c, 0, 69, 0
2, 53340, Note_on_c, 0, 72, 88
2, 53399, Note_off_c, 0, 72, 0
2, 53400, Note_on_c, 0, 71, 88
2, 53459, Note_off_c, 0, 71, 0
2, 53460, Note_on_c, 0, 69, 88
2, 53519, Note_off_c, 0, 69, 0
2, 53520, Note_on_c, 0, 67, 88
2, 53579, Note_off_c, 0, 67, 0
2, 53580, Note_on_c, 0, 71, 88
2, 53639, Note_off_c, 0, 71, 0
2, 53640, Note_on_c, 0, 64, 88
2, 53759, Note_off_c, 0, 64, 0
2, 53760, Note_on_c, 0, 66, 88
2, 53879, Note_off_c, 0, 66, 0
2, 53880, Note_on_c, 0, 63, 88
2, 53898, Note_off_c, 0, 63, 0
2, 53899, Note_on_c, 0, 64, 88
2, 53920, Note_off_c, 0, 64, 0
2, 53921, Note_on_c, 0, 63, 88
2, 53943, Note_off_c, 0, 63, 0
2, 53944, Note_on_c, 0, 61, 88
2, 53962, Note_off_c, 0, 61, 0
2, 53963, Note_on_c, 0, 63, 88
2, 53999, Note_off_c, 0, 63, 0
2, 54000, Note_on_c, 0, 64, 88
2, 54059, Note_off_c, 0, 64, 0
2, 54060, Note_on_c, 0, 68, 88
2, 54119, Note_off_c, 0, 68, 0
2, 54120, Note_on_c, 0, 69, 88
2, 54179, Note_off_c, 0, 69, 0
2, 54180, Note_on_c, 0, 71, 88
2, 54239, Note_off_c, 0, 71, 0
2, 54240, Note_on_c, 0, 72, 88
2, 54299, Note_off_c, 0, 72, 0
2, 54300, Note_on_c, 0, 69, 88
2, 54359, Note_off_c, 0, 69, 0
2, 54360, Note_on_c, 0, 71, 88
2, 54419, Note_off_c, 0, 71, 0
2, 54420, Note_on_c, 0, 69, 88
2, 54479, Note_off_c, 0, 69, 0
2, 54480, Note_on_c, 0, 68, 88
2, 54539, Note_off_c, 0, 68, 0
2, 54540, Note_on_c, 0, 66, 88
2, 54599, Note_off_c, 0, 66, 0
2, 54600, Note_on_c, 0, 64, 88
2, 54659, Note_off_c, 0, 64, 0
2, 54660, Note_on_c, 0, 74, 88
2, 54719, Note_off_c, 0, 74, 0
2, 54720, Note_on_c, 0, 73, 88
2, 54779, Note_off_c, 0, 73, 0
2, 54780, Note_on_c, 0, 75, 88
2, 54839, Note_off_c, 0, 75, 0
2, 54840, Note_on_c, 0, 76, 88
2, 54899, Note_off_c, 0, 76, 0
2, 54900, Note_on_c, 0, 78, 88
2, 54959, Note_off_c, 0, 78, 0
2, 54960, Note_on_c, 0, 79, 88
2, 55019, Note_off_c, 0, 79, 0
2, 55020, Note_on_c, 0, 76, 88
2, 55079, Note_off_c, 0, 76, 0
2, 55080, Note_on_c, 0, 78, 88
2, 55139, Note_off_c, 0, 78, 0
2, 55140, Note_on_c, 0, 76, 88
2, 55199, Note_off_c, 0, 76, 0
2, 55200, Note_on_c, 0, 75, 88
2, 55259, Note_off_c, 0, 75, 0
2, 55260, Note_on_c, 0, 73, 88
2, 55319, Note_off_c, 0, 73, 0
2, 55320, Note_on_c, 0, 71, 88
2, 55379, Note_off_c, 0, 71, 0
2, 55380, Note_on_c, 0, 69, 88
2, 55439, Note_off_c, 0, 69, 0
2, 55440, Note_on_c, 0, 67, 88
2, 55559, Note_off_c, 0, 67, 0
2, 55560, Note_on_c, 0, 69, 88
2, 55679, Note_off_c, 0, 69, 0
2, 55680, Note_on_c, 0, 66, 88
2, 55698, Note_off_c, 0, 66, 0
2, 55699, Note_on_c, 0, 67, 88
2, 55720, Note_off_c, 0, 67, 0
2, 55721, Note_on_c, 0, 66, 88
2, 55743, Note_off_c, 0, 66, 0
2, 55744, Note_on_c, 0, 64, 88
2, 55762, Note_off_c, 0, 64, 0
2, 55763, Note_on_c, 0, 66, 88
2, 55799, Note_off_c, 0, 66, 0
2, 55800, Note_on_c, 0, 64, 88
2, 56159, Note_off_c, 0, 64, 0
2, 56160, Note_on_c, 0, 78, 88
2, 56639, Note_off_c, 0, 78, 0
2, 56640, Note_on_c, 0, 76, 88
2, 56699, Note_off_c, 0, 76, 0
2, 56700, Note_on_c, 0, 78, 88
2, 56759, Note_off_c, 0, 78, 0
2, 56760, Note_on_c, 0, 79, 88
2, 56879, Note_off_c, 0, 79, 0
2, 56880, Note_on_c, 0, 78, 88
2, 56999, Note_off_c, 0, 78, 0
2, 57000, Note_on_c, 0, 76, 88
2, 57007, Note_off_c, 0, 76, 0
2, 57008, Note_on_c, 0, 78, 88
2, 57022, Note_off_c, 0, 78, 0
2, 57023, Note_on_c, 0, 76, 88
2, 57033, Note_off_c, 0, 76, 0
2, 57034, Note_on_c, 0, 78, 88
2, 57044, Note_off_c, 0, 78, 0
2, 57045, Note_on_c, 0, 76, 88
2, 57055, Note_off_c, 0, 76, 0
2, 57056, Note_on_c, 0, 78, 88
2, 57067, Note_off_c, 0, 78, 0
2, 57068, Note_on_c, 0, 76, 88
2, 57119, Note_off_c, 0, 76, 0
2, 57120, Note_on_c, 0, 69, 88
2, 57239, Note_off_c, 0, 69, 0
2, 57240, Note_on_c, 0, 74, 88
2, 57359, Note_off_c, 0, 74, 0
2, 57360, Note_on_c, 0, 72, 88
2, 57419, Note_off_c, 0, 72, 0
2, 57420, Note_on_c, 0, 71, 88
2, 57479, Note_off_c, 0, 71, 0
2, 57480, Note_on_c, 0, 72, 88
2, 57659, Note_off_c, 0, 72, 0
2, 57660, Note_on_c, 0, 71, 88
2, 57719, Note_off_c, 0, 71, 0
2, 57720, Note_on_c, 0, 69, 88
2, 57779, Note_off_c, 0, 69, 0
2, 57780, Note_on_c, 0, 67, 88
2, 57839, Note_off_c, 0, 67, 0
2, 57840, Note_on_c, 0, 66, 88
2, 57899, Note_off_c, 0, 66, 0
2, 57900, Note_on_c, 0, 69, 88
2, 57959, Note_off_c, 0, 69, 0
2, 57960, Note_on_c, 0, 67, 88
2, 58019, Note_off_c, 0, 67, 0
2, 58020, Note_on_c, 0, 71, 88
2, 58079, Note_off_c, 0, 71, 0
2, 58080, Note_on_c, 0, 72, 88
2, 58139, Note_off_c, 0, 72, 0
2, 58140, Note_on_c, 0, 74, 88
2, 58199, Note_off_c, 0, 74, 0
2, 58200, Note_on_c, 0, 76, 88
2, 58259, Note_off_c, 0, 76, 0
2, 58260, Note_on_c, 0, 69, 88
2, 58319, Note_off_c, 0, 69, 0
2, 58320, Note_on_c, 0, 74, 88
2, 58379, Note_off_c, 0, 74, 0
2, 58380, Note_on_c, 0, 68, 88
2, 58439, Note_off_c, 0, 68, 0
2, 58440, Note_on_c, 0, 69, 88
2, 58499, Note_off_c, 0, 69, 0
2, 58500, Note_on_c, 0, 71, 88
2, 58559, Note_off_c, 0, 71, 0
2, 58560, Note_on_c, 0, 72, 88
2, 58619, Note_off_c, 0, 72, 0
2, 58620, Note_on_c, 0, 66, 88
2, 58679, Note_off_c, 0, 66, 0
2, 58680, Note_on_c, 0, 71, 88
2, 58739, Note_off_c, 0, 71, 0
2, 58740, Note_on_c, 0, 64, 88
2, 58799, Note_off_c, 0, 64, 0
2, 58800, Note_on_c, 0, 66, 88
2, 58859, Note_off_c, 0, 66, 0
2, 58860, Note_on_c, 0, 68, 88
2, 58919, Note_off_c, 0, 68, 0
2, 58920, Note_on_c, 0, 69, 88
2, 58979, Note_off_c, 0, 69, 0
2, 58980, Note_on_c, 0, 63, 88
2, 59039, Note_off_c, 0, 63, 0
2, 59040, Note_on_c, 0, 68, 88
2, 59159, Note_off_c, 0, 68, 0
2, 59160, Note_on_c, 0, 69, 88
2, 59279, Note_off_c, 0, 69, 0
2, 59280, Note_on_c, 0, 71, 88
2, 59399, Note_off_c, 0, 71, 0
2, 59400, Note_on_c, 0, 64, 88
2, 59459, Note_off_c, 0, 64, 0
2, 59460, Note_on_c, 0, 76, 88
2, 59519, Note_off_c, 0, 76, 0
2, 59520, Note_on_c, 0, 74, 88
2, 59579, Note_off_c, 0, 74, 0
2, 59580, Note_on_c, 0, 72, 88
2, 59639, Note_off_c, 0, 72, 0
2, 59640, Note_on_c, 0, 71, 88
2, 59699, Note_off_c, 0, 71, 0
2, 59700, Note_on_c, 0, 74, 88
2, 59759, Note_off_c, 0, 74, 0
2, 59760, Note_on_c, 0, 72, 88
2, 59879, Note_off_c, 0, 72, 0
2, 59880, Note_on_c, 0, 74, 88
2, 59999, Note_off_c, 0, 74, 0
2, 60000, Note_on_c, 0, 76, 88
2, 60119, Note_off_c, 0, 76, 0
2, 60120, Note_on_c, 0, 69, 88
2, 60179, Note_off_c, 0, 69, 0
2, 60180, Note_on_c, 0, 81, 88
2, 60239, Note_off_c, 0, 81, 0
2, 60240, Note_on_c, 0, 79, 88
2, 60299, Note_off_c, 0, 79, 0
2, 60300, Note_on_c, 0, 77, 88
2, 60359, Note_off_c, 0, 77, 0
2, 60360, Note_on_c, 0, 76, 88
2, 60419, Note_off_c, 0, 76, 0
2, 60420, Note_on_c, 0, 79, 88
2, 60479, Note_off_c, 0, 79, 0
2, 60480, Note_on_c, 0, 77, 88
2, 60599, Note_off_c, 0, 77, 0
2, 60600, Note_on_c, 0, 79, 88
2, 60719, Note_off_c, 0, 79, 0
2, 60720, Note_on_c, 0, 81, 88
2, 60899, Note_off_c, 0, 81, 0
2, 60900, Note_on_c, 0, 74, 88
2, 60959, Note_off_c, 0, 74, 0
2, 60960, Note_on_c, 0, 72, 88
2, 61019, Note_off_c, 0, 72, 0
2, 61020, Note_on_c, 0, 71, 88
2, 61079, Note_off_c, 0, 71, 0
2, 61080, Note_on_c, 0, 69, 88
2, 61139, Note_off_c, 0, 69, 0
2, 61140, Note_on_c, 0, 72, 88
2, 61199, Note_off_c, 0, 72, 0
2, 61200, Note_on_c, 0, 71, 88
2, 61319, Note_off_c, 0, 71, 0
2, 61320, Note_on_c, 0, 72, 88
2, 61439, Note_off_c, 0, 72, 0
2, 61440, Note_on_c, 0, 74, 88
2, 61619, Note_off_c, 0, 74, 0
2, 61620, Note_on_c, 0, 67, 88
2, 61679, Note_off_c, 0, 67, 0
2, 61680, Note_on_c, 0, 72, 88
2, 61739, Note_off_c, 0, 72, 0
2, 61740, Note_on_c, 0, 74, 88
2, 61799, Note_off_c, 0, 74, 0
2, 61800, Note_on_c, 0, 76, 88
2, 61979, Note_off_c, 0, 76, 0
2, 61980, Note_on_c, 0, 72, 88
2, 62039, Note_off_c, 0, 72, 0
2, 62040, Note_on_c, 0, 74, 88
2, 62099, Note_off_c, 0, 74, 0
2, 62100, Note_on_c, 0, 76, 88
2, 62159, Note_off_c, 0, 76, 0
2, 62160, Note_on_c, 0, 77, 88
2, 62339, Note_off_c, 0, 77, 0
2, 62340, Note_on_c, 0, 79, 88
2, 62399, Note_off_c, 0, 79, 0
2, 62400, Note_on_c, 0, 77, 88
2, 62459, Note_off_c, 0, 77, 0
2, 62460, Note_on_c, 0, 76, 88
2, 62519, Note_off_c, 0, 76, 0
2, 62520, Note_on_c, 0, 74, 88
2, 62579, Note_off_c, 0, 74, 0
2, 62580, Note_on_c, 0, 77, 88
2, 62639, Note_off_c, 0, 77, 0
2, 62640, Note_on_c, 0, 76, 88
2, 62699, Note_off_c, 0, 76, 0
2, 62700, Note_on_c, 0, 64, 88
2, 62759, Note_off_c, 0, 64, 0
2, 62760, Note_on_c, 0, 66, 88
2, 62819, Note_off_c, 0, 66, 0
2, 62820, Note_on_c, 0, 68, 88
2, 62879, Note_off_c, 0, 68, 0
2, 62880, Note_on_c, 0, 69, 88
2, 62939, Note_off_c, 0, 69, 0
2, 62940, Note_on_c, 0, 66, 88
2, 62999, Note_off_c, 0, 66, 0
2, 63000, Note_on_c, 0, 74, 88
2, 63059, Note_off_c, 0, 74, 0
2, 63060, Note_on_c, 0, 66, 88
2, 63119, Note_off_c, 0, 66, 0
2, 63120, Note_on_c, 0, 68, 88
2, 63179, Note_off_c, 0, 68, 0
2, 63180, Note_on_c, 0, 69, 88
2, 63239, Note_off_c, 0, 69, 0
2, 63240, Note_on_c, 0, 71, 88
2, 63299, Note_off_c, 0, 71, 0
2, 63300, Note_on_c, 0, 68, 88
2, 63359, Note_off_c, 0, 68, 0
2, 63360, Note_on_c, 0, 72, 88
2, 63419, Note_off_c, 0, 72, 0
2, 63420, Note_on_c, 0, 68, 88
2, 63479, Note_off_c, 0, 68, 0
2, 63480, Note_on_c, 0, 69, 88
2, 63539, Note_off_c, 0, 69, 0
2, 63540, Note_on_c, 0, 71, 88
2, 63599, Note_off_c, 0, 71, 0
2, 63600, Note_on_c, 0, 72, 88
2, 63659, Note_off_c, 0, 72, 0
2, 63660, Note_on_c, 0, 69, 88
2, 63719, Note_off_c, 0, 69, 0
2, 63720, Note_on_c, 0, 72, 88
2, 63779, Note_off_c, 0, 72, 0
2, 63780, Note_on_c, 0, 71, 88
2, 63839, Note_off_c, 0, 71, 0
2, 63840, Note_on_c, 0, 69, 88
2, 63899, Note_off_c, 0, 69, 0
2, 63900, Note_on_c, 0, 68, 88
2, 63959, Note_off_c, 0, 68, 0
2, 63960, Note_on_c, 0, 69, 88
2, 64139, Note_off_c, 0, 69, 0
2, 64140, Note_on_c, 0, 71, 88
2, 64199, Note_off_c, 0, 71, 0
2, 64200, Note_on_c, 0, 72, 88
2, 64222, Note_off_c, 0, 72, 0
2, 64223, Note_on_c, 0, 71, 88
2, 64240, Note_off_c, 0, 71, 0
2, 64241, Note_on_c, 0, 72, 88
2, 64259, Note_off_c, 0, 72, 0
2, 64260, Note_on_c, 0, 71, 88
2, 64274, Note_off_c, 0, 71, 0
2, 64275, Note_on_c, 0, 72, 88
2, 64289, Note_off_c, 0, 72, 0
2, 64290, Note_on_c, 0, 71, 88
2, 64304, Note_off_c, 0, 71, 0
2, 64305, Note_on_c, 0, 72, 88
2, 64319, Note_off_c, 0, 72, 0
2, 64320, Note_on_c, 0, 71, 88
2, 64379, Note_off_c, 0, 71, 0
2, 64380, Note_on_c, 0, 69, 88
2, 64439, Note_off_c, 0, 69, 0
2, 64440, Note_on_c, 0, 69, 88
2, 64859, Note_off_c, 0, 69, 0
2, 64860, Note_on_c, 0, 74, 88
2, 64919, Note_off_c, 0, 74, 0
2, 64920, Note_on_c, 0, 72, 88
2, 64979, Note_off_c, 0, 72, 0
2, 64980, Note_on_c, 0, 71, 88
2, 65039, Note_off_c, 0, 71, 0
2, 65040, Note_on_c, 0, 69, 88
2, 65099, Note_off_c, 0, 69, 0
2, 65100, Note_on_c, 0, 72, 88
2, 65159, Note_off_c, 0, 72, 0
2, 65160, Note_on_c, 0, 71, 88
2, 65219, Note_off_c, 0, 71, 0
2, 65220, Note_on_c, 0, 74, 88
2, 65279, Note_off_c, 0, 74, 0
2, 65280, Note_on_c, 0, 76, 88
2, 65339, Note_off_c, 0, 76, 0
2, 65340, Note_on_c, 0, 78, 88
2, 65399, Note_off_c, 0, 78, 0
2, 65400, Note_on_c, 0, 79, 88
2, 65459, Note_off_c, 0, 79, 0
2, 65460, Note_on_c, 0, 73, 88
2, 65519, Note_off_c, 0, 73, 0
2, 65520, Note_on_c, 0, 78, 88
2, 65579, Note_off_c, 0, 78, 0
2, 65580, Note_on_c, 0, 71, 88
2, 65639, Note_off_c, 0, 71, 0
2, 65640, Note_on_c, 0, 72, 88
2, 65699, Note_off_c, 0, 72, 0
2, 65700, Note_on_c, 0, 74, 88
2, 65759, Note_off_c, 0, 74, 0
2, 65760, Note_on_c, 0, 76, 88
2, 65819, Note_off_c, 0, 76, 0
2, 65820, Note_on_c, 0, 69, 88
2, 65879, Note_off_c, 0, 69, 0
2, 65880, Note_on_c, 0, 74, 88
2, 65939, Note_off_c, 0, 74, 0
2, 65940, Note_on_c, 0, 67, 88
2, 65999, Note_off_c, 0, 67, 0
2, 66000, Note_on_c, 0, 69, 88
2, 66059, Note_off_c, 0, 69, 0
2, 66060, Note_on_c, 0, 71, 88
2, 66119, Note_off_c, 0, 71, 0
2, 66120, Note_on_c, 0, 72, 88
2, 66179, Note_off_c, 0, 72, 0
2, 66180, Note_on_c, 0, 66, 88
2, 66239, Note_off_c, 0, 66, 0
2, 66240, Note_on_c, 0, 71, 88
2, 66359, Note_off_c, 0, 71, 0
2, 66360, Note_on_c, 0, 76, 88
2, 66382, Note_off_c, 0, 76, 0
2, 66383, Note_on_c, 0, 75, 88
2, 66404, Note_off_c, 0, 75, 0
2, 66405, Note_on_c, 0, 76, 88
2, 66427, Note_off_c, 0, 76, 0
2, 66428, Note_on_c, 0, 75, 88
2, 66449, Note_off_c, 0, 75, 0
2, 66450, Note_on_c, 0, 76, 88
2, 66472, Note_off_c, 0, 76, 0
2, 66473, Note_on_c, 0, 75, 88
2, 66494, Note_off_c, 0, 75, 0
2, 66495, Note_on_c, 0, 76, 88
2, 66517, Note_off_c, 0, 76, 0
2, 66518, Note_on_c, 0, 75, 88
2, 66539, Note_off_c, 0, 75, 0
2, 66540, Note_on_c, 0, 73, 88
2, 66569, Note_off_c, 0, 73, 0
2, 66570, Note_on_c, 0, 75, 88
2, 66599, Note_off_c, 0, 75, 0
2, 66600, Note_on_c, 0, 76, 88
2, 66719, Note_off_c, 0, 76, 0
2, 66720, Note_on_c, 0, 78, 88
2, 66738, Note_off_c, 0, 78, 0
2, 66739, Note_on_c, 0, 79, 88
2, 66760, Note_off_c, 0, 79, 0
2, 66761, Note_on_c, 0, 78, 88
2, 66783, Note_off_c, 0, 78, 0
2, 66784, Note_on_c, 0, 76, 88
2, 66802, Note_off_c, 0, 76, 0
2, 66803, Note_on_c, 0, 78, 88
2, 66839, Note_off_c, 0, 78, 0
2, 66840, Note_on_c, 0, 79, 88
2, 67019, Note_off_c, 0, 79, 0
2, 67020, Note_on_c, 0, 78, 88
2, 67079, Note_off_c, 0, 78, 0
2, 67080, Note_on_c, 0, 76, 88
2, 67139, Note_off_c, 0, 76, 0
2, 67140, Note_on_c, 0, 75, 88
2, 67199, Note_off_c, 0, 75, 0
2, 67200, Note_on_c, 0, 76, 88
2, 67379, Note_off_c, 0, 76, 0
2, 67380, Note_on_c, 0, 74, 88
2, 67439, Note_off_c, 0, 74, 0
2, 67440, Note_on_c, 0, 72, 88
2, 67499, Note_off_c, 0, 72, 0
2, 67500, Note_on_c, 0, 71, 88
2, 67559, Note_off_c, 0, 71, 0
2, 67560, Note_on_c, 0, 72, 88
2, 67619, Note_off_c, 0, 72, 0
2, 67620, Note_on_c, 0, 81, 88
2, 67679, Note_off_c, 0, 81, 0
2, 67680, Note_on_c, 0, 71, 88
2, 67739, Note_off_c, 0, 71, 0
2, 67740, Note_on_c, 0, 62, 88
2, 67799, Note_off_c, 0, 62, 0
2, 67800, Note_on_c, 0, 64, 88
2, 67859, Note_off_c, 0, 64, 0
2, 67860, Note_on_c, 0, 66, 88
2, 67919, Note_off_c, 0, 66, 0
2, 67920, Note_on_c, 0, 67, 88
2, 68099, Note_off_c, 0, 67, 0
2, 68100, Note_on_c, 0, 66, 88
2, 68159, Note_off_c, 0, 66, 0
2, 68160, Note_on_c, 0, 68, 88
2, 68219, Note_off_c, 0, 68, 0
2, 68220, Note_on_c, 0, 69, 88
2, 68279, Note_off_c, 0, 69, 0
2, 68280, Note_on_c, 0, 71, 88
2, 68339, Note_off_c, 0, 71, 0
2, 68340, Note_on_c, 0, 68, 88
2, 68399, Note_off_c, 0, 68, 0
2, 68400, Note_on_c, 0, 69, 88
2, 68459, Note_off_c, 0, 69, 0
2, 68460, Note_on_c, 0, 64, 88
2, 68519, Note_off_c, 0, 64, 0
2, 68520, Note_on_c, 0, 66, 88
2, 68579, Note_off_c, 0, 66, 0
2, 68580, Note_on_c, 0, 67, 88
2, 68639, Note_off_c, 0, 67, 0
2, 68640, Note_on_c, 0, 69, 88
2, 68819, Note_off_c, 0, 69, 0
2, 68820, Note_on_c, 0, 67, 88
2, 68879, Note_off_c, 0, 67, 0
2, 68880, Note_on_c, 0, 69, 88
2, 68939, Note_off_c, 0, 69, 0
2, 68940, Note_on_c, 0, 71, 88
2, 68999, Note_off_c, 0, 71, 0
2, 69000, Note_on_c, 0, 72, 88
2, 69059, Note_off_c, 0, 72, 0
2, 69060, Note_on_c, 0, 69, 88
2, 69119, Note_off_c, 0, 69, 0
2, 69120, Note_on_c, 0, 71, 88
2, 69179, Note_off_c, 0, 71, 0
2, 69180, Note_on_c, 0, 75, 88
2, 69239, Note_off_c, 0, 75, 0
2, 69240, Note_on_c, 0, 76, 88
2, 69299, Note_off_c, 0, 76, 0
2, 69300, Note_on_c, 0, 78, 88
2, 69359, Note_off_c, 0, 78, 0
2, 69360, Note_on_c, 0, 79, 88
2, 69419, Note_off_c, 0, 79, 0
2, 69420, Note_on_c, 0, 76, 88
2, 69479, Note_off_c, 0, 76, 0
2, 69480, Note_on_c, 0, 78, 88
2, 69539, Note_off_c, 0, 78, 0
2, 69540, Note_on_c, 0, 76, 88
2, 69599, Note_off_c, 0, 76, 0
2, 69600, Note_on_c, 0, 75, 88
2, 69659, Note_off_c, 0, 75, 0
2, 69660, Note_on_c, 0, 73, 88
2, 69719, Note_off_c, 0, 73, 0
2, 69720, Note_on_c, 0, 71, 88
2, 69779, Note_off_c, 0, 71, 0
2, 69780, Note_on_c, 0, 69, 88
2, 69839, Note_off_c, 0, 69, 0
2, 69840, Note_on_c, 0, 67, 88
2, 69899, Note_off_c, 0, 67, 0
2, 69900, Note_on_c, 0, 71, 88
2, 69959, Note_off_c, 0, 71, 0
2, 69960, Note_on_c, 0, 73, 88
2, 70019, Note_off_c, 0, 73, 0
2, 70020, Note_on_c, 0, 75, 88
2, 70079, Note_off_c, 0, 75, 0
2, 70080, Note_on_c, 0, 76, 88
2, 70139, Note_off_c, 0, 76, 0
2, 70140, Note_on_c, 0, 73, 88
2, 70199, Note_off_c, 0, 73, 0
2, 70200, Note_on_c, 0, 75, 88
2, 70259, Note_off_c, 0, 75, 0
2, 70260, Note_on_c, 0, 73, 88
2, 70319, Note_off_c, 0, 73, 0
2, 70320, Note_on_c, 0, 71, 88
2, 70379, Note_off_c, 0, 71, 0
2, 70380, Note_on_c, 0, 69, 88
2, 70439, Note_off_c, 0, 69, 0
2, 70440, Note_on_c, 0, 67, 88
2, 70499, Note_off_c, 0, 67, 0
2, 70500, Note_on_c, 0, 66, 88
2, 70559, Note_off_c, 0, 66, 0
2, 70560, Note_on_c, 0, 66, 88
2, 70578, Note_off_c, 0, 66, 0
2, 70579, Note_on_c, 0, 64, 88
2, 70600, Note_off_c, 0, 64, 0
2, 70601, Note_on_c, 0, 66, 88
2, 70623, Note_off_c, 0, 66, 0
2, 70624, Note_on_c, 0, 64, 88
2, 70645, Note_off_c, 0, 64, 0
2, 70646, Note_on_c, 0, 66, 88
2, 70668, Note_off_c, 0, 66, 0
2, 70669, Note_on_c, 0, 64, 88
2, 70690, Note_off_c, 0, 64, 0
2, 70691, Note_on_c, 0, 66, 88
2, 70713, Note_off_c, 0, 66, 0
2, 70714, Note_on_c, 0, 64, 88
2, 70732, Note_off_c, 0, 64, 0
2, 70733, Note_on_c, 0, 66, 88
2, 70750, Note_off_c, 0, 66, 0
2, 70751, Note_on_c, 0, 64, 88
2, 70769, Note_off_c, 0, 64, 0
2, 70770, Note_on_c, 0, 66, 88
2, 70788, Note_off_c, 0, 66, 0
2, 70789, Note_on_c, 0, 64, 88
2, 70807, Note_off_c, 0, 64, 0
2, 70808, Note_on_c, 0, 66, 88
2, 70825, Note_off_c, 0, 66, 0
2, 70826, Note_on_c, 0, 64, 88
2, 70844, Note_off_c, 0, 64, 0
2, 70845, Note_on_c, 0, 66, 88
2, 70863, Note_off_c, 0, 66, 0
2, 70864, Note_on_c, 0, 64, 88
2, 70882, Note_off_c, 0, 64, 0
2, 70883, Note_on_c, 0, 66, 88
2, 70900, Note_off_c, 0, 66, 0
2, 70901, Note_on_c, 0, 64, 88
2, 70919, Note_off_c, 0, 64, 0
2, 70920, Note_on_c, 0, 66, 88
2, 70938, Note_off_c, 0, 66, 0
2, 70939, Note_on_c, 0, 64, 88
2, 70960, Note_off_c, 0, 64, 0
2, 70961, Note_on_c, 0, 66, 88
2, 70983, Note_off_c, 0, 66, 0
2, 70984, Note_on_c, 0, 64, 88
2, 71005, Note_off_c, 0, 64, 0
2, 71006, Note_on_c, 0, 66, 88
2, 71028, Note_off_c, 0, 66, 0
2, 71029, Note_on_c, 0, 64, 88
2, 71050, Note_off_c, 0, 64, 0
2, 71051, Note_on_c, 0, 66, 88
2, 71073, Note_off_c, 0, 66, 0
2, 71074, Note_on_c, 0, 64, 88
2, 71092, Note_off_c, 0, 64, 0
2, 71093, Note_on_c, 0, 66, 88
2, 71110, Note_off_c, 0, 66, 0
2, 71111, Note_on_c, 0, 64, 88
2, 71129, Note_off_c, 0, 64, 0
2, 71130, Note_on_c, 0, 66, 88
2, 71148, Note_off_c, 0, 66, 0
2, 71149, Note_on_c, 0, 64, 88
2, 71167, Note_off_c, 0, 64, 0
2, 71168, Note_on_c, 0, 66, 88
2, 71185, Note_off_c, 0, 66, 0
2, 71186, Note_on_c, 0, 64, 88
2, 71204, Note_off_c, 0, 64, 0
2, 71205, Note_on_c, 0, 66, 88
2, 71223, Note_off_c, 0, 66, 0
2, 71224, Note_on_c, 0, 64, 88
2, 71242, Note_off_c, 0, 64, 0
2, 71243, Note_on_c, 0, 66, 88
2, 71260, Note_off_c, 0, 66, 0
2, 71261, Note_on_c, 0, 64, 88
2, 71279, Note_off_c, 0, 64, 0
2, 71280, Note_on_c, 0, 66, 88
2, 71298, Note_off_c, 0, 66, 0
2, 71299, Note_on_c, 0, 64, 88
2, 71320, Note_off_c, 0, 64, 0
2, 71321, Note_on_c, 0, 66, 88
2, 71343, Note_off_c, 0, 66, 0
2, 71344, Note_on_c, 0, 64, 88
2, 71365, Note_off_c, 0, 64, 0
2, 71366, Note_on_c, 0, 66, 88
2, 71388, Note_off_c, 0, 66, 0
2, 71389, Note_on_c, 0, 64, 88
2, 71410, Note_off_c, 0, 64, 0
2, 71411, Note_on_c, 0, 66, 88
2, 71433, Note_off_c, 0, 66, 0
2, 71434, Note_on_c, 0, 64, 88
2, 71452, Note_off_c, 0, 64, 0
2, 71453, Note_on_c, 0, 66, 88
2, 71470, Note_off_c, 0, 66, 0
2, 71471, Note_on_c, 0, 64, 88
2, 71489, Note_off_c, 0, 64, 0
2, 71490, Note_on_c, 0, 66, 88
2, 71508, Note_off_c, 0, 66, 0
2, 71509, Note_on_c, 0, 64, 88
2, 71527, Note_off_c, 0, 64, 0
2, 71528, Note_on_c, 0, 66, 88
2, 71545, Note_off_c, 0, 66, 0
2, 71546, Note_on_c, 0, 64, 88
2, 71564, Note_off_c, 0, 64, 0
2, 71565, Note_on_c, 0, 66, 88
2, 71583, Note_off_c, 0, 66, 0
2, 71584, Note_on_c, 0, 64, 88
2, 71602, Note_off_c, 0, 64, 0
2, 71603, Note_on_c, 0, 66, 88
2, 71620, Note_off_c, 0, 66, 0
2, 71621, Note_on_c, 0, 64, 88
2, 71639, Note_off_c, 0, 64, 0
2, 71640, Note_on_c, 0, 64, 88
2, 71759, Note_off_c, 0, 64, 0
2, 71760, Note_on_c, 0, 74, 88
2, 72059, Note_off_c, 0, 74, 0
2, 72060, Note_on_c, 0, 76, 88
2, 72119, Note_off_c, 0, 76, 0
2, 72120, Note_on_c, 0, 74, 88
2, 72179, Note_off_c, 0, 74, 0
2, 72180, Note_on_c, 0, 72, 88
2, 72239, Note_off_c, 0, 72, 0
2, 72240, Note_on_c, 0, 71, 88
2, 72299, Note_off_c, 0, 71, 0
2, 72300, Note_on_c, 0, 74, 88
2, 72359, Note_off_c, 0, 74, 0
2, 72360, Note_on_c, 0, 72, 88
2, 72479, Note_off_c, 0, 72, 0
2, 72480, Note_on_c, 0, 76, 88
2, 72599, Note_off_c, 0, 76, 0
2, 72600, Note_on_c, 0, 81, 88
2, 72779, Note_off_c, 0, 81, 0
2, 72780, Note_on_c, 0, 83, 88
2, 72839, Note_off_c, 0, 83, 0
2, 72840, Note_on_c, 0, 81, 88
2, 72899, Note_off_c, 0, 81, 0
2, 72900, Note_on_c, 0, 79, 88
2, 72959, Note_off_c, 0, 79, 0
2, 72960, Note_on_c, 0, 78, 88
2, 73019, Note_off_c, 0, 78, 0
2, 73020, Note_on_c, 0, 81, 88
2, 73079, Note_off_c, 0, 81, 0
2, 73080, Note_on_c, 0, 75, 88
2, 73199, Note_off_c, 0, 75, 0
2, 73200, Note_on_c, 0, 84, 88
2, 73499, Note_off_c, 0, 84, 0
2, 73500, Note_on_c, 0, 83, 88
2, 73559, Note_off_c, 0, 83, 0
2, 73560, Note_on_c, 0, 81, 88
2, 73619, Note_off_c, 0, 81, 0
2, 73620, Note_on_c, 0, 79, 88
2, 73679, Note_off_c, 0, 79, 0
2, 73680, Note_on_c, 0, 78, 88
2, 73739, Note_off_c, 0, 78, 0
2, 73740, Note_on_c, 0, 81, 88
2, 73799, Note_off_c, 0, 81, 0
2, 73800, Note_on_c, 0, 79, 88
2, 74219, Note_off_c, 0, 79, 0
2, 74220, Note_on_c, 0, 78, 88
2, 74279, Note_off_c, 0, 78, 0
2, 74280, Note_on_c, 0, 76, 88
2, 74339, Note_off_c, 0, 76, 0
2, 74340, Note_on_c, 0, 74, 88
2, 74399, Note_off_c, 0, 74, 0
2, 74400, Note_on_c, 0, 73, 88
2, 74459, Note_off_c, 0, 73, 0
2, 74460, Note_on_c, 0, 76, 88
2, 74519, Note_off_c, 0, 76, 0
2, 74520, Note_on_c, 0, 70, 88
2, 74579, Note_off_c, 0, 70, 0
2, 74580, Note_on_c, 0, 79, 88
2, 74639, Note_off_c, 0, 79, 0
2, 74640, Note_on_c, 0, 78, 88
2, 74699, Note_off_c, 0, 78, 0
2, 74700, Note_on_c, 0, 76, 88
2, 74759, Note_off_c, 0, 76, 0
2, 74760, Note_on_c, 0, 75, 88
2, 74819, Note_off_c, 0, 75, 0
2, 74820, Note_on_c, 0, 78, 88
2, 74879, Note_off_c, 0, 78, 0
2, 74880, Note_on_c, 0, 69, 88
2, 74939, Note_off_c, 0, 69, 0
2, 74940, Note_on_c, 0, 72, 88
2, 74999, Note_off_c, 0, 72, 0
2, 75000, Note_on_c, 0, 71, 88
2, 75059, Note_off_c, 0, 71, 0
2, 75060, Note_on_c, 0, 69, 88
2, 75119, Note_off_c, 0, 69, 0
2, 75120, Note_on_c, 0, 67, 88
2, 75179, Note_off_c, 0, 67, 0
2, 75180, Note_on_c, 0, 71, 88
2, 75239, Note_off_c, 0, 71, 0
2, 75240, Note_on_c, 0, 64, 88
2, 75359, Note_off_c, 0, 64, 0
2, 75360, Note_on_c, 0, 66, 88
2, 75479, Note_off_c, 0, 66, 0
2, 75480, Note_on_c, 0, 63, 88
2, 75498, Note_off_c, 0, 63, 0
2, 75499, Note_on_c, 0, 64, 88
2, 75520, Note_off_c, 0, 64, 0
2, 75521, Note_on_c, 0, 63, 88
2, 75543, Note_off_c, 0, 63, 0
2, 75544, Note_on_c, 0, 61, 88
2, 75562, Note_off_c, 0, 61, 0
2, 75563, Note_on_c, 0, 63, 88
2, 75599, Note_off_c, 0, 63, 0
2, 75600, Note_on_c, 0, 64, 88
2, 75659, Note_off_c, 0, 64, 0
2, 75660, Note_on_c, 0, 68, 88
2, 75719, Note_off_c, 0, 68, 0
2, 75720, Note_on_c, 0, 69, 88
2, 75779, Note_off_c, 0, 69, 0
2, 75780, Note_on_c, 0, 71, 88
2, 75839, Note_off_c, 0, 71, 0
2, 75840, Note_on_c, 0, 72, 88
2, 75899, Note_off_c, 0, 72, 0
2, 75900, Note_on_c, 0, 69, 88
2, 75959, Note_off_c, 0, 69, 0
2, 75960, Note_on_c, 0, 71, 88
2, 76019, Note_off_c, 0, 71, 0
2, 76020, Note_on_c, 0, 69, 88
2, 76079, Note_off_c, 0, 69, 0
2, 76080, Note_on_c, 0, 68, 88
2, 76139, Note_off_c, 0, 68, 0
2, 76140, Note_on_c, 0, 66, 88
2, 76199, Note_off_c, 0, 66, 0
2, 76200, Note_on_c, 0, 64, 88
2, 76259, Note_off_c, 0, 64, 0
2, 76260, Note_on_c, 0, 74, 88
2, 76319, Note_off_c, 0, 74, 0
2, 76320, Note_on_c, 0, 73, 88
2, 76379, Note_off_c, 0, 73, 0
2, 76380, Note_on_c, 0, 75, 88
2, 76439, Note_off_c, 0, 75, 0
2, 76440, Note_on_c, 0, 76, 88
2, 76499, Note_off_c, 0, 76, 0
2, 76500, Note_on_c, 0, 78, 88
2, 76559, Note_off_c, 0, 78, 0
2, 76560, Note_on_c, 0, 79, 88
2, 76619, Note_off_c, 0, 79, 0
2, 76620, Note_on_c, 0, 76, 88
2, 76679, Note_off_c, 0, 76, 0
2, 76680, Note_on_c, 0, 78, 88
2, 76739, Note_off_c, 0, 78, 0
2, 76740, Note_on_c, 0, 76, 88
2, 76799, Note_off_c, 0, 76, 0
2, 76800, Note_on_c, 0, 75, 88
2, 76859, Note_off_c, 0, 75, 0
2, 76860, Note_on_c, 0, 73, 88
2, 76919, Note_off_c, 0, 73, 0
2, 76920, Note_on_c, 0, 71, 88
2, 76979, Note_off_c, 0, 71, 0
2, 76980, Note_on_c, 0, 69, 88
2, 77039, Note_off_c, 0, 69, 0
2, 77040, Note_on_c, 0, 67, 88
2, 77159, Note_off_c, 0, 67, 0
2, 77160, Note_on_c, 0, 69, 88
2, 77279, Note_off_c, 0, 69, 0
2, 77280, Note_on_c, 0, 66, 88
2, 77298, Note_off_c, 0, 66, 0
2, 77299, Note_on_c, 0, 67, 88
2, 77320, Note_off_c, 0, 67, 0
2, 77321, Note_on_c, 0, 66, 88
2, 77343, Note_off_c, 0, 66, 0
2, 77344, Note_on_c, 0, 64, 88
2, 77362, Note_off_c, 0, 64, 0
2, 77363, Note_on_c, 0, 66, 88
2, 77399, Note_off_c, 0, 66, 0
2, 77400, Note_on_c, 0, 64, 88
2, 77440, Note_off_c, 0, 64, 0
2, 77440, End_track
0, 0, End_of_file