0, 0, Header, 1, 2, 240
1, 0, Start_track
1, 0, Time_signature, 4, 2, 24, 8
1, 0, Tempo, 869565
1, 0, SMPTE_offset, 64, 0, 0, 0, 100
1, 0, End_track
2, 0, Start_track
2, 0, Title_t, "Track 1"
2, 0, Program_c, 0, 6
2, 120, Note_on_c, 0, 68, 88
2, 239, Note_off_c, 0, 68, 0
2, 240, Note_on_c, 0, 68, 88
2, 359, Note_off_c, 0, 68, 0
2, 360, Note_on_c, 0, 67, 88
2, 599, Note_off_c, 0, 67, 0
2, 600, Note_on_c, 0, 70, 88
2, 719, Note_off_c, 0, 70, 0
2, 720, Note_on_c, 0, 70, 88
2, 839, Note_off_c, 0, 70, 0
2, 840, Note_on_c, 0, 68, 88
2, 1079, Note_off_c, 0, 68, 0
2, 1080, Note_on_c, 0, 80, 88
2, 1199, Note_off_c, 0, 80, 0
2, 1200, Note_on_c, 0, 80, 88
2, 1319, Note_off_c, 0, 80, 0
2, 1320, Note_on_c, 0, 79, 88
2, 1559, Note_off_c, 0, 79, 0
2, 1560, Note_on_c, 0, 77, 88
2, 1679, Note_off_c, 0, 77, 0
2, 1680, Note_on_c, 0, 77, 88
2, 1799, Note_off_c, 0, 77, 0
2, 1800, Note_on_c, 0, 76, 88
2, 1979, Note_off_c, 0, 76, 0
2, 1980, Note_on_c, 0, 67, 88
2, 2039, Note_off_c, 0, 67, 0
2, 2040, Note_on_c, 0, 60, 88
2, 2099, Note_off_c, 0, 60, 0
2, 2100, Note_on_c, 0, 67, 88
2, 2219, Note_off_c, 0, 67, 0
2, 2220, Note_on_c, 0, 68, 88
2, 2279, Note_off_c, 0, 68, 0
2, 2280, Note_on_c, 0, 60, 88
2, 2339, Note_off_c, 0, 60, 0
2, 2340, Note_on_c, 0, 68, 88
2, 2459, Note_off_c, 0, 68, 0
2, 2460, Note_on_c, 0, 65, 88
2, 2519, Note_off_c, 0, 65, 0
2, 2520, Note_on_c, 0, 60, 88
2, 2579, Note_off_c, 0, 60, 0
2, 2580, Note_on_c, 0, 65, 88
2, 2699, Note_off_c, 0, 65, 0
2, 2700, Note_on_c, 0, 67, 88
2, 2759, Note_off_c, 0, 67, 0
2, 2760, Note_on_c, 0, 60, 88
2, 2819, Note_off_c, 0, 60, 0
2, 2820, Note_on_c, 0, 67, 88
2, 2939, Note_off_c, 0, 67, 0
2, 2940, Note_on_c, 0, 70, 88
2, 2999, Note_off_c, 0, 70, 0
2, 3000, Note_on_c, 0, 60, 88
2, 3059, Note_off_c, 0, 60, 0
2, 3060, Note_on_c, 0, 70, 88
2, 3179, Note_off_c, 0, 70, 0
2, 3180, Note_on_c, 0, 68, 88
2, 3239, Note_off_c, 0, 68, 0
2, 3240, Note_on_c, 0, 60, 88
2, 3299, Note_off_c, 0, 60, 0
2, 3300, Note_on_c, 0, 68, 88
2, 3419, Note_off_c, 0, 68, 0
2, 3420, Note_on_c, 0, 65, 88
2, 3479, Note_off_c, 0, 65, 0
2, 3480, Note_on_c, 0, 60, 88
2, 3539, Note_off_c, 0, 60, 0
2, 3540, Note_on_c, 0, 65, 88
2, 3659, Note_off_c, 0, 65, 0
2, 3660, Note_on_c, 0, 67, 88
2, 3719, Note_off_c, 0, 67, 0
2, 3720, Note_on_c, 0, 60, 88
2, 3779, Note_off_c, 0, 60, 0
2, 3780, Note_on_c, 0, 67, 88
2, 3959, Note_off_c, 0, 67, 0
2, 3960, Note_on_c, 0, 68, 88
2, 4079, Note_off_c, 0, 68, 0
2, 4080, Note_on_c, 0, 68, 88
2, 4199, Note_off_c, 0, 68, 0
2, 4200, Note_on_c, 0, 67, 88
2, 4439, Note_off_c, 0, 67, 0
2, 4440, Note_on_c, 0, 70, 88
2, 4559, Note_off_c, 0, 70, 0
2, 4560, Note_on_c, 0, 70, 88
2, 4679, Note_off_c, 0, 70, 0
2, 4680, Note_on_c, 0, 68, 88
2, 4919, Note_off_c, 0, 68, 0
2, 4920, Note_on_c, 0, 72, 88
2, 5039, Note_off_c, 0, 72, 0
2, 5040, Note_on_c, 0, 72, 88
2, 5159, Note_off_c, 0, 72, 0
2, 5160, Note_on_c, 0, 73, 88
2, 5399, Note_off_c, 0, 73, 0
2, 5400, Note_on_c, 0, 70, 88
2, 5519, Note_off_c, 0, 70, 0
2, 5520, Note_on_c, 0, 70, 88
2, 5639, Note_off_c, 0, 70, 0
2, 5640, Note_on_c, 0, 72, 88
2, 5879, Note_off_c, 0, 72, 0
2, 5880, Note_on_c, 0, 75, 88
2, 5999, Note_off_c, 0, 75, 0
2, 6000, Note_on_c, 0, 75, 88
2, 6119, Note_off_c, 0, 75, 0
2, 6120, Note_on_c, 0, 73, 88
2, 6359, Note_off_c, 0, 73, 0
2, 6360, Note_on_c, 0, 73, 88
2, 6479, Note_off_c, 0, 73, 0
2, 6480, Note_on_c, 0, 73, 88
2, 6599, Note_off_c, 0, 73, 0
2, 6600, Note_on_c, 0, 72, 88
2, 6839, Note_off_c, 0, 72, 0
2, 6840, Note_on_c, 0, 78, 88
2, 6959, Note_off_c, 0, 78, 0
2, 6960, Note_on_c, 0, 78, 88
2, 7079, Note_off_c, 0, 78, 0
2, 7080, Note_on_c, 0, 77, 88
2, 7319, Note_off_c, 0, 77, 0
2, 7320, Note_on_c, 0, 80, 88
2, 7439, Note_off_c, 0, 80, 0
2, 7440, Note_on_c, 0, 80, 88
2, 7559, Note_off_c, 0, 80, 0
2, 7560, Note_on_c, 0, 79, 88
2, 7739, Note_off_c, 0, 79, 0
2, 7740, Note_on_c, 0, 70, 88
2, 7799, Note_off_c, 0, 70, 0
2, 7800, Note_on_c, 0, 63, 88
2, 7859, Note_off_c, 0, 63, 0
2, 7860, Note_on_c, 0, 70, 88
2, 7979, Note_off_c, 0, 70, 0
2, 7980, Note_on_c, 0, 72, 88
2, 8039, Note_off_c, 0, 72, 0
2, 8040, Note_on_c, 0, 63, 88
2, 8099, Note_off_c, 0, 63, 0
2, 8100, Note_on_c, 0, 72, 88
2, 8219, Note_off_c, 0, 72, 0
2, 8220, Note_on_c, 0, 68, 88
2, 8279, Note_off_c, 0, 68, 0
2, 8280, Note_on_c, 0, 63, 88
2, 8339, Note_off_c, 0, 63, 0
2, 8340, Note_on_c, 0, 68, 88
2, 8459, Note_off_c, 0, 68, 0
2, 8460, Note_on_c, 0, 70, 88
2, 8519, Note_off_c, 0, 70, 0
2, 8520, Note_on_c, 0, 63, 88
2, 8579, Note_off_c, 0, 63, 0
2, 8580, Note_on_c, 0, 70, 88
2, 8699, Note_off_c, 0, 70, 0
2, 8700, Note_on_c, 0, 73, 88
2, 8759, Note_off_c, 0, 73, 0
2, 8760, Note_on_c, 0, 63, 88
2, 8819, Note_off_c, 0, 63, 0
2, 8820, Note_on_c, 0, 73, 88
2, 8939, Note_off_c, 0, 73, 0
2, 8940, Note_on_c, 0, 72, 88
2, 8999, Note_off_c, 0, 72, 0
2, 9000, Note_on_c, 0, 63, 88
2, 9059, Note_off_c, 0, 63, 0
2, 9060, Note_on_c, 0, 72, 88
2, 9179, Note_off_c, 0, 72, 0
2, 9180, Note_on_c, 0, 74, 88
2, 9239, Note_off_c, 0, 74, 0
2, 9240, Note_on_c, 0, 63, 88
2, 9299, Note_off_c, 0, 63, 0
2, 9300, Note_on_c, 0, 74, 88
2, 9419, Note_off_c, 0, 74, 0
2, 9420, Note_on_c, 0, 75, 88
2, 9479, Note_off_c, 0, 75, 0
2, 9480, Note_on_c, 0, 63, 88
2, 9539, Note_off_c, 0, 63, 0
2, 9540, Note_on_c, 0, 75, 88
2, 9599, Note_off_c, 0, 75, 0
2, 9600, Note_on_c, 0, 66, 88
2, 9659, Note_off_c, 0, 66, 0
2, 9660, Note_on_c, 0, 68, 88
2, 9719, Note_off_c, 0, 68, 0
2, 9720, Note_on_c, 0, 72, 88
2, 9779, Note_off_c, 0, 72, 0
2, 9780, Note_on_c, 0, 75, 88
2, 9839, Note_off_c, 0, 75, 0
2, 9840, Note_on_c, 0, 75, 88
2, 9899, Note_off_c, 0, 75, 0
2, 9900, Note_on_c, 0, 72, 88
2, 9959, Note_off_c, 0, 72, 0
2, 9960, Note_on_c, 0, 68, 88
2, 10019, Note_off_c, 0, 68, 0
2, 10020, Note_on_c, 0, 65, 88
2, 10079, Note_off_c, 0, 65, 0
2, 10080, Note_on_c, 0, 65, 88
2, 10139, Note_off_c, 0, 65, 0
2, 10140, Note_on_c, 0, 67, 88
2, 10199, Note_off_c, 0, 67, 0
2, 10200, Note_on_c, 0, 70, 88
2, 10259, Note_off_c, 0, 70, 0
2, 10260, Note_on_c, 0, 73, 88
2, 10319, Note_off_c, 0, 73, 0
2, 10320, Note_on_c, 0, 73, 88
2, 10379, Note_off_c, 0, 73, 0
2, 10380, Note_on_c, 0, 70, 88
2, 10439, Note_off_c, 0, 70, 0
2, 10440, Note_on_c, 0, 67, 88
2, 10499, Note_off_c, 0, 67, 0
2, 10500, Note_on_c, 0, 63, 88
2, 10559, Note_off_c, 0, 63, 0
2, 10560, Note_on_c, 0, 63, 88
2, 10619, Note_off_c, 0, 63, 0
2, 10620, Note_on_c, 0, 65, 88
2, 10679, Note_off_c, 0, 65, 0
2, 10680, Note_on_c, 0, 68, 88
2, 10739, Note_off_c, 0, 68, 0
2, 10740, Note_on_c, 0, 72, 88
2, 10799, Note_off_c, 0, 72, 0
2, 10800, Note_on_c, 0, 72, 88
2, 10859, Note_off_c, 0, 72, 0
2, 10860, Note_on_c, 0, 68, 88
2, 10919, Note_off_c, 0, 68, 0
2, 10920, Note_on_c, 0, 65, 88
2, 10979, Note_off_c, 0, 65, 0
2, 10980, Note_on_c, 0, 61, 88
2, 11039, Note_off_c, 0, 61, 0
2, 11040, Note_on_c, 0, 61, 88
2, 11099, Note_off_c, 0, 61, 0
2, 11100, Note_on_c, 0, 63, 88
2, 11159, Note_off_c, 0, 63, 0
2, 11160, Note_on_c, 0, 67, 88
2, 11219, Note_off_c, 0, 67, 0
2, 11220, Note_on_c, 0, 70, 88
2, 11279, Note_off_c, 0, 70, 0
2, 11280, Note_on_c, 0, 70, 88
2, 11339, Note_off_c, 0, 70, 0
2, 11340, Note_on_c, 0, 67, 88
2, 11399, Note_off_c, 0, 67, 0
2, 11400, Note_on_c, 0, 63, 88
2, 11459, Note_off_c, 0, 63, 0
2, 11460, Note_on_c, 0, 60, 88
2, 11579, Note_off_c, 0, 60, 0
2, 11580, Note_on_c, 0, 68, 88
2, 11639, Note_off_c, 0, 68, 0
2, 11640, Note_on_c, 0, 60, 88
2, 11699, Note_off_c, 0, 60, 0
2, 11700, Note_on_c, 0, 68, 88
2, 11819, Note_off_c, 0, 68, 0
2, 11820, Note_on_c, 0, 68, 88
2, 11879, Note_off_c, 0, 68, 0
2, 11880, Note_on_c, 0, 61, 88
2, 11939, Note_off_c, 0, 61, 0
2, 11940, Note_on_c, 0, 68, 88
2, 12059, Note_off_c, 0, 68, 0
2, 12060, Note_on_c, 0, 68, 88
2, 12119, Note_off_c, 0, 68, 0
2, 12120, Note_on_c, 0, 60, 88
2, 12179, Note_off_c, 0, 60, 0
2, 12180, Note_on_c, 0, 68, 88
2, 12299, Note_off_c, 0, 68, 0
2, 12300, Note_on_c, 0, 68, 88
2, 12359, Note_off_c, 0, 68, 0
2, 12360, Note_on_c, 0, 58, 88
2, 12419, Note_off_c, 0, 58, 0
2, 12420, Note_on_c, 0, 68, 88
2, 12539, Note_off_c, 0, 68, 0
2, 12540, Note_on_c, 0, 68, 88
2, 12599, Note_off_c, 0, 68, 0
2, 12600, Note_on_c, 0, 56, 88
2, 12659, Note_off_c, 0, 56, 0
2, 12660, Note_on_c, 0, 68, 88
2, 12719, Note_off_c, 0, 68, 0
2, 12720, Note_on_c, 0, 58, 88
2, 12779, Note_off_c, 0, 58, 0
2, 12780, Note_on_c, 0, 68, 88
2, 12839, Note_off_c, 0, 68, 0
2, 12840, Note_on_c, 0, 64, 88
2, 12899, Note_off_c, 0, 64, 0
2, 12900, Note_on_c, 0, 68, 88
2, 12959, Note_off_c, 0, 68, 0
2, 12960, Note_on_c, 0, 63, 88
2, 13019, Note_off_c, 0, 63, 0
2, 13020, Note_on_c, 0, 67, 88
2, 13079, Note_off_c, 0, 67, 0
2, 13080, Note_on_c, 0, 61, 88
2, 13139, Note_off_c, 0, 61, 0
2, 13140, Note_on_c, 0, 67, 88
2, 13199, Note_off_c, 0, 67, 0
2, 13200, Note_on_c, 0, 67, 88
2, 13319, Note_off_c, 0, 67, 0
2, 13320, Note_on_c, 0, 68, 88
2, 13559, Note_off_c, 0, 68, 0
2, 13560, Note_on_c, 0, 68, 88
2, 13679, Note_off_c, 0, 68, 0
2, 13680, Note_on_c, 0, 68, 88
2, 13799, Note_off_c, 0, 68, 0
2, 13800, Note_on_c, 0, 67, 88
2, 14039, Note_off_c, 0, 67, 0
2, 14040, Note_on_c, 0, 70, 88
2, 14159, Note_off_c, 0, 70, 0
2, 14160, Note_on_c, 0, 70, 88
2, 14279, Note_off_c, 0, 70, 0
2, 14280, Note_on_c, 0, 68, 88
2, 14519, Note_off_c, 0, 68, 0
2, 14520, Note_on_c, 0, 80, 88
2, 14639, Note_off_c, 0, 80, 0
2, 14640, Note_on_c, 0, 80, 88
2, 14759, Note_off_c, 0, 80, 0
2, 14760, Note_on_c, 0, 79, 88
2, 14999, Note_off_c, 0, 79, 0
2, 15000, Note_on_c, 0, 77, 88
2, 15119, Note_off_c, 0, 77, 0
2, 15120, Note_on_c, 0, 77, 88
2, 15239, Note_off_c, 0, 77, 0
2, 15240, Note_on_c, 0, 76, 88
2, 15419, Note_off_c, 0, 76, 0
2, 15420, Note_on_c, 0, 67, 88
2, 15479, Note_off_c, 0, 67, 0
2, 15480, Note_on_c, 0, 60, 88
2, 15539, Note_off_c, 0, 60, 0
2, 15540, Note_on_c, 0, 67, 88
2, 15659, Note_off_c, 0, 67, 0
2, 15660, Note_on_c, 0, 68, 88
2, 15719, Note_off_c, 0, 68, 0
2, 15720, Note_on_c, 0, 60, 88
2, 15779, Note_off_c, 0, 60, 0
2, 15780, Note_on_c, 0, 68, 88
2, 15899, Note_off_c, 0, 68, 0
2, 15900, Note_on_c, 0, 65, 88
2, 15959, Note_off_c, 0, 65, 0
2, 15960, Note_on_c, 0, 60, 88
2, 16019, Note_off_c, 0, 60, 0
2, 16020, Note_on_c, 0, 65, 88
2, 16139, Note_off_c, 0, 65, 0
2, 16140, Note_on_c, 0, 67, 88
2, 16199, Note_off_c, 0, 67, 0
2, 16200, Note_on_c, 0, 60, 88
2, 16259, Note_off_c, 0, 60, 0
2, 16260, Note_on_c, 0, 67, 88
2, 16379, Note_off_c, 0, 67, 0
2, 16380, Note_on_c, 0, 70, 88
2, 16439, Note_off_c, 0, 70, 0
2, 16440, Note_on_c, 0, 60, 88
2, 16499, Note_off_c, 0, 60, 0
2, 16500, Note_on_c, 0, 70, 88
2, 16619, Note_off_c, 0, 70, 0
2, 16620, Note_on_c, 0, 68, 88
2, 16679, Note_off_c, 0, 68, 0
2, 16680, Note_on_c, 0, 60, 88
2, 16739, Note_off_c, 0, 60, 0
2, 16740, Note_on_c, 0, 68, 88
2, 16859, Note_off_c, 0, 68, 0
2, 16860, Note_on_c, 0, 65, 88
2, 16919, Note_off_c, 0, 65, 0
2, 16920, Note_on_c, 0, 60, 88
2, 16979, Note_off_c, 0, 60, 0
2, 16980, Note_on_c, 0, 65, 88
2, 17099, Note_off_c, 0, 65, 0
2, 17100, Note_on_c, 0, 67, 88
2, 17159, Note_off_c, 0, 67, 0
2, 17160, Note_on_c, 0, 60, 88
2, 17219, Note_off_c, 0, 60, 0
2, 17220, Note_on_c, 0, 67, 88
2, 17399, Note_off_c, 0, 67, 0
2, 17400, Note_on_c, 0, 68, 88
2, 17519, Note_off_c, 0, 68, 0
2, 17520, Note_on_c, 0, 68, 88
2, 17639, Note_off_c, 0, 68, 0
2, 17640, Note_on_c, 0, 67, 88
2, 17879, Note_off_c, 0, 67, 0
2, 17880, Note_on_c, 0, 70, 88
2, 17999, Note_off_c, 0, 70, 0
2, 18000, Note_on_c, 0, 70, 88
2, 18119, Note_off_c, 0, 70, 0
2, 18120, Note_on_c, 0, 68, 88
2, 18359, Note_off_c, 0, 68, 0
2, 18360, Note_on_c, 0, 72, 88
2, 18479, Note_off_c, 0, 72, 0
2, 18480, Note_on_c, 0, 72, 88
2, 18599, Note_off_c, 0, 72, 0
2, 18600, Note_on_c, 0, 73, 88
2, 18839, Note_off_c, 0, 73, 0
2, 18840, Note_on_c, 0, 70, 88
2, 18959, Note_off_c, 0, 70, 0
2, 18960, Note_on_c, 0, 70, 88
2, 19079, Note_off_c, 0, 70, 0
2, 19080, Note_on_c, 0, 72, 88
2, 19319, Note_off_c, 0, 72, 0
2, 19320, Note_on_c, 0, 75, 88
2, 19439, Note_off_c, 0, 75, 0
2, 19440, Note_on_c, 0, 75, 88
2, 19559, Note_off_c, 0, 75, 0
2, 19560, Note_on_c, 0, 73, 88
2, 19799, Note_off_c, 0, 73, 0
2, 19800, Note_on_c, 0, 73, 88
2, 19919, Note_off_c, 0, 73, 0
2, 19920, Note_on_c, 0, 73, 88
2, 20039, Note_off_c, 0, 73, 0
2, 20040, Note_on_c, 0, 72, 88
2, 20279, Note_off_c, 0, 72, 0
2, 20280, Note_on_c, 0, 78, 88
2, 20399, Note_off_c, 0, 78, 0
2, 20400, Note_on_c, 0, 78, 88
2, 20519, Note_off_c, 0, 78, 0
2, 20520, Note_on_c, 0, 77, 88
2, 20759, Note_off_c, 0, 77, 0
2, 20760, Note_on_c, 0, 80, 88
2, 20879, Note_off_c, 0, 80, 0
2, 20880, Note_on_c, 0, 80, 88
2, 20999, Note_off_c, 0, 80, 0
2, 21000, Note_on_c, 0, 79, 88
2, 21179, Note_off_c, 0, 79, 0
2, 21180, Note_on_c, 0, 70, 88
2, 21239, Note_off_c, 0, 70, 0
2, 21240, Note_on_c, 0, 63, 88
2, 21299, Note_off_c, 0, 63, 0
2, 21300, Note_on_c, 0, 70, 88
2, 21419, Note_off_c, 0, 70, 0
2, 21420, Note_on_c, 0, 72, 88
2, 21479, Note_off_c, 0, 72, 0
2, 21480, Note_on_c, 0, 63, 88
2, 21539, Note_off_c, 0, 63, 0
2, 21540, Note_on_c, 0, 72, 88
2, 21659, Note_off_c, 0, 72, 0
2, 21660, Note_on_c, 0, 68, 88
2, 21719, Note_off_c, 0, 68, 0
2, 21720, Note_on_c, 0, 63, 88
2, 21779, Note_off_c, 0, 63, 0
2, 21780, Note_on_c, 0, 68, 88
2, 21899, Note_off_c, 0, 68, 0
2, 21900, Note_on_c, 0, 70, 88
2, 21959, Note_off_c, 0, 70, 0
2, 21960, Note_on_c, 0, 63, 88
2, 22019, Note_off_c, 0, 63, 0
2, 22020, Note_on_c, 0, 70, 88
2, 22139, Note_off_c, 0, 70, 0
2, 22140, Note_on_c, 0, 73, 88
2, 22199, Note_off_c, 0, 73, 0
2, 22200, Note_on_c, 0, 63, 88
2, 22259, Note_off_c, 0, 63, 0
2, 22260, Note_on_c, 0, 73, 88
2, 22379, Note_off_c, 0, 73, 0
2, 22380, Note_on_c, 0, 72, 88
2, 22439, Note_off_c, 0, 72, 0
2, 22440, Note_on_c, 0, 63, 88
2, 22499, Note_off_c, 0, 63, 0
2, 22500, Note_on_c, 0, 72, 88
2, 22619, Note_off_c, 0, 72, 0
2, 22620, Note_on_c, 0, 74, 88
2, 22679, Note_off_c, 0, 74, 0
2, 22680, Note_on_c, 0, 63, 88
2, 22739, Note_off_c, 0, 63, 0
2, 22740, Note_on_c, 0, 74, 88
2, 22859, Note_off_c, 0, 74, 0
2, 22860, Note_on_c, 0, 75, 88
2, 22919, Note_off_c, 0, 75, 0
2, 22920, Note_on_c, 0, 63, 88
2, 22979, Note_off_c, 0, 63, 0
2, 22980, Note_on_c, 0, 75, 88
2, 23039, Note_off_c, 0, 75, 0
2, 23040, Note_on_c, 0, 66, 88
2, 23099, Note_off_c, 0, 66, 0
2, 23100, Note_on_c, 0, 68, 88
2, 23159, Note_off_c, 0, 68, 0
2, 23160, Note_on_c, 0, 72, 88
2, 23219, Note_off_c, 0, 72, 0
2, 23220, Note_on_c, 0, 75, 88
2, 23279, Note_off_c, 0, 75, 0
2, 23280, Note_on_c, 0, 75, 88
2, 23339, Note_off_c, 0, 75, 0
2, 23340, Note_on_c, 0, 72, 88
2, 23399, Note_off_c, 0, 72, 0
2, 23400, Note_on_c, 0, 68, 88
2, 23459, Note_off_c, 0, 68, 0
2, 23460, Note_on_c, 0, 65, 88
2, 23519, Note_off_c, 0, 65, 0
2, 23520, Note_on_c, 0, 65, 88
2, 23579, Note_off_c, 0, 65, 0
2, 23580, Note_on_c, 0, 67, 88
2, 23639, Note_off_c, 0, 67, 0
2, 23640, Note_on_c, 0, 70, 88
2, 23699, Note_off_c, 0, 70, 0
2, 23700, Note_on_c, 0, 73, 88
2, 23759, Note_off_c, 0, 73, 0
2, 23760, Note_on_c, 0, 73, 88
2, 23819, Note_off_c, 0, 73, 0
2, 23820, Note_on_c, 0, 70, 88
2, 23879, Note_off_c, 0, 70, 0
2, 23880, Note_on_c, 0, 67, 88
2, 23939, Note_off_c, 0, 67, 0
2, 23940, Note_on_c, 0, 63, 88
2, 23999, Note_off_c, 0, 63, 0
2, 24000, Note_on_c, 0, 63, 88
2, 24059, Note_off_c, 0, 63, 0
2, 24060, Note_on_c, 0, 65, 88
2, 24119, Note_off_c, 0, 65, 0
2, 24120, Note_on_c, 0, 68, 88
2, 24179, Note_off_c, 0, 68, 0
2, 24180, Note_on_c, 0, 72, 88
2, 24239, Note_off_c, 0, 72, 0
2, 24240, Note_on_c, 0, 72, 88
2, 24299, Note_off_c, 0, 72, 0
2, 24300, Note_on_c, 0, 68, 88
2, 24359, Note_off_c, 0, 68, 0
2, 24360, Note_on_c, 0, 65, 88
2, 24419, Note_off_c, 0, 65, 0
2, 24420, Note_on_c, 0, 61, 88
2, 24479, Note_off_c, 0, 61, 0
2, 24480, Note_on_c, 0, 61, 88
2, 24539, Note_off_c, 0, 61, 0
2, 24540, Note_on_c, 0, 63, 88
2, 24599, Note_off_c, 0, 63, 0
2, 24600, Note_on_c, 0, 67, 88
2, 24659, Note_off_c, 0, 67, 0
2, 24660, Note_on_c, 0, 70, 88
2, 24719, Note_off_c, 0, 70, 0
2, 24720, Note_on_c, 0, 70, 88
2, 24779, Note_off_c, 0, 70, 0
2, 24780, Note_on_c, 0, 67, 88
2, 24839, Note_off_c, 0, 67, 0
2, 24840, Note_on_c, 0, 63, 88
2, 24899, Note_off_c, 0, 63, 0
2, 24900, Note_on_c, 0, 60, 88
2, 25019, Note_off_c, 0, 60, 0
2, 25020, Note_on_c, 0, 68, 88
2, 25079, Note_off_c, 0, 68, 0
2, 25080, Note_on_c, 0, 60, 88
2, 25139, Note_off_c, 0, 60, 0
2, 25140, Note_on_c, 0, 68, 88
2, 25259, Note_off_c, 0, 68, 0
2, 25260, Note_on_c, 0, 68, 88
2, 25319, Note_off_c, 0, 68, 0
2, 25320, Note_on_c, 0, 61, 88
2, 25379, Note_off_c, 0, 61, 0
2, 25380, Note_on_c, 0, 68, 88
2, 25499, Note_off_c, 0, 68, 0
2, 25500, Note_on_c, 0, 68, 88
2, 25559, Note_off_c, 0, 68, 0
2, 25560, Note_on_c, 0, 60, 88
2, 25619, Note_off_c, 0, 60, 0
2, 25620, Note_on_c, 0, 68, 88
2, 25739, Note_off_c, 0, 68, 0
2, 25740, Note_on_c, 0, 68, 88
2, 25799, Note_off_c, 0, 68, 0
2, 25800, Note_on_c, 0, 58, 88
2, 25859, Note_off_c, 0, 58, 0
2, 25860, Note_on_c, 0, 68, 88
2, 25979, Note_off_c, 0, 68, 0
2, 25980, Note_on_c, 0, 68, 88
2, 26039, Note_off_c, 0, 68, 0
2, 26040, Note_on_c, 0, 56, 88
2, 26099, Note_off_c, 0, 56, 0
2, 26100, Note_on_c, 0, 68, 88
2, 26159, Note_off_c, 0, 68, 0
2, 26160, Note_on_c, 0, 58, 88
2, 26219, Note_off_c, 0, 58, 0
2, 26220, Note_on_c, 0, 68, 88
2, 26279, Note_off_c, 0, 68, 0
2, 26280, Note_on_c, 0, 64, 88
2, 26339, Note_off_c, 0, 64, 0
2, 26340, Note_on_c, 0, 68, 88
2, 26399, Note_off_c, 0, 68, 0
2, 26400, Note_on_c, 0, 63, 88
2, 26459, Note_off_c, 0, 63, 0
2, 26460, Note_on_c, 0, 67, 88
2, 26519, Note_off_c, 0, 67, 0
2, 26520, Note_on_c, 0, 61, 88
2, 26579, Note_off_c, 0, 61, 0
2, 26580, Note_on_c, 0, 67, 88
2, 26639, Note_off_c, 0, 67, 0
2, 26640, Note_on_c, 0, 67, 88
2, 26759, Note_off_c, 0, 67, 0
2, 26760, Note_on_c, 0, 68, 88
2, 26999, Note_off_c, 0, 68, 0
2, 27000, Note_on_c, 0, 72, 88
2, 27119, Note_off_c, 0, 72, 0
2, 27120, Note_on_c, 0, 72, 88
2, 27239, Note_off_c, 0, 72, 0
2, 27240, Note_on_c, 0, 70, 88
2, 27479, Note_off_c, 0, 70, 0
2, 27480, Note_on_c, 0, 73, 88
2, 27599, Note_off_c, 0, 73, 0
2, 27600, Note_on_c, 0, 73, 88
2, 27719, Note_off_c, 0, 73, 0
2, 27720, Note_on_c, 0, 72, 88
2, 27959, Note_off_c, 0, 72, 0
2, 27960, Note_on_c, 0, 75, 88
2, 28079, Note_off_c, 0, 75, 0
2, 28080, Note_on_c, 0, 75, 88
2, 28199, Note_off_c, 0, 75, 0
2, 28200, Note_on_c, 0, 74, 88
2, 28439, Note_off_c, 0, 74, 0
2, 28440, Note_on_c, 0, 77, 88
2, 28559, Note_off_c, 0, 77, 0
2, 28560, Note_on_c, 0, 77, 88
2, 28679, Note_off_c, 0, 77, 0
2, 28680, Note_on_c, 0, 75, 88
2, 28799, Note_off_c, 0, 75, 0
2, 28800, Note_on_c, 0, 78, 88
2, 29039, Note_off_c, 0, 78, 0
2, 29040, Note_on_c, 0, 77, 88
2, 29279, Note_off_c, 0, 77, 0
2, 29280, Note_on_c, 0, 75, 88
2, 29519, Note_off_c, 0, 75, 0
2, 29520, Note_on_c, 0, 73, 88
2, 29759, Note_off_c, 0, 73, 0
2, 29760, Note_on_c, 0, 74, 88
2, 29999, Note_off_c, 0, 74, 0
2, 30000, Note_on_c, 0, 75, 88
2, 30239, Note_off_c, 0, 75, 0
2, 30240, Note_on_c, 0, 77, 88
2, 30599, Note_off_c, 0, 77, 0
2, 30600, Note_on_c, 0, 75, 88
2, 30779, Note_off_c, 0, 75, 0
2, 30780, Note_on_c, 0, 78, 88
2, 30839, Note_off_c, 0, 78, 0
2, 30840, Note_on_c, 0, 77, 88
2, 30899, Note_off_c, 0, 77, 0
2, 30900, Note_on_c, 0, 78, 88
2, 30959, Note_off_c, 0, 78, 0
2, 30960, Note_on_c, 0, 70, 88
2, 31079, Note_off_c, 0, 70, 0
2, 31080, Note_on_c, 0, 69, 88
2, 31259, Note_off_c, 0, 69, 0
2, 31260, Note_on_c, 0, 75, 88
2, 31319, Note_off_c, 0, 75, 0
2, 31320, Note_on_c, 0, 73, 88
2, 31379, Note_off_c, 0, 73, 0
2, 31380, Note_on_c, 0, 75, 88
2, 31439, Note_off_c, 0, 75, 0
2, 31440, Note_on_c, 0, 66, 88
2, 31559, Note_off_c, 0, 66, 0
2, 31560, Note_on_c, 0, 65, 88
2, 31739, Note_off_c, 0, 65, 0
2, 31740, Note_on_c, 0, 73, 88
2, 31799, Note_off_c, 0, 73, 0
2, 31800, Note_on_c, 0, 72, 88
2, 31859, Note_off_c, 0, 72, 0
2, 31860, Note_on_c, 0, 73, 88
2, 31919, Note_off_c, 0, 73, 0
2, 31920, Note_on_c, 0, 63, 88
2, 31979, Note_off_c, 0, 63, 0
2, 31980, Note_on_c, 0, 72, 88
2, 32039, Note_off_c, 0, 72, 0
2, 32040, Note_on_c, 0, 70, 88
2, 32099, Note_off_c, 0, 70, 0
2, 32100, Note_on_c, 0, 72, 88
2, 32219, Note_off_c, 0, 72, 0
2, 32220, Note_on_c, 0, 70, 88
2, 32339, Note_off_c, 0, 70, 0
2, 32340, Note_on_c, 0, 69, 88
2, 32399, Note_off_c, 0, 69, 0
2, 32400, Note_on_c, 0, 69, 88
2, 32519, Note_off_c, 0, 69, 0
2, 32520, Note_on_c, 0, 70, 88
2, 32639, Note_off_c, 0, 70, 0
2, 32640, Note_on_c, 0, 77, 88
2, 32759, Note_off_c, 0, 77, 0
2, 32760, Note_on_c, 0, 77, 88
2, 32774, Note_off_c, 0, 77, 0
2, 32775, Note_on_c, 0, 75, 88
2, 32797, Note_off_c, 0, 75, 0
2, 32798, Note_on_c, 0, 77, 88
2, 32819, Note_off_c, 0, 77, 0
2, 32820, Note_on_c, 0, 75, 88
2, 32879, Note_off_c, 0, 75, 0
2, 32880, Note_on_c, 0, 73, 88
2, 32999, Note_off_c, 0, 73, 0
2, 33000, Note_on_c, 0, 77, 88
2, 33119, Note_off_c, 0, 77, 0
2, 33120, Note_on_c, 0, 70, 88
2, 33239, Note_off_c, 0, 70, 0
2, 33240, Note_on_c, 0, 73, 88
2, 33299, Note_off_c, 0, 73, 0
2, 33300, Note_on_c, 0, 77, 88
2, 33359, Note_off_c, 0, 77, 0
2, 33360, Note_on_c, 0, 80, 88
2, 33479, Note_off_c, 0, 80, 0
2, 33480, Note_on_c, 0, 79, 88
2, 33599, Note_off_c, 0, 79, 0
2, 33600, Note_on_c, 0, 75, 88
2, 33719, Note_off_c, 0, 75, 0
2, 33720, Note_on_c, 0, 75, 88
2, 33734, Note_off_c, 0, 75, 0
2, 33735, Note_on_c, 0, 73, 88
2, 33757, Note_off_c, 0, 73, 0
2, 33758, Note_on_c, 0, 75, 88
2, 33779, Note_off_c, 0, 75, 0
2, 33780, Note_on_c, 0, 73, 88
2, 33839, Note_off_c, 0, 73, 0
2, 33840, Note_on_c, 0, 72, 88
2, 33959, Note_off_c, 0, 72, 0
2, 33960, Note_on_c, 0, 75, 88
2, 34079, Note_off_c, 0, 75, 0
2, 34080, Note_on_c, 0, 68, 88
2, 34199, Note_off_c, 0, 68, 0
2, 34200, Note_on_c, 0, 72, 88
2, 34259, Note_off_c, 0, 72, 0
2, 34260, Note_on_c, 0, 75, 88
2, 34319, Note_off_c, 0, 75, 0
2, 34320, Note_on_c, 0, 78, 88
2, 34439, Note_off_c, 0, 78, 0
2, 34440, Note_on_c, 0, 77, 88
2, 34559, Note_off_c, 0, 77, 0
2, 34560, Note_on_c, 0, 68, 88
2, 34679, Note_off_c, 0, 68, 0
2, 34680, Note_on_c, 0, 77, 88
2, 34799, Note_off_c, 0, 77, 0
2, 34800, Note_on_c, 0, 70, 88
2, 34814, Note_off_c, 0, 70, 0
2, 34815, Note_on_c, 0, 68, 88
2, 34837, Note_off_c, 0, 68, 0
2, 34838, Note_on_c, 0, 70, 88
2, 34859, Note_off_c, 0, 70, 0
2, 34860, Note_on_c, 0, 68, 88
2, 34919, Note_off_c, 0, 68, 0
2, 34920, Note_on_c, 0, 67, 88
2, 35039, Note_off_c, 0, 67, 0
2, 35040, Note_on_c, 0, 70, 88
2, 35159, Note_off_c, 0, 70, 0
2, 35160, Note_on_c, 0, 79, 88
2, 35279, Note_off_c, 0, 79, 0
2, 35280, Note_on_c, 0, 72, 88
2, 35294, Note_off_c, 0, 72, 0
2, 35295, Note_on_c, 0, 70, 88
2, 35317, Note_off_c, 0, 70, 0
2, 35318, Note_on_c, 0, 72, 88
2, 35339, Note_off_c, 0, 72, 0
2, 35340, Note_on_c, 0, 70, 88
2, 35399, Note_off_c, 0, 70, 0
2, 35400, Note_on_c, 0, 68, 88
2, 35519, Note_off_c, 0, 68, 0
2, 35520, Note_on_c, 0, 72, 88
2, 35579, Note_off_c, 0, 72, 0
2, 35580, Note_on_c, 0, 76, 88
2, 35639, Note_off_c, 0, 76, 0
2, 35640, Note_on_c, 0, 77, 88
2, 35699, Note_off_c, 0, 77, 0
2, 35700, Note_on_c, 0, 80, 88
2, 35759, Note_off_c, 0, 80, 0
2, 35760, Note_on_c, 0, 73, 88
2, 35819, Note_off_c, 0, 73, 0
2, 35820, Note_on_c, 0, 80, 88
2, 35879, Note_off_c, 0, 80, 0
2, 35880, Note_on_c, 0, 72, 88
2, 35939, Note_off_c, 0, 72, 0
2, 35940, Note_on_c, 0, 80, 88
2, 35999, Note_off_c, 0, 80, 0
2, 36000, Note_on_c, 0, 70, 88
2, 36059, Note_off_c, 0, 70, 0
2, 36060, Note_on_c, 0, 80, 88
2, 36119, Note_off_c, 0, 80, 0
2, 36120, Note_on_c, 0, 79, 88
2, 36179, Note_off_c, 0, 79, 0
2, 36180, Note_on_c, 0, 77, 88
2, 36239, Note_off_c, 0, 77, 0
2, 36240, Note_on_c, 0, 77, 88
2, 36299, Note_off_c, 0, 77, 0
2, 36300, Note_on_c, 0, 76, 88
2, 36359, Note_off_c, 0, 76, 0
2, 36360, Note_on_c, 0, 74, 88
2, 36419, Note_off_c, 0, 74, 0
2, 36420, Note_on_c, 0, 72, 88
2, 36479, Note_off_c, 0, 72, 0
2, 36480, Note_on_c, 0, 80, 88
2, 36539, Note_off_c, 0, 80, 0
2, 36540, Note_on_c, 0, 77, 88
2, 36599, Note_off_c, 0, 77, 0
2, 36600, Note_on_c, 0, 73, 88
2, 36659, Note_off_c, 0, 73, 0
2, 36660, Note_on_c, 0, 72, 88
2, 36719, Note_off_c, 0, 72, 0
2, 36720, Note_on_c, 0, 70, 88
2, 36779, Note_off_c, 0, 70, 0
2, 36780, Note_on_c, 0, 68, 88
2, 36839, Note_off_c, 0, 68, 0
2, 36840, Note_on_c, 0, 70, 88
2, 36899, Note_off_c, 0, 70, 0
2, 36900, Note_on_c, 0, 73, 88
2, 36959, Note_off_c, 0, 73, 0
2, 36960, Note_on_c, 0, 78, 88
2, 37019, Note_off_c, 0, 78, 0
2, 37020, Note_on_c, 0, 75, 88
2, 37079, Note_off_c, 0, 75, 0
2, 37080, Note_on_c, 0, 72, 88
2, 37139, Note_off_c, 0, 72, 0
2, 37140, Note_on_c, 0, 70, 88
2, 37199, Note_off_c, 0, 70, 0
2, 37200, Note_on_c, 0, 69, 88
2, 37259, Note_off_c, 0, 69, 0
2, 37260, Note_on_c, 0, 67, 88
2, 37319, Note_off_c, 0, 67, 0
2, 37320, Note_on_c, 0, 69, 88
2, 37379, Note_off_c, 0, 69, 0
2, 37380, Note_on_c, 0, 72, 88
2, 37439, Note_off_c, 0, 72, 0
2, 37440, Note_on_c, 0, 77, 88
2, 37499, Note_off_c, 0, 77, 0
2, 37500, Note_on_c, 0, 73, 88
2, 37559, Note_off_c, 0, 73, 0
2, 37560, Note_on_c, 0, 70, 88
2, 37619, Note_off_c, 0, 70, 0
2, 37620, Note_on_c, 0, 68, 88
2, 37679, Note_off_c, 0, 68, 0
2, 37680, Note_on_c, 0, 66, 88
2, 37739, Note_off_c, 0, 66, 0
2, 37740, Note_on_c, 0, 65, 88
2, 37799, Note_off_c, 0, 65, 0
2, 37800, Note_on_c, 0, 66, 88
2, 37859, Note_off_c, 0, 66, 0
2, 37860, Note_on_c, 0, 70, 88
2, 37919, Note_off_c, 0, 70, 0
2, 37920, Note_on_c, 0, 75, 88
2, 37979, Note_off_c, 0, 75, 0
2, 37980, Note_on_c, 0, 72, 88
2, 38039, Note_off_c, 0, 72, 0
2, 38040, Note_on_c, 0, 69, 88
2, 38099, Note_off_c, 0, 69, 0
2, 38100, Note_on_c, 0, 66, 88
2, 38159, Note_off_c, 0, 66, 0
2, 38160, Note_on_c, 0, 65, 88
2, 38219, Note_off_c, 0, 65, 0
2, 38220, Note_on_c, 0, 64, 88
2, 38279, Note_off_c, 0, 64, 0
2, 38280, Note_on_c, 0, 65, 88
2, 38339, Note_off_c, 0, 65, 0
2, 38340, Note_on_c, 0, 75, 88
2, 38399, Note_off_c, 0, 75, 0
2, 38400, Note_on_c, 0, 73, 88
2, 38639, Note_off_c, 0, 73, 0
2, 38640, Note_on_c, 0, 67, 88
2, 38879, Note_off_c, 0, 67, 0
2, 38880, Note_on_c, 0, 70, 88
2, 39119, Note_off_c, 0, 70, 0
2, 39120, Note_on_c, 0, 64, 88
2, 39419, Note_off_c, 0, 64, 0
2, 39420, Note_on_c, 0, 67, 88
2, 39479, Note_off_c, 0, 67, 0
2, 39480, Note_on_c, 0, 58, 88
2, 39539, Note_off_c, 0, 58, 0
2, 39540, Note_on_c, 0, 67, 88
2, 39599, Note_off_c, 0, 67, 0
2, 39600, Note_on_c, 0, 56, 88
2, 39659, Note_off_c, 0, 56, 0
2, 39660, Note_on_c, 0, 67, 88
2, 39719, Note_off_c, 0, 67, 0
2, 39720, Note_on_c, 0, 56, 88
2, 39779, Note_off_c, 0, 56, 0
2, 39780, Note_on_c, 0, 65, 88
2, 39839, Note_off_c, 0, 65, 0
2, 39840, Note_on_c, 0, 56, 88
2, 39899, Note_off_c, 0, 56, 0
2, 39900, Note_on_c, 0, 65, 88
2, 39959, Note_off_c, 0, 65, 0
2, 39960, Note_on_c, 0, 56, 88
2, 40019, Note_off_c, 0, 56, 0
2, 40020, Note_on_c, 0, 65, 88
2, 40079, Note_off_c, 0, 65, 0
2, 40080, Note_on_c, 0, 56, 88
2, 40139, Note_off_c, 0, 56, 0
2, 40140, Note_on_c, 0, 65, 88
2, 40199, Note_off_c, 0, 65, 0
2, 40200, Note_on_c, 0, 64, 88
2, 40439, Note_off_c, 0, 64, 0
2, 40440, Note_on_c, 0, 68, 88
2, 40559, Note_off_c, 0, 68, 0
2, 40560, Note_on_c, 0, 68, 88
2, 40679, Note_off_c, 0, 68, 0
2, 40680, Note_on_c, 0, 67, 88
2, 40919, Note_off_c, 0, 67, 0
2, 40920, Note_on_c, 0, 67, 88
2, 40979, Note_off_c, 0, 67, 0
2, 40980, Note_on_c, 0, 68, 88
2, 41039, Note_off_c, 0, 68, 0
2, 41040, Note_on_c, 0, 70, 88
2, 41099, Note_off_c, 0, 70, 0
2, 41100, Note_on_c, 0, 73, 88
2, 41159, Note_off_c, 0, 73, 0
2, 41160, Note_on_c, 0, 72, 88
2, 41399, Note_off_c, 0, 72, 0
2, 41400, Note_on_c, 0, 72, 88
2, 41519, Note_off_c, 0, 72, 0
2, 41520, Note_on_c, 0, 70, 88
2, 41579, Note_off_c, 0, 70, 0
2, 41580, Note_on_c, 0, 68, 88
2, 41639, Note_off_c, 0, 68, 0
2, 41640, Note_on_c, 0, 67, 88
2, 41699, Note_off_c, 0, 67, 0
2, 41700, Note_on_c, 0, 65, 88
2, 41759, Note_off_c, 0, 65, 0
2, 41760, Note_on_c, 0, 68, 88
2, 41819, Note_off_c, 0, 68, 0
2, 41820, Note_on_c, 0, 67, 88
2, 41879, Note_off_c, 0, 67, 0
2, 41880, Note_on_c, 0, 65, 88
2, 41939, Note_off_c, 0, 65, 0
2, 41940, Note_on_c, 0, 64, 88
2, 41999, Note_off_c, 0, 64, 0
2, 42000, Note_on_c, 0, 64, 88
2, 42059, Note_off_c, 0, 64, 0
2, 42060, Note_on_c, 0, 65, 88
2, 42119, Note_off_c, 0, 65, 0
2, 42120, Note_on_c, 0, 67, 88
2, 42179, Note_off_c, 0, 67, 0
2, 42180, Note_on_c, 0, 65, 88
2, 42239, Note_off_c, 0, 65, 0
2, 42240, Note_on_c, 0, 64, 88
2, 42299, Note_off_c, 0, 64, 0
2, 42300, Note_on_c, 0, 65, 88
2, 42359, Note_off_c, 0, 65, 0
2, 42360, Note_on_c, 0, 70, 88
2, 42419, Note_off_c, 0, 70, 0
2, 42420, Note_on_c, 0, 65, 88
2, 42479, Note_off_c, 0, 65, 0
2, 42480, Note_on_c, 0, 64, 88
2, 42539, Note_off_c, 0, 64, 0
2, 42540, Note_on_c, 0, 65, 88
2, 42599, Note_off_c, 0, 65, 0
2, 42600, Note_on_c, 0, 68, 88
2, 42659, Note_off_c, 0, 68, 0
2, 42660, Note_on_c, 0, 65, 88
2, 42719, Note_off_c, 0, 65, 0
2, 42720, Note_on_c, 0, 64, 88
2, 42779, Note_off_c, 0, 64, 0
2, 42780, Note_on_c, 0, 65, 88
2, 42839, Note_off_c, 0, 65, 0
2, 42840, Note_on_c, 0, 73, 88
2, 42899, Note_off_c, 0, 73, 0
2, 42900, Note_on_c, 0, 65, 88
2, 42959, Note_off_c, 0, 65, 0
2, 42960, Note_on_c, 0, 64, 88
2, 43019, Note_off_c, 0, 64, 0
2, 43020, Note_on_c, 0, 65, 88
2, 43079, Note_off_c, 0, 65, 0
2, 43080, Note_on_c, 0, 72, 88
2, 43139, Note_off_c, 0, 72, 0
2, 43140, Note_on_c, 0, 65, 88
2, 43199, Note_off_c, 0, 65, 0
2, 43200, Note_on_c, 0, 63, 88
2, 43259, Note_off_c, 0, 63, 0
2, 43260, Note_on_c, 0, 65, 88
2, 43319, Note_off_c, 0, 65, 0
2, 43320, Note_on_c, 0, 69, 88
2, 43379, Note_off_c, 0, 69, 0
2, 43380, Note_on_c, 0, 72, 88
2, 43439, Note_off_c, 0, 72, 0
2, 43440, Note_on_c, 0, 72, 88
2, 43499, Note_off_c, 0, 72, 0
2, 43500, Note_on_c, 0, 69, 88
2, 43559, Note_off_c, 0, 69, 0
2, 43560, Note_on_c, 0, 65, 88
2, 43619, Note_off_c, 0, 65, 0
2, 43620, Note_on_c, 0, 61, 88
2, 43679, Note_off_c, 0, 61, 0
2, 43680, Note_on_c, 0, 61, 88
2, 43739, Note_off_c, 0, 61, 0
2, 43740, Note_on_c, 0, 63, 88
2, 43799, Note_off_c, 0, 63, 0
2, 43800, Note_on_c, 0, 67, 88
2, 43859, Note_off_c, 0, 67, 0
2, 43860, Note_on_c, 0, 70, 88
2, 43919, Note_off_c, 0, 70, 0
2, 43920, Note_on_c, 0, 70, 88
2, 43979, Note_off_c, 0, 70, 0
2, 43980, Note_on_c, 0, 67, 88
2, 44039, Note_off_c, 0, 67, 0
2, 44040, Note_on_c, 0, 63, 88
2, 44099, Note_off_c, 0, 63, 0
2, 44100, Note_on_c, 0, 60, 88
2, 44159, Note_off_c, 0, 60, 0
2, 44160, Note_on_c, 0, 60, 88
2, 44219, Note_off_c, 0, 60, 0
2, 44220, Note_on_c, 0, 61, 88
2, 44279, Note_off_c, 0, 61, 0
2, 44280, Note_on_c, 0, 65, 88
2, 44339, Note_off_c, 0, 65, 0
2, 44340, Note_on_c, 0, 68, 88
2, 44399, Note_off_c, 0, 68, 0
2, 44400, Note_on_c, 0, 68, 88
2, 44459, Note_off_c, 0, 68, 0
2, 44460, Note_on_c, 0, 65, 88
2, 44519, Note_off_c, 0, 65, 0
2, 44520, Note_on_c, 0, 61, 88
2, 44579, Note_off_c, 0, 61, 0
2, 44580, Note_on_c, 0, 58, 88
2, 44639, Note_off_c, 0, 58, 0
2, 44640, Note_on_c, 0, 58, 88
2, 44699, Note_off_c, 0, 58, 0
2, 44700, Note_on_c, 0, 60, 88
2, 44759, Note_off_c, 0, 60, 0
2, 44760, Note_on_c, 0, 64, 88
2, 44819, Note_off_c, 0, 64, 0
2, 44820, Note_on_c, 0, 67, 88
2, 44879, Note_off_c, 0, 67, 0
2, 44880, Note_on_c, 0, 67, 88
2, 44939, Note_off_c, 0, 67, 0
2, 44940, Note_on_c, 0, 64, 88
2, 44999, Note_off_c, 0, 64, 0
2, 45000, Note_on_c, 0, 60, 88
2, 45059, Note_off_c, 0, 60, 0
2, 45060, Note_on_c, 0, 56, 88
2, 45179, Note_off_c, 0, 56, 0
2, 45180, Note_on_c, 0, 65, 88
2, 45239, Note_off_c, 0, 65, 0
2, 45240, Note_on_c, 0, 57, 88
2, 45299, Note_off_c, 0, 57, 0
2, 45300, Note_on_c, 0, 65, 88
2, 45419, Note_off_c, 0, 65, 0
2, 45420, Note_on_c, 0, 67, 88
2, 45479, Note_off_c, 0, 67, 0
2, 45480, Note_on_c, 0, 58, 88
2, 45539, Note_off_c, 0, 58, 0
2, 45540, Note_on_c, 0, 67, 88
2, 45659, Note_off_c, 0, 67, 0
2, 45660, Note_on_c, 0, 69, 88
2, 45719, Note_off_c, 0, 69, 0
2, 45720, Note_on_c, 0, 66, 88
2, 45779, Note_off_c, 0, 66, 0
2, 45780, Note_on_c, 0, 69, 88
2, 45899, Note_off_c, 0, 69, 0
2, 45900, Note_on_c, 0, 70, 88
2, 45959, Note_off_c, 0, 70, 0
2, 45960, Note_on_c, 0, 65, 88
2, 46019, Note_off_c, 0, 65, 0
2, 46020, Note_on_c, 0, 70, 88
2, 46139, Note_off_c, 0, 70, 0
2, 46140, Note_on_c, 0, 68, 88
2, 46199, Note_off_c, 0, 68, 0
2, 46200, Note_on_c, 0, 65, 88
2, 46259, Note_off_c, 0, 65, 0
2, 46260, Note_on_c, 0, 68, 88
2, 46439, Note_off_c, 0, 68, 0
2, 46440, Note_on_c, 0, 65, 88
2, 46619, Note_off_c, 0, 65, 0
2, 46620, Note_on_c, 0, 67, 88
2, 46679, Note_off_c, 0, 67, 0
2, 46680, Note_on_c, 0, 67, 88
2, 46694, Note_off_c, 0, 67, 0
2, 46695, Note_on_c, 0, 65, 88
2, 46709, Note_off_c, 0, 65, 0
2, 46710, Note_on_c, 0, 67, 88
2, 46724, Note_off_c, 0, 67, 0
2, 46725, Note_on_c, 0, 65, 88
2, 46739, Note_off_c, 0, 65, 0
2, 46740, Note_on_c, 0, 64, 88
2, 46799, Note_off_c, 0, 64, 0
2, 46800, Note_on_c, 0, 64, 88
2, 46919, Note_off_c, 0, 64, 0
2, 46920, Note_on_c, 0, 65, 88
2, 47159, Note_off_c, 0, 65, 0
2, 47160, Note_on_c, 0, 72, 88
2, 47279, Note_off_c, 0, 72, 0
2, 47280, Note_on_c, 0, 72, 88
2, 47399, Note_off_c, 0, 72, 0
2, 47400, Note_on_c, 0, 70, 88
2, 47639, Note_off_c, 0, 70, 0
2, 47640, Note_on_c, 0, 73, 88
2, 47759, Note_off_c, 0, 73, 0
2, 47760, Note_on_c, 0, 73, 88
2, 47879, Note_off_c, 0, 73, 0
2, 47880, Note_on_c, 0, 72, 88
2, 48119, Note_off_c, 0, 72, 0
2, 48120, Note_on_c, 0, 75, 88
2, 48239, Note_off_c, 0, 75, 0
2, 48240, Note_on_c, 0, 75, 88
2, 48359, Note_off_c, 0, 75, 0
2, 48360, Note_on_c, 0, 74, 88
2, 48599, Note_off_c, 0, 74, 0
2, 48600, Note_on_c, 0, 77, 88
2, 48719, Note_off_c, 0, 77, 0
2, 48720, Note_on_c, 0, 77, 88
2, 48839, Note_off_c, 0, 77, 0
2, 48840, Note_on_c, 0, 75, 88
2, 48959, Note_off_c, 0, 75, 0
2, 48960, Note_on_c, 0, 78, 88
2, 49199, Note_off_c, 0, 78, 0
2, 49200, Note_on_c, 0, 77, 88
2, 49439, Note_off_c, 0, 77, 0
2, 49440, Note_on_c, 0, 75, 88
2, 49679, Note_off_c, 0, 75, 0
2, 49680, Note_on_c, 0, 73, 88
2, 49919, Note_off_c, 0, 73, 0
2, 49920, Note_on_c, 0, 74, 88
2, 50159, Note_off_c, 0, 74, 0
2, 50160, Note_on_c, 0, 75, 88
2, 50399, Note_off_c, 0, 75, 0
2, 50400, Note_on_c, 0, 77, 88
2, 50759, Note_off_c, 0, 77, 0
2, 50760, Note_on_c, 0, 75, 88
2, 50939, Note_off_c, 0, 75, 0
2, 50940, Note_on_c, 0, 78, 88
2, 50999, Note_off_c, 0, 78, 0
2, 51000, Note_on_c, 0, 77, 88
2, 51059, Note_off_c, 0, 77, 0
2, 51060, Note_on_c, 0, 78, 88
2, 51119, Note_off_c, 0, 78, 0
2, 51120, Note_on_c, 0, 70, 88
2, 51239, Note_off_c, 0, 70, 0
2, 51240, Note_on_c, 0, 69, 88
2, 51419, Note_off_c, 0, 69, 0
2, 51420, Note_on_c, 0, 75, 88
2, 51479, Note_off_c, 0, 75, 0
2, 51480, Note_on_c, 0, 73, 88
2, 51539, Note_off_c, 0, 73, 0
2, 51540, Note_on_c, 0, 75, 88
2, 51599, Note_off_c, 0, 75, 0
2, 51600, Note_on_c, 0, 66, 88
2, 51719, Note_off_c, 0, 66, 0
2, 51720, Note_on_c, 0, 65, 88
2, 51899, Note_off_c, 0, 65, 0
2, 51900, Note_on_c, 0, 73, 88
2, 51959, Note_off_c, 0, 73, 0
2, 51960, Note_on_c, 0, 72, 88
2, 52019, Note_off_c, 0, 72, 0
2, 52020, Note_on_c, 0, 73, 88
2, 52079, Note_off_c, 0, 73, 0
2, 52080, Note_on_c, 0, 63, 88
2, 52139, Note_off_c, 0, 63, 0
2, 52140, Note_on_c, 0, 72, 88
2, 52199, Note_off_c, 0, 72, 0
2, 52200, Note_on_c, 0, 70, 88
2, 52259, Note_off_c, 0, 70, 0
2, 52260, Note_on_c, 0, 72, 88
2, 52379, Note_off_c, 0, 72, 0
2, 52380, Note_on_c, 0, 70, 88
2, 52499, Note_off_c, 0, 70, 0
2, 52500, Note_on_c, 0, 69, 88
2, 52559, Note_off_c, 0, 69, 0
2, 52560, Note_on_c, 0, 69, 88
2, 52679, Note_off_c, 0, 69, 0
2, 52680, Note_on_c, 0, 70, 88
2, 52799, Note_off_c, 0, 70, 0
2, 52800, Note_on_c, 0, 77, 88
2, 52919, Note_off_c, 0, 77, 0
2, 52920, Note_on_c, 0, 77, 88
2, 52934, Note_off_c, 0, 77, 0
2, 52935, Note_on_c, 0, 75, 88
2, 52957, Note_off_c, 0, 75, 0
2, 52958, Note_on_c, 0, 77, 88
2, 52979, Note_off_c, 0, 77, 0
2, 52980, Note_on_c, 0, 75, 88
2, 53039, Note_off_c, 0, 75, 0
2, 53040, Note_on_c, 0, 73, 88
2, 53159, Note_off_c, 0, 73, 0
2, 53160, Note_on_c, 0, 77, 88
2, 53279, Note_off_c, 0, 77, 0
2, 53280, Note_on_c, 0, 70, 88
2, 53399, Note_off_c, 0, 70, 0
2, 53400, Note_on_c, 0, 73, 88
2, 53459, Note_off_c, 0, 73, 0
2, 53460, Note_on_c, 0, 77, 88
2, 53519, Note_off_c, 0, 77, 0
2, 53520, Note_on_c, 0, 80, 88
2, 53639, Note_off_c, 0, 80, 0
2, 53640, Note_on_c, 0, 79, 88
2, 53759, Note_off_c, 0, 79, 0
2, 53760, Note_on_c, 0, 75, 88
2, 53879, Note_off_c, 0, 75, 0
2, 53880, Note_on_c, 0, 75, 88
2, 53894, Note_off_c, 0, 75, 0
2, 53895, Note_on_c, 0, 73, 88
2, 53917, Note_off_c, 0, 73, 0
2, 53918, Note_on_c, 0, 75, 88
2, 53939, Note_off_c, 0, 75, 0
2, 53940, Note_on_c, 0, 73, 88
2, 53999, Note_off_c, 0, 73, 0
2, 54000, Note_on_c, 0, 72, 88
2, 54119, Note_off_c, 0, 72, 0
2, 54120, Note_on_c, 0, 75, 88
2, 54239, Note_off_c, 0, 75, 0
2, 54240, Note_on_c, 0, 68, 88
2, 54359, Note_off_c, 0, 68, 0
2, 54360, Note_on_c, 0, 72, 88
2, 54419, Note_off_c, 0, 72, 0
2, 54420, Note_on_c, 0, 75, 88
2, 54479, Note_off_c, 0, 75, 0
2, 54480, Note_on_c, 0, 78, 88
2, 54599, Note_off_c, 0, 78, 0
2, 54600, Note_on_c, 0, 77, 88
2, 54719, Note_off_c, 0, 77, 0
2, 54720, Note_on_c, 0, 68, 88
2, 54839, Note_off_c, 0, 68, 0
2, 54840, Note_on_c, 0, 77, 88
2, 54959, Note_off_c, 0, 77, 0
2, 54960, Note_on_c, 0, 70, 88
2, 54974, Note_off_c, 0, 70, 0
2, 54975, Note_on_c, 0, 68, 88
2, 54997, Note_off_c, 0, 68, 0
2, 54998, Note_on_c, 0, 70, 88
2, 55019, Note_off_c, 0, 70, 0
2, 55020, Note_on_c, 0, 68, 88
2, 55079, Note_off_c, 0, 68, 0
2, 55080, Note_on_c, 0, 67, 88
2, 55199, Note_off_c, 0, 67, 0
2, 55200, Note_on_c, 0, 70, 88
2, 55319, Note_off_c, 0, 70, 0
2, 55320, Note_on_c, 0, 79, 88
2, 55439, Note_off_c, 0, 79, 0
2, 55440, Note_on_c, 0, 72, 88
2, 55454, Note_off_c, 0, 72, 0
2, 55455, Note_on_c, 0, 70, 88
2, 55477, Note_off_c, 0, 70, 0
2, 55478, Note_on_c, 0, 72, 88
2, 55499, Note_off_c, 0, 72, 0
2, 55500, Note_on_c, 0, 70, 88
2, 55559, Note_off_c, 0, 70, 0
2, 55560, Note_on_c, 0, 68, 88
2, 55679, Note_off_c, 0, 68, 0
2, 55680, Note_on_c, 0, 72, 88
2, 55739, Note_off_c, 0, 72, 0
2, 55740, Note_on_c, 0, 76, 88
2, 55799, Note_off_c, 0, 76, 0
2, 55800, Note_on_c, 0, 77, 88
2, 55859, Note_off_c, 0, 77, 0
2, 55860, Note_on_c, 0, 80, 88
2, 55919, Note_off_c, 0, 80, 0
2, 55920, Note_on_c, 0, 73, 88
2, 55979, Note_off_c, 0, 73, 0
2, 55980, Note_on_c, 0, 80, 88
2, 56039, Note_off_c, 0, 80, 0
2, 56040, Note_on_c, 0, 72, 88
2, 56099, Note_off_c, 0, 72, 0
2, 56100, Note_on_c, 0, 80, 88
2, 56159, Note_off_c, 0, 80, 0
2, 56160, Note_on_c, 0, 70, 88
2, 56219, Note_off_c, 0, 70, 0
2, 56220, Note_on_c, 0, 80, 88
2, 56279, Note_off_c, 0, 80, 0
2, 56280, Note_on_c, 0, 79, 88
2, 56339, Note_off_c, 0, 79, 0
2, 56340, Note_on_c, 0, 77, 88
2, 56399, Note_off_c, 0, 77, 0
2, 56400, Note_on_c, 0, 77, 88
2, 56459, Note_off_c, 0, 77, 0
2, 56460, Note_on_c, 0, 76, 88
2, 56519, Note_off_c, 0, 76, 0
2, 56520, Note_on_c, 0, 74, 88
2, 56579, Note_off_c, 0, 74, 0
2, 56580, Note_on_c, 0, 72, 88
2, 56639, Note_off_c, 0, 72, 0
2, 56640, Note_on_c, 0, 80, 88
2, 56699, Note_off_c, 0, 80, 0
2, 56700, Note_on_c, 0, 77, 88
2, 56759, Note_off_c, 0, 77, 0
2, 56760, Note_on_c, 0, 73, 88
2, 56819, Note_off_c, 0, 73, 0
2, 56820, Note_on_c, 0, 72, 88
2, 56879, Note_off_c, 0, 72, 0
2, 56880, Note_on_c, 0, 70, 88
2, 56939, Note_off_c, 0, 70, 0
2, 56940, Note_on_c, 0, 68, 88
2, 56999, Note_off_c, 0, 68, 0
2, 57000, Note_on_c, 0, 70, 88
2, 57059, Note_off_c, 0, 70, 0
2, 57060, Note_on_c, 0, 73, 88
2, 57119, Note_off_c, 0, 73, 0
2, 57120, Note_on_c, 0, 78, 88
2, 57179, Note_off_c, 0, 78, 0
2, 57180, Note_on_c, 0, 75, 88
2, 57239, Note_off_c, 0, 75, 0
2, 57240, Note_on_c, 0, 72, 88
2, 57299, Note_off_c, 0, 72, 0
2, 57300, Note_on_c, 0, 70, 88
2, 57359, Note_off_c, 0, 70, 0
2, 57360, Note_on_c, 0, 69, 88
2, 57419, Note_off_c, 0, 69, 0
2, 57420, Note_on_c, 0, 67, 88
2, 57479, Note_off_c, 0, 67, 0
2, 57480, Note_on_c, 0, 69, 88
2, 57539, Note_off_c, 0, 69, 0
2, 57540, Note_on_c, 0, 72, 88
2, 57599, Note_off_c, 0, 72, 0
2, 57600, Note_on_c, 0, 77, 88
2, 57659, Note_off_c, 0, 77, 0
2, 57660, Note_on_c, 0, 73, 88
2, 57719, Note_off_c, 0, 73, 0
2, 57720, Note_on_c, 0, 70, 88
2, 57779, Note_off_c, 0, 70, 0
2, 57780, Note_on_c, 0, 68, 88
2, 57839, Note_off_c, 0, 68, 0
2, 57840, Note_on_c, 0, 66, 88
2, 57899, Note_off_c, 0, 66, 0
2, 57900, Note_on_c, 0, 65, 88
2, 57959, Note_off_c, 0, 65, 0
2, 57960, Note_on_c, 0, 66, 88
2, 58019, Note_off_c, 0, 66, 0
2, 58020, Note_on_c, 0, 70, 88
2, 58079, Note_off_c, 0, 70, 0
2, 58080, Note_on_c, 0, 75, 88
2, 58139, Note_off_c, 0, 75, 0
2, 58140, Note_on_c, 0, 72, 88
2, 58199, Note_off_c, 0, 72, 0
2, 58200, Note_on_c, 0, 69, 88
2, 58259, Note_off_c, 0, 69, 0
2, 58260, Note_on_c, 0, 66, 88
2, 58319, Note_off_c, 0, 66, 0
2, 58320, Note_on_c, 0, 65, 88
2, 58379, Note_off_c, 0, 65, 0
2, 58380, Note_on_c, 0, 64, 88
2, 58439, Note_off_c, 0, 64, 0
2, 58440, Note_on_c, 0, 65, 88
2, 58499, Note_off_c, 0, 65, 0
2, 58500, Note_on_c, 0, 75, 88
2, 58559, Note_off_c, 0, 75, 0
2, 58560, Note_on_c, 0, 73, 88
2, 58799, Note_off_c, 0, 73, 0
2, 58800, Note_on_c, 0, 67, 88
2, 59039, Note_off_c, 0, 67, 0
2, 59040, Note_on_c, 0, 70, 88
2, 59279, Note_off_c, 0, 70, 0
2, 59280, Note_on_c, 0, 64, 88
2, 59579, Note_off_c, 0, 64, 0
2, 59580, Note_on_c, 0, 67, 88
2, 59639, Note_off_c, 0, 67, 0
2, 59640, Note_on_c, 0, 58, 88
2, 59699, Note_off_c, 0, 58, 0
2, 59700, Note_on_c, 0, 67, 88
2, 59759, Note_off_c, 0, 67, 0
2, 59760, Note_on_c, 0, 56, 88
2, 59819, Note_off_c, 0, 56, 0
2, 59820, Note_on_c, 0, 67, 88
2, 59879, Note_off_c, 0, 67, 0
2, 59880, Note_on_c, 0, 56, 88
2, 59939, Note_off_c, 0, 56, 0
2, 59940, Note_on_c, 0, 65, 88
2, 59999, Note_off_c, 0, 65, 0
2, 60000, Note_on_c, 0, 56, 88
2, 60059, Note_off_c, 0, 56, 0
2, 60060, Note_on_c, 0, 65, 88
2, 60119, Note_off_c, 0, 65, 0
2, 60120, Note_on_c, 0, 56, 88
2, 60179, Note_off_c, 0, 56, 0
2, 60180, Note_on_c, 0, 65, 88
2, 60239, Note_off_c, 0, 65, 0
2, 60240, Note_on_c, 0, 56, 88
2, 60299, Note_off_c, 0, 56, 0
2, 60300, Note_on_c, 0, 65, 88
2, 60359, Note_off_c, 0, 65, 0
2, 60360, Note_on_c, 0, 64, 88
2, 60599, Note_off_c, 0, 64, 0
2, 60600, Note_on_c, 0, 68, 88
2, 60719, Note_off_c, 0, 68, 0
2, 60720, Note_on_c, 0, 68, 88
2, 60839, Note_off_c, 0, 68, 0
2, 60840, Note_on_c, 0, 67, 88
2, 61079, Note_off_c, 0, 67, 0
2, 61080, Note_on_c, 0, 67, 88
2, 61139, Note_off_c, 0, 67, 0
2, 61140, Note_on_c, 0, 68, 88
2, 61199, Note_off_c, 0, 68, 0
2, 61200, Note_on_c, 0, 70, 88
2, 61259, Note_off_c, 0, 70, 0
2, 61260, Note_on_c, 0, 73, 88
2, 61319, Note_off_c, 0, 73, 0
2, 61320, Note_on_c, 0, 72, 88
2, 61559, Note_off_c, 0, 72, 0
2, 61560, Note_on_c, 0, 72, 88
2, 61679, Note_off_c, 0, 72, 0
2, 61680, Note_on_c, 0, 70, 88
2, 61739, Note_off_c, 0, 70, 0
2, 61740, Note_on_c, 0, 68, 88
2, 61799, Note_off_c, 0, 68, 0
2, 61800, Note_on_c, 0, 67, 88
2, 61859, Note_off_c, 0, 67, 0
2, 61860, Note_on_c, 0, 65, 88
2, 61919, Note_off_c, 0, 65, 0
2, 61920, Note_on_c, 0, 68, 88
2, 61979, Note_off_c, 0, 68, 0
2, 61980, Note_on_c, 0, 67, 88
2, 62039, Note_off_c, 0, 67, 0
2, 62040, Note_on_c, 0, 65, 88
2, 62099, Note_off_c, 0, 65, 0
2, 62100, Note_on_c, 0, 64, 88
2, 62159, Note_off_c, 0, 64, 0
2, 62160, Note_on_c, 0, 64, 88
2, 62219, Note_off_c, 0, 64, 0
2, 62220, Note_on_c, 0, 65, 88
2, 62279, Note_off_c, 0, 65, 0
2, 62280, Note_on_c, 0, 67, 88
2, 62339, Note_off_c, 0, 67, 0
2, 62340, Note_on_c, 0, 65, 88
2, 62399, Note_off_c, 0, 65, 0
2, 62400, Note_on_c, 0, 64, 88
2, 62459, Note_off_c, 0, 64, 0
2, 62460, Note_on_c, 0, 65, 88
2, 62519, Note_off_c, 0, 65, 0
2, 62520, Note_on_c, 0, 70, 88
2, 62579, Note_off_c, 0, 70, 0
2, 62580, Note_on_c, 0, 65, 88
2, 62639, Note_off_c, 0, 65, 0
2, 62640, Note_on_c, 0, 64, 88
2, 62699, Note_off_c, 0, 64, 0
2, 62700, Note_on_c, 0, 65, 88
2, 62759, Note_off_c, 0, 65, 0
2, 62760, Note_on_c, 0, 68, 88
2, 62819, Note_off_c, 0, 68, 0
2, 62820, Note_on_c, 0, 65, 88
2, 62879, Note_off_c, 0, 65, 0
2, 62880, Note_on_c, 0, 64, 88
2, 62939, Note_off_c, 0, 64, 0
2, 62940, Note_on_c, 0, 65, 88
2, 62999, Note_off_c, 0, 65, 0
2, 63000, Note_on_c, 0, 73, 88
2, 63059, Note_off_c, 0, 73, 0
2, 63060, Note_on_c, 0, 65, 88
2, 63119, Note_off_c, 0, 65, 0
2, 63120, Note_on_c, 0, 64, 88
2, 63179, Note_off_c, 0, 64, 0
2, 63180, Note_on_c, 0, 65, 88
2, 63239, Note_off_c, 0, 65, 0
2, 63240, Note_on_c, 0, 72, 88
2, 63299, Note_off_c, 0, 72, 0
2, 63300, Note_on_c, 0, 65, 88
2, 63359, Note_off_c, 0, 65, 0
2, 63360, Note_on_c, 0, 63, 88
2, 63419, Note_off_c, 0, 63, 0
2, 63420, Note_on_c, 0, 65, 88
2, 63479, Note_off_c, 0, 65, 0
2, 63480, Note_on_c, 0, 69, 88
2, 63539, Note_off_c, 0, 69, 0
2, 63540, Note_on_c, 0, 72, 88
2, 63599, Note_off_c, 0, 72, 0
2, 63600, Note_on_c, 0, 72, 88
2, 63659, Note_off_c, 0, 72, 0
2, 63660, Note_on_c, 0, 69, 88
2, 63719, Note_off_c, 0, 69, 0
2, 63720, Note_on_c, 0, 65, 88
2, 63779, Note_off_c, 0, 65, 0
2, 63780, Note_on_c, 0, 61, 88
2, 63839, Note_off_c, 0, 61, 0
2, 63840, Note_on_c, 0, 61, 88
2, 63899, Note_off_c, 0, 61, 0
2, 63900, Note_on_c, 0, 63, 88
2, 63959, Note_off_c, 0, 63, 0
2, 63960, Note_on_c, 0, 67, 88
2, 64019, Note_off_c, 0, 67, 0
2, 64020, Note_on_c, 0, 70, 88
2, 64079, Note_off_c, 0, 70, 0
2, 64080, Note_on_c, 0, 70, 88
2, 64139, Note_off_c, 0, 70, 0
2, 64140, Note_on_c, 0, 67, 88
2, 64199, Note_off_c, 0, 67, 0
2, 64200, Note_on_c, 0, 63, 88
2, 64259, Note_off_c, 0, 63, 0
2, 64260, Note_on_c, 0, 60, 88
2, 64319, Note_off_c, 0, 60, 0
2, 64320, Note_on_c, 0, 60, 88
2, 64379, Note_off_c, 0, 60, 0
2, 64380, Note_on_c, 0, 61, 88
2, 64439, Note_off_c, 0, 61, 0
2, 64440, Note_on_c, 0, 65, 88
2, 64499, Note_off_c, 0, 65, 0
2, 64500, Note_on_c, 0, 68, 88
2, 64559, Note_off_c, 0, 68, 0
2, 64560, Note_on_c, 0, 68, 88
2, 64619, Note_off_c, 0, 68, 0
2, 64620, Note_on_c, 0, 65, 88
2, 64679, Note_off_c, 0, 65, 0
2, 64680, Note_on_c, 0, 61, 88
2, 64739, Note_off_c, 0, 61, 0
2, 64740, Note_on_c, 0, 58, 88
2, 64799, Note_off_c, 0, 58, 0
2, 64800, Note_on_c, 0, 58, 88
2, 64859, Note_off_c, 0, 58, 0
2, 64860, Note_on_c, 0, 60, 88
2, 64919, Note_off_c, 0, 60, 0
2, 64920, Note_on_c, 0, 64, 88
2, 64979, Note_off_c, 0, 64, 0
2, 64980, Note_on_c, 0, 67, 88
2, 65039, Note_off_c, 0, 67, 0
2, 65040, Note_on_c, 0, 67, 88
2, 65099, Note_off_c, 0, 67, 0
2, 65100, Note_on_c, 0, 64, 88
2, 65159, Note_off_c, 0, 64, 0
2, 65160, Note_on_c, 0, 60, 88
2, 65219, Note_off_c, 0, 60, 0
2, 65220, Note_on_c, 0, 56, 88
2, 65339, Note_off_c, 0, 56, 0
2, 65340, Note_on_c, 0, 65, 88
2, 65399, Note_off_c, 0, 65, 0
2, 65400, Note_on_c, 0, 57, 88
2, 65459, Note_off_c, 0, 57, 0
2, 65460, Note_on_c, 0, 65, 88
2, 65579, Note_off_c, 0, 65, 0
2, 65580, Note_on_c, 0, 67, 88
2, 65639, Note_off_c, 0, 67, 0
2, 65640, Note_on_c, 0, 58, 88
2, 65699, Note_off_c, 0, 58, 0
2, 65700, Note_on_c, 0, 67, 88
2, 65819, Note_off_c, 0, 67, 0
2, 65820, Note_on_c, 0, 69, 88
2, 65879, Note_off_c, 0, 69, 0
2, 65880, Note_on_c, 0, 66, 88
2, 65939, Note_off_c, 0, 66, 0
2, 65940, Note_on_c, 0, 69, 88
2, 66059, Note_off_c, 0, 69, 0
2, 66060, Note_on_c, 0, 70, 88
2, 66119, Note_off_c, 0, 70, 0
2, 66120, Note_on_c, 0, 65, 88
2, 66179, Note_off_c, 0, 65, 0
2, 66180, Note_on_c, 0, 70, 88
2, 66299, Note_off_c, 0, 70, 0
2, 66300, Note_on_c, 0, 68, 88
2, 66359, Note_off_c, 0, 68, 0
2, 66360, Note_on_c, 0, 65, 88
2, 66419, Note_off_c, 0, 65, 0
2, 66420, Note_on_c, 0, 68, 88
2, 66599, Note_off_c, 0, 68, 0
2, 66600, Note_on_c, 0, 65, 88
2, 66779, Note_off_c, 0, 65, 0
2, 66780, Note_on_c, 0, 67, 88
2, 66839, Note_off_c, 0, 67, 0
2, 66840, Note_on_c, 0, 67, 88
2, 66854, Note_off_c, 0, 67, 0
2, 66855, Note_on_c, 0, 65, 88
2, 66869, Note_off_c, 0, 65, 0
2, 66870, Note_on_c, 0, 67, 88
2, 66884, Note_off_c, 0, 67, 0
2, 66885, Note_on_c, 0, 65, 88
2, 66899, Note_off_c, 0, 65, 0
2, 66900, Note_on_c, 0, 64, 88
2, 66959, Note_off_c, 0, 64, 0
2, 66960, Note_on_c, 0, 64, 88
2, 67079, Note_off_c, 0, 64, 0
2, 67080, Note_on_c, 0, 65, 88
2, 67120, Note_off_c, 0, 65, 0
2, 67120, End_track
0, 0, End_of_file