0, 0, Header, 1, 2, 240
1, 0, Start_track
1, 0, Time_signature, 4, 2, 24, 8
1, 0, Tempo, 833333
1, 0, SMPTE_offset, 64, 0, 0, 0, 100
1, 0, End_track
2, 0, Start_track
2, 0, Title_t, "Track 1"
2, 0, Program_c, 0, 6
2, 0, Note_on_c, 0, 73, 88
2, 149, Note_off_c, 0, 73, 0
2, 150, Note_on_c, 0, 71, 88
2, 179, Note_off_c, 0, 71, 0
2, 180, Note_on_c, 0, 70, 88
2, 209, Note_off_c, 0, 70, 0
2, 210, Note_on_c, 0, 68, 88
2, 239, Note_off_c, 0, 68, 0
2, 240, Note_on_c, 0, 68, 88
2, 357, Note_off_c, 0, 68, 0
2, 358, Note_on_c, 0, 66, 88
2, 659, Note_off_c, 0, 66, 0
2, 660, Note_on_c, 0, 78, 88
2, 719, Note_off_c, 0, 78, 0
2, 720, Note_on_c, 0, 77, 88
2, 899, Note_off_c, 0, 77, 0
2, 900, Note_on_c, 0, 78, 88
2, 929, Note_off_c, 0, 78, 0
2, 930, Note_on_c, 0, 80, 88
2, 959, Note_off_c, 0, 80, 0
2, 960, Note_on_c, 0, 73, 88
2, 1379, Note_off_c, 0, 73, 0
2, 1380, Note_on_c, 0, 78, 88
2, 1439, Note_off_c, 0, 78, 0
2, 1440, Note_on_c, 0, 71, 88
2, 1619, Note_off_c, 0, 71, 0
2, 1620, Note_on_c, 0, 75, 88
2, 1679, Note_off_c, 0, 75, 0
2, 1680, Note_on_c, 0, 68, 88
2, 1859, Note_off_c, 0, 68, 0
2, 1860, Note_on_c, 0, 71, 88
2, 1919, Note_off_c, 0, 71, 0
2, 1920, Note_on_c, 0, 65, 88
2, 2099, Note_off_c, 0, 65, 0
2, 2100, Note_on_c, 0, 73, 88
2, 2159, Note_off_c, 0, 73, 0
2, 2160, Note_on_c, 0, 70, 88
2, 2219, Note_off_c, 0, 70, 0
2, 2220, Note_on_c, 0, 73, 88
2, 2279, Note_off_c, 0, 73, 0
2, 2280, Note_on_c, 0, 66, 88
2, 2339, Note_off_c, 0, 66, 0
2, 2340, Note_on_c, 0, 68, 88
2, 2399, Note_off_c, 0, 68, 0
2, 2400, Note_on_c, 0, 70, 88
2, 2459, Note_off_c, 0, 70, 0
2, 2460, Note_on_c, 0, 66, 88
2, 2519, Note_off_c, 0, 66, 0
2, 2520, Note_on_c, 0, 73, 88
2, 2579, Note_off_c, 0, 73, 0
2, 2580, Note_on_c, 0, 70, 88
2, 2639, Note_off_c, 0, 70, 0
2, 2640, Note_on_c, 0, 66, 88
2, 2699, Note_off_c, 0, 66, 0
2, 2700, Note_on_c, 0, 70, 88
2, 2759, Note_off_c, 0, 70, 0
2, 2760, Note_on_c, 0, 68, 88
2, 2819, Note_off_c, 0, 68, 0
2, 2820, Note_on_c, 0, 66, 88
2, 2879, Note_off_c, 0, 66, 0
2, 2880, Note_on_c, 0, 68, 88
2, 2939, Note_off_c, 0, 68, 0
2, 2940, Note_on_c, 0, 73, 88
2, 2999, Note_off_c, 0, 73, 0
2, 3000, Note_on_c, 0, 65, 88
2, 3059, Note_off_c, 0, 65, 0
2, 3060, Note_on_c, 0, 66, 88
2, 3119, Note_off_c, 0, 66, 0
2, 3120, Note_on_c, 0, 68, 88
2, 3179, Note_off_c, 0, 68, 0
2, 3180, Note_on_c, 0, 65, 88
2, 3239, Note_off_c, 0, 65, 0
2, 3240, Note_on_c, 0, 73, 88
2, 3299, Note_off_c, 0, 73, 0
2, 3300, Note_on_c, 0, 68, 88
2, 3359, Note_off_c, 0, 68, 0
2, 3360, Note_on_c, 0, 65, 88
2, 3419, Note_off_c, 0, 65, 0
2, 3420, Note_on_c, 0, 68, 88
2, 3479, Note_off_c, 0, 68, 0
2, 3480, Note_on_c, 0, 66, 88
2, 3539, Note_off_c, 0, 66, 0
2, 3540, Note_on_c, 0, 65, 88
2, 3599, Note_off_c, 0, 65, 0
2, 3600, Note_on_c, 0, 66, 88
2, 3659, Note_off_c, 0, 66, 0
2, 3660, Note_on_c, 0, 70, 88
2, 3719, Note_off_c, 0, 70, 0
2, 3720, Note_on_c, 0, 63, 88
2, 3779, Note_off_c, 0, 63, 0
2, 3780, Note_on_c, 0, 65, 88
2, 3839, Note_off_c, 0, 65, 0
2, 3840, Note_on_c, 0, 66, 88
2, 3899, Note_off_c, 0, 66, 0
2, 3900, Note_on_c, 0, 63, 88
2, 3959, Note_off_c, 0, 63, 0
2, 3960, Note_on_c, 0, 70, 88
2, 4019, Note_off_c, 0, 70, 0
2, 4020, Note_on_c, 0, 66, 88
2, 4079, Note_off_c, 0, 66, 0
2, 4080, Note_on_c, 0, 63, 88
2, 4139, Note_off_c, 0, 63, 0
2, 4140, Note_on_c, 0, 66, 88
2, 4199, Note_off_c, 0, 66, 0
2, 4200, Note_on_c, 0, 65, 88
2, 4259, Note_off_c, 0, 65, 0
2, 4260, Note_on_c, 0, 63, 88
2, 4319, Note_off_c, 0, 63, 0
2, 4320, Note_on_c, 0, 65, 88
2, 4379, Note_off_c, 0, 65, 0
2, 4380, Note_on_c, 0, 68, 88
2, 4439, Note_off_c, 0, 68, 0
2, 4440, Note_on_c, 0, 61, 88
2, 4499, Note_off_c, 0, 61, 0
2, 4500, Note_on_c, 0, 63, 88
2, 4559, Note_off_c, 0, 63, 0
2, 4560, Note_on_c, 0, 65, 88
2, 4619, Note_off_c, 0, 65, 0
2, 4620, Note_on_c, 0, 61, 88
2, 4679, Note_off_c, 0, 61, 0
2, 4680, Note_on_c, 0, 68, 88
2, 4739, Note_off_c, 0, 68, 0
2, 4740, Note_on_c, 0, 65, 88
2, 4799, Note_off_c, 0, 65, 0
2, 4800, Note_on_c, 0, 61, 88
2, 4859, Note_off_c, 0, 61, 0
2, 4860, Note_on_c, 0, 71, 88
2, 4919, Note_off_c, 0, 71, 0
2, 4920, Note_on_c, 0, 70, 88
2, 4979, Note_off_c, 0, 70, 0
2, 4980, Note_on_c, 0, 68, 88
2, 5039, Note_off_c, 0, 68, 0
2, 5040, Note_on_c, 0, 70, 88
2, 5099, Note_off_c, 0, 70, 0
2, 5100, Note_on_c, 0, 73, 88
2, 5159, Note_off_c, 0, 73, 0
2, 5160, Note_on_c, 0, 66, 88
2, 5219, Note_off_c, 0, 66, 0
2, 5220, Note_on_c, 0, 68, 88
2, 5279, Note_off_c, 0, 68, 0
2, 5280, Note_on_c, 0, 70, 88
2, 5339, Note_off_c, 0, 70, 0
2, 5340, Note_on_c, 0, 66, 88
2, 5399, Note_off_c, 0, 66, 0
2, 5400, Note_on_c, 0, 73, 88
2, 5459, Note_off_c, 0, 73, 0
2, 5460, Note_on_c, 0, 70, 88
2, 5519, Note_off_c, 0, 70, 0
2, 5520, Note_on_c, 0, 66, 88
2, 5579, Note_off_c, 0, 66, 0
2, 5580, Note_on_c, 0, 68, 88
2, 5639, Note_off_c, 0, 68, 0
2, 5640, Note_on_c, 0, 66, 88
2, 5699, Note_off_c, 0, 66, 0
2, 5700, Note_on_c, 0, 65, 88
2, 5759, Note_off_c, 0, 65, 0
2, 5760, Note_on_c, 0, 63, 88
2, 5819, Note_off_c, 0, 63, 0
2, 5820, Note_on_c, 0, 70, 88
2, 5879, Note_off_c, 0, 70, 0
2, 5880, Note_on_c, 0, 63, 88
2, 5939, Note_off_c, 0, 63, 0
2, 5940, Note_on_c, 0, 65, 88
2, 5999, Note_off_c, 0, 65, 0
2, 6000, Note_on_c, 0, 67, 88
2, 6059, Note_off_c, 0, 67, 0
2, 6060, Note_on_c, 0, 63, 88
2, 6119, Note_off_c, 0, 63, 0
2, 6120, Note_on_c, 0, 70, 88
2, 6179, Note_off_c, 0, 70, 0
2, 6180, Note_on_c, 0, 67, 88
2, 6239, Note_off_c, 0, 67, 0
2, 6240, Note_on_c, 0, 63, 88
2, 6299, Note_off_c, 0, 63, 0
2, 6300, Note_on_c, 0, 73, 88
2, 6359, Note_off_c, 0, 73, 0
2, 6360, Note_on_c, 0, 72, 88
2, 6419, Note_off_c, 0, 72, 0
2, 6420, Note_on_c, 0, 70, 88
2, 6479, Note_off_c, 0, 70, 0
2, 6480, Note_on_c, 0, 72, 88
2, 6539, Note_off_c, 0, 72, 0
2, 6540, Note_on_c, 0, 75, 88
2, 6599, Note_off_c, 0, 75, 0
2, 6600, Note_on_c, 0, 68, 88
2, 6659, Note_off_c, 0, 68, 0
2, 6660, Note_on_c, 0, 70, 88
2, 6719, Note_off_c, 0, 70, 0
2, 6720, Note_on_c, 0, 72, 88
2, 6779, Note_off_c, 0, 72, 0
2, 6780, Note_on_c, 0, 68, 88
2, 6839, Note_off_c, 0, 68, 0
2, 6840, Note_on_c, 0, 75, 88
2, 6899, Note_off_c, 0, 75, 0
2, 6900, Note_on_c, 0, 72, 88
2, 6959, Note_off_c, 0, 72, 0
2, 6960, Note_on_c, 0, 68, 88
2, 7019, Note_off_c, 0, 68, 0
2, 7020, Note_on_c, 0, 70, 88
2, 7079, Note_off_c, 0, 70, 0
2, 7080, Note_on_c, 0, 68, 88
2, 7139, Note_off_c, 0, 68, 0
2, 7140, Note_on_c, 0, 66, 88
2, 7199, Note_off_c, 0, 66, 0
2, 7200, Note_on_c, 0, 65, 88
2, 7259, Note_off_c, 0, 65, 0
2, 7260, Note_on_c, 0, 72, 88
2, 7319, Note_off_c, 0, 72, 0
2, 7320, Note_on_c, 0, 65, 88
2, 7379, Note_off_c, 0, 65, 0
2, 7380, Note_on_c, 0, 67, 88
2, 7439, Note_off_c, 0, 67, 0
2, 7440, Note_on_c, 0, 69, 88
2, 7499, Note_off_c, 0, 69, 0
2, 7500, Note_on_c, 0, 65, 88
2, 7559, Note_off_c, 0, 65, 0
2, 7560, Note_on_c, 0, 72, 88
2, 7619, Note_off_c, 0, 72, 0
2, 7620, Note_on_c, 0, 69, 88
2, 7679, Note_off_c, 0, 69, 0
2, 7680, Note_on_c, 0, 65, 88
2, 7739, Note_off_c, 0, 65, 0
2, 7740, Note_on_c, 0, 75, 88
2, 7799, Note_off_c, 0, 75, 0
2, 7800, Note_on_c, 0, 73, 88
2, 7859, Note_off_c, 0, 73, 0
2, 7860, Note_on_c, 0, 72, 88
2, 7919, Note_off_c, 0, 72, 0
2, 7920, Note_on_c, 0, 73, 88
2, 8099, Note_off_c, 0, 73, 0
2, 8100, Note_on_c, 0, 70, 88
2, 8159, Note_off_c, 0, 70, 0
2, 8160, Note_on_c, 0, 78, 88
2, 8549, Note_off_c, 0, 78, 0
2, 8550, Note_on_c, 0, 77, 88
2, 8579, Note_off_c, 0, 77, 0
2, 8580, Note_on_c, 0, 75, 88
2, 8609, Note_off_c, 0, 75, 0
2, 8610, Note_on_c, 0, 73, 88
2, 8639, Note_off_c, 0, 73, 0
2, 8640, Note_on_c, 0, 75, 88
2, 8819, Note_off_c, 0, 75, 0
2, 8820, Note_on_c, 0, 72, 88
2, 8879, Note_off_c, 0, 72, 0
2, 8880, Note_on_c, 0, 80, 88
2, 9269, Note_off_c, 0, 80, 0
2, 9270, Note_on_c, 0, 78, 88
2, 9299, Note_off_c, 0, 78, 0
2, 9300, Note_on_c, 0, 77, 88
2, 9329, Note_off_c, 0, 77, 0
2, 9330, Note_on_c, 0, 75, 88
2, 9359, Note_off_c, 0, 75, 0
2, 9360, Note_on_c, 0, 77, 88
2, 9539, Note_off_c, 0, 77, 0
2, 9540, Note_on_c, 0, 73, 88
2, 9599, Note_off_c, 0, 73, 0
2, 9600, Note_on_c, 0, 82, 88
2, 9749, Note_off_c, 0, 82, 0
2, 9750, Note_on_c, 0, 80, 88
2, 9779, Note_off_c, 0, 80, 0
2, 9780, Note_on_c, 0, 78, 88
2, 9809, Note_off_c, 0, 78, 0
2, 9810, Note_on_c, 0, 77, 88
2, 9839, Note_off_c, 0, 77, 0
2, 9840, Note_on_c, 0, 75, 88
2, 10019, Note_off_c, 0, 75, 0
2, 10020, Note_on_c, 0, 78, 88
2, 10079, Note_off_c, 0, 78, 0
2, 10080, Note_on_c, 0, 73, 88
2, 10139, Note_off_c, 0, 73, 0
2, 10140, Note_on_c, 0, 72, 88
2, 10229, Note_off_c, 0, 72, 0
2, 10230, Note_on_c, 0, 75, 88
2, 10259, Note_off_c, 0, 75, 0
2, 10260, Note_on_c, 0, 77, 88
2, 10289, Note_off_c, 0, 77, 0
2, 10290, Note_on_c, 0, 78, 88
2, 10319, Note_off_c, 0, 78, 0
2, 10320, Note_on_c, 0, 80, 88
2, 10499, Note_off_c, 0, 80, 0
2, 10500, Note_on_c, 0, 72, 88
2, 10559, Note_off_c, 0, 72, 0
2, 10560, Note_on_c, 0, 73, 88
2, 10739, Note_off_c, 0, 73, 0
2, 10740, Note_on_c, 0, 68, 88
2, 10799, Note_off_c, 0, 68, 0
2, 10800, Note_on_c, 0, 70, 88
2, 10949, Note_off_c, 0, 70, 0
2, 10950, Note_on_c, 0, 68, 88
2, 10979, Note_off_c, 0, 68, 0
2, 10980, Note_on_c, 0, 66, 88
2, 11009, Note_off_c, 0, 66, 0
2, 11010, Note_on_c, 0, 65, 88
2, 11039, Note_off_c, 0, 65, 0
2, 11040, Note_on_c, 0, 63, 88
2, 11219, Note_off_c, 0, 63, 0
2, 11220, Note_on_c, 0, 73, 88
2, 11279, Note_off_c, 0, 73, 0
2, 11280, Note_on_c, 0, 68, 88
2, 11459, Note_off_c, 0, 68, 0
2, 11460, Note_on_c, 0, 72, 88
2, 11519, Note_off_c, 0, 72, 0
2, 11520, Note_on_c, 0, 73, 88
2, 11579, Note_off_c, 0, 73, 0
2, 11580, Note_on_c, 0, 68, 88
2, 11639, Note_off_c, 0, 68, 0
2, 11640, Note_on_c, 0, 73, 88
2, 11699, Note_off_c, 0, 73, 0
2, 11700, Note_on_c, 0, 75, 88
2, 11759, Note_off_c, 0, 75, 0
2, 11760, Note_on_c, 0, 77, 88
2, 11819, Note_off_c, 0, 77, 0
2, 11820, Note_on_c, 0, 73, 88
2, 11879, Note_off_c, 0, 73, 0
2, 11880, Note_on_c, 0, 80, 88
2, 11939, Note_off_c, 0, 80, 0
2, 11940, Note_on_c, 0, 77, 88
2, 11999, Note_off_c, 0, 77, 0
2, 12000, Note_on_c, 0, 73, 88
2, 12059, Note_off_c, 0, 73, 0
2, 12060, Note_on_c, 0, 77, 88
2, 12119, Note_off_c, 0, 77, 0
2, 12120, Note_on_c, 0, 75, 88
2, 12179, Note_off_c, 0, 75, 0
2, 12180, Note_on_c, 0, 73, 88
2, 12239, Note_off_c, 0, 73, 0
2, 12240, Note_on_c, 0, 75, 88
2, 12299, Note_off_c, 0, 75, 0
2, 12300, Note_on_c, 0, 80, 88
2, 12359, Note_off_c, 0, 80, 0
2, 12360, Note_on_c, 0, 68, 88
2, 12419, Note_off_c, 0, 68, 0
2, 12420, Note_on_c, 0, 70, 88
2, 12479, Note_off_c, 0, 70, 0
2, 12480, Note_on_c, 0, 72, 88
2, 12539, Note_off_c, 0, 72, 0
2, 12540, Note_on_c, 0, 68, 88
2, 12599, Note_off_c, 0, 68, 0
2, 12600, Note_on_c, 0, 75, 88
2, 12659, Note_off_c, 0, 75, 0
2, 12660, Note_on_c, 0, 72, 88
2, 12719, Note_off_c, 0, 72, 0
2, 12720, Note_on_c, 0, 68, 88
2, 12779, Note_off_c, 0, 68, 0
2, 12780, Note_on_c, 0, 78, 88
2, 12839, Note_off_c, 0, 78, 0
2, 12840, Note_on_c, 0, 77, 88
2, 12899, Note_off_c, 0, 77, 0
2, 12900, Note_on_c, 0, 75, 88
2, 12959, Note_off_c, 0, 75, 0
2, 12960, Note_on_c, 0, 73, 88
2, 13019, Note_off_c, 0, 73, 0
2, 13020, Note_on_c, 0, 68, 88
2, 13079, Note_off_c, 0, 68, 0
2, 13080, Note_on_c, 0, 73, 88
2, 13139, Note_off_c, 0, 73, 0
2, 13140, Note_on_c, 0, 75, 88
2, 13199, Note_off_c, 0, 75, 0
2, 13200, Note_on_c, 0, 77, 88
2, 13259, Note_off_c, 0, 77, 0
2, 13260, Note_on_c, 0, 73, 88
2, 13319, Note_off_c, 0, 73, 0
2, 13320, Note_on_c, 0, 80, 88
2, 13379, Note_off_c, 0, 80, 0
2, 13380, Note_on_c, 0, 77, 88
2, 13439, Note_off_c, 0, 77, 0
2, 13440, Note_on_c, 0, 73, 88
2, 13499, Note_off_c, 0, 73, 0
2, 13500, Note_on_c, 0, 83, 88
2, 13559, Note_off_c, 0, 83, 0
2, 13560, Note_on_c, 0, 82, 88
2, 13619, Note_off_c, 0, 82, 0
2, 13620, Note_on_c, 0, 80, 88
2, 13679, Note_off_c, 0, 80, 0
2, 13680, Note_on_c, 0, 78, 88
2, 13829, Note_off_c, 0, 78, 0
2, 13830, Note_on_c, 0, 71, 88
2, 13859, Note_off_c, 0, 71, 0
2, 13860, Note_on_c, 0, 70, 88
2, 13889, Note_off_c, 0, 70, 0
2, 13890, Note_on_c, 0, 68, 88
2, 13919, Note_off_c, 0, 68, 0
2, 13920, Note_on_c, 0, 66, 88
2, 14339, Note_off_c, 0, 66, 0
2, 14340, Note_on_c, 0, 78, 88
2, 14399, Note_off_c, 0, 78, 0
2, 14400, Note_on_c, 0, 77, 88
2, 14579, Note_off_c, 0, 77, 0
2, 14580, Note_on_c, 0, 78, 88
2, 14609, Note_off_c, 0, 78, 0
2, 14610, Note_on_c, 0, 80, 88
2, 14639, Note_off_c, 0, 80, 0
2, 14640, Note_on_c, 0, 73, 88
2, 14939, Note_off_c, 0, 73, 0
2, 14940, Note_on_c, 0, 75, 88
2, 14999, Note_off_c, 0, 75, 0
2, 15000, Note_on_c, 0, 73, 88
2, 15059, Note_off_c, 0, 73, 0
2, 15060, Note_on_c, 0, 71, 88
2, 15119, Note_off_c, 0, 71, 0
2, 15120, Note_on_c, 0, 70, 88
2, 15299, Note_off_c, 0, 70, 0
2, 15300, Note_on_c, 0, 68, 88
2, 15329, Note_off_c, 0, 68, 0
2, 15330, Note_on_c, 0, 66, 88
2, 15359, Note_off_c, 0, 66, 0
2, 15360, Note_on_c, 0, 76, 88
2, 15539, Note_off_c, 0, 76, 0
2, 15540, Note_on_c, 0, 73, 88
2, 15599, Note_off_c, 0, 73, 0
2, 15600, Note_on_c, 0, 70, 88
2, 15779, Note_off_c, 0, 70, 0
2, 15780, Note_on_c, 0, 76, 88
2, 15839, Note_off_c, 0, 76, 0
2, 15840, Note_on_c, 0, 75, 88
2, 15899, Note_off_c, 0, 75, 0
2, 15900, Note_on_c, 0, 78, 88
2, 15959, Note_off_c, 0, 78, 0
2, 15960, Note_on_c, 0, 71, 88
2, 16019, Note_off_c, 0, 71, 0
2, 16020, Note_on_c, 0, 73, 88
2, 16079, Note_off_c, 0, 73, 0
2, 16080, Note_on_c, 0, 75, 88
2, 16139, Note_off_c, 0, 75, 0
2, 16140, Note_on_c, 0, 71, 88
2, 16199, Note_off_c, 0, 71, 0
2, 16200, Note_on_c, 0, 78, 88
2, 16259, Note_off_c, 0, 78, 0
2, 16260, Note_on_c, 0, 75, 88
2, 16319, Note_off_c, 0, 75, 0
2, 16320, Note_on_c, 0, 71, 88
2, 16379, Note_off_c, 0, 71, 0
2, 16380, Note_on_c, 0, 75, 88
2, 16439, Note_off_c, 0, 75, 0
2, 16440, Note_on_c, 0, 73, 88
2, 16499, Note_off_c, 0, 73, 0
2, 16500, Note_on_c, 0, 71, 88
2, 16559, Note_off_c, 0, 71, 0
2, 16560, Note_on_c, 0, 73, 88
2, 16619, Note_off_c, 0, 73, 0
2, 16620, Note_on_c, 0, 78, 88
2, 16679, Note_off_c, 0, 78, 0
2, 16680, Note_on_c, 0, 70, 88
2, 16739, Note_off_c, 0, 70, 0
2, 16740, Note_on_c, 0, 71, 88
2, 16799, Note_off_c, 0, 71, 0
2, 16800, Note_on_c, 0, 73, 88
2, 16859, Note_off_c, 0, 73, 0
2, 16860, Note_on_c, 0, 70, 88
2, 16919, Note_off_c, 0, 70, 0
2, 16920, Note_on_c, 0, 78, 88
2, 16979, Note_off_c, 0, 78, 0
2, 16980, Note_on_c, 0, 73, 88
2, 17039, Note_off_c, 0, 73, 0
2, 17040, Note_on_c, 0, 70, 88
2, 17099, Note_off_c, 0, 70, 0
2, 17100, Note_on_c, 0, 73, 88
2, 17159, Note_off_c, 0, 73, 0
2, 17160, Note_on_c, 0, 71, 88
2, 17219, Note_off_c, 0, 71, 0
2, 17220, Note_on_c, 0, 70, 88
2, 17279, Note_off_c, 0, 70, 0
2, 17280, Note_on_c, 0, 71, 88
2, 17339, Note_off_c, 0, 71, 0
2, 17340, Note_on_c, 0, 75, 88
2, 17399, Note_off_c, 0, 75, 0
2, 17400, Note_on_c, 0, 68, 88
2, 17459, Note_off_c, 0, 68, 0
2, 17460, Note_on_c, 0, 70, 88
2, 17519, Note_off_c, 0, 70, 0
2, 17520, Note_on_c, 0, 71, 88
2, 17579, Note_off_c, 0, 71, 0
2, 17580, Note_on_c, 0, 68, 88
2, 17639, Note_off_c, 0, 68, 0
2, 17640, Note_on_c, 0, 75, 88
2, 17699, Note_off_c, 0, 75, 0
2, 17700, Note_on_c, 0, 71, 88
2, 17759, Note_off_c, 0, 71, 0
2, 17760, Note_on_c, 0, 68, 88
2, 17819, Note_off_c, 0, 68, 0
2, 17820, Note_on_c, 0, 71, 88
2, 17879, Note_off_c, 0, 71, 0
2, 17880, Note_on_c, 0, 70, 88
2, 17939, Note_off_c, 0, 70, 0
2, 17940, Note_on_c, 0, 68, 88
2, 17999, Note_off_c, 0, 68, 0
2, 18000, Note_on_c, 0, 70, 88
2, 18179, Note_off_c, 0, 70, 0
2, 18180, Note_on_c, 0, 73, 88
2, 18239, Note_off_c, 0, 73, 0
2, 18240, Note_on_c, 0, 75, 88
2, 18262, Note_off_c, 0, 75, 0
2, 18263, Note_on_c, 0, 73, 88
2, 18284, Note_off_c, 0, 73, 0
2, 18285, Note_on_c, 0, 75, 88
2, 18307, Note_off_c, 0, 75, 0
2, 18308, Note_on_c, 0, 73, 88
2, 18329, Note_off_c, 0, 73, 0
2, 18330, Note_on_c, 0, 75, 88
2, 18352, Note_off_c, 0, 75, 0
2, 18353, Note_on_c, 0, 73, 88
2, 18374, Note_off_c, 0, 73, 0
2, 18375, Note_on_c, 0, 75, 88
2, 18397, Note_off_c, 0, 75, 0
2, 18398, Note_on_c, 0, 73, 88
2, 18419, Note_off_c, 0, 73, 0
2, 18420, Note_on_c, 0, 72, 88
2, 18449, Note_off_c, 0, 72, 0
2, 18450, Note_on_c, 0, 73, 88
2, 18479, Note_off_c, 0, 73, 0
2, 18480, Note_on_c, 0, 75, 88
2, 18502, Note_off_c, 0, 75, 0
2, 18503, Note_on_c, 0, 73, 88
2, 18524, Note_off_c, 0, 73, 0
2, 18525, Note_on_c, 0, 75, 88
2, 18547, Note_off_c, 0, 75, 0
2, 18548, Note_on_c, 0, 73, 88
2, 18569, Note_off_c, 0, 73, 0
2, 18570, Note_on_c, 0, 75, 88
2, 18592, Note_off_c, 0, 75, 0
2, 18593, Note_on_c, 0, 73, 88
2, 18614, Note_off_c, 0, 73, 0
2, 18615, Note_on_c, 0, 75, 88
2, 18637, Note_off_c, 0, 75, 0
2, 18638, Note_on_c, 0, 73, 88
2, 18659, Note_off_c, 0, 73, 0
2, 18660, Note_on_c, 0, 72, 88
2, 18689, Note_off_c, 0, 72, 0
2, 18690, Note_on_c, 0, 73, 88
2, 18719, Note_off_c, 0, 73, 0
2, 18720, Note_on_c, 0, 68, 88
2, 18899, Note_off_c, 0, 68, 0
2, 18900, Note_on_c, 0, 73, 88
2, 18959, Note_off_c, 0, 73, 0
2, 18960, Note_on_c, 0, 75, 88
2, 18982, Note_off_c, 0, 75, 0
2, 18983, Note_on_c, 0, 73, 88
2, 19004, Note_off_c, 0, 73, 0
2, 19005, Note_on_c, 0, 75, 88
2, 19027, Note_off_c, 0, 75, 0
2, 19028, Note_on_c, 0, 73, 88
2, 19049, Note_off_c, 0, 73, 0
2, 19050, Note_on_c, 0, 75, 88
2, 19072, Note_off_c, 0, 75, 0
2, 19073, Note_on_c, 0, 73, 88
2, 19094, Note_off_c, 0, 73, 0
2, 19095, Note_on_c, 0, 75, 88
2, 19117, Note_off_c, 0, 75, 0
2, 19118, Note_on_c, 0, 73, 88
2, 19139, Note_off_c, 0, 73, 0
2, 19140, Note_on_c, 0, 72, 88
2, 19169, Note_off_c, 0, 72, 0
2, 19170, Note_on_c, 0, 73, 88
2, 19199, Note_off_c, 0, 73, 0
2, 19200, Note_on_c, 0, 75, 88
2, 19222, Note_off_c, 0, 75, 0
2, 19223, Note_on_c, 0, 73, 88
2, 19244, Note_off_c, 0, 73, 0
2, 19245, Note_on_c, 0, 75, 88
2, 19267, Note_off_c, 0, 75, 0
2, 19268, Note_on_c, 0, 73, 88
2, 19289, Note_off_c, 0, 73, 0
2, 19290, Note_on_c, 0, 75, 88
2, 19312, Note_off_c, 0, 75, 0
2, 19313, Note_on_c, 0, 73, 88
2, 19334, Note_off_c, 0, 73, 0
2, 19335, Note_on_c, 0, 75, 88
2, 19357, Note_off_c, 0, 75, 0
2, 19358, Note_on_c, 0, 73, 88
2, 19379, Note_off_c, 0, 73, 0
2, 19380, Note_on_c, 0, 72, 88
2, 19409, Note_off_c, 0, 72, 0
2, 19410, Note_on_c, 0, 73, 88
2, 19439, Note_off_c, 0, 73, 0
2, 19440, Note_on_c, 0, 66, 88
2, 19619, Note_off_c, 0, 66, 0
2, 19620, Note_on_c, 0, 73, 88
2, 19679, Note_off_c, 0, 73, 0
2, 19680, Note_on_c, 0, 82, 88
2, 19859, Note_off_c, 0, 82, 0
2, 19860, Note_on_c, 0, 73, 88
2, 19919, Note_off_c, 0, 73, 0
2, 19920, Note_on_c, 0, 73, 88
2, 19943, Note_off_c, 0, 73, 0
2, 19944, Note_on_c, 0, 72, 88
2, 19968, Note_off_c, 0, 72, 0
2, 19969, Note_on_c, 0, 73, 88
2, 19992, Note_off_c, 0, 73, 0
2, 19993, Note_on_c, 0, 72, 88
2, 20017, Note_off_c, 0, 72, 0
2, 20018, Note_on_c, 0, 73, 88
2, 20041, Note_off_c, 0, 73, 0
2, 20042, Note_on_c, 0, 72, 88
2, 20099, Note_off_c, 0, 72, 0
2, 20100, Note_on_c, 0, 73, 88
2, 20159, Note_off_c, 0, 73, 0
2, 20160, Note_on_c, 0, 73, 88
2, 20549, Note_off_c, 0, 73, 0
2, 20550, Note_on_c, 0, 73, 88
2, 20579, Note_off_c, 0, 73, 0
2, 20580, Note_on_c, 0, 75, 88
2, 20609, Note_off_c, 0, 75, 0
2, 20610, Note_on_c, 0, 77, 88
2, 20639, Note_off_c, 0, 77, 0
2, 20640, Note_on_c, 0, 78, 88
2, 20662, Note_off_c, 0, 78, 0
2, 20663, Note_on_c, 0, 77, 88
2, 20684, Note_off_c, 0, 77, 0
2, 20685, Note_on_c, 0, 78, 88
2, 20707, Note_off_c, 0, 78, 0
2, 20708, Note_on_c, 0, 77, 88
2, 20729, Note_off_c, 0, 77, 0
2, 20730, Note_on_c, 0, 78, 88
2, 20752, Note_off_c, 0, 78, 0
2, 20753, Note_on_c, 0, 77, 88
2, 20774, Note_off_c, 0, 77, 0
2, 20775, Note_on_c, 0, 78, 88
2, 20797, Note_off_c, 0, 78, 0
2, 20798, Note_on_c, 0, 77, 88
2, 20819, Note_off_c, 0, 77, 0
2, 20820, Note_on_c, 0, 75, 88
2, 20849, Note_off_c, 0, 75, 0
2, 20850, Note_on_c, 0, 77, 88
2, 20879, Note_off_c, 0, 77, 0
2, 20880, Note_on_c, 0, 78, 88
2, 20939, Note_off_c, 0, 78, 0
2, 20940, Note_on_c, 0, 73, 88
2, 20999, Note_off_c, 0, 73, 0
2, 21000, Note_on_c, 0, 66, 88
2, 21059, Note_off_c, 0, 66, 0
2, 21060, Note_on_c, 0, 68, 88
2, 21119, Note_off_c, 0, 68, 0
2, 21120, Note_on_c, 0, 70, 88
2, 21179, Note_off_c, 0, 70, 0
2, 21180, Note_on_c, 0, 66, 88
2, 21239, Note_off_c, 0, 66, 0
2, 21240, Note_on_c, 0, 73, 88
2, 21299, Note_off_c, 0, 73, 0
2, 21300, Note_on_c, 0, 70, 88
2, 21359, Note_off_c, 0, 70, 0
2, 21360, Note_on_c, 0, 64, 88
2, 21419, Note_off_c, 0, 64, 0
2, 21420, Note_on_c, 0, 68, 88
2, 21479, Note_off_c, 0, 68, 0
2, 21480, Note_on_c, 0, 66, 88
2, 21539, Note_off_c, 0, 66, 0
2, 21540, Note_on_c, 0, 64, 88
2, 21599, Note_off_c, 0, 64, 0
2, 21600, Note_on_c, 0, 63, 88
2, 21989, Note_off_c, 0, 63, 0
2, 21990, Note_on_c, 0, 75, 88
2, 22019, Note_off_c, 0, 75, 0
2, 22020, Note_on_c, 0, 74, 88
2, 22049, Note_off_c, 0, 74, 0
2, 22050, Note_on_c, 0, 75, 88
2, 22079, Note_off_c, 0, 75, 0
2, 22080, Note_on_c, 0, 77, 88
2, 22102, Note_off_c, 0, 77, 0
2, 22103, Note_on_c, 0, 75, 88
2, 22124, Note_off_c, 0, 75, 0
2, 22125, Note_on_c, 0, 77, 88
2, 22147, Note_off_c, 0, 77, 0
2, 22148, Note_on_c, 0, 75, 88
2, 22169, Note_off_c, 0, 75, 0
2, 22170, Note_on_c, 0, 77, 88
2, 22192, Note_off_c, 0, 77, 0
2, 22193, Note_on_c, 0, 75, 88
2, 22214, Note_off_c, 0, 75, 0
2, 22215, Note_on_c, 0, 77, 88
2, 22237, Note_off_c, 0, 77, 0
2, 22238, Note_on_c, 0, 75, 88
2, 22259, Note_off_c, 0, 75, 0
2, 22260, Note_on_c, 0, 74, 88
2, 22289, Note_off_c, 0, 74, 0
2, 22290, Note_on_c, 0, 75, 88
2, 22319, Note_off_c, 0, 75, 0
2, 22320, Note_on_c, 0, 77, 88
2, 22379, Note_off_c, 0, 77, 0
2, 22380, Note_on_c, 0, 71, 88
2, 22439, Note_off_c, 0, 71, 0
2, 22440, Note_on_c, 0, 65, 88
2, 22499, Note_off_c, 0, 65, 0
2, 22500, Note_on_c, 0, 66, 88
2, 22559, Note_off_c, 0, 66, 0
2, 22560, Note_on_c, 0, 68, 88
2, 22619, Note_off_c, 0, 68, 0
2, 22620, Note_on_c, 0, 65, 88
2, 22679, Note_off_c, 0, 65, 0
2, 22680, Note_on_c, 0, 71, 88
2, 22739, Note_off_c, 0, 71, 0
2, 22740, Note_on_c, 0, 68, 88
2, 22799, Note_off_c, 0, 68, 0
2, 22800, Note_on_c, 0, 63, 88
2, 22859, Note_off_c, 0, 63, 0
2, 22860, Note_on_c, 0, 66, 88
2, 22919, Note_off_c, 0, 66, 0
2, 22920, Note_on_c, 0, 65, 88
2, 22979, Note_off_c, 0, 65, 0
2, 22980, Note_on_c, 0, 63, 88
2, 23039, Note_off_c, 0, 63, 0
2, 23040, Note_on_c, 0, 62, 88
2, 23219, Note_off_c, 0, 62, 0
2, 23220, Note_on_c, 0, 63, 88
2, 23249, Note_off_c, 0, 63, 0
2, 23250, Note_on_c, 0, 65, 88
2, 23279, Note_off_c, 0, 65, 0
2, 23280, Note_on_c, 0, 58, 88
2, 23579, Note_off_c, 0, 58, 0
2, 23580, Note_on_c, 0, 68, 88
2, 23639, Note_off_c, 0, 68, 0
2, 23640, Note_on_c, 0, 66, 88
2, 23699, Note_off_c, 0, 66, 0
2, 23700, Note_on_c, 0, 65, 88
2, 23759, Note_off_c, 0, 65, 0
2, 23760, Note_on_c, 0, 63, 88
2, 23819, Note_off_c, 0, 63, 0
2, 23820, Note_on_c, 0, 66, 88
2, 23879, Note_off_c, 0, 66, 0
2, 23880, Note_on_c, 0, 70, 88
2, 23939, Note_off_c, 0, 70, 0
2, 23940, Note_on_c, 0, 66, 88
2, 23999, Note_off_c, 0, 66, 0
2, 24000, Note_on_c, 0, 75, 88
2, 24059, Note_off_c, 0, 75, 0
2, 24060, Note_on_c, 0, 70, 88
2, 24119, Note_off_c, 0, 70, 0
2, 24120, Note_on_c, 0, 78, 88
2, 24179, Note_off_c, 0, 78, 0
2, 24180, Note_on_c, 0, 75, 88
2, 24239, Note_off_c, 0, 75, 0
2, 24240, Note_on_c, 0, 70, 88
2, 24299, Note_off_c, 0, 70, 0
2, 24300, Note_on_c, 0, 75, 88
2, 24359, Note_off_c, 0, 75, 0
2, 24360, Note_on_c, 0, 74, 88
2, 24419, Note_off_c, 0, 74, 0
2, 24420, Note_on_c, 0, 72, 88
2, 24479, Note_off_c, 0, 72, 0
2, 24480, Note_on_c, 0, 74, 88
2, 24539, Note_off_c, 0, 74, 0
2, 24540, Note_on_c, 0, 77, 88
2, 24599, Note_off_c, 0, 77, 0
2, 24600, Note_on_c, 0, 70, 88
2, 24659, Note_off_c, 0, 70, 0
2, 24660, Note_on_c, 0, 72, 88
2, 24719, Note_off_c, 0, 72, 0
2, 24720, Note_on_c, 0, 74, 88
2, 24779, Note_off_c, 0, 74, 0
2, 24780, Note_on_c, 0, 70, 88
2, 24839, Note_off_c, 0, 70, 0
2, 24840, Note_on_c, 0, 80, 88
2, 24899, Note_off_c, 0, 80, 0
2, 24900, Note_on_c, 0, 77, 88
2, 24959, Note_off_c, 0, 77, 0
2, 24960, Note_on_c, 0, 74, 88
2, 25019, Note_off_c, 0, 74, 0
2, 25020, Note_on_c, 0, 83, 88
2, 25079, Note_off_c, 0, 83, 0
2, 25080, Note_on_c, 0, 82, 88
2, 25139, Note_off_c, 0, 82, 0
2, 25140, Note_on_c, 0, 80, 88
2, 25199, Note_off_c, 0, 80, 0
2, 25200, Note_on_c, 0, 78, 88
2, 25259, Note_off_c, 0, 78, 0
2, 25260, Note_on_c, 0, 82, 88
2, 25319, Note_off_c, 0, 82, 0
2, 25320, Note_on_c, 0, 75, 88
2, 25379, Note_off_c, 0, 75, 0
2, 25380, Note_on_c, 0, 77, 88
2, 25439, Note_off_c, 0, 77, 0
2, 25440, Note_on_c, 0, 78, 88
2, 25499, Note_off_c, 0, 78, 0
2, 25500, Note_on_c, 0, 75, 88
2, 25559, Note_off_c, 0, 75, 0
2, 25560, Note_on_c, 0, 82, 88
2, 25619, Note_off_c, 0, 82, 0
2, 25620, Note_on_c, 0, 78, 88
2, 25679, Note_off_c, 0, 78, 0
2, 25680, Note_on_c, 0, 75, 88
2, 25739, Note_off_c, 0, 75, 0
2, 25740, Note_on_c, 0, 78, 88
2, 25799, Note_off_c, 0, 78, 0
2, 25800, Note_on_c, 0, 77, 88
2, 25859, Note_off_c, 0, 77, 0
2, 25860, Note_on_c, 0, 75, 88
2, 25919, Note_off_c, 0, 75, 0
2, 25920, Note_on_c, 0, 77, 88
2, 25979, Note_off_c, 0, 77, 0
2, 25980, Note_on_c, 0, 82, 88
2, 26039, Note_off_c, 0, 82, 0
2, 26040, Note_on_c, 0, 70, 88
2, 26099, Note_off_c, 0, 70, 0
2, 26100, Note_on_c, 0, 72, 88
2, 26159, Note_off_c, 0, 72, 0
2, 26160, Note_on_c, 0, 74, 88
2, 26219, Note_off_c, 0, 74, 0
2, 26220, Note_on_c, 0, 70, 88
2, 26279, Note_off_c, 0, 70, 0
2, 26280, Note_on_c, 0, 77, 88
2, 26339, Note_off_c, 0, 77, 0
2, 26340, Note_on_c, 0, 74, 88
2, 26399, Note_off_c, 0, 74, 0
2, 26400, Note_on_c, 0, 70, 88
2, 26459, Note_off_c, 0, 70, 0
2, 26460, Note_on_c, 0, 80, 88
2, 26519, Note_off_c, 0, 80, 0
2, 26520, Note_on_c, 0, 78, 88
2, 26579, Note_off_c, 0, 78, 0
2, 26580, Note_on_c, 0, 77, 88
2, 26639, Note_off_c, 0, 77, 0
2, 26640, Note_on_c, 0, 78, 88
2, 26819, Note_off_c, 0, 78, 0
2, 26820, Note_on_c, 0, 74, 88
2, 26879, Note_off_c, 0, 74, 0
2, 26880, Note_on_c, 0, 75, 88
2, 27029, Note_off_c, 0, 75, 0
2, 27030, Note_on_c, 0, 66, 88
2, 27059, Note_off_c, 0, 66, 0
2, 27060, Note_on_c, 0, 65, 88
2, 27089, Note_off_c, 0, 65, 0
2, 27090, Note_on_c, 0, 63, 88
2, 27119, Note_off_c, 0, 63, 0
2, 27120, Note_on_c, 0, 70, 88
2, 27142, Note_off_c, 0, 70, 0
2, 27143, Note_on_c, 0, 69, 88
2, 27164, Note_off_c, 0, 69, 0
2, 27165, Note_on_c, 0, 70, 88
2, 27187, Note_off_c, 0, 70, 0
2, 27188, Note_on_c, 0, 69, 88
2, 27209, Note_off_c, 0, 69, 0
2, 27210, Note_on_c, 0, 70, 88
2, 27232, Note_off_c, 0, 70, 0
2, 27233, Note_on_c, 0, 69, 88
2, 27254, Note_off_c, 0, 69, 0
2, 27255, Note_on_c, 0, 70, 88
2, 27277, Note_off_c, 0, 70, 0
2, 27278, Note_on_c, 0, 69, 88
2, 27299, Note_off_c, 0, 69, 0
2, 27300, Note_on_c, 0, 67, 88
2, 27329, Note_off_c, 0, 67, 0
2, 27330, Note_on_c, 0, 69, 88
2, 27359, Note_off_c, 0, 69, 0
2, 27360, Note_on_c, 0, 70, 88
2, 27419, Note_off_c, 0, 70, 0
2, 27420, Note_on_c, 0, 65, 88
2, 27479, Note_off_c, 0, 65, 0
2, 27480, Note_on_c, 0, 70, 88
2, 27539, Note_off_c, 0, 70, 0
2, 27540, Note_on_c, 0, 72, 88
2, 27599, Note_off_c, 0, 72, 0
2, 27600, Note_on_c, 0, 73, 88
2, 27659, Note_off_c, 0, 73, 0
2, 27660, Note_on_c, 0, 70, 88
2, 27719, Note_off_c, 0, 70, 0
2, 27720, Note_on_c, 0, 77, 88
2, 27779, Note_off_c, 0, 77, 0
2, 27780, Note_on_c, 0, 73, 88
2, 27839, Note_off_c, 0, 73, 0
2, 27840, Note_on_c, 0, 82, 88
2, 27899, Note_off_c, 0, 82, 0
2, 27900, Note_on_c, 0, 80, 88
2, 27959, Note_off_c, 0, 80, 0
2, 27960, Note_on_c, 0, 78, 88
2, 28019, Note_off_c, 0, 78, 0
2, 28020, Note_on_c, 0, 77, 88
2, 28079, Note_off_c, 0, 77, 0
2, 28080, Note_on_c, 0, 75, 88
2, 28139, Note_off_c, 0, 75, 0
2, 28140, Note_on_c, 0, 74, 88
2, 28199, Note_off_c, 0, 74, 0
2, 28200, Note_on_c, 0, 75, 88
2, 28469, Note_off_c, 0, 75, 0
2, 28470, Note_on_c, 0, 75, 88
2, 28499, Note_off_c, 0, 75, 0
2, 28500, Note_on_c, 0, 77, 88
2, 28529, Note_off_c, 0, 77, 0
2, 28530, Note_on_c, 0, 79, 88
2, 28559, Note_off_c, 0, 79, 0
2, 28560, Note_on_c, 0, 80, 88
2, 28739, Note_off_c, 0, 80, 0
2, 28740, Note_on_c, 0, 80, 88
2, 28799, Note_off_c, 0, 80, 0
2, 28800, Note_on_c, 0, 80, 88
2, 28859, Note_off_c, 0, 80, 0
2, 28860, Note_on_c, 0, 77, 88
2, 28919, Note_off_c, 0, 77, 0
2, 28920, Note_on_c, 0, 74, 88
2, 28979, Note_off_c, 0, 74, 0
2, 28980, Note_on_c, 0, 75, 88
2, 29039, Note_off_c, 0, 75, 0
2, 29040, Note_on_c, 0, 77, 88
2, 29099, Note_off_c, 0, 77, 0
2, 29100, Note_on_c, 0, 74, 88
2, 29159, Note_off_c, 0, 74, 0
2, 29160, Note_on_c, 0, 68, 88
2, 29219, Note_off_c, 0, 68, 0
2, 29220, Note_on_c, 0, 71, 88
2, 29279, Note_off_c, 0, 71, 0
2, 29280, Note_on_c, 0, 63, 88
2, 29350, Note_off_c, 0, 63, 0
2, 29351, Note_on_c, 0, 62, 88
2, 29459, Note_off_c, 0, 62, 0
2, 29460, Note_on_c, 0, 71, 88
2, 29519, Note_off_c, 0, 71, 0
2, 29520, Note_on_c, 0, 70, 88
2, 29669, Note_off_c, 0, 70, 0
2, 29670, Note_on_c, 0, 68, 88
2, 29699, Note_off_c, 0, 68, 0
2, 29700, Note_on_c, 0, 66, 88
2, 29729, Note_off_c, 0, 66, 0
2, 29730, Note_on_c, 0, 65, 88
2, 29759, Note_off_c, 0, 65, 0
2, 29760, Note_on_c, 0, 63, 88
2, 30179, Note_off_c, 0, 63, 0
2, 30180, Note_on_c, 0, 75, 88
2, 30239, Note_off_c, 0, 75, 0
2, 30240, Note_on_c, 0, 75, 88
2, 30299, Note_off_c, 0, 75, 0
2, 30300, Note_on_c, 0, 74, 88
2, 30389, Note_off_c, 0, 74, 0
2, 30390, Note_on_c, 0, 75, 88
2, 30419, Note_off_c, 0, 75, 0
2, 30420, Note_on_c, 0, 77, 88
2, 30449, Note_off_c, 0, 77, 0
2, 30450, Note_on_c, 0, 78, 88
2, 30479, Note_off_c, 0, 78, 0
2, 30480, Note_on_c, 0, 80, 88
2, 30899, Note_off_c, 0, 80, 0
2, 30900, Note_on_c, 0, 82, 88
2, 30959, Note_off_c, 0, 82, 0
2, 30960, Note_on_c, 0, 80, 88
2, 31030, Note_off_c, 0, 80, 0
2, 31031, Note_on_c, 0, 78, 88
2, 31139, Note_off_c, 0, 78, 0
2, 31140, Note_on_c, 0, 77, 88
2, 31199, Note_off_c, 0, 77, 0
2, 31200, Note_on_c, 0, 75, 88
2, 31259, Note_off_c, 0, 75, 0
2, 31260, Note_on_c, 0, 74, 88
2, 31283, Note_off_c, 0, 74, 0
2, 31284, Note_on_c, 0, 75, 88
2, 31306, Note_off_c, 0, 75, 0
2, 31307, Note_on_c, 0, 74, 88
2, 31328, Note_off_c, 0, 74, 0
2, 31329, Note_on_c, 0, 75, 88
2, 31351, Note_off_c, 0, 75, 0
2, 31352, Note_on_c, 0, 74, 88
2, 31373, Note_off_c, 0, 74, 0
2, 31374, Note_on_c, 0, 75, 88
2, 31396, Note_off_c, 0, 75, 0
2, 31397, Note_on_c, 0, 74, 88
2, 31418, Note_off_c, 0, 74, 0
2, 31419, Note_on_c, 0, 75, 88
2, 31441, Note_off_c, 0, 75, 0
2, 31442, Note_on_c, 0, 74, 88
2, 31559, Note_off_c, 0, 74, 0
2, 31560, Note_on_c, 0, 75, 88
2, 31679, Note_off_c, 0, 75, 0
2, 31680, Note_on_c, 0, 75, 88
2, 31739, Note_off_c, 0, 75, 0
2, 31740, Note_on_c, 0, 70, 88
2, 31799, Note_off_c, 0, 70, 0
2, 31800, Note_on_c, 0, 66, 88
2, 31859, Note_off_c, 0, 66, 0
2, 31860, Note_on_c, 0, 68, 88
2, 31919, Note_off_c, 0, 68, 0
2, 31920, Note_on_c, 0, 70, 88
2, 31979, Note_off_c, 0, 70, 0
2, 31980, Note_on_c, 0, 66, 88
2, 32039, Note_off_c, 0, 66, 0
2, 32040, Note_on_c, 0, 75, 88
2, 32099, Note_off_c, 0, 75, 0
2, 32100, Note_on_c, 0, 70, 88
2, 32159, Note_off_c, 0, 70, 0
2, 32160, Note_on_c, 0, 66, 88
2, 32219, Note_off_c, 0, 66, 0
2, 32220, Note_on_c, 0, 68, 88
2, 32279, Note_off_c, 0, 68, 0
2, 32280, Note_on_c, 0, 66, 88
2, 32339, Note_off_c, 0, 66, 0
2, 32340, Note_on_c, 0, 65, 88
2, 32399, Note_off_c, 0, 65, 0
2, 32400, Note_on_c, 0, 67, 88
2, 32459, Note_off_c, 0, 67, 0
2, 32460, Note_on_c, 0, 75, 88
2, 32519, Note_off_c, 0, 75, 0
2, 32520, Note_on_c, 0, 67, 88
2, 32579, Note_off_c, 0, 67, 0
2, 32580, Note_on_c, 0, 68, 88
2, 32639, Note_off_c, 0, 68, 0
2, 32640, Note_on_c, 0, 70, 88
2, 32699, Note_off_c, 0, 70, 0
2, 32700, Note_on_c, 0, 67, 88
2, 32759, Note_off_c, 0, 67, 0
2, 32760, Note_on_c, 0, 75, 88
2, 32819, Note_off_c, 0, 75, 0
2, 32820, Note_on_c, 0, 70, 88
2, 32879, Note_off_c, 0, 70, 0
2, 32880, Note_on_c, 0, 67, 88
2, 32939, Note_off_c, 0, 67, 0
2, 32940, Note_on_c, 0, 70, 88
2, 32999, Note_off_c, 0, 70, 0
2, 33000, Note_on_c, 0, 68, 88
2, 33059, Note_off_c, 0, 68, 0
2, 33060, Note_on_c, 0, 67, 88
2, 33119, Note_off_c, 0, 67, 0
2, 33120, Note_on_c, 0, 68, 88
2, 33179, Note_off_c, 0, 68, 0
2, 33180, Note_on_c, 0, 75, 88
2, 33239, Note_off_c, 0, 75, 0
2, 33240, Note_on_c, 0, 68, 88
2, 33299, Note_off_c, 0, 68, 0
2, 33300, Note_on_c, 0, 70, 88
2, 33359, Note_off_c, 0, 70, 0
2, 33360, Note_on_c, 0, 71, 88
2, 33419, Note_off_c, 0, 71, 0
2, 33420, Note_on_c, 0, 68, 88
2, 33479, Note_off_c, 0, 68, 0
2, 33480, Note_on_c, 0, 75, 88
2, 33539, Note_off_c, 0, 75, 0
2, 33540, Note_on_c, 0, 71, 88
2, 33599, Note_off_c, 0, 71, 0
2, 33600, Note_on_c, 0, 68, 88
2, 33659, Note_off_c, 0, 68, 0
2, 33660, Note_on_c, 0, 71, 88
2, 33719, Note_off_c, 0, 71, 0
2, 33720, Note_on_c, 0, 70, 88
2, 33779, Note_off_c, 0, 70, 0
2, 33780, Note_on_c, 0, 68, 88
2, 33839, Note_off_c, 0, 68, 0
2, 33840, Note_on_c, 0, 70, 88
2, 33899, Note_off_c, 0, 70, 0
2, 33900, Note_on_c, 0, 75, 88
2, 33959, Note_off_c, 0, 75, 0
2, 33960, Note_on_c, 0, 70, 88
2, 34019, Note_off_c, 0, 70, 0
2, 34020, Note_on_c, 0, 71, 88
2, 34079, Note_off_c, 0, 71, 0
2, 34080, Note_on_c, 0, 73, 88
2, 34139, Note_off_c, 0, 73, 0
2, 34140, Note_on_c, 0, 70, 88
2, 34199, Note_off_c, 0, 70, 0
2, 34200, Note_on_c, 0, 76, 88
2, 34259, Note_off_c, 0, 76, 0
2, 34260, Note_on_c, 0, 73, 88
2, 34319, Note_off_c, 0, 73, 0
2, 34320, Note_on_c, 0, 70, 88
2, 34379, Note_off_c, 0, 70, 0
2, 34380, Note_on_c, 0, 73, 88
2, 34439, Note_off_c, 0, 73, 0
2, 34440, Note_on_c, 0, 71, 88
2, 34499, Note_off_c, 0, 71, 0
2, 34500, Note_on_c, 0, 70, 88
2, 34559, Note_off_c, 0, 70, 0
2, 34560, Note_on_c, 0, 71, 88
2, 34739, Note_off_c, 0, 71, 0
2, 34740, Note_on_c, 0, 67, 88
2, 34799, Note_off_c, 0, 67, 0
2, 34800, Note_on_c, 0, 68, 88
2, 34979, Note_off_c, 0, 68, 0
2, 34980, Note_on_c, 0, 71, 88
2, 35039, Note_off_c, 0, 71, 0
2, 35040, Note_on_c, 0, 75, 88
2, 35189, Note_off_c, 0, 75, 0
2, 35190, Note_on_c, 0, 80, 88
2, 35219, Note_off_c, 0, 80, 0
2, 35220, Note_on_c, 0, 78, 88
2, 35249, Note_off_c, 0, 78, 0
2, 35250, Note_on_c, 0, 77, 88
2, 35279, Note_off_c, 0, 77, 0
2, 35280, Note_on_c, 0, 78, 88
2, 35459, Note_off_c, 0, 78, 0
2, 35460, Note_on_c, 0, 67, 88
2, 35519, Note_off_c, 0, 67, 0
2, 35520, Note_on_c, 0, 68, 88
2, 35699, Note_off_c, 0, 68, 0
2, 35700, Note_on_c, 0, 72, 88
2, 35759, Note_off_c, 0, 72, 0
2, 35760, Note_on_c, 0, 75, 88
2, 35909, Note_off_c, 0, 75, 0
2, 35910, Note_on_c, 0, 78, 88
2, 35939, Note_off_c, 0, 78, 0
2, 35940, Note_on_c, 0, 77, 88
2, 35969, Note_off_c, 0, 77, 0
2, 35970, Note_on_c, 0, 75, 88
2, 35999, Note_off_c, 0, 75, 0
2, 36000, Note_on_c, 0, 77, 88
2, 36179, Note_off_c, 0, 77, 0
2, 36180, Note_on_c, 0, 67, 88
2, 36239, Note_off_c, 0, 67, 0
2, 36240, Note_on_c, 0, 68, 88
2, 36419, Note_off_c, 0, 68, 0
2, 36420, Note_on_c, 0, 73, 88
2, 36479, Note_off_c, 0, 73, 0
2, 36480, Note_on_c, 0, 77, 88
2, 36629, Note_off_c, 0, 77, 0
2, 36630, Note_on_c, 0, 68, 88
2, 36659, Note_off_c, 0, 68, 0
2, 36660, Note_on_c, 0, 66, 88
2, 36689, Note_off_c, 0, 66, 0
2, 36690, Note_on_c, 0, 65, 88
2, 36719, Note_off_c, 0, 65, 0
2, 36720, Note_on_c, 0, 66, 88
2, 36899, Note_off_c, 0, 66, 0
2, 36900, Note_on_c, 0, 70, 88
2, 36959, Note_off_c, 0, 70, 0
2, 36960, Note_on_c, 0, 63, 88
2, 37139, Note_off_c, 0, 63, 0
2, 37140, Note_on_c, 0, 73, 88
2, 37199, Note_off_c, 0, 73, 0
2, 37200, Note_on_c, 0, 73, 88
2, 37222, Note_off_c, 0, 73, 0
2, 37223, Note_on_c, 0, 72, 88
2, 37244, Note_off_c, 0, 72, 0
2, 37245, Note_on_c, 0, 73, 88
2, 37267, Note_off_c, 0, 73, 0
2, 37268, Note_on_c, 0, 72, 88
2, 37289, Note_off_c, 0, 72, 0
2, 37290, Note_on_c, 0, 73, 88
2, 37312, Note_off_c, 0, 73, 0
2, 37313, Note_on_c, 0, 72, 88
2, 37334, Note_off_c, 0, 72, 0
2, 37335, Note_on_c, 0, 73, 88
2, 37357, Note_off_c, 0, 73, 0
2, 37358, Note_on_c, 0, 72, 88
2, 37379, Note_off_c, 0, 72, 0
2, 37380, Note_on_c, 0, 70, 88
2, 37409, Note_off_c, 0, 70, 0
2, 37410, Note_on_c, 0, 72, 88
2, 37439, Note_off_c, 0, 72, 0
2, 37440, Note_on_c, 0, 73, 88
2, 37499, Note_off_c, 0, 73, 0
2, 37500, Note_on_c, 0, 68, 88
2, 37559, Note_off_c, 0, 68, 0
2, 37560, Note_on_c, 0, 65, 88
2, 37619, Note_off_c, 0, 65, 0
2, 37620, Note_on_c, 0, 66, 88
2, 37679, Note_off_c, 0, 66, 0
2, 37680, Note_on_c, 0, 68, 88
2, 37739, Note_off_c, 0, 68, 0
2, 37740, Note_on_c, 0, 65, 88
2, 37799, Note_off_c, 0, 65, 0
2, 37800, Note_on_c, 0, 73, 88
2, 37859, Note_off_c, 0, 73, 0
2, 37860, Note_on_c, 0, 68, 88
2, 37919, Note_off_c, 0, 68, 0
2, 37920, Note_on_c, 0, 65, 88
2, 37979, Note_off_c, 0, 65, 0
2, 37980, Note_on_c, 0, 66, 88
2, 38039, Note_off_c, 0, 66, 0
2, 38040, Note_on_c, 0, 65, 88
2, 38099, Note_off_c, 0, 65, 0
2, 38100, Note_on_c, 0, 63, 88
2, 38159, Note_off_c, 0, 63, 0
2, 38160, Note_on_c, 0, 61, 88
2, 38219, Note_off_c, 0, 61, 0
2, 38220, Note_on_c, 0, 68, 88
2, 38279, Note_off_c, 0, 68, 0
2, 38280, Note_on_c, 0, 65, 88
2, 38339, Note_off_c, 0, 65, 0
2, 38340, Note_on_c, 0, 66, 88
2, 38399, Note_off_c, 0, 66, 0
2, 38400, Note_on_c, 0, 68, 88
2, 38459, Note_off_c, 0, 68, 0
2, 38460, Note_on_c, 0, 65, 88
2, 38519, Note_off_c, 0, 65, 0
2, 38520, Note_on_c, 0, 73, 88
2, 38579, Note_off_c, 0, 73, 0
2, 38580, Note_on_c, 0, 68, 88
2, 38639, Note_off_c, 0, 68, 0
2, 38640, Note_on_c, 0, 65, 88
2, 38699, Note_off_c, 0, 65, 0
2, 38700, Note_on_c, 0, 68, 88
2, 38759, Note_off_c, 0, 68, 0
2, 38760, Note_on_c, 0, 66, 88
2, 38819, Note_off_c, 0, 66, 0
2, 38820, Note_on_c, 0, 65, 88
2, 38879, Note_off_c, 0, 65, 0
2, 38880, Note_on_c, 0, 66, 88
2, 38939, Note_off_c, 0, 66, 0
2, 38940, Note_on_c, 0, 73, 88
2, 38999, Note_off_c, 0, 73, 0
2, 39000, Note_on_c, 0, 66, 88
2, 39059, Note_off_c, 0, 66, 0
2, 39060, Note_on_c, 0, 68, 88
2, 39119, Note_off_c, 0, 68, 0
2, 39120, Note_on_c, 0, 70, 88
2, 39179, Note_off_c, 0, 70, 0
2, 39180, Note_on_c, 0, 66, 88
2, 39239, Note_off_c, 0, 66, 0
2, 39240, Note_on_c, 0, 73, 88
2, 39299, Note_off_c, 0, 73, 0
2, 39300, Note_on_c, 0, 70, 88
2, 39359, Note_off_c, 0, 70, 0
2, 39360, Note_on_c, 0, 66, 88
2, 39419, Note_off_c, 0, 66, 0
2, 39420, Note_on_c, 0, 70, 88
2, 39479, Note_off_c, 0, 70, 0
2, 39480, Note_on_c, 0, 68, 88
2, 39539, Note_off_c, 0, 68, 0
2, 39540, Note_on_c, 0, 66, 88
2, 39599, Note_off_c, 0, 66, 0
2, 39600, Note_on_c, 0, 68, 88
2, 39659, Note_off_c, 0, 68, 0
2, 39660, Note_on_c, 0, 73, 88
2, 39719, Note_off_c, 0, 73, 0
2, 39720, Note_on_c, 0, 68, 88
2, 39779, Note_off_c, 0, 68, 0
2, 39780, Note_on_c, 0, 70, 88
2, 39839, Note_off_c, 0, 70, 0
2, 39840, Note_on_c, 0, 71, 88
2, 39899, Note_off_c, 0, 71, 0
2, 39900, Note_on_c, 0, 68, 88
2, 39959, Note_off_c, 0, 68, 0
2, 39960, Note_on_c, 0, 75, 88
2, 40019, Note_off_c, 0, 75, 0
2, 40020, Note_on_c, 0, 71, 88
2, 40079, Note_off_c, 0, 71, 0
2, 40080, Note_on_c, 0, 68, 88
2, 40139, Note_off_c, 0, 68, 0
2, 40140, Note_on_c, 0, 71, 88
2, 40199, Note_off_c, 0, 71, 0
2, 40200, Note_on_c, 0, 70, 88
2, 40259, Note_off_c, 0, 70, 0
2, 40260, Note_on_c, 0, 68, 88
2, 40319, Note_off_c, 0, 68, 0
2, 40320, Note_on_c, 0, 70, 88
2, 40379, Note_off_c, 0, 70, 0
2, 40380, Note_on_c, 0, 73, 88
2, 40409, Note_off_c, 0, 73, 0
2, 40410, Note_on_c, 0, 71, 88
2, 40439, Note_off_c, 0, 71, 0
2, 40440, Note_on_c, 0, 70, 88
2, 40469, Note_off_c, 0, 70, 0
2, 40470, Note_on_c, 0, 68, 88
2, 40499, Note_off_c, 0, 68, 0
2, 40500, Note_on_c, 0, 66, 88
2, 40529, Note_off_c, 0, 66, 0
2, 40530, Note_on_c, 0, 65, 88
2, 40559, Note_off_c, 0, 65, 0
2, 40560, Note_on_c, 0, 66, 88
2, 40979, Note_off_c, 0, 66, 0
2, 40980, Note_on_c, 0, 78, 88
2, 41039, Note_off_c, 0, 78, 0
2, 41040, Note_on_c, 0, 77, 88
2, 41219, Note_off_c, 0, 77, 0
2, 41220, Note_on_c, 0, 78, 88
2, 41249, Note_off_c, 0, 78, 0
2, 41250, Note_on_c, 0, 80, 88
2, 41279, Note_off_c, 0, 80, 0
2, 41280, Note_on_c, 0, 73, 88
2, 41699, Note_off_c, 0, 73, 0
2, 41700, Note_on_c, 0, 78, 88
2, 41759, Note_off_c, 0, 78, 0
2, 41760, Note_on_c, 0, 71, 88
2, 41939, Note_off_c, 0, 71, 0
2, 41940, Note_on_c, 0, 75, 88
2, 41999, Note_off_c, 0, 75, 0
2, 42000, Note_on_c, 0, 68, 88
2, 42179, Note_off_c, 0, 68, 0
2, 42180, Note_on_c, 0, 71, 88
2, 42239, Note_off_c, 0, 71, 0
2, 42240, Note_on_c, 0, 65, 88
2, 42419, Note_off_c, 0, 65, 0
2, 42420, Note_on_c, 0, 73, 88
2, 42479, Note_off_c, 0, 73, 0
2, 42480, Note_on_c, 0, 70, 88
2, 42539, Note_off_c, 0, 70, 0
2, 42540, Note_on_c, 0, 73, 88
2, 42599, Note_off_c, 0, 73, 0
2, 42600, Note_on_c, 0, 66, 88
2, 42659, Note_off_c, 0, 66, 0
2, 42660, Note_on_c, 0, 68, 88
2, 42719, Note_off_c, 0, 68, 0
2, 42720, Note_on_c, 0, 70, 88
2, 42779, Note_off_c, 0, 70, 0
2, 42780, Note_on_c, 0, 66, 88
2, 42839, Note_off_c, 0, 66, 0
2, 42840, Note_on_c, 0, 73, 88
2, 42899, Note_off_c, 0, 73, 0
2, 42900, Note_on_c, 0, 70, 88
2, 42959, Note_off_c, 0, 70, 0
2, 42960, Note_on_c, 0, 66, 88
2, 43019, Note_off_c, 0, 66, 0
2, 43020, Note_on_c, 0, 76, 88
2, 43079, Note_off_c, 0, 76, 0
2, 43080, Note_on_c, 0, 75, 88
2, 43139, Note_off_c, 0, 75, 0
2, 43140, Note_on_c, 0, 73, 88
2, 43199, Note_off_c, 0, 73, 0
2, 43200, Note_on_c, 0, 75, 88
2, 43259, Note_off_c, 0, 75, 0
2, 43260, Note_on_c, 0, 78, 88
2, 43319, Note_off_c, 0, 78, 0
2, 43320, Note_on_c, 0, 71, 88
2, 43379, Note_off_c, 0, 71, 0
2, 43380, Note_on_c, 0, 73, 88
2, 43439, Note_off_c, 0, 73, 0
2, 43440, Note_on_c, 0, 75, 88
2, 43499, Note_off_c, 0, 75, 0
2, 43500, Note_on_c, 0, 71, 88
2, 43559, Note_off_c, 0, 71, 0
2, 43560, Note_on_c, 0, 78, 88
2, 43619, Note_off_c, 0, 78, 0
2, 43620, Note_on_c, 0, 75, 88
2, 43679, Note_off_c, 0, 75, 0
2, 43680, Note_on_c, 0, 70, 88
2, 43739, Note_off_c, 0, 70, 0
2, 43740, Note_on_c, 0, 73, 88
2, 43799, Note_off_c, 0, 73, 0
2, 43800, Note_on_c, 0, 71, 88
2, 43859, Note_off_c, 0, 71, 0
2, 43860, Note_on_c, 0, 70, 88
2, 43919, Note_off_c, 0, 70, 0
2, 43920, Note_on_c, 0, 68, 88
2, 43979, Note_off_c, 0, 68, 0
2, 43980, Note_on_c, 0, 75, 88
2, 44039, Note_off_c, 0, 75, 0
2, 44040, Note_on_c, 0, 68, 88
2, 44099, Note_off_c, 0, 68, 0
2, 44100, Note_on_c, 0, 70, 88
2, 44159, Note_off_c, 0, 70, 0
2, 44160, Note_on_c, 0, 72, 88
2, 44219, Note_off_c, 0, 72, 0
2, 44220, Note_on_c, 0, 68, 88
2, 44279, Note_off_c, 0, 68, 0
2, 44280, Note_on_c, 0, 75, 88
2, 44339, Note_off_c, 0, 75, 0
2, 44340, Note_on_c, 0, 72, 88
2, 44399, Note_off_c, 0, 72, 0
2, 44400, Note_on_c, 0, 68, 88
2, 44459, Note_off_c, 0, 68, 0
2, 44460, Note_on_c, 0, 78, 88
2, 44519, Note_off_c, 0, 78, 0
2, 44520, Note_on_c, 0, 77, 88
2, 44579, Note_off_c, 0, 77, 0
2, 44580, Note_on_c, 0, 75, 88
2, 44639, Note_off_c, 0, 75, 0
2, 44640, Note_on_c, 0, 77, 88
2, 44699, Note_off_c, 0, 77, 0
2, 44700, Note_on_c, 0, 80, 88
2, 44759, Note_off_c, 0, 80, 0
2, 44760, Note_on_c, 0, 73, 88
2, 44819, Note_off_c, 0, 73, 0
2, 44820, Note_on_c, 0, 75, 88
2, 44879, Note_off_c, 0, 75, 0
2, 44880, Note_on_c, 0, 77, 88
2, 44939, Note_off_c, 0, 77, 0
2, 44940, Note_on_c, 0, 73, 88
2, 44999, Note_off_c, 0, 73, 0
2, 45000, Note_on_c, 0, 80, 88
2, 45059, Note_off_c, 0, 80, 0
2, 45060, Note_on_c, 0, 77, 88
2, 45119, Note_off_c, 0, 77, 0
2, 45120, Note_on_c, 0, 71, 88
2, 45179, Note_off_c, 0, 71, 0
2, 45180, Note_on_c, 0, 75, 88
2, 45239, Note_off_c, 0, 75, 0
2, 45240, Note_on_c, 0, 73, 88
2, 45299, Note_off_c, 0, 73, 0
2, 45300, Note_on_c, 0, 71, 88
2, 45359, Note_off_c, 0, 71, 0
2, 45360, Note_on_c, 0, 70, 88
2, 45419, Note_off_c, 0, 70, 0
2, 45420, Note_on_c, 0, 77, 88
2, 45479, Note_off_c, 0, 77, 0
2, 45480, Note_on_c, 0, 70, 88
2, 45539, Note_off_c, 0, 70, 0
2, 45540, Note_on_c, 0, 72, 88
2, 45599, Note_off_c, 0, 72, 0
2, 45600, Note_on_c, 0, 74, 88
2, 45659, Note_off_c, 0, 74, 0
2, 45660, Note_on_c, 0, 70, 88
2, 45719, Note_off_c, 0, 70, 0
2, 45720, Note_on_c, 0, 77, 88
2, 45779, Note_off_c, 0, 77, 0
2, 45780, Note_on_c, 0, 74, 88
2, 45839, Note_off_c, 0, 74, 0
2, 45840, Note_on_c, 0, 70, 88
2, 45899, Note_off_c, 0, 70, 0
2, 45900, Note_on_c, 0, 80, 88
2, 45959, Note_off_c, 0, 80, 0
2, 45960, Note_on_c, 0, 78, 88
2, 46019, Note_off_c, 0, 78, 0
2, 46020, Note_on_c, 0, 77, 88
2, 46079, Note_off_c, 0, 77, 0
2, 46080, Note_on_c, 0, 78, 88
2, 46259, Note_off_c, 0, 78, 0
2, 46260, Note_on_c, 0, 75, 88
2, 46319, Note_off_c, 0, 75, 0
2, 46320, Note_on_c, 0, 83, 88
2, 46709, Note_off_c, 0, 83, 0
2, 46710, Note_on_c, 0, 82, 88
2, 46739, Note_off_c, 0, 82, 0
2, 46740, Note_on_c, 0, 80, 88
2, 46769, Note_off_c, 0, 80, 0
2, 46770, Note_on_c, 0, 78, 88
2, 46799, Note_off_c, 0, 78, 0
2, 46800, Note_on_c, 0, 80, 88
2, 46979, Note_off_c, 0, 80, 0
2, 46980, Note_on_c, 0, 83, 88
2, 47039, Note_off_c, 0, 83, 0
2, 47040, Note_on_c, 0, 73, 88
2, 47339, Note_off_c, 0, 73, 0
2, 47340, Note_on_c, 0, 75, 88
2, 47369, Note_off_c, 0, 75, 0
2, 47370, Note_on_c, 0, 77, 88
2, 47399, Note_off_c, 0, 77, 0
2, 47400, Note_on_c, 0, 78, 88
2, 47459, Note_off_c, 0, 78, 0
2, 47460, Note_on_c, 0, 80, 88
2, 47519, Note_off_c, 0, 80, 0
2, 47520, Note_on_c, 0, 82, 88
2, 47699, Note_off_c, 0, 82, 0
2, 47700, Note_on_c, 0, 80, 88
2, 47759, Note_off_c, 0, 80, 0
2, 47760, Note_on_c, 0, 78, 88
2, 47819, Note_off_c, 0, 78, 0
2, 47820, Note_on_c, 0, 77, 88
2, 47843, Note_off_c, 0, 77, 0
2, 47844, Note_on_c, 0, 78, 88
2, 47866, Note_off_c, 0, 78, 0
2, 47867, Note_on_c, 0, 77, 88
2, 47888, Note_off_c, 0, 77, 0
2, 47889, Note_on_c, 0, 78, 88
2, 47911, Note_off_c, 0, 78, 0
2, 47912, Note_on_c, 0, 77, 88
2, 47933, Note_off_c, 0, 77, 0
2, 47934, Note_on_c, 0, 78, 88
2, 47956, Note_off_c, 0, 78, 0
2, 47957, Note_on_c, 0, 77, 88
2, 47978, Note_off_c, 0, 77, 0
2, 47979, Note_on_c, 0, 78, 88
2, 48001, Note_off_c, 0, 78, 0
2, 48002, Note_on_c, 0, 77, 88
2, 48119, Note_off_c, 0, 77, 0
2, 48120, Note_on_c, 0, 78, 88
2, 48239, Note_off_c, 0, 78, 0
2, 48240, Note_on_c, 0, 78, 88
2, 48299, Note_off_c, 0, 78, 0
2, 48300, Note_on_c, 0, 82, 88
2, 48359, Note_off_c, 0, 82, 0
2, 48360, Note_on_c, 0, 73, 88
2, 48419, Note_off_c, 0, 73, 0
2, 48420, Note_on_c, 0, 77, 88
2, 48479, Note_off_c, 0, 77, 0
2, 48480, Note_on_c, 0, 78, 88
2, 48539, Note_off_c, 0, 78, 0
2, 48540, Note_on_c, 0, 73, 88
2, 48599, Note_off_c, 0, 73, 0
2, 48600, Note_on_c, 0, 82, 88
2, 48659, Note_off_c, 0, 82, 0
2, 48660, Note_on_c, 0, 78, 88
2, 48719, Note_off_c, 0, 78, 0
2, 48720, Note_on_c, 0, 73, 88
2, 48779, Note_off_c, 0, 73, 0
2, 48780, Note_on_c, 0, 80, 88
2, 48839, Note_off_c, 0, 80, 0
2, 48840, Note_on_c, 0, 78, 88
2, 48899, Note_off_c, 0, 78, 0
2, 48900, Note_on_c, 0, 77, 88
2, 48959, Note_off_c, 0, 77, 0
2, 48960, Note_on_c, 0, 78, 88
2, 49019, Note_off_c, 0, 78, 0
2, 49020, Note_on_c, 0, 73, 88
2, 49079, Note_off_c, 0, 73, 0
2, 49080, Note_on_c, 0, 70, 88
2, 49139, Note_off_c, 0, 70, 0
2, 49140, Note_on_c, 0, 71, 88
2, 49199, Note_off_c, 0, 71, 0
2, 49200, Note_on_c, 0, 73, 88
2, 49259, Note_off_c, 0, 73, 0
2, 49260, Note_on_c, 0, 70, 88
2, 49319, Note_off_c, 0, 70, 0
2, 49320, Note_on_c, 0, 78, 88
2, 49379, Note_off_c, 0, 78, 0
2, 49380, Note_on_c, 0, 73, 88
2, 49439, Note_off_c, 0, 73, 0
2, 49440, Note_on_c, 0, 70, 88
2, 49499, Note_off_c, 0, 70, 0
2, 49500, Note_on_c, 0, 71, 88
2, 49559, Note_off_c, 0, 71, 0
2, 49560, Note_on_c, 0, 70, 88
2, 49619, Note_off_c, 0, 70, 0
2, 49620, Note_on_c, 0, 68, 88
2, 49679, Note_off_c, 0, 68, 0
2, 49680, Note_on_c, 0, 66, 88
2, 49739, Note_off_c, 0, 66, 0
2, 49740, Note_on_c, 0, 69, 88
2, 49799, Note_off_c, 0, 69, 0
2, 49800, Note_on_c, 0, 60, 88
2, 49859, Note_off_c, 0, 60, 0
2, 49860, Note_on_c, 0, 65, 88
2, 49919, Note_off_c, 0, 65, 0
2, 49920, Note_on_c, 0, 66, 88
2, 49979, Note_off_c, 0, 66, 0
2, 49980, Note_on_c, 0, 60, 88
2, 50039, Note_off_c, 0, 60, 0
2, 50040, Note_on_c, 0, 69, 88
2, 50099, Note_off_c, 0, 69, 0
2, 50100, Note_on_c, 0, 66, 88
2, 50159, Note_off_c, 0, 66, 0
2, 50160, Note_on_c, 0, 60, 88
2, 50219, Note_off_c, 0, 60, 0
2, 50220, Note_on_c, 0, 68, 88
2, 50279, Note_off_c, 0, 68, 0
2, 50280, Note_on_c, 0, 66, 88
2, 50339, Note_off_c, 0, 66, 0
2, 50340, Note_on_c, 0, 65, 88
2, 50399, Note_off_c, 0, 65, 0
2, 50400, Note_on_c, 0, 66, 88
2, 50459, Note_off_c, 0, 66, 0
2, 50460, Note_on_c, 0, 69, 88
2, 50519, Note_off_c, 0, 69, 0
2, 50520, Note_on_c, 0, 73, 88
2, 50579, Note_off_c, 0, 73, 0
2, 50580, Note_on_c, 0, 71, 88
2, 50639, Note_off_c, 0, 71, 0
2, 50640, Note_on_c, 0, 69, 88
2, 50699, Note_off_c, 0, 69, 0
2, 50700, Note_on_c, 0, 73, 88
2, 50759, Note_off_c, 0, 73, 0
2, 50760, Note_on_c, 0, 66, 88
2, 50819, Note_off_c, 0, 66, 0
2, 50820, Note_on_c, 0, 69, 88
2, 50879, Note_off_c, 0, 69, 0
2, 50880, Note_on_c, 0, 73, 88
2, 50939, Note_off_c, 0, 73, 0
2, 50940, Note_on_c, 0, 69, 88
2, 50999, Note_off_c, 0, 69, 0
2, 51000, Note_on_c, 0, 73, 88
2, 51059, Note_off_c, 0, 73, 0
2, 51060, Note_on_c, 0, 77, 88
2, 51119, Note_off_c, 0, 77, 0
2, 51120, Note_on_c, 0, 78, 88
2, 51179, Note_off_c, 0, 78, 0
2, 51180, Note_on_c, 0, 81, 88
2, 51239, Note_off_c, 0, 81, 0
2, 51240, Note_on_c, 0, 75, 88
2, 51299, Note_off_c, 0, 75, 0
2, 51300, Note_on_c, 0, 77, 88
2, 51359, Note_off_c, 0, 77, 0
2, 51360, Note_on_c, 0, 78, 88
2, 51419, Note_off_c, 0, 78, 0
2, 51420, Note_on_c, 0, 75, 88
2, 51479, Note_off_c, 0, 75, 0
2, 51480, Note_on_c, 0, 81, 88
2, 51539, Note_off_c, 0, 81, 0
2, 51540, Note_on_c, 0, 78, 88
2, 51599, Note_off_c, 0, 78, 0
2, 51600, Note_on_c, 0, 75, 88
2, 51659, Note_off_c, 0, 75, 0
2, 51660, Note_on_c, 0, 78, 88
2, 51719, Note_off_c, 0, 78, 0
2, 51720, Note_on_c, 0, 77, 88
2, 51779, Note_off_c, 0, 77, 0
2, 51780, Note_on_c, 0, 75, 88
2, 51839, Note_off_c, 0, 75, 0
2, 51840, Note_on_c, 0, 77, 88
2, 52259, Note_off_c, 0, 77, 0
2, 52260, Note_on_c, 0, 77, 88
2, 52319, Note_off_c, 0, 77, 0
2, 52320, Note_on_c, 0, 78, 88
2, 52409, Note_off_c, 0, 78, 0
2, 52410, Note_on_c, 0, 77, 88
2, 52424, Note_off_c, 0, 77, 0
2, 52425, Note_on_c, 0, 75, 88
2, 52439, Note_off_c, 0, 75, 0
2, 52440, Note_on_c, 0, 73, 88
2, 52469, Note_off_c, 0, 73, 0
2, 52470, Note_on_c, 0, 71, 88
2, 52499, Note_off_c, 0, 71, 0
2, 52500, Note_on_c, 0, 70, 88
2, 52529, Note_off_c, 0, 70, 0
2, 52530, Note_on_c, 0, 68, 88
2, 52559, Note_off_c, 0, 68, 0
2, 52560, Note_on_c, 0, 66, 88
2, 52739, Note_off_c, 0, 66, 0
2, 52740, Note_on_c, 0, 75, 88
2, 52799, Note_off_c, 0, 75, 0
2, 52800, Note_on_c, 0, 66, 88
2, 53039, Note_off_c, 0, 66, 0
2, 53040, Note_on_c, 0, 65, 88
2, 53062, Note_off_c, 0, 65, 0
2, 53063, Note_on_c, 0, 66, 88
2, 53082, Note_off_c, 0, 66, 0
2, 53083, Note_on_c, 0, 65, 88
2, 53103, Note_off_c, 0, 65, 0
2, 53104, Note_on_c, 0, 66, 88
2, 53123, Note_off_c, 0, 66, 0
2, 53124, Note_on_c, 0, 65, 88
2, 53142, Note_off_c, 0, 65, 0
2, 53143, Note_on_c, 0, 66, 88
2, 53161, Note_off_c, 0, 66, 0
2, 53162, Note_on_c, 0, 65, 88
2, 53219, Note_off_c, 0, 65, 0
2, 53220, Note_on_c, 0, 66, 88
2, 53279, Note_off_c, 0, 66, 0
2, 53280, Note_on_c, 0, 66, 88
2, 53320, Note_off_c, 0, 66, 0
2, 53320, End_track
0, 0, End_of_file