0, 0, Header, 1, 2, 240
1, 0, Start_track
1, 0, Time_signature, 4, 2, 24, 8
1, 0, Tempo, 714285
1, 0, SMPTE_offset, 64, 0, 0, 0, 100
1, 0, End_track
2, 0, Start_track
2, 0, Title_t, "Track 1"
2, 0, Program_c, 0, 6
2, 0, Note_on_c, 0, 66, 88
2, 59, Note_off_c, 0, 66, 0
2, 60, Note_on_c, 0, 70, 88
2, 119, Note_off_c, 0, 70, 0
2, 120, Note_on_c, 0, 73, 88
2, 179, Note_off_c, 0, 73, 0
2, 180, Note_on_c, 0, 70, 88
2, 239, Note_off_c, 0, 70, 0
2, 240, Note_on_c, 0, 66, 88
2, 299, Note_off_c, 0, 66, 0
2, 300, Note_on_c, 0, 73, 88
2, 359, Note_off_c, 0, 73, 0
2, 360, Note_on_c, 0, 73, 88
2, 779, Note_off_c, 0, 73, 0
2, 780, Note_on_c, 0, 70, 88
2, 839, Note_off_c, 0, 70, 0
2, 840, Note_on_c, 0, 71, 88
2, 959, Note_off_c, 0, 71, 0
2, 960, Note_on_c, 0, 73, 88
2, 1019, Note_off_c, 0, 73, 0
2, 1020, Note_on_c, 0, 70, 88
2, 1139, Note_off_c, 0, 70, 0
2, 1140, Note_on_c, 0, 75, 88
2, 1199, Note_off_c, 0, 75, 0
2, 1200, Note_on_c, 0, 68, 88
2, 1319, Note_off_c, 0, 68, 0
2, 1320, Note_on_c, 0, 70, 88
2, 1379, Note_off_c, 0, 70, 0
2, 1380, Note_on_c, 0, 66, 88
2, 1499, Note_off_c, 0, 66, 0
2, 1500, Note_on_c, 0, 71, 88
2, 1559, Note_off_c, 0, 71, 0
2, 1560, Note_on_c, 0, 65, 88
2, 1679, Note_off_c, 0, 65, 0
2, 1680, Note_on_c, 0, 71, 88
2, 1739, Note_off_c, 0, 71, 0
2, 1740, Note_on_c, 0, 63, 88
2, 1859, Note_off_c, 0, 63, 0
2, 1860, Note_on_c, 0, 71, 88
2, 1919, Note_off_c, 0, 71, 0
2, 1920, Note_on_c, 0, 61, 88
2, 1979, Note_off_c, 0, 61, 0
2, 1980, Note_on_c, 0, 65, 88
2, 2039, Note_off_c, 0, 65, 0
2, 2040, Note_on_c, 0, 68, 88
2, 2099, Note_off_c, 0, 68, 0
2, 2100, Note_on_c, 0, 71, 88
2, 2159, Note_off_c, 0, 71, 0
2, 2160, Note_on_c, 0, 70, 88
2, 2219, Note_off_c, 0, 70, 0
2, 2220, Note_on_c, 0, 66, 88
2, 2279, Note_off_c, 0, 66, 0
2, 2280, Note_on_c, 0, 72, 88
2, 2399, Note_off_c, 0, 72, 0
2, 2400, Note_on_c, 0, 66, 88
2, 2459, Note_off_c, 0, 66, 0
2, 2460, Note_on_c, 0, 73, 88
2, 2579, Note_off_c, 0, 73, 0
2, 2580, Note_on_c, 0, 66, 88
2, 2639, Note_off_c, 0, 66, 0
2, 2640, Note_on_c, 0, 75, 88
2, 2759, Note_off_c, 0, 75, 0
2, 2760, Note_on_c, 0, 68, 88
2, 2819, Note_off_c, 0, 68, 0
2, 2820, Note_on_c, 0, 77, 88
2, 2939, Note_off_c, 0, 77, 0
2, 2940, Note_on_c, 0, 80, 88
2, 2999, Note_off_c, 0, 80, 0
2, 3000, Note_on_c, 0, 73, 88
2, 3119, Note_off_c, 0, 73, 0
2, 3120, Note_on_c, 0, 75, 88
2, 3179, Note_off_c, 0, 75, 0
2, 3180, Note_on_c, 0, 72, 88
2, 3239, Note_off_c, 0, 72, 0
2, 3240, Note_on_c, 0, 73, 88
2, 3299, Note_off_c, 0, 73, 0
2, 3300, Note_on_c, 0, 77, 88
2, 3359, Note_off_c, 0, 77, 0
2, 3360, Note_on_c, 0, 73, 88
2, 3419, Note_off_c, 0, 73, 0
2, 3420, Note_on_c, 0, 73, 88
2, 3479, Note_off_c, 0, 73, 0
2, 3480, Note_on_c, 0, 77, 88
2, 3509, Note_off_c, 0, 77, 0
2, 3510, Note_on_c, 0, 75, 88
2, 3539, Note_off_c, 0, 75, 0
2, 3540, Note_on_c, 0, 73, 88
2, 3659, Note_off_c, 0, 73, 0
2, 3660, Note_on_c, 0, 82, 88
2, 3719, Note_off_c, 0, 82, 0
2, 3720, Note_on_c, 0, 73, 88
2, 3839, Note_off_c, 0, 73, 0
2, 3840, Note_on_c, 0, 75, 88
2, 3899, Note_off_c, 0, 75, 0
2, 3900, Note_on_c, 0, 72, 88
2, 3959, Note_off_c, 0, 72, 0
2, 3960, Note_on_c, 0, 73, 88
2, 4019, Note_off_c, 0, 73, 0
2, 4020, Note_on_c, 0, 77, 88
2, 4079, Note_off_c, 0, 77, 0
2, 4080, Note_on_c, 0, 80, 88
2, 4139, Note_off_c, 0, 80, 0
2, 4140, Note_on_c, 0, 77, 88
2, 4199, Note_off_c, 0, 77, 0
2, 4200, Note_on_c, 0, 73, 88
2, 4259, Note_off_c, 0, 73, 0
2, 4260, Note_on_c, 0, 80, 88
2, 4319, Note_off_c, 0, 80, 0
2, 4320, Note_on_c, 0, 82, 88
2, 4349, Note_off_c, 0, 82, 0
2, 4350, Note_on_c, 0, 80, 88
2, 4379, Note_off_c, 0, 80, 0
2, 4380, Note_on_c, 0, 82, 88
2, 4409, Note_off_c, 0, 82, 0
2, 4410, Note_on_c, 0, 80, 88
2, 4439, Note_off_c, 0, 80, 0
2, 4440, Note_on_c, 0, 82, 88
2, 4469, Note_off_c, 0, 82, 0
2, 4470, Note_on_c, 0, 80, 88
2, 4499, Note_off_c, 0, 80, 0
2, 4500, Note_on_c, 0, 82, 88
2, 4529, Note_off_c, 0, 82, 0
2, 4530, Note_on_c, 0, 80, 88
2, 4559, Note_off_c, 0, 80, 0
2, 4560, Note_on_c, 0, 82, 88
2, 4585, Note_off_c, 0, 82, 0
2, 4586, Note_on_c, 0, 80, 88
2, 4612, Note_off_c, 0, 80, 0
2, 4613, Note_on_c, 0, 82, 88
2, 4638, Note_off_c, 0, 82, 0
2, 4639, Note_on_c, 0, 80, 88
2, 4739, Note_off_c, 0, 80, 0
2, 4740, Note_on_c, 0, 77, 88
2, 4799, Note_off_c, 0, 77, 0
2, 4800, Note_on_c, 0, 78, 88
2, 4919, Note_off_c, 0, 78, 0
2, 4920, Note_on_c, 0, 80, 88
2, 4979, Note_off_c, 0, 80, 0
2, 4980, Note_on_c, 0, 77, 88
2, 5099, Note_off_c, 0, 77, 0
2, 5100, Note_on_c, 0, 82, 88
2, 5159, Note_off_c, 0, 82, 0
2, 5160, Note_on_c, 0, 75, 88
2, 5279, Note_off_c, 0, 75, 0
2, 5280, Note_on_c, 0, 77, 88
2, 5339, Note_off_c, 0, 77, 0
2, 5340, Note_on_c, 0, 74, 88
2, 5399, Note_off_c, 0, 74, 0
2, 5400, Note_on_c, 0, 78, 88
2, 5459, Note_off_c, 0, 78, 0
2, 5460, Note_on_c, 0, 70, 88
2, 5519, Note_off_c, 0, 70, 0
2, 5520, Note_on_c, 0, 71, 88
2, 5639, Note_off_c, 0, 71, 0
2, 5640, Note_on_c, 0, 73, 88
2, 5699, Note_off_c, 0, 73, 0
2, 5700, Note_on_c, 0, 70, 88
2, 5819, Note_off_c, 0, 70, 0
2, 5820, Note_on_c, 0, 75, 88
2, 5879, Note_off_c, 0, 75, 0
2, 5880, Note_on_c, 0, 68, 88
2, 5999, Note_off_c, 0, 68, 0
2, 6000, Note_on_c, 0, 70, 88
2, 6059, Note_off_c, 0, 70, 0
2, 6060, Note_on_c, 0, 66, 88
2, 6179, Note_off_c, 0, 66, 0
2, 6180, Note_on_c, 0, 71, 88
2, 6239, Note_off_c, 0, 71, 0
2, 6240, Note_on_c, 0, 64, 88
2, 6359, Note_off_c, 0, 64, 0
2, 6360, Note_on_c, 0, 66, 88
2, 6419, Note_off_c, 0, 66, 0
2, 6420, Note_on_c, 0, 63, 88
2, 6479, Note_off_c, 0, 63, 0
2, 6480, Note_on_c, 0, 68, 88
2, 6539, Note_off_c, 0, 68, 0
2, 6540, Note_on_c, 0, 62, 88
2, 6599, Note_off_c, 0, 62, 0
2, 6600, Note_on_c, 0, 63, 88
2, 6719, Note_off_c, 0, 63, 0
2, 6720, Note_on_c, 0, 62, 88
2, 6779, Note_off_c, 0, 62, 0
2, 6780, Note_on_c, 0, 68, 88
2, 6899, Note_off_c, 0, 68, 0
2, 6900, Note_on_c, 0, 65, 88
2, 6959, Note_off_c, 0, 65, 0
2, 6960, Note_on_c, 0, 71, 88
2, 7079, Note_off_c, 0, 71, 0
2, 7080, Note_on_c, 0, 68, 88
2, 7139, Note_off_c, 0, 68, 0
2, 7140, Note_on_c, 0, 77, 88
2, 7259, Note_off_c, 0, 77, 0
2, 7260, Note_on_c, 0, 65, 88
2, 7319, Note_off_c, 0, 65, 0
2, 7320, Note_on_c, 0, 66, 88
2, 7439, Note_off_c, 0, 66, 0
2, 7440, Note_on_c, 0, 70, 88
2, 7499, Note_off_c, 0, 70, 0
2, 7500, Note_on_c, 0, 75, 88
2, 7619, Note_off_c, 0, 75, 0
2, 7620, Note_on_c, 0, 65, 88
2, 7679, Note_off_c, 0, 65, 0
2, 7680, Note_on_c, 0, 68, 88
2, 7799, Note_off_c, 0, 68, 0
2, 7800, Note_on_c, 0, 70, 88
2, 7859, Note_off_c, 0, 70, 0
2, 7860, Note_on_c, 0, 74, 88
2, 7919, Note_off_c, 0, 74, 0
2, 7920, Note_on_c, 0, 77, 88
2, 7949, Note_off_c, 0, 77, 0
2, 7950, Note_on_c, 0, 75, 88
2, 7979, Note_off_c, 0, 75, 0
2, 7980, Note_on_c, 0, 77, 88
2, 8009, Note_off_c, 0, 77, 0
2, 8010, Note_on_c, 0, 75, 88
2, 8039, Note_off_c, 0, 75, 0
2, 8040, Note_on_c, 0, 77, 88
2, 8069, Note_off_c, 0, 77, 0
2, 8070, Note_on_c, 0, 75, 88
2, 8099, Note_off_c, 0, 75, 0
2, 8100, Note_on_c, 0, 77, 88
2, 8129, Note_off_c, 0, 77, 0
2, 8130, Note_on_c, 0, 75, 88
2, 8159, Note_off_c, 0, 75, 0
2, 8160, Note_on_c, 0, 77, 88
2, 8185, Note_off_c, 0, 77, 0
2, 8186, Note_on_c, 0, 75, 88
2, 8212, Note_off_c, 0, 75, 0
2, 8213, Note_on_c, 0, 77, 88
2, 8238, Note_off_c, 0, 77, 0
2, 8239, Note_on_c, 0, 75, 88
2, 8339, Note_off_c, 0, 75, 0
2, 8340, Note_on_c, 0, 78, 88
2, 8399, Note_off_c, 0, 78, 0
2, 8400, Note_on_c, 0, 82, 88
2, 8459, Note_off_c, 0, 82, 0
2, 8460, Note_on_c, 0, 78, 88
2, 8519, Note_off_c, 0, 78, 0
2, 8520, Note_on_c, 0, 75, 88
2, 8579, Note_off_c, 0, 75, 0
2, 8580, Note_on_c, 0, 81, 88
2, 8639, Note_off_c, 0, 81, 0
2, 8640, Note_on_c, 0, 82, 88
2, 8669, Note_off_c, 0, 82, 0
2, 8670, Note_on_c, 0, 81, 88
2, 8699, Note_off_c, 0, 81, 0
2, 8700, Note_on_c, 0, 82, 88
2, 8729, Note_off_c, 0, 82, 0
2, 8730, Note_on_c, 0, 81, 88
2, 8759, Note_off_c, 0, 81, 0
2, 8760, Note_on_c, 0, 82, 88
2, 8789, Note_off_c, 0, 82, 0
2, 8790, Note_on_c, 0, 81, 88
2, 8819, Note_off_c, 0, 81, 0
2, 8820, Note_on_c, 0, 82, 88
2, 8849, Note_off_c, 0, 82, 0
2, 8850, Note_on_c, 0, 81, 88
2, 8879, Note_off_c, 0, 81, 0
2, 8880, Note_on_c, 0, 82, 88
2, 8905, Note_off_c, 0, 82, 0
2, 8906, Note_on_c, 0, 81, 88
2, 8932, Note_off_c, 0, 81, 0
2, 8933, Note_on_c, 0, 82, 88
2, 8958, Note_off_c, 0, 82, 0
2, 8959, Note_on_c, 0, 81, 88
2, 9059, Note_off_c, 0, 81, 0
2, 9060, Note_on_c, 0, 82, 88
2, 9119, Note_off_c, 0, 82, 0
2, 9120, Note_on_c, 0, 84, 88
2, 9179, Note_off_c, 0, 84, 0
2, 9180, Note_on_c, 0, 77, 88
2, 9239, Note_off_c, 0, 77, 0
2, 9240, Note_on_c, 0, 78, 88
2, 9299, Note_off_c, 0, 78, 0
2, 9300, Note_on_c, 0, 75, 88
2, 9359, Note_off_c, 0, 75, 0
2, 9360, Note_on_c, 0, 73, 88
2, 9419, Note_off_c, 0, 73, 0
2, 9420, Note_on_c, 0, 77, 88
2, 9479, Note_off_c, 0, 77, 0
2, 9480, Note_on_c, 0, 70, 88
2, 9599, Note_off_c, 0, 70, 0
2, 9600, Note_on_c, 0, 72, 88
2, 9659, Note_off_c, 0, 72, 0
2, 9660, Note_on_c, 0, 69, 88
2, 9719, Note_off_c, 0, 69, 0
2, 9720, Note_on_c, 0, 70, 88
2, 9779, Note_off_c, 0, 70, 0
2, 9780, Note_on_c, 0, 73, 88
2, 9839, Note_off_c, 0, 73, 0
2, 9840, Note_on_c, 0, 70, 88
2, 9899, Note_off_c, 0, 70, 0
2, 9900, Note_on_c, 0, 70, 88
2, 9959, Note_off_c, 0, 70, 0
2, 9960, Note_on_c, 0, 73, 88
2, 9989, Note_off_c, 0, 73, 0
2, 9990, Note_on_c, 0, 72, 88
2, 10019, Note_off_c, 0, 72, 0
2, 10020, Note_on_c, 0, 70, 88
2, 10139, Note_off_c, 0, 70, 0
2, 10140, Note_on_c, 0, 78, 88
2, 10199, Note_off_c, 0, 78, 0
2, 10200, Note_on_c, 0, 70, 88
2, 10319, Note_off_c, 0, 70, 0
2, 10320, Note_on_c, 0, 72, 88
2, 10379, Note_off_c, 0, 72, 0
2, 10380, Note_on_c, 0, 69, 88
2, 10439, Note_off_c, 0, 69, 0
2, 10440, Note_on_c, 0, 70, 88
2, 10499, Note_off_c, 0, 70, 0
2, 10500, Note_on_c, 0, 73, 88
2, 10559, Note_off_c, 0, 73, 0
2, 10560, Note_on_c, 0, 77, 88
2, 10619, Note_off_c, 0, 77, 0
2, 10620, Note_on_c, 0, 73, 88
2, 10679, Note_off_c, 0, 73, 0
2, 10680, Note_on_c, 0, 70, 88
2, 10739, Note_off_c, 0, 70, 0
2, 10740, Note_on_c, 0, 79, 88
2, 10799, Note_off_c, 0, 79, 0
2, 10800, Note_on_c, 0, 79, 88
2, 11219, Note_off_c, 0, 79, 0
2, 11220, Note_on_c, 0, 82, 88
2, 11279, Note_off_c, 0, 82, 0
2, 11280, Note_on_c, 0, 75, 88
2, 11339, Note_off_c, 0, 75, 0
2, 11340, Note_on_c, 0, 73, 88
2, 11399, Note_off_c, 0, 73, 0
2, 11400, Note_on_c, 0, 71, 88
2, 11459, Note_off_c, 0, 71, 0
2, 11460, Note_on_c, 0, 70, 88
2, 11519, Note_off_c, 0, 70, 0
2, 11520, Note_on_c, 0, 71, 88
2, 11579, Note_off_c, 0, 71, 0
2, 11580, Note_on_c, 0, 75, 88
2, 11639, Note_off_c, 0, 75, 0
2, 11640, Note_on_c, 0, 68, 88
2, 11759, Note_off_c, 0, 68, 0
2, 11760, Note_on_c, 0, 70, 88
2, 11819, Note_off_c, 0, 70, 0
2, 11820, Note_on_c, 0, 67, 88
2, 11879, Note_off_c, 0, 67, 0
2, 11880, Note_on_c, 0, 68, 88
2, 11939, Note_off_c, 0, 68, 0
2, 11940, Note_on_c, 0, 71, 88
2, 11999, Note_off_c, 0, 71, 0
2, 12000, Note_on_c, 0, 68, 88
2, 12059, Note_off_c, 0, 68, 0
2, 12060, Note_on_c, 0, 68, 88
2, 12119, Note_off_c, 0, 68, 0
2, 12120, Note_on_c, 0, 71, 88
2, 12149, Note_off_c, 0, 71, 0
2, 12150, Note_on_c, 0, 70, 88
2, 12179, Note_off_c, 0, 70, 0
2, 12180, Note_on_c, 0, 68, 88
2, 12299, Note_off_c, 0, 68, 0
2, 12300, Note_on_c, 0, 76, 88
2, 12359, Note_off_c, 0, 76, 0
2, 12360, Note_on_c, 0, 68, 88
2, 12479, Note_off_c, 0, 68, 0
2, 12480, Note_on_c, 0, 70, 88
2, 12539, Note_off_c, 0, 70, 0
2, 12540, Note_on_c, 0, 67, 88
2, 12599, Note_off_c, 0, 67, 0
2, 12600, Note_on_c, 0, 68, 88
2, 12659, Note_off_c, 0, 68, 0
2, 12660, Note_on_c, 0, 71, 88
2, 12719, Note_off_c, 0, 71, 0
2, 12720, Note_on_c, 0, 75, 88
2, 12779, Note_off_c, 0, 75, 0
2, 12780, Note_on_c, 0, 71, 88
2, 12839, Note_off_c, 0, 71, 0
2, 12840, Note_on_c, 0, 68, 88
2, 12899, Note_off_c, 0, 68, 0
2, 12900, Note_on_c, 0, 77, 88
2, 12959, Note_off_c, 0, 77, 0
2, 12960, Note_on_c, 0, 78, 88
2, 12989, Note_off_c, 0, 78, 0
2, 12990, Note_on_c, 0, 77, 88
2, 13019, Note_off_c, 0, 77, 0
2, 13020, Note_on_c, 0, 78, 88
2, 13049, Note_off_c, 0, 78, 0
2, 13050, Note_on_c, 0, 77, 88
2, 13079, Note_off_c, 0, 77, 0
2, 13080, Note_on_c, 0, 78, 88
2, 13109, Note_off_c, 0, 78, 0
2, 13110, Note_on_c, 0, 77, 88
2, 13139, Note_off_c, 0, 77, 0
2, 13140, Note_on_c, 0, 78, 88
2, 13169, Note_off_c, 0, 78, 0
2, 13170, Note_on_c, 0, 77, 88
2, 13199, Note_off_c, 0, 77, 0
2, 13200, Note_on_c, 0, 78, 88
2, 13225, Note_off_c, 0, 78, 0
2, 13226, Note_on_c, 0, 77, 88
2, 13252, Note_off_c, 0, 77, 0
2, 13253, Note_on_c, 0, 78, 88
2, 13278, Note_off_c, 0, 78, 0
2, 13279, Note_on_c, 0, 77, 88
2, 13379, Note_off_c, 0, 77, 0
2, 13380, Note_on_c, 0, 73, 88
2, 13439, Note_off_c, 0, 73, 0
2, 13440, Note_on_c, 0, 77, 88
2, 13499, Note_off_c, 0, 77, 0
2, 13500, Note_on_c, 0, 80, 88
2, 13559, Note_off_c, 0, 80, 0
2, 13560, Note_on_c, 0, 77, 88
2, 13619, Note_off_c, 0, 77, 0
2, 13620, Note_on_c, 0, 80, 88
2, 13679, Note_off_c, 0, 80, 0
2, 13680, Note_on_c, 0, 83, 88
2, 14099, Note_off_c, 0, 83, 0
2, 14100, Note_on_c, 0, 80, 88
2, 14159, Note_off_c, 0, 80, 0
2, 14160, Note_on_c, 0, 82, 88
2, 14279, Note_off_c, 0, 82, 0
2, 14280, Note_on_c, 0, 83, 88
2, 14339, Note_off_c, 0, 83, 0
2, 14340, Note_on_c, 0, 80, 88
2, 14459, Note_off_c, 0, 80, 0
2, 14460, Note_on_c, 0, 77, 88
2, 14519, Note_off_c, 0, 77, 0
2, 14520, Note_on_c, 0, 78, 88
2, 14639, Note_off_c, 0, 78, 0
2, 14640, Note_on_c, 0, 80, 88
2, 14699, Note_off_c, 0, 80, 0
2, 14700, Note_on_c, 0, 77, 88
2, 14759, Note_off_c, 0, 77, 0
2, 14760, Note_on_c, 0, 78, 88
2, 14819, Note_off_c, 0, 78, 0
2, 14820, Note_on_c, 0, 70, 88
2, 14879, Note_off_c, 0, 70, 0
2, 14880, Note_on_c, 0, 71, 88
2, 14999, Note_off_c, 0, 71, 0
2, 15000, Note_on_c, 0, 73, 88
2, 15059, Note_off_c, 0, 73, 0
2, 15060, Note_on_c, 0, 70, 88
2, 15179, Note_off_c, 0, 70, 0
2, 15180, Note_on_c, 0, 75, 88
2, 15239, Note_off_c, 0, 75, 0
2, 15240, Note_on_c, 0, 68, 88
2, 15359, Note_off_c, 0, 68, 0
2, 15360, Note_on_c, 0, 70, 88
2, 15419, Note_off_c, 0, 70, 0
2, 15420, Note_on_c, 0, 66, 88
2, 15539, Note_off_c, 0, 66, 0
2, 15540, Note_on_c, 0, 65, 88
2, 15599, Note_off_c, 0, 65, 0
2, 15600, Note_on_c, 0, 71, 88
2, 15719, Note_off_c, 0, 71, 0
2, 15720, Note_on_c, 0, 68, 88
2, 15779, Note_off_c, 0, 68, 0
2, 15780, Note_on_c, 0, 75, 88
2, 15899, Note_off_c, 0, 75, 0
2, 15900, Note_on_c, 0, 71, 88
2, 15959, Note_off_c, 0, 71, 0
2, 15960, Note_on_c, 0, 80, 88
2, 16079, Note_off_c, 0, 80, 0
2, 16080, Note_on_c, 0, 77, 88
2, 16139, Note_off_c, 0, 77, 0
2, 16140, Note_on_c, 0, 71, 88
2, 16259, Note_off_c, 0, 71, 0
2, 16260, Note_on_c, 0, 68, 88
2, 16319, Note_off_c, 0, 68, 0
2, 16320, Note_on_c, 0, 73, 88
2, 16439, Note_off_c, 0, 73, 0
2, 16440, Note_on_c, 0, 70, 88
2, 16499, Note_off_c, 0, 70, 0
2, 16500, Note_on_c, 0, 66, 88
2, 16619, Note_off_c, 0, 66, 0
2, 16620, Note_on_c, 0, 63, 88
2, 16679, Note_off_c, 0, 63, 0
2, 16680, Note_on_c, 0, 71, 88
2, 16799, Note_off_c, 0, 71, 0
2, 16800, Note_on_c, 0, 68, 88
2, 16859, Note_off_c, 0, 68, 0
2, 16860, Note_on_c, 0, 65, 88
2, 16919, Note_off_c, 0, 65, 0
2, 16920, Note_on_c, 0, 66, 88
2, 17339, Note_off_c, 0, 66, 0
2, 17340, Note_on_c, 0, 58, 88
2, 17399, Note_off_c, 0, 58, 0
2, 17400, Note_on_c, 0, 59, 88
2, 17519, Note_off_c, 0, 59, 0
2, 17520, Note_on_c, 0, 61, 88
2, 17579, Note_off_c, 0, 61, 0
2, 17580, Note_on_c, 0, 58, 88
2, 17699, Note_off_c, 0, 58, 0
2, 17700, Note_on_c, 0, 63, 88
2, 17759, Note_off_c, 0, 63, 0
2, 17760, Note_on_c, 0, 56, 88
2, 17879, Note_off_c, 0, 56, 0
2, 17880, Note_on_c, 0, 58, 88
2, 17939, Note_off_c, 0, 58, 0
2, 17940, Note_on_c, 0, 54, 88
2, 17999, Note_off_c, 0, 54, 0
2, 18000, Note_on_c, 0, 59, 88
2, 18419, Note_off_c, 0, 59, 0
2, 18420, Note_on_c, 0, 65, 88
2, 18479, Note_off_c, 0, 65, 0
2, 18480, Note_on_c, 0, 68, 88
2, 18539, Note_off_c, 0, 68, 0
2, 18540, Note_on_c, 0, 65, 88
2, 18599, Note_off_c, 0, 65, 0
2, 18600, Note_on_c, 0, 59, 88
2, 18659, Note_off_c, 0, 59, 0
2, 18660, Note_on_c, 0, 68, 88
2, 18719, Note_off_c, 0, 68, 0
2, 18720, Note_on_c, 0, 57, 88
2, 18779, Note_off_c, 0, 57, 0
2, 18780, Note_on_c, 0, 61, 88
2, 18839, Note_off_c, 0, 61, 0
2, 18840, Note_on_c, 0, 66, 88
2, 18899, Note_off_c, 0, 66, 0
2, 18900, Note_on_c, 0, 59, 88
2, 18959, Note_off_c, 0, 59, 0
2, 18960, Note_on_c, 0, 65, 88
2, 19019, Note_off_c, 0, 65, 0
2, 19020, Note_on_c, 0, 68, 88
2, 19079, Note_off_c, 0, 68, 0
2, 19080, Note_on_c, 0, 61, 88
2, 19139, Note_off_c, 0, 61, 0
2, 19140, Note_on_c, 0, 66, 88
2, 19199, Note_off_c, 0, 66, 0
2, 19200, Note_on_c, 0, 69, 88
2, 19259, Note_off_c, 0, 69, 0
2, 19260, Note_on_c, 0, 62, 88
2, 19319, Note_off_c, 0, 62, 0
2, 19320, Note_on_c, 0, 68, 88
2, 19379, Note_off_c, 0, 68, 0
2, 19380, Note_on_c, 0, 71, 88
2, 19439, Note_off_c, 0, 71, 0
2, 19440, Note_on_c, 0, 65, 88
2, 19499, Note_off_c, 0, 65, 0
2, 19500, Note_on_c, 0, 71, 88
2, 19559, Note_off_c, 0, 71, 0
2, 19560, Note_on_c, 0, 74, 88
2, 19679, Note_off_c, 0, 74, 0
2, 19680, Note_on_c, 0, 71, 88
2, 19739, Note_off_c, 0, 71, 0
2, 19740, Note_on_c, 0, 77, 88
2, 19859, Note_off_c, 0, 77, 0
2, 19860, Note_on_c, 0, 74, 88
2, 19919, Note_off_c, 0, 74, 0
2, 19920, Note_on_c, 0, 80, 88
2, 20039, Note_off_c, 0, 80, 0
2, 20040, Note_on_c, 0, 77, 88
2, 20099, Note_off_c, 0, 77, 0
2, 20100, Note_on_c, 0, 83, 88
2, 20159, Note_off_c, 0, 83, 0
2, 20160, Note_on_c, 0, 82, 88
2, 20219, Note_off_c, 0, 82, 0
2, 20220, Note_on_c, 0, 73, 88
2, 20279, Note_off_c, 0, 73, 0
2, 20280, Note_on_c, 0, 78, 88
2, 20399, Note_off_c, 0, 78, 0
2, 20400, Note_on_c, 0, 80, 88
2, 20459, Note_off_c, 0, 80, 0
2, 20460, Note_on_c, 0, 77, 88
2, 20519, Note_off_c, 0, 77, 0
2, 20520, Note_on_c, 0, 78, 88
2, 20579, Note_off_c, 0, 78, 0
2, 20580, Note_on_c, 0, 70, 88
2, 20639, Note_off_c, 0, 70, 0
2, 20640, Note_on_c, 0, 78, 88
2, 20699, Note_off_c, 0, 78, 0
2, 20700, Note_on_c, 0, 78, 88
2, 20759, Note_off_c, 0, 78, 0
2, 20760, Note_on_c, 0, 82, 88
2, 20789, Note_off_c, 0, 82, 0
2, 20790, Note_on_c, 0, 80, 88
2, 20819, Note_off_c, 0, 80, 0
2, 20820, Note_on_c, 0, 78, 88
2, 20939, Note_off_c, 0, 78, 0
2, 20940, Note_on_c, 0, 68, 88
2, 20999, Note_off_c, 0, 68, 0
2, 21000, Note_on_c, 0, 78, 88
2, 21119, Note_off_c, 0, 78, 0
2, 21120, Note_on_c, 0, 80, 88
2, 21179, Note_off_c, 0, 80, 0
2, 21180, Note_on_c, 0, 77, 88
2, 21239, Note_off_c, 0, 77, 0
2, 21240, Note_on_c, 0, 78, 88
2, 21299, Note_off_c, 0, 78, 0
2, 21300, Note_on_c, 0, 73, 88
2, 21359, Note_off_c, 0, 73, 0
2, 21360, Note_on_c, 0, 70, 88
2, 21419, Note_off_c, 0, 70, 0
2, 21420, Note_on_c, 0, 66, 88
2, 21460, Note_off_c, 0, 66, 0
2, 21460, End_track
0, 0, End_of_file