0, 0, Header, 1, 2, 240
1, 0, Start_track
1, 0, Time_signature, 4, 2, 24, 8
1, 0, Tempo, 697674
1, 0, SMPTE_offset, 64, 0, 0, 0, 100
1, 0, End_track
2, 0, Start_track
2, 0, Title_t, "Track 1"
2, 0, Program_c, 0, 6
2, 0, Note_on_c, 0, 67, 88
2, 59, Note_off_c, 0, 67, 0
2, 60, Note_on_c, 0, 74, 88
2, 119, Note_off_c, 0, 74, 0
2, 120, Note_on_c, 0, 66, 88
2, 179, Note_off_c, 0, 66, 0
2, 180, Note_on_c, 0, 74, 88
2, 239, Note_off_c, 0, 74, 0
2, 240, Note_on_c, 0, 67, 88
2, 299, Note_off_c, 0, 67, 0
2, 300, Note_on_c, 0, 74, 88
2, 359, Note_off_c, 0, 74, 0
2, 360, Note_on_c, 0, 69, 88
2, 419, Note_off_c, 0, 69, 0
2, 420, Note_on_c, 0, 74, 88
2, 479, Note_off_c, 0, 74, 0
2, 480, Note_on_c, 0, 71, 88
2, 539, Note_off_c, 0, 71, 0
2, 540, Note_on_c, 0, 74, 88
2, 599, Note_off_c, 0, 74, 0
2, 600, Note_on_c, 0, 72, 88
2, 659, Note_off_c, 0, 72, 0
2, 660, Note_on_c, 0, 74, 88
2, 719, Note_off_c, 0, 74, 0
2, 720, Note_on_c, 0, 71, 88
2, 779, Note_off_c, 0, 71, 0
2, 780, Note_on_c, 0, 74, 88
2, 839, Note_off_c, 0, 74, 0
2, 840, Note_on_c, 0, 69, 88
2, 899, Note_off_c, 0, 69, 0
2, 900, Note_on_c, 0, 74, 88
2, 959, Note_off_c, 0, 74, 0
2, 960, Note_on_c, 0, 67, 88
2, 1019, Note_off_c, 0, 67, 0
2, 1020, Note_on_c, 0, 74, 88
2, 1079, Note_off_c, 0, 74, 0
2, 1080, Note_on_c, 0, 72, 88
2, 1139, Note_off_c, 0, 72, 0
2, 1140, Note_on_c, 0, 74, 88
2, 1199, Note_off_c, 0, 74, 0
2, 1200, Note_on_c, 0, 71, 88
2, 1259, Note_off_c, 0, 71, 0
2, 1260, Note_on_c, 0, 74, 88
2, 1319, Note_off_c, 0, 74, 0
2, 1320, Note_on_c, 0, 69, 88
2, 1379, Note_off_c, 0, 69, 0
2, 1380, Note_on_c, 0, 74, 88
2, 1439, Note_off_c, 0, 74, 0
2, 1440, Note_on_c, 0, 71, 88
2, 1499, Note_off_c, 0, 71, 0
2, 1500, Note_on_c, 0, 74, 88
2, 1559, Note_off_c, 0, 74, 0
2, 1560, Note_on_c, 0, 69, 88
2, 1619, Note_off_c, 0, 69, 0
2, 1620, Note_on_c, 0, 74, 88
2, 1679, Note_off_c, 0, 74, 0
2, 1680, Note_on_c, 0, 67, 88
2, 1739, Note_off_c, 0, 67, 0
2, 1740, Note_on_c, 0, 74, 88
2, 1799, Note_off_c, 0, 74, 0
2, 1800, Note_on_c, 0, 71, 88
2, 1859, Note_off_c, 0, 71, 0
2, 1860, Note_on_c, 0, 74, 88
2, 1919, Note_off_c, 0, 74, 0
2, 1920, Note_on_c, 0, 69, 88
2, 1979, Note_off_c, 0, 69, 0
2, 1980, Note_on_c, 0, 74, 88
2, 2039, Note_off_c, 0, 74, 0
2, 2040, Note_on_c, 0, 67, 88
2, 2099, Note_off_c, 0, 67, 0
2, 2100, Note_on_c, 0, 74, 88
2, 4439, Note_off_c, 0, 74, 0
2, 4440, Note_on_c, 0, 71, 88
2, 4559, Note_off_c, 0, 71, 0
2, 4560, Note_on_c, 0, 72, 88
2, 4679, Note_off_c, 0, 72, 0
2, 4680, Note_on_c, 0, 74, 88
2, 4799, Note_off_c, 0, 74, 0
2, 4800, Note_on_c, 0, 76, 88
2, 4919, Note_off_c, 0, 76, 0
2, 4920, Note_on_c, 0, 78, 88
2, 5039, Note_off_c, 0, 78, 0
2, 5040, Note_on_c, 0, 67, 88
2, 5099, Note_off_c, 0, 67, 0
2, 5100, Note_on_c, 0, 79, 88
2, 5159, Note_off_c, 0, 79, 0
2, 5160, Note_on_c, 0, 78, 88
2, 5219, Note_off_c, 0, 78, 0
2, 5220, Note_on_c, 0, 79, 88
2, 5279, Note_off_c, 0, 79, 0
2, 5280, Note_on_c, 0, 67, 88
2, 5339, Note_off_c, 0, 67, 0
2, 5340, Note_on_c, 0, 79, 88
2, 5399, Note_off_c, 0, 79, 0
2, 5400, Note_on_c, 0, 69, 88
2, 5459, Note_off_c, 0, 69, 0
2, 5460, Note_on_c, 0, 79, 88
2, 5519, Note_off_c, 0, 79, 0
2, 5520, Note_on_c, 0, 71, 88
2, 5579, Note_off_c, 0, 71, 0
2, 5580, Note_on_c, 0, 79, 88
2, 5639, Note_off_c, 0, 79, 0
2, 5640, Note_on_c, 0, 73, 88
2, 5699, Note_off_c, 0, 73, 0
2, 5700, Note_on_c, 0, 79, 88
2, 5759, Note_off_c, 0, 79, 0
2, 5760, Note_on_c, 0, 78, 88
2, 5819, Note_off_c, 0, 78, 0
2, 5820, Note_on_c, 0, 74, 88
2, 5879, Note_off_c, 0, 74, 0
2, 5880, Note_on_c, 0, 73, 88
2, 5939, Note_off_c, 0, 73, 0
2, 5940, Note_on_c, 0, 74, 88
2, 5999, Note_off_c, 0, 74, 0
2, 6000, Note_on_c, 0, 83, 88
2, 6059, Note_off_c, 0, 83, 0
2, 6060, Note_on_c, 0, 71, 88
2, 6119, Note_off_c, 0, 71, 0
2, 6120, Note_on_c, 0, 81, 88
2, 6179, Note_off_c, 0, 81, 0
2, 6180, Note_on_c, 0, 71, 88
2, 6239, Note_off_c, 0, 71, 0
2, 6240, Note_on_c, 0, 79, 88
2, 6299, Note_off_c, 0, 79, 0
2, 6300, Note_on_c, 0, 71, 88
2, 6359, Note_off_c, 0, 71, 0
2, 6360, Note_on_c, 0, 78, 88
2, 6419, Note_off_c, 0, 78, 0
2, 6420, Note_on_c, 0, 71, 88
2, 6479, Note_off_c, 0, 71, 0
2, 6480, Note_on_c, 0, 76, 88
2, 6539, Note_off_c, 0, 76, 0
2, 6540, Note_on_c, 0, 73, 88
2, 6599, Note_off_c, 0, 73, 0
2, 6600, Note_on_c, 0, 71, 88
2, 6659, Note_off_c, 0, 71, 0
2, 6660, Note_on_c, 0, 73, 88
2, 6719, Note_off_c, 0, 73, 0
2, 6720, Note_on_c, 0, 81, 88
2, 6779, Note_off_c, 0, 81, 0
2, 6780, Note_on_c, 0, 69, 88
2, 6839, Note_off_c, 0, 69, 0
2, 6840, Note_on_c, 0, 79, 88
2, 6899, Note_off_c, 0, 79, 0
2, 6900, Note_on_c, 0, 69, 88
2, 6959, Note_off_c, 0, 69, 0
2, 6960, Note_on_c, 0, 78, 88
2, 7019, Note_off_c, 0, 78, 0
2, 7020, Note_on_c, 0, 69, 88
2, 7079, Note_off_c, 0, 69, 0
2, 7080, Note_on_c, 0, 76, 88
2, 7139, Note_off_c, 0, 76, 0
2, 7140, Note_on_c, 0, 69, 88
2, 7199, Note_off_c, 0, 69, 0
2, 7200, Note_on_c, 0, 74, 88
2, 7259, Note_off_c, 0, 74, 0
2, 7260, Note_on_c, 0, 71, 88
2, 7319, Note_off_c, 0, 71, 0
2, 7320, Note_on_c, 0, 69, 88
2, 7379, Note_off_c, 0, 69, 0
2, 7380, Note_on_c, 0, 71, 88
2, 7439, Note_off_c, 0, 71, 0
2, 7440, Note_on_c, 0, 79, 88
2, 7499, Note_off_c, 0, 79, 0
2, 7500, Note_on_c, 0, 67, 88
2, 7559, Note_off_c, 0, 67, 0
2, 7560, Note_on_c, 0, 78, 88
2, 7619, Note_off_c, 0, 78, 0
2, 7620, Note_on_c, 0, 67, 88
2, 7679, Note_off_c, 0, 67, 0
2, 7680, Note_on_c, 0, 76, 88
2, 7739, Note_off_c, 0, 76, 0
2, 7740, Note_on_c, 0, 67, 88
2, 7799, Note_off_c, 0, 67, 0
2, 7800, Note_on_c, 0, 74, 88
2, 7859, Note_off_c, 0, 74, 0
2, 7860, Note_on_c, 0, 67, 88
2, 7919, Note_off_c, 0, 67, 0
2, 7920, Note_on_c, 0, 73, 88
2, 7979, Note_off_c, 0, 73, 0
2, 7980, Note_on_c, 0, 67, 88
2, 8039, Note_off_c, 0, 67, 0
2, 8040, Note_on_c, 0, 74, 88
2, 8099, Note_off_c, 0, 74, 0
2, 8100, Note_on_c, 0, 67, 88
2, 8159, Note_off_c, 0, 67, 0
2, 8160, Note_on_c, 0, 76, 88
2, 8219, Note_off_c, 0, 76, 0
2, 8220, Note_on_c, 0, 67, 88
2, 8279, Note_off_c, 0, 67, 0
2, 8280, Note_on_c, 0, 74, 88
2, 8339, Note_off_c, 0, 74, 0
2, 8340, Note_on_c, 0, 67, 88
2, 8399, Note_off_c, 0, 67, 0
2, 8400, Note_on_c, 0, 73, 88
2, 8459, Note_off_c, 0, 73, 0
2, 8460, Note_on_c, 0, 67, 88
2, 8519, Note_off_c, 0, 67, 0
2, 8520, Note_on_c, 0, 71, 88
2, 8579, Note_off_c, 0, 71, 0
2, 8580, Note_on_c, 0, 67, 88
2, 8639, Note_off_c, 0, 67, 0
2, 8640, Note_on_c, 0, 69, 88
2, 8699, Note_off_c, 0, 69, 0
2, 8700, Note_on_c, 0, 67, 88
2, 8759, Note_off_c, 0, 67, 0
2, 8760, Note_on_c, 0, 66, 88
2, 8819, Note_off_c, 0, 66, 0
2, 8820, Note_on_c, 0, 64, 88
2, 8879, Note_off_c, 0, 64, 0
2, 8880, Note_on_c, 0, 66, 88
2, 8999, Note_off_c, 0, 66, 0
2, 9000, Note_on_c, 0, 74, 88
2, 9119, Note_off_c, 0, 74, 0
2, 9120, Note_on_c, 0, 64, 88
2, 9239, Note_off_c, 0, 64, 0
2, 9240, Note_on_c, 0, 73, 88
2, 9359, Note_off_c, 0, 73, 0
2, 9360, Note_on_c, 0, 62, 88
2, 9419, Note_off_c, 0, 62, 0
2, 9420, Note_on_c, 0, 64, 88
2, 9479, Note_off_c, 0, 64, 0
2, 9480, Note_on_c, 0, 65, 88
2, 9539, Note_off_c, 0, 65, 0
2, 9540, Note_on_c, 0, 62, 88
2, 9599, Note_off_c, 0, 62, 0
2, 9600, Note_on_c, 0, 68, 88
2, 9659, Note_off_c, 0, 68, 0
2, 9660, Note_on_c, 0, 62, 88
2, 9719, Note_off_c, 0, 62, 0
2, 9720, Note_on_c, 0, 69, 88
2, 9779, Note_off_c, 0, 69, 0
2, 9780, Note_on_c, 0, 62, 88
2, 9839, Note_off_c, 0, 62, 0
2, 9840, Note_on_c, 0, 71, 88
2, 9899, Note_off_c, 0, 71, 0
2, 9900, Note_on_c, 0, 62, 88
2, 9959, Note_off_c, 0, 62, 0
2, 9960, Note_on_c, 0, 61, 88
2, 10019, Note_off_c, 0, 61, 0
2, 10020, Note_on_c, 0, 59, 88
2, 10079, Note_off_c, 0, 59, 0
2, 10080, Note_on_c, 0, 61, 88
2, 10139, Note_off_c, 0, 61, 0
2, 10140, Note_on_c, 0, 64, 88
2, 10199, Note_off_c, 0, 64, 0
2, 10200, Note_on_c, 0, 69, 88
2, 10439, Note_off_c, 0, 69, 0
2, 10440, Note_on_c, 0, 67, 88
2, 10499, Note_off_c, 0, 67, 0
2, 10500, Note_on_c, 0, 66, 88
2, 10559, Note_off_c, 0, 66, 0
2, 10560, Note_on_c, 0, 67, 88
2, 10619, Note_off_c, 0, 67, 0
2, 10620, Note_on_c, 0, 66, 88
2, 10679, Note_off_c, 0, 66, 0
2, 10680, Note_on_c, 0, 64, 88
2, 10739, Note_off_c, 0, 64, 0
2, 10740, Note_on_c, 0, 66, 88
2, 10799, Note_off_c, 0, 66, 0
2, 10800, Note_on_c, 0, 62, 88
2, 10919, Note_off_c, 0, 62, 0
2, 10920, Note_on_c, 0, 61, 88
2, 10979, Note_off_c, 0, 61, 0
2, 10980, Note_on_c, 0, 59, 88
2, 11039, Note_off_c, 0, 59, 0
2, 11040, Note_on_c, 0, 57, 88
2, 11099, Note_off_c, 0, 57, 0
2, 11100, Note_on_c, 0, 55, 88
2, 11159, Note_off_c, 0, 55, 0
2, 11160, Note_on_c, 0, 54, 88
2, 11219, Note_off_c, 0, 54, 0
2, 11220, Note_on_c, 0, 52, 88
2, 11279, Note_off_c, 0, 52, 0
2, 11280, Note_on_c, 0, 50, 88
2, 11302, Note_off_c, 0, 50, 0
2, 11303, Note_on_c, 0, 49, 88
2, 11339, Note_off_c, 0, 49, 0
2, 11340, Note_on_c, 0, 50, 88
2, 11519, Note_off_c, 0, 50, 0
2, 11520, Note_on_c, 0, 67, 88
2, 11579, Note_off_c, 0, 67, 0
2, 11580, Note_on_c, 0, 74, 88
2, 11639, Note_off_c, 0, 74, 0
2, 11640, Note_on_c, 0, 66, 88
2, 11699, Note_off_c, 0, 66, 0
2, 11700, Note_on_c, 0, 74, 88
2, 11759, Note_off_c, 0, 74, 0
2, 11760, Note_on_c, 0, 67, 88
2, 11819, Note_off_c, 0, 67, 0
2, 11820, Note_on_c, 0, 74, 88
2, 11879, Note_off_c, 0, 74, 0
2, 11880, Note_on_c, 0, 69, 88
2, 11939, Note_off_c, 0, 69, 0
2, 11940, Note_on_c, 0, 74, 88
2, 11999, Note_off_c, 0, 74, 0
2, 12000, Note_on_c, 0, 71, 88
2, 12059, Note_off_c, 0, 71, 0
2, 12060, Note_on_c, 0, 74, 88
2, 12119, Note_off_c, 0, 74, 0
2, 12120, Note_on_c, 0, 72, 88
2, 12179, Note_off_c, 0, 72, 0
2, 12180, Note_on_c, 0, 74, 88
2, 12239, Note_off_c, 0, 74, 0
2, 12240, Note_on_c, 0, 71, 88
2, 12299, Note_off_c, 0, 71, 0
2, 12300, Note_on_c, 0, 74, 88
2, 12359, Note_off_c, 0, 74, 0
2, 12360, Note_on_c, 0, 69, 88
2, 12419, Note_off_c, 0, 69, 0
2, 12420, Note_on_c, 0, 74, 88
2, 12479, Note_off_c, 0, 74, 0
2, 12480, Note_on_c, 0, 67, 88
2, 12539, Note_off_c, 0, 67, 0
2, 12540, Note_on_c, 0, 74, 88
2, 12599, Note_off_c, 0, 74, 0
2, 12600, Note_on_c, 0, 72, 88
2, 12659, Note_off_c, 0, 72, 0
2, 12660, Note_on_c, 0, 74, 88
2, 12719, Note_off_c, 0, 74, 0
2, 12720, Note_on_c, 0, 71, 88
2, 12779, Note_off_c, 0, 71, 0
2, 12780, Note_on_c, 0, 74, 88
2, 12839, Note_off_c, 0, 74, 0
2, 12840, Note_on_c, 0, 69, 88
2, 12899, Note_off_c, 0, 69, 0
2, 12900, Note_on_c, 0, 74, 88
2, 12959, Note_off_c, 0, 74, 0
2, 12960, Note_on_c, 0, 71, 88
2, 13019, Note_off_c, 0, 71, 0
2, 13020, Note_on_c, 0, 74, 88
2, 13079, Note_off_c, 0, 74, 0
2, 13080, Note_on_c, 0, 69, 88
2, 13139, Note_off_c, 0, 69, 0
2, 13140, Note_on_c, 0, 74, 88
2, 13199, Note_off_c, 0, 74, 0
2, 13200, Note_on_c, 0, 67, 88
2, 13259, Note_off_c, 0, 67, 0
2, 13260, Note_on_c, 0, 74, 88
2, 13319, Note_off_c, 0, 74, 0
2, 13320, Note_on_c, 0, 71, 88
2, 13379, Note_off_c, 0, 71, 0
2, 13380, Note_on_c, 0, 74, 88
2, 13439, Note_off_c, 0, 74, 0
2, 13440, Note_on_c, 0, 69, 88
2, 13499, Note_off_c, 0, 69, 0
2, 13500, Note_on_c, 0, 74, 88
2, 13559, Note_off_c, 0, 74, 0
2, 13560, Note_on_c, 0, 67, 88
2, 13619, Note_off_c, 0, 67, 0
2, 13620, Note_on_c, 0, 74, 88
2, 15959, Note_off_c, 0, 74, 0
2, 15960, Note_on_c, 0, 71, 88
2, 16079, Note_off_c, 0, 71, 0
2, 16080, Note_on_c, 0, 72, 88
2, 16199, Note_off_c, 0, 72, 0
2, 16200, Note_on_c, 0, 74, 88
2, 16319, Note_off_c, 0, 74, 0
2, 16320, Note_on_c, 0, 76, 88
2, 16439, Note_off_c, 0, 76, 0
2, 16440, Note_on_c, 0, 78, 88
2, 16559, Note_off_c, 0, 78, 0
2, 16560, Note_on_c, 0, 67, 88
2, 16619, Note_off_c, 0, 67, 0
2, 16620, Note_on_c, 0, 79, 88
2, 16679, Note_off_c, 0, 79, 0
2, 16680, Note_on_c, 0, 78, 88
2, 16739, Note_off_c, 0, 78, 0
2, 16740, Note_on_c, 0, 79, 88
2, 16799, Note_off_c, 0, 79, 0
2, 16800, Note_on_c, 0, 67, 88
2, 16859, Note_off_c, 0, 67, 0
2, 16860, Note_on_c, 0, 79, 88
2, 16919, Note_off_c, 0, 79, 0
2, 16920, Note_on_c, 0, 69, 88
2, 16979, Note_off_c, 0, 69, 0
2, 16980, Note_on_c, 0, 79, 88
2, 17039, Note_off_c, 0, 79, 0
2, 17040, Note_on_c, 0, 71, 88
2, 17099, Note_off_c, 0, 71, 0
2, 17100, Note_on_c, 0, 79, 88
2, 17159, Note_off_c, 0, 79, 0
2, 17160, Note_on_c, 0, 73, 88
2, 17219, Note_off_c, 0, 73, 0
2, 17220, Note_on_c, 0, 79, 88
2, 17279, Note_off_c, 0, 79, 0
2, 17280, Note_on_c, 0, 78, 88
2, 17339, Note_off_c, 0, 78, 0
2, 17340, Note_on_c, 0, 74, 88
2, 17399, Note_off_c, 0, 74, 0
2, 17400, Note_on_c, 0, 73, 88
2, 17459, Note_off_c, 0, 73, 0
2, 17460, Note_on_c, 0, 74, 88
2, 17519, Note_off_c, 0, 74, 0
2, 17520, Note_on_c, 0, 83, 88
2, 17579, Note_off_c, 0, 83, 0
2, 17580, Note_on_c, 0, 71, 88
2, 17639, Note_off_c, 0, 71, 0
2, 17640, Note_on_c, 0, 81, 88
2, 17699, Note_off_c, 0, 81, 0
2, 17700, Note_on_c, 0, 71, 88
2, 17759, Note_off_c, 0, 71, 0
2, 17760, Note_on_c, 0, 79, 88
2, 17819, Note_off_c, 0, 79, 0
2, 17820, Note_on_c, 0, 71, 88
2, 17879, Note_off_c, 0, 71, 0
2, 17880, Note_on_c, 0, 78, 88
2, 17939, Note_off_c, 0, 78, 0
2, 17940, Note_on_c, 0, 71, 88
2, 17999, Note_off_c, 0, 71, 0
2, 18000, Note_on_c, 0, 76, 88
2, 18059, Note_off_c, 0, 76, 0
2, 18060, Note_on_c, 0, 73, 88
2, 18119, Note_off_c, 0, 73, 0
2, 18120, Note_on_c, 0, 71, 88
2, 18179, Note_off_c, 0, 71, 0
2, 18180, Note_on_c, 0, 73, 88
2, 18239, Note_off_c, 0, 73, 0
2, 18240, Note_on_c, 0, 81, 88
2, 18299, Note_off_c, 0, 81, 0
2, 18300, Note_on_c, 0, 69, 88
2, 18359, Note_off_c, 0, 69, 0
2, 18360, Note_on_c, 0, 79, 88
2, 18419, Note_off_c, 0, 79, 0
2, 18420, Note_on_c, 0, 69, 88
2, 18479, Note_off_c, 0, 69, 0
2, 18480, Note_on_c, 0, 78, 88
2, 18539, Note_off_c, 0, 78, 0
2, 18540, Note_on_c, 0, 69, 88
2, 18599, Note_off_c, 0, 69, 0
2, 18600, Note_on_c, 0, 76, 88
2, 18659, Note_off_c, 0, 76, 0
2, 18660, Note_on_c, 0, 69, 88
2, 18719, Note_off_c, 0, 69, 0
2, 18720, Note_on_c, 0, 74, 88
2, 18779, Note_off_c, 0, 74, 0
2, 18780, Note_on_c, 0, 71, 88
2, 18839, Note_off_c, 0, 71, 0
2, 18840, Note_on_c, 0, 69, 88
2, 18899, Note_off_c, 0, 69, 0
2, 18900, Note_on_c, 0, 71, 88
2, 18959, Note_off_c, 0, 71, 0
2, 18960, Note_on_c, 0, 79, 88
2, 19019, Note_off_c, 0, 79, 0
2, 19020, Note_on_c, 0, 67, 88
2, 19079, Note_off_c, 0, 67, 0
2, 19080, Note_on_c, 0, 78, 88
2, 19139, Note_off_c, 0, 78, 0
2, 19140, Note_on_c, 0, 67, 88
2, 19199, Note_off_c, 0, 67, 0
2, 19200, Note_on_c, 0, 76, 88
2, 19259, Note_off_c, 0, 76, 0
2, 19260, Note_on_c, 0, 67, 88
2, 19319, Note_off_c, 0, 67, 0
2, 19320, Note_on_c, 0, 74, 88
2, 19379, Note_off_c, 0, 74, 0
2, 19380, Note_on_c, 0, 67, 88
2, 19439, Note_off_c, 0, 67, 0
2, 19440, Note_on_c, 0, 73, 88
2, 19499, Note_off_c, 0, 73, 0
2, 19500, Note_on_c, 0, 67, 88
2, 19559, Note_off_c, 0, 67, 0
2, 19560, Note_on_c, 0, 74, 88
2, 19619, Note_off_c, 0, 74, 0
2, 19620, Note_on_c, 0, 67, 88
2, 19679, Note_off_c, 0, 67, 0
2, 19680, Note_on_c, 0, 76, 88
2, 19739, Note_off_c, 0, 76, 0
2, 19740, Note_on_c, 0, 67, 88
2, 19799, Note_off_c, 0, 67, 0
2, 19800, Note_on_c, 0, 74, 88
2, 19859, Note_off_c, 0, 74, 0
2, 19860, Note_on_c, 0, 67, 88
2, 19919, Note_off_c, 0, 67, 0
2, 19920, Note_on_c, 0, 73, 88
2, 19979, Note_off_c, 0, 73, 0
2, 19980, Note_on_c, 0, 67, 88
2, 20039, Note_off_c, 0, 67, 0
2, 20040, Note_on_c, 0, 71, 88
2, 20099, Note_off_c, 0, 71, 0
2, 20100, Note_on_c, 0, 67, 88
2, 20159, Note_off_c, 0, 67, 0
2, 20160, Note_on_c, 0, 69, 88
2, 20219, Note_off_c, 0, 69, 0
2, 20220, Note_on_c, 0, 67, 88
2, 20279, Note_off_c, 0, 67, 0
2, 20280, Note_on_c, 0, 66, 88
2, 20339, Note_off_c, 0, 66, 0
2, 20340, Note_on_c, 0, 64, 88
2, 20399, Note_off_c, 0, 64, 0
2, 20400, Note_on_c, 0, 66, 88
2, 20519, Note_off_c, 0, 66, 0
2, 20520, Note_on_c, 0, 74, 88
2, 20639, Note_off_c, 0, 74, 0
2, 20640, Note_on_c, 0, 64, 88
2, 20759, Note_off_c, 0, 64, 0
2, 20760, Note_on_c, 0, 73, 88
2, 20879, Note_off_c, 0, 73, 0
2, 20880, Note_on_c, 0, 62, 88
2, 20939, Note_off_c, 0, 62, 0
2, 20940, Note_on_c, 0, 64, 88
2, 20999, Note_off_c, 0, 64, 0
2, 21000, Note_on_c, 0, 65, 88
2, 21059, Note_off_c, 0, 65, 0
2, 21060, Note_on_c, 0, 62, 88
2, 21119, Note_off_c, 0, 62, 0
2, 21120, Note_on_c, 0, 68, 88
2, 21179, Note_off_c, 0, 68, 0
2, 21180, Note_on_c, 0, 62, 88
2, 21239, Note_off_c, 0, 62, 0
2, 21240, Note_on_c, 0, 69, 88
2, 21299, Note_off_c, 0, 69, 0
2, 21300, Note_on_c, 0, 62, 88
2, 21359, Note_off_c, 0, 62, 0
2, 21360, Note_on_c, 0, 71, 88
2, 21419, Note_off_c, 0, 71, 0
2, 21420, Note_on_c, 0, 62, 88
2, 21479, Note_off_c, 0, 62, 0
2, 21480, Note_on_c, 0, 61, 88
2, 21539, Note_off_c, 0, 61, 0
2, 21540, Note_on_c, 0, 59, 88
2, 21599, Note_off_c, 0, 59, 0
2, 21600, Note_on_c, 0, 61, 88
2, 21659, Note_off_c, 0, 61, 0
2, 21660, Note_on_c, 0, 64, 88
2, 21719, Note_off_c, 0, 64, 0
2, 21720, Note_on_c, 0, 69, 88
2, 21959, Note_off_c, 0, 69, 0
2, 21960, Note_on_c, 0, 67, 88
2, 22019, Note_off_c, 0, 67, 0
2, 22020, Note_on_c, 0, 66, 88
2, 22079, Note_off_c, 0, 66, 0
2, 22080, Note_on_c, 0, 67, 88
2, 22139, Note_off_c, 0, 67, 0
2, 22140, Note_on_c, 0, 66, 88
2, 22199, Note_off_c, 0, 66, 0
2, 22200, Note_on_c, 0, 64, 88
2, 22259, Note_off_c, 0, 64, 0
2, 22260, Note_on_c, 0, 66, 88
2, 22319, Note_off_c, 0, 66, 0
2, 22320, Note_on_c, 0, 62, 88
2, 22439, Note_off_c, 0, 62, 0
2, 22440, Note_on_c, 0, 61, 88
2, 22499, Note_off_c, 0, 61, 0
2, 22500, Note_on_c, 0, 59, 88
2, 22559, Note_off_c, 0, 59, 0
2, 22560, Note_on_c, 0, 57, 88
2, 22619, Note_off_c, 0, 57, 0
2, 22620, Note_on_c, 0, 55, 88
2, 22679, Note_off_c, 0, 55, 0
2, 22680, Note_on_c, 0, 54, 88
2, 22739, Note_off_c, 0, 54, 0
2, 22740, Note_on_c, 0, 52, 88
2, 22799, Note_off_c, 0, 52, 0
2, 22800, Note_on_c, 0, 50, 88
2, 22822, Note_off_c, 0, 50, 0
2, 22823, Note_on_c, 0, 49, 88
2, 22859, Note_off_c, 0, 49, 0
2, 22860, Note_on_c, 0, 50, 88
2, 23039, Note_off_c, 0, 50, 0
2, 23040, Note_on_c, 0, 66, 88
2, 23099, Note_off_c, 0, 66, 0
2, 23100, Note_on_c, 0, 62, 88
2, 23159, Note_off_c, 0, 62, 0
2, 23160, Note_on_c, 0, 64, 88
2, 23219, Note_off_c, 0, 64, 0
2, 23220, Note_on_c, 0, 62, 88
2, 23279, Note_off_c, 0, 62, 0
2, 23280, Note_on_c, 0, 66, 88
2, 23339, Note_off_c, 0, 66, 0
2, 23340, Note_on_c, 0, 62, 88
2, 23399, Note_off_c, 0, 62, 0
2, 23400, Note_on_c, 0, 67, 88
2, 23459, Note_off_c, 0, 67, 0
2, 23460, Note_on_c, 0, 62, 88
2, 23519, Note_off_c, 0, 62, 0
2, 23520, Note_on_c, 0, 69, 88
2, 23579, Note_off_c, 0, 69, 0
2, 23580, Note_on_c, 0, 62, 88
2, 23639, Note_off_c, 0, 62, 0
2, 23640, Note_on_c, 0, 67, 88
2, 23699, Note_off_c, 0, 67, 0
2, 23700, Note_on_c, 0, 62, 88
2, 23759, Note_off_c, 0, 62, 0
2, 23760, Note_on_c, 0, 66, 88
2, 23819, Note_off_c, 0, 66, 0
2, 23820, Note_on_c, 0, 62, 88
2, 23879, Note_off_c, 0, 62, 0
2, 23880, Note_on_c, 0, 64, 88
2, 23939, Note_off_c, 0, 64, 0
2, 23940, Note_on_c, 0, 62, 88
2, 23999, Note_off_c, 0, 62, 0
2, 24000, Note_on_c, 0, 66, 88
2, 24059, Note_off_c, 0, 66, 0
2, 24060, Note_on_c, 0, 62, 88
2, 24119, Note_off_c, 0, 62, 0
2, 24120, Note_on_c, 0, 67, 88
2, 24179, Note_off_c, 0, 67, 0
2, 24180, Note_on_c, 0, 62, 88
2, 24239, Note_off_c, 0, 62, 0
2, 24240, Note_on_c, 0, 69, 88
2, 24299, Note_off_c, 0, 69, 0
2, 24300, Note_on_c, 0, 62, 88
2, 24359, Note_off_c, 0, 62, 0
2, 24360, Note_on_c, 0, 66, 88
2, 24419, Note_off_c, 0, 66, 0
2, 24420, Note_on_c, 0, 62, 88
2, 24479, Note_off_c, 0, 62, 0
2, 24480, Note_on_c, 0, 67, 88
2, 24539, Note_off_c, 0, 67, 0
2, 24540, Note_on_c, 0, 62, 88
2, 24599, Note_off_c, 0, 62, 0
2, 24600, Note_on_c, 0, 66, 88
2, 24659, Note_off_c, 0, 66, 0
2, 24660, Note_on_c, 0, 62, 88
2, 24719, Note_off_c, 0, 62, 0
2, 24720, Note_on_c, 0, 67, 88
2, 24779, Note_off_c, 0, 67, 0
2, 24780, Note_on_c, 0, 62, 88
2, 24839, Note_off_c, 0, 62, 0
2, 24840, Note_on_c, 0, 71, 88
2, 24899, Note_off_c, 0, 71, 0
2, 24900, Note_on_c, 0, 62, 88
2, 24959, Note_off_c, 0, 62, 0
2, 24960, Note_on_c, 0, 69, 88
2, 25019, Note_off_c, 0, 69, 0
2, 25020, Note_on_c, 0, 62, 88
2, 25079, Note_off_c, 0, 62, 0
2, 25080, Note_on_c, 0, 72, 88
2, 25139, Note_off_c, 0, 72, 0
2, 25140, Note_on_c, 0, 62, 88
2, 25199, Note_off_c, 0, 62, 0
2, 25200, Note_on_c, 0, 71, 88
2, 25319, Note_off_c, 0, 71, 0
2, 25320, Note_on_c, 0, 71, 88
2, 25334, Note_off_c, 0, 71, 0
2, 25335, Note_on_c, 0, 69, 88
2, 25357, Note_off_c, 0, 69, 0
2, 25358, Note_on_c, 0, 71, 88
2, 25379, Note_off_c, 0, 71, 0
2, 25380, Note_on_c, 0, 69, 88
2, 25394, Note_off_c, 0, 69, 0
2, 25395, Note_on_c, 0, 71, 88
2, 25409, Note_off_c, 0, 71, 0
2, 25410, Note_on_c, 0, 69, 88
2, 25439, Note_off_c, 0, 69, 0
2, 25440, Note_on_c, 0, 67, 88
2, 25559, Note_off_c, 0, 67, 0
2, 25560, Note_on_c, 0, 69, 88
2, 25679, Note_off_c, 0, 69, 0
2, 25680, Note_on_c, 0, 71, 88
2, 25799, Note_off_c, 0, 71, 0
2, 25800, Note_on_c, 0, 72, 88
2, 25919, Note_off_c, 0, 72, 0
2, 25920, Note_on_c, 0, 74, 88
2, 26039, Note_off_c, 0, 74, 0
2, 26040, Note_on_c, 0, 72, 88
2, 26159, Note_off_c, 0, 72, 0
2, 26160, Note_on_c, 0, 74, 88
2, 26279, Note_off_c, 0, 74, 0
2, 26280, Note_on_c, 0, 76, 88
2, 26399, Note_off_c, 0, 76, 0
2, 26400, Note_on_c, 0, 77, 88
2, 26519, Note_off_c, 0, 77, 0
2, 26520, Note_on_c, 0, 74, 88
2, 26639, Note_off_c, 0, 74, 0
2, 26640, Note_on_c, 0, 76, 88
2, 26759, Note_off_c, 0, 76, 0
2, 26760, Note_on_c, 0, 79, 88
2, 26879, Note_off_c, 0, 79, 0
2, 26880, Note_on_c, 0, 76, 88
2, 26999, Note_off_c, 0, 76, 0
2, 27000, Note_on_c, 0, 72, 88
2, 27119, Note_off_c, 0, 72, 0
2, 27120, Note_on_c, 0, 74, 88
2, 27239, Note_off_c, 0, 74, 0
2, 27240, Note_on_c, 0, 71, 88
2, 27359, Note_off_c, 0, 71, 0
2, 27360, Note_on_c, 0, 72, 88
2, 27419, Note_off_c, 0, 72, 0
2, 27420, Note_on_c, 0, 76, 88
2, 27479, Note_off_c, 0, 76, 0
2, 27480, Note_on_c, 0, 75, 88
2, 27539, Note_off_c, 0, 75, 0
2, 27540, Note_on_c, 0, 76, 88
2, 27599, Note_off_c, 0, 76, 0
2, 27600, Note_on_c, 0, 81, 88
2, 27659, Note_off_c, 0, 81, 0
2, 27660, Note_on_c, 0, 72, 88
2, 27719, Note_off_c, 0, 72, 0
2, 27720, Note_on_c, 0, 79, 88
2, 27779, Note_off_c, 0, 79, 0
2, 27780, Note_on_c, 0, 72, 88
2, 27839, Note_off_c, 0, 72, 0
2, 27840, Note_on_c, 0, 78, 88
2, 27899, Note_off_c, 0, 78, 0
2, 27900, Note_on_c, 0, 72, 88
2, 27959, Note_off_c, 0, 72, 0
2, 27960, Note_on_c, 0, 76, 88
2, 28019, Note_off_c, 0, 76, 0
2, 28020, Note_on_c, 0, 72, 88
2, 28079, Note_off_c, 0, 72, 0
2, 28080, Note_on_c, 0, 75, 88
2, 28139, Note_off_c, 0, 75, 0
2, 28140, Note_on_c, 0, 71, 88
2, 28199, Note_off_c, 0, 71, 0
2, 28200, Note_on_c, 0, 70, 88
2, 28259, Note_off_c, 0, 70, 0
2, 28260, Note_on_c, 0, 71, 88
2, 28319, Note_off_c, 0, 71, 0
2, 28320, Note_on_c, 0, 79, 88
2, 28379, Note_off_c, 0, 79, 0
2, 28380, Note_on_c, 0, 71, 88
2, 28439, Note_off_c, 0, 71, 0
2, 28440, Note_on_c, 0, 78, 88
2, 28499, Note_off_c, 0, 78, 0
2, 28500, Note_on_c, 0, 71, 88
2, 28559, Note_off_c, 0, 71, 0
2, 28560, Note_on_c, 0, 76, 88
2, 28619, Note_off_c, 0, 76, 0
2, 28620, Note_on_c, 0, 71, 88
2, 28679, Note_off_c, 0, 71, 0
2, 28680, Note_on_c, 0, 74, 88
2, 28739, Note_off_c, 0, 74, 0
2, 28740, Note_on_c, 0, 71, 88
2, 28799, Note_off_c, 0, 71, 0
2, 28800, Note_on_c, 0, 72, 88
2, 28859, Note_off_c, 0, 72, 0
2, 28860, Note_on_c, 0, 69, 88
2, 28919, Note_off_c, 0, 69, 0
2, 28920, Note_on_c, 0, 67, 88
2, 28979, Note_off_c, 0, 67, 0
2, 28980, Note_on_c, 0, 69, 88
2, 29039, Note_off_c, 0, 69, 0
2, 29040, Note_on_c, 0, 66, 88
2, 29099, Note_off_c, 0, 66, 0
2, 29100, Note_on_c, 0, 69, 88
2, 29159, Note_off_c, 0, 69, 0
2, 29160, Note_on_c, 0, 64, 88
2, 29219, Note_off_c, 0, 64, 0
2, 29220, Note_on_c, 0, 69, 88
2, 29279, Note_off_c, 0, 69, 0
2, 29280, Note_on_c, 0, 63, 88
2, 29339, Note_off_c, 0, 63, 0
2, 29340, Note_on_c, 0, 69, 88
2, 29399, Note_off_c, 0, 69, 0
2, 29400, Note_on_c, 0, 64, 88
2, 29459, Note_off_c, 0, 64, 0
2, 29460, Note_on_c, 0, 69, 88
2, 29519, Note_off_c, 0, 69, 0
2, 29520, Note_on_c, 0, 66, 88
2, 29639, Note_off_c, 0, 66, 0
2, 29640, Note_on_c, 0, 75, 88
2, 29759, Note_off_c, 0, 75, 0
2, 29760, Note_on_c, 0, 76, 88
2, 29879, Note_off_c, 0, 76, 0
2, 29880, Note_on_c, 0, 79, 88
2, 29909, Note_off_c, 0, 79, 0
2, 29910, Note_on_c, 0, 78, 88
2, 29939, Note_off_c, 0, 78, 0
2, 29940, Note_on_c, 0, 76, 88
2, 29969, Note_off_c, 0, 76, 0
2, 29970, Note_on_c, 0, 78, 88
2, 29999, Note_off_c, 0, 78, 0
2, 30000, Note_on_c, 0, 79, 88
2, 30119, Note_off_c, 0, 79, 0
2, 30120, Note_on_c, 0, 75, 88
2, 30239, Note_off_c, 0, 75, 0
2, 30240, Note_on_c, 0, 76, 88
2, 30299, Note_off_c, 0, 76, 0
2, 30300, Note_on_c, 0, 71, 88
2, 30359, Note_off_c, 0, 71, 0
2, 30360, Note_on_c, 0, 72, 88
2, 30419, Note_off_c, 0, 72, 0
2, 30420, Note_on_c, 0, 69, 88
2, 30479, Note_off_c, 0, 69, 0
2, 30480, Note_on_c, 0, 67, 88
2, 30599, Note_off_c, 0, 67, 0
2, 30600, Note_on_c, 0, 76, 88
2, 30719, Note_off_c, 0, 76, 0
2, 30720, Note_on_c, 0, 66, 88
2, 30839, Note_off_c, 0, 66, 0
2, 30840, Note_on_c, 0, 76, 88
2, 30869, Note_off_c, 0, 76, 0
2, 30870, Note_on_c, 0, 75, 88
2, 30899, Note_off_c, 0, 75, 0
2, 30900, Note_on_c, 0, 73, 88
2, 30929, Note_off_c, 0, 73, 0
2, 30930, Note_on_c, 0, 75, 88
2, 30959, Note_off_c, 0, 75, 0
2, 30960, Note_on_c, 0, 76, 88
2, 31019, Note_off_c, 0, 76, 0
2, 31020, Note_on_c, 0, 71, 88
2, 31079, Note_off_c, 0, 71, 0
2, 31080, Note_on_c, 0, 67, 88
2, 31139, Note_off_c, 0, 67, 0
2, 31140, Note_on_c, 0, 71, 88
2, 31199, Note_off_c, 0, 71, 0
2, 31200, Note_on_c, 0, 64, 88
2, 31499, Note_off_c, 0, 64, 0
2, 31500, Note_on_c, 0, 67, 88
2, 31559, Note_off_c, 0, 67, 0
2, 31560, Note_on_c, 0, 71, 88
2, 31619, Note_off_c, 0, 71, 0
2, 31620, Note_on_c, 0, 74, 88
2, 31679, Note_off_c, 0, 74, 0
2, 31680, Note_on_c, 0, 73, 88
2, 31799, Note_off_c, 0, 73, 0
2, 31800, Note_on_c, 0, 69, 88
2, 31919, Note_off_c, 0, 69, 0
2, 31920, Note_on_c, 0, 73, 88
2, 32039, Note_off_c, 0, 73, 0
2, 32040, Note_on_c, 0, 76, 88
2, 32159, Note_off_c, 0, 76, 0
2, 32160, Note_on_c, 0, 81, 88
2, 32279, Note_off_c, 0, 81, 0
2, 32280, Note_on_c, 0, 79, 88
2, 32399, Note_off_c, 0, 79, 0
2, 32400, Note_on_c, 0, 78, 88
2, 32519, Note_off_c, 0, 78, 0
2, 32520, Note_on_c, 0, 81, 88
2, 32639, Note_off_c, 0, 81, 0
2, 32640, Note_on_c, 0, 78, 88
2, 32759, Note_off_c, 0, 78, 0
2, 32760, Note_on_c, 0, 74, 88
2, 32879, Note_off_c, 0, 74, 0
2, 32880, Note_on_c, 0, 69, 88
2, 32999, Note_off_c, 0, 69, 0
2, 33000, Note_on_c, 0, 72, 88
2, 33119, Note_off_c, 0, 72, 0
2, 33120, Note_on_c, 0, 71, 88
2, 33239, Note_off_c, 0, 71, 0
2, 33240, Note_on_c, 0, 67, 88
2, 33359, Note_off_c, 0, 67, 0
2, 33360, Note_on_c, 0, 71, 88
2, 33479, Note_off_c, 0, 71, 0
2, 33480, Note_on_c, 0, 74, 88
2, 33599, Note_off_c, 0, 74, 0
2, 33600, Note_on_c, 0, 79, 88
2, 33719, Note_off_c, 0, 79, 0
2, 33720, Note_on_c, 0, 77, 88
2, 33839, Note_off_c, 0, 77, 0
2, 33840, Note_on_c, 0, 76, 88
2, 33869, Note_off_c, 0, 76, 0
2, 33870, Note_on_c, 0, 74, 88
2, 33914, Note_off_c, 0, 74, 0
2, 33915, Note_on_c, 0, 76, 88
2, 34139, Note_off_c, 0, 76, 0
2, 34140, Note_on_c, 0, 74, 88
2, 34199, Note_off_c, 0, 74, 0
2, 34200, Note_on_c, 0, 72, 88
2, 34259, Note_off_c, 0, 72, 0
2, 34260, Note_on_c, 0, 71, 88
2, 34319, Note_off_c, 0, 71, 0
2, 34320, Note_on_c, 0, 69, 88
2, 34379, Note_off_c, 0, 69, 0
2, 34380, Note_on_c, 0, 67, 88
2, 34439, Note_off_c, 0, 67, 0
2, 34440, Note_on_c, 0, 66, 88
2, 34499, Note_off_c, 0, 66, 0
2, 34500, Note_on_c, 0, 64, 88
2, 34559, Note_off_c, 0, 64, 0
2, 34560, Note_on_c, 0, 66, 88
2, 34679, Note_off_c, 0, 66, 0
2, 34680, Note_on_c, 0, 74, 88
2, 34694, Note_off_c, 0, 74, 0
2, 34695, Note_on_c, 0, 72, 88
2, 34724, Note_off_c, 0, 72, 0
2, 34725, Note_on_c, 0, 74, 88
2, 34859, Note_off_c, 0, 74, 0
2, 34860, Note_on_c, 0, 72, 88
2, 34919, Note_off_c, 0, 72, 0
2, 34920, Note_on_c, 0, 71, 88
2, 34979, Note_off_c, 0, 71, 0
2, 34980, Note_on_c, 0, 69, 88
2, 35039, Note_off_c, 0, 69, 0
2, 35040, Note_on_c, 0, 67, 88
2, 35099, Note_off_c, 0, 67, 0
2, 35100, Note_on_c, 0, 66, 88
2, 35159, Note_off_c, 0, 66, 0
2, 35160, Note_on_c, 0, 64, 88
2, 35219, Note_off_c, 0, 64, 0
2, 35220, Note_on_c, 0, 62, 88
2, 35279, Note_off_c, 0, 62, 0
2, 35280, Note_on_c, 0, 64, 88
2, 35399, Note_off_c, 0, 64, 0
2, 35400, Note_on_c, 0, 72, 88
2, 35414, Note_off_c, 0, 72, 0
2, 35415, Note_on_c, 0, 71, 88
2, 35444, Note_off_c, 0, 71, 0
2, 35445, Note_on_c, 0, 72, 88
2, 35579, Note_off_c, 0, 72, 0
2, 35580, Note_on_c, 0, 71, 88
2, 35639, Note_off_c, 0, 71, 0
2, 35640, Note_on_c, 0, 69, 88
2, 35699, Note_off_c, 0, 69, 0
2, 35700, Note_on_c, 0, 67, 88
2, 35759, Note_off_c, 0, 67, 0
2, 35760, Note_on_c, 0, 66, 88
2, 35819, Note_off_c, 0, 66, 0
2, 35820, Note_on_c, 0, 64, 88
2, 35879, Note_off_c, 0, 64, 0
2, 35880, Note_on_c, 0, 62, 88
2, 35939, Note_off_c, 0, 62, 0
2, 35940, Note_on_c, 0, 60, 88
2, 35999, Note_off_c, 0, 60, 0
2, 36000, Note_on_c, 0, 62, 88
2, 36059, Note_off_c, 0, 62, 0
2, 36060, Note_on_c, 0, 66, 88
2, 36119, Note_off_c, 0, 66, 0
2, 36120, Note_on_c, 0, 64, 88
2, 36179, Note_off_c, 0, 64, 0
2, 36180, Note_on_c, 0, 62, 88
2, 36239, Note_off_c, 0, 62, 0
2, 36240, Note_on_c, 0, 64, 88
2, 36299, Note_off_c, 0, 64, 0
2, 36300, Note_on_c, 0, 66, 88
2, 36359, Note_off_c, 0, 66, 0
2, 36360, Note_on_c, 0, 67, 88
2, 36419, Note_off_c, 0, 67, 0
2, 36420, Note_on_c, 0, 69, 88
2, 36479, Note_off_c, 0, 69, 0
2, 36480, Note_on_c, 0, 71, 88
2, 36539, Note_off_c, 0, 71, 0
2, 36540, Note_on_c, 0, 69, 88
2, 36599, Note_off_c, 0, 69, 0
2, 36600, Note_on_c, 0, 71, 88
2, 36659, Note_off_c, 0, 71, 0
2, 36660, Note_on_c, 0, 67, 88
2, 36719, Note_off_c, 0, 67, 0
2, 36720, Note_on_c, 0, 69, 88
2, 36779, Note_off_c, 0, 69, 0
2, 36780, Note_on_c, 0, 74, 88
2, 36839, Note_off_c, 0, 74, 0
2, 36840, Note_on_c, 0, 72, 88
2, 36899, Note_off_c, 0, 72, 0
2, 36900, Note_on_c, 0, 71, 88
2, 36959, Note_off_c, 0, 71, 0
2, 36960, Note_on_c, 0, 69, 88
2, 37019, Note_off_c, 0, 69, 0
2, 37020, Note_on_c, 0, 67, 88
2, 37079, Note_off_c, 0, 67, 0
2, 37080, Note_on_c, 0, 66, 88
2, 37139, Note_off_c, 0, 66, 0
2, 37140, Note_on_c, 0, 64, 88
2, 37199, Note_off_c, 0, 64, 0
2, 37200, Note_on_c, 0, 62, 88
2, 37499, Note_off_c, 0, 62, 0
2, 37500, Note_on_c, 0, 67, 88
2, 37559, Note_off_c, 0, 67, 0
2, 37560, Note_on_c, 0, 60, 88
2, 37619, Note_off_c, 0, 60, 0
2, 37620, Note_on_c, 0, 67, 88
2, 37679, Note_off_c, 0, 67, 0
2, 37680, Note_on_c, 0, 62, 88
2, 37739, Note_off_c, 0, 62, 0
2, 37740, Note_on_c, 0, 67, 88
2, 37799, Note_off_c, 0, 67, 0
2, 37800, Note_on_c, 0, 59, 88
2, 37859, Note_off_c, 0, 59, 0
2, 37860, Note_on_c, 0, 67, 88
2, 37919, Note_off_c, 0, 67, 0
2, 37920, Note_on_c, 0, 60, 88
2, 37979, Note_off_c, 0, 60, 0
2, 37980, Note_on_c, 0, 67, 88
2, 38039, Note_off_c, 0, 67, 0
2, 38040, Note_on_c, 0, 62, 88
2, 38099, Note_off_c, 0, 62, 0
2, 38100, Note_on_c, 0, 67, 88
2, 38159, Note_off_c, 0, 67, 0
2, 38160, Note_on_c, 0, 64, 88
2, 38219, Note_off_c, 0, 64, 0
2, 38220, Note_on_c, 0, 67, 88
2, 38279, Note_off_c, 0, 67, 0
2, 38280, Note_on_c, 0, 62, 88
2, 38339, Note_off_c, 0, 62, 0
2, 38340, Note_on_c, 0, 67, 88
2, 38399, Note_off_c, 0, 67, 0
2, 38400, Note_on_c, 0, 64, 88
2, 38459, Note_off_c, 0, 64, 0
2, 38460, Note_on_c, 0, 69, 88
2, 38519, Note_off_c, 0, 69, 0
2, 38520, Note_on_c, 0, 61, 88
2, 38579, Note_off_c, 0, 61, 0
2, 38580, Note_on_c, 0, 69, 88
2, 38639, Note_off_c, 0, 69, 0
2, 38640, Note_on_c, 0, 62, 88
2, 38699, Note_off_c, 0, 62, 0
2, 38700, Note_on_c, 0, 69, 88
2, 38759, Note_off_c, 0, 69, 0
2, 38760, Note_on_c, 0, 64, 88
2, 38819, Note_off_c, 0, 64, 0
2, 38820, Note_on_c, 0, 69, 88
2, 38879, Note_off_c, 0, 69, 0
2, 38880, Note_on_c, 0, 66, 88
2, 38939, Note_off_c, 0, 66, 0
2, 38940, Note_on_c, 0, 69, 88
2, 38999, Note_off_c, 0, 69, 0
2, 39000, Note_on_c, 0, 64, 88
2, 39059, Note_off_c, 0, 64, 0
2, 39060, Note_on_c, 0, 69, 88
2, 39119, Note_off_c, 0, 69, 0
2, 39120, Note_on_c, 0, 66, 88
2, 39179, Note_off_c, 0, 66, 0
2, 39180, Note_on_c, 0, 71, 88
2, 39239, Note_off_c, 0, 71, 0
2, 39240, Note_on_c, 0, 63, 88
2, 39299, Note_off_c, 0, 63, 0
2, 39300, Note_on_c, 0, 71, 88
2, 39359, Note_off_c, 0, 71, 0
2, 39360, Note_on_c, 0, 64, 88
2, 39419, Note_off_c, 0, 64, 0
2, 39420, Note_on_c, 0, 71, 88
2, 39479, Note_off_c, 0, 71, 0
2, 39480, Note_on_c, 0, 66, 88
2, 39539, Note_off_c, 0, 66, 0
2, 39540, Note_on_c, 0, 71, 88
2, 39599, Note_off_c, 0, 71, 0
2, 39600, Note_on_c, 0, 67, 88
2, 39659, Note_off_c, 0, 67, 0
2, 39660, Note_on_c, 0, 71, 88
2, 39719, Note_off_c, 0, 71, 0
2, 39720, Note_on_c, 0, 66, 88
2, 39779, Note_off_c, 0, 66, 0
2, 39780, Note_on_c, 0, 71, 88
2, 39839, Note_off_c, 0, 71, 0
2, 39840, Note_on_c, 0, 64, 88
2, 39959, Note_off_c, 0, 64, 0
2, 39960, Note_on_c, 0, 67, 88
2, 40079, Note_off_c, 0, 67, 0
2, 40080, Note_on_c, 0, 72, 88
2, 40102, Note_off_c, 0, 72, 0
2, 40103, Note_on_c, 0, 71, 88
2, 40139, Note_off_c, 0, 71, 0
2, 40140, Note_on_c, 0, 72, 88
2, 40319, Note_off_c, 0, 72, 0
2, 40320, Note_on_c, 0, 72, 88
2, 40379, Note_off_c, 0, 72, 0
2, 40380, Note_on_c, 0, 81, 88
2, 40439, Note_off_c, 0, 81, 0
2, 40440, Note_on_c, 0, 79, 88
2, 40499, Note_off_c, 0, 79, 0
2, 40500, Note_on_c, 0, 81, 88
2, 40559, Note_off_c, 0, 81, 0
2, 40560, Note_on_c, 0, 78, 88
2, 40619, Note_off_c, 0, 78, 0
2, 40620, Note_on_c, 0, 81, 88
2, 40679, Note_off_c, 0, 81, 0
2, 40680, Note_on_c, 0, 76, 88
2, 40739, Note_off_c, 0, 76, 0
2, 40740, Note_on_c, 0, 81, 88
2, 40799, Note_off_c, 0, 81, 0
2, 40800, Note_on_c, 0, 74, 88
2, 40859, Note_off_c, 0, 74, 0
2, 40860, Note_on_c, 0, 81, 88
2, 40919, Note_off_c, 0, 81, 0
2, 40920, Note_on_c, 0, 72, 88
2, 40979, Note_off_c, 0, 72, 0
2, 40980, Note_on_c, 0, 81, 88
2, 41039, Note_off_c, 0, 81, 0
2, 41040, Note_on_c, 0, 71, 88
2, 41159, Note_off_c, 0, 71, 0
2, 41160, Note_on_c, 0, 74, 88
2, 41279, Note_off_c, 0, 74, 0
2, 41280, Note_on_c, 0, 79, 88
2, 41399, Note_off_c, 0, 79, 0
2, 41400, Note_on_c, 0, 77, 88
2, 41519, Note_off_c, 0, 77, 0
2, 41520, Note_on_c, 0, 76, 88
2, 41639, Note_off_c, 0, 76, 0
2, 41640, Note_on_c, 0, 74, 88
2, 41759, Note_off_c, 0, 74, 0
2, 41760, Note_on_c, 0, 76, 88
2, 41819, Note_off_c, 0, 76, 0
2, 41820, Note_on_c, 0, 72, 88
2, 41879, Note_off_c, 0, 72, 0
2, 41880, Note_on_c, 0, 71, 88
2, 41939, Note_off_c, 0, 71, 0
2, 41940, Note_on_c, 0, 72, 88
2, 41999, Note_off_c, 0, 72, 0
2, 42000, Note_on_c, 0, 84, 88
2, 42059, Note_off_c, 0, 84, 0
2, 42060, Note_on_c, 0, 72, 88
2, 42119, Note_off_c, 0, 72, 0
2, 42120, Note_on_c, 0, 83, 88
2, 42179, Note_off_c, 0, 83, 0
2, 42180, Note_on_c, 0, 72, 88
2, 42239, Note_off_c, 0, 72, 0
2, 42240, Note_on_c, 0, 81, 88
2, 42299, Note_off_c, 0, 81, 0
2, 42300, Note_on_c, 0, 72, 88
2, 42359, Note_off_c, 0, 72, 0
2, 42360, Note_on_c, 0, 79, 88
2, 42419, Note_off_c, 0, 79, 0
2, 42420, Note_on_c, 0, 72, 88
2, 42479, Note_off_c, 0, 72, 0
2, 42480, Note_on_c, 0, 78, 88
2, 42539, Note_off_c, 0, 78, 0
2, 42540, Note_on_c, 0, 72, 88
2, 42599, Note_off_c, 0, 72, 0
2, 42600, Note_on_c, 0, 79, 88
2, 42659, Note_off_c, 0, 79, 0
2, 42660, Note_on_c, 0, 72, 88
2, 42719, Note_off_c, 0, 72, 0
2, 42720, Note_on_c, 0, 81, 88
2, 42779, Note_off_c, 0, 81, 0
2, 42780, Note_on_c, 0, 72, 88
2, 42839, Note_off_c, 0, 72, 0
2, 42840, Note_on_c, 0, 79, 88
2, 42899, Note_off_c, 0, 79, 0
2, 42900, Note_on_c, 0, 72, 88
2, 42959, Note_off_c, 0, 72, 0
2, 42960, Note_on_c, 0, 78, 88
2, 43019, Note_off_c, 0, 78, 0
2, 43020, Note_on_c, 0, 72, 88
2, 43079, Note_off_c, 0, 72, 0
2, 43080, Note_on_c, 0, 76, 88
2, 43139, Note_off_c, 0, 76, 0
2, 43140, Note_on_c, 0, 72, 88
2, 43199, Note_off_c, 0, 72, 0
2, 43200, Note_on_c, 0, 74, 88
2, 43259, Note_off_c, 0, 74, 0
2, 43260, Note_on_c, 0, 72, 88
2, 43319, Note_off_c, 0, 72, 0
2, 43320, Note_on_c, 0, 71, 88
2, 43379, Note_off_c, 0, 71, 0
2, 43380, Note_on_c, 0, 69, 88
2, 43439, Note_off_c, 0, 69, 0
2, 43440, Note_on_c, 0, 71, 88
2, 43559, Note_off_c, 0, 71, 0
2, 43560, Note_on_c, 0, 79, 88
2, 43679, Note_off_c, 0, 79, 0
2, 43680, Note_on_c, 0, 69, 88
2, 43799, Note_off_c, 0, 69, 0
2, 43800, Note_on_c, 0, 79, 88
2, 43822, Note_off_c, 0, 79, 0
2, 43823, Note_on_c, 0, 78, 88
2, 43852, Note_off_c, 0, 78, 0
2, 43853, Note_on_c, 0, 76, 88
2, 43882, Note_off_c, 0, 76, 0
2, 43883, Note_on_c, 0, 78, 88
2, 43919, Note_off_c, 0, 78, 0
2, 43920, Note_on_c, 0, 67, 88
2, 43979, Note_off_c, 0, 67, 0
2, 43980, Note_on_c, 0, 69, 88
2, 44039, Note_off_c, 0, 69, 0
2, 44040, Note_on_c, 0, 70, 88
2, 44099, Note_off_c, 0, 70, 0
2, 44100, Note_on_c, 0, 67, 88
2, 44159, Note_off_c, 0, 67, 0
2, 44160, Note_on_c, 0, 73, 88
2, 44219, Note_off_c, 0, 73, 0
2, 44220, Note_on_c, 0, 67, 88
2, 44279, Note_off_c, 0, 67, 0
2, 44280, Note_on_c, 0, 74, 88
2, 44339, Note_off_c, 0, 74, 0
2, 44340, Note_on_c, 0, 67, 88
2, 44399, Note_off_c, 0, 67, 0
2, 44400, Note_on_c, 0, 76, 88
2, 44459, Note_off_c, 0, 76, 0
2, 44460, Note_on_c, 0, 67, 88
2, 44519, Note_off_c, 0, 67, 0
2, 44520, Note_on_c, 0, 66, 88
2, 44579, Note_off_c, 0, 66, 0
2, 44580, Note_on_c, 0, 64, 88
2, 44639, Note_off_c, 0, 64, 0
2, 44640, Note_on_c, 0, 66, 88
2, 44699, Note_off_c, 0, 66, 0
2, 44700, Note_on_c, 0, 69, 88
2, 44759, Note_off_c, 0, 69, 0
2, 44760, Note_on_c, 0, 74, 88
2, 44999, Note_off_c, 0, 74, 0
2, 45000, Note_on_c, 0, 72, 88
2, 45059, Note_off_c, 0, 72, 0
2, 45060, Note_on_c, 0, 71, 88
2, 45119, Note_off_c, 0, 71, 0
2, 45120, Note_on_c, 0, 72, 88
2, 45179, Note_off_c, 0, 72, 0
2, 45180, Note_on_c, 0, 71, 88
2, 45239, Note_off_c, 0, 71, 0
2, 45240, Note_on_c, 0, 69, 88
2, 45299, Note_off_c, 0, 69, 0
2, 45300, Note_on_c, 0, 71, 88
2, 45359, Note_off_c, 0, 71, 0
2, 45360, Note_on_c, 0, 67, 88
2, 45479, Note_off_c, 0, 67, 0
2, 45480, Note_on_c, 0, 66, 88
2, 45539, Note_off_c, 0, 66, 0
2, 45540, Note_on_c, 0, 64, 88
2, 45599, Note_off_c, 0, 64, 0
2, 45600, Note_on_c, 0, 62, 88
2, 45659, Note_off_c, 0, 62, 0
2, 45660, Note_on_c, 0, 60, 88
2, 45719, Note_off_c, 0, 60, 0
2, 45720, Note_on_c, 0, 59, 88
2, 45779, Note_off_c, 0, 59, 0
2, 45780, Note_on_c, 0, 57, 88
2, 45839, Note_off_c, 0, 57, 0
2, 45840, Note_on_c, 0, 55, 88
2, 45862, Note_off_c, 0, 55, 0
2, 45863, Note_on_c, 0, 54, 88
2, 45899, Note_off_c, 0, 54, 0
2, 45900, Note_on_c, 0, 55, 88
2, 46079, Note_off_c, 0, 55, 0
2, 46080, Note_on_c, 0, 66, 88
2, 46139, Note_off_c, 0, 66, 0
2, 46140, Note_on_c, 0, 62, 88
2, 46199, Note_off_c, 0, 62, 0
2, 46200, Note_on_c, 0, 64, 88
2, 46259, Note_off_c, 0, 64, 0
2, 46260, Note_on_c, 0, 62, 88
2, 46319, Note_off_c, 0, 62, 0
2, 46320, Note_on_c, 0, 66, 88
2, 46379, Note_off_c, 0, 66, 0
2, 46380, Note_on_c, 0, 62, 88
2, 46439, Note_off_c, 0, 62, 0
2, 46440, Note_on_c, 0, 67, 88
2, 46499, Note_off_c, 0, 67, 0
2, 46500, Note_on_c, 0, 62, 88
2, 46559, Note_off_c, 0, 62, 0
2, 46560, Note_on_c, 0, 69, 88
2, 46619, Note_off_c, 0, 69, 0
2, 46620, Note_on_c, 0, 62, 88
2, 46679, Note_off_c, 0, 62, 0
2, 46680, Note_on_c, 0, 67, 88
2, 46739, Note_off_c, 0, 67, 0
2, 46740, Note_on_c, 0, 62, 88
2, 46799, Note_off_c, 0, 62, 0
2, 46800, Note_on_c, 0, 66, 88
2, 46859, Note_off_c, 0, 66, 0
2, 46860, Note_on_c, 0, 62, 88
2, 46919, Note_off_c, 0, 62, 0
2, 46920, Note_on_c, 0, 64, 88
2, 46979, Note_off_c, 0, 64, 0
2, 46980, Note_on_c, 0, 62, 88
2, 47039, Note_off_c, 0, 62, 0
2, 47040, Note_on_c, 0, 66, 88
2, 47099, Note_off_c, 0, 66, 0
2, 47100, Note_on_c, 0, 62, 88
2, 47159, Note_off_c, 0, 62, 0
2, 47160, Note_on_c, 0, 67, 88
2, 47219, Note_off_c, 0, 67, 0
2, 47220, Note_on_c, 0, 62, 88
2, 47279, Note_off_c, 0, 62, 0
2, 47280, Note_on_c, 0, 69, 88
2, 47339, Note_off_c, 0, 69, 0
2, 47340, Note_on_c, 0, 62, 88
2, 47399, Note_off_c, 0, 62, 0
2, 47400, Note_on_c, 0, 66, 88
2, 47459, Note_off_c, 0, 66, 0
2, 47460, Note_on_c, 0, 62, 88
2, 47519, Note_off_c, 0, 62, 0
2, 47520, Note_on_c, 0, 67, 88
2, 47579, Note_off_c, 0, 67, 0
2, 47580, Note_on_c, 0, 62, 88
2, 47639, Note_off_c, 0, 62, 0
2, 47640, Note_on_c, 0, 66, 88
2, 47699, Note_off_c, 0, 66, 0
2, 47700, Note_on_c, 0, 62, 88
2, 47759, Note_off_c, 0, 62, 0
2, 47760, Note_on_c, 0, 67, 88
2, 47819, Note_off_c, 0, 67, 0
2, 47820, Note_on_c, 0, 62, 88
2, 47879, Note_off_c, 0, 62, 0
2, 47880, Note_on_c, 0, 71, 88
2, 47939, Note_off_c, 0, 71, 0
2, 47940, Note_on_c, 0, 62, 88
2, 47999, Note_off_c, 0, 62, 0
2, 48000, Note_on_c, 0, 69, 88
2, 48059, Note_off_c, 0, 69, 0
2, 48060, Note_on_c, 0, 62, 88
2, 48119, Note_off_c, 0, 62, 0
2, 48120, Note_on_c, 0, 72, 88
2, 48179, Note_off_c, 0, 72, 0
2, 48180, Note_on_c, 0, 62, 88
2, 48239, Note_off_c, 0, 62, 0
2, 48240, Note_on_c, 0, 71, 88
2, 48359, Note_off_c, 0, 71, 0
2, 48360, Note_on_c, 0, 71, 88
2, 48374, Note_off_c, 0, 71, 0
2, 48375, Note_on_c, 0, 69, 88
2, 48397, Note_off_c, 0, 69, 0
2, 48398, Note_on_c, 0, 71, 88
2, 48419, Note_off_c, 0, 71, 0
2, 48420, Note_on_c, 0, 69, 88
2, 48434, Note_off_c, 0, 69, 0
2, 48435, Note_on_c, 0, 71, 88
2, 48449, Note_off_c, 0, 71, 0
2, 48450, Note_on_c, 0, 69, 88
2, 48479, Note_off_c, 0, 69, 0
2, 48480, Note_on_c, 0, 67, 88
2, 48599, Note_off_c, 0, 67, 0
2, 48600, Note_on_c, 0, 69, 88
2, 48719, Note_off_c, 0, 69, 0
2, 48720, Note_on_c, 0, 71, 88
2, 48839, Note_off_c, 0, 71, 0
2, 48840, Note_on_c, 0, 72, 88
2, 48959, Note_off_c, 0, 72, 0
2, 48960, Note_on_c, 0, 74, 88
2, 49079, Note_off_c, 0, 74, 0
2, 49080, Note_on_c, 0, 72, 88
2, 49199, Note_off_c, 0, 72, 0
2, 49200, Note_on_c, 0, 74, 88
2, 49319, Note_off_c, 0, 74, 0
2, 49320, Note_on_c, 0, 76, 88
2, 49439, Note_off_c, 0, 76, 0
2, 49440, Note_on_c, 0, 77, 88
2, 49559, Note_off_c, 0, 77, 0
2, 49560, Note_on_c, 0, 74, 88
2, 49679, Note_off_c, 0, 74, 0
2, 49680, Note_on_c, 0, 76, 88
2, 49799, Note_off_c, 0, 76, 0
2, 49800, Note_on_c, 0, 79, 88
2, 49919, Note_off_c, 0, 79, 0
2, 49920, Note_on_c, 0, 76, 88
2, 50039, Note_off_c, 0, 76, 0
2, 50040, Note_on_c, 0, 72, 88
2, 50159, Note_off_c, 0, 72, 0
2, 50160, Note_on_c, 0, 74, 88
2, 50279, Note_off_c, 0, 74, 0
2, 50280, Note_on_c, 0, 71, 88
2, 50399, Note_off_c, 0, 71, 0
2, 50400, Note_on_c, 0, 72, 88
2, 50459, Note_off_c, 0, 72, 0
2, 50460, Note_on_c, 0, 76, 88
2, 50519, Note_off_c, 0, 76, 0
2, 50520, Note_on_c, 0, 75, 88
2, 50579, Note_off_c, 0, 75, 0
2, 50580, Note_on_c, 0, 76, 88
2, 50639, Note_off_c, 0, 76, 0
2, 50640, Note_on_c, 0, 81, 88
2, 50699, Note_off_c, 0, 81, 0
2, 50700, Note_on_c, 0, 72, 88
2, 50759, Note_off_c, 0, 72, 0
2, 50760, Note_on_c, 0, 79, 88
2, 50819, Note_off_c, 0, 79, 0
2, 50820, Note_on_c, 0, 72, 88
2, 50879, Note_off_c, 0, 72, 0
2, 50880, Note_on_c, 0, 78, 88
2, 50939, Note_off_c, 0, 78, 0
2, 50940, Note_on_c, 0, 72, 88
2, 50999, Note_off_c, 0, 72, 0
2, 51000, Note_on_c, 0, 76, 88
2, 51059, Note_off_c, 0, 76, 0
2, 51060, Note_on_c, 0, 72, 88
2, 51119, Note_off_c, 0, 72, 0
2, 51120, Note_on_c, 0, 75, 88
2, 51179, Note_off_c, 0, 75, 0
2, 51180, Note_on_c, 0, 71, 88
2, 51239, Note_off_c, 0, 71, 0
2, 51240, Note_on_c, 0, 70, 88
2, 51299, Note_off_c, 0, 70, 0
2, 51300, Note_on_c, 0, 71, 88
2, 51359, Note_off_c, 0, 71, 0
2, 51360, Note_on_c, 0, 79, 88
2, 51419, Note_off_c, 0, 79, 0
2, 51420, Note_on_c, 0, 71, 88
2, 51479, Note_off_c, 0, 71, 0
2, 51480, Note_on_c, 0, 78, 88
2, 51539, Note_off_c, 0, 78, 0
2, 51540, Note_on_c, 0, 71, 88
2, 51599, Note_off_c, 0, 71, 0
2, 51600, Note_on_c, 0, 76, 88
2, 51659, Note_off_c, 0, 76, 0
2, 51660, Note_on_c, 0, 71, 88
2, 51719, Note_off_c, 0, 71, 0
2, 51720, Note_on_c, 0, 74, 88
2, 51779, Note_off_c, 0, 74, 0
2, 51780, Note_on_c, 0, 71, 88
2, 51839, Note_off_c, 0, 71, 0
2, 51840, Note_on_c, 0, 72, 88
2, 51899, Note_off_c, 0, 72, 0
2, 51900, Note_on_c, 0, 69, 88
2, 51959, Note_off_c, 0, 69, 0
2, 51960, Note_on_c, 0, 67, 88
2, 52019, Note_off_c, 0, 67, 0
2, 52020, Note_on_c, 0, 69, 88
2, 52079, Note_off_c, 0, 69, 0
2, 52080, Note_on_c, 0, 66, 88
2, 52139, Note_off_c, 0, 66, 0
2, 52140, Note_on_c, 0, 69, 88
2, 52199, Note_off_c, 0, 69, 0
2, 52200, Note_on_c, 0, 64, 88
2, 52259, Note_off_c, 0, 64, 0
2, 52260, Note_on_c, 0, 69, 88
2, 52319, Note_off_c, 0, 69, 0
2, 52320, Note_on_c, 0, 63, 88
2, 52379, Note_off_c, 0, 63, 0
2, 52380, Note_on_c, 0, 69, 88
2, 52439, Note_off_c, 0, 69, 0
2, 52440, Note_on_c, 0, 64, 88
2, 52499, Note_off_c, 0, 64, 0
2, 52500, Note_on_c, 0, 69, 88
2, 52559, Note_off_c, 0, 69, 0
2, 52560, Note_on_c, 0, 66, 88
2, 52679, Note_off_c, 0, 66, 0
2, 52680, Note_on_c, 0, 75, 88
2, 52799, Note_off_c, 0, 75, 0
2, 52800, Note_on_c, 0, 76, 88
2, 52919, Note_off_c, 0, 76, 0
2, 52920, Note_on_c, 0, 79, 88
2, 52949, Note_off_c, 0, 79, 0
2, 52950, Note_on_c, 0, 78, 88
2, 52979, Note_off_c, 0, 78, 0
2, 52980, Note_on_c, 0, 76, 88
2, 53009, Note_off_c, 0, 76, 0
2, 53010, Note_on_c, 0, 78, 88
2, 53039, Note_off_c, 0, 78, 0
2, 53040, Note_on_c, 0, 79, 88
2, 53159, Note_off_c, 0, 79, 0
2, 53160, Note_on_c, 0, 75, 88
2, 53279, Note_off_c, 0, 75, 0
2, 53280, Note_on_c, 0, 76, 88
2, 53339, Note_off_c, 0, 76, 0
2, 53340, Note_on_c, 0, 71, 88
2, 53399, Note_off_c, 0, 71, 0
2, 53400, Note_on_c, 0, 72, 88
2, 53459, Note_off_c, 0, 72, 0
2, 53460, Note_on_c, 0, 69, 88
2, 53519, Note_off_c, 0, 69, 0
2, 53520, Note_on_c, 0, 67, 88
2, 53639, Note_off_c, 0, 67, 0
2, 53640, Note_on_c, 0, 76, 88
2, 53759, Note_off_c, 0, 76, 0
2, 53760, Note_on_c, 0, 66, 88
2, 53879, Note_off_c, 0, 66, 0
2, 53880, Note_on_c, 0, 76, 88
2, 53909, Note_off_c, 0, 76, 0
2, 53910, Note_on_c, 0, 75, 88
2, 53939, Note_off_c, 0, 75, 0
2, 53940, Note_on_c, 0, 73, 88
2, 53969, Note_off_c, 0, 73, 0
2, 53970, Note_on_c, 0, 75, 88
2, 53999, Note_off_c, 0, 75, 0
2, 54000, Note_on_c, 0, 76, 88
2, 54059, Note_off_c, 0, 76, 0
2, 54060, Note_on_c, 0, 71, 88
2, 54119, Note_off_c, 0, 71, 0
2, 54120, Note_on_c, 0, 67, 88
2, 54179, Note_off_c, 0, 67, 0
2, 54180, Note_on_c, 0, 71, 88
2, 54239, Note_off_c, 0, 71, 0
2, 54240, Note_on_c, 0, 64, 88
2, 54539, Note_off_c, 0, 64, 0
2, 54540, Note_on_c, 0, 67, 88
2, 54599, Note_off_c, 0, 67, 0
2, 54600, Note_on_c, 0, 71, 88
2, 54659, Note_off_c, 0, 71, 0
2, 54660, Note_on_c, 0, 74, 88
2, 54719, Note_off_c, 0, 74, 0
2, 54720, Note_on_c, 0, 73, 88
2, 54839, Note_off_c, 0, 73, 0
2, 54840, Note_on_c, 0, 69, 88
2, 54959, Note_off_c, 0, 69, 0
2, 54960, Note_on_c, 0, 73, 88
2, 55079, Note_off_c, 0, 73, 0
2, 55080, Note_on_c, 0, 76, 88
2, 55199, Note_off_c, 0, 76, 0
2, 55200, Note_on_c, 0, 81, 88
2, 55319, Note_off_c, 0, 81, 0
2, 55320, Note_on_c, 0, 79, 88
2, 55439, Note_off_c, 0, 79, 0
2, 55440, Note_on_c, 0, 78, 88
2, 55559, Note_off_c, 0, 78, 0
2, 55560, Note_on_c, 0, 81, 88
2, 55679, Note_off_c, 0, 81, 0
2, 55680, Note_on_c, 0, 78, 88
2, 55799, Note_off_c, 0, 78, 0
2, 55800, Note_on_c, 0, 74, 88
2, 55919, Note_off_c, 0, 74, 0
2, 55920, Note_on_c, 0, 69, 88
2, 56039, Note_off_c, 0, 69, 0
2, 56040, Note_on_c, 0, 72, 88
2, 56159, Note_off_c, 0, 72, 0
2, 56160, Note_on_c, 0, 71, 88
2, 56279, Note_off_c, 0, 71, 0
2, 56280, Note_on_c, 0, 67, 88
2, 56399, Note_off_c, 0, 67, 0
2, 56400, Note_on_c, 0, 71, 88
2, 56519, Note_off_c, 0, 71, 0
2, 56520, Note_on_c, 0, 74, 88
2, 56639, Note_off_c, 0, 74, 0
2, 56640, Note_on_c, 0, 79, 88
2, 56759, Note_off_c, 0, 79, 0
2, 56760, Note_on_c, 0, 77, 88
2, 56879, Note_off_c, 0, 77, 0
2, 56880, Note_on_c, 0, 76, 88
2, 56909, Note_off_c, 0, 76, 0
2, 56910, Note_on_c, 0, 74, 88
2, 56954, Note_off_c, 0, 74, 0
2, 56955, Note_on_c, 0, 76, 88
2, 57179, Note_off_c, 0, 76, 0
2, 57180, Note_on_c, 0, 74, 88
2, 57239, Note_off_c, 0, 74, 0
2, 57240, Note_on_c, 0, 72, 88
2, 57299, Note_off_c, 0, 72, 0
2, 57300, Note_on_c, 0, 71, 88
2, 57359, Note_off_c, 0, 71, 0
2, 57360, Note_on_c, 0, 69, 88
2, 57419, Note_off_c, 0, 69, 0
2, 57420, Note_on_c, 0, 67, 88
2, 57479, Note_off_c, 0, 67, 0
2, 57480, Note_on_c, 0, 66, 88
2, 57539, Note_off_c, 0, 66, 0
2, 57540, Note_on_c, 0, 64, 88
2, 57599, Note_off_c, 0, 64, 0
2, 57600, Note_on_c, 0, 66, 88
2, 57719, Note_off_c, 0, 66, 0
2, 57720, Note_on_c, 0, 74, 88
2, 57734, Note_off_c, 0, 74, 0
2, 57735, Note_on_c, 0, 72, 88
2, 57764, Note_off_c, 0, 72, 0
2, 57765, Note_on_c, 0, 74, 88
2, 57899, Note_off_c, 0, 74, 0
2, 57900, Note_on_c, 0, 72, 88
2, 57959, Note_off_c, 0, 72, 0
2, 57960, Note_on_c, 0, 71, 88
2, 58019, Note_off_c, 0, 71, 0
2, 58020, Note_on_c, 0, 69, 88
2, 58079, Note_off_c, 0, 69, 0
2, 58080, Note_on_c, 0, 67, 88
2, 58139, Note_off_c, 0, 67, 0
2, 58140, Note_on_c, 0, 66, 88
2, 58199, Note_off_c, 0, 66, 0
2, 58200, Note_on_c, 0, 64, 88
2, 58259, Note_off_c, 0, 64, 0
2, 58260, Note_on_c, 0, 62, 88
2, 58319, Note_off_c, 0, 62, 0
2, 58320, Note_on_c, 0, 64, 88
2, 58439, Note_off_c, 0, 64, 0
2, 58440, Note_on_c, 0, 72, 88
2, 58454, Note_off_c, 0, 72, 0
2, 58455, Note_on_c, 0, 71, 88
2, 58484, Note_off_c, 0, 71, 0
2, 58485, Note_on_c, 0, 72, 88
2, 58619, Note_off_c, 0, 72, 0
2, 58620, Note_on_c, 0, 71, 88
2, 58679, Note_off_c, 0, 71, 0
2, 58680, Note_on_c, 0, 69, 88
2, 58739, Note_off_c, 0, 69, 0
2, 58740, Note_on_c, 0, 67, 88
2, 58799, Note_off_c, 0, 67, 0
2, 58800, Note_on_c, 0, 66, 88
2, 58859, Note_off_c, 0, 66, 0
2, 58860, Note_on_c, 0, 64, 88
2, 58919, Note_off_c, 0, 64, 0
2, 58920, Note_on_c, 0, 62, 88
2, 58979, Note_off_c, 0, 62, 0
2, 58980, Note_on_c, 0, 60, 88
2, 59039, Note_off_c, 0, 60, 0
2, 59040, Note_on_c, 0, 62, 88
2, 59099, Note_off_c, 0, 62, 0
2, 59100, Note_on_c, 0, 66, 88
2, 59159, Note_off_c, 0, 66, 0
2, 59160, Note_on_c, 0, 64, 88
2, 59219, Note_off_c, 0, 64, 0
2, 59220, Note_on_c, 0, 62, 88
2, 59279, Note_off_c, 0, 62, 0
2, 59280, Note_on_c, 0, 64, 88
2, 59339, Note_off_c, 0, 64, 0
2, 59340, Note_on_c, 0, 66, 88
2, 59399, Note_off_c, 0, 66, 0
2, 59400, Note_on_c, 0, 67, 88
2, 59459, Note_off_c, 0, 67, 0
2, 59460, Note_on_c, 0, 69, 88
2, 59519, Note_off_c, 0, 69, 0
2, 59520, Note_on_c, 0, 71, 88
2, 59579, Note_off_c, 0, 71, 0
2, 59580, Note_on_c, 0, 69, 88
2, 59639, Note_off_c, 0, 69, 0
2, 59640, Note_on_c, 0, 71, 88
2, 59699, Note_off_c, 0, 71, 0
2, 59700, Note_on_c, 0, 67, 88
2, 59759, Note_off_c, 0, 67, 0
2, 59760, Note_on_c, 0, 69, 88
2, 59819, Note_off_c, 0, 69, 0
2, 59820, Note_on_c, 0, 74, 88
2, 59879, Note_off_c, 0, 74, 0
2, 59880, Note_on_c, 0, 72, 88
2, 59939, Note_off_c, 0, 72, 0
2, 59940, Note_on_c, 0, 71, 88
2, 59999, Note_off_c, 0, 71, 0
2, 60000, Note_on_c, 0, 69, 88
2, 60059, Note_off_c, 0, 69, 0
2, 60060, Note_on_c, 0, 67, 88
2, 60119, Note_off_c, 0, 67, 0
2, 60120, Note_on_c, 0, 66, 88
2, 60179, Note_off_c, 0, 66, 0
2, 60180, Note_on_c, 0, 64, 88
2, 60239, Note_off_c, 0, 64, 0
2, 60240, Note_on_c, 0, 62, 88
2, 60539, Note_off_c, 0, 62, 0
2, 60540, Note_on_c, 0, 67, 88
2, 60599, Note_off_c, 0, 67, 0
2, 60600, Note_on_c, 0, 60, 88
2, 60659, Note_off_c, 0, 60, 0
2, 60660, Note_on_c, 0, 67, 88
2, 60719, Note_off_c, 0, 67, 0
2, 60720, Note_on_c, 0, 62, 88
2, 60779, Note_off_c, 0, 62, 0
2, 60780, Note_on_c, 0, 67, 88
2, 60839, Note_off_c, 0, 67, 0
2, 60840, Note_on_c, 0, 59, 88
2, 60899, Note_off_c, 0, 59, 0
2, 60900, Note_on_c, 0, 67, 88
2, 60959, Note_off_c, 0, 67, 0
2, 60960, Note_on_c, 0, 60, 88
2, 61019, Note_off_c, 0, 60, 0
2, 61020, Note_on_c, 0, 67, 88
2, 61079, Note_off_c, 0, 67, 0
2, 61080, Note_on_c, 0, 62, 88
2, 61139, Note_off_c, 0, 62, 0
2, 61140, Note_on_c, 0, 67, 88
2, 61199, Note_off_c, 0, 67, 0
2, 61200, Note_on_c, 0, 64, 88
2, 61259, Note_off_c, 0, 64, 0
2, 61260, Note_on_c, 0, 67, 88
2, 61319, Note_off_c, 0, 67, 0
2, 61320, Note_on_c, 0, 62, 88
2, 61379, Note_off_c, 0, 62, 0
2, 61380, Note_on_c, 0, 67, 88
2, 61439, Note_off_c, 0, 67, 0
2, 61440, Note_on_c, 0, 64, 88
2, 61499, Note_off_c, 0, 64, 0
2, 61500, Note_on_c, 0, 69, 88
2, 61559, Note_off_c, 0, 69, 0
2, 61560, Note_on_c, 0, 61, 88
2, 61619, Note_off_c, 0, 61, 0
2, 61620, Note_on_c, 0, 69, 88
2, 61679, Note_off_c, 0, 69, 0
2, 61680, Note_on_c, 0, 62, 88
2, 61739, Note_off_c, 0, 62, 0
2, 61740, Note_on_c, 0, 69, 88
2, 61799, Note_off_c, 0, 69, 0
2, 61800, Note_on_c, 0, 64, 88
2, 61859, Note_off_c, 0, 64, 0
2, 61860, Note_on_c, 0, 69, 88
2, 61919, Note_off_c, 0, 69, 0
2, 61920, Note_on_c, 0, 66, 88
2, 61979, Note_off_c, 0, 66, 0
2, 61980, Note_on_c, 0, 69, 88
2, 62039, Note_off_c, 0, 69, 0
2, 62040, Note_on_c, 0, 64, 88
2, 62099, Note_off_c, 0, 64, 0
2, 62100, Note_on_c, 0, 69, 88
2, 62159, Note_off_c, 0, 69, 0
2, 62160, Note_on_c, 0, 66, 88
2, 62219, Note_off_c, 0, 66, 0
2, 62220, Note_on_c, 0, 71, 88
2, 62279, Note_off_c, 0, 71, 0
2, 62280, Note_on_c, 0, 63, 88
2, 62339, Note_off_c, 0, 63, 0
2, 62340, Note_on_c, 0, 71, 88
2, 62399, Note_off_c, 0, 71, 0
2, 62400, Note_on_c, 0, 64, 88
2, 62459, Note_off_c, 0, 64, 0
2, 62460, Note_on_c, 0, 71, 88
2, 62519, Note_off_c, 0, 71, 0
2, 62520, Note_on_c, 0, 66, 88
2, 62579, Note_off_c, 0, 66, 0
2, 62580, Note_on_c, 0, 71, 88
2, 62639, Note_off_c, 0, 71, 0
2, 62640, Note_on_c, 0, 67, 88
2, 62699, Note_off_c, 0, 67, 0
2, 62700, Note_on_c, 0, 71, 88
2, 62759, Note_off_c, 0, 71, 0
2, 62760, Note_on_c, 0, 66, 88
2, 62819, Note_off_c, 0, 66, 0
2, 62820, Note_on_c, 0, 71, 88
2, 62879, Note_off_c, 0, 71, 0
2, 62880, Note_on_c, 0, 64, 88
2, 62999, Note_off_c, 0, 64, 0
2, 63000, Note_on_c, 0, 67, 88
2, 63119, Note_off_c, 0, 67, 0
2, 63120, Note_on_c, 0, 72, 88
2, 63142, Note_off_c, 0, 72, 0
2, 63143, Note_on_c, 0, 71, 88
2, 63179, Note_off_c, 0, 71, 0
2, 63180, Note_on_c, 0, 72, 88
2, 63359, Note_off_c, 0, 72, 0
2, 63360, Note_on_c, 0, 72, 88
2, 63419, Note_off_c, 0, 72, 0
2, 63420, Note_on_c, 0, 81, 88
2, 63479, Note_off_c, 0, 81, 0
2, 63480, Note_on_c, 0, 79, 88
2, 63539, Note_off_c, 0, 79, 0
2, 63540, Note_on_c, 0, 81, 88
2, 63599, Note_off_c, 0, 81, 0
2, 63600, Note_on_c, 0, 78, 88
2, 63659, Note_off_c, 0, 78, 0
2, 63660, Note_on_c, 0, 81, 88
2, 63719, Note_off_c, 0, 81, 0
2, 63720, Note_on_c, 0, 76, 88
2, 63779, Note_off_c, 0, 76, 0
2, 63780, Note_on_c, 0, 81, 88
2, 63839, Note_off_c, 0, 81, 0
2, 63840, Note_on_c, 0, 74, 88
2, 63899, Note_off_c, 0, 74, 0
2, 63900, Note_on_c, 0, 81, 88
2, 63959, Note_off_c, 0, 81, 0
2, 63960, Note_on_c, 0, 72, 88
2, 64019, Note_off_c, 0, 72, 0
2, 64020, Note_on_c, 0, 81, 88
2, 64079, Note_off_c, 0, 81, 0
2, 64080, Note_on_c, 0, 71, 88
2, 64199, Note_off_c, 0, 71, 0
2, 64200, Note_on_c, 0, 74, 88
2, 64319, Note_off_c, 0, 74, 0
2, 64320, Note_on_c, 0, 79, 88
2, 64439, Note_off_c, 0, 79, 0
2, 64440, Note_on_c, 0, 77, 88
2, 64559, Note_off_c, 0, 77, 0
2, 64560, Note_on_c, 0, 76, 88
2, 64679, Note_off_c, 0, 76, 0
2, 64680, Note_on_c, 0, 74, 88
2, 64799, Note_off_c, 0, 74, 0
2, 64800, Note_on_c, 0, 76, 88
2, 64859, Note_off_c, 0, 76, 0
2, 64860, Note_on_c, 0, 72, 88
2, 64919, Note_off_c, 0, 72, 0
2, 64920, Note_on_c, 0, 71, 88
2, 64979, Note_off_c, 0, 71, 0
2, 64980, Note_on_c, 0, 72, 88
2, 65039, Note_off_c, 0, 72, 0
2, 65040, Note_on_c, 0, 84, 88
2, 65099, Note_off_c, 0, 84, 0
2, 65100, Note_on_c, 0, 72, 88
2, 65159, Note_off_c, 0, 72, 0
2, 65160, Note_on_c, 0, 83, 88
2, 65219, Note_off_c, 0, 83, 0
2, 65220, Note_on_c, 0, 72, 88
2, 65279, Note_off_c, 0, 72, 0
2, 65280, Note_on_c, 0, 81, 88
2, 65339, Note_off_c, 0, 81, 0
2, 65340, Note_on_c, 0, 72, 88
2, 65399, Note_off_c, 0, 72, 0
2, 65400, Note_on_c, 0, 79, 88
2, 65459, Note_off_c, 0, 79, 0
2, 65460, Note_on_c, 0, 72, 88
2, 65519, Note_off_c, 0, 72, 0
2, 65520, Note_on_c, 0, 78, 88
2, 65579, Note_off_c, 0, 78, 0
2, 65580, Note_on_c, 0, 72, 88
2, 65639, Note_off_c, 0, 72, 0
2, 65640, Note_on_c, 0, 79, 88
2, 65699, Note_off_c, 0, 79, 0
2, 65700, Note_on_c, 0, 72, 88
2, 65759, Note_off_c, 0, 72, 0
2, 65760, Note_on_c, 0, 81, 88
2, 65819, Note_off_c, 0, 81, 0
2, 65820, Note_on_c, 0, 72, 88
2, 65879, Note_off_c, 0, 72, 0
2, 65880, Note_on_c, 0, 79, 88
2, 65939, Note_off_c, 0, 79, 0
2, 65940, Note_on_c, 0, 72, 88
2, 65999, Note_off_c, 0, 72, 0
2, 66000, Note_on_c, 0, 78, 88
2, 66059, Note_off_c, 0, 78, 0
2, 66060, Note_on_c, 0, 72, 88
2, 66119, Note_off_c, 0, 72, 0
2, 66120, Note_on_c, 0, 76, 88
2, 66179, Note_off_c, 0, 76, 0
2, 66180, Note_on_c, 0, 72, 88
2, 66239, Note_off_c, 0, 72, 0
2, 66240, Note_on_c, 0, 74, 88
2, 66299, Note_off_c, 0, 74, 0
2, 66300, Note_on_c, 0, 72, 88
2, 66359, Note_off_c, 0, 72, 0
2, 66360, Note_on_c, 0, 71, 88
2, 66419, Note_off_c, 0, 71, 0
2, 66420, Note_on_c, 0, 69, 88
2, 66479, Note_off_c, 0, 69, 0
2, 66480, Note_on_c, 0, 71, 88
2, 66599, Note_off_c, 0, 71, 0
2, 66600, Note_on_c, 0, 79, 88
2, 66719, Note_off_c, 0, 79, 0
2, 66720, Note_on_c, 0, 69, 88
2, 66839, Note_off_c, 0, 69, 0
2, 66840, Note_on_c, 0, 79, 88
2, 66862, Note_off_c, 0, 79, 0
2, 66863, Note_on_c, 0, 78, 88
2, 66892, Note_off_c, 0, 78, 0
2, 66893, Note_on_c, 0, 76, 88
2, 66922, Note_off_c, 0, 76, 0
2, 66923, Note_on_c, 0, 78, 88
2, 66959, Note_off_c, 0, 78, 0
2, 66960, Note_on_c, 0, 67, 88
2, 67019, Note_off_c, 0, 67, 0
2, 67020, Note_on_c, 0, 69, 88
2, 67079, Note_off_c, 0, 69, 0
2, 67080, Note_on_c, 0, 70, 88
2, 67139, Note_off_c, 0, 70, 0
2, 67140, Note_on_c, 0, 67, 88
2, 67199, Note_off_c, 0, 67, 0
2, 67200, Note_on_c, 0, 73, 88
2, 67259, Note_off_c, 0, 73, 0
2, 67260, Note_on_c, 0, 67, 88
2, 67319, Note_off_c, 0, 67, 0
2, 67320, Note_on_c, 0, 74, 88
2, 67379, Note_off_c, 0, 74, 0
2, 67380, Note_on_c, 0, 67, 88
2, 67439, Note_off_c, 0, 67, 0
2, 67440, Note_on_c, 0, 76, 88
2, 67499, Note_off_c, 0, 76, 0
2, 67500, Note_on_c, 0, 67, 88
2, 67559, Note_off_c, 0, 67, 0
2, 67560, Note_on_c, 0, 66, 88
2, 67619, Note_off_c, 0, 66, 0
2, 67620, Note_on_c, 0, 64, 88
2, 67679, Note_off_c, 0, 64, 0
2, 67680, Note_on_c, 0, 66, 88
2, 67739, Note_off_c, 0, 66, 0
2, 67740, Note_on_c, 0, 69, 88
2, 67799, Note_off_c, 0, 69, 0
2, 67800, Note_on_c, 0, 74, 88
2, 68039, Note_off_c, 0, 74, 0
2, 68040, Note_on_c, 0, 72, 88
2, 68099, Note_off_c, 0, 72, 0
2, 68100, Note_on_c, 0, 71, 88
2, 68159, Note_off_c, 0, 71, 0
2, 68160, Note_on_c, 0, 72, 88
2, 68219, Note_off_c, 0, 72, 0
2, 68220, Note_on_c, 0, 71, 88
2, 68279, Note_off_c, 0, 71, 0
2, 68280, Note_on_c, 0, 69, 88
2, 68339, Note_off_c, 0, 69, 0
2, 68340, Note_on_c, 0, 71, 88
2, 68399, Note_off_c, 0, 71, 0
2, 68400, Note_on_c, 0, 67, 88
2, 68519, Note_off_c, 0, 67, 0
2, 68520, Note_on_c, 0, 66, 88
2, 68579, Note_off_c, 0, 66, 0
2, 68580, Note_on_c, 0, 64, 88
2, 68639, Note_off_c, 0, 64, 0
2, 68640, Note_on_c, 0, 62, 88
2, 68699, Note_off_c, 0, 62, 0
2, 68700, Note_on_c, 0, 60, 88
2, 68759, Note_off_c, 0, 60, 0
2, 68760, Note_on_c, 0, 59, 88
2, 68819, Note_off_c, 0, 59, 0
2, 68820, Note_on_c, 0, 57, 88
2, 68879, Note_off_c, 0, 57, 0
2, 68880, Note_on_c, 0, 55, 88
2, 68902, Note_off_c, 0, 55, 0
2, 68903, Note_on_c, 0, 54, 88
2, 68939, Note_off_c, 0, 54, 0
2, 68940, Note_on_c, 0, 55, 88
2, 68980, Note_off_c, 0, 55, 0
2, 68980, End_track
0, 0, End_of_file