0, 0, Header, 1, 2, 240
1, 0, Start_track
1, 0, Time_signature, 4, 2, 24, 8
1, 0, Tempo, 937500
1, 0, SMPTE_offset, 64, 0, 0, 0, 100
1, 0, End_track
2, 0, Start_track
2, 0, Title_t, "Track 1"
2, 0, Program_c, 0, 6
2, 0, Note_on_c, 0, 72, 88
2, 119, Note_off_c, 0, 72, 0
2, 120, Note_on_c, 0, 72, 88
2, 359, Note_off_c, 0, 72, 0
2, 360, Note_on_c, 0, 72, 88
2, 599, Note_off_c, 0, 72, 0
2, 600, Note_on_c, 0, 72, 88
2, 779, Note_off_c, 0, 72, 0
2, 780, Note_on_c, 0, 68, 88
2, 839, Note_off_c, 0, 68, 0
2, 840, Note_on_c, 0, 66, 88
2, 899, Note_off_c, 0, 66, 0
2, 900, Note_on_c, 0, 65, 88
2, 959, Note_off_c, 0, 65, 0
2, 960, Note_on_c, 0, 66, 88
2, 1019, Note_off_c, 0, 66, 0
2, 1020, Note_on_c, 0, 72, 88
2, 1079, Note_off_c, 0, 72, 0
2, 1080, Note_on_c, 0, 75, 88
2, 1139, Note_off_c, 0, 75, 0
2, 1140, Note_on_c, 0, 73, 88
2, 1199, Note_off_c, 0, 73, 0
2, 1200, Note_on_c, 0, 72, 88
2, 1259, Note_off_c, 0, 72, 0
2, 1260, Note_on_c, 0, 70, 88
2, 1319, Note_off_c, 0, 70, 0
2, 1320, Note_on_c, 0, 68, 88
2, 1379, Note_off_c, 0, 68, 0
2, 1380, Note_on_c, 0, 66, 88
2, 1439, Note_off_c, 0, 66, 0
2, 1440, Note_on_c, 0, 73, 88
2, 1559, Note_off_c, 0, 73, 0
2, 1560, Note_on_c, 0, 73, 88
2, 1739, Note_off_c, 0, 73, 0
2, 1740, Note_on_c, 0, 72, 88
2, 1799, Note_off_c, 0, 72, 0
2, 1800, Note_on_c, 0, 73, 88
2, 1979, Note_off_c, 0, 73, 0
2, 1980, Note_on_c, 0, 72, 88
2, 2039, Note_off_c, 0, 72, 0
2, 2040, Note_on_c, 0, 73, 88
2, 2219, Note_off_c, 0, 73, 0
2, 2220, Note_on_c, 0, 75, 88
2, 2279, Note_off_c, 0, 75, 0
2, 2280, Note_on_c, 0, 73, 88
2, 2339, Note_off_c, 0, 73, 0
2, 2340, Note_on_c, 0, 72, 88
2, 2399, Note_off_c, 0, 72, 0
2, 2400, Note_on_c, 0, 73, 88
2, 2459, Note_off_c, 0, 73, 0
2, 2460, Note_on_c, 0, 68, 88
2, 2519, Note_off_c, 0, 68, 0
2, 2520, Note_on_c, 0, 77, 88
2, 2579, Note_off_c, 0, 77, 0
2, 2580, Note_on_c, 0, 75, 88
2, 2639, Note_off_c, 0, 75, 0
2, 2640, Note_on_c, 0, 73, 88
2, 2699, Note_off_c, 0, 73, 0
2, 2700, Note_on_c, 0, 72, 88
2, 2759, Note_off_c, 0, 72, 0
2, 2760, Note_on_c, 0, 70, 88
2, 2819, Note_off_c, 0, 70, 0
2, 2820, Note_on_c, 0, 68, 88
2, 2879, Note_off_c, 0, 68, 0
2, 2880, Note_on_c, 0, 67, 88
2, 2939, Note_off_c, 0, 67, 0
2, 2940, Note_on_c, 0, 65, 88
2, 2999, Note_off_c, 0, 65, 0
2, 3000, Note_on_c, 0, 63, 88
2, 3059, Note_off_c, 0, 63, 0
2, 3060, Note_on_c, 0, 62, 88
2, 3119, Note_off_c, 0, 62, 0
2, 3120, Note_on_c, 0, 63, 88
2, 3299, Note_off_c, 0, 63, 0
2, 3300, Note_on_c, 0, 67, 88
2, 3329, Note_off_c, 0, 67, 0
2, 3330, Note_on_c, 0, 70, 88
2, 3359, Note_off_c, 0, 70, 0
2, 3360, Note_on_c, 0, 73, 88
2, 3539, Note_off_c, 0, 73, 0
2, 3540, Note_on_c, 0, 68, 88
2, 3599, Note_off_c, 0, 68, 0
2, 3600, Note_on_c, 0, 67, 88
2, 3659, Note_off_c, 0, 67, 0
2, 3660, Note_on_c, 0, 72, 88
2, 3719, Note_off_c, 0, 72, 0
2, 3720, Note_on_c, 0, 70, 88
2, 3779, Note_off_c, 0, 70, 0
2, 3780, Note_on_c, 0, 68, 88
2, 3839, Note_off_c, 0, 68, 0
2, 3840, Note_on_c, 0, 70, 88
2, 4019, Note_off_c, 0, 70, 0
2, 4020, Note_on_c, 0, 73, 88
2, 4049, Note_off_c, 0, 73, 0
2, 4050, Note_on_c, 0, 77, 88
2, 4079, Note_off_c, 0, 77, 0
2, 4080, Note_on_c, 0, 82, 88
2, 4259, Note_off_c, 0, 82, 0
2, 4260, Note_on_c, 0, 73, 88
2, 4319, Note_off_c, 0, 73, 0
2, 4320, Note_on_c, 0, 72, 88
2, 4379, Note_off_c, 0, 72, 0
2, 4380, Note_on_c, 0, 77, 88
2, 4439, Note_off_c, 0, 77, 0
2, 4440, Note_on_c, 0, 75, 88
2, 4499, Note_off_c, 0, 75, 0
2, 4500, Note_on_c, 0, 73, 88
2, 4559, Note_off_c, 0, 73, 0
2, 4560, Note_on_c, 0, 72, 88
2, 4619, Note_off_c, 0, 72, 0
2, 4620, Note_on_c, 0, 80, 88
2, 4679, Note_off_c, 0, 80, 0
2, 4680, Note_on_c, 0, 75, 88
2, 4739, Note_off_c, 0, 75, 0
2, 4740, Note_on_c, 0, 73, 88
2, 4799, Note_off_c, 0, 73, 0
2, 4800, Note_on_c, 0, 72, 88
2, 4859, Note_off_c, 0, 72, 0
2, 4860, Note_on_c, 0, 75, 88
2, 4919, Note_off_c, 0, 75, 0
2, 4920, Note_on_c, 0, 72, 88
2, 4979, Note_off_c, 0, 72, 0
2, 4980, Note_on_c, 0, 70, 88
2, 5039, Note_off_c, 0, 70, 0
2, 5040, Note_on_c, 0, 68, 88
2, 5099, Note_off_c, 0, 68, 0
2, 5100, Note_on_c, 0, 73, 88
2, 5159, Note_off_c, 0, 73, 0
2, 5160, Note_on_c, 0, 72, 88
2, 5219, Note_off_c, 0, 72, 0
2, 5220, Note_on_c, 0, 70, 88
2, 5279, Note_off_c, 0, 70, 0
2, 5280, Note_on_c, 0, 72, 88
2, 5339, Note_off_c, 0, 72, 0
2, 5340, Note_on_c, 0, 77, 88
2, 5399, Note_off_c, 0, 77, 0
2, 5400, Note_on_c, 0, 72, 88
2, 5459, Note_off_c, 0, 72, 0
2, 5460, Note_on_c, 0, 70, 88
2, 5519, Note_off_c, 0, 70, 0
2, 5520, Note_on_c, 0, 68, 88
2, 5579, Note_off_c, 0, 68, 0
2, 5580, Note_on_c, 0, 72, 88
2, 5639, Note_off_c, 0, 72, 0
2, 5640, Note_on_c, 0, 68, 88
2, 5699, Note_off_c, 0, 68, 0
2, 5700, Note_on_c, 0, 67, 88
2, 5759, Note_off_c, 0, 67, 0
2, 5760, Note_on_c, 0, 65, 88
2, 5819, Note_off_c, 0, 65, 0
2, 5820, Note_on_c, 0, 70, 88
2, 5879, Note_off_c, 0, 70, 0
2, 5880, Note_on_c, 0, 68, 88
2, 5939, Note_off_c, 0, 68, 0
2, 5940, Note_on_c, 0, 67, 88
2, 5999, Note_off_c, 0, 67, 0
2, 6000, Note_on_c, 0, 68, 88
2, 6059, Note_off_c, 0, 68, 0
2, 6060, Note_on_c, 0, 72, 88
2, 6119, Note_off_c, 0, 72, 0
2, 6120, Note_on_c, 0, 68, 88
2, 6179, Note_off_c, 0, 68, 0
2, 6180, Note_on_c, 0, 67, 88
2, 6239, Note_off_c, 0, 67, 0
2, 6240, Note_on_c, 0, 65, 88
2, 6299, Note_off_c, 0, 65, 0
2, 6300, Note_on_c, 0, 68, 88
2, 6359, Note_off_c, 0, 68, 0
2, 6360, Note_on_c, 0, 65, 88
2, 6419, Note_off_c, 0, 65, 0
2, 6420, Note_on_c, 0, 63, 88
2, 6479, Note_off_c, 0, 63, 0
2, 6480, Note_on_c, 0, 62, 88
2, 6539, Note_off_c, 0, 62, 0
2, 6540, Note_on_c, 0, 65, 88
2, 6599, Note_off_c, 0, 65, 0
2, 6600, Note_on_c, 0, 68, 88
2, 6779, Note_off_c, 0, 68, 0
2, 6780, Note_on_c, 0, 67, 88
2, 6839, Note_off_c, 0, 67, 0
2, 6840, Note_on_c, 0, 68, 88
2, 7019, Note_off_c, 0, 68, 0
2, 7020, Note_on_c, 0, 77, 88
2, 7079, Note_off_c, 0, 77, 0
2, 7080, Note_on_c, 0, 70, 88
2, 7139, Note_off_c, 0, 70, 0
2, 7140, Note_on_c, 0, 68, 88
2, 7199, Note_off_c, 0, 68, 0
2, 7200, Note_on_c, 0, 67, 88
2, 7229, Note_off_c, 0, 67, 0
2, 7230, Note_on_c, 0, 68, 88
2, 7259, Note_off_c, 0, 68, 0
2, 7260, Note_on_c, 0, 70, 88
2, 7319, Note_off_c, 0, 70, 0
2, 7320, Note_on_c, 0, 63, 88
2, 7499, Note_off_c, 0, 63, 0
2, 7500, Note_on_c, 0, 60, 88
2, 7559, Note_off_c, 0, 60, 0
2, 7560, Note_on_c, 0, 65, 88
2, 7619, Note_off_c, 0, 65, 0
2, 7620, Note_on_c, 0, 68, 88
2, 7679, Note_off_c, 0, 68, 0
2, 7680, Note_on_c, 0, 67, 88
2, 7739, Note_off_c, 0, 67, 0
2, 7740, Note_on_c, 0, 65, 88
2, 7799, Note_off_c, 0, 65, 0
2, 7800, Note_on_c, 0, 63, 88
2, 7859, Note_off_c, 0, 63, 0
2, 7860, Note_on_c, 0, 62, 88
2, 7919, Note_off_c, 0, 62, 0
2, 7920, Note_on_c, 0, 63, 88
2, 7949, Note_off_c, 0, 63, 0
2, 7950, Note_on_c, 0, 62, 88
2, 7979, Note_off_c, 0, 62, 0
2, 7980, Note_on_c, 0, 60, 88
2, 8039, Note_off_c, 0, 60, 0
2, 8040, Note_on_c, 0, 68, 88
2, 8219, Note_off_c, 0, 68, 0
2, 8220, Note_on_c, 0, 63, 88
2, 8279, Note_off_c, 0, 63, 0
2, 8280, Note_on_c, 0, 68, 88
2, 8339, Note_off_c, 0, 68, 0
2, 8340, Note_on_c, 0, 72, 88
2, 8399, Note_off_c, 0, 72, 0
2, 8400, Note_on_c, 0, 70, 88
2, 8459, Note_off_c, 0, 70, 0
2, 8460, Note_on_c, 0, 68, 88
2, 8519, Note_off_c, 0, 68, 0
2, 8520, Note_on_c, 0, 67, 88
2, 8579, Note_off_c, 0, 67, 0
2, 8580, Note_on_c, 0, 65, 88
2, 8639, Note_off_c, 0, 65, 0
2, 8640, Note_on_c, 0, 67, 88
2, 8669, Note_off_c, 0, 67, 0
2, 8670, Note_on_c, 0, 65, 88
2, 8699, Note_off_c, 0, 65, 0
2, 8700, Note_on_c, 0, 63, 88
2, 8759, Note_off_c, 0, 63, 0
2, 8760, Note_on_c, 0, 72, 88
2, 8939, Note_off_c, 0, 72, 0
2, 8940, Note_on_c, 0, 67, 88
2, 8999, Note_off_c, 0, 67, 0
2, 9000, Note_on_c, 0, 72, 88
2, 9059, Note_off_c, 0, 72, 0
2, 9060, Note_on_c, 0, 75, 88
2, 9119, Note_off_c, 0, 75, 0
2, 9120, Note_on_c, 0, 74, 88
2, 9179, Note_off_c, 0, 74, 0
2, 9180, Note_on_c, 0, 72, 88
2, 9239, Note_off_c, 0, 72, 0
2, 9240, Note_on_c, 0, 70, 88
2, 9299, Note_off_c, 0, 70, 0
2, 9300, Note_on_c, 0, 68, 88
2, 9359, Note_off_c, 0, 68, 0
2, 9360, Note_on_c, 0, 70, 88
2, 9389, Note_off_c, 0, 70, 0
2, 9390, Note_on_c, 0, 68, 88
2, 9419, Note_off_c, 0, 68, 0
2, 9420, Note_on_c, 0, 67, 88
2, 9479, Note_off_c, 0, 67, 0
2, 9480, Note_on_c, 0, 75, 88
2, 9659, Note_off_c, 0, 75, 0
2, 9660, Note_on_c, 0, 70, 88
2, 9719, Note_off_c, 0, 70, 0
2, 9720, Note_on_c, 0, 75, 88
2, 9779, Note_off_c, 0, 75, 0
2, 9780, Note_on_c, 0, 79, 88
2, 9839, Note_off_c, 0, 79, 0
2, 9840, Note_on_c, 0, 77, 88
2, 9899, Note_off_c, 0, 77, 0
2, 9900, Note_on_c, 0, 75, 88
2, 9959, Note_off_c, 0, 75, 0
2, 9960, Note_on_c, 0, 74, 88
2, 10019, Note_off_c, 0, 74, 0
2, 10020, Note_on_c, 0, 72, 88
2, 10079, Note_off_c, 0, 72, 0
2, 10080, Note_on_c, 0, 74, 88
2, 10109, Note_off_c, 0, 74, 0
2, 10110, Note_on_c, 0, 75, 88
2, 10139, Note_off_c, 0, 75, 0
2, 10140, Note_on_c, 0, 77, 88
2, 10199, Note_off_c, 0, 77, 0
2, 10200, Note_on_c, 0, 70, 88
2, 10259, Note_off_c, 0, 70, 0
2, 10260, Note_on_c, 0, 72, 88
2, 10319, Note_off_c, 0, 72, 0
2, 10320, Note_on_c, 0, 74, 88
2, 10379, Note_off_c, 0, 74, 0
2, 10380, Note_on_c, 0, 75, 88
2, 10439, Note_off_c, 0, 75, 0
2, 10440, Note_on_c, 0, 77, 88
2, 10499, Note_off_c, 0, 77, 0
2, 10500, Note_on_c, 0, 79, 88
2, 10559, Note_off_c, 0, 79, 0
2, 10560, Note_on_c, 0, 80, 88
2, 10619, Note_off_c, 0, 80, 0
2, 10620, Note_on_c, 0, 77, 88
2, 10679, Note_off_c, 0, 77, 0
2, 10680, Note_on_c, 0, 75, 88
2, 10739, Note_off_c, 0, 75, 0
2, 10740, Note_on_c, 0, 74, 88
2, 10799, Note_off_c, 0, 74, 0
2, 10800, Note_on_c, 0, 82, 88
2, 10859, Note_off_c, 0, 82, 0
2, 10860, Note_on_c, 0, 79, 88
2, 10889, Note_off_c, 0, 79, 0
2, 10890, Note_on_c, 0, 77, 88
2, 10919, Note_off_c, 0, 77, 0
2, 10920, Note_on_c, 0, 75, 88
2, 10949, Note_off_c, 0, 75, 0
2, 10950, Note_on_c, 0, 77, 88
2, 10979, Note_off_c, 0, 77, 0
2, 10980, Note_on_c, 0, 79, 88
2, 11039, Note_off_c, 0, 79, 0
2, 11040, Note_on_c, 0, 68, 88
2, 11099, Note_off_c, 0, 68, 0
2, 11100, Note_on_c, 0, 77, 88
2, 11159, Note_off_c, 0, 77, 0
2, 11160, Note_on_c, 0, 74, 88
2, 11219, Note_off_c, 0, 74, 0
2, 11220, Note_on_c, 0, 75, 88
2, 11279, Note_off_c, 0, 75, 0
2, 11280, Note_on_c, 0, 67, 88
2, 11339, Note_off_c, 0, 67, 0
2, 11340, Note_on_c, 0, 75, 88
2, 11399, Note_off_c, 0, 75, 0
2, 11400, Note_on_c, 0, 65, 88
2, 11459, Note_off_c, 0, 65, 0
2, 11460, Note_on_c, 0, 74, 88
2, 11519, Note_off_c, 0, 74, 0
2, 11520, Note_on_c, 0, 75, 88
2, 11639, Note_off_c, 0, 75, 0
2, 11640, Note_on_c, 0, 75, 88
2, 11819, Note_off_c, 0, 75, 0
2, 11820, Note_on_c, 0, 74, 88
2, 11879, Note_off_c, 0, 74, 0
2, 11880, Note_on_c, 0, 75, 88
2, 12059, Note_off_c, 0, 75, 0
2, 12060, Note_on_c, 0, 74, 88
2, 12119, Note_off_c, 0, 74, 0
2, 12120, Note_on_c, 0, 75, 88
2, 12299, Note_off_c, 0, 75, 0
2, 12300, Note_on_c, 0, 75, 88
2, 12359, Note_off_c, 0, 75, 0
2, 12360, Note_on_c, 0, 73, 88
2, 12419, Note_off_c, 0, 73, 0
2, 12420, Note_on_c, 0, 72, 88
2, 12479, Note_off_c, 0, 72, 0
2, 12480, Note_on_c, 0, 73, 88
2, 12539, Note_off_c, 0, 73, 0
2, 12540, Note_on_c, 0, 79, 88
2, 12599, Note_off_c, 0, 79, 0
2, 12600, Note_on_c, 0, 82, 88
2, 12659, Note_off_c, 0, 82, 0
2, 12660, Note_on_c, 0, 80, 88
2, 12719, Note_off_c, 0, 80, 0
2, 12720, Note_on_c, 0, 79, 88
2, 12779, Note_off_c, 0, 79, 0
2, 12780, Note_on_c, 0, 77, 88
2, 12839, Note_off_c, 0, 77, 0
2, 12840, Note_on_c, 0, 75, 88
2, 12899, Note_off_c, 0, 75, 0
2, 12900, Note_on_c, 0, 73, 88
2, 12959, Note_off_c, 0, 73, 0
2, 12960, Note_on_c, 0, 72, 88
2, 13079, Note_off_c, 0, 72, 0
2, 13080, Note_on_c, 0, 72, 88
2, 13319, Note_off_c, 0, 72, 0
2, 13320, Note_on_c, 0, 72, 88
2, 13559, Note_off_c, 0, 72, 0
2, 13560, Note_on_c, 0, 72, 88
2, 13739, Note_off_c, 0, 72, 0
2, 13740, Note_on_c, 0, 70, 88
2, 13799, Note_off_c, 0, 70, 0
2, 13800, Note_on_c, 0, 68, 88
2, 13859, Note_off_c, 0, 68, 0
2, 13860, Note_on_c, 0, 67, 88
2, 13919, Note_off_c, 0, 67, 0
2, 13920, Note_on_c, 0, 68, 88
2, 13979, Note_off_c, 0, 68, 0
2, 13980, Note_on_c, 0, 63, 88
2, 14039, Note_off_c, 0, 63, 0
2, 14040, Note_on_c, 0, 72, 88
2, 14099, Note_off_c, 0, 72, 0
2, 14100, Note_on_c, 0, 70, 88
2, 14159, Note_off_c, 0, 70, 0
2, 14160, Note_on_c, 0, 68, 88
2, 14219, Note_off_c, 0, 68, 0
2, 14220, Note_on_c, 0, 67, 88
2, 14279, Note_off_c, 0, 67, 0
2, 14280, Note_on_c, 0, 65, 88
2, 14339, Note_off_c, 0, 65, 0
2, 14340, Note_on_c, 0, 63, 88
2, 14399, Note_off_c, 0, 63, 0
2, 14400, Note_on_c, 0, 62, 88
2, 14459, Note_off_c, 0, 62, 0
2, 14460, Note_on_c, 0, 63, 88
2, 14519, Note_off_c, 0, 63, 0
2, 14520, Note_on_c, 0, 62, 88
2, 14579, Note_off_c, 0, 62, 0
2, 14580, Note_on_c, 0, 60, 88
2, 14639, Note_off_c, 0, 60, 0
2, 14640, Note_on_c, 0, 62, 88
2, 14699, Note_off_c, 0, 62, 0
2, 14700, Note_on_c, 0, 65, 88
2, 14759, Note_off_c, 0, 65, 0
2, 14760, Note_on_c, 0, 58, 88
2, 14819, Note_off_c, 0, 58, 0
2, 14820, Note_on_c, 0, 60, 88
2, 14879, Note_off_c, 0, 60, 0
2, 14880, Note_on_c, 0, 62, 88
2, 14939, Note_off_c, 0, 62, 0
2, 14940, Note_on_c, 0, 63, 88
2, 14999, Note_off_c, 0, 63, 0
2, 15000, Note_on_c, 0, 65, 88
2, 15059, Note_off_c, 0, 65, 0
2, 15060, Note_on_c, 0, 67, 88
2, 15119, Note_off_c, 0, 67, 0
2, 15120, Note_on_c, 0, 68, 88
2, 15179, Note_off_c, 0, 68, 0
2, 15180, Note_on_c, 0, 70, 88
2, 15239, Note_off_c, 0, 70, 0
2, 15240, Note_on_c, 0, 68, 88
2, 15299, Note_off_c, 0, 68, 0
2, 15300, Note_on_c, 0, 67, 88
2, 15359, Note_off_c, 0, 67, 0
2, 15360, Note_on_c, 0, 68, 88
2, 15419, Note_off_c, 0, 68, 0
2, 15420, Note_on_c, 0, 72, 88
2, 15479, Note_off_c, 0, 72, 0
2, 15480, Note_on_c, 0, 65, 88
2, 15539, Note_off_c, 0, 65, 0
2, 15540, Note_on_c, 0, 67, 88
2, 15599, Note_off_c, 0, 67, 0
2, 15600, Note_on_c, 0, 68, 88
2, 15659, Note_off_c, 0, 68, 0
2, 15660, Note_on_c, 0, 70, 88
2, 15719, Note_off_c, 0, 70, 0
2, 15720, Note_on_c, 0, 72, 88
2, 15779, Note_off_c, 0, 72, 0
2, 15780, Note_on_c, 0, 74, 88
2, 15839, Note_off_c, 0, 74, 0
2, 15840, Note_on_c, 0, 75, 88
2, 15899, Note_off_c, 0, 75, 0
2, 15900, Note_on_c, 0, 68, 88
2, 15959, Note_off_c, 0, 68, 0
2, 15960, Note_on_c, 0, 67, 88
2, 16019, Note_off_c, 0, 67, 0
2, 16020, Note_on_c, 0, 65, 88
2, 16079, Note_off_c, 0, 65, 0
2, 16080, Note_on_c, 0, 67, 88
2, 16139, Note_off_c, 0, 67, 0
2, 16140, Note_on_c, 0, 70, 88
2, 16199, Note_off_c, 0, 70, 0
2, 16200, Note_on_c, 0, 67, 88
2, 16259, Note_off_c, 0, 67, 0
2, 16260, Note_on_c, 0, 65, 88
2, 16319, Note_off_c, 0, 65, 0
2, 16320, Note_on_c, 0, 63, 88
2, 16379, Note_off_c, 0, 63, 0
2, 16380, Note_on_c, 0, 73, 88
2, 16439, Note_off_c, 0, 73, 0
2, 16440, Note_on_c, 0, 72, 88
2, 16499, Note_off_c, 0, 72, 0
2, 16500, Note_on_c, 0, 70, 88
2, 16559, Note_off_c, 0, 70, 0
2, 16560, Note_on_c, 0, 72, 88
2, 16739, Note_off_c, 0, 72, 0
2, 16740, Note_on_c, 0, 75, 88
2, 16799, Note_off_c, 0, 75, 0
2, 16800, Note_on_c, 0, 75, 88
2, 16979, Note_off_c, 0, 75, 0
2, 16980, Note_on_c, 0, 80, 88
2, 17039, Note_off_c, 0, 80, 0
2, 17040, Note_on_c, 0, 80, 88
2, 17339, Note_off_c, 0, 80, 0
2, 17340, Note_on_c, 0, 67, 88
2, 17399, Note_off_c, 0, 67, 0
2, 17400, Note_on_c, 0, 65, 88
2, 17459, Note_off_c, 0, 65, 0
2, 17460, Note_on_c, 0, 64, 88
2, 17519, Note_off_c, 0, 64, 0
2, 17520, Note_on_c, 0, 65, 88
2, 17579, Note_off_c, 0, 65, 0
2, 17580, Note_on_c, 0, 68, 88
2, 17639, Note_off_c, 0, 68, 0
2, 17640, Note_on_c, 0, 65, 88
2, 17699, Note_off_c, 0, 65, 0
2, 17700, Note_on_c, 0, 63, 88
2, 17759, Note_off_c, 0, 63, 0
2, 17760, Note_on_c, 0, 61, 88
2, 17819, Note_off_c, 0, 61, 0
2, 17820, Note_on_c, 0, 72, 88
2, 17879, Note_off_c, 0, 72, 0
2, 17880, Note_on_c, 0, 70, 88
2, 17939, Note_off_c, 0, 70, 0
2, 17940, Note_on_c, 0, 68, 88
2, 17999, Note_off_c, 0, 68, 0
2, 18000, Note_on_c, 0, 70, 88
2, 18179, Note_off_c, 0, 70, 0
2, 18180, Note_on_c, 0, 73, 88
2, 18239, Note_off_c, 0, 73, 0
2, 18240, Note_on_c, 0, 73, 88
2, 18419, Note_off_c, 0, 73, 0
2, 18420, Note_on_c, 0, 79, 88
2, 18479, Note_off_c, 0, 79, 0
2, 18480, Note_on_c, 0, 79, 88
2, 18779, Note_off_c, 0, 79, 0
2, 18780, Note_on_c, 0, 65, 88
2, 18839, Note_off_c, 0, 65, 0
2, 18840, Note_on_c, 0, 64, 88
2, 18899, Note_off_c, 0, 64, 0
2, 18900, Note_on_c, 0, 62, 88
2, 18959, Note_off_c, 0, 62, 0
2, 18960, Note_on_c, 0, 64, 88
2, 19019, Note_off_c, 0, 64, 0
2, 19020, Note_on_c, 0, 67, 88
2, 19079, Note_off_c, 0, 67, 0
2, 19080, Note_on_c, 0, 64, 88
2, 19139, Note_off_c, 0, 64, 0
2, 19140, Note_on_c, 0, 62, 88
2, 19199, Note_off_c, 0, 62, 0
2, 19200, Note_on_c, 0, 60, 88
2, 19259, Note_off_c, 0, 60, 0
2, 19260, Note_on_c, 0, 70, 88
2, 19319, Note_off_c, 0, 70, 0
2, 19320, Note_on_c, 0, 68, 88
2, 19379, Note_off_c, 0, 68, 0
2, 19380, Note_on_c, 0, 67, 88
2, 19439, Note_off_c, 0, 67, 0
2, 19440, Note_on_c, 0, 68, 88
2, 19619, Note_off_c, 0, 68, 0
2, 19620, Note_on_c, 0, 72, 88
2, 19679, Note_off_c, 0, 72, 0
2, 19680, Note_on_c, 0, 72, 88
2, 19859, Note_off_c, 0, 72, 0
2, 19860, Note_on_c, 0, 77, 88
2, 19919, Note_off_c, 0, 77, 0
2, 19920, Note_on_c, 0, 77, 88
2, 20219, Note_off_c, 0, 77, 0
2, 20220, Note_on_c, 0, 78, 88
2, 20279, Note_off_c, 0, 78, 0
2, 20280, Note_on_c, 0, 77, 88
2, 20339, Note_off_c, 0, 77, 0
2, 20340, Note_on_c, 0, 76, 88
2, 20399, Note_off_c, 0, 76, 0
2, 20400, Note_on_c, 0, 77, 88
2, 20459, Note_off_c, 0, 77, 0
2, 20460, Note_on_c, 0, 82, 88
2, 20519, Note_off_c, 0, 82, 0
2, 20520, Note_on_c, 0, 77, 88
2, 20579, Note_off_c, 0, 77, 0
2, 20580, Note_on_c, 0, 75, 88
2, 20639, Note_off_c, 0, 75, 0
2, 20640, Note_on_c, 0, 73, 88
2, 20699, Note_off_c, 0, 73, 0
2, 20700, Note_on_c, 0, 77, 88
2, 20759, Note_off_c, 0, 77, 0
2, 20760, Note_on_c, 0, 73, 88
2, 20819, Note_off_c, 0, 73, 0
2, 20820, Note_on_c, 0, 72, 88
2, 20879, Note_off_c, 0, 72, 0
2, 20880, Note_on_c, 0, 70, 88
2, 20939, Note_off_c, 0, 70, 0
2, 20940, Note_on_c, 0, 75, 88
2, 20999, Note_off_c, 0, 75, 0
2, 21000, Note_on_c, 0, 73, 88
2, 21059, Note_off_c, 0, 73, 0
2, 21060, Note_on_c, 0, 72, 88
2, 21119, Note_off_c, 0, 72, 0
2, 21120, Note_on_c, 0, 73, 88
2, 21179, Note_off_c, 0, 73, 0
2, 21180, Note_on_c, 0, 77, 88
2, 21239, Note_off_c, 0, 77, 0
2, 21240, Note_on_c, 0, 73, 88
2, 21299, Note_off_c, 0, 73, 0
2, 21300, Note_on_c, 0, 72, 88
2, 21359, Note_off_c, 0, 72, 0
2, 21360, Note_on_c, 0, 70, 88
2, 21419, Note_off_c, 0, 70, 0
2, 21420, Note_on_c, 0, 73, 88
2, 21479, Note_off_c, 0, 73, 0
2, 21480, Note_on_c, 0, 70, 88
2, 21539, Note_off_c, 0, 70, 0
2, 21540, Note_on_c, 0, 68, 88
2, 21599, Note_off_c, 0, 68, 0
2, 21600, Note_on_c, 0, 66, 88
2, 21659, Note_off_c, 0, 66, 0
2, 21660, Note_on_c, 0, 71, 88
2, 21719, Note_off_c, 0, 71, 0
2, 21720, Note_on_c, 0, 70, 88
2, 21779, Note_off_c, 0, 70, 0
2, 21780, Note_on_c, 0, 69, 88
2, 21839, Note_off_c, 0, 69, 0
2, 21840, Note_on_c, 0, 70, 88
2, 21899, Note_off_c, 0, 70, 0
2, 21900, Note_on_c, 0, 73, 88
2, 21959, Note_off_c, 0, 73, 0
2, 21960, Note_on_c, 0, 70, 88
2, 22019, Note_off_c, 0, 70, 0
2, 22020, Note_on_c, 0, 68, 88
2, 22079, Note_off_c, 0, 68, 0
2, 22080, Note_on_c, 0, 66, 88
2, 22139, Note_off_c, 0, 66, 0
2, 22140, Note_on_c, 0, 70, 88
2, 22199, Note_off_c, 0, 70, 0
2, 22200, Note_on_c, 0, 66, 88
2, 22259, Note_off_c, 0, 66, 0
2, 22260, Note_on_c, 0, 65, 88
2, 22319, Note_off_c, 0, 65, 0
2, 22320, Note_on_c, 0, 64, 88
2, 22469, Note_off_c, 0, 64, 0
2, 22470, Note_on_c, 0, 62, 88
2, 22499, Note_off_c, 0, 62, 0
2, 22500, Note_on_c, 0, 64, 88
2, 22529, Note_off_c, 0, 64, 0
2, 22530, Note_on_c, 0, 65, 88
2, 22559, Note_off_c, 0, 65, 0
2, 22560, Note_on_c, 0, 67, 88
2, 22709, Note_off_c, 0, 67, 0
2, 22710, Note_on_c, 0, 65, 88
2, 22739, Note_off_c, 0, 65, 0
2, 22740, Note_on_c, 0, 67, 88
2, 22769, Note_off_c, 0, 67, 0
2, 22770, Note_on_c, 0, 68, 88
2, 22799, Note_off_c, 0, 68, 0
2, 22800, Note_on_c, 0, 70, 88
2, 23069, Note_off_c, 0, 70, 0
2, 23070, Note_on_c, 0, 72, 88
2, 23099, Note_off_c, 0, 72, 0
2, 23100, Note_on_c, 0, 74, 88
2, 23129, Note_off_c, 0, 74, 0
2, 23130, Note_on_c, 0, 76, 88
2, 23159, Note_off_c, 0, 76, 0
2, 23160, Note_on_c, 0, 77, 88
2, 23309, Note_off_c, 0, 77, 0
2, 23310, Note_on_c, 0, 72, 88
2, 23339, Note_off_c, 0, 72, 0
2, 23340, Note_on_c, 0, 70, 88
2, 23369, Note_off_c, 0, 70, 0
2, 23370, Note_on_c, 0, 68, 88
2, 23399, Note_off_c, 0, 68, 0
2, 23400, Note_on_c, 0, 70, 88
2, 23459, Note_off_c, 0, 70, 0
2, 23460, Note_on_c, 0, 73, 88
2, 23519, Note_off_c, 0, 73, 0
2, 23520, Note_on_c, 0, 67, 88
2, 23579, Note_off_c, 0, 67, 0
2, 23580, Note_on_c, 0, 70, 88
2, 23879, Note_off_c, 0, 70, 0
2, 23880, Note_on_c, 0, 68, 88
2, 24119, Note_off_c, 0, 68, 0
2, 24120, Note_on_c, 0, 68, 88
2, 24359, Note_off_c, 0, 68, 0
2, 24360, Note_on_c, 0, 68, 88
2, 24539, Note_off_c, 0, 68, 0
2, 24540, Note_on_c, 0, 67, 88
2, 24599, Note_off_c, 0, 67, 0
2, 24600, Note_on_c, 0, 65, 88
2, 24659, Note_off_c, 0, 65, 0
2, 24660, Note_on_c, 0, 64, 88
2, 24719, Note_off_c, 0, 64, 0
2, 24720, Note_on_c, 0, 65, 88
2, 24779, Note_off_c, 0, 65, 0
2, 24780, Note_on_c, 0, 68, 88
2, 24839, Note_off_c, 0, 68, 0
2, 24840, Note_on_c, 0, 72, 88
2, 24899, Note_off_c, 0, 72, 0
2, 24900, Note_on_c, 0, 70, 88
2, 24959, Note_off_c, 0, 70, 0
2, 24960, Note_on_c, 0, 68, 88
2, 25019, Note_off_c, 0, 68, 0
2, 25020, Note_on_c, 0, 67, 88
2, 25079, Note_off_c, 0, 67, 0
2, 25080, Note_on_c, 0, 65, 88
2, 25139, Note_off_c, 0, 65, 0
2, 25140, Note_on_c, 0, 63, 88
2, 25199, Note_off_c, 0, 63, 0
2, 25200, Note_on_c, 0, 70, 88
2, 25319, Note_off_c, 0, 70, 0
2, 25320, Note_on_c, 0, 70, 88
2, 25499, Note_off_c, 0, 70, 0
2, 25500, Note_on_c, 0, 69, 88
2, 25559, Note_off_c, 0, 69, 0
2, 25560, Note_on_c, 0, 70, 88
2, 25739, Note_off_c, 0, 70, 0
2, 25740, Note_on_c, 0, 69, 88
2, 25799, Note_off_c, 0, 69, 0
2, 25800, Note_on_c, 0, 70, 88
2, 25979, Note_off_c, 0, 70, 0
2, 25980, Note_on_c, 0, 53, 88
2, 26039, Note_off_c, 0, 53, 0
2, 26040, Note_on_c, 0, 55, 88
2, 26099, Note_off_c, 0, 55, 0
2, 26100, Note_on_c, 0, 57, 88
2, 26159, Note_off_c, 0, 57, 0
2, 26160, Note_on_c, 0, 58, 88
2, 26219, Note_off_c, 0, 58, 0
2, 26220, Note_on_c, 0, 60, 88
2, 26279, Note_off_c, 0, 60, 0
2, 26280, Note_on_c, 0, 61, 88
2, 26339, Note_off_c, 0, 61, 0
2, 26340, Note_on_c, 0, 60, 88
2, 26399, Note_off_c, 0, 60, 0
2, 26400, Note_on_c, 0, 63, 88
2, 26459, Note_off_c, 0, 63, 0
2, 26460, Note_on_c, 0, 61, 88
2, 26519, Note_off_c, 0, 61, 0
2, 26520, Note_on_c, 0, 60, 88
2, 26579, Note_off_c, 0, 60, 0
2, 26580, Note_on_c, 0, 58, 88
2, 26639, Note_off_c, 0, 58, 0
2, 26640, Note_on_c, 0, 64, 88
2, 26699, Note_off_c, 0, 64, 0
2, 26700, Note_on_c, 0, 61, 88
2, 26759, Note_off_c, 0, 61, 0
2, 26760, Note_on_c, 0, 60, 88
2, 26819, Note_off_c, 0, 60, 0
2, 26820, Note_on_c, 0, 58, 88
2, 26879, Note_off_c, 0, 58, 0
2, 26880, Note_on_c, 0, 67, 88
2, 26939, Note_off_c, 0, 67, 0
2, 26940, Note_on_c, 0, 61, 88
2, 26999, Note_off_c, 0, 61, 0
2, 27000, Note_on_c, 0, 60, 88
2, 27059, Note_off_c, 0, 60, 0
2, 27060, Note_on_c, 0, 58, 88
2, 27119, Note_off_c, 0, 58, 0
2, 27120, Note_on_c, 0, 70, 88
2, 27179, Note_off_c, 0, 70, 0
2, 27180, Note_on_c, 0, 68, 88
2, 27239, Note_off_c, 0, 68, 0
2, 27240, Note_on_c, 0, 67, 88
2, 27299, Note_off_c, 0, 67, 0
2, 27300, Note_on_c, 0, 65, 88
2, 27359, Note_off_c, 0, 65, 0
2, 27360, Note_on_c, 0, 73, 88
2, 27419, Note_off_c, 0, 73, 0
2, 27420, Note_on_c, 0, 68, 88
2, 27479, Note_off_c, 0, 68, 0
2, 27480, Note_on_c, 0, 67, 88
2, 27539, Note_off_c, 0, 67, 0
2, 27540, Note_on_c, 0, 65, 88
2, 27599, Note_off_c, 0, 65, 0
2, 27600, Note_on_c, 0, 64, 88
2, 27749, Note_off_c, 0, 64, 0
2, 27750, Note_on_c, 0, 67, 88
2, 27779, Note_off_c, 0, 67, 0
2, 27780, Note_on_c, 0, 70, 88
2, 27809, Note_off_c, 0, 70, 0
2, 27810, Note_on_c, 0, 76, 88
2, 27839, Note_off_c, 0, 76, 0
2, 27840, Note_on_c, 0, 79, 88
2, 28019, Note_off_c, 0, 79, 0
2, 28020, Note_on_c, 0, 70, 88
2, 28079, Note_off_c, 0, 70, 0
2, 28080, Note_on_c, 0, 68, 88
2, 28139, Note_off_c, 0, 68, 0
2, 28140, Note_on_c, 0, 73, 88
2, 28199, Note_off_c, 0, 73, 0
2, 28200, Note_on_c, 0, 72, 88
2, 28259, Note_off_c, 0, 72, 0
2, 28260, Note_on_c, 0, 70, 88
2, 28319, Note_off_c, 0, 70, 0
2, 28320, Note_on_c, 0, 72, 88
2, 28379, Note_off_c, 0, 72, 0
2, 28380, Note_on_c, 0, 77, 88
2, 28439, Note_off_c, 0, 77, 0
2, 28440, Note_on_c, 0, 72, 88
2, 28499, Note_off_c, 0, 72, 0
2, 28500, Note_on_c, 0, 70, 88
2, 28559, Note_off_c, 0, 70, 0
2, 28560, Note_on_c, 0, 68, 88
2, 28619, Note_off_c, 0, 68, 0
2, 28620, Note_on_c, 0, 72, 88
2, 28679, Note_off_c, 0, 72, 0
2, 28680, Note_on_c, 0, 68, 88
2, 28739, Note_off_c, 0, 68, 0
2, 28740, Note_on_c, 0, 67, 88
2, 28799, Note_off_c, 0, 67, 0
2, 28800, Note_on_c, 0, 65, 88
2, 28859, Note_off_c, 0, 65, 0
2, 28860, Note_on_c, 0, 70, 88
2, 28919, Note_off_c, 0, 70, 0
2, 28920, Note_on_c, 0, 69, 88
2, 28979, Note_off_c, 0, 69, 0
2, 28980, Note_on_c, 0, 67, 88
2, 29039, Note_off_c, 0, 67, 0
2, 29040, Note_on_c, 0, 69, 88
2, 29099, Note_off_c, 0, 69, 0
2, 29100, Note_on_c, 0, 72, 88
2, 29159, Note_off_c, 0, 72, 0
2, 29160, Note_on_c, 0, 69, 88
2, 29219, Note_off_c, 0, 69, 0
2, 29220, Note_on_c, 0, 67, 88
2, 29279, Note_off_c, 0, 67, 0
2, 29280, Note_on_c, 0, 65, 88
2, 29339, Note_off_c, 0, 65, 0
2, 29340, Note_on_c, 0, 72, 88
2, 29399, Note_off_c, 0, 72, 0
2, 29400, Note_on_c, 0, 65, 88
2, 29459, Note_off_c, 0, 65, 0
2, 29460, Note_on_c, 0, 63, 88
2, 29519, Note_off_c, 0, 63, 0
2, 29520, Note_on_c, 0, 61, 88
2, 29579, Note_off_c, 0, 61, 0
2, 29580, Note_on_c, 0, 72, 88
2, 29639, Note_off_c, 0, 72, 0
2, 29640, Note_on_c, 0, 70, 88
2, 29699, Note_off_c, 0, 70, 0
2, 29700, Note_on_c, 0, 69, 88
2, 29759, Note_off_c, 0, 69, 0
2, 29760, Note_on_c, 0, 70, 88
2, 29819, Note_off_c, 0, 70, 0
2, 29820, Note_on_c, 0, 73, 88
2, 29879, Note_off_c, 0, 73, 0
2, 29880, Note_on_c, 0, 70, 88
2, 29939, Note_off_c, 0, 70, 0
2, 29940, Note_on_c, 0, 68, 88
2, 29999, Note_off_c, 0, 68, 0
2, 30000, Note_on_c, 0, 66, 88
2, 30059, Note_off_c, 0, 66, 0
2, 30060, Note_on_c, 0, 70, 88
2, 30119, Note_off_c, 0, 70, 0
2, 30120, Note_on_c, 0, 66, 88
2, 30179, Note_off_c, 0, 66, 0
2, 30180, Note_on_c, 0, 65, 88
2, 30239, Note_off_c, 0, 65, 0
2, 30240, Note_on_c, 0, 63, 88
2, 30299, Note_off_c, 0, 63, 0
2, 30300, Note_on_c, 0, 68, 88
2, 30359, Note_off_c, 0, 68, 0
2, 30360, Note_on_c, 0, 66, 88
2, 30419, Note_off_c, 0, 66, 0
2, 30420, Note_on_c, 0, 65, 88
2, 30479, Note_off_c, 0, 65, 0
2, 30480, Note_on_c, 0, 66, 88
2, 30539, Note_off_c, 0, 66, 0
2, 30540, Note_on_c, 0, 70, 88
2, 30599, Note_off_c, 0, 70, 0
2, 30600, Note_on_c, 0, 66, 88
2, 30659, Note_off_c, 0, 66, 0
2, 30660, Note_on_c, 0, 65, 88
2, 30719, Note_off_c, 0, 65, 0
2, 30720, Note_on_c, 0, 63, 88
2, 30779, Note_off_c, 0, 63, 0
2, 30780, Note_on_c, 0, 70, 88
2, 30839, Note_off_c, 0, 70, 0
2, 30840, Note_on_c, 0, 63, 88
2, 30899, Note_off_c, 0, 63, 0
2, 30900, Note_on_c, 0, 61, 88
2, 30959, Note_off_c, 0, 61, 0
2, 30960, Note_on_c, 0, 60, 88
2, 30989, Note_off_c, 0, 60, 0
2, 30990, Note_on_c, 0, 61, 88
2, 31019, Note_off_c, 0, 61, 0
2, 31020, Note_on_c, 0, 63, 88
2, 31079, Note_off_c, 0, 63, 0
2, 31080, Note_on_c, 0, 57, 88
2, 31259, Note_off_c, 0, 57, 0
2, 31260, Note_on_c, 0, 60, 88
2, 31319, Note_off_c, 0, 60, 0
2, 31320, Note_on_c, 0, 63, 88
2, 31379, Note_off_c, 0, 63, 0
2, 31380, Note_on_c, 0, 66, 88
2, 31439, Note_off_c, 0, 66, 0
2, 31440, Note_on_c, 0, 65, 88
2, 31499, Note_off_c, 0, 65, 0
2, 31500, Note_on_c, 0, 63, 88
2, 31559, Note_off_c, 0, 63, 0
2, 31560, Note_on_c, 0, 61, 88
2, 31619, Note_off_c, 0, 61, 0
2, 31620, Note_on_c, 0, 60, 88
2, 31679, Note_off_c, 0, 60, 0
2, 31680, Note_on_c, 0, 61, 88
2, 31709, Note_off_c, 0, 61, 0
2, 31710, Note_on_c, 0, 63, 88
2, 31739, Note_off_c, 0, 63, 0
2, 31740, Note_on_c, 0, 65, 88
2, 31799, Note_off_c, 0, 65, 0
2, 31800, Note_on_c, 0, 58, 88
2, 31979, Note_off_c, 0, 58, 0
2, 31980, Note_on_c, 0, 61, 88
2, 32039, Note_off_c, 0, 61, 0
2, 32040, Note_on_c, 0, 66, 88
2, 32099, Note_off_c, 0, 66, 0
2, 32100, Note_on_c, 0, 70, 88
2, 32159, Note_off_c, 0, 70, 0
2, 32160, Note_on_c, 0, 68, 88
2, 32219, Note_off_c, 0, 68, 0
2, 32220, Note_on_c, 0, 66, 88
2, 32279, Note_off_c, 0, 66, 0
2, 32280, Note_on_c, 0, 65, 88
2, 32339, Note_off_c, 0, 65, 0
2, 32340, Note_on_c, 0, 63, 88
2, 32399, Note_off_c, 0, 63, 0
2, 32400, Note_on_c, 0, 65, 88
2, 32429, Note_off_c, 0, 65, 0
2, 32430, Note_on_c, 0, 66, 88
2, 32459, Note_off_c, 0, 66, 0
2, 32460, Note_on_c, 0, 68, 88
2, 32519, Note_off_c, 0, 68, 0
2, 32520, Note_on_c, 0, 61, 88
2, 32699, Note_off_c, 0, 61, 0
2, 32700, Note_on_c, 0, 65, 88
2, 32759, Note_off_c, 0, 65, 0
2, 32760, Note_on_c, 0, 70, 88
2, 32819, Note_off_c, 0, 70, 0
2, 32820, Note_on_c, 0, 73, 88
2, 32879, Note_off_c, 0, 73, 0
2, 32880, Note_on_c, 0, 72, 88
2, 32939, Note_off_c, 0, 72, 0
2, 32940, Note_on_c, 0, 70, 88
2, 32999, Note_off_c, 0, 70, 0
2, 33000, Note_on_c, 0, 68, 88
2, 33059, Note_off_c, 0, 68, 0
2, 33060, Note_on_c, 0, 66, 88
2, 33119, Note_off_c, 0, 66, 0
2, 33120, Note_on_c, 0, 68, 88
2, 33149, Note_off_c, 0, 68, 0
2, 33150, Note_on_c, 0, 66, 88
2, 33179, Note_off_c, 0, 66, 0
2, 33180, Note_on_c, 0, 65, 88
2, 33239, Note_off_c, 0, 65, 0
2, 33240, Note_on_c, 0, 73, 88
2, 33419, Note_off_c, 0, 73, 0
2, 33420, Note_on_c, 0, 68, 88
2, 33479, Note_off_c, 0, 68, 0
2, 33480, Note_on_c, 0, 73, 88
2, 33539, Note_off_c, 0, 73, 0
2, 33540, Note_on_c, 0, 77, 88
2, 33599, Note_off_c, 0, 77, 0
2, 33600, Note_on_c, 0, 75, 88
2, 33659, Note_off_c, 0, 75, 0
2, 33660, Note_on_c, 0, 73, 88
2, 33719, Note_off_c, 0, 73, 0
2, 33720, Note_on_c, 0, 72, 88
2, 33779, Note_off_c, 0, 72, 0
2, 33780, Note_on_c, 0, 70, 88
2, 33839, Note_off_c, 0, 70, 0
2, 33840, Note_on_c, 0, 72, 88
2, 33869, Note_off_c, 0, 72, 0
2, 33870, Note_on_c, 0, 73, 88
2, 33899, Note_off_c, 0, 73, 0
2, 33900, Note_on_c, 0, 75, 88
2, 33959, Note_off_c, 0, 75, 0
2, 33960, Note_on_c, 0, 68, 88
2, 34019, Note_off_c, 0, 68, 0
2, 34020, Note_on_c, 0, 70, 88
2, 34079, Note_off_c, 0, 70, 0
2, 34080, Note_on_c, 0, 72, 88
2, 34139, Note_off_c, 0, 72, 0
2, 34140, Note_on_c, 0, 73, 88
2, 34199, Note_off_c, 0, 73, 0
2, 34200, Note_on_c, 0, 75, 88
2, 34259, Note_off_c, 0, 75, 0
2, 34260, Note_on_c, 0, 77, 88
2, 34319, Note_off_c, 0, 77, 0
2, 34320, Note_on_c, 0, 78, 88
2, 34379, Note_off_c, 0, 78, 0
2, 34380, Note_on_c, 0, 75, 88
2, 34439, Note_off_c, 0, 75, 0
2, 34440, Note_on_c, 0, 73, 88
2, 34499, Note_off_c, 0, 73, 0
2, 34500, Note_on_c, 0, 72, 88
2, 34559, Note_off_c, 0, 72, 0
2, 34560, Note_on_c, 0, 80, 88
2, 34619, Note_off_c, 0, 80, 0
2, 34620, Note_on_c, 0, 77, 88
2, 34649, Note_off_c, 0, 77, 0
2, 34650, Note_on_c, 0, 75, 88
2, 34679, Note_off_c, 0, 75, 0
2, 34680, Note_on_c, 0, 73, 88
2, 34709, Note_off_c, 0, 73, 0
2, 34710, Note_on_c, 0, 75, 88
2, 34739, Note_off_c, 0, 75, 0
2, 34740, Note_on_c, 0, 77, 88
2, 34799, Note_off_c, 0, 77, 0
2, 34800, Note_on_c, 0, 66, 88
2, 34859, Note_off_c, 0, 66, 0
2, 34860, Note_on_c, 0, 75, 88
2, 34919, Note_off_c, 0, 75, 0
2, 34920, Note_on_c, 0, 72, 88
2, 34979, Note_off_c, 0, 72, 0
2, 34980, Note_on_c, 0, 73, 88
2, 35039, Note_off_c, 0, 73, 0
2, 35040, Note_on_c, 0, 65, 88
2, 35099, Note_off_c, 0, 65, 0
2, 35100, Note_on_c, 0, 73, 88
2, 35159, Note_off_c, 0, 73, 0
2, 35160, Note_on_c, 0, 63, 88
2, 35219, Note_off_c, 0, 63, 0
2, 35220, Note_on_c, 0, 72, 88
2, 35279, Note_off_c, 0, 72, 0
2, 35280, Note_on_c, 0, 73, 88
2, 35399, Note_off_c, 0, 73, 0
2, 35400, Note_on_c, 0, 73, 88
2, 35579, Note_off_c, 0, 73, 0
2, 35580, Note_on_c, 0, 72, 88
2, 35639, Note_off_c, 0, 72, 0
2, 35640, Note_on_c, 0, 73, 88
2, 35819, Note_off_c, 0, 73, 0
2, 35820, Note_on_c, 0, 72, 88
2, 35879, Note_off_c, 0, 72, 0
2, 35880, Note_on_c, 0, 73, 88
2, 36059, Note_off_c, 0, 73, 0
2, 36060, Note_on_c, 0, 73, 88
2, 36119, Note_off_c, 0, 73, 0
2, 36120, Note_on_c, 0, 71, 88
2, 36179, Note_off_c, 0, 71, 0
2, 36180, Note_on_c, 0, 70, 88
2, 36239, Note_off_c, 0, 70, 0
2, 36240, Note_on_c, 0, 71, 88
2, 36299, Note_off_c, 0, 71, 0
2, 36300, Note_on_c, 0, 77, 88
2, 36359, Note_off_c, 0, 77, 0
2, 36360, Note_on_c, 0, 80, 88
2, 36419, Note_off_c, 0, 80, 0
2, 36420, Note_on_c, 0, 78, 88
2, 36479, Note_off_c, 0, 78, 0
2, 36480, Note_on_c, 0, 77, 88
2, 36539, Note_off_c, 0, 77, 0
2, 36540, Note_on_c, 0, 75, 88
2, 36599, Note_off_c, 0, 75, 0
2, 36600, Note_on_c, 0, 73, 88
2, 36659, Note_off_c, 0, 73, 0
2, 36660, Note_on_c, 0, 71, 88
2, 36719, Note_off_c, 0, 71, 0
2, 36720, Note_on_c, 0, 70, 88
2, 36779, Note_off_c, 0, 70, 0
2, 36780, Note_on_c, 0, 77, 88
2, 36809, Note_off_c, 0, 77, 0
2, 36810, Note_on_c, 0, 78, 88
2, 36839, Note_off_c, 0, 78, 0
2, 36840, Note_on_c, 0, 80, 88
2, 37019, Note_off_c, 0, 80, 0
2, 37020, Note_on_c, 0, 78, 88
2, 37079, Note_off_c, 0, 78, 0
2, 37080, Note_on_c, 0, 80, 88
2, 37259, Note_off_c, 0, 80, 0
2, 37260, Note_on_c, 0, 78, 88
2, 37319, Note_off_c, 0, 78, 0
2, 37320, Note_on_c, 0, 80, 88
2, 37499, Note_off_c, 0, 80, 0
2, 37500, Note_on_c, 0, 80, 88
2, 37559, Note_off_c, 0, 80, 0
2, 37560, Note_on_c, 0, 78, 88
2, 37619, Note_off_c, 0, 78, 0
2, 37620, Note_on_c, 0, 77, 88
2, 37679, Note_off_c, 0, 77, 0
2, 37680, Note_on_c, 0, 78, 88
2, 37739, Note_off_c, 0, 78, 0
2, 37740, Note_on_c, 0, 82, 88
2, 37799, Note_off_c, 0, 82, 0
2, 37800, Note_on_c, 0, 75, 88
2, 37859, Note_off_c, 0, 75, 0
2, 37860, Note_on_c, 0, 77, 88
2, 37919, Note_off_c, 0, 77, 0
2, 37920, Note_on_c, 0, 78, 88
2, 37979, Note_off_c, 0, 78, 0
2, 37980, Note_on_c, 0, 75, 88
2, 38039, Note_off_c, 0, 75, 0
2, 38040, Note_on_c, 0, 81, 88
2, 38099, Note_off_c, 0, 81, 0
2, 38100, Note_on_c, 0, 82, 88
2, 38159, Note_off_c, 0, 82, 0
2, 38160, Note_on_c, 0, 84, 88
2, 38189, Note_off_c, 0, 84, 0
2, 38190, Note_on_c, 0, 77, 88
2, 38219, Note_off_c, 0, 77, 0
2, 38220, Note_on_c, 0, 75, 88
2, 38249, Note_off_c, 0, 75, 0
2, 38250, Note_on_c, 0, 73, 88
2, 38279, Note_off_c, 0, 73, 0
2, 38280, Note_on_c, 0, 75, 88
2, 38459, Note_off_c, 0, 75, 0
2, 38460, Note_on_c, 0, 73, 88
2, 38519, Note_off_c, 0, 73, 0
2, 38520, Note_on_c, 0, 75, 88
2, 38699, Note_off_c, 0, 75, 0
2, 38700, Note_on_c, 0, 73, 88
2, 38759, Note_off_c, 0, 73, 0
2, 38760, Note_on_c, 0, 75, 88
2, 38939, Note_off_c, 0, 75, 0
2, 38940, Note_on_c, 0, 75, 88
2, 38999, Note_off_c, 0, 75, 0
2, 39000, Note_on_c, 0, 73, 88
2, 39059, Note_off_c, 0, 73, 0
2, 39060, Note_on_c, 0, 72, 88
2, 39119, Note_off_c, 0, 72, 0
2, 39120, Note_on_c, 0, 73, 88
2, 39179, Note_off_c, 0, 73, 0
2, 39180, Note_on_c, 0, 77, 88
2, 39239, Note_off_c, 0, 77, 0
2, 39240, Note_on_c, 0, 70, 88
2, 39299, Note_off_c, 0, 70, 0
2, 39300, Note_on_c, 0, 72, 88
2, 39359, Note_off_c, 0, 72, 0
2, 39360, Note_on_c, 0, 73, 88
2, 39419, Note_off_c, 0, 73, 0
2, 39420, Note_on_c, 0, 70, 88
2, 39479, Note_off_c, 0, 70, 0
2, 39480, Note_on_c, 0, 76, 88
2, 39539, Note_off_c, 0, 76, 0
2, 39540, Note_on_c, 0, 77, 88
2, 39599, Note_off_c, 0, 77, 0
2, 39600, Note_on_c, 0, 79, 88
2, 39629, Note_off_c, 0, 79, 0
2, 39630, Note_on_c, 0, 72, 88
2, 39659, Note_off_c, 0, 72, 0
2, 39660, Note_on_c, 0, 70, 88
2, 39689, Note_off_c, 0, 70, 0
2, 39690, Note_on_c, 0, 68, 88
2, 39719, Note_off_c, 0, 68, 0
2, 39720, Note_on_c, 0, 70, 88
2, 39899, Note_off_c, 0, 70, 0
2, 39900, Note_on_c, 0, 68, 88
2, 39959, Note_off_c, 0, 68, 0
2, 39960, Note_on_c, 0, 70, 88
2, 40139, Note_off_c, 0, 70, 0
2, 40140, Note_on_c, 0, 68, 88
2, 40199, Note_off_c, 0, 68, 0
2, 40200, Note_on_c, 0, 70, 88
2, 40349, Note_off_c, 0, 70, 0
2, 40350, Note_on_c, 0, 70, 88
2, 40379, Note_off_c, 0, 70, 0
2, 40380, Note_on_c, 0, 68, 88
2, 40409, Note_off_c, 0, 68, 0
2, 40410, Note_on_c, 0, 67, 88
2, 40439, Note_off_c, 0, 67, 0
2, 40440, Note_on_c, 0, 68, 88
2, 40589, Note_off_c, 0, 68, 0
2, 40590, Note_on_c, 0, 67, 88
2, 40619, Note_off_c, 0, 67, 0
2, 40620, Note_on_c, 0, 65, 88
2, 40649, Note_off_c, 0, 65, 0
2, 40650, Note_on_c, 0, 64, 88
2, 40679, Note_off_c, 0, 64, 0
2, 40680, Note_on_c, 0, 65, 88
2, 40739, Note_off_c, 0, 65, 0
2, 40740, Note_on_c, 0, 68, 88
2, 40799, Note_off_c, 0, 68, 0
2, 40800, Note_on_c, 0, 73, 88
2, 40859, Note_off_c, 0, 73, 0
2, 40860, Note_on_c, 0, 68, 88
2, 40919, Note_off_c, 0, 68, 0
2, 40920, Note_on_c, 0, 67, 88
2, 40979, Note_off_c, 0, 67, 0
2, 40980, Note_on_c, 0, 65, 88
2, 41039, Note_off_c, 0, 65, 0
2, 41040, Note_on_c, 0, 63, 88
2, 41099, Note_off_c, 0, 63, 0
2, 41100, Note_on_c, 0, 70, 88
2, 41129, Note_off_c, 0, 70, 0
2, 41130, Note_on_c, 0, 72, 88
2, 41159, Note_off_c, 0, 72, 0
2, 41160, Note_on_c, 0, 73, 88
2, 41339, Note_off_c, 0, 73, 0
2, 41340, Note_on_c, 0, 72, 88
2, 41399, Note_off_c, 0, 72, 0
2, 41400, Note_on_c, 0, 73, 88
2, 41579, Note_off_c, 0, 73, 0
2, 41580, Note_on_c, 0, 72, 88
2, 41639, Note_off_c, 0, 72, 0
2, 41640, Note_on_c, 0, 73, 88
2, 41789, Note_off_c, 0, 73, 0
2, 41790, Note_on_c, 0, 72, 88
2, 41819, Note_off_c, 0, 72, 0
2, 41820, Note_on_c, 0, 70, 88
2, 41849, Note_off_c, 0, 70, 0
2, 41850, Note_on_c, 0, 68, 88
2, 41879, Note_off_c, 0, 68, 0
2, 41880, Note_on_c, 0, 78, 88
2, 42119, Note_off_c, 0, 78, 0
2, 42120, Note_on_c, 0, 78, 88
2, 42359, Note_off_c, 0, 78, 0
2, 42360, Note_on_c, 0, 78, 88
2, 42539, Note_off_c, 0, 78, 0
2, 42540, Note_on_c, 0, 78, 88
2, 42599, Note_off_c, 0, 78, 0
2, 42600, Note_on_c, 0, 77, 88
2, 42659, Note_off_c, 0, 77, 0
2, 42660, Note_on_c, 0, 75, 88
2, 42719, Note_off_c, 0, 75, 0
2, 42720, Note_on_c, 0, 77, 88
2, 42779, Note_off_c, 0, 77, 0
2, 42780, Note_on_c, 0, 80, 88
2, 42839, Note_off_c, 0, 80, 0
2, 42840, Note_on_c, 0, 73, 88
2, 42899, Note_off_c, 0, 73, 0
2, 42900, Note_on_c, 0, 75, 88
2, 42959, Note_off_c, 0, 75, 0
2, 42960, Note_on_c, 0, 77, 88
2, 43019, Note_off_c, 0, 77, 0
2, 43020, Note_on_c, 0, 73, 88
2, 43079, Note_off_c, 0, 73, 0
2, 43080, Note_on_c, 0, 70, 88
2, 43139, Note_off_c, 0, 70, 0
2, 43140, Note_on_c, 0, 72, 88
2, 43199, Note_off_c, 0, 72, 0
2, 43200, Note_on_c, 0, 73, 88
2, 43259, Note_off_c, 0, 73, 0
2, 43260, Note_on_c, 0, 70, 88
2, 43319, Note_off_c, 0, 70, 0
2, 43320, Note_on_c, 0, 63, 88
2, 43379, Note_off_c, 0, 63, 0
2, 43380, Note_on_c, 0, 65, 88
2, 43439, Note_off_c, 0, 65, 0
2, 43440, Note_on_c, 0, 67, 88
2, 43499, Note_off_c, 0, 67, 0
2, 43500, Note_on_c, 0, 68, 88
2, 43559, Note_off_c, 0, 68, 0
2, 43560, Note_on_c, 0, 70, 88
2, 43619, Note_off_c, 0, 70, 0
2, 43620, Note_on_c, 0, 72, 88
2, 43679, Note_off_c, 0, 72, 0
2, 43680, Note_on_c, 0, 73, 88
2, 43739, Note_off_c, 0, 73, 0
2, 43740, Note_on_c, 0, 72, 88
2, 43799, Note_off_c, 0, 72, 0
2, 43800, Note_on_c, 0, 70, 88
2, 43859, Note_off_c, 0, 70, 0
2, 43860, Note_on_c, 0, 73, 88
2, 43919, Note_off_c, 0, 73, 0
2, 43920, Note_on_c, 0, 72, 88
2, 43949, Note_off_c, 0, 72, 0
2, 43950, Note_on_c, 0, 75, 88
2, 43979, Note_off_c, 0, 75, 0
2, 43980, Note_on_c, 0, 77, 88
2, 44009, Note_off_c, 0, 77, 0
2, 44010, Note_on_c, 0, 79, 88
2, 44039, Note_off_c, 0, 79, 0
2, 44040, Note_on_c, 0, 80, 88
2, 44099, Note_off_c, 0, 80, 0
2, 44100, Note_on_c, 0, 72, 88
2, 44159, Note_off_c, 0, 72, 0
2, 44160, Note_on_c, 0, 75, 88
2, 44219, Note_off_c, 0, 75, 0
2, 44220, Note_on_c, 0, 74, 88
2, 44279, Note_off_c, 0, 74, 0
2, 44280, Note_on_c, 0, 79, 88
2, 44339, Note_off_c, 0, 79, 0
2, 44340, Note_on_c, 0, 77, 88
2, 44399, Note_off_c, 0, 77, 0
2, 44400, Note_on_c, 0, 75, 88
2, 44459, Note_off_c, 0, 75, 0
2, 44460, Note_on_c, 0, 74, 88
2, 44519, Note_off_c, 0, 74, 0
2, 44520, Note_on_c, 0, 72, 88
2, 44579, Note_off_c, 0, 72, 0
2, 44580, Note_on_c, 0, 70, 88
2, 44639, Note_off_c, 0, 70, 0
2, 44640, Note_on_c, 0, 68, 88
2, 44669, Note_off_c, 0, 68, 0
2, 44670, Note_on_c, 0, 67, 88
2, 44699, Note_off_c, 0, 67, 0
2, 44700, Note_on_c, 0, 65, 88
2, 44759, Note_off_c, 0, 65, 0
2, 44760, Note_on_c, 0, 67, 88
2, 44819, Note_off_c, 0, 67, 0
2, 44820, Note_on_c, 0, 70, 88
2, 44879, Note_off_c, 0, 70, 0
2, 44880, Note_on_c, 0, 63, 88
2, 45419, Note_off_c, 0, 63, 0
2, 45420, Note_on_c, 0, 61, 88
2, 45479, Note_off_c, 0, 61, 0
2, 45480, Note_on_c, 0, 60, 88
2, 45539, Note_off_c, 0, 60, 0
2, 45540, Note_on_c, 0, 58, 88
2, 45599, Note_off_c, 0, 58, 0
2, 45600, Note_on_c, 0, 60, 88
2, 45659, Note_off_c, 0, 60, 0
2, 45660, Note_on_c, 0, 63, 88
2, 45719, Note_off_c, 0, 63, 0
2, 45720, Note_on_c, 0, 60, 88
2, 45779, Note_off_c, 0, 60, 0
2, 45780, Note_on_c, 0, 58, 88
2, 45839, Note_off_c, 0, 58, 0
2, 45840, Note_on_c, 0, 56, 88
2, 45899, Note_off_c, 0, 56, 0
2, 45900, Note_on_c, 0, 66, 88
2, 45959, Note_off_c, 0, 66, 0
2, 45960, Note_on_c, 0, 65, 88
2, 46019, Note_off_c, 0, 65, 0
2, 46020, Note_on_c, 0, 63, 88
2, 46079, Note_off_c, 0, 63, 0
2, 46080, Note_on_c, 0, 65, 88
2, 46229, Note_off_c, 0, 65, 0
2, 46230, Note_on_c, 0, 68, 88
2, 46259, Note_off_c, 0, 68, 0
2, 46260, Note_on_c, 0, 70, 88
2, 46289, Note_off_c, 0, 70, 0
2, 46290, Note_on_c, 0, 72, 88
2, 46319, Note_off_c, 0, 72, 0
2, 46320, Note_on_c, 0, 73, 88
2, 46469, Note_off_c, 0, 73, 0
2, 46470, Note_on_c, 0, 68, 88
2, 46499, Note_off_c, 0, 68, 0
2, 46500, Note_on_c, 0, 73, 88
2, 46529, Note_off_c, 0, 73, 0
2, 46530, Note_on_c, 0, 75, 88
2, 46559, Note_off_c, 0, 75, 0
2, 46560, Note_on_c, 0, 77, 88
2, 46859, Note_off_c, 0, 77, 0
2, 46860, Note_on_c, 0, 63, 88
2, 46919, Note_off_c, 0, 63, 0
2, 46920, Note_on_c, 0, 62, 88
2, 46979, Note_off_c, 0, 62, 0
2, 46980, Note_on_c, 0, 60, 88
2, 47039, Note_off_c, 0, 60, 0
2, 47040, Note_on_c, 0, 62, 88
2, 47099, Note_off_c, 0, 62, 0
2, 47100, Note_on_c, 0, 65, 88
2, 47159, Note_off_c, 0, 65, 0
2, 47160, Note_on_c, 0, 62, 88
2, 47219, Note_off_c, 0, 62, 0
2, 47220, Note_on_c, 0, 60, 88
2, 47279, Note_off_c, 0, 60, 0
2, 47280, Note_on_c, 0, 58, 88
2, 47339, Note_off_c, 0, 58, 0
2, 47340, Note_on_c, 0, 68, 88
2, 47399, Note_off_c, 0, 68, 0
2, 47400, Note_on_c, 0, 67, 88
2, 47459, Note_off_c, 0, 67, 0
2, 47460, Note_on_c, 0, 65, 88
2, 47519, Note_off_c, 0, 65, 0
2, 47520, Note_on_c, 0, 67, 88
2, 47669, Note_off_c, 0, 67, 0
2, 47670, Note_on_c, 0, 70, 88
2, 47699, Note_off_c, 0, 70, 0
2, 47700, Note_on_c, 0, 75, 88
2, 47729, Note_off_c, 0, 75, 0
2, 47730, Note_on_c, 0, 77, 88
2, 47759, Note_off_c, 0, 77, 0
2, 47760, Note_on_c, 0, 79, 88
2, 47909, Note_off_c, 0, 79, 0
2, 47910, Note_on_c, 0, 75, 88
2, 47939, Note_off_c, 0, 75, 0
2, 47940, Note_on_c, 0, 79, 88
2, 47969, Note_off_c, 0, 79, 0
2, 47970, Note_on_c, 0, 80, 88
2, 47999, Note_off_c, 0, 80, 0
2, 48000, Note_on_c, 0, 82, 88
2, 48149, Note_off_c, 0, 82, 0
2, 48150, Note_on_c, 0, 75, 88
2, 48179, Note_off_c, 0, 75, 0
2, 48180, Note_on_c, 0, 82, 88
2, 48209, Note_off_c, 0, 82, 0
2, 48210, Note_on_c, 0, 84, 88
2, 48239, Note_off_c, 0, 84, 0
2, 48240, Note_on_c, 0, 85, 88
2, 48299, Note_off_c, 0, 85, 0
2, 48300, Note_on_c, 0, 84, 88
2, 48359, Note_off_c, 0, 84, 0
2, 48360, Note_on_c, 0, 82, 88
2, 48419, Note_off_c, 0, 82, 0
2, 48420, Note_on_c, 0, 80, 88
2, 48479, Note_off_c, 0, 80, 0
2, 48480, Note_on_c, 0, 79, 88
2, 48539, Note_off_c, 0, 79, 0
2, 48540, Note_on_c, 0, 82, 88
2, 48599, Note_off_c, 0, 82, 0
2, 48600, Note_on_c, 0, 79, 88
2, 48659, Note_off_c, 0, 79, 0
2, 48660, Note_on_c, 0, 77, 88
2, 48719, Note_off_c, 0, 77, 0
2, 48720, Note_on_c, 0, 75, 88
2, 48779, Note_off_c, 0, 75, 0
2, 48780, Note_on_c, 0, 82, 88
2, 48839, Note_off_c, 0, 82, 0
2, 48840, Note_on_c, 0, 75, 88
2, 48899, Note_off_c, 0, 75, 0
2, 48900, Note_on_c, 0, 73, 88
2, 48959, Note_off_c, 0, 73, 0
2, 48960, Note_on_c, 0, 72, 88
2, 49109, Note_off_c, 0, 72, 0
2, 49110, Note_on_c, 0, 73, 88
2, 49139, Note_off_c, 0, 73, 0
2, 49140, Note_on_c, 0, 75, 88
2, 49169, Note_off_c, 0, 75, 0
2, 49170, Note_on_c, 0, 77, 88
2, 49199, Note_off_c, 0, 77, 0
2, 49200, Note_on_c, 0, 78, 88
2, 49379, Note_off_c, 0, 78, 0
2, 49380, Note_on_c, 0, 68, 88
2, 49439, Note_off_c, 0, 68, 0
2, 49440, Note_on_c, 0, 78, 88
2, 49739, Note_off_c, 0, 78, 0
2, 49740, Note_on_c, 0, 78, 88
2, 49799, Note_off_c, 0, 78, 0
2, 49800, Note_on_c, 0, 77, 88
2, 49859, Note_off_c, 0, 77, 0
2, 49860, Note_on_c, 0, 75, 88
2, 49919, Note_off_c, 0, 75, 0
2, 49920, Note_on_c, 0, 73, 88
2, 49979, Note_off_c, 0, 73, 0
2, 49980, Note_on_c, 0, 77, 88
2, 50039, Note_off_c, 0, 77, 0
2, 50040, Note_on_c, 0, 73, 88
2, 50099, Note_off_c, 0, 73, 0
2, 50100, Note_on_c, 0, 72, 88
2, 50159, Note_off_c, 0, 72, 0
2, 50160, Note_on_c, 0, 70, 88
2, 50219, Note_off_c, 0, 70, 0
2, 50220, Note_on_c, 0, 77, 88
2, 50279, Note_off_c, 0, 77, 0
2, 50280, Note_on_c, 0, 70, 88
2, 50339, Note_off_c, 0, 70, 0
2, 50340, Note_on_c, 0, 68, 88
2, 50399, Note_off_c, 0, 68, 0
2, 50400, Note_on_c, 0, 67, 88
2, 50459, Note_off_c, 0, 67, 0
2, 50460, Note_on_c, 0, 77, 88
2, 50519, Note_off_c, 0, 77, 0
2, 50520, Note_on_c, 0, 75, 88
2, 50579, Note_off_c, 0, 75, 0
2, 50580, Note_on_c, 0, 73, 88
2, 50639, Note_off_c, 0, 73, 0
2, 50640, Note_on_c, 0, 72, 88
2, 50699, Note_off_c, 0, 72, 0
2, 50700, Note_on_c, 0, 75, 88
2, 50759, Note_off_c, 0, 75, 0
2, 50760, Note_on_c, 0, 72, 88
2, 50819, Note_off_c, 0, 72, 0
2, 50820, Note_on_c, 0, 70, 88
2, 50879, Note_off_c, 0, 70, 0
2, 50880, Note_on_c, 0, 68, 88
2, 50939, Note_off_c, 0, 68, 0
2, 50940, Note_on_c, 0, 75, 88
2, 50999, Note_off_c, 0, 75, 0
2, 51000, Note_on_c, 0, 68, 88
2, 51059, Note_off_c, 0, 68, 0
2, 51060, Note_on_c, 0, 67, 88
2, 51119, Note_off_c, 0, 67, 0
2, 51120, Note_on_c, 0, 65, 88
2, 51179, Note_off_c, 0, 65, 0
2, 51180, Note_on_c, 0, 75, 88
2, 51239, Note_off_c, 0, 75, 0
2, 51240, Note_on_c, 0, 73, 88
2, 51299, Note_off_c, 0, 73, 0
2, 51300, Note_on_c, 0, 72, 88
2, 51359, Note_off_c, 0, 72, 0
2, 51360, Note_on_c, 0, 70, 88
2, 51419, Note_off_c, 0, 70, 0
2, 51420, Note_on_c, 0, 73, 88
2, 51479, Note_off_c, 0, 73, 0
2, 51480, Note_on_c, 0, 70, 88
2, 51539, Note_off_c, 0, 70, 0
2, 51540, Note_on_c, 0, 68, 88
2, 51599, Note_off_c, 0, 68, 0
2, 51600, Note_on_c, 0, 67, 88
2, 51659, Note_off_c, 0, 67, 0
2, 51660, Note_on_c, 0, 73, 88
2, 51719, Note_off_c, 0, 73, 0
2, 51720, Note_on_c, 0, 67, 88
2, 51779, Note_off_c, 0, 67, 0
2, 51780, Note_on_c, 0, 65, 88
2, 51839, Note_off_c, 0, 65, 0
2, 51840, Note_on_c, 0, 63, 88
2, 51899, Note_off_c, 0, 63, 0
2, 51900, Note_on_c, 0, 73, 88
2, 51959, Note_off_c, 0, 73, 0
2, 51960, Note_on_c, 0, 71, 88
2, 52019, Note_off_c, 0, 71, 0
2, 52020, Note_on_c, 0, 70, 88
2, 52079, Note_off_c, 0, 70, 0
2, 52080, Note_on_c, 0, 68, 88
2, 52139, Note_off_c, 0, 68, 0
2, 52140, Note_on_c, 0, 71, 88
2, 52199, Note_off_c, 0, 71, 0
2, 52200, Note_on_c, 0, 68, 88
2, 52259, Note_off_c, 0, 68, 0
2, 52260, Note_on_c, 0, 66, 88
2, 52319, Note_off_c, 0, 66, 0
2, 52320, Note_on_c, 0, 64, 88
2, 52379, Note_off_c, 0, 64, 0
2, 52380, Note_on_c, 0, 71, 88
2, 52439, Note_off_c, 0, 71, 0
2, 52440, Note_on_c, 0, 64, 88
2, 52499, Note_off_c, 0, 64, 0
2, 52500, Note_on_c, 0, 63, 88
2, 52559, Note_off_c, 0, 63, 0
2, 52560, Note_on_c, 0, 61, 88
2, 52619, Note_off_c, 0, 61, 0
2, 52620, Note_on_c, 0, 71, 88
2, 52679, Note_off_c, 0, 71, 0
2, 52680, Note_on_c, 0, 69, 88
2, 52739, Note_off_c, 0, 69, 0
2, 52740, Note_on_c, 0, 68, 88
2, 52799, Note_off_c, 0, 68, 0
2, 52800, Note_on_c, 0, 69, 88
2, 52829, Note_off_c, 0, 69, 0
2, 52830, Note_on_c, 0, 64, 88
2, 52859, Note_off_c, 0, 64, 0
2, 52860, Note_on_c, 0, 66, 88
2, 52889, Note_off_c, 0, 66, 0
2, 52890, Note_on_c, 0, 68, 88
2, 52919, Note_off_c, 0, 68, 0
2, 52920, Note_on_c, 0, 69, 88
2, 52949, Note_off_c, 0, 69, 0
2, 52950, Note_on_c, 0, 71, 88
2, 52979, Note_off_c, 0, 71, 0
2, 52980, Note_on_c, 0, 73, 88
2, 53009, Note_off_c, 0, 73, 0
2, 53010, Note_on_c, 0, 74, 88
2, 53039, Note_off_c, 0, 74, 0
2, 53040, Note_on_c, 0, 76, 88
2, 53099, Note_off_c, 0, 76, 0
2, 53100, Note_on_c, 0, 73, 88
2, 53159, Note_off_c, 0, 73, 0
2, 53160, Note_on_c, 0, 69, 88
2, 53219, Note_off_c, 0, 69, 0
2, 53220, Note_on_c, 0, 68, 88
2, 53279, Note_off_c, 0, 68, 0
2, 53280, Note_on_c, 0, 68, 88
2, 53399, Note_off_c, 0, 68, 0
2, 53400, Note_on_c, 0, 67, 88
2, 53699, Note_off_c, 0, 67, 0
2, 53700, Note_on_c, 0, 77, 88
2, 53759, Note_off_c, 0, 77, 0
2, 53760, Note_on_c, 0, 77, 88
2, 53879, Note_off_c, 0, 77, 0
2, 53880, Note_on_c, 0, 75, 88
2, 54179, Note_off_c, 0, 75, 0
2, 54180, Note_on_c, 0, 65, 88
2, 54239, Note_off_c, 0, 65, 0
2, 54240, Note_on_c, 0, 68, 88
2, 54479, Note_off_c, 0, 68, 0
2, 54480, Note_on_c, 0, 68, 88
2, 54498, Note_off_c, 0, 68, 0
2, 54499, Note_on_c, 0, 67, 88
2, 54520, Note_off_c, 0, 67, 0
2, 54521, Note_on_c, 0, 68, 88
2, 54543, Note_off_c, 0, 68, 0
2, 54544, Note_on_c, 0, 67, 88
2, 54562, Note_off_c, 0, 67, 0
2, 54563, Note_on_c, 0, 68, 88
2, 54580, Note_off_c, 0, 68, 0
2, 54581, Note_on_c, 0, 67, 88
2, 54599, Note_off_c, 0, 67, 0
2, 54600, Note_on_c, 0, 68, 88
2, 54659, Note_off_c, 0, 68, 0
2, 54660, Note_on_c, 0, 68, 88
2, 54719, Note_off_c, 0, 68, 0
2, 54720, Note_on_c, 0, 68, 88
2, 54760, Note_off_c, 0, 68, 0
2, 54760, End_track
0, 0, End_of_file