0, 0, Header, 1, 2, 240
1, 0, Start_track
1, 0, Time_signature, 4, 2, 24, 8
1, 0, Tempo, 833333
1, 0, SMPTE_offset, 64, 0, 0, 0, 100
1, 0, End_track
2, 0, Start_track
2, 0, Title_t, "Track 1"
2, 0, Program_c, 0, 6
2, 0, Note_on_c, 0, 68, 88
2, 59, Note_off_c, 0, 68, 0
2, 60, Note_on_c, 0, 70, 88
2, 119, Note_off_c, 0, 70, 0
2, 120, Note_on_c, 0, 71, 88
2, 179, Note_off_c, 0, 71, 0
2, 180, Note_on_c, 0, 73, 88
2, 239, Note_off_c, 0, 73, 0
2, 240, Note_on_c, 0, 75, 88
2, 299, Note_off_c, 0, 75, 0
2, 300, Note_on_c, 0, 71, 88
2, 359, Note_off_c, 0, 71, 0
2, 360, Note_on_c, 0, 70, 88
2, 419, Note_off_c, 0, 70, 0
2, 420, Note_on_c, 0, 68, 88
2, 479, Note_off_c, 0, 68, 0
2, 480, Note_on_c, 0, 67, 88
2, 539, Note_off_c, 0, 67, 0
2, 540, Note_on_c, 0, 68, 88
2, 599, Note_off_c, 0, 68, 0
2, 600, Note_on_c, 0, 70, 88
2, 659, Note_off_c, 0, 70, 0
2, 660, Note_on_c, 0, 64, 88
2, 719, Note_off_c, 0, 64, 0
2, 720, Note_on_c, 0, 63, 88
2, 1079, Note_off_c, 0, 63, 0
2, 1080, Note_on_c, 0, 71, 88
2, 1199, Note_off_c, 0, 71, 0
2, 1200, Note_on_c, 0, 71, 88
2, 1319, Note_off_c, 0, 71, 0
2, 1320, Note_on_c, 0, 73, 88
2, 1559, Note_off_c, 0, 73, 0
2, 1560, Note_on_c, 0, 71, 88
2, 1679, Note_off_c, 0, 71, 0
2, 1680, Note_on_c, 0, 71, 88
2, 1799, Note_off_c, 0, 71, 0
2, 1800, Note_on_c, 0, 70, 88
2, 1919, Note_off_c, 0, 70, 0
2, 1920, Note_on_c, 0, 68, 88
2, 1979, Note_off_c, 0, 68, 0
2, 1980, Note_on_c, 0, 70, 88
2, 2039, Note_off_c, 0, 70, 0
2, 2040, Note_on_c, 0, 71, 88
2, 2099, Note_off_c, 0, 71, 0
2, 2100, Note_on_c, 0, 73, 88
2, 2159, Note_off_c, 0, 73, 0
2, 2160, Note_on_c, 0, 75, 88
2, 2219, Note_off_c, 0, 75, 0
2, 2220, Note_on_c, 0, 71, 88
2, 2279, Note_off_c, 0, 71, 0
2, 2280, Note_on_c, 0, 70, 88
2, 2339, Note_off_c, 0, 70, 0
2, 2340, Note_on_c, 0, 68, 88
2, 2399, Note_off_c, 0, 68, 0
2, 2400, Note_on_c, 0, 67, 88
2, 2459, Note_off_c, 0, 67, 0
2, 2460, Note_on_c, 0, 68, 88
2, 2519, Note_off_c, 0, 68, 0
2, 2520, Note_on_c, 0, 70, 88
2, 2579, Note_off_c, 0, 70, 0
2, 2580, Note_on_c, 0, 64, 88
2, 2639, Note_off_c, 0, 64, 0
2, 2640, Note_on_c, 0, 63, 88
2, 2999, Note_off_c, 0, 63, 0
2, 3000, Note_on_c, 0, 80, 88
2, 3119, Note_off_c, 0, 80, 0
2, 3120, Note_on_c, 0, 80, 88
2, 3239, Note_off_c, 0, 80, 0
2, 3240, Note_on_c, 0, 82, 88
2, 3479, Note_off_c, 0, 82, 0
2, 3480, Note_on_c, 0, 80, 88
2, 3599, Note_off_c, 0, 80, 0
2, 3600, Note_on_c, 0, 80, 88
2, 3719, Note_off_c, 0, 80, 0
2, 3720, Note_on_c, 0, 79, 88
2, 3959, Note_off_c, 0, 79, 0
2, 3960, Note_on_c, 0, 71, 88
2, 4019, Note_off_c, 0, 71, 0
2, 4020, Note_on_c, 0, 70, 88
2, 4079, Note_off_c, 0, 70, 0
2, 4080, Note_on_c, 0, 71, 88
2, 4199, Note_off_c, 0, 71, 0
2, 4200, Note_on_c, 0, 80, 88
2, 4439, Note_off_c, 0, 80, 0
2, 4440, Note_on_c, 0, 71, 88
2, 4679, Note_off_c, 0, 71, 0
2, 4680, Note_on_c, 0, 70, 88
2, 4739, Note_off_c, 0, 70, 0
2, 4740, Note_on_c, 0, 68, 88
2, 4919, Note_off_c, 0, 68, 0
2, 4920, Note_on_c, 0, 70, 88
2, 4979, Note_off_c, 0, 70, 0
2, 4980, Note_on_c, 0, 68, 88
2, 5039, Note_off_c, 0, 68, 0
2, 5040, Note_on_c, 0, 70, 88
2, 5159, Note_off_c, 0, 70, 0
2, 5160, Note_on_c, 0, 78, 88
2, 5399, Note_off_c, 0, 78, 0
2, 5400, Note_on_c, 0, 70, 88
2, 5639, Note_off_c, 0, 70, 0
2, 5640, Note_on_c, 0, 68, 88
2, 5699, Note_off_c, 0, 68, 0
2, 5700, Note_on_c, 0, 66, 88
2, 5879, Note_off_c, 0, 66, 0
2, 5880, Note_on_c, 0, 68, 88
2, 5939, Note_off_c, 0, 68, 0
2, 5940, Note_on_c, 0, 66, 88
2, 5999, Note_off_c, 0, 66, 0
2, 6000, Note_on_c, 0, 68, 88
2, 6119, Note_off_c, 0, 68, 0
2, 6120, Note_on_c, 0, 77, 88
2, 6359, Note_off_c, 0, 77, 0
2, 6360, Note_on_c, 0, 68, 88
2, 6599, Note_off_c, 0, 68, 0
2, 6600, Note_on_c, 0, 66, 88
2, 6659, Note_off_c, 0, 66, 0
2, 6660, Note_on_c, 0, 65, 88
2, 6719, Note_off_c, 0, 65, 0
2, 6720, Note_on_c, 0, 66, 88
2, 7019, Note_off_c, 0, 66, 0
2, 7020, Note_on_c, 0, 70, 88
2, 7079, Note_off_c, 0, 70, 0
2, 7080, Note_on_c, 0, 68, 88
2, 7139, Note_off_c, 0, 68, 0
2, 7140, Note_on_c, 0, 66, 88
2, 7199, Note_off_c, 0, 66, 0
2, 7200, Note_on_c, 0, 65, 88
2, 7259, Note_off_c, 0, 65, 0
2, 7260, Note_on_c, 0, 63, 88
2, 7319, Note_off_c, 0, 63, 0
2, 7320, Note_on_c, 0, 65, 88
2, 7379, Note_off_c, 0, 65, 0
2, 7380, Note_on_c, 0, 68, 88
2, 7439, Note_off_c, 0, 68, 0
2, 7440, Note_on_c, 0, 67, 88
2, 7499, Note_off_c, 0, 67, 0
2, 7500, Note_on_c, 0, 65, 88
2, 7559, Note_off_c, 0, 65, 0
2, 7560, Note_on_c, 0, 67, 88
2, 7619, Note_off_c, 0, 67, 0
2, 7620, Note_on_c, 0, 70, 88
2, 7679, Note_off_c, 0, 70, 0
2, 7680, Note_on_c, 0, 70, 88
2, 7799, Note_off_c, 0, 70, 0
2, 7800, Note_on_c, 0, 68, 88
2, 7979, Note_off_c, 0, 68, 0
2, 7980, Note_on_c, 0, 66, 88
2, 8039, Note_off_c, 0, 66, 0
2, 8040, Note_on_c, 0, 64, 88
2, 8099, Note_off_c, 0, 64, 0
2, 8100, Note_on_c, 0, 63, 88
2, 8159, Note_off_c, 0, 63, 0
2, 8160, Note_on_c, 0, 61, 88
2, 8219, Note_off_c, 0, 61, 0
2, 8220, Note_on_c, 0, 60, 88
2, 8279, Note_off_c, 0, 60, 0
2, 8280, Note_on_c, 0, 61, 88
2, 8339, Note_off_c, 0, 61, 0
2, 8340, Note_on_c, 0, 64, 88
2, 8399, Note_off_c, 0, 64, 0
2, 8400, Note_on_c, 0, 63, 88
2, 8459, Note_off_c, 0, 63, 0
2, 8460, Note_on_c, 0, 61, 88
2, 8519, Note_off_c, 0, 61, 0
2, 8520, Note_on_c, 0, 63, 88
2, 8579, Note_off_c, 0, 63, 0
2, 8580, Note_on_c, 0, 66, 88
2, 8639, Note_off_c, 0, 66, 0
2, 8640, Note_on_c, 0, 66, 88
2, 8759, Note_off_c, 0, 66, 0
2, 8760, Note_on_c, 0, 64, 88
2, 8939, Note_off_c, 0, 64, 0
2, 8940, Note_on_c, 0, 63, 88
2, 8999, Note_off_c, 0, 63, 0
2, 9000, Note_on_c, 0, 61, 88
2, 9059, Note_off_c, 0, 61, 0
2, 9060, Note_on_c, 0, 59, 88
2, 9119, Note_off_c, 0, 59, 0
2, 9120, Note_on_c, 0, 58, 88
2, 9179, Note_off_c, 0, 58, 0
2, 9180, Note_on_c, 0, 56, 88
2, 9239, Note_off_c, 0, 56, 0
2, 9240, Note_on_c, 0, 58, 88
2, 9299, Note_off_c, 0, 58, 0
2, 9300, Note_on_c, 0, 61, 88
2, 9359, Note_off_c, 0, 61, 0
2, 9360, Note_on_c, 0, 60, 88
2, 9419, Note_off_c, 0, 60, 0
2, 9420, Note_on_c, 0, 58, 88
2, 9479, Note_off_c, 0, 58, 0
2, 9480, Note_on_c, 0, 60, 88
2, 9539, Note_off_c, 0, 60, 0
2, 9540, Note_on_c, 0, 63, 88
2, 9599, Note_off_c, 0, 63, 0
2, 9600, Note_on_c, 0, 56, 88
2, 9659, Note_off_c, 0, 56, 0
2, 9660, Note_on_c, 0, 55, 88
2, 9719, Note_off_c, 0, 55, 0
2, 9720, Note_on_c, 0, 56, 88
2, 9779, Note_off_c, 0, 56, 0
2, 9780, Note_on_c, 0, 59, 88
2, 9839, Note_off_c, 0, 59, 0
2, 9840, Note_on_c, 0, 58, 88
2, 9899, Note_off_c, 0, 58, 0
2, 9900, Note_on_c, 0, 56, 88
2, 9959, Note_off_c, 0, 56, 0
2, 9960, Note_on_c, 0, 58, 88
2, 10019, Note_off_c, 0, 58, 0
2, 10020, Note_on_c, 0, 61, 88
2, 10079, Note_off_c, 0, 61, 0
2, 10080, Note_on_c, 0, 55, 88
2, 10139, Note_off_c, 0, 55, 0
2, 10140, Note_on_c, 0, 64, 88
2, 10199, Note_off_c, 0, 64, 0
2, 10200, Note_on_c, 0, 63, 88
2, 10259, Note_off_c, 0, 63, 0
2, 10260, Note_on_c, 0, 61, 88
2, 10319, Note_off_c, 0, 61, 0
2, 10320, Note_on_c, 0, 70, 88
2, 10379, Note_off_c, 0, 70, 0
2, 10380, Note_on_c, 0, 61, 88
2, 10439, Note_off_c, 0, 61, 0
2, 10440, Note_on_c, 0, 70, 88
2, 10499, Note_off_c, 0, 70, 0
2, 10500, Note_on_c, 0, 61, 88
2, 10559, Note_off_c, 0, 61, 0
2, 10560, Note_on_c, 0, 60, 88
2, 10619, Note_off_c, 0, 60, 0
2, 10620, Note_on_c, 0, 69, 88
2, 10679, Note_off_c, 0, 69, 0
2, 10680, Note_on_c, 0, 68, 88
2, 10739, Note_off_c, 0, 68, 0
2, 10740, Note_on_c, 0, 66, 88
2, 10799, Note_off_c, 0, 66, 0
2, 10800, Note_on_c, 0, 75, 88
2, 10859, Note_off_c, 0, 75, 0
2, 10860, Note_on_c, 0, 66, 88
2, 10919, Note_off_c, 0, 66, 0
2, 10920, Note_on_c, 0, 75, 88
2, 10979, Note_off_c, 0, 75, 0
2, 10980, Note_on_c, 0, 66, 88
2, 11039, Note_off_c, 0, 66, 0
2, 11040, Note_on_c, 0, 65, 88
2, 11099, Note_off_c, 0, 65, 0
2, 11100, Note_on_c, 0, 62, 88
2, 11159, Note_off_c, 0, 62, 0
2, 11160, Note_on_c, 0, 61, 88
2, 11219, Note_off_c, 0, 61, 0
2, 11220, Note_on_c, 0, 59, 88
2, 11279, Note_off_c, 0, 59, 0
2, 11280, Note_on_c, 0, 68, 88
2, 11339, Note_off_c, 0, 68, 0
2, 11340, Note_on_c, 0, 59, 88
2, 11399, Note_off_c, 0, 59, 0
2, 11400, Note_on_c, 0, 68, 88
2, 11459, Note_off_c, 0, 68, 0
2, 11460, Note_on_c, 0, 59, 88
2, 11519, Note_off_c, 0, 59, 0
2, 11520, Note_on_c, 0, 58, 88
2, 11579, Note_off_c, 0, 58, 0
2, 11580, Note_on_c, 0, 67, 88
2, 11639, Note_off_c, 0, 67, 0
2, 11640, Note_on_c, 0, 66, 88
2, 11699, Note_off_c, 0, 66, 0
2, 11700, Note_on_c, 0, 64, 88
2, 11759, Note_off_c, 0, 64, 0
2, 11760, Note_on_c, 0, 73, 88
2, 11819, Note_off_c, 0, 73, 0
2, 11820, Note_on_c, 0, 64, 88
2, 11879, Note_off_c, 0, 64, 0
2, 11880, Note_on_c, 0, 73, 88
2, 11939, Note_off_c, 0, 73, 0
2, 11940, Note_on_c, 0, 64, 88
2, 11999, Note_off_c, 0, 64, 0
2, 12000, Note_on_c, 0, 63, 88
2, 12059, Note_off_c, 0, 63, 0
2, 12060, Note_on_c, 0, 66, 88
2, 12119, Note_off_c, 0, 66, 0
2, 12120, Note_on_c, 0, 68, 88
2, 12179, Note_off_c, 0, 68, 0
2, 12180, Note_on_c, 0, 70, 88
2, 12239, Note_off_c, 0, 70, 0
2, 12240, Note_on_c, 0, 71, 88
2, 12299, Note_off_c, 0, 71, 0
2, 12300, Note_on_c, 0, 66, 88
2, 12359, Note_off_c, 0, 66, 0
2, 12360, Note_on_c, 0, 65, 88
2, 12419, Note_off_c, 0, 65, 0
2, 12420, Note_on_c, 0, 63, 88
2, 12479, Note_off_c, 0, 63, 0
2, 12480, Note_on_c, 0, 62, 88
2, 12539, Note_off_c, 0, 62, 0
2, 12540, Note_on_c, 0, 71, 88
2, 12599, Note_off_c, 0, 71, 0
2, 12600, Note_on_c, 0, 70, 88
2, 12659, Note_off_c, 0, 70, 0
2, 12660, Note_on_c, 0, 68, 88
2, 12719, Note_off_c, 0, 68, 0
2, 12720, Note_on_c, 0, 77, 88
2, 12779, Note_off_c, 0, 77, 0
2, 12780, Note_on_c, 0, 68, 88
2, 12839, Note_off_c, 0, 68, 0
2, 12840, Note_on_c, 0, 77, 88
2, 12899, Note_off_c, 0, 77, 0
2, 12900, Note_on_c, 0, 68, 88
2, 12959, Note_off_c, 0, 68, 0
2, 12960, Note_on_c, 0, 66, 88
2, 13019, Note_off_c, 0, 66, 0
2, 13020, Note_on_c, 0, 70, 88
2, 13079, Note_off_c, 0, 70, 0
2, 13080, Note_on_c, 0, 75, 88
2, 13139, Note_off_c, 0, 75, 0
2, 13140, Note_on_c, 0, 77, 88
2, 13199, Note_off_c, 0, 77, 0
2, 13200, Note_on_c, 0, 78, 88
2, 13259, Note_off_c, 0, 78, 0
2, 13260, Note_on_c, 0, 75, 88
2, 13319, Note_off_c, 0, 75, 0
2, 13320, Note_on_c, 0, 72, 88
2, 13379, Note_off_c, 0, 72, 0
2, 13380, Note_on_c, 0, 75, 88
2, 13439, Note_off_c, 0, 75, 0
2, 13440, Note_on_c, 0, 69, 88
2, 13499, Note_off_c, 0, 69, 0
2, 13500, Note_on_c, 0, 78, 88
2, 13559, Note_off_c, 0, 78, 0
2, 13560, Note_on_c, 0, 77, 88
2, 13619, Note_off_c, 0, 77, 0
2, 13620, Note_on_c, 0, 75, 88
2, 13679, Note_off_c, 0, 75, 0
2, 13680, Note_on_c, 0, 84, 88
2, 13739, Note_off_c, 0, 84, 0
2, 13740, Note_on_c, 0, 75, 88
2, 13799, Note_off_c, 0, 75, 0
2, 13800, Note_on_c, 0, 84, 88
2, 13859, Note_off_c, 0, 84, 0
2, 13860, Note_on_c, 0, 75, 88
2, 13919, Note_off_c, 0, 75, 0
2, 13920, Note_on_c, 0, 74, 88
2, 13979, Note_off_c, 0, 74, 0
2, 13980, Note_on_c, 0, 75, 88
2, 14039, Note_off_c, 0, 75, 0
2, 14040, Note_on_c, 0, 77, 88
2, 14099, Note_off_c, 0, 77, 0
2, 14100, Note_on_c, 0, 82, 88
2, 14159, Note_off_c, 0, 82, 0
2, 14160, Note_on_c, 0, 70, 88
2, 14459, Note_off_c, 0, 70, 0
2, 14460, Note_on_c, 0, 74, 88
2, 14519, Note_off_c, 0, 74, 0
2, 14520, Note_on_c, 0, 75, 88
2, 14579, Note_off_c, 0, 75, 0
2, 14580, Note_on_c, 0, 77, 88
2, 14639, Note_off_c, 0, 77, 0
2, 14640, Note_on_c, 0, 78, 88
2, 14669, Note_off_c, 0, 78, 0
2, 14670, Note_on_c, 0, 77, 88
2, 14699, Note_off_c, 0, 77, 0
2, 14700, Note_on_c, 0, 75, 88
2, 14759, Note_off_c, 0, 75, 0
2, 14760, Note_on_c, 0, 83, 88
2, 14879, Note_off_c, 0, 83, 0
2, 14880, Note_on_c, 0, 83, 88
2, 14999, Note_off_c, 0, 83, 0
2, 15000, Note_on_c, 0, 82, 88
2, 15479, Note_off_c, 0, 82, 0
2, 15480, Note_on_c, 0, 78, 88
2, 15599, Note_off_c, 0, 78, 0
2, 15600, Note_on_c, 0, 78, 88
2, 15719, Note_off_c, 0, 78, 0
2, 15720, Note_on_c, 0, 80, 88
2, 15959, Note_off_c, 0, 80, 0
2, 15960, Note_on_c, 0, 78, 88
2, 16079, Note_off_c, 0, 78, 0
2, 16080, Note_on_c, 0, 78, 88
2, 16199, Note_off_c, 0, 78, 0
2, 16200, Note_on_c, 0, 77, 88
2, 16439, Note_off_c, 0, 77, 0
2, 16440, Note_on_c, 0, 75, 88
2, 16559, Note_off_c, 0, 75, 0
2, 16560, Note_on_c, 0, 76, 88
2, 16574, Note_off_c, 0, 76, 0
2, 16575, Note_on_c, 0, 75, 88
2, 16589, Note_off_c, 0, 75, 0
2, 16590, Note_on_c, 0, 76, 88
2, 16604, Note_off_c, 0, 76, 0
2, 16605, Note_on_c, 0, 75, 88
2, 16619, Note_off_c, 0, 75, 0
2, 16620, Note_on_c, 0, 74, 88
2, 16679, Note_off_c, 0, 74, 0
2, 16680, Note_on_c, 0, 75, 88
2, 16919, Note_off_c, 0, 75, 0
2, 16920, Note_on_c, 0, 75, 88
2, 17039, Note_off_c, 0, 75, 0
2, 17040, Note_on_c, 0, 73, 88
2, 17099, Note_off_c, 0, 73, 0
2, 17100, Note_on_c, 0, 71, 88
2, 17159, Note_off_c, 0, 71, 0
2, 17160, Note_on_c, 0, 73, 88
2, 17219, Note_off_c, 0, 73, 0
2, 17220, Note_on_c, 0, 82, 88
2, 17279, Note_off_c, 0, 82, 0
2, 17280, Note_on_c, 0, 71, 88
2, 17519, Note_off_c, 0, 71, 0
2, 17520, Note_on_c, 0, 73, 88
2, 17759, Note_off_c, 0, 73, 0
2, 17760, Note_on_c, 0, 71, 88
2, 17999, Note_off_c, 0, 71, 0
2, 18000, Note_on_c, 0, 70, 88
2, 18359, Note_off_c, 0, 70, 0
2, 18360, Note_on_c, 0, 77, 88
2, 18419, Note_off_c, 0, 77, 0
2, 18420, Note_on_c, 0, 75, 88
2, 18479, Note_off_c, 0, 75, 0
2, 18480, Note_on_c, 0, 77, 88
2, 18599, Note_off_c, 0, 77, 0
2, 18600, Note_on_c, 0, 80, 88
2, 18719, Note_off_c, 0, 80, 0
2, 18720, Note_on_c, 0, 74, 88
2, 18839, Note_off_c, 0, 74, 0
2, 18840, Note_on_c, 0, 77, 88
2, 18959, Note_off_c, 0, 77, 0
2, 18960, Note_on_c, 0, 70, 88
2, 19319, Note_off_c, 0, 70, 0
2, 19320, Note_on_c, 0, 70, 88
2, 19379, Note_off_c, 0, 70, 0
2, 19380, Note_on_c, 0, 68, 88
2, 19439, Note_off_c, 0, 68, 0
2, 19440, Note_on_c, 0, 70, 88
2, 19559, Note_off_c, 0, 70, 0
2, 19560, Note_on_c, 0, 78, 88
2, 19799, Note_off_c, 0, 78, 0
2, 19800, Note_on_c, 0, 75, 88
2, 20039, Note_off_c, 0, 75, 0
2, 20040, Note_on_c, 0, 72, 88
2, 20279, Note_off_c, 0, 72, 0
2, 20280, Note_on_c, 0, 68, 88
2, 20339, Note_off_c, 0, 68, 0
2, 20340, Note_on_c, 0, 66, 88
2, 20399, Note_off_c, 0, 66, 0
2, 20400, Note_on_c, 0, 68, 88
2, 20519, Note_off_c, 0, 68, 0
2, 20520, Note_on_c, 0, 77, 88
2, 20759, Note_off_c, 0, 77, 0
2, 20760, Note_on_c, 0, 73, 88
2, 20999, Note_off_c, 0, 73, 0
2, 21000, Note_on_c, 0, 70, 88
2, 21239, Note_off_c, 0, 70, 0
2, 21240, Note_on_c, 0, 69, 88
2, 21359, Note_off_c, 0, 69, 0
2, 21360, Note_on_c, 0, 70, 88
2, 21479, Note_off_c, 0, 70, 0
2, 21480, Note_on_c, 0, 75, 88
2, 21719, Note_off_c, 0, 75, 0
2, 21720, Note_on_c, 0, 75, 88
2, 21839, Note_off_c, 0, 75, 0
2, 21840, Note_on_c, 0, 74, 88
2, 21959, Note_off_c, 0, 74, 0
2, 21960, Note_on_c, 0, 83, 88
2, 22079, Note_off_c, 0, 83, 0
2, 22080, Note_on_c, 0, 82, 88
2, 22379, Note_off_c, 0, 82, 0
2, 22380, Note_on_c, 0, 82, 88
2, 22439, Note_off_c, 0, 82, 0
2, 22440, Note_on_c, 0, 77, 88
2, 22499, Note_off_c, 0, 77, 0
2, 22500, Note_on_c, 0, 80, 88
2, 22559, Note_off_c, 0, 80, 0
2, 22560, Note_on_c, 0, 80, 88
2, 22679, Note_off_c, 0, 80, 0
2, 22680, Note_on_c, 0, 79, 88
2, 23039, Note_off_c, 0, 79, 0
2, 23040, Note_on_c, 0, 68, 88
2, 23099, Note_off_c, 0, 68, 0
2, 23100, Note_on_c, 0, 70, 88
2, 23159, Note_off_c, 0, 70, 0
2, 23160, Note_on_c, 0, 71, 88
2, 23219, Note_off_c, 0, 71, 0
2, 23220, Note_on_c, 0, 73, 88
2, 23279, Note_off_c, 0, 73, 0
2, 23280, Note_on_c, 0, 75, 88
2, 23339, Note_off_c, 0, 75, 0
2, 23340, Note_on_c, 0, 71, 88
2, 23399, Note_off_c, 0, 71, 0
2, 23400, Note_on_c, 0, 70, 88
2, 23459, Note_off_c, 0, 70, 0
2, 23460, Note_on_c, 0, 68, 88
2, 23519, Note_off_c, 0, 68, 0
2, 23520, Note_on_c, 0, 67, 88
2, 23579, Note_off_c, 0, 67, 0
2, 23580, Note_on_c, 0, 68, 88
2, 23639, Note_off_c, 0, 68, 0
2, 23640, Note_on_c, 0, 70, 88
2, 23699, Note_off_c, 0, 70, 0
2, 23700, Note_on_c, 0, 64, 88
2, 23759, Note_off_c, 0, 64, 0
2, 23760, Note_on_c, 0, 63, 88
2, 24119, Note_off_c, 0, 63, 0
2, 24120, Note_on_c, 0, 71, 88
2, 24239, Note_off_c, 0, 71, 0
2, 24240, Note_on_c, 0, 71, 88
2, 24359, Note_off_c, 0, 71, 0
2, 24360, Note_on_c, 0, 73, 88
2, 24599, Note_off_c, 0, 73, 0
2, 24600, Note_on_c, 0, 71, 88
2, 24719, Note_off_c, 0, 71, 0
2, 24720, Note_on_c, 0, 71, 88
2, 24839, Note_off_c, 0, 71, 0
2, 24840, Note_on_c, 0, 70, 88
2, 24959, Note_off_c, 0, 70, 0
2, 24960, Note_on_c, 0, 68, 88
2, 25019, Note_off_c, 0, 68, 0
2, 25020, Note_on_c, 0, 70, 88
2, 25079, Note_off_c, 0, 70, 0
2, 25080, Note_on_c, 0, 71, 88
2, 25139, Note_off_c, 0, 71, 0
2, 25140, Note_on_c, 0, 73, 88
2, 25199, Note_off_c, 0, 73, 0
2, 25200, Note_on_c, 0, 75, 88
2, 25259, Note_off_c, 0, 75, 0
2, 25260, Note_on_c, 0, 71, 88
2, 25319, Note_off_c, 0, 71, 0
2, 25320, Note_on_c, 0, 70, 88
2, 25379, Note_off_c, 0, 70, 0
2, 25380, Note_on_c, 0, 68, 88
2, 25439, Note_off_c, 0, 68, 0
2, 25440, Note_on_c, 0, 67, 88
2, 25499, Note_off_c, 0, 67, 0
2, 25500, Note_on_c, 0, 68, 88
2, 25559, Note_off_c, 0, 68, 0
2, 25560, Note_on_c, 0, 70, 88
2, 25619, Note_off_c, 0, 70, 0
2, 25620, Note_on_c, 0, 64, 88
2, 25679, Note_off_c, 0, 64, 0
2, 25680, Note_on_c, 0, 63, 88
2, 26039, Note_off_c, 0, 63, 0
2, 26040, Note_on_c, 0, 80, 88
2, 26159, Note_off_c, 0, 80, 0
2, 26160, Note_on_c, 0, 80, 88
2, 26279, Note_off_c, 0, 80, 0
2, 26280, Note_on_c, 0, 82, 88
2, 26519, Note_off_c, 0, 82, 0
2, 26520, Note_on_c, 0, 80, 88
2, 26639, Note_off_c, 0, 80, 0
2, 26640, Note_on_c, 0, 80, 88
2, 26759, Note_off_c, 0, 80, 0
2, 26760, Note_on_c, 0, 79, 88
2, 26999, Note_off_c, 0, 79, 0
2, 27000, Note_on_c, 0, 71, 88
2, 27059, Note_off_c, 0, 71, 0
2, 27060, Note_on_c, 0, 70, 88
2, 27119, Note_off_c, 0, 70, 0
2, 27120, Note_on_c, 0, 71, 88
2, 27239, Note_off_c, 0, 71, 0
2, 27240, Note_on_c, 0, 80, 88
2, 27479, Note_off_c, 0, 80, 0
2, 27480, Note_on_c, 0, 71, 88
2, 27719, Note_off_c, 0, 71, 0
2, 27720, Note_on_c, 0, 70, 88
2, 27779, Note_off_c, 0, 70, 0
2, 27780, Note_on_c, 0, 68, 88
2, 27959, Note_off_c, 0, 68, 0
2, 27960, Note_on_c, 0, 70, 88
2, 28019, Note_off_c, 0, 70, 0
2, 28020, Note_on_c, 0, 68, 88
2, 28079, Note_off_c, 0, 68, 0
2, 28080, Note_on_c, 0, 70, 88
2, 28199, Note_off_c, 0, 70, 0
2, 28200, Note_on_c, 0, 78, 88
2, 28439, Note_off_c, 0, 78, 0
2, 28440, Note_on_c, 0, 70, 88
2, 28679, Note_off_c, 0, 70, 0
2, 28680, Note_on_c, 0, 68, 88
2, 28739, Note_off_c, 0, 68, 0
2, 28740, Note_on_c, 0, 66, 88
2, 28919, Note_off_c, 0, 66, 0
2, 28920, Note_on_c, 0, 68, 88
2, 28979, Note_off_c, 0, 68, 0
2, 28980, Note_on_c, 0, 66, 88
2, 29039, Note_off_c, 0, 66, 0
2, 29040, Note_on_c, 0, 68, 88
2, 29159, Note_off_c, 0, 68, 0
2, 29160, Note_on_c, 0, 77, 88
2, 29399, Note_off_c, 0, 77, 0
2, 29400, Note_on_c, 0, 68, 88
2, 29639, Note_off_c, 0, 68, 0
2, 29640, Note_on_c, 0, 66, 88
2, 29699, Note_off_c, 0, 66, 0
2, 29700, Note_on_c, 0, 65, 88
2, 29759, Note_off_c, 0, 65, 0
2, 29760, Note_on_c, 0, 66, 88
2, 30059, Note_off_c, 0, 66, 0
2, 30060, Note_on_c, 0, 70, 88
2, 30119, Note_off_c, 0, 70, 0
2, 30120, Note_on_c, 0, 68, 88
2, 30179, Note_off_c, 0, 68, 0
2, 30180, Note_on_c, 0, 66, 88
2, 30239, Note_off_c, 0, 66, 0
2, 30240, Note_on_c, 0, 65, 88
2, 30299, Note_off_c, 0, 65, 0
2, 30300, Note_on_c, 0, 63, 88
2, 30359, Note_off_c, 0, 63, 0
2, 30360, Note_on_c, 0, 65, 88
2, 30419, Note_off_c, 0, 65, 0
2, 30420, Note_on_c, 0, 68, 88
2, 30479, Note_off_c, 0, 68, 0
2, 30480, Note_on_c, 0, 67, 88
2, 30539, Note_off_c, 0, 67, 0
2, 30540, Note_on_c, 0, 65, 88
2, 30599, Note_off_c, 0, 65, 0
2, 30600, Note_on_c, 0, 67, 88
2, 30659, Note_off_c, 0, 67, 0
2, 30660, Note_on_c, 0, 70, 88
2, 30719, Note_off_c, 0, 70, 0
2, 30720, Note_on_c, 0, 70, 88
2, 30839, Note_off_c, 0, 70, 0
2, 30840, Note_on_c, 0, 68, 88
2, 31019, Note_off_c, 0, 68, 0
2, 31020, Note_on_c, 0, 66, 88
2, 31079, Note_off_c, 0, 66, 0
2, 31080, Note_on_c, 0, 64, 88
2, 31139, Note_off_c, 0, 64, 0
2, 31140, Note_on_c, 0, 63, 88
2, 31199, Note_off_c, 0, 63, 0
2, 31200, Note_on_c, 0, 61, 88
2, 31259, Note_off_c, 0, 61, 0
2, 31260, Note_on_c, 0, 60, 88
2, 31319, Note_off_c, 0, 60, 0
2, 31320, Note_on_c, 0, 61, 88
2, 31379, Note_off_c, 0, 61, 0
2, 31380, Note_on_c, 0, 64, 88
2, 31439, Note_off_c, 0, 64, 0
2, 31440, Note_on_c, 0, 63, 88
2, 31499, Note_off_c, 0, 63, 0
2, 31500, Note_on_c, 0, 61, 88
2, 31559, Note_off_c, 0, 61, 0
2, 31560, Note_on_c, 0, 63, 88
2, 31619, Note_off_c, 0, 63, 0
2, 31620, Note_on_c, 0, 66, 88
2, 31679, Note_off_c, 0, 66, 0
2, 31680, Note_on_c, 0, 66, 88
2, 31799, Note_off_c, 0, 66, 0
2, 31800, Note_on_c, 0, 64, 88
2, 31979, Note_off_c, 0, 64, 0
2, 31980, Note_on_c, 0, 63, 88
2, 32039, Note_off_c, 0, 63, 0
2, 32040, Note_on_c, 0, 61, 88
2, 32099, Note_off_c, 0, 61, 0
2, 32100, Note_on_c, 0, 59, 88
2, 32159, Note_off_c, 0, 59, 0
2, 32160, Note_on_c, 0, 58, 88
2, 32219, Note_off_c, 0, 58, 0
2, 32220, Note_on_c, 0, 56, 88
2, 32279, Note_off_c, 0, 56, 0
2, 32280, Note_on_c, 0, 58, 88
2, 32339, Note_off_c, 0, 58, 0
2, 32340, Note_on_c, 0, 61, 88
2, 32399, Note_off_c, 0, 61, 0
2, 32400, Note_on_c, 0, 60, 88
2, 32459, Note_off_c, 0, 60, 0
2, 32460, Note_on_c, 0, 58, 88
2, 32519, Note_off_c, 0, 58, 0
2, 32520, Note_on_c, 0, 60, 88
2, 32579, Note_off_c, 0, 60, 0
2, 32580, Note_on_c, 0, 63, 88
2, 32639, Note_off_c, 0, 63, 0
2, 32640, Note_on_c, 0, 56, 88
2, 32699, Note_off_c, 0, 56, 0
2, 32700, Note_on_c, 0, 55, 88
2, 32759, Note_off_c, 0, 55, 0
2, 32760, Note_on_c, 0, 56, 88
2, 32819, Note_off_c, 0, 56, 0
2, 32820, Note_on_c, 0, 59, 88
2, 32879, Note_off_c, 0, 59, 0
2, 32880, Note_on_c, 0, 58, 88
2, 32939, Note_off_c, 0, 58, 0
2, 32940, Note_on_c, 0, 56, 88
2, 32999, Note_off_c, 0, 56, 0
2, 33000, Note_on_c, 0, 58, 88
2, 33059, Note_off_c, 0, 58, 0
2, 33060, Note_on_c, 0, 61, 88
2, 33119, Note_off_c, 0, 61, 0
2, 33120, Note_on_c, 0, 55, 88
2, 33179, Note_off_c, 0, 55, 0
2, 33180, Note_on_c, 0, 64, 88
2, 33239, Note_off_c, 0, 64, 0
2, 33240, Note_on_c, 0, 63, 88
2, 33299, Note_off_c, 0, 63, 0
2, 33300, Note_on_c, 0, 61, 88
2, 33359, Note_off_c, 0, 61, 0
2, 33360, Note_on_c, 0, 70, 88
2, 33419, Note_off_c, 0, 70, 0
2, 33420, Note_on_c, 0, 61, 88
2, 33479, Note_off_c, 0, 61, 0
2, 33480, Note_on_c, 0, 70, 88
2, 33539, Note_off_c, 0, 70, 0
2, 33540, Note_on_c, 0, 61, 88
2, 33599, Note_off_c, 0, 61, 0
2, 33600, Note_on_c, 0, 60, 88
2, 33659, Note_off_c, 0, 60, 0
2, 33660, Note_on_c, 0, 69, 88
2, 33719, Note_off_c, 0, 69, 0
2, 33720, Note_on_c, 0, 68, 88
2, 33779, Note_off_c, 0, 68, 0
2, 33780, Note_on_c, 0, 66, 88
2, 33839, Note_off_c, 0, 66, 0
2, 33840, Note_on_c, 0, 75, 88
2, 33899, Note_off_c, 0, 75, 0
2, 33900, Note_on_c, 0, 66, 88
2, 33959, Note_off_c, 0, 66, 0
2, 33960, Note_on_c, 0, 75, 88
2, 34019, Note_off_c, 0, 75, 0
2, 34020, Note_on_c, 0, 66, 88
2, 34079, Note_off_c, 0, 66, 0
2, 34080, Note_on_c, 0, 65, 88
2, 34139, Note_off_c, 0, 65, 0
2, 34140, Note_on_c, 0, 62, 88
2, 34199, Note_off_c, 0, 62, 0
2, 34200, Note_on_c, 0, 61, 88
2, 34259, Note_off_c, 0, 61, 0
2, 34260, Note_on_c, 0, 59, 88
2, 34319, Note_off_c, 0, 59, 0
2, 34320, Note_on_c, 0, 68, 88
2, 34379, Note_off_c, 0, 68, 0
2, 34380, Note_on_c, 0, 59, 88
2, 34439, Note_off_c, 0, 59, 0
2, 34440, Note_on_c, 0, 68, 88
2, 34499, Note_off_c, 0, 68, 0
2, 34500, Note_on_c, 0, 59, 88
2, 34559, Note_off_c, 0, 59, 0
2, 34560, Note_on_c, 0, 58, 88
2, 34619, Note_off_c, 0, 58, 0
2, 34620, Note_on_c, 0, 67, 88
2, 34679, Note_off_c, 0, 67, 0
2, 34680, Note_on_c, 0, 66, 88
2, 34739, Note_off_c, 0, 66, 0
2, 34740, Note_on_c, 0, 64, 88
2, 34799, Note_off_c, 0, 64, 0
2, 34800, Note_on_c, 0, 73, 88
2, 34859, Note_off_c, 0, 73, 0
2, 34860, Note_on_c, 0, 64, 88
2, 34919, Note_off_c, 0, 64, 0
2, 34920, Note_on_c, 0, 73, 88
2, 34979, Note_off_c, 0, 73, 0
2, 34980, Note_on_c, 0, 64, 88
2, 35039, Note_off_c, 0, 64, 0
2, 35040, Note_on_c, 0, 63, 88
2, 35099, Note_off_c, 0, 63, 0
2, 35100, Note_on_c, 0, 66, 88
2, 35159, Note_off_c, 0, 66, 0
2, 35160, Note_on_c, 0, 68, 88
2, 35219, Note_off_c, 0, 68, 0
2, 35220, Note_on_c, 0, 70, 88
2, 35279, Note_off_c, 0, 70, 0
2, 35280, Note_on_c, 0, 71, 88
2, 35339, Note_off_c, 0, 71, 0
2, 35340, Note_on_c, 0, 66, 88
2, 35399, Note_off_c, 0, 66, 0
2, 35400, Note_on_c, 0, 65, 88
2, 35459, Note_off_c, 0, 65, 0
2, 35460, Note_on_c, 0, 63, 88
2, 35519, Note_off_c, 0, 63, 0
2, 35520, Note_on_c, 0, 62, 88
2, 35579, Note_off_c, 0, 62, 0
2, 35580, Note_on_c, 0, 71, 88
2, 35639, Note_off_c, 0, 71, 0
2, 35640, Note_on_c, 0, 70, 88
2, 35699, Note_off_c, 0, 70, 0
2, 35700, Note_on_c, 0, 68, 88
2, 35759, Note_off_c, 0, 68, 0
2, 35760, Note_on_c, 0, 77, 88
2, 35819, Note_off_c, 0, 77, 0
2, 35820, Note_on_c, 0, 68, 88
2, 35879, Note_off_c, 0, 68, 0
2, 35880, Note_on_c, 0, 77, 88
2, 35939, Note_off_c, 0, 77, 0
2, 35940, Note_on_c, 0, 68, 88
2, 35999, Note_off_c, 0, 68, 0
2, 36000, Note_on_c, 0, 66, 88
2, 36059, Note_off_c, 0, 66, 0
2, 36060, Note_on_c, 0, 70, 88
2, 36119, Note_off_c, 0, 70, 0
2, 36120, Note_on_c, 0, 75, 88
2, 36179, Note_off_c, 0, 75, 0
2, 36180, Note_on_c, 0, 77, 88
2, 36239, Note_off_c, 0, 77, 0
2, 36240, Note_on_c, 0, 78, 88
2, 36299, Note_off_c, 0, 78, 0
2, 36300, Note_on_c, 0, 75, 88
2, 36359, Note_off_c, 0, 75, 0
2, 36360, Note_on_c, 0, 72, 88
2, 36419, Note_off_c, 0, 72, 0
2, 36420, Note_on_c, 0, 75, 88
2, 36479, Note_off_c, 0, 75, 0
2, 36480, Note_on_c, 0, 69, 88
2, 36539, Note_off_c, 0, 69, 0
2, 36540, Note_on_c, 0, 78, 88
2, 36599, Note_off_c, 0, 78, 0
2, 36600, Note_on_c, 0, 77, 88
2, 36659, Note_off_c, 0, 77, 0
2, 36660, Note_on_c, 0, 75, 88
2, 36719, Note_off_c, 0, 75, 0
2, 36720, Note_on_c, 0, 84, 88
2, 36779, Note_off_c, 0, 84, 0
2, 36780, Note_on_c, 0, 75, 88
2, 36839, Note_off_c, 0, 75, 0
2, 36840, Note_on_c, 0, 84, 88
2, 36899, Note_off_c, 0, 84, 0
2, 36900, Note_on_c, 0, 75, 88
2, 36959, Note_off_c, 0, 75, 0
2, 36960, Note_on_c, 0, 74, 88
2, 37019, Note_off_c, 0, 74, 0
2, 37020, Note_on_c, 0, 75, 88
2, 37079, Note_off_c, 0, 75, 0
2, 37080, Note_on_c, 0, 77, 88
2, 37139, Note_off_c, 0, 77, 0
2, 37140, Note_on_c, 0, 82, 88
2, 37199, Note_off_c, 0, 82, 0
2, 37200, Note_on_c, 0, 70, 88
2, 37499, Note_off_c, 0, 70, 0
2, 37500, Note_on_c, 0, 74, 88
2, 37559, Note_off_c, 0, 74, 0
2, 37560, Note_on_c, 0, 75, 88
2, 37619, Note_off_c, 0, 75, 0
2, 37620, Note_on_c, 0, 77, 88
2, 37679, Note_off_c, 0, 77, 0
2, 37680, Note_on_c, 0, 78, 88
2, 37709, Note_off_c, 0, 78, 0
2, 37710, Note_on_c, 0, 77, 88
2, 37739, Note_off_c, 0, 77, 0
2, 37740, Note_on_c, 0, 75, 88
2, 37799, Note_off_c, 0, 75, 0
2, 37800, Note_on_c, 0, 83, 88
2, 37919, Note_off_c, 0, 83, 0
2, 37920, Note_on_c, 0, 83, 88
2, 38039, Note_off_c, 0, 83, 0
2, 38040, Note_on_c, 0, 82, 88
2, 38519, Note_off_c, 0, 82, 0
2, 38520, Note_on_c, 0, 78, 88
2, 38639, Note_off_c, 0, 78, 0
2, 38640, Note_on_c, 0, 78, 88
2, 38759, Note_off_c, 0, 78, 0
2, 38760, Note_on_c, 0, 80, 88
2, 38999, Note_off_c, 0, 80, 0
2, 39000, Note_on_c, 0, 78, 88
2, 39119, Note_off_c, 0, 78, 0
2, 39120, Note_on_c, 0, 78, 88
2, 39239, Note_off_c, 0, 78, 0
2, 39240, Note_on_c, 0, 77, 88
2, 39479, Note_off_c, 0, 77, 0
2, 39480, Note_on_c, 0, 75, 88
2, 39599, Note_off_c, 0, 75, 0
2, 39600, Note_on_c, 0, 76, 88
2, 39614, Note_off_c, 0, 76, 0
2, 39615, Note_on_c, 0, 75, 88
2, 39629, Note_off_c, 0, 75, 0
2, 39630, Note_on_c, 0, 76, 88
2, 39644, Note_off_c, 0, 76, 0
2, 39645, Note_on_c, 0, 75, 88
2, 39659, Note_off_c, 0, 75, 0
2, 39660, Note_on_c, 0, 74, 88
2, 39719, Note_off_c, 0, 74, 0
2, 39720, Note_on_c, 0, 75, 88
2, 39959, Note_off_c, 0, 75, 0
2, 39960, Note_on_c, 0, 75, 88
2, 40079, Note_off_c, 0, 75, 0
2, 40080, Note_on_c, 0, 73, 88
2, 40139, Note_off_c, 0, 73, 0
2, 40140, Note_on_c, 0, 71, 88
2, 40199, Note_off_c, 0, 71, 0
2, 40200, Note_on_c, 0, 73, 88
2, 40259, Note_off_c, 0, 73, 0
2, 40260, Note_on_c, 0, 82, 88
2, 40319, Note_off_c, 0, 82, 0
2, 40320, Note_on_c, 0, 71, 88
2, 40559, Note_off_c, 0, 71, 0
2, 40560, Note_on_c, 0, 73, 88
2, 40799, Note_off_c, 0, 73, 0
2, 40800, Note_on_c, 0, 71, 88
2, 41039, Note_off_c, 0, 71, 0
2, 41040, Note_on_c, 0, 70, 88
2, 41399, Note_off_c, 0, 70, 0
2, 41400, Note_on_c, 0, 77, 88
2, 41459, Note_off_c, 0, 77, 0
2, 41460, Note_on_c, 0, 75, 88
2, 41519, Note_off_c, 0, 75, 0
2, 41520, Note_on_c, 0, 77, 88
2, 41639, Note_off_c, 0, 77, 0
2, 41640, Note_on_c, 0, 80, 88
2, 41759, Note_off_c, 0, 80, 0
2, 41760, Note_on_c, 0, 74, 88
2, 41879, Note_off_c, 0, 74, 0
2, 41880, Note_on_c, 0, 77, 88
2, 41999, Note_off_c, 0, 77, 0
2, 42000, Note_on_c, 0, 70, 88
2, 42359, Note_off_c, 0, 70, 0
2, 42360, Note_on_c, 0, 70, 88
2, 42419, Note_off_c, 0, 70, 0
2, 42420, Note_on_c, 0, 68, 88
2, 42479, Note_off_c, 0, 68, 0
2, 42480, Note_on_c, 0, 70, 88
2, 42599, Note_off_c, 0, 70, 0
2, 42600, Note_on_c, 0, 78, 88
2, 42839, Note_off_c, 0, 78, 0
2, 42840, Note_on_c, 0, 75, 88
2, 43079, Note_off_c, 0, 75, 0
2, 43080, Note_on_c, 0, 72, 88
2, 43319, Note_off_c, 0, 72, 0
2, 43320, Note_on_c, 0, 68, 88
2, 43379, Note_off_c, 0, 68, 0
2, 43380, Note_on_c, 0, 66, 88
2, 43439, Note_off_c, 0, 66, 0
2, 43440, Note_on_c, 0, 68, 88
2, 43559, Note_off_c, 0, 68, 0
2, 43560, Note_on_c, 0, 77, 88
2, 43799, Note_off_c, 0, 77, 0
2, 43800, Note_on_c, 0, 73, 88
2, 44039, Note_off_c, 0, 73, 0
2, 44040, Note_on_c, 0, 70, 88
2, 44279, Note_off_c, 0, 70, 0
2, 44280, Note_on_c, 0, 69, 88
2, 44399, Note_off_c, 0, 69, 0
2, 44400, Note_on_c, 0, 70, 88
2, 44519, Note_off_c, 0, 70, 0
2, 44520, Note_on_c, 0, 75, 88
2, 44759, Note_off_c, 0, 75, 0
2, 44760, Note_on_c, 0, 75, 88
2, 44879, Note_off_c, 0, 75, 0
2, 44880, Note_on_c, 0, 74, 88
2, 44999, Note_off_c, 0, 74, 0
2, 45000, Note_on_c, 0, 83, 88
2, 45119, Note_off_c, 0, 83, 0
2, 45120, Note_on_c, 0, 82, 88
2, 45419, Note_off_c, 0, 82, 0
2, 45420, Note_on_c, 0, 82, 88
2, 45479, Note_off_c, 0, 82, 0
2, 45480, Note_on_c, 0, 77, 88
2, 45539, Note_off_c, 0, 77, 0
2, 45540, Note_on_c, 0, 80, 88
2, 45599, Note_off_c, 0, 80, 0
2, 45600, Note_on_c, 0, 80, 88
2, 45719, Note_off_c, 0, 80, 0
2, 45720, Note_on_c, 0, 79, 88
2, 46079, Note_off_c, 0, 79, 0
2, 46080, Note_on_c, 0, 75, 88
2, 46139, Note_off_c, 0, 75, 0
2, 46140, Note_on_c, 0, 77, 88
2, 46199, Note_off_c, 0, 77, 0
2, 46200, Note_on_c, 0, 79, 88
2, 46259, Note_off_c, 0, 79, 0
2, 46260, Note_on_c, 0, 80, 88
2, 46319, Note_off_c, 0, 80, 0
2, 46320, Note_on_c, 0, 82, 88
2, 46379, Note_off_c, 0, 82, 0
2, 46380, Note_on_c, 0, 76, 88
2, 46439, Note_off_c, 0, 76, 0
2, 46440, Note_on_c, 0, 75, 88
2, 46499, Note_off_c, 0, 75, 0
2, 46500, Note_on_c, 0, 73, 88
2, 46559, Note_off_c, 0, 73, 0
2, 46560, Note_on_c, 0, 72, 88
2, 46619, Note_off_c, 0, 72, 0
2, 46620, Note_on_c, 0, 73, 88
2, 46679, Note_off_c, 0, 73, 0
2, 46680, Note_on_c, 0, 75, 88
2, 46739, Note_off_c, 0, 75, 0
2, 46740, Note_on_c, 0, 69, 88
2, 46799, Note_off_c, 0, 69, 0
2, 46800, Note_on_c, 0, 68, 88
2, 46859, Note_off_c, 0, 68, 0
2, 46860, Note_on_c, 0, 66, 88
2, 46919, Note_off_c, 0, 66, 0
2, 46920, Note_on_c, 0, 64, 88
2, 46979, Note_off_c, 0, 64, 0
2, 46980, Note_on_c, 0, 63, 88
2, 47039, Note_off_c, 0, 63, 0
2, 47040, Note_on_c, 0, 64, 88
2, 47099, Note_off_c, 0, 64, 0
2, 47100, Note_on_c, 0, 73, 88
2, 47159, Note_off_c, 0, 73, 0
2, 47160, Note_on_c, 0, 64, 88
2, 47219, Note_off_c, 0, 64, 0
2, 47220, Note_on_c, 0, 73, 88
2, 47279, Note_off_c, 0, 73, 0
2, 47280, Note_on_c, 0, 65, 88
2, 47339, Note_off_c, 0, 65, 0
2, 47340, Note_on_c, 0, 74, 88
2, 47399, Note_off_c, 0, 74, 0
2, 47400, Note_on_c, 0, 65, 88
2, 47459, Note_off_c, 0, 65, 0
2, 47460, Note_on_c, 0, 74, 88
2, 47519, Note_off_c, 0, 74, 0
2, 47520, Note_on_c, 0, 73, 88
2, 47579, Note_off_c, 0, 73, 0
2, 47580, Note_on_c, 0, 69, 88
2, 47639, Note_off_c, 0, 69, 0
2, 47640, Note_on_c, 0, 68, 88
2, 47699, Note_off_c, 0, 68, 0
2, 47700, Note_on_c, 0, 66, 88
2, 47759, Note_off_c, 0, 66, 0
2, 47760, Note_on_c, 0, 65, 88
2, 47819, Note_off_c, 0, 65, 0
2, 47820, Note_on_c, 0, 74, 88
2, 47879, Note_off_c, 0, 74, 0
2, 47880, Note_on_c, 0, 73, 88
2, 47939, Note_off_c, 0, 73, 0
2, 47940, Note_on_c, 0, 71, 88
2, 47999, Note_off_c, 0, 71, 0
2, 48000, Note_on_c, 0, 70, 88
2, 48059, Note_off_c, 0, 70, 0
2, 48060, Note_on_c, 0, 71, 88
2, 48119, Note_off_c, 0, 71, 0
2, 48120, Note_on_c, 0, 73, 88
2, 48179, Note_off_c, 0, 73, 0
2, 48180, Note_on_c, 0, 75, 88
2, 48239, Note_off_c, 0, 75, 0
2, 48240, Note_on_c, 0, 76, 88
2, 48299, Note_off_c, 0, 76, 0
2, 48300, Note_on_c, 0, 71, 88
2, 48359, Note_off_c, 0, 71, 0
2, 48360, Note_on_c, 0, 69, 88
2, 48419, Note_off_c, 0, 69, 0
2, 48420, Note_on_c, 0, 68, 88
2, 48479, Note_off_c, 0, 68, 0
2, 48480, Note_on_c, 0, 67, 88
2, 48539, Note_off_c, 0, 67, 0
2, 48540, Note_on_c, 0, 68, 88
2, 48599, Note_off_c, 0, 68, 0
2, 48600, Note_on_c, 0, 70, 88
2, 48659, Note_off_c, 0, 70, 0
2, 48660, Note_on_c, 0, 64, 88
2, 48719, Note_off_c, 0, 64, 0
2, 48720, Note_on_c, 0, 63, 88
2, 48779, Note_off_c, 0, 63, 0
2, 48780, Note_on_c, 0, 61, 88
2, 48839, Note_off_c, 0, 61, 0
2, 48840, Note_on_c, 0, 59, 88
2, 48899, Note_off_c, 0, 59, 0
2, 48900, Note_on_c, 0, 58, 88
2, 48959, Note_off_c, 0, 58, 0
2, 48960, Note_on_c, 0, 59, 88
2, 49019, Note_off_c, 0, 59, 0
2, 49020, Note_on_c, 0, 68, 88
2, 49079, Note_off_c, 0, 68, 0
2, 49080, Note_on_c, 0, 59, 88
2, 49139, Note_off_c, 0, 59, 0
2, 49140, Note_on_c, 0, 68, 88
2, 49199, Note_off_c, 0, 68, 0
2, 49200, Note_on_c, 0, 60, 88
2, 49259, Note_off_c, 0, 60, 0
2, 49260, Note_on_c, 0, 69, 88
2, 49319, Note_off_c, 0, 69, 0
2, 49320, Note_on_c, 0, 60, 88
2, 49379, Note_off_c, 0, 60, 0
2, 49380, Note_on_c, 0, 69, 88
2, 49439, Note_off_c, 0, 69, 0
2, 49440, Note_on_c, 0, 68, 88
2, 49499, Note_off_c, 0, 68, 0
2, 49500, Note_on_c, 0, 64, 88
2, 49559, Note_off_c, 0, 64, 0
2, 49560, Note_on_c, 0, 63, 88
2, 49619, Note_off_c, 0, 63, 0
2, 49620, Note_on_c, 0, 61, 88
2, 49679, Note_off_c, 0, 61, 0
2, 49680, Note_on_c, 0, 60, 88
2, 49739, Note_off_c, 0, 60, 0
2, 49740, Note_on_c, 0, 69, 88
2, 49799, Note_off_c, 0, 69, 0
2, 49800, Note_on_c, 0, 68, 88
2, 49859, Note_off_c, 0, 68, 0
2, 49860, Note_on_c, 0, 66, 88
2, 49919, Note_off_c, 0, 66, 0
2, 49920, Note_on_c, 0, 65, 88
2, 49979, Note_off_c, 0, 65, 0
2, 49980, Note_on_c, 0, 66, 88
2, 50039, Note_off_c, 0, 66, 0
2, 50040, Note_on_c, 0, 68, 88
2, 50099, Note_off_c, 0, 68, 0
2, 50100, Note_on_c, 0, 70, 88
2, 50159, Note_off_c, 0, 70, 0
2, 50160, Note_on_c, 0, 71, 88
2, 50219, Note_off_c, 0, 71, 0
2, 50220, Note_on_c, 0, 74, 88
2, 50279, Note_off_c, 0, 74, 0
2, 50280, Note_on_c, 0, 73, 88
2, 50339, Note_off_c, 0, 73, 0
2, 50340, Note_on_c, 0, 71, 88
2, 50399, Note_off_c, 0, 71, 0
2, 50400, Note_on_c, 0, 70, 88
2, 50459, Note_off_c, 0, 70, 0
2, 50460, Note_on_c, 0, 71, 88
2, 50519, Note_off_c, 0, 71, 0
2, 50520, Note_on_c, 0, 73, 88
2, 50579, Note_off_c, 0, 73, 0
2, 50580, Note_on_c, 0, 68, 88
2, 50639, Note_off_c, 0, 68, 0
2, 50640, Note_on_c, 0, 66, 88
2, 50699, Note_off_c, 0, 66, 0
2, 50700, Note_on_c, 0, 64, 88
2, 50759, Note_off_c, 0, 64, 0
2, 50760, Note_on_c, 0, 63, 88
2, 50819, Note_off_c, 0, 63, 0
2, 50820, Note_on_c, 0, 61, 88
2, 50879, Note_off_c, 0, 61, 0
2, 50880, Note_on_c, 0, 63, 88
2, 50939, Note_off_c, 0, 63, 0
2, 50940, Note_on_c, 0, 64, 88
2, 50999, Note_off_c, 0, 64, 0
2, 51000, Note_on_c, 0, 66, 88
2, 51059, Note_off_c, 0, 66, 0
2, 51060, Note_on_c, 0, 68, 88
2, 51119, Note_off_c, 0, 68, 0
2, 51120, Note_on_c, 0, 69, 88
2, 51179, Note_off_c, 0, 69, 0
2, 51180, Note_on_c, 0, 73, 88
2, 51239, Note_off_c, 0, 73, 0
2, 51240, Note_on_c, 0, 71, 88
2, 51299, Note_off_c, 0, 71, 0
2, 51300, Note_on_c, 0, 69, 88
2, 51359, Note_off_c, 0, 69, 0
2, 51360, Note_on_c, 0, 68, 88
2, 51419, Note_off_c, 0, 68, 0
2, 51420, Note_on_c, 0, 69, 88
2, 51479, Note_off_c, 0, 69, 0
2, 51480, Note_on_c, 0, 71, 88
2, 51539, Note_off_c, 0, 71, 0
2, 51540, Note_on_c, 0, 66, 88
2, 51599, Note_off_c, 0, 66, 0
2, 51600, Note_on_c, 0, 64, 88
2, 51659, Note_off_c, 0, 64, 0
2, 51660, Note_on_c, 0, 62, 88
2, 51719, Note_off_c, 0, 62, 0
2, 51720, Note_on_c, 0, 61, 88
2, 51779, Note_off_c, 0, 61, 0
2, 51780, Note_on_c, 0, 59, 88
2, 51839, Note_off_c, 0, 59, 0
2, 51840, Note_on_c, 0, 61, 88
2, 51959, Note_off_c, 0, 61, 0
2, 51960, Note_on_c, 0, 69, 88
2, 52079, Note_off_c, 0, 69, 0
2, 52080, Note_on_c, 0, 69, 88
2, 52199, Note_off_c, 0, 69, 0
2, 52200, Note_on_c, 0, 71, 88
2, 52439, Note_off_c, 0, 71, 0
2, 52440, Note_on_c, 0, 69, 88
2, 52559, Note_off_c, 0, 69, 0
2, 52560, Note_on_c, 0, 68, 88
2, 52919, Note_off_c, 0, 68, 0
2, 52920, Note_on_c, 0, 66, 88
2, 52979, Note_off_c, 0, 66, 0
2, 52980, Note_on_c, 0, 68, 88
2, 53039, Note_off_c, 0, 68, 0
2, 53040, Note_on_c, 0, 69, 88
2, 53159, Note_off_c, 0, 69, 0
2, 53160, Note_on_c, 0, 73, 88
2, 53399, Note_off_c, 0, 73, 0
2, 53400, Note_on_c, 0, 76, 88
2, 53519, Note_off_c, 0, 76, 0
2, 53520, Note_on_c, 0, 75, 88
2, 53639, Note_off_c, 0, 75, 0
2, 53640, Note_on_c, 0, 73, 88
2, 53879, Note_off_c, 0, 73, 0
2, 53880, Note_on_c, 0, 71, 88
2, 53939, Note_off_c, 0, 71, 0
2, 53940, Note_on_c, 0, 70, 88
2, 53999, Note_off_c, 0, 70, 0
2, 54000, Note_on_c, 0, 71, 88
2, 54119, Note_off_c, 0, 71, 0
2, 54120, Note_on_c, 0, 75, 88
2, 54359, Note_off_c, 0, 75, 0
2, 54360, Note_on_c, 0, 78, 88
2, 54479, Note_off_c, 0, 78, 0
2, 54480, Note_on_c, 0, 77, 88
2, 54599, Note_off_c, 0, 77, 0
2, 54600, Note_on_c, 0, 75, 88
2, 54719, Note_off_c, 0, 75, 0
2, 54720, Note_on_c, 0, 65, 88
2, 54779, Note_off_c, 0, 65, 0
2, 54780, Note_on_c, 0, 71, 88
2, 54839, Note_off_c, 0, 71, 0
2, 54840, Note_on_c, 0, 70, 88
2, 54899, Note_off_c, 0, 70, 0
2, 54900, Note_on_c, 0, 68, 88
2, 54959, Note_off_c, 0, 68, 0
2, 54960, Note_on_c, 0, 77, 88
2, 55019, Note_off_c, 0, 77, 0
2, 55020, Note_on_c, 0, 68, 88
2, 55079, Note_off_c, 0, 68, 0
2, 55080, Note_on_c, 0, 77, 88
2, 55139, Note_off_c, 0, 77, 0
2, 55140, Note_on_c, 0, 68, 88
2, 55199, Note_off_c, 0, 68, 0
2, 55200, Note_on_c, 0, 67, 88
2, 55259, Note_off_c, 0, 67, 0
2, 55260, Note_on_c, 0, 76, 88
2, 55319, Note_off_c, 0, 76, 0
2, 55320, Note_on_c, 0, 75, 88
2, 55379, Note_off_c, 0, 75, 0
2, 55380, Note_on_c, 0, 73, 88
2, 55439, Note_off_c, 0, 73, 0
2, 55440, Note_on_c, 0, 82, 88
2, 55499, Note_off_c, 0, 82, 0
2, 55500, Note_on_c, 0, 73, 88
2, 55559, Note_off_c, 0, 73, 0
2, 55560, Note_on_c, 0, 82, 88
2, 55619, Note_off_c, 0, 82, 0
2, 55620, Note_on_c, 0, 73, 88
2, 55679, Note_off_c, 0, 73, 0
2, 55680, Note_on_c, 0, 72, 88
2, 55739, Note_off_c, 0, 72, 0
2, 55740, Note_on_c, 0, 69, 88
2, 55799, Note_off_c, 0, 69, 0
2, 55800, Note_on_c, 0, 68, 88
2, 55859, Note_off_c, 0, 68, 0
2, 55860, Note_on_c, 0, 66, 88
2, 55919, Note_off_c, 0, 66, 0
2, 55920, Note_on_c, 0, 75, 88
2, 55979, Note_off_c, 0, 75, 0
2, 55980, Note_on_c, 0, 66, 88
2, 56039, Note_off_c, 0, 66, 0
2, 56040, Note_on_c, 0, 75, 88
2, 56099, Note_off_c, 0, 75, 0
2, 56100, Note_on_c, 0, 66, 88
2, 56159, Note_off_c, 0, 66, 0
2, 56160, Note_on_c, 0, 65, 88
2, 56219, Note_off_c, 0, 65, 0
2, 56220, Note_on_c, 0, 74, 88
2, 56279, Note_off_c, 0, 74, 0
2, 56280, Note_on_c, 0, 73, 88
2, 56339, Note_off_c, 0, 73, 0
2, 56340, Note_on_c, 0, 71, 88
2, 56399, Note_off_c, 0, 71, 0
2, 56400, Note_on_c, 0, 80, 88
2, 56459, Note_off_c, 0, 80, 0
2, 56460, Note_on_c, 0, 71, 88
2, 56519, Note_off_c, 0, 71, 0
2, 56520, Note_on_c, 0, 80, 88
2, 56579, Note_off_c, 0, 80, 0
2, 56580, Note_on_c, 0, 71, 88
2, 56639, Note_off_c, 0, 71, 0
2, 56640, Note_on_c, 0, 70, 88
2, 56699, Note_off_c, 0, 70, 0
2, 56700, Note_on_c, 0, 73, 88
2, 56759, Note_off_c, 0, 73, 0
2, 56760, Note_on_c, 0, 75, 88
2, 56819, Note_off_c, 0, 75, 0
2, 56820, Note_on_c, 0, 77, 88
2, 56879, Note_off_c, 0, 77, 0
2, 56880, Note_on_c, 0, 78, 88
2, 56999, Note_off_c, 0, 78, 0
2, 57000, Note_on_c, 0, 70, 88
2, 57119, Note_off_c, 0, 70, 0
2, 57120, Note_on_c, 0, 69, 88
2, 57239, Note_off_c, 0, 69, 0
2, 57240, Note_on_c, 0, 78, 88
2, 57359, Note_off_c, 0, 78, 0
2, 57360, Note_on_c, 0, 77, 88
2, 57479, Note_off_c, 0, 77, 0
2, 57480, Note_on_c, 0, 68, 88
2, 57599, Note_off_c, 0, 68, 0
2, 57600, Note_on_c, 0, 67, 88
2, 57659, Note_off_c, 0, 67, 0
2, 57660, Note_on_c, 0, 70, 88
2, 57719, Note_off_c, 0, 70, 0
2, 57720, Note_on_c, 0, 72, 88
2, 57779, Note_off_c, 0, 72, 0
2, 57780, Note_on_c, 0, 74, 88
2, 57839, Note_off_c, 0, 74, 0
2, 57840, Note_on_c, 0, 75, 88
2, 57959, Note_off_c, 0, 75, 0
2, 57960, Note_on_c, 0, 66, 88
2, 58079, Note_off_c, 0, 66, 0
2, 58080, Note_on_c, 0, 65, 88
2, 58199, Note_off_c, 0, 65, 0
2, 58200, Note_on_c, 0, 74, 88
2, 58319, Note_off_c, 0, 74, 0
2, 58320, Note_on_c, 0, 73, 88
2, 58439, Note_off_c, 0, 73, 0
2, 58440, Note_on_c, 0, 64, 88
2, 58559, Note_off_c, 0, 64, 0
2, 58560, Note_on_c, 0, 63, 88
2, 58619, Note_off_c, 0, 63, 0
2, 58620, Note_on_c, 0, 67, 88
2, 58679, Note_off_c, 0, 67, 0
2, 58680, Note_on_c, 0, 68, 88
2, 58739, Note_off_c, 0, 68, 0
2, 58740, Note_on_c, 0, 70, 88
2, 58799, Note_off_c, 0, 70, 0
2, 58800, Note_on_c, 0, 71, 88
2, 58919, Note_off_c, 0, 71, 0
2, 58920, Note_on_c, 0, 63, 88
2, 59039, Note_off_c, 0, 63, 0
2, 59040, Note_on_c, 0, 62, 88
2, 59159, Note_off_c, 0, 62, 0
2, 59160, Note_on_c, 0, 71, 88
2, 59279, Note_off_c, 0, 71, 0
2, 59280, Note_on_c, 0, 70, 88
2, 59399, Note_off_c, 0, 70, 0
2, 59400, Note_on_c, 0, 61, 88
2, 59519, Note_off_c, 0, 61, 0
2, 59520, Note_on_c, 0, 60, 88
2, 59639, Note_off_c, 0, 60, 0
2, 59640, Note_on_c, 0, 69, 88
2, 59759, Note_off_c, 0, 69, 0
2, 59760, Note_on_c, 0, 68, 88
2, 59879, Note_off_c, 0, 68, 0
2, 59880, Note_on_c, 0, 59, 88
2, 59999, Note_off_c, 0, 59, 0
2, 60000, Note_on_c, 0, 58, 88
2, 60119, Note_off_c, 0, 58, 0
2, 60120, Note_on_c, 0, 68, 88
2, 60239, Note_off_c, 0, 68, 0
2, 60240, Note_on_c, 0, 67, 88
2, 60359, Note_off_c, 0, 67, 0
2, 60360, Note_on_c, 0, 57, 88
2, 60479, Note_off_c, 0, 57, 0
2, 60480, Note_on_c, 0, 56, 88
2, 60599, Note_off_c, 0, 56, 0
2, 60600, Note_on_c, 0, 66, 88
2, 60719, Note_off_c, 0, 66, 0
2, 60720, Note_on_c, 0, 65, 88
2, 60839, Note_off_c, 0, 65, 0
2, 60840, Note_on_c, 0, 64, 88
2, 60959, Note_off_c, 0, 64, 0
2, 60960, Note_on_c, 0, 64, 88
2, 61079, Note_off_c, 0, 64, 0
2, 61080, Note_on_c, 0, 63, 88
2, 61439, Note_off_c, 0, 63, 0
2, 61440, Note_on_c, 0, 68, 88
2, 61499, Note_off_c, 0, 68, 0
2, 61500, Note_on_c, 0, 70, 88
2, 61559, Note_off_c, 0, 70, 0
2, 61560, Note_on_c, 0, 71, 88
2, 61619, Note_off_c, 0, 71, 0
2, 61620, Note_on_c, 0, 73, 88
2, 61679, Note_off_c, 0, 73, 0
2, 61680, Note_on_c, 0, 75, 88
2, 61739, Note_off_c, 0, 75, 0
2, 61740, Note_on_c, 0, 71, 88
2, 61799, Note_off_c, 0, 71, 0
2, 61800, Note_on_c, 0, 70, 88
2, 61859, Note_off_c, 0, 70, 0
2, 61860, Note_on_c, 0, 68, 88
2, 61919, Note_off_c, 0, 68, 0
2, 61920, Note_on_c, 0, 67, 88
2, 61979, Note_off_c, 0, 67, 0
2, 61980, Note_on_c, 0, 68, 88
2, 62039, Note_off_c, 0, 68, 0
2, 62040, Note_on_c, 0, 70, 88
2, 62099, Note_off_c, 0, 70, 0
2, 62100, Note_on_c, 0, 64, 88
2, 62159, Note_off_c, 0, 64, 0
2, 62160, Note_on_c, 0, 63, 88
2, 62519, Note_off_c, 0, 63, 0
2, 62520, Note_on_c, 0, 80, 88
2, 62639, Note_off_c, 0, 80, 0
2, 62640, Note_on_c, 0, 80, 88
2, 62759, Note_off_c, 0, 80, 0
2, 62760, Note_on_c, 0, 82, 88
2, 62999, Note_off_c, 0, 82, 0
2, 63000, Note_on_c, 0, 80, 88
2, 63119, Note_off_c, 0, 80, 0
2, 63120, Note_on_c, 0, 80, 88
2, 63239, Note_off_c, 0, 80, 0
2, 63240, Note_on_c, 0, 79, 88
2, 63419, Note_off_c, 0, 79, 0
2, 63420, Note_on_c, 0, 67, 88
2, 63479, Note_off_c, 0, 67, 0
2, 63480, Note_on_c, 0, 68, 88
2, 63539, Note_off_c, 0, 68, 0
2, 63540, Note_on_c, 0, 70, 88
2, 63599, Note_off_c, 0, 70, 0
2, 63600, Note_on_c, 0, 71, 88
2, 63629, Note_off_c, 0, 71, 0
2, 63630, Note_on_c, 0, 70, 88
2, 63659, Note_off_c, 0, 70, 0
2, 63660, Note_on_c, 0, 68, 88
2, 63719, Note_off_c, 0, 68, 0
2, 63720, Note_on_c, 0, 76, 88
2, 63839, Note_off_c, 0, 76, 0
2, 63840, Note_on_c, 0, 76, 88
2, 63959, Note_off_c, 0, 76, 0
2, 63960, Note_on_c, 0, 75, 88
2, 64439, Note_off_c, 0, 75, 0
2, 64440, Note_on_c, 0, 71, 88
2, 64559, Note_off_c, 0, 71, 0
2, 64560, Note_on_c, 0, 73, 88
2, 64679, Note_off_c, 0, 73, 0
2, 64680, Note_on_c, 0, 72, 88
2, 64919, Note_off_c, 0, 72, 0
2, 64920, Note_on_c, 0, 73, 88
2, 65039, Note_off_c, 0, 73, 0
2, 65040, Note_on_c, 0, 78, 88
2, 65159, Note_off_c, 0, 78, 0
2, 65160, Note_on_c, 0, 75, 88
2, 65399, Note_off_c, 0, 75, 0
2, 65400, Note_on_c, 0, 76, 88
2, 65519, Note_off_c, 0, 76, 0
2, 65520, Note_on_c, 0, 78, 88
2, 65639, Note_off_c, 0, 78, 0
2, 65640, Note_on_c, 0, 77, 88
2, 65879, Note_off_c, 0, 77, 0
2, 65880, Note_on_c, 0, 82, 88
2, 65999, Note_off_c, 0, 82, 0
2, 66000, Note_on_c, 0, 82, 88
2, 66119, Note_off_c, 0, 82, 0
2, 66120, Note_on_c, 0, 82, 88
2, 66239, Note_off_c, 0, 82, 0
2, 66240, Note_on_c, 0, 82, 88
2, 66539, Note_off_c, 0, 82, 0
2, 66540, Note_on_c, 0, 76, 88
2, 66599, Note_off_c, 0, 76, 0
2, 66600, Note_on_c, 0, 75, 88
2, 66659, Note_off_c, 0, 75, 0
2, 66660, Note_on_c, 0, 73, 88
2, 66719, Note_off_c, 0, 73, 0
2, 66720, Note_on_c, 0, 71, 88
2, 66779, Note_off_c, 0, 71, 0
2, 66780, Note_on_c, 0, 73, 88
2, 66839, Note_off_c, 0, 73, 0
2, 66840, Note_on_c, 0, 75, 88
2, 66899, Note_off_c, 0, 75, 0
2, 66900, Note_on_c, 0, 68, 88
2, 66959, Note_off_c, 0, 68, 0
2, 66960, Note_on_c, 0, 71, 88
2, 67019, Note_off_c, 0, 71, 0
2, 67020, Note_on_c, 0, 70, 88
2, 67079, Note_off_c, 0, 70, 0
2, 67080, Note_on_c, 0, 68, 88
2, 67139, Note_off_c, 0, 68, 0
2, 67140, Note_on_c, 0, 67, 88
2, 67199, Note_off_c, 0, 67, 0
2, 67200, Note_on_c, 0, 68, 88
2, 67259, Note_off_c, 0, 68, 0
2, 67260, Note_on_c, 0, 71, 88
2, 67319, Note_off_c, 0, 71, 0
2, 67320, Note_on_c, 0, 68, 88
2, 67379, Note_off_c, 0, 68, 0
2, 67380, Note_on_c, 0, 71, 88
2, 67439, Note_off_c, 0, 71, 0
2, 67440, Note_on_c, 0, 66, 88
2, 67499, Note_off_c, 0, 66, 0
2, 67500, Note_on_c, 0, 75, 88
2, 67559, Note_off_c, 0, 75, 0
2, 67560, Note_on_c, 0, 66, 88
2, 67619, Note_off_c, 0, 66, 0
2, 67620, Note_on_c, 0, 75, 88
2, 67679, Note_off_c, 0, 75, 0
2, 67680, Note_on_c, 0, 65, 88
2, 67739, Note_off_c, 0, 65, 0
2, 67740, Note_on_c, 0, 73, 88
2, 67799, Note_off_c, 0, 73, 0
2, 67800, Note_on_c, 0, 65, 88
2, 67859, Note_off_c, 0, 65, 0
2, 67860, Note_on_c, 0, 73, 88
2, 67919, Note_off_c, 0, 73, 0
2, 67920, Note_on_c, 0, 61, 88
2, 67979, Note_off_c, 0, 61, 0
2, 67980, Note_on_c, 0, 71, 88
2, 68039, Note_off_c, 0, 71, 0
2, 68040, Note_on_c, 0, 61, 88
2, 68099, Note_off_c, 0, 61, 0
2, 68100, Note_on_c, 0, 71, 88
2, 68159, Note_off_c, 0, 71, 0
2, 68160, Note_on_c, 0, 66, 88
2, 68219, Note_off_c, 0, 66, 0
2, 68220, Note_on_c, 0, 70, 88
2, 68279, Note_off_c, 0, 70, 0
2, 68280, Note_on_c, 0, 66, 88
2, 68339, Note_off_c, 0, 66, 0
2, 68340, Note_on_c, 0, 70, 88
2, 68399, Note_off_c, 0, 70, 0
2, 68400, Note_on_c, 0, 64, 88
2, 68459, Note_off_c, 0, 64, 0
2, 68460, Note_on_c, 0, 73, 88
2, 68519, Note_off_c, 0, 73, 0
2, 68520, Note_on_c, 0, 64, 88
2, 68579, Note_off_c, 0, 64, 0
2, 68580, Note_on_c, 0, 73, 88
2, 68639, Note_off_c, 0, 73, 0
2, 68640, Note_on_c, 0, 63, 88
2, 68699, Note_off_c, 0, 63, 0
2, 68700, Note_on_c, 0, 71, 88
2, 68759, Note_off_c, 0, 71, 0
2, 68760, Note_on_c, 0, 63, 88
2, 68819, Note_off_c, 0, 63, 0
2, 68820, Note_on_c, 0, 71, 88
2, 68879, Note_off_c, 0, 71, 0
2, 68880, Note_on_c, 0, 59, 88
2, 68939, Note_off_c, 0, 59, 0
2, 68940, Note_on_c, 0, 70, 88
2, 68999, Note_off_c, 0, 70, 0
2, 69000, Note_on_c, 0, 59, 88
2, 69059, Note_off_c, 0, 59, 0
2, 69060, Note_on_c, 0, 70, 88
2, 69119, Note_off_c, 0, 70, 0
2, 69120, Note_on_c, 0, 64, 88
2, 69179, Note_off_c, 0, 64, 0
2, 69180, Note_on_c, 0, 68, 88
2, 69239, Note_off_c, 0, 68, 0
2, 69240, Note_on_c, 0, 64, 88
2, 69299, Note_off_c, 0, 64, 0
2, 69300, Note_on_c, 0, 68, 88
2, 69359, Note_off_c, 0, 68, 0
2, 69360, Note_on_c, 0, 63, 88
2, 69419, Note_off_c, 0, 63, 0
2, 69420, Note_on_c, 0, 71, 88
2, 69479, Note_off_c, 0, 71, 0
2, 69480, Note_on_c, 0, 63, 88
2, 69539, Note_off_c, 0, 63, 0
2, 69540, Note_on_c, 0, 71, 88
2, 69599, Note_off_c, 0, 71, 0
2, 69600, Note_on_c, 0, 62, 88
2, 69659, Note_off_c, 0, 62, 0
2, 69660, Note_on_c, 0, 70, 88
2, 69719, Note_off_c, 0, 70, 0
2, 69720, Note_on_c, 0, 62, 88
2, 69779, Note_off_c, 0, 62, 0
2, 69780, Note_on_c, 0, 70, 88
2, 69839, Note_off_c, 0, 70, 0
2, 69840, Note_on_c, 0, 58, 88
2, 69899, Note_off_c, 0, 58, 0
2, 69900, Note_on_c, 0, 68, 88
2, 69959, Note_off_c, 0, 68, 0
2, 69960, Note_on_c, 0, 58, 88
2, 70019, Note_off_c, 0, 58, 0
2, 70020, Note_on_c, 0, 68, 88
2, 70079, Note_off_c, 0, 68, 0
2, 70080, Note_on_c, 0, 67, 88
2, 70139, Note_off_c, 0, 67, 0
2, 70140, Note_on_c, 0, 63, 88
2, 70199, Note_off_c, 0, 63, 0
2, 70200, Note_on_c, 0, 68, 88
2, 70259, Note_off_c, 0, 68, 0
2, 70260, Note_on_c, 0, 70, 88
2, 70319, Note_off_c, 0, 70, 0
2, 70320, Note_on_c, 0, 71, 88
2, 70439, Note_off_c, 0, 71, 0
2, 70440, Note_on_c, 0, 70, 88
2, 70679, Note_off_c, 0, 70, 0
2, 70680, Note_on_c, 0, 68, 88
2, 71039, Note_off_c, 0, 68, 0
2, 71040, Note_on_c, 0, 75, 88
2, 71099, Note_off_c, 0, 75, 0
2, 71100, Note_on_c, 0, 77, 88
2, 71159, Note_off_c, 0, 77, 0
2, 71160, Note_on_c, 0, 79, 88
2, 71219, Note_off_c, 0, 79, 0
2, 71220, Note_on_c, 0, 80, 88
2, 71279, Note_off_c, 0, 80, 0
2, 71280, Note_on_c, 0, 82, 88
2, 71339, Note_off_c, 0, 82, 0
2, 71340, Note_on_c, 0, 76, 88
2, 71399, Note_off_c, 0, 76, 0
2, 71400, Note_on_c, 0, 75, 88
2, 71459, Note_off_c, 0, 75, 0
2, 71460, Note_on_c, 0, 73, 88
2, 71519, Note_off_c, 0, 73, 0
2, 71520, Note_on_c, 0, 72, 88
2, 71579, Note_off_c, 0, 72, 0
2, 71580, Note_on_c, 0, 73, 88
2, 71639, Note_off_c, 0, 73, 0
2, 71640, Note_on_c, 0, 75, 88
2, 71699, Note_off_c, 0, 75, 0
2, 71700, Note_on_c, 0, 69, 88
2, 71759, Note_off_c, 0, 69, 0
2, 71760, Note_on_c, 0, 68, 88
2, 71819, Note_off_c, 0, 68, 0
2, 71820, Note_on_c, 0, 66, 88
2, 71879, Note_off_c, 0, 66, 0
2, 71880, Note_on_c, 0, 64, 88
2, 71939, Note_off_c, 0, 64, 0
2, 71940, Note_on_c, 0, 63, 88
2, 71999, Note_off_c, 0, 63, 0
2, 72000, Note_on_c, 0, 64, 88
2, 72059, Note_off_c, 0, 64, 0
2, 72060, Note_on_c, 0, 73, 88
2, 72119, Note_off_c, 0, 73, 0
2, 72120, Note_on_c, 0, 64, 88
2, 72179, Note_off_c, 0, 64, 0
2, 72180, Note_on_c, 0, 73, 88
2, 72239, Note_off_c, 0, 73, 0
2, 72240, Note_on_c, 0, 65, 88
2, 72299, Note_off_c, 0, 65, 0
2, 72300, Note_on_c, 0, 74, 88
2, 72359, Note_off_c, 0, 74, 0
2, 72360, Note_on_c, 0, 65, 88
2, 72419, Note_off_c, 0, 65, 0
2, 72420, Note_on_c, 0, 74, 88
2, 72479, Note_off_c, 0, 74, 0
2, 72480, Note_on_c, 0, 73, 88
2, 72539, Note_off_c, 0, 73, 0
2, 72540, Note_on_c, 0, 69, 88
2, 72599, Note_off_c, 0, 69, 0
2, 72600, Note_on_c, 0, 68, 88
2, 72659, Note_off_c, 0, 68, 0
2, 72660, Note_on_c, 0, 66, 88
2, 72719, Note_off_c, 0, 66, 0
2, 72720, Note_on_c, 0, 65, 88
2, 72779, Note_off_c, 0, 65, 0
2, 72780, Note_on_c, 0, 74, 88
2, 72839, Note_off_c, 0, 74, 0
2, 72840, Note_on_c, 0, 73, 88
2, 72899, Note_off_c, 0, 73, 0
2, 72900, Note_on_c, 0, 71, 88
2, 72959, Note_off_c, 0, 71, 0
2, 72960, Note_on_c, 0, 70, 88
2, 73019, Note_off_c, 0, 70, 0
2, 73020, Note_on_c, 0, 71, 88
2, 73079, Note_off_c, 0, 71, 0
2, 73080, Note_on_c, 0, 73, 88
2, 73139, Note_off_c, 0, 73, 0
2, 73140, Note_on_c, 0, 75, 88
2, 73199, Note_off_c, 0, 75, 0
2, 73200, Note_on_c, 0, 76, 88
2, 73259, Note_off_c, 0, 76, 0
2, 73260, Note_on_c, 0, 71, 88
2, 73319, Note_off_c, 0, 71, 0
2, 73320, Note_on_c, 0, 69, 88
2, 73379, Note_off_c, 0, 69, 0
2, 73380, Note_on_c, 0, 68, 88
2, 73439, Note_off_c, 0, 68, 0
2, 73440, Note_on_c, 0, 67, 88
2, 73499, Note_off_c, 0, 67, 0
2, 73500, Note_on_c, 0, 68, 88
2, 73559, Note_off_c, 0, 68, 0
2, 73560, Note_on_c, 0, 70, 88
2, 73619, Note_off_c, 0, 70, 0
2, 73620, Note_on_c, 0, 64, 88
2, 73679, Note_off_c, 0, 64, 0
2, 73680, Note_on_c, 0, 63, 88
2, 73739, Note_off_c, 0, 63, 0
2, 73740, Note_on_c, 0, 61, 88
2, 73799, Note_off_c, 0, 61, 0
2, 73800, Note_on_c, 0, 59, 88
2, 73859, Note_off_c, 0, 59, 0
2, 73860, Note_on_c, 0, 58, 88
2, 73919, Note_off_c, 0, 58, 0
2, 73920, Note_on_c, 0, 59, 88
2, 73979, Note_off_c, 0, 59, 0
2, 73980, Note_on_c, 0, 68, 88
2, 74039, Note_off_c, 0, 68, 0
2, 74040, Note_on_c, 0, 59, 88
2, 74099, Note_off_c, 0, 59, 0
2, 74100, Note_on_c, 0, 68, 88
2, 74159, Note_off_c, 0, 68, 0
2, 74160, Note_on_c, 0, 60, 88
2, 74219, Note_off_c, 0, 60, 0
2, 74220, Note_on_c, 0, 69, 88
2, 74279, Note_off_c, 0, 69, 0
2, 74280, Note_on_c, 0, 60, 88
2, 74339, Note_off_c, 0, 60, 0
2, 74340, Note_on_c, 0, 69, 88
2, 74399, Note_off_c, 0, 69, 0
2, 74400, Note_on_c, 0, 68, 88
2, 74459, Note_off_c, 0, 68, 0
2, 74460, Note_on_c, 0, 64, 88
2, 74519, Note_off_c, 0, 64, 0
2, 74520, Note_on_c, 0, 63, 88
2, 74579, Note_off_c, 0, 63, 0
2, 74580, Note_on_c, 0, 61, 88
2, 74639, Note_off_c, 0, 61, 0
2, 74640, Note_on_c, 0, 60, 88
2, 74699, Note_off_c, 0, 60, 0
2, 74700, Note_on_c, 0, 69, 88
2, 74759, Note_off_c, 0, 69, 0
2, 74760, Note_on_c, 0, 68, 88
2, 74819, Note_off_c, 0, 68, 0
2, 74820, Note_on_c, 0, 66, 88
2, 74879, Note_off_c, 0, 66, 0
2, 74880, Note_on_c, 0, 65, 88
2, 74939, Note_off_c, 0, 65, 0
2, 74940, Note_on_c, 0, 66, 88
2, 74999, Note_off_c, 0, 66, 0
2, 75000, Note_on_c, 0, 68, 88
2, 75059, Note_off_c, 0, 68, 0
2, 75060, Note_on_c, 0, 70, 88
2, 75119, Note_off_c, 0, 70, 0
2, 75120, Note_on_c, 0, 71, 88
2, 75179, Note_off_c, 0, 71, 0
2, 75180, Note_on_c, 0, 74, 88
2, 75239, Note_off_c, 0, 74, 0
2, 75240, Note_on_c, 0, 73, 88
2, 75299, Note_off_c, 0, 73, 0
2, 75300, Note_on_c, 0, 71, 88
2, 75359, Note_off_c, 0, 71, 0
2, 75360, Note_on_c, 0, 70, 88
2, 75419, Note_off_c, 0, 70, 0
2, 75420, Note_on_c, 0, 71, 88
2, 75479, Note_off_c, 0, 71, 0
2, 75480, Note_on_c, 0, 73, 88
2, 75539, Note_off_c, 0, 73, 0
2, 75540, Note_on_c, 0, 68, 88
2, 75599, Note_off_c, 0, 68, 0
2, 75600, Note_on_c, 0, 66, 88
2, 75659, Note_off_c, 0, 66, 0
2, 75660, Note_on_c, 0, 64, 88
2, 75719, Note_off_c, 0, 64, 0
2, 75720, Note_on_c, 0, 63, 88
2, 75779, Note_off_c, 0, 63, 0
2, 75780, Note_on_c, 0, 61, 88
2, 75839, Note_off_c, 0, 61, 0
2, 75840, Note_on_c, 0, 63, 88
2, 75899, Note_off_c, 0, 63, 0
2, 75900, Note_on_c, 0, 64, 88
2, 75959, Note_off_c, 0, 64, 0
2, 75960, Note_on_c, 0, 66, 88
2, 76019, Note_off_c, 0, 66, 0
2, 76020, Note_on_c, 0, 68, 88
2, 76079, Note_off_c, 0, 68, 0
2, 76080, Note_on_c, 0, 69, 88
2, 76139, Note_off_c, 0, 69, 0
2, 76140, Note_on_c, 0, 73, 88
2, 76199, Note_off_c, 0, 73, 0
2, 76200, Note_on_c, 0, 71, 88
2, 76259, Note_off_c, 0, 71, 0
2, 76260, Note_on_c, 0, 69, 88
2, 76319, Note_off_c, 0, 69, 0
2, 76320, Note_on_c, 0, 68, 88
2, 76379, Note_off_c, 0, 68, 0
2, 76380, Note_on_c, 0, 69, 88
2, 76439, Note_off_c, 0, 69, 0
2, 76440, Note_on_c, 0, 71, 88
2, 76499, Note_off_c, 0, 71, 0
2, 76500, Note_on_c, 0, 66, 88
2, 76559, Note_off_c, 0, 66, 0
2, 76560, Note_on_c, 0, 64, 88
2, 76619, Note_off_c, 0, 64, 0
2, 76620, Note_on_c, 0, 62, 88
2, 76679, Note_off_c, 0, 62, 0
2, 76680, Note_on_c, 0, 61, 88
2, 76739, Note_off_c, 0, 61, 0
2, 76740, Note_on_c, 0, 59, 88
2, 76799, Note_off_c, 0, 59, 0
2, 76800, Note_on_c, 0, 61, 88
2, 76919, Note_off_c, 0, 61, 0
2, 76920, Note_on_c, 0, 69, 88
2, 77039, Note_off_c, 0, 69, 0
2, 77040, Note_on_c, 0, 69, 88
2, 77159, Note_off_c, 0, 69, 0
2, 77160, Note_on_c, 0, 71, 88
2, 77399, Note_off_c, 0, 71, 0
2, 77400, Note_on_c, 0, 69, 88
2, 77519, Note_off_c, 0, 69, 0
2, 77520, Note_on_c, 0, 68, 88
2, 77879, Note_off_c, 0, 68, 0
2, 77880, Note_on_c, 0, 66, 88
2, 77939, Note_off_c, 0, 66, 0
2, 77940, Note_on_c, 0, 68, 88
2, 77999, Note_off_c, 0, 68, 0
2, 78000, Note_on_c, 0, 69, 88
2, 78119, Note_off_c, 0, 69, 0
2, 78120, Note_on_c, 0, 73, 88
2, 78359, Note_off_c, 0, 73, 0
2, 78360, Note_on_c, 0, 76, 88
2, 78479, Note_off_c, 0, 76, 0
2, 78480, Note_on_c, 0, 75, 88
2, 78599, Note_off_c, 0, 75, 0
2, 78600, Note_on_c, 0, 73, 88
2, 78839, Note_off_c, 0, 73, 0
2, 78840, Note_on_c, 0, 71, 88
2, 78899, Note_off_c, 0, 71, 0
2, 78900, Note_on_c, 0, 70, 88
2, 78959, Note_off_c, 0, 70, 0
2, 78960, Note_on_c, 0, 71, 88
2, 79079, Note_off_c, 0, 71, 0
2, 79080, Note_on_c, 0, 75, 88
2, 79319, Note_off_c, 0, 75, 0
2, 79320, Note_on_c, 0, 78, 88
2, 79439, Note_off_c, 0, 78, 0
2, 79440, Note_on_c, 0, 77, 88
2, 79559, Note_off_c, 0, 77, 0
2, 79560, Note_on_c, 0, 75, 88
2, 79679, Note_off_c, 0, 75, 0
2, 79680, Note_on_c, 0, 65, 88
2, 79739, Note_off_c, 0, 65, 0
2, 79740, Note_on_c, 0, 71, 88
2, 79799, Note_off_c, 0, 71, 0
2, 79800, Note_on_c, 0, 70, 88
2, 79859, Note_off_c, 0, 70, 0
2, 79860, Note_on_c, 0, 68, 88
2, 79919, Note_off_c, 0, 68, 0
2, 79920, Note_on_c, 0, 77, 88
2, 79979, Note_off_c, 0, 77, 0
2, 79980, Note_on_c, 0, 68, 88
2, 80039, Note_off_c, 0, 68, 0
2, 80040, Note_on_c, 0, 77, 88
2, 80099, Note_off_c, 0, 77, 0
2, 80100, Note_on_c, 0, 68, 88
2, 80159, Note_off_c, 0, 68, 0
2, 80160, Note_on_c, 0, 67, 88
2, 80219, Note_off_c, 0, 67, 0
2, 80220, Note_on_c, 0, 76, 88
2, 80279, Note_off_c, 0, 76, 0
2, 80280, Note_on_c, 0, 75, 88
2, 80339, Note_off_c, 0, 75, 0
2, 80340, Note_on_c, 0, 73, 88
2, 80399, Note_off_c, 0, 73, 0
2, 80400, Note_on_c, 0, 82, 88
2, 80459, Note_off_c, 0, 82, 0
2, 80460, Note_on_c, 0, 73, 88
2, 80519, Note_off_c, 0, 73, 0
2, 80520, Note_on_c, 0, 82, 88
2, 80579, Note_off_c, 0, 82, 0
2, 80580, Note_on_c, 0, 73, 88
2, 80639, Note_off_c, 0, 73, 0
2, 80640, Note_on_c, 0, 72, 88
2, 80699, Note_off_c, 0, 72, 0
2, 80700, Note_on_c, 0, 69, 88
2, 80759, Note_off_c, 0, 69, 0
2, 80760, Note_on_c, 0, 68, 88
2, 80819, Note_off_c, 0, 68, 0
2, 80820, Note_on_c, 0, 66, 88
2, 80879, Note_off_c, 0, 66, 0
2, 80880, Note_on_c, 0, 75, 88
2, 80939, Note_off_c, 0, 75, 0
2, 80940, Note_on_c, 0, 66, 88
2, 80999, Note_off_c, 0, 66, 0
2, 81000, Note_on_c, 0, 75, 88
2, 81059, Note_off_c, 0, 75, 0
2, 81060, Note_on_c, 0, 66, 88
2, 81119, Note_off_c, 0, 66, 0
2, 81120, Note_on_c, 0, 65, 88
2, 81179, Note_off_c, 0, 65, 0
2, 81180, Note_on_c, 0, 74, 88
2, 81239, Note_off_c, 0, 74, 0
2, 81240, Note_on_c, 0, 73, 88
2, 81299, Note_off_c, 0, 73, 0
2, 81300, Note_on_c, 0, 71, 88
2, 81359, Note_off_c, 0, 71, 0
2, 81360, Note_on_c, 0, 80, 88
2, 81419, Note_off_c, 0, 80, 0
2, 81420, Note_on_c, 0, 71, 88
2, 81479, Note_off_c, 0, 71, 0
2, 81480, Note_on_c, 0, 80, 88
2, 81539, Note_off_c, 0, 80, 0
2, 81540, Note_on_c, 0, 71, 88
2, 81599, Note_off_c, 0, 71, 0
2, 81600, Note_on_c, 0, 70, 88
2, 81659, Note_off_c, 0, 70, 0
2, 81660, Note_on_c, 0, 73, 88
2, 81719, Note_off_c, 0, 73, 0
2, 81720, Note_on_c, 0, 75, 88
2, 81779, Note_off_c, 0, 75, 0
2, 81780, Note_on_c, 0, 77, 88
2, 81839, Note_off_c, 0, 77, 0
2, 81840, Note_on_c, 0, 78, 88
2, 81959, Note_off_c, 0, 78, 0
2, 81960, Note_on_c, 0, 70, 88
2, 82079, Note_off_c, 0, 70, 0
2, 82080, Note_on_c, 0, 69, 88
2, 82199, Note_off_c, 0, 69, 0
2, 82200, Note_on_c, 0, 78, 88
2, 82319, Note_off_c, 0, 78, 0
2, 82320, Note_on_c, 0, 77, 88
2, 82439, Note_off_c, 0, 77, 0
2, 82440, Note_on_c, 0, 68, 88
2, 82559, Note_off_c, 0, 68, 0
2, 82560, Note_on_c, 0, 67, 88
2, 82619, Note_off_c, 0, 67, 0
2, 82620, Note_on_c, 0, 70, 88
2, 82679, Note_off_c, 0, 70, 0
2, 82680, Note_on_c, 0, 72, 88
2, 82739, Note_off_c, 0, 72, 0
2, 82740, Note_on_c, 0, 74, 88
2, 82799, Note_off_c, 0, 74, 0
2, 82800, Note_on_c, 0, 75, 88
2, 82919, Note_off_c, 0, 75, 0
2, 82920, Note_on_c, 0, 66, 88
2, 83039, Note_off_c, 0, 66, 0
2, 83040, Note_on_c, 0, 65, 88
2, 83159, Note_off_c, 0, 65, 0
2, 83160, Note_on_c, 0, 74, 88
2, 83279, Note_off_c, 0, 74, 0
2, 83280, Note_on_c, 0, 73, 88
2, 83399, Note_off_c, 0, 73, 0
2, 83400, Note_on_c, 0, 64, 88
2, 83519, Note_off_c, 0, 64, 0
2, 83520, Note_on_c, 0, 63, 88
2, 83579, Note_off_c, 0, 63, 0
2, 83580, Note_on_c, 0, 67, 88
2, 83639, Note_off_c, 0, 67, 0
2, 83640, Note_on_c, 0, 68, 88
2, 83699, Note_off_c, 0, 68, 0
2, 83700, Note_on_c, 0, 70, 88
2, 83759, Note_off_c, 0, 70, 0
2, 83760, Note_on_c, 0, 71, 88
2, 83879, Note_off_c, 0, 71, 0
2, 83880, Note_on_c, 0, 63, 88
2, 83999, Note_off_c, 0, 63, 0
2, 84000, Note_on_c, 0, 62, 88
2, 84119, Note_off_c, 0, 62, 0
2, 84120, Note_on_c, 0, 71, 88
2, 84239, Note_off_c, 0, 71, 0
2, 84240, Note_on_c, 0, 70, 88
2, 84359, Note_off_c, 0, 70, 0
2, 84360, Note_on_c, 0, 61, 88
2, 84479, Note_off_c, 0, 61, 0
2, 84480, Note_on_c, 0, 60, 88
2, 84599, Note_off_c, 0, 60, 0
2, 84600, Note_on_c, 0, 69, 88
2, 84719, Note_off_c, 0, 69, 0
2, 84720, Note_on_c, 0, 68, 88
2, 84839, Note_off_c, 0, 68, 0
2, 84840, Note_on_c, 0, 59, 88
2, 84959, Note_off_c, 0, 59, 0
2, 84960, Note_on_c, 0, 58, 88
2, 85079, Note_off_c, 0, 58, 0
2, 85080, Note_on_c, 0, 68, 88
2, 85199, Note_off_c, 0, 68, 0
2, 85200, Note_on_c, 0, 67, 88
2, 85319, Note_off_c, 0, 67, 0
2, 85320, Note_on_c, 0, 57, 88
2, 85439, Note_off_c, 0, 57, 0
2, 85440, Note_on_c, 0, 56, 88
2, 85559, Note_off_c, 0, 56, 0
2, 85560, Note_on_c, 0, 66, 88
2, 85679, Note_off_c, 0, 66, 0
2, 85680, Note_on_c, 0, 65, 88
2, 85799, Note_off_c, 0, 65, 0
2, 85800, Note_on_c, 0, 64, 88
2, 85919, Note_off_c, 0, 64, 0
2, 85920, Note_on_c, 0, 64, 88
2, 86039, Note_off_c, 0, 64, 0
2, 86040, Note_on_c, 0, 63, 88
2, 86399, Note_off_c, 0, 63, 0
2, 86400, Note_on_c, 0, 68, 88
2, 86459, Note_off_c, 0, 68, 0
2, 86460, Note_on_c, 0, 70, 88
2, 86519, Note_off_c, 0, 70, 0
2, 86520, Note_on_c, 0, 71, 88
2, 86579, Note_off_c, 0, 71, 0
2, 86580, Note_on_c, 0, 73, 88
2, 86639, Note_off_c, 0, 73, 0
2, 86640, Note_on_c, 0, 75, 88
2, 86699, Note_off_c, 0, 75, 0
2, 86700, Note_on_c, 0, 71, 88
2, 86759, Note_off_c, 0, 71, 0
2, 86760, Note_on_c, 0, 70, 88
2, 86819, Note_off_c, 0, 70, 0
2, 86820, Note_on_c, 0, 68, 88
2, 86879, Note_off_c, 0, 68, 0
2, 86880, Note_on_c, 0, 67, 88
2, 86939, Note_off_c, 0, 67, 0
2, 86940, Note_on_c, 0, 68, 88
2, 86999, Note_off_c, 0, 68, 0
2, 87000, Note_on_c, 0, 70, 88
2, 87059, Note_off_c, 0, 70, 0
2, 87060, Note_on_c, 0, 64, 88
2, 87119, Note_off_c, 0, 64, 0
2, 87120, Note_on_c, 0, 63, 88
2, 87479, Note_off_c, 0, 63, 0
2, 87480, Note_on_c, 0, 80, 88
2, 87599, Note_off_c, 0, 80, 0
2, 87600, Note_on_c, 0, 80, 88
2, 87719, Note_off_c, 0, 80, 0
2, 87720, Note_on_c, 0, 82, 88
2, 87959, Note_off_c, 0, 82, 0
2, 87960, Note_on_c, 0, 80, 88
2, 88079, Note_off_c, 0, 80, 0
2, 88080, Note_on_c, 0, 80, 88
2, 88199, Note_off_c, 0, 80, 0
2, 88200, Note_on_c, 0, 79, 88
2, 88379, Note_off_c, 0, 79, 0
2, 88380, Note_on_c, 0, 67, 88
2, 88439, Note_off_c, 0, 67, 0
2, 88440, Note_on_c, 0, 68, 88
2, 88499, Note_off_c, 0, 68, 0
2, 88500, Note_on_c, 0, 70, 88
2, 88559, Note_off_c, 0, 70, 0
2, 88560, Note_on_c, 0, 71, 88
2, 88589, Note_off_c, 0, 71, 0
2, 88590, Note_on_c, 0, 70, 88
2, 88619, Note_off_c, 0, 70, 0
2, 88620, Note_on_c, 0, 68, 88
2, 88679, Note_off_c, 0, 68, 0
2, 88680, Note_on_c, 0, 76, 88
2, 88799, Note_off_c, 0, 76, 0
2, 88800, Note_on_c, 0, 76, 88
2, 88919, Note_off_c, 0, 76, 0
2, 88920, Note_on_c, 0, 75, 88
2, 89399, Note_off_c, 0, 75, 0
2, 89400, Note_on_c, 0, 71, 88
2, 89519, Note_off_c, 0, 71, 0
2, 89520, Note_on_c, 0, 73, 88
2, 89639, Note_off_c, 0, 73, 0
2, 89640, Note_on_c, 0, 72, 88
2, 89879, Note_off_c, 0, 72, 0
2, 89880, Note_on_c, 0, 73, 88
2, 89999, Note_off_c, 0, 73, 0
2, 90000, Note_on_c, 0, 78, 88
2, 90119, Note_off_c, 0, 78, 0
2, 90120, Note_on_c, 0, 75, 88
2, 90359, Note_off_c, 0, 75, 0
2, 90360, Note_on_c, 0, 76, 88
2, 90479, Note_off_c, 0, 76, 0
2, 90480, Note_on_c, 0, 78, 88
2, 90599, Note_off_c, 0, 78, 0
2, 90600, Note_on_c, 0, 77, 88
2, 90839, Note_off_c, 0, 77, 0
2, 90840, Note_on_c, 0, 82, 88
2, 90959, Note_off_c, 0, 82, 0
2, 90960, Note_on_c, 0, 82, 88
2, 91079, Note_off_c, 0, 82, 0
2, 91080, Note_on_c, 0, 82, 88
2, 91199, Note_off_c, 0, 82, 0
2, 91200, Note_on_c, 0, 82, 88
2, 91499, Note_off_c, 0, 82, 0
2, 91500, Note_on_c, 0, 76, 88
2, 91559, Note_off_c, 0, 76, 0
2, 91560, Note_on_c, 0, 75, 88
2, 91619, Note_off_c, 0, 75, 0
2, 91620, Note_on_c, 0, 73, 88
2, 91679, Note_off_c, 0, 73, 0
2, 91680, Note_on_c, 0, 71, 88
2, 91739, Note_off_c, 0, 71, 0
2, 91740, Note_on_c, 0, 73, 88
2, 91799, Note_off_c, 0, 73, 0
2, 91800, Note_on_c, 0, 75, 88
2, 91859, Note_off_c, 0, 75, 0
2, 91860, Note_on_c, 0, 68, 88
2, 91919, Note_off_c, 0, 68, 0
2, 91920, Note_on_c, 0, 71, 88
2, 91979, Note_off_c, 0, 71, 0
2, 91980, Note_on_c, 0, 70, 88
2, 92039, Note_off_c, 0, 70, 0
2, 92040, Note_on_c, 0, 68, 88
2, 92099, Note_off_c, 0, 68, 0
2, 92100, Note_on_c, 0, 67, 88
2, 92159, Note_off_c, 0, 67, 0
2, 92160, Note_on_c, 0, 68, 88
2, 92219, Note_off_c, 0, 68, 0
2, 92220, Note_on_c, 0, 71, 88
2, 92279, Note_off_c, 0, 71, 0
2, 92280, Note_on_c, 0, 68, 88
2, 92339, Note_off_c, 0, 68, 0
2, 92340, Note_on_c, 0, 71, 88
2, 92399, Note_off_c, 0, 71, 0
2, 92400, Note_on_c, 0, 66, 88
2, 92459, Note_off_c, 0, 66, 0
2, 92460, Note_on_c, 0, 75, 88
2, 92519, Note_off_c, 0, 75, 0
2, 92520, Note_on_c, 0, 66, 88
2, 92579, Note_off_c, 0, 66, 0
2, 92580, Note_on_c, 0, 75, 88
2, 92639, Note_off_c, 0, 75, 0
2, 92640, Note_on_c, 0, 65, 88
2, 92699, Note_off_c, 0, 65, 0
2, 92700, Note_on_c, 0, 73, 88
2, 92759, Note_off_c, 0, 73, 0
2, 92760, Note_on_c, 0, 65, 88
2, 92819, Note_off_c, 0, 65, 0
2, 92820, Note_on_c, 0, 73, 88
2, 92879, Note_off_c, 0, 73, 0
2, 92880, Note_on_c, 0, 61, 88
2, 92939, Note_off_c, 0, 61, 0
2, 92940, Note_on_c, 0, 71, 88
2, 92999, Note_off_c, 0, 71, 0
2, 93000, Note_on_c, 0, 61, 88
2, 93059, Note_off_c, 0, 61, 0
2, 93060, Note_on_c, 0, 71, 88
2, 93119, Note_off_c, 0, 71, 0
2, 93120, Note_on_c, 0, 66, 88
2, 93179, Note_off_c, 0, 66, 0
2, 93180, Note_on_c, 0, 70, 88
2, 93239, Note_off_c, 0, 70, 0
2, 93240, Note_on_c, 0, 66, 88
2, 93299, Note_off_c, 0, 66, 0
2, 93300, Note_on_c, 0, 70, 88
2, 93359, Note_off_c, 0, 70, 0
2, 93360, Note_on_c, 0, 64, 88
2, 93419, Note_off_c, 0, 64, 0
2, 93420, Note_on_c, 0, 73, 88
2, 93479, Note_off_c, 0, 73, 0
2, 93480, Note_on_c, 0, 64, 88
2, 93539, Note_off_c, 0, 64, 0
2, 93540, Note_on_c, 0, 73, 88
2, 93599, Note_off_c, 0, 73, 0
2, 93600, Note_on_c, 0, 63, 88
2, 93659, Note_off_c, 0, 63, 0
2, 93660, Note_on_c, 0, 71, 88
2, 93719, Note_off_c, 0, 71, 0
2, 93720, Note_on_c, 0, 63, 88
2, 93779, Note_off_c, 0, 63, 0
2, 93780, Note_on_c, 0, 71, 88
2, 93839, Note_off_c, 0, 71, 0
2, 93840, Note_on_c, 0, 59, 88
2, 93899, Note_off_c, 0, 59, 0
2, 93900, Note_on_c, 0, 70, 88
2, 93959, Note_off_c, 0, 70, 0
2, 93960, Note_on_c, 0, 59, 88
2, 94019, Note_off_c, 0, 59, 0
2, 94020, Note_on_c, 0, 70, 88
2, 94079, Note_off_c, 0, 70, 0
2, 94080, Note_on_c, 0, 64, 88
2, 94139, Note_off_c, 0, 64, 0
2, 94140, Note_on_c, 0, 68, 88
2, 94199, Note_off_c, 0, 68, 0
2, 94200, Note_on_c, 0, 64, 88
2, 94259, Note_off_c, 0, 64, 0
2, 94260, Note_on_c, 0, 68, 88
2, 94319, Note_off_c, 0, 68, 0
2, 94320, Note_on_c, 0, 63, 88
2, 94379, Note_off_c, 0, 63, 0
2, 94380, Note_on_c, 0, 71, 88
2, 94439, Note_off_c, 0, 71, 0
2, 94440, Note_on_c, 0, 63, 88
2, 94499, Note_off_c, 0, 63, 0
2, 94500, Note_on_c, 0, 71, 88
2, 94559, Note_off_c, 0, 71, 0
2, 94560, Note_on_c, 0, 62, 88
2, 94619, Note_off_c, 0, 62, 0
2, 94620, Note_on_c, 0, 70, 88
2, 94679, Note_off_c, 0, 70, 0
2, 94680, Note_on_c, 0, 62, 88
2, 94739, Note_off_c, 0, 62, 0
2, 94740, Note_on_c, 0, 70, 88
2, 94799, Note_off_c, 0, 70, 0
2, 94800, Note_on_c, 0, 58, 88
2, 94859, Note_off_c, 0, 58, 0
2, 94860, Note_on_c, 0, 68, 88
2, 94919, Note_off_c, 0, 68, 0
2, 94920, Note_on_c, 0, 58, 88
2, 94979, Note_off_c, 0, 58, 0
2, 94980, Note_on_c, 0, 68, 88
2, 95039, Note_off_c, 0, 68, 0
2, 95040, Note_on_c, 0, 67, 88
2, 95099, Note_off_c, 0, 67, 0
2, 95100, Note_on_c, 0, 63, 88
2, 95159, Note_off_c, 0, 63, 0
2, 95160, Note_on_c, 0, 68, 88
2, 95219, Note_off_c, 0, 68, 0
2, 95220, Note_on_c, 0, 70, 88
2, 95279, Note_off_c, 0, 70, 0
2, 95280, Note_on_c, 0, 71, 88
2, 95399, Note_off_c, 0, 71, 0
2, 95400, Note_on_c, 0, 70, 88
2, 95639, Note_off_c, 0, 70, 0
2, 95640, Note_on_c, 0, 68, 88
2, 95680, Note_off_c, 0, 68, 0
2, 95680, End_track
0, 0, End_of_file