0, 0, Header, 1, 2, 240
1, 0, Start_track
1, 0, Time_signature, 4, 2, 24, 8
1, 0, Tempo, 1304347
1, 0, SMPTE_offset, 64, 0, 0, 0, 100
1, 0, End_track
2, 0, Start_track
2, 0, Title_t, "Track 1"
2, 0, Program_c, 0, 6
2, 30, Note_on_c, 0, 72, 88
2, 59, Note_off_c, 0, 72, 0
2, 60, Note_on_c, 0, 74, 88
2, 89, Note_off_c, 0, 74, 0
2, 90, Note_on_c, 0, 76, 88
2, 119, Note_off_c, 0, 76, 0
2, 120, Note_on_c, 0, 77, 88
2, 179, Note_off_c, 0, 77, 0
2, 180, Note_on_c, 0, 72, 88
2, 239, Note_off_c, 0, 72, 0
2, 240, Note_on_c, 0, 71, 88
2, 299, Note_off_c, 0, 71, 0
2, 300, Note_on_c, 0, 75, 88
2, 359, Note_off_c, 0, 75, 0
2, 360, Note_on_c, 0, 76, 88
2, 419, Note_off_c, 0, 76, 0
2, 420, Note_on_c, 0, 70, 88
2, 479, Note_off_c, 0, 70, 0
2, 480, Note_on_c, 0, 69, 88
2, 539, Note_off_c, 0, 69, 0
2, 540, Note_on_c, 0, 73, 88
2, 599, Note_off_c, 0, 73, 0
2, 600, Note_on_c, 0, 74, 88
2, 659, Note_off_c, 0, 74, 0
2, 660, Note_on_c, 0, 68, 88
2, 779, Note_off_c, 0, 68, 0
2, 780, Note_on_c, 0, 69, 88
2, 899, Note_off_c, 0, 69, 0
2, 900, Note_on_c, 0, 71, 88
2, 959, Note_off_c, 0, 71, 0
2, 960, Note_on_c, 0, 64, 88
2, 1079, Note_off_c, 0, 64, 0
2, 1080, Note_on_c, 0, 69, 88
2, 1199, Note_off_c, 0, 69, 0
2, 1200, Note_on_c, 0, 68, 88
2, 1319, Note_off_c, 0, 68, 0
2, 1320, Note_on_c, 0, 67, 88
2, 1439, Note_off_c, 0, 67, 0
2, 1440, Note_on_c, 0, 66, 88
2, 1559, Note_off_c, 0, 66, 0
2, 1560, Note_on_c, 0, 65, 88
2, 1679, Note_off_c, 0, 65, 0
2, 1680, Note_on_c, 0, 64, 88
2, 1799, Note_off_c, 0, 64, 0
2, 1800, Note_on_c, 0, 62, 88
2, 1979, Note_off_c, 0, 62, 0
2, 1980, Note_on_c, 0, 60, 88
2, 2009, Note_off_c, 0, 60, 0
2, 2010, Note_on_c, 0, 59, 88
2, 2039, Note_off_c, 0, 59, 0
2, 2040, Note_on_c, 0, 60, 88
2, 2099, Note_off_c, 0, 60, 0
2, 2100, Note_on_c, 0, 69, 88
2, 2219, Note_off_c, 0, 69, 0
2, 2220, Note_on_c, 0, 68, 88
2, 2279, Note_off_c, 0, 68, 0
2, 2280, Note_on_c, 0, 76, 88
2, 2339, Note_off_c, 0, 76, 0
2, 2340, Note_on_c, 0, 67, 88
2, 2459, Note_off_c, 0, 67, 0
2, 2460, Note_on_c, 0, 65, 88
2, 2489, Note_off_c, 0, 65, 0
2, 2490, Note_on_c, 0, 64, 88
2, 2519, Note_off_c, 0, 64, 0
2, 2520, Note_on_c, 0, 63, 88
2, 2579, Note_off_c, 0, 63, 0
2, 2580, Note_on_c, 0, 71, 88
2, 2699, Note_off_c, 0, 71, 0
2, 2700, Note_on_c, 0, 70, 88
2, 2759, Note_off_c, 0, 70, 0
2, 2760, Note_on_c, 0, 78, 88
2, 2819, Note_off_c, 0, 78, 0
2, 2820, Note_on_c, 0, 69, 88
2, 2909, Note_off_c, 0, 69, 0
2, 2910, Note_on_c, 0, 67, 88
2, 2939, Note_off_c, 0, 67, 0
2, 2940, Note_on_c, 0, 69, 88
2, 2969, Note_off_c, 0, 69, 0
2, 2970, Note_on_c, 0, 71, 88
2, 2999, Note_off_c, 0, 71, 0
2, 3000, Note_on_c, 0, 72, 88
2, 3059, Note_off_c, 0, 72, 0
2, 3060, Note_on_c, 0, 67, 88
2, 3119, Note_off_c, 0, 67, 0
2, 3120, Note_on_c, 0, 66, 88
2, 3179, Note_off_c, 0, 66, 0
2, 3180, Note_on_c, 0, 70, 88
2, 3239, Note_off_c, 0, 70, 0
2, 3240, Note_on_c, 0, 71, 88
2, 3299, Note_off_c, 0, 71, 0
2, 3300, Note_on_c, 0, 65, 88
2, 3359, Note_off_c, 0, 65, 0
2, 3360, Note_on_c, 0, 64, 88
2, 3419, Note_off_c, 0, 64, 0
2, 3420, Note_on_c, 0, 68, 88
2, 3479, Note_off_c, 0, 68, 0
2, 3480, Note_on_c, 0, 69, 88
2, 3539, Note_off_c, 0, 69, 0
2, 3540, Note_on_c, 0, 63, 88
2, 3659, Note_off_c, 0, 63, 0
2, 3660, Note_on_c, 0, 64, 88
2, 3779, Note_off_c, 0, 64, 0
2, 3780, Note_on_c, 0, 66, 88
2, 3839, Note_off_c, 0, 66, 0
2, 3840, Note_on_c, 0, 59, 88
2, 3959, Note_off_c, 0, 59, 0
2, 3960, Note_on_c, 0, 76, 88
2, 4079, Note_off_c, 0, 76, 0
2, 4080, Note_on_c, 0, 75, 88
2, 4199, Note_off_c, 0, 75, 0
2, 4200, Note_on_c, 0, 74, 88
2, 4319, Note_off_c, 0, 74, 0
2, 4320, Note_on_c, 0, 73, 88
2, 4439, Note_off_c, 0, 73, 0
2, 4440, Note_on_c, 0, 72, 88
2, 4559, Note_off_c, 0, 72, 0
2, 4560, Note_on_c, 0, 71, 88
2, 4679, Note_off_c, 0, 71, 0
2, 4680, Note_on_c, 0, 69, 88
2, 4859, Note_off_c, 0, 69, 0
2, 4860, Note_on_c, 0, 67, 88
2, 4889, Note_off_c, 0, 67, 0
2, 4890, Note_on_c, 0, 66, 88
2, 4919, Note_off_c, 0, 66, 0
2, 4920, Note_on_c, 0, 67, 88
2, 4979, Note_off_c, 0, 67, 0
2, 4980, Note_on_c, 0, 76, 88
2, 5099, Note_off_c, 0, 76, 0
2, 5100, Note_on_c, 0, 75, 88
2, 5159, Note_off_c, 0, 75, 0
2, 5160, Note_on_c, 0, 83, 88
2, 5219, Note_off_c, 0, 83, 0
2, 5220, Note_on_c, 0, 74, 88
2, 5339, Note_off_c, 0, 74, 0
2, 5340, Note_on_c, 0, 72, 88
2, 5369, Note_off_c, 0, 72, 0
2, 5370, Note_on_c, 0, 71, 88
2, 5399, Note_off_c, 0, 71, 0
2, 5400, Note_on_c, 0, 72, 88
2, 5459, Note_off_c, 0, 72, 0
2, 5460, Note_on_c, 0, 69, 88
2, 5519, Note_off_c, 0, 69, 0
2, 5520, Note_on_c, 0, 71, 88
2, 5639, Note_off_c, 0, 71, 0
2, 5640, Note_on_c, 0, 73, 88
2, 5759, Note_off_c, 0, 73, 0
2, 5760, Note_on_c, 0, 74, 88
2, 5819, Note_off_c, 0, 74, 0
2, 5820, Note_on_c, 0, 62, 88
2, 5879, Note_off_c, 0, 62, 0
2, 5880, Note_on_c, 0, 74, 88
2, 6059, Note_off_c, 0, 74, 0
2, 6060, Note_on_c, 0, 73, 88
2, 6119, Note_off_c, 0, 73, 0
2, 6120, Note_on_c, 0, 81, 88
2, 6179, Note_off_c, 0, 81, 0
2, 6180, Note_on_c, 0, 72, 88
2, 6299, Note_off_c, 0, 72, 0
2, 6300, Note_on_c, 0, 71, 88
2, 6329, Note_off_c, 0, 71, 0
2, 6330, Note_on_c, 0, 69, 88
2, 6359, Note_off_c, 0, 69, 0
2, 6360, Note_on_c, 0, 71, 88
2, 6419, Note_off_c, 0, 71, 0
2, 6420, Note_on_c, 0, 67, 88
2, 6479, Note_off_c, 0, 67, 0
2, 6480, Note_on_c, 0, 69, 88
2, 6599, Note_off_c, 0, 69, 0
2, 6600, Note_on_c, 0, 71, 88
2, 6719, Note_off_c, 0, 71, 0
2, 6720, Note_on_c, 0, 72, 88
2, 6839, Note_off_c, 0, 72, 0
2, 6840, Note_on_c, 0, 84, 88
2, 6959, Note_off_c, 0, 84, 0
2, 6960, Note_on_c, 0, 83, 88
2, 7079, Note_off_c, 0, 83, 0
2, 7080, Note_on_c, 0, 82, 88
2, 7199, Note_off_c, 0, 82, 0
2, 7200, Note_on_c, 0, 81, 88
2, 7319, Note_off_c, 0, 81, 0
2, 7320, Note_on_c, 0, 80, 88
2, 7439, Note_off_c, 0, 80, 0
2, 7440, Note_on_c, 0, 79, 88
2, 7559, Note_off_c, 0, 79, 0
2, 7560, Note_on_c, 0, 77, 88
2, 7709, Note_off_c, 0, 77, 0
2, 7710, Note_on_c, 0, 71, 88
2, 7739, Note_off_c, 0, 71, 0
2, 7740, Note_on_c, 0, 72, 88
2, 7769, Note_off_c, 0, 72, 0
2, 7770, Note_on_c, 0, 74, 88
2, 7799, Note_off_c, 0, 74, 0
2, 7800, Note_on_c, 0, 76, 88
2, 7859, Note_off_c, 0, 76, 0
2, 7860, Note_on_c, 0, 71, 88
2, 7919, Note_off_c, 0, 71, 0
2, 7920, Note_on_c, 0, 70, 88
2, 7979, Note_off_c, 0, 70, 0
2, 7980, Note_on_c, 0, 73, 88
2, 8039, Note_off_c, 0, 73, 0
2, 8040, Note_on_c, 0, 74, 88
2, 8099, Note_off_c, 0, 74, 0
2, 8100, Note_on_c, 0, 69, 88
2, 8159, Note_off_c, 0, 69, 0
2, 8160, Note_on_c, 0, 68, 88
2, 8219, Note_off_c, 0, 68, 0
2, 8220, Note_on_c, 0, 71, 88
2, 8279, Note_off_c, 0, 71, 0
2, 8280, Note_on_c, 0, 72, 88
2, 8339, Note_off_c, 0, 72, 0
2, 8340, Note_on_c, 0, 67, 88
2, 8459, Note_off_c, 0, 67, 0
2, 8460, Note_on_c, 0, 66, 88
2, 8579, Note_off_c, 0, 66, 0
2, 8580, Note_on_c, 0, 67, 88
2, 8609, Note_off_c, 0, 67, 0
2, 8610, Note_on_c, 0, 69, 88
2, 8639, Note_off_c, 0, 69, 0
2, 8640, Note_on_c, 0, 62, 88
2, 8759, Note_off_c, 0, 62, 0
2, 8760, Note_on_c, 0, 67, 88
2, 8879, Note_off_c, 0, 67, 0
2, 8880, Note_on_c, 0, 69, 88
2, 8999, Note_off_c, 0, 69, 0
2, 9000, Note_on_c, 0, 71, 88
2, 9119, Note_off_c, 0, 71, 0
2, 9120, Note_on_c, 0, 72, 88
2, 9239, Note_off_c, 0, 72, 0
2, 9240, Note_on_c, 0, 69, 88
2, 9359, Note_off_c, 0, 69, 0
2, 9360, Note_on_c, 0, 71, 88
2, 9479, Note_off_c, 0, 71, 0
2, 9480, Note_on_c, 0, 73, 88
2, 9599, Note_off_c, 0, 73, 0
2, 9600, Note_on_c, 0, 74, 88
2, 9719, Note_off_c, 0, 74, 0
2, 9720, Note_on_c, 0, 62, 88
2, 9839, Note_off_c, 0, 62, 0
2, 9840, Note_on_c, 0, 61, 88
2, 9959, Note_off_c, 0, 61, 0
2, 9960, Note_on_c, 0, 60, 88
2, 10079, Note_off_c, 0, 60, 0
2, 10080, Note_on_c, 0, 59, 88
2, 10199, Note_off_c, 0, 59, 0
2, 10200, Note_on_c, 0, 58, 88
2, 10319, Note_off_c, 0, 58, 0
2, 10320, Note_on_c, 0, 57, 88
2, 10439, Note_off_c, 0, 57, 0
2, 10440, Note_on_c, 0, 55, 88
2, 10619, Note_off_c, 0, 55, 0
2, 10620, Note_on_c, 0, 53, 88
2, 10649, Note_off_c, 0, 53, 0
2, 10650, Note_on_c, 0, 52, 88
2, 10679, Note_off_c, 0, 52, 0
2, 10680, Note_on_c, 0, 53, 88
2, 10739, Note_off_c, 0, 53, 0
2, 10740, Note_on_c, 0, 62, 88
2, 10859, Note_off_c, 0, 62, 0
2, 10860, Note_on_c, 0, 61, 88
2, 10919, Note_off_c, 0, 61, 0
2, 10920, Note_on_c, 0, 69, 88
2, 10979, Note_off_c, 0, 69, 0
2, 10980, Note_on_c, 0, 60, 88
2, 11099, Note_off_c, 0, 60, 0
2, 11100, Note_on_c, 0, 59, 88
2, 11129, Note_off_c, 0, 59, 0
2, 11130, Note_on_c, 0, 57, 88
2, 11159, Note_off_c, 0, 57, 0
2, 11160, Note_on_c, 0, 56, 88
2, 11219, Note_off_c, 0, 56, 0
2, 11220, Note_on_c, 0, 64, 88
2, 11339, Note_off_c, 0, 64, 0
2, 11340, Note_on_c, 0, 63, 88
2, 11399, Note_off_c, 0, 63, 0
2, 11400, Note_on_c, 0, 71, 88
2, 11459, Note_off_c, 0, 71, 0
2, 11460, Note_on_c, 0, 62, 88
2, 11549, Note_off_c, 0, 62, 0
2, 11550, Note_on_c, 0, 60, 88
2, 11579, Note_off_c, 0, 60, 0
2, 11580, Note_on_c, 0, 62, 88
2, 11609, Note_off_c, 0, 62, 0
2, 11610, Note_on_c, 0, 64, 88
2, 11639, Note_off_c, 0, 64, 0
2, 11640, Note_on_c, 0, 65, 88
2, 11699, Note_off_c, 0, 65, 0
2, 11700, Note_on_c, 0, 60, 88
2, 11759, Note_off_c, 0, 60, 0
2, 11760, Note_on_c, 0, 59, 88
2, 11819, Note_off_c, 0, 59, 0
2, 11820, Note_on_c, 0, 63, 88
2, 11879, Note_off_c, 0, 63, 0
2, 11880, Note_on_c, 0, 64, 88
2, 11939, Note_off_c, 0, 64, 0
2, 11940, Note_on_c, 0, 58, 88
2, 11999, Note_off_c, 0, 58, 0
2, 12000, Note_on_c, 0, 57, 88
2, 12059, Note_off_c, 0, 57, 0
2, 12060, Note_on_c, 0, 61, 88
2, 12119, Note_off_c, 0, 61, 0
2, 12120, Note_on_c, 0, 62, 88
2, 12179, Note_off_c, 0, 62, 0
2, 12180, Note_on_c, 0, 56, 88
2, 12299, Note_off_c, 0, 56, 0
2, 12300, Note_on_c, 0, 57, 88
2, 12419, Note_off_c, 0, 57, 0
2, 12420, Note_on_c, 0, 59, 88
2, 12479, Note_off_c, 0, 59, 0
2, 12480, Note_on_c, 0, 52, 88
2, 12599, Note_off_c, 0, 52, 0
2, 12600, Note_on_c, 0, 64, 88
2, 12719, Note_off_c, 0, 64, 0
2, 12720, Note_on_c, 0, 66, 88
2, 12839, Note_off_c, 0, 66, 0
2, 12840, Note_on_c, 0, 68, 88
2, 12959, Note_off_c, 0, 68, 0
2, 12960, Note_on_c, 0, 69, 88
2, 13019, Note_off_c, 0, 69, 0
2, 13020, Note_on_c, 0, 57, 88
2, 13079, Note_off_c, 0, 57, 0
2, 13080, Note_on_c, 0, 69, 88
2, 13259, Note_off_c, 0, 69, 0
2, 13260, Note_on_c, 0, 68, 88
2, 13319, Note_off_c, 0, 68, 0
2, 13320, Note_on_c, 0, 76, 88
2, 13379, Note_off_c, 0, 76, 0
2, 13380, Note_on_c, 0, 67, 88
2, 13499, Note_off_c, 0, 67, 0
2, 13500, Note_on_c, 0, 66, 88
2, 13529, Note_off_c, 0, 66, 0
2, 13530, Note_on_c, 0, 64, 88
2, 13559, Note_off_c, 0, 64, 0
2, 13560, Note_on_c, 0, 66, 88
2, 13619, Note_off_c, 0, 66, 0
2, 13620, Note_on_c, 0, 62, 88
2, 13679, Note_off_c, 0, 62, 0
2, 13680, Note_on_c, 0, 64, 88
2, 13799, Note_off_c, 0, 64, 0
2, 13800, Note_on_c, 0, 66, 88
2, 13919, Note_off_c, 0, 66, 0
2, 13920, Note_on_c, 0, 67, 88
2, 13979, Note_off_c, 0, 67, 0
2, 13980, Note_on_c, 0, 55, 88
2, 14039, Note_off_c, 0, 55, 0
2, 14040, Note_on_c, 0, 67, 88
2, 14219, Note_off_c, 0, 67, 0
2, 14220, Note_on_c, 0, 66, 88
2, 14279, Note_off_c, 0, 66, 0
2, 14280, Note_on_c, 0, 74, 88
2, 14339, Note_off_c, 0, 74, 0
2, 14340, Note_on_c, 0, 65, 88
2, 14459, Note_off_c, 0, 65, 0
2, 14460, Note_on_c, 0, 64, 88
2, 14489, Note_off_c, 0, 64, 0
2, 14490, Note_on_c, 0, 62, 88
2, 14519, Note_off_c, 0, 62, 0
2, 14520, Note_on_c, 0, 64, 88
2, 14579, Note_off_c, 0, 64, 0
2, 14580, Note_on_c, 0, 76, 88
2, 14699, Note_off_c, 0, 76, 0
2, 14700, Note_on_c, 0, 77, 88
2, 14729, Note_off_c, 0, 77, 0
2, 14730, Note_on_c, 0, 76, 88
2, 14759, Note_off_c, 0, 76, 0
2, 14760, Note_on_c, 0, 74, 88
2, 14789, Note_off_c, 0, 74, 0
2, 14790, Note_on_c, 0, 72, 88
2, 14819, Note_off_c, 0, 72, 0
2, 14820, Note_on_c, 0, 71, 88
2, 14849, Note_off_c, 0, 71, 0
2, 14850, Note_on_c, 0, 69, 88
2, 14879, Note_off_c, 0, 69, 0
2, 14880, Note_on_c, 0, 68, 88
2, 15389, Note_off_c, 0, 68, 0
2, 15390, Note_on_c, 0, 72, 88
2, 15419, Note_off_c, 0, 72, 0
2, 15420, Note_on_c, 0, 74, 88
2, 15449, Note_off_c, 0, 74, 0
2, 15450, Note_on_c, 0, 76, 88
2, 15479, Note_off_c, 0, 76, 0
2, 15480, Note_on_c, 0, 77, 88
2, 15539, Note_off_c, 0, 77, 0
2, 15540, Note_on_c, 0, 72, 88
2, 15599, Note_off_c, 0, 72, 0
2, 15600, Note_on_c, 0, 71, 88
2, 15659, Note_off_c, 0, 71, 0
2, 15660, Note_on_c, 0, 75, 88
2, 15719, Note_off_c, 0, 75, 0
2, 15720, Note_on_c, 0, 76, 88
2, 15779, Note_off_c, 0, 76, 0
2, 15780, Note_on_c, 0, 70, 88
2, 15839, Note_off_c, 0, 70, 0
2, 15840, Note_on_c, 0, 69, 88
2, 15899, Note_off_c, 0, 69, 0
2, 15900, Note_on_c, 0, 73, 88
2, 15959, Note_off_c, 0, 73, 0
2, 15960, Note_on_c, 0, 74, 88
2, 16019, Note_off_c, 0, 74, 0
2, 16020, Note_on_c, 0, 68, 88
2, 16139, Note_off_c, 0, 68, 0
2, 16140, Note_on_c, 0, 69, 88
2, 16259, Note_off_c, 0, 69, 0
2, 16260, Note_on_c, 0, 71, 88
2, 16319, Note_off_c, 0, 71, 0
2, 16320, Note_on_c, 0, 64, 88
2, 16439, Note_off_c, 0, 64, 0
2, 16440, Note_on_c, 0, 69, 88
2, 16559, Note_off_c, 0, 69, 0
2, 16560, Note_on_c, 0, 68, 88
2, 16679, Note_off_c, 0, 68, 0
2, 16680, Note_on_c, 0, 67, 88
2, 16799, Note_off_c, 0, 67, 0
2, 16800, Note_on_c, 0, 66, 88
2, 16919, Note_off_c, 0, 66, 0
2, 16920, Note_on_c, 0, 65, 88
2, 17039, Note_off_c, 0, 65, 0
2, 17040, Note_on_c, 0, 64, 88
2, 17159, Note_off_c, 0, 64, 0
2, 17160, Note_on_c, 0, 62, 88
2, 17339, Note_off_c, 0, 62, 0
2, 17340, Note_on_c, 0, 60, 88
2, 17369, Note_off_c, 0, 60, 0
2, 17370, Note_on_c, 0, 59, 88
2, 17399, Note_off_c, 0, 59, 0
2, 17400, Note_on_c, 0, 60, 88
2, 17459, Note_off_c, 0, 60, 0
2, 17460, Note_on_c, 0, 69, 88
2, 17579, Note_off_c, 0, 69, 0
2, 17580, Note_on_c, 0, 68, 88
2, 17639, Note_off_c, 0, 68, 0
2, 17640, Note_on_c, 0, 76, 88
2, 17699, Note_off_c, 0, 76, 0
2, 17700, Note_on_c, 0, 67, 88
2, 17819, Note_off_c, 0, 67, 0
2, 17820, Note_on_c, 0, 65, 88
2, 17849, Note_off_c, 0, 65, 0
2, 17850, Note_on_c, 0, 64, 88
2, 17879, Note_off_c, 0, 64, 0
2, 17880, Note_on_c, 0, 63, 88
2, 17939, Note_off_c, 0, 63, 0
2, 17940, Note_on_c, 0, 71, 88
2, 18059, Note_off_c, 0, 71, 0
2, 18060, Note_on_c, 0, 70, 88
2, 18119, Note_off_c, 0, 70, 0
2, 18120, Note_on_c, 0, 78, 88
2, 18179, Note_off_c, 0, 78, 0
2, 18180, Note_on_c, 0, 69, 88
2, 18269, Note_off_c, 0, 69, 0
2, 18270, Note_on_c, 0, 67, 88
2, 18299, Note_off_c, 0, 67, 0
2, 18300, Note_on_c, 0, 69, 88
2, 18329, Note_off_c, 0, 69, 0
2, 18330, Note_on_c, 0, 71, 88
2, 18359, Note_off_c, 0, 71, 0
2, 18360, Note_on_c, 0, 72, 88
2, 18419, Note_off_c, 0, 72, 0
2, 18420, Note_on_c, 0, 67, 88
2, 18479, Note_off_c, 0, 67, 0
2, 18480, Note_on_c, 0, 66, 88
2, 18539, Note_off_c, 0, 66, 0
2, 18540, Note_on_c, 0, 70, 88
2, 18599, Note_off_c, 0, 70, 0
2, 18600, Note_on_c, 0, 71, 88
2, 18659, Note_off_c, 0, 71, 0
2, 18660, Note_on_c, 0, 65, 88
2, 18719, Note_off_c, 0, 65, 0
2, 18720, Note_on_c, 0, 64, 88
2, 18779, Note_off_c, 0, 64, 0
2, 18780, Note_on_c, 0, 68, 88
2, 18839, Note_off_c, 0, 68, 0
2, 18840, Note_on_c, 0, 69, 88
2, 18899, Note_off_c, 0, 69, 0
2, 18900, Note_on_c, 0, 63, 88
2, 19019, Note_off_c, 0, 63, 0
2, 19020, Note_on_c, 0, 64, 88
2, 19139, Note_off_c, 0, 64, 0
2, 19140, Note_on_c, 0, 66, 88
2, 19199, Note_off_c, 0, 66, 0
2, 19200, Note_on_c, 0, 59, 88
2, 19319, Note_off_c, 0, 59, 0
2, 19320, Note_on_c, 0, 76, 88
2, 19439, Note_off_c, 0, 76, 0
2, 19440, Note_on_c, 0, 75, 88
2, 19559, Note_off_c, 0, 75, 0
2, 19560, Note_on_c, 0, 74, 88
2, 19679, Note_off_c, 0, 74, 0
2, 19680, Note_on_c, 0, 73, 88
2, 19799, Note_off_c, 0, 73, 0
2, 19800, Note_on_c, 0, 72, 88
2, 19919, Note_off_c, 0, 72, 0
2, 19920, Note_on_c, 0, 71, 88
2, 20039, Note_off_c, 0, 71, 0
2, 20040, Note_on_c, 0, 69, 88
2, 20219, Note_off_c, 0, 69, 0
2, 20220, Note_on_c, 0, 67, 88
2, 20249, Note_off_c, 0, 67, 0
2, 20250, Note_on_c, 0, 66, 88
2, 20279, Note_off_c, 0, 66, 0
2, 20280, Note_on_c, 0, 67, 88
2, 20339, Note_off_c, 0, 67, 0
2, 20340, Note_on_c, 0, 76, 88
2, 20459, Note_off_c, 0, 76, 0
2, 20460, Note_on_c, 0, 75, 88
2, 20519, Note_off_c, 0, 75, 0
2, 20520, Note_on_c, 0, 83, 88
2, 20579, Note_off_c, 0, 83, 0
2, 20580, Note_on_c, 0, 74, 88
2, 20699, Note_off_c, 0, 74, 0
2, 20700, Note_on_c, 0, 72, 88
2, 20729, Note_off_c, 0, 72, 0
2, 20730, Note_on_c, 0, 71, 88
2, 20759, Note_off_c, 0, 71, 0
2, 20760, Note_on_c, 0, 72, 88
2, 20819, Note_off_c, 0, 72, 0
2, 20820, Note_on_c, 0, 69, 88
2, 20879, Note_off_c, 0, 69, 0
2, 20880, Note_on_c, 0, 71, 88
2, 20999, Note_off_c, 0, 71, 0
2, 21000, Note_on_c, 0, 73, 88
2, 21119, Note_off_c, 0, 73, 0
2, 21120, Note_on_c, 0, 74, 88
2, 21179, Note_off_c, 0, 74, 0
2, 21180, Note_on_c, 0, 62, 88
2, 21239, Note_off_c, 0, 62, 0
2, 21240, Note_on_c, 0, 74, 88
2, 21419, Note_off_c, 0, 74, 0
2, 21420, Note_on_c, 0, 73, 88
2, 21479, Note_off_c, 0, 73, 0
2, 21480, Note_on_c, 0, 81, 88
2, 21539, Note_off_c, 0, 81, 0
2, 21540, Note_on_c, 0, 72, 88
2, 21659, Note_off_c, 0, 72, 0
2, 21660, Note_on_c, 0, 71, 88
2, 21689, Note_off_c, 0, 71, 0
2, 21690, Note_on_c, 0, 69, 88
2, 21719, Note_off_c, 0, 69, 0
2, 21720, Note_on_c, 0, 71, 88
2, 21779, Note_off_c, 0, 71, 0
2, 21780, Note_on_c, 0, 67, 88
2, 21839, Note_off_c, 0, 67, 0
2, 21840, Note_on_c, 0, 69, 88
2, 21959, Note_off_c, 0, 69, 0
2, 21960, Note_on_c, 0, 71, 88
2, 22079, Note_off_c, 0, 71, 0
2, 22080, Note_on_c, 0, 72, 88
2, 22199, Note_off_c, 0, 72, 0
2, 22200, Note_on_c, 0, 84, 88
2, 22319, Note_off_c, 0, 84, 0
2, 22320, Note_on_c, 0, 83, 88
2, 22439, Note_off_c, 0, 83, 0
2, 22440, Note_on_c, 0, 82, 88
2, 22559, Note_off_c, 0, 82, 0
2, 22560, Note_on_c, 0, 81, 88
2, 22679, Note_off_c, 0, 81, 0
2, 22680, Note_on_c, 0, 80, 88
2, 22799, Note_off_c, 0, 80, 0
2, 22800, Note_on_c, 0, 79, 88
2, 22919, Note_off_c, 0, 79, 0
2, 22920, Note_on_c, 0, 77, 88
2, 23069, Note_off_c, 0, 77, 0
2, 23070, Note_on_c, 0, 71, 88
2, 23099, Note_off_c, 0, 71, 0
2, 23100, Note_on_c, 0, 72, 88
2, 23129, Note_off_c, 0, 72, 0
2, 23130, Note_on_c, 0, 74, 88
2, 23159, Note_off_c, 0, 74, 0
2, 23160, Note_on_c, 0, 76, 88
2, 23219, Note_off_c, 0, 76, 0
2, 23220, Note_on_c, 0, 71, 88
2, 23279, Note_off_c, 0, 71, 0
2, 23280, Note_on_c, 0, 70, 88
2, 23339, Note_off_c, 0, 70, 0
2, 23340, Note_on_c, 0, 73, 88
2, 23399, Note_off_c, 0, 73, 0
2, 23400, Note_on_c, 0, 74, 88
2, 23459, Note_off_c, 0, 74, 0
2, 23460, Note_on_c, 0, 69, 88
2, 23519, Note_off_c, 0, 69, 0
2, 23520, Note_on_c, 0, 68, 88
2, 23579, Note_off_c, 0, 68, 0
2, 23580, Note_on_c, 0, 71, 88
2, 23639, Note_off_c, 0, 71, 0
2, 23640, Note_on_c, 0, 72, 88
2, 23699, Note_off_c, 0, 72, 0
2, 23700, Note_on_c, 0, 67, 88
2, 23819, Note_off_c, 0, 67, 0
2, 23820, Note_on_c, 0, 66, 88
2, 23939, Note_off_c, 0, 66, 0
2, 23940, Note_on_c, 0, 67, 88
2, 23969, Note_off_c, 0, 67, 0
2, 23970, Note_on_c, 0, 69, 88
2, 23999, Note_off_c, 0, 69, 0
2, 24000, Note_on_c, 0, 62, 88
2, 24119, Note_off_c, 0, 62, 0
2, 24120, Note_on_c, 0, 67, 88
2, 24239, Note_off_c, 0, 67, 0
2, 24240, Note_on_c, 0, 69, 88
2, 24359, Note_off_c, 0, 69, 0
2, 24360, Note_on_c, 0, 71, 88
2, 24479, Note_off_c, 0, 71, 0
2, 24480, Note_on_c, 0, 72, 88
2, 24599, Note_off_c, 0, 72, 0
2, 24600, Note_on_c, 0, 69, 88
2, 24719, Note_off_c, 0, 69, 0
2, 24720, Note_on_c, 0, 71, 88
2, 24839, Note_off_c, 0, 71, 0
2, 24840, Note_on_c, 0, 73, 88
2, 24959, Note_off_c, 0, 73, 0
2, 24960, Note_on_c, 0, 74, 88
2, 25079, Note_off_c, 0, 74, 0
2, 25080, Note_on_c, 0, 62, 88
2, 25199, Note_off_c, 0, 62, 0
2, 25200, Note_on_c, 0, 61, 88
2, 25319, Note_off_c, 0, 61, 0
2, 25320, Note_on_c, 0, 60, 88
2, 25439, Note_off_c, 0, 60, 0
2, 25440, Note_on_c, 0, 59, 88
2, 25559, Note_off_c, 0, 59, 0
2, 25560, Note_on_c, 0, 58, 88
2, 25679, Note_off_c, 0, 58, 0
2, 25680, Note_on_c, 0, 57, 88
2, 25799, Note_off_c, 0, 57, 0
2, 25800, Note_on_c, 0, 55, 88
2, 25979, Note_off_c, 0, 55, 0
2, 25980, Note_on_c, 0, 53, 88
2, 26009, Note_off_c, 0, 53, 0
2, 26010, Note_on_c, 0, 52, 88
2, 26039, Note_off_c, 0, 52, 0
2, 26040, Note_on_c, 0, 53, 88
2, 26099, Note_off_c, 0, 53, 0
2, 26100, Note_on_c, 0, 62, 88
2, 26219, Note_off_c, 0, 62, 0
2, 26220, Note_on_c, 0, 61, 88
2, 26279, Note_off_c, 0, 61, 0
2, 26280, Note_on_c, 0, 69, 88
2, 26339, Note_off_c, 0, 69, 0
2, 26340, Note_on_c, 0, 60, 88
2, 26459, Note_off_c, 0, 60, 0
2, 26460, Note_on_c, 0, 59, 88
2, 26489, Note_off_c, 0, 59, 0
2, 26490, Note_on_c, 0, 57, 88
2, 26519, Note_off_c, 0, 57, 0
2, 26520, Note_on_c, 0, 56, 88
2, 26579, Note_off_c, 0, 56, 0
2, 26580, Note_on_c, 0, 64, 88
2, 26699, Note_off_c, 0, 64, 0
2, 26700, Note_on_c, 0, 63, 88
2, 26759, Note_off_c, 0, 63, 0
2, 26760, Note_on_c, 0, 71, 88
2, 26819, Note_off_c, 0, 71, 0
2, 26820, Note_on_c, 0, 62, 88
2, 26909, Note_off_c, 0, 62, 0
2, 26910, Note_on_c, 0, 60, 88
2, 26939, Note_off_c, 0, 60, 0
2, 26940, Note_on_c, 0, 62, 88
2, 26969, Note_off_c, 0, 62, 0
2, 26970, Note_on_c, 0, 64, 88
2, 26999, Note_off_c, 0, 64, 0
2, 27000, Note_on_c, 0, 65, 88
2, 27059, Note_off_c, 0, 65, 0
2, 27060, Note_on_c, 0, 60, 88
2, 27119, Note_off_c, 0, 60, 0
2, 27120, Note_on_c, 0, 59, 88
2, 27179, Note_off_c, 0, 59, 0
2, 27180, Note_on_c, 0, 63, 88
2, 27239, Note_off_c, 0, 63, 0
2, 27240, Note_on_c, 0, 64, 88
2, 27299, Note_off_c, 0, 64, 0
2, 27300, Note_on_c, 0, 58, 88
2, 27359, Note_off_c, 0, 58, 0
2, 27360, Note_on_c, 0, 57, 88
2, 27419, Note_off_c, 0, 57, 0
2, 27420, Note_on_c, 0, 61, 88
2, 27479, Note_off_c, 0, 61, 0
2, 27480, Note_on_c, 0, 62, 88
2, 27539, Note_off_c, 0, 62, 0
2, 27540, Note_on_c, 0, 56, 88
2, 27659, Note_off_c, 0, 56, 0
2, 27660, Note_on_c, 0, 57, 88
2, 27779, Note_off_c, 0, 57, 0
2, 27780, Note_on_c, 0, 59, 88
2, 27839, Note_off_c, 0, 59, 0
2, 27840, Note_on_c, 0, 52, 88
2, 27959, Note_off_c, 0, 52, 0
2, 27960, Note_on_c, 0, 64, 88
2, 28079, Note_off_c, 0, 64, 0
2, 28080, Note_on_c, 0, 66, 88
2, 28199, Note_off_c, 0, 66, 0
2, 28200, Note_on_c, 0, 68, 88
2, 28319, Note_off_c, 0, 68, 0
2, 28320, Note_on_c, 0, 69, 88
2, 28379, Note_off_c, 0, 69, 0
2, 28380, Note_on_c, 0, 57, 88
2, 28439, Note_off_c, 0, 57, 0
2, 28440, Note_on_c, 0, 69, 88
2, 28619, Note_off_c, 0, 69, 0
2, 28620, Note_on_c, 0, 68, 88
2, 28679, Note_off_c, 0, 68, 0
2, 28680, Note_on_c, 0, 76, 88
2, 28739, Note_off_c, 0, 76, 0
2, 28740, Note_on_c, 0, 67, 88
2, 28859, Note_off_c, 0, 67, 0
2, 28860, Note_on_c, 0, 66, 88
2, 28889, Note_off_c, 0, 66, 0
2, 28890, Note_on_c, 0, 64, 88
2, 28919, Note_off_c, 0, 64, 0
2, 28920, Note_on_c, 0, 66, 88
2, 28979, Note_off_c, 0, 66, 0
2, 28980, Note_on_c, 0, 62, 88
2, 29039, Note_off_c, 0, 62, 0
2, 29040, Note_on_c, 0, 64, 88
2, 29159, Note_off_c, 0, 64, 0
2, 29160, Note_on_c, 0, 66, 88
2, 29279, Note_off_c, 0, 66, 0
2, 29280, Note_on_c, 0, 67, 88
2, 29339, Note_off_c, 0, 67, 0
2, 29340, Note_on_c, 0, 55, 88
2, 29399, Note_off_c, 0, 55, 0
2, 29400, Note_on_c, 0, 67, 88
2, 29579, Note_off_c, 0, 67, 0
2, 29580, Note_on_c, 0, 66, 88
2, 29639, Note_off_c, 0, 66, 0
2, 29640, Note_on_c, 0, 74, 88
2, 29699, Note_off_c, 0, 74, 0
2, 29700, Note_on_c, 0, 65, 88
2, 29819, Note_off_c, 0, 65, 0
2, 29820, Note_on_c, 0, 64, 88
2, 29849, Note_off_c, 0, 64, 0
2, 29850, Note_on_c, 0, 62, 88
2, 29879, Note_off_c, 0, 62, 0
2, 29880, Note_on_c, 0, 64, 88
2, 29939, Note_off_c, 0, 64, 0
2, 29940, Note_on_c, 0, 76, 88
2, 30059, Note_off_c, 0, 76, 0
2, 30060, Note_on_c, 0, 77, 88
2, 30089, Note_off_c, 0, 77, 0
2, 30090, Note_on_c, 0, 76, 88
2, 30119, Note_off_c, 0, 76, 0
2, 30120, Note_on_c, 0, 74, 88
2, 30149, Note_off_c, 0, 74, 0
2, 30150, Note_on_c, 0, 72, 88
2, 30179, Note_off_c, 0, 72, 0
2, 30180, Note_on_c, 0, 71, 88
2, 30209, Note_off_c, 0, 71, 0
2, 30210, Note_on_c, 0, 69, 88
2, 30239, Note_off_c, 0, 69, 0
2, 30240, Note_on_c, 0, 68, 88
2, 30719, Note_off_c, 0, 68, 0
2, 30720, Note_on_c, 0, 76, 88
2, 30839, Note_off_c, 0, 76, 0
2, 30840, Note_on_c, 0, 64, 88
2, 30959, Note_off_c, 0, 64, 0
2, 30960, Note_on_c, 0, 65, 88
2, 31079, Note_off_c, 0, 65, 0
2, 31080, Note_on_c, 0, 66, 88
2, 31199, Note_off_c, 0, 66, 0
2, 31200, Note_on_c, 0, 67, 88
2, 31319, Note_off_c, 0, 67, 0
2, 31320, Note_on_c, 0, 68, 88
2, 31439, Note_off_c, 0, 68, 0
2, 31440, Note_on_c, 0, 69, 88
2, 31559, Note_off_c, 0, 69, 0
2, 31560, Note_on_c, 0, 71, 88
2, 31679, Note_off_c, 0, 71, 0
2, 31680, Note_on_c, 0, 72, 88
2, 31709, Note_off_c, 0, 72, 0
2, 31710, Note_on_c, 0, 77, 88
2, 31739, Note_off_c, 0, 77, 0
2, 31740, Note_on_c, 0, 76, 88
2, 31769, Note_off_c, 0, 76, 0
2, 31770, Note_on_c, 0, 74, 88
2, 31799, Note_off_c, 0, 74, 0
2, 31800, Note_on_c, 0, 73, 88
2, 31859, Note_off_c, 0, 73, 0
2, 31860, Note_on_c, 0, 78, 88
2, 31919, Note_off_c, 0, 78, 0
2, 31920, Note_on_c, 0, 79, 88
2, 31979, Note_off_c, 0, 79, 0
2, 31980, Note_on_c, 0, 75, 88
2, 32039, Note_off_c, 0, 75, 0
2, 32040, Note_on_c, 0, 74, 88
2, 32099, Note_off_c, 0, 74, 0
2, 32100, Note_on_c, 0, 80, 88
2, 32159, Note_off_c, 0, 80, 0
2, 32160, Note_on_c, 0, 81, 88
2, 32219, Note_off_c, 0, 81, 0
2, 32220, Note_on_c, 0, 77, 88
2, 32279, Note_off_c, 0, 77, 0
2, 32280, Note_on_c, 0, 76, 88
2, 32339, Note_off_c, 0, 76, 0
2, 32340, Note_on_c, 0, 82, 88
2, 32459, Note_off_c, 0, 82, 0
2, 32460, Note_on_c, 0, 81, 88
2, 32579, Note_off_c, 0, 81, 0
2, 32580, Note_on_c, 0, 80, 88
2, 32639, Note_off_c, 0, 80, 0
2, 32640, Note_on_c, 0, 81, 88
2, 32669, Note_off_c, 0, 81, 0
2, 32670, Note_on_c, 0, 79, 88
2, 32699, Note_off_c, 0, 79, 0
2, 32700, Note_on_c, 0, 77, 88
2, 32729, Note_off_c, 0, 77, 0
2, 32730, Note_on_c, 0, 76, 88
2, 32759, Note_off_c, 0, 76, 0
2, 32760, Note_on_c, 0, 77, 88
2, 32819, Note_off_c, 0, 77, 0
2, 32820, Note_on_c, 0, 70, 88
2, 32879, Note_off_c, 0, 70, 0
2, 32880, Note_on_c, 0, 69, 88
2, 32939, Note_off_c, 0, 69, 0
2, 32940, Note_on_c, 0, 76, 88
2, 32999, Note_off_c, 0, 76, 0
2, 33000, Note_on_c, 0, 74, 88
2, 33059, Note_off_c, 0, 74, 0
2, 33060, Note_on_c, 0, 68, 88
2, 33149, Note_off_c, 0, 68, 0
2, 33150, Note_on_c, 0, 74, 88
2, 33179, Note_off_c, 0, 74, 0
2, 33180, Note_on_c, 0, 72, 88
2, 33209, Note_off_c, 0, 72, 0
2, 33210, Note_on_c, 0, 71, 88
2, 33239, Note_off_c, 0, 71, 0
2, 33240, Note_on_c, 0, 69, 88
2, 33299, Note_off_c, 0, 69, 0
2, 33300, Note_on_c, 0, 76, 88
2, 33359, Note_off_c, 0, 76, 0
2, 33360, Note_on_c, 0, 74, 88
2, 33419, Note_off_c, 0, 74, 0
2, 33420, Note_on_c, 0, 67, 88
2, 33479, Note_off_c, 0, 67, 0
2, 33480, Note_on_c, 0, 66, 88
2, 33539, Note_off_c, 0, 66, 0
2, 33540, Note_on_c, 0, 72, 88
2, 33599, Note_off_c, 0, 72, 0
2, 33600, Note_on_c, 0, 71, 88
2, 33719, Note_off_c, 0, 71, 0
2, 33720, Note_on_c, 0, 79, 88
2, 33839, Note_off_c, 0, 79, 0
2, 33840, Note_on_c, 0, 77, 88
2, 33959, Note_off_c, 0, 77, 0
2, 33960, Note_on_c, 0, 76, 88
2, 34079, Note_off_c, 0, 76, 0
2, 34080, Note_on_c, 0, 74, 88
2, 34199, Note_off_c, 0, 74, 0
2, 34200, Note_on_c, 0, 77, 88
2, 34319, Note_off_c, 0, 77, 0
2, 34320, Note_on_c, 0, 76, 88
2, 34439, Note_off_c, 0, 76, 0
2, 34440, Note_on_c, 0, 74, 88
2, 34679, Note_off_c, 0, 74, 0
2, 34680, Note_on_c, 0, 72, 88
2, 34739, Note_off_c, 0, 72, 0
2, 34740, Note_on_c, 0, 71, 88
2, 34799, Note_off_c, 0, 71, 0
2, 34800, Note_on_c, 0, 72, 88
2, 34919, Note_off_c, 0, 72, 0
2, 34920, Note_on_c, 0, 73, 88
2, 35039, Note_off_c, 0, 73, 0
2, 35040, Note_on_c, 0, 74, 88
2, 35159, Note_off_c, 0, 74, 0
2, 35160, Note_on_c, 0, 75, 88
2, 35279, Note_off_c, 0, 75, 0
2, 35280, Note_on_c, 0, 76, 88
2, 35399, Note_off_c, 0, 76, 0
2, 35400, Note_on_c, 0, 78, 88
2, 35519, Note_off_c, 0, 78, 0
2, 35520, Note_on_c, 0, 79, 88
2, 35549, Note_off_c, 0, 79, 0
2, 35550, Note_on_c, 0, 77, 88
2, 35579, Note_off_c, 0, 77, 0
2, 35580, Note_on_c, 0, 76, 88
2, 35609, Note_off_c, 0, 76, 0
2, 35610, Note_on_c, 0, 74, 88
2, 35639, Note_off_c, 0, 74, 0
2, 35640, Note_on_c, 0, 73, 88
2, 35699, Note_off_c, 0, 73, 0
2, 35700, Note_on_c, 0, 80, 88
2, 35759, Note_off_c, 0, 80, 0
2, 35760, Note_on_c, 0, 81, 88
2, 35819, Note_off_c, 0, 81, 0
2, 35820, Note_on_c, 0, 75, 88
2, 35879, Note_off_c, 0, 75, 0
2, 35880, Note_on_c, 0, 74, 88
2, 35939, Note_off_c, 0, 74, 0
2, 35940, Note_on_c, 0, 82, 88
2, 35999, Note_off_c, 0, 82, 0
2, 36000, Note_on_c, 0, 83, 88
2, 36059, Note_off_c, 0, 83, 0
2, 36060, Note_on_c, 0, 77, 88
2, 36119, Note_off_c, 0, 77, 0
2, 36120, Note_on_c, 0, 76, 88
2, 36179, Note_off_c, 0, 76, 0
2, 36180, Note_on_c, 0, 74, 88
2, 36299, Note_off_c, 0, 74, 0
2, 36300, Note_on_c, 0, 72, 88
2, 36419, Note_off_c, 0, 72, 0
2, 36420, Note_on_c, 0, 71, 88
2, 36539, Note_off_c, 0, 71, 0
2, 36540, Note_on_c, 0, 69, 88
2, 36569, Note_off_c, 0, 69, 0
2, 36570, Note_on_c, 0, 71, 88
2, 36599, Note_off_c, 0, 71, 0
2, 36600, Note_on_c, 0, 72, 88
2, 36659, Note_off_c, 0, 72, 0
2, 36660, Note_on_c, 0, 63, 88
2, 36719, Note_off_c, 0, 63, 0
2, 36720, Note_on_c, 0, 64, 88
2, 36779, Note_off_c, 0, 64, 0
2, 36780, Note_on_c, 0, 73, 88
2, 36839, Note_off_c, 0, 73, 0
2, 36840, Note_on_c, 0, 74, 88
2, 36899, Note_off_c, 0, 74, 0
2, 36900, Note_on_c, 0, 65, 88
2, 36959, Note_off_c, 0, 65, 0
2, 36960, Note_on_c, 0, 67, 88
2, 37079, Note_off_c, 0, 67, 0
2, 37080, Note_on_c, 0, 74, 88
2, 37199, Note_off_c, 0, 74, 0
2, 37200, Note_on_c, 0, 73, 88
2, 37319, Note_off_c, 0, 73, 0
2, 37320, Note_on_c, 0, 70, 88
2, 37469, Note_off_c, 0, 70, 0
2, 37470, Note_on_c, 0, 69, 88
2, 37499, Note_off_c, 0, 69, 0
2, 37500, Note_on_c, 0, 67, 88
2, 37529, Note_off_c, 0, 67, 0
2, 37530, Note_on_c, 0, 69, 88
2, 37559, Note_off_c, 0, 69, 0
2, 37560, Note_on_c, 0, 70, 88
2, 37619, Note_off_c, 0, 70, 0
2, 37620, Note_on_c, 0, 61, 88
2, 37679, Note_off_c, 0, 61, 0
2, 37680, Note_on_c, 0, 62, 88
2, 37739, Note_off_c, 0, 62, 0
2, 37740, Note_on_c, 0, 71, 88
2, 37799, Note_off_c, 0, 71, 0
2, 37800, Note_on_c, 0, 72, 88
2, 37859, Note_off_c, 0, 72, 0
2, 37860, Note_on_c, 0, 64, 88
2, 37919, Note_off_c, 0, 64, 0
2, 37920, Note_on_c, 0, 66, 88
2, 38039, Note_off_c, 0, 66, 0
2, 38040, Note_on_c, 0, 72, 88
2, 38159, Note_off_c, 0, 72, 0
2, 38160, Note_on_c, 0, 71, 88
2, 38279, Note_off_c, 0, 71, 0
2, 38280, Note_on_c, 0, 68, 88
2, 38429, Note_off_c, 0, 68, 0
2, 38430, Note_on_c, 0, 67, 88
2, 38459, Note_off_c, 0, 67, 0
2, 38460, Note_on_c, 0, 69, 88
2, 38489, Note_off_c, 0, 69, 0
2, 38490, Note_on_c, 0, 71, 88
2, 38519, Note_off_c, 0, 71, 0
2, 38520, Note_on_c, 0, 72, 88
2, 38579, Note_off_c, 0, 72, 0
2, 38580, Note_on_c, 0, 67, 88
2, 38639, Note_off_c, 0, 67, 0
2, 38640, Note_on_c, 0, 66, 88
2, 38699, Note_off_c, 0, 66, 0
2, 38700, Note_on_c, 0, 70, 88
2, 38759, Note_off_c, 0, 70, 0
2, 38760, Note_on_c, 0, 71, 88
2, 38819, Note_off_c, 0, 71, 0
2, 38820, Note_on_c, 0, 65, 88
2, 38879, Note_off_c, 0, 65, 0
2, 38880, Note_on_c, 0, 64, 88
2, 38939, Note_off_c, 0, 64, 0
2, 38940, Note_on_c, 0, 68, 88
2, 38999, Note_off_c, 0, 68, 0
2, 39000, Note_on_c, 0, 69, 88
2, 39059, Note_off_c, 0, 69, 0
2, 39060, Note_on_c, 0, 63, 88
2, 39179, Note_off_c, 0, 63, 0
2, 39180, Note_on_c, 0, 64, 88
2, 39299, Note_off_c, 0, 64, 0
2, 39300, Note_on_c, 0, 65, 88
2, 39359, Note_off_c, 0, 65, 0
2, 39360, Note_on_c, 0, 59, 88
2, 39479, Note_off_c, 0, 59, 0
2, 39480, Note_on_c, 0, 76, 88
2, 39599, Note_off_c, 0, 76, 0
2, 39600, Note_on_c, 0, 77, 88
2, 39719, Note_off_c, 0, 77, 0
2, 39720, Note_on_c, 0, 78, 88
2, 39839, Note_off_c, 0, 78, 0
2, 39840, Note_on_c, 0, 79, 88
2, 39959, Note_off_c, 0, 79, 0
2, 39960, Note_on_c, 0, 80, 88
2, 40079, Note_off_c, 0, 80, 0
2, 40080, Note_on_c, 0, 81, 88
2, 40199, Note_off_c, 0, 81, 0
2, 40200, Note_on_c, 0, 83, 88
2, 40379, Note_off_c, 0, 83, 0
2, 40380, Note_on_c, 0, 81, 88
2, 40409, Note_off_c, 0, 81, 0
2, 40410, Note_on_c, 0, 83, 88
2, 40439, Note_off_c, 0, 83, 0
2, 40440, Note_on_c, 0, 84, 88
2, 40499, Note_off_c, 0, 84, 0
2, 40500, Note_on_c, 0, 76, 88
2, 40619, Note_off_c, 0, 76, 0
2, 40620, Note_on_c, 0, 75, 88
2, 40679, Note_off_c, 0, 75, 0
2, 40680, Note_on_c, 0, 83, 88
2, 40739, Note_off_c, 0, 83, 0
2, 40740, Note_on_c, 0, 74, 88
2, 40829, Note_off_c, 0, 74, 0
2, 40830, Note_on_c, 0, 72, 88
2, 40859, Note_off_c, 0, 72, 0
2, 40860, Note_on_c, 0, 74, 88
2, 40889, Note_off_c, 0, 74, 0
2, 40890, Note_on_c, 0, 76, 88
2, 40919, Note_off_c, 0, 76, 0
2, 40920, Note_on_c, 0, 77, 88
2, 40979, Note_off_c, 0, 77, 0
2, 40980, Note_on_c, 0, 69, 88
2, 41099, Note_off_c, 0, 69, 0
2, 41100, Note_on_c, 0, 68, 88
2, 41159, Note_off_c, 0, 68, 0
2, 41160, Note_on_c, 0, 76, 88
2, 41219, Note_off_c, 0, 76, 0
2, 41220, Note_on_c, 0, 67, 88
2, 41309, Note_off_c, 0, 67, 0
2, 41310, Note_on_c, 0, 65, 88
2, 41339, Note_off_c, 0, 65, 0
2, 41340, Note_on_c, 0, 67, 88
2, 41369, Note_off_c, 0, 67, 0
2, 41370, Note_on_c, 0, 69, 88
2, 41399, Note_off_c, 0, 69, 0
2, 41400, Note_on_c, 0, 70, 88
2, 41459, Note_off_c, 0, 70, 0
2, 41460, Note_on_c, 0, 62, 88
2, 41579, Note_off_c, 0, 62, 0
2, 41580, Note_on_c, 0, 61, 88
2, 41639, Note_off_c, 0, 61, 0
2, 41640, Note_on_c, 0, 69, 88
2, 41699, Note_off_c, 0, 69, 0
2, 41700, Note_on_c, 0, 60, 88
2, 41819, Note_off_c, 0, 60, 0
2, 41820, Note_on_c, 0, 59, 88
2, 41879, Note_off_c, 0, 59, 0
2, 41880, Note_on_c, 0, 68, 88
2, 41939, Note_off_c, 0, 68, 0
2, 41940, Note_on_c, 0, 59, 88
2, 42059, Note_off_c, 0, 59, 0
2, 42060, Note_on_c, 0, 57, 88
2, 42119, Note_off_c, 0, 57, 0
2, 42120, Note_on_c, 0, 65, 88
2, 42179, Note_off_c, 0, 65, 0
2, 42180, Note_on_c, 0, 57, 88
2, 42299, Note_off_c, 0, 57, 0
2, 42300, Note_on_c, 0, 56, 88
2, 42329, Note_off_c, 0, 56, 0
2, 42330, Note_on_c, 0, 54, 88
2, 42359, Note_off_c, 0, 54, 0
2, 42360, Note_on_c, 0, 56, 88
2, 42419, Note_off_c, 0, 56, 0
2, 42420, Note_on_c, 0, 62, 88
2, 42509, Note_off_c, 0, 62, 0
2, 42510, Note_on_c, 0, 60, 88
2, 42539, Note_off_c, 0, 60, 0
2, 42540, Note_on_c, 0, 59, 88
2, 42569, Note_off_c, 0, 59, 0
2, 42570, Note_on_c, 0, 57, 88
2, 42599, Note_off_c, 0, 57, 0
2, 42600, Note_on_c, 0, 59, 88
2, 42659, Note_off_c, 0, 59, 0
2, 42660, Note_on_c, 0, 65, 88
2, 42749, Note_off_c, 0, 65, 0
2, 42750, Note_on_c, 0, 64, 88
2, 42779, Note_off_c, 0, 64, 0
2, 42780, Note_on_c, 0, 62, 88
2, 42809, Note_off_c, 0, 62, 0
2, 42810, Note_on_c, 0, 61, 88
2, 42839, Note_off_c, 0, 61, 0
2, 42840, Note_on_c, 0, 62, 88
2, 42899, Note_off_c, 0, 62, 0
2, 42900, Note_on_c, 0, 71, 88
2, 42989, Note_off_c, 0, 71, 0
2, 42990, Note_on_c, 0, 69, 88
2, 43019, Note_off_c, 0, 69, 0
2, 43020, Note_on_c, 0, 68, 88
2, 43049, Note_off_c, 0, 68, 0
2, 43050, Note_on_c, 0, 66, 88
2, 43079, Note_off_c, 0, 66, 0
2, 43080, Note_on_c, 0, 68, 88
2, 43139, Note_off_c, 0, 68, 0
2, 43140, Note_on_c, 0, 74, 88
2, 43259, Note_off_c, 0, 74, 0
2, 43260, Note_on_c, 0, 72, 88
2, 43289, Note_off_c, 0, 72, 0
2, 43290, Note_on_c, 0, 71, 88
2, 43319, Note_off_c, 0, 71, 0
2, 43320, Note_on_c, 0, 72, 88
2, 43379, Note_off_c, 0, 72, 0
2, 43380, Note_on_c, 0, 69, 88
2, 43439, Note_off_c, 0, 69, 0
2, 43440, Note_on_c, 0, 70, 88
2, 43559, Note_off_c, 0, 70, 0
2, 43560, Note_on_c, 0, 71, 88
2, 43679, Note_off_c, 0, 71, 0
2, 43680, Note_on_c, 0, 72, 88
2, 43799, Note_off_c, 0, 72, 0
2, 43800, Note_on_c, 0, 73, 88
2, 43919, Note_off_c, 0, 73, 0
2, 43920, Note_on_c, 0, 74, 88
2, 44039, Note_off_c, 0, 74, 0
2, 44040, Note_on_c, 0, 76, 88
2, 44189, Note_off_c, 0, 76, 0
2, 44190, Note_on_c, 0, 73, 88
2, 44219, Note_off_c, 0, 73, 0
2, 44220, Note_on_c, 0, 74, 88
2, 44249, Note_off_c, 0, 74, 0
2, 44250, Note_on_c, 0, 76, 88
2, 44279, Note_off_c, 0, 76, 0
2, 44280, Note_on_c, 0, 77, 88
2, 44339, Note_off_c, 0, 77, 0
2, 44340, Note_on_c, 0, 72, 88
2, 44399, Note_off_c, 0, 72, 0
2, 44400, Note_on_c, 0, 71, 88
2, 44459, Note_off_c, 0, 71, 0
2, 44460, Note_on_c, 0, 75, 88
2, 44519, Note_off_c, 0, 75, 0
2, 44520, Note_on_c, 0, 76, 88
2, 44579, Note_off_c, 0, 76, 0
2, 44580, Note_on_c, 0, 70, 88
2, 44639, Note_off_c, 0, 70, 0
2, 44640, Note_on_c, 0, 69, 88
2, 44699, Note_off_c, 0, 69, 0
2, 44700, Note_on_c, 0, 73, 88
2, 44759, Note_off_c, 0, 73, 0
2, 44760, Note_on_c, 0, 74, 88
2, 44819, Note_off_c, 0, 74, 0
2, 44820, Note_on_c, 0, 68, 88
2, 44939, Note_off_c, 0, 68, 0
2, 44940, Note_on_c, 0, 69, 88
2, 45059, Note_off_c, 0, 69, 0
2, 45060, Note_on_c, 0, 71, 88
2, 45119, Note_off_c, 0, 71, 0
2, 45120, Note_on_c, 0, 64, 88
2, 45179, Note_off_c, 0, 64, 0
2, 45180, Note_on_c, 0, 76, 88
2, 45269, Note_off_c, 0, 76, 0
2, 45270, Note_on_c, 0, 74, 88
2, 45299, Note_off_c, 0, 74, 0
2, 45300, Note_on_c, 0, 72, 88
2, 45329, Note_off_c, 0, 72, 0
2, 45330, Note_on_c, 0, 71, 88
2, 45359, Note_off_c, 0, 71, 0
2, 45360, Note_on_c, 0, 74, 88
2, 45389, Note_off_c, 0, 74, 0
2, 45390, Note_on_c, 0, 72, 88
2, 45419, Note_off_c, 0, 72, 0
2, 45420, Note_on_c, 0, 71, 88
2, 45449, Note_off_c, 0, 71, 0
2, 45450, Note_on_c, 0, 69, 88
2, 45479, Note_off_c, 0, 69, 0
2, 45480, Note_on_c, 0, 72, 88
2, 45509, Note_off_c, 0, 72, 0
2, 45510, Note_on_c, 0, 71, 88
2, 45539, Note_off_c, 0, 71, 0
2, 45540, Note_on_c, 0, 69, 88
2, 45569, Note_off_c, 0, 69, 0
2, 45570, Note_on_c, 0, 68, 88
2, 45599, Note_off_c, 0, 68, 0
2, 45600, Note_on_c, 0, 69, 88
2, 46079, Note_off_c, 0, 69, 0
2, 46080, Note_on_c, 0, 76, 88
2, 46199, Note_off_c, 0, 76, 0
2, 46200, Note_on_c, 0, 64, 88
2, 46319, Note_off_c, 0, 64, 0
2, 46320, Note_on_c, 0, 65, 88
2, 46439, Note_off_c, 0, 65, 0
2, 46440, Note_on_c, 0, 66, 88
2, 46559, Note_off_c, 0, 66, 0
2, 46560, Note_on_c, 0, 67, 88
2, 46679, Note_off_c, 0, 67, 0
2, 46680, Note_on_c, 0, 68, 88
2, 46799, Note_off_c, 0, 68, 0
2, 46800, Note_on_c, 0, 69, 88
2, 46919, Note_off_c, 0, 69, 0
2, 46920, Note_on_c, 0, 71, 88
2, 47039, Note_off_c, 0, 71, 0
2, 47040, Note_on_c, 0, 72, 88
2, 47069, Note_off_c, 0, 72, 0
2, 47070, Note_on_c, 0, 77, 88
2, 47099, Note_off_c, 0, 77, 0
2, 47100, Note_on_c, 0, 76, 88
2, 47129, Note_off_c, 0, 76, 0
2, 47130, Note_on_c, 0, 74, 88
2, 47159, Note_off_c, 0, 74, 0
2, 47160, Note_on_c, 0, 73, 88
2, 47219, Note_off_c, 0, 73, 0
2, 47220, Note_on_c, 0, 78, 88
2, 47279, Note_off_c, 0, 78, 0
2, 47280, Note_on_c, 0, 79, 88
2, 47339, Note_off_c, 0, 79, 0
2, 47340, Note_on_c, 0, 75, 88
2, 47399, Note_off_c, 0, 75, 0
2, 47400, Note_on_c, 0, 74, 88
2, 47459, Note_off_c, 0, 74, 0
2, 47460, Note_on_c, 0, 80, 88
2, 47519, Note_off_c, 0, 80, 0
2, 47520, Note_on_c, 0, 81, 88
2, 47579, Note_off_c, 0, 81, 0
2, 47580, Note_on_c, 0, 77, 88
2, 47639, Note_off_c, 0, 77, 0
2, 47640, Note_on_c, 0, 76, 88
2, 47699, Note_off_c, 0, 76, 0
2, 47700, Note_on_c, 0, 82, 88
2, 47819, Note_off_c, 0, 82, 0
2, 47820, Note_on_c, 0, 81, 88
2, 47939, Note_off_c, 0, 81, 0
2, 47940, Note_on_c, 0, 80, 88
2, 47999, Note_off_c, 0, 80, 0
2, 48000, Note_on_c, 0, 81, 88
2, 48029, Note_off_c, 0, 81, 0
2, 48030, Note_on_c, 0, 79, 88
2, 48059, Note_off_c, 0, 79, 0
2, 48060, Note_on_c, 0, 77, 88
2, 48089, Note_off_c, 0, 77, 0
2, 48090, Note_on_c, 0, 76, 88
2, 48119, Note_off_c, 0, 76, 0
2, 48120, Note_on_c, 0, 77, 88
2, 48179, Note_off_c, 0, 77, 0
2, 48180, Note_on_c, 0, 70, 88
2, 48239, Note_off_c, 0, 70, 0
2, 48240, Note_on_c, 0, 69, 88
2, 48299, Note_off_c, 0, 69, 0
2, 48300, Note_on_c, 0, 76, 88
2, 48359, Note_off_c, 0, 76, 0
2, 48360, Note_on_c, 0, 74, 88
2, 48419, Note_off_c, 0, 74, 0
2, 48420, Note_on_c, 0, 68, 88
2, 48509, Note_off_c, 0, 68, 0
2, 48510, Note_on_c, 0, 74, 88
2, 48539, Note_off_c, 0, 74, 0
2, 48540, Note_on_c, 0, 72, 88
2, 48569, Note_off_c, 0, 72, 0
2, 48570, Note_on_c, 0, 71, 88
2, 48599, Note_off_c, 0, 71, 0
2, 48600, Note_on_c, 0, 69, 88
2, 48659, Note_off_c, 0, 69, 0
2, 48660, Note_on_c, 0, 76, 88
2, 48719, Note_off_c, 0, 76, 0
2, 48720, Note_on_c, 0, 74, 88
2, 48779, Note_off_c, 0, 74, 0
2, 48780, Note_on_c, 0, 67, 88
2, 48839, Note_off_c, 0, 67, 0
2, 48840, Note_on_c, 0, 66, 88
2, 48899, Note_off_c, 0, 66, 0
2, 48900, Note_on_c, 0, 72, 88
2, 48959, Note_off_c, 0, 72, 0
2, 48960, Note_on_c, 0, 71, 88
2, 49079, Note_off_c, 0, 71, 0
2, 49080, Note_on_c, 0, 79, 88
2, 49199, Note_off_c, 0, 79, 0
2, 49200, Note_on_c, 0, 77, 88
2, 49319, Note_off_c, 0, 77, 0
2, 49320, Note_on_c, 0, 76, 88
2, 49439, Note_off_c, 0, 76, 0
2, 49440, Note_on_c, 0, 74, 88
2, 49559, Note_off_c, 0, 74, 0
2, 49560, Note_on_c, 0, 77, 88
2, 49679, Note_off_c, 0, 77, 0
2, 49680, Note_on_c, 0, 76, 88
2, 49799, Note_off_c, 0, 76, 0
2, 49800, Note_on_c, 0, 74, 88
2, 50039, Note_off_c, 0, 74, 0
2, 50040, Note_on_c, 0, 72, 88
2, 50099, Note_off_c, 0, 72, 0
2, 50100, Note_on_c, 0, 71, 88
2, 50159, Note_off_c, 0, 71, 0
2, 50160, Note_on_c, 0, 72, 88
2, 50279, Note_off_c, 0, 72, 0
2, 50280, Note_on_c, 0, 73, 88
2, 50399, Note_off_c, 0, 73, 0
2, 50400, Note_on_c, 0, 74, 88
2, 50519, Note_off_c, 0, 74, 0
2, 50520, Note_on_c, 0, 75, 88
2, 50639, Note_off_c, 0, 75, 0
2, 50640, Note_on_c, 0, 76, 88
2, 50759, Note_off_c, 0, 76, 0
2, 50760, Note_on_c, 0, 78, 88
2, 50879, Note_off_c, 0, 78, 0
2, 50880, Note_on_c, 0, 79, 88
2, 50909, Note_off_c, 0, 79, 0
2, 50910, Note_on_c, 0, 77, 88
2, 50939, Note_off_c, 0, 77, 0
2, 50940, Note_on_c, 0, 76, 88
2, 50969, Note_off_c, 0, 76, 0
2, 50970, Note_on_c, 0, 74, 88
2, 50999, Note_off_c, 0, 74, 0
2, 51000, Note_on_c, 0, 73, 88
2, 51059, Note_off_c, 0, 73, 0
2, 51060, Note_on_c, 0, 80, 88
2, 51119, Note_off_c, 0, 80, 0
2, 51120, Note_on_c, 0, 81, 88
2, 51179, Note_off_c, 0, 81, 0
2, 51180, Note_on_c, 0, 75, 88
2, 51239, Note_off_c, 0, 75, 0
2, 51240, Note_on_c, 0, 74, 88
2, 51299, Note_off_c, 0, 74, 0
2, 51300, Note_on_c, 0, 82, 88
2, 51359, Note_off_c, 0, 82, 0
2, 51360, Note_on_c, 0, 83, 88
2, 51419, Note_off_c, 0, 83, 0
2, 51420, Note_on_c, 0, 77, 88
2, 51479, Note_off_c, 0, 77, 0
2, 51480, Note_on_c, 0, 76, 88
2, 51539, Note_off_c, 0, 76, 0
2, 51540, Note_on_c, 0, 74, 88
2, 51659, Note_off_c, 0, 74, 0
2, 51660, Note_on_c, 0, 72, 88
2, 51779, Note_off_c, 0, 72, 0
2, 51780, Note_on_c, 0, 71, 88
2, 51899, Note_off_c, 0, 71, 0
2, 51900, Note_on_c, 0, 69, 88
2, 51929, Note_off_c, 0, 69, 0
2, 51930, Note_on_c, 0, 71, 88
2, 51959, Note_off_c, 0, 71, 0
2, 51960, Note_on_c, 0, 72, 88
2, 52019, Note_off_c, 0, 72, 0
2, 52020, Note_on_c, 0, 63, 88
2, 52079, Note_off_c, 0, 63, 0
2, 52080, Note_on_c, 0, 64, 88
2, 52139, Note_off_c, 0, 64, 0
2, 52140, Note_on_c, 0, 73, 88
2, 52199, Note_off_c, 0, 73, 0
2, 52200, Note_on_c, 0, 74, 88
2, 52259, Note_off_c, 0, 74, 0
2, 52260, Note_on_c, 0, 65, 88
2, 52319, Note_off_c, 0, 65, 0
2, 52320, Note_on_c, 0, 67, 88
2, 52439, Note_off_c, 0, 67, 0
2, 52440, Note_on_c, 0, 74, 88
2, 52559, Note_off_c, 0, 74, 0
2, 52560, Note_on_c, 0, 73, 88
2, 52679, Note_off_c, 0, 73, 0
2, 52680, Note_on_c, 0, 70, 88
2, 52829, Note_off_c, 0, 70, 0
2, 52830, Note_on_c, 0, 69, 88
2, 52859, Note_off_c, 0, 69, 0
2, 52860, Note_on_c, 0, 67, 88
2, 52889, Note_off_c, 0, 67, 0
2, 52890, Note_on_c, 0, 69, 88
2, 52919, Note_off_c, 0, 69, 0
2, 52920, Note_on_c, 0, 70, 88
2, 52979, Note_off_c, 0, 70, 0
2, 52980, Note_on_c, 0, 61, 88
2, 53039, Note_off_c, 0, 61, 0
2, 53040, Note_on_c, 0, 62, 88
2, 53099, Note_off_c, 0, 62, 0
2, 53100, Note_on_c, 0, 71, 88
2, 53159, Note_off_c, 0, 71, 0
2, 53160, Note_on_c, 0, 72, 88
2, 53219, Note_off_c, 0, 72, 0
2, 53220, Note_on_c, 0, 64, 88
2, 53279, Note_off_c, 0, 64, 0
2, 53280, Note_on_c, 0, 66, 88
2, 53399, Note_off_c, 0, 66, 0
2, 53400, Note_on_c, 0, 72, 88
2, 53519, Note_off_c, 0, 72, 0
2, 53520, Note_on_c, 0, 71, 88
2, 53639, Note_off_c, 0, 71, 0
2, 53640, Note_on_c, 0, 68, 88
2, 53789, Note_off_c, 0, 68, 0
2, 53790, Note_on_c, 0, 67, 88
2, 53819, Note_off_c, 0, 67, 0
2, 53820, Note_on_c, 0, 69, 88
2, 53849, Note_off_c, 0, 69, 0
2, 53850, Note_on_c, 0, 71, 88
2, 53879, Note_off_c, 0, 71, 0
2, 53880, Note_on_c, 0, 72, 88
2, 53939, Note_off_c, 0, 72, 0
2, 53940, Note_on_c, 0, 67, 88
2, 53999, Note_off_c, 0, 67, 0
2, 54000, Note_on_c, 0, 66, 88
2, 54059, Note_off_c, 0, 66, 0
2, 54060, Note_on_c, 0, 70, 88
2, 54119, Note_off_c, 0, 70, 0
2, 54120, Note_on_c, 0, 71, 88
2, 54179, Note_off_c, 0, 71, 0
2, 54180, Note_on_c, 0, 65, 88
2, 54239, Note_off_c, 0, 65, 0
2, 54240, Note_on_c, 0, 64, 88
2, 54299, Note_off_c, 0, 64, 0
2, 54300, Note_on_c, 0, 68, 88
2, 54359, Note_off_c, 0, 68, 0
2, 54360, Note_on_c, 0, 69, 88
2, 54419, Note_off_c, 0, 69, 0
2, 54420, Note_on_c, 0, 63, 88
2, 54539, Note_off_c, 0, 63, 0
2, 54540, Note_on_c, 0, 64, 88
2, 54659, Note_off_c, 0, 64, 0
2, 54660, Note_on_c, 0, 65, 88
2, 54719, Note_off_c, 0, 65, 0
2, 54720, Note_on_c, 0, 59, 88
2, 54839, Note_off_c, 0, 59, 0
2, 54840, Note_on_c, 0, 76, 88
2, 54959, Note_off_c, 0, 76, 0
2, 54960, Note_on_c, 0, 77, 88
2, 55079, Note_off_c, 0, 77, 0
2, 55080, Note_on_c, 0, 78, 88
2, 55199, Note_off_c, 0, 78, 0
2, 55200, Note_on_c, 0, 79, 88
2, 55319, Note_off_c, 0, 79, 0
2, 55320, Note_on_c, 0, 80, 88
2, 55439, Note_off_c, 0, 80, 0
2, 55440, Note_on_c, 0, 81, 88
2, 55559, Note_off_c, 0, 81, 0
2, 55560, Note_on_c, 0, 83, 88
2, 55739, Note_off_c, 0, 83, 0
2, 55740, Note_on_c, 0, 81, 88
2, 55769, Note_off_c, 0, 81, 0
2, 55770, Note_on_c, 0, 83, 88
2, 55799, Note_off_c, 0, 83, 0
2, 55800, Note_on_c, 0, 84, 88
2, 55859, Note_off_c, 0, 84, 0
2, 55860, Note_on_c, 0, 76, 88
2, 55979, Note_off_c, 0, 76, 0
2, 55980, Note_on_c, 0, 75, 88
2, 56039, Note_off_c, 0, 75, 0
2, 56040, Note_on_c, 0, 83, 88
2, 56099, Note_off_c, 0, 83, 0
2, 56100, Note_on_c, 0, 74, 88
2, 56189, Note_off_c, 0, 74, 0
2, 56190, Note_on_c, 0, 72, 88
2, 56219, Note_off_c, 0, 72, 0
2, 56220, Note_on_c, 0, 74, 88
2, 56249, Note_off_c, 0, 74, 0
2, 56250, Note_on_c, 0, 76, 88
2, 56279, Note_off_c, 0, 76, 0
2, 56280, Note_on_c, 0, 77, 88
2, 56339, Note_off_c, 0, 77, 0
2, 56340, Note_on_c, 0, 69, 88
2, 56459, Note_off_c, 0, 69, 0
2, 56460, Note_on_c, 0, 68, 88
2, 56519, Note_off_c, 0, 68, 0
2, 56520, Note_on_c, 0, 76, 88
2, 56579, Note_off_c, 0, 76, 0
2, 56580, Note_on_c, 0, 67, 88
2, 56669, Note_off_c, 0, 67, 0
2, 56670, Note_on_c, 0, 65, 88
2, 56699, Note_off_c, 0, 65, 0
2, 56700, Note_on_c, 0, 67, 88
2, 56729, Note_off_c, 0, 67, 0
2, 56730, Note_on_c, 0, 69, 88
2, 56759, Note_off_c, 0, 69, 0
2, 56760, Note_on_c, 0, 70, 88
2, 56819, Note_off_c, 0, 70, 0
2, 56820, Note_on_c, 0, 62, 88
2, 56939, Note_off_c, 0, 62, 0
2, 56940, Note_on_c, 0, 61, 88
2, 56999, Note_off_c, 0, 61, 0
2, 57000, Note_on_c, 0, 69, 88
2, 57059, Note_off_c, 0, 69, 0
2, 57060, Note_on_c, 0, 60, 88
2, 57179, Note_off_c, 0, 60, 0
2, 57180, Note_on_c, 0, 59, 88
2, 57239, Note_off_c, 0, 59, 0
2, 57240, Note_on_c, 0, 68, 88
2, 57299, Note_off_c, 0, 68, 0
2, 57300, Note_on_c, 0, 59, 88
2, 57419, Note_off_c, 0, 59, 0
2, 57420, Note_on_c, 0, 57, 88
2, 57479, Note_off_c, 0, 57, 0
2, 57480, Note_on_c, 0, 65, 88
2, 57539, Note_off_c, 0, 65, 0
2, 57540, Note_on_c, 0, 57, 88
2, 57659, Note_off_c, 0, 57, 0
2, 57660, Note_on_c, 0, 56, 88
2, 57689, Note_off_c, 0, 56, 0
2, 57690, Note_on_c, 0, 54, 88
2, 57719, Note_off_c, 0, 54, 0
2, 57720, Note_on_c, 0, 56, 88
2, 57779, Note_off_c, 0, 56, 0
2, 57780, Note_on_c, 0, 62, 88
2, 57869, Note_off_c, 0, 62, 0
2, 57870, Note_on_c, 0, 60, 88
2, 57899, Note_off_c, 0, 60, 0
2, 57900, Note_on_c, 0, 59, 88
2, 57929, Note_off_c, 0, 59, 0
2, 57930, Note_on_c, 0, 57, 88
2, 57959, Note_off_c, 0, 57, 0
2, 57960, Note_on_c, 0, 59, 88
2, 58019, Note_off_c, 0, 59, 0
2, 58020, Note_on_c, 0, 65, 88
2, 58109, Note_off_c, 0, 65, 0
2, 58110, Note_on_c, 0, 64, 88
2, 58139, Note_off_c, 0, 64, 0
2, 58140, Note_on_c, 0, 62, 88
2, 58169, Note_off_c, 0, 62, 0
2, 58170, Note_on_c, 0, 61, 88
2, 58199, Note_off_c, 0, 61, 0
2, 58200, Note_on_c, 0, 62, 88
2, 58259, Note_off_c, 0, 62, 0
2, 58260, Note_on_c, 0, 71, 88
2, 58349, Note_off_c, 0, 71, 0
2, 58350, Note_on_c, 0, 69, 88
2, 58379, Note_off_c, 0, 69, 0
2, 58380, Note_on_c, 0, 68, 88
2, 58409, Note_off_c, 0, 68, 0
2, 58410, Note_on_c, 0, 66, 88
2, 58439, Note_off_c, 0, 66, 0
2, 58440, Note_on_c, 0, 68, 88
2, 58499, Note_off_c, 0, 68, 0
2, 58500, Note_on_c, 0, 74, 88
2, 58619, Note_off_c, 0, 74, 0
2, 58620, Note_on_c, 0, 72, 88
2, 58649, Note_off_c, 0, 72, 0
2, 58650, Note_on_c, 0, 71, 88
2, 58679, Note_off_c, 0, 71, 0
2, 58680, Note_on_c, 0, 72, 88
2, 58739, Note_off_c, 0, 72, 0
2, 58740, Note_on_c, 0, 69, 88
2, 58799, Note_off_c, 0, 69, 0
2, 58800, Note_on_c, 0, 70, 88
2, 58919, Note_off_c, 0, 70, 0
2, 58920, Note_on_c, 0, 71, 88
2, 59039, Note_off_c, 0, 71, 0
2, 59040, Note_on_c, 0, 72, 88
2, 59159, Note_off_c, 0, 72, 0
2, 59160, Note_on_c, 0, 73, 88
2, 59279, Note_off_c, 0, 73, 0
2, 59280, Note_on_c, 0, 74, 88
2, 59399, Note_off_c, 0, 74, 0
2, 59400, Note_on_c, 0, 76, 88
2, 59549, Note_off_c, 0, 76, 0
2, 59550, Note_on_c, 0, 73, 88
2, 59579, Note_off_c, 0, 73, 0
2, 59580, Note_on_c, 0, 74, 88
2, 59609, Note_off_c, 0, 74, 0
2, 59610, Note_on_c, 0, 76, 88
2, 59639, Note_off_c, 0, 76, 0
2, 59640, Note_on_c, 0, 77, 88
2, 59699, Note_off_c, 0, 77, 0
2, 59700, Note_on_c, 0, 72, 88
2, 59759, Note_off_c, 0, 72, 0
2, 59760, Note_on_c, 0, 71, 88
2, 59819, Note_off_c, 0, 71, 0
2, 59820, Note_on_c, 0, 75, 88
2, 59879, Note_off_c, 0, 75, 0
2, 59880, Note_on_c, 0, 76, 88
2, 59939, Note_off_c, 0, 76, 0
2, 59940, Note_on_c, 0, 70, 88
2, 59999, Note_off_c, 0, 70, 0
2, 60000, Note_on_c, 0, 69, 88
2, 60059, Note_off_c, 0, 69, 0
2, 60060, Note_on_c, 0, 73, 88
2, 60119, Note_off_c, 0, 73, 0
2, 60120, Note_on_c, 0, 74, 88
2, 60179, Note_off_c, 0, 74, 0
2, 60180, Note_on_c, 0, 68, 88
2, 60299, Note_off_c, 0, 68, 0
2, 60300, Note_on_c, 0, 69, 88
2, 60419, Note_off_c, 0, 69, 0
2, 60420, Note_on_c, 0, 71, 88
2, 60479, Note_off_c, 0, 71, 0
2, 60480, Note_on_c, 0, 64, 88
2, 60539, Note_off_c, 0, 64, 0
2, 60540, Note_on_c, 0, 76, 88
2, 60629, Note_off_c, 0, 76, 0
2, 60630, Note_on_c, 0, 74, 88
2, 60659, Note_off_c, 0, 74, 0
2, 60660, Note_on_c, 0, 72, 88
2, 60689, Note_off_c, 0, 72, 0
2, 60690, Note_on_c, 0, 71, 88
2, 60719, Note_off_c, 0, 71, 0
2, 60720, Note_on_c, 0, 74, 88
2, 60749, Note_off_c, 0, 74, 0
2, 60750, Note_on_c, 0, 72, 88
2, 60779, Note_off_c, 0, 72, 0
2, 60780, Note_on_c, 0, 71, 88
2, 60809, Note_off_c, 0, 71, 0
2, 60810, Note_on_c, 0, 69, 88
2, 60839, Note_off_c, 0, 69, 0
2, 60840, Note_on_c, 0, 72, 88
2, 60869, Note_off_c, 0, 72, 0
2, 60870, Note_on_c, 0, 71, 88
2, 60899, Note_off_c, 0, 71, 0
2, 60900, Note_on_c, 0, 69, 88
2, 60929, Note_off_c, 0, 69, 0
2, 60930, Note_on_c, 0, 68, 88
2, 60959, Note_off_c, 0, 68, 0
2, 60960, Note_on_c, 0, 69, 88
2, 61000, Note_off_c, 0, 69, 0
2, 61000, End_track
0, 0, End_of_file