0, 0, Header, 1, 2, 240
1, 0, Start_track
1, 0, Time_signature, 4, 2, 24, 8
1, 0, Tempo, 937500
1, 0, SMPTE_offset, 64, 0, 0, 0, 100
1, 0, End_track
2, 0, Start_track
2, 0, Title_t, "Track 1"
2, 0, Program_c, 0, 6
2, 60, Note_on_c, 0, 82, 88
2, 119, Note_off_c, 0, 82, 0
2, 120, Note_on_c, 0, 81, 88
2, 179, Note_off_c, 0, 81, 0
2, 180, Note_on_c, 0, 79, 88
2, 239, Note_off_c, 0, 79, 0
2, 240, Note_on_c, 0, 77, 88
2, 299, Note_off_c, 0, 77, 0
2, 300, Note_on_c, 0, 75, 88
2, 359, Note_off_c, 0, 75, 0
2, 360, Note_on_c, 0, 74, 88
2, 539, Note_off_c, 0, 74, 0
2, 540, Note_on_c, 0, 75, 88
2, 719, Note_off_c, 0, 75, 0
2, 720, Note_on_c, 0, 77, 88
2, 839, Note_off_c, 0, 77, 0
2, 840, Note_on_c, 0, 74, 88
2, 899, Note_off_c, 0, 74, 0
2, 900, Note_on_c, 0, 75, 88
2, 1019, Note_off_c, 0, 75, 0
2, 1020, Note_on_c, 0, 79, 88
2, 1079, Note_off_c, 0, 79, 0
2, 1080, Note_on_c, 0, 81, 88
2, 1094, Note_off_c, 0, 81, 0
2, 1095, Note_on_c, 0, 79, 88
2, 1109, Note_off_c, 0, 79, 0
2, 1110, Note_on_c, 0, 81, 88
2, 1124, Note_off_c, 0, 81, 0
2, 1125, Note_on_c, 0, 79, 88
2, 1139, Note_off_c, 0, 79, 0
2, 1140, Note_on_c, 0, 77, 88
2, 1199, Note_off_c, 0, 77, 0
2, 1200, Note_on_c, 0, 79, 88
2, 1259, Note_off_c, 0, 79, 0
2, 1260, Note_on_c, 0, 77, 88
2, 1559, Note_off_c, 0, 77, 0
2, 1560, Note_on_c, 0, 70, 88
2, 1619, Note_off_c, 0, 70, 0
2, 1620, Note_on_c, 0, 69, 88
2, 1739, Note_off_c, 0, 69, 0
2, 1740, Note_on_c, 0, 75, 88
2, 1799, Note_off_c, 0, 75, 0
2, 1800, Note_on_c, 0, 74, 88
2, 1979, Note_off_c, 0, 74, 0
2, 1980, Note_on_c, 0, 72, 88
2, 2159, Note_off_c, 0, 72, 0
2, 2160, Note_on_c, 0, 70, 88
2, 2219, Note_off_c, 0, 70, 0
2, 2220, Note_on_c, 0, 72, 88
2, 2279, Note_off_c, 0, 72, 0
2, 2280, Note_on_c, 0, 74, 88
2, 2339, Note_off_c, 0, 74, 0
2, 2340, Note_on_c, 0, 75, 88
2, 2399, Note_off_c, 0, 75, 0
2, 2400, Note_on_c, 0, 77, 88
2, 2459, Note_off_c, 0, 77, 0
2, 2460, Note_on_c, 0, 79, 88
2, 2519, Note_off_c, 0, 79, 0
2, 2520, Note_on_c, 0, 72, 88
2, 2939, Note_off_c, 0, 72, 0
2, 2940, Note_on_c, 0, 69, 88
2, 2999, Note_off_c, 0, 69, 0
2, 3000, Note_on_c, 0, 70, 88
2, 3059, Note_off_c, 0, 70, 0
2, 3060, Note_on_c, 0, 72, 88
2, 3119, Note_off_c, 0, 72, 0
2, 3120, Note_on_c, 0, 74, 88
2, 3179, Note_off_c, 0, 74, 0
2, 3180, Note_on_c, 0, 75, 88
2, 3239, Note_off_c, 0, 75, 0
2, 3240, Note_on_c, 0, 77, 88
2, 3419, Note_off_c, 0, 77, 0
2, 3420, Note_on_c, 0, 75, 88
2, 3599, Note_off_c, 0, 75, 0
2, 3600, Note_on_c, 0, 74, 88
2, 3899, Note_off_c, 0, 74, 0
2, 3900, Note_on_c, 0, 72, 88
2, 3959, Note_off_c, 0, 72, 0
2, 3960, Note_on_c, 0, 70, 88
2, 4379, Note_off_c, 0, 70, 0
2, 4380, Note_on_c, 0, 72, 88
2, 4439, Note_off_c, 0, 72, 0
2, 4440, Note_on_c, 0, 67, 88
2, 4499, Note_off_c, 0, 67, 0
2, 4500, Note_on_c, 0, 69, 88
2, 4859, Note_off_c, 0, 69, 0
2, 4860, Note_on_c, 0, 72, 88
2, 4878, Note_off_c, 0, 72, 0
2, 4879, Note_on_c, 0, 70, 88
2, 4897, Note_off_c, 0, 70, 0
2, 4898, Note_on_c, 0, 72, 88
2, 4915, Note_off_c, 0, 72, 0
2, 4916, Note_on_c, 0, 70, 88
2, 4934, Note_off_c, 0, 70, 0
2, 4935, Note_on_c, 0, 72, 88
2, 4953, Note_off_c, 0, 72, 0
2, 4954, Note_on_c, 0, 70, 88
2, 4972, Note_off_c, 0, 70, 0
2, 4973, Note_on_c, 0, 72, 88
2, 4990, Note_off_c, 0, 72, 0
2, 4991, Note_on_c, 0, 70, 88
2, 5009, Note_off_c, 0, 70, 0
2, 5010, Note_on_c, 0, 69, 88
2, 5024, Note_off_c, 0, 69, 0
2, 5025, Note_on_c, 0, 70, 88
2, 5039, Note_off_c, 0, 70, 0
2, 5040, Note_on_c, 0, 72, 88
2, 5099, Note_off_c, 0, 72, 0
2, 5100, Note_on_c, 0, 77, 88
2, 5159, Note_off_c, 0, 77, 0
2, 5160, Note_on_c, 0, 76, 88
2, 5219, Note_off_c, 0, 76, 0
2, 5220, Note_on_c, 0, 74, 88
2, 5279, Note_off_c, 0, 74, 0
2, 5280, Note_on_c, 0, 72, 88
2, 5339, Note_off_c, 0, 72, 0
2, 5340, Note_on_c, 0, 70, 88
2, 5399, Note_off_c, 0, 70, 0
2, 5400, Note_on_c, 0, 70, 88
2, 5414, Note_off_c, 0, 70, 0
2, 5415, Note_on_c, 0, 69, 88
2, 5429, Note_off_c, 0, 69, 0
2, 5430, Note_on_c, 0, 70, 88
2, 5444, Note_off_c, 0, 70, 0
2, 5445, Note_on_c, 0, 69, 88
2, 5459, Note_off_c, 0, 69, 0
2, 5460, Note_on_c, 0, 67, 88
2, 5519, Note_off_c, 0, 67, 0
2, 5520, Note_on_c, 0, 69, 88
2, 5579, Note_off_c, 0, 69, 0
2, 5580, Note_on_c, 0, 67, 88
2, 5759, Note_off_c, 0, 67, 0
2, 5760, Note_on_c, 0, 60, 88
2, 5819, Note_off_c, 0, 60, 0
2, 5820, Note_on_c, 0, 64, 88
2, 5879, Note_off_c, 0, 64, 0
2, 5880, Note_on_c, 0, 67, 88
2, 5939, Note_off_c, 0, 67, 0
2, 5940, Note_on_c, 0, 70, 88
2, 5999, Note_off_c, 0, 70, 0
2, 6000, Note_on_c, 0, 69, 88
2, 6059, Note_off_c, 0, 69, 0
2, 6060, Note_on_c, 0, 70, 88
2, 6119, Note_off_c, 0, 70, 0
2, 6120, Note_on_c, 0, 60, 88
2, 6179, Note_off_c, 0, 60, 0
2, 6180, Note_on_c, 0, 64, 88
2, 6239, Note_off_c, 0, 64, 0
2, 6240, Note_on_c, 0, 65, 88
2, 6299, Note_off_c, 0, 65, 0
2, 6300, Note_on_c, 0, 69, 88
2, 6359, Note_off_c, 0, 69, 0
2, 6360, Note_on_c, 0, 67, 88
2, 6419, Note_off_c, 0, 67, 0
2, 6420, Note_on_c, 0, 69, 88
2, 6479, Note_off_c, 0, 69, 0
2, 6480, Note_on_c, 0, 58, 88
2, 6539, Note_off_c, 0, 58, 0
2, 6540, Note_on_c, 0, 62, 88
2, 6599, Note_off_c, 0, 62, 0
2, 6600, Note_on_c, 0, 64, 88
2, 6659, Note_off_c, 0, 64, 0
2, 6660, Note_on_c, 0, 67, 88
2, 6719, Note_off_c, 0, 67, 0
2, 6720, Note_on_c, 0, 65, 88
2, 6779, Note_off_c, 0, 65, 0
2, 6780, Note_on_c, 0, 67, 88
2, 6839, Note_off_c, 0, 67, 0
2, 6840, Note_on_c, 0, 58, 88
2, 6899, Note_off_c, 0, 58, 0
2, 6900, Note_on_c, 0, 57, 88
2, 6959, Note_off_c, 0, 57, 0
2, 6960, Note_on_c, 0, 60, 88
2, 7019, Note_off_c, 0, 60, 0
2, 7020, Note_on_c, 0, 65, 88
2, 7079, Note_off_c, 0, 65, 0
2, 7080, Note_on_c, 0, 69, 88
2, 7139, Note_off_c, 0, 69, 0
2, 7140, Note_on_c, 0, 72, 88
2, 7199, Note_off_c, 0, 72, 0
2, 7200, Note_on_c, 0, 75, 88
2, 7259, Note_off_c, 0, 75, 0
2, 7260, Note_on_c, 0, 74, 88
2, 7319, Note_off_c, 0, 74, 0
2, 7320, Note_on_c, 0, 75, 88
2, 7379, Note_off_c, 0, 75, 0
2, 7380, Note_on_c, 0, 65, 88
2, 7439, Note_off_c, 0, 65, 0
2, 7440, Note_on_c, 0, 69, 88
2, 7499, Note_off_c, 0, 69, 0
2, 7500, Note_on_c, 0, 72, 88
2, 7559, Note_off_c, 0, 72, 0
2, 7560, Note_on_c, 0, 74, 88
2, 7619, Note_off_c, 0, 74, 0
2, 7620, Note_on_c, 0, 72, 88
2, 7679, Note_off_c, 0, 72, 0
2, 7680, Note_on_c, 0, 74, 88
2, 7739, Note_off_c, 0, 74, 0
2, 7740, Note_on_c, 0, 65, 88
2, 7799, Note_off_c, 0, 65, 0
2, 7800, Note_on_c, 0, 69, 88
2, 7859, Note_off_c, 0, 69, 0
2, 7860, Note_on_c, 0, 70, 88
2, 7919, Note_off_c, 0, 70, 0
2, 7920, Note_on_c, 0, 72, 88
2, 7979, Note_off_c, 0, 72, 0
2, 7980, Note_on_c, 0, 70, 88
2, 8039, Note_off_c, 0, 70, 0
2, 8040, Note_on_c, 0, 72, 88
2, 8099, Note_off_c, 0, 72, 0
2, 8100, Note_on_c, 0, 63, 88
2, 8159, Note_off_c, 0, 63, 0
2, 8160, Note_on_c, 0, 67, 88
2, 8219, Note_off_c, 0, 67, 0
2, 8220, Note_on_c, 0, 69, 88
2, 8279, Note_off_c, 0, 69, 0
2, 8280, Note_on_c, 0, 69, 88
2, 8339, Note_off_c, 0, 69, 0
2, 8340, Note_on_c, 0, 70, 88
2, 8399, Note_off_c, 0, 70, 0
2, 8400, Note_on_c, 0, 65, 88
2, 8459, Note_off_c, 0, 65, 0
2, 8460, Note_on_c, 0, 62, 88
2, 8699, Note_off_c, 0, 62, 0
2, 8700, Note_on_c, 0, 60, 88
2, 8759, Note_off_c, 0, 60, 0
2, 8760, Note_on_c, 0, 62, 88
2, 8819, Note_off_c, 0, 62, 0
2, 8820, Note_on_c, 0, 57, 88
2, 8879, Note_off_c, 0, 57, 0
2, 8880, Note_on_c, 0, 62, 88
2, 8939, Note_off_c, 0, 62, 0
2, 8940, Note_on_c, 0, 58, 88
2, 8999, Note_off_c, 0, 58, 0
2, 9000, Note_on_c, 0, 55, 88
2, 9059, Note_off_c, 0, 55, 0
2, 9060, Note_on_c, 0, 62, 88
2, 9119, Note_off_c, 0, 62, 0
2, 9120, Note_on_c, 0, 58, 88
2, 9179, Note_off_c, 0, 58, 0
2, 9180, Note_on_c, 0, 55, 88
2, 9239, Note_off_c, 0, 55, 0
2, 9240, Note_on_c, 0, 62, 88
2, 9299, Note_off_c, 0, 62, 0
2, 9300, Note_on_c, 0, 70, 88
2, 9359, Note_off_c, 0, 70, 0
2, 9360, Note_on_c, 0, 60, 88
2, 9419, Note_off_c, 0, 60, 0
2, 9420, Note_on_c, 0, 58, 88
2, 9479, Note_off_c, 0, 58, 0
2, 9480, Note_on_c, 0, 60, 88
2, 9539, Note_off_c, 0, 60, 0
2, 9540, Note_on_c, 0, 55, 88
2, 9599, Note_off_c, 0, 55, 0
2, 9600, Note_on_c, 0, 60, 88
2, 9659, Note_off_c, 0, 60, 0
2, 9660, Note_on_c, 0, 57, 88
2, 9719, Note_off_c, 0, 57, 0
2, 9720, Note_on_c, 0, 54, 88
2, 9779, Note_off_c, 0, 54, 0
2, 9780, Note_on_c, 0, 60, 88
2, 9839, Note_off_c, 0, 60, 0
2, 9840, Note_on_c, 0, 57, 88
2, 9899, Note_off_c, 0, 57, 0
2, 9900, Note_on_c, 0, 54, 88
2, 9959, Note_off_c, 0, 54, 0
2, 9960, Note_on_c, 0, 60, 88
2, 10019, Note_off_c, 0, 60, 0
2, 10020, Note_on_c, 0, 69, 88
2, 10079, Note_off_c, 0, 69, 0
2, 10080, Note_on_c, 0, 58, 88
2, 10139, Note_off_c, 0, 58, 0
2, 10140, Note_on_c, 0, 57, 88
2, 10199, Note_off_c, 0, 57, 0
2, 10200, Note_on_c, 0, 58, 88
2, 10259, Note_off_c, 0, 58, 0
2, 10260, Note_on_c, 0, 62, 88
2, 10439, Note_off_c, 0, 62, 0
2, 10440, Note_on_c, 0, 67, 88
2, 10619, Note_off_c, 0, 67, 0
2, 10620, Note_on_c, 0, 48, 88
2, 10799, Note_off_c, 0, 48, 0
2, 10800, Note_on_c, 0, 41, 88
2, 10979, Note_off_c, 0, 41, 0
2, 10980, Note_on_c, 0, 60, 88
2, 11159, Note_off_c, 0, 60, 0
2, 11160, Note_on_c, 0, 65, 88
2, 11339, Note_off_c, 0, 65, 0
2, 11340, Note_on_c, 0, 46, 88
2, 11519, Note_off_c, 0, 46, 0
2, 11520, Note_on_c, 0, 39, 88
2, 11699, Note_off_c, 0, 39, 0
2, 11700, Note_on_c, 0, 63, 88
2, 11939, Note_off_c, 0, 63, 0
2, 11940, Note_on_c, 0, 72, 88
2, 11999, Note_off_c, 0, 72, 0
2, 12000, Note_on_c, 0, 70, 88
2, 12059, Note_off_c, 0, 70, 0
2, 12060, Note_on_c, 0, 69, 88
2, 12119, Note_off_c, 0, 69, 0
2, 12120, Note_on_c, 0, 67, 88
2, 12179, Note_off_c, 0, 67, 0
2, 12180, Note_on_c, 0, 65, 88
2, 12239, Note_off_c, 0, 65, 0
2, 12240, Note_on_c, 0, 63, 88
2, 12359, Note_off_c, 0, 63, 0
2, 12360, Note_on_c, 0, 62, 88
2, 12419, Note_off_c, 0, 62, 0
2, 12420, Note_on_c, 0, 70, 88
2, 12659, Note_off_c, 0, 70, 0
2, 12660, Note_on_c, 0, 74, 88
2, 12719, Note_off_c, 0, 74, 0
2, 12720, Note_on_c, 0, 72, 88
2, 12779, Note_off_c, 0, 72, 0
2, 12780, Note_on_c, 0, 70, 88
2, 12839, Note_off_c, 0, 70, 0
2, 12840, Note_on_c, 0, 69, 88
2, 12899, Note_off_c, 0, 69, 0
2, 12900, Note_on_c, 0, 67, 88
2, 12959, Note_off_c, 0, 67, 0
2, 12960, Note_on_c, 0, 65, 88
2, 13019, Note_off_c, 0, 65, 0
2, 13020, Note_on_c, 0, 67, 88
2, 13079, Note_off_c, 0, 67, 0
2, 13080, Note_on_c, 0, 69, 88
2, 13139, Note_off_c, 0, 69, 0
2, 13140, Note_on_c, 0, 70, 88
2, 13199, Note_off_c, 0, 70, 0
2, 13200, Note_on_c, 0, 72, 88
2, 13259, Note_off_c, 0, 72, 0
2, 13260, Note_on_c, 0, 74, 88
2, 13499, Note_off_c, 0, 74, 0
2, 13500, Note_on_c, 0, 72, 88
2, 13619, Note_off_c, 0, 72, 0
2, 13620, Note_on_c, 0, 70, 88
2, 13679, Note_off_c, 0, 70, 0
2, 13680, Note_on_c, 0, 69, 88
2, 13739, Note_off_c, 0, 69, 0
2, 13740, Note_on_c, 0, 70, 88
2, 13799, Note_off_c, 0, 70, 0
2, 13800, Note_on_c, 0, 72, 88
2, 13859, Note_off_c, 0, 72, 0
2, 13860, Note_on_c, 0, 74, 88
2, 13919, Note_off_c, 0, 74, 0
2, 13920, Note_on_c, 0, 76, 88
2, 13979, Note_off_c, 0, 76, 0
2, 13980, Note_on_c, 0, 77, 88
2, 14219, Note_off_c, 0, 77, 0
2, 14220, Note_on_c, 0, 76, 88
2, 14339, Note_off_c, 0, 76, 0
2, 14340, Note_on_c, 0, 74, 88
2, 14399, Note_off_c, 0, 74, 0
2, 14400, Note_on_c, 0, 72, 88
2, 14459, Note_off_c, 0, 72, 0
2, 14460, Note_on_c, 0, 77, 88
2, 14519, Note_off_c, 0, 77, 0
2, 14520, Note_on_c, 0, 76, 88
2, 14579, Note_off_c, 0, 76, 0
2, 14580, Note_on_c, 0, 74, 88
2, 14639, Note_off_c, 0, 74, 0
2, 14640, Note_on_c, 0, 72, 88
2, 14699, Note_off_c, 0, 72, 0
2, 14700, Note_on_c, 0, 70, 88
2, 14759, Note_off_c, 0, 70, 0
2, 14760, Note_on_c, 0, 69, 88
2, 14819, Note_off_c, 0, 69, 0
2, 14820, Note_on_c, 0, 67, 88
2, 14879, Note_off_c, 0, 67, 0
2, 14880, Note_on_c, 0, 69, 88
2, 14939, Note_off_c, 0, 69, 0
2, 14940, Note_on_c, 0, 70, 88
2, 14999, Note_off_c, 0, 70, 0
2, 15000, Note_on_c, 0, 69, 88
2, 15059, Note_off_c, 0, 69, 0
2, 15060, Note_on_c, 0, 67, 88
2, 15119, Note_off_c, 0, 67, 0
2, 15120, Note_on_c, 0, 65, 88
2, 15179, Note_off_c, 0, 65, 0
2, 15180, Note_on_c, 0, 67, 88
2, 15239, Note_off_c, 0, 67, 0
2, 15240, Note_on_c, 0, 69, 88
2, 15299, Note_off_c, 0, 69, 0
2, 15300, Note_on_c, 0, 70, 88
2, 15359, Note_off_c, 0, 70, 0
2, 15360, Note_on_c, 0, 72, 88
2, 15419, Note_off_c, 0, 72, 0
2, 15420, Note_on_c, 0, 74, 88
2, 15479, Note_off_c, 0, 74, 0
2, 15480, Note_on_c, 0, 74, 88
2, 15599, Note_off_c, 0, 74, 0
2, 15600, Note_on_c, 0, 67, 88
2, 15659, Note_off_c, 0, 67, 0
2, 15660, Note_on_c, 0, 69, 88
2, 15719, Note_off_c, 0, 69, 0
2, 15720, Note_on_c, 0, 70, 88
2, 15779, Note_off_c, 0, 70, 0
2, 15780, Note_on_c, 0, 72, 88
2, 15839, Note_off_c, 0, 72, 0
2, 15840, Note_on_c, 0, 72, 88
2, 15959, Note_off_c, 0, 72, 0
2, 15960, Note_on_c, 0, 65, 88
2, 16019, Note_off_c, 0, 65, 0
2, 16020, Note_on_c, 0, 67, 88
2, 16079, Note_off_c, 0, 67, 0
2, 16080, Note_on_c, 0, 69, 88
2, 16139, Note_off_c, 0, 69, 0
2, 16140, Note_on_c, 0, 70, 88
2, 16199, Note_off_c, 0, 70, 0
2, 16200, Note_on_c, 0, 70, 88
2, 16619, Note_off_c, 0, 70, 0
2, 16620, Note_on_c, 0, 65, 88
2, 16679, Note_off_c, 0, 65, 0
2, 16680, Note_on_c, 0, 67, 88
2, 16739, Note_off_c, 0, 67, 0
2, 16740, Note_on_c, 0, 69, 88
2, 16799, Note_off_c, 0, 69, 0
2, 16800, Note_on_c, 0, 70, 88
2, 16859, Note_off_c, 0, 70, 0
2, 16860, Note_on_c, 0, 72, 88
2, 16919, Note_off_c, 0, 72, 0
2, 16920, Note_on_c, 0, 74, 88
2, 16979, Note_off_c, 0, 74, 0
2, 16980, Note_on_c, 0, 70, 88
2, 17039, Note_off_c, 0, 70, 0
2, 17040, Note_on_c, 0, 72, 88
2, 17099, Note_off_c, 0, 72, 0
2, 17100, Note_on_c, 0, 74, 88
2, 17159, Note_off_c, 0, 74, 0
2, 17160, Note_on_c, 0, 76, 88
2, 17219, Note_off_c, 0, 76, 0
2, 17220, Note_on_c, 0, 77, 88
2, 17279, Note_off_c, 0, 77, 0
2, 17280, Note_on_c, 0, 79, 88
2, 17759, Note_off_c, 0, 79, 0
2, 17760, Note_on_c, 0, 72, 88
2, 17819, Note_off_c, 0, 72, 0
2, 17820, Note_on_c, 0, 77, 88
2, 17939, Note_off_c, 0, 77, 0
2, 17940, Note_on_c, 0, 75, 88
2, 17999, Note_off_c, 0, 75, 0
2, 18000, Note_on_c, 0, 74, 88
2, 18479, Note_off_c, 0, 74, 0
2, 18480, Note_on_c, 0, 67, 88
2, 18539, Note_off_c, 0, 67, 0
2, 18540, Note_on_c, 0, 72, 88
2, 18659, Note_off_c, 0, 72, 0
2, 18660, Note_on_c, 0, 70, 88
2, 18719, Note_off_c, 0, 70, 0
2, 18720, Note_on_c, 0, 69, 88
2, 18959, Note_off_c, 0, 69, 0
2, 18960, Note_on_c, 0, 71, 88
2, 19019, Note_off_c, 0, 71, 0
2, 19020, Note_on_c, 0, 72, 88
2, 19079, Note_off_c, 0, 72, 0
2, 19080, Note_on_c, 0, 74, 88
2, 19139, Note_off_c, 0, 74, 0
2, 19140, Note_on_c, 0, 65, 88
2, 19199, Note_off_c, 0, 65, 0
2, 19200, Note_on_c, 0, 67, 88
2, 19259, Note_off_c, 0, 67, 0
2, 19260, Note_on_c, 0, 68, 88
2, 19319, Note_off_c, 0, 68, 0
2, 19320, Note_on_c, 0, 67, 88
2, 19379, Note_off_c, 0, 67, 0
2, 19380, Note_on_c, 0, 65, 88
2, 19439, Note_off_c, 0, 65, 0
2, 19440, Note_on_c, 0, 64, 88
2, 19499, Note_off_c, 0, 64, 0
2, 19500, Note_on_c, 0, 60, 88
2, 19559, Note_off_c, 0, 60, 0
2, 19560, Note_on_c, 0, 59, 88
2, 19619, Note_off_c, 0, 59, 0
2, 19620, Note_on_c, 0, 60, 88
2, 19679, Note_off_c, 0, 60, 0
2, 19680, Note_on_c, 0, 62, 88
2, 19739, Note_off_c, 0, 62, 0
2, 19740, Note_on_c, 0, 64, 88
2, 19799, Note_off_c, 0, 64, 0
2, 19800, Note_on_c, 0, 65, 88
2, 19859, Note_off_c, 0, 65, 0
2, 19860, Note_on_c, 0, 60, 88
2, 19919, Note_off_c, 0, 60, 0
2, 19920, Note_on_c, 0, 59, 88
2, 19979, Note_off_c, 0, 59, 0
2, 19980, Note_on_c, 0, 60, 88
2, 20039, Note_off_c, 0, 60, 0
2, 20040, Note_on_c, 0, 64, 88
2, 20099, Note_off_c, 0, 64, 0
2, 20100, Note_on_c, 0, 65, 88
2, 20159, Note_off_c, 0, 65, 0
2, 20160, Note_on_c, 0, 67, 88
2, 20219, Note_off_c, 0, 67, 0
2, 20220, Note_on_c, 0, 60, 88
2, 20279, Note_off_c, 0, 60, 0
2, 20280, Note_on_c, 0, 59, 88
2, 20339, Note_off_c, 0, 59, 0
2, 20340, Note_on_c, 0, 60, 88
2, 20399, Note_off_c, 0, 60, 0
2, 20400, Note_on_c, 0, 65, 88
2, 20459, Note_off_c, 0, 65, 0
2, 20460, Note_on_c, 0, 67, 88
2, 20519, Note_off_c, 0, 67, 0
2, 20520, Note_on_c, 0, 68, 88
2, 20579, Note_off_c, 0, 68, 0
2, 20580, Note_on_c, 0, 65, 88
2, 20639, Note_off_c, 0, 65, 0
2, 20640, Note_on_c, 0, 67, 88
2, 20699, Note_off_c, 0, 67, 0
2, 20700, Note_on_c, 0, 68, 88
2, 20759, Note_off_c, 0, 68, 0
2, 20760, Note_on_c, 0, 70, 88
2, 20819, Note_off_c, 0, 70, 0
2, 20820, Note_on_c, 0, 72, 88
2, 20879, Note_off_c, 0, 72, 0
2, 20880, Note_on_c, 0, 73, 88
2, 20939, Note_off_c, 0, 73, 0
2, 20940, Note_on_c, 0, 70, 88
2, 20999, Note_off_c, 0, 70, 0
2, 21000, Note_on_c, 0, 72, 88
2, 21059, Note_off_c, 0, 72, 0
2, 21060, Note_on_c, 0, 73, 88
2, 21119, Note_off_c, 0, 73, 0
2, 21120, Note_on_c, 0, 75, 88
2, 21179, Note_off_c, 0, 75, 0
2, 21180, Note_on_c, 0, 77, 88
2, 21239, Note_off_c, 0, 77, 0
2, 21240, Note_on_c, 0, 78, 88
2, 21299, Note_off_c, 0, 78, 0
2, 21300, Note_on_c, 0, 80, 88
2, 21359, Note_off_c, 0, 80, 0
2, 21360, Note_on_c, 0, 82, 88
2, 21419, Note_off_c, 0, 82, 0
2, 21420, Note_on_c, 0, 80, 88
2, 21479, Note_off_c, 0, 80, 0
2, 21480, Note_on_c, 0, 78, 88
2, 21539, Note_off_c, 0, 78, 0
2, 21540, Note_on_c, 0, 77, 88
2, 21599, Note_off_c, 0, 77, 0
2, 21600, Note_on_c, 0, 76, 88
2, 21659, Note_off_c, 0, 76, 0
2, 21660, Note_on_c, 0, 79, 88
2, 21719, Note_off_c, 0, 79, 0
2, 21720, Note_on_c, 0, 70, 88
2, 21779, Note_off_c, 0, 70, 0
2, 21780, Note_on_c, 0, 73, 88
2, 21839, Note_off_c, 0, 73, 0
2, 21840, Note_on_c, 0, 72, 88
2, 21899, Note_off_c, 0, 72, 0
2, 21900, Note_on_c, 0, 70, 88
2, 21959, Note_off_c, 0, 70, 0
2, 21960, Note_on_c, 0, 72, 88
2, 22019, Note_off_c, 0, 72, 0
2, 22020, Note_on_c, 0, 77, 88
2, 22079, Note_off_c, 0, 77, 0
2, 22080, Note_on_c, 0, 69, 88
2, 22139, Note_off_c, 0, 69, 0
2, 22140, Note_on_c, 0, 70, 88
2, 22199, Note_off_c, 0, 70, 0
2, 22200, Note_on_c, 0, 72, 88
2, 22259, Note_off_c, 0, 72, 0
2, 22260, Note_on_c, 0, 74, 88
2, 22319, Note_off_c, 0, 74, 0
2, 22320, Note_on_c, 0, 72, 88
2, 22379, Note_off_c, 0, 72, 0
2, 22380, Note_on_c, 0, 70, 88
2, 22439, Note_off_c, 0, 70, 0
2, 22440, Note_on_c, 0, 69, 88
2, 22499, Note_off_c, 0, 69, 0
2, 22500, Note_on_c, 0, 67, 88
2, 22559, Note_off_c, 0, 67, 0
2, 22560, Note_on_c, 0, 77, 88
2, 22619, Note_off_c, 0, 77, 0
2, 22620, Note_on_c, 0, 76, 88
2, 22679, Note_off_c, 0, 76, 0
2, 22680, Note_on_c, 0, 77, 88
2, 22739, Note_off_c, 0, 77, 0
2, 22740, Note_on_c, 0, 72, 88
2, 22799, Note_off_c, 0, 72, 0
2, 22800, Note_on_c, 0, 69, 88
2, 22859, Note_off_c, 0, 69, 0
2, 22860, Note_on_c, 0, 65, 88
2, 23099, Note_off_c, 0, 65, 0
2, 23100, Note_on_c, 0, 82, 88
2, 23159, Note_off_c, 0, 82, 0
2, 23160, Note_on_c, 0, 81, 88
2, 23219, Note_off_c, 0, 81, 0
2, 23220, Note_on_c, 0, 79, 88
2, 23279, Note_off_c, 0, 79, 0
2, 23280, Note_on_c, 0, 77, 88
2, 23339, Note_off_c, 0, 77, 0
2, 23340, Note_on_c, 0, 75, 88
2, 23399, Note_off_c, 0, 75, 0
2, 23400, Note_on_c, 0, 74, 88
2, 23579, Note_off_c, 0, 74, 0
2, 23580, Note_on_c, 0, 75, 88
2, 23759, Note_off_c, 0, 75, 0
2, 23760, Note_on_c, 0, 77, 88
2, 23879, Note_off_c, 0, 77, 0
2, 23880, Note_on_c, 0, 74, 88
2, 23939, Note_off_c, 0, 74, 0
2, 23940, Note_on_c, 0, 75, 88
2, 24059, Note_off_c, 0, 75, 0
2, 24060, Note_on_c, 0, 79, 88
2, 24119, Note_off_c, 0, 79, 0
2, 24120, Note_on_c, 0, 81, 88
2, 24134, Note_off_c, 0, 81, 0
2, 24135, Note_on_c, 0, 79, 88
2, 24149, Note_off_c, 0, 79, 0
2, 24150, Note_on_c, 0, 81, 88
2, 24164, Note_off_c, 0, 81, 0
2, 24165, Note_on_c, 0, 79, 88
2, 24179, Note_off_c, 0, 79, 0
2, 24180, Note_on_c, 0, 77, 88
2, 24239, Note_off_c, 0, 77, 0
2, 24240, Note_on_c, 0, 79, 88
2, 24299, Note_off_c, 0, 79, 0
2, 24300, Note_on_c, 0, 77, 88
2, 24599, Note_off_c, 0, 77, 0
2, 24600, Note_on_c, 0, 70, 88
2, 24659, Note_off_c, 0, 70, 0
2, 24660, Note_on_c, 0, 69, 88
2, 24779, Note_off_c, 0, 69, 0
2, 24780, Note_on_c, 0, 75, 88
2, 24839, Note_off_c, 0, 75, 0
2, 24840, Note_on_c, 0, 74, 88
2, 25019, Note_off_c, 0, 74, 0
2, 25020, Note_on_c, 0, 72, 88
2, 25199, Note_off_c, 0, 72, 0
2, 25200, Note_on_c, 0, 70, 88
2, 25259, Note_off_c, 0, 70, 0
2, 25260, Note_on_c, 0, 72, 88
2, 25319, Note_off_c, 0, 72, 0
2, 25320, Note_on_c, 0, 74, 88
2, 25379, Note_off_c, 0, 74, 0
2, 25380, Note_on_c, 0, 75, 88
2, 25439, Note_off_c, 0, 75, 0
2, 25440, Note_on_c, 0, 77, 88
2, 25499, Note_off_c, 0, 77, 0
2, 25500, Note_on_c, 0, 79, 88
2, 25559, Note_off_c, 0, 79, 0
2, 25560, Note_on_c, 0, 72, 88
2, 25979, Note_off_c, 0, 72, 0
2, 25980, Note_on_c, 0, 69, 88
2, 26039, Note_off_c, 0, 69, 0
2, 26040, Note_on_c, 0, 70, 88
2, 26099, Note_off_c, 0, 70, 0
2, 26100, Note_on_c, 0, 72, 88
2, 26159, Note_off_c, 0, 72, 0
2, 26160, Note_on_c, 0, 74, 88
2, 26219, Note_off_c, 0, 74, 0
2, 26220, Note_on_c, 0, 75, 88
2, 26279, Note_off_c, 0, 75, 0
2, 26280, Note_on_c, 0, 77, 88
2, 26459, Note_off_c, 0, 77, 0
2, 26460, Note_on_c, 0, 75, 88
2, 26639, Note_off_c, 0, 75, 0
2, 26640, Note_on_c, 0, 74, 88
2, 26939, Note_off_c, 0, 74, 0
2, 26940, Note_on_c, 0, 72, 88
2, 26999, Note_off_c, 0, 72, 0
2, 27000, Note_on_c, 0, 70, 88
2, 27419, Note_off_c, 0, 70, 0
2, 27420, Note_on_c, 0, 72, 88
2, 27479, Note_off_c, 0, 72, 0
2, 27480, Note_on_c, 0, 67, 88
2, 27539, Note_off_c, 0, 67, 0
2, 27540, Note_on_c, 0, 69, 88
2, 27899, Note_off_c, 0, 69, 0
2, 27900, Note_on_c, 0, 72, 88
2, 27918, Note_off_c, 0, 72, 0
2, 27919, Note_on_c, 0, 70, 88
2, 27937, Note_off_c, 0, 70, 0
2, 27938, Note_on_c, 0, 72, 88
2, 27955, Note_off_c, 0, 72, 0
2, 27956, Note_on_c, 0, 70, 88
2, 27974, Note_off_c, 0, 70, 0
2, 27975, Note_on_c, 0, 72, 88
2, 27993, Note_off_c, 0, 72, 0
2, 27994, Note_on_c, 0, 70, 88
2, 28012, Note_off_c, 0, 70, 0
2, 28013, Note_on_c, 0, 72, 88
2, 28030, Note_off_c, 0, 72, 0
2, 28031, Note_on_c, 0, 70, 88
2, 28049, Note_off_c, 0, 70, 0
2, 28050, Note_on_c, 0, 69, 88
2, 28064, Note_off_c, 0, 69, 0
2, 28065, Note_on_c, 0, 70, 88
2, 28079, Note_off_c, 0, 70, 0
2, 28080, Note_on_c, 0, 72, 88
2, 28139, Note_off_c, 0, 72, 0
2, 28140, Note_on_c, 0, 77, 88
2, 28199, Note_off_c, 0, 77, 0
2, 28200, Note_on_c, 0, 76, 88
2, 28259, Note_off_c, 0, 76, 0
2, 28260, Note_on_c, 0, 74, 88
2, 28319, Note_off_c, 0, 74, 0
2, 28320, Note_on_c, 0, 72, 88
2, 28379, Note_off_c, 0, 72, 0
2, 28380, Note_on_c, 0, 70, 88
2, 28439, Note_off_c, 0, 70, 0
2, 28440, Note_on_c, 0, 70, 88
2, 28454, Note_off_c, 0, 70, 0
2, 28455, Note_on_c, 0, 69, 88
2, 28469, Note_off_c, 0, 69, 0
2, 28470, Note_on_c, 0, 70, 88
2, 28484, Note_off_c, 0, 70, 0
2, 28485, Note_on_c, 0, 69, 88
2, 28499, Note_off_c, 0, 69, 0
2, 28500, Note_on_c, 0, 67, 88
2, 28559, Note_off_c, 0, 67, 0
2, 28560, Note_on_c, 0, 69, 88
2, 28619, Note_off_c, 0, 69, 0
2, 28620, Note_on_c, 0, 67, 88
2, 28799, Note_off_c, 0, 67, 0
2, 28800, Note_on_c, 0, 60, 88
2, 28859, Note_off_c, 0, 60, 0
2, 28860, Note_on_c, 0, 64, 88
2, 28919, Note_off_c, 0, 64, 0
2, 28920, Note_on_c, 0, 67, 88
2, 28979, Note_off_c, 0, 67, 0
2, 28980, Note_on_c, 0, 70, 88
2, 29039, Note_off_c, 0, 70, 0
2, 29040, Note_on_c, 0, 69, 88
2, 29099, Note_off_c, 0, 69, 0
2, 29100, Note_on_c, 0, 70, 88
2, 29159, Note_off_c, 0, 70, 0
2, 29160, Note_on_c, 0, 60, 88
2, 29219, Note_off_c, 0, 60, 0
2, 29220, Note_on_c, 0, 64, 88
2, 29279, Note_off_c, 0, 64, 0
2, 29280, Note_on_c, 0, 65, 88
2, 29339, Note_off_c, 0, 65, 0
2, 29340, Note_on_c, 0, 69, 88
2, 29399, Note_off_c, 0, 69, 0
2, 29400, Note_on_c, 0, 67, 88
2, 29459, Note_off_c, 0, 67, 0
2, 29460, Note_on_c, 0, 69, 88
2, 29519, Note_off_c, 0, 69, 0
2, 29520, Note_on_c, 0, 58, 88
2, 29579, Note_off_c, 0, 58, 0
2, 29580, Note_on_c, 0, 62, 88
2, 29639, Note_off_c, 0, 62, 0
2, 29640, Note_on_c, 0, 64, 88
2, 29699, Note_off_c, 0, 64, 0
2, 29700, Note_on_c, 0, 67, 88
2, 29759, Note_off_c, 0, 67, 0
2, 29760, Note_on_c, 0, 65, 88
2, 29819, Note_off_c, 0, 65, 0
2, 29820, Note_on_c, 0, 67, 88
2, 29879, Note_off_c, 0, 67, 0
2, 29880, Note_on_c, 0, 58, 88
2, 29939, Note_off_c, 0, 58, 0
2, 29940, Note_on_c, 0, 57, 88
2, 29999, Note_off_c, 0, 57, 0
2, 30000, Note_on_c, 0, 60, 88
2, 30059, Note_off_c, 0, 60, 0
2, 30060, Note_on_c, 0, 65, 88
2, 30119, Note_off_c, 0, 65, 0
2, 30120, Note_on_c, 0, 69, 88
2, 30179, Note_off_c, 0, 69, 0
2, 30180, Note_on_c, 0, 72, 88
2, 30239, Note_off_c, 0, 72, 0
2, 30240, Note_on_c, 0, 75, 88
2, 30299, Note_off_c, 0, 75, 0
2, 30300, Note_on_c, 0, 74, 88
2, 30359, Note_off_c, 0, 74, 0
2, 30360, Note_on_c, 0, 75, 88
2, 30419, Note_off_c, 0, 75, 0
2, 30420, Note_on_c, 0, 65, 88
2, 30479, Note_off_c, 0, 65, 0
2, 30480, Note_on_c, 0, 69, 88
2, 30539, Note_off_c, 0, 69, 0
2, 30540, Note_on_c, 0, 72, 88
2, 30599, Note_off_c, 0, 72, 0
2, 30600, Note_on_c, 0, 74, 88
2, 30659, Note_off_c, 0, 74, 0
2, 30660, Note_on_c, 0, 72, 88
2, 30719, Note_off_c, 0, 72, 0
2, 30720, Note_on_c, 0, 74, 88
2, 30779, Note_off_c, 0, 74, 0
2, 30780, Note_on_c, 0, 65, 88
2, 30839, Note_off_c, 0, 65, 0
2, 30840, Note_on_c, 0, 69, 88
2, 30899, Note_off_c, 0, 69, 0
2, 30900, Note_on_c, 0, 70, 88
2, 30959, Note_off_c, 0, 70, 0
2, 30960, Note_on_c, 0, 72, 88
2, 31019, Note_off_c, 0, 72, 0
2, 31020, Note_on_c, 0, 70, 88
2, 31079, Note_off_c, 0, 70, 0
2, 31080, Note_on_c, 0, 72, 88
2, 31139, Note_off_c, 0, 72, 0
2, 31140, Note_on_c, 0, 63, 88
2, 31199, Note_off_c, 0, 63, 0
2, 31200, Note_on_c, 0, 67, 88
2, 31259, Note_off_c, 0, 67, 0
2, 31260, Note_on_c, 0, 69, 88
2, 31319, Note_off_c, 0, 69, 0
2, 31320, Note_on_c, 0, 69, 88
2, 31379, Note_off_c, 0, 69, 0
2, 31380, Note_on_c, 0, 70, 88
2, 31439, Note_off_c, 0, 70, 0
2, 31440, Note_on_c, 0, 65, 88
2, 31499, Note_off_c, 0, 65, 0
2, 31500, Note_on_c, 0, 62, 88
2, 31739, Note_off_c, 0, 62, 0
2, 31740, Note_on_c, 0, 60, 88
2, 31799, Note_off_c, 0, 60, 0
2, 31800, Note_on_c, 0, 62, 88
2, 31859, Note_off_c, 0, 62, 0
2, 31860, Note_on_c, 0, 57, 88
2, 31919, Note_off_c, 0, 57, 0
2, 31920, Note_on_c, 0, 62, 88
2, 31979, Note_off_c, 0, 62, 0
2, 31980, Note_on_c, 0, 58, 88
2, 32039, Note_off_c, 0, 58, 0
2, 32040, Note_on_c, 0, 55, 88
2, 32099, Note_off_c, 0, 55, 0
2, 32100, Note_on_c, 0, 62, 88
2, 32159, Note_off_c, 0, 62, 0
2, 32160, Note_on_c, 0, 58, 88
2, 32219, Note_off_c, 0, 58, 0
2, 32220, Note_on_c, 0, 55, 88
2, 32279, Note_off_c, 0, 55, 0
2, 32280, Note_on_c, 0, 62, 88
2, 32339, Note_off_c, 0, 62, 0
2, 32340, Note_on_c, 0, 70, 88
2, 32399, Note_off_c, 0, 70, 0
2, 32400, Note_on_c, 0, 60, 88
2, 32459, Note_off_c, 0, 60, 0
2, 32460, Note_on_c, 0, 58, 88
2, 32519, Note_off_c, 0, 58, 0
2, 32520, Note_on_c, 0, 60, 88
2, 32579, Note_off_c, 0, 60, 0
2, 32580, Note_on_c, 0, 55, 88
2, 32639, Note_off_c, 0, 55, 0
2, 32640, Note_on_c, 0, 60, 88
2, 32699, Note_off_c, 0, 60, 0
2, 32700, Note_on_c, 0, 57, 88
2, 32759, Note_off_c, 0, 57, 0
2, 32760, Note_on_c, 0, 54, 88
2, 32819, Note_off_c, 0, 54, 0
2, 32820, Note_on_c, 0, 60, 88
2, 32879, Note_off_c, 0, 60, 0
2, 32880, Note_on_c, 0, 57, 88
2, 32939, Note_off_c, 0, 57, 0
2, 32940, Note_on_c, 0, 54, 88
2, 32999, Note_off_c, 0, 54, 0
2, 33000, Note_on_c, 0, 60, 88
2, 33059, Note_off_c, 0, 60, 0
2, 33060, Note_on_c, 0, 69, 88
2, 33119, Note_off_c, 0, 69, 0
2, 33120, Note_on_c, 0, 58, 88
2, 33179, Note_off_c, 0, 58, 0
2, 33180, Note_on_c, 0, 57, 88
2, 33239, Note_off_c, 0, 57, 0
2, 33240, Note_on_c, 0, 58, 88
2, 33299, Note_off_c, 0, 58, 0
2, 33300, Note_on_c, 0, 62, 88
2, 33479, Note_off_c, 0, 62, 0
2, 33480, Note_on_c, 0, 67, 88
2, 33659, Note_off_c, 0, 67, 0
2, 33660, Note_on_c, 0, 48, 88
2, 33839, Note_off_c, 0, 48, 0
2, 33840, Note_on_c, 0, 41, 88
2, 34019, Note_off_c, 0, 41, 0
2, 34020, Note_on_c, 0, 60, 88
2, 34199, Note_off_c, 0, 60, 0
2, 34200, Note_on_c, 0, 65, 88
2, 34379, Note_off_c, 0, 65, 0
2, 34380, Note_on_c, 0, 46, 88
2, 34559, Note_off_c, 0, 46, 0
2, 34560, Note_on_c, 0, 39, 88
2, 34739, Note_off_c, 0, 39, 0
2, 34740, Note_on_c, 0, 63, 88
2, 34979, Note_off_c, 0, 63, 0
2, 34980, Note_on_c, 0, 72, 88
2, 35039, Note_off_c, 0, 72, 0
2, 35040, Note_on_c, 0, 70, 88
2, 35099, Note_off_c, 0, 70, 0
2, 35100, Note_on_c, 0, 69, 88
2, 35159, Note_off_c, 0, 69, 0
2, 35160, Note_on_c, 0, 67, 88
2, 35219, Note_off_c, 0, 67, 0
2, 35220, Note_on_c, 0, 65, 88
2, 35279, Note_off_c, 0, 65, 0
2, 35280, Note_on_c, 0, 63, 88
2, 35399, Note_off_c, 0, 63, 0
2, 35400, Note_on_c, 0, 62, 88
2, 35459, Note_off_c, 0, 62, 0
2, 35460, Note_on_c, 0, 70, 88
2, 35699, Note_off_c, 0, 70, 0
2, 35700, Note_on_c, 0, 74, 88
2, 35759, Note_off_c, 0, 74, 0
2, 35760, Note_on_c, 0, 72, 88
2, 35819, Note_off_c, 0, 72, 0
2, 35820, Note_on_c, 0, 70, 88
2, 35879, Note_off_c, 0, 70, 0
2, 35880, Note_on_c, 0, 69, 88
2, 35939, Note_off_c, 0, 69, 0
2, 35940, Note_on_c, 0, 67, 88
2, 35999, Note_off_c, 0, 67, 0
2, 36000, Note_on_c, 0, 65, 88
2, 36059, Note_off_c, 0, 65, 0
2, 36060, Note_on_c, 0, 67, 88
2, 36119, Note_off_c, 0, 67, 0
2, 36120, Note_on_c, 0, 69, 88
2, 36179, Note_off_c, 0, 69, 0
2, 36180, Note_on_c, 0, 70, 88
2, 36239, Note_off_c, 0, 70, 0
2, 36240, Note_on_c, 0, 72, 88
2, 36299, Note_off_c, 0, 72, 0
2, 36300, Note_on_c, 0, 74, 88
2, 36539, Note_off_c, 0, 74, 0
2, 36540, Note_on_c, 0, 72, 88
2, 36659, Note_off_c, 0, 72, 0
2, 36660, Note_on_c, 0, 70, 88
2, 36719, Note_off_c, 0, 70, 0
2, 36720, Note_on_c, 0, 69, 88
2, 36779, Note_off_c, 0, 69, 0
2, 36780, Note_on_c, 0, 70, 88
2, 36839, Note_off_c, 0, 70, 0
2, 36840, Note_on_c, 0, 72, 88
2, 36899, Note_off_c, 0, 72, 0
2, 36900, Note_on_c, 0, 74, 88
2, 36959, Note_off_c, 0, 74, 0
2, 36960, Note_on_c, 0, 76, 88
2, 37019, Note_off_c, 0, 76, 0
2, 37020, Note_on_c, 0, 77, 88
2, 37259, Note_off_c, 0, 77, 0
2, 37260, Note_on_c, 0, 76, 88
2, 37379, Note_off_c, 0, 76, 0
2, 37380, Note_on_c, 0, 74, 88
2, 37439, Note_off_c, 0, 74, 0
2, 37440, Note_on_c, 0, 72, 88
2, 37499, Note_off_c, 0, 72, 0
2, 37500, Note_on_c, 0, 77, 88
2, 37559, Note_off_c, 0, 77, 0
2, 37560, Note_on_c, 0, 76, 88
2, 37619, Note_off_c, 0, 76, 0
2, 37620, Note_on_c, 0, 74, 88
2, 37679, Note_off_c, 0, 74, 0
2, 37680, Note_on_c, 0, 72, 88
2, 37739, Note_off_c, 0, 72, 0
2, 37740, Note_on_c, 0, 70, 88
2, 37799, Note_off_c, 0, 70, 0
2, 37800, Note_on_c, 0, 69, 88
2, 37859, Note_off_c, 0, 69, 0
2, 37860, Note_on_c, 0, 67, 88
2, 37919, Note_off_c, 0, 67, 0
2, 37920, Note_on_c, 0, 69, 88
2, 37979, Note_off_c, 0, 69, 0
2, 37980, Note_on_c, 0, 70, 88
2, 38039, Note_off_c, 0, 70, 0
2, 38040, Note_on_c, 0, 69, 88
2, 38099, Note_off_c, 0, 69, 0
2, 38100, Note_on_c, 0, 67, 88
2, 38159, Note_off_c, 0, 67, 0
2, 38160, Note_on_c, 0, 65, 88
2, 38219, Note_off_c, 0, 65, 0
2, 38220, Note_on_c, 0, 67, 88
2, 38279, Note_off_c, 0, 67, 0
2, 38280, Note_on_c, 0, 69, 88
2, 38339, Note_off_c, 0, 69, 0
2, 38340, Note_on_c, 0, 70, 88
2, 38399, Note_off_c, 0, 70, 0
2, 38400, Note_on_c, 0, 72, 88
2, 38459, Note_off_c, 0, 72, 0
2, 38460, Note_on_c, 0, 74, 88
2, 38519, Note_off_c, 0, 74, 0
2, 38520, Note_on_c, 0, 74, 88
2, 38639, Note_off_c, 0, 74, 0
2, 38640, Note_on_c, 0, 67, 88
2, 38699, Note_off_c, 0, 67, 0
2, 38700, Note_on_c, 0, 69, 88
2, 38759, Note_off_c, 0, 69, 0
2, 38760, Note_on_c, 0, 70, 88
2, 38819, Note_off_c, 0, 70, 0
2, 38820, Note_on_c, 0, 72, 88
2, 38879, Note_off_c, 0, 72, 0
2, 38880, Note_on_c, 0, 72, 88
2, 38999, Note_off_c, 0, 72, 0
2, 39000, Note_on_c, 0, 65, 88
2, 39059, Note_off_c, 0, 65, 0
2, 39060, Note_on_c, 0, 67, 88
2, 39119, Note_off_c, 0, 67, 0
2, 39120, Note_on_c, 0, 69, 88
2, 39179, Note_off_c, 0, 69, 0
2, 39180, Note_on_c, 0, 70, 88
2, 39239, Note_off_c, 0, 70, 0
2, 39240, Note_on_c, 0, 70, 88
2, 39659, Note_off_c, 0, 70, 0
2, 39660, Note_on_c, 0, 65, 88
2, 39719, Note_off_c, 0, 65, 0
2, 39720, Note_on_c, 0, 67, 88
2, 39779, Note_off_c, 0, 67, 0
2, 39780, Note_on_c, 0, 69, 88
2, 39839, Note_off_c, 0, 69, 0
2, 39840, Note_on_c, 0, 70, 88
2, 39899, Note_off_c, 0, 70, 0
2, 39900, Note_on_c, 0, 72, 88
2, 39959, Note_off_c, 0, 72, 0
2, 39960, Note_on_c, 0, 74, 88
2, 40019, Note_off_c, 0, 74, 0
2, 40020, Note_on_c, 0, 70, 88
2, 40079, Note_off_c, 0, 70, 0
2, 40080, Note_on_c, 0, 72, 88
2, 40139, Note_off_c, 0, 72, 0
2, 40140, Note_on_c, 0, 74, 88
2, 40199, Note_off_c, 0, 74, 0
2, 40200, Note_on_c, 0, 76, 88
2, 40259, Note_off_c, 0, 76, 0
2, 40260, Note_on_c, 0, 77, 88
2, 40319, Note_off_c, 0, 77, 0
2, 40320, Note_on_c, 0, 79, 88
2, 40799, Note_off_c, 0, 79, 0
2, 40800, Note_on_c, 0, 72, 88
2, 40859, Note_off_c, 0, 72, 0
2, 40860, Note_on_c, 0, 77, 88
2, 40979, Note_off_c, 0, 77, 0
2, 40980, Note_on_c, 0, 75, 88
2, 41039, Note_off_c, 0, 75, 0
2, 41040, Note_on_c, 0, 74, 88
2, 41519, Note_off_c, 0, 74, 0
2, 41520, Note_on_c, 0, 67, 88
2, 41579, Note_off_c, 0, 67, 0
2, 41580, Note_on_c, 0, 72, 88
2, 41699, Note_off_c, 0, 72, 0
2, 41700, Note_on_c, 0, 70, 88
2, 41759, Note_off_c, 0, 70, 0
2, 41760, Note_on_c, 0, 69, 88
2, 41999, Note_off_c, 0, 69, 0
2, 42000, Note_on_c, 0, 71, 88
2, 42059, Note_off_c, 0, 71, 0
2, 42060, Note_on_c, 0, 72, 88
2, 42119, Note_off_c, 0, 72, 0
2, 42120, Note_on_c, 0, 74, 88
2, 42179, Note_off_c, 0, 74, 0
2, 42180, Note_on_c, 0, 65, 88
2, 42239, Note_off_c, 0, 65, 0
2, 42240, Note_on_c, 0, 67, 88
2, 42299, Note_off_c, 0, 67, 0
2, 42300, Note_on_c, 0, 68, 88
2, 42359, Note_off_c, 0, 68, 0
2, 42360, Note_on_c, 0, 67, 88
2, 42419, Note_off_c, 0, 67, 0
2, 42420, Note_on_c, 0, 65, 88
2, 42479, Note_off_c, 0, 65, 0
2, 42480, Note_on_c, 0, 64, 88
2, 42539, Note_off_c, 0, 64, 0
2, 42540, Note_on_c, 0, 60, 88
2, 42599, Note_off_c, 0, 60, 0
2, 42600, Note_on_c, 0, 59, 88
2, 42659, Note_off_c, 0, 59, 0
2, 42660, Note_on_c, 0, 60, 88
2, 42719, Note_off_c, 0, 60, 0
2, 42720, Note_on_c, 0, 62, 88
2, 42779, Note_off_c, 0, 62, 0
2, 42780, Note_on_c, 0, 64, 88
2, 42839, Note_off_c, 0, 64, 0
2, 42840, Note_on_c, 0, 65, 88
2, 42899, Note_off_c, 0, 65, 0
2, 42900, Note_on_c, 0, 60, 88
2, 42959, Note_off_c, 0, 60, 0
2, 42960, Note_on_c, 0, 59, 88
2, 43019, Note_off_c, 0, 59, 0
2, 43020, Note_on_c, 0, 60, 88
2, 43079, Note_off_c, 0, 60, 0
2, 43080, Note_on_c, 0, 64, 88
2, 43139, Note_off_c, 0, 64, 0
2, 43140, Note_on_c, 0, 65, 88
2, 43199, Note_off_c, 0, 65, 0
2, 43200, Note_on_c, 0, 67, 88
2, 43259, Note_off_c, 0, 67, 0
2, 43260, Note_on_c, 0, 60, 88
2, 43319, Note_off_c, 0, 60, 0
2, 43320, Note_on_c, 0, 59, 88
2, 43379, Note_off_c, 0, 59, 0
2, 43380, Note_on_c, 0, 60, 88
2, 43439, Note_off_c, 0, 60, 0
2, 43440, Note_on_c, 0, 65, 88
2, 43499, Note_off_c, 0, 65, 0
2, 43500, Note_on_c, 0, 67, 88
2, 43559, Note_off_c, 0, 67, 0
2, 43560, Note_on_c, 0, 68, 88
2, 43619, Note_off_c, 0, 68, 0
2, 43620, Note_on_c, 0, 65, 88
2, 43679, Note_off_c, 0, 65, 0
2, 43680, Note_on_c, 0, 67, 88
2, 43739, Note_off_c, 0, 67, 0
2, 43740, Note_on_c, 0, 68, 88
2, 43799, Note_off_c, 0, 68, 0
2, 43800, Note_on_c, 0, 70, 88
2, 43859, Note_off_c, 0, 70, 0
2, 43860, Note_on_c, 0, 72, 88
2, 43919, Note_off_c, 0, 72, 0
2, 43920, Note_on_c, 0, 73, 88
2, 43979, Note_off_c, 0, 73, 0
2, 43980, Note_on_c, 0, 70, 88
2, 44039, Note_off_c, 0, 70, 0
2, 44040, Note_on_c, 0, 72, 88
2, 44099, Note_off_c, 0, 72, 0
2, 44100, Note_on_c, 0, 73, 88
2, 44159, Note_off_c, 0, 73, 0
2, 44160, Note_on_c, 0, 75, 88
2, 44219, Note_off_c, 0, 75, 0
2, 44220, Note_on_c, 0, 77, 88
2, 44279, Note_off_c, 0, 77, 0
2, 44280, Note_on_c, 0, 78, 88
2, 44339, Note_off_c, 0, 78, 0
2, 44340, Note_on_c, 0, 80, 88
2, 44399, Note_off_c, 0, 80, 0
2, 44400, Note_on_c, 0, 82, 88
2, 44459, Note_off_c, 0, 82, 0
2, 44460, Note_on_c, 0, 80, 88
2, 44519, Note_off_c, 0, 80, 0
2, 44520, Note_on_c, 0, 78, 88
2, 44579, Note_off_c, 0, 78, 0
2, 44580, Note_on_c, 0, 77, 88
2, 44639, Note_off_c, 0, 77, 0
2, 44640, Note_on_c, 0, 76, 88
2, 44699, Note_off_c, 0, 76, 0
2, 44700, Note_on_c, 0, 79, 88
2, 44759, Note_off_c, 0, 79, 0
2, 44760, Note_on_c, 0, 70, 88
2, 44819, Note_off_c, 0, 70, 0
2, 44820, Note_on_c, 0, 73, 88
2, 44879, Note_off_c, 0, 73, 0
2, 44880, Note_on_c, 0, 72, 88
2, 44939, Note_off_c, 0, 72, 0
2, 44940, Note_on_c, 0, 70, 88
2, 44999, Note_off_c, 0, 70, 0
2, 45000, Note_on_c, 0, 72, 88
2, 45059, Note_off_c, 0, 72, 0
2, 45060, Note_on_c, 0, 77, 88
2, 45119, Note_off_c, 0, 77, 0
2, 45120, Note_on_c, 0, 69, 88
2, 45179, Note_off_c, 0, 69, 0
2, 45180, Note_on_c, 0, 70, 88
2, 45239, Note_off_c, 0, 70, 0
2, 45240, Note_on_c, 0, 72, 88
2, 45299, Note_off_c, 0, 72, 0
2, 45300, Note_on_c, 0, 74, 88
2, 45359, Note_off_c, 0, 74, 0
2, 45360, Note_on_c, 0, 72, 88
2, 45419, Note_off_c, 0, 72, 0
2, 45420, Note_on_c, 0, 70, 88
2, 45479, Note_off_c, 0, 70, 0
2, 45480, Note_on_c, 0, 69, 88
2, 45539, Note_off_c, 0, 69, 0
2, 45540, Note_on_c, 0, 67, 88
2, 45599, Note_off_c, 0, 67, 0
2, 45600, Note_on_c, 0, 77, 88
2, 45659, Note_off_c, 0, 77, 0
2, 45660, Note_on_c, 0, 76, 88
2, 45719, Note_off_c, 0, 76, 0
2, 45720, Note_on_c, 0, 77, 88
2, 45779, Note_off_c, 0, 77, 0
2, 45780, Note_on_c, 0, 72, 88
2, 45839, Note_off_c, 0, 72, 0
2, 45840, Note_on_c, 0, 69, 88
2, 45899, Note_off_c, 0, 69, 0
2, 45900, Note_on_c, 0, 65, 88
2, 46079, Note_off_c, 0, 65, 0
2, 46080, Note_on_c, 0, 69, 88
2, 46139, Note_off_c, 0, 69, 0
2, 46140, Note_on_c, 0, 65, 88
2, 46199, Note_off_c, 0, 65, 0
2, 46200, Note_on_c, 0, 64, 88
2, 46259, Note_off_c, 0, 64, 0
2, 46260, Note_on_c, 0, 65, 88
2, 46319, Note_off_c, 0, 65, 0
2, 46320, Note_on_c, 0, 67, 88
2, 46379, Note_off_c, 0, 67, 0
2, 46380, Note_on_c, 0, 69, 88
2, 46439, Note_off_c, 0, 69, 0
2, 46440, Note_on_c, 0, 70, 88
2, 46499, Note_off_c, 0, 70, 0
2, 46500, Note_on_c, 0, 65, 88
2, 46559, Note_off_c, 0, 65, 0
2, 46560, Note_on_c, 0, 64, 88
2, 46619, Note_off_c, 0, 64, 0
2, 46620, Note_on_c, 0, 65, 88
2, 46679, Note_off_c, 0, 65, 0
2, 46680, Note_on_c, 0, 69, 88
2, 46739, Note_off_c, 0, 69, 0
2, 46740, Note_on_c, 0, 70, 88
2, 46799, Note_off_c, 0, 70, 0
2, 46800, Note_on_c, 0, 72, 88
2, 46859, Note_off_c, 0, 72, 0
2, 46860, Note_on_c, 0, 65, 88
2, 46919, Note_off_c, 0, 65, 0
2, 46920, Note_on_c, 0, 64, 88
2, 46979, Note_off_c, 0, 64, 0
2, 46980, Note_on_c, 0, 65, 88
2, 47039, Note_off_c, 0, 65, 0
2, 47040, Note_on_c, 0, 70, 88
2, 47099, Note_off_c, 0, 70, 0
2, 47100, Note_on_c, 0, 72, 88
2, 47159, Note_off_c, 0, 72, 0
2, 47160, Note_on_c, 0, 74, 88
2, 47459, Note_off_c, 0, 74, 0
2, 47460, Note_on_c, 0, 72, 88
2, 47519, Note_off_c, 0, 72, 0
2, 47520, Note_on_c, 0, 71, 88
2, 47579, Note_off_c, 0, 71, 0
2, 47580, Note_on_c, 0, 67, 88
2, 47639, Note_off_c, 0, 67, 0
2, 47640, Note_on_c, 0, 66, 88
2, 47699, Note_off_c, 0, 66, 0
2, 47700, Note_on_c, 0, 67, 88
2, 47759, Note_off_c, 0, 67, 0
2, 47760, Note_on_c, 0, 69, 88
2, 47819, Note_off_c, 0, 69, 0
2, 47820, Note_on_c, 0, 71, 88
2, 47879, Note_off_c, 0, 71, 0
2, 47880, Note_on_c, 0, 72, 88
2, 47939, Note_off_c, 0, 72, 0
2, 47940, Note_on_c, 0, 67, 88
2, 47999, Note_off_c, 0, 67, 0
2, 48000, Note_on_c, 0, 66, 88
2, 48059, Note_off_c, 0, 66, 0
2, 48060, Note_on_c, 0, 67, 88
2, 48119, Note_off_c, 0, 67, 0
2, 48120, Note_on_c, 0, 71, 88
2, 48179, Note_off_c, 0, 71, 0
2, 48180, Note_on_c, 0, 72, 88
2, 48239, Note_off_c, 0, 72, 0
2, 48240, Note_on_c, 0, 74, 88
2, 48299, Note_off_c, 0, 74, 0
2, 48300, Note_on_c, 0, 67, 88
2, 48359, Note_off_c, 0, 67, 0
2, 48360, Note_on_c, 0, 66, 88
2, 48419, Note_off_c, 0, 66, 0
2, 48420, Note_on_c, 0, 67, 88
2, 48479, Note_off_c, 0, 67, 0
2, 48480, Note_on_c, 0, 72, 88
2, 48539, Note_off_c, 0, 72, 0
2, 48540, Note_on_c, 0, 74, 88
2, 48599, Note_off_c, 0, 74, 0
2, 48600, Note_on_c, 0, 75, 88
2, 48659, Note_off_c, 0, 75, 0
2, 48660, Note_on_c, 0, 72, 88
2, 48719, Note_off_c, 0, 72, 0
2, 48720, Note_on_c, 0, 67, 88
2, 48839, Note_off_c, 0, 67, 0
2, 48840, Note_on_c, 0, 79, 88
2, 48899, Note_off_c, 0, 79, 0
2, 48900, Note_on_c, 0, 77, 88
2, 48959, Note_off_c, 0, 77, 0
2, 48960, Note_on_c, 0, 75, 88
2, 49019, Note_off_c, 0, 75, 0
2, 49020, Note_on_c, 0, 74, 88
2, 49079, Note_off_c, 0, 74, 0
2, 49080, Note_on_c, 0, 72, 88
2, 49139, Note_off_c, 0, 72, 0
2, 49140, Note_on_c, 0, 70, 88
2, 49199, Note_off_c, 0, 70, 0
2, 49200, Note_on_c, 0, 75, 88
2, 49259, Note_off_c, 0, 75, 0
2, 49260, Note_on_c, 0, 72, 88
2, 49319, Note_off_c, 0, 72, 0
2, 49320, Note_on_c, 0, 68, 88
2, 49379, Note_off_c, 0, 68, 0
2, 49380, Note_on_c, 0, 75, 88
2, 49439, Note_off_c, 0, 75, 0
2, 49440, Note_on_c, 0, 72, 88
2, 49499, Note_off_c, 0, 72, 0
2, 49500, Note_on_c, 0, 65, 88
2, 49559, Note_off_c, 0, 65, 0
2, 49560, Note_on_c, 0, 72, 88
2, 49619, Note_off_c, 0, 72, 0
2, 49620, Note_on_c, 0, 75, 88
2, 49679, Note_off_c, 0, 75, 0
2, 49680, Note_on_c, 0, 74, 88
2, 49739, Note_off_c, 0, 74, 0
2, 49740, Note_on_c, 0, 72, 88
2, 49799, Note_off_c, 0, 72, 0
2, 49800, Note_on_c, 0, 70, 88
2, 49859, Note_off_c, 0, 70, 0
2, 49860, Note_on_c, 0, 68, 88
2, 49919, Note_off_c, 0, 68, 0
2, 49920, Note_on_c, 0, 74, 88
2, 49979, Note_off_c, 0, 74, 0
2, 49980, Note_on_c, 0, 70, 88
2, 50039, Note_off_c, 0, 70, 0
2, 50040, Note_on_c, 0, 67, 88
2, 50099, Note_off_c, 0, 67, 0
2, 50100, Note_on_c, 0, 73, 88
2, 50159, Note_off_c, 0, 73, 0
2, 50160, Note_on_c, 0, 70, 88
2, 50219, Note_off_c, 0, 70, 0
2, 50220, Note_on_c, 0, 63, 88
2, 50279, Note_off_c, 0, 63, 0
2, 50280, Note_on_c, 0, 70, 88
2, 50339, Note_off_c, 0, 70, 0
2, 50340, Note_on_c, 0, 73, 88
2, 50399, Note_off_c, 0, 73, 0
2, 50400, Note_on_c, 0, 72, 88
2, 50459, Note_off_c, 0, 72, 0
2, 50460, Note_on_c, 0, 71, 88
2, 50519, Note_off_c, 0, 71, 0
2, 50520, Note_on_c, 0, 72, 88
2, 50579, Note_off_c, 0, 72, 0
2, 50580, Note_on_c, 0, 75, 88
2, 50759, Note_off_c, 0, 75, 0
2, 50760, Note_on_c, 0, 80, 88
2, 50939, Note_off_c, 0, 80, 0
2, 50940, Note_on_c, 0, 53, 88
2, 51119, Note_off_c, 0, 53, 0
2, 51120, Note_on_c, 0, 55, 88
2, 51299, Note_off_c, 0, 55, 0
2, 51300, Note_on_c, 0, 74, 88
2, 51479, Note_off_c, 0, 74, 0
2, 51480, Note_on_c, 0, 79, 88
2, 51659, Note_off_c, 0, 79, 0
2, 51660, Note_on_c, 0, 52, 88
2, 51839, Note_off_c, 0, 52, 0
2, 51840, Note_on_c, 0, 53, 88
2, 52019, Note_off_c, 0, 53, 0
2, 52020, Note_on_c, 0, 77, 88
2, 52259, Note_off_c, 0, 77, 0
2, 52260, Note_on_c, 0, 67, 88
2, 52319, Note_off_c, 0, 67, 0
2, 52320, Note_on_c, 0, 69, 88
2, 52379, Note_off_c, 0, 69, 0
2, 52380, Note_on_c, 0, 71, 88
2, 52439, Note_off_c, 0, 71, 0
2, 52440, Note_on_c, 0, 72, 88
2, 52499, Note_off_c, 0, 72, 0
2, 52500, Note_on_c, 0, 74, 88
2, 52559, Note_off_c, 0, 74, 0
2, 52560, Note_on_c, 0, 75, 88
2, 52619, Note_off_c, 0, 75, 0
2, 52620, Note_on_c, 0, 74, 88
2, 52679, Note_off_c, 0, 74, 0
2, 52680, Note_on_c, 0, 72, 88
2, 52739, Note_off_c, 0, 72, 0
2, 52740, Note_on_c, 0, 70, 88
2, 52799, Note_off_c, 0, 70, 0
2, 52800, Note_on_c, 0, 69, 88
2, 52859, Note_off_c, 0, 69, 0
2, 52860, Note_on_c, 0, 67, 88
2, 52919, Note_off_c, 0, 67, 0
2, 52920, Note_on_c, 0, 66, 88
2, 52979, Note_off_c, 0, 66, 0
2, 52980, Note_on_c, 0, 74, 88
2, 53039, Note_off_c, 0, 74, 0
2, 53040, Note_on_c, 0, 76, 88
2, 53099, Note_off_c, 0, 76, 0
2, 53100, Note_on_c, 0, 78, 88
2, 53159, Note_off_c, 0, 78, 0
2, 53160, Note_on_c, 0, 79, 88
2, 53219, Note_off_c, 0, 79, 0
2, 53220, Note_on_c, 0, 81, 88
2, 53279, Note_off_c, 0, 81, 0
2, 53280, Note_on_c, 0, 79, 88
2, 53399, Note_off_c, 0, 79, 0
2, 53400, Note_on_c, 0, 67, 88
2, 53459, Note_off_c, 0, 67, 0
2, 53460, Note_on_c, 0, 72, 88
2, 53759, Note_off_c, 0, 72, 0
2, 53760, Note_on_c, 0, 69, 88
2, 53819, Note_off_c, 0, 69, 0
2, 53820, Note_on_c, 0, 74, 88
2, 53939, Note_off_c, 0, 74, 0
2, 53940, Note_on_c, 0, 72, 88
2, 53999, Note_off_c, 0, 72, 0
2, 54000, Note_on_c, 0, 70, 88
2, 54179, Note_off_c, 0, 70, 0
2, 54180, Note_on_c, 0, 75, 88
2, 54419, Note_off_c, 0, 75, 0
2, 54420, Note_on_c, 0, 69, 88
2, 54479, Note_off_c, 0, 69, 0
2, 54480, Note_on_c, 0, 70, 88
2, 54539, Note_off_c, 0, 70, 0
2, 54540, Note_on_c, 0, 72, 88
2, 54599, Note_off_c, 0, 72, 0
2, 54600, Note_on_c, 0, 74, 88
2, 54659, Note_off_c, 0, 74, 0
2, 54660, Note_on_c, 0, 75, 88
2, 54719, Note_off_c, 0, 75, 0
2, 54720, Note_on_c, 0, 74, 88
2, 54779, Note_off_c, 0, 74, 0
2, 54780, Note_on_c, 0, 79, 88
2, 54839, Note_off_c, 0, 79, 0
2, 54840, Note_on_c, 0, 77, 88
2, 54899, Note_off_c, 0, 77, 0
2, 54900, Note_on_c, 0, 75, 88
2, 54959, Note_off_c, 0, 75, 0
2, 54960, Note_on_c, 0, 74, 88
2, 55019, Note_off_c, 0, 74, 0
2, 55020, Note_on_c, 0, 72, 88
2, 55079, Note_off_c, 0, 72, 0
2, 55080, Note_on_c, 0, 70, 88
2, 55139, Note_off_c, 0, 70, 0
2, 55140, Note_on_c, 0, 69, 88
2, 55199, Note_off_c, 0, 69, 0
2, 55200, Note_on_c, 0, 70, 88
2, 55259, Note_off_c, 0, 70, 0
2, 55260, Note_on_c, 0, 72, 88
2, 55319, Note_off_c, 0, 72, 0
2, 55320, Note_on_c, 0, 78, 88
2, 55379, Note_off_c, 0, 78, 0
2, 55380, Note_on_c, 0, 81, 88
2, 55439, Note_off_c, 0, 81, 0
2, 55440, Note_on_c, 0, 74, 88
2, 55559, Note_off_c, 0, 74, 0
2, 55560, Note_on_c, 0, 70, 88
2, 55619, Note_off_c, 0, 70, 0
2, 55620, Note_on_c, 0, 72, 88
2, 55679, Note_off_c, 0, 72, 0
2, 55680, Note_on_c, 0, 74, 88
2, 55739, Note_off_c, 0, 74, 0
2, 55740, Note_on_c, 0, 75, 88
2, 55799, Note_off_c, 0, 75, 0
2, 55800, Note_on_c, 0, 75, 88
2, 55919, Note_off_c, 0, 75, 0
2, 55920, Note_on_c, 0, 69, 88
2, 55979, Note_off_c, 0, 69, 0
2, 55980, Note_on_c, 0, 70, 88
2, 56039, Note_off_c, 0, 70, 0
2, 56040, Note_on_c, 0, 72, 88
2, 56099, Note_off_c, 0, 72, 0
2, 56100, Note_on_c, 0, 74, 88
2, 56159, Note_off_c, 0, 74, 0
2, 56160, Note_on_c, 0, 74, 88
2, 56279, Note_off_c, 0, 74, 0
2, 56280, Note_on_c, 0, 67, 88
2, 56339, Note_off_c, 0, 67, 0
2, 56340, Note_on_c, 0, 69, 88
2, 56399, Note_off_c, 0, 69, 0
2, 56400, Note_on_c, 0, 70, 88
2, 56459, Note_off_c, 0, 70, 0
2, 56460, Note_on_c, 0, 72, 88
2, 56519, Note_off_c, 0, 72, 0
2, 56520, Note_on_c, 0, 72, 88
2, 56579, Note_off_c, 0, 72, 0
2, 56580, Note_on_c, 0, 66, 88
2, 56759, Note_off_c, 0, 66, 0
2, 56760, Note_on_c, 0, 67, 88
2, 56819, Note_off_c, 0, 67, 0
2, 56820, Note_on_c, 0, 69, 88
2, 56879, Note_off_c, 0, 69, 0
2, 56880, Note_on_c, 0, 70, 88
2, 56939, Note_off_c, 0, 70, 0
2, 56940, Note_on_c, 0, 75, 88
2, 56999, Note_off_c, 0, 75, 0
2, 57000, Note_on_c, 0, 74, 88
2, 57059, Note_off_c, 0, 74, 0
2, 57060, Note_on_c, 0, 72, 88
2, 57119, Note_off_c, 0, 72, 0
2, 57120, Note_on_c, 0, 70, 88
2, 57179, Note_off_c, 0, 70, 0
2, 57180, Note_on_c, 0, 69, 88
2, 57239, Note_off_c, 0, 69, 0
2, 57240, Note_on_c, 0, 67, 88
2, 57659, Note_off_c, 0, 67, 0
2, 57660, Note_on_c, 0, 82, 88
2, 57719, Note_off_c, 0, 82, 0
2, 57720, Note_on_c, 0, 81, 88
2, 57779, Note_off_c, 0, 81, 0
2, 57780, Note_on_c, 0, 79, 88
2, 57839, Note_off_c, 0, 79, 0
2, 57840, Note_on_c, 0, 77, 88
2, 57899, Note_off_c, 0, 77, 0
2, 57900, Note_on_c, 0, 75, 88
2, 57959, Note_off_c, 0, 75, 0
2, 57960, Note_on_c, 0, 74, 88
2, 58139, Note_off_c, 0, 74, 0
2, 58140, Note_on_c, 0, 75, 88
2, 58319, Note_off_c, 0, 75, 0
2, 58320, Note_on_c, 0, 77, 88
2, 58439, Note_off_c, 0, 77, 0
2, 58440, Note_on_c, 0, 74, 88
2, 58499, Note_off_c, 0, 74, 0
2, 58500, Note_on_c, 0, 75, 88
2, 58619, Note_off_c, 0, 75, 0
2, 58620, Note_on_c, 0, 79, 88
2, 58679, Note_off_c, 0, 79, 0
2, 58680, Note_on_c, 0, 72, 88
2, 58859, Note_off_c, 0, 72, 0
2, 58860, Note_on_c, 0, 77, 88
2, 59099, Note_off_c, 0, 77, 0
2, 59100, Note_on_c, 0, 75, 88
2, 59159, Note_off_c, 0, 75, 0
2, 59160, Note_on_c, 0, 74, 88
2, 59219, Note_off_c, 0, 74, 0
2, 59220, Note_on_c, 0, 75, 88
2, 59459, Note_off_c, 0, 75, 0
2, 59460, Note_on_c, 0, 74, 88
2, 59519, Note_off_c, 0, 74, 0
2, 59520, Note_on_c, 0, 72, 88
2, 59579, Note_off_c, 0, 72, 0
2, 59580, Note_on_c, 0, 74, 88
2, 59819, Note_off_c, 0, 74, 0
2, 59820, Note_on_c, 0, 75, 88
2, 59879, Note_off_c, 0, 75, 0
2, 59880, Note_on_c, 0, 77, 88
2, 59939, Note_off_c, 0, 77, 0
2, 59940, Note_on_c, 0, 79, 88
2, 59999, Note_off_c, 0, 79, 0
2, 60000, Note_on_c, 0, 81, 88
2, 60059, Note_off_c, 0, 81, 0
2, 60060, Note_on_c, 0, 82, 88
2, 60119, Note_off_c, 0, 82, 0
2, 60120, Note_on_c, 0, 70, 88
2, 60299, Note_off_c, 0, 70, 0
2, 60300, Note_on_c, 0, 69, 88
2, 60479, Note_off_c, 0, 69, 0
2, 60480, Note_on_c, 0, 65, 88
2, 60539, Note_off_c, 0, 65, 0
2, 60540, Note_on_c, 0, 69, 88
2, 60599, Note_off_c, 0, 69, 0
2, 60600, Note_on_c, 0, 72, 88
2, 60659, Note_off_c, 0, 72, 0
2, 60660, Note_on_c, 0, 75, 88
2, 60719, Note_off_c, 0, 75, 0
2, 60720, Note_on_c, 0, 74, 88
2, 60779, Note_off_c, 0, 74, 0
2, 60780, Note_on_c, 0, 75, 88
2, 60839, Note_off_c, 0, 75, 0
2, 60840, Note_on_c, 0, 65, 88
2, 60899, Note_off_c, 0, 65, 0
2, 60900, Note_on_c, 0, 69, 88
2, 60959, Note_off_c, 0, 69, 0
2, 60960, Note_on_c, 0, 70, 88
2, 61019, Note_off_c, 0, 70, 0
2, 61020, Note_on_c, 0, 74, 88
2, 61079, Note_off_c, 0, 74, 0
2, 61080, Note_on_c, 0, 72, 88
2, 61139, Note_off_c, 0, 72, 0
2, 61140, Note_on_c, 0, 74, 88
2, 61199, Note_off_c, 0, 74, 0
2, 61200, Note_on_c, 0, 63, 88
2, 61259, Note_off_c, 0, 63, 0
2, 61260, Note_on_c, 0, 67, 88
2, 61319, Note_off_c, 0, 67, 0
2, 61320, Note_on_c, 0, 69, 88
2, 61379, Note_off_c, 0, 69, 0
2, 61380, Note_on_c, 0, 72, 88
2, 61439, Note_off_c, 0, 72, 0
2, 61440, Note_on_c, 0, 70, 88
2, 61499, Note_off_c, 0, 70, 0
2, 61500, Note_on_c, 0, 72, 88
2, 61559, Note_off_c, 0, 72, 0
2, 61560, Note_on_c, 0, 63, 88
2, 61619, Note_off_c, 0, 63, 0
2, 61620, Note_on_c, 0, 62, 88
2, 61679, Note_off_c, 0, 62, 0
2, 61680, Note_on_c, 0, 65, 88
2, 61739, Note_off_c, 0, 65, 0
2, 61740, Note_on_c, 0, 70, 88
2, 61799, Note_off_c, 0, 70, 0
2, 61800, Note_on_c, 0, 74, 88
2, 61859, Note_off_c, 0, 74, 0
2, 61860, Note_on_c, 0, 75, 88
2, 61919, Note_off_c, 0, 75, 0
2, 61920, Note_on_c, 0, 77, 88
2, 61979, Note_off_c, 0, 77, 0
2, 61980, Note_on_c, 0, 75, 88
2, 62039, Note_off_c, 0, 75, 0
2, 62040, Note_on_c, 0, 77, 88
2, 62099, Note_off_c, 0, 77, 0
2, 62100, Note_on_c, 0, 67, 88
2, 62159, Note_off_c, 0, 67, 0
2, 62160, Note_on_c, 0, 71, 88
2, 62219, Note_off_c, 0, 71, 0
2, 62220, Note_on_c, 0, 74, 88
2, 62279, Note_off_c, 0, 74, 0
2, 62280, Note_on_c, 0, 75, 88
2, 62339, Note_off_c, 0, 75, 0
2, 62340, Note_on_c, 0, 74, 88
2, 62399, Note_off_c, 0, 74, 0
2, 62400, Note_on_c, 0, 75, 88
2, 62459, Note_off_c, 0, 75, 0
2, 62460, Note_on_c, 0, 67, 88
2, 62519, Note_off_c, 0, 67, 0
2, 62520, Note_on_c, 0, 71, 88
2, 62579, Note_off_c, 0, 71, 0
2, 62580, Note_on_c, 0, 72, 88
2, 62639, Note_off_c, 0, 72, 0
2, 62640, Note_on_c, 0, 74, 88
2, 62699, Note_off_c, 0, 74, 0
2, 62700, Note_on_c, 0, 72, 88
2, 62759, Note_off_c, 0, 72, 0
2, 62760, Note_on_c, 0, 74, 88
2, 62819, Note_off_c, 0, 74, 0
2, 62820, Note_on_c, 0, 65, 88
2, 62879, Note_off_c, 0, 65, 0
2, 62880, Note_on_c, 0, 68, 88
2, 62939, Note_off_c, 0, 68, 0
2, 62940, Note_on_c, 0, 71, 88
2, 62999, Note_off_c, 0, 71, 0
2, 63000, Note_on_c, 0, 71, 88
2, 63059, Note_off_c, 0, 71, 0
2, 63060, Note_on_c, 0, 72, 88
2, 63119, Note_off_c, 0, 72, 0
2, 63120, Note_on_c, 0, 67, 88
2, 63179, Note_off_c, 0, 67, 0
2, 63180, Note_on_c, 0, 63, 88
2, 63419, Note_off_c, 0, 63, 0
2, 63420, Note_on_c, 0, 75, 88
2, 63479, Note_off_c, 0, 75, 0
2, 63480, Note_on_c, 0, 74, 88
2, 63539, Note_off_c, 0, 74, 0
2, 63540, Note_on_c, 0, 72, 88
2, 63599, Note_off_c, 0, 72, 0
2, 63600, Note_on_c, 0, 70, 88
2, 63659, Note_off_c, 0, 70, 0
2, 63660, Note_on_c, 0, 68, 88
2, 63719, Note_off_c, 0, 68, 0
2, 63720, Note_on_c, 0, 77, 88
2, 64139, Note_off_c, 0, 77, 0
2, 64140, Note_on_c, 0, 70, 88
2, 64199, Note_off_c, 0, 70, 0
2, 64200, Note_on_c, 0, 74, 88
2, 64259, Note_off_c, 0, 74, 0
2, 64260, Note_on_c, 0, 75, 88
2, 64319, Note_off_c, 0, 75, 0
2, 64320, Note_on_c, 0, 77, 88
2, 64379, Note_off_c, 0, 77, 0
2, 64380, Note_on_c, 0, 74, 88
2, 64439, Note_off_c, 0, 74, 0
2, 64440, Note_on_c, 0, 75, 88
2, 64979, Note_off_c, 0, 75, 0
2, 64980, Note_on_c, 0, 74, 88
2, 65159, Note_off_c, 0, 74, 0
2, 65160, Note_on_c, 0, 79, 88
2, 65579, Note_off_c, 0, 79, 0
2, 65580, Note_on_c, 0, 72, 88
2, 65639, Note_off_c, 0, 72, 0
2, 65640, Note_on_c, 0, 76, 88
2, 65699, Note_off_c, 0, 76, 0
2, 65700, Note_on_c, 0, 77, 88
2, 65759, Note_off_c, 0, 77, 0
2, 65760, Note_on_c, 0, 79, 88
2, 65819, Note_off_c, 0, 79, 0
2, 65820, Note_on_c, 0, 76, 88
2, 65879, Note_off_c, 0, 76, 0
2, 65880, Note_on_c, 0, 77, 88
2, 66419, Note_off_c, 0, 77, 0
2, 66420, Note_on_c, 0, 75, 88
2, 66599, Note_off_c, 0, 75, 0
2, 66600, Note_on_c, 0, 74, 88
2, 67379, Note_off_c, 0, 74, 0
2, 67380, Note_on_c, 0, 75, 88
2, 67439, Note_off_c, 0, 75, 0
2, 67440, Note_on_c, 0, 74, 88
2, 67499, Note_off_c, 0, 74, 0
2, 67500, Note_on_c, 0, 72, 88
2, 67559, Note_off_c, 0, 72, 0
2, 67560, Note_on_c, 0, 74, 88
2, 67619, Note_off_c, 0, 74, 0
2, 67620, Note_on_c, 0, 70, 88
2, 67679, Note_off_c, 0, 70, 0
2, 67680, Note_on_c, 0, 72, 88
2, 68099, Note_off_c, 0, 72, 0
2, 68100, Note_on_c, 0, 73, 88
2, 68159, Note_off_c, 0, 73, 0
2, 68160, Note_on_c, 0, 72, 88
2, 68219, Note_off_c, 0, 72, 0
2, 68220, Note_on_c, 0, 70, 88
2, 68279, Note_off_c, 0, 70, 0
2, 68280, Note_on_c, 0, 72, 88
2, 68339, Note_off_c, 0, 72, 0
2, 68340, Note_on_c, 0, 69, 88
2, 68399, Note_off_c, 0, 69, 0
2, 68400, Note_on_c, 0, 70, 88
2, 68459, Note_off_c, 0, 70, 0
2, 68460, Note_on_c, 0, 72, 88
2, 68519, Note_off_c, 0, 72, 0
2, 68520, Note_on_c, 0, 73, 88
2, 68639, Note_off_c, 0, 73, 0
2, 68640, Note_on_c, 0, 72, 88
2, 68699, Note_off_c, 0, 72, 0
2, 68700, Note_on_c, 0, 70, 88
2, 68819, Note_off_c, 0, 70, 0
2, 68820, Note_on_c, 0, 69, 88
2, 68879, Note_off_c, 0, 69, 0
2, 68880, Note_on_c, 0, 67, 88
2, 68939, Note_off_c, 0, 67, 0
2, 68940, Note_on_c, 0, 69, 88
2, 69179, Note_off_c, 0, 69, 0
2, 69180, Note_on_c, 0, 57, 88
2, 69239, Note_off_c, 0, 57, 0
2, 69240, Note_on_c, 0, 58, 88
2, 69299, Note_off_c, 0, 58, 0
2, 69300, Note_on_c, 0, 60, 88
2, 69359, Note_off_c, 0, 60, 0
2, 69360, Note_on_c, 0, 62, 88
2, 69419, Note_off_c, 0, 62, 0
2, 69420, Note_on_c, 0, 63, 88
2, 69479, Note_off_c, 0, 63, 0
2, 69480, Note_on_c, 0, 65, 88
2, 69659, Note_off_c, 0, 65, 0
2, 69660, Note_on_c, 0, 63, 88
2, 69839, Note_off_c, 0, 63, 0
2, 69840, Note_on_c, 0, 62, 88
2, 69959, Note_off_c, 0, 62, 0
2, 69960, Note_on_c, 0, 67, 88
2, 70019, Note_off_c, 0, 67, 0
2, 70020, Note_on_c, 0, 66, 88
2, 70139, Note_off_c, 0, 66, 0
2, 70140, Note_on_c, 0, 72, 88
2, 70199, Note_off_c, 0, 72, 0
2, 70200, Note_on_c, 0, 70, 88
2, 70379, Note_off_c, 0, 70, 0
2, 70380, Note_on_c, 0, 68, 88
2, 70619, Note_off_c, 0, 68, 0
2, 70620, Note_on_c, 0, 67, 88
2, 70679, Note_off_c, 0, 67, 0
2, 70680, Note_on_c, 0, 69, 88
2, 70739, Note_off_c, 0, 69, 0
2, 70740, Note_on_c, 0, 70, 88
2, 70799, Note_off_c, 0, 70, 0
2, 70800, Note_on_c, 0, 72, 88
2, 70859, Note_off_c, 0, 72, 0
2, 70860, Note_on_c, 0, 74, 88
2, 70919, Note_off_c, 0, 74, 0
2, 70920, Note_on_c, 0, 75, 88
2, 71099, Note_off_c, 0, 75, 0
2, 71100, Note_on_c, 0, 74, 88
2, 71279, Note_off_c, 0, 74, 0
2, 71280, Note_on_c, 0, 72, 88
2, 72059, Note_off_c, 0, 72, 0
2, 72060, Note_on_c, 0, 69, 88
2, 72119, Note_off_c, 0, 69, 0
2, 72120, Note_on_c, 0, 70, 88
2, 72239, Note_off_c, 0, 70, 0
2, 72240, Note_on_c, 0, 69, 88
2, 72299, Note_off_c, 0, 69, 0
2, 72300, Note_on_c, 0, 75, 88
2, 72359, Note_off_c, 0, 75, 0
2, 72360, Note_on_c, 0, 74, 88
2, 72899, Note_off_c, 0, 74, 0
2, 72900, Note_on_c, 0, 80, 88
2, 73079, Note_off_c, 0, 80, 0
2, 73080, Note_on_c, 0, 79, 88
2, 73259, Note_off_c, 0, 79, 0
2, 73260, Note_on_c, 0, 77, 88
2, 73439, Note_off_c, 0, 77, 0
2, 73440, Note_on_c, 0, 75, 88
2, 73619, Note_off_c, 0, 75, 0
2, 73620, Note_on_c, 0, 76, 88
2, 73799, Note_off_c, 0, 76, 0
2, 73800, Note_on_c, 0, 77, 88
2, 73919, Note_off_c, 0, 77, 0
2, 73920, Note_on_c, 0, 74, 88
2, 73979, Note_off_c, 0, 74, 0
2, 73980, Note_on_c, 0, 76, 88
2, 74099, Note_off_c, 0, 76, 0
2, 74100, Note_on_c, 0, 79, 88
2, 74159, Note_off_c, 0, 79, 0
2, 74160, Note_on_c, 0, 72, 88
2, 74639, Note_off_c, 0, 72, 0
2, 74640, Note_on_c, 0, 70, 88
2, 74699, Note_off_c, 0, 70, 0
2, 74700, Note_on_c, 0, 69, 88
2, 74819, Note_off_c, 0, 69, 0
2, 74820, Note_on_c, 0, 75, 88
2, 74879, Note_off_c, 0, 75, 0
2, 74880, Note_on_c, 0, 74, 88
2, 75359, Note_off_c, 0, 74, 0
2, 75360, Note_on_c, 0, 75, 88
2, 75419, Note_off_c, 0, 75, 0
2, 75420, Note_on_c, 0, 74, 88
2, 75539, Note_off_c, 0, 74, 0
2, 75540, Note_on_c, 0, 80, 88
2, 75599, Note_off_c, 0, 80, 0
2, 75600, Note_on_c, 0, 79, 88
2, 75779, Note_off_c, 0, 79, 0
2, 75780, Note_on_c, 0, 77, 88
2, 75959, Note_off_c, 0, 77, 0
2, 75960, Note_on_c, 0, 75, 88
2, 76139, Note_off_c, 0, 75, 0
2, 76140, Note_on_c, 0, 74, 88
2, 76379, Note_off_c, 0, 74, 0
2, 76380, Note_on_c, 0, 74, 88
2, 76439, Note_off_c, 0, 74, 0
2, 76440, Note_on_c, 0, 72, 88
2, 76559, Note_off_c, 0, 72, 0
2, 76560, Note_on_c, 0, 69, 88
2, 76619, Note_off_c, 0, 69, 0
2, 76620, Note_on_c, 0, 70, 88
2, 76739, Note_off_c, 0, 70, 0
2, 76740, Note_on_c, 0, 70, 88
2, 76799, Note_off_c, 0, 70, 0
2, 76800, Note_on_c, 0, 69, 88
2, 76919, Note_off_c, 0, 69, 0
2, 76920, Note_on_c, 0, 65, 88
2, 76979, Note_off_c, 0, 65, 0
2, 76980, Note_on_c, 0, 67, 88
2, 77039, Note_off_c, 0, 67, 0
2, 77040, Note_on_c, 0, 65, 88
2, 77459, Note_off_c, 0, 65, 0
2, 77460, Note_on_c, 0, 53, 88
2, 77519, Note_off_c, 0, 53, 0
2, 77520, Note_on_c, 0, 55, 88
2, 77579, Note_off_c, 0, 55, 0
2, 77580, Note_on_c, 0, 57, 88
2, 77639, Note_off_c, 0, 57, 0
2, 77640, Note_on_c, 0, 58, 88
2, 77699, Note_off_c, 0, 58, 0
2, 77700, Note_on_c, 0, 60, 88
2, 77759, Note_off_c, 0, 60, 0
2, 77760, Note_on_c, 0, 62, 88
2, 77819, Note_off_c, 0, 62, 0
2, 77820, Note_on_c, 0, 63, 88
2, 77879, Note_off_c, 0, 63, 0
2, 77880, Note_on_c, 0, 62, 88
2, 77939, Note_off_c, 0, 62, 0
2, 77940, Note_on_c, 0, 60, 88
2, 77999, Note_off_c, 0, 60, 0
2, 78000, Note_on_c, 0, 58, 88
2, 78059, Note_off_c, 0, 58, 0
2, 78060, Note_on_c, 0, 57, 88
2, 78119, Note_off_c, 0, 57, 0
2, 78120, Note_on_c, 0, 58, 88
2, 78179, Note_off_c, 0, 58, 0
2, 78180, Note_on_c, 0, 68, 88
2, 78239, Note_off_c, 0, 68, 0
2, 78240, Note_on_c, 0, 67, 88
2, 78299, Note_off_c, 0, 67, 0
2, 78300, Note_on_c, 0, 65, 88
2, 78359, Note_off_c, 0, 65, 0
2, 78360, Note_on_c, 0, 63, 88
2, 78419, Note_off_c, 0, 63, 0
2, 78420, Note_on_c, 0, 62, 88
2, 78479, Note_off_c, 0, 62, 0
2, 78480, Note_on_c, 0, 63, 88
2, 78539, Note_off_c, 0, 63, 0
2, 78540, Note_on_c, 0, 58, 88
2, 78599, Note_off_c, 0, 58, 0
2, 78600, Note_on_c, 0, 60, 88
2, 78659, Note_off_c, 0, 60, 0
2, 78660, Note_on_c, 0, 62, 88
2, 78719, Note_off_c, 0, 62, 0
2, 78720, Note_on_c, 0, 63, 88
2, 78779, Note_off_c, 0, 63, 0
2, 78780, Note_on_c, 0, 65, 88
2, 78839, Note_off_c, 0, 65, 0
2, 78840, Note_on_c, 0, 67, 88
2, 78899, Note_off_c, 0, 67, 0
2, 78900, Note_on_c, 0, 63, 88
2, 78959, Note_off_c, 0, 63, 0
2, 78960, Note_on_c, 0, 65, 88
2, 79019, Note_off_c, 0, 65, 0
2, 79020, Note_on_c, 0, 67, 88
2, 79079, Note_off_c, 0, 67, 0
2, 79080, Note_on_c, 0, 69, 88
2, 79139, Note_off_c, 0, 69, 0
2, 79140, Note_on_c, 0, 70, 88
2, 79199, Note_off_c, 0, 70, 0
2, 79200, Note_on_c, 0, 72, 88
2, 79259, Note_off_c, 0, 72, 0
2, 79260, Note_on_c, 0, 74, 88
2, 79319, Note_off_c, 0, 74, 0
2, 79320, Note_on_c, 0, 72, 88
2, 79379, Note_off_c, 0, 72, 0
2, 79380, Note_on_c, 0, 70, 88
2, 79439, Note_off_c, 0, 70, 0
2, 79440, Note_on_c, 0, 69, 88
2, 79499, Note_off_c, 0, 69, 0
2, 79500, Note_on_c, 0, 67, 88
2, 79559, Note_off_c, 0, 67, 0
2, 79560, Note_on_c, 0, 69, 88
2, 79619, Note_off_c, 0, 69, 0
2, 79620, Note_on_c, 0, 79, 88
2, 79679, Note_off_c, 0, 79, 0
2, 79680, Note_on_c, 0, 77, 88
2, 79739, Note_off_c, 0, 77, 0
2, 79740, Note_on_c, 0, 75, 88
2, 79799, Note_off_c, 0, 75, 0
2, 79800, Note_on_c, 0, 74, 88
2, 79859, Note_off_c, 0, 74, 0
2, 79860, Note_on_c, 0, 72, 88
2, 79919, Note_off_c, 0, 72, 0
2, 79920, Note_on_c, 0, 74, 88
2, 79979, Note_off_c, 0, 74, 0
2, 79980, Note_on_c, 0, 69, 88
2, 80039, Note_off_c, 0, 69, 0
2, 80040, Note_on_c, 0, 70, 88
2, 80099, Note_off_c, 0, 70, 0
2, 80100, Note_on_c, 0, 72, 88
2, 80159, Note_off_c, 0, 72, 0
2, 80160, Note_on_c, 0, 74, 88
2, 80219, Note_off_c, 0, 74, 0
2, 80220, Note_on_c, 0, 75, 88
2, 80279, Note_off_c, 0, 75, 0
2, 80280, Note_on_c, 0, 77, 88
2, 80339, Note_off_c, 0, 77, 0
2, 80340, Note_on_c, 0, 74, 88
2, 80399, Note_off_c, 0, 74, 0
2, 80400, Note_on_c, 0, 75, 88
2, 80459, Note_off_c, 0, 75, 0
2, 80460, Note_on_c, 0, 77, 88
2, 80519, Note_off_c, 0, 77, 0
2, 80520, Note_on_c, 0, 79, 88
2, 80579, Note_off_c, 0, 79, 0
2, 80580, Note_on_c, 0, 80, 88
2, 80639, Note_off_c, 0, 80, 0
2, 80640, Note_on_c, 0, 82, 88
2, 80699, Note_off_c, 0, 82, 0
2, 80700, Note_on_c, 0, 84, 88
2, 80759, Note_off_c, 0, 84, 0
2, 80760, Note_on_c, 0, 82, 88
2, 80819, Note_off_c, 0, 82, 0
2, 80820, Note_on_c, 0, 80, 88
2, 80879, Note_off_c, 0, 80, 0
2, 80880, Note_on_c, 0, 79, 88
2, 80939, Note_off_c, 0, 79, 0
2, 80940, Note_on_c, 0, 77, 88
2, 80999, Note_off_c, 0, 77, 0
2, 81000, Note_on_c, 0, 79, 88
2, 81059, Note_off_c, 0, 79, 0
2, 81060, Note_on_c, 0, 80, 88
2, 81119, Note_off_c, 0, 80, 0
2, 81120, Note_on_c, 0, 79, 88
2, 81179, Note_off_c, 0, 79, 0
2, 81180, Note_on_c, 0, 77, 88
2, 81239, Note_off_c, 0, 77, 0
2, 81240, Note_on_c, 0, 75, 88
2, 81299, Note_off_c, 0, 75, 0
2, 81300, Note_on_c, 0, 74, 88
2, 81359, Note_off_c, 0, 74, 0
2, 81360, Note_on_c, 0, 75, 88
2, 82139, Note_off_c, 0, 75, 0
2, 82140, Note_on_c, 0, 65, 88
2, 82199, Note_off_c, 0, 65, 0
2, 82200, Note_on_c, 0, 64, 88
2, 82259, Note_off_c, 0, 64, 0
2, 82260, Note_on_c, 0, 65, 88
2, 82319, Note_off_c, 0, 65, 0
2, 82320, Note_on_c, 0, 67, 88
2, 82379, Note_off_c, 0, 67, 0
2, 82380, Note_on_c, 0, 69, 88
2, 82439, Note_off_c, 0, 69, 0
2, 82440, Note_on_c, 0, 70, 88
2, 82499, Note_off_c, 0, 70, 0
2, 82500, Note_on_c, 0, 65, 88
2, 82559, Note_off_c, 0, 65, 0
2, 82560, Note_on_c, 0, 64, 88
2, 82619, Note_off_c, 0, 64, 0
2, 82620, Note_on_c, 0, 65, 88
2, 82679, Note_off_c, 0, 65, 0
2, 82680, Note_on_c, 0, 69, 88
2, 82739, Note_off_c, 0, 69, 0
2, 82740, Note_on_c, 0, 70, 88
2, 82799, Note_off_c, 0, 70, 0
2, 82800, Note_on_c, 0, 72, 88
2, 82859, Note_off_c, 0, 72, 0
2, 82860, Note_on_c, 0, 65, 88
2, 82919, Note_off_c, 0, 65, 0
2, 82920, Note_on_c, 0, 64, 88
2, 82979, Note_off_c, 0, 64, 0
2, 82980, Note_on_c, 0, 65, 88
2, 83039, Note_off_c, 0, 65, 0
2, 83040, Note_on_c, 0, 70, 88
2, 83099, Note_off_c, 0, 70, 0
2, 83100, Note_on_c, 0, 72, 88
2, 83159, Note_off_c, 0, 72, 0
2, 83160, Note_on_c, 0, 73, 88
2, 83219, Note_off_c, 0, 73, 0
2, 83220, Note_on_c, 0, 70, 88
2, 83279, Note_off_c, 0, 70, 0
2, 83280, Note_on_c, 0, 72, 88
2, 83339, Note_off_c, 0, 72, 0
2, 83340, Note_on_c, 0, 73, 88
2, 83399, Note_off_c, 0, 73, 0
2, 83400, Note_on_c, 0, 75, 88
2, 83459, Note_off_c, 0, 75, 0
2, 83460, Note_on_c, 0, 77, 88
2, 83519, Note_off_c, 0, 77, 0
2, 83520, Note_on_c, 0, 78, 88
2, 83579, Note_off_c, 0, 78, 0
2, 83580, Note_on_c, 0, 75, 88
2, 83639, Note_off_c, 0, 75, 0
2, 83640, Note_on_c, 0, 77, 88
2, 83699, Note_off_c, 0, 77, 0
2, 83700, Note_on_c, 0, 78, 88
2, 83759, Note_off_c, 0, 78, 0
2, 83760, Note_on_c, 0, 80, 88
2, 83819, Note_off_c, 0, 80, 0
2, 83820, Note_on_c, 0, 82, 88
2, 83879, Note_off_c, 0, 82, 0
2, 83880, Note_on_c, 0, 83, 88
2, 83939, Note_off_c, 0, 83, 0
2, 83940, Note_on_c, 0, 82, 88
2, 83999, Note_off_c, 0, 82, 0
2, 84000, Note_on_c, 0, 80, 88
2, 84059, Note_off_c, 0, 80, 0
2, 84060, Note_on_c, 0, 78, 88
2, 84119, Note_off_c, 0, 78, 0
2, 84120, Note_on_c, 0, 77, 88
2, 84179, Note_off_c, 0, 77, 0
2, 84180, Note_on_c, 0, 75, 88
2, 84239, Note_off_c, 0, 75, 0
2, 84240, Note_on_c, 0, 81, 88
2, 84299, Note_off_c, 0, 81, 0
2, 84300, Note_on_c, 0, 84, 88
2, 84359, Note_off_c, 0, 84, 0
2, 84360, Note_on_c, 0, 75, 88
2, 84419, Note_off_c, 0, 75, 0
2, 84420, Note_on_c, 0, 78, 88
2, 84479, Note_off_c, 0, 78, 0
2, 84480, Note_on_c, 0, 77, 88
2, 84539, Note_off_c, 0, 77, 0
2, 84540, Note_on_c, 0, 75, 88
2, 84599, Note_off_c, 0, 75, 0
2, 84600, Note_on_c, 0, 77, 88
2, 84659, Note_off_c, 0, 77, 0
2, 84660, Note_on_c, 0, 82, 88
2, 84719, Note_off_c, 0, 82, 0
2, 84720, Note_on_c, 0, 74, 88
2, 84779, Note_off_c, 0, 74, 0
2, 84780, Note_on_c, 0, 75, 88
2, 84839, Note_off_c, 0, 75, 0
2, 84840, Note_on_c, 0, 77, 88
2, 84899, Note_off_c, 0, 77, 0
2, 84900, Note_on_c, 0, 79, 88
2, 84959, Note_off_c, 0, 79, 0
2, 84960, Note_on_c, 0, 77, 88
2, 85019, Note_off_c, 0, 77, 0
2, 85020, Note_on_c, 0, 75, 88
2, 85079, Note_off_c, 0, 75, 0
2, 85080, Note_on_c, 0, 74, 88
2, 85139, Note_off_c, 0, 74, 0
2, 85140, Note_on_c, 0, 72, 88
2, 85199, Note_off_c, 0, 72, 0
2, 85200, Note_on_c, 0, 82, 88
2, 85259, Note_off_c, 0, 82, 0
2, 85260, Note_on_c, 0, 81, 88
2, 85319, Note_off_c, 0, 81, 0
2, 85320, Note_on_c, 0, 82, 88
2, 85379, Note_off_c, 0, 82, 0
2, 85380, Note_on_c, 0, 77, 88
2, 85439, Note_off_c, 0, 77, 0
2, 85440, Note_on_c, 0, 74, 88
2, 85499, Note_off_c, 0, 74, 0
2, 85500, Note_on_c, 0, 70, 88
2, 85679, Note_off_c, 0, 70, 0
2, 85680, Note_on_c, 0, 69, 88
2, 85739, Note_off_c, 0, 69, 0
2, 85740, Note_on_c, 0, 65, 88
2, 85799, Note_off_c, 0, 65, 0
2, 85800, Note_on_c, 0, 64, 88
2, 85859, Note_off_c, 0, 64, 0
2, 85860, Note_on_c, 0, 65, 88
2, 85919, Note_off_c, 0, 65, 0
2, 85920, Note_on_c, 0, 67, 88
2, 85979, Note_off_c, 0, 67, 0
2, 85980, Note_on_c, 0, 69, 88
2, 86039, Note_off_c, 0, 69, 0
2, 86040, Note_on_c, 0, 70, 88
2, 86099, Note_off_c, 0, 70, 0
2, 86100, Note_on_c, 0, 65, 88
2, 86159, Note_off_c, 0, 65, 0
2, 86160, Note_on_c, 0, 64, 88
2, 86219, Note_off_c, 0, 64, 0
2, 86220, Note_on_c, 0, 65, 88
2, 86279, Note_off_c, 0, 65, 0
2, 86280, Note_on_c, 0, 69, 88
2, 86339, Note_off_c, 0, 69, 0
2, 86340, Note_on_c, 0, 70, 88
2, 86399, Note_off_c, 0, 70, 0
2, 86400, Note_on_c, 0, 72, 88
2, 86459, Note_off_c, 0, 72, 0
2, 86460, Note_on_c, 0, 65, 88
2, 86519, Note_off_c, 0, 65, 0
2, 86520, Note_on_c, 0, 64, 88
2, 86579, Note_off_c, 0, 64, 0
2, 86580, Note_on_c, 0, 65, 88
2, 86639, Note_off_c, 0, 65, 0
2, 86640, Note_on_c, 0, 70, 88
2, 86699, Note_off_c, 0, 70, 0
2, 86700, Note_on_c, 0, 72, 88
2, 86759, Note_off_c, 0, 72, 0
2, 86760, Note_on_c, 0, 74, 88
2, 87059, Note_off_c, 0, 74, 0
2, 87060, Note_on_c, 0, 72, 88
2, 87119, Note_off_c, 0, 72, 0
2, 87120, Note_on_c, 0, 71, 88
2, 87179, Note_off_c, 0, 71, 0
2, 87180, Note_on_c, 0, 67, 88
2, 87239, Note_off_c, 0, 67, 0
2, 87240, Note_on_c, 0, 66, 88
2, 87299, Note_off_c, 0, 66, 0
2, 87300, Note_on_c, 0, 67, 88
2, 87359, Note_off_c, 0, 67, 0
2, 87360, Note_on_c, 0, 69, 88
2, 87419, Note_off_c, 0, 69, 0
2, 87420, Note_on_c, 0, 71, 88
2, 87479, Note_off_c, 0, 71, 0
2, 87480, Note_on_c, 0, 72, 88
2, 87539, Note_off_c, 0, 72, 0
2, 87540, Note_on_c, 0, 67, 88
2, 87599, Note_off_c, 0, 67, 0
2, 87600, Note_on_c, 0, 66, 88
2, 87659, Note_off_c, 0, 66, 0
2, 87660, Note_on_c, 0, 67, 88
2, 87719, Note_off_c, 0, 67, 0
2, 87720, Note_on_c, 0, 71, 88
2, 87779, Note_off_c, 0, 71, 0
2, 87780, Note_on_c, 0, 72, 88
2, 87839, Note_off_c, 0, 72, 0
2, 87840, Note_on_c, 0, 74, 88
2, 87899, Note_off_c, 0, 74, 0
2, 87900, Note_on_c, 0, 67, 88
2, 87959, Note_off_c, 0, 67, 0
2, 87960, Note_on_c, 0, 66, 88
2, 88019, Note_off_c, 0, 66, 0
2, 88020, Note_on_c, 0, 67, 88
2, 88079, Note_off_c, 0, 67, 0
2, 88080, Note_on_c, 0, 72, 88
2, 88139, Note_off_c, 0, 72, 0
2, 88140, Note_on_c, 0, 74, 88
2, 88199, Note_off_c, 0, 74, 0
2, 88200, Note_on_c, 0, 75, 88
2, 88259, Note_off_c, 0, 75, 0
2, 88260, Note_on_c, 0, 72, 88
2, 88319, Note_off_c, 0, 72, 0
2, 88320, Note_on_c, 0, 67, 88
2, 88439, Note_off_c, 0, 67, 0
2, 88440, Note_on_c, 0, 79, 88
2, 88499, Note_off_c, 0, 79, 0
2, 88500, Note_on_c, 0, 77, 88
2, 88559, Note_off_c, 0, 77, 0
2, 88560, Note_on_c, 0, 75, 88
2, 88619, Note_off_c, 0, 75, 0
2, 88620, Note_on_c, 0, 74, 88
2, 88679, Note_off_c, 0, 74, 0
2, 88680, Note_on_c, 0, 72, 88
2, 88739, Note_off_c, 0, 72, 0
2, 88740, Note_on_c, 0, 70, 88
2, 88799, Note_off_c, 0, 70, 0
2, 88800, Note_on_c, 0, 75, 88
2, 88859, Note_off_c, 0, 75, 0
2, 88860, Note_on_c, 0, 72, 88
2, 88919, Note_off_c, 0, 72, 0
2, 88920, Note_on_c, 0, 68, 88
2, 88979, Note_off_c, 0, 68, 0
2, 88980, Note_on_c, 0, 75, 88
2, 89039, Note_off_c, 0, 75, 0
2, 89040, Note_on_c, 0, 72, 88
2, 89099, Note_off_c, 0, 72, 0
2, 89100, Note_on_c, 0, 65, 88
2, 89159, Note_off_c, 0, 65, 0
2, 89160, Note_on_c, 0, 72, 88
2, 89219, Note_off_c, 0, 72, 0
2, 89220, Note_on_c, 0, 75, 88
2, 89279, Note_off_c, 0, 75, 0
2, 89280, Note_on_c, 0, 74, 88
2, 89339, Note_off_c, 0, 74, 0
2, 89340, Note_on_c, 0, 72, 88
2, 89399, Note_off_c, 0, 72, 0
2, 89400, Note_on_c, 0, 70, 88
2, 89459, Note_off_c, 0, 70, 0
2, 89460, Note_on_c, 0, 68, 88
2, 89519, Note_off_c, 0, 68, 0
2, 89520, Note_on_c, 0, 74, 88
2, 89579, Note_off_c, 0, 74, 0
2, 89580, Note_on_c, 0, 70, 88
2, 89639, Note_off_c, 0, 70, 0
2, 89640, Note_on_c, 0, 67, 88
2, 89699, Note_off_c, 0, 67, 0
2, 89700, Note_on_c, 0, 73, 88
2, 89759, Note_off_c, 0, 73, 0
2, 89760, Note_on_c, 0, 70, 88
2, 89819, Note_off_c, 0, 70, 0
2, 89820, Note_on_c, 0, 63, 88
2, 89879, Note_off_c, 0, 63, 0
2, 89880, Note_on_c, 0, 70, 88
2, 89939, Note_off_c, 0, 70, 0
2, 89940, Note_on_c, 0, 73, 88
2, 89999, Note_off_c, 0, 73, 0
2, 90000, Note_on_c, 0, 72, 88
2, 90059, Note_off_c, 0, 72, 0
2, 90060, Note_on_c, 0, 71, 88
2, 90119, Note_off_c, 0, 71, 0
2, 90120, Note_on_c, 0, 72, 88
2, 90179, Note_off_c, 0, 72, 0
2, 90180, Note_on_c, 0, 75, 88
2, 90359, Note_off_c, 0, 75, 0
2, 90360, Note_on_c, 0, 80, 88
2, 90539, Note_off_c, 0, 80, 0
2, 90540, Note_on_c, 0, 53, 88
2, 90719, Note_off_c, 0, 53, 0
2, 90720, Note_on_c, 0, 55, 88
2, 90899, Note_off_c, 0, 55, 0
2, 90900, Note_on_c, 0, 74, 88
2, 91079, Note_off_c, 0, 74, 0
2, 91080, Note_on_c, 0, 79, 88
2, 91259, Note_off_c, 0, 79, 0
2, 91260, Note_on_c, 0, 52, 88
2, 91439, Note_off_c, 0, 52, 0
2, 91440, Note_on_c, 0, 53, 88
2, 91619, Note_off_c, 0, 53, 0
2, 91620, Note_on_c, 0, 77, 88
2, 91859, Note_off_c, 0, 77, 0
2, 91860, Note_on_c, 0, 67, 88
2, 91919, Note_off_c, 0, 67, 0
2, 91920, Note_on_c, 0, 69, 88
2, 91979, Note_off_c, 0, 69, 0
2, 91980, Note_on_c, 0, 71, 88
2, 92039, Note_off_c, 0, 71, 0
2, 92040, Note_on_c, 0, 72, 88
2, 92099, Note_off_c, 0, 72, 0
2, 92100, Note_on_c, 0, 74, 88
2, 92159, Note_off_c, 0, 74, 0
2, 92160, Note_on_c, 0, 75, 88
2, 92219, Note_off_c, 0, 75, 0
2, 92220, Note_on_c, 0, 74, 88
2, 92279, Note_off_c, 0, 74, 0
2, 92280, Note_on_c, 0, 72, 88
2, 92339, Note_off_c, 0, 72, 0
2, 92340, Note_on_c, 0, 70, 88
2, 92399, Note_off_c, 0, 70, 0
2, 92400, Note_on_c, 0, 69, 88
2, 92459, Note_off_c, 0, 69, 0
2, 92460, Note_on_c, 0, 67, 88
2, 92519, Note_off_c, 0, 67, 0
2, 92520, Note_on_c, 0, 66, 88
2, 92579, Note_off_c, 0, 66, 0
2, 92580, Note_on_c, 0, 74, 88
2, 92639, Note_off_c, 0, 74, 0
2, 92640, Note_on_c, 0, 76, 88
2, 92699, Note_off_c, 0, 76, 0
2, 92700, Note_on_c, 0, 78, 88
2, 92759, Note_off_c, 0, 78, 0
2, 92760, Note_on_c, 0, 79, 88
2, 92819, Note_off_c, 0, 79, 0
2, 92820, Note_on_c, 0, 81, 88
2, 92879, Note_off_c, 0, 81, 0
2, 92880, Note_on_c, 0, 79, 88
2, 92999, Note_off_c, 0, 79, 0
2, 93000, Note_on_c, 0, 67, 88
2, 93059, Note_off_c, 0, 67, 0
2, 93060, Note_on_c, 0, 72, 88
2, 93359, Note_off_c, 0, 72, 0
2, 93360, Note_on_c, 0, 69, 88
2, 93419, Note_off_c, 0, 69, 0
2, 93420, Note_on_c, 0, 74, 88
2, 93539, Note_off_c, 0, 74, 0
2, 93540, Note_on_c, 0, 72, 88
2, 93599, Note_off_c, 0, 72, 0
2, 93600, Note_on_c, 0, 70, 88
2, 93779, Note_off_c, 0, 70, 0
2, 93780, Note_on_c, 0, 75, 88
2, 94019, Note_off_c, 0, 75, 0
2, 94020, Note_on_c, 0, 69, 88
2, 94079, Note_off_c, 0, 69, 0
2, 94080, Note_on_c, 0, 70, 88
2, 94139, Note_off_c, 0, 70, 0
2, 94140, Note_on_c, 0, 72, 88
2, 94199, Note_off_c, 0, 72, 0
2, 94200, Note_on_c, 0, 74, 88
2, 94259, Note_off_c, 0, 74, 0
2, 94260, Note_on_c, 0, 75, 88
2, 94319, Note_off_c, 0, 75, 0
2, 94320, Note_on_c, 0, 74, 88
2, 94379, Note_off_c, 0, 74, 0
2, 94380, Note_on_c, 0, 79, 88
2, 94439, Note_off_c, 0, 79, 0
2, 94440, Note_on_c, 0, 77, 88
2, 94499, Note_off_c, 0, 77, 0
2, 94500, Note_on_c, 0, 75, 88
2, 94559, Note_off_c, 0, 75, 0
2, 94560, Note_on_c, 0, 74, 88
2, 94619, Note_off_c, 0, 74, 0
2, 94620, Note_on_c, 0, 72, 88
2, 94679, Note_off_c, 0, 72, 0
2, 94680, Note_on_c, 0, 70, 88
2, 94739, Note_off_c, 0, 70, 0
2, 94740, Note_on_c, 0, 69, 88
2, 94799, Note_off_c, 0, 69, 0
2, 94800, Note_on_c, 0, 70, 88
2, 94859, Note_off_c, 0, 70, 0
2, 94860, Note_on_c, 0, 72, 88
2, 94919, Note_off_c, 0, 72, 0
2, 94920, Note_on_c, 0, 78, 88
2, 94979, Note_off_c, 0, 78, 0
2, 94980, Note_on_c, 0, 81, 88
2, 95039, Note_off_c, 0, 81, 0
2, 95040, Note_on_c, 0, 74, 88
2, 95159, Note_off_c, 0, 74, 0
2, 95160, Note_on_c, 0, 70, 88
2, 95219, Note_off_c, 0, 70, 0
2, 95220, Note_on_c, 0, 72, 88
2, 95279, Note_off_c, 0, 72, 0
2, 95280, Note_on_c, 0, 74, 88
2, 95339, Note_off_c, 0, 74, 0
2, 95340, Note_on_c, 0, 75, 88
2, 95399, Note_off_c, 0, 75, 0
2, 95400, Note_on_c, 0, 75, 88
2, 95519, Note_off_c, 0, 75, 0
2, 95520, Note_on_c, 0, 69, 88
2, 95579, Note_off_c, 0, 69, 0
2, 95580, Note_on_c, 0, 70, 88
2, 95639, Note_off_c, 0, 70, 0
2, 95640, Note_on_c, 0, 72, 88
2, 95699, Note_off_c, 0, 72, 0
2, 95700, Note_on_c, 0, 74, 88
2, 95759, Note_off_c, 0, 74, 0
2, 95760, Note_on_c, 0, 74, 88
2, 95879, Note_off_c, 0, 74, 0
2, 95880, Note_on_c, 0, 67, 88
2, 95939, Note_off_c, 0, 67, 0
2, 95940, Note_on_c, 0, 69, 88
2, 95999, Note_off_c, 0, 69, 0
2, 96000, Note_on_c, 0, 70, 88
2, 96059, Note_off_c, 0, 70, 0
2, 96060, Note_on_c, 0, 72, 88
2, 96119, Note_off_c, 0, 72, 0
2, 96120, Note_on_c, 0, 72, 88
2, 96179, Note_off_c, 0, 72, 0
2, 96180, Note_on_c, 0, 66, 88
2, 96359, Note_off_c, 0, 66, 0
2, 96360, Note_on_c, 0, 67, 88
2, 96419, Note_off_c, 0, 67, 0
2, 96420, Note_on_c, 0, 69, 88
2, 96479, Note_off_c, 0, 69, 0
2, 96480, Note_on_c, 0, 70, 88
2, 96539, Note_off_c, 0, 70, 0
2, 96540, Note_on_c, 0, 75, 88
2, 96599, Note_off_c, 0, 75, 0
2, 96600, Note_on_c, 0, 74, 88
2, 96659, Note_off_c, 0, 74, 0
2, 96660, Note_on_c, 0, 72, 88
2, 96719, Note_off_c, 0, 72, 0
2, 96720, Note_on_c, 0, 70, 88
2, 96779, Note_off_c, 0, 70, 0
2, 96780, Note_on_c, 0, 69, 88
2, 96839, Note_off_c, 0, 69, 0
2, 96840, Note_on_c, 0, 67, 88
2, 97259, Note_off_c, 0, 67, 0
2, 97260, Note_on_c, 0, 82, 88
2, 97319, Note_off_c, 0, 82, 0
2, 97320, Note_on_c, 0, 81, 88
2, 97379, Note_off_c, 0, 81, 0
2, 97380, Note_on_c, 0, 79, 88
2, 97439, Note_off_c, 0, 79, 0
2, 97440, Note_on_c, 0, 77, 88
2, 97499, Note_off_c, 0, 77, 0
2, 97500, Note_on_c, 0, 75, 88
2, 97559, Note_off_c, 0, 75, 0
2, 97560, Note_on_c, 0, 74, 88
2, 97739, Note_off_c, 0, 74, 0
2, 97740, Note_on_c, 0, 75, 88
2, 97919, Note_off_c, 0, 75, 0
2, 97920, Note_on_c, 0, 77, 88
2, 98039, Note_off_c, 0, 77, 0
2, 98040, Note_on_c, 0, 74, 88
2, 98099, Note_off_c, 0, 74, 0
2, 98100, Note_on_c, 0, 75, 88
2, 98219, Note_off_c, 0, 75, 0
2, 98220, Note_on_c, 0, 79, 88
2, 98279, Note_off_c, 0, 79, 0
2, 98280, Note_on_c, 0, 72, 88
2, 98459, Note_off_c, 0, 72, 0
2, 98460, Note_on_c, 0, 77, 88
2, 98699, Note_off_c, 0, 77, 0
2, 98700, Note_on_c, 0, 75, 88
2, 98759, Note_off_c, 0, 75, 0
2, 98760, Note_on_c, 0, 74, 88
2, 98819, Note_off_c, 0, 74, 0
2, 98820, Note_on_c, 0, 75, 88
2, 99059, Note_off_c, 0, 75, 0
2, 99060, Note_on_c, 0, 74, 88
2, 99119, Note_off_c, 0, 74, 0
2, 99120, Note_on_c, 0, 72, 88
2, 99179, Note_off_c, 0, 72, 0
2, 99180, Note_on_c, 0, 74, 88
2, 99419, Note_off_c, 0, 74, 0
2, 99420, Note_on_c, 0, 75, 88
2, 99479, Note_off_c, 0, 75, 0
2, 99480, Note_on_c, 0, 77, 88
2, 99539, Note_off_c, 0, 77, 0
2, 99540, Note_on_c, 0, 79, 88
2, 99599, Note_off_c, 0, 79, 0
2, 99600, Note_on_c, 0, 81, 88
2, 99659, Note_off_c, 0, 81, 0
2, 99660, Note_on_c, 0, 82, 88
2, 99719, Note_off_c, 0, 82, 0
2, 99720, Note_on_c, 0, 70, 88
2, 99899, Note_off_c, 0, 70, 0
2, 99900, Note_on_c, 0, 69, 88
2, 100079, Note_off_c, 0, 69, 0
2, 100080, Note_on_c, 0, 65, 88
2, 100139, Note_off_c, 0, 65, 0
2, 100140, Note_on_c, 0, 69, 88
2, 100199, Note_off_c, 0, 69, 0
2, 100200, Note_on_c, 0, 72, 88
2, 100259, Note_off_c, 0, 72, 0
2, 100260, Note_on_c, 0, 75, 88
2, 100319, Note_off_c, 0, 75, 0
2, 100320, Note_on_c, 0, 74, 88
2, 100379, Note_off_c, 0, 74, 0
2, 100380, Note_on_c, 0, 75, 88
2, 100439, Note_off_c, 0, 75, 0
2, 100440, Note_on_c, 0, 65, 88
2, 100499, Note_off_c, 0, 65, 0
2, 100500, Note_on_c, 0, 69, 88
2, 100559, Note_off_c, 0, 69, 0
2, 100560, Note_on_c, 0, 70, 88
2, 100619, Note_off_c, 0, 70, 0
2, 100620, Note_on_c, 0, 74, 88
2, 100679, Note_off_c, 0, 74, 0
2, 100680, Note_on_c, 0, 72, 88
2, 100739, Note_off_c, 0, 72, 0
2, 100740, Note_on_c, 0, 74, 88
2, 100799, Note_off_c, 0, 74, 0
2, 100800, Note_on_c, 0, 63, 88
2, 100859, Note_off_c, 0, 63, 0
2, 100860, Note_on_c, 0, 67, 88
2, 100919, Note_off_c, 0, 67, 0
2, 100920, Note_on_c, 0, 69, 88
2, 100979, Note_off_c, 0, 69, 0
2, 100980, Note_on_c, 0, 72, 88
2, 101039, Note_off_c, 0, 72, 0
2, 101040, Note_on_c, 0, 70, 88
2, 101099, Note_off_c, 0, 70, 0
2, 101100, Note_on_c, 0, 72, 88
2, 101159, Note_off_c, 0, 72, 0
2, 101160, Note_on_c, 0, 63, 88
2, 101219, Note_off_c, 0, 63, 0
2, 101220, Note_on_c, 0, 62, 88
2, 101279, Note_off_c, 0, 62, 0
2, 101280, Note_on_c, 0, 65, 88
2, 101339, Note_off_c, 0, 65, 0
2, 101340, Note_on_c, 0, 70, 88
2, 101399, Note_off_c, 0, 70, 0
2, 101400, Note_on_c, 0, 74, 88
2, 101459, Note_off_c, 0, 74, 0
2, 101460, Note_on_c, 0, 75, 88
2, 101519, Note_off_c, 0, 75, 0
2, 101520, Note_on_c, 0, 77, 88
2, 101579, Note_off_c, 0, 77, 0
2, 101580, Note_on_c, 0, 75, 88
2, 101639, Note_off_c, 0, 75, 0
2, 101640, Note_on_c, 0, 77, 88
2, 101699, Note_off_c, 0, 77, 0
2, 101700, Note_on_c, 0, 67, 88
2, 101759, Note_off_c, 0, 67, 0
2, 101760, Note_on_c, 0, 71, 88
2, 101819, Note_off_c, 0, 71, 0
2, 101820, Note_on_c, 0, 74, 88
2, 101879, Note_off_c, 0, 74, 0
2, 101880, Note_on_c, 0, 75, 88
2, 101939, Note_off_c, 0, 75, 0
2, 101940, Note_on_c, 0, 74, 88
2, 101999, Note_off_c, 0, 74, 0
2, 102000, Note_on_c, 0, 75, 88
2, 102059, Note_off_c, 0, 75, 0
2, 102060, Note_on_c, 0, 67, 88
2, 102119, Note_off_c, 0, 67, 0
2, 102120, Note_on_c, 0, 71, 88
2, 102179, Note_off_c, 0, 71, 0
2, 102180, Note_on_c, 0, 72, 88
2, 102239, Note_off_c, 0, 72, 0
2, 102240, Note_on_c, 0, 74, 88
2, 102299, Note_off_c, 0, 74, 0
2, 102300, Note_on_c, 0, 72, 88
2, 102359, Note_off_c, 0, 72, 0
2, 102360, Note_on_c, 0, 74, 88
2, 102419, Note_off_c, 0, 74, 0
2, 102420, Note_on_c, 0, 65, 88
2, 102479, Note_off_c, 0, 65, 0
2, 102480, Note_on_c, 0, 68, 88
2, 102539, Note_off_c, 0, 68, 0
2, 102540, Note_on_c, 0, 71, 88
2, 102599, Note_off_c, 0, 71, 0
2, 102600, Note_on_c, 0, 71, 88
2, 102659, Note_off_c, 0, 71, 0
2, 102660, Note_on_c, 0, 72, 88
2, 102719, Note_off_c, 0, 72, 0
2, 102720, Note_on_c, 0, 67, 88
2, 102779, Note_off_c, 0, 67, 0
2, 102780, Note_on_c, 0, 63, 88
2, 103019, Note_off_c, 0, 63, 0
2, 103020, Note_on_c, 0, 75, 88
2, 103079, Note_off_c, 0, 75, 0
2, 103080, Note_on_c, 0, 74, 88
2, 103139, Note_off_c, 0, 74, 0
2, 103140, Note_on_c, 0, 72, 88
2, 103199, Note_off_c, 0, 72, 0
2, 103200, Note_on_c, 0, 70, 88
2, 103259, Note_off_c, 0, 70, 0
2, 103260, Note_on_c, 0, 68, 88
2, 103319, Note_off_c, 0, 68, 0
2, 103320, Note_on_c, 0, 77, 88
2, 103739, Note_off_c, 0, 77, 0
2, 103740, Note_on_c, 0, 70, 88
2, 103799, Note_off_c, 0, 70, 0
2, 103800, Note_on_c, 0, 74, 88
2, 103859, Note_off_c, 0, 74, 0
2, 103860, Note_on_c, 0, 75, 88
2, 103919, Note_off_c, 0, 75, 0
2, 103920, Note_on_c, 0, 77, 88
2, 103979, Note_off_c, 0, 77, 0
2, 103980, Note_on_c, 0, 74, 88
2, 104039, Note_off_c, 0, 74, 0
2, 104040, Note_on_c, 0, 75, 88
2, 104579, Note_off_c, 0, 75, 0
2, 104580, Note_on_c, 0, 74, 88
2, 104759, Note_off_c, 0, 74, 0
2, 104760, Note_on_c, 0, 79, 88
2, 105179, Note_off_c, 0, 79, 0
2, 105180, Note_on_c, 0, 72, 88
2, 105239, Note_off_c, 0, 72, 0
2, 105240, Note_on_c, 0, 76, 88
2, 105299, Note_off_c, 0, 76, 0
2, 105300, Note_on_c, 0, 77, 88
2, 105359, Note_off_c, 0, 77, 0
2, 105360, Note_on_c, 0, 79, 88
2, 105419, Note_off_c, 0, 79, 0
2, 105420, Note_on_c, 0, 76, 88
2, 105479, Note_off_c, 0, 76, 0
2, 105480, Note_on_c, 0, 77, 88
2, 106019, Note_off_c, 0, 77, 0
2, 106020, Note_on_c, 0, 75, 88
2, 106199, Note_off_c, 0, 75, 0
2, 106200, Note_on_c, 0, 74, 88
2, 106979, Note_off_c, 0, 74, 0
2, 106980, Note_on_c, 0, 75, 88
2, 107039, Note_off_c, 0, 75, 0
2, 107040, Note_on_c, 0, 74, 88
2, 107099, Note_off_c, 0, 74, 0
2, 107100, Note_on_c, 0, 72, 88
2, 107159, Note_off_c, 0, 72, 0
2, 107160, Note_on_c, 0, 74, 88
2, 107219, Note_off_c, 0, 74, 0
2, 107220, Note_on_c, 0, 70, 88
2, 107279, Note_off_c, 0, 70, 0
2, 107280, Note_on_c, 0, 72, 88
2, 107699, Note_off_c, 0, 72, 0
2, 107700, Note_on_c, 0, 73, 88
2, 107759, Note_off_c, 0, 73, 0
2, 107760, Note_on_c, 0, 72, 88
2, 107819, Note_off_c, 0, 72, 0
2, 107820, Note_on_c, 0, 70, 88
2, 107879, Note_off_c, 0, 70, 0
2, 107880, Note_on_c, 0, 72, 88
2, 107939, Note_off_c, 0, 72, 0
2, 107940, Note_on_c, 0, 69, 88
2, 107999, Note_off_c, 0, 69, 0
2, 108000, Note_on_c, 0, 70, 88
2, 108059, Note_off_c, 0, 70, 0
2, 108060, Note_on_c, 0, 72, 88
2, 108119, Note_off_c, 0, 72, 0
2, 108120, Note_on_c, 0, 73, 88
2, 108239, Note_off_c, 0, 73, 0
2, 108240, Note_on_c, 0, 72, 88
2, 108299, Note_off_c, 0, 72, 0
2, 108300, Note_on_c, 0, 70, 88
2, 108419, Note_off_c, 0, 70, 0
2, 108420, Note_on_c, 0, 69, 88
2, 108479, Note_off_c, 0, 69, 0
2, 108480, Note_on_c, 0, 67, 88
2, 108539, Note_off_c, 0, 67, 0
2, 108540, Note_on_c, 0, 69, 88
2, 108779, Note_off_c, 0, 69, 0
2, 108780, Note_on_c, 0, 57, 88
2, 108839, Note_off_c, 0, 57, 0
2, 108840, Note_on_c, 0, 58, 88
2, 108899, Note_off_c, 0, 58, 0
2, 108900, Note_on_c, 0, 60, 88
2, 108959, Note_off_c, 0, 60, 0
2, 108960, Note_on_c, 0, 62, 88
2, 109019, Note_off_c, 0, 62, 0
2, 109020, Note_on_c, 0, 63, 88
2, 109079, Note_off_c, 0, 63, 0
2, 109080, Note_on_c, 0, 65, 88
2, 109259, Note_off_c, 0, 65, 0
2, 109260, Note_on_c, 0, 63, 88
2, 109439, Note_off_c, 0, 63, 0
2, 109440, Note_on_c, 0, 62, 88
2, 109559, Note_off_c, 0, 62, 0
2, 109560, Note_on_c, 0, 67, 88
2, 109619, Note_off_c, 0, 67, 0
2, 109620, Note_on_c, 0, 66, 88
2, 109739, Note_off_c, 0, 66, 0
2, 109740, Note_on_c, 0, 72, 88
2, 109799, Note_off_c, 0, 72, 0
2, 109800, Note_on_c, 0, 70, 88
2, 109979, Note_off_c, 0, 70, 0
2, 109980, Note_on_c, 0, 68, 88
2, 110219, Note_off_c, 0, 68, 0
2, 110220, Note_on_c, 0, 67, 88
2, 110279, Note_off_c, 0, 67, 0
2, 110280, Note_on_c, 0, 69, 88
2, 110339, Note_off_c, 0, 69, 0
2, 110340, Note_on_c, 0, 70, 88
2, 110399, Note_off_c, 0, 70, 0
2, 110400, Note_on_c, 0, 72, 88
2, 110459, Note_off_c, 0, 72, 0
2, 110460, Note_on_c, 0, 74, 88
2, 110519, Note_off_c, 0, 74, 0
2, 110520, Note_on_c, 0, 75, 88
2, 110699, Note_off_c, 0, 75, 0
2, 110700, Note_on_c, 0, 74, 88
2, 110879, Note_off_c, 0, 74, 0
2, 110880, Note_on_c, 0, 72, 88
2, 111659, Note_off_c, 0, 72, 0
2, 111660, Note_on_c, 0, 69, 88
2, 111719, Note_off_c, 0, 69, 0
2, 111720, Note_on_c, 0, 70, 88
2, 111839, Note_off_c, 0, 70, 0
2, 111840, Note_on_c, 0, 69, 88
2, 111899, Note_off_c, 0, 69, 0
2, 111900, Note_on_c, 0, 75, 88
2, 111959, Note_off_c, 0, 75, 0
2, 111960, Note_on_c, 0, 74, 88
2, 112499, Note_off_c, 0, 74, 0
2, 112500, Note_on_c, 0, 80, 88
2, 112679, Note_off_c, 0, 80, 0
2, 112680, Note_on_c, 0, 79, 88
2, 112859, Note_off_c, 0, 79, 0
2, 112860, Note_on_c, 0, 77, 88
2, 113039, Note_off_c, 0, 77, 0
2, 113040, Note_on_c, 0, 75, 88
2, 113219, Note_off_c, 0, 75, 0
2, 113220, Note_on_c, 0, 76, 88
2, 113399, Note_off_c, 0, 76, 0
2, 113400, Note_on_c, 0, 77, 88
2, 113519, Note_off_c, 0, 77, 0
2, 113520, Note_on_c, 0, 74, 88
2, 113579, Note_off_c, 0, 74, 0
2, 113580, Note_on_c, 0, 76, 88
2, 113699, Note_off_c, 0, 76, 0
2, 113700, Note_on_c, 0, 79, 88
2, 113759, Note_off_c, 0, 79, 0
2, 113760, Note_on_c, 0, 72, 88
2, 114239, Note_off_c, 0, 72, 0
2, 114240, Note_on_c, 0, 70, 88
2, 114299, Note_off_c, 0, 70, 0
2, 114300, Note_on_c, 0, 69, 88
2, 114419, Note_off_c, 0, 69, 0
2, 114420, Note_on_c, 0, 75, 88
2, 114479, Note_off_c, 0, 75, 0
2, 114480, Note_on_c, 0, 74, 88
2, 114959, Note_off_c, 0, 74, 0
2, 114960, Note_on_c, 0, 75, 88
2, 115019, Note_off_c, 0, 75, 0
2, 115020, Note_on_c, 0, 74, 88
2, 115139, Note_off_c, 0, 74, 0
2, 115140, Note_on_c, 0, 80, 88
2, 115199, Note_off_c, 0, 80, 0
2, 115200, Note_on_c, 0, 79, 88
2, 115379, Note_off_c, 0, 79, 0
2, 115380, Note_on_c, 0, 77, 88
2, 115559, Note_off_c, 0, 77, 0
2, 115560, Note_on_c, 0, 75, 88
2, 115739, Note_off_c, 0, 75, 0
2, 115740, Note_on_c, 0, 74, 88
2, 115979, Note_off_c, 0, 74, 0
2, 115980, Note_on_c, 0, 74, 88
2, 116039, Note_off_c, 0, 74, 0
2, 116040, Note_on_c, 0, 72, 88
2, 116159, Note_off_c, 0, 72, 0
2, 116160, Note_on_c, 0, 69, 88
2, 116219, Note_off_c, 0, 69, 0
2, 116220, Note_on_c, 0, 70, 88
2, 116339, Note_off_c, 0, 70, 0
2, 116340, Note_on_c, 0, 70, 88
2, 116399, Note_off_c, 0, 70, 0
2, 116400, Note_on_c, 0, 69, 88
2, 116519, Note_off_c, 0, 69, 0
2, 116520, Note_on_c, 0, 65, 88
2, 116579, Note_off_c, 0, 65, 0
2, 116580, Note_on_c, 0, 67, 88
2, 116639, Note_off_c, 0, 67, 0
2, 116640, Note_on_c, 0, 65, 88
2, 117059, Note_off_c, 0, 65, 0
2, 117060, Note_on_c, 0, 53, 88
2, 117119, Note_off_c, 0, 53, 0
2, 117120, Note_on_c, 0, 55, 88
2, 117179, Note_off_c, 0, 55, 0
2, 117180, Note_on_c, 0, 57, 88
2, 117239, Note_off_c, 0, 57, 0
2, 117240, Note_on_c, 0, 58, 88
2, 117299, Note_off_c, 0, 58, 0
2, 117300, Note_on_c, 0, 60, 88
2, 117359, Note_off_c, 0, 60, 0
2, 117360, Note_on_c, 0, 62, 88
2, 117419, Note_off_c, 0, 62, 0
2, 117420, Note_on_c, 0, 63, 88
2, 117479, Note_off_c, 0, 63, 0
2, 117480, Note_on_c, 0, 62, 88
2, 117539, Note_off_c, 0, 62, 0
2, 117540, Note_on_c, 0, 60, 88
2, 117599, Note_off_c, 0, 60, 0
2, 117600, Note_on_c, 0, 58, 88
2, 117659, Note_off_c, 0, 58, 0
2, 117660, Note_on_c, 0, 57, 88
2, 117719, Note_off_c, 0, 57, 0
2, 117720, Note_on_c, 0, 58, 88
2, 117779, Note_off_c, 0, 58, 0
2, 117780, Note_on_c, 0, 68, 88
2, 117839, Note_off_c, 0, 68, 0
2, 117840, Note_on_c, 0, 67, 88
2, 117899, Note_off_c, 0, 67, 0
2, 117900, Note_on_c, 0, 65, 88
2, 117959, Note_off_c, 0, 65, 0
2, 117960, Note_on_c, 0, 63, 88
2, 118019, Note_off_c, 0, 63, 0
2, 118020, Note_on_c, 0, 62, 88
2, 118079, Note_off_c, 0, 62, 0
2, 118080, Note_on_c, 0, 63, 88
2, 118139, Note_off_c, 0, 63, 0
2, 118140, Note_on_c, 0, 58, 88
2, 118199, Note_off_c, 0, 58, 0
2, 118200, Note_on_c, 0, 60, 88
2, 118259, Note_off_c, 0, 60, 0
2, 118260, Note_on_c, 0, 62, 88
2, 118319, Note_off_c, 0, 62, 0
2, 118320, Note_on_c, 0, 63, 88
2, 118379, Note_off_c, 0, 63, 0
2, 118380, Note_on_c, 0, 65, 88
2, 118439, Note_off_c, 0, 65, 0
2, 118440, Note_on_c, 0, 67, 88
2, 118499, Note_off_c, 0, 67, 0
2, 118500, Note_on_c, 0, 63, 88
2, 118559, Note_off_c, 0, 63, 0
2, 118560, Note_on_c, 0, 65, 88
2, 118619, Note_off_c, 0, 65, 0
2, 118620, Note_on_c, 0, 67, 88
2, 118679, Note_off_c, 0, 67, 0
2, 118680, Note_on_c, 0, 69, 88
2, 118739, Note_off_c, 0, 69, 0
2, 118740, Note_on_c, 0, 70, 88
2, 118799, Note_off_c, 0, 70, 0
2, 118800, Note_on_c, 0, 72, 88
2, 118859, Note_off_c, 0, 72, 0
2, 118860, Note_on_c, 0, 74, 88
2, 118919, Note_off_c, 0, 74, 0
2, 118920, Note_on_c, 0, 72, 88
2, 118979, Note_off_c, 0, 72, 0
2, 118980, Note_on_c, 0, 70, 88
2, 119039, Note_off_c, 0, 70, 0
2, 119040, Note_on_c, 0, 69, 88
2, 119099, Note_off_c, 0, 69, 0
2, 119100, Note_on_c, 0, 67, 88
2, 119159, Note_off_c, 0, 67, 0
2, 119160, Note_on_c, 0, 69, 88
2, 119219, Note_off_c, 0, 69, 0
2, 119220, Note_on_c, 0, 79, 88
2, 119279, Note_off_c, 0, 79, 0
2, 119280, Note_on_c, 0, 77, 88
2, 119339, Note_off_c, 0, 77, 0
2, 119340, Note_on_c, 0, 75, 88
2, 119399, Note_off_c, 0, 75, 0
2, 119400, Note_on_c, 0, 74, 88
2, 119459, Note_off_c, 0, 74, 0
2, 119460, Note_on_c, 0, 72, 88
2, 119519, Note_off_c, 0, 72, 0
2, 119520, Note_on_c, 0, 74, 88
2, 119579, Note_off_c, 0, 74, 0
2, 119580, Note_on_c, 0, 69, 88
2, 119639, Note_off_c, 0, 69, 0
2, 119640, Note_on_c, 0, 70, 88
2, 119699, Note_off_c, 0, 70, 0
2, 119700, Note_on_c, 0, 72, 88
2, 119759, Note_off_c, 0, 72, 0
2, 119760, Note_on_c, 0, 74, 88
2, 119819, Note_off_c, 0, 74, 0
2, 119820, Note_on_c, 0, 75, 88
2, 119879, Note_off_c, 0, 75, 0
2, 119880, Note_on_c, 0, 77, 88
2, 119939, Note_off_c, 0, 77, 0
2, 119940, Note_on_c, 0, 74, 88
2, 119999, Note_off_c, 0, 74, 0
2, 120000, Note_on_c, 0, 75, 88
2, 120059, Note_off_c, 0, 75, 0
2, 120060, Note_on_c, 0, 77, 88
2, 120119, Note_off_c, 0, 77, 0
2, 120120, Note_on_c, 0, 79, 88
2, 120179, Note_off_c, 0, 79, 0
2, 120180, Note_on_c, 0, 80, 88
2, 120239, Note_off_c, 0, 80, 0
2, 120240, Note_on_c, 0, 82, 88
2, 120299, Note_off_c, 0, 82, 0
2, 120300, Note_on_c, 0, 84, 88
2, 120359, Note_off_c, 0, 84, 0
2, 120360, Note_on_c, 0, 82, 88
2, 120419, Note_off_c, 0, 82, 0
2, 120420, Note_on_c, 0, 80, 88
2, 120479, Note_off_c, 0, 80, 0
2, 120480, Note_on_c, 0, 79, 88
2, 120539, Note_off_c, 0, 79, 0
2, 120540, Note_on_c, 0, 77, 88
2, 120599, Note_off_c, 0, 77, 0
2, 120600, Note_on_c, 0, 79, 88
2, 120659, Note_off_c, 0, 79, 0
2, 120660, Note_on_c, 0, 80, 88
2, 120719, Note_off_c, 0, 80, 0
2, 120720, Note_on_c, 0, 79, 88
2, 120779, Note_off_c, 0, 79, 0
2, 120780, Note_on_c, 0, 77, 88
2, 120839, Note_off_c, 0, 77, 0
2, 120840, Note_on_c, 0, 75, 88
2, 120899, Note_off_c, 0, 75, 0
2, 120900, Note_on_c, 0, 74, 88
2, 120959, Note_off_c, 0, 74, 0
2, 120960, Note_on_c, 0, 75, 88
2, 121739, Note_off_c, 0, 75, 0
2, 121740, Note_on_c, 0, 65, 88
2, 121799, Note_off_c, 0, 65, 0
2, 121800, Note_on_c, 0, 64, 88
2, 121859, Note_off_c, 0, 64, 0
2, 121860, Note_on_c, 0, 65, 88
2, 121919, Note_off_c, 0, 65, 0
2, 121920, Note_on_c, 0, 67, 88
2, 121979, Note_off_c, 0, 67, 0
2, 121980, Note_on_c, 0, 69, 88
2, 122039, Note_off_c, 0, 69, 0
2, 122040, Note_on_c, 0, 70, 88
2, 122099, Note_off_c, 0, 70, 0
2, 122100, Note_on_c, 0, 65, 88
2, 122159, Note_off_c, 0, 65, 0
2, 122160, Note_on_c, 0, 64, 88
2, 122219, Note_off_c, 0, 64, 0
2, 122220, Note_on_c, 0, 65, 88
2, 122279, Note_off_c, 0, 65, 0
2, 122280, Note_on_c, 0, 69, 88
2, 122339, Note_off_c, 0, 69, 0
2, 122340, Note_on_c, 0, 70, 88
2, 122399, Note_off_c, 0, 70, 0
2, 122400, Note_on_c, 0, 72, 88
2, 122459, Note_off_c, 0, 72, 0
2, 122460, Note_on_c, 0, 65, 88
2, 122519, Note_off_c, 0, 65, 0
2, 122520, Note_on_c, 0, 64, 88
2, 122579, Note_off_c, 0, 64, 0
2, 122580, Note_on_c, 0, 65, 88
2, 122639, Note_off_c, 0, 65, 0
2, 122640, Note_on_c, 0, 70, 88
2, 122699, Note_off_c, 0, 70, 0
2, 122700, Note_on_c, 0, 72, 88
2, 122759, Note_off_c, 0, 72, 0
2, 122760, Note_on_c, 0, 73, 88
2, 122819, Note_off_c, 0, 73, 0
2, 122820, Note_on_c, 0, 70, 88
2, 122879, Note_off_c, 0, 70, 0
2, 122880, Note_on_c, 0, 72, 88
2, 122939, Note_off_c, 0, 72, 0
2, 122940, Note_on_c, 0, 73, 88
2, 122999, Note_off_c, 0, 73, 0
2, 123000, Note_on_c, 0, 75, 88
2, 123059, Note_off_c, 0, 75, 0
2, 123060, Note_on_c, 0, 77, 88
2, 123119, Note_off_c, 0, 77, 0
2, 123120, Note_on_c, 0, 78, 88
2, 123179, Note_off_c, 0, 78, 0
2, 123180, Note_on_c, 0, 75, 88
2, 123239, Note_off_c, 0, 75, 0
2, 123240, Note_on_c, 0, 77, 88
2, 123299, Note_off_c, 0, 77, 0
2, 123300, Note_on_c, 0, 78, 88
2, 123359, Note_off_c, 0, 78, 0
2, 123360, Note_on_c, 0, 80, 88
2, 123419, Note_off_c, 0, 80, 0
2, 123420, Note_on_c, 0, 82, 88
2, 123479, Note_off_c, 0, 82, 0
2, 123480, Note_on_c, 0, 83, 88
2, 123539, Note_off_c, 0, 83, 0
2, 123540, Note_on_c, 0, 82, 88
2, 123599, Note_off_c, 0, 82, 0
2, 123600, Note_on_c, 0, 80, 88
2, 123659, Note_off_c, 0, 80, 0
2, 123660, Note_on_c, 0, 78, 88
2, 123719, Note_off_c, 0, 78, 0
2, 123720, Note_on_c, 0, 77, 88
2, 123779, Note_off_c, 0, 77, 0
2, 123780, Note_on_c, 0, 75, 88
2, 123839, Note_off_c, 0, 75, 0
2, 123840, Note_on_c, 0, 81, 88
2, 123899, Note_off_c, 0, 81, 0
2, 123900, Note_on_c, 0, 84, 88
2, 123959, Note_off_c, 0, 84, 0
2, 123960, Note_on_c, 0, 75, 88
2, 124019, Note_off_c, 0, 75, 0
2, 124020, Note_on_c, 0, 78, 88
2, 124079, Note_off_c, 0, 78, 0
2, 124080, Note_on_c, 0, 77, 88
2, 124139, Note_off_c, 0, 77, 0
2, 124140, Note_on_c, 0, 75, 88
2, 124199, Note_off_c, 0, 75, 0
2, 124200, Note_on_c, 0, 77, 88
2, 124259, Note_off_c, 0, 77, 0
2, 124260, Note_on_c, 0, 82, 88
2, 124319, Note_off_c, 0, 82, 0
2, 124320, Note_on_c, 0, 74, 88
2, 124379, Note_off_c, 0, 74, 0
2, 124380, Note_on_c, 0, 75, 88
2, 124439, Note_off_c, 0, 75, 0
2, 124440, Note_on_c, 0, 77, 88
2, 124499, Note_off_c, 0, 77, 0
2, 124500, Note_on_c, 0, 79, 88
2, 124559, Note_off_c, 0, 79, 0
2, 124560, Note_on_c, 0, 77, 88
2, 124619, Note_off_c, 0, 77, 0
2, 124620, Note_on_c, 0, 75, 88
2, 124679, Note_off_c, 0, 75, 0
2, 124680, Note_on_c, 0, 74, 88
2, 124739, Note_off_c, 0, 74, 0
2, 124740, Note_on_c, 0, 72, 88
2, 124799, Note_off_c, 0, 72, 0
2, 124800, Note_on_c, 0, 82, 88
2, 124859, Note_off_c, 0, 82, 0
2, 124860, Note_on_c, 0, 81, 88
2, 124919, Note_off_c, 0, 81, 0
2, 124920, Note_on_c, 0, 82, 88
2, 124979, Note_off_c, 0, 82, 0
2, 124980, Note_on_c, 0, 77, 88
2, 125039, Note_off_c, 0, 77, 0
2, 125040, Note_on_c, 0, 74, 88
2, 125099, Note_off_c, 0, 74, 0
2, 125100, Note_on_c, 0, 70, 88
2, 125140, Note_off_c, 0, 70, 0
2, 125140, End_track
0, 0, End_of_file