0, 0, Header, 1, 2, 240
1, 0, Start_track
1, 0, Time_signature, 4, 2, 24, 8
1, 0, Tempo, 789473
1, 0, SMPTE_offset, 64, 0, 0, 0, 100
1, 0, End_track
2, 0, Start_track
2, 0, Title_t, "Track 1"
2, 0, Program_c, 0, 6
2, 2400, Note_on_c, 0, 82, 88
2, 2519, Note_off_c, 0, 82, 0
2, 2520, Note_on_c, 0, 80, 88
2, 2639, Note_off_c, 0, 80, 0
2, 2640, Note_on_c, 0, 78, 88
2, 2759, Note_off_c, 0, 78, 0
2, 2760, Note_on_c, 0, 77, 88
2, 2879, Note_off_c, 0, 77, 0
2, 2880, Note_on_c, 0, 78, 88
2, 2999, Note_off_c, 0, 78, 0
2, 3000, Note_on_c, 0, 77, 88
2, 3119, Note_off_c, 0, 77, 0
2, 3120, Note_on_c, 0, 75, 88
2, 3239, Note_off_c, 0, 75, 0
2, 3240, Note_on_c, 0, 73, 88
2, 3359, Note_off_c, 0, 73, 0
2, 3360, Note_on_c, 0, 72, 88
2, 3479, Note_off_c, 0, 72, 0
2, 3480, Note_on_c, 0, 77, 88
2, 3599, Note_off_c, 0, 77, 0
2, 3600, Note_on_c, 0, 75, 88
2, 3719, Note_off_c, 0, 75, 0
2, 3720, Note_on_c, 0, 77, 88
2, 3839, Note_off_c, 0, 77, 0
2, 3840, Note_on_c, 0, 73, 88
2, 4079, Note_off_c, 0, 73, 0
2, 4080, Note_on_c, 0, 65, 88
2, 4439, Note_off_c, 0, 65, 0
2, 4440, Note_on_c, 0, 73, 88
2, 4559, Note_off_c, 0, 73, 0
2, 4560, Note_on_c, 0, 72, 88
2, 4679, Note_off_c, 0, 72, 0
2, 4680, Note_on_c, 0, 73, 88
2, 4799, Note_off_c, 0, 73, 0
2, 4800, Note_on_c, 0, 75, 88
2, 5039, Note_off_c, 0, 75, 0
2, 5040, Note_on_c, 0, 70, 88
2, 5279, Note_off_c, 0, 70, 0
2, 5280, Note_on_c, 0, 73, 88
2, 5309, Note_off_c, 0, 73, 0
2, 5310, Note_on_c, 0, 72, 88
2, 5339, Note_off_c, 0, 72, 0
2, 5340, Note_on_c, 0, 73, 88
2, 5369, Note_off_c, 0, 73, 0
2, 5370, Note_on_c, 0, 72, 88
2, 5399, Note_off_c, 0, 72, 0
2, 5400, Note_on_c, 0, 73, 88
2, 5429, Note_off_c, 0, 73, 0
2, 5430, Note_on_c, 0, 72, 88
2, 5459, Note_off_c, 0, 72, 0
2, 5460, Note_on_c, 0, 73, 88
2, 5489, Note_off_c, 0, 73, 0
2, 5490, Note_on_c, 0, 72, 88
2, 5519, Note_off_c, 0, 72, 0
2, 5520, Note_on_c, 0, 73, 88
2, 5549, Note_off_c, 0, 73, 0
2, 5550, Note_on_c, 0, 72, 88
2, 5579, Note_off_c, 0, 72, 0
2, 5580, Note_on_c, 0, 73, 88
2, 5609, Note_off_c, 0, 73, 0
2, 5610, Note_on_c, 0, 72, 88
2, 5639, Note_off_c, 0, 72, 0
2, 5640, Note_on_c, 0, 73, 88
2, 5669, Note_off_c, 0, 73, 0
2, 5670, Note_on_c, 0, 72, 88
2, 5699, Note_off_c, 0, 72, 0
2, 5700, Note_on_c, 0, 70, 88
2, 5729, Note_off_c, 0, 70, 0
2, 5730, Note_on_c, 0, 72, 88
2, 5759, Note_off_c, 0, 72, 0
2, 5760, Note_on_c, 0, 73, 88
2, 6719, Note_off_c, 0, 73, 0
2, 6720, Note_on_c, 0, 80, 88
2, 6839, Note_off_c, 0, 80, 0
2, 6840, Note_on_c, 0, 79, 88
2, 6959, Note_off_c, 0, 79, 0
2, 6960, Note_on_c, 0, 77, 88
2, 7079, Note_off_c, 0, 77, 0
2, 7080, Note_on_c, 0, 76, 88
2, 7199, Note_off_c, 0, 76, 0
2, 7200, Note_on_c, 0, 77, 88
2, 7229, Note_off_c, 0, 77, 0
2, 7230, Note_on_c, 0, 76, 88
2, 7274, Note_off_c, 0, 76, 0
2, 7275, Note_on_c, 0, 77, 88
2, 7439, Note_off_c, 0, 77, 0
2, 7440, Note_on_c, 0, 72, 88
2, 7679, Note_off_c, 0, 72, 0
2, 7680, Note_on_c, 0, 73, 88
2, 7919, Note_off_c, 0, 73, 0
2, 7920, Note_on_c, 0, 70, 88
2, 8159, Note_off_c, 0, 70, 0
2, 8160, Note_on_c, 0, 68, 88
2, 8189, Note_off_c, 0, 68, 0
2, 8190, Note_on_c, 0, 67, 88
2, 8219, Note_off_c, 0, 67, 0
2, 8220, Note_on_c, 0, 68, 88
2, 8249, Note_off_c, 0, 68, 0
2, 8250, Note_on_c, 0, 67, 88
2, 8279, Note_off_c, 0, 67, 0
2, 8280, Note_on_c, 0, 68, 88
2, 8309, Note_off_c, 0, 68, 0
2, 8310, Note_on_c, 0, 67, 88
2, 8399, Note_off_c, 0, 67, 0
2, 8400, Note_on_c, 0, 72, 88
2, 8639, Note_off_c, 0, 72, 0
2, 8640, Note_on_c, 0, 68, 88
2, 8879, Note_off_c, 0, 68, 0
2, 8880, Note_on_c, 0, 65, 88
2, 9119, Note_off_c, 0, 65, 0
2, 9120, Note_on_c, 0, 77, 88
2, 9359, Note_off_c, 0, 77, 0
2, 9360, Note_on_c, 0, 77, 88
2, 9599, Note_off_c, 0, 77, 0
2, 9600, Note_on_c, 0, 77, 88
2, 9629, Note_off_c, 0, 77, 0
2, 9630, Note_on_c, 0, 76, 88
2, 9674, Note_off_c, 0, 76, 0
2, 9675, Note_on_c, 0, 77, 88
2, 9839, Note_off_c, 0, 77, 0
2, 9840, Note_on_c, 0, 76, 88
2, 9959, Note_off_c, 0, 76, 0
2, 9960, Note_on_c, 0, 77, 88
2, 10079, Note_off_c, 0, 77, 0
2, 10080, Note_on_c, 0, 79, 88
2, 10319, Note_off_c, 0, 79, 0
2, 10320, Note_on_c, 0, 79, 88
2, 10559, Note_off_c, 0, 79, 0
2, 10560, Note_on_c, 0, 79, 88
2, 10589, Note_off_c, 0, 79, 0
2, 10590, Note_on_c, 0, 77, 88
2, 10634, Note_off_c, 0, 77, 0
2, 10635, Note_on_c, 0, 79, 88
2, 10799, Note_off_c, 0, 79, 0
2, 10800, Note_on_c, 0, 77, 88
2, 10919, Note_off_c, 0, 77, 0
2, 10920, Note_on_c, 0, 79, 88
2, 11039, Note_off_c, 0, 79, 0
2, 11040, Note_on_c, 0, 80, 88
2, 11279, Note_off_c, 0, 80, 0
2, 11280, Note_on_c, 0, 80, 88
2, 11519, Note_off_c, 0, 80, 0
2, 11520, Note_on_c, 0, 80, 88
2, 11549, Note_off_c, 0, 80, 0
2, 11550, Note_on_c, 0, 79, 88
2, 11594, Note_off_c, 0, 79, 0
2, 11595, Note_on_c, 0, 80, 88
2, 11759, Note_off_c, 0, 80, 0
2, 11760, Note_on_c, 0, 77, 88
2, 11999, Note_off_c, 0, 77, 0
2, 12000, Note_on_c, 0, 79, 88
2, 12239, Note_off_c, 0, 79, 0
2, 12240, Note_on_c, 0, 82, 88
2, 12479, Note_off_c, 0, 82, 0
2, 12480, Note_on_c, 0, 82, 88
2, 12719, Note_off_c, 0, 82, 0
2, 12720, Note_on_c, 0, 77, 88
2, 12749, Note_off_c, 0, 77, 0
2, 12750, Note_on_c, 0, 76, 88
2, 12794, Note_off_c, 0, 76, 0
2, 12795, Note_on_c, 0, 77, 88
2, 12824, Note_off_c, 0, 77, 0
2, 12825, Note_on_c, 0, 76, 88
2, 12854, Note_off_c, 0, 76, 0
2, 12855, Note_on_c, 0, 77, 88
2, 12884, Note_off_c, 0, 77, 0
2, 12885, Note_on_c, 0, 76, 88
2, 12914, Note_off_c, 0, 76, 0
2, 12915, Note_on_c, 0, 74, 88
2, 12944, Note_off_c, 0, 74, 0
2, 12945, Note_on_c, 0, 76, 88
2, 12959, Note_off_c, 0, 76, 0
2, 12960, Note_on_c, 0, 77, 88
2, 13919, Note_off_c, 0, 77, 0
2, 13920, Note_on_c, 0, 77, 88
2, 13949, Note_off_c, 0, 77, 0
2, 13950, Note_on_c, 0, 76, 88
2, 13979, Note_off_c, 0, 76, 0
2, 13980, Note_on_c, 0, 77, 88
2, 14009, Note_off_c, 0, 77, 0
2, 14010, Note_on_c, 0, 76, 88
2, 14039, Note_off_c, 0, 76, 0
2, 14040, Note_on_c, 0, 77, 88
2, 14069, Note_off_c, 0, 77, 0
2, 14070, Note_on_c, 0, 76, 88
2, 14099, Note_off_c, 0, 76, 0
2, 14100, Note_on_c, 0, 77, 88
2, 14129, Note_off_c, 0, 77, 0
2, 14130, Note_on_c, 0, 76, 88
2, 14144, Note_off_c, 0, 76, 0
2, 14145, Note_on_c, 0, 77, 88
2, 14159, Note_off_c, 0, 77, 0
2, 14160, Note_on_c, 0, 76, 88
2, 14399, Note_off_c, 0, 76, 0
2, 14400, Note_on_c, 0, 77, 88
2, 14639, Note_off_c, 0, 77, 0
2, 14640, Note_on_c, 0, 72, 88
2, 14879, Note_off_c, 0, 72, 0
2, 14880, Note_on_c, 0, 68, 88
2, 14999, Note_off_c, 0, 68, 0
2, 15000, Note_on_c, 0, 75, 88
2, 15119, Note_off_c, 0, 75, 0
2, 15120, Note_on_c, 0, 74, 88
2, 15239, Note_off_c, 0, 74, 0
2, 15240, Note_on_c, 0, 75, 88
2, 15359, Note_off_c, 0, 75, 0
2, 15360, Note_on_c, 0, 77, 88
2, 15599, Note_off_c, 0, 77, 0
2, 15600, Note_on_c, 0, 70, 88
2, 15839, Note_off_c, 0, 70, 0
2, 15840, Note_on_c, 0, 68, 88
2, 16079, Note_off_c, 0, 68, 0
2, 16080, Note_on_c, 0, 77, 88
2, 16559, Note_off_c, 0, 77, 0
2, 16560, Note_on_c, 0, 75, 88
2, 16679, Note_off_c, 0, 75, 0
2, 16680, Note_on_c, 0, 77, 88
2, 16799, Note_off_c, 0, 77, 0
2, 16800, Note_on_c, 0, 78, 88
2, 16829, Note_off_c, 0, 78, 0
2, 16830, Note_on_c, 0, 77, 88
2, 16874, Note_off_c, 0, 77, 0
2, 16875, Note_on_c, 0, 78, 88
2, 17039, Note_off_c, 0, 78, 0
2, 17040, Note_on_c, 0, 70, 88
2, 17279, Note_off_c, 0, 70, 0
2, 17280, Note_on_c, 0, 68, 88
2, 17399, Note_off_c, 0, 68, 0
2, 17400, Note_on_c, 0, 70, 88
2, 17519, Note_off_c, 0, 70, 0
2, 17520, Note_on_c, 0, 72, 88
2, 17639, Note_off_c, 0, 72, 0
2, 17640, Note_on_c, 0, 73, 88
2, 17759, Note_off_c, 0, 73, 0
2, 17760, Note_on_c, 0, 75, 88
2, 17879, Note_off_c, 0, 75, 0
2, 17880, Note_on_c, 0, 77, 88
2, 17999, Note_off_c, 0, 77, 0
2, 18000, Note_on_c, 0, 78, 88
2, 18119, Note_off_c, 0, 78, 0
2, 18120, Note_on_c, 0, 75, 88
2, 18239, Note_off_c, 0, 75, 0
2, 18240, Note_on_c, 0, 77, 88
2, 18479, Note_off_c, 0, 77, 0
2, 18480, Note_on_c, 0, 68, 88
2, 18509, Note_off_c, 0, 68, 0
2, 18510, Note_on_c, 0, 66, 88
2, 18554, Note_off_c, 0, 66, 0
2, 18555, Note_on_c, 0, 65, 88
2, 18584, Note_off_c, 0, 65, 0
2, 18585, Note_on_c, 0, 66, 88
2, 18719, Note_off_c, 0, 66, 0
2, 18720, Note_on_c, 0, 65, 88
2, 18959, Note_off_c, 0, 65, 0
2, 18960, Note_on_c, 0, 73, 88
2, 19199, Note_off_c, 0, 73, 0
2, 19200, Note_on_c, 0, 70, 88
2, 19919, Note_off_c, 0, 70, 0
2, 19920, Note_on_c, 0, 75, 88
2, 20039, Note_off_c, 0, 75, 0
2, 20040, Note_on_c, 0, 73, 88
2, 20159, Note_off_c, 0, 73, 0
2, 20160, Note_on_c, 0, 72, 88
2, 20189, Note_off_c, 0, 72, 0
2, 20190, Note_on_c, 0, 70, 88
2, 20234, Note_off_c, 0, 70, 0
2, 20235, Note_on_c, 0, 72, 88
2, 20879, Note_off_c, 0, 72, 0
2, 20880, Note_on_c, 0, 70, 88
2, 21239, Note_off_c, 0, 70, 0
2, 21240, Note_on_c, 0, 72, 88
2, 21359, Note_off_c, 0, 72, 0
2, 21360, Note_on_c, 0, 73, 88
2, 21479, Note_off_c, 0, 73, 0
2, 21480, Note_on_c, 0, 75, 88
2, 21599, Note_off_c, 0, 75, 0
2, 21600, Note_on_c, 0, 69, 88
2, 21719, Note_off_c, 0, 69, 0
2, 21720, Note_on_c, 0, 78, 88
2, 21839, Note_off_c, 0, 78, 0
2, 21840, Note_on_c, 0, 77, 88
2, 21959, Note_off_c, 0, 77, 0
2, 21960, Note_on_c, 0, 75, 88
2, 22079, Note_off_c, 0, 75, 0
2, 22080, Note_on_c, 0, 73, 88
2, 22199, Note_off_c, 0, 73, 0
2, 22200, Note_on_c, 0, 77, 88
2, 22319, Note_off_c, 0, 77, 0
2, 22320, Note_on_c, 0, 75, 88
2, 22439, Note_off_c, 0, 75, 0
2, 22440, Note_on_c, 0, 73, 88
2, 22559, Note_off_c, 0, 73, 0
2, 22560, Note_on_c, 0, 72, 88
2, 22679, Note_off_c, 0, 72, 0
2, 22680, Note_on_c, 0, 70, 88
2, 22799, Note_off_c, 0, 70, 0
2, 22800, Note_on_c, 0, 69, 88
2, 22919, Note_off_c, 0, 69, 0
2, 22920, Note_on_c, 0, 72, 88
2, 23039, Note_off_c, 0, 72, 0
2, 23040, Note_on_c, 0, 70, 88
2, 23279, Note_off_c, 0, 70, 0
2, 23280, Note_on_c, 0, 73, 88
2, 23399, Note_off_c, 0, 73, 0
2, 23400, Note_on_c, 0, 72, 88
2, 23519, Note_off_c, 0, 72, 0
2, 23520, Note_on_c, 0, 73, 88
2, 23759, Note_off_c, 0, 73, 0
2, 23760, Note_on_c, 0, 73, 88
2, 23999, Note_off_c, 0, 73, 0
2, 24000, Note_on_c, 0, 73, 88
2, 24239, Note_off_c, 0, 73, 0
2, 24240, Note_on_c, 0, 72, 88
2, 24359, Note_off_c, 0, 72, 0
2, 24360, Note_on_c, 0, 73, 88
2, 24479, Note_off_c, 0, 73, 0
2, 24480, Note_on_c, 0, 75, 88
2, 24719, Note_off_c, 0, 75, 0
2, 24720, Note_on_c, 0, 75, 88
2, 24959, Note_off_c, 0, 75, 0
2, 24960, Note_on_c, 0, 75, 88
2, 25199, Note_off_c, 0, 75, 0
2, 25200, Note_on_c, 0, 73, 88
2, 25319, Note_off_c, 0, 73, 0
2, 25320, Note_on_c, 0, 75, 88
2, 25439, Note_off_c, 0, 75, 0
2, 25440, Note_on_c, 0, 77, 88
2, 25559, Note_off_c, 0, 77, 0
2, 25560, Note_on_c, 0, 80, 88
2, 25679, Note_off_c, 0, 80, 0
2, 25680, Note_on_c, 0, 78, 88
2, 25799, Note_off_c, 0, 78, 0
2, 25800, Note_on_c, 0, 77, 88
2, 25919, Note_off_c, 0, 77, 0
2, 25920, Note_on_c, 0, 75, 88
2, 26039, Note_off_c, 0, 75, 0
2, 26040, Note_on_c, 0, 73, 88
2, 26159, Note_off_c, 0, 73, 0
2, 26160, Note_on_c, 0, 72, 88
2, 26279, Note_off_c, 0, 72, 0
2, 26280, Note_on_c, 0, 75, 88
2, 26399, Note_off_c, 0, 75, 0
2, 26400, Note_on_c, 0, 68, 88
2, 26879, Note_off_c, 0, 68, 0
2, 26880, Note_on_c, 0, 73, 88
2, 27959, Note_off_c, 0, 73, 0
2, 27960, Note_on_c, 0, 70, 88
2, 28079, Note_off_c, 0, 70, 0
2, 28080, Note_on_c, 0, 72, 88
2, 28199, Note_off_c, 0, 72, 0
2, 28200, Note_on_c, 0, 73, 88
2, 28319, Note_off_c, 0, 73, 0
2, 28320, Note_on_c, 0, 75, 88
2, 28439, Note_off_c, 0, 75, 0
2, 28440, Note_on_c, 0, 77, 88
2, 28559, Note_off_c, 0, 77, 0
2, 28560, Note_on_c, 0, 78, 88
2, 28679, Note_off_c, 0, 78, 0
2, 28680, Note_on_c, 0, 75, 88
2, 28799, Note_off_c, 0, 75, 0
2, 28800, Note_on_c, 0, 77, 88
2, 28919, Note_off_c, 0, 77, 0
2, 28920, Note_on_c, 0, 75, 88
2, 29039, Note_off_c, 0, 75, 0
2, 29040, Note_on_c, 0, 73, 88
2, 29159, Note_off_c, 0, 73, 0
2, 29160, Note_on_c, 0, 72, 88
2, 29279, Note_off_c, 0, 72, 0
2, 29280, Note_on_c, 0, 73, 88
2, 29309, Note_off_c, 0, 73, 0
2, 29310, Note_on_c, 0, 72, 88
2, 29354, Note_off_c, 0, 72, 0
2, 29355, Note_on_c, 0, 73, 88
2, 29519, Note_off_c, 0, 73, 0
2, 29520, Note_on_c, 0, 68, 88
2, 29759, Note_off_c, 0, 68, 0
2, 29760, Note_on_c, 0, 70, 88
2, 29999, Note_off_c, 0, 70, 0
2, 30000, Note_on_c, 0, 66, 88
2, 30239, Note_off_c, 0, 66, 0
2, 30240, Note_on_c, 0, 65, 88
2, 30269, Note_off_c, 0, 65, 0
2, 30270, Note_on_c, 0, 63, 88
2, 30299, Note_off_c, 0, 63, 0
2, 30300, Note_on_c, 0, 65, 88
2, 30329, Note_off_c, 0, 65, 0
2, 30330, Note_on_c, 0, 63, 88
2, 30359, Note_off_c, 0, 63, 0
2, 30360, Note_on_c, 0, 65, 88
2, 30389, Note_off_c, 0, 65, 0
2, 30390, Note_on_c, 0, 63, 88
2, 30479, Note_off_c, 0, 63, 0
2, 30480, Note_on_c, 0, 68, 88
2, 30719, Note_off_c, 0, 68, 0
2, 30720, Note_on_c, 0, 65, 88
2, 30959, Note_off_c, 0, 65, 0
2, 30960, Note_on_c, 0, 61, 88
2, 31199, Note_off_c, 0, 61, 0
2, 31200, Note_on_c, 0, 73, 88
2, 31439, Note_off_c, 0, 73, 0
2, 31440, Note_on_c, 0, 73, 88
2, 31679, Note_off_c, 0, 73, 0
2, 31680, Note_on_c, 0, 73, 88
2, 31709, Note_off_c, 0, 73, 0
2, 31710, Note_on_c, 0, 72, 88
2, 31754, Note_off_c, 0, 72, 0
2, 31755, Note_on_c, 0, 73, 88
2, 31919, Note_off_c, 0, 73, 0
2, 31920, Note_on_c, 0, 72, 88
2, 32039, Note_off_c, 0, 72, 0
2, 32040, Note_on_c, 0, 73, 88
2, 32159, Note_off_c, 0, 73, 0
2, 32160, Note_on_c, 0, 75, 88
2, 32399, Note_off_c, 0, 75, 0
2, 32400, Note_on_c, 0, 75, 88
2, 32639, Note_off_c, 0, 75, 0
2, 32640, Note_on_c, 0, 75, 88
2, 32669, Note_off_c, 0, 75, 0
2, 32670, Note_on_c, 0, 73, 88
2, 32729, Note_off_c, 0, 73, 0
2, 32730, Note_on_c, 0, 75, 88
2, 32879, Note_off_c, 0, 75, 0
2, 32880, Note_on_c, 0, 73, 88
2, 32999, Note_off_c, 0, 73, 0
2, 33000, Note_on_c, 0, 75, 88
2, 33119, Note_off_c, 0, 75, 0
2, 33120, Note_on_c, 0, 77, 88
2, 33359, Note_off_c, 0, 77, 0
2, 33360, Note_on_c, 0, 77, 88
2, 33599, Note_off_c, 0, 77, 0
2, 33600, Note_on_c, 0, 77, 88
2, 33839, Note_off_c, 0, 77, 0
2, 33840, Note_on_c, 0, 75, 88
2, 33959, Note_off_c, 0, 75, 0
2, 33960, Note_on_c, 0, 77, 88
2, 34079, Note_off_c, 0, 77, 0
2, 34080, Note_on_c, 0, 79, 88
2, 34199, Note_off_c, 0, 79, 0
2, 34200, Note_on_c, 0, 80, 88
2, 34319, Note_off_c, 0, 80, 0
2, 34320, Note_on_c, 0, 82, 88
2, 34439, Note_off_c, 0, 82, 0
2, 34440, Note_on_c, 0, 79, 88
2, 34559, Note_off_c, 0, 79, 0
2, 34560, Note_on_c, 0, 80, 88
2, 36719, Note_off_c, 0, 80, 0
2, 36720, Note_on_c, 0, 79, 88
2, 36839, Note_off_c, 0, 79, 0
2, 36840, Note_on_c, 0, 80, 88
2, 36959, Note_off_c, 0, 80, 0
2, 36960, Note_on_c, 0, 82, 88
2, 37199, Note_off_c, 0, 82, 0
2, 37200, Note_on_c, 0, 73, 88
2, 37229, Note_off_c, 0, 73, 0
2, 37230, Note_on_c, 0, 72, 88
2, 37274, Note_off_c, 0, 72, 0
2, 37275, Note_on_c, 0, 73, 88
2, 37439, Note_off_c, 0, 73, 0
2, 37440, Note_on_c, 0, 73, 88
2, 37679, Note_off_c, 0, 73, 0
2, 37680, Note_on_c, 0, 72, 88
2, 37799, Note_off_c, 0, 72, 0
2, 37800, Note_on_c, 0, 73, 88
2, 37919, Note_off_c, 0, 73, 0
2, 37920, Note_on_c, 0, 75, 88
2, 38159, Note_off_c, 0, 75, 0
2, 38160, Note_on_c, 0, 66, 88
2, 38189, Note_off_c, 0, 66, 0
2, 38190, Note_on_c, 0, 65, 88
2, 38234, Note_off_c, 0, 65, 0
2, 38235, Note_on_c, 0, 66, 88
2, 38399, Note_off_c, 0, 66, 0
2, 38400, Note_on_c, 0, 66, 88
2, 38519, Note_off_c, 0, 66, 0
2, 38520, Note_on_c, 0, 65, 88
2, 38639, Note_off_c, 0, 65, 0
2, 38640, Note_on_c, 0, 67, 88
2, 38759, Note_off_c, 0, 67, 0
2, 38760, Note_on_c, 0, 68, 88
2, 38879, Note_off_c, 0, 68, 0
2, 38880, Note_on_c, 0, 70, 88
2, 38999, Note_off_c, 0, 70, 0
2, 39000, Note_on_c, 0, 72, 88
2, 39119, Note_off_c, 0, 72, 0
2, 39120, Note_on_c, 0, 73, 88
2, 39239, Note_off_c, 0, 73, 0
2, 39240, Note_on_c, 0, 70, 88
2, 39359, Note_off_c, 0, 70, 0
2, 39360, Note_on_c, 0, 72, 88
2, 40439, Note_off_c, 0, 72, 0
2, 40440, Note_on_c, 0, 75, 88
2, 40559, Note_off_c, 0, 75, 0
2, 40560, Note_on_c, 0, 73, 88
2, 40679, Note_off_c, 0, 73, 0
2, 40680, Note_on_c, 0, 72, 88
2, 40799, Note_off_c, 0, 72, 0
2, 40800, Note_on_c, 0, 70, 88
2, 40919, Note_off_c, 0, 70, 0
2, 40920, Note_on_c, 0, 68, 88
2, 41039, Note_off_c, 0, 68, 0
2, 41040, Note_on_c, 0, 67, 88
2, 41159, Note_off_c, 0, 67, 0
2, 41160, Note_on_c, 0, 70, 88
2, 41279, Note_off_c, 0, 70, 0
2, 41280, Note_on_c, 0, 63, 88
2, 41999, Note_off_c, 0, 63, 0
2, 42000, Note_on_c, 0, 66, 88
2, 42239, Note_off_c, 0, 66, 0
2, 42240, Note_on_c, 0, 65, 88
2, 42479, Note_off_c, 0, 65, 0
2, 42480, Note_on_c, 0, 70, 88
2, 42959, Note_off_c, 0, 70, 0
2, 42960, Note_on_c, 0, 68, 88
2, 43199, Note_off_c, 0, 68, 0
2, 43200, Note_on_c, 0, 66, 88
2, 43439, Note_off_c, 0, 66, 0
2, 43440, Note_on_c, 0, 71, 88
2, 43919, Note_off_c, 0, 71, 0
2, 43920, Note_on_c, 0, 70, 88
2, 44159, Note_off_c, 0, 70, 0
2, 44160, Note_on_c, 0, 68, 88
2, 44399, Note_off_c, 0, 68, 0
2, 44400, Note_on_c, 0, 73, 88
2, 44879, Note_off_c, 0, 73, 0
2, 44880, Note_on_c, 0, 71, 88
2, 45119, Note_off_c, 0, 71, 0
2, 45120, Note_on_c, 0, 70, 88
2, 47279, Note_off_c, 0, 70, 0
2, 47280, Note_on_c, 0, 73, 88
2, 47519, Note_off_c, 0, 73, 0
2, 47520, Note_on_c, 0, 78, 88
2, 47759, Note_off_c, 0, 78, 0
2, 47760, Note_on_c, 0, 78, 88
2, 47999, Note_off_c, 0, 78, 0
2, 48000, Note_on_c, 0, 78, 88
2, 48029, Note_off_c, 0, 78, 0
2, 48030, Note_on_c, 0, 77, 88
2, 48074, Note_off_c, 0, 77, 0
2, 48075, Note_on_c, 0, 78, 88
2, 48239, Note_off_c, 0, 78, 0
2, 48240, Note_on_c, 0, 77, 88
2, 48359, Note_off_c, 0, 77, 0
2, 48360, Note_on_c, 0, 78, 88
2, 48479, Note_off_c, 0, 78, 0
2, 48480, Note_on_c, 0, 80, 88
2, 48719, Note_off_c, 0, 80, 0
2, 48720, Note_on_c, 0, 80, 88
2, 48959, Note_off_c, 0, 80, 0
2, 48960, Note_on_c, 0, 80, 88
2, 48989, Note_off_c, 0, 80, 0
2, 48990, Note_on_c, 0, 78, 88
2, 49034, Note_off_c, 0, 78, 0
2, 49035, Note_on_c, 0, 80, 88
2, 49199, Note_off_c, 0, 80, 0
2, 49200, Note_on_c, 0, 78, 88
2, 49319, Note_off_c, 0, 78, 0
2, 49320, Note_on_c, 0, 77, 88
2, 49439, Note_off_c, 0, 77, 0
2, 49440, Note_on_c, 0, 78, 88
2, 50159, Note_off_c, 0, 78, 0
2, 50160, Note_on_c, 0, 83, 88
2, 50279, Note_off_c, 0, 83, 0
2, 50280, Note_on_c, 0, 82, 88
2, 50399, Note_off_c, 0, 82, 0
2, 50400, Note_on_c, 0, 80, 88
2, 50519, Note_off_c, 0, 80, 0
2, 50520, Note_on_c, 0, 78, 88
2, 50639, Note_off_c, 0, 78, 0
2, 50640, Note_on_c, 0, 77, 88
2, 50759, Note_off_c, 0, 77, 0
2, 50760, Note_on_c, 0, 80, 88
2, 50879, Note_off_c, 0, 80, 0
2, 50880, Note_on_c, 0, 74, 88
2, 50999, Note_off_c, 0, 74, 0
2, 51000, Note_on_c, 0, 72, 88
2, 51119, Note_off_c, 0, 72, 0
2, 51120, Note_on_c, 0, 74, 88
2, 51239, Note_off_c, 0, 74, 0
2, 51240, Note_on_c, 0, 75, 88
2, 51359, Note_off_c, 0, 75, 0
2, 51360, Note_on_c, 0, 77, 88
2, 51479, Note_off_c, 0, 77, 0
2, 51480, Note_on_c, 0, 78, 88
2, 51599, Note_off_c, 0, 78, 0
2, 51600, Note_on_c, 0, 80, 88
2, 51719, Note_off_c, 0, 80, 0
2, 51720, Note_on_c, 0, 77, 88
2, 51839, Note_off_c, 0, 77, 0
2, 51840, Note_on_c, 0, 78, 88
2, 51959, Note_off_c, 0, 78, 0
2, 51960, Note_on_c, 0, 77, 88
2, 52079, Note_off_c, 0, 77, 0
2, 52080, Note_on_c, 0, 75, 88
2, 52199, Note_off_c, 0, 75, 0
2, 52200, Note_on_c, 0, 74, 88
2, 52319, Note_off_c, 0, 74, 0
2, 52320, Note_on_c, 0, 75, 88
2, 52349, Note_off_c, 0, 75, 0
2, 52350, Note_on_c, 0, 74, 88
2, 52394, Note_off_c, 0, 74, 0
2, 52395, Note_on_c, 0, 75, 88
2, 52559, Note_off_c, 0, 75, 0
2, 52560, Note_on_c, 0, 70, 88
2, 52799, Note_off_c, 0, 70, 0
2, 52800, Note_on_c, 0, 71, 88
2, 53039, Note_off_c, 0, 71, 0
2, 53040, Note_on_c, 0, 68, 88
2, 53279, Note_off_c, 0, 68, 0
2, 53280, Note_on_c, 0, 66, 88
2, 53309, Note_off_c, 0, 66, 0
2, 53310, Note_on_c, 0, 65, 88
2, 53339, Note_off_c, 0, 65, 0
2, 53340, Note_on_c, 0, 66, 88
2, 53369, Note_off_c, 0, 66, 0
2, 53370, Note_on_c, 0, 65, 88
2, 53399, Note_off_c, 0, 65, 0
2, 53400, Note_on_c, 0, 66, 88
2, 53429, Note_off_c, 0, 66, 0
2, 53430, Note_on_c, 0, 65, 88
2, 53519, Note_off_c, 0, 65, 0
2, 53520, Note_on_c, 0, 70, 88
2, 53759, Note_off_c, 0, 70, 0
2, 53760, Note_on_c, 0, 66, 88
2, 53999, Note_off_c, 0, 66, 0
2, 54000, Note_on_c, 0, 63, 88
2, 54239, Note_off_c, 0, 63, 0
2, 54240, Note_on_c, 0, 75, 88
2, 54479, Note_off_c, 0, 75, 0
2, 54480, Note_on_c, 0, 75, 88
2, 54719, Note_off_c, 0, 75, 0
2, 54720, Note_on_c, 0, 75, 88
2, 54749, Note_off_c, 0, 75, 0
2, 54750, Note_on_c, 0, 74, 88
2, 54794, Note_off_c, 0, 74, 0
2, 54795, Note_on_c, 0, 75, 88
2, 54959, Note_off_c, 0, 75, 0
2, 54960, Note_on_c, 0, 74, 88
2, 55079, Note_off_c, 0, 74, 0
2, 55080, Note_on_c, 0, 75, 88
2, 55199, Note_off_c, 0, 75, 0
2, 55200, Note_on_c, 0, 77, 88
2, 55439, Note_off_c, 0, 77, 0
2, 55440, Note_on_c, 0, 77, 88
2, 55679, Note_off_c, 0, 77, 0
2, 55680, Note_on_c, 0, 77, 88
2, 55709, Note_off_c, 0, 77, 0
2, 55710, Note_on_c, 0, 75, 88
2, 55754, Note_off_c, 0, 75, 0
2, 55755, Note_on_c, 0, 77, 88
2, 55919, Note_off_c, 0, 77, 0
2, 55920, Note_on_c, 0, 75, 88
2, 56039, Note_off_c, 0, 75, 0
2, 56040, Note_on_c, 0, 74, 88
2, 56159, Note_off_c, 0, 74, 0
2, 56160, Note_on_c, 0, 75, 88
2, 56759, Note_off_c, 0, 75, 0
2, 56760, Note_on_c, 0, 73, 88
2, 56879, Note_off_c, 0, 73, 0
2, 56880, Note_on_c, 0, 71, 88
2, 56999, Note_off_c, 0, 71, 0
2, 57000, Note_on_c, 0, 70, 88
2, 57119, Note_off_c, 0, 70, 0
2, 57120, Note_on_c, 0, 71, 88
2, 57239, Note_off_c, 0, 71, 0
2, 57240, Note_on_c, 0, 68, 88
2, 57359, Note_off_c, 0, 68, 0
2, 57360, Note_on_c, 0, 70, 88
2, 57479, Note_off_c, 0, 70, 0
2, 57480, Note_on_c, 0, 71, 88
2, 57719, Note_off_c, 0, 71, 0
2, 57720, Note_on_c, 0, 70, 88
2, 57839, Note_off_c, 0, 70, 0
2, 57840, Note_on_c, 0, 72, 88
2, 57959, Note_off_c, 0, 72, 0
2, 57960, Note_on_c, 0, 74, 88
2, 58079, Note_off_c, 0, 74, 0
2, 58080, Note_on_c, 0, 75, 88
2, 58199, Note_off_c, 0, 75, 0
2, 58200, Note_on_c, 0, 77, 88
2, 58319, Note_off_c, 0, 77, 0
2, 58320, Note_on_c, 0, 78, 88
2, 58439, Note_off_c, 0, 78, 0
2, 58440, Note_on_c, 0, 75, 88
2, 58559, Note_off_c, 0, 75, 0
2, 58560, Note_on_c, 0, 77, 88
2, 58799, Note_off_c, 0, 77, 0
2, 58800, Note_on_c, 0, 65, 88
2, 59039, Note_off_c, 0, 65, 0
2, 59040, Note_on_c, 0, 70, 88
2, 59999, Note_off_c, 0, 70, 0
2, 60000, Note_on_c, 0, 70, 88
2, 60029, Note_off_c, 0, 70, 0
2, 60030, Note_on_c, 0, 69, 88
2, 60059, Note_off_c, 0, 69, 0
2, 60060, Note_on_c, 0, 70, 88
2, 60089, Note_off_c, 0, 70, 0
2, 60090, Note_on_c, 0, 69, 88
2, 60119, Note_off_c, 0, 69, 0
2, 60120, Note_on_c, 0, 70, 88
2, 60149, Note_off_c, 0, 70, 0
2, 60150, Note_on_c, 0, 69, 88
2, 60179, Note_off_c, 0, 69, 0
2, 60180, Note_on_c, 0, 70, 88
2, 60209, Note_off_c, 0, 70, 0
2, 60210, Note_on_c, 0, 69, 88
2, 60239, Note_off_c, 0, 69, 0
2, 60240, Note_on_c, 0, 70, 88
2, 60269, Note_off_c, 0, 70, 0
2, 60270, Note_on_c, 0, 69, 88
2, 60299, Note_off_c, 0, 69, 0
2, 60300, Note_on_c, 0, 70, 88
2, 60329, Note_off_c, 0, 70, 0
2, 60330, Note_on_c, 0, 69, 88
2, 60359, Note_off_c, 0, 69, 0
2, 60360, Note_on_c, 0, 70, 88
2, 60389, Note_off_c, 0, 70, 0
2, 60390, Note_on_c, 0, 69, 88
2, 60419, Note_off_c, 0, 69, 0
2, 60420, Note_on_c, 0, 67, 88
2, 60449, Note_off_c, 0, 67, 0
2, 60450, Note_on_c, 0, 69, 88
2, 60479, Note_off_c, 0, 69, 0
2, 60480, Note_on_c, 0, 70, 88
2, 60599, Note_off_c, 0, 70, 0
2, 60600, Note_on_c, 0, 69, 88
2, 60719, Note_off_c, 0, 69, 0
2, 60720, Note_on_c, 0, 70, 88
2, 60839, Note_off_c, 0, 70, 0
2, 60840, Note_on_c, 0, 72, 88
2, 60959, Note_off_c, 0, 72, 0
2, 60960, Note_on_c, 0, 73, 88
2, 61079, Note_off_c, 0, 73, 0
2, 61080, Note_on_c, 0, 75, 88
2, 61199, Note_off_c, 0, 75, 0
2, 61200, Note_on_c, 0, 77, 88
2, 61319, Note_off_c, 0, 77, 0
2, 61320, Note_on_c, 0, 73, 88
2, 61439, Note_off_c, 0, 73, 0
2, 61440, Note_on_c, 0, 75, 88
2, 61559, Note_off_c, 0, 75, 0
2, 61560, Note_on_c, 0, 73, 88
2, 61679, Note_off_c, 0, 73, 0
2, 61680, Note_on_c, 0, 72, 88
2, 61799, Note_off_c, 0, 72, 0
2, 61800, Note_on_c, 0, 73, 88
2, 61919, Note_off_c, 0, 73, 0
2, 61920, Note_on_c, 0, 75, 88
2, 62039, Note_off_c, 0, 75, 0
2, 62040, Note_on_c, 0, 77, 88
2, 62159, Note_off_c, 0, 77, 0
2, 62160, Note_on_c, 0, 78, 88
2, 62279, Note_off_c, 0, 78, 0
2, 62280, Note_on_c, 0, 75, 88
2, 62399, Note_off_c, 0, 75, 0
2, 62400, Note_on_c, 0, 77, 88
2, 63119, Note_off_c, 0, 77, 0
2, 63120, Note_on_c, 0, 82, 88
2, 63239, Note_off_c, 0, 82, 0
2, 63240, Note_on_c, 0, 77, 88
2, 63359, Note_off_c, 0, 77, 0
2, 63360, Note_on_c, 0, 78, 88
2, 63479, Note_off_c, 0, 78, 0
2, 63480, Note_on_c, 0, 80, 88
2, 63599, Note_off_c, 0, 80, 0
2, 63600, Note_on_c, 0, 78, 88
2, 63719, Note_off_c, 0, 78, 0
2, 63720, Note_on_c, 0, 77, 88
2, 63839, Note_off_c, 0, 77, 0
2, 63840, Note_on_c, 0, 75, 88
2, 63959, Note_off_c, 0, 75, 0
2, 63960, Note_on_c, 0, 73, 88
2, 64079, Note_off_c, 0, 73, 0
2, 64080, Note_on_c, 0, 72, 88
2, 64199, Note_off_c, 0, 72, 0
2, 64200, Note_on_c, 0, 75, 88
2, 64319, Note_off_c, 0, 75, 0
2, 64320, Note_on_c, 0, 69, 88
2, 64559, Note_off_c, 0, 69, 0
2, 64560, Note_on_c, 0, 72, 88
2, 64799, Note_off_c, 0, 72, 0
2, 64800, Note_on_c, 0, 77, 88
2, 65039, Note_off_c, 0, 77, 0
2, 65040, Note_on_c, 0, 73, 88
2, 65279, Note_off_c, 0, 73, 0
2, 65280, Note_on_c, 0, 75, 88
2, 65399, Note_off_c, 0, 75, 0
2, 65400, Note_on_c, 0, 77, 88
2, 65519, Note_off_c, 0, 77, 0
2, 65520, Note_on_c, 0, 78, 88
2, 65639, Note_off_c, 0, 78, 0
2, 65640, Note_on_c, 0, 75, 88
2, 65759, Note_off_c, 0, 75, 0
2, 65760, Note_on_c, 0, 72, 88
2, 65879, Note_off_c, 0, 72, 0
2, 65880, Note_on_c, 0, 78, 88
2, 65999, Note_off_c, 0, 78, 0
2, 66000, Note_on_c, 0, 77, 88
2, 66119, Note_off_c, 0, 77, 0
2, 66120, Note_on_c, 0, 75, 88
2, 66239, Note_off_c, 0, 75, 0
2, 66240, Note_on_c, 0, 73, 88
2, 66719, Note_off_c, 0, 73, 0
2, 66720, Note_on_c, 0, 72, 88
2, 66959, Note_off_c, 0, 72, 0
2, 66960, Note_on_c, 0, 77, 88
2, 67199, Note_off_c, 0, 77, 0
2, 67200, Note_on_c, 0, 70, 88
2, 67679, Note_off_c, 0, 70, 0
2, 67680, Note_on_c, 0, 68, 88
2, 67919, Note_off_c, 0, 68, 0
2, 67920, Note_on_c, 0, 73, 88
2, 68159, Note_off_c, 0, 73, 0
2, 68160, Note_on_c, 0, 66, 88
2, 69239, Note_off_c, 0, 66, 0
2, 69240, Note_on_c, 0, 65, 88
2, 69359, Note_off_c, 0, 65, 0
2, 69360, Note_on_c, 0, 63, 88
2, 69479, Note_off_c, 0, 63, 0
2, 69480, Note_on_c, 0, 61, 88
2, 69599, Note_off_c, 0, 61, 0
2, 69600, Note_on_c, 0, 60, 88
2, 69719, Note_off_c, 0, 60, 0
2, 69720, Note_on_c, 0, 61, 88
2, 69839, Note_off_c, 0, 61, 0
2, 69840, Note_on_c, 0, 63, 88
2, 69959, Note_off_c, 0, 63, 0
2, 69960, Note_on_c, 0, 60, 88
2, 70079, Note_off_c, 0, 60, 0
2, 70080, Note_on_c, 0, 61, 88
2, 70199, Note_off_c, 0, 61, 0
2, 70200, Note_on_c, 0, 63, 88
2, 70319, Note_off_c, 0, 63, 0
2, 70320, Note_on_c, 0, 65, 88
2, 70439, Note_off_c, 0, 65, 0
2, 70440, Note_on_c, 0, 67, 88
2, 70559, Note_off_c, 0, 67, 0
2, 70560, Note_on_c, 0, 69, 88
2, 70679, Note_off_c, 0, 69, 0
2, 70680, Note_on_c, 0, 70, 88
2, 70799, Note_off_c, 0, 70, 0
2, 70800, Note_on_c, 0, 72, 88
2, 70919, Note_off_c, 0, 72, 0
2, 70920, Note_on_c, 0, 69, 88
2, 71039, Note_off_c, 0, 69, 0
2, 71040, Note_on_c, 0, 70, 88
2, 71159, Note_off_c, 0, 70, 0
2, 71160, Note_on_c, 0, 72, 88
2, 71279, Note_off_c, 0, 72, 0
2, 71280, Note_on_c, 0, 73, 88
2, 71399, Note_off_c, 0, 73, 0
2, 71400, Note_on_c, 0, 70, 88
2, 71519, Note_off_c, 0, 70, 0
2, 71520, Note_on_c, 0, 72, 88
2, 71639, Note_off_c, 0, 72, 0
2, 71640, Note_on_c, 0, 73, 88
2, 71759, Note_off_c, 0, 73, 0
2, 71760, Note_on_c, 0, 75, 88
2, 71879, Note_off_c, 0, 75, 0
2, 71880, Note_on_c, 0, 72, 88
2, 71999, Note_off_c, 0, 72, 0
2, 72000, Note_on_c, 0, 73, 88
2, 72119, Note_off_c, 0, 73, 0
2, 72120, Note_on_c, 0, 75, 88
2, 72239, Note_off_c, 0, 75, 0
2, 72240, Note_on_c, 0, 77, 88
2, 72359, Note_off_c, 0, 77, 0
2, 72360, Note_on_c, 0, 79, 88
2, 72479, Note_off_c, 0, 79, 0
2, 72480, Note_on_c, 0, 81, 88
2, 72599, Note_off_c, 0, 81, 0
2, 72600, Note_on_c, 0, 82, 88
2, 72719, Note_off_c, 0, 82, 0
2, 72720, Note_on_c, 0, 84, 88
2, 72839, Note_off_c, 0, 84, 0
2, 72840, Note_on_c, 0, 81, 88
2, 72959, Note_off_c, 0, 81, 0
2, 72960, Note_on_c, 0, 82, 88
2, 76079, Note_off_c, 0, 82, 0
2, 76080, Note_on_c, 0, 81, 88
2, 76199, Note_off_c, 0, 81, 0
2, 76200, Note_on_c, 0, 82, 88
2, 76319, Note_off_c, 0, 82, 0
2, 76320, Note_on_c, 0, 84, 88
2, 76559, Note_off_c, 0, 84, 0
2, 76560, Note_on_c, 0, 75, 88
2, 77039, Note_off_c, 0, 75, 0
2, 77040, Note_on_c, 0, 73, 88
2, 77159, Note_off_c, 0, 73, 0
2, 77160, Note_on_c, 0, 75, 88
2, 77279, Note_off_c, 0, 75, 0
2, 77280, Note_on_c, 0, 77, 88
2, 77519, Note_off_c, 0, 77, 0
2, 77520, Note_on_c, 0, 75, 88
2, 77639, Note_off_c, 0, 75, 0
2, 77640, Note_on_c, 0, 69, 88
2, 77759, Note_off_c, 0, 69, 0
2, 77760, Note_on_c, 0, 70, 88
2, 78119, Note_off_c, 0, 70, 0
2, 78120, Note_on_c, 0, 72, 88
2, 78239, Note_off_c, 0, 72, 0
2, 78240, Note_on_c, 0, 70, 88
2, 78269, Note_off_c, 0, 70, 0
2, 78270, Note_on_c, 0, 69, 88
2, 78299, Note_off_c, 0, 69, 0
2, 78300, Note_on_c, 0, 70, 88
2, 78329, Note_off_c, 0, 70, 0
2, 78330, Note_on_c, 0, 69, 88
2, 78359, Note_off_c, 0, 69, 0
2, 78360, Note_on_c, 0, 70, 88
2, 78389, Note_off_c, 0, 70, 0
2, 78390, Note_on_c, 0, 69, 88
2, 78419, Note_off_c, 0, 69, 0
2, 78420, Note_on_c, 0, 70, 88
2, 78449, Note_off_c, 0, 70, 0
2, 78450, Note_on_c, 0, 69, 88
2, 78464, Note_off_c, 0, 69, 0
2, 78465, Note_on_c, 0, 70, 88
2, 78479, Note_off_c, 0, 70, 0
2, 78480, Note_on_c, 0, 69, 88
2, 78599, Note_off_c, 0, 69, 0
2, 78600, Note_on_c, 0, 70, 88
2, 78719, Note_off_c, 0, 70, 0
2, 78720, Note_on_c, 0, 70, 88
2, 78760, Note_off_c, 0, 70, 0
2, 78760, End_track
0, 0, End_of_file