0, 0, Header, 1, 2, 240
1, 0, Start_track
1, 0, Time_signature, 4, 2, 24, 8
1, 0, Tempo, 500000
1, 0, SMPTE_offset, 64, 0, 0, 0, 100
1, 0, End_track
2, 0, Start_track
2, 0, Title_t, "Track 1"
2, 0, Program_c, 0, 6
2, 0, Note_on_c, 0, 62, 88
2, 119, Note_off_c, 0, 62, 0
2, 120, Note_on_c, 0, 66, 88
2, 239, Note_off_c, 0, 66, 0
2, 240, Note_on_c, 0, 59, 88
2, 359, Note_off_c, 0, 59, 0
2, 360, Note_on_c, 0, 61, 88
2, 479, Note_off_c, 0, 61, 0
2, 480, Note_on_c, 0, 62, 88
2, 599, Note_off_c, 0, 62, 0
2, 600, Note_on_c, 0, 66, 88
2, 719, Note_off_c, 0, 66, 0
2, 720, Note_on_c, 0, 59, 88
2, 839, Note_off_c, 0, 59, 0
2, 840, Note_on_c, 0, 62, 88
2, 959, Note_off_c, 0, 62, 0
2, 960, Note_on_c, 0, 61, 88
2, 1079, Note_off_c, 0, 61, 0
2, 1080, Note_on_c, 0, 66, 88
2, 1199, Note_off_c, 0, 66, 0
2, 1200, Note_on_c, 0, 67, 88
2, 1259, Note_off_c, 0, 67, 0
2, 1260, Note_on_c, 0, 66, 88
2, 1319, Note_off_c, 0, 66, 0
2, 1320, Note_on_c, 0, 65, 88
2, 1379, Note_off_c, 0, 65, 0
2, 1380, Note_on_c, 0, 66, 88
2, 1439, Note_off_c, 0, 66, 0
2, 1440, Note_on_c, 0, 70, 88
2, 1559, Note_off_c, 0, 70, 0
2, 1560, Note_on_c, 0, 66, 88
2, 1679, Note_off_c, 0, 66, 0
2, 1680, Note_on_c, 0, 73, 88
2, 1799, Note_off_c, 0, 73, 0
2, 1800, Note_on_c, 0, 64, 88
2, 1919, Note_off_c, 0, 64, 0
2, 1920, Note_on_c, 0, 62, 88
2, 2039, Note_off_c, 0, 62, 0
2, 2040, Note_on_c, 0, 66, 88
2, 2159, Note_off_c, 0, 66, 0
2, 2160, Note_on_c, 0, 59, 88
2, 2279, Note_off_c, 0, 59, 0
2, 2280, Note_on_c, 0, 61, 88
2, 2399, Note_off_c, 0, 61, 0
2, 2400, Note_on_c, 0, 62, 88
2, 2519, Note_off_c, 0, 62, 0
2, 2520, Note_on_c, 0, 66, 88
2, 2639, Note_off_c, 0, 66, 0
2, 2640, Note_on_c, 0, 59, 88
2, 2759, Note_off_c, 0, 59, 0
2, 2760, Note_on_c, 0, 62, 88
2, 2879, Note_off_c, 0, 62, 0
2, 2880, Note_on_c, 0, 61, 88
2, 2999, Note_off_c, 0, 61, 0
2, 3000, Note_on_c, 0, 66, 88
2, 3119, Note_off_c, 0, 66, 0
2, 3120, Note_on_c, 0, 61, 88
2, 3239, Note_off_c, 0, 61, 0
2, 3240, Note_on_c, 0, 58, 88
2, 3359, Note_off_c, 0, 58, 0
2, 3360, Note_on_c, 0, 54, 88
2, 4079, Note_off_c, 0, 54, 0
2, 4080, Note_on_c, 0, 74, 88
2, 4319, Note_off_c, 0, 74, 0
2, 4320, Note_on_c, 0, 71, 88
2, 4559, Note_off_c, 0, 71, 0
2, 4560, Note_on_c, 0, 66, 88
2, 5039, Note_off_c, 0, 66, 0
2, 5040, Note_on_c, 0, 76, 88
2, 5279, Note_off_c, 0, 76, 0
2, 5280, Note_on_c, 0, 73, 88
2, 5519, Note_off_c, 0, 73, 0
2, 5520, Note_on_c, 0, 66, 88
2, 5999, Note_off_c, 0, 66, 0
2, 6000, Note_on_c, 0, 78, 88
2, 6359, Note_off_c, 0, 78, 0
2, 6360, Note_on_c, 0, 76, 88
2, 6419, Note_off_c, 0, 76, 0
2, 6420, Note_on_c, 0, 74, 88
2, 6479, Note_off_c, 0, 74, 0
2, 6480, Note_on_c, 0, 76, 88
2, 6539, Note_off_c, 0, 76, 0
2, 6540, Note_on_c, 0, 74, 88
2, 6599, Note_off_c, 0, 74, 0
2, 6600, Note_on_c, 0, 73, 88
2, 6659, Note_off_c, 0, 73, 0
2, 6660, Note_on_c, 0, 71, 88
2, 6719, Note_off_c, 0, 71, 0
2, 6720, Note_on_c, 0, 71, 88
2, 6959, Note_off_c, 0, 71, 0
2, 6960, Note_on_c, 0, 70, 88
2, 7319, Note_off_c, 0, 70, 0
2, 7320, Note_on_c, 0, 64, 88
2, 7379, Note_off_c, 0, 64, 0
2, 7380, Note_on_c, 0, 62, 88
2, 7439, Note_off_c, 0, 62, 0
2, 7440, Note_on_c, 0, 61, 88
2, 7499, Note_off_c, 0, 61, 0
2, 7500, Note_on_c, 0, 62, 88
2, 7559, Note_off_c, 0, 62, 0
2, 7560, Note_on_c, 0, 64, 88
2, 7679, Note_off_c, 0, 64, 0
2, 7680, Note_on_c, 0, 62, 88
2, 7799, Note_off_c, 0, 62, 0
2, 7800, Note_on_c, 0, 71, 88
2, 7859, Note_off_c, 0, 71, 0
2, 7860, Note_on_c, 0, 73, 88
2, 7919, Note_off_c, 0, 73, 0
2, 7920, Note_on_c, 0, 74, 88
2, 7979, Note_off_c, 0, 74, 0
2, 7980, Note_on_c, 0, 73, 88
2, 8039, Note_off_c, 0, 73, 0
2, 8040, Note_on_c, 0, 71, 88
2, 8279, Note_off_c, 0, 71, 0
2, 8280, Note_on_c, 0, 78, 88
2, 8519, Note_off_c, 0, 78, 0
2, 8520, Note_on_c, 0, 69, 88
2, 8759, Note_off_c, 0, 69, 0
2, 8760, Note_on_c, 0, 71, 88
2, 8819, Note_off_c, 0, 71, 0
2, 8820, Note_on_c, 0, 69, 88
2, 8879, Note_off_c, 0, 69, 0
2, 8880, Note_on_c, 0, 68, 88
2, 8939, Note_off_c, 0, 68, 0
2, 8940, Note_on_c, 0, 69, 88
2, 8999, Note_off_c, 0, 69, 0
2, 9000, Note_on_c, 0, 71, 88
2, 9239, Note_off_c, 0, 71, 0
2, 9240, Note_on_c, 0, 62, 88
2, 9479, Note_off_c, 0, 62, 0
2, 9480, Note_on_c, 0, 71, 88
2, 9599, Note_off_c, 0, 71, 0
2, 9600, Note_on_c, 0, 61, 88
2, 9719, Note_off_c, 0, 61, 0
2, 9720, Note_on_c, 0, 69, 88
2, 9779, Note_off_c, 0, 69, 0
2, 9780, Note_on_c, 0, 71, 88
2, 9839, Note_off_c, 0, 71, 0
2, 9840, Note_on_c, 0, 73, 88
2, 9899, Note_off_c, 0, 73, 0
2, 9900, Note_on_c, 0, 71, 88
2, 9959, Note_off_c, 0, 71, 0
2, 9960, Note_on_c, 0, 69, 88
2, 10199, Note_off_c, 0, 69, 0
2, 10200, Note_on_c, 0, 76, 88
2, 10439, Note_off_c, 0, 76, 0
2, 10440, Note_on_c, 0, 67, 88
2, 10679, Note_off_c, 0, 67, 0
2, 10680, Note_on_c, 0, 69, 88
2, 10739, Note_off_c, 0, 69, 0
2, 10740, Note_on_c, 0, 67, 88
2, 10799, Note_off_c, 0, 67, 0
2, 10800, Note_on_c, 0, 66, 88
2, 10859, Note_off_c, 0, 66, 0
2, 10860, Note_on_c, 0, 67, 88
2, 10919, Note_off_c, 0, 67, 0
2, 10920, Note_on_c, 0, 69, 88
2, 11159, Note_off_c, 0, 69, 0
2, 11160, Note_on_c, 0, 61, 88
2, 11399, Note_off_c, 0, 61, 0
2, 11400, Note_on_c, 0, 69, 88
2, 11519, Note_off_c, 0, 69, 0
2, 11520, Note_on_c, 0, 59, 88
2, 11639, Note_off_c, 0, 59, 0
2, 11640, Note_on_c, 0, 66, 88
2, 11879, Note_off_c, 0, 66, 0
2, 11880, Note_on_c, 0, 69, 88
2, 12119, Note_off_c, 0, 69, 0
2, 12120, Note_on_c, 0, 67, 88
2, 12179, Note_off_c, 0, 67, 0
2, 12180, Note_on_c, 0, 66, 88
2, 12239, Note_off_c, 0, 66, 0
2, 12240, Note_on_c, 0, 67, 88
2, 12299, Note_off_c, 0, 67, 0
2, 12300, Note_on_c, 0, 66, 88
2, 12359, Note_off_c, 0, 66, 0
2, 12360, Note_on_c, 0, 64, 88
2, 12419, Note_off_c, 0, 64, 0
2, 12420, Note_on_c, 0, 62, 88
2, 12479, Note_off_c, 0, 62, 0
2, 12480, Note_on_c, 0, 61, 88
2, 12599, Note_off_c, 0, 61, 0
2, 12600, Note_on_c, 0, 67, 88
2, 12839, Note_off_c, 0, 67, 0
2, 12840, Note_on_c, 0, 71, 88
2, 13079, Note_off_c, 0, 71, 0
2, 13080, Note_on_c, 0, 69, 88
2, 13139, Note_off_c, 0, 69, 0
2, 13140, Note_on_c, 0, 67, 88
2, 13199, Note_off_c, 0, 67, 0
2, 13200, Note_on_c, 0, 69, 88
2, 13259, Note_off_c, 0, 69, 0
2, 13260, Note_on_c, 0, 67, 88
2, 13319, Note_off_c, 0, 67, 0
2, 13320, Note_on_c, 0, 66, 88
2, 13379, Note_off_c, 0, 66, 0
2, 13380, Note_on_c, 0, 64, 88
2, 13439, Note_off_c, 0, 64, 0
2, 13440, Note_on_c, 0, 62, 88
2, 13559, Note_off_c, 0, 62, 0
2, 13560, Note_on_c, 0, 69, 88
2, 13799, Note_off_c, 0, 69, 0
2, 13800, Note_on_c, 0, 72, 88
2, 14039, Note_off_c, 0, 72, 0
2, 14040, Note_on_c, 0, 71, 88
2, 14099, Note_off_c, 0, 71, 0
2, 14100, Note_on_c, 0, 69, 88
2, 14159, Note_off_c, 0, 69, 0
2, 14160, Note_on_c, 0, 71, 88
2, 14219, Note_off_c, 0, 71, 0
2, 14220, Note_on_c, 0, 69, 88
2, 14279, Note_off_c, 0, 69, 0
2, 14280, Note_on_c, 0, 67, 88
2, 14339, Note_off_c, 0, 67, 0
2, 14340, Note_on_c, 0, 66, 88
2, 14399, Note_off_c, 0, 66, 0
2, 14400, Note_on_c, 0, 64, 88
2, 14519, Note_off_c, 0, 64, 0
2, 14520, Note_on_c, 0, 71, 88
2, 14759, Note_off_c, 0, 71, 0
2, 14760, Note_on_c, 0, 74, 88
2, 14999, Note_off_c, 0, 74, 0
2, 15000, Note_on_c, 0, 73, 88
2, 15059, Note_off_c, 0, 73, 0
2, 15060, Note_on_c, 0, 71, 88
2, 15119, Note_off_c, 0, 71, 0
2, 15120, Note_on_c, 0, 73, 88
2, 15179, Note_off_c, 0, 73, 0
2, 15180, Note_on_c, 0, 71, 88
2, 15239, Note_off_c, 0, 71, 0
2, 15240, Note_on_c, 0, 69, 88
2, 15299, Note_off_c, 0, 69, 0
2, 15300, Note_on_c, 0, 67, 88
2, 15359, Note_off_c, 0, 67, 0
2, 15360, Note_on_c, 0, 66, 88
2, 15479, Note_off_c, 0, 66, 0
2, 15480, Note_on_c, 0, 69, 88
2, 15599, Note_off_c, 0, 69, 0
2, 15600, Note_on_c, 0, 62, 88
2, 15719, Note_off_c, 0, 62, 0
2, 15720, Note_on_c, 0, 64, 88
2, 15839, Note_off_c, 0, 64, 0
2, 15840, Note_on_c, 0, 66, 88
2, 15959, Note_off_c, 0, 66, 0
2, 15960, Note_on_c, 0, 69, 88
2, 16079, Note_off_c, 0, 69, 0
2, 16080, Note_on_c, 0, 62, 88
2, 16199, Note_off_c, 0, 62, 0
2, 16200, Note_on_c, 0, 66, 88
2, 16319, Note_off_c, 0, 66, 0
2, 16320, Note_on_c, 0, 64, 88
2, 16439, Note_off_c, 0, 64, 0
2, 16440, Note_on_c, 0, 69, 88
2, 16559, Note_off_c, 0, 69, 0
2, 16560, Note_on_c, 0, 71, 88
2, 16619, Note_off_c, 0, 71, 0
2, 16620, Note_on_c, 0, 69, 88
2, 16679, Note_off_c, 0, 69, 0
2, 16680, Note_on_c, 0, 68, 88
2, 16739, Note_off_c, 0, 68, 0
2, 16740, Note_on_c, 0, 69, 88
2, 16799, Note_off_c, 0, 69, 0
2, 16800, Note_on_c, 0, 73, 88
2, 16919, Note_off_c, 0, 73, 0
2, 16920, Note_on_c, 0, 69, 88
2, 17039, Note_off_c, 0, 69, 0
2, 17040, Note_on_c, 0, 76, 88
2, 17159, Note_off_c, 0, 76, 0
2, 17160, Note_on_c, 0, 67, 88
2, 17279, Note_off_c, 0, 67, 0
2, 17280, Note_on_c, 0, 66, 88
2, 17399, Note_off_c, 0, 66, 0
2, 17400, Note_on_c, 0, 69, 88
2, 17519, Note_off_c, 0, 69, 0
2, 17520, Note_on_c, 0, 62, 88
2, 17639, Note_off_c, 0, 62, 0
2, 17640, Note_on_c, 0, 64, 88
2, 17759, Note_off_c, 0, 64, 0
2, 17760, Note_on_c, 0, 66, 88
2, 17879, Note_off_c, 0, 66, 0
2, 17880, Note_on_c, 0, 69, 88
2, 17999, Note_off_c, 0, 69, 0
2, 18000, Note_on_c, 0, 62, 88
2, 18119, Note_off_c, 0, 62, 0
2, 18120, Note_on_c, 0, 66, 88
2, 18239, Note_off_c, 0, 66, 0
2, 18240, Note_on_c, 0, 64, 88
2, 18359, Note_off_c, 0, 64, 0
2, 18360, Note_on_c, 0, 69, 88
2, 18479, Note_off_c, 0, 69, 0
2, 18480, Note_on_c, 0, 64, 88
2, 18599, Note_off_c, 0, 64, 0
2, 18600, Note_on_c, 0, 61, 88
2, 18719, Note_off_c, 0, 61, 0
2, 18720, Note_on_c, 0, 57, 88
2, 19439, Note_off_c, 0, 57, 0
2, 19440, Note_on_c, 0, 69, 88
2, 19679, Note_off_c, 0, 69, 0
2, 19680, Note_on_c, 0, 71, 88
2, 19739, Note_off_c, 0, 71, 0
2, 19740, Note_on_c, 0, 69, 88
2, 19799, Note_off_c, 0, 69, 0
2, 19800, Note_on_c, 0, 68, 88
2, 19859, Note_off_c, 0, 68, 0
2, 19860, Note_on_c, 0, 69, 88
2, 19919, Note_off_c, 0, 69, 0
2, 19920, Note_on_c, 0, 78, 88
2, 20399, Note_off_c, 0, 78, 0
2, 20400, Note_on_c, 0, 69, 88
2, 20639, Note_off_c, 0, 69, 0
2, 20640, Note_on_c, 0, 71, 88
2, 20699, Note_off_c, 0, 71, 0
2, 20700, Note_on_c, 0, 69, 88
2, 20759, Note_off_c, 0, 69, 0
2, 20760, Note_on_c, 0, 68, 88
2, 20819, Note_off_c, 0, 68, 0
2, 20820, Note_on_c, 0, 69, 88
2, 20879, Note_off_c, 0, 69, 0
2, 20880, Note_on_c, 0, 79, 88
2, 21359, Note_off_c, 0, 79, 0
2, 21360, Note_on_c, 0, 69, 88
2, 21599, Note_off_c, 0, 69, 0
2, 21600, Note_on_c, 0, 71, 88
2, 21659, Note_off_c, 0, 71, 0
2, 21660, Note_on_c, 0, 69, 88
2, 21719, Note_off_c, 0, 69, 0
2, 21720, Note_on_c, 0, 68, 88
2, 21779, Note_off_c, 0, 68, 0
2, 21780, Note_on_c, 0, 69, 88
2, 21839, Note_off_c, 0, 69, 0
2, 21840, Note_on_c, 0, 81, 88
2, 21959, Note_off_c, 0, 81, 0
2, 21960, Note_on_c, 0, 74, 88
2, 22079, Note_off_c, 0, 74, 0
2, 22080, Note_on_c, 0, 74, 88
2, 22319, Note_off_c, 0, 74, 0
2, 22320, Note_on_c, 0, 73, 88
2, 22619, Note_off_c, 0, 73, 0
2, 22620, Note_on_c, 0, 71, 88
2, 22679, Note_off_c, 0, 71, 0
2, 22680, Note_on_c, 0, 73, 88
2, 22739, Note_off_c, 0, 73, 0
2, 22740, Note_on_c, 0, 75, 88
2, 22799, Note_off_c, 0, 75, 0
2, 22800, Note_on_c, 0, 76, 88
2, 22859, Note_off_c, 0, 76, 0
2, 22860, Note_on_c, 0, 75, 88
2, 22919, Note_off_c, 0, 75, 0
2, 22920, Note_on_c, 0, 73, 88
2, 22979, Note_off_c, 0, 73, 0
2, 22980, Note_on_c, 0, 75, 88
2, 23039, Note_off_c, 0, 75, 0
2, 23040, Note_on_c, 0, 76, 88
2, 23159, Note_off_c, 0, 76, 0
2, 23160, Note_on_c, 0, 79, 88
2, 23279, Note_off_c, 0, 79, 0
2, 23280, Note_on_c, 0, 71, 88
2, 23399, Note_off_c, 0, 71, 0
2, 23400, Note_on_c, 0, 75, 88
2, 23519, Note_off_c, 0, 75, 0
2, 23520, Note_on_c, 0, 76, 88
2, 23639, Note_off_c, 0, 76, 0
2, 23640, Note_on_c, 0, 79, 88
2, 23759, Note_off_c, 0, 79, 0
2, 23760, Note_on_c, 0, 71, 88
2, 23879, Note_off_c, 0, 71, 0
2, 23880, Note_on_c, 0, 76, 88
2, 23999, Note_off_c, 0, 76, 0
2, 24000, Note_on_c, 0, 76, 88
2, 24239, Note_off_c, 0, 76, 0
2, 24240, Note_on_c, 0, 75, 88
2, 24359, Note_off_c, 0, 75, 0
2, 24360, Note_on_c, 0, 78, 88
2, 24479, Note_off_c, 0, 78, 0
2, 24480, Note_on_c, 0, 71, 88
2, 24719, Note_off_c, 0, 71, 0
2, 24720, Note_on_c, 0, 69, 88
2, 24839, Note_off_c, 0, 69, 0
2, 24840, Note_on_c, 0, 78, 88
2, 24959, Note_off_c, 0, 78, 0
2, 24960, Note_on_c, 0, 78, 88
2, 25019, Note_off_c, 0, 78, 0
2, 25020, Note_on_c, 0, 76, 88
2, 25079, Note_off_c, 0, 76, 0
2, 25080, Note_on_c, 0, 75, 88
2, 25199, Note_off_c, 0, 75, 0
2, 25200, Note_on_c, 0, 76, 88
2, 25319, Note_off_c, 0, 76, 0
2, 25320, Note_on_c, 0, 69, 88
2, 25439, Note_off_c, 0, 69, 0
2, 25440, Note_on_c, 0, 69, 88
2, 25679, Note_off_c, 0, 69, 0
2, 25680, Note_on_c, 0, 67, 88
2, 25799, Note_off_c, 0, 67, 0
2, 25800, Note_on_c, 0, 76, 88
2, 25919, Note_off_c, 0, 76, 0
2, 25920, Note_on_c, 0, 76, 88
2, 26039, Note_off_c, 0, 76, 0
2, 26040, Note_on_c, 0, 75, 88
2, 26159, Note_off_c, 0, 75, 0
2, 26160, Note_on_c, 0, 81, 88
2, 26459, Note_off_c, 0, 81, 0
2, 26460, Note_on_c, 0, 79, 88
2, 26519, Note_off_c, 0, 79, 0
2, 26520, Note_on_c, 0, 78, 88
2, 26579, Note_off_c, 0, 78, 0
2, 26580, Note_on_c, 0, 76, 88
2, 26639, Note_off_c, 0, 76, 0
2, 26640, Note_on_c, 0, 75, 88
2, 26699, Note_off_c, 0, 75, 0
2, 26700, Note_on_c, 0, 73, 88
2, 26759, Note_off_c, 0, 73, 0
2, 26760, Note_on_c, 0, 71, 88
2, 26819, Note_off_c, 0, 71, 0
2, 26820, Note_on_c, 0, 69, 88
2, 26879, Note_off_c, 0, 69, 0
2, 26880, Note_on_c, 0, 67, 88
2, 26999, Note_off_c, 0, 67, 0
2, 27000, Note_on_c, 0, 71, 88
2, 27119, Note_off_c, 0, 71, 0
2, 27120, Note_on_c, 0, 64, 88
2, 27239, Note_off_c, 0, 64, 0
2, 27240, Note_on_c, 0, 66, 88
2, 27359, Note_off_c, 0, 66, 0
2, 27360, Note_on_c, 0, 67, 88
2, 27479, Note_off_c, 0, 67, 0
2, 27480, Note_on_c, 0, 71, 88
2, 27599, Note_off_c, 0, 71, 0
2, 27600, Note_on_c, 0, 64, 88
2, 27719, Note_off_c, 0, 64, 0
2, 27720, Note_on_c, 0, 67, 88
2, 27839, Note_off_c, 0, 67, 0
2, 27840, Note_on_c, 0, 66, 88
2, 27959, Note_off_c, 0, 66, 0
2, 27960, Note_on_c, 0, 71, 88
2, 28079, Note_off_c, 0, 71, 0
2, 28080, Note_on_c, 0, 72, 88
2, 28139, Note_off_c, 0, 72, 0
2, 28140, Note_on_c, 0, 71, 88
2, 28199, Note_off_c, 0, 71, 0
2, 28200, Note_on_c, 0, 70, 88
2, 28259, Note_off_c, 0, 70, 0
2, 28260, Note_on_c, 0, 71, 88
2, 28319, Note_off_c, 0, 71, 0
2, 28320, Note_on_c, 0, 75, 88
2, 28439, Note_off_c, 0, 75, 0
2, 28440, Note_on_c, 0, 71, 88
2, 28559, Note_off_c, 0, 71, 0
2, 28560, Note_on_c, 0, 78, 88
2, 28679, Note_off_c, 0, 78, 0
2, 28680, Note_on_c, 0, 69, 88
2, 28799, Note_off_c, 0, 69, 0
2, 28800, Note_on_c, 0, 67, 88
2, 28919, Note_off_c, 0, 67, 0
2, 28920, Note_on_c, 0, 71, 88
2, 29039, Note_off_c, 0, 71, 0
2, 29040, Note_on_c, 0, 64, 88
2, 29159, Note_off_c, 0, 64, 0
2, 29160, Note_on_c, 0, 66, 88
2, 29279, Note_off_c, 0, 66, 0
2, 29280, Note_on_c, 0, 67, 88
2, 29399, Note_off_c, 0, 67, 0
2, 29400, Note_on_c, 0, 71, 88
2, 29519, Note_off_c, 0, 71, 0
2, 29520, Note_on_c, 0, 64, 88
2, 29639, Note_off_c, 0, 64, 0
2, 29640, Note_on_c, 0, 67, 88
2, 29759, Note_off_c, 0, 67, 0
2, 29760, Note_on_c, 0, 66, 88
2, 29879, Note_off_c, 0, 66, 0
2, 29880, Note_on_c, 0, 71, 88
2, 29999, Note_off_c, 0, 71, 0
2, 30000, Note_on_c, 0, 66, 88
2, 30119, Note_off_c, 0, 66, 0
2, 30120, Note_on_c, 0, 63, 88
2, 30239, Note_off_c, 0, 63, 0
2, 30240, Note_on_c, 0, 59, 88
2, 30479, Note_off_c, 0, 59, 0
2, 30480, Note_on_c, 0, 75, 88
2, 30719, Note_off_c, 0, 75, 0
2, 30720, Note_on_c, 0, 76, 88
2, 30959, Note_off_c, 0, 76, 0
2, 30960, Note_on_c, 0, 71, 88
2, 31199, Note_off_c, 0, 71, 0
2, 31200, Note_on_c, 0, 79, 88
2, 31259, Note_off_c, 0, 79, 0
2, 31260, Note_on_c, 0, 78, 88
2, 31319, Note_off_c, 0, 78, 0
2, 31320, Note_on_c, 0, 76, 88
2, 31379, Note_off_c, 0, 76, 0
2, 31380, Note_on_c, 0, 78, 88
2, 31439, Note_off_c, 0, 78, 0
2, 31440, Note_on_c, 0, 79, 88
2, 31559, Note_off_c, 0, 79, 0
2, 31560, Note_on_c, 0, 71, 88
2, 31679, Note_off_c, 0, 71, 0
2, 31680, Note_on_c, 0, 71, 88
2, 31709, Note_off_c, 0, 71, 0
2, 31710, Note_on_c, 0, 69, 88
2, 31739, Note_off_c, 0, 69, 0
2, 31740, Note_on_c, 0, 71, 88
2, 31769, Note_off_c, 0, 71, 0
2, 31770, Note_on_c, 0, 69, 88
2, 31799, Note_off_c, 0, 69, 0
2, 31800, Note_on_c, 0, 68, 88
2, 31919, Note_off_c, 0, 68, 0
2, 31920, Note_on_c, 0, 69, 88
2, 32039, Note_off_c, 0, 69, 0
2, 32040, Note_on_c, 0, 73, 88
2, 32159, Note_off_c, 0, 73, 0
2, 32160, Note_on_c, 0, 73, 88
2, 32279, Note_off_c, 0, 73, 0
2, 32280, Note_on_c, 0, 76, 88
2, 32399, Note_off_c, 0, 76, 0
2, 32400, Note_on_c, 0, 81, 88
2, 32519, Note_off_c, 0, 81, 0
2, 32520, Note_on_c, 0, 73, 88
2, 32639, Note_off_c, 0, 73, 0
2, 32640, Note_on_c, 0, 74, 88
2, 32879, Note_off_c, 0, 74, 0
2, 32880, Note_on_c, 0, 69, 88
2, 33119, Note_off_c, 0, 69, 0
2, 33120, Note_on_c, 0, 78, 88
2, 33179, Note_off_c, 0, 78, 0
2, 33180, Note_on_c, 0, 76, 88
2, 33239, Note_off_c, 0, 76, 0
2, 33240, Note_on_c, 0, 74, 88
2, 33299, Note_off_c, 0, 74, 0
2, 33300, Note_on_c, 0, 76, 88
2, 33359, Note_off_c, 0, 76, 0
2, 33360, Note_on_c, 0, 78, 88
2, 33479, Note_off_c, 0, 78, 0
2, 33480, Note_on_c, 0, 69, 88
2, 33599, Note_off_c, 0, 69, 0
2, 33600, Note_on_c, 0, 69, 88
2, 33629, Note_off_c, 0, 69, 0
2, 33630, Note_on_c, 0, 67, 88
2, 33659, Note_off_c, 0, 67, 0
2, 33660, Note_on_c, 0, 69, 88
2, 33689, Note_off_c, 0, 69, 0
2, 33690, Note_on_c, 0, 67, 88
2, 33719, Note_off_c, 0, 67, 0
2, 33720, Note_on_c, 0, 66, 88
2, 33839, Note_off_c, 0, 66, 0
2, 33840, Note_on_c, 0, 67, 88
2, 33959, Note_off_c, 0, 67, 0
2, 33960, Note_on_c, 0, 71, 88
2, 34079, Note_off_c, 0, 71, 0
2, 34080, Note_on_c, 0, 71, 88
2, 34199, Note_off_c, 0, 71, 0
2, 34200, Note_on_c, 0, 74, 88
2, 34319, Note_off_c, 0, 74, 0
2, 34320, Note_on_c, 0, 79, 88
2, 34439, Note_off_c, 0, 79, 0
2, 34440, Note_on_c, 0, 71, 88
2, 34559, Note_off_c, 0, 71, 0
2, 34560, Note_on_c, 0, 73, 88
2, 34679, Note_off_c, 0, 73, 0
2, 34680, Note_on_c, 0, 79, 88
2, 34919, Note_off_c, 0, 79, 0
2, 34920, Note_on_c, 0, 78, 88
2, 35039, Note_off_c, 0, 78, 0
2, 35040, Note_on_c, 0, 70, 88
2, 35159, Note_off_c, 0, 70, 0
2, 35160, Note_on_c, 0, 76, 88
2, 35399, Note_off_c, 0, 76, 0
2, 35400, Note_on_c, 0, 74, 88
2, 35519, Note_off_c, 0, 74, 0
2, 35520, Note_on_c, 0, 65, 88
2, 35759, Note_off_c, 0, 65, 0
2, 35760, Note_on_c, 0, 66, 88
2, 35999, Note_off_c, 0, 66, 0
2, 36000, Note_on_c, 0, 68, 88
2, 36239, Note_off_c, 0, 68, 0
2, 36240, Note_on_c, 0, 69, 88
2, 36479, Note_off_c, 0, 69, 0
2, 36480, Note_on_c, 0, 71, 88
2, 36719, Note_off_c, 0, 71, 0
2, 36720, Note_on_c, 0, 73, 88
2, 36959, Note_off_c, 0, 73, 0
2, 36960, Note_on_c, 0, 74, 88
2, 37079, Note_off_c, 0, 74, 0
2, 37080, Note_on_c, 0, 65, 88
2, 37319, Note_off_c, 0, 65, 0
2, 37320, Note_on_c, 0, 66, 88
2, 37439, Note_off_c, 0, 66, 0
2, 37440, Note_on_c, 0, 68, 88
2, 37559, Note_off_c, 0, 68, 0
2, 37560, Note_on_c, 0, 59, 88
2, 37799, Note_off_c, 0, 59, 0
2, 37800, Note_on_c, 0, 62, 88
2, 38039, Note_off_c, 0, 62, 0
2, 38040, Note_on_c, 0, 61, 88
2, 38279, Note_off_c, 0, 61, 0
2, 38280, Note_on_c, 0, 59, 88
2, 38399, Note_off_c, 0, 59, 0
2, 38400, Note_on_c, 0, 57, 88
2, 38519, Note_off_c, 0, 57, 0
2, 38520, Note_on_c, 0, 61, 88
2, 38639, Note_off_c, 0, 61, 0
2, 38640, Note_on_c, 0, 54, 88
2, 38759, Note_off_c, 0, 54, 0
2, 38760, Note_on_c, 0, 56, 88
2, 38879, Note_off_c, 0, 56, 0
2, 38880, Note_on_c, 0, 57, 88
2, 38999, Note_off_c, 0, 57, 0
2, 39000, Note_on_c, 0, 61, 88
2, 39119, Note_off_c, 0, 61, 0
2, 39120, Note_on_c, 0, 54, 88
2, 39239, Note_off_c, 0, 54, 0
2, 39240, Note_on_c, 0, 57, 88
2, 39359, Note_off_c, 0, 57, 0
2, 39360, Note_on_c, 0, 56, 88
2, 39479, Note_off_c, 0, 56, 0
2, 39480, Note_on_c, 0, 61, 88
2, 39599, Note_off_c, 0, 61, 0
2, 39600, Note_on_c, 0, 62, 88
2, 39659, Note_off_c, 0, 62, 0
2, 39660, Note_on_c, 0, 61, 88
2, 39719, Note_off_c, 0, 61, 0
2, 39720, Note_on_c, 0, 60, 88
2, 39779, Note_off_c, 0, 60, 0
2, 39780, Note_on_c, 0, 61, 88
2, 39839, Note_off_c, 0, 61, 0
2, 39840, Note_on_c, 0, 65, 88
2, 39959, Note_off_c, 0, 65, 0
2, 39960, Note_on_c, 0, 61, 88
2, 40079, Note_off_c, 0, 61, 0
2, 40080, Note_on_c, 0, 68, 88
2, 40199, Note_off_c, 0, 68, 0
2, 40200, Note_on_c, 0, 59, 88
2, 40319, Note_off_c, 0, 59, 0
2, 40320, Note_on_c, 0, 57, 88
2, 40559, Note_off_c, 0, 57, 0
2, 40560, Note_on_c, 0, 61, 88
2, 40799, Note_off_c, 0, 61, 0
2, 40800, Note_on_c, 0, 66, 88
2, 41039, Note_off_c, 0, 66, 0
2, 41040, Note_on_c, 0, 69, 88
2, 41279, Note_off_c, 0, 69, 0
2, 41280, Note_on_c, 0, 65, 88
2, 41519, Note_off_c, 0, 65, 0
2, 41520, Note_on_c, 0, 68, 88
2, 41759, Note_off_c, 0, 68, 0
2, 41760, Note_on_c, 0, 71, 88
2, 41999, Note_off_c, 0, 71, 0
2, 42000, Note_on_c, 0, 74, 88
2, 42239, Note_off_c, 0, 74, 0
2, 42240, Note_on_c, 0, 73, 88
2, 42359, Note_off_c, 0, 73, 0
2, 42360, Note_on_c, 0, 66, 88
2, 42419, Note_off_c, 0, 66, 0
2, 42420, Note_on_c, 0, 68, 88
2, 42479, Note_off_c, 0, 68, 0
2, 42480, Note_on_c, 0, 69, 88
2, 42539, Note_off_c, 0, 69, 0
2, 42540, Note_on_c, 0, 68, 88
2, 42599, Note_off_c, 0, 68, 0
2, 42600, Note_on_c, 0, 66, 88
2, 42839, Note_off_c, 0, 66, 0
2, 42840, Note_on_c, 0, 73, 88
2, 43079, Note_off_c, 0, 73, 0
2, 43080, Note_on_c, 0, 64, 88
2, 43319, Note_off_c, 0, 64, 0
2, 43320, Note_on_c, 0, 66, 88
2, 43379, Note_off_c, 0, 66, 0
2, 43380, Note_on_c, 0, 64, 88
2, 43439, Note_off_c, 0, 64, 0
2, 43440, Note_on_c, 0, 62, 88
2, 43499, Note_off_c, 0, 62, 0
2, 43500, Note_on_c, 0, 64, 88
2, 43559, Note_off_c, 0, 64, 0
2, 43560, Note_on_c, 0, 66, 88
2, 43799, Note_off_c, 0, 66, 0
2, 43800, Note_on_c, 0, 57, 88
2, 44039, Note_off_c, 0, 57, 0
2, 44040, Note_on_c, 0, 66, 88
2, 44159, Note_off_c, 0, 66, 0
2, 44160, Note_on_c, 0, 55, 88
2, 44279, Note_off_c, 0, 55, 0
2, 44280, Note_on_c, 0, 64, 88
2, 44339, Note_off_c, 0, 64, 0
2, 44340, Note_on_c, 0, 66, 88
2, 44399, Note_off_c, 0, 66, 0
2, 44400, Note_on_c, 0, 67, 88
2, 44459, Note_off_c, 0, 67, 0
2, 44460, Note_on_c, 0, 66, 88
2, 44519, Note_off_c, 0, 66, 0
2, 44520, Note_on_c, 0, 64, 88
2, 44759, Note_off_c, 0, 64, 0
2, 44760, Note_on_c, 0, 71, 88
2, 44999, Note_off_c, 0, 71, 0
2, 45000, Note_on_c, 0, 62, 88
2, 45239, Note_off_c, 0, 62, 0
2, 45240, Note_on_c, 0, 64, 88
2, 45299, Note_off_c, 0, 64, 0
2, 45300, Note_on_c, 0, 62, 88
2, 45359, Note_off_c, 0, 62, 0
2, 45360, Note_on_c, 0, 61, 88
2, 45419, Note_off_c, 0, 61, 0
2, 45420, Note_on_c, 0, 62, 88
2, 45479, Note_off_c, 0, 62, 0
2, 45480, Note_on_c, 0, 64, 88
2, 45719, Note_off_c, 0, 64, 0
2, 45720, Note_on_c, 0, 55, 88
2, 45959, Note_off_c, 0, 55, 0
2, 45960, Note_on_c, 0, 64, 88
2, 46079, Note_off_c, 0, 64, 0
2, 46080, Note_on_c, 0, 54, 88
2, 46199, Note_off_c, 0, 54, 0
2, 46200, Note_on_c, 0, 61, 88
2, 46439, Note_off_c, 0, 61, 0
2, 46440, Note_on_c, 0, 64, 88
2, 46679, Note_off_c, 0, 64, 0
2, 46680, Note_on_c, 0, 62, 88
2, 46739, Note_off_c, 0, 62, 0
2, 46740, Note_on_c, 0, 61, 88
2, 46799, Note_off_c, 0, 61, 0
2, 46800, Note_on_c, 0, 62, 88
2, 46859, Note_off_c, 0, 62, 0
2, 46860, Note_on_c, 0, 61, 88
2, 46919, Note_off_c, 0, 61, 0
2, 46920, Note_on_c, 0, 59, 88
2, 46979, Note_off_c, 0, 59, 0
2, 46980, Note_on_c, 0, 58, 88
2, 47039, Note_off_c, 0, 58, 0
2, 47040, Note_on_c, 0, 59, 88
2, 47159, Note_off_c, 0, 59, 0
2, 47160, Note_on_c, 0, 66, 88
2, 47399, Note_off_c, 0, 66, 0
2, 47400, Note_on_c, 0, 69, 88
2, 47639, Note_off_c, 0, 69, 0
2, 47640, Note_on_c, 0, 67, 88
2, 47699, Note_off_c, 0, 67, 0
2, 47700, Note_on_c, 0, 66, 88
2, 47759, Note_off_c, 0, 66, 0
2, 47760, Note_on_c, 0, 67, 88
2, 47819, Note_off_c, 0, 67, 0
2, 47820, Note_on_c, 0, 66, 88
2, 47879, Note_off_c, 0, 66, 0
2, 47880, Note_on_c, 0, 64, 88
2, 47939, Note_off_c, 0, 64, 0
2, 47940, Note_on_c, 0, 62, 88
2, 47999, Note_off_c, 0, 62, 0
2, 48000, Note_on_c, 0, 64, 88
2, 48119, Note_off_c, 0, 64, 0
2, 48120, Note_on_c, 0, 71, 88
2, 48359, Note_off_c, 0, 71, 0
2, 48360, Note_on_c, 0, 74, 88
2, 48599, Note_off_c, 0, 74, 0
2, 48600, Note_on_c, 0, 73, 88
2, 48659, Note_off_c, 0, 73, 0
2, 48660, Note_on_c, 0, 71, 88
2, 48719, Note_off_c, 0, 71, 0
2, 48720, Note_on_c, 0, 73, 88
2, 48779, Note_off_c, 0, 73, 0
2, 48780, Note_on_c, 0, 71, 88
2, 48839, Note_off_c, 0, 71, 0
2, 48840, Note_on_c, 0, 70, 88
2, 48899, Note_off_c, 0, 70, 0
2, 48900, Note_on_c, 0, 68, 88
2, 48959, Note_off_c, 0, 68, 0
2, 48960, Note_on_c, 0, 70, 88
2, 49079, Note_off_c, 0, 70, 0
2, 49080, Note_on_c, 0, 76, 88
2, 49319, Note_off_c, 0, 76, 0
2, 49320, Note_on_c, 0, 79, 88
2, 49559, Note_off_c, 0, 79, 0
2, 49560, Note_on_c, 0, 78, 88
2, 49619, Note_off_c, 0, 78, 0
2, 49620, Note_on_c, 0, 76, 88
2, 49679, Note_off_c, 0, 76, 0
2, 49680, Note_on_c, 0, 78, 88
2, 49739, Note_off_c, 0, 78, 0
2, 49740, Note_on_c, 0, 76, 88
2, 49799, Note_off_c, 0, 76, 0
2, 49800, Note_on_c, 0, 74, 88
2, 49859, Note_off_c, 0, 74, 0
2, 49860, Note_on_c, 0, 73, 88
2, 49919, Note_off_c, 0, 73, 0
2, 49920, Note_on_c, 0, 74, 88
2, 50039, Note_off_c, 0, 74, 0
2, 50040, Note_on_c, 0, 70, 88
2, 50279, Note_off_c, 0, 70, 0
2, 50280, Note_on_c, 0, 71, 88
2, 50399, Note_off_c, 0, 71, 0
2, 50400, Note_on_c, 0, 73, 88
2, 50519, Note_off_c, 0, 73, 0
2, 50520, Note_on_c, 0, 75, 88
2, 50639, Note_off_c, 0, 75, 0
2, 50640, Note_on_c, 0, 76, 88
2, 50699, Note_off_c, 0, 76, 0
2, 50700, Note_on_c, 0, 75, 88
2, 50759, Note_off_c, 0, 75, 0
2, 50760, Note_on_c, 0, 73, 88
2, 50819, Note_off_c, 0, 73, 0
2, 50820, Note_on_c, 0, 75, 88
2, 50879, Note_off_c, 0, 75, 0
2, 50880, Note_on_c, 0, 76, 88
2, 50999, Note_off_c, 0, 76, 0
2, 51000, Note_on_c, 0, 70, 88
2, 51239, Note_off_c, 0, 70, 0
2, 51240, Note_on_c, 0, 71, 88
2, 51359, Note_off_c, 0, 71, 0
2, 51360, Note_on_c, 0, 74, 88
2, 51479, Note_off_c, 0, 74, 0
2, 51480, Note_on_c, 0, 70, 88
2, 51719, Note_off_c, 0, 70, 0
2, 51720, Note_on_c, 0, 71, 88
2, 51839, Note_off_c, 0, 71, 0
2, 51840, Note_on_c, 0, 79, 88
2, 51899, Note_off_c, 0, 79, 0
2, 51900, Note_on_c, 0, 78, 88
2, 51959, Note_off_c, 0, 78, 0
2, 51960, Note_on_c, 0, 76, 88
2, 52199, Note_off_c, 0, 76, 0
2, 52200, Note_on_c, 0, 76, 88
2, 52379, Note_off_c, 0, 76, 0
2, 52380, Note_on_c, 0, 78, 88
2, 52439, Note_off_c, 0, 78, 0
2, 52440, Note_on_c, 0, 76, 88
2, 52499, Note_off_c, 0, 76, 0
2, 52500, Note_on_c, 0, 75, 88
2, 52559, Note_off_c, 0, 75, 0
2, 52560, Note_on_c, 0, 76, 88
2, 52679, Note_off_c, 0, 76, 0
2, 52680, Note_on_c, 0, 76, 88
2, 52859, Note_off_c, 0, 76, 0
2, 52860, Note_on_c, 0, 69, 88
2, 52919, Note_off_c, 0, 69, 0
2, 52920, Note_on_c, 0, 67, 88
2, 52979, Note_off_c, 0, 67, 0
2, 52980, Note_on_c, 0, 66, 88
2, 53039, Note_off_c, 0, 66, 0
2, 53040, Note_on_c, 0, 67, 88
2, 53159, Note_off_c, 0, 67, 0
2, 53160, Note_on_c, 0, 76, 88
2, 53399, Note_off_c, 0, 76, 0
2, 53400, Note_on_c, 0, 67, 88
2, 53639, Note_off_c, 0, 67, 0
2, 53640, Note_on_c, 0, 67, 88
2, 53879, Note_off_c, 0, 67, 0
2, 53880, Note_on_c, 0, 66, 88
2, 53939, Note_off_c, 0, 66, 0
2, 53940, Note_on_c, 0, 74, 88
2, 53999, Note_off_c, 0, 74, 0
2, 54000, Note_on_c, 0, 74, 88
2, 54097, Note_off_c, 0, 74, 0
2, 54098, Note_on_c, 0, 73, 88
2, 54359, Note_off_c, 0, 73, 0
2, 54360, Note_on_c, 0, 64, 88
2, 54419, Note_off_c, 0, 64, 0
2, 54420, Note_on_c, 0, 66, 88
2, 54479, Note_off_c, 0, 66, 0
2, 54480, Note_on_c, 0, 67, 88
2, 54539, Note_off_c, 0, 67, 0
2, 54540, Note_on_c, 0, 66, 88
2, 54599, Note_off_c, 0, 66, 0
2, 54600, Note_on_c, 0, 64, 88
2, 54719, Note_off_c, 0, 64, 0
2, 54720, Note_on_c, 0, 62, 88
2, 54839, Note_off_c, 0, 62, 0
2, 54840, Note_on_c, 0, 66, 88
2, 54959, Note_off_c, 0, 66, 0
2, 54960, Note_on_c, 0, 70, 88
2, 55079, Note_off_c, 0, 70, 0
2, 55080, Note_on_c, 0, 71, 88
2, 55199, Note_off_c, 0, 71, 0
2, 55200, Note_on_c, 0, 74, 88
2, 55319, Note_off_c, 0, 74, 0
2, 55320, Note_on_c, 0, 73, 88
2, 55439, Note_off_c, 0, 73, 0
2, 55440, Note_on_c, 0, 71, 88
2, 55559, Note_off_c, 0, 71, 0
2, 55560, Note_on_c, 0, 70, 88
2, 55679, Note_off_c, 0, 70, 0
2, 55680, Note_on_c, 0, 71, 88
2, 55919, Note_off_c, 0, 71, 0
2, 55920, Note_on_c, 0, 66, 88
2, 56159, Note_off_c, 0, 66, 0
2, 56160, Note_on_c, 0, 67, 88
2, 56219, Note_off_c, 0, 67, 0
2, 56220, Note_on_c, 0, 66, 88
2, 56279, Note_off_c, 0, 66, 0
2, 56280, Note_on_c, 0, 65, 88
2, 56339, Note_off_c, 0, 65, 0
2, 56340, Note_on_c, 0, 66, 88
2, 56399, Note_off_c, 0, 66, 0
2, 56400, Note_on_c, 0, 74, 88
2, 56879, Note_off_c, 0, 74, 0
2, 56880, Note_on_c, 0, 66, 88
2, 57119, Note_off_c, 0, 66, 0
2, 57120, Note_on_c, 0, 67, 88
2, 57179, Note_off_c, 0, 67, 0
2, 57180, Note_on_c, 0, 66, 88
2, 57239, Note_off_c, 0, 66, 0
2, 57240, Note_on_c, 0, 65, 88
2, 57299, Note_off_c, 0, 65, 0
2, 57300, Note_on_c, 0, 66, 88
2, 57359, Note_off_c, 0, 66, 0
2, 57360, Note_on_c, 0, 76, 88
2, 57839, Note_off_c, 0, 76, 0
2, 57840, Note_on_c, 0, 66, 88
2, 58079, Note_off_c, 0, 66, 0
2, 58080, Note_on_c, 0, 67, 88
2, 58139, Note_off_c, 0, 67, 0
2, 58140, Note_on_c, 0, 66, 88
2, 58199, Note_off_c, 0, 66, 0
2, 58200, Note_on_c, 0, 65, 88
2, 58259, Note_off_c, 0, 65, 0
2, 58260, Note_on_c, 0, 66, 88
2, 58319, Note_off_c, 0, 66, 0
2, 58320, Note_on_c, 0, 78, 88
2, 58439, Note_off_c, 0, 78, 0
2, 58440, Note_on_c, 0, 69, 88
2, 58559, Note_off_c, 0, 69, 0
2, 58560, Note_on_c, 0, 69, 88
2, 58799, Note_off_c, 0, 69, 0
2, 58800, Note_on_c, 0, 68, 88
2, 59159, Note_off_c, 0, 68, 0
2, 59160, Note_on_c, 0, 68, 88
2, 59219, Note_off_c, 0, 68, 0
2, 59220, Note_on_c, 0, 70, 88
2, 59279, Note_off_c, 0, 70, 0
2, 59280, Note_on_c, 0, 71, 88
2, 59339, Note_off_c, 0, 71, 0
2, 59340, Note_on_c, 0, 73, 88
2, 59399, Note_off_c, 0, 73, 0
2, 59400, Note_on_c, 0, 74, 88
2, 59459, Note_off_c, 0, 74, 0
2, 59460, Note_on_c, 0, 76, 88
2, 59519, Note_off_c, 0, 76, 0
2, 59520, Note_on_c, 0, 71, 88
2, 59759, Note_off_c, 0, 71, 0
2, 59760, Note_on_c, 0, 70, 88
2, 60119, Note_off_c, 0, 70, 0
2, 60120, Note_on_c, 0, 70, 88
2, 60179, Note_off_c, 0, 70, 0
2, 60180, Note_on_c, 0, 71, 88
2, 60239, Note_off_c, 0, 71, 0
2, 60240, Note_on_c, 0, 73, 88
2, 60299, Note_off_c, 0, 73, 0
2, 60300, Note_on_c, 0, 71, 88
2, 60359, Note_off_c, 0, 71, 0
2, 60360, Note_on_c, 0, 70, 88
2, 60479, Note_off_c, 0, 70, 0
2, 60480, Note_on_c, 0, 77, 88
2, 60719, Note_off_c, 0, 77, 0
2, 60720, Note_on_c, 0, 78, 88
2, 61559, Note_off_c, 0, 78, 0
2, 61560, Note_on_c, 0, 71, 88
2, 61619, Note_off_c, 0, 71, 0
2, 61620, Note_on_c, 0, 69, 88
2, 61679, Note_off_c, 0, 69, 0
2, 61680, Note_on_c, 0, 67, 88
2, 61739, Note_off_c, 0, 67, 0
2, 61740, Note_on_c, 0, 66, 88
2, 61799, Note_off_c, 0, 66, 0
2, 61800, Note_on_c, 0, 64, 88
2, 62039, Note_off_c, 0, 64, 0
2, 62040, Note_on_c, 0, 71, 88
2, 62279, Note_off_c, 0, 71, 0
2, 62280, Note_on_c, 0, 70, 88
2, 62399, Note_off_c, 0, 70, 0
2, 62400, Note_on_c, 0, 71, 88
2, 62440, Note_off_c, 0, 71, 0
2, 62440, End_track
0, 0, End_of_file