0, 0, Header, 1, 2, 240
1, 0, Start_track
1, 0, Time_signature, 4, 2, 24, 8
1, 0, Tempo, 789473
1, 0, SMPTE_offset, 64, 0, 0, 0, 100
1, 0, End_track
2, 0, Start_track
2, 0, Title_t, "Track 1"
2, 0, Program_c, 0, 6
2, 200, Note_on_c, 0, 69, 88
2, 239, Note_off_c, 0, 69, 0
2, 240, Note_on_c, 0, 65, 88
2, 279, Note_off_c, 0, 65, 0
2, 280, Note_on_c, 0, 62, 88
2, 319, Note_off_c, 0, 62, 0
2, 320, Note_on_c, 0, 69, 88
2, 359, Note_off_c, 0, 69, 0
2, 360, Note_on_c, 0, 65, 88
2, 399, Note_off_c, 0, 65, 0
2, 400, Note_on_c, 0, 62, 88
2, 439, Note_off_c, 0, 62, 0
2, 440, Note_on_c, 0, 74, 88
2, 479, Note_off_c, 0, 74, 0
2, 480, Note_on_c, 0, 70, 88
2, 519, Note_off_c, 0, 70, 0
2, 520, Note_on_c, 0, 67, 88
2, 559, Note_off_c, 0, 67, 0
2, 560, Note_on_c, 0, 70, 88
2, 599, Note_off_c, 0, 70, 0
2, 600, Note_on_c, 0, 67, 88
2, 639, Note_off_c, 0, 67, 0
2, 640, Note_on_c, 0, 64, 88
2, 679, Note_off_c, 0, 64, 0
2, 680, Note_on_c, 0, 67, 88
2, 719, Note_off_c, 0, 67, 0
2, 720, Note_on_c, 0, 64, 88
2, 759, Note_off_c, 0, 64, 0
2, 760, Note_on_c, 0, 61, 88
2, 799, Note_off_c, 0, 61, 0
2, 800, Note_on_c, 0, 67, 88
2, 839, Note_off_c, 0, 67, 0
2, 840, Note_on_c, 0, 64, 88
2, 879, Note_off_c, 0, 64, 0
2, 880, Note_on_c, 0, 61, 88
2, 919, Note_off_c, 0, 61, 0
2, 920, Note_on_c, 0, 69, 88
2, 959, Note_off_c, 0, 69, 0
2, 960, Note_on_c, 0, 65, 88
2, 999, Note_off_c, 0, 65, 0
2, 1000, Note_on_c, 0, 62, 88
2, 1039, Note_off_c, 0, 62, 0
2, 1040, Note_on_c, 0, 69, 88
2, 1079, Note_off_c, 0, 69, 0
2, 1080, Note_on_c, 0, 65, 88
2, 1119, Note_off_c, 0, 65, 0
2, 1120, Note_on_c, 0, 62, 88
2, 1159, Note_off_c, 0, 62, 0
2, 1160, Note_on_c, 0, 81, 88
2, 1199, Note_off_c, 0, 81, 0
2, 1200, Note_on_c, 0, 77, 88
2, 1239, Note_off_c, 0, 77, 0
2, 1240, Note_on_c, 0, 74, 88
2, 1279, Note_off_c, 0, 74, 0
2, 1280, Note_on_c, 0, 77, 88
2, 1319, Note_off_c, 0, 77, 0
2, 1320, Note_on_c, 0, 74, 88
2, 1359, Note_off_c, 0, 74, 0
2, 1360, Note_on_c, 0, 69, 88
2, 1399, Note_off_c, 0, 69, 0
2, 1400, Note_on_c, 0, 74, 88
2, 1439, Note_off_c, 0, 74, 0
2, 1440, Note_on_c, 0, 70, 88
2, 1479, Note_off_c, 0, 70, 0
2, 1480, Note_on_c, 0, 67, 88
2, 1519, Note_off_c, 0, 67, 0
2, 1520, Note_on_c, 0, 74, 88
2, 1559, Note_off_c, 0, 74, 0
2, 1560, Note_on_c, 0, 70, 88
2, 1599, Note_off_c, 0, 70, 0
2, 1600, Note_on_c, 0, 67, 88
2, 1639, Note_off_c, 0, 67, 0
2, 1640, Note_on_c, 0, 79, 88
2, 1679, Note_off_c, 0, 79, 0
2, 1680, Note_on_c, 0, 76, 88
2, 1719, Note_off_c, 0, 76, 0
2, 1720, Note_on_c, 0, 72, 88
2, 1759, Note_off_c, 0, 72, 0
2, 1760, Note_on_c, 0, 76, 88
2, 1799, Note_off_c, 0, 76, 0
2, 1800, Note_on_c, 0, 72, 88
2, 1839, Note_off_c, 0, 72, 0
2, 1840, Note_on_c, 0, 67, 88
2, 1879, Note_off_c, 0, 67, 0
2, 1880, Note_on_c, 0, 72, 88
2, 1919, Note_off_c, 0, 72, 0
2, 1920, Note_on_c, 0, 69, 88
2, 1959, Note_off_c, 0, 69, 0
2, 1960, Note_on_c, 0, 65, 88
2, 1999, Note_off_c, 0, 65, 0
2, 2000, Note_on_c, 0, 72, 88
2, 2039, Note_off_c, 0, 72, 0
2, 2040, Note_on_c, 0, 69, 88
2, 2079, Note_off_c, 0, 69, 0
2, 2080, Note_on_c, 0, 65, 88
2, 2119, Note_off_c, 0, 65, 0
2, 2120, Note_on_c, 0, 77, 88
2, 2159, Note_off_c, 0, 77, 0
2, 2160, Note_on_c, 0, 74, 88
2, 2199, Note_off_c, 0, 74, 0
2, 2200, Note_on_c, 0, 70, 88
2, 2239, Note_off_c, 0, 70, 0
2, 2240, Note_on_c, 0, 74, 88
2, 2279, Note_off_c, 0, 74, 0
2, 2280, Note_on_c, 0, 70, 88
2, 2319, Note_off_c, 0, 70, 0
2, 2320, Note_on_c, 0, 67, 88
2, 2359, Note_off_c, 0, 67, 0
2, 2360, Note_on_c, 0, 79, 88
2, 2399, Note_off_c, 0, 79, 0
2, 2400, Note_on_c, 0, 76, 88
2, 2439, Note_off_c, 0, 76, 0
2, 2440, Note_on_c, 0, 72, 88
2, 2479, Note_off_c, 0, 72, 0
2, 2480, Note_on_c, 0, 76, 88
2, 2519, Note_off_c, 0, 76, 0
2, 2520, Note_on_c, 0, 72, 88
2, 2559, Note_off_c, 0, 72, 0
2, 2560, Note_on_c, 0, 69, 88
2, 2599, Note_off_c, 0, 69, 0
2, 2600, Note_on_c, 0, 81, 88
2, 2639, Note_off_c, 0, 81, 0
2, 2640, Note_on_c, 0, 77, 88
2, 2679, Note_off_c, 0, 77, 0
2, 2680, Note_on_c, 0, 74, 88
2, 2719, Note_off_c, 0, 74, 0
2, 2720, Note_on_c, 0, 77, 88
2, 2759, Note_off_c, 0, 77, 0
2, 2760, Note_on_c, 0, 74, 88
2, 2799, Note_off_c, 0, 74, 0
2, 2800, Note_on_c, 0, 70, 88
2, 2839, Note_off_c, 0, 70, 0
2, 2840, Note_on_c, 0, 82, 88
2, 2879, Note_off_c, 0, 82, 0
2, 2880, Note_on_c, 0, 79, 88
2, 2919, Note_off_c, 0, 79, 0
2, 2920, Note_on_c, 0, 76, 88
2, 2959, Note_off_c, 0, 76, 0
2, 2960, Note_on_c, 0, 79, 88
2, 2999, Note_off_c, 0, 79, 0
2, 3000, Note_on_c, 0, 76, 88
2, 3039, Note_off_c, 0, 76, 0
2, 3040, Note_on_c, 0, 72, 88
2, 3079, Note_off_c, 0, 72, 0
2, 3080, Note_on_c, 0, 84, 88
2, 3119, Note_off_c, 0, 84, 0
2, 3120, Note_on_c, 0, 81, 88
2, 3159, Note_off_c, 0, 81, 0
2, 3160, Note_on_c, 0, 77, 88
2, 3199, Note_off_c, 0, 77, 0
2, 3200, Note_on_c, 0, 81, 88
2, 3239, Note_off_c, 0, 81, 0
2, 3240, Note_on_c, 0, 77, 88
2, 3279, Note_off_c, 0, 77, 0
2, 3280, Note_on_c, 0, 72, 88
2, 3319, Note_off_c, 0, 72, 0
2, 3320, Note_on_c, 0, 81, 88
2, 3359, Note_off_c, 0, 81, 0
2, 3360, Note_on_c, 0, 77, 88
2, 3399, Note_off_c, 0, 77, 0
2, 3400, Note_on_c, 0, 74, 88
2, 3439, Note_off_c, 0, 74, 0
2, 3440, Note_on_c, 0, 77, 88
2, 3479, Note_off_c, 0, 77, 0
2, 3480, Note_on_c, 0, 74, 88
2, 3519, Note_off_c, 0, 74, 0
2, 3520, Note_on_c, 0, 69, 88
2, 3559, Note_off_c, 0, 69, 0
2, 3560, Note_on_c, 0, 77, 88
2, 3599, Note_off_c, 0, 77, 0
2, 3600, Note_on_c, 0, 74, 88
2, 3639, Note_off_c, 0, 74, 0
2, 3640, Note_on_c, 0, 70, 88
2, 3679, Note_off_c, 0, 70, 0
2, 3680, Note_on_c, 0, 74, 88
2, 3719, Note_off_c, 0, 74, 0
2, 3720, Note_on_c, 0, 70, 88
2, 3759, Note_off_c, 0, 70, 0
2, 3760, Note_on_c, 0, 65, 88
2, 3799, Note_off_c, 0, 65, 0
2, 3800, Note_on_c, 0, 74, 88
2, 3839, Note_off_c, 0, 74, 0
2, 3840, Note_on_c, 0, 70, 88
2, 3879, Note_off_c, 0, 70, 0
2, 3880, Note_on_c, 0, 67, 88
2, 3919, Note_off_c, 0, 67, 0
2, 3920, Note_on_c, 0, 70, 88
2, 3959, Note_off_c, 0, 70, 0
2, 3960, Note_on_c, 0, 67, 88
2, 3999, Note_off_c, 0, 67, 0
2, 4000, Note_on_c, 0, 62, 88
2, 4039, Note_off_c, 0, 62, 0
2, 4040, Note_on_c, 0, 70, 88
2, 4079, Note_off_c, 0, 70, 0
2, 4080, Note_on_c, 0, 67, 88
2, 4119, Note_off_c, 0, 67, 0
2, 4120, Note_on_c, 0, 60, 88
2, 4159, Note_off_c, 0, 60, 0
2, 4160, Note_on_c, 0, 70, 88
2, 4199, Note_off_c, 0, 70, 0
2, 4200, Note_on_c, 0, 67, 88
2, 4239, Note_off_c, 0, 67, 0
2, 4240, Note_on_c, 0, 64, 88
2, 4279, Note_off_c, 0, 64, 0
2, 4280, Note_on_c, 0, 70, 88
2, 4319, Note_off_c, 0, 70, 0
2, 4320, Note_on_c, 0, 69, 88
2, 4359, Note_off_c, 0, 69, 0
2, 4360, Note_on_c, 0, 65, 88
2, 4399, Note_off_c, 0, 65, 0
2, 4400, Note_on_c, 0, 69, 88
2, 4439, Note_off_c, 0, 69, 0
2, 4440, Note_on_c, 0, 65, 88
2, 4479, Note_off_c, 0, 65, 0
2, 4480, Note_on_c, 0, 60, 88
2, 4519, Note_off_c, 0, 60, 0
2, 4520, Note_on_c, 0, 65, 88
2, 4559, Note_off_c, 0, 65, 0
2, 4560, Note_on_c, 0, 62, 88
2, 4599, Note_off_c, 0, 62, 0
2, 4600, Note_on_c, 0, 58, 88
2, 4639, Note_off_c, 0, 58, 0
2, 4640, Note_on_c, 0, 65, 88
2, 4679, Note_off_c, 0, 65, 0
2, 4680, Note_on_c, 0, 60, 88
2, 4719, Note_off_c, 0, 60, 0
2, 4720, Note_on_c, 0, 58, 88
2, 4759, Note_off_c, 0, 58, 0
2, 4760, Note_on_c, 0, 64, 88
2, 4799, Note_off_c, 0, 64, 0
2, 4800, Note_on_c, 0, 60, 88
2, 4839, Note_off_c, 0, 60, 0
2, 4840, Note_on_c, 0, 57, 88
2, 4879, Note_off_c, 0, 57, 0
2, 4880, Note_on_c, 0, 65, 88
2, 4919, Note_off_c, 0, 65, 0
2, 4920, Note_on_c, 0, 60, 88
2, 4959, Note_off_c, 0, 60, 0
2, 4960, Note_on_c, 0, 57, 88
2, 4999, Note_off_c, 0, 57, 0
2, 5000, Note_on_c, 0, 60, 88
2, 5039, Note_off_c, 0, 60, 0
2, 5040, Note_on_c, 0, 57, 88
2, 5079, Note_off_c, 0, 57, 0
2, 5080, Note_on_c, 0, 53, 88
2, 5119, Note_off_c, 0, 53, 0
2, 5120, Note_on_c, 0, 60, 88
2, 5159, Note_off_c, 0, 60, 0
2, 5160, Note_on_c, 0, 57, 88
2, 5199, Note_off_c, 0, 57, 0
2, 5200, Note_on_c, 0, 53, 88
2, 5239, Note_off_c, 0, 53, 0
2, 5240, Note_on_c, 0, 60, 88
2, 5279, Note_off_c, 0, 60, 0
2, 5280, Note_on_c, 0, 57, 88
2, 5319, Note_off_c, 0, 57, 0
2, 5320, Note_on_c, 0, 54, 88
2, 5359, Note_off_c, 0, 54, 0
2, 5360, Note_on_c, 0, 60, 88
2, 5399, Note_off_c, 0, 60, 0
2, 5400, Note_on_c, 0, 57, 88
2, 5439, Note_off_c, 0, 57, 0
2, 5440, Note_on_c, 0, 54, 88
2, 5479, Note_off_c, 0, 54, 0
2, 5480, Note_on_c, 0, 63, 88
2, 5519, Note_off_c, 0, 63, 0
2, 5520, Note_on_c, 0, 57, 88
2, 5559, Note_off_c, 0, 57, 0
2, 5560, Note_on_c, 0, 54, 88
2, 5599, Note_off_c, 0, 54, 0
2, 5600, Note_on_c, 0, 62, 88
2, 5639, Note_off_c, 0, 62, 0
2, 5640, Note_on_c, 0, 57, 88
2, 5679, Note_off_c, 0, 57, 0
2, 5680, Note_on_c, 0, 54, 88
2, 5719, Note_off_c, 0, 54, 0
2, 5720, Note_on_c, 0, 60, 88
2, 5759, Note_off_c, 0, 60, 0
2, 5760, Note_on_c, 0, 58, 88
2, 5799, Note_off_c, 0, 58, 0
2, 5800, Note_on_c, 0, 55, 88
2, 5839, Note_off_c, 0, 55, 0
2, 5840, Note_on_c, 0, 62, 88
2, 5879, Note_off_c, 0, 62, 0
2, 5880, Note_on_c, 0, 58, 88
2, 5919, Note_off_c, 0, 58, 0
2, 5920, Note_on_c, 0, 55, 88
2, 5959, Note_off_c, 0, 55, 0
2, 5960, Note_on_c, 0, 62, 88
2, 5999, Note_off_c, 0, 62, 0
2, 6000, Note_on_c, 0, 58, 88
2, 6039, Note_off_c, 0, 58, 0
2, 6040, Note_on_c, 0, 55, 88
2, 6079, Note_off_c, 0, 55, 0
2, 6080, Note_on_c, 0, 64, 88
2, 6119, Note_off_c, 0, 64, 0
2, 6120, Note_on_c, 0, 58, 88
2, 6159, Note_off_c, 0, 58, 0
2, 6160, Note_on_c, 0, 55, 88
2, 6199, Note_off_c, 0, 55, 0
2, 6200, Note_on_c, 0, 66, 88
2, 6239, Note_off_c, 0, 66, 0
2, 6240, Note_on_c, 0, 58, 88
2, 6279, Note_off_c, 0, 58, 0
2, 6280, Note_on_c, 0, 55, 88
2, 6319, Note_off_c, 0, 55, 0
2, 6320, Note_on_c, 0, 67, 88
2, 6359, Note_off_c, 0, 67, 0
2, 6360, Note_on_c, 0, 62, 88
2, 6399, Note_off_c, 0, 62, 0
2, 6400, Note_on_c, 0, 58, 88
2, 6439, Note_off_c, 0, 58, 0
2, 6440, Note_on_c, 0, 67, 88
2, 6479, Note_off_c, 0, 67, 0
2, 6480, Note_on_c, 0, 63, 88
2, 6519, Note_off_c, 0, 63, 0
2, 6520, Note_on_c, 0, 57, 88
2, 6559, Note_off_c, 0, 57, 0
2, 6560, Note_on_c, 0, 67, 88
2, 6599, Note_off_c, 0, 67, 0
2, 6600, Note_on_c, 0, 62, 88
2, 6639, Note_off_c, 0, 62, 0
2, 6640, Note_on_c, 0, 57, 88
2, 6679, Note_off_c, 0, 57, 0
2, 6680, Note_on_c, 0, 66, 88
2, 6719, Note_off_c, 0, 66, 0
2, 6720, Note_on_c, 0, 62, 88
2, 6759, Note_off_c, 0, 62, 0
2, 6760, Note_on_c, 0, 58, 88
2, 6799, Note_off_c, 0, 58, 0
2, 6800, Note_on_c, 0, 67, 88
2, 6839, Note_off_c, 0, 67, 0
2, 6840, Note_on_c, 0, 62, 88
2, 6879, Note_off_c, 0, 62, 0
2, 6880, Note_on_c, 0, 58, 88
2, 6919, Note_off_c, 0, 58, 0
2, 6920, Note_on_c, 0, 62, 88
2, 6959, Note_off_c, 0, 62, 0
2, 6960, Note_on_c, 0, 58, 88
2, 6999, Note_off_c, 0, 58, 0
2, 7000, Note_on_c, 0, 55, 88
2, 7039, Note_off_c, 0, 55, 0
2, 7040, Note_on_c, 0, 62, 88
2, 7079, Note_off_c, 0, 62, 0
2, 7080, Note_on_c, 0, 58, 88
2, 7119, Note_off_c, 0, 58, 0
2, 7120, Note_on_c, 0, 55, 88
2, 7159, Note_off_c, 0, 55, 0
2, 7160, Note_on_c, 0, 62, 88
2, 7199, Note_off_c, 0, 62, 0
2, 7200, Note_on_c, 0, 59, 88
2, 7239, Note_off_c, 0, 59, 0
2, 7240, Note_on_c, 0, 56, 88
2, 7279, Note_off_c, 0, 56, 0
2, 7280, Note_on_c, 0, 62, 88
2, 7319, Note_off_c, 0, 62, 0
2, 7320, Note_on_c, 0, 59, 88
2, 7359, Note_off_c, 0, 59, 0
2, 7360, Note_on_c, 0, 56, 88
2, 7399, Note_off_c, 0, 56, 0
2, 7400, Note_on_c, 0, 65, 88
2, 7439, Note_off_c, 0, 65, 0
2, 7440, Note_on_c, 0, 59, 88
2, 7479, Note_off_c, 0, 59, 0
2, 7480, Note_on_c, 0, 56, 88
2, 7519, Note_off_c, 0, 56, 0
2, 7520, Note_on_c, 0, 64, 88
2, 7559, Note_off_c, 0, 64, 0
2, 7560, Note_on_c, 0, 59, 88
2, 7599, Note_off_c, 0, 59, 0
2, 7600, Note_on_c, 0, 56, 88
2, 7639, Note_off_c, 0, 56, 0
2, 7640, Note_on_c, 0, 62, 88
2, 7679, Note_off_c, 0, 62, 0
2, 7680, Note_on_c, 0, 60, 88
2, 7719, Note_off_c, 0, 60, 0
2, 7720, Note_on_c, 0, 57, 88
2, 7759, Note_off_c, 0, 57, 0
2, 7760, Note_on_c, 0, 64, 88
2, 7799, Note_off_c, 0, 64, 0
2, 7800, Note_on_c, 0, 60, 88
2, 7839, Note_off_c, 0, 60, 0
2, 7840, Note_on_c, 0, 57, 88
2, 7879, Note_off_c, 0, 57, 0
2, 7880, Note_on_c, 0, 64, 88
2, 7919, Note_off_c, 0, 64, 0
2, 7920, Note_on_c, 0, 60, 88
2, 7959, Note_off_c, 0, 60, 0
2, 7960, Note_on_c, 0, 57, 88
2, 7999, Note_off_c, 0, 57, 0
2, 8000, Note_on_c, 0, 66, 88
2, 8039, Note_off_c, 0, 66, 0
2, 8040, Note_on_c, 0, 60, 88
2, 8079, Note_off_c, 0, 60, 0
2, 8080, Note_on_c, 0, 57, 88
2, 8119, Note_off_c, 0, 57, 0
2, 8120, Note_on_c, 0, 68, 88
2, 8159, Note_off_c, 0, 68, 0
2, 8160, Note_on_c, 0, 60, 88
2, 8199, Note_off_c, 0, 60, 0
2, 8200, Note_on_c, 0, 57, 88
2, 8239, Note_off_c, 0, 57, 0
2, 8240, Note_on_c, 0, 69, 88
2, 8279, Note_off_c, 0, 69, 0
2, 8280, Note_on_c, 0, 64, 88
2, 8319, Note_off_c, 0, 64, 0
2, 8320, Note_on_c, 0, 60, 88
2, 8359, Note_off_c, 0, 60, 0
2, 8360, Note_on_c, 0, 69, 88
2, 8399, Note_off_c, 0, 69, 0
2, 8400, Note_on_c, 0, 65, 88
2, 8439, Note_off_c, 0, 65, 0
2, 8440, Note_on_c, 0, 59, 88
2, 8479, Note_off_c, 0, 59, 0
2, 8480, Note_on_c, 0, 69, 88
2, 8519, Note_off_c, 0, 69, 0
2, 8520, Note_on_c, 0, 64, 88
2, 8559, Note_off_c, 0, 64, 0
2, 8560, Note_on_c, 0, 59, 88
2, 8599, Note_off_c, 0, 59, 0
2, 8600, Note_on_c, 0, 68, 88
2, 8639, Note_off_c, 0, 68, 0
2, 8640, Note_on_c, 0, 64, 88
2, 8679, Note_off_c, 0, 64, 0
2, 8680, Note_on_c, 0, 60, 88
2, 8719, Note_off_c, 0, 60, 0
2, 8720, Note_on_c, 0, 69, 88
2, 8759, Note_off_c, 0, 69, 0
2, 8760, Note_on_c, 0, 64, 88
2, 8799, Note_off_c, 0, 64, 0
2, 8800, Note_on_c, 0, 60, 88
2, 8839, Note_off_c, 0, 60, 0
2, 8840, Note_on_c, 0, 72, 88
2, 8879, Note_off_c, 0, 72, 0
2, 8880, Note_on_c, 0, 65, 88
2, 8919, Note_off_c, 0, 65, 0
2, 8920, Note_on_c, 0, 62, 88
2, 8959, Note_off_c, 0, 62, 0
2, 8960, Note_on_c, 0, 70, 88
2, 8999, Note_off_c, 0, 70, 0
2, 9000, Note_on_c, 0, 67, 88
2, 9039, Note_off_c, 0, 67, 0
2, 9040, Note_on_c, 0, 64, 88
2, 9079, Note_off_c, 0, 64, 0
2, 9080, Note_on_c, 0, 70, 88
2, 9119, Note_off_c, 0, 70, 0
2, 9120, Note_on_c, 0, 69, 88
2, 9159, Note_off_c, 0, 69, 0
2, 9160, Note_on_c, 0, 65, 88
2, 9199, Note_off_c, 0, 65, 0
2, 9200, Note_on_c, 0, 69, 88
2, 9239, Note_off_c, 0, 69, 0
2, 9240, Note_on_c, 0, 60, 88
2, 9279, Note_off_c, 0, 60, 0
2, 9280, Note_on_c, 0, 57, 88
2, 9319, Note_off_c, 0, 57, 0
2, 9320, Note_on_c, 0, 69, 88
2, 9359, Note_off_c, 0, 69, 0
2, 9360, Note_on_c, 0, 62, 88
2, 9399, Note_off_c, 0, 62, 0
2, 9400, Note_on_c, 0, 59, 88
2, 9439, Note_off_c, 0, 59, 0
2, 9440, Note_on_c, 0, 67, 88
2, 9479, Note_off_c, 0, 67, 0
2, 9480, Note_on_c, 0, 64, 88
2, 9519, Note_off_c, 0, 64, 0
2, 9520, Note_on_c, 0, 61, 88
2, 9559, Note_off_c, 0, 61, 0
2, 9560, Note_on_c, 0, 67, 88
2, 9599, Note_off_c, 0, 67, 0
2, 9600, Note_on_c, 0, 65, 88
2, 9639, Note_off_c, 0, 65, 0
2, 9640, Note_on_c, 0, 62, 88
2, 9679, Note_off_c, 0, 62, 0
2, 9680, Note_on_c, 0, 74, 88
2, 9719, Note_off_c, 0, 74, 0
2, 9720, Note_on_c, 0, 69, 88
2, 9759, Note_off_c, 0, 69, 0
2, 9760, Note_on_c, 0, 65, 88
2, 9799, Note_off_c, 0, 65, 0
2, 9800, Note_on_c, 0, 77, 88
2, 9839, Note_off_c, 0, 77, 0
2, 9840, Note_on_c, 0, 70, 88
2, 9879, Note_off_c, 0, 70, 0
2, 9880, Note_on_c, 0, 67, 88
2, 9919, Note_off_c, 0, 67, 0
2, 9920, Note_on_c, 0, 75, 88
2, 9959, Note_off_c, 0, 75, 0
2, 9960, Note_on_c, 0, 72, 88
2, 9999, Note_off_c, 0, 72, 0
2, 10000, Note_on_c, 0, 69, 88
2, 10039, Note_off_c, 0, 69, 0
2, 10040, Note_on_c, 0, 75, 88
2, 10079, Note_off_c, 0, 75, 0
2, 10080, Note_on_c, 0, 74, 88
2, 10119, Note_off_c, 0, 74, 0
2, 10120, Note_on_c, 0, 70, 88
2, 10159, Note_off_c, 0, 70, 0
2, 10160, Note_on_c, 0, 74, 88
2, 10199, Note_off_c, 0, 74, 0
2, 10200, Note_on_c, 0, 65, 88
2, 10239, Note_off_c, 0, 65, 0
2, 10240, Note_on_c, 0, 62, 88
2, 10279, Note_off_c, 0, 62, 0
2, 10280, Note_on_c, 0, 74, 88
2, 10319, Note_off_c, 0, 74, 0
2, 10320, Note_on_c, 0, 67, 88
2, 10359, Note_off_c, 0, 67, 0
2, 10360, Note_on_c, 0, 64, 88
2, 10399, Note_off_c, 0, 64, 0
2, 10400, Note_on_c, 0, 72, 88
2, 10439, Note_off_c, 0, 72, 0
2, 10440, Note_on_c, 0, 69, 88
2, 10479, Note_off_c, 0, 69, 0
2, 10480, Note_on_c, 0, 66, 88
2, 10519, Note_off_c, 0, 66, 0
2, 10520, Note_on_c, 0, 72, 88
2, 10559, Note_off_c, 0, 72, 0
2, 10560, Note_on_c, 0, 70, 88
2, 10599, Note_off_c, 0, 70, 0
2, 10600, Note_on_c, 0, 67, 88
2, 10639, Note_off_c, 0, 67, 0
2, 10640, Note_on_c, 0, 74, 88
2, 10679, Note_off_c, 0, 74, 0
2, 10680, Note_on_c, 0, 70, 88
2, 10719, Note_off_c, 0, 70, 0
2, 10720, Note_on_c, 0, 67, 88
2, 10759, Note_off_c, 0, 67, 0
2, 10760, Note_on_c, 0, 79, 88
2, 10799, Note_off_c, 0, 79, 0
2, 10800, Note_on_c, 0, 75, 88
2, 10839, Note_off_c, 0, 75, 0
2, 10840, Note_on_c, 0, 67, 88
2, 10879, Note_off_c, 0, 67, 0
2, 10880, Note_on_c, 0, 79, 88
2, 10919, Note_off_c, 0, 79, 0
2, 10920, Note_on_c, 0, 74, 88
2, 10959, Note_off_c, 0, 74, 0
2, 10960, Note_on_c, 0, 67, 88
2, 10999, Note_off_c, 0, 67, 0
2, 11000, Note_on_c, 0, 79, 88
2, 11039, Note_off_c, 0, 79, 0
2, 11040, Note_on_c, 0, 73, 88
2, 11079, Note_off_c, 0, 73, 0
2, 11080, Note_on_c, 0, 69, 88
2, 11119, Note_off_c, 0, 69, 0
2, 11120, Note_on_c, 0, 79, 88
2, 11159, Note_off_c, 0, 79, 0
2, 11160, Note_on_c, 0, 76, 88
2, 11199, Note_off_c, 0, 76, 0
2, 11200, Note_on_c, 0, 73, 88
2, 11239, Note_off_c, 0, 73, 0
2, 11240, Note_on_c, 0, 82, 88
2, 11279, Note_off_c, 0, 82, 0
2, 11280, Note_on_c, 0, 76, 88
2, 11319, Note_off_c, 0, 76, 0
2, 11320, Note_on_c, 0, 73, 88
2, 11359, Note_off_c, 0, 73, 0
2, 11360, Note_on_c, 0, 81, 88
2, 11399, Note_off_c, 0, 81, 0
2, 11400, Note_on_c, 0, 76, 88
2, 11439, Note_off_c, 0, 76, 0
2, 11440, Note_on_c, 0, 73, 88
2, 11479, Note_off_c, 0, 73, 0
2, 11480, Note_on_c, 0, 79, 88
2, 11519, Note_off_c, 0, 79, 0
2, 11520, Note_on_c, 0, 77, 88
2, 11559, Note_off_c, 0, 77, 0
2, 11560, Note_on_c, 0, 74, 88
2, 11599, Note_off_c, 0, 74, 0
2, 11600, Note_on_c, 0, 69, 88
2, 11639, Note_off_c, 0, 69, 0
2, 11640, Note_on_c, 0, 65, 88
2, 11679, Note_off_c, 0, 65, 0
2, 11680, Note_on_c, 0, 62, 88
2, 11719, Note_off_c, 0, 62, 0
2, 11720, Note_on_c, 0, 69, 88
2, 11759, Note_off_c, 0, 69, 0
2, 11760, Note_on_c, 0, 65, 88
2, 11799, Note_off_c, 0, 65, 0
2, 11800, Note_on_c, 0, 62, 88
2, 11839, Note_off_c, 0, 62, 0
2, 11840, Note_on_c, 0, 71, 88
2, 11879, Note_off_c, 0, 71, 0
2, 11880, Note_on_c, 0, 65, 88
2, 11919, Note_off_c, 0, 65, 0
2, 11920, Note_on_c, 0, 62, 88
2, 11959, Note_off_c, 0, 62, 0
2, 11960, Note_on_c, 0, 73, 88
2, 11999, Note_off_c, 0, 73, 0
2, 12000, Note_on_c, 0, 65, 88
2, 12039, Note_off_c, 0, 65, 0
2, 12040, Note_on_c, 0, 62, 88
2, 12079, Note_off_c, 0, 62, 0
2, 12080, Note_on_c, 0, 74, 88
2, 12119, Note_off_c, 0, 74, 0
2, 12120, Note_on_c, 0, 65, 88
2, 12159, Note_off_c, 0, 65, 0
2, 12160, Note_on_c, 0, 62, 88
2, 12199, Note_off_c, 0, 62, 0
2, 12200, Note_on_c, 0, 69, 88
2, 12239, Note_off_c, 0, 69, 0
2, 12240, Note_on_c, 0, 65, 88
2, 12279, Note_off_c, 0, 65, 0
2, 12280, Note_on_c, 0, 62, 88
2, 12319, Note_off_c, 0, 62, 0
2, 12320, Note_on_c, 0, 70, 88
2, 12359, Note_off_c, 0, 70, 0
2, 12360, Note_on_c, 0, 64, 88
2, 12399, Note_off_c, 0, 64, 0
2, 12400, Note_on_c, 0, 61, 88
2, 12439, Note_off_c, 0, 61, 0
2, 12440, Note_on_c, 0, 69, 88
2, 12479, Note_off_c, 0, 69, 0
2, 12480, Note_on_c, 0, 64, 88
2, 12519, Note_off_c, 0, 64, 0
2, 12520, Note_on_c, 0, 61, 88
2, 12559, Note_off_c, 0, 61, 0
2, 12560, Note_on_c, 0, 67, 88
2, 12599, Note_off_c, 0, 67, 0
2, 12600, Note_on_c, 0, 62, 88
2, 12639, Note_off_c, 0, 62, 0
2, 12640, Note_on_c, 0, 57, 88
2, 12679, Note_off_c, 0, 57, 0
2, 12680, Note_on_c, 0, 65, 88
2, 12719, Note_off_c, 0, 65, 0
2, 12720, Note_on_c, 0, 62, 88
2, 12759, Note_off_c, 0, 62, 0
2, 12760, Note_on_c, 0, 58, 88
2, 12799, Note_off_c, 0, 58, 0
2, 12800, Note_on_c, 0, 64, 88
2, 12839, Note_off_c, 0, 64, 0
2, 12840, Note_on_c, 0, 60, 88
2, 12879, Note_off_c, 0, 60, 0
2, 12880, Note_on_c, 0, 53, 88
2, 12919, Note_off_c, 0, 53, 0
2, 12920, Note_on_c, 0, 63, 88
2, 12959, Note_off_c, 0, 63, 0
2, 12960, Note_on_c, 0, 58, 88
2, 12999, Note_off_c, 0, 58, 0
2, 13000, Note_on_c, 0, 53, 88
2, 13039, Note_off_c, 0, 53, 0
2, 13040, Note_on_c, 0, 62, 88
2, 13079, Note_off_c, 0, 62, 0
2, 13080, Note_on_c, 0, 57, 88
2, 13119, Note_off_c, 0, 57, 0
2, 13120, Note_on_c, 0, 53, 88
2, 13159, Note_off_c, 0, 53, 0
2, 13160, Note_on_c, 0, 62, 88
2, 13199, Note_off_c, 0, 62, 0
2, 13200, Note_on_c, 0, 58, 88
2, 13239, Note_off_c, 0, 58, 0
2, 13240, Note_on_c, 0, 52, 88
2, 13279, Note_off_c, 0, 52, 0
2, 13280, Note_on_c, 0, 62, 88
2, 13319, Note_off_c, 0, 62, 0
2, 13320, Note_on_c, 0, 57, 88
2, 13359, Note_off_c, 0, 57, 0
2, 13360, Note_on_c, 0, 52, 88
2, 13399, Note_off_c, 0, 52, 0
2, 13400, Note_on_c, 0, 61, 88
2, 13439, Note_off_c, 0, 61, 0
2, 13440, Note_on_c, 0, 57, 88
2, 13479, Note_off_c, 0, 57, 0
2, 13480, Note_on_c, 0, 54, 88
2, 13519, Note_off_c, 0, 54, 0
2, 13520, Note_on_c, 0, 57, 88
2, 13559, Note_off_c, 0, 57, 0
2, 13560, Note_on_c, 0, 60, 88
2, 13599, Note_off_c, 0, 60, 0
2, 13600, Note_on_c, 0, 57, 88
2, 13639, Note_off_c, 0, 57, 0
2, 13640, Note_on_c, 0, 60, 88
2, 13679, Note_off_c, 0, 60, 0
2, 13680, Note_on_c, 0, 63, 88
2, 13719, Note_off_c, 0, 63, 0
2, 13720, Note_on_c, 0, 60, 88
2, 13759, Note_off_c, 0, 60, 0
2, 13760, Note_on_c, 0, 63, 88
2, 13799, Note_off_c, 0, 63, 0
2, 13800, Note_on_c, 0, 66, 88
2, 13919, Note_off_c, 0, 66, 0
2, 13920, Note_on_c, 0, 58, 88
2, 13959, Note_off_c, 0, 58, 0
2, 13960, Note_on_c, 0, 55, 88
2, 13999, Note_off_c, 0, 55, 0
2, 14000, Note_on_c, 0, 58, 88
2, 14039, Note_off_c, 0, 58, 0
2, 14040, Note_on_c, 0, 62, 88
2, 14079, Note_off_c, 0, 62, 0
2, 14080, Note_on_c, 0, 58, 88
2, 14119, Note_off_c, 0, 58, 0
2, 14120, Note_on_c, 0, 62, 88
2, 14159, Note_off_c, 0, 62, 0
2, 14160, Note_on_c, 0, 67, 88
2, 14199, Note_off_c, 0, 67, 0
2, 14200, Note_on_c, 0, 62, 88
2, 14239, Note_off_c, 0, 62, 0
2, 14240, Note_on_c, 0, 67, 88
2, 14279, Note_off_c, 0, 67, 0
2, 14280, Note_on_c, 0, 70, 88
2, 14439, Note_off_c, 0, 70, 0
2, 14440, Note_on_c, 0, 67, 88
2, 14479, Note_off_c, 0, 67, 0
2, 14480, Note_on_c, 0, 76, 88
2, 14519, Note_off_c, 0, 76, 0
2, 14520, Note_on_c, 0, 70, 88
2, 14559, Note_off_c, 0, 70, 0
2, 14560, Note_on_c, 0, 67, 88
2, 14599, Note_off_c, 0, 67, 0
2, 14600, Note_on_c, 0, 79, 88
2, 14639, Note_off_c, 0, 79, 0
2, 14640, Note_on_c, 0, 70, 88
2, 14679, Note_off_c, 0, 70, 0
2, 14680, Note_on_c, 0, 67, 88
2, 14719, Note_off_c, 0, 67, 0
2, 14720, Note_on_c, 0, 76, 88
2, 14759, Note_off_c, 0, 76, 0
2, 14760, Note_on_c, 0, 70, 88
2, 14799, Note_off_c, 0, 70, 0
2, 14800, Note_on_c, 0, 67, 88
2, 14839, Note_off_c, 0, 67, 0
2, 14840, Note_on_c, 0, 73, 88
2, 14879, Note_off_c, 0, 73, 0
2, 14880, Note_on_c, 0, 70, 88
2, 14919, Note_off_c, 0, 70, 0
2, 14920, Note_on_c, 0, 67, 88
2, 14959, Note_off_c, 0, 67, 0
2, 14960, Note_on_c, 0, 76, 88
2, 14999, Note_off_c, 0, 76, 0
2, 15000, Note_on_c, 0, 70, 88
2, 15039, Note_off_c, 0, 70, 0
2, 15040, Note_on_c, 0, 67, 88
2, 15079, Note_off_c, 0, 67, 0
2, 15080, Note_on_c, 0, 79, 88
2, 15119, Note_off_c, 0, 79, 0
2, 15120, Note_on_c, 0, 70, 88
2, 15159, Note_off_c, 0, 70, 0
2, 15160, Note_on_c, 0, 67, 88
2, 15199, Note_off_c, 0, 67, 0
2, 15200, Note_on_c, 0, 76, 88
2, 15239, Note_off_c, 0, 76, 0
2, 15240, Note_on_c, 0, 70, 88
2, 15279, Note_off_c, 0, 70, 0
2, 15280, Note_on_c, 0, 67, 88
2, 15319, Note_off_c, 0, 67, 0
2, 15320, Note_on_c, 0, 73, 88
2, 15359, Note_off_c, 0, 73, 0
2, 15360, Note_on_c, 0, 69, 88
2, 15399, Note_off_c, 0, 69, 0
2, 15400, Note_on_c, 0, 66, 88
2, 15439, Note_off_c, 0, 66, 0
2, 15440, Note_on_c, 0, 74, 88
2, 15479, Note_off_c, 0, 74, 0
2, 15480, Note_on_c, 0, 69, 88
2, 15519, Note_off_c, 0, 69, 0
2, 15520, Note_on_c, 0, 66, 88
2, 15559, Note_off_c, 0, 66, 0
2, 15560, Note_on_c, 0, 75, 88
2, 15599, Note_off_c, 0, 75, 0
2, 15600, Note_on_c, 0, 69, 88
2, 15639, Note_off_c, 0, 69, 0
2, 15640, Note_on_c, 0, 66, 88
2, 15679, Note_off_c, 0, 66, 0
2, 15680, Note_on_c, 0, 74, 88
2, 15719, Note_off_c, 0, 74, 0
2, 15720, Note_on_c, 0, 69, 88
2, 15759, Note_off_c, 0, 69, 0
2, 15760, Note_on_c, 0, 66, 88
2, 15799, Note_off_c, 0, 66, 0
2, 15800, Note_on_c, 0, 72, 88
2, 15839, Note_off_c, 0, 72, 0
2, 15840, Note_on_c, 0, 69, 88
2, 15879, Note_off_c, 0, 69, 0
2, 15880, Note_on_c, 0, 66, 88
2, 15919, Note_off_c, 0, 66, 0
2, 15920, Note_on_c, 0, 74, 88
2, 15959, Note_off_c, 0, 74, 0
2, 15960, Note_on_c, 0, 69, 88
2, 15999, Note_off_c, 0, 69, 0
2, 16000, Note_on_c, 0, 66, 88
2, 16039, Note_off_c, 0, 66, 0
2, 16040, Note_on_c, 0, 75, 88
2, 16079, Note_off_c, 0, 75, 0
2, 16080, Note_on_c, 0, 69, 88
2, 16119, Note_off_c, 0, 69, 0
2, 16120, Note_on_c, 0, 66, 88
2, 16159, Note_off_c, 0, 66, 0
2, 16160, Note_on_c, 0, 74, 88
2, 16199, Note_off_c, 0, 74, 0
2, 16200, Note_on_c, 0, 69, 88
2, 16239, Note_off_c, 0, 69, 0
2, 16240, Note_on_c, 0, 66, 88
2, 16279, Note_off_c, 0, 66, 0
2, 16280, Note_on_c, 0, 72, 88
2, 16319, Note_off_c, 0, 72, 0
2, 16320, Note_on_c, 0, 67, 88
2, 16359, Note_off_c, 0, 67, 0
2, 16360, Note_on_c, 0, 62, 88
2, 16399, Note_off_c, 0, 62, 0
2, 16400, Note_on_c, 0, 67, 88
2, 16439, Note_off_c, 0, 67, 0
2, 16440, Note_on_c, 0, 70, 88
2, 16479, Note_off_c, 0, 70, 0
2, 16480, Note_on_c, 0, 67, 88
2, 16519, Note_off_c, 0, 67, 0
2, 16520, Note_on_c, 0, 70, 88
2, 16559, Note_off_c, 0, 70, 0
2, 16560, Note_on_c, 0, 74, 88
2, 16599, Note_off_c, 0, 74, 0
2, 16600, Note_on_c, 0, 70, 88
2, 16639, Note_off_c, 0, 70, 0
2, 16640, Note_on_c, 0, 74, 88
2, 16679, Note_off_c, 0, 74, 0
2, 16680, Note_on_c, 0, 79, 88
2, 16719, Note_off_c, 0, 79, 0
2, 16720, Note_on_c, 0, 74, 88
2, 16759, Note_off_c, 0, 74, 0
2, 16760, Note_on_c, 0, 79, 88
2, 16799, Note_off_c, 0, 79, 0
2, 16800, Note_on_c, 0, 82, 88
2, 16839, Note_off_c, 0, 82, 0
2, 16840, Note_on_c, 0, 81, 88
2, 16879, Note_off_c, 0, 81, 0
2, 16880, Note_on_c, 0, 79, 88
2, 16919, Note_off_c, 0, 79, 0
2, 16920, Note_on_c, 0, 77, 88
2, 16959, Note_off_c, 0, 77, 0
2, 16960, Note_on_c, 0, 76, 88
2, 16999, Note_off_c, 0, 76, 0
2, 17000, Note_on_c, 0, 74, 88
2, 17039, Note_off_c, 0, 74, 0
2, 17040, Note_on_c, 0, 73, 88
2, 17079, Note_off_c, 0, 73, 0
2, 17080, Note_on_c, 0, 69, 88
2, 17119, Note_off_c, 0, 69, 0
2, 17120, Note_on_c, 0, 73, 88
2, 17159, Note_off_c, 0, 73, 0
2, 17160, Note_on_c, 0, 76, 88
2, 17199, Note_off_c, 0, 76, 0
2, 17200, Note_on_c, 0, 73, 88
2, 17239, Note_off_c, 0, 73, 0
2, 17240, Note_on_c, 0, 76, 88
2, 17279, Note_off_c, 0, 76, 0
2, 17280, Note_on_c, 0, 79, 88
2, 17319, Note_off_c, 0, 79, 0
2, 17320, Note_on_c, 0, 76, 88
2, 17359, Note_off_c, 0, 76, 0
2, 17360, Note_on_c, 0, 74, 88
2, 17399, Note_off_c, 0, 74, 0
2, 17400, Note_on_c, 0, 73, 88
2, 17439, Note_off_c, 0, 73, 0
2, 17440, Note_on_c, 0, 71, 88
2, 17479, Note_off_c, 0, 71, 0
2, 17480, Note_on_c, 0, 69, 88
2, 17519, Note_off_c, 0, 69, 0
2, 17520, Note_on_c, 0, 67, 88
2, 17559, Note_off_c, 0, 67, 0
2, 17560, Note_on_c, 0, 64, 88
2, 17599, Note_off_c, 0, 64, 0
2, 17600, Note_on_c, 0, 67, 88
2, 17639, Note_off_c, 0, 67, 0
2, 17640, Note_on_c, 0, 70, 88
2, 17679, Note_off_c, 0, 70, 0
2, 17680, Note_on_c, 0, 67, 88
2, 17719, Note_off_c, 0, 67, 0
2, 17720, Note_on_c, 0, 70, 88
2, 17759, Note_off_c, 0, 70, 0
2, 17760, Note_on_c, 0, 73, 88
2, 17799, Note_off_c, 0, 73, 0
2, 17800, Note_on_c, 0, 67, 88
2, 17839, Note_off_c, 0, 67, 0
2, 17840, Note_on_c, 0, 76, 88
2, 17879, Note_off_c, 0, 76, 0
2, 17880, Note_on_c, 0, 73, 88
2, 17919, Note_off_c, 0, 73, 0
2, 17920, Note_on_c, 0, 70, 88
2, 17959, Note_off_c, 0, 70, 0
2, 17960, Note_on_c, 0, 76, 88
2, 17999, Note_off_c, 0, 76, 0
2, 18000, Note_on_c, 0, 73, 88
2, 18039, Note_off_c, 0, 73, 0
2, 18040, Note_on_c, 0, 69, 88
2, 18079, Note_off_c, 0, 69, 0
2, 18080, Note_on_c, 0, 76, 88
2, 18119, Note_off_c, 0, 76, 0
2, 18120, Note_on_c, 0, 73, 88
2, 18159, Note_off_c, 0, 73, 0
2, 18160, Note_on_c, 0, 67, 88
2, 18199, Note_off_c, 0, 67, 0
2, 18200, Note_on_c, 0, 76, 88
2, 18239, Note_off_c, 0, 76, 0
2, 18240, Note_on_c, 0, 72, 88
2, 18279, Note_off_c, 0, 72, 0
2, 18280, Note_on_c, 0, 69, 88
2, 18319, Note_off_c, 0, 69, 0
2, 18320, Note_on_c, 0, 74, 88
2, 18359, Note_off_c, 0, 74, 0
2, 18360, Note_on_c, 0, 70, 88
2, 18399, Note_off_c, 0, 70, 0
2, 18400, Note_on_c, 0, 67, 88
2, 18439, Note_off_c, 0, 67, 0
2, 18440, Note_on_c, 0, 75, 88
2, 18479, Note_off_c, 0, 75, 0
2, 18480, Note_on_c, 0, 69, 88
2, 18519, Note_off_c, 0, 69, 0
2, 18520, Note_on_c, 0, 66, 88
2, 18559, Note_off_c, 0, 66, 0
2, 18560, Note_on_c, 0, 74, 88
2, 18599, Note_off_c, 0, 74, 0
2, 18600, Note_on_c, 0, 69, 88
2, 18639, Note_off_c, 0, 69, 0
2, 18640, Note_on_c, 0, 66, 88
2, 18679, Note_off_c, 0, 66, 0
2, 18680, Note_on_c, 0, 72, 88
2, 18719, Note_off_c, 0, 72, 0
2, 18720, Note_on_c, 0, 67, 88
2, 18759, Note_off_c, 0, 67, 0
2, 18760, Note_on_c, 0, 62, 88
2, 18799, Note_off_c, 0, 62, 0
2, 18800, Note_on_c, 0, 70, 88
2, 18839, Note_off_c, 0, 70, 0
2, 18840, Note_on_c, 0, 67, 88
2, 18879, Note_off_c, 0, 67, 0
2, 18880, Note_on_c, 0, 65, 88
2, 18919, Note_off_c, 0, 65, 0
2, 18920, Note_on_c, 0, 70, 88
2, 18959, Note_off_c, 0, 70, 0
2, 18960, Note_on_c, 0, 67, 88
2, 18999, Note_off_c, 0, 67, 0
2, 19000, Note_on_c, 0, 63, 88
2, 19039, Note_off_c, 0, 63, 0
2, 19040, Note_on_c, 0, 70, 88
2, 19079, Note_off_c, 0, 70, 0
2, 19080, Note_on_c, 0, 67, 88
2, 19119, Note_off_c, 0, 67, 0
2, 19120, Note_on_c, 0, 62, 88
2, 19159, Note_off_c, 0, 62, 0
2, 19160, Note_on_c, 0, 70, 88
2, 19199, Note_off_c, 0, 70, 0
2, 19200, Note_on_c, 0, 67, 88
2, 19239, Note_off_c, 0, 67, 0
2, 19240, Note_on_c, 0, 61, 88
2, 19279, Note_off_c, 0, 61, 0
2, 19280, Note_on_c, 0, 70, 88
2, 19319, Note_off_c, 0, 70, 0
2, 19320, Note_on_c, 0, 64, 88
2, 19359, Note_off_c, 0, 64, 0
2, 19360, Note_on_c, 0, 61, 88
2, 19399, Note_off_c, 0, 61, 0
2, 19400, Note_on_c, 0, 70, 88
2, 19439, Note_off_c, 0, 70, 0
2, 19440, Note_on_c, 0, 64, 88
2, 19479, Note_off_c, 0, 64, 0
2, 19480, Note_on_c, 0, 61, 88
2, 19519, Note_off_c, 0, 61, 0
2, 19520, Note_on_c, 0, 69, 88
2, 19559, Note_off_c, 0, 69, 0
2, 19560, Note_on_c, 0, 64, 88
2, 19599, Note_off_c, 0, 64, 0
2, 19600, Note_on_c, 0, 61, 88
2, 19639, Note_off_c, 0, 61, 0
2, 19640, Note_on_c, 0, 67, 88
2, 19679, Note_off_c, 0, 67, 0
2, 19680, Note_on_c, 0, 62, 88
2, 19719, Note_off_c, 0, 62, 0
2, 19720, Note_on_c, 0, 59, 88
2, 19759, Note_off_c, 0, 59, 0
2, 19760, Note_on_c, 0, 65, 88
2, 19799, Note_off_c, 0, 65, 0
2, 19800, Note_on_c, 0, 62, 88
2, 19839, Note_off_c, 0, 62, 0
2, 19840, Note_on_c, 0, 60, 88
2, 19879, Note_off_c, 0, 60, 0
2, 19880, Note_on_c, 0, 65, 88
2, 19919, Note_off_c, 0, 65, 0
2, 19920, Note_on_c, 0, 62, 88
2, 19959, Note_off_c, 0, 62, 0
2, 19960, Note_on_c, 0, 59, 88
2, 19999, Note_off_c, 0, 59, 0
2, 20000, Note_on_c, 0, 65, 88
2, 20039, Note_off_c, 0, 65, 0
2, 20040, Note_on_c, 0, 62, 88
2, 20079, Note_off_c, 0, 62, 0
2, 20080, Note_on_c, 0, 57, 88
2, 20119, Note_off_c, 0, 57, 0
2, 20120, Note_on_c, 0, 65, 88
2, 20159, Note_off_c, 0, 65, 0
2, 20160, Note_on_c, 0, 61, 88
2, 20199, Note_off_c, 0, 61, 0
2, 20200, Note_on_c, 0, 55, 88
2, 20239, Note_off_c, 0, 55, 0
2, 20240, Note_on_c, 0, 64, 88
2, 20279, Note_off_c, 0, 64, 0
2, 20280, Note_on_c, 0, 61, 88
2, 20319, Note_off_c, 0, 61, 0
2, 20320, Note_on_c, 0, 58, 88
2, 20359, Note_off_c, 0, 58, 0
2, 20360, Note_on_c, 0, 64, 88
2, 20399, Note_off_c, 0, 64, 0
2, 20400, Note_on_c, 0, 61, 88
2, 20439, Note_off_c, 0, 61, 0
2, 20440, Note_on_c, 0, 57, 88
2, 20479, Note_off_c, 0, 57, 0
2, 20480, Note_on_c, 0, 64, 88
2, 20519, Note_off_c, 0, 64, 0
2, 20520, Note_on_c, 0, 61, 88
2, 20559, Note_off_c, 0, 61, 0
2, 20560, Note_on_c, 0, 55, 88
2, 20599, Note_off_c, 0, 55, 0
2, 20600, Note_on_c, 0, 64, 88
2, 20639, Note_off_c, 0, 64, 0
2, 20640, Note_on_c, 0, 59, 88
2, 20679, Note_off_c, 0, 59, 0
2, 20680, Note_on_c, 0, 56, 88
2, 20719, Note_off_c, 0, 56, 0
2, 20720, Note_on_c, 0, 62, 88
2, 20759, Note_off_c, 0, 62, 0
2, 20760, Note_on_c, 0, 61, 88
2, 20799, Note_off_c, 0, 61, 0
2, 20800, Note_on_c, 0, 56, 88
2, 20839, Note_off_c, 0, 56, 0
2, 20840, Note_on_c, 0, 64, 88
2, 20879, Note_off_c, 0, 64, 0
2, 20880, Note_on_c, 0, 62, 88
2, 20919, Note_off_c, 0, 62, 0
2, 20920, Note_on_c, 0, 56, 88
2, 20959, Note_off_c, 0, 56, 0
2, 20960, Note_on_c, 0, 65, 88
2, 20999, Note_off_c, 0, 65, 0
2, 21000, Note_on_c, 0, 55, 88
2, 21159, Note_off_c, 0, 55, 0
2, 21160, Note_on_c, 0, 52, 88
2, 21199, Note_off_c, 0, 52, 0
2, 21200, Note_on_c, 0, 55, 88
2, 21239, Note_off_c, 0, 55, 0
2, 21240, Note_on_c, 0, 61, 88
2, 21279, Note_off_c, 0, 61, 0
2, 21280, Note_on_c, 0, 55, 88
2, 21319, Note_off_c, 0, 55, 0
2, 21320, Note_on_c, 0, 61, 88
2, 21359, Note_off_c, 0, 61, 0
2, 21360, Note_on_c, 0, 64, 88
2, 21399, Note_off_c, 0, 64, 0
2, 21400, Note_on_c, 0, 61, 88
2, 21439, Note_off_c, 0, 61, 0
2, 21440, Note_on_c, 0, 64, 88
2, 21479, Note_off_c, 0, 64, 0
2, 21480, Note_on_c, 0, 67, 88
2, 21599, Note_off_c, 0, 67, 0
2, 21600, Note_on_c, 0, 65, 88
2, 21639, Note_off_c, 0, 65, 0
2, 21640, Note_on_c, 0, 62, 88
2, 21679, Note_off_c, 0, 62, 0
2, 21680, Note_on_c, 0, 65, 88
2, 21719, Note_off_c, 0, 65, 0
2, 21720, Note_on_c, 0, 69, 88
2, 21759, Note_off_c, 0, 69, 0
2, 21760, Note_on_c, 0, 65, 88
2, 21799, Note_off_c, 0, 65, 0
2, 21800, Note_on_c, 0, 69, 88
2, 21839, Note_off_c, 0, 69, 0
2, 21840, Note_on_c, 0, 74, 88
2, 21879, Note_off_c, 0, 74, 0
2, 21880, Note_on_c, 0, 69, 88
2, 21919, Note_off_c, 0, 69, 0
2, 21920, Note_on_c, 0, 74, 88
2, 21959, Note_off_c, 0, 74, 0
2, 21960, Note_on_c, 0, 77, 88
2, 22119, Note_off_c, 0, 77, 0
2, 22120, Note_on_c, 0, 71, 88
2, 22159, Note_off_c, 0, 71, 0
2, 22160, Note_on_c, 0, 74, 88
2, 22199, Note_off_c, 0, 74, 0
2, 22200, Note_on_c, 0, 77, 88
2, 22239, Note_off_c, 0, 77, 0
2, 22240, Note_on_c, 0, 74, 88
2, 22279, Note_off_c, 0, 74, 0
2, 22280, Note_on_c, 0, 77, 88
2, 22319, Note_off_c, 0, 77, 0
2, 22320, Note_on_c, 0, 80, 88
2, 22359, Note_off_c, 0, 80, 0
2, 22360, Note_on_c, 0, 77, 88
2, 22399, Note_off_c, 0, 77, 0
2, 22400, Note_on_c, 0, 80, 88
2, 22439, Note_off_c, 0, 80, 0
2, 22440, Note_on_c, 0, 83, 88
2, 22479, Note_off_c, 0, 83, 0
2, 22480, Note_on_c, 0, 80, 88
2, 22519, Note_off_c, 0, 80, 0
2, 22520, Note_on_c, 0, 77, 88
2, 22559, Note_off_c, 0, 77, 0
2, 22560, Note_on_c, 0, 82, 88
2, 22599, Note_off_c, 0, 82, 0
2, 22600, Note_on_c, 0, 79, 88
2, 22639, Note_off_c, 0, 79, 0
2, 22640, Note_on_c, 0, 76, 88
2, 22679, Note_off_c, 0, 76, 0
2, 22680, Note_on_c, 0, 81, 88
2, 22719, Note_off_c, 0, 81, 0
2, 22720, Note_on_c, 0, 78, 88
2, 22759, Note_off_c, 0, 78, 0
2, 22760, Note_on_c, 0, 75, 88
2, 22799, Note_off_c, 0, 75, 0
2, 22800, Note_on_c, 0, 80, 88
2, 22839, Note_off_c, 0, 80, 0
2, 22840, Note_on_c, 0, 77, 88
2, 22879, Note_off_c, 0, 77, 0
2, 22880, Note_on_c, 0, 74, 88
2, 22919, Note_off_c, 0, 74, 0
2, 22920, Note_on_c, 0, 79, 88
2, 22959, Note_off_c, 0, 79, 0
2, 22960, Note_on_c, 0, 76, 88
2, 22999, Note_off_c, 0, 76, 0
2, 23000, Note_on_c, 0, 73, 88
2, 23039, Note_off_c, 0, 73, 0
2, 23040, Note_on_c, 0, 78, 88
2, 23079, Note_off_c, 0, 78, 0
2, 23080, Note_on_c, 0, 75, 88
2, 23119, Note_off_c, 0, 75, 0
2, 23120, Note_on_c, 0, 72, 88
2, 23159, Note_off_c, 0, 72, 0
2, 23160, Note_on_c, 0, 77, 88
2, 23199, Note_off_c, 0, 77, 0
2, 23200, Note_on_c, 0, 74, 88
2, 23239, Note_off_c, 0, 74, 0
2, 23240, Note_on_c, 0, 71, 88
2, 23279, Note_off_c, 0, 71, 0
2, 23280, Note_on_c, 0, 76, 88
2, 23319, Note_off_c, 0, 76, 0
2, 23320, Note_on_c, 0, 73, 88
2, 23359, Note_off_c, 0, 73, 0
2, 23360, Note_on_c, 0, 70, 88
2, 23399, Note_off_c, 0, 70, 0
2, 23400, Note_on_c, 0, 75, 88
2, 23439, Note_off_c, 0, 75, 0
2, 23440, Note_on_c, 0, 72, 88
2, 23479, Note_off_c, 0, 72, 0
2, 23480, Note_on_c, 0, 69, 88
2, 23519, Note_off_c, 0, 69, 0
2, 23520, Note_on_c, 0, 74, 88
2, 24239, Note_off_c, 0, 74, 0
2, 24240, Note_on_c, 0, 73, 88
2, 24479, Note_off_c, 0, 73, 0
2, 24480, Note_on_c, 0, 74, 88
2, 24520, Note_off_c, 0, 74, 0
2, 24520, End_track
0, 0, End_of_file