0, 0, Header, 1, 2, 240
1, 0, Start_track
1, 0, Time_signature, 4, 2, 24, 8
1, 0, Tempo, 681818
1, 0, SMPTE_offset, 64, 0, 0, 0, 100
1, 0, End_track
2, 0, Start_track
2, 0, Title_t, "Track 1"
2, 0, Program_c, 0, 6
2, 60, Note_on_c, 0, 67, 88
2, 119, Note_off_c, 0, 67, 0
2, 120, Note_on_c, 0, 68, 88
2, 179, Note_off_c, 0, 68, 0
2, 180, Note_on_c, 0, 70, 88
2, 239, Note_off_c, 0, 70, 0
2, 240, Note_on_c, 0, 68, 88
2, 299, Note_off_c, 0, 68, 0
2, 300, Note_on_c, 0, 67, 88
2, 359, Note_off_c, 0, 67, 0
2, 360, Note_on_c, 0, 65, 88
2, 419, Note_off_c, 0, 65, 0
2, 420, Note_on_c, 0, 63, 88
2, 479, Note_off_c, 0, 63, 0
2, 480, Note_on_c, 0, 73, 88
2, 1019, Note_off_c, 0, 73, 0
2, 1020, Note_on_c, 0, 72, 88
2, 1079, Note_off_c, 0, 72, 0
2, 1080, Note_on_c, 0, 73, 88
2, 1139, Note_off_c, 0, 73, 0
2, 1140, Note_on_c, 0, 75, 88
2, 1199, Note_off_c, 0, 75, 0
2, 1200, Note_on_c, 0, 73, 88
2, 1259, Note_off_c, 0, 73, 0
2, 1260, Note_on_c, 0, 72, 88
2, 1319, Note_off_c, 0, 72, 0
2, 1320, Note_on_c, 0, 70, 88
2, 1379, Note_off_c, 0, 70, 0
2, 1380, Note_on_c, 0, 68, 88
2, 1439, Note_off_c, 0, 68, 0
2, 1440, Note_on_c, 0, 77, 88
2, 1979, Note_off_c, 0, 77, 0
2, 1980, Note_on_c, 0, 74, 88
2, 2039, Note_off_c, 0, 74, 0
2, 2040, Note_on_c, 0, 75, 88
2, 2099, Note_off_c, 0, 75, 0
2, 2100, Note_on_c, 0, 77, 88
2, 2159, Note_off_c, 0, 77, 0
2, 2160, Note_on_c, 0, 75, 88
2, 2219, Note_off_c, 0, 75, 0
2, 2220, Note_on_c, 0, 74, 88
2, 2279, Note_off_c, 0, 74, 0
2, 2280, Note_on_c, 0, 72, 88
2, 2339, Note_off_c, 0, 72, 0
2, 2340, Note_on_c, 0, 70, 88
2, 2399, Note_off_c, 0, 70, 0
2, 2400, Note_on_c, 0, 80, 88
2, 2939, Note_off_c, 0, 80, 0
2, 2940, Note_on_c, 0, 77, 88
2, 2999, Note_off_c, 0, 77, 0
2, 3000, Note_on_c, 0, 79, 88
2, 3059, Note_off_c, 0, 79, 0
2, 3060, Note_on_c, 0, 80, 88
2, 3119, Note_off_c, 0, 80, 0
2, 3120, Note_on_c, 0, 79, 88
2, 3179, Note_off_c, 0, 79, 0
2, 3180, Note_on_c, 0, 77, 88
2, 3239, Note_off_c, 0, 77, 0
2, 3240, Note_on_c, 0, 75, 88
2, 3299, Note_off_c, 0, 75, 0
2, 3300, Note_on_c, 0, 74, 88
2, 3359, Note_off_c, 0, 74, 0
2, 3360, Note_on_c, 0, 79, 88
2, 3899, Note_off_c, 0, 79, 0
2, 3900, Note_on_c, 0, 75, 88
2, 3959, Note_off_c, 0, 75, 0
2, 3960, Note_on_c, 0, 77, 88
2, 4019, Note_off_c, 0, 77, 0
2, 4020, Note_on_c, 0, 79, 88
2, 4079, Note_off_c, 0, 79, 0
2, 4080, Note_on_c, 0, 77, 88
2, 4139, Note_off_c, 0, 77, 0
2, 4140, Note_on_c, 0, 75, 88
2, 4199, Note_off_c, 0, 75, 0
2, 4200, Note_on_c, 0, 74, 88
2, 4259, Note_off_c, 0, 74, 0
2, 4260, Note_on_c, 0, 72, 88
2, 4319, Note_off_c, 0, 72, 0
2, 4320, Note_on_c, 0, 84, 88
2, 4859, Note_off_c, 0, 84, 0
2, 4860, Note_on_c, 0, 81, 88
2, 4919, Note_off_c, 0, 81, 0
2, 4920, Note_on_c, 0, 82, 88
2, 4979, Note_off_c, 0, 82, 0
2, 4980, Note_on_c, 0, 84, 88
2, 5039, Note_off_c, 0, 84, 0
2, 5040, Note_on_c, 0, 82, 88
2, 5099, Note_off_c, 0, 82, 0
2, 5100, Note_on_c, 0, 81, 88
2, 5159, Note_off_c, 0, 81, 0
2, 5160, Note_on_c, 0, 79, 88
2, 5219, Note_off_c, 0, 79, 0
2, 5220, Note_on_c, 0, 77, 88
2, 5279, Note_off_c, 0, 77, 0
2, 5280, Note_on_c, 0, 82, 88
2, 5339, Note_off_c, 0, 82, 0
2, 5340, Note_on_c, 0, 81, 88
2, 5399, Note_off_c, 0, 81, 0
2, 5400, Note_on_c, 0, 79, 88
2, 5459, Note_off_c, 0, 79, 0
2, 5460, Note_on_c, 0, 77, 88
2, 5519, Note_off_c, 0, 77, 0
2, 5520, Note_on_c, 0, 75, 88
2, 5579, Note_off_c, 0, 75, 0
2, 5580, Note_on_c, 0, 74, 88
2, 5639, Note_off_c, 0, 74, 0
2, 5640, Note_on_c, 0, 72, 88
2, 5699, Note_off_c, 0, 72, 0
2, 5700, Note_on_c, 0, 70, 88
2, 5759, Note_off_c, 0, 70, 0
2, 5760, Note_on_c, 0, 75, 88
2, 6299, Note_off_c, 0, 75, 0
2, 6300, Note_on_c, 0, 75, 88
2, 6359, Note_off_c, 0, 75, 0
2, 6360, Note_on_c, 0, 77, 88
2, 6419, Note_off_c, 0, 77, 0
2, 6420, Note_on_c, 0, 79, 88
2, 6479, Note_off_c, 0, 79, 0
2, 6480, Note_on_c, 0, 77, 88
2, 6539, Note_off_c, 0, 77, 0
2, 6540, Note_on_c, 0, 75, 88
2, 6599, Note_off_c, 0, 75, 0
2, 6600, Note_on_c, 0, 74, 88
2, 6659, Note_off_c, 0, 74, 0
2, 6660, Note_on_c, 0, 72, 88
2, 6719, Note_off_c, 0, 72, 0
2, 6720, Note_on_c, 0, 74, 88
2, 6749, Note_off_c, 0, 74, 0
2, 6750, Note_on_c, 0, 72, 88
2, 6779, Note_off_c, 0, 72, 0
2, 6780, Note_on_c, 0, 74, 88
2, 6809, Note_off_c, 0, 74, 0
2, 6810, Note_on_c, 0, 75, 88
2, 6839, Note_off_c, 0, 75, 0
2, 6840, Note_on_c, 0, 74, 88
2, 6869, Note_off_c, 0, 74, 0
2, 6870, Note_on_c, 0, 72, 88
2, 6899, Note_off_c, 0, 72, 0
2, 6900, Note_on_c, 0, 70, 88
2, 6929, Note_off_c, 0, 70, 0
2, 6930, Note_on_c, 0, 69, 88
2, 6959, Note_off_c, 0, 69, 0
2, 6960, Note_on_c, 0, 70, 88
2, 6989, Note_off_c, 0, 70, 0
2, 6990, Note_on_c, 0, 69, 88
2, 7019, Note_off_c, 0, 69, 0
2, 7020, Note_on_c, 0, 70, 88
2, 7049, Note_off_c, 0, 70, 0
2, 7050, Note_on_c, 0, 72, 88
2, 7079, Note_off_c, 0, 72, 0
2, 7080, Note_on_c, 0, 70, 88
2, 7109, Note_off_c, 0, 70, 0
2, 7110, Note_on_c, 0, 68, 88
2, 7139, Note_off_c, 0, 68, 0
2, 7140, Note_on_c, 0, 67, 88
2, 7169, Note_off_c, 0, 67, 0
2, 7170, Note_on_c, 0, 65, 88
2, 7199, Note_off_c, 0, 65, 0
2, 7200, Note_on_c, 0, 67, 88
2, 7229, Note_off_c, 0, 67, 0
2, 7230, Note_on_c, 0, 65, 88
2, 7259, Note_off_c, 0, 65, 0
2, 7260, Note_on_c, 0, 67, 88
2, 7289, Note_off_c, 0, 67, 0
2, 7290, Note_on_c, 0, 68, 88
2, 7319, Note_off_c, 0, 68, 0
2, 7320, Note_on_c, 0, 67, 88
2, 7349, Note_off_c, 0, 67, 0
2, 7350, Note_on_c, 0, 65, 88
2, 7379, Note_off_c, 0, 65, 0
2, 7380, Note_on_c, 0, 63, 88
2, 7409, Note_off_c, 0, 63, 0
2, 7410, Note_on_c, 0, 62, 88
2, 7439, Note_off_c, 0, 62, 0
2, 7440, Note_on_c, 0, 63, 88
2, 7469, Note_off_c, 0, 63, 0
2, 7470, Note_on_c, 0, 62, 88
2, 7499, Note_off_c, 0, 62, 0
2, 7500, Note_on_c, 0, 63, 88
2, 7529, Note_off_c, 0, 63, 0
2, 7530, Note_on_c, 0, 65, 88
2, 7559, Note_off_c, 0, 65, 0
2, 7560, Note_on_c, 0, 63, 88
2, 7589, Note_off_c, 0, 63, 0
2, 7590, Note_on_c, 0, 62, 88
2, 7619, Note_off_c, 0, 62, 0
2, 7620, Note_on_c, 0, 60, 88
2, 7649, Note_off_c, 0, 60, 0
2, 7650, Note_on_c, 0, 58, 88
2, 7709, Note_off_c, 0, 58, 0
2, 7710, Note_on_c, 0, 60, 88
2, 7739, Note_off_c, 0, 60, 0
2, 7740, Note_on_c, 0, 62, 88
2, 7769, Note_off_c, 0, 62, 0
2, 7770, Note_on_c, 0, 63, 88
2, 7799, Note_off_c, 0, 63, 0
2, 7800, Note_on_c, 0, 65, 88
2, 7829, Note_off_c, 0, 65, 0
2, 7830, Note_on_c, 0, 67, 88
2, 7859, Note_off_c, 0, 67, 0
2, 7860, Note_on_c, 0, 69, 88
2, 7889, Note_off_c, 0, 69, 0
2, 7890, Note_on_c, 0, 70, 88
2, 7919, Note_off_c, 0, 70, 0
2, 7920, Note_on_c, 0, 72, 88
2, 7949, Note_off_c, 0, 72, 0
2, 7950, Note_on_c, 0, 69, 88
2, 7979, Note_off_c, 0, 69, 0
2, 7980, Note_on_c, 0, 65, 88
2, 8009, Note_off_c, 0, 65, 0
2, 8010, Note_on_c, 0, 67, 88
2, 8039, Note_off_c, 0, 67, 0
2, 8040, Note_on_c, 0, 69, 88
2, 8069, Note_off_c, 0, 69, 0
2, 8070, Note_on_c, 0, 70, 88
2, 8099, Note_off_c, 0, 70, 0
2, 8100, Note_on_c, 0, 72, 88
2, 8129, Note_off_c, 0, 72, 0
2, 8130, Note_on_c, 0, 74, 88
2, 8159, Note_off_c, 0, 74, 0
2, 8160, Note_on_c, 0, 75, 88
2, 8309, Note_off_c, 0, 75, 0
2, 8310, Note_on_c, 0, 77, 88
2, 8324, Note_off_c, 0, 77, 0
2, 8325, Note_on_c, 0, 75, 88
2, 8339, Note_off_c, 0, 75, 0
2, 8340, Note_on_c, 0, 74, 88
2, 8369, Note_off_c, 0, 74, 0
2, 8370, Note_on_c, 0, 75, 88
2, 8399, Note_off_c, 0, 75, 0
2, 8400, Note_on_c, 0, 75, 88
2, 8579, Note_off_c, 0, 75, 0
2, 8580, Note_on_c, 0, 74, 88
2, 8639, Note_off_c, 0, 74, 0
2, 8640, Note_on_c, 0, 74, 88
2, 10799, Note_off_c, 0, 74, 0
2, 10800, Note_on_c, 0, 70, 88
2, 11039, Note_off_c, 0, 70, 0
2, 11040, Note_on_c, 0, 75, 88
2, 11519, Note_off_c, 0, 75, 0
2, 11520, Note_on_c, 0, 74, 88
2, 11759, Note_off_c, 0, 74, 0
2, 11760, Note_on_c, 0, 75, 88
2, 12239, Note_off_c, 0, 75, 0
2, 12240, Note_on_c, 0, 80, 88
2, 12719, Note_off_c, 0, 80, 0
2, 12720, Note_on_c, 0, 79, 88
2, 13199, Note_off_c, 0, 79, 0
2, 13200, Note_on_c, 0, 77, 88
2, 13319, Note_off_c, 0, 77, 0
2, 13320, Note_on_c, 0, 75, 88
2, 13439, Note_off_c, 0, 75, 0
2, 13440, Note_on_c, 0, 74, 88
2, 13679, Note_off_c, 0, 74, 0
2, 13680, Note_on_c, 0, 75, 88
2, 14159, Note_off_c, 0, 75, 0
2, 14160, Note_on_c, 0, 74, 88
2, 14399, Note_off_c, 0, 74, 0
2, 14400, Note_on_c, 0, 76, 88
2, 14639, Note_off_c, 0, 76, 0
2, 14640, Note_on_c, 0, 77, 88
2, 15119, Note_off_c, 0, 77, 0
2, 15120, Note_on_c, 0, 75, 88
2, 15359, Note_off_c, 0, 75, 0
2, 15360, Note_on_c, 0, 74, 88
2, 15599, Note_off_c, 0, 74, 0
2, 15600, Note_on_c, 0, 79, 88
2, 16079, Note_off_c, 0, 79, 0
2, 16080, Note_on_c, 0, 77, 88
2, 16559, Note_off_c, 0, 77, 0
2, 16560, Note_on_c, 0, 75, 88
2, 17039, Note_off_c, 0, 75, 0
2, 17040, Note_on_c, 0, 74, 88
2, 17519, Note_off_c, 0, 74, 0
2, 17520, Note_on_c, 0, 72, 88
2, 17639, Note_off_c, 0, 72, 0
2, 17640, Note_on_c, 0, 70, 88
2, 17759, Note_off_c, 0, 70, 0
2, 17760, Note_on_c, 0, 69, 88
2, 17999, Note_off_c, 0, 69, 0
2, 18000, Note_on_c, 0, 70, 88
2, 18479, Note_off_c, 0, 70, 0
2, 18480, Note_on_c, 0, 75, 88
2, 18959, Note_off_c, 0, 75, 0
2, 18960, Note_on_c, 0, 74, 88
2, 19199, Note_off_c, 0, 74, 0
2, 19200, Note_on_c, 0, 72, 88
2, 19679, Note_off_c, 0, 72, 0
2, 19680, Note_on_c, 0, 70, 88
2, 20159, Note_off_c, 0, 70, 0
2, 20160, Note_on_c, 0, 68, 88
2, 20639, Note_off_c, 0, 68, 0
2, 20640, Note_on_c, 0, 67, 88
2, 21359, Note_off_c, 0, 67, 0
2, 21360, Note_on_c, 0, 65, 88
2, 21479, Note_off_c, 0, 65, 0
2, 21480, Note_on_c, 0, 63, 88
2, 21599, Note_off_c, 0, 63, 0
2, 21600, Note_on_c, 0, 62, 88
2, 22079, Note_off_c, 0, 62, 0
2, 22080, Note_on_c, 0, 63, 88
2, 22799, Note_off_c, 0, 63, 0
2, 22800, Note_on_c, 0, 62, 88
2, 22919, Note_off_c, 0, 62, 0
2, 22920, Note_on_c, 0, 60, 88
2, 23039, Note_off_c, 0, 60, 0
2, 23040, Note_on_c, 0, 62, 88
2, 24539, Note_off_c, 0, 62, 0
2, 24540, Note_on_c, 0, 68, 88
2, 24599, Note_off_c, 0, 68, 0
2, 24600, Note_on_c, 0, 70, 88
2, 24659, Note_off_c, 0, 70, 0
2, 24660, Note_on_c, 0, 72, 88
2, 24719, Note_off_c, 0, 72, 0
2, 24720, Note_on_c, 0, 70, 88
2, 24779, Note_off_c, 0, 70, 0
2, 24780, Note_on_c, 0, 68, 88
2, 24839, Note_off_c, 0, 68, 0
2, 24840, Note_on_c, 0, 67, 88
2, 24899, Note_off_c, 0, 67, 0
2, 24900, Note_on_c, 0, 65, 88
2, 24959, Note_off_c, 0, 65, 0
2, 24960, Note_on_c, 0, 67, 88
2, 25019, Note_off_c, 0, 67, 0
2, 25020, Note_on_c, 0, 75, 88
2, 25079, Note_off_c, 0, 75, 0
2, 25080, Note_on_c, 0, 77, 88
2, 25139, Note_off_c, 0, 77, 0
2, 25140, Note_on_c, 0, 79, 88
2, 25199, Note_off_c, 0, 79, 0
2, 25200, Note_on_c, 0, 77, 88
2, 25259, Note_off_c, 0, 77, 0
2, 25260, Note_on_c, 0, 75, 88
2, 25319, Note_off_c, 0, 75, 0
2, 25320, Note_on_c, 0, 74, 88
2, 25379, Note_off_c, 0, 74, 0
2, 25380, Note_on_c, 0, 72, 88
2, 25439, Note_off_c, 0, 72, 0
2, 25440, Note_on_c, 0, 70, 88
2, 25559, Note_off_c, 0, 70, 0
2, 25560, Note_on_c, 0, 72, 88
2, 25619, Note_off_c, 0, 72, 0
2, 25620, Note_on_c, 0, 74, 88
2, 25679, Note_off_c, 0, 74, 0
2, 25680, Note_on_c, 0, 75, 88
2, 25739, Note_off_c, 0, 75, 0
2, 25740, Note_on_c, 0, 74, 88
2, 25799, Note_off_c, 0, 74, 0
2, 25800, Note_on_c, 0, 72, 88
2, 25859, Note_off_c, 0, 72, 0
2, 25860, Note_on_c, 0, 70, 88
2, 25919, Note_off_c, 0, 70, 0
2, 25920, Note_on_c, 0, 68, 88
2, 25979, Note_off_c, 0, 68, 0
2, 25980, Note_on_c, 0, 67, 88
2, 26039, Note_off_c, 0, 67, 0
2, 26040, Note_on_c, 0, 65, 88
2, 26099, Note_off_c, 0, 65, 0
2, 26100, Note_on_c, 0, 63, 88
2, 26159, Note_off_c, 0, 63, 0
2, 26160, Note_on_c, 0, 68, 88
2, 26279, Note_off_c, 0, 68, 0
2, 26280, Note_on_c, 0, 68, 88
2, 26399, Note_off_c, 0, 68, 0
2, 26400, Note_on_c, 0, 68, 88
2, 26639, Note_off_c, 0, 68, 0
2, 26640, Note_on_c, 0, 67, 88
2, 27119, Note_off_c, 0, 67, 0
2, 27120, Note_on_c, 0, 69, 88
2, 27359, Note_off_c, 0, 69, 0
2, 27360, Note_on_c, 0, 70, 88
2, 27479, Note_off_c, 0, 70, 0
2, 27480, Note_on_c, 0, 72, 88
2, 27599, Note_off_c, 0, 72, 0
2, 27600, Note_on_c, 0, 74, 88
2, 28139, Note_off_c, 0, 74, 0
2, 28140, Note_on_c, 0, 74, 88
2, 28199, Note_off_c, 0, 74, 0
2, 28200, Note_on_c, 0, 72, 88
2, 28259, Note_off_c, 0, 72, 0
2, 28260, Note_on_c, 0, 70, 88
2, 28319, Note_off_c, 0, 70, 0
2, 28320, Note_on_c, 0, 69, 88
2, 28439, Note_off_c, 0, 69, 0
2, 28440, Note_on_c, 0, 70, 88
2, 28499, Note_off_c, 0, 70, 0
2, 28500, Note_on_c, 0, 72, 88
2, 28559, Note_off_c, 0, 72, 0
2, 28560, Note_on_c, 0, 74, 88
2, 29099, Note_off_c, 0, 74, 0
2, 29100, Note_on_c, 0, 72, 88
2, 29159, Note_off_c, 0, 72, 0
2, 29160, Note_on_c, 0, 74, 88
2, 29219, Note_off_c, 0, 74, 0
2, 29220, Note_on_c, 0, 75, 88
2, 29279, Note_off_c, 0, 75, 0
2, 29280, Note_on_c, 0, 77, 88
2, 29819, Note_off_c, 0, 77, 0
2, 29820, Note_on_c, 0, 77, 88
2, 29879, Note_off_c, 0, 77, 0
2, 29880, Note_on_c, 0, 79, 88
2, 29939, Note_off_c, 0, 79, 0
2, 29940, Note_on_c, 0, 80, 88
2, 29999, Note_off_c, 0, 80, 0
2, 30000, Note_on_c, 0, 79, 88
2, 30059, Note_off_c, 0, 79, 0
2, 30060, Note_on_c, 0, 77, 88
2, 30119, Note_off_c, 0, 77, 0
2, 30120, Note_on_c, 0, 75, 88
2, 30179, Note_off_c, 0, 75, 0
2, 30180, Note_on_c, 0, 74, 88
2, 30239, Note_off_c, 0, 74, 0
2, 30240, Note_on_c, 0, 75, 88
2, 30779, Note_off_c, 0, 75, 0
2, 30780, Note_on_c, 0, 75, 88
2, 30839, Note_off_c, 0, 75, 0
2, 30840, Note_on_c, 0, 77, 88
2, 30899, Note_off_c, 0, 77, 0
2, 30900, Note_on_c, 0, 79, 88
2, 30959, Note_off_c, 0, 79, 0
2, 30960, Note_on_c, 0, 77, 88
2, 31019, Note_off_c, 0, 77, 0
2, 31020, Note_on_c, 0, 75, 88
2, 31079, Note_off_c, 0, 75, 0
2, 31080, Note_on_c, 0, 74, 88
2, 31139, Note_off_c, 0, 74, 0
2, 31140, Note_on_c, 0, 72, 88
2, 31199, Note_off_c, 0, 72, 0
2, 31200, Note_on_c, 0, 74, 88
2, 31919, Note_off_c, 0, 74, 0
2, 31920, Note_on_c, 0, 72, 88
2, 32279, Note_off_c, 0, 72, 0
2, 32280, Note_on_c, 0, 70, 88
2, 32399, Note_off_c, 0, 70, 0
2, 32400, Note_on_c, 0, 69, 88
2, 32639, Note_off_c, 0, 69, 0
2, 32640, Note_on_c, 0, 67, 88
2, 33119, Note_off_c, 0, 67, 0
2, 33120, Note_on_c, 0, 65, 88
2, 33359, Note_off_c, 0, 65, 0
2, 33360, Note_on_c, 0, 70, 88
2, 33839, Note_off_c, 0, 70, 0
2, 33840, Note_on_c, 0, 69, 88
2, 34079, Note_off_c, 0, 69, 0
2, 34080, Note_on_c, 0, 73, 88
2, 34619, Note_off_c, 0, 73, 0
2, 34620, Note_on_c, 0, 70, 88
2, 34679, Note_off_c, 0, 70, 0
2, 34680, Note_on_c, 0, 72, 88
2, 34739, Note_off_c, 0, 72, 0
2, 34740, Note_on_c, 0, 73, 88
2, 34799, Note_off_c, 0, 73, 0
2, 34800, Note_on_c, 0, 72, 88
2, 34859, Note_off_c, 0, 72, 0
2, 34860, Note_on_c, 0, 70, 88
2, 34919, Note_off_c, 0, 70, 0
2, 34920, Note_on_c, 0, 68, 88
2, 34979, Note_off_c, 0, 68, 0
2, 34980, Note_on_c, 0, 67, 88
2, 35039, Note_off_c, 0, 67, 0
2, 35040, Note_on_c, 0, 65, 88
2, 35759, Note_off_c, 0, 65, 0
2, 35760, Note_on_c, 0, 64, 88
2, 35999, Note_off_c, 0, 64, 0
2, 36000, Note_on_c, 0, 65, 88
2, 36239, Note_off_c, 0, 65, 0
2, 36240, Note_on_c, 0, 72, 88
2, 36719, Note_off_c, 0, 72, 0
2, 36720, Note_on_c, 0, 71, 88
2, 36959, Note_off_c, 0, 71, 0
2, 36960, Note_on_c, 0, 75, 88
2, 37499, Note_off_c, 0, 75, 0
2, 37500, Note_on_c, 0, 75, 88
2, 37559, Note_off_c, 0, 75, 0
2, 37560, Note_on_c, 0, 77, 88
2, 37619, Note_off_c, 0, 77, 0
2, 37620, Note_on_c, 0, 79, 88
2, 37679, Note_off_c, 0, 79, 0
2, 37680, Note_on_c, 0, 77, 88
2, 37739, Note_off_c, 0, 77, 0
2, 37740, Note_on_c, 0, 75, 88
2, 37799, Note_off_c, 0, 75, 0
2, 37800, Note_on_c, 0, 74, 88
2, 37859, Note_off_c, 0, 74, 0
2, 37860, Note_on_c, 0, 72, 88
2, 37919, Note_off_c, 0, 72, 0
2, 37920, Note_on_c, 0, 71, 88
2, 37979, Note_off_c, 0, 71, 0
2, 37980, Note_on_c, 0, 77, 88
2, 38039, Note_off_c, 0, 77, 0
2, 38040, Note_on_c, 0, 79, 88
2, 38099, Note_off_c, 0, 79, 0
2, 38100, Note_on_c, 0, 80, 88
2, 38159, Note_off_c, 0, 80, 0
2, 38160, Note_on_c, 0, 79, 88
2, 38219, Note_off_c, 0, 79, 0
2, 38220, Note_on_c, 0, 77, 88
2, 38279, Note_off_c, 0, 77, 0
2, 38280, Note_on_c, 0, 75, 88
2, 38339, Note_off_c, 0, 75, 0
2, 38340, Note_on_c, 0, 74, 88
2, 38399, Note_off_c, 0, 74, 0
2, 38400, Note_on_c, 0, 72, 88
2, 38459, Note_off_c, 0, 72, 0
2, 38460, Note_on_c, 0, 71, 88
2, 38519, Note_off_c, 0, 71, 0
2, 38520, Note_on_c, 0, 72, 88
2, 38579, Note_off_c, 0, 72, 0
2, 38580, Note_on_c, 0, 74, 88
2, 38639, Note_off_c, 0, 74, 0
2, 38640, Note_on_c, 0, 74, 88
2, 38819, Note_off_c, 0, 74, 0
2, 38820, Note_on_c, 0, 72, 88
2, 38879, Note_off_c, 0, 72, 0
2, 38880, Note_on_c, 0, 72, 88
2, 39419, Note_off_c, 0, 72, 0
2, 39420, Note_on_c, 0, 70, 88
2, 39479, Note_off_c, 0, 70, 0
2, 39480, Note_on_c, 0, 72, 88
2, 39539, Note_off_c, 0, 72, 0
2, 39540, Note_on_c, 0, 73, 88
2, 39599, Note_off_c, 0, 73, 0
2, 39600, Note_on_c, 0, 72, 88
2, 39659, Note_off_c, 0, 72, 0
2, 39660, Note_on_c, 0, 70, 88
2, 39719, Note_off_c, 0, 70, 0
2, 39720, Note_on_c, 0, 68, 88
2, 39779, Note_off_c, 0, 68, 0
2, 39780, Note_on_c, 0, 67, 88
2, 39839, Note_off_c, 0, 67, 0
2, 39840, Note_on_c, 0, 65, 88
2, 39959, Note_off_c, 0, 65, 0
2, 39960, Note_on_c, 0, 67, 88
2, 40019, Note_off_c, 0, 67, 0
2, 40020, Note_on_c, 0, 68, 88
2, 40079, Note_off_c, 0, 68, 0
2, 40080, Note_on_c, 0, 70, 88
2, 40139, Note_off_c, 0, 70, 0
2, 40140, Note_on_c, 0, 68, 88
2, 40199, Note_off_c, 0, 68, 0
2, 40200, Note_on_c, 0, 67, 88
2, 40259, Note_off_c, 0, 67, 0
2, 40260, Note_on_c, 0, 65, 88
2, 40319, Note_off_c, 0, 65, 0
2, 40320, Note_on_c, 0, 63, 88
2, 40379, Note_off_c, 0, 63, 0
2, 40380, Note_on_c, 0, 62, 88
2, 40439, Note_off_c, 0, 62, 0
2, 40440, Note_on_c, 0, 60, 88
2, 40499, Note_off_c, 0, 60, 0
2, 40500, Note_on_c, 0, 58, 88
2, 40559, Note_off_c, 0, 58, 0
2, 40560, Note_on_c, 0, 75, 88
2, 40679, Note_off_c, 0, 75, 0
2, 40680, Note_on_c, 0, 75, 88
2, 40799, Note_off_c, 0, 75, 0
2, 40800, Note_on_c, 0, 75, 88
2, 41039, Note_off_c, 0, 75, 0
2, 41040, Note_on_c, 0, 74, 88
2, 41279, Note_off_c, 0, 74, 0
2, 41280, Note_on_c, 0, 79, 88
2, 41999, Note_off_c, 0, 79, 0
2, 42000, Note_on_c, 0, 77, 88
2, 42239, Note_off_c, 0, 77, 0
2, 42240, Note_on_c, 0, 71, 88
2, 42479, Note_off_c, 0, 71, 0
2, 42480, Note_on_c, 0, 72, 88
2, 42599, Note_off_c, 0, 72, 0
2, 42600, Note_on_c, 0, 74, 88
2, 42719, Note_off_c, 0, 74, 0
2, 42720, Note_on_c, 0, 75, 88
2, 42839, Note_off_c, 0, 75, 0
2, 42840, Note_on_c, 0, 76, 88
2, 42959, Note_off_c, 0, 76, 0
2, 42960, Note_on_c, 0, 77, 88
2, 43079, Note_off_c, 0, 77, 0
2, 43080, Note_on_c, 0, 79, 88
2, 43199, Note_off_c, 0, 79, 0
2, 43200, Note_on_c, 0, 80, 88
2, 43739, Note_off_c, 0, 80, 0
2, 43740, Note_on_c, 0, 80, 88
2, 43799, Note_off_c, 0, 80, 0
2, 43800, Note_on_c, 0, 82, 88
2, 43859, Note_off_c, 0, 82, 0
2, 43860, Note_on_c, 0, 84, 88
2, 43919, Note_off_c, 0, 84, 0
2, 43920, Note_on_c, 0, 82, 88
2, 43979, Note_off_c, 0, 82, 0
2, 43980, Note_on_c, 0, 80, 88
2, 44039, Note_off_c, 0, 80, 0
2, 44040, Note_on_c, 0, 79, 88
2, 44099, Note_off_c, 0, 79, 0
2, 44100, Note_on_c, 0, 77, 88
2, 44159, Note_off_c, 0, 77, 0
2, 44160, Note_on_c, 0, 75, 88
2, 44639, Note_off_c, 0, 75, 0
2, 44640, Note_on_c, 0, 70, 88
2, 45419, Note_off_c, 0, 70, 0
2, 45420, Note_on_c, 0, 68, 88
2, 45479, Note_off_c, 0, 68, 0
2, 45480, Note_on_c, 0, 70, 88
2, 45539, Note_off_c, 0, 70, 0
2, 45540, Note_on_c, 0, 72, 88
2, 45599, Note_off_c, 0, 72, 0
2, 45600, Note_on_c, 0, 65, 88
2, 45839, Note_off_c, 0, 65, 0
2, 45840, Note_on_c, 0, 65, 88
2, 46079, Note_off_c, 0, 65, 0
2, 46080, Note_on_c, 0, 63, 88
2, 46559, Note_off_c, 0, 63, 0
2, 46560, Note_on_c, 0, 62, 88
2, 47039, Note_off_c, 0, 62, 0
2, 47040, Note_on_c, 0, 68, 88
2, 47579, Note_off_c, 0, 68, 0
2, 47580, Note_on_c, 0, 65, 88
2, 47639, Note_off_c, 0, 65, 0
2, 47640, Note_on_c, 0, 67, 88
2, 47699, Note_off_c, 0, 67, 0
2, 47700, Note_on_c, 0, 68, 88
2, 47759, Note_off_c, 0, 68, 0
2, 47760, Note_on_c, 0, 67, 88
2, 47819, Note_off_c, 0, 67, 0
2, 47820, Note_on_c, 0, 65, 88
2, 47879, Note_off_c, 0, 65, 0
2, 47880, Note_on_c, 0, 63, 88
2, 47939, Note_off_c, 0, 63, 0
2, 47940, Note_on_c, 0, 62, 88
2, 47999, Note_off_c, 0, 62, 0
2, 48000, Note_on_c, 0, 60, 88
2, 48299, Note_off_c, 0, 60, 0
2, 48300, Note_on_c, 0, 60, 88
2, 48359, Note_off_c, 0, 60, 0
2, 48360, Note_on_c, 0, 62, 88
2, 48419, Note_off_c, 0, 62, 0
2, 48420, Note_on_c, 0, 63, 88
2, 48479, Note_off_c, 0, 63, 0
2, 48480, Note_on_c, 0, 65, 88
2, 48779, Note_off_c, 0, 65, 0
2, 48780, Note_on_c, 0, 63, 88
2, 48839, Note_off_c, 0, 63, 0
2, 48840, Note_on_c, 0, 65, 88
2, 48899, Note_off_c, 0, 65, 0
2, 48900, Note_on_c, 0, 67, 88
2, 48959, Note_off_c, 0, 67, 0
2, 48960, Note_on_c, 0, 68, 88
2, 49559, Note_off_c, 0, 68, 0
2, 49560, Note_on_c, 0, 67, 88
2, 49679, Note_off_c, 0, 67, 0
2, 49680, Note_on_c, 0, 68, 88
2, 49799, Note_off_c, 0, 68, 0
2, 49800, Note_on_c, 0, 70, 88
2, 49919, Note_off_c, 0, 70, 0
2, 49920, Note_on_c, 0, 72, 88
2, 50219, Note_off_c, 0, 72, 0
2, 50220, Note_on_c, 0, 75, 88
2, 50279, Note_off_c, 0, 75, 0
2, 50280, Note_on_c, 0, 74, 88
2, 50339, Note_off_c, 0, 74, 0
2, 50340, Note_on_c, 0, 72, 88
2, 50399, Note_off_c, 0, 72, 0
2, 50400, Note_on_c, 0, 71, 88
2, 50519, Note_off_c, 0, 71, 0
2, 50520, Note_on_c, 0, 72, 88
2, 50579, Note_off_c, 0, 72, 0
2, 50580, Note_on_c, 0, 74, 88
2, 50639, Note_off_c, 0, 74, 0
2, 50640, Note_on_c, 0, 75, 88
2, 50699, Note_off_c, 0, 75, 0
2, 50700, Note_on_c, 0, 74, 88
2, 50759, Note_off_c, 0, 74, 0
2, 50760, Note_on_c, 0, 72, 88
2, 50819, Note_off_c, 0, 72, 0
2, 50820, Note_on_c, 0, 70, 88
2, 50879, Note_off_c, 0, 70, 0
2, 50880, Note_on_c, 0, 68, 88
2, 50939, Note_off_c, 0, 68, 0
2, 50940, Note_on_c, 0, 67, 88
2, 50999, Note_off_c, 0, 67, 0
2, 51000, Note_on_c, 0, 65, 88
2, 51059, Note_off_c, 0, 65, 0
2, 51060, Note_on_c, 0, 63, 88
2, 51119, Note_off_c, 0, 63, 0
2, 51120, Note_on_c, 0, 62, 88
2, 51179, Note_off_c, 0, 62, 0
2, 51180, Note_on_c, 0, 74, 88
2, 51239, Note_off_c, 0, 74, 0
2, 51240, Note_on_c, 0, 75, 88
2, 51299, Note_off_c, 0, 75, 0
2, 51300, Note_on_c, 0, 77, 88
2, 51359, Note_off_c, 0, 77, 0
2, 51360, Note_on_c, 0, 71, 88
2, 51479, Note_off_c, 0, 71, 0
2, 51480, Note_on_c, 0, 72, 88
2, 51539, Note_off_c, 0, 72, 0
2, 51540, Note_on_c, 0, 74, 88
2, 51599, Note_off_c, 0, 74, 0
2, 51600, Note_on_c, 0, 72, 88
2, 51659, Note_off_c, 0, 72, 0
2, 51660, Note_on_c, 0, 70, 88
2, 51719, Note_off_c, 0, 70, 0
2, 51720, Note_on_c, 0, 68, 88
2, 51779, Note_off_c, 0, 68, 0
2, 51780, Note_on_c, 0, 67, 88
2, 51839, Note_off_c, 0, 67, 0
2, 51840, Note_on_c, 0, 72, 88
2, 52439, Note_off_c, 0, 72, 0
2, 52440, Note_on_c, 0, 74, 88
2, 52559, Note_off_c, 0, 74, 0
2, 52560, Note_on_c, 0, 76, 88
2, 52799, Note_off_c, 0, 76, 0
2, 52800, Note_on_c, 0, 77, 88
2, 52859, Note_off_c, 0, 77, 0
2, 52860, Note_on_c, 0, 72, 88
2, 52919, Note_off_c, 0, 72, 0
2, 52920, Note_on_c, 0, 73, 88
2, 52979, Note_off_c, 0, 73, 0
2, 52980, Note_on_c, 0, 75, 88
2, 53039, Note_off_c, 0, 75, 0
2, 53040, Note_on_c, 0, 73, 88
2, 53099, Note_off_c, 0, 73, 0
2, 53100, Note_on_c, 0, 72, 88
2, 53159, Note_off_c, 0, 72, 0
2, 53160, Note_on_c, 0, 70, 88
2, 53219, Note_off_c, 0, 70, 0
2, 53220, Note_on_c, 0, 68, 88
2, 53279, Note_off_c, 0, 68, 0
2, 53280, Note_on_c, 0, 67, 88
2, 53819, Note_off_c, 0, 67, 0
2, 53820, Note_on_c, 0, 80, 88
2, 53879, Note_off_c, 0, 80, 0
2, 53880, Note_on_c, 0, 82, 88
2, 53939, Note_off_c, 0, 82, 0
2, 53940, Note_on_c, 0, 84, 88
2, 53999, Note_off_c, 0, 84, 0
2, 54000, Note_on_c, 0, 82, 88
2, 54059, Note_off_c, 0, 82, 0
2, 54060, Note_on_c, 0, 80, 88
2, 54119, Note_off_c, 0, 80, 0
2, 54120, Note_on_c, 0, 79, 88
2, 54179, Note_off_c, 0, 79, 0
2, 54180, Note_on_c, 0, 77, 88
2, 54239, Note_off_c, 0, 77, 0
2, 54240, Note_on_c, 0, 80, 88
2, 54299, Note_off_c, 0, 80, 0
2, 54300, Note_on_c, 0, 79, 88
2, 54359, Note_off_c, 0, 79, 0
2, 54360, Note_on_c, 0, 77, 88
2, 54419, Note_off_c, 0, 77, 0
2, 54420, Note_on_c, 0, 75, 88
2, 54479, Note_off_c, 0, 75, 0
2, 54480, Note_on_c, 0, 80, 88
2, 54959, Note_off_c, 0, 80, 0
2, 54960, Note_on_c, 0, 79, 88
2, 55199, Note_off_c, 0, 79, 0
2, 55200, Note_on_c, 0, 80, 88
2, 55319, Note_off_c, 0, 80, 0
2, 55320, Note_on_c, 0, 75, 88
2, 55439, Note_off_c, 0, 75, 0
2, 55440, Note_on_c, 0, 80, 88
2, 55919, Note_off_c, 0, 80, 0
2, 55920, Note_on_c, 0, 79, 88
2, 56159, Note_off_c, 0, 79, 0
2, 56160, Note_on_c, 0, 84, 88
2, 56639, Note_off_c, 0, 84, 0
2, 56640, Note_on_c, 0, 82, 88
2, 56939, Note_off_c, 0, 82, 0
2, 56940, Note_on_c, 0, 82, 88
2, 56999, Note_off_c, 0, 82, 0
2, 57000, Note_on_c, 0, 80, 88
2, 57059, Note_off_c, 0, 80, 0
2, 57060, Note_on_c, 0, 79, 88
2, 57119, Note_off_c, 0, 79, 0
2, 57120, Note_on_c, 0, 77, 88
2, 57239, Note_off_c, 0, 77, 0
2, 57240, Note_on_c, 0, 79, 88
2, 57299, Note_off_c, 0, 79, 0
2, 57300, Note_on_c, 0, 80, 88
2, 57359, Note_off_c, 0, 80, 0
2, 57360, Note_on_c, 0, 79, 88
2, 57419, Note_off_c, 0, 79, 0
2, 57420, Note_on_c, 0, 77, 88
2, 57479, Note_off_c, 0, 77, 0
2, 57480, Note_on_c, 0, 75, 88
2, 57539, Note_off_c, 0, 75, 0
2, 57540, Note_on_c, 0, 74, 88
2, 57599, Note_off_c, 0, 74, 0
2, 57600, Note_on_c, 0, 75, 88
2, 57719, Note_off_c, 0, 75, 0
2, 57720, Note_on_c, 0, 77, 88
2, 57779, Note_off_c, 0, 77, 0
2, 57780, Note_on_c, 0, 79, 88
2, 57839, Note_off_c, 0, 79, 0
2, 57840, Note_on_c, 0, 80, 88
2, 57959, Note_off_c, 0, 80, 0
2, 57960, Note_on_c, 0, 80, 88
2, 58139, Note_off_c, 0, 80, 0
2, 58140, Note_on_c, 0, 79, 88
2, 58199, Note_off_c, 0, 79, 0
2, 58200, Note_on_c, 0, 80, 88
2, 58259, Note_off_c, 0, 80, 0
2, 58260, Note_on_c, 0, 82, 88
2, 58319, Note_off_c, 0, 82, 0
2, 58320, Note_on_c, 0, 80, 88
2, 58379, Note_off_c, 0, 80, 0
2, 58380, Note_on_c, 0, 79, 88
2, 58439, Note_off_c, 0, 79, 0
2, 58440, Note_on_c, 0, 77, 88
2, 58499, Note_off_c, 0, 77, 0
2, 58500, Note_on_c, 0, 75, 88
2, 58559, Note_off_c, 0, 75, 0
2, 58560, Note_on_c, 0, 77, 88
2, 58679, Note_off_c, 0, 77, 0
2, 58680, Note_on_c, 0, 79, 88
2, 58739, Note_off_c, 0, 79, 0
2, 58740, Note_on_c, 0, 80, 88
2, 58799, Note_off_c, 0, 80, 0
2, 58800, Note_on_c, 0, 82, 88
2, 58859, Note_off_c, 0, 82, 0
2, 58860, Note_on_c, 0, 80, 88
2, 58919, Note_off_c, 0, 80, 0
2, 58920, Note_on_c, 0, 79, 88
2, 58979, Note_off_c, 0, 79, 0
2, 58980, Note_on_c, 0, 77, 88
2, 59039, Note_off_c, 0, 77, 0
2, 59040, Note_on_c, 0, 75, 88
2, 59099, Note_off_c, 0, 75, 0
2, 59100, Note_on_c, 0, 74, 88
2, 59159, Note_off_c, 0, 74, 0
2, 59160, Note_on_c, 0, 72, 88
2, 59219, Note_off_c, 0, 72, 0
2, 59220, Note_on_c, 0, 70, 88
2, 59279, Note_off_c, 0, 70, 0
2, 59280, Note_on_c, 0, 75, 88
2, 59399, Note_off_c, 0, 75, 0
2, 59400, Note_on_c, 0, 75, 88
2, 59519, Note_off_c, 0, 75, 0
2, 59520, Note_on_c, 0, 75, 88
2, 59819, Note_off_c, 0, 75, 0
2, 59820, Note_on_c, 0, 74, 88
2, 59879, Note_off_c, 0, 74, 0
2, 59880, Note_on_c, 0, 75, 88
2, 59939, Note_off_c, 0, 75, 0
2, 59940, Note_on_c, 0, 77, 88
2, 59999, Note_off_c, 0, 77, 0
2, 60000, Note_on_c, 0, 70, 88
2, 60719, Note_off_c, 0, 70, 0
2, 60720, Note_on_c, 0, 68, 88
2, 61199, Note_off_c, 0, 68, 0
2, 61200, Note_on_c, 0, 67, 88
2, 61439, Note_off_c, 0, 67, 0
2, 61440, Note_on_c, 0, 72, 88
2, 61919, Note_off_c, 0, 72, 0
2, 61920, Note_on_c, 0, 70, 88
2, 62159, Note_off_c, 0, 70, 0
2, 62160, Note_on_c, 0, 75, 88
2, 62639, Note_off_c, 0, 75, 0
2, 62640, Note_on_c, 0, 74, 88
2, 62879, Note_off_c, 0, 74, 0
2, 62880, Note_on_c, 0, 78, 88
2, 63359, Note_off_c, 0, 78, 0
2, 63360, Note_on_c, 0, 77, 88
2, 63599, Note_off_c, 0, 77, 0
2, 63600, Note_on_c, 0, 75, 88
2, 64079, Note_off_c, 0, 75, 0
2, 64080, Note_on_c, 0, 74, 88
2, 64319, Note_off_c, 0, 74, 0
2, 64320, Note_on_c, 0, 75, 88
2, 64799, Note_off_c, 0, 75, 0
2, 64800, Note_on_c, 0, 74, 88
2, 65039, Note_off_c, 0, 74, 0
2, 65040, Note_on_c, 0, 73, 88
2, 65339, Note_off_c, 0, 73, 0
2, 65340, Note_on_c, 0, 70, 88
2, 65399, Note_off_c, 0, 70, 0
2, 65400, Note_on_c, 0, 72, 88
2, 65459, Note_off_c, 0, 72, 0
2, 65460, Note_on_c, 0, 73, 88
2, 65519, Note_off_c, 0, 73, 0
2, 65520, Note_on_c, 0, 72, 88
2, 65579, Note_off_c, 0, 72, 0
2, 65580, Note_on_c, 0, 70, 88
2, 65639, Note_off_c, 0, 70, 0
2, 65640, Note_on_c, 0, 72, 88
2, 65699, Note_off_c, 0, 72, 0
2, 65700, Note_on_c, 0, 68, 88
2, 65759, Note_off_c, 0, 68, 0
2, 65760, Note_on_c, 0, 74, 88
2, 66239, Note_off_c, 0, 74, 0
2, 66240, Note_on_c, 0, 75, 88
2, 66280, Note_off_c, 0, 75, 0
2, 66280, End_track
0, 0, End_of_file