0, 0, Header, 1, 2, 240
1, 0, Start_track
1, 0, Time_signature, 4, 2, 24, 8
1, 0, Tempo, 576923
1, 0, SMPTE_offset, 64, 0, 0, 0, 100
1, 0, End_track
2, 0, Start_track
2, 0, Title_t, "Track 1"
2, 0, Program_c, 0, 6
2, 0, Note_on_c, 0, 70, 88
2, 839, Note_off_c, 0, 70, 0
2, 840, Note_on_c, 0, 70, 88
2, 959, Note_off_c, 0, 70, 0
2, 960, Note_on_c, 0, 75, 88
2, 1319, Note_off_c, 0, 75, 0
2, 1320, Note_on_c, 0, 78, 88
2, 1439, Note_off_c, 0, 78, 0
2, 1440, Note_on_c, 0, 71, 88
2, 2279, Note_off_c, 0, 71, 0
2, 2280, Note_on_c, 0, 75, 88
2, 2399, Note_off_c, 0, 75, 0
2, 2400, Note_on_c, 0, 80, 88
2, 2759, Note_off_c, 0, 80, 0
2, 2760, Note_on_c, 0, 83, 88
2, 2879, Note_off_c, 0, 83, 0
2, 2880, Note_on_c, 0, 74, 88
2, 3719, Note_off_c, 0, 74, 0
2, 3720, Note_on_c, 0, 77, 88
2, 3839, Note_off_c, 0, 77, 0
2, 3840, Note_on_c, 0, 70, 88
2, 3869, Note_off_c, 0, 70, 0
2, 3870, Note_on_c, 0, 68, 88
2, 3899, Note_off_c, 0, 68, 0
2, 3900, Note_on_c, 0, 70, 88
2, 3929, Note_off_c, 0, 70, 0
2, 3930, Note_on_c, 0, 68, 88
2, 3959, Note_off_c, 0, 68, 0
2, 3960, Note_on_c, 0, 70, 88
2, 3989, Note_off_c, 0, 70, 0
2, 3990, Note_on_c, 0, 68, 88
2, 4139, Note_off_c, 0, 68, 0
2, 4140, Note_on_c, 0, 66, 88
2, 4199, Note_off_c, 0, 66, 0
2, 4200, Note_on_c, 0, 68, 88
2, 4259, Note_off_c, 0, 68, 0
2, 4260, Note_on_c, 0, 70, 88
2, 4319, Note_off_c, 0, 70, 0
2, 4320, Note_on_c, 0, 68, 88
2, 4360, Note_off_c, 0, 68, 0
2, 4361, Note_on_c, 0, 66, 88
2, 4394, Note_off_c, 0, 66, 0
2, 4395, Note_on_c, 0, 68, 88
2, 4428, Note_off_c, 0, 68, 0
2, 4429, Note_on_c, 0, 66, 88
2, 4462, Note_off_c, 0, 66, 0
2, 4463, Note_on_c, 0, 68, 88
2, 4495, Note_off_c, 0, 68, 0
2, 4496, Note_on_c, 0, 66, 88
2, 4529, Note_off_c, 0, 66, 0
2, 4530, Note_on_c, 0, 68, 88
2, 4559, Note_off_c, 0, 68, 0
2, 4560, Note_on_c, 0, 66, 88
2, 4679, Note_off_c, 0, 66, 0
2, 4680, Note_on_c, 0, 65, 88
2, 4739, Note_off_c, 0, 65, 0
2, 4740, Note_on_c, 0, 63, 88
2, 4799, Note_off_c, 0, 63, 0
2, 4800, Note_on_c, 0, 78, 88
2, 5279, Note_off_c, 0, 78, 0
2, 5280, Note_on_c, 0, 66, 88
2, 5759, Note_off_c, 0, 66, 0
2, 5760, Note_on_c, 0, 66, 88
2, 6539, Note_off_c, 0, 66, 0
2, 6540, Note_on_c, 0, 78, 88
2, 6599, Note_off_c, 0, 78, 0
2, 6600, Note_on_c, 0, 76, 88
2, 6659, Note_off_c, 0, 76, 0
2, 6660, Note_on_c, 0, 75, 88
2, 6719, Note_off_c, 0, 75, 0
2, 6720, Note_on_c, 0, 76, 88
2, 7079, Note_off_c, 0, 76, 0
2, 7080, Note_on_c, 0, 73, 88
2, 7199, Note_off_c, 0, 73, 0
2, 7200, Note_on_c, 0, 63, 88
2, 7679, Note_off_c, 0, 63, 0
2, 7680, Note_on_c, 0, 66, 88
2, 8159, Note_off_c, 0, 66, 0
2, 8160, Note_on_c, 0, 66, 88
2, 8639, Note_off_c, 0, 66, 0
2, 8640, Note_on_c, 0, 70, 88
2, 9419, Note_off_c, 0, 70, 0
2, 9420, Note_on_c, 0, 75, 88
2, 9479, Note_off_c, 0, 75, 0
2, 9480, Note_on_c, 0, 73, 88
2, 9539, Note_off_c, 0, 73, 0
2, 9540, Note_on_c, 0, 71, 88
2, 9599, Note_off_c, 0, 71, 0
2, 9600, Note_on_c, 0, 73, 88
2, 9959, Note_off_c, 0, 73, 0
2, 9960, Note_on_c, 0, 70, 88
2, 10079, Note_off_c, 0, 70, 0
2, 10080, Note_on_c, 0, 73, 88
2, 10139, Note_off_c, 0, 73, 0
2, 10140, Note_on_c, 0, 71, 88
2, 10169, Note_off_c, 0, 71, 0
2, 10170, Note_on_c, 0, 73, 88
2, 10199, Note_off_c, 0, 73, 0
2, 10200, Note_on_c, 0, 71, 88
2, 10229, Note_off_c, 0, 71, 0
2, 10230, Note_on_c, 0, 73, 88
2, 10259, Note_off_c, 0, 73, 0
2, 10260, Note_on_c, 0, 71, 88
2, 10289, Note_off_c, 0, 71, 0
2, 10290, Note_on_c, 0, 73, 88
2, 10319, Note_off_c, 0, 73, 0
2, 10320, Note_on_c, 0, 71, 88
2, 10439, Note_off_c, 0, 71, 0
2, 10440, Note_on_c, 0, 70, 88
2, 10499, Note_off_c, 0, 70, 0
2, 10500, Note_on_c, 0, 68, 88
2, 10559, Note_off_c, 0, 68, 0
2, 10560, Note_on_c, 0, 75, 88
2, 11039, Note_off_c, 0, 75, 0
2, 11040, Note_on_c, 0, 75, 88
2, 11519, Note_off_c, 0, 75, 0
2, 11520, Note_on_c, 0, 77, 88
2, 12299, Note_off_c, 0, 77, 0
2, 12300, Note_on_c, 0, 82, 88
2, 12359, Note_off_c, 0, 82, 0
2, 12360, Note_on_c, 0, 80, 88
2, 12419, Note_off_c, 0, 80, 0
2, 12420, Note_on_c, 0, 78, 88
2, 12479, Note_off_c, 0, 78, 0
2, 12480, Note_on_c, 0, 77, 88
2, 12539, Note_off_c, 0, 77, 0
2, 12540, Note_on_c, 0, 78, 88
2, 12599, Note_off_c, 0, 78, 0
2, 12600, Note_on_c, 0, 77, 88
2, 12659, Note_off_c, 0, 77, 0
2, 12660, Note_on_c, 0, 78, 88
2, 12719, Note_off_c, 0, 78, 0
2, 12720, Note_on_c, 0, 80, 88
2, 12779, Note_off_c, 0, 80, 0
2, 12780, Note_on_c, 0, 78, 88
2, 12839, Note_off_c, 0, 78, 0
2, 12840, Note_on_c, 0, 80, 88
2, 12899, Note_off_c, 0, 80, 0
2, 12900, Note_on_c, 0, 77, 88
2, 12959, Note_off_c, 0, 77, 0
2, 12960, Note_on_c, 0, 80, 88
2, 13019, Note_off_c, 0, 80, 0
2, 13020, Note_on_c, 0, 78, 88
2, 13049, Note_off_c, 0, 78, 0
2, 13050, Note_on_c, 0, 80, 88
2, 13079, Note_off_c, 0, 80, 0
2, 13080, Note_on_c, 0, 78, 88
2, 13109, Note_off_c, 0, 78, 0
2, 13110, Note_on_c, 0, 80, 88
2, 13139, Note_off_c, 0, 80, 0
2, 13140, Note_on_c, 0, 78, 88
2, 13169, Note_off_c, 0, 78, 0
2, 13170, Note_on_c, 0, 80, 88
2, 13199, Note_off_c, 0, 80, 0
2, 13200, Note_on_c, 0, 78, 88
2, 13319, Note_off_c, 0, 78, 0
2, 13320, Note_on_c, 0, 77, 88
2, 13379, Note_off_c, 0, 77, 0
2, 13380, Note_on_c, 0, 75, 88
2, 13439, Note_off_c, 0, 75, 0
2, 13440, Note_on_c, 0, 70, 88
2, 13919, Note_off_c, 0, 70, 0
2, 13920, Note_on_c, 0, 73, 88
2, 14399, Note_off_c, 0, 73, 0
2, 14400, Note_on_c, 0, 72, 88
2, 15179, Note_off_c, 0, 72, 0
2, 15180, Note_on_c, 0, 77, 88
2, 15239, Note_off_c, 0, 77, 0
2, 15240, Note_on_c, 0, 75, 88
2, 15299, Note_off_c, 0, 75, 0
2, 15300, Note_on_c, 0, 73, 88
2, 15359, Note_off_c, 0, 73, 0
2, 15360, Note_on_c, 0, 72, 88
2, 15419, Note_off_c, 0, 72, 0
2, 15420, Note_on_c, 0, 73, 88
2, 15479, Note_off_c, 0, 73, 0
2, 15480, Note_on_c, 0, 72, 88
2, 15539, Note_off_c, 0, 72, 0
2, 15540, Note_on_c, 0, 73, 88
2, 15599, Note_off_c, 0, 73, 0
2, 15600, Note_on_c, 0, 75, 88
2, 15659, Note_off_c, 0, 75, 0
2, 15660, Note_on_c, 0, 73, 88
2, 15719, Note_off_c, 0, 73, 0
2, 15720, Note_on_c, 0, 75, 88
2, 15779, Note_off_c, 0, 75, 0
2, 15780, Note_on_c, 0, 72, 88
2, 15839, Note_off_c, 0, 72, 0
2, 15840, Note_on_c, 0, 75, 88
2, 15899, Note_off_c, 0, 75, 0
2, 15900, Note_on_c, 0, 73, 88
2, 15929, Note_off_c, 0, 73, 0
2, 15930, Note_on_c, 0, 75, 88
2, 15959, Note_off_c, 0, 75, 0
2, 15960, Note_on_c, 0, 73, 88
2, 15989, Note_off_c, 0, 73, 0
2, 15990, Note_on_c, 0, 75, 88
2, 16019, Note_off_c, 0, 75, 0
2, 16020, Note_on_c, 0, 73, 88
2, 16049, Note_off_c, 0, 73, 0
2, 16050, Note_on_c, 0, 75, 88
2, 16079, Note_off_c, 0, 75, 0
2, 16080, Note_on_c, 0, 73, 88
2, 16199, Note_off_c, 0, 73, 0
2, 16200, Note_on_c, 0, 72, 88
2, 16259, Note_off_c, 0, 72, 0
2, 16260, Note_on_c, 0, 70, 88
2, 16319, Note_off_c, 0, 70, 0
2, 16320, Note_on_c, 0, 77, 88
2, 16619, Note_off_c, 0, 77, 0
2, 16620, Note_on_c, 0, 78, 88
2, 16679, Note_off_c, 0, 78, 0
2, 16680, Note_on_c, 0, 77, 88
2, 16739, Note_off_c, 0, 77, 0
2, 16740, Note_on_c, 0, 75, 88
2, 16799, Note_off_c, 0, 75, 0
2, 16800, Note_on_c, 0, 73, 88
2, 16859, Note_off_c, 0, 73, 0
2, 16860, Note_on_c, 0, 72, 88
2, 16919, Note_off_c, 0, 72, 0
2, 16920, Note_on_c, 0, 70, 88
2, 16979, Note_off_c, 0, 70, 0
2, 16980, Note_on_c, 0, 68, 88
2, 17039, Note_off_c, 0, 68, 0
2, 17040, Note_on_c, 0, 66, 88
2, 17159, Note_off_c, 0, 66, 0
2, 17160, Note_on_c, 0, 68, 88
2, 17219, Note_off_c, 0, 68, 0
2, 17220, Note_on_c, 0, 65, 88
2, 17279, Note_off_c, 0, 65, 0
2, 17280, Note_on_c, 0, 66, 88
2, 17639, Note_off_c, 0, 66, 0
2, 17640, Note_on_c, 0, 70, 88
2, 17699, Note_off_c, 0, 70, 0
2, 17700, Note_on_c, 0, 73, 88
2, 17759, Note_off_c, 0, 73, 0
2, 17760, Note_on_c, 0, 78, 88
2, 18059, Note_off_c, 0, 78, 0
2, 18060, Note_on_c, 0, 77, 88
2, 18119, Note_off_c, 0, 77, 0
2, 18120, Note_on_c, 0, 75, 88
2, 18179, Note_off_c, 0, 75, 0
2, 18180, Note_on_c, 0, 73, 88
2, 18239, Note_off_c, 0, 73, 0
2, 18240, Note_on_c, 0, 72, 88
2, 18419, Note_off_c, 0, 72, 0
2, 18420, Note_on_c, 0, 75, 88
2, 18449, Note_off_c, 0, 75, 0
2, 18450, Note_on_c, 0, 73, 88
2, 18479, Note_off_c, 0, 73, 0
2, 18480, Note_on_c, 0, 72, 88
2, 18539, Note_off_c, 0, 72, 0
2, 18540, Note_on_c, 0, 73, 88
2, 18599, Note_off_c, 0, 73, 0
2, 18600, Note_on_c, 0, 75, 88
2, 18719, Note_off_c, 0, 75, 0
2, 18720, Note_on_c, 0, 65, 88
2, 18899, Note_off_c, 0, 65, 0
2, 18900, Note_on_c, 0, 67, 88
2, 18929, Note_off_c, 0, 67, 0
2, 18930, Note_on_c, 0, 69, 88
2, 18959, Note_off_c, 0, 69, 0
2, 18960, Note_on_c, 0, 70, 88
2, 18989, Note_off_c, 0, 70, 0
2, 18990, Note_on_c, 0, 69, 88
2, 19019, Note_off_c, 0, 69, 0
2, 19020, Note_on_c, 0, 70, 88
2, 19049, Note_off_c, 0, 70, 0
2, 19050, Note_on_c, 0, 69, 88
2, 19079, Note_off_c, 0, 69, 0
2, 19080, Note_on_c, 0, 70, 88
2, 19109, Note_off_c, 0, 70, 0
2, 19110, Note_on_c, 0, 69, 88
2, 19139, Note_off_c, 0, 69, 0
2, 19140, Note_on_c, 0, 67, 88
2, 19169, Note_off_c, 0, 67, 0
2, 19170, Note_on_c, 0, 69, 88
2, 19199, Note_off_c, 0, 69, 0
2, 19200, Note_on_c, 0, 70, 88
2, 21119, Note_off_c, 0, 70, 0
2, 21120, Note_on_c, 0, 69, 88
2, 21599, Note_off_c, 0, 69, 0
2, 21600, Note_on_c, 0, 70, 88
2, 21959, Note_off_c, 0, 70, 0
2, 21960, Note_on_c, 0, 72, 88
2, 22079, Note_off_c, 0, 72, 0
2, 22080, Note_on_c, 0, 73, 88
2, 22559, Note_off_c, 0, 73, 0
2, 22560, Note_on_c, 0, 73, 88
2, 23039, Note_off_c, 0, 73, 0
2, 23040, Note_on_c, 0, 73, 88
2, 23399, Note_off_c, 0, 73, 0
2, 23400, Note_on_c, 0, 71, 88
2, 23459, Note_off_c, 0, 71, 0
2, 23460, Note_on_c, 0, 70, 88
2, 23519, Note_off_c, 0, 70, 0
2, 23520, Note_on_c, 0, 76, 88
2, 24359, Note_off_c, 0, 76, 0
2, 24360, Note_on_c, 0, 75, 88
2, 24419, Note_off_c, 0, 75, 0
2, 24420, Note_on_c, 0, 73, 88
2, 24479, Note_off_c, 0, 73, 0
2, 24480, Note_on_c, 0, 79, 88
2, 25319, Note_off_c, 0, 79, 0
2, 25320, Note_on_c, 0, 77, 88
2, 25379, Note_off_c, 0, 77, 0
2, 25380, Note_on_c, 0, 75, 88
2, 25439, Note_off_c, 0, 75, 0
2, 25440, Note_on_c, 0, 80, 88
2, 26039, Note_off_c, 0, 80, 0
2, 26040, Note_on_c, 0, 79, 88
2, 26159, Note_off_c, 0, 79, 0
2, 26160, Note_on_c, 0, 80, 88
2, 26279, Note_off_c, 0, 80, 0
2, 26280, Note_on_c, 0, 82, 88
2, 26399, Note_off_c, 0, 82, 0
2, 26400, Note_on_c, 0, 82, 88
2, 26448, Note_off_c, 0, 82, 0
2, 26449, Note_on_c, 0, 80, 88
2, 26500, Note_off_c, 0, 80, 0
2, 26501, Note_on_c, 0, 82, 88
2, 27119, Note_off_c, 0, 82, 0
2, 27120, Note_on_c, 0, 80, 88
2, 27359, Note_off_c, 0, 80, 0
2, 27360, Note_on_c, 0, 80, 88
2, 27719, Note_off_c, 0, 80, 0
2, 27720, Note_on_c, 0, 83, 88
2, 27839, Note_off_c, 0, 83, 0
2, 27840, Note_on_c, 0, 77, 88
2, 28199, Note_off_c, 0, 77, 0
2, 28200, Note_on_c, 0, 78, 88
2, 28259, Note_off_c, 0, 78, 0
2, 28260, Note_on_c, 0, 80, 88
2, 28319, Note_off_c, 0, 80, 0
2, 28320, Note_on_c, 0, 74, 88
2, 28679, Note_off_c, 0, 74, 0
2, 28680, Note_on_c, 0, 75, 88
2, 28739, Note_off_c, 0, 75, 0
2, 28740, Note_on_c, 0, 77, 88
2, 28799, Note_off_c, 0, 77, 0
2, 28800, Note_on_c, 0, 70, 88
2, 29159, Note_off_c, 0, 70, 0
2, 29160, Note_on_c, 0, 80, 88
2, 29279, Note_off_c, 0, 80, 0
2, 29280, Note_on_c, 0, 74, 88
2, 29639, Note_off_c, 0, 74, 0
2, 29640, Note_on_c, 0, 75, 88
2, 29699, Note_off_c, 0, 75, 0
2, 29700, Note_on_c, 0, 77, 88
2, 29759, Note_off_c, 0, 77, 0
2, 29760, Note_on_c, 0, 70, 88
2, 30119, Note_off_c, 0, 70, 0
2, 30120, Note_on_c, 0, 72, 88
2, 30179, Note_off_c, 0, 72, 0
2, 30180, Note_on_c, 0, 74, 88
2, 30239, Note_off_c, 0, 74, 0
2, 30240, Note_on_c, 0, 75, 88
2, 30599, Note_off_c, 0, 75, 0
2, 30600, Note_on_c, 0, 73, 88
2, 30659, Note_off_c, 0, 73, 0
2, 30660, Note_on_c, 0, 71, 88
2, 30719, Note_off_c, 0, 71, 0
2, 30720, Note_on_c, 0, 73, 88
2, 31199, Note_off_c, 0, 73, 0
2, 31200, Note_on_c, 0, 73, 88
2, 31679, Note_off_c, 0, 73, 0
2, 31680, Note_on_c, 0, 73, 88
2, 32039, Note_off_c, 0, 73, 0
2, 32040, Note_on_c, 0, 71, 88
2, 32099, Note_off_c, 0, 71, 0
2, 32100, Note_on_c, 0, 70, 88
2, 32159, Note_off_c, 0, 70, 0
2, 32160, Note_on_c, 0, 71, 88
2, 32639, Note_off_c, 0, 71, 0
2, 32640, Note_on_c, 0, 71, 88
2, 33119, Note_off_c, 0, 71, 0
2, 33120, Note_on_c, 0, 71, 88
2, 33479, Note_off_c, 0, 71, 0
2, 33480, Note_on_c, 0, 70, 88
2, 33539, Note_off_c, 0, 70, 0
2, 33540, Note_on_c, 0, 68, 88
2, 33599, Note_off_c, 0, 68, 0
2, 33600, Note_on_c, 0, 77, 88
2, 33959, Note_off_c, 0, 77, 0
2, 33960, Note_on_c, 0, 71, 88
2, 34079, Note_off_c, 0, 71, 0
2, 34080, Note_on_c, 0, 71, 88
2, 34139, Note_off_c, 0, 71, 0
2, 34140, Note_on_c, 0, 70, 88
2, 34169, Note_off_c, 0, 70, 0
2, 34170, Note_on_c, 0, 71, 88
2, 34199, Note_off_c, 0, 71, 0
2, 34200, Note_on_c, 0, 70, 88
2, 34229, Note_off_c, 0, 70, 0
2, 34230, Note_on_c, 0, 71, 88
2, 34259, Note_off_c, 0, 71, 0
2, 34260, Note_on_c, 0, 70, 88
2, 34289, Note_off_c, 0, 70, 0
2, 34290, Note_on_c, 0, 71, 88
2, 34319, Note_off_c, 0, 71, 0
2, 34320, Note_on_c, 0, 70, 88
2, 34439, Note_off_c, 0, 70, 0
2, 34440, Note_on_c, 0, 71, 88
2, 34499, Note_off_c, 0, 71, 0
2, 34500, Note_on_c, 0, 68, 88
2, 34559, Note_off_c, 0, 68, 0
2, 34560, Note_on_c, 0, 66, 88
2, 35099, Note_off_c, 0, 66, 0
2, 35100, Note_on_c, 0, 63, 88
2, 35159, Note_off_c, 0, 63, 0
2, 35160, Note_on_c, 0, 65, 88
2, 35219, Note_off_c, 0, 65, 0
2, 35220, Note_on_c, 0, 66, 88
2, 35279, Note_off_c, 0, 66, 0
2, 35280, Note_on_c, 0, 68, 88
2, 35339, Note_off_c, 0, 68, 0
2, 35340, Note_on_c, 0, 70, 88
2, 35399, Note_off_c, 0, 70, 0
2, 35400, Note_on_c, 0, 72, 88
2, 35459, Note_off_c, 0, 72, 0
2, 35460, Note_on_c, 0, 74, 88
2, 35519, Note_off_c, 0, 74, 0
2, 35520, Note_on_c, 0, 75, 88
2, 35579, Note_off_c, 0, 75, 0
2, 35580, Note_on_c, 0, 77, 88
2, 35639, Note_off_c, 0, 77, 0
2, 35640, Note_on_c, 0, 78, 88
2, 35699, Note_off_c, 0, 78, 0
2, 35700, Note_on_c, 0, 80, 88
2, 35759, Note_off_c, 0, 80, 0
2, 35760, Note_on_c, 0, 78, 88
2, 35819, Note_off_c, 0, 78, 0
2, 35820, Note_on_c, 0, 77, 88
2, 35879, Note_off_c, 0, 77, 0
2, 35880, Note_on_c, 0, 78, 88
2, 35939, Note_off_c, 0, 78, 0
2, 35940, Note_on_c, 0, 75, 88
2, 35999, Note_off_c, 0, 75, 0
2, 36000, Note_on_c, 0, 76, 88
2, 36359, Note_off_c, 0, 76, 0
2, 36360, Note_on_c, 0, 71, 88
2, 36419, Note_off_c, 0, 71, 0
2, 36420, Note_on_c, 0, 69, 88
2, 36479, Note_off_c, 0, 69, 0
2, 36480, Note_on_c, 0, 68, 88
2, 36839, Note_off_c, 0, 68, 0
2, 36840, Note_on_c, 0, 69, 88
2, 36899, Note_off_c, 0, 69, 0
2, 36900, Note_on_c, 0, 71, 88
2, 36959, Note_off_c, 0, 71, 0
2, 36960, Note_on_c, 0, 64, 88
2, 37319, Note_off_c, 0, 64, 0
2, 37320, Note_on_c, 0, 66, 88
2, 37379, Note_off_c, 0, 66, 0
2, 37380, Note_on_c, 0, 68, 88
2, 37439, Note_off_c, 0, 68, 0
2, 37440, Note_on_c, 0, 62, 88
2, 37799, Note_off_c, 0, 62, 0
2, 37800, Note_on_c, 0, 65, 88
2, 37859, Note_off_c, 0, 65, 0
2, 37860, Note_on_c, 0, 68, 88
2, 37919, Note_off_c, 0, 68, 0
2, 37920, Note_on_c, 0, 71, 88
2, 38279, Note_off_c, 0, 71, 0
2, 38280, Note_on_c, 0, 70, 88
2, 38339, Note_off_c, 0, 70, 0
2, 38340, Note_on_c, 0, 68, 88
2, 38399, Note_off_c, 0, 68, 0
2, 38400, Note_on_c, 0, 77, 88
2, 38759, Note_off_c, 0, 77, 0
2, 38760, Note_on_c, 0, 75, 88
2, 38819, Note_off_c, 0, 75, 0
2, 38820, Note_on_c, 0, 74, 88
2, 38879, Note_off_c, 0, 74, 0
2, 38880, Note_on_c, 0, 83, 88
2, 38999, Note_off_c, 0, 83, 0
2, 39000, Note_on_c, 0, 81, 88
2, 39239, Note_off_c, 0, 81, 0
2, 39240, Note_on_c, 0, 82, 88
2, 39359, Note_off_c, 0, 82, 0
2, 39360, Note_on_c, 0, 75, 88
2, 39839, Note_off_c, 0, 75, 0
2, 39840, Note_on_c, 0, 74, 88
2, 40199, Note_off_c, 0, 74, 0
2, 40200, Note_on_c, 0, 75, 88
2, 40319, Note_off_c, 0, 75, 0
2, 40320, Note_on_c, 0, 75, 88
2, 42539, Note_off_c, 0, 75, 0
2, 42540, Note_on_c, 0, 75, 88
2, 42599, Note_off_c, 0, 75, 0
2, 42600, Note_on_c, 0, 73, 88
2, 42659, Note_off_c, 0, 73, 0
2, 42660, Note_on_c, 0, 71, 88
2, 42719, Note_off_c, 0, 71, 0
2, 42720, Note_on_c, 0, 73, 88
2, 43079, Note_off_c, 0, 73, 0
2, 43080, Note_on_c, 0, 70, 88
2, 43199, Note_off_c, 0, 70, 0
2, 43200, Note_on_c, 0, 71, 88
2, 43979, Note_off_c, 0, 71, 0
2, 43980, Note_on_c, 0, 71, 88
2, 44039, Note_off_c, 0, 71, 0
2, 44040, Note_on_c, 0, 70, 88
2, 44099, Note_off_c, 0, 70, 0
2, 44100, Note_on_c, 0, 68, 88
2, 44159, Note_off_c, 0, 68, 0
2, 44160, Note_on_c, 0, 70, 88
2, 44519, Note_off_c, 0, 70, 0
2, 44520, Note_on_c, 0, 67, 88
2, 44639, Note_off_c, 0, 67, 0
2, 44640, Note_on_c, 0, 59, 88
2, 45119, Note_off_c, 0, 59, 0
2, 45120, Note_on_c, 0, 59, 88
2, 45599, Note_off_c, 0, 59, 0
2, 45600, Note_on_c, 0, 59, 88
2, 46079, Note_off_c, 0, 59, 0
2, 46080, Note_on_c, 0, 59, 88
2, 46559, Note_off_c, 0, 59, 0
2, 46560, Note_on_c, 0, 59, 88
2, 47039, Note_off_c, 0, 59, 0
2, 47040, Note_on_c, 0, 59, 88
2, 47519, Note_off_c, 0, 59, 0
2, 47520, Note_on_c, 0, 62, 88
2, 47999, Note_off_c, 0, 62, 0
2, 48000, Note_on_c, 0, 62, 88
2, 48479, Note_off_c, 0, 62, 0
2, 48480, Note_on_c, 0, 62, 88
2, 48959, Note_off_c, 0, 62, 0
2, 48960, Note_on_c, 0, 71, 88
2, 49499, Note_off_c, 0, 71, 0
2, 49500, Note_on_c, 0, 70, 88
2, 49559, Note_off_c, 0, 70, 0
2, 49560, Note_on_c, 0, 68, 88
2, 49619, Note_off_c, 0, 68, 0
2, 49620, Note_on_c, 0, 66, 88
2, 49679, Note_off_c, 0, 66, 0
2, 49680, Note_on_c, 0, 65, 88
2, 49739, Note_off_c, 0, 65, 0
2, 49740, Note_on_c, 0, 63, 88
2, 49799, Note_off_c, 0, 63, 0
2, 49800, Note_on_c, 0, 62, 88
2, 49859, Note_off_c, 0, 62, 0
2, 49860, Note_on_c, 0, 65, 88
2, 49919, Note_off_c, 0, 65, 0
2, 49920, Note_on_c, 0, 68, 88
2, 49979, Note_off_c, 0, 68, 0
2, 49980, Note_on_c, 0, 71, 88
2, 50039, Note_off_c, 0, 71, 0
2, 50040, Note_on_c, 0, 74, 88
2, 50099, Note_off_c, 0, 74, 0
2, 50100, Note_on_c, 0, 77, 88
2, 50159, Note_off_c, 0, 77, 0
2, 50160, Note_on_c, 0, 80, 88
2, 50219, Note_off_c, 0, 80, 0
2, 50220, Note_on_c, 0, 83, 88
2, 50279, Note_off_c, 0, 83, 0
2, 50280, Note_on_c, 0, 82, 88
2, 50339, Note_off_c, 0, 82, 0
2, 50340, Note_on_c, 0, 74, 88
2, 50399, Note_off_c, 0, 74, 0
2, 50400, Note_on_c, 0, 75, 88
2, 50759, Note_off_c, 0, 75, 0
2, 50760, Note_on_c, 0, 70, 88
2, 50879, Note_off_c, 0, 70, 0
2, 50880, Note_on_c, 0, 68, 88
2, 51119, Note_off_c, 0, 68, 0
2, 51120, Note_on_c, 0, 66, 88
2, 51359, Note_off_c, 0, 66, 0
2, 51360, Note_on_c, 0, 66, 88
2, 51374, Note_off_c, 0, 66, 0
2, 51375, Note_on_c, 0, 65, 88
2, 51397, Note_off_c, 0, 65, 0
2, 51398, Note_on_c, 0, 66, 88
2, 51419, Note_off_c, 0, 66, 0
2, 51420, Note_on_c, 0, 65, 88
2, 51479, Note_off_c, 0, 65, 0
2, 51480, Note_on_c, 0, 63, 88
2, 51599, Note_off_c, 0, 63, 0
2, 51600, Note_on_c, 0, 65, 88
2, 51839, Note_off_c, 0, 65, 0
2, 51840, Note_on_c, 0, 63, 88
2, 52619, Note_off_c, 0, 63, 0
2, 52620, Note_on_c, 0, 65, 88
2, 52679, Note_off_c, 0, 65, 0
2, 52680, Note_on_c, 0, 67, 88
2, 52739, Note_off_c, 0, 67, 0
2, 52740, Note_on_c, 0, 68, 88
2, 52799, Note_off_c, 0, 68, 0
2, 52800, Note_on_c, 0, 70, 88
2, 53099, Note_off_c, 0, 70, 0
2, 53100, Note_on_c, 0, 64, 88
2, 53159, Note_off_c, 0, 64, 0
2, 53160, Note_on_c, 0, 63, 88
2, 53219, Note_off_c, 0, 63, 0
2, 53220, Note_on_c, 0, 61, 88
2, 53279, Note_off_c, 0, 61, 0
2, 53280, Note_on_c, 0, 59, 88
2, 53939, Note_off_c, 0, 59, 0
2, 53940, Note_on_c, 0, 63, 88
2, 53999, Note_off_c, 0, 63, 0
2, 54000, Note_on_c, 0, 65, 88
2, 54059, Note_off_c, 0, 65, 0
2, 54060, Note_on_c, 0, 67, 88
2, 54119, Note_off_c, 0, 67, 0
2, 54120, Note_on_c, 0, 68, 88
2, 54179, Note_off_c, 0, 68, 0
2, 54180, Note_on_c, 0, 70, 88
2, 54239, Note_off_c, 0, 70, 0
2, 54240, Note_on_c, 0, 71, 88
2, 54389, Note_off_c, 0, 71, 0
2, 54390, Note_on_c, 0, 70, 88
2, 54419, Note_off_c, 0, 70, 0
2, 54420, Note_on_c, 0, 68, 88
2, 54449, Note_off_c, 0, 68, 0
2, 54450, Note_on_c, 0, 66, 88
2, 54479, Note_off_c, 0, 66, 0
2, 54480, Note_on_c, 0, 65, 88
2, 54539, Note_off_c, 0, 65, 0
2, 54540, Note_on_c, 0, 66, 88
2, 54599, Note_off_c, 0, 66, 0
2, 54600, Note_on_c, 0, 68, 88
2, 54659, Note_off_c, 0, 68, 0
2, 54660, Note_on_c, 0, 65, 88
2, 54719, Note_off_c, 0, 65, 0
2, 54720, Note_on_c, 0, 62, 88
2, 56039, Note_off_c, 0, 62, 0
2, 56040, Note_on_c, 0, 62, 88
2, 56159, Note_off_c, 0, 62, 0
2, 56160, Note_on_c, 0, 63, 88
2, 56200, Note_off_c, 0, 63, 0
2, 56200, End_track
0, 0, End_of_file