0, 0, Header, 1, 2, 240
1, 0, Start_track
1, 0, Time_signature, 4, 2, 24, 8
1, 0, Tempo, 1071428
1, 0, SMPTE_offset, 64, 0, 0, 0, 100
1, 0, End_track
2, 0, Start_track
2, 0, Title_t, "Track 1"
2, 0, Program_c, 0, 6
2, 0, Note_on_c, 0, 76, 88
2, 599, Note_off_c, 0, 76, 0
2, 600, Note_on_c, 0, 78, 88
2, 629, Note_off_c, 0, 78, 0
2, 630, Note_on_c, 0, 76, 88
2, 659, Note_off_c, 0, 76, 0
2, 660, Note_on_c, 0, 75, 88
2, 689, Note_off_c, 0, 75, 0
2, 690, Note_on_c, 0, 76, 88
2, 719, Note_off_c, 0, 76, 0
2, 720, Note_on_c, 0, 78, 88
2, 749, Note_off_c, 0, 78, 0
2, 750, Note_on_c, 0, 76, 88
2, 772, Note_off_c, 0, 76, 0
2, 773, Note_on_c, 0, 78, 88
2, 794, Note_off_c, 0, 78, 0
2, 795, Note_on_c, 0, 76, 88
2, 813, Note_off_c, 0, 76, 0
2, 814, Note_on_c, 0, 78, 88
2, 832, Note_off_c, 0, 78, 0
2, 833, Note_on_c, 0, 76, 88
2, 850, Note_off_c, 0, 76, 0
2, 851, Note_on_c, 0, 78, 88
2, 869, Note_off_c, 0, 78, 0
2, 870, Note_on_c, 0, 76, 88
2, 899, Note_off_c, 0, 76, 0
2, 900, Note_on_c, 0, 75, 88
2, 929, Note_off_c, 0, 75, 0
2, 930, Note_on_c, 0, 76, 88
2, 959, Note_off_c, 0, 76, 0
2, 960, Note_on_c, 0, 78, 88
2, 1979, Note_off_c, 0, 78, 0
2, 1980, Note_on_c, 0, 76, 88
2, 2039, Note_off_c, 0, 76, 0
2, 2040, Note_on_c, 0, 75, 88
2, 2099, Note_off_c, 0, 75, 0
2, 2100, Note_on_c, 0, 76, 88
2, 2159, Note_off_c, 0, 76, 0
2, 2160, Note_on_c, 0, 78, 88
2, 2219, Note_off_c, 0, 78, 0
2, 2220, Note_on_c, 0, 76, 88
2, 2279, Note_off_c, 0, 76, 0
2, 2280, Note_on_c, 0, 79, 88
2, 2339, Note_off_c, 0, 79, 0
2, 2340, Note_on_c, 0, 78, 88
2, 2399, Note_off_c, 0, 78, 0
2, 2400, Note_on_c, 0, 81, 88
2, 2669, Note_off_c, 0, 81, 0
2, 2670, Note_on_c, 0, 84, 88
2, 2699, Note_off_c, 0, 84, 0
2, 2700, Note_on_c, 0, 83, 88
2, 2729, Note_off_c, 0, 83, 0
2, 2730, Note_on_c, 0, 81, 88
2, 2759, Note_off_c, 0, 81, 0
2, 2760, Note_on_c, 0, 79, 88
2, 2819, Note_off_c, 0, 79, 0
2, 2820, Note_on_c, 0, 81, 88
2, 2849, Note_off_c, 0, 81, 0
2, 2850, Note_on_c, 0, 78, 88
2, 2879, Note_off_c, 0, 78, 0
2, 2880, Note_on_c, 0, 79, 88
2, 3479, Note_off_c, 0, 79, 0
2, 3480, Note_on_c, 0, 84, 88
2, 3539, Note_off_c, 0, 84, 0
2, 3540, Note_on_c, 0, 83, 88
2, 3599, Note_off_c, 0, 83, 0
2, 3600, Note_on_c, 0, 84, 88
2, 3719, Note_off_c, 0, 84, 0
2, 3720, Note_on_c, 0, 76, 88
2, 3839, Note_off_c, 0, 76, 0
2, 3840, Note_on_c, 0, 78, 88
2, 4439, Note_off_c, 0, 78, 0
2, 4440, Note_on_c, 0, 83, 88
2, 4589, Note_off_c, 0, 83, 0
2, 4590, Note_on_c, 0, 84, 88
2, 4619, Note_off_c, 0, 84, 0
2, 4620, Note_on_c, 0, 83, 88
2, 4649, Note_off_c, 0, 83, 0
2, 4650, Note_on_c, 0, 81, 88
2, 4679, Note_off_c, 0, 81, 0
2, 4680, Note_on_c, 0, 83, 88
2, 4709, Note_off_c, 0, 83, 0
2, 4710, Note_on_c, 0, 79, 88
2, 4739, Note_off_c, 0, 79, 0
2, 4740, Note_on_c, 0, 81, 88
2, 4769, Note_off_c, 0, 81, 0
2, 4770, Note_on_c, 0, 83, 88
2, 4799, Note_off_c, 0, 83, 0
2, 4800, Note_on_c, 0, 76, 88
2, 5339, Note_off_c, 0, 76, 0
2, 5340, Note_on_c, 0, 72, 88
2, 5399, Note_off_c, 0, 72, 0
2, 5400, Note_on_c, 0, 69, 88
2, 5459, Note_off_c, 0, 69, 0
2, 5460, Note_on_c, 0, 71, 88
2, 5519, Note_off_c, 0, 71, 0
2, 5520, Note_on_c, 0, 72, 88
2, 5579, Note_off_c, 0, 72, 0
2, 5580, Note_on_c, 0, 76, 88
2, 5639, Note_off_c, 0, 76, 0
2, 5640, Note_on_c, 0, 74, 88
2, 5699, Note_off_c, 0, 74, 0
2, 5700, Note_on_c, 0, 76, 88
2, 5729, Note_off_c, 0, 76, 0
2, 5730, Note_on_c, 0, 72, 88
2, 5759, Note_off_c, 0, 72, 0
2, 5760, Note_on_c, 0, 74, 88
2, 6359, Note_off_c, 0, 74, 0
2, 6360, Note_on_c, 0, 79, 88
2, 6509, Note_off_c, 0, 79, 0
2, 6510, Note_on_c, 0, 77, 88
2, 6539, Note_off_c, 0, 77, 0
2, 6540, Note_on_c, 0, 76, 88
2, 6569, Note_off_c, 0, 76, 0
2, 6570, Note_on_c, 0, 74, 88
2, 6599, Note_off_c, 0, 74, 0
2, 6600, Note_on_c, 0, 72, 88
2, 6659, Note_off_c, 0, 72, 0
2, 6660, Note_on_c, 0, 74, 88
2, 6689, Note_off_c, 0, 74, 0
2, 6690, Note_on_c, 0, 71, 88
2, 6719, Note_off_c, 0, 71, 0
2, 6720, Note_on_c, 0, 72, 88
2, 7259, Note_off_c, 0, 72, 0
2, 7260, Note_on_c, 0, 74, 88
2, 7319, Note_off_c, 0, 74, 0
2, 7320, Note_on_c, 0, 76, 88
2, 7379, Note_off_c, 0, 76, 0
2, 7380, Note_on_c, 0, 78, 88
2, 7439, Note_off_c, 0, 78, 0
2, 7440, Note_on_c, 0, 79, 88
2, 7499, Note_off_c, 0, 79, 0
2, 7500, Note_on_c, 0, 78, 88
2, 7559, Note_off_c, 0, 78, 0
2, 7560, Note_on_c, 0, 81, 88
2, 7619, Note_off_c, 0, 81, 0
2, 7620, Note_on_c, 0, 72, 88
2, 7679, Note_off_c, 0, 72, 0
2, 7680, Note_on_c, 0, 72, 88
2, 7799, Note_off_c, 0, 72, 0
2, 7800, Note_on_c, 0, 71, 88
2, 8279, Note_off_c, 0, 71, 0
2, 8280, Note_on_c, 0, 71, 88
2, 8399, Note_off_c, 0, 71, 0
2, 8400, Note_on_c, 0, 69, 88
2, 8429, Note_off_c, 0, 69, 0
2, 8430, Note_on_c, 0, 67, 88
2, 8459, Note_off_c, 0, 67, 0
2, 8460, Note_on_c, 0, 66, 88
2, 8519, Note_off_c, 0, 66, 0
2, 8520, Note_on_c, 0, 67, 88
2, 8549, Note_off_c, 0, 67, 0
2, 8550, Note_on_c, 0, 66, 88
2, 8579, Note_off_c, 0, 66, 0
2, 8580, Note_on_c, 0, 64, 88
2, 8639, Note_off_c, 0, 64, 0
2, 8640, Note_on_c, 0, 76, 88
2, 8789, Note_off_c, 0, 76, 0
2, 8790, Note_on_c, 0, 78, 88
2, 8819, Note_off_c, 0, 78, 0
2, 8820, Note_on_c, 0, 76, 88
2, 8849, Note_off_c, 0, 76, 0
2, 8850, Note_on_c, 0, 75, 88
2, 8879, Note_off_c, 0, 75, 0
2, 8880, Note_on_c, 0, 76, 88
2, 9059, Note_off_c, 0, 76, 0
2, 9060, Note_on_c, 0, 78, 88
2, 9119, Note_off_c, 0, 78, 0
2, 9120, Note_on_c, 0, 79, 88
2, 9142, Note_off_c, 0, 79, 0
2, 9143, Note_on_c, 0, 78, 88
2, 9164, Note_off_c, 0, 78, 0
2, 9165, Note_on_c, 0, 79, 88
2, 9187, Note_off_c, 0, 79, 0
2, 9188, Note_on_c, 0, 78, 88
2, 9209, Note_off_c, 0, 78, 0
2, 9210, Note_on_c, 0, 79, 88
2, 9232, Note_off_c, 0, 79, 0
2, 9233, Note_on_c, 0, 78, 88
2, 9254, Note_off_c, 0, 78, 0
2, 9255, Note_on_c, 0, 79, 88
2, 9277, Note_off_c, 0, 79, 0
2, 9278, Note_on_c, 0, 78, 88
2, 9299, Note_off_c, 0, 78, 0
2, 9300, Note_on_c, 0, 79, 88
2, 9322, Note_off_c, 0, 79, 0
2, 9323, Note_on_c, 0, 78, 88
2, 9340, Note_off_c, 0, 78, 0
2, 9341, Note_on_c, 0, 79, 88
2, 9359, Note_off_c, 0, 79, 0
2, 9360, Note_on_c, 0, 78, 88
2, 9539, Note_off_c, 0, 78, 0
2, 9540, Note_on_c, 0, 76, 88
2, 9569, Note_off_c, 0, 76, 0
2, 9570, Note_on_c, 0, 78, 88
2, 9599, Note_off_c, 0, 78, 0
2, 9600, Note_on_c, 0, 79, 88
2, 10139, Note_off_c, 0, 79, 0
2, 10140, Note_on_c, 0, 71, 88
2, 10199, Note_off_c, 0, 71, 0
2, 10200, Note_on_c, 0, 69, 88
2, 10259, Note_off_c, 0, 69, 0
2, 10260, Note_on_c, 0, 67, 88
2, 10379, Note_off_c, 0, 67, 0
2, 10380, Note_on_c, 0, 66, 88
2, 10409, Note_off_c, 0, 66, 0
2, 10410, Note_on_c, 0, 64, 88
2, 10439, Note_off_c, 0, 64, 0
2, 10440, Note_on_c, 0, 63, 88
2, 10499, Note_off_c, 0, 63, 0
2, 10500, Note_on_c, 0, 64, 88
2, 10559, Note_off_c, 0, 64, 0
2, 10560, Note_on_c, 0, 72, 88
2, 10709, Note_off_c, 0, 72, 0
2, 10710, Note_on_c, 0, 71, 88
2, 10739, Note_off_c, 0, 71, 0
2, 10740, Note_on_c, 0, 69, 88
2, 10769, Note_off_c, 0, 69, 0
2, 10770, Note_on_c, 0, 71, 88
2, 10799, Note_off_c, 0, 71, 0
2, 10800, Note_on_c, 0, 72, 88
2, 10829, Note_off_c, 0, 72, 0
2, 10830, Note_on_c, 0, 74, 88
2, 10859, Note_off_c, 0, 74, 0
2, 10860, Note_on_c, 0, 72, 88
2, 10889, Note_off_c, 0, 72, 0
2, 10890, Note_on_c, 0, 71, 88
2, 10919, Note_off_c, 0, 71, 0
2, 10920, Note_on_c, 0, 72, 88
2, 10979, Note_off_c, 0, 72, 0
2, 10980, Note_on_c, 0, 74, 88
2, 11039, Note_off_c, 0, 74, 0
2, 11040, Note_on_c, 0, 76, 88
2, 11062, Note_off_c, 0, 76, 0
2, 11063, Note_on_c, 0, 74, 88
2, 11084, Note_off_c, 0, 74, 0
2, 11085, Note_on_c, 0, 76, 88
2, 11107, Note_off_c, 0, 76, 0
2, 11108, Note_on_c, 0, 74, 88
2, 11129, Note_off_c, 0, 74, 0
2, 11130, Note_on_c, 0, 76, 88
2, 11152, Note_off_c, 0, 76, 0
2, 11153, Note_on_c, 0, 74, 88
2, 11174, Note_off_c, 0, 74, 0
2, 11175, Note_on_c, 0, 76, 88
2, 11197, Note_off_c, 0, 76, 0
2, 11198, Note_on_c, 0, 74, 88
2, 11219, Note_off_c, 0, 74, 0
2, 11220, Note_on_c, 0, 76, 88
2, 11242, Note_off_c, 0, 76, 0
2, 11243, Note_on_c, 0, 74, 88
2, 11260, Note_off_c, 0, 74, 0
2, 11261, Note_on_c, 0, 76, 88
2, 11279, Note_off_c, 0, 76, 0
2, 11280, Note_on_c, 0, 74, 88
2, 11459, Note_off_c, 0, 74, 0
2, 11460, Note_on_c, 0, 72, 88
2, 11489, Note_off_c, 0, 72, 0
2, 11490, Note_on_c, 0, 74, 88
2, 11519, Note_off_c, 0, 74, 0
2, 11520, Note_on_c, 0, 76, 88
2, 12119, Note_off_c, 0, 76, 0
2, 12120, Note_on_c, 0, 74, 88
2, 12179, Note_off_c, 0, 74, 0
2, 12180, Note_on_c, 0, 72, 88
2, 12239, Note_off_c, 0, 72, 0
2, 12240, Note_on_c, 0, 74, 88
2, 12299, Note_off_c, 0, 74, 0
2, 12300, Note_on_c, 0, 71, 88
2, 12359, Note_off_c, 0, 71, 0
2, 12360, Note_on_c, 0, 68, 88
2, 12419, Note_off_c, 0, 68, 0
2, 12420, Note_on_c, 0, 69, 88
2, 12479, Note_off_c, 0, 69, 0
2, 12480, Note_on_c, 0, 74, 88
2, 13019, Note_off_c, 0, 74, 0
2, 13020, Note_on_c, 0, 77, 88
2, 13079, Note_off_c, 0, 77, 0
2, 13080, Note_on_c, 0, 76, 88
2, 13139, Note_off_c, 0, 76, 0
2, 13140, Note_on_c, 0, 74, 88
2, 13199, Note_off_c, 0, 74, 0
2, 13200, Note_on_c, 0, 74, 88
2, 13218, Note_off_c, 0, 74, 0
2, 13219, Note_on_c, 0, 72, 88
2, 13237, Note_off_c, 0, 72, 0
2, 13238, Note_on_c, 0, 74, 88
2, 13255, Note_off_c, 0, 74, 0
2, 13256, Note_on_c, 0, 72, 88
2, 13274, Note_off_c, 0, 72, 0
2, 13275, Note_on_c, 0, 74, 88
2, 13289, Note_off_c, 0, 74, 0
2, 13290, Note_on_c, 0, 72, 88
2, 13379, Note_off_c, 0, 72, 0
2, 13380, Note_on_c, 0, 74, 88
2, 13409, Note_off_c, 0, 74, 0
2, 13410, Note_on_c, 0, 71, 88
2, 13439, Note_off_c, 0, 71, 0
2, 13440, Note_on_c, 0, 72, 88
2, 14699, Note_off_c, 0, 72, 0
2, 14700, Note_on_c, 0, 69, 88
2, 14759, Note_off_c, 0, 69, 0
2, 14760, Note_on_c, 0, 68, 88
2, 14819, Note_off_c, 0, 68, 0
2, 14820, Note_on_c, 0, 69, 88
2, 14879, Note_off_c, 0, 69, 0
2, 14880, Note_on_c, 0, 72, 88
2, 14939, Note_off_c, 0, 72, 0
2, 14940, Note_on_c, 0, 69, 88
2, 14999, Note_off_c, 0, 69, 0
2, 15000, Note_on_c, 0, 68, 88
2, 15059, Note_off_c, 0, 68, 0
2, 15060, Note_on_c, 0, 69, 88
2, 15119, Note_off_c, 0, 69, 0
2, 15120, Note_on_c, 0, 64, 88
2, 15179, Note_off_c, 0, 64, 0
2, 15180, Note_on_c, 0, 69, 88
2, 15239, Note_off_c, 0, 69, 0
2, 15240, Note_on_c, 0, 68, 88
2, 15299, Note_off_c, 0, 68, 0
2, 15300, Note_on_c, 0, 69, 88
2, 15359, Note_off_c, 0, 69, 0
2, 15360, Note_on_c, 0, 72, 88
2, 15959, Note_off_c, 0, 72, 0
2, 15960, Note_on_c, 0, 71, 88
2, 16079, Note_off_c, 0, 71, 0
2, 16080, Note_on_c, 0, 73, 88
2, 16199, Note_off_c, 0, 73, 0
2, 16200, Note_on_c, 0, 76, 88
2, 16259, Note_off_c, 0, 76, 0
2, 16260, Note_on_c, 0, 75, 88
2, 16319, Note_off_c, 0, 75, 0
2, 16320, Note_on_c, 0, 76, 88
2, 17399, Note_off_c, 0, 76, 0
2, 17400, Note_on_c, 0, 75, 88
2, 17459, Note_off_c, 0, 75, 0
2, 17460, Note_on_c, 0, 78, 88
2, 17519, Note_off_c, 0, 78, 0
2, 17520, Note_on_c, 0, 81, 88
2, 17579, Note_off_c, 0, 81, 0
2, 17580, Note_on_c, 0, 84, 88
2, 17639, Note_off_c, 0, 84, 0
2, 17640, Note_on_c, 0, 83, 88
2, 17699, Note_off_c, 0, 83, 0
2, 17700, Note_on_c, 0, 75, 88
2, 17759, Note_off_c, 0, 75, 0
2, 17760, Note_on_c, 0, 76, 88
2, 18509, Note_off_c, 0, 76, 0
2, 18510, Note_on_c, 0, 78, 88
2, 18539, Note_off_c, 0, 78, 0
2, 18540, Note_on_c, 0, 76, 88
2, 18569, Note_off_c, 0, 76, 0
2, 18570, Note_on_c, 0, 75, 88
2, 18599, Note_off_c, 0, 75, 0
2, 18600, Note_on_c, 0, 76, 88
2, 18629, Note_off_c, 0, 76, 0
2, 18630, Note_on_c, 0, 73, 88
2, 18659, Note_off_c, 0, 73, 0
2, 18660, Note_on_c, 0, 75, 88
2, 18719, Note_off_c, 0, 75, 0
2, 18720, Note_on_c, 0, 76, 88
2, 18753, Note_off_c, 0, 76, 0
2, 18754, Note_on_c, 0, 75, 88
2, 18775, Note_off_c, 0, 75, 0
2, 18776, Note_on_c, 0, 76, 88
2, 18798, Note_off_c, 0, 76, 0
2, 18799, Note_on_c, 0, 75, 88
2, 18820, Note_off_c, 0, 75, 0
2, 18821, Note_on_c, 0, 76, 88
2, 18843, Note_off_c, 0, 76, 0
2, 18844, Note_on_c, 0, 75, 88
2, 18865, Note_off_c, 0, 75, 0
2, 18866, Note_on_c, 0, 76, 88
2, 18884, Note_off_c, 0, 76, 0
2, 18885, Note_on_c, 0, 75, 88
2, 18903, Note_off_c, 0, 75, 0
2, 18904, Note_on_c, 0, 76, 88
2, 18922, Note_off_c, 0, 76, 0
2, 18923, Note_on_c, 0, 75, 88
2, 18940, Note_off_c, 0, 75, 0
2, 18941, Note_on_c, 0, 76, 88
2, 18959, Note_off_c, 0, 76, 0
2, 18960, Note_on_c, 0, 75, 88
2, 19079, Note_off_c, 0, 75, 0
2, 19080, Note_on_c, 0, 76, 88
2, 19199, Note_off_c, 0, 76, 0
2, 19200, Note_on_c, 0, 76, 88
2, 21179, Note_off_c, 0, 76, 0
2, 21180, Note_on_c, 0, 81, 88
2, 21239, Note_off_c, 0, 81, 0
2, 21240, Note_on_c, 0, 83, 88
2, 21299, Note_off_c, 0, 83, 0
2, 21300, Note_on_c, 0, 84, 88
2, 21359, Note_off_c, 0, 84, 0
2, 21360, Note_on_c, 0, 83, 88
2, 21419, Note_off_c, 0, 83, 0
2, 21420, Note_on_c, 0, 84, 88
2, 21479, Note_off_c, 0, 84, 0
2, 21480, Note_on_c, 0, 83, 88
2, 21539, Note_off_c, 0, 83, 0
2, 21540, Note_on_c, 0, 81, 88
2, 21599, Note_off_c, 0, 81, 0
2, 21600, Note_on_c, 0, 76, 88
2, 21659, Note_off_c, 0, 76, 0
2, 21660, Note_on_c, 0, 81, 88
2, 21719, Note_off_c, 0, 81, 0
2, 21720, Note_on_c, 0, 83, 88
2, 21779, Note_off_c, 0, 83, 0
2, 21780, Note_on_c, 0, 84, 88
2, 21839, Note_off_c, 0, 84, 0
2, 21840, Note_on_c, 0, 83, 88
2, 21899, Note_off_c, 0, 83, 0
2, 21900, Note_on_c, 0, 84, 88
2, 21959, Note_off_c, 0, 84, 0
2, 21960, Note_on_c, 0, 83, 88
2, 22019, Note_off_c, 0, 83, 0
2, 22020, Note_on_c, 0, 81, 88
2, 22079, Note_off_c, 0, 81, 0
2, 22080, Note_on_c, 0, 83, 88
2, 22139, Note_off_c, 0, 83, 0
2, 22140, Note_on_c, 0, 81, 88
2, 22199, Note_off_c, 0, 81, 0
2, 22200, Note_on_c, 0, 80, 88
2, 22259, Note_off_c, 0, 80, 0
2, 22260, Note_on_c, 0, 81, 88
2, 22319, Note_off_c, 0, 81, 0
2, 22320, Note_on_c, 0, 83, 88
2, 22379, Note_off_c, 0, 83, 0
2, 22380, Note_on_c, 0, 81, 88
2, 22439, Note_off_c, 0, 81, 0
2, 22440, Note_on_c, 0, 80, 88
2, 22499, Note_off_c, 0, 80, 0
2, 22500, Note_on_c, 0, 81, 88
2, 22559, Note_off_c, 0, 81, 0
2, 22560, Note_on_c, 0, 74, 88
2, 22679, Note_off_c, 0, 74, 0
2, 22680, Note_on_c, 0, 83, 88
2, 22859, Note_off_c, 0, 83, 0
2, 22860, Note_on_c, 0, 81, 88
2, 22919, Note_off_c, 0, 81, 0
2, 22920, Note_on_c, 0, 80, 88
2, 22979, Note_off_c, 0, 80, 0
2, 22980, Note_on_c, 0, 81, 88
2, 23039, Note_off_c, 0, 81, 0
2, 23040, Note_on_c, 0, 77, 88
2, 23099, Note_off_c, 0, 77, 0
2, 23100, Note_on_c, 0, 71, 88
2, 23159, Note_off_c, 0, 71, 0
2, 23160, Note_on_c, 0, 72, 88
2, 23219, Note_off_c, 0, 72, 0
2, 23220, Note_on_c, 0, 74, 88
2, 23279, Note_off_c, 0, 74, 0
2, 23280, Note_on_c, 0, 72, 88
2, 23339, Note_off_c, 0, 72, 0
2, 23340, Note_on_c, 0, 74, 88
2, 23399, Note_off_c, 0, 74, 0
2, 23400, Note_on_c, 0, 72, 88
2, 23459, Note_off_c, 0, 72, 0
2, 23460, Note_on_c, 0, 71, 88
2, 23519, Note_off_c, 0, 71, 0
2, 23520, Note_on_c, 0, 76, 88
2, 23579, Note_off_c, 0, 76, 0
2, 23580, Note_on_c, 0, 74, 88
2, 23639, Note_off_c, 0, 74, 0
2, 23640, Note_on_c, 0, 76, 88
2, 23699, Note_off_c, 0, 76, 0
2, 23700, Note_on_c, 0, 77, 88
2, 23759, Note_off_c, 0, 77, 0
2, 23760, Note_on_c, 0, 76, 88
2, 23819, Note_off_c, 0, 76, 0
2, 23820, Note_on_c, 0, 77, 88
2, 23879, Note_off_c, 0, 77, 0
2, 23880, Note_on_c, 0, 76, 88
2, 23939, Note_off_c, 0, 76, 0
2, 23940, Note_on_c, 0, 74, 88
2, 23999, Note_off_c, 0, 74, 0
2, 24000, Note_on_c, 0, 72, 88
2, 24059, Note_off_c, 0, 72, 0
2, 24060, Note_on_c, 0, 68, 88
2, 24119, Note_off_c, 0, 68, 0
2, 24120, Note_on_c, 0, 69, 88
2, 24179, Note_off_c, 0, 69, 0
2, 24180, Note_on_c, 0, 71, 88
2, 24239, Note_off_c, 0, 71, 0
2, 24240, Note_on_c, 0, 69, 88
2, 24299, Note_off_c, 0, 69, 0
2, 24300, Note_on_c, 0, 68, 88
2, 24359, Note_off_c, 0, 68, 0
2, 24360, Note_on_c, 0, 69, 88
2, 24419, Note_off_c, 0, 69, 0
2, 24420, Note_on_c, 0, 71, 88
2, 24479, Note_off_c, 0, 71, 0
2, 24480, Note_on_c, 0, 72, 88
2, 24539, Note_off_c, 0, 72, 0
2, 24540, Note_on_c, 0, 81, 88
2, 24599, Note_off_c, 0, 81, 0
2, 24600, Note_on_c, 0, 79, 88
2, 24659, Note_off_c, 0, 79, 0
2, 24660, Note_on_c, 0, 77, 88
2, 24719, Note_off_c, 0, 77, 0
2, 24720, Note_on_c, 0, 76, 88
2, 24779, Note_off_c, 0, 76, 0
2, 24780, Note_on_c, 0, 77, 88
2, 24839, Note_off_c, 0, 77, 0
2, 24840, Note_on_c, 0, 76, 88
2, 24899, Note_off_c, 0, 76, 0
2, 24900, Note_on_c, 0, 74, 88
2, 24959, Note_off_c, 0, 74, 0
2, 24960, Note_on_c, 0, 73, 88
2, 25019, Note_off_c, 0, 73, 0
2, 25020, Note_on_c, 0, 76, 88
2, 25079, Note_off_c, 0, 76, 0
2, 25080, Note_on_c, 0, 78, 88
2, 25139, Note_off_c, 0, 78, 0
2, 25140, Note_on_c, 0, 79, 88
2, 25199, Note_off_c, 0, 79, 0
2, 25200, Note_on_c, 0, 78, 88
2, 25259, Note_off_c, 0, 78, 0
2, 25260, Note_on_c, 0, 79, 88
2, 25319, Note_off_c, 0, 79, 0
2, 25320, Note_on_c, 0, 78, 88
2, 25379, Note_off_c, 0, 78, 0
2, 25380, Note_on_c, 0, 76, 88
2, 25439, Note_off_c, 0, 76, 0
2, 25440, Note_on_c, 0, 75, 88
2, 25499, Note_off_c, 0, 75, 0
2, 25500, Note_on_c, 0, 78, 88
2, 25559, Note_off_c, 0, 78, 0
2, 25560, Note_on_c, 0, 79, 88
2, 25619, Note_off_c, 0, 79, 0
2, 25620, Note_on_c, 0, 81, 88
2, 25679, Note_off_c, 0, 81, 0
2, 25680, Note_on_c, 0, 79, 88
2, 25739, Note_off_c, 0, 79, 0
2, 25740, Note_on_c, 0, 81, 88
2, 25799, Note_off_c, 0, 81, 0
2, 25800, Note_on_c, 0, 79, 88
2, 25859, Note_off_c, 0, 79, 0
2, 25860, Note_on_c, 0, 78, 88
2, 25919, Note_off_c, 0, 78, 0
2, 25920, Note_on_c, 0, 79, 88
2, 25979, Note_off_c, 0, 79, 0
2, 25980, Note_on_c, 0, 67, 88
2, 26039, Note_off_c, 0, 67, 0
2, 26040, Note_on_c, 0, 69, 88
2, 26099, Note_off_c, 0, 69, 0
2, 26100, Note_on_c, 0, 71, 88
2, 26159, Note_off_c, 0, 71, 0
2, 26160, Note_on_c, 0, 69, 88
2, 26219, Note_off_c, 0, 69, 0
2, 26220, Note_on_c, 0, 71, 88
2, 26279, Note_off_c, 0, 71, 0
2, 26280, Note_on_c, 0, 69, 88
2, 26339, Note_off_c, 0, 69, 0
2, 26340, Note_on_c, 0, 67, 88
2, 26399, Note_off_c, 0, 67, 0
2, 26400, Note_on_c, 0, 77, 88
2, 26459, Note_off_c, 0, 77, 0
2, 26460, Note_on_c, 0, 68, 88
2, 26519, Note_off_c, 0, 68, 0
2, 26520, Note_on_c, 0, 69, 88
2, 26579, Note_off_c, 0, 69, 0
2, 26580, Note_on_c, 0, 71, 88
2, 26639, Note_off_c, 0, 71, 0
2, 26640, Note_on_c, 0, 69, 88
2, 26699, Note_off_c, 0, 69, 0
2, 26700, Note_on_c, 0, 71, 88
2, 26759, Note_off_c, 0, 71, 0
2, 26760, Note_on_c, 0, 69, 88
2, 26819, Note_off_c, 0, 69, 0
2, 26820, Note_on_c, 0, 68, 88
2, 26879, Note_off_c, 0, 68, 0
2, 26880, Note_on_c, 0, 76, 88
2, 26939, Note_off_c, 0, 76, 0
2, 26940, Note_on_c, 0, 69, 88
2, 26999, Note_off_c, 0, 69, 0
2, 27000, Note_on_c, 0, 71, 88
2, 27059, Note_off_c, 0, 71, 0
2, 27060, Note_on_c, 0, 72, 88
2, 27119, Note_off_c, 0, 72, 0
2, 27120, Note_on_c, 0, 71, 88
2, 27179, Note_off_c, 0, 71, 0
2, 27180, Note_on_c, 0, 72, 88
2, 27239, Note_off_c, 0, 72, 0
2, 27240, Note_on_c, 0, 71, 88
2, 27299, Note_off_c, 0, 71, 0
2, 27300, Note_on_c, 0, 69, 88
2, 27359, Note_off_c, 0, 69, 0
2, 27360, Note_on_c, 0, 74, 88
2, 27419, Note_off_c, 0, 74, 0
2, 27420, Note_on_c, 0, 71, 88
2, 27479, Note_off_c, 0, 71, 0
2, 27480, Note_on_c, 0, 72, 88
2, 27539, Note_off_c, 0, 72, 0
2, 27540, Note_on_c, 0, 74, 88
2, 27599, Note_off_c, 0, 74, 0
2, 27600, Note_on_c, 0, 72, 88
2, 27659, Note_off_c, 0, 72, 0
2, 27660, Note_on_c, 0, 74, 88
2, 27719, Note_off_c, 0, 74, 0
2, 27720, Note_on_c, 0, 72, 88
2, 27779, Note_off_c, 0, 72, 0
2, 27780, Note_on_c, 0, 71, 88
2, 27839, Note_off_c, 0, 71, 0
2, 27840, Note_on_c, 0, 72, 88
2, 27899, Note_off_c, 0, 72, 0
2, 27900, Note_on_c, 0, 69, 88
2, 27959, Note_off_c, 0, 69, 0
2, 27960, Note_on_c, 0, 68, 88
2, 28019, Note_off_c, 0, 68, 0
2, 28020, Note_on_c, 0, 69, 88
2, 28079, Note_off_c, 0, 69, 0
2, 28080, Note_on_c, 0, 64, 88
2, 28139, Note_off_c, 0, 64, 0
2, 28140, Note_on_c, 0, 69, 88
2, 28199, Note_off_c, 0, 69, 0
2, 28200, Note_on_c, 0, 68, 88
2, 28259, Note_off_c, 0, 68, 0
2, 28260, Note_on_c, 0, 69, 88
2, 28319, Note_off_c, 0, 69, 0
2, 28320, Note_on_c, 0, 72, 88
2, 28859, Note_off_c, 0, 72, 0
2, 28860, Note_on_c, 0, 69, 88
2, 28919, Note_off_c, 0, 69, 0
2, 28920, Note_on_c, 0, 68, 88
2, 28979, Note_off_c, 0, 68, 0
2, 28980, Note_on_c, 0, 69, 88
2, 29039, Note_off_c, 0, 69, 0
2, 29040, Note_on_c, 0, 63, 88
2, 29099, Note_off_c, 0, 63, 0
2, 29100, Note_on_c, 0, 69, 88
2, 29159, Note_off_c, 0, 69, 0
2, 29160, Note_on_c, 0, 68, 88
2, 29219, Note_off_c, 0, 68, 0
2, 29220, Note_on_c, 0, 69, 88
2, 29279, Note_off_c, 0, 69, 0
2, 29280, Note_on_c, 0, 72, 88
2, 29339, Note_off_c, 0, 72, 0
2, 29340, Note_on_c, 0, 69, 88
2, 29399, Note_off_c, 0, 69, 0
2, 29400, Note_on_c, 0, 68, 88
2, 29459, Note_off_c, 0, 68, 0
2, 29460, Note_on_c, 0, 69, 88
2, 29519, Note_off_c, 0, 69, 0
2, 29520, Note_on_c, 0, 64, 88
2, 29579, Note_off_c, 0, 64, 0
2, 29580, Note_on_c, 0, 69, 88
2, 29639, Note_off_c, 0, 69, 0
2, 29640, Note_on_c, 0, 68, 88
2, 29699, Note_off_c, 0, 68, 0
2, 29700, Note_on_c, 0, 69, 88
2, 29759, Note_off_c, 0, 69, 0
2, 29760, Note_on_c, 0, 72, 88
2, 29819, Note_off_c, 0, 72, 0
2, 29820, Note_on_c, 0, 66, 88
2, 29879, Note_off_c, 0, 66, 0
2, 29880, Note_on_c, 0, 67, 88
2, 29939, Note_off_c, 0, 67, 0
2, 29940, Note_on_c, 0, 69, 88
2, 29999, Note_off_c, 0, 69, 0
2, 30000, Note_on_c, 0, 67, 88
2, 30059, Note_off_c, 0, 67, 0
2, 30060, Note_on_c, 0, 66, 88
2, 30119, Note_off_c, 0, 66, 0
2, 30120, Note_on_c, 0, 64, 88
2, 30179, Note_off_c, 0, 64, 0
2, 30180, Note_on_c, 0, 63, 88
2, 30239, Note_off_c, 0, 63, 0
2, 30240, Note_on_c, 0, 71, 88
2, 30299, Note_off_c, 0, 71, 0
2, 30300, Note_on_c, 0, 64, 88
2, 30359, Note_off_c, 0, 64, 0
2, 30360, Note_on_c, 0, 66, 88
2, 30419, Note_off_c, 0, 66, 0
2, 30420, Note_on_c, 0, 67, 88
2, 30479, Note_off_c, 0, 67, 0
2, 30480, Note_on_c, 0, 66, 88
2, 30539, Note_off_c, 0, 66, 0
2, 30540, Note_on_c, 0, 64, 88
2, 30599, Note_off_c, 0, 64, 0
2, 30600, Note_on_c, 0, 63, 88
2, 30659, Note_off_c, 0, 63, 0
2, 30660, Note_on_c, 0, 64, 88
2, 30719, Note_off_c, 0, 64, 0
2, 30720, Note_on_c, 0, 69, 88
2, 30779, Note_off_c, 0, 69, 0
2, 30780, Note_on_c, 0, 79, 88
2, 30839, Note_off_c, 0, 79, 0
2, 30840, Note_on_c, 0, 81, 88
2, 30899, Note_off_c, 0, 81, 0
2, 30900, Note_on_c, 0, 83, 88
2, 30959, Note_off_c, 0, 83, 0
2, 30960, Note_on_c, 0, 81, 88
2, 31019, Note_off_c, 0, 81, 0
2, 31020, Note_on_c, 0, 83, 88
2, 31079, Note_off_c, 0, 83, 0
2, 31080, Note_on_c, 0, 81, 88
2, 31139, Note_off_c, 0, 81, 0
2, 31140, Note_on_c, 0, 79, 88
2, 31199, Note_off_c, 0, 79, 0
2, 31200, Note_on_c, 0, 69, 88
2, 31259, Note_off_c, 0, 69, 0
2, 31260, Note_on_c, 0, 78, 88
2, 31319, Note_off_c, 0, 78, 0
2, 31320, Note_on_c, 0, 79, 88
2, 31379, Note_off_c, 0, 79, 0
2, 31380, Note_on_c, 0, 81, 88
2, 31439, Note_off_c, 0, 81, 0
2, 31440, Note_on_c, 0, 79, 88
2, 31499, Note_off_c, 0, 79, 0
2, 31500, Note_on_c, 0, 81, 88
2, 31559, Note_off_c, 0, 81, 0
2, 31560, Note_on_c, 0, 79, 88
2, 31619, Note_off_c, 0, 79, 0
2, 31620, Note_on_c, 0, 78, 88
2, 31679, Note_off_c, 0, 78, 0
2, 31680, Note_on_c, 0, 70, 88
2, 31739, Note_off_c, 0, 70, 0
2, 31740, Note_on_c, 0, 76, 88
2, 31799, Note_off_c, 0, 76, 0
2, 31800, Note_on_c, 0, 78, 88
2, 31859, Note_off_c, 0, 78, 0
2, 31860, Note_on_c, 0, 79, 88
2, 31919, Note_off_c, 0, 79, 0
2, 31920, Note_on_c, 0, 78, 88
2, 31979, Note_off_c, 0, 78, 0
2, 31980, Note_on_c, 0, 79, 88
2, 32039, Note_off_c, 0, 79, 0
2, 32040, Note_on_c, 0, 78, 88
2, 32099, Note_off_c, 0, 78, 0
2, 32100, Note_on_c, 0, 76, 88
2, 32159, Note_off_c, 0, 76, 0
2, 32160, Note_on_c, 0, 75, 88
2, 32699, Note_off_c, 0, 75, 0
2, 32700, Note_on_c, 0, 71, 88
2, 32759, Note_off_c, 0, 71, 0
2, 32760, Note_on_c, 0, 72, 88
2, 32819, Note_off_c, 0, 72, 0
2, 32820, Note_on_c, 0, 74, 88
2, 32879, Note_off_c, 0, 74, 0
2, 32880, Note_on_c, 0, 72, 88
2, 32939, Note_off_c, 0, 72, 0
2, 32940, Note_on_c, 0, 74, 88
2, 32999, Note_off_c, 0, 74, 0
2, 33000, Note_on_c, 0, 72, 88
2, 33059, Note_off_c, 0, 72, 0
2, 33060, Note_on_c, 0, 71, 88
2, 33119, Note_off_c, 0, 71, 0
2, 33120, Note_on_c, 0, 69, 88
2, 33659, Note_off_c, 0, 69, 0
2, 33660, Note_on_c, 0, 67, 88
2, 33719, Note_off_c, 0, 67, 0
2, 33720, Note_on_c, 0, 69, 88
2, 33779, Note_off_c, 0, 69, 0
2, 33780, Note_on_c, 0, 71, 88
2, 33839, Note_off_c, 0, 71, 0
2, 33840, Note_on_c, 0, 69, 88
2, 33899, Note_off_c, 0, 69, 0
2, 33900, Note_on_c, 0, 71, 88
2, 33959, Note_off_c, 0, 71, 0
2, 33960, Note_on_c, 0, 69, 88
2, 34019, Note_off_c, 0, 69, 0
2, 34020, Note_on_c, 0, 67, 88
2, 34139, Note_off_c, 0, 67, 0
2, 34140, Note_on_c, 0, 66, 88
2, 34199, Note_off_c, 0, 66, 0
2, 34200, Note_on_c, 0, 67, 88
2, 34259, Note_off_c, 0, 67, 0
2, 34260, Note_on_c, 0, 69, 88
2, 34319, Note_off_c, 0, 69, 0
2, 34320, Note_on_c, 0, 67, 88
2, 34379, Note_off_c, 0, 67, 0
2, 34380, Note_on_c, 0, 69, 88
2, 34439, Note_off_c, 0, 69, 0
2, 34440, Note_on_c, 0, 67, 88
2, 34499, Note_off_c, 0, 67, 0
2, 34500, Note_on_c, 0, 66, 88
2, 34619, Note_off_c, 0, 66, 0
2, 34620, Note_on_c, 0, 64, 88
2, 34679, Note_off_c, 0, 64, 0
2, 34680, Note_on_c, 0, 66, 88
2, 34739, Note_off_c, 0, 66, 0
2, 34740, Note_on_c, 0, 67, 88
2, 34799, Note_off_c, 0, 67, 0
2, 34800, Note_on_c, 0, 66, 88
2, 34859, Note_off_c, 0, 66, 0
2, 34860, Note_on_c, 0, 67, 88
2, 34919, Note_off_c, 0, 67, 0
2, 34920, Note_on_c, 0, 66, 88
2, 34979, Note_off_c, 0, 66, 0
2, 34980, Note_on_c, 0, 64, 88
2, 35039, Note_off_c, 0, 64, 0
2, 35040, Note_on_c, 0, 63, 88
2, 35519, Note_off_c, 0, 63, 0
2, 35520, Note_on_c, 0, 59, 88
2, 35579, Note_off_c, 0, 59, 0
2, 35580, Note_on_c, 0, 61, 88
2, 35639, Note_off_c, 0, 61, 0
2, 35640, Note_on_c, 0, 63, 88
2, 35699, Note_off_c, 0, 63, 0
2, 35700, Note_on_c, 0, 64, 88
2, 35759, Note_off_c, 0, 64, 0
2, 35760, Note_on_c, 0, 66, 88
2, 35819, Note_off_c, 0, 66, 0
2, 35820, Note_on_c, 0, 67, 88
2, 35879, Note_off_c, 0, 67, 0
2, 35880, Note_on_c, 0, 69, 88
2, 35939, Note_off_c, 0, 69, 0
2, 35940, Note_on_c, 0, 71, 88
2, 35999, Note_off_c, 0, 71, 0
2, 36000, Note_on_c, 0, 72, 88
2, 36479, Note_off_c, 0, 72, 0
2, 36480, Note_on_c, 0, 73, 88
2, 36959, Note_off_c, 0, 73, 0
2, 36960, Note_on_c, 0, 75, 88
2, 37439, Note_off_c, 0, 75, 0
2, 37440, Note_on_c, 0, 76, 88
2, 37499, Note_off_c, 0, 76, 0
2, 37500, Note_on_c, 0, 74, 88
2, 37559, Note_off_c, 0, 74, 0
2, 37560, Note_on_c, 0, 72, 88
2, 37619, Note_off_c, 0, 72, 0
2, 37620, Note_on_c, 0, 71, 88
2, 37679, Note_off_c, 0, 71, 0
2, 37680, Note_on_c, 0, 69, 88
2, 37739, Note_off_c, 0, 69, 0
2, 37740, Note_on_c, 0, 67, 88
2, 37799, Note_off_c, 0, 67, 0
2, 37800, Note_on_c, 0, 66, 88
2, 37859, Note_off_c, 0, 66, 0
2, 37860, Note_on_c, 0, 64, 88
2, 37919, Note_off_c, 0, 64, 0
2, 37920, Note_on_c, 0, 72, 88
2, 37979, Note_off_c, 0, 72, 0
2, 37980, Note_on_c, 0, 71, 88
2, 38039, Note_off_c, 0, 71, 0
2, 38040, Note_on_c, 0, 69, 88
2, 38099, Note_off_c, 0, 69, 0
2, 38100, Note_on_c, 0, 67, 88
2, 38159, Note_off_c, 0, 67, 0
2, 38160, Note_on_c, 0, 66, 88
2, 38219, Note_off_c, 0, 66, 0
2, 38220, Note_on_c, 0, 64, 88
2, 38279, Note_off_c, 0, 64, 0
2, 38280, Note_on_c, 0, 63, 88
2, 38339, Note_off_c, 0, 63, 0
2, 38340, Note_on_c, 0, 61, 88
2, 38399, Note_off_c, 0, 61, 0
2, 38400, Note_on_c, 0, 63, 88
2, 38459, Note_off_c, 0, 63, 0
2, 38460, Note_on_c, 0, 59, 88
2, 38519, Note_off_c, 0, 59, 0
2, 38520, Note_on_c, 0, 66, 88
2, 38699, Note_off_c, 0, 66, 0
2, 38700, Note_on_c, 0, 64, 88
2, 38819, Note_off_c, 0, 64, 0
2, 38820, Note_on_c, 0, 63, 88
2, 38879, Note_off_c, 0, 63, 0
2, 38880, Note_on_c, 0, 64, 88
2, 38920, Note_off_c, 0, 64, 0
2, 38920, End_track
0, 0, End_of_file