0, 0, Header, 1, 2, 240
1, 0, Start_track
1, 0, Time_signature, 4, 2, 24, 8
1, 0, Tempo, 857142
1, 0, SMPTE_offset, 64, 0, 0, 0, 100
1, 0, End_track
2, 0, Start_track
2, 0, Title_t, "Track 1"
2, 0, Program_c, 0, 6
2, 0, Note_on_c, 0, 67, 88
2, 39, Note_off_c, 0, 67, 0
2, 40, Note_on_c, 0, 71, 88
2, 79, Note_off_c, 0, 71, 0
2, 80, Note_on_c, 0, 74, 88
2, 119, Note_off_c, 0, 74, 0
2, 120, Note_on_c, 0, 79, 88
2, 159, Note_off_c, 0, 79, 0
2, 160, Note_on_c, 0, 74, 88
2, 199, Note_off_c, 0, 74, 0
2, 200, Note_on_c, 0, 71, 88
2, 239, Note_off_c, 0, 71, 0
2, 240, Note_on_c, 0, 74, 88
2, 279, Note_off_c, 0, 74, 0
2, 280, Note_on_c, 0, 71, 88
2, 319, Note_off_c, 0, 71, 0
2, 320, Note_on_c, 0, 67, 88
2, 359, Note_off_c, 0, 67, 0
2, 360, Note_on_c, 0, 71, 88
2, 399, Note_off_c, 0, 71, 0
2, 400, Note_on_c, 0, 67, 88
2, 439, Note_off_c, 0, 67, 0
2, 440, Note_on_c, 0, 62, 88
2, 479, Note_off_c, 0, 62, 0
2, 480, Note_on_c, 0, 64, 88
2, 519, Note_off_c, 0, 64, 0
2, 520, Note_on_c, 0, 67, 88
2, 559, Note_off_c, 0, 67, 0
2, 560, Note_on_c, 0, 72, 88
2, 599, Note_off_c, 0, 72, 0
2, 600, Note_on_c, 0, 76, 88
2, 639, Note_off_c, 0, 76, 0
2, 640, Note_on_c, 0, 72, 88
2, 679, Note_off_c, 0, 72, 0
2, 680, Note_on_c, 0, 67, 88
2, 719, Note_off_c, 0, 67, 0
2, 720, Note_on_c, 0, 72, 88
2, 759, Note_off_c, 0, 72, 0
2, 760, Note_on_c, 0, 67, 88
2, 799, Note_off_c, 0, 67, 0
2, 800, Note_on_c, 0, 64, 88
2, 839, Note_off_c, 0, 64, 0
2, 840, Note_on_c, 0, 67, 88
2, 879, Note_off_c, 0, 67, 0
2, 880, Note_on_c, 0, 64, 88
2, 919, Note_off_c, 0, 64, 0
2, 920, Note_on_c, 0, 60, 88
2, 959, Note_off_c, 0, 60, 0
2, 960, Note_on_c, 0, 57, 88
2, 999, Note_off_c, 0, 57, 0
2, 1000, Note_on_c, 0, 60, 88
2, 1039, Note_off_c, 0, 60, 0
2, 1040, Note_on_c, 0, 66, 88
2, 1079, Note_off_c, 0, 66, 0
2, 1080, Note_on_c, 0, 69, 88
2, 1119, Note_off_c, 0, 69, 0
2, 1120, Note_on_c, 0, 66, 88
2, 1159, Note_off_c, 0, 66, 0
2, 1160, Note_on_c, 0, 60, 88
2, 1199, Note_off_c, 0, 60, 0
2, 1200, Note_on_c, 0, 66, 88
2, 1239, Note_off_c, 0, 66, 0
2, 1240, Note_on_c, 0, 60, 88
2, 1279, Note_off_c, 0, 60, 0
2, 1280, Note_on_c, 0, 57, 88
2, 1319, Note_off_c, 0, 57, 0
2, 1320, Note_on_c, 0, 60, 88
2, 1359, Note_off_c, 0, 60, 0
2, 1360, Note_on_c, 0, 57, 88
2, 1399, Note_off_c, 0, 57, 0
2, 1400, Note_on_c, 0, 54, 88
2, 1439, Note_off_c, 0, 54, 0
2, 1440, Note_on_c, 0, 55, 88
2, 1479, Note_off_c, 0, 55, 0
2, 1480, Note_on_c, 0, 59, 88
2, 1519, Note_off_c, 0, 59, 0
2, 1520, Note_on_c, 0, 62, 88
2, 1559, Note_off_c, 0, 62, 0
2, 1560, Note_on_c, 0, 67, 88
2, 1599, Note_off_c, 0, 67, 0
2, 1600, Note_on_c, 0, 62, 88
2, 1639, Note_off_c, 0, 62, 0
2, 1640, Note_on_c, 0, 59, 88
2, 1679, Note_off_c, 0, 59, 0
2, 1680, Note_on_c, 0, 62, 88
2, 1719, Note_off_c, 0, 62, 0
2, 1720, Note_on_c, 0, 59, 88
2, 1759, Note_off_c, 0, 59, 0
2, 1760, Note_on_c, 0, 55, 88
2, 1799, Note_off_c, 0, 55, 0
2, 1800, Note_on_c, 0, 59, 88
2, 1839, Note_off_c, 0, 59, 0
2, 1840, Note_on_c, 0, 55, 88
2, 1879, Note_off_c, 0, 55, 0
2, 1880, Note_on_c, 0, 52, 88
2, 1919, Note_off_c, 0, 52, 0
2, 1920, Note_on_c, 0, 57, 88
2, 1959, Note_off_c, 0, 57, 0
2, 1960, Note_on_c, 0, 61, 88
2, 1999, Note_off_c, 0, 61, 0
2, 2000, Note_on_c, 0, 64, 88
2, 2039, Note_off_c, 0, 64, 0
2, 2040, Note_on_c, 0, 69, 88
2, 2079, Note_off_c, 0, 69, 0
2, 2080, Note_on_c, 0, 64, 88
2, 2119, Note_off_c, 0, 64, 0
2, 2120, Note_on_c, 0, 61, 88
2, 2159, Note_off_c, 0, 61, 0
2, 2160, Note_on_c, 0, 64, 88
2, 2199, Note_off_c, 0, 64, 0
2, 2200, Note_on_c, 0, 61, 88
2, 2239, Note_off_c, 0, 61, 0
2, 2240, Note_on_c, 0, 57, 88
2, 2279, Note_off_c, 0, 57, 0
2, 2280, Note_on_c, 0, 61, 88
2, 2319, Note_off_c, 0, 61, 0
2, 2320, Note_on_c, 0, 57, 88
2, 2359, Note_off_c, 0, 57, 0
2, 2360, Note_on_c, 0, 52, 88
2, 2399, Note_off_c, 0, 52, 0
2, 2400, Note_on_c, 0, 62, 88
2, 2759, Note_off_c, 0, 62, 0
2, 2760, Note_on_c, 0, 62, 88
2, 2879, Note_off_c, 0, 62, 0
2, 2880, Note_on_c, 0, 62, 88
2, 2919, Note_off_c, 0, 62, 0
2, 2920, Note_on_c, 0, 61, 88
2, 2959, Note_off_c, 0, 61, 0
2, 2960, Note_on_c, 0, 62, 88
2, 2999, Note_off_c, 0, 62, 0
2, 3000, Note_on_c, 0, 64, 88
2, 3039, Note_off_c, 0, 64, 0
2, 3040, Note_on_c, 0, 61, 88
2, 3079, Note_off_c, 0, 61, 0
2, 3080, Note_on_c, 0, 62, 88
2, 3119, Note_off_c, 0, 62, 0
2, 3120, Note_on_c, 0, 66, 88
2, 3159, Note_off_c, 0, 66, 0
2, 3160, Note_on_c, 0, 61, 88
2, 3199, Note_off_c, 0, 61, 0
2, 3200, Note_on_c, 0, 62, 88
2, 3239, Note_off_c, 0, 62, 0
2, 3240, Note_on_c, 0, 67, 88
2, 3279, Note_off_c, 0, 67, 0
2, 3280, Note_on_c, 0, 61, 88
2, 3319, Note_off_c, 0, 61, 0
2, 3320, Note_on_c, 0, 62, 88
2, 3359, Note_off_c, 0, 62, 0
2, 3360, Note_on_c, 0, 69, 88
2, 3399, Note_off_c, 0, 69, 0
2, 3400, Note_on_c, 0, 61, 88
2, 3439, Note_off_c, 0, 61, 0
2, 3440, Note_on_c, 0, 62, 88
2, 3479, Note_off_c, 0, 62, 0
2, 3480, Note_on_c, 0, 71, 88
2, 3519, Note_off_c, 0, 71, 0
2, 3520, Note_on_c, 0, 61, 88
2, 3559, Note_off_c, 0, 61, 0
2, 3560, Note_on_c, 0, 62, 88
2, 3599, Note_off_c, 0, 62, 0
2, 3600, Note_on_c, 0, 69, 88
2, 3639, Note_off_c, 0, 69, 0
2, 3640, Note_on_c, 0, 61, 88
2, 3679, Note_off_c, 0, 61, 0
2, 3680, Note_on_c, 0, 62, 88
2, 3719, Note_off_c, 0, 62, 0
2, 3720, Note_on_c, 0, 67, 88
2, 3759, Note_off_c, 0, 67, 0
2, 3760, Note_on_c, 0, 61, 88
2, 3799, Note_off_c, 0, 61, 0
2, 3800, Note_on_c, 0, 62, 88
2, 3839, Note_off_c, 0, 62, 0
2, 3840, Note_on_c, 0, 66, 88
2, 3959, Note_off_c, 0, 66, 0
2, 3960, Note_on_c, 0, 67, 88
2, 4079, Note_off_c, 0, 67, 0
2, 4080, Note_on_c, 0, 69, 88
2, 4199, Note_off_c, 0, 69, 0
2, 4200, Note_on_c, 0, 71, 88
2, 4319, Note_off_c, 0, 71, 0
2, 4320, Note_on_c, 0, 69, 88
2, 4439, Note_off_c, 0, 69, 0
2, 4440, Note_on_c, 0, 67, 88
2, 4559, Note_off_c, 0, 67, 0
2, 4560, Note_on_c, 0, 66, 88
2, 4679, Note_off_c, 0, 66, 0
2, 4680, Note_on_c, 0, 69, 88
2, 4799, Note_off_c, 0, 69, 0
2, 4800, Note_on_c, 0, 68, 88
2, 4839, Note_off_c, 0, 68, 0
2, 4840, Note_on_c, 0, 71, 88
2, 4879, Note_off_c, 0, 71, 0
2, 4880, Note_on_c, 0, 74, 88
2, 4919, Note_off_c, 0, 74, 0
2, 4920, Note_on_c, 0, 77, 88
2, 4959, Note_off_c, 0, 77, 0
2, 4960, Note_on_c, 0, 74, 88
2, 4999, Note_off_c, 0, 74, 0
2, 5000, Note_on_c, 0, 71, 88
2, 5039, Note_off_c, 0, 71, 0
2, 5040, Note_on_c, 0, 74, 88
2, 5079, Note_off_c, 0, 74, 0
2, 5080, Note_on_c, 0, 71, 88
2, 5119, Note_off_c, 0, 71, 0
2, 5120, Note_on_c, 0, 68, 88
2, 5159, Note_off_c, 0, 68, 0
2, 5160, Note_on_c, 0, 71, 88
2, 5199, Note_off_c, 0, 71, 0
2, 5200, Note_on_c, 0, 68, 88
2, 5239, Note_off_c, 0, 68, 0
2, 5240, Note_on_c, 0, 64, 88
2, 5279, Note_off_c, 0, 64, 0
2, 5280, Note_on_c, 0, 62, 88
2, 5319, Note_off_c, 0, 62, 0
2, 5320, Note_on_c, 0, 65, 88
2, 5359, Note_off_c, 0, 65, 0
2, 5360, Note_on_c, 0, 68, 88
2, 5399, Note_off_c, 0, 68, 0
2, 5400, Note_on_c, 0, 71, 88
2, 5439, Note_off_c, 0, 71, 0
2, 5440, Note_on_c, 0, 68, 88
2, 5479, Note_off_c, 0, 68, 0
2, 5480, Note_on_c, 0, 65, 88
2, 5519, Note_off_c, 0, 65, 0
2, 5520, Note_on_c, 0, 68, 88
2, 5559, Note_off_c, 0, 68, 0
2, 5560, Note_on_c, 0, 65, 88
2, 5599, Note_off_c, 0, 65, 0
2, 5600, Note_on_c, 0, 62, 88
2, 5639, Note_off_c, 0, 62, 0
2, 5640, Note_on_c, 0, 65, 88
2, 5679, Note_off_c, 0, 65, 0
2, 5680, Note_on_c, 0, 62, 88
2, 5719, Note_off_c, 0, 62, 0
2, 5720, Note_on_c, 0, 59, 88
2, 5759, Note_off_c, 0, 59, 0
2, 5760, Note_on_c, 0, 60, 88
2, 5879, Note_off_c, 0, 60, 0
2, 5880, Note_on_c, 0, 76, 88
2, 5999, Note_off_c, 0, 76, 0
2, 6000, Note_on_c, 0, 72, 88
2, 6119, Note_off_c, 0, 72, 0
2, 6120, Note_on_c, 0, 69, 88
2, 6239, Note_off_c, 0, 69, 0
2, 6240, Note_on_c, 0, 64, 88
2, 6359, Note_off_c, 0, 64, 0
2, 6360, Note_on_c, 0, 76, 88
2, 6479, Note_off_c, 0, 76, 0
2, 6480, Note_on_c, 0, 72, 88
2, 6599, Note_off_c, 0, 72, 0
2, 6600, Note_on_c, 0, 69, 88
2, 6719, Note_off_c, 0, 69, 0
2, 6720, Note_on_c, 0, 75, 88
2, 6759, Note_off_c, 0, 75, 0
2, 6760, Note_on_c, 0, 78, 88
2, 6799, Note_off_c, 0, 78, 0
2, 6800, Note_on_c, 0, 81, 88
2, 6839, Note_off_c, 0, 81, 0
2, 6840, Note_on_c, 0, 84, 88
2, 6879, Note_off_c, 0, 84, 0
2, 6880, Note_on_c, 0, 81, 88
2, 6919, Note_off_c, 0, 81, 0
2, 6920, Note_on_c, 0, 78, 88
2, 6959, Note_off_c, 0, 78, 0
2, 6960, Note_on_c, 0, 81, 88
2, 6999, Note_off_c, 0, 81, 0
2, 7000, Note_on_c, 0, 78, 88
2, 7039, Note_off_c, 0, 78, 0
2, 7040, Note_on_c, 0, 75, 88
2, 7079, Note_off_c, 0, 75, 0
2, 7080, Note_on_c, 0, 78, 88
2, 7119, Note_off_c, 0, 78, 0
2, 7120, Note_on_c, 0, 75, 88
2, 7159, Note_off_c, 0, 75, 0
2, 7160, Note_on_c, 0, 71, 88
2, 7199, Note_off_c, 0, 71, 0
2, 7200, Note_on_c, 0, 69, 88
2, 7239, Note_off_c, 0, 69, 0
2, 7240, Note_on_c, 0, 72, 88
2, 7279, Note_off_c, 0, 72, 0
2, 7280, Note_on_c, 0, 75, 88
2, 7319, Note_off_c, 0, 75, 0
2, 7320, Note_on_c, 0, 78, 88
2, 7359, Note_off_c, 0, 78, 0
2, 7360, Note_on_c, 0, 75, 88
2, 7399, Note_off_c, 0, 75, 0
2, 7400, Note_on_c, 0, 72, 88
2, 7439, Note_off_c, 0, 72, 0
2, 7440, Note_on_c, 0, 75, 88
2, 7479, Note_off_c, 0, 75, 0
2, 7480, Note_on_c, 0, 72, 88
2, 7519, Note_off_c, 0, 72, 0
2, 7520, Note_on_c, 0, 69, 88
2, 7559, Note_off_c, 0, 69, 0
2, 7560, Note_on_c, 0, 72, 88
2, 7599, Note_off_c, 0, 72, 0
2, 7600, Note_on_c, 0, 69, 88
2, 7639, Note_off_c, 0, 69, 0
2, 7640, Note_on_c, 0, 66, 88
2, 7679, Note_off_c, 0, 66, 0
2, 7680, Note_on_c, 0, 67, 88
2, 7799, Note_off_c, 0, 67, 0
2, 7800, Note_on_c, 0, 69, 88
2, 7919, Note_off_c, 0, 69, 0
2, 7920, Note_on_c, 0, 71, 88
2, 8039, Note_off_c, 0, 71, 0
2, 8040, Note_on_c, 0, 72, 88
2, 8159, Note_off_c, 0, 72, 0
2, 8160, Note_on_c, 0, 71, 88
2, 8279, Note_off_c, 0, 71, 0
2, 8280, Note_on_c, 0, 69, 88
2, 8399, Note_off_c, 0, 69, 0
2, 8400, Note_on_c, 0, 67, 88
2, 8519, Note_off_c, 0, 67, 0
2, 8520, Note_on_c, 0, 71, 88
2, 8639, Note_off_c, 0, 71, 0
2, 8640, Note_on_c, 0, 69, 88
2, 8679, Note_off_c, 0, 69, 0
2, 8680, Note_on_c, 0, 68, 88
2, 8719, Note_off_c, 0, 68, 0
2, 8720, Note_on_c, 0, 69, 88
2, 8759, Note_off_c, 0, 69, 0
2, 8760, Note_on_c, 0, 71, 88
2, 8799, Note_off_c, 0, 71, 0
2, 8800, Note_on_c, 0, 68, 88
2, 8839, Note_off_c, 0, 68, 0
2, 8840, Note_on_c, 0, 69, 88
2, 8879, Note_off_c, 0, 69, 0
2, 8880, Note_on_c, 0, 73, 88
2, 8919, Note_off_c, 0, 73, 0
2, 8920, Note_on_c, 0, 68, 88
2, 8959, Note_off_c, 0, 68, 0
2, 8960, Note_on_c, 0, 69, 88
2, 8999, Note_off_c, 0, 69, 0
2, 9000, Note_on_c, 0, 74, 88
2, 9039, Note_off_c, 0, 74, 0
2, 9040, Note_on_c, 0, 68, 88
2, 9079, Note_off_c, 0, 68, 0
2, 9080, Note_on_c, 0, 69, 88
2, 9119, Note_off_c, 0, 69, 0
2, 9120, Note_on_c, 0, 76, 88
2, 9159, Note_off_c, 0, 76, 0
2, 9160, Note_on_c, 0, 68, 88
2, 9199, Note_off_c, 0, 68, 0
2, 9200, Note_on_c, 0, 69, 88
2, 9239, Note_off_c, 0, 69, 0
2, 9240, Note_on_c, 0, 78, 88
2, 9279, Note_off_c, 0, 78, 0
2, 9280, Note_on_c, 0, 68, 88
2, 9319, Note_off_c, 0, 68, 0
2, 9320, Note_on_c, 0, 69, 88
2, 9359, Note_off_c, 0, 69, 0
2, 9360, Note_on_c, 0, 79, 88
2, 9399, Note_off_c, 0, 79, 0
2, 9400, Note_on_c, 0, 76, 88
2, 9439, Note_off_c, 0, 76, 0
2, 9440, Note_on_c, 0, 73, 88
2, 9479, Note_off_c, 0, 73, 0
2, 9480, Note_on_c, 0, 69, 88
2, 9519, Note_off_c, 0, 69, 0
2, 9520, Note_on_c, 0, 73, 88
2, 9559, Note_off_c, 0, 73, 0
2, 9560, Note_on_c, 0, 76, 88
2, 9599, Note_off_c, 0, 76, 0
2, 9600, Note_on_c, 0, 78, 88
2, 9839, Note_off_c, 0, 78, 0
2, 9840, Note_on_c, 0, 81, 88
2, 9879, Note_off_c, 0, 81, 0
2, 9880, Note_on_c, 0, 78, 88
2, 9919, Note_off_c, 0, 78, 0
2, 9920, Note_on_c, 0, 74, 88
2, 9959, Note_off_c, 0, 74, 0
2, 9960, Note_on_c, 0, 72, 88
2, 9999, Note_off_c, 0, 72, 0
2, 10000, Note_on_c, 0, 74, 88
2, 10039, Note_off_c, 0, 74, 0
2, 10040, Note_on_c, 0, 78, 88
2, 10079, Note_off_c, 0, 78, 0
2, 10080, Note_on_c, 0, 81, 88
2, 10199, Note_off_c, 0, 81, 0
2, 10200, Note_on_c, 0, 79, 88
2, 10319, Note_off_c, 0, 79, 0
2, 10320, Note_on_c, 0, 79, 88
2, 10359, Note_off_c, 0, 79, 0
2, 10360, Note_on_c, 0, 76, 88
2, 10399, Note_off_c, 0, 76, 0
2, 10400, Note_on_c, 0, 73, 88
2, 10439, Note_off_c, 0, 73, 0
2, 10440, Note_on_c, 0, 69, 88
2, 10479, Note_off_c, 0, 69, 0
2, 10480, Note_on_c, 0, 73, 88
2, 10519, Note_off_c, 0, 73, 0
2, 10520, Note_on_c, 0, 76, 88
2, 10559, Note_off_c, 0, 76, 0
2, 10560, Note_on_c, 0, 79, 88
2, 10679, Note_off_c, 0, 79, 0
2, 10680, Note_on_c, 0, 78, 88
2, 10799, Note_off_c, 0, 78, 0
2, 10800, Note_on_c, 0, 78, 88
2, 10839, Note_off_c, 0, 78, 0
2, 10840, Note_on_c, 0, 74, 88
2, 10879, Note_off_c, 0, 74, 0
2, 10880, Note_on_c, 0, 71, 88
2, 10919, Note_off_c, 0, 71, 0
2, 10920, Note_on_c, 0, 67, 88
2, 10959, Note_off_c, 0, 67, 0
2, 10960, Note_on_c, 0, 71, 88
2, 10999, Note_off_c, 0, 71, 0
2, 11000, Note_on_c, 0, 74, 88
2, 11039, Note_off_c, 0, 74, 0
2, 11040, Note_on_c, 0, 78, 88
2, 11159, Note_off_c, 0, 78, 0
2, 11160, Note_on_c, 0, 76, 88
2, 11279, Note_off_c, 0, 76, 0
2, 11280, Note_on_c, 0, 76, 88
2, 11319, Note_off_c, 0, 76, 0
2, 11320, Note_on_c, 0, 73, 88
2, 11359, Note_off_c, 0, 73, 0
2, 11360, Note_on_c, 0, 69, 88
2, 11399, Note_off_c, 0, 69, 0
2, 11400, Note_on_c, 0, 67, 88
2, 11439, Note_off_c, 0, 67, 0
2, 11440, Note_on_c, 0, 69, 88
2, 11479, Note_off_c, 0, 69, 0
2, 11480, Note_on_c, 0, 73, 88
2, 11519, Note_off_c, 0, 73, 0
2, 11520, Note_on_c, 0, 76, 88
2, 11639, Note_off_c, 0, 76, 0
2, 11640, Note_on_c, 0, 74, 88
2, 11879, Note_off_c, 0, 74, 0
2, 11880, Note_on_c, 0, 74, 88
2, 11999, Note_off_c, 0, 74, 0
2, 12000, Note_on_c, 0, 74, 88
2, 12039, Note_off_c, 0, 74, 0
2, 12040, Note_on_c, 0, 72, 88
2, 12079, Note_off_c, 0, 72, 0
2, 12080, Note_on_c, 0, 71, 88
2, 12119, Note_off_c, 0, 71, 0
2, 12120, Note_on_c, 0, 71, 88
2, 12159, Note_off_c, 0, 71, 0
2, 12160, Note_on_c, 0, 69, 88
2, 12199, Note_off_c, 0, 69, 0
2, 12200, Note_on_c, 0, 67, 88
2, 12239, Note_off_c, 0, 67, 0
2, 12240, Note_on_c, 0, 67, 88
2, 12279, Note_off_c, 0, 67, 0
2, 12280, Note_on_c, 0, 71, 88
2, 12319, Note_off_c, 0, 71, 0
2, 12320, Note_on_c, 0, 74, 88
2, 12359, Note_off_c, 0, 74, 0
2, 12360, Note_on_c, 0, 77, 88
2, 12399, Note_off_c, 0, 77, 0
2, 12400, Note_on_c, 0, 76, 88
2, 12439, Note_off_c, 0, 76, 0
2, 12440, Note_on_c, 0, 74, 88
2, 12479, Note_off_c, 0, 74, 0
2, 12480, Note_on_c, 0, 74, 88
2, 12519, Note_off_c, 0, 74, 0
2, 12520, Note_on_c, 0, 76, 88
2, 12559, Note_off_c, 0, 76, 0
2, 12560, Note_on_c, 0, 77, 88
2, 12599, Note_off_c, 0, 77, 0
2, 12600, Note_on_c, 0, 76, 88
2, 12839, Note_off_c, 0, 76, 0
2, 12840, Note_on_c, 0, 76, 88
2, 12959, Note_off_c, 0, 76, 0
2, 12960, Note_on_c, 0, 76, 88
2, 12999, Note_off_c, 0, 76, 0
2, 13000, Note_on_c, 0, 74, 88
2, 13039, Note_off_c, 0, 74, 0
2, 13040, Note_on_c, 0, 73, 88
2, 13079, Note_off_c, 0, 73, 0
2, 13080, Note_on_c, 0, 73, 88
2, 13119, Note_off_c, 0, 73, 0
2, 13120, Note_on_c, 0, 71, 88
2, 13159, Note_off_c, 0, 71, 0
2, 13160, Note_on_c, 0, 69, 88
2, 13199, Note_off_c, 0, 69, 0
2, 13200, Note_on_c, 0, 69, 88
2, 13239, Note_off_c, 0, 69, 0
2, 13240, Note_on_c, 0, 73, 88
2, 13279, Note_off_c, 0, 73, 0
2, 13280, Note_on_c, 0, 76, 88
2, 13319, Note_off_c, 0, 76, 0
2, 13320, Note_on_c, 0, 79, 88
2, 13359, Note_off_c, 0, 79, 0
2, 13360, Note_on_c, 0, 78, 88
2, 13399, Note_off_c, 0, 78, 0
2, 13400, Note_on_c, 0, 76, 88
2, 13439, Note_off_c, 0, 76, 0
2, 13440, Note_on_c, 0, 76, 88
2, 13479, Note_off_c, 0, 76, 0
2, 13480, Note_on_c, 0, 78, 88
2, 13519, Note_off_c, 0, 78, 0
2, 13520, Note_on_c, 0, 79, 88
2, 13559, Note_off_c, 0, 79, 0
2, 13560, Note_on_c, 0, 78, 88
2, 13799, Note_off_c, 0, 78, 0
2, 13800, Note_on_c, 0, 81, 88
2, 13919, Note_off_c, 0, 81, 0
2, 13920, Note_on_c, 0, 81, 88
2, 13959, Note_off_c, 0, 81, 0
2, 13960, Note_on_c, 0, 79, 88
2, 13999, Note_off_c, 0, 79, 0
2, 14000, Note_on_c, 0, 78, 88
2, 14039, Note_off_c, 0, 78, 0
2, 14040, Note_on_c, 0, 78, 88
2, 14079, Note_off_c, 0, 78, 0
2, 14080, Note_on_c, 0, 76, 88
2, 14119, Note_off_c, 0, 76, 0
2, 14120, Note_on_c, 0, 74, 88
2, 14159, Note_off_c, 0, 74, 0
2, 14160, Note_on_c, 0, 74, 88
2, 14199, Note_off_c, 0, 74, 0
2, 14200, Note_on_c, 0, 78, 88
2, 14239, Note_off_c, 0, 78, 0
2, 14240, Note_on_c, 0, 81, 88
2, 14279, Note_off_c, 0, 81, 0
2, 14280, Note_on_c, 0, 84, 88
2, 14319, Note_off_c, 0, 84, 0
2, 14320, Note_on_c, 0, 83, 88
2, 14359, Note_off_c, 0, 83, 0
2, 14360, Note_on_c, 0, 81, 88
2, 14399, Note_off_c, 0, 81, 0
2, 14400, Note_on_c, 0, 81, 88
2, 14439, Note_off_c, 0, 81, 0
2, 14440, Note_on_c, 0, 83, 88
2, 14479, Note_off_c, 0, 83, 0
2, 14480, Note_on_c, 0, 84, 88
2, 14519, Note_off_c, 0, 84, 0
2, 14520, Note_on_c, 0, 83, 88
2, 14679, Note_off_c, 0, 83, 0
2, 14680, Note_on_c, 0, 81, 88
2, 14719, Note_off_c, 0, 81, 0
2, 14720, Note_on_c, 0, 79, 88
2, 14759, Note_off_c, 0, 79, 0
2, 14760, Note_on_c, 0, 77, 88
2, 14799, Note_off_c, 0, 77, 0
2, 14800, Note_on_c, 0, 76, 88
2, 14839, Note_off_c, 0, 76, 0
2, 14840, Note_on_c, 0, 74, 88
2, 14879, Note_off_c, 0, 74, 0
2, 14880, Note_on_c, 0, 72, 88
2, 14919, Note_off_c, 0, 72, 0
2, 14920, Note_on_c, 0, 76, 88
2, 14959, Note_off_c, 0, 76, 0
2, 14960, Note_on_c, 0, 79, 88
2, 14999, Note_off_c, 0, 79, 0
2, 15000, Note_on_c, 0, 81, 88
2, 15039, Note_off_c, 0, 81, 0
2, 15040, Note_on_c, 0, 78, 88
2, 15079, Note_off_c, 0, 78, 0
2, 15080, Note_on_c, 0, 74, 88
2, 15119, Note_off_c, 0, 74, 0
2, 15120, Note_on_c, 0, 71, 88
2, 15159, Note_off_c, 0, 71, 0
2, 15160, Note_on_c, 0, 74, 88
2, 15199, Note_off_c, 0, 74, 0
2, 15200, Note_on_c, 0, 78, 88
2, 15239, Note_off_c, 0, 78, 0
2, 15240, Note_on_c, 0, 79, 88
2, 15279, Note_off_c, 0, 79, 0
2, 15280, Note_on_c, 0, 76, 88
2, 15319, Note_off_c, 0, 76, 0
2, 15320, Note_on_c, 0, 72, 88
2, 15359, Note_off_c, 0, 72, 0
2, 15360, Note_on_c, 0, 69, 88
2, 15399, Note_off_c, 0, 69, 0
2, 15400, Note_on_c, 0, 72, 88
2, 15439, Note_off_c, 0, 72, 0
2, 15440, Note_on_c, 0, 76, 88
2, 15479, Note_off_c, 0, 76, 0
2, 15480, Note_on_c, 0, 78, 88
2, 15519, Note_off_c, 0, 78, 0
2, 15520, Note_on_c, 0, 74, 88
2, 15559, Note_off_c, 0, 74, 0
2, 15560, Note_on_c, 0, 71, 88
2, 15599, Note_off_c, 0, 71, 0
2, 15600, Note_on_c, 0, 67, 88
2, 15639, Note_off_c, 0, 67, 0
2, 15640, Note_on_c, 0, 71, 88
2, 15679, Note_off_c, 0, 71, 0
2, 15680, Note_on_c, 0, 74, 88
2, 15719, Note_off_c, 0, 74, 0
2, 15720, Note_on_c, 0, 76, 88
2, 15759, Note_off_c, 0, 76, 0
2, 15760, Note_on_c, 0, 72, 88
2, 15799, Note_off_c, 0, 72, 0
2, 15800, Note_on_c, 0, 69, 88
2, 15839, Note_off_c, 0, 69, 0
2, 15840, Note_on_c, 0, 66, 88
2, 15879, Note_off_c, 0, 66, 0
2, 15880, Note_on_c, 0, 69, 88
2, 15919, Note_off_c, 0, 69, 0
2, 15920, Note_on_c, 0, 72, 88
2, 15959, Note_off_c, 0, 72, 0
2, 15960, Note_on_c, 0, 74, 88
2, 15999, Note_off_c, 0, 74, 0
2, 16000, Note_on_c, 0, 71, 88
2, 16039, Note_off_c, 0, 71, 0
2, 16040, Note_on_c, 0, 67, 88
2, 16079, Note_off_c, 0, 67, 0
2, 16080, Note_on_c, 0, 64, 88
2, 16119, Note_off_c, 0, 64, 0
2, 16120, Note_on_c, 0, 67, 88
2, 16159, Note_off_c, 0, 67, 0
2, 16160, Note_on_c, 0, 71, 88
2, 16199, Note_off_c, 0, 71, 0
2, 16200, Note_on_c, 0, 72, 88
2, 16239, Note_off_c, 0, 72, 0
2, 16240, Note_on_c, 0, 69, 88
2, 16279, Note_off_c, 0, 69, 0
2, 16280, Note_on_c, 0, 66, 88
2, 16319, Note_off_c, 0, 66, 0
2, 16320, Note_on_c, 0, 62, 88
2, 16359, Note_off_c, 0, 62, 0
2, 16360, Note_on_c, 0, 66, 88
2, 16399, Note_off_c, 0, 66, 0
2, 16400, Note_on_c, 0, 69, 88
2, 16439, Note_off_c, 0, 69, 0
2, 16440, Note_on_c, 0, 71, 88
2, 16479, Note_off_c, 0, 71, 0
2, 16480, Note_on_c, 0, 67, 88
2, 16519, Note_off_c, 0, 67, 0
2, 16520, Note_on_c, 0, 64, 88
2, 16559, Note_off_c, 0, 64, 0
2, 16560, Note_on_c, 0, 60, 88
2, 16599, Note_off_c, 0, 60, 0
2, 16600, Note_on_c, 0, 64, 88
2, 16639, Note_off_c, 0, 64, 0
2, 16640, Note_on_c, 0, 67, 88
2, 16679, Note_off_c, 0, 67, 0
2, 16680, Note_on_c, 0, 69, 88
2, 16719, Note_off_c, 0, 69, 0
2, 16720, Note_on_c, 0, 66, 88
2, 16759, Note_off_c, 0, 66, 0
2, 16760, Note_on_c, 0, 62, 88
2, 16799, Note_off_c, 0, 62, 0
2, 16800, Note_on_c, 0, 59, 88
2, 16839, Note_off_c, 0, 59, 0
2, 16840, Note_on_c, 0, 62, 88
2, 16879, Note_off_c, 0, 62, 0
2, 16880, Note_on_c, 0, 66, 88
2, 16919, Note_off_c, 0, 66, 0
2, 16920, Note_on_c, 0, 67, 88
2, 16959, Note_off_c, 0, 67, 0
2, 16960, Note_on_c, 0, 64, 88
2, 16999, Note_off_c, 0, 64, 0
2, 17000, Note_on_c, 0, 60, 88
2, 17039, Note_off_c, 0, 60, 0
2, 17040, Note_on_c, 0, 57, 88
2, 17079, Note_off_c, 0, 57, 0
2, 17080, Note_on_c, 0, 60, 88
2, 17119, Note_off_c, 0, 60, 0
2, 17120, Note_on_c, 0, 64, 88
2, 17159, Note_off_c, 0, 64, 0
2, 17160, Note_on_c, 0, 66, 88
2, 17199, Note_off_c, 0, 66, 0
2, 17200, Note_on_c, 0, 62, 88
2, 17239, Note_off_c, 0, 62, 0
2, 17240, Note_on_c, 0, 60, 88
2, 17279, Note_off_c, 0, 60, 0
2, 17280, Note_on_c, 0, 59, 88
2, 17320, Note_off_c, 0, 59, 0
2, 17320, End_track
0, 0, End_of_file