0, 0, Header, 1, 2, 240
1, 0, Start_track
1, 0, Time_signature, 4, 2, 24, 8
1, 0, Tempo, 857142
1, 0, SMPTE_offset, 64, 0, 0, 0, 100
1, 0, End_track
2, 0, Start_track
2, 0, Title_t, "Track 1"
2, 0, Program_c, 0, 6
2, 0, Note_on_c, 0, 67, 88
2, 119, Note_off_c, 0, 67, 0
2, 120, Note_on_c, 0, 69, 88
2, 179, Note_off_c, 0, 69, 0
2, 180, Note_on_c, 0, 67, 88
2, 239, Note_off_c, 0, 67, 0
2, 240, Note_on_c, 0, 66, 88
2, 299, Note_off_c, 0, 66, 0
2, 300, Note_on_c, 0, 67, 88
2, 359, Note_off_c, 0, 67, 0
2, 360, Note_on_c, 0, 69, 88
2, 479, Note_off_c, 0, 69, 0
2, 480, Note_on_c, 0, 71, 88
2, 539, Note_off_c, 0, 71, 0
2, 540, Note_on_c, 0, 69, 88
2, 599, Note_off_c, 0, 69, 0
2, 600, Note_on_c, 0, 67, 88
2, 659, Note_off_c, 0, 67, 0
2, 660, Note_on_c, 0, 69, 88
2, 719, Note_off_c, 0, 69, 0
2, 720, Note_on_c, 0, 71, 88
2, 839, Note_off_c, 0, 71, 0
2, 840, Note_on_c, 0, 69, 88
2, 959, Note_off_c, 0, 69, 0
2, 960, Note_on_c, 0, 67, 88
2, 1079, Note_off_c, 0, 67, 0
2, 1080, Note_on_c, 0, 62, 88
2, 1199, Note_off_c, 0, 62, 0
2, 1200, Note_on_c, 0, 72, 88
2, 1439, Note_off_c, 0, 72, 0
2, 1440, Note_on_c, 0, 71, 88
2, 1559, Note_off_c, 0, 71, 0
2, 1560, Note_on_c, 0, 69, 88
2, 1679, Note_off_c, 0, 69, 0
2, 1680, Note_on_c, 0, 67, 88
2, 1799, Note_off_c, 0, 67, 0
2, 1800, Note_on_c, 0, 66, 88
2, 1919, Note_off_c, 0, 66, 0
2, 1920, Note_on_c, 0, 76, 88
2, 2159, Note_off_c, 0, 76, 0
2, 2160, Note_on_c, 0, 74, 88
2, 2279, Note_off_c, 0, 74, 0
2, 2280, Note_on_c, 0, 76, 88
2, 2339, Note_off_c, 0, 76, 0
2, 2340, Note_on_c, 0, 74, 88
2, 2399, Note_off_c, 0, 74, 0
2, 2400, Note_on_c, 0, 72, 88
2, 2459, Note_off_c, 0, 72, 0
2, 2460, Note_on_c, 0, 71, 88
2, 2519, Note_off_c, 0, 71, 0
2, 2520, Note_on_c, 0, 69, 88
2, 2639, Note_off_c, 0, 69, 0
2, 2640, Note_on_c, 0, 72, 88
2, 2699, Note_off_c, 0, 72, 0
2, 2700, Note_on_c, 0, 71, 88
2, 2759, Note_off_c, 0, 71, 0
2, 2760, Note_on_c, 0, 69, 88
2, 2819, Note_off_c, 0, 69, 0
2, 2820, Note_on_c, 0, 67, 88
2, 2879, Note_off_c, 0, 67, 0
2, 2880, Note_on_c, 0, 66, 88
2, 2999, Note_off_c, 0, 66, 0
2, 3000, Note_on_c, 0, 67, 88
2, 3119, Note_off_c, 0, 67, 0
2, 3120, Note_on_c, 0, 69, 88
2, 3239, Note_off_c, 0, 69, 0
2, 3240, Note_on_c, 0, 67, 88
2, 3359, Note_off_c, 0, 67, 0
2, 3360, Note_on_c, 0, 69, 88
2, 3479, Note_off_c, 0, 69, 0
2, 3480, Note_on_c, 0, 71, 88
2, 3599, Note_off_c, 0, 71, 0
2, 3600, Note_on_c, 0, 69, 88
2, 3719, Note_off_c, 0, 69, 0
2, 3720, Note_on_c, 0, 71, 88
2, 3779, Note_off_c, 0, 71, 0
2, 3780, Note_on_c, 0, 73, 88
2, 3839, Note_off_c, 0, 73, 0
2, 3840, Note_on_c, 0, 74, 88
2, 3899, Note_off_c, 0, 74, 0
2, 3900, Note_on_c, 0, 71, 88
2, 3959, Note_off_c, 0, 71, 0
2, 3960, Note_on_c, 0, 73, 88
2, 4019, Note_off_c, 0, 73, 0
2, 4020, Note_on_c, 0, 71, 88
2, 4079, Note_off_c, 0, 71, 0
2, 4080, Note_on_c, 0, 73, 88
2, 4139, Note_off_c, 0, 73, 0
2, 4140, Note_on_c, 0, 74, 88
2, 4199, Note_off_c, 0, 74, 0
2, 4200, Note_on_c, 0, 76, 88
2, 4259, Note_off_c, 0, 76, 0
2, 4260, Note_on_c, 0, 73, 88
2, 4319, Note_off_c, 0, 73, 0
2, 4320, Note_on_c, 0, 74, 88
2, 4379, Note_off_c, 0, 74, 0
2, 4380, Note_on_c, 0, 73, 88
2, 4439, Note_off_c, 0, 73, 0
2, 4440, Note_on_c, 0, 74, 88
2, 4499, Note_off_c, 0, 74, 0
2, 4500, Note_on_c, 0, 76, 88
2, 4559, Note_off_c, 0, 76, 0
2, 4560, Note_on_c, 0, 78, 88
2, 4619, Note_off_c, 0, 78, 0
2, 4620, Note_on_c, 0, 74, 88
2, 4679, Note_off_c, 0, 74, 0
2, 4680, Note_on_c, 0, 76, 88
2, 4739, Note_off_c, 0, 76, 0
2, 4740, Note_on_c, 0, 74, 88
2, 4799, Note_off_c, 0, 74, 0
2, 4800, Note_on_c, 0, 76, 88
2, 4859, Note_off_c, 0, 76, 0
2, 4860, Note_on_c, 0, 78, 88
2, 4919, Note_off_c, 0, 78, 0
2, 4920, Note_on_c, 0, 79, 88
2, 4979, Note_off_c, 0, 79, 0
2, 4980, Note_on_c, 0, 76, 88
2, 5039, Note_off_c, 0, 76, 0
2, 5040, Note_on_c, 0, 78, 88
2, 5159, Note_off_c, 0, 78, 0
2, 5160, Note_on_c, 0, 79, 88
2, 5219, Note_off_c, 0, 79, 0
2, 5220, Note_on_c, 0, 78, 88
2, 5279, Note_off_c, 0, 78, 0
2, 5280, Note_on_c, 0, 76, 88
2, 5339, Note_off_c, 0, 76, 0
2, 5340, Note_on_c, 0, 74, 88
2, 5399, Note_off_c, 0, 74, 0
2, 5400, Note_on_c, 0, 79, 88
2, 5819, Note_off_c, 0, 79, 0
2, 5820, Note_on_c, 0, 78, 88
2, 5879, Note_off_c, 0, 78, 0
2, 5880, Note_on_c, 0, 76, 88
2, 5939, Note_off_c, 0, 76, 0
2, 5940, Note_on_c, 0, 79, 88
2, 5999, Note_off_c, 0, 79, 0
2, 6000, Note_on_c, 0, 74, 88
2, 6059, Note_off_c, 0, 74, 0
2, 6060, Note_on_c, 0, 79, 88
2, 6119, Note_off_c, 0, 79, 0
2, 6120, Note_on_c, 0, 73, 88
2, 6179, Note_off_c, 0, 73, 0
2, 6180, Note_on_c, 0, 79, 88
2, 6239, Note_off_c, 0, 79, 0
2, 6240, Note_on_c, 0, 71, 88
2, 6299, Note_off_c, 0, 71, 0
2, 6300, Note_on_c, 0, 79, 88
2, 6359, Note_off_c, 0, 79, 0
2, 6360, Note_on_c, 0, 69, 88
2, 6419, Note_off_c, 0, 69, 0
2, 6420, Note_on_c, 0, 79, 88
2, 6479, Note_off_c, 0, 79, 0
2, 6480, Note_on_c, 0, 78, 88
2, 6599, Note_off_c, 0, 78, 0
2, 6600, Note_on_c, 0, 74, 88
2, 6719, Note_off_c, 0, 74, 0
2, 6720, Note_on_c, 0, 76, 88
2, 6839, Note_off_c, 0, 76, 0
2, 6840, Note_on_c, 0, 78, 88
2, 6959, Note_off_c, 0, 78, 0
2, 6960, Note_on_c, 0, 79, 88
2, 7079, Note_off_c, 0, 79, 0
2, 7080, Note_on_c, 0, 81, 88
2, 7319, Note_off_c, 0, 81, 0
2, 7320, Note_on_c, 0, 74, 88
2, 7439, Note_off_c, 0, 74, 0
2, 7440, Note_on_c, 0, 79, 88
2, 7679, Note_off_c, 0, 79, 0
2, 7680, Note_on_c, 0, 78, 88
2, 7799, Note_off_c, 0, 78, 0
2, 7800, Note_on_c, 0, 76, 88
2, 7919, Note_off_c, 0, 76, 0
2, 7920, Note_on_c, 0, 74, 88
2, 8039, Note_off_c, 0, 74, 0
2, 8040, Note_on_c, 0, 72, 88
2, 8159, Note_off_c, 0, 72, 0
2, 8160, Note_on_c, 0, 71, 88
2, 8279, Note_off_c, 0, 71, 0
2, 8280, Note_on_c, 0, 69, 88
2, 8879, Note_off_c, 0, 69, 0
2, 8880, Note_on_c, 0, 74, 88
2, 9119, Note_off_c, 0, 74, 0
2, 9120, Note_on_c, 0, 72, 88
2, 9239, Note_off_c, 0, 72, 0
2, 9240, Note_on_c, 0, 81, 88
2, 9479, Note_off_c, 0, 81, 0
2, 9480, Note_on_c, 0, 79, 88
2, 9839, Note_off_c, 0, 79, 0
2, 9840, Note_on_c, 0, 81, 88
2, 9899, Note_off_c, 0, 81, 0
2, 9900, Note_on_c, 0, 79, 88
2, 9959, Note_off_c, 0, 79, 0
2, 9960, Note_on_c, 0, 78, 88
2, 10019, Note_off_c, 0, 78, 0
2, 10020, Note_on_c, 0, 76, 88
2, 10079, Note_off_c, 0, 76, 0
2, 10080, Note_on_c, 0, 74, 88
2, 10919, Note_off_c, 0, 74, 0
2, 10920, Note_on_c, 0, 74, 88
2, 11039, Note_off_c, 0, 74, 0
2, 11040, Note_on_c, 0, 72, 88
2, 11159, Note_off_c, 0, 72, 0
2, 11160, Note_on_c, 0, 71, 88
2, 11279, Note_off_c, 0, 71, 0
2, 11280, Note_on_c, 0, 69, 88
2, 11399, Note_off_c, 0, 69, 0
2, 11400, Note_on_c, 0, 67, 88
2, 11519, Note_off_c, 0, 67, 0
2, 11520, Note_on_c, 0, 72, 88
2, 11579, Note_off_c, 0, 72, 0
2, 11580, Note_on_c, 0, 74, 88
2, 11639, Note_off_c, 0, 74, 0
2, 11640, Note_on_c, 0, 76, 88
2, 11939, Note_off_c, 0, 76, 0
2, 11940, Note_on_c, 0, 74, 88
2, 11999, Note_off_c, 0, 74, 0
2, 12000, Note_on_c, 0, 72, 88
2, 12059, Note_off_c, 0, 72, 0
2, 12060, Note_on_c, 0, 71, 88
2, 12119, Note_off_c, 0, 71, 0
2, 12120, Note_on_c, 0, 69, 88
2, 12179, Note_off_c, 0, 69, 0
2, 12180, Note_on_c, 0, 72, 88
2, 12239, Note_off_c, 0, 72, 0
2, 12240, Note_on_c, 0, 71, 88
2, 12299, Note_off_c, 0, 71, 0
2, 12300, Note_on_c, 0, 72, 88
2, 12359, Note_off_c, 0, 72, 0
2, 12360, Note_on_c, 0, 74, 88
2, 12659, Note_off_c, 0, 74, 0
2, 12660, Note_on_c, 0, 72, 88
2, 12719, Note_off_c, 0, 72, 0
2, 12720, Note_on_c, 0, 71, 88
2, 12779, Note_off_c, 0, 71, 0
2, 12780, Note_on_c, 0, 69, 88
2, 12839, Note_off_c, 0, 69, 0
2, 12840, Note_on_c, 0, 67, 88
2, 12899, Note_off_c, 0, 67, 0
2, 12900, Note_on_c, 0, 71, 88
2, 12959, Note_off_c, 0, 71, 0
2, 12960, Note_on_c, 0, 69, 88
2, 13019, Note_off_c, 0, 69, 0
2, 13020, Note_on_c, 0, 71, 88
2, 13079, Note_off_c, 0, 71, 0
2, 13080, Note_on_c, 0, 72, 88
2, 13379, Note_off_c, 0, 72, 0
2, 13380, Note_on_c, 0, 71, 88
2, 13439, Note_off_c, 0, 71, 0
2, 13440, Note_on_c, 0, 69, 88
2, 13499, Note_off_c, 0, 69, 0
2, 13500, Note_on_c, 0, 67, 88
2, 13559, Note_off_c, 0, 67, 0
2, 13560, Note_on_c, 0, 66, 88
2, 13619, Note_off_c, 0, 66, 0
2, 13620, Note_on_c, 0, 69, 88
2, 13679, Note_off_c, 0, 69, 0
2, 13680, Note_on_c, 0, 67, 88
2, 13739, Note_off_c, 0, 67, 0
2, 13740, Note_on_c, 0, 69, 88
2, 13799, Note_off_c, 0, 69, 0
2, 13800, Note_on_c, 0, 71, 88
2, 14159, Note_off_c, 0, 71, 0
2, 14160, Note_on_c, 0, 64, 88
2, 14279, Note_off_c, 0, 64, 0
2, 14280, Note_on_c, 0, 69, 88
2, 14459, Note_off_c, 0, 69, 0
2, 14460, Note_on_c, 0, 67, 88
2, 14519, Note_off_c, 0, 67, 0
2, 14520, Note_on_c, 0, 69, 88
2, 14639, Note_off_c, 0, 69, 0
2, 14640, Note_on_c, 0, 71, 88
2, 14759, Note_off_c, 0, 71, 0
2, 14760, Note_on_c, 0, 72, 88
2, 14819, Note_off_c, 0, 72, 0
2, 14820, Note_on_c, 0, 74, 88
2, 14879, Note_off_c, 0, 74, 0
2, 14880, Note_on_c, 0, 72, 88
2, 14939, Note_off_c, 0, 72, 0
2, 14940, Note_on_c, 0, 71, 88
2, 14999, Note_off_c, 0, 71, 0
2, 15000, Note_on_c, 0, 69, 88
2, 15059, Note_off_c, 0, 69, 0
2, 15060, Note_on_c, 0, 67, 88
2, 15119, Note_off_c, 0, 67, 0
2, 15120, Note_on_c, 0, 67, 88
2, 15142, Note_off_c, 0, 67, 0
2, 15143, Note_on_c, 0, 66, 88
2, 15164, Note_off_c, 0, 66, 0
2, 15165, Note_on_c, 0, 67, 88
2, 15187, Note_off_c, 0, 67, 0
2, 15188, Note_on_c, 0, 66, 88
2, 15209, Note_off_c, 0, 66, 0
2, 15210, Note_on_c, 0, 67, 88
2, 15232, Note_off_c, 0, 67, 0
2, 15233, Note_on_c, 0, 66, 88
2, 15254, Note_off_c, 0, 66, 0
2, 15255, Note_on_c, 0, 67, 88
2, 15277, Note_off_c, 0, 67, 0
2, 15278, Note_on_c, 0, 66, 88
2, 15299, Note_off_c, 0, 66, 0
2, 15300, Note_on_c, 0, 64, 88
2, 15329, Note_off_c, 0, 64, 0
2, 15330, Note_on_c, 0, 66, 88
2, 15359, Note_off_c, 0, 66, 0
2, 15360, Note_on_c, 0, 67, 88
2, 15539, Note_off_c, 0, 67, 0
2, 15540, Note_on_c, 0, 71, 88
2, 15599, Note_off_c, 0, 71, 0
2, 15600, Note_on_c, 0, 69, 88
2, 15659, Note_off_c, 0, 69, 0
2, 15660, Note_on_c, 0, 67, 88
2, 15719, Note_off_c, 0, 67, 0
2, 15720, Note_on_c, 0, 66, 88
2, 15779, Note_off_c, 0, 66, 0
2, 15780, Note_on_c, 0, 64, 88
2, 15839, Note_off_c, 0, 64, 0
2, 15840, Note_on_c, 0, 62, 88
2, 16559, Note_off_c, 0, 62, 0
2, 16560, Note_on_c, 0, 69, 88
2, 16679, Note_off_c, 0, 69, 0
2, 16680, Note_on_c, 0, 67, 88
2, 16739, Note_off_c, 0, 67, 0
2, 16740, Note_on_c, 0, 69, 88
2, 16799, Note_off_c, 0, 69, 0
2, 16800, Note_on_c, 0, 71, 88
2, 16859, Note_off_c, 0, 71, 0
2, 16860, Note_on_c, 0, 69, 88
2, 16919, Note_off_c, 0, 69, 0
2, 16920, Note_on_c, 0, 67, 88
2, 17039, Note_off_c, 0, 67, 0
2, 17040, Note_on_c, 0, 66, 88
2, 17099, Note_off_c, 0, 66, 0
2, 17100, Note_on_c, 0, 67, 88
2, 17159, Note_off_c, 0, 67, 0
2, 17160, Note_on_c, 0, 69, 88
2, 17219, Note_off_c, 0, 69, 0
2, 17220, Note_on_c, 0, 67, 88
2, 17279, Note_off_c, 0, 67, 0
2, 17280, Note_on_c, 0, 66, 88
2, 17399, Note_off_c, 0, 66, 0
2, 17400, Note_on_c, 0, 67, 88
2, 17519, Note_off_c, 0, 67, 0
2, 17520, Note_on_c, 0, 69, 88
2, 17639, Note_off_c, 0, 69, 0
2, 17640, Note_on_c, 0, 74, 88
2, 17759, Note_off_c, 0, 74, 0
2, 17760, Note_on_c, 0, 66, 88
2, 17782, Note_off_c, 0, 66, 0
2, 17783, Note_on_c, 0, 64, 88
2, 17808, Note_off_c, 0, 64, 0
2, 17809, Note_on_c, 0, 66, 88
2, 17834, Note_off_c, 0, 66, 0
2, 17835, Note_on_c, 0, 64, 88
2, 17860, Note_off_c, 0, 64, 0
2, 17861, Note_on_c, 0, 66, 88
2, 17887, Note_off_c, 0, 66, 0
2, 17888, Note_on_c, 0, 64, 88
2, 17909, Note_off_c, 0, 64, 0
2, 17910, Note_on_c, 0, 66, 88
2, 17932, Note_off_c, 0, 66, 0
2, 17933, Note_on_c, 0, 64, 88
2, 17954, Note_off_c, 0, 64, 0
2, 17955, Note_on_c, 0, 62, 88
2, 17977, Note_off_c, 0, 62, 0
2, 17978, Note_on_c, 0, 64, 88
2, 17999, Note_off_c, 0, 64, 0
2, 18000, Note_on_c, 0, 66, 88
2, 18119, Note_off_c, 0, 66, 0
2, 18120, Note_on_c, 0, 67, 88
2, 18239, Note_off_c, 0, 67, 0
2, 18240, Note_on_c, 0, 69, 88
2, 18359, Note_off_c, 0, 69, 0
2, 18360, Note_on_c, 0, 71, 88
2, 18479, Note_off_c, 0, 71, 0
2, 18480, Note_on_c, 0, 62, 88
2, 18502, Note_off_c, 0, 62, 0
2, 18503, Note_on_c, 0, 61, 88
2, 18528, Note_off_c, 0, 61, 0
2, 18529, Note_on_c, 0, 62, 88
2, 18554, Note_off_c, 0, 62, 0
2, 18555, Note_on_c, 0, 61, 88
2, 18580, Note_off_c, 0, 61, 0
2, 18581, Note_on_c, 0, 62, 88
2, 18607, Note_off_c, 0, 62, 0
2, 18608, Note_on_c, 0, 61, 88
2, 18629, Note_off_c, 0, 61, 0
2, 18630, Note_on_c, 0, 62, 88
2, 18652, Note_off_c, 0, 62, 0
2, 18653, Note_on_c, 0, 61, 88
2, 18674, Note_off_c, 0, 61, 0
2, 18675, Note_on_c, 0, 59, 88
2, 18697, Note_off_c, 0, 59, 0
2, 18698, Note_on_c, 0, 61, 88
2, 18719, Note_off_c, 0, 61, 0
2, 18720, Note_on_c, 0, 62, 88
2, 18839, Note_off_c, 0, 62, 0
2, 18840, Note_on_c, 0, 62, 88
2, 18899, Note_off_c, 0, 62, 0
2, 18900, Note_on_c, 0, 64, 88
2, 18959, Note_off_c, 0, 64, 0
2, 18960, Note_on_c, 0, 66, 88
2, 19019, Note_off_c, 0, 66, 0
2, 19020, Note_on_c, 0, 67, 88
2, 19079, Note_off_c, 0, 67, 0
2, 19080, Note_on_c, 0, 69, 88
2, 19199, Note_off_c, 0, 69, 0
2, 19200, Note_on_c, 0, 66, 88
2, 19259, Note_off_c, 0, 66, 0
2, 19260, Note_on_c, 0, 67, 88
2, 19319, Note_off_c, 0, 67, 0
2, 19320, Note_on_c, 0, 69, 88
2, 19379, Note_off_c, 0, 69, 0
2, 19380, Note_on_c, 0, 71, 88
2, 19439, Note_off_c, 0, 71, 0
2, 19440, Note_on_c, 0, 72, 88
2, 19679, Note_off_c, 0, 72, 0
2, 19680, Note_on_c, 0, 71, 88
2, 19799, Note_off_c, 0, 71, 0
2, 19800, Note_on_c, 0, 69, 88
2, 20159, Note_off_c, 0, 69, 0
2, 20160, Note_on_c, 0, 67, 88
2, 20219, Note_off_c, 0, 67, 0
2, 20220, Note_on_c, 0, 79, 88
2, 20279, Note_off_c, 0, 79, 0
2, 20280, Note_on_c, 0, 78, 88
2, 20339, Note_off_c, 0, 78, 0
2, 20340, Note_on_c, 0, 76, 88
2, 20399, Note_off_c, 0, 76, 0
2, 20400, Note_on_c, 0, 74, 88
2, 20459, Note_off_c, 0, 74, 0
2, 20460, Note_on_c, 0, 78, 88
2, 20519, Note_off_c, 0, 78, 0
2, 20520, Note_on_c, 0, 76, 88
2, 20579, Note_off_c, 0, 76, 0
2, 20580, Note_on_c, 0, 78, 88
2, 20639, Note_off_c, 0, 78, 0
2, 20640, Note_on_c, 0, 76, 88
2, 20699, Note_off_c, 0, 76, 0
2, 20700, Note_on_c, 0, 74, 88
2, 20759, Note_off_c, 0, 74, 0
2, 20760, Note_on_c, 0, 72, 88
2, 20819, Note_off_c, 0, 72, 0
2, 20820, Note_on_c, 0, 76, 88
2, 20879, Note_off_c, 0, 76, 0
2, 20880, Note_on_c, 0, 74, 88
2, 20939, Note_off_c, 0, 74, 0
2, 20940, Note_on_c, 0, 76, 88
2, 20999, Note_off_c, 0, 76, 0
2, 21000, Note_on_c, 0, 74, 88
2, 21059, Note_off_c, 0, 74, 0
2, 21060, Note_on_c, 0, 72, 88
2, 21119, Note_off_c, 0, 72, 0
2, 21120, Note_on_c, 0, 71, 88
2, 21179, Note_off_c, 0, 71, 0
2, 21180, Note_on_c, 0, 74, 88
2, 21239, Note_off_c, 0, 74, 0
2, 21240, Note_on_c, 0, 72, 88
2, 21299, Note_off_c, 0, 72, 0
2, 21300, Note_on_c, 0, 74, 88
2, 21359, Note_off_c, 0, 74, 0
2, 21360, Note_on_c, 0, 72, 88
2, 21419, Note_off_c, 0, 72, 0
2, 21420, Note_on_c, 0, 71, 88
2, 21479, Note_off_c, 0, 71, 0
2, 21480, Note_on_c, 0, 69, 88
2, 21539, Note_off_c, 0, 69, 0
2, 21540, Note_on_c, 0, 72, 88
2, 21599, Note_off_c, 0, 72, 0
2, 21600, Note_on_c, 0, 71, 88
2, 21659, Note_off_c, 0, 71, 0
2, 21660, Note_on_c, 0, 69, 88
2, 21719, Note_off_c, 0, 69, 0
2, 21720, Note_on_c, 0, 67, 88
2, 21779, Note_off_c, 0, 67, 0
2, 21780, Note_on_c, 0, 71, 88
2, 21839, Note_off_c, 0, 71, 0
2, 21840, Note_on_c, 0, 66, 88
2, 21899, Note_off_c, 0, 66, 0
2, 21900, Note_on_c, 0, 71, 88
2, 21959, Note_off_c, 0, 71, 0
2, 21960, Note_on_c, 0, 64, 88
2, 22019, Note_off_c, 0, 64, 0
2, 22020, Note_on_c, 0, 71, 88
2, 22079, Note_off_c, 0, 71, 0
2, 22080, Note_on_c, 0, 62, 88
2, 22139, Note_off_c, 0, 62, 0
2, 22140, Note_on_c, 0, 71, 88
2, 22199, Note_off_c, 0, 71, 0
2, 22200, Note_on_c, 0, 61, 88
2, 22259, Note_off_c, 0, 61, 0
2, 22260, Note_on_c, 0, 71, 88
2, 22319, Note_off_c, 0, 71, 0
2, 22320, Note_on_c, 0, 69, 88
2, 22379, Note_off_c, 0, 69, 0
2, 22380, Note_on_c, 0, 67, 88
2, 22439, Note_off_c, 0, 67, 0
2, 22440, Note_on_c, 0, 66, 88
2, 22499, Note_off_c, 0, 66, 0
2, 22500, Note_on_c, 0, 69, 88
2, 22559, Note_off_c, 0, 69, 0
2, 22560, Note_on_c, 0, 64, 88
2, 22619, Note_off_c, 0, 64, 0
2, 22620, Note_on_c, 0, 69, 88
2, 22679, Note_off_c, 0, 69, 0
2, 22680, Note_on_c, 0, 62, 88
2, 22739, Note_off_c, 0, 62, 0
2, 22740, Note_on_c, 0, 69, 88
2, 22799, Note_off_c, 0, 69, 0
2, 22800, Note_on_c, 0, 61, 88
2, 22859, Note_off_c, 0, 61, 0
2, 22860, Note_on_c, 0, 69, 88
2, 22919, Note_off_c, 0, 69, 0
2, 22920, Note_on_c, 0, 59, 88
2, 22979, Note_off_c, 0, 59, 0
2, 22980, Note_on_c, 0, 69, 88
2, 23039, Note_off_c, 0, 69, 0
2, 23040, Note_on_c, 0, 67, 88
2, 23099, Note_off_c, 0, 67, 0
2, 23100, Note_on_c, 0, 66, 88
2, 23159, Note_off_c, 0, 66, 0
2, 23160, Note_on_c, 0, 64, 88
2, 23219, Note_off_c, 0, 64, 0
2, 23220, Note_on_c, 0, 67, 88
2, 23279, Note_off_c, 0, 67, 0
2, 23280, Note_on_c, 0, 62, 88
2, 23339, Note_off_c, 0, 62, 0
2, 23340, Note_on_c, 0, 67, 88
2, 23399, Note_off_c, 0, 67, 0
2, 23400, Note_on_c, 0, 61, 88
2, 23459, Note_off_c, 0, 61, 0
2, 23460, Note_on_c, 0, 67, 88
2, 23519, Note_off_c, 0, 67, 0
2, 23520, Note_on_c, 0, 59, 88
2, 23579, Note_off_c, 0, 59, 0
2, 23580, Note_on_c, 0, 67, 88
2, 23639, Note_off_c, 0, 67, 0
2, 23640, Note_on_c, 0, 57, 88
2, 23699, Note_off_c, 0, 57, 0
2, 23700, Note_on_c, 0, 67, 88
2, 23759, Note_off_c, 0, 67, 0
2, 23760, Note_on_c, 0, 66, 88
2, 23819, Note_off_c, 0, 66, 0
2, 23820, Note_on_c, 0, 74, 88
2, 23879, Note_off_c, 0, 74, 0
2, 23880, Note_on_c, 0, 72, 88
2, 23939, Note_off_c, 0, 72, 0
2, 23940, Note_on_c, 0, 71, 88
2, 23999, Note_off_c, 0, 71, 0
2, 24000, Note_on_c, 0, 69, 88
2, 24059, Note_off_c, 0, 69, 0
2, 24060, Note_on_c, 0, 67, 88
2, 24119, Note_off_c, 0, 67, 0
2, 24120, Note_on_c, 0, 66, 88
2, 24179, Note_off_c, 0, 66, 0
2, 24180, Note_on_c, 0, 64, 88
2, 24239, Note_off_c, 0, 64, 0
2, 24240, Note_on_c, 0, 62, 88
2, 24299, Note_off_c, 0, 62, 0
2, 24300, Note_on_c, 0, 60, 88
2, 24359, Note_off_c, 0, 60, 0
2, 24360, Note_on_c, 0, 59, 88
2, 24419, Note_off_c, 0, 59, 0
2, 24420, Note_on_c, 0, 57, 88
2, 24479, Note_off_c, 0, 57, 0
2, 24480, Note_on_c, 0, 55, 88
2, 24539, Note_off_c, 0, 55, 0
2, 24540, Note_on_c, 0, 57, 88
2, 24599, Note_off_c, 0, 57, 0
2, 24600, Note_on_c, 0, 59, 88
2, 24659, Note_off_c, 0, 59, 0
2, 24660, Note_on_c, 0, 55, 88
2, 24719, Note_off_c, 0, 55, 0
2, 24720, Note_on_c, 0, 60, 88
2, 24779, Note_off_c, 0, 60, 0
2, 24780, Note_on_c, 0, 55, 88
2, 24839, Note_off_c, 0, 55, 0
2, 24840, Note_on_c, 0, 62, 88
2, 24899, Note_off_c, 0, 62, 0
2, 24900, Note_on_c, 0, 55, 88
2, 24959, Note_off_c, 0, 55, 0
2, 24960, Note_on_c, 0, 64, 88
2, 25019, Note_off_c, 0, 64, 0
2, 25020, Note_on_c, 0, 55, 88
2, 25079, Note_off_c, 0, 55, 0
2, 25080, Note_on_c, 0, 65, 88
2, 25139, Note_off_c, 0, 65, 0
2, 25140, Note_on_c, 0, 55, 88
2, 25199, Note_off_c, 0, 55, 0
2, 25200, Note_on_c, 0, 64, 88
2, 25259, Note_off_c, 0, 64, 0
2, 25260, Note_on_c, 0, 72, 88
2, 25319, Note_off_c, 0, 72, 0
2, 25320, Note_on_c, 0, 71, 88
2, 25379, Note_off_c, 0, 71, 0
2, 25380, Note_on_c, 0, 74, 88
2, 25439, Note_off_c, 0, 74, 0
2, 25440, Note_on_c, 0, 69, 88
2, 25499, Note_off_c, 0, 69, 0
2, 25500, Note_on_c, 0, 74, 88
2, 25559, Note_off_c, 0, 74, 0
2, 25560, Note_on_c, 0, 68, 88
2, 25619, Note_off_c, 0, 68, 0
2, 25620, Note_on_c, 0, 74, 88
2, 25679, Note_off_c, 0, 74, 0
2, 25680, Note_on_c, 0, 66, 88
2, 25739, Note_off_c, 0, 66, 0
2, 25740, Note_on_c, 0, 74, 88
2, 25799, Note_off_c, 0, 74, 0
2, 25800, Note_on_c, 0, 64, 88
2, 25859, Note_off_c, 0, 64, 0
2, 25860, Note_on_c, 0, 74, 88
2, 25919, Note_off_c, 0, 74, 0
2, 25920, Note_on_c, 0, 72, 88
2, 25979, Note_off_c, 0, 72, 0
2, 25980, Note_on_c, 0, 69, 88
2, 26039, Note_off_c, 0, 69, 0
2, 26040, Note_on_c, 0, 71, 88
2, 26099, Note_off_c, 0, 71, 0
2, 26100, Note_on_c, 0, 73, 88
2, 26159, Note_off_c, 0, 73, 0
2, 26160, Note_on_c, 0, 75, 88
2, 26219, Note_off_c, 0, 75, 0
2, 26220, Note_on_c, 0, 76, 88
2, 26279, Note_off_c, 0, 76, 0
2, 26280, Note_on_c, 0, 78, 88
2, 26339, Note_off_c, 0, 78, 0
2, 26340, Note_on_c, 0, 79, 88
2, 26399, Note_off_c, 0, 79, 0
2, 26400, Note_on_c, 0, 81, 88
2, 26459, Note_off_c, 0, 81, 0
2, 26460, Note_on_c, 0, 83, 88
2, 26519, Note_off_c, 0, 83, 0
2, 26520, Note_on_c, 0, 84, 88
2, 26579, Note_off_c, 0, 84, 0
2, 26580, Note_on_c, 0, 75, 88
2, 26639, Note_off_c, 0, 75, 0
2, 26640, Note_on_c, 0, 76, 88
2, 26759, Note_off_c, 0, 76, 0
2, 26760, Note_on_c, 0, 78, 88
2, 26819, Note_off_c, 0, 78, 0
2, 26820, Note_on_c, 0, 76, 88
2, 26879, Note_off_c, 0, 76, 0
2, 26880, Note_on_c, 0, 75, 88
2, 26939, Note_off_c, 0, 75, 0
2, 26940, Note_on_c, 0, 76, 88
2, 26999, Note_off_c, 0, 76, 0
2, 27000, Note_on_c, 0, 78, 88
2, 27119, Note_off_c, 0, 78, 0
2, 27120, Note_on_c, 0, 79, 88
2, 27179, Note_off_c, 0, 79, 0
2, 27180, Note_on_c, 0, 78, 88
2, 27239, Note_off_c, 0, 78, 0
2, 27240, Note_on_c, 0, 76, 88
2, 27299, Note_off_c, 0, 76, 0
2, 27300, Note_on_c, 0, 78, 88
2, 27359, Note_off_c, 0, 78, 0
2, 27360, Note_on_c, 0, 79, 88
2, 27479, Note_off_c, 0, 79, 0
2, 27480, Note_on_c, 0, 78, 88
2, 27599, Note_off_c, 0, 78, 0
2, 27600, Note_on_c, 0, 76, 88
2, 27719, Note_off_c, 0, 76, 0
2, 27720, Note_on_c, 0, 71, 88
2, 27839, Note_off_c, 0, 71, 0
2, 27840, Note_on_c, 0, 81, 88
2, 28079, Note_off_c, 0, 81, 0
2, 28080, Note_on_c, 0, 79, 88
2, 28199, Note_off_c, 0, 79, 0
2, 28200, Note_on_c, 0, 78, 88
2, 28319, Note_off_c, 0, 78, 0
2, 28320, Note_on_c, 0, 76, 88
2, 28439, Note_off_c, 0, 76, 0
2, 28440, Note_on_c, 0, 75, 88
2, 28559, Note_off_c, 0, 75, 0
2, 28560, Note_on_c, 0, 84, 88
2, 28799, Note_off_c, 0, 84, 0
2, 28800, Note_on_c, 0, 83, 88
2, 28919, Note_off_c, 0, 83, 0
2, 28920, Note_on_c, 0, 84, 88
2, 28979, Note_off_c, 0, 84, 0
2, 28980, Note_on_c, 0, 83, 88
2, 29039, Note_off_c, 0, 83, 0
2, 29040, Note_on_c, 0, 81, 88
2, 29099, Note_off_c, 0, 81, 0
2, 29100, Note_on_c, 0, 79, 88
2, 29159, Note_off_c, 0, 79, 0
2, 29160, Note_on_c, 0, 78, 88
2, 29279, Note_off_c, 0, 78, 0
2, 29280, Note_on_c, 0, 81, 88
2, 29339, Note_off_c, 0, 81, 0
2, 29340, Note_on_c, 0, 79, 88
2, 29399, Note_off_c, 0, 79, 0
2, 29400, Note_on_c, 0, 78, 88
2, 29459, Note_off_c, 0, 78, 0
2, 29460, Note_on_c, 0, 76, 88
2, 29519, Note_off_c, 0, 76, 0
2, 29520, Note_on_c, 0, 75, 88
2, 29639, Note_off_c, 0, 75, 0
2, 29640, Note_on_c, 0, 81, 88
2, 29759, Note_off_c, 0, 81, 0
2, 29760, Note_on_c, 0, 79, 88
2, 29879, Note_off_c, 0, 79, 0
2, 29880, Note_on_c, 0, 78, 88
2, 29999, Note_off_c, 0, 78, 0
2, 30000, Note_on_c, 0, 76, 88
2, 30119, Note_off_c, 0, 76, 0
2, 30120, Note_on_c, 0, 75, 88
2, 30239, Note_off_c, 0, 75, 0
2, 30240, Note_on_c, 0, 76, 88
2, 30359, Note_off_c, 0, 76, 0
2, 30360, Note_on_c, 0, 74, 88
2, 30479, Note_off_c, 0, 74, 0
2, 30480, Note_on_c, 0, 72, 88
2, 30599, Note_off_c, 0, 72, 0
2, 30600, Note_on_c, 0, 74, 88
2, 30719, Note_off_c, 0, 74, 0
2, 30720, Note_on_c, 0, 72, 88
2, 30839, Note_off_c, 0, 72, 0
2, 30840, Note_on_c, 0, 71, 88
2, 30959, Note_off_c, 0, 71, 0
2, 30960, Note_on_c, 0, 72, 88
2, 31019, Note_off_c, 0, 72, 0
2, 31020, Note_on_c, 0, 84, 88
2, 31079, Note_off_c, 0, 84, 0
2, 31080, Note_on_c, 0, 83, 88
2, 31139, Note_off_c, 0, 83, 0
2, 31140, Note_on_c, 0, 81, 88
2, 31199, Note_off_c, 0, 81, 0
2, 31200, Note_on_c, 0, 79, 88
2, 31259, Note_off_c, 0, 79, 0
2, 31260, Note_on_c, 0, 83, 88
2, 31319, Note_off_c, 0, 83, 0
2, 31320, Note_on_c, 0, 81, 88
2, 31379, Note_off_c, 0, 81, 0
2, 31380, Note_on_c, 0, 83, 88
2, 31439, Note_off_c, 0, 83, 0
2, 31440, Note_on_c, 0, 81, 88
2, 31499, Note_off_c, 0, 81, 0
2, 31500, Note_on_c, 0, 79, 88
2, 31559, Note_off_c, 0, 79, 0
2, 31560, Note_on_c, 0, 78, 88
2, 31619, Note_off_c, 0, 78, 0
2, 31620, Note_on_c, 0, 81, 88
2, 31679, Note_off_c, 0, 81, 0
2, 31680, Note_on_c, 0, 79, 88
2, 31739, Note_off_c, 0, 79, 0
2, 31740, Note_on_c, 0, 81, 88
2, 31799, Note_off_c, 0, 81, 0
2, 31800, Note_on_c, 0, 79, 88
2, 31859, Note_off_c, 0, 79, 0
2, 31860, Note_on_c, 0, 78, 88
2, 31919, Note_off_c, 0, 78, 0
2, 31920, Note_on_c, 0, 76, 88
2, 31979, Note_off_c, 0, 76, 0
2, 31980, Note_on_c, 0, 79, 88
2, 32039, Note_off_c, 0, 79, 0
2, 32040, Note_on_c, 0, 78, 88
2, 32099, Note_off_c, 0, 78, 0
2, 32100, Note_on_c, 0, 79, 88
2, 32159, Note_off_c, 0, 79, 0
2, 32160, Note_on_c, 0, 78, 88
2, 32219, Note_off_c, 0, 78, 0
2, 32220, Note_on_c, 0, 76, 88
2, 32279, Note_off_c, 0, 76, 0
2, 32280, Note_on_c, 0, 75, 88
2, 32339, Note_off_c, 0, 75, 0
2, 32340, Note_on_c, 0, 78, 88
2, 32399, Note_off_c, 0, 78, 0
2, 32400, Note_on_c, 0, 76, 88
2, 32519, Note_off_c, 0, 76, 0
2, 32520, Note_on_c, 0, 78, 88
2, 32579, Note_off_c, 0, 78, 0
2, 32580, Note_on_c, 0, 79, 88
2, 32639, Note_off_c, 0, 79, 0
2, 32640, Note_on_c, 0, 81, 88
2, 32879, Note_off_c, 0, 81, 0
2, 32880, Note_on_c, 0, 79, 88
2, 32939, Note_off_c, 0, 79, 0
2, 32940, Note_on_c, 0, 81, 88
2, 32999, Note_off_c, 0, 81, 0
2, 33000, Note_on_c, 0, 83, 88
2, 33239, Note_off_c, 0, 83, 0
2, 33240, Note_on_c, 0, 81, 88
2, 33359, Note_off_c, 0, 81, 0
2, 33360, Note_on_c, 0, 79, 88
2, 33479, Note_off_c, 0, 79, 0
2, 33480, Note_on_c, 0, 78, 88
2, 33539, Note_off_c, 0, 78, 0
2, 33540, Note_on_c, 0, 79, 88
2, 33599, Note_off_c, 0, 79, 0
2, 33600, Note_on_c, 0, 81, 88
2, 33719, Note_off_c, 0, 81, 0
2, 33720, Note_on_c, 0, 75, 88
2, 33839, Note_off_c, 0, 75, 0
2, 33840, Note_on_c, 0, 76, 88
2, 34079, Note_off_c, 0, 76, 0
2, 34080, Note_on_c, 0, 71, 88
2, 34199, Note_off_c, 0, 71, 0
2, 34200, Note_on_c, 0, 69, 88
2, 34799, Note_off_c, 0, 69, 0
2, 34800, Note_on_c, 0, 69, 88
2, 34919, Note_off_c, 0, 69, 0
2, 34920, Note_on_c, 0, 67, 88
2, 35519, Note_off_c, 0, 67, 0
2, 35520, Note_on_c, 0, 67, 88
2, 35639, Note_off_c, 0, 67, 0
2, 35640, Note_on_c, 0, 66, 88
2, 36059, Note_off_c, 0, 66, 0
2, 36060, Note_on_c, 0, 71, 88
2, 36119, Note_off_c, 0, 71, 0
2, 36120, Note_on_c, 0, 73, 88
2, 36179, Note_off_c, 0, 73, 0
2, 36180, Note_on_c, 0, 71, 88
2, 36239, Note_off_c, 0, 71, 0
2, 36240, Note_on_c, 0, 70, 88
2, 36299, Note_off_c, 0, 70, 0
2, 36300, Note_on_c, 0, 71, 88
2, 36359, Note_off_c, 0, 71, 0
2, 36360, Note_on_c, 0, 73, 88
2, 36479, Note_off_c, 0, 73, 0
2, 36480, Note_on_c, 0, 74, 88
2, 36539, Note_off_c, 0, 74, 0
2, 36540, Note_on_c, 0, 73, 88
2, 36599, Note_off_c, 0, 73, 0
2, 36600, Note_on_c, 0, 71, 88
2, 36659, Note_off_c, 0, 71, 0
2, 36660, Note_on_c, 0, 73, 88
2, 36719, Note_off_c, 0, 73, 0
2, 36720, Note_on_c, 0, 74, 88
2, 36839, Note_off_c, 0, 74, 0
2, 36840, Note_on_c, 0, 73, 88
2, 36959, Note_off_c, 0, 73, 0
2, 36960, Note_on_c, 0, 71, 88
2, 37079, Note_off_c, 0, 71, 0
2, 37080, Note_on_c, 0, 70, 88
2, 37199, Note_off_c, 0, 70, 0
2, 37200, Note_on_c, 0, 79, 88
2, 37439, Note_off_c, 0, 79, 0
2, 37440, Note_on_c, 0, 78, 88
2, 37559, Note_off_c, 0, 78, 0
2, 37560, Note_on_c, 0, 79, 88
2, 37619, Note_off_c, 0, 79, 0
2, 37620, Note_on_c, 0, 78, 88
2, 37679, Note_off_c, 0, 78, 0
2, 37680, Note_on_c, 0, 76, 88
2, 37739, Note_off_c, 0, 76, 0
2, 37740, Note_on_c, 0, 74, 88
2, 37799, Note_off_c, 0, 74, 0
2, 37800, Note_on_c, 0, 73, 88
2, 37919, Note_off_c, 0, 73, 0
2, 37920, Note_on_c, 0, 76, 88
2, 37979, Note_off_c, 0, 76, 0
2, 37980, Note_on_c, 0, 74, 88
2, 38039, Note_off_c, 0, 74, 0
2, 38040, Note_on_c, 0, 73, 88
2, 38099, Note_off_c, 0, 73, 0
2, 38100, Note_on_c, 0, 71, 88
2, 38159, Note_off_c, 0, 71, 0
2, 38160, Note_on_c, 0, 70, 88
2, 38219, Note_off_c, 0, 70, 0
2, 38220, Note_on_c, 0, 71, 88
2, 38279, Note_off_c, 0, 71, 0
2, 38280, Note_on_c, 0, 73, 88
2, 38339, Note_off_c, 0, 73, 0
2, 38340, Note_on_c, 0, 70, 88
2, 38399, Note_off_c, 0, 70, 0
2, 38400, Note_on_c, 0, 74, 88
2, 38459, Note_off_c, 0, 74, 0
2, 38460, Note_on_c, 0, 70, 88
2, 38519, Note_off_c, 0, 70, 0
2, 38520, Note_on_c, 0, 76, 88
2, 38579, Note_off_c, 0, 76, 0
2, 38580, Note_on_c, 0, 70, 88
2, 38639, Note_off_c, 0, 70, 0
2, 38640, Note_on_c, 0, 78, 88
2, 38699, Note_off_c, 0, 78, 0
2, 38700, Note_on_c, 0, 70, 88
2, 38759, Note_off_c, 0, 70, 0
2, 38760, Note_on_c, 0, 79, 88
2, 38819, Note_off_c, 0, 79, 0
2, 38820, Note_on_c, 0, 70, 88
2, 38879, Note_off_c, 0, 70, 0
2, 38880, Note_on_c, 0, 78, 88
2, 38939, Note_off_c, 0, 78, 0
2, 38940, Note_on_c, 0, 70, 88
2, 38999, Note_off_c, 0, 70, 0
2, 39000, Note_on_c, 0, 71, 88
2, 39059, Note_off_c, 0, 71, 0
2, 39060, Note_on_c, 0, 78, 88
2, 39119, Note_off_c, 0, 78, 0
2, 39120, Note_on_c, 0, 76, 88
2, 39149, Note_off_c, 0, 76, 0
2, 39150, Note_on_c, 0, 74, 88
2, 39179, Note_off_c, 0, 74, 0
2, 39180, Note_on_c, 0, 73, 88
2, 39209, Note_off_c, 0, 73, 0
2, 39210, Note_on_c, 0, 74, 88
2, 39239, Note_off_c, 0, 74, 0
2, 39240, Note_on_c, 0, 76, 88
2, 39299, Note_off_c, 0, 76, 0
2, 39300, Note_on_c, 0, 68, 88
2, 39359, Note_off_c, 0, 68, 0
2, 39360, Note_on_c, 0, 70, 88
2, 39419, Note_off_c, 0, 70, 0
2, 39420, Note_on_c, 0, 76, 88
2, 39479, Note_off_c, 0, 76, 0
2, 39480, Note_on_c, 0, 74, 88
2, 39509, Note_off_c, 0, 74, 0
2, 39510, Note_on_c, 0, 73, 88
2, 39539, Note_off_c, 0, 73, 0
2, 39540, Note_on_c, 0, 71, 88
2, 39569, Note_off_c, 0, 71, 0
2, 39570, Note_on_c, 0, 73, 88
2, 39599, Note_off_c, 0, 73, 0
2, 39600, Note_on_c, 0, 74, 88
2, 41099, Note_off_c, 0, 74, 0
2, 41100, Note_on_c, 0, 66, 88
2, 41129, Note_off_c, 0, 66, 0
2, 41130, Note_on_c, 0, 68, 88
2, 41159, Note_off_c, 0, 68, 0
2, 41160, Note_on_c, 0, 69, 88
2, 41219, Note_off_c, 0, 69, 0
2, 41220, Note_on_c, 0, 64, 88
2, 41279, Note_off_c, 0, 64, 0
2, 41280, Note_on_c, 0, 71, 88
2, 41339, Note_off_c, 0, 71, 0
2, 41340, Note_on_c, 0, 64, 88
2, 41399, Note_off_c, 0, 64, 0
2, 41400, Note_on_c, 0, 73, 88
2, 41459, Note_off_c, 0, 73, 0
2, 41460, Note_on_c, 0, 64, 88
2, 41519, Note_off_c, 0, 64, 0
2, 41520, Note_on_c, 0, 74, 88
2, 41579, Note_off_c, 0, 74, 0
2, 41580, Note_on_c, 0, 66, 88
2, 41639, Note_off_c, 0, 66, 0
2, 41640, Note_on_c, 0, 76, 88
2, 41699, Note_off_c, 0, 76, 0
2, 41700, Note_on_c, 0, 67, 88
2, 41759, Note_off_c, 0, 67, 0
2, 41760, Note_on_c, 0, 66, 88
2, 41819, Note_off_c, 0, 66, 0
2, 41820, Note_on_c, 0, 67, 88
2, 41849, Note_off_c, 0, 67, 0
2, 41850, Note_on_c, 0, 69, 88
2, 41879, Note_off_c, 0, 69, 0
2, 41880, Note_on_c, 0, 71, 88
2, 41939, Note_off_c, 0, 71, 0
2, 41940, Note_on_c, 0, 66, 88
2, 41999, Note_off_c, 0, 66, 0
2, 42000, Note_on_c, 0, 73, 88
2, 42059, Note_off_c, 0, 73, 0
2, 42060, Note_on_c, 0, 66, 88
2, 42119, Note_off_c, 0, 66, 0
2, 42120, Note_on_c, 0, 74, 88
2, 42179, Note_off_c, 0, 74, 0
2, 42180, Note_on_c, 0, 66, 88
2, 42239, Note_off_c, 0, 66, 0
2, 42240, Note_on_c, 0, 76, 88
2, 42299, Note_off_c, 0, 76, 0
2, 42300, Note_on_c, 0, 67, 88
2, 42359, Note_off_c, 0, 67, 0
2, 42360, Note_on_c, 0, 78, 88
2, 42419, Note_off_c, 0, 78, 0
2, 42420, Note_on_c, 0, 69, 88
2, 42479, Note_off_c, 0, 69, 0
2, 42480, Note_on_c, 0, 67, 88
2, 42539, Note_off_c, 0, 67, 0
2, 42540, Note_on_c, 0, 66, 88
2, 42599, Note_off_c, 0, 66, 0
2, 42600, Note_on_c, 0, 67, 88
2, 42659, Note_off_c, 0, 67, 0
2, 42660, Note_on_c, 0, 71, 88
2, 42719, Note_off_c, 0, 71, 0
2, 42720, Note_on_c, 0, 76, 88
2, 42779, Note_off_c, 0, 76, 0
2, 42780, Note_on_c, 0, 67, 88
2, 42839, Note_off_c, 0, 67, 0
2, 42840, Note_on_c, 0, 66, 88
2, 42899, Note_off_c, 0, 66, 0
2, 42900, Note_on_c, 0, 71, 88
2, 42959, Note_off_c, 0, 71, 0
2, 42960, Note_on_c, 0, 69, 88
2, 43019, Note_off_c, 0, 69, 0
2, 43020, Note_on_c, 0, 73, 88
2, 43079, Note_off_c, 0, 73, 0
2, 43080, Note_on_c, 0, 74, 88
2, 43319, Note_off_c, 0, 74, 0
2, 43320, Note_on_c, 0, 73, 88
2, 43559, Note_off_c, 0, 73, 0
2, 43560, Note_on_c, 0, 74, 88
2, 43679, Note_off_c, 0, 74, 0
2, 43680, Note_on_c, 0, 76, 88
2, 43739, Note_off_c, 0, 76, 0
2, 43740, Note_on_c, 0, 74, 88
2, 43799, Note_off_c, 0, 74, 0
2, 43800, Note_on_c, 0, 73, 88
2, 43859, Note_off_c, 0, 73, 0
2, 43860, Note_on_c, 0, 74, 88
2, 43919, Note_off_c, 0, 74, 0
2, 43920, Note_on_c, 0, 76, 88
2, 44039, Note_off_c, 0, 76, 0
2, 44040, Note_on_c, 0, 78, 88
2, 44099, Note_off_c, 0, 78, 0
2, 44100, Note_on_c, 0, 76, 88
2, 44159, Note_off_c, 0, 76, 0
2, 44160, Note_on_c, 0, 74, 88
2, 44219, Note_off_c, 0, 74, 0
2, 44220, Note_on_c, 0, 76, 88
2, 44279, Note_off_c, 0, 76, 0
2, 44280, Note_on_c, 0, 78, 88
2, 44399, Note_off_c, 0, 78, 0
2, 44400, Note_on_c, 0, 79, 88
2, 44459, Note_off_c, 0, 79, 0
2, 44460, Note_on_c, 0, 78, 88
2, 44519, Note_off_c, 0, 78, 0
2, 44520, Note_on_c, 0, 76, 88
2, 44579, Note_off_c, 0, 76, 0
2, 44580, Note_on_c, 0, 74, 88
2, 44639, Note_off_c, 0, 74, 0
2, 44640, Note_on_c, 0, 73, 88
2, 44759, Note_off_c, 0, 73, 0
2, 44760, Note_on_c, 0, 83, 88
2, 45059, Note_off_c, 0, 83, 0
2, 45060, Note_on_c, 0, 81, 88
2, 45119, Note_off_c, 0, 81, 0
2, 45120, Note_on_c, 0, 83, 88
2, 45179, Note_off_c, 0, 83, 0
2, 45180, Note_on_c, 0, 81, 88
2, 45239, Note_off_c, 0, 81, 0
2, 45240, Note_on_c, 0, 79, 88
2, 45299, Note_off_c, 0, 79, 0
2, 45300, Note_on_c, 0, 78, 88
2, 45359, Note_off_c, 0, 78, 0
2, 45360, Note_on_c, 0, 78, 88
2, 45393, Note_off_c, 0, 78, 0
2, 45394, Note_on_c, 0, 76, 88
2, 45423, Note_off_c, 0, 76, 0
2, 45424, Note_on_c, 0, 78, 88
2, 45453, Note_off_c, 0, 78, 0
2, 45454, Note_on_c, 0, 76, 88
2, 45483, Note_off_c, 0, 76, 0
2, 45484, Note_on_c, 0, 78, 88
2, 45513, Note_off_c, 0, 78, 0
2, 45514, Note_on_c, 0, 76, 88
2, 45543, Note_off_c, 0, 76, 0
2, 45544, Note_on_c, 0, 78, 88
2, 45573, Note_off_c, 0, 78, 0
2, 45574, Note_on_c, 0, 76, 88
2, 45603, Note_off_c, 0, 76, 0
2, 45604, Note_on_c, 0, 78, 88
2, 45633, Note_off_c, 0, 78, 0
2, 45634, Note_on_c, 0, 76, 88
2, 45663, Note_off_c, 0, 76, 0
2, 45664, Note_on_c, 0, 78, 88
2, 45693, Note_off_c, 0, 78, 0
2, 45694, Note_on_c, 0, 76, 88
2, 45723, Note_off_c, 0, 76, 0
2, 45724, Note_on_c, 0, 78, 88
2, 45753, Note_off_c, 0, 78, 0
2, 45754, Note_on_c, 0, 76, 88
2, 45783, Note_off_c, 0, 76, 0
2, 45784, Note_on_c, 0, 78, 88
2, 45813, Note_off_c, 0, 78, 0
2, 45814, Note_on_c, 0, 76, 88
2, 45843, Note_off_c, 0, 76, 0
2, 45844, Note_on_c, 0, 78, 88
2, 45873, Note_off_c, 0, 78, 0
2, 45874, Note_on_c, 0, 76, 88
2, 45903, Note_off_c, 0, 76, 0
2, 45904, Note_on_c, 0, 78, 88
2, 45933, Note_off_c, 0, 78, 0
2, 45934, Note_on_c, 0, 76, 88
2, 45959, Note_off_c, 0, 76, 0
2, 45960, Note_on_c, 0, 78, 88
2, 45985, Note_off_c, 0, 78, 0
2, 45986, Note_on_c, 0, 76, 88
2, 46079, Note_off_c, 0, 76, 0
2, 46080, Note_on_c, 0, 76, 88
2, 46139, Note_off_c, 0, 76, 0
2, 46140, Note_on_c, 0, 81, 88
2, 46169, Note_off_c, 0, 81, 0
2, 46170, Note_on_c, 0, 79, 88
2, 46199, Note_off_c, 0, 79, 0
2, 46200, Note_on_c, 0, 78, 88
2, 46259, Note_off_c, 0, 78, 0
2, 46260, Note_on_c, 0, 81, 88
2, 46319, Note_off_c, 0, 81, 0
2, 46320, Note_on_c, 0, 76, 88
2, 46379, Note_off_c, 0, 76, 0
2, 46380, Note_on_c, 0, 81, 88
2, 46439, Note_off_c, 0, 81, 0
2, 46440, Note_on_c, 0, 74, 88
2, 46499, Note_off_c, 0, 74, 0
2, 46500, Note_on_c, 0, 81, 88
2, 46559, Note_off_c, 0, 81, 0
2, 46560, Note_on_c, 0, 73, 88
2, 46619, Note_off_c, 0, 73, 0
2, 46620, Note_on_c, 0, 81, 88
2, 46679, Note_off_c, 0, 81, 0
2, 46680, Note_on_c, 0, 71, 88
2, 46739, Note_off_c, 0, 71, 0
2, 46740, Note_on_c, 0, 81, 88
2, 46799, Note_off_c, 0, 81, 0
2, 46800, Note_on_c, 0, 79, 88
2, 46859, Note_off_c, 0, 79, 0
2, 46860, Note_on_c, 0, 78, 88
2, 46919, Note_off_c, 0, 78, 0
2, 46920, Note_on_c, 0, 76, 88
2, 46979, Note_off_c, 0, 76, 0
2, 46980, Note_on_c, 0, 79, 88
2, 47039, Note_off_c, 0, 79, 0
2, 47040, Note_on_c, 0, 74, 88
2, 47099, Note_off_c, 0, 74, 0
2, 47100, Note_on_c, 0, 79, 88
2, 47159, Note_off_c, 0, 79, 0
2, 47160, Note_on_c, 0, 73, 88
2, 47219, Note_off_c, 0, 73, 0
2, 47220, Note_on_c, 0, 79, 88
2, 47279, Note_off_c, 0, 79, 0
2, 47280, Note_on_c, 0, 71, 88
2, 47339, Note_off_c, 0, 71, 0
2, 47340, Note_on_c, 0, 79, 88
2, 47399, Note_off_c, 0, 79, 0
2, 47400, Note_on_c, 0, 69, 88
2, 47459, Note_off_c, 0, 69, 0
2, 47460, Note_on_c, 0, 79, 88
2, 47519, Note_off_c, 0, 79, 0
2, 47520, Note_on_c, 0, 78, 88
2, 47579, Note_off_c, 0, 78, 0
2, 47580, Note_on_c, 0, 76, 88
2, 47639, Note_off_c, 0, 76, 0
2, 47640, Note_on_c, 0, 74, 88
2, 47699, Note_off_c, 0, 74, 0
2, 47700, Note_on_c, 0, 78, 88
2, 47759, Note_off_c, 0, 78, 0
2, 47760, Note_on_c, 0, 72, 88
2, 47819, Note_off_c, 0, 72, 0
2, 47820, Note_on_c, 0, 78, 88
2, 47879, Note_off_c, 0, 78, 0
2, 47880, Note_on_c, 0, 71, 88
2, 47939, Note_off_c, 0, 71, 0
2, 47940, Note_on_c, 0, 78, 88
2, 47999, Note_off_c, 0, 78, 0
2, 48000, Note_on_c, 0, 69, 88
2, 48059, Note_off_c, 0, 69, 0
2, 48060, Note_on_c, 0, 78, 88
2, 48119, Note_off_c, 0, 78, 0
2, 48120, Note_on_c, 0, 67, 88
2, 48179, Note_off_c, 0, 67, 0
2, 48180, Note_on_c, 0, 78, 88
2, 48239, Note_off_c, 0, 78, 0
2, 48240, Note_on_c, 0, 76, 88
2, 48299, Note_off_c, 0, 76, 0
2, 48300, Note_on_c, 0, 74, 88
2, 48359, Note_off_c, 0, 74, 0
2, 48360, Note_on_c, 0, 73, 88
2, 48419, Note_off_c, 0, 73, 0
2, 48420, Note_on_c, 0, 76, 88
2, 48479, Note_off_c, 0, 76, 0
2, 48480, Note_on_c, 0, 71, 88
2, 48539, Note_off_c, 0, 71, 0
2, 48540, Note_on_c, 0, 76, 88
2, 48599, Note_off_c, 0, 76, 0
2, 48600, Note_on_c, 0, 69, 88
2, 48659, Note_off_c, 0, 69, 0
2, 48660, Note_on_c, 0, 76, 88
2, 48719, Note_off_c, 0, 76, 0
2, 48720, Note_on_c, 0, 67, 88
2, 48779, Note_off_c, 0, 67, 0
2, 48780, Note_on_c, 0, 76, 88
2, 48839, Note_off_c, 0, 76, 0
2, 48840, Note_on_c, 0, 66, 88
2, 48899, Note_off_c, 0, 66, 0
2, 48900, Note_on_c, 0, 76, 88
2, 48959, Note_off_c, 0, 76, 0
2, 48960, Note_on_c, 0, 74, 88
2, 49019, Note_off_c, 0, 74, 0
2, 49020, Note_on_c, 0, 66, 88
2, 49079, Note_off_c, 0, 66, 0
2, 49080, Note_on_c, 0, 64, 88
2, 49139, Note_off_c, 0, 64, 0
2, 49140, Note_on_c, 0, 67, 88
2, 49199, Note_off_c, 0, 67, 0
2, 49200, Note_on_c, 0, 74, 88
2, 49259, Note_off_c, 0, 74, 0
2, 49260, Note_on_c, 0, 73, 88
2, 49319, Note_off_c, 0, 73, 0
2, 49320, Note_on_c, 0, 76, 88
2, 49349, Note_off_c, 0, 76, 0
2, 49350, Note_on_c, 0, 74, 88
2, 49379, Note_off_c, 0, 74, 0
2, 49380, Note_on_c, 0, 76, 88
2, 49409, Note_off_c, 0, 76, 0
2, 49410, Note_on_c, 0, 74, 88
2, 49439, Note_off_c, 0, 74, 0
2, 49440, Note_on_c, 0, 76, 88
2, 49469, Note_off_c, 0, 76, 0
2, 49470, Note_on_c, 0, 74, 88
2, 49499, Note_off_c, 0, 74, 0
2, 49500, Note_on_c, 0, 76, 88
2, 49529, Note_off_c, 0, 76, 0
2, 49530, Note_on_c, 0, 74, 88
2, 49559, Note_off_c, 0, 74, 0
2, 49560, Note_on_c, 0, 76, 88
2, 49589, Note_off_c, 0, 76, 0
2, 49590, Note_on_c, 0, 74, 88
2, 49619, Note_off_c, 0, 74, 0
2, 49620, Note_on_c, 0, 76, 88
2, 49649, Note_off_c, 0, 76, 0
2, 49650, Note_on_c, 0, 74, 88
2, 49679, Note_off_c, 0, 74, 0
2, 49680, Note_on_c, 0, 76, 88
2, 49713, Note_off_c, 0, 76, 0
2, 49714, Note_on_c, 0, 74, 88
2, 49743, Note_off_c, 0, 74, 0
2, 49744, Note_on_c, 0, 76, 88
2, 49773, Note_off_c, 0, 76, 0
2, 49774, Note_on_c, 0, 74, 88
2, 49803, Note_off_c, 0, 74, 0
2, 49804, Note_on_c, 0, 76, 88
2, 49833, Note_off_c, 0, 76, 0
2, 49834, Note_on_c, 0, 74, 88
2, 49863, Note_off_c, 0, 74, 0
2, 49864, Note_on_c, 0, 76, 88
2, 49893, Note_off_c, 0, 76, 0
2, 49894, Note_on_c, 0, 74, 88
2, 49923, Note_off_c, 0, 74, 0
2, 49924, Note_on_c, 0, 76, 88
2, 49953, Note_off_c, 0, 76, 0
2, 49954, Note_on_c, 0, 74, 88
2, 49983, Note_off_c, 0, 74, 0
2, 49984, Note_on_c, 0, 76, 88
2, 50013, Note_off_c, 0, 76, 0
2, 50014, Note_on_c, 0, 74, 88
2, 50043, Note_off_c, 0, 74, 0
2, 50044, Note_on_c, 0, 76, 88
2, 50073, Note_off_c, 0, 76, 0
2, 50074, Note_on_c, 0, 74, 88
2, 50103, Note_off_c, 0, 74, 0
2, 50104, Note_on_c, 0, 76, 88
2, 50133, Note_off_c, 0, 76, 0
2, 50134, Note_on_c, 0, 74, 88
2, 50163, Note_off_c, 0, 74, 0
2, 50164, Note_on_c, 0, 76, 88
2, 50193, Note_off_c, 0, 76, 0
2, 50194, Note_on_c, 0, 74, 88
2, 50223, Note_off_c, 0, 74, 0
2, 50224, Note_on_c, 0, 76, 88
2, 50253, Note_off_c, 0, 76, 0
2, 50254, Note_on_c, 0, 74, 88
2, 50283, Note_off_c, 0, 74, 0
2, 50284, Note_on_c, 0, 76, 88
2, 50313, Note_off_c, 0, 76, 0
2, 50314, Note_on_c, 0, 74, 88
2, 50339, Note_off_c, 0, 74, 0
2, 50340, Note_on_c, 0, 76, 88
2, 50365, Note_off_c, 0, 76, 0
2, 50366, Note_on_c, 0, 74, 88
2, 50399, Note_off_c, 0, 74, 0
2, 50400, Note_on_c, 0, 74, 88
2, 50519, Note_off_c, 0, 74, 0
2, 50520, Note_on_c, 0, 72, 88
2, 50879, Note_off_c, 0, 72, 0
2, 50880, Note_on_c, 0, 71, 88
2, 51239, Note_off_c, 0, 71, 0
2, 51240, Note_on_c, 0, 69, 88
2, 51539, Note_off_c, 0, 69, 0
2, 51540, Note_on_c, 0, 67, 88
2, 51599, Note_off_c, 0, 67, 0
2, 51600, Note_on_c, 0, 69, 88
2, 51659, Note_off_c, 0, 69, 0
2, 51660, Note_on_c, 0, 67, 88
2, 51719, Note_off_c, 0, 67, 0
2, 51720, Note_on_c, 0, 66, 88
2, 51779, Note_off_c, 0, 66, 0
2, 51780, Note_on_c, 0, 67, 88
2, 51839, Note_off_c, 0, 67, 0
2, 51840, Note_on_c, 0, 66, 88
2, 51899, Note_off_c, 0, 66, 0
2, 51900, Note_on_c, 0, 62, 88
2, 51929, Note_off_c, 0, 62, 0
2, 51930, Note_on_c, 0, 64, 88
2, 51959, Note_off_c, 0, 64, 0
2, 51960, Note_on_c, 0, 66, 88
2, 52019, Note_off_c, 0, 66, 0
2, 52020, Note_on_c, 0, 62, 88
2, 52079, Note_off_c, 0, 62, 0
2, 52080, Note_on_c, 0, 67, 88
2, 52139, Note_off_c, 0, 67, 0
2, 52140, Note_on_c, 0, 62, 88
2, 52199, Note_off_c, 0, 62, 0
2, 52200, Note_on_c, 0, 69, 88
2, 52259, Note_off_c, 0, 69, 0
2, 52260, Note_on_c, 0, 62, 88
2, 52319, Note_off_c, 0, 62, 0
2, 52320, Note_on_c, 0, 71, 88
2, 52379, Note_off_c, 0, 71, 0
2, 52380, Note_on_c, 0, 62, 88
2, 52439, Note_off_c, 0, 62, 0
2, 52440, Note_on_c, 0, 72, 88
2, 52499, Note_off_c, 0, 72, 0
2, 52500, Note_on_c, 0, 62, 88
2, 52559, Note_off_c, 0, 62, 0
2, 52560, Note_on_c, 0, 71, 88
2, 52619, Note_off_c, 0, 71, 0
2, 52620, Note_on_c, 0, 79, 88
2, 52679, Note_off_c, 0, 79, 0
2, 52680, Note_on_c, 0, 77, 88
2, 52739, Note_off_c, 0, 77, 0
2, 52740, Note_on_c, 0, 76, 88
2, 52799, Note_off_c, 0, 76, 0
2, 52800, Note_on_c, 0, 74, 88
2, 52859, Note_off_c, 0, 74, 0
2, 52860, Note_on_c, 0, 72, 88
2, 52919, Note_off_c, 0, 72, 0
2, 52920, Note_on_c, 0, 71, 88
2, 52979, Note_off_c, 0, 71, 0
2, 52980, Note_on_c, 0, 69, 88
2, 53039, Note_off_c, 0, 69, 0
2, 53040, Note_on_c, 0, 67, 88
2, 53099, Note_off_c, 0, 67, 0
2, 53100, Note_on_c, 0, 65, 88
2, 53159, Note_off_c, 0, 65, 0
2, 53160, Note_on_c, 0, 64, 88
2, 53219, Note_off_c, 0, 64, 0
2, 53220, Note_on_c, 0, 62, 88
2, 53279, Note_off_c, 0, 62, 0
2, 53280, Note_on_c, 0, 60, 88
2, 53339, Note_off_c, 0, 60, 0
2, 53340, Note_on_c, 0, 76, 88
2, 53399, Note_off_c, 0, 76, 0
2, 53400, Note_on_c, 0, 74, 88
2, 53459, Note_off_c, 0, 74, 0
2, 53460, Note_on_c, 0, 72, 88
2, 53519, Note_off_c, 0, 72, 0
2, 53520, Note_on_c, 0, 71, 88
2, 53579, Note_off_c, 0, 71, 0
2, 53580, Note_on_c, 0, 69, 88
2, 53639, Note_off_c, 0, 69, 0
2, 53640, Note_on_c, 0, 68, 88
2, 53699, Note_off_c, 0, 68, 0
2, 53700, Note_on_c, 0, 66, 88
2, 53759, Note_off_c, 0, 66, 0
2, 53760, Note_on_c, 0, 64, 88
2, 53819, Note_off_c, 0, 64, 0
2, 53820, Note_on_c, 0, 62, 88
2, 53879, Note_off_c, 0, 62, 0
2, 53880, Note_on_c, 0, 60, 88
2, 53939, Note_off_c, 0, 60, 0
2, 53940, Note_on_c, 0, 59, 88
2, 53999, Note_off_c, 0, 59, 0
2, 54000, Note_on_c, 0, 57, 88
2, 54059, Note_off_c, 0, 57, 0
2, 54060, Note_on_c, 0, 59, 88
2, 54119, Note_off_c, 0, 59, 0
2, 54120, Note_on_c, 0, 61, 88
2, 54179, Note_off_c, 0, 61, 0
2, 54180, Note_on_c, 0, 57, 88
2, 54239, Note_off_c, 0, 57, 0
2, 54240, Note_on_c, 0, 62, 88
2, 54299, Note_off_c, 0, 62, 0
2, 54300, Note_on_c, 0, 57, 88
2, 54359, Note_off_c, 0, 57, 0
2, 54360, Note_on_c, 0, 64, 88
2, 54419, Note_off_c, 0, 64, 0
2, 54420, Note_on_c, 0, 57, 88
2, 54479, Note_off_c, 0, 57, 0
2, 54480, Note_on_c, 0, 66, 88
2, 54539, Note_off_c, 0, 66, 0
2, 54540, Note_on_c, 0, 57, 88
2, 54599, Note_off_c, 0, 57, 0
2, 54600, Note_on_c, 0, 67, 88
2, 54659, Note_off_c, 0, 67, 0
2, 54660, Note_on_c, 0, 57, 88
2, 54719, Note_off_c, 0, 57, 0
2, 54720, Note_on_c, 0, 66, 88
2, 54839, Note_off_c, 0, 66, 0
2, 54840, Note_on_c, 0, 71, 88
2, 54959, Note_off_c, 0, 71, 0
2, 54960, Note_on_c, 0, 67, 88
2, 55079, Note_off_c, 0, 67, 0
2, 55080, Note_on_c, 0, 64, 88
2, 55199, Note_off_c, 0, 64, 0
2, 55200, Note_on_c, 0, 69, 88
2, 55319, Note_off_c, 0, 69, 0
2, 55320, Note_on_c, 0, 66, 88
2, 55439, Note_off_c, 0, 66, 0
2, 55440, Note_on_c, 0, 67, 88
2, 55859, Note_off_c, 0, 67, 0
2, 55860, Note_on_c, 0, 69, 88
2, 55919, Note_off_c, 0, 69, 0
2, 55920, Note_on_c, 0, 71, 88
2, 55942, Note_off_c, 0, 71, 0
2, 55943, Note_on_c, 0, 69, 88
2, 55964, Note_off_c, 0, 69, 0
2, 55965, Note_on_c, 0, 71, 88
2, 55987, Note_off_c, 0, 71, 0
2, 55988, Note_on_c, 0, 69, 88
2, 56009, Note_off_c, 0, 69, 0
2, 56010, Note_on_c, 0, 71, 88
2, 56032, Note_off_c, 0, 71, 0
2, 56033, Note_on_c, 0, 69, 88
2, 56054, Note_off_c, 0, 69, 0
2, 56055, Note_on_c, 0, 71, 88
2, 56077, Note_off_c, 0, 71, 0
2, 56078, Note_on_c, 0, 69, 88
2, 56099, Note_off_c, 0, 69, 0
2, 56100, Note_on_c, 0, 67, 88
2, 56129, Note_off_c, 0, 67, 0
2, 56130, Note_on_c, 0, 69, 88
2, 56159, Note_off_c, 0, 69, 0
2, 56160, Note_on_c, 0, 71, 88
2, 56279, Note_off_c, 0, 71, 0
2, 56280, Note_on_c, 0, 72, 88
2, 56339, Note_off_c, 0, 72, 0
2, 56340, Note_on_c, 0, 71, 88
2, 56399, Note_off_c, 0, 71, 0
2, 56400, Note_on_c, 0, 69, 88
2, 56459, Note_off_c, 0, 69, 0
2, 56460, Note_on_c, 0, 71, 88
2, 56519, Note_off_c, 0, 71, 0
2, 56520, Note_on_c, 0, 72, 88
2, 56639, Note_off_c, 0, 72, 0
2, 56640, Note_on_c, 0, 74, 88
2, 56699, Note_off_c, 0, 74, 0
2, 56700, Note_on_c, 0, 72, 88
2, 56759, Note_off_c, 0, 72, 0
2, 56760, Note_on_c, 0, 71, 88
2, 56819, Note_off_c, 0, 71, 0
2, 56820, Note_on_c, 0, 72, 88
2, 56879, Note_off_c, 0, 72, 0
2, 56880, Note_on_c, 0, 74, 88
2, 56999, Note_off_c, 0, 74, 0
2, 57000, Note_on_c, 0, 72, 88
2, 57119, Note_off_c, 0, 72, 0
2, 57120, Note_on_c, 0, 71, 88
2, 57239, Note_off_c, 0, 71, 0
2, 57240, Note_on_c, 0, 69, 88
2, 57359, Note_off_c, 0, 69, 0
2, 57360, Note_on_c, 0, 79, 88
2, 57599, Note_off_c, 0, 79, 0
2, 57600, Note_on_c, 0, 78, 88
2, 57719, Note_off_c, 0, 78, 0
2, 57720, Note_on_c, 0, 76, 88
2, 57839, Note_off_c, 0, 76, 0
2, 57840, Note_on_c, 0, 74, 88
2, 57959, Note_off_c, 0, 74, 0
2, 57960, Note_on_c, 0, 73, 88
2, 58079, Note_off_c, 0, 73, 0
2, 58080, Note_on_c, 0, 82, 88
2, 58319, Note_off_c, 0, 82, 0
2, 58320, Note_on_c, 0, 81, 88
2, 58379, Note_off_c, 0, 81, 0
2, 58380, Note_on_c, 0, 79, 88
2, 58439, Note_off_c, 0, 79, 0
2, 58440, Note_on_c, 0, 78, 88
2, 58499, Note_off_c, 0, 78, 0
2, 58500, Note_on_c, 0, 76, 88
2, 58559, Note_off_c, 0, 76, 0
2, 58560, Note_on_c, 0, 74, 88
2, 58739, Note_off_c, 0, 74, 0
2, 58740, Note_on_c, 0, 79, 88
2, 58859, Note_off_c, 0, 79, 0
2, 58860, Note_on_c, 0, 72, 88
2, 58919, Note_off_c, 0, 72, 0
2, 58920, Note_on_c, 0, 79, 88
2, 58979, Note_off_c, 0, 79, 0
2, 58980, Note_on_c, 0, 78, 88
2, 59039, Note_off_c, 0, 78, 0
2, 59040, Note_on_c, 0, 79, 88
2, 59099, Note_off_c, 0, 79, 0
2, 59100, Note_on_c, 0, 78, 88
2, 59129, Note_off_c, 0, 78, 0
2, 59130, Note_on_c, 0, 76, 88
2, 59159, Note_off_c, 0, 76, 0
2, 59160, Note_on_c, 0, 74, 88
2, 59219, Note_off_c, 0, 74, 0
2, 59220, Note_on_c, 0, 79, 88
2, 59279, Note_off_c, 0, 79, 0
2, 59280, Note_on_c, 0, 72, 88
2, 59339, Note_off_c, 0, 72, 0
2, 59340, Note_on_c, 0, 79, 88
2, 59399, Note_off_c, 0, 79, 0
2, 59400, Note_on_c, 0, 71, 88
2, 59519, Note_off_c, 0, 71, 0
2, 59520, Note_on_c, 0, 79, 88
2, 59639, Note_off_c, 0, 79, 0
2, 59640, Note_on_c, 0, 69, 88
2, 59759, Note_off_c, 0, 69, 0
2, 59760, Note_on_c, 0, 71, 88
2, 59819, Note_off_c, 0, 71, 0
2, 59820, Note_on_c, 0, 74, 88
2, 59849, Note_off_c, 0, 74, 0
2, 59850, Note_on_c, 0, 72, 88
2, 59879, Note_off_c, 0, 72, 0
2, 59880, Note_on_c, 0, 71, 88
2, 59939, Note_off_c, 0, 71, 0
2, 59940, Note_on_c, 0, 74, 88
2, 59999, Note_off_c, 0, 74, 0
2, 60000, Note_on_c, 0, 69, 88
2, 60059, Note_off_c, 0, 69, 0
2, 60060, Note_on_c, 0, 74, 88
2, 60119, Note_off_c, 0, 74, 0
2, 60120, Note_on_c, 0, 67, 88
2, 60239, Note_off_c, 0, 67, 0
2, 60240, Note_on_c, 0, 72, 88
2, 60509, Note_off_c, 0, 72, 0
2, 60510, Note_on_c, 0, 67, 88
2, 60539, Note_off_c, 0, 67, 0
2, 60540, Note_on_c, 0, 69, 88
2, 60569, Note_off_c, 0, 69, 0
2, 60570, Note_on_c, 0, 71, 88
2, 60599, Note_off_c, 0, 71, 0
2, 60600, Note_on_c, 0, 72, 88
2, 60659, Note_off_c, 0, 72, 0
2, 60660, Note_on_c, 0, 67, 88
2, 60719, Note_off_c, 0, 67, 0
2, 60720, Note_on_c, 0, 74, 88
2, 60779, Note_off_c, 0, 74, 0
2, 60780, Note_on_c, 0, 67, 88
2, 60839, Note_off_c, 0, 67, 0
2, 60840, Note_on_c, 0, 76, 88
2, 60869, Note_off_c, 0, 76, 0
2, 60870, Note_on_c, 0, 71, 88
2, 60899, Note_off_c, 0, 71, 0
2, 60900, Note_on_c, 0, 72, 88
2, 60929, Note_off_c, 0, 72, 0
2, 60930, Note_on_c, 0, 74, 88
2, 60959, Note_off_c, 0, 74, 0
2, 60960, Note_on_c, 0, 76, 88
2, 61019, Note_off_c, 0, 76, 0
2, 61020, Note_on_c, 0, 72, 88
2, 61079, Note_off_c, 0, 72, 0
2, 61080, Note_on_c, 0, 78, 88
2, 61139, Note_off_c, 0, 78, 0
2, 61140, Note_on_c, 0, 72, 88
2, 61199, Note_off_c, 0, 72, 0
2, 61200, Note_on_c, 0, 79, 88
2, 61499, Note_off_c, 0, 79, 0
2, 61500, Note_on_c, 0, 78, 88
2, 61559, Note_off_c, 0, 78, 0
2, 61560, Note_on_c, 0, 79, 88
2, 61600, Note_off_c, 0, 79, 0
2, 61600, End_track
0, 0, End_of_file