0, 0, Header, 1, 2, 240
1, 0, Start_track
1, 0, Time_signature, 4, 2, 24, 8
1, 0, Tempo, 895522
1, 0, SMPTE_offset, 64, 0, 0, 0, 100
1, 0, End_track
2, 0, Start_track
2, 0, Title_t, "Track 1"
2, 0, Program_c, 0, 6
2, 4080, Note_on_c, 0, 68, 88
2, 4199, Note_off_c, 0, 68, 0
2, 4200, Note_on_c, 0, 75, 88
2, 4319, Note_off_c, 0, 75, 0
2, 4320, Note_on_c, 0, 72, 88
2, 4439, Note_off_c, 0, 72, 0
2, 4440, Note_on_c, 0, 68, 88
2, 4559, Note_off_c, 0, 68, 0
2, 4560, Note_on_c, 0, 77, 88
2, 4679, Note_off_c, 0, 77, 0
2, 4680, Note_on_c, 0, 73, 88
2, 4799, Note_off_c, 0, 73, 0
2, 4800, Note_on_c, 0, 75, 88
2, 5519, Note_off_c, 0, 75, 0
2, 5520, Note_on_c, 0, 80, 88
2, 5759, Note_off_c, 0, 80, 0
2, 5760, Note_on_c, 0, 80, 88
2, 5999, Note_off_c, 0, 80, 0
2, 6000, Note_on_c, 0, 79, 88
2, 6239, Note_off_c, 0, 79, 0
2, 6240, Note_on_c, 0, 77, 88
2, 6779, Note_off_c, 0, 77, 0
2, 6780, Note_on_c, 0, 70, 88
2, 6839, Note_off_c, 0, 70, 0
2, 6840, Note_on_c, 0, 72, 88
2, 6899, Note_off_c, 0, 72, 0
2, 6900, Note_on_c, 0, 74, 88
2, 6959, Note_off_c, 0, 74, 0
2, 6960, Note_on_c, 0, 75, 88
2, 7319, Note_off_c, 0, 75, 0
2, 7320, Note_on_c, 0, 80, 88
2, 7439, Note_off_c, 0, 80, 0
2, 7440, Note_on_c, 0, 73, 88
2, 7559, Note_off_c, 0, 73, 0
2, 7560, Note_on_c, 0, 82, 88
2, 7679, Note_off_c, 0, 82, 0
2, 7680, Note_on_c, 0, 73, 88
2, 7919, Note_off_c, 0, 73, 0
2, 7920, Note_on_c, 0, 72, 88
2, 8159, Note_off_c, 0, 72, 0
2, 8160, Note_on_c, 0, 70, 88
2, 8639, Note_off_c, 0, 70, 0
2, 8640, Note_on_c, 0, 68, 88
2, 9179, Note_off_c, 0, 68, 0
2, 9180, Note_on_c, 0, 68, 88
2, 9239, Note_off_c, 0, 68, 0
2, 9240, Note_on_c, 0, 70, 88
2, 9299, Note_off_c, 0, 70, 0
2, 9300, Note_on_c, 0, 72, 88
2, 9359, Note_off_c, 0, 72, 0
2, 9360, Note_on_c, 0, 73, 88
2, 9659, Note_off_c, 0, 73, 0
2, 9660, Note_on_c, 0, 70, 88
2, 9719, Note_off_c, 0, 70, 0
2, 9720, Note_on_c, 0, 72, 88
2, 9779, Note_off_c, 0, 72, 0
2, 9780, Note_on_c, 0, 75, 88
2, 9839, Note_off_c, 0, 75, 0
2, 9840, Note_on_c, 0, 80, 88
2, 9899, Note_off_c, 0, 80, 0
2, 9900, Note_on_c, 0, 79, 88
2, 9959, Note_off_c, 0, 79, 0
2, 9960, Note_on_c, 0, 80, 88
2, 10019, Note_off_c, 0, 80, 0
2, 10020, Note_on_c, 0, 82, 88
2, 10079, Note_off_c, 0, 82, 0
2, 10080, Note_on_c, 0, 84, 88
2, 10139, Note_off_c, 0, 84, 0
2, 10140, Note_on_c, 0, 82, 88
2, 10199, Note_off_c, 0, 82, 0
2, 10200, Note_on_c, 0, 80, 88
2, 10259, Note_off_c, 0, 80, 0
2, 10260, Note_on_c, 0, 79, 88
2, 10319, Note_off_c, 0, 79, 0
2, 10320, Note_on_c, 0, 77, 88
2, 10379, Note_off_c, 0, 77, 0
2, 10380, Note_on_c, 0, 79, 88
2, 10439, Note_off_c, 0, 79, 0
2, 10440, Note_on_c, 0, 80, 88
2, 10499, Note_off_c, 0, 80, 0
2, 10500, Note_on_c, 0, 84, 88
2, 10559, Note_off_c, 0, 84, 0
2, 10560, Note_on_c, 0, 82, 88
2, 10619, Note_off_c, 0, 82, 0
2, 10620, Note_on_c, 0, 80, 88
2, 10679, Note_off_c, 0, 80, 0
2, 10680, Note_on_c, 0, 79, 88
2, 10739, Note_off_c, 0, 79, 0
2, 10740, Note_on_c, 0, 77, 88
2, 10799, Note_off_c, 0, 77, 0
2, 10800, Note_on_c, 0, 75, 88
2, 10859, Note_off_c, 0, 75, 0
2, 10860, Note_on_c, 0, 77, 88
2, 10919, Note_off_c, 0, 77, 0
2, 10920, Note_on_c, 0, 79, 88
2, 10979, Note_off_c, 0, 79, 0
2, 10980, Note_on_c, 0, 82, 88
2, 11039, Note_off_c, 0, 82, 0
2, 11040, Note_on_c, 0, 80, 88
2, 11099, Note_off_c, 0, 80, 0
2, 11100, Note_on_c, 0, 79, 88
2, 11159, Note_off_c, 0, 79, 0
2, 11160, Note_on_c, 0, 77, 88
2, 11219, Note_off_c, 0, 77, 0
2, 11220, Note_on_c, 0, 75, 88
2, 11279, Note_off_c, 0, 75, 0
2, 11280, Note_on_c, 0, 74, 88
2, 11339, Note_off_c, 0, 74, 0
2, 11340, Note_on_c, 0, 75, 88
2, 11399, Note_off_c, 0, 75, 0
2, 11400, Note_on_c, 0, 77, 88
2, 11459, Note_off_c, 0, 77, 0
2, 11460, Note_on_c, 0, 80, 88
2, 11519, Note_off_c, 0, 80, 0
2, 11520, Note_on_c, 0, 79, 88
2, 11579, Note_off_c, 0, 79, 0
2, 11580, Note_on_c, 0, 77, 88
2, 11639, Note_off_c, 0, 77, 0
2, 11640, Note_on_c, 0, 76, 88
2, 11699, Note_off_c, 0, 76, 0
2, 11700, Note_on_c, 0, 79, 88
2, 11759, Note_off_c, 0, 79, 0
2, 11760, Note_on_c, 0, 77, 88
2, 11819, Note_off_c, 0, 77, 0
2, 11820, Note_on_c, 0, 76, 88
2, 11879, Note_off_c, 0, 76, 0
2, 11880, Note_on_c, 0, 77, 88
2, 11939, Note_off_c, 0, 77, 0
2, 11940, Note_on_c, 0, 79, 88
2, 11999, Note_off_c, 0, 79, 0
2, 12000, Note_on_c, 0, 72, 88
2, 12119, Note_off_c, 0, 72, 0
2, 12120, Note_on_c, 0, 77, 88
2, 12359, Note_off_c, 0, 77, 0
2, 12360, Note_on_c, 0, 79, 88
2, 12419, Note_off_c, 0, 79, 0
2, 12420, Note_on_c, 0, 76, 88
2, 12479, Note_off_c, 0, 76, 0
2, 12480, Note_on_c, 0, 77, 88
2, 12539, Note_off_c, 0, 77, 0
2, 12540, Note_on_c, 0, 76, 88
2, 12599, Note_off_c, 0, 76, 0
2, 12600, Note_on_c, 0, 77, 88
2, 12659, Note_off_c, 0, 77, 0
2, 12660, Note_on_c, 0, 79, 88
2, 12719, Note_off_c, 0, 79, 0
2, 12720, Note_on_c, 0, 80, 88
2, 13199, Note_off_c, 0, 80, 0
2, 13200, Note_on_c, 0, 79, 88
2, 13679, Note_off_c, 0, 79, 0
2, 13680, Note_on_c, 0, 77, 88
2, 14159, Note_off_c, 0, 77, 0
2, 14160, Note_on_c, 0, 77, 88
2, 14189, Note_off_c, 0, 77, 0
2, 14190, Note_on_c, 0, 76, 88
2, 14219, Note_off_c, 0, 76, 0
2, 14220, Note_on_c, 0, 77, 88
2, 14249, Note_off_c, 0, 77, 0
2, 14250, Note_on_c, 0, 76, 88
2, 14272, Note_off_c, 0, 76, 0
2, 14273, Note_on_c, 0, 77, 88
2, 14294, Note_off_c, 0, 77, 0
2, 14295, Note_on_c, 0, 76, 88
2, 14317, Note_off_c, 0, 76, 0
2, 14318, Note_on_c, 0, 77, 88
2, 14339, Note_off_c, 0, 77, 0
2, 14340, Note_on_c, 0, 76, 88
2, 14362, Note_off_c, 0, 76, 0
2, 14363, Note_on_c, 0, 74, 88
2, 14384, Note_off_c, 0, 74, 0
2, 14385, Note_on_c, 0, 76, 88
2, 14399, Note_off_c, 0, 76, 0
2, 14400, Note_on_c, 0, 77, 88
2, 14699, Note_off_c, 0, 77, 0
2, 14700, Note_on_c, 0, 75, 88
2, 14759, Note_off_c, 0, 75, 0
2, 14760, Note_on_c, 0, 73, 88
2, 14819, Note_off_c, 0, 73, 0
2, 14820, Note_on_c, 0, 72, 88
2, 14879, Note_off_c, 0, 72, 0
2, 14880, Note_on_c, 0, 70, 88
2, 14939, Note_off_c, 0, 70, 0
2, 14940, Note_on_c, 0, 68, 88
2, 14999, Note_off_c, 0, 68, 0
2, 15000, Note_on_c, 0, 67, 88
2, 15059, Note_off_c, 0, 67, 0
2, 15060, Note_on_c, 0, 68, 88
2, 15119, Note_off_c, 0, 68, 0
2, 15120, Note_on_c, 0, 70, 88
2, 15179, Note_off_c, 0, 70, 0
2, 15180, Note_on_c, 0, 73, 88
2, 15239, Note_off_c, 0, 73, 0
2, 15240, Note_on_c, 0, 72, 88
2, 15299, Note_off_c, 0, 72, 0
2, 15300, Note_on_c, 0, 70, 88
2, 15359, Note_off_c, 0, 70, 0
2, 15360, Note_on_c, 0, 69, 88
2, 15419, Note_off_c, 0, 69, 0
2, 15420, Note_on_c, 0, 72, 88
2, 15479, Note_off_c, 0, 72, 0
2, 15480, Note_on_c, 0, 73, 88
2, 15539, Note_off_c, 0, 73, 0
2, 15540, Note_on_c, 0, 75, 88
2, 15599, Note_off_c, 0, 75, 0
2, 15600, Note_on_c, 0, 77, 88
2, 15659, Note_off_c, 0, 77, 0
2, 15660, Note_on_c, 0, 75, 88
2, 15719, Note_off_c, 0, 75, 0
2, 15720, Note_on_c, 0, 73, 88
2, 15779, Note_off_c, 0, 73, 0
2, 15780, Note_on_c, 0, 72, 88
2, 15839, Note_off_c, 0, 72, 0
2, 15840, Note_on_c, 0, 70, 88
2, 15899, Note_off_c, 0, 70, 0
2, 15900, Note_on_c, 0, 73, 88
2, 15959, Note_off_c, 0, 73, 0
2, 15960, Note_on_c, 0, 78, 88
2, 16019, Note_off_c, 0, 78, 0
2, 16020, Note_on_c, 0, 77, 88
2, 16079, Note_off_c, 0, 77, 0
2, 16080, Note_on_c, 0, 75, 88
2, 16139, Note_off_c, 0, 75, 0
2, 16140, Note_on_c, 0, 73, 88
2, 16199, Note_off_c, 0, 73, 0
2, 16200, Note_on_c, 0, 72, 88
2, 16259, Note_off_c, 0, 72, 0
2, 16260, Note_on_c, 0, 70, 88
2, 16319, Note_off_c, 0, 70, 0
2, 16320, Note_on_c, 0, 69, 88
2, 16559, Note_off_c, 0, 69, 0
2, 16560, Note_on_c, 0, 70, 88
2, 16619, Note_off_c, 0, 70, 0
2, 16620, Note_on_c, 0, 72, 88
2, 16679, Note_off_c, 0, 72, 0
2, 16680, Note_on_c, 0, 73, 88
2, 16919, Note_off_c, 0, 73, 0
2, 16920, Note_on_c, 0, 72, 88
2, 16979, Note_off_c, 0, 72, 0
2, 16980, Note_on_c, 0, 73, 88
2, 17039, Note_off_c, 0, 73, 0
2, 17040, Note_on_c, 0, 75, 88
2, 17339, Note_off_c, 0, 75, 0
2, 17340, Note_on_c, 0, 72, 88
2, 17399, Note_off_c, 0, 72, 0
2, 17400, Note_on_c, 0, 73, 88
2, 17459, Note_off_c, 0, 73, 0
2, 17460, Note_on_c, 0, 77, 88
2, 17519, Note_off_c, 0, 77, 0
2, 17520, Note_on_c, 0, 82, 88
2, 17639, Note_off_c, 0, 82, 0
2, 17640, Note_on_c, 0, 77, 88
2, 17759, Note_off_c, 0, 77, 0
2, 17760, Note_on_c, 0, 78, 88
2, 17879, Note_off_c, 0, 78, 0
2, 17880, Note_on_c, 0, 75, 88
2, 17999, Note_off_c, 0, 75, 0
2, 18000, Note_on_c, 0, 80, 88
2, 18119, Note_off_c, 0, 80, 0
2, 18120, Note_on_c, 0, 75, 88
2, 18239, Note_off_c, 0, 75, 0
2, 18240, Note_on_c, 0, 77, 88
2, 18359, Note_off_c, 0, 77, 0
2, 18360, Note_on_c, 0, 73, 88
2, 18419, Note_off_c, 0, 73, 0
2, 18420, Note_on_c, 0, 77, 88
2, 18479, Note_off_c, 0, 77, 0
2, 18480, Note_on_c, 0, 78, 88
2, 18599, Note_off_c, 0, 78, 0
2, 18600, Note_on_c, 0, 73, 88
2, 18719, Note_off_c, 0, 73, 0
2, 18720, Note_on_c, 0, 75, 88
2, 18839, Note_off_c, 0, 75, 0
2, 18840, Note_on_c, 0, 72, 88
2, 18959, Note_off_c, 0, 72, 0
2, 18960, Note_on_c, 0, 77, 88
2, 19079, Note_off_c, 0, 77, 0
2, 19080, Note_on_c, 0, 72, 88
2, 19199, Note_off_c, 0, 72, 0
2, 19200, Note_on_c, 0, 73, 88
2, 19919, Note_off_c, 0, 73, 0
2, 19920, Note_on_c, 0, 72, 88
2, 20039, Note_off_c, 0, 72, 0
2, 20040, Note_on_c, 0, 77, 88
2, 20159, Note_off_c, 0, 77, 0
2, 20160, Note_on_c, 0, 74, 88
2, 20279, Note_off_c, 0, 74, 0
2, 20280, Note_on_c, 0, 70, 88
2, 20399, Note_off_c, 0, 70, 0
2, 20400, Note_on_c, 0, 75, 88
2, 20879, Note_off_c, 0, 75, 0
2, 20880, Note_on_c, 0, 75, 88
2, 20909, Note_off_c, 0, 75, 0
2, 20910, Note_on_c, 0, 74, 88
2, 20939, Note_off_c, 0, 74, 0
2, 20940, Note_on_c, 0, 75, 88
2, 20969, Note_off_c, 0, 75, 0
2, 20970, Note_on_c, 0, 74, 88
2, 20992, Note_off_c, 0, 74, 0
2, 20993, Note_on_c, 0, 75, 88
2, 21014, Note_off_c, 0, 75, 0
2, 21015, Note_on_c, 0, 74, 88
2, 21037, Note_off_c, 0, 74, 0
2, 21038, Note_on_c, 0, 75, 88
2, 21059, Note_off_c, 0, 75, 0
2, 21060, Note_on_c, 0, 74, 88
2, 21082, Note_off_c, 0, 74, 0
2, 21083, Note_on_c, 0, 72, 88
2, 21104, Note_off_c, 0, 72, 0
2, 21105, Note_on_c, 0, 74, 88
2, 21119, Note_off_c, 0, 74, 0
2, 21120, Note_on_c, 0, 75, 88
2, 22319, Note_off_c, 0, 75, 0
2, 22320, Note_on_c, 0, 68, 88
2, 22439, Note_off_c, 0, 68, 0
2, 22440, Note_on_c, 0, 75, 88
2, 22559, Note_off_c, 0, 75, 0
2, 22560, Note_on_c, 0, 72, 88
2, 22679, Note_off_c, 0, 72, 0
2, 22680, Note_on_c, 0, 68, 88
2, 22799, Note_off_c, 0, 68, 0
2, 22800, Note_on_c, 0, 78, 88
2, 22919, Note_off_c, 0, 78, 0
2, 22920, Note_on_c, 0, 75, 88
2, 23039, Note_off_c, 0, 75, 0
2, 23040, Note_on_c, 0, 77, 88
2, 23279, Note_off_c, 0, 77, 0
2, 23280, Note_on_c, 0, 77, 88
2, 23399, Note_off_c, 0, 77, 0
2, 23400, Note_on_c, 0, 79, 88
2, 23519, Note_off_c, 0, 79, 0
2, 23520, Note_on_c, 0, 75, 88
2, 23759, Note_off_c, 0, 75, 0
2, 23760, Note_on_c, 0, 75, 88
2, 23879, Note_off_c, 0, 75, 0
2, 23880, Note_on_c, 0, 77, 88
2, 23999, Note_off_c, 0, 77, 0
2, 24000, Note_on_c, 0, 73, 88
2, 24239, Note_off_c, 0, 73, 0
2, 24240, Note_on_c, 0, 73, 88
2, 24359, Note_off_c, 0, 73, 0
2, 24360, Note_on_c, 0, 82, 88
2, 24479, Note_off_c, 0, 82, 0
2, 24480, Note_on_c, 0, 72, 88
2, 24599, Note_off_c, 0, 72, 0
2, 24600, Note_on_c, 0, 73, 88
2, 24659, Note_off_c, 0, 73, 0
2, 24660, Note_on_c, 0, 70, 88
2, 24719, Note_off_c, 0, 70, 0
2, 24720, Note_on_c, 0, 72, 88
2, 24839, Note_off_c, 0, 72, 0
2, 24840, Note_on_c, 0, 80, 88
2, 24959, Note_off_c, 0, 80, 0
2, 24960, Note_on_c, 0, 70, 88
2, 25259, Note_off_c, 0, 70, 0
2, 25260, Note_on_c, 0, 75, 88
2, 25319, Note_off_c, 0, 75, 0
2, 25320, Note_on_c, 0, 77, 88
2, 25379, Note_off_c, 0, 77, 0
2, 25380, Note_on_c, 0, 79, 88
2, 25439, Note_off_c, 0, 79, 0
2, 25440, Note_on_c, 0, 80, 88
2, 25739, Note_off_c, 0, 80, 0
2, 25740, Note_on_c, 0, 79, 88
2, 25799, Note_off_c, 0, 79, 0
2, 25800, Note_on_c, 0, 77, 88
2, 25859, Note_off_c, 0, 77, 0
2, 25860, Note_on_c, 0, 80, 88
2, 25919, Note_off_c, 0, 80, 0
2, 25920, Note_on_c, 0, 79, 88
2, 26699, Note_off_c, 0, 79, 0
2, 26700, Note_on_c, 0, 72, 88
2, 26759, Note_off_c, 0, 72, 0
2, 26760, Note_on_c, 0, 77, 88
2, 26939, Note_off_c, 0, 77, 0
2, 26940, Note_on_c, 0, 75, 88
2, 26999, Note_off_c, 0, 75, 0
2, 27000, Note_on_c, 0, 73, 88
2, 27059, Note_off_c, 0, 73, 0
2, 27060, Note_on_c, 0, 77, 88
2, 27119, Note_off_c, 0, 77, 0
2, 27120, Note_on_c, 0, 75, 88
2, 27599, Note_off_c, 0, 75, 0
2, 27600, Note_on_c, 0, 73, 88
2, 27899, Note_off_c, 0, 73, 0
2, 27900, Note_on_c, 0, 72, 88
2, 27959, Note_off_c, 0, 72, 0
2, 27960, Note_on_c, 0, 70, 88
2, 28019, Note_off_c, 0, 70, 0
2, 28020, Note_on_c, 0, 73, 88
2, 28079, Note_off_c, 0, 73, 0
2, 28080, Note_on_c, 0, 72, 88
2, 28199, Note_off_c, 0, 72, 0
2, 28200, Note_on_c, 0, 77, 88
2, 28319, Note_off_c, 0, 77, 0
2, 28320, Note_on_c, 0, 73, 88
2, 28439, Note_off_c, 0, 73, 0
2, 28440, Note_on_c, 0, 70, 88
2, 28559, Note_off_c, 0, 70, 0
2, 28560, Note_on_c, 0, 78, 88
2, 28679, Note_off_c, 0, 78, 0
2, 28680, Note_on_c, 0, 75, 88
2, 28799, Note_off_c, 0, 75, 0
2, 28800, Note_on_c, 0, 77, 88
2, 29039, Note_off_c, 0, 77, 0
2, 29040, Note_on_c, 0, 80, 88
2, 29159, Note_off_c, 0, 80, 0
2, 29160, Note_on_c, 0, 77, 88
2, 29279, Note_off_c, 0, 77, 0
2, 29280, Note_on_c, 0, 79, 88
2, 29519, Note_off_c, 0, 79, 0
2, 29520, Note_on_c, 0, 82, 88
2, 29639, Note_off_c, 0, 82, 0
2, 29640, Note_on_c, 0, 79, 88
2, 29759, Note_off_c, 0, 79, 0
2, 29760, Note_on_c, 0, 80, 88
2, 29879, Note_off_c, 0, 80, 0
2, 29880, Note_on_c, 0, 77, 88
2, 29999, Note_off_c, 0, 77, 0
2, 30000, Note_on_c, 0, 73, 88
2, 30359, Note_off_c, 0, 73, 0
2, 30360, Note_on_c, 0, 75, 88
2, 30479, Note_off_c, 0, 75, 0
2, 30480, Note_on_c, 0, 72, 88
2, 30599, Note_off_c, 0, 72, 0
2, 30600, Note_on_c, 0, 77, 88
2, 30719, Note_off_c, 0, 77, 0
2, 30720, Note_on_c, 0, 72, 88
2, 30959, Note_off_c, 0, 72, 0
2, 30960, Note_on_c, 0, 70, 88
2, 31319, Note_off_c, 0, 70, 0
2, 31320, Note_on_c, 0, 68, 88
2, 31379, Note_off_c, 0, 68, 0
2, 31380, Note_on_c, 0, 67, 88
2, 31439, Note_off_c, 0, 67, 0
2, 31440, Note_on_c, 0, 68, 88
2, 31559, Note_off_c, 0, 68, 0
2, 31560, Note_on_c, 0, 75, 88
2, 31679, Note_off_c, 0, 75, 0
2, 31680, Note_on_c, 0, 72, 88
2, 31799, Note_off_c, 0, 72, 0
2, 31800, Note_on_c, 0, 68, 88
2, 31919, Note_off_c, 0, 68, 0
2, 31920, Note_on_c, 0, 77, 88
2, 32039, Note_off_c, 0, 77, 0
2, 32040, Note_on_c, 0, 73, 88
2, 32159, Note_off_c, 0, 73, 0
2, 32160, Note_on_c, 0, 75, 88
2, 32279, Note_off_c, 0, 75, 0
2, 32280, Note_on_c, 0, 67, 88
2, 32399, Note_off_c, 0, 67, 0
2, 32400, Note_on_c, 0, 68, 88
2, 32879, Note_off_c, 0, 68, 0
2, 32880, Note_on_c, 0, 67, 88
2, 33119, Note_off_c, 0, 67, 0
2, 33120, Note_on_c, 0, 68, 88
2, 33160, Note_off_c, 0, 68, 0
2, 33160, End_track
0, 0, End_of_file