0, 0, Header, 1, 2, 240
1, 0, Start_track
1, 0, Time_signature, 4, 2, 24, 8
1, 0, Tempo, 714285
1, 0, SMPTE_offset, 64, 0, 0, 0, 100
1, 0, End_track
2, 0, Start_track
2, 0, Title_t, "Track 1"
2, 0, Program_c, 0, 6
2, 0, Note_on_c, 0, 69, 88
2, 479, Note_off_c, 0, 69, 0
2, 480, Note_on_c, 0, 68, 88
2, 599, Note_off_c, 0, 68, 0
2, 600, Note_on_c, 0, 73, 88
2, 719, Note_off_c, 0, 73, 0
2, 720, Note_on_c, 0, 69, 88
2, 839, Note_off_c, 0, 69, 0
2, 840, Note_on_c, 0, 74, 88
2, 959, Note_off_c, 0, 74, 0
2, 960, Note_on_c, 0, 71, 88
2, 1079, Note_off_c, 0, 71, 0
2, 1080, Note_on_c, 0, 76, 88
2, 1199, Note_off_c, 0, 76, 0
2, 1200, Note_on_c, 0, 73, 88
2, 1319, Note_off_c, 0, 73, 0
2, 1320, Note_on_c, 0, 78, 88
2, 1439, Note_off_c, 0, 78, 0
2, 1440, Note_on_c, 0, 76, 88
2, 1559, Note_off_c, 0, 76, 0
2, 1560, Note_on_c, 0, 81, 88
2, 1679, Note_off_c, 0, 81, 0
2, 1680, Note_on_c, 0, 74, 88
2, 1919, Note_off_c, 0, 74, 0
2, 1920, Note_on_c, 0, 73, 88
2, 2039, Note_off_c, 0, 73, 0
2, 2040, Note_on_c, 0, 75, 88
2, 2159, Note_off_c, 0, 75, 0
2, 2160, Note_on_c, 0, 80, 88
2, 2279, Note_off_c, 0, 80, 0
2, 2280, Note_on_c, 0, 76, 88
2, 2399, Note_off_c, 0, 76, 0
2, 2400, Note_on_c, 0, 81, 88
2, 2519, Note_off_c, 0, 81, 0
2, 2520, Note_on_c, 0, 80, 88
2, 2759, Note_off_c, 0, 80, 0
2, 2760, Note_on_c, 0, 78, 88
2, 2879, Note_off_c, 0, 78, 0
2, 2880, Note_on_c, 0, 71, 88
2, 2999, Note_off_c, 0, 71, 0
2, 3000, Note_on_c, 0, 76, 88
2, 3119, Note_off_c, 0, 76, 0
2, 3120, Note_on_c, 0, 74, 88
2, 3359, Note_off_c, 0, 74, 0
2, 3360, Note_on_c, 0, 73, 88
2, 3479, Note_off_c, 0, 73, 0
2, 3480, Note_on_c, 0, 75, 88
2, 3599, Note_off_c, 0, 75, 0
2, 3600, Note_on_c, 0, 76, 88
2, 3719, Note_off_c, 0, 76, 0
2, 3720, Note_on_c, 0, 71, 88
2, 3839, Note_off_c, 0, 71, 0
2, 3840, Note_on_c, 0, 76, 88
2, 4079, Note_off_c, 0, 76, 0
2, 4080, Note_on_c, 0, 78, 88
2, 4319, Note_off_c, 0, 78, 0
2, 4320, Note_on_c, 0, 80, 88
2, 4559, Note_off_c, 0, 80, 0
2, 4560, Note_on_c, 0, 81, 88
2, 4679, Note_off_c, 0, 81, 0
2, 4680, Note_on_c, 0, 80, 88
2, 4919, Note_off_c, 0, 80, 0
2, 4920, Note_on_c, 0, 78, 88
2, 5039, Note_off_c, 0, 78, 0
2, 5040, Note_on_c, 0, 80, 88
2, 5159, Note_off_c, 0, 80, 0
2, 5160, Note_on_c, 0, 81, 88
2, 5519, Note_off_c, 0, 81, 0
2, 5520, Note_on_c, 0, 80, 88
2, 5639, Note_off_c, 0, 80, 0
2, 5640, Note_on_c, 0, 83, 88
2, 5759, Note_off_c, 0, 83, 0
2, 5760, Note_on_c, 0, 76, 88
2, 5999, Note_off_c, 0, 76, 0
2, 6000, Note_on_c, 0, 75, 88
2, 6119, Note_off_c, 0, 75, 0
2, 6120, Note_on_c, 0, 76, 88
2, 6599, Note_off_c, 0, 76, 0
2, 6600, Note_on_c, 0, 74, 88
2, 6719, Note_off_c, 0, 74, 0
2, 6720, Note_on_c, 0, 73, 88
2, 6839, Note_off_c, 0, 73, 0
2, 6840, Note_on_c, 0, 74, 88
2, 7079, Note_off_c, 0, 74, 0
2, 7080, Note_on_c, 0, 73, 88
2, 7199, Note_off_c, 0, 73, 0
2, 7200, Note_on_c, 0, 71, 88
2, 7679, Note_off_c, 0, 71, 0
2, 7680, Note_on_c, 0, 69, 88
2, 7799, Note_off_c, 0, 69, 0
2, 7800, Note_on_c, 0, 73, 88
2, 7919, Note_off_c, 0, 73, 0
2, 7920, Note_on_c, 0, 66, 88
2, 8339, Note_off_c, 0, 66, 0
2, 8340, Note_on_c, 0, 68, 88
2, 8399, Note_off_c, 0, 68, 0
2, 8400, Note_on_c, 0, 69, 88
2, 8422, Note_off_c, 0, 69, 0
2, 8423, Note_on_c, 0, 68, 88
2, 8444, Note_off_c, 0, 68, 0
2, 8445, Note_on_c, 0, 69, 88
2, 8467, Note_off_c, 0, 69, 0
2, 8468, Note_on_c, 0, 68, 88
2, 8489, Note_off_c, 0, 68, 0
2, 8490, Note_on_c, 0, 69, 88
2, 8512, Note_off_c, 0, 69, 0
2, 8513, Note_on_c, 0, 68, 88
2, 8534, Note_off_c, 0, 68, 0
2, 8535, Note_on_c, 0, 69, 88
2, 8557, Note_off_c, 0, 69, 0
2, 8558, Note_on_c, 0, 68, 88
2, 8579, Note_off_c, 0, 68, 0
2, 8580, Note_on_c, 0, 66, 88
2, 8609, Note_off_c, 0, 66, 0
2, 8610, Note_on_c, 0, 68, 88
2, 8639, Note_off_c, 0, 68, 0
2, 8640, Note_on_c, 0, 69, 88
2, 9119, Note_off_c, 0, 69, 0
2, 9120, Note_on_c, 0, 68, 88
2, 9239, Note_off_c, 0, 68, 0
2, 9240, Note_on_c, 0, 73, 88
2, 9359, Note_off_c, 0, 73, 0
2, 9360, Note_on_c, 0, 69, 88
2, 9479, Note_off_c, 0, 69, 0
2, 9480, Note_on_c, 0, 74, 88
2, 9599, Note_off_c, 0, 74, 0
2, 9600, Note_on_c, 0, 71, 88
2, 9719, Note_off_c, 0, 71, 0
2, 9720, Note_on_c, 0, 76, 88
2, 9839, Note_off_c, 0, 76, 0
2, 9840, Note_on_c, 0, 73, 88
2, 9959, Note_off_c, 0, 73, 0
2, 9960, Note_on_c, 0, 78, 88
2, 10079, Note_off_c, 0, 78, 0
2, 10080, Note_on_c, 0, 76, 88
2, 10199, Note_off_c, 0, 76, 0
2, 10200, Note_on_c, 0, 81, 88
2, 10319, Note_off_c, 0, 81, 0
2, 10320, Note_on_c, 0, 74, 88
2, 10559, Note_off_c, 0, 74, 0
2, 10560, Note_on_c, 0, 73, 88
2, 10679, Note_off_c, 0, 73, 0
2, 10680, Note_on_c, 0, 75, 88
2, 10799, Note_off_c, 0, 75, 0
2, 10800, Note_on_c, 0, 76, 88
2, 11279, Note_off_c, 0, 76, 0
2, 11280, Note_on_c, 0, 74, 88
2, 11399, Note_off_c, 0, 74, 0
2, 11400, Note_on_c, 0, 79, 88
2, 11519, Note_off_c, 0, 79, 0
2, 11520, Note_on_c, 0, 73, 88
2, 11639, Note_off_c, 0, 73, 0
2, 11640, Note_on_c, 0, 78, 88
2, 11759, Note_off_c, 0, 78, 0
2, 11760, Note_on_c, 0, 74, 88
2, 11879, Note_off_c, 0, 74, 0
2, 11880, Note_on_c, 0, 71, 88
2, 12359, Note_off_c, 0, 71, 0
2, 12360, Note_on_c, 0, 69, 88
2, 12479, Note_off_c, 0, 69, 0
2, 12480, Note_on_c, 0, 74, 88
2, 12599, Note_off_c, 0, 74, 0
2, 12600, Note_on_c, 0, 68, 88
2, 12719, Note_off_c, 0, 68, 0
2, 12720, Note_on_c, 0, 73, 88
2, 12839, Note_off_c, 0, 73, 0
2, 12840, Note_on_c, 0, 71, 88
2, 12959, Note_off_c, 0, 71, 0
2, 12960, Note_on_c, 0, 69, 88
2, 13439, Note_off_c, 0, 69, 0
2, 13440, Note_on_c, 0, 68, 88
2, 13559, Note_off_c, 0, 68, 0
2, 13560, Note_on_c, 0, 66, 88
2, 13679, Note_off_c, 0, 66, 0
2, 13680, Note_on_c, 0, 74, 88
2, 14159, Note_off_c, 0, 74, 0
2, 14160, Note_on_c, 0, 73, 88
2, 14279, Note_off_c, 0, 73, 0
2, 14280, Note_on_c, 0, 78, 88
2, 14519, Note_off_c, 0, 78, 0
2, 14520, Note_on_c, 0, 76, 88
2, 14639, Note_off_c, 0, 76, 0
2, 14640, Note_on_c, 0, 74, 88
2, 14759, Note_off_c, 0, 74, 0
2, 14760, Note_on_c, 0, 73, 88
2, 15239, Note_off_c, 0, 73, 0
2, 15240, Note_on_c, 0, 71, 88
2, 15359, Note_off_c, 0, 71, 0
2, 15360, Note_on_c, 0, 70, 88
2, 15479, Note_off_c, 0, 70, 0
2, 15480, Note_on_c, 0, 71, 88
2, 15719, Note_off_c, 0, 71, 0
2, 15720, Note_on_c, 0, 73, 88
2, 15839, Note_off_c, 0, 73, 0
2, 15840, Note_on_c, 0, 66, 88
2, 15959, Note_off_c, 0, 66, 0
2, 15960, Note_on_c, 0, 71, 88
2, 16079, Note_off_c, 0, 71, 0
2, 16080, Note_on_c, 0, 70, 88
2, 16199, Note_off_c, 0, 70, 0
2, 16200, Note_on_c, 0, 71, 88
2, 16319, Note_off_c, 0, 71, 0
2, 16320, Note_on_c, 0, 74, 88
2, 16679, Note_off_c, 0, 74, 0
2, 16680, Note_on_c, 0, 73, 88
2, 16799, Note_off_c, 0, 73, 0
2, 16800, Note_on_c, 0, 78, 88
2, 17039, Note_off_c, 0, 78, 0
2, 17040, Note_on_c, 0, 76, 88
2, 17159, Note_off_c, 0, 76, 0
2, 17160, Note_on_c, 0, 81, 88
2, 17399, Note_off_c, 0, 81, 0
2, 17400, Note_on_c, 0, 80, 88
2, 17459, Note_off_c, 0, 80, 0
2, 17460, Note_on_c, 0, 78, 88
2, 17519, Note_off_c, 0, 78, 0
2, 17520, Note_on_c, 0, 80, 88
2, 17759, Note_off_c, 0, 80, 0
2, 17760, Note_on_c, 0, 78, 88
2, 17879, Note_off_c, 0, 78, 0
2, 17880, Note_on_c, 0, 76, 88
2, 18119, Note_off_c, 0, 76, 0
2, 18120, Note_on_c, 0, 75, 88
2, 18239, Note_off_c, 0, 75, 0
2, 18240, Note_on_c, 0, 78, 88
2, 18359, Note_off_c, 0, 78, 0
2, 18360, Note_on_c, 0, 71, 88
2, 18959, Note_off_c, 0, 71, 0
2, 18960, Note_on_c, 0, 69, 88
2, 19199, Note_off_c, 0, 69, 0
2, 19200, Note_on_c, 0, 68, 88
2, 19559, Note_off_c, 0, 68, 0
2, 19560, Note_on_c, 0, 66, 88
2, 19679, Note_off_c, 0, 66, 0
2, 19680, Note_on_c, 0, 69, 88
2, 19799, Note_off_c, 0, 69, 0
2, 19800, Note_on_c, 0, 63, 88
2, 19919, Note_off_c, 0, 63, 0
2, 19920, Note_on_c, 0, 71, 88
2, 20039, Note_off_c, 0, 71, 0
2, 20040, Note_on_c, 0, 68, 88
2, 20159, Note_off_c, 0, 68, 0
2, 20160, Note_on_c, 0, 73, 88
2, 20279, Note_off_c, 0, 73, 0
2, 20280, Note_on_c, 0, 68, 88
2, 20302, Note_off_c, 0, 68, 0
2, 20303, Note_on_c, 0, 66, 88
2, 20328, Note_off_c, 0, 66, 0
2, 20329, Note_on_c, 0, 68, 88
2, 20354, Note_off_c, 0, 68, 0
2, 20355, Note_on_c, 0, 66, 88
2, 20377, Note_off_c, 0, 66, 0
2, 20378, Note_on_c, 0, 68, 88
2, 20399, Note_off_c, 0, 68, 0
2, 20400, Note_on_c, 0, 66, 88
2, 20519, Note_off_c, 0, 66, 0
2, 20520, Note_on_c, 0, 64, 88
2, 20639, Note_off_c, 0, 64, 0
2, 20640, Note_on_c, 0, 76, 88
2, 20759, Note_off_c, 0, 76, 0
2, 20760, Note_on_c, 0, 71, 88
2, 20879, Note_off_c, 0, 71, 0
2, 20880, Note_on_c, 0, 73, 88
2, 20999, Note_off_c, 0, 73, 0
2, 21000, Note_on_c, 0, 78, 88
2, 21119, Note_off_c, 0, 78, 0
2, 21120, Note_on_c, 0, 73, 88
2, 21239, Note_off_c, 0, 73, 0
2, 21240, Note_on_c, 0, 74, 88
2, 21719, Note_off_c, 0, 74, 0
2, 21720, Note_on_c, 0, 71, 88
2, 21839, Note_off_c, 0, 71, 0
2, 21840, Note_on_c, 0, 76, 88
2, 21959, Note_off_c, 0, 76, 0
2, 21960, Note_on_c, 0, 73, 88
2, 22079, Note_off_c, 0, 73, 0
2, 22080, Note_on_c, 0, 78, 88
2, 22199, Note_off_c, 0, 78, 0
2, 22200, Note_on_c, 0, 74, 88
2, 22319, Note_off_c, 0, 74, 0
2, 22320, Note_on_c, 0, 80, 88
2, 22439, Note_off_c, 0, 80, 0
2, 22440, Note_on_c, 0, 76, 88
2, 22559, Note_off_c, 0, 76, 0
2, 22560, Note_on_c, 0, 81, 88
2, 22679, Note_off_c, 0, 81, 0
2, 22680, Note_on_c, 0, 78, 88
2, 22919, Note_off_c, 0, 78, 0
2, 22920, Note_on_c, 0, 83, 88
2, 23039, Note_off_c, 0, 83, 0
2, 23040, Note_on_c, 0, 76, 88
2, 23159, Note_off_c, 0, 76, 0
2, 23160, Note_on_c, 0, 81, 88
2, 23519, Note_off_c, 0, 81, 0
2, 23520, Note_on_c, 0, 80, 88
2, 23759, Note_off_c, 0, 80, 0
2, 23760, Note_on_c, 0, 81, 88
2, 25919, Note_off_c, 0, 81, 0
2, 25920, Note_on_c, 0, 64, 88
2, 26399, Note_off_c, 0, 64, 0
2, 26400, Note_on_c, 0, 61, 88
2, 26519, Note_off_c, 0, 61, 0
2, 26520, Note_on_c, 0, 66, 88
2, 26639, Note_off_c, 0, 66, 0
2, 26640, Note_on_c, 0, 64, 88
2, 26759, Note_off_c, 0, 64, 0
2, 26760, Note_on_c, 0, 69, 88
2, 26879, Note_off_c, 0, 69, 0
2, 26880, Note_on_c, 0, 66, 88
2, 26999, Note_off_c, 0, 66, 0
2, 27000, Note_on_c, 0, 71, 88
2, 27119, Note_off_c, 0, 71, 0
2, 27120, Note_on_c, 0, 68, 88
2, 27239, Note_off_c, 0, 68, 0
2, 27240, Note_on_c, 0, 73, 88
2, 27359, Note_off_c, 0, 73, 0
2, 27360, Note_on_c, 0, 69, 88
2, 27479, Note_off_c, 0, 69, 0
2, 27480, Note_on_c, 0, 74, 88
2, 27599, Note_off_c, 0, 74, 0
2, 27600, Note_on_c, 0, 73, 88
2, 27719, Note_off_c, 0, 73, 0
2, 27720, Note_on_c, 0, 78, 88
2, 27839, Note_off_c, 0, 78, 0
2, 27840, Note_on_c, 0, 75, 88
2, 28079, Note_off_c, 0, 75, 0
2, 28080, Note_on_c, 0, 76, 88
2, 28139, Note_off_c, 0, 76, 0
2, 28140, Note_on_c, 0, 78, 88
2, 28199, Note_off_c, 0, 78, 0
2, 28200, Note_on_c, 0, 80, 88
2, 28259, Note_off_c, 0, 80, 0
2, 28260, Note_on_c, 0, 76, 88
2, 28319, Note_off_c, 0, 76, 0
2, 28320, Note_on_c, 0, 80, 88
2, 28379, Note_off_c, 0, 80, 0
2, 28380, Note_on_c, 0, 81, 88
2, 28439, Note_off_c, 0, 81, 0
2, 28440, Note_on_c, 0, 83, 88
2, 30359, Note_off_c, 0, 83, 0
2, 30360, Note_on_c, 0, 83, 88
2, 30419, Note_off_c, 0, 83, 0
2, 30420, Note_on_c, 0, 81, 88
2, 30479, Note_off_c, 0, 81, 0
2, 30480, Note_on_c, 0, 80, 88
2, 30539, Note_off_c, 0, 80, 0
2, 30540, Note_on_c, 0, 78, 88
2, 30599, Note_off_c, 0, 78, 0
2, 30600, Note_on_c, 0, 76, 88
2, 30659, Note_off_c, 0, 76, 0
2, 30660, Note_on_c, 0, 78, 88
2, 30719, Note_off_c, 0, 78, 0
2, 30720, Note_on_c, 0, 80, 88
2, 30779, Note_off_c, 0, 80, 0
2, 30780, Note_on_c, 0, 76, 88
2, 30839, Note_off_c, 0, 76, 0
2, 30840, Note_on_c, 0, 74, 88
2, 30899, Note_off_c, 0, 74, 0
2, 30900, Note_on_c, 0, 73, 88
2, 30959, Note_off_c, 0, 73, 0
2, 30960, Note_on_c, 0, 74, 88
2, 31019, Note_off_c, 0, 74, 0
2, 31020, Note_on_c, 0, 73, 88
2, 31079, Note_off_c, 0, 73, 0
2, 31080, Note_on_c, 0, 74, 88
2, 31139, Note_off_c, 0, 74, 0
2, 31140, Note_on_c, 0, 78, 88
2, 31199, Note_off_c, 0, 78, 0
2, 31200, Note_on_c, 0, 76, 88
2, 31259, Note_off_c, 0, 76, 0
2, 31260, Note_on_c, 0, 74, 88
2, 31319, Note_off_c, 0, 74, 0
2, 31320, Note_on_c, 0, 73, 88
2, 31439, Note_off_c, 0, 73, 0
2, 31440, Note_on_c, 0, 69, 88
2, 31559, Note_off_c, 0, 69, 0
2, 31560, Note_on_c, 0, 74, 88
2, 31679, Note_off_c, 0, 74, 0
2, 31680, Note_on_c, 0, 73, 88
2, 31799, Note_off_c, 0, 73, 0
2, 31800, Note_on_c, 0, 81, 88
2, 31919, Note_off_c, 0, 81, 0
2, 31920, Note_on_c, 0, 74, 88
2, 32039, Note_off_c, 0, 74, 0
2, 32040, Note_on_c, 0, 71, 88
2, 32159, Note_off_c, 0, 71, 0
2, 32160, Note_on_c, 0, 76, 88
2, 32279, Note_off_c, 0, 76, 0
2, 32280, Note_on_c, 0, 73, 88
2, 32399, Note_off_c, 0, 73, 0
2, 32400, Note_on_c, 0, 74, 88
2, 32879, Note_off_c, 0, 74, 0
2, 32880, Note_on_c, 0, 64, 88
2, 32999, Note_off_c, 0, 64, 0
2, 33000, Note_on_c, 0, 69, 88
2, 33119, Note_off_c, 0, 69, 0
2, 33120, Note_on_c, 0, 66, 88
2, 33239, Note_off_c, 0, 66, 0
2, 33240, Note_on_c, 0, 71, 88
2, 33359, Note_off_c, 0, 71, 0
2, 33360, Note_on_c, 0, 73, 88
2, 33599, Note_off_c, 0, 73, 0
2, 33600, Note_on_c, 0, 74, 88
2, 33719, Note_off_c, 0, 74, 0
2, 33720, Note_on_c, 0, 79, 88
2, 33959, Note_off_c, 0, 79, 0
2, 33960, Note_on_c, 0, 78, 88
2, 34079, Note_off_c, 0, 78, 0
2, 34080, Note_on_c, 0, 76, 88
2, 34199, Note_off_c, 0, 76, 0
2, 34200, Note_on_c, 0, 69, 88
2, 34319, Note_off_c, 0, 69, 0
2, 34320, Note_on_c, 0, 74, 88
2, 34439, Note_off_c, 0, 74, 0
2, 34440, Note_on_c, 0, 73, 88
2, 34559, Note_off_c, 0, 73, 0
2, 34560, Note_on_c, 0, 74, 88
2, 34679, Note_off_c, 0, 74, 0
2, 34680, Note_on_c, 0, 78, 88
2, 34739, Note_off_c, 0, 78, 0
2, 34740, Note_on_c, 0, 76, 88
2, 34799, Note_off_c, 0, 76, 0
2, 34800, Note_on_c, 0, 74, 88
2, 34859, Note_off_c, 0, 74, 0
2, 34860, Note_on_c, 0, 73, 88
2, 34919, Note_off_c, 0, 73, 0
2, 34920, Note_on_c, 0, 71, 88
2, 35039, Note_off_c, 0, 71, 0
2, 35040, Note_on_c, 0, 76, 88
2, 35399, Note_off_c, 0, 76, 0
2, 35400, Note_on_c, 0, 74, 88
2, 35759, Note_off_c, 0, 74, 0
2, 35760, Note_on_c, 0, 73, 88
2, 36059, Note_off_c, 0, 73, 0
2, 36060, Note_on_c, 0, 71, 88
2, 36119, Note_off_c, 0, 71, 0
2, 36120, Note_on_c, 0, 70, 88
2, 36179, Note_off_c, 0, 70, 0
2, 36180, Note_on_c, 0, 71, 88
2, 36239, Note_off_c, 0, 71, 0
2, 36240, Note_on_c, 0, 73, 88
2, 36299, Note_off_c, 0, 73, 0
2, 36300, Note_on_c, 0, 74, 88
2, 36359, Note_off_c, 0, 74, 0
2, 36360, Note_on_c, 0, 76, 88
2, 36419, Note_off_c, 0, 76, 0
2, 36420, Note_on_c, 0, 74, 88
2, 36479, Note_off_c, 0, 74, 0
2, 36480, Note_on_c, 0, 76, 88
2, 36539, Note_off_c, 0, 76, 0
2, 36540, Note_on_c, 0, 78, 88
2, 36599, Note_off_c, 0, 78, 0
2, 36600, Note_on_c, 0, 79, 88
2, 36659, Note_off_c, 0, 79, 0
2, 36660, Note_on_c, 0, 76, 88
2, 36719, Note_off_c, 0, 76, 0
2, 36720, Note_on_c, 0, 82, 88
2, 36779, Note_off_c, 0, 82, 0
2, 36780, Note_on_c, 0, 78, 88
2, 36839, Note_off_c, 0, 78, 0
2, 36840, Note_on_c, 0, 83, 88
2, 36899, Note_off_c, 0, 83, 0
2, 36900, Note_on_c, 0, 81, 88
2, 36959, Note_off_c, 0, 81, 0
2, 36960, Note_on_c, 0, 79, 88
2, 37019, Note_off_c, 0, 79, 0
2, 37020, Note_on_c, 0, 78, 88
2, 37079, Note_off_c, 0, 78, 0
2, 37080, Note_on_c, 0, 76, 88
2, 37139, Note_off_c, 0, 76, 0
2, 37140, Note_on_c, 0, 74, 88
2, 37199, Note_off_c, 0, 74, 0
2, 37200, Note_on_c, 0, 73, 88
2, 37259, Note_off_c, 0, 73, 0
2, 37260, Note_on_c, 0, 71, 88
2, 37319, Note_off_c, 0, 71, 0
2, 37320, Note_on_c, 0, 70, 88
2, 37379, Note_off_c, 0, 70, 0
2, 37380, Note_on_c, 0, 71, 88
2, 37439, Note_off_c, 0, 71, 0
2, 37440, Note_on_c, 0, 79, 88
2, 37499, Note_off_c, 0, 79, 0
2, 37500, Note_on_c, 0, 78, 88
2, 37559, Note_off_c, 0, 78, 0
2, 37560, Note_on_c, 0, 76, 88
2, 37619, Note_off_c, 0, 76, 0
2, 37620, Note_on_c, 0, 74, 88
2, 37679, Note_off_c, 0, 74, 0
2, 37680, Note_on_c, 0, 73, 88
2, 37739, Note_off_c, 0, 73, 0
2, 37740, Note_on_c, 0, 71, 88
2, 37799, Note_off_c, 0, 71, 0
2, 37800, Note_on_c, 0, 71, 88
2, 37919, Note_off_c, 0, 71, 0
2, 37920, Note_on_c, 0, 74, 88
2, 38279, Note_off_c, 0, 74, 0
2, 38280, Note_on_c, 0, 71, 88
2, 38399, Note_off_c, 0, 71, 0
2, 38400, Note_on_c, 0, 76, 88
2, 38519, Note_off_c, 0, 76, 0
2, 38520, Note_on_c, 0, 73, 88
2, 38639, Note_off_c, 0, 73, 0
2, 38640, Note_on_c, 0, 78, 88
2, 38759, Note_off_c, 0, 78, 0
2, 38760, Note_on_c, 0, 75, 88
2, 38879, Note_off_c, 0, 75, 0
2, 38880, Note_on_c, 0, 71, 88
2, 39359, Note_off_c, 0, 71, 0
2, 39360, Note_on_c, 0, 68, 88
2, 39479, Note_off_c, 0, 68, 0
2, 39480, Note_on_c, 0, 73, 88
2, 39599, Note_off_c, 0, 73, 0
2, 39600, Note_on_c, 0, 69, 88
2, 40079, Note_off_c, 0, 69, 0
2, 40080, Note_on_c, 0, 71, 88
2, 40439, Note_off_c, 0, 71, 0
2, 40440, Note_on_c, 0, 69, 88
2, 40559, Note_off_c, 0, 69, 0
2, 40560, Note_on_c, 0, 65, 88
2, 40679, Note_off_c, 0, 65, 0
2, 40680, Note_on_c, 0, 66, 88
2, 41159, Note_off_c, 0, 66, 0
2, 41160, Note_on_c, 0, 63, 88
2, 41279, Note_off_c, 0, 63, 0
2, 41280, Note_on_c, 0, 68, 88
2, 41399, Note_off_c, 0, 68, 0
2, 41400, Note_on_c, 0, 65, 88
2, 41459, Note_off_c, 0, 65, 0
2, 41460, Note_on_c, 0, 61, 88
2, 41519, Note_off_c, 0, 61, 0
2, 41520, Note_on_c, 0, 63, 88
2, 41579, Note_off_c, 0, 63, 0
2, 41580, Note_on_c, 0, 65, 88
2, 41639, Note_off_c, 0, 65, 0
2, 41640, Note_on_c, 0, 66, 88
2, 41699, Note_off_c, 0, 66, 0
2, 41700, Note_on_c, 0, 68, 88
2, 41759, Note_off_c, 0, 68, 0
2, 41760, Note_on_c, 0, 69, 88
2, 41819, Note_off_c, 0, 69, 0
2, 41820, Note_on_c, 0, 66, 88
2, 41879, Note_off_c, 0, 66, 0
2, 41880, Note_on_c, 0, 68, 88
2, 41939, Note_off_c, 0, 68, 0
2, 41940, Note_on_c, 0, 69, 88
2, 41999, Note_off_c, 0, 69, 0
2, 42000, Note_on_c, 0, 71, 88
2, 42059, Note_off_c, 0, 71, 0
2, 42060, Note_on_c, 0, 73, 88
2, 42119, Note_off_c, 0, 73, 0
2, 42120, Note_on_c, 0, 74, 88
2, 42179, Note_off_c, 0, 74, 0
2, 42180, Note_on_c, 0, 71, 88
2, 42239, Note_off_c, 0, 71, 0
2, 42240, Note_on_c, 0, 73, 88
2, 42299, Note_off_c, 0, 73, 0
2, 42300, Note_on_c, 0, 75, 88
2, 42359, Note_off_c, 0, 75, 0
2, 42360, Note_on_c, 0, 77, 88
2, 42419, Note_off_c, 0, 77, 0
2, 42420, Note_on_c, 0, 78, 88
2, 42479, Note_off_c, 0, 78, 0
2, 42480, Note_on_c, 0, 74, 88
2, 42539, Note_off_c, 0, 74, 0
2, 42540, Note_on_c, 0, 76, 88
2, 42599, Note_off_c, 0, 76, 0
2, 42600, Note_on_c, 0, 74, 88
2, 42659, Note_off_c, 0, 74, 0
2, 42660, Note_on_c, 0, 73, 88
2, 42719, Note_off_c, 0, 73, 0
2, 42720, Note_on_c, 0, 71, 88
2, 42779, Note_off_c, 0, 71, 0
2, 42780, Note_on_c, 0, 69, 88
2, 42839, Note_off_c, 0, 69, 0
2, 42840, Note_on_c, 0, 68, 88
2, 42899, Note_off_c, 0, 68, 0
2, 42900, Note_on_c, 0, 71, 88
2, 42959, Note_off_c, 0, 71, 0
2, 42960, Note_on_c, 0, 69, 88
2, 43019, Note_off_c, 0, 69, 0
2, 43020, Note_on_c, 0, 68, 88
2, 43079, Note_off_c, 0, 68, 0
2, 43080, Note_on_c, 0, 66, 88
2, 43139, Note_off_c, 0, 66, 0
2, 43140, Note_on_c, 0, 65, 88
2, 43199, Note_off_c, 0, 65, 0
2, 43200, Note_on_c, 0, 71, 88
2, 43619, Note_off_c, 0, 71, 0
2, 43620, Note_on_c, 0, 69, 88
2, 43679, Note_off_c, 0, 69, 0
2, 43680, Note_on_c, 0, 71, 88
2, 43739, Note_off_c, 0, 71, 0
2, 43740, Note_on_c, 0, 68, 88
2, 43799, Note_off_c, 0, 68, 0
2, 43800, Note_on_c, 0, 69, 88
2, 43979, Note_off_c, 0, 69, 0
2, 43980, Note_on_c, 0, 71, 88
2, 44039, Note_off_c, 0, 71, 0
2, 44040, Note_on_c, 0, 69, 88
2, 44065, Note_off_c, 0, 69, 0
2, 44066, Note_on_c, 0, 68, 88
2, 44092, Note_off_c, 0, 68, 0
2, 44093, Note_on_c, 0, 69, 88
2, 44114, Note_off_c, 0, 69, 0
2, 44115, Note_on_c, 0, 68, 88
2, 44137, Note_off_c, 0, 68, 0
2, 44138, Note_on_c, 0, 69, 88
2, 44159, Note_off_c, 0, 69, 0
2, 44160, Note_on_c, 0, 68, 88
2, 44219, Note_off_c, 0, 68, 0
2, 44220, Note_on_c, 0, 66, 88
2, 44279, Note_off_c, 0, 66, 0
2, 44280, Note_on_c, 0, 66, 88
2, 44399, Note_off_c, 0, 66, 0
2, 44400, Note_on_c, 0, 61, 88
2, 44519, Note_off_c, 0, 61, 0
2, 44520, Note_on_c, 0, 66, 88
2, 44639, Note_off_c, 0, 66, 0
2, 44640, Note_on_c, 0, 64, 88
2, 44879, Note_off_c, 0, 64, 0
2, 44880, Note_on_c, 0, 69, 88
2, 44999, Note_off_c, 0, 69, 0
2, 45000, Note_on_c, 0, 66, 88
2, 45119, Note_off_c, 0, 66, 0
2, 45120, Note_on_c, 0, 71, 88
2, 45239, Note_off_c, 0, 71, 0
2, 45240, Note_on_c, 0, 68, 88
2, 45359, Note_off_c, 0, 68, 0
2, 45360, Note_on_c, 0, 73, 88
2, 45479, Note_off_c, 0, 73, 0
2, 45480, Note_on_c, 0, 69, 88
2, 45599, Note_off_c, 0, 69, 0
2, 45600, Note_on_c, 0, 74, 88
2, 45839, Note_off_c, 0, 74, 0
2, 45840, Note_on_c, 0, 73, 88
2, 45959, Note_off_c, 0, 73, 0
2, 45960, Note_on_c, 0, 71, 88
2, 46079, Note_off_c, 0, 71, 0
2, 46080, Note_on_c, 0, 64, 88
2, 46199, Note_off_c, 0, 64, 0
2, 46200, Note_on_c, 0, 69, 88
2, 46559, Note_off_c, 0, 69, 0
2, 46560, Note_on_c, 0, 68, 88
2, 46679, Note_off_c, 0, 68, 0
2, 46680, Note_on_c, 0, 71, 88
2, 46799, Note_off_c, 0, 71, 0
2, 46800, Note_on_c, 0, 64, 88
2, 46919, Note_off_c, 0, 64, 0
2, 46920, Note_on_c, 0, 69, 88
2, 47159, Note_off_c, 0, 69, 0
2, 47160, Note_on_c, 0, 68, 88
2, 47279, Note_off_c, 0, 68, 0
2, 47280, Note_on_c, 0, 73, 88
2, 47399, Note_off_c, 0, 73, 0
2, 47400, Note_on_c, 0, 69, 88
2, 47519, Note_off_c, 0, 69, 0
2, 47520, Note_on_c, 0, 74, 88
2, 47879, Note_off_c, 0, 74, 0
2, 47880, Note_on_c, 0, 73, 88
2, 47999, Note_off_c, 0, 73, 0
2, 48000, Note_on_c, 0, 78, 88
2, 48359, Note_off_c, 0, 78, 0
2, 48360, Note_on_c, 0, 76, 88
2, 48479, Note_off_c, 0, 76, 0
2, 48480, Note_on_c, 0, 74, 88
2, 48719, Note_off_c, 0, 74, 0
2, 48720, Note_on_c, 0, 73, 88
2, 49079, Note_off_c, 0, 73, 0
2, 49080, Note_on_c, 0, 71, 88
2, 49199, Note_off_c, 0, 71, 0
2, 49200, Note_on_c, 0, 69, 88
2, 49439, Note_off_c, 0, 69, 0
2, 49440, Note_on_c, 0, 68, 88
2, 49559, Note_off_c, 0, 68, 0
2, 49560, Note_on_c, 0, 71, 88
2, 49679, Note_off_c, 0, 71, 0
2, 49680, Note_on_c, 0, 76, 88
2, 50279, Note_off_c, 0, 76, 0
2, 50280, Note_on_c, 0, 74, 88
2, 50519, Note_off_c, 0, 74, 0
2, 50520, Note_on_c, 0, 73, 88
2, 50879, Note_off_c, 0, 73, 0
2, 50880, Note_on_c, 0, 71, 88
2, 50999, Note_off_c, 0, 71, 0
2, 51000, Note_on_c, 0, 74, 88
2, 51119, Note_off_c, 0, 74, 0
2, 51120, Note_on_c, 0, 68, 88
2, 51239, Note_off_c, 0, 68, 0
2, 51240, Note_on_c, 0, 76, 88
2, 51359, Note_off_c, 0, 76, 0
2, 51360, Note_on_c, 0, 73, 88
2, 51479, Note_off_c, 0, 73, 0
2, 51480, Note_on_c, 0, 78, 88
2, 51599, Note_off_c, 0, 78, 0
2, 51600, Note_on_c, 0, 71, 88
2, 51839, Note_off_c, 0, 71, 0
2, 51840, Note_on_c, 0, 69, 88
2, 51959, Note_off_c, 0, 69, 0
2, 51960, Note_on_c, 0, 76, 88
2, 52019, Note_off_c, 0, 76, 0
2, 52020, Note_on_c, 0, 74, 88
2, 52079, Note_off_c, 0, 74, 0
2, 52080, Note_on_c, 0, 73, 88
2, 52139, Note_off_c, 0, 73, 0
2, 52140, Note_on_c, 0, 71, 88
2, 52199, Note_off_c, 0, 71, 0
2, 52200, Note_on_c, 0, 69, 88
2, 52259, Note_off_c, 0, 69, 0
2, 52260, Note_on_c, 0, 71, 88
2, 52319, Note_off_c, 0, 71, 0
2, 52320, Note_on_c, 0, 73, 88
2, 52379, Note_off_c, 0, 73, 0
2, 52380, Note_on_c, 0, 69, 88
2, 52439, Note_off_c, 0, 69, 0
2, 52440, Note_on_c, 0, 67, 88
2, 52499, Note_off_c, 0, 67, 0
2, 52500, Note_on_c, 0, 66, 88
2, 52559, Note_off_c, 0, 66, 0
2, 52560, Note_on_c, 0, 67, 88
2, 52619, Note_off_c, 0, 67, 0
2, 52620, Note_on_c, 0, 66, 88
2, 52679, Note_off_c, 0, 66, 0
2, 52680, Note_on_c, 0, 67, 88
2, 52739, Note_off_c, 0, 67, 0
2, 52740, Note_on_c, 0, 71, 88
2, 52799, Note_off_c, 0, 71, 0
2, 52800, Note_on_c, 0, 69, 88
2, 52859, Note_off_c, 0, 69, 0
2, 52860, Note_on_c, 0, 67, 88
2, 52919, Note_off_c, 0, 67, 0
2, 52920, Note_on_c, 0, 66, 88
2, 53039, Note_off_c, 0, 66, 0
2, 53040, Note_on_c, 0, 62, 88
2, 53159, Note_off_c, 0, 62, 0
2, 53160, Note_on_c, 0, 69, 88
2, 53279, Note_off_c, 0, 69, 0
2, 53280, Note_on_c, 0, 68, 88
2, 53399, Note_off_c, 0, 68, 0
2, 53400, Note_on_c, 0, 76, 88
2, 53519, Note_off_c, 0, 76, 0
2, 53520, Note_on_c, 0, 69, 88
2, 53639, Note_off_c, 0, 69, 0
2, 53640, Note_on_c, 0, 78, 88
2, 53759, Note_off_c, 0, 78, 0
2, 53760, Note_on_c, 0, 71, 88
2, 53879, Note_off_c, 0, 71, 0
2, 53880, Note_on_c, 0, 80, 88
2, 53999, Note_off_c, 0, 80, 0
2, 54000, Note_on_c, 0, 81, 88
2, 54119, Note_off_c, 0, 81, 0
2, 54120, Note_on_c, 0, 76, 88
2, 54479, Note_off_c, 0, 76, 0
2, 54480, Note_on_c, 0, 74, 88
2, 54599, Note_off_c, 0, 74, 0
2, 54600, Note_on_c, 0, 78, 88
2, 54719, Note_off_c, 0, 78, 0
2, 54720, Note_on_c, 0, 71, 88
2, 55199, Note_off_c, 0, 71, 0
2, 55200, Note_on_c, 0, 69, 88
2, 55319, Note_off_c, 0, 69, 0
2, 55320, Note_on_c, 0, 67, 88
2, 55439, Note_off_c, 0, 67, 0
2, 55440, Note_on_c, 0, 66, 88
2, 55799, Note_off_c, 0, 66, 0
2, 55800, Note_on_c, 0, 71, 88
2, 55919, Note_off_c, 0, 71, 0
2, 55920, Note_on_c, 0, 64, 88
2, 56039, Note_off_c, 0, 64, 0
2, 56040, Note_on_c, 0, 69, 88
2, 56159, Note_off_c, 0, 69, 0
2, 56160, Note_on_c, 0, 62, 88
2, 56639, Note_off_c, 0, 62, 0
2, 56640, Note_on_c, 0, 61, 88
2, 56759, Note_off_c, 0, 61, 0
2, 56760, Note_on_c, 0, 69, 88
2, 56999, Note_off_c, 0, 69, 0
2, 57000, Note_on_c, 0, 69, 88
2, 57119, Note_off_c, 0, 69, 0
2, 57120, Note_on_c, 0, 68, 88
2, 57239, Note_off_c, 0, 68, 0
2, 57240, Note_on_c, 0, 69, 88
2, 57280, Note_off_c, 0, 69, 0
2, 57280, End_track
0, 0, End_of_file