0, 0, Header, 1, 2, 240
1, 0, Start_track
1, 0, Time_signature, 4, 2, 24, 8
1, 0, Tempo, 983606
1, 0, SMPTE_offset, 64, 0, 0, 0, 100
1, 0, End_track
2, 0, Start_track
2, 0, Title_t, "Track 1"
2, 0, Program_c, 0, 6
2, 3000, Note_on_c, 0, 64, 88
2, 3059, Note_off_c, 0, 64, 0
2, 3060, Note_on_c, 0, 63, 88
2, 3119, Note_off_c, 0, 63, 0
2, 3120, Note_on_c, 0, 64, 88
2, 3239, Note_off_c, 0, 64, 0
2, 3240, Note_on_c, 0, 66, 88
2, 3359, Note_off_c, 0, 66, 0
2, 3360, Note_on_c, 0, 67, 88
2, 3479, Note_off_c, 0, 67, 0
2, 3480, Note_on_c, 0, 67, 88
2, 3539, Note_off_c, 0, 67, 0
2, 3540, Note_on_c, 0, 66, 88
2, 3599, Note_off_c, 0, 66, 0
2, 3600, Note_on_c, 0, 67, 88
2, 3719, Note_off_c, 0, 67, 0
2, 3720, Note_on_c, 0, 69, 88
2, 3839, Note_off_c, 0, 69, 0
2, 3840, Note_on_c, 0, 71, 88
2, 3899, Note_off_c, 0, 71, 0
2, 3900, Note_on_c, 0, 69, 88
2, 3959, Note_off_c, 0, 69, 0
2, 3960, Note_on_c, 0, 67, 88
2, 4019, Note_off_c, 0, 67, 0
2, 4020, Note_on_c, 0, 69, 88
2, 4079, Note_off_c, 0, 69, 0
2, 4080, Note_on_c, 0, 71, 88
2, 4199, Note_off_c, 0, 71, 0
2, 4200, Note_on_c, 0, 72, 88
2, 4319, Note_off_c, 0, 72, 0
2, 4320, Note_on_c, 0, 63, 88
2, 4439, Note_off_c, 0, 63, 0
2, 4440, Note_on_c, 0, 59, 88
2, 4679, Note_off_c, 0, 59, 0
2, 4680, Note_on_c, 0, 64, 88
2, 4799, Note_off_c, 0, 64, 0
2, 4800, Note_on_c, 0, 66, 88
2, 4859, Note_off_c, 0, 66, 0
2, 4860, Note_on_c, 0, 67, 88
2, 4919, Note_off_c, 0, 67, 0
2, 4920, Note_on_c, 0, 64, 88
2, 4979, Note_off_c, 0, 64, 0
2, 4980, Note_on_c, 0, 66, 88
2, 5039, Note_off_c, 0, 66, 0
2, 5040, Note_on_c, 0, 67, 88
2, 5099, Note_off_c, 0, 67, 0
2, 5100, Note_on_c, 0, 69, 88
2, 5159, Note_off_c, 0, 69, 0
2, 5160, Note_on_c, 0, 66, 88
2, 5219, Note_off_c, 0, 66, 0
2, 5220, Note_on_c, 0, 67, 88
2, 5279, Note_off_c, 0, 67, 0
2, 5280, Note_on_c, 0, 69, 88
2, 5399, Note_off_c, 0, 69, 0
2, 5400, Note_on_c, 0, 67, 88
2, 5519, Note_off_c, 0, 67, 0
2, 5520, Note_on_c, 0, 66, 88
2, 5639, Note_off_c, 0, 66, 0
2, 5640, Note_on_c, 0, 71, 88
2, 5759, Note_off_c, 0, 71, 0
2, 5760, Note_on_c, 0, 64, 88
2, 5879, Note_off_c, 0, 64, 0
2, 5880, Note_on_c, 0, 66, 88
2, 5939, Note_off_c, 0, 66, 0
2, 5940, Note_on_c, 0, 68, 88
2, 5999, Note_off_c, 0, 68, 0
2, 6000, Note_on_c, 0, 69, 88
2, 6059, Note_off_c, 0, 69, 0
2, 6060, Note_on_c, 0, 71, 88
2, 6119, Note_off_c, 0, 71, 0
2, 6120, Note_on_c, 0, 72, 88
2, 6179, Note_off_c, 0, 72, 0
2, 6180, Note_on_c, 0, 74, 88
2, 6239, Note_off_c, 0, 74, 0
2, 6240, Note_on_c, 0, 76, 88
2, 6359, Note_off_c, 0, 76, 0
2, 6360, Note_on_c, 0, 69, 88
2, 6479, Note_off_c, 0, 69, 0
2, 6480, Note_on_c, 0, 68, 88
2, 6719, Note_off_c, 0, 68, 0
2, 6720, Note_on_c, 0, 69, 88
2, 6839, Note_off_c, 0, 69, 0
2, 6840, Note_on_c, 0, 69, 88
2, 6959, Note_off_c, 0, 69, 0
2, 6960, Note_on_c, 0, 67, 88
2, 7079, Note_off_c, 0, 67, 0
2, 7080, Note_on_c, 0, 65, 88
2, 7199, Note_off_c, 0, 65, 0
2, 7200, Note_on_c, 0, 64, 88
2, 7319, Note_off_c, 0, 64, 0
2, 7320, Note_on_c, 0, 72, 88
2, 7439, Note_off_c, 0, 72, 0
2, 7440, Note_on_c, 0, 71, 88
2, 7559, Note_off_c, 0, 71, 0
2, 7560, Note_on_c, 0, 69, 88
2, 7679, Note_off_c, 0, 69, 0
2, 7680, Note_on_c, 0, 68, 88
2, 7799, Note_off_c, 0, 68, 0
2, 7800, Note_on_c, 0, 76, 88
2, 7919, Note_off_c, 0, 76, 0
2, 7920, Note_on_c, 0, 74, 88
2, 8039, Note_off_c, 0, 74, 0
2, 8040, Note_on_c, 0, 72, 88
2, 8159, Note_off_c, 0, 72, 0
2, 8160, Note_on_c, 0, 71, 88
2, 8219, Note_off_c, 0, 71, 0
2, 8220, Note_on_c, 0, 72, 88
2, 8279, Note_off_c, 0, 72, 0
2, 8280, Note_on_c, 0, 74, 88
2, 8339, Note_off_c, 0, 74, 0
2, 8340, Note_on_c, 0, 71, 88
2, 8399, Note_off_c, 0, 71, 0
2, 8400, Note_on_c, 0, 72, 88
2, 8459, Note_off_c, 0, 72, 0
2, 8460, Note_on_c, 0, 71, 88
2, 8519, Note_off_c, 0, 71, 0
2, 8520, Note_on_c, 0, 69, 88
2, 8579, Note_off_c, 0, 69, 0
2, 8580, Note_on_c, 0, 72, 88
2, 8639, Note_off_c, 0, 72, 0
2, 8640, Note_on_c, 0, 74, 88
2, 8699, Note_off_c, 0, 74, 0
2, 8700, Note_on_c, 0, 76, 88
2, 8759, Note_off_c, 0, 76, 0
2, 8760, Note_on_c, 0, 77, 88
2, 8819, Note_off_c, 0, 77, 0
2, 8820, Note_on_c, 0, 74, 88
2, 8879, Note_off_c, 0, 74, 0
2, 8880, Note_on_c, 0, 76, 88
2, 9239, Note_off_c, 0, 76, 0
2, 9240, Note_on_c, 0, 69, 88
2, 9359, Note_off_c, 0, 69, 0
2, 9360, Note_on_c, 0, 71, 88
2, 9419, Note_off_c, 0, 71, 0
2, 9420, Note_on_c, 0, 72, 88
2, 9479, Note_off_c, 0, 72, 0
2, 9480, Note_on_c, 0, 74, 88
2, 9719, Note_off_c, 0, 74, 0
2, 9720, Note_on_c, 0, 72, 88
2, 9839, Note_off_c, 0, 72, 0
2, 9840, Note_on_c, 0, 71, 88
2, 9959, Note_off_c, 0, 71, 0
2, 9960, Note_on_c, 0, 69, 88
2, 10079, Note_off_c, 0, 69, 0
2, 10080, Note_on_c, 0, 67, 88
2, 10199, Note_off_c, 0, 67, 0
2, 10200, Note_on_c, 0, 76, 88
2, 10319, Note_off_c, 0, 76, 0
2, 10320, Note_on_c, 0, 74, 88
2, 10439, Note_off_c, 0, 74, 0
2, 10440, Note_on_c, 0, 72, 88
2, 10559, Note_off_c, 0, 72, 0
2, 10560, Note_on_c, 0, 71, 88
2, 10919, Note_off_c, 0, 71, 0
2, 10920, Note_on_c, 0, 69, 88
2, 11159, Note_off_c, 0, 69, 0
2, 11160, Note_on_c, 0, 67, 88
2, 11219, Note_off_c, 0, 67, 0
2, 11220, Note_on_c, 0, 66, 88
2, 11279, Note_off_c, 0, 66, 0
2, 11280, Note_on_c, 0, 67, 88
2, 11339, Note_off_c, 0, 67, 0
2, 11340, Note_on_c, 0, 69, 88
2, 11399, Note_off_c, 0, 69, 0
2, 11400, Note_on_c, 0, 71, 88
2, 11459, Note_off_c, 0, 71, 0
2, 11460, Note_on_c, 0, 67, 88
2, 11519, Note_off_c, 0, 67, 0
2, 11520, Note_on_c, 0, 72, 88
2, 11879, Note_off_c, 0, 72, 0
2, 11880, Note_on_c, 0, 71, 88
2, 11999, Note_off_c, 0, 71, 0
2, 12000, Note_on_c, 0, 69, 88
2, 12059, Note_off_c, 0, 69, 0
2, 12060, Note_on_c, 0, 67, 88
2, 12119, Note_off_c, 0, 67, 0
2, 12120, Note_on_c, 0, 69, 88
2, 12179, Note_off_c, 0, 69, 0
2, 12180, Note_on_c, 0, 71, 88
2, 12239, Note_off_c, 0, 71, 0
2, 12240, Note_on_c, 0, 72, 88
2, 12359, Note_off_c, 0, 72, 0
2, 12360, Note_on_c, 0, 66, 88
2, 12479, Note_off_c, 0, 66, 0
2, 12480, Note_on_c, 0, 71, 88
2, 12539, Note_off_c, 0, 71, 0
2, 12540, Note_on_c, 0, 69, 88
2, 12599, Note_off_c, 0, 69, 0
2, 12600, Note_on_c, 0, 72, 88
2, 12659, Note_off_c, 0, 72, 0
2, 12660, Note_on_c, 0, 71, 88
2, 12719, Note_off_c, 0, 71, 0
2, 12720, Note_on_c, 0, 69, 88
2, 12779, Note_off_c, 0, 69, 0
2, 12780, Note_on_c, 0, 67, 88
2, 12839, Note_off_c, 0, 67, 0
2, 12840, Note_on_c, 0, 66, 88
2, 12899, Note_off_c, 0, 66, 0
2, 12900, Note_on_c, 0, 67, 88
2, 12959, Note_off_c, 0, 67, 0
2, 12960, Note_on_c, 0, 64, 88
2, 13079, Note_off_c, 0, 64, 0
2, 13080, Note_on_c, 0, 76, 88
2, 13139, Note_off_c, 0, 76, 0
2, 13140, Note_on_c, 0, 77, 88
2, 13199, Note_off_c, 0, 77, 0
2, 13200, Note_on_c, 0, 76, 88
2, 13319, Note_off_c, 0, 76, 0
2, 13320, Note_on_c, 0, 74, 88
2, 13439, Note_off_c, 0, 74, 0
2, 13440, Note_on_c, 0, 72, 88
2, 13559, Note_off_c, 0, 72, 0
2, 13560, Note_on_c, 0, 72, 88
2, 13619, Note_off_c, 0, 72, 0
2, 13620, Note_on_c, 0, 74, 88
2, 13679, Note_off_c, 0, 74, 0
2, 13680, Note_on_c, 0, 72, 88
2, 13799, Note_off_c, 0, 72, 0
2, 13800, Note_on_c, 0, 71, 88
2, 13919, Note_off_c, 0, 71, 0
2, 13920, Note_on_c, 0, 69, 88
2, 13979, Note_off_c, 0, 69, 0
2, 13980, Note_on_c, 0, 71, 88
2, 14039, Note_off_c, 0, 71, 0
2, 14040, Note_on_c, 0, 72, 88
2, 14099, Note_off_c, 0, 72, 0
2, 14100, Note_on_c, 0, 71, 88
2, 14159, Note_off_c, 0, 71, 0
2, 14160, Note_on_c, 0, 69, 88
2, 14279, Note_off_c, 0, 69, 0
2, 14280, Note_on_c, 0, 67, 88
2, 14399, Note_off_c, 0, 67, 0
2, 14400, Note_on_c, 0, 78, 88
2, 14519, Note_off_c, 0, 78, 0
2, 14520, Note_on_c, 0, 81, 88
2, 14759, Note_off_c, 0, 81, 0
2, 14760, Note_on_c, 0, 76, 88
2, 14879, Note_off_c, 0, 76, 0
2, 14880, Note_on_c, 0, 74, 88
2, 14939, Note_off_c, 0, 74, 0
2, 14940, Note_on_c, 0, 72, 88
2, 14999, Note_off_c, 0, 72, 0
2, 15000, Note_on_c, 0, 76, 88
2, 15059, Note_off_c, 0, 76, 0
2, 15060, Note_on_c, 0, 74, 88
2, 15119, Note_off_c, 0, 74, 0
2, 15120, Note_on_c, 0, 72, 88
2, 15179, Note_off_c, 0, 72, 0
2, 15180, Note_on_c, 0, 71, 88
2, 15239, Note_off_c, 0, 71, 0
2, 15240, Note_on_c, 0, 74, 88
2, 15299, Note_off_c, 0, 74, 0
2, 15300, Note_on_c, 0, 72, 88
2, 15359, Note_off_c, 0, 72, 0
2, 15360, Note_on_c, 0, 71, 88
2, 15479, Note_off_c, 0, 71, 0
2, 15480, Note_on_c, 0, 72, 88
2, 15599, Note_off_c, 0, 72, 0
2, 15600, Note_on_c, 0, 74, 88
2, 15659, Note_off_c, 0, 74, 0
2, 15660, Note_on_c, 0, 71, 88
2, 15719, Note_off_c, 0, 71, 0
2, 15720, Note_on_c, 0, 69, 88
2, 15779, Note_off_c, 0, 69, 0
2, 15780, Note_on_c, 0, 67, 88
2, 15839, Note_off_c, 0, 67, 0
2, 15840, Note_on_c, 0, 76, 88
2, 15869, Note_off_c, 0, 76, 0
2, 15870, Note_on_c, 0, 78, 88
2, 15899, Note_off_c, 0, 78, 0
2, 15900, Note_on_c, 0, 76, 88
2, 15959, Note_off_c, 0, 76, 0
2, 15960, Note_on_c, 0, 78, 88
2, 16019, Note_off_c, 0, 78, 0
2, 16020, Note_on_c, 0, 79, 88
2, 16079, Note_off_c, 0, 79, 0
2, 16080, Note_on_c, 0, 79, 88
2, 16105, Note_off_c, 0, 79, 0
2, 16106, Note_on_c, 0, 78, 88
2, 16132, Note_off_c, 0, 78, 0
2, 16133, Note_on_c, 0, 79, 88
2, 16154, Note_off_c, 0, 79, 0
2, 16155, Note_on_c, 0, 78, 88
2, 16177, Note_off_c, 0, 78, 0
2, 16178, Note_on_c, 0, 79, 88
2, 16199, Note_off_c, 0, 79, 0
2, 16200, Note_on_c, 0, 78, 88
2, 16259, Note_off_c, 0, 78, 0
2, 16260, Note_on_c, 0, 79, 88
2, 16319, Note_off_c, 0, 79, 0
2, 16320, Note_on_c, 0, 79, 88
2, 16919, Note_off_c, 0, 79, 0
2, 16920, Note_on_c, 0, 79, 88
2, 16979, Note_off_c, 0, 79, 0
2, 16980, Note_on_c, 0, 81, 88
2, 17039, Note_off_c, 0, 81, 0
2, 17040, Note_on_c, 0, 79, 88
2, 17159, Note_off_c, 0, 79, 0
2, 17160, Note_on_c, 0, 77, 88
2, 17279, Note_off_c, 0, 77, 0
2, 17280, Note_on_c, 0, 76, 88
2, 17339, Note_off_c, 0, 76, 0
2, 17340, Note_on_c, 0, 74, 88
2, 17399, Note_off_c, 0, 74, 0
2, 17400, Note_on_c, 0, 72, 88
2, 17459, Note_off_c, 0, 72, 0
2, 17460, Note_on_c, 0, 74, 88
2, 17519, Note_off_c, 0, 74, 0
2, 17520, Note_on_c, 0, 76, 88
2, 17579, Note_off_c, 0, 76, 0
2, 17580, Note_on_c, 0, 77, 88
2, 17639, Note_off_c, 0, 77, 0
2, 17640, Note_on_c, 0, 79, 88
2, 17819, Note_off_c, 0, 79, 0
2, 17820, Note_on_c, 0, 77, 88
2, 17879, Note_off_c, 0, 77, 0
2, 17880, Note_on_c, 0, 76, 88
2, 17939, Note_off_c, 0, 76, 0
2, 17940, Note_on_c, 0, 77, 88
2, 17999, Note_off_c, 0, 77, 0
2, 18000, Note_on_c, 0, 79, 88
2, 18059, Note_off_c, 0, 79, 0
2, 18060, Note_on_c, 0, 81, 88
2, 18119, Note_off_c, 0, 81, 0
2, 18120, Note_on_c, 0, 82, 88
2, 18179, Note_off_c, 0, 82, 0
2, 18180, Note_on_c, 0, 79, 88
2, 18239, Note_off_c, 0, 79, 0
2, 18240, Note_on_c, 0, 81, 88
2, 18419, Note_off_c, 0, 81, 0
2, 18420, Note_on_c, 0, 82, 88
2, 18479, Note_off_c, 0, 82, 0
2, 18480, Note_on_c, 0, 79, 88
2, 18659, Note_off_c, 0, 79, 0
2, 18660, Note_on_c, 0, 81, 88
2, 18719, Note_off_c, 0, 81, 0
2, 18720, Note_on_c, 0, 77, 88
2, 18779, Note_off_c, 0, 77, 0
2, 18780, Note_on_c, 0, 76, 88
2, 18839, Note_off_c, 0, 76, 0
2, 18840, Note_on_c, 0, 77, 88
2, 18899, Note_off_c, 0, 77, 0
2, 18900, Note_on_c, 0, 79, 88
2, 18959, Note_off_c, 0, 79, 0
2, 18960, Note_on_c, 0, 81, 88
2, 19079, Note_off_c, 0, 81, 0
2, 19080, Note_on_c, 0, 69, 88
2, 19199, Note_off_c, 0, 69, 0
2, 19200, Note_on_c, 0, 74, 88
2, 19259, Note_off_c, 0, 74, 0
2, 19260, Note_on_c, 0, 79, 88
2, 19319, Note_off_c, 0, 79, 0
2, 19320, Note_on_c, 0, 77, 88
2, 19379, Note_off_c, 0, 77, 0
2, 19380, Note_on_c, 0, 76, 88
2, 19439, Note_off_c, 0, 76, 0
2, 19440, Note_on_c, 0, 77, 88
2, 19465, Note_off_c, 0, 77, 0
2, 19466, Note_on_c, 0, 76, 88
2, 19492, Note_off_c, 0, 76, 0
2, 19493, Note_on_c, 0, 77, 88
2, 19514, Note_off_c, 0, 77, 0
2, 19515, Note_on_c, 0, 76, 88
2, 19537, Note_off_c, 0, 76, 0
2, 19538, Note_on_c, 0, 77, 88
2, 19559, Note_off_c, 0, 77, 0
2, 19560, Note_on_c, 0, 76, 88
2, 19619, Note_off_c, 0, 76, 0
2, 19620, Note_on_c, 0, 74, 88
2, 19679, Note_off_c, 0, 74, 0
2, 19680, Note_on_c, 0, 74, 88
2, 20039, Note_off_c, 0, 74, 0
2, 20040, Note_on_c, 0, 76, 88
2, 20159, Note_off_c, 0, 76, 0
2, 20160, Note_on_c, 0, 77, 88
2, 20939, Note_off_c, 0, 77, 0
2, 20940, Note_on_c, 0, 76, 88
2, 20999, Note_off_c, 0, 76, 0
2, 21000, Note_on_c, 0, 74, 88
2, 21059, Note_off_c, 0, 74, 0
2, 21060, Note_on_c, 0, 72, 88
2, 21119, Note_off_c, 0, 72, 0
2, 21120, Note_on_c, 0, 71, 88
2, 21239, Note_off_c, 0, 71, 0
2, 21240, Note_on_c, 0, 72, 88
2, 21479, Note_off_c, 0, 72, 0
2, 21480, Note_on_c, 0, 71, 88
2, 21599, Note_off_c, 0, 71, 0
2, 21600, Note_on_c, 0, 72, 88
2, 21959, Note_off_c, 0, 72, 0
2, 21960, Note_on_c, 0, 70, 88
2, 22079, Note_off_c, 0, 70, 0
2, 22080, Note_on_c, 0, 69, 88
2, 22679, Note_off_c, 0, 69, 0
2, 22680, Note_on_c, 0, 68, 88
2, 22799, Note_off_c, 0, 68, 0
2, 22800, Note_on_c, 0, 69, 88
2, 22919, Note_off_c, 0, 69, 0
2, 22920, Note_on_c, 0, 71, 88
2, 23039, Note_off_c, 0, 71, 0
2, 23040, Note_on_c, 0, 64, 88
2, 23339, Note_off_c, 0, 64, 0
2, 23340, Note_on_c, 0, 66, 88
2, 23399, Note_off_c, 0, 66, 0
2, 23400, Note_on_c, 0, 68, 88
2, 23459, Note_off_c, 0, 68, 0
2, 23460, Note_on_c, 0, 69, 88
2, 23519, Note_off_c, 0, 69, 0
2, 23520, Note_on_c, 0, 71, 88
2, 23579, Note_off_c, 0, 71, 0
2, 23580, Note_on_c, 0, 72, 88
2, 23639, Note_off_c, 0, 72, 0
2, 23640, Note_on_c, 0, 71, 88
2, 23699, Note_off_c, 0, 71, 0
2, 23700, Note_on_c, 0, 72, 88
2, 23759, Note_off_c, 0, 72, 0
2, 23760, Note_on_c, 0, 74, 88
2, 24119, Note_off_c, 0, 74, 0
2, 24120, Note_on_c, 0, 72, 88
2, 24359, Note_off_c, 0, 72, 0
2, 24360, Note_on_c, 0, 71, 88
2, 24599, Note_off_c, 0, 71, 0
2, 24600, Note_on_c, 0, 69, 88
2, 24659, Note_off_c, 0, 69, 0
2, 24660, Note_on_c, 0, 68, 88
2, 24719, Note_off_c, 0, 68, 0
2, 24720, Note_on_c, 0, 69, 88
2, 25199, Note_off_c, 0, 69, 0
2, 25200, Note_on_c, 0, 68, 88
2, 25439, Note_off_c, 0, 68, 0
2, 25440, Note_on_c, 0, 69, 88
2, 25559, Note_off_c, 0, 69, 0
2, 25560, Note_on_c, 0, 69, 88
2, 25619, Note_off_c, 0, 69, 0
2, 25620, Note_on_c, 0, 68, 88
2, 25679, Note_off_c, 0, 68, 0
2, 25680, Note_on_c, 0, 69, 88
2, 25799, Note_off_c, 0, 69, 0
2, 25800, Note_on_c, 0, 71, 88
2, 25919, Note_off_c, 0, 71, 0
2, 25920, Note_on_c, 0, 72, 88
2, 26039, Note_off_c, 0, 72, 0
2, 26040, Note_on_c, 0, 72, 88
2, 26099, Note_off_c, 0, 72, 0
2, 26100, Note_on_c, 0, 71, 88
2, 26159, Note_off_c, 0, 71, 0
2, 26160, Note_on_c, 0, 72, 88
2, 26279, Note_off_c, 0, 72, 0
2, 26280, Note_on_c, 0, 74, 88
2, 26399, Note_off_c, 0, 74, 0
2, 26400, Note_on_c, 0, 76, 88
2, 26459, Note_off_c, 0, 76, 0
2, 26460, Note_on_c, 0, 74, 88
2, 26519, Note_off_c, 0, 74, 0
2, 26520, Note_on_c, 0, 72, 88
2, 26579, Note_off_c, 0, 72, 0
2, 26580, Note_on_c, 0, 74, 88
2, 26639, Note_off_c, 0, 74, 0
2, 26640, Note_on_c, 0, 76, 88
2, 26759, Note_off_c, 0, 76, 0
2, 26760, Note_on_c, 0, 77, 88
2, 26879, Note_off_c, 0, 77, 0
2, 26880, Note_on_c, 0, 68, 88
2, 26999, Note_off_c, 0, 68, 0
2, 27000, Note_on_c, 0, 64, 88
2, 27239, Note_off_c, 0, 64, 0
2, 27240, Note_on_c, 0, 69, 88
2, 27359, Note_off_c, 0, 69, 0
2, 27360, Note_on_c, 0, 71, 88
2, 27419, Note_off_c, 0, 71, 0
2, 27420, Note_on_c, 0, 72, 88
2, 27479, Note_off_c, 0, 72, 0
2, 27480, Note_on_c, 0, 69, 88
2, 27539, Note_off_c, 0, 69, 0
2, 27540, Note_on_c, 0, 71, 88
2, 27599, Note_off_c, 0, 71, 0
2, 27600, Note_on_c, 0, 72, 88
2, 27659, Note_off_c, 0, 72, 0
2, 27660, Note_on_c, 0, 74, 88
2, 27719, Note_off_c, 0, 74, 0
2, 27720, Note_on_c, 0, 71, 88
2, 27779, Note_off_c, 0, 71, 0
2, 27780, Note_on_c, 0, 72, 88
2, 27839, Note_off_c, 0, 72, 0
2, 27840, Note_on_c, 0, 74, 88
2, 27959, Note_off_c, 0, 74, 0
2, 27960, Note_on_c, 0, 72, 88
2, 28079, Note_off_c, 0, 72, 0
2, 28080, Note_on_c, 0, 71, 88
2, 28199, Note_off_c, 0, 71, 0
2, 28200, Note_on_c, 0, 76, 88
2, 28319, Note_off_c, 0, 76, 0
2, 28320, Note_on_c, 0, 69, 88
2, 28439, Note_off_c, 0, 69, 0
2, 28440, Note_on_c, 0, 81, 88
2, 28679, Note_off_c, 0, 81, 0
2, 28680, Note_on_c, 0, 79, 88
2, 28919, Note_off_c, 0, 79, 0
2, 28920, Note_on_c, 0, 84, 88
2, 28979, Note_off_c, 0, 84, 0
2, 28980, Note_on_c, 0, 83, 88
2, 29039, Note_off_c, 0, 83, 0
2, 29040, Note_on_c, 0, 81, 88
2, 29099, Note_off_c, 0, 81, 0
2, 29100, Note_on_c, 0, 79, 88
2, 29159, Note_off_c, 0, 79, 0
2, 29160, Note_on_c, 0, 78, 88
2, 29219, Note_off_c, 0, 78, 0
2, 29220, Note_on_c, 0, 76, 88
2, 29279, Note_off_c, 0, 76, 0
2, 29280, Note_on_c, 0, 75, 88
2, 29399, Note_off_c, 0, 75, 0
2, 29400, Note_on_c, 0, 71, 88
2, 29519, Note_off_c, 0, 71, 0
2, 29520, Note_on_c, 0, 73, 88
2, 29639, Note_off_c, 0, 73, 0
2, 29640, Note_on_c, 0, 75, 88
2, 29759, Note_off_c, 0, 75, 0
2, 29760, Note_on_c, 0, 76, 88
2, 29819, Note_off_c, 0, 76, 0
2, 29820, Note_on_c, 0, 74, 88
2, 29879, Note_off_c, 0, 74, 0
2, 29880, Note_on_c, 0, 72, 88
2, 29939, Note_off_c, 0, 72, 0
2, 29940, Note_on_c, 0, 71, 88
2, 29999, Note_off_c, 0, 71, 0
2, 30000, Note_on_c, 0, 72, 88
2, 30239, Note_off_c, 0, 72, 0
2, 30240, Note_on_c, 0, 71, 88
2, 30359, Note_off_c, 0, 71, 0
2, 30360, Note_on_c, 0, 76, 88
2, 30419, Note_off_c, 0, 76, 0
2, 30420, Note_on_c, 0, 75, 88
2, 30479, Note_off_c, 0, 75, 0
2, 30480, Note_on_c, 0, 76, 88
2, 30599, Note_off_c, 0, 76, 0
2, 30600, Note_on_c, 0, 78, 88
2, 30719, Note_off_c, 0, 78, 0
2, 30720, Note_on_c, 0, 79, 88
2, 30839, Note_off_c, 0, 79, 0
2, 30840, Note_on_c, 0, 79, 88
2, 30899, Note_off_c, 0, 79, 0
2, 30900, Note_on_c, 0, 78, 88
2, 30959, Note_off_c, 0, 78, 0
2, 30960, Note_on_c, 0, 79, 88
2, 31079, Note_off_c, 0, 79, 0
2, 31080, Note_on_c, 0, 81, 88
2, 31199, Note_off_c, 0, 81, 0
2, 31200, Note_on_c, 0, 71, 88
2, 32039, Note_off_c, 0, 71, 0
2, 32040, Note_on_c, 0, 76, 88
2, 32099, Note_off_c, 0, 76, 0
2, 32100, Note_on_c, 0, 74, 88
2, 32159, Note_off_c, 0, 74, 0
2, 32160, Note_on_c, 0, 72, 88
2, 32219, Note_off_c, 0, 72, 0
2, 32220, Note_on_c, 0, 71, 88
2, 32279, Note_off_c, 0, 71, 0
2, 32280, Note_on_c, 0, 69, 88
2, 32339, Note_off_c, 0, 69, 0
2, 32340, Note_on_c, 0, 71, 88
2, 32399, Note_off_c, 0, 71, 0
2, 32400, Note_on_c, 0, 72, 88
2, 32519, Note_off_c, 0, 72, 0
2, 32520, Note_on_c, 0, 71, 88
2, 32579, Note_off_c, 0, 71, 0
2, 32580, Note_on_c, 0, 69, 88
2, 32639, Note_off_c, 0, 69, 0
2, 32640, Note_on_c, 0, 67, 88
2, 32879, Note_off_c, 0, 67, 0
2, 32880, Note_on_c, 0, 72, 88
2, 33239, Note_off_c, 0, 72, 0
2, 33240, Note_on_c, 0, 71, 88
2, 33299, Note_off_c, 0, 71, 0
2, 33300, Note_on_c, 0, 69, 88
2, 33359, Note_off_c, 0, 69, 0
2, 33360, Note_on_c, 0, 71, 88
2, 33479, Note_off_c, 0, 71, 0
2, 33480, Note_on_c, 0, 73, 88
2, 33599, Note_off_c, 0, 73, 0
2, 33600, Note_on_c, 0, 74, 88
2, 34199, Note_off_c, 0, 74, 0
2, 34200, Note_on_c, 0, 72, 88
2, 34259, Note_off_c, 0, 72, 0
2, 34260, Note_on_c, 0, 71, 88
2, 34319, Note_off_c, 0, 71, 0
2, 34320, Note_on_c, 0, 72, 88
2, 34439, Note_off_c, 0, 72, 0
2, 34440, Note_on_c, 0, 74, 88
2, 34559, Note_off_c, 0, 74, 0
2, 34560, Note_on_c, 0, 76, 88
2, 34679, Note_off_c, 0, 76, 0
2, 34680, Note_on_c, 0, 69, 88
2, 34799, Note_off_c, 0, 69, 0
2, 34800, Note_on_c, 0, 81, 88
2, 35099, Note_off_c, 0, 81, 0
2, 35100, Note_on_c, 0, 80, 88
2, 35159, Note_off_c, 0, 80, 0
2, 35160, Note_on_c, 0, 81, 88
2, 35219, Note_off_c, 0, 81, 0
2, 35220, Note_on_c, 0, 80, 88
2, 35279, Note_off_c, 0, 80, 0
2, 35280, Note_on_c, 0, 81, 88
2, 35399, Note_off_c, 0, 81, 0
2, 35400, Note_on_c, 0, 83, 88
2, 35519, Note_off_c, 0, 83, 0
2, 35520, Note_on_c, 0, 76, 88
2, 35879, Note_off_c, 0, 76, 0
2, 35880, Note_on_c, 0, 74, 88
2, 35939, Note_off_c, 0, 74, 0
2, 35940, Note_on_c, 0, 72, 88
2, 35999, Note_off_c, 0, 72, 0
2, 36000, Note_on_c, 0, 71, 88
2, 36119, Note_off_c, 0, 71, 0
2, 36120, Note_on_c, 0, 76, 88
2, 36179, Note_off_c, 0, 76, 0
2, 36180, Note_on_c, 0, 74, 88
2, 36239, Note_off_c, 0, 74, 0
2, 36240, Note_on_c, 0, 72, 88
2, 36299, Note_off_c, 0, 72, 0
2, 36300, Note_on_c, 0, 71, 88
2, 36359, Note_off_c, 0, 71, 0
2, 36360, Note_on_c, 0, 69, 88
2, 36419, Note_off_c, 0, 69, 0
2, 36420, Note_on_c, 0, 68, 88
2, 36479, Note_off_c, 0, 68, 0
2, 36480, Note_on_c, 0, 69, 88
2, 36719, Note_off_c, 0, 69, 0
2, 36720, Note_on_c, 0, 68, 88
2, 36959, Note_off_c, 0, 68, 0
2, 36960, Note_on_c, 0, 69, 88
2, 40439, Note_off_c, 0, 69, 0
2, 40440, Note_on_c, 0, 72, 88
2, 40499, Note_off_c, 0, 72, 0
2, 40500, Note_on_c, 0, 71, 88
2, 40559, Note_off_c, 0, 71, 0
2, 40560, Note_on_c, 0, 72, 88
2, 40679, Note_off_c, 0, 72, 0
2, 40680, Note_on_c, 0, 74, 88
2, 40799, Note_off_c, 0, 74, 0
2, 40800, Note_on_c, 0, 76, 88
2, 40919, Note_off_c, 0, 76, 0
2, 40920, Note_on_c, 0, 76, 88
2, 40979, Note_off_c, 0, 76, 0
2, 40980, Note_on_c, 0, 74, 88
2, 41039, Note_off_c, 0, 74, 0
2, 41040, Note_on_c, 0, 76, 88
2, 41159, Note_off_c, 0, 76, 0
2, 41160, Note_on_c, 0, 77, 88
2, 41279, Note_off_c, 0, 77, 0
2, 41280, Note_on_c, 0, 79, 88
2, 41339, Note_off_c, 0, 79, 0
2, 41340, Note_on_c, 0, 77, 88
2, 41399, Note_off_c, 0, 77, 0
2, 41400, Note_on_c, 0, 76, 88
2, 41459, Note_off_c, 0, 76, 0
2, 41460, Note_on_c, 0, 77, 88
2, 41519, Note_off_c, 0, 77, 0
2, 41520, Note_on_c, 0, 79, 88
2, 41639, Note_off_c, 0, 79, 0
2, 41640, Note_on_c, 0, 81, 88
2, 41759, Note_off_c, 0, 81, 0
2, 41760, Note_on_c, 0, 71, 88
2, 41879, Note_off_c, 0, 71, 0
2, 41880, Note_on_c, 0, 67, 88
2, 42119, Note_off_c, 0, 67, 0
2, 42120, Note_on_c, 0, 72, 88
2, 42239, Note_off_c, 0, 72, 0
2, 42240, Note_on_c, 0, 74, 88
2, 42299, Note_off_c, 0, 74, 0
2, 42300, Note_on_c, 0, 76, 88
2, 42359, Note_off_c, 0, 76, 0
2, 42360, Note_on_c, 0, 72, 88
2, 42419, Note_off_c, 0, 72, 0
2, 42420, Note_on_c, 0, 74, 88
2, 42479, Note_off_c, 0, 74, 0
2, 42480, Note_on_c, 0, 76, 88
2, 42539, Note_off_c, 0, 76, 0
2, 42540, Note_on_c, 0, 77, 88
2, 42599, Note_off_c, 0, 77, 0
2, 42600, Note_on_c, 0, 74, 88
2, 42659, Note_off_c, 0, 74, 0
2, 42660, Note_on_c, 0, 76, 88
2, 42719, Note_off_c, 0, 76, 0
2, 42720, Note_on_c, 0, 77, 88
2, 42839, Note_off_c, 0, 77, 0
2, 42840, Note_on_c, 0, 76, 88
2, 42959, Note_off_c, 0, 76, 0
2, 42960, Note_on_c, 0, 74, 88
2, 43079, Note_off_c, 0, 74, 0
2, 43080, Note_on_c, 0, 79, 88
2, 43199, Note_off_c, 0, 79, 0
2, 43200, Note_on_c, 0, 72, 88
2, 43259, Note_off_c, 0, 72, 0
2, 43260, Note_on_c, 0, 71, 88
2, 43319, Note_off_c, 0, 71, 0
2, 43320, Note_on_c, 0, 74, 88
2, 43379, Note_off_c, 0, 74, 0
2, 43380, Note_on_c, 0, 72, 88
2, 43439, Note_off_c, 0, 72, 0
2, 43440, Note_on_c, 0, 71, 88
2, 43499, Note_off_c, 0, 71, 0
2, 43500, Note_on_c, 0, 69, 88
2, 43559, Note_off_c, 0, 69, 0
2, 43560, Note_on_c, 0, 67, 88
2, 43619, Note_off_c, 0, 67, 0
2, 43620, Note_on_c, 0, 65, 88
2, 43679, Note_off_c, 0, 65, 0
2, 43680, Note_on_c, 0, 64, 88
2, 43799, Note_off_c, 0, 64, 0
2, 43800, Note_on_c, 0, 65, 88
2, 43859, Note_off_c, 0, 65, 0
2, 43860, Note_on_c, 0, 67, 88
2, 43919, Note_off_c, 0, 67, 0
2, 43920, Note_on_c, 0, 69, 88
2, 43979, Note_off_c, 0, 69, 0
2, 43980, Note_on_c, 0, 71, 88
2, 44039, Note_off_c, 0, 71, 0
2, 44040, Note_on_c, 0, 72, 88
2, 44099, Note_off_c, 0, 72, 0
2, 44100, Note_on_c, 0, 74, 88
2, 44159, Note_off_c, 0, 74, 0
2, 44160, Note_on_c, 0, 71, 88
2, 44279, Note_off_c, 0, 71, 0
2, 44280, Note_on_c, 0, 69, 88
2, 44339, Note_off_c, 0, 69, 0
2, 44340, Note_on_c, 0, 67, 88
2, 44399, Note_off_c, 0, 67, 0
2, 44400, Note_on_c, 0, 72, 88
2, 44879, Note_off_c, 0, 72, 0
2, 44880, Note_on_c, 0, 72, 88
2, 44909, Note_off_c, 0, 72, 0
2, 44910, Note_on_c, 0, 71, 88
2, 44939, Note_off_c, 0, 71, 0
2, 44940, Note_on_c, 0, 72, 88
2, 44969, Note_off_c, 0, 72, 0
2, 44970, Note_on_c, 0, 71, 88
2, 44999, Note_off_c, 0, 71, 0
2, 45000, Note_on_c, 0, 72, 88
2, 45029, Note_off_c, 0, 72, 0
2, 45030, Note_on_c, 0, 71, 88
2, 45059, Note_off_c, 0, 71, 0
2, 45060, Note_on_c, 0, 69, 88
2, 45089, Note_off_c, 0, 69, 0
2, 45090, Note_on_c, 0, 71, 88
2, 45119, Note_off_c, 0, 71, 0
2, 45120, Note_on_c, 0, 72, 88
2, 45239, Note_off_c, 0, 72, 0
2, 45240, Note_on_c, 0, 76, 88
2, 45299, Note_off_c, 0, 76, 0
2, 45300, Note_on_c, 0, 77, 88
2, 45359, Note_off_c, 0, 77, 0
2, 45360, Note_on_c, 0, 76, 88
2, 45479, Note_off_c, 0, 76, 0
2, 45480, Note_on_c, 0, 74, 88
2, 45599, Note_off_c, 0, 74, 0
2, 45600, Note_on_c, 0, 72, 88
2, 45719, Note_off_c, 0, 72, 0
2, 45720, Note_on_c, 0, 73, 88
2, 45839, Note_off_c, 0, 73, 0
2, 45840, Note_on_c, 0, 74, 88
2, 45959, Note_off_c, 0, 74, 0
2, 45960, Note_on_c, 0, 76, 88
2, 46079, Note_off_c, 0, 76, 0
2, 46080, Note_on_c, 0, 69, 88
2, 46199, Note_off_c, 0, 69, 0
2, 46200, Note_on_c, 0, 74, 88
2, 46259, Note_off_c, 0, 74, 0
2, 46260, Note_on_c, 0, 76, 88
2, 46319, Note_off_c, 0, 76, 0
2, 46320, Note_on_c, 0, 74, 88
2, 46439, Note_off_c, 0, 74, 0
2, 46440, Note_on_c, 0, 72, 88
2, 46559, Note_off_c, 0, 72, 0
2, 46560, Note_on_c, 0, 71, 88
2, 46619, Note_off_c, 0, 71, 0
2, 46620, Note_on_c, 0, 72, 88
2, 46679, Note_off_c, 0, 72, 0
2, 46680, Note_on_c, 0, 74, 88
2, 46739, Note_off_c, 0, 74, 0
2, 46740, Note_on_c, 0, 72, 88
2, 46799, Note_off_c, 0, 72, 0
2, 46800, Note_on_c, 0, 71, 88
2, 46919, Note_off_c, 0, 71, 0
2, 46920, Note_on_c, 0, 69, 88
2, 47039, Note_off_c, 0, 69, 0
2, 47040, Note_on_c, 0, 67, 88
2, 50519, Note_off_c, 0, 67, 0
2, 50520, Note_on_c, 0, 74, 88
2, 50579, Note_off_c, 0, 74, 0
2, 50580, Note_on_c, 0, 76, 88
2, 50639, Note_off_c, 0, 76, 0
2, 50640, Note_on_c, 0, 74, 88
2, 50759, Note_off_c, 0, 74, 0
2, 50760, Note_on_c, 0, 72, 88
2, 50879, Note_off_c, 0, 72, 0
2, 50880, Note_on_c, 0, 71, 88
2, 50999, Note_off_c, 0, 71, 0
2, 51000, Note_on_c, 0, 71, 88
2, 51059, Note_off_c, 0, 71, 0
2, 51060, Note_on_c, 0, 72, 88
2, 51119, Note_off_c, 0, 72, 0
2, 51120, Note_on_c, 0, 71, 88
2, 51239, Note_off_c, 0, 71, 0
2, 51240, Note_on_c, 0, 69, 88
2, 51359, Note_off_c, 0, 69, 0
2, 51360, Note_on_c, 0, 67, 88
2, 51419, Note_off_c, 0, 67, 0
2, 51420, Note_on_c, 0, 69, 88
2, 51479, Note_off_c, 0, 69, 0
2, 51480, Note_on_c, 0, 71, 88
2, 51539, Note_off_c, 0, 71, 0
2, 51540, Note_on_c, 0, 69, 88
2, 51599, Note_off_c, 0, 69, 0
2, 51600, Note_on_c, 0, 67, 88
2, 51719, Note_off_c, 0, 67, 0
2, 51720, Note_on_c, 0, 66, 88
2, 51839, Note_off_c, 0, 66, 0
2, 51840, Note_on_c, 0, 76, 88
2, 51959, Note_off_c, 0, 76, 0
2, 51960, Note_on_c, 0, 79, 88
2, 52199, Note_off_c, 0, 79, 0
2, 52200, Note_on_c, 0, 74, 88
2, 52319, Note_off_c, 0, 74, 0
2, 52320, Note_on_c, 0, 72, 88
2, 52379, Note_off_c, 0, 72, 0
2, 52380, Note_on_c, 0, 71, 88
2, 52439, Note_off_c, 0, 71, 0
2, 52440, Note_on_c, 0, 74, 88
2, 52499, Note_off_c, 0, 74, 0
2, 52500, Note_on_c, 0, 72, 88
2, 52559, Note_off_c, 0, 72, 0
2, 52560, Note_on_c, 0, 71, 88
2, 52619, Note_off_c, 0, 71, 0
2, 52620, Note_on_c, 0, 69, 88
2, 52679, Note_off_c, 0, 69, 0
2, 52680, Note_on_c, 0, 72, 88
2, 52739, Note_off_c, 0, 72, 0
2, 52740, Note_on_c, 0, 71, 88
2, 52799, Note_off_c, 0, 71, 0
2, 52800, Note_on_c, 0, 69, 88
2, 52919, Note_off_c, 0, 69, 0
2, 52920, Note_on_c, 0, 71, 88
2, 53039, Note_off_c, 0, 71, 0
2, 53040, Note_on_c, 0, 72, 88
2, 53159, Note_off_c, 0, 72, 0
2, 53160, Note_on_c, 0, 67, 88
2, 53279, Note_off_c, 0, 67, 0
2, 53280, Note_on_c, 0, 74, 88
2, 53339, Note_off_c, 0, 74, 0
2, 53340, Note_on_c, 0, 76, 88
2, 53399, Note_off_c, 0, 76, 0
2, 53400, Note_on_c, 0, 74, 88
2, 53459, Note_off_c, 0, 74, 0
2, 53460, Note_on_c, 0, 76, 88
2, 53519, Note_off_c, 0, 76, 0
2, 53520, Note_on_c, 0, 77, 88
2, 53542, Note_off_c, 0, 77, 0
2, 53543, Note_on_c, 0, 76, 88
2, 53564, Note_off_c, 0, 76, 0
2, 53565, Note_on_c, 0, 77, 88
2, 53587, Note_off_c, 0, 77, 0
2, 53588, Note_on_c, 0, 76, 88
2, 53609, Note_off_c, 0, 76, 0
2, 53610, Note_on_c, 0, 77, 88
2, 53632, Note_off_c, 0, 77, 0
2, 53633, Note_on_c, 0, 76, 88
2, 53654, Note_off_c, 0, 76, 0
2, 53655, Note_on_c, 0, 77, 88
2, 53677, Note_off_c, 0, 77, 0
2, 53678, Note_on_c, 0, 76, 88
2, 53699, Note_off_c, 0, 76, 0
2, 53700, Note_on_c, 0, 74, 88
2, 53729, Note_off_c, 0, 74, 0
2, 53730, Note_on_c, 0, 76, 88
2, 53759, Note_off_c, 0, 76, 0
2, 53760, Note_on_c, 0, 77, 88
2, 54359, Note_off_c, 0, 77, 0
2, 54360, Note_on_c, 0, 76, 88
2, 54419, Note_off_c, 0, 76, 0
2, 54420, Note_on_c, 0, 77, 88
2, 54479, Note_off_c, 0, 77, 0
2, 54480, Note_on_c, 0, 76, 88
2, 54599, Note_off_c, 0, 76, 0
2, 54600, Note_on_c, 0, 74, 88
2, 54719, Note_off_c, 0, 74, 0
2, 54720, Note_on_c, 0, 72, 88
2, 54839, Note_off_c, 0, 72, 0
2, 54840, Note_on_c, 0, 72, 88
2, 54899, Note_off_c, 0, 72, 0
2, 54900, Note_on_c, 0, 74, 88
2, 54959, Note_off_c, 0, 74, 0
2, 54960, Note_on_c, 0, 72, 88
2, 55079, Note_off_c, 0, 72, 0
2, 55080, Note_on_c, 0, 71, 88
2, 55199, Note_off_c, 0, 71, 0
2, 55200, Note_on_c, 0, 69, 88
2, 55259, Note_off_c, 0, 69, 0
2, 55260, Note_on_c, 0, 71, 88
2, 55319, Note_off_c, 0, 71, 0
2, 55320, Note_on_c, 0, 72, 88
2, 55379, Note_off_c, 0, 72, 0
2, 55380, Note_on_c, 0, 71, 88
2, 55439, Note_off_c, 0, 71, 0
2, 55440, Note_on_c, 0, 69, 88
2, 55559, Note_off_c, 0, 69, 0
2, 55560, Note_on_c, 0, 67, 88
2, 55679, Note_off_c, 0, 67, 0
2, 55680, Note_on_c, 0, 77, 88
2, 55799, Note_off_c, 0, 77, 0
2, 55800, Note_on_c, 0, 81, 88
2, 56039, Note_off_c, 0, 81, 0
2, 56040, Note_on_c, 0, 76, 88
2, 56159, Note_off_c, 0, 76, 0
2, 56160, Note_on_c, 0, 74, 88
2, 56219, Note_off_c, 0, 74, 0
2, 56220, Note_on_c, 0, 72, 88
2, 56279, Note_off_c, 0, 72, 0
2, 56280, Note_on_c, 0, 76, 88
2, 56339, Note_off_c, 0, 76, 0
2, 56340, Note_on_c, 0, 74, 88
2, 56399, Note_off_c, 0, 74, 0
2, 56400, Note_on_c, 0, 72, 88
2, 56459, Note_off_c, 0, 72, 0
2, 56460, Note_on_c, 0, 71, 88
2, 56519, Note_off_c, 0, 71, 0
2, 56520, Note_on_c, 0, 74, 88
2, 56579, Note_off_c, 0, 74, 0
2, 56580, Note_on_c, 0, 72, 88
2, 56639, Note_off_c, 0, 72, 0
2, 56640, Note_on_c, 0, 71, 88
2, 56999, Note_off_c, 0, 71, 0
2, 57000, Note_on_c, 0, 69, 88
2, 57179, Note_off_c, 0, 69, 0
2, 57180, Note_on_c, 0, 71, 88
2, 57239, Note_off_c, 0, 71, 0
2, 57240, Note_on_c, 0, 68, 88
2, 57299, Note_off_c, 0, 68, 0
2, 57300, Note_on_c, 0, 69, 88
2, 57359, Note_off_c, 0, 69, 0
2, 57360, Note_on_c, 0, 71, 88
2, 57659, Note_off_c, 0, 71, 0
2, 57660, Note_on_c, 0, 72, 88
2, 57719, Note_off_c, 0, 72, 0
2, 57720, Note_on_c, 0, 69, 88
2, 57779, Note_off_c, 0, 69, 0
2, 57780, Note_on_c, 0, 71, 88
2, 57839, Note_off_c, 0, 71, 0
2, 57840, Note_on_c, 0, 72, 88
2, 58139, Note_off_c, 0, 72, 0
2, 58140, Note_on_c, 0, 74, 88
2, 58199, Note_off_c, 0, 74, 0
2, 58200, Note_on_c, 0, 71, 88
2, 58259, Note_off_c, 0, 71, 0
2, 58260, Note_on_c, 0, 72, 88
2, 58319, Note_off_c, 0, 72, 0
2, 58320, Note_on_c, 0, 74, 88
2, 58379, Note_off_c, 0, 74, 0
2, 58380, Note_on_c, 0, 72, 88
2, 58439, Note_off_c, 0, 72, 0
2, 58440, Note_on_c, 0, 71, 88
2, 58499, Note_off_c, 0, 71, 0
2, 58500, Note_on_c, 0, 69, 88
2, 58559, Note_off_c, 0, 69, 0
2, 58560, Note_on_c, 0, 68, 88
2, 58619, Note_off_c, 0, 68, 0
2, 58620, Note_on_c, 0, 71, 88
2, 58679, Note_off_c, 0, 71, 0
2, 58680, Note_on_c, 0, 72, 88
2, 58739, Note_off_c, 0, 72, 0
2, 58740, Note_on_c, 0, 74, 88
2, 58799, Note_off_c, 0, 74, 0
2, 58800, Note_on_c, 0, 76, 88
2, 58859, Note_off_c, 0, 76, 0
2, 58860, Note_on_c, 0, 77, 88
2, 58919, Note_off_c, 0, 77, 0
2, 58920, Note_on_c, 0, 79, 88
2, 59099, Note_off_c, 0, 79, 0
2, 59100, Note_on_c, 0, 81, 88
2, 59159, Note_off_c, 0, 81, 0
2, 59160, Note_on_c, 0, 79, 88
2, 59219, Note_off_c, 0, 79, 0
2, 59220, Note_on_c, 0, 77, 88
2, 59279, Note_off_c, 0, 77, 0
2, 59280, Note_on_c, 0, 79, 88
2, 59579, Note_off_c, 0, 79, 0
2, 59580, Note_on_c, 0, 77, 88
2, 59639, Note_off_c, 0, 77, 0
2, 59640, Note_on_c, 0, 76, 88
2, 59699, Note_off_c, 0, 76, 0
2, 59700, Note_on_c, 0, 77, 88
2, 59759, Note_off_c, 0, 77, 0
2, 59760, Note_on_c, 0, 79, 88
2, 60059, Note_off_c, 0, 79, 0
2, 60060, Note_on_c, 0, 82, 88
2, 60119, Note_off_c, 0, 82, 0
2, 60120, Note_on_c, 0, 81, 88
2, 60179, Note_off_c, 0, 81, 0
2, 60180, Note_on_c, 0, 79, 88
2, 60239, Note_off_c, 0, 79, 0
2, 60240, Note_on_c, 0, 77, 88
2, 60299, Note_off_c, 0, 77, 0
2, 60300, Note_on_c, 0, 76, 88
2, 60359, Note_off_c, 0, 76, 0
2, 60360, Note_on_c, 0, 74, 88
2, 60419, Note_off_c, 0, 74, 0
2, 60420, Note_on_c, 0, 73, 88
2, 60479, Note_off_c, 0, 73, 0
2, 60480, Note_on_c, 0, 74, 88
2, 60539, Note_off_c, 0, 74, 0
2, 60540, Note_on_c, 0, 76, 88
2, 60599, Note_off_c, 0, 76, 0
2, 60600, Note_on_c, 0, 74, 88
2, 60659, Note_off_c, 0, 74, 0
2, 60660, Note_on_c, 0, 76, 88
2, 60719, Note_off_c, 0, 76, 0
2, 60720, Note_on_c, 0, 77, 88
2, 60745, Note_off_c, 0, 77, 0
2, 60746, Note_on_c, 0, 76, 88
2, 60772, Note_off_c, 0, 76, 0
2, 60773, Note_on_c, 0, 77, 88
2, 60794, Note_off_c, 0, 77, 0
2, 60795, Note_on_c, 0, 76, 88
2, 60817, Note_off_c, 0, 76, 0
2, 60818, Note_on_c, 0, 77, 88
2, 60839, Note_off_c, 0, 77, 0
2, 60840, Note_on_c, 0, 76, 88
2, 60899, Note_off_c, 0, 76, 0
2, 60900, Note_on_c, 0, 74, 88
2, 60959, Note_off_c, 0, 74, 0
2, 60960, Note_on_c, 0, 74, 88
2, 63959, Note_off_c, 0, 74, 0
2, 63960, Note_on_c, 0, 76, 88
2, 64019, Note_off_c, 0, 76, 0
2, 64020, Note_on_c, 0, 77, 88
2, 64079, Note_off_c, 0, 77, 0
2, 64080, Note_on_c, 0, 76, 88
2, 64199, Note_off_c, 0, 76, 0
2, 64200, Note_on_c, 0, 74, 88
2, 64319, Note_off_c, 0, 74, 0
2, 64320, Note_on_c, 0, 72, 88
2, 64439, Note_off_c, 0, 72, 0
2, 64440, Note_on_c, 0, 72, 88
2, 64499, Note_off_c, 0, 72, 0
2, 64500, Note_on_c, 0, 74, 88
2, 64559, Note_off_c, 0, 74, 0
2, 64560, Note_on_c, 0, 72, 88
2, 64679, Note_off_c, 0, 72, 0
2, 64680, Note_on_c, 0, 70, 88
2, 64799, Note_off_c, 0, 70, 0
2, 64800, Note_on_c, 0, 69, 88
2, 64859, Note_off_c, 0, 69, 0
2, 64860, Note_on_c, 0, 70, 88
2, 64919, Note_off_c, 0, 70, 0
2, 64920, Note_on_c, 0, 72, 88
2, 64979, Note_off_c, 0, 72, 0
2, 64980, Note_on_c, 0, 70, 88
2, 65039, Note_off_c, 0, 70, 0
2, 65040, Note_on_c, 0, 69, 88
2, 65159, Note_off_c, 0, 69, 0
2, 65160, Note_on_c, 0, 67, 88
2, 65279, Note_off_c, 0, 67, 0
2, 65280, Note_on_c, 0, 77, 88
2, 65399, Note_off_c, 0, 77, 0
2, 65400, Note_on_c, 0, 81, 88
2, 65639, Note_off_c, 0, 81, 0
2, 65640, Note_on_c, 0, 76, 88
2, 65759, Note_off_c, 0, 76, 0
2, 65760, Note_on_c, 0, 74, 88
2, 65819, Note_off_c, 0, 74, 0
2, 65820, Note_on_c, 0, 73, 88
2, 65879, Note_off_c, 0, 73, 0
2, 65880, Note_on_c, 0, 76, 88
2, 65939, Note_off_c, 0, 76, 0
2, 65940, Note_on_c, 0, 74, 88
2, 65999, Note_off_c, 0, 74, 0
2, 66000, Note_on_c, 0, 73, 88
2, 66059, Note_off_c, 0, 73, 0
2, 66060, Note_on_c, 0, 71, 88
2, 66119, Note_off_c, 0, 71, 0
2, 66120, Note_on_c, 0, 74, 88
2, 66179, Note_off_c, 0, 74, 0
2, 66180, Note_on_c, 0, 72, 88
2, 66239, Note_off_c, 0, 72, 0
2, 66240, Note_on_c, 0, 71, 88
2, 66359, Note_off_c, 0, 71, 0
2, 66360, Note_on_c, 0, 73, 88
2, 66479, Note_off_c, 0, 73, 0
2, 66480, Note_on_c, 0, 74, 88
2, 66599, Note_off_c, 0, 74, 0
2, 66600, Note_on_c, 0, 69, 88
2, 66719, Note_off_c, 0, 69, 0
2, 66720, Note_on_c, 0, 76, 88
2, 67259, Note_off_c, 0, 76, 0
2, 67260, Note_on_c, 0, 73, 88
2, 67319, Note_off_c, 0, 73, 0
2, 67320, Note_on_c, 0, 74, 88
2, 67379, Note_off_c, 0, 74, 0
2, 67380, Note_on_c, 0, 77, 88
2, 67439, Note_off_c, 0, 77, 0
2, 67440, Note_on_c, 0, 79, 88
2, 67739, Note_off_c, 0, 79, 0
2, 67740, Note_on_c, 0, 76, 88
2, 67799, Note_off_c, 0, 76, 0
2, 67800, Note_on_c, 0, 77, 88
2, 67859, Note_off_c, 0, 77, 0
2, 67860, Note_on_c, 0, 81, 88
2, 67919, Note_off_c, 0, 81, 0
2, 67920, Note_on_c, 0, 82, 88
2, 68219, Note_off_c, 0, 82, 0
2, 68220, Note_on_c, 0, 79, 88
2, 68279, Note_off_c, 0, 79, 0
2, 68280, Note_on_c, 0, 81, 88
2, 68339, Note_off_c, 0, 81, 0
2, 68340, Note_on_c, 0, 84, 88
2, 68399, Note_off_c, 0, 84, 0
2, 68400, Note_on_c, 0, 74, 88
2, 68519, Note_off_c, 0, 74, 0
2, 68520, Note_on_c, 0, 76, 88
2, 68579, Note_off_c, 0, 76, 0
2, 68580, Note_on_c, 0, 79, 88
2, 68639, Note_off_c, 0, 79, 0
2, 68640, Note_on_c, 0, 72, 88
2, 68939, Note_off_c, 0, 72, 0
2, 68940, Note_on_c, 0, 65, 88
2, 68999, Note_off_c, 0, 65, 0
2, 69000, Note_on_c, 0, 67, 88
2, 69059, Note_off_c, 0, 67, 0
2, 69060, Note_on_c, 0, 70, 88
2, 69179, Note_off_c, 0, 70, 0
2, 69180, Note_on_c, 0, 70, 88
2, 69239, Note_off_c, 0, 70, 0
2, 69240, Note_on_c, 0, 69, 88
2, 69299, Note_off_c, 0, 69, 0
2, 69300, Note_on_c, 0, 67, 88
2, 69359, Note_off_c, 0, 67, 0
2, 69360, Note_on_c, 0, 67, 88
2, 69539, Note_off_c, 0, 67, 0
2, 69540, Note_on_c, 0, 65, 88
2, 69599, Note_off_c, 0, 65, 0
2, 69600, Note_on_c, 0, 65, 88
2, 69839, Note_off_c, 0, 65, 0
2, 69840, Note_on_c, 0, 72, 88
2, 71159, Note_off_c, 0, 72, 0
2, 71160, Note_on_c, 0, 69, 88
2, 71279, Note_off_c, 0, 69, 0
2, 71280, Note_on_c, 0, 75, 88
2, 71639, Note_off_c, 0, 75, 0
2, 71640, Note_on_c, 0, 74, 88
2, 71759, Note_off_c, 0, 74, 0
2, 71760, Note_on_c, 0, 72, 88
2, 71819, Note_off_c, 0, 72, 0
2, 71820, Note_on_c, 0, 70, 88
2, 71879, Note_off_c, 0, 70, 0
2, 71880, Note_on_c, 0, 74, 88
2, 71939, Note_off_c, 0, 74, 0
2, 71940, Note_on_c, 0, 72, 88
2, 71999, Note_off_c, 0, 72, 0
2, 72000, Note_on_c, 0, 70, 88
2, 72059, Note_off_c, 0, 70, 0
2, 72060, Note_on_c, 0, 72, 88
2, 72119, Note_off_c, 0, 72, 0
2, 72120, Note_on_c, 0, 74, 88
2, 72179, Note_off_c, 0, 74, 0
2, 72180, Note_on_c, 0, 72, 88
2, 72239, Note_off_c, 0, 72, 0
2, 72240, Note_on_c, 0, 70, 88
2, 72299, Note_off_c, 0, 70, 0
2, 72300, Note_on_c, 0, 69, 88
2, 72359, Note_off_c, 0, 69, 0
2, 72360, Note_on_c, 0, 67, 88
2, 72419, Note_off_c, 0, 67, 0
2, 72420, Note_on_c, 0, 65, 88
2, 72479, Note_off_c, 0, 65, 0
2, 72480, Note_on_c, 0, 67, 88
2, 72539, Note_off_c, 0, 67, 0
2, 72540, Note_on_c, 0, 69, 88
2, 72599, Note_off_c, 0, 69, 0
2, 72600, Note_on_c, 0, 70, 88
2, 72659, Note_off_c, 0, 70, 0
2, 72660, Note_on_c, 0, 69, 88
2, 72719, Note_off_c, 0, 69, 0
2, 72720, Note_on_c, 0, 67, 88
2, 72779, Note_off_c, 0, 67, 0
2, 72780, Note_on_c, 0, 65, 88
2, 72839, Note_off_c, 0, 65, 0
2, 72840, Note_on_c, 0, 64, 88
2, 72899, Note_off_c, 0, 64, 0
2, 72900, Note_on_c, 0, 62, 88
2, 72959, Note_off_c, 0, 62, 0
2, 72960, Note_on_c, 0, 76, 88
2, 73559, Note_off_c, 0, 76, 0
2, 73560, Note_on_c, 0, 76, 88
2, 73619, Note_off_c, 0, 76, 0
2, 73620, Note_on_c, 0, 74, 88
2, 73679, Note_off_c, 0, 74, 0
2, 73680, Note_on_c, 0, 76, 88
2, 73799, Note_off_c, 0, 76, 0
2, 73800, Note_on_c, 0, 77, 88
2, 73919, Note_off_c, 0, 77, 0
2, 73920, Note_on_c, 0, 79, 88
2, 74039, Note_off_c, 0, 79, 0
2, 74040, Note_on_c, 0, 79, 88
2, 74099, Note_off_c, 0, 79, 0
2, 74100, Note_on_c, 0, 77, 88
2, 74159, Note_off_c, 0, 77, 0
2, 74160, Note_on_c, 0, 79, 88
2, 74279, Note_off_c, 0, 79, 0
2, 74280, Note_on_c, 0, 81, 88
2, 74399, Note_off_c, 0, 81, 0
2, 74400, Note_on_c, 0, 82, 88
2, 74459, Note_off_c, 0, 82, 0
2, 74460, Note_on_c, 0, 81, 88
2, 74519, Note_off_c, 0, 81, 0
2, 74520, Note_on_c, 0, 79, 88
2, 74579, Note_off_c, 0, 79, 0
2, 74580, Note_on_c, 0, 81, 88
2, 74639, Note_off_c, 0, 81, 0
2, 74640, Note_on_c, 0, 82, 88
2, 74699, Note_off_c, 0, 82, 0
2, 74700, Note_on_c, 0, 79, 88
2, 74759, Note_off_c, 0, 79, 0
2, 74760, Note_on_c, 0, 81, 88
2, 74819, Note_off_c, 0, 81, 0
2, 74820, Note_on_c, 0, 76, 88
2, 74879, Note_off_c, 0, 76, 0
2, 74880, Note_on_c, 0, 77, 88
2, 74939, Note_off_c, 0, 77, 0
2, 74940, Note_on_c, 0, 76, 88
2, 74999, Note_off_c, 0, 76, 0
2, 75000, Note_on_c, 0, 74, 88
2, 75059, Note_off_c, 0, 74, 0
2, 75060, Note_on_c, 0, 76, 88
2, 75119, Note_off_c, 0, 76, 0
2, 75120, Note_on_c, 0, 77, 88
2, 75179, Note_off_c, 0, 77, 0
2, 75180, Note_on_c, 0, 74, 88
2, 75239, Note_off_c, 0, 74, 0
2, 75240, Note_on_c, 0, 76, 88
2, 75299, Note_off_c, 0, 76, 0
2, 75300, Note_on_c, 0, 73, 88
2, 75359, Note_off_c, 0, 73, 0
2, 75360, Note_on_c, 0, 74, 88
2, 75419, Note_off_c, 0, 74, 0
2, 75420, Note_on_c, 0, 72, 88
2, 75479, Note_off_c, 0, 72, 0
2, 75480, Note_on_c, 0, 70, 88
2, 75539, Note_off_c, 0, 70, 0
2, 75540, Note_on_c, 0, 72, 88
2, 75599, Note_off_c, 0, 72, 0
2, 75600, Note_on_c, 0, 74, 88
2, 75659, Note_off_c, 0, 74, 0
2, 75660, Note_on_c, 0, 70, 88
2, 75719, Note_off_c, 0, 70, 0
2, 75720, Note_on_c, 0, 72, 88
2, 75779, Note_off_c, 0, 72, 0
2, 75780, Note_on_c, 0, 69, 88
2, 75839, Note_off_c, 0, 69, 0
2, 75840, Note_on_c, 0, 71, 88
2, 76319, Note_off_c, 0, 71, 0
2, 76320, Note_on_c, 0, 81, 88
2, 76919, Note_off_c, 0, 81, 0
2, 76920, Note_on_c, 0, 76, 88
2, 76979, Note_off_c, 0, 76, 0
2, 76980, Note_on_c, 0, 74, 88
2, 77039, Note_off_c, 0, 74, 0
2, 77040, Note_on_c, 0, 76, 88
2, 77159, Note_off_c, 0, 76, 0
2, 77160, Note_on_c, 0, 78, 88
2, 77279, Note_off_c, 0, 78, 0
2, 77280, Note_on_c, 0, 80, 88
2, 77399, Note_off_c, 0, 80, 0
2, 77400, Note_on_c, 0, 80, 88
2, 77459, Note_off_c, 0, 80, 0
2, 77460, Note_on_c, 0, 78, 88
2, 77519, Note_off_c, 0, 78, 0
2, 77520, Note_on_c, 0, 80, 88
2, 77639, Note_off_c, 0, 80, 0
2, 77640, Note_on_c, 0, 81, 88
2, 77759, Note_off_c, 0, 81, 0
2, 77760, Note_on_c, 0, 83, 88
2, 77819, Note_off_c, 0, 83, 0
2, 77820, Note_on_c, 0, 81, 88
2, 77879, Note_off_c, 0, 81, 0
2, 77880, Note_on_c, 0, 80, 88
2, 77939, Note_off_c, 0, 80, 0
2, 77940, Note_on_c, 0, 81, 88
2, 77999, Note_off_c, 0, 81, 0
2, 78000, Note_on_c, 0, 83, 88
2, 78119, Note_off_c, 0, 83, 0
2, 78120, Note_on_c, 0, 84, 88
2, 78239, Note_off_c, 0, 84, 0
2, 78240, Note_on_c, 0, 71, 88
2, 78599, Note_off_c, 0, 71, 0
2, 78600, Note_on_c, 0, 76, 88
2, 78719, Note_off_c, 0, 76, 0
2, 78720, Note_on_c, 0, 72, 88
2, 78839, Note_off_c, 0, 72, 0
2, 78840, Note_on_c, 0, 71, 88
2, 78899, Note_off_c, 0, 71, 0
2, 78900, Note_on_c, 0, 69, 88
2, 78959, Note_off_c, 0, 69, 0
2, 78960, Note_on_c, 0, 72, 88
2, 79019, Note_off_c, 0, 72, 0
2, 79020, Note_on_c, 0, 71, 88
2, 79079, Note_off_c, 0, 71, 0
2, 79080, Note_on_c, 0, 69, 88
2, 79139, Note_off_c, 0, 69, 0
2, 79140, Note_on_c, 0, 68, 88
2, 79199, Note_off_c, 0, 68, 0
2, 79200, Note_on_c, 0, 69, 88
2, 80279, Note_off_c, 0, 69, 0
2, 80280, Note_on_c, 0, 74, 88
2, 80339, Note_off_c, 0, 74, 0
2, 80340, Note_on_c, 0, 73, 88
2, 80399, Note_off_c, 0, 73, 0
2, 80400, Note_on_c, 0, 74, 88
2, 80519, Note_off_c, 0, 74, 0
2, 80520, Note_on_c, 0, 76, 88
2, 80639, Note_off_c, 0, 76, 0
2, 80640, Note_on_c, 0, 77, 88
2, 80759, Note_off_c, 0, 77, 0
2, 80760, Note_on_c, 0, 77, 88
2, 80819, Note_off_c, 0, 77, 0
2, 80820, Note_on_c, 0, 76, 88
2, 80879, Note_off_c, 0, 76, 0
2, 80880, Note_on_c, 0, 77, 88
2, 80999, Note_off_c, 0, 77, 0
2, 81000, Note_on_c, 0, 79, 88
2, 81119, Note_off_c, 0, 79, 0
2, 81120, Note_on_c, 0, 81, 88
2, 81179, Note_off_c, 0, 81, 0
2, 81180, Note_on_c, 0, 79, 88
2, 81239, Note_off_c, 0, 79, 0
2, 81240, Note_on_c, 0, 77, 88
2, 81299, Note_off_c, 0, 77, 0
2, 81300, Note_on_c, 0, 79, 88
2, 81359, Note_off_c, 0, 79, 0
2, 81360, Note_on_c, 0, 81, 88
2, 81479, Note_off_c, 0, 81, 0
2, 81480, Note_on_c, 0, 82, 88
2, 81599, Note_off_c, 0, 82, 0
2, 81600, Note_on_c, 0, 73, 88
2, 81719, Note_off_c, 0, 73, 0
2, 81720, Note_on_c, 0, 69, 88
2, 81959, Note_off_c, 0, 69, 0
2, 81960, Note_on_c, 0, 74, 88
2, 82139, Note_off_c, 0, 74, 0
2, 82140, Note_on_c, 0, 72, 88
2, 82199, Note_off_c, 0, 72, 0
2, 82200, Note_on_c, 0, 71, 88
2, 82259, Note_off_c, 0, 71, 0
2, 82260, Note_on_c, 0, 72, 88
2, 82319, Note_off_c, 0, 72, 0
2, 82320, Note_on_c, 0, 74, 88
2, 82379, Note_off_c, 0, 74, 0
2, 82380, Note_on_c, 0, 76, 88
2, 82439, Note_off_c, 0, 76, 0
2, 82440, Note_on_c, 0, 78, 88
2, 82499, Note_off_c, 0, 78, 0
2, 82500, Note_on_c, 0, 80, 88
2, 82559, Note_off_c, 0, 80, 0
2, 82560, Note_on_c, 0, 81, 88
2, 82600, Note_off_c, 0, 81, 0
2, 82600, End_track
0, 0, End_of_file