0, 0, Header, 1, 2, 240
1, 0, Start_track
1, 0, Time_signature, 4, 2, 24, 8
1, 0, Tempo, 681818
1, 0, SMPTE_offset, 64, 0, 0, 0, 100
1, 0, End_track
2, 0, Start_track
2, 0, Title_t, "Track 1"
2, 0, Program_c, 0, 6
2, 360, Note_on_c, 0, 68, 88
2, 479, Note_off_c, 0, 68, 0
2, 480, Note_on_c, 0, 70, 88
2, 539, Note_off_c, 0, 70, 0
2, 540, Note_on_c, 0, 68, 88
2, 599, Note_off_c, 0, 68, 0
2, 600, Note_on_c, 0, 66, 88
2, 659, Note_off_c, 0, 66, 0
2, 660, Note_on_c, 0, 68, 88
2, 719, Note_off_c, 0, 68, 0
2, 720, Note_on_c, 0, 77, 88
2, 839, Note_off_c, 0, 77, 0
2, 840, Note_on_c, 0, 73, 88
2, 959, Note_off_c, 0, 73, 0
2, 960, Note_on_c, 0, 68, 88
2, 1079, Note_off_c, 0, 68, 0
2, 1080, Note_on_c, 0, 66, 88
2, 1139, Note_off_c, 0, 66, 0
2, 1140, Note_on_c, 0, 65, 88
2, 1199, Note_off_c, 0, 65, 0
2, 1200, Note_on_c, 0, 66, 88
2, 1319, Note_off_c, 0, 66, 0
2, 1320, Note_on_c, 0, 75, 88
2, 1439, Note_off_c, 0, 75, 0
2, 1440, Note_on_c, 0, 65, 88
2, 1559, Note_off_c, 0, 65, 0
2, 1560, Note_on_c, 0, 73, 88
2, 1679, Note_off_c, 0, 73, 0
2, 1680, Note_on_c, 0, 63, 88
2, 1799, Note_off_c, 0, 63, 0
2, 1800, Note_on_c, 0, 72, 88
2, 1919, Note_off_c, 0, 72, 0
2, 1920, Note_on_c, 0, 61, 88
2, 2039, Note_off_c, 0, 61, 0
2, 2040, Note_on_c, 0, 73, 88
2, 2099, Note_off_c, 0, 73, 0
2, 2100, Note_on_c, 0, 72, 88
2, 2159, Note_off_c, 0, 72, 0
2, 2160, Note_on_c, 0, 73, 88
2, 2219, Note_off_c, 0, 73, 0
2, 2220, Note_on_c, 0, 75, 88
2, 2279, Note_off_c, 0, 75, 0
2, 2280, Note_on_c, 0, 77, 88
2, 2339, Note_off_c, 0, 77, 0
2, 2340, Note_on_c, 0, 78, 88
2, 2399, Note_off_c, 0, 78, 0
2, 2400, Note_on_c, 0, 80, 88
2, 2459, Note_off_c, 0, 80, 0
2, 2460, Note_on_c, 0, 79, 88
2, 2519, Note_off_c, 0, 79, 0
2, 2520, Note_on_c, 0, 77, 88
2, 2579, Note_off_c, 0, 77, 0
2, 2580, Note_on_c, 0, 79, 88
2, 2639, Note_off_c, 0, 79, 0
2, 2640, Note_on_c, 0, 80, 88
2, 2699, Note_off_c, 0, 80, 0
2, 2700, Note_on_c, 0, 78, 88
2, 2759, Note_off_c, 0, 78, 0
2, 2760, Note_on_c, 0, 77, 88
2, 2819, Note_off_c, 0, 77, 0
2, 2820, Note_on_c, 0, 75, 88
2, 2879, Note_off_c, 0, 75, 0
2, 2880, Note_on_c, 0, 77, 88
2, 3179, Note_off_c, 0, 77, 0
2, 3180, Note_on_c, 0, 75, 88
2, 3239, Note_off_c, 0, 75, 0
2, 3240, Note_on_c, 0, 73, 88
2, 3299, Note_off_c, 0, 73, 0
2, 3300, Note_on_c, 0, 77, 88
2, 3359, Note_off_c, 0, 77, 0
2, 3360, Note_on_c, 0, 75, 88
2, 3419, Note_off_c, 0, 75, 0
2, 3420, Note_on_c, 0, 73, 88
2, 3479, Note_off_c, 0, 73, 0
2, 3480, Note_on_c, 0, 72, 88
2, 3539, Note_off_c, 0, 72, 0
2, 3540, Note_on_c, 0, 75, 88
2, 3599, Note_off_c, 0, 75, 0
2, 3600, Note_on_c, 0, 73, 88
2, 3659, Note_off_c, 0, 73, 0
2, 3660, Note_on_c, 0, 72, 88
2, 3719, Note_off_c, 0, 72, 0
2, 3720, Note_on_c, 0, 73, 88
2, 3779, Note_off_c, 0, 73, 0
2, 3780, Note_on_c, 0, 70, 88
2, 3839, Note_off_c, 0, 70, 0
2, 3840, Note_on_c, 0, 70, 88
2, 3899, Note_off_c, 0, 70, 0
2, 3900, Note_on_c, 0, 72, 88
2, 3959, Note_off_c, 0, 72, 0
2, 3960, Note_on_c, 0, 75, 88
2, 4079, Note_off_c, 0, 75, 0
2, 4080, Note_on_c, 0, 78, 88
2, 4559, Note_off_c, 0, 78, 0
2, 4560, Note_on_c, 0, 77, 88
2, 5039, Note_off_c, 0, 77, 0
2, 5040, Note_on_c, 0, 75, 88
2, 5399, Note_off_c, 0, 75, 0
2, 5400, Note_on_c, 0, 73, 88
2, 5519, Note_off_c, 0, 73, 0
2, 5520, Note_on_c, 0, 72, 88
2, 5639, Note_off_c, 0, 72, 0
2, 5640, Note_on_c, 0, 75, 88
2, 5879, Note_off_c, 0, 75, 0
2, 5880, Note_on_c, 0, 68, 88
2, 5999, Note_off_c, 0, 68, 0
2, 6000, Note_on_c, 0, 77, 88
2, 6359, Note_off_c, 0, 77, 0
2, 6360, Note_on_c, 0, 77, 88
2, 6419, Note_off_c, 0, 77, 0
2, 6420, Note_on_c, 0, 73, 88
2, 6479, Note_off_c, 0, 73, 0
2, 6480, Note_on_c, 0, 70, 88
2, 6839, Note_off_c, 0, 70, 0
2, 6840, Note_on_c, 0, 70, 88
2, 6959, Note_off_c, 0, 70, 0
2, 6960, Note_on_c, 0, 75, 88
2, 7319, Note_off_c, 0, 75, 0
2, 7320, Note_on_c, 0, 75, 88
2, 7379, Note_off_c, 0, 75, 0
2, 7380, Note_on_c, 0, 72, 88
2, 7439, Note_off_c, 0, 72, 0
2, 7440, Note_on_c, 0, 68, 88
2, 7799, Note_off_c, 0, 68, 0
2, 7800, Note_on_c, 0, 68, 88
2, 7919, Note_off_c, 0, 68, 0
2, 7920, Note_on_c, 0, 73, 88
2, 8219, Note_off_c, 0, 73, 0
2, 8220, Note_on_c, 0, 72, 88
2, 8279, Note_off_c, 0, 72, 0
2, 8280, Note_on_c, 0, 73, 88
2, 8339, Note_off_c, 0, 73, 0
2, 8340, Note_on_c, 0, 70, 88
2, 8399, Note_off_c, 0, 70, 0
2, 8400, Note_on_c, 0, 82, 88
2, 8699, Note_off_c, 0, 82, 0
2, 8700, Note_on_c, 0, 80, 88
2, 8759, Note_off_c, 0, 80, 0
2, 8760, Note_on_c, 0, 79, 88
2, 8819, Note_off_c, 0, 79, 0
2, 8820, Note_on_c, 0, 82, 88
2, 8879, Note_off_c, 0, 82, 0
2, 8880, Note_on_c, 0, 80, 88
2, 8939, Note_off_c, 0, 80, 0
2, 8940, Note_on_c, 0, 75, 88
2, 8999, Note_off_c, 0, 75, 0
2, 9000, Note_on_c, 0, 77, 88
2, 9059, Note_off_c, 0, 77, 0
2, 9060, Note_on_c, 0, 78, 88
2, 9119, Note_off_c, 0, 78, 0
2, 9120, Note_on_c, 0, 77, 88
2, 9179, Note_off_c, 0, 77, 0
2, 9180, Note_on_c, 0, 75, 88
2, 9239, Note_off_c, 0, 75, 0
2, 9240, Note_on_c, 0, 73, 88
2, 9299, Note_off_c, 0, 73, 0
2, 9300, Note_on_c, 0, 75, 88
2, 9359, Note_off_c, 0, 75, 0
2, 9360, Note_on_c, 0, 84, 88
2, 9479, Note_off_c, 0, 84, 0
2, 9480, Note_on_c, 0, 80, 88
2, 9599, Note_off_c, 0, 80, 0
2, 9600, Note_on_c, 0, 75, 88
2, 9719, Note_off_c, 0, 75, 0
2, 9720, Note_on_c, 0, 73, 88
2, 9779, Note_off_c, 0, 73, 0
2, 9780, Note_on_c, 0, 72, 88
2, 9839, Note_off_c, 0, 72, 0
2, 9840, Note_on_c, 0, 73, 88
2, 9959, Note_off_c, 0, 73, 0
2, 9960, Note_on_c, 0, 82, 88
2, 10079, Note_off_c, 0, 82, 0
2, 10080, Note_on_c, 0, 72, 88
2, 10199, Note_off_c, 0, 72, 0
2, 10200, Note_on_c, 0, 80, 88
2, 10319, Note_off_c, 0, 80, 0
2, 10320, Note_on_c, 0, 70, 88
2, 10439, Note_off_c, 0, 70, 0
2, 10440, Note_on_c, 0, 79, 88
2, 10559, Note_off_c, 0, 79, 0
2, 10560, Note_on_c, 0, 68, 88
2, 10619, Note_off_c, 0, 68, 0
2, 10620, Note_on_c, 0, 70, 88
2, 10679, Note_off_c, 0, 70, 0
2, 10680, Note_on_c, 0, 72, 88
2, 10739, Note_off_c, 0, 72, 0
2, 10740, Note_on_c, 0, 73, 88
2, 10799, Note_off_c, 0, 73, 0
2, 10800, Note_on_c, 0, 72, 88
2, 10859, Note_off_c, 0, 72, 0
2, 10860, Note_on_c, 0, 70, 88
2, 10919, Note_off_c, 0, 70, 0
2, 10920, Note_on_c, 0, 68, 88
2, 10979, Note_off_c, 0, 68, 0
2, 10980, Note_on_c, 0, 72, 88
2, 11039, Note_off_c, 0, 72, 0
2, 11040, Note_on_c, 0, 77, 88
2, 11099, Note_off_c, 0, 77, 0
2, 11100, Note_on_c, 0, 75, 88
2, 11159, Note_off_c, 0, 75, 0
2, 11160, Note_on_c, 0, 74, 88
2, 11219, Note_off_c, 0, 74, 0
2, 11220, Note_on_c, 0, 77, 88
2, 11279, Note_off_c, 0, 77, 0
2, 11280, Note_on_c, 0, 80, 88
2, 11339, Note_off_c, 0, 80, 0
2, 11340, Note_on_c, 0, 78, 88
2, 11399, Note_off_c, 0, 78, 0
2, 11400, Note_on_c, 0, 77, 88
2, 11459, Note_off_c, 0, 77, 0
2, 11460, Note_on_c, 0, 80, 88
2, 11519, Note_off_c, 0, 80, 0
2, 11520, Note_on_c, 0, 80, 88
2, 11549, Note_off_c, 0, 80, 0
2, 11550, Note_on_c, 0, 82, 88
2, 11579, Note_off_c, 0, 82, 0
2, 11580, Note_on_c, 0, 83, 88
2, 11639, Note_off_c, 0, 83, 0
2, 11640, Note_on_c, 0, 82, 88
2, 11699, Note_off_c, 0, 82, 0
2, 11700, Note_on_c, 0, 80, 88
2, 11759, Note_off_c, 0, 80, 0
2, 11760, Note_on_c, 0, 78, 88
2, 11819, Note_off_c, 0, 78, 0
2, 11820, Note_on_c, 0, 77, 88
2, 11879, Note_off_c, 0, 77, 0
2, 11880, Note_on_c, 0, 75, 88
2, 11939, Note_off_c, 0, 75, 0
2, 11940, Note_on_c, 0, 74, 88
2, 11999, Note_off_c, 0, 74, 0
2, 12000, Note_on_c, 0, 75, 88
2, 12059, Note_off_c, 0, 75, 0
2, 12060, Note_on_c, 0, 78, 88
2, 12119, Note_off_c, 0, 78, 0
2, 12120, Note_on_c, 0, 77, 88
2, 12179, Note_off_c, 0, 77, 0
2, 12180, Note_on_c, 0, 75, 88
2, 12239, Note_off_c, 0, 75, 0
2, 12240, Note_on_c, 0, 74, 88
2, 12299, Note_off_c, 0, 74, 0
2, 12300, Note_on_c, 0, 77, 88
2, 12359, Note_off_c, 0, 77, 0
2, 12360, Note_on_c, 0, 70, 88
2, 12419, Note_off_c, 0, 70, 0
2, 12420, Note_on_c, 0, 68, 88
2, 12479, Note_off_c, 0, 68, 0
2, 12480, Note_on_c, 0, 66, 88
2, 12539, Note_off_c, 0, 66, 0
2, 12540, Note_on_c, 0, 65, 88
2, 12599, Note_off_c, 0, 65, 0
2, 12600, Note_on_c, 0, 63, 88
2, 12659, Note_off_c, 0, 63, 0
2, 12660, Note_on_c, 0, 62, 88
2, 12719, Note_off_c, 0, 62, 0
2, 12720, Note_on_c, 0, 63, 88
2, 12779, Note_off_c, 0, 63, 0
2, 12780, Note_on_c, 0, 65, 88
2, 12839, Note_off_c, 0, 65, 0
2, 12840, Note_on_c, 0, 66, 88
2, 12899, Note_off_c, 0, 66, 0
2, 12900, Note_on_c, 0, 68, 88
2, 12959, Note_off_c, 0, 68, 0
2, 12960, Note_on_c, 0, 70, 88
2, 13019, Note_off_c, 0, 70, 0
2, 13020, Note_on_c, 0, 68, 88
2, 13079, Note_off_c, 0, 68, 0
2, 13080, Note_on_c, 0, 66, 88
2, 13139, Note_off_c, 0, 66, 0
2, 13140, Note_on_c, 0, 68, 88
2, 13199, Note_off_c, 0, 68, 0
2, 13200, Note_on_c, 0, 70, 88
2, 13259, Note_off_c, 0, 70, 0
2, 13260, Note_on_c, 0, 68, 88
2, 13319, Note_off_c, 0, 68, 0
2, 13320, Note_on_c, 0, 66, 88
2, 13379, Note_off_c, 0, 66, 0
2, 13380, Note_on_c, 0, 65, 88
2, 13439, Note_off_c, 0, 65, 0
2, 13440, Note_on_c, 0, 66, 88
2, 13739, Note_off_c, 0, 66, 0
2, 13740, Note_on_c, 0, 65, 88
2, 13799, Note_off_c, 0, 65, 0
2, 13800, Note_on_c, 0, 63, 88
2, 13859, Note_off_c, 0, 63, 0
2, 13860, Note_on_c, 0, 66, 88
2, 13919, Note_off_c, 0, 66, 0
2, 13920, Note_on_c, 0, 65, 88
2, 13979, Note_off_c, 0, 65, 0
2, 13980, Note_on_c, 0, 63, 88
2, 14039, Note_off_c, 0, 63, 0
2, 14040, Note_on_c, 0, 61, 88
2, 14099, Note_off_c, 0, 61, 0
2, 14100, Note_on_c, 0, 65, 88
2, 14159, Note_off_c, 0, 65, 0
2, 14160, Note_on_c, 0, 63, 88
2, 14219, Note_off_c, 0, 63, 0
2, 14220, Note_on_c, 0, 61, 88
2, 14279, Note_off_c, 0, 61, 0
2, 14280, Note_on_c, 0, 63, 88
2, 14339, Note_off_c, 0, 63, 0
2, 14340, Note_on_c, 0, 60, 88
2, 14399, Note_off_c, 0, 60, 0
2, 14400, Note_on_c, 0, 61, 88
2, 14459, Note_off_c, 0, 61, 0
2, 14460, Note_on_c, 0, 65, 88
2, 14519, Note_off_c, 0, 65, 0
2, 14520, Note_on_c, 0, 66, 88
2, 14579, Note_off_c, 0, 66, 0
2, 14580, Note_on_c, 0, 65, 88
2, 14639, Note_off_c, 0, 65, 0
2, 14640, Note_on_c, 0, 73, 88
2, 14939, Note_off_c, 0, 73, 0
2, 14940, Note_on_c, 0, 72, 88
2, 14999, Note_off_c, 0, 72, 0
2, 15000, Note_on_c, 0, 73, 88
2, 15059, Note_off_c, 0, 73, 0
2, 15060, Note_on_c, 0, 70, 88
2, 15119, Note_off_c, 0, 70, 0
2, 15120, Note_on_c, 0, 82, 88
2, 15419, Note_off_c, 0, 82, 0
2, 15420, Note_on_c, 0, 63, 88
2, 15479, Note_off_c, 0, 63, 0
2, 15480, Note_on_c, 0, 65, 88
2, 15539, Note_off_c, 0, 65, 0
2, 15540, Note_on_c, 0, 63, 88
2, 15599, Note_off_c, 0, 63, 0
2, 15600, Note_on_c, 0, 72, 88
2, 15899, Note_off_c, 0, 72, 0
2, 15900, Note_on_c, 0, 70, 88
2, 15959, Note_off_c, 0, 70, 0
2, 15960, Note_on_c, 0, 72, 88
2, 16019, Note_off_c, 0, 72, 0
2, 16020, Note_on_c, 0, 68, 88
2, 16079, Note_off_c, 0, 68, 0
2, 16080, Note_on_c, 0, 80, 88
2, 16379, Note_off_c, 0, 80, 0
2, 16380, Note_on_c, 0, 61, 88
2, 16439, Note_off_c, 0, 61, 0
2, 16440, Note_on_c, 0, 63, 88
2, 16499, Note_off_c, 0, 63, 0
2, 16500, Note_on_c, 0, 61, 88
2, 16559, Note_off_c, 0, 61, 0
2, 16560, Note_on_c, 0, 70, 88
2, 16859, Note_off_c, 0, 70, 0
2, 16860, Note_on_c, 0, 68, 88
2, 16919, Note_off_c, 0, 68, 0
2, 16920, Note_on_c, 0, 70, 88
2, 16979, Note_off_c, 0, 70, 0
2, 16980, Note_on_c, 0, 67, 88
2, 17039, Note_off_c, 0, 67, 0
2, 17040, Note_on_c, 0, 79, 88
2, 17339, Note_off_c, 0, 79, 0
2, 17340, Note_on_c, 0, 76, 88
2, 17399, Note_off_c, 0, 76, 0
2, 17400, Note_on_c, 0, 77, 88
2, 17459, Note_off_c, 0, 77, 0
2, 17460, Note_on_c, 0, 73, 88
2, 17519, Note_off_c, 0, 73, 0
2, 17520, Note_on_c, 0, 70, 88
2, 17999, Note_off_c, 0, 70, 0
2, 18000, Note_on_c, 0, 68, 88
2, 18479, Note_off_c, 0, 68, 0
2, 18480, Note_on_c, 0, 67, 88
2, 18839, Note_off_c, 0, 67, 0
2, 18840, Note_on_c, 0, 65, 88
2, 18959, Note_off_c, 0, 65, 0
2, 18960, Note_on_c, 0, 64, 88
2, 19079, Note_off_c, 0, 64, 0
2, 19080, Note_on_c, 0, 67, 88
2, 19199, Note_off_c, 0, 67, 0
2, 19200, Note_on_c, 0, 72, 88
2, 19259, Note_off_c, 0, 72, 0
2, 19260, Note_on_c, 0, 70, 88
2, 19319, Note_off_c, 0, 70, 0
2, 19320, Note_on_c, 0, 68, 88
2, 19379, Note_off_c, 0, 68, 0
2, 19380, Note_on_c, 0, 72, 88
2, 19439, Note_off_c, 0, 72, 0
2, 19440, Note_on_c, 0, 70, 88
2, 19499, Note_off_c, 0, 70, 0
2, 19500, Note_on_c, 0, 68, 88
2, 19559, Note_off_c, 0, 68, 0
2, 19560, Note_on_c, 0, 67, 88
2, 19619, Note_off_c, 0, 67, 0
2, 19620, Note_on_c, 0, 70, 88
2, 19679, Note_off_c, 0, 70, 0
2, 19680, Note_on_c, 0, 68, 88
2, 19739, Note_off_c, 0, 68, 0
2, 19740, Note_on_c, 0, 65, 88
2, 19799, Note_off_c, 0, 65, 0
2, 19800, Note_on_c, 0, 73, 88
2, 19859, Note_off_c, 0, 73, 0
2, 19860, Note_on_c, 0, 70, 88
2, 19919, Note_off_c, 0, 70, 0
2, 19920, Note_on_c, 0, 72, 88
2, 19979, Note_off_c, 0, 72, 0
2, 19980, Note_on_c, 0, 68, 88
2, 20039, Note_off_c, 0, 68, 0
2, 20040, Note_on_c, 0, 78, 88
2, 20099, Note_off_c, 0, 78, 0
2, 20100, Note_on_c, 0, 76, 88
2, 20159, Note_off_c, 0, 76, 0
2, 20160, Note_on_c, 0, 76, 88
2, 20219, Note_off_c, 0, 76, 0
2, 20220, Note_on_c, 0, 77, 88
2, 20279, Note_off_c, 0, 77, 0
2, 20280, Note_on_c, 0, 83, 88
2, 20339, Note_off_c, 0, 83, 0
2, 20340, Note_on_c, 0, 84, 88
2, 20399, Note_off_c, 0, 84, 0
2, 20400, Note_on_c, 0, 76, 88
2, 20579, Note_off_c, 0, 76, 0
2, 20580, Note_on_c, 0, 77, 88
2, 20639, Note_off_c, 0, 77, 0
2, 20640, Note_on_c, 0, 77, 88
2, 20999, Note_off_c, 0, 77, 0
2, 21000, Note_on_c, 0, 77, 88
2, 21119, Note_off_c, 0, 77, 0
2, 21120, Note_on_c, 0, 71, 88
2, 21179, Note_off_c, 0, 71, 0
2, 21180, Note_on_c, 0, 70, 88
2, 21239, Note_off_c, 0, 70, 0
2, 21240, Note_on_c, 0, 68, 88
2, 21299, Note_off_c, 0, 68, 0
2, 21300, Note_on_c, 0, 70, 88
2, 21359, Note_off_c, 0, 70, 0
2, 21360, Note_on_c, 0, 77, 88
2, 21479, Note_off_c, 0, 77, 0
2, 21480, Note_on_c, 0, 74, 88
2, 21599, Note_off_c, 0, 74, 0
2, 21600, Note_on_c, 0, 68, 88
2, 21719, Note_off_c, 0, 68, 0
2, 21720, Note_on_c, 0, 66, 88
2, 21779, Note_off_c, 0, 66, 0
2, 21780, Note_on_c, 0, 65, 88
2, 21839, Note_off_c, 0, 65, 0
2, 21840, Note_on_c, 0, 66, 88
2, 21959, Note_off_c, 0, 66, 0
2, 21960, Note_on_c, 0, 75, 88
2, 22079, Note_off_c, 0, 75, 0
2, 22080, Note_on_c, 0, 69, 88
2, 22139, Note_off_c, 0, 69, 0
2, 22140, Note_on_c, 0, 68, 88
2, 22199, Note_off_c, 0, 68, 0
2, 22200, Note_on_c, 0, 66, 88
2, 22259, Note_off_c, 0, 66, 0
2, 22260, Note_on_c, 0, 68, 88
2, 22319, Note_off_c, 0, 68, 0
2, 22320, Note_on_c, 0, 75, 88
2, 22439, Note_off_c, 0, 75, 0
2, 22440, Note_on_c, 0, 72, 88
2, 22559, Note_off_c, 0, 72, 0
2, 22560, Note_on_c, 0, 66, 88
2, 22679, Note_off_c, 0, 66, 0
2, 22680, Note_on_c, 0, 65, 88
2, 22739, Note_off_c, 0, 65, 0
2, 22740, Note_on_c, 0, 63, 88
2, 22799, Note_off_c, 0, 63, 0
2, 22800, Note_on_c, 0, 65, 88
2, 22859, Note_off_c, 0, 65, 0
2, 22860, Note_on_c, 0, 68, 88
2, 22919, Note_off_c, 0, 68, 0
2, 22920, Note_on_c, 0, 73, 88
2, 22979, Note_off_c, 0, 73, 0
2, 22980, Note_on_c, 0, 75, 88
2, 23039, Note_off_c, 0, 75, 0
2, 23040, Note_on_c, 0, 77, 88
2, 23099, Note_off_c, 0, 77, 0
2, 23100, Note_on_c, 0, 75, 88
2, 23159, Note_off_c, 0, 75, 0
2, 23160, Note_on_c, 0, 73, 88
2, 23219, Note_off_c, 0, 73, 0
2, 23220, Note_on_c, 0, 75, 88
2, 23279, Note_off_c, 0, 75, 0
2, 23280, Note_on_c, 0, 84, 88
2, 23399, Note_off_c, 0, 84, 0
2, 23400, Note_on_c, 0, 80, 88
2, 23519, Note_off_c, 0, 80, 0
2, 23520, Note_on_c, 0, 75, 88
2, 23639, Note_off_c, 0, 75, 0
2, 23640, Note_on_c, 0, 73, 88
2, 23699, Note_off_c, 0, 73, 0
2, 23700, Note_on_c, 0, 72, 88
2, 23759, Note_off_c, 0, 72, 0
2, 23760, Note_on_c, 0, 73, 88
2, 23879, Note_off_c, 0, 73, 0
2, 23880, Note_on_c, 0, 82, 88
2, 23999, Note_off_c, 0, 82, 0
2, 24000, Note_on_c, 0, 72, 88
2, 24119, Note_off_c, 0, 72, 0
2, 24120, Note_on_c, 0, 80, 88
2, 24239, Note_off_c, 0, 80, 0
2, 24240, Note_on_c, 0, 70, 88
2, 24359, Note_off_c, 0, 70, 0
2, 24360, Note_on_c, 0, 79, 88
2, 24479, Note_off_c, 0, 79, 0
2, 24480, Note_on_c, 0, 68, 88
2, 24539, Note_off_c, 0, 68, 0
2, 24540, Note_on_c, 0, 63, 88
2, 24599, Note_off_c, 0, 63, 0
2, 24600, Note_on_c, 0, 65, 88
2, 24659, Note_off_c, 0, 65, 0
2, 24660, Note_on_c, 0, 67, 88
2, 24719, Note_off_c, 0, 67, 0
2, 24720, Note_on_c, 0, 68, 88
2, 24779, Note_off_c, 0, 68, 0
2, 24780, Note_on_c, 0, 70, 88
2, 24839, Note_off_c, 0, 70, 0
2, 24840, Note_on_c, 0, 72, 88
2, 24899, Note_off_c, 0, 72, 0
2, 24900, Note_on_c, 0, 68, 88
2, 24959, Note_off_c, 0, 68, 0
2, 24960, Note_on_c, 0, 73, 88
2, 25019, Note_off_c, 0, 73, 0
2, 25020, Note_on_c, 0, 72, 88
2, 25079, Note_off_c, 0, 72, 0
2, 25080, Note_on_c, 0, 70, 88
2, 25139, Note_off_c, 0, 70, 0
2, 25140, Note_on_c, 0, 72, 88
2, 25199, Note_off_c, 0, 72, 0
2, 25200, Note_on_c, 0, 73, 88
2, 25259, Note_off_c, 0, 73, 0
2, 25260, Note_on_c, 0, 72, 88
2, 25319, Note_off_c, 0, 72, 0
2, 25320, Note_on_c, 0, 70, 88
2, 25379, Note_off_c, 0, 70, 0
2, 25380, Note_on_c, 0, 68, 88
2, 25439, Note_off_c, 0, 68, 0
2, 25440, Note_on_c, 0, 70, 88
2, 25739, Note_off_c, 0, 70, 0
2, 25740, Note_on_c, 0, 68, 88
2, 25799, Note_off_c, 0, 68, 0
2, 25800, Note_on_c, 0, 66, 88
2, 25859, Note_off_c, 0, 66, 0
2, 25860, Note_on_c, 0, 70, 88
2, 25919, Note_off_c, 0, 70, 0
2, 25920, Note_on_c, 0, 68, 88
2, 25979, Note_off_c, 0, 68, 0
2, 25980, Note_on_c, 0, 66, 88
2, 26039, Note_off_c, 0, 66, 0
2, 26040, Note_on_c, 0, 65, 88
2, 26099, Note_off_c, 0, 65, 0
2, 26100, Note_on_c, 0, 68, 88
2, 26159, Note_off_c, 0, 68, 0
2, 26160, Note_on_c, 0, 66, 88
2, 26219, Note_off_c, 0, 66, 0
2, 26220, Note_on_c, 0, 65, 88
2, 26279, Note_off_c, 0, 65, 0
2, 26280, Note_on_c, 0, 63, 88
2, 26339, Note_off_c, 0, 63, 0
2, 26340, Note_on_c, 0, 66, 88
2, 26399, Note_off_c, 0, 66, 0
2, 26400, Note_on_c, 0, 65, 88
2, 26519, Note_off_c, 0, 65, 0
2, 26520, Note_on_c, 0, 68, 88
2, 26639, Note_off_c, 0, 68, 0
2, 26640, Note_on_c, 0, 73, 88
2, 26999, Note_off_c, 0, 73, 0
2, 27000, Note_on_c, 0, 76, 88
2, 27059, Note_off_c, 0, 76, 0
2, 27060, Note_on_c, 0, 73, 88
2, 27119, Note_off_c, 0, 73, 0
2, 27120, Note_on_c, 0, 70, 88
2, 27479, Note_off_c, 0, 70, 0
2, 27480, Note_on_c, 0, 70, 88
2, 27539, Note_off_c, 0, 70, 0
2, 27540, Note_on_c, 0, 73, 88
2, 27599, Note_off_c, 0, 73, 0
2, 27600, Note_on_c, 0, 76, 88
2, 27839, Note_off_c, 0, 76, 0
2, 27840, Note_on_c, 0, 75, 88
2, 27959, Note_off_c, 0, 75, 0
2, 27960, Note_on_c, 0, 80, 88
2, 28079, Note_off_c, 0, 80, 0
2, 28080, Note_on_c, 0, 73, 88
2, 28199, Note_off_c, 0, 73, 0
2, 28200, Note_on_c, 0, 79, 88
2, 28319, Note_off_c, 0, 79, 0
2, 28320, Note_on_c, 0, 68, 88
2, 28439, Note_off_c, 0, 68, 0
2, 28440, Note_on_c, 0, 80, 88
2, 28499, Note_off_c, 0, 80, 0
2, 28500, Note_on_c, 0, 79, 88
2, 28559, Note_off_c, 0, 79, 0
2, 28560, Note_on_c, 0, 80, 88
2, 28619, Note_off_c, 0, 80, 0
2, 28620, Note_on_c, 0, 82, 88
2, 28679, Note_off_c, 0, 82, 0
2, 28680, Note_on_c, 0, 83, 88
2, 28739, Note_off_c, 0, 83, 0
2, 28740, Note_on_c, 0, 80, 88
2, 28799, Note_off_c, 0, 80, 0
2, 28800, Note_on_c, 0, 77, 88
2, 28859, Note_off_c, 0, 77, 0
2, 28860, Note_on_c, 0, 78, 88
2, 28919, Note_off_c, 0, 78, 0
2, 28920, Note_on_c, 0, 80, 88
2, 28979, Note_off_c, 0, 80, 0
2, 28980, Note_on_c, 0, 77, 88
2, 29039, Note_off_c, 0, 77, 0
2, 29040, Note_on_c, 0, 73, 88
2, 29099, Note_off_c, 0, 73, 0
2, 29100, Note_on_c, 0, 75, 88
2, 29159, Note_off_c, 0, 75, 0
2, 29160, Note_on_c, 0, 77, 88
2, 29219, Note_off_c, 0, 77, 0
2, 29220, Note_on_c, 0, 73, 88
2, 29279, Note_off_c, 0, 73, 0
2, 29280, Note_on_c, 0, 70, 88
2, 29339, Note_off_c, 0, 70, 0
2, 29340, Note_on_c, 0, 72, 88
2, 29399, Note_off_c, 0, 72, 0
2, 29400, Note_on_c, 0, 73, 88
2, 29459, Note_off_c, 0, 73, 0
2, 29460, Note_on_c, 0, 70, 88
2, 29519, Note_off_c, 0, 70, 0
2, 29520, Note_on_c, 0, 78, 88
2, 29579, Note_off_c, 0, 78, 0
2, 29580, Note_on_c, 0, 80, 88
2, 29639, Note_off_c, 0, 80, 0
2, 29640, Note_on_c, 0, 82, 88
2, 29699, Note_off_c, 0, 82, 0
2, 29700, Note_on_c, 0, 78, 88
2, 29759, Note_off_c, 0, 78, 0
2, 29760, Note_on_c, 0, 75, 88
2, 29819, Note_off_c, 0, 75, 0
2, 29820, Note_on_c, 0, 77, 88
2, 29879, Note_off_c, 0, 77, 0
2, 29880, Note_on_c, 0, 78, 88
2, 29939, Note_off_c, 0, 78, 0
2, 29940, Note_on_c, 0, 75, 88
2, 29999, Note_off_c, 0, 75, 0
2, 30000, Note_on_c, 0, 72, 88
2, 30059, Note_off_c, 0, 72, 0
2, 30060, Note_on_c, 0, 73, 88
2, 30119, Note_off_c, 0, 73, 0
2, 30120, Note_on_c, 0, 75, 88
2, 30179, Note_off_c, 0, 75, 0
2, 30180, Note_on_c, 0, 72, 88
2, 30239, Note_off_c, 0, 72, 0
2, 30240, Note_on_c, 0, 68, 88
2, 30299, Note_off_c, 0, 68, 0
2, 30300, Note_on_c, 0, 70, 88
2, 30359, Note_off_c, 0, 70, 0
2, 30360, Note_on_c, 0, 72, 88
2, 30419, Note_off_c, 0, 72, 0
2, 30420, Note_on_c, 0, 68, 88
2, 30479, Note_off_c, 0, 68, 0
2, 30480, Note_on_c, 0, 77, 88
2, 30539, Note_off_c, 0, 77, 0
2, 30540, Note_on_c, 0, 78, 88
2, 30599, Note_off_c, 0, 78, 0
2, 30600, Note_on_c, 0, 80, 88
2, 30659, Note_off_c, 0, 80, 0
2, 30660, Note_on_c, 0, 77, 88
2, 30719, Note_off_c, 0, 77, 0
2, 30720, Note_on_c, 0, 74, 88
2, 30779, Note_off_c, 0, 74, 0
2, 30780, Note_on_c, 0, 75, 88
2, 30839, Note_off_c, 0, 75, 0
2, 30840, Note_on_c, 0, 77, 88
2, 30899, Note_off_c, 0, 77, 0
2, 30900, Note_on_c, 0, 74, 88
2, 30959, Note_off_c, 0, 74, 0
2, 30960, Note_on_c, 0, 70, 88
2, 31019, Note_off_c, 0, 70, 0
2, 31020, Note_on_c, 0, 72, 88
2, 31079, Note_off_c, 0, 72, 0
2, 31080, Note_on_c, 0, 74, 88
2, 31139, Note_off_c, 0, 74, 0
2, 31140, Note_on_c, 0, 70, 88
2, 31199, Note_off_c, 0, 70, 0
2, 31200, Note_on_c, 0, 66, 88
2, 31259, Note_off_c, 0, 66, 0
2, 31260, Note_on_c, 0, 68, 88
2, 31319, Note_off_c, 0, 68, 0
2, 31320, Note_on_c, 0, 70, 88
2, 31379, Note_off_c, 0, 70, 0
2, 31380, Note_on_c, 0, 66, 88
2, 31439, Note_off_c, 0, 66, 0
2, 31440, Note_on_c, 0, 75, 88
2, 31499, Note_off_c, 0, 75, 0
2, 31500, Note_on_c, 0, 77, 88
2, 31559, Note_off_c, 0, 77, 0
2, 31560, Note_on_c, 0, 78, 88
2, 31619, Note_off_c, 0, 78, 0
2, 31620, Note_on_c, 0, 75, 88
2, 31679, Note_off_c, 0, 75, 0
2, 31680, Note_on_c, 0, 72, 88
2, 31739, Note_off_c, 0, 72, 0
2, 31740, Note_on_c, 0, 73, 88
2, 31799, Note_off_c, 0, 73, 0
2, 31800, Note_on_c, 0, 75, 88
2, 31859, Note_off_c, 0, 75, 0
2, 31860, Note_on_c, 0, 72, 88
2, 31919, Note_off_c, 0, 72, 0
2, 31920, Note_on_c, 0, 68, 88
2, 31979, Note_off_c, 0, 68, 0
2, 31980, Note_on_c, 0, 70, 88
2, 32039, Note_off_c, 0, 70, 0
2, 32040, Note_on_c, 0, 72, 88
2, 32099, Note_off_c, 0, 72, 0
2, 32100, Note_on_c, 0, 68, 88
2, 32159, Note_off_c, 0, 68, 0
2, 32160, Note_on_c, 0, 65, 88
2, 32219, Note_off_c, 0, 65, 0
2, 32220, Note_on_c, 0, 66, 88
2, 32279, Note_off_c, 0, 66, 0
2, 32280, Note_on_c, 0, 68, 88
2, 32339, Note_off_c, 0, 68, 0
2, 32340, Note_on_c, 0, 65, 88
2, 32399, Note_off_c, 0, 65, 0
2, 32400, Note_on_c, 0, 61, 88
2, 32459, Note_off_c, 0, 61, 0
2, 32460, Note_on_c, 0, 65, 88
2, 32519, Note_off_c, 0, 65, 0
2, 32520, Note_on_c, 0, 68, 88
2, 32579, Note_off_c, 0, 68, 0
2, 32580, Note_on_c, 0, 70, 88
2, 32639, Note_off_c, 0, 70, 0
2, 32640, Note_on_c, 0, 71, 88
2, 32699, Note_off_c, 0, 71, 0
2, 32700, Note_on_c, 0, 70, 88
2, 32759, Note_off_c, 0, 70, 0
2, 32760, Note_on_c, 0, 68, 88
2, 32819, Note_off_c, 0, 68, 0
2, 32820, Note_on_c, 0, 70, 88
2, 32879, Note_off_c, 0, 70, 0
2, 32880, Note_on_c, 0, 78, 88
2, 32999, Note_off_c, 0, 78, 0
2, 33000, Note_on_c, 0, 73, 88
2, 33119, Note_off_c, 0, 73, 0
2, 33120, Note_on_c, 0, 70, 88
2, 33239, Note_off_c, 0, 70, 0
2, 33240, Note_on_c, 0, 68, 88
2, 33299, Note_off_c, 0, 68, 0
2, 33300, Note_on_c, 0, 66, 88
2, 33359, Note_off_c, 0, 66, 0
2, 33360, Note_on_c, 0, 68, 88
2, 33419, Note_off_c, 0, 68, 0
2, 33420, Note_on_c, 0, 61, 88
2, 33479, Note_off_c, 0, 61, 0
2, 33480, Note_on_c, 0, 65, 88
2, 33539, Note_off_c, 0, 65, 0
2, 33540, Note_on_c, 0, 68, 88
2, 33599, Note_off_c, 0, 68, 0
2, 33600, Note_on_c, 0, 70, 88
2, 33659, Note_off_c, 0, 70, 0
2, 33660, Note_on_c, 0, 68, 88
2, 33719, Note_off_c, 0, 68, 0
2, 33720, Note_on_c, 0, 66, 88
2, 33779, Note_off_c, 0, 66, 0
2, 33780, Note_on_c, 0, 68, 88
2, 33839, Note_off_c, 0, 68, 0
2, 33840, Note_on_c, 0, 77, 88
2, 33959, Note_off_c, 0, 77, 0
2, 33960, Note_on_c, 0, 73, 88
2, 34079, Note_off_c, 0, 73, 0
2, 34080, Note_on_c, 0, 68, 88
2, 34199, Note_off_c, 0, 68, 0
2, 34200, Note_on_c, 0, 66, 88
2, 34259, Note_off_c, 0, 66, 0
2, 34260, Note_on_c, 0, 65, 88
2, 34319, Note_off_c, 0, 65, 0
2, 34320, Note_on_c, 0, 66, 88
2, 34379, Note_off_c, 0, 66, 0
2, 34380, Note_on_c, 0, 60, 88
2, 34439, Note_off_c, 0, 60, 0
2, 34440, Note_on_c, 0, 63, 88
2, 34499, Note_off_c, 0, 63, 0
2, 34500, Note_on_c, 0, 66, 88
2, 34559, Note_off_c, 0, 66, 0
2, 34560, Note_on_c, 0, 68, 88
2, 34619, Note_off_c, 0, 68, 0
2, 34620, Note_on_c, 0, 66, 88
2, 34679, Note_off_c, 0, 66, 0
2, 34680, Note_on_c, 0, 65, 88
2, 34739, Note_off_c, 0, 65, 0
2, 34740, Note_on_c, 0, 66, 88
2, 34799, Note_off_c, 0, 66, 0
2, 34800, Note_on_c, 0, 75, 88
2, 34919, Note_off_c, 0, 75, 0
2, 34920, Note_on_c, 0, 72, 88
2, 35039, Note_off_c, 0, 72, 0
2, 35040, Note_on_c, 0, 66, 88
2, 35159, Note_off_c, 0, 66, 0
2, 35160, Note_on_c, 0, 65, 88
2, 35219, Note_off_c, 0, 65, 0
2, 35220, Note_on_c, 0, 63, 88
2, 35279, Note_off_c, 0, 63, 0
2, 35280, Note_on_c, 0, 65, 88
2, 35339, Note_off_c, 0, 65, 0
2, 35340, Note_on_c, 0, 68, 88
2, 35399, Note_off_c, 0, 68, 0
2, 35400, Note_on_c, 0, 70, 88
2, 35459, Note_off_c, 0, 70, 0
2, 35460, Note_on_c, 0, 72, 88
2, 35519, Note_off_c, 0, 72, 0
2, 35520, Note_on_c, 0, 73, 88
2, 35579, Note_off_c, 0, 73, 0
2, 35580, Note_on_c, 0, 75, 88
2, 35639, Note_off_c, 0, 75, 0
2, 35640, Note_on_c, 0, 77, 88
2, 35699, Note_off_c, 0, 77, 0
2, 35700, Note_on_c, 0, 75, 88
2, 35759, Note_off_c, 0, 75, 0
2, 35760, Note_on_c, 0, 78, 88
2, 35819, Note_off_c, 0, 78, 0
2, 35820, Note_on_c, 0, 77, 88
2, 35879, Note_off_c, 0, 77, 0
2, 35880, Note_on_c, 0, 75, 88
2, 35939, Note_off_c, 0, 75, 0
2, 35940, Note_on_c, 0, 73, 88
2, 35999, Note_off_c, 0, 73, 0
2, 36000, Note_on_c, 0, 82, 88
2, 36022, Note_off_c, 0, 82, 0
2, 36023, Note_on_c, 0, 80, 88
2, 36052, Note_off_c, 0, 80, 0
2, 36053, Note_on_c, 0, 82, 88
2, 36082, Note_off_c, 0, 82, 0
2, 36083, Note_on_c, 0, 80, 88
2, 36112, Note_off_c, 0, 80, 0
2, 36113, Note_on_c, 0, 82, 88
2, 36142, Note_off_c, 0, 82, 0
2, 36143, Note_on_c, 0, 80, 88
2, 36164, Note_off_c, 0, 80, 0
2, 36165, Note_on_c, 0, 82, 88
2, 36187, Note_off_c, 0, 82, 0
2, 36188, Note_on_c, 0, 80, 88
2, 36209, Note_off_c, 0, 80, 0
2, 36210, Note_on_c, 0, 82, 88
2, 36232, Note_off_c, 0, 82, 0
2, 36233, Note_on_c, 0, 80, 88
2, 36254, Note_off_c, 0, 80, 0
2, 36255, Note_on_c, 0, 82, 88
2, 36277, Note_off_c, 0, 82, 0
2, 36278, Note_on_c, 0, 80, 88
2, 36299, Note_off_c, 0, 80, 0
2, 36300, Note_on_c, 0, 82, 88
2, 36322, Note_off_c, 0, 82, 0
2, 36323, Note_on_c, 0, 80, 88
2, 36344, Note_off_c, 0, 80, 0
2, 36345, Note_on_c, 0, 82, 88
2, 36367, Note_off_c, 0, 82, 0
2, 36368, Note_on_c, 0, 80, 88
2, 36389, Note_off_c, 0, 80, 0
2, 36390, Note_on_c, 0, 82, 88
2, 36412, Note_off_c, 0, 82, 0
2, 36413, Note_on_c, 0, 80, 88
2, 36434, Note_off_c, 0, 80, 0
2, 36435, Note_on_c, 0, 82, 88
2, 36457, Note_off_c, 0, 82, 0
2, 36458, Note_on_c, 0, 80, 88
2, 36479, Note_off_c, 0, 80, 0
2, 36480, Note_on_c, 0, 80, 88
2, 36539, Note_off_c, 0, 80, 0
2, 36540, Note_on_c, 0, 80, 88
2, 36599, Note_off_c, 0, 80, 0
2, 36600, Note_on_c, 0, 78, 88
2, 36659, Note_off_c, 0, 78, 0
2, 36660, Note_on_c, 0, 80, 88
2, 36719, Note_off_c, 0, 80, 0
2, 36720, Note_on_c, 0, 77, 88
2, 36779, Note_off_c, 0, 77, 0
2, 36780, Note_on_c, 0, 80, 88
2, 36839, Note_off_c, 0, 80, 0
2, 36840, Note_on_c, 0, 75, 88
2, 36899, Note_off_c, 0, 75, 0
2, 36900, Note_on_c, 0, 80, 88
2, 36959, Note_off_c, 0, 80, 0
2, 36960, Note_on_c, 0, 73, 88
2, 37019, Note_off_c, 0, 73, 0
2, 37020, Note_on_c, 0, 80, 88
2, 37079, Note_off_c, 0, 80, 0
2, 37080, Note_on_c, 0, 72, 88
2, 37139, Note_off_c, 0, 72, 0
2, 37140, Note_on_c, 0, 70, 88
2, 37199, Note_off_c, 0, 70, 0
2, 37200, Note_on_c, 0, 72, 88
2, 37259, Note_off_c, 0, 72, 0
2, 37260, Note_on_c, 0, 75, 88
2, 37319, Note_off_c, 0, 75, 0
2, 37320, Note_on_c, 0, 77, 88
2, 37379, Note_off_c, 0, 77, 0
2, 37380, Note_on_c, 0, 78, 88
2, 37439, Note_off_c, 0, 78, 0
2, 37440, Note_on_c, 0, 80, 88
2, 37499, Note_off_c, 0, 80, 0
2, 37500, Note_on_c, 0, 78, 88
2, 37559, Note_off_c, 0, 78, 0
2, 37560, Note_on_c, 0, 77, 88
2, 37619, Note_off_c, 0, 77, 0
2, 37620, Note_on_c, 0, 80, 88
2, 37679, Note_off_c, 0, 80, 0
2, 37680, Note_on_c, 0, 75, 88
2, 37739, Note_off_c, 0, 75, 0
2, 37740, Note_on_c, 0, 80, 88
2, 37799, Note_off_c, 0, 80, 0
2, 37800, Note_on_c, 0, 73, 88
2, 37859, Note_off_c, 0, 73, 0
2, 37860, Note_on_c, 0, 80, 88
2, 37919, Note_off_c, 0, 80, 0
2, 37920, Note_on_c, 0, 72, 88
2, 37979, Note_off_c, 0, 72, 0
2, 37980, Note_on_c, 0, 80, 88
2, 38039, Note_off_c, 0, 80, 0
2, 38040, Note_on_c, 0, 70, 88
2, 38099, Note_off_c, 0, 70, 0
2, 38100, Note_on_c, 0, 68, 88
2, 38159, Note_off_c, 0, 68, 0
2, 38160, Note_on_c, 0, 70, 88
2, 38219, Note_off_c, 0, 70, 0
2, 38220, Note_on_c, 0, 73, 88
2, 38279, Note_off_c, 0, 73, 0
2, 38280, Note_on_c, 0, 75, 88
2, 38339, Note_off_c, 0, 75, 0
2, 38340, Note_on_c, 0, 77, 88
2, 38399, Note_off_c, 0, 77, 0
2, 38400, Note_on_c, 0, 78, 88
2, 38459, Note_off_c, 0, 78, 0
2, 38460, Note_on_c, 0, 77, 88
2, 38519, Note_off_c, 0, 77, 0
2, 38520, Note_on_c, 0, 75, 88
2, 38579, Note_off_c, 0, 75, 0
2, 38580, Note_on_c, 0, 77, 88
2, 38639, Note_off_c, 0, 77, 0
2, 38640, Note_on_c, 0, 73, 88
2, 38699, Note_off_c, 0, 73, 0
2, 38700, Note_on_c, 0, 75, 88
2, 38759, Note_off_c, 0, 75, 0
2, 38760, Note_on_c, 0, 72, 88
2, 38819, Note_off_c, 0, 72, 0
2, 38820, Note_on_c, 0, 75, 88
2, 38879, Note_off_c, 0, 75, 0
2, 38880, Note_on_c, 0, 70, 88
2, 38939, Note_off_c, 0, 70, 0
2, 38940, Note_on_c, 0, 75, 88
2, 38999, Note_off_c, 0, 75, 0
2, 39000, Note_on_c, 0, 68, 88
2, 39059, Note_off_c, 0, 68, 0
2, 39060, Note_on_c, 0, 67, 88
2, 39119, Note_off_c, 0, 67, 0
2, 39120, Note_on_c, 0, 68, 88
2, 39179, Note_off_c, 0, 68, 0
2, 39180, Note_on_c, 0, 72, 88
2, 39239, Note_off_c, 0, 72, 0
2, 39240, Note_on_c, 0, 73, 88
2, 39299, Note_off_c, 0, 73, 0
2, 39300, Note_on_c, 0, 75, 88
2, 39359, Note_off_c, 0, 75, 0
2, 39360, Note_on_c, 0, 77, 88
2, 39419, Note_off_c, 0, 77, 0
2, 39420, Note_on_c, 0, 78, 88
2, 39479, Note_off_c, 0, 78, 0
2, 39480, Note_on_c, 0, 80, 88
2, 39539, Note_off_c, 0, 80, 0
2, 39540, Note_on_c, 0, 82, 88
2, 39599, Note_off_c, 0, 82, 0
2, 39600, Note_on_c, 0, 72, 88
2, 39719, Note_off_c, 0, 72, 0
2, 39720, Note_on_c, 0, 68, 88
2, 39839, Note_off_c, 0, 68, 0
2, 39840, Note_on_c, 0, 70, 88
2, 39899, Note_off_c, 0, 70, 0
2, 39900, Note_on_c, 0, 68, 88
2, 39959, Note_off_c, 0, 68, 0
2, 39960, Note_on_c, 0, 66, 88
2, 40019, Note_off_c, 0, 66, 0
2, 40020, Note_on_c, 0, 68, 88
2, 40079, Note_off_c, 0, 68, 0
2, 40080, Note_on_c, 0, 77, 88
2, 40199, Note_off_c, 0, 77, 0
2, 40200, Note_on_c, 0, 73, 88
2, 40319, Note_off_c, 0, 73, 0
2, 40320, Note_on_c, 0, 68, 88
2, 40439, Note_off_c, 0, 68, 0
2, 40440, Note_on_c, 0, 66, 88
2, 40499, Note_off_c, 0, 66, 0
2, 40500, Note_on_c, 0, 65, 88
2, 40559, Note_off_c, 0, 65, 0
2, 40560, Note_on_c, 0, 66, 88
2, 40679, Note_off_c, 0, 66, 0
2, 40680, Note_on_c, 0, 75, 88
2, 40799, Note_off_c, 0, 75, 0
2, 40800, Note_on_c, 0, 65, 88
2, 40919, Note_off_c, 0, 65, 0
2, 40920, Note_on_c, 0, 73, 88
2, 41039, Note_off_c, 0, 73, 0
2, 41040, Note_on_c, 0, 63, 88
2, 41159, Note_off_c, 0, 63, 0
2, 41160, Note_on_c, 0, 72, 88
2, 41279, Note_off_c, 0, 72, 0
2, 41280, Note_on_c, 0, 61, 88
2, 41399, Note_off_c, 0, 61, 0
2, 41400, Note_on_c, 0, 73, 88
2, 41459, Note_off_c, 0, 73, 0
2, 41460, Note_on_c, 0, 72, 88
2, 41519, Note_off_c, 0, 72, 0
2, 41520, Note_on_c, 0, 73, 88
2, 41579, Note_off_c, 0, 73, 0
2, 41580, Note_on_c, 0, 75, 88
2, 41639, Note_off_c, 0, 75, 0
2, 41640, Note_on_c, 0, 77, 88
2, 41699, Note_off_c, 0, 77, 0
2, 41700, Note_on_c, 0, 78, 88
2, 41759, Note_off_c, 0, 78, 0
2, 41760, Note_on_c, 0, 80, 88
2, 41819, Note_off_c, 0, 80, 0
2, 41820, Note_on_c, 0, 78, 88
2, 41879, Note_off_c, 0, 78, 0
2, 41880, Note_on_c, 0, 77, 88
2, 41939, Note_off_c, 0, 77, 0
2, 41940, Note_on_c, 0, 78, 88
2, 41999, Note_off_c, 0, 78, 0
2, 42000, Note_on_c, 0, 80, 88
2, 42059, Note_off_c, 0, 80, 0
2, 42060, Note_on_c, 0, 78, 88
2, 42119, Note_off_c, 0, 78, 0
2, 42120, Note_on_c, 0, 77, 88
2, 42179, Note_off_c, 0, 77, 0
2, 42180, Note_on_c, 0, 75, 88
2, 42239, Note_off_c, 0, 75, 0
2, 42240, Note_on_c, 0, 77, 88
2, 42539, Note_off_c, 0, 77, 0
2, 42540, Note_on_c, 0, 75, 88
2, 42599, Note_off_c, 0, 75, 0
2, 42600, Note_on_c, 0, 73, 88
2, 42659, Note_off_c, 0, 73, 0
2, 42660, Note_on_c, 0, 77, 88
2, 42719, Note_off_c, 0, 77, 0
2, 42720, Note_on_c, 0, 75, 88
2, 42779, Note_off_c, 0, 75, 0
2, 42780, Note_on_c, 0, 73, 88
2, 42839, Note_off_c, 0, 73, 0
2, 42840, Note_on_c, 0, 72, 88
2, 42899, Note_off_c, 0, 72, 0
2, 42900, Note_on_c, 0, 75, 88
2, 42959, Note_off_c, 0, 75, 0
2, 42960, Note_on_c, 0, 73, 88
2, 43019, Note_off_c, 0, 73, 0
2, 43020, Note_on_c, 0, 72, 88
2, 43079, Note_off_c, 0, 72, 0
2, 43080, Note_on_c, 0, 73, 88
2, 43139, Note_off_c, 0, 73, 0
2, 43140, Note_on_c, 0, 70, 88
2, 43199, Note_off_c, 0, 70, 0
2, 43200, Note_on_c, 0, 72, 88
2, 43319, Note_off_c, 0, 72, 0
2, 43320, Note_on_c, 0, 75, 88
2, 43439, Note_off_c, 0, 75, 0
2, 43440, Note_on_c, 0, 78, 88
2, 43919, Note_off_c, 0, 78, 0
2, 43920, Note_on_c, 0, 77, 88
2, 44399, Note_off_c, 0, 77, 0
2, 44400, Note_on_c, 0, 75, 88
2, 44759, Note_off_c, 0, 75, 0
2, 44760, Note_on_c, 0, 73, 88
2, 44879, Note_off_c, 0, 73, 0
2, 44880, Note_on_c, 0, 72, 88
2, 44999, Note_off_c, 0, 72, 0
2, 45000, Note_on_c, 0, 75, 88
2, 45239, Note_off_c, 0, 75, 0
2, 45240, Note_on_c, 0, 68, 88
2, 45359, Note_off_c, 0, 68, 0
2, 45360, Note_on_c, 0, 73, 88
2, 45479, Note_off_c, 0, 73, 0
2, 45480, Note_on_c, 0, 71, 88
2, 45599, Note_off_c, 0, 71, 0
2, 45600, Note_on_c, 0, 70, 88
2, 46199, Note_off_c, 0, 70, 0
2, 46200, Note_on_c, 0, 70, 88
2, 46259, Note_off_c, 0, 70, 0
2, 46260, Note_on_c, 0, 66, 88
2, 46319, Note_off_c, 0, 66, 0
2, 46320, Note_on_c, 0, 63, 88
2, 46679, Note_off_c, 0, 63, 0
2, 46680, Note_on_c, 0, 63, 88
2, 46799, Note_off_c, 0, 63, 0
2, 46800, Note_on_c, 0, 68, 88
2, 47159, Note_off_c, 0, 68, 0
2, 47160, Note_on_c, 0, 68, 88
2, 47219, Note_off_c, 0, 68, 0
2, 47220, Note_on_c, 0, 65, 88
2, 47279, Note_off_c, 0, 65, 0
2, 47280, Note_on_c, 0, 62, 88
2, 47639, Note_off_c, 0, 62, 0
2, 47640, Note_on_c, 0, 58, 88
2, 47759, Note_off_c, 0, 58, 0
2, 47760, Note_on_c, 0, 66, 88
2, 48059, Note_off_c, 0, 66, 0
2, 48060, Note_on_c, 0, 65, 88
2, 48119, Note_off_c, 0, 65, 0
2, 48120, Note_on_c, 0, 66, 88
2, 48179, Note_off_c, 0, 66, 0
2, 48180, Note_on_c, 0, 63, 88
2, 48239, Note_off_c, 0, 63, 0
2, 48240, Note_on_c, 0, 75, 88
2, 48539, Note_off_c, 0, 75, 0
2, 48540, Note_on_c, 0, 73, 88
2, 48599, Note_off_c, 0, 73, 0
2, 48600, Note_on_c, 0, 72, 88
2, 48659, Note_off_c, 0, 72, 0
2, 48660, Note_on_c, 0, 75, 88
2, 48719, Note_off_c, 0, 75, 0
2, 48720, Note_on_c, 0, 73, 88
2, 48779, Note_off_c, 0, 73, 0
2, 48780, Note_on_c, 0, 68, 88
2, 48839, Note_off_c, 0, 68, 0
2, 48840, Note_on_c, 0, 70, 88
2, 48899, Note_off_c, 0, 70, 0
2, 48900, Note_on_c, 0, 71, 88
2, 48959, Note_off_c, 0, 71, 0
2, 48960, Note_on_c, 0, 70, 88
2, 49019, Note_off_c, 0, 70, 0
2, 49020, Note_on_c, 0, 68, 88
2, 49079, Note_off_c, 0, 68, 0
2, 49080, Note_on_c, 0, 66, 88
2, 49139, Note_off_c, 0, 66, 0
2, 49140, Note_on_c, 0, 68, 88
2, 49199, Note_off_c, 0, 68, 0
2, 49200, Note_on_c, 0, 77, 88
2, 49319, Note_off_c, 0, 77, 0
2, 49320, Note_on_c, 0, 73, 88
2, 49439, Note_off_c, 0, 73, 0
2, 49440, Note_on_c, 0, 68, 88
2, 49559, Note_off_c, 0, 68, 0
2, 49560, Note_on_c, 0, 66, 88
2, 49619, Note_off_c, 0, 66, 0
2, 49620, Note_on_c, 0, 65, 88
2, 49679, Note_off_c, 0, 65, 0
2, 49680, Note_on_c, 0, 66, 88
2, 49799, Note_off_c, 0, 66, 0
2, 49800, Note_on_c, 0, 75, 88
2, 49919, Note_off_c, 0, 75, 0
2, 49920, Note_on_c, 0, 65, 88
2, 50039, Note_off_c, 0, 65, 0
2, 50040, Note_on_c, 0, 73, 88
2, 50159, Note_off_c, 0, 73, 0
2, 50160, Note_on_c, 0, 63, 88
2, 50279, Note_off_c, 0, 63, 0
2, 50280, Note_on_c, 0, 72, 88
2, 50399, Note_off_c, 0, 72, 0
2, 50400, Note_on_c, 0, 61, 88
2, 50459, Note_off_c, 0, 61, 0
2, 50460, Note_on_c, 0, 65, 88
2, 50519, Note_off_c, 0, 65, 0
2, 50520, Note_on_c, 0, 66, 88
2, 50579, Note_off_c, 0, 66, 0
2, 50580, Note_on_c, 0, 68, 88
2, 50639, Note_off_c, 0, 68, 0
2, 50640, Note_on_c, 0, 70, 88
2, 50699, Note_off_c, 0, 70, 0
2, 50700, Note_on_c, 0, 72, 88
2, 50759, Note_off_c, 0, 72, 0
2, 50760, Note_on_c, 0, 73, 88
2, 50819, Note_off_c, 0, 73, 0
2, 50820, Note_on_c, 0, 75, 88
2, 50879, Note_off_c, 0, 75, 0
2, 50880, Note_on_c, 0, 76, 88
2, 50939, Note_off_c, 0, 76, 0
2, 50940, Note_on_c, 0, 75, 88
2, 50999, Note_off_c, 0, 75, 0
2, 51000, Note_on_c, 0, 73, 88
2, 51059, Note_off_c, 0, 73, 0
2, 51060, Note_on_c, 0, 75, 88
2, 51119, Note_off_c, 0, 75, 0
2, 51120, Note_on_c, 0, 76, 88
2, 51179, Note_off_c, 0, 76, 0
2, 51180, Note_on_c, 0, 79, 88
2, 51239, Note_off_c, 0, 79, 0
2, 51240, Note_on_c, 0, 80, 88
2, 51299, Note_off_c, 0, 80, 0
2, 51300, Note_on_c, 0, 82, 88
2, 51359, Note_off_c, 0, 82, 0
2, 51360, Note_on_c, 0, 73, 88
2, 51419, Note_off_c, 0, 73, 0
2, 51420, Note_on_c, 0, 72, 88
2, 51479, Note_off_c, 0, 72, 0
2, 51480, Note_on_c, 0, 70, 88
2, 51539, Note_off_c, 0, 70, 0
2, 51540, Note_on_c, 0, 68, 88
2, 51599, Note_off_c, 0, 68, 0
2, 51600, Note_on_c, 0, 75, 88
2, 51719, Note_off_c, 0, 75, 0
2, 51720, Note_on_c, 0, 66, 88
2, 51839, Note_off_c, 0, 66, 0
2, 51840, Note_on_c, 0, 65, 88
2, 51959, Note_off_c, 0, 65, 0
2, 51960, Note_on_c, 0, 61, 88
2, 52079, Note_off_c, 0, 61, 0
2, 52080, Note_on_c, 0, 63, 88
2, 52199, Note_off_c, 0, 63, 0
2, 52200, Note_on_c, 0, 72, 88
2, 52319, Note_off_c, 0, 72, 0
2, 52320, Note_on_c, 0, 73, 88
2, 52360, Note_off_c, 0, 73, 0
2, 52360, End_track
0, 0, End_of_file