0, 0, Header, 1, 2, 240
1, 0, Start_track
1, 0, Time_signature, 4, 2, 24, 8
1, 0, Tempo, 1176470
1, 0, SMPTE_offset, 64, 0, 0, 0, 100
1, 0, End_track
2, 0, Start_track
2, 0, Title_t, "Track 1"
2, 0, Program_c, 0, 6
2, 11640, Note_on_c, 0, 71, 88
2, 11759, Note_off_c, 0, 71, 0
2, 11760, Note_on_c, 0, 69, 88
2, 11879, Note_off_c, 0, 69, 0
2, 11880, Note_on_c, 0, 66, 88
2, 11999, Note_off_c, 0, 66, 0
2, 12000, Note_on_c, 0, 74, 88
2, 12119, Note_off_c, 0, 74, 0
2, 12120, Note_on_c, 0, 71, 88
2, 12239, Note_off_c, 0, 71, 0
2, 12240, Note_on_c, 0, 76, 88
2, 12359, Note_off_c, 0, 76, 0
2, 12360, Note_on_c, 0, 75, 88
2, 12479, Note_off_c, 0, 75, 0
2, 12480, Note_on_c, 0, 69, 88
2, 12599, Note_off_c, 0, 69, 0
2, 12600, Note_on_c, 0, 68, 88
2, 12719, Note_off_c, 0, 68, 0
2, 12720, Note_on_c, 0, 77, 88
2, 12839, Note_off_c, 0, 77, 0
2, 12840, Note_on_c, 0, 76, 88
2, 12959, Note_off_c, 0, 76, 0
2, 12960, Note_on_c, 0, 71, 88
2, 13079, Note_off_c, 0, 71, 0
2, 13080, Note_on_c, 0, 70, 88
2, 13199, Note_off_c, 0, 70, 0
2, 13200, Note_on_c, 0, 79, 88
2, 13319, Note_off_c, 0, 79, 0
2, 13320, Note_on_c, 0, 78, 88
2, 13439, Note_off_c, 0, 78, 0
2, 13440, Note_on_c, 0, 77, 88
2, 13559, Note_off_c, 0, 77, 0
2, 13560, Note_on_c, 0, 78, 88
2, 13679, Note_off_c, 0, 78, 0
2, 13680, Note_on_c, 0, 74, 88
2, 13799, Note_off_c, 0, 74, 0
2, 13800, Note_on_c, 0, 71, 88
2, 13919, Note_off_c, 0, 71, 0
2, 13920, Note_on_c, 0, 73, 88
2, 14459, Note_off_c, 0, 73, 0
2, 14460, Note_on_c, 0, 73, 88
2, 14519, Note_off_c, 0, 73, 0
2, 14520, Note_on_c, 0, 74, 88
2, 14579, Note_off_c, 0, 74, 0
2, 14580, Note_on_c, 0, 76, 88
2, 14639, Note_off_c, 0, 76, 0
2, 14640, Note_on_c, 0, 78, 88
2, 14699, Note_off_c, 0, 78, 0
2, 14700, Note_on_c, 0, 79, 88
2, 14759, Note_off_c, 0, 79, 0
2, 14760, Note_on_c, 0, 71, 88
2, 14819, Note_off_c, 0, 71, 0
2, 14820, Note_on_c, 0, 70, 88
2, 14879, Note_off_c, 0, 70, 0
2, 14880, Note_on_c, 0, 71, 88
2, 15419, Note_off_c, 0, 71, 0
2, 15420, Note_on_c, 0, 65, 88
2, 15479, Note_off_c, 0, 65, 0
2, 15480, Note_on_c, 0, 66, 88
2, 15539, Note_off_c, 0, 66, 0
2, 15540, Note_on_c, 0, 68, 88
2, 15599, Note_off_c, 0, 68, 0
2, 15600, Note_on_c, 0, 69, 88
2, 15659, Note_off_c, 0, 69, 0
2, 15660, Note_on_c, 0, 71, 88
2, 15719, Note_off_c, 0, 71, 0
2, 15720, Note_on_c, 0, 73, 88
2, 15779, Note_off_c, 0, 73, 0
2, 15780, Note_on_c, 0, 66, 88
2, 15839, Note_off_c, 0, 66, 0
2, 15840, Note_on_c, 0, 74, 88
2, 15899, Note_off_c, 0, 74, 0
2, 15900, Note_on_c, 0, 76, 88
2, 15959, Note_off_c, 0, 76, 0
2, 15960, Note_on_c, 0, 78, 88
2, 16199, Note_off_c, 0, 78, 0
2, 16200, Note_on_c, 0, 76, 88
2, 16259, Note_off_c, 0, 76, 0
2, 16260, Note_on_c, 0, 74, 88
2, 16319, Note_off_c, 0, 74, 0
2, 16320, Note_on_c, 0, 73, 88
2, 16379, Note_off_c, 0, 73, 0
2, 16380, Note_on_c, 0, 74, 88
2, 16439, Note_off_c, 0, 74, 0
2, 16440, Note_on_c, 0, 76, 88
2, 16679, Note_off_c, 0, 76, 0
2, 16680, Note_on_c, 0, 74, 88
2, 16739, Note_off_c, 0, 74, 0
2, 16740, Note_on_c, 0, 73, 88
2, 16799, Note_off_c, 0, 73, 0
2, 16800, Note_on_c, 0, 71, 88
2, 16859, Note_off_c, 0, 71, 0
2, 16860, Note_on_c, 0, 73, 88
2, 16919, Note_off_c, 0, 73, 0
2, 16920, Note_on_c, 0, 74, 88
2, 17159, Note_off_c, 0, 74, 0
2, 17160, Note_on_c, 0, 73, 88
2, 17219, Note_off_c, 0, 73, 0
2, 17220, Note_on_c, 0, 71, 88
2, 17279, Note_off_c, 0, 71, 0
2, 17280, Note_on_c, 0, 69, 88
2, 17639, Note_off_c, 0, 69, 0
2, 17640, Note_on_c, 0, 78, 88
2, 17879, Note_off_c, 0, 78, 0
2, 17880, Note_on_c, 0, 76, 88
2, 17939, Note_off_c, 0, 76, 0
2, 17940, Note_on_c, 0, 74, 88
2, 17999, Note_off_c, 0, 74, 0
2, 18000, Note_on_c, 0, 73, 88
2, 18059, Note_off_c, 0, 73, 0
2, 18060, Note_on_c, 0, 74, 88
2, 18119, Note_off_c, 0, 74, 0
2, 18120, Note_on_c, 0, 76, 88
2, 18359, Note_off_c, 0, 76, 0
2, 18360, Note_on_c, 0, 74, 88
2, 18419, Note_off_c, 0, 74, 0
2, 18420, Note_on_c, 0, 73, 88
2, 18479, Note_off_c, 0, 73, 0
2, 18480, Note_on_c, 0, 71, 88
2, 18539, Note_off_c, 0, 71, 0
2, 18540, Note_on_c, 0, 73, 88
2, 18599, Note_off_c, 0, 73, 0
2, 18600, Note_on_c, 0, 74, 88
2, 18839, Note_off_c, 0, 74, 0
2, 18840, Note_on_c, 0, 73, 88
2, 18899, Note_off_c, 0, 73, 0
2, 18900, Note_on_c, 0, 71, 88
2, 18959, Note_off_c, 0, 71, 0
2, 18960, Note_on_c, 0, 70, 88
2, 19019, Note_off_c, 0, 70, 0
2, 19020, Note_on_c, 0, 71, 88
2, 19079, Note_off_c, 0, 71, 0
2, 19080, Note_on_c, 0, 73, 88
2, 19319, Note_off_c, 0, 73, 0
2, 19320, Note_on_c, 0, 71, 88
2, 19379, Note_off_c, 0, 71, 0
2, 19380, Note_on_c, 0, 70, 88
2, 19439, Note_off_c, 0, 70, 0
2, 19440, Note_on_c, 0, 71, 88
2, 19739, Note_off_c, 0, 71, 0
2, 19740, Note_on_c, 0, 70, 88
2, 19799, Note_off_c, 0, 70, 0
2, 19800, Note_on_c, 0, 71, 88
2, 19859, Note_off_c, 0, 71, 0
2, 19860, Note_on_c, 0, 74, 88
2, 19919, Note_off_c, 0, 74, 0
2, 19920, Note_on_c, 0, 73, 88
2, 20159, Note_off_c, 0, 73, 0
2, 20160, Note_on_c, 0, 71, 88
2, 20399, Note_off_c, 0, 71, 0
2, 20400, Note_on_c, 0, 69, 88
2, 20639, Note_off_c, 0, 69, 0
2, 20640, Note_on_c, 0, 68, 88
2, 20879, Note_off_c, 0, 68, 0
2, 20880, Note_on_c, 0, 66, 88
2, 21239, Note_off_c, 0, 66, 0
2, 21240, Note_on_c, 0, 65, 88
2, 21359, Note_off_c, 0, 65, 0
2, 21360, Note_on_c, 0, 66, 88
2, 21659, Note_off_c, 0, 66, 0
2, 21660, Note_on_c, 0, 68, 88
2, 21719, Note_off_c, 0, 68, 0
2, 21720, Note_on_c, 0, 69, 88
2, 21779, Note_off_c, 0, 69, 0
2, 21780, Note_on_c, 0, 71, 88
2, 21839, Note_off_c, 0, 71, 0
2, 21840, Note_on_c, 0, 73, 88
2, 21899, Note_off_c, 0, 73, 0
2, 21900, Note_on_c, 0, 74, 88
2, 21959, Note_off_c, 0, 74, 0
2, 21960, Note_on_c, 0, 66, 88
2, 22019, Note_off_c, 0, 66, 0
2, 22020, Note_on_c, 0, 65, 88
2, 22079, Note_off_c, 0, 65, 0
2, 22080, Note_on_c, 0, 66, 88
2, 22319, Note_off_c, 0, 66, 0
2, 22320, Note_on_c, 0, 78, 88
2, 22679, Note_off_c, 0, 78, 0
2, 22680, Note_on_c, 0, 76, 88
2, 22799, Note_off_c, 0, 76, 0
2, 22800, Note_on_c, 0, 75, 88
2, 22919, Note_off_c, 0, 75, 0
2, 22920, Note_on_c, 0, 78, 88
2, 23039, Note_off_c, 0, 78, 0
2, 23040, Note_on_c, 0, 79, 88
2, 23639, Note_off_c, 0, 79, 0
2, 23640, Note_on_c, 0, 78, 88
2, 23759, Note_off_c, 0, 78, 0
2, 23760, Note_on_c, 0, 77, 88
2, 23879, Note_off_c, 0, 77, 0
2, 23880, Note_on_c, 0, 80, 88
2, 23999, Note_off_c, 0, 80, 0
2, 24000, Note_on_c, 0, 73, 88
2, 24119, Note_off_c, 0, 73, 0
2, 24120, Note_on_c, 0, 74, 88
2, 24179, Note_off_c, 0, 74, 0
2, 24180, Note_on_c, 0, 76, 88
2, 24239, Note_off_c, 0, 76, 0
2, 24240, Note_on_c, 0, 74, 88
2, 24299, Note_off_c, 0, 74, 0
2, 24300, Note_on_c, 0, 76, 88
2, 24359, Note_off_c, 0, 76, 0
2, 24360, Note_on_c, 0, 78, 88
2, 24599, Note_off_c, 0, 78, 0
2, 24600, Note_on_c, 0, 76, 88
2, 24659, Note_off_c, 0, 76, 0
2, 24660, Note_on_c, 0, 74, 88
2, 24719, Note_off_c, 0, 74, 0
2, 24720, Note_on_c, 0, 73, 88
2, 24779, Note_off_c, 0, 73, 0
2, 24780, Note_on_c, 0, 74, 88
2, 24839, Note_off_c, 0, 74, 0
2, 24840, Note_on_c, 0, 76, 88
2, 25079, Note_off_c, 0, 76, 0
2, 25080, Note_on_c, 0, 74, 88
2, 25139, Note_off_c, 0, 74, 0
2, 25140, Note_on_c, 0, 73, 88
2, 25199, Note_off_c, 0, 73, 0
2, 25200, Note_on_c, 0, 71, 88
2, 25259, Note_off_c, 0, 71, 0
2, 25260, Note_on_c, 0, 73, 88
2, 25319, Note_off_c, 0, 73, 0
2, 25320, Note_on_c, 0, 74, 88
2, 25559, Note_off_c, 0, 74, 0
2, 25560, Note_on_c, 0, 73, 88
2, 25619, Note_off_c, 0, 73, 0
2, 25620, Note_on_c, 0, 71, 88
2, 25679, Note_off_c, 0, 71, 0
2, 25680, Note_on_c, 0, 70, 88
2, 25739, Note_off_c, 0, 70, 0
2, 25740, Note_on_c, 0, 71, 88
2, 25799, Note_off_c, 0, 71, 0
2, 25800, Note_on_c, 0, 73, 88
2, 26039, Note_off_c, 0, 73, 0
2, 26040, Note_on_c, 0, 71, 88
2, 26279, Note_off_c, 0, 71, 0
2, 26280, Note_on_c, 0, 83, 88
2, 26519, Note_off_c, 0, 83, 0
2, 26520, Note_on_c, 0, 81, 88
2, 26579, Note_off_c, 0, 81, 0
2, 26580, Note_on_c, 0, 79, 88
2, 26639, Note_off_c, 0, 79, 0
2, 26640, Note_on_c, 0, 78, 88
2, 26699, Note_off_c, 0, 78, 0
2, 26700, Note_on_c, 0, 79, 88
2, 26759, Note_off_c, 0, 79, 0
2, 26760, Note_on_c, 0, 81, 88
2, 26999, Note_off_c, 0, 81, 0
2, 27000, Note_on_c, 0, 79, 88
2, 27059, Note_off_c, 0, 79, 0
2, 27060, Note_on_c, 0, 78, 88
2, 27119, Note_off_c, 0, 78, 0
2, 27120, Note_on_c, 0, 76, 88
2, 27179, Note_off_c, 0, 76, 0
2, 27180, Note_on_c, 0, 78, 88
2, 27239, Note_off_c, 0, 78, 0
2, 27240, Note_on_c, 0, 79, 88
2, 27479, Note_off_c, 0, 79, 0
2, 27480, Note_on_c, 0, 78, 88
2, 27539, Note_off_c, 0, 78, 0
2, 27540, Note_on_c, 0, 76, 88
2, 27599, Note_off_c, 0, 76, 0
2, 27600, Note_on_c, 0, 75, 88
2, 27659, Note_off_c, 0, 75, 0
2, 27660, Note_on_c, 0, 76, 88
2, 27719, Note_off_c, 0, 76, 0
2, 27720, Note_on_c, 0, 78, 88
2, 27959, Note_off_c, 0, 78, 0
2, 27960, Note_on_c, 0, 76, 88
2, 28019, Note_off_c, 0, 76, 0
2, 28020, Note_on_c, 0, 75, 88
2, 28079, Note_off_c, 0, 75, 0
2, 28080, Note_on_c, 0, 76, 88
2, 28139, Note_off_c, 0, 76, 0
2, 28140, Note_on_c, 0, 78, 88
2, 28199, Note_off_c, 0, 78, 0
2, 28200, Note_on_c, 0, 79, 88
2, 28259, Note_off_c, 0, 79, 0
2, 28260, Note_on_c, 0, 83, 88
2, 28319, Note_off_c, 0, 83, 0
2, 28320, Note_on_c, 0, 81, 88
2, 28439, Note_off_c, 0, 81, 0
2, 28440, Note_on_c, 0, 79, 88
2, 28559, Note_off_c, 0, 79, 0
2, 28560, Note_on_c, 0, 78, 88
2, 28799, Note_off_c, 0, 78, 0
2, 28800, Note_on_c, 0, 76, 88
2, 29039, Note_off_c, 0, 76, 0
2, 29040, Note_on_c, 0, 74, 88
2, 29279, Note_off_c, 0, 74, 0
2, 29280, Note_on_c, 0, 73, 88
2, 29519, Note_off_c, 0, 73, 0
2, 29520, Note_on_c, 0, 71, 88
2, 29579, Note_off_c, 0, 71, 0
2, 29580, Note_on_c, 0, 73, 88
2, 29639, Note_off_c, 0, 73, 0
2, 29640, Note_on_c, 0, 74, 88
2, 29699, Note_off_c, 0, 74, 0
2, 29700, Note_on_c, 0, 76, 88
2, 29759, Note_off_c, 0, 76, 0
2, 29760, Note_on_c, 0, 74, 88
2, 29819, Note_off_c, 0, 74, 0
2, 29820, Note_on_c, 0, 73, 88
2, 29999, Note_off_c, 0, 73, 0
2, 30000, Note_on_c, 0, 71, 88
2, 30299, Note_off_c, 0, 71, 0
2, 30300, Note_on_c, 0, 73, 88
2, 30359, Note_off_c, 0, 73, 0
2, 30360, Note_on_c, 0, 74, 88
2, 30419, Note_off_c, 0, 74, 0
2, 30420, Note_on_c, 0, 76, 88
2, 30479, Note_off_c, 0, 76, 0
2, 30480, Note_on_c, 0, 78, 88
2, 30539, Note_off_c, 0, 78, 0
2, 30540, Note_on_c, 0, 79, 88
2, 30599, Note_off_c, 0, 79, 0
2, 30600, Note_on_c, 0, 71, 88
2, 30659, Note_off_c, 0, 71, 0
2, 30660, Note_on_c, 0, 70, 88
2, 30719, Note_off_c, 0, 70, 0
2, 30720, Note_on_c, 0, 74, 88
2, 31199, Note_off_c, 0, 74, 0
2, 31200, Note_on_c, 0, 73, 88
2, 31559, Note_off_c, 0, 73, 0
2, 31560, Note_on_c, 0, 75, 88
2, 31679, Note_off_c, 0, 75, 0
2, 31680, Note_on_c, 0, 77, 88
2, 32039, Note_off_c, 0, 77, 0
2, 32040, Note_on_c, 0, 78, 88
2, 32219, Note_off_c, 0, 78, 0
2, 32220, Note_on_c, 0, 77, 88
2, 32279, Note_off_c, 0, 77, 0
2, 32280, Note_on_c, 0, 78, 88
2, 32339, Note_off_c, 0, 78, 0
2, 32340, Note_on_c, 0, 81, 88
2, 32399, Note_off_c, 0, 81, 0
2, 32400, Note_on_c, 0, 80, 88
2, 32759, Note_off_c, 0, 80, 0
2, 32760, Note_on_c, 0, 78, 88
2, 32879, Note_off_c, 0, 78, 0
2, 32880, Note_on_c, 0, 74, 88
2, 32999, Note_off_c, 0, 74, 0
2, 33000, Note_on_c, 0, 71, 88
2, 33119, Note_off_c, 0, 71, 0
2, 33120, Note_on_c, 0, 79, 88
2, 33239, Note_off_c, 0, 79, 0
2, 33240, Note_on_c, 0, 78, 88
2, 33359, Note_off_c, 0, 78, 0
2, 33360, Note_on_c, 0, 83, 88
2, 33479, Note_off_c, 0, 83, 0
2, 33480, Note_on_c, 0, 82, 88
2, 33599, Note_off_c, 0, 82, 0
2, 33600, Note_on_c, 0, 76, 88
2, 33719, Note_off_c, 0, 76, 0
2, 33720, Note_on_c, 0, 75, 88
2, 33839, Note_off_c, 0, 75, 0
2, 33840, Note_on_c, 0, 79, 88
2, 34139, Note_off_c, 0, 79, 0
2, 34140, Note_on_c, 0, 78, 88
2, 34199, Note_off_c, 0, 78, 0
2, 34200, Note_on_c, 0, 80, 88
2, 34259, Note_off_c, 0, 80, 0
2, 34260, Note_on_c, 0, 82, 88
2, 34319, Note_off_c, 0, 82, 0
2, 34320, Note_on_c, 0, 83, 88
2, 34379, Note_off_c, 0, 83, 0
2, 34380, Note_on_c, 0, 79, 88
2, 34439, Note_off_c, 0, 79, 0
2, 34440, Note_on_c, 0, 78, 88
2, 34499, Note_off_c, 0, 78, 0
2, 34500, Note_on_c, 0, 77, 88
2, 34559, Note_off_c, 0, 77, 0
2, 34560, Note_on_c, 0, 78, 88
2, 34799, Note_off_c, 0, 78, 0
2, 34800, Note_on_c, 0, 77, 88
2, 35099, Note_off_c, 0, 77, 0
2, 35100, Note_on_c, 0, 76, 88
2, 35159, Note_off_c, 0, 76, 0
2, 35160, Note_on_c, 0, 78, 88
2, 35219, Note_off_c, 0, 78, 0
2, 35220, Note_on_c, 0, 80, 88
2, 35279, Note_off_c, 0, 80, 0
2, 35280, Note_on_c, 0, 81, 88
2, 35339, Note_off_c, 0, 81, 0
2, 35340, Note_on_c, 0, 83, 88
2, 35399, Note_off_c, 0, 83, 0
2, 35400, Note_on_c, 0, 76, 88
2, 35459, Note_off_c, 0, 76, 0
2, 35460, Note_on_c, 0, 75, 88
2, 35519, Note_off_c, 0, 75, 0
2, 35520, Note_on_c, 0, 76, 88
2, 35579, Note_off_c, 0, 76, 0
2, 35580, Note_on_c, 0, 66, 88
2, 35639, Note_off_c, 0, 66, 0
2, 35640, Note_on_c, 0, 67, 88
2, 35699, Note_off_c, 0, 67, 0
2, 35700, Note_on_c, 0, 69, 88
2, 35759, Note_off_c, 0, 69, 0
2, 35760, Note_on_c, 0, 71, 88
2, 35819, Note_off_c, 0, 71, 0
2, 35820, Note_on_c, 0, 73, 88
2, 35879, Note_off_c, 0, 73, 0
2, 35880, Note_on_c, 0, 74, 88
2, 35939, Note_off_c, 0, 74, 0
2, 35940, Note_on_c, 0, 78, 88
2, 35999, Note_off_c, 0, 78, 0
2, 36000, Note_on_c, 0, 76, 88
2, 36059, Note_off_c, 0, 76, 0
2, 36060, Note_on_c, 0, 73, 88
2, 36119, Note_off_c, 0, 73, 0
2, 36120, Note_on_c, 0, 74, 88
2, 36179, Note_off_c, 0, 74, 0
2, 36180, Note_on_c, 0, 78, 88
2, 36239, Note_off_c, 0, 78, 0
2, 36240, Note_on_c, 0, 79, 88
2, 36299, Note_off_c, 0, 79, 0
2, 36300, Note_on_c, 0, 76, 88
2, 36359, Note_off_c, 0, 76, 0
2, 36360, Note_on_c, 0, 78, 88
2, 36419, Note_off_c, 0, 78, 0
2, 36420, Note_on_c, 0, 82, 88
2, 36479, Note_off_c, 0, 82, 0
2, 36480, Note_on_c, 0, 83, 88
2, 36719, Note_off_c, 0, 83, 0
2, 36720, Note_on_c, 0, 81, 88
2, 36959, Note_off_c, 0, 81, 0
2, 36960, Note_on_c, 0, 80, 88
2, 37199, Note_off_c, 0, 80, 0
2, 37200, Note_on_c, 0, 78, 88
2, 37499, Note_off_c, 0, 78, 0
2, 37500, Note_on_c, 0, 77, 88
2, 37559, Note_off_c, 0, 77, 0
2, 37560, Note_on_c, 0, 78, 88
2, 37619, Note_off_c, 0, 78, 0
2, 37620, Note_on_c, 0, 77, 88
2, 37679, Note_off_c, 0, 77, 0
2, 37680, Note_on_c, 0, 78, 88
2, 37979, Note_off_c, 0, 78, 0
2, 37980, Note_on_c, 0, 69, 88
2, 38039, Note_off_c, 0, 69, 0
2, 38040, Note_on_c, 0, 71, 88
2, 38099, Note_off_c, 0, 71, 0
2, 38100, Note_on_c, 0, 73, 88
2, 38159, Note_off_c, 0, 73, 0
2, 38160, Note_on_c, 0, 74, 88
2, 38219, Note_off_c, 0, 74, 0
2, 38220, Note_on_c, 0, 76, 88
2, 38279, Note_off_c, 0, 76, 0
2, 38280, Note_on_c, 0, 66, 88
2, 38339, Note_off_c, 0, 66, 0
2, 38340, Note_on_c, 0, 65, 88
2, 38399, Note_off_c, 0, 65, 0
2, 38400, Note_on_c, 0, 66, 88
2, 38519, Note_off_c, 0, 66, 0
2, 38520, Note_on_c, 0, 78, 88
2, 38639, Note_off_c, 0, 78, 0
2, 38640, Note_on_c, 0, 74, 88
2, 38759, Note_off_c, 0, 74, 0
2, 38760, Note_on_c, 0, 71, 88
2, 38879, Note_off_c, 0, 71, 0
2, 38880, Note_on_c, 0, 79, 88
2, 38999, Note_off_c, 0, 79, 0
2, 39000, Note_on_c, 0, 78, 88
2, 39119, Note_off_c, 0, 78, 0
2, 39120, Note_on_c, 0, 83, 88
2, 39239, Note_off_c, 0, 83, 0
2, 39240, Note_on_c, 0, 82, 88
2, 39359, Note_off_c, 0, 82, 0
2, 39360, Note_on_c, 0, 76, 88
2, 39479, Note_off_c, 0, 76, 0
2, 39480, Note_on_c, 0, 75, 88
2, 39719, Note_off_c, 0, 75, 0
2, 39720, Note_on_c, 0, 76, 88
2, 39899, Note_off_c, 0, 76, 0
2, 39900, Note_on_c, 0, 75, 88
2, 39959, Note_off_c, 0, 75, 0
2, 39960, Note_on_c, 0, 76, 88
2, 40019, Note_off_c, 0, 76, 0
2, 40020, Note_on_c, 0, 79, 88
2, 40079, Note_off_c, 0, 79, 0
2, 40080, Note_on_c, 0, 78, 88
2, 40319, Note_off_c, 0, 78, 0
2, 40320, Note_on_c, 0, 76, 88
2, 40379, Note_off_c, 0, 76, 0
2, 40380, Note_on_c, 0, 74, 88
2, 40439, Note_off_c, 0, 74, 0
2, 40440, Note_on_c, 0, 73, 88
2, 40499, Note_off_c, 0, 73, 0
2, 40500, Note_on_c, 0, 71, 88
2, 40559, Note_off_c, 0, 71, 0
2, 40560, Note_on_c, 0, 69, 88
2, 40619, Note_off_c, 0, 69, 0
2, 40620, Note_on_c, 0, 71, 88
2, 40679, Note_off_c, 0, 71, 0
2, 40680, Note_on_c, 0, 73, 88
2, 40739, Note_off_c, 0, 73, 0
2, 40740, Note_on_c, 0, 76, 88
2, 40799, Note_off_c, 0, 76, 0
2, 40800, Note_on_c, 0, 74, 88
2, 40859, Note_off_c, 0, 74, 0
2, 40860, Note_on_c, 0, 71, 88
2, 40919, Note_off_c, 0, 71, 0
2, 40920, Note_on_c, 0, 73, 88
2, 40979, Note_off_c, 0, 73, 0
2, 40980, Note_on_c, 0, 76, 88
2, 41039, Note_off_c, 0, 76, 0
2, 41040, Note_on_c, 0, 78, 88
2, 41099, Note_off_c, 0, 78, 0
2, 41100, Note_on_c, 0, 74, 88
2, 41159, Note_off_c, 0, 74, 0
2, 41160, Note_on_c, 0, 76, 88
2, 41219, Note_off_c, 0, 76, 0
2, 41220, Note_on_c, 0, 80, 88
2, 41279, Note_off_c, 0, 80, 0
2, 41280, Note_on_c, 0, 81, 88
2, 41339, Note_off_c, 0, 81, 0
2, 41340, Note_on_c, 0, 79, 88
2, 41399, Note_off_c, 0, 79, 0
2, 41400, Note_on_c, 0, 78, 88
2, 41459, Note_off_c, 0, 78, 0
2, 41460, Note_on_c, 0, 76, 88
2, 41519, Note_off_c, 0, 76, 0
2, 41520, Note_on_c, 0, 74, 88
2, 41579, Note_off_c, 0, 74, 0
2, 41580, Note_on_c, 0, 73, 88
2, 41639, Note_off_c, 0, 73, 0
2, 41640, Note_on_c, 0, 71, 88
2, 41699, Note_off_c, 0, 71, 0
2, 41700, Note_on_c, 0, 69, 88
2, 41759, Note_off_c, 0, 69, 0
2, 41760, Note_on_c, 0, 67, 88
2, 41819, Note_off_c, 0, 67, 0
2, 41820, Note_on_c, 0, 64, 88
2, 41879, Note_off_c, 0, 64, 0
2, 41880, Note_on_c, 0, 66, 88
2, 41939, Note_off_c, 0, 66, 0
2, 41940, Note_on_c, 0, 69, 88
2, 41999, Note_off_c, 0, 69, 0
2, 42000, Note_on_c, 0, 71, 88
2, 42059, Note_off_c, 0, 71, 0
2, 42060, Note_on_c, 0, 67, 88
2, 42119, Note_off_c, 0, 67, 0
2, 42120, Note_on_c, 0, 69, 88
2, 42179, Note_off_c, 0, 69, 0
2, 42180, Note_on_c, 0, 73, 88
2, 42239, Note_off_c, 0, 73, 0
2, 42240, Note_on_c, 0, 74, 88
2, 42299, Note_off_c, 0, 74, 0
2, 42300, Note_on_c, 0, 76, 88
2, 42359, Note_off_c, 0, 76, 0
2, 42360, Note_on_c, 0, 74, 88
2, 42419, Note_off_c, 0, 74, 0
2, 42420, Note_on_c, 0, 76, 88
2, 42479, Note_off_c, 0, 76, 0
2, 42480, Note_on_c, 0, 78, 88
2, 42539, Note_off_c, 0, 78, 0
2, 42540, Note_on_c, 0, 79, 88
2, 42599, Note_off_c, 0, 79, 0
2, 42600, Note_on_c, 0, 81, 88
2, 42659, Note_off_c, 0, 81, 0
2, 42660, Note_on_c, 0, 78, 88
2, 42719, Note_off_c, 0, 78, 0
2, 42720, Note_on_c, 0, 74, 88
2, 42779, Note_off_c, 0, 74, 0
2, 42780, Note_on_c, 0, 77, 88
2, 42839, Note_off_c, 0, 77, 0
2, 42840, Note_on_c, 0, 76, 88
2, 42899, Note_off_c, 0, 76, 0
2, 42900, Note_on_c, 0, 74, 88
2, 42959, Note_off_c, 0, 74, 0
2, 42960, Note_on_c, 0, 72, 88
2, 43019, Note_off_c, 0, 72, 0
2, 43020, Note_on_c, 0, 71, 88
2, 43079, Note_off_c, 0, 71, 0
2, 43080, Note_on_c, 0, 72, 88
2, 43139, Note_off_c, 0, 72, 0
2, 43140, Note_on_c, 0, 74, 88
2, 43199, Note_off_c, 0, 74, 0
2, 43200, Note_on_c, 0, 72, 88
2, 43259, Note_off_c, 0, 72, 0
2, 43260, Note_on_c, 0, 71, 88
2, 43439, Note_off_c, 0, 71, 0
2, 43440, Note_on_c, 0, 69, 88
2, 43799, Note_off_c, 0, 69, 0
2, 43800, Note_on_c, 0, 74, 88
2, 43859, Note_off_c, 0, 74, 0
2, 43860, Note_on_c, 0, 76, 88
2, 43919, Note_off_c, 0, 76, 0
2, 43920, Note_on_c, 0, 78, 88
2, 43979, Note_off_c, 0, 78, 0
2, 43980, Note_on_c, 0, 79, 88
2, 44039, Note_off_c, 0, 79, 0
2, 44040, Note_on_c, 0, 69, 88
2, 44099, Note_off_c, 0, 69, 0
2, 44100, Note_on_c, 0, 68, 88
2, 44159, Note_off_c, 0, 68, 0
2, 44160, Note_on_c, 0, 76, 88
2, 44219, Note_off_c, 0, 76, 0
2, 44220, Note_on_c, 0, 78, 88
2, 44279, Note_off_c, 0, 78, 0
2, 44280, Note_on_c, 0, 67, 88
2, 44339, Note_off_c, 0, 67, 0
2, 44340, Note_on_c, 0, 66, 88
2, 44399, Note_off_c, 0, 66, 0
2, 44400, Note_on_c, 0, 74, 88
2, 44459, Note_off_c, 0, 74, 0
2, 44460, Note_on_c, 0, 76, 88
2, 44519, Note_off_c, 0, 76, 0
2, 44520, Note_on_c, 0, 66, 88
2, 44579, Note_off_c, 0, 66, 0
2, 44580, Note_on_c, 0, 64, 88
2, 44639, Note_off_c, 0, 64, 0
2, 44640, Note_on_c, 0, 73, 88
2, 44699, Note_off_c, 0, 73, 0
2, 44700, Note_on_c, 0, 71, 88
2, 44759, Note_off_c, 0, 71, 0
2, 44760, Note_on_c, 0, 73, 88
2, 44819, Note_off_c, 0, 73, 0
2, 44820, Note_on_c, 0, 74, 88
2, 44879, Note_off_c, 0, 74, 0
2, 44880, Note_on_c, 0, 76, 88
2, 44939, Note_off_c, 0, 76, 0
2, 44940, Note_on_c, 0, 78, 88
2, 44999, Note_off_c, 0, 78, 0
2, 45000, Note_on_c, 0, 79, 88
2, 45059, Note_off_c, 0, 79, 0
2, 45060, Note_on_c, 0, 76, 88
2, 45119, Note_off_c, 0, 76, 0
2, 45120, Note_on_c, 0, 81, 88
2, 45599, Note_off_c, 0, 81, 0
2, 45600, Note_on_c, 0, 79, 88
2, 45839, Note_off_c, 0, 79, 0
2, 45840, Note_on_c, 0, 77, 88
2, 46079, Note_off_c, 0, 77, 0
2, 46080, Note_on_c, 0, 76, 88
2, 46319, Note_off_c, 0, 76, 0
2, 46320, Note_on_c, 0, 74, 88
2, 46619, Note_off_c, 0, 74, 0
2, 46620, Note_on_c, 0, 73, 88
2, 46679, Note_off_c, 0, 73, 0
2, 46680, Note_on_c, 0, 74, 88
2, 46739, Note_off_c, 0, 74, 0
2, 46740, Note_on_c, 0, 73, 88
2, 46799, Note_off_c, 0, 73, 0
2, 46800, Note_on_c, 0, 74, 88
2, 47099, Note_off_c, 0, 74, 0
2, 47100, Note_on_c, 0, 76, 88
2, 47159, Note_off_c, 0, 76, 0
2, 47160, Note_on_c, 0, 78, 88
2, 47219, Note_off_c, 0, 78, 0
2, 47220, Note_on_c, 0, 79, 88
2, 47279, Note_off_c, 0, 79, 0
2, 47280, Note_on_c, 0, 81, 88
2, 47339, Note_off_c, 0, 81, 0
2, 47340, Note_on_c, 0, 83, 88
2, 47399, Note_off_c, 0, 83, 0
2, 47400, Note_on_c, 0, 74, 88
2, 47459, Note_off_c, 0, 74, 0
2, 47460, Note_on_c, 0, 73, 88
2, 47519, Note_off_c, 0, 73, 0
2, 47520, Note_on_c, 0, 74, 88
2, 48239, Note_off_c, 0, 74, 0
2, 48240, Note_on_c, 0, 73, 88
2, 48359, Note_off_c, 0, 73, 0
2, 48360, Note_on_c, 0, 78, 88
2, 48539, Note_off_c, 0, 78, 0
2, 48540, Note_on_c, 0, 71, 88
2, 48599, Note_off_c, 0, 71, 0
2, 48600, Note_on_c, 0, 73, 88
2, 48659, Note_off_c, 0, 73, 0
2, 48660, Note_on_c, 0, 74, 88
2, 48719, Note_off_c, 0, 74, 0
2, 48720, Note_on_c, 0, 76, 88
2, 48779, Note_off_c, 0, 76, 0
2, 48780, Note_on_c, 0, 78, 88
2, 48839, Note_off_c, 0, 78, 0
2, 48840, Note_on_c, 0, 71, 88
2, 48899, Note_off_c, 0, 71, 0
2, 48900, Note_on_c, 0, 70, 88
2, 48959, Note_off_c, 0, 70, 0
2, 48960, Note_on_c, 0, 74, 88
2, 49199, Note_off_c, 0, 74, 0
2, 49200, Note_on_c, 0, 73, 88
2, 49319, Note_off_c, 0, 73, 0
2, 49320, Note_on_c, 0, 71, 88
2, 49439, Note_off_c, 0, 71, 0
2, 49440, Note_on_c, 0, 73, 88
2, 49979, Note_off_c, 0, 73, 0
2, 49980, Note_on_c, 0, 66, 88
2, 50039, Note_off_c, 0, 66, 0
2, 50040, Note_on_c, 0, 68, 88
2, 50099, Note_off_c, 0, 68, 0
2, 50100, Note_on_c, 0, 69, 88
2, 50159, Note_off_c, 0, 69, 0
2, 50160, Note_on_c, 0, 71, 88
2, 50219, Note_off_c, 0, 71, 0
2, 50220, Note_on_c, 0, 73, 88
2, 50279, Note_off_c, 0, 73, 0
2, 50280, Note_on_c, 0, 66, 88
2, 50339, Note_off_c, 0, 66, 0
2, 50340, Note_on_c, 0, 65, 88
2, 50399, Note_off_c, 0, 65, 0
2, 50400, Note_on_c, 0, 69, 88
2, 51119, Note_off_c, 0, 69, 0
2, 51120, Note_on_c, 0, 80, 88
2, 51359, Note_off_c, 0, 80, 0
2, 51360, Note_on_c, 0, 78, 88
2, 51599, Note_off_c, 0, 78, 0
2, 51600, Note_on_c, 0, 76, 88
2, 51839, Note_off_c, 0, 76, 0
2, 51840, Note_on_c, 0, 75, 88
2, 52079, Note_off_c, 0, 75, 0
2, 52080, Note_on_c, 0, 73, 88
2, 52439, Note_off_c, 0, 73, 0
2, 52440, Note_on_c, 0, 72, 88
2, 52559, Note_off_c, 0, 72, 0
2, 52560, Note_on_c, 0, 73, 88
2, 52859, Note_off_c, 0, 73, 0
2, 52860, Note_on_c, 0, 75, 88
2, 52919, Note_off_c, 0, 75, 0
2, 52920, Note_on_c, 0, 76, 88
2, 52979, Note_off_c, 0, 76, 0
2, 52980, Note_on_c, 0, 78, 88
2, 53039, Note_off_c, 0, 78, 0
2, 53040, Note_on_c, 0, 80, 88
2, 53099, Note_off_c, 0, 80, 0
2, 53100, Note_on_c, 0, 81, 88
2, 53159, Note_off_c, 0, 81, 0
2, 53160, Note_on_c, 0, 73, 88
2, 53219, Note_off_c, 0, 73, 0
2, 53220, Note_on_c, 0, 72, 88
2, 53279, Note_off_c, 0, 72, 0
2, 53280, Note_on_c, 0, 76, 88
2, 53819, Note_off_c, 0, 76, 0
2, 53820, Note_on_c, 0, 76, 88
2, 53879, Note_off_c, 0, 76, 0
2, 53880, Note_on_c, 0, 78, 88
2, 53939, Note_off_c, 0, 78, 0
2, 53940, Note_on_c, 0, 80, 88
2, 53999, Note_off_c, 0, 80, 0
2, 54000, Note_on_c, 0, 81, 88
2, 54059, Note_off_c, 0, 81, 0
2, 54060, Note_on_c, 0, 83, 88
2, 54119, Note_off_c, 0, 83, 0
2, 54120, Note_on_c, 0, 75, 88
2, 54179, Note_off_c, 0, 75, 0
2, 54180, Note_on_c, 0, 73, 88
2, 54239, Note_off_c, 0, 73, 0
2, 54240, Note_on_c, 0, 75, 88
2, 54959, Note_off_c, 0, 75, 0
2, 54960, Note_on_c, 0, 78, 88
2, 55199, Note_off_c, 0, 78, 0
2, 55200, Note_on_c, 0, 76, 88
2, 55439, Note_off_c, 0, 76, 0
2, 55440, Note_on_c, 0, 74, 88
2, 55679, Note_off_c, 0, 74, 0
2, 55680, Note_on_c, 0, 73, 88
2, 55919, Note_off_c, 0, 73, 0
2, 55920, Note_on_c, 0, 71, 88
2, 56219, Note_off_c, 0, 71, 0
2, 56220, Note_on_c, 0, 70, 88
2, 56279, Note_off_c, 0, 70, 0
2, 56280, Note_on_c, 0, 71, 88
2, 56339, Note_off_c, 0, 71, 0
2, 56340, Note_on_c, 0, 70, 88
2, 56399, Note_off_c, 0, 70, 0
2, 56400, Note_on_c, 0, 71, 88
2, 56699, Note_off_c, 0, 71, 0
2, 56700, Note_on_c, 0, 73, 88
2, 56759, Note_off_c, 0, 73, 0
2, 56760, Note_on_c, 0, 74, 88
2, 56819, Note_off_c, 0, 74, 0
2, 56820, Note_on_c, 0, 76, 88
2, 56879, Note_off_c, 0, 76, 0
2, 56880, Note_on_c, 0, 78, 88
2, 56939, Note_off_c, 0, 78, 0
2, 56940, Note_on_c, 0, 79, 88
2, 56999, Note_off_c, 0, 79, 0
2, 57000, Note_on_c, 0, 71, 88
2, 57059, Note_off_c, 0, 71, 0
2, 57060, Note_on_c, 0, 70, 88
2, 57119, Note_off_c, 0, 70, 0
2, 57120, Note_on_c, 0, 74, 88
2, 57419, Note_off_c, 0, 74, 0
2, 57420, Note_on_c, 0, 73, 88
2, 57479, Note_off_c, 0, 73, 0
2, 57480, Note_on_c, 0, 74, 88
2, 57539, Note_off_c, 0, 74, 0
2, 57540, Note_on_c, 0, 73, 88
2, 57599, Note_off_c, 0, 73, 0
2, 57600, Note_on_c, 0, 76, 88
2, 57659, Note_off_c, 0, 76, 0
2, 57660, Note_on_c, 0, 74, 88
2, 57719, Note_off_c, 0, 74, 0
2, 57720, Note_on_c, 0, 78, 88
2, 57779, Note_off_c, 0, 78, 0
2, 57780, Note_on_c, 0, 76, 88
2, 57839, Note_off_c, 0, 76, 0
2, 57840, Note_on_c, 0, 79, 88
2, 58259, Note_off_c, 0, 79, 0
2, 58260, Note_on_c, 0, 78, 88
2, 58319, Note_off_c, 0, 78, 0
2, 58320, Note_on_c, 0, 81, 88
2, 58739, Note_off_c, 0, 81, 0
2, 58740, Note_on_c, 0, 80, 88
2, 58799, Note_off_c, 0, 80, 0
2, 58800, Note_on_c, 0, 83, 88
2, 58919, Note_off_c, 0, 83, 0
2, 58920, Note_on_c, 0, 81, 88
2, 59039, Note_off_c, 0, 81, 0
2, 59040, Note_on_c, 0, 80, 88
2, 59339, Note_off_c, 0, 80, 0
2, 59340, Note_on_c, 0, 77, 88
2, 59399, Note_off_c, 0, 77, 0
2, 59400, Note_on_c, 0, 78, 88
2, 59579, Note_off_c, 0, 78, 0
2, 59580, Note_on_c, 0, 78, 88
2, 59639, Note_off_c, 0, 78, 0
2, 59640, Note_on_c, 0, 80, 88
2, 59699, Note_off_c, 0, 80, 0
2, 59700, Note_on_c, 0, 81, 88
2, 59759, Note_off_c, 0, 81, 0
2, 59760, Note_on_c, 0, 83, 88
2, 59819, Note_off_c, 0, 83, 0
2, 59820, Note_on_c, 0, 80, 88
2, 59879, Note_off_c, 0, 80, 0
2, 59880, Note_on_c, 0, 78, 88
2, 59939, Note_off_c, 0, 78, 0
2, 59940, Note_on_c, 0, 77, 88
2, 59999, Note_off_c, 0, 77, 0
2, 60000, Note_on_c, 0, 81, 88
2, 61019, Note_off_c, 0, 81, 0
2, 61020, Note_on_c, 0, 78, 88
2, 61079, Note_off_c, 0, 78, 0
2, 61080, Note_on_c, 0, 79, 88
2, 61139, Note_off_c, 0, 79, 0
2, 61140, Note_on_c, 0, 81, 88
2, 61199, Note_off_c, 0, 81, 0
2, 61200, Note_on_c, 0, 83, 88
2, 61259, Note_off_c, 0, 83, 0
2, 61260, Note_on_c, 0, 84, 88
2, 61319, Note_off_c, 0, 84, 0
2, 61320, Note_on_c, 0, 78, 88
2, 61379, Note_off_c, 0, 78, 0
2, 61380, Note_on_c, 0, 76, 88
2, 61439, Note_off_c, 0, 76, 0
2, 61440, Note_on_c, 0, 78, 88
2, 61739, Note_off_c, 0, 78, 0
2, 61740, Note_on_c, 0, 78, 88
2, 61799, Note_off_c, 0, 78, 0
2, 61800, Note_on_c, 0, 74, 88
2, 61859, Note_off_c, 0, 74, 0
2, 61860, Note_on_c, 0, 71, 88
2, 61919, Note_off_c, 0, 71, 0
2, 61920, Note_on_c, 0, 79, 88
2, 61979, Note_off_c, 0, 79, 0
2, 61980, Note_on_c, 0, 81, 88
2, 62039, Note_off_c, 0, 81, 0
2, 62040, Note_on_c, 0, 83, 88
2, 62279, Note_off_c, 0, 83, 0
2, 62280, Note_on_c, 0, 81, 88
2, 62339, Note_off_c, 0, 81, 0
2, 62340, Note_on_c, 0, 79, 88
2, 62399, Note_off_c, 0, 79, 0
2, 62400, Note_on_c, 0, 78, 88
2, 62459, Note_off_c, 0, 78, 0
2, 62460, Note_on_c, 0, 79, 88
2, 62519, Note_off_c, 0, 79, 0
2, 62520, Note_on_c, 0, 81, 88
2, 62759, Note_off_c, 0, 81, 0
2, 62760, Note_on_c, 0, 79, 88
2, 62819, Note_off_c, 0, 79, 0
2, 62820, Note_on_c, 0, 78, 88
2, 62879, Note_off_c, 0, 78, 0
2, 62880, Note_on_c, 0, 76, 88
2, 62939, Note_off_c, 0, 76, 0
2, 62940, Note_on_c, 0, 78, 88
2, 62999, Note_off_c, 0, 78, 0
2, 63000, Note_on_c, 0, 79, 88
2, 63239, Note_off_c, 0, 79, 0
2, 63240, Note_on_c, 0, 78, 88
2, 63299, Note_off_c, 0, 78, 0
2, 63300, Note_on_c, 0, 76, 88
2, 63359, Note_off_c, 0, 76, 0
2, 63360, Note_on_c, 0, 74, 88
2, 63659, Note_off_c, 0, 74, 0
2, 63660, Note_on_c, 0, 76, 88
2, 63719, Note_off_c, 0, 76, 0
2, 63720, Note_on_c, 0, 78, 88
2, 63959, Note_off_c, 0, 78, 0
2, 63960, Note_on_c, 0, 76, 88
2, 64019, Note_off_c, 0, 76, 0
2, 64020, Note_on_c, 0, 74, 88
2, 64079, Note_off_c, 0, 74, 0
2, 64080, Note_on_c, 0, 73, 88
2, 64139, Note_off_c, 0, 73, 0
2, 64140, Note_on_c, 0, 74, 88
2, 64199, Note_off_c, 0, 74, 0
2, 64200, Note_on_c, 0, 76, 88
2, 64439, Note_off_c, 0, 76, 0
2, 64440, Note_on_c, 0, 74, 88
2, 64499, Note_off_c, 0, 74, 0
2, 64500, Note_on_c, 0, 73, 88
2, 64559, Note_off_c, 0, 73, 0
2, 64560, Note_on_c, 0, 71, 88
2, 64619, Note_off_c, 0, 71, 0
2, 64620, Note_on_c, 0, 73, 88
2, 64679, Note_off_c, 0, 73, 0
2, 64680, Note_on_c, 0, 74, 88
2, 64919, Note_off_c, 0, 74, 0
2, 64920, Note_on_c, 0, 73, 88
2, 64979, Note_off_c, 0, 73, 0
2, 64980, Note_on_c, 0, 71, 88
2, 65039, Note_off_c, 0, 71, 0
2, 65040, Note_on_c, 0, 70, 88
2, 65099, Note_off_c, 0, 70, 0
2, 65100, Note_on_c, 0, 71, 88
2, 65159, Note_off_c, 0, 71, 0
2, 65160, Note_on_c, 0, 73, 88
2, 65339, Note_off_c, 0, 73, 0
2, 65340, Note_on_c, 0, 66, 88
2, 65399, Note_off_c, 0, 66, 0
2, 65400, Note_on_c, 0, 68, 88
2, 65459, Note_off_c, 0, 68, 0
2, 65460, Note_on_c, 0, 70, 88
2, 65519, Note_off_c, 0, 70, 0
2, 65520, Note_on_c, 0, 71, 88
2, 65579, Note_off_c, 0, 71, 0
2, 65580, Note_on_c, 0, 73, 88
2, 65639, Note_off_c, 0, 73, 0
2, 65640, Note_on_c, 0, 74, 88
2, 65699, Note_off_c, 0, 74, 0
2, 65700, Note_on_c, 0, 78, 88
2, 65759, Note_off_c, 0, 78, 0
2, 65760, Note_on_c, 0, 76, 88
2, 65819, Note_off_c, 0, 76, 0
2, 65820, Note_on_c, 0, 73, 88
2, 65879, Note_off_c, 0, 73, 0
2, 65880, Note_on_c, 0, 74, 88
2, 65939, Note_off_c, 0, 74, 0
2, 65940, Note_on_c, 0, 78, 88
2, 65999, Note_off_c, 0, 78, 0
2, 66000, Note_on_c, 0, 79, 88
2, 66059, Note_off_c, 0, 79, 0
2, 66060, Note_on_c, 0, 76, 88
2, 66119, Note_off_c, 0, 76, 0
2, 66120, Note_on_c, 0, 78, 88
2, 66179, Note_off_c, 0, 78, 0
2, 66180, Note_on_c, 0, 82, 88
2, 66239, Note_off_c, 0, 82, 0
2, 66240, Note_on_c, 0, 83, 88
2, 66299, Note_off_c, 0, 83, 0
2, 66300, Note_on_c, 0, 81, 88
2, 66359, Note_off_c, 0, 81, 0
2, 66360, Note_on_c, 0, 79, 88
2, 66419, Note_off_c, 0, 79, 0
2, 66420, Note_on_c, 0, 78, 88
2, 66479, Note_off_c, 0, 78, 0
2, 66480, Note_on_c, 0, 76, 88
2, 66539, Note_off_c, 0, 76, 0
2, 66540, Note_on_c, 0, 74, 88
2, 66599, Note_off_c, 0, 74, 0
2, 66600, Note_on_c, 0, 72, 88
2, 66659, Note_off_c, 0, 72, 0
2, 66660, Note_on_c, 0, 71, 88
2, 66719, Note_off_c, 0, 71, 0
2, 66720, Note_on_c, 0, 69, 88
2, 66779, Note_off_c, 0, 69, 0
2, 66780, Note_on_c, 0, 66, 88
2, 66839, Note_off_c, 0, 66, 0
2, 66840, Note_on_c, 0, 67, 88
2, 66899, Note_off_c, 0, 67, 0
2, 66900, Note_on_c, 0, 71, 88
2, 66959, Note_off_c, 0, 71, 0
2, 66960, Note_on_c, 0, 72, 88
2, 67019, Note_off_c, 0, 72, 0
2, 67020, Note_on_c, 0, 69, 88
2, 67079, Note_off_c, 0, 69, 0
2, 67080, Note_on_c, 0, 71, 88
2, 67139, Note_off_c, 0, 71, 0
2, 67140, Note_on_c, 0, 75, 88
2, 67199, Note_off_c, 0, 75, 0
2, 67200, Note_on_c, 0, 76, 88
2, 67439, Note_off_c, 0, 76, 0
2, 67440, Note_on_c, 0, 74, 88
2, 67679, Note_off_c, 0, 74, 0
2, 67680, Note_on_c, 0, 73, 88
2, 67919, Note_off_c, 0, 73, 0
2, 67920, Note_on_c, 0, 71, 88
2, 68219, Note_off_c, 0, 71, 0
2, 68220, Note_on_c, 0, 70, 88
2, 68279, Note_off_c, 0, 70, 0
2, 68280, Note_on_c, 0, 71, 88
2, 68339, Note_off_c, 0, 71, 0
2, 68340, Note_on_c, 0, 70, 88
2, 68399, Note_off_c, 0, 70, 0
2, 68400, Note_on_c, 0, 71, 88
2, 68699, Note_off_c, 0, 71, 0
2, 68700, Note_on_c, 0, 73, 88
2, 68759, Note_off_c, 0, 73, 0
2, 68760, Note_on_c, 0, 74, 88
2, 68819, Note_off_c, 0, 74, 0
2, 68820, Note_on_c, 0, 76, 88
2, 68879, Note_off_c, 0, 76, 0
2, 68880, Note_on_c, 0, 78, 88
2, 68939, Note_off_c, 0, 78, 0
2, 68940, Note_on_c, 0, 79, 88
2, 68999, Note_off_c, 0, 79, 0
2, 69000, Note_on_c, 0, 71, 88
2, 69059, Note_off_c, 0, 71, 0
2, 69060, Note_on_c, 0, 70, 88
2, 69119, Note_off_c, 0, 70, 0
2, 69120, Note_on_c, 0, 71, 88
2, 69179, Note_off_c, 0, 71, 0
2, 69180, Note_on_c, 0, 74, 88
2, 69239, Note_off_c, 0, 74, 0
2, 69240, Note_on_c, 0, 76, 88
2, 69299, Note_off_c, 0, 76, 0
2, 69300, Note_on_c, 0, 78, 88
2, 69359, Note_off_c, 0, 78, 0
2, 69360, Note_on_c, 0, 79, 88
2, 69419, Note_off_c, 0, 79, 0
2, 69420, Note_on_c, 0, 81, 88
2, 69479, Note_off_c, 0, 81, 0
2, 69480, Note_on_c, 0, 72, 88
2, 69539, Note_off_c, 0, 72, 0
2, 69540, Note_on_c, 0, 71, 88
2, 69599, Note_off_c, 0, 71, 0
2, 69600, Note_on_c, 0, 72, 88
2, 69659, Note_off_c, 0, 72, 0
2, 69660, Note_on_c, 0, 76, 88
2, 69719, Note_off_c, 0, 76, 0
2, 69720, Note_on_c, 0, 78, 88
2, 69779, Note_off_c, 0, 78, 0
2, 69780, Note_on_c, 0, 79, 88
2, 69839, Note_off_c, 0, 79, 0
2, 69840, Note_on_c, 0, 82, 88
2, 69899, Note_off_c, 0, 82, 0
2, 69900, Note_on_c, 0, 83, 88
2, 69959, Note_off_c, 0, 83, 0
2, 69960, Note_on_c, 0, 74, 88
2, 70019, Note_off_c, 0, 74, 0
2, 70020, Note_on_c, 0, 73, 88
2, 70079, Note_off_c, 0, 73, 0
2, 70080, Note_on_c, 0, 74, 88
2, 70559, Note_off_c, 0, 74, 0
2, 70560, Note_on_c, 0, 73, 88
2, 71279, Note_off_c, 0, 73, 0
2, 71280, Note_on_c, 0, 72, 88
2, 71339, Note_off_c, 0, 72, 0
2, 71340, Note_on_c, 0, 70, 88
2, 71399, Note_off_c, 0, 70, 0
2, 71400, Note_on_c, 0, 71, 88
2, 71759, Note_off_c, 0, 71, 0
2, 71760, Note_on_c, 0, 70, 88
2, 71999, Note_off_c, 0, 70, 0
2, 72000, Note_on_c, 0, 71, 88
2, 72040, Note_off_c, 0, 71, 0
2, 72040, End_track
0, 0, End_of_file