0, 0, Header, 1, 2, 240
1, 0, Start_track
1, 0, Time_signature, 4, 2, 24, 8
1, 0, Tempo, 810810
1, 0, SMPTE_offset, 64, 0, 0, 0, 100
1, 0, End_track
2, 0, Start_track
2, 0, Title_t, "Track 1"
2, 0, Program_c, 0, 6
2, 2040, Note_on_c, 0, 72, 88
2, 2099, Note_off_c, 0, 72, 0
2, 2100, Note_on_c, 0, 71, 88
2, 2159, Note_off_c, 0, 71, 0
2, 2160, Note_on_c, 0, 72, 88
2, 2279, Note_off_c, 0, 72, 0
2, 2280, Note_on_c, 0, 67, 88
2, 2399, Note_off_c, 0, 67, 0
2, 2400, Note_on_c, 0, 76, 88
2, 2422, Note_off_c, 0, 76, 0
2, 2423, Note_on_c, 0, 74, 88
2, 2452, Note_off_c, 0, 74, 0
2, 2453, Note_on_c, 0, 76, 88
2, 2639, Note_off_c, 0, 76, 0
2, 2640, Note_on_c, 0, 74, 88
2, 2999, Note_off_c, 0, 74, 0
2, 3000, Note_on_c, 0, 72, 88
2, 3059, Note_off_c, 0, 72, 0
2, 3060, Note_on_c, 0, 71, 88
2, 3119, Note_off_c, 0, 71, 0
2, 3120, Note_on_c, 0, 72, 88
2, 3179, Note_off_c, 0, 72, 0
2, 3180, Note_on_c, 0, 74, 88
2, 3239, Note_off_c, 0, 74, 0
2, 3240, Note_on_c, 0, 71, 88
2, 3299, Note_off_c, 0, 71, 0
2, 3300, Note_on_c, 0, 72, 88
2, 3359, Note_off_c, 0, 72, 0
2, 3360, Note_on_c, 0, 69, 88
2, 3419, Note_off_c, 0, 69, 0
2, 3420, Note_on_c, 0, 72, 88
2, 3479, Note_off_c, 0, 72, 0
2, 3480, Note_on_c, 0, 71, 88
2, 3539, Note_off_c, 0, 71, 0
2, 3540, Note_on_c, 0, 72, 88
2, 3599, Note_off_c, 0, 72, 0
2, 3600, Note_on_c, 0, 74, 88
2, 3659, Note_off_c, 0, 74, 0
2, 3660, Note_on_c, 0, 76, 88
2, 3719, Note_off_c, 0, 76, 0
2, 3720, Note_on_c, 0, 72, 88
2, 3779, Note_off_c, 0, 72, 0
2, 3780, Note_on_c, 0, 74, 88
2, 3839, Note_off_c, 0, 74, 0
2, 3840, Note_on_c, 0, 71, 88
2, 3899, Note_off_c, 0, 71, 0
2, 3900, Note_on_c, 0, 69, 88
2, 3959, Note_off_c, 0, 69, 0
2, 3960, Note_on_c, 0, 71, 88
2, 4019, Note_off_c, 0, 71, 0
2, 4020, Note_on_c, 0, 72, 88
2, 4079, Note_off_c, 0, 72, 0
2, 4080, Note_on_c, 0, 71, 88
2, 4139, Note_off_c, 0, 71, 0
2, 4140, Note_on_c, 0, 72, 88
2, 4199, Note_off_c, 0, 72, 0
2, 4200, Note_on_c, 0, 69, 88
2, 4259, Note_off_c, 0, 69, 0
2, 4260, Note_on_c, 0, 71, 88
2, 4319, Note_off_c, 0, 71, 0
2, 4320, Note_on_c, 0, 72, 88
2, 4499, Note_off_c, 0, 72, 0
2, 4500, Note_on_c, 0, 69, 88
2, 4559, Note_off_c, 0, 69, 0
2, 4560, Note_on_c, 0, 70, 88
2, 4739, Note_off_c, 0, 70, 0
2, 4740, Note_on_c, 0, 67, 88
2, 4799, Note_off_c, 0, 67, 0
2, 4800, Note_on_c, 0, 69, 88
2, 5039, Note_off_c, 0, 69, 0
2, 5040, Note_on_c, 0, 71, 88
2, 5159, Note_off_c, 0, 71, 0
2, 5160, Note_on_c, 0, 72, 88
2, 5399, Note_off_c, 0, 72, 0
2, 5400, Note_on_c, 0, 72, 88
2, 5639, Note_off_c, 0, 72, 0
2, 5640, Note_on_c, 0, 71, 88
2, 5759, Note_off_c, 0, 71, 0
2, 5760, Note_on_c, 0, 72, 88
2, 5879, Note_off_c, 0, 72, 0
2, 5880, Note_on_c, 0, 79, 88
2, 5939, Note_off_c, 0, 79, 0
2, 5940, Note_on_c, 0, 77, 88
2, 5999, Note_off_c, 0, 77, 0
2, 6000, Note_on_c, 0, 79, 88
2, 6119, Note_off_c, 0, 79, 0
2, 6120, Note_on_c, 0, 72, 88
2, 6239, Note_off_c, 0, 72, 0
2, 6240, Note_on_c, 0, 81, 88
2, 6479, Note_off_c, 0, 81, 0
2, 6480, Note_on_c, 0, 79, 88
2, 6719, Note_off_c, 0, 79, 0
2, 6720, Note_on_c, 0, 78, 88
2, 6839, Note_off_c, 0, 78, 0
2, 6840, Note_on_c, 0, 81, 88
2, 6899, Note_off_c, 0, 81, 0
2, 6900, Note_on_c, 0, 79, 88
2, 6959, Note_off_c, 0, 79, 0
2, 6960, Note_on_c, 0, 81, 88
2, 7079, Note_off_c, 0, 81, 0
2, 7080, Note_on_c, 0, 74, 88
2, 7199, Note_off_c, 0, 74, 0
2, 7200, Note_on_c, 0, 83, 88
2, 7439, Note_off_c, 0, 83, 0
2, 7440, Note_on_c, 0, 81, 88
2, 7679, Note_off_c, 0, 81, 0
2, 7680, Note_on_c, 0, 80, 88
2, 7799, Note_off_c, 0, 80, 0
2, 7800, Note_on_c, 0, 83, 88
2, 7859, Note_off_c, 0, 83, 0
2, 7860, Note_on_c, 0, 81, 88
2, 7919, Note_off_c, 0, 81, 0
2, 7920, Note_on_c, 0, 83, 88
2, 8039, Note_off_c, 0, 83, 0
2, 8040, Note_on_c, 0, 76, 88
2, 8159, Note_off_c, 0, 76, 0
2, 8160, Note_on_c, 0, 84, 88
2, 8759, Note_off_c, 0, 84, 0
2, 8760, Note_on_c, 0, 84, 88
2, 8879, Note_off_c, 0, 84, 0
2, 8880, Note_on_c, 0, 83, 88
2, 8999, Note_off_c, 0, 83, 0
2, 9000, Note_on_c, 0, 79, 88
2, 9119, Note_off_c, 0, 79, 0
2, 9120, Note_on_c, 0, 76, 88
2, 9359, Note_off_c, 0, 76, 0
2, 9360, Note_on_c, 0, 78, 88
2, 9479, Note_off_c, 0, 78, 0
2, 9480, Note_on_c, 0, 79, 88
2, 9719, Note_off_c, 0, 79, 0
2, 9720, Note_on_c, 0, 78, 88
2, 9779, Note_off_c, 0, 78, 0
2, 9780, Note_on_c, 0, 76, 88
2, 9839, Note_off_c, 0, 76, 0
2, 9840, Note_on_c, 0, 79, 88
2, 9854, Note_off_c, 0, 79, 0
2, 9855, Note_on_c, 0, 78, 88
2, 9877, Note_off_c, 0, 78, 0
2, 9878, Note_on_c, 0, 79, 88
2, 9899, Note_off_c, 0, 79, 0
2, 9900, Note_on_c, 0, 78, 88
2, 9914, Note_off_c, 0, 78, 0
2, 9915, Note_on_c, 0, 79, 88
2, 9929, Note_off_c, 0, 79, 0
2, 9930, Note_on_c, 0, 78, 88
2, 10019, Note_off_c, 0, 78, 0
2, 10020, Note_on_c, 0, 79, 88
2, 10079, Note_off_c, 0, 79, 0
2, 10080, Note_on_c, 0, 79, 88
2, 10199, Note_off_c, 0, 79, 0
2, 10200, Note_on_c, 0, 76, 88
2, 10319, Note_off_c, 0, 76, 0
2, 10320, Note_on_c, 0, 73, 88
2, 10439, Note_off_c, 0, 73, 0
2, 10440, Note_on_c, 0, 74, 88
2, 10619, Note_off_c, 0, 74, 0
2, 10620, Note_on_c, 0, 79, 88
2, 10679, Note_off_c, 0, 79, 0
2, 10680, Note_on_c, 0, 82, 88
2, 10739, Note_off_c, 0, 82, 0
2, 10740, Note_on_c, 0, 81, 88
2, 10799, Note_off_c, 0, 81, 0
2, 10800, Note_on_c, 0, 79, 88
2, 10859, Note_off_c, 0, 79, 0
2, 10860, Note_on_c, 0, 77, 88
2, 10919, Note_off_c, 0, 77, 0
2, 10920, Note_on_c, 0, 76, 88
2, 10979, Note_off_c, 0, 76, 0
2, 10980, Note_on_c, 0, 74, 88
2, 11039, Note_off_c, 0, 74, 0
2, 11040, Note_on_c, 0, 73, 88
2, 11159, Note_off_c, 0, 73, 0
2, 11160, Note_on_c, 0, 74, 88
2, 11399, Note_off_c, 0, 74, 0
2, 11400, Note_on_c, 0, 73, 88
2, 11639, Note_off_c, 0, 73, 0
2, 11640, Note_on_c, 0, 74, 88
2, 11699, Note_off_c, 0, 74, 0
2, 11700, Note_on_c, 0, 73, 88
2, 11759, Note_off_c, 0, 73, 0
2, 11760, Note_on_c, 0, 74, 88
2, 11879, Note_off_c, 0, 74, 0
2, 11880, Note_on_c, 0, 69, 88
2, 11999, Note_off_c, 0, 69, 0
2, 12000, Note_on_c, 0, 77, 88
2, 12239, Note_off_c, 0, 77, 0
2, 12240, Note_on_c, 0, 76, 88
2, 12599, Note_off_c, 0, 76, 0
2, 12600, Note_on_c, 0, 74, 88
2, 12659, Note_off_c, 0, 74, 0
2, 12660, Note_on_c, 0, 72, 88
2, 12719, Note_off_c, 0, 72, 0
2, 12720, Note_on_c, 0, 74, 88
2, 12779, Note_off_c, 0, 74, 0
2, 12780, Note_on_c, 0, 76, 88
2, 12839, Note_off_c, 0, 76, 0
2, 12840, Note_on_c, 0, 72, 88
2, 12899, Note_off_c, 0, 72, 0
2, 12900, Note_on_c, 0, 74, 88
2, 12959, Note_off_c, 0, 74, 0
2, 12960, Note_on_c, 0, 71, 88
2, 13019, Note_off_c, 0, 71, 0
2, 13020, Note_on_c, 0, 74, 88
2, 13079, Note_off_c, 0, 74, 0
2, 13080, Note_on_c, 0, 72, 88
2, 13139, Note_off_c, 0, 72, 0
2, 13140, Note_on_c, 0, 74, 88
2, 13199, Note_off_c, 0, 74, 0
2, 13200, Note_on_c, 0, 76, 88
2, 13259, Note_off_c, 0, 76, 0
2, 13260, Note_on_c, 0, 77, 88
2, 13319, Note_off_c, 0, 77, 0
2, 13320, Note_on_c, 0, 74, 88
2, 13379, Note_off_c, 0, 74, 0
2, 13380, Note_on_c, 0, 76, 88
2, 13439, Note_off_c, 0, 76, 0
2, 13440, Note_on_c, 0, 72, 88
2, 13559, Note_off_c, 0, 72, 0
2, 13560, Note_on_c, 0, 76, 88
2, 13619, Note_off_c, 0, 76, 0
2, 13620, Note_on_c, 0, 74, 88
2, 13679, Note_off_c, 0, 74, 0
2, 13680, Note_on_c, 0, 76, 88
2, 13799, Note_off_c, 0, 76, 0
2, 13800, Note_on_c, 0, 72, 88
2, 13919, Note_off_c, 0, 72, 0
2, 13920, Note_on_c, 0, 81, 88
2, 14039, Note_off_c, 0, 81, 0
2, 14040, Note_on_c, 0, 72, 88
2, 14159, Note_off_c, 0, 72, 0
2, 14160, Note_on_c, 0, 69, 88
2, 14279, Note_off_c, 0, 69, 0
2, 14280, Note_on_c, 0, 74, 88
2, 14399, Note_off_c, 0, 74, 0
2, 14400, Note_on_c, 0, 71, 88
2, 14519, Note_off_c, 0, 71, 0
2, 14520, Note_on_c, 0, 74, 88
2, 14579, Note_off_c, 0, 74, 0
2, 14580, Note_on_c, 0, 72, 88
2, 14639, Note_off_c, 0, 72, 0
2, 14640, Note_on_c, 0, 74, 88
2, 14759, Note_off_c, 0, 74, 0
2, 14760, Note_on_c, 0, 71, 88
2, 14879, Note_off_c, 0, 71, 0
2, 14880, Note_on_c, 0, 79, 88
2, 14999, Note_off_c, 0, 79, 0
2, 15000, Note_on_c, 0, 70, 88
2, 15119, Note_off_c, 0, 70, 0
2, 15120, Note_on_c, 0, 67, 88
2, 15239, Note_off_c, 0, 67, 0
2, 15240, Note_on_c, 0, 72, 88
2, 15359, Note_off_c, 0, 72, 0
2, 15360, Note_on_c, 0, 69, 88
2, 15479, Note_off_c, 0, 69, 0
2, 15480, Note_on_c, 0, 74, 88
2, 15539, Note_off_c, 0, 74, 0
2, 15540, Note_on_c, 0, 72, 88
2, 15599, Note_off_c, 0, 72, 0
2, 15600, Note_on_c, 0, 74, 88
2, 15659, Note_off_c, 0, 74, 0
2, 15660, Note_on_c, 0, 76, 88
2, 15719, Note_off_c, 0, 76, 0
2, 15720, Note_on_c, 0, 72, 88
2, 15779, Note_off_c, 0, 72, 0
2, 15780, Note_on_c, 0, 74, 88
2, 15839, Note_off_c, 0, 74, 0
2, 15840, Note_on_c, 0, 71, 88
2, 15899, Note_off_c, 0, 71, 0
2, 15900, Note_on_c, 0, 69, 88
2, 15959, Note_off_c, 0, 69, 0
2, 15960, Note_on_c, 0, 71, 88
2, 16019, Note_off_c, 0, 71, 0
2, 16020, Note_on_c, 0, 72, 88
2, 16079, Note_off_c, 0, 72, 0
2, 16080, Note_on_c, 0, 71, 88
2, 16139, Note_off_c, 0, 71, 0
2, 16140, Note_on_c, 0, 72, 88
2, 16199, Note_off_c, 0, 72, 0
2, 16200, Note_on_c, 0, 69, 88
2, 16259, Note_off_c, 0, 69, 0
2, 16260, Note_on_c, 0, 71, 88
2, 16319, Note_off_c, 0, 71, 0
2, 16320, Note_on_c, 0, 67, 88
2, 16439, Note_off_c, 0, 67, 0
2, 16440, Note_on_c, 0, 72, 88
2, 16499, Note_off_c, 0, 72, 0
2, 16500, Note_on_c, 0, 71, 88
2, 16559, Note_off_c, 0, 71, 0
2, 16560, Note_on_c, 0, 72, 88
2, 16619, Note_off_c, 0, 72, 0
2, 16620, Note_on_c, 0, 74, 88
2, 16679, Note_off_c, 0, 74, 0
2, 16680, Note_on_c, 0, 70, 88
2, 16739, Note_off_c, 0, 70, 0
2, 16740, Note_on_c, 0, 72, 88
2, 16799, Note_off_c, 0, 72, 0
2, 16800, Note_on_c, 0, 69, 88
2, 16859, Note_off_c, 0, 69, 0
2, 16860, Note_on_c, 0, 67, 88
2, 16919, Note_off_c, 0, 67, 0
2, 16920, Note_on_c, 0, 69, 88
2, 16979, Note_off_c, 0, 69, 0
2, 16980, Note_on_c, 0, 70, 88
2, 17039, Note_off_c, 0, 70, 0
2, 17040, Note_on_c, 0, 69, 88
2, 17099, Note_off_c, 0, 69, 0
2, 17100, Note_on_c, 0, 70, 88
2, 17159, Note_off_c, 0, 70, 0
2, 17160, Note_on_c, 0, 67, 88
2, 17219, Note_off_c, 0, 67, 0
2, 17220, Note_on_c, 0, 69, 88
2, 17279, Note_off_c, 0, 69, 0
2, 17280, Note_on_c, 0, 67, 88
2, 17309, Note_off_c, 0, 67, 0
2, 17310, Note_on_c, 0, 65, 88
2, 17339, Note_off_c, 0, 65, 0
2, 17340, Note_on_c, 0, 67, 88
2, 17369, Note_off_c, 0, 67, 0
2, 17370, Note_on_c, 0, 65, 88
2, 17399, Note_off_c, 0, 65, 0
2, 17400, Note_on_c, 0, 67, 88
2, 17429, Note_off_c, 0, 67, 0
2, 17430, Note_on_c, 0, 65, 88
2, 17459, Note_off_c, 0, 65, 0
2, 17460, Note_on_c, 0, 67, 88
2, 17489, Note_off_c, 0, 67, 0
2, 17490, Note_on_c, 0, 65, 88
2, 17519, Note_off_c, 0, 65, 0
2, 17520, Note_on_c, 0, 67, 88
2, 17549, Note_off_c, 0, 67, 0
2, 17550, Note_on_c, 0, 65, 88
2, 17579, Note_off_c, 0, 65, 0
2, 17580, Note_on_c, 0, 67, 88
2, 17602, Note_off_c, 0, 67, 0
2, 17603, Note_on_c, 0, 65, 88
2, 17624, Note_off_c, 0, 65, 0
2, 17625, Note_on_c, 0, 67, 88
2, 17647, Note_off_c, 0, 67, 0
2, 17648, Note_on_c, 0, 65, 88
2, 17669, Note_off_c, 0, 65, 0
2, 17670, Note_on_c, 0, 67, 88
2, 17692, Note_off_c, 0, 67, 0
2, 17693, Note_on_c, 0, 65, 88
2, 17714, Note_off_c, 0, 65, 0
2, 17715, Note_on_c, 0, 67, 88
2, 17737, Note_off_c, 0, 67, 0
2, 17738, Note_on_c, 0, 65, 88
2, 17759, Note_off_c, 0, 65, 0
2, 17760, Note_on_c, 0, 65, 88
2, 17879, Note_off_c, 0, 65, 0
2, 17880, Note_on_c, 0, 74, 88
2, 17939, Note_off_c, 0, 74, 0
2, 17940, Note_on_c, 0, 72, 88
2, 17999, Note_off_c, 0, 72, 0
2, 18000, Note_on_c, 0, 74, 88
2, 18119, Note_off_c, 0, 74, 0
2, 18120, Note_on_c, 0, 65, 88
2, 18239, Note_off_c, 0, 65, 0
2, 18240, Note_on_c, 0, 64, 88
2, 18299, Note_off_c, 0, 64, 0
2, 18300, Note_on_c, 0, 62, 88
2, 18359, Note_off_c, 0, 62, 0
2, 18360, Note_on_c, 0, 64, 88
2, 18419, Note_off_c, 0, 64, 0
2, 18420, Note_on_c, 0, 65, 88
2, 18479, Note_off_c, 0, 65, 0
2, 18480, Note_on_c, 0, 64, 88
2, 18539, Note_off_c, 0, 64, 0
2, 18540, Note_on_c, 0, 65, 88
2, 18599, Note_off_c, 0, 65, 0
2, 18600, Note_on_c, 0, 62, 88
2, 18659, Note_off_c, 0, 62, 0
2, 18660, Note_on_c, 0, 64, 88
2, 18719, Note_off_c, 0, 64, 0
2, 18720, Note_on_c, 0, 60, 88
2, 18899, Note_off_c, 0, 60, 0
2, 18900, Note_on_c, 0, 60, 88
2, 18959, Note_off_c, 0, 60, 0
2, 18960, Note_on_c, 0, 59, 88
2, 19139, Note_off_c, 0, 59, 0
2, 19140, Note_on_c, 0, 59, 88
2, 19199, Note_off_c, 0, 59, 0
2, 19200, Note_on_c, 0, 57, 88
2, 19559, Note_off_c, 0, 57, 0
2, 19560, Note_on_c, 0, 59, 88
2, 19679, Note_off_c, 0, 59, 0
2, 19680, Note_on_c, 0, 60, 88
2, 20039, Note_off_c, 0, 60, 0
2, 20040, Note_on_c, 0, 57, 88
2, 20159, Note_off_c, 0, 57, 0
2, 20160, Note_on_c, 0, 62, 88
2, 20519, Note_off_c, 0, 62, 0
2, 20520, Note_on_c, 0, 59, 88
2, 20639, Note_off_c, 0, 59, 0
2, 20640, Note_on_c, 0, 64, 88
2, 20999, Note_off_c, 0, 64, 0
2, 21000, Note_on_c, 0, 60, 88
2, 21119, Note_off_c, 0, 60, 0
2, 21120, Note_on_c, 0, 65, 88
2, 21479, Note_off_c, 0, 65, 0
2, 21480, Note_on_c, 0, 62, 88
2, 21599, Note_off_c, 0, 62, 0
2, 21600, Note_on_c, 0, 67, 88
2, 21839, Note_off_c, 0, 67, 0
2, 21840, Note_on_c, 0, 69, 88
2, 21959, Note_off_c, 0, 69, 0
2, 21960, Note_on_c, 0, 71, 88
2, 22079, Note_off_c, 0, 71, 0
2, 22080, Note_on_c, 0, 72, 88
2, 23759, Note_off_c, 0, 72, 0
2, 23760, Note_on_c, 0, 71, 88
2, 24119, Note_off_c, 0, 71, 0
2, 24120, Note_on_c, 0, 72, 88
2, 24179, Note_off_c, 0, 72, 0
2, 24180, Note_on_c, 0, 71, 88
2, 24239, Note_off_c, 0, 71, 0
2, 24240, Note_on_c, 0, 72, 88
2, 24359, Note_off_c, 0, 72, 0
2, 24360, Note_on_c, 0, 67, 88
2, 24479, Note_off_c, 0, 67, 0
2, 24480, Note_on_c, 0, 76, 88
2, 24719, Note_off_c, 0, 76, 0
2, 24720, Note_on_c, 0, 74, 88
2, 25079, Note_off_c, 0, 74, 0
2, 25080, Note_on_c, 0, 72, 88
2, 25139, Note_off_c, 0, 72, 0
2, 25140, Note_on_c, 0, 71, 88
2, 25199, Note_off_c, 0, 71, 0
2, 25200, Note_on_c, 0, 72, 88
2, 25259, Note_off_c, 0, 72, 0
2, 25260, Note_on_c, 0, 74, 88
2, 25319, Note_off_c, 0, 74, 0
2, 25320, Note_on_c, 0, 71, 88
2, 25379, Note_off_c, 0, 71, 0
2, 25380, Note_on_c, 0, 72, 88
2, 25439, Note_off_c, 0, 72, 0
2, 25440, Note_on_c, 0, 69, 88
2, 25499, Note_off_c, 0, 69, 0
2, 25500, Note_on_c, 0, 72, 88
2, 25559, Note_off_c, 0, 72, 0
2, 25560, Note_on_c, 0, 71, 88
2, 25619, Note_off_c, 0, 71, 0
2, 25620, Note_on_c, 0, 72, 88
2, 25679, Note_off_c, 0, 72, 0
2, 25680, Note_on_c, 0, 74, 88
2, 25739, Note_off_c, 0, 74, 0
2, 25740, Note_on_c, 0, 76, 88
2, 25799, Note_off_c, 0, 76, 0
2, 25800, Note_on_c, 0, 72, 88
2, 25859, Note_off_c, 0, 72, 0
2, 25860, Note_on_c, 0, 74, 88
2, 25919, Note_off_c, 0, 74, 0
2, 25920, Note_on_c, 0, 71, 88
2, 26039, Note_off_c, 0, 71, 0
2, 26040, Note_on_c, 0, 74, 88
2, 26099, Note_off_c, 0, 74, 0
2, 26100, Note_on_c, 0, 72, 88
2, 26159, Note_off_c, 0, 72, 0
2, 26160, Note_on_c, 0, 74, 88
2, 26279, Note_off_c, 0, 74, 0
2, 26280, Note_on_c, 0, 67, 88
2, 26399, Note_off_c, 0, 67, 0
2, 26400, Note_on_c, 0, 76, 88
2, 26639, Note_off_c, 0, 76, 0
2, 26640, Note_on_c, 0, 74, 88
2, 26879, Note_off_c, 0, 74, 0
2, 26880, Note_on_c, 0, 72, 88
2, 26999, Note_off_c, 0, 72, 0
2, 27000, Note_on_c, 0, 76, 88
2, 27059, Note_off_c, 0, 76, 0
2, 27060, Note_on_c, 0, 74, 88
2, 27119, Note_off_c, 0, 74, 0
2, 27120, Note_on_c, 0, 76, 88
2, 27239, Note_off_c, 0, 76, 0
2, 27240, Note_on_c, 0, 69, 88
2, 27359, Note_off_c, 0, 69, 0
2, 27360, Note_on_c, 0, 77, 88
2, 27599, Note_off_c, 0, 77, 0
2, 27600, Note_on_c, 0, 76, 88
2, 27839, Note_off_c, 0, 76, 0
2, 27840, Note_on_c, 0, 74, 88
2, 27959, Note_off_c, 0, 74, 0
2, 27960, Note_on_c, 0, 77, 88
2, 28019, Note_off_c, 0, 77, 0
2, 28020, Note_on_c, 0, 76, 88
2, 28079, Note_off_c, 0, 76, 0
2, 28080, Note_on_c, 0, 77, 88
2, 28199, Note_off_c, 0, 77, 0
2, 28200, Note_on_c, 0, 71, 88
2, 28319, Note_off_c, 0, 71, 0
2, 28320, Note_on_c, 0, 79, 88
2, 28559, Note_off_c, 0, 79, 0
2, 28560, Note_on_c, 0, 77, 88
2, 28799, Note_off_c, 0, 77, 0
2, 28800, Note_on_c, 0, 76, 88
2, 28919, Note_off_c, 0, 76, 0
2, 28920, Note_on_c, 0, 77, 88
2, 29039, Note_off_c, 0, 77, 0
2, 29040, Note_on_c, 0, 79, 88
2, 29519, Note_off_c, 0, 79, 0
2, 29520, Note_on_c, 0, 77, 88
2, 29999, Note_off_c, 0, 77, 0
2, 30000, Note_on_c, 0, 76, 88
2, 30479, Note_off_c, 0, 76, 0
2, 30480, Note_on_c, 0, 74, 88
2, 30599, Note_off_c, 0, 74, 0
2, 30600, Note_on_c, 0, 72, 88
2, 30719, Note_off_c, 0, 72, 0
2, 30720, Note_on_c, 0, 71, 88
2, 30839, Note_off_c, 0, 71, 0
2, 30840, Note_on_c, 0, 67, 88
2, 30959, Note_off_c, 0, 67, 0
2, 30960, Note_on_c, 0, 72, 88
2, 31439, Note_off_c, 0, 72, 0
2, 31440, Note_on_c, 0, 71, 88
2, 31679, Note_off_c, 0, 71, 0
2, 31680, Note_on_c, 0, 72, 88
2, 31799, Note_off_c, 0, 72, 0
2, 31800, Note_on_c, 0, 74, 88
2, 31919, Note_off_c, 0, 74, 0
2, 31920, Note_on_c, 0, 67, 88
2, 31979, Note_off_c, 0, 67, 0
2, 31980, Note_on_c, 0, 72, 88
2, 32099, Note_off_c, 0, 72, 0
2, 32100, Note_on_c, 0, 71, 88
2, 32159, Note_off_c, 0, 71, 0
2, 32160, Note_on_c, 0, 72, 88
2, 32219, Note_off_c, 0, 72, 0
2, 32220, Note_on_c, 0, 65, 88
2, 32279, Note_off_c, 0, 65, 0
2, 32280, Note_on_c, 0, 64, 88
2, 32339, Note_off_c, 0, 64, 0
2, 32340, Note_on_c, 0, 62, 88
2, 32399, Note_off_c, 0, 62, 0
2, 32400, Note_on_c, 0, 64, 88
2, 32459, Note_off_c, 0, 64, 0
2, 32460, Note_on_c, 0, 65, 88
2, 32519, Note_off_c, 0, 65, 0
2, 32520, Note_on_c, 0, 62, 88
2, 32579, Note_off_c, 0, 62, 0
2, 32580, Note_on_c, 0, 64, 88
2, 32639, Note_off_c, 0, 64, 0
2, 32640, Note_on_c, 0, 65, 88
2, 32699, Note_off_c, 0, 65, 0
2, 32700, Note_on_c, 0, 64, 88
2, 32759, Note_off_c, 0, 64, 0
2, 32760, Note_on_c, 0, 65, 88
2, 32819, Note_off_c, 0, 65, 0
2, 32820, Note_on_c, 0, 67, 88
2, 32879, Note_off_c, 0, 67, 0
2, 32880, Note_on_c, 0, 65, 88
2, 32939, Note_off_c, 0, 65, 0
2, 32940, Note_on_c, 0, 67, 88
2, 32999, Note_off_c, 0, 67, 0
2, 33000, Note_on_c, 0, 64, 88
2, 33059, Note_off_c, 0, 64, 0
2, 33060, Note_on_c, 0, 65, 88
2, 33119, Note_off_c, 0, 65, 0
2, 33120, Note_on_c, 0, 62, 88
2, 33179, Note_off_c, 0, 62, 0
2, 33180, Note_on_c, 0, 60, 88
2, 33239, Note_off_c, 0, 60, 0
2, 33240, Note_on_c, 0, 62, 88
2, 33299, Note_off_c, 0, 62, 0
2, 33300, Note_on_c, 0, 64, 88
2, 33359, Note_off_c, 0, 64, 0
2, 33360, Note_on_c, 0, 62, 88
2, 33419, Note_off_c, 0, 62, 0
2, 33420, Note_on_c, 0, 64, 88
2, 33479, Note_off_c, 0, 64, 0
2, 33480, Note_on_c, 0, 60, 88
2, 33539, Note_off_c, 0, 60, 0
2, 33540, Note_on_c, 0, 62, 88
2, 33599, Note_off_c, 0, 62, 0
2, 33600, Note_on_c, 0, 64, 88
2, 33659, Note_off_c, 0, 64, 0
2, 33660, Note_on_c, 0, 62, 88
2, 33719, Note_off_c, 0, 62, 0
2, 33720, Note_on_c, 0, 64, 88
2, 33779, Note_off_c, 0, 64, 0
2, 33780, Note_on_c, 0, 65, 88
2, 33839, Note_off_c, 0, 65, 0
2, 33840, Note_on_c, 0, 64, 88
2, 33899, Note_off_c, 0, 64, 0
2, 33900, Note_on_c, 0, 65, 88
2, 33959, Note_off_c, 0, 65, 0
2, 33960, Note_on_c, 0, 62, 88
2, 34019, Note_off_c, 0, 62, 0
2, 34020, Note_on_c, 0, 64, 88
2, 34079, Note_off_c, 0, 64, 0
2, 34080, Note_on_c, 0, 60, 88
2, 35639, Note_off_c, 0, 60, 0
2, 35640, Note_on_c, 0, 59, 88
2, 35759, Note_off_c, 0, 59, 0
2, 35760, Note_on_c, 0, 60, 88
2, 35879, Note_off_c, 0, 60, 0
2, 35880, Note_on_c, 0, 62, 88
2, 35999, Note_off_c, 0, 62, 0
2, 36000, Note_on_c, 0, 64, 88
2, 36119, Note_off_c, 0, 64, 0
2, 36120, Note_on_c, 0, 67, 88
2, 36179, Note_off_c, 0, 67, 0
2, 36180, Note_on_c, 0, 65, 88
2, 36239, Note_off_c, 0, 65, 0
2, 36240, Note_on_c, 0, 67, 88
2, 36359, Note_off_c, 0, 67, 0
2, 36360, Note_on_c, 0, 60, 88
2, 36479, Note_off_c, 0, 60, 0
2, 36480, Note_on_c, 0, 69, 88
2, 36719, Note_off_c, 0, 69, 0
2, 36720, Note_on_c, 0, 67, 88
2, 37079, Note_off_c, 0, 67, 0
2, 37080, Note_on_c, 0, 65, 88
2, 37139, Note_off_c, 0, 65, 0
2, 37140, Note_on_c, 0, 64, 88
2, 37199, Note_off_c, 0, 64, 0
2, 37200, Note_on_c, 0, 65, 88
2, 37319, Note_off_c, 0, 65, 0
2, 37320, Note_on_c, 0, 62, 88
2, 37439, Note_off_c, 0, 62, 0
2, 37440, Note_on_c, 0, 67, 88
2, 37679, Note_off_c, 0, 67, 0
2, 37680, Note_on_c, 0, 65, 88
2, 37919, Note_off_c, 0, 65, 0
2, 37920, Note_on_c, 0, 64, 88
2, 38039, Note_off_c, 0, 64, 0
2, 38040, Note_on_c, 0, 68, 88
2, 38159, Note_off_c, 0, 68, 0
2, 38160, Note_on_c, 0, 67, 88
2, 38279, Note_off_c, 0, 67, 0
2, 38280, Note_on_c, 0, 71, 88
2, 38399, Note_off_c, 0, 71, 0
2, 38400, Note_on_c, 0, 72, 88
2, 38519, Note_off_c, 0, 72, 0
2, 38520, Note_on_c, 0, 65, 88
2, 38639, Note_off_c, 0, 65, 0
2, 38640, Note_on_c, 0, 64, 88
2, 38759, Note_off_c, 0, 64, 0
2, 38760, Note_on_c, 0, 72, 88
2, 38879, Note_off_c, 0, 72, 0
2, 38880, Note_on_c, 0, 62, 88
2, 38999, Note_off_c, 0, 62, 0
2, 39000, Note_on_c, 0, 72, 88
2, 39119, Note_off_c, 0, 72, 0
2, 39120, Note_on_c, 0, 65, 88
2, 39239, Note_off_c, 0, 65, 0
2, 39240, Note_on_c, 0, 71, 88
2, 39359, Note_off_c, 0, 71, 0
2, 39360, Note_on_c, 0, 72, 88
2, 39400, Note_off_c, 0, 72, 0
2, 39400, End_track
0, 0, End_of_file