0, 0, Header, 1, 2, 240
1, 0, Start_track
1, 0, Time_signature, 4, 2, 24, 8
1, 0, Tempo, 833333
1, 0, SMPTE_offset, 64, 0, 0, 0, 100
1, 0, End_track
2, 0, Start_track
2, 0, Title_t, "Track 1"
2, 0, Program_c, 0, 6
2, 1080, Note_on_c, 0, 68, 88
2, 1139, Note_off_c, 0, 68, 0
2, 1140, Note_on_c, 0, 67, 88
2, 1199, Note_off_c, 0, 67, 0
2, 1200, Note_on_c, 0, 68, 88
2, 1259, Note_off_c, 0, 68, 0
2, 1260, Note_on_c, 0, 70, 88
2, 1319, Note_off_c, 0, 70, 0
2, 1320, Note_on_c, 0, 68, 88
2, 1379, Note_off_c, 0, 68, 0
2, 1380, Note_on_c, 0, 70, 88
2, 1439, Note_off_c, 0, 70, 0
2, 1440, Note_on_c, 0, 63, 88
2, 1499, Note_off_c, 0, 63, 0
2, 1500, Note_on_c, 0, 65, 88
2, 1559, Note_off_c, 0, 65, 0
2, 1560, Note_on_c, 0, 67, 88
2, 1619, Note_off_c, 0, 67, 0
2, 1620, Note_on_c, 0, 68, 88
2, 1679, Note_off_c, 0, 68, 0
2, 1680, Note_on_c, 0, 70, 88
2, 1739, Note_off_c, 0, 70, 0
2, 1740, Note_on_c, 0, 71, 88
2, 1799, Note_off_c, 0, 71, 0
2, 1800, Note_on_c, 0, 73, 88
2, 1859, Note_off_c, 0, 73, 0
2, 1860, Note_on_c, 0, 71, 88
2, 1919, Note_off_c, 0, 71, 0
2, 1920, Note_on_c, 0, 73, 88
2, 1979, Note_off_c, 0, 73, 0
2, 1980, Note_on_c, 0, 70, 88
2, 2039, Note_off_c, 0, 70, 0
2, 2040, Note_on_c, 0, 75, 88
2, 2099, Note_off_c, 0, 75, 0
2, 2100, Note_on_c, 0, 73, 88
2, 2159, Note_off_c, 0, 73, 0
2, 2160, Note_on_c, 0, 71, 88
2, 2219, Note_off_c, 0, 71, 0
2, 2220, Note_on_c, 0, 70, 88
2, 2279, Note_off_c, 0, 70, 0
2, 2280, Note_on_c, 0, 71, 88
2, 2339, Note_off_c, 0, 71, 0
2, 2340, Note_on_c, 0, 68, 88
2, 2399, Note_off_c, 0, 68, 0
2, 2400, Note_on_c, 0, 73, 88
2, 2459, Note_off_c, 0, 73, 0
2, 2460, Note_on_c, 0, 71, 88
2, 2519, Note_off_c, 0, 71, 0
2, 2520, Note_on_c, 0, 69, 88
2, 2579, Note_off_c, 0, 69, 0
2, 2580, Note_on_c, 0, 68, 88
2, 2639, Note_off_c, 0, 68, 0
2, 2640, Note_on_c, 0, 69, 88
2, 2699, Note_off_c, 0, 69, 0
2, 2700, Note_on_c, 0, 66, 88
2, 2759, Note_off_c, 0, 66, 0
2, 2760, Note_on_c, 0, 71, 88
2, 2819, Note_off_c, 0, 71, 0
2, 2820, Note_on_c, 0, 69, 88
2, 2879, Note_off_c, 0, 69, 0
2, 2880, Note_on_c, 0, 68, 88
2, 3059, Note_off_c, 0, 68, 0
2, 3060, Note_on_c, 0, 66, 88
2, 3419, Note_off_c, 0, 66, 0
2, 3420, Note_on_c, 0, 64, 88
2, 3599, Note_off_c, 0, 64, 0
2, 3600, Note_on_c, 0, 63, 88
2, 3779, Note_off_c, 0, 63, 0
2, 3780, Note_on_c, 0, 75, 88
2, 3959, Note_off_c, 0, 75, 0
2, 3960, Note_on_c, 0, 68, 88
2, 4139, Note_off_c, 0, 68, 0
2, 4140, Note_on_c, 0, 69, 88
2, 4499, Note_off_c, 0, 69, 0
2, 4500, Note_on_c, 0, 68, 88
2, 4859, Note_off_c, 0, 68, 0
2, 4860, Note_on_c, 0, 66, 88
2, 5099, Note_off_c, 0, 66, 0
2, 5100, Note_on_c, 0, 68, 88
2, 5159, Note_off_c, 0, 68, 0
2, 5160, Note_on_c, 0, 69, 88
2, 5219, Note_off_c, 0, 69, 0
2, 5220, Note_on_c, 0, 68, 88
2, 5279, Note_off_c, 0, 68, 0
2, 5280, Note_on_c, 0, 69, 88
2, 5339, Note_off_c, 0, 69, 0
2, 5340, Note_on_c, 0, 66, 88
2, 5399, Note_off_c, 0, 66, 0
2, 5400, Note_on_c, 0, 64, 88
2, 5759, Note_off_c, 0, 64, 0
2, 5760, Note_on_c, 0, 63, 88
2, 6119, Note_off_c, 0, 63, 0
2, 6120, Note_on_c, 0, 68, 88
2, 6179, Note_off_c, 0, 68, 0
2, 6180, Note_on_c, 0, 66, 88
2, 6239, Note_off_c, 0, 66, 0
2, 6240, Note_on_c, 0, 68, 88
2, 6299, Note_off_c, 0, 68, 0
2, 6300, Note_on_c, 0, 64, 88
2, 6359, Note_off_c, 0, 64, 0
2, 6360, Note_on_c, 0, 69, 88
2, 6419, Note_off_c, 0, 69, 0
2, 6420, Note_on_c, 0, 68, 88
2, 6479, Note_off_c, 0, 68, 0
2, 6480, Note_on_c, 0, 66, 88
2, 6539, Note_off_c, 0, 66, 0
2, 6540, Note_on_c, 0, 64, 88
2, 6599, Note_off_c, 0, 64, 0
2, 6600, Note_on_c, 0, 66, 88
2, 6659, Note_off_c, 0, 66, 0
2, 6660, Note_on_c, 0, 63, 88
2, 6719, Note_off_c, 0, 63, 0
2, 6720, Note_on_c, 0, 68, 88
2, 6779, Note_off_c, 0, 68, 0
2, 6780, Note_on_c, 0, 66, 88
2, 6839, Note_off_c, 0, 66, 0
2, 6840, Note_on_c, 0, 65, 88
2, 6899, Note_off_c, 0, 65, 0
2, 6900, Note_on_c, 0, 63, 88
2, 6959, Note_off_c, 0, 63, 0
2, 6960, Note_on_c, 0, 61, 88
2, 7019, Note_off_c, 0, 61, 0
2, 7020, Note_on_c, 0, 66, 88
2, 7379, Note_off_c, 0, 66, 0
2, 7380, Note_on_c, 0, 64, 88
2, 7739, Note_off_c, 0, 64, 0
2, 7740, Note_on_c, 0, 63, 88
2, 7799, Note_off_c, 0, 63, 0
2, 7800, Note_on_c, 0, 61, 88
2, 7859, Note_off_c, 0, 61, 0
2, 7860, Note_on_c, 0, 59, 88
2, 7919, Note_off_c, 0, 59, 0
2, 7920, Note_on_c, 0, 61, 88
2, 8279, Note_off_c, 0, 61, 0
2, 8280, Note_on_c, 0, 59, 88
2, 8639, Note_off_c, 0, 59, 0
2, 8640, Note_on_c, 0, 57, 88
2, 8699, Note_off_c, 0, 57, 0
2, 8700, Note_on_c, 0, 56, 88
2, 8759, Note_off_c, 0, 56, 0
2, 8760, Note_on_c, 0, 57, 88
2, 8819, Note_off_c, 0, 57, 0
2, 8820, Note_on_c, 0, 54, 88
2, 8879, Note_off_c, 0, 54, 0
2, 8880, Note_on_c, 0, 59, 88
2, 8939, Note_off_c, 0, 59, 0
2, 8940, Note_on_c, 0, 57, 88
2, 8999, Note_off_c, 0, 57, 0
2, 9000, Note_on_c, 0, 56, 88
2, 9059, Note_off_c, 0, 56, 0
2, 9060, Note_on_c, 0, 59, 88
2, 9119, Note_off_c, 0, 59, 0
2, 9120, Note_on_c, 0, 64, 88
2, 9239, Note_off_c, 0, 64, 0
2, 9240, Note_on_c, 0, 63, 88
2, 9299, Note_off_c, 0, 63, 0
2, 9300, Note_on_c, 0, 61, 88
2, 9359, Note_off_c, 0, 61, 0
2, 9360, Note_on_c, 0, 59, 88
2, 9419, Note_off_c, 0, 59, 0
2, 9420, Note_on_c, 0, 64, 88
2, 9479, Note_off_c, 0, 64, 0
2, 9480, Note_on_c, 0, 68, 88
2, 9599, Note_off_c, 0, 68, 0
2, 9600, Note_on_c, 0, 66, 88
2, 9659, Note_off_c, 0, 66, 0
2, 9660, Note_on_c, 0, 64, 88
2, 9719, Note_off_c, 0, 64, 0
2, 9720, Note_on_c, 0, 63, 88
2, 9899, Note_off_c, 0, 63, 0
2, 9900, Note_on_c, 0, 65, 88
2, 10079, Note_off_c, 0, 65, 0
2, 10080, Note_on_c, 0, 66, 88
2, 10439, Note_off_c, 0, 66, 0
2, 10440, Note_on_c, 0, 70, 88
2, 10619, Note_off_c, 0, 70, 0
2, 10620, Note_on_c, 0, 72, 88
2, 10799, Note_off_c, 0, 72, 0
2, 10800, Note_on_c, 0, 73, 88
2, 10859, Note_off_c, 0, 73, 0
2, 10860, Note_on_c, 0, 72, 88
2, 10919, Note_off_c, 0, 72, 0
2, 10920, Note_on_c, 0, 73, 88
2, 10979, Note_off_c, 0, 73, 0
2, 10980, Note_on_c, 0, 75, 88
2, 11039, Note_off_c, 0, 75, 0
2, 11040, Note_on_c, 0, 73, 88
2, 11099, Note_off_c, 0, 73, 0
2, 11100, Note_on_c, 0, 75, 88
2, 11159, Note_off_c, 0, 75, 0
2, 11160, Note_on_c, 0, 68, 88
2, 11219, Note_off_c, 0, 68, 0
2, 11220, Note_on_c, 0, 70, 88
2, 11279, Note_off_c, 0, 70, 0
2, 11280, Note_on_c, 0, 72, 88
2, 11339, Note_off_c, 0, 72, 0
2, 11340, Note_on_c, 0, 73, 88
2, 11399, Note_off_c, 0, 73, 0
2, 11400, Note_on_c, 0, 75, 88
2, 11459, Note_off_c, 0, 75, 0
2, 11460, Note_on_c, 0, 76, 88
2, 11519, Note_off_c, 0, 76, 0
2, 11520, Note_on_c, 0, 78, 88
2, 11579, Note_off_c, 0, 78, 0
2, 11580, Note_on_c, 0, 76, 88
2, 11639, Note_off_c, 0, 76, 0
2, 11640, Note_on_c, 0, 78, 88
2, 11699, Note_off_c, 0, 78, 0
2, 11700, Note_on_c, 0, 75, 88
2, 11759, Note_off_c, 0, 75, 0
2, 11760, Note_on_c, 0, 80, 88
2, 11819, Note_off_c, 0, 80, 0
2, 11820, Note_on_c, 0, 78, 88
2, 11879, Note_off_c, 0, 78, 0
2, 11880, Note_on_c, 0, 76, 88
2, 11939, Note_off_c, 0, 76, 0
2, 11940, Note_on_c, 0, 75, 88
2, 11999, Note_off_c, 0, 75, 0
2, 12000, Note_on_c, 0, 76, 88
2, 12059, Note_off_c, 0, 76, 0
2, 12060, Note_on_c, 0, 73, 88
2, 12119, Note_off_c, 0, 73, 0
2, 12120, Note_on_c, 0, 71, 88
2, 12179, Note_off_c, 0, 71, 0
2, 12180, Note_on_c, 0, 73, 88
2, 12239, Note_off_c, 0, 73, 0
2, 12240, Note_on_c, 0, 82, 88
2, 12419, Note_off_c, 0, 82, 0
2, 12420, Note_on_c, 0, 75, 88
2, 12599, Note_off_c, 0, 75, 0
2, 12600, Note_on_c, 0, 77, 88
2, 12779, Note_off_c, 0, 77, 0
2, 12780, Note_on_c, 0, 79, 88
2, 12959, Note_off_c, 0, 79, 0
2, 12960, Note_on_c, 0, 80, 88
2, 13139, Note_off_c, 0, 80, 0
2, 13140, Note_on_c, 0, 76, 88
2, 13499, Note_off_c, 0, 76, 0
2, 13500, Note_on_c, 0, 75, 88
2, 13679, Note_off_c, 0, 75, 0
2, 13680, Note_on_c, 0, 76, 88
2, 14039, Note_off_c, 0, 76, 0
2, 14040, Note_on_c, 0, 75, 88
2, 14219, Note_off_c, 0, 75, 0
2, 14220, Note_on_c, 0, 74, 88
2, 14399, Note_off_c, 0, 74, 0
2, 14400, Note_on_c, 0, 73, 88
2, 14579, Note_off_c, 0, 73, 0
2, 14580, Note_on_c, 0, 75, 88
2, 14639, Note_off_c, 0, 75, 0
2, 14640, Note_on_c, 0, 76, 88
2, 14699, Note_off_c, 0, 76, 0
2, 14700, Note_on_c, 0, 78, 88
2, 14759, Note_off_c, 0, 78, 0
2, 14760, Note_on_c, 0, 71, 88
2, 14939, Note_off_c, 0, 71, 0
2, 14940, Note_on_c, 0, 73, 88
2, 14999, Note_off_c, 0, 73, 0
2, 15000, Note_on_c, 0, 75, 88
2, 15059, Note_off_c, 0, 75, 0
2, 15060, Note_on_c, 0, 76, 88
2, 15119, Note_off_c, 0, 76, 0
2, 15120, Note_on_c, 0, 69, 88
2, 15299, Note_off_c, 0, 69, 0
2, 15300, Note_on_c, 0, 71, 88
2, 15359, Note_off_c, 0, 71, 0
2, 15360, Note_on_c, 0, 73, 88
2, 15419, Note_off_c, 0, 73, 0
2, 15420, Note_on_c, 0, 75, 88
2, 15479, Note_off_c, 0, 75, 0
2, 15480, Note_on_c, 0, 68, 88
2, 15719, Note_off_c, 0, 68, 0
2, 15720, Note_on_c, 0, 71, 88
2, 15779, Note_off_c, 0, 71, 0
2, 15780, Note_on_c, 0, 70, 88
2, 15839, Note_off_c, 0, 70, 0
2, 15840, Note_on_c, 0, 71, 88
2, 16079, Note_off_c, 0, 71, 0
2, 16080, Note_on_c, 0, 75, 88
2, 16139, Note_off_c, 0, 75, 0
2, 16140, Note_on_c, 0, 73, 88
2, 16199, Note_off_c, 0, 73, 0
2, 16200, Note_on_c, 0, 75, 88
2, 16439, Note_off_c, 0, 75, 0
2, 16440, Note_on_c, 0, 78, 88
2, 16499, Note_off_c, 0, 78, 0
2, 16500, Note_on_c, 0, 76, 88
2, 16559, Note_off_c, 0, 76, 0
2, 16560, Note_on_c, 0, 78, 88
2, 16619, Note_off_c, 0, 78, 0
2, 16620, Note_on_c, 0, 80, 88
2, 16679, Note_off_c, 0, 80, 0
2, 16680, Note_on_c, 0, 78, 88
2, 16739, Note_off_c, 0, 78, 0
2, 16740, Note_on_c, 0, 76, 88
2, 16799, Note_off_c, 0, 76, 0
2, 16800, Note_on_c, 0, 78, 88
2, 16859, Note_off_c, 0, 78, 0
2, 16860, Note_on_c, 0, 76, 88
2, 16919, Note_off_c, 0, 76, 0
2, 16920, Note_on_c, 0, 83, 88
2, 16979, Note_off_c, 0, 83, 0
2, 16980, Note_on_c, 0, 82, 88
2, 17039, Note_off_c, 0, 82, 0
2, 17040, Note_on_c, 0, 80, 88
2, 17099, Note_off_c, 0, 80, 0
2, 17100, Note_on_c, 0, 78, 88
2, 17159, Note_off_c, 0, 78, 0
2, 17160, Note_on_c, 0, 76, 88
2, 17219, Note_off_c, 0, 76, 0
2, 17220, Note_on_c, 0, 75, 88
2, 17279, Note_off_c, 0, 75, 0
2, 17280, Note_on_c, 0, 73, 88
2, 17339, Note_off_c, 0, 73, 0
2, 17340, Note_on_c, 0, 75, 88
2, 17399, Note_off_c, 0, 75, 0
2, 17400, Note_on_c, 0, 73, 88
2, 17459, Note_off_c, 0, 73, 0
2, 17460, Note_on_c, 0, 76, 88
2, 17519, Note_off_c, 0, 76, 0
2, 17520, Note_on_c, 0, 71, 88
2, 17579, Note_off_c, 0, 71, 0
2, 17580, Note_on_c, 0, 73, 88
2, 17639, Note_off_c, 0, 73, 0
2, 17640, Note_on_c, 0, 75, 88
2, 17699, Note_off_c, 0, 75, 0
2, 17700, Note_on_c, 0, 76, 88
2, 17759, Note_off_c, 0, 76, 0
2, 17760, Note_on_c, 0, 75, 88
2, 17819, Note_off_c, 0, 75, 0
2, 17820, Note_on_c, 0, 78, 88
2, 17879, Note_off_c, 0, 78, 0
2, 17880, Note_on_c, 0, 73, 88
2, 17939, Note_off_c, 0, 73, 0
2, 17940, Note_on_c, 0, 75, 88
2, 17999, Note_off_c, 0, 75, 0
2, 18000, Note_on_c, 0, 76, 88
2, 18179, Note_off_c, 0, 76, 0
2, 18180, Note_on_c, 0, 77, 88
2, 18359, Note_off_c, 0, 77, 0
2, 18360, Note_on_c, 0, 69, 88
2, 18659, Note_off_c, 0, 69, 0
2, 18660, Note_on_c, 0, 78, 88
2, 18719, Note_off_c, 0, 78, 0
2, 18720, Note_on_c, 0, 77, 88
2, 18839, Note_off_c, 0, 77, 0
2, 18840, Note_on_c, 0, 76, 88
2, 18899, Note_off_c, 0, 76, 0
2, 18900, Note_on_c, 0, 75, 88
2, 19019, Note_off_c, 0, 75, 0
2, 19020, Note_on_c, 0, 74, 88
2, 19079, Note_off_c, 0, 74, 0
2, 19080, Note_on_c, 0, 73, 88
2, 19199, Note_off_c, 0, 73, 0
2, 19200, Note_on_c, 0, 78, 88
2, 19259, Note_off_c, 0, 78, 0
2, 19260, Note_on_c, 0, 77, 88
2, 19379, Note_off_c, 0, 77, 0
2, 19380, Note_on_c, 0, 76, 88
2, 19439, Note_off_c, 0, 76, 0
2, 19440, Note_on_c, 0, 75, 88
2, 19559, Note_off_c, 0, 75, 0
2, 19560, Note_on_c, 0, 77, 88
2, 19619, Note_off_c, 0, 77, 0
2, 19620, Note_on_c, 0, 78, 88
2, 19979, Note_off_c, 0, 78, 0
2, 19980, Note_on_c, 0, 76, 88
2, 20339, Note_off_c, 0, 76, 0
2, 20340, Note_on_c, 0, 75, 88
2, 20639, Note_off_c, 0, 75, 0
2, 20640, Note_on_c, 0, 73, 88
2, 20699, Note_off_c, 0, 73, 0
2, 20700, Note_on_c, 0, 72, 88
2, 20819, Note_off_c, 0, 72, 0
2, 20820, Note_on_c, 0, 71, 88
2, 20879, Note_off_c, 0, 71, 0
2, 20880, Note_on_c, 0, 70, 88
2, 20999, Note_off_c, 0, 70, 0
2, 21000, Note_on_c, 0, 69, 88
2, 21059, Note_off_c, 0, 69, 0
2, 21060, Note_on_c, 0, 78, 88
2, 21119, Note_off_c, 0, 78, 0
2, 21120, Note_on_c, 0, 76, 88
2, 21179, Note_off_c, 0, 76, 0
2, 21180, Note_on_c, 0, 78, 88
2, 21239, Note_off_c, 0, 78, 0
2, 21240, Note_on_c, 0, 72, 88
2, 21299, Note_off_c, 0, 72, 0
2, 21300, Note_on_c, 0, 73, 88
2, 21359, Note_off_c, 0, 73, 0
2, 21360, Note_on_c, 0, 75, 88
2, 21419, Note_off_c, 0, 75, 0
2, 21420, Note_on_c, 0, 68, 88
2, 21599, Note_off_c, 0, 68, 0
2, 21600, Note_on_c, 0, 70, 88
2, 21779, Note_off_c, 0, 70, 0
2, 21780, Note_on_c, 0, 72, 88
2, 21959, Note_off_c, 0, 72, 0
2, 21960, Note_on_c, 0, 73, 88
2, 22139, Note_off_c, 0, 73, 0
2, 22140, Note_on_c, 0, 69, 88
2, 22499, Note_off_c, 0, 69, 0
2, 22500, Note_on_c, 0, 68, 88
2, 22859, Note_off_c, 0, 68, 0
2, 22860, Note_on_c, 0, 66, 88
2, 23039, Note_off_c, 0, 66, 0
2, 23040, Note_on_c, 0, 68, 88
2, 23099, Note_off_c, 0, 68, 0
2, 23100, Note_on_c, 0, 63, 88
2, 23159, Note_off_c, 0, 63, 0
2, 23160, Note_on_c, 0, 68, 88
2, 23279, Note_off_c, 0, 68, 0
2, 23280, Note_on_c, 0, 66, 88
2, 23339, Note_off_c, 0, 66, 0
2, 23340, Note_on_c, 0, 64, 88
2, 23399, Note_off_c, 0, 64, 0
2, 23400, Note_on_c, 0, 63, 88
2, 23459, Note_off_c, 0, 63, 0
2, 23460, Note_on_c, 0, 66, 88
2, 23519, Note_off_c, 0, 66, 0
2, 23520, Note_on_c, 0, 69, 88
2, 23639, Note_off_c, 0, 69, 0
2, 23640, Note_on_c, 0, 68, 88
2, 23699, Note_off_c, 0, 68, 0
2, 23700, Note_on_c, 0, 66, 88
2, 23759, Note_off_c, 0, 66, 0
2, 23760, Note_on_c, 0, 64, 88
2, 23939, Note_off_c, 0, 64, 0
2, 23940, Note_on_c, 0, 66, 88
2, 24119, Note_off_c, 0, 66, 0
2, 24120, Note_on_c, 0, 68, 88
2, 24479, Note_off_c, 0, 68, 0
2, 24480, Note_on_c, 0, 78, 88
2, 24839, Note_off_c, 0, 78, 0
2, 24840, Note_on_c, 0, 77, 88
2, 25019, Note_off_c, 0, 77, 0
2, 25020, Note_on_c, 0, 76, 88
2, 25199, Note_off_c, 0, 76, 0
2, 25200, Note_on_c, 0, 75, 88
2, 25379, Note_off_c, 0, 75, 0
2, 25380, Note_on_c, 0, 80, 88
2, 25559, Note_off_c, 0, 80, 0
2, 25560, Note_on_c, 0, 73, 88
2, 25739, Note_off_c, 0, 73, 0
2, 25740, Note_on_c, 0, 78, 88
2, 26099, Note_off_c, 0, 78, 0
2, 26100, Note_on_c, 0, 76, 88
2, 26279, Note_off_c, 0, 76, 0
2, 26280, Note_on_c, 0, 75, 88
2, 26459, Note_off_c, 0, 75, 0
2, 26460, Note_on_c, 0, 76, 88
2, 26819, Note_off_c, 0, 76, 0
2, 26820, Note_on_c, 0, 75, 88
2, 27059, Note_off_c, 0, 75, 0
2, 27060, Note_on_c, 0, 73, 88
2, 27119, Note_off_c, 0, 73, 0
2, 27120, Note_on_c, 0, 71, 88
2, 27179, Note_off_c, 0, 71, 0
2, 27180, Note_on_c, 0, 73, 88
2, 27239, Note_off_c, 0, 73, 0
2, 27240, Note_on_c, 0, 75, 88
2, 27299, Note_off_c, 0, 75, 0
2, 27300, Note_on_c, 0, 76, 88
2, 27419, Note_off_c, 0, 76, 0
2, 27420, Note_on_c, 0, 75, 88
2, 27479, Note_off_c, 0, 75, 0
2, 27480, Note_on_c, 0, 73, 88
2, 27539, Note_off_c, 0, 73, 0
2, 27540, Note_on_c, 0, 71, 88
2, 27599, Note_off_c, 0, 71, 0
2, 27600, Note_on_c, 0, 73, 88
2, 27659, Note_off_c, 0, 73, 0
2, 27660, Note_on_c, 0, 71, 88
2, 27719, Note_off_c, 0, 71, 0
2, 27720, Note_on_c, 0, 70, 88
2, 28079, Note_off_c, 0, 70, 0
2, 28080, Note_on_c, 0, 75, 88
2, 28139, Note_off_c, 0, 75, 0
2, 28140, Note_on_c, 0, 73, 88
2, 28199, Note_off_c, 0, 73, 0
2, 28200, Note_on_c, 0, 75, 88
2, 28259, Note_off_c, 0, 75, 0
2, 28260, Note_on_c, 0, 71, 88
2, 28319, Note_off_c, 0, 71, 0
2, 28320, Note_on_c, 0, 76, 88
2, 28379, Note_off_c, 0, 76, 0
2, 28380, Note_on_c, 0, 75, 88
2, 28439, Note_off_c, 0, 75, 0
2, 28440, Note_on_c, 0, 73, 88
2, 28499, Note_off_c, 0, 73, 0
2, 28500, Note_on_c, 0, 71, 88
2, 28559, Note_off_c, 0, 71, 0
2, 28560, Note_on_c, 0, 73, 88
2, 28619, Note_off_c, 0, 73, 0
2, 28620, Note_on_c, 0, 70, 88
2, 28679, Note_off_c, 0, 70, 0
2, 28680, Note_on_c, 0, 75, 88
2, 28739, Note_off_c, 0, 75, 0
2, 28740, Note_on_c, 0, 73, 88
2, 28799, Note_off_c, 0, 73, 0
2, 28800, Note_on_c, 0, 72, 88
2, 28859, Note_off_c, 0, 72, 0
2, 28860, Note_on_c, 0, 70, 88
2, 28919, Note_off_c, 0, 70, 0
2, 28920, Note_on_c, 0, 68, 88
2, 28979, Note_off_c, 0, 68, 0
2, 28980, Note_on_c, 0, 73, 88
2, 29339, Note_off_c, 0, 73, 0
2, 29340, Note_on_c, 0, 71, 88
2, 29699, Note_off_c, 0, 71, 0
2, 29700, Note_on_c, 0, 69, 88
2, 29759, Note_off_c, 0, 69, 0
2, 29760, Note_on_c, 0, 68, 88
2, 29819, Note_off_c, 0, 68, 0
2, 29820, Note_on_c, 0, 66, 88
2, 29879, Note_off_c, 0, 66, 0
2, 29880, Note_on_c, 0, 68, 88
2, 30239, Note_off_c, 0, 68, 0
2, 30240, Note_on_c, 0, 66, 88
2, 30599, Note_off_c, 0, 66, 0
2, 30600, Note_on_c, 0, 64, 88
2, 30659, Note_off_c, 0, 64, 0
2, 30660, Note_on_c, 0, 63, 88
2, 30719, Note_off_c, 0, 63, 0
2, 30720, Note_on_c, 0, 64, 88
2, 30779, Note_off_c, 0, 64, 0
2, 30780, Note_on_c, 0, 61, 88
2, 30839, Note_off_c, 0, 61, 0
2, 30840, Note_on_c, 0, 66, 88
2, 30899, Note_off_c, 0, 66, 0
2, 30900, Note_on_c, 0, 64, 88
2, 30959, Note_off_c, 0, 64, 0
2, 30960, Note_on_c, 0, 63, 88
2, 31019, Note_off_c, 0, 63, 0
2, 31020, Note_on_c, 0, 66, 88
2, 31079, Note_off_c, 0, 66, 0
2, 31080, Note_on_c, 0, 71, 88
2, 31199, Note_off_c, 0, 71, 0
2, 31200, Note_on_c, 0, 69, 88
2, 31259, Note_off_c, 0, 69, 0
2, 31260, Note_on_c, 0, 68, 88
2, 31319, Note_off_c, 0, 68, 0
2, 31320, Note_on_c, 0, 66, 88
2, 31379, Note_off_c, 0, 66, 0
2, 31380, Note_on_c, 0, 77, 88
2, 31439, Note_off_c, 0, 77, 0
2, 31440, Note_on_c, 0, 78, 88
2, 31499, Note_off_c, 0, 78, 0
2, 31500, Note_on_c, 0, 80, 88
2, 31559, Note_off_c, 0, 80, 0
2, 31560, Note_on_c, 0, 73, 88
2, 31619, Note_off_c, 0, 73, 0
2, 31620, Note_on_c, 0, 71, 88
2, 31679, Note_off_c, 0, 71, 0
2, 31680, Note_on_c, 0, 69, 88
2, 31979, Note_off_c, 0, 69, 0
2, 31980, Note_on_c, 0, 78, 88
2, 32039, Note_off_c, 0, 78, 0
2, 32040, Note_on_c, 0, 76, 88
2, 32219, Note_off_c, 0, 76, 0
2, 32220, Note_on_c, 0, 75, 88
2, 32459, Note_off_c, 0, 75, 0
2, 32460, Note_on_c, 0, 73, 88
2, 32519, Note_off_c, 0, 73, 0
2, 32520, Note_on_c, 0, 75, 88
2, 32579, Note_off_c, 0, 75, 0
2, 32580, Note_on_c, 0, 76, 88
2, 32639, Note_off_c, 0, 76, 0
2, 32640, Note_on_c, 0, 69, 88
2, 32699, Note_off_c, 0, 69, 0
2, 32700, Note_on_c, 0, 68, 88
2, 32759, Note_off_c, 0, 68, 0
2, 32760, Note_on_c, 0, 66, 88
2, 32819, Note_off_c, 0, 66, 0
2, 32820, Note_on_c, 0, 75, 88
2, 32879, Note_off_c, 0, 75, 0
2, 32880, Note_on_c, 0, 76, 88
2, 32939, Note_off_c, 0, 76, 0
2, 32940, Note_on_c, 0, 78, 88
2, 32999, Note_off_c, 0, 78, 0
2, 33000, Note_on_c, 0, 71, 88
2, 33059, Note_off_c, 0, 71, 0
2, 33060, Note_on_c, 0, 69, 88
2, 33119, Note_off_c, 0, 69, 0
2, 33120, Note_on_c, 0, 68, 88
2, 33179, Note_off_c, 0, 68, 0
2, 33180, Note_on_c, 0, 80, 88
2, 33239, Note_off_c, 0, 80, 0
2, 33240, Note_on_c, 0, 81, 88
2, 33299, Note_off_c, 0, 81, 0
2, 33300, Note_on_c, 0, 83, 88
2, 33359, Note_off_c, 0, 83, 0
2, 33360, Note_on_c, 0, 76, 88
2, 33419, Note_off_c, 0, 76, 0
2, 33420, Note_on_c, 0, 74, 88
2, 33479, Note_off_c, 0, 74, 0
2, 33480, Note_on_c, 0, 73, 88
2, 33899, Note_off_c, 0, 73, 0
2, 33900, Note_on_c, 0, 72, 88
2, 33959, Note_off_c, 0, 72, 0
2, 33960, Note_on_c, 0, 73, 88
2, 34019, Note_off_c, 0, 73, 0
2, 34020, Note_on_c, 0, 75, 88
2, 34079, Note_off_c, 0, 75, 0
2, 34080, Note_on_c, 0, 73, 88
2, 34139, Note_off_c, 0, 73, 0
2, 34140, Note_on_c, 0, 75, 88
2, 34199, Note_off_c, 0, 75, 0
2, 34200, Note_on_c, 0, 68, 88
2, 34259, Note_off_c, 0, 68, 0
2, 34260, Note_on_c, 0, 70, 88
2, 34319, Note_off_c, 0, 70, 0
2, 34320, Note_on_c, 0, 72, 88
2, 34379, Note_off_c, 0, 72, 0
2, 34380, Note_on_c, 0, 73, 88
2, 34439, Note_off_c, 0, 73, 0
2, 34440, Note_on_c, 0, 75, 88
2, 34499, Note_off_c, 0, 75, 0
2, 34500, Note_on_c, 0, 76, 88
2, 34559, Note_off_c, 0, 76, 0
2, 34560, Note_on_c, 0, 78, 88
2, 34619, Note_off_c, 0, 78, 0
2, 34620, Note_on_c, 0, 76, 88
2, 34679, Note_off_c, 0, 76, 0
2, 34680, Note_on_c, 0, 78, 88
2, 34739, Note_off_c, 0, 78, 0
2, 34740, Note_on_c, 0, 75, 88
2, 34799, Note_off_c, 0, 75, 0
2, 34800, Note_on_c, 0, 80, 88
2, 34859, Note_off_c, 0, 80, 0
2, 34860, Note_on_c, 0, 78, 88
2, 34919, Note_off_c, 0, 78, 0
2, 34920, Note_on_c, 0, 76, 88
2, 35099, Note_off_c, 0, 76, 0
2, 35100, Note_on_c, 0, 75, 88
2, 35279, Note_off_c, 0, 75, 0
2, 35280, Note_on_c, 0, 73, 88
2, 35519, Note_off_c, 0, 73, 0
2, 35520, Note_on_c, 0, 73, 88
2, 35579, Note_off_c, 0, 73, 0
2, 35580, Note_on_c, 0, 76, 88
2, 35639, Note_off_c, 0, 76, 0
2, 35640, Note_on_c, 0, 75, 88
2, 35819, Note_off_c, 0, 75, 0
2, 35820, Note_on_c, 0, 73, 88
2, 35999, Note_off_c, 0, 73, 0
2, 36000, Note_on_c, 0, 71, 88
2, 36239, Note_off_c, 0, 71, 0
2, 36240, Note_on_c, 0, 71, 88
2, 36299, Note_off_c, 0, 71, 0
2, 36300, Note_on_c, 0, 74, 88
2, 36359, Note_off_c, 0, 74, 0
2, 36360, Note_on_c, 0, 73, 88
2, 36419, Note_off_c, 0, 73, 0
2, 36420, Note_on_c, 0, 71, 88
2, 36479, Note_off_c, 0, 71, 0
2, 36480, Note_on_c, 0, 73, 88
2, 36539, Note_off_c, 0, 73, 0
2, 36540, Note_on_c, 0, 66, 88
2, 36599, Note_off_c, 0, 66, 0
2, 36600, Note_on_c, 0, 71, 88
2, 36659, Note_off_c, 0, 71, 0
2, 36660, Note_on_c, 0, 69, 88
2, 36719, Note_off_c, 0, 69, 0
2, 36720, Note_on_c, 0, 68, 88
2, 36779, Note_off_c, 0, 68, 0
2, 36780, Note_on_c, 0, 66, 88
2, 36839, Note_off_c, 0, 66, 0
2, 36840, Note_on_c, 0, 68, 88
2, 36899, Note_off_c, 0, 68, 0
2, 36900, Note_on_c, 0, 64, 88
2, 36959, Note_off_c, 0, 64, 0
2, 36960, Note_on_c, 0, 69, 88
2, 37019, Note_off_c, 0, 69, 0
2, 37020, Note_on_c, 0, 68, 88
2, 37079, Note_off_c, 0, 68, 0
2, 37080, Note_on_c, 0, 66, 88
2, 37139, Note_off_c, 0, 66, 0
2, 37140, Note_on_c, 0, 64, 88
2, 37199, Note_off_c, 0, 64, 0
2, 37200, Note_on_c, 0, 66, 88
2, 37259, Note_off_c, 0, 66, 0
2, 37260, Note_on_c, 0, 68, 88
2, 37319, Note_off_c, 0, 68, 0
2, 37320, Note_on_c, 0, 66, 88
2, 37379, Note_off_c, 0, 66, 0
2, 37380, Note_on_c, 0, 68, 88
2, 37439, Note_off_c, 0, 68, 0
2, 37440, Note_on_c, 0, 69, 88
2, 37979, Note_off_c, 0, 69, 0
2, 37980, Note_on_c, 0, 68, 88
2, 38159, Note_off_c, 0, 68, 0
2, 38160, Note_on_c, 0, 69, 88
2, 38219, Note_off_c, 0, 69, 0
2, 38220, Note_on_c, 0, 73, 88
2, 38279, Note_off_c, 0, 73, 0
2, 38280, Note_on_c, 0, 71, 88
2, 38339, Note_off_c, 0, 71, 0
2, 38340, Note_on_c, 0, 73, 88
2, 38399, Note_off_c, 0, 73, 0
2, 38400, Note_on_c, 0, 71, 88
2, 38459, Note_off_c, 0, 71, 0
2, 38460, Note_on_c, 0, 69, 88
2, 38519, Note_off_c, 0, 69, 0
2, 38520, Note_on_c, 0, 71, 88
2, 38579, Note_off_c, 0, 71, 0
2, 38580, Note_on_c, 0, 65, 88
2, 38639, Note_off_c, 0, 65, 0
2, 38640, Note_on_c, 0, 66, 88
2, 38699, Note_off_c, 0, 66, 0
2, 38700, Note_on_c, 0, 65, 88
2, 38879, Note_off_c, 0, 65, 0
2, 38880, Note_on_c, 0, 73, 88
2, 39239, Note_off_c, 0, 73, 0
2, 39240, Note_on_c, 0, 72, 88
2, 39419, Note_off_c, 0, 72, 0
2, 39420, Note_on_c, 0, 71, 88
2, 39599, Note_off_c, 0, 71, 0
2, 39600, Note_on_c, 0, 70, 88
2, 39779, Note_off_c, 0, 70, 0
2, 39780, Note_on_c, 0, 75, 88
2, 39959, Note_off_c, 0, 75, 0
2, 39960, Note_on_c, 0, 68, 88
2, 40139, Note_off_c, 0, 68, 0
2, 40140, Note_on_c, 0, 73, 88
2, 40499, Note_off_c, 0, 73, 0
2, 40500, Note_on_c, 0, 72, 88
2, 40679, Note_off_c, 0, 72, 0
2, 40680, Note_on_c, 0, 73, 88
2, 40859, Note_off_c, 0, 73, 0
2, 40860, Note_on_c, 0, 69, 88
2, 40919, Note_off_c, 0, 69, 0
2, 40920, Note_on_c, 0, 68, 88
2, 40979, Note_off_c, 0, 68, 0
2, 40980, Note_on_c, 0, 69, 88
2, 41039, Note_off_c, 0, 69, 0
2, 41040, Note_on_c, 0, 66, 88
2, 41099, Note_off_c, 0, 66, 0
2, 41100, Note_on_c, 0, 71, 88
2, 41159, Note_off_c, 0, 71, 0
2, 41160, Note_on_c, 0, 69, 88
2, 41219, Note_off_c, 0, 69, 0
2, 41220, Note_on_c, 0, 68, 88
2, 41279, Note_off_c, 0, 68, 0
2, 41280, Note_on_c, 0, 66, 88
2, 41339, Note_off_c, 0, 66, 0
2, 41340, Note_on_c, 0, 68, 88
2, 41399, Note_off_c, 0, 68, 0
2, 41400, Note_on_c, 0, 64, 88
2, 41459, Note_off_c, 0, 64, 0
2, 41460, Note_on_c, 0, 69, 88
2, 41519, Note_off_c, 0, 69, 0
2, 41520, Note_on_c, 0, 68, 88
2, 41579, Note_off_c, 0, 68, 0
2, 41580, Note_on_c, 0, 66, 88
2, 41819, Note_off_c, 0, 66, 0
2, 41820, Note_on_c, 0, 64, 88
2, 41879, Note_off_c, 0, 64, 0
2, 41880, Note_on_c, 0, 63, 88
2, 41939, Note_off_c, 0, 63, 0
2, 41940, Note_on_c, 0, 64, 88
2, 41999, Note_off_c, 0, 64, 0
2, 42000, Note_on_c, 0, 68, 88
2, 42059, Note_off_c, 0, 68, 0
2, 42060, Note_on_c, 0, 73, 88
2, 42179, Note_off_c, 0, 73, 0
2, 42180, Note_on_c, 0, 72, 88
2, 42239, Note_off_c, 0, 72, 0
2, 42240, Note_on_c, 0, 70, 88
2, 42299, Note_off_c, 0, 70, 0
2, 42300, Note_on_c, 0, 72, 88
2, 42359, Note_off_c, 0, 72, 0
2, 42360, Note_on_c, 0, 75, 88
2, 42419, Note_off_c, 0, 75, 0
2, 42420, Note_on_c, 0, 80, 88
2, 42539, Note_off_c, 0, 80, 0
2, 42540, Note_on_c, 0, 78, 88
2, 42599, Note_off_c, 0, 78, 0
2, 42600, Note_on_c, 0, 76, 88
2, 42659, Note_off_c, 0, 76, 0
2, 42660, Note_on_c, 0, 75, 88
2, 42719, Note_off_c, 0, 75, 0
2, 42720, Note_on_c, 0, 76, 88
2, 42779, Note_off_c, 0, 76, 0
2, 42780, Note_on_c, 0, 73, 88
2, 42839, Note_off_c, 0, 73, 0
2, 42840, Note_on_c, 0, 72, 88
2, 42899, Note_off_c, 0, 72, 0
2, 42900, Note_on_c, 0, 73, 88
2, 42959, Note_off_c, 0, 73, 0
2, 42960, Note_on_c, 0, 75, 88
2, 43019, Note_off_c, 0, 75, 0
2, 43020, Note_on_c, 0, 68, 88
2, 43079, Note_off_c, 0, 68, 0
2, 43080, Note_on_c, 0, 80, 88
2, 43139, Note_off_c, 0, 80, 0
2, 43140, Note_on_c, 0, 78, 88
2, 43199, Note_off_c, 0, 78, 0
2, 43200, Note_on_c, 0, 76, 88
2, 43259, Note_off_c, 0, 76, 0
2, 43260, Note_on_c, 0, 75, 88
2, 43319, Note_off_c, 0, 75, 0
2, 43320, Note_on_c, 0, 76, 88
2, 43379, Note_off_c, 0, 76, 0
2, 43380, Note_on_c, 0, 68, 88
2, 43402, Note_off_c, 0, 68, 0
2, 43403, Note_on_c, 0, 67, 88
2, 43424, Note_off_c, 0, 67, 0
2, 43425, Note_on_c, 0, 68, 88
2, 43447, Note_off_c, 0, 68, 0
2, 43448, Note_on_c, 0, 67, 88
2, 43469, Note_off_c, 0, 67, 0
2, 43470, Note_on_c, 0, 68, 88
2, 43492, Note_off_c, 0, 68, 0
2, 43493, Note_on_c, 0, 67, 88
2, 43514, Note_off_c, 0, 67, 0
2, 43515, Note_on_c, 0, 68, 88
2, 43537, Note_off_c, 0, 68, 0
2, 43538, Note_on_c, 0, 67, 88
2, 43559, Note_off_c, 0, 67, 0
2, 43560, Note_on_c, 0, 68, 88
2, 44099, Note_off_c, 0, 68, 0
2, 44100, Note_on_c, 0, 66, 88
2, 44339, Note_off_c, 0, 66, 0
2, 44340, Note_on_c, 0, 64, 88
2, 44399, Note_off_c, 0, 64, 0
2, 44400, Note_on_c, 0, 66, 88
2, 44459, Note_off_c, 0, 66, 0
2, 44460, Note_on_c, 0, 63, 88
2, 44519, Note_off_c, 0, 63, 0
2, 44520, Note_on_c, 0, 68, 88
2, 44579, Note_off_c, 0, 68, 0
2, 44580, Note_on_c, 0, 66, 88
2, 44639, Note_off_c, 0, 66, 0
2, 44640, Note_on_c, 0, 65, 88
2, 44819, Note_off_c, 0, 65, 0
2, 44820, Note_on_c, 0, 64, 88
2, 45059, Note_off_c, 0, 64, 0
2, 45060, Note_on_c, 0, 63, 88
2, 45119, Note_off_c, 0, 63, 0
2, 45120, Note_on_c, 0, 64, 88
2, 45179, Note_off_c, 0, 64, 0
2, 45180, Note_on_c, 0, 61, 88
2, 45239, Note_off_c, 0, 61, 0
2, 45240, Note_on_c, 0, 66, 88
2, 45299, Note_off_c, 0, 66, 0
2, 45300, Note_on_c, 0, 64, 88
2, 45359, Note_off_c, 0, 64, 0
2, 45360, Note_on_c, 0, 63, 88
2, 45419, Note_off_c, 0, 63, 0
2, 45420, Note_on_c, 0, 61, 88
2, 45479, Note_off_c, 0, 61, 0
2, 45480, Note_on_c, 0, 59, 88
2, 45539, Note_off_c, 0, 59, 0
2, 45540, Note_on_c, 0, 64, 88
2, 45779, Note_off_c, 0, 64, 0
2, 45780, Note_on_c, 0, 63, 88
2, 45839, Note_off_c, 0, 63, 0
2, 45840, Note_on_c, 0, 61, 88
2, 45899, Note_off_c, 0, 61, 0
2, 45900, Note_on_c, 0, 63, 88
2, 45959, Note_off_c, 0, 63, 0
2, 45960, Note_on_c, 0, 65, 88
2, 46019, Note_off_c, 0, 65, 0
2, 46020, Note_on_c, 0, 66, 88
2, 46079, Note_off_c, 0, 66, 0
2, 46080, Note_on_c, 0, 68, 88
2, 46499, Note_off_c, 0, 68, 0
2, 46500, Note_on_c, 0, 66, 88
2, 46559, Note_off_c, 0, 66, 0
2, 46560, Note_on_c, 0, 65, 88
2, 46619, Note_off_c, 0, 65, 0
2, 46620, Note_on_c, 0, 66, 88
2, 46679, Note_off_c, 0, 66, 0
2, 46680, Note_on_c, 0, 69, 88
2, 46739, Note_off_c, 0, 69, 0
2, 46740, Note_on_c, 0, 73, 88
2, 46799, Note_off_c, 0, 73, 0
2, 46800, Note_on_c, 0, 78, 88
2, 47159, Note_off_c, 0, 78, 0
2, 47160, Note_on_c, 0, 77, 88
2, 47339, Note_off_c, 0, 77, 0
2, 47340, Note_on_c, 0, 76, 88
2, 47519, Note_off_c, 0, 76, 0
2, 47520, Note_on_c, 0, 75, 88
2, 47699, Note_off_c, 0, 75, 0
2, 47700, Note_on_c, 0, 80, 88
2, 47879, Note_off_c, 0, 80, 0
2, 47880, Note_on_c, 0, 73, 88
2, 48299, Note_off_c, 0, 73, 0
2, 48300, Note_on_c, 0, 72, 88
2, 48359, Note_off_c, 0, 72, 0
2, 48360, Note_on_c, 0, 70, 88
2, 48419, Note_off_c, 0, 70, 0
2, 48420, Note_on_c, 0, 72, 88
2, 48479, Note_off_c, 0, 72, 0
2, 48480, Note_on_c, 0, 70, 88
2, 48539, Note_off_c, 0, 70, 0
2, 48540, Note_on_c, 0, 68, 88
2, 48599, Note_off_c, 0, 68, 0
2, 48600, Note_on_c, 0, 80, 88
2, 48779, Note_off_c, 0, 80, 0
2, 48780, Note_on_c, 0, 79, 88
2, 48959, Note_off_c, 0, 79, 0
2, 48960, Note_on_c, 0, 78, 88
2, 49139, Note_off_c, 0, 78, 0
2, 49140, Note_on_c, 0, 77, 88
2, 49319, Note_off_c, 0, 77, 0
2, 49320, Note_on_c, 0, 76, 88
2, 49499, Note_off_c, 0, 76, 0
2, 49500, Note_on_c, 0, 75, 88
2, 49619, Note_off_c, 0, 75, 0
2, 49620, Note_on_c, 0, 73, 88
2, 49679, Note_off_c, 0, 73, 0
2, 49680, Note_on_c, 0, 72, 88
2, 49799, Note_off_c, 0, 72, 0
2, 49800, Note_on_c, 0, 68, 88
2, 49859, Note_off_c, 0, 68, 0
2, 49860, Note_on_c, 0, 73, 88
2, 50219, Note_off_c, 0, 73, 0
2, 50220, Note_on_c, 0, 72, 88
2, 50399, Note_off_c, 0, 72, 0
2, 50400, Note_on_c, 0, 73, 88
2, 50440, Note_off_c, 0, 73, 0
2, 50440, End_track
0, 0, End_of_file