0, 0, Header, 1, 2, 240
1, 0, Start_track
1, 0, Time_signature, 4, 2, 24, 8
1, 0, Tempo, 789473
1, 0, SMPTE_offset, 64, 0, 0, 0, 100
1, 0, End_track
2, 0, Start_track
2, 0, Title_t, "Track 1"
2, 0, Program_c, 0, 6
2, 3960, Note_on_c, 0, 74, 88
2, 4079, Note_off_c, 0, 74, 0
2, 4080, Note_on_c, 0, 74, 88
2, 4199, Note_off_c, 0, 74, 0
2, 4200, Note_on_c, 0, 74, 88
2, 4319, Note_off_c, 0, 74, 0
2, 4320, Note_on_c, 0, 67, 88
2, 4559, Note_off_c, 0, 67, 0
2, 4560, Note_on_c, 0, 71, 88
2, 4919, Note_off_c, 0, 71, 0
2, 4920, Note_on_c, 0, 64, 88
2, 5039, Note_off_c, 0, 64, 0
2, 5040, Note_on_c, 0, 69, 88
2, 5159, Note_off_c, 0, 69, 0
2, 5160, Note_on_c, 0, 67, 88
2, 5279, Note_off_c, 0, 67, 0
2, 5280, Note_on_c, 0, 66, 88
2, 5759, Note_off_c, 0, 66, 0
2, 5760, Note_on_c, 0, 68, 88
2, 6239, Note_off_c, 0, 68, 0
2, 6240, Note_on_c, 0, 69, 88
2, 6599, Note_off_c, 0, 69, 0
2, 6600, Note_on_c, 0, 64, 88
2, 6719, Note_off_c, 0, 64, 0
2, 6720, Note_on_c, 0, 69, 88
2, 6839, Note_off_c, 0, 69, 0
2, 6840, Note_on_c, 0, 67, 88
2, 6959, Note_off_c, 0, 67, 0
2, 6960, Note_on_c, 0, 66, 88
2, 7439, Note_off_c, 0, 66, 0
2, 7440, Note_on_c, 0, 64, 88
2, 7559, Note_off_c, 0, 64, 0
2, 7560, Note_on_c, 0, 62, 88
2, 7679, Note_off_c, 0, 62, 0
2, 7680, Note_on_c, 0, 61, 88
2, 7919, Note_off_c, 0, 61, 0
2, 7920, Note_on_c, 0, 62, 88
2, 8279, Note_off_c, 0, 62, 0
2, 8280, Note_on_c, 0, 71, 88
2, 8339, Note_off_c, 0, 71, 0
2, 8340, Note_on_c, 0, 69, 88
2, 8399, Note_off_c, 0, 69, 0
2, 8400, Note_on_c, 0, 71, 88
2, 8519, Note_off_c, 0, 71, 0
2, 8520, Note_on_c, 0, 62, 88
2, 8639, Note_off_c, 0, 62, 0
2, 8640, Note_on_c, 0, 61, 88
2, 9239, Note_off_c, 0, 61, 0
2, 9240, Note_on_c, 0, 64, 88
2, 9359, Note_off_c, 0, 64, 0
2, 9360, Note_on_c, 0, 69, 88
2, 9479, Note_off_c, 0, 69, 0
2, 9480, Note_on_c, 0, 67, 88
2, 9599, Note_off_c, 0, 67, 0
2, 9600, Note_on_c, 0, 66, 88
2, 10199, Note_off_c, 0, 66, 0
2, 10200, Note_on_c, 0, 71, 88
2, 10319, Note_off_c, 0, 71, 0
2, 10320, Note_on_c, 0, 71, 88
2, 10439, Note_off_c, 0, 71, 0
2, 10440, Note_on_c, 0, 71, 88
2, 10559, Note_off_c, 0, 71, 0
2, 10560, Note_on_c, 0, 64, 88
2, 10799, Note_off_c, 0, 64, 0
2, 10800, Note_on_c, 0, 67, 88
2, 11159, Note_off_c, 0, 67, 0
2, 11160, Note_on_c, 0, 61, 88
2, 11279, Note_off_c, 0, 61, 0
2, 11280, Note_on_c, 0, 66, 88
2, 11399, Note_off_c, 0, 66, 0
2, 11400, Note_on_c, 0, 64, 88
2, 11519, Note_off_c, 0, 64, 0
2, 11520, Note_on_c, 0, 62, 88
2, 11639, Note_off_c, 0, 62, 0
2, 11640, Note_on_c, 0, 66, 88
2, 11759, Note_off_c, 0, 66, 0
2, 11760, Note_on_c, 0, 71, 88
2, 11879, Note_off_c, 0, 71, 0
2, 11880, Note_on_c, 0, 69, 88
2, 11999, Note_off_c, 0, 69, 0
2, 12000, Note_on_c, 0, 68, 88
2, 12119, Note_off_c, 0, 68, 0
2, 12120, Note_on_c, 0, 71, 88
2, 12239, Note_off_c, 0, 71, 0
2, 12240, Note_on_c, 0, 76, 88
2, 12359, Note_off_c, 0, 76, 0
2, 12360, Note_on_c, 0, 74, 88
2, 12479, Note_off_c, 0, 74, 0
2, 12480, Note_on_c, 0, 73, 88
2, 13079, Note_off_c, 0, 73, 0
2, 13080, Note_on_c, 0, 74, 88
2, 13199, Note_off_c, 0, 74, 0
2, 13200, Note_on_c, 0, 74, 88
2, 13319, Note_off_c, 0, 74, 0
2, 13320, Note_on_c, 0, 74, 88
2, 13439, Note_off_c, 0, 74, 0
2, 13440, Note_on_c, 0, 67, 88
2, 13679, Note_off_c, 0, 67, 0
2, 13680, Note_on_c, 0, 71, 88
2, 14039, Note_off_c, 0, 71, 0
2, 14040, Note_on_c, 0, 64, 88
2, 14159, Note_off_c, 0, 64, 0
2, 14160, Note_on_c, 0, 69, 88
2, 14279, Note_off_c, 0, 69, 0
2, 14280, Note_on_c, 0, 67, 88
2, 14399, Note_off_c, 0, 67, 0
2, 14400, Note_on_c, 0, 66, 88
2, 14759, Note_off_c, 0, 66, 0
2, 14760, Note_on_c, 0, 69, 88
2, 14879, Note_off_c, 0, 69, 0
2, 14880, Note_on_c, 0, 74, 88
2, 14999, Note_off_c, 0, 74, 0
2, 15000, Note_on_c, 0, 72, 88
2, 15119, Note_off_c, 0, 72, 0
2, 15120, Note_on_c, 0, 71, 88
2, 15239, Note_off_c, 0, 71, 0
2, 15240, Note_on_c, 0, 74, 88
2, 15359, Note_off_c, 0, 74, 0
2, 15360, Note_on_c, 0, 79, 88
2, 15599, Note_off_c, 0, 79, 0
2, 15600, Note_on_c, 0, 78, 88
2, 15719, Note_off_c, 0, 78, 0
2, 15720, Note_on_c, 0, 76, 88
2, 15839, Note_off_c, 0, 76, 0
2, 15840, Note_on_c, 0, 81, 88
2, 15959, Note_off_c, 0, 81, 0
2, 15960, Note_on_c, 0, 79, 88
2, 16079, Note_off_c, 0, 79, 0
2, 16080, Note_on_c, 0, 78, 88
2, 16199, Note_off_c, 0, 78, 0
2, 16200, Note_on_c, 0, 76, 88
2, 16319, Note_off_c, 0, 76, 0
2, 16320, Note_on_c, 0, 74, 88
2, 16559, Note_off_c, 0, 74, 0
2, 16560, Note_on_c, 0, 73, 88
2, 16679, Note_off_c, 0, 73, 0
2, 16680, Note_on_c, 0, 71, 88
2, 16799, Note_off_c, 0, 71, 0
2, 16800, Note_on_c, 0, 76, 88
2, 16919, Note_off_c, 0, 76, 0
2, 16920, Note_on_c, 0, 74, 88
2, 17039, Note_off_c, 0, 74, 0
2, 17040, Note_on_c, 0, 73, 88
2, 17159, Note_off_c, 0, 73, 0
2, 17160, Note_on_c, 0, 71, 88
2, 17279, Note_off_c, 0, 71, 0
2, 17280, Note_on_c, 0, 69, 88
2, 17399, Note_off_c, 0, 69, 0
2, 17400, Note_on_c, 0, 73, 88
2, 17519, Note_off_c, 0, 73, 0
2, 17520, Note_on_c, 0, 71, 88
2, 17639, Note_off_c, 0, 71, 0
2, 17640, Note_on_c, 0, 69, 88
2, 17759, Note_off_c, 0, 69, 0
2, 17760, Note_on_c, 0, 68, 88
2, 17879, Note_off_c, 0, 68, 0
2, 17880, Note_on_c, 0, 64, 88
2, 17999, Note_off_c, 0, 64, 0
2, 18000, Note_on_c, 0, 69, 88
2, 18599, Note_off_c, 0, 69, 0
2, 18600, Note_on_c, 0, 68, 88
2, 18719, Note_off_c, 0, 68, 0
2, 18720, Note_on_c, 0, 69, 88
2, 19319, Note_off_c, 0, 69, 0
2, 19320, Note_on_c, 0, 66, 88
2, 19439, Note_off_c, 0, 66, 0
2, 19440, Note_on_c, 0, 71, 88
2, 19559, Note_off_c, 0, 71, 0
2, 19560, Note_on_c, 0, 69, 88
2, 19679, Note_off_c, 0, 69, 0
2, 19680, Note_on_c, 0, 67, 88
2, 20279, Note_off_c, 0, 67, 0
2, 20280, Note_on_c, 0, 78, 88
2, 20399, Note_off_c, 0, 78, 0
2, 20400, Note_on_c, 0, 78, 88
2, 20519, Note_off_c, 0, 78, 0
2, 20520, Note_on_c, 0, 78, 88
2, 20639, Note_off_c, 0, 78, 0
2, 20640, Note_on_c, 0, 71, 88
2, 20879, Note_off_c, 0, 71, 0
2, 20880, Note_on_c, 0, 74, 88
2, 21239, Note_off_c, 0, 74, 0
2, 21240, Note_on_c, 0, 68, 88
2, 21359, Note_off_c, 0, 68, 0
2, 21360, Note_on_c, 0, 73, 88
2, 21479, Note_off_c, 0, 73, 0
2, 21480, Note_on_c, 0, 71, 88
2, 21599, Note_off_c, 0, 71, 0
2, 21600, Note_on_c, 0, 70, 88
2, 21839, Note_off_c, 0, 70, 0
2, 21840, Note_on_c, 0, 71, 88
2, 21959, Note_off_c, 0, 71, 0
2, 21960, Note_on_c, 0, 73, 88
2, 22079, Note_off_c, 0, 73, 0
2, 22080, Note_on_c, 0, 74, 88
2, 22799, Note_off_c, 0, 74, 0
2, 22800, Note_on_c, 0, 73, 88
2, 23639, Note_off_c, 0, 73, 0
2, 23640, Note_on_c, 0, 71, 88
2, 23699, Note_off_c, 0, 71, 0
2, 23700, Note_on_c, 0, 69, 88
2, 23759, Note_off_c, 0, 69, 0
2, 23760, Note_on_c, 0, 68, 88
2, 23879, Note_off_c, 0, 68, 0
2, 23880, Note_on_c, 0, 66, 88
2, 23999, Note_off_c, 0, 66, 0
2, 24000, Note_on_c, 0, 65, 88
2, 24599, Note_off_c, 0, 65, 0
2, 24600, Note_on_c, 0, 61, 88
2, 24719, Note_off_c, 0, 61, 0
2, 24720, Note_on_c, 0, 66, 88
2, 25199, Note_off_c, 0, 66, 0
2, 25200, Note_on_c, 0, 66, 88
2, 25222, Note_off_c, 0, 66, 0
2, 25223, Note_on_c, 0, 65, 88
2, 25252, Note_off_c, 0, 65, 0
2, 25253, Note_on_c, 0, 66, 88
2, 25274, Note_off_c, 0, 66, 0
2, 25275, Note_on_c, 0, 65, 88
2, 25297, Note_off_c, 0, 65, 0
2, 25298, Note_on_c, 0, 66, 88
2, 25319, Note_off_c, 0, 66, 0
2, 25320, Note_on_c, 0, 65, 88
2, 25439, Note_off_c, 0, 65, 0
2, 25440, Note_on_c, 0, 66, 88
2, 25799, Note_off_c, 0, 66, 0
2, 25800, Note_on_c, 0, 81, 88
2, 25919, Note_off_c, 0, 81, 0
2, 25920, Note_on_c, 0, 81, 88
2, 26039, Note_off_c, 0, 81, 0
2, 26040, Note_on_c, 0, 81, 88
2, 26159, Note_off_c, 0, 81, 0
2, 26160, Note_on_c, 0, 74, 88
2, 26399, Note_off_c, 0, 74, 0
2, 26400, Note_on_c, 0, 78, 88
2, 26759, Note_off_c, 0, 78, 0
2, 26760, Note_on_c, 0, 71, 88
2, 26879, Note_off_c, 0, 71, 0
2, 26880, Note_on_c, 0, 76, 88
2, 26999, Note_off_c, 0, 76, 0
2, 27000, Note_on_c, 0, 74, 88
2, 27119, Note_off_c, 0, 74, 0
2, 27120, Note_on_c, 0, 73, 88
2, 27479, Note_off_c, 0, 73, 0
2, 27480, Note_on_c, 0, 69, 88
2, 27599, Note_off_c, 0, 69, 0
2, 27600, Note_on_c, 0, 74, 88
2, 27719, Note_off_c, 0, 74, 0
2, 27720, Note_on_c, 0, 72, 88
2, 27839, Note_off_c, 0, 72, 0
2, 27840, Note_on_c, 0, 71, 88
2, 28199, Note_off_c, 0, 71, 0
2, 28200, Note_on_c, 0, 71, 88
2, 28319, Note_off_c, 0, 71, 0
2, 28320, Note_on_c, 0, 76, 88
2, 28439, Note_off_c, 0, 76, 0
2, 28440, Note_on_c, 0, 74, 88
2, 28559, Note_off_c, 0, 74, 0
2, 28560, Note_on_c, 0, 72, 88
2, 29279, Note_off_c, 0, 72, 0
2, 29280, Note_on_c, 0, 71, 88
2, 29879, Note_off_c, 0, 71, 0
2, 29880, Note_on_c, 0, 69, 88
2, 30119, Note_off_c, 0, 69, 0
2, 30120, Note_on_c, 0, 67, 88
2, 30359, Note_off_c, 0, 67, 0
2, 30360, Note_on_c, 0, 66, 88
2, 30419, Note_off_c, 0, 66, 0
2, 30420, Note_on_c, 0, 64, 88
2, 30479, Note_off_c, 0, 64, 0
2, 30480, Note_on_c, 0, 67, 88
2, 30502, Note_off_c, 0, 67, 0
2, 30503, Note_on_c, 0, 66, 88
2, 30532, Note_off_c, 0, 66, 0
2, 30533, Note_on_c, 0, 67, 88
2, 30554, Note_off_c, 0, 67, 0
2, 30555, Note_on_c, 0, 66, 88
2, 30577, Note_off_c, 0, 66, 0
2, 30578, Note_on_c, 0, 67, 88
2, 30599, Note_off_c, 0, 67, 0
2, 30600, Note_on_c, 0, 66, 88
2, 30719, Note_off_c, 0, 66, 0
2, 30720, Note_on_c, 0, 67, 88
2, 31319, Note_off_c, 0, 67, 0
2, 31320, Note_on_c, 0, 79, 88
2, 31439, Note_off_c, 0, 79, 0
2, 31440, Note_on_c, 0, 79, 88
2, 31559, Note_off_c, 0, 79, 0
2, 31560, Note_on_c, 0, 79, 88
2, 31679, Note_off_c, 0, 79, 0
2, 31680, Note_on_c, 0, 73, 88
2, 31919, Note_off_c, 0, 73, 0
2, 31920, Note_on_c, 0, 76, 88
2, 32279, Note_off_c, 0, 76, 0
2, 32280, Note_on_c, 0, 69, 88
2, 32399, Note_off_c, 0, 69, 0
2, 32400, Note_on_c, 0, 74, 88
2, 32519, Note_off_c, 0, 74, 0
2, 32520, Note_on_c, 0, 72, 88
2, 32639, Note_off_c, 0, 72, 0
2, 32640, Note_on_c, 0, 71, 88
2, 33239, Note_off_c, 0, 71, 0
2, 33240, Note_on_c, 0, 64, 88
2, 33359, Note_off_c, 0, 64, 0
2, 33360, Note_on_c, 0, 69, 88
2, 33479, Note_off_c, 0, 69, 0
2, 33480, Note_on_c, 0, 67, 88
2, 33599, Note_off_c, 0, 67, 0
2, 33600, Note_on_c, 0, 66, 88
2, 33839, Note_off_c, 0, 66, 0
2, 33840, Note_on_c, 0, 73, 88
2, 34199, Note_off_c, 0, 73, 0
2, 34200, Note_on_c, 0, 66, 88
2, 34319, Note_off_c, 0, 66, 0
2, 34320, Note_on_c, 0, 71, 88
2, 34439, Note_off_c, 0, 71, 0
2, 34440, Note_on_c, 0, 69, 88
2, 34559, Note_off_c, 0, 69, 0
2, 34560, Note_on_c, 0, 67, 88
2, 35399, Note_off_c, 0, 67, 0
2, 35400, Note_on_c, 0, 64, 88
2, 35519, Note_off_c, 0, 64, 0
2, 35520, Note_on_c, 0, 69, 88
2, 35639, Note_off_c, 0, 69, 0
2, 35640, Note_on_c, 0, 67, 88
2, 35759, Note_off_c, 0, 67, 0
2, 35760, Note_on_c, 0, 66, 88
2, 35879, Note_off_c, 0, 66, 0
2, 35880, Note_on_c, 0, 69, 88
2, 35999, Note_off_c, 0, 69, 0
2, 36000, Note_on_c, 0, 74, 88
2, 36119, Note_off_c, 0, 74, 0
2, 36120, Note_on_c, 0, 73, 88
2, 36239, Note_off_c, 0, 73, 0
2, 36240, Note_on_c, 0, 71, 88
2, 36359, Note_off_c, 0, 71, 0
2, 36360, Note_on_c, 0, 74, 88
2, 36479, Note_off_c, 0, 74, 0
2, 36480, Note_on_c, 0, 79, 88
2, 37079, Note_off_c, 0, 79, 0
2, 37080, Note_on_c, 0, 76, 88
2, 37199, Note_off_c, 0, 76, 0
2, 37200, Note_on_c, 0, 81, 88
2, 37319, Note_off_c, 0, 81, 0
2, 37320, Note_on_c, 0, 79, 88
2, 37439, Note_off_c, 0, 79, 0
2, 37440, Note_on_c, 0, 78, 88
2, 37559, Note_off_c, 0, 78, 0
2, 37560, Note_on_c, 0, 79, 88
2, 37679, Note_off_c, 0, 79, 0
2, 37680, Note_on_c, 0, 81, 88
2, 38039, Note_off_c, 0, 81, 0
2, 38040, Note_on_c, 0, 74, 88
2, 38159, Note_off_c, 0, 74, 0
2, 38160, Note_on_c, 0, 79, 88
2, 38279, Note_off_c, 0, 79, 0
2, 38280, Note_on_c, 0, 78, 88
2, 38399, Note_off_c, 0, 78, 0
2, 38400, Note_on_c, 0, 76, 88
2, 39119, Note_off_c, 0, 76, 0
2, 39120, Note_on_c, 0, 74, 88
2, 39239, Note_off_c, 0, 74, 0
2, 39240, Note_on_c, 0, 72, 88
2, 39359, Note_off_c, 0, 72, 0
2, 39360, Note_on_c, 0, 71, 88
2, 39959, Note_off_c, 0, 71, 0
2, 39960, Note_on_c, 0, 64, 88
2, 40079, Note_off_c, 0, 64, 0
2, 40080, Note_on_c, 0, 69, 88
2, 40199, Note_off_c, 0, 69, 0
2, 40200, Note_on_c, 0, 67, 88
2, 40319, Note_off_c, 0, 67, 0
2, 40320, Note_on_c, 0, 66, 88
2, 40559, Note_off_c, 0, 66, 0
2, 40560, Note_on_c, 0, 64, 88
2, 40799, Note_off_c, 0, 64, 0
2, 40800, Note_on_c, 0, 66, 88
2, 40919, Note_off_c, 0, 66, 0
2, 40920, Note_on_c, 0, 68, 88
2, 41039, Note_off_c, 0, 68, 0
2, 41040, Note_on_c, 0, 69, 88
2, 41519, Note_off_c, 0, 69, 0
2, 41520, Note_on_c, 0, 69, 88
2, 41542, Note_off_c, 0, 69, 0
2, 41543, Note_on_c, 0, 68, 88
2, 41572, Note_off_c, 0, 68, 0
2, 41573, Note_on_c, 0, 69, 88
2, 41594, Note_off_c, 0, 69, 0
2, 41595, Note_on_c, 0, 68, 88
2, 41617, Note_off_c, 0, 68, 0
2, 41618, Note_on_c, 0, 69, 88
2, 41639, Note_off_c, 0, 69, 0
2, 41640, Note_on_c, 0, 68, 88
2, 41759, Note_off_c, 0, 68, 0
2, 41760, Note_on_c, 0, 69, 88
2, 41879, Note_off_c, 0, 69, 0
2, 41880, Note_on_c, 0, 81, 88
2, 41999, Note_off_c, 0, 81, 0
2, 42000, Note_on_c, 0, 81, 88
2, 42119, Note_off_c, 0, 81, 0
2, 42120, Note_on_c, 0, 81, 88
2, 42239, Note_off_c, 0, 81, 0
2, 42240, Note_on_c, 0, 74, 88
2, 42479, Note_off_c, 0, 74, 0
2, 42480, Note_on_c, 0, 78, 88
2, 42839, Note_off_c, 0, 78, 0
2, 42840, Note_on_c, 0, 71, 88
2, 42959, Note_off_c, 0, 71, 0
2, 42960, Note_on_c, 0, 76, 88
2, 43079, Note_off_c, 0, 76, 0
2, 43080, Note_on_c, 0, 74, 88
2, 43199, Note_off_c, 0, 74, 0
2, 43200, Note_on_c, 0, 73, 88
2, 43679, Note_off_c, 0, 73, 0
2, 43680, Note_on_c, 0, 72, 88
2, 44279, Note_off_c, 0, 72, 0
2, 44280, Note_on_c, 0, 69, 88
2, 44399, Note_off_c, 0, 69, 0
2, 44400, Note_on_c, 0, 74, 88
2, 44519, Note_off_c, 0, 74, 0
2, 44520, Note_on_c, 0, 72, 88
2, 44639, Note_off_c, 0, 72, 0
2, 44640, Note_on_c, 0, 71, 88
2, 45359, Note_off_c, 0, 71, 0
2, 45360, Note_on_c, 0, 69, 88
2, 46319, Note_off_c, 0, 69, 0
2, 46320, Note_on_c, 0, 67, 88
2, 46679, Note_off_c, 0, 67, 0
2, 46680, Note_on_c, 0, 64, 88
2, 46799, Note_off_c, 0, 64, 0
2, 46800, Note_on_c, 0, 69, 88
2, 46919, Note_off_c, 0, 69, 0
2, 46920, Note_on_c, 0, 67, 88
2, 47039, Note_off_c, 0, 67, 0
2, 47040, Note_on_c, 0, 66, 88
2, 47279, Note_off_c, 0, 66, 0
2, 47280, Note_on_c, 0, 66, 88
2, 47302, Note_off_c, 0, 66, 0
2, 47303, Note_on_c, 0, 64, 88
2, 47332, Note_off_c, 0, 64, 0
2, 47333, Note_on_c, 0, 66, 88
2, 47354, Note_off_c, 0, 66, 0
2, 47355, Note_on_c, 0, 64, 88
2, 47377, Note_off_c, 0, 64, 0
2, 47378, Note_on_c, 0, 66, 88
2, 47399, Note_off_c, 0, 66, 0
2, 47400, Note_on_c, 0, 64, 88
2, 47519, Note_off_c, 0, 64, 0
2, 47520, Note_on_c, 0, 62, 88
2, 47560, Note_off_c, 0, 62, 0
2, 47560, End_track
0, 0, End_of_file