0, 0, Header, 1, 2, 240
1, 0, Start_track
1, 0, Time_signature, 4, 2, 24, 8
1, 0, Tempo, 869565
1, 0, SMPTE_offset, 64, 0, 0, 0, 100
1, 0, End_track
2, 0, Start_track
2, 0, Title_t, "Track 1"
2, 0, Program_c, 0, 6
2, 7800, Note_on_c, 0, 70, 88
2, 7919, Note_off_c, 0, 70, 0
2, 7920, Note_on_c, 0, 70, 88
2, 8039, Note_off_c, 0, 70, 0
2, 8040, Note_on_c, 0, 70, 88
2, 8159, Note_off_c, 0, 70, 0
2, 8160, Note_on_c, 0, 69, 88
2, 8279, Note_off_c, 0, 69, 0
2, 8280, Note_on_c, 0, 70, 88
2, 8399, Note_off_c, 0, 70, 0
2, 8400, Note_on_c, 0, 72, 88
2, 8759, Note_off_c, 0, 72, 0
2, 8760, Note_on_c, 0, 70, 88
2, 8879, Note_off_c, 0, 70, 0
2, 8880, Note_on_c, 0, 75, 88
2, 9239, Note_off_c, 0, 75, 0
2, 9240, Note_on_c, 0, 73, 88
2, 9299, Note_off_c, 0, 73, 0
2, 9300, Note_on_c, 0, 72, 88
2, 9359, Note_off_c, 0, 72, 0
2, 9360, Note_on_c, 0, 77, 88
2, 9479, Note_off_c, 0, 77, 0
2, 9480, Note_on_c, 0, 75, 88
2, 9599, Note_off_c, 0, 75, 0
2, 9600, Note_on_c, 0, 73, 88
2, 9959, Note_off_c, 0, 73, 0
2, 9960, Note_on_c, 0, 75, 88
2, 10019, Note_off_c, 0, 75, 0
2, 10020, Note_on_c, 0, 76, 88
2, 10079, Note_off_c, 0, 76, 0
2, 10080, Note_on_c, 0, 70, 88
2, 10199, Note_off_c, 0, 70, 0
2, 10200, Note_on_c, 0, 75, 88
2, 10439, Note_off_c, 0, 75, 0
2, 10440, Note_on_c, 0, 73, 88
2, 10679, Note_off_c, 0, 73, 0
2, 10680, Note_on_c, 0, 71, 88
2, 10799, Note_off_c, 0, 71, 0
2, 10800, Note_on_c, 0, 70, 88
2, 11159, Note_off_c, 0, 70, 0
2, 11160, Note_on_c, 0, 68, 88
2, 11279, Note_off_c, 0, 68, 0
2, 11280, Note_on_c, 0, 80, 88
2, 11639, Note_off_c, 0, 80, 0
2, 11640, Note_on_c, 0, 78, 88
2, 11879, Note_off_c, 0, 78, 0
2, 11880, Note_on_c, 0, 77, 88
2, 11939, Note_off_c, 0, 77, 0
2, 11940, Note_on_c, 0, 75, 88
2, 11999, Note_off_c, 0, 75, 0
2, 12000, Note_on_c, 0, 74, 88
2, 12119, Note_off_c, 0, 74, 0
2, 12120, Note_on_c, 0, 77, 88
2, 12239, Note_off_c, 0, 77, 0
2, 12240, Note_on_c, 0, 78, 88
2, 12359, Note_off_c, 0, 78, 0
2, 12360, Note_on_c, 0, 74, 88
2, 12479, Note_off_c, 0, 74, 0
2, 12480, Note_on_c, 0, 75, 88
2, 12539, Note_off_c, 0, 75, 0
2, 12540, Note_on_c, 0, 73, 88
2, 12599, Note_off_c, 0, 73, 0
2, 12600, Note_on_c, 0, 71, 88
2, 12659, Note_off_c, 0, 71, 0
2, 12660, Note_on_c, 0, 70, 88
2, 12719, Note_off_c, 0, 70, 0
2, 12720, Note_on_c, 0, 68, 88
2, 12839, Note_off_c, 0, 68, 0
2, 12840, Note_on_c, 0, 70, 88
2, 12959, Note_off_c, 0, 70, 0
2, 12960, Note_on_c, 0, 71, 88
2, 13079, Note_off_c, 0, 71, 0
2, 13080, Note_on_c, 0, 70, 88
2, 13199, Note_off_c, 0, 70, 0
2, 13200, Note_on_c, 0, 68, 88
2, 13559, Note_off_c, 0, 68, 0
2, 13560, Note_on_c, 0, 66, 88
2, 13679, Note_off_c, 0, 66, 0
2, 13680, Note_on_c, 0, 65, 88
2, 13799, Note_off_c, 0, 65, 0
2, 13800, Note_on_c, 0, 64, 88
2, 13919, Note_off_c, 0, 64, 0
2, 13920, Note_on_c, 0, 63, 88
2, 14279, Note_off_c, 0, 63, 0
2, 14280, Note_on_c, 0, 61, 88
2, 14339, Note_off_c, 0, 61, 0
2, 14340, Note_on_c, 0, 63, 88
2, 14399, Note_off_c, 0, 63, 0
2, 14400, Note_on_c, 0, 64, 88
2, 14759, Note_off_c, 0, 64, 0
2, 14760, Note_on_c, 0, 63, 88
2, 14819, Note_off_c, 0, 63, 0
2, 14820, Note_on_c, 0, 65, 88
2, 14879, Note_off_c, 0, 65, 0
2, 14880, Note_on_c, 0, 66, 88
2, 15239, Note_off_c, 0, 66, 0
2, 15240, Note_on_c, 0, 65, 88
2, 15299, Note_off_c, 0, 65, 0
2, 15300, Note_on_c, 0, 67, 88
2, 15359, Note_off_c, 0, 67, 0
2, 15360, Note_on_c, 0, 68, 88
2, 19319, Note_off_c, 0, 68, 0
2, 19320, Note_on_c, 0, 75, 88
2, 19439, Note_off_c, 0, 75, 0
2, 19440, Note_on_c, 0, 75, 88
2, 19559, Note_off_c, 0, 75, 0
2, 19560, Note_on_c, 0, 75, 88
2, 19679, Note_off_c, 0, 75, 0
2, 19680, Note_on_c, 0, 74, 88
2, 19799, Note_off_c, 0, 74, 0
2, 19800, Note_on_c, 0, 75, 88
2, 19919, Note_off_c, 0, 75, 0
2, 19920, Note_on_c, 0, 77, 88
2, 20279, Note_off_c, 0, 77, 0
2, 20280, Note_on_c, 0, 75, 88
2, 20399, Note_off_c, 0, 75, 0
2, 20400, Note_on_c, 0, 80, 88
2, 20759, Note_off_c, 0, 80, 0
2, 20760, Note_on_c, 0, 78, 88
2, 20819, Note_off_c, 0, 78, 0
2, 20820, Note_on_c, 0, 77, 88
2, 20879, Note_off_c, 0, 77, 0
2, 20880, Note_on_c, 0, 82, 88
2, 20999, Note_off_c, 0, 82, 0
2, 21000, Note_on_c, 0, 80, 88
2, 21119, Note_off_c, 0, 80, 0
2, 21120, Note_on_c, 0, 78, 88
2, 21239, Note_off_c, 0, 78, 0
2, 21240, Note_on_c, 0, 82, 88
2, 21359, Note_off_c, 0, 82, 0
2, 21360, Note_on_c, 0, 75, 88
2, 21959, Note_off_c, 0, 75, 0
2, 21960, Note_on_c, 0, 74, 88
2, 22079, Note_off_c, 0, 74, 0
2, 22080, Note_on_c, 0, 75, 88
2, 25559, Note_off_c, 0, 75, 0
2, 25560, Note_on_c, 0, 73, 88
2, 25679, Note_off_c, 0, 73, 0
2, 25680, Note_on_c, 0, 73, 88
2, 25799, Note_off_c, 0, 73, 0
2, 25800, Note_on_c, 0, 73, 88
2, 25919, Note_off_c, 0, 73, 0
2, 25920, Note_on_c, 0, 72, 88
2, 26039, Note_off_c, 0, 72, 0
2, 26040, Note_on_c, 0, 73, 88
2, 26159, Note_off_c, 0, 73, 0
2, 26160, Note_on_c, 0, 75, 88
2, 26519, Note_off_c, 0, 75, 0
2, 26520, Note_on_c, 0, 73, 88
2, 26639, Note_off_c, 0, 73, 0
2, 26640, Note_on_c, 0, 78, 88
2, 26999, Note_off_c, 0, 78, 0
2, 27000, Note_on_c, 0, 76, 88
2, 27059, Note_off_c, 0, 76, 0
2, 27060, Note_on_c, 0, 75, 88
2, 27119, Note_off_c, 0, 75, 0
2, 27120, Note_on_c, 0, 80, 88
2, 27239, Note_off_c, 0, 80, 0
2, 27240, Note_on_c, 0, 78, 88
2, 27359, Note_off_c, 0, 78, 0
2, 27360, Note_on_c, 0, 77, 88
2, 27479, Note_off_c, 0, 77, 0
2, 27480, Note_on_c, 0, 73, 88
2, 27599, Note_off_c, 0, 73, 0
2, 27600, Note_on_c, 0, 78, 88
2, 28079, Note_off_c, 0, 78, 0
2, 28080, Note_on_c, 0, 78, 88
2, 28102, Note_off_c, 0, 78, 0
2, 28103, Note_on_c, 0, 77, 88
2, 28132, Note_off_c, 0, 77, 0
2, 28133, Note_on_c, 0, 78, 88
2, 28154, Note_off_c, 0, 78, 0
2, 28155, Note_on_c, 0, 77, 88
2, 28177, Note_off_c, 0, 77, 0
2, 28178, Note_on_c, 0, 78, 88
2, 28199, Note_off_c, 0, 78, 0
2, 28200, Note_on_c, 0, 77, 88
2, 28319, Note_off_c, 0, 77, 0
2, 28320, Note_on_c, 0, 78, 88
2, 28679, Note_off_c, 0, 78, 0
2, 28680, Note_on_c, 0, 76, 88
2, 28799, Note_off_c, 0, 76, 0
2, 28800, Note_on_c, 0, 75, 88
2, 29159, Note_off_c, 0, 75, 0
2, 29160, Note_on_c, 0, 73, 88
2, 29219, Note_off_c, 0, 73, 0
2, 29220, Note_on_c, 0, 71, 88
2, 29279, Note_off_c, 0, 71, 0
2, 29280, Note_on_c, 0, 70, 88
2, 29519, Note_off_c, 0, 70, 0
2, 29520, Note_on_c, 0, 82, 88
2, 29879, Note_off_c, 0, 82, 0
2, 29880, Note_on_c, 0, 80, 88
2, 29939, Note_off_c, 0, 80, 0
2, 29940, Note_on_c, 0, 79, 88
2, 29999, Note_off_c, 0, 79, 0
2, 30000, Note_on_c, 0, 80, 88
2, 30599, Note_off_c, 0, 80, 0
2, 30600, Note_on_c, 0, 79, 88
2, 30719, Note_off_c, 0, 79, 0
2, 30720, Note_on_c, 0, 80, 88
2, 31079, Note_off_c, 0, 80, 0
2, 31080, Note_on_c, 0, 78, 88
2, 31199, Note_off_c, 0, 78, 0
2, 31200, Note_on_c, 0, 77, 88
2, 31799, Note_off_c, 0, 77, 0
2, 31800, Note_on_c, 0, 75, 88
2, 31859, Note_off_c, 0, 75, 0
2, 31860, Note_on_c, 0, 73, 88
2, 31919, Note_off_c, 0, 73, 0
2, 31920, Note_on_c, 0, 71, 88
2, 32039, Note_off_c, 0, 71, 0
2, 32040, Note_on_c, 0, 70, 88
2, 32159, Note_off_c, 0, 70, 0
2, 32160, Note_on_c, 0, 69, 88
2, 32399, Note_off_c, 0, 69, 0
2, 32400, Note_on_c, 0, 70, 88
2, 32879, Note_off_c, 0, 70, 0
2, 32880, Note_on_c, 0, 70, 88
2, 32902, Note_off_c, 0, 70, 0
2, 32903, Note_on_c, 0, 69, 88
2, 32932, Note_off_c, 0, 69, 0
2, 32933, Note_on_c, 0, 70, 88
2, 32954, Note_off_c, 0, 70, 0
2, 32955, Note_on_c, 0, 69, 88
2, 32977, Note_off_c, 0, 69, 0
2, 32978, Note_on_c, 0, 70, 88
2, 32999, Note_off_c, 0, 70, 0
2, 33000, Note_on_c, 0, 69, 88
2, 33119, Note_off_c, 0, 69, 0
2, 33120, Note_on_c, 0, 70, 88
2, 33479, Note_off_c, 0, 70, 0
2, 33480, Note_on_c, 0, 68, 88
2, 33599, Note_off_c, 0, 68, 0
2, 33600, Note_on_c, 0, 67, 88
2, 33719, Note_off_c, 0, 67, 0
2, 33720, Note_on_c, 0, 73, 88
2, 33839, Note_off_c, 0, 73, 0
2, 33840, Note_on_c, 0, 71, 88
2, 33959, Note_off_c, 0, 71, 0
2, 33960, Note_on_c, 0, 70, 88
2, 34199, Note_off_c, 0, 70, 0
2, 34200, Note_on_c, 0, 68, 88
2, 34319, Note_off_c, 0, 68, 0
2, 34320, Note_on_c, 0, 73, 88
2, 34679, Note_off_c, 0, 73, 0
2, 34680, Note_on_c, 0, 71, 88
2, 34739, Note_off_c, 0, 71, 0
2, 34740, Note_on_c, 0, 70, 88
2, 34799, Note_off_c, 0, 70, 0
2, 34800, Note_on_c, 0, 71, 88
2, 34919, Note_off_c, 0, 71, 0
2, 34920, Note_on_c, 0, 76, 88
2, 35039, Note_off_c, 0, 76, 0
2, 35040, Note_on_c, 0, 74, 88
2, 35159, Note_off_c, 0, 74, 0
2, 35160, Note_on_c, 0, 70, 88
2, 35279, Note_off_c, 0, 70, 0
2, 35280, Note_on_c, 0, 80, 88
2, 35639, Note_off_c, 0, 80, 0
2, 35640, Note_on_c, 0, 78, 88
2, 35699, Note_off_c, 0, 78, 0
2, 35700, Note_on_c, 0, 77, 88
2, 35759, Note_off_c, 0, 77, 0
2, 35760, Note_on_c, 0, 78, 88
2, 35879, Note_off_c, 0, 78, 0
2, 35880, Note_on_c, 0, 83, 88
2, 35999, Note_off_c, 0, 83, 0
2, 36000, Note_on_c, 0, 81, 88
2, 36119, Note_off_c, 0, 81, 0
2, 36120, Note_on_c, 0, 77, 88
2, 36239, Note_off_c, 0, 77, 0
2, 36240, Note_on_c, 0, 82, 88
2, 36299, Note_off_c, 0, 82, 0
2, 36300, Note_on_c, 0, 80, 88
2, 36359, Note_off_c, 0, 80, 0
2, 36360, Note_on_c, 0, 79, 88
2, 36419, Note_off_c, 0, 79, 0
2, 36420, Note_on_c, 0, 77, 88
2, 36479, Note_off_c, 0, 77, 0
2, 36480, Note_on_c, 0, 75, 88
2, 36779, Note_off_c, 0, 75, 0
2, 36780, Note_on_c, 0, 78, 88
2, 36839, Note_off_c, 0, 78, 0
2, 36840, Note_on_c, 0, 77, 88
2, 36899, Note_off_c, 0, 77, 0
2, 36900, Note_on_c, 0, 75, 88
2, 36959, Note_off_c, 0, 75, 0
2, 36960, Note_on_c, 0, 74, 88
2, 37019, Note_off_c, 0, 74, 0
2, 37020, Note_on_c, 0, 77, 88
2, 37079, Note_off_c, 0, 77, 0
2, 37080, Note_on_c, 0, 75, 88
2, 37139, Note_off_c, 0, 75, 0
2, 37140, Note_on_c, 0, 73, 88
2, 37199, Note_off_c, 0, 73, 0
2, 37200, Note_on_c, 0, 72, 88
2, 37259, Note_off_c, 0, 72, 0
2, 37260, Note_on_c, 0, 75, 88
2, 37319, Note_off_c, 0, 75, 0
2, 37320, Note_on_c, 0, 73, 88
2, 37379, Note_off_c, 0, 73, 0
2, 37380, Note_on_c, 0, 71, 88
2, 37439, Note_off_c, 0, 71, 0
2, 37440, Note_on_c, 0, 70, 88
2, 37799, Note_off_c, 0, 70, 0
2, 37800, Note_on_c, 0, 68, 88
2, 37979, Note_off_c, 0, 68, 0
2, 37980, Note_on_c, 0, 65, 88
2, 38039, Note_off_c, 0, 65, 0
2, 38040, Note_on_c, 0, 66, 88
2, 38099, Note_off_c, 0, 66, 0
2, 38100, Note_on_c, 0, 70, 88
2, 38159, Note_off_c, 0, 70, 0
2, 38160, Note_on_c, 0, 75, 88
2, 38219, Note_off_c, 0, 75, 0
2, 38220, Note_on_c, 0, 70, 88
2, 38279, Note_off_c, 0, 70, 0
2, 38280, Note_on_c, 0, 78, 88
2, 38399, Note_off_c, 0, 78, 0
2, 38400, Note_on_c, 0, 78, 88
2, 38414, Note_off_c, 0, 78, 0
2, 38415, Note_on_c, 0, 77, 88
2, 38437, Note_off_c, 0, 77, 0
2, 38438, Note_on_c, 0, 78, 88
2, 38459, Note_off_c, 0, 78, 0
2, 38460, Note_on_c, 0, 77, 88
2, 38759, Note_off_c, 0, 77, 0
2, 38760, Note_on_c, 0, 83, 88
2, 38879, Note_off_c, 0, 83, 0
2, 38880, Note_on_c, 0, 83, 88
2, 38894, Note_off_c, 0, 83, 0
2, 38895, Note_on_c, 0, 82, 88
2, 38917, Note_off_c, 0, 82, 0
2, 38918, Note_on_c, 0, 83, 88
2, 38939, Note_off_c, 0, 83, 0
2, 38940, Note_on_c, 0, 82, 88
2, 39239, Note_off_c, 0, 82, 0
2, 39240, Note_on_c, 0, 80, 88
2, 39359, Note_off_c, 0, 80, 0
2, 39360, Note_on_c, 0, 75, 88
2, 39374, Note_off_c, 0, 75, 0
2, 39375, Note_on_c, 0, 74, 88
2, 39397, Note_off_c, 0, 74, 0
2, 39398, Note_on_c, 0, 75, 88
2, 39419, Note_off_c, 0, 75, 0
2, 39420, Note_on_c, 0, 74, 88
2, 39719, Note_off_c, 0, 74, 0
2, 39720, Note_on_c, 0, 77, 88
2, 39839, Note_off_c, 0, 77, 0
2, 39840, Note_on_c, 0, 70, 88
2, 39959, Note_off_c, 0, 70, 0
2, 39960, Note_on_c, 0, 75, 88
2, 40019, Note_off_c, 0, 75, 0
2, 40020, Note_on_c, 0, 74, 88
2, 40079, Note_off_c, 0, 74, 0
2, 40080, Note_on_c, 0, 75, 88
2, 40199, Note_off_c, 0, 75, 0
2, 40200, Note_on_c, 0, 68, 88
2, 40319, Note_off_c, 0, 68, 0
2, 40320, Note_on_c, 0, 66, 88
2, 40559, Note_off_c, 0, 66, 0
2, 40560, Note_on_c, 0, 66, 88
2, 40582, Note_off_c, 0, 66, 0
2, 40583, Note_on_c, 0, 65, 88
2, 40612, Note_off_c, 0, 65, 0
2, 40613, Note_on_c, 0, 66, 88
2, 40634, Note_off_c, 0, 66, 0
2, 40635, Note_on_c, 0, 65, 88
2, 40657, Note_off_c, 0, 65, 0
2, 40658, Note_on_c, 0, 66, 88
2, 40679, Note_off_c, 0, 66, 0
2, 40680, Note_on_c, 0, 65, 88
2, 40799, Note_off_c, 0, 65, 0
2, 40800, Note_on_c, 0, 63, 88
2, 40919, Note_off_c, 0, 63, 0
2, 40920, Note_on_c, 0, 75, 88
2, 41039, Note_off_c, 0, 75, 0
2, 41040, Note_on_c, 0, 75, 88
2, 41159, Note_off_c, 0, 75, 0
2, 41160, Note_on_c, 0, 75, 88
2, 41279, Note_off_c, 0, 75, 0
2, 41280, Note_on_c, 0, 74, 88
2, 41399, Note_off_c, 0, 74, 0
2, 41400, Note_on_c, 0, 75, 88
2, 41519, Note_off_c, 0, 75, 0
2, 41520, Note_on_c, 0, 77, 88
2, 41879, Note_off_c, 0, 77, 0
2, 41880, Note_on_c, 0, 75, 88
2, 41999, Note_off_c, 0, 75, 0
2, 42000, Note_on_c, 0, 80, 88
2, 42359, Note_off_c, 0, 80, 0
2, 42360, Note_on_c, 0, 78, 88
2, 42419, Note_off_c, 0, 78, 0
2, 42420, Note_on_c, 0, 77, 88
2, 42479, Note_off_c, 0, 77, 0
2, 42480, Note_on_c, 0, 82, 88
2, 42599, Note_off_c, 0, 82, 0
2, 42600, Note_on_c, 0, 80, 88
2, 42719, Note_off_c, 0, 80, 0
2, 42720, Note_on_c, 0, 78, 88
2, 42839, Note_off_c, 0, 78, 0
2, 42840, Note_on_c, 0, 74, 88
2, 42959, Note_off_c, 0, 74, 0
2, 42960, Note_on_c, 0, 75, 88
2, 43439, Note_off_c, 0, 75, 0
2, 43440, Note_on_c, 0, 75, 88
2, 43462, Note_off_c, 0, 75, 0
2, 43463, Note_on_c, 0, 74, 88
2, 43492, Note_off_c, 0, 74, 0
2, 43493, Note_on_c, 0, 75, 88
2, 43514, Note_off_c, 0, 75, 0
2, 43515, Note_on_c, 0, 74, 88
2, 43537, Note_off_c, 0, 74, 0
2, 43538, Note_on_c, 0, 75, 88
2, 43559, Note_off_c, 0, 75, 0
2, 43560, Note_on_c, 0, 74, 88
2, 43679, Note_off_c, 0, 74, 0
2, 43680, Note_on_c, 0, 75, 88
2, 43720, Note_off_c, 0, 75, 0
2, 43720, End_track
0, 0, End_of_file