0, 0, Header, 1, 2, 240
1, 0, Start_track
1, 0, Time_signature, 4, 2, 24, 8
1, 0, Tempo, 468750
1, 0, SMPTE_offset, 64, 0, 0, 0, 100
1, 0, End_track
2, 0, Start_track
2, 0, Title_t, "Track 1"
2, 0, Program_c, 0, 6
2, 8640, Note_on_c, 0, 71, 88
2, 9599, Note_off_c, 0, 71, 0
2, 9600, Note_on_c, 0, 73, 88
2, 10079, Note_off_c, 0, 73, 0
2, 10080, Note_on_c, 0, 76, 88
2, 10559, Note_off_c, 0, 76, 0
2, 10560, Note_on_c, 0, 75, 88
2, 11039, Note_off_c, 0, 75, 0
2, 11040, Note_on_c, 0, 73, 88
2, 11519, Note_off_c, 0, 73, 0
2, 11520, Note_on_c, 0, 71, 88
2, 12719, Note_off_c, 0, 71, 0
2, 12720, Note_on_c, 0, 69, 88
2, 12839, Note_off_c, 0, 69, 0
2, 12840, Note_on_c, 0, 68, 88
2, 12959, Note_off_c, 0, 68, 0
2, 12960, Note_on_c, 0, 69, 88
2, 13919, Note_off_c, 0, 69, 0
2, 13920, Note_on_c, 0, 68, 88
2, 14399, Note_off_c, 0, 68, 0
2, 14400, Note_on_c, 0, 66, 88
2, 14879, Note_off_c, 0, 66, 0
2, 14880, Note_on_c, 0, 64, 88
2, 15359, Note_off_c, 0, 64, 0
2, 15360, Note_on_c, 0, 63, 88
2, 19199, Note_off_c, 0, 63, 0
2, 19200, Note_on_c, 0, 64, 88
2, 20159, Note_off_c, 0, 64, 0
2, 20160, Note_on_c, 0, 66, 88
2, 20639, Note_off_c, 0, 66, 0
2, 20640, Note_on_c, 0, 69, 88
2, 21119, Note_off_c, 0, 69, 0
2, 21120, Note_on_c, 0, 68, 88
2, 21599, Note_off_c, 0, 68, 0
2, 21600, Note_on_c, 0, 66, 88
2, 22079, Note_off_c, 0, 66, 0
2, 22080, Note_on_c, 0, 65, 88
2, 22319, Note_off_c, 0, 65, 0
2, 22320, Note_on_c, 0, 66, 88
2, 22559, Note_off_c, 0, 66, 0
2, 22560, Note_on_c, 0, 68, 88
2, 22799, Note_off_c, 0, 68, 0
2, 22800, Note_on_c, 0, 69, 88
2, 23039, Note_off_c, 0, 69, 0
2, 23040, Note_on_c, 0, 71, 88
2, 23279, Note_off_c, 0, 71, 0
2, 23280, Note_on_c, 0, 66, 88
2, 23519, Note_off_c, 0, 66, 0
2, 23520, Note_on_c, 0, 71, 88
2, 24479, Note_off_c, 0, 71, 0
2, 24480, Note_on_c, 0, 69, 88
2, 24959, Note_off_c, 0, 69, 0
2, 24960, Note_on_c, 0, 68, 88
2, 26639, Note_off_c, 0, 68, 0
2, 26640, Note_on_c, 0, 69, 88
2, 26759, Note_off_c, 0, 69, 0
2, 26760, Note_on_c, 0, 71, 88
2, 26879, Note_off_c, 0, 71, 0
2, 26880, Note_on_c, 0, 73, 88
2, 27119, Note_off_c, 0, 73, 0
2, 27120, Note_on_c, 0, 72, 88
2, 27359, Note_off_c, 0, 72, 0
2, 27360, Note_on_c, 0, 73, 88
2, 27599, Note_off_c, 0, 73, 0
2, 27600, Note_on_c, 0, 75, 88
2, 27839, Note_off_c, 0, 75, 0
2, 27840, Note_on_c, 0, 72, 88
2, 28079, Note_off_c, 0, 72, 0
2, 28080, Note_on_c, 0, 73, 88
2, 28559, Note_off_c, 0, 73, 0
2, 28560, Note_on_c, 0, 73, 88
2, 28589, Note_off_c, 0, 73, 0
2, 28590, Note_on_c, 0, 72, 88
2, 28634, Note_off_c, 0, 72, 0
2, 28635, Note_on_c, 0, 73, 88
2, 28679, Note_off_c, 0, 73, 0
2, 28680, Note_on_c, 0, 72, 88
2, 28709, Note_off_c, 0, 72, 0
2, 28710, Note_on_c, 0, 73, 88
2, 28739, Note_off_c, 0, 73, 0
2, 28740, Note_on_c, 0, 72, 88
2, 28799, Note_off_c, 0, 72, 0
2, 28800, Note_on_c, 0, 73, 88
2, 30719, Note_off_c, 0, 73, 0
2, 30720, Note_on_c, 0, 71, 88
2, 31679, Note_off_c, 0, 71, 0
2, 31680, Note_on_c, 0, 73, 88
2, 32159, Note_off_c, 0, 73, 0
2, 32160, Note_on_c, 0, 76, 88
2, 32639, Note_off_c, 0, 76, 0
2, 32640, Note_on_c, 0, 75, 88
2, 33119, Note_off_c, 0, 75, 0
2, 33120, Note_on_c, 0, 73, 88
2, 33599, Note_off_c, 0, 73, 0
2, 33600, Note_on_c, 0, 71, 88
2, 34079, Note_off_c, 0, 71, 0
2, 34080, Note_on_c, 0, 73, 88
2, 34559, Note_off_c, 0, 73, 0
2, 34560, Note_on_c, 0, 66, 88
2, 34799, Note_off_c, 0, 66, 0
2, 34800, Note_on_c, 0, 63, 88
2, 35039, Note_off_c, 0, 63, 0
2, 35040, Note_on_c, 0, 68, 88
2, 35759, Note_off_c, 0, 68, 0
2, 35760, Note_on_c, 0, 66, 88
2, 35879, Note_off_c, 0, 66, 0
2, 35880, Note_on_c, 0, 65, 88
2, 35999, Note_off_c, 0, 65, 0
2, 36000, Note_on_c, 0, 66, 88
2, 36719, Note_off_c, 0, 66, 0
2, 36720, Note_on_c, 0, 64, 88
2, 36839, Note_off_c, 0, 64, 0
2, 36840, Note_on_c, 0, 63, 88
2, 36959, Note_off_c, 0, 63, 0
2, 36960, Note_on_c, 0, 64, 88
2, 37199, Note_off_c, 0, 64, 0
2, 37200, Note_on_c, 0, 66, 88
2, 37319, Note_off_c, 0, 66, 0
2, 37320, Note_on_c, 0, 64, 88
2, 37439, Note_off_c, 0, 64, 0
2, 37440, Note_on_c, 0, 63, 88
2, 37679, Note_off_c, 0, 63, 0
2, 37680, Note_on_c, 0, 71, 88
2, 37919, Note_off_c, 0, 71, 0
2, 37920, Note_on_c, 0, 65, 88
2, 38639, Note_off_c, 0, 65, 0
2, 38640, Note_on_c, 0, 66, 88
2, 39119, Note_off_c, 0, 66, 0
2, 39120, Note_on_c, 0, 65, 88
2, 39359, Note_off_c, 0, 65, 0
2, 39360, Note_on_c, 0, 73, 88
2, 39839, Note_off_c, 0, 73, 0
2, 39840, Note_on_c, 0, 71, 88
2, 40559, Note_off_c, 0, 71, 0
2, 40560, Note_on_c, 0, 69, 88
2, 41039, Note_off_c, 0, 69, 0
2, 41040, Note_on_c, 0, 68, 88
2, 41519, Note_off_c, 0, 68, 0
2, 41520, Note_on_c, 0, 66, 88
2, 41999, Note_off_c, 0, 66, 0
2, 42000, Note_on_c, 0, 66, 88
2, 42029, Note_off_c, 0, 66, 0
2, 42030, Note_on_c, 0, 65, 88
2, 42074, Note_off_c, 0, 65, 0
2, 42075, Note_on_c, 0, 66, 88
2, 42119, Note_off_c, 0, 66, 0
2, 42120, Note_on_c, 0, 65, 88
2, 42149, Note_off_c, 0, 65, 0
2, 42150, Note_on_c, 0, 66, 88
2, 42179, Note_off_c, 0, 66, 0
2, 42180, Note_on_c, 0, 65, 88
2, 42239, Note_off_c, 0, 65, 0
2, 42240, Note_on_c, 0, 66, 88
2, 43199, Note_off_c, 0, 66, 0
2, 43200, Note_on_c, 0, 68, 88
2, 43439, Note_off_c, 0, 68, 0
2, 43440, Note_on_c, 0, 69, 88
2, 43679, Note_off_c, 0, 69, 0
2, 43680, Note_on_c, 0, 71, 88
2, 44399, Note_off_c, 0, 71, 0
2, 44400, Note_on_c, 0, 69, 88
2, 44639, Note_off_c, 0, 69, 0
2, 44640, Note_on_c, 0, 68, 88
2, 45119, Note_off_c, 0, 68, 0
2, 45120, Note_on_c, 0, 66, 88
2, 45599, Note_off_c, 0, 66, 0
2, 45600, Note_on_c, 0, 64, 88
2, 45839, Note_off_c, 0, 64, 0
2, 45840, Note_on_c, 0, 66, 88
2, 46079, Note_off_c, 0, 66, 0
2, 46080, Note_on_c, 0, 68, 88
2, 46799, Note_off_c, 0, 68, 0
2, 46800, Note_on_c, 0, 69, 88
2, 47039, Note_off_c, 0, 69, 0
2, 47040, Note_on_c, 0, 68, 88
2, 47279, Note_off_c, 0, 68, 0
2, 47280, Note_on_c, 0, 66, 88
2, 47519, Note_off_c, 0, 66, 0
2, 47520, Note_on_c, 0, 64, 88
2, 49439, Note_off_c, 0, 64, 0
2, 49440, Note_on_c, 0, 68, 88
2, 49919, Note_off_c, 0, 68, 0
2, 49920, Note_on_c, 0, 69, 88
2, 50159, Note_off_c, 0, 69, 0
2, 50160, Note_on_c, 0, 73, 88
2, 50399, Note_off_c, 0, 73, 0
2, 50400, Note_on_c, 0, 71, 88
2, 50639, Note_off_c, 0, 71, 0
2, 50640, Note_on_c, 0, 69, 88
2, 50879, Note_off_c, 0, 69, 0
2, 50880, Note_on_c, 0, 68, 88
2, 51359, Note_off_c, 0, 68, 0
2, 51360, Note_on_c, 0, 70, 88
2, 51839, Note_off_c, 0, 70, 0
2, 51840, Note_on_c, 0, 71, 88
2, 53519, Note_off_c, 0, 71, 0
2, 53520, Note_on_c, 0, 70, 88
2, 53759, Note_off_c, 0, 70, 0
2, 53760, Note_on_c, 0, 71, 88
2, 53999, Note_off_c, 0, 71, 0
2, 54000, Note_on_c, 0, 68, 88
2, 54239, Note_off_c, 0, 68, 0
2, 54240, Note_on_c, 0, 69, 88
2, 54479, Note_off_c, 0, 69, 0
2, 54480, Note_on_c, 0, 71, 88
2, 54719, Note_off_c, 0, 71, 0
2, 54720, Note_on_c, 0, 73, 88
2, 54959, Note_off_c, 0, 73, 0
2, 54960, Note_on_c, 0, 75, 88
2, 55199, Note_off_c, 0, 75, 0
2, 55200, Note_on_c, 0, 76, 88
2, 56399, Note_off_c, 0, 76, 0
2, 56400, Note_on_c, 0, 75, 88
2, 56639, Note_off_c, 0, 75, 0
2, 56640, Note_on_c, 0, 76, 88
2, 56879, Note_off_c, 0, 76, 0
2, 56880, Note_on_c, 0, 71, 88
2, 57359, Note_off_c, 0, 71, 0
2, 57360, Note_on_c, 0, 70, 88
2, 57599, Note_off_c, 0, 70, 0
2, 57600, Note_on_c, 0, 71, 88
2, 58319, Note_off_c, 0, 71, 0
2, 58320, Note_on_c, 0, 78, 88
2, 58559, Note_off_c, 0, 78, 0
2, 58560, Note_on_c, 0, 71, 88
2, 58799, Note_off_c, 0, 71, 0
2, 58800, Note_on_c, 0, 68, 88
2, 59039, Note_off_c, 0, 68, 0
2, 59040, Note_on_c, 0, 69, 88
2, 59279, Note_off_c, 0, 69, 0
2, 59280, Note_on_c, 0, 71, 88
2, 59519, Note_off_c, 0, 71, 0
2, 59520, Note_on_c, 0, 73, 88
2, 59999, Note_off_c, 0, 73, 0
2, 60000, Note_on_c, 0, 71, 88
2, 60479, Note_off_c, 0, 71, 0
2, 60480, Note_on_c, 0, 69, 88
2, 60959, Note_off_c, 0, 69, 0
2, 60960, Note_on_c, 0, 68, 88
2, 61439, Note_off_c, 0, 68, 0
2, 61440, Note_on_c, 0, 66, 88
2, 61679, Note_off_c, 0, 66, 0
2, 61680, Note_on_c, 0, 76, 88
2, 61919, Note_off_c, 0, 76, 0
2, 61920, Note_on_c, 0, 75, 88
2, 62159, Note_off_c, 0, 75, 0
2, 62160, Note_on_c, 0, 73, 88
2, 62399, Note_off_c, 0, 73, 0
2, 62400, Note_on_c, 0, 71, 88
2, 62879, Note_off_c, 0, 71, 0
2, 62880, Note_on_c, 0, 70, 88
2, 63599, Note_off_c, 0, 70, 0
2, 63600, Note_on_c, 0, 68, 88
2, 63719, Note_off_c, 0, 68, 0
2, 63720, Note_on_c, 0, 67, 88
2, 63839, Note_off_c, 0, 67, 0
2, 63840, Note_on_c, 0, 68, 88
2, 65039, Note_off_c, 0, 68, 0
2, 65040, Note_on_c, 0, 68, 88
2, 65069, Note_off_c, 0, 68, 0
2, 65070, Note_on_c, 0, 67, 88
2, 65114, Note_off_c, 0, 67, 0
2, 65115, Note_on_c, 0, 68, 88
2, 65159, Note_off_c, 0, 68, 0
2, 65160, Note_on_c, 0, 67, 88
2, 65189, Note_off_c, 0, 67, 0
2, 65190, Note_on_c, 0, 68, 88
2, 65219, Note_off_c, 0, 68, 0
2, 65220, Note_on_c, 0, 67, 88
2, 65279, Note_off_c, 0, 67, 0
2, 65280, Note_on_c, 0, 68, 88
2, 65999, Note_off_c, 0, 68, 0
2, 66000, Note_on_c, 0, 71, 88
2, 66239, Note_off_c, 0, 71, 0
2, 66240, Note_on_c, 0, 68, 88
2, 66479, Note_off_c, 0, 68, 0
2, 66480, Note_on_c, 0, 64, 88
2, 66719, Note_off_c, 0, 64, 0
2, 66720, Note_on_c, 0, 66, 88
2, 66959, Note_off_c, 0, 66, 0
2, 66960, Note_on_c, 0, 68, 88
2, 67199, Note_off_c, 0, 68, 0
2, 67200, Note_on_c, 0, 69, 88
2, 67439, Note_off_c, 0, 69, 0
2, 67440, Note_on_c, 0, 71, 88
2, 67679, Note_off_c, 0, 71, 0
2, 67680, Note_on_c, 0, 73, 88
2, 67919, Note_off_c, 0, 73, 0
2, 67920, Note_on_c, 0, 75, 88
2, 68159, Note_off_c, 0, 75, 0
2, 68160, Note_on_c, 0, 76, 88
2, 68279, Note_off_c, 0, 76, 0
2, 68280, Note_on_c, 0, 71, 88
2, 68399, Note_off_c, 0, 71, 0
2, 68400, Note_on_c, 0, 76, 88
2, 68879, Note_off_c, 0, 76, 0
2, 68880, Note_on_c, 0, 75, 88
2, 69359, Note_off_c, 0, 75, 0
2, 69360, Note_on_c, 0, 73, 88
2, 69479, Note_off_c, 0, 73, 0
2, 69480, Note_on_c, 0, 71, 88
2, 69599, Note_off_c, 0, 71, 0
2, 69600, Note_on_c, 0, 73, 88
2, 70079, Note_off_c, 0, 73, 0
2, 70080, Note_on_c, 0, 71, 88
2, 70559, Note_off_c, 0, 71, 0
2, 70560, Note_on_c, 0, 76, 88
2, 71039, Note_off_c, 0, 76, 0
2, 71040, Note_on_c, 0, 78, 88
2, 71519, Note_off_c, 0, 78, 0
2, 71520, Note_on_c, 0, 81, 88
2, 71999, Note_off_c, 0, 81, 0
2, 72000, Note_on_c, 0, 80, 88
2, 72479, Note_off_c, 0, 80, 0
2, 72480, Note_on_c, 0, 78, 88
2, 72959, Note_off_c, 0, 78, 0
2, 72960, Note_on_c, 0, 76, 88
2, 73439, Note_off_c, 0, 76, 0
2, 73440, Note_on_c, 0, 75, 88
2, 73919, Note_off_c, 0, 75, 0
2, 73920, Note_on_c, 0, 73, 88
2, 74399, Note_off_c, 0, 73, 0
2, 74400, Note_on_c, 0, 71, 88
2, 75119, Note_off_c, 0, 71, 0
2, 75120, Note_on_c, 0, 73, 88
2, 75359, Note_off_c, 0, 73, 0
2, 75360, Note_on_c, 0, 71, 88
2, 75599, Note_off_c, 0, 71, 0
2, 75600, Note_on_c, 0, 69, 88
2, 75839, Note_off_c, 0, 69, 0
2, 75840, Note_on_c, 0, 68, 88
2, 77279, Note_off_c, 0, 68, 0
2, 77280, Note_on_c, 0, 76, 88
2, 77759, Note_off_c, 0, 76, 0
2, 77760, Note_on_c, 0, 75, 88
2, 78239, Note_off_c, 0, 75, 0
2, 78240, Note_on_c, 0, 73, 88
2, 78719, Note_off_c, 0, 73, 0
2, 78720, Note_on_c, 0, 71, 88
2, 79199, Note_off_c, 0, 71, 0
2, 79200, Note_on_c, 0, 69, 88
2, 79679, Note_off_c, 0, 69, 0
2, 79680, Note_on_c, 0, 68, 88
2, 79799, Note_off_c, 0, 68, 0
2, 79800, Note_on_c, 0, 66, 88
2, 79919, Note_off_c, 0, 66, 0
2, 79920, Note_on_c, 0, 68, 88
2, 80039, Note_off_c, 0, 68, 0
2, 80040, Note_on_c, 0, 69, 88
2, 80159, Note_off_c, 0, 69, 0
2, 80160, Note_on_c, 0, 71, 88
2, 80399, Note_off_c, 0, 71, 0
2, 80400, Note_on_c, 0, 69, 88
2, 80639, Note_off_c, 0, 69, 0
2, 80640, Note_on_c, 0, 68, 88
2, 81119, Note_off_c, 0, 68, 0
2, 81120, Note_on_c, 0, 68, 88
2, 81149, Note_off_c, 0, 68, 0
2, 81150, Note_on_c, 0, 66, 88
2, 81194, Note_off_c, 0, 66, 0
2, 81195, Note_on_c, 0, 68, 88
2, 81239, Note_off_c, 0, 68, 0
2, 81240, Note_on_c, 0, 66, 88
2, 81284, Note_off_c, 0, 66, 0
2, 81285, Note_on_c, 0, 68, 88
2, 81329, Note_off_c, 0, 68, 0
2, 81330, Note_on_c, 0, 66, 88
2, 81359, Note_off_c, 0, 66, 0
2, 81360, Note_on_c, 0, 68, 88
2, 81389, Note_off_c, 0, 68, 0
2, 81390, Note_on_c, 0, 66, 88
2, 81599, Note_off_c, 0, 66, 0
2, 81600, Note_on_c, 0, 64, 88
2, 81640, Note_off_c, 0, 64, 0
2, 81640, End_track
0, 0, End_of_file