0, 0, Header, 1, 2, 240
1, 0, Start_track
1, 0, Time_signature, 4, 2, 24, 8
1, 0, Tempo, 576923
1, 0, SMPTE_offset, 64, 0, 0, 0, 100
1, 0, End_track
2, 0, Start_track
2, 0, Title_t, "Track 1"
2, 0, Program_c, 0, 6
2, 80, Note_on_c, 0, 64, 88
2, 159, Note_off_c, 0, 64, 0
2, 160, Note_on_c, 0, 66, 88
2, 239, Note_off_c, 0, 66, 0
2, 240, Note_on_c, 0, 67, 88
2, 479, Note_off_c, 0, 67, 0
2, 480, Note_on_c, 0, 69, 88
2, 539, Note_off_c, 0, 69, 0
2, 540, Note_on_c, 0, 67, 88
2, 599, Note_off_c, 0, 67, 0
2, 600, Note_on_c, 0, 66, 88
2, 659, Note_off_c, 0, 66, 0
2, 660, Note_on_c, 0, 67, 88
2, 719, Note_off_c, 0, 67, 0
2, 720, Note_on_c, 0, 69, 88
2, 959, Note_off_c, 0, 69, 0
2, 960, Note_on_c, 0, 71, 88
2, 1019, Note_off_c, 0, 71, 0
2, 1020, Note_on_c, 0, 69, 88
2, 1079, Note_off_c, 0, 69, 0
2, 1080, Note_on_c, 0, 67, 88
2, 1139, Note_off_c, 0, 67, 0
2, 1140, Note_on_c, 0, 69, 88
2, 1199, Note_off_c, 0, 69, 0
2, 1200, Note_on_c, 0, 71, 88
2, 1439, Note_off_c, 0, 71, 0
2, 1440, Note_on_c, 0, 67, 88
2, 1679, Note_off_c, 0, 67, 0
2, 1680, Note_on_c, 0, 64, 88
2, 1919, Note_off_c, 0, 64, 0
2, 1920, Note_on_c, 0, 72, 88
2, 2399, Note_off_c, 0, 72, 0
2, 2400, Note_on_c, 0, 71, 88
2, 2559, Note_off_c, 0, 71, 0
2, 2560, Note_on_c, 0, 75, 88
2, 2639, Note_off_c, 0, 75, 0
2, 2640, Note_on_c, 0, 76, 88
2, 2879, Note_off_c, 0, 76, 0
2, 2880, Note_on_c, 0, 69, 88
2, 3359, Note_off_c, 0, 69, 0
2, 3360, Note_on_c, 0, 67, 88
2, 3519, Note_off_c, 0, 67, 0
2, 3520, Note_on_c, 0, 75, 88
2, 3599, Note_off_c, 0, 75, 0
2, 3600, Note_on_c, 0, 76, 88
2, 3839, Note_off_c, 0, 76, 0
2, 3840, Note_on_c, 0, 66, 88
2, 4159, Note_off_c, 0, 66, 0
2, 4160, Note_on_c, 0, 67, 88
2, 4239, Note_off_c, 0, 67, 0
2, 4240, Note_on_c, 0, 69, 88
2, 4319, Note_off_c, 0, 69, 0
2, 4320, Note_on_c, 0, 67, 88
2, 4399, Note_off_c, 0, 67, 0
2, 4400, Note_on_c, 0, 66, 88
2, 4479, Note_off_c, 0, 66, 0
2, 4480, Note_on_c, 0, 64, 88
2, 4559, Note_off_c, 0, 64, 0
2, 4560, Note_on_c, 0, 63, 88
2, 4639, Note_off_c, 0, 63, 0
2, 4640, Note_on_c, 0, 72, 88
2, 4719, Note_off_c, 0, 72, 0
2, 4720, Note_on_c, 0, 71, 88
2, 4799, Note_off_c, 0, 71, 0
2, 4800, Note_on_c, 0, 69, 88
2, 4879, Note_off_c, 0, 69, 0
2, 4880, Note_on_c, 0, 67, 88
2, 4959, Note_off_c, 0, 67, 0
2, 4960, Note_on_c, 0, 66, 88
2, 5039, Note_off_c, 0, 66, 0
2, 5040, Note_on_c, 0, 67, 88
2, 5119, Note_off_c, 0, 67, 0
2, 5120, Note_on_c, 0, 69, 88
2, 5199, Note_off_c, 0, 69, 0
2, 5200, Note_on_c, 0, 71, 88
2, 5279, Note_off_c, 0, 71, 0
2, 5280, Note_on_c, 0, 69, 88
2, 5359, Note_off_c, 0, 69, 0
2, 5360, Note_on_c, 0, 67, 88
2, 5439, Note_off_c, 0, 67, 0
2, 5440, Note_on_c, 0, 66, 88
2, 5519, Note_off_c, 0, 66, 0
2, 5520, Note_on_c, 0, 64, 88
2, 5599, Note_off_c, 0, 64, 0
2, 5600, Note_on_c, 0, 76, 88
2, 5679, Note_off_c, 0, 76, 0
2, 5680, Note_on_c, 0, 74, 88
2, 5759, Note_off_c, 0, 74, 0
2, 5760, Note_on_c, 0, 73, 88
2, 5839, Note_off_c, 0, 73, 0
2, 5840, Note_on_c, 0, 71, 88
2, 5919, Note_off_c, 0, 71, 0
2, 5920, Note_on_c, 0, 70, 88
2, 5999, Note_off_c, 0, 70, 0
2, 6000, Note_on_c, 0, 71, 88
2, 6079, Note_off_c, 0, 71, 0
2, 6080, Note_on_c, 0, 74, 88
2, 6159, Note_off_c, 0, 74, 0
2, 6160, Note_on_c, 0, 78, 88
2, 6239, Note_off_c, 0, 78, 0
2, 6240, Note_on_c, 0, 80, 88
2, 6479, Note_off_c, 0, 80, 0
2, 6480, Note_on_c, 0, 73, 88
2, 6559, Note_off_c, 0, 73, 0
2, 6560, Note_on_c, 0, 76, 88
2, 6639, Note_off_c, 0, 76, 0
2, 6640, Note_on_c, 0, 79, 88
2, 6719, Note_off_c, 0, 79, 0
2, 6720, Note_on_c, 0, 82, 88
2, 6959, Note_off_c, 0, 82, 0
2, 6960, Note_on_c, 0, 74, 88
2, 7039, Note_off_c, 0, 74, 0
2, 7040, Note_on_c, 0, 78, 88
2, 7119, Note_off_c, 0, 78, 0
2, 7120, Note_on_c, 0, 82, 88
2, 7199, Note_off_c, 0, 82, 0
2, 7200, Note_on_c, 0, 83, 88
2, 7519, Note_off_c, 0, 83, 0
2, 7520, Note_on_c, 0, 81, 88
2, 7599, Note_off_c, 0, 81, 0
2, 7600, Note_on_c, 0, 79, 88
2, 7679, Note_off_c, 0, 79, 0
2, 7680, Note_on_c, 0, 78, 88
2, 7759, Note_off_c, 0, 78, 0
2, 7760, Note_on_c, 0, 76, 88
2, 7839, Note_off_c, 0, 76, 0
2, 7840, Note_on_c, 0, 75, 88
2, 7919, Note_off_c, 0, 75, 0
2, 7920, Note_on_c, 0, 76, 88
2, 8399, Note_off_c, 0, 76, 0
2, 8400, Note_on_c, 0, 74, 88
2, 8879, Note_off_c, 0, 74, 0
2, 8880, Note_on_c, 0, 73, 88
2, 9359, Note_off_c, 0, 73, 0
2, 9360, Note_on_c, 0, 71, 88
2, 9839, Note_off_c, 0, 71, 0
2, 9840, Note_on_c, 0, 70, 88
2, 10079, Note_off_c, 0, 70, 0
2, 10080, Note_on_c, 0, 71, 88
2, 10319, Note_off_c, 0, 71, 0
2, 10320, Note_on_c, 0, 73, 88
2, 11039, Note_off_c, 0, 73, 0
2, 11040, Note_on_c, 0, 78, 88
2, 11199, Note_off_c, 0, 78, 0
2, 11200, Note_on_c, 0, 70, 88
2, 11279, Note_off_c, 0, 70, 0
2, 11280, Note_on_c, 0, 71, 88
2, 11839, Note_off_c, 0, 71, 0
2, 11840, Note_on_c, 0, 67, 88
2, 11919, Note_off_c, 0, 67, 0
2, 11920, Note_on_c, 0, 71, 88
2, 11999, Note_off_c, 0, 71, 0
2, 12000, Note_on_c, 0, 73, 88
2, 12319, Note_off_c, 0, 73, 0
2, 12320, Note_on_c, 0, 69, 88
2, 12399, Note_off_c, 0, 69, 0
2, 12400, Note_on_c, 0, 72, 88
2, 12479, Note_off_c, 0, 72, 0
2, 12480, Note_on_c, 0, 75, 88
2, 12799, Note_off_c, 0, 75, 0
2, 12800, Note_on_c, 0, 71, 88
2, 12879, Note_off_c, 0, 71, 0
2, 12880, Note_on_c, 0, 75, 88
2, 12959, Note_off_c, 0, 75, 0
2, 12960, Note_on_c, 0, 76, 88
2, 13759, Note_off_c, 0, 76, 0
2, 13760, Note_on_c, 0, 75, 88
2, 13839, Note_off_c, 0, 75, 0
2, 13840, Note_on_c, 0, 76, 88
2, 13919, Note_off_c, 0, 76, 0
2, 13920, Note_on_c, 0, 78, 88
2, 14239, Note_off_c, 0, 78, 0
2, 14240, Note_on_c, 0, 76, 88
2, 14319, Note_off_c, 0, 76, 0
2, 14320, Note_on_c, 0, 74, 88
2, 14399, Note_off_c, 0, 74, 0
2, 14400, Note_on_c, 0, 73, 88
2, 14479, Note_off_c, 0, 73, 0
2, 14480, Note_on_c, 0, 75, 88
2, 14559, Note_off_c, 0, 75, 0
2, 14560, Note_on_c, 0, 76, 88
2, 14639, Note_off_c, 0, 76, 0
2, 14640, Note_on_c, 0, 75, 88
2, 14719, Note_off_c, 0, 75, 0
2, 14720, Note_on_c, 0, 76, 88
2, 14799, Note_off_c, 0, 76, 0
2, 14800, Note_on_c, 0, 78, 88
2, 14879, Note_off_c, 0, 78, 0
2, 14880, Note_on_c, 0, 71, 88
2, 15199, Note_off_c, 0, 71, 0
2, 15200, Note_on_c, 0, 69, 88
2, 15279, Note_off_c, 0, 69, 0
2, 15280, Note_on_c, 0, 67, 88
2, 15359, Note_off_c, 0, 67, 0
2, 15360, Note_on_c, 0, 69, 88
2, 15439, Note_off_c, 0, 69, 0
2, 15440, Note_on_c, 0, 71, 88
2, 15519, Note_off_c, 0, 71, 0
2, 15520, Note_on_c, 0, 72, 88
2, 15839, Note_off_c, 0, 72, 0
2, 15840, Note_on_c, 0, 71, 88
2, 15919, Note_off_c, 0, 71, 0
2, 15920, Note_on_c, 0, 69, 88
2, 15999, Note_off_c, 0, 69, 0
2, 16000, Note_on_c, 0, 67, 88
2, 16079, Note_off_c, 0, 67, 0
2, 16080, Note_on_c, 0, 69, 88
2, 16319, Note_off_c, 0, 69, 0
2, 16320, Note_on_c, 0, 63, 88
2, 16559, Note_off_c, 0, 63, 0
2, 16560, Note_on_c, 0, 71, 88
2, 17199, Note_off_c, 0, 71, 0
2, 17200, Note_on_c, 0, 64, 88
2, 17279, Note_off_c, 0, 64, 0
2, 17280, Note_on_c, 0, 63, 88
2, 17439, Note_off_c, 0, 63, 0
2, 17440, Note_on_c, 0, 64, 88
2, 17519, Note_off_c, 0, 64, 0
2, 17520, Note_on_c, 0, 72, 88
2, 18159, Note_off_c, 0, 72, 0
2, 18160, Note_on_c, 0, 66, 88
2, 18239, Note_off_c, 0, 66, 0
2, 18240, Note_on_c, 0, 64, 88
2, 18399, Note_off_c, 0, 64, 0
2, 18400, Note_on_c, 0, 66, 88
2, 18479, Note_off_c, 0, 66, 0
2, 18480, Note_on_c, 0, 74, 88
2, 19039, Note_off_c, 0, 74, 0
2, 19040, Note_on_c, 0, 67, 88
2, 19119, Note_off_c, 0, 67, 0
2, 19120, Note_on_c, 0, 69, 88
2, 19199, Note_off_c, 0, 69, 0
2, 19200, Note_on_c, 0, 71, 88
2, 19279, Note_off_c, 0, 71, 0
2, 19280, Note_on_c, 0, 72, 88
2, 19359, Note_off_c, 0, 72, 0
2, 19360, Note_on_c, 0, 74, 88
2, 19439, Note_off_c, 0, 74, 0
2, 19440, Note_on_c, 0, 76, 88
2, 19999, Note_off_c, 0, 76, 0
2, 20000, Note_on_c, 0, 66, 88
2, 20079, Note_off_c, 0, 66, 0
2, 20080, Note_on_c, 0, 67, 88
2, 20159, Note_off_c, 0, 67, 0
2, 20160, Note_on_c, 0, 69, 88
2, 20239, Note_off_c, 0, 69, 0
2, 20240, Note_on_c, 0, 71, 88
2, 20319, Note_off_c, 0, 71, 0
2, 20320, Note_on_c, 0, 72, 88
2, 20399, Note_off_c, 0, 72, 0
2, 20400, Note_on_c, 0, 74, 88
2, 20959, Note_off_c, 0, 74, 0
2, 20960, Note_on_c, 0, 64, 88
2, 21039, Note_off_c, 0, 64, 0
2, 21040, Note_on_c, 0, 66, 88
2, 21119, Note_off_c, 0, 66, 0
2, 21120, Note_on_c, 0, 67, 88
2, 21199, Note_off_c, 0, 67, 0
2, 21200, Note_on_c, 0, 69, 88
2, 21279, Note_off_c, 0, 69, 0
2, 21280, Note_on_c, 0, 71, 88
2, 21359, Note_off_c, 0, 71, 0
2, 21360, Note_on_c, 0, 72, 88
2, 21919, Note_off_c, 0, 72, 0
2, 21920, Note_on_c, 0, 62, 88
2, 21999, Note_off_c, 0, 62, 0
2, 22000, Note_on_c, 0, 64, 88
2, 22079, Note_off_c, 0, 64, 0
2, 22080, Note_on_c, 0, 66, 88
2, 22159, Note_off_c, 0, 66, 0
2, 22160, Note_on_c, 0, 67, 88
2, 22239, Note_off_c, 0, 67, 0
2, 22240, Note_on_c, 0, 69, 88
2, 22319, Note_off_c, 0, 69, 0
2, 22320, Note_on_c, 0, 71, 88
2, 22559, Note_off_c, 0, 71, 0
2, 22560, Note_on_c, 0, 72, 88
2, 22619, Note_off_c, 0, 72, 0
2, 22620, Note_on_c, 0, 71, 88
2, 22679, Note_off_c, 0, 71, 0
2, 22680, Note_on_c, 0, 69, 88
2, 22739, Note_off_c, 0, 69, 0
2, 22740, Note_on_c, 0, 71, 88
2, 22799, Note_off_c, 0, 71, 0
2, 22800, Note_on_c, 0, 72, 88
2, 23039, Note_off_c, 0, 72, 0
2, 23040, Note_on_c, 0, 74, 88
2, 23099, Note_off_c, 0, 74, 0
2, 23100, Note_on_c, 0, 72, 88
2, 23159, Note_off_c, 0, 72, 0
2, 23160, Note_on_c, 0, 71, 88
2, 23219, Note_off_c, 0, 71, 0
2, 23220, Note_on_c, 0, 72, 88
2, 23279, Note_off_c, 0, 72, 0
2, 23280, Note_on_c, 0, 74, 88
2, 23519, Note_off_c, 0, 74, 0
2, 23520, Note_on_c, 0, 71, 88
2, 23759, Note_off_c, 0, 71, 0
2, 23760, Note_on_c, 0, 67, 88
2, 23999, Note_off_c, 0, 67, 0
2, 24000, Note_on_c, 0, 76, 88
2, 24479, Note_off_c, 0, 76, 0
2, 24480, Note_on_c, 0, 74, 88
2, 24639, Note_off_c, 0, 74, 0
2, 24640, Note_on_c, 0, 78, 88
2, 24719, Note_off_c, 0, 78, 0
2, 24720, Note_on_c, 0, 79, 88
2, 24959, Note_off_c, 0, 79, 0
2, 24960, Note_on_c, 0, 72, 88
2, 25439, Note_off_c, 0, 72, 0
2, 25440, Note_on_c, 0, 71, 88
2, 25599, Note_off_c, 0, 71, 0
2, 25600, Note_on_c, 0, 78, 88
2, 25679, Note_off_c, 0, 78, 0
2, 25680, Note_on_c, 0, 79, 88
2, 25919, Note_off_c, 0, 79, 0
2, 25920, Note_on_c, 0, 69, 88
2, 26239, Note_off_c, 0, 69, 0
2, 26240, Note_on_c, 0, 71, 88
2, 26319, Note_off_c, 0, 71, 0
2, 26320, Note_on_c, 0, 72, 88
2, 26399, Note_off_c, 0, 72, 0
2, 26400, Note_on_c, 0, 71, 88
2, 26479, Note_off_c, 0, 71, 0
2, 26480, Note_on_c, 0, 69, 88
2, 26559, Note_off_c, 0, 69, 0
2, 26560, Note_on_c, 0, 67, 88
2, 26639, Note_off_c, 0, 67, 0
2, 26640, Note_on_c, 0, 66, 88
2, 26719, Note_off_c, 0, 66, 0
2, 26720, Note_on_c, 0, 76, 88
2, 26799, Note_off_c, 0, 76, 0
2, 26800, Note_on_c, 0, 74, 88
2, 26879, Note_off_c, 0, 74, 0
2, 26880, Note_on_c, 0, 72, 88
2, 26959, Note_off_c, 0, 72, 0
2, 26960, Note_on_c, 0, 71, 88
2, 27039, Note_off_c, 0, 71, 0
2, 27040, Note_on_c, 0, 69, 88
2, 27119, Note_off_c, 0, 69, 0
2, 27120, Note_on_c, 0, 71, 88
2, 27199, Note_off_c, 0, 71, 0
2, 27200, Note_on_c, 0, 72, 88
2, 27279, Note_off_c, 0, 72, 0
2, 27280, Note_on_c, 0, 74, 88
2, 27359, Note_off_c, 0, 74, 0
2, 27360, Note_on_c, 0, 72, 88
2, 27439, Note_off_c, 0, 72, 0
2, 27440, Note_on_c, 0, 71, 88
2, 27519, Note_off_c, 0, 71, 0
2, 27520, Note_on_c, 0, 69, 88
2, 27599, Note_off_c, 0, 69, 0
2, 27600, Note_on_c, 0, 67, 88
2, 27679, Note_off_c, 0, 67, 0
2, 27680, Note_on_c, 0, 79, 88
2, 27759, Note_off_c, 0, 79, 0
2, 27760, Note_on_c, 0, 78, 88
2, 27839, Note_off_c, 0, 78, 0
2, 27840, Note_on_c, 0, 76, 88
2, 27919, Note_off_c, 0, 76, 0
2, 27920, Note_on_c, 0, 74, 88
2, 27999, Note_off_c, 0, 74, 0
2, 28000, Note_on_c, 0, 73, 88
2, 28079, Note_off_c, 0, 73, 0
2, 28080, Note_on_c, 0, 74, 88
2, 28559, Note_off_c, 0, 74, 0
2, 28560, Note_on_c, 0, 73, 88
2, 29039, Note_off_c, 0, 73, 0
2, 29040, Note_on_c, 0, 72, 88
2, 29519, Note_off_c, 0, 72, 0
2, 29520, Note_on_c, 0, 71, 88
2, 29759, Note_off_c, 0, 71, 0
2, 29760, Note_on_c, 0, 74, 88
2, 29999, Note_off_c, 0, 74, 0
2, 30000, Note_on_c, 0, 79, 88
2, 30479, Note_off_c, 0, 79, 0
2, 30480, Note_on_c, 0, 78, 88
2, 30959, Note_off_c, 0, 78, 0
2, 30960, Note_on_c, 0, 76, 88
2, 31439, Note_off_c, 0, 76, 0
2, 31440, Note_on_c, 0, 74, 88
2, 31919, Note_off_c, 0, 74, 0
2, 31920, Note_on_c, 0, 73, 88
2, 32159, Note_off_c, 0, 73, 0
2, 32160, Note_on_c, 0, 74, 88
2, 32399, Note_off_c, 0, 74, 0
2, 32400, Note_on_c, 0, 76, 88
2, 33039, Note_off_c, 0, 76, 0
2, 33040, Note_on_c, 0, 73, 88
2, 33119, Note_off_c, 0, 73, 0
2, 33120, Note_on_c, 0, 74, 88
2, 33279, Note_off_c, 0, 74, 0
2, 33280, Note_on_c, 0, 76, 88
2, 33359, Note_off_c, 0, 76, 0
2, 33360, Note_on_c, 0, 78, 88
2, 33999, Note_off_c, 0, 78, 0
2, 34000, Note_on_c, 0, 75, 88
2, 34079, Note_off_c, 0, 75, 0
2, 34080, Note_on_c, 0, 76, 88
2, 34239, Note_off_c, 0, 76, 0
2, 34240, Note_on_c, 0, 78, 88
2, 34319, Note_off_c, 0, 78, 0
2, 34320, Note_on_c, 0, 79, 88
2, 34559, Note_off_c, 0, 79, 0
2, 34560, Note_on_c, 0, 73, 88
2, 34879, Note_off_c, 0, 73, 0
2, 34880, Note_on_c, 0, 74, 88
2, 34959, Note_off_c, 0, 74, 0
2, 34960, Note_on_c, 0, 76, 88
2, 35039, Note_off_c, 0, 76, 0
2, 35040, Note_on_c, 0, 74, 88
2, 35119, Note_off_c, 0, 74, 0
2, 35120, Note_on_c, 0, 73, 88
2, 35199, Note_off_c, 0, 73, 0
2, 35200, Note_on_c, 0, 71, 88
2, 35279, Note_off_c, 0, 71, 0
2, 35280, Note_on_c, 0, 82, 88
2, 35519, Note_off_c, 0, 82, 0
2, 35520, Note_on_c, 0, 73, 88
2, 35559, Note_off_c, 0, 73, 0
2, 35560, Note_on_c, 0, 74, 88
2, 35602, Note_off_c, 0, 74, 0
2, 35603, Note_on_c, 0, 73, 88
2, 35642, Note_off_c, 0, 73, 0
2, 35643, Note_on_c, 0, 71, 88
2, 35682, Note_off_c, 0, 71, 0
2, 35683, Note_on_c, 0, 73, 88
2, 35759, Note_off_c, 0, 73, 0
2, 35760, Note_on_c, 0, 78, 88
2, 36479, Note_off_c, 0, 78, 0
2, 36480, Note_on_c, 0, 76, 88
2, 36799, Note_off_c, 0, 76, 0
2, 36800, Note_on_c, 0, 78, 88
2, 36879, Note_off_c, 0, 78, 0
2, 36880, Note_on_c, 0, 76, 88
2, 36959, Note_off_c, 0, 76, 0
2, 36960, Note_on_c, 0, 74, 88
2, 37039, Note_off_c, 0, 74, 0
2, 37040, Note_on_c, 0, 73, 88
2, 37119, Note_off_c, 0, 73, 0
2, 37120, Note_on_c, 0, 71, 88
2, 37199, Note_off_c, 0, 71, 0
2, 37200, Note_on_c, 0, 78, 88
2, 37759, Note_off_c, 0, 78, 0
2, 37760, Note_on_c, 0, 79, 88
2, 37839, Note_off_c, 0, 79, 0
2, 37840, Note_on_c, 0, 78, 88
2, 37919, Note_off_c, 0, 78, 0
2, 37920, Note_on_c, 0, 76, 88
2, 37999, Note_off_c, 0, 76, 0
2, 38000, Note_on_c, 0, 75, 88
2, 38079, Note_off_c, 0, 75, 0
2, 38080, Note_on_c, 0, 73, 88
2, 38159, Note_off_c, 0, 73, 0
2, 38160, Note_on_c, 0, 81, 88
2, 38879, Note_off_c, 0, 81, 0
2, 38880, Note_on_c, 0, 79, 88
2, 39119, Note_off_c, 0, 79, 0
2, 39120, Note_on_c, 0, 78, 88
2, 40159, Note_off_c, 0, 78, 0
2, 40160, Note_on_c, 0, 76, 88
2, 40239, Note_off_c, 0, 76, 0
2, 40240, Note_on_c, 0, 68, 88
2, 40319, Note_off_c, 0, 68, 0
2, 40320, Note_on_c, 0, 70, 88
2, 40559, Note_off_c, 0, 70, 0
2, 40560, Note_on_c, 0, 74, 88
2, 40639, Note_off_c, 0, 74, 0
2, 40640, Note_on_c, 0, 78, 88
2, 40719, Note_off_c, 0, 78, 0
2, 40720, Note_on_c, 0, 70, 88
2, 40799, Note_off_c, 0, 70, 0
2, 40800, Note_on_c, 0, 71, 88
2, 41599, Note_off_c, 0, 71, 0
2, 41600, Note_on_c, 0, 73, 88
2, 41679, Note_off_c, 0, 73, 0
2, 41680, Note_on_c, 0, 71, 88
2, 41759, Note_off_c, 0, 71, 0
2, 41760, Note_on_c, 0, 70, 88
2, 41839, Note_off_c, 0, 70, 0
2, 41840, Note_on_c, 0, 68, 88
2, 41919, Note_off_c, 0, 68, 0
2, 41920, Note_on_c, 0, 66, 88
2, 42079, Note_off_c, 0, 66, 0
2, 42080, Note_on_c, 0, 71, 88
2, 42159, Note_off_c, 0, 71, 0
2, 42160, Note_on_c, 0, 69, 88
2, 42239, Note_off_c, 0, 69, 0
2, 42240, Note_on_c, 0, 67, 88
2, 42319, Note_off_c, 0, 67, 0
2, 42320, Note_on_c, 0, 66, 88
2, 42399, Note_off_c, 0, 66, 0
2, 42400, Note_on_c, 0, 64, 88
2, 42479, Note_off_c, 0, 64, 0
2, 42480, Note_on_c, 0, 70, 88
2, 42559, Note_off_c, 0, 70, 0
2, 42560, Note_on_c, 0, 66, 88
2, 42639, Note_off_c, 0, 66, 0
2, 42640, Note_on_c, 0, 68, 88
2, 42719, Note_off_c, 0, 68, 0
2, 42720, Note_on_c, 0, 70, 88
2, 42799, Note_off_c, 0, 70, 0
2, 42800, Note_on_c, 0, 71, 88
2, 42879, Note_off_c, 0, 71, 0
2, 42880, Note_on_c, 0, 73, 88
2, 42959, Note_off_c, 0, 73, 0
2, 42960, Note_on_c, 0, 74, 88
2, 43039, Note_off_c, 0, 74, 0
2, 43040, Note_on_c, 0, 61, 88
2, 43119, Note_off_c, 0, 61, 0
2, 43120, Note_on_c, 0, 62, 88
2, 43199, Note_off_c, 0, 62, 0
2, 43200, Note_on_c, 0, 64, 88
2, 43279, Note_off_c, 0, 64, 0
2, 43280, Note_on_c, 0, 66, 88
2, 43359, Note_off_c, 0, 66, 0
2, 43360, Note_on_c, 0, 67, 88
2, 43679, Note_off_c, 0, 67, 0
2, 43680, Note_on_c, 0, 66, 88
2, 43759, Note_off_c, 0, 66, 0
2, 43760, Note_on_c, 0, 64, 88
2, 43839, Note_off_c, 0, 64, 0
2, 43840, Note_on_c, 0, 62, 88
2, 43919, Note_off_c, 0, 62, 0
2, 43920, Note_on_c, 0, 64, 88
2, 44159, Note_off_c, 0, 64, 0
2, 44160, Note_on_c, 0, 58, 88
2, 44399, Note_off_c, 0, 58, 0
2, 44400, Note_on_c, 0, 66, 88
2, 45039, Note_off_c, 0, 66, 0
2, 45040, Note_on_c, 0, 59, 88
2, 45119, Note_off_c, 0, 59, 0
2, 45120, Note_on_c, 0, 58, 88
2, 45279, Note_off_c, 0, 58, 0
2, 45280, Note_on_c, 0, 59, 88
2, 45359, Note_off_c, 0, 59, 0
2, 45360, Note_on_c, 0, 67, 88
2, 45999, Note_off_c, 0, 67, 0
2, 46000, Note_on_c, 0, 61, 88
2, 46079, Note_off_c, 0, 61, 0
2, 46080, Note_on_c, 0, 59, 88
2, 46239, Note_off_c, 0, 59, 0
2, 46240, Note_on_c, 0, 61, 88
2, 46319, Note_off_c, 0, 61, 0
2, 46320, Note_on_c, 0, 69, 88
2, 46959, Note_off_c, 0, 69, 0
2, 46960, Note_on_c, 0, 64, 88
2, 47039, Note_off_c, 0, 64, 0
2, 47040, Note_on_c, 0, 63, 88
2, 47279, Note_off_c, 0, 63, 0
2, 47280, Note_on_c, 0, 64, 88
2, 47759, Note_off_c, 0, 64, 0
2, 47760, Note_on_c, 0, 72, 88
2, 48239, Note_off_c, 0, 72, 0
2, 48240, Note_on_c, 0, 71, 88
2, 48559, Note_off_c, 0, 71, 0
2, 48560, Note_on_c, 0, 76, 88
2, 48639, Note_off_c, 0, 76, 0
2, 48640, Note_on_c, 0, 74, 88
2, 48719, Note_off_c, 0, 74, 0
2, 48720, Note_on_c, 0, 72, 88
2, 48799, Note_off_c, 0, 72, 0
2, 48800, Note_on_c, 0, 71, 88
2, 48879, Note_off_c, 0, 71, 0
2, 48880, Note_on_c, 0, 69, 88
2, 48959, Note_off_c, 0, 69, 0
2, 48960, Note_on_c, 0, 68, 88
2, 49039, Note_off_c, 0, 68, 0
2, 49040, Note_on_c, 0, 69, 88
2, 49119, Note_off_c, 0, 69, 0
2, 49120, Note_on_c, 0, 71, 88
2, 49199, Note_off_c, 0, 71, 0
2, 49200, Note_on_c, 0, 64, 88
2, 49279, Note_off_c, 0, 64, 0
2, 49280, Note_on_c, 0, 66, 88
2, 49359, Note_off_c, 0, 66, 0
2, 49360, Note_on_c, 0, 64, 88
2, 49439, Note_off_c, 0, 64, 0
2, 49440, Note_on_c, 0, 63, 88
2, 49519, Note_off_c, 0, 63, 0
2, 49520, Note_on_c, 0, 64, 88
2, 49599, Note_off_c, 0, 64, 0
2, 49600, Note_on_c, 0, 66, 88
2, 49679, Note_off_c, 0, 66, 0
2, 49680, Note_on_c, 0, 59, 88
2, 49759, Note_off_c, 0, 59, 0
2, 49760, Note_on_c, 0, 64, 88
2, 49839, Note_off_c, 0, 64, 0
2, 49840, Note_on_c, 0, 62, 88
2, 49919, Note_off_c, 0, 62, 0
2, 49920, Note_on_c, 0, 61, 88
2, 49999, Note_off_c, 0, 61, 0
2, 50000, Note_on_c, 0, 63, 88
2, 50079, Note_off_c, 0, 63, 0
2, 50080, Note_on_c, 0, 64, 88
2, 50159, Note_off_c, 0, 64, 0
2, 50160, Note_on_c, 0, 63, 88
2, 50239, Note_off_c, 0, 63, 0
2, 50240, Note_on_c, 0, 64, 88
2, 50319, Note_off_c, 0, 64, 0
2, 50320, Note_on_c, 0, 66, 88
2, 50399, Note_off_c, 0, 66, 0
2, 50400, Note_on_c, 0, 59, 88
2, 50479, Note_off_c, 0, 59, 0
2, 50480, Note_on_c, 0, 60, 88
2, 50559, Note_off_c, 0, 60, 0
2, 50560, Note_on_c, 0, 57, 88
2, 50639, Note_off_c, 0, 57, 0
2, 50640, Note_on_c, 0, 55, 88
2, 50719, Note_off_c, 0, 55, 0
2, 50720, Note_on_c, 0, 57, 88
2, 50799, Note_off_c, 0, 57, 0
2, 50800, Note_on_c, 0, 59, 88
2, 50879, Note_off_c, 0, 59, 0
2, 50880, Note_on_c, 0, 60, 88
2, 50959, Note_off_c, 0, 60, 0
2, 50960, Note_on_c, 0, 59, 88
2, 51039, Note_off_c, 0, 59, 0
2, 51040, Note_on_c, 0, 57, 88
2, 51119, Note_off_c, 0, 57, 0
2, 51120, Note_on_c, 0, 59, 88
2, 51839, Note_off_c, 0, 59, 0
2, 51840, Note_on_c, 0, 75, 88
2, 52079, Note_off_c, 0, 75, 0
2, 52080, Note_on_c, 0, 76, 88
2, 52639, Note_off_c, 0, 76, 0
2, 52640, Note_on_c, 0, 77, 88
2, 52719, Note_off_c, 0, 77, 0
2, 52720, Note_on_c, 0, 76, 88
2, 52799, Note_off_c, 0, 76, 0
2, 52800, Note_on_c, 0, 74, 88
2, 52879, Note_off_c, 0, 74, 0
2, 52880, Note_on_c, 0, 72, 88
2, 52959, Note_off_c, 0, 72, 0
2, 52960, Note_on_c, 0, 71, 88
2, 53039, Note_off_c, 0, 71, 0
2, 53040, Note_on_c, 0, 72, 88
2, 53119, Note_off_c, 0, 72, 0
2, 53120, Note_on_c, 0, 74, 88
2, 53199, Note_off_c, 0, 74, 0
2, 53200, Note_on_c, 0, 76, 88
2, 53279, Note_off_c, 0, 76, 0
2, 53280, Note_on_c, 0, 74, 88
2, 53359, Note_off_c, 0, 74, 0
2, 53360, Note_on_c, 0, 72, 88
2, 53439, Note_off_c, 0, 72, 0
2, 53440, Note_on_c, 0, 71, 88
2, 53519, Note_off_c, 0, 71, 0
2, 53520, Note_on_c, 0, 69, 88
2, 53599, Note_off_c, 0, 69, 0
2, 53600, Note_on_c, 0, 83, 88
2, 53679, Note_off_c, 0, 83, 0
2, 53680, Note_on_c, 0, 81, 88
2, 53759, Note_off_c, 0, 81, 0
2, 53760, Note_on_c, 0, 79, 88
2, 53839, Note_off_c, 0, 79, 0
2, 53840, Note_on_c, 0, 78, 88
2, 53919, Note_off_c, 0, 78, 0
2, 53920, Note_on_c, 0, 76, 88
2, 53999, Note_off_c, 0, 76, 0
2, 54000, Note_on_c, 0, 78, 88
2, 54079, Note_off_c, 0, 78, 0
2, 54080, Note_on_c, 0, 79, 88
2, 54159, Note_off_c, 0, 79, 0
2, 54160, Note_on_c, 0, 81, 88
2, 54239, Note_off_c, 0, 81, 0
2, 54240, Note_on_c, 0, 79, 88
2, 54319, Note_off_c, 0, 79, 0
2, 54320, Note_on_c, 0, 78, 88
2, 54399, Note_off_c, 0, 78, 0
2, 54400, Note_on_c, 0, 76, 88
2, 54479, Note_off_c, 0, 76, 0
2, 54480, Note_on_c, 0, 74, 88
2, 54559, Note_off_c, 0, 74, 0
2, 54560, Note_on_c, 0, 76, 88
2, 54639, Note_off_c, 0, 76, 0
2, 54640, Note_on_c, 0, 74, 88
2, 54719, Note_off_c, 0, 74, 0
2, 54720, Note_on_c, 0, 72, 88
2, 54799, Note_off_c, 0, 72, 0
2, 54800, Note_on_c, 0, 71, 88
2, 54879, Note_off_c, 0, 71, 0
2, 54880, Note_on_c, 0, 69, 88
2, 54959, Note_off_c, 0, 69, 0
2, 54960, Note_on_c, 0, 71, 88
2, 55039, Note_off_c, 0, 71, 0
2, 55040, Note_on_c, 0, 72, 88
2, 55119, Note_off_c, 0, 72, 0
2, 55120, Note_on_c, 0, 74, 88
2, 55199, Note_off_c, 0, 74, 0
2, 55200, Note_on_c, 0, 72, 88
2, 55279, Note_off_c, 0, 72, 0
2, 55280, Note_on_c, 0, 71, 88
2, 55359, Note_off_c, 0, 71, 0
2, 55360, Note_on_c, 0, 69, 88
2, 55439, Note_off_c, 0, 69, 0
2, 55440, Note_on_c, 0, 67, 88
2, 56719, Note_off_c, 0, 67, 0
2, 56720, Note_on_c, 0, 69, 88
2, 56799, Note_off_c, 0, 69, 0
2, 56800, Note_on_c, 0, 71, 88
2, 56879, Note_off_c, 0, 71, 0
2, 56880, Note_on_c, 0, 72, 88
2, 57119, Note_off_c, 0, 72, 0
2, 57120, Note_on_c, 0, 74, 88
2, 57179, Note_off_c, 0, 74, 0
2, 57180, Note_on_c, 0, 72, 88
2, 57239, Note_off_c, 0, 72, 0
2, 57240, Note_on_c, 0, 71, 88
2, 57299, Note_off_c, 0, 71, 0
2, 57300, Note_on_c, 0, 72, 88
2, 57359, Note_off_c, 0, 72, 0
2, 57360, Note_on_c, 0, 74, 88
2, 57599, Note_off_c, 0, 74, 0
2, 57600, Note_on_c, 0, 76, 88
2, 57659, Note_off_c, 0, 76, 0
2, 57660, Note_on_c, 0, 74, 88
2, 57719, Note_off_c, 0, 74, 0
2, 57720, Note_on_c, 0, 72, 88
2, 57779, Note_off_c, 0, 72, 0
2, 57780, Note_on_c, 0, 74, 88
2, 57839, Note_off_c, 0, 74, 0
2, 57840, Note_on_c, 0, 76, 88
2, 58079, Note_off_c, 0, 76, 0
2, 58080, Note_on_c, 0, 72, 88
2, 58319, Note_off_c, 0, 72, 0
2, 58320, Note_on_c, 0, 69, 88
2, 58559, Note_off_c, 0, 69, 0
2, 58560, Note_on_c, 0, 77, 88
2, 59039, Note_off_c, 0, 77, 0
2, 59040, Note_on_c, 0, 76, 88
2, 59199, Note_off_c, 0, 76, 0
2, 59200, Note_on_c, 0, 80, 88
2, 59279, Note_off_c, 0, 80, 0
2, 59280, Note_on_c, 0, 81, 88
2, 59519, Note_off_c, 0, 81, 0
2, 59520, Note_on_c, 0, 74, 88
2, 59999, Note_off_c, 0, 74, 0
2, 60000, Note_on_c, 0, 72, 88
2, 60159, Note_off_c, 0, 72, 0
2, 60160, Note_on_c, 0, 80, 88
2, 60239, Note_off_c, 0, 80, 0
2, 60240, Note_on_c, 0, 81, 88
2, 60479, Note_off_c, 0, 81, 0
2, 60480, Note_on_c, 0, 71, 88
2, 60799, Note_off_c, 0, 71, 0
2, 60800, Note_on_c, 0, 72, 88
2, 60879, Note_off_c, 0, 72, 0
2, 60880, Note_on_c, 0, 74, 88
2, 60959, Note_off_c, 0, 74, 0
2, 60960, Note_on_c, 0, 72, 88
2, 61039, Note_off_c, 0, 72, 0
2, 61040, Note_on_c, 0, 71, 88
2, 61119, Note_off_c, 0, 71, 0
2, 61120, Note_on_c, 0, 69, 88
2, 61199, Note_off_c, 0, 69, 0
2, 61200, Note_on_c, 0, 68, 88
2, 61279, Note_off_c, 0, 68, 0
2, 61280, Note_on_c, 0, 77, 88
2, 61359, Note_off_c, 0, 77, 0
2, 61360, Note_on_c, 0, 76, 88
2, 61439, Note_off_c, 0, 76, 0
2, 61440, Note_on_c, 0, 74, 88
2, 61519, Note_off_c, 0, 74, 0
2, 61520, Note_on_c, 0, 72, 88
2, 61599, Note_off_c, 0, 72, 0
2, 61600, Note_on_c, 0, 71, 88
2, 61679, Note_off_c, 0, 71, 0
2, 61680, Note_on_c, 0, 72, 88
2, 61759, Note_off_c, 0, 72, 0
2, 61760, Note_on_c, 0, 74, 88
2, 61839, Note_off_c, 0, 74, 0
2, 61840, Note_on_c, 0, 76, 88
2, 61919, Note_off_c, 0, 76, 0
2, 61920, Note_on_c, 0, 74, 88
2, 61999, Note_off_c, 0, 74, 0
2, 62000, Note_on_c, 0, 72, 88
2, 62079, Note_off_c, 0, 72, 0
2, 62080, Note_on_c, 0, 71, 88
2, 62159, Note_off_c, 0, 71, 0
2, 62160, Note_on_c, 0, 69, 88
2, 63199, Note_off_c, 0, 69, 0
2, 63200, Note_on_c, 0, 63, 88
2, 63279, Note_off_c, 0, 63, 0
2, 63280, Note_on_c, 0, 64, 88
2, 63359, Note_off_c, 0, 64, 0
2, 63360, Note_on_c, 0, 66, 88
2, 63439, Note_off_c, 0, 66, 0
2, 63440, Note_on_c, 0, 67, 88
2, 63519, Note_off_c, 0, 67, 0
2, 63520, Note_on_c, 0, 69, 88
2, 63599, Note_off_c, 0, 69, 0
2, 63600, Note_on_c, 0, 67, 88
2, 64159, Note_off_c, 0, 67, 0
2, 64160, Note_on_c, 0, 63, 88
2, 64239, Note_off_c, 0, 63, 0
2, 64240, Note_on_c, 0, 64, 88
2, 64319, Note_off_c, 0, 64, 0
2, 64320, Note_on_c, 0, 67, 88
2, 64399, Note_off_c, 0, 67, 0
2, 64400, Note_on_c, 0, 66, 88
2, 64479, Note_off_c, 0, 66, 0
2, 64480, Note_on_c, 0, 69, 88
2, 64559, Note_off_c, 0, 69, 0
2, 64560, Note_on_c, 0, 63, 88
2, 64719, Note_off_c, 0, 63, 0
2, 64720, Note_on_c, 0, 64, 88
2, 64799, Note_off_c, 0, 64, 0
2, 64800, Note_on_c, 0, 66, 88
2, 65119, Note_off_c, 0, 66, 0
2, 65120, Note_on_c, 0, 59, 88
2, 65199, Note_off_c, 0, 59, 0
2, 65200, Note_on_c, 0, 63, 88
2, 65279, Note_off_c, 0, 63, 0
2, 65280, Note_on_c, 0, 66, 88
2, 65359, Note_off_c, 0, 66, 0
2, 65360, Note_on_c, 0, 71, 88
2, 65439, Note_off_c, 0, 71, 0
2, 65440, Note_on_c, 0, 63, 88
2, 65519, Note_off_c, 0, 63, 0
2, 65520, Note_on_c, 0, 64, 88
2, 66079, Note_off_c, 0, 64, 0
2, 66080, Note_on_c, 0, 67, 88
2, 66159, Note_off_c, 0, 67, 0
2, 66160, Note_on_c, 0, 70, 88
2, 66239, Note_off_c, 0, 70, 0
2, 66240, Note_on_c, 0, 73, 88
2, 66319, Note_off_c, 0, 73, 0
2, 66320, Note_on_c, 0, 75, 88
2, 66399, Note_off_c, 0, 75, 0
2, 66400, Note_on_c, 0, 76, 88
2, 66479, Note_off_c, 0, 76, 0
2, 66480, Note_on_c, 0, 64, 88
2, 66719, Note_off_c, 0, 64, 0
2, 66720, Note_on_c, 0, 63, 88
2, 67519, Note_off_c, 0, 63, 0
2, 67520, Note_on_c, 0, 59, 88
2, 67599, Note_off_c, 0, 59, 0
2, 67600, Note_on_c, 0, 61, 88
2, 67679, Note_off_c, 0, 61, 0
2, 67680, Note_on_c, 0, 63, 88
2, 67759, Note_off_c, 0, 63, 0
2, 67760, Note_on_c, 0, 64, 88
2, 67839, Note_off_c, 0, 64, 0
2, 67840, Note_on_c, 0, 66, 88
2, 67919, Note_off_c, 0, 66, 0
2, 67920, Note_on_c, 0, 67, 88
2, 67999, Note_off_c, 0, 67, 0
2, 68000, Note_on_c, 0, 72, 88
2, 68079, Note_off_c, 0, 72, 0
2, 68080, Note_on_c, 0, 71, 88
2, 68159, Note_off_c, 0, 71, 0
2, 68160, Note_on_c, 0, 69, 88
2, 68239, Note_off_c, 0, 69, 0
2, 68240, Note_on_c, 0, 67, 88
2, 68319, Note_off_c, 0, 67, 0
2, 68320, Note_on_c, 0, 66, 88
2, 68399, Note_off_c, 0, 66, 0
2, 68400, Note_on_c, 0, 64, 88
2, 68479, Note_off_c, 0, 64, 0
2, 68480, Note_on_c, 0, 79, 88
2, 68559, Note_off_c, 0, 79, 0
2, 68560, Note_on_c, 0, 76, 88
2, 68639, Note_off_c, 0, 76, 0
2, 68640, Note_on_c, 0, 73, 88
2, 68879, Note_off_c, 0, 73, 0
2, 68880, Note_on_c, 0, 66, 88
2, 68959, Note_off_c, 0, 66, 0
2, 68960, Note_on_c, 0, 81, 88
2, 69039, Note_off_c, 0, 81, 0
2, 69040, Note_on_c, 0, 78, 88
2, 69119, Note_off_c, 0, 78, 0
2, 69120, Note_on_c, 0, 75, 88
2, 69359, Note_off_c, 0, 75, 0
2, 69360, Note_on_c, 0, 67, 88
2, 69439, Note_off_c, 0, 67, 0
2, 69440, Note_on_c, 0, 83, 88
2, 69519, Note_off_c, 0, 83, 0
2, 69520, Note_on_c, 0, 79, 88
2, 69599, Note_off_c, 0, 79, 0
2, 69600, Note_on_c, 0, 76, 88
2, 69679, Note_off_c, 0, 76, 0
2, 69680, Note_on_c, 0, 74, 88
2, 69759, Note_off_c, 0, 74, 0
2, 69760, Note_on_c, 0, 73, 88
2, 69839, Note_off_c, 0, 73, 0
2, 69840, Note_on_c, 0, 74, 88
2, 70319, Note_off_c, 0, 74, 0
2, 70320, Note_on_c, 0, 72, 88
2, 70399, Note_off_c, 0, 72, 0
2, 70400, Note_on_c, 0, 66, 88
2, 70479, Note_off_c, 0, 66, 0
2, 70480, Note_on_c, 0, 64, 88
2, 70559, Note_off_c, 0, 64, 0
2, 70560, Note_on_c, 0, 63, 88
2, 70639, Note_off_c, 0, 63, 0
2, 70640, Note_on_c, 0, 64, 88
2, 70719, Note_off_c, 0, 64, 0
2, 70720, Note_on_c, 0, 66, 88
2, 70799, Note_off_c, 0, 66, 0
2, 70800, Note_on_c, 0, 67, 88
2, 70879, Note_off_c, 0, 67, 0
2, 70880, Note_on_c, 0, 69, 88
2, 70959, Note_off_c, 0, 69, 0
2, 70960, Note_on_c, 0, 71, 88
2, 71039, Note_off_c, 0, 71, 0
2, 71040, Note_on_c, 0, 72, 88
2, 71119, Note_off_c, 0, 72, 0
2, 71120, Note_on_c, 0, 71, 88
2, 71199, Note_off_c, 0, 71, 0
2, 71200, Note_on_c, 0, 69, 88
2, 71279, Note_off_c, 0, 69, 0
2, 71280, Note_on_c, 0, 75, 88
2, 71359, Note_off_c, 0, 75, 0
2, 71360, Note_on_c, 0, 76, 88
2, 71439, Note_off_c, 0, 76, 0
2, 71440, Note_on_c, 0, 78, 88
2, 71519, Note_off_c, 0, 78, 0
2, 71520, Note_on_c, 0, 71, 88
2, 71599, Note_off_c, 0, 71, 0
2, 71600, Note_on_c, 0, 72, 88
2, 71679, Note_off_c, 0, 72, 0
2, 71680, Note_on_c, 0, 69, 88
2, 71759, Note_off_c, 0, 69, 0
2, 71760, Note_on_c, 0, 67, 88
2, 71839, Note_off_c, 0, 67, 0
2, 71840, Note_on_c, 0, 66, 88
2, 71919, Note_off_c, 0, 66, 0
2, 71920, Note_on_c, 0, 67, 88
2, 71999, Note_off_c, 0, 67, 0
2, 72000, Note_on_c, 0, 69, 88
2, 72079, Note_off_c, 0, 69, 0
2, 72080, Note_on_c, 0, 71, 88
2, 72159, Note_off_c, 0, 71, 0
2, 72160, Note_on_c, 0, 72, 88
2, 72479, Note_off_c, 0, 72, 0
2, 72480, Note_on_c, 0, 71, 88
2, 72559, Note_off_c, 0, 71, 0
2, 72560, Note_on_c, 0, 69, 88
2, 72639, Note_off_c, 0, 69, 0
2, 72640, Note_on_c, 0, 67, 88
2, 72719, Note_off_c, 0, 67, 0
2, 72720, Note_on_c, 0, 69, 88
2, 73359, Note_off_c, 0, 69, 0
2, 73360, Note_on_c, 0, 66, 88
2, 73439, Note_off_c, 0, 66, 0
2, 73440, Note_on_c, 0, 71, 88
2, 73599, Note_off_c, 0, 71, 0
2, 73600, Note_on_c, 0, 69, 88
2, 73679, Note_off_c, 0, 69, 0
2, 73680, Note_on_c, 0, 67, 88
2, 74239, Note_off_c, 0, 67, 0
2, 74240, Note_on_c, 0, 71, 88
2, 74319, Note_off_c, 0, 71, 0
2, 74320, Note_on_c, 0, 69, 88
2, 74399, Note_off_c, 0, 69, 0
2, 74400, Note_on_c, 0, 67, 88
2, 74479, Note_off_c, 0, 67, 0
2, 74480, Note_on_c, 0, 66, 88
2, 74559, Note_off_c, 0, 66, 0
2, 74560, Note_on_c, 0, 64, 88
2, 74639, Note_off_c, 0, 64, 0
2, 74640, Note_on_c, 0, 63, 88
2, 74719, Note_off_c, 0, 63, 0
2, 74720, Note_on_c, 0, 72, 88
2, 74959, Note_off_c, 0, 72, 0
2, 74960, Note_on_c, 0, 64, 88
2, 75039, Note_off_c, 0, 64, 0
2, 75040, Note_on_c, 0, 63, 88
2, 75119, Note_off_c, 0, 63, 0
2, 75120, Note_on_c, 0, 71, 88
2, 75199, Note_off_c, 0, 71, 0
2, 75200, Note_on_c, 0, 64, 88
2, 75279, Note_off_c, 0, 64, 0
2, 75280, Note_on_c, 0, 67, 88
2, 75359, Note_off_c, 0, 67, 0
2, 75360, Note_on_c, 0, 73, 88
2, 75759, Note_off_c, 0, 73, 0
2, 75760, Note_on_c, 0, 69, 88
2, 75839, Note_off_c, 0, 69, 0
2, 75840, Note_on_c, 0, 75, 88
2, 76239, Note_off_c, 0, 75, 0
2, 76240, Note_on_c, 0, 71, 88
2, 76319, Note_off_c, 0, 71, 0
2, 76320, Note_on_c, 0, 76, 88
2, 76719, Note_off_c, 0, 76, 0
2, 76720, Note_on_c, 0, 75, 88
2, 76799, Note_off_c, 0, 75, 0
2, 76800, Note_on_c, 0, 78, 88
2, 77199, Note_off_c, 0, 78, 0
2, 77200, Note_on_c, 0, 76, 88
2, 77279, Note_off_c, 0, 76, 0
2, 77280, Note_on_c, 0, 79, 88
2, 78079, Note_off_c, 0, 79, 0
2, 78080, Note_on_c, 0, 72, 88
2, 78159, Note_off_c, 0, 72, 0
2, 78160, Note_on_c, 0, 78, 88
2, 78239, Note_off_c, 0, 78, 0
2, 78240, Note_on_c, 0, 81, 88
2, 78319, Note_off_c, 0, 81, 0
2, 78320, Note_on_c, 0, 75, 88
2, 78399, Note_off_c, 0, 75, 0
2, 78400, Note_on_c, 0, 78, 88
2, 78479, Note_off_c, 0, 78, 0
2, 78480, Note_on_c, 0, 72, 88
2, 78559, Note_off_c, 0, 72, 0
2, 78560, Note_on_c, 0, 71, 88
2, 78639, Note_off_c, 0, 71, 0
2, 78640, Note_on_c, 0, 75, 88
2, 78719, Note_off_c, 0, 75, 0
2, 78720, Note_on_c, 0, 78, 88
2, 78799, Note_off_c, 0, 78, 0
2, 78800, Note_on_c, 0, 69, 88
2, 78879, Note_off_c, 0, 69, 0
2, 78880, Note_on_c, 0, 72, 88
2, 78959, Note_off_c, 0, 72, 0
2, 78960, Note_on_c, 0, 67, 88
2, 79039, Note_off_c, 0, 67, 0
2, 79040, Note_on_c, 0, 66, 88
2, 79119, Note_off_c, 0, 66, 0
2, 79120, Note_on_c, 0, 69, 88
2, 79199, Note_off_c, 0, 69, 0
2, 79200, Note_on_c, 0, 72, 88
2, 79279, Note_off_c, 0, 72, 0
2, 79280, Note_on_c, 0, 66, 88
2, 79359, Note_off_c, 0, 66, 0
2, 79360, Note_on_c, 0, 69, 88
2, 79439, Note_off_c, 0, 69, 0
2, 79440, Note_on_c, 0, 64, 88
2, 79519, Note_off_c, 0, 64, 0
2, 79520, Note_on_c, 0, 63, 88
2, 79524, Note_off_c, 0, 63, 0
2, 79525, Note_on_c, 0, 64, 88
2, 79532, Note_off_c, 0, 64, 0
2, 79533, Note_on_c, 0, 63, 88
2, 79539, Note_off_c, 0, 63, 0
2, 79540, Note_on_c, 0, 64, 88
2, 79547, Note_off_c, 0, 64, 0
2, 79548, Note_on_c, 0, 63, 88
2, 79599, Note_off_c, 0, 63, 0
2, 79600, Note_on_c, 0, 75, 88
2, 79614, Note_off_c, 0, 75, 0
2, 79615, Note_on_c, 0, 76, 88
2, 79632, Note_off_c, 0, 76, 0
2, 79633, Note_on_c, 0, 75, 88
2, 79649, Note_off_c, 0, 75, 0
2, 79650, Note_on_c, 0, 73, 88
2, 79664, Note_off_c, 0, 73, 0
2, 79665, Note_on_c, 0, 75, 88
2, 79679, Note_off_c, 0, 75, 0
2, 79680, Note_on_c, 0, 76, 88
2, 79999, Note_off_c, 0, 76, 0
2, 80000, Note_on_c, 0, 74, 88
2, 80079, Note_off_c, 0, 74, 0
2, 80080, Note_on_c, 0, 72, 88
2, 80159, Note_off_c, 0, 72, 0
2, 80160, Note_on_c, 0, 71, 88
2, 80239, Note_off_c, 0, 71, 0
2, 80240, Note_on_c, 0, 69, 88
2, 80319, Note_off_c, 0, 69, 0
2, 80320, Note_on_c, 0, 67, 88
2, 80399, Note_off_c, 0, 67, 0
2, 80400, Note_on_c, 0, 69, 88
2, 80479, Note_off_c, 0, 69, 0
2, 80480, Note_on_c, 0, 66, 88
2, 80559, Note_off_c, 0, 66, 0
2, 80560, Note_on_c, 0, 67, 88
2, 80639, Note_off_c, 0, 67, 0
2, 80640, Note_on_c, 0, 69, 88
2, 80719, Note_off_c, 0, 69, 0
2, 80720, Note_on_c, 0, 71, 88
2, 80799, Note_off_c, 0, 71, 0
2, 80800, Note_on_c, 0, 72, 88
2, 80959, Note_off_c, 0, 72, 0
2, 80960, Note_on_c, 0, 71, 88
2, 81039, Note_off_c, 0, 71, 0
2, 81040, Note_on_c, 0, 69, 88
2, 81119, Note_off_c, 0, 69, 0
2, 81120, Note_on_c, 0, 67, 88
2, 81199, Note_off_c, 0, 67, 0
2, 81200, Note_on_c, 0, 63, 88
2, 81279, Note_off_c, 0, 63, 0
2, 81280, Note_on_c, 0, 64, 88
2, 81439, Note_off_c, 0, 64, 0
2, 81440, Note_on_c, 0, 66, 88
2, 81479, Note_off_c, 0, 66, 0
2, 81480, Note_on_c, 0, 69, 88
2, 81519, Note_off_c, 0, 69, 0
2, 81520, Note_on_c, 0, 72, 88
2, 81599, Note_off_c, 0, 72, 0
2, 81600, Note_on_c, 0, 64, 88
2, 81622, Note_off_c, 0, 64, 0
2, 81623, Note_on_c, 0, 63, 88
2, 81647, Note_off_c, 0, 63, 0
2, 81648, Note_on_c, 0, 64, 88
2, 81672, Note_off_c, 0, 64, 0
2, 81673, Note_on_c, 0, 63, 88
2, 81697, Note_off_c, 0, 63, 0
2, 81698, Note_on_c, 0, 64, 88
2, 81719, Note_off_c, 0, 64, 0
2, 81720, Note_on_c, 0, 63, 88
2, 81759, Note_off_c, 0, 63, 0
2, 81760, Note_on_c, 0, 64, 88
2, 81839, Note_off_c, 0, 64, 0
2, 81840, Note_on_c, 0, 64, 88
2, 81880, Note_off_c, 0, 64, 0
2, 81880, End_track
0, 0, End_of_file