0, 0, Header, 1, 2, 240
1, 0, Start_track
1, 0, Time_signature, 4, 2, 24, 8
1, 0, Tempo, 869565
1, 0, SMPTE_offset, 64, 0, 0, 0, 100
1, 0, End_track
2, 0, Start_track
2, 0, Title_t, "Track 1"
2, 0, Program_c, 0, 6
2, 180, Note_on_c, 0, 65, 88
2, 239, Note_off_c, 0, 65, 0
2, 240, Note_on_c, 0, 64, 88
2, 299, Note_off_c, 0, 64, 0
2, 300, Note_on_c, 0, 65, 88
2, 359, Note_off_c, 0, 65, 0
2, 360, Note_on_c, 0, 72, 88
2, 539, Note_off_c, 0, 72, 0
2, 540, Note_on_c, 0, 69, 88
2, 599, Note_off_c, 0, 69, 0
2, 600, Note_on_c, 0, 67, 88
2, 659, Note_off_c, 0, 67, 0
2, 660, Note_on_c, 0, 69, 88
2, 719, Note_off_c, 0, 69, 0
2, 720, Note_on_c, 0, 74, 88
2, 899, Note_off_c, 0, 74, 0
2, 900, Note_on_c, 0, 72, 88
2, 959, Note_off_c, 0, 72, 0
2, 960, Note_on_c, 0, 74, 88
2, 1019, Note_off_c, 0, 74, 0
2, 1020, Note_on_c, 0, 76, 88
2, 1079, Note_off_c, 0, 76, 0
2, 1080, Note_on_c, 0, 77, 88
2, 1139, Note_off_c, 0, 77, 0
2, 1140, Note_on_c, 0, 76, 88
2, 1199, Note_off_c, 0, 76, 0
2, 1200, Note_on_c, 0, 74, 88
2, 1259, Note_off_c, 0, 74, 0
2, 1260, Note_on_c, 0, 72, 88
2, 1319, Note_off_c, 0, 72, 0
2, 1320, Note_on_c, 0, 74, 88
2, 1379, Note_off_c, 0, 74, 0
2, 1380, Note_on_c, 0, 70, 88
2, 1439, Note_off_c, 0, 70, 0
2, 1440, Note_on_c, 0, 69, 88
2, 1499, Note_off_c, 0, 69, 0
2, 1500, Note_on_c, 0, 67, 88
2, 1559, Note_off_c, 0, 67, 0
2, 1560, Note_on_c, 0, 65, 88
2, 1619, Note_off_c, 0, 65, 0
2, 1620, Note_on_c, 0, 64, 88
2, 1739, Note_off_c, 0, 64, 0
2, 1740, Note_on_c, 0, 70, 88
2, 1799, Note_off_c, 0, 70, 0
2, 1800, Note_on_c, 0, 69, 88
2, 1919, Note_off_c, 0, 69, 0
2, 1920, Note_on_c, 0, 74, 88
2, 1979, Note_off_c, 0, 74, 0
2, 1980, Note_on_c, 0, 67, 88
2, 2099, Note_off_c, 0, 67, 0
2, 2100, Note_on_c, 0, 74, 88
2, 2159, Note_off_c, 0, 74, 0
2, 2160, Note_on_c, 0, 72, 88
2, 2279, Note_off_c, 0, 72, 0
2, 2280, Note_on_c, 0, 77, 88
2, 2339, Note_off_c, 0, 77, 0
2, 2340, Note_on_c, 0, 71, 88
2, 2459, Note_off_c, 0, 71, 0
2, 2460, Note_on_c, 0, 77, 88
2, 2519, Note_off_c, 0, 77, 0
2, 2520, Note_on_c, 0, 76, 88
2, 2579, Note_off_c, 0, 76, 0
2, 2580, Note_on_c, 0, 74, 88
2, 2639, Note_off_c, 0, 74, 0
2, 2640, Note_on_c, 0, 72, 88
2, 2699, Note_off_c, 0, 72, 0
2, 2700, Note_on_c, 0, 79, 88
2, 2819, Note_off_c, 0, 79, 0
2, 2820, Note_on_c, 0, 71, 88
2, 2879, Note_off_c, 0, 71, 0
2, 2880, Note_on_c, 0, 72, 88
2, 3119, Note_off_c, 0, 72, 0
2, 3120, Note_on_c, 0, 70, 88
2, 3179, Note_off_c, 0, 70, 0
2, 3180, Note_on_c, 0, 69, 88
2, 3239, Note_off_c, 0, 69, 0
2, 3240, Note_on_c, 0, 70, 88
2, 3299, Note_off_c, 0, 70, 0
2, 3300, Note_on_c, 0, 72, 88
2, 3359, Note_off_c, 0, 72, 0
2, 3360, Note_on_c, 0, 74, 88
2, 3419, Note_off_c, 0, 74, 0
2, 3420, Note_on_c, 0, 75, 88
2, 3659, Note_off_c, 0, 75, 0
2, 3660, Note_on_c, 0, 74, 88
2, 3719, Note_off_c, 0, 74, 0
2, 3720, Note_on_c, 0, 72, 88
2, 3779, Note_off_c, 0, 72, 0
2, 3780, Note_on_c, 0, 74, 88
2, 3839, Note_off_c, 0, 74, 0
2, 3840, Note_on_c, 0, 76, 88
2, 3899, Note_off_c, 0, 76, 0
2, 3900, Note_on_c, 0, 77, 88
2, 3959, Note_off_c, 0, 77, 0
2, 3960, Note_on_c, 0, 79, 88
2, 4199, Note_off_c, 0, 79, 0
2, 4200, Note_on_c, 0, 77, 88
2, 4259, Note_off_c, 0, 77, 0
2, 4260, Note_on_c, 0, 76, 88
2, 4319, Note_off_c, 0, 76, 0
2, 4320, Note_on_c, 0, 77, 88
2, 4379, Note_off_c, 0, 77, 0
2, 4380, Note_on_c, 0, 79, 88
2, 4439, Note_off_c, 0, 79, 0
2, 4440, Note_on_c, 0, 81, 88
2, 4499, Note_off_c, 0, 81, 0
2, 4500, Note_on_c, 0, 82, 88
2, 4739, Note_off_c, 0, 82, 0
2, 4740, Note_on_c, 0, 81, 88
2, 4799, Note_off_c, 0, 81, 0
2, 4800, Note_on_c, 0, 79, 88
2, 4859, Note_off_c, 0, 79, 0
2, 4860, Note_on_c, 0, 81, 88
2, 4919, Note_off_c, 0, 81, 0
2, 4920, Note_on_c, 0, 82, 88
2, 4979, Note_off_c, 0, 82, 0
2, 4980, Note_on_c, 0, 81, 88
2, 5039, Note_off_c, 0, 81, 0
2, 5040, Note_on_c, 0, 79, 88
2, 5279, Note_off_c, 0, 79, 0
2, 5280, Note_on_c, 0, 84, 88
2, 5339, Note_off_c, 0, 84, 0
2, 5340, Note_on_c, 0, 76, 88
2, 5399, Note_off_c, 0, 76, 0
2, 5400, Note_on_c, 0, 77, 88
2, 5579, Note_off_c, 0, 77, 0
2, 5580, Note_on_c, 0, 76, 88
2, 5639, Note_off_c, 0, 76, 0
2, 5640, Note_on_c, 0, 77, 88
2, 5699, Note_off_c, 0, 77, 0
2, 5700, Note_on_c, 0, 79, 88
2, 5759, Note_off_c, 0, 79, 0
2, 5760, Note_on_c, 0, 72, 88
2, 5879, Note_off_c, 0, 72, 0
2, 5880, Note_on_c, 0, 77, 88
2, 5939, Note_off_c, 0, 77, 0
2, 5940, Note_on_c, 0, 77, 88
2, 6059, Note_off_c, 0, 77, 0
2, 6060, Note_on_c, 0, 76, 88
2, 6119, Note_off_c, 0, 76, 0
2, 6120, Note_on_c, 0, 77, 88
2, 6479, Note_off_c, 0, 77, 0
2, 6480, Note_on_c, 0, 79, 88
2, 6539, Note_off_c, 0, 79, 0
2, 6540, Note_on_c, 0, 77, 88
2, 6599, Note_off_c, 0, 77, 0
2, 6600, Note_on_c, 0, 76, 88
2, 6659, Note_off_c, 0, 76, 0
2, 6660, Note_on_c, 0, 74, 88
2, 6719, Note_off_c, 0, 74, 0
2, 6720, Note_on_c, 0, 75, 88
2, 6779, Note_off_c, 0, 75, 0
2, 6780, Note_on_c, 0, 72, 88
2, 6839, Note_off_c, 0, 72, 0
2, 6840, Note_on_c, 0, 70, 88
2, 6899, Note_off_c, 0, 70, 0
2, 6900, Note_on_c, 0, 69, 88
2, 6959, Note_off_c, 0, 69, 0
2, 6960, Note_on_c, 0, 67, 88
2, 7019, Note_off_c, 0, 67, 0
2, 7020, Note_on_c, 0, 69, 88
2, 7139, Note_off_c, 0, 69, 0
2, 7140, Note_on_c, 0, 74, 88
2, 7199, Note_off_c, 0, 74, 0
2, 7200, Note_on_c, 0, 67, 88
2, 7319, Note_off_c, 0, 67, 0
2, 7320, Note_on_c, 0, 74, 88
2, 7379, Note_off_c, 0, 74, 0
2, 7380, Note_on_c, 0, 67, 88
2, 7499, Note_off_c, 0, 67, 0
2, 7500, Note_on_c, 0, 76, 88
2, 7619, Note_off_c, 0, 76, 0
2, 7620, Note_on_c, 0, 73, 88
2, 7679, Note_off_c, 0, 73, 0
2, 7680, Note_on_c, 0, 74, 88
2, 7799, Note_off_c, 0, 74, 0
2, 7800, Note_on_c, 0, 71, 88
2, 7859, Note_off_c, 0, 71, 0
2, 7860, Note_on_c, 0, 72, 88
2, 7979, Note_off_c, 0, 72, 0
2, 7980, Note_on_c, 0, 76, 88
2, 8039, Note_off_c, 0, 76, 0
2, 8040, Note_on_c, 0, 77, 88
2, 8099, Note_off_c, 0, 77, 0
2, 8100, Note_on_c, 0, 71, 88
2, 8159, Note_off_c, 0, 71, 0
2, 8160, Note_on_c, 0, 72, 88
2, 8219, Note_off_c, 0, 72, 0
2, 8220, Note_on_c, 0, 74, 88
2, 8279, Note_off_c, 0, 74, 0
2, 8280, Note_on_c, 0, 67, 88
2, 8399, Note_off_c, 0, 67, 0
2, 8400, Note_on_c, 0, 72, 88
2, 8459, Note_off_c, 0, 72, 0
2, 8460, Note_on_c, 0, 72, 88
2, 8579, Note_off_c, 0, 72, 0
2, 8580, Note_on_c, 0, 71, 88
2, 8639, Note_off_c, 0, 71, 0
2, 8640, Note_on_c, 0, 72, 88
2, 8759, Note_off_c, 0, 72, 0
2, 8760, Note_on_c, 0, 67, 88
2, 8819, Note_off_c, 0, 67, 0
2, 8820, Note_on_c, 0, 70, 88
2, 8999, Note_off_c, 0, 70, 0
2, 9000, Note_on_c, 0, 69, 88
2, 9299, Note_off_c, 0, 69, 0
2, 9300, Note_on_c, 0, 74, 88
2, 9359, Note_off_c, 0, 74, 0
2, 9360, Note_on_c, 0, 67, 88
2, 9659, Note_off_c, 0, 67, 0
2, 9660, Note_on_c, 0, 67, 88
2, 9719, Note_off_c, 0, 67, 0
2, 9720, Note_on_c, 0, 72, 88
2, 9959, Note_off_c, 0, 72, 0
2, 9960, Note_on_c, 0, 72, 88
2, 10019, Note_off_c, 0, 72, 0
2, 10020, Note_on_c, 0, 71, 88
2, 10079, Note_off_c, 0, 71, 0
2, 10080, Note_on_c, 0, 72, 88
2, 10439, Note_off_c, 0, 72, 0
2, 10440, Note_on_c, 0, 79, 88
2, 10499, Note_off_c, 0, 79, 0
2, 10500, Note_on_c, 0, 77, 88
2, 10559, Note_off_c, 0, 77, 0
2, 10560, Note_on_c, 0, 76, 88
2, 10619, Note_off_c, 0, 76, 0
2, 10620, Note_on_c, 0, 74, 88
2, 10679, Note_off_c, 0, 74, 0
2, 10680, Note_on_c, 0, 76, 88
2, 10739, Note_off_c, 0, 76, 0
2, 10740, Note_on_c, 0, 72, 88
2, 10799, Note_off_c, 0, 72, 0
2, 10800, Note_on_c, 0, 71, 88
2, 10859, Note_off_c, 0, 71, 0
2, 10860, Note_on_c, 0, 69, 88
2, 10919, Note_off_c, 0, 69, 0
2, 10920, Note_on_c, 0, 67, 88
2, 10979, Note_off_c, 0, 67, 0
2, 10980, Note_on_c, 0, 73, 88
2, 11159, Note_off_c, 0, 73, 0
2, 11160, Note_on_c, 0, 81, 88
2, 11219, Note_off_c, 0, 81, 0
2, 11220, Note_on_c, 0, 79, 88
2, 11279, Note_off_c, 0, 79, 0
2, 11280, Note_on_c, 0, 77, 88
2, 11339, Note_off_c, 0, 77, 0
2, 11340, Note_on_c, 0, 76, 88
2, 11399, Note_off_c, 0, 76, 0
2, 11400, Note_on_c, 0, 77, 88
2, 11459, Note_off_c, 0, 77, 0
2, 11460, Note_on_c, 0, 74, 88
2, 11519, Note_off_c, 0, 74, 0
2, 11520, Note_on_c, 0, 73, 88
2, 11579, Note_off_c, 0, 73, 0
2, 11580, Note_on_c, 0, 71, 88
2, 11639, Note_off_c, 0, 71, 0
2, 11640, Note_on_c, 0, 69, 88
2, 11699, Note_off_c, 0, 69, 0
2, 11700, Note_on_c, 0, 74, 88
2, 11939, Note_off_c, 0, 74, 0
2, 11940, Note_on_c, 0, 72, 88
2, 11999, Note_off_c, 0, 72, 0
2, 12000, Note_on_c, 0, 71, 88
2, 12059, Note_off_c, 0, 71, 0
2, 12060, Note_on_c, 0, 72, 88
2, 12299, Note_off_c, 0, 72, 0
2, 12300, Note_on_c, 0, 70, 88
2, 12359, Note_off_c, 0, 70, 0
2, 12360, Note_on_c, 0, 69, 88
2, 12419, Note_off_c, 0, 69, 0
2, 12420, Note_on_c, 0, 70, 88
2, 12659, Note_off_c, 0, 70, 0
2, 12660, Note_on_c, 0, 72, 88
2, 12719, Note_off_c, 0, 72, 0
2, 12720, Note_on_c, 0, 70, 88
2, 12779, Note_off_c, 0, 70, 0
2, 12780, Note_on_c, 0, 69, 88
2, 12839, Note_off_c, 0, 69, 0
2, 12840, Note_on_c, 0, 70, 88
2, 12899, Note_off_c, 0, 70, 0
2, 12900, Note_on_c, 0, 67, 88
2, 12959, Note_off_c, 0, 67, 0
2, 12960, Note_on_c, 0, 66, 88
2, 13019, Note_off_c, 0, 66, 0
2, 13020, Note_on_c, 0, 64, 88
2, 13079, Note_off_c, 0, 64, 0
2, 13080, Note_on_c, 0, 62, 88
2, 13139, Note_off_c, 0, 62, 0
2, 13140, Note_on_c, 0, 67, 88
2, 13379, Note_off_c, 0, 67, 0
2, 13380, Note_on_c, 0, 65, 88
2, 13439, Note_off_c, 0, 65, 0
2, 13440, Note_on_c, 0, 64, 88
2, 13499, Note_off_c, 0, 64, 0
2, 13500, Note_on_c, 0, 65, 88
2, 13559, Note_off_c, 0, 65, 0
2, 13560, Note_on_c, 0, 67, 88
2, 13619, Note_off_c, 0, 67, 0
2, 13620, Note_on_c, 0, 69, 88
2, 13679, Note_off_c, 0, 69, 0
2, 13680, Note_on_c, 0, 70, 88
2, 13919, Note_off_c, 0, 70, 0
2, 13920, Note_on_c, 0, 69, 88
2, 13979, Note_off_c, 0, 69, 0
2, 13980, Note_on_c, 0, 67, 88
2, 14039, Note_off_c, 0, 67, 0
2, 14040, Note_on_c, 0, 69, 88
2, 14279, Note_off_c, 0, 69, 0
2, 14280, Note_on_c, 0, 70, 88
2, 14339, Note_off_c, 0, 70, 0
2, 14340, Note_on_c, 0, 72, 88
2, 14399, Note_off_c, 0, 72, 0
2, 14400, Note_on_c, 0, 74, 88
2, 14639, Note_off_c, 0, 74, 0
2, 14640, Note_on_c, 0, 72, 88
2, 14699, Note_off_c, 0, 72, 0
2, 14700, Note_on_c, 0, 70, 88
2, 14759, Note_off_c, 0, 70, 0
2, 14760, Note_on_c, 0, 72, 88
2, 14999, Note_off_c, 0, 72, 0
2, 15000, Note_on_c, 0, 74, 88
2, 15059, Note_off_c, 0, 74, 0
2, 15060, Note_on_c, 0, 76, 88
2, 15119, Note_off_c, 0, 76, 0
2, 15120, Note_on_c, 0, 77, 88
2, 15359, Note_off_c, 0, 77, 0
2, 15360, Note_on_c, 0, 76, 88
2, 15419, Note_off_c, 0, 76, 0
2, 15420, Note_on_c, 0, 74, 88
2, 15479, Note_off_c, 0, 74, 0
2, 15480, Note_on_c, 0, 76, 88
2, 15719, Note_off_c, 0, 76, 0
2, 15720, Note_on_c, 0, 77, 88
2, 15779, Note_off_c, 0, 77, 0
2, 15780, Note_on_c, 0, 79, 88
2, 15839, Note_off_c, 0, 79, 0
2, 15840, Note_on_c, 0, 81, 88
2, 15899, Note_off_c, 0, 81, 0
2, 15900, Note_on_c, 0, 79, 88
2, 15959, Note_off_c, 0, 79, 0
2, 15960, Note_on_c, 0, 77, 88
2, 16019, Note_off_c, 0, 77, 0
2, 16020, Note_on_c, 0, 76, 88
2, 16079, Note_off_c, 0, 76, 0
2, 16080, Note_on_c, 0, 77, 88
2, 16109, Note_off_c, 0, 77, 0
2, 16110, Note_on_c, 0, 76, 88
2, 16139, Note_off_c, 0, 76, 0
2, 16140, Note_on_c, 0, 74, 88
2, 16169, Note_off_c, 0, 74, 0
2, 16170, Note_on_c, 0, 72, 88
2, 16199, Note_off_c, 0, 72, 0
2, 16200, Note_on_c, 0, 77, 88
2, 16559, Note_off_c, 0, 77, 0
2, 16560, Note_on_c, 0, 75, 88
2, 16619, Note_off_c, 0, 75, 0
2, 16620, Note_on_c, 0, 79, 88
2, 16679, Note_off_c, 0, 79, 0
2, 16680, Note_on_c, 0, 78, 88
2, 16739, Note_off_c, 0, 78, 0
2, 16740, Note_on_c, 0, 79, 88
2, 17099, Note_off_c, 0, 79, 0
2, 17100, Note_on_c, 0, 78, 88
2, 17159, Note_off_c, 0, 78, 0
2, 17160, Note_on_c, 0, 79, 88
2, 17219, Note_off_c, 0, 79, 0
2, 17220, Note_on_c, 0, 81, 88
2, 17279, Note_off_c, 0, 81, 0
2, 17280, Note_on_c, 0, 70, 88
2, 17339, Note_off_c, 0, 70, 0
2, 17340, Note_on_c, 0, 74, 88
2, 17399, Note_off_c, 0, 74, 0
2, 17400, Note_on_c, 0, 72, 88
2, 17459, Note_off_c, 0, 72, 0
2, 17460, Note_on_c, 0, 70, 88
2, 17519, Note_off_c, 0, 70, 0
2, 17520, Note_on_c, 0, 72, 88
2, 17579, Note_off_c, 0, 72, 0
2, 17580, Note_on_c, 0, 69, 88
2, 17639, Note_off_c, 0, 69, 0
2, 17640, Note_on_c, 0, 67, 88
2, 17759, Note_off_c, 0, 67, 0
2, 17760, Note_on_c, 0, 75, 88
2, 17819, Note_off_c, 0, 75, 0
2, 17820, Note_on_c, 0, 73, 88
2, 17939, Note_off_c, 0, 73, 0
2, 17940, Note_on_c, 0, 69, 88
2, 18059, Note_off_c, 0, 69, 0
2, 18060, Note_on_c, 0, 69, 88
2, 18119, Note_off_c, 0, 69, 0
2, 18120, Note_on_c, 0, 74, 88
2, 18179, Note_off_c, 0, 74, 0
2, 18180, Note_on_c, 0, 73, 88
2, 18239, Note_off_c, 0, 73, 0
2, 18240, Note_on_c, 0, 74, 88
2, 18299, Note_off_c, 0, 74, 0
2, 18300, Note_on_c, 0, 76, 88
2, 18359, Note_off_c, 0, 76, 0
2, 18360, Note_on_c, 0, 74, 88
2, 18419, Note_off_c, 0, 74, 0
2, 18420, Note_on_c, 0, 76, 88
2, 18479, Note_off_c, 0, 76, 0
2, 18480, Note_on_c, 0, 77, 88
2, 18539, Note_off_c, 0, 77, 0
2, 18540, Note_on_c, 0, 70, 88
2, 18779, Note_off_c, 0, 70, 0
2, 18780, Note_on_c, 0, 76, 88
2, 18839, Note_off_c, 0, 76, 0
2, 18840, Note_on_c, 0, 79, 88
2, 18899, Note_off_c, 0, 79, 0
2, 18900, Note_on_c, 0, 72, 88
2, 19139, Note_off_c, 0, 72, 0
2, 19140, Note_on_c, 0, 70, 88
2, 19199, Note_off_c, 0, 70, 0
2, 19200, Note_on_c, 0, 69, 88
2, 19259, Note_off_c, 0, 69, 0
2, 19260, Note_on_c, 0, 70, 88
2, 19559, Note_off_c, 0, 70, 0
2, 19560, Note_on_c, 0, 70, 88
2, 19619, Note_off_c, 0, 70, 0
2, 19620, Note_on_c, 0, 69, 88
2, 19739, Note_off_c, 0, 69, 0
2, 19740, Note_on_c, 0, 67, 88
2, 19799, Note_off_c, 0, 67, 0
2, 19800, Note_on_c, 0, 65, 88
2, 20039, Note_off_c, 0, 65, 0
2, 20040, Note_on_c, 0, 63, 88
2, 20099, Note_off_c, 0, 63, 0
2, 20100, Note_on_c, 0, 62, 88
2, 20159, Note_off_c, 0, 62, 0
2, 20160, Note_on_c, 0, 60, 88
2, 20399, Note_off_c, 0, 60, 0
2, 20400, Note_on_c, 0, 62, 88
2, 20459, Note_off_c, 0, 62, 0
2, 20460, Note_on_c, 0, 63, 88
2, 20519, Note_off_c, 0, 63, 0
2, 20520, Note_on_c, 0, 65, 88
2, 20759, Note_off_c, 0, 65, 0
2, 20760, Note_on_c, 0, 67, 88
2, 20819, Note_off_c, 0, 67, 0
2, 20820, Note_on_c, 0, 69, 88
2, 20879, Note_off_c, 0, 69, 0
2, 20880, Note_on_c, 0, 70, 88
2, 21119, Note_off_c, 0, 70, 0
2, 21120, Note_on_c, 0, 72, 88
2, 21179, Note_off_c, 0, 72, 0
2, 21180, Note_on_c, 0, 74, 88
2, 21239, Note_off_c, 0, 74, 0
2, 21240, Note_on_c, 0, 75, 88
2, 21659, Note_off_c, 0, 75, 0
2, 21660, Note_on_c, 0, 74, 88
2, 21719, Note_off_c, 0, 74, 0
2, 21720, Note_on_c, 0, 72, 88
2, 21779, Note_off_c, 0, 72, 0
2, 21780, Note_on_c, 0, 74, 88
2, 21839, Note_off_c, 0, 74, 0
2, 21840, Note_on_c, 0, 75, 88
2, 21899, Note_off_c, 0, 75, 0
2, 21900, Note_on_c, 0, 74, 88
2, 21959, Note_off_c, 0, 74, 0
2, 21960, Note_on_c, 0, 72, 88
2, 22199, Note_off_c, 0, 72, 0
2, 22200, Note_on_c, 0, 72, 88
2, 22259, Note_off_c, 0, 72, 0
2, 22260, Note_on_c, 0, 77, 88
2, 22319, Note_off_c, 0, 77, 0
2, 22320, Note_on_c, 0, 70, 88
2, 22559, Note_off_c, 0, 70, 0
2, 22560, Note_on_c, 0, 70, 88
2, 22619, Note_off_c, 0, 70, 0
2, 22620, Note_on_c, 0, 75, 88
2, 22679, Note_off_c, 0, 75, 0
2, 22680, Note_on_c, 0, 69, 88
2, 22919, Note_off_c, 0, 69, 0
2, 22920, Note_on_c, 0, 69, 88
2, 22979, Note_off_c, 0, 69, 0
2, 22980, Note_on_c, 0, 74, 88
2, 23039, Note_off_c, 0, 74, 0
2, 23040, Note_on_c, 0, 67, 88
2, 23279, Note_off_c, 0, 67, 0
2, 23280, Note_on_c, 0, 67, 88
2, 23339, Note_off_c, 0, 67, 0
2, 23340, Note_on_c, 0, 72, 88
2, 23399, Note_off_c, 0, 72, 0
2, 23400, Note_on_c, 0, 65, 88
2, 23699, Note_off_c, 0, 65, 0
2, 23700, Note_on_c, 0, 70, 88
2, 23819, Note_off_c, 0, 70, 0
2, 23820, Note_on_c, 0, 67, 88
2, 23879, Note_off_c, 0, 67, 0
2, 23880, Note_on_c, 0, 69, 88
2, 24059, Note_off_c, 0, 69, 0
2, 24060, Note_on_c, 0, 74, 88
2, 24119, Note_off_c, 0, 74, 0
2, 24120, Note_on_c, 0, 70, 88
2, 24299, Note_off_c, 0, 70, 0
2, 24300, Note_on_c, 0, 69, 88
2, 24359, Note_off_c, 0, 69, 0
2, 24360, Note_on_c, 0, 70, 88
2, 24419, Note_off_c, 0, 70, 0
2, 24420, Note_on_c, 0, 72, 88
2, 24479, Note_off_c, 0, 72, 0
2, 24480, Note_on_c, 0, 74, 88
2, 24539, Note_off_c, 0, 74, 0
2, 24540, Note_on_c, 0, 72, 88
2, 24599, Note_off_c, 0, 72, 0
2, 24600, Note_on_c, 0, 75, 88
2, 24659, Note_off_c, 0, 75, 0
2, 24660, Note_on_c, 0, 74, 88
2, 24719, Note_off_c, 0, 74, 0
2, 24720, Note_on_c, 0, 75, 88
2, 24779, Note_off_c, 0, 75, 0
2, 24780, Note_on_c, 0, 72, 88
2, 24839, Note_off_c, 0, 72, 0
2, 24840, Note_on_c, 0, 70, 88
2, 25799, Note_off_c, 0, 70, 0
2, 25800, Note_on_c, 0, 67, 88
2, 25859, Note_off_c, 0, 67, 0
2, 25860, Note_on_c, 0, 68, 88
2, 25919, Note_off_c, 0, 68, 0
2, 25920, Note_on_c, 0, 68, 88
2, 26159, Note_off_c, 0, 68, 0
2, 26160, Note_on_c, 0, 65, 88
2, 26219, Note_off_c, 0, 65, 0
2, 26220, Note_on_c, 0, 67, 88
2, 26279, Note_off_c, 0, 67, 0
2, 26280, Note_on_c, 0, 67, 88
2, 26519, Note_off_c, 0, 67, 0
2, 26520, Note_on_c, 0, 64, 88
2, 26579, Note_off_c, 0, 64, 0
2, 26580, Note_on_c, 0, 65, 88
2, 26639, Note_off_c, 0, 65, 0
2, 26640, Note_on_c, 0, 65, 88
2, 26879, Note_off_c, 0, 65, 0
2, 26880, Note_on_c, 0, 62, 88
2, 26939, Note_off_c, 0, 62, 0
2, 26940, Note_on_c, 0, 64, 88
2, 26999, Note_off_c, 0, 64, 0
2, 27000, Note_on_c, 0, 64, 88
2, 27179, Note_off_c, 0, 64, 0
2, 27180, Note_on_c, 0, 68, 88
2, 27419, Note_off_c, 0, 68, 0
2, 27420, Note_on_c, 0, 67, 88
2, 27479, Note_off_c, 0, 67, 0
2, 27480, Note_on_c, 0, 65, 88
2, 27539, Note_off_c, 0, 65, 0
2, 27540, Note_on_c, 0, 67, 88
2, 27779, Note_off_c, 0, 67, 0
2, 27780, Note_on_c, 0, 65, 88
2, 27839, Note_off_c, 0, 65, 0
2, 27840, Note_on_c, 0, 64, 88
2, 27899, Note_off_c, 0, 64, 0
2, 27900, Note_on_c, 0, 65, 88
2, 27959, Note_off_c, 0, 65, 0
2, 27960, Note_on_c, 0, 72, 88
2, 28019, Note_off_c, 0, 72, 0
2, 28020, Note_on_c, 0, 77, 88
2, 28079, Note_off_c, 0, 77, 0
2, 28080, Note_on_c, 0, 70, 88
2, 28319, Note_off_c, 0, 70, 0
2, 28320, Note_on_c, 0, 76, 88
2, 28379, Note_off_c, 0, 76, 0
2, 28380, Note_on_c, 0, 79, 88
2, 28439, Note_off_c, 0, 79, 0
2, 28440, Note_on_c, 0, 72, 88
2, 28679, Note_off_c, 0, 72, 0
2, 28680, Note_on_c, 0, 77, 88
2, 28739, Note_off_c, 0, 77, 0
2, 28740, Note_on_c, 0, 80, 88
2, 28799, Note_off_c, 0, 80, 0
2, 28800, Note_on_c, 0, 73, 88
2, 28919, Note_off_c, 0, 73, 0
2, 28920, Note_on_c, 0, 77, 88
2, 28979, Note_off_c, 0, 77, 0
2, 28980, Note_on_c, 0, 82, 88
2, 29099, Note_off_c, 0, 82, 0
2, 29100, Note_on_c, 0, 73, 88
2, 29159, Note_off_c, 0, 73, 0
2, 29160, Note_on_c, 0, 72, 88
2, 29279, Note_off_c, 0, 72, 0
2, 29280, Note_on_c, 0, 82, 88
2, 29339, Note_off_c, 0, 82, 0
2, 29340, Note_on_c, 0, 80, 88
2, 29459, Note_off_c, 0, 80, 0
2, 29460, Note_on_c, 0, 77, 88
2, 29519, Note_off_c, 0, 77, 0
2, 29520, Note_on_c, 0, 71, 88
2, 29579, Note_off_c, 0, 71, 0
2, 29580, Note_on_c, 0, 77, 88
2, 29639, Note_off_c, 0, 77, 0
2, 29640, Note_on_c, 0, 79, 88
2, 29699, Note_off_c, 0, 79, 0
2, 29700, Note_on_c, 0, 80, 88
2, 29759, Note_off_c, 0, 80, 0
2, 29760, Note_on_c, 0, 79, 88
2, 29819, Note_off_c, 0, 79, 0
2, 29820, Note_on_c, 0, 77, 88
2, 29939, Note_off_c, 0, 77, 0
2, 29940, Note_on_c, 0, 76, 88
2, 29999, Note_off_c, 0, 76, 0
2, 30000, Note_on_c, 0, 73, 88
2, 30119, Note_off_c, 0, 73, 0
2, 30120, Note_on_c, 0, 72, 88
2, 30179, Note_off_c, 0, 72, 0
2, 30180, Note_on_c, 0, 70, 88
2, 30299, Note_off_c, 0, 70, 0
2, 30300, Note_on_c, 0, 68, 88
2, 30359, Note_off_c, 0, 68, 0
2, 30360, Note_on_c, 0, 67, 88
2, 30419, Note_off_c, 0, 67, 0
2, 30420, Note_on_c, 0, 65, 88
2, 30479, Note_off_c, 0, 65, 0
2, 30480, Note_on_c, 0, 64, 88
2, 30539, Note_off_c, 0, 64, 0
2, 30540, Note_on_c, 0, 65, 88
2, 30659, Note_off_c, 0, 65, 0
2, 30660, Note_on_c, 0, 62, 88
2, 30719, Note_off_c, 0, 62, 0
2, 30720, Note_on_c, 0, 64, 88
2, 30779, Note_off_c, 0, 64, 0
2, 30780, Note_on_c, 0, 69, 88
2, 30839, Note_off_c, 0, 69, 0
2, 30840, Note_on_c, 0, 67, 88
2, 30899, Note_off_c, 0, 67, 0
2, 30900, Note_on_c, 0, 69, 88
2, 30959, Note_off_c, 0, 69, 0
2, 30960, Note_on_c, 0, 70, 88
2, 31139, Note_off_c, 0, 70, 0
2, 31140, Note_on_c, 0, 72, 88
2, 31199, Note_off_c, 0, 72, 0
2, 31200, Note_on_c, 0, 74, 88
2, 31259, Note_off_c, 0, 74, 0
2, 31260, Note_on_c, 0, 76, 88
2, 31319, Note_off_c, 0, 76, 0
2, 31320, Note_on_c, 0, 77, 88
2, 31379, Note_off_c, 0, 77, 0
2, 31380, Note_on_c, 0, 76, 88
2, 31439, Note_off_c, 0, 76, 0
2, 31440, Note_on_c, 0, 74, 88
2, 31499, Note_off_c, 0, 74, 0
2, 31500, Note_on_c, 0, 72, 88
2, 31559, Note_off_c, 0, 72, 0
2, 31560, Note_on_c, 0, 74, 88
2, 31619, Note_off_c, 0, 74, 0
2, 31620, Note_on_c, 0, 70, 88
2, 31679, Note_off_c, 0, 70, 0
2, 31680, Note_on_c, 0, 69, 88
2, 31739, Note_off_c, 0, 69, 0
2, 31740, Note_on_c, 0, 65, 88
2, 31769, Note_off_c, 0, 65, 0
2, 31770, Note_on_c, 0, 67, 88
2, 31799, Note_off_c, 0, 67, 0
2, 31800, Note_on_c, 0, 69, 88
2, 31829, Note_off_c, 0, 69, 0
2, 31830, Note_on_c, 0, 70, 88
2, 31859, Note_off_c, 0, 70, 0
2, 31860, Note_on_c, 0, 72, 88
2, 32219, Note_off_c, 0, 72, 0
2, 32220, Note_on_c, 0, 70, 88
2, 32489, Note_off_c, 0, 70, 0
2, 32490, Note_on_c, 0, 67, 88
2, 32519, Note_off_c, 0, 67, 0
2, 32520, Note_on_c, 0, 69, 88
2, 32549, Note_off_c, 0, 69, 0
2, 32550, Note_on_c, 0, 70, 88
2, 32579, Note_off_c, 0, 70, 0
2, 32580, Note_on_c, 0, 72, 88
2, 32849, Note_off_c, 0, 72, 0
2, 32850, Note_on_c, 0, 69, 88
2, 32879, Note_off_c, 0, 69, 0
2, 32880, Note_on_c, 0, 70, 88
2, 32909, Note_off_c, 0, 70, 0
2, 32910, Note_on_c, 0, 72, 88
2, 32939, Note_off_c, 0, 72, 0
2, 32940, Note_on_c, 0, 74, 88
2, 33149, Note_off_c, 0, 74, 0
2, 33150, Note_on_c, 0, 70, 88
2, 33179, Note_off_c, 0, 70, 0
2, 33180, Note_on_c, 0, 72, 88
2, 33209, Note_off_c, 0, 72, 0
2, 33210, Note_on_c, 0, 74, 88
2, 33239, Note_off_c, 0, 74, 0
2, 33240, Note_on_c, 0, 76, 88
2, 33269, Note_off_c, 0, 76, 0
2, 33270, Note_on_c, 0, 77, 88
2, 33299, Note_off_c, 0, 77, 0
2, 33300, Note_on_c, 0, 79, 88
2, 33329, Note_off_c, 0, 79, 0
2, 33330, Note_on_c, 0, 77, 88
2, 33359, Note_off_c, 0, 77, 0
2, 33360, Note_on_c, 0, 76, 88
2, 33389, Note_off_c, 0, 76, 0
2, 33390, Note_on_c, 0, 74, 88
2, 33419, Note_off_c, 0, 74, 0
2, 33420, Note_on_c, 0, 72, 88
2, 33449, Note_off_c, 0, 72, 0
2, 33450, Note_on_c, 0, 70, 88
2, 33479, Note_off_c, 0, 70, 0
2, 33480, Note_on_c, 0, 69, 88
2, 33539, Note_off_c, 0, 69, 0
2, 33540, Note_on_c, 0, 72, 88
2, 33599, Note_off_c, 0, 72, 0
2, 33600, Note_on_c, 0, 70, 88
2, 33659, Note_off_c, 0, 70, 0
2, 33660, Note_on_c, 0, 72, 88
2, 33959, Note_off_c, 0, 72, 0
2, 33960, Note_on_c, 0, 74, 88
2, 34019, Note_off_c, 0, 74, 0
2, 34020, Note_on_c, 0, 75, 88
2, 34199, Note_off_c, 0, 75, 0
2, 34200, Note_on_c, 0, 74, 88
2, 34499, Note_off_c, 0, 74, 0
2, 34500, Note_on_c, 0, 79, 88
2, 34559, Note_off_c, 0, 79, 0
2, 34560, Note_on_c, 0, 76, 88
2, 34859, Note_off_c, 0, 76, 0
2, 34860, Note_on_c, 0, 81, 88
2, 34919, Note_off_c, 0, 81, 0
2, 34920, Note_on_c, 0, 77, 88
2, 35039, Note_off_c, 0, 77, 0
2, 35040, Note_on_c, 0, 74, 88
2, 35099, Note_off_c, 0, 74, 0
2, 35100, Note_on_c, 0, 69, 88
2, 35159, Note_off_c, 0, 69, 0
2, 35160, Note_on_c, 0, 70, 88
2, 35219, Note_off_c, 0, 70, 0
2, 35220, Note_on_c, 0, 67, 88
2, 35279, Note_off_c, 0, 67, 0
2, 35280, Note_on_c, 0, 65, 88
2, 35320, Note_off_c, 0, 65, 0
2, 35320, End_track
0, 0, End_of_file