0, 0, Header, 1, 2, 240
1, 0, Start_track
1, 0, Time_signature, 4, 2, 24, 8
1, 0, Tempo, 517241
1, 0, SMPTE_offset, 64, 0, 0, 0, 100
1, 0, End_track
2, 0, Start_track
2, 0, Title_t, "Track 1"
2, 0, Program_c, 0, 6
2, 3840, Note_on_c, 0, 73, 88
2, 3877, Note_off_c, 0, 73, 0
2, 3878, Note_on_c, 0, 72, 88
2, 3914, Note_off_c, 0, 72, 0
2, 3915, Note_on_c, 0, 73, 88
2, 3952, Note_off_c, 0, 73, 0
2, 3953, Note_on_c, 0, 72, 88
2, 3989, Note_off_c, 0, 72, 0
2, 3990, Note_on_c, 0, 73, 88
2, 4027, Note_off_c, 0, 73, 0
2, 4028, Note_on_c, 0, 72, 88
2, 4064, Note_off_c, 0, 72, 0
2, 4065, Note_on_c, 0, 73, 88
2, 4102, Note_off_c, 0, 73, 0
2, 4103, Note_on_c, 0, 72, 88
2, 4132, Note_off_c, 0, 72, 0
2, 4133, Note_on_c, 0, 73, 88
2, 4162, Note_off_c, 0, 73, 0
2, 4163, Note_on_c, 0, 72, 88
2, 4199, Note_off_c, 0, 72, 0
2, 4200, Note_on_c, 0, 70, 88
2, 4259, Note_off_c, 0, 70, 0
2, 4260, Note_on_c, 0, 72, 88
2, 4319, Note_off_c, 0, 72, 0
2, 4320, Note_on_c, 0, 73, 88
2, 4799, Note_off_c, 0, 73, 0
2, 4800, Note_on_c, 0, 68, 88
2, 5039, Note_off_c, 0, 68, 0
2, 5040, Note_on_c, 0, 70, 88
2, 5279, Note_off_c, 0, 70, 0
2, 5280, Note_on_c, 0, 71, 88
2, 5639, Note_off_c, 0, 71, 0
2, 5640, Note_on_c, 0, 70, 88
2, 5699, Note_off_c, 0, 70, 0
2, 5700, Note_on_c, 0, 68, 88
2, 5759, Note_off_c, 0, 68, 0
2, 5760, Note_on_c, 0, 66, 88
2, 5879, Note_off_c, 0, 66, 0
2, 5880, Note_on_c, 0, 65, 88
2, 5999, Note_off_c, 0, 65, 0
2, 6000, Note_on_c, 0, 66, 88
2, 6119, Note_off_c, 0, 66, 0
2, 6120, Note_on_c, 0, 68, 88
2, 6239, Note_off_c, 0, 68, 0
2, 6240, Note_on_c, 0, 70, 88
2, 6359, Note_off_c, 0, 70, 0
2, 6360, Note_on_c, 0, 72, 88
2, 6479, Note_off_c, 0, 72, 0
2, 6480, Note_on_c, 0, 73, 88
2, 6599, Note_off_c, 0, 73, 0
2, 6600, Note_on_c, 0, 70, 88
2, 6719, Note_off_c, 0, 70, 0
2, 6720, Note_on_c, 0, 75, 88
2, 6959, Note_off_c, 0, 75, 0
2, 6960, Note_on_c, 0, 66, 88
2, 7199, Note_off_c, 0, 66, 0
2, 7200, Note_on_c, 0, 66, 88
2, 7439, Note_off_c, 0, 66, 0
2, 7440, Note_on_c, 0, 65, 88
2, 7559, Note_off_c, 0, 65, 0
2, 7560, Note_on_c, 0, 63, 88
2, 7679, Note_off_c, 0, 63, 0
2, 7680, Note_on_c, 0, 61, 88
2, 7919, Note_off_c, 0, 61, 0
2, 7920, Note_on_c, 0, 71, 88
2, 8159, Note_off_c, 0, 71, 0
2, 8160, Note_on_c, 0, 71, 88
2, 8399, Note_off_c, 0, 71, 0
2, 8400, Note_on_c, 0, 70, 88
2, 8879, Note_off_c, 0, 70, 0
2, 8880, Note_on_c, 0, 69, 88
2, 9119, Note_off_c, 0, 69, 0
2, 9120, Note_on_c, 0, 69, 88
2, 9359, Note_off_c, 0, 69, 0
2, 9360, Note_on_c, 0, 68, 88
2, 9839, Note_off_c, 0, 68, 0
2, 9840, Note_on_c, 0, 68, 88
2, 9959, Note_off_c, 0, 68, 0
2, 9960, Note_on_c, 0, 70, 88
2, 10079, Note_off_c, 0, 70, 0
2, 10080, Note_on_c, 0, 71, 88
2, 10319, Note_off_c, 0, 71, 0
2, 10320, Note_on_c, 0, 63, 88
2, 10559, Note_off_c, 0, 63, 0
2, 10560, Note_on_c, 0, 65, 88
2, 11039, Note_off_c, 0, 65, 0
2, 11040, Note_on_c, 0, 66, 88
2, 11159, Note_off_c, 0, 66, 0
2, 11160, Note_on_c, 0, 65, 88
2, 11279, Note_off_c, 0, 65, 0
2, 11280, Note_on_c, 0, 66, 88
2, 11399, Note_off_c, 0, 66, 0
2, 11400, Note_on_c, 0, 68, 88
2, 11519, Note_off_c, 0, 68, 0
2, 11520, Note_on_c, 0, 70, 88
2, 11639, Note_off_c, 0, 70, 0
2, 11640, Note_on_c, 0, 68, 88
2, 11759, Note_off_c, 0, 68, 0
2, 11760, Note_on_c, 0, 70, 88
2, 11879, Note_off_c, 0, 70, 0
2, 11880, Note_on_c, 0, 66, 88
2, 11999, Note_off_c, 0, 66, 0
2, 12000, Note_on_c, 0, 63, 88
2, 12239, Note_off_c, 0, 63, 0
2, 12240, Note_on_c, 0, 68, 88
2, 12599, Note_off_c, 0, 68, 0
2, 12600, Note_on_c, 0, 66, 88
2, 12719, Note_off_c, 0, 66, 0
2, 12720, Note_on_c, 0, 68, 88
2, 12839, Note_off_c, 0, 68, 0
2, 12840, Note_on_c, 0, 65, 88
2, 12959, Note_off_c, 0, 65, 0
2, 12960, Note_on_c, 0, 66, 88
2, 13079, Note_off_c, 0, 66, 0
2, 13080, Note_on_c, 0, 70, 88
2, 13199, Note_off_c, 0, 70, 0
2, 13200, Note_on_c, 0, 72, 88
2, 13319, Note_off_c, 0, 72, 0
2, 13320, Note_on_c, 0, 74, 88
2, 13439, Note_off_c, 0, 74, 0
2, 13440, Note_on_c, 0, 75, 88
2, 13559, Note_off_c, 0, 75, 0
2, 13560, Note_on_c, 0, 77, 88
2, 13679, Note_off_c, 0, 77, 0
2, 13680, Note_on_c, 0, 78, 88
2, 13799, Note_off_c, 0, 78, 0
2, 13800, Note_on_c, 0, 75, 88
2, 13919, Note_off_c, 0, 75, 0
2, 13920, Note_on_c, 0, 77, 88
2, 14399, Note_off_c, 0, 77, 0
2, 14400, Note_on_c, 0, 80, 88
2, 14437, Note_off_c, 0, 80, 0
2, 14438, Note_on_c, 0, 79, 88
2, 14482, Note_off_c, 0, 79, 0
2, 14483, Note_on_c, 0, 80, 88
2, 14527, Note_off_c, 0, 80, 0
2, 14528, Note_on_c, 0, 79, 88
2, 14572, Note_off_c, 0, 79, 0
2, 14573, Note_on_c, 0, 80, 88
2, 14617, Note_off_c, 0, 80, 0
2, 14618, Note_on_c, 0, 79, 88
2, 14654, Note_off_c, 0, 79, 0
2, 14655, Note_on_c, 0, 80, 88
2, 14692, Note_off_c, 0, 80, 0
2, 14693, Note_on_c, 0, 79, 88
2, 14729, Note_off_c, 0, 79, 0
2, 14730, Note_on_c, 0, 80, 88
2, 14767, Note_off_c, 0, 80, 0
2, 14768, Note_on_c, 0, 79, 88
2, 14804, Note_off_c, 0, 79, 0
2, 14805, Note_on_c, 0, 77, 88
2, 14842, Note_off_c, 0, 77, 0
2, 14843, Note_on_c, 0, 79, 88
2, 14879, Note_off_c, 0, 79, 0
2, 14880, Note_on_c, 0, 80, 88
2, 15119, Note_off_c, 0, 80, 0
2, 15120, Note_on_c, 0, 75, 88
2, 15239, Note_off_c, 0, 75, 0
2, 15240, Note_on_c, 0, 73, 88
2, 15359, Note_off_c, 0, 73, 0
2, 15360, Note_on_c, 0, 71, 88
2, 15599, Note_off_c, 0, 71, 0
2, 15600, Note_on_c, 0, 76, 88
2, 16079, Note_off_c, 0, 76, 0
2, 16080, Note_on_c, 0, 75, 88
2, 16199, Note_off_c, 0, 75, 0
2, 16200, Note_on_c, 0, 73, 88
2, 16319, Note_off_c, 0, 73, 0
2, 16320, Note_on_c, 0, 75, 88
2, 16559, Note_off_c, 0, 75, 0
2, 16560, Note_on_c, 0, 80, 88
2, 16919, Note_off_c, 0, 80, 0
2, 16920, Note_on_c, 0, 78, 88
2, 17039, Note_off_c, 0, 78, 0
2, 17040, Note_on_c, 0, 77, 88
2, 17159, Note_off_c, 0, 77, 0
2, 17160, Note_on_c, 0, 75, 88
2, 17279, Note_off_c, 0, 75, 0
2, 17280, Note_on_c, 0, 73, 88
2, 17399, Note_off_c, 0, 73, 0
2, 17400, Note_on_c, 0, 71, 88
2, 17519, Note_off_c, 0, 71, 0
2, 17520, Note_on_c, 0, 73, 88
2, 17639, Note_off_c, 0, 73, 0
2, 17640, Note_on_c, 0, 70, 88
2, 17759, Note_off_c, 0, 70, 0
2, 17760, Note_on_c, 0, 66, 88
2, 17999, Note_off_c, 0, 66, 0
2, 18000, Note_on_c, 0, 71, 88
2, 18359, Note_off_c, 0, 71, 0
2, 18360, Note_on_c, 0, 70, 88
2, 18479, Note_off_c, 0, 70, 0
2, 18480, Note_on_c, 0, 71, 88
2, 18599, Note_off_c, 0, 71, 0
2, 18600, Note_on_c, 0, 68, 88
2, 18719, Note_off_c, 0, 68, 0
2, 18720, Note_on_c, 0, 70, 88
2, 18839, Note_off_c, 0, 70, 0
2, 18840, Note_on_c, 0, 71, 88
2, 18959, Note_off_c, 0, 71, 0
2, 18960, Note_on_c, 0, 73, 88
2, 19079, Note_off_c, 0, 73, 0
2, 19080, Note_on_c, 0, 75, 88
2, 19199, Note_off_c, 0, 75, 0
2, 19200, Note_on_c, 0, 77, 88
2, 19319, Note_off_c, 0, 77, 0
2, 19320, Note_on_c, 0, 78, 88
2, 19379, Note_off_c, 0, 78, 0
2, 19380, Note_on_c, 0, 77, 88
2, 19439, Note_off_c, 0, 77, 0
2, 19440, Note_on_c, 0, 75, 88
2, 19559, Note_off_c, 0, 75, 0
2, 19560, Note_on_c, 0, 77, 88
2, 19679, Note_off_c, 0, 77, 0
2, 19680, Note_on_c, 0, 78, 88
2, 20159, Note_off_c, 0, 78, 0
2, 20160, Note_on_c, 0, 73, 88
2, 20399, Note_off_c, 0, 73, 0
2, 20400, Note_on_c, 0, 75, 88
2, 20639, Note_off_c, 0, 75, 0
2, 20640, Note_on_c, 0, 76, 88
2, 20999, Note_off_c, 0, 76, 0
2, 21000, Note_on_c, 0, 75, 88
2, 21059, Note_off_c, 0, 75, 0
2, 21060, Note_on_c, 0, 73, 88
2, 21119, Note_off_c, 0, 73, 0
2, 21120, Note_on_c, 0, 71, 88
2, 21239, Note_off_c, 0, 71, 0
2, 21240, Note_on_c, 0, 70, 88
2, 21359, Note_off_c, 0, 70, 0
2, 21360, Note_on_c, 0, 71, 88
2, 21479, Note_off_c, 0, 71, 0
2, 21480, Note_on_c, 0, 73, 88
2, 21599, Note_off_c, 0, 73, 0
2, 21600, Note_on_c, 0, 75, 88
2, 21719, Note_off_c, 0, 75, 0
2, 21720, Note_on_c, 0, 77, 88
2, 21839, Note_off_c, 0, 77, 0
2, 21840, Note_on_c, 0, 78, 88
2, 21959, Note_off_c, 0, 78, 0
2, 21960, Note_on_c, 0, 75, 88
2, 22079, Note_off_c, 0, 75, 0
2, 22080, Note_on_c, 0, 80, 88
2, 22319, Note_off_c, 0, 80, 0
2, 22320, Note_on_c, 0, 71, 88
2, 22559, Note_off_c, 0, 71, 0
2, 22560, Note_on_c, 0, 73, 88
2, 22582, Note_off_c, 0, 73, 0
2, 22583, Note_on_c, 0, 71, 88
2, 22619, Note_off_c, 0, 71, 0
2, 22620, Note_on_c, 0, 73, 88
2, 22657, Note_off_c, 0, 73, 0
2, 22658, Note_on_c, 0, 71, 88
2, 22799, Note_off_c, 0, 71, 0
2, 22800, Note_on_c, 0, 70, 88
2, 23039, Note_off_c, 0, 70, 0
2, 23040, Note_on_c, 0, 78, 88
2, 23279, Note_off_c, 0, 78, 0
2, 23280, Note_on_c, 0, 70, 88
2, 23519, Note_off_c, 0, 70, 0
2, 23520, Note_on_c, 0, 71, 88
2, 23542, Note_off_c, 0, 71, 0
2, 23543, Note_on_c, 0, 70, 88
2, 23579, Note_off_c, 0, 70, 0
2, 23580, Note_on_c, 0, 71, 88
2, 23617, Note_off_c, 0, 71, 0
2, 23618, Note_on_c, 0, 70, 88
2, 23759, Note_off_c, 0, 70, 0
2, 23760, Note_on_c, 0, 68, 88
2, 23999, Note_off_c, 0, 68, 0
2, 24000, Note_on_c, 0, 77, 88
2, 24239, Note_off_c, 0, 77, 0
2, 24240, Note_on_c, 0, 68, 88
2, 24479, Note_off_c, 0, 68, 0
2, 24480, Note_on_c, 0, 70, 88
2, 24502, Note_off_c, 0, 70, 0
2, 24503, Note_on_c, 0, 68, 88
2, 24539, Note_off_c, 0, 68, 0
2, 24540, Note_on_c, 0, 70, 88
2, 24577, Note_off_c, 0, 70, 0
2, 24578, Note_on_c, 0, 68, 88
2, 24719, Note_off_c, 0, 68, 0
2, 24720, Note_on_c, 0, 66, 88
2, 25199, Note_off_c, 0, 66, 0
2, 25200, Note_on_c, 0, 71, 88
2, 25439, Note_off_c, 0, 71, 0
2, 25440, Note_on_c, 0, 71, 88
2, 25679, Note_off_c, 0, 71, 0
2, 25680, Note_on_c, 0, 70, 88
2, 26159, Note_off_c, 0, 70, 0
2, 26160, Note_on_c, 0, 70, 88
2, 26399, Note_off_c, 0, 70, 0
2, 26400, Note_on_c, 0, 70, 88
2, 26639, Note_off_c, 0, 70, 0
2, 26640, Note_on_c, 0, 68, 88
2, 26879, Note_off_c, 0, 68, 0
2, 26880, Note_on_c, 0, 80, 88
2, 27119, Note_off_c, 0, 80, 0
2, 27120, Note_on_c, 0, 72, 88
2, 27359, Note_off_c, 0, 72, 0
2, 27360, Note_on_c, 0, 73, 88
2, 27382, Note_off_c, 0, 73, 0
2, 27383, Note_on_c, 0, 72, 88
2, 27419, Note_off_c, 0, 72, 0
2, 27420, Note_on_c, 0, 73, 88
2, 27457, Note_off_c, 0, 73, 0
2, 27458, Note_on_c, 0, 72, 88
2, 27599, Note_off_c, 0, 72, 0
2, 27600, Note_on_c, 0, 70, 88
2, 27839, Note_off_c, 0, 70, 0
2, 27840, Note_on_c, 0, 79, 88
2, 28079, Note_off_c, 0, 79, 0
2, 28080, Note_on_c, 0, 70, 88
2, 28319, Note_off_c, 0, 70, 0
2, 28320, Note_on_c, 0, 72, 88
2, 28342, Note_off_c, 0, 72, 0
2, 28343, Note_on_c, 0, 70, 88
2, 28379, Note_off_c, 0, 70, 0
2, 28380, Note_on_c, 0, 72, 88
2, 28417, Note_off_c, 0, 72, 0
2, 28418, Note_on_c, 0, 70, 88
2, 28559, Note_off_c, 0, 70, 0
2, 28560, Note_on_c, 0, 68, 88
2, 29039, Note_off_c, 0, 68, 0
2, 29040, Note_on_c, 0, 73, 88
2, 29279, Note_off_c, 0, 73, 0
2, 29280, Note_on_c, 0, 73, 88
2, 29519, Note_off_c, 0, 73, 0
2, 29520, Note_on_c, 0, 72, 88
2, 29999, Note_off_c, 0, 72, 0
2, 30000, Note_on_c, 0, 72, 88
2, 30239, Note_off_c, 0, 72, 0
2, 30240, Note_on_c, 0, 72, 88
2, 30479, Note_off_c, 0, 72, 0
2, 30480, Note_on_c, 0, 70, 88
2, 30719, Note_off_c, 0, 70, 0
2, 30720, Note_on_c, 0, 75, 88
2, 30839, Note_off_c, 0, 75, 0
2, 30840, Note_on_c, 0, 73, 88
2, 30959, Note_off_c, 0, 73, 0
2, 30960, Note_on_c, 0, 75, 88
2, 31199, Note_off_c, 0, 75, 0
2, 31200, Note_on_c, 0, 68, 88
2, 31559, Note_off_c, 0, 68, 0
2, 31560, Note_on_c, 0, 70, 88
2, 31679, Note_off_c, 0, 70, 0
2, 31680, Note_on_c, 0, 71, 88
2, 31919, Note_off_c, 0, 71, 0
2, 31920, Note_on_c, 0, 73, 88
2, 32159, Note_off_c, 0, 73, 0
2, 32160, Note_on_c, 0, 66, 88
2, 32519, Note_off_c, 0, 66, 0
2, 32520, Note_on_c, 0, 68, 88
2, 32639, Note_off_c, 0, 68, 0
2, 32640, Note_on_c, 0, 70, 88
2, 32759, Note_off_c, 0, 70, 0
2, 32760, Note_on_c, 0, 68, 88
2, 32879, Note_off_c, 0, 68, 0
2, 32880, Note_on_c, 0, 70, 88
2, 32999, Note_off_c, 0, 70, 0
2, 33000, Note_on_c, 0, 72, 88
2, 33119, Note_off_c, 0, 72, 0
2, 33120, Note_on_c, 0, 73, 88
2, 33359, Note_off_c, 0, 73, 0
2, 33360, Note_on_c, 0, 70, 88
2, 33599, Note_off_c, 0, 70, 0
2, 33600, Note_on_c, 0, 72, 88
2, 34079, Note_off_c, 0, 72, 0
2, 34080, Note_on_c, 0, 73, 88
2, 35279, Note_off_c, 0, 73, 0
2, 35280, Note_on_c, 0, 73, 88
2, 35399, Note_off_c, 0, 73, 0
2, 35400, Note_on_c, 0, 75, 88
2, 35519, Note_off_c, 0, 75, 0
2, 35520, Note_on_c, 0, 76, 88
2, 35639, Note_off_c, 0, 76, 0
2, 35640, Note_on_c, 0, 75, 88
2, 35759, Note_off_c, 0, 75, 0
2, 35760, Note_on_c, 0, 78, 88
2, 35879, Note_off_c, 0, 78, 0
2, 35880, Note_on_c, 0, 73, 88
2, 35999, Note_off_c, 0, 73, 0
2, 36000, Note_on_c, 0, 71, 88
2, 36119, Note_off_c, 0, 71, 0
2, 36120, Note_on_c, 0, 70, 88
2, 36239, Note_off_c, 0, 70, 0
2, 36240, Note_on_c, 0, 71, 88
2, 36359, Note_off_c, 0, 71, 0
2, 36360, Note_on_c, 0, 73, 88
2, 36479, Note_off_c, 0, 73, 0
2, 36480, Note_on_c, 0, 75, 88
2, 36599, Note_off_c, 0, 75, 0
2, 36600, Note_on_c, 0, 73, 88
2, 36719, Note_off_c, 0, 73, 0
2, 36720, Note_on_c, 0, 76, 88
2, 36839, Note_off_c, 0, 76, 0
2, 36840, Note_on_c, 0, 68, 88
2, 36959, Note_off_c, 0, 68, 0
2, 36960, Note_on_c, 0, 66, 88
2, 37199, Note_off_c, 0, 66, 0
2, 37200, Note_on_c, 0, 71, 88
2, 37559, Note_off_c, 0, 71, 0
2, 37560, Note_on_c, 0, 70, 88
2, 37679, Note_off_c, 0, 70, 0
2, 37680, Note_on_c, 0, 68, 88
2, 37799, Note_off_c, 0, 68, 0
2, 37800, Note_on_c, 0, 80, 88
2, 37919, Note_off_c, 0, 80, 0
2, 37920, Note_on_c, 0, 73, 88
2, 38039, Note_off_c, 0, 73, 0
2, 38040, Note_on_c, 0, 77, 88
2, 38159, Note_off_c, 0, 77, 0
2, 38160, Note_on_c, 0, 78, 88
2, 38279, Note_off_c, 0, 78, 0
2, 38280, Note_on_c, 0, 82, 88
2, 38399, Note_off_c, 0, 82, 0
2, 38400, Note_on_c, 0, 75, 88
2, 38437, Note_off_c, 0, 75, 0
2, 38438, Note_on_c, 0, 74, 88
2, 38474, Note_off_c, 0, 74, 0
2, 38475, Note_on_c, 0, 75, 88
2, 38512, Note_off_c, 0, 75, 0
2, 38513, Note_on_c, 0, 74, 88
2, 38549, Note_off_c, 0, 74, 0
2, 38550, Note_on_c, 0, 75, 88
2, 38587, Note_off_c, 0, 75, 0
2, 38588, Note_on_c, 0, 74, 88
2, 38624, Note_off_c, 0, 74, 0
2, 38625, Note_on_c, 0, 75, 88
2, 38662, Note_off_c, 0, 75, 0
2, 38663, Note_on_c, 0, 74, 88
2, 38692, Note_off_c, 0, 74, 0
2, 38693, Note_on_c, 0, 75, 88
2, 38722, Note_off_c, 0, 75, 0
2, 38723, Note_on_c, 0, 74, 88
2, 38759, Note_off_c, 0, 74, 0
2, 38760, Note_on_c, 0, 72, 88
2, 38819, Note_off_c, 0, 72, 0
2, 38820, Note_on_c, 0, 74, 88
2, 38879, Note_off_c, 0, 74, 0
2, 38880, Note_on_c, 0, 75, 88
2, 39359, Note_off_c, 0, 75, 0
2, 39360, Note_on_c, 0, 70, 88
2, 39599, Note_off_c, 0, 70, 0
2, 39600, Note_on_c, 0, 72, 88
2, 39839, Note_off_c, 0, 72, 0
2, 39840, Note_on_c, 0, 73, 88
2, 40199, Note_off_c, 0, 73, 0
2, 40200, Note_on_c, 0, 72, 88
2, 40259, Note_off_c, 0, 72, 0
2, 40260, Note_on_c, 0, 70, 88
2, 40319, Note_off_c, 0, 70, 0
2, 40320, Note_on_c, 0, 68, 88
2, 40439, Note_off_c, 0, 68, 0
2, 40440, Note_on_c, 0, 67, 88
2, 40559, Note_off_c, 0, 67, 0
2, 40560, Note_on_c, 0, 68, 88
2, 40679, Note_off_c, 0, 68, 0
2, 40680, Note_on_c, 0, 70, 88
2, 40799, Note_off_c, 0, 70, 0
2, 40800, Note_on_c, 0, 72, 88
2, 40919, Note_off_c, 0, 72, 0
2, 40920, Note_on_c, 0, 74, 88
2, 41039, Note_off_c, 0, 74, 0
2, 41040, Note_on_c, 0, 75, 88
2, 41159, Note_off_c, 0, 75, 0
2, 41160, Note_on_c, 0, 72, 88
2, 41279, Note_off_c, 0, 72, 0
2, 41280, Note_on_c, 0, 77, 88
2, 41519, Note_off_c, 0, 77, 0
2, 41520, Note_on_c, 0, 68, 88
2, 41759, Note_off_c, 0, 68, 0
2, 41760, Note_on_c, 0, 70, 88
2, 41782, Note_off_c, 0, 70, 0
2, 41783, Note_on_c, 0, 68, 88
2, 41819, Note_off_c, 0, 68, 0
2, 41820, Note_on_c, 0, 70, 88
2, 41857, Note_off_c, 0, 70, 0
2, 41858, Note_on_c, 0, 68, 88
2, 41999, Note_off_c, 0, 68, 0
2, 42000, Note_on_c, 0, 66, 88
2, 42119, Note_off_c, 0, 66, 0
2, 42120, Note_on_c, 0, 65, 88
2, 42239, Note_off_c, 0, 65, 0
2, 42240, Note_on_c, 0, 66, 88
2, 42479, Note_off_c, 0, 66, 0
2, 42480, Note_on_c, 0, 68, 88
2, 42719, Note_off_c, 0, 68, 0
2, 42720, Note_on_c, 0, 65, 88
2, 43199, Note_off_c, 0, 65, 0
2, 43200, Note_on_c, 0, 68, 88
2, 43237, Note_off_c, 0, 68, 0
2, 43238, Note_on_c, 0, 67, 88
2, 43282, Note_off_c, 0, 67, 0
2, 43283, Note_on_c, 0, 68, 88
2, 43327, Note_off_c, 0, 68, 0
2, 43328, Note_on_c, 0, 67, 88
2, 43372, Note_off_c, 0, 67, 0
2, 43373, Note_on_c, 0, 68, 88
2, 43417, Note_off_c, 0, 68, 0
2, 43418, Note_on_c, 0, 67, 88
2, 43454, Note_off_c, 0, 67, 0
2, 43455, Note_on_c, 0, 68, 88
2, 43492, Note_off_c, 0, 68, 0
2, 43493, Note_on_c, 0, 67, 88
2, 43529, Note_off_c, 0, 67, 0
2, 43530, Note_on_c, 0, 68, 88
2, 43567, Note_off_c, 0, 68, 0
2, 43568, Note_on_c, 0, 67, 88
2, 43604, Note_off_c, 0, 67, 0
2, 43605, Note_on_c, 0, 65, 88
2, 43642, Note_off_c, 0, 65, 0
2, 43643, Note_on_c, 0, 67, 88
2, 43679, Note_off_c, 0, 67, 0
2, 43680, Note_on_c, 0, 68, 88
2, 44399, Note_off_c, 0, 68, 0
2, 44400, Note_on_c, 0, 76, 88
2, 44879, Note_off_c, 0, 76, 0
2, 44880, Note_on_c, 0, 75, 88
2, 44999, Note_off_c, 0, 75, 0
2, 45000, Note_on_c, 0, 73, 88
2, 45119, Note_off_c, 0, 73, 0
2, 45120, Note_on_c, 0, 75, 88
2, 45359, Note_off_c, 0, 75, 0
2, 45360, Note_on_c, 0, 80, 88
2, 45719, Note_off_c, 0, 80, 0
2, 45720, Note_on_c, 0, 78, 88
2, 45839, Note_off_c, 0, 78, 0
2, 45840, Note_on_c, 0, 77, 88
2, 45959, Note_off_c, 0, 77, 0
2, 45960, Note_on_c, 0, 75, 88
2, 46079, Note_off_c, 0, 75, 0
2, 46080, Note_on_c, 0, 73, 88
2, 46199, Note_off_c, 0, 73, 0
2, 46200, Note_on_c, 0, 72, 88
2, 46319, Note_off_c, 0, 72, 0
2, 46320, Note_on_c, 0, 73, 88
2, 46439, Note_off_c, 0, 73, 0
2, 46440, Note_on_c, 0, 77, 88
2, 46559, Note_off_c, 0, 77, 0
2, 46560, Note_on_c, 0, 78, 88
2, 46679, Note_off_c, 0, 78, 0
2, 46680, Note_on_c, 0, 71, 88
2, 46799, Note_off_c, 0, 71, 0
2, 46800, Note_on_c, 0, 83, 88
2, 47159, Note_off_c, 0, 83, 0
2, 47160, Note_on_c, 0, 82, 88
2, 47279, Note_off_c, 0, 82, 0
2, 47280, Note_on_c, 0, 83, 88
2, 47399, Note_off_c, 0, 83, 0
2, 47400, Note_on_c, 0, 80, 88
2, 47519, Note_off_c, 0, 80, 0
2, 47520, Note_on_c, 0, 82, 88
2, 47759, Note_off_c, 0, 82, 0
2, 47760, Note_on_c, 0, 78, 88
2, 47999, Note_off_c, 0, 78, 0
2, 48000, Note_on_c, 0, 83, 88
2, 48359, Note_off_c, 0, 83, 0
2, 48360, Note_on_c, 0, 78, 88
2, 48479, Note_off_c, 0, 78, 0
2, 48480, Note_on_c, 0, 80, 88
2, 48959, Note_off_c, 0, 80, 0
2, 48960, Note_on_c, 0, 83, 88
2, 48997, Note_off_c, 0, 83, 0
2, 48998, Note_on_c, 0, 82, 88
2, 49042, Note_off_c, 0, 82, 0
2, 49043, Note_on_c, 0, 83, 88
2, 49087, Note_off_c, 0, 83, 0
2, 49088, Note_on_c, 0, 82, 88
2, 49132, Note_off_c, 0, 82, 0
2, 49133, Note_on_c, 0, 83, 88
2, 49177, Note_off_c, 0, 83, 0
2, 49178, Note_on_c, 0, 82, 88
2, 49214, Note_off_c, 0, 82, 0
2, 49215, Note_on_c, 0, 83, 88
2, 49252, Note_off_c, 0, 83, 0
2, 49253, Note_on_c, 0, 82, 88
2, 49289, Note_off_c, 0, 82, 0
2, 49290, Note_on_c, 0, 83, 88
2, 49327, Note_off_c, 0, 83, 0
2, 49328, Note_on_c, 0, 82, 88
2, 49364, Note_off_c, 0, 82, 0
2, 49365, Note_on_c, 0, 80, 88
2, 49402, Note_off_c, 0, 80, 0
2, 49403, Note_on_c, 0, 82, 88
2, 49439, Note_off_c, 0, 82, 0
2, 49440, Note_on_c, 0, 83, 88
2, 49679, Note_off_c, 0, 83, 0
2, 49680, Note_on_c, 0, 75, 88
2, 49799, Note_off_c, 0, 75, 0
2, 49800, Note_on_c, 0, 71, 88
2, 49919, Note_off_c, 0, 71, 0
2, 49920, Note_on_c, 0, 73, 88
2, 50039, Note_off_c, 0, 73, 0
2, 50040, Note_on_c, 0, 75, 88
2, 50159, Note_off_c, 0, 75, 0
2, 50160, Note_on_c, 0, 76, 88
2, 50399, Note_off_c, 0, 76, 0
2, 50400, Note_on_c, 0, 76, 88
2, 50639, Note_off_c, 0, 76, 0
2, 50640, Note_on_c, 0, 75, 88
2, 51119, Note_off_c, 0, 75, 0
2, 51120, Note_on_c, 0, 74, 88
2, 51359, Note_off_c, 0, 74, 0
2, 51360, Note_on_c, 0, 74, 88
2, 51599, Note_off_c, 0, 74, 0
2, 51600, Note_on_c, 0, 73, 88
2, 52079, Note_off_c, 0, 73, 0
2, 52080, Note_on_c, 0, 73, 88
2, 52199, Note_off_c, 0, 73, 0
2, 52200, Note_on_c, 0, 75, 88
2, 52319, Note_off_c, 0, 75, 0
2, 52320, Note_on_c, 0, 76, 88
2, 52919, Note_off_c, 0, 76, 0
2, 52920, Note_on_c, 0, 71, 88
2, 53039, Note_off_c, 0, 71, 0
2, 53040, Note_on_c, 0, 70, 88
2, 53159, Note_off_c, 0, 70, 0
2, 53160, Note_on_c, 0, 73, 88
2, 53399, Note_off_c, 0, 73, 0
2, 53400, Note_on_c, 0, 66, 88
2, 53519, Note_off_c, 0, 66, 0
2, 53520, Note_on_c, 0, 71, 88
2, 53639, Note_off_c, 0, 71, 0
2, 53640, Note_on_c, 0, 70, 88
2, 53759, Note_off_c, 0, 70, 0
2, 53760, Note_on_c, 0, 71, 88
2, 53999, Note_off_c, 0, 71, 0
2, 54000, Note_on_c, 0, 71, 88
2, 54239, Note_off_c, 0, 71, 0
2, 54240, Note_on_c, 0, 71, 88
2, 54479, Note_off_c, 0, 71, 0
2, 54480, Note_on_c, 0, 70, 88
2, 54959, Note_off_c, 0, 70, 0
2, 54960, Note_on_c, 0, 70, 88
2, 55199, Note_off_c, 0, 70, 0
2, 55200, Note_on_c, 0, 70, 88
2, 55439, Note_off_c, 0, 70, 0
2, 55440, Note_on_c, 0, 68, 88
2, 55679, Note_off_c, 0, 68, 0
2, 55680, Note_on_c, 0, 76, 88
2, 55919, Note_off_c, 0, 76, 0
2, 55920, Note_on_c, 0, 68, 88
2, 56159, Note_off_c, 0, 68, 0
2, 56160, Note_on_c, 0, 69, 88
2, 56182, Note_off_c, 0, 69, 0
2, 56183, Note_on_c, 0, 68, 88
2, 56227, Note_off_c, 0, 68, 0
2, 56228, Note_on_c, 0, 69, 88
2, 56264, Note_off_c, 0, 69, 0
2, 56265, Note_on_c, 0, 68, 88
2, 56399, Note_off_c, 0, 68, 0
2, 56400, Note_on_c, 0, 66, 88
2, 56639, Note_off_c, 0, 66, 0
2, 56640, Note_on_c, 0, 75, 88
2, 56879, Note_off_c, 0, 75, 0
2, 56880, Note_on_c, 0, 66, 88
2, 57119, Note_off_c, 0, 66, 0
2, 57120, Note_on_c, 0, 68, 88
2, 57142, Note_off_c, 0, 68, 0
2, 57143, Note_on_c, 0, 66, 88
2, 57187, Note_off_c, 0, 66, 0
2, 57188, Note_on_c, 0, 68, 88
2, 57224, Note_off_c, 0, 68, 0
2, 57225, Note_on_c, 0, 66, 88
2, 57359, Note_off_c, 0, 66, 0
2, 57360, Note_on_c, 0, 65, 88
2, 57839, Note_off_c, 0, 65, 0
2, 57840, Note_on_c, 0, 73, 88
2, 58079, Note_off_c, 0, 73, 0
2, 58080, Note_on_c, 0, 73, 88
2, 58319, Note_off_c, 0, 73, 0
2, 58320, Note_on_c, 0, 72, 88
2, 58799, Note_off_c, 0, 72, 0
2, 58800, Note_on_c, 0, 72, 88
2, 59039, Note_off_c, 0, 72, 0
2, 59040, Note_on_c, 0, 72, 88
2, 59279, Note_off_c, 0, 72, 0
2, 59280, Note_on_c, 0, 70, 88
2, 59519, Note_off_c, 0, 70, 0
2, 59520, Note_on_c, 0, 78, 88
2, 59759, Note_off_c, 0, 78, 0
2, 59760, Note_on_c, 0, 70, 88
2, 59999, Note_off_c, 0, 70, 0
2, 60000, Note_on_c, 0, 71, 88
2, 60022, Note_off_c, 0, 71, 0
2, 60023, Note_on_c, 0, 70, 88
2, 60067, Note_off_c, 0, 70, 0
2, 60068, Note_on_c, 0, 71, 88
2, 60104, Note_off_c, 0, 71, 0
2, 60105, Note_on_c, 0, 70, 88
2, 60239, Note_off_c, 0, 70, 0
2, 60240, Note_on_c, 0, 68, 88
2, 60479, Note_off_c, 0, 68, 0
2, 60480, Note_on_c, 0, 77, 88
2, 60719, Note_off_c, 0, 77, 0
2, 60720, Note_on_c, 0, 68, 88
2, 60959, Note_off_c, 0, 68, 0
2, 60960, Note_on_c, 0, 70, 88
2, 60982, Note_off_c, 0, 70, 0
2, 60983, Note_on_c, 0, 68, 88
2, 61027, Note_off_c, 0, 68, 0
2, 61028, Note_on_c, 0, 70, 88
2, 61064, Note_off_c, 0, 70, 0
2, 61065, Note_on_c, 0, 68, 88
2, 61199, Note_off_c, 0, 68, 0
2, 61200, Note_on_c, 0, 66, 88
2, 61679, Note_off_c, 0, 66, 0
2, 61680, Note_on_c, 0, 71, 88
2, 61919, Note_off_c, 0, 71, 0
2, 61920, Note_on_c, 0, 71, 88
2, 62159, Note_off_c, 0, 71, 0
2, 62160, Note_on_c, 0, 70, 88
2, 62639, Note_off_c, 0, 70, 0
2, 62640, Note_on_c, 0, 69, 88
2, 62879, Note_off_c, 0, 69, 0
2, 62880, Note_on_c, 0, 69, 88
2, 63119, Note_off_c, 0, 69, 0
2, 63120, Note_on_c, 0, 68, 88
2, 63599, Note_off_c, 0, 68, 0
2, 63600, Note_on_c, 0, 68, 88
2, 63839, Note_off_c, 0, 68, 0
2, 63840, Note_on_c, 0, 66, 88
2, 64079, Note_off_c, 0, 66, 0
2, 64080, Note_on_c, 0, 71, 88
2, 64559, Note_off_c, 0, 71, 0
2, 64560, Note_on_c, 0, 70, 88
2, 64679, Note_off_c, 0, 70, 0
2, 64680, Note_on_c, 0, 68, 88
2, 64799, Note_off_c, 0, 68, 0
2, 64800, Note_on_c, 0, 66, 88
2, 72959, Note_off_c, 0, 66, 0
2, 72960, Note_on_c, 0, 78, 88
2, 72997, Note_off_c, 0, 78, 0
2, 72998, Note_on_c, 0, 77, 88
2, 73034, Note_off_c, 0, 77, 0
2, 73035, Note_on_c, 0, 78, 88
2, 73072, Note_off_c, 0, 78, 0
2, 73073, Note_on_c, 0, 77, 88
2, 73109, Note_off_c, 0, 77, 0
2, 73110, Note_on_c, 0, 78, 88
2, 73147, Note_off_c, 0, 78, 0
2, 73148, Note_on_c, 0, 77, 88
2, 73184, Note_off_c, 0, 77, 0
2, 73185, Note_on_c, 0, 78, 88
2, 73222, Note_off_c, 0, 78, 0
2, 73223, Note_on_c, 0, 77, 88
2, 73252, Note_off_c, 0, 77, 0
2, 73253, Note_on_c, 0, 78, 88
2, 73282, Note_off_c, 0, 78, 0
2, 73283, Note_on_c, 0, 77, 88
2, 73319, Note_off_c, 0, 77, 0
2, 73320, Note_on_c, 0, 75, 88
2, 73379, Note_off_c, 0, 75, 0
2, 73380, Note_on_c, 0, 77, 88
2, 73439, Note_off_c, 0, 77, 0
2, 73440, Note_on_c, 0, 78, 88
2, 73919, Note_off_c, 0, 78, 0
2, 73920, Note_on_c, 0, 73, 88
2, 74159, Note_off_c, 0, 73, 0
2, 74160, Note_on_c, 0, 75, 88
2, 74399, Note_off_c, 0, 75, 0
2, 74400, Note_on_c, 0, 76, 88
2, 74759, Note_off_c, 0, 76, 0
2, 74760, Note_on_c, 0, 75, 88
2, 74819, Note_off_c, 0, 75, 0
2, 74820, Note_on_c, 0, 73, 88
2, 74879, Note_off_c, 0, 73, 0
2, 74880, Note_on_c, 0, 71, 88
2, 74999, Note_off_c, 0, 71, 0
2, 75000, Note_on_c, 0, 70, 88
2, 75119, Note_off_c, 0, 70, 0
2, 75120, Note_on_c, 0, 71, 88
2, 75239, Note_off_c, 0, 71, 0
2, 75240, Note_on_c, 0, 73, 88
2, 75359, Note_off_c, 0, 73, 0
2, 75360, Note_on_c, 0, 75, 88
2, 75479, Note_off_c, 0, 75, 0
2, 75480, Note_on_c, 0, 77, 88
2, 75599, Note_off_c, 0, 77, 0
2, 75600, Note_on_c, 0, 78, 88
2, 75719, Note_off_c, 0, 78, 0
2, 75720, Note_on_c, 0, 75, 88
2, 75839, Note_off_c, 0, 75, 0
2, 75840, Note_on_c, 0, 80, 88
2, 76079, Note_off_c, 0, 80, 0
2, 76080, Note_on_c, 0, 71, 88
2, 76319, Note_off_c, 0, 71, 0
2, 76320, Note_on_c, 0, 71, 88
2, 76559, Note_off_c, 0, 71, 0
2, 76560, Note_on_c, 0, 70, 88
2, 76799, Note_off_c, 0, 70, 0
2, 76800, Note_on_c, 0, 82, 88
2, 77039, Note_off_c, 0, 82, 0
2, 77040, Note_on_c, 0, 73, 88
2, 77279, Note_off_c, 0, 73, 0
2, 77280, Note_on_c, 0, 75, 88
2, 77302, Note_off_c, 0, 75, 0
2, 77303, Note_on_c, 0, 73, 88
2, 77339, Note_off_c, 0, 73, 0
2, 77340, Note_on_c, 0, 75, 88
2, 77377, Note_off_c, 0, 75, 0
2, 77378, Note_on_c, 0, 73, 88
2, 77519, Note_off_c, 0, 73, 0
2, 77520, Note_on_c, 0, 71, 88
2, 77759, Note_off_c, 0, 71, 0
2, 77760, Note_on_c, 0, 83, 88
2, 77999, Note_off_c, 0, 83, 0
2, 78000, Note_on_c, 0, 75, 88
2, 78239, Note_off_c, 0, 75, 0
2, 78240, Note_on_c, 0, 77, 88
2, 78262, Note_off_c, 0, 77, 0
2, 78263, Note_on_c, 0, 75, 88
2, 78307, Note_off_c, 0, 75, 0
2, 78308, Note_on_c, 0, 77, 88
2, 78344, Note_off_c, 0, 77, 0
2, 78345, Note_on_c, 0, 75, 88
2, 78479, Note_off_c, 0, 75, 0
2, 78480, Note_on_c, 0, 73, 88
2, 78599, Note_off_c, 0, 73, 0
2, 78600, Note_on_c, 0, 75, 88
2, 78719, Note_off_c, 0, 75, 0
2, 78720, Note_on_c, 0, 77, 88
2, 78839, Note_off_c, 0, 77, 0
2, 78840, Note_on_c, 0, 78, 88
2, 78959, Note_off_c, 0, 78, 0
2, 78960, Note_on_c, 0, 80, 88
2, 79079, Note_off_c, 0, 80, 0
2, 79080, Note_on_c, 0, 77, 88
2, 79199, Note_off_c, 0, 77, 0
2, 79200, Note_on_c, 0, 78, 88
2, 79559, Note_off_c, 0, 78, 0
2, 79560, Note_on_c, 0, 80, 88
2, 79679, Note_off_c, 0, 80, 0
2, 79680, Note_on_c, 0, 78, 88
2, 79717, Note_off_c, 0, 78, 0
2, 79718, Note_on_c, 0, 77, 88
2, 79754, Note_off_c, 0, 77, 0
2, 79755, Note_on_c, 0, 78, 88
2, 79792, Note_off_c, 0, 78, 0
2, 79793, Note_on_c, 0, 77, 88
2, 79829, Note_off_c, 0, 77, 0
2, 79830, Note_on_c, 0, 78, 88
2, 79859, Note_off_c, 0, 78, 0
2, 79860, Note_on_c, 0, 77, 88
2, 79889, Note_off_c, 0, 77, 0
2, 79890, Note_on_c, 0, 78, 88
2, 79919, Note_off_c, 0, 78, 0
2, 79920, Note_on_c, 0, 77, 88
2, 80039, Note_off_c, 0, 77, 0
2, 80040, Note_on_c, 0, 78, 88
2, 80159, Note_off_c, 0, 78, 0
2, 80160, Note_on_c, 0, 78, 88
2, 80200, Note_off_c, 0, 78, 0
2, 80200, End_track
0, 0, End_of_file