0, 0, Header, 1, 2, 240
1, 0, Start_track
1, 0, Time_signature, 4, 2, 24, 8
1, 0, Tempo, 821917
1, 0, SMPTE_offset, 64, 0, 0, 0, 100
1, 0, End_track
2, 0, Start_track
2, 0, Title_t, "Track 1"
2, 0, Program_c, 0, 6
2, 3240, Note_on_c, 0, 66, 88
2, 3359, Note_off_c, 0, 66, 0
2, 3360, Note_on_c, 0, 64, 88
2, 3479, Note_off_c, 0, 64, 0
2, 3480, Note_on_c, 0, 61, 88
2, 3599, Note_off_c, 0, 61, 0
2, 3600, Note_on_c, 0, 69, 88
2, 3959, Note_off_c, 0, 69, 0
2, 3960, Note_on_c, 0, 68, 88
2, 4019, Note_off_c, 0, 68, 0
2, 4020, Note_on_c, 0, 66, 88
2, 4079, Note_off_c, 0, 66, 0
2, 4080, Note_on_c, 0, 68, 88
2, 4439, Note_off_c, 0, 68, 0
2, 4440, Note_on_c, 0, 73, 88
2, 4559, Note_off_c, 0, 73, 0
2, 4560, Note_on_c, 0, 66, 88
2, 4919, Note_off_c, 0, 66, 0
2, 4920, Note_on_c, 0, 64, 88
2, 4979, Note_off_c, 0, 64, 0
2, 4980, Note_on_c, 0, 63, 88
2, 5039, Note_off_c, 0, 63, 0
2, 5040, Note_on_c, 0, 64, 88
2, 5159, Note_off_c, 0, 64, 0
2, 5160, Note_on_c, 0, 61, 88
2, 5279, Note_off_c, 0, 61, 0
2, 5280, Note_on_c, 0, 63, 88
2, 5759, Note_off_c, 0, 63, 0
2, 5760, Note_on_c, 0, 61, 88
2, 5879, Note_off_c, 0, 61, 0
2, 5880, Note_on_c, 0, 73, 88
2, 5999, Note_off_c, 0, 73, 0
2, 6000, Note_on_c, 0, 66, 88
2, 6359, Note_off_c, 0, 66, 0
2, 6360, Note_on_c, 0, 71, 88
2, 6479, Note_off_c, 0, 71, 0
2, 6480, Note_on_c, 0, 64, 88
2, 6839, Note_off_c, 0, 64, 0
2, 6840, Note_on_c, 0, 69, 88
2, 7079, Note_off_c, 0, 69, 0
2, 7080, Note_on_c, 0, 68, 88
2, 7319, Note_off_c, 0, 68, 0
2, 7320, Note_on_c, 0, 66, 88
2, 7559, Note_off_c, 0, 66, 0
2, 7560, Note_on_c, 0, 65, 88
2, 7679, Note_off_c, 0, 65, 0
2, 7680, Note_on_c, 0, 66, 88
2, 8039, Note_off_c, 0, 66, 0
2, 8040, Note_on_c, 0, 71, 88
2, 8159, Note_off_c, 0, 71, 0
2, 8160, Note_on_c, 0, 68, 88
2, 8279, Note_off_c, 0, 68, 0
2, 8280, Note_on_c, 0, 64, 88
2, 8519, Note_off_c, 0, 64, 0
2, 8520, Note_on_c, 0, 69, 88
2, 8639, Note_off_c, 0, 69, 0
2, 8640, Note_on_c, 0, 66, 88
2, 8759, Note_off_c, 0, 66, 0
2, 8760, Note_on_c, 0, 63, 88
2, 8999, Note_off_c, 0, 63, 0
2, 9000, Note_on_c, 0, 68, 88
2, 9119, Note_off_c, 0, 68, 0
2, 9120, Note_on_c, 0, 65, 88
2, 9239, Note_off_c, 0, 65, 0
2, 9240, Note_on_c, 0, 61, 88
2, 9359, Note_off_c, 0, 61, 0
2, 9360, Note_on_c, 0, 66, 88
2, 9839, Note_off_c, 0, 66, 0
2, 9840, Note_on_c, 0, 65, 88
2, 10079, Note_off_c, 0, 65, 0
2, 10080, Note_on_c, 0, 66, 88
2, 10199, Note_off_c, 0, 66, 0
2, 10200, Note_on_c, 0, 69, 88
2, 10319, Note_off_c, 0, 69, 0
2, 10320, Note_on_c, 0, 71, 88
2, 10439, Note_off_c, 0, 71, 0
2, 10440, Note_on_c, 0, 74, 88
2, 10679, Note_off_c, 0, 74, 0
2, 10680, Note_on_c, 0, 68, 88
2, 10799, Note_off_c, 0, 68, 0
2, 10800, Note_on_c, 0, 69, 88
2, 10919, Note_off_c, 0, 69, 0
2, 10920, Note_on_c, 0, 73, 88
2, 11159, Note_off_c, 0, 73, 0
2, 11160, Note_on_c, 0, 66, 88
2, 11219, Note_off_c, 0, 66, 0
2, 11220, Note_on_c, 0, 68, 88
2, 11279, Note_off_c, 0, 68, 0
2, 11280, Note_on_c, 0, 69, 88
2, 11302, Note_off_c, 0, 69, 0
2, 11303, Note_on_c, 0, 68, 88
2, 11324, Note_off_c, 0, 68, 0
2, 11325, Note_on_c, 0, 69, 88
2, 11347, Note_off_c, 0, 69, 0
2, 11348, Note_on_c, 0, 68, 88
2, 11369, Note_off_c, 0, 68, 0
2, 11370, Note_on_c, 0, 69, 88
2, 11392, Note_off_c, 0, 69, 0
2, 11393, Note_on_c, 0, 68, 88
2, 11414, Note_off_c, 0, 68, 0
2, 11415, Note_on_c, 0, 69, 88
2, 11437, Note_off_c, 0, 69, 0
2, 11438, Note_on_c, 0, 68, 88
2, 11459, Note_off_c, 0, 68, 0
2, 11460, Note_on_c, 0, 66, 88
2, 11489, Note_off_c, 0, 66, 0
2, 11490, Note_on_c, 0, 68, 88
2, 11519, Note_off_c, 0, 68, 0
2, 11520, Note_on_c, 0, 69, 88
2, 11879, Note_off_c, 0, 69, 0
2, 11880, Note_on_c, 0, 75, 88
2, 11999, Note_off_c, 0, 75, 0
2, 12000, Note_on_c, 0, 72, 88
2, 12119, Note_off_c, 0, 72, 0
2, 12120, Note_on_c, 0, 68, 88
2, 12359, Note_off_c, 0, 68, 0
2, 12360, Note_on_c, 0, 73, 88
2, 12479, Note_off_c, 0, 73, 0
2, 12480, Note_on_c, 0, 78, 88
2, 12719, Note_off_c, 0, 78, 0
2, 12720, Note_on_c, 0, 75, 88
2, 12959, Note_off_c, 0, 75, 0
2, 12960, Note_on_c, 0, 80, 88
2, 13079, Note_off_c, 0, 80, 0
2, 13080, Note_on_c, 0, 76, 88
2, 13199, Note_off_c, 0, 76, 0
2, 13200, Note_on_c, 0, 78, 88
2, 13319, Note_off_c, 0, 78, 0
2, 13320, Note_on_c, 0, 81, 88
2, 13559, Note_off_c, 0, 81, 0
2, 13560, Note_on_c, 0, 74, 88
2, 13679, Note_off_c, 0, 74, 0
2, 13680, Note_on_c, 0, 76, 88
2, 13799, Note_off_c, 0, 76, 0
2, 13800, Note_on_c, 0, 80, 88
2, 14039, Note_off_c, 0, 80, 0
2, 14040, Note_on_c, 0, 73, 88
2, 14159, Note_off_c, 0, 73, 0
2, 14160, Note_on_c, 0, 71, 88
2, 14279, Note_off_c, 0, 71, 0
2, 14280, Note_on_c, 0, 69, 88
2, 14399, Note_off_c, 0, 69, 0
2, 14400, Note_on_c, 0, 68, 88
2, 14759, Note_off_c, 0, 68, 0
2, 14760, Note_on_c, 0, 73, 88
2, 14879, Note_off_c, 0, 73, 0
2, 14880, Note_on_c, 0, 69, 88
2, 14999, Note_off_c, 0, 69, 0
2, 15000, Note_on_c, 0, 66, 88
2, 15119, Note_off_c, 0, 66, 0
2, 15120, Note_on_c, 0, 74, 88
2, 15479, Note_off_c, 0, 74, 0
2, 15480, Note_on_c, 0, 73, 88
2, 15539, Note_off_c, 0, 73, 0
2, 15540, Note_on_c, 0, 71, 88
2, 15599, Note_off_c, 0, 71, 0
2, 15600, Note_on_c, 0, 73, 88
2, 15959, Note_off_c, 0, 73, 0
2, 15960, Note_on_c, 0, 78, 88
2, 16079, Note_off_c, 0, 78, 0
2, 16080, Note_on_c, 0, 71, 88
2, 16439, Note_off_c, 0, 71, 0
2, 16440, Note_on_c, 0, 69, 88
2, 16499, Note_off_c, 0, 69, 0
2, 16500, Note_on_c, 0, 68, 88
2, 16559, Note_off_c, 0, 68, 0
2, 16560, Note_on_c, 0, 69, 88
2, 16679, Note_off_c, 0, 69, 0
2, 16680, Note_on_c, 0, 66, 88
2, 16799, Note_off_c, 0, 66, 0
2, 16800, Note_on_c, 0, 68, 88
2, 17279, Note_off_c, 0, 68, 0
2, 17280, Note_on_c, 0, 66, 88
2, 17639, Note_off_c, 0, 66, 0
2, 17640, Note_on_c, 0, 71, 88
2, 17759, Note_off_c, 0, 71, 0
2, 17760, Note_on_c, 0, 64, 88
2, 17879, Note_off_c, 0, 64, 0
2, 17880, Note_on_c, 0, 68, 88
2, 17999, Note_off_c, 0, 68, 0
2, 18000, Note_on_c, 0, 69, 88
2, 18119, Note_off_c, 0, 69, 0
2, 18120, Note_on_c, 0, 73, 88
2, 18239, Note_off_c, 0, 73, 0
2, 18240, Note_on_c, 0, 66, 88
2, 18479, Note_off_c, 0, 66, 0
2, 18480, Note_on_c, 0, 69, 88
2, 18502, Note_off_c, 0, 69, 0
2, 18503, Note_on_c, 0, 68, 88
2, 18528, Note_off_c, 0, 68, 0
2, 18529, Note_on_c, 0, 69, 88
2, 18554, Note_off_c, 0, 69, 0
2, 18555, Note_on_c, 0, 68, 88
2, 18580, Note_off_c, 0, 68, 0
2, 18581, Note_on_c, 0, 69, 88
2, 18607, Note_off_c, 0, 69, 0
2, 18608, Note_on_c, 0, 68, 88
2, 18629, Note_off_c, 0, 68, 0
2, 18630, Note_on_c, 0, 69, 88
2, 18652, Note_off_c, 0, 69, 0
2, 18653, Note_on_c, 0, 68, 88
2, 18674, Note_off_c, 0, 68, 0
2, 18675, Note_on_c, 0, 66, 88
2, 18697, Note_off_c, 0, 66, 0
2, 18698, Note_on_c, 0, 68, 88
2, 18719, Note_off_c, 0, 68, 0
2, 18720, Note_on_c, 0, 69, 88
2, 19799, Note_off_c, 0, 69, 0
2, 19800, Note_on_c, 0, 74, 88
2, 19919, Note_off_c, 0, 74, 0
2, 19920, Note_on_c, 0, 73, 88
2, 20099, Note_off_c, 0, 73, 0
2, 20100, Note_on_c, 0, 71, 88
2, 20159, Note_off_c, 0, 71, 0
2, 20160, Note_on_c, 0, 70, 88
2, 20279, Note_off_c, 0, 70, 0
2, 20280, Note_on_c, 0, 66, 88
2, 20399, Note_off_c, 0, 66, 0
2, 20400, Note_on_c, 0, 71, 88
2, 20879, Note_off_c, 0, 71, 0
2, 20880, Note_on_c, 0, 70, 88
2, 20999, Note_off_c, 0, 70, 0
2, 21000, Note_on_c, 0, 69, 88
2, 21239, Note_off_c, 0, 69, 0
2, 21240, Note_on_c, 0, 71, 88
2, 21359, Note_off_c, 0, 71, 0
2, 21360, Note_on_c, 0, 69, 88
2, 21539, Note_off_c, 0, 69, 0
2, 21540, Note_on_c, 0, 68, 88
2, 21599, Note_off_c, 0, 68, 0
2, 21600, Note_on_c, 0, 66, 88
2, 22079, Note_off_c, 0, 66, 0
2, 22080, Note_on_c, 0, 64, 88
2, 22439, Note_off_c, 0, 64, 0
2, 22440, Note_on_c, 0, 69, 88
2, 22559, Note_off_c, 0, 69, 0
2, 22560, Note_on_c, 0, 71, 88
2, 22919, Note_off_c, 0, 71, 0
2, 22920, Note_on_c, 0, 68, 88
2, 23039, Note_off_c, 0, 68, 0
2, 23040, Note_on_c, 0, 73, 88
2, 23399, Note_off_c, 0, 73, 0
2, 23400, Note_on_c, 0, 69, 88
2, 23519, Note_off_c, 0, 69, 0
2, 23520, Note_on_c, 0, 74, 88
2, 24119, Note_off_c, 0, 74, 0
2, 24120, Note_on_c, 0, 74, 88
2, 24239, Note_off_c, 0, 74, 0
2, 24240, Note_on_c, 0, 73, 88
2, 24419, Note_off_c, 0, 73, 0
2, 24420, Note_on_c, 0, 71, 88
2, 24479, Note_off_c, 0, 71, 0
2, 24480, Note_on_c, 0, 69, 88
2, 24719, Note_off_c, 0, 69, 0
2, 24720, Note_on_c, 0, 78, 88
2, 25079, Note_off_c, 0, 78, 0
2, 25080, Note_on_c, 0, 76, 88
2, 25199, Note_off_c, 0, 76, 0
2, 25200, Note_on_c, 0, 74, 88
2, 25379, Note_off_c, 0, 74, 0
2, 25380, Note_on_c, 0, 73, 88
2, 25439, Note_off_c, 0, 73, 0
2, 25440, Note_on_c, 0, 74, 88
2, 25559, Note_off_c, 0, 74, 0
2, 25560, Note_on_c, 0, 71, 88
2, 25679, Note_off_c, 0, 71, 0
2, 25680, Note_on_c, 0, 76, 88
2, 26039, Note_off_c, 0, 76, 0
2, 26040, Note_on_c, 0, 78, 88
2, 26159, Note_off_c, 0, 78, 0
2, 26160, Note_on_c, 0, 74, 88
2, 26279, Note_off_c, 0, 74, 0
2, 26280, Note_on_c, 0, 71, 88
2, 26399, Note_off_c, 0, 71, 0
2, 26400, Note_on_c, 0, 73, 88
2, 26759, Note_off_c, 0, 73, 0
2, 26760, Note_on_c, 0, 70, 88
2, 26879, Note_off_c, 0, 70, 0
2, 26880, Note_on_c, 0, 71, 88
2, 26999, Note_off_c, 0, 71, 0
2, 27000, Note_on_c, 0, 74, 88
2, 27119, Note_off_c, 0, 74, 0
2, 27120, Note_on_c, 0, 73, 88
2, 27299, Note_off_c, 0, 73, 0
2, 27300, Note_on_c, 0, 71, 88
2, 27359, Note_off_c, 0, 71, 0
2, 27360, Note_on_c, 0, 69, 88
2, 27719, Note_off_c, 0, 69, 0
2, 27720, Note_on_c, 0, 74, 88
2, 27839, Note_off_c, 0, 74, 0
2, 27840, Note_on_c, 0, 67, 88
2, 28199, Note_off_c, 0, 67, 0
2, 28200, Note_on_c, 0, 73, 88
2, 28319, Note_off_c, 0, 73, 0
2, 28320, Note_on_c, 0, 66, 88
2, 28919, Note_off_c, 0, 66, 0
2, 28920, Note_on_c, 0, 65, 88
2, 29039, Note_off_c, 0, 65, 0
2, 29040, Note_on_c, 0, 66, 88
2, 29159, Note_off_c, 0, 66, 0
2, 29160, Note_on_c, 0, 69, 88
2, 29279, Note_off_c, 0, 69, 0
2, 29280, Note_on_c, 0, 63, 88
2, 29399, Note_off_c, 0, 63, 0
2, 29400, Note_on_c, 0, 66, 88
2, 29519, Note_off_c, 0, 66, 0
2, 29520, Note_on_c, 0, 71, 88
2, 29879, Note_off_c, 0, 71, 0
2, 29880, Note_on_c, 0, 69, 88
2, 29939, Note_off_c, 0, 69, 0
2, 29940, Note_on_c, 0, 68, 88
2, 29999, Note_off_c, 0, 68, 0
2, 30000, Note_on_c, 0, 69, 88
2, 30119, Note_off_c, 0, 69, 0
2, 30120, Note_on_c, 0, 73, 88
2, 30239, Note_off_c, 0, 73, 0
2, 30240, Note_on_c, 0, 66, 88
2, 30359, Note_off_c, 0, 66, 0
2, 30360, Note_on_c, 0, 69, 88
2, 30479, Note_off_c, 0, 69, 0
2, 30480, Note_on_c, 0, 74, 88
2, 30839, Note_off_c, 0, 74, 0
2, 30840, Note_on_c, 0, 74, 88
2, 30959, Note_off_c, 0, 74, 0
2, 30960, Note_on_c, 0, 73, 88
2, 31139, Note_off_c, 0, 73, 0
2, 31140, Note_on_c, 0, 71, 88
2, 31199, Note_off_c, 0, 71, 0
2, 31200, Note_on_c, 0, 69, 88
2, 31799, Note_off_c, 0, 69, 0
2, 31800, Note_on_c, 0, 68, 88
2, 31859, Note_off_c, 0, 68, 0
2, 31860, Note_on_c, 0, 66, 88
2, 31919, Note_off_c, 0, 66, 0
2, 31920, Note_on_c, 0, 68, 88
2, 32039, Note_off_c, 0, 68, 0
2, 32040, Note_on_c, 0, 63, 88
2, 32159, Note_off_c, 0, 63, 0
2, 32160, Note_on_c, 0, 64, 88
2, 32279, Note_off_c, 0, 64, 0
2, 32280, Note_on_c, 0, 76, 88
2, 32399, Note_off_c, 0, 76, 0
2, 32400, Note_on_c, 0, 75, 88
2, 32579, Note_off_c, 0, 75, 0
2, 32580, Note_on_c, 0, 73, 88
2, 32639, Note_off_c, 0, 73, 0
2, 32640, Note_on_c, 0, 72, 88
2, 32759, Note_off_c, 0, 72, 0
2, 32760, Note_on_c, 0, 78, 88
2, 32879, Note_off_c, 0, 78, 0
2, 32880, Note_on_c, 0, 76, 88
2, 32999, Note_off_c, 0, 76, 0
2, 33000, Note_on_c, 0, 75, 88
2, 33119, Note_off_c, 0, 75, 0
2, 33120, Note_on_c, 0, 76, 88
2, 33479, Note_off_c, 0, 76, 0
2, 33480, Note_on_c, 0, 75, 88
2, 33539, Note_off_c, 0, 75, 0
2, 33540, Note_on_c, 0, 73, 88
2, 33599, Note_off_c, 0, 73, 0
2, 33600, Note_on_c, 0, 80, 88
2, 33719, Note_off_c, 0, 80, 0
2, 33720, Note_on_c, 0, 72, 88
2, 33839, Note_off_c, 0, 72, 0
2, 33840, Note_on_c, 0, 73, 88
2, 34319, Note_off_c, 0, 73, 0
2, 34320, Note_on_c, 0, 73, 88
2, 34349, Note_off_c, 0, 73, 0
2, 34350, Note_on_c, 0, 72, 88
2, 34379, Note_off_c, 0, 72, 0
2, 34380, Note_on_c, 0, 73, 88
2, 34409, Note_off_c, 0, 73, 0
2, 34410, Note_on_c, 0, 72, 88
2, 34439, Note_off_c, 0, 72, 0
2, 34440, Note_on_c, 0, 73, 88
2, 34469, Note_off_c, 0, 73, 0
2, 34470, Note_on_c, 0, 72, 88
2, 34499, Note_off_c, 0, 72, 0
2, 34500, Note_on_c, 0, 70, 88
2, 34529, Note_off_c, 0, 70, 0
2, 34530, Note_on_c, 0, 72, 88
2, 34559, Note_off_c, 0, 72, 0
2, 34560, Note_on_c, 0, 73, 88
2, 34919, Note_off_c, 0, 73, 0
2, 34920, Note_on_c, 0, 73, 88
2, 35039, Note_off_c, 0, 73, 0
2, 35040, Note_on_c, 0, 71, 88
2, 35099, Note_off_c, 0, 71, 0
2, 35100, Note_on_c, 0, 73, 88
2, 35159, Note_off_c, 0, 73, 0
2, 35160, Note_on_c, 0, 71, 88
2, 35219, Note_off_c, 0, 71, 0
2, 35220, Note_on_c, 0, 69, 88
2, 35279, Note_off_c, 0, 69, 0
2, 35280, Note_on_c, 0, 71, 88
2, 35339, Note_off_c, 0, 71, 0
2, 35340, Note_on_c, 0, 69, 88
2, 35399, Note_off_c, 0, 69, 0
2, 35400, Note_on_c, 0, 68, 88
2, 35459, Note_off_c, 0, 68, 0
2, 35460, Note_on_c, 0, 71, 88
2, 35519, Note_off_c, 0, 71, 0
2, 35520, Note_on_c, 0, 69, 88
2, 35579, Note_off_c, 0, 69, 0
2, 35580, Note_on_c, 0, 71, 88
2, 35639, Note_off_c, 0, 71, 0
2, 35640, Note_on_c, 0, 69, 88
2, 35699, Note_off_c, 0, 69, 0
2, 35700, Note_on_c, 0, 68, 88
2, 35759, Note_off_c, 0, 68, 0
2, 35760, Note_on_c, 0, 69, 88
2, 35819, Note_off_c, 0, 69, 0
2, 35820, Note_on_c, 0, 68, 88
2, 35879, Note_off_c, 0, 68, 0
2, 35880, Note_on_c, 0, 66, 88
2, 35939, Note_off_c, 0, 66, 0
2, 35940, Note_on_c, 0, 69, 88
2, 35999, Note_off_c, 0, 69, 0
2, 36000, Note_on_c, 0, 68, 88
2, 36119, Note_off_c, 0, 68, 0
2, 36120, Note_on_c, 0, 73, 88
2, 36239, Note_off_c, 0, 73, 0
2, 36240, Note_on_c, 0, 66, 88
2, 36359, Note_off_c, 0, 66, 0
2, 36360, Note_on_c, 0, 70, 88
2, 36479, Note_off_c, 0, 70, 0
2, 36480, Note_on_c, 0, 71, 88
2, 36599, Note_off_c, 0, 71, 0
2, 36600, Note_on_c, 0, 66, 88
2, 36719, Note_off_c, 0, 66, 0
2, 36720, Note_on_c, 0, 71, 88
2, 37199, Note_off_c, 0, 71, 0
2, 37200, Note_on_c, 0, 69, 88
2, 37679, Note_off_c, 0, 69, 0
2, 37680, Note_on_c, 0, 68, 88
2, 38159, Note_off_c, 0, 68, 0
2, 38160, Note_on_c, 0, 66, 88
2, 38399, Note_off_c, 0, 66, 0
2, 38400, Note_on_c, 0, 68, 88
2, 38519, Note_off_c, 0, 68, 0
2, 38520, Note_on_c, 0, 72, 88
2, 38639, Note_off_c, 0, 72, 0
2, 38640, Note_on_c, 0, 73, 88
2, 38759, Note_off_c, 0, 73, 0
2, 38760, Note_on_c, 0, 76, 88
2, 38999, Note_off_c, 0, 76, 0
2, 39000, Note_on_c, 0, 76, 88
2, 39119, Note_off_c, 0, 76, 0
2, 39120, Note_on_c, 0, 75, 88
2, 39239, Note_off_c, 0, 75, 0
2, 39240, Note_on_c, 0, 78, 88
2, 39479, Note_off_c, 0, 78, 0
2, 39480, Note_on_c, 0, 72, 88
2, 39599, Note_off_c, 0, 72, 0
2, 39600, Note_on_c, 0, 73, 88
2, 39959, Note_off_c, 0, 73, 0
2, 39960, Note_on_c, 0, 67, 88
2, 40079, Note_off_c, 0, 67, 0
2, 40080, Note_on_c, 0, 68, 88
2, 40439, Note_off_c, 0, 68, 0
2, 40440, Note_on_c, 0, 70, 88
2, 40559, Note_off_c, 0, 70, 0
2, 40560, Note_on_c, 0, 63, 88
2, 40679, Note_off_c, 0, 63, 0
2, 40680, Note_on_c, 0, 67, 88
2, 40799, Note_off_c, 0, 67, 0
2, 40800, Note_on_c, 0, 68, 88
2, 41099, Note_off_c, 0, 68, 0
2, 41100, Note_on_c, 0, 69, 88
2, 41159, Note_off_c, 0, 69, 0
2, 41160, Note_on_c, 0, 71, 88
2, 41219, Note_off_c, 0, 71, 0
2, 41220, Note_on_c, 0, 68, 88
2, 41279, Note_off_c, 0, 68, 0
2, 41280, Note_on_c, 0, 69, 88
2, 41339, Note_off_c, 0, 69, 0
2, 41340, Note_on_c, 0, 71, 88
2, 41399, Note_off_c, 0, 71, 0
2, 41400, Note_on_c, 0, 69, 88
2, 41459, Note_off_c, 0, 69, 0
2, 41460, Note_on_c, 0, 68, 88
2, 41519, Note_off_c, 0, 68, 0
2, 41520, Note_on_c, 0, 69, 88
2, 41579, Note_off_c, 0, 69, 0
2, 41580, Note_on_c, 0, 68, 88
2, 41639, Note_off_c, 0, 68, 0
2, 41640, Note_on_c, 0, 66, 88
2, 41699, Note_off_c, 0, 66, 0
2, 41700, Note_on_c, 0, 69, 88
2, 41759, Note_off_c, 0, 69, 0
2, 41760, Note_on_c, 0, 68, 88
2, 41819, Note_off_c, 0, 68, 0
2, 41820, Note_on_c, 0, 69, 88
2, 41879, Note_off_c, 0, 69, 0
2, 41880, Note_on_c, 0, 71, 88
2, 41939, Note_off_c, 0, 71, 0
2, 41940, Note_on_c, 0, 68, 88
2, 41999, Note_off_c, 0, 68, 0
2, 42000, Note_on_c, 0, 73, 88
2, 42359, Note_off_c, 0, 73, 0
2, 42360, Note_on_c, 0, 73, 88
2, 42479, Note_off_c, 0, 73, 0
2, 42480, Note_on_c, 0, 71, 88
2, 42779, Note_off_c, 0, 71, 0
2, 42780, Note_on_c, 0, 71, 88
2, 42839, Note_off_c, 0, 71, 0
2, 42840, Note_on_c, 0, 69, 88
2, 42899, Note_off_c, 0, 69, 0
2, 42900, Note_on_c, 0, 68, 88
2, 42959, Note_off_c, 0, 68, 0
2, 42960, Note_on_c, 0, 69, 88
2, 43019, Note_off_c, 0, 69, 0
2, 43020, Note_on_c, 0, 71, 88
2, 43079, Note_off_c, 0, 71, 0
2, 43080, Note_on_c, 0, 73, 88
2, 43139, Note_off_c, 0, 73, 0
2, 43140, Note_on_c, 0, 69, 88
2, 43199, Note_off_c, 0, 69, 0
2, 43200, Note_on_c, 0, 74, 88
2, 43259, Note_off_c, 0, 74, 0
2, 43260, Note_on_c, 0, 76, 88
2, 43319, Note_off_c, 0, 76, 0
2, 43320, Note_on_c, 0, 74, 88
2, 43379, Note_off_c, 0, 74, 0
2, 43380, Note_on_c, 0, 73, 88
2, 43439, Note_off_c, 0, 73, 0
2, 43440, Note_on_c, 0, 74, 88
2, 43499, Note_off_c, 0, 74, 0
2, 43500, Note_on_c, 0, 73, 88
2, 43559, Note_off_c, 0, 73, 0
2, 43560, Note_on_c, 0, 71, 88
2, 43619, Note_off_c, 0, 71, 0
2, 43620, Note_on_c, 0, 74, 88
2, 43679, Note_off_c, 0, 74, 0
2, 43680, Note_on_c, 0, 73, 88
2, 43739, Note_off_c, 0, 73, 0
2, 43740, Note_on_c, 0, 74, 88
2, 43799, Note_off_c, 0, 74, 0
2, 43800, Note_on_c, 0, 73, 88
2, 43859, Note_off_c, 0, 73, 0
2, 43860, Note_on_c, 0, 71, 88
2, 43919, Note_off_c, 0, 71, 0
2, 43920, Note_on_c, 0, 73, 88
2, 43979, Note_off_c, 0, 73, 0
2, 43980, Note_on_c, 0, 71, 88
2, 44039, Note_off_c, 0, 71, 0
2, 44040, Note_on_c, 0, 69, 88
2, 44099, Note_off_c, 0, 69, 0
2, 44100, Note_on_c, 0, 73, 88
2, 44159, Note_off_c, 0, 73, 0
2, 44160, Note_on_c, 0, 71, 88
2, 44699, Note_off_c, 0, 71, 0
2, 44700, Note_on_c, 0, 68, 88
2, 44759, Note_off_c, 0, 68, 0
2, 44760, Note_on_c, 0, 70, 88
2, 44819, Note_off_c, 0, 70, 0
2, 44820, Note_on_c, 0, 71, 88
2, 44879, Note_off_c, 0, 71, 0
2, 44880, Note_on_c, 0, 70, 88
2, 44939, Note_off_c, 0, 70, 0
2, 44940, Note_on_c, 0, 71, 88
2, 44999, Note_off_c, 0, 71, 0
2, 45000, Note_on_c, 0, 73, 88
2, 45059, Note_off_c, 0, 73, 0
2, 45060, Note_on_c, 0, 70, 88
2, 45119, Note_off_c, 0, 70, 0
2, 45120, Note_on_c, 0, 71, 88
2, 45179, Note_off_c, 0, 71, 0
2, 45180, Note_on_c, 0, 70, 88
2, 45239, Note_off_c, 0, 70, 0
2, 45240, Note_on_c, 0, 71, 88
2, 45299, Note_off_c, 0, 71, 0
2, 45300, Note_on_c, 0, 73, 88
2, 45359, Note_off_c, 0, 73, 0
2, 45360, Note_on_c, 0, 71, 88
2, 45419, Note_off_c, 0, 71, 0
2, 45420, Note_on_c, 0, 73, 88
2, 45479, Note_off_c, 0, 73, 0
2, 45480, Note_on_c, 0, 74, 88
2, 45539, Note_off_c, 0, 74, 0
2, 45540, Note_on_c, 0, 71, 88
2, 45599, Note_off_c, 0, 71, 0
2, 45600, Note_on_c, 0, 73, 88
2, 45659, Note_off_c, 0, 73, 0
2, 45660, Note_on_c, 0, 71, 88
2, 45719, Note_off_c, 0, 71, 0
2, 45720, Note_on_c, 0, 73, 88
2, 45779, Note_off_c, 0, 73, 0
2, 45780, Note_on_c, 0, 74, 88
2, 45839, Note_off_c, 0, 74, 0
2, 45840, Note_on_c, 0, 73, 88
2, 45899, Note_off_c, 0, 73, 0
2, 45900, Note_on_c, 0, 74, 88
2, 45959, Note_off_c, 0, 74, 0
2, 45960, Note_on_c, 0, 76, 88
2, 46019, Note_off_c, 0, 76, 0
2, 46020, Note_on_c, 0, 73, 88
2, 46079, Note_off_c, 0, 73, 0
2, 46080, Note_on_c, 0, 74, 88
2, 46139, Note_off_c, 0, 74, 0
2, 46140, Note_on_c, 0, 76, 88
2, 46199, Note_off_c, 0, 76, 0
2, 46200, Note_on_c, 0, 74, 88
2, 46259, Note_off_c, 0, 74, 0
2, 46260, Note_on_c, 0, 73, 88
2, 46319, Note_off_c, 0, 73, 0
2, 46320, Note_on_c, 0, 74, 88
2, 46379, Note_off_c, 0, 74, 0
2, 46380, Note_on_c, 0, 73, 88
2, 46439, Note_off_c, 0, 73, 0
2, 46440, Note_on_c, 0, 71, 88
2, 46499, Note_off_c, 0, 71, 0
2, 46500, Note_on_c, 0, 74, 88
2, 46559, Note_off_c, 0, 74, 0
2, 46560, Note_on_c, 0, 67, 88
2, 47099, Note_off_c, 0, 67, 0
2, 47100, Note_on_c, 0, 67, 88
2, 47159, Note_off_c, 0, 67, 0
2, 47160, Note_on_c, 0, 66, 88
2, 47219, Note_off_c, 0, 66, 0
2, 47220, Note_on_c, 0, 64, 88
2, 47279, Note_off_c, 0, 64, 0
2, 47280, Note_on_c, 0, 66, 88
2, 47339, Note_off_c, 0, 66, 0
2, 47340, Note_on_c, 0, 64, 88
2, 47399, Note_off_c, 0, 64, 0
2, 47400, Note_on_c, 0, 62, 88
2, 47459, Note_off_c, 0, 62, 0
2, 47460, Note_on_c, 0, 66, 88
2, 47519, Note_off_c, 0, 66, 0
2, 47520, Note_on_c, 0, 59, 88
2, 47759, Note_off_c, 0, 59, 0
2, 47760, Note_on_c, 0, 62, 88
2, 47782, Note_off_c, 0, 62, 0
2, 47783, Note_on_c, 0, 61, 88
2, 47808, Note_off_c, 0, 61, 0
2, 47809, Note_on_c, 0, 62, 88
2, 47834, Note_off_c, 0, 62, 0
2, 47835, Note_on_c, 0, 61, 88
2, 47860, Note_off_c, 0, 61, 0
2, 47861, Note_on_c, 0, 62, 88
2, 47887, Note_off_c, 0, 62, 0
2, 47888, Note_on_c, 0, 61, 88
2, 47909, Note_off_c, 0, 61, 0
2, 47910, Note_on_c, 0, 62, 88
2, 47932, Note_off_c, 0, 62, 0
2, 47933, Note_on_c, 0, 61, 88
2, 47954, Note_off_c, 0, 61, 0
2, 47955, Note_on_c, 0, 59, 88
2, 47977, Note_off_c, 0, 59, 0
2, 47978, Note_on_c, 0, 61, 88
2, 47999, Note_off_c, 0, 61, 0
2, 48000, Note_on_c, 0, 62, 88
2, 48119, Note_off_c, 0, 62, 0
2, 48120, Note_on_c, 0, 66, 88
2, 48239, Note_off_c, 0, 66, 0
2, 48240, Note_on_c, 0, 71, 88
2, 48599, Note_off_c, 0, 71, 0
2, 48600, Note_on_c, 0, 70, 88
2, 48659, Note_off_c, 0, 70, 0
2, 48660, Note_on_c, 0, 68, 88
2, 48719, Note_off_c, 0, 68, 0
2, 48720, Note_on_c, 0, 70, 88
2, 48959, Note_off_c, 0, 70, 0
2, 48960, Note_on_c, 0, 71, 88
2, 49319, Note_off_c, 0, 71, 0
2, 49320, Note_on_c, 0, 76, 88
2, 49439, Note_off_c, 0, 76, 0
2, 49440, Note_on_c, 0, 69, 88
2, 49799, Note_off_c, 0, 69, 0
2, 49800, Note_on_c, 0, 74, 88
2, 49919, Note_off_c, 0, 74, 0
2, 49920, Note_on_c, 0, 67, 88
2, 50279, Note_off_c, 0, 67, 0
2, 50280, Note_on_c, 0, 72, 88
2, 50399, Note_off_c, 0, 72, 0
2, 50400, Note_on_c, 0, 70, 88
2, 50519, Note_off_c, 0, 70, 0
2, 50520, Note_on_c, 0, 66, 88
2, 50699, Note_off_c, 0, 66, 0
2, 50700, Note_on_c, 0, 71, 88
2, 50759, Note_off_c, 0, 71, 0
2, 50760, Note_on_c, 0, 73, 88
2, 50819, Note_off_c, 0, 73, 0
2, 50820, Note_on_c, 0, 74, 88
2, 50879, Note_off_c, 0, 74, 0
2, 50880, Note_on_c, 0, 65, 88
2, 50999, Note_off_c, 0, 65, 0
2, 51000, Note_on_c, 0, 73, 88
2, 51119, Note_off_c, 0, 73, 0
2, 51120, Note_on_c, 0, 66, 88
2, 51479, Note_off_c, 0, 66, 0
2, 51480, Note_on_c, 0, 65, 88
2, 51539, Note_off_c, 0, 65, 0
2, 51540, Note_on_c, 0, 66, 88
2, 51599, Note_off_c, 0, 66, 0
2, 51600, Note_on_c, 0, 68, 88
2, 51659, Note_off_c, 0, 68, 0
2, 51660, Note_on_c, 0, 69, 88
2, 51719, Note_off_c, 0, 69, 0
2, 51720, Note_on_c, 0, 71, 88
2, 51779, Note_off_c, 0, 71, 0
2, 51780, Note_on_c, 0, 68, 88
2, 51839, Note_off_c, 0, 68, 0
2, 51840, Note_on_c, 0, 71, 88
2, 51899, Note_off_c, 0, 71, 0
2, 51900, Note_on_c, 0, 69, 88
2, 51959, Note_off_c, 0, 69, 0
2, 51960, Note_on_c, 0, 68, 88
2, 52019, Note_off_c, 0, 68, 0
2, 52020, Note_on_c, 0, 66, 88
2, 52079, Note_off_c, 0, 66, 0
2, 52080, Note_on_c, 0, 74, 88
2, 52439, Note_off_c, 0, 74, 0
2, 52440, Note_on_c, 0, 73, 88
2, 52499, Note_off_c, 0, 73, 0
2, 52500, Note_on_c, 0, 71, 88
2, 52559, Note_off_c, 0, 71, 0
2, 52560, Note_on_c, 0, 73, 88
2, 52919, Note_off_c, 0, 73, 0
2, 52920, Note_on_c, 0, 78, 88
2, 53039, Note_off_c, 0, 78, 0
2, 53040, Note_on_c, 0, 71, 88
2, 53399, Note_off_c, 0, 71, 0
2, 53400, Note_on_c, 0, 69, 88
2, 53459, Note_off_c, 0, 69, 0
2, 53460, Note_on_c, 0, 68, 88
2, 53519, Note_off_c, 0, 68, 0
2, 53520, Note_on_c, 0, 69, 88
2, 53639, Note_off_c, 0, 69, 0
2, 53640, Note_on_c, 0, 66, 88
2, 53759, Note_off_c, 0, 66, 0
2, 53760, Note_on_c, 0, 68, 88
2, 54239, Note_off_c, 0, 68, 0
2, 54240, Note_on_c, 0, 66, 88
2, 54359, Note_off_c, 0, 66, 0
2, 54360, Note_on_c, 0, 73, 88
2, 54479, Note_off_c, 0, 73, 0
2, 54480, Note_on_c, 0, 78, 88
2, 54599, Note_off_c, 0, 78, 0
2, 54600, Note_on_c, 0, 81, 88
2, 54719, Note_off_c, 0, 81, 0
2, 54720, Note_on_c, 0, 80, 88
2, 55319, Note_off_c, 0, 80, 0
2, 55320, Note_on_c, 0, 81, 88
2, 55439, Note_off_c, 0, 81, 0
2, 55440, Note_on_c, 0, 80, 88
2, 55559, Note_off_c, 0, 80, 0
2, 55560, Note_on_c, 0, 78, 88
2, 55679, Note_off_c, 0, 78, 0
2, 55680, Note_on_c, 0, 76, 88
2, 56279, Note_off_c, 0, 76, 0
2, 56280, Note_on_c, 0, 76, 88
2, 56399, Note_off_c, 0, 76, 0
2, 56400, Note_on_c, 0, 75, 88
2, 56519, Note_off_c, 0, 75, 0
2, 56520, Note_on_c, 0, 78, 88
2, 56639, Note_off_c, 0, 78, 0
2, 56640, Note_on_c, 0, 72, 88
2, 56999, Note_off_c, 0, 72, 0
2, 57000, Note_on_c, 0, 75, 88
2, 57119, Note_off_c, 0, 75, 0
2, 57120, Note_on_c, 0, 68, 88
2, 57479, Note_off_c, 0, 68, 0
2, 57480, Note_on_c, 0, 73, 88
2, 57599, Note_off_c, 0, 73, 0
2, 57600, Note_on_c, 0, 71, 88
2, 57659, Note_off_c, 0, 71, 0
2, 57660, Note_on_c, 0, 73, 88
2, 57719, Note_off_c, 0, 73, 0
2, 57720, Note_on_c, 0, 71, 88
2, 57779, Note_off_c, 0, 71, 0
2, 57780, Note_on_c, 0, 69, 88
2, 57839, Note_off_c, 0, 69, 0
2, 57840, Note_on_c, 0, 71, 88
2, 57899, Note_off_c, 0, 71, 0
2, 57900, Note_on_c, 0, 69, 88
2, 57959, Note_off_c, 0, 69, 0
2, 57960, Note_on_c, 0, 68, 88
2, 58019, Note_off_c, 0, 68, 0
2, 58020, Note_on_c, 0, 71, 88
2, 58079, Note_off_c, 0, 71, 0
2, 58080, Note_on_c, 0, 69, 88
2, 58139, Note_off_c, 0, 69, 0
2, 58140, Note_on_c, 0, 71, 88
2, 58199, Note_off_c, 0, 71, 0
2, 58200, Note_on_c, 0, 69, 88
2, 58259, Note_off_c, 0, 69, 0
2, 58260, Note_on_c, 0, 68, 88
2, 58319, Note_off_c, 0, 68, 0
2, 58320, Note_on_c, 0, 69, 88
2, 58379, Note_off_c, 0, 69, 0
2, 58380, Note_on_c, 0, 68, 88
2, 58439, Note_off_c, 0, 68, 0
2, 58440, Note_on_c, 0, 66, 88
2, 58499, Note_off_c, 0, 66, 0
2, 58500, Note_on_c, 0, 69, 88
2, 58559, Note_off_c, 0, 69, 0
2, 58560, Note_on_c, 0, 68, 88
2, 58619, Note_off_c, 0, 68, 0
2, 58620, Note_on_c, 0, 69, 88
2, 58679, Note_off_c, 0, 69, 0
2, 58680, Note_on_c, 0, 68, 88
2, 58739, Note_off_c, 0, 68, 0
2, 58740, Note_on_c, 0, 66, 88
2, 58799, Note_off_c, 0, 66, 0
2, 58800, Note_on_c, 0, 68, 88
2, 58859, Note_off_c, 0, 68, 0
2, 58860, Note_on_c, 0, 66, 88
2, 58919, Note_off_c, 0, 66, 0
2, 58920, Note_on_c, 0, 64, 88
2, 58979, Note_off_c, 0, 64, 0
2, 58980, Note_on_c, 0, 68, 88
2, 59039, Note_off_c, 0, 68, 0
2, 59040, Note_on_c, 0, 66, 88
2, 59099, Note_off_c, 0, 66, 0
2, 59100, Note_on_c, 0, 68, 88
2, 59159, Note_off_c, 0, 68, 0
2, 59160, Note_on_c, 0, 66, 88
2, 59219, Note_off_c, 0, 66, 0
2, 59220, Note_on_c, 0, 64, 88
2, 59279, Note_off_c, 0, 64, 0
2, 59280, Note_on_c, 0, 66, 88
2, 59339, Note_off_c, 0, 66, 0
2, 59340, Note_on_c, 0, 64, 88
2, 59399, Note_off_c, 0, 64, 0
2, 59400, Note_on_c, 0, 63, 88
2, 59459, Note_off_c, 0, 63, 0
2, 59460, Note_on_c, 0, 66, 88
2, 59519, Note_off_c, 0, 66, 0
2, 59520, Note_on_c, 0, 64, 88
2, 60119, Note_off_c, 0, 64, 0
2, 60120, Note_on_c, 0, 67, 88
2, 60239, Note_off_c, 0, 67, 0
2, 60240, Note_on_c, 0, 66, 88
2, 60359, Note_off_c, 0, 66, 0
2, 60360, Note_on_c, 0, 64, 88
2, 60479, Note_off_c, 0, 64, 0
2, 60480, Note_on_c, 0, 62, 88
2, 61079, Note_off_c, 0, 62, 0
2, 61080, Note_on_c, 0, 66, 88
2, 61199, Note_off_c, 0, 66, 0
2, 61200, Note_on_c, 0, 64, 88
2, 61319, Note_off_c, 0, 64, 0
2, 61320, Note_on_c, 0, 62, 88
2, 61439, Note_off_c, 0, 62, 0
2, 61440, Note_on_c, 0, 61, 88
2, 61799, Note_off_c, 0, 61, 0
2, 61800, Note_on_c, 0, 61, 88
2, 61919, Note_off_c, 0, 61, 0
2, 61920, Note_on_c, 0, 66, 88
2, 62279, Note_off_c, 0, 66, 0
2, 62280, Note_on_c, 0, 65, 88
2, 62339, Note_off_c, 0, 65, 0
2, 62340, Note_on_c, 0, 66, 88
2, 62399, Note_off_c, 0, 66, 0
2, 62400, Note_on_c, 0, 68, 88
2, 62519, Note_off_c, 0, 68, 0
2, 62520, Note_on_c, 0, 66, 88
2, 62579, Note_off_c, 0, 66, 0
2, 62580, Note_on_c, 0, 68, 88
2, 62639, Note_off_c, 0, 68, 0
2, 62640, Note_on_c, 0, 69, 88
2, 63239, Note_off_c, 0, 69, 0
2, 63240, Note_on_c, 0, 73, 88
2, 63359, Note_off_c, 0, 73, 0
2, 63360, Note_on_c, 0, 69, 88
2, 63479, Note_off_c, 0, 69, 0
2, 63480, Note_on_c, 0, 66, 88
2, 63599, Note_off_c, 0, 66, 0
2, 63600, Note_on_c, 0, 74, 88
2, 63959, Note_off_c, 0, 74, 0
2, 63960, Note_on_c, 0, 73, 88
2, 64019, Note_off_c, 0, 73, 0
2, 64020, Note_on_c, 0, 71, 88
2, 64079, Note_off_c, 0, 71, 0
2, 64080, Note_on_c, 0, 73, 88
2, 64439, Note_off_c, 0, 73, 0
2, 64440, Note_on_c, 0, 78, 88
2, 64559, Note_off_c, 0, 78, 0
2, 64560, Note_on_c, 0, 71, 88
2, 64919, Note_off_c, 0, 71, 0
2, 64920, Note_on_c, 0, 69, 88
2, 64979, Note_off_c, 0, 69, 0
2, 64980, Note_on_c, 0, 68, 88
2, 65039, Note_off_c, 0, 68, 0
2, 65040, Note_on_c, 0, 69, 88
2, 65159, Note_off_c, 0, 69, 0
2, 65160, Note_on_c, 0, 66, 88
2, 65279, Note_off_c, 0, 66, 0
2, 65280, Note_on_c, 0, 68, 88
2, 65819, Note_off_c, 0, 68, 0
2, 65820, Note_on_c, 0, 66, 88
2, 65939, Note_off_c, 0, 66, 0
2, 65940, Note_on_c, 0, 65, 88
2, 66059, Note_off_c, 0, 65, 0
2, 66060, Note_on_c, 0, 66, 88
2, 66179, Note_off_c, 0, 66, 0
2, 66180, Note_on_c, 0, 68, 88
2, 66239, Note_off_c, 0, 68, 0
2, 66240, Note_on_c, 0, 61, 88
2, 66359, Note_off_c, 0, 61, 0
2, 66360, Note_on_c, 0, 66, 88
2, 66599, Note_off_c, 0, 66, 0
2, 66600, Note_on_c, 0, 66, 88
2, 66610, Note_off_c, 0, 66, 0
2, 66611, Note_on_c, 0, 65, 88
2, 66625, Note_off_c, 0, 65, 0
2, 66626, Note_on_c, 0, 66, 88
2, 66637, Note_off_c, 0, 66, 0
2, 66638, Note_on_c, 0, 65, 88
2, 66648, Note_off_c, 0, 65, 0
2, 66649, Note_on_c, 0, 66, 88
2, 66659, Note_off_c, 0, 66, 0
2, 66660, Note_on_c, 0, 65, 88
2, 66719, Note_off_c, 0, 65, 0
2, 66720, Note_on_c, 0, 66, 88
2, 66760, Note_off_c, 0, 66, 0
2, 66760, End_track
0, 0, End_of_file