0, 0, Header, 1, 2, 240
1, 0, Start_track
1, 0, Time_signature, 4, 2, 24, 8
1, 0, Tempo, 833333
1, 0, SMPTE_offset, 64, 0, 0, 0, 100
1, 0, End_track
2, 0, Start_track
2, 0, Title_t, "Track 1"
2, 0, Program_c, 0, 6
2, 6000, Note_on_c, 0, 74, 88
2, 6359, Note_off_c, 0, 74, 0
2, 6360, Note_on_c, 0, 70, 88
2, 6479, Note_off_c, 0, 70, 0
2, 6480, Note_on_c, 0, 75, 88
2, 6719, Note_off_c, 0, 75, 0
2, 6720, Note_on_c, 0, 72, 88
2, 7079, Note_off_c, 0, 72, 0
2, 7080, Note_on_c, 0, 69, 88
2, 7199, Note_off_c, 0, 69, 0
2, 7200, Note_on_c, 0, 74, 88
2, 7439, Note_off_c, 0, 74, 0
2, 7440, Note_on_c, 0, 70, 88
2, 7799, Note_off_c, 0, 70, 0
2, 7800, Note_on_c, 0, 67, 88
2, 7919, Note_off_c, 0, 67, 0
2, 7920, Note_on_c, 0, 72, 88
2, 8039, Note_off_c, 0, 72, 0
2, 8040, Note_on_c, 0, 72, 88
2, 8159, Note_off_c, 0, 72, 0
2, 8160, Note_on_c, 0, 72, 88
2, 8279, Note_off_c, 0, 72, 0
2, 8280, Note_on_c, 0, 72, 88
2, 8399, Note_off_c, 0, 72, 0
2, 8400, Note_on_c, 0, 72, 88
2, 8519, Note_off_c, 0, 72, 0
2, 8520, Note_on_c, 0, 72, 88
2, 8639, Note_off_c, 0, 72, 0
2, 8640, Note_on_c, 0, 72, 88
2, 8759, Note_off_c, 0, 72, 0
2, 8760, Note_on_c, 0, 70, 88
2, 8819, Note_off_c, 0, 70, 0
2, 8820, Note_on_c, 0, 69, 88
2, 8879, Note_off_c, 0, 69, 0
2, 8880, Note_on_c, 0, 70, 88
2, 8939, Note_off_c, 0, 70, 0
2, 8940, Note_on_c, 0, 67, 88
2, 8999, Note_off_c, 0, 67, 0
2, 9000, Note_on_c, 0, 70, 88
2, 9059, Note_off_c, 0, 70, 0
2, 9060, Note_on_c, 0, 72, 88
2, 9119, Note_off_c, 0, 72, 0
2, 9120, Note_on_c, 0, 74, 88
2, 9179, Note_off_c, 0, 74, 0
2, 9180, Note_on_c, 0, 73, 88
2, 9239, Note_off_c, 0, 73, 0
2, 9240, Note_on_c, 0, 74, 88
2, 9359, Note_off_c, 0, 74, 0
2, 9360, Note_on_c, 0, 74, 88
2, 9479, Note_off_c, 0, 74, 0
2, 9480, Note_on_c, 0, 67, 88
2, 9659, Note_off_c, 0, 67, 0
2, 9660, Note_on_c, 0, 67, 88
2, 9719, Note_off_c, 0, 67, 0
2, 9720, Note_on_c, 0, 69, 88
2, 9779, Note_off_c, 0, 69, 0
2, 9780, Note_on_c, 0, 70, 88
2, 9839, Note_off_c, 0, 70, 0
2, 9840, Note_on_c, 0, 72, 88
2, 9899, Note_off_c, 0, 72, 0
2, 9900, Note_on_c, 0, 70, 88
2, 9959, Note_off_c, 0, 70, 0
2, 9960, Note_on_c, 0, 72, 88
2, 10079, Note_off_c, 0, 72, 0
2, 10080, Note_on_c, 0, 72, 88
2, 10199, Note_off_c, 0, 72, 0
2, 10200, Note_on_c, 0, 65, 88
2, 10379, Note_off_c, 0, 65, 0
2, 10380, Note_on_c, 0, 65, 88
2, 10439, Note_off_c, 0, 65, 0
2, 10440, Note_on_c, 0, 67, 88
2, 10499, Note_off_c, 0, 67, 0
2, 10500, Note_on_c, 0, 69, 88
2, 10559, Note_off_c, 0, 69, 0
2, 10560, Note_on_c, 0, 70, 88
2, 10619, Note_off_c, 0, 70, 0
2, 10620, Note_on_c, 0, 69, 88
2, 10679, Note_off_c, 0, 69, 0
2, 10680, Note_on_c, 0, 70, 88
2, 10859, Note_off_c, 0, 70, 0
2, 10860, Note_on_c, 0, 69, 88
2, 10919, Note_off_c, 0, 69, 0
2, 10920, Note_on_c, 0, 70, 88
2, 10979, Note_off_c, 0, 70, 0
2, 10980, Note_on_c, 0, 69, 88
2, 11039, Note_off_c, 0, 69, 0
2, 11040, Note_on_c, 0, 67, 88
2, 11099, Note_off_c, 0, 67, 0
2, 11100, Note_on_c, 0, 65, 88
2, 11159, Note_off_c, 0, 65, 0
2, 11160, Note_on_c, 0, 67, 88
2, 11219, Note_off_c, 0, 67, 0
2, 11220, Note_on_c, 0, 65, 88
2, 11279, Note_off_c, 0, 65, 0
2, 11280, Note_on_c, 0, 64, 88
2, 11339, Note_off_c, 0, 64, 0
2, 11340, Note_on_c, 0, 62, 88
2, 11399, Note_off_c, 0, 62, 0
2, 11400, Note_on_c, 0, 64, 88
2, 11459, Note_off_c, 0, 64, 0
2, 11460, Note_on_c, 0, 62, 88
2, 11519, Note_off_c, 0, 62, 0
2, 11520, Note_on_c, 0, 61, 88
2, 11639, Note_off_c, 0, 61, 0
2, 11640, Note_on_c, 0, 69, 88
2, 11759, Note_off_c, 0, 69, 0
2, 11760, Note_on_c, 0, 62, 88
2, 11879, Note_off_c, 0, 62, 0
2, 11880, Note_on_c, 0, 72, 88
2, 11999, Note_off_c, 0, 72, 0
2, 12000, Note_on_c, 0, 71, 88
2, 12059, Note_off_c, 0, 71, 0
2, 12060, Note_on_c, 0, 74, 88
2, 12119, Note_off_c, 0, 74, 0
2, 12120, Note_on_c, 0, 77, 88
2, 12239, Note_off_c, 0, 77, 0
2, 12240, Note_on_c, 0, 75, 88
2, 12899, Note_off_c, 0, 75, 0
2, 12900, Note_on_c, 0, 81, 88
2, 12959, Note_off_c, 0, 81, 0
2, 12960, Note_on_c, 0, 82, 88
2, 13139, Note_off_c, 0, 82, 0
2, 13140, Note_on_c, 0, 81, 88
2, 13199, Note_off_c, 0, 81, 0
2, 13200, Note_on_c, 0, 79, 88
2, 13259, Note_off_c, 0, 79, 0
2, 13260, Note_on_c, 0, 78, 88
2, 13319, Note_off_c, 0, 78, 0
2, 13320, Note_on_c, 0, 79, 88
2, 13379, Note_off_c, 0, 79, 0
2, 13380, Note_on_c, 0, 78, 88
2, 13439, Note_off_c, 0, 78, 0
2, 13440, Note_on_c, 0, 79, 88
2, 13919, Note_off_c, 0, 79, 0
2, 13920, Note_on_c, 0, 78, 88
2, 14099, Note_off_c, 0, 78, 0
2, 14100, Note_on_c, 0, 81, 88
2, 14159, Note_off_c, 0, 81, 0
2, 14160, Note_on_c, 0, 74, 88
2, 14339, Note_off_c, 0, 74, 0
2, 14340, Note_on_c, 0, 72, 88
2, 14399, Note_off_c, 0, 72, 0
2, 14400, Note_on_c, 0, 70, 88
2, 14879, Note_off_c, 0, 70, 0
2, 14880, Note_on_c, 0, 69, 88
2, 15179, Note_off_c, 0, 69, 0
2, 15180, Note_on_c, 0, 69, 88
2, 15239, Note_off_c, 0, 69, 0
2, 15240, Note_on_c, 0, 70, 88
2, 15299, Note_off_c, 0, 70, 0
2, 15300, Note_on_c, 0, 69, 88
2, 15359, Note_off_c, 0, 69, 0
2, 15360, Note_on_c, 0, 67, 88
2, 15539, Note_off_c, 0, 67, 0
2, 15540, Note_on_c, 0, 66, 88
2, 15599, Note_off_c, 0, 66, 0
2, 15600, Note_on_c, 0, 67, 88
2, 16019, Note_off_c, 0, 67, 0
2, 16020, Note_on_c, 0, 70, 88
2, 16079, Note_off_c, 0, 70, 0
2, 16080, Note_on_c, 0, 69, 88
2, 16259, Note_off_c, 0, 69, 0
2, 16260, Note_on_c, 0, 72, 88
2, 16319, Note_off_c, 0, 72, 0
2, 16320, Note_on_c, 0, 66, 88
2, 16499, Note_off_c, 0, 66, 0
2, 16500, Note_on_c, 0, 69, 88
2, 16559, Note_off_c, 0, 69, 0
2, 16560, Note_on_c, 0, 62, 88
2, 16739, Note_off_c, 0, 62, 0
2, 16740, Note_on_c, 0, 66, 88
2, 16799, Note_off_c, 0, 66, 0
2, 16800, Note_on_c, 0, 67, 88
2, 17219, Note_off_c, 0, 67, 0
2, 17220, Note_on_c, 0, 70, 88
2, 17339, Note_off_c, 0, 70, 0
2, 17340, Note_on_c, 0, 70, 88
2, 17399, Note_off_c, 0, 70, 0
2, 17400, Note_on_c, 0, 69, 88
2, 17459, Note_off_c, 0, 69, 0
2, 17460, Note_on_c, 0, 67, 88
2, 17519, Note_off_c, 0, 67, 0
2, 17520, Note_on_c, 0, 69, 88
2, 17579, Note_off_c, 0, 69, 0
2, 17580, Note_on_c, 0, 69, 88
2, 17639, Note_off_c, 0, 69, 0
2, 17640, Note_on_c, 0, 71, 88
2, 17699, Note_off_c, 0, 71, 0
2, 17700, Note_on_c, 0, 72, 88
2, 17759, Note_off_c, 0, 72, 0
2, 17760, Note_on_c, 0, 74, 88
2, 17819, Note_off_c, 0, 74, 0
2, 17820, Note_on_c, 0, 72, 88
2, 17879, Note_off_c, 0, 72, 0
2, 17880, Note_on_c, 0, 74, 88
2, 17999, Note_off_c, 0, 74, 0
2, 18000, Note_on_c, 0, 74, 88
2, 18119, Note_off_c, 0, 74, 0
2, 18120, Note_on_c, 0, 72, 88
2, 18179, Note_off_c, 0, 72, 0
2, 18180, Note_on_c, 0, 71, 88
2, 18239, Note_off_c, 0, 71, 0
2, 18240, Note_on_c, 0, 72, 88
2, 18659, Note_off_c, 0, 72, 0
2, 18660, Note_on_c, 0, 72, 88
2, 18779, Note_off_c, 0, 72, 0
2, 18780, Note_on_c, 0, 72, 88
2, 18839, Note_off_c, 0, 72, 0
2, 18840, Note_on_c, 0, 70, 88
2, 18899, Note_off_c, 0, 70, 0
2, 18900, Note_on_c, 0, 69, 88
2, 18959, Note_off_c, 0, 69, 0
2, 18960, Note_on_c, 0, 70, 88
2, 19019, Note_off_c, 0, 70, 0
2, 19020, Note_on_c, 0, 74, 88
2, 19079, Note_off_c, 0, 74, 0
2, 19080, Note_on_c, 0, 76, 88
2, 19139, Note_off_c, 0, 76, 0
2, 19140, Note_on_c, 0, 77, 88
2, 19199, Note_off_c, 0, 77, 0
2, 19200, Note_on_c, 0, 79, 88
2, 19259, Note_off_c, 0, 79, 0
2, 19260, Note_on_c, 0, 77, 88
2, 19319, Note_off_c, 0, 77, 0
2, 19320, Note_on_c, 0, 79, 88
2, 19559, Note_off_c, 0, 79, 0
2, 19560, Note_on_c, 0, 77, 88
2, 19619, Note_off_c, 0, 77, 0
2, 19620, Note_on_c, 0, 76, 88
2, 19679, Note_off_c, 0, 76, 0
2, 19680, Note_on_c, 0, 77, 88
2, 19739, Note_off_c, 0, 77, 0
2, 19740, Note_on_c, 0, 74, 88
2, 19799, Note_off_c, 0, 74, 0
2, 19800, Note_on_c, 0, 77, 88
2, 19859, Note_off_c, 0, 77, 0
2, 19860, Note_on_c, 0, 79, 88
2, 19919, Note_off_c, 0, 79, 0
2, 19920, Note_on_c, 0, 81, 88
2, 19979, Note_off_c, 0, 81, 0
2, 19980, Note_on_c, 0, 79, 88
2, 20039, Note_off_c, 0, 79, 0
2, 20040, Note_on_c, 0, 81, 88
2, 20159, Note_off_c, 0, 81, 0
2, 20160, Note_on_c, 0, 81, 88
2, 20279, Note_off_c, 0, 81, 0
2, 20280, Note_on_c, 0, 74, 88
2, 20459, Note_off_c, 0, 74, 0
2, 20460, Note_on_c, 0, 74, 88
2, 20519, Note_off_c, 0, 74, 0
2, 20520, Note_on_c, 0, 76, 88
2, 20579, Note_off_c, 0, 76, 0
2, 20580, Note_on_c, 0, 77, 88
2, 20639, Note_off_c, 0, 77, 0
2, 20640, Note_on_c, 0, 79, 88
2, 20699, Note_off_c, 0, 79, 0
2, 20700, Note_on_c, 0, 77, 88
2, 20759, Note_off_c, 0, 77, 0
2, 20760, Note_on_c, 0, 79, 88
2, 20879, Note_off_c, 0, 79, 0
2, 20880, Note_on_c, 0, 79, 88
2, 20999, Note_off_c, 0, 79, 0
2, 21000, Note_on_c, 0, 72, 88
2, 21179, Note_off_c, 0, 72, 0
2, 21180, Note_on_c, 0, 72, 88
2, 21239, Note_off_c, 0, 72, 0
2, 21240, Note_on_c, 0, 74, 88
2, 21299, Note_off_c, 0, 74, 0
2, 21300, Note_on_c, 0, 76, 88
2, 21359, Note_off_c, 0, 76, 0
2, 21360, Note_on_c, 0, 77, 88
2, 21419, Note_off_c, 0, 77, 0
2, 21420, Note_on_c, 0, 76, 88
2, 21479, Note_off_c, 0, 76, 0
2, 21480, Note_on_c, 0, 77, 88
2, 21779, Note_off_c, 0, 77, 0
2, 21780, Note_on_c, 0, 77, 88
2, 21839, Note_off_c, 0, 77, 0
2, 21840, Note_on_c, 0, 76, 88
2, 21899, Note_off_c, 0, 76, 0
2, 21900, Note_on_c, 0, 74, 88
2, 21959, Note_off_c, 0, 74, 0
2, 21960, Note_on_c, 0, 76, 88
2, 22019, Note_off_c, 0, 76, 0
2, 22020, Note_on_c, 0, 74, 88
2, 22079, Note_off_c, 0, 74, 0
2, 22080, Note_on_c, 0, 73, 88
2, 22139, Note_off_c, 0, 73, 0
2, 22140, Note_on_c, 0, 74, 88
2, 22199, Note_off_c, 0, 74, 0
2, 22200, Note_on_c, 0, 76, 88
2, 22439, Note_off_c, 0, 76, 0
2, 22440, Note_on_c, 0, 74, 88
2, 22559, Note_off_c, 0, 74, 0
2, 22560, Note_on_c, 0, 77, 88
2, 22919, Note_off_c, 0, 77, 0
2, 22920, Note_on_c, 0, 74, 88
2, 23039, Note_off_c, 0, 74, 0
2, 23040, Note_on_c, 0, 79, 88
2, 23279, Note_off_c, 0, 79, 0
2, 23280, Note_on_c, 0, 75, 88
2, 23639, Note_off_c, 0, 75, 0
2, 23640, Note_on_c, 0, 72, 88
2, 23759, Note_off_c, 0, 72, 0
2, 23760, Note_on_c, 0, 77, 88
2, 23999, Note_off_c, 0, 77, 0
2, 24000, Note_on_c, 0, 74, 88
2, 24359, Note_off_c, 0, 74, 0
2, 24360, Note_on_c, 0, 70, 88
2, 24479, Note_off_c, 0, 70, 0
2, 24480, Note_on_c, 0, 75, 88
2, 24599, Note_off_c, 0, 75, 0
2, 24600, Note_on_c, 0, 75, 88
2, 24719, Note_off_c, 0, 75, 0
2, 24720, Note_on_c, 0, 75, 88
2, 24839, Note_off_c, 0, 75, 0
2, 24840, Note_on_c, 0, 75, 88
2, 24959, Note_off_c, 0, 75, 0
2, 24960, Note_on_c, 0, 75, 88
2, 25079, Note_off_c, 0, 75, 0
2, 25080, Note_on_c, 0, 75, 88
2, 25199, Note_off_c, 0, 75, 0
2, 25200, Note_on_c, 0, 75, 88
2, 25319, Note_off_c, 0, 75, 0
2, 25320, Note_on_c, 0, 74, 88
2, 25379, Note_off_c, 0, 74, 0
2, 25380, Note_on_c, 0, 75, 88
2, 25439, Note_off_c, 0, 75, 0
2, 25440, Note_on_c, 0, 77, 88
2, 25499, Note_off_c, 0, 77, 0
2, 25500, Note_on_c, 0, 70, 88
2, 25559, Note_off_c, 0, 70, 0
2, 25560, Note_on_c, 0, 77, 88
2, 25619, Note_off_c, 0, 77, 0
2, 25620, Note_on_c, 0, 79, 88
2, 25679, Note_off_c, 0, 79, 0
2, 25680, Note_on_c, 0, 81, 88
2, 25739, Note_off_c, 0, 81, 0
2, 25740, Note_on_c, 0, 79, 88
2, 25799, Note_off_c, 0, 79, 0
2, 25800, Note_on_c, 0, 81, 88
2, 25919, Note_off_c, 0, 81, 0
2, 25920, Note_on_c, 0, 81, 88
2, 26039, Note_off_c, 0, 81, 0
2, 26040, Note_on_c, 0, 74, 88
2, 26219, Note_off_c, 0, 74, 0
2, 26220, Note_on_c, 0, 74, 88
2, 26279, Note_off_c, 0, 74, 0
2, 26280, Note_on_c, 0, 76, 88
2, 26339, Note_off_c, 0, 76, 0
2, 26340, Note_on_c, 0, 77, 88
2, 26399, Note_off_c, 0, 77, 0
2, 26400, Note_on_c, 0, 79, 88
2, 26459, Note_off_c, 0, 79, 0
2, 26460, Note_on_c, 0, 77, 88
2, 26519, Note_off_c, 0, 77, 0
2, 26520, Note_on_c, 0, 79, 88
2, 26639, Note_off_c, 0, 79, 0
2, 26640, Note_on_c, 0, 79, 88
2, 26759, Note_off_c, 0, 79, 0
2, 26760, Note_on_c, 0, 72, 88
2, 26939, Note_off_c, 0, 72, 0
2, 26940, Note_on_c, 0, 72, 88
2, 26999, Note_off_c, 0, 72, 0
2, 27000, Note_on_c, 0, 74, 88
2, 27059, Note_off_c, 0, 74, 0
2, 27060, Note_on_c, 0, 76, 88
2, 27119, Note_off_c, 0, 76, 0
2, 27120, Note_on_c, 0, 77, 88
2, 27179, Note_off_c, 0, 77, 0
2, 27180, Note_on_c, 0, 76, 88
2, 27239, Note_off_c, 0, 76, 0
2, 27240, Note_on_c, 0, 77, 88
2, 27419, Note_off_c, 0, 77, 0
2, 27420, Note_on_c, 0, 74, 88
2, 27479, Note_off_c, 0, 74, 0
2, 27480, Note_on_c, 0, 76, 88
2, 27539, Note_off_c, 0, 76, 0
2, 27540, Note_on_c, 0, 77, 88
2, 27599, Note_off_c, 0, 77, 0
2, 27600, Note_on_c, 0, 79, 88
2, 27659, Note_off_c, 0, 79, 0
2, 27660, Note_on_c, 0, 81, 88
2, 27719, Note_off_c, 0, 81, 0
2, 27720, Note_on_c, 0, 82, 88
2, 27779, Note_off_c, 0, 82, 0
2, 27780, Note_on_c, 0, 79, 88
2, 27839, Note_off_c, 0, 79, 0
2, 27840, Note_on_c, 0, 77, 88
2, 27899, Note_off_c, 0, 77, 0
2, 27900, Note_on_c, 0, 76, 88
2, 27959, Note_off_c, 0, 76, 0
2, 27960, Note_on_c, 0, 74, 88
2, 28019, Note_off_c, 0, 74, 0
2, 28020, Note_on_c, 0, 72, 88
2, 28079, Note_off_c, 0, 72, 0
2, 28080, Note_on_c, 0, 77, 88
2, 28199, Note_off_c, 0, 77, 0
2, 28200, Note_on_c, 0, 72, 88
2, 28319, Note_off_c, 0, 72, 0
2, 28320, Note_on_c, 0, 77, 88
2, 28439, Note_off_c, 0, 77, 0
2, 28440, Note_on_c, 0, 75, 88
2, 28499, Note_off_c, 0, 75, 0
2, 28500, Note_on_c, 0, 74, 88
2, 28559, Note_off_c, 0, 74, 0
2, 28560, Note_on_c, 0, 75, 88
2, 28679, Note_off_c, 0, 75, 0
2, 28680, Note_on_c, 0, 72, 88
2, 28799, Note_off_c, 0, 72, 0
2, 28800, Note_on_c, 0, 74, 88
2, 28919, Note_off_c, 0, 74, 0
2, 28920, Note_on_c, 0, 67, 88
2, 29039, Note_off_c, 0, 67, 0
2, 29040, Note_on_c, 0, 79, 88
2, 29159, Note_off_c, 0, 79, 0
2, 29160, Note_on_c, 0, 77, 88
2, 29219, Note_off_c, 0, 77, 0
2, 29220, Note_on_c, 0, 75, 88
2, 29279, Note_off_c, 0, 75, 0
2, 29280, Note_on_c, 0, 77, 88
2, 29399, Note_off_c, 0, 77, 0
2, 29400, Note_on_c, 0, 74, 88
2, 29519, Note_off_c, 0, 74, 0
2, 29520, Note_on_c, 0, 75, 88
2, 29639, Note_off_c, 0, 75, 0
2, 29640, Note_on_c, 0, 72, 88
2, 29759, Note_off_c, 0, 72, 0
2, 29760, Note_on_c, 0, 80, 88
2, 29879, Note_off_c, 0, 80, 0
2, 29880, Note_on_c, 0, 79, 88
2, 29939, Note_off_c, 0, 79, 0
2, 29940, Note_on_c, 0, 77, 88
2, 29999, Note_off_c, 0, 77, 0
2, 30000, Note_on_c, 0, 79, 88
2, 30119, Note_off_c, 0, 79, 0
2, 30120, Note_on_c, 0, 75, 88
2, 30239, Note_off_c, 0, 75, 0
2, 30240, Note_on_c, 0, 77, 88
2, 30779, Note_off_c, 0, 77, 0
2, 30780, Note_on_c, 0, 75, 88
2, 30839, Note_off_c, 0, 75, 0
2, 30840, Note_on_c, 0, 74, 88
2, 30899, Note_off_c, 0, 74, 0
2, 30900, Note_on_c, 0, 72, 88
2, 30959, Note_off_c, 0, 72, 0
2, 30960, Note_on_c, 0, 71, 88
2, 31079, Note_off_c, 0, 71, 0
2, 31080, Note_on_c, 0, 74, 88
2, 31259, Note_off_c, 0, 74, 0
2, 31260, Note_on_c, 0, 67, 88
2, 31319, Note_off_c, 0, 67, 0
2, 31320, Note_on_c, 0, 72, 88
2, 31499, Note_off_c, 0, 72, 0
2, 31500, Note_on_c, 0, 72, 88
2, 31559, Note_off_c, 0, 72, 0
2, 31560, Note_on_c, 0, 71, 88
2, 31679, Note_off_c, 0, 71, 0
2, 31680, Note_on_c, 0, 72, 88
2, 31979, Note_off_c, 0, 72, 0
2, 31980, Note_on_c, 0, 70, 88
2, 32039, Note_off_c, 0, 70, 0
2, 32040, Note_on_c, 0, 69, 88
2, 32099, Note_off_c, 0, 69, 0
2, 32100, Note_on_c, 0, 67, 88
2, 32159, Note_off_c, 0, 67, 0
2, 32160, Note_on_c, 0, 69, 88
2, 32459, Note_off_c, 0, 69, 0
2, 32460, Note_on_c, 0, 67, 88
2, 32519, Note_off_c, 0, 67, 0
2, 32520, Note_on_c, 0, 69, 88
2, 32579, Note_off_c, 0, 69, 0
2, 32580, Note_on_c, 0, 70, 88
2, 32639, Note_off_c, 0, 70, 0
2, 32640, Note_on_c, 0, 67, 88
2, 33179, Note_off_c, 0, 67, 0
2, 33180, Note_on_c, 0, 65, 88
2, 33239, Note_off_c, 0, 65, 0
2, 33240, Note_on_c, 0, 67, 88
2, 33299, Note_off_c, 0, 67, 0
2, 33300, Note_on_c, 0, 69, 88
2, 33359, Note_off_c, 0, 69, 0
2, 33360, Note_on_c, 0, 65, 88
2, 34019, Note_off_c, 0, 65, 0
2, 34020, Note_on_c, 0, 69, 88
2, 34079, Note_off_c, 0, 69, 0
2, 34080, Note_on_c, 0, 67, 88
2, 34259, Note_off_c, 0, 67, 0
2, 34260, Note_on_c, 0, 65, 88
2, 34319, Note_off_c, 0, 65, 0
2, 34320, Note_on_c, 0, 70, 88
2, 34499, Note_off_c, 0, 70, 0
2, 34500, Note_on_c, 0, 69, 88
2, 34559, Note_off_c, 0, 69, 0
2, 34560, Note_on_c, 0, 67, 88
2, 34799, Note_off_c, 0, 67, 0
2, 34800, Note_on_c, 0, 65, 88
2, 36239, Note_off_c, 0, 65, 0
2, 36240, Note_on_c, 0, 75, 88
2, 36599, Note_off_c, 0, 75, 0
2, 36600, Note_on_c, 0, 72, 88
2, 36719, Note_off_c, 0, 72, 0
2, 36720, Note_on_c, 0, 77, 88
2, 36959, Note_off_c, 0, 77, 0
2, 36960, Note_on_c, 0, 74, 88
2, 37319, Note_off_c, 0, 74, 0
2, 37320, Note_on_c, 0, 70, 88
2, 37439, Note_off_c, 0, 70, 0
2, 37440, Note_on_c, 0, 75, 88
2, 37679, Note_off_c, 0, 75, 0
2, 37680, Note_on_c, 0, 72, 88
2, 38039, Note_off_c, 0, 72, 0
2, 38040, Note_on_c, 0, 68, 88
2, 38159, Note_off_c, 0, 68, 0
2, 38160, Note_on_c, 0, 74, 88
2, 38279, Note_off_c, 0, 74, 0
2, 38280, Note_on_c, 0, 74, 88
2, 38399, Note_off_c, 0, 74, 0
2, 38400, Note_on_c, 0, 74, 88
2, 38519, Note_off_c, 0, 74, 0
2, 38520, Note_on_c, 0, 74, 88
2, 38639, Note_off_c, 0, 74, 0
2, 38640, Note_on_c, 0, 74, 88
2, 38759, Note_off_c, 0, 74, 0
2, 38760, Note_on_c, 0, 74, 88
2, 38879, Note_off_c, 0, 74, 0
2, 38880, Note_on_c, 0, 74, 88
2, 38939, Note_off_c, 0, 74, 0
2, 38940, Note_on_c, 0, 72, 88
2, 38999, Note_off_c, 0, 72, 0
2, 39000, Note_on_c, 0, 74, 88
2, 39059, Note_off_c, 0, 74, 0
2, 39060, Note_on_c, 0, 72, 88
2, 39119, Note_off_c, 0, 72, 0
2, 39120, Note_on_c, 0, 71, 88
2, 39179, Note_off_c, 0, 71, 0
2, 39180, Note_on_c, 0, 69, 88
2, 39239, Note_off_c, 0, 69, 0
2, 39240, Note_on_c, 0, 71, 88
2, 39299, Note_off_c, 0, 71, 0
2, 39300, Note_on_c, 0, 69, 88
2, 39359, Note_off_c, 0, 69, 0
2, 39360, Note_on_c, 0, 67, 88
2, 39899, Note_off_c, 0, 67, 0
2, 39900, Note_on_c, 0, 67, 88
2, 39959, Note_off_c, 0, 67, 0
2, 39960, Note_on_c, 0, 69, 88
2, 40019, Note_off_c, 0, 69, 0
2, 40020, Note_on_c, 0, 71, 88
2, 40079, Note_off_c, 0, 71, 0
2, 40080, Note_on_c, 0, 72, 88
2, 40439, Note_off_c, 0, 72, 0
2, 40440, Note_on_c, 0, 71, 88
2, 40499, Note_off_c, 0, 71, 0
2, 40500, Note_on_c, 0, 69, 88
2, 40559, Note_off_c, 0, 69, 0
2, 40560, Note_on_c, 0, 71, 88
2, 40799, Note_off_c, 0, 71, 0
2, 40800, Note_on_c, 0, 70, 88
2, 41159, Note_off_c, 0, 70, 0
2, 41160, Note_on_c, 0, 69, 88
2, 41219, Note_off_c, 0, 69, 0
2, 41220, Note_on_c, 0, 67, 88
2, 41279, Note_off_c, 0, 67, 0
2, 41280, Note_on_c, 0, 69, 88
2, 41519, Note_off_c, 0, 69, 0
2, 41520, Note_on_c, 0, 68, 88
2, 41879, Note_off_c, 0, 68, 0
2, 41880, Note_on_c, 0, 67, 88
2, 41939, Note_off_c, 0, 67, 0
2, 41940, Note_on_c, 0, 65, 88
2, 41999, Note_off_c, 0, 65, 0
2, 42000, Note_on_c, 0, 67, 88
2, 42059, Note_off_c, 0, 67, 0
2, 42060, Note_on_c, 0, 77, 88
2, 42119, Note_off_c, 0, 77, 0
2, 42120, Note_on_c, 0, 79, 88
2, 42179, Note_off_c, 0, 79, 0
2, 42180, Note_on_c, 0, 80, 88
2, 42239, Note_off_c, 0, 80, 0
2, 42240, Note_on_c, 0, 82, 88
2, 42299, Note_off_c, 0, 82, 0
2, 42300, Note_on_c, 0, 80, 88
2, 42359, Note_off_c, 0, 80, 0
2, 42360, Note_on_c, 0, 82, 88
2, 42479, Note_off_c, 0, 82, 0
2, 42480, Note_on_c, 0, 82, 88
2, 42599, Note_off_c, 0, 82, 0
2, 42600, Note_on_c, 0, 75, 88
2, 42779, Note_off_c, 0, 75, 0
2, 42780, Note_on_c, 0, 75, 88
2, 42839, Note_off_c, 0, 75, 0
2, 42840, Note_on_c, 0, 77, 88
2, 42899, Note_off_c, 0, 77, 0
2, 42900, Note_on_c, 0, 79, 88
2, 42959, Note_off_c, 0, 79, 0
2, 42960, Note_on_c, 0, 80, 88
2, 43019, Note_off_c, 0, 80, 0
2, 43020, Note_on_c, 0, 79, 88
2, 43079, Note_off_c, 0, 79, 0
2, 43080, Note_on_c, 0, 80, 88
2, 43199, Note_off_c, 0, 80, 0
2, 43200, Note_on_c, 0, 80, 88
2, 43319, Note_off_c, 0, 80, 0
2, 43320, Note_on_c, 0, 74, 88
2, 43499, Note_off_c, 0, 74, 0
2, 43500, Note_on_c, 0, 74, 88
2, 43559, Note_off_c, 0, 74, 0
2, 43560, Note_on_c, 0, 75, 88
2, 43619, Note_off_c, 0, 75, 0
2, 43620, Note_on_c, 0, 77, 88
2, 43679, Note_off_c, 0, 77, 0
2, 43680, Note_on_c, 0, 79, 88
2, 43739, Note_off_c, 0, 79, 0
2, 43740, Note_on_c, 0, 77, 88
2, 43799, Note_off_c, 0, 77, 0
2, 43800, Note_on_c, 0, 79, 88
2, 44039, Note_off_c, 0, 79, 0
2, 44040, Note_on_c, 0, 82, 88
2, 44159, Note_off_c, 0, 82, 0
2, 44160, Note_on_c, 0, 80, 88
2, 44279, Note_off_c, 0, 80, 0
2, 44280, Note_on_c, 0, 79, 88
2, 44399, Note_off_c, 0, 79, 0
2, 44400, Note_on_c, 0, 77, 88
2, 44519, Note_off_c, 0, 77, 0
2, 44520, Note_on_c, 0, 75, 88
2, 44639, Note_off_c, 0, 75, 0
2, 44640, Note_on_c, 0, 74, 88
2, 44759, Note_off_c, 0, 74, 0
2, 44760, Note_on_c, 0, 74, 88
2, 44879, Note_off_c, 0, 74, 0
2, 44880, Note_on_c, 0, 75, 88
2, 44999, Note_off_c, 0, 75, 0
2, 45000, Note_on_c, 0, 77, 88
2, 45119, Note_off_c, 0, 77, 0
2, 45120, Note_on_c, 0, 79, 88
2, 45419, Note_off_c, 0, 79, 0
2, 45420, Note_on_c, 0, 77, 88
2, 45479, Note_off_c, 0, 77, 0
2, 45480, Note_on_c, 0, 79, 88
2, 45539, Note_off_c, 0, 79, 0
2, 45540, Note_on_c, 0, 77, 88
2, 45599, Note_off_c, 0, 77, 0
2, 45600, Note_on_c, 0, 75, 88
2, 45659, Note_off_c, 0, 75, 0
2, 45660, Note_on_c, 0, 74, 88
2, 45719, Note_off_c, 0, 74, 0
2, 45720, Note_on_c, 0, 75, 88
2, 45779, Note_off_c, 0, 75, 0
2, 45780, Note_on_c, 0, 74, 88
2, 45839, Note_off_c, 0, 74, 0
2, 45840, Note_on_c, 0, 72, 88
2, 45899, Note_off_c, 0, 72, 0
2, 45900, Note_on_c, 0, 70, 88
2, 45959, Note_off_c, 0, 70, 0
2, 45960, Note_on_c, 0, 72, 88
2, 46019, Note_off_c, 0, 72, 0
2, 46020, Note_on_c, 0, 70, 88
2, 46079, Note_off_c, 0, 70, 0
2, 46080, Note_on_c, 0, 69, 88
2, 46439, Note_off_c, 0, 69, 0
2, 46440, Note_on_c, 0, 70, 88
2, 46559, Note_off_c, 0, 70, 0
2, 46560, Note_on_c, 0, 72, 88
2, 47039, Note_off_c, 0, 72, 0
2, 47040, Note_on_c, 0, 70, 88
2, 47339, Note_off_c, 0, 70, 0
2, 47340, Note_on_c, 0, 70, 88
2, 47399, Note_off_c, 0, 70, 0
2, 47400, Note_on_c, 0, 69, 88
2, 47459, Note_off_c, 0, 69, 0
2, 47460, Note_on_c, 0, 67, 88
2, 47519, Note_off_c, 0, 67, 0
2, 47520, Note_on_c, 0, 66, 88
2, 49199, Note_off_c, 0, 66, 0
2, 49200, Note_on_c, 0, 74, 88
2, 49559, Note_off_c, 0, 74, 0
2, 49560, Note_on_c, 0, 70, 88
2, 49679, Note_off_c, 0, 70, 0
2, 49680, Note_on_c, 0, 75, 88
2, 49919, Note_off_c, 0, 75, 0
2, 49920, Note_on_c, 0, 72, 88
2, 50279, Note_off_c, 0, 72, 0
2, 50280, Note_on_c, 0, 69, 88
2, 50399, Note_off_c, 0, 69, 0
2, 50400, Note_on_c, 0, 74, 88
2, 50639, Note_off_c, 0, 74, 0
2, 50640, Note_on_c, 0, 70, 88
2, 50999, Note_off_c, 0, 70, 0
2, 51000, Note_on_c, 0, 67, 88
2, 51119, Note_off_c, 0, 67, 0
2, 51120, Note_on_c, 0, 72, 88
2, 51239, Note_off_c, 0, 72, 0
2, 51240, Note_on_c, 0, 72, 88
2, 51359, Note_off_c, 0, 72, 0
2, 51360, Note_on_c, 0, 72, 88
2, 51479, Note_off_c, 0, 72, 0
2, 51480, Note_on_c, 0, 72, 88
2, 51599, Note_off_c, 0, 72, 0
2, 51600, Note_on_c, 0, 72, 88
2, 51719, Note_off_c, 0, 72, 0
2, 51720, Note_on_c, 0, 72, 88
2, 51839, Note_off_c, 0, 72, 0
2, 51840, Note_on_c, 0, 72, 88
2, 52199, Note_off_c, 0, 72, 0
2, 52200, Note_on_c, 0, 74, 88
2, 52319, Note_off_c, 0, 74, 0
2, 52320, Note_on_c, 0, 70, 88
2, 52679, Note_off_c, 0, 70, 0
2, 52680, Note_on_c, 0, 72, 88
2, 52799, Note_off_c, 0, 72, 0
2, 52800, Note_on_c, 0, 70, 88
2, 52919, Note_off_c, 0, 70, 0
2, 52920, Note_on_c, 0, 69, 88
2, 53039, Note_off_c, 0, 69, 0
2, 53040, Note_on_c, 0, 69, 88
2, 53159, Note_off_c, 0, 69, 0
2, 53160, Note_on_c, 0, 67, 88
2, 53279, Note_off_c, 0, 67, 0
2, 53280, Note_on_c, 0, 67, 88
2, 53579, Note_off_c, 0, 67, 0
2, 53580, Note_on_c, 0, 69, 88
2, 53639, Note_off_c, 0, 69, 0
2, 53640, Note_on_c, 0, 70, 88
2, 53699, Note_off_c, 0, 70, 0
2, 53700, Note_on_c, 0, 72, 88
2, 53759, Note_off_c, 0, 72, 0
2, 53760, Note_on_c, 0, 74, 88
2, 53819, Note_off_c, 0, 74, 0
2, 53820, Note_on_c, 0, 72, 88
2, 53879, Note_off_c, 0, 72, 0
2, 53880, Note_on_c, 0, 74, 88
2, 53939, Note_off_c, 0, 74, 0
2, 53940, Note_on_c, 0, 75, 88
2, 53999, Note_off_c, 0, 75, 0
2, 54000, Note_on_c, 0, 69, 88
2, 54299, Note_off_c, 0, 69, 0
2, 54300, Note_on_c, 0, 70, 88
2, 54359, Note_off_c, 0, 70, 0
2, 54360, Note_on_c, 0, 72, 88
2, 54419, Note_off_c, 0, 72, 0
2, 54420, Note_on_c, 0, 74, 88
2, 54479, Note_off_c, 0, 74, 0
2, 54480, Note_on_c, 0, 75, 88
2, 54539, Note_off_c, 0, 75, 0
2, 54540, Note_on_c, 0, 74, 88
2, 54599, Note_off_c, 0, 74, 0
2, 54600, Note_on_c, 0, 75, 88
2, 54659, Note_off_c, 0, 75, 0
2, 54660, Note_on_c, 0, 77, 88
2, 54719, Note_off_c, 0, 77, 0
2, 54720, Note_on_c, 0, 71, 88
2, 54779, Note_off_c, 0, 71, 0
2, 54780, Note_on_c, 0, 67, 88
2, 54839, Note_off_c, 0, 67, 0
2, 54840, Note_on_c, 0, 69, 88
2, 54899, Note_off_c, 0, 69, 0
2, 54900, Note_on_c, 0, 71, 88
2, 54959, Note_off_c, 0, 71, 0
2, 54960, Note_on_c, 0, 72, 88
2, 55019, Note_off_c, 0, 72, 0
2, 55020, Note_on_c, 0, 71, 88
2, 55079, Note_off_c, 0, 71, 0
2, 55080, Note_on_c, 0, 72, 88
2, 55199, Note_off_c, 0, 72, 0
2, 55200, Note_on_c, 0, 72, 88
2, 55319, Note_off_c, 0, 72, 0
2, 55320, Note_on_c, 0, 72, 88
2, 55439, Note_off_c, 0, 72, 0
2, 55440, Note_on_c, 0, 72, 88
2, 55799, Note_off_c, 0, 72, 0
2, 55800, Note_on_c, 0, 78, 88
2, 55919, Note_off_c, 0, 78, 0
2, 55920, Note_on_c, 0, 79, 88
2, 56219, Note_off_c, 0, 79, 0
2, 56220, Note_on_c, 0, 82, 88
2, 56279, Note_off_c, 0, 82, 0
2, 56280, Note_on_c, 0, 81, 88
2, 56339, Note_off_c, 0, 81, 0
2, 56340, Note_on_c, 0, 79, 88
2, 56399, Note_off_c, 0, 79, 0
2, 56400, Note_on_c, 0, 78, 88
2, 56459, Note_off_c, 0, 78, 0
2, 56460, Note_on_c, 0, 76, 88
2, 56519, Note_off_c, 0, 76, 0
2, 56520, Note_on_c, 0, 74, 88
2, 56579, Note_off_c, 0, 74, 0
2, 56580, Note_on_c, 0, 72, 88
2, 56639, Note_off_c, 0, 72, 0
2, 56640, Note_on_c, 0, 70, 88
2, 56699, Note_off_c, 0, 70, 0
2, 56700, Note_on_c, 0, 69, 88
2, 56759, Note_off_c, 0, 69, 0
2, 56760, Note_on_c, 0, 67, 88
2, 56819, Note_off_c, 0, 67, 0
2, 56820, Note_on_c, 0, 66, 88
2, 56879, Note_off_c, 0, 66, 0
2, 56880, Note_on_c, 0, 67, 88
2, 58499, Note_off_c, 0, 67, 0
2, 58500, Note_on_c, 0, 74, 88
2, 58619, Note_off_c, 0, 74, 0
2, 58620, Note_on_c, 0, 72, 88
2, 58739, Note_off_c, 0, 72, 0
2, 58740, Note_on_c, 0, 70, 88
2, 58859, Note_off_c, 0, 70, 0
2, 58860, Note_on_c, 0, 69, 88
2, 58979, Note_off_c, 0, 69, 0
2, 58980, Note_on_c, 0, 67, 88
2, 59039, Note_off_c, 0, 67, 0
2, 59040, Note_on_c, 0, 66, 88
2, 59159, Note_off_c, 0, 66, 0
2, 59160, Note_on_c, 0, 72, 88
2, 59219, Note_off_c, 0, 72, 0
2, 59220, Note_on_c, 0, 74, 88
2, 59249, Note_off_c, 0, 74, 0
2, 59250, Note_on_c, 0, 75, 88
2, 59279, Note_off_c, 0, 75, 0
2, 59280, Note_on_c, 0, 74, 88
2, 59399, Note_off_c, 0, 74, 0
2, 59400, Note_on_c, 0, 67, 88
2, 59639, Note_off_c, 0, 67, 0
2, 59640, Note_on_c, 0, 66, 88
2, 59759, Note_off_c, 0, 66, 0
2, 59760, Note_on_c, 0, 67, 88
2, 59800, Note_off_c, 0, 67, 0
2, 59800, End_track
0, 0, End_of_file