0, 0, Header, 1, 2, 240
1, 0, Start_track
1, 0, Time_signature, 4, 2, 24, 8
1, 0, Tempo, 1052631
1, 0, SMPTE_offset, 64, 0, 0, 0, 100
1, 0, End_track
2, 0, Start_track
2, 0, Title_t, "Track 1"
2, 0, Program_c, 0, 6
2, 0, Note_on_c, 0, 68, 88
2, 59, Note_off_c, 0, 68, 0
2, 60, Note_on_c, 0, 70, 88
2, 119, Note_off_c, 0, 70, 0
2, 120, Note_on_c, 0, 71, 88
2, 179, Note_off_c, 0, 71, 0
2, 180, Note_on_c, 0, 68, 88
2, 239, Note_off_c, 0, 68, 0
2, 240, Note_on_c, 0, 70, 88
2, 299, Note_off_c, 0, 70, 0
2, 300, Note_on_c, 0, 73, 88
2, 359, Note_off_c, 0, 73, 0
2, 360, Note_on_c, 0, 76, 88
2, 479, Note_off_c, 0, 76, 0
2, 480, Note_on_c, 0, 75, 88
2, 599, Note_off_c, 0, 75, 0
2, 600, Note_on_c, 0, 73, 88
2, 719, Note_off_c, 0, 73, 0
2, 720, Note_on_c, 0, 71, 88
2, 839, Note_off_c, 0, 71, 0
2, 840, Note_on_c, 0, 80, 88
2, 1079, Note_off_c, 0, 80, 0
2, 1080, Note_on_c, 0, 80, 88
2, 1117, Note_off_c, 0, 80, 0
2, 1118, Note_on_c, 0, 79, 88
2, 1147, Note_off_c, 0, 79, 0
2, 1148, Note_on_c, 0, 80, 88
2, 1177, Note_off_c, 0, 80, 0
2, 1178, Note_on_c, 0, 79, 88
2, 1207, Note_off_c, 0, 79, 0
2, 1208, Note_on_c, 0, 80, 88
2, 1237, Note_off_c, 0, 80, 0
2, 1238, Note_on_c, 0, 79, 88
2, 1259, Note_off_c, 0, 79, 0
2, 1260, Note_on_c, 0, 80, 88
2, 1282, Note_off_c, 0, 80, 0
2, 1283, Note_on_c, 0, 79, 88
2, 1304, Note_off_c, 0, 79, 0
2, 1305, Note_on_c, 0, 80, 88
2, 1327, Note_off_c, 0, 80, 0
2, 1328, Note_on_c, 0, 79, 88
2, 1349, Note_off_c, 0, 79, 0
2, 1350, Note_on_c, 0, 80, 88
2, 1372, Note_off_c, 0, 80, 0
2, 1373, Note_on_c, 0, 79, 88
2, 1439, Note_off_c, 0, 79, 0
2, 1440, Note_on_c, 0, 80, 88
2, 1499, Note_off_c, 0, 80, 0
2, 1500, Note_on_c, 0, 82, 88
2, 1559, Note_off_c, 0, 82, 0
2, 1560, Note_on_c, 0, 83, 88
2, 1619, Note_off_c, 0, 83, 0
2, 1620, Note_on_c, 0, 75, 88
2, 1679, Note_off_c, 0, 75, 0
2, 1680, Note_on_c, 0, 76, 88
2, 1739, Note_off_c, 0, 76, 0
2, 1740, Note_on_c, 0, 80, 88
2, 1799, Note_off_c, 0, 80, 0
2, 1800, Note_on_c, 0, 78, 88
2, 1859, Note_off_c, 0, 78, 0
2, 1860, Note_on_c, 0, 80, 88
2, 1919, Note_off_c, 0, 80, 0
2, 1920, Note_on_c, 0, 82, 88
2, 1979, Note_off_c, 0, 82, 0
2, 1980, Note_on_c, 0, 73, 88
2, 2039, Note_off_c, 0, 73, 0
2, 2040, Note_on_c, 0, 75, 88
2, 2099, Note_off_c, 0, 75, 0
2, 2100, Note_on_c, 0, 78, 88
2, 2159, Note_off_c, 0, 78, 0
2, 2160, Note_on_c, 0, 76, 88
2, 2219, Note_off_c, 0, 76, 0
2, 2220, Note_on_c, 0, 78, 88
2, 2279, Note_off_c, 0, 78, 0
2, 2280, Note_on_c, 0, 80, 88
2, 2339, Note_off_c, 0, 80, 0
2, 2340, Note_on_c, 0, 71, 88
2, 2399, Note_off_c, 0, 71, 0
2, 2400, Note_on_c, 0, 73, 88
2, 2459, Note_off_c, 0, 73, 0
2, 2460, Note_on_c, 0, 76, 88
2, 2519, Note_off_c, 0, 76, 0
2, 2520, Note_on_c, 0, 70, 88
2, 2579, Note_off_c, 0, 70, 0
2, 2580, Note_on_c, 0, 71, 88
2, 2639, Note_off_c, 0, 71, 0
2, 2640, Note_on_c, 0, 73, 88
2, 2699, Note_off_c, 0, 73, 0
2, 2700, Note_on_c, 0, 66, 88
2, 2759, Note_off_c, 0, 66, 0
2, 2760, Note_on_c, 0, 73, 88
2, 2819, Note_off_c, 0, 73, 0
2, 2820, Note_on_c, 0, 76, 88
2, 2879, Note_off_c, 0, 76, 0
2, 2880, Note_on_c, 0, 75, 88
2, 2939, Note_off_c, 0, 75, 0
2, 2940, Note_on_c, 0, 76, 88
2, 2999, Note_off_c, 0, 76, 0
2, 3000, Note_on_c, 0, 78, 88
2, 3059, Note_off_c, 0, 78, 0
2, 3060, Note_on_c, 0, 75, 88
2, 3119, Note_off_c, 0, 75, 0
2, 3120, Note_on_c, 0, 76, 88
2, 3179, Note_off_c, 0, 76, 0
2, 3180, Note_on_c, 0, 80, 88
2, 3239, Note_off_c, 0, 80, 0
2, 3240, Note_on_c, 0, 71, 88
2, 3299, Note_off_c, 0, 71, 0
2, 3300, Note_on_c, 0, 70, 88
2, 3359, Note_off_c, 0, 70, 0
2, 3360, Note_on_c, 0, 71, 88
2, 3419, Note_off_c, 0, 71, 0
2, 3420, Note_on_c, 0, 70, 88
2, 3479, Note_off_c, 0, 70, 0
2, 3480, Note_on_c, 0, 71, 88
2, 3539, Note_off_c, 0, 71, 0
2, 3540, Note_on_c, 0, 73, 88
2, 3719, Note_off_c, 0, 73, 0
2, 3720, Note_on_c, 0, 71, 88
2, 4019, Note_off_c, 0, 71, 0
2, 4020, Note_on_c, 0, 71, 88
2, 4079, Note_off_c, 0, 71, 0
2, 4080, Note_on_c, 0, 70, 88
2, 4139, Note_off_c, 0, 70, 0
2, 4140, Note_on_c, 0, 71, 88
2, 4199, Note_off_c, 0, 71, 0
2, 4200, Note_on_c, 0, 73, 88
2, 4259, Note_off_c, 0, 73, 0
2, 4260, Note_on_c, 0, 70, 88
2, 4319, Note_off_c, 0, 70, 0
2, 4320, Note_on_c, 0, 66, 88
2, 4739, Note_off_c, 0, 66, 0
2, 4740, Note_on_c, 0, 65, 88
2, 4799, Note_off_c, 0, 65, 0
2, 4800, Note_on_c, 0, 66, 88
2, 4859, Note_off_c, 0, 66, 0
2, 4860, Note_on_c, 0, 65, 88
2, 4919, Note_off_c, 0, 65, 0
2, 4920, Note_on_c, 0, 66, 88
2, 4979, Note_off_c, 0, 66, 0
2, 4980, Note_on_c, 0, 68, 88
2, 5039, Note_off_c, 0, 68, 0
2, 5040, Note_on_c, 0, 61, 88
2, 5099, Note_off_c, 0, 61, 0
2, 5100, Note_on_c, 0, 63, 88
2, 5159, Note_off_c, 0, 63, 0
2, 5160, Note_on_c, 0, 64, 88
2, 5219, Note_off_c, 0, 64, 0
2, 5220, Note_on_c, 0, 61, 88
2, 5279, Note_off_c, 0, 61, 0
2, 5280, Note_on_c, 0, 63, 88
2, 5339, Note_off_c, 0, 63, 0
2, 5340, Note_on_c, 0, 66, 88
2, 5399, Note_off_c, 0, 66, 0
2, 5400, Note_on_c, 0, 69, 88
2, 5519, Note_off_c, 0, 69, 0
2, 5520, Note_on_c, 0, 68, 88
2, 5639, Note_off_c, 0, 68, 0
2, 5640, Note_on_c, 0, 66, 88
2, 5759, Note_off_c, 0, 66, 0
2, 5760, Note_on_c, 0, 64, 88
2, 5999, Note_off_c, 0, 64, 0
2, 6000, Note_on_c, 0, 73, 88
2, 6119, Note_off_c, 0, 73, 0
2, 6120, Note_on_c, 0, 70, 88
2, 6539, Note_off_c, 0, 70, 0
2, 6540, Note_on_c, 0, 68, 88
2, 6599, Note_off_c, 0, 68, 0
2, 6600, Note_on_c, 0, 67, 88
2, 6659, Note_off_c, 0, 67, 0
2, 6660, Note_on_c, 0, 70, 88
2, 6719, Note_off_c, 0, 70, 0
2, 6720, Note_on_c, 0, 68, 88
2, 6779, Note_off_c, 0, 68, 0
2, 6780, Note_on_c, 0, 65, 88
2, 6839, Note_off_c, 0, 65, 0
2, 6840, Note_on_c, 0, 62, 88
2, 6959, Note_off_c, 0, 62, 0
2, 6960, Note_on_c, 0, 63, 88
2, 7079, Note_off_c, 0, 63, 0
2, 7080, Note_on_c, 0, 65, 88
2, 7199, Note_off_c, 0, 65, 0
2, 7200, Note_on_c, 0, 66, 88
2, 7559, Note_off_c, 0, 66, 0
2, 7560, Note_on_c, 0, 65, 88
2, 7919, Note_off_c, 0, 65, 0
2, 7920, Note_on_c, 0, 63, 88
2, 8099, Note_off_c, 0, 63, 0
2, 8100, Note_on_c, 0, 63, 88
2, 8159, Note_off_c, 0, 63, 0
2, 8160, Note_on_c, 0, 65, 88
2, 8219, Note_off_c, 0, 65, 0
2, 8220, Note_on_c, 0, 66, 88
2, 8279, Note_off_c, 0, 66, 0
2, 8280, Note_on_c, 0, 68, 88
2, 8459, Note_off_c, 0, 68, 0
2, 8460, Note_on_c, 0, 62, 88
2, 8519, Note_off_c, 0, 62, 0
2, 8520, Note_on_c, 0, 65, 88
2, 8579, Note_off_c, 0, 65, 0
2, 8580, Note_on_c, 0, 68, 88
2, 8639, Note_off_c, 0, 68, 0
2, 8640, Note_on_c, 0, 66, 88
2, 8819, Note_off_c, 0, 66, 0
2, 8820, Note_on_c, 0, 66, 88
2, 8879, Note_off_c, 0, 66, 0
2, 8880, Note_on_c, 0, 68, 88
2, 8939, Note_off_c, 0, 68, 0
2, 8940, Note_on_c, 0, 71, 88
2, 8999, Note_off_c, 0, 71, 0
2, 9000, Note_on_c, 0, 66, 88
2, 9037, Note_off_c, 0, 66, 0
2, 9038, Note_on_c, 0, 65, 88
2, 9067, Note_off_c, 0, 65, 0
2, 9068, Note_on_c, 0, 66, 88
2, 9097, Note_off_c, 0, 66, 0
2, 9098, Note_on_c, 0, 65, 88
2, 9127, Note_off_c, 0, 65, 0
2, 9128, Note_on_c, 0, 66, 88
2, 9149, Note_off_c, 0, 66, 0
2, 9150, Note_on_c, 0, 65, 88
2, 9172, Note_off_c, 0, 65, 0
2, 9173, Note_on_c, 0, 66, 88
2, 9194, Note_off_c, 0, 66, 0
2, 9195, Note_on_c, 0, 65, 88
2, 9217, Note_off_c, 0, 65, 0
2, 9218, Note_on_c, 0, 66, 88
2, 9239, Note_off_c, 0, 66, 0
2, 9240, Note_on_c, 0, 65, 88
2, 9359, Note_off_c, 0, 65, 0
2, 9360, Note_on_c, 0, 63, 88
2, 9419, Note_off_c, 0, 63, 0
2, 9420, Note_on_c, 0, 65, 88
2, 9479, Note_off_c, 0, 65, 0
2, 9480, Note_on_c, 0, 66, 88
2, 9539, Note_off_c, 0, 66, 0
2, 9540, Note_on_c, 0, 63, 88
2, 9599, Note_off_c, 0, 63, 0
2, 9600, Note_on_c, 0, 65, 88
2, 9659, Note_off_c, 0, 65, 0
2, 9660, Note_on_c, 0, 68, 88
2, 9719, Note_off_c, 0, 68, 0
2, 9720, Note_on_c, 0, 71, 88
2, 9839, Note_off_c, 0, 71, 0
2, 9840, Note_on_c, 0, 70, 88
2, 9959, Note_off_c, 0, 70, 0
2, 9960, Note_on_c, 0, 68, 88
2, 10079, Note_off_c, 0, 68, 0
2, 10080, Note_on_c, 0, 66, 88
2, 10379, Note_off_c, 0, 66, 0
2, 10380, Note_on_c, 0, 68, 88
2, 10439, Note_off_c, 0, 68, 0
2, 10440, Note_on_c, 0, 70, 88
2, 10499, Note_off_c, 0, 70, 0
2, 10500, Note_on_c, 0, 71, 88
2, 10559, Note_off_c, 0, 71, 0
2, 10560, Note_on_c, 0, 73, 88
2, 10619, Note_off_c, 0, 73, 0
2, 10620, Note_on_c, 0, 70, 88
2, 10679, Note_off_c, 0, 70, 0
2, 10680, Note_on_c, 0, 71, 88
2, 10739, Note_off_c, 0, 71, 0
2, 10740, Note_on_c, 0, 73, 88
2, 10799, Note_off_c, 0, 73, 0
2, 10800, Note_on_c, 0, 75, 88
2, 10859, Note_off_c, 0, 75, 0
2, 10860, Note_on_c, 0, 73, 88
2, 10919, Note_off_c, 0, 73, 0
2, 10920, Note_on_c, 0, 71, 88
2, 10979, Note_off_c, 0, 71, 0
2, 10980, Note_on_c, 0, 75, 88
2, 11039, Note_off_c, 0, 75, 0
2, 11040, Note_on_c, 0, 73, 88
2, 11099, Note_off_c, 0, 73, 0
2, 11100, Note_on_c, 0, 70, 88
2, 11159, Note_off_c, 0, 70, 0
2, 11160, Note_on_c, 0, 67, 88
2, 11279, Note_off_c, 0, 67, 0
2, 11280, Note_on_c, 0, 68, 88
2, 11399, Note_off_c, 0, 68, 0
2, 11400, Note_on_c, 0, 70, 88
2, 11519, Note_off_c, 0, 70, 0
2, 11520, Note_on_c, 0, 71, 88
2, 11699, Note_off_c, 0, 71, 0
2, 11700, Note_on_c, 0, 70, 88
2, 11759, Note_off_c, 0, 70, 0
2, 11760, Note_on_c, 0, 72, 88
2, 11819, Note_off_c, 0, 72, 0
2, 11820, Note_on_c, 0, 73, 88
2, 11879, Note_off_c, 0, 73, 0
2, 11880, Note_on_c, 0, 75, 88
2, 12239, Note_off_c, 0, 75, 0
2, 12240, Note_on_c, 0, 73, 88
2, 12299, Note_off_c, 0, 73, 0
2, 12300, Note_on_c, 0, 75, 88
2, 12359, Note_off_c, 0, 75, 0
2, 12360, Note_on_c, 0, 76, 88
2, 12419, Note_off_c, 0, 76, 0
2, 12420, Note_on_c, 0, 73, 88
2, 12479, Note_off_c, 0, 73, 0
2, 12480, Note_on_c, 0, 75, 88
2, 12539, Note_off_c, 0, 75, 0
2, 12540, Note_on_c, 0, 78, 88
2, 12599, Note_off_c, 0, 78, 0
2, 12600, Note_on_c, 0, 81, 88
2, 12719, Note_off_c, 0, 81, 0
2, 12720, Note_on_c, 0, 80, 88
2, 12839, Note_off_c, 0, 80, 0
2, 12840, Note_on_c, 0, 78, 88
2, 12959, Note_off_c, 0, 78, 0
2, 12960, Note_on_c, 0, 76, 88
2, 13439, Note_off_c, 0, 76, 0
2, 13440, Note_on_c, 0, 78, 88
2, 13559, Note_off_c, 0, 78, 0
2, 13560, Note_on_c, 0, 76, 88
2, 13679, Note_off_c, 0, 76, 0
2, 13680, Note_on_c, 0, 76, 88
2, 13717, Note_off_c, 0, 76, 0
2, 13718, Note_on_c, 0, 75, 88
2, 13739, Note_off_c, 0, 75, 0
2, 13740, Note_on_c, 0, 76, 88
2, 13762, Note_off_c, 0, 76, 0
2, 13763, Note_on_c, 0, 75, 88
2, 13784, Note_off_c, 0, 75, 0
2, 13785, Note_on_c, 0, 76, 88
2, 13799, Note_off_c, 0, 76, 0
2, 13800, Note_on_c, 0, 75, 88
2, 14159, Note_off_c, 0, 75, 0
2, 14160, Note_on_c, 0, 76, 88
2, 14279, Note_off_c, 0, 76, 0
2, 14280, Note_on_c, 0, 75, 88
2, 14399, Note_off_c, 0, 75, 0
2, 14400, Note_on_c, 0, 75, 88
2, 14437, Note_off_c, 0, 75, 0
2, 14438, Note_on_c, 0, 73, 88
2, 14459, Note_off_c, 0, 73, 0
2, 14460, Note_on_c, 0, 75, 88
2, 14482, Note_off_c, 0, 75, 0
2, 14483, Note_on_c, 0, 73, 88
2, 14504, Note_off_c, 0, 73, 0
2, 14505, Note_on_c, 0, 75, 88
2, 14519, Note_off_c, 0, 75, 0
2, 14520, Note_on_c, 0, 73, 88
2, 14879, Note_off_c, 0, 73, 0
2, 14880, Note_on_c, 0, 75, 88
2, 14999, Note_off_c, 0, 75, 0
2, 15000, Note_on_c, 0, 73, 88
2, 15119, Note_off_c, 0, 73, 0
2, 15120, Note_on_c, 0, 71, 88
2, 15179, Note_off_c, 0, 71, 0
2, 15180, Note_on_c, 0, 70, 88
2, 15239, Note_off_c, 0, 70, 0
2, 15240, Note_on_c, 0, 68, 88
2, 15299, Note_off_c, 0, 68, 0
2, 15300, Note_on_c, 0, 71, 88
2, 15359, Note_off_c, 0, 71, 0
2, 15360, Note_on_c, 0, 73, 88
2, 15419, Note_off_c, 0, 73, 0
2, 15420, Note_on_c, 0, 76, 88
2, 15479, Note_off_c, 0, 76, 0
2, 15480, Note_on_c, 0, 70, 88
2, 15539, Note_off_c, 0, 70, 0
2, 15540, Note_on_c, 0, 68, 88
2, 15599, Note_off_c, 0, 68, 0
2, 15600, Note_on_c, 0, 66, 88
2, 15659, Note_off_c, 0, 66, 0
2, 15660, Note_on_c, 0, 70, 88
2, 15719, Note_off_c, 0, 70, 0
2, 15720, Note_on_c, 0, 71, 88
2, 15779, Note_off_c, 0, 71, 0
2, 15780, Note_on_c, 0, 75, 88
2, 15839, Note_off_c, 0, 75, 0
2, 15840, Note_on_c, 0, 68, 88
2, 15899, Note_off_c, 0, 68, 0
2, 15900, Note_on_c, 0, 75, 88
2, 15959, Note_off_c, 0, 75, 0
2, 15960, Note_on_c, 0, 73, 88
2, 16019, Note_off_c, 0, 73, 0
2, 16020, Note_on_c, 0, 71, 88
2, 16079, Note_off_c, 0, 71, 0
2, 16080, Note_on_c, 0, 70, 88
2, 16139, Note_off_c, 0, 70, 0
2, 16140, Note_on_c, 0, 68, 88
2, 16199, Note_off_c, 0, 68, 0
2, 16200, Note_on_c, 0, 67, 88
2, 16259, Note_off_c, 0, 67, 0
2, 16260, Note_on_c, 0, 68, 88
2, 16319, Note_off_c, 0, 68, 0
2, 16320, Note_on_c, 0, 70, 88
2, 16379, Note_off_c, 0, 70, 0
2, 16380, Note_on_c, 0, 67, 88
2, 16439, Note_off_c, 0, 67, 0
2, 16440, Note_on_c, 0, 68, 88
2, 16499, Note_off_c, 0, 68, 0
2, 16500, Note_on_c, 0, 71, 88
2, 16559, Note_off_c, 0, 71, 0
2, 16560, Note_on_c, 0, 76, 88
2, 16679, Note_off_c, 0, 76, 0
2, 16680, Note_on_c, 0, 76, 88
2, 16799, Note_off_c, 0, 76, 0
2, 16800, Note_on_c, 0, 76, 88
2, 16919, Note_off_c, 0, 76, 0
2, 16920, Note_on_c, 0, 76, 88
2, 17039, Note_off_c, 0, 76, 0
2, 17040, Note_on_c, 0, 76, 88
2, 17159, Note_off_c, 0, 76, 0
2, 17160, Note_on_c, 0, 76, 88
2, 17279, Note_off_c, 0, 76, 0
2, 17280, Note_on_c, 0, 76, 88
2, 17699, Note_off_c, 0, 76, 0
2, 17700, Note_on_c, 0, 75, 88
2, 17759, Note_off_c, 0, 75, 0
2, 17760, Note_on_c, 0, 73, 88
2, 17819, Note_off_c, 0, 73, 0
2, 17820, Note_on_c, 0, 82, 88
2, 17879, Note_off_c, 0, 82, 0
2, 17880, Note_on_c, 0, 76, 88
2, 17939, Note_off_c, 0, 76, 0
2, 17940, Note_on_c, 0, 73, 88
2, 17999, Note_off_c, 0, 73, 0
2, 18000, Note_on_c, 0, 75, 88
2, 18059, Note_off_c, 0, 75, 0
2, 18060, Note_on_c, 0, 73, 88
2, 18119, Note_off_c, 0, 73, 0
2, 18120, Note_on_c, 0, 71, 88
2, 18179, Note_off_c, 0, 71, 0
2, 18180, Note_on_c, 0, 75, 88
2, 18239, Note_off_c, 0, 75, 0
2, 18240, Note_on_c, 0, 73, 88
2, 18299, Note_off_c, 0, 73, 0
2, 18300, Note_on_c, 0, 70, 88
2, 18359, Note_off_c, 0, 70, 0
2, 18360, Note_on_c, 0, 71, 88
2, 18419, Note_off_c, 0, 71, 0
2, 18420, Note_on_c, 0, 70, 88
2, 18479, Note_off_c, 0, 70, 0
2, 18480, Note_on_c, 0, 68, 88
2, 18539, Note_off_c, 0, 68, 0
2, 18540, Note_on_c, 0, 71, 88
2, 18599, Note_off_c, 0, 71, 0
2, 18600, Note_on_c, 0, 70, 88
2, 18659, Note_off_c, 0, 70, 0
2, 18660, Note_on_c, 0, 67, 88
2, 18719, Note_off_c, 0, 67, 0
2, 18720, Note_on_c, 0, 68, 88
2, 18760, Note_off_c, 0, 68, 0
2, 18760, End_track
0, 0, End_of_file