0, 0, Header, 1, 2, 240
1, 0, Start_track
1, 0, Time_signature, 4, 2, 24, 8
1, 0, Tempo, 923076
1, 0, SMPTE_offset, 64, 0, 0, 0, 100
1, 0, End_track
2, 0, Start_track
2, 0, Title_t, "Track 1"
2, 0, Program_c, 0, 6
2, 2040, Note_on_c, 0, 80, 88
2, 2159, Note_off_c, 0, 80, 0
2, 2160, Note_on_c, 0, 79, 88
2, 2279, Note_off_c, 0, 79, 0
2, 2280, Note_on_c, 0, 84, 88
2, 2399, Note_off_c, 0, 84, 0
2, 2400, Note_on_c, 0, 77, 88
2, 2519, Note_off_c, 0, 77, 0
2, 2520, Note_on_c, 0, 79, 88
2, 2579, Note_off_c, 0, 79, 0
2, 2580, Note_on_c, 0, 80, 88
2, 2639, Note_off_c, 0, 80, 0
2, 2640, Note_on_c, 0, 82, 88
2, 2759, Note_off_c, 0, 82, 0
2, 2760, Note_on_c, 0, 70, 88
2, 2879, Note_off_c, 0, 70, 0
2, 2880, Note_on_c, 0, 75, 88
2, 2999, Note_off_c, 0, 75, 0
2, 3000, Note_on_c, 0, 77, 88
2, 3059, Note_off_c, 0, 77, 0
2, 3060, Note_on_c, 0, 79, 88
2, 3119, Note_off_c, 0, 79, 0
2, 3120, Note_on_c, 0, 80, 88
2, 3419, Note_off_c, 0, 80, 0
2, 3420, Note_on_c, 0, 82, 88
2, 3479, Note_off_c, 0, 82, 0
2, 3480, Note_on_c, 0, 79, 88
2, 3539, Note_off_c, 0, 79, 0
2, 3540, Note_on_c, 0, 80, 88
2, 3599, Note_off_c, 0, 80, 0
2, 3600, Note_on_c, 0, 77, 88
2, 3659, Note_off_c, 0, 77, 0
2, 3660, Note_on_c, 0, 79, 88
2, 3719, Note_off_c, 0, 79, 0
2, 3720, Note_on_c, 0, 80, 88
2, 3779, Note_off_c, 0, 80, 0
2, 3780, Note_on_c, 0, 82, 88
2, 3839, Note_off_c, 0, 82, 0
2, 3840, Note_on_c, 0, 79, 88
2, 3899, Note_off_c, 0, 79, 0
2, 3900, Note_on_c, 0, 77, 88
2, 3959, Note_off_c, 0, 77, 0
2, 3960, Note_on_c, 0, 79, 88
2, 4019, Note_off_c, 0, 79, 0
2, 4020, Note_on_c, 0, 80, 88
2, 4079, Note_off_c, 0, 80, 0
2, 4080, Note_on_c, 0, 82, 88
2, 4139, Note_off_c, 0, 82, 0
2, 4140, Note_on_c, 0, 80, 88
2, 4199, Note_off_c, 0, 80, 0
2, 4200, Note_on_c, 0, 79, 88
2, 4259, Note_off_c, 0, 79, 0
2, 4260, Note_on_c, 0, 82, 88
2, 4319, Note_off_c, 0, 82, 0
2, 4320, Note_on_c, 0, 80, 88
2, 4379, Note_off_c, 0, 80, 0
2, 4380, Note_on_c, 0, 79, 88
2, 4439, Note_off_c, 0, 79, 0
2, 4440, Note_on_c, 0, 77, 88
2, 4499, Note_off_c, 0, 77, 0
2, 4500, Note_on_c, 0, 75, 88
2, 4559, Note_off_c, 0, 75, 0
2, 4560, Note_on_c, 0, 73, 88
2, 4619, Note_off_c, 0, 73, 0
2, 4620, Note_on_c, 0, 72, 88
2, 4679, Note_off_c, 0, 72, 0
2, 4680, Note_on_c, 0, 73, 88
2, 4739, Note_off_c, 0, 73, 0
2, 4740, Note_on_c, 0, 75, 88
2, 4799, Note_off_c, 0, 75, 0
2, 4800, Note_on_c, 0, 72, 88
2, 5039, Note_off_c, 0, 72, 0
2, 5040, Note_on_c, 0, 80, 88
2, 5279, Note_off_c, 0, 80, 0
2, 5280, Note_on_c, 0, 79, 88
2, 5519, Note_off_c, 0, 79, 0
2, 5520, Note_on_c, 0, 78, 88
2, 5759, Note_off_c, 0, 78, 0
2, 5760, Note_on_c, 0, 77, 88
2, 5999, Note_off_c, 0, 77, 0
2, 6000, Note_on_c, 0, 76, 88
2, 6239, Note_off_c, 0, 76, 0
2, 6240, Note_on_c, 0, 75, 88
2, 6359, Note_off_c, 0, 75, 0
2, 6360, Note_on_c, 0, 80, 88
2, 6599, Note_off_c, 0, 80, 0
2, 6600, Note_on_c, 0, 79, 88
2, 6719, Note_off_c, 0, 79, 0
2, 6720, Note_on_c, 0, 80, 88
2, 20279, Note_off_c, 0, 80, 0
2, 20280, Note_on_c, 0, 75, 88
2, 20399, Note_off_c, 0, 75, 0
2, 20400, Note_on_c, 0, 72, 88
2, 20519, Note_off_c, 0, 72, 0
2, 20520, Note_on_c, 0, 77, 88
2, 20639, Note_off_c, 0, 77, 0
2, 20640, Note_on_c, 0, 70, 88
2, 20759, Note_off_c, 0, 70, 0
2, 20760, Note_on_c, 0, 72, 88
2, 20819, Note_off_c, 0, 72, 0
2, 20820, Note_on_c, 0, 73, 88
2, 20879, Note_off_c, 0, 73, 0
2, 20880, Note_on_c, 0, 75, 88
2, 20999, Note_off_c, 0, 75, 0
2, 21000, Note_on_c, 0, 63, 88
2, 21119, Note_off_c, 0, 63, 0
2, 21120, Note_on_c, 0, 68, 88
2, 21239, Note_off_c, 0, 68, 0
2, 21240, Note_on_c, 0, 70, 88
2, 21299, Note_off_c, 0, 70, 0
2, 21300, Note_on_c, 0, 72, 88
2, 21359, Note_off_c, 0, 72, 0
2, 21360, Note_on_c, 0, 73, 88
2, 21659, Note_off_c, 0, 73, 0
2, 21660, Note_on_c, 0, 75, 88
2, 21719, Note_off_c, 0, 75, 0
2, 21720, Note_on_c, 0, 72, 88
2, 21779, Note_off_c, 0, 72, 0
2, 21780, Note_on_c, 0, 73, 88
2, 21839, Note_off_c, 0, 73, 0
2, 21840, Note_on_c, 0, 70, 88
2, 21899, Note_off_c, 0, 70, 0
2, 21900, Note_on_c, 0, 72, 88
2, 21959, Note_off_c, 0, 72, 0
2, 21960, Note_on_c, 0, 73, 88
2, 22019, Note_off_c, 0, 73, 0
2, 22020, Note_on_c, 0, 75, 88
2, 22079, Note_off_c, 0, 75, 0
2, 22080, Note_on_c, 0, 72, 88
2, 22199, Note_off_c, 0, 72, 0
2, 22200, Note_on_c, 0, 76, 88
2, 22319, Note_off_c, 0, 76, 0
2, 22320, Note_on_c, 0, 77, 88
2, 22559, Note_off_c, 0, 77, 0
2, 22560, Note_on_c, 0, 76, 88
2, 22799, Note_off_c, 0, 76, 0
2, 22800, Note_on_c, 0, 75, 88
2, 23039, Note_off_c, 0, 75, 0
2, 23040, Note_on_c, 0, 74, 88
2, 23279, Note_off_c, 0, 74, 0
2, 23280, Note_on_c, 0, 73, 88
2, 23519, Note_off_c, 0, 73, 0
2, 23520, Note_on_c, 0, 72, 88
2, 23639, Note_off_c, 0, 72, 0
2, 23640, Note_on_c, 0, 77, 88
2, 23879, Note_off_c, 0, 77, 0
2, 23880, Note_on_c, 0, 75, 88
2, 24119, Note_off_c, 0, 75, 0
2, 24120, Note_on_c, 0, 63, 88
2, 24239, Note_off_c, 0, 63, 0
2, 24240, Note_on_c, 0, 62, 88
2, 24359, Note_off_c, 0, 62, 0
2, 24360, Note_on_c, 0, 74, 88
2, 24599, Note_off_c, 0, 74, 0
2, 24600, Note_on_c, 0, 62, 88
2, 24719, Note_off_c, 0, 62, 0
2, 24720, Note_on_c, 0, 60, 88
2, 24839, Note_off_c, 0, 60, 0
2, 24840, Note_on_c, 0, 72, 88
2, 25079, Note_off_c, 0, 72, 0
2, 25080, Note_on_c, 0, 60, 88
2, 25199, Note_off_c, 0, 60, 0
2, 25200, Note_on_c, 0, 59, 88
2, 25319, Note_off_c, 0, 59, 0
2, 25320, Note_on_c, 0, 71, 88
2, 25439, Note_off_c, 0, 71, 0
2, 25440, Note_on_c, 0, 72, 88
2, 25499, Note_off_c, 0, 72, 0
2, 25500, Note_on_c, 0, 71, 88
2, 25559, Note_off_c, 0, 71, 0
2, 25560, Note_on_c, 0, 72, 88
2, 25619, Note_off_c, 0, 72, 0
2, 25620, Note_on_c, 0, 74, 88
2, 25679, Note_off_c, 0, 74, 0
2, 25680, Note_on_c, 0, 75, 88
2, 25739, Note_off_c, 0, 75, 0
2, 25740, Note_on_c, 0, 74, 88
2, 25799, Note_off_c, 0, 74, 0
2, 25800, Note_on_c, 0, 72, 88
2, 25859, Note_off_c, 0, 72, 0
2, 25860, Note_on_c, 0, 75, 88
2, 25919, Note_off_c, 0, 75, 0
2, 25920, Note_on_c, 0, 74, 88
2, 25979, Note_off_c, 0, 74, 0
2, 25980, Note_on_c, 0, 72, 88
2, 26039, Note_off_c, 0, 72, 0
2, 26040, Note_on_c, 0, 74, 88
2, 26099, Note_off_c, 0, 74, 0
2, 26100, Note_on_c, 0, 75, 88
2, 26159, Note_off_c, 0, 75, 0
2, 26160, Note_on_c, 0, 77, 88
2, 26219, Note_off_c, 0, 77, 0
2, 26220, Note_on_c, 0, 75, 88
2, 26279, Note_off_c, 0, 75, 0
2, 26280, Note_on_c, 0, 74, 88
2, 26339, Note_off_c, 0, 74, 0
2, 26340, Note_on_c, 0, 77, 88
2, 26399, Note_off_c, 0, 77, 0
2, 26400, Note_on_c, 0, 76, 88
2, 26459, Note_off_c, 0, 76, 0
2, 26460, Note_on_c, 0, 74, 88
2, 26519, Note_off_c, 0, 74, 0
2, 26520, Note_on_c, 0, 76, 88
2, 26579, Note_off_c, 0, 76, 0
2, 26580, Note_on_c, 0, 77, 88
2, 26639, Note_off_c, 0, 77, 0
2, 26640, Note_on_c, 0, 79, 88
2, 26699, Note_off_c, 0, 79, 0
2, 26700, Note_on_c, 0, 77, 88
2, 26759, Note_off_c, 0, 77, 0
2, 26760, Note_on_c, 0, 76, 88
2, 26819, Note_off_c, 0, 76, 0
2, 26820, Note_on_c, 0, 79, 88
2, 26879, Note_off_c, 0, 79, 0
2, 26880, Note_on_c, 0, 77, 88
2, 26999, Note_off_c, 0, 77, 0
2, 27000, Note_on_c, 0, 72, 88
2, 27119, Note_off_c, 0, 72, 0
2, 27120, Note_on_c, 0, 77, 88
2, 27599, Note_off_c, 0, 77, 0
2, 27600, Note_on_c, 0, 76, 88
2, 27719, Note_off_c, 0, 76, 0
2, 27720, Note_on_c, 0, 75, 88
2, 27959, Note_off_c, 0, 75, 0
2, 27960, Note_on_c, 0, 84, 88
2, 28019, Note_off_c, 0, 84, 0
2, 28020, Note_on_c, 0, 82, 88
2, 28079, Note_off_c, 0, 82, 0
2, 28080, Note_on_c, 0, 81, 88
2, 28139, Note_off_c, 0, 81, 0
2, 28140, Note_on_c, 0, 79, 88
2, 28199, Note_off_c, 0, 79, 0
2, 28200, Note_on_c, 0, 77, 88
2, 28259, Note_off_c, 0, 77, 0
2, 28260, Note_on_c, 0, 75, 88
2, 28319, Note_off_c, 0, 75, 0
2, 28320, Note_on_c, 0, 73, 88
2, 28679, Note_off_c, 0, 73, 0
2, 28680, Note_on_c, 0, 73, 88
2, 28799, Note_off_c, 0, 73, 0
2, 28800, Note_on_c, 0, 75, 88
2, 28919, Note_off_c, 0, 75, 0
2, 28920, Note_on_c, 0, 78, 88
2, 29039, Note_off_c, 0, 78, 0
2, 29040, Note_on_c, 0, 72, 88
2, 29159, Note_off_c, 0, 72, 0
2, 29160, Note_on_c, 0, 77, 88
2, 29279, Note_off_c, 0, 77, 0
2, 29280, Note_on_c, 0, 70, 88
2, 29759, Note_off_c, 0, 70, 0
2, 29760, Note_on_c, 0, 70, 88
2, 30299, Note_off_c, 0, 70, 0
2, 30300, Note_on_c, 0, 70, 88
2, 30359, Note_off_c, 0, 70, 0
2, 30360, Note_on_c, 0, 68, 88
2, 30419, Note_off_c, 0, 68, 0
2, 30420, Note_on_c, 0, 66, 88
2, 30479, Note_off_c, 0, 66, 0
2, 30480, Note_on_c, 0, 65, 88
2, 30539, Note_off_c, 0, 65, 0
2, 30540, Note_on_c, 0, 66, 88
2, 30599, Note_off_c, 0, 66, 0
2, 30600, Note_on_c, 0, 68, 88
2, 30659, Note_off_c, 0, 68, 0
2, 30660, Note_on_c, 0, 65, 88
2, 30719, Note_off_c, 0, 65, 0
2, 30720, Note_on_c, 0, 66, 88
2, 30779, Note_off_c, 0, 66, 0
2, 30780, Note_on_c, 0, 68, 88
2, 30839, Note_off_c, 0, 68, 0
2, 30840, Note_on_c, 0, 66, 88
2, 30899, Note_off_c, 0, 66, 0
2, 30900, Note_on_c, 0, 65, 88
2, 30959, Note_off_c, 0, 65, 0
2, 30960, Note_on_c, 0, 63, 88
2, 31019, Note_off_c, 0, 63, 0
2, 31020, Note_on_c, 0, 65, 88
2, 31079, Note_off_c, 0, 65, 0
2, 31080, Note_on_c, 0, 66, 88
2, 31139, Note_off_c, 0, 66, 0
2, 31140, Note_on_c, 0, 63, 88
2, 31199, Note_off_c, 0, 63, 0
2, 31200, Note_on_c, 0, 65, 88
2, 31319, Note_off_c, 0, 65, 0
2, 31320, Note_on_c, 0, 66, 88
2, 31439, Note_off_c, 0, 66, 0
2, 31440, Note_on_c, 0, 68, 88
2, 31559, Note_off_c, 0, 68, 0
2, 31560, Note_on_c, 0, 65, 88
2, 31679, Note_off_c, 0, 65, 0
2, 31680, Note_on_c, 0, 70, 88
2, 31799, Note_off_c, 0, 70, 0
2, 31800, Note_on_c, 0, 74, 88
2, 31919, Note_off_c, 0, 74, 0
2, 31920, Note_on_c, 0, 75, 88
2, 32099, Note_off_c, 0, 75, 0
2, 32100, Note_on_c, 0, 77, 88
2, 32159, Note_off_c, 0, 77, 0
2, 32160, Note_on_c, 0, 73, 88
2, 32279, Note_off_c, 0, 73, 0
2, 32280, Note_on_c, 0, 72, 88
2, 32399, Note_off_c, 0, 72, 0
2, 32400, Note_on_c, 0, 70, 88
2, 32519, Note_off_c, 0, 70, 0
2, 32520, Note_on_c, 0, 75, 88
2, 32639, Note_off_c, 0, 75, 0
2, 32640, Note_on_c, 0, 72, 88
2, 32759, Note_off_c, 0, 72, 0
2, 32760, Note_on_c, 0, 77, 88
2, 32879, Note_off_c, 0, 77, 0
2, 32880, Note_on_c, 0, 73, 88
2, 32999, Note_off_c, 0, 73, 0
2, 33000, Note_on_c, 0, 78, 88
2, 33119, Note_off_c, 0, 78, 0
2, 33120, Note_on_c, 0, 72, 88
2, 33239, Note_off_c, 0, 72, 0
2, 33240, Note_on_c, 0, 73, 88
2, 33299, Note_off_c, 0, 73, 0
2, 33300, Note_on_c, 0, 75, 88
2, 33359, Note_off_c, 0, 75, 0
2, 33360, Note_on_c, 0, 77, 88
2, 33479, Note_off_c, 0, 77, 0
2, 33480, Note_on_c, 0, 65, 88
2, 33599, Note_off_c, 0, 65, 0
2, 33600, Note_on_c, 0, 70, 88
2, 33719, Note_off_c, 0, 70, 0
2, 33720, Note_on_c, 0, 72, 88
2, 33779, Note_off_c, 0, 72, 0
2, 33780, Note_on_c, 0, 73, 88
2, 33839, Note_off_c, 0, 73, 0
2, 33840, Note_on_c, 0, 75, 88
2, 34139, Note_off_c, 0, 75, 0
2, 34140, Note_on_c, 0, 77, 88
2, 34199, Note_off_c, 0, 77, 0
2, 34200, Note_on_c, 0, 73, 88
2, 34259, Note_off_c, 0, 73, 0
2, 34260, Note_on_c, 0, 75, 88
2, 34319, Note_off_c, 0, 75, 0
2, 34320, Note_on_c, 0, 72, 88
2, 34379, Note_off_c, 0, 72, 0
2, 34380, Note_on_c, 0, 73, 88
2, 34439, Note_off_c, 0, 73, 0
2, 34440, Note_on_c, 0, 75, 88
2, 34499, Note_off_c, 0, 75, 0
2, 34500, Note_on_c, 0, 77, 88
2, 34559, Note_off_c, 0, 77, 0
2, 34560, Note_on_c, 0, 70, 88
2, 34799, Note_off_c, 0, 70, 0
2, 34800, Note_on_c, 0, 72, 88
2, 35039, Note_off_c, 0, 72, 0
2, 35040, Note_on_c, 0, 73, 88
2, 35519, Note_off_c, 0, 73, 0
2, 35520, Note_on_c, 0, 72, 88
2, 35759, Note_off_c, 0, 72, 0
2, 35760, Note_on_c, 0, 71, 88
2, 35999, Note_off_c, 0, 71, 0
2, 36000, Note_on_c, 0, 70, 88
2, 36239, Note_off_c, 0, 70, 0
2, 36240, Note_on_c, 0, 69, 88
2, 36599, Note_off_c, 0, 69, 0
2, 36600, Note_on_c, 0, 68, 88
2, 37079, Note_off_c, 0, 68, 0
2, 37080, Note_on_c, 0, 67, 88
2, 37199, Note_off_c, 0, 67, 0
2, 37200, Note_on_c, 0, 68, 88
2, 37319, Note_off_c, 0, 68, 0
2, 37320, Note_on_c, 0, 70, 88
2, 37439, Note_off_c, 0, 70, 0
2, 37440, Note_on_c, 0, 72, 88
2, 37559, Note_off_c, 0, 72, 0
2, 37560, Note_on_c, 0, 74, 88
2, 37679, Note_off_c, 0, 74, 0
2, 37680, Note_on_c, 0, 75, 88
2, 37739, Note_off_c, 0, 75, 0
2, 37740, Note_on_c, 0, 76, 88
2, 37799, Note_off_c, 0, 76, 0
2, 37800, Note_on_c, 0, 73, 88
2, 37859, Note_off_c, 0, 73, 0
2, 37860, Note_on_c, 0, 75, 88
2, 37919, Note_off_c, 0, 75, 0
2, 37920, Note_on_c, 0, 71, 88
2, 37979, Note_off_c, 0, 71, 0
2, 37980, Note_on_c, 0, 73, 88
2, 38039, Note_off_c, 0, 73, 0
2, 38040, Note_on_c, 0, 75, 88
2, 38099, Note_off_c, 0, 75, 0
2, 38100, Note_on_c, 0, 76, 88
2, 38159, Note_off_c, 0, 76, 0
2, 38160, Note_on_c, 0, 73, 88
2, 38219, Note_off_c, 0, 73, 0
2, 38220, Note_on_c, 0, 75, 88
2, 38279, Note_off_c, 0, 75, 0
2, 38280, Note_on_c, 0, 71, 88
2, 38339, Note_off_c, 0, 71, 0
2, 38340, Note_on_c, 0, 73, 88
2, 38399, Note_off_c, 0, 73, 0
2, 38400, Note_on_c, 0, 70, 88
2, 38459, Note_off_c, 0, 70, 0
2, 38460, Note_on_c, 0, 75, 88
2, 38519, Note_off_c, 0, 75, 0
2, 38520, Note_on_c, 0, 77, 88
2, 38579, Note_off_c, 0, 77, 0
2, 38580, Note_on_c, 0, 79, 88
2, 38639, Note_off_c, 0, 79, 0
2, 38640, Note_on_c, 0, 80, 88
2, 38939, Note_off_c, 0, 80, 0
2, 38940, Note_on_c, 0, 80, 88
2, 38999, Note_off_c, 0, 80, 0
2, 39000, Note_on_c, 0, 79, 88
2, 39059, Note_off_c, 0, 79, 0
2, 39060, Note_on_c, 0, 77, 88
2, 39119, Note_off_c, 0, 77, 0
2, 39120, Note_on_c, 0, 79, 88
2, 39239, Note_off_c, 0, 79, 0
2, 39240, Note_on_c, 0, 78, 88
2, 39419, Note_off_c, 0, 78, 0
2, 39420, Note_on_c, 0, 78, 88
2, 39479, Note_off_c, 0, 78, 0
2, 39480, Note_on_c, 0, 77, 88
2, 39539, Note_off_c, 0, 77, 0
2, 39540, Note_on_c, 0, 75, 88
2, 39599, Note_off_c, 0, 75, 0
2, 39600, Note_on_c, 0, 77, 88
2, 39719, Note_off_c, 0, 77, 0
2, 39720, Note_on_c, 0, 76, 88
2, 39839, Note_off_c, 0, 76, 0
2, 39840, Note_on_c, 0, 75, 88
2, 40379, Note_off_c, 0, 75, 0
2, 40380, Note_on_c, 0, 75, 88
2, 40439, Note_off_c, 0, 75, 0
2, 40440, Note_on_c, 0, 74, 88
2, 40499, Note_off_c, 0, 74, 0
2, 40500, Note_on_c, 0, 72, 88
2, 40559, Note_off_c, 0, 72, 0
2, 40560, Note_on_c, 0, 74, 88
2, 40679, Note_off_c, 0, 74, 0
2, 40680, Note_on_c, 0, 73, 88
2, 40859, Note_off_c, 0, 73, 0
2, 40860, Note_on_c, 0, 73, 88
2, 40919, Note_off_c, 0, 73, 0
2, 40920, Note_on_c, 0, 72, 88
2, 40979, Note_off_c, 0, 72, 0
2, 40980, Note_on_c, 0, 70, 88
2, 41039, Note_off_c, 0, 70, 0
2, 41040, Note_on_c, 0, 72, 88
2, 41159, Note_off_c, 0, 72, 0
2, 41160, Note_on_c, 0, 71, 88
2, 41279, Note_off_c, 0, 71, 0
2, 41280, Note_on_c, 0, 70, 88
2, 41399, Note_off_c, 0, 70, 0
2, 41400, Note_on_c, 0, 72, 88
2, 41519, Note_off_c, 0, 72, 0
2, 41520, Note_on_c, 0, 73, 88
2, 42119, Note_off_c, 0, 73, 0
2, 42120, Note_on_c, 0, 72, 88
2, 42239, Note_off_c, 0, 72, 0
2, 42240, Note_on_c, 0, 73, 88
2, 42719, Note_off_c, 0, 73, 0
2, 42720, Note_on_c, 0, 76, 88
2, 43199, Note_off_c, 0, 76, 0
2, 43200, Note_on_c, 0, 79, 88
2, 43679, Note_off_c, 0, 79, 0
2, 43680, Note_on_c, 0, 82, 88
2, 43979, Note_off_c, 0, 82, 0
2, 43980, Note_on_c, 0, 73, 88
2, 44039, Note_off_c, 0, 73, 0
2, 44040, Note_on_c, 0, 72, 88
2, 44099, Note_off_c, 0, 72, 0
2, 44100, Note_on_c, 0, 70, 88
2, 44159, Note_off_c, 0, 70, 0
2, 44160, Note_on_c, 0, 72, 88
2, 44219, Note_off_c, 0, 72, 0
2, 44220, Note_on_c, 0, 68, 88
2, 44279, Note_off_c, 0, 68, 0
2, 44280, Note_on_c, 0, 70, 88
2, 44339, Note_off_c, 0, 70, 0
2, 44340, Note_on_c, 0, 72, 88
2, 44399, Note_off_c, 0, 72, 0
2, 44400, Note_on_c, 0, 73, 88
2, 44459, Note_off_c, 0, 73, 0
2, 44460, Note_on_c, 0, 75, 88
2, 44519, Note_off_c, 0, 75, 0
2, 44520, Note_on_c, 0, 77, 88
2, 44579, Note_off_c, 0, 77, 0
2, 44580, Note_on_c, 0, 79, 88
2, 44639, Note_off_c, 0, 79, 0
2, 44640, Note_on_c, 0, 80, 88
2, 44699, Note_off_c, 0, 80, 0
2, 44700, Note_on_c, 0, 75, 88
2, 44759, Note_off_c, 0, 75, 0
2, 44760, Note_on_c, 0, 77, 88
2, 44819, Note_off_c, 0, 77, 0
2, 44820, Note_on_c, 0, 73, 88
2, 44879, Note_off_c, 0, 73, 0
2, 44880, Note_on_c, 0, 72, 88
2, 44939, Note_off_c, 0, 72, 0
2, 44940, Note_on_c, 0, 77, 88
2, 44999, Note_off_c, 0, 77, 0
2, 45000, Note_on_c, 0, 74, 88
2, 45059, Note_off_c, 0, 74, 0
2, 45060, Note_on_c, 0, 75, 88
2, 45119, Note_off_c, 0, 75, 0
2, 45120, Note_on_c, 0, 68, 88
2, 45299, Note_off_c, 0, 68, 0
2, 45300, Note_on_c, 0, 65, 88
2, 45329, Note_off_c, 0, 65, 0
2, 45330, Note_on_c, 0, 67, 88
2, 45359, Note_off_c, 0, 67, 0
2, 45360, Note_on_c, 0, 68, 88
2, 45382, Note_off_c, 0, 68, 0
2, 45383, Note_on_c, 0, 67, 88
2, 45404, Note_off_c, 0, 67, 0
2, 45405, Note_on_c, 0, 68, 88
2, 45427, Note_off_c, 0, 68, 0
2, 45428, Note_on_c, 0, 67, 88
2, 45449, Note_off_c, 0, 67, 0
2, 45450, Note_on_c, 0, 68, 88
2, 45472, Note_off_c, 0, 68, 0
2, 45473, Note_on_c, 0, 67, 88
2, 45494, Note_off_c, 0, 67, 0
2, 45495, Note_on_c, 0, 68, 88
2, 45517, Note_off_c, 0, 68, 0
2, 45518, Note_on_c, 0, 67, 88
2, 45539, Note_off_c, 0, 67, 0
2, 45540, Note_on_c, 0, 65, 88
2, 45569, Note_off_c, 0, 65, 0
2, 45570, Note_on_c, 0, 67, 88
2, 45599, Note_off_c, 0, 67, 0
2, 45600, Note_on_c, 0, 68, 88
2, 45779, Note_off_c, 0, 68, 0
2, 45780, Note_on_c, 0, 70, 88
2, 45839, Note_off_c, 0, 70, 0
2, 45840, Note_on_c, 0, 72, 88
2, 46019, Note_off_c, 0, 72, 0
2, 46020, Note_on_c, 0, 74, 88
2, 46079, Note_off_c, 0, 74, 0
2, 46080, Note_on_c, 0, 75, 88
2, 46679, Note_off_c, 0, 75, 0
2, 46680, Note_on_c, 0, 73, 88
2, 46739, Note_off_c, 0, 73, 0
2, 46740, Note_on_c, 0, 72, 88
2, 46799, Note_off_c, 0, 72, 0
2, 46800, Note_on_c, 0, 70, 88
2, 46859, Note_off_c, 0, 70, 0
2, 46860, Note_on_c, 0, 67, 88
2, 46919, Note_off_c, 0, 67, 0
2, 46920, Note_on_c, 0, 68, 88
2, 47039, Note_off_c, 0, 68, 0
2, 47040, Note_on_c, 0, 70, 88
2, 47159, Note_off_c, 0, 70, 0
2, 47160, Note_on_c, 0, 68, 88
2, 47399, Note_off_c, 0, 68, 0
2, 47400, Note_on_c, 0, 67, 88
2, 47519, Note_off_c, 0, 67, 0
2, 47520, Note_on_c, 0, 68, 88
2, 47560, Note_off_c, 0, 68, 0
2, 47560, End_track
0, 0, End_of_file