0, 0, Header, 1, 2, 240
1, 0, Start_track
1, 0, Time_signature, 4, 2, 24, 8
1, 0, Tempo, 483870
1, 0, SMPTE_offset, 64, 0, 0, 0, 100
1, 0, End_track
2, 0, Start_track
2, 0, Title_t, "Track 1"
2, 0, Program_c, 0, 6
2, 0, Note_on_c, 0, 68, 88
2, 119, Note_off_c, 0, 68, 0
2, 120, Note_on_c, 0, 70, 88
2, 239, Note_off_c, 0, 70, 0
2, 240, Note_on_c, 0, 71, 88
2, 359, Note_off_c, 0, 71, 0
2, 360, Note_on_c, 0, 70, 88
2, 479, Note_off_c, 0, 70, 0
2, 480, Note_on_c, 0, 75, 88
2, 599, Note_off_c, 0, 75, 0
2, 600, Note_on_c, 0, 63, 88
2, 719, Note_off_c, 0, 63, 0
2, 720, Note_on_c, 0, 68, 88
2, 839, Note_off_c, 0, 68, 0
2, 840, Note_on_c, 0, 71, 88
2, 959, Note_off_c, 0, 71, 0
2, 960, Note_on_c, 0, 70, 88
2, 1079, Note_off_c, 0, 70, 0
2, 1080, Note_on_c, 0, 71, 88
2, 1199, Note_off_c, 0, 71, 0
2, 1200, Note_on_c, 0, 70, 88
2, 1319, Note_off_c, 0, 70, 0
2, 1320, Note_on_c, 0, 68, 88
2, 1439, Note_off_c, 0, 68, 0
2, 1440, Note_on_c, 0, 70, 88
2, 1559, Note_off_c, 0, 70, 0
2, 1560, Note_on_c, 0, 71, 88
2, 1679, Note_off_c, 0, 71, 0
2, 1680, Note_on_c, 0, 73, 88
2, 1799, Note_off_c, 0, 73, 0
2, 1800, Note_on_c, 0, 71, 88
2, 1919, Note_off_c, 0, 71, 0
2, 1920, Note_on_c, 0, 76, 88
2, 2039, Note_off_c, 0, 76, 0
2, 2040, Note_on_c, 0, 68, 88
2, 2159, Note_off_c, 0, 68, 0
2, 2160, Note_on_c, 0, 70, 88
2, 2279, Note_off_c, 0, 70, 0
2, 2280, Note_on_c, 0, 73, 88
2, 2399, Note_off_c, 0, 73, 0
2, 2400, Note_on_c, 0, 71, 88
2, 2519, Note_off_c, 0, 71, 0
2, 2520, Note_on_c, 0, 73, 88
2, 2639, Note_off_c, 0, 73, 0
2, 2640, Note_on_c, 0, 71, 88
2, 2759, Note_off_c, 0, 71, 0
2, 2760, Note_on_c, 0, 70, 88
2, 2879, Note_off_c, 0, 70, 0
2, 2880, Note_on_c, 0, 71, 88
2, 3119, Note_off_c, 0, 71, 0
2, 3120, Note_on_c, 0, 72, 88
2, 3239, Note_off_c, 0, 72, 0
2, 3240, Note_on_c, 0, 73, 88
2, 3959, Note_off_c, 0, 73, 0
2, 3960, Note_on_c, 0, 72, 88
2, 4319, Note_off_c, 0, 72, 0
2, 4320, Note_on_c, 0, 73, 88
2, 4559, Note_off_c, 0, 73, 0
2, 4560, Note_on_c, 0, 74, 88
2, 4679, Note_off_c, 0, 74, 0
2, 4680, Note_on_c, 0, 75, 88
2, 5399, Note_off_c, 0, 75, 0
2, 5400, Note_on_c, 0, 74, 88
2, 5759, Note_off_c, 0, 74, 0
2, 5760, Note_on_c, 0, 75, 88
2, 5879, Note_off_c, 0, 75, 0
2, 5880, Note_on_c, 0, 73, 88
2, 6239, Note_off_c, 0, 73, 0
2, 6240, Note_on_c, 0, 70, 88
2, 6359, Note_off_c, 0, 70, 0
2, 6360, Note_on_c, 0, 72, 88
2, 6479, Note_off_c, 0, 72, 0
2, 6480, Note_on_c, 0, 73, 88
2, 6599, Note_off_c, 0, 73, 0
2, 6600, Note_on_c, 0, 71, 88
2, 6959, Note_off_c, 0, 71, 0
2, 6960, Note_on_c, 0, 68, 88
2, 7079, Note_off_c, 0, 68, 0
2, 7080, Note_on_c, 0, 70, 88
2, 7199, Note_off_c, 0, 70, 0
2, 7200, Note_on_c, 0, 71, 88
2, 7679, Note_off_c, 0, 71, 0
2, 7680, Note_on_c, 0, 70, 88
2, 7799, Note_off_c, 0, 70, 0
2, 7800, Note_on_c, 0, 73, 88
2, 7919, Note_off_c, 0, 73, 0
2, 7920, Note_on_c, 0, 67, 88
2, 8039, Note_off_c, 0, 67, 0
2, 8040, Note_on_c, 0, 75, 88
2, 8159, Note_off_c, 0, 75, 0
2, 8160, Note_on_c, 0, 68, 88
2, 8279, Note_off_c, 0, 68, 0
2, 8280, Note_on_c, 0, 73, 88
2, 8759, Note_off_c, 0, 73, 0
2, 8760, Note_on_c, 0, 76, 88
2, 8879, Note_off_c, 0, 76, 0
2, 8880, Note_on_c, 0, 75, 88
2, 8999, Note_off_c, 0, 75, 0
2, 9000, Note_on_c, 0, 73, 88
2, 9119, Note_off_c, 0, 73, 0
2, 9120, Note_on_c, 0, 71, 88
2, 9239, Note_off_c, 0, 71, 0
2, 9240, Note_on_c, 0, 70, 88
2, 9359, Note_off_c, 0, 70, 0
2, 9360, Note_on_c, 0, 71, 88
2, 9599, Note_off_c, 0, 71, 0
2, 9600, Note_on_c, 0, 75, 88
2, 9719, Note_off_c, 0, 75, 0
2, 9720, Note_on_c, 0, 80, 88
2, 10319, Note_off_c, 0, 80, 0
2, 10320, Note_on_c, 0, 79, 88
2, 10439, Note_off_c, 0, 79, 0
2, 10440, Note_on_c, 0, 80, 88
2, 10679, Note_off_c, 0, 80, 0
2, 10680, Note_on_c, 0, 83, 88
2, 10799, Note_off_c, 0, 83, 0
2, 10800, Note_on_c, 0, 73, 88
2, 11039, Note_off_c, 0, 73, 0
2, 11040, Note_on_c, 0, 75, 88
2, 11159, Note_off_c, 0, 75, 0
2, 11160, Note_on_c, 0, 76, 88
2, 11279, Note_off_c, 0, 76, 0
2, 11280, Note_on_c, 0, 75, 88
2, 11399, Note_off_c, 0, 75, 0
2, 11400, Note_on_c, 0, 73, 88
2, 11519, Note_off_c, 0, 73, 0
2, 11520, Note_on_c, 0, 75, 88
2, 11879, Note_off_c, 0, 75, 0
2, 11880, Note_on_c, 0, 73, 88
2, 12239, Note_off_c, 0, 73, 0
2, 12240, Note_on_c, 0, 71, 88
2, 12599, Note_off_c, 0, 71, 0
2, 12600, Note_on_c, 0, 70, 88
2, 12959, Note_off_c, 0, 70, 0
2, 12960, Note_on_c, 0, 68, 88
2, 13919, Note_off_c, 0, 68, 0
2, 13920, Note_on_c, 0, 75, 88
2, 14039, Note_off_c, 0, 75, 0
2, 14040, Note_on_c, 0, 75, 88
2, 14279, Note_off_c, 0, 75, 0
2, 14280, Note_on_c, 0, 74, 88
2, 14399, Note_off_c, 0, 74, 0
2, 14400, Note_on_c, 0, 75, 88
2, 15359, Note_off_c, 0, 75, 0
2, 15360, Note_on_c, 0, 76, 88
2, 15479, Note_off_c, 0, 76, 0
2, 15480, Note_on_c, 0, 75, 88
2, 15719, Note_off_c, 0, 75, 0
2, 15720, Note_on_c, 0, 73, 88
2, 15839, Note_off_c, 0, 73, 0
2, 15840, Note_on_c, 0, 71, 88
2, 16079, Note_off_c, 0, 71, 0
2, 16080, Note_on_c, 0, 68, 88
2, 16199, Note_off_c, 0, 68, 0
2, 16200, Note_on_c, 0, 70, 88
2, 16439, Note_off_c, 0, 70, 0
2, 16440, Note_on_c, 0, 72, 88
2, 16559, Note_off_c, 0, 72, 0
2, 16560, Note_on_c, 0, 73, 88
2, 16679, Note_off_c, 0, 73, 0
2, 16680, Note_on_c, 0, 68, 88
2, 16799, Note_off_c, 0, 68, 0
2, 16800, Note_on_c, 0, 73, 88
2, 17039, Note_off_c, 0, 73, 0
2, 17040, Note_on_c, 0, 70, 88
2, 17159, Note_off_c, 0, 70, 0
2, 17160, Note_on_c, 0, 72, 88
2, 17279, Note_off_c, 0, 72, 0
2, 17280, Note_on_c, 0, 76, 88
2, 17639, Note_off_c, 0, 76, 0
2, 17640, Note_on_c, 0, 75, 88
2, 18119, Note_off_c, 0, 75, 0
2, 18120, Note_on_c, 0, 73, 88
2, 18239, Note_off_c, 0, 73, 0
2, 18240, Note_on_c, 0, 81, 88
2, 18479, Note_off_c, 0, 81, 0
2, 18480, Note_on_c, 0, 79, 88
2, 18599, Note_off_c, 0, 79, 0
2, 18600, Note_on_c, 0, 80, 88
2, 18719, Note_off_c, 0, 80, 0
2, 18720, Note_on_c, 0, 73, 88
2, 19439, Note_off_c, 0, 73, 0
2, 19440, Note_on_c, 0, 71, 88
2, 20159, Note_off_c, 0, 71, 0
2, 20160, Note_on_c, 0, 70, 88
2, 20759, Note_off_c, 0, 70, 0
2, 20760, Note_on_c, 0, 74, 88
2, 20879, Note_off_c, 0, 74, 0
2, 20880, Note_on_c, 0, 75, 88
2, 20999, Note_off_c, 0, 75, 0
2, 21000, Note_on_c, 0, 77, 88
2, 21119, Note_off_c, 0, 77, 0
2, 21120, Note_on_c, 0, 78, 88
2, 21359, Note_off_c, 0, 78, 0
2, 21360, Note_on_c, 0, 77, 88
2, 21479, Note_off_c, 0, 77, 0
2, 21480, Note_on_c, 0, 80, 88
2, 21599, Note_off_c, 0, 80, 0
2, 21600, Note_on_c, 0, 74, 88
2, 21719, Note_off_c, 0, 74, 0
2, 21720, Note_on_c, 0, 77, 88
2, 21839, Note_off_c, 0, 77, 0
2, 21840, Note_on_c, 0, 70, 88
2, 21959, Note_off_c, 0, 70, 0
2, 21960, Note_on_c, 0, 75, 88
2, 22679, Note_off_c, 0, 75, 0
2, 22680, Note_on_c, 0, 75, 88
2, 22724, Note_off_c, 0, 75, 0
2, 22725, Note_on_c, 0, 74, 88
2, 22769, Note_off_c, 0, 74, 0
2, 22770, Note_on_c, 0, 75, 88
2, 22814, Note_off_c, 0, 75, 0
2, 22815, Note_on_c, 0, 74, 88
2, 22859, Note_off_c, 0, 74, 0
2, 22860, Note_on_c, 0, 75, 88
2, 22904, Note_off_c, 0, 75, 0
2, 22905, Note_on_c, 0, 74, 88
2, 22949, Note_off_c, 0, 74, 0
2, 22950, Note_on_c, 0, 72, 88
2, 22994, Note_off_c, 0, 72, 0
2, 22995, Note_on_c, 0, 74, 88
2, 23039, Note_off_c, 0, 74, 0
2, 23040, Note_on_c, 0, 75, 88
2, 23399, Note_off_c, 0, 75, 0
2, 23400, Note_on_c, 0, 68, 88
2, 23759, Note_off_c, 0, 68, 0
2, 23760, Note_on_c, 0, 66, 88
2, 26519, Note_off_c, 0, 66, 0
2, 26520, Note_on_c, 0, 64, 88
2, 26639, Note_off_c, 0, 64, 0
2, 26640, Note_on_c, 0, 66, 88
2, 26759, Note_off_c, 0, 66, 0
2, 26760, Note_on_c, 0, 69, 88
2, 26879, Note_off_c, 0, 69, 0
2, 26880, Note_on_c, 0, 68, 88
2, 26999, Note_off_c, 0, 68, 0
2, 27000, Note_on_c, 0, 69, 88
2, 27119, Note_off_c, 0, 69, 0
2, 27120, Note_on_c, 0, 68, 88
2, 27239, Note_off_c, 0, 68, 0
2, 27240, Note_on_c, 0, 66, 88
2, 27359, Note_off_c, 0, 66, 0
2, 27360, Note_on_c, 0, 64, 88
2, 27479, Note_off_c, 0, 64, 0
2, 27480, Note_on_c, 0, 68, 88
2, 27539, Note_off_c, 0, 68, 0
2, 27540, Note_on_c, 0, 66, 88
2, 27599, Note_off_c, 0, 66, 0
2, 27600, Note_on_c, 0, 68, 88
2, 27659, Note_off_c, 0, 68, 0
2, 27660, Note_on_c, 0, 70, 88
2, 27719, Note_off_c, 0, 70, 0
2, 27720, Note_on_c, 0, 71, 88
2, 28439, Note_off_c, 0, 71, 0
2, 28440, Note_on_c, 0, 71, 88
2, 28484, Note_off_c, 0, 71, 0
2, 28485, Note_on_c, 0, 70, 88
2, 28529, Note_off_c, 0, 70, 0
2, 28530, Note_on_c, 0, 71, 88
2, 28574, Note_off_c, 0, 71, 0
2, 28575, Note_on_c, 0, 70, 88
2, 28619, Note_off_c, 0, 70, 0
2, 28620, Note_on_c, 0, 71, 88
2, 28664, Note_off_c, 0, 71, 0
2, 28665, Note_on_c, 0, 70, 88
2, 28709, Note_off_c, 0, 70, 0
2, 28710, Note_on_c, 0, 68, 88
2, 28754, Note_off_c, 0, 68, 0
2, 28755, Note_on_c, 0, 70, 88
2, 28799, Note_off_c, 0, 70, 0
2, 28800, Note_on_c, 0, 71, 88
2, 29159, Note_off_c, 0, 71, 0
2, 29160, Note_on_c, 0, 73, 88
2, 29519, Note_off_c, 0, 73, 0
2, 29520, Note_on_c, 0, 75, 88
2, 29879, Note_off_c, 0, 75, 0
2, 29880, Note_on_c, 0, 76, 88
2, 29999, Note_off_c, 0, 76, 0
2, 30000, Note_on_c, 0, 75, 88
2, 30119, Note_off_c, 0, 75, 0
2, 30120, Note_on_c, 0, 73, 88
2, 30239, Note_off_c, 0, 73, 0
2, 30240, Note_on_c, 0, 71, 88
2, 30359, Note_off_c, 0, 71, 0
2, 30360, Note_on_c, 0, 75, 88
2, 30479, Note_off_c, 0, 75, 0
2, 30480, Note_on_c, 0, 78, 88
2, 30719, Note_off_c, 0, 78, 0
2, 30720, Note_on_c, 0, 75, 88
2, 30839, Note_off_c, 0, 75, 0
2, 30840, Note_on_c, 0, 77, 88
2, 31079, Note_off_c, 0, 77, 0
2, 31080, Note_on_c, 0, 70, 88
2, 31199, Note_off_c, 0, 70, 0
2, 31200, Note_on_c, 0, 75, 88
2, 31439, Note_off_c, 0, 75, 0
2, 31440, Note_on_c, 0, 72, 88
2, 31559, Note_off_c, 0, 72, 0
2, 31560, Note_on_c, 0, 74, 88
2, 31679, Note_off_c, 0, 74, 0
2, 31680, Note_on_c, 0, 75, 88
2, 31799, Note_off_c, 0, 75, 0
2, 31800, Note_on_c, 0, 77, 88
2, 31919, Note_off_c, 0, 77, 0
2, 31920, Note_on_c, 0, 78, 88
2, 32039, Note_off_c, 0, 78, 0
2, 32040, Note_on_c, 0, 77, 88
2, 32159, Note_off_c, 0, 77, 0
2, 32160, Note_on_c, 0, 82, 88
2, 32279, Note_off_c, 0, 82, 0
2, 32280, Note_on_c, 0, 70, 88
2, 32399, Note_off_c, 0, 70, 0
2, 32400, Note_on_c, 0, 75, 88
2, 32519, Note_off_c, 0, 75, 0
2, 32520, Note_on_c, 0, 78, 88
2, 32639, Note_off_c, 0, 78, 0
2, 32640, Note_on_c, 0, 77, 88
2, 32759, Note_off_c, 0, 77, 0
2, 32760, Note_on_c, 0, 78, 88
2, 32879, Note_off_c, 0, 78, 0
2, 32880, Note_on_c, 0, 77, 88
2, 32999, Note_off_c, 0, 77, 0
2, 33000, Note_on_c, 0, 75, 88
2, 33119, Note_off_c, 0, 75, 0
2, 33120, Note_on_c, 0, 77, 88
2, 33239, Note_off_c, 0, 77, 0
2, 33240, Note_on_c, 0, 78, 88
2, 33359, Note_off_c, 0, 78, 0
2, 33360, Note_on_c, 0, 80, 88
2, 33479, Note_off_c, 0, 80, 0
2, 33480, Note_on_c, 0, 78, 88
2, 33599, Note_off_c, 0, 78, 0
2, 33600, Note_on_c, 0, 83, 88
2, 33719, Note_off_c, 0, 83, 0
2, 33720, Note_on_c, 0, 75, 88
2, 33839, Note_off_c, 0, 75, 0
2, 33840, Note_on_c, 0, 77, 88
2, 33959, Note_off_c, 0, 77, 0
2, 33960, Note_on_c, 0, 80, 88
2, 34079, Note_off_c, 0, 80, 0
2, 34080, Note_on_c, 0, 78, 88
2, 34199, Note_off_c, 0, 78, 0
2, 34200, Note_on_c, 0, 80, 88
2, 34319, Note_off_c, 0, 80, 0
2, 34320, Note_on_c, 0, 78, 88
2, 34439, Note_off_c, 0, 78, 0
2, 34440, Note_on_c, 0, 77, 88
2, 34559, Note_off_c, 0, 77, 0
2, 34560, Note_on_c, 0, 78, 88
2, 34799, Note_off_c, 0, 78, 0
2, 34800, Note_on_c, 0, 79, 88
2, 34919, Note_off_c, 0, 79, 0
2, 34920, Note_on_c, 0, 80, 88
2, 35159, Note_off_c, 0, 80, 0
2, 35160, Note_on_c, 0, 78, 88
2, 35279, Note_off_c, 0, 78, 0
2, 35280, Note_on_c, 0, 76, 88
2, 35519, Note_off_c, 0, 76, 0
2, 35520, Note_on_c, 0, 77, 88
2, 35639, Note_off_c, 0, 77, 0
2, 35640, Note_on_c, 0, 78, 88
2, 35879, Note_off_c, 0, 78, 0
2, 35880, Note_on_c, 0, 76, 88
2, 35999, Note_off_c, 0, 76, 0
2, 36000, Note_on_c, 0, 75, 88
2, 36359, Note_off_c, 0, 75, 0
2, 36360, Note_on_c, 0, 73, 88
2, 36959, Note_off_c, 0, 73, 0
2, 36960, Note_on_c, 0, 71, 88
2, 37199, Note_off_c, 0, 71, 0
2, 37200, Note_on_c, 0, 70, 88
2, 37319, Note_off_c, 0, 70, 0
2, 37320, Note_on_c, 0, 73, 88
2, 37439, Note_off_c, 0, 73, 0
2, 37440, Note_on_c, 0, 67, 88
2, 37679, Note_off_c, 0, 67, 0
2, 37680, Note_on_c, 0, 70, 88
2, 37919, Note_off_c, 0, 70, 0
2, 37920, Note_on_c, 0, 63, 88
2, 38039, Note_off_c, 0, 63, 0
2, 38040, Note_on_c, 0, 68, 88
2, 38399, Note_off_c, 0, 68, 0
2, 38400, Note_on_c, 0, 73, 88
2, 38519, Note_off_c, 0, 73, 0
2, 38520, Note_on_c, 0, 68, 88
2, 38564, Note_off_c, 0, 68, 0
2, 38565, Note_on_c, 0, 67, 88
2, 38609, Note_off_c, 0, 67, 0
2, 38610, Note_on_c, 0, 68, 88
2, 38654, Note_off_c, 0, 68, 0
2, 38655, Note_on_c, 0, 67, 88
2, 38699, Note_off_c, 0, 67, 0
2, 38700, Note_on_c, 0, 68, 88
2, 38744, Note_off_c, 0, 68, 0
2, 38745, Note_on_c, 0, 67, 88
2, 38789, Note_off_c, 0, 67, 0
2, 38790, Note_on_c, 0, 68, 88
2, 38834, Note_off_c, 0, 68, 0
2, 38835, Note_on_c, 0, 67, 88
2, 38879, Note_off_c, 0, 67, 0
2, 38880, Note_on_c, 0, 68, 88
2, 39119, Note_off_c, 0, 68, 0
2, 39120, Note_on_c, 0, 63, 88
2, 39239, Note_off_c, 0, 63, 0
2, 39240, Note_on_c, 0, 61, 88
2, 39359, Note_off_c, 0, 61, 0
2, 39360, Note_on_c, 0, 59, 88
2, 39479, Note_off_c, 0, 59, 0
2, 39480, Note_on_c, 0, 58, 88
2, 39599, Note_off_c, 0, 58, 0
2, 39600, Note_on_c, 0, 59, 88
2, 40199, Note_off_c, 0, 59, 0
2, 40200, Note_on_c, 0, 71, 88
2, 40319, Note_off_c, 0, 71, 0
2, 40320, Note_on_c, 0, 73, 88
2, 40439, Note_off_c, 0, 73, 0
2, 40440, Note_on_c, 0, 75, 88
2, 40559, Note_off_c, 0, 75, 0
2, 40560, Note_on_c, 0, 76, 88
2, 40679, Note_off_c, 0, 76, 0
2, 40680, Note_on_c, 0, 75, 88
2, 40799, Note_off_c, 0, 75, 0
2, 40800, Note_on_c, 0, 73, 88
2, 40919, Note_off_c, 0, 73, 0
2, 40920, Note_on_c, 0, 71, 88
2, 41039, Note_off_c, 0, 71, 0
2, 41040, Note_on_c, 0, 73, 88
2, 41159, Note_off_c, 0, 73, 0
2, 41160, Note_on_c, 0, 70, 88
2, 41639, Note_off_c, 0, 70, 0
2, 41640, Note_on_c, 0, 75, 88
2, 41759, Note_off_c, 0, 75, 0
2, 41760, Note_on_c, 0, 75, 88
2, 42839, Note_off_c, 0, 75, 0
2, 42840, Note_on_c, 0, 74, 88
2, 43199, Note_off_c, 0, 74, 0
2, 43200, Note_on_c, 0, 75, 88
2, 43439, Note_off_c, 0, 75, 0
2, 43440, Note_on_c, 0, 75, 88
2, 43559, Note_off_c, 0, 75, 0
2, 43560, Note_on_c, 0, 74, 88
2, 43799, Note_off_c, 0, 74, 0
2, 43800, Note_on_c, 0, 73, 88
2, 43919, Note_off_c, 0, 73, 0
2, 43920, Note_on_c, 0, 72, 88
2, 44159, Note_off_c, 0, 72, 0
2, 44160, Note_on_c, 0, 71, 88
2, 44279, Note_off_c, 0, 71, 0
2, 44280, Note_on_c, 0, 70, 88
2, 44519, Note_off_c, 0, 70, 0
2, 44520, Note_on_c, 0, 72, 88
2, 44639, Note_off_c, 0, 72, 0
2, 44640, Note_on_c, 0, 73, 88
2, 44879, Note_off_c, 0, 73, 0
2, 44880, Note_on_c, 0, 74, 88
2, 44999, Note_off_c, 0, 74, 0
2, 45000, Note_on_c, 0, 75, 88
2, 45719, Note_off_c, 0, 75, 0
2, 45720, Note_on_c, 0, 75, 88
2, 45764, Note_off_c, 0, 75, 0
2, 45765, Note_on_c, 0, 74, 88
2, 45809, Note_off_c, 0, 74, 0
2, 45810, Note_on_c, 0, 75, 88
2, 45854, Note_off_c, 0, 75, 0
2, 45855, Note_on_c, 0, 74, 88
2, 45899, Note_off_c, 0, 74, 0
2, 45900, Note_on_c, 0, 75, 88
2, 45944, Note_off_c, 0, 75, 0
2, 45945, Note_on_c, 0, 74, 88
2, 45989, Note_off_c, 0, 74, 0
2, 45990, Note_on_c, 0, 72, 88
2, 46034, Note_off_c, 0, 72, 0
2, 46035, Note_on_c, 0, 74, 88
2, 46079, Note_off_c, 0, 74, 0
2, 46080, Note_on_c, 0, 75, 88
2, 46319, Note_off_c, 0, 75, 0
2, 46320, Note_on_c, 0, 73, 88
2, 46439, Note_off_c, 0, 73, 0
2, 46440, Note_on_c, 0, 71, 88
2, 46679, Note_off_c, 0, 71, 0
2, 46680, Note_on_c, 0, 70, 88
2, 46799, Note_off_c, 0, 70, 0
2, 46800, Note_on_c, 0, 68, 88
2, 47039, Note_off_c, 0, 68, 0
2, 47040, Note_on_c, 0, 73, 88
2, 47279, Note_off_c, 0, 73, 0
2, 47280, Note_on_c, 0, 70, 88
2, 47399, Note_off_c, 0, 70, 0
2, 47400, Note_on_c, 0, 72, 88
2, 47519, Note_off_c, 0, 72, 0
2, 47520, Note_on_c, 0, 73, 88
2, 47639, Note_off_c, 0, 73, 0
2, 47640, Note_on_c, 0, 68, 88
2, 47759, Note_off_c, 0, 68, 0
2, 47760, Note_on_c, 0, 70, 88
2, 47879, Note_off_c, 0, 70, 0
2, 47880, Note_on_c, 0, 71, 88
2, 47999, Note_off_c, 0, 71, 0
2, 48000, Note_on_c, 0, 73, 88
2, 48119, Note_off_c, 0, 73, 0
2, 48120, Note_on_c, 0, 71, 88
2, 48239, Note_off_c, 0, 71, 0
2, 48240, Note_on_c, 0, 70, 88
2, 48359, Note_off_c, 0, 70, 0
2, 48360, Note_on_c, 0, 75, 88
2, 48479, Note_off_c, 0, 75, 0
2, 48480, Note_on_c, 0, 73, 88
2, 48599, Note_off_c, 0, 73, 0
2, 48600, Note_on_c, 0, 71, 88
2, 48719, Note_off_c, 0, 71, 0
2, 48720, Note_on_c, 0, 76, 88
2, 48839, Note_off_c, 0, 76, 0
2, 48840, Note_on_c, 0, 75, 88
2, 48959, Note_off_c, 0, 75, 0
2, 48960, Note_on_c, 0, 73, 88
2, 49079, Note_off_c, 0, 73, 0
2, 49080, Note_on_c, 0, 75, 88
2, 49199, Note_off_c, 0, 75, 0
2, 49200, Note_on_c, 0, 76, 88
2, 49319, Note_off_c, 0, 76, 0
2, 49320, Note_on_c, 0, 70, 88
2, 49439, Note_off_c, 0, 70, 0
2, 49440, Note_on_c, 0, 75, 88
2, 49559, Note_off_c, 0, 75, 0
2, 49560, Note_on_c, 0, 73, 88
2, 49679, Note_off_c, 0, 73, 0
2, 49680, Note_on_c, 0, 71, 88
2, 49799, Note_off_c, 0, 71, 0
2, 49800, Note_on_c, 0, 73, 88
2, 49919, Note_off_c, 0, 73, 0
2, 49920, Note_on_c, 0, 75, 88
2, 50039, Note_off_c, 0, 75, 0
2, 50040, Note_on_c, 0, 68, 88
2, 50159, Note_off_c, 0, 68, 0
2, 50160, Note_on_c, 0, 73, 88
2, 50279, Note_off_c, 0, 73, 0
2, 50280, Note_on_c, 0, 75, 88
2, 50399, Note_off_c, 0, 75, 0
2, 50400, Note_on_c, 0, 76, 88
2, 50759, Note_off_c, 0, 76, 0
2, 50760, Note_on_c, 0, 75, 88
2, 51119, Note_off_c, 0, 75, 0
2, 51120, Note_on_c, 0, 73, 88
2, 51479, Note_off_c, 0, 73, 0
2, 51480, Note_on_c, 0, 71, 88
2, 51599, Note_off_c, 0, 71, 0
2, 51600, Note_on_c, 0, 80, 88
2, 51839, Note_off_c, 0, 80, 0
2, 51840, Note_on_c, 0, 78, 88
2, 51959, Note_off_c, 0, 78, 0
2, 51960, Note_on_c, 0, 76, 88
2, 52079, Note_off_c, 0, 76, 0
2, 52080, Note_on_c, 0, 75, 88
2, 52319, Note_off_c, 0, 75, 0
2, 52320, Note_on_c, 0, 73, 88
2, 52379, Note_off_c, 0, 73, 0
2, 52380, Note_on_c, 0, 72, 88
2, 52439, Note_off_c, 0, 72, 0
2, 52440, Note_on_c, 0, 73, 88
2, 52559, Note_off_c, 0, 73, 0
2, 52560, Note_on_c, 0, 75, 88
2, 53399, Note_off_c, 0, 75, 0
2, 53400, Note_on_c, 0, 68, 88
2, 53519, Note_off_c, 0, 68, 0
2, 53520, Note_on_c, 0, 73, 88
2, 53759, Note_off_c, 0, 73, 0
2, 53760, Note_on_c, 0, 71, 88
2, 53819, Note_off_c, 0, 71, 0
2, 53820, Note_on_c, 0, 70, 88
2, 53879, Note_off_c, 0, 70, 0
2, 53880, Note_on_c, 0, 71, 88
2, 53999, Note_off_c, 0, 71, 0
2, 54000, Note_on_c, 0, 70, 88
2, 54959, Note_off_c, 0, 70, 0
2, 54960, Note_on_c, 0, 68, 88
2, 55079, Note_off_c, 0, 68, 0
2, 55080, Note_on_c, 0, 73, 88
2, 55439, Note_off_c, 0, 73, 0
2, 55440, Note_on_c, 0, 71, 88
2, 55799, Note_off_c, 0, 71, 0
2, 55800, Note_on_c, 0, 70, 88
2, 56279, Note_off_c, 0, 70, 0
2, 56280, Note_on_c, 0, 68, 88
2, 56399, Note_off_c, 0, 68, 0
2, 56400, Note_on_c, 0, 80, 88
2, 56519, Note_off_c, 0, 80, 0
2, 56520, Note_on_c, 0, 79, 88
2, 56759, Note_off_c, 0, 79, 0
2, 56760, Note_on_c, 0, 78, 88
2, 56879, Note_off_c, 0, 78, 0
2, 56880, Note_on_c, 0, 77, 88
2, 57119, Note_off_c, 0, 77, 0
2, 57120, Note_on_c, 0, 76, 88
2, 57239, Note_off_c, 0, 76, 0
2, 57240, Note_on_c, 0, 75, 88
2, 57479, Note_off_c, 0, 75, 0
2, 57480, Note_on_c, 0, 77, 88
2, 57599, Note_off_c, 0, 77, 0
2, 57600, Note_on_c, 0, 78, 88
2, 57839, Note_off_c, 0, 78, 0
2, 57840, Note_on_c, 0, 79, 88
2, 57959, Note_off_c, 0, 79, 0
2, 57960, Note_on_c, 0, 80, 88
2, 58679, Note_off_c, 0, 80, 0
2, 58680, Note_on_c, 0, 79, 88
2, 59159, Note_off_c, 0, 79, 0
2, 59160, Note_on_c, 0, 77, 88
2, 59279, Note_off_c, 0, 77, 0
2, 59280, Note_on_c, 0, 79, 88
2, 59399, Note_off_c, 0, 79, 0
2, 59400, Note_on_c, 0, 80, 88
2, 59639, Note_off_c, 0, 80, 0
2, 59640, Note_on_c, 0, 81, 88
2, 59759, Note_off_c, 0, 81, 0
2, 59760, Note_on_c, 0, 82, 88
2, 60599, Note_off_c, 0, 82, 0
2, 60600, Note_on_c, 0, 78, 88
2, 60719, Note_off_c, 0, 78, 0
2, 60720, Note_on_c, 0, 80, 88
2, 60839, Note_off_c, 0, 80, 0
2, 60840, Note_on_c, 0, 82, 88
2, 61319, Note_off_c, 0, 82, 0
2, 61320, Note_on_c, 0, 80, 88
2, 61679, Note_off_c, 0, 80, 0
2, 61680, Note_on_c, 0, 77, 88
2, 61799, Note_off_c, 0, 77, 0
2, 61800, Note_on_c, 0, 78, 88
2, 61919, Note_off_c, 0, 78, 0
2, 61920, Note_on_c, 0, 77, 88
2, 62159, Note_off_c, 0, 77, 0
2, 62160, Note_on_c, 0, 78, 88
2, 62279, Note_off_c, 0, 78, 0
2, 62280, Note_on_c, 0, 80, 88
2, 62759, Note_off_c, 0, 80, 0
2, 62760, Note_on_c, 0, 78, 88
2, 63119, Note_off_c, 0, 78, 0
2, 63120, Note_on_c, 0, 75, 88
2, 63239, Note_off_c, 0, 75, 0
2, 63240, Note_on_c, 0, 76, 88
2, 63359, Note_off_c, 0, 76, 0
2, 63360, Note_on_c, 0, 75, 88
2, 63599, Note_off_c, 0, 75, 0
2, 63600, Note_on_c, 0, 73, 88
2, 63719, Note_off_c, 0, 73, 0
2, 63720, Note_on_c, 0, 71, 88
2, 64079, Note_off_c, 0, 71, 0
2, 64080, Note_on_c, 0, 70, 88
2, 64319, Note_off_c, 0, 70, 0
2, 64320, Note_on_c, 0, 72, 88
2, 64439, Note_off_c, 0, 72, 0
2, 64440, Note_on_c, 0, 73, 88
2, 64499, Note_off_c, 0, 73, 0
2, 64500, Note_on_c, 0, 75, 88
2, 64559, Note_off_c, 0, 75, 0
2, 64560, Note_on_c, 0, 76, 88
2, 64679, Note_off_c, 0, 76, 0
2, 64680, Note_on_c, 0, 75, 88
2, 64799, Note_off_c, 0, 75, 0
2, 64800, Note_on_c, 0, 68, 88
2, 65159, Note_off_c, 0, 68, 0
2, 65160, Note_on_c, 0, 73, 88
2, 65639, Note_off_c, 0, 73, 0
2, 65640, Note_on_c, 0, 71, 88
2, 65759, Note_off_c, 0, 71, 0
2, 65760, Note_on_c, 0, 73, 88
2, 65879, Note_off_c, 0, 73, 0
2, 65880, Note_on_c, 0, 75, 88
2, 65939, Note_off_c, 0, 75, 0
2, 65940, Note_on_c, 0, 73, 88
2, 65999, Note_off_c, 0, 73, 0
2, 66000, Note_on_c, 0, 71, 88
2, 66059, Note_off_c, 0, 71, 0
2, 66060, Note_on_c, 0, 70, 88
2, 66119, Note_off_c, 0, 70, 0
2, 66120, Note_on_c, 0, 71, 88
2, 66179, Note_off_c, 0, 71, 0
2, 66180, Note_on_c, 0, 76, 88
2, 66239, Note_off_c, 0, 76, 0
2, 66240, Note_on_c, 0, 70, 88
2, 66599, Note_off_c, 0, 70, 0
2, 66600, Note_on_c, 0, 76, 88
2, 66839, Note_off_c, 0, 76, 0
2, 66840, Note_on_c, 0, 82, 88
2, 66959, Note_off_c, 0, 82, 0
2, 66960, Note_on_c, 0, 75, 88
2, 67199, Note_off_c, 0, 75, 0
2, 67200, Note_on_c, 0, 80, 88
2, 67319, Note_off_c, 0, 80, 0
2, 67320, Note_on_c, 0, 73, 88
2, 67499, Note_off_c, 0, 73, 0
2, 67500, Note_on_c, 0, 76, 88
2, 67559, Note_off_c, 0, 76, 0
2, 67560, Note_on_c, 0, 75, 88
2, 67619, Note_off_c, 0, 75, 0
2, 67620, Note_on_c, 0, 73, 88
2, 67679, Note_off_c, 0, 73, 0
2, 67680, Note_on_c, 0, 71, 88
2, 68159, Note_off_c, 0, 71, 0
2, 68160, Note_on_c, 0, 70, 88
2, 68219, Note_off_c, 0, 70, 0
2, 68220, Note_on_c, 0, 68, 88
2, 68279, Note_off_c, 0, 68, 0
2, 68280, Note_on_c, 0, 67, 88
2, 68339, Note_off_c, 0, 67, 0
2, 68340, Note_on_c, 0, 65, 88
2, 68399, Note_off_c, 0, 65, 0
2, 68400, Note_on_c, 0, 63, 88
2, 68519, Note_off_c, 0, 63, 0
2, 68520, Note_on_c, 0, 75, 88
2, 68639, Note_off_c, 0, 75, 0
2, 68640, Note_on_c, 0, 68, 88
2, 68879, Note_off_c, 0, 68, 0
2, 68880, Note_on_c, 0, 67, 88
2, 68999, Note_off_c, 0, 67, 0
2, 69000, Note_on_c, 0, 73, 88
2, 69119, Note_off_c, 0, 73, 0
2, 69120, Note_on_c, 0, 71, 88
2, 73439, Note_off_c, 0, 71, 0
2, 73440, Note_on_c, 0, 75, 88
2, 73559, Note_off_c, 0, 75, 0
2, 73560, Note_on_c, 0, 77, 88
2, 73679, Note_off_c, 0, 77, 0
2, 73680, Note_on_c, 0, 78, 88
2, 73799, Note_off_c, 0, 78, 0
2, 73800, Note_on_c, 0, 77, 88
2, 73919, Note_off_c, 0, 77, 0
2, 73920, Note_on_c, 0, 82, 88
2, 74039, Note_off_c, 0, 82, 0
2, 74040, Note_on_c, 0, 70, 88
2, 74159, Note_off_c, 0, 70, 0
2, 74160, Note_on_c, 0, 75, 88
2, 74279, Note_off_c, 0, 75, 0
2, 74280, Note_on_c, 0, 78, 88
2, 74399, Note_off_c, 0, 78, 0
2, 74400, Note_on_c, 0, 77, 88
2, 74519, Note_off_c, 0, 77, 0
2, 74520, Note_on_c, 0, 78, 88
2, 74639, Note_off_c, 0, 78, 0
2, 74640, Note_on_c, 0, 77, 88
2, 74759, Note_off_c, 0, 77, 0
2, 74760, Note_on_c, 0, 75, 88
2, 74879, Note_off_c, 0, 75, 0
2, 74880, Note_on_c, 0, 77, 88
2, 74999, Note_off_c, 0, 77, 0
2, 75000, Note_on_c, 0, 78, 88
2, 75119, Note_off_c, 0, 78, 0
2, 75120, Note_on_c, 0, 80, 88
2, 75239, Note_off_c, 0, 80, 0
2, 75240, Note_on_c, 0, 78, 88
2, 75359, Note_off_c, 0, 78, 0
2, 75360, Note_on_c, 0, 83, 88
2, 75479, Note_off_c, 0, 83, 0
2, 75480, Note_on_c, 0, 75, 88
2, 75599, Note_off_c, 0, 75, 0
2, 75600, Note_on_c, 0, 77, 88
2, 75719, Note_off_c, 0, 77, 0
2, 75720, Note_on_c, 0, 80, 88
2, 75839, Note_off_c, 0, 80, 0
2, 75840, Note_on_c, 0, 78, 88
2, 75959, Note_off_c, 0, 78, 0
2, 75960, Note_on_c, 0, 80, 88
2, 76079, Note_off_c, 0, 80, 0
2, 76080, Note_on_c, 0, 78, 88
2, 76199, Note_off_c, 0, 78, 0
2, 76200, Note_on_c, 0, 77, 88
2, 76319, Note_off_c, 0, 77, 0
2, 76320, Note_on_c, 0, 78, 88
2, 76679, Note_off_c, 0, 78, 0
2, 76680, Note_on_c, 0, 77, 88
2, 76919, Note_off_c, 0, 77, 0
2, 76920, Note_on_c, 0, 76, 88
2, 77039, Note_off_c, 0, 76, 0
2, 77040, Note_on_c, 0, 75, 88
2, 77399, Note_off_c, 0, 75, 0
2, 77400, Note_on_c, 0, 74, 88
2, 77639, Note_off_c, 0, 74, 0
2, 77640, Note_on_c, 0, 73, 88
2, 77759, Note_off_c, 0, 73, 0
2, 77760, Note_on_c, 0, 71, 88
2, 77879, Note_off_c, 0, 71, 0
2, 77880, Note_on_c, 0, 75, 88
2, 77999, Note_off_c, 0, 75, 0
2, 78000, Note_on_c, 0, 80, 88
2, 78239, Note_off_c, 0, 80, 0
2, 78240, Note_on_c, 0, 78, 88
2, 78299, Note_off_c, 0, 78, 0
2, 78300, Note_on_c, 0, 76, 88
2, 78359, Note_off_c, 0, 76, 0
2, 78360, Note_on_c, 0, 78, 88
2, 78599, Note_off_c, 0, 78, 0
2, 78600, Note_on_c, 0, 71, 88
2, 78719, Note_off_c, 0, 71, 0
2, 78720, Note_on_c, 0, 76, 88
2, 78959, Note_off_c, 0, 76, 0
2, 78960, Note_on_c, 0, 75, 88
2, 79019, Note_off_c, 0, 75, 0
2, 79020, Note_on_c, 0, 73, 88
2, 79079, Note_off_c, 0, 73, 0
2, 79080, Note_on_c, 0, 75, 88
2, 79199, Note_off_c, 0, 75, 0
2, 79200, Note_on_c, 0, 73, 88
2, 79319, Note_off_c, 0, 73, 0
2, 79320, Note_on_c, 0, 75, 88
2, 79439, Note_off_c, 0, 75, 0
2, 79440, Note_on_c, 0, 76, 88
2, 79559, Note_off_c, 0, 76, 0
2, 79560, Note_on_c, 0, 75, 88
2, 79799, Note_off_c, 0, 75, 0
2, 79800, Note_on_c, 0, 74, 88
2, 79919, Note_off_c, 0, 74, 0
2, 79920, Note_on_c, 0, 73, 88
2, 80159, Note_off_c, 0, 73, 0
2, 80160, Note_on_c, 0, 72, 88
2, 80279, Note_off_c, 0, 72, 0
2, 80280, Note_on_c, 0, 71, 88
2, 80519, Note_off_c, 0, 71, 0
2, 80520, Note_on_c, 0, 73, 88
2, 80639, Note_off_c, 0, 73, 0
2, 80640, Note_on_c, 0, 74, 88
2, 80879, Note_off_c, 0, 74, 0
2, 80880, Note_on_c, 0, 75, 88
2, 80999, Note_off_c, 0, 75, 0
2, 81000, Note_on_c, 0, 76, 88
2, 81719, Note_off_c, 0, 76, 0
2, 81720, Note_on_c, 0, 76, 88
2, 81764, Note_off_c, 0, 76, 0
2, 81765, Note_on_c, 0, 75, 88
2, 81809, Note_off_c, 0, 75, 0
2, 81810, Note_on_c, 0, 76, 88
2, 81854, Note_off_c, 0, 76, 0
2, 81855, Note_on_c, 0, 75, 88
2, 81899, Note_off_c, 0, 75, 0
2, 81900, Note_on_c, 0, 76, 88
2, 81944, Note_off_c, 0, 76, 0
2, 81945, Note_on_c, 0, 75, 88
2, 81989, Note_off_c, 0, 75, 0
2, 81990, Note_on_c, 0, 73, 88
2, 82034, Note_off_c, 0, 73, 0
2, 82035, Note_on_c, 0, 75, 88
2, 82079, Note_off_c, 0, 75, 0
2, 82080, Note_on_c, 0, 76, 88
2, 82319, Note_off_c, 0, 76, 0
2, 82320, Note_on_c, 0, 68, 88
2, 82439, Note_off_c, 0, 68, 0
2, 82440, Note_on_c, 0, 70, 88
2, 82679, Note_off_c, 0, 70, 0
2, 82680, Note_on_c, 0, 72, 88
2, 82799, Note_off_c, 0, 72, 0
2, 82800, Note_on_c, 0, 73, 88
2, 83039, Note_off_c, 0, 73, 0
2, 83040, Note_on_c, 0, 69, 88
2, 83159, Note_off_c, 0, 69, 0
2, 83160, Note_on_c, 0, 66, 88
2, 83399, Note_off_c, 0, 66, 0
2, 83400, Note_on_c, 0, 68, 88
2, 83519, Note_off_c, 0, 68, 0
2, 83520, Note_on_c, 0, 64, 88
2, 84839, Note_off_c, 0, 64, 0
2, 84840, Note_on_c, 0, 71, 88
2, 85079, Note_off_c, 0, 71, 0
2, 85080, Note_on_c, 0, 70, 88
2, 85199, Note_off_c, 0, 70, 0
2, 85200, Note_on_c, 0, 72, 88
2, 85319, Note_off_c, 0, 72, 0
2, 85320, Note_on_c, 0, 73, 88
2, 85799, Note_off_c, 0, 73, 0
2, 85800, Note_on_c, 0, 72, 88
2, 85919, Note_off_c, 0, 72, 0
2, 85920, Note_on_c, 0, 74, 88
2, 86039, Note_off_c, 0, 74, 0
2, 86040, Note_on_c, 0, 75, 88
2, 86519, Note_off_c, 0, 75, 0
2, 86520, Note_on_c, 0, 74, 88
2, 86639, Note_off_c, 0, 74, 0
2, 86640, Note_on_c, 0, 75, 88
2, 86759, Note_off_c, 0, 75, 0
2, 86760, Note_on_c, 0, 77, 88
2, 87239, Note_off_c, 0, 77, 0
2, 87240, Note_on_c, 0, 75, 88
2, 87299, Note_off_c, 0, 75, 0
2, 87300, Note_on_c, 0, 74, 88
2, 87359, Note_off_c, 0, 74, 0
2, 87360, Note_on_c, 0, 75, 88
2, 87599, Note_off_c, 0, 75, 0
2, 87600, Note_on_c, 0, 73, 88
2, 87659, Note_off_c, 0, 73, 0
2, 87660, Note_on_c, 0, 71, 88
2, 87719, Note_off_c, 0, 71, 0
2, 87720, Note_on_c, 0, 73, 88
2, 87959, Note_off_c, 0, 73, 0
2, 87960, Note_on_c, 0, 75, 88
2, 88079, Note_off_c, 0, 75, 0
2, 88080, Note_on_c, 0, 73, 88
2, 88199, Note_off_c, 0, 73, 0
2, 88200, Note_on_c, 0, 71, 88
2, 88319, Note_off_c, 0, 71, 0
2, 88320, Note_on_c, 0, 76, 88
2, 88439, Note_off_c, 0, 76, 0
2, 88440, Note_on_c, 0, 75, 88
2, 88559, Note_off_c, 0, 75, 0
2, 88560, Note_on_c, 0, 73, 88
2, 88679, Note_off_c, 0, 73, 0
2, 88680, Note_on_c, 0, 75, 88
2, 88799, Note_off_c, 0, 75, 0
2, 88800, Note_on_c, 0, 76, 88
2, 88919, Note_off_c, 0, 76, 0
2, 88920, Note_on_c, 0, 70, 88
2, 89039, Note_off_c, 0, 70, 0
2, 89040, Note_on_c, 0, 75, 88
2, 89159, Note_off_c, 0, 75, 0
2, 89160, Note_on_c, 0, 73, 88
2, 89279, Note_off_c, 0, 73, 0
2, 89280, Note_on_c, 0, 71, 88
2, 90239, Note_off_c, 0, 71, 0
2, 90240, Note_on_c, 0, 61, 88
2, 90359, Note_off_c, 0, 61, 0
2, 90360, Note_on_c, 0, 66, 88
2, 90599, Note_off_c, 0, 66, 0
2, 90600, Note_on_c, 0, 68, 88
2, 90839, Note_off_c, 0, 68, 0
2, 90840, Note_on_c, 0, 66, 88
2, 90959, Note_off_c, 0, 66, 0
2, 90960, Note_on_c, 0, 64, 88
2, 91079, Note_off_c, 0, 64, 0
2, 91080, Note_on_c, 0, 63, 88
2, 91199, Note_off_c, 0, 63, 0
2, 91200, Note_on_c, 0, 68, 88
2, 91319, Note_off_c, 0, 68, 0
2, 91320, Note_on_c, 0, 71, 88
2, 91439, Note_off_c, 0, 71, 0
2, 91440, Note_on_c, 0, 65, 88
2, 91799, Note_off_c, 0, 65, 0
2, 91800, Note_on_c, 0, 70, 88
2, 92399, Note_off_c, 0, 70, 0
2, 92400, Note_on_c, 0, 68, 88
2, 92759, Note_off_c, 0, 68, 0
2, 92760, Note_on_c, 0, 67, 88
2, 92879, Note_off_c, 0, 67, 0
2, 92880, Note_on_c, 0, 68, 88
2, 93359, Note_off_c, 0, 68, 0
2, 93360, Note_on_c, 0, 75, 88
2, 93479, Note_off_c, 0, 75, 0
2, 93480, Note_on_c, 0, 73, 88
2, 93599, Note_off_c, 0, 73, 0
2, 93600, Note_on_c, 0, 75, 88
2, 93719, Note_off_c, 0, 75, 0
2, 93720, Note_on_c, 0, 73, 88
2, 93839, Note_off_c, 0, 73, 0
2, 93840, Note_on_c, 0, 71, 88
2, 93959, Note_off_c, 0, 71, 0
2, 93960, Note_on_c, 0, 73, 88
2, 94079, Note_off_c, 0, 73, 0
2, 94080, Note_on_c, 0, 71, 88
2, 94199, Note_off_c, 0, 71, 0
2, 94200, Note_on_c, 0, 70, 88
2, 94319, Note_off_c, 0, 70, 0
2, 94320, Note_on_c, 0, 71, 88
2, 94799, Note_off_c, 0, 71, 0
2, 94800, Note_on_c, 0, 70, 88
2, 94919, Note_off_c, 0, 70, 0
2, 94920, Note_on_c, 0, 68, 88
2, 95039, Note_off_c, 0, 68, 0
2, 95040, Note_on_c, 0, 70, 88
2, 95519, Note_off_c, 0, 70, 0
2, 95520, Note_on_c, 0, 68, 88
2, 95639, Note_off_c, 0, 68, 0
2, 95640, Note_on_c, 0, 67, 88
2, 95759, Note_off_c, 0, 67, 0
2, 95760, Note_on_c, 0, 68, 88
2, 96239, Note_off_c, 0, 68, 0
2, 96240, Note_on_c, 0, 65, 88
2, 96359, Note_off_c, 0, 65, 0
2, 96360, Note_on_c, 0, 67, 88
2, 96479, Note_off_c, 0, 67, 0
2, 96480, Note_on_c, 0, 68, 88
2, 96599, Note_off_c, 0, 68, 0
2, 96600, Note_on_c, 0, 70, 88
2, 96719, Note_off_c, 0, 70, 0
2, 96720, Note_on_c, 0, 71, 88
2, 96839, Note_off_c, 0, 71, 0
2, 96840, Note_on_c, 0, 70, 88
2, 96959, Note_off_c, 0, 70, 0
2, 96960, Note_on_c, 0, 75, 88
2, 97079, Note_off_c, 0, 75, 0
2, 97080, Note_on_c, 0, 63, 88
2, 97199, Note_off_c, 0, 63, 0
2, 97200, Note_on_c, 0, 68, 88
2, 97319, Note_off_c, 0, 68, 0
2, 97320, Note_on_c, 0, 71, 88
2, 97439, Note_off_c, 0, 71, 0
2, 97440, Note_on_c, 0, 70, 88
2, 97559, Note_off_c, 0, 70, 0
2, 97560, Note_on_c, 0, 71, 88
2, 97679, Note_off_c, 0, 71, 0
2, 97680, Note_on_c, 0, 70, 88
2, 97799, Note_off_c, 0, 70, 0
2, 97800, Note_on_c, 0, 68, 88
2, 97919, Note_off_c, 0, 68, 0
2, 97920, Note_on_c, 0, 70, 88
2, 98039, Note_off_c, 0, 70, 0
2, 98040, Note_on_c, 0, 71, 88
2, 98159, Note_off_c, 0, 71, 0
2, 98160, Note_on_c, 0, 73, 88
2, 98279, Note_off_c, 0, 73, 0
2, 98280, Note_on_c, 0, 71, 88
2, 98399, Note_off_c, 0, 71, 0
2, 98400, Note_on_c, 0, 76, 88
2, 98519, Note_off_c, 0, 76, 0
2, 98520, Note_on_c, 0, 68, 88
2, 98639, Note_off_c, 0, 68, 0
2, 98640, Note_on_c, 0, 70, 88
2, 98759, Note_off_c, 0, 70, 0
2, 98760, Note_on_c, 0, 73, 88
2, 98879, Note_off_c, 0, 73, 0
2, 98880, Note_on_c, 0, 71, 88
2, 98999, Note_off_c, 0, 71, 0
2, 99000, Note_on_c, 0, 73, 88
2, 99119, Note_off_c, 0, 73, 0
2, 99120, Note_on_c, 0, 71, 88
2, 99239, Note_off_c, 0, 71, 0
2, 99240, Note_on_c, 0, 70, 88
2, 99359, Note_off_c, 0, 70, 0
2, 99360, Note_on_c, 0, 71, 88
2, 99479, Note_off_c, 0, 71, 0
2, 99480, Note_on_c, 0, 73, 88
2, 99599, Note_off_c, 0, 73, 0
2, 99600, Note_on_c, 0, 75, 88
2, 99839, Note_off_c, 0, 75, 0
2, 99840, Note_on_c, 0, 73, 88
2, 99959, Note_off_c, 0, 73, 0
2, 99960, Note_on_c, 0, 71, 88
2, 100079, Note_off_c, 0, 71, 0
2, 100080, Note_on_c, 0, 70, 88
2, 100199, Note_off_c, 0, 70, 0
2, 100200, Note_on_c, 0, 77, 88
2, 100319, Note_off_c, 0, 77, 0
2, 100320, Note_on_c, 0, 70, 88
2, 100439, Note_off_c, 0, 70, 0
2, 100440, Note_on_c, 0, 70, 88
2, 100919, Note_off_c, 0, 70, 0
2, 100920, Note_on_c, 0, 76, 88
2, 101039, Note_off_c, 0, 76, 0
2, 101040, Note_on_c, 0, 75, 88
2, 101159, Note_off_c, 0, 75, 0
2, 101160, Note_on_c, 0, 75, 88
2, 101639, Note_off_c, 0, 75, 0
2, 101640, Note_on_c, 0, 73, 88
2, 101759, Note_off_c, 0, 73, 0
2, 101760, Note_on_c, 0, 71, 88
2, 101879, Note_off_c, 0, 71, 0
2, 101880, Note_on_c, 0, 75, 88
2, 101939, Note_off_c, 0, 75, 0
2, 101940, Note_on_c, 0, 73, 88
2, 101999, Note_off_c, 0, 73, 0
2, 102000, Note_on_c, 0, 71, 88
2, 102119, Note_off_c, 0, 71, 0
2, 102120, Note_on_c, 0, 70, 88
2, 102239, Note_off_c, 0, 70, 0
2, 102240, Note_on_c, 0, 68, 88
2, 102280, Note_off_c, 0, 68, 0
2, 102280, End_track
0, 0, End_of_file