0, 0, Header, 1, 2, 240
1, 0, Start_track
1, 0, Time_signature, 4, 2, 24, 8
1, 0, Tempo, 1034482
1, 0, SMPTE_offset, 64, 0, 0, 0, 100
1, 0, End_track
2, 0, Start_track
2, 0, Title_t, "Track 1"
2, 0, Program_c, 0, 6
2, 1560, Note_on_c, 0, 67, 88
2, 1679, Note_off_c, 0, 67, 0
2, 1680, Note_on_c, 0, 69, 88
2, 1799, Note_off_c, 0, 69, 0
2, 1800, Note_on_c, 0, 71, 88
2, 1919, Note_off_c, 0, 71, 0
2, 1920, Note_on_c, 0, 72, 88
2, 2099, Note_off_c, 0, 72, 0
2, 2100, Note_on_c, 0, 74, 88
2, 2129, Note_off_c, 0, 74, 0
2, 2130, Note_on_c, 0, 72, 88
2, 2159, Note_off_c, 0, 72, 0
2, 2160, Note_on_c, 0, 71, 88
2, 2279, Note_off_c, 0, 71, 0
2, 2280, Note_on_c, 0, 76, 88
2, 2399, Note_off_c, 0, 76, 0
2, 2400, Note_on_c, 0, 69, 88
2, 2519, Note_off_c, 0, 69, 0
2, 2520, Note_on_c, 0, 74, 88
2, 2699, Note_off_c, 0, 74, 0
2, 2700, Note_on_c, 0, 76, 88
2, 2759, Note_off_c, 0, 76, 0
2, 2760, Note_on_c, 0, 74, 88
2, 2819, Note_off_c, 0, 74, 0
2, 2820, Note_on_c, 0, 72, 88
2, 2879, Note_off_c, 0, 72, 0
2, 2880, Note_on_c, 0, 71, 88
2, 2939, Note_off_c, 0, 71, 0
2, 2940, Note_on_c, 0, 67, 88
2, 2999, Note_off_c, 0, 67, 0
2, 3000, Note_on_c, 0, 69, 88
2, 3059, Note_off_c, 0, 69, 0
2, 3060, Note_on_c, 0, 71, 88
2, 3119, Note_off_c, 0, 71, 0
2, 3120, Note_on_c, 0, 72, 88
2, 3179, Note_off_c, 0, 72, 0
2, 3180, Note_on_c, 0, 71, 88
2, 3239, Note_off_c, 0, 71, 0
2, 3240, Note_on_c, 0, 72, 88
2, 3299, Note_off_c, 0, 72, 0
2, 3300, Note_on_c, 0, 74, 88
2, 3359, Note_off_c, 0, 74, 0
2, 3360, Note_on_c, 0, 76, 88
2, 3419, Note_off_c, 0, 76, 0
2, 3420, Note_on_c, 0, 74, 88
2, 3479, Note_off_c, 0, 74, 0
2, 3480, Note_on_c, 0, 76, 88
2, 3539, Note_off_c, 0, 76, 0
2, 3540, Note_on_c, 0, 78, 88
2, 3599, Note_off_c, 0, 78, 0
2, 3600, Note_on_c, 0, 79, 88
2, 3719, Note_off_c, 0, 79, 0
2, 3720, Note_on_c, 0, 71, 88
2, 3839, Note_off_c, 0, 71, 0
2, 3840, Note_on_c, 0, 72, 88
2, 3959, Note_off_c, 0, 72, 0
2, 3960, Note_on_c, 0, 69, 88
2, 4079, Note_off_c, 0, 69, 0
2, 4080, Note_on_c, 0, 74, 88
2, 4139, Note_off_c, 0, 74, 0
2, 4140, Note_on_c, 0, 72, 88
2, 4199, Note_off_c, 0, 72, 0
2, 4200, Note_on_c, 0, 71, 88
2, 4259, Note_off_c, 0, 71, 0
2, 4260, Note_on_c, 0, 69, 88
2, 4319, Note_off_c, 0, 69, 0
2, 4320, Note_on_c, 0, 67, 88
2, 4499, Note_off_c, 0, 67, 0
2, 4500, Note_on_c, 0, 67, 88
2, 4559, Note_off_c, 0, 67, 0
2, 4560, Note_on_c, 0, 65, 88
2, 4619, Note_off_c, 0, 65, 0
2, 4620, Note_on_c, 0, 64, 88
2, 4679, Note_off_c, 0, 64, 0
2, 4680, Note_on_c, 0, 65, 88
2, 4739, Note_off_c, 0, 65, 0
2, 4740, Note_on_c, 0, 67, 88
2, 4799, Note_off_c, 0, 67, 0
2, 4800, Note_on_c, 0, 69, 88
2, 4859, Note_off_c, 0, 69, 0
2, 4860, Note_on_c, 0, 67, 88
2, 4919, Note_off_c, 0, 67, 0
2, 4920, Note_on_c, 0, 69, 88
2, 4979, Note_off_c, 0, 69, 0
2, 4980, Note_on_c, 0, 71, 88
2, 5039, Note_off_c, 0, 71, 0
2, 5040, Note_on_c, 0, 72, 88
2, 5519, Note_off_c, 0, 72, 0
2, 5520, Note_on_c, 0, 71, 88
2, 5879, Note_off_c, 0, 71, 0
2, 5880, Note_on_c, 0, 72, 88
2, 5999, Note_off_c, 0, 72, 0
2, 6000, Note_on_c, 0, 74, 88
2, 6119, Note_off_c, 0, 74, 0
2, 6120, Note_on_c, 0, 76, 88
2, 6239, Note_off_c, 0, 76, 0
2, 6240, Note_on_c, 0, 77, 88
2, 6419, Note_off_c, 0, 77, 0
2, 6420, Note_on_c, 0, 79, 88
2, 6449, Note_off_c, 0, 79, 0
2, 6450, Note_on_c, 0, 77, 88
2, 6479, Note_off_c, 0, 77, 0
2, 6480, Note_on_c, 0, 76, 88
2, 6599, Note_off_c, 0, 76, 0
2, 6600, Note_on_c, 0, 81, 88
2, 6719, Note_off_c, 0, 81, 0
2, 6720, Note_on_c, 0, 74, 88
2, 6839, Note_off_c, 0, 74, 0
2, 6840, Note_on_c, 0, 79, 88
2, 7019, Note_off_c, 0, 79, 0
2, 7020, Note_on_c, 0, 81, 88
2, 7079, Note_off_c, 0, 81, 0
2, 7080, Note_on_c, 0, 79, 88
2, 7139, Note_off_c, 0, 79, 0
2, 7140, Note_on_c, 0, 77, 88
2, 7199, Note_off_c, 0, 77, 0
2, 7200, Note_on_c, 0, 76, 88
2, 7319, Note_off_c, 0, 76, 0
2, 7320, Note_on_c, 0, 81, 88
2, 7499, Note_off_c, 0, 81, 0
2, 7500, Note_on_c, 0, 83, 88
2, 7559, Note_off_c, 0, 83, 0
2, 7560, Note_on_c, 0, 81, 88
2, 7619, Note_off_c, 0, 81, 0
2, 7620, Note_on_c, 0, 79, 88
2, 7679, Note_off_c, 0, 79, 0
2, 7680, Note_on_c, 0, 77, 88
2, 8159, Note_off_c, 0, 77, 0
2, 8160, Note_on_c, 0, 76, 88
2, 8339, Note_off_c, 0, 76, 0
2, 8340, Note_on_c, 0, 78, 88
2, 8399, Note_off_c, 0, 78, 0
2, 8400, Note_on_c, 0, 79, 88
2, 8879, Note_off_c, 0, 79, 0
2, 8880, Note_on_c, 0, 78, 88
2, 9119, Note_off_c, 0, 78, 0
2, 9120, Note_on_c, 0, 79, 88
2, 9179, Note_off_c, 0, 79, 0
2, 9180, Note_on_c, 0, 77, 88
2, 9239, Note_off_c, 0, 77, 0
2, 9240, Note_on_c, 0, 76, 88
2, 9299, Note_off_c, 0, 76, 0
2, 9300, Note_on_c, 0, 74, 88
2, 9359, Note_off_c, 0, 74, 0
2, 9360, Note_on_c, 0, 72, 88
2, 9419, Note_off_c, 0, 72, 0
2, 9420, Note_on_c, 0, 74, 88
2, 9479, Note_off_c, 0, 74, 0
2, 9480, Note_on_c, 0, 72, 88
2, 9539, Note_off_c, 0, 72, 0
2, 9540, Note_on_c, 0, 71, 88
2, 9599, Note_off_c, 0, 71, 0
2, 9600, Note_on_c, 0, 69, 88
2, 9659, Note_off_c, 0, 69, 0
2, 9660, Note_on_c, 0, 72, 88
2, 9719, Note_off_c, 0, 72, 0
2, 9720, Note_on_c, 0, 71, 88
2, 9779, Note_off_c, 0, 71, 0
2, 9780, Note_on_c, 0, 69, 88
2, 9839, Note_off_c, 0, 69, 0
2, 9840, Note_on_c, 0, 67, 88
2, 10139, Note_off_c, 0, 67, 0
2, 10140, Note_on_c, 0, 72, 88
2, 10199, Note_off_c, 0, 72, 0
2, 10200, Note_on_c, 0, 71, 88
2, 10259, Note_off_c, 0, 71, 0
2, 10260, Note_on_c, 0, 69, 88
2, 10319, Note_off_c, 0, 69, 0
2, 10320, Note_on_c, 0, 68, 88
2, 10439, Note_off_c, 0, 68, 0
2, 10440, Note_on_c, 0, 76, 88
2, 10559, Note_off_c, 0, 76, 0
2, 10560, Note_on_c, 0, 74, 88
2, 10679, Note_off_c, 0, 74, 0
2, 10680, Note_on_c, 0, 72, 88
2, 10739, Note_off_c, 0, 72, 0
2, 10740, Note_on_c, 0, 71, 88
2, 10799, Note_off_c, 0, 71, 0
2, 10800, Note_on_c, 0, 69, 88
2, 10859, Note_off_c, 0, 69, 0
2, 10860, Note_on_c, 0, 68, 88
2, 10919, Note_off_c, 0, 68, 0
2, 10920, Note_on_c, 0, 69, 88
2, 10979, Note_off_c, 0, 69, 0
2, 10980, Note_on_c, 0, 71, 88
2, 11039, Note_off_c, 0, 71, 0
2, 11040, Note_on_c, 0, 72, 88
2, 11099, Note_off_c, 0, 72, 0
2, 11100, Note_on_c, 0, 66, 88
2, 11159, Note_off_c, 0, 66, 0
2, 11160, Note_on_c, 0, 69, 88
2, 11219, Note_off_c, 0, 69, 0
2, 11220, Note_on_c, 0, 68, 88
2, 11279, Note_off_c, 0, 68, 0
2, 11280, Note_on_c, 0, 71, 88
2, 11399, Note_off_c, 0, 71, 0
2, 11400, Note_on_c, 0, 69, 88
2, 11459, Note_off_c, 0, 69, 0
2, 11460, Note_on_c, 0, 71, 88
2, 11519, Note_off_c, 0, 71, 0
2, 11520, Note_on_c, 0, 72, 88
2, 11639, Note_off_c, 0, 72, 0
2, 11640, Note_on_c, 0, 77, 88
2, 11759, Note_off_c, 0, 77, 0
2, 11760, Note_on_c, 0, 76, 88
2, 11879, Note_off_c, 0, 76, 0
2, 11880, Note_on_c, 0, 74, 88
2, 12119, Note_off_c, 0, 74, 0
2, 12120, Note_on_c, 0, 72, 88
2, 12179, Note_off_c, 0, 72, 0
2, 12180, Note_on_c, 0, 71, 88
2, 12239, Note_off_c, 0, 71, 0
2, 12240, Note_on_c, 0, 71, 88
2, 12419, Note_off_c, 0, 71, 0
2, 12420, Note_on_c, 0, 69, 88
2, 12479, Note_off_c, 0, 69, 0
2, 12480, Note_on_c, 0, 69, 88
2, 14039, Note_off_c, 0, 69, 0
2, 14040, Note_on_c, 0, 67, 88
2, 14159, Note_off_c, 0, 67, 0
2, 14160, Note_on_c, 0, 69, 88
2, 14279, Note_off_c, 0, 69, 0
2, 14280, Note_on_c, 0, 71, 88
2, 14399, Note_off_c, 0, 71, 0
2, 14400, Note_on_c, 0, 72, 88
2, 14579, Note_off_c, 0, 72, 0
2, 14580, Note_on_c, 0, 74, 88
2, 14609, Note_off_c, 0, 74, 0
2, 14610, Note_on_c, 0, 72, 88
2, 14639, Note_off_c, 0, 72, 0
2, 14640, Note_on_c, 0, 71, 88
2, 14759, Note_off_c, 0, 71, 0
2, 14760, Note_on_c, 0, 72, 88
2, 14879, Note_off_c, 0, 72, 0
2, 14880, Note_on_c, 0, 74, 88
2, 14999, Note_off_c, 0, 74, 0
2, 15000, Note_on_c, 0, 76, 88
2, 15119, Note_off_c, 0, 76, 0
2, 15120, Note_on_c, 0, 77, 88
2, 15299, Note_off_c, 0, 77, 0
2, 15300, Note_on_c, 0, 79, 88
2, 15329, Note_off_c, 0, 79, 0
2, 15330, Note_on_c, 0, 77, 88
2, 15359, Note_off_c, 0, 77, 0
2, 15360, Note_on_c, 0, 76, 88
2, 15479, Note_off_c, 0, 76, 0
2, 15480, Note_on_c, 0, 81, 88
2, 15599, Note_off_c, 0, 81, 0
2, 15600, Note_on_c, 0, 74, 88
2, 15719, Note_off_c, 0, 74, 0
2, 15720, Note_on_c, 0, 79, 88
2, 15899, Note_off_c, 0, 79, 0
2, 15900, Note_on_c, 0, 81, 88
2, 15959, Note_off_c, 0, 81, 0
2, 15960, Note_on_c, 0, 79, 88
2, 16019, Note_off_c, 0, 79, 0
2, 16020, Note_on_c, 0, 77, 88
2, 16079, Note_off_c, 0, 77, 0
2, 16080, Note_on_c, 0, 76, 88
2, 16199, Note_off_c, 0, 76, 0
2, 16200, Note_on_c, 0, 81, 88
2, 16319, Note_off_c, 0, 81, 0
2, 16320, Note_on_c, 0, 74, 88
2, 16439, Note_off_c, 0, 74, 0
2, 16440, Note_on_c, 0, 82, 88
2, 16559, Note_off_c, 0, 82, 0
2, 16560, Note_on_c, 0, 81, 88
2, 16679, Note_off_c, 0, 81, 0
2, 16680, Note_on_c, 0, 79, 88
2, 16739, Note_off_c, 0, 79, 0
2, 16740, Note_on_c, 0, 77, 88
2, 16799, Note_off_c, 0, 77, 0
2, 16800, Note_on_c, 0, 79, 88
2, 16859, Note_off_c, 0, 79, 0
2, 16860, Note_on_c, 0, 77, 88
2, 16919, Note_off_c, 0, 77, 0
2, 16920, Note_on_c, 0, 79, 88
2, 16979, Note_off_c, 0, 79, 0
2, 16980, Note_on_c, 0, 76, 88
2, 17039, Note_off_c, 0, 76, 0
2, 17040, Note_on_c, 0, 77, 88
2, 17099, Note_off_c, 0, 77, 0
2, 17100, Note_on_c, 0, 79, 88
2, 17159, Note_off_c, 0, 79, 0
2, 17160, Note_on_c, 0, 81, 88
2, 17174, Note_off_c, 0, 81, 0
2, 17175, Note_on_c, 0, 79, 88
2, 17189, Note_off_c, 0, 79, 0
2, 17190, Note_on_c, 0, 81, 88
2, 17204, Note_off_c, 0, 81, 0
2, 17205, Note_on_c, 0, 79, 88
2, 17219, Note_off_c, 0, 79, 0
2, 17220, Note_on_c, 0, 77, 88
2, 17249, Note_off_c, 0, 77, 0
2, 17250, Note_on_c, 0, 79, 88
2, 17279, Note_off_c, 0, 79, 0
2, 17280, Note_on_c, 0, 81, 88
2, 17339, Note_off_c, 0, 81, 0
2, 17340, Note_on_c, 0, 73, 88
2, 17399, Note_off_c, 0, 73, 0
2, 17400, Note_on_c, 0, 74, 88
2, 17459, Note_off_c, 0, 74, 0
2, 17460, Note_on_c, 0, 79, 88
2, 17519, Note_off_c, 0, 79, 0
2, 17520, Note_on_c, 0, 76, 88
2, 17699, Note_off_c, 0, 76, 0
2, 17700, Note_on_c, 0, 74, 88
2, 17759, Note_off_c, 0, 74, 0
2, 17760, Note_on_c, 0, 74, 88
2, 19079, Note_off_c, 0, 74, 0
2, 19080, Note_on_c, 0, 67, 88
2, 19199, Note_off_c, 0, 67, 0
2, 19200, Note_on_c, 0, 69, 88
2, 19319, Note_off_c, 0, 69, 0
2, 19320, Note_on_c, 0, 71, 88
2, 19439, Note_off_c, 0, 71, 0
2, 19440, Note_on_c, 0, 72, 88
2, 19619, Note_off_c, 0, 72, 0
2, 19620, Note_on_c, 0, 74, 88
2, 19649, Note_off_c, 0, 74, 0
2, 19650, Note_on_c, 0, 72, 88
2, 19679, Note_off_c, 0, 72, 0
2, 19680, Note_on_c, 0, 71, 88
2, 19799, Note_off_c, 0, 71, 0
2, 19800, Note_on_c, 0, 76, 88
2, 19919, Note_off_c, 0, 76, 0
2, 19920, Note_on_c, 0, 69, 88
2, 20039, Note_off_c, 0, 69, 0
2, 20040, Note_on_c, 0, 74, 88
2, 20219, Note_off_c, 0, 74, 0
2, 20220, Note_on_c, 0, 76, 88
2, 20279, Note_off_c, 0, 76, 0
2, 20280, Note_on_c, 0, 74, 88
2, 20339, Note_off_c, 0, 74, 0
2, 20340, Note_on_c, 0, 72, 88
2, 20399, Note_off_c, 0, 72, 0
2, 20400, Note_on_c, 0, 71, 88
2, 20459, Note_off_c, 0, 71, 0
2, 20460, Note_on_c, 0, 72, 88
2, 20519, Note_off_c, 0, 72, 0
2, 20520, Note_on_c, 0, 74, 88
2, 20579, Note_off_c, 0, 74, 0
2, 20580, Note_on_c, 0, 76, 88
2, 20639, Note_off_c, 0, 76, 0
2, 20640, Note_on_c, 0, 77, 88
2, 20699, Note_off_c, 0, 77, 0
2, 20700, Note_on_c, 0, 79, 88
2, 20759, Note_off_c, 0, 79, 0
2, 20760, Note_on_c, 0, 81, 88
2, 20819, Note_off_c, 0, 81, 0
2, 20820, Note_on_c, 0, 79, 88
2, 20879, Note_off_c, 0, 79, 0
2, 20880, Note_on_c, 0, 77, 88
2, 20939, Note_off_c, 0, 77, 0
2, 20940, Note_on_c, 0, 76, 88
2, 20999, Note_off_c, 0, 76, 0
2, 21000, Note_on_c, 0, 74, 88
2, 21059, Note_off_c, 0, 74, 0
2, 21060, Note_on_c, 0, 72, 88
2, 21119, Note_off_c, 0, 72, 0
2, 21120, Note_on_c, 0, 71, 88
2, 21359, Note_off_c, 0, 71, 0
2, 21360, Note_on_c, 0, 72, 88
2, 21479, Note_off_c, 0, 72, 0
2, 21480, Note_on_c, 0, 74, 88
2, 21599, Note_off_c, 0, 74, 0
2, 21600, Note_on_c, 0, 67, 88
2, 21719, Note_off_c, 0, 67, 0
2, 21720, Note_on_c, 0, 72, 88
2, 21959, Note_off_c, 0, 72, 0
2, 21960, Note_on_c, 0, 71, 88
2, 22079, Note_off_c, 0, 71, 0
2, 22080, Note_on_c, 0, 72, 88
2, 22319, Note_off_c, 0, 72, 0
2, 22320, Note_on_c, 0, 71, 88
2, 22439, Note_off_c, 0, 71, 0
2, 22440, Note_on_c, 0, 70, 88
2, 22559, Note_off_c, 0, 70, 0
2, 22560, Note_on_c, 0, 69, 88
2, 22679, Note_off_c, 0, 69, 0
2, 22680, Note_on_c, 0, 74, 88
2, 22919, Note_off_c, 0, 74, 0
2, 22920, Note_on_c, 0, 72, 88
2, 23039, Note_off_c, 0, 72, 0
2, 23040, Note_on_c, 0, 74, 88
2, 23159, Note_off_c, 0, 74, 0
2, 23160, Note_on_c, 0, 76, 88
2, 23279, Note_off_c, 0, 76, 0
2, 23280, Note_on_c, 0, 77, 88
2, 23579, Note_off_c, 0, 77, 0
2, 23580, Note_on_c, 0, 81, 88
2, 23639, Note_off_c, 0, 81, 0
2, 23640, Note_on_c, 0, 79, 88
2, 23699, Note_off_c, 0, 79, 0
2, 23700, Note_on_c, 0, 77, 88
2, 23759, Note_off_c, 0, 77, 0
2, 23760, Note_on_c, 0, 76, 88
2, 23819, Note_off_c, 0, 76, 0
2, 23820, Note_on_c, 0, 77, 88
2, 23879, Note_off_c, 0, 77, 0
2, 23880, Note_on_c, 0, 76, 88
2, 23939, Note_off_c, 0, 76, 0
2, 23940, Note_on_c, 0, 74, 88
2, 23999, Note_off_c, 0, 74, 0
2, 24000, Note_on_c, 0, 72, 88
2, 24539, Note_off_c, 0, 72, 0
2, 24540, Note_on_c, 0, 67, 88
2, 24569, Note_off_c, 0, 67, 0
2, 24570, Note_on_c, 0, 69, 88
2, 24599, Note_off_c, 0, 69, 0
2, 24600, Note_on_c, 0, 71, 88
2, 24659, Note_off_c, 0, 71, 0
2, 24660, Note_on_c, 0, 72, 88
2, 24719, Note_off_c, 0, 72, 0
2, 24720, Note_on_c, 0, 74, 88
2, 24779, Note_off_c, 0, 74, 0
2, 24780, Note_on_c, 0, 76, 88
2, 24839, Note_off_c, 0, 76, 0
2, 24840, Note_on_c, 0, 77, 88
2, 24989, Note_off_c, 0, 77, 0
2, 24990, Note_on_c, 0, 72, 88
2, 25019, Note_off_c, 0, 72, 0
2, 25020, Note_on_c, 0, 74, 88
2, 25049, Note_off_c, 0, 74, 0
2, 25050, Note_on_c, 0, 76, 88
2, 25079, Note_off_c, 0, 76, 0
2, 25080, Note_on_c, 0, 77, 88
2, 25139, Note_off_c, 0, 77, 0
2, 25140, Note_on_c, 0, 79, 88
2, 25199, Note_off_c, 0, 79, 0
2, 25200, Note_on_c, 0, 81, 88
2, 25379, Note_off_c, 0, 81, 0
2, 25380, Note_on_c, 0, 83, 88
2, 25439, Note_off_c, 0, 83, 0
2, 25440, Note_on_c, 0, 84, 88
2, 25480, Note_off_c, 0, 84, 0
2, 25480, End_track
0, 0, End_of_file