0, 0, Header, 1, 2, 240
1, 0, Start_track
1, 0, Time_signature, 4, 2, 24, 8
1, 0, Tempo, 810810
1, 0, SMPTE_offset, 64, 0, 0, 0, 100
1, 0, End_track
2, 0, Start_track
2, 0, Title_t, "Track 1"
2, 0, Program_c, 0, 6
2, 2400, Note_on_c, 0, 70, 88
2, 2639, Note_off_c, 0, 70, 0
2, 2640, Note_on_c, 0, 75, 88
2, 2999, Note_off_c, 0, 75, 0
2, 3000, Note_on_c, 0, 78, 88
2, 3119, Note_off_c, 0, 78, 0
2, 3120, Note_on_c, 0, 77, 88
2, 3239, Note_off_c, 0, 77, 0
2, 3240, Note_on_c, 0, 75, 88
2, 3359, Note_off_c, 0, 75, 0
2, 3360, Note_on_c, 0, 73, 88
2, 3479, Note_off_c, 0, 73, 0
2, 3480, Note_on_c, 0, 75, 88
2, 3599, Note_off_c, 0, 75, 0
2, 3600, Note_on_c, 0, 77, 88
2, 3839, Note_off_c, 0, 77, 0
2, 3840, Note_on_c, 0, 70, 88
2, 4079, Note_off_c, 0, 70, 0
2, 4080, Note_on_c, 0, 75, 88
2, 4439, Note_off_c, 0, 75, 0
2, 4440, Note_on_c, 0, 73, 88
2, 4559, Note_off_c, 0, 73, 0
2, 4560, Note_on_c, 0, 73, 88
2, 4597, Note_off_c, 0, 73, 0
2, 4598, Note_on_c, 0, 72, 88
2, 4627, Note_off_c, 0, 72, 0
2, 4628, Note_on_c, 0, 73, 88
2, 4657, Note_off_c, 0, 73, 0
2, 4658, Note_on_c, 0, 72, 88
2, 4687, Note_off_c, 0, 72, 0
2, 4688, Note_on_c, 0, 73, 88
2, 4709, Note_off_c, 0, 73, 0
2, 4710, Note_on_c, 0, 72, 88
2, 4732, Note_off_c, 0, 72, 0
2, 4733, Note_on_c, 0, 73, 88
2, 4754, Note_off_c, 0, 73, 0
2, 4755, Note_on_c, 0, 72, 88
2, 4799, Note_off_c, 0, 72, 0
2, 4800, Note_on_c, 0, 70, 88
2, 4919, Note_off_c, 0, 70, 0
2, 4920, Note_on_c, 0, 72, 88
2, 5039, Note_off_c, 0, 72, 0
2, 5040, Note_on_c, 0, 73, 88
2, 5639, Note_off_c, 0, 73, 0
2, 5640, Note_on_c, 0, 71, 88
2, 5759, Note_off_c, 0, 71, 0
2, 5760, Note_on_c, 0, 70, 88
2, 5999, Note_off_c, 0, 70, 0
2, 6000, Note_on_c, 0, 75, 88
2, 6359, Note_off_c, 0, 75, 0
2, 6360, Note_on_c, 0, 74, 88
2, 6479, Note_off_c, 0, 74, 0
2, 6480, Note_on_c, 0, 75, 88
2, 6599, Note_off_c, 0, 75, 0
2, 6600, Note_on_c, 0, 77, 88
2, 6719, Note_off_c, 0, 77, 0
2, 6720, Note_on_c, 0, 78, 88
2, 6959, Note_off_c, 0, 78, 0
2, 6960, Note_on_c, 0, 77, 88
2, 7079, Note_off_c, 0, 77, 0
2, 7080, Note_on_c, 0, 78, 88
2, 7199, Note_off_c, 0, 78, 0
2, 7200, Note_on_c, 0, 80, 88
2, 7319, Note_off_c, 0, 80, 0
2, 7320, Note_on_c, 0, 77, 88
2, 7439, Note_off_c, 0, 77, 0
2, 7440, Note_on_c, 0, 78, 88
2, 7559, Note_off_c, 0, 78, 0
2, 7560, Note_on_c, 0, 80, 88
2, 7679, Note_off_c, 0, 80, 0
2, 7680, Note_on_c, 0, 82, 88
2, 7799, Note_off_c, 0, 82, 0
2, 7800, Note_on_c, 0, 80, 88
2, 7919, Note_off_c, 0, 80, 0
2, 7920, Note_on_c, 0, 78, 88
2, 8039, Note_off_c, 0, 78, 0
2, 8040, Note_on_c, 0, 77, 88
2, 8159, Note_off_c, 0, 77, 0
2, 8160, Note_on_c, 0, 78, 88
2, 8399, Note_off_c, 0, 78, 0
2, 8400, Note_on_c, 0, 77, 88
2, 8519, Note_off_c, 0, 77, 0
2, 8520, Note_on_c, 0, 75, 88
2, 8639, Note_off_c, 0, 75, 0
2, 8640, Note_on_c, 0, 74, 88
2, 8759, Note_off_c, 0, 74, 0
2, 8760, Note_on_c, 0, 75, 88
2, 8999, Note_off_c, 0, 75, 0
2, 9000, Note_on_c, 0, 74, 88
2, 9119, Note_off_c, 0, 74, 0
2, 9120, Note_on_c, 0, 75, 88
2, 9239, Note_off_c, 0, 75, 0
2, 9240, Note_on_c, 0, 73, 88
2, 9359, Note_off_c, 0, 73, 0
2, 9360, Note_on_c, 0, 71, 88
2, 9719, Note_off_c, 0, 71, 0
2, 9720, Note_on_c, 0, 70, 88
2, 9779, Note_off_c, 0, 70, 0
2, 9780, Note_on_c, 0, 68, 88
2, 9839, Note_off_c, 0, 68, 0
2, 9840, Note_on_c, 0, 70, 88
2, 9959, Note_off_c, 0, 70, 0
2, 9960, Note_on_c, 0, 71, 88
2, 10019, Note_off_c, 0, 71, 0
2, 10020, Note_on_c, 0, 73, 88
2, 10079, Note_off_c, 0, 73, 0
2, 10080, Note_on_c, 0, 75, 88
2, 10199, Note_off_c, 0, 75, 0
2, 10200, Note_on_c, 0, 77, 88
2, 10259, Note_off_c, 0, 77, 0
2, 10260, Note_on_c, 0, 78, 88
2, 10319, Note_off_c, 0, 78, 0
2, 10320, Note_on_c, 0, 77, 88
2, 10499, Note_off_c, 0, 77, 0
2, 10500, Note_on_c, 0, 75, 88
2, 10559, Note_off_c, 0, 75, 0
2, 10560, Note_on_c, 0, 74, 88
2, 10799, Note_off_c, 0, 74, 0
2, 10800, Note_on_c, 0, 75, 88
2, 10919, Note_off_c, 0, 75, 0
2, 10920, Note_on_c, 0, 73, 88
2, 11039, Note_off_c, 0, 73, 0
2, 11040, Note_on_c, 0, 71, 88
2, 11159, Note_off_c, 0, 71, 0
2, 11160, Note_on_c, 0, 70, 88
2, 11279, Note_off_c, 0, 70, 0
2, 11280, Note_on_c, 0, 68, 88
2, 11399, Note_off_c, 0, 68, 0
2, 11400, Note_on_c, 0, 66, 88
2, 11519, Note_off_c, 0, 66, 0
2, 11520, Note_on_c, 0, 65, 88
2, 11639, Note_off_c, 0, 65, 0
2, 11640, Note_on_c, 0, 66, 88
2, 11759, Note_off_c, 0, 66, 0
2, 11760, Note_on_c, 0, 68, 88
2, 12119, Note_off_c, 0, 68, 0
2, 12120, Note_on_c, 0, 66, 88
2, 12179, Note_off_c, 0, 66, 0
2, 12180, Note_on_c, 0, 65, 88
2, 12239, Note_off_c, 0, 65, 0
2, 12240, Note_on_c, 0, 66, 88
2, 12359, Note_off_c, 0, 66, 0
2, 12360, Note_on_c, 0, 68, 88
2, 12479, Note_off_c, 0, 68, 0
2, 12480, Note_on_c, 0, 70, 88
2, 12719, Note_off_c, 0, 70, 0
2, 12720, Note_on_c, 0, 71, 88
2, 12839, Note_off_c, 0, 71, 0
2, 12840, Note_on_c, 0, 73, 88
2, 12899, Note_off_c, 0, 73, 0
2, 12900, Note_on_c, 0, 75, 88
2, 12959, Note_off_c, 0, 75, 0
2, 12960, Note_on_c, 0, 68, 88
2, 13319, Note_off_c, 0, 68, 0
2, 13320, Note_on_c, 0, 70, 88
2, 13439, Note_off_c, 0, 70, 0
2, 13440, Note_on_c, 0, 71, 88
2, 13559, Note_off_c, 0, 71, 0
2, 13560, Note_on_c, 0, 73, 88
2, 13679, Note_off_c, 0, 73, 0
2, 13680, Note_on_c, 0, 75, 88
2, 13799, Note_off_c, 0, 75, 0
2, 13800, Note_on_c, 0, 77, 88
2, 13919, Note_off_c, 0, 77, 0
2, 13920, Note_on_c, 0, 78, 88
2, 14039, Note_off_c, 0, 78, 0
2, 14040, Note_on_c, 0, 80, 88
2, 14159, Note_off_c, 0, 80, 0
2, 14160, Note_on_c, 0, 82, 88
2, 14279, Note_off_c, 0, 82, 0
2, 14280, Note_on_c, 0, 83, 88
2, 14519, Note_off_c, 0, 83, 0
2, 14520, Note_on_c, 0, 73, 88
2, 14639, Note_off_c, 0, 73, 0
2, 14640, Note_on_c, 0, 78, 88
2, 15119, Note_off_c, 0, 78, 0
2, 15120, Note_on_c, 0, 77, 88
2, 15599, Note_off_c, 0, 77, 0
2, 15600, Note_on_c, 0, 75, 88
2, 15719, Note_off_c, 0, 75, 0
2, 15720, Note_on_c, 0, 73, 88
2, 15839, Note_off_c, 0, 73, 0
2, 15840, Note_on_c, 0, 72, 88
2, 15959, Note_off_c, 0, 72, 0
2, 15960, Note_on_c, 0, 74, 88
2, 16079, Note_off_c, 0, 74, 0
2, 16080, Note_on_c, 0, 75, 88
2, 16199, Note_off_c, 0, 75, 0
2, 16200, Note_on_c, 0, 77, 88
2, 16319, Note_off_c, 0, 77, 0
2, 16320, Note_on_c, 0, 78, 88
2, 16559, Note_off_c, 0, 78, 0
2, 16560, Note_on_c, 0, 77, 88
2, 16679, Note_off_c, 0, 77, 0
2, 16680, Note_on_c, 0, 75, 88
2, 16799, Note_off_c, 0, 75, 0
2, 16800, Note_on_c, 0, 73, 88
2, 16919, Note_off_c, 0, 73, 0
2, 16920, Note_on_c, 0, 75, 88
2, 17039, Note_off_c, 0, 75, 0
2, 17040, Note_on_c, 0, 77, 88
2, 17159, Note_off_c, 0, 77, 0
2, 17160, Note_on_c, 0, 78, 88
2, 17279, Note_off_c, 0, 78, 0
2, 17280, Note_on_c, 0, 73, 88
2, 17519, Note_off_c, 0, 73, 0
2, 17520, Note_on_c, 0, 73, 88
2, 17557, Note_off_c, 0, 73, 0
2, 17558, Note_on_c, 0, 72, 88
2, 17587, Note_off_c, 0, 72, 0
2, 17588, Note_on_c, 0, 73, 88
2, 17617, Note_off_c, 0, 73, 0
2, 17618, Note_on_c, 0, 72, 88
2, 17647, Note_off_c, 0, 72, 0
2, 17648, Note_on_c, 0, 73, 88
2, 17669, Note_off_c, 0, 73, 0
2, 17670, Note_on_c, 0, 72, 88
2, 17692, Note_off_c, 0, 72, 0
2, 17693, Note_on_c, 0, 73, 88
2, 17714, Note_off_c, 0, 73, 0
2, 17715, Note_on_c, 0, 72, 88
2, 17759, Note_off_c, 0, 72, 0
2, 17760, Note_on_c, 0, 70, 88
2, 18239, Note_off_c, 0, 70, 0
2, 18240, Note_on_c, 0, 70, 88
2, 18479, Note_off_c, 0, 70, 0
2, 18480, Note_on_c, 0, 77, 88
2, 18839, Note_off_c, 0, 77, 0
2, 18840, Note_on_c, 0, 78, 88
2, 18959, Note_off_c, 0, 78, 0
2, 18960, Note_on_c, 0, 77, 88
2, 19079, Note_off_c, 0, 77, 0
2, 19080, Note_on_c, 0, 75, 88
2, 19199, Note_off_c, 0, 75, 0
2, 19200, Note_on_c, 0, 73, 88
2, 19319, Note_off_c, 0, 73, 0
2, 19320, Note_on_c, 0, 75, 88
2, 19439, Note_off_c, 0, 75, 0
2, 19440, Note_on_c, 0, 77, 88
2, 19679, Note_off_c, 0, 77, 0
2, 19680, Note_on_c, 0, 70, 88
2, 19919, Note_off_c, 0, 70, 0
2, 19920, Note_on_c, 0, 75, 88
2, 20279, Note_off_c, 0, 75, 0
2, 20280, Note_on_c, 0, 73, 88
2, 20399, Note_off_c, 0, 73, 0
2, 20400, Note_on_c, 0, 73, 88
2, 20437, Note_off_c, 0, 73, 0
2, 20438, Note_on_c, 0, 72, 88
2, 20467, Note_off_c, 0, 72, 0
2, 20468, Note_on_c, 0, 73, 88
2, 20497, Note_off_c, 0, 73, 0
2, 20498, Note_on_c, 0, 72, 88
2, 20527, Note_off_c, 0, 72, 0
2, 20528, Note_on_c, 0, 73, 88
2, 20549, Note_off_c, 0, 73, 0
2, 20550, Note_on_c, 0, 72, 88
2, 20572, Note_off_c, 0, 72, 0
2, 20573, Note_on_c, 0, 73, 88
2, 20594, Note_off_c, 0, 73, 0
2, 20595, Note_on_c, 0, 72, 88
2, 20639, Note_off_c, 0, 72, 0
2, 20640, Note_on_c, 0, 70, 88
2, 20999, Note_off_c, 0, 70, 0
2, 21000, Note_on_c, 0, 80, 88
2, 21239, Note_off_c, 0, 80, 0
2, 21240, Note_on_c, 0, 78, 88
2, 21359, Note_off_c, 0, 78, 0
2, 21360, Note_on_c, 0, 77, 88
2, 21659, Note_off_c, 0, 77, 0
2, 21660, Note_on_c, 0, 75, 88
2, 21719, Note_off_c, 0, 75, 0
2, 21720, Note_on_c, 0, 77, 88
2, 21779, Note_off_c, 0, 77, 0
2, 21780, Note_on_c, 0, 78, 88
2, 21839, Note_off_c, 0, 78, 0
2, 21840, Note_on_c, 0, 77, 88
2, 21869, Note_off_c, 0, 77, 0
2, 21870, Note_on_c, 0, 75, 88
2, 21892, Note_off_c, 0, 75, 0
2, 21893, Note_on_c, 0, 77, 88
2, 21914, Note_off_c, 0, 77, 0
2, 21915, Note_on_c, 0, 75, 88
2, 21937, Note_off_c, 0, 75, 0
2, 21938, Note_on_c, 0, 77, 88
2, 21959, Note_off_c, 0, 77, 0
2, 21960, Note_on_c, 0, 75, 88
2, 22019, Note_off_c, 0, 75, 0
2, 22020, Note_on_c, 0, 77, 88
2, 22079, Note_off_c, 0, 77, 0
2, 22080, Note_on_c, 0, 77, 88
2, 22319, Note_off_c, 0, 77, 0
2, 22320, Note_on_c, 0, 82, 88
2, 22679, Note_off_c, 0, 82, 0
2, 22680, Note_on_c, 0, 83, 88
2, 22799, Note_off_c, 0, 83, 0
2, 22800, Note_on_c, 0, 82, 88
2, 22919, Note_off_c, 0, 82, 0
2, 22920, Note_on_c, 0, 80, 88
2, 23039, Note_off_c, 0, 80, 0
2, 23040, Note_on_c, 0, 79, 88
2, 23159, Note_off_c, 0, 79, 0
2, 23160, Note_on_c, 0, 80, 88
2, 23279, Note_off_c, 0, 80, 0
2, 23280, Note_on_c, 0, 82, 88
2, 23519, Note_off_c, 0, 82, 0
2, 23520, Note_on_c, 0, 75, 88
2, 23759, Note_off_c, 0, 75, 0
2, 23760, Note_on_c, 0, 80, 88
2, 24119, Note_off_c, 0, 80, 0
2, 24120, Note_on_c, 0, 78, 88
2, 24239, Note_off_c, 0, 78, 0
2, 24240, Note_on_c, 0, 77, 88
2, 24719, Note_off_c, 0, 77, 0
2, 24720, Note_on_c, 0, 75, 88
2, 25199, Note_off_c, 0, 75, 0
2, 25200, Note_on_c, 0, 80, 88
2, 25559, Note_off_c, 0, 80, 0
2, 25560, Note_on_c, 0, 82, 88
2, 25679, Note_off_c, 0, 82, 0
2, 25680, Note_on_c, 0, 80, 88
2, 25799, Note_off_c, 0, 80, 0
2, 25800, Note_on_c, 0, 78, 88
2, 25919, Note_off_c, 0, 78, 0
2, 25920, Note_on_c, 0, 77, 88
2, 26039, Note_off_c, 0, 77, 0
2, 26040, Note_on_c, 0, 78, 88
2, 26159, Note_off_c, 0, 78, 0
2, 26160, Note_on_c, 0, 80, 88
2, 26399, Note_off_c, 0, 80, 0
2, 26400, Note_on_c, 0, 73, 88
2, 26639, Note_off_c, 0, 73, 0
2, 26640, Note_on_c, 0, 78, 88
2, 26999, Note_off_c, 0, 78, 0
2, 27000, Note_on_c, 0, 76, 88
2, 27119, Note_off_c, 0, 76, 0
2, 27120, Note_on_c, 0, 75, 88
2, 27239, Note_off_c, 0, 75, 0
2, 27240, Note_on_c, 0, 80, 88
2, 27359, Note_off_c, 0, 80, 0
2, 27360, Note_on_c, 0, 73, 88
2, 27479, Note_off_c, 0, 73, 0
2, 27480, Note_on_c, 0, 78, 88
2, 27719, Note_off_c, 0, 78, 0
2, 27720, Note_on_c, 0, 77, 88
2, 27839, Note_off_c, 0, 77, 0
2, 27840, Note_on_c, 0, 78, 88
2, 28079, Note_off_c, 0, 78, 0
2, 28080, Note_on_c, 0, 73, 88
2, 28439, Note_off_c, 0, 73, 0
2, 28440, Note_on_c, 0, 71, 88
2, 28559, Note_off_c, 0, 71, 0
2, 28560, Note_on_c, 0, 73, 88
2, 28679, Note_off_c, 0, 73, 0
2, 28680, Note_on_c, 0, 75, 88
2, 28799, Note_off_c, 0, 75, 0
2, 28800, Note_on_c, 0, 77, 88
2, 28919, Note_off_c, 0, 77, 0
2, 28920, Note_on_c, 0, 75, 88
2, 29039, Note_off_c, 0, 75, 0
2, 29040, Note_on_c, 0, 73, 88
2, 29279, Note_off_c, 0, 73, 0
2, 29280, Note_on_c, 0, 80, 88
2, 29519, Note_off_c, 0, 80, 0
2, 29520, Note_on_c, 0, 73, 88
2, 29879, Note_off_c, 0, 73, 0
2, 29880, Note_on_c, 0, 75, 88
2, 29999, Note_off_c, 0, 75, 0
2, 30000, Note_on_c, 0, 77, 88
2, 30239, Note_off_c, 0, 77, 0
2, 30240, Note_on_c, 0, 78, 88
2, 30839, Note_off_c, 0, 78, 0
2, 30840, Note_on_c, 0, 77, 88
2, 30959, Note_off_c, 0, 77, 0
2, 30960, Note_on_c, 0, 75, 88
2, 31079, Note_off_c, 0, 75, 0
2, 31080, Note_on_c, 0, 73, 88
2, 31199, Note_off_c, 0, 73, 0
2, 31200, Note_on_c, 0, 72, 88
2, 31439, Note_off_c, 0, 72, 0
2, 31440, Note_on_c, 0, 74, 88
2, 31679, Note_off_c, 0, 74, 0
2, 31680, Note_on_c, 0, 75, 88
2, 32159, Note_off_c, 0, 75, 0
2, 32160, Note_on_c, 0, 73, 88
2, 32639, Note_off_c, 0, 73, 0
2, 32640, Note_on_c, 0, 71, 88
2, 32759, Note_off_c, 0, 71, 0
2, 32760, Note_on_c, 0, 73, 88
2, 32879, Note_off_c, 0, 73, 0
2, 32880, Note_on_c, 0, 75, 88
2, 32999, Note_off_c, 0, 75, 0
2, 33000, Note_on_c, 0, 76, 88
2, 33119, Note_off_c, 0, 76, 0
2, 33120, Note_on_c, 0, 70, 88
2, 33239, Note_off_c, 0, 70, 0
2, 33240, Note_on_c, 0, 71, 88
2, 33359, Note_off_c, 0, 71, 0
2, 33360, Note_on_c, 0, 73, 88
2, 33479, Note_off_c, 0, 73, 0
2, 33480, Note_on_c, 0, 75, 88
2, 33599, Note_off_c, 0, 75, 0
2, 33600, Note_on_c, 0, 71, 88
2, 33719, Note_off_c, 0, 71, 0
2, 33720, Note_on_c, 0, 70, 88
2, 33839, Note_off_c, 0, 70, 0
2, 33840, Note_on_c, 0, 68, 88
2, 33959, Note_off_c, 0, 68, 0
2, 33960, Note_on_c, 0, 66, 88
2, 34079, Note_off_c, 0, 66, 0
2, 34080, Note_on_c, 0, 65, 88
2, 34319, Note_off_c, 0, 65, 0
2, 34320, Note_on_c, 0, 66, 88
2, 34439, Note_off_c, 0, 66, 0
2, 34440, Note_on_c, 0, 68, 88
2, 34559, Note_off_c, 0, 68, 0
2, 34560, Note_on_c, 0, 70, 88
2, 34799, Note_off_c, 0, 70, 0
2, 34800, Note_on_c, 0, 72, 88
2, 34919, Note_off_c, 0, 72, 0
2, 34920, Note_on_c, 0, 74, 88
2, 35039, Note_off_c, 0, 74, 0
2, 35040, Note_on_c, 0, 75, 88
2, 35399, Note_off_c, 0, 75, 0
2, 35400, Note_on_c, 0, 73, 88
2, 35519, Note_off_c, 0, 73, 0
2, 35520, Note_on_c, 0, 72, 88
2, 35639, Note_off_c, 0, 72, 0
2, 35640, Note_on_c, 0, 74, 88
2, 35759, Note_off_c, 0, 74, 0
2, 35760, Note_on_c, 0, 75, 88
2, 36239, Note_off_c, 0, 75, 0
2, 36240, Note_on_c, 0, 74, 88
2, 36479, Note_off_c, 0, 74, 0
2, 36480, Note_on_c, 0, 75, 88
2, 36719, Note_off_c, 0, 75, 0
2, 36720, Note_on_c, 0, 74, 88
2, 36839, Note_off_c, 0, 74, 0
2, 36840, Note_on_c, 0, 75, 88
2, 36959, Note_off_c, 0, 75, 0
2, 36960, Note_on_c, 0, 77, 88
2, 37079, Note_off_c, 0, 77, 0
2, 37080, Note_on_c, 0, 80, 88
2, 37199, Note_off_c, 0, 80, 0
2, 37200, Note_on_c, 0, 78, 88
2, 37319, Note_off_c, 0, 78, 0
2, 37320, Note_on_c, 0, 77, 88
2, 37439, Note_off_c, 0, 77, 0
2, 37440, Note_on_c, 0, 75, 88
2, 37559, Note_off_c, 0, 75, 0
2, 37560, Note_on_c, 0, 73, 88
2, 37679, Note_off_c, 0, 73, 0
2, 37680, Note_on_c, 0, 71, 88
2, 37799, Note_off_c, 0, 71, 0
2, 37800, Note_on_c, 0, 70, 88
2, 37859, Note_off_c, 0, 70, 0
2, 37860, Note_on_c, 0, 71, 88
2, 37919, Note_off_c, 0, 71, 0
2, 37920, Note_on_c, 0, 70, 88
2, 38039, Note_off_c, 0, 70, 0
2, 38040, Note_on_c, 0, 72, 88
2, 38159, Note_off_c, 0, 72, 0
2, 38160, Note_on_c, 0, 74, 88
2, 38279, Note_off_c, 0, 74, 0
2, 38280, Note_on_c, 0, 75, 88
2, 38399, Note_off_c, 0, 75, 0
2, 38400, Note_on_c, 0, 77, 88
2, 38519, Note_off_c, 0, 77, 0
2, 38520, Note_on_c, 0, 70, 88
2, 38639, Note_off_c, 0, 70, 0
2, 38640, Note_on_c, 0, 82, 88
2, 38759, Note_off_c, 0, 82, 0
2, 38760, Note_on_c, 0, 80, 88
2, 38879, Note_off_c, 0, 80, 0
2, 38880, Note_on_c, 0, 78, 88
2, 38999, Note_off_c, 0, 78, 0
2, 39000, Note_on_c, 0, 80, 88
2, 39119, Note_off_c, 0, 80, 0
2, 39120, Note_on_c, 0, 82, 88
2, 39239, Note_off_c, 0, 82, 0
2, 39240, Note_on_c, 0, 83, 88
2, 39359, Note_off_c, 0, 83, 0
2, 39360, Note_on_c, 0, 77, 88
2, 39599, Note_off_c, 0, 77, 0
2, 39600, Note_on_c, 0, 79, 88
2, 39839, Note_off_c, 0, 79, 0
2, 39840, Note_on_c, 0, 80, 88
2, 39959, Note_off_c, 0, 80, 0
2, 39960, Note_on_c, 0, 78, 88
2, 40079, Note_off_c, 0, 78, 0
2, 40080, Note_on_c, 0, 77, 88
2, 40199, Note_off_c, 0, 77, 0
2, 40200, Note_on_c, 0, 75, 88
2, 40319, Note_off_c, 0, 75, 0
2, 40320, Note_on_c, 0, 74, 88
2, 40559, Note_off_c, 0, 74, 0
2, 40560, Note_on_c, 0, 75, 88
2, 40919, Note_off_c, 0, 75, 0
2, 40920, Note_on_c, 0, 73, 88
2, 41039, Note_off_c, 0, 73, 0
2, 41040, Note_on_c, 0, 71, 88
2, 41159, Note_off_c, 0, 71, 0
2, 41160, Note_on_c, 0, 70, 88
2, 41279, Note_off_c, 0, 70, 0
2, 41280, Note_on_c, 0, 71, 88
2, 41399, Note_off_c, 0, 71, 0
2, 41400, Note_on_c, 0, 70, 88
2, 41519, Note_off_c, 0, 70, 0
2, 41520, Note_on_c, 0, 68, 88
2, 41879, Note_off_c, 0, 68, 0
2, 41880, Note_on_c, 0, 66, 88
2, 41939, Note_off_c, 0, 66, 0
2, 41940, Note_on_c, 0, 65, 88
2, 41999, Note_off_c, 0, 65, 0
2, 42000, Note_on_c, 0, 66, 88
2, 42119, Note_off_c, 0, 66, 0
2, 42120, Note_on_c, 0, 68, 88
2, 42239, Note_off_c, 0, 68, 0
2, 42240, Note_on_c, 0, 70, 88
2, 42479, Note_off_c, 0, 70, 0
2, 42480, Note_on_c, 0, 63, 88
2, 42839, Note_off_c, 0, 63, 0
2, 42840, Note_on_c, 0, 62, 88
2, 42959, Note_off_c, 0, 62, 0
2, 42960, Note_on_c, 0, 63, 88
2, 43079, Note_off_c, 0, 63, 0
2, 43080, Note_on_c, 0, 65, 88
2, 43199, Note_off_c, 0, 65, 0
2, 43200, Note_on_c, 0, 66, 88
2, 43319, Note_off_c, 0, 66, 0
2, 43320, Note_on_c, 0, 65, 88
2, 43439, Note_off_c, 0, 65, 0
2, 43440, Note_on_c, 0, 63, 88
2, 43679, Note_off_c, 0, 63, 0
2, 43680, Note_on_c, 0, 70, 88
2, 43919, Note_off_c, 0, 70, 0
2, 43920, Note_on_c, 0, 63, 88
2, 44279, Note_off_c, 0, 63, 0
2, 44280, Note_on_c, 0, 65, 88
2, 44399, Note_off_c, 0, 65, 0
2, 44400, Note_on_c, 0, 67, 88
2, 44639, Note_off_c, 0, 67, 0
2, 44640, Note_on_c, 0, 68, 88
2, 44879, Note_off_c, 0, 68, 0
2, 44880, Note_on_c, 0, 80, 88
2, 45119, Note_off_c, 0, 80, 0
2, 45120, Note_on_c, 0, 75, 88
2, 45479, Note_off_c, 0, 75, 0
2, 45480, Note_on_c, 0, 73, 88
2, 45599, Note_off_c, 0, 73, 0
2, 45600, Note_on_c, 0, 75, 88
2, 45959, Note_off_c, 0, 75, 0
2, 45960, Note_on_c, 0, 77, 88
2, 46079, Note_off_c, 0, 77, 0
2, 46080, Note_on_c, 0, 78, 88
2, 46439, Note_off_c, 0, 78, 0
2, 46440, Note_on_c, 0, 77, 88
2, 46559, Note_off_c, 0, 77, 0
2, 46560, Note_on_c, 0, 75, 88
2, 46799, Note_off_c, 0, 75, 0
2, 46800, Note_on_c, 0, 82, 88
2, 47039, Note_off_c, 0, 82, 0
2, 47040, Note_on_c, 0, 75, 88
2, 47399, Note_off_c, 0, 75, 0
2, 47400, Note_on_c, 0, 75, 88
2, 47519, Note_off_c, 0, 75, 0
2, 47520, Note_on_c, 0, 74, 88
2, 47639, Note_off_c, 0, 74, 0
2, 47640, Note_on_c, 0, 75, 88
2, 47759, Note_off_c, 0, 75, 0
2, 47760, Note_on_c, 0, 77, 88
2, 47879, Note_off_c, 0, 77, 0
2, 47880, Note_on_c, 0, 74, 88
2, 47999, Note_off_c, 0, 74, 0
2, 48000, Note_on_c, 0, 75, 88
2, 48119, Note_off_c, 0, 75, 0
2, 48120, Note_on_c, 0, 77, 88
2, 48239, Note_off_c, 0, 77, 0
2, 48240, Note_on_c, 0, 78, 88
2, 48359, Note_off_c, 0, 78, 0
2, 48360, Note_on_c, 0, 80, 88
2, 48479, Note_off_c, 0, 80, 0
2, 48480, Note_on_c, 0, 82, 88
2, 48599, Note_off_c, 0, 82, 0
2, 48600, Note_on_c, 0, 70, 88
2, 48719, Note_off_c, 0, 70, 0
2, 48720, Note_on_c, 0, 75, 88
2, 48839, Note_off_c, 0, 75, 0
2, 48840, Note_on_c, 0, 77, 88
2, 48959, Note_off_c, 0, 77, 0
2, 48960, Note_on_c, 0, 74, 88
2, 49439, Note_off_c, 0, 74, 0
2, 49440, Note_on_c, 0, 70, 88
2, 49679, Note_off_c, 0, 70, 0
2, 49680, Note_on_c, 0, 75, 88
2, 50039, Note_off_c, 0, 75, 0
2, 50040, Note_on_c, 0, 76, 88
2, 50159, Note_off_c, 0, 76, 0
2, 50160, Note_on_c, 0, 75, 88
2, 50279, Note_off_c, 0, 75, 0
2, 50280, Note_on_c, 0, 73, 88
2, 50399, Note_off_c, 0, 73, 0
2, 50400, Note_on_c, 0, 71, 88
2, 50519, Note_off_c, 0, 71, 0
2, 50520, Note_on_c, 0, 73, 88
2, 50639, Note_off_c, 0, 73, 0
2, 50640, Note_on_c, 0, 75, 88
2, 50879, Note_off_c, 0, 75, 0
2, 50880, Note_on_c, 0, 68, 88
2, 50999, Note_off_c, 0, 68, 0
2, 51000, Note_on_c, 0, 70, 88
2, 51059, Note_off_c, 0, 70, 0
2, 51060, Note_on_c, 0, 71, 88
2, 51119, Note_off_c, 0, 71, 0
2, 51120, Note_on_c, 0, 70, 88
2, 51239, Note_off_c, 0, 70, 0
2, 51240, Note_on_c, 0, 71, 88
2, 51359, Note_off_c, 0, 71, 0
2, 51360, Note_on_c, 0, 73, 88
2, 51599, Note_off_c, 0, 73, 0
2, 51600, Note_on_c, 0, 66, 88
2, 51959, Note_off_c, 0, 66, 0
2, 51960, Note_on_c, 0, 65, 88
2, 52079, Note_off_c, 0, 65, 0
2, 52080, Note_on_c, 0, 66, 88
2, 52199, Note_off_c, 0, 66, 0
2, 52200, Note_on_c, 0, 68, 88
2, 52319, Note_off_c, 0, 68, 0
2, 52320, Note_on_c, 0, 70, 88
2, 52439, Note_off_c, 0, 70, 0
2, 52440, Note_on_c, 0, 68, 88
2, 52559, Note_off_c, 0, 68, 0
2, 52560, Note_on_c, 0, 66, 88
2, 52799, Note_off_c, 0, 66, 0
2, 52800, Note_on_c, 0, 76, 88
2, 53399, Note_off_c, 0, 76, 0
2, 53400, Note_on_c, 0, 74, 88
2, 53519, Note_off_c, 0, 74, 0
2, 53520, Note_on_c, 0, 75, 88
2, 53879, Note_off_c, 0, 75, 0
2, 53880, Note_on_c, 0, 78, 88
2, 53999, Note_off_c, 0, 78, 0
2, 54000, Note_on_c, 0, 77, 88
2, 54119, Note_off_c, 0, 77, 0
2, 54120, Note_on_c, 0, 75, 88
2, 54239, Note_off_c, 0, 75, 0
2, 54240, Note_on_c, 0, 74, 88
2, 54359, Note_off_c, 0, 74, 0
2, 54360, Note_on_c, 0, 77, 88
2, 54479, Note_off_c, 0, 77, 0
2, 54480, Note_on_c, 0, 82, 88
2, 54839, Note_off_c, 0, 82, 0
2, 54840, Note_on_c, 0, 83, 88
2, 54959, Note_off_c, 0, 83, 0
2, 54960, Note_on_c, 0, 82, 88
2, 55079, Note_off_c, 0, 82, 0
2, 55080, Note_on_c, 0, 80, 88
2, 55199, Note_off_c, 0, 80, 0
2, 55200, Note_on_c, 0, 78, 88
2, 55319, Note_off_c, 0, 78, 0
2, 55320, Note_on_c, 0, 80, 88
2, 55439, Note_off_c, 0, 80, 0
2, 55440, Note_on_c, 0, 82, 88
2, 55679, Note_off_c, 0, 82, 0
2, 55680, Note_on_c, 0, 75, 88
2, 55919, Note_off_c, 0, 75, 0
2, 55920, Note_on_c, 0, 80, 88
2, 56279, Note_off_c, 0, 80, 0
2, 56280, Note_on_c, 0, 78, 88
2, 56399, Note_off_c, 0, 78, 0
2, 56400, Note_on_c, 0, 78, 88
2, 56437, Note_off_c, 0, 78, 0
2, 56438, Note_on_c, 0, 77, 88
2, 56467, Note_off_c, 0, 77, 0
2, 56468, Note_on_c, 0, 78, 88
2, 56497, Note_off_c, 0, 78, 0
2, 56498, Note_on_c, 0, 77, 88
2, 56527, Note_off_c, 0, 77, 0
2, 56528, Note_on_c, 0, 78, 88
2, 56549, Note_off_c, 0, 78, 0
2, 56550, Note_on_c, 0, 77, 88
2, 56572, Note_off_c, 0, 77, 0
2, 56573, Note_on_c, 0, 78, 88
2, 56594, Note_off_c, 0, 78, 0
2, 56595, Note_on_c, 0, 77, 88
2, 56639, Note_off_c, 0, 77, 0
2, 56640, Note_on_c, 0, 75, 88
2, 56879, Note_off_c, 0, 75, 0
2, 56880, Note_on_c, 0, 75, 88
2, 56917, Note_off_c, 0, 75, 0
2, 56918, Note_on_c, 0, 73, 88
2, 56947, Note_off_c, 0, 73, 0
2, 56948, Note_on_c, 0, 75, 88
2, 56977, Note_off_c, 0, 75, 0
2, 56978, Note_on_c, 0, 73, 88
2, 57007, Note_off_c, 0, 73, 0
2, 57008, Note_on_c, 0, 75, 88
2, 57029, Note_off_c, 0, 75, 0
2, 57030, Note_on_c, 0, 73, 88
2, 57052, Note_off_c, 0, 73, 0
2, 57053, Note_on_c, 0, 75, 88
2, 57074, Note_off_c, 0, 75, 0
2, 57075, Note_on_c, 0, 73, 88
2, 57119, Note_off_c, 0, 73, 0
2, 57120, Note_on_c, 0, 71, 88
2, 57359, Note_off_c, 0, 71, 0
2, 57360, Note_on_c, 0, 70, 88
2, 57599, Note_off_c, 0, 70, 0
2, 57600, Note_on_c, 0, 68, 88
2, 57839, Note_off_c, 0, 68, 0
2, 57840, Note_on_c, 0, 66, 88
2, 58079, Note_off_c, 0, 66, 0
2, 58080, Note_on_c, 0, 65, 88
2, 58439, Note_off_c, 0, 65, 0
2, 58440, Note_on_c, 0, 72, 88
2, 58559, Note_off_c, 0, 72, 0
2, 58560, Note_on_c, 0, 74, 88
2, 58679, Note_off_c, 0, 74, 0
2, 58680, Note_on_c, 0, 75, 88
2, 58799, Note_off_c, 0, 75, 0
2, 58800, Note_on_c, 0, 77, 88
2, 59159, Note_off_c, 0, 77, 0
2, 59160, Note_on_c, 0, 75, 88
2, 59279, Note_off_c, 0, 75, 0
2, 59280, Note_on_c, 0, 73, 88
2, 59339, Note_off_c, 0, 73, 0
2, 59340, Note_on_c, 0, 71, 88
2, 59399, Note_off_c, 0, 71, 0
2, 59400, Note_on_c, 0, 73, 88
2, 59459, Note_off_c, 0, 73, 0
2, 59460, Note_on_c, 0, 79, 88
2, 59519, Note_off_c, 0, 79, 0
2, 59520, Note_on_c, 0, 80, 88
2, 59579, Note_off_c, 0, 80, 0
2, 59580, Note_on_c, 0, 82, 88
2, 59639, Note_off_c, 0, 82, 0
2, 59640, Note_on_c, 0, 83, 88
2, 59879, Note_off_c, 0, 83, 0
2, 59880, Note_on_c, 0, 82, 88
2, 59939, Note_off_c, 0, 82, 0
2, 59940, Note_on_c, 0, 80, 88
2, 59999, Note_off_c, 0, 80, 0
2, 60000, Note_on_c, 0, 82, 88
2, 60119, Note_off_c, 0, 82, 0
2, 60120, Note_on_c, 0, 75, 88
2, 60239, Note_off_c, 0, 75, 0
2, 60240, Note_on_c, 0, 77, 88
2, 60359, Note_off_c, 0, 77, 0
2, 60360, Note_on_c, 0, 79, 88
2, 60479, Note_off_c, 0, 79, 0
2, 60480, Note_on_c, 0, 80, 88
2, 60959, Note_off_c, 0, 80, 0
2, 60960, Note_on_c, 0, 82, 88
2, 61199, Note_off_c, 0, 82, 0
2, 61200, Note_on_c, 0, 75, 88
2, 61559, Note_off_c, 0, 75, 0
2, 61560, Note_on_c, 0, 71, 88
2, 61679, Note_off_c, 0, 71, 0
2, 61680, Note_on_c, 0, 73, 88
2, 61799, Note_off_c, 0, 73, 0
2, 61800, Note_on_c, 0, 75, 88
2, 61919, Note_off_c, 0, 75, 0
2, 61920, Note_on_c, 0, 76, 88
2, 62039, Note_off_c, 0, 76, 0
2, 62040, Note_on_c, 0, 75, 88
2, 62159, Note_off_c, 0, 75, 0
2, 62160, Note_on_c, 0, 73, 88
2, 62399, Note_off_c, 0, 73, 0
2, 62400, Note_on_c, 0, 80, 88
2, 62639, Note_off_c, 0, 80, 0
2, 62640, Note_on_c, 0, 75, 88
2, 62999, Note_off_c, 0, 75, 0
2, 63000, Note_on_c, 0, 77, 88
2, 63119, Note_off_c, 0, 77, 0
2, 63120, Note_on_c, 0, 80, 88
2, 63157, Note_off_c, 0, 80, 0
2, 63158, Note_on_c, 0, 79, 88
2, 63187, Note_off_c, 0, 79, 0
2, 63188, Note_on_c, 0, 80, 88
2, 63217, Note_off_c, 0, 80, 0
2, 63218, Note_on_c, 0, 79, 88
2, 63247, Note_off_c, 0, 79, 0
2, 63248, Note_on_c, 0, 80, 88
2, 63269, Note_off_c, 0, 80, 0
2, 63270, Note_on_c, 0, 79, 88
2, 63292, Note_off_c, 0, 79, 0
2, 63293, Note_on_c, 0, 80, 88
2, 63314, Note_off_c, 0, 80, 0
2, 63315, Note_on_c, 0, 79, 88
2, 63359, Note_off_c, 0, 79, 0
2, 63360, Note_on_c, 0, 80, 88
2, 63479, Note_off_c, 0, 80, 0
2, 63480, Note_on_c, 0, 82, 88
2, 63599, Note_off_c, 0, 82, 0
2, 63600, Note_on_c, 0, 80, 88
2, 63719, Note_off_c, 0, 80, 0
2, 63720, Note_on_c, 0, 78, 88
2, 63839, Note_off_c, 0, 78, 0
2, 63840, Note_on_c, 0, 77, 88
2, 63959, Note_off_c, 0, 77, 0
2, 63960, Note_on_c, 0, 78, 88
2, 64079, Note_off_c, 0, 78, 0
2, 64080, Note_on_c, 0, 80, 88
2, 64439, Note_off_c, 0, 80, 0
2, 64440, Note_on_c, 0, 78, 88
2, 64559, Note_off_c, 0, 78, 0
2, 64560, Note_on_c, 0, 77, 88
2, 64679, Note_off_c, 0, 77, 0
2, 64680, Note_on_c, 0, 78, 88
2, 64739, Note_off_c, 0, 78, 0
2, 64740, Note_on_c, 0, 80, 88
2, 64799, Note_off_c, 0, 80, 0
2, 64800, Note_on_c, 0, 82, 88
2, 64859, Note_off_c, 0, 82, 0
2, 64860, Note_on_c, 0, 80, 88
2, 64919, Note_off_c, 0, 80, 0
2, 64920, Note_on_c, 0, 82, 88
2, 65159, Note_off_c, 0, 82, 0
2, 65160, Note_on_c, 0, 80, 88
2, 65219, Note_off_c, 0, 80, 0
2, 65220, Note_on_c, 0, 78, 88
2, 65279, Note_off_c, 0, 78, 0
2, 65280, Note_on_c, 0, 77, 88
2, 65399, Note_off_c, 0, 77, 0
2, 65400, Note_on_c, 0, 78, 88
2, 65639, Note_off_c, 0, 78, 0
2, 65640, Note_on_c, 0, 77, 88
2, 65759, Note_off_c, 0, 77, 0
2, 65760, Note_on_c, 0, 78, 88
2, 65879, Note_off_c, 0, 78, 0
2, 65880, Note_on_c, 0, 73, 88
2, 65999, Note_off_c, 0, 73, 0
2, 66000, Note_on_c, 0, 78, 88
2, 66359, Note_off_c, 0, 78, 0
2, 66360, Note_on_c, 0, 80, 88
2, 66479, Note_off_c, 0, 80, 0
2, 66480, Note_on_c, 0, 78, 88
2, 66599, Note_off_c, 0, 78, 0
2, 66600, Note_on_c, 0, 76, 88
2, 66719, Note_off_c, 0, 76, 0
2, 66720, Note_on_c, 0, 75, 88
2, 66839, Note_off_c, 0, 75, 0
2, 66840, Note_on_c, 0, 76, 88
2, 66959, Note_off_c, 0, 76, 0
2, 66960, Note_on_c, 0, 78, 88
2, 67199, Note_off_c, 0, 78, 0
2, 67200, Note_on_c, 0, 71, 88
2, 67439, Note_off_c, 0, 71, 0
2, 67440, Note_on_c, 0, 76, 88
2, 67799, Note_off_c, 0, 76, 0
2, 67800, Note_on_c, 0, 75, 88
2, 67919, Note_off_c, 0, 75, 0
2, 67920, Note_on_c, 0, 73, 88
2, 68159, Note_off_c, 0, 73, 0
2, 68160, Note_on_c, 0, 71, 88
2, 68399, Note_off_c, 0, 71, 0
2, 68400, Note_on_c, 0, 76, 88
2, 68759, Note_off_c, 0, 76, 0
2, 68760, Note_on_c, 0, 74, 88
2, 68879, Note_off_c, 0, 74, 0
2, 68880, Note_on_c, 0, 75, 88
2, 69359, Note_off_c, 0, 75, 0
2, 69360, Note_on_c, 0, 80, 88
2, 69719, Note_off_c, 0, 80, 0
2, 69720, Note_on_c, 0, 80, 88
2, 69839, Note_off_c, 0, 80, 0
2, 69840, Note_on_c, 0, 79, 88
2, 69959, Note_off_c, 0, 79, 0
2, 69960, Note_on_c, 0, 78, 88
2, 70199, Note_off_c, 0, 78, 0
2, 70200, Note_on_c, 0, 78, 88
2, 70319, Note_off_c, 0, 78, 0
2, 70320, Note_on_c, 0, 77, 88
2, 70439, Note_off_c, 0, 77, 0
2, 70440, Note_on_c, 0, 76, 88
2, 70559, Note_off_c, 0, 76, 0
2, 70560, Note_on_c, 0, 75, 88
2, 70799, Note_off_c, 0, 75, 0
2, 70800, Note_on_c, 0, 73, 88
2, 71039, Note_off_c, 0, 73, 0
2, 71040, Note_on_c, 0, 71, 88
2, 71399, Note_off_c, 0, 71, 0
2, 71400, Note_on_c, 0, 71, 88
2, 71519, Note_off_c, 0, 71, 0
2, 71520, Note_on_c, 0, 70, 88
2, 71879, Note_off_c, 0, 70, 0
2, 71880, Note_on_c, 0, 78, 88
2, 71999, Note_off_c, 0, 78, 0
2, 72000, Note_on_c, 0, 68, 88
2, 72599, Note_off_c, 0, 68, 0
2, 72600, Note_on_c, 0, 66, 88
2, 72659, Note_off_c, 0, 66, 0
2, 72660, Note_on_c, 0, 65, 88
2, 72719, Note_off_c, 0, 65, 0
2, 72720, Note_on_c, 0, 66, 88
2, 72839, Note_off_c, 0, 66, 0
2, 72840, Note_on_c, 0, 68, 88
2, 72959, Note_off_c, 0, 68, 0
2, 72960, Note_on_c, 0, 70, 88
2, 73439, Note_off_c, 0, 70, 0
2, 73440, Note_on_c, 0, 77, 88
2, 73919, Note_off_c, 0, 77, 0
2, 73920, Note_on_c, 0, 82, 88
2, 74639, Note_off_c, 0, 82, 0
2, 74640, Note_on_c, 0, 83, 88
2, 74879, Note_off_c, 0, 83, 0
2, 74880, Note_on_c, 0, 82, 88
2, 75119, Note_off_c, 0, 82, 0
2, 75120, Note_on_c, 0, 80, 88
2, 75359, Note_off_c, 0, 80, 0
2, 75360, Note_on_c, 0, 78, 88
2, 75599, Note_off_c, 0, 78, 0
2, 75600, Note_on_c, 0, 80, 88
2, 75839, Note_off_c, 0, 80, 0
2, 75840, Note_on_c, 0, 82, 88
2, 76319, Note_off_c, 0, 82, 0
2, 76320, Note_on_c, 0, 75, 88
2, 76799, Note_off_c, 0, 75, 0
2, 76800, Note_on_c, 0, 80, 88
2, 77519, Note_off_c, 0, 80, 0
2, 77520, Note_on_c, 0, 78, 88
2, 77759, Note_off_c, 0, 78, 0
2, 77760, Note_on_c, 0, 76, 88
2, 78239, Note_off_c, 0, 76, 0
2, 78240, Note_on_c, 0, 75, 88
2, 78839, Note_off_c, 0, 75, 0
2, 78840, Note_on_c, 0, 71, 88
2, 78959, Note_off_c, 0, 71, 0
2, 78960, Note_on_c, 0, 68, 88
2, 79319, Note_off_c, 0, 68, 0
2, 79320, Note_on_c, 0, 70, 88
2, 79439, Note_off_c, 0, 70, 0
2, 79440, Note_on_c, 0, 71, 88
2, 79799, Note_off_c, 0, 71, 0
2, 79800, Note_on_c, 0, 68, 88
2, 79919, Note_off_c, 0, 68, 0
2, 79920, Note_on_c, 0, 65, 88
2, 80279, Note_off_c, 0, 65, 0
2, 80280, Note_on_c, 0, 66, 88
2, 80399, Note_off_c, 0, 66, 0
2, 80400, Note_on_c, 0, 68, 88
2, 80759, Note_off_c, 0, 68, 0
2, 80760, Note_on_c, 0, 65, 88
2, 80879, Note_off_c, 0, 65, 0
2, 80880, Note_on_c, 0, 62, 88
2, 81239, Note_off_c, 0, 62, 0
2, 81240, Note_on_c, 0, 62, 88
2, 81359, Note_off_c, 0, 62, 0
2, 81360, Note_on_c, 0, 63, 88
2, 81479, Note_off_c, 0, 63, 0
2, 81480, Note_on_c, 0, 65, 88
2, 81599, Note_off_c, 0, 65, 0
2, 81600, Note_on_c, 0, 66, 88
2, 81719, Note_off_c, 0, 66, 0
2, 81720, Note_on_c, 0, 67, 88
2, 81839, Note_off_c, 0, 67, 0
2, 81840, Note_on_c, 0, 68, 88
2, 81959, Note_off_c, 0, 68, 0
2, 81960, Note_on_c, 0, 70, 88
2, 82079, Note_off_c, 0, 70, 0
2, 82080, Note_on_c, 0, 71, 88
2, 82199, Note_off_c, 0, 71, 0
2, 82200, Note_on_c, 0, 72, 88
2, 82319, Note_off_c, 0, 72, 0
2, 82320, Note_on_c, 0, 74, 88
2, 82439, Note_off_c, 0, 74, 0
2, 82440, Note_on_c, 0, 75, 88
2, 82559, Note_off_c, 0, 75, 0
2, 82560, Note_on_c, 0, 75, 88
2, 82799, Note_off_c, 0, 75, 0
2, 82800, Note_on_c, 0, 74, 88
2, 83039, Note_off_c, 0, 74, 0
2, 83040, Note_on_c, 0, 75, 88
2, 83080, Note_off_c, 0, 75, 0
2, 83080, End_track
0, 0, End_of_file