0, 0, Header, 1, 7, 240
1, 0, Start_track
1, 0, Time_signature, 4, 2, 24, 8
1, 0, Tempo, 937500
1, 0, SMPTE_offset, 64, 0, 0, 0, 93
1, 0, End_track
2, 0, Start_track
2, 0, Title_t, "(C) & (P) 1993"
2, 127, End_track
3, 0, Start_track
3, 0, Title_t, "CCARH,Stanford"
3, 0, End_track
4, 0, Start_track
4, 0, Title_t, "Track 1"
4, 0, Program_c, 0, 6
4, 1560, Note_on_c, 0, 67, 88
4, 1676, Note_off_c, 0, 67, 0
4, 1680, Note_on_c, 0, 70, 88
4, 1796, Note_off_c, 0, 70, 0
4, 1800, Note_on_c, 0, 62, 88
4, 1916, Note_off_c, 0, 62, 0
4, 1920, Note_on_c, 0, 62, 88
4, 1935, Note_on_c, 0, 61, 88
4, 1935, Note_off_c, 0, 62, 0
4, 1957, Note_off_c, 0, 61, 0
4, 1958, Note_on_c, 0, 62, 88
4, 1979, Note_off_c, 0, 62, 0
4, 1980, Note_on_c, 0, 61, 88
4, 2002, Note_off_c, 0, 61, 0
4, 2003, Note_on_c, 0, 62, 88
4, 2017, Note_off_c, 0, 62, 0
4, 2018, Note_on_c, 0, 61, 88
4, 2156, Note_off_c, 0, 61, 0
4, 2160, Note_on_c, 0, 62, 88
4, 2394, Note_off_c, 0, 62, 0
4, 2520, Note_on_c, 0, 64, 88
4, 2578, Note_off_c, 0, 64, 0
4, 2580, Note_on_c, 0, 65, 88
4, 2638, Note_off_c, 0, 65, 0
4, 2640, Note_on_c, 0, 67, 88
4, 2756, Note_off_c, 0, 67, 0
4, 2760, Note_on_c, 0, 65, 88
4, 2818, Note_off_c, 0, 65, 0
4, 2820, Note_on_c, 0, 64, 88
4, 2878, Note_off_c, 0, 64, 0
4, 2880, Note_on_c, 0, 65, 88
4, 2996, Note_off_c, 0, 65, 0
4, 3000, Note_on_c, 0, 67, 88
4, 3058, Note_off_c, 0, 67, 0
4, 3060, Note_on_c, 0, 69, 88
4, 3118, Note_off_c, 0, 69, 0
4, 3120, Note_on_c, 0, 70, 88
4, 3236, Note_off_c, 0, 70, 0
4, 3240, Note_on_c, 0, 69, 88
4, 3298, Note_off_c, 0, 69, 0
4, 3300, Note_on_c, 0, 67, 88
4, 3358, Note_off_c, 0, 67, 0
4, 3360, Note_on_c, 0, 69, 88
4, 3476, Note_off_c, 0, 69, 0
4, 3480, Note_on_c, 0, 70, 88
4, 3538, Note_off_c, 0, 70, 0
4, 3540, Note_on_c, 0, 72, 88
4, 3598, Note_off_c, 0, 72, 0
4, 3600, Note_on_c, 0, 74, 88
4, 3716, Note_off_c, 0, 74, 0
4, 3720, Note_on_c, 0, 72, 88
4, 3778, Note_off_c, 0, 72, 0
4, 3780, Note_on_c, 0, 70, 88
4, 3838, Note_off_c, 0, 70, 0
4, 3840, Note_on_c, 0, 72, 88
4, 4074, Note_off_c, 0, 72, 0
4, 4080, Note_on_c, 0, 70, 88
4, 4314, Note_off_c, 0, 70, 0
4, 4320, Note_on_c, 0, 69, 88
4, 4436, Note_off_c, 0, 69, 0
4, 4440, Note_on_c, 0, 74, 88
4, 4498, Note_off_c, 0, 74, 0
4, 4500, Note_on_c, 0, 72, 88
4, 4558, Note_off_c, 0, 72, 0
4, 4560, Note_on_c, 0, 70, 88
4, 4676, Note_off_c, 0, 70, 0
4, 4680, Note_on_c, 0, 72, 88
4, 4738, Note_off_c, 0, 72, 0
4, 4740, Note_on_c, 0, 74, 88
4, 4798, Note_off_c, 0, 74, 0
4, 4800, Note_on_c, 0, 75, 88
4, 4916, Note_off_c, 0, 75, 0
4, 4920, Note_on_c, 0, 72, 88
4, 5036, Note_off_c, 0, 72, 0
4, 5040, Note_on_c, 0, 69, 88
4, 5156, Note_off_c, 0, 69, 0
4, 5160, Note_on_c, 0, 78, 88
4, 5276, Note_off_c, 0, 78, 0
4, 5280, Note_on_c, 0, 79, 88
4, 5514, Note_off_c, 0, 79, 0
4, 5880, Note_on_c, 0, 64, 88
4, 5996, Note_off_c, 0, 64, 0
4, 6000, Note_on_c, 0, 69, 88
4, 6116, Note_off_c, 0, 69, 0
4, 6120, Note_on_c, 0, 65, 88
4, 6236, Note_off_c, 0, 65, 0
4, 6240, Note_on_c, 0, 62, 88
4, 6474, Note_off_c, 0, 62, 0
4, 6480, Note_on_c, 0, 61, 88
4, 6596, Note_off_c, 0, 61, 0
4, 6600, Note_on_c, 0, 64, 88
4, 6836, Note_off_c, 0, 64, 0
4, 6840, Note_on_c, 0, 62, 88
4, 6956, Note_off_c, 0, 62, 0
4, 6960, Note_on_c, 0, 67, 88
4, 7254, Note_off_c, 0, 67, 0
4, 7260, Note_on_c, 0, 66, 88
4, 7318, Note_off_c, 0, 66, 0
4, 7320, Note_on_c, 0, 67, 88
4, 7378, Note_off_c, 0, 67, 0
4, 7380, Note_on_c, 0, 69, 88
4, 7438, Note_off_c, 0, 69, 0
4, 7440, Note_on_c, 0, 70, 88
4, 7914, Note_off_c, 0, 70, 0
4, 7920, Note_on_c, 0, 69, 88
4, 8214, Note_off_c, 0, 69, 0
4, 8220, Note_on_c, 0, 62, 88
4, 8278, Note_off_c, 0, 62, 0
4, 8280, Note_on_c, 0, 64, 88
4, 8338, Note_off_c, 0, 64, 0
4, 8340, Note_on_c, 0, 66, 88
4, 8398, Note_off_c, 0, 66, 0
4, 8400, Note_on_c, 0, 67, 88
4, 8756, Note_off_c, 0, 67, 0
4, 8760, Note_on_c, 0, 66, 88
4, 8818, Note_off_c, 0, 66, 0
4, 8820, Note_on_c, 0, 67, 88
4, 8878, Note_off_c, 0, 67, 0
4, 8880, Note_on_c, 0, 69, 88
4, 8996, Note_off_c, 0, 69, 0
4, 9000, Note_on_c, 0, 67, 88
4, 9058, Note_off_c, 0, 67, 0
4, 9060, Note_on_c, 0, 66, 88
4, 9118, Note_off_c, 0, 66, 0
4, 9120, Note_on_c, 0, 67, 88
4, 9473, Note_off_c, 0, 67, 0
4, 9480, Note_on_c, 0, 72, 88
4, 9596, Note_off_c, 0, 72, 0
4, 9600, Note_on_c, 0, 65, 88
4, 9716, Note_off_c, 0, 65, 0
4, 9720, Note_on_c, 0, 67, 88
4, 9778, Note_off_c, 0, 67, 0
4, 9780, Note_on_c, 0, 69, 88
4, 9838, Note_off_c, 0, 69, 0
4, 9840, Note_on_c, 0, 70, 88
4, 10305, Note_off_c, 0, 70, 0
4, 10320, Note_on_c, 0, 70, 88
4, 10356, Note_off_c, 0, 70, 0
4, 10358, Note_on_c, 0, 69, 88
4, 10379, Note_off_c, 0, 69, 0
4, 10380, Note_on_c, 0, 70, 88
4, 10402, Note_off_c, 0, 70, 0
4, 10403, Note_on_c, 0, 69, 88
4, 10424, Note_off_c, 0, 69, 0
4, 10425, Note_on_c, 0, 70, 88
4, 10447, Note_off_c, 0, 70, 0
4, 10448, Note_on_c, 0, 69, 88
4, 10469, Note_off_c, 0, 69, 0
4, 10470, Note_on_c, 0, 70, 88
4, 10492, Note_off_c, 0, 70, 0
4, 10493, Note_on_c, 0, 69, 88
4, 10514, Note_off_c, 0, 69, 0
4, 10515, Note_on_c, 0, 67, 88
4, 10537, Note_off_c, 0, 67, 0
4, 10538, Note_on_c, 0, 69, 88
4, 10559, Note_off_c, 0, 69, 0
4, 10560, Note_on_c, 0, 70, 88
4, 10794, Note_off_c, 0, 70, 0
4, 13560, Note_on_c, 0, 72, 88
4, 13676, Note_off_c, 0, 72, 0
4, 13680, Note_on_c, 0, 74, 88
4, 13796, Note_off_c, 0, 74, 0
4, 13800, Note_on_c, 0, 65, 88
4, 13905, Note_off_c, 0, 65, 0
4, 13920, Note_on_c, 0, 65, 88
4, 13935, Note_on_c, 0, 64, 88
4, 13935, Note_off_c, 0, 65, 0
4, 13957, Note_off_c, 0, 64, 0
4, 13958, Note_on_c, 0, 65, 88
4, 13979, Note_off_c, 0, 65, 0
4, 13980, Note_on_c, 0, 64, 88
4, 13995, Note_off_c, 0, 64, 0
4, 13995, Note_on_c, 0, 65, 88
4, 14010, Note_on_c, 0, 64, 88
4, 14010, Note_off_c, 0, 65, 0
4, 14025, Note_off_c, 0, 64, 0
4, 14025, Note_on_c, 0, 65, 88
4, 14040, Note_on_c, 0, 64, 88
4, 14040, Note_off_c, 0, 65, 0
4, 14156, Note_off_c, 0, 64, 0
4, 14160, Note_on_c, 0, 65, 88
4, 14394, Note_off_c, 0, 65, 0
4, 14520, Note_on_c, 0, 67, 88
4, 14578, Note_off_c, 0, 67, 0
4, 14580, Note_on_c, 0, 69, 88
4, 14638, Note_off_c, 0, 69, 0
4, 14640, Note_on_c, 0, 70, 88
4, 14756, Note_off_c, 0, 70, 0
4, 14760, Note_on_c, 0, 69, 88
4, 14818, Note_off_c, 0, 69, 0
4, 14820, Note_on_c, 0, 67, 88
4, 14878, Note_off_c, 0, 67, 0
4, 14880, Note_on_c, 0, 69, 88
4, 14996, Note_off_c, 0, 69, 0
4, 15000, Note_on_c, 0, 70, 88
4, 15058, Note_off_c, 0, 70, 0
4, 15060, Note_on_c, 0, 72, 88
4, 15118, Note_off_c, 0, 72, 0
4, 15120, Note_on_c, 0, 74, 88
4, 15236, Note_off_c, 0, 74, 0
4, 15240, Note_on_c, 0, 72, 88
4, 15298, Note_off_c, 0, 72, 0
4, 15300, Note_on_c, 0, 70, 88
4, 15358, Note_off_c, 0, 70, 0
4, 15360, Note_on_c, 0, 72, 88
4, 15476, Note_off_c, 0, 72, 0
4, 15480, Note_on_c, 0, 74, 88
4, 15538, Note_off_c, 0, 74, 0
4, 15540, Note_on_c, 0, 72, 88
4, 15598, Note_off_c, 0, 72, 0
4, 15600, Note_on_c, 0, 70, 88
4, 15716, Note_off_c, 0, 70, 0
4, 15720, Note_on_c, 0, 72, 88
4, 15778, Note_off_c, 0, 72, 0
4, 15780, Note_on_c, 0, 74, 88
4, 15838, Note_off_c, 0, 74, 0
4, 15840, Note_on_c, 0, 75, 88
4, 15956, Note_off_c, 0, 75, 0
4, 15960, Note_on_c, 0, 77, 88
4, 16018, Note_off_c, 0, 77, 0
4, 16020, Note_on_c, 0, 75, 88
4, 16078, Note_off_c, 0, 75, 0
4, 16080, Note_on_c, 0, 74, 88
4, 16196, Note_off_c, 0, 74, 0
4, 16200, Note_on_c, 0, 75, 88
4, 16258, Note_off_c, 0, 75, 0
4, 16260, Note_on_c, 0, 77, 88
4, 16318, Note_off_c, 0, 77, 0
4, 16320, Note_on_c, 0, 79, 88
4, 16436, Note_off_c, 0, 79, 0
4, 16440, Note_on_c, 0, 75, 88
4, 16556, Note_off_c, 0, 75, 0
4, 16560, Note_on_c, 0, 72, 88
4, 16676, Note_off_c, 0, 72, 0
4, 16680, Note_on_c, 0, 81, 88
4, 16796, Note_off_c, 0, 81, 0
4, 16800, Note_on_c, 0, 82, 88
4, 16916, Note_off_c, 0, 82, 0
4, 17400, Note_on_c, 0, 79, 88
4, 17458, Note_off_c, 0, 79, 0
4, 17460, Note_on_c, 0, 80, 88
4, 17518, Note_off_c, 0, 80, 0
4, 17520, Note_on_c, 0, 82, 88
4, 17636, Note_off_c, 0, 82, 0
4, 17640, Note_on_c, 0, 80, 88
4, 17698, Note_off_c, 0, 80, 0
4, 17700, Note_on_c, 0, 79, 88
4, 17758, Note_off_c, 0, 79, 0
4, 17760, Note_on_c, 0, 80, 88
4, 17865, Note_off_c, 0, 80, 0
4, 17880, Note_on_c, 0, 80, 88
4, 17938, Note_off_c, 0, 80, 0
4, 17940, Note_on_c, 0, 79, 88
4, 17998, Note_off_c, 0, 79, 0
4, 18000, Note_on_c, 0, 77, 88
4, 18116, Note_off_c, 0, 77, 0
4, 18120, Note_on_c, 0, 79, 88
4, 18178, Note_off_c, 0, 79, 0
4, 18180, Note_on_c, 0, 80, 88
4, 18238, Note_off_c, 0, 80, 0
4, 18240, Note_on_c, 0, 74, 88
4, 18356, Note_off_c, 0, 74, 0
4, 18360, Note_on_c, 0, 79, 88
4, 18594, Note_off_c, 0, 79, 0
4, 18600, Note_on_c, 0, 77, 88
4, 18658, Note_off_c, 0, 77, 0
4, 18660, Note_on_c, 0, 75, 88
4, 18718, Note_off_c, 0, 75, 0
4, 18720, Note_on_c, 0, 74, 88
4, 19073, Note_off_c, 0, 74, 0
4, 19080, Note_on_c, 0, 72, 88
4, 19138, Note_off_c, 0, 72, 0
4, 19140, Note_on_c, 0, 71, 88
4, 19198, Note_off_c, 0, 71, 0
4, 19200, Note_on_c, 0, 72, 88
4, 19434, Note_off_c, 0, 72, 0
4, 19440, Note_on_c, 0, 71, 88
4, 19556, Note_off_c, 0, 71, 0
4, 19560, Note_on_c, 0, 74, 88
4, 19676, Note_off_c, 0, 74, 0
4, 19680, Note_on_c, 0, 67, 88
4, 19796, Note_off_c, 0, 67, 0
4, 19800, Note_on_c, 0, 79, 88
4, 19916, Note_off_c, 0, 79, 0
4, 19920, Note_on_c, 0, 80, 88
4, 20036, Note_off_c, 0, 80, 0
4, 20040, Note_on_c, 0, 72, 88
4, 20156, Note_off_c, 0, 72, 0
4, 20160, Note_on_c, 0, 72, 88
4, 20175, Note_on_c, 0, 71, 88
4, 20175, Note_off_c, 0, 72, 0
4, 20197, Note_off_c, 0, 71, 0
4, 20198, Note_on_c, 0, 72, 88
4, 20219, Note_off_c, 0, 72, 0
4, 20220, Note_on_c, 0, 71, 88
4, 20235, Note_off_c, 0, 71, 0
4, 20235, Note_on_c, 0, 72, 88
4, 20250, Note_on_c, 0, 71, 88
4, 20250, Note_off_c, 0, 72, 0
4, 20265, Note_off_c, 0, 71, 0
4, 20265, Note_on_c, 0, 72, 88
4, 20280, Note_on_c, 0, 71, 88
4, 20280, Note_off_c, 0, 72, 0
4, 20396, Note_off_c, 0, 71, 0
4, 20400, Note_on_c, 0, 72, 88
4, 20634, Note_off_c, 0, 72, 0
4, 20760, Note_on_c, 0, 74, 88
4, 20818, Note_off_c, 0, 74, 0
4, 20820, Note_on_c, 0, 75, 88
4, 20878, Note_off_c, 0, 75, 0
4, 20880, Note_on_c, 0, 77, 88
4, 20996, Note_off_c, 0, 77, 0
4, 21000, Note_on_c, 0, 75, 88
4, 21058, Note_off_c, 0, 75, 0
4, 21060, Note_on_c, 0, 74, 88
4, 21118, Note_off_c, 0, 74, 0
4, 21120, Note_on_c, 0, 75, 88
4, 21178, Note_off_c, 0, 75, 0
4, 21180, Note_on_c, 0, 74, 88
4, 21238, Note_off_c, 0, 74, 0
4, 21240, Note_on_c, 0, 75, 88
4, 21298, Note_off_c, 0, 75, 0
4, 21300, Note_on_c, 0, 77, 88
4, 21358, Note_off_c, 0, 77, 0
4, 21360, Note_on_c, 0, 79, 88
4, 21476, Note_off_c, 0, 79, 0
4, 21720, Note_on_c, 0, 74, 88
4, 21778, Note_off_c, 0, 74, 0
4, 21780, Note_on_c, 0, 72, 88
4, 21838, Note_off_c, 0, 72, 0
4, 21840, Note_on_c, 0, 70, 88
4, 21956, Note_off_c, 0, 70, 0
4, 21960, Note_on_c, 0, 72, 88
4, 22018, Note_off_c, 0, 72, 0
4, 22020, Note_on_c, 0, 74, 88
4, 22078, Note_off_c, 0, 74, 0
4, 22080, Note_on_c, 0, 75, 88
4, 22138, Note_off_c, 0, 75, 0
4, 22140, Note_on_c, 0, 74, 88
4, 22198, Note_off_c, 0, 74, 0
4, 22200, Note_on_c, 0, 72, 88
4, 22258, Note_off_c, 0, 72, 0
4, 22260, Note_on_c, 0, 70, 88
4, 22318, Note_off_c, 0, 70, 0
4, 22320, Note_on_c, 0, 69, 88
4, 22436, Note_off_c, 0, 69, 0
4, 22440, Note_on_c, 0, 78, 88
4, 22556, Note_off_c, 0, 78, 0
4, 22560, Note_on_c, 0, 79, 88
4, 22676, Note_off_c, 0, 79, 0
4, 22860, Note_on_c, 0, 74, 88
4, 22918, Note_off_c, 0, 74, 0
4, 22920, Note_on_c, 0, 72, 88
4, 22978, Note_off_c, 0, 72, 0
4, 22980, Note_on_c, 0, 70, 88
4, 23038, Note_off_c, 0, 70, 0
4, 23040, Note_on_c, 0, 69, 88
4, 23334, Note_off_c, 0, 69, 0
4, 23340, Note_on_c, 0, 70, 88
4, 23398, Note_off_c, 0, 70, 0
4, 23400, Note_on_c, 0, 72, 88
4, 23458, Note_off_c, 0, 72, 0
4, 23460, Note_on_c, 0, 74, 88
4, 23518, Note_off_c, 0, 74, 0
4, 23520, Note_on_c, 0, 67, 88
4, 23814, Note_off_c, 0, 67, 0
4, 23820, Note_on_c, 0, 70, 88
4, 23878, Note_off_c, 0, 70, 0
4, 23880, Note_on_c, 0, 68, 88
4, 23938, Note_off_c, 0, 68, 0
4, 23940, Note_on_c, 0, 67, 88
4, 23998, Note_off_c, 0, 67, 0
4, 24000, Note_on_c, 0, 65, 88
4, 24294, Note_off_c, 0, 65, 0
4, 24300, Note_on_c, 0, 67, 88
4, 24358, Note_off_c, 0, 67, 0
4, 24360, Note_on_c, 0, 68, 88
4, 24418, Note_off_c, 0, 68, 0
4, 24420, Note_on_c, 0, 70, 88
4, 24478, Note_off_c, 0, 70, 0
4, 24480, Note_on_c, 0, 63, 88
4, 24774, Note_off_c, 0, 63, 0
4, 24780, Note_on_c, 0, 67, 88
4, 24838, Note_off_c, 0, 67, 0
4, 24840, Note_on_c, 0, 65, 88
4, 24898, Note_off_c, 0, 65, 0
4, 24900, Note_on_c, 0, 63, 88
4, 24958, Note_off_c, 0, 63, 0
4, 24960, Note_on_c, 0, 62, 88
4, 25245, Note_off_c, 0, 62, 0
4, 25260, Note_on_c, 0, 62, 88
4, 25318, Note_off_c, 0, 62, 0
4, 25320, Note_on_c, 0, 64, 88
4, 25378, Note_off_c, 0, 64, 0
4, 25380, Note_on_c, 0, 66, 88
4, 25438, Note_off_c, 0, 66, 0
4, 25440, Note_on_c, 0, 67, 88
4, 25734, Note_off_c, 0, 67, 0
4, 25740, Note_on_c, 0, 70, 88
4, 25798, Note_off_c, 0, 70, 0
4, 25800, Note_on_c, 0, 69, 88
4, 25858, Note_off_c, 0, 69, 0
4, 25860, Note_on_c, 0, 67, 88
4, 25918, Note_off_c, 0, 67, 0
4, 25920, Note_on_c, 0, 66, 88
4, 26036, Note_off_c, 0, 66, 0
4, 26040, Note_on_c, 0, 74, 88
4, 26156, Note_off_c, 0, 74, 0
4, 26160, Note_on_c, 0, 75, 88
4, 26276, Note_off_c, 0, 75, 0
4, 26280, Note_on_c, 0, 67, 88
4, 26385, Note_off_c, 0, 67, 0
4, 26400, Note_on_c, 0, 67, 88
4, 26415, Note_on_c, 0, 66, 88
4, 26415, Note_off_c, 0, 67, 0
4, 26437, Note_off_c, 0, 66, 0
4, 26438, Note_on_c, 0, 67, 88
4, 26459, Note_off_c, 0, 67, 0
4, 26460, Note_on_c, 0, 66, 88
4, 26475, Note_off_c, 0, 66, 0
4, 26475, Note_on_c, 0, 67, 88
4, 26490, Note_on_c, 0, 66, 88
4, 26490, Note_off_c, 0, 67, 0
4, 26505, Note_off_c, 0, 66, 0
4, 26505, Note_on_c, 0, 67, 88
4, 26520, Note_on_c, 0, 66, 88
4, 26520, Note_off_c, 0, 67, 0
4, 26636, Note_off_c, 0, 66, 0
4, 26640, Note_on_c, 0, 67, 88
4, 26874, Note_off_c, 0, 67, 0
4, 27000, Note_on_c, 0, 69, 88
4, 27058, Note_off_c, 0, 69, 0
4, 27060, Note_on_c, 0, 70, 88
4, 27118, Note_off_c, 0, 70, 0
4, 27120, Note_on_c, 0, 72, 88
4, 27236, Note_off_c, 0, 72, 0
4, 27240, Note_on_c, 0, 70, 88
4, 27298, Note_off_c, 0, 70, 0
4, 27300, Note_on_c, 0, 69, 88
4, 27358, Note_off_c, 0, 69, 0
4, 27360, Note_on_c, 0, 74, 88
4, 27476, Note_off_c, 0, 74, 0
4, 28440, Note_on_c, 0, 74, 88
4, 28498, Note_off_c, 0, 74, 0
4, 28500, Note_on_c, 0, 75, 88
4, 28558, Note_off_c, 0, 75, 0
4, 28560, Note_on_c, 0, 77, 88
4, 28676, Note_off_c, 0, 77, 0
4, 28680, Note_on_c, 0, 75, 88
4, 28738, Note_off_c, 0, 75, 0
4, 28740, Note_on_c, 0, 74, 88
4, 28798, Note_off_c, 0, 74, 0
4, 28800, Note_on_c, 0, 75, 88
4, 29094, Note_off_c, 0, 75, 0
4, 29100, Note_on_c, 0, 74, 88
4, 29158, Note_off_c, 0, 74, 0
4, 29160, Note_on_c, 0, 72, 88
4, 29218, Note_off_c, 0, 72, 0
4, 29220, Note_on_c, 0, 70, 88
4, 29278, Note_off_c, 0, 70, 0
4, 29280, Note_on_c, 0, 69, 88
4, 29514, Note_off_c, 0, 69, 0
4, 29640, Note_on_c, 0, 75, 88
4, 29698, Note_off_c, 0, 75, 0
4, 29700, Note_on_c, 0, 74, 88
4, 29758, Note_off_c, 0, 74, 0
4, 29760, Note_on_c, 0, 72, 88
4, 29876, Note_off_c, 0, 72, 0
4, 29880, Note_on_c, 0, 74, 88
4, 29938, Note_off_c, 0, 74, 0
4, 29940, Note_on_c, 0, 75, 88
4, 29998, Note_off_c, 0, 75, 0
4, 30000, Note_on_c, 0, 74, 88
4, 30116, Note_off_c, 0, 74, 0
4, 30120, Note_on_c, 0, 76, 88
4, 30178, Note_off_c, 0, 76, 0
4, 30180, Note_on_c, 0, 78, 88
4, 30238, Note_off_c, 0, 78, 0
4, 30240, Note_on_c, 0, 79, 88
4, 30356, Note_off_c, 0, 79, 0
4, 30360, Note_on_c, 0, 78, 88
4, 30418, Note_off_c, 0, 78, 0
4, 30420, Note_on_c, 0, 79, 88
4, 30478, Note_off_c, 0, 79, 0
4, 30480, Note_on_c, 0, 81, 88
4, 30836, Note_off_c, 0, 81, 0
4, 30840, Note_on_c, 0, 74, 88
4, 30956, Note_off_c, 0, 74, 0
4, 30960, Note_on_c, 0, 79, 88
4, 31076, Note_off_c, 0, 79, 0
4, 31080, Note_on_c, 0, 77, 88
4, 31196, Note_off_c, 0, 77, 0
4, 31200, Note_on_c, 0, 75, 88
4, 31316, Note_off_c, 0, 75, 0
4, 31320, Note_on_c, 0, 74, 88
4, 31436, Note_off_c, 0, 74, 0
4, 31440, Note_on_c, 0, 72, 88
4, 31556, Note_off_c, 0, 72, 0
4, 31560, Note_on_c, 0, 70, 88
4, 31676, Note_off_c, 0, 70, 0
4, 31680, Note_on_c, 0, 69, 88
4, 32150, Note_off_c, 0, 69, 0
4, 32160, Note_on_c, 0, 67, 88
4, 32630, Note_off_c, 0, 67, 0
4, 32630, End_track
5, 0, Start_track
5, 0, Title_t, "Track 2"
5, 0, Program_c, 1, 6
5, 120, Note_on_c, 1, 62, 88
5, 236, Note_off_c, 1, 62, 0
5, 240, Note_on_c, 1, 63, 88
5, 356, Note_off_c, 1, 63, 0
5, 360, Note_on_c, 1, 55, 88
5, 465, Note_off_c, 1, 55, 0
5, 480, Note_on_c, 1, 55, 88
5, 495, Note_on_c, 1, 54, 88
5, 495, Note_off_c, 1, 55, 0
5, 517, Note_off_c, 1, 54, 0
5, 518, Note_on_c, 1, 55, 88
5, 539, Note_off_c, 1, 55, 0
5, 540, Note_on_c, 1, 54, 88
5, 562, Note_off_c, 1, 54, 0
5, 563, Note_on_c, 1, 55, 88
5, 577, Note_off_c, 1, 55, 0
5, 578, Note_on_c, 1, 54, 88
5, 716, Note_off_c, 1, 54, 0
5, 720, Note_on_c, 1, 55, 88
5, 954, Note_off_c, 1, 55, 0
5, 1080, Note_on_c, 1, 57, 88
5, 1138, Note_off_c, 1, 57, 0
5, 1140, Note_on_c, 1, 58, 88
5, 1198, Note_off_c, 1, 58, 0
5, 1200, Note_on_c, 1, 60, 88
5, 1316, Note_off_c, 1, 60, 0
5, 1320, Note_on_c, 1, 58, 88
5, 1378, Note_off_c, 1, 58, 0
5, 1380, Note_on_c, 1, 57, 88
5, 1438, Note_off_c, 1, 57, 0
5, 1440, Note_on_c, 1, 58, 88
5, 1674, Note_off_c, 1, 58, 0
5, 1680, Note_on_c, 1, 55, 88
5, 1914, Note_off_c, 1, 55, 0
5, 2040, Note_on_c, 1, 57, 88
5, 2098, Note_off_c, 1, 57, 0
5, 2100, Note_on_c, 1, 55, 88
5, 2158, Note_off_c, 1, 55, 0
5, 2160, Note_on_c, 1, 53, 88
5, 2276, Note_off_c, 1, 53, 0
5, 2280, Note_on_c, 1, 55, 88
5, 2338, Note_off_c, 1, 55, 0
5, 2340, Note_on_c, 1, 57, 88
5, 2398, Note_off_c, 1, 57, 0
5, 2400, Note_on_c, 1, 58, 88
5, 2516, Note_off_c, 1, 58, 0
5, 2520, Note_on_c, 1, 55, 88
5, 2636, Note_off_c, 1, 55, 0
5, 2640, Note_on_c, 1, 52, 88
5, 2756, Note_off_c, 1, 52, 0
5, 2760, Note_on_c, 1, 61, 88
5, 2876, Note_off_c, 1, 61, 0
5, 2880, Note_on_c, 1, 62, 88
5, 3233, Note_off_c, 1, 62, 0
5, 3240, Note_on_c, 1, 64, 88
5, 3356, Note_off_c, 1, 64, 0
5, 3360, Note_on_c, 1, 65, 88
5, 3476, Note_off_c, 1, 65, 0
5, 3480, Note_on_c, 1, 64, 88
5, 3596, Note_off_c, 1, 64, 0
5, 3600, Note_on_c, 1, 65, 88
5, 3716, Note_off_c, 1, 65, 0
5, 3720, Note_on_c, 1, 67, 88
5, 3836, Note_off_c, 1, 67, 0
5, 3840, Note_on_c, 1, 69, 88
5, 3956, Note_off_c, 1, 69, 0
5, 3960, Note_on_c, 1, 67, 88
5, 4018, Note_off_c, 1, 67, 0
5, 4020, Note_on_c, 1, 66, 88
5, 4078, Note_off_c, 1, 66, 0
5, 4080, Note_on_c, 1, 67, 88
5, 4196, Note_off_c, 1, 67, 0
5, 4200, Note_on_c, 1, 61, 88
5, 4316, Note_off_c, 1, 61, 0
5, 4320, Note_on_c, 1, 62, 88
5, 4436, Note_off_c, 1, 62, 0
5, 4440, Note_on_c, 1, 69, 88
5, 4674, Note_off_c, 1, 69, 0
5, 4680, Note_on_c, 1, 67, 88
5, 4738, Note_off_c, 1, 67, 0
5, 4740, Note_on_c, 1, 66, 88
5, 4798, Note_off_c, 1, 66, 0
5, 4800, Note_on_c, 1, 67, 88
5, 5034, Note_off_c, 1, 67, 0
5, 5040, Note_on_c, 1, 66, 88
5, 5156, Note_off_c, 1, 66, 0
5, 5160, Note_on_c, 1, 69, 88
5, 5276, Note_off_c, 1, 69, 0
5, 5280, Note_on_c, 1, 74, 88
5, 5514, Note_off_c, 1, 74, 0
5, 10680, Note_on_c, 1, 65, 88
5, 10796, Note_off_c, 1, 65, 0
5, 10800, Note_on_c, 1, 67, 88
5, 10916, Note_off_c, 1, 67, 0
5, 10920, Note_on_c, 1, 58, 88
5, 11025, Note_off_c, 1, 58, 0
5, 11040, Note_on_c, 1, 58, 88
5, 11055, Note_on_c, 1, 57, 88
5, 11055, Note_off_c, 1, 58, 0
5, 11077, Note_off_c, 1, 57, 0
5, 11078, Note_on_c, 1, 58, 88
5, 11099, Note_off_c, 1, 58, 0
5, 11100, Note_on_c, 1, 57, 88
5, 11115, Note_off_c, 1, 57, 0
5, 11115, Note_on_c, 1, 58, 88
5, 11130, Note_on_c, 1, 57, 88
5, 11130, Note_off_c, 1, 58, 0
5, 11145, Note_off_c, 1, 57, 0
5, 11145, Note_on_c, 1, 58, 88
5, 11160, Note_on_c, 1, 57, 88
5, 11160, Note_off_c, 1, 58, 0
5, 11276, Note_off_c, 1, 57, 0
5, 11280, Note_on_c, 1, 58, 88
5, 11514, Note_off_c, 1, 58, 0
5, 11640, Note_on_c, 1, 60, 88
5, 11698, Note_off_c, 1, 60, 0
5, 11700, Note_on_c, 1, 62, 88
5, 11758, Note_off_c, 1, 62, 0
5, 11760, Note_on_c, 1, 63, 88
5, 11876, Note_off_c, 1, 63, 0
5, 11880, Note_on_c, 1, 62, 88
5, 11938, Note_off_c, 1, 62, 0
5, 11940, Note_on_c, 1, 60, 88
5, 11998, Note_off_c, 1, 60, 0
5, 12000, Note_on_c, 1, 62, 88
5, 12058, Note_off_c, 1, 62, 0
5, 12060, Note_on_c, 1, 64, 88
5, 12118, Note_off_c, 1, 64, 0
5, 12120, Note_on_c, 1, 62, 88
5, 12178, Note_off_c, 1, 62, 0
5, 12180, Note_on_c, 1, 64, 88
5, 12238, Note_off_c, 1, 64, 0
5, 12240, Note_on_c, 1, 65, 88
5, 12356, Note_off_c, 1, 65, 0
5, 12360, Note_on_c, 1, 64, 88
5, 12418, Note_off_c, 1, 64, 0
5, 12420, Note_on_c, 1, 62, 88
5, 12478, Note_off_c, 1, 62, 0
5, 12480, Note_on_c, 1, 67, 88
5, 12833, Note_off_c, 1, 67, 0
5, 12840, Note_on_c, 1, 65, 88
5, 12898, Note_off_c, 1, 65, 0
5, 12900, Note_on_c, 1, 64, 88
5, 12958, Note_off_c, 1, 64, 0
5, 12960, Note_on_c, 1, 65, 88
5, 13194, Note_off_c, 1, 65, 0
5, 13200, Note_on_c, 1, 64, 88
5, 13316, Note_off_c, 1, 64, 0
5, 13320, Note_on_c, 1, 70, 88
5, 13556, Note_off_c, 1, 70, 0
5, 13560, Note_on_c, 1, 69, 88
5, 13794, Note_off_c, 1, 69, 0
5, 13800, Note_on_c, 1, 67, 88
5, 13858, Note_off_c, 1, 67, 0
5, 13860, Note_on_c, 1, 69, 88
5, 13918, Note_off_c, 1, 69, 0
5, 13920, Note_on_c, 1, 70, 88
5, 14036, Note_off_c, 1, 70, 0
5, 14040, Note_on_c, 1, 69, 88
5, 14098, Note_off_c, 1, 69, 0
5, 14100, Note_on_c, 1, 67, 88
5, 14158, Note_off_c, 1, 67, 0
5, 14160, Note_on_c, 1, 69, 88
5, 14516, Note_off_c, 1, 69, 0
5, 14520, Note_on_c, 1, 67, 88
5, 14578, Note_off_c, 1, 67, 0
5, 14580, Note_on_c, 1, 65, 88
5, 14638, Note_off_c, 1, 65, 0
5, 14640, Note_on_c, 1, 64, 88
5, 14756, Note_off_c, 1, 64, 0
5, 14760, Note_on_c, 1, 60, 88
5, 14994, Note_off_c, 1, 60, 0
5, 15000, Note_on_c, 1, 62, 88
5, 15058, Note_off_c, 1, 62, 0
5, 15060, Note_on_c, 1, 63, 88
5, 15118, Note_off_c, 1, 63, 0
5, 15120, Note_on_c, 1, 65, 88
5, 15295, Note_off_c, 1, 65, 0
5, 15300, Note_on_c, 1, 67, 88
5, 15358, Note_off_c, 1, 67, 0
5, 15360, Note_on_c, 1, 69, 88
5, 15594, Note_off_c, 1, 69, 0
5, 15600, Note_on_c, 1, 67, 88
5, 15834, Note_off_c, 1, 67, 0
5, 15960, Note_on_c, 1, 72, 88
5, 16076, Note_off_c, 1, 72, 0
5, 16080, Note_on_c, 1, 74, 88
5, 16196, Note_off_c, 1, 74, 0
5, 16200, Note_on_c, 1, 65, 88
5, 16316, Note_off_c, 1, 65, 0
5, 16320, Note_on_c, 1, 63, 88
5, 16554, Note_off_c, 1, 63, 0
5, 16560, Note_on_c, 1, 65, 88
5, 16794, Note_off_c, 1, 65, 0
5, 16920, Note_on_c, 1, 65, 88
5, 16978, Note_off_c, 1, 65, 0
5, 16980, Note_on_c, 1, 67, 88
5, 17038, Note_off_c, 1, 67, 0
5, 17040, Note_on_c, 1, 68, 88
5, 17156, Note_off_c, 1, 68, 0
5, 17160, Note_on_c, 1, 67, 88
5, 17218, Note_off_c, 1, 67, 0
5, 17220, Note_on_c, 1, 65, 88
5, 17278, Note_off_c, 1, 65, 0
5, 17280, Note_on_c, 1, 67, 88
5, 17396, Note_off_c, 1, 67, 0
5, 17880, Note_on_c, 1, 77, 88
5, 17938, Note_off_c, 1, 77, 0
5, 17940, Note_on_c, 1, 75, 88
5, 17998, Note_off_c, 1, 75, 0
5, 18000, Note_on_c, 1, 74, 88
5, 18116, Note_off_c, 1, 74, 0
5, 18120, Note_on_c, 1, 75, 88
5, 18178, Note_off_c, 1, 75, 0
5, 18180, Note_on_c, 1, 77, 88
5, 18238, Note_off_c, 1, 77, 0
5, 18240, Note_on_c, 1, 71, 88
5, 18356, Note_off_c, 1, 71, 0
5, 18360, Note_on_c, 1, 75, 88
5, 18418, Note_off_c, 1, 75, 0
5, 18420, Note_on_c, 1, 74, 88
5, 18478, Note_off_c, 1, 74, 0
5, 18480, Note_on_c, 1, 72, 88
5, 18596, Note_off_c, 1, 72, 0
5, 18600, Note_on_c, 1, 74, 88
5, 18658, Note_off_c, 1, 74, 0
5, 18660, Note_on_c, 1, 75, 88
5, 18718, Note_off_c, 1, 75, 0
5, 18720, Note_on_c, 1, 65, 88
5, 18836, Note_off_c, 1, 65, 0
5, 18840, Note_on_c, 1, 67, 88
5, 18898, Note_off_c, 1, 67, 0
5, 18900, Note_on_c, 1, 65, 88
5, 18958, Note_off_c, 1, 65, 0
5, 18960, Note_on_c, 1, 63, 88
5, 19076, Note_off_c, 1, 63, 0
5, 19080, Note_on_c, 1, 65, 88
5, 19138, Note_off_c, 1, 65, 0
5, 19140, Note_on_c, 1, 67, 88
5, 19198, Note_off_c, 1, 67, 0
5, 19200, Note_on_c, 1, 68, 88
5, 19316, Note_off_c, 1, 68, 0
5, 19320, Note_on_c, 1, 65, 88
5, 19436, Note_off_c, 1, 65, 0
5, 19440, Note_on_c, 1, 62, 88
5, 19556, Note_off_c, 1, 62, 0
5, 19560, Note_on_c, 1, 71, 88
5, 19676, Note_off_c, 1, 71, 0
5, 19680, Note_on_c, 1, 72, 88
5, 19914, Note_off_c, 1, 72, 0
5, 20040, Note_on_c, 1, 63, 88
5, 20156, Note_off_c, 1, 63, 0
5, 20160, Note_on_c, 1, 62, 88
5, 20276, Note_off_c, 1, 62, 0
5, 20280, Note_on_c, 1, 63, 88
5, 20338, Note_off_c, 1, 63, 0
5, 20340, Note_on_c, 1, 65, 88
5, 20398, Note_off_c, 1, 65, 0
5, 20400, Note_on_c, 1, 67, 88
5, 20516, Note_off_c, 1, 67, 0
5, 20520, Note_on_c, 1, 69, 88
5, 20578, Note_off_c, 1, 69, 0
5, 20580, Note_on_c, 1, 71, 88
5, 20638, Note_off_c, 1, 71, 0
5, 20640, Note_on_c, 1, 72, 88
5, 20756, Note_off_c, 1, 72, 0
5, 20760, Note_on_c, 1, 71, 88
5, 20818, Note_off_c, 1, 71, 0
5, 20820, Note_on_c, 1, 72, 88
5, 20878, Note_off_c, 1, 72, 0
5, 20880, Note_on_c, 1, 74, 88
5, 20996, Note_off_c, 1, 74, 0
5, 21000, Note_on_c, 1, 67, 88
5, 21236, Note_off_c, 1, 67, 0
5, 21240, Note_on_c, 1, 72, 88
5, 21298, Note_off_c, 1, 72, 0
5, 21300, Note_on_c, 1, 74, 88
5, 21358, Note_off_c, 1, 74, 0
5, 21360, Note_on_c, 1, 75, 88
5, 21476, Note_off_c, 1, 75, 0
5, 21480, Note_on_c, 1, 67, 88
5, 21596, Note_off_c, 1, 67, 0
5, 21600, Note_on_c, 1, 66, 88
5, 21834, Note_off_c, 1, 66, 0
5, 21840, Note_on_c, 1, 67, 88
5, 22196, Note_off_c, 1, 67, 0
5, 22200, Note_on_c, 1, 69, 88
5, 22258, Note_off_c, 1, 69, 0
5, 22260, Note_on_c, 1, 70, 88
5, 22318, Note_off_c, 1, 70, 0
5, 22320, Note_on_c, 1, 72, 88
5, 22436, Note_off_c, 1, 72, 0
5, 22440, Note_on_c, 1, 70, 88
5, 22498, Note_off_c, 1, 70, 0
5, 22500, Note_on_c, 1, 69, 88
5, 22558, Note_off_c, 1, 69, 0
5, 22560, Note_on_c, 1, 70, 88
5, 22618, Note_off_c, 1, 70, 0
5, 22620, Note_on_c, 1, 62, 88
5, 22678, Note_off_c, 1, 62, 0
5, 22680, Note_on_c, 1, 64, 88
5, 22738, Note_off_c, 1, 64, 0
5, 22740, Note_on_c, 1, 66, 88
5, 22798, Note_off_c, 1, 66, 0
5, 22800, Note_on_c, 1, 67, 88
5, 23085, Note_off_c, 1, 67, 0
5, 23100, Note_on_c, 1, 67, 88
5, 23158, Note_off_c, 1, 67, 0
5, 23160, Note_on_c, 1, 65, 88
5, 23218, Note_off_c, 1, 65, 0
5, 23220, Note_on_c, 1, 63, 88
5, 23278, Note_off_c, 1, 63, 0
5, 23280, Note_on_c, 1, 62, 88
5, 23574, Note_off_c, 1, 62, 0
5, 23580, Note_on_c, 1, 58, 88
5, 23638, Note_off_c, 1, 58, 0
5, 23640, Note_on_c, 1, 60, 88
5, 23698, Note_off_c, 1, 60, 0
5, 23700, Note_on_c, 1, 62, 88
5, 23758, Note_off_c, 1, 62, 0
5, 23760, Note_on_c, 1, 63, 88
5, 24045, Note_off_c, 1, 63, 0
5, 24060, Note_on_c, 1, 63, 88
5, 24118, Note_off_c, 1, 63, 0
5, 24120, Note_on_c, 1, 62, 88
5, 24178, Note_off_c, 1, 62, 0
5, 24180, Note_on_c, 1, 60, 88
5, 24238, Note_off_c, 1, 60, 0
5, 24240, Note_on_c, 1, 58, 88
5, 24534, Note_off_c, 1, 58, 0
5, 24540, Note_on_c, 1, 55, 88
5, 24598, Note_off_c, 1, 55, 0
5, 24600, Note_on_c, 1, 57, 88
5, 24658, Note_off_c, 1, 57, 0
5, 24660, Note_on_c, 1, 59, 88
5, 24718, Note_off_c, 1, 59, 0
5, 24720, Note_on_c, 1, 60, 88
5, 25005, Note_off_c, 1, 60, 0
5, 25020, Note_on_c, 1, 60, 88
5, 25078, Note_off_c, 1, 60, 0
5, 25080, Note_on_c, 1, 58, 88
5, 25138, Note_off_c, 1, 58, 0
5, 25140, Note_on_c, 1, 57, 88
5, 25198, Note_off_c, 1, 57, 0
5, 25200, Note_on_c, 1, 55, 88
5, 25485, Note_off_c, 1, 55, 0
5, 25500, Note_on_c, 1, 55, 88
5, 25558, Note_off_c, 1, 55, 0
5, 25560, Note_on_c, 1, 57, 88
5, 25618, Note_off_c, 1, 57, 0
5, 25620, Note_on_c, 1, 58, 88
5, 25678, Note_off_c, 1, 58, 0
5, 25680, Note_on_c, 1, 60, 88
5, 25796, Note_off_c, 1, 60, 0
5, 25800, Note_on_c, 1, 61, 88
5, 25916, Note_off_c, 1, 61, 0
5, 25920, Note_on_c, 1, 62, 88
5, 26154, Note_off_c, 1, 62, 0
5, 26520, Note_on_c, 1, 74, 88
5, 26578, Note_off_c, 1, 74, 0
5, 26580, Note_on_c, 1, 72, 88
5, 26638, Note_off_c, 1, 72, 0
5, 26640, Note_on_c, 1, 70, 88
5, 26756, Note_off_c, 1, 70, 0
5, 26760, Note_on_c, 1, 72, 88
5, 26818, Note_off_c, 1, 72, 0
5, 26820, Note_on_c, 1, 74, 88
5, 26878, Note_off_c, 1, 74, 0
5, 26880, Note_on_c, 1, 75, 88
5, 26996, Note_off_c, 1, 75, 0
5, 27000, Note_on_c, 1, 74, 88
5, 27116, Note_off_c, 1, 74, 0
5, 27120, Note_on_c, 1, 72, 88
5, 27236, Note_off_c, 1, 72, 0
5, 27240, Note_on_c, 1, 75, 88
5, 27356, Note_off_c, 1, 75, 0
5, 27360, Note_on_c, 1, 69, 88
5, 27476, Note_off_c, 1, 69, 0
5, 27960, Note_on_c, 1, 66, 88
5, 28018, Note_off_c, 1, 66, 0
5, 28020, Note_on_c, 1, 67, 88
5, 28078, Note_off_c, 1, 67, 0
5, 28080, Note_on_c, 1, 69, 88
5, 28196, Note_off_c, 1, 69, 0
5, 28200, Note_on_c, 1, 67, 88
5, 28258, Note_off_c, 1, 67, 0
5, 28260, Note_on_c, 1, 66, 88
5, 28318, Note_off_c, 1, 66, 0
5, 28320, Note_on_c, 1, 67, 88
5, 29270, Note_off_c, 1, 67, 0
5, 29400, Note_on_c, 1, 74, 88
5, 29516, Note_off_c, 1, 74, 0
5, 29520, Note_on_c, 1, 75, 88
5, 29636, Note_off_c, 1, 75, 0
5, 29640, Note_on_c, 1, 67, 88
5, 29756, Note_off_c, 1, 67, 0
5, 29760, Note_on_c, 1, 67, 88
5, 29775, Note_on_c, 1, 66, 88
5, 29775, Note_off_c, 1, 67, 0
5, 29797, Note_off_c, 1, 66, 0
5, 29798, Note_on_c, 1, 67, 88
5, 29819, Note_off_c, 1, 67, 0
5, 29820, Note_on_c, 1, 66, 88
5, 29835, Note_off_c, 1, 66, 0
5, 29835, Note_on_c, 1, 67, 88
5, 29850, Note_on_c, 1, 66, 88
5, 29850, Note_off_c, 1, 67, 0
5, 29865, Note_off_c, 1, 66, 0
5, 29865, Note_on_c, 1, 67, 88
5, 29880, Note_on_c, 1, 66, 88
5, 29880, Note_off_c, 1, 67, 0
5, 29996, Note_off_c, 1, 66, 0
5, 30000, Note_on_c, 1, 67, 88
5, 30234, Note_off_c, 1, 67, 0
5, 30360, Note_on_c, 1, 69, 88
5, 30418, Note_off_c, 1, 69, 0
5, 30420, Note_on_c, 1, 70, 88
5, 30478, Note_off_c, 1, 70, 0
5, 30480, Note_on_c, 1, 72, 88
5, 30596, Note_off_c, 1, 72, 0
5, 30600, Note_on_c, 1, 70, 88
5, 30658, Note_off_c, 1, 70, 0
5, 30660, Note_on_c, 1, 69, 88
5, 30718, Note_off_c, 1, 69, 0
5, 30720, Note_on_c, 1, 70, 88
5, 31073, Note_off_c, 1, 70, 0
5, 31080, Note_on_c, 1, 67, 88
5, 31080, Note_on_c, 1, 71, 88
5, 31196, Note_off_c, 1, 67, 0
5, 31196, Note_off_c, 1, 71, 0
5, 31200, Note_on_c, 1, 69, 88
5, 31200, Note_on_c, 1, 72, 88
5, 31316, Note_off_c, 1, 69, 0
5, 31316, Note_off_c, 1, 72, 0
5, 31440, Note_on_c, 1, 62, 88
5, 31440, Note_on_c, 1, 67, 88
5, 31556, Note_off_c, 1, 62, 0
5, 31556, Note_off_c, 1, 67, 0
5, 31680, Note_on_c, 1, 63, 88
5, 31680, Note_on_c, 1, 67, 88
5, 31914, Note_off_c, 1, 63, 0
5, 31914, Note_off_c, 1, 67, 0
5, 31920, Note_on_c, 1, 62, 88
5, 31920, Note_on_c, 1, 66, 88
5, 32145, Note_off_c, 1, 62, 0
5, 32154, Note_off_c, 1, 66, 0
5, 32160, Note_on_c, 1, 62, 88
5, 32630, Note_off_c, 1, 62, 0
5, 32630, End_track
6, 0, Start_track
6, 0, Title_t, "Track 3"
6, 0, Program_c, 2, 6
6, 5400, Note_on_c, 2, 55, 88
6, 5516, Note_off_c, 2, 55, 0
6, 5520, Note_on_c, 2, 58, 88
6, 5636, Note_off_c, 2, 58, 0
6, 5640, Note_on_c, 2, 50, 88
6, 5756, Note_off_c, 2, 50, 0
6, 5760, Note_on_c, 2, 50, 88
6, 5775, Note_on_c, 2, 49, 88
6, 5775, Note_off_c, 2, 50, 0
6, 5797, Note_off_c, 2, 49, 0
6, 5798, Note_on_c, 2, 50, 88
6, 5819, Note_off_c, 2, 50, 0
6, 5820, Note_on_c, 2, 49, 88
6, 5835, Note_off_c, 2, 49, 0
6, 5835, Note_on_c, 2, 50, 88
6, 5850, Note_on_c, 2, 49, 88
6, 5850, Note_off_c, 2, 50, 0
6, 5865, Note_off_c, 2, 49, 0
6, 5865, Note_on_c, 2, 50, 88
6, 5880, Note_on_c, 2, 49, 88
6, 5880, Note_off_c, 2, 50, 0
6, 5996, Note_off_c, 2, 49, 0
6, 6000, Note_on_c, 2, 50, 88
6, 6234, Note_off_c, 2, 50, 0
6, 6360, Note_on_c, 2, 52, 88
6, 6418, Note_off_c, 2, 52, 0
6, 6420, Note_on_c, 2, 53, 88
6, 6478, Note_off_c, 2, 53, 0
6, 6480, Note_on_c, 2, 55, 88
6, 6596, Note_off_c, 2, 55, 0
6, 6600, Note_on_c, 2, 53, 88
6, 6658, Note_off_c, 2, 53, 0
6, 6660, Note_on_c, 2, 52, 88
6, 6718, Note_off_c, 2, 52, 0
6, 6720, Note_on_c, 2, 53, 88
6, 6836, Note_off_c, 2, 53, 0
6, 6840, Note_on_c, 2, 55, 88
6, 6898, Note_off_c, 2, 55, 0
6, 6900, Note_on_c, 2, 57, 88
6, 6958, Note_off_c, 2, 57, 0
6, 6960, Note_on_c, 2, 58, 88
6, 7076, Note_off_c, 2, 58, 0
6, 7080, Note_on_c, 2, 57, 88
6, 7138, Note_off_c, 2, 57, 0
6, 7140, Note_on_c, 2, 55, 88
6, 7198, Note_off_c, 2, 55, 0
6, 7200, Note_on_c, 2, 57, 88
6, 7316, Note_off_c, 2, 57, 0
6, 7320, Note_on_c, 2, 58, 88
6, 7378, Note_off_c, 2, 58, 0
6, 7380, Note_on_c, 2, 60, 88
6, 7438, Note_off_c, 2, 60, 0
6, 7440, Note_on_c, 2, 62, 88
6, 7556, Note_off_c, 2, 62, 0
6, 7560, Note_on_c, 2, 60, 88
6, 7618, Note_off_c, 2, 60, 0
6, 7620, Note_on_c, 2, 58, 88
6, 7678, Note_off_c, 2, 58, 0
6, 7680, Note_on_c, 2, 60, 88
6, 8388, Note_off_c, 2, 60, 0
6, 8400, Note_on_c, 2, 58, 88
6, 8516, Note_off_c, 2, 58, 0
6, 8520, Note_on_c, 2, 63, 88
6, 8636, Note_off_c, 2, 63, 0
6, 8640, Note_on_c, 2, 57, 88
6, 8698, Note_off_c, 2, 57, 0
6, 8700, Note_on_c, 2, 58, 88
6, 8758, Note_off_c, 2, 58, 0
6, 8760, Note_on_c, 2, 57, 88
6, 8818, Note_off_c, 2, 57, 0
6, 8820, Note_on_c, 2, 58, 88
6, 8878, Note_off_c, 2, 58, 0
6, 8880, Note_on_c, 2, 60, 88
6, 8996, Note_off_c, 2, 60, 0
6, 9000, Note_on_c, 2, 58, 88
6, 9058, Note_off_c, 2, 58, 0
6, 9060, Note_on_c, 2, 57, 88
6, 9118, Note_off_c, 2, 57, 0
6, 9120, Note_on_c, 2, 58, 88
6, 9236, Note_off_c, 2, 58, 0
6, 9240, Note_on_c, 2, 60, 88
6, 9298, Note_off_c, 2, 60, 0
6, 9300, Note_on_c, 2, 62, 88
6, 9358, Note_off_c, 2, 62, 0
6, 9360, Note_on_c, 2, 63, 88
6, 9834, Note_off_c, 2, 63, 0
6, 9840, Note_on_c, 2, 62, 88
6, 10074, Note_off_c, 2, 62, 0
6, 10080, Note_on_c, 2, 60, 88
6, 10550, Note_off_c, 2, 60, 0
6, 10560, Note_on_c, 2, 62, 88
6, 10794, Note_off_c, 2, 62, 0
6, 11160, Note_on_c, 2, 53, 88
6, 11218, Note_off_c, 2, 53, 0
6, 11220, Note_on_c, 2, 51, 88
6, 11278, Note_off_c, 2, 51, 0
6, 11280, Note_on_c, 2, 50, 88
6, 11396, Note_off_c, 2, 50, 0
6, 11400, Note_on_c, 2, 51, 88
6, 11458, Note_off_c, 2, 51, 0
6, 11460, Note_on_c, 2, 53, 88
6, 11518, Note_off_c, 2, 53, 0
6, 11520, Note_on_c, 2, 55, 88
6, 11636, Note_off_c, 2, 55, 0
6, 11640, Note_on_c, 2, 51, 88
6, 11756, Note_off_c, 2, 51, 0
6, 11760, Note_on_c, 2, 48, 88
6, 11876, Note_off_c, 2, 48, 0
6, 11880, Note_on_c, 2, 57, 88
6, 11996, Note_off_c, 2, 57, 0
6, 12000, Note_on_c, 2, 58, 88
6, 12596, Note_off_c, 2, 58, 0
6, 12600, Note_on_c, 2, 60, 88
6, 12658, Note_off_c, 2, 60, 0
6, 12660, Note_on_c, 2, 58, 88
6, 12718, Note_off_c, 2, 58, 0
6, 12720, Note_on_c, 2, 57, 88
6, 12836, Note_off_c, 2, 57, 0
6, 12840, Note_on_c, 2, 58, 88
6, 12898, Note_off_c, 2, 58, 0
6, 12900, Note_on_c, 2, 60, 88
6, 12958, Note_off_c, 2, 60, 0
6, 12960, Note_on_c, 2, 62, 88
6, 13076, Note_off_c, 2, 62, 0
6, 13080, Note_on_c, 2, 58, 88
6, 13196, Note_off_c, 2, 58, 0
6, 13200, Note_on_c, 2, 55, 88
6, 13316, Note_off_c, 2, 55, 0
6, 13320, Note_on_c, 2, 64, 88
6, 13436, Note_off_c, 2, 64, 0
6, 13440, Note_on_c, 2, 65, 88
6, 13615, Note_off_c, 2, 65, 0
6, 13620, Note_on_c, 2, 63, 88
6, 13678, Note_off_c, 2, 63, 0
6, 13680, Note_on_c, 2, 62, 88
6, 13914, Note_off_c, 2, 62, 0
6, 13920, Note_on_c, 2, 60, 88
6, 14273, Note_off_c, 2, 60, 0
6, 14280, Note_on_c, 2, 62, 88
6, 14338, Note_off_c, 2, 62, 0
6, 14340, Note_on_c, 2, 60, 88
6, 14398, Note_off_c, 2, 60, 0
6, 14400, Note_on_c, 2, 58, 88
6, 14870, Note_off_c, 2, 58, 0
6, 14880, Note_on_c, 2, 57, 88
6, 15114, Note_off_c, 2, 57, 0
6, 15180, Note_on_c, 2, 58, 88
6, 15238, Note_off_c, 2, 58, 0
6, 15240, Note_on_c, 2, 60, 88
6, 15298, Note_off_c, 2, 60, 0
6, 15300, Note_on_c, 2, 62, 88
6, 15358, Note_off_c, 2, 62, 0
6, 15360, Note_on_c, 2, 63, 88
6, 15476, Note_off_c, 2, 63, 0
6, 15480, Note_on_c, 2, 65, 88
6, 15538, Note_off_c, 2, 65, 0
6, 15540, Note_on_c, 2, 63, 88
6, 15598, Note_off_c, 2, 63, 0
6, 15600, Note_on_c, 2, 62, 88
6, 15716, Note_off_c, 2, 62, 0
6, 15720, Note_on_c, 2, 55, 88
6, 15954, Note_off_c, 2, 55, 0
6, 15960, Note_on_c, 2, 53, 88
6, 16076, Note_off_c, 2, 53, 0
6, 16080, Note_on_c, 2, 58, 88
6, 16196, Note_off_c, 2, 58, 0
6, 16200, Note_on_c, 2, 56, 88
6, 16316, Note_off_c, 2, 56, 0
6, 16320, Note_on_c, 2, 55, 88
6, 16554, Note_off_c, 2, 55, 0
6, 16560, Note_on_c, 2, 57, 88
6, 16676, Note_off_c, 2, 57, 0
6, 16680, Note_on_c, 2, 60, 88
6, 16796, Note_off_c, 2, 60, 0
6, 16800, Note_on_c, 2, 53, 88
6, 16916, Note_off_c, 2, 53, 0
6, 26520, Note_on_c, 2, 62, 88
6, 26636, Note_off_c, 2, 62, 0
6, 26640, Note_on_c, 2, 63, 88
6, 26756, Note_off_c, 2, 63, 0
6, 26760, Note_on_c, 2, 55, 88
6, 26876, Note_off_c, 2, 55, 0
6, 26880, Note_on_c, 2, 55, 88
6, 26895, Note_on_c, 2, 54, 88
6, 26895, Note_off_c, 2, 55, 0
6, 26917, Note_off_c, 2, 54, 0
6, 26918, Note_on_c, 2, 55, 88
6, 26939, Note_off_c, 2, 55, 0
6, 26940, Note_on_c, 2, 54, 88
6, 26955, Note_off_c, 2, 54, 0
6, 26955, Note_on_c, 2, 55, 88
6, 26970, Note_on_c, 2, 54, 88
6, 26970, Note_off_c, 2, 55, 0
6, 26985, Note_off_c, 2, 54, 0
6, 26985, Note_on_c, 2, 55, 88
6, 27000, Note_on_c, 2, 54, 88
6, 27000, Note_off_c, 2, 55, 0
6, 27116, Note_off_c, 2, 54, 0
6, 27120, Note_on_c, 2, 55, 88
6, 27354, Note_off_c, 2, 55, 0
6, 27480, Note_on_c, 2, 57, 88
6, 27538, Note_off_c, 2, 57, 0
6, 27540, Note_on_c, 2, 58, 88
6, 27598, Note_off_c, 2, 58, 0
6, 27600, Note_on_c, 2, 60, 88
6, 27716, Note_off_c, 2, 60, 0
6, 27720, Note_on_c, 2, 58, 88
6, 27778, Note_off_c, 2, 58, 0
6, 27780, Note_on_c, 2, 57, 88
6, 27838, Note_off_c, 2, 57, 0
6, 27840, Note_on_c, 2, 58, 88
6, 28430, Note_off_c, 2, 58, 0
6, 28440, Note_on_c, 2, 59, 88
6, 28498, Note_off_c, 2, 59, 0
6, 28500, Note_on_c, 2, 57, 88
6, 28558, Note_off_c, 2, 57, 0
6, 28560, Note_on_c, 2, 55, 88
6, 28676, Note_off_c, 2, 55, 0
6, 28680, Note_on_c, 2, 57, 88
6, 28738, Note_off_c, 2, 57, 0
6, 28740, Note_on_c, 2, 59, 88
6, 28798, Note_off_c, 2, 59, 0
6, 28800, Note_on_c, 2, 60, 88
6, 29034, Note_off_c, 2, 60, 0
6, 30840, Note_on_c, 2, 62, 88
6, 30956, Note_off_c, 2, 62, 0
6, 30960, Note_on_c, 2, 63, 88
6, 31076, Note_off_c, 2, 63, 0
6, 31080, Note_on_c, 2, 55, 88
6, 31185, Note_off_c, 2, 55, 0
6, 31200, Note_on_c, 2, 55, 88
6, 31215, Note_on_c, 2, 54, 88
6, 31215, Note_off_c, 2, 55, 0
6, 31237, Note_off_c, 2, 54, 0
6, 31238, Note_on_c, 2, 55, 88
6, 31259, Note_off_c, 2, 55, 0
6, 31260, Note_on_c, 2, 54, 88
6, 31275, Note_off_c, 2, 54, 0
6, 31275, Note_on_c, 2, 55, 88
6, 31290, Note_on_c, 2, 54, 88
6, 31290, Note_off_c, 2, 55, 0
6, 31305, Note_off_c, 2, 54, 0
6, 31305, Note_on_c, 2, 55, 88
6, 31320, Note_on_c, 2, 54, 88
6, 31320, Note_off_c, 2, 55, 0
6, 31436, Note_off_c, 2, 54, 0
6, 31440, Note_on_c, 2, 55, 88
6, 31674, Note_off_c, 2, 55, 0
6, 31800, Note_on_c, 2, 57, 88
6, 31858, Note_off_c, 2, 57, 0
6, 31860, Note_on_c, 2, 58, 88
6, 31918, Note_off_c, 2, 58, 0
6, 31920, Note_on_c, 2, 60, 88
6, 32036, Note_off_c, 2, 60, 0
6, 32040, Note_on_c, 2, 58, 88
6, 32098, Note_off_c, 2, 58, 0
6, 32100, Note_on_c, 2, 57, 88
6, 32158, Note_off_c, 2, 57, 0
6, 32160, Note_on_c, 2, 59, 88
6, 32630, Note_off_c, 2, 59, 0
6, 32630, End_track
7, 0, Start_track
7, 0, Title_t, "Track 4"
7, 0, Program_c, 3, 6
7, 3960, Note_on_c, 3, 50, 88
7, 4076, Note_off_c, 3, 50, 0
7, 4080, Note_on_c, 3, 51, 88
7, 4196, Note_off_c, 3, 51, 0
7, 4200, Note_on_c, 3, 43, 88
7, 4305, Note_off_c, 3, 43, 0
7, 4320, Note_on_c, 3, 43, 88
7, 4335, Note_on_c, 3, 42, 88
7, 4335, Note_off_c, 3, 43, 0
7, 4357, Note_off_c, 3, 42, 0
7, 4358, Note_on_c, 3, 43, 88
7, 4379, Note_off_c, 3, 43, 0
7, 4380, Note_on_c, 3, 42, 88
7, 4395, Note_off_c, 3, 42, 0
7, 4395, Note_on_c, 3, 43, 88
7, 4410, Note_on_c, 3, 42, 88
7, 4410, Note_off_c, 3, 43, 0
7, 4425, Note_off_c, 3, 42, 0
7, 4425, Note_on_c, 3, 43, 88
7, 4440, Note_on_c, 3, 42, 88
7, 4440, Note_off_c, 3, 43, 0
7, 4556, Note_off_c, 3, 42, 0
7, 4560, Note_on_c, 3, 43, 88
7, 4794, Note_off_c, 3, 43, 0
7, 4920, Note_on_c, 3, 45, 88
7, 4978, Note_off_c, 3, 45, 0
7, 4980, Note_on_c, 3, 46, 88
7, 5038, Note_off_c, 3, 46, 0
7, 5040, Note_on_c, 3, 48, 88
7, 5156, Note_off_c, 3, 48, 0
7, 5160, Note_on_c, 3, 46, 88
7, 5218, Note_off_c, 3, 46, 0
7, 5220, Note_on_c, 3, 45, 88
7, 5278, Note_off_c, 3, 45, 0
7, 5280, Note_on_c, 3, 46, 88
7, 5514, Note_off_c, 3, 46, 0
7, 5520, Note_on_c, 3, 43, 88
7, 5754, Note_off_c, 3, 43, 0
7, 5880, Note_on_c, 3, 45, 88
7, 5938, Note_off_c, 3, 45, 0
7, 5940, Note_on_c, 3, 43, 88
7, 5998, Note_off_c, 3, 43, 0
7, 6000, Note_on_c, 3, 41, 88
7, 6116, Note_off_c, 3, 41, 0
7, 6120, Note_on_c, 3, 43, 88
7, 6178, Note_off_c, 3, 43, 0
7, 6180, Note_on_c, 3, 45, 88
7, 6238, Note_off_c, 3, 45, 0
7, 6240, Note_on_c, 3, 46, 88
7, 6356, Note_off_c, 3, 46, 0
7, 6360, Note_on_c, 3, 43, 88
7, 6476, Note_off_c, 3, 43, 0
7, 6480, Note_on_c, 3, 40, 88
7, 6596, Note_off_c, 3, 40, 0
7, 6600, Note_on_c, 3, 49, 88
7, 6716, Note_off_c, 3, 49, 0
7, 6720, Note_on_c, 3, 50, 88
7, 7665, Note_off_c, 3, 50, 0
7, 7680, Note_on_c, 3, 52, 88
7, 7796, Note_off_c, 3, 52, 0
7, 7800, Note_on_c, 3, 57, 88
7, 7858, Note_off_c, 3, 57, 0
7, 7860, Note_on_c, 3, 55, 88
7, 7918, Note_off_c, 3, 55, 0
7, 7920, Note_on_c, 3, 54, 88
7, 8036, Note_off_c, 3, 54, 0
7, 8040, Note_on_c, 3, 55, 88
7, 8098, Note_off_c, 3, 55, 0
7, 8100, Note_on_c, 3, 57, 88
7, 8158, Note_off_c, 3, 57, 0
7, 8160, Note_on_c, 3, 46, 88
7, 8276, Note_off_c, 3, 46, 0
7, 8280, Note_on_c, 3, 48, 88
7, 8338, Note_off_c, 3, 48, 0
7, 8340, Note_on_c, 3, 50, 88
7, 8398, Note_off_c, 3, 50, 0
7, 8400, Note_on_c, 3, 51, 88
7, 8516, Note_off_c, 3, 51, 0
7, 8520, Note_on_c, 3, 50, 88
7, 8578, Note_off_c, 3, 50, 0
7, 8580, Note_on_c, 3, 48, 88
7, 8638, Note_off_c, 3, 48, 0
7, 8640, Note_on_c, 3, 50, 88
7, 9110, Note_off_c, 3, 50, 0
7, 9120, Note_on_c, 3, 43, 88
7, 9473, Note_off_c, 3, 43, 0
7, 9480, Note_on_c, 3, 45, 88
7, 9596, Note_off_c, 3, 45, 0
7, 9600, Note_on_c, 3, 46, 88
7, 9716, Note_off_c, 3, 46, 0
7, 9720, Note_on_c, 3, 53, 88
7, 9836, Note_off_c, 3, 53, 0
7, 9840, Note_on_c, 3, 55, 88
7, 9956, Note_off_c, 3, 55, 0
7, 9960, Note_on_c, 3, 50, 88
7, 10076, Note_off_c, 3, 50, 0
7, 10080, Note_on_c, 3, 51, 88
7, 10196, Note_off_c, 3, 51, 0
7, 10200, Note_on_c, 3, 50, 88
7, 10258, Note_off_c, 3, 50, 0
7, 10260, Note_on_c, 3, 51, 88
7, 10318, Note_off_c, 3, 51, 0
7, 10320, Note_on_c, 3, 53, 88
7, 10436, Note_off_c, 3, 53, 0
7, 10440, Note_on_c, 3, 41, 88
7, 10556, Note_off_c, 3, 41, 0
7, 10560, Note_on_c, 3, 46, 88
7, 10794, Note_off_c, 3, 46, 0
7, 12120, Note_on_c, 3, 46, 88
7, 12236, Note_off_c, 3, 46, 0
7, 12240, Note_on_c, 3, 50, 88
7, 12356, Note_off_c, 3, 50, 0
7, 12360, Note_on_c, 3, 41, 88
7, 12476, Note_off_c, 3, 41, 0
7, 12480, Note_on_c, 3, 41, 88
7, 12495, Note_on_c, 3, 40, 88
7, 12495, Note_off_c, 3, 41, 0
7, 12517, Note_off_c, 3, 40, 0
7, 12518, Note_on_c, 3, 41, 88
7, 12539, Note_off_c, 3, 41, 0
7, 12540, Note_on_c, 3, 40, 88
7, 12555, Note_off_c, 3, 40, 0
7, 12555, Note_on_c, 3, 41, 88
7, 12570, Note_on_c, 3, 40, 88
7, 12570, Note_off_c, 3, 41, 0
7, 12585, Note_off_c, 3, 40, 0
7, 12585, Note_on_c, 3, 41, 88
7, 12600, Note_on_c, 3, 40, 88
7, 12600, Note_off_c, 3, 41, 0
7, 12716, Note_off_c, 3, 40, 0
7, 12720, Note_on_c, 3, 41, 88
7, 12954, Note_off_c, 3, 41, 0
7, 13080, Note_on_c, 3, 43, 88
7, 13138, Note_off_c, 3, 43, 0
7, 13140, Note_on_c, 3, 45, 88
7, 13198, Note_off_c, 3, 45, 0
7, 13200, Note_on_c, 3, 46, 88
7, 13316, Note_off_c, 3, 46, 0
7, 13320, Note_on_c, 3, 45, 88
7, 13378, Note_off_c, 3, 45, 0
7, 13380, Note_on_c, 3, 43, 88
7, 13438, Note_off_c, 3, 43, 0
7, 13440, Note_on_c, 3, 45, 88
7, 13674, Note_off_c, 3, 45, 0
7, 13680, Note_on_c, 3, 46, 88
7, 13914, Note_off_c, 3, 46, 0
7, 14040, Note_on_c, 3, 48, 88
7, 14098, Note_off_c, 3, 48, 0
7, 14100, Note_on_c, 3, 46, 88
7, 14158, Note_off_c, 3, 46, 0
7, 14160, Note_on_c, 3, 45, 88
7, 14276, Note_off_c, 3, 45, 0
7, 14280, Note_on_c, 3, 46, 88
7, 14338, Note_off_c, 3, 46, 0
7, 14340, Note_on_c, 3, 48, 88
7, 14398, Note_off_c, 3, 48, 0
7, 14400, Note_on_c, 3, 50, 88
7, 14516, Note_off_c, 3, 50, 0
7, 14520, Note_on_c, 3, 46, 88
7, 14636, Note_off_c, 3, 46, 0
7, 14640, Note_on_c, 3, 43, 88
7, 14756, Note_off_c, 3, 43, 0
7, 14760, Note_on_c, 3, 52, 88
7, 14876, Note_off_c, 3, 52, 0
7, 14880, Note_on_c, 3, 53, 88
7, 15465, Note_off_c, 3, 53, 0
7, 15480, Note_on_c, 3, 53, 88
7, 15596, Note_off_c, 3, 53, 0
7, 15600, Note_on_c, 3, 55, 88
7, 15716, Note_off_c, 3, 55, 0
7, 15720, Note_on_c, 3, 46, 88
7, 15825, Note_off_c, 3, 46, 0
7, 15840, Note_on_c, 3, 46, 88
7, 15855, Note_on_c, 3, 45, 88
7, 15855, Note_off_c, 3, 46, 0
7, 15877, Note_off_c, 3, 45, 0
7, 15878, Note_on_c, 3, 46, 88
7, 15899, Note_off_c, 3, 46, 0
7, 15900, Note_on_c, 3, 45, 88
7, 15915, Note_off_c, 3, 45, 0
7, 15915, Note_on_c, 3, 46, 88
7, 15930, Note_on_c, 3, 45, 88
7, 15930, Note_off_c, 3, 46, 0
7, 15945, Note_off_c, 3, 45, 0
7, 15945, Note_on_c, 3, 46, 88
7, 15960, Note_on_c, 3, 45, 88
7, 15960, Note_off_c, 3, 46, 0
7, 16076, Note_off_c, 3, 45, 0
7, 16080, Note_on_c, 3, 46, 88
7, 16314, Note_off_c, 3, 46, 0
7, 16440, Note_on_c, 3, 48, 88
7, 16498, Note_off_c, 3, 48, 0
7, 16500, Note_on_c, 3, 50, 88
7, 16558, Note_off_c, 3, 50, 0
7, 16560, Note_on_c, 3, 51, 88
7, 16676, Note_off_c, 3, 51, 0
7, 16680, Note_on_c, 3, 50, 88
7, 16738, Note_off_c, 3, 50, 0
7, 16740, Note_on_c, 3, 48, 88
7, 16798, Note_off_c, 3, 48, 0
7, 16800, Note_on_c, 3, 50, 88
7, 16916, Note_off_c, 3, 50, 0
7, 16920, Note_on_c, 3, 48, 88
7, 16978, Note_off_c, 3, 48, 0
7, 16980, Note_on_c, 3, 46, 88
7, 17038, Note_off_c, 3, 46, 0
7, 17040, Note_on_c, 3, 48, 88
7, 17156, Note_off_c, 3, 48, 0
7, 17160, Note_on_c, 3, 50, 88
7, 17276, Note_off_c, 3, 50, 0
7, 17280, Note_on_c, 3, 51, 88
7, 17396, Note_off_c, 3, 51, 0
7, 17400, Note_on_c, 3, 50, 88
7, 17458, Note_off_c, 3, 50, 0
7, 17460, Note_on_c, 3, 48, 88
7, 17518, Note_off_c, 3, 48, 0
7, 17520, Note_on_c, 3, 50, 88
7, 17636, Note_off_c, 3, 50, 0
7, 17640, Note_on_c, 3, 52, 88
7, 17756, Note_off_c, 3, 52, 0
7, 17760, Note_on_c, 3, 53, 88
7, 17876, Note_off_c, 3, 53, 0
7, 17880, Note_on_c, 3, 41, 88
7, 17938, Note_off_c, 3, 41, 0
7, 17940, Note_on_c, 3, 43, 88
7, 17998, Note_off_c, 3, 43, 0
7, 18000, Note_on_c, 3, 44, 88
7, 18116, Note_off_c, 3, 44, 0
7, 18120, Note_on_c, 3, 43, 88
7, 18178, Note_off_c, 3, 43, 0
7, 18180, Note_on_c, 3, 41, 88
7, 18238, Note_off_c, 3, 41, 0
7, 18240, Note_on_c, 3, 43, 88
7, 18356, Note_off_c, 3, 43, 0
7, 18360, Note_on_c, 3, 55, 88
7, 18476, Note_off_c, 3, 55, 0
7, 18480, Note_on_c, 3, 56, 88
7, 18596, Note_off_c, 3, 56, 0
7, 18600, Note_on_c, 3, 48, 88
7, 18705, Note_off_c, 3, 48, 0
7, 18720, Note_on_c, 3, 48, 88
7, 18735, Note_on_c, 3, 47, 88
7, 18735, Note_off_c, 3, 48, 0
7, 18757, Note_off_c, 3, 47, 0
7, 18758, Note_on_c, 3, 48, 88
7, 18779, Note_off_c, 3, 48, 0
7, 18780, Note_on_c, 3, 47, 88
7, 18795, Note_off_c, 3, 47, 0
7, 18795, Note_on_c, 3, 48, 88
7, 18810, Note_on_c, 3, 47, 88
7, 18810, Note_off_c, 3, 48, 0
7, 18825, Note_off_c, 3, 47, 0
7, 18825, Note_on_c, 3, 48, 88
7, 18840, Note_on_c, 3, 47, 88
7, 18840, Note_off_c, 3, 48, 0
7, 18956, Note_off_c, 3, 47, 0
7, 18960, Note_on_c, 3, 48, 88
7, 19194, Note_off_c, 3, 48, 0
7, 19320, Note_on_c, 3, 50, 88
7, 19378, Note_off_c, 3, 50, 0
7, 19380, Note_on_c, 3, 51, 88
7, 19438, Note_off_c, 3, 51, 0
7, 19440, Note_on_c, 3, 53, 88
7, 19556, Note_off_c, 3, 53, 0
7, 19560, Note_on_c, 3, 51, 88
7, 19618, Note_off_c, 3, 51, 0
7, 19620, Note_on_c, 3, 50, 88
7, 19678, Note_off_c, 3, 50, 0
7, 19680, Note_on_c, 3, 51, 88
7, 19796, Note_off_c, 3, 51, 0
7, 19800, Note_on_c, 3, 52, 88
7, 19916, Note_off_c, 3, 52, 0
7, 19920, Note_on_c, 3, 53, 88
7, 20036, Note_off_c, 3, 53, 0
7, 20040, Note_on_c, 3, 54, 88
7, 20156, Note_off_c, 3, 54, 0
7, 20160, Note_on_c, 3, 55, 88
7, 20218, Note_off_c, 3, 55, 0
7, 20220, Note_on_c, 3, 56, 88
7, 20278, Note_off_c, 3, 56, 0
7, 20280, Note_on_c, 3, 55, 88
7, 20338, Note_off_c, 3, 55, 0
7, 20340, Note_on_c, 3, 53, 88
7, 20398, Note_off_c, 3, 53, 0
7, 20400, Note_on_c, 3, 51, 88
7, 20516, Note_off_c, 3, 51, 0
7, 20520, Note_on_c, 3, 53, 88
7, 20578, Note_off_c, 3, 53, 0
7, 20580, Note_on_c, 3, 55, 88
7, 20638, Note_off_c, 3, 55, 0
7, 20640, Note_on_c, 3, 56, 88
7, 20756, Note_off_c, 3, 56, 0
7, 20760, Note_on_c, 3, 53, 88
7, 20876, Note_off_c, 3, 53, 0
7, 20880, Note_on_c, 3, 50, 88
7, 20996, Note_off_c, 3, 50, 0
7, 21000, Note_on_c, 3, 59, 88
7, 21116, Note_off_c, 3, 59, 0
7, 21120, Note_on_c, 3, 60, 88
7, 21414, Note_off_c, 3, 60, 0
7, 21420, Note_on_c, 3, 62, 88
7, 21478, Note_off_c, 3, 62, 0
7, 21480, Note_on_c, 3, 60, 88
7, 21538, Note_off_c, 3, 60, 0
7, 21540, Note_on_c, 3, 58, 88
7, 21598, Note_off_c, 3, 58, 0
7, 21600, Note_on_c, 3, 57, 88
7, 21658, Note_off_c, 3, 57, 0
7, 21660, Note_on_c, 3, 50, 88
7, 21718, Note_off_c, 3, 50, 0
7, 21720, Note_on_c, 3, 48, 88
7, 21778, Note_off_c, 3, 48, 0
7, 21780, Note_on_c, 3, 50, 88
7, 21838, Note_off_c, 3, 50, 0
7, 21840, Note_on_c, 3, 51, 88
7, 21898, Note_off_c, 3, 51, 0
7, 21900, Note_on_c, 3, 50, 88
7, 21958, Note_off_c, 3, 50, 0
7, 21960, Note_on_c, 3, 48, 88
7, 22018, Note_off_c, 3, 48, 0
7, 22020, Note_on_c, 3, 46, 88
7, 22078, Note_off_c, 3, 46, 0
7, 22080, Note_on_c, 3, 45, 88
7, 22196, Note_off_c, 3, 45, 0
7, 22200, Note_on_c, 3, 48, 88
7, 22316, Note_off_c, 3, 48, 0
7, 22320, Note_on_c, 3, 50, 88
7, 22436, Note_off_c, 3, 50, 0
7, 22440, Note_on_c, 3, 38, 88
7, 22556, Note_off_c, 3, 38, 0
7, 22560, Note_on_c, 3, 43, 88
7, 22676, Note_off_c, 3, 43, 0
7, 22680, Note_on_c, 3, 55, 88
7, 22738, Note_off_c, 3, 55, 0
7, 22740, Note_on_c, 3, 57, 88
7, 22798, Note_off_c, 3, 57, 0
7, 22800, Note_on_c, 3, 58, 88
7, 22916, Note_off_c, 3, 58, 0
7, 22920, Note_on_c, 3, 57, 88
7, 22978, Note_off_c, 3, 57, 0
7, 22980, Note_on_c, 3, 55, 88
7, 23038, Note_off_c, 3, 55, 0
7, 23040, Note_on_c, 3, 62, 88
7, 23156, Note_off_c, 3, 62, 0
7, 23160, Note_on_c, 3, 50, 88
7, 23218, Note_off_c, 3, 50, 0
7, 23220, Note_on_c, 3, 51, 88
7, 23278, Note_off_c, 3, 51, 0
7, 23280, Note_on_c, 3, 53, 88
7, 23396, Note_off_c, 3, 53, 0
7, 23400, Note_on_c, 3, 51, 88
7, 23458, Note_off_c, 3, 51, 0
7, 23460, Note_on_c, 3, 50, 88
7, 23518, Note_off_c, 3, 50, 0
7, 23520, Note_on_c, 3, 39, 88
7, 23636, Note_off_c, 3, 39, 0
7, 23640, Note_on_c, 3, 51, 88
7, 23698, Note_off_c, 3, 51, 0
7, 23700, Note_on_c, 3, 53, 88
7, 23758, Note_off_c, 3, 53, 0
7, 23760, Note_on_c, 3, 55, 88
7, 23876, Note_off_c, 3, 55, 0
7, 23880, Note_on_c, 3, 53, 88
7, 23938, Note_off_c, 3, 53, 0
7, 23940, Note_on_c, 3, 51, 88
7, 23998, Note_off_c, 3, 51, 0
7, 24000, Note_on_c, 3, 58, 88
7, 24116, Note_off_c, 3, 58, 0
7, 24120, Note_on_c, 3, 46, 88
7, 24178, Note_off_c, 3, 46, 0
7, 24180, Note_on_c, 3, 48, 88
7, 24238, Note_off_c, 3, 48, 0
7, 24240, Note_on_c, 3, 50, 88
7, 24356, Note_off_c, 3, 50, 0
7, 24360, Note_on_c, 3, 48, 88
7, 24418, Note_off_c, 3, 48, 0
7, 24420, Note_on_c, 3, 46, 88
7, 24478, Note_off_c, 3, 46, 0
7, 24480, Note_on_c, 3, 36, 88
7, 24596, Note_off_c, 3, 36, 0
7, 24600, Note_on_c, 3, 48, 88
7, 24658, Note_off_c, 3, 48, 0
7, 24660, Note_on_c, 3, 50, 88
7, 24718, Note_off_c, 3, 50, 0
7, 24720, Note_on_c, 3, 51, 88
7, 24836, Note_off_c, 3, 51, 0
7, 24840, Note_on_c, 3, 50, 88
7, 24898, Note_off_c, 3, 50, 0
7, 24900, Note_on_c, 3, 48, 88
7, 24958, Note_off_c, 3, 48, 0
7, 24960, Note_on_c, 3, 55, 88
7, 25076, Note_off_c, 3, 55, 0
7, 25080, Note_on_c, 3, 43, 88
7, 25138, Note_off_c, 3, 43, 0
7, 25140, Note_on_c, 3, 45, 88
7, 25198, Note_off_c, 3, 45, 0
7, 25200, Note_on_c, 3, 46, 88
7, 25316, Note_off_c, 3, 46, 0
7, 25320, Note_on_c, 3, 45, 88
7, 25378, Note_off_c, 3, 45, 0
7, 25380, Note_on_c, 3, 43, 88
7, 25438, Note_off_c, 3, 43, 0
7, 25440, Note_on_c, 3, 53, 88
7, 25469, Note_off_c, 3, 53, 0
7, 25470, Note_on_c, 3, 51, 88
7, 25492, Note_off_c, 3, 51, 0
7, 25493, Note_on_c, 3, 53, 88
7, 25514, Note_off_c, 3, 53, 0
7, 25515, Note_on_c, 3, 51, 88
7, 25537, Note_off_c, 3, 51, 0
7, 25538, Note_on_c, 3, 53, 88
7, 25559, Note_off_c, 3, 53, 0
7, 25560, Note_on_c, 3, 51, 88
7, 25582, Note_off_c, 3, 51, 0
7, 25583, Note_on_c, 3, 53, 88
7, 25604, Note_off_c, 3, 53, 0
7, 25605, Note_on_c, 3, 51, 88
7, 25627, Note_off_c, 3, 51, 0
7, 25628, Note_on_c, 3, 53, 88
7, 25649, Note_off_c, 3, 53, 0
7, 25650, Note_on_c, 3, 51, 88
7, 25672, Note_off_c, 3, 51, 0
7, 25673, Note_on_c, 3, 53, 88
7, 25694, Note_off_c, 3, 53, 0
7, 25695, Note_on_c, 3, 51, 88
7, 25717, Note_off_c, 3, 51, 0
7, 25718, Note_on_c, 3, 53, 88
7, 25739, Note_off_c, 3, 53, 0
7, 25740, Note_on_c, 3, 51, 88
7, 25762, Note_off_c, 3, 51, 0
7, 25763, Note_on_c, 3, 53, 88
7, 25784, Note_off_c, 3, 53, 0
7, 25785, Note_on_c, 3, 51, 88
7, 25807, Note_off_c, 3, 51, 0
7, 25808, Note_on_c, 3, 53, 88
7, 25829, Note_off_c, 3, 53, 0
7, 25830, Note_on_c, 3, 51, 88
7, 25845, Note_off_c, 3, 51, 0
7, 25845, Note_on_c, 3, 53, 88
7, 25860, Note_on_c, 3, 51, 88
7, 25860, Note_off_c, 3, 53, 0
7, 25875, Note_off_c, 3, 51, 0
7, 25875, Note_on_c, 3, 53, 88
7, 25890, Note_on_c, 3, 51, 88
7, 25890, Note_off_c, 3, 53, 0
7, 25919, Note_off_c, 3, 51, 0
7, 25920, Note_on_c, 3, 50, 88
7, 26154, Note_off_c, 3, 50, 0
7, 27000, Note_on_c, 3, 50, 88
7, 27116, Note_off_c, 3, 50, 0
7, 27120, Note_on_c, 3, 51, 88
7, 27236, Note_off_c, 3, 51, 0
7, 27240, Note_on_c, 3, 43, 88
7, 27345, Note_off_c, 3, 43, 0
7, 27360, Note_on_c, 3, 43, 88
7, 27375, Note_on_c, 3, 42, 88
7, 27375, Note_off_c, 3, 43, 0
7, 27397, Note_off_c, 3, 42, 0
7, 27398, Note_on_c, 3, 43, 88
7, 27419, Note_off_c, 3, 43, 0
7, 27420, Note_on_c, 3, 42, 88
7, 27435, Note_off_c, 3, 42, 0
7, 27435, Note_on_c, 3, 43, 88
7, 27450, Note_on_c, 3, 42, 88
7, 27450, Note_off_c, 3, 43, 0
7, 27465, Note_off_c, 3, 42, 0
7, 27465, Note_on_c, 3, 43, 88
7, 27480, Note_on_c, 3, 42, 88
7, 27480, Note_off_c, 3, 43, 0
7, 27596, Note_off_c, 3, 42, 0
7, 27600, Note_on_c, 3, 45, 88
7, 27834, Note_off_c, 3, 45, 0
7, 27840, Note_on_c, 3, 38, 88
7, 27956, Note_off_c, 3, 38, 0
7, 27960, Note_on_c, 3, 50, 88
7, 28018, Note_off_c, 3, 50, 0
7, 28020, Note_on_c, 3, 48, 88
7, 28078, Note_off_c, 3, 48, 0
7, 28080, Note_on_c, 3, 46, 88
7, 28196, Note_off_c, 3, 46, 0
7, 28200, Note_on_c, 3, 48, 88
7, 28258, Note_off_c, 3, 48, 0
7, 28260, Note_on_c, 3, 50, 88
7, 28318, Note_off_c, 3, 50, 0
7, 28320, Note_on_c, 3, 51, 88
7, 28905, Note_off_c, 3, 51, 0
7, 28920, Note_on_c, 3, 51, 88
7, 28978, Note_off_c, 3, 51, 0
7, 28980, Note_on_c, 3, 50, 88
7, 29038, Note_off_c, 3, 50, 0
7, 29040, Note_on_c, 3, 48, 88
7, 29156, Note_off_c, 3, 48, 0
7, 29160, Note_on_c, 3, 50, 88
7, 29218, Note_off_c, 3, 50, 0
7, 29220, Note_on_c, 3, 51, 88
7, 29278, Note_off_c, 3, 51, 0
7, 29280, Note_on_c, 3, 42, 88
7, 29396, Note_off_c, 3, 42, 0
7, 29400, Note_on_c, 3, 45, 88
7, 29458, Note_off_c, 3, 45, 0
7, 29460, Note_on_c, 3, 43, 88
7, 29518, Note_off_c, 3, 43, 0
7, 29520, Note_on_c, 3, 42, 88
7, 29636, Note_off_c, 3, 42, 0
7, 29640, Note_on_c, 3, 43, 88
7, 29698, Note_off_c, 3, 43, 0
7, 29700, Note_on_c, 3, 45, 88
7, 29758, Note_off_c, 3, 45, 0
7, 29760, Note_on_c, 3, 38, 88
7, 29876, Note_off_c, 3, 38, 0
7, 29880, Note_on_c, 3, 50, 88
7, 29938, Note_off_c, 3, 50, 0
7, 29940, Note_on_c, 3, 48, 88
7, 29998, Note_off_c, 3, 48, 0
7, 30000, Note_on_c, 3, 46, 88
7, 30116, Note_off_c, 3, 46, 0
7, 30120, Note_on_c, 3, 48, 88
7, 30178, Note_off_c, 3, 48, 0
7, 30180, Note_on_c, 3, 50, 88
7, 30238, Note_off_c, 3, 50, 0
7, 30240, Note_on_c, 3, 51, 88
7, 30356, Note_off_c, 3, 51, 0
7, 30360, Note_on_c, 3, 48, 88
7, 30476, Note_off_c, 3, 48, 0
7, 30480, Note_on_c, 3, 45, 88
7, 30596, Note_off_c, 3, 45, 0
7, 30600, Note_on_c, 3, 54, 88
7, 30716, Note_off_c, 3, 54, 0
7, 30720, Note_on_c, 3, 55, 88
7, 30836, Note_off_c, 3, 55, 0
7, 30840, Note_on_c, 3, 53, 88
7, 30956, Note_off_c, 3, 53, 0
7, 30960, Note_on_c, 3, 51, 88
7, 31076, Note_off_c, 3, 51, 0
7, 31080, Note_on_c, 3, 50, 88
7, 31196, Note_off_c, 3, 50, 0
7, 31200, Note_on_c, 3, 48, 88
7, 31316, Note_off_c, 3, 48, 0
7, 31320, Note_on_c, 3, 46, 88
7, 31436, Note_off_c, 3, 46, 0
7, 31440, Note_on_c, 3, 45, 88
7, 31556, Note_off_c, 3, 45, 0
7, 31560, Note_on_c, 3, 43, 88
7, 31676, Note_off_c, 3, 43, 0
7, 31680, Note_on_c, 3, 48, 88
7, 31796, Note_off_c, 3, 48, 0
7, 31800, Note_on_c, 3, 45, 88
7, 31916, Note_off_c, 3, 45, 0
7, 31920, Note_on_c, 3, 50, 88
7, 32036, Note_off_c, 3, 50, 0
7, 32040, Note_on_c, 3, 38, 88
7, 32156, Note_off_c, 3, 38, 0
7, 32160, Note_on_c, 3, 43, 88
7, 32630, Note_off_c, 3, 43, 0
7, 32630, End_track
0, 0, End_of_file
